{
  "id": "piano-sonata-in-c-major-kv-309-1st-part-mozart",
  "title": "Sonata para Piano em Dó Maior, KV 309 (1ª Parte)",
  "artist": "Wolfgang Amadeus Mozart",
  "difficulty": "Difícil",
  "bpm": 146,
  "duration": 256,
  "category": "Clássicos",
  "isPremium": true,
  "coverUrl": "/images/covers/placeholder.png",
  "notes": [
    {
      "midi": 60,
      "time": 0,
      "duration": 0.051,
      "velocity": 1,
      "hand": "right"
    },
    {
      "midi": 64,
      "time": 0,
      "duration": 0.051,
      "velocity": 1,
      "hand": "right"
    },
    {
      "midi": 36,
      "time": 0.103,
      "duration": 0.822,
      "velocity": 1,
      "hand": "left"
    },
    {
      "midi": 48,
      "time": 0.103,
      "duration": 0.822,
      "velocity": 1,
      "hand": "left"
    },
    {
      "midi": 67,
      "time": 0.103,
      "duration": 0.051,
      "velocity": 1,
      "hand": "right"
    },
    {
      "midi": 72,
      "time": 0.103,
      "duration": 0.822,
      "velocity": 1,
      "hand": "right"
    },
    {
      "midi": 31,
      "time": 0.925,
      "duration": 0.822,
      "velocity": 1,
      "hand": "left"
    },
    {
      "midi": 43,
      "time": 0.925,
      "duration": 0.822,
      "velocity": 1,
      "hand": "left"
    },
    {
      "midi": 67,
      "time": 0.925,
      "duration": 0.822,
      "velocity": 1,
      "hand": "right"
    },
    {
      "midi": 52,
      "time": 1.747,
      "duration": 0.616,
      "velocity": 1,
      "hand": "left"
    },
    {
      "midi": 76,
      "time": 1.747,
      "duration": 0.616,
      "velocity": 1,
      "hand": "right"
    },
    {
      "midi": 53,
      "time": 2.363,
      "duration": 0.103,
      "velocity": 1,
      "hand": "left"
    },
    {
      "midi": 77,
      "time": 2.363,
      "duration": 0.103,
      "velocity": 1,
      "hand": "right"
    },
    {
      "midi": 50,
      "time": 2.466,
      "duration": 0.103,
      "velocity": 1,
      "hand": "left"
    },
    {
      "midi": 74,
      "time": 2.466,
      "duration": 0.103,
      "velocity": 1,
      "hand": "right"
    },
    {
      "midi": 48,
      "time": 2.568,
      "duration": 0.411,
      "velocity": 1,
      "hand": "left"
    },
    {
      "midi": 72,
      "time": 2.568,
      "duration": 0.411,
      "velocity": 1,
      "hand": "right"
    },
    {
      "midi": 64,
      "time": 3.39,
      "duration": 0.205,
      "velocity": 1,
      "hand": "right"
    },
    {
      "midi": 79,
      "time": 3.39,
      "duration": 0.411,
      "velocity": 1,
      "hand": "right"
    },
    {
      "midi": 67,
      "time": 3.596,
      "duration": 0.205,
      "velocity": 1,
      "hand": "right"
    },
    {
      "midi": 64,
      "time": 3.801,
      "duration": 0.205,
      "velocity": 1,
      "hand": "right"
    },
    {
      "midi": 79,
      "time": 3.801,
      "duration": 0.411,
      "velocity": 1,
      "hand": "right"
    },
    {
      "midi": 67,
      "time": 4.007,
      "duration": 0.205,
      "velocity": 1,
      "hand": "right"
    },
    {
      "midi": 61,
      "time": 4.212,
      "duration": 0.205,
      "velocity": 1,
      "hand": "right"
    },
    {
      "midi": 67,
      "time": 4.418,
      "duration": 0.205,
      "velocity": 1,
      "hand": "right"
    },
    {
      "midi": 61,
      "time": 4.623,
      "duration": 0.205,
      "velocity": 1,
      "hand": "right"
    },
    {
      "midi": 81,
      "time": 4.623,
      "duration": 0.411,
      "velocity": 1,
      "hand": "right"
    },
    {
      "midi": 67,
      "time": 4.829,
      "duration": 0.205,
      "velocity": 1,
      "hand": "right"
    },
    {
      "midi": 62,
      "time": 5.034,
      "duration": 0.205,
      "velocity": 1,
      "hand": "right"
    },
    {
      "midi": 79,
      "time": 5.034,
      "duration": 0.103,
      "velocity": 1,
      "hand": "right"
    },
    {
      "midi": 77,
      "time": 5.137,
      "duration": 0.308,
      "velocity": 1,
      "hand": "right"
    },
    {
      "midi": 67,
      "time": 5.24,
      "duration": 0.205,
      "velocity": 1,
      "hand": "right"
    },
    {
      "midi": 62,
      "time": 5.445,
      "duration": 0.205,
      "velocity": 1,
      "hand": "right"
    },
    {
      "midi": 77,
      "time": 5.445,
      "duration": 0.411,
      "velocity": 1,
      "hand": "right"
    },
    {
      "midi": 67,
      "time": 5.651,
      "duration": 0.205,
      "velocity": 1,
      "hand": "right"
    },
    {
      "midi": 59,
      "time": 5.856,
      "duration": 0.205,
      "velocity": 1,
      "hand": "left"
    },
    {
      "midi": 67,
      "time": 6.062,
      "duration": 0.205,
      "velocity": 1,
      "hand": "right"
    },
    {
      "midi": 59,
      "time": 6.267,
      "duration": 0.205,
      "velocity": 1,
      "hand": "left"
    },
    {
      "midi": 79,
      "time": 6.267,
      "duration": 0.411,
      "velocity": 1,
      "hand": "right"
    },
    {
      "midi": 67,
      "time": 6.473,
      "duration": 0.205,
      "velocity": 1,
      "hand": "right"
    },
    {
      "midi": 60,
      "time": 6.678,
      "duration": 0.205,
      "velocity": 1,
      "hand": "right"
    },
    {
      "midi": 77,
      "time": 6.678,
      "duration": 0.103,
      "velocity": 1,
      "hand": "right"
    },
    {
      "midi": 76,
      "time": 6.781,
      "duration": 0.308,
      "velocity": 1,
      "hand": "right"
    },
    {
      "midi": 67,
      "time": 6.884,
      "duration": 0.205,
      "velocity": 1,
      "hand": "right"
    },
    {
      "midi": 60,
      "time": 7.089,
      "duration": 0.205,
      "velocity": 1,
      "hand": "right"
    },
    {
      "midi": 76,
      "time": 7.089,
      "duration": 0.411,
      "velocity": 1,
      "hand": "right"
    },
    {
      "midi": 67,
      "time": 7.295,
      "duration": 0.205,
      "velocity": 1,
      "hand": "right"
    },
    {
      "midi": 64,
      "time": 7.5,
      "duration": 0.205,
      "velocity": 1,
      "hand": "right"
    },
    {
      "midi": 67,
      "time": 7.705,
      "duration": 0.205,
      "velocity": 1,
      "hand": "right"
    },
    {
      "midi": 64,
      "time": 7.911,
      "duration": 0.205,
      "velocity": 1,
      "hand": "right"
    },
    {
      "midi": 79,
      "time": 7.911,
      "duration": 0.205,
      "velocity": 1,
      "hand": "right"
    },
    {
      "midi": 67,
      "time": 8.116,
      "duration": 0.205,
      "velocity": 1,
      "hand": "right"
    },
    {
      "midi": 76,
      "time": 8.116,
      "duration": 0.205,
      "velocity": 1,
      "hand": "right"
    },
    {
      "midi": 65,
      "time": 8.322,
      "duration": 1.644,
      "velocity": 1,
      "hand": "right"
    },
    {
      "midi": 69,
      "time": 8.322,
      "duration": 1.644,
      "velocity": 1,
      "hand": "right"
    },
    {
      "midi": 73,
      "time": 8.322,
      "duration": 0.205,
      "velocity": 1,
      "hand": "right"
    },
    {
      "midi": 74,
      "time": 8.527,
      "duration": 0.205,
      "velocity": 1,
      "hand": "right"
    },
    {
      "midi": 77,
      "time": 8.733,
      "duration": 0.205,
      "velocity": 1,
      "hand": "right"
    },
    {
      "midi": 76,
      "time": 8.938,
      "duration": 0.205,
      "velocity": 1,
      "hand": "right"
    },
    {
      "midi": 73,
      "time": 9.144,
      "duration": 0.205,
      "velocity": 1,
      "hand": "right"
    },
    {
      "midi": 74,
      "time": 9.349,
      "duration": 0.205,
      "velocity": 1,
      "hand": "right"
    },
    {
      "midi": 77,
      "time": 9.555,
      "duration": 0.205,
      "velocity": 1,
      "hand": "right"
    },
    {
      "midi": 76,
      "time": 9.76,
      "duration": 0.205,
      "velocity": 1,
      "hand": "right"
    },
    {
      "midi": 73,
      "time": 9.966,
      "duration": 0.205,
      "velocity": 1,
      "hand": "right"
    },
    {
      "midi": 74,
      "time": 10.171,
      "duration": 0.205,
      "velocity": 1,
      "hand": "right"
    },
    {
      "midi": 53,
      "time": 10.377,
      "duration": 0.411,
      "velocity": 1,
      "hand": "left"
    },
    {
      "midi": 57,
      "time": 10.377,
      "duration": 0.411,
      "velocity": 1,
      "hand": "left"
    },
    {
      "midi": 62,
      "time": 10.377,
      "duration": 0.411,
      "velocity": 1,
      "hand": "right"
    },
    {
      "midi": 77,
      "time": 10.377,
      "duration": 0.205,
      "velocity": 1,
      "hand": "right"
    },
    {
      "midi": 81,
      "time": 10.582,
      "duration": 0.205,
      "velocity": 1,
      "hand": "right"
    },
    {
      "midi": 55,
      "time": 10.788,
      "duration": 0.411,
      "velocity": 1,
      "hand": "left"
    },
    {
      "midi": 60,
      "time": 10.788,
      "duration": 0.411,
      "velocity": 1,
      "hand": "right"
    },
    {
      "midi": 64,
      "time": 10.788,
      "duration": 0.411,
      "velocity": 1,
      "hand": "right"
    },
    {
      "midi": 79,
      "time": 10.788,
      "duration": 0.205,
      "velocity": 1,
      "hand": "right"
    },
    {
      "midi": 76,
      "time": 10.993,
      "duration": 0.205,
      "velocity": 1,
      "hand": "right"
    },
    {
      "midi": 55,
      "time": 11.199,
      "duration": 0.411,
      "velocity": 1,
      "hand": "left"
    },
    {
      "midi": 59,
      "time": 11.199,
      "duration": 0.411,
      "velocity": 1,
      "hand": "left"
    },
    {
      "midi": 62,
      "time": 11.199,
      "duration": 0.411,
      "velocity": 1,
      "hand": "right"
    },
    {
      "midi": 77,
      "time": 11.199,
      "duration": 0.205,
      "velocity": 1,
      "hand": "right"
    },
    {
      "midi": 74,
      "time": 11.404,
      "duration": 0.205,
      "velocity": 1,
      "hand": "right"
    },
    {
      "midi": 60,
      "time": 11.61,
      "duration": 0.051,
      "velocity": 1,
      "hand": "right"
    },
    {
      "midi": 64,
      "time": 11.712,
      "duration": 0.051,
      "velocity": 1,
      "hand": "right"
    },
    {
      "midi": 67,
      "time": 11.712,
      "duration": 0.051,
      "velocity": 1,
      "hand": "right"
    },
    {
      "midi": 36,
      "time": 11.815,
      "duration": 0.822,
      "velocity": 1,
      "hand": "left"
    },
    {
      "midi": 48,
      "time": 11.815,
      "duration": 0.822,
      "velocity": 1,
      "hand": "left"
    },
    {
      "midi": 72,
      "time": 11.815,
      "duration": 0.822,
      "velocity": 1,
      "hand": "right"
    },
    {
      "midi": 31,
      "time": 12.637,
      "duration": 0.822,
      "velocity": 1,
      "hand": "left"
    },
    {
      "midi": 43,
      "time": 12.637,
      "duration": 0.822,
      "velocity": 1,
      "hand": "left"
    },
    {
      "midi": 67,
      "time": 12.637,
      "duration": 0.822,
      "velocity": 1,
      "hand": "right"
    },
    {
      "midi": 52,
      "time": 13.459,
      "duration": 0.616,
      "velocity": 1,
      "hand": "left"
    },
    {
      "midi": 76,
      "time": 13.459,
      "duration": 0.616,
      "velocity": 1,
      "hand": "right"
    },
    {
      "midi": 53,
      "time": 14.075,
      "duration": 0.103,
      "velocity": 1,
      "hand": "left"
    },
    {
      "midi": 77,
      "time": 14.075,
      "duration": 0.103,
      "velocity": 1,
      "hand": "right"
    },
    {
      "midi": 50,
      "time": 14.178,
      "duration": 0.103,
      "velocity": 1,
      "hand": "left"
    },
    {
      "midi": 74,
      "time": 14.178,
      "duration": 0.103,
      "velocity": 1,
      "hand": "right"
    },
    {
      "midi": 48,
      "time": 14.281,
      "duration": 0.411,
      "velocity": 1,
      "hand": "left"
    },
    {
      "midi": 72,
      "time": 14.281,
      "duration": 0.411,
      "velocity": 1,
      "hand": "right"
    },
    {
      "midi": 64,
      "time": 15.103,
      "duration": 0.205,
      "velocity": 1,
      "hand": "right"
    },
    {
      "midi": 79,
      "time": 15.103,
      "duration": 0.411,
      "velocity": 1,
      "hand": "right"
    },
    {
      "midi": 67,
      "time": 15.308,
      "duration": 0.205,
      "velocity": 1,
      "hand": "right"
    },
    {
      "midi": 64,
      "time": 15.514,
      "duration": 0.205,
      "velocity": 1,
      "hand": "right"
    },
    {
      "midi": 79,
      "time": 15.514,
      "duration": 0.411,
      "velocity": 1,
      "hand": "right"
    },
    {
      "midi": 67,
      "time": 15.719,
      "duration": 0.205,
      "velocity": 1,
      "hand": "right"
    },
    {
      "midi": 61,
      "time": 15.925,
      "duration": 0.205,
      "velocity": 1,
      "hand": "right"
    },
    {
      "midi": 67,
      "time": 16.13,
      "duration": 0.205,
      "velocity": 1,
      "hand": "right"
    },
    {
      "midi": 61,
      "time": 16.336,
      "duration": 0.205,
      "velocity": 1,
      "hand": "right"
    },
    {
      "midi": 81,
      "time": 16.336,
      "duration": 0.411,
      "velocity": 1,
      "hand": "right"
    },
    {
      "midi": 67,
      "time": 16.541,
      "duration": 0.205,
      "velocity": 1,
      "hand": "right"
    },
    {
      "midi": 62,
      "time": 16.747,
      "duration": 0.205,
      "velocity": 1,
      "hand": "right"
    },
    {
      "midi": 79,
      "time": 16.747,
      "duration": 0.103,
      "velocity": 1,
      "hand": "right"
    },
    {
      "midi": 77,
      "time": 16.849,
      "duration": 0.308,
      "velocity": 1,
      "hand": "right"
    },
    {
      "midi": 67,
      "time": 16.952,
      "duration": 0.205,
      "velocity": 1,
      "hand": "right"
    },
    {
      "midi": 62,
      "time": 17.158,
      "duration": 0.205,
      "velocity": 1,
      "hand": "right"
    },
    {
      "midi": 77,
      "time": 17.158,
      "duration": 0.411,
      "velocity": 1,
      "hand": "right"
    },
    {
      "midi": 67,
      "time": 17.363,
      "duration": 0.205,
      "velocity": 1,
      "hand": "right"
    },
    {
      "midi": 59,
      "time": 17.568,
      "duration": 0.205,
      "velocity": 1,
      "hand": "left"
    },
    {
      "midi": 67,
      "time": 17.774,
      "duration": 0.205,
      "velocity": 1,
      "hand": "right"
    },
    {
      "midi": 78,
      "time": 17.774,
      "duration": 0.205,
      "velocity": 1,
      "hand": "right"
    },
    {
      "midi": 59,
      "time": 17.979,
      "duration": 0.205,
      "velocity": 1,
      "hand": "left"
    },
    {
      "midi": 81,
      "time": 17.979,
      "duration": 0.205,
      "velocity": 1,
      "hand": "right"
    },
    {
      "midi": 67,
      "time": 18.185,
      "duration": 0.205,
      "velocity": 1,
      "hand": "right"
    },
    {
      "midi": 79,
      "time": 18.185,
      "duration": 0.205,
      "velocity": 1,
      "hand": "right"
    },
    {
      "midi": 60,
      "time": 18.39,
      "duration": 0.205,
      "velocity": 1,
      "hand": "right"
    },
    {
      "midi": 77,
      "time": 18.39,
      "duration": 0.103,
      "velocity": 1,
      "hand": "right"
    },
    {
      "midi": 76,
      "time": 18.493,
      "duration": 0.308,
      "velocity": 1,
      "hand": "right"
    },
    {
      "midi": 67,
      "time": 18.596,
      "duration": 0.205,
      "velocity": 1,
      "hand": "right"
    },
    {
      "midi": 60,
      "time": 18.801,
      "duration": 0.205,
      "velocity": 1,
      "hand": "right"
    },
    {
      "midi": 76,
      "time": 18.801,
      "duration": 0.411,
      "velocity": 1,
      "hand": "right"
    },
    {
      "midi": 67,
      "time": 19.007,
      "duration": 0.205,
      "velocity": 1,
      "hand": "right"
    },
    {
      "midi": 64,
      "time": 19.212,
      "duration": 0.205,
      "velocity": 1,
      "hand": "right"
    },
    {
      "midi": 67,
      "time": 19.418,
      "duration": 0.205,
      "velocity": 1,
      "hand": "right"
    },
    {
      "midi": 76,
      "time": 19.418,
      "duration": 0.205,
      "velocity": 1,
      "hand": "right"
    },
    {
      "midi": 64,
      "time": 19.623,
      "duration": 0.205,
      "velocity": 1,
      "hand": "right"
    },
    {
      "midi": 79,
      "time": 19.623,
      "duration": 0.205,
      "velocity": 1,
      "hand": "right"
    },
    {
      "midi": 67,
      "time": 19.829,
      "duration": 0.205,
      "velocity": 1,
      "hand": "right"
    },
    {
      "midi": 76,
      "time": 19.829,
      "duration": 0.205,
      "velocity": 1,
      "hand": "right"
    },
    {
      "midi": 67,
      "time": 20.034,
      "duration": 0.822,
      "velocity": 1,
      "hand": "right"
    },
    {
      "midi": 70,
      "time": 20.034,
      "duration": 0.822,
      "velocity": 1,
      "hand": "right"
    },
    {
      "midi": 73,
      "time": 20.034,
      "duration": 0.616,
      "velocity": 1,
      "hand": "right"
    },
    {
      "midi": 74,
      "time": 20.651,
      "duration": 0.103,
      "velocity": 1,
      "hand": "right"
    },
    {
      "midi": 76,
      "time": 20.753,
      "duration": 0.103,
      "velocity": 1,
      "hand": "right"
    },
    {
      "midi": 65,
      "time": 20.856,
      "duration": 0.411,
      "velocity": 1,
      "hand": "right"
    },
    {
      "midi": 69,
      "time": 20.856,
      "duration": 0.411,
      "velocity": 1,
      "hand": "right"
    },
    {
      "midi": 74,
      "time": 20.856,
      "duration": 0.411,
      "velocity": 1,
      "hand": "right"
    },
    {
      "midi": 77,
      "time": 21.473,
      "duration": 0.205,
      "velocity": 1,
      "hand": "right"
    },
    {
      "midi": 67,
      "time": 21.678,
      "duration": 0.822,
      "velocity": 1,
      "hand": "right"
    },
    {
      "midi": 70,
      "time": 21.678,
      "duration": 0.822,
      "velocity": 1,
      "hand": "right"
    },
    {
      "midi": 76,
      "time": 21.678,
      "duration": 0.616,
      "velocity": 1,
      "hand": "right"
    },
    {
      "midi": 77,
      "time": 22.295,
      "duration": 0.103,
      "velocity": 1,
      "hand": "right"
    },
    {
      "midi": 79,
      "time": 22.397,
      "duration": 0.103,
      "velocity": 1,
      "hand": "right"
    },
    {
      "midi": 69,
      "time": 22.5,
      "duration": 0.411,
      "velocity": 1,
      "hand": "right"
    },
    {
      "midi": 72,
      "time": 22.5,
      "duration": 0.411,
      "velocity": 1,
      "hand": "right"
    },
    {
      "midi": 77,
      "time": 22.5,
      "duration": 0.411,
      "velocity": 1,
      "hand": "right"
    },
    {
      "midi": 57,
      "time": 23.322,
      "duration": 0.205,
      "velocity": 1,
      "hand": "left"
    },
    {
      "midi": 72,
      "time": 23.322,
      "duration": 0.205,
      "velocity": 1,
      "hand": "right"
    },
    {
      "midi": 84,
      "time": 23.322,
      "duration": 0.205,
      "velocity": 1,
      "hand": "right"
    },
    {
      "midi": 60,
      "time": 23.527,
      "duration": 0.205,
      "velocity": 1,
      "hand": "right"
    },
    {
      "midi": 72,
      "time": 23.527,
      "duration": 0.205,
      "velocity": 1,
      "hand": "right"
    },
    {
      "midi": 84,
      "time": 23.527,
      "duration": 0.205,
      "velocity": 1,
      "hand": "right"
    },
    {
      "midi": 57,
      "time": 23.733,
      "duration": 0.205,
      "velocity": 1,
      "hand": "left"
    },
    {
      "midi": 72,
      "time": 23.733,
      "duration": 0.822,
      "velocity": 1,
      "hand": "right"
    },
    {
      "midi": 84,
      "time": 23.733,
      "duration": 0.822,
      "velocity": 1,
      "hand": "right"
    },
    {
      "midi": 60,
      "time": 23.938,
      "duration": 0.205,
      "velocity": 1,
      "hand": "right"
    },
    {
      "midi": 53,
      "time": 24.144,
      "duration": 0.205,
      "velocity": 1,
      "hand": "left"
    },
    {
      "midi": 60,
      "time": 24.349,
      "duration": 0.205,
      "velocity": 1,
      "hand": "right"
    },
    {
      "midi": 53,
      "time": 24.555,
      "duration": 0.205,
      "velocity": 1,
      "hand": "left"
    },
    {
      "midi": 83,
      "time": 24.555,
      "duration": 0.205,
      "velocity": 1,
      "hand": "right"
    },
    {
      "midi": 60,
      "time": 24.76,
      "duration": 0.205,
      "velocity": 1,
      "hand": "right"
    },
    {
      "midi": 81,
      "time": 24.76,
      "duration": 0.205,
      "velocity": 1,
      "hand": "right"
    },
    {
      "midi": 52,
      "time": 24.966,
      "duration": 0.205,
      "velocity": 1,
      "hand": "left"
    },
    {
      "midi": 72,
      "time": 24.966,
      "duration": 0.205,
      "velocity": 1,
      "hand": "right"
    },
    {
      "midi": 79,
      "time": 24.966,
      "duration": 0.205,
      "velocity": 1,
      "hand": "right"
    },
    {
      "midi": 60,
      "time": 25.171,
      "duration": 0.205,
      "velocity": 1,
      "hand": "right"
    },
    {
      "midi": 72,
      "time": 25.171,
      "duration": 0.205,
      "velocity": 1,
      "hand": "right"
    },
    {
      "midi": 79,
      "time": 25.171,
      "duration": 0.205,
      "velocity": 1,
      "hand": "right"
    },
    {
      "midi": 52,
      "time": 25.377,
      "duration": 0.205,
      "velocity": 1,
      "hand": "left"
    },
    {
      "midi": 72,
      "time": 25.377,
      "duration": 0.822,
      "velocity": 1,
      "hand": "right"
    },
    {
      "midi": 79,
      "time": 25.377,
      "duration": 0.822,
      "velocity": 1,
      "hand": "right"
    },
    {
      "midi": 60,
      "time": 25.582,
      "duration": 0.205,
      "velocity": 1,
      "hand": "right"
    },
    {
      "midi": 48,
      "time": 25.788,
      "duration": 0.205,
      "velocity": 1,
      "hand": "left"
    },
    {
      "midi": 60,
      "time": 25.993,
      "duration": 0.205,
      "velocity": 1,
      "hand": "right"
    },
    {
      "midi": 48,
      "time": 26.199,
      "duration": 0.205,
      "velocity": 1,
      "hand": "left"
    },
    {
      "midi": 77,
      "time": 26.199,
      "duration": 0.205,
      "velocity": 1,
      "hand": "right"
    },
    {
      "midi": 60,
      "time": 26.404,
      "duration": 0.205,
      "velocity": 1,
      "hand": "right"
    },
    {
      "midi": 76,
      "time": 26.404,
      "duration": 0.308,
      "velocity": 1,
      "hand": "right"
    },
    {
      "midi": 53,
      "time": 26.61,
      "duration": 0.205,
      "velocity": 1,
      "hand": "left"
    },
    {
      "midi": 74,
      "time": 26.712,
      "duration": 0.103,
      "velocity": 1,
      "hand": "right"
    },
    {
      "midi": 57,
      "time": 26.815,
      "duration": 0.205,
      "velocity": 1,
      "hand": "left"
    },
    {
      "midi": 77,
      "time": 26.815,
      "duration": 0.103,
      "velocity": 1,
      "hand": "right"
    },
    {
      "midi": 76,
      "time": 26.918,
      "duration": 0.103,
      "velocity": 1,
      "hand": "right"
    },
    {
      "midi": 53,
      "time": 27.021,
      "duration": 0.205,
      "velocity": 1,
      "hand": "left"
    },
    {
      "midi": 79,
      "time": 27.021,
      "duration": 0.103,
      "velocity": 1,
      "hand": "right"
    },
    {
      "midi": 77,
      "time": 27.123,
      "duration": 0.103,
      "velocity": 1,
      "hand": "right"
    },
    {
      "midi": 62,
      "time": 27.226,
      "duration": 0.205,
      "velocity": 1,
      "hand": "right"
    },
    {
      "midi": 76,
      "time": 27.226,
      "duration": 0.103,
      "velocity": 1,
      "hand": "right"
    },
    {
      "midi": 74,
      "time": 27.329,
      "duration": 0.103,
      "velocity": 1,
      "hand": "right"
    },
    {
      "midi": 55,
      "time": 27.432,
      "duration": 0.205,
      "velocity": 1,
      "hand": "left"
    },
    {
      "midi": 72,
      "time": 27.432,
      "duration": 0.411,
      "velocity": 1,
      "hand": "right"
    },
    {
      "midi": 64,
      "time": 27.637,
      "duration": 0.205,
      "velocity": 1,
      "hand": "right"
    },
    {
      "midi": 55,
      "time": 27.842,
      "duration": 0.205,
      "velocity": 1,
      "hand": "left"
    },
    {
      "midi": 71,
      "time": 27.842,
      "duration": 0.411,
      "velocity": 1,
      "hand": "right"
    },
    {
      "midi": 62,
      "time": 28.048,
      "duration": 0.205,
      "velocity": 1,
      "hand": "right"
    },
    {
      "midi": 69,
      "time": 28.151,
      "duration": 0.051,
      "velocity": 1,
      "hand": "right"
    },
    {
      "midi": 57,
      "time": 28.253,
      "duration": 0.205,
      "velocity": 1,
      "hand": "left"
    },
    {
      "midi": 72,
      "time": 28.253,
      "duration": 0.205,
      "velocity": 1,
      "hand": "right"
    },
    {
      "midi": 84,
      "time": 28.253,
      "duration": 0.205,
      "velocity": 1,
      "hand": "right"
    },
    {
      "midi": 60,
      "time": 28.459,
      "duration": 0.205,
      "velocity": 1,
      "hand": "right"
    },
    {
      "midi": 72,
      "time": 28.459,
      "duration": 0.205,
      "velocity": 1,
      "hand": "right"
    },
    {
      "midi": 84,
      "time": 28.459,
      "duration": 0.205,
      "velocity": 1,
      "hand": "right"
    },
    {
      "midi": 57,
      "time": 28.664,
      "duration": 0.205,
      "velocity": 1,
      "hand": "left"
    },
    {
      "midi": 72,
      "time": 28.664,
      "duration": 0.616,
      "velocity": 1,
      "hand": "right"
    },
    {
      "midi": 84,
      "time": 28.664,
      "duration": 0.616,
      "velocity": 1,
      "hand": "right"
    },
    {
      "midi": 60,
      "time": 28.87,
      "duration": 0.205,
      "velocity": 1,
      "hand": "right"
    },
    {
      "midi": 53,
      "time": 29.075,
      "duration": 0.205,
      "velocity": 1,
      "hand": "left"
    },
    {
      "midi": 60,
      "time": 29.281,
      "duration": 0.205,
      "velocity": 1,
      "hand": "right"
    },
    {
      "midi": 86,
      "time": 29.281,
      "duration": 0.103,
      "velocity": 1,
      "hand": "right"
    },
    {
      "midi": 84,
      "time": 29.384,
      "duration": 0.103,
      "velocity": 1,
      "hand": "right"
    },
    {
      "midi": 53,
      "time": 29.486,
      "duration": 0.205,
      "velocity": 1,
      "hand": "left"
    },
    {
      "midi": 83,
      "time": 29.486,
      "duration": 0.205,
      "velocity": 1,
      "hand": "right"
    },
    {
      "midi": 60,
      "time": 29.692,
      "duration": 0.205,
      "velocity": 1,
      "hand": "right"
    },
    {
      "midi": 81,
      "time": 29.692,
      "duration": 0.205,
      "velocity": 1,
      "hand": "right"
    },
    {
      "midi": 52,
      "time": 29.897,
      "duration": 0.205,
      "velocity": 1,
      "hand": "left"
    },
    {
      "midi": 72,
      "time": 29.897,
      "duration": 0.205,
      "velocity": 1,
      "hand": "right"
    },
    {
      "midi": 79,
      "time": 29.897,
      "duration": 0.205,
      "velocity": 1,
      "hand": "right"
    },
    {
      "midi": 60,
      "time": 30.103,
      "duration": 0.205,
      "velocity": 1,
      "hand": "right"
    },
    {
      "midi": 72,
      "time": 30.103,
      "duration": 0.205,
      "velocity": 1,
      "hand": "right"
    },
    {
      "midi": 79,
      "time": 30.103,
      "duration": 0.205,
      "velocity": 1,
      "hand": "right"
    },
    {
      "midi": 52,
      "time": 30.308,
      "duration": 0.205,
      "velocity": 1,
      "hand": "left"
    },
    {
      "midi": 72,
      "time": 30.308,
      "duration": 0.616,
      "velocity": 1,
      "hand": "right"
    },
    {
      "midi": 79,
      "time": 30.308,
      "duration": 0.616,
      "velocity": 1,
      "hand": "right"
    },
    {
      "midi": 60,
      "time": 30.514,
      "duration": 0.205,
      "velocity": 1,
      "hand": "right"
    },
    {
      "midi": 48,
      "time": 30.719,
      "duration": 0.205,
      "velocity": 1,
      "hand": "left"
    },
    {
      "midi": 60,
      "time": 30.925,
      "duration": 0.205,
      "velocity": 1,
      "hand": "right"
    },
    {
      "midi": 81,
      "time": 30.925,
      "duration": 0.103,
      "velocity": 1,
      "hand": "right"
    },
    {
      "midi": 79,
      "time": 31.027,
      "duration": 0.103,
      "velocity": 1,
      "hand": "right"
    },
    {
      "midi": 48,
      "time": 31.13,
      "duration": 0.205,
      "velocity": 1,
      "hand": "left"
    },
    {
      "midi": 77,
      "time": 31.13,
      "duration": 0.205,
      "velocity": 1,
      "hand": "right"
    },
    {
      "midi": 60,
      "time": 31.336,
      "duration": 0.205,
      "velocity": 1,
      "hand": "right"
    },
    {
      "midi": 76,
      "time": 31.336,
      "duration": 0.308,
      "velocity": 1,
      "hand": "right"
    },
    {
      "midi": 53,
      "time": 31.541,
      "duration": 0.205,
      "velocity": 1,
      "hand": "left"
    },
    {
      "midi": 74,
      "time": 31.644,
      "duration": 0.103,
      "velocity": 1,
      "hand": "right"
    },
    {
      "midi": 60,
      "time": 31.747,
      "duration": 0.205,
      "velocity": 1,
      "hand": "right"
    },
    {
      "midi": 81,
      "time": 31.747,
      "duration": 0.103,
      "velocity": 1,
      "hand": "right"
    },
    {
      "midi": 80,
      "time": 31.849,
      "duration": 0.103,
      "velocity": 1,
      "hand": "right"
    },
    {
      "midi": 53,
      "time": 31.952,
      "duration": 0.205,
      "velocity": 1,
      "hand": "left"
    },
    {
      "midi": 83,
      "time": 31.952,
      "duration": 0.103,
      "velocity": 1,
      "hand": "right"
    },
    {
      "midi": 81,
      "time": 32.055,
      "duration": 0.103,
      "velocity": 1,
      "hand": "right"
    },
    {
      "midi": 62,
      "time": 32.158,
      "duration": 0.205,
      "velocity": 1,
      "hand": "right"
    },
    {
      "midi": 79,
      "time": 32.158,
      "duration": 0.103,
      "velocity": 1,
      "hand": "right"
    },
    {
      "midi": 77,
      "time": 32.26,
      "duration": 0.103,
      "velocity": 1,
      "hand": "right"
    },
    {
      "midi": 55,
      "time": 32.363,
      "duration": 0.205,
      "velocity": 1,
      "hand": "left"
    },
    {
      "midi": 76,
      "time": 32.363,
      "duration": 0.411,
      "velocity": 1,
      "hand": "right"
    },
    {
      "midi": 60,
      "time": 32.568,
      "duration": 0.205,
      "velocity": 1,
      "hand": "right"
    },
    {
      "midi": 55,
      "time": 32.774,
      "duration": 0.205,
      "velocity": 1,
      "hand": "left"
    },
    {
      "midi": 74,
      "time": 32.774,
      "duration": 0.411,
      "velocity": 1,
      "hand": "right"
    },
    {
      "midi": 59,
      "time": 32.979,
      "duration": 0.205,
      "velocity": 1,
      "hand": "left"
    },
    {
      "midi": 72,
      "time": 33.082,
      "duration": 0.051,
      "velocity": 1,
      "hand": "right"
    },
    {
      "midi": 60,
      "time": 33.185,
      "duration": 0.205,
      "velocity": 1,
      "hand": "right"
    },
    {
      "midi": 64,
      "time": 33.185,
      "duration": 0.205,
      "velocity": 1,
      "hand": "right"
    },
    {
      "midi": 72,
      "time": 33.185,
      "duration": 0.411,
      "velocity": 1,
      "hand": "right"
    },
    {
      "midi": 60,
      "time": 33.39,
      "duration": 0.205,
      "velocity": 1,
      "hand": "right"
    },
    {
      "midi": 64,
      "time": 33.39,
      "duration": 0.205,
      "velocity": 1,
      "hand": "right"
    },
    {
      "midi": 60,
      "time": 33.596,
      "duration": 0.205,
      "velocity": 1,
      "hand": "right"
    },
    {
      "midi": 64,
      "time": 33.596,
      "duration": 0.205,
      "velocity": 1,
      "hand": "right"
    },
    {
      "midi": 60,
      "time": 33.801,
      "duration": 0.205,
      "velocity": 1,
      "hand": "right"
    },
    {
      "midi": 64,
      "time": 33.801,
      "duration": 0.205,
      "velocity": 1,
      "hand": "right"
    },
    {
      "midi": 72,
      "time": 33.801,
      "duration": 0.103,
      "velocity": 1,
      "hand": "right"
    },
    {
      "midi": 74,
      "time": 33.801,
      "duration": 0.051,
      "velocity": 1,
      "hand": "right"
    },
    {
      "midi": 71,
      "time": 33.904,
      "duration": 0.103,
      "velocity": 1,
      "hand": "right"
    },
    {
      "midi": 60,
      "time": 34.007,
      "duration": 0.205,
      "velocity": 1,
      "hand": "right"
    },
    {
      "midi": 64,
      "time": 34.007,
      "duration": 0.205,
      "velocity": 1,
      "hand": "right"
    },
    {
      "midi": 72,
      "time": 34.007,
      "duration": 0.205,
      "velocity": 1,
      "hand": "right"
    },
    {
      "midi": 60,
      "time": 34.212,
      "duration": 0.205,
      "velocity": 1,
      "hand": "right"
    },
    {
      "midi": 64,
      "time": 34.212,
      "duration": 0.205,
      "velocity": 1,
      "hand": "right"
    },
    {
      "midi": 75,
      "time": 34.212,
      "duration": 0.205,
      "velocity": 1,
      "hand": "right"
    },
    {
      "midi": 60,
      "time": 34.418,
      "duration": 0.205,
      "velocity": 1,
      "hand": "right"
    },
    {
      "midi": 64,
      "time": 34.418,
      "duration": 0.205,
      "velocity": 1,
      "hand": "right"
    },
    {
      "midi": 76,
      "time": 34.418,
      "duration": 0.205,
      "velocity": 1,
      "hand": "right"
    },
    {
      "midi": 60,
      "time": 34.623,
      "duration": 0.205,
      "velocity": 1,
      "hand": "right"
    },
    {
      "midi": 64,
      "time": 34.623,
      "duration": 0.205,
      "velocity": 1,
      "hand": "right"
    },
    {
      "midi": 78,
      "time": 34.623,
      "duration": 0.205,
      "velocity": 1,
      "hand": "right"
    },
    {
      "midi": 60,
      "time": 34.829,
      "duration": 0.205,
      "velocity": 1,
      "hand": "right"
    },
    {
      "midi": 64,
      "time": 34.829,
      "duration": 0.205,
      "velocity": 1,
      "hand": "right"
    },
    {
      "midi": 79,
      "time": 34.829,
      "duration": 0.205,
      "velocity": 1,
      "hand": "right"
    },
    {
      "midi": 60,
      "time": 35.034,
      "duration": 0.205,
      "velocity": 1,
      "hand": "right"
    },
    {
      "midi": 64,
      "time": 35.034,
      "duration": 0.205,
      "velocity": 1,
      "hand": "right"
    },
    {
      "midi": 83,
      "time": 35.034,
      "duration": 0.205,
      "velocity": 1,
      "hand": "right"
    },
    {
      "midi": 60,
      "time": 35.24,
      "duration": 0.205,
      "velocity": 1,
      "hand": "right"
    },
    {
      "midi": 64,
      "time": 35.24,
      "duration": 0.205,
      "velocity": 1,
      "hand": "right"
    },
    {
      "midi": 84,
      "time": 35.24,
      "duration": 0.205,
      "velocity": 1,
      "hand": "right"
    },
    {
      "midi": 60,
      "time": 35.445,
      "duration": 0.205,
      "velocity": 1,
      "hand": "right"
    },
    {
      "midi": 64,
      "time": 35.445,
      "duration": 0.205,
      "velocity": 1,
      "hand": "right"
    },
    {
      "midi": 87,
      "time": 35.445,
      "duration": 0.205,
      "velocity": 1,
      "hand": "right"
    },
    {
      "midi": 60,
      "time": 35.651,
      "duration": 0.205,
      "velocity": 1,
      "hand": "right"
    },
    {
      "midi": 64,
      "time": 35.651,
      "duration": 0.205,
      "velocity": 1,
      "hand": "right"
    },
    {
      "midi": 88,
      "time": 35.651,
      "duration": 0.411,
      "velocity": 1,
      "hand": "right"
    },
    {
      "midi": 60,
      "time": 35.856,
      "duration": 0.205,
      "velocity": 1,
      "hand": "right"
    },
    {
      "midi": 64,
      "time": 35.856,
      "duration": 0.205,
      "velocity": 1,
      "hand": "right"
    },
    {
      "midi": 60,
      "time": 36.062,
      "duration": 0.205,
      "velocity": 1,
      "hand": "right"
    },
    {
      "midi": 64,
      "time": 36.062,
      "duration": 0.205,
      "velocity": 1,
      "hand": "right"
    },
    {
      "midi": 60,
      "time": 36.267,
      "duration": 0.205,
      "velocity": 1,
      "hand": "right"
    },
    {
      "midi": 64,
      "time": 36.267,
      "duration": 0.205,
      "velocity": 1,
      "hand": "right"
    },
    {
      "midi": 59,
      "time": 36.473,
      "duration": 0.205,
      "velocity": 1,
      "hand": "left"
    },
    {
      "midi": 62,
      "time": 36.473,
      "duration": 0.205,
      "velocity": 1,
      "hand": "right"
    },
    {
      "midi": 74,
      "time": 36.473,
      "duration": 0.411,
      "velocity": 1,
      "hand": "right"
    },
    {
      "midi": 79,
      "time": 36.473,
      "duration": 0.411,
      "velocity": 1,
      "hand": "right"
    },
    {
      "midi": 86,
      "time": 36.473,
      "duration": 0.411,
      "velocity": 1,
      "hand": "right"
    },
    {
      "midi": 59,
      "time": 36.678,
      "duration": 0.205,
      "velocity": 1,
      "hand": "left"
    },
    {
      "midi": 62,
      "time": 36.678,
      "duration": 0.205,
      "velocity": 1,
      "hand": "right"
    },
    {
      "midi": 59,
      "time": 36.884,
      "duration": 0.205,
      "velocity": 1,
      "hand": "left"
    },
    {
      "midi": 62,
      "time": 36.884,
      "duration": 0.205,
      "velocity": 1,
      "hand": "right"
    },
    {
      "midi": 59,
      "time": 37.089,
      "duration": 0.205,
      "velocity": 1,
      "hand": "left"
    },
    {
      "midi": 62,
      "time": 37.089,
      "duration": 0.205,
      "velocity": 1,
      "hand": "right"
    },
    {
      "midi": 71,
      "time": 37.089,
      "duration": 0.103,
      "velocity": 1,
      "hand": "right"
    },
    {
      "midi": 72,
      "time": 37.089,
      "duration": 0.051,
      "velocity": 1,
      "hand": "right"
    },
    {
      "midi": 69,
      "time": 37.192,
      "duration": 0.103,
      "velocity": 1,
      "hand": "right"
    },
    {
      "midi": 59,
      "time": 37.295,
      "duration": 0.205,
      "velocity": 1,
      "hand": "left"
    },
    {
      "midi": 62,
      "time": 37.295,
      "duration": 0.205,
      "velocity": 1,
      "hand": "right"
    },
    {
      "midi": 71,
      "time": 37.295,
      "duration": 0.205,
      "velocity": 1,
      "hand": "right"
    },
    {
      "midi": 59,
      "time": 37.5,
      "duration": 0.205,
      "velocity": 1,
      "hand": "left"
    },
    {
      "midi": 62,
      "time": 37.5,
      "duration": 0.205,
      "velocity": 1,
      "hand": "right"
    },
    {
      "midi": 73,
      "time": 37.5,
      "duration": 0.205,
      "velocity": 1,
      "hand": "right"
    },
    {
      "midi": 59,
      "time": 37.705,
      "duration": 0.205,
      "velocity": 1,
      "hand": "left"
    },
    {
      "midi": 62,
      "time": 37.705,
      "duration": 0.205,
      "velocity": 1,
      "hand": "right"
    },
    {
      "midi": 74,
      "time": 37.705,
      "duration": 0.205,
      "velocity": 1,
      "hand": "right"
    },
    {
      "midi": 59,
      "time": 37.911,
      "duration": 0.205,
      "velocity": 1,
      "hand": "left"
    },
    {
      "midi": 62,
      "time": 37.911,
      "duration": 0.205,
      "velocity": 1,
      "hand": "right"
    },
    {
      "midi": 78,
      "time": 37.911,
      "duration": 0.205,
      "velocity": 1,
      "hand": "right"
    },
    {
      "midi": 59,
      "time": 38.116,
      "duration": 0.205,
      "velocity": 1,
      "hand": "left"
    },
    {
      "midi": 62,
      "time": 38.116,
      "duration": 0.205,
      "velocity": 1,
      "hand": "right"
    },
    {
      "midi": 79,
      "time": 38.116,
      "duration": 0.205,
      "velocity": 1,
      "hand": "right"
    },
    {
      "midi": 59,
      "time": 38.322,
      "duration": 0.205,
      "velocity": 1,
      "hand": "left"
    },
    {
      "midi": 62,
      "time": 38.322,
      "duration": 0.205,
      "velocity": 1,
      "hand": "right"
    },
    {
      "midi": 82,
      "time": 38.322,
      "duration": 0.205,
      "velocity": 1,
      "hand": "right"
    },
    {
      "midi": 59,
      "time": 38.527,
      "duration": 0.205,
      "velocity": 1,
      "hand": "left"
    },
    {
      "midi": 62,
      "time": 38.527,
      "duration": 0.205,
      "velocity": 1,
      "hand": "right"
    },
    {
      "midi": 83,
      "time": 38.527,
      "duration": 0.205,
      "velocity": 1,
      "hand": "right"
    },
    {
      "midi": 59,
      "time": 38.733,
      "duration": 0.205,
      "velocity": 1,
      "hand": "left"
    },
    {
      "midi": 62,
      "time": 38.733,
      "duration": 0.205,
      "velocity": 1,
      "hand": "right"
    },
    {
      "midi": 85,
      "time": 38.733,
      "duration": 0.205,
      "velocity": 1,
      "hand": "right"
    },
    {
      "midi": 59,
      "time": 38.938,
      "duration": 0.205,
      "velocity": 1,
      "hand": "left"
    },
    {
      "midi": 62,
      "time": 38.938,
      "duration": 0.205,
      "velocity": 1,
      "hand": "right"
    },
    {
      "midi": 86,
      "time": 38.938,
      "duration": 0.411,
      "velocity": 1,
      "hand": "right"
    },
    {
      "midi": 59,
      "time": 39.144,
      "duration": 0.205,
      "velocity": 1,
      "hand": "left"
    },
    {
      "midi": 62,
      "time": 39.144,
      "duration": 0.205,
      "velocity": 1,
      "hand": "right"
    },
    {
      "midi": 59,
      "time": 39.349,
      "duration": 0.205,
      "velocity": 1,
      "hand": "left"
    },
    {
      "midi": 62,
      "time": 39.349,
      "duration": 0.205,
      "velocity": 1,
      "hand": "right"
    },
    {
      "midi": 59,
      "time": 39.555,
      "duration": 0.205,
      "velocity": 1,
      "hand": "left"
    },
    {
      "midi": 62,
      "time": 39.555,
      "duration": 0.205,
      "velocity": 1,
      "hand": "right"
    },
    {
      "midi": 54,
      "time": 39.76,
      "duration": 0.205,
      "velocity": 1,
      "hand": "left"
    },
    {
      "midi": 57,
      "time": 39.76,
      "duration": 0.205,
      "velocity": 1,
      "hand": "left"
    },
    {
      "midi": 62,
      "time": 39.76,
      "duration": 0.205,
      "velocity": 1,
      "hand": "right"
    },
    {
      "midi": 72,
      "time": 39.76,
      "duration": 0.411,
      "velocity": 1,
      "hand": "right"
    },
    {
      "midi": 78,
      "time": 39.76,
      "duration": 0.411,
      "velocity": 1,
      "hand": "right"
    },
    {
      "midi": 84,
      "time": 39.76,
      "duration": 0.411,
      "velocity": 1,
      "hand": "right"
    },
    {
      "midi": 54,
      "time": 39.966,
      "duration": 0.205,
      "velocity": 1,
      "hand": "left"
    },
    {
      "midi": 57,
      "time": 39.966,
      "duration": 0.205,
      "velocity": 1,
      "hand": "left"
    },
    {
      "midi": 62,
      "time": 39.966,
      "duration": 0.205,
      "velocity": 1,
      "hand": "right"
    },
    {
      "midi": 54,
      "time": 40.171,
      "duration": 0.205,
      "velocity": 1,
      "hand": "left"
    },
    {
      "midi": 57,
      "time": 40.171,
      "duration": 0.205,
      "velocity": 1,
      "hand": "left"
    },
    {
      "midi": 62,
      "time": 40.171,
      "duration": 0.205,
      "velocity": 1,
      "hand": "right"
    },
    {
      "midi": 54,
      "time": 40.377,
      "duration": 0.205,
      "velocity": 1,
      "hand": "left"
    },
    {
      "midi": 57,
      "time": 40.377,
      "duration": 0.205,
      "velocity": 1,
      "hand": "left"
    },
    {
      "midi": 62,
      "time": 40.377,
      "duration": 0.205,
      "velocity": 1,
      "hand": "right"
    },
    {
      "midi": 69,
      "time": 40.377,
      "duration": 0.103,
      "velocity": 1,
      "hand": "right"
    },
    {
      "midi": 71,
      "time": 40.377,
      "duration": 0.051,
      "velocity": 1,
      "hand": "right"
    },
    {
      "midi": 68,
      "time": 40.479,
      "duration": 0.103,
      "velocity": 1,
      "hand": "right"
    },
    {
      "midi": 54,
      "time": 40.582,
      "duration": 0.205,
      "velocity": 1,
      "hand": "left"
    },
    {
      "midi": 57,
      "time": 40.582,
      "duration": 0.205,
      "velocity": 1,
      "hand": "left"
    },
    {
      "midi": 62,
      "time": 40.582,
      "duration": 0.205,
      "velocity": 1,
      "hand": "right"
    },
    {
      "midi": 69,
      "time": 40.582,
      "duration": 0.205,
      "velocity": 1,
      "hand": "right"
    },
    {
      "midi": 54,
      "time": 40.788,
      "duration": 0.205,
      "velocity": 1,
      "hand": "left"
    },
    {
      "midi": 57,
      "time": 40.788,
      "duration": 0.205,
      "velocity": 1,
      "hand": "left"
    },
    {
      "midi": 62,
      "time": 40.788,
      "duration": 0.205,
      "velocity": 1,
      "hand": "right"
    },
    {
      "midi": 71,
      "time": 40.788,
      "duration": 0.205,
      "velocity": 1,
      "hand": "right"
    },
    {
      "midi": 54,
      "time": 40.993,
      "duration": 0.205,
      "velocity": 1,
      "hand": "left"
    },
    {
      "midi": 57,
      "time": 40.993,
      "duration": 0.205,
      "velocity": 1,
      "hand": "left"
    },
    {
      "midi": 62,
      "time": 40.993,
      "duration": 0.205,
      "velocity": 1,
      "hand": "right"
    },
    {
      "midi": 72,
      "time": 40.993,
      "duration": 0.205,
      "velocity": 1,
      "hand": "right"
    },
    {
      "midi": 54,
      "time": 41.199,
      "duration": 0.205,
      "velocity": 1,
      "hand": "left"
    },
    {
      "midi": 57,
      "time": 41.199,
      "duration": 0.205,
      "velocity": 1,
      "hand": "left"
    },
    {
      "midi": 62,
      "time": 41.199,
      "duration": 0.205,
      "velocity": 1,
      "hand": "right"
    },
    {
      "midi": 77,
      "time": 41.199,
      "duration": 0.205,
      "velocity": 1,
      "hand": "right"
    },
    {
      "midi": 54,
      "time": 41.404,
      "duration": 0.205,
      "velocity": 1,
      "hand": "left"
    },
    {
      "midi": 57,
      "time": 41.404,
      "duration": 0.205,
      "velocity": 1,
      "hand": "left"
    },
    {
      "midi": 62,
      "time": 41.404,
      "duration": 0.205,
      "velocity": 1,
      "hand": "right"
    },
    {
      "midi": 78,
      "time": 41.404,
      "duration": 0.205,
      "velocity": 1,
      "hand": "right"
    },
    {
      "midi": 54,
      "time": 41.61,
      "duration": 0.205,
      "velocity": 1,
      "hand": "left"
    },
    {
      "midi": 57,
      "time": 41.61,
      "duration": 0.205,
      "velocity": 1,
      "hand": "left"
    },
    {
      "midi": 62,
      "time": 41.61,
      "duration": 0.205,
      "velocity": 1,
      "hand": "right"
    },
    {
      "midi": 80,
      "time": 41.61,
      "duration": 0.205,
      "velocity": 1,
      "hand": "right"
    },
    {
      "midi": 54,
      "time": 41.815,
      "duration": 0.205,
      "velocity": 1,
      "hand": "left"
    },
    {
      "midi": 57,
      "time": 41.815,
      "duration": 0.205,
      "velocity": 1,
      "hand": "left"
    },
    {
      "midi": 62,
      "time": 41.815,
      "duration": 0.205,
      "velocity": 1,
      "hand": "right"
    },
    {
      "midi": 81,
      "time": 41.815,
      "duration": 0.205,
      "velocity": 1,
      "hand": "right"
    },
    {
      "midi": 54,
      "time": 42.021,
      "duration": 0.205,
      "velocity": 1,
      "hand": "left"
    },
    {
      "midi": 57,
      "time": 42.021,
      "duration": 0.205,
      "velocity": 1,
      "hand": "left"
    },
    {
      "midi": 62,
      "time": 42.021,
      "duration": 0.205,
      "velocity": 1,
      "hand": "right"
    },
    {
      "midi": 83,
      "time": 42.021,
      "duration": 0.205,
      "velocity": 1,
      "hand": "right"
    },
    {
      "midi": 54,
      "time": 42.226,
      "duration": 0.205,
      "velocity": 1,
      "hand": "left"
    },
    {
      "midi": 57,
      "time": 42.226,
      "duration": 0.205,
      "velocity": 1,
      "hand": "left"
    },
    {
      "midi": 62,
      "time": 42.226,
      "duration": 0.205,
      "velocity": 1,
      "hand": "right"
    },
    {
      "midi": 84,
      "time": 42.226,
      "duration": 0.411,
      "velocity": 1,
      "hand": "right"
    },
    {
      "midi": 54,
      "time": 42.432,
      "duration": 0.205,
      "velocity": 1,
      "hand": "left"
    },
    {
      "midi": 57,
      "time": 42.432,
      "duration": 0.205,
      "velocity": 1,
      "hand": "left"
    },
    {
      "midi": 62,
      "time": 42.432,
      "duration": 0.205,
      "velocity": 1,
      "hand": "right"
    },
    {
      "midi": 54,
      "time": 42.637,
      "duration": 0.205,
      "velocity": 1,
      "hand": "left"
    },
    {
      "midi": 57,
      "time": 42.637,
      "duration": 0.205,
      "velocity": 1,
      "hand": "left"
    },
    {
      "midi": 62,
      "time": 42.637,
      "duration": 0.205,
      "velocity": 1,
      "hand": "right"
    },
    {
      "midi": 54,
      "time": 42.842,
      "duration": 0.205,
      "velocity": 1,
      "hand": "left"
    },
    {
      "midi": 57,
      "time": 42.842,
      "duration": 0.205,
      "velocity": 1,
      "hand": "left"
    },
    {
      "midi": 62,
      "time": 42.842,
      "duration": 0.205,
      "velocity": 1,
      "hand": "right"
    },
    {
      "midi": 55,
      "time": 43.048,
      "duration": 0.205,
      "velocity": 1,
      "hand": "left"
    },
    {
      "midi": 84,
      "time": 43.048,
      "duration": 0.103,
      "velocity": 1,
      "hand": "right"
    },
    {
      "midi": 83,
      "time": 43.151,
      "duration": 0.103,
      "velocity": 1,
      "hand": "right"
    },
    {
      "midi": 62,
      "time": 43.253,
      "duration": 0.205,
      "velocity": 1,
      "hand": "right"
    },
    {
      "midi": 81,
      "time": 43.253,
      "duration": 0.103,
      "velocity": 1,
      "hand": "right"
    },
    {
      "midi": 79,
      "time": 43.356,
      "duration": 0.103,
      "velocity": 1,
      "hand": "right"
    },
    {
      "midi": 57,
      "time": 43.459,
      "duration": 0.205,
      "velocity": 1,
      "hand": "left"
    },
    {
      "midi": 79,
      "time": 43.459,
      "duration": 0.103,
      "velocity": 1,
      "hand": "right"
    },
    {
      "midi": 78,
      "time": 43.562,
      "duration": 0.103,
      "velocity": 1,
      "hand": "right"
    },
    {
      "midi": 62,
      "time": 43.664,
      "duration": 0.205,
      "velocity": 1,
      "hand": "right"
    },
    {
      "midi": 76,
      "time": 43.664,
      "duration": 0.103,
      "velocity": 1,
      "hand": "right"
    },
    {
      "midi": 74,
      "time": 43.767,
      "duration": 0.103,
      "velocity": 1,
      "hand": "right"
    },
    {
      "midi": 54,
      "time": 43.87,
      "duration": 0.205,
      "velocity": 1,
      "hand": "left"
    },
    {
      "midi": 74,
      "time": 43.87,
      "duration": 0.051,
      "velocity": 1,
      "hand": "right"
    },
    {
      "midi": 78,
      "time": 43.87,
      "duration": 0.051,
      "velocity": 1,
      "hand": "right"
    },
    {
      "midi": 81,
      "time": 43.87,
      "duration": 0.051,
      "velocity": 1,
      "hand": "right"
    },
    {
      "midi": 84,
      "time": 43.87,
      "duration": 0.822,
      "velocity": 1,
      "hand": "right"
    },
    {
      "midi": 62,
      "time": 44.075,
      "duration": 0.205,
      "velocity": 1,
      "hand": "right"
    },
    {
      "midi": 50,
      "time": 44.281,
      "duration": 0.205,
      "velocity": 1,
      "hand": "left"
    },
    {
      "midi": 62,
      "time": 44.486,
      "duration": 0.205,
      "velocity": 1,
      "hand": "right"
    },
    {
      "midi": 55,
      "time": 44.692,
      "duration": 0.205,
      "velocity": 1,
      "hand": "left"
    },
    {
      "midi": 84,
      "time": 44.692,
      "duration": 0.103,
      "velocity": 1,
      "hand": "right"
    },
    {
      "midi": 83,
      "time": 44.795,
      "duration": 0.103,
      "velocity": 1,
      "hand": "right"
    },
    {
      "midi": 62,
      "time": 44.897,
      "duration": 0.205,
      "velocity": 1,
      "hand": "right"
    },
    {
      "midi": 81,
      "time": 44.897,
      "duration": 0.103,
      "velocity": 1,
      "hand": "right"
    },
    {
      "midi": 79,
      "time": 45,
      "duration": 0.103,
      "velocity": 1,
      "hand": "right"
    },
    {
      "midi": 57,
      "time": 45.103,
      "duration": 0.205,
      "velocity": 1,
      "hand": "left"
    },
    {
      "midi": 79,
      "time": 45.103,
      "duration": 0.103,
      "velocity": 1,
      "hand": "right"
    },
    {
      "midi": 78,
      "time": 45.205,
      "duration": 0.103,
      "velocity": 1,
      "hand": "right"
    },
    {
      "midi": 62,
      "time": 45.308,
      "duration": 0.205,
      "velocity": 1,
      "hand": "right"
    },
    {
      "midi": 76,
      "time": 45.308,
      "duration": 0.103,
      "velocity": 1,
      "hand": "right"
    },
    {
      "midi": 74,
      "time": 45.411,
      "duration": 0.103,
      "velocity": 1,
      "hand": "right"
    },
    {
      "midi": 54,
      "time": 45.514,
      "duration": 0.205,
      "velocity": 1,
      "hand": "left"
    },
    {
      "midi": 74,
      "time": 45.514,
      "duration": 0.051,
      "velocity": 1,
      "hand": "right"
    },
    {
      "midi": 78,
      "time": 45.514,
      "duration": 0.051,
      "velocity": 1,
      "hand": "right"
    },
    {
      "midi": 81,
      "time": 45.514,
      "duration": 0.051,
      "velocity": 1,
      "hand": "right"
    },
    {
      "midi": 84,
      "time": 45.514,
      "duration": 0.822,
      "velocity": 1,
      "hand": "right"
    },
    {
      "midi": 62,
      "time": 45.719,
      "duration": 0.205,
      "velocity": 1,
      "hand": "right"
    },
    {
      "midi": 50,
      "time": 45.925,
      "duration": 0.205,
      "velocity": 1,
      "hand": "left"
    },
    {
      "midi": 62,
      "time": 46.13,
      "duration": 0.205,
      "velocity": 1,
      "hand": "right"
    },
    {
      "midi": 55,
      "time": 46.336,
      "duration": 0.411,
      "velocity": 1,
      "hand": "left"
    },
    {
      "midi": 62,
      "time": 46.336,
      "duration": 0.411,
      "velocity": 1,
      "hand": "right"
    },
    {
      "midi": 83,
      "time": 46.336,
      "duration": 0.103,
      "velocity": 1,
      "hand": "right"
    },
    {
      "midi": 81,
      "time": 46.438,
      "duration": 0.103,
      "velocity": 1,
      "hand": "right"
    },
    {
      "midi": 84,
      "time": 46.541,
      "duration": 0.103,
      "velocity": 1,
      "hand": "right"
    },
    {
      "midi": 83,
      "time": 46.644,
      "duration": 0.103,
      "velocity": 1,
      "hand": "right"
    },
    {
      "midi": 86,
      "time": 46.747,
      "duration": 0.205,
      "velocity": 1,
      "hand": "right"
    },
    {
      "midi": 78,
      "time": 46.952,
      "duration": 0.205,
      "velocity": 1,
      "hand": "right"
    },
    {
      "midi": 59,
      "time": 47.158,
      "duration": 0.411,
      "velocity": 1,
      "hand": "left"
    },
    {
      "midi": 62,
      "time": 47.158,
      "duration": 0.411,
      "velocity": 1,
      "hand": "right"
    },
    {
      "midi": 79,
      "time": 47.158,
      "duration": 0.103,
      "velocity": 1,
      "hand": "right"
    },
    {
      "midi": 78,
      "time": 47.26,
      "duration": 0.103,
      "velocity": 1,
      "hand": "right"
    },
    {
      "midi": 81,
      "time": 47.363,
      "duration": 0.103,
      "velocity": 1,
      "hand": "right"
    },
    {
      "midi": 79,
      "time": 47.466,
      "duration": 0.103,
      "velocity": 1,
      "hand": "right"
    },
    {
      "midi": 83,
      "time": 47.568,
      "duration": 0.205,
      "velocity": 1,
      "hand": "right"
    },
    {
      "midi": 75,
      "time": 47.774,
      "duration": 0.205,
      "velocity": 1,
      "hand": "right"
    },
    {
      "midi": 60,
      "time": 47.979,
      "duration": 0.411,
      "velocity": 1,
      "hand": "right"
    },
    {
      "midi": 67,
      "time": 47.979,
      "duration": 0.411,
      "velocity": 1,
      "hand": "right"
    },
    {
      "midi": 76,
      "time": 47.979,
      "duration": 0.103,
      "velocity": 1,
      "hand": "right"
    },
    {
      "midi": 75,
      "time": 48.082,
      "duration": 0.103,
      "velocity": 1,
      "hand": "right"
    },
    {
      "midi": 78,
      "time": 48.185,
      "duration": 0.103,
      "velocity": 1,
      "hand": "right"
    },
    {
      "midi": 76,
      "time": 48.288,
      "duration": 0.103,
      "velocity": 1,
      "hand": "right"
    },
    {
      "midi": 79,
      "time": 48.39,
      "duration": 0.205,
      "velocity": 1,
      "hand": "right"
    },
    {
      "midi": 71,
      "time": 48.596,
      "duration": 0.205,
      "velocity": 1,
      "hand": "right"
    },
    {
      "midi": 64,
      "time": 48.801,
      "duration": 0.411,
      "velocity": 1,
      "hand": "right"
    },
    {
      "midi": 67,
      "time": 48.801,
      "duration": 0.411,
      "velocity": 1,
      "hand": "right"
    },
    {
      "midi": 72,
      "time": 48.801,
      "duration": 0.103,
      "velocity": 1,
      "hand": "right"
    },
    {
      "midi": 71,
      "time": 48.904,
      "duration": 0.103,
      "velocity": 1,
      "hand": "right"
    },
    {
      "midi": 74,
      "time": 49.007,
      "duration": 0.103,
      "velocity": 1,
      "hand": "right"
    },
    {
      "midi": 72,
      "time": 49.11,
      "duration": 0.103,
      "velocity": 1,
      "hand": "right"
    },
    {
      "midi": 76,
      "time": 49.212,
      "duration": 0.205,
      "velocity": 1,
      "hand": "right"
    },
    {
      "midi": 68,
      "time": 49.418,
      "duration": 0.205,
      "velocity": 1,
      "hand": "right"
    },
    {
      "midi": 57,
      "time": 49.623,
      "duration": 0.308,
      "velocity": 1,
      "hand": "left"
    },
    {
      "midi": 69,
      "time": 49.623,
      "duration": 0.308,
      "velocity": 1,
      "hand": "right"
    },
    {
      "midi": 59,
      "time": 49.932,
      "duration": 0.103,
      "velocity": 1,
      "hand": "left"
    },
    {
      "midi": 71,
      "time": 49.932,
      "duration": 0.103,
      "velocity": 1,
      "hand": "right"
    },
    {
      "midi": 60,
      "time": 50.034,
      "duration": 0.308,
      "velocity": 1,
      "hand": "right"
    },
    {
      "midi": 72,
      "time": 50.034,
      "duration": 0.308,
      "velocity": 1,
      "hand": "right"
    },
    {
      "midi": 59,
      "time": 50.342,
      "duration": 0.103,
      "velocity": 1,
      "hand": "left"
    },
    {
      "midi": 71,
      "time": 50.342,
      "duration": 0.103,
      "velocity": 1,
      "hand": "right"
    },
    {
      "midi": 57,
      "time": 50.445,
      "duration": 0.308,
      "velocity": 1,
      "hand": "left"
    },
    {
      "midi": 69,
      "time": 50.445,
      "duration": 0.308,
      "velocity": 1,
      "hand": "right"
    },
    {
      "midi": 55,
      "time": 50.753,
      "duration": 0.103,
      "velocity": 1,
      "hand": "left"
    },
    {
      "midi": 67,
      "time": 50.753,
      "duration": 0.103,
      "velocity": 1,
      "hand": "right"
    },
    {
      "midi": 54,
      "time": 50.856,
      "duration": 0.308,
      "velocity": 1,
      "hand": "left"
    },
    {
      "midi": 66,
      "time": 50.856,
      "duration": 0.308,
      "velocity": 1,
      "hand": "right"
    },
    {
      "midi": 52,
      "time": 51.164,
      "duration": 0.103,
      "velocity": 1,
      "hand": "left"
    },
    {
      "midi": 64,
      "time": 51.164,
      "duration": 0.103,
      "velocity": 1,
      "hand": "right"
    },
    {
      "midi": 50,
      "time": 51.267,
      "duration": 0.205,
      "velocity": 1,
      "hand": "left"
    },
    {
      "midi": 62,
      "time": 51.267,
      "duration": 0.205,
      "velocity": 1,
      "hand": "right"
    },
    {
      "midi": 54,
      "time": 51.473,
      "duration": 0.103,
      "velocity": 1,
      "hand": "left"
    },
    {
      "midi": 66,
      "time": 51.473,
      "duration": 0.103,
      "velocity": 1,
      "hand": "right"
    },
    {
      "midi": 57,
      "time": 51.575,
      "duration": 0.103,
      "velocity": 1,
      "hand": "left"
    },
    {
      "midi": 69,
      "time": 51.575,
      "duration": 0.103,
      "velocity": 1,
      "hand": "right"
    },
    {
      "midi": 62,
      "time": 51.678,
      "duration": 0.205,
      "velocity": 1,
      "hand": "right"
    },
    {
      "midi": 74,
      "time": 51.678,
      "duration": 0.205,
      "velocity": 1,
      "hand": "right"
    },
    {
      "midi": 62,
      "time": 51.884,
      "duration": 0.205,
      "velocity": 1,
      "hand": "right"
    },
    {
      "midi": 74,
      "time": 51.884,
      "duration": 0.205,
      "velocity": 1,
      "hand": "right"
    },
    {
      "midi": 62,
      "time": 52.089,
      "duration": 0.411,
      "velocity": 1,
      "hand": "right"
    },
    {
      "midi": 74,
      "time": 52.089,
      "duration": 0.411,
      "velocity": 1,
      "hand": "right"
    },
    {
      "midi": 61,
      "time": 52.911,
      "duration": 0.205,
      "velocity": 1,
      "hand": "right"
    },
    {
      "midi": 62,
      "time": 53.116,
      "duration": 0.205,
      "velocity": 1,
      "hand": "right"
    },
    {
      "midi": 61,
      "time": 53.322,
      "duration": 0.205,
      "velocity": 1,
      "hand": "right"
    },
    {
      "midi": 62,
      "time": 53.527,
      "duration": 0.205,
      "velocity": 1,
      "hand": "right"
    },
    {
      "midi": 61,
      "time": 53.733,
      "duration": 0.205,
      "velocity": 1,
      "hand": "right"
    },
    {
      "midi": 62,
      "time": 53.938,
      "duration": 0.205,
      "velocity": 1,
      "hand": "right"
    },
    {
      "midi": 61,
      "time": 54.144,
      "duration": 0.205,
      "velocity": 1,
      "hand": "right"
    },
    {
      "midi": 62,
      "time": 54.349,
      "duration": 0.205,
      "velocity": 1,
      "hand": "right"
    },
    {
      "midi": 60,
      "time": 54.555,
      "duration": 0.205,
      "velocity": 1,
      "hand": "right"
    },
    {
      "midi": 62,
      "time": 54.76,
      "duration": 0.205,
      "velocity": 1,
      "hand": "right"
    },
    {
      "midi": 59,
      "time": 54.966,
      "duration": 0.205,
      "velocity": 1,
      "hand": "left"
    },
    {
      "midi": 62,
      "time": 55.171,
      "duration": 0.205,
      "velocity": 1,
      "hand": "right"
    },
    {
      "midi": 60,
      "time": 55.377,
      "duration": 0.205,
      "velocity": 1,
      "hand": "right"
    },
    {
      "midi": 62,
      "time": 55.582,
      "duration": 0.205,
      "velocity": 1,
      "hand": "right"
    },
    {
      "midi": 57,
      "time": 55.788,
      "duration": 0.205,
      "velocity": 1,
      "hand": "left"
    },
    {
      "midi": 62,
      "time": 55.993,
      "duration": 0.205,
      "velocity": 1,
      "hand": "right"
    },
    {
      "midi": 55,
      "time": 56.199,
      "duration": 0.205,
      "velocity": 1,
      "hand": "left"
    },
    {
      "midi": 83,
      "time": 56.199,
      "duration": 0.205,
      "velocity": 1,
      "hand": "right"
    },
    {
      "midi": 62,
      "time": 56.404,
      "duration": 0.205,
      "velocity": 1,
      "hand": "right"
    },
    {
      "midi": 84,
      "time": 56.404,
      "duration": 0.205,
      "velocity": 1,
      "hand": "right"
    },
    {
      "midi": 55,
      "time": 56.61,
      "duration": 0.205,
      "velocity": 1,
      "hand": "left"
    },
    {
      "midi": 86,
      "time": 56.61,
      "duration": 0.205,
      "velocity": 1,
      "hand": "right"
    },
    {
      "midi": 62,
      "time": 56.815,
      "duration": 0.205,
      "velocity": 1,
      "hand": "right"
    },
    {
      "midi": 83,
      "time": 56.815,
      "duration": 0.205,
      "velocity": 1,
      "hand": "right"
    },
    {
      "midi": 59,
      "time": 57.021,
      "duration": 0.205,
      "velocity": 1,
      "hand": "left"
    },
    {
      "midi": 79,
      "time": 57.021,
      "duration": 0.822,
      "velocity": 1,
      "hand": "right"
    },
    {
      "midi": 62,
      "time": 57.226,
      "duration": 0.205,
      "velocity": 1,
      "hand": "right"
    },
    {
      "midi": 59,
      "time": 57.432,
      "duration": 0.205,
      "velocity": 1,
      "hand": "left"
    },
    {
      "midi": 62,
      "time": 57.637,
      "duration": 0.205,
      "velocity": 1,
      "hand": "right"
    },
    {
      "midi": 60,
      "time": 57.842,
      "duration": 0.205,
      "velocity": 1,
      "hand": "right"
    },
    {
      "midi": 81,
      "time": 57.842,
      "duration": 0.205,
      "velocity": 1,
      "hand": "right"
    },
    {
      "midi": 62,
      "time": 58.048,
      "duration": 0.205,
      "velocity": 1,
      "hand": "right"
    },
    {
      "midi": 83,
      "time": 58.048,
      "duration": 0.205,
      "velocity": 1,
      "hand": "right"
    },
    {
      "midi": 60,
      "time": 58.253,
      "duration": 0.205,
      "velocity": 1,
      "hand": "right"
    },
    {
      "midi": 84,
      "time": 58.253,
      "duration": 0.205,
      "velocity": 1,
      "hand": "right"
    },
    {
      "midi": 62,
      "time": 58.459,
      "duration": 0.205,
      "velocity": 1,
      "hand": "right"
    },
    {
      "midi": 81,
      "time": 58.459,
      "duration": 0.205,
      "velocity": 1,
      "hand": "right"
    },
    {
      "midi": 57,
      "time": 58.664,
      "duration": 0.205,
      "velocity": 1,
      "hand": "left"
    },
    {
      "midi": 78,
      "time": 58.664,
      "duration": 0.822,
      "velocity": 1,
      "hand": "right"
    },
    {
      "midi": 62,
      "time": 58.87,
      "duration": 0.205,
      "velocity": 1,
      "hand": "right"
    },
    {
      "midi": 57,
      "time": 59.075,
      "duration": 0.205,
      "velocity": 1,
      "hand": "left"
    },
    {
      "midi": 62,
      "time": 59.281,
      "duration": 0.205,
      "velocity": 1,
      "hand": "right"
    },
    {
      "midi": 59,
      "time": 59.486,
      "duration": 0.205,
      "velocity": 1,
      "hand": "left"
    },
    {
      "midi": 79,
      "time": 59.486,
      "duration": 0.103,
      "velocity": 1,
      "hand": "right"
    },
    {
      "midi": 78,
      "time": 59.589,
      "duration": 0.205,
      "velocity": 1,
      "hand": "right"
    },
    {
      "midi": 62,
      "time": 59.692,
      "duration": 0.205,
      "velocity": 1,
      "hand": "right"
    },
    {
      "midi": 55,
      "time": 59.897,
      "duration": 0.205,
      "velocity": 1,
      "hand": "left"
    },
    {
      "midi": 76,
      "time": 59.897,
      "duration": 0.103,
      "velocity": 1,
      "hand": "right"
    },
    {
      "midi": 74,
      "time": 60,
      "duration": 0.205,
      "velocity": 1,
      "hand": "right"
    },
    {
      "midi": 62,
      "time": 60.103,
      "duration": 0.205,
      "velocity": 1,
      "hand": "right"
    },
    {
      "midi": 57,
      "time": 60.308,
      "duration": 0.205,
      "velocity": 1,
      "hand": "left"
    },
    {
      "midi": 71,
      "time": 60.308,
      "duration": 0.103,
      "velocity": 1,
      "hand": "right"
    },
    {
      "midi": 72,
      "time": 60.411,
      "duration": 0.205,
      "velocity": 1,
      "hand": "right"
    },
    {
      "midi": 62,
      "time": 60.514,
      "duration": 0.205,
      "velocity": 1,
      "hand": "right"
    },
    {
      "midi": 54,
      "time": 60.719,
      "duration": 0.205,
      "velocity": 1,
      "hand": "left"
    },
    {
      "midi": 62,
      "time": 60.925,
      "duration": 0.205,
      "velocity": 1,
      "hand": "right"
    },
    {
      "midi": 55,
      "time": 61.13,
      "duration": 0.205,
      "velocity": 1,
      "hand": "left"
    },
    {
      "midi": 72,
      "time": 61.13,
      "duration": 0.103,
      "velocity": 1,
      "hand": "right"
    },
    {
      "midi": 71,
      "time": 61.233,
      "duration": 0.205,
      "velocity": 1,
      "hand": "right"
    },
    {
      "midi": 62,
      "time": 61.336,
      "duration": 0.205,
      "velocity": 1,
      "hand": "right"
    },
    {
      "midi": 52,
      "time": 61.541,
      "duration": 0.205,
      "velocity": 1,
      "hand": "left"
    },
    {
      "midi": 69,
      "time": 61.541,
      "duration": 0.103,
      "velocity": 1,
      "hand": "right"
    },
    {
      "midi": 67,
      "time": 61.644,
      "duration": 0.205,
      "velocity": 1,
      "hand": "right"
    },
    {
      "midi": 61,
      "time": 61.747,
      "duration": 0.205,
      "velocity": 1,
      "hand": "right"
    },
    {
      "midi": 50,
      "time": 61.952,
      "duration": 0.205,
      "velocity": 1,
      "hand": "left"
    },
    {
      "midi": 71,
      "time": 61.952,
      "duration": 0.103,
      "velocity": 1,
      "hand": "right"
    },
    {
      "midi": 69,
      "time": 62.055,
      "duration": 0.205,
      "velocity": 1,
      "hand": "right"
    },
    {
      "midi": 62,
      "time": 62.158,
      "duration": 0.205,
      "velocity": 1,
      "hand": "right"
    },
    {
      "midi": 60,
      "time": 62.363,
      "duration": 0.205,
      "velocity": 1,
      "hand": "right"
    },
    {
      "midi": 57,
      "time": 62.568,
      "duration": 0.205,
      "velocity": 1,
      "hand": "left"
    },
    {
      "midi": 55,
      "time": 62.774,
      "duration": 0.205,
      "velocity": 1,
      "hand": "left"
    },
    {
      "midi": 83,
      "time": 62.774,
      "duration": 0.205,
      "velocity": 1,
      "hand": "right"
    },
    {
      "midi": 62,
      "time": 62.979,
      "duration": 0.205,
      "velocity": 1,
      "hand": "right"
    },
    {
      "midi": 84,
      "time": 62.979,
      "duration": 0.205,
      "velocity": 1,
      "hand": "right"
    },
    {
      "midi": 55,
      "time": 63.185,
      "duration": 0.205,
      "velocity": 1,
      "hand": "left"
    },
    {
      "midi": 86,
      "time": 63.185,
      "duration": 0.205,
      "velocity": 1,
      "hand": "right"
    },
    {
      "midi": 62,
      "time": 63.39,
      "duration": 0.205,
      "velocity": 1,
      "hand": "right"
    },
    {
      "midi": 83,
      "time": 63.39,
      "duration": 0.205,
      "velocity": 1,
      "hand": "right"
    },
    {
      "midi": 59,
      "time": 63.596,
      "duration": 0.205,
      "velocity": 1,
      "hand": "left"
    },
    {
      "midi": 79,
      "time": 63.596,
      "duration": 0.822,
      "velocity": 1,
      "hand": "right"
    },
    {
      "midi": 62,
      "time": 63.801,
      "duration": 0.205,
      "velocity": 1,
      "hand": "right"
    },
    {
      "midi": 59,
      "time": 64.007,
      "duration": 0.205,
      "velocity": 1,
      "hand": "left"
    },
    {
      "midi": 62,
      "time": 64.212,
      "duration": 0.205,
      "velocity": 1,
      "hand": "right"
    },
    {
      "midi": 60,
      "time": 64.418,
      "duration": 0.205,
      "velocity": 1,
      "hand": "right"
    },
    {
      "midi": 81,
      "time": 64.418,
      "duration": 0.205,
      "velocity": 1,
      "hand": "right"
    },
    {
      "midi": 62,
      "time": 64.623,
      "duration": 0.205,
      "velocity": 1,
      "hand": "right"
    },
    {
      "midi": 83,
      "time": 64.623,
      "duration": 0.205,
      "velocity": 1,
      "hand": "right"
    },
    {
      "midi": 60,
      "time": 64.829,
      "duration": 0.205,
      "velocity": 1,
      "hand": "right"
    },
    {
      "midi": 84,
      "time": 64.829,
      "duration": 0.205,
      "velocity": 1,
      "hand": "right"
    },
    {
      "midi": 62,
      "time": 65.034,
      "duration": 0.205,
      "velocity": 1,
      "hand": "right"
    },
    {
      "midi": 81,
      "time": 65.034,
      "duration": 0.205,
      "velocity": 1,
      "hand": "right"
    },
    {
      "midi": 57,
      "time": 65.24,
      "duration": 0.205,
      "velocity": 1,
      "hand": "left"
    },
    {
      "midi": 78,
      "time": 65.24,
      "duration": 0.822,
      "velocity": 1,
      "hand": "right"
    },
    {
      "midi": 62,
      "time": 65.445,
      "duration": 0.205,
      "velocity": 1,
      "hand": "right"
    },
    {
      "midi": 57,
      "time": 65.651,
      "duration": 0.205,
      "velocity": 1,
      "hand": "left"
    },
    {
      "midi": 62,
      "time": 65.856,
      "duration": 0.205,
      "velocity": 1,
      "hand": "right"
    },
    {
      "midi": 59,
      "time": 66.062,
      "duration": 0.205,
      "velocity": 1,
      "hand": "left"
    },
    {
      "midi": 79,
      "time": 66.062,
      "duration": 0.103,
      "velocity": 1,
      "hand": "right"
    },
    {
      "midi": 78,
      "time": 66.164,
      "duration": 0.205,
      "velocity": 1,
      "hand": "right"
    },
    {
      "midi": 62,
      "time": 66.267,
      "duration": 0.205,
      "velocity": 1,
      "hand": "right"
    },
    {
      "midi": 55,
      "time": 66.473,
      "duration": 0.205,
      "velocity": 1,
      "hand": "left"
    },
    {
      "midi": 76,
      "time": 66.473,
      "duration": 0.103,
      "velocity": 1,
      "hand": "right"
    },
    {
      "midi": 74,
      "time": 66.575,
      "duration": 0.205,
      "velocity": 1,
      "hand": "right"
    },
    {
      "midi": 62,
      "time": 66.678,
      "duration": 0.205,
      "velocity": 1,
      "hand": "right"
    },
    {
      "midi": 57,
      "time": 66.884,
      "duration": 0.205,
      "velocity": 1,
      "hand": "left"
    },
    {
      "midi": 71,
      "time": 66.884,
      "duration": 0.103,
      "velocity": 1,
      "hand": "right"
    },
    {
      "midi": 72,
      "time": 66.986,
      "duration": 0.205,
      "velocity": 1,
      "hand": "right"
    },
    {
      "midi": 62,
      "time": 67.089,
      "duration": 0.205,
      "velocity": 1,
      "hand": "right"
    },
    {
      "midi": 54,
      "time": 67.295,
      "duration": 0.205,
      "velocity": 1,
      "hand": "left"
    },
    {
      "midi": 62,
      "time": 67.5,
      "duration": 0.205,
      "velocity": 1,
      "hand": "right"
    },
    {
      "midi": 55,
      "time": 67.705,
      "duration": 0.205,
      "velocity": 1,
      "hand": "left"
    },
    {
      "midi": 72,
      "time": 67.705,
      "duration": 0.103,
      "velocity": 1,
      "hand": "right"
    },
    {
      "midi": 71,
      "time": 67.808,
      "duration": 0.205,
      "velocity": 1,
      "hand": "right"
    },
    {
      "midi": 62,
      "time": 67.911,
      "duration": 0.205,
      "velocity": 1,
      "hand": "right"
    },
    {
      "midi": 52,
      "time": 68.116,
      "duration": 0.205,
      "velocity": 1,
      "hand": "left"
    },
    {
      "midi": 69,
      "time": 68.116,
      "duration": 0.103,
      "velocity": 1,
      "hand": "right"
    },
    {
      "midi": 67,
      "time": 68.219,
      "duration": 0.205,
      "velocity": 1,
      "hand": "right"
    },
    {
      "midi": 61,
      "time": 68.322,
      "duration": 0.205,
      "velocity": 1,
      "hand": "right"
    },
    {
      "midi": 50,
      "time": 68.527,
      "duration": 0.205,
      "velocity": 1,
      "hand": "left"
    },
    {
      "midi": 76,
      "time": 68.527,
      "duration": 0.103,
      "velocity": 1,
      "hand": "right"
    },
    {
      "midi": 74,
      "time": 68.63,
      "duration": 0.205,
      "velocity": 1,
      "hand": "right"
    },
    {
      "midi": 62,
      "time": 68.733,
      "duration": 0.205,
      "velocity": 1,
      "hand": "right"
    },
    {
      "midi": 48,
      "time": 68.938,
      "duration": 0.205,
      "velocity": 1,
      "hand": "left"
    },
    {
      "midi": 60,
      "time": 69.144,
      "duration": 0.205,
      "velocity": 1,
      "hand": "right"
    },
    {
      "midi": 47,
      "time": 69.349,
      "duration": 0.103,
      "velocity": 1,
      "hand": "left"
    },
    {
      "midi": 74,
      "time": 69.349,
      "duration": 0.822,
      "velocity": 1,
      "hand": "right"
    },
    {
      "midi": 86,
      "time": 69.349,
      "duration": 0.822,
      "velocity": 1,
      "hand": "right"
    },
    {
      "midi": 55,
      "time": 69.452,
      "duration": 0.103,
      "velocity": 1,
      "hand": "left"
    },
    {
      "midi": 54,
      "time": 69.555,
      "duration": 0.103,
      "velocity": 1,
      "hand": "left"
    },
    {
      "midi": 55,
      "time": 69.658,
      "duration": 0.103,
      "velocity": 1,
      "hand": "left"
    },
    {
      "midi": 57,
      "time": 69.76,
      "duration": 0.103,
      "velocity": 1,
      "hand": "left"
    },
    {
      "midi": 55,
      "time": 69.863,
      "duration": 0.103,
      "velocity": 1,
      "hand": "left"
    },
    {
      "midi": 54,
      "time": 69.966,
      "duration": 0.103,
      "velocity": 1,
      "hand": "left"
    },
    {
      "midi": 55,
      "time": 70.068,
      "duration": 0.103,
      "velocity": 1,
      "hand": "left"
    },
    {
      "midi": 47,
      "time": 70.171,
      "duration": 0.411,
      "velocity": 1,
      "hand": "left"
    },
    {
      "midi": 84,
      "time": 70.171,
      "duration": 0.205,
      "velocity": 1,
      "hand": "right"
    },
    {
      "midi": 83,
      "time": 70.377,
      "duration": 0.205,
      "velocity": 1,
      "hand": "right"
    },
    {
      "midi": 81,
      "time": 70.582,
      "duration": 0.205,
      "velocity": 1,
      "hand": "right"
    },
    {
      "midi": 79,
      "time": 70.788,
      "duration": 0.205,
      "velocity": 1,
      "hand": "right"
    },
    {
      "midi": 48,
      "time": 70.993,
      "duration": 0.103,
      "velocity": 1,
      "hand": "left"
    },
    {
      "midi": 76,
      "time": 70.993,
      "duration": 0.822,
      "velocity": 1,
      "hand": "right"
    },
    {
      "midi": 88,
      "time": 70.993,
      "duration": 0.822,
      "velocity": 1,
      "hand": "right"
    },
    {
      "midi": 55,
      "time": 71.096,
      "duration": 0.103,
      "velocity": 1,
      "hand": "left"
    },
    {
      "midi": 54,
      "time": 71.199,
      "duration": 0.103,
      "velocity": 1,
      "hand": "left"
    },
    {
      "midi": 55,
      "time": 71.301,
      "duration": 0.103,
      "velocity": 1,
      "hand": "left"
    },
    {
      "midi": 57,
      "time": 71.404,
      "duration": 0.103,
      "velocity": 1,
      "hand": "left"
    },
    {
      "midi": 55,
      "time": 71.507,
      "duration": 0.103,
      "velocity": 1,
      "hand": "left"
    },
    {
      "midi": 54,
      "time": 71.61,
      "duration": 0.103,
      "velocity": 1,
      "hand": "left"
    },
    {
      "midi": 55,
      "time": 71.712,
      "duration": 0.103,
      "velocity": 1,
      "hand": "left"
    },
    {
      "midi": 48,
      "time": 71.815,
      "duration": 0.411,
      "velocity": 1,
      "hand": "left"
    },
    {
      "midi": 86,
      "time": 71.815,
      "duration": 0.205,
      "velocity": 1,
      "hand": "right"
    },
    {
      "midi": 84,
      "time": 72.021,
      "duration": 0.205,
      "velocity": 1,
      "hand": "right"
    },
    {
      "midi": 83,
      "time": 72.226,
      "duration": 0.205,
      "velocity": 1,
      "hand": "right"
    },
    {
      "midi": 81,
      "time": 72.432,
      "duration": 0.205,
      "velocity": 1,
      "hand": "right"
    },
    {
      "midi": 50,
      "time": 72.637,
      "duration": 0.205,
      "velocity": 1,
      "hand": "left"
    },
    {
      "midi": 83,
      "time": 72.637,
      "duration": 0.103,
      "velocity": 1,
      "hand": "right"
    },
    {
      "midi": 84,
      "time": 72.74,
      "duration": 0.103,
      "velocity": 1,
      "hand": "right"
    },
    {
      "midi": 55,
      "time": 72.842,
      "duration": 0.205,
      "velocity": 1,
      "hand": "left"
    },
    {
      "midi": 86,
      "time": 72.842,
      "duration": 0.103,
      "velocity": 1,
      "hand": "right"
    },
    {
      "midi": 83,
      "time": 72.945,
      "duration": 0.103,
      "velocity": 1,
      "hand": "right"
    },
    {
      "midi": 59,
      "time": 73.048,
      "duration": 0.205,
      "velocity": 1,
      "hand": "left"
    },
    {
      "midi": 79,
      "time": 73.048,
      "duration": 0.205,
      "velocity": 1,
      "hand": "right"
    },
    {
      "midi": 55,
      "time": 73.253,
      "duration": 0.205,
      "velocity": 1,
      "hand": "left"
    },
    {
      "midi": 50,
      "time": 73.459,
      "duration": 0.205,
      "velocity": 1,
      "hand": "left"
    },
    {
      "midi": 81,
      "time": 73.459,
      "duration": 0.103,
      "velocity": 1,
      "hand": "right"
    },
    {
      "midi": 83,
      "time": 73.562,
      "duration": 0.103,
      "velocity": 1,
      "hand": "right"
    },
    {
      "midi": 57,
      "time": 73.664,
      "duration": 0.205,
      "velocity": 1,
      "hand": "left"
    },
    {
      "midi": 84,
      "time": 73.664,
      "duration": 0.103,
      "velocity": 1,
      "hand": "right"
    },
    {
      "midi": 81,
      "time": 73.767,
      "duration": 0.103,
      "velocity": 1,
      "hand": "right"
    },
    {
      "midi": 60,
      "time": 73.87,
      "duration": 0.205,
      "velocity": 1,
      "hand": "right"
    },
    {
      "midi": 78,
      "time": 73.87,
      "duration": 0.205,
      "velocity": 1,
      "hand": "right"
    },
    {
      "midi": 57,
      "time": 74.075,
      "duration": 0.205,
      "velocity": 1,
      "hand": "left"
    },
    {
      "midi": 47,
      "time": 74.281,
      "duration": 0.103,
      "velocity": 1,
      "hand": "left"
    },
    {
      "midi": 74,
      "time": 74.281,
      "duration": 0.822,
      "velocity": 1,
      "hand": "right"
    },
    {
      "midi": 86,
      "time": 74.281,
      "duration": 0.822,
      "velocity": 1,
      "hand": "right"
    },
    {
      "midi": 55,
      "time": 74.384,
      "duration": 0.103,
      "velocity": 1,
      "hand": "left"
    },
    {
      "midi": 54,
      "time": 74.486,
      "duration": 0.103,
      "velocity": 1,
      "hand": "left"
    },
    {
      "midi": 55,
      "time": 74.589,
      "duration": 0.103,
      "velocity": 1,
      "hand": "left"
    },
    {
      "midi": 57,
      "time": 74.692,
      "duration": 0.103,
      "velocity": 1,
      "hand": "left"
    },
    {
      "midi": 55,
      "time": 74.795,
      "duration": 0.103,
      "velocity": 1,
      "hand": "left"
    },
    {
      "midi": 54,
      "time": 74.897,
      "duration": 0.103,
      "velocity": 1,
      "hand": "left"
    },
    {
      "midi": 55,
      "time": 75,
      "duration": 0.103,
      "velocity": 1,
      "hand": "left"
    },
    {
      "midi": 47,
      "time": 75.103,
      "duration": 0.411,
      "velocity": 1,
      "hand": "left"
    },
    {
      "midi": 84,
      "time": 75.103,
      "duration": 0.103,
      "velocity": 1,
      "hand": "right"
    },
    {
      "midi": 86,
      "time": 75.205,
      "duration": 0.103,
      "velocity": 1,
      "hand": "right"
    },
    {
      "midi": 84,
      "time": 75.308,
      "duration": 0.103,
      "velocity": 1,
      "hand": "right"
    },
    {
      "midi": 83,
      "time": 75.411,
      "duration": 0.103,
      "velocity": 1,
      "hand": "right"
    },
    {
      "midi": 81,
      "time": 75.514,
      "duration": 0.103,
      "velocity": 1,
      "hand": "right"
    },
    {
      "midi": 83,
      "time": 75.616,
      "duration": 0.103,
      "velocity": 1,
      "hand": "right"
    },
    {
      "midi": 81,
      "time": 75.719,
      "duration": 0.103,
      "velocity": 1,
      "hand": "right"
    },
    {
      "midi": 79,
      "time": 75.822,
      "duration": 0.103,
      "velocity": 1,
      "hand": "right"
    },
    {
      "midi": 48,
      "time": 75.925,
      "duration": 0.103,
      "velocity": 1,
      "hand": "left"
    },
    {
      "midi": 76,
      "time": 75.925,
      "duration": 0.822,
      "velocity": 1,
      "hand": "right"
    },
    {
      "midi": 88,
      "time": 75.925,
      "duration": 0.822,
      "velocity": 1,
      "hand": "right"
    },
    {
      "midi": 55,
      "time": 76.027,
      "duration": 0.103,
      "velocity": 1,
      "hand": "left"
    },
    {
      "midi": 54,
      "time": 76.13,
      "duration": 0.103,
      "velocity": 1,
      "hand": "left"
    },
    {
      "midi": 55,
      "time": 76.233,
      "duration": 0.103,
      "velocity": 1,
      "hand": "left"
    },
    {
      "midi": 57,
      "time": 76.336,
      "duration": 0.103,
      "velocity": 1,
      "hand": "left"
    },
    {
      "midi": 55,
      "time": 76.438,
      "duration": 0.103,
      "velocity": 1,
      "hand": "left"
    },
    {
      "midi": 54,
      "time": 76.541,
      "duration": 0.103,
      "velocity": 1,
      "hand": "left"
    },
    {
      "midi": 55,
      "time": 76.644,
      "duration": 0.103,
      "velocity": 1,
      "hand": "left"
    },
    {
      "midi": 48,
      "time": 76.747,
      "duration": 0.411,
      "velocity": 1,
      "hand": "left"
    },
    {
      "midi": 86,
      "time": 76.747,
      "duration": 0.103,
      "velocity": 1,
      "hand": "right"
    },
    {
      "midi": 88,
      "time": 76.849,
      "duration": 0.103,
      "velocity": 1,
      "hand": "right"
    },
    {
      "midi": 86,
      "time": 76.952,
      "duration": 0.103,
      "velocity": 1,
      "hand": "right"
    },
    {
      "midi": 84,
      "time": 77.055,
      "duration": 0.103,
      "velocity": 1,
      "hand": "right"
    },
    {
      "midi": 83,
      "time": 77.158,
      "duration": 0.103,
      "velocity": 1,
      "hand": "right"
    },
    {
      "midi": 84,
      "time": 77.26,
      "duration": 0.103,
      "velocity": 1,
      "hand": "right"
    },
    {
      "midi": 83,
      "time": 77.363,
      "duration": 0.103,
      "velocity": 1,
      "hand": "right"
    },
    {
      "midi": 81,
      "time": 77.466,
      "duration": 0.103,
      "velocity": 1,
      "hand": "right"
    },
    {
      "midi": 62,
      "time": 77.568,
      "duration": 0.205,
      "velocity": 1,
      "hand": "right"
    },
    {
      "midi": 83,
      "time": 77.568,
      "duration": 0.205,
      "velocity": 1,
      "hand": "right"
    },
    {
      "midi": 67,
      "time": 77.774,
      "duration": 0.205,
      "velocity": 1,
      "hand": "right"
    },
    {
      "midi": 79,
      "time": 77.774,
      "duration": 0.205,
      "velocity": 1,
      "hand": "right"
    },
    {
      "midi": 64,
      "time": 77.979,
      "duration": 0.205,
      "velocity": 1,
      "hand": "right"
    },
    {
      "midi": 84,
      "time": 77.979,
      "duration": 0.411,
      "velocity": 1,
      "hand": "right"
    },
    {
      "midi": 67,
      "time": 78.185,
      "duration": 0.205,
      "velocity": 1,
      "hand": "right"
    },
    {
      "midi": 62,
      "time": 78.39,
      "duration": 0.205,
      "velocity": 1,
      "hand": "right"
    },
    {
      "midi": 83,
      "time": 78.39,
      "duration": 0.205,
      "velocity": 1,
      "hand": "right"
    },
    {
      "midi": 67,
      "time": 78.596,
      "duration": 0.205,
      "velocity": 1,
      "hand": "right"
    },
    {
      "midi": 79,
      "time": 78.596,
      "duration": 0.205,
      "velocity": 1,
      "hand": "right"
    },
    {
      "midi": 60,
      "time": 78.801,
      "duration": 0.205,
      "velocity": 1,
      "hand": "right"
    },
    {
      "midi": 88,
      "time": 78.801,
      "duration": 0.411,
      "velocity": 1,
      "hand": "right"
    },
    {
      "midi": 67,
      "time": 79.007,
      "duration": 0.205,
      "velocity": 1,
      "hand": "right"
    },
    {
      "midi": 59,
      "time": 79.212,
      "duration": 0.205,
      "velocity": 1,
      "hand": "left"
    },
    {
      "midi": 86,
      "time": 79.212,
      "duration": 0.205,
      "velocity": 1,
      "hand": "right"
    },
    {
      "midi": 67,
      "time": 79.418,
      "duration": 0.205,
      "velocity": 1,
      "hand": "right"
    },
    {
      "midi": 79,
      "time": 79.418,
      "duration": 0.205,
      "velocity": 1,
      "hand": "right"
    },
    {
      "midi": 64,
      "time": 79.623,
      "duration": 0.205,
      "velocity": 1,
      "hand": "right"
    },
    {
      "midi": 84,
      "time": 79.623,
      "duration": 0.411,
      "velocity": 1,
      "hand": "right"
    },
    {
      "midi": 67,
      "time": 79.829,
      "duration": 0.205,
      "velocity": 1,
      "hand": "right"
    },
    {
      "midi": 62,
      "time": 80.034,
      "duration": 0.205,
      "velocity": 1,
      "hand": "right"
    },
    {
      "midi": 83,
      "time": 80.034,
      "duration": 0.205,
      "velocity": 1,
      "hand": "right"
    },
    {
      "midi": 67,
      "time": 80.24,
      "duration": 0.205,
      "velocity": 1,
      "hand": "right"
    },
    {
      "midi": 79,
      "time": 80.24,
      "duration": 0.205,
      "velocity": 1,
      "hand": "right"
    },
    {
      "midi": 60,
      "time": 80.445,
      "duration": 0.205,
      "velocity": 1,
      "hand": "right"
    },
    {
      "midi": 88,
      "time": 80.445,
      "duration": 0.411,
      "velocity": 1,
      "hand": "right"
    },
    {
      "midi": 67,
      "time": 80.651,
      "duration": 0.205,
      "velocity": 1,
      "hand": "right"
    },
    {
      "midi": 59,
      "time": 80.856,
      "duration": 0.205,
      "velocity": 1,
      "hand": "left"
    },
    {
      "midi": 62,
      "time": 80.856,
      "duration": 0.205,
      "velocity": 1,
      "hand": "right"
    },
    {
      "midi": 68,
      "time": 80.856,
      "duration": 0.205,
      "velocity": 1,
      "hand": "right"
    },
    {
      "midi": 77,
      "time": 80.856,
      "duration": 0.822,
      "velocity": 1,
      "hand": "right"
    },
    {
      "midi": 89,
      "time": 80.856,
      "duration": 0.822,
      "velocity": 1,
      "hand": "right"
    },
    {
      "midi": 59,
      "time": 81.062,
      "duration": 0.205,
      "velocity": 1,
      "hand": "left"
    },
    {
      "midi": 62,
      "time": 81.062,
      "duration": 0.205,
      "velocity": 1,
      "hand": "right"
    },
    {
      "midi": 68,
      "time": 81.062,
      "duration": 0.205,
      "velocity": 1,
      "hand": "right"
    },
    {
      "midi": 59,
      "time": 81.267,
      "duration": 0.205,
      "velocity": 1,
      "hand": "left"
    },
    {
      "midi": 62,
      "time": 81.267,
      "duration": 0.205,
      "velocity": 1,
      "hand": "right"
    },
    {
      "midi": 68,
      "time": 81.267,
      "duration": 0.205,
      "velocity": 1,
      "hand": "right"
    },
    {
      "midi": 59,
      "time": 81.473,
      "duration": 0.205,
      "velocity": 1,
      "hand": "left"
    },
    {
      "midi": 62,
      "time": 81.473,
      "duration": 0.205,
      "velocity": 1,
      "hand": "right"
    },
    {
      "midi": 68,
      "time": 81.473,
      "duration": 0.205,
      "velocity": 1,
      "hand": "right"
    },
    {
      "midi": 59,
      "time": 81.678,
      "duration": 0.205,
      "velocity": 1,
      "hand": "left"
    },
    {
      "midi": 62,
      "time": 81.678,
      "duration": 0.205,
      "velocity": 1,
      "hand": "right"
    },
    {
      "midi": 68,
      "time": 81.678,
      "duration": 0.205,
      "velocity": 1,
      "hand": "right"
    },
    {
      "midi": 77,
      "time": 81.678,
      "duration": 0.411,
      "velocity": 1,
      "hand": "right"
    },
    {
      "midi": 89,
      "time": 81.678,
      "duration": 0.411,
      "velocity": 1,
      "hand": "right"
    },
    {
      "midi": 59,
      "time": 81.884,
      "duration": 0.205,
      "velocity": 1,
      "hand": "left"
    },
    {
      "midi": 62,
      "time": 81.884,
      "duration": 0.205,
      "velocity": 1,
      "hand": "right"
    },
    {
      "midi": 68,
      "time": 81.884,
      "duration": 0.205,
      "velocity": 1,
      "hand": "right"
    },
    {
      "midi": 59,
      "time": 82.089,
      "duration": 0.205,
      "velocity": 1,
      "hand": "left"
    },
    {
      "midi": 62,
      "time": 82.089,
      "duration": 0.205,
      "velocity": 1,
      "hand": "right"
    },
    {
      "midi": 68,
      "time": 82.089,
      "duration": 0.205,
      "velocity": 1,
      "hand": "right"
    },
    {
      "midi": 77,
      "time": 82.089,
      "duration": 0.411,
      "velocity": 1,
      "hand": "right"
    },
    {
      "midi": 89,
      "time": 82.089,
      "duration": 0.411,
      "velocity": 1,
      "hand": "right"
    },
    {
      "midi": 59,
      "time": 82.295,
      "duration": 0.205,
      "velocity": 1,
      "hand": "left"
    },
    {
      "midi": 62,
      "time": 82.295,
      "duration": 0.205,
      "velocity": 1,
      "hand": "right"
    },
    {
      "midi": 68,
      "time": 82.295,
      "duration": 0.205,
      "velocity": 1,
      "hand": "right"
    },
    {
      "midi": 60,
      "time": 82.5,
      "duration": 0.411,
      "velocity": 1,
      "hand": "right"
    },
    {
      "midi": 64,
      "time": 82.5,
      "duration": 0.411,
      "velocity": 1,
      "hand": "right"
    },
    {
      "midi": 69,
      "time": 82.5,
      "duration": 0.411,
      "velocity": 1,
      "hand": "right"
    },
    {
      "midi": 76,
      "time": 82.5,
      "duration": 0.205,
      "velocity": 1,
      "hand": "right"
    },
    {
      "midi": 88,
      "time": 82.5,
      "duration": 0.205,
      "velocity": 1,
      "hand": "right"
    },
    {
      "midi": 86,
      "time": 82.705,
      "duration": 0.205,
      "velocity": 1,
      "hand": "right"
    },
    {
      "midi": 84,
      "time": 82.911,
      "duration": 0.205,
      "velocity": 1,
      "hand": "right"
    },
    {
      "midi": 83,
      "time": 83.116,
      "duration": 0.205,
      "velocity": 1,
      "hand": "right"
    },
    {
      "midi": 81,
      "time": 83.322,
      "duration": 0.205,
      "velocity": 1,
      "hand": "right"
    },
    {
      "midi": 79,
      "time": 83.527,
      "duration": 0.205,
      "velocity": 1,
      "hand": "right"
    },
    {
      "midi": 78,
      "time": 83.733,
      "duration": 0.205,
      "velocity": 1,
      "hand": "right"
    },
    {
      "midi": 76,
      "time": 83.938,
      "duration": 0.205,
      "velocity": 1,
      "hand": "right"
    },
    {
      "midi": 50,
      "time": 84.144,
      "duration": 0.103,
      "velocity": 1,
      "hand": "left"
    },
    {
      "midi": 74,
      "time": 84.144,
      "duration": 0.205,
      "velocity": 1,
      "hand": "right"
    },
    {
      "midi": 59,
      "time": 84.247,
      "duration": 0.103,
      "velocity": 1,
      "hand": "left"
    },
    {
      "midi": 55,
      "time": 84.349,
      "duration": 0.103,
      "velocity": 1,
      "hand": "left"
    },
    {
      "midi": 76,
      "time": 84.349,
      "duration": 0.103,
      "velocity": 1,
      "hand": "right"
    },
    {
      "midi": 59,
      "time": 84.452,
      "duration": 0.103,
      "velocity": 1,
      "hand": "left"
    },
    {
      "midi": 78,
      "time": 84.452,
      "duration": 0.103,
      "velocity": 1,
      "hand": "right"
    },
    {
      "midi": 50,
      "time": 84.555,
      "duration": 0.103,
      "velocity": 1,
      "hand": "left"
    },
    {
      "midi": 79,
      "time": 84.555,
      "duration": 0.103,
      "velocity": 1,
      "hand": "right"
    },
    {
      "midi": 59,
      "time": 84.658,
      "duration": 0.103,
      "velocity": 1,
      "hand": "left"
    },
    {
      "midi": 81,
      "time": 84.658,
      "duration": 0.103,
      "velocity": 1,
      "hand": "right"
    },
    {
      "midi": 55,
      "time": 84.76,
      "duration": 0.103,
      "velocity": 1,
      "hand": "left"
    },
    {
      "midi": 83,
      "time": 84.76,
      "duration": 0.103,
      "velocity": 1,
      "hand": "right"
    },
    {
      "midi": 59,
      "time": 84.863,
      "duration": 0.103,
      "velocity": 1,
      "hand": "left"
    },
    {
      "midi": 84,
      "time": 84.863,
      "duration": 0.103,
      "velocity": 1,
      "hand": "right"
    },
    {
      "midi": 50,
      "time": 84.966,
      "duration": 0.103,
      "velocity": 1,
      "hand": "left"
    },
    {
      "midi": 86,
      "time": 84.966,
      "duration": 0.103,
      "velocity": 1,
      "hand": "right"
    },
    {
      "midi": 59,
      "time": 85.068,
      "duration": 0.103,
      "velocity": 1,
      "hand": "left"
    },
    {
      "midi": 84,
      "time": 85.068,
      "duration": 0.103,
      "velocity": 1,
      "hand": "right"
    },
    {
      "midi": 55,
      "time": 85.171,
      "duration": 0.103,
      "velocity": 1,
      "hand": "left"
    },
    {
      "midi": 83,
      "time": 85.171,
      "duration": 0.103,
      "velocity": 1,
      "hand": "right"
    },
    {
      "midi": 59,
      "time": 85.274,
      "duration": 0.103,
      "velocity": 1,
      "hand": "left"
    },
    {
      "midi": 84,
      "time": 85.274,
      "duration": 0.103,
      "velocity": 1,
      "hand": "right"
    },
    {
      "midi": 50,
      "time": 85.377,
      "duration": 0.103,
      "velocity": 1,
      "hand": "left"
    },
    {
      "midi": 86,
      "time": 85.377,
      "duration": 0.103,
      "velocity": 1,
      "hand": "right"
    },
    {
      "midi": 59,
      "time": 85.479,
      "duration": 0.103,
      "velocity": 1,
      "hand": "left"
    },
    {
      "midi": 83,
      "time": 85.479,
      "duration": 0.103,
      "velocity": 1,
      "hand": "right"
    },
    {
      "midi": 55,
      "time": 85.582,
      "duration": 0.103,
      "velocity": 1,
      "hand": "left"
    },
    {
      "midi": 81,
      "time": 85.582,
      "duration": 0.103,
      "velocity": 1,
      "hand": "right"
    },
    {
      "midi": 59,
      "time": 85.685,
      "duration": 0.103,
      "velocity": 1,
      "hand": "left"
    },
    {
      "midi": 79,
      "time": 85.685,
      "duration": 0.103,
      "velocity": 1,
      "hand": "right"
    },
    {
      "midi": 50,
      "time": 85.788,
      "duration": 0.103,
      "velocity": 1,
      "hand": "left"
    },
    {
      "midi": 81,
      "time": 85.788,
      "duration": 1.644,
      "velocity": 1,
      "hand": "right"
    },
    {
      "midi": 60,
      "time": 85.89,
      "duration": 0.103,
      "velocity": 1,
      "hand": "right"
    },
    {
      "midi": 54,
      "time": 85.993,
      "duration": 0.103,
      "velocity": 1,
      "hand": "left"
    },
    {
      "midi": 60,
      "time": 86.096,
      "duration": 0.103,
      "velocity": 1,
      "hand": "right"
    },
    {
      "midi": 50,
      "time": 86.199,
      "duration": 0.103,
      "velocity": 1,
      "hand": "left"
    },
    {
      "midi": 60,
      "time": 86.301,
      "duration": 0.103,
      "velocity": 1,
      "hand": "right"
    },
    {
      "midi": 54,
      "time": 86.404,
      "duration": 0.103,
      "velocity": 1,
      "hand": "left"
    },
    {
      "midi": 60,
      "time": 86.507,
      "duration": 0.103,
      "velocity": 1,
      "hand": "right"
    },
    {
      "midi": 50,
      "time": 86.61,
      "duration": 0.103,
      "velocity": 1,
      "hand": "left"
    },
    {
      "midi": 60,
      "time": 86.712,
      "duration": 0.103,
      "velocity": 1,
      "hand": "right"
    },
    {
      "midi": 54,
      "time": 86.815,
      "duration": 0.103,
      "velocity": 1,
      "hand": "left"
    },
    {
      "midi": 60,
      "time": 86.918,
      "duration": 0.103,
      "velocity": 1,
      "hand": "right"
    },
    {
      "midi": 50,
      "time": 87.021,
      "duration": 0.103,
      "velocity": 1,
      "hand": "left"
    },
    {
      "midi": 79,
      "time": 87.021,
      "duration": 0.051,
      "velocity": 1,
      "hand": "right"
    },
    {
      "midi": 60,
      "time": 87.123,
      "duration": 0.103,
      "velocity": 1,
      "hand": "right"
    },
    {
      "midi": 54,
      "time": 87.226,
      "duration": 0.103,
      "velocity": 1,
      "hand": "left"
    },
    {
      "midi": 60,
      "time": 87.329,
      "duration": 0.103,
      "velocity": 1,
      "hand": "right"
    },
    {
      "midi": 55,
      "time": 87.432,
      "duration": 0.411,
      "velocity": 1,
      "hand": "left"
    },
    {
      "midi": 59,
      "time": 87.432,
      "duration": 0.411,
      "velocity": 1,
      "hand": "left"
    },
    {
      "midi": 79,
      "time": 87.432,
      "duration": 0.411,
      "velocity": 1,
      "hand": "right"
    },
    {
      "midi": 67,
      "time": 87.842,
      "duration": 0.411,
      "velocity": 1,
      "hand": "right"
    },
    {
      "midi": 71,
      "time": 88.048,
      "duration": 0.205,
      "velocity": 1,
      "hand": "right"
    },
    {
      "midi": 69,
      "time": 88.253,
      "duration": 0.411,
      "velocity": 1,
      "hand": "right"
    },
    {
      "midi": 74,
      "time": 88.253,
      "duration": 0.205,
      "velocity": 1,
      "hand": "right"
    },
    {
      "midi": 72,
      "time": 88.459,
      "duration": 0.205,
      "velocity": 1,
      "hand": "right"
    },
    {
      "midi": 66,
      "time": 88.664,
      "duration": 0.411,
      "velocity": 1,
      "hand": "right"
    },
    {
      "midi": 69,
      "time": 88.87,
      "duration": 0.205,
      "velocity": 1,
      "hand": "right"
    },
    {
      "midi": 67,
      "time": 89.075,
      "duration": 0.411,
      "velocity": 1,
      "hand": "right"
    },
    {
      "midi": 72,
      "time": 89.075,
      "duration": 0.205,
      "velocity": 1,
      "hand": "right"
    },
    {
      "midi": 71,
      "time": 89.281,
      "duration": 0.205,
      "velocity": 1,
      "hand": "right"
    },
    {
      "midi": 64,
      "time": 89.486,
      "duration": 0.411,
      "velocity": 1,
      "hand": "right"
    },
    {
      "midi": 67,
      "time": 89.692,
      "duration": 0.205,
      "velocity": 1,
      "hand": "right"
    },
    {
      "midi": 60,
      "time": 89.897,
      "duration": 0.411,
      "velocity": 1,
      "hand": "right"
    },
    {
      "midi": 71,
      "time": 89.897,
      "duration": 0.205,
      "velocity": 1,
      "hand": "right"
    },
    {
      "midi": 69,
      "time": 90.103,
      "duration": 0.205,
      "velocity": 1,
      "hand": "right"
    },
    {
      "midi": 62,
      "time": 90.308,
      "duration": 0.411,
      "velocity": 1,
      "hand": "right"
    },
    {
      "midi": 66,
      "time": 90.514,
      "duration": 0.205,
      "velocity": 1,
      "hand": "right"
    },
    {
      "midi": 59,
      "time": 90.719,
      "duration": 0.411,
      "velocity": 1,
      "hand": "left"
    },
    {
      "midi": 69,
      "time": 90.719,
      "duration": 0.205,
      "velocity": 1,
      "hand": "right"
    },
    {
      "midi": 67,
      "time": 90.925,
      "duration": 0.205,
      "velocity": 1,
      "hand": "right"
    },
    {
      "midi": 43,
      "time": 91.13,
      "duration": 0.411,
      "velocity": 1,
      "hand": "left"
    },
    {
      "midi": 55,
      "time": 91.13,
      "duration": 0.411,
      "velocity": 1,
      "hand": "left"
    },
    {
      "midi": 71,
      "time": 91.13,
      "duration": 0.103,
      "velocity": 1,
      "hand": "right"
    },
    {
      "midi": 72,
      "time": 91.233,
      "duration": 0.103,
      "velocity": 1,
      "hand": "right"
    },
    {
      "midi": 74,
      "time": 91.336,
      "duration": 0.103,
      "velocity": 1,
      "hand": "right"
    },
    {
      "midi": 71,
      "time": 91.438,
      "duration": 0.103,
      "velocity": 1,
      "hand": "right"
    },
    {
      "midi": 45,
      "time": 91.541,
      "duration": 0.411,
      "velocity": 1,
      "hand": "left"
    },
    {
      "midi": 57,
      "time": 91.541,
      "duration": 0.411,
      "velocity": 1,
      "hand": "left"
    },
    {
      "midi": 72,
      "time": 91.541,
      "duration": 0.103,
      "velocity": 1,
      "hand": "right"
    },
    {
      "midi": 74,
      "time": 91.644,
      "duration": 0.103,
      "velocity": 1,
      "hand": "right"
    },
    {
      "midi": 76,
      "time": 91.747,
      "duration": 0.103,
      "velocity": 1,
      "hand": "right"
    },
    {
      "midi": 72,
      "time": 91.849,
      "duration": 0.103,
      "velocity": 1,
      "hand": "right"
    },
    {
      "midi": 42,
      "time": 91.952,
      "duration": 0.411,
      "velocity": 1,
      "hand": "left"
    },
    {
      "midi": 54,
      "time": 91.952,
      "duration": 0.411,
      "velocity": 1,
      "hand": "left"
    },
    {
      "midi": 81,
      "time": 91.952,
      "duration": 0.103,
      "velocity": 1,
      "hand": "right"
    },
    {
      "midi": 83,
      "time": 92.055,
      "duration": 0.103,
      "velocity": 1,
      "hand": "right"
    },
    {
      "midi": 84,
      "time": 92.158,
      "duration": 0.103,
      "velocity": 1,
      "hand": "right"
    },
    {
      "midi": 81,
      "time": 92.26,
      "duration": 0.103,
      "velocity": 1,
      "hand": "right"
    },
    {
      "midi": 43,
      "time": 92.363,
      "duration": 0.411,
      "velocity": 1,
      "hand": "left"
    },
    {
      "midi": 55,
      "time": 92.363,
      "duration": 0.411,
      "velocity": 1,
      "hand": "left"
    },
    {
      "midi": 83,
      "time": 92.363,
      "duration": 0.103,
      "velocity": 1,
      "hand": "right"
    },
    {
      "midi": 84,
      "time": 92.466,
      "duration": 0.103,
      "velocity": 1,
      "hand": "right"
    },
    {
      "midi": 86,
      "time": 92.568,
      "duration": 0.103,
      "velocity": 1,
      "hand": "right"
    },
    {
      "midi": 83,
      "time": 92.671,
      "duration": 0.103,
      "velocity": 1,
      "hand": "right"
    },
    {
      "midi": 40,
      "time": 92.774,
      "duration": 0.411,
      "velocity": 1,
      "hand": "left"
    },
    {
      "midi": 52,
      "time": 92.774,
      "duration": 0.411,
      "velocity": 1,
      "hand": "left"
    },
    {
      "midi": 67,
      "time": 92.774,
      "duration": 0.103,
      "velocity": 1,
      "hand": "right"
    },
    {
      "midi": 69,
      "time": 92.877,
      "duration": 0.103,
      "velocity": 1,
      "hand": "right"
    },
    {
      "midi": 71,
      "time": 92.979,
      "duration": 0.103,
      "velocity": 1,
      "hand": "right"
    },
    {
      "midi": 67,
      "time": 93.082,
      "duration": 0.103,
      "velocity": 1,
      "hand": "right"
    },
    {
      "midi": 36,
      "time": 93.185,
      "duration": 0.411,
      "velocity": 1,
      "hand": "left"
    },
    {
      "midi": 48,
      "time": 93.185,
      "duration": 0.411,
      "velocity": 1,
      "hand": "left"
    },
    {
      "midi": 69,
      "time": 93.185,
      "duration": 0.103,
      "velocity": 1,
      "hand": "right"
    },
    {
      "midi": 71,
      "time": 93.288,
      "duration": 0.103,
      "velocity": 1,
      "hand": "right"
    },
    {
      "midi": 72,
      "time": 93.39,
      "duration": 0.103,
      "velocity": 1,
      "hand": "right"
    },
    {
      "midi": 69,
      "time": 93.493,
      "duration": 0.103,
      "velocity": 1,
      "hand": "right"
    },
    {
      "midi": 38,
      "time": 93.596,
      "duration": 0.411,
      "velocity": 1,
      "hand": "left"
    },
    {
      "midi": 50,
      "time": 93.596,
      "duration": 0.411,
      "velocity": 1,
      "hand": "left"
    },
    {
      "midi": 78,
      "time": 93.596,
      "duration": 0.103,
      "velocity": 1,
      "hand": "right"
    },
    {
      "midi": 79,
      "time": 93.699,
      "duration": 0.103,
      "velocity": 1,
      "hand": "right"
    },
    {
      "midi": 81,
      "time": 93.801,
      "duration": 0.103,
      "velocity": 1,
      "hand": "right"
    },
    {
      "midi": 78,
      "time": 93.904,
      "duration": 0.103,
      "velocity": 1,
      "hand": "right"
    },
    {
      "midi": 43,
      "time": 94.007,
      "duration": 0.411,
      "velocity": 1,
      "hand": "left"
    },
    {
      "midi": 79,
      "time": 94.007,
      "duration": 0.411,
      "velocity": 1,
      "hand": "right"
    },
    {
      "midi": 43,
      "time": 94.418,
      "duration": 0.411,
      "velocity": 1,
      "hand": "left"
    },
    {
      "midi": 55,
      "time": 94.418,
      "duration": 0.411,
      "velocity": 1,
      "hand": "left"
    },
    {
      "midi": 74,
      "time": 94.418,
      "duration": 0.411,
      "velocity": 1,
      "hand": "right"
    },
    {
      "midi": 79,
      "time": 94.418,
      "duration": 0.411,
      "velocity": 1,
      "hand": "right"
    },
    {
      "midi": 83,
      "time": 94.418,
      "duration": 0.411,
      "velocity": 1,
      "hand": "right"
    },
    {
      "midi": 43,
      "time": 94.829,
      "duration": 0.411,
      "velocity": 1,
      "hand": "left"
    },
    {
      "midi": 55,
      "time": 94.829,
      "duration": 0.411,
      "velocity": 1,
      "hand": "left"
    },
    {
      "midi": 71,
      "time": 94.829,
      "duration": 0.411,
      "velocity": 1,
      "hand": "right"
    },
    {
      "midi": 74,
      "time": 94.829,
      "duration": 0.411,
      "velocity": 1,
      "hand": "right"
    },
    {
      "midi": 79,
      "time": 94.829,
      "duration": 0.411,
      "velocity": 1,
      "hand": "right"
    },
    {
      "midi": 55,
      "time": 95.651,
      "duration": 0.051,
      "velocity": 1,
      "hand": "left"
    },
    {
      "midi": 58,
      "time": 95.651,
      "duration": 0.051,
      "velocity": 1,
      "hand": "left"
    },
    {
      "midi": 31,
      "time": 95.753,
      "duration": 0.822,
      "velocity": 1,
      "hand": "left"
    },
    {
      "midi": 43,
      "time": 95.753,
      "duration": 0.822,
      "velocity": 1,
      "hand": "left"
    },
    {
      "midi": 62,
      "time": 95.753,
      "duration": 0.051,
      "velocity": 1,
      "hand": "right"
    },
    {
      "midi": 67,
      "time": 95.753,
      "duration": 0.822,
      "velocity": 1,
      "hand": "right"
    },
    {
      "midi": 38,
      "time": 96.575,
      "duration": 0.822,
      "velocity": 1,
      "hand": "left"
    },
    {
      "midi": 62,
      "time": 96.575,
      "duration": 0.822,
      "velocity": 1,
      "hand": "right"
    },
    {
      "midi": 46,
      "time": 97.397,
      "duration": 0.616,
      "velocity": 1,
      "hand": "left"
    },
    {
      "midi": 70,
      "time": 97.397,
      "duration": 0.616,
      "velocity": 1,
      "hand": "right"
    },
    {
      "midi": 48,
      "time": 98.014,
      "duration": 0.103,
      "velocity": 1,
      "hand": "left"
    },
    {
      "midi": 72,
      "time": 98.014,
      "duration": 0.103,
      "velocity": 1,
      "hand": "right"
    },
    {
      "midi": 45,
      "time": 98.116,
      "duration": 0.103,
      "velocity": 1,
      "hand": "left"
    },
    {
      "midi": 69,
      "time": 98.116,
      "duration": 0.103,
      "velocity": 1,
      "hand": "right"
    },
    {
      "midi": 43,
      "time": 98.219,
      "duration": 0.411,
      "velocity": 1,
      "hand": "left"
    },
    {
      "midi": 67,
      "time": 98.219,
      "duration": 0.411,
      "velocity": 1,
      "hand": "right"
    },
    {
      "midi": 70,
      "time": 99.041,
      "duration": 0.616,
      "velocity": 1,
      "hand": "right"
    },
    {
      "midi": 74,
      "time": 99.041,
      "duration": 0.616,
      "velocity": 1,
      "hand": "right"
    },
    {
      "midi": 72,
      "time": 99.658,
      "duration": 0.103,
      "velocity": 1,
      "hand": "right"
    },
    {
      "midi": 75,
      "time": 99.658,
      "duration": 0.103,
      "velocity": 1,
      "hand": "right"
    },
    {
      "midi": 69,
      "time": 99.76,
      "duration": 0.103,
      "velocity": 1,
      "hand": "right"
    },
    {
      "midi": 72,
      "time": 99.76,
      "duration": 0.103,
      "velocity": 1,
      "hand": "right"
    },
    {
      "midi": 67,
      "time": 99.863,
      "duration": 0.411,
      "velocity": 1,
      "hand": "right"
    },
    {
      "midi": 70,
      "time": 99.863,
      "duration": 0.411,
      "velocity": 1,
      "hand": "right"
    },
    {
      "midi": 74,
      "time": 100.685,
      "duration": 0.616,
      "velocity": 1,
      "hand": "right"
    },
    {
      "midi": 82,
      "time": 100.685,
      "duration": 0.616,
      "velocity": 1,
      "hand": "right"
    },
    {
      "midi": 75,
      "time": 101.301,
      "duration": 0.103,
      "velocity": 1,
      "hand": "right"
    },
    {
      "midi": 84,
      "time": 101.301,
      "duration": 0.103,
      "velocity": 1,
      "hand": "right"
    },
    {
      "midi": 72,
      "time": 101.404,
      "duration": 0.103,
      "velocity": 1,
      "hand": "right"
    },
    {
      "midi": 81,
      "time": 101.404,
      "duration": 0.103,
      "velocity": 1,
      "hand": "right"
    },
    {
      "midi": 70,
      "time": 101.507,
      "duration": 0.411,
      "velocity": 1,
      "hand": "right"
    },
    {
      "midi": 79,
      "time": 101.507,
      "duration": 0.411,
      "velocity": 1,
      "hand": "right"
    },
    {
      "midi": 58,
      "time": 102.329,
      "duration": 0.205,
      "velocity": 1,
      "hand": "left"
    },
    {
      "midi": 62,
      "time": 102.329,
      "duration": 0.205,
      "velocity": 1,
      "hand": "right"
    },
    {
      "midi": 67,
      "time": 102.534,
      "duration": 0.205,
      "velocity": 1,
      "hand": "right"
    },
    {
      "midi": 58,
      "time": 102.74,
      "duration": 0.205,
      "velocity": 1,
      "hand": "left"
    },
    {
      "midi": 62,
      "time": 102.74,
      "duration": 0.205,
      "velocity": 1,
      "hand": "right"
    },
    {
      "midi": 79,
      "time": 102.74,
      "duration": 0.411,
      "velocity": 1,
      "hand": "right"
    },
    {
      "midi": 67,
      "time": 102.945,
      "duration": 0.205,
      "velocity": 1,
      "hand": "right"
    },
    {
      "midi": 58,
      "time": 103.151,
      "duration": 0.205,
      "velocity": 1,
      "hand": "left"
    },
    {
      "midi": 62,
      "time": 103.151,
      "duration": 0.205,
      "velocity": 1,
      "hand": "right"
    },
    {
      "midi": 86,
      "time": 103.151,
      "duration": 0.411,
      "velocity": 1,
      "hand": "right"
    },
    {
      "midi": 67,
      "time": 103.356,
      "duration": 0.205,
      "velocity": 1,
      "hand": "right"
    },
    {
      "midi": 58,
      "time": 103.562,
      "duration": 0.205,
      "velocity": 1,
      "hand": "left"
    },
    {
      "midi": 62,
      "time": 103.562,
      "duration": 0.205,
      "velocity": 1,
      "hand": "right"
    },
    {
      "midi": 88,
      "time": 103.562,
      "duration": 0.411,
      "velocity": 1,
      "hand": "right"
    },
    {
      "midi": 67,
      "time": 103.767,
      "duration": 0.205,
      "velocity": 1,
      "hand": "right"
    },
    {
      "midi": 57,
      "time": 103.973,
      "duration": 0.205,
      "velocity": 1,
      "hand": "left"
    },
    {
      "midi": 64,
      "time": 103.973,
      "duration": 0.205,
      "velocity": 1,
      "hand": "right"
    },
    {
      "midi": 86,
      "time": 103.973,
      "duration": 0.822,
      "velocity": 1,
      "hand": "right"
    },
    {
      "midi": 67,
      "time": 104.178,
      "duration": 0.205,
      "velocity": 1,
      "hand": "right"
    },
    {
      "midi": 57,
      "time": 104.384,
      "duration": 0.205,
      "velocity": 1,
      "hand": "left"
    },
    {
      "midi": 64,
      "time": 104.384,
      "duration": 0.205,
      "velocity": 1,
      "hand": "right"
    },
    {
      "midi": 67,
      "time": 104.589,
      "duration": 0.205,
      "velocity": 1,
      "hand": "right"
    },
    {
      "midi": 57,
      "time": 104.795,
      "duration": 0.205,
      "velocity": 1,
      "hand": "left"
    },
    {
      "midi": 64,
      "time": 104.795,
      "duration": 0.205,
      "velocity": 1,
      "hand": "right"
    },
    {
      "midi": 85,
      "time": 104.795,
      "duration": 0.411,
      "velocity": 1,
      "hand": "right"
    },
    {
      "midi": 67,
      "time": 105,
      "duration": 0.205,
      "velocity": 1,
      "hand": "right"
    },
    {
      "midi": 57,
      "time": 105.205,
      "duration": 0.205,
      "velocity": 1,
      "hand": "left"
    },
    {
      "midi": 64,
      "time": 105.205,
      "duration": 0.205,
      "velocity": 1,
      "hand": "right"
    },
    {
      "midi": 67,
      "time": 105.411,
      "duration": 0.205,
      "velocity": 1,
      "hand": "right"
    },
    {
      "midi": 58,
      "time": 105.616,
      "duration": 0.205,
      "velocity": 1,
      "hand": "left"
    },
    {
      "midi": 62,
      "time": 105.616,
      "duration": 0.205,
      "velocity": 1,
      "hand": "right"
    },
    {
      "midi": 67,
      "time": 105.822,
      "duration": 0.205,
      "velocity": 1,
      "hand": "right"
    },
    {
      "midi": 79,
      "time": 105.925,
      "duration": 0.103,
      "velocity": 1,
      "hand": "right"
    },
    {
      "midi": 58,
      "time": 106.027,
      "duration": 0.205,
      "velocity": 1,
      "hand": "left"
    },
    {
      "midi": 62,
      "time": 106.027,
      "duration": 0.205,
      "velocity": 1,
      "hand": "right"
    },
    {
      "midi": 79,
      "time": 106.027,
      "duration": 0.308,
      "velocity": 1,
      "hand": "right"
    },
    {
      "midi": 67,
      "time": 106.233,
      "duration": 0.205,
      "velocity": 1,
      "hand": "right"
    },
    {
      "midi": 78,
      "time": 106.336,
      "duration": 0.051,
      "velocity": 1,
      "hand": "right"
    },
    {
      "midi": 58,
      "time": 106.438,
      "duration": 0.205,
      "velocity": 1,
      "hand": "left"
    },
    {
      "midi": 62,
      "time": 106.438,
      "duration": 0.205,
      "velocity": 1,
      "hand": "right"
    },
    {
      "midi": 79,
      "time": 106.438,
      "duration": 0.051,
      "velocity": 1,
      "hand": "right"
    },
    {
      "midi": 86,
      "time": 106.438,
      "duration": 0.411,
      "velocity": 1,
      "hand": "right"
    },
    {
      "midi": 67,
      "time": 106.644,
      "duration": 0.205,
      "velocity": 1,
      "hand": "right"
    },
    {
      "midi": 58,
      "time": 106.849,
      "duration": 0.205,
      "velocity": 1,
      "hand": "left"
    },
    {
      "midi": 62,
      "time": 106.849,
      "duration": 0.205,
      "velocity": 1,
      "hand": "right"
    },
    {
      "midi": 88,
      "time": 106.849,
      "duration": 0.411,
      "velocity": 1,
      "hand": "right"
    },
    {
      "midi": 67,
      "time": 107.055,
      "duration": 0.205,
      "velocity": 1,
      "hand": "right"
    },
    {
      "midi": 57,
      "time": 107.26,
      "duration": 0.205,
      "velocity": 1,
      "hand": "left"
    },
    {
      "midi": 64,
      "time": 107.26,
      "duration": 0.205,
      "velocity": 1,
      "hand": "right"
    },
    {
      "midi": 86,
      "time": 107.26,
      "duration": 0.822,
      "velocity": 1,
      "hand": "right"
    },
    {
      "midi": 67,
      "time": 107.466,
      "duration": 0.205,
      "velocity": 1,
      "hand": "right"
    },
    {
      "midi": 57,
      "time": 107.671,
      "duration": 0.205,
      "velocity": 1,
      "hand": "left"
    },
    {
      "midi": 64,
      "time": 107.671,
      "duration": 0.205,
      "velocity": 1,
      "hand": "right"
    },
    {
      "midi": 67,
      "time": 107.877,
      "duration": 0.205,
      "velocity": 1,
      "hand": "right"
    },
    {
      "midi": 57,
      "time": 108.082,
      "duration": 0.205,
      "velocity": 1,
      "hand": "left"
    },
    {
      "midi": 64,
      "time": 108.082,
      "duration": 0.205,
      "velocity": 1,
      "hand": "right"
    },
    {
      "midi": 85,
      "time": 108.082,
      "duration": 0.411,
      "velocity": 1,
      "hand": "right"
    },
    {
      "midi": 67,
      "time": 108.288,
      "duration": 0.205,
      "velocity": 1,
      "hand": "right"
    },
    {
      "midi": 57,
      "time": 108.493,
      "duration": 0.205,
      "velocity": 1,
      "hand": "left"
    },
    {
      "midi": 64,
      "time": 108.493,
      "duration": 0.205,
      "velocity": 1,
      "hand": "right"
    },
    {
      "midi": 67,
      "time": 108.699,
      "duration": 0.205,
      "velocity": 1,
      "hand": "right"
    },
    {
      "midi": 50,
      "time": 108.904,
      "duration": 0.051,
      "velocity": 1,
      "hand": "left"
    },
    {
      "midi": 53,
      "time": 109.007,
      "duration": 0.051,
      "velocity": 1,
      "hand": "left"
    },
    {
      "midi": 57,
      "time": 109.007,
      "duration": 0.051,
      "velocity": 1,
      "hand": "left"
    },
    {
      "midi": 38,
      "time": 109.11,
      "duration": 0.822,
      "velocity": 1,
      "hand": "left"
    },
    {
      "midi": 62,
      "time": 109.11,
      "duration": 0.822,
      "velocity": 1,
      "hand": "right"
    },
    {
      "midi": 45,
      "time": 109.932,
      "duration": 0.822,
      "velocity": 1,
      "hand": "left"
    },
    {
      "midi": 57,
      "time": 109.932,
      "duration": 0.822,
      "velocity": 1,
      "hand": "left"
    },
    {
      "midi": 53,
      "time": 110.753,
      "duration": 0.616,
      "velocity": 1,
      "hand": "left"
    },
    {
      "midi": 65,
      "time": 110.753,
      "duration": 0.616,
      "velocity": 1,
      "hand": "right"
    },
    {
      "midi": 55,
      "time": 111.37,
      "duration": 0.103,
      "velocity": 1,
      "hand": "left"
    },
    {
      "midi": 67,
      "time": 111.37,
      "duration": 0.103,
      "velocity": 1,
      "hand": "right"
    },
    {
      "midi": 52,
      "time": 111.473,
      "duration": 0.103,
      "velocity": 1,
      "hand": "left"
    },
    {
      "midi": 64,
      "time": 111.473,
      "duration": 0.103,
      "velocity": 1,
      "hand": "right"
    },
    {
      "midi": 50,
      "time": 111.575,
      "duration": 0.411,
      "velocity": 1,
      "hand": "left"
    },
    {
      "midi": 62,
      "time": 111.575,
      "duration": 0.411,
      "velocity": 1,
      "hand": "right"
    },
    {
      "midi": 53,
      "time": 112.397,
      "duration": 0.411,
      "velocity": 1,
      "hand": "left"
    },
    {
      "midi": 57,
      "time": 112.397,
      "duration": 0.205,
      "velocity": 1,
      "hand": "left"
    },
    {
      "midi": 62,
      "time": 112.603,
      "duration": 0.205,
      "velocity": 1,
      "hand": "right"
    },
    {
      "midi": 74,
      "time": 112.705,
      "duration": 0.103,
      "velocity": 1,
      "hand": "right"
    },
    {
      "midi": 53,
      "time": 112.808,
      "duration": 0.411,
      "velocity": 1,
      "hand": "left"
    },
    {
      "midi": 57,
      "time": 112.808,
      "duration": 0.205,
      "velocity": 1,
      "hand": "left"
    },
    {
      "midi": 74,
      "time": 112.808,
      "duration": 0.308,
      "velocity": 1,
      "hand": "right"
    },
    {
      "midi": 62,
      "time": 113.014,
      "duration": 0.205,
      "velocity": 1,
      "hand": "right"
    },
    {
      "midi": 73,
      "time": 113.116,
      "duration": 0.051,
      "velocity": 1,
      "hand": "right"
    },
    {
      "midi": 74,
      "time": 113.116,
      "duration": 0.051,
      "velocity": 1,
      "hand": "right"
    },
    {
      "midi": 53,
      "time": 113.219,
      "duration": 0.411,
      "velocity": 1,
      "hand": "left"
    },
    {
      "midi": 57,
      "time": 113.219,
      "duration": 0.205,
      "velocity": 1,
      "hand": "left"
    },
    {
      "midi": 81,
      "time": 113.219,
      "duration": 0.411,
      "velocity": 1,
      "hand": "right"
    },
    {
      "midi": 62,
      "time": 113.425,
      "duration": 0.205,
      "velocity": 1,
      "hand": "right"
    },
    {
      "midi": 53,
      "time": 113.63,
      "duration": 0.411,
      "velocity": 1,
      "hand": "left"
    },
    {
      "midi": 57,
      "time": 113.63,
      "duration": 0.205,
      "velocity": 1,
      "hand": "left"
    },
    {
      "midi": 83,
      "time": 113.63,
      "duration": 0.411,
      "velocity": 1,
      "hand": "right"
    },
    {
      "midi": 62,
      "time": 113.836,
      "duration": 0.205,
      "velocity": 1,
      "hand": "right"
    },
    {
      "midi": 52,
      "time": 114.041,
      "duration": 0.411,
      "velocity": 1,
      "hand": "left"
    },
    {
      "midi": 59,
      "time": 114.041,
      "duration": 0.205,
      "velocity": 1,
      "hand": "left"
    },
    {
      "midi": 81,
      "time": 114.041,
      "duration": 0.822,
      "velocity": 1,
      "hand": "right"
    },
    {
      "midi": 62,
      "time": 114.247,
      "duration": 0.205,
      "velocity": 1,
      "hand": "right"
    },
    {
      "midi": 52,
      "time": 114.452,
      "duration": 0.411,
      "velocity": 1,
      "hand": "left"
    },
    {
      "midi": 59,
      "time": 114.452,
      "duration": 0.205,
      "velocity": 1,
      "hand": "left"
    },
    {
      "midi": 62,
      "time": 114.658,
      "duration": 0.205,
      "velocity": 1,
      "hand": "right"
    },
    {
      "midi": 52,
      "time": 114.863,
      "duration": 0.411,
      "velocity": 1,
      "hand": "left"
    },
    {
      "midi": 59,
      "time": 114.863,
      "duration": 0.205,
      "velocity": 1,
      "hand": "left"
    },
    {
      "midi": 80,
      "time": 114.863,
      "duration": 0.411,
      "velocity": 1,
      "hand": "right"
    },
    {
      "midi": 62,
      "time": 115.068,
      "duration": 0.205,
      "velocity": 1,
      "hand": "right"
    },
    {
      "midi": 52,
      "time": 115.274,
      "duration": 0.411,
      "velocity": 1,
      "hand": "left"
    },
    {
      "midi": 59,
      "time": 115.274,
      "duration": 0.205,
      "velocity": 1,
      "hand": "left"
    },
    {
      "midi": 62,
      "time": 115.479,
      "duration": 0.205,
      "velocity": 1,
      "hand": "right"
    },
    {
      "midi": 53,
      "time": 115.685,
      "duration": 0.411,
      "velocity": 1,
      "hand": "left"
    },
    {
      "midi": 57,
      "time": 115.685,
      "duration": 0.205,
      "velocity": 1,
      "hand": "left"
    },
    {
      "midi": 62,
      "time": 115.89,
      "duration": 0.205,
      "velocity": 1,
      "hand": "right"
    },
    {
      "midi": 81,
      "time": 115.89,
      "duration": 0.205,
      "velocity": 1,
      "hand": "right"
    },
    {
      "midi": 53,
      "time": 116.096,
      "duration": 0.411,
      "velocity": 1,
      "hand": "left"
    },
    {
      "midi": 57,
      "time": 116.096,
      "duration": 0.205,
      "velocity": 1,
      "hand": "left"
    },
    {
      "midi": 86,
      "time": 116.096,
      "duration": 0.205,
      "velocity": 1,
      "hand": "right"
    },
    {
      "midi": 62,
      "time": 116.301,
      "duration": 0.205,
      "velocity": 1,
      "hand": "right"
    },
    {
      "midi": 85,
      "time": 116.301,
      "duration": 0.205,
      "velocity": 1,
      "hand": "right"
    },
    {
      "midi": 53,
      "time": 116.507,
      "duration": 0.411,
      "velocity": 1,
      "hand": "left"
    },
    {
      "midi": 57,
      "time": 116.507,
      "duration": 0.205,
      "velocity": 1,
      "hand": "left"
    },
    {
      "midi": 88,
      "time": 116.507,
      "duration": 0.205,
      "velocity": 1,
      "hand": "right"
    },
    {
      "midi": 62,
      "time": 116.712,
      "duration": 0.205,
      "velocity": 1,
      "hand": "right"
    },
    {
      "midi": 86,
      "time": 116.712,
      "duration": 0.205,
      "velocity": 1,
      "hand": "right"
    },
    {
      "midi": 53,
      "time": 116.918,
      "duration": 0.411,
      "velocity": 1,
      "hand": "left"
    },
    {
      "midi": 57,
      "time": 116.918,
      "duration": 0.205,
      "velocity": 1,
      "hand": "left"
    },
    {
      "midi": 84,
      "time": 116.918,
      "duration": 0.205,
      "velocity": 1,
      "hand": "right"
    },
    {
      "midi": 62,
      "time": 117.123,
      "duration": 0.205,
      "velocity": 1,
      "hand": "right"
    },
    {
      "midi": 83,
      "time": 117.123,
      "duration": 0.205,
      "velocity": 1,
      "hand": "right"
    },
    {
      "midi": 52,
      "time": 117.329,
      "duration": 0.411,
      "velocity": 1,
      "hand": "left"
    },
    {
      "midi": 59,
      "time": 117.329,
      "duration": 0.205,
      "velocity": 1,
      "hand": "left"
    },
    {
      "midi": 81,
      "time": 117.329,
      "duration": 0.822,
      "velocity": 1,
      "hand": "right"
    },
    {
      "midi": 62,
      "time": 117.534,
      "duration": 0.205,
      "velocity": 1,
      "hand": "right"
    },
    {
      "midi": 52,
      "time": 117.74,
      "duration": 0.411,
      "velocity": 1,
      "hand": "left"
    },
    {
      "midi": 59,
      "time": 117.74,
      "duration": 0.205,
      "velocity": 1,
      "hand": "left"
    },
    {
      "midi": 62,
      "time": 117.945,
      "duration": 0.205,
      "velocity": 1,
      "hand": "right"
    },
    {
      "midi": 52,
      "time": 118.151,
      "duration": 0.411,
      "velocity": 1,
      "hand": "left"
    },
    {
      "midi": 59,
      "time": 118.151,
      "duration": 0.205,
      "velocity": 1,
      "hand": "left"
    },
    {
      "midi": 80,
      "time": 118.151,
      "duration": 0.411,
      "velocity": 1,
      "hand": "right"
    },
    {
      "midi": 81,
      "time": 118.151,
      "duration": 0.051,
      "velocity": 1,
      "hand": "right"
    },
    {
      "midi": 83,
      "time": 118.151,
      "duration": 0.051,
      "velocity": 1,
      "hand": "right"
    },
    {
      "midi": 62,
      "time": 118.356,
      "duration": 0.205,
      "velocity": 1,
      "hand": "right"
    },
    {
      "midi": 52,
      "time": 118.562,
      "duration": 0.411,
      "velocity": 1,
      "hand": "left"
    },
    {
      "midi": 59,
      "time": 118.562,
      "duration": 0.205,
      "velocity": 1,
      "hand": "left"
    },
    {
      "midi": 62,
      "time": 118.767,
      "duration": 0.205,
      "velocity": 1,
      "hand": "right"
    },
    {
      "midi": 57,
      "time": 118.973,
      "duration": 0.103,
      "velocity": 1,
      "hand": "left"
    },
    {
      "midi": 72,
      "time": 118.973,
      "duration": 0.822,
      "velocity": 1,
      "hand": "right"
    },
    {
      "midi": 84,
      "time": 118.973,
      "duration": 0.822,
      "velocity": 1,
      "hand": "right"
    },
    {
      "midi": 64,
      "time": 119.075,
      "duration": 0.103,
      "velocity": 1,
      "hand": "right"
    },
    {
      "midi": 60,
      "time": 119.178,
      "duration": 0.103,
      "velocity": 1,
      "hand": "right"
    },
    {
      "midi": 64,
      "time": 119.281,
      "duration": 0.103,
      "velocity": 1,
      "hand": "right"
    },
    {
      "midi": 57,
      "time": 119.384,
      "duration": 0.103,
      "velocity": 1,
      "hand": "left"
    },
    {
      "midi": 64,
      "time": 119.486,
      "duration": 0.103,
      "velocity": 1,
      "hand": "right"
    },
    {
      "midi": 60,
      "time": 119.589,
      "duration": 0.103,
      "velocity": 1,
      "hand": "right"
    },
    {
      "midi": 64,
      "time": 119.692,
      "duration": 0.103,
      "velocity": 1,
      "hand": "right"
    },
    {
      "midi": 57,
      "time": 119.795,
      "duration": 0.103,
      "velocity": 1,
      "hand": "left"
    },
    {
      "midi": 69,
      "time": 119.795,
      "duration": 0.822,
      "velocity": 1,
      "hand": "right"
    },
    {
      "midi": 81,
      "time": 119.795,
      "duration": 0.822,
      "velocity": 1,
      "hand": "right"
    },
    {
      "midi": 65,
      "time": 119.897,
      "duration": 0.103,
      "velocity": 1,
      "hand": "right"
    },
    {
      "midi": 60,
      "time": 120,
      "duration": 0.103,
      "velocity": 1,
      "hand": "right"
    },
    {
      "midi": 65,
      "time": 120.103,
      "duration": 0.103,
      "velocity": 1,
      "hand": "right"
    },
    {
      "midi": 57,
      "time": 120.205,
      "duration": 0.103,
      "velocity": 1,
      "hand": "left"
    },
    {
      "midi": 65,
      "time": 120.308,
      "duration": 0.103,
      "velocity": 1,
      "hand": "right"
    },
    {
      "midi": 60,
      "time": 120.411,
      "duration": 0.103,
      "velocity": 1,
      "hand": "right"
    },
    {
      "midi": 65,
      "time": 120.514,
      "duration": 0.103,
      "velocity": 1,
      "hand": "right"
    },
    {
      "midi": 57,
      "time": 120.616,
      "duration": 0.103,
      "velocity": 1,
      "hand": "left"
    },
    {
      "midi": 87,
      "time": 120.616,
      "duration": 0.616,
      "velocity": 1,
      "hand": "right"
    },
    {
      "midi": 66,
      "time": 120.719,
      "duration": 0.103,
      "velocity": 1,
      "hand": "right"
    },
    {
      "midi": 60,
      "time": 120.822,
      "duration": 0.103,
      "velocity": 1,
      "hand": "right"
    },
    {
      "midi": 66,
      "time": 120.925,
      "duration": 0.103,
      "velocity": 1,
      "hand": "right"
    },
    {
      "midi": 57,
      "time": 121.027,
      "duration": 0.103,
      "velocity": 1,
      "hand": "left"
    },
    {
      "midi": 66,
      "time": 121.13,
      "duration": 0.103,
      "velocity": 1,
      "hand": "right"
    },
    {
      "midi": 60,
      "time": 121.233,
      "duration": 0.103,
      "velocity": 1,
      "hand": "right"
    },
    {
      "midi": 88,
      "time": 121.233,
      "duration": 0.103,
      "velocity": 1,
      "hand": "right"
    },
    {
      "midi": 66,
      "time": 121.336,
      "duration": 0.103,
      "velocity": 1,
      "hand": "right"
    },
    {
      "midi": 87,
      "time": 121.336,
      "duration": 0.103,
      "velocity": 1,
      "hand": "right"
    },
    {
      "midi": 56,
      "time": 121.438,
      "duration": 0.103,
      "velocity": 1,
      "hand": "left"
    },
    {
      "midi": 88,
      "time": 121.438,
      "duration": 0.411,
      "velocity": 1,
      "hand": "right"
    },
    {
      "midi": 64,
      "time": 121.541,
      "duration": 0.103,
      "velocity": 1,
      "hand": "right"
    },
    {
      "midi": 59,
      "time": 121.644,
      "duration": 0.103,
      "velocity": 1,
      "hand": "left"
    },
    {
      "midi": 64,
      "time": 121.747,
      "duration": 0.103,
      "velocity": 1,
      "hand": "right"
    },
    {
      "midi": 56,
      "time": 121.849,
      "duration": 0.103,
      "velocity": 1,
      "hand": "left"
    },
    {
      "midi": 64,
      "time": 121.952,
      "duration": 0.103,
      "velocity": 1,
      "hand": "right"
    },
    {
      "midi": 59,
      "time": 122.055,
      "duration": 0.103,
      "velocity": 1,
      "hand": "left"
    },
    {
      "midi": 64,
      "time": 122.158,
      "duration": 0.103,
      "velocity": 1,
      "hand": "right"
    },
    {
      "midi": 55,
      "time": 122.26,
      "duration": 0.103,
      "velocity": 1,
      "hand": "left"
    },
    {
      "midi": 70,
      "time": 122.26,
      "duration": 0.822,
      "velocity": 1,
      "hand": "right"
    },
    {
      "midi": 82,
      "time": 122.26,
      "duration": 0.822,
      "velocity": 1,
      "hand": "right"
    },
    {
      "midi": 62,
      "time": 122.363,
      "duration": 0.103,
      "velocity": 1,
      "hand": "right"
    },
    {
      "midi": 58,
      "time": 122.466,
      "duration": 0.103,
      "velocity": 1,
      "hand": "left"
    },
    {
      "midi": 62,
      "time": 122.568,
      "duration": 0.103,
      "velocity": 1,
      "hand": "right"
    },
    {
      "midi": 55,
      "time": 122.671,
      "duration": 0.103,
      "velocity": 1,
      "hand": "left"
    },
    {
      "midi": 62,
      "time": 122.774,
      "duration": 0.103,
      "velocity": 1,
      "hand": "right"
    },
    {
      "midi": 58,
      "time": 122.877,
      "duration": 0.103,
      "velocity": 1,
      "hand": "left"
    },
    {
      "midi": 62,
      "time": 122.979,
      "duration": 0.103,
      "velocity": 1,
      "hand": "right"
    },
    {
      "midi": 55,
      "time": 123.082,
      "duration": 0.103,
      "velocity": 1,
      "hand": "left"
    },
    {
      "midi": 67,
      "time": 123.082,
      "duration": 0.822,
      "velocity": 1,
      "hand": "right"
    },
    {
      "midi": 79,
      "time": 123.082,
      "duration": 0.822,
      "velocity": 1,
      "hand": "right"
    },
    {
      "midi": 63,
      "time": 123.185,
      "duration": 0.103,
      "velocity": 1,
      "hand": "right"
    },
    {
      "midi": 58,
      "time": 123.288,
      "duration": 0.103,
      "velocity": 1,
      "hand": "left"
    },
    {
      "midi": 63,
      "time": 123.39,
      "duration": 0.103,
      "velocity": 1,
      "hand": "right"
    },
    {
      "midi": 55,
      "time": 123.493,
      "duration": 0.103,
      "velocity": 1,
      "hand": "left"
    },
    {
      "midi": 63,
      "time": 123.596,
      "duration": 0.103,
      "velocity": 1,
      "hand": "right"
    },
    {
      "midi": 58,
      "time": 123.699,
      "duration": 0.103,
      "velocity": 1,
      "hand": "left"
    },
    {
      "midi": 63,
      "time": 123.801,
      "duration": 0.103,
      "velocity": 1,
      "hand": "right"
    },
    {
      "midi": 55,
      "time": 123.904,
      "duration": 0.103,
      "velocity": 1,
      "hand": "left"
    },
    {
      "midi": 85,
      "time": 123.904,
      "duration": 0.616,
      "velocity": 1,
      "hand": "right"
    },
    {
      "midi": 64,
      "time": 124.007,
      "duration": 0.103,
      "velocity": 1,
      "hand": "right"
    },
    {
      "midi": 58,
      "time": 124.11,
      "duration": 0.103,
      "velocity": 1,
      "hand": "left"
    },
    {
      "midi": 64,
      "time": 124.212,
      "duration": 0.103,
      "velocity": 1,
      "hand": "right"
    },
    {
      "midi": 55,
      "time": 124.315,
      "duration": 0.103,
      "velocity": 1,
      "hand": "left"
    },
    {
      "midi": 64,
      "time": 124.418,
      "duration": 0.103,
      "velocity": 1,
      "hand": "right"
    },
    {
      "midi": 58,
      "time": 124.521,
      "duration": 0.103,
      "velocity": 1,
      "hand": "left"
    },
    {
      "midi": 86,
      "time": 124.521,
      "duration": 0.103,
      "velocity": 1,
      "hand": "right"
    },
    {
      "midi": 64,
      "time": 124.623,
      "duration": 0.103,
      "velocity": 1,
      "hand": "right"
    },
    {
      "midi": 85,
      "time": 124.623,
      "duration": 0.103,
      "velocity": 1,
      "hand": "right"
    },
    {
      "midi": 54,
      "time": 124.726,
      "duration": 0.103,
      "velocity": 1,
      "hand": "left"
    },
    {
      "midi": 86,
      "time": 124.726,
      "duration": 0.411,
      "velocity": 1,
      "hand": "right"
    },
    {
      "midi": 62,
      "time": 124.829,
      "duration": 0.103,
      "velocity": 1,
      "hand": "right"
    },
    {
      "midi": 57,
      "time": 124.932,
      "duration": 0.103,
      "velocity": 1,
      "hand": "left"
    },
    {
      "midi": 62,
      "time": 125.034,
      "duration": 0.103,
      "velocity": 1,
      "hand": "right"
    },
    {
      "midi": 54,
      "time": 125.137,
      "duration": 0.103,
      "velocity": 1,
      "hand": "left"
    },
    {
      "midi": 62,
      "time": 125.24,
      "duration": 0.103,
      "velocity": 1,
      "hand": "right"
    },
    {
      "midi": 57,
      "time": 125.342,
      "duration": 0.103,
      "velocity": 1,
      "hand": "left"
    },
    {
      "midi": 62,
      "time": 125.445,
      "duration": 0.103,
      "velocity": 1,
      "hand": "right"
    },
    {
      "midi": 53,
      "time": 125.548,
      "duration": 0.103,
      "velocity": 1,
      "hand": "left"
    },
    {
      "midi": 83,
      "time": 125.548,
      "duration": 0.616,
      "velocity": 1,
      "hand": "right"
    },
    {
      "midi": 62,
      "time": 125.651,
      "duration": 0.103,
      "velocity": 1,
      "hand": "right"
    },
    {
      "midi": 56,
      "time": 125.753,
      "duration": 0.103,
      "velocity": 1,
      "hand": "left"
    },
    {
      "midi": 62,
      "time": 125.856,
      "duration": 0.103,
      "velocity": 1,
      "hand": "right"
    },
    {
      "midi": 53,
      "time": 125.959,
      "duration": 0.103,
      "velocity": 1,
      "hand": "left"
    },
    {
      "midi": 62,
      "time": 126.062,
      "duration": 0.103,
      "velocity": 1,
      "hand": "right"
    },
    {
      "midi": 56,
      "time": 126.164,
      "duration": 0.103,
      "velocity": 1,
      "hand": "left"
    },
    {
      "midi": 84,
      "time": 126.164,
      "duration": 0.103,
      "velocity": 1,
      "hand": "right"
    },
    {
      "midi": 62,
      "time": 126.267,
      "duration": 0.103,
      "velocity": 1,
      "hand": "right"
    },
    {
      "midi": 83,
      "time": 126.267,
      "duration": 0.103,
      "velocity": 1,
      "hand": "right"
    },
    {
      "midi": 52,
      "time": 126.37,
      "duration": 0.103,
      "velocity": 1,
      "hand": "left"
    },
    {
      "midi": 84,
      "time": 126.37,
      "duration": 0.411,
      "velocity": 1,
      "hand": "right"
    },
    {
      "midi": 60,
      "time": 126.473,
      "duration": 0.103,
      "velocity": 1,
      "hand": "right"
    },
    {
      "midi": 55,
      "time": 126.575,
      "duration": 0.103,
      "velocity": 1,
      "hand": "left"
    },
    {
      "midi": 60,
      "time": 126.678,
      "duration": 0.103,
      "velocity": 1,
      "hand": "right"
    },
    {
      "midi": 52,
      "time": 126.781,
      "duration": 0.103,
      "velocity": 1,
      "hand": "left"
    },
    {
      "midi": 60,
      "time": 126.884,
      "duration": 0.103,
      "velocity": 1,
      "hand": "right"
    },
    {
      "midi": 55,
      "time": 126.986,
      "duration": 0.103,
      "velocity": 1,
      "hand": "left"
    },
    {
      "midi": 60,
      "time": 127.089,
      "duration": 0.103,
      "velocity": 1,
      "hand": "right"
    },
    {
      "midi": 50,
      "time": 127.192,
      "duration": 0.103,
      "velocity": 1,
      "hand": "left"
    },
    {
      "midi": 80,
      "time": 127.192,
      "duration": 0.616,
      "velocity": 1,
      "hand": "right"
    },
    {
      "midi": 59,
      "time": 127.295,
      "duration": 0.103,
      "velocity": 1,
      "hand": "left"
    },
    {
      "midi": 53,
      "time": 127.397,
      "duration": 0.103,
      "velocity": 1,
      "hand": "left"
    },
    {
      "midi": 59,
      "time": 127.5,
      "duration": 0.103,
      "velocity": 1,
      "hand": "left"
    },
    {
      "midi": 50,
      "time": 127.603,
      "duration": 0.103,
      "velocity": 1,
      "hand": "left"
    },
    {
      "midi": 59,
      "time": 127.705,
      "duration": 0.103,
      "velocity": 1,
      "hand": "left"
    },
    {
      "midi": 53,
      "time": 127.808,
      "duration": 0.103,
      "velocity": 1,
      "hand": "left"
    },
    {
      "midi": 81,
      "time": 127.808,
      "duration": 0.103,
      "velocity": 1,
      "hand": "right"
    },
    {
      "midi": 59,
      "time": 127.911,
      "duration": 0.103,
      "velocity": 1,
      "hand": "left"
    },
    {
      "midi": 80,
      "time": 127.911,
      "duration": 0.103,
      "velocity": 1,
      "hand": "right"
    },
    {
      "midi": 48,
      "time": 128.014,
      "duration": 0.103,
      "velocity": 1,
      "hand": "left"
    },
    {
      "midi": 81,
      "time": 128.014,
      "duration": 0.411,
      "velocity": 1,
      "hand": "right"
    },
    {
      "midi": 57,
      "time": 128.116,
      "duration": 0.103,
      "velocity": 1,
      "hand": "left"
    },
    {
      "midi": 52,
      "time": 128.219,
      "duration": 0.103,
      "velocity": 1,
      "hand": "left"
    },
    {
      "midi": 57,
      "time": 128.322,
      "duration": 0.103,
      "velocity": 1,
      "hand": "left"
    },
    {
      "midi": 48,
      "time": 128.425,
      "duration": 0.103,
      "velocity": 1,
      "hand": "left"
    },
    {
      "midi": 57,
      "time": 128.527,
      "duration": 0.103,
      "velocity": 1,
      "hand": "left"
    },
    {
      "midi": 52,
      "time": 128.63,
      "duration": 0.103,
      "velocity": 1,
      "hand": "left"
    },
    {
      "midi": 57,
      "time": 128.733,
      "duration": 0.103,
      "velocity": 1,
      "hand": "left"
    },
    {
      "midi": 39,
      "time": 128.836,
      "duration": 0.411,
      "velocity": 1,
      "hand": "left"
    },
    {
      "midi": 51,
      "time": 128.836,
      "duration": 0.411,
      "velocity": 1,
      "hand": "left"
    },
    {
      "midi": 81,
      "time": 129.041,
      "duration": 0.205,
      "velocity": 1,
      "hand": "right"
    },
    {
      "midi": 84,
      "time": 129.247,
      "duration": 0.205,
      "velocity": 1,
      "hand": "right"
    },
    {
      "midi": 78,
      "time": 129.452,
      "duration": 0.205,
      "velocity": 1,
      "hand": "right"
    },
    {
      "midi": 81,
      "time": 129.658,
      "duration": 0.205,
      "velocity": 1,
      "hand": "right"
    },
    {
      "midi": 75,
      "time": 129.863,
      "duration": 0.205,
      "velocity": 1,
      "hand": "right"
    },
    {
      "midi": 78,
      "time": 130.068,
      "duration": 0.205,
      "velocity": 1,
      "hand": "right"
    },
    {
      "midi": 72,
      "time": 130.274,
      "duration": 0.205,
      "velocity": 1,
      "hand": "right"
    },
    {
      "midi": 75,
      "time": 130.479,
      "duration": 0.205,
      "velocity": 1,
      "hand": "right"
    },
    {
      "midi": 57,
      "time": 130.685,
      "duration": 0.205,
      "velocity": 1,
      "hand": "left"
    },
    {
      "midi": 69,
      "time": 130.685,
      "duration": 0.205,
      "velocity": 1,
      "hand": "right"
    },
    {
      "midi": 60,
      "time": 130.89,
      "duration": 0.205,
      "velocity": 1,
      "hand": "right"
    },
    {
      "midi": 72,
      "time": 130.89,
      "duration": 0.205,
      "velocity": 1,
      "hand": "right"
    },
    {
      "midi": 54,
      "time": 131.096,
      "duration": 0.205,
      "velocity": 1,
      "hand": "left"
    },
    {
      "midi": 66,
      "time": 131.096,
      "duration": 0.205,
      "velocity": 1,
      "hand": "right"
    },
    {
      "midi": 57,
      "time": 131.301,
      "duration": 0.205,
      "velocity": 1,
      "hand": "left"
    },
    {
      "midi": 69,
      "time": 131.301,
      "duration": 0.205,
      "velocity": 1,
      "hand": "right"
    },
    {
      "midi": 51,
      "time": 131.507,
      "duration": 0.205,
      "velocity": 1,
      "hand": "left"
    },
    {
      "midi": 63,
      "time": 131.507,
      "duration": 0.205,
      "velocity": 1,
      "hand": "right"
    },
    {
      "midi": 54,
      "time": 131.712,
      "duration": 0.205,
      "velocity": 1,
      "hand": "left"
    },
    {
      "midi": 66,
      "time": 131.712,
      "duration": 0.205,
      "velocity": 1,
      "hand": "right"
    },
    {
      "midi": 45,
      "time": 131.918,
      "duration": 0.205,
      "velocity": 1,
      "hand": "left"
    },
    {
      "midi": 57,
      "time": 131.918,
      "duration": 0.205,
      "velocity": 1,
      "hand": "left"
    },
    {
      "midi": 48,
      "time": 132.123,
      "duration": 0.205,
      "velocity": 1,
      "hand": "left"
    },
    {
      "midi": 60,
      "time": 132.123,
      "duration": 0.205,
      "velocity": 1,
      "hand": "right"
    },
    {
      "midi": 42,
      "time": 132.329,
      "duration": 0.205,
      "velocity": 1,
      "hand": "left"
    },
    {
      "midi": 54,
      "time": 132.329,
      "duration": 0.205,
      "velocity": 1,
      "hand": "left"
    },
    {
      "midi": 45,
      "time": 132.534,
      "duration": 0.205,
      "velocity": 1,
      "hand": "left"
    },
    {
      "midi": 57,
      "time": 132.534,
      "duration": 0.205,
      "velocity": 1,
      "hand": "left"
    },
    {
      "midi": 39,
      "time": 132.74,
      "duration": 0.205,
      "velocity": 1,
      "hand": "left"
    },
    {
      "midi": 51,
      "time": 132.74,
      "duration": 0.205,
      "velocity": 1,
      "hand": "left"
    },
    {
      "midi": 40,
      "time": 132.945,
      "duration": 0.411,
      "velocity": 1,
      "hand": "left"
    },
    {
      "midi": 52,
      "time": 132.945,
      "duration": 0.411,
      "velocity": 1,
      "hand": "left"
    },
    {
      "midi": 40,
      "time": 133.356,
      "duration": 0.411,
      "velocity": 1,
      "hand": "left"
    },
    {
      "midi": 52,
      "time": 133.356,
      "duration": 0.411,
      "velocity": 1,
      "hand": "left"
    },
    {
      "midi": 71,
      "time": 133.356,
      "duration": 0.411,
      "velocity": 1,
      "hand": "right"
    },
    {
      "midi": 74,
      "time": 133.356,
      "duration": 0.411,
      "velocity": 1,
      "hand": "right"
    },
    {
      "midi": 76,
      "time": 133.356,
      "duration": 0.411,
      "velocity": 1,
      "hand": "right"
    },
    {
      "midi": 80,
      "time": 133.356,
      "duration": 0.411,
      "velocity": 1,
      "hand": "right"
    },
    {
      "midi": 45,
      "time": 133.767,
      "duration": 0.411,
      "velocity": 1,
      "hand": "left"
    },
    {
      "midi": 57,
      "time": 133.767,
      "duration": 0.411,
      "velocity": 1,
      "hand": "left"
    },
    {
      "midi": 72,
      "time": 133.767,
      "duration": 0.411,
      "velocity": 1,
      "hand": "right"
    },
    {
      "midi": 76,
      "time": 133.767,
      "duration": 0.411,
      "velocity": 1,
      "hand": "right"
    },
    {
      "midi": 81,
      "time": 133.767,
      "duration": 0.411,
      "velocity": 1,
      "hand": "right"
    },
    {
      "midi": 69,
      "time": 134.178,
      "duration": 0.411,
      "velocity": 1,
      "hand": "right"
    },
    {
      "midi": 72,
      "time": 134.384,
      "duration": 0.205,
      "velocity": 1,
      "hand": "right"
    },
    {
      "midi": 71,
      "time": 134.589,
      "duration": 0.411,
      "velocity": 1,
      "hand": "right"
    },
    {
      "midi": 76,
      "time": 134.589,
      "duration": 0.205,
      "velocity": 1,
      "hand": "right"
    },
    {
      "midi": 74,
      "time": 134.795,
      "duration": 0.205,
      "velocity": 1,
      "hand": "right"
    },
    {
      "midi": 68,
      "time": 135,
      "duration": 0.411,
      "velocity": 1,
      "hand": "right"
    },
    {
      "midi": 71,
      "time": 135.205,
      "duration": 0.205,
      "velocity": 1,
      "hand": "right"
    },
    {
      "midi": 69,
      "time": 135.411,
      "duration": 0.411,
      "velocity": 1,
      "hand": "right"
    },
    {
      "midi": 74,
      "time": 135.411,
      "duration": 0.205,
      "velocity": 1,
      "hand": "right"
    },
    {
      "midi": 72,
      "time": 135.616,
      "duration": 0.205,
      "velocity": 1,
      "hand": "right"
    },
    {
      "midi": 65,
      "time": 135.822,
      "duration": 0.411,
      "velocity": 1,
      "hand": "right"
    },
    {
      "midi": 69,
      "time": 136.027,
      "duration": 0.205,
      "velocity": 1,
      "hand": "right"
    },
    {
      "midi": 62,
      "time": 136.233,
      "duration": 0.411,
      "velocity": 1,
      "hand": "right"
    },
    {
      "midi": 72,
      "time": 136.233,
      "duration": 0.205,
      "velocity": 1,
      "hand": "right"
    },
    {
      "midi": 71,
      "time": 136.438,
      "duration": 0.205,
      "velocity": 1,
      "hand": "right"
    },
    {
      "midi": 64,
      "time": 136.644,
      "duration": 0.411,
      "velocity": 1,
      "hand": "right"
    },
    {
      "midi": 68,
      "time": 136.849,
      "duration": 0.205,
      "velocity": 1,
      "hand": "right"
    },
    {
      "midi": 60,
      "time": 137.055,
      "duration": 0.411,
      "velocity": 1,
      "hand": "right"
    },
    {
      "midi": 71,
      "time": 137.055,
      "duration": 0.205,
      "velocity": 1,
      "hand": "right"
    },
    {
      "midi": 69,
      "time": 137.26,
      "duration": 0.205,
      "velocity": 1,
      "hand": "right"
    },
    {
      "midi": 45,
      "time": 137.466,
      "duration": 0.411,
      "velocity": 1,
      "hand": "left"
    },
    {
      "midi": 57,
      "time": 137.466,
      "duration": 0.411,
      "velocity": 1,
      "hand": "left"
    },
    {
      "midi": 72,
      "time": 137.466,
      "duration": 0.103,
      "velocity": 1,
      "hand": "right"
    },
    {
      "midi": 74,
      "time": 137.568,
      "duration": 0.103,
      "velocity": 1,
      "hand": "right"
    },
    {
      "midi": 76,
      "time": 137.671,
      "duration": 0.103,
      "velocity": 1,
      "hand": "right"
    },
    {
      "midi": 72,
      "time": 137.774,
      "duration": 0.103,
      "velocity": 1,
      "hand": "right"
    },
    {
      "midi": 47,
      "time": 137.877,
      "duration": 0.411,
      "velocity": 1,
      "hand": "left"
    },
    {
      "midi": 59,
      "time": 137.877,
      "duration": 0.411,
      "velocity": 1,
      "hand": "left"
    },
    {
      "midi": 74,
      "time": 137.877,
      "duration": 0.103,
      "velocity": 1,
      "hand": "right"
    },
    {
      "midi": 76,
      "time": 137.979,
      "duration": 0.103,
      "velocity": 1,
      "hand": "right"
    },
    {
      "midi": 77,
      "time": 138.082,
      "duration": 0.103,
      "velocity": 1,
      "hand": "right"
    },
    {
      "midi": 74,
      "time": 138.185,
      "duration": 0.103,
      "velocity": 1,
      "hand": "right"
    },
    {
      "midi": 44,
      "time": 138.288,
      "duration": 0.411,
      "velocity": 1,
      "hand": "left"
    },
    {
      "midi": 56,
      "time": 138.288,
      "duration": 0.411,
      "velocity": 1,
      "hand": "left"
    },
    {
      "midi": 71,
      "time": 138.288,
      "duration": 0.103,
      "velocity": 1,
      "hand": "right"
    },
    {
      "midi": 72,
      "time": 138.39,
      "duration": 0.103,
      "velocity": 1,
      "hand": "right"
    },
    {
      "midi": 74,
      "time": 138.493,
      "duration": 0.103,
      "velocity": 1,
      "hand": "right"
    },
    {
      "midi": 71,
      "time": 138.596,
      "duration": 0.103,
      "velocity": 1,
      "hand": "right"
    },
    {
      "midi": 45,
      "time": 138.699,
      "duration": 0.411,
      "velocity": 1,
      "hand": "left"
    },
    {
      "midi": 57,
      "time": 138.699,
      "duration": 0.411,
      "velocity": 1,
      "hand": "left"
    },
    {
      "midi": 72,
      "time": 138.699,
      "duration": 0.103,
      "velocity": 1,
      "hand": "right"
    },
    {
      "midi": 74,
      "time": 138.801,
      "duration": 0.103,
      "velocity": 1,
      "hand": "right"
    },
    {
      "midi": 76,
      "time": 138.904,
      "duration": 0.103,
      "velocity": 1,
      "hand": "right"
    },
    {
      "midi": 72,
      "time": 139.007,
      "duration": 0.103,
      "velocity": 1,
      "hand": "right"
    },
    {
      "midi": 41,
      "time": 139.11,
      "duration": 0.411,
      "velocity": 1,
      "hand": "left"
    },
    {
      "midi": 53,
      "time": 139.11,
      "duration": 0.411,
      "velocity": 1,
      "hand": "left"
    },
    {
      "midi": 69,
      "time": 139.11,
      "duration": 0.103,
      "velocity": 1,
      "hand": "right"
    },
    {
      "midi": 71,
      "time": 139.212,
      "duration": 0.103,
      "velocity": 1,
      "hand": "right"
    },
    {
      "midi": 72,
      "time": 139.315,
      "duration": 0.103,
      "velocity": 1,
      "hand": "right"
    },
    {
      "midi": 69,
      "time": 139.418,
      "duration": 0.103,
      "velocity": 1,
      "hand": "right"
    },
    {
      "midi": 38,
      "time": 139.521,
      "duration": 0.411,
      "velocity": 1,
      "hand": "left"
    },
    {
      "midi": 50,
      "time": 139.521,
      "duration": 0.411,
      "velocity": 1,
      "hand": "left"
    },
    {
      "midi": 71,
      "time": 139.521,
      "duration": 0.103,
      "velocity": 1,
      "hand": "right"
    },
    {
      "midi": 72,
      "time": 139.623,
      "duration": 0.103,
      "velocity": 1,
      "hand": "right"
    },
    {
      "midi": 74,
      "time": 139.726,
      "duration": 0.103,
      "velocity": 1,
      "hand": "right"
    },
    {
      "midi": 71,
      "time": 139.829,
      "duration": 0.103,
      "velocity": 1,
      "hand": "right"
    },
    {
      "midi": 40,
      "time": 139.932,
      "duration": 0.411,
      "velocity": 1,
      "hand": "left"
    },
    {
      "midi": 52,
      "time": 139.932,
      "duration": 0.411,
      "velocity": 1,
      "hand": "left"
    },
    {
      "midi": 68,
      "time": 139.932,
      "duration": 0.103,
      "velocity": 1,
      "hand": "right"
    },
    {
      "midi": 69,
      "time": 140.034,
      "duration": 0.103,
      "velocity": 1,
      "hand": "right"
    },
    {
      "midi": 71,
      "time": 140.137,
      "duration": 0.103,
      "velocity": 1,
      "hand": "right"
    },
    {
      "midi": 68,
      "time": 140.24,
      "duration": 0.103,
      "velocity": 1,
      "hand": "right"
    },
    {
      "midi": 57,
      "time": 140.342,
      "duration": 0.051,
      "velocity": 1,
      "hand": "left"
    },
    {
      "midi": 60,
      "time": 140.342,
      "duration": 0.051,
      "velocity": 1,
      "hand": "right"
    },
    {
      "midi": 33,
      "time": 140.445,
      "duration": 0.822,
      "velocity": 1,
      "hand": "left"
    },
    {
      "midi": 45,
      "time": 140.445,
      "duration": 0.822,
      "velocity": 1,
      "hand": "left"
    },
    {
      "midi": 64,
      "time": 140.445,
      "duration": 0.051,
      "velocity": 1,
      "hand": "right"
    },
    {
      "midi": 69,
      "time": 140.445,
      "duration": 0.822,
      "velocity": 1,
      "hand": "right"
    },
    {
      "midi": 40,
      "time": 141.267,
      "duration": 0.822,
      "velocity": 1,
      "hand": "left"
    },
    {
      "midi": 64,
      "time": 141.267,
      "duration": 0.822,
      "velocity": 1,
      "hand": "right"
    },
    {
      "midi": 48,
      "time": 142.089,
      "duration": 0.616,
      "velocity": 1,
      "hand": "left"
    },
    {
      "midi": 72,
      "time": 142.089,
      "duration": 0.616,
      "velocity": 1,
      "hand": "right"
    },
    {
      "midi": 50,
      "time": 142.705,
      "duration": 0.103,
      "velocity": 1,
      "hand": "left"
    },
    {
      "midi": 74,
      "time": 142.705,
      "duration": 0.103,
      "velocity": 1,
      "hand": "right"
    },
    {
      "midi": 47,
      "time": 142.808,
      "duration": 0.103,
      "velocity": 1,
      "hand": "left"
    },
    {
      "midi": 71,
      "time": 142.808,
      "duration": 0.103,
      "velocity": 1,
      "hand": "right"
    },
    {
      "midi": 45,
      "time": 142.911,
      "duration": 0.411,
      "velocity": 1,
      "hand": "left"
    },
    {
      "midi": 69,
      "time": 142.911,
      "duration": 0.411,
      "velocity": 1,
      "hand": "right"
    },
    {
      "midi": 72,
      "time": 143.733,
      "duration": 0.616,
      "velocity": 1,
      "hand": "right"
    },
    {
      "midi": 76,
      "time": 143.733,
      "duration": 0.616,
      "velocity": 1,
      "hand": "right"
    },
    {
      "midi": 74,
      "time": 144.349,
      "duration": 0.103,
      "velocity": 1,
      "hand": "right"
    },
    {
      "midi": 77,
      "time": 144.349,
      "duration": 0.103,
      "velocity": 1,
      "hand": "right"
    },
    {
      "midi": 71,
      "time": 144.452,
      "duration": 0.103,
      "velocity": 1,
      "hand": "right"
    },
    {
      "midi": 74,
      "time": 144.452,
      "duration": 0.103,
      "velocity": 1,
      "hand": "right"
    },
    {
      "midi": 69,
      "time": 144.555,
      "duration": 0.411,
      "velocity": 1,
      "hand": "right"
    },
    {
      "midi": 72,
      "time": 144.555,
      "duration": 0.411,
      "velocity": 1,
      "hand": "right"
    },
    {
      "midi": 76,
      "time": 145.377,
      "duration": 0.616,
      "velocity": 1,
      "hand": "right"
    },
    {
      "midi": 84,
      "time": 145.377,
      "duration": 0.616,
      "velocity": 1,
      "hand": "right"
    },
    {
      "midi": 77,
      "time": 145.993,
      "duration": 0.103,
      "velocity": 1,
      "hand": "right"
    },
    {
      "midi": 86,
      "time": 145.993,
      "duration": 0.103,
      "velocity": 1,
      "hand": "right"
    },
    {
      "midi": 74,
      "time": 146.096,
      "duration": 0.103,
      "velocity": 1,
      "hand": "right"
    },
    {
      "midi": 83,
      "time": 146.096,
      "duration": 0.103,
      "velocity": 1,
      "hand": "right"
    },
    {
      "midi": 72,
      "time": 146.199,
      "duration": 0.411,
      "velocity": 1,
      "hand": "right"
    },
    {
      "midi": 81,
      "time": 146.199,
      "duration": 0.411,
      "velocity": 1,
      "hand": "right"
    },
    {
      "midi": 59,
      "time": 147.021,
      "duration": 0.051,
      "velocity": 1,
      "hand": "left"
    },
    {
      "midi": 62,
      "time": 147.123,
      "duration": 0.051,
      "velocity": 1,
      "hand": "right"
    },
    {
      "midi": 67,
      "time": 147.123,
      "duration": 0.051,
      "velocity": 1,
      "hand": "right"
    },
    {
      "midi": 35,
      "time": 147.226,
      "duration": 0.822,
      "velocity": 1,
      "hand": "left"
    },
    {
      "midi": 47,
      "time": 147.226,
      "duration": 0.822,
      "velocity": 1,
      "hand": "left"
    },
    {
      "midi": 71,
      "time": 147.226,
      "duration": 0.822,
      "velocity": 1,
      "hand": "right"
    },
    {
      "midi": 31,
      "time": 148.048,
      "duration": 0.822,
      "velocity": 1,
      "hand": "left"
    },
    {
      "midi": 43,
      "time": 148.048,
      "duration": 0.822,
      "velocity": 1,
      "hand": "left"
    },
    {
      "midi": 67,
      "time": 148.048,
      "duration": 0.822,
      "velocity": 1,
      "hand": "right"
    },
    {
      "midi": 50,
      "time": 148.87,
      "duration": 0.616,
      "velocity": 1,
      "hand": "left"
    },
    {
      "midi": 74,
      "time": 148.87,
      "duration": 0.616,
      "velocity": 1,
      "hand": "right"
    },
    {
      "midi": 52,
      "time": 149.486,
      "duration": 0.103,
      "velocity": 1,
      "hand": "left"
    },
    {
      "midi": 76,
      "time": 149.486,
      "duration": 0.103,
      "velocity": 1,
      "hand": "right"
    },
    {
      "midi": 48,
      "time": 149.589,
      "duration": 0.103,
      "velocity": 1,
      "hand": "left"
    },
    {
      "midi": 72,
      "time": 149.589,
      "duration": 0.103,
      "velocity": 1,
      "hand": "right"
    },
    {
      "midi": 47,
      "time": 149.692,
      "duration": 0.411,
      "velocity": 1,
      "hand": "left"
    },
    {
      "midi": 71,
      "time": 149.692,
      "duration": 0.411,
      "velocity": 1,
      "hand": "right"
    },
    {
      "midi": 74,
      "time": 150.514,
      "duration": 0.616,
      "velocity": 1,
      "hand": "right"
    },
    {
      "midi": 77,
      "time": 150.514,
      "duration": 0.616,
      "velocity": 1,
      "hand": "right"
    },
    {
      "midi": 76,
      "time": 151.13,
      "duration": 0.103,
      "velocity": 1,
      "hand": "right"
    },
    {
      "midi": 79,
      "time": 151.13,
      "duration": 0.103,
      "velocity": 1,
      "hand": "right"
    },
    {
      "midi": 72,
      "time": 151.233,
      "duration": 0.103,
      "velocity": 1,
      "hand": "right"
    },
    {
      "midi": 76,
      "time": 151.233,
      "duration": 0.103,
      "velocity": 1,
      "hand": "right"
    },
    {
      "midi": 71,
      "time": 151.336,
      "duration": 0.411,
      "velocity": 1,
      "hand": "right"
    },
    {
      "midi": 74,
      "time": 151.336,
      "duration": 0.411,
      "velocity": 1,
      "hand": "right"
    },
    {
      "midi": 77,
      "time": 152.158,
      "duration": 0.616,
      "velocity": 1,
      "hand": "right"
    },
    {
      "midi": 86,
      "time": 152.158,
      "duration": 0.616,
      "velocity": 1,
      "hand": "right"
    },
    {
      "midi": 79,
      "time": 152.774,
      "duration": 0.103,
      "velocity": 1,
      "hand": "right"
    },
    {
      "midi": 88,
      "time": 152.774,
      "duration": 0.103,
      "velocity": 1,
      "hand": "right"
    },
    {
      "midi": 76,
      "time": 152.877,
      "duration": 0.103,
      "velocity": 1,
      "hand": "right"
    },
    {
      "midi": 84,
      "time": 152.877,
      "duration": 0.103,
      "velocity": 1,
      "hand": "right"
    },
    {
      "midi": 74,
      "time": 152.979,
      "duration": 0.411,
      "velocity": 1,
      "hand": "right"
    },
    {
      "midi": 83,
      "time": 152.979,
      "duration": 0.411,
      "velocity": 1,
      "hand": "right"
    },
    {
      "midi": 60,
      "time": 153.801,
      "duration": 0.051,
      "velocity": 1,
      "hand": "right"
    },
    {
      "midi": 64,
      "time": 153.801,
      "duration": 0.051,
      "velocity": 1,
      "hand": "right"
    },
    {
      "midi": 36,
      "time": 153.904,
      "duration": 0.822,
      "velocity": 1,
      "hand": "left"
    },
    {
      "midi": 48,
      "time": 153.904,
      "duration": 0.822,
      "velocity": 1,
      "hand": "left"
    },
    {
      "midi": 67,
      "time": 153.904,
      "duration": 0.051,
      "velocity": 1,
      "hand": "right"
    },
    {
      "midi": 72,
      "time": 153.904,
      "duration": 0.822,
      "velocity": 1,
      "hand": "right"
    },
    {
      "midi": 31,
      "time": 154.726,
      "duration": 0.822,
      "velocity": 1,
      "hand": "left"
    },
    {
      "midi": 43,
      "time": 154.726,
      "duration": 0.822,
      "velocity": 1,
      "hand": "left"
    },
    {
      "midi": 67,
      "time": 154.726,
      "duration": 0.822,
      "velocity": 1,
      "hand": "right"
    },
    {
      "midi": 52,
      "time": 155.548,
      "duration": 0.616,
      "velocity": 1,
      "hand": "left"
    },
    {
      "midi": 76,
      "time": 155.548,
      "duration": 0.616,
      "velocity": 1,
      "hand": "right"
    },
    {
      "midi": 53,
      "time": 156.164,
      "duration": 0.103,
      "velocity": 1,
      "hand": "left"
    },
    {
      "midi": 77,
      "time": 156.164,
      "duration": 0.103,
      "velocity": 1,
      "hand": "right"
    },
    {
      "midi": 50,
      "time": 156.267,
      "duration": 0.103,
      "velocity": 1,
      "hand": "left"
    },
    {
      "midi": 74,
      "time": 156.267,
      "duration": 0.103,
      "velocity": 1,
      "hand": "right"
    },
    {
      "midi": 48,
      "time": 156.37,
      "duration": 0.411,
      "velocity": 1,
      "hand": "left"
    },
    {
      "midi": 72,
      "time": 156.37,
      "duration": 0.411,
      "velocity": 1,
      "hand": "right"
    },
    {
      "midi": 64,
      "time": 157.192,
      "duration": 0.205,
      "velocity": 1,
      "hand": "right"
    },
    {
      "midi": 79,
      "time": 157.192,
      "duration": 0.411,
      "velocity": 1,
      "hand": "right"
    },
    {
      "midi": 67,
      "time": 157.397,
      "duration": 0.205,
      "velocity": 1,
      "hand": "right"
    },
    {
      "midi": 64,
      "time": 157.603,
      "duration": 0.205,
      "velocity": 1,
      "hand": "right"
    },
    {
      "midi": 79,
      "time": 157.603,
      "duration": 0.411,
      "velocity": 1,
      "hand": "right"
    },
    {
      "midi": 67,
      "time": 157.808,
      "duration": 0.205,
      "velocity": 1,
      "hand": "right"
    },
    {
      "midi": 61,
      "time": 158.014,
      "duration": 0.205,
      "velocity": 1,
      "hand": "right"
    },
    {
      "midi": 67,
      "time": 158.219,
      "duration": 0.205,
      "velocity": 1,
      "hand": "right"
    },
    {
      "midi": 61,
      "time": 158.425,
      "duration": 0.205,
      "velocity": 1,
      "hand": "right"
    },
    {
      "midi": 81,
      "time": 158.425,
      "duration": 0.411,
      "velocity": 1,
      "hand": "right"
    },
    {
      "midi": 67,
      "time": 158.63,
      "duration": 0.205,
      "velocity": 1,
      "hand": "right"
    },
    {
      "midi": 62,
      "time": 158.836,
      "duration": 0.205,
      "velocity": 1,
      "hand": "right"
    },
    {
      "midi": 79,
      "time": 158.836,
      "duration": 0.103,
      "velocity": 1,
      "hand": "right"
    },
    {
      "midi": 77,
      "time": 158.938,
      "duration": 0.308,
      "velocity": 1,
      "hand": "right"
    },
    {
      "midi": 67,
      "time": 159.041,
      "duration": 0.205,
      "velocity": 1,
      "hand": "right"
    },
    {
      "midi": 62,
      "time": 159.247,
      "duration": 0.205,
      "velocity": 1,
      "hand": "right"
    },
    {
      "midi": 77,
      "time": 159.247,
      "duration": 0.411,
      "velocity": 1,
      "hand": "right"
    },
    {
      "midi": 67,
      "time": 159.452,
      "duration": 0.205,
      "velocity": 1,
      "hand": "right"
    },
    {
      "midi": 59,
      "time": 159.658,
      "duration": 0.205,
      "velocity": 1,
      "hand": "left"
    },
    {
      "midi": 67,
      "time": 159.863,
      "duration": 0.205,
      "velocity": 1,
      "hand": "right"
    },
    {
      "midi": 59,
      "time": 160.068,
      "duration": 0.205,
      "velocity": 1,
      "hand": "left"
    },
    {
      "midi": 79,
      "time": 160.068,
      "duration": 0.411,
      "velocity": 1,
      "hand": "right"
    },
    {
      "midi": 67,
      "time": 160.274,
      "duration": 0.205,
      "velocity": 1,
      "hand": "right"
    },
    {
      "midi": 60,
      "time": 160.479,
      "duration": 0.205,
      "velocity": 1,
      "hand": "right"
    },
    {
      "midi": 77,
      "time": 160.479,
      "duration": 0.103,
      "velocity": 1,
      "hand": "right"
    },
    {
      "midi": 76,
      "time": 160.582,
      "duration": 0.308,
      "velocity": 1,
      "hand": "right"
    },
    {
      "midi": 67,
      "time": 160.685,
      "duration": 0.205,
      "velocity": 1,
      "hand": "right"
    },
    {
      "midi": 60,
      "time": 160.89,
      "duration": 0.205,
      "velocity": 1,
      "hand": "right"
    },
    {
      "midi": 76,
      "time": 160.89,
      "duration": 0.411,
      "velocity": 1,
      "hand": "right"
    },
    {
      "midi": 67,
      "time": 161.096,
      "duration": 0.205,
      "velocity": 1,
      "hand": "right"
    },
    {
      "midi": 64,
      "time": 161.301,
      "duration": 0.205,
      "velocity": 1,
      "hand": "right"
    },
    {
      "midi": 67,
      "time": 161.507,
      "duration": 0.205,
      "velocity": 1,
      "hand": "right"
    },
    {
      "midi": 64,
      "time": 161.712,
      "duration": 0.205,
      "velocity": 1,
      "hand": "right"
    },
    {
      "midi": 79,
      "time": 161.712,
      "duration": 0.205,
      "velocity": 1,
      "hand": "right"
    },
    {
      "midi": 67,
      "time": 161.918,
      "duration": 0.205,
      "velocity": 1,
      "hand": "right"
    },
    {
      "midi": 76,
      "time": 161.918,
      "duration": 0.205,
      "velocity": 1,
      "hand": "right"
    },
    {
      "midi": 65,
      "time": 162.123,
      "duration": 1.644,
      "velocity": 1,
      "hand": "right"
    },
    {
      "midi": 69,
      "time": 162.123,
      "duration": 1.644,
      "velocity": 1,
      "hand": "right"
    },
    {
      "midi": 73,
      "time": 162.123,
      "duration": 0.205,
      "velocity": 1,
      "hand": "right"
    },
    {
      "midi": 74,
      "time": 162.329,
      "duration": 0.205,
      "velocity": 1,
      "hand": "right"
    },
    {
      "midi": 77,
      "time": 162.534,
      "duration": 0.205,
      "velocity": 1,
      "hand": "right"
    },
    {
      "midi": 76,
      "time": 162.74,
      "duration": 0.205,
      "velocity": 1,
      "hand": "right"
    },
    {
      "midi": 73,
      "time": 162.945,
      "duration": 0.205,
      "velocity": 1,
      "hand": "right"
    },
    {
      "midi": 74,
      "time": 163.151,
      "duration": 0.205,
      "velocity": 1,
      "hand": "right"
    },
    {
      "midi": 77,
      "time": 163.356,
      "duration": 0.205,
      "velocity": 1,
      "hand": "right"
    },
    {
      "midi": 76,
      "time": 163.562,
      "duration": 0.205,
      "velocity": 1,
      "hand": "right"
    },
    {
      "midi": 73,
      "time": 163.767,
      "duration": 0.205,
      "velocity": 1,
      "hand": "right"
    },
    {
      "midi": 74,
      "time": 163.973,
      "duration": 0.205,
      "velocity": 1,
      "hand": "right"
    },
    {
      "midi": 53,
      "time": 164.178,
      "duration": 0.411,
      "velocity": 1,
      "hand": "left"
    },
    {
      "midi": 57,
      "time": 164.178,
      "duration": 0.411,
      "velocity": 1,
      "hand": "left"
    },
    {
      "midi": 62,
      "time": 164.178,
      "duration": 0.411,
      "velocity": 1,
      "hand": "right"
    },
    {
      "midi": 77,
      "time": 164.178,
      "duration": 0.205,
      "velocity": 1,
      "hand": "right"
    },
    {
      "midi": 81,
      "time": 164.384,
      "duration": 0.205,
      "velocity": 1,
      "hand": "right"
    },
    {
      "midi": 55,
      "time": 164.589,
      "duration": 0.411,
      "velocity": 1,
      "hand": "left"
    },
    {
      "midi": 60,
      "time": 164.589,
      "duration": 0.411,
      "velocity": 1,
      "hand": "right"
    },
    {
      "midi": 64,
      "time": 164.589,
      "duration": 0.411,
      "velocity": 1,
      "hand": "right"
    },
    {
      "midi": 79,
      "time": 164.589,
      "duration": 0.205,
      "velocity": 1,
      "hand": "right"
    },
    {
      "midi": 76,
      "time": 164.795,
      "duration": 0.205,
      "velocity": 1,
      "hand": "right"
    },
    {
      "midi": 55,
      "time": 165,
      "duration": 0.411,
      "velocity": 1,
      "hand": "left"
    },
    {
      "midi": 59,
      "time": 165,
      "duration": 0.411,
      "velocity": 1,
      "hand": "left"
    },
    {
      "midi": 62,
      "time": 165,
      "duration": 0.411,
      "velocity": 1,
      "hand": "right"
    },
    {
      "midi": 77,
      "time": 165,
      "duration": 0.205,
      "velocity": 1,
      "hand": "right"
    },
    {
      "midi": 74,
      "time": 165.205,
      "duration": 0.205,
      "velocity": 1,
      "hand": "right"
    },
    {
      "midi": 60,
      "time": 165.411,
      "duration": 0.051,
      "velocity": 1,
      "hand": "right"
    },
    {
      "midi": 63,
      "time": 165.514,
      "duration": 0.051,
      "velocity": 1,
      "hand": "right"
    },
    {
      "midi": 67,
      "time": 165.514,
      "duration": 0.051,
      "velocity": 1,
      "hand": "right"
    },
    {
      "midi": 36,
      "time": 165.616,
      "duration": 0.822,
      "velocity": 1,
      "hand": "left"
    },
    {
      "midi": 48,
      "time": 165.616,
      "duration": 0.822,
      "velocity": 1,
      "hand": "left"
    },
    {
      "midi": 72,
      "time": 165.616,
      "duration": 0.822,
      "velocity": 1,
      "hand": "right"
    },
    {
      "midi": 31,
      "time": 166.438,
      "duration": 0.822,
      "velocity": 1,
      "hand": "left"
    },
    {
      "midi": 43,
      "time": 166.438,
      "duration": 0.822,
      "velocity": 1,
      "hand": "left"
    },
    {
      "midi": 67,
      "time": 166.438,
      "duration": 0.822,
      "velocity": 1,
      "hand": "right"
    },
    {
      "midi": 51,
      "time": 167.26,
      "duration": 0.616,
      "velocity": 1,
      "hand": "left"
    },
    {
      "midi": 75,
      "time": 167.26,
      "duration": 0.616,
      "velocity": 1,
      "hand": "right"
    },
    {
      "midi": 53,
      "time": 167.877,
      "duration": 0.103,
      "velocity": 1,
      "hand": "left"
    },
    {
      "midi": 77,
      "time": 167.877,
      "duration": 0.103,
      "velocity": 1,
      "hand": "right"
    },
    {
      "midi": 50,
      "time": 167.979,
      "duration": 0.103,
      "velocity": 1,
      "hand": "left"
    },
    {
      "midi": 74,
      "time": 167.979,
      "duration": 0.103,
      "velocity": 1,
      "hand": "right"
    },
    {
      "midi": 48,
      "time": 168.082,
      "duration": 0.411,
      "velocity": 1,
      "hand": "left"
    },
    {
      "midi": 72,
      "time": 168.082,
      "duration": 0.411,
      "velocity": 1,
      "hand": "right"
    },
    {
      "midi": 63,
      "time": 168.904,
      "duration": 0.205,
      "velocity": 1,
      "hand": "right"
    },
    {
      "midi": 78,
      "time": 168.904,
      "duration": 0.103,
      "velocity": 1,
      "hand": "right"
    },
    {
      "midi": 79,
      "time": 169.007,
      "duration": 0.308,
      "velocity": 1,
      "hand": "right"
    },
    {
      "midi": 67,
      "time": 169.11,
      "duration": 0.205,
      "velocity": 1,
      "hand": "right"
    },
    {
      "midi": 63,
      "time": 169.315,
      "duration": 0.205,
      "velocity": 1,
      "hand": "right"
    },
    {
      "midi": 79,
      "time": 169.315,
      "duration": 0.411,
      "velocity": 1,
      "hand": "right"
    },
    {
      "midi": 67,
      "time": 169.521,
      "duration": 0.205,
      "velocity": 1,
      "hand": "right"
    },
    {
      "midi": 60,
      "time": 169.726,
      "duration": 0.205,
      "velocity": 1,
      "hand": "right"
    },
    {
      "midi": 67,
      "time": 169.932,
      "duration": 0.205,
      "velocity": 1,
      "hand": "right"
    },
    {
      "midi": 72,
      "time": 169.932,
      "duration": 0.205,
      "velocity": 1,
      "hand": "right"
    },
    {
      "midi": 60,
      "time": 170.137,
      "duration": 0.205,
      "velocity": 1,
      "hand": "right"
    },
    {
      "midi": 84,
      "time": 170.137,
      "duration": 0.205,
      "velocity": 1,
      "hand": "right"
    },
    {
      "midi": 67,
      "time": 170.342,
      "duration": 0.205,
      "velocity": 1,
      "hand": "right"
    },
    {
      "midi": 80,
      "time": 170.342,
      "duration": 0.205,
      "velocity": 1,
      "hand": "right"
    },
    {
      "midi": 62,
      "time": 170.548,
      "duration": 0.205,
      "velocity": 1,
      "hand": "right"
    },
    {
      "midi": 79,
      "time": 170.548,
      "duration": 0.205,
      "velocity": 1,
      "hand": "right"
    },
    {
      "midi": 67,
      "time": 170.753,
      "duration": 0.205,
      "velocity": 1,
      "hand": "right"
    },
    {
      "midi": 78,
      "time": 170.753,
      "duration": 0.205,
      "velocity": 1,
      "hand": "right"
    },
    {
      "midi": 62,
      "time": 170.959,
      "duration": 0.205,
      "velocity": 1,
      "hand": "right"
    },
    {
      "midi": 77,
      "time": 170.959,
      "duration": 0.411,
      "velocity": 1,
      "hand": "right"
    },
    {
      "midi": 67,
      "time": 171.164,
      "duration": 0.205,
      "velocity": 1,
      "hand": "right"
    },
    {
      "midi": 59,
      "time": 171.37,
      "duration": 0.205,
      "velocity": 1,
      "hand": "left"
    },
    {
      "midi": 67,
      "time": 171.575,
      "duration": 0.205,
      "velocity": 1,
      "hand": "right"
    },
    {
      "midi": 77,
      "time": 171.575,
      "duration": 0.205,
      "velocity": 1,
      "hand": "right"
    },
    {
      "midi": 59,
      "time": 171.781,
      "duration": 0.205,
      "velocity": 1,
      "hand": "left"
    },
    {
      "midi": 80,
      "time": 171.781,
      "duration": 0.205,
      "velocity": 1,
      "hand": "right"
    },
    {
      "midi": 67,
      "time": 171.986,
      "duration": 0.205,
      "velocity": 1,
      "hand": "right"
    },
    {
      "midi": 79,
      "time": 171.986,
      "duration": 0.205,
      "velocity": 1,
      "hand": "right"
    },
    {
      "midi": 58,
      "time": 172.192,
      "duration": 0.205,
      "velocity": 1,
      "hand": "left"
    },
    {
      "midi": 61,
      "time": 172.192,
      "duration": 0.205,
      "velocity": 1,
      "hand": "right"
    },
    {
      "midi": 77,
      "time": 172.192,
      "duration": 0.205,
      "velocity": 1,
      "hand": "right"
    },
    {
      "midi": 67,
      "time": 172.397,
      "duration": 0.205,
      "velocity": 1,
      "hand": "right"
    },
    {
      "midi": 76,
      "time": 172.397,
      "duration": 0.205,
      "velocity": 1,
      "hand": "right"
    },
    {
      "midi": 58,
      "time": 172.603,
      "duration": 0.205,
      "velocity": 1,
      "hand": "left"
    },
    {
      "midi": 61,
      "time": 172.603,
      "duration": 0.205,
      "velocity": 1,
      "hand": "right"
    },
    {
      "midi": 85,
      "time": 172.603,
      "duration": 0.822,
      "velocity": 1,
      "hand": "right"
    },
    {
      "midi": 67,
      "time": 172.808,
      "duration": 0.205,
      "velocity": 1,
      "hand": "right"
    },
    {
      "midi": 58,
      "time": 173.014,
      "duration": 0.205,
      "velocity": 1,
      "hand": "left"
    },
    {
      "midi": 61,
      "time": 173.014,
      "duration": 0.205,
      "velocity": 1,
      "hand": "right"
    },
    {
      "midi": 67,
      "time": 173.219,
      "duration": 0.205,
      "velocity": 1,
      "hand": "right"
    },
    {
      "midi": 58,
      "time": 173.425,
      "duration": 0.205,
      "velocity": 1,
      "hand": "left"
    },
    {
      "midi": 61,
      "time": 173.425,
      "duration": 0.205,
      "velocity": 1,
      "hand": "right"
    },
    {
      "midi": 76,
      "time": 173.425,
      "duration": 0.411,
      "velocity": 1,
      "hand": "right"
    },
    {
      "midi": 67,
      "time": 173.63,
      "duration": 0.205,
      "velocity": 1,
      "hand": "right"
    },
    {
      "midi": 56,
      "time": 173.836,
      "duration": 0.205,
      "velocity": 1,
      "hand": "left"
    },
    {
      "midi": 60,
      "time": 173.836,
      "duration": 0.205,
      "velocity": 1,
      "hand": "right"
    },
    {
      "midi": 79,
      "time": 173.836,
      "duration": 0.411,
      "velocity": 1,
      "hand": "right"
    },
    {
      "midi": 64,
      "time": 174.041,
      "duration": 0.205,
      "velocity": 1,
      "hand": "right"
    },
    {
      "midi": 56,
      "time": 174.247,
      "duration": 0.205,
      "velocity": 1,
      "hand": "left"
    },
    {
      "midi": 60,
      "time": 174.247,
      "duration": 0.205,
      "velocity": 1,
      "hand": "right"
    },
    {
      "midi": 77,
      "time": 174.247,
      "duration": 0.411,
      "velocity": 1,
      "hand": "right"
    },
    {
      "midi": 65,
      "time": 174.452,
      "duration": 0.205,
      "velocity": 1,
      "hand": "right"
    },
    {
      "midi": 56,
      "time": 174.658,
      "duration": 0.205,
      "velocity": 1,
      "hand": "left"
    },
    {
      "midi": 60,
      "time": 174.658,
      "duration": 0.205,
      "velocity": 1,
      "hand": "right"
    },
    {
      "midi": 65,
      "time": 174.863,
      "duration": 0.205,
      "velocity": 1,
      "hand": "right"
    },
    {
      "midi": 77,
      "time": 174.863,
      "duration": 0.205,
      "velocity": 1,
      "hand": "right"
    },
    {
      "midi": 56,
      "time": 175.068,
      "duration": 0.205,
      "velocity": 1,
      "hand": "left"
    },
    {
      "midi": 60,
      "time": 175.068,
      "duration": 0.205,
      "velocity": 1,
      "hand": "right"
    },
    {
      "midi": 84,
      "time": 175.068,
      "duration": 0.205,
      "velocity": 1,
      "hand": "right"
    },
    {
      "midi": 65,
      "time": 175.274,
      "duration": 0.205,
      "velocity": 1,
      "hand": "right"
    },
    {
      "midi": 80,
      "time": 175.274,
      "duration": 0.205,
      "velocity": 1,
      "hand": "right"
    },
    {
      "midi": 60,
      "time": 175.479,
      "duration": 0.205,
      "velocity": 1,
      "hand": "right"
    },
    {
      "midi": 63,
      "time": 175.479,
      "duration": 0.205,
      "velocity": 1,
      "hand": "right"
    },
    {
      "midi": 79,
      "time": 175.479,
      "duration": 0.205,
      "velocity": 1,
      "hand": "right"
    },
    {
      "midi": 68,
      "time": 175.685,
      "duration": 0.205,
      "velocity": 1,
      "hand": "right"
    },
    {
      "midi": 78,
      "time": 175.685,
      "duration": 0.205,
      "velocity": 1,
      "hand": "right"
    },
    {
      "midi": 60,
      "time": 175.89,
      "duration": 0.205,
      "velocity": 1,
      "hand": "right"
    },
    {
      "midi": 63,
      "time": 175.89,
      "duration": 0.205,
      "velocity": 1,
      "hand": "right"
    },
    {
      "midi": 87,
      "time": 175.89,
      "duration": 0.822,
      "velocity": 1,
      "hand": "right"
    },
    {
      "midi": 68,
      "time": 176.096,
      "duration": 0.205,
      "velocity": 1,
      "hand": "right"
    },
    {
      "midi": 60,
      "time": 176.301,
      "duration": 0.205,
      "velocity": 1,
      "hand": "right"
    },
    {
      "midi": 63,
      "time": 176.301,
      "duration": 0.205,
      "velocity": 1,
      "hand": "right"
    },
    {
      "midi": 68,
      "time": 176.507,
      "duration": 0.205,
      "velocity": 1,
      "hand": "right"
    },
    {
      "midi": 60,
      "time": 176.712,
      "duration": 0.205,
      "velocity": 1,
      "hand": "right"
    },
    {
      "midi": 63,
      "time": 176.712,
      "duration": 0.205,
      "velocity": 1,
      "hand": "right"
    },
    {
      "midi": 78,
      "time": 176.712,
      "duration": 0.411,
      "velocity": 1,
      "hand": "right"
    },
    {
      "midi": 68,
      "time": 176.918,
      "duration": 0.205,
      "velocity": 1,
      "hand": "right"
    },
    {
      "midi": 59,
      "time": 177.123,
      "duration": 0.411,
      "velocity": 1,
      "hand": "left"
    },
    {
      "midi": 62,
      "time": 177.123,
      "duration": 0.411,
      "velocity": 1,
      "hand": "right"
    },
    {
      "midi": 81,
      "time": 177.123,
      "duration": 0.205,
      "velocity": 1,
      "hand": "right"
    },
    {
      "midi": 79,
      "time": 177.329,
      "duration": 0.205,
      "velocity": 1,
      "hand": "right"
    },
    {
      "midi": 78,
      "time": 177.534,
      "duration": 0.205,
      "velocity": 1,
      "hand": "right"
    },
    {
      "midi": 79,
      "time": 177.74,
      "duration": 0.205,
      "velocity": 1,
      "hand": "right"
    },
    {
      "midi": 78,
      "time": 177.945,
      "duration": 0.205,
      "velocity": 1,
      "hand": "right"
    },
    {
      "midi": 79,
      "time": 178.151,
      "duration": 0.205,
      "velocity": 1,
      "hand": "right"
    },
    {
      "midi": 78,
      "time": 178.356,
      "duration": 0.205,
      "velocity": 1,
      "hand": "right"
    },
    {
      "midi": 79,
      "time": 178.562,
      "duration": 0.205,
      "velocity": 1,
      "hand": "right"
    },
    {
      "midi": 78,
      "time": 178.767,
      "duration": 0.205,
      "velocity": 1,
      "hand": "right"
    },
    {
      "midi": 67,
      "time": 178.973,
      "duration": 0.205,
      "velocity": 1,
      "hand": "right"
    },
    {
      "midi": 79,
      "time": 178.973,
      "duration": 0.205,
      "velocity": 1,
      "hand": "right"
    },
    {
      "midi": 66,
      "time": 179.178,
      "duration": 0.205,
      "velocity": 1,
      "hand": "right"
    },
    {
      "midi": 78,
      "time": 179.178,
      "duration": 0.205,
      "velocity": 1,
      "hand": "right"
    },
    {
      "midi": 67,
      "time": 179.384,
      "duration": 0.205,
      "velocity": 1,
      "hand": "right"
    },
    {
      "midi": 79,
      "time": 179.384,
      "duration": 0.205,
      "velocity": 1,
      "hand": "right"
    },
    {
      "midi": 68,
      "time": 179.589,
      "duration": 0.205,
      "velocity": 1,
      "hand": "right"
    },
    {
      "midi": 80,
      "time": 179.589,
      "duration": 0.205,
      "velocity": 1,
      "hand": "right"
    },
    {
      "midi": 69,
      "time": 179.795,
      "duration": 0.205,
      "velocity": 1,
      "hand": "right"
    },
    {
      "midi": 81,
      "time": 179.795,
      "duration": 0.205,
      "velocity": 1,
      "hand": "right"
    },
    {
      "midi": 70,
      "time": 180,
      "duration": 0.205,
      "velocity": 1,
      "hand": "right"
    },
    {
      "midi": 82,
      "time": 180,
      "duration": 0.205,
      "velocity": 1,
      "hand": "right"
    },
    {
      "midi": 71,
      "time": 180.205,
      "duration": 0.205,
      "velocity": 1,
      "hand": "right"
    },
    {
      "midi": 83,
      "time": 180.205,
      "duration": 0.205,
      "velocity": 1,
      "hand": "right"
    },
    {
      "midi": 57,
      "time": 180.411,
      "duration": 0.205,
      "velocity": 1,
      "hand": "left"
    },
    {
      "midi": 72,
      "time": 180.411,
      "duration": 0.205,
      "velocity": 1,
      "hand": "right"
    },
    {
      "midi": 84,
      "time": 180.411,
      "duration": 0.205,
      "velocity": 1,
      "hand": "right"
    },
    {
      "midi": 60,
      "time": 180.616,
      "duration": 0.205,
      "velocity": 1,
      "hand": "right"
    },
    {
      "midi": 72,
      "time": 180.616,
      "duration": 0.205,
      "velocity": 1,
      "hand": "right"
    },
    {
      "midi": 84,
      "time": 180.616,
      "duration": 0.205,
      "velocity": 1,
      "hand": "right"
    },
    {
      "midi": 57,
      "time": 180.822,
      "duration": 0.205,
      "velocity": 1,
      "hand": "left"
    },
    {
      "midi": 72,
      "time": 180.822,
      "duration": 0.822,
      "velocity": 1,
      "hand": "right"
    },
    {
      "midi": 84,
      "time": 180.822,
      "duration": 0.822,
      "velocity": 1,
      "hand": "right"
    },
    {
      "midi": 60,
      "time": 181.027,
      "duration": 0.205,
      "velocity": 1,
      "hand": "right"
    },
    {
      "midi": 53,
      "time": 181.233,
      "duration": 0.205,
      "velocity": 1,
      "hand": "left"
    },
    {
      "midi": 60,
      "time": 181.438,
      "duration": 0.205,
      "velocity": 1,
      "hand": "right"
    },
    {
      "midi": 53,
      "time": 181.644,
      "duration": 0.205,
      "velocity": 1,
      "hand": "left"
    },
    {
      "midi": 83,
      "time": 181.644,
      "duration": 0.205,
      "velocity": 1,
      "hand": "right"
    },
    {
      "midi": 60,
      "time": 181.849,
      "duration": 0.205,
      "velocity": 1,
      "hand": "right"
    },
    {
      "midi": 81,
      "time": 181.849,
      "duration": 0.205,
      "velocity": 1,
      "hand": "right"
    },
    {
      "midi": 52,
      "time": 182.055,
      "duration": 0.205,
      "velocity": 1,
      "hand": "left"
    },
    {
      "midi": 72,
      "time": 182.055,
      "duration": 0.205,
      "velocity": 1,
      "hand": "right"
    },
    {
      "midi": 79,
      "time": 182.055,
      "duration": 0.205,
      "velocity": 1,
      "hand": "right"
    },
    {
      "midi": 60,
      "time": 182.26,
      "duration": 0.205,
      "velocity": 1,
      "hand": "right"
    },
    {
      "midi": 72,
      "time": 182.26,
      "duration": 0.205,
      "velocity": 1,
      "hand": "right"
    },
    {
      "midi": 79,
      "time": 182.26,
      "duration": 0.205,
      "velocity": 1,
      "hand": "right"
    },
    {
      "midi": 52,
      "time": 182.466,
      "duration": 0.205,
      "velocity": 1,
      "hand": "left"
    },
    {
      "midi": 72,
      "time": 182.466,
      "duration": 0.822,
      "velocity": 1,
      "hand": "right"
    },
    {
      "midi": 79,
      "time": 182.466,
      "duration": 0.822,
      "velocity": 1,
      "hand": "right"
    },
    {
      "midi": 60,
      "time": 182.671,
      "duration": 0.205,
      "velocity": 1,
      "hand": "right"
    },
    {
      "midi": 48,
      "time": 182.877,
      "duration": 0.205,
      "velocity": 1,
      "hand": "left"
    },
    {
      "midi": 60,
      "time": 183.082,
      "duration": 0.205,
      "velocity": 1,
      "hand": "right"
    },
    {
      "midi": 48,
      "time": 183.288,
      "duration": 0.205,
      "velocity": 1,
      "hand": "left"
    },
    {
      "midi": 77,
      "time": 183.288,
      "duration": 0.205,
      "velocity": 1,
      "hand": "right"
    },
    {
      "midi": 60,
      "time": 183.493,
      "duration": 0.205,
      "velocity": 1,
      "hand": "right"
    },
    {
      "midi": 76,
      "time": 183.493,
      "duration": 0.308,
      "velocity": 1,
      "hand": "right"
    },
    {
      "midi": 53,
      "time": 183.699,
      "duration": 0.205,
      "velocity": 1,
      "hand": "left"
    },
    {
      "midi": 74,
      "time": 183.801,
      "duration": 0.103,
      "velocity": 1,
      "hand": "right"
    },
    {
      "midi": 57,
      "time": 183.904,
      "duration": 0.205,
      "velocity": 1,
      "hand": "left"
    },
    {
      "midi": 77,
      "time": 183.904,
      "duration": 0.103,
      "velocity": 1,
      "hand": "right"
    },
    {
      "midi": 76,
      "time": 184.007,
      "duration": 0.103,
      "velocity": 1,
      "hand": "right"
    },
    {
      "midi": 53,
      "time": 184.11,
      "duration": 0.205,
      "velocity": 1,
      "hand": "left"
    },
    {
      "midi": 79,
      "time": 184.11,
      "duration": 0.103,
      "velocity": 1,
      "hand": "right"
    },
    {
      "midi": 77,
      "time": 184.212,
      "duration": 0.103,
      "velocity": 1,
      "hand": "right"
    },
    {
      "midi": 62,
      "time": 184.315,
      "duration": 0.205,
      "velocity": 1,
      "hand": "right"
    },
    {
      "midi": 76,
      "time": 184.315,
      "duration": 0.103,
      "velocity": 1,
      "hand": "right"
    },
    {
      "midi": 74,
      "time": 184.418,
      "duration": 0.103,
      "velocity": 1,
      "hand": "right"
    },
    {
      "midi": 55,
      "time": 184.521,
      "duration": 0.205,
      "velocity": 1,
      "hand": "left"
    },
    {
      "midi": 72,
      "time": 184.521,
      "duration": 0.411,
      "velocity": 1,
      "hand": "right"
    },
    {
      "midi": 64,
      "time": 184.726,
      "duration": 0.205,
      "velocity": 1,
      "hand": "right"
    },
    {
      "midi": 55,
      "time": 184.932,
      "duration": 0.205,
      "velocity": 1,
      "hand": "left"
    },
    {
      "midi": 71,
      "time": 184.932,
      "duration": 0.411,
      "velocity": 1,
      "hand": "right"
    },
    {
      "midi": 62,
      "time": 185.137,
      "duration": 0.205,
      "velocity": 1,
      "hand": "right"
    },
    {
      "midi": 69,
      "time": 185.24,
      "duration": 0.051,
      "velocity": 1,
      "hand": "right"
    },
    {
      "midi": 57,
      "time": 185.342,
      "duration": 0.205,
      "velocity": 1,
      "hand": "left"
    },
    {
      "midi": 72,
      "time": 185.342,
      "duration": 0.205,
      "velocity": 1,
      "hand": "right"
    },
    {
      "midi": 84,
      "time": 185.342,
      "duration": 0.205,
      "velocity": 1,
      "hand": "right"
    },
    {
      "midi": 60,
      "time": 185.548,
      "duration": 0.205,
      "velocity": 1,
      "hand": "right"
    },
    {
      "midi": 72,
      "time": 185.548,
      "duration": 0.205,
      "velocity": 1,
      "hand": "right"
    },
    {
      "midi": 84,
      "time": 185.548,
      "duration": 0.205,
      "velocity": 1,
      "hand": "right"
    },
    {
      "midi": 57,
      "time": 185.753,
      "duration": 0.205,
      "velocity": 1,
      "hand": "left"
    },
    {
      "midi": 72,
      "time": 185.753,
      "duration": 0.616,
      "velocity": 1,
      "hand": "right"
    },
    {
      "midi": 84,
      "time": 185.753,
      "duration": 0.616,
      "velocity": 1,
      "hand": "right"
    },
    {
      "midi": 60,
      "time": 185.959,
      "duration": 0.205,
      "velocity": 1,
      "hand": "right"
    },
    {
      "midi": 53,
      "time": 186.164,
      "duration": 0.205,
      "velocity": 1,
      "hand": "left"
    },
    {
      "midi": 60,
      "time": 186.37,
      "duration": 0.205,
      "velocity": 1,
      "hand": "right"
    },
    {
      "midi": 86,
      "time": 186.37,
      "duration": 0.103,
      "velocity": 1,
      "hand": "right"
    },
    {
      "midi": 84,
      "time": 186.473,
      "duration": 0.103,
      "velocity": 1,
      "hand": "right"
    },
    {
      "midi": 53,
      "time": 186.575,
      "duration": 0.205,
      "velocity": 1,
      "hand": "left"
    },
    {
      "midi": 83,
      "time": 186.575,
      "duration": 0.205,
      "velocity": 1,
      "hand": "right"
    },
    {
      "midi": 60,
      "time": 186.781,
      "duration": 0.205,
      "velocity": 1,
      "hand": "right"
    },
    {
      "midi": 81,
      "time": 186.781,
      "duration": 0.205,
      "velocity": 1,
      "hand": "right"
    },
    {
      "midi": 52,
      "time": 186.986,
      "duration": 0.205,
      "velocity": 1,
      "hand": "left"
    },
    {
      "midi": 72,
      "time": 186.986,
      "duration": 0.205,
      "velocity": 1,
      "hand": "right"
    },
    {
      "midi": 79,
      "time": 186.986,
      "duration": 0.205,
      "velocity": 1,
      "hand": "right"
    },
    {
      "midi": 60,
      "time": 187.192,
      "duration": 0.205,
      "velocity": 1,
      "hand": "right"
    },
    {
      "midi": 72,
      "time": 187.192,
      "duration": 0.205,
      "velocity": 1,
      "hand": "right"
    },
    {
      "midi": 79,
      "time": 187.192,
      "duration": 0.205,
      "velocity": 1,
      "hand": "right"
    },
    {
      "midi": 52,
      "time": 187.397,
      "duration": 0.205,
      "velocity": 1,
      "hand": "left"
    },
    {
      "midi": 72,
      "time": 187.397,
      "duration": 0.616,
      "velocity": 1,
      "hand": "right"
    },
    {
      "midi": 79,
      "time": 187.397,
      "duration": 0.616,
      "velocity": 1,
      "hand": "right"
    },
    {
      "midi": 60,
      "time": 187.603,
      "duration": 0.205,
      "velocity": 1,
      "hand": "right"
    },
    {
      "midi": 48,
      "time": 187.808,
      "duration": 0.205,
      "velocity": 1,
      "hand": "left"
    },
    {
      "midi": 60,
      "time": 188.014,
      "duration": 0.205,
      "velocity": 1,
      "hand": "right"
    },
    {
      "midi": 81,
      "time": 188.014,
      "duration": 0.103,
      "velocity": 1,
      "hand": "right"
    },
    {
      "midi": 79,
      "time": 188.116,
      "duration": 0.103,
      "velocity": 1,
      "hand": "right"
    },
    {
      "midi": 48,
      "time": 188.219,
      "duration": 0.205,
      "velocity": 1,
      "hand": "left"
    },
    {
      "midi": 77,
      "time": 188.219,
      "duration": 0.205,
      "velocity": 1,
      "hand": "right"
    },
    {
      "midi": 60,
      "time": 188.425,
      "duration": 0.205,
      "velocity": 1,
      "hand": "right"
    },
    {
      "midi": 76,
      "time": 188.425,
      "duration": 0.308,
      "velocity": 1,
      "hand": "right"
    },
    {
      "midi": 53,
      "time": 188.63,
      "duration": 0.205,
      "velocity": 1,
      "hand": "left"
    },
    {
      "midi": 74,
      "time": 188.733,
      "duration": 0.103,
      "velocity": 1,
      "hand": "right"
    },
    {
      "midi": 60,
      "time": 188.836,
      "duration": 0.205,
      "velocity": 1,
      "hand": "right"
    },
    {
      "midi": 81,
      "time": 188.836,
      "duration": 0.103,
      "velocity": 1,
      "hand": "right"
    },
    {
      "midi": 80,
      "time": 188.938,
      "duration": 0.103,
      "velocity": 1,
      "hand": "right"
    },
    {
      "midi": 53,
      "time": 189.041,
      "duration": 0.205,
      "velocity": 1,
      "hand": "left"
    },
    {
      "midi": 83,
      "time": 189.041,
      "duration": 0.103,
      "velocity": 1,
      "hand": "right"
    },
    {
      "midi": 81,
      "time": 189.144,
      "duration": 0.103,
      "velocity": 1,
      "hand": "right"
    },
    {
      "midi": 62,
      "time": 189.247,
      "duration": 0.205,
      "velocity": 1,
      "hand": "right"
    },
    {
      "midi": 79,
      "time": 189.247,
      "duration": 0.103,
      "velocity": 1,
      "hand": "right"
    },
    {
      "midi": 77,
      "time": 189.349,
      "duration": 0.103,
      "velocity": 1,
      "hand": "right"
    },
    {
      "midi": 55,
      "time": 189.452,
      "duration": 0.205,
      "velocity": 1,
      "hand": "left"
    },
    {
      "midi": 76,
      "time": 189.452,
      "duration": 0.411,
      "velocity": 1,
      "hand": "right"
    },
    {
      "midi": 60,
      "time": 189.658,
      "duration": 0.205,
      "velocity": 1,
      "hand": "right"
    },
    {
      "midi": 55,
      "time": 189.863,
      "duration": 0.205,
      "velocity": 1,
      "hand": "left"
    },
    {
      "midi": 74,
      "time": 189.863,
      "duration": 0.411,
      "velocity": 1,
      "hand": "right"
    },
    {
      "midi": 59,
      "time": 190.068,
      "duration": 0.205,
      "velocity": 1,
      "hand": "left"
    },
    {
      "midi": 72,
      "time": 190.171,
      "duration": 0.051,
      "velocity": 1,
      "hand": "right"
    },
    {
      "midi": 60,
      "time": 190.274,
      "duration": 0.205,
      "velocity": 1,
      "hand": "right"
    },
    {
      "midi": 64,
      "time": 190.274,
      "duration": 0.205,
      "velocity": 1,
      "hand": "right"
    },
    {
      "midi": 72,
      "time": 190.274,
      "duration": 0.411,
      "velocity": 1,
      "hand": "right"
    },
    {
      "midi": 60,
      "time": 190.479,
      "duration": 0.205,
      "velocity": 1,
      "hand": "right"
    },
    {
      "midi": 64,
      "time": 190.479,
      "duration": 0.205,
      "velocity": 1,
      "hand": "right"
    },
    {
      "midi": 60,
      "time": 190.685,
      "duration": 0.205,
      "velocity": 1,
      "hand": "right"
    },
    {
      "midi": 64,
      "time": 190.685,
      "duration": 0.205,
      "velocity": 1,
      "hand": "right"
    },
    {
      "midi": 60,
      "time": 190.89,
      "duration": 0.205,
      "velocity": 1,
      "hand": "right"
    },
    {
      "midi": 64,
      "time": 190.89,
      "duration": 0.205,
      "velocity": 1,
      "hand": "right"
    },
    {
      "midi": 72,
      "time": 190.89,
      "duration": 0.103,
      "velocity": 1,
      "hand": "right"
    },
    {
      "midi": 74,
      "time": 190.89,
      "duration": 0.051,
      "velocity": 1,
      "hand": "right"
    },
    {
      "midi": 71,
      "time": 190.993,
      "duration": 0.103,
      "velocity": 1,
      "hand": "right"
    },
    {
      "midi": 60,
      "time": 191.096,
      "duration": 0.205,
      "velocity": 1,
      "hand": "right"
    },
    {
      "midi": 64,
      "time": 191.096,
      "duration": 0.205,
      "velocity": 1,
      "hand": "right"
    },
    {
      "midi": 72,
      "time": 191.096,
      "duration": 0.205,
      "velocity": 1,
      "hand": "right"
    },
    {
      "midi": 60,
      "time": 191.301,
      "duration": 0.205,
      "velocity": 1,
      "hand": "right"
    },
    {
      "midi": 64,
      "time": 191.301,
      "duration": 0.205,
      "velocity": 1,
      "hand": "right"
    },
    {
      "midi": 75,
      "time": 191.301,
      "duration": 0.205,
      "velocity": 1,
      "hand": "right"
    },
    {
      "midi": 60,
      "time": 191.507,
      "duration": 0.205,
      "velocity": 1,
      "hand": "right"
    },
    {
      "midi": 64,
      "time": 191.507,
      "duration": 0.205,
      "velocity": 1,
      "hand": "right"
    },
    {
      "midi": 76,
      "time": 191.507,
      "duration": 0.205,
      "velocity": 1,
      "hand": "right"
    },
    {
      "midi": 60,
      "time": 191.712,
      "duration": 0.205,
      "velocity": 1,
      "hand": "right"
    },
    {
      "midi": 64,
      "time": 191.712,
      "duration": 0.205,
      "velocity": 1,
      "hand": "right"
    },
    {
      "midi": 78,
      "time": 191.712,
      "duration": 0.205,
      "velocity": 1,
      "hand": "right"
    },
    {
      "midi": 60,
      "time": 191.918,
      "duration": 0.205,
      "velocity": 1,
      "hand": "right"
    },
    {
      "midi": 64,
      "time": 191.918,
      "duration": 0.205,
      "velocity": 1,
      "hand": "right"
    },
    {
      "midi": 79,
      "time": 191.918,
      "duration": 0.205,
      "velocity": 1,
      "hand": "right"
    },
    {
      "midi": 60,
      "time": 192.123,
      "duration": 0.205,
      "velocity": 1,
      "hand": "right"
    },
    {
      "midi": 64,
      "time": 192.123,
      "duration": 0.205,
      "velocity": 1,
      "hand": "right"
    },
    {
      "midi": 83,
      "time": 192.123,
      "duration": 0.205,
      "velocity": 1,
      "hand": "right"
    },
    {
      "midi": 60,
      "time": 192.329,
      "duration": 0.205,
      "velocity": 1,
      "hand": "right"
    },
    {
      "midi": 64,
      "time": 192.329,
      "duration": 0.205,
      "velocity": 1,
      "hand": "right"
    },
    {
      "midi": 84,
      "time": 192.329,
      "duration": 0.205,
      "velocity": 1,
      "hand": "right"
    },
    {
      "midi": 60,
      "time": 192.534,
      "duration": 0.205,
      "velocity": 1,
      "hand": "right"
    },
    {
      "midi": 64,
      "time": 192.534,
      "duration": 0.205,
      "velocity": 1,
      "hand": "right"
    },
    {
      "midi": 87,
      "time": 192.534,
      "duration": 0.205,
      "velocity": 1,
      "hand": "right"
    },
    {
      "midi": 60,
      "time": 192.74,
      "duration": 0.205,
      "velocity": 1,
      "hand": "right"
    },
    {
      "midi": 64,
      "time": 192.74,
      "duration": 0.205,
      "velocity": 1,
      "hand": "right"
    },
    {
      "midi": 88,
      "time": 192.74,
      "duration": 0.411,
      "velocity": 1,
      "hand": "right"
    },
    {
      "midi": 60,
      "time": 192.945,
      "duration": 0.205,
      "velocity": 1,
      "hand": "right"
    },
    {
      "midi": 64,
      "time": 192.945,
      "duration": 0.205,
      "velocity": 1,
      "hand": "right"
    },
    {
      "midi": 60,
      "time": 193.151,
      "duration": 0.205,
      "velocity": 1,
      "hand": "right"
    },
    {
      "midi": 64,
      "time": 193.151,
      "duration": 0.205,
      "velocity": 1,
      "hand": "right"
    },
    {
      "midi": 60,
      "time": 193.356,
      "duration": 0.205,
      "velocity": 1,
      "hand": "right"
    },
    {
      "midi": 64,
      "time": 193.356,
      "duration": 0.205,
      "velocity": 1,
      "hand": "right"
    },
    {
      "midi": 59,
      "time": 193.562,
      "duration": 0.205,
      "velocity": 1,
      "hand": "left"
    },
    {
      "midi": 62,
      "time": 193.562,
      "duration": 0.205,
      "velocity": 1,
      "hand": "right"
    },
    {
      "midi": 74,
      "time": 193.562,
      "duration": 0.411,
      "velocity": 1,
      "hand": "right"
    },
    {
      "midi": 79,
      "time": 193.562,
      "duration": 0.411,
      "velocity": 1,
      "hand": "right"
    },
    {
      "midi": 86,
      "time": 193.562,
      "duration": 0.411,
      "velocity": 1,
      "hand": "right"
    },
    {
      "midi": 59,
      "time": 193.767,
      "duration": 0.205,
      "velocity": 1,
      "hand": "left"
    },
    {
      "midi": 62,
      "time": 193.767,
      "duration": 0.205,
      "velocity": 1,
      "hand": "right"
    },
    {
      "midi": 59,
      "time": 193.973,
      "duration": 0.205,
      "velocity": 1,
      "hand": "left"
    },
    {
      "midi": 62,
      "time": 193.973,
      "duration": 0.205,
      "velocity": 1,
      "hand": "right"
    },
    {
      "midi": 59,
      "time": 194.178,
      "duration": 0.205,
      "velocity": 1,
      "hand": "left"
    },
    {
      "midi": 62,
      "time": 194.178,
      "duration": 0.205,
      "velocity": 1,
      "hand": "right"
    },
    {
      "midi": 71,
      "time": 194.178,
      "duration": 0.103,
      "velocity": 1,
      "hand": "right"
    },
    {
      "midi": 72,
      "time": 194.178,
      "duration": 0.051,
      "velocity": 1,
      "hand": "right"
    },
    {
      "midi": 69,
      "time": 194.281,
      "duration": 0.103,
      "velocity": 1,
      "hand": "right"
    },
    {
      "midi": 59,
      "time": 194.384,
      "duration": 0.205,
      "velocity": 1,
      "hand": "left"
    },
    {
      "midi": 62,
      "time": 194.384,
      "duration": 0.205,
      "velocity": 1,
      "hand": "right"
    },
    {
      "midi": 71,
      "time": 194.384,
      "duration": 0.205,
      "velocity": 1,
      "hand": "right"
    },
    {
      "midi": 59,
      "time": 194.589,
      "duration": 0.205,
      "velocity": 1,
      "hand": "left"
    },
    {
      "midi": 62,
      "time": 194.589,
      "duration": 0.205,
      "velocity": 1,
      "hand": "right"
    },
    {
      "midi": 73,
      "time": 194.589,
      "duration": 0.205,
      "velocity": 1,
      "hand": "right"
    },
    {
      "midi": 59,
      "time": 194.795,
      "duration": 0.205,
      "velocity": 1,
      "hand": "left"
    },
    {
      "midi": 62,
      "time": 194.795,
      "duration": 0.205,
      "velocity": 1,
      "hand": "right"
    },
    {
      "midi": 74,
      "time": 194.795,
      "duration": 0.205,
      "velocity": 1,
      "hand": "right"
    },
    {
      "midi": 59,
      "time": 195,
      "duration": 0.205,
      "velocity": 1,
      "hand": "left"
    },
    {
      "midi": 62,
      "time": 195,
      "duration": 0.205,
      "velocity": 1,
      "hand": "right"
    },
    {
      "midi": 78,
      "time": 195,
      "duration": 0.205,
      "velocity": 1,
      "hand": "right"
    },
    {
      "midi": 59,
      "time": 195.205,
      "duration": 0.205,
      "velocity": 1,
      "hand": "left"
    },
    {
      "midi": 62,
      "time": 195.205,
      "duration": 0.205,
      "velocity": 1,
      "hand": "right"
    },
    {
      "midi": 79,
      "time": 195.205,
      "duration": 0.205,
      "velocity": 1,
      "hand": "right"
    },
    {
      "midi": 59,
      "time": 195.411,
      "duration": 0.205,
      "velocity": 1,
      "hand": "left"
    },
    {
      "midi": 62,
      "time": 195.411,
      "duration": 0.205,
      "velocity": 1,
      "hand": "right"
    },
    {
      "midi": 82,
      "time": 195.411,
      "duration": 0.205,
      "velocity": 1,
      "hand": "right"
    },
    {
      "midi": 59,
      "time": 195.616,
      "duration": 0.205,
      "velocity": 1,
      "hand": "left"
    },
    {
      "midi": 62,
      "time": 195.616,
      "duration": 0.205,
      "velocity": 1,
      "hand": "right"
    },
    {
      "midi": 83,
      "time": 195.616,
      "duration": 0.205,
      "velocity": 1,
      "hand": "right"
    },
    {
      "midi": 59,
      "time": 195.822,
      "duration": 0.205,
      "velocity": 1,
      "hand": "left"
    },
    {
      "midi": 62,
      "time": 195.822,
      "duration": 0.205,
      "velocity": 1,
      "hand": "right"
    },
    {
      "midi": 85,
      "time": 195.822,
      "duration": 0.205,
      "velocity": 1,
      "hand": "right"
    },
    {
      "midi": 59,
      "time": 196.027,
      "duration": 0.205,
      "velocity": 1,
      "hand": "left"
    },
    {
      "midi": 62,
      "time": 196.027,
      "duration": 0.205,
      "velocity": 1,
      "hand": "right"
    },
    {
      "midi": 86,
      "time": 196.027,
      "duration": 0.411,
      "velocity": 1,
      "hand": "right"
    },
    {
      "midi": 59,
      "time": 196.233,
      "duration": 0.205,
      "velocity": 1,
      "hand": "left"
    },
    {
      "midi": 62,
      "time": 196.233,
      "duration": 0.205,
      "velocity": 1,
      "hand": "right"
    },
    {
      "midi": 59,
      "time": 196.438,
      "duration": 0.205,
      "velocity": 1,
      "hand": "left"
    },
    {
      "midi": 62,
      "time": 196.438,
      "duration": 0.205,
      "velocity": 1,
      "hand": "right"
    },
    {
      "midi": 59,
      "time": 196.644,
      "duration": 0.205,
      "velocity": 1,
      "hand": "left"
    },
    {
      "midi": 62,
      "time": 196.644,
      "duration": 0.205,
      "velocity": 1,
      "hand": "right"
    },
    {
      "midi": 54,
      "time": 196.849,
      "duration": 0.205,
      "velocity": 1,
      "hand": "left"
    },
    {
      "midi": 57,
      "time": 196.849,
      "duration": 0.205,
      "velocity": 1,
      "hand": "left"
    },
    {
      "midi": 62,
      "time": 196.849,
      "duration": 0.205,
      "velocity": 1,
      "hand": "right"
    },
    {
      "midi": 72,
      "time": 196.849,
      "duration": 0.411,
      "velocity": 1,
      "hand": "right"
    },
    {
      "midi": 78,
      "time": 196.849,
      "duration": 0.411,
      "velocity": 1,
      "hand": "right"
    },
    {
      "midi": 84,
      "time": 196.849,
      "duration": 0.411,
      "velocity": 1,
      "hand": "right"
    },
    {
      "midi": 54,
      "time": 197.055,
      "duration": 0.205,
      "velocity": 1,
      "hand": "left"
    },
    {
      "midi": 57,
      "time": 197.055,
      "duration": 0.205,
      "velocity": 1,
      "hand": "left"
    },
    {
      "midi": 62,
      "time": 197.055,
      "duration": 0.205,
      "velocity": 1,
      "hand": "right"
    },
    {
      "midi": 54,
      "time": 197.26,
      "duration": 0.205,
      "velocity": 1,
      "hand": "left"
    },
    {
      "midi": 57,
      "time": 197.26,
      "duration": 0.205,
      "velocity": 1,
      "hand": "left"
    },
    {
      "midi": 62,
      "time": 197.26,
      "duration": 0.205,
      "velocity": 1,
      "hand": "right"
    },
    {
      "midi": 54,
      "time": 197.466,
      "duration": 0.205,
      "velocity": 1,
      "hand": "left"
    },
    {
      "midi": 57,
      "time": 197.466,
      "duration": 0.205,
      "velocity": 1,
      "hand": "left"
    },
    {
      "midi": 62,
      "time": 197.466,
      "duration": 0.205,
      "velocity": 1,
      "hand": "right"
    },
    {
      "midi": 69,
      "time": 197.466,
      "duration": 0.103,
      "velocity": 1,
      "hand": "right"
    },
    {
      "midi": 71,
      "time": 197.466,
      "duration": 0.051,
      "velocity": 1,
      "hand": "right"
    },
    {
      "midi": 68,
      "time": 197.568,
      "duration": 0.103,
      "velocity": 1,
      "hand": "right"
    },
    {
      "midi": 54,
      "time": 197.671,
      "duration": 0.205,
      "velocity": 1,
      "hand": "left"
    },
    {
      "midi": 57,
      "time": 197.671,
      "duration": 0.205,
      "velocity": 1,
      "hand": "left"
    },
    {
      "midi": 62,
      "time": 197.671,
      "duration": 0.205,
      "velocity": 1,
      "hand": "right"
    },
    {
      "midi": 69,
      "time": 197.671,
      "duration": 0.205,
      "velocity": 1,
      "hand": "right"
    },
    {
      "midi": 54,
      "time": 197.877,
      "duration": 0.205,
      "velocity": 1,
      "hand": "left"
    },
    {
      "midi": 57,
      "time": 197.877,
      "duration": 0.205,
      "velocity": 1,
      "hand": "left"
    },
    {
      "midi": 62,
      "time": 197.877,
      "duration": 0.205,
      "velocity": 1,
      "hand": "right"
    },
    {
      "midi": 71,
      "time": 197.877,
      "duration": 0.205,
      "velocity": 1,
      "hand": "right"
    },
    {
      "midi": 54,
      "time": 198.082,
      "duration": 0.205,
      "velocity": 1,
      "hand": "left"
    },
    {
      "midi": 57,
      "time": 198.082,
      "duration": 0.205,
      "velocity": 1,
      "hand": "left"
    },
    {
      "midi": 62,
      "time": 198.082,
      "duration": 0.205,
      "velocity": 1,
      "hand": "right"
    },
    {
      "midi": 72,
      "time": 198.082,
      "duration": 0.205,
      "velocity": 1,
      "hand": "right"
    },
    {
      "midi": 54,
      "time": 198.288,
      "duration": 0.205,
      "velocity": 1,
      "hand": "left"
    },
    {
      "midi": 57,
      "time": 198.288,
      "duration": 0.205,
      "velocity": 1,
      "hand": "left"
    },
    {
      "midi": 62,
      "time": 198.288,
      "duration": 0.205,
      "velocity": 1,
      "hand": "right"
    },
    {
      "midi": 77,
      "time": 198.288,
      "duration": 0.205,
      "velocity": 1,
      "hand": "right"
    },
    {
      "midi": 54,
      "time": 198.493,
      "duration": 0.205,
      "velocity": 1,
      "hand": "left"
    },
    {
      "midi": 57,
      "time": 198.493,
      "duration": 0.205,
      "velocity": 1,
      "hand": "left"
    },
    {
      "midi": 62,
      "time": 198.493,
      "duration": 0.205,
      "velocity": 1,
      "hand": "right"
    },
    {
      "midi": 78,
      "time": 198.493,
      "duration": 0.205,
      "velocity": 1,
      "hand": "right"
    },
    {
      "midi": 54,
      "time": 198.699,
      "duration": 0.205,
      "velocity": 1,
      "hand": "left"
    },
    {
      "midi": 57,
      "time": 198.699,
      "duration": 0.205,
      "velocity": 1,
      "hand": "left"
    },
    {
      "midi": 62,
      "time": 198.699,
      "duration": 0.205,
      "velocity": 1,
      "hand": "right"
    },
    {
      "midi": 80,
      "time": 198.699,
      "duration": 0.205,
      "velocity": 1,
      "hand": "right"
    },
    {
      "midi": 54,
      "time": 198.904,
      "duration": 0.205,
      "velocity": 1,
      "hand": "left"
    },
    {
      "midi": 57,
      "time": 198.904,
      "duration": 0.205,
      "velocity": 1,
      "hand": "left"
    },
    {
      "midi": 62,
      "time": 198.904,
      "duration": 0.205,
      "velocity": 1,
      "hand": "right"
    },
    {
      "midi": 81,
      "time": 198.904,
      "duration": 0.205,
      "velocity": 1,
      "hand": "right"
    },
    {
      "midi": 54,
      "time": 199.11,
      "duration": 0.205,
      "velocity": 1,
      "hand": "left"
    },
    {
      "midi": 57,
      "time": 199.11,
      "duration": 0.205,
      "velocity": 1,
      "hand": "left"
    },
    {
      "midi": 62,
      "time": 199.11,
      "duration": 0.205,
      "velocity": 1,
      "hand": "right"
    },
    {
      "midi": 83,
      "time": 199.11,
      "duration": 0.205,
      "velocity": 1,
      "hand": "right"
    },
    {
      "midi": 54,
      "time": 199.315,
      "duration": 0.205,
      "velocity": 1,
      "hand": "left"
    },
    {
      "midi": 57,
      "time": 199.315,
      "duration": 0.205,
      "velocity": 1,
      "hand": "left"
    },
    {
      "midi": 62,
      "time": 199.315,
      "duration": 0.205,
      "velocity": 1,
      "hand": "right"
    },
    {
      "midi": 84,
      "time": 199.315,
      "duration": 0.411,
      "velocity": 1,
      "hand": "right"
    },
    {
      "midi": 54,
      "time": 199.521,
      "duration": 0.205,
      "velocity": 1,
      "hand": "left"
    },
    {
      "midi": 57,
      "time": 199.521,
      "duration": 0.205,
      "velocity": 1,
      "hand": "left"
    },
    {
      "midi": 62,
      "time": 199.521,
      "duration": 0.205,
      "velocity": 1,
      "hand": "right"
    },
    {
      "midi": 54,
      "time": 199.726,
      "duration": 0.205,
      "velocity": 1,
      "hand": "left"
    },
    {
      "midi": 57,
      "time": 199.726,
      "duration": 0.205,
      "velocity": 1,
      "hand": "left"
    },
    {
      "midi": 62,
      "time": 199.726,
      "duration": 0.205,
      "velocity": 1,
      "hand": "right"
    },
    {
      "midi": 54,
      "time": 199.932,
      "duration": 0.205,
      "velocity": 1,
      "hand": "left"
    },
    {
      "midi": 57,
      "time": 199.932,
      "duration": 0.205,
      "velocity": 1,
      "hand": "left"
    },
    {
      "midi": 62,
      "time": 199.932,
      "duration": 0.205,
      "velocity": 1,
      "hand": "right"
    },
    {
      "midi": 55,
      "time": 200.137,
      "duration": 0.822,
      "velocity": 1,
      "hand": "left"
    },
    {
      "midi": 62,
      "time": 200.137,
      "duration": 0.822,
      "velocity": 1,
      "hand": "right"
    },
    {
      "midi": 83,
      "time": 200.137,
      "duration": 0.103,
      "velocity": 1,
      "hand": "right"
    },
    {
      "midi": 81,
      "time": 200.24,
      "duration": 0.103,
      "velocity": 1,
      "hand": "right"
    },
    {
      "midi": 84,
      "time": 200.342,
      "duration": 0.103,
      "velocity": 1,
      "hand": "right"
    },
    {
      "midi": 83,
      "time": 200.445,
      "duration": 0.103,
      "velocity": 1,
      "hand": "right"
    },
    {
      "midi": 86,
      "time": 200.548,
      "duration": 0.205,
      "velocity": 1,
      "hand": "right"
    },
    {
      "midi": 78,
      "time": 200.753,
      "duration": 0.205,
      "velocity": 1,
      "hand": "right"
    },
    {
      "midi": 55,
      "time": 200.959,
      "duration": 0.822,
      "velocity": 1,
      "hand": "left"
    },
    {
      "midi": 59,
      "time": 200.959,
      "duration": 0.822,
      "velocity": 1,
      "hand": "left"
    },
    {
      "midi": 79,
      "time": 200.959,
      "duration": 0.103,
      "velocity": 1,
      "hand": "right"
    },
    {
      "midi": 78,
      "time": 201.062,
      "duration": 0.103,
      "velocity": 1,
      "hand": "right"
    },
    {
      "midi": 81,
      "time": 201.164,
      "duration": 0.103,
      "velocity": 1,
      "hand": "right"
    },
    {
      "midi": 79,
      "time": 201.267,
      "duration": 0.103,
      "velocity": 1,
      "hand": "right"
    },
    {
      "midi": 83,
      "time": 201.37,
      "duration": 0.205,
      "velocity": 1,
      "hand": "right"
    },
    {
      "midi": 75,
      "time": 201.575,
      "duration": 0.205,
      "velocity": 1,
      "hand": "right"
    },
    {
      "midi": 55,
      "time": 201.781,
      "duration": 0.822,
      "velocity": 1,
      "hand": "left"
    },
    {
      "midi": 60,
      "time": 201.781,
      "duration": 0.822,
      "velocity": 1,
      "hand": "right"
    },
    {
      "midi": 76,
      "time": 201.781,
      "duration": 0.103,
      "velocity": 1,
      "hand": "right"
    },
    {
      "midi": 75,
      "time": 201.884,
      "duration": 0.103,
      "velocity": 1,
      "hand": "right"
    },
    {
      "midi": 78,
      "time": 201.986,
      "duration": 0.103,
      "velocity": 1,
      "hand": "right"
    },
    {
      "midi": 76,
      "time": 202.089,
      "duration": 0.103,
      "velocity": 1,
      "hand": "right"
    },
    {
      "midi": 79,
      "time": 202.192,
      "duration": 0.205,
      "velocity": 1,
      "hand": "right"
    },
    {
      "midi": 71,
      "time": 202.397,
      "duration": 0.205,
      "velocity": 1,
      "hand": "right"
    },
    {
      "midi": 55,
      "time": 202.603,
      "duration": 0.822,
      "velocity": 1,
      "hand": "left"
    },
    {
      "midi": 66,
      "time": 202.603,
      "duration": 0.822,
      "velocity": 1,
      "hand": "right"
    },
    {
      "midi": 72,
      "time": 202.603,
      "duration": 0.103,
      "velocity": 1,
      "hand": "right"
    },
    {
      "midi": 71,
      "time": 202.705,
      "duration": 0.103,
      "velocity": 1,
      "hand": "right"
    },
    {
      "midi": 74,
      "time": 202.808,
      "duration": 0.103,
      "velocity": 1,
      "hand": "right"
    },
    {
      "midi": 72,
      "time": 202.911,
      "duration": 0.103,
      "velocity": 1,
      "hand": "right"
    },
    {
      "midi": 76,
      "time": 203.014,
      "duration": 0.205,
      "velocity": 1,
      "hand": "right"
    },
    {
      "midi": 69,
      "time": 203.219,
      "duration": 0.205,
      "velocity": 1,
      "hand": "right"
    },
    {
      "midi": 55,
      "time": 203.425,
      "duration": 0.411,
      "velocity": 1,
      "hand": "left"
    },
    {
      "midi": 67,
      "time": 203.425,
      "duration": 0.411,
      "velocity": 1,
      "hand": "right"
    },
    {
      "midi": 71,
      "time": 203.425,
      "duration": 0.103,
      "velocity": 1,
      "hand": "right"
    },
    {
      "midi": 69,
      "time": 203.527,
      "duration": 0.103,
      "velocity": 1,
      "hand": "right"
    },
    {
      "midi": 72,
      "time": 203.63,
      "duration": 0.103,
      "velocity": 1,
      "hand": "right"
    },
    {
      "midi": 71,
      "time": 203.733,
      "duration": 0.103,
      "velocity": 1,
      "hand": "right"
    },
    {
      "midi": 74,
      "time": 203.836,
      "duration": 0.205,
      "velocity": 1,
      "hand": "right"
    },
    {
      "midi": 54,
      "time": 204.041,
      "duration": 0.205,
      "velocity": 1,
      "hand": "left"
    },
    {
      "midi": 66,
      "time": 204.041,
      "duration": 0.205,
      "velocity": 1,
      "hand": "right"
    },
    {
      "midi": 55,
      "time": 204.247,
      "duration": 0.103,
      "velocity": 1,
      "hand": "left"
    },
    {
      "midi": 67,
      "time": 204.247,
      "duration": 0.103,
      "velocity": 1,
      "hand": "right"
    },
    {
      "midi": 54,
      "time": 204.349,
      "duration": 0.103,
      "velocity": 1,
      "hand": "left"
    },
    {
      "midi": 66,
      "time": 204.349,
      "duration": 0.103,
      "velocity": 1,
      "hand": "right"
    },
    {
      "midi": 57,
      "time": 204.452,
      "duration": 0.103,
      "velocity": 1,
      "hand": "left"
    },
    {
      "midi": 69,
      "time": 204.452,
      "duration": 0.103,
      "velocity": 1,
      "hand": "right"
    },
    {
      "midi": 55,
      "time": 204.555,
      "duration": 0.103,
      "velocity": 1,
      "hand": "left"
    },
    {
      "midi": 67,
      "time": 204.555,
      "duration": 0.103,
      "velocity": 1,
      "hand": "right"
    },
    {
      "midi": 59,
      "time": 204.658,
      "duration": 0.205,
      "velocity": 1,
      "hand": "left"
    },
    {
      "midi": 71,
      "time": 204.658,
      "duration": 0.205,
      "velocity": 1,
      "hand": "right"
    },
    {
      "midi": 50,
      "time": 204.863,
      "duration": 0.205,
      "velocity": 1,
      "hand": "left"
    },
    {
      "midi": 62,
      "time": 204.863,
      "duration": 0.205,
      "velocity": 1,
      "hand": "right"
    },
    {
      "midi": 52,
      "time": 205.068,
      "duration": 0.308,
      "velocity": 1,
      "hand": "left"
    },
    {
      "midi": 64,
      "time": 205.068,
      "duration": 0.308,
      "velocity": 1,
      "hand": "right"
    },
    {
      "midi": 50,
      "time": 205.377,
      "duration": 0.103,
      "velocity": 1,
      "hand": "left"
    },
    {
      "midi": 62,
      "time": 205.377,
      "duration": 0.103,
      "velocity": 1,
      "hand": "right"
    },
    {
      "midi": 48,
      "time": 205.479,
      "duration": 0.308,
      "velocity": 1,
      "hand": "left"
    },
    {
      "midi": 60,
      "time": 205.479,
      "duration": 0.308,
      "velocity": 1,
      "hand": "right"
    },
    {
      "midi": 47,
      "time": 205.788,
      "duration": 0.103,
      "velocity": 1,
      "hand": "left"
    },
    {
      "midi": 59,
      "time": 205.788,
      "duration": 0.103,
      "velocity": 1,
      "hand": "left"
    },
    {
      "midi": 48,
      "time": 205.89,
      "duration": 0.308,
      "velocity": 1,
      "hand": "left"
    },
    {
      "midi": 60,
      "time": 205.89,
      "duration": 0.308,
      "velocity": 1,
      "hand": "right"
    },
    {
      "midi": 45,
      "time": 206.199,
      "duration": 0.103,
      "velocity": 1,
      "hand": "left"
    },
    {
      "midi": 57,
      "time": 206.199,
      "duration": 0.103,
      "velocity": 1,
      "hand": "left"
    },
    {
      "midi": 43,
      "time": 206.301,
      "duration": 0.308,
      "velocity": 1,
      "hand": "left"
    },
    {
      "midi": 55,
      "time": 206.301,
      "duration": 0.308,
      "velocity": 1,
      "hand": "left"
    },
    {
      "midi": 42,
      "time": 206.61,
      "duration": 0.103,
      "velocity": 1,
      "hand": "left"
    },
    {
      "midi": 54,
      "time": 206.61,
      "duration": 0.103,
      "velocity": 1,
      "hand": "left"
    },
    {
      "midi": 43,
      "time": 206.712,
      "duration": 0.205,
      "velocity": 1,
      "hand": "left"
    },
    {
      "midi": 55,
      "time": 206.712,
      "duration": 0.205,
      "velocity": 1,
      "hand": "left"
    },
    {
      "midi": 47,
      "time": 206.918,
      "duration": 0.103,
      "velocity": 1,
      "hand": "left"
    },
    {
      "midi": 59,
      "time": 206.918,
      "duration": 0.103,
      "velocity": 1,
      "hand": "left"
    },
    {
      "midi": 50,
      "time": 207.021,
      "duration": 0.103,
      "velocity": 1,
      "hand": "left"
    },
    {
      "midi": 62,
      "time": 207.021,
      "duration": 0.103,
      "velocity": 1,
      "hand": "right"
    },
    {
      "midi": 55,
      "time": 207.123,
      "duration": 0.205,
      "velocity": 1,
      "hand": "left"
    },
    {
      "midi": 67,
      "time": 207.123,
      "duration": 0.205,
      "velocity": 1,
      "hand": "right"
    },
    {
      "midi": 55,
      "time": 207.329,
      "duration": 0.205,
      "velocity": 1,
      "hand": "left"
    },
    {
      "midi": 67,
      "time": 207.329,
      "duration": 0.205,
      "velocity": 1,
      "hand": "right"
    },
    {
      "midi": 55,
      "time": 207.534,
      "duration": 0.411,
      "velocity": 1,
      "hand": "left"
    },
    {
      "midi": 67,
      "time": 207.534,
      "duration": 0.411,
      "velocity": 1,
      "hand": "right"
    },
    {
      "midi": 78,
      "time": 208.356,
      "duration": 0.205,
      "velocity": 1,
      "hand": "right"
    },
    {
      "midi": 79,
      "time": 208.562,
      "duration": 0.205,
      "velocity": 1,
      "hand": "right"
    },
    {
      "midi": 78,
      "time": 208.767,
      "duration": 0.205,
      "velocity": 1,
      "hand": "right"
    },
    {
      "midi": 79,
      "time": 208.973,
      "duration": 0.205,
      "velocity": 1,
      "hand": "right"
    },
    {
      "midi": 78,
      "time": 209.178,
      "duration": 0.205,
      "velocity": 1,
      "hand": "right"
    },
    {
      "midi": 79,
      "time": 209.384,
      "duration": 0.205,
      "velocity": 1,
      "hand": "right"
    },
    {
      "midi": 78,
      "time": 209.589,
      "duration": 0.205,
      "velocity": 1,
      "hand": "right"
    },
    {
      "midi": 79,
      "time": 209.795,
      "duration": 0.205,
      "velocity": 1,
      "hand": "right"
    },
    {
      "midi": 77,
      "time": 210,
      "duration": 0.205,
      "velocity": 1,
      "hand": "right"
    },
    {
      "midi": 79,
      "time": 210.205,
      "duration": 0.205,
      "velocity": 1,
      "hand": "right"
    },
    {
      "midi": 76,
      "time": 210.411,
      "duration": 0.205,
      "velocity": 1,
      "hand": "right"
    },
    {
      "midi": 79,
      "time": 210.616,
      "duration": 0.205,
      "velocity": 1,
      "hand": "right"
    },
    {
      "midi": 77,
      "time": 210.822,
      "duration": 0.205,
      "velocity": 1,
      "hand": "right"
    },
    {
      "midi": 79,
      "time": 211.027,
      "duration": 0.205,
      "velocity": 1,
      "hand": "right"
    },
    {
      "midi": 74,
      "time": 211.233,
      "duration": 0.205,
      "velocity": 1,
      "hand": "right"
    },
    {
      "midi": 79,
      "time": 211.438,
      "duration": 0.205,
      "velocity": 1,
      "hand": "right"
    },
    {
      "midi": 64,
      "time": 211.644,
      "duration": 0.205,
      "velocity": 1,
      "hand": "right"
    },
    {
      "midi": 72,
      "time": 211.644,
      "duration": 0.205,
      "velocity": 1,
      "hand": "right"
    },
    {
      "midi": 65,
      "time": 211.849,
      "duration": 0.205,
      "velocity": 1,
      "hand": "right"
    },
    {
      "midi": 79,
      "time": 211.849,
      "duration": 0.205,
      "velocity": 1,
      "hand": "right"
    },
    {
      "midi": 67,
      "time": 212.055,
      "duration": 0.205,
      "velocity": 1,
      "hand": "right"
    },
    {
      "midi": 72,
      "time": 212.055,
      "duration": 0.205,
      "velocity": 1,
      "hand": "right"
    },
    {
      "midi": 64,
      "time": 212.26,
      "duration": 0.205,
      "velocity": 1,
      "hand": "right"
    },
    {
      "midi": 79,
      "time": 212.26,
      "duration": 0.205,
      "velocity": 1,
      "hand": "right"
    },
    {
      "midi": 60,
      "time": 212.466,
      "duration": 0.822,
      "velocity": 1,
      "hand": "right"
    },
    {
      "midi": 76,
      "time": 212.466,
      "duration": 0.205,
      "velocity": 1,
      "hand": "right"
    },
    {
      "midi": 79,
      "time": 212.671,
      "duration": 0.205,
      "velocity": 1,
      "hand": "right"
    },
    {
      "midi": 76,
      "time": 212.877,
      "duration": 0.205,
      "velocity": 1,
      "hand": "right"
    },
    {
      "midi": 79,
      "time": 213.082,
      "duration": 0.205,
      "velocity": 1,
      "hand": "right"
    },
    {
      "midi": 62,
      "time": 213.288,
      "duration": 0.205,
      "velocity": 1,
      "hand": "right"
    },
    {
      "midi": 77,
      "time": 213.288,
      "duration": 0.205,
      "velocity": 1,
      "hand": "right"
    },
    {
      "midi": 64,
      "time": 213.493,
      "duration": 0.205,
      "velocity": 1,
      "hand": "right"
    },
    {
      "midi": 79,
      "time": 213.493,
      "duration": 0.205,
      "velocity": 1,
      "hand": "right"
    },
    {
      "midi": 65,
      "time": 213.699,
      "duration": 0.205,
      "velocity": 1,
      "hand": "right"
    },
    {
      "midi": 77,
      "time": 213.699,
      "duration": 0.205,
      "velocity": 1,
      "hand": "right"
    },
    {
      "midi": 62,
      "time": 213.904,
      "duration": 0.205,
      "velocity": 1,
      "hand": "right"
    },
    {
      "midi": 79,
      "time": 213.904,
      "duration": 0.205,
      "velocity": 1,
      "hand": "right"
    },
    {
      "midi": 59,
      "time": 214.11,
      "duration": 0.822,
      "velocity": 1,
      "hand": "left"
    },
    {
      "midi": 74,
      "time": 214.11,
      "duration": 0.205,
      "velocity": 1,
      "hand": "right"
    },
    {
      "midi": 79,
      "time": 214.315,
      "duration": 0.205,
      "velocity": 1,
      "hand": "right"
    },
    {
      "midi": 74,
      "time": 214.521,
      "duration": 0.205,
      "velocity": 1,
      "hand": "right"
    },
    {
      "midi": 79,
      "time": 214.726,
      "duration": 0.205,
      "velocity": 1,
      "hand": "right"
    },
    {
      "midi": 62,
      "time": 214.932,
      "duration": 0.103,
      "velocity": 1,
      "hand": "right"
    },
    {
      "midi": 76,
      "time": 214.932,
      "duration": 0.205,
      "velocity": 1,
      "hand": "right"
    },
    {
      "midi": 60,
      "time": 215.034,
      "duration": 0.205,
      "velocity": 1,
      "hand": "right"
    },
    {
      "midi": 79,
      "time": 215.137,
      "duration": 0.205,
      "velocity": 1,
      "hand": "right"
    },
    {
      "midi": 65,
      "time": 215.342,
      "duration": 0.103,
      "velocity": 1,
      "hand": "right"
    },
    {
      "midi": 72,
      "time": 215.342,
      "duration": 0.205,
      "velocity": 1,
      "hand": "right"
    },
    {
      "midi": 64,
      "time": 215.445,
      "duration": 0.205,
      "velocity": 1,
      "hand": "right"
    },
    {
      "midi": 79,
      "time": 215.548,
      "duration": 0.205,
      "velocity": 1,
      "hand": "right"
    },
    {
      "midi": 61,
      "time": 215.753,
      "duration": 0.103,
      "velocity": 1,
      "hand": "right"
    },
    {
      "midi": 71,
      "time": 215.753,
      "duration": 0.205,
      "velocity": 1,
      "hand": "right"
    },
    {
      "midi": 62,
      "time": 215.856,
      "duration": 0.205,
      "velocity": 1,
      "hand": "right"
    },
    {
      "midi": 79,
      "time": 215.959,
      "duration": 0.205,
      "velocity": 1,
      "hand": "right"
    },
    {
      "midi": 74,
      "time": 216.164,
      "duration": 0.205,
      "velocity": 1,
      "hand": "right"
    },
    {
      "midi": 79,
      "time": 216.37,
      "duration": 0.205,
      "velocity": 1,
      "hand": "right"
    },
    {
      "midi": 65,
      "time": 216.575,
      "duration": 0.103,
      "velocity": 1,
      "hand": "right"
    },
    {
      "midi": 72,
      "time": 216.575,
      "duration": 0.205,
      "velocity": 1,
      "hand": "right"
    },
    {
      "midi": 64,
      "time": 216.678,
      "duration": 0.205,
      "velocity": 1,
      "hand": "right"
    },
    {
      "midi": 79,
      "time": 216.781,
      "duration": 0.205,
      "velocity": 1,
      "hand": "right"
    },
    {
      "midi": 67,
      "time": 216.986,
      "duration": 0.103,
      "velocity": 1,
      "hand": "right"
    },
    {
      "midi": 72,
      "time": 216.986,
      "duration": 0.205,
      "velocity": 1,
      "hand": "right"
    },
    {
      "midi": 66,
      "time": 217.089,
      "duration": 0.205,
      "velocity": 1,
      "hand": "right"
    },
    {
      "midi": 81,
      "time": 217.192,
      "duration": 0.205,
      "velocity": 1,
      "hand": "right"
    },
    {
      "midi": 69,
      "time": 217.397,
      "duration": 0.103,
      "velocity": 1,
      "hand": "right"
    },
    {
      "midi": 71,
      "time": 217.397,
      "duration": 0.205,
      "velocity": 1,
      "hand": "right"
    },
    {
      "midi": 67,
      "time": 217.5,
      "duration": 0.205,
      "velocity": 1,
      "hand": "right"
    },
    {
      "midi": 74,
      "time": 217.603,
      "duration": 0.205,
      "velocity": 1,
      "hand": "right"
    },
    {
      "midi": 78,
      "time": 217.808,
      "duration": 0.205,
      "velocity": 1,
      "hand": "right"
    },
    {
      "midi": 79,
      "time": 218.014,
      "duration": 0.205,
      "velocity": 1,
      "hand": "right"
    },
    {
      "midi": 48,
      "time": 218.219,
      "duration": 0.205,
      "velocity": 1,
      "hand": "left"
    },
    {
      "midi": 76,
      "time": 218.219,
      "duration": 0.205,
      "velocity": 1,
      "hand": "right"
    },
    {
      "midi": 55,
      "time": 218.425,
      "duration": 0.205,
      "velocity": 1,
      "hand": "left"
    },
    {
      "midi": 77,
      "time": 218.425,
      "duration": 0.205,
      "velocity": 1,
      "hand": "right"
    },
    {
      "midi": 48,
      "time": 218.63,
      "duration": 0.205,
      "velocity": 1,
      "hand": "left"
    },
    {
      "midi": 79,
      "time": 218.63,
      "duration": 0.205,
      "velocity": 1,
      "hand": "right"
    },
    {
      "midi": 55,
      "time": 218.836,
      "duration": 0.205,
      "velocity": 1,
      "hand": "left"
    },
    {
      "midi": 76,
      "time": 218.836,
      "duration": 0.205,
      "velocity": 1,
      "hand": "right"
    },
    {
      "midi": 52,
      "time": 219.041,
      "duration": 0.205,
      "velocity": 1,
      "hand": "left"
    },
    {
      "midi": 72,
      "time": 219.041,
      "duration": 0.822,
      "velocity": 1,
      "hand": "right"
    },
    {
      "midi": 55,
      "time": 219.247,
      "duration": 0.205,
      "velocity": 1,
      "hand": "left"
    },
    {
      "midi": 52,
      "time": 219.452,
      "duration": 0.205,
      "velocity": 1,
      "hand": "left"
    },
    {
      "midi": 55,
      "time": 219.658,
      "duration": 0.205,
      "velocity": 1,
      "hand": "left"
    },
    {
      "midi": 53,
      "time": 219.863,
      "duration": 0.205,
      "velocity": 1,
      "hand": "left"
    },
    {
      "midi": 74,
      "time": 219.863,
      "duration": 0.205,
      "velocity": 1,
      "hand": "right"
    },
    {
      "midi": 55,
      "time": 220.068,
      "duration": 0.205,
      "velocity": 1,
      "hand": "left"
    },
    {
      "midi": 76,
      "time": 220.068,
      "duration": 0.205,
      "velocity": 1,
      "hand": "right"
    },
    {
      "midi": 53,
      "time": 220.274,
      "duration": 0.205,
      "velocity": 1,
      "hand": "left"
    },
    {
      "midi": 77,
      "time": 220.274,
      "duration": 0.205,
      "velocity": 1,
      "hand": "right"
    },
    {
      "midi": 55,
      "time": 220.479,
      "duration": 0.205,
      "velocity": 1,
      "hand": "left"
    },
    {
      "midi": 74,
      "time": 220.479,
      "duration": 0.205,
      "velocity": 1,
      "hand": "right"
    },
    {
      "midi": 50,
      "time": 220.685,
      "duration": 0.205,
      "velocity": 1,
      "hand": "left"
    },
    {
      "midi": 83,
      "time": 220.685,
      "duration": 0.822,
      "velocity": 1,
      "hand": "right"
    },
    {
      "midi": 55,
      "time": 220.89,
      "duration": 0.205,
      "velocity": 1,
      "hand": "left"
    },
    {
      "midi": 50,
      "time": 221.096,
      "duration": 0.205,
      "velocity": 1,
      "hand": "left"
    },
    {
      "midi": 55,
      "time": 221.301,
      "duration": 0.205,
      "velocity": 1,
      "hand": "left"
    },
    {
      "midi": 52,
      "time": 221.507,
      "duration": 0.205,
      "velocity": 1,
      "hand": "left"
    },
    {
      "midi": 84,
      "time": 221.507,
      "duration": 0.103,
      "velocity": 1,
      "hand": "right"
    },
    {
      "midi": 83,
      "time": 221.61,
      "duration": 0.308,
      "velocity": 1,
      "hand": "right"
    },
    {
      "midi": 55,
      "time": 221.712,
      "duration": 0.205,
      "velocity": 1,
      "hand": "left"
    },
    {
      "midi": 48,
      "time": 221.918,
      "duration": 0.205,
      "velocity": 1,
      "hand": "left"
    },
    {
      "midi": 81,
      "time": 221.918,
      "duration": 0.103,
      "velocity": 1,
      "hand": "right"
    },
    {
      "midi": 79,
      "time": 222.021,
      "duration": 0.308,
      "velocity": 1,
      "hand": "right"
    },
    {
      "midi": 55,
      "time": 222.123,
      "duration": 0.205,
      "velocity": 1,
      "hand": "left"
    },
    {
      "midi": 50,
      "time": 222.329,
      "duration": 0.205,
      "velocity": 1,
      "hand": "left"
    },
    {
      "midi": 76,
      "time": 222.329,
      "duration": 0.103,
      "velocity": 1,
      "hand": "right"
    },
    {
      "midi": 77,
      "time": 222.432,
      "duration": 0.308,
      "velocity": 1,
      "hand": "right"
    },
    {
      "midi": 55,
      "time": 222.534,
      "duration": 0.205,
      "velocity": 1,
      "hand": "left"
    },
    {
      "midi": 47,
      "time": 222.74,
      "duration": 0.205,
      "velocity": 1,
      "hand": "left"
    },
    {
      "midi": 55,
      "time": 222.945,
      "duration": 0.205,
      "velocity": 1,
      "hand": "left"
    },
    {
      "midi": 48,
      "time": 223.151,
      "duration": 0.205,
      "velocity": 1,
      "hand": "left"
    },
    {
      "midi": 77,
      "time": 223.151,
      "duration": 0.103,
      "velocity": 1,
      "hand": "right"
    },
    {
      "midi": 76,
      "time": 223.253,
      "duration": 0.308,
      "velocity": 1,
      "hand": "right"
    },
    {
      "midi": 55,
      "time": 223.356,
      "duration": 0.205,
      "velocity": 1,
      "hand": "left"
    },
    {
      "midi": 45,
      "time": 223.562,
      "duration": 0.205,
      "velocity": 1,
      "hand": "left"
    },
    {
      "midi": 74,
      "time": 223.562,
      "duration": 0.103,
      "velocity": 1,
      "hand": "right"
    },
    {
      "midi": 72,
      "time": 223.664,
      "duration": 0.308,
      "velocity": 1,
      "hand": "right"
    },
    {
      "midi": 54,
      "time": 223.767,
      "duration": 0.205,
      "velocity": 1,
      "hand": "left"
    },
    {
      "midi": 43,
      "time": 223.973,
      "duration": 0.205,
      "velocity": 1,
      "hand": "left"
    },
    {
      "midi": 81,
      "time": 223.973,
      "duration": 0.103,
      "velocity": 1,
      "hand": "right"
    },
    {
      "midi": 79,
      "time": 224.075,
      "duration": 0.308,
      "velocity": 1,
      "hand": "right"
    },
    {
      "midi": 55,
      "time": 224.178,
      "duration": 0.205,
      "velocity": 1,
      "hand": "left"
    },
    {
      "midi": 41,
      "time": 224.384,
      "duration": 0.205,
      "velocity": 1,
      "hand": "left"
    },
    {
      "midi": 53,
      "time": 224.589,
      "duration": 0.205,
      "velocity": 1,
      "hand": "left"
    },
    {
      "midi": 40,
      "time": 224.795,
      "duration": 0.103,
      "velocity": 1,
      "hand": "left"
    },
    {
      "midi": 67,
      "time": 224.795,
      "duration": 0.822,
      "velocity": 1,
      "hand": "right"
    },
    {
      "midi": 79,
      "time": 224.795,
      "duration": 0.822,
      "velocity": 1,
      "hand": "right"
    },
    {
      "midi": 48,
      "time": 224.897,
      "duration": 0.103,
      "velocity": 1,
      "hand": "left"
    },
    {
      "midi": 47,
      "time": 225,
      "duration": 0.103,
      "velocity": 1,
      "hand": "left"
    },
    {
      "midi": 48,
      "time": 225.103,
      "duration": 0.103,
      "velocity": 1,
      "hand": "left"
    },
    {
      "midi": 50,
      "time": 225.205,
      "duration": 0.103,
      "velocity": 1,
      "hand": "left"
    },
    {
      "midi": 48,
      "time": 225.308,
      "duration": 0.103,
      "velocity": 1,
      "hand": "left"
    },
    {
      "midi": 47,
      "time": 225.411,
      "duration": 0.103,
      "velocity": 1,
      "hand": "left"
    },
    {
      "midi": 48,
      "time": 225.514,
      "duration": 0.103,
      "velocity": 1,
      "hand": "left"
    },
    {
      "midi": 40,
      "time": 225.616,
      "duration": 0.411,
      "velocity": 1,
      "hand": "left"
    },
    {
      "midi": 77,
      "time": 225.616,
      "duration": 0.205,
      "velocity": 1,
      "hand": "right"
    },
    {
      "midi": 76,
      "time": 225.822,
      "duration": 0.205,
      "velocity": 1,
      "hand": "right"
    },
    {
      "midi": 74,
      "time": 226.027,
      "duration": 0.205,
      "velocity": 1,
      "hand": "right"
    },
    {
      "midi": 72,
      "time": 226.233,
      "duration": 0.205,
      "velocity": 1,
      "hand": "right"
    },
    {
      "midi": 41,
      "time": 226.438,
      "duration": 0.103,
      "velocity": 1,
      "hand": "left"
    },
    {
      "midi": 69,
      "time": 226.438,
      "duration": 0.822,
      "velocity": 1,
      "hand": "right"
    },
    {
      "midi": 81,
      "time": 226.438,
      "duration": 0.822,
      "velocity": 1,
      "hand": "right"
    },
    {
      "midi": 48,
      "time": 226.541,
      "duration": 0.103,
      "velocity": 1,
      "hand": "left"
    },
    {
      "midi": 47,
      "time": 226.644,
      "duration": 0.103,
      "velocity": 1,
      "hand": "left"
    },
    {
      "midi": 48,
      "time": 226.747,
      "duration": 0.103,
      "velocity": 1,
      "hand": "left"
    },
    {
      "midi": 50,
      "time": 226.849,
      "duration": 0.103,
      "velocity": 1,
      "hand": "left"
    },
    {
      "midi": 48,
      "time": 226.952,
      "duration": 0.103,
      "velocity": 1,
      "hand": "left"
    },
    {
      "midi": 47,
      "time": 227.055,
      "duration": 0.103,
      "velocity": 1,
      "hand": "left"
    },
    {
      "midi": 48,
      "time": 227.158,
      "duration": 0.103,
      "velocity": 1,
      "hand": "left"
    },
    {
      "midi": 41,
      "time": 227.26,
      "duration": 0.411,
      "velocity": 1,
      "hand": "left"
    },
    {
      "midi": 79,
      "time": 227.26,
      "duration": 0.205,
      "velocity": 1,
      "hand": "right"
    },
    {
      "midi": 77,
      "time": 227.466,
      "duration": 0.205,
      "velocity": 1,
      "hand": "right"
    },
    {
      "midi": 76,
      "time": 227.671,
      "duration": 0.205,
      "velocity": 1,
      "hand": "right"
    },
    {
      "midi": 74,
      "time": 227.877,
      "duration": 0.205,
      "velocity": 1,
      "hand": "right"
    },
    {
      "midi": 43,
      "time": 228.082,
      "duration": 0.205,
      "velocity": 1,
      "hand": "left"
    },
    {
      "midi": 76,
      "time": 228.082,
      "duration": 0.103,
      "velocity": 1,
      "hand": "right"
    },
    {
      "midi": 77,
      "time": 228.185,
      "duration": 0.103,
      "velocity": 1,
      "hand": "right"
    },
    {
      "midi": 48,
      "time": 228.288,
      "duration": 0.205,
      "velocity": 1,
      "hand": "left"
    },
    {
      "midi": 79,
      "time": 228.288,
      "duration": 0.103,
      "velocity": 1,
      "hand": "right"
    },
    {
      "midi": 76,
      "time": 228.39,
      "duration": 0.103,
      "velocity": 1,
      "hand": "right"
    },
    {
      "midi": 52,
      "time": 228.493,
      "duration": 0.205,
      "velocity": 1,
      "hand": "left"
    },
    {
      "midi": 72,
      "time": 228.493,
      "duration": 0.205,
      "velocity": 1,
      "hand": "right"
    },
    {
      "midi": 48,
      "time": 228.699,
      "duration": 0.205,
      "velocity": 1,
      "hand": "left"
    },
    {
      "midi": 43,
      "time": 228.904,
      "duration": 0.205,
      "velocity": 1,
      "hand": "left"
    },
    {
      "midi": 74,
      "time": 228.904,
      "duration": 0.103,
      "velocity": 1,
      "hand": "right"
    },
    {
      "midi": 76,
      "time": 229.007,
      "duration": 0.103,
      "velocity": 1,
      "hand": "right"
    },
    {
      "midi": 50,
      "time": 229.11,
      "duration": 0.205,
      "velocity": 1,
      "hand": "left"
    },
    {
      "midi": 77,
      "time": 229.11,
      "duration": 0.103,
      "velocity": 1,
      "hand": "right"
    },
    {
      "midi": 74,
      "time": 229.212,
      "duration": 0.103,
      "velocity": 1,
      "hand": "right"
    },
    {
      "midi": 53,
      "time": 229.315,
      "duration": 0.205,
      "velocity": 1,
      "hand": "left"
    },
    {
      "midi": 71,
      "time": 229.315,
      "duration": 0.205,
      "velocity": 1,
      "hand": "right"
    },
    {
      "midi": 50,
      "time": 229.521,
      "duration": 0.205,
      "velocity": 1,
      "hand": "left"
    },
    {
      "midi": 52,
      "time": 229.726,
      "duration": 0.103,
      "velocity": 1,
      "hand": "left"
    },
    {
      "midi": 67,
      "time": 229.726,
      "duration": 0.822,
      "velocity": 1,
      "hand": "right"
    },
    {
      "midi": 79,
      "time": 229.726,
      "duration": 0.822,
      "velocity": 1,
      "hand": "right"
    },
    {
      "midi": 60,
      "time": 229.829,
      "duration": 0.103,
      "velocity": 1,
      "hand": "right"
    },
    {
      "midi": 59,
      "time": 229.932,
      "duration": 0.103,
      "velocity": 1,
      "hand": "left"
    },
    {
      "midi": 60,
      "time": 230.034,
      "duration": 0.103,
      "velocity": 1,
      "hand": "right"
    },
    {
      "midi": 62,
      "time": 230.137,
      "duration": 0.103,
      "velocity": 1,
      "hand": "right"
    },
    {
      "midi": 60,
      "time": 230.24,
      "duration": 0.103,
      "velocity": 1,
      "hand": "right"
    },
    {
      "midi": 59,
      "time": 230.342,
      "duration": 0.103,
      "velocity": 1,
      "hand": "left"
    },
    {
      "midi": 60,
      "time": 230.445,
      "duration": 0.103,
      "velocity": 1,
      "hand": "right"
    },
    {
      "midi": 52,
      "time": 230.548,
      "duration": 0.411,
      "velocity": 1,
      "hand": "left"
    },
    {
      "midi": 77,
      "time": 230.548,
      "duration": 0.103,
      "velocity": 1,
      "hand": "right"
    },
    {
      "midi": 79,
      "time": 230.651,
      "duration": 0.103,
      "velocity": 1,
      "hand": "right"
    },
    {
      "midi": 77,
      "time": 230.753,
      "duration": 0.103,
      "velocity": 1,
      "hand": "right"
    },
    {
      "midi": 76,
      "time": 230.856,
      "duration": 0.103,
      "velocity": 1,
      "hand": "right"
    },
    {
      "midi": 74,
      "time": 230.959,
      "duration": 0.103,
      "velocity": 1,
      "hand": "right"
    },
    {
      "midi": 76,
      "time": 231.062,
      "duration": 0.103,
      "velocity": 1,
      "hand": "right"
    },
    {
      "midi": 74,
      "time": 231.164,
      "duration": 0.103,
      "velocity": 1,
      "hand": "right"
    },
    {
      "midi": 72,
      "time": 231.267,
      "duration": 0.103,
      "velocity": 1,
      "hand": "right"
    },
    {
      "midi": 57,
      "time": 231.37,
      "duration": 0.103,
      "velocity": 1,
      "hand": "left"
    },
    {
      "midi": 72,
      "time": 231.37,
      "duration": 0.822,
      "velocity": 1,
      "hand": "right"
    },
    {
      "midi": 84,
      "time": 231.37,
      "duration": 0.822,
      "velocity": 1,
      "hand": "right"
    },
    {
      "midi": 65,
      "time": 231.473,
      "duration": 0.103,
      "velocity": 1,
      "hand": "right"
    },
    {
      "midi": 64,
      "time": 231.575,
      "duration": 0.103,
      "velocity": 1,
      "hand": "right"
    },
    {
      "midi": 65,
      "time": 231.678,
      "duration": 0.103,
      "velocity": 1,
      "hand": "right"
    },
    {
      "midi": 67,
      "time": 231.781,
      "duration": 0.103,
      "velocity": 1,
      "hand": "right"
    },
    {
      "midi": 65,
      "time": 231.884,
      "duration": 0.103,
      "velocity": 1,
      "hand": "right"
    },
    {
      "midi": 64,
      "time": 231.986,
      "duration": 0.103,
      "velocity": 1,
      "hand": "right"
    },
    {
      "midi": 65,
      "time": 232.089,
      "duration": 0.103,
      "velocity": 1,
      "hand": "right"
    },
    {
      "midi": 57,
      "time": 232.192,
      "duration": 0.411,
      "velocity": 1,
      "hand": "left"
    },
    {
      "midi": 83,
      "time": 232.192,
      "duration": 0.103,
      "velocity": 1,
      "hand": "right"
    },
    {
      "midi": 84,
      "time": 232.295,
      "duration": 0.103,
      "velocity": 1,
      "hand": "right"
    },
    {
      "midi": 83,
      "time": 232.397,
      "duration": 0.103,
      "velocity": 1,
      "hand": "right"
    },
    {
      "midi": 81,
      "time": 232.5,
      "duration": 0.103,
      "velocity": 1,
      "hand": "right"
    },
    {
      "midi": 79,
      "time": 232.603,
      "duration": 0.103,
      "velocity": 1,
      "hand": "right"
    },
    {
      "midi": 81,
      "time": 232.705,
      "duration": 0.103,
      "velocity": 1,
      "hand": "right"
    },
    {
      "midi": 79,
      "time": 232.808,
      "duration": 0.103,
      "velocity": 1,
      "hand": "right"
    },
    {
      "midi": 77,
      "time": 232.911,
      "duration": 0.103,
      "velocity": 1,
      "hand": "right"
    },
    {
      "midi": 55,
      "time": 233.014,
      "duration": 0.205,
      "velocity": 1,
      "hand": "left"
    },
    {
      "midi": 76,
      "time": 233.014,
      "duration": 0.205,
      "velocity": 1,
      "hand": "right"
    },
    {
      "midi": 60,
      "time": 233.219,
      "duration": 0.205,
      "velocity": 1,
      "hand": "right"
    },
    {
      "midi": 72,
      "time": 233.219,
      "duration": 0.205,
      "velocity": 1,
      "hand": "right"
    },
    {
      "midi": 57,
      "time": 233.425,
      "duration": 0.205,
      "velocity": 1,
      "hand": "left"
    },
    {
      "midi": 77,
      "time": 233.425,
      "duration": 0.411,
      "velocity": 1,
      "hand": "right"
    },
    {
      "midi": 60,
      "time": 233.63,
      "duration": 0.205,
      "velocity": 1,
      "hand": "right"
    },
    {
      "midi": 55,
      "time": 233.836,
      "duration": 0.205,
      "velocity": 1,
      "hand": "left"
    },
    {
      "midi": 76,
      "time": 233.836,
      "duration": 0.205,
      "velocity": 1,
      "hand": "right"
    },
    {
      "midi": 60,
      "time": 234.041,
      "duration": 0.205,
      "velocity": 1,
      "hand": "right"
    },
    {
      "midi": 72,
      "time": 234.041,
      "duration": 0.205,
      "velocity": 1,
      "hand": "right"
    },
    {
      "midi": 53,
      "time": 234.247,
      "duration": 0.205,
      "velocity": 1,
      "hand": "left"
    },
    {
      "midi": 81,
      "time": 234.247,
      "duration": 0.411,
      "velocity": 1,
      "hand": "right"
    },
    {
      "midi": 60,
      "time": 234.452,
      "duration": 0.205,
      "velocity": 1,
      "hand": "right"
    },
    {
      "midi": 52,
      "time": 234.658,
      "duration": 0.205,
      "velocity": 1,
      "hand": "left"
    },
    {
      "midi": 79,
      "time": 234.658,
      "duration": 0.205,
      "velocity": 1,
      "hand": "right"
    },
    {
      "midi": 60,
      "time": 234.863,
      "duration": 0.205,
      "velocity": 1,
      "hand": "right"
    },
    {
      "midi": 72,
      "time": 234.863,
      "duration": 0.205,
      "velocity": 1,
      "hand": "right"
    },
    {
      "midi": 57,
      "time": 235.068,
      "duration": 0.205,
      "velocity": 1,
      "hand": "left"
    },
    {
      "midi": 77,
      "time": 235.068,
      "duration": 0.411,
      "velocity": 1,
      "hand": "right"
    },
    {
      "midi": 60,
      "time": 235.274,
      "duration": 0.205,
      "velocity": 1,
      "hand": "right"
    },
    {
      "midi": 55,
      "time": 235.479,
      "duration": 0.205,
      "velocity": 1,
      "hand": "left"
    },
    {
      "midi": 76,
      "time": 235.479,
      "duration": 0.205,
      "velocity": 1,
      "hand": "right"
    },
    {
      "midi": 60,
      "time": 235.685,
      "duration": 0.205,
      "velocity": 1,
      "hand": "right"
    },
    {
      "midi": 72,
      "time": 235.685,
      "duration": 0.205,
      "velocity": 1,
      "hand": "right"
    },
    {
      "midi": 53,
      "time": 235.89,
      "duration": 0.205,
      "velocity": 1,
      "hand": "left"
    },
    {
      "midi": 81,
      "time": 235.89,
      "duration": 0.411,
      "velocity": 1,
      "hand": "right"
    },
    {
      "midi": 60,
      "time": 236.096,
      "duration": 0.205,
      "velocity": 1,
      "hand": "right"
    },
    {
      "midi": 52,
      "time": 236.301,
      "duration": 0.205,
      "velocity": 1,
      "hand": "left"
    },
    {
      "midi": 55,
      "time": 236.301,
      "duration": 0.205,
      "velocity": 1,
      "hand": "left"
    },
    {
      "midi": 61,
      "time": 236.301,
      "duration": 0.205,
      "velocity": 1,
      "hand": "right"
    },
    {
      "midi": 70,
      "time": 236.301,
      "duration": 0.822,
      "velocity": 1,
      "hand": "right"
    },
    {
      "midi": 82,
      "time": 236.301,
      "duration": 0.822,
      "velocity": 1,
      "hand": "right"
    },
    {
      "midi": 52,
      "time": 236.507,
      "duration": 0.205,
      "velocity": 1,
      "hand": "left"
    },
    {
      "midi": 55,
      "time": 236.507,
      "duration": 0.205,
      "velocity": 1,
      "hand": "left"
    },
    {
      "midi": 61,
      "time": 236.507,
      "duration": 0.205,
      "velocity": 1,
      "hand": "right"
    },
    {
      "midi": 52,
      "time": 236.712,
      "duration": 0.205,
      "velocity": 1,
      "hand": "left"
    },
    {
      "midi": 55,
      "time": 236.712,
      "duration": 0.205,
      "velocity": 1,
      "hand": "left"
    },
    {
      "midi": 61,
      "time": 236.712,
      "duration": 0.205,
      "velocity": 1,
      "hand": "right"
    },
    {
      "midi": 52,
      "time": 236.918,
      "duration": 0.205,
      "velocity": 1,
      "hand": "left"
    },
    {
      "midi": 55,
      "time": 236.918,
      "duration": 0.205,
      "velocity": 1,
      "hand": "left"
    },
    {
      "midi": 61,
      "time": 236.918,
      "duration": 0.205,
      "velocity": 1,
      "hand": "right"
    },
    {
      "midi": 52,
      "time": 237.123,
      "duration": 0.205,
      "velocity": 1,
      "hand": "left"
    },
    {
      "midi": 55,
      "time": 237.123,
      "duration": 0.205,
      "velocity": 1,
      "hand": "left"
    },
    {
      "midi": 61,
      "time": 237.123,
      "duration": 0.205,
      "velocity": 1,
      "hand": "right"
    },
    {
      "midi": 70,
      "time": 237.123,
      "duration": 0.411,
      "velocity": 1,
      "hand": "right"
    },
    {
      "midi": 82,
      "time": 237.123,
      "duration": 0.411,
      "velocity": 1,
      "hand": "right"
    },
    {
      "midi": 52,
      "time": 237.329,
      "duration": 0.205,
      "velocity": 1,
      "hand": "left"
    },
    {
      "midi": 55,
      "time": 237.329,
      "duration": 0.205,
      "velocity": 1,
      "hand": "left"
    },
    {
      "midi": 61,
      "time": 237.329,
      "duration": 0.205,
      "velocity": 1,
      "hand": "right"
    },
    {
      "midi": 52,
      "time": 237.534,
      "duration": 0.205,
      "velocity": 1,
      "hand": "left"
    },
    {
      "midi": 55,
      "time": 237.534,
      "duration": 0.205,
      "velocity": 1,
      "hand": "left"
    },
    {
      "midi": 61,
      "time": 237.534,
      "duration": 0.205,
      "velocity": 1,
      "hand": "right"
    },
    {
      "midi": 70,
      "time": 237.534,
      "duration": 0.411,
      "velocity": 1,
      "hand": "right"
    },
    {
      "midi": 82,
      "time": 237.534,
      "duration": 0.411,
      "velocity": 1,
      "hand": "right"
    },
    {
      "midi": 52,
      "time": 237.74,
      "duration": 0.205,
      "velocity": 1,
      "hand": "left"
    },
    {
      "midi": 55,
      "time": 237.74,
      "duration": 0.205,
      "velocity": 1,
      "hand": "left"
    },
    {
      "midi": 61,
      "time": 237.74,
      "duration": 0.205,
      "velocity": 1,
      "hand": "right"
    },
    {
      "midi": 53,
      "time": 237.945,
      "duration": 0.411,
      "velocity": 1,
      "hand": "left"
    },
    {
      "midi": 57,
      "time": 237.945,
      "duration": 0.411,
      "velocity": 1,
      "hand": "left"
    },
    {
      "midi": 62,
      "time": 237.945,
      "duration": 0.411,
      "velocity": 1,
      "hand": "right"
    },
    {
      "midi": 69,
      "time": 237.945,
      "duration": 0.205,
      "velocity": 1,
      "hand": "right"
    },
    {
      "midi": 81,
      "time": 237.945,
      "duration": 0.205,
      "velocity": 1,
      "hand": "right"
    },
    {
      "midi": 79,
      "time": 238.151,
      "duration": 0.205,
      "velocity": 1,
      "hand": "right"
    },
    {
      "midi": 77,
      "time": 238.356,
      "duration": 0.205,
      "velocity": 1,
      "hand": "right"
    },
    {
      "midi": 76,
      "time": 238.562,
      "duration": 0.205,
      "velocity": 1,
      "hand": "right"
    },
    {
      "midi": 74,
      "time": 238.767,
      "duration": 0.205,
      "velocity": 1,
      "hand": "right"
    },
    {
      "midi": 72,
      "time": 238.973,
      "duration": 0.205,
      "velocity": 1,
      "hand": "right"
    },
    {
      "midi": 71,
      "time": 239.178,
      "duration": 0.205,
      "velocity": 1,
      "hand": "right"
    },
    {
      "midi": 69,
      "time": 239.384,
      "duration": 0.205,
      "velocity": 1,
      "hand": "right"
    },
    {
      "midi": 55,
      "time": 239.589,
      "duration": 0.103,
      "velocity": 1,
      "hand": "left"
    },
    {
      "midi": 67,
      "time": 239.589,
      "duration": 0.205,
      "velocity": 1,
      "hand": "right"
    },
    {
      "midi": 64,
      "time": 239.692,
      "duration": 0.103,
      "velocity": 1,
      "hand": "right"
    },
    {
      "midi": 60,
      "time": 239.795,
      "duration": 0.103,
      "velocity": 1,
      "hand": "right"
    },
    {
      "midi": 69,
      "time": 239.795,
      "duration": 0.103,
      "velocity": 1,
      "hand": "right"
    },
    {
      "midi": 64,
      "time": 239.897,
      "duration": 0.103,
      "velocity": 1,
      "hand": "right"
    },
    {
      "midi": 71,
      "time": 239.897,
      "duration": 0.103,
      "velocity": 1,
      "hand": "right"
    },
    {
      "midi": 55,
      "time": 240,
      "duration": 0.103,
      "velocity": 1,
      "hand": "left"
    },
    {
      "midi": 72,
      "time": 240,
      "duration": 0.103,
      "velocity": 1,
      "hand": "right"
    },
    {
      "midi": 64,
      "time": 240.103,
      "duration": 0.103,
      "velocity": 1,
      "hand": "right"
    },
    {
      "midi": 74,
      "time": 240.103,
      "duration": 0.103,
      "velocity": 1,
      "hand": "right"
    },
    {
      "midi": 60,
      "time": 240.205,
      "duration": 0.103,
      "velocity": 1,
      "hand": "right"
    },
    {
      "midi": 76,
      "time": 240.205,
      "duration": 0.103,
      "velocity": 1,
      "hand": "right"
    },
    {
      "midi": 64,
      "time": 240.308,
      "duration": 0.103,
      "velocity": 1,
      "hand": "right"
    },
    {
      "midi": 77,
      "time": 240.308,
      "duration": 0.103,
      "velocity": 1,
      "hand": "right"
    },
    {
      "midi": 55,
      "time": 240.411,
      "duration": 0.103,
      "velocity": 1,
      "hand": "left"
    },
    {
      "midi": 78,
      "time": 240.411,
      "duration": 0.103,
      "velocity": 1,
      "hand": "right"
    },
    {
      "midi": 64,
      "time": 240.514,
      "duration": 0.103,
      "velocity": 1,
      "hand": "right"
    },
    {
      "midi": 79,
      "time": 240.514,
      "duration": 0.103,
      "velocity": 1,
      "hand": "right"
    },
    {
      "midi": 60,
      "time": 240.616,
      "duration": 0.103,
      "velocity": 1,
      "hand": "right"
    },
    {
      "midi": 81,
      "time": 240.616,
      "duration": 0.103,
      "velocity": 1,
      "hand": "right"
    },
    {
      "midi": 64,
      "time": 240.719,
      "duration": 0.103,
      "velocity": 1,
      "hand": "right"
    },
    {
      "midi": 79,
      "time": 240.719,
      "duration": 0.103,
      "velocity": 1,
      "hand": "right"
    },
    {
      "midi": 55,
      "time": 240.822,
      "duration": 0.103,
      "velocity": 1,
      "hand": "left"
    },
    {
      "midi": 77,
      "time": 240.822,
      "duration": 0.103,
      "velocity": 1,
      "hand": "right"
    },
    {
      "midi": 64,
      "time": 240.925,
      "duration": 0.103,
      "velocity": 1,
      "hand": "right"
    },
    {
      "midi": 76,
      "time": 240.925,
      "duration": 0.103,
      "velocity": 1,
      "hand": "right"
    },
    {
      "midi": 60,
      "time": 241.027,
      "duration": 0.103,
      "velocity": 1,
      "hand": "right"
    },
    {
      "midi": 74,
      "time": 241.027,
      "duration": 0.103,
      "velocity": 1,
      "hand": "right"
    },
    {
      "midi": 64,
      "time": 241.13,
      "duration": 0.103,
      "velocity": 1,
      "hand": "right"
    },
    {
      "midi": 72,
      "time": 241.13,
      "duration": 0.103,
      "velocity": 1,
      "hand": "right"
    },
    {
      "midi": 55,
      "time": 241.233,
      "duration": 0.103,
      "velocity": 1,
      "hand": "left"
    },
    {
      "midi": 74,
      "time": 241.233,
      "duration": 1.644,
      "velocity": 1,
      "hand": "right"
    },
    {
      "midi": 65,
      "time": 241.336,
      "duration": 0.103,
      "velocity": 1,
      "hand": "right"
    },
    {
      "midi": 59,
      "time": 241.438,
      "duration": 0.103,
      "velocity": 1,
      "hand": "left"
    },
    {
      "midi": 65,
      "time": 241.541,
      "duration": 0.103,
      "velocity": 1,
      "hand": "right"
    },
    {
      "midi": 55,
      "time": 241.644,
      "duration": 0.103,
      "velocity": 1,
      "hand": "left"
    },
    {
      "midi": 65,
      "time": 241.747,
      "duration": 0.103,
      "velocity": 1,
      "hand": "right"
    },
    {
      "midi": 59,
      "time": 241.849,
      "duration": 0.103,
      "velocity": 1,
      "hand": "left"
    },
    {
      "midi": 65,
      "time": 241.952,
      "duration": 0.103,
      "velocity": 1,
      "hand": "right"
    },
    {
      "midi": 55,
      "time": 242.055,
      "duration": 0.103,
      "velocity": 1,
      "hand": "left"
    },
    {
      "midi": 65,
      "time": 242.158,
      "duration": 0.103,
      "velocity": 1,
      "hand": "right"
    },
    {
      "midi": 59,
      "time": 242.26,
      "duration": 0.103,
      "velocity": 1,
      "hand": "left"
    },
    {
      "midi": 65,
      "time": 242.363,
      "duration": 0.103,
      "velocity": 1,
      "hand": "right"
    },
    {
      "midi": 55,
      "time": 242.466,
      "duration": 0.103,
      "velocity": 1,
      "hand": "left"
    },
    {
      "midi": 72,
      "time": 242.466,
      "duration": 0.051,
      "velocity": 1,
      "hand": "right"
    },
    {
      "midi": 65,
      "time": 242.568,
      "duration": 0.103,
      "velocity": 1,
      "hand": "right"
    },
    {
      "midi": 59,
      "time": 242.671,
      "duration": 0.103,
      "velocity": 1,
      "hand": "left"
    },
    {
      "midi": 65,
      "time": 242.774,
      "duration": 0.103,
      "velocity": 1,
      "hand": "right"
    },
    {
      "midi": 60,
      "time": 242.877,
      "duration": 0.411,
      "velocity": 1,
      "hand": "right"
    },
    {
      "midi": 64,
      "time": 242.877,
      "duration": 0.411,
      "velocity": 1,
      "hand": "right"
    },
    {
      "midi": 72,
      "time": 242.877,
      "duration": 0.411,
      "velocity": 1,
      "hand": "right"
    },
    {
      "midi": 72,
      "time": 243.288,
      "duration": 0.411,
      "velocity": 1,
      "hand": "right"
    },
    {
      "midi": 76,
      "time": 243.493,
      "duration": 0.205,
      "velocity": 1,
      "hand": "right"
    },
    {
      "midi": 74,
      "time": 243.699,
      "duration": 0.411,
      "velocity": 1,
      "hand": "right"
    },
    {
      "midi": 79,
      "time": 243.699,
      "duration": 0.205,
      "velocity": 1,
      "hand": "right"
    },
    {
      "midi": 77,
      "time": 243.904,
      "duration": 0.205,
      "velocity": 1,
      "hand": "right"
    },
    {
      "midi": 71,
      "time": 244.11,
      "duration": 0.411,
      "velocity": 1,
      "hand": "right"
    },
    {
      "midi": 74,
      "time": 244.315,
      "duration": 0.205,
      "velocity": 1,
      "hand": "right"
    },
    {
      "midi": 72,
      "time": 244.521,
      "duration": 0.411,
      "velocity": 1,
      "hand": "right"
    },
    {
      "midi": 77,
      "time": 244.521,
      "duration": 0.205,
      "velocity": 1,
      "hand": "right"
    },
    {
      "midi": 76,
      "time": 244.726,
      "duration": 0.205,
      "velocity": 1,
      "hand": "right"
    },
    {
      "midi": 69,
      "time": 244.932,
      "duration": 0.411,
      "velocity": 1,
      "hand": "right"
    },
    {
      "midi": 72,
      "time": 245.137,
      "duration": 0.205,
      "velocity": 1,
      "hand": "right"
    },
    {
      "midi": 65,
      "time": 245.342,
      "duration": 0.411,
      "velocity": 1,
      "hand": "right"
    },
    {
      "midi": 76,
      "time": 245.342,
      "duration": 0.205,
      "velocity": 1,
      "hand": "right"
    },
    {
      "midi": 74,
      "time": 245.548,
      "duration": 0.205,
      "velocity": 1,
      "hand": "right"
    },
    {
      "midi": 67,
      "time": 245.753,
      "duration": 0.411,
      "velocity": 1,
      "hand": "right"
    },
    {
      "midi": 71,
      "time": 245.959,
      "duration": 0.205,
      "velocity": 1,
      "hand": "right"
    },
    {
      "midi": 64,
      "time": 246.164,
      "duration": 0.411,
      "velocity": 1,
      "hand": "right"
    },
    {
      "midi": 74,
      "time": 246.164,
      "duration": 0.205,
      "velocity": 1,
      "hand": "right"
    },
    {
      "midi": 72,
      "time": 246.37,
      "duration": 0.205,
      "velocity": 1,
      "hand": "right"
    },
    {
      "midi": 49,
      "time": 246.575,
      "duration": 0.411,
      "velocity": 1,
      "hand": "left"
    },
    {
      "midi": 61,
      "time": 246.575,
      "duration": 0.411,
      "velocity": 1,
      "hand": "right"
    },
    {
      "midi": 76,
      "time": 246.575,
      "duration": 0.103,
      "velocity": 1,
      "hand": "right"
    },
    {
      "midi": 77,
      "time": 246.678,
      "duration": 0.103,
      "velocity": 1,
      "hand": "right"
    },
    {
      "midi": 79,
      "time": 246.781,
      "duration": 0.103,
      "velocity": 1,
      "hand": "right"
    },
    {
      "midi": 76,
      "time": 246.884,
      "duration": 0.103,
      "velocity": 1,
      "hand": "right"
    },
    {
      "midi": 50,
      "time": 246.986,
      "duration": 0.411,
      "velocity": 1,
      "hand": "left"
    },
    {
      "midi": 62,
      "time": 246.986,
      "duration": 0.411,
      "velocity": 1,
      "hand": "right"
    },
    {
      "midi": 77,
      "time": 246.986,
      "duration": 0.103,
      "velocity": 1,
      "hand": "right"
    },
    {
      "midi": 79,
      "time": 247.089,
      "duration": 0.103,
      "velocity": 1,
      "hand": "right"
    },
    {
      "midi": 81,
      "time": 247.192,
      "duration": 0.103,
      "velocity": 1,
      "hand": "right"
    },
    {
      "midi": 77,
      "time": 247.295,
      "duration": 0.103,
      "velocity": 1,
      "hand": "right"
    },
    {
      "midi": 47,
      "time": 247.397,
      "duration": 0.411,
      "velocity": 1,
      "hand": "left"
    },
    {
      "midi": 59,
      "time": 247.397,
      "duration": 0.411,
      "velocity": 1,
      "hand": "left"
    },
    {
      "midi": 74,
      "time": 247.397,
      "duration": 0.103,
      "velocity": 1,
      "hand": "right"
    },
    {
      "midi": 76,
      "time": 247.5,
      "duration": 0.103,
      "velocity": 1,
      "hand": "right"
    },
    {
      "midi": 77,
      "time": 247.603,
      "duration": 0.103,
      "velocity": 1,
      "hand": "right"
    },
    {
      "midi": 74,
      "time": 247.705,
      "duration": 0.103,
      "velocity": 1,
      "hand": "right"
    },
    {
      "midi": 48,
      "time": 247.808,
      "duration": 0.411,
      "velocity": 1,
      "hand": "left"
    },
    {
      "midi": 60,
      "time": 247.808,
      "duration": 0.411,
      "velocity": 1,
      "hand": "right"
    },
    {
      "midi": 76,
      "time": 247.808,
      "duration": 0.103,
      "velocity": 1,
      "hand": "right"
    },
    {
      "midi": 77,
      "time": 247.911,
      "duration": 0.103,
      "velocity": 1,
      "hand": "right"
    },
    {
      "midi": 79,
      "time": 248.014,
      "duration": 0.103,
      "velocity": 1,
      "hand": "right"
    },
    {
      "midi": 76,
      "time": 248.116,
      "duration": 0.103,
      "velocity": 1,
      "hand": "right"
    },
    {
      "midi": 45,
      "time": 248.219,
      "duration": 0.411,
      "velocity": 1,
      "hand": "left"
    },
    {
      "midi": 57,
      "time": 248.219,
      "duration": 0.411,
      "velocity": 1,
      "hand": "left"
    },
    {
      "midi": 72,
      "time": 248.219,
      "duration": 0.103,
      "velocity": 1,
      "hand": "right"
    },
    {
      "midi": 74,
      "time": 248.322,
      "duration": 0.103,
      "velocity": 1,
      "hand": "right"
    },
    {
      "midi": 76,
      "time": 248.425,
      "duration": 0.103,
      "velocity": 1,
      "hand": "right"
    },
    {
      "midi": 72,
      "time": 248.527,
      "duration": 0.103,
      "velocity": 1,
      "hand": "right"
    },
    {
      "midi": 41,
      "time": 248.63,
      "duration": 0.411,
      "velocity": 1,
      "hand": "left"
    },
    {
      "midi": 53,
      "time": 248.63,
      "duration": 0.411,
      "velocity": 1,
      "hand": "left"
    },
    {
      "midi": 74,
      "time": 248.63,
      "duration": 0.103,
      "velocity": 1,
      "hand": "right"
    },
    {
      "midi": 76,
      "time": 248.733,
      "duration": 0.103,
      "velocity": 1,
      "hand": "right"
    },
    {
      "midi": 77,
      "time": 248.836,
      "duration": 0.103,
      "velocity": 1,
      "hand": "right"
    },
    {
      "midi": 74,
      "time": 248.938,
      "duration": 0.103,
      "velocity": 1,
      "hand": "right"
    },
    {
      "midi": 43,
      "time": 249.041,
      "duration": 0.411,
      "velocity": 1,
      "hand": "left"
    },
    {
      "midi": 55,
      "time": 249.041,
      "duration": 0.411,
      "velocity": 1,
      "hand": "left"
    },
    {
      "midi": 71,
      "time": 249.041,
      "duration": 0.103,
      "velocity": 1,
      "hand": "right"
    },
    {
      "midi": 72,
      "time": 249.144,
      "duration": 0.103,
      "velocity": 1,
      "hand": "right"
    },
    {
      "midi": 74,
      "time": 249.247,
      "duration": 0.103,
      "velocity": 1,
      "hand": "right"
    },
    {
      "midi": 71,
      "time": 249.349,
      "duration": 0.103,
      "velocity": 1,
      "hand": "right"
    },
    {
      "midi": 60,
      "time": 249.452,
      "duration": 0.051,
      "velocity": 1,
      "hand": "right"
    },
    {
      "midi": 64,
      "time": 249.452,
      "duration": 0.051,
      "velocity": 1,
      "hand": "right"
    },
    {
      "midi": 36,
      "time": 249.555,
      "duration": 0.822,
      "velocity": 1,
      "hand": "left"
    },
    {
      "midi": 48,
      "time": 249.555,
      "duration": 0.822,
      "velocity": 1,
      "hand": "left"
    },
    {
      "midi": 67,
      "time": 249.555,
      "duration": 0.051,
      "velocity": 1,
      "hand": "right"
    },
    {
      "midi": 72,
      "time": 249.555,
      "duration": 0.822,
      "velocity": 1,
      "hand": "right"
    },
    {
      "midi": 43,
      "time": 250.377,
      "duration": 0.822,
      "velocity": 1,
      "hand": "left"
    },
    {
      "midi": 67,
      "time": 250.377,
      "duration": 0.822,
      "velocity": 1,
      "hand": "right"
    },
    {
      "midi": 52,
      "time": 251.199,
      "duration": 0.616,
      "velocity": 1,
      "hand": "left"
    },
    {
      "midi": 76,
      "time": 251.199,
      "duration": 0.616,
      "velocity": 1,
      "hand": "right"
    },
    {
      "midi": 53,
      "time": 251.815,
      "duration": 0.103,
      "velocity": 1,
      "hand": "left"
    },
    {
      "midi": 77,
      "time": 251.815,
      "duration": 0.103,
      "velocity": 1,
      "hand": "right"
    },
    {
      "midi": 50,
      "time": 251.918,
      "duration": 0.103,
      "velocity": 1,
      "hand": "left"
    },
    {
      "midi": 74,
      "time": 251.918,
      "duration": 0.103,
      "velocity": 1,
      "hand": "right"
    },
    {
      "midi": 48,
      "time": 252.021,
      "duration": 0.411,
      "velocity": 1,
      "hand": "left"
    },
    {
      "midi": 72,
      "time": 252.021,
      "duration": 0.411,
      "velocity": 1,
      "hand": "right"
    },
    {
      "midi": 43,
      "time": 252.432,
      "duration": 0.411,
      "velocity": 1,
      "hand": "left"
    },
    {
      "midi": 55,
      "time": 252.432,
      "duration": 0.411,
      "velocity": 1,
      "hand": "left"
    },
    {
      "midi": 74,
      "time": 252.432,
      "duration": 0.103,
      "velocity": 1,
      "hand": "right"
    },
    {
      "midi": 77,
      "time": 252.534,
      "duration": 0.103,
      "velocity": 1,
      "hand": "right"
    },
    {
      "midi": 79,
      "time": 252.637,
      "duration": 0.103,
      "velocity": 1,
      "hand": "right"
    },
    {
      "midi": 83,
      "time": 252.74,
      "duration": 0.103,
      "velocity": 1,
      "hand": "right"
    },
    {
      "midi": 48,
      "time": 252.842,
      "duration": 0.411,
      "velocity": 1,
      "hand": "left"
    },
    {
      "midi": 60,
      "time": 252.842,
      "duration": 0.411,
      "velocity": 1,
      "hand": "right"
    },
    {
      "midi": 72,
      "time": 252.842,
      "duration": 0.103,
      "velocity": 1,
      "hand": "right"
    },
    {
      "midi": 76,
      "time": 252.945,
      "duration": 0.103,
      "velocity": 1,
      "hand": "right"
    },
    {
      "midi": 79,
      "time": 253.048,
      "duration": 0.103,
      "velocity": 1,
      "hand": "right"
    },
    {
      "midi": 84,
      "time": 253.151,
      "duration": 0.103,
      "velocity": 1,
      "hand": "right"
    },
    {
      "midi": 43,
      "time": 253.253,
      "duration": 0.411,
      "velocity": 1,
      "hand": "left"
    },
    {
      "midi": 55,
      "time": 253.253,
      "duration": 0.411,
      "velocity": 1,
      "hand": "left"
    },
    {
      "midi": 74,
      "time": 253.253,
      "duration": 0.103,
      "velocity": 1,
      "hand": "right"
    },
    {
      "midi": 77,
      "time": 253.356,
      "duration": 0.103,
      "velocity": 1,
      "hand": "right"
    },
    {
      "midi": 79,
      "time": 253.459,
      "duration": 0.103,
      "velocity": 1,
      "hand": "right"
    },
    {
      "midi": 83,
      "time": 253.562,
      "duration": 0.103,
      "velocity": 1,
      "hand": "right"
    },
    {
      "midi": 48,
      "time": 253.664,
      "duration": 0.411,
      "velocity": 1,
      "hand": "left"
    },
    {
      "midi": 60,
      "time": 253.664,
      "duration": 0.411,
      "velocity": 1,
      "hand": "right"
    },
    {
      "midi": 72,
      "time": 253.664,
      "duration": 0.103,
      "velocity": 1,
      "hand": "right"
    },
    {
      "midi": 76,
      "time": 253.767,
      "duration": 0.103,
      "velocity": 1,
      "hand": "right"
    },
    {
      "midi": 79,
      "time": 253.87,
      "duration": 0.103,
      "velocity": 1,
      "hand": "right"
    },
    {
      "midi": 84,
      "time": 253.973,
      "duration": 0.103,
      "velocity": 1,
      "hand": "right"
    },
    {
      "midi": 43,
      "time": 254.075,
      "duration": 0.411,
      "velocity": 1,
      "hand": "left"
    },
    {
      "midi": 55,
      "time": 254.075,
      "duration": 0.411,
      "velocity": 1,
      "hand": "left"
    },
    {
      "midi": 74,
      "time": 254.075,
      "duration": 0.103,
      "velocity": 1,
      "hand": "right"
    },
    {
      "midi": 77,
      "time": 254.178,
      "duration": 0.103,
      "velocity": 1,
      "hand": "right"
    },
    {
      "midi": 79,
      "time": 254.281,
      "duration": 0.103,
      "velocity": 1,
      "hand": "right"
    },
    {
      "midi": 83,
      "time": 254.384,
      "duration": 0.103,
      "velocity": 1,
      "hand": "right"
    },
    {
      "midi": 48,
      "time": 254.486,
      "duration": 0.411,
      "velocity": 1,
      "hand": "left"
    },
    {
      "midi": 60,
      "time": 254.486,
      "duration": 0.411,
      "velocity": 1,
      "hand": "right"
    },
    {
      "midi": 76,
      "time": 254.486,
      "duration": 0.411,
      "velocity": 1,
      "hand": "right"
    },
    {
      "midi": 84,
      "time": 254.486,
      "duration": 0.411,
      "velocity": 1,
      "hand": "right"
    },
    {
      "midi": 36,
      "time": 254.897,
      "duration": 0.411,
      "velocity": 1,
      "hand": "left"
    },
    {
      "midi": 48,
      "time": 254.897,
      "duration": 0.411,
      "velocity": 1,
      "hand": "left"
    },
    {
      "midi": 64,
      "time": 254.897,
      "duration": 0.411,
      "velocity": 1,
      "hand": "right"
    },
    {
      "midi": 67,
      "time": 254.897,
      "duration": 0.411,
      "velocity": 1,
      "hand": "right"
    },
    {
      "midi": 72,
      "time": 254.897,
      "duration": 0.411,
      "velocity": 1,
      "hand": "right"
    },
    {
      "midi": 36,
      "time": 255.308,
      "duration": 0.411,
      "velocity": 1,
      "hand": "left"
    },
    {
      "midi": 48,
      "time": 255.308,
      "duration": 0.411,
      "velocity": 1,
      "hand": "left"
    },
    {
      "midi": 64,
      "time": 255.308,
      "duration": 0.411,
      "velocity": 1,
      "hand": "right"
    },
    {
      "midi": 67,
      "time": 255.308,
      "duration": 0.411,
      "velocity": 1,
      "hand": "right"
    },
    {
      "midi": 72,
      "time": 255.308,
      "duration": 0.411,
      "velocity": 1,
      "hand": "right"
    }
  ],
  "arrangements": {
    "easy": [
      {
        "midi": 72,
        "time": 0.103,
        "duration": 0.822,
        "velocity": 1,
        "hand": "right"
      },
      {
        "midi": 67,
        "time": 0.925,
        "duration": 0.822,
        "velocity": 1,
        "hand": "right"
      },
      {
        "midi": 76,
        "time": 1.747,
        "duration": 0.616,
        "velocity": 1,
        "hand": "right"
      },
      {
        "midi": 77,
        "time": 2.363,
        "duration": 0.205,
        "velocity": 1,
        "hand": "right"
      },
      {
        "midi": 79,
        "time": 3.39,
        "duration": 0.411,
        "velocity": 1,
        "hand": "right"
      },
      {
        "midi": 67,
        "time": 3.596,
        "duration": 0.205,
        "velocity": 1,
        "hand": "right"
      },
      {
        "midi": 67,
        "time": 4.007,
        "duration": 0.205,
        "velocity": 1,
        "hand": "right"
      },
      {
        "midi": 67,
        "time": 4.418,
        "duration": 0.205,
        "velocity": 1,
        "hand": "right"
      },
      {
        "midi": 67,
        "time": 4.829,
        "duration": 0.205,
        "velocity": 1,
        "hand": "right"
      },
      {
        "midi": 77,
        "time": 5.137,
        "duration": 0.308,
        "velocity": 1,
        "hand": "right"
      },
      {
        "midi": 77,
        "time": 5.445,
        "duration": 0.411,
        "velocity": 1,
        "hand": "right"
      },
      {
        "midi": 67,
        "time": 5.651,
        "duration": 0.205,
        "velocity": 1,
        "hand": "right"
      },
      {
        "midi": 67,
        "time": 6.062,
        "duration": 0.205,
        "velocity": 1,
        "hand": "right"
      },
      {
        "midi": 67,
        "time": 6.473,
        "duration": 0.205,
        "velocity": 1,
        "hand": "right"
      },
      {
        "midi": 76,
        "time": 6.781,
        "duration": 0.308,
        "velocity": 1,
        "hand": "right"
      },
      {
        "midi": 76,
        "time": 7.089,
        "duration": 0.411,
        "velocity": 1,
        "hand": "right"
      },
      {
        "midi": 67,
        "time": 7.295,
        "duration": 0.205,
        "velocity": 1,
        "hand": "right"
      },
      {
        "midi": 67,
        "time": 7.705,
        "duration": 0.205,
        "velocity": 1,
        "hand": "right"
      },
      {
        "midi": 79,
        "time": 7.911,
        "duration": 0.205,
        "velocity": 1,
        "hand": "right"
      },
      {
        "midi": 73,
        "time": 8.322,
        "duration": 0.205,
        "velocity": 1,
        "hand": "right"
      },
      {
        "midi": 77,
        "time": 8.733,
        "duration": 0.205,
        "velocity": 1,
        "hand": "right"
      },
      {
        "midi": 73,
        "time": 9.144,
        "duration": 0.205,
        "velocity": 1,
        "hand": "right"
      },
      {
        "midi": 77,
        "time": 9.555,
        "duration": 0.205,
        "velocity": 1,
        "hand": "right"
      },
      {
        "midi": 73,
        "time": 9.966,
        "duration": 0.205,
        "velocity": 1,
        "hand": "right"
      },
      {
        "midi": 77,
        "time": 10.377,
        "duration": 0.205,
        "velocity": 1,
        "hand": "right"
      },
      {
        "midi": 79,
        "time": 10.788,
        "duration": 0.205,
        "velocity": 1,
        "hand": "right"
      },
      {
        "midi": 77,
        "time": 11.199,
        "duration": 0.205,
        "velocity": 1,
        "hand": "right"
      },
      {
        "midi": 72,
        "time": 11.815,
        "duration": 0.822,
        "velocity": 1,
        "hand": "right"
      },
      {
        "midi": 67,
        "time": 12.637,
        "duration": 0.822,
        "velocity": 1,
        "hand": "right"
      },
      {
        "midi": 76,
        "time": 13.459,
        "duration": 0.616,
        "velocity": 1,
        "hand": "right"
      },
      {
        "midi": 77,
        "time": 14.075,
        "duration": 0.205,
        "velocity": 1,
        "hand": "right"
      },
      {
        "midi": 72,
        "time": 14.281,
        "duration": 0.411,
        "velocity": 1,
        "hand": "right"
      },
      {
        "midi": 79,
        "time": 15.103,
        "duration": 0.411,
        "velocity": 1,
        "hand": "right"
      },
      {
        "midi": 79,
        "time": 15.514,
        "duration": 0.411,
        "velocity": 1,
        "hand": "right"
      },
      {
        "midi": 61,
        "time": 15.925,
        "duration": 0.205,
        "velocity": 1,
        "hand": "right"
      },
      {
        "midi": 81,
        "time": 16.336,
        "duration": 0.411,
        "velocity": 1,
        "hand": "right"
      },
      {
        "midi": 79,
        "time": 16.747,
        "duration": 0.205,
        "velocity": 1,
        "hand": "right"
      },
      {
        "midi": 77,
        "time": 17.158,
        "duration": 0.411,
        "velocity": 1,
        "hand": "right"
      },
      {
        "midi": 78,
        "time": 17.774,
        "duration": 0.205,
        "velocity": 1,
        "hand": "right"
      },
      {
        "midi": 79,
        "time": 18.185,
        "duration": 0.205,
        "velocity": 1,
        "hand": "right"
      },
      {
        "midi": 76,
        "time": 18.493,
        "duration": 0.308,
        "velocity": 1,
        "hand": "right"
      },
      {
        "midi": 76,
        "time": 18.801,
        "duration": 0.411,
        "velocity": 1,
        "hand": "right"
      },
      {
        "midi": 67,
        "time": 19.007,
        "duration": 0.205,
        "velocity": 1,
        "hand": "right"
      },
      {
        "midi": 76,
        "time": 19.418,
        "duration": 0.205,
        "velocity": 1,
        "hand": "right"
      },
      {
        "midi": 76,
        "time": 19.829,
        "duration": 0.205,
        "velocity": 1,
        "hand": "right"
      },
      {
        "midi": 74,
        "time": 20.651,
        "duration": 0.205,
        "velocity": 1,
        "hand": "right"
      },
      {
        "midi": 77,
        "time": 21.473,
        "duration": 0.205,
        "velocity": 1,
        "hand": "right"
      },
      {
        "midi": 77,
        "time": 22.295,
        "duration": 0.205,
        "velocity": 1,
        "hand": "right"
      },
      {
        "midi": 84,
        "time": 23.322,
        "duration": 0.205,
        "velocity": 1,
        "hand": "right"
      },
      {
        "midi": 84,
        "time": 23.733,
        "duration": 0.822,
        "velocity": 1,
        "hand": "right"
      },
      {
        "midi": 60,
        "time": 24.349,
        "duration": 0.205,
        "velocity": 1,
        "hand": "right"
      },
      {
        "midi": 83,
        "time": 24.555,
        "duration": 0.205,
        "velocity": 1,
        "hand": "right"
      },
      {
        "midi": 79,
        "time": 24.966,
        "duration": 0.205,
        "velocity": 1,
        "hand": "right"
      },
      {
        "midi": 79,
        "time": 25.377,
        "duration": 0.822,
        "velocity": 1,
        "hand": "right"
      },
      {
        "midi": 60,
        "time": 25.993,
        "duration": 0.205,
        "velocity": 1,
        "hand": "right"
      },
      {
        "midi": 77,
        "time": 26.199,
        "duration": 0.205,
        "velocity": 1,
        "hand": "right"
      },
      {
        "midi": 74,
        "time": 26.712,
        "duration": 0.205,
        "velocity": 1,
        "hand": "right"
      },
      {
        "midi": 76,
        "time": 26.918,
        "duration": 0.205,
        "velocity": 1,
        "hand": "right"
      },
      {
        "midi": 76,
        "time": 27.226,
        "duration": 0.205,
        "velocity": 1,
        "hand": "right"
      },
      {
        "midi": 72,
        "time": 27.432,
        "duration": 0.411,
        "velocity": 1,
        "hand": "right"
      },
      {
        "midi": 71,
        "time": 27.842,
        "duration": 0.411,
        "velocity": 1,
        "hand": "right"
      },
      {
        "midi": 62,
        "time": 28.048,
        "duration": 0.205,
        "velocity": 1,
        "hand": "right"
      },
      {
        "midi": 84,
        "time": 28.459,
        "duration": 0.205,
        "velocity": 1,
        "hand": "right"
      },
      {
        "midi": 60,
        "time": 28.87,
        "duration": 0.205,
        "velocity": 1,
        "hand": "right"
      },
      {
        "midi": 86,
        "time": 29.281,
        "duration": 0.205,
        "velocity": 1,
        "hand": "right"
      },
      {
        "midi": 81,
        "time": 29.692,
        "duration": 0.205,
        "velocity": 1,
        "hand": "right"
      },
      {
        "midi": 79,
        "time": 30.103,
        "duration": 0.205,
        "velocity": 1,
        "hand": "right"
      },
      {
        "midi": 60,
        "time": 30.514,
        "duration": 0.205,
        "velocity": 1,
        "hand": "right"
      },
      {
        "midi": 81,
        "time": 30.925,
        "duration": 0.205,
        "velocity": 1,
        "hand": "right"
      },
      {
        "midi": 76,
        "time": 31.336,
        "duration": 0.308,
        "velocity": 1,
        "hand": "right"
      },
      {
        "midi": 74,
        "time": 31.644,
        "duration": 0.205,
        "velocity": 1,
        "hand": "right"
      },
      {
        "midi": 83,
        "time": 31.952,
        "duration": 0.205,
        "velocity": 1,
        "hand": "right"
      },
      {
        "midi": 79,
        "time": 32.158,
        "duration": 0.205,
        "velocity": 1,
        "hand": "right"
      },
      {
        "midi": 60,
        "time": 32.568,
        "duration": 0.205,
        "velocity": 1,
        "hand": "right"
      },
      {
        "midi": 74,
        "time": 32.774,
        "duration": 0.411,
        "velocity": 1,
        "hand": "right"
      },
      {
        "midi": 72,
        "time": 33.185,
        "duration": 0.411,
        "velocity": 1,
        "hand": "right"
      },
      {
        "midi": 64,
        "time": 33.596,
        "duration": 0.205,
        "velocity": 1,
        "hand": "right"
      },
      {
        "midi": 71,
        "time": 33.904,
        "duration": 0.205,
        "velocity": 1,
        "hand": "right"
      },
      {
        "midi": 75,
        "time": 34.212,
        "duration": 0.205,
        "velocity": 1,
        "hand": "right"
      },
      {
        "midi": 76,
        "time": 34.418,
        "duration": 0.205,
        "velocity": 1,
        "hand": "right"
      },
      {
        "midi": 79,
        "time": 34.829,
        "duration": 0.205,
        "velocity": 1,
        "hand": "right"
      },
      {
        "midi": 84,
        "time": 35.24,
        "duration": 0.205,
        "velocity": 1,
        "hand": "right"
      },
      {
        "midi": 88,
        "time": 35.651,
        "duration": 0.411,
        "velocity": 1,
        "hand": "right"
      },
      {
        "midi": 64,
        "time": 36.062,
        "duration": 0.205,
        "velocity": 1,
        "hand": "right"
      },
      {
        "midi": 86,
        "time": 36.473,
        "duration": 0.411,
        "velocity": 1,
        "hand": "right"
      },
      {
        "midi": 62,
        "time": 36.884,
        "duration": 0.205,
        "velocity": 1,
        "hand": "right"
      },
      {
        "midi": 69,
        "time": 37.192,
        "duration": 0.205,
        "velocity": 1,
        "hand": "right"
      },
      {
        "midi": 73,
        "time": 37.5,
        "duration": 0.205,
        "velocity": 1,
        "hand": "right"
      },
      {
        "midi": 78,
        "time": 37.911,
        "duration": 0.205,
        "velocity": 1,
        "hand": "right"
      },
      {
        "midi": 82,
        "time": 38.322,
        "duration": 0.205,
        "velocity": 1,
        "hand": "right"
      },
      {
        "midi": 85,
        "time": 38.733,
        "duration": 0.205,
        "velocity": 1,
        "hand": "right"
      },
      {
        "midi": 62,
        "time": 39.144,
        "duration": 0.205,
        "velocity": 1,
        "hand": "right"
      },
      {
        "midi": 62,
        "time": 39.555,
        "duration": 0.205,
        "velocity": 1,
        "hand": "right"
      },
      {
        "midi": 62,
        "time": 39.966,
        "duration": 0.205,
        "velocity": 1,
        "hand": "right"
      },
      {
        "midi": 69,
        "time": 40.377,
        "duration": 0.205,
        "velocity": 1,
        "hand": "right"
      },
      {
        "midi": 71,
        "time": 40.788,
        "duration": 0.205,
        "velocity": 1,
        "hand": "right"
      },
      {
        "midi": 77,
        "time": 41.199,
        "duration": 0.205,
        "velocity": 1,
        "hand": "right"
      },
      {
        "midi": 80,
        "time": 41.61,
        "duration": 0.205,
        "velocity": 1,
        "hand": "right"
      },
      {
        "midi": 83,
        "time": 42.021,
        "duration": 0.205,
        "velocity": 1,
        "hand": "right"
      },
      {
        "midi": 62,
        "time": 42.432,
        "duration": 0.205,
        "velocity": 1,
        "hand": "right"
      },
      {
        "midi": 62,
        "time": 42.842,
        "duration": 0.205,
        "velocity": 1,
        "hand": "right"
      },
      {
        "midi": 84,
        "time": 43.048,
        "duration": 0.205,
        "velocity": 1,
        "hand": "right"
      },
      {
        "midi": 79,
        "time": 43.356,
        "duration": 0.205,
        "velocity": 1,
        "hand": "right"
      },
      {
        "midi": 78,
        "time": 43.562,
        "duration": 0.205,
        "velocity": 1,
        "hand": "right"
      },
      {
        "midi": 84,
        "time": 43.87,
        "duration": 0.822,
        "velocity": 1,
        "hand": "right"
      },
      {
        "midi": 62,
        "time": 44.486,
        "duration": 0.205,
        "velocity": 1,
        "hand": "right"
      },
      {
        "midi": 84,
        "time": 44.692,
        "duration": 0.205,
        "velocity": 1,
        "hand": "right"
      },
      {
        "midi": 79,
        "time": 45,
        "duration": 0.205,
        "velocity": 1,
        "hand": "right"
      },
      {
        "midi": 76,
        "time": 45.308,
        "duration": 0.205,
        "velocity": 1,
        "hand": "right"
      },
      {
        "midi": 84,
        "time": 45.514,
        "duration": 0.822,
        "velocity": 1,
        "hand": "right"
      },
      {
        "midi": 62,
        "time": 46.13,
        "duration": 0.205,
        "velocity": 1,
        "hand": "right"
      },
      {
        "midi": 83,
        "time": 46.336,
        "duration": 0.205,
        "velocity": 1,
        "hand": "right"
      },
      {
        "midi": 83,
        "time": 46.644,
        "duration": 0.205,
        "velocity": 1,
        "hand": "right"
      },
      {
        "midi": 78,
        "time": 46.952,
        "duration": 0.205,
        "velocity": 1,
        "hand": "right"
      },
      {
        "midi": 79,
        "time": 47.158,
        "duration": 0.205,
        "velocity": 1,
        "hand": "right"
      },
      {
        "midi": 79,
        "time": 47.466,
        "duration": 0.205,
        "velocity": 1,
        "hand": "right"
      },
      {
        "midi": 75,
        "time": 47.774,
        "duration": 0.205,
        "velocity": 1,
        "hand": "right"
      },
      {
        "midi": 75,
        "time": 48.082,
        "duration": 0.205,
        "velocity": 1,
        "hand": "right"
      },
      {
        "midi": 76,
        "time": 48.288,
        "duration": 0.205,
        "velocity": 1,
        "hand": "right"
      },
      {
        "midi": 71,
        "time": 48.596,
        "duration": 0.205,
        "velocity": 1,
        "hand": "right"
      },
      {
        "midi": 71,
        "time": 48.904,
        "duration": 0.205,
        "velocity": 1,
        "hand": "right"
      },
      {
        "midi": 72,
        "time": 49.11,
        "duration": 0.205,
        "velocity": 1,
        "hand": "right"
      },
      {
        "midi": 68,
        "time": 49.418,
        "duration": 0.205,
        "velocity": 1,
        "hand": "right"
      },
      {
        "midi": 71,
        "time": 49.932,
        "duration": 0.205,
        "velocity": 1,
        "hand": "right"
      },
      {
        "midi": 71,
        "time": 50.342,
        "duration": 0.205,
        "velocity": 1,
        "hand": "right"
      },
      {
        "midi": 67,
        "time": 50.753,
        "duration": 0.205,
        "velocity": 1,
        "hand": "right"
      },
      {
        "midi": 64,
        "time": 51.164,
        "duration": 0.205,
        "velocity": 1,
        "hand": "right"
      },
      {
        "midi": 66,
        "time": 51.473,
        "duration": 0.205,
        "velocity": 1,
        "hand": "right"
      },
      {
        "midi": 74,
        "time": 51.884,
        "duration": 0.205,
        "velocity": 1,
        "hand": "right"
      },
      {
        "midi": 61,
        "time": 52.911,
        "duration": 0.205,
        "velocity": 1,
        "hand": "right"
      },
      {
        "midi": 61,
        "time": 53.322,
        "duration": 0.205,
        "velocity": 1,
        "hand": "right"
      },
      {
        "midi": 61,
        "time": 53.733,
        "duration": 0.205,
        "velocity": 1,
        "hand": "right"
      },
      {
        "midi": 61,
        "time": 54.144,
        "duration": 0.205,
        "velocity": 1,
        "hand": "right"
      },
      {
        "midi": 60,
        "time": 54.555,
        "duration": 0.205,
        "velocity": 1,
        "hand": "right"
      },
      {
        "midi": 62,
        "time": 55.171,
        "duration": 0.205,
        "velocity": 1,
        "hand": "right"
      },
      {
        "midi": 60,
        "time": 55.377,
        "duration": 0.205,
        "velocity": 1,
        "hand": "right"
      },
      {
        "midi": 62,
        "time": 55.993,
        "duration": 0.205,
        "velocity": 1,
        "hand": "right"
      },
      {
        "midi": 83,
        "time": 56.199,
        "duration": 0.205,
        "velocity": 1,
        "hand": "right"
      },
      {
        "midi": 86,
        "time": 56.61,
        "duration": 0.205,
        "velocity": 1,
        "hand": "right"
      },
      {
        "midi": 79,
        "time": 57.021,
        "duration": 0.822,
        "velocity": 1,
        "hand": "right"
      },
      {
        "midi": 62,
        "time": 57.637,
        "duration": 0.205,
        "velocity": 1,
        "hand": "right"
      },
      {
        "midi": 83,
        "time": 58.048,
        "duration": 0.205,
        "velocity": 1,
        "hand": "right"
      },
      {
        "midi": 81,
        "time": 58.459,
        "duration": 0.205,
        "velocity": 1,
        "hand": "right"
      },
      {
        "midi": 62,
        "time": 58.87,
        "duration": 0.205,
        "velocity": 1,
        "hand": "right"
      },
      {
        "midi": 62,
        "time": 59.281,
        "duration": 0.205,
        "velocity": 1,
        "hand": "right"
      },
      {
        "midi": 78,
        "time": 59.589,
        "duration": 0.205,
        "velocity": 1,
        "hand": "right"
      },
      {
        "midi": 76,
        "time": 59.897,
        "duration": 0.205,
        "velocity": 1,
        "hand": "right"
      },
      {
        "midi": 62,
        "time": 60.103,
        "duration": 0.205,
        "velocity": 1,
        "hand": "right"
      },
      {
        "midi": 72,
        "time": 60.411,
        "duration": 0.205,
        "velocity": 1,
        "hand": "right"
      },
      {
        "midi": 62,
        "time": 60.925,
        "duration": 0.205,
        "velocity": 1,
        "hand": "right"
      },
      {
        "midi": 71,
        "time": 61.233,
        "duration": 0.205,
        "velocity": 1,
        "hand": "right"
      },
      {
        "midi": 69,
        "time": 61.541,
        "duration": 0.205,
        "velocity": 1,
        "hand": "right"
      },
      {
        "midi": 61,
        "time": 61.747,
        "duration": 0.205,
        "velocity": 1,
        "hand": "right"
      },
      {
        "midi": 69,
        "time": 62.055,
        "duration": 0.205,
        "velocity": 1,
        "hand": "right"
      },
      {
        "midi": 60,
        "time": 62.363,
        "duration": 0.205,
        "velocity": 1,
        "hand": "right"
      },
      {
        "midi": 83,
        "time": 62.774,
        "duration": 0.205,
        "velocity": 1,
        "hand": "right"
      },
      {
        "midi": 86,
        "time": 63.185,
        "duration": 0.205,
        "velocity": 1,
        "hand": "right"
      },
      {
        "midi": 79,
        "time": 63.596,
        "duration": 0.822,
        "velocity": 1,
        "hand": "right"
      },
      {
        "midi": 62,
        "time": 64.212,
        "duration": 0.205,
        "velocity": 1,
        "hand": "right"
      },
      {
        "midi": 81,
        "time": 64.418,
        "duration": 0.205,
        "velocity": 1,
        "hand": "right"
      },
      {
        "midi": 84,
        "time": 64.829,
        "duration": 0.205,
        "velocity": 1,
        "hand": "right"
      },
      {
        "midi": 78,
        "time": 65.24,
        "duration": 0.822,
        "velocity": 1,
        "hand": "right"
      },
      {
        "midi": 62,
        "time": 65.856,
        "duration": 0.205,
        "velocity": 1,
        "hand": "right"
      },
      {
        "midi": 79,
        "time": 66.062,
        "duration": 0.205,
        "velocity": 1,
        "hand": "right"
      },
      {
        "midi": 76,
        "time": 66.473,
        "duration": 0.205,
        "velocity": 1,
        "hand": "right"
      },
      {
        "midi": 71,
        "time": 66.884,
        "duration": 0.205,
        "velocity": 1,
        "hand": "right"
      },
      {
        "midi": 62,
        "time": 67.5,
        "duration": 0.205,
        "velocity": 1,
        "hand": "right"
      },
      {
        "midi": 71,
        "time": 67.808,
        "duration": 0.205,
        "velocity": 1,
        "hand": "right"
      },
      {
        "midi": 69,
        "time": 68.116,
        "duration": 0.205,
        "velocity": 1,
        "hand": "right"
      },
      {
        "midi": 61,
        "time": 68.322,
        "duration": 0.205,
        "velocity": 1,
        "hand": "right"
      },
      {
        "midi": 74,
        "time": 68.63,
        "duration": 0.205,
        "velocity": 1,
        "hand": "right"
      },
      {
        "midi": 60,
        "time": 69.144,
        "duration": 0.205,
        "velocity": 1,
        "hand": "right"
      },
      {
        "midi": 84,
        "time": 70.171,
        "duration": 0.205,
        "velocity": 1,
        "hand": "right"
      },
      {
        "midi": 83,
        "time": 70.377,
        "duration": 0.205,
        "velocity": 1,
        "hand": "right"
      },
      {
        "midi": 79,
        "time": 70.788,
        "duration": 0.205,
        "velocity": 1,
        "hand": "right"
      },
      {
        "midi": 86,
        "time": 71.815,
        "duration": 0.205,
        "velocity": 1,
        "hand": "right"
      },
      {
        "midi": 84,
        "time": 72.021,
        "duration": 0.205,
        "velocity": 1,
        "hand": "right"
      },
      {
        "midi": 81,
        "time": 72.432,
        "duration": 0.205,
        "velocity": 1,
        "hand": "right"
      },
      {
        "midi": 84,
        "time": 72.74,
        "duration": 0.205,
        "velocity": 1,
        "hand": "right"
      },
      {
        "midi": 79,
        "time": 73.048,
        "duration": 0.205,
        "velocity": 1,
        "hand": "right"
      },
      {
        "midi": 81,
        "time": 73.459,
        "duration": 0.205,
        "velocity": 1,
        "hand": "right"
      },
      {
        "midi": 81,
        "time": 73.767,
        "duration": 0.205,
        "velocity": 1,
        "hand": "right"
      },
      {
        "midi": 86,
        "time": 74.281,
        "duration": 0.822,
        "velocity": 1,
        "hand": "right"
      },
      {
        "midi": 84,
        "time": 75.103,
        "duration": 0.205,
        "velocity": 1,
        "hand": "right"
      },
      {
        "midi": 83,
        "time": 75.411,
        "duration": 0.205,
        "velocity": 1,
        "hand": "right"
      },
      {
        "midi": 81,
        "time": 75.719,
        "duration": 0.205,
        "velocity": 1,
        "hand": "right"
      },
      {
        "midi": 88,
        "time": 75.925,
        "duration": 0.822,
        "velocity": 1,
        "hand": "right"
      },
      {
        "midi": 86,
        "time": 76.747,
        "duration": 0.205,
        "velocity": 1,
        "hand": "right"
      },
      {
        "midi": 84,
        "time": 77.055,
        "duration": 0.205,
        "velocity": 1,
        "hand": "right"
      },
      {
        "midi": 83,
        "time": 77.363,
        "duration": 0.205,
        "velocity": 1,
        "hand": "right"
      },
      {
        "midi": 79,
        "time": 77.774,
        "duration": 0.205,
        "velocity": 1,
        "hand": "right"
      },
      {
        "midi": 67,
        "time": 78.185,
        "duration": 0.205,
        "velocity": 1,
        "hand": "right"
      },
      {
        "midi": 79,
        "time": 78.596,
        "duration": 0.205,
        "velocity": 1,
        "hand": "right"
      },
      {
        "midi": 67,
        "time": 79.007,
        "duration": 0.205,
        "velocity": 1,
        "hand": "right"
      },
      {
        "midi": 79,
        "time": 79.418,
        "duration": 0.205,
        "velocity": 1,
        "hand": "right"
      },
      {
        "midi": 67,
        "time": 79.829,
        "duration": 0.205,
        "velocity": 1,
        "hand": "right"
      },
      {
        "midi": 79,
        "time": 80.24,
        "duration": 0.205,
        "velocity": 1,
        "hand": "right"
      },
      {
        "midi": 67,
        "time": 80.651,
        "duration": 0.205,
        "velocity": 1,
        "hand": "right"
      },
      {
        "midi": 68,
        "time": 81.062,
        "duration": 0.205,
        "velocity": 1,
        "hand": "right"
      },
      {
        "midi": 68,
        "time": 81.473,
        "duration": 0.205,
        "velocity": 1,
        "hand": "right"
      },
      {
        "midi": 68,
        "time": 81.884,
        "duration": 0.205,
        "velocity": 1,
        "hand": "right"
      },
      {
        "midi": 68,
        "time": 82.295,
        "duration": 0.205,
        "velocity": 1,
        "hand": "right"
      },
      {
        "midi": 86,
        "time": 82.705,
        "duration": 0.205,
        "velocity": 1,
        "hand": "right"
      },
      {
        "midi": 84,
        "time": 82.911,
        "duration": 0.205,
        "velocity": 1,
        "hand": "right"
      },
      {
        "midi": 81,
        "time": 83.322,
        "duration": 0.205,
        "velocity": 1,
        "hand": "right"
      },
      {
        "midi": 78,
        "time": 83.733,
        "duration": 0.205,
        "velocity": 1,
        "hand": "right"
      },
      {
        "midi": 74,
        "time": 84.144,
        "duration": 0.205,
        "velocity": 1,
        "hand": "right"
      },
      {
        "midi": 78,
        "time": 84.452,
        "duration": 0.205,
        "velocity": 1,
        "hand": "right"
      },
      {
        "midi": 81,
        "time": 84.658,
        "duration": 0.205,
        "velocity": 1,
        "hand": "right"
      },
      {
        "midi": 86,
        "time": 84.966,
        "duration": 0.205,
        "velocity": 1,
        "hand": "right"
      },
      {
        "midi": 84,
        "time": 85.274,
        "duration": 0.205,
        "velocity": 1,
        "hand": "right"
      },
      {
        "midi": 81,
        "time": 85.582,
        "duration": 0.205,
        "velocity": 1,
        "hand": "right"
      },
      {
        "midi": 60,
        "time": 86.096,
        "duration": 0.205,
        "velocity": 1,
        "hand": "right"
      },
      {
        "midi": 60,
        "time": 86.507,
        "duration": 0.205,
        "velocity": 1,
        "hand": "right"
      },
      {
        "midi": 60,
        "time": 86.918,
        "duration": 0.205,
        "velocity": 1,
        "hand": "right"
      },
      {
        "midi": 60,
        "time": 87.329,
        "duration": 0.205,
        "velocity": 1,
        "hand": "right"
      },
      {
        "midi": 67,
        "time": 87.842,
        "duration": 0.411,
        "velocity": 1,
        "hand": "right"
      },
      {
        "midi": 71,
        "time": 88.048,
        "duration": 0.205,
        "velocity": 1,
        "hand": "right"
      },
      {
        "midi": 72,
        "time": 88.459,
        "duration": 0.205,
        "velocity": 1,
        "hand": "right"
      },
      {
        "midi": 69,
        "time": 88.87,
        "duration": 0.205,
        "velocity": 1,
        "hand": "right"
      },
      {
        "midi": 71,
        "time": 89.281,
        "duration": 0.205,
        "velocity": 1,
        "hand": "right"
      },
      {
        "midi": 67,
        "time": 89.692,
        "duration": 0.205,
        "velocity": 1,
        "hand": "right"
      },
      {
        "midi": 69,
        "time": 90.103,
        "duration": 0.205,
        "velocity": 1,
        "hand": "right"
      },
      {
        "midi": 66,
        "time": 90.514,
        "duration": 0.205,
        "velocity": 1,
        "hand": "right"
      },
      {
        "midi": 67,
        "time": 90.925,
        "duration": 0.205,
        "velocity": 1,
        "hand": "right"
      },
      {
        "midi": 72,
        "time": 91.233,
        "duration": 0.205,
        "velocity": 1,
        "hand": "right"
      },
      {
        "midi": 72,
        "time": 91.541,
        "duration": 0.205,
        "velocity": 1,
        "hand": "right"
      },
      {
        "midi": 76,
        "time": 91.747,
        "duration": 0.205,
        "velocity": 1,
        "hand": "right"
      },
      {
        "midi": 83,
        "time": 92.055,
        "duration": 0.205,
        "velocity": 1,
        "hand": "right"
      },
      {
        "midi": 83,
        "time": 92.363,
        "duration": 0.205,
        "velocity": 1,
        "hand": "right"
      },
      {
        "midi": 83,
        "time": 92.671,
        "duration": 0.205,
        "velocity": 1,
        "hand": "right"
      },
      {
        "midi": 69,
        "time": 92.877,
        "duration": 0.205,
        "velocity": 1,
        "hand": "right"
      },
      {
        "midi": 69,
        "time": 93.185,
        "duration": 0.205,
        "velocity": 1,
        "hand": "right"
      },
      {
        "midi": 69,
        "time": 93.493,
        "duration": 0.205,
        "velocity": 1,
        "hand": "right"
      },
      {
        "midi": 79,
        "time": 93.699,
        "duration": 0.205,
        "velocity": 1,
        "hand": "right"
      },
      {
        "midi": 79,
        "time": 94.007,
        "duration": 0.411,
        "velocity": 1,
        "hand": "right"
      },
      {
        "midi": 83,
        "time": 94.418,
        "duration": 0.411,
        "velocity": 1,
        "hand": "right"
      },
      {
        "midi": 79,
        "time": 94.829,
        "duration": 0.411,
        "velocity": 1,
        "hand": "right"
      },
      {
        "midi": 67,
        "time": 95.753,
        "duration": 0.822,
        "velocity": 1,
        "hand": "right"
      },
      {
        "midi": 62,
        "time": 96.575,
        "duration": 0.822,
        "velocity": 1,
        "hand": "right"
      },
      {
        "midi": 70,
        "time": 97.397,
        "duration": 0.616,
        "velocity": 1,
        "hand": "right"
      },
      {
        "midi": 72,
        "time": 98.014,
        "duration": 0.205,
        "velocity": 1,
        "hand": "right"
      },
      {
        "midi": 74,
        "time": 99.041,
        "duration": 0.616,
        "velocity": 1,
        "hand": "right"
      },
      {
        "midi": 75,
        "time": 99.658,
        "duration": 0.205,
        "velocity": 1,
        "hand": "right"
      },
      {
        "midi": 82,
        "time": 100.685,
        "duration": 0.616,
        "velocity": 1,
        "hand": "right"
      },
      {
        "midi": 84,
        "time": 101.301,
        "duration": 0.205,
        "velocity": 1,
        "hand": "right"
      },
      {
        "midi": 79,
        "time": 101.507,
        "duration": 0.411,
        "velocity": 1,
        "hand": "right"
      },
      {
        "midi": 62,
        "time": 102.329,
        "duration": 0.205,
        "velocity": 1,
        "hand": "right"
      },
      {
        "midi": 79,
        "time": 102.74,
        "duration": 0.411,
        "velocity": 1,
        "hand": "right"
      },
      {
        "midi": 86,
        "time": 103.151,
        "duration": 0.411,
        "velocity": 1,
        "hand": "right"
      },
      {
        "midi": 88,
        "time": 103.562,
        "duration": 0.411,
        "velocity": 1,
        "hand": "right"
      },
      {
        "midi": 86,
        "time": 103.973,
        "duration": 0.822,
        "velocity": 1,
        "hand": "right"
      },
      {
        "midi": 64,
        "time": 104.384,
        "duration": 0.205,
        "velocity": 1,
        "hand": "right"
      },
      {
        "midi": 85,
        "time": 104.795,
        "duration": 0.411,
        "velocity": 1,
        "hand": "right"
      },
      {
        "midi": 64,
        "time": 105.205,
        "duration": 0.205,
        "velocity": 1,
        "hand": "right"
      },
      {
        "midi": 67,
        "time": 105.411,
        "duration": 0.205,
        "velocity": 1,
        "hand": "right"
      },
      {
        "midi": 67,
        "time": 105.822,
        "duration": 0.205,
        "velocity": 1,
        "hand": "right"
      },
      {
        "midi": 67,
        "time": 106.233,
        "duration": 0.205,
        "velocity": 1,
        "hand": "right"
      },
      {
        "midi": 67,
        "time": 106.644,
        "duration": 0.205,
        "velocity": 1,
        "hand": "right"
      },
      {
        "midi": 67,
        "time": 107.055,
        "duration": 0.205,
        "velocity": 1,
        "hand": "right"
      },
      {
        "midi": 67,
        "time": 107.466,
        "duration": 0.205,
        "velocity": 1,
        "hand": "right"
      },
      {
        "midi": 67,
        "time": 107.877,
        "duration": 0.205,
        "velocity": 1,
        "hand": "right"
      },
      {
        "midi": 67,
        "time": 108.288,
        "duration": 0.205,
        "velocity": 1,
        "hand": "right"
      },
      {
        "midi": 67,
        "time": 108.699,
        "duration": 0.205,
        "velocity": 1,
        "hand": "right"
      },
      {
        "midi": 62,
        "time": 109.11,
        "duration": 0.822,
        "velocity": 1,
        "hand": "right"
      },
      {
        "midi": 65,
        "time": 110.753,
        "duration": 0.616,
        "velocity": 1,
        "hand": "right"
      },
      {
        "midi": 67,
        "time": 111.37,
        "duration": 0.205,
        "velocity": 1,
        "hand": "right"
      },
      {
        "midi": 62,
        "time": 112.603,
        "duration": 0.205,
        "velocity": 1,
        "hand": "right"
      },
      {
        "midi": 62,
        "time": 113.014,
        "duration": 0.205,
        "velocity": 1,
        "hand": "right"
      },
      {
        "midi": 62,
        "time": 113.425,
        "duration": 0.205,
        "velocity": 1,
        "hand": "right"
      },
      {
        "midi": 62,
        "time": 113.836,
        "duration": 0.205,
        "velocity": 1,
        "hand": "right"
      },
      {
        "midi": 62,
        "time": 114.247,
        "duration": 0.205,
        "velocity": 1,
        "hand": "right"
      },
      {
        "midi": 62,
        "time": 114.658,
        "duration": 0.205,
        "velocity": 1,
        "hand": "right"
      },
      {
        "midi": 62,
        "time": 115.068,
        "duration": 0.205,
        "velocity": 1,
        "hand": "right"
      },
      {
        "midi": 62,
        "time": 115.479,
        "duration": 0.205,
        "velocity": 1,
        "hand": "right"
      },
      {
        "midi": 81,
        "time": 115.89,
        "duration": 0.205,
        "velocity": 1,
        "hand": "right"
      },
      {
        "midi": 86,
        "time": 116.096,
        "duration": 0.205,
        "velocity": 1,
        "hand": "right"
      },
      {
        "midi": 88,
        "time": 116.507,
        "duration": 0.205,
        "velocity": 1,
        "hand": "right"
      },
      {
        "midi": 84,
        "time": 116.918,
        "duration": 0.205,
        "velocity": 1,
        "hand": "right"
      },
      {
        "midi": 81,
        "time": 117.329,
        "duration": 0.822,
        "velocity": 1,
        "hand": "right"
      },
      {
        "midi": 62,
        "time": 117.945,
        "duration": 0.205,
        "velocity": 1,
        "hand": "right"
      },
      {
        "midi": 80,
        "time": 118.151,
        "duration": 0.411,
        "velocity": 1,
        "hand": "right"
      },
      {
        "midi": 62,
        "time": 118.767,
        "duration": 0.205,
        "velocity": 1,
        "hand": "right"
      },
      {
        "midi": 84,
        "time": 118.973,
        "duration": 0.822,
        "velocity": 1,
        "hand": "right"
      },
      {
        "midi": 64,
        "time": 119.281,
        "duration": 0.205,
        "velocity": 1,
        "hand": "right"
      },
      {
        "midi": 60,
        "time": 119.589,
        "duration": 0.205,
        "velocity": 1,
        "hand": "right"
      },
      {
        "midi": 81,
        "time": 119.795,
        "duration": 0.822,
        "velocity": 1,
        "hand": "right"
      },
      {
        "midi": 65,
        "time": 120.103,
        "duration": 0.205,
        "velocity": 1,
        "hand": "right"
      },
      {
        "midi": 60,
        "time": 120.411,
        "duration": 0.205,
        "velocity": 1,
        "hand": "right"
      },
      {
        "midi": 66,
        "time": 120.719,
        "duration": 0.205,
        "velocity": 1,
        "hand": "right"
      },
      {
        "midi": 88,
        "time": 121.233,
        "duration": 0.205,
        "velocity": 1,
        "hand": "right"
      },
      {
        "midi": 64,
        "time": 121.541,
        "duration": 0.205,
        "velocity": 1,
        "hand": "right"
      },
      {
        "midi": 64,
        "time": 122.158,
        "duration": 0.205,
        "velocity": 1,
        "hand": "right"
      },
      {
        "midi": 62,
        "time": 122.568,
        "duration": 0.205,
        "velocity": 1,
        "hand": "right"
      },
      {
        "midi": 79,
        "time": 123.082,
        "duration": 0.822,
        "velocity": 1,
        "hand": "right"
      },
      {
        "midi": 63,
        "time": 123.39,
        "duration": 0.205,
        "velocity": 1,
        "hand": "right"
      },
      {
        "midi": 85,
        "time": 123.904,
        "duration": 0.616,
        "velocity": 1,
        "hand": "right"
      },
      {
        "midi": 64,
        "time": 124.212,
        "duration": 0.205,
        "velocity": 1,
        "hand": "right"
      },
      {
        "midi": 86,
        "time": 124.726,
        "duration": 0.411,
        "velocity": 1,
        "hand": "right"
      },
      {
        "midi": 62,
        "time": 125.034,
        "duration": 0.205,
        "velocity": 1,
        "hand": "right"
      },
      {
        "midi": 83,
        "time": 125.548,
        "duration": 0.616,
        "velocity": 1,
        "hand": "right"
      },
      {
        "midi": 62,
        "time": 125.856,
        "duration": 0.205,
        "velocity": 1,
        "hand": "right"
      },
      {
        "midi": 84,
        "time": 126.37,
        "duration": 0.411,
        "velocity": 1,
        "hand": "right"
      },
      {
        "midi": 60,
        "time": 126.678,
        "duration": 0.205,
        "velocity": 1,
        "hand": "right"
      },
      {
        "midi": 80,
        "time": 127.192,
        "duration": 0.616,
        "velocity": 1,
        "hand": "right"
      },
      {
        "midi": 81,
        "time": 127.808,
        "duration": 0.205,
        "velocity": 1,
        "hand": "right"
      },
      {
        "midi": 81,
        "time": 129.041,
        "duration": 0.205,
        "velocity": 1,
        "hand": "right"
      },
      {
        "midi": 84,
        "time": 129.247,
        "duration": 0.205,
        "velocity": 1,
        "hand": "right"
      },
      {
        "midi": 81,
        "time": 129.658,
        "duration": 0.205,
        "velocity": 1,
        "hand": "right"
      },
      {
        "midi": 78,
        "time": 130.068,
        "duration": 0.205,
        "velocity": 1,
        "hand": "right"
      },
      {
        "midi": 72,
        "time": 130.274,
        "duration": 0.205,
        "velocity": 1,
        "hand": "right"
      },
      {
        "midi": 69,
        "time": 130.685,
        "duration": 0.205,
        "velocity": 1,
        "hand": "right"
      },
      {
        "midi": 66,
        "time": 131.096,
        "duration": 0.205,
        "velocity": 1,
        "hand": "right"
      },
      {
        "midi": 63,
        "time": 131.507,
        "duration": 0.205,
        "velocity": 1,
        "hand": "right"
      },
      {
        "midi": 60,
        "time": 132.123,
        "duration": 0.205,
        "velocity": 1,
        "hand": "right"
      },
      {
        "midi": 80,
        "time": 133.356,
        "duration": 0.411,
        "velocity": 1,
        "hand": "right"
      },
      {
        "midi": 81,
        "time": 133.767,
        "duration": 0.411,
        "velocity": 1,
        "hand": "right"
      },
      {
        "midi": 69,
        "time": 134.178,
        "duration": 0.411,
        "velocity": 1,
        "hand": "right"
      },
      {
        "midi": 72,
        "time": 134.384,
        "duration": 0.205,
        "velocity": 1,
        "hand": "right"
      },
      {
        "midi": 74,
        "time": 134.795,
        "duration": 0.205,
        "velocity": 1,
        "hand": "right"
      },
      {
        "midi": 71,
        "time": 135.205,
        "duration": 0.205,
        "velocity": 1,
        "hand": "right"
      },
      {
        "midi": 74,
        "time": 135.411,
        "duration": 0.205,
        "velocity": 1,
        "hand": "right"
      },
      {
        "midi": 65,
        "time": 135.822,
        "duration": 0.411,
        "velocity": 1,
        "hand": "right"
      },
      {
        "midi": 72,
        "time": 136.233,
        "duration": 0.205,
        "velocity": 1,
        "hand": "right"
      },
      {
        "midi": 64,
        "time": 136.644,
        "duration": 0.411,
        "velocity": 1,
        "hand": "right"
      },
      {
        "midi": 71,
        "time": 137.055,
        "duration": 0.205,
        "velocity": 1,
        "hand": "right"
      },
      {
        "midi": 72,
        "time": 137.466,
        "duration": 0.205,
        "velocity": 1,
        "hand": "right"
      },
      {
        "midi": 72,
        "time": 137.774,
        "duration": 0.205,
        "velocity": 1,
        "hand": "right"
      },
      {
        "midi": 77,
        "time": 138.082,
        "duration": 0.205,
        "velocity": 1,
        "hand": "right"
      },
      {
        "midi": 71,
        "time": 138.288,
        "duration": 0.205,
        "velocity": 1,
        "hand": "right"
      },
      {
        "midi": 71,
        "time": 138.596,
        "duration": 0.205,
        "velocity": 1,
        "hand": "right"
      },
      {
        "midi": 76,
        "time": 138.904,
        "duration": 0.205,
        "velocity": 1,
        "hand": "right"
      },
      {
        "midi": 69,
        "time": 139.11,
        "duration": 0.205,
        "velocity": 1,
        "hand": "right"
      },
      {
        "midi": 69,
        "time": 139.418,
        "duration": 0.205,
        "velocity": 1,
        "hand": "right"
      },
      {
        "midi": 74,
        "time": 139.726,
        "duration": 0.205,
        "velocity": 1,
        "hand": "right"
      },
      {
        "midi": 68,
        "time": 139.932,
        "duration": 0.205,
        "velocity": 1,
        "hand": "right"
      },
      {
        "midi": 68,
        "time": 140.24,
        "duration": 0.205,
        "velocity": 1,
        "hand": "right"
      },
      {
        "midi": 64,
        "time": 141.267,
        "duration": 0.822,
        "velocity": 1,
        "hand": "right"
      },
      {
        "midi": 72,
        "time": 142.089,
        "duration": 0.616,
        "velocity": 1,
        "hand": "right"
      },
      {
        "midi": 74,
        "time": 142.705,
        "duration": 0.205,
        "velocity": 1,
        "hand": "right"
      },
      {
        "midi": 69,
        "time": 142.911,
        "duration": 0.411,
        "velocity": 1,
        "hand": "right"
      },
      {
        "midi": 76,
        "time": 143.733,
        "duration": 0.616,
        "velocity": 1,
        "hand": "right"
      },
      {
        "midi": 77,
        "time": 144.349,
        "duration": 0.205,
        "velocity": 1,
        "hand": "right"
      },
      {
        "midi": 72,
        "time": 144.555,
        "duration": 0.411,
        "velocity": 1,
        "hand": "right"
      },
      {
        "midi": 84,
        "time": 145.377,
        "duration": 0.616,
        "velocity": 1,
        "hand": "right"
      },
      {
        "midi": 86,
        "time": 145.993,
        "duration": 0.205,
        "velocity": 1,
        "hand": "right"
      },
      {
        "midi": 81,
        "time": 146.199,
        "duration": 0.411,
        "velocity": 1,
        "hand": "right"
      },
      {
        "midi": 71,
        "time": 147.226,
        "duration": 0.822,
        "velocity": 1,
        "hand": "right"
      },
      {
        "midi": 67,
        "time": 148.048,
        "duration": 0.822,
        "velocity": 1,
        "hand": "right"
      },
      {
        "midi": 74,
        "time": 148.87,
        "duration": 0.616,
        "velocity": 1,
        "hand": "right"
      },
      {
        "midi": 76,
        "time": 149.486,
        "duration": 0.205,
        "velocity": 1,
        "hand": "right"
      },
      {
        "midi": 71,
        "time": 149.692,
        "duration": 0.411,
        "velocity": 1,
        "hand": "right"
      },
      {
        "midi": 77,
        "time": 150.514,
        "duration": 0.616,
        "velocity": 1,
        "hand": "right"
      },
      {
        "midi": 79,
        "time": 151.13,
        "duration": 0.205,
        "velocity": 1,
        "hand": "right"
      },
      {
        "midi": 74,
        "time": 151.336,
        "duration": 0.411,
        "velocity": 1,
        "hand": "right"
      },
      {
        "midi": 86,
        "time": 152.158,
        "duration": 0.616,
        "velocity": 1,
        "hand": "right"
      },
      {
        "midi": 88,
        "time": 152.774,
        "duration": 0.205,
        "velocity": 1,
        "hand": "right"
      },
      {
        "midi": 72,
        "time": 153.904,
        "duration": 0.822,
        "velocity": 1,
        "hand": "right"
      },
      {
        "midi": 67,
        "time": 154.726,
        "duration": 0.822,
        "velocity": 1,
        "hand": "right"
      },
      {
        "midi": 76,
        "time": 155.548,
        "duration": 0.616,
        "velocity": 1,
        "hand": "right"
      },
      {
        "midi": 77,
        "time": 156.164,
        "duration": 0.205,
        "velocity": 1,
        "hand": "right"
      },
      {
        "midi": 72,
        "time": 156.37,
        "duration": 0.411,
        "velocity": 1,
        "hand": "right"
      },
      {
        "midi": 79,
        "time": 157.192,
        "duration": 0.411,
        "velocity": 1,
        "hand": "right"
      },
      {
        "midi": 79,
        "time": 157.603,
        "duration": 0.411,
        "velocity": 1,
        "hand": "right"
      },
      {
        "midi": 61,
        "time": 158.014,
        "duration": 0.205,
        "velocity": 1,
        "hand": "right"
      },
      {
        "midi": 81,
        "time": 158.425,
        "duration": 0.411,
        "velocity": 1,
        "hand": "right"
      },
      {
        "midi": 79,
        "time": 158.836,
        "duration": 0.205,
        "velocity": 1,
        "hand": "right"
      },
      {
        "midi": 77,
        "time": 159.247,
        "duration": 0.411,
        "velocity": 1,
        "hand": "right"
      },
      {
        "midi": 67,
        "time": 159.863,
        "duration": 0.205,
        "velocity": 1,
        "hand": "right"
      },
      {
        "midi": 67,
        "time": 160.274,
        "duration": 0.205,
        "velocity": 1,
        "hand": "right"
      },
      {
        "midi": 76,
        "time": 160.582,
        "duration": 0.308,
        "velocity": 1,
        "hand": "right"
      },
      {
        "midi": 76,
        "time": 160.89,
        "duration": 0.411,
        "velocity": 1,
        "hand": "right"
      },
      {
        "midi": 67,
        "time": 161.096,
        "duration": 0.205,
        "velocity": 1,
        "hand": "right"
      },
      {
        "midi": 67,
        "time": 161.507,
        "duration": 0.205,
        "velocity": 1,
        "hand": "right"
      },
      {
        "midi": 76,
        "time": 161.918,
        "duration": 0.205,
        "velocity": 1,
        "hand": "right"
      },
      {
        "midi": 74,
        "time": 162.329,
        "duration": 0.205,
        "velocity": 1,
        "hand": "right"
      },
      {
        "midi": 76,
        "time": 162.74,
        "duration": 0.205,
        "velocity": 1,
        "hand": "right"
      },
      {
        "midi": 74,
        "time": 163.151,
        "duration": 0.205,
        "velocity": 1,
        "hand": "right"
      },
      {
        "midi": 76,
        "time": 163.562,
        "duration": 0.205,
        "velocity": 1,
        "hand": "right"
      },
      {
        "midi": 74,
        "time": 163.973,
        "duration": 0.205,
        "velocity": 1,
        "hand": "right"
      },
      {
        "midi": 81,
        "time": 164.384,
        "duration": 0.205,
        "velocity": 1,
        "hand": "right"
      },
      {
        "midi": 76,
        "time": 164.795,
        "duration": 0.205,
        "velocity": 1,
        "hand": "right"
      },
      {
        "midi": 74,
        "time": 165.205,
        "duration": 0.205,
        "velocity": 1,
        "hand": "right"
      },
      {
        "midi": 72,
        "time": 165.616,
        "duration": 0.822,
        "velocity": 1,
        "hand": "right"
      },
      {
        "midi": 67,
        "time": 166.438,
        "duration": 0.822,
        "velocity": 1,
        "hand": "right"
      },
      {
        "midi": 75,
        "time": 167.26,
        "duration": 0.616,
        "velocity": 1,
        "hand": "right"
      },
      {
        "midi": 77,
        "time": 167.877,
        "duration": 0.205,
        "velocity": 1,
        "hand": "right"
      },
      {
        "midi": 78,
        "time": 168.904,
        "duration": 0.205,
        "velocity": 1,
        "hand": "right"
      },
      {
        "midi": 67,
        "time": 169.11,
        "duration": 0.205,
        "velocity": 1,
        "hand": "right"
      },
      {
        "midi": 67,
        "time": 169.521,
        "duration": 0.205,
        "velocity": 1,
        "hand": "right"
      },
      {
        "midi": 72,
        "time": 169.932,
        "duration": 0.205,
        "velocity": 1,
        "hand": "right"
      },
      {
        "midi": 80,
        "time": 170.342,
        "duration": 0.205,
        "velocity": 1,
        "hand": "right"
      },
      {
        "midi": 79,
        "time": 170.548,
        "duration": 0.205,
        "velocity": 1,
        "hand": "right"
      },
      {
        "midi": 77,
        "time": 170.959,
        "duration": 0.411,
        "velocity": 1,
        "hand": "right"
      },
      {
        "midi": 77,
        "time": 171.575,
        "duration": 0.205,
        "velocity": 1,
        "hand": "right"
      },
      {
        "midi": 80,
        "time": 171.781,
        "duration": 0.205,
        "velocity": 1,
        "hand": "right"
      },
      {
        "midi": 77,
        "time": 172.192,
        "duration": 0.205,
        "velocity": 1,
        "hand": "right"
      },
      {
        "midi": 85,
        "time": 172.603,
        "duration": 0.822,
        "velocity": 1,
        "hand": "right"
      },
      {
        "midi": 61,
        "time": 173.014,
        "duration": 0.205,
        "velocity": 1,
        "hand": "right"
      },
      {
        "midi": 76,
        "time": 173.425,
        "duration": 0.411,
        "velocity": 1,
        "hand": "right"
      },
      {
        "midi": 79,
        "time": 173.836,
        "duration": 0.411,
        "velocity": 1,
        "hand": "right"
      },
      {
        "midi": 77,
        "time": 174.247,
        "duration": 0.411,
        "velocity": 1,
        "hand": "right"
      },
      {
        "midi": 60,
        "time": 174.658,
        "duration": 0.205,
        "velocity": 1,
        "hand": "right"
      },
      {
        "midi": 84,
        "time": 175.068,
        "duration": 0.205,
        "velocity": 1,
        "hand": "right"
      },
      {
        "midi": 80,
        "time": 175.274,
        "duration": 0.205,
        "velocity": 1,
        "hand": "right"
      },
      {
        "midi": 78,
        "time": 175.685,
        "duration": 0.205,
        "velocity": 1,
        "hand": "right"
      },
      {
        "midi": 68,
        "time": 176.096,
        "duration": 0.205,
        "velocity": 1,
        "hand": "right"
      },
      {
        "midi": 68,
        "time": 176.507,
        "duration": 0.205,
        "velocity": 1,
        "hand": "right"
      },
      {
        "midi": 68,
        "time": 176.918,
        "duration": 0.205,
        "velocity": 1,
        "hand": "right"
      },
      {
        "midi": 79,
        "time": 177.329,
        "duration": 0.205,
        "velocity": 1,
        "hand": "right"
      },
      {
        "midi": 79,
        "time": 177.74,
        "duration": 0.205,
        "velocity": 1,
        "hand": "right"
      },
      {
        "midi": 79,
        "time": 178.151,
        "duration": 0.205,
        "velocity": 1,
        "hand": "right"
      },
      {
        "midi": 79,
        "time": 178.562,
        "duration": 0.205,
        "velocity": 1,
        "hand": "right"
      },
      {
        "midi": 79,
        "time": 178.973,
        "duration": 0.205,
        "velocity": 1,
        "hand": "right"
      },
      {
        "midi": 79,
        "time": 179.384,
        "duration": 0.205,
        "velocity": 1,
        "hand": "right"
      },
      {
        "midi": 81,
        "time": 179.795,
        "duration": 0.205,
        "velocity": 1,
        "hand": "right"
      },
      {
        "midi": 83,
        "time": 180.205,
        "duration": 0.205,
        "velocity": 1,
        "hand": "right"
      },
      {
        "midi": 84,
        "time": 180.411,
        "duration": 0.205,
        "velocity": 1,
        "hand": "right"
      },
      {
        "midi": 84,
        "time": 180.822,
        "duration": 0.822,
        "velocity": 1,
        "hand": "right"
      },
      {
        "midi": 60,
        "time": 181.438,
        "duration": 0.205,
        "velocity": 1,
        "hand": "right"
      },
      {
        "midi": 83,
        "time": 181.644,
        "duration": 0.205,
        "velocity": 1,
        "hand": "right"
      },
      {
        "midi": 79,
        "time": 182.055,
        "duration": 0.205,
        "velocity": 1,
        "hand": "right"
      },
      {
        "midi": 79,
        "time": 182.466,
        "duration": 0.822,
        "velocity": 1,
        "hand": "right"
      },
      {
        "midi": 60,
        "time": 183.082,
        "duration": 0.205,
        "velocity": 1,
        "hand": "right"
      },
      {
        "midi": 77,
        "time": 183.288,
        "duration": 0.205,
        "velocity": 1,
        "hand": "right"
      },
      {
        "midi": 74,
        "time": 183.801,
        "duration": 0.205,
        "velocity": 1,
        "hand": "right"
      },
      {
        "midi": 76,
        "time": 184.007,
        "duration": 0.205,
        "velocity": 1,
        "hand": "right"
      },
      {
        "midi": 76,
        "time": 184.315,
        "duration": 0.205,
        "velocity": 1,
        "hand": "right"
      },
      {
        "midi": 72,
        "time": 184.521,
        "duration": 0.411,
        "velocity": 1,
        "hand": "right"
      },
      {
        "midi": 71,
        "time": 184.932,
        "duration": 0.411,
        "velocity": 1,
        "hand": "right"
      },
      {
        "midi": 84,
        "time": 185.342,
        "duration": 0.205,
        "velocity": 1,
        "hand": "right"
      },
      {
        "midi": 60,
        "time": 185.959,
        "duration": 0.205,
        "velocity": 1,
        "hand": "right"
      },
      {
        "midi": 86,
        "time": 186.37,
        "duration": 0.205,
        "velocity": 1,
        "hand": "right"
      },
      {
        "midi": 81,
        "time": 186.781,
        "duration": 0.205,
        "velocity": 1,
        "hand": "right"
      },
      {
        "midi": 79,
        "time": 187.192,
        "duration": 0.205,
        "velocity": 1,
        "hand": "right"
      },
      {
        "midi": 60,
        "time": 187.603,
        "duration": 0.205,
        "velocity": 1,
        "hand": "right"
      },
      {
        "midi": 81,
        "time": 188.014,
        "duration": 0.205,
        "velocity": 1,
        "hand": "right"
      },
      {
        "midi": 76,
        "time": 188.425,
        "duration": 0.308,
        "velocity": 1,
        "hand": "right"
      },
      {
        "midi": 74,
        "time": 188.733,
        "duration": 0.205,
        "velocity": 1,
        "hand": "right"
      },
      {
        "midi": 83,
        "time": 189.041,
        "duration": 0.205,
        "velocity": 1,
        "hand": "right"
      },
      {
        "midi": 79,
        "time": 189.247,
        "duration": 0.205,
        "velocity": 1,
        "hand": "right"
      },
      {
        "midi": 60,
        "time": 189.658,
        "duration": 0.205,
        "velocity": 1,
        "hand": "right"
      },
      {
        "midi": 72,
        "time": 190.274,
        "duration": 0.411,
        "velocity": 1,
        "hand": "right"
      },
      {
        "midi": 64,
        "time": 190.685,
        "duration": 0.205,
        "velocity": 1,
        "hand": "right"
      },
      {
        "midi": 71,
        "time": 190.993,
        "duration": 0.205,
        "velocity": 1,
        "hand": "right"
      },
      {
        "midi": 75,
        "time": 191.301,
        "duration": 0.205,
        "velocity": 1,
        "hand": "right"
      },
      {
        "midi": 76,
        "time": 191.507,
        "duration": 0.205,
        "velocity": 1,
        "hand": "right"
      },
      {
        "midi": 79,
        "time": 191.918,
        "duration": 0.205,
        "velocity": 1,
        "hand": "right"
      },
      {
        "midi": 84,
        "time": 192.329,
        "duration": 0.205,
        "velocity": 1,
        "hand": "right"
      },
      {
        "midi": 88,
        "time": 192.74,
        "duration": 0.411,
        "velocity": 1,
        "hand": "right"
      },
      {
        "midi": 64,
        "time": 193.151,
        "duration": 0.205,
        "velocity": 1,
        "hand": "right"
      },
      {
        "midi": 86,
        "time": 193.562,
        "duration": 0.411,
        "velocity": 1,
        "hand": "right"
      },
      {
        "midi": 62,
        "time": 193.973,
        "duration": 0.205,
        "velocity": 1,
        "hand": "right"
      },
      {
        "midi": 69,
        "time": 194.281,
        "duration": 0.205,
        "velocity": 1,
        "hand": "right"
      },
      {
        "midi": 73,
        "time": 194.589,
        "duration": 0.205,
        "velocity": 1,
        "hand": "right"
      },
      {
        "midi": 74,
        "time": 194.795,
        "duration": 0.205,
        "velocity": 1,
        "hand": "right"
      },
      {
        "midi": 79,
        "time": 195.205,
        "duration": 0.205,
        "velocity": 1,
        "hand": "right"
      },
      {
        "midi": 82,
        "time": 195.411,
        "duration": 0.205,
        "velocity": 1,
        "hand": "right"
      },
      {
        "midi": 85,
        "time": 195.822,
        "duration": 0.205,
        "velocity": 1,
        "hand": "right"
      },
      {
        "midi": 62,
        "time": 196.233,
        "duration": 0.205,
        "velocity": 1,
        "hand": "right"
      },
      {
        "midi": 62,
        "time": 196.644,
        "duration": 0.205,
        "velocity": 1,
        "hand": "right"
      },
      {
        "midi": 62,
        "time": 197.055,
        "duration": 0.205,
        "velocity": 1,
        "hand": "right"
      },
      {
        "midi": 69,
        "time": 197.466,
        "duration": 0.205,
        "velocity": 1,
        "hand": "right"
      },
      {
        "midi": 71,
        "time": 197.877,
        "duration": 0.205,
        "velocity": 1,
        "hand": "right"
      },
      {
        "midi": 77,
        "time": 198.288,
        "duration": 0.205,
        "velocity": 1,
        "hand": "right"
      },
      {
        "midi": 80,
        "time": 198.699,
        "duration": 0.205,
        "velocity": 1,
        "hand": "right"
      },
      {
        "midi": 83,
        "time": 199.11,
        "duration": 0.205,
        "velocity": 1,
        "hand": "right"
      },
      {
        "midi": 62,
        "time": 199.521,
        "duration": 0.205,
        "velocity": 1,
        "hand": "right"
      },
      {
        "midi": 62,
        "time": 199.932,
        "duration": 0.205,
        "velocity": 1,
        "hand": "right"
      },
      {
        "midi": 81,
        "time": 200.24,
        "duration": 0.205,
        "velocity": 1,
        "hand": "right"
      },
      {
        "midi": 86,
        "time": 200.548,
        "duration": 0.205,
        "velocity": 1,
        "hand": "right"
      },
      {
        "midi": 79,
        "time": 200.959,
        "duration": 0.205,
        "velocity": 1,
        "hand": "right"
      },
      {
        "midi": 79,
        "time": 201.267,
        "duration": 0.205,
        "velocity": 1,
        "hand": "right"
      },
      {
        "midi": 75,
        "time": 201.575,
        "duration": 0.205,
        "velocity": 1,
        "hand": "right"
      },
      {
        "midi": 76,
        "time": 201.781,
        "duration": 0.205,
        "velocity": 1,
        "hand": "right"
      },
      {
        "midi": 76,
        "time": 202.089,
        "duration": 0.205,
        "velocity": 1,
        "hand": "right"
      },
      {
        "midi": 71,
        "time": 202.397,
        "duration": 0.205,
        "velocity": 1,
        "hand": "right"
      },
      {
        "midi": 72,
        "time": 202.603,
        "duration": 0.205,
        "velocity": 1,
        "hand": "right"
      },
      {
        "midi": 72,
        "time": 202.911,
        "duration": 0.205,
        "velocity": 1,
        "hand": "right"
      },
      {
        "midi": 69,
        "time": 203.219,
        "duration": 0.205,
        "velocity": 1,
        "hand": "right"
      },
      {
        "midi": 71,
        "time": 203.425,
        "duration": 0.205,
        "velocity": 1,
        "hand": "right"
      },
      {
        "midi": 71,
        "time": 203.733,
        "duration": 0.205,
        "velocity": 1,
        "hand": "right"
      },
      {
        "midi": 66,
        "time": 204.041,
        "duration": 0.205,
        "velocity": 1,
        "hand": "right"
      },
      {
        "midi": 67,
        "time": 204.247,
        "duration": 0.205,
        "velocity": 1,
        "hand": "right"
      },
      {
        "midi": 67,
        "time": 204.555,
        "duration": 0.205,
        "velocity": 1,
        "hand": "right"
      },
      {
        "midi": 62,
        "time": 204.863,
        "duration": 0.205,
        "velocity": 1,
        "hand": "right"
      },
      {
        "midi": 62,
        "time": 205.377,
        "duration": 0.205,
        "velocity": 1,
        "hand": "right"
      },
      {
        "midi": 60,
        "time": 205.89,
        "duration": 0.308,
        "velocity": 1,
        "hand": "right"
      },
      {
        "midi": 62,
        "time": 207.021,
        "duration": 0.205,
        "velocity": 1,
        "hand": "right"
      },
      {
        "midi": 67,
        "time": 207.329,
        "duration": 0.205,
        "velocity": 1,
        "hand": "right"
      },
      {
        "midi": 78,
        "time": 208.356,
        "duration": 0.205,
        "velocity": 1,
        "hand": "right"
      },
      {
        "midi": 79,
        "time": 208.562,
        "duration": 0.205,
        "velocity": 1,
        "hand": "right"
      },
      {
        "midi": 79,
        "time": 208.973,
        "duration": 0.205,
        "velocity": 1,
        "hand": "right"
      },
      {
        "midi": 79,
        "time": 209.384,
        "duration": 0.205,
        "velocity": 1,
        "hand": "right"
      },
      {
        "midi": 79,
        "time": 209.795,
        "duration": 0.205,
        "velocity": 1,
        "hand": "right"
      },
      {
        "midi": 79,
        "time": 210.205,
        "duration": 0.205,
        "velocity": 1,
        "hand": "right"
      },
      {
        "midi": 76,
        "time": 210.411,
        "duration": 0.205,
        "velocity": 1,
        "hand": "right"
      },
      {
        "midi": 77,
        "time": 210.822,
        "duration": 0.205,
        "velocity": 1,
        "hand": "right"
      },
      {
        "midi": 74,
        "time": 211.233,
        "duration": 0.205,
        "velocity": 1,
        "hand": "right"
      },
      {
        "midi": 72,
        "time": 211.644,
        "duration": 0.205,
        "velocity": 1,
        "hand": "right"
      },
      {
        "midi": 72,
        "time": 212.055,
        "duration": 0.205,
        "velocity": 1,
        "hand": "right"
      },
      {
        "midi": 76,
        "time": 212.466,
        "duration": 0.205,
        "velocity": 1,
        "hand": "right"
      },
      {
        "midi": 76,
        "time": 212.877,
        "duration": 0.205,
        "velocity": 1,
        "hand": "right"
      },
      {
        "midi": 77,
        "time": 213.288,
        "duration": 0.205,
        "velocity": 1,
        "hand": "right"
      },
      {
        "midi": 77,
        "time": 213.699,
        "duration": 0.205,
        "velocity": 1,
        "hand": "right"
      },
      {
        "midi": 74,
        "time": 214.11,
        "duration": 0.205,
        "velocity": 1,
        "hand": "right"
      },
      {
        "midi": 74,
        "time": 214.521,
        "duration": 0.205,
        "velocity": 1,
        "hand": "right"
      },
      {
        "midi": 76,
        "time": 214.932,
        "duration": 0.205,
        "velocity": 1,
        "hand": "right"
      },
      {
        "midi": 72,
        "time": 215.342,
        "duration": 0.205,
        "velocity": 1,
        "hand": "right"
      },
      {
        "midi": 79,
        "time": 215.548,
        "duration": 0.205,
        "velocity": 1,
        "hand": "right"
      },
      {
        "midi": 62,
        "time": 215.856,
        "duration": 0.205,
        "velocity": 1,
        "hand": "right"
      },
      {
        "midi": 74,
        "time": 216.164,
        "duration": 0.205,
        "velocity": 1,
        "hand": "right"
      },
      {
        "midi": 79,
        "time": 216.37,
        "duration": 0.205,
        "velocity": 1,
        "hand": "right"
      },
      {
        "midi": 64,
        "time": 216.678,
        "duration": 0.205,
        "velocity": 1,
        "hand": "right"
      },
      {
        "midi": 72,
        "time": 216.986,
        "duration": 0.205,
        "velocity": 1,
        "hand": "right"
      },
      {
        "midi": 81,
        "time": 217.192,
        "duration": 0.205,
        "velocity": 1,
        "hand": "right"
      },
      {
        "midi": 67,
        "time": 217.5,
        "duration": 0.205,
        "velocity": 1,
        "hand": "right"
      },
      {
        "midi": 78,
        "time": 217.808,
        "duration": 0.205,
        "velocity": 1,
        "hand": "right"
      },
      {
        "midi": 79,
        "time": 218.014,
        "duration": 0.205,
        "velocity": 1,
        "hand": "right"
      },
      {
        "midi": 77,
        "time": 218.425,
        "duration": 0.205,
        "velocity": 1,
        "hand": "right"
      },
      {
        "midi": 76,
        "time": 218.836,
        "duration": 0.205,
        "velocity": 1,
        "hand": "right"
      },
      {
        "midi": 74,
        "time": 219.863,
        "duration": 0.205,
        "velocity": 1,
        "hand": "right"
      },
      {
        "midi": 77,
        "time": 220.274,
        "duration": 0.205,
        "velocity": 1,
        "hand": "right"
      },
      {
        "midi": 83,
        "time": 220.685,
        "duration": 0.822,
        "velocity": 1,
        "hand": "right"
      },
      {
        "midi": 84,
        "time": 221.507,
        "duration": 0.205,
        "velocity": 1,
        "hand": "right"
      },
      {
        "midi": 81,
        "time": 221.918,
        "duration": 0.205,
        "velocity": 1,
        "hand": "right"
      },
      {
        "midi": 76,
        "time": 222.329,
        "duration": 0.205,
        "velocity": 1,
        "hand": "right"
      },
      {
        "midi": 77,
        "time": 223.151,
        "duration": 0.205,
        "velocity": 1,
        "hand": "right"
      },
      {
        "midi": 74,
        "time": 223.562,
        "duration": 0.205,
        "velocity": 1,
        "hand": "right"
      },
      {
        "midi": 81,
        "time": 223.973,
        "duration": 0.205,
        "velocity": 1,
        "hand": "right"
      },
      {
        "midi": 79,
        "time": 224.795,
        "duration": 0.822,
        "velocity": 1,
        "hand": "right"
      },
      {
        "midi": 77,
        "time": 225.616,
        "duration": 0.205,
        "velocity": 1,
        "hand": "right"
      },
      {
        "midi": 76,
        "time": 225.822,
        "duration": 0.205,
        "velocity": 1,
        "hand": "right"
      },
      {
        "midi": 72,
        "time": 226.233,
        "duration": 0.205,
        "velocity": 1,
        "hand": "right"
      },
      {
        "midi": 79,
        "time": 227.26,
        "duration": 0.205,
        "velocity": 1,
        "hand": "right"
      },
      {
        "midi": 77,
        "time": 227.466,
        "duration": 0.205,
        "velocity": 1,
        "hand": "right"
      },
      {
        "midi": 74,
        "time": 227.877,
        "duration": 0.205,
        "velocity": 1,
        "hand": "right"
      },
      {
        "midi": 77,
        "time": 228.185,
        "duration": 0.205,
        "velocity": 1,
        "hand": "right"
      },
      {
        "midi": 72,
        "time": 228.493,
        "duration": 0.205,
        "velocity": 1,
        "hand": "right"
      },
      {
        "midi": 74,
        "time": 228.904,
        "duration": 0.205,
        "velocity": 1,
        "hand": "right"
      },
      {
        "midi": 77,
        "time": 229.11,
        "duration": 0.205,
        "velocity": 1,
        "hand": "right"
      },
      {
        "midi": 79,
        "time": 229.726,
        "duration": 0.822,
        "velocity": 1,
        "hand": "right"
      },
      {
        "midi": 60,
        "time": 230.034,
        "duration": 0.205,
        "velocity": 1,
        "hand": "right"
      },
      {
        "midi": 77,
        "time": 230.548,
        "duration": 0.205,
        "velocity": 1,
        "hand": "right"
      },
      {
        "midi": 76,
        "time": 230.856,
        "duration": 0.205,
        "velocity": 1,
        "hand": "right"
      },
      {
        "midi": 84,
        "time": 231.37,
        "duration": 0.822,
        "velocity": 1,
        "hand": "right"
      },
      {
        "midi": 65,
        "time": 231.678,
        "duration": 0.205,
        "velocity": 1,
        "hand": "right"
      },
      {
        "midi": 83,
        "time": 232.192,
        "duration": 0.205,
        "velocity": 1,
        "hand": "right"
      },
      {
        "midi": 81,
        "time": 232.5,
        "duration": 0.205,
        "velocity": 1,
        "hand": "right"
      },
      {
        "midi": 79,
        "time": 232.808,
        "duration": 0.205,
        "velocity": 1,
        "hand": "right"
      },
      {
        "midi": 76,
        "time": 233.014,
        "duration": 0.205,
        "velocity": 1,
        "hand": "right"
      },
      {
        "midi": 77,
        "time": 233.425,
        "duration": 0.411,
        "velocity": 1,
        "hand": "right"
      },
      {
        "midi": 76,
        "time": 233.836,
        "duration": 0.205,
        "velocity": 1,
        "hand": "right"
      },
      {
        "midi": 81,
        "time": 234.247,
        "duration": 0.411,
        "velocity": 1,
        "hand": "right"
      },
      {
        "midi": 79,
        "time": 234.658,
        "duration": 0.205,
        "velocity": 1,
        "hand": "right"
      },
      {
        "midi": 77,
        "time": 235.068,
        "duration": 0.411,
        "velocity": 1,
        "hand": "right"
      },
      {
        "midi": 60,
        "time": 235.274,
        "duration": 0.205,
        "velocity": 1,
        "hand": "right"
      },
      {
        "midi": 72,
        "time": 235.685,
        "duration": 0.205,
        "velocity": 1,
        "hand": "right"
      },
      {
        "midi": 60,
        "time": 236.096,
        "duration": 0.205,
        "velocity": 1,
        "hand": "right"
      },
      {
        "midi": 61,
        "time": 236.507,
        "duration": 0.205,
        "velocity": 1,
        "hand": "right"
      },
      {
        "midi": 61,
        "time": 236.918,
        "duration": 0.205,
        "velocity": 1,
        "hand": "right"
      },
      {
        "midi": 61,
        "time": 237.329,
        "duration": 0.205,
        "velocity": 1,
        "hand": "right"
      },
      {
        "midi": 61,
        "time": 237.74,
        "duration": 0.205,
        "velocity": 1,
        "hand": "right"
      },
      {
        "midi": 79,
        "time": 238.151,
        "duration": 0.205,
        "velocity": 1,
        "hand": "right"
      },
      {
        "midi": 76,
        "time": 238.562,
        "duration": 0.205,
        "velocity": 1,
        "hand": "right"
      },
      {
        "midi": 72,
        "time": 238.973,
        "duration": 0.205,
        "velocity": 1,
        "hand": "right"
      },
      {
        "midi": 69,
        "time": 239.384,
        "duration": 0.205,
        "velocity": 1,
        "hand": "right"
      },
      {
        "midi": 64,
        "time": 239.692,
        "duration": 0.205,
        "velocity": 1,
        "hand": "right"
      },
      {
        "midi": 72,
        "time": 240,
        "duration": 0.205,
        "velocity": 1,
        "hand": "right"
      },
      {
        "midi": 77,
        "time": 240.308,
        "duration": 0.205,
        "velocity": 1,
        "hand": "right"
      },
      {
        "midi": 79,
        "time": 240.514,
        "duration": 0.205,
        "velocity": 1,
        "hand": "right"
      },
      {
        "midi": 77,
        "time": 240.822,
        "duration": 0.205,
        "velocity": 1,
        "hand": "right"
      },
      {
        "midi": 72,
        "time": 241.13,
        "duration": 0.205,
        "velocity": 1,
        "hand": "right"
      },
      {
        "midi": 65,
        "time": 241.336,
        "duration": 0.205,
        "velocity": 1,
        "hand": "right"
      },
      {
        "midi": 65,
        "time": 241.747,
        "duration": 0.205,
        "velocity": 1,
        "hand": "right"
      },
      {
        "midi": 65,
        "time": 242.158,
        "duration": 0.205,
        "velocity": 1,
        "hand": "right"
      },
      {
        "midi": 65,
        "time": 242.568,
        "duration": 0.205,
        "velocity": 1,
        "hand": "right"
      },
      {
        "midi": 72,
        "time": 243.288,
        "duration": 0.411,
        "velocity": 1,
        "hand": "right"
      },
      {
        "midi": 79,
        "time": 243.699,
        "duration": 0.205,
        "velocity": 1,
        "hand": "right"
      },
      {
        "midi": 71,
        "time": 244.11,
        "duration": 0.411,
        "velocity": 1,
        "hand": "right"
      },
      {
        "midi": 77,
        "time": 244.521,
        "duration": 0.205,
        "velocity": 1,
        "hand": "right"
      },
      {
        "midi": 69,
        "time": 244.932,
        "duration": 0.411,
        "velocity": 1,
        "hand": "right"
      },
      {
        "midi": 76,
        "time": 245.342,
        "duration": 0.205,
        "velocity": 1,
        "hand": "right"
      },
      {
        "midi": 74,
        "time": 245.548,
        "duration": 0.205,
        "velocity": 1,
        "hand": "right"
      },
      {
        "midi": 71,
        "time": 245.959,
        "duration": 0.205,
        "velocity": 1,
        "hand": "right"
      },
      {
        "midi": 72,
        "time": 246.37,
        "duration": 0.205,
        "velocity": 1,
        "hand": "right"
      },
      {
        "midi": 77,
        "time": 246.678,
        "duration": 0.205,
        "velocity": 1,
        "hand": "right"
      },
      {
        "midi": 76,
        "time": 246.884,
        "duration": 0.205,
        "velocity": 1,
        "hand": "right"
      },
      {
        "midi": 81,
        "time": 247.192,
        "duration": 0.205,
        "velocity": 1,
        "hand": "right"
      },
      {
        "midi": 76,
        "time": 247.5,
        "duration": 0.205,
        "velocity": 1,
        "hand": "right"
      },
      {
        "midi": 76,
        "time": 247.808,
        "duration": 0.205,
        "velocity": 1,
        "hand": "right"
      },
      {
        "midi": 79,
        "time": 248.014,
        "duration": 0.205,
        "velocity": 1,
        "hand": "right"
      },
      {
        "midi": 74,
        "time": 248.322,
        "duration": 0.205,
        "velocity": 1,
        "hand": "right"
      },
      {
        "midi": 74,
        "time": 248.63,
        "duration": 0.205,
        "velocity": 1,
        "hand": "right"
      },
      {
        "midi": 77,
        "time": 248.836,
        "duration": 0.205,
        "velocity": 1,
        "hand": "right"
      },
      {
        "midi": 72,
        "time": 249.144,
        "duration": 0.205,
        "velocity": 1,
        "hand": "right"
      },
      {
        "midi": 72,
        "time": 249.555,
        "duration": 0.822,
        "velocity": 1,
        "hand": "right"
      },
      {
        "midi": 67,
        "time": 250.377,
        "duration": 0.822,
        "velocity": 1,
        "hand": "right"
      },
      {
        "midi": 76,
        "time": 251.199,
        "duration": 0.616,
        "velocity": 1,
        "hand": "right"
      },
      {
        "midi": 77,
        "time": 251.815,
        "duration": 0.205,
        "velocity": 1,
        "hand": "right"
      },
      {
        "midi": 72,
        "time": 252.021,
        "duration": 0.411,
        "velocity": 1,
        "hand": "right"
      },
      {
        "midi": 74,
        "time": 252.432,
        "duration": 0.205,
        "velocity": 1,
        "hand": "right"
      },
      {
        "midi": 83,
        "time": 252.74,
        "duration": 0.205,
        "velocity": 1,
        "hand": "right"
      },
      {
        "midi": 79,
        "time": 253.048,
        "duration": 0.205,
        "velocity": 1,
        "hand": "right"
      },
      {
        "midi": 77,
        "time": 253.356,
        "duration": 0.205,
        "velocity": 1,
        "hand": "right"
      },
      {
        "midi": 83,
        "time": 253.562,
        "duration": 0.205,
        "velocity": 1,
        "hand": "right"
      },
      {
        "midi": 79,
        "time": 253.87,
        "duration": 0.205,
        "velocity": 1,
        "hand": "right"
      },
      {
        "midi": 77,
        "time": 254.178,
        "duration": 0.205,
        "velocity": 1,
        "hand": "right"
      },
      {
        "midi": 83,
        "time": 254.384,
        "duration": 0.205,
        "velocity": 1,
        "hand": "right"
      },
      {
        "midi": 72,
        "time": 254.897,
        "duration": 0.411,
        "velocity": 1,
        "hand": "right"
      },
      {
        "midi": 72,
        "time": 255.308,
        "duration": 0.411,
        "velocity": 1,
        "hand": "right"
      }
    ],
    "medium": [
      {
        "midi": 36,
        "time": 0.103,
        "duration": 0.822,
        "velocity": 1,
        "hand": "left"
      },
      {
        "midi": 48,
        "time": 0.103,
        "duration": 0.822,
        "velocity": 1,
        "hand": "left"
      },
      {
        "midi": 72,
        "time": 0.103,
        "duration": 0.822,
        "velocity": 1,
        "hand": "right"
      },
      {
        "midi": 31,
        "time": 0.925,
        "duration": 0.822,
        "velocity": 1,
        "hand": "left"
      },
      {
        "midi": 43,
        "time": 0.925,
        "duration": 0.822,
        "velocity": 1,
        "hand": "left"
      },
      {
        "midi": 67,
        "time": 0.925,
        "duration": 0.822,
        "velocity": 1,
        "hand": "right"
      },
      {
        "midi": 52,
        "time": 1.747,
        "duration": 0.616,
        "velocity": 1,
        "hand": "left"
      },
      {
        "midi": 76,
        "time": 1.747,
        "duration": 0.616,
        "velocity": 1,
        "hand": "right"
      },
      {
        "midi": 53,
        "time": 2.363,
        "duration": 0.103,
        "velocity": 1,
        "hand": "left"
      },
      {
        "midi": 77,
        "time": 2.363,
        "duration": 0.103,
        "velocity": 1,
        "hand": "right"
      },
      {
        "midi": 50,
        "time": 2.466,
        "duration": 0.103,
        "velocity": 1,
        "hand": "left"
      },
      {
        "midi": 74,
        "time": 2.466,
        "duration": 0.103,
        "velocity": 1,
        "hand": "right"
      },
      {
        "midi": 48,
        "time": 2.568,
        "duration": 0.411,
        "velocity": 1,
        "hand": "left"
      },
      {
        "midi": 72,
        "time": 2.568,
        "duration": 0.411,
        "velocity": 1,
        "hand": "right"
      },
      {
        "midi": 64,
        "time": 3.39,
        "duration": 0.205,
        "velocity": 1,
        "hand": "right"
      },
      {
        "midi": 79,
        "time": 3.39,
        "duration": 0.411,
        "velocity": 1,
        "hand": "right"
      },
      {
        "midi": 67,
        "time": 3.596,
        "duration": 0.205,
        "velocity": 1,
        "hand": "right"
      },
      {
        "midi": 64,
        "time": 3.801,
        "duration": 0.205,
        "velocity": 1,
        "hand": "right"
      },
      {
        "midi": 79,
        "time": 3.801,
        "duration": 0.411,
        "velocity": 1,
        "hand": "right"
      },
      {
        "midi": 67,
        "time": 4.007,
        "duration": 0.205,
        "velocity": 1,
        "hand": "right"
      },
      {
        "midi": 61,
        "time": 4.212,
        "duration": 0.205,
        "velocity": 1,
        "hand": "right"
      },
      {
        "midi": 67,
        "time": 4.418,
        "duration": 0.205,
        "velocity": 1,
        "hand": "right"
      },
      {
        "midi": 61,
        "time": 4.623,
        "duration": 0.205,
        "velocity": 1,
        "hand": "right"
      },
      {
        "midi": 81,
        "time": 4.623,
        "duration": 0.411,
        "velocity": 1,
        "hand": "right"
      },
      {
        "midi": 67,
        "time": 4.829,
        "duration": 0.205,
        "velocity": 1,
        "hand": "right"
      },
      {
        "midi": 62,
        "time": 5.034,
        "duration": 0.205,
        "velocity": 1,
        "hand": "right"
      },
      {
        "midi": 79,
        "time": 5.034,
        "duration": 0.103,
        "velocity": 1,
        "hand": "right"
      },
      {
        "midi": 77,
        "time": 5.137,
        "duration": 0.308,
        "velocity": 1,
        "hand": "right"
      },
      {
        "midi": 67,
        "time": 5.24,
        "duration": 0.205,
        "velocity": 1,
        "hand": "right"
      },
      {
        "midi": 62,
        "time": 5.445,
        "duration": 0.205,
        "velocity": 1,
        "hand": "right"
      },
      {
        "midi": 77,
        "time": 5.445,
        "duration": 0.411,
        "velocity": 1,
        "hand": "right"
      },
      {
        "midi": 67,
        "time": 5.651,
        "duration": 0.205,
        "velocity": 1,
        "hand": "right"
      },
      {
        "midi": 59,
        "time": 5.856,
        "duration": 0.205,
        "velocity": 1,
        "hand": "left"
      },
      {
        "midi": 67,
        "time": 6.062,
        "duration": 0.205,
        "velocity": 1,
        "hand": "right"
      },
      {
        "midi": 59,
        "time": 6.267,
        "duration": 0.205,
        "velocity": 1,
        "hand": "left"
      },
      {
        "midi": 79,
        "time": 6.267,
        "duration": 0.411,
        "velocity": 1,
        "hand": "right"
      },
      {
        "midi": 67,
        "time": 6.473,
        "duration": 0.205,
        "velocity": 1,
        "hand": "right"
      },
      {
        "midi": 60,
        "time": 6.678,
        "duration": 0.205,
        "velocity": 1,
        "hand": "right"
      },
      {
        "midi": 77,
        "time": 6.678,
        "duration": 0.103,
        "velocity": 1,
        "hand": "right"
      },
      {
        "midi": 76,
        "time": 6.781,
        "duration": 0.308,
        "velocity": 1,
        "hand": "right"
      },
      {
        "midi": 67,
        "time": 6.884,
        "duration": 0.205,
        "velocity": 1,
        "hand": "right"
      },
      {
        "midi": 60,
        "time": 7.089,
        "duration": 0.205,
        "velocity": 1,
        "hand": "right"
      },
      {
        "midi": 76,
        "time": 7.089,
        "duration": 0.411,
        "velocity": 1,
        "hand": "right"
      },
      {
        "midi": 67,
        "time": 7.295,
        "duration": 0.205,
        "velocity": 1,
        "hand": "right"
      },
      {
        "midi": 64,
        "time": 7.5,
        "duration": 0.205,
        "velocity": 1,
        "hand": "right"
      },
      {
        "midi": 67,
        "time": 7.705,
        "duration": 0.205,
        "velocity": 1,
        "hand": "right"
      },
      {
        "midi": 64,
        "time": 7.911,
        "duration": 0.205,
        "velocity": 1,
        "hand": "right"
      },
      {
        "midi": 79,
        "time": 7.911,
        "duration": 0.205,
        "velocity": 1,
        "hand": "right"
      },
      {
        "midi": 67,
        "time": 8.116,
        "duration": 0.205,
        "velocity": 1,
        "hand": "right"
      },
      {
        "midi": 76,
        "time": 8.116,
        "duration": 0.205,
        "velocity": 1,
        "hand": "right"
      },
      {
        "midi": 65,
        "time": 8.322,
        "duration": 1.644,
        "velocity": 1,
        "hand": "right"
      },
      {
        "midi": 69,
        "time": 8.322,
        "duration": 1.644,
        "velocity": 1,
        "hand": "right"
      },
      {
        "midi": 73,
        "time": 8.322,
        "duration": 0.205,
        "velocity": 1,
        "hand": "right"
      },
      {
        "midi": 74,
        "time": 8.527,
        "duration": 0.205,
        "velocity": 1,
        "hand": "right"
      },
      {
        "midi": 77,
        "time": 8.733,
        "duration": 0.205,
        "velocity": 1,
        "hand": "right"
      },
      {
        "midi": 76,
        "time": 8.938,
        "duration": 0.205,
        "velocity": 1,
        "hand": "right"
      },
      {
        "midi": 73,
        "time": 9.144,
        "duration": 0.205,
        "velocity": 1,
        "hand": "right"
      },
      {
        "midi": 74,
        "time": 9.349,
        "duration": 0.205,
        "velocity": 1,
        "hand": "right"
      },
      {
        "midi": 77,
        "time": 9.555,
        "duration": 0.205,
        "velocity": 1,
        "hand": "right"
      },
      {
        "midi": 76,
        "time": 9.76,
        "duration": 0.205,
        "velocity": 1,
        "hand": "right"
      },
      {
        "midi": 73,
        "time": 9.966,
        "duration": 0.205,
        "velocity": 1,
        "hand": "right"
      },
      {
        "midi": 74,
        "time": 10.171,
        "duration": 0.205,
        "velocity": 1,
        "hand": "right"
      },
      {
        "midi": 53,
        "time": 10.377,
        "duration": 0.411,
        "velocity": 1,
        "hand": "left"
      },
      {
        "midi": 62,
        "time": 10.377,
        "duration": 0.411,
        "velocity": 1,
        "hand": "right"
      },
      {
        "midi": 77,
        "time": 10.377,
        "duration": 0.205,
        "velocity": 1,
        "hand": "right"
      },
      {
        "midi": 81,
        "time": 10.582,
        "duration": 0.205,
        "velocity": 1,
        "hand": "right"
      },
      {
        "midi": 55,
        "time": 10.788,
        "duration": 0.411,
        "velocity": 1,
        "hand": "left"
      },
      {
        "midi": 64,
        "time": 10.788,
        "duration": 0.411,
        "velocity": 1,
        "hand": "right"
      },
      {
        "midi": 79,
        "time": 10.788,
        "duration": 0.205,
        "velocity": 1,
        "hand": "right"
      },
      {
        "midi": 76,
        "time": 10.993,
        "duration": 0.205,
        "velocity": 1,
        "hand": "right"
      },
      {
        "midi": 55,
        "time": 11.199,
        "duration": 0.411,
        "velocity": 1,
        "hand": "left"
      },
      {
        "midi": 62,
        "time": 11.199,
        "duration": 0.411,
        "velocity": 1,
        "hand": "right"
      },
      {
        "midi": 77,
        "time": 11.199,
        "duration": 0.205,
        "velocity": 1,
        "hand": "right"
      },
      {
        "midi": 74,
        "time": 11.404,
        "duration": 0.205,
        "velocity": 1,
        "hand": "right"
      },
      {
        "midi": 36,
        "time": 11.815,
        "duration": 0.822,
        "velocity": 1,
        "hand": "left"
      },
      {
        "midi": 48,
        "time": 11.815,
        "duration": 0.822,
        "velocity": 1,
        "hand": "left"
      },
      {
        "midi": 72,
        "time": 11.815,
        "duration": 0.822,
        "velocity": 1,
        "hand": "right"
      },
      {
        "midi": 31,
        "time": 12.637,
        "duration": 0.822,
        "velocity": 1,
        "hand": "left"
      },
      {
        "midi": 43,
        "time": 12.637,
        "duration": 0.822,
        "velocity": 1,
        "hand": "left"
      },
      {
        "midi": 67,
        "time": 12.637,
        "duration": 0.822,
        "velocity": 1,
        "hand": "right"
      },
      {
        "midi": 52,
        "time": 13.459,
        "duration": 0.616,
        "velocity": 1,
        "hand": "left"
      },
      {
        "midi": 76,
        "time": 13.459,
        "duration": 0.616,
        "velocity": 1,
        "hand": "right"
      },
      {
        "midi": 53,
        "time": 14.075,
        "duration": 0.103,
        "velocity": 1,
        "hand": "left"
      },
      {
        "midi": 77,
        "time": 14.075,
        "duration": 0.103,
        "velocity": 1,
        "hand": "right"
      },
      {
        "midi": 50,
        "time": 14.178,
        "duration": 0.103,
        "velocity": 1,
        "hand": "left"
      },
      {
        "midi": 74,
        "time": 14.178,
        "duration": 0.103,
        "velocity": 1,
        "hand": "right"
      },
      {
        "midi": 48,
        "time": 14.281,
        "duration": 0.411,
        "velocity": 1,
        "hand": "left"
      },
      {
        "midi": 72,
        "time": 14.281,
        "duration": 0.411,
        "velocity": 1,
        "hand": "right"
      },
      {
        "midi": 64,
        "time": 15.103,
        "duration": 0.205,
        "velocity": 1,
        "hand": "right"
      },
      {
        "midi": 79,
        "time": 15.103,
        "duration": 0.411,
        "velocity": 1,
        "hand": "right"
      },
      {
        "midi": 67,
        "time": 15.308,
        "duration": 0.205,
        "velocity": 1,
        "hand": "right"
      },
      {
        "midi": 64,
        "time": 15.514,
        "duration": 0.205,
        "velocity": 1,
        "hand": "right"
      },
      {
        "midi": 79,
        "time": 15.514,
        "duration": 0.411,
        "velocity": 1,
        "hand": "right"
      },
      {
        "midi": 67,
        "time": 15.719,
        "duration": 0.205,
        "velocity": 1,
        "hand": "right"
      },
      {
        "midi": 61,
        "time": 15.925,
        "duration": 0.205,
        "velocity": 1,
        "hand": "right"
      },
      {
        "midi": 67,
        "time": 16.13,
        "duration": 0.205,
        "velocity": 1,
        "hand": "right"
      },
      {
        "midi": 61,
        "time": 16.336,
        "duration": 0.205,
        "velocity": 1,
        "hand": "right"
      },
      {
        "midi": 81,
        "time": 16.336,
        "duration": 0.411,
        "velocity": 1,
        "hand": "right"
      },
      {
        "midi": 67,
        "time": 16.541,
        "duration": 0.205,
        "velocity": 1,
        "hand": "right"
      },
      {
        "midi": 62,
        "time": 16.747,
        "duration": 0.205,
        "velocity": 1,
        "hand": "right"
      },
      {
        "midi": 79,
        "time": 16.747,
        "duration": 0.103,
        "velocity": 1,
        "hand": "right"
      },
      {
        "midi": 77,
        "time": 16.849,
        "duration": 0.308,
        "velocity": 1,
        "hand": "right"
      },
      {
        "midi": 67,
        "time": 16.952,
        "duration": 0.205,
        "velocity": 1,
        "hand": "right"
      },
      {
        "midi": 62,
        "time": 17.158,
        "duration": 0.205,
        "velocity": 1,
        "hand": "right"
      },
      {
        "midi": 77,
        "time": 17.158,
        "duration": 0.411,
        "velocity": 1,
        "hand": "right"
      },
      {
        "midi": 67,
        "time": 17.363,
        "duration": 0.205,
        "velocity": 1,
        "hand": "right"
      },
      {
        "midi": 59,
        "time": 17.568,
        "duration": 0.205,
        "velocity": 1,
        "hand": "left"
      },
      {
        "midi": 67,
        "time": 17.774,
        "duration": 0.205,
        "velocity": 1,
        "hand": "right"
      },
      {
        "midi": 78,
        "time": 17.774,
        "duration": 0.205,
        "velocity": 1,
        "hand": "right"
      },
      {
        "midi": 59,
        "time": 17.979,
        "duration": 0.205,
        "velocity": 1,
        "hand": "left"
      },
      {
        "midi": 81,
        "time": 17.979,
        "duration": 0.205,
        "velocity": 1,
        "hand": "right"
      },
      {
        "midi": 67,
        "time": 18.185,
        "duration": 0.205,
        "velocity": 1,
        "hand": "right"
      },
      {
        "midi": 79,
        "time": 18.185,
        "duration": 0.205,
        "velocity": 1,
        "hand": "right"
      },
      {
        "midi": 60,
        "time": 18.39,
        "duration": 0.205,
        "velocity": 1,
        "hand": "right"
      },
      {
        "midi": 77,
        "time": 18.39,
        "duration": 0.103,
        "velocity": 1,
        "hand": "right"
      },
      {
        "midi": 76,
        "time": 18.493,
        "duration": 0.308,
        "velocity": 1,
        "hand": "right"
      },
      {
        "midi": 67,
        "time": 18.596,
        "duration": 0.205,
        "velocity": 1,
        "hand": "right"
      },
      {
        "midi": 60,
        "time": 18.801,
        "duration": 0.205,
        "velocity": 1,
        "hand": "right"
      },
      {
        "midi": 76,
        "time": 18.801,
        "duration": 0.411,
        "velocity": 1,
        "hand": "right"
      },
      {
        "midi": 67,
        "time": 19.007,
        "duration": 0.205,
        "velocity": 1,
        "hand": "right"
      },
      {
        "midi": 64,
        "time": 19.212,
        "duration": 0.205,
        "velocity": 1,
        "hand": "right"
      },
      {
        "midi": 67,
        "time": 19.418,
        "duration": 0.205,
        "velocity": 1,
        "hand": "right"
      },
      {
        "midi": 76,
        "time": 19.418,
        "duration": 0.205,
        "velocity": 1,
        "hand": "right"
      },
      {
        "midi": 64,
        "time": 19.623,
        "duration": 0.205,
        "velocity": 1,
        "hand": "right"
      },
      {
        "midi": 79,
        "time": 19.623,
        "duration": 0.205,
        "velocity": 1,
        "hand": "right"
      },
      {
        "midi": 67,
        "time": 19.829,
        "duration": 0.205,
        "velocity": 1,
        "hand": "right"
      },
      {
        "midi": 76,
        "time": 19.829,
        "duration": 0.205,
        "velocity": 1,
        "hand": "right"
      },
      {
        "midi": 67,
        "time": 20.034,
        "duration": 0.822,
        "velocity": 1,
        "hand": "right"
      },
      {
        "midi": 70,
        "time": 20.034,
        "duration": 0.822,
        "velocity": 1,
        "hand": "right"
      },
      {
        "midi": 73,
        "time": 20.034,
        "duration": 0.616,
        "velocity": 1,
        "hand": "right"
      },
      {
        "midi": 74,
        "time": 20.651,
        "duration": 0.103,
        "velocity": 1,
        "hand": "right"
      },
      {
        "midi": 76,
        "time": 20.753,
        "duration": 0.103,
        "velocity": 1,
        "hand": "right"
      },
      {
        "midi": 65,
        "time": 20.856,
        "duration": 0.411,
        "velocity": 1,
        "hand": "right"
      },
      {
        "midi": 69,
        "time": 20.856,
        "duration": 0.411,
        "velocity": 1,
        "hand": "right"
      },
      {
        "midi": 74,
        "time": 20.856,
        "duration": 0.411,
        "velocity": 1,
        "hand": "right"
      },
      {
        "midi": 77,
        "time": 21.473,
        "duration": 0.205,
        "velocity": 1,
        "hand": "right"
      },
      {
        "midi": 67,
        "time": 21.678,
        "duration": 0.822,
        "velocity": 1,
        "hand": "right"
      },
      {
        "midi": 70,
        "time": 21.678,
        "duration": 0.822,
        "velocity": 1,
        "hand": "right"
      },
      {
        "midi": 76,
        "time": 21.678,
        "duration": 0.616,
        "velocity": 1,
        "hand": "right"
      },
      {
        "midi": 77,
        "time": 22.295,
        "duration": 0.103,
        "velocity": 1,
        "hand": "right"
      },
      {
        "midi": 79,
        "time": 22.397,
        "duration": 0.103,
        "velocity": 1,
        "hand": "right"
      },
      {
        "midi": 69,
        "time": 22.5,
        "duration": 0.411,
        "velocity": 1,
        "hand": "right"
      },
      {
        "midi": 72,
        "time": 22.5,
        "duration": 0.411,
        "velocity": 1,
        "hand": "right"
      },
      {
        "midi": 77,
        "time": 22.5,
        "duration": 0.411,
        "velocity": 1,
        "hand": "right"
      },
      {
        "midi": 57,
        "time": 23.322,
        "duration": 0.205,
        "velocity": 1,
        "hand": "left"
      },
      {
        "midi": 72,
        "time": 23.322,
        "duration": 0.205,
        "velocity": 1,
        "hand": "right"
      },
      {
        "midi": 84,
        "time": 23.322,
        "duration": 0.205,
        "velocity": 1,
        "hand": "right"
      },
      {
        "midi": 60,
        "time": 23.527,
        "duration": 0.205,
        "velocity": 1,
        "hand": "right"
      },
      {
        "midi": 72,
        "time": 23.527,
        "duration": 0.205,
        "velocity": 1,
        "hand": "right"
      },
      {
        "midi": 84,
        "time": 23.527,
        "duration": 0.205,
        "velocity": 1,
        "hand": "right"
      },
      {
        "midi": 57,
        "time": 23.733,
        "duration": 0.205,
        "velocity": 1,
        "hand": "left"
      },
      {
        "midi": 72,
        "time": 23.733,
        "duration": 0.822,
        "velocity": 1,
        "hand": "right"
      },
      {
        "midi": 84,
        "time": 23.733,
        "duration": 0.822,
        "velocity": 1,
        "hand": "right"
      },
      {
        "midi": 60,
        "time": 23.938,
        "duration": 0.205,
        "velocity": 1,
        "hand": "right"
      },
      {
        "midi": 53,
        "time": 24.144,
        "duration": 0.205,
        "velocity": 1,
        "hand": "left"
      },
      {
        "midi": 60,
        "time": 24.349,
        "duration": 0.205,
        "velocity": 1,
        "hand": "right"
      },
      {
        "midi": 53,
        "time": 24.555,
        "duration": 0.205,
        "velocity": 1,
        "hand": "left"
      },
      {
        "midi": 83,
        "time": 24.555,
        "duration": 0.205,
        "velocity": 1,
        "hand": "right"
      },
      {
        "midi": 60,
        "time": 24.76,
        "duration": 0.205,
        "velocity": 1,
        "hand": "right"
      },
      {
        "midi": 81,
        "time": 24.76,
        "duration": 0.205,
        "velocity": 1,
        "hand": "right"
      },
      {
        "midi": 52,
        "time": 24.966,
        "duration": 0.205,
        "velocity": 1,
        "hand": "left"
      },
      {
        "midi": 72,
        "time": 24.966,
        "duration": 0.205,
        "velocity": 1,
        "hand": "right"
      },
      {
        "midi": 79,
        "time": 24.966,
        "duration": 0.205,
        "velocity": 1,
        "hand": "right"
      },
      {
        "midi": 60,
        "time": 25.171,
        "duration": 0.205,
        "velocity": 1,
        "hand": "right"
      },
      {
        "midi": 72,
        "time": 25.171,
        "duration": 0.205,
        "velocity": 1,
        "hand": "right"
      },
      {
        "midi": 79,
        "time": 25.171,
        "duration": 0.205,
        "velocity": 1,
        "hand": "right"
      },
      {
        "midi": 52,
        "time": 25.377,
        "duration": 0.205,
        "velocity": 1,
        "hand": "left"
      },
      {
        "midi": 72,
        "time": 25.377,
        "duration": 0.822,
        "velocity": 1,
        "hand": "right"
      },
      {
        "midi": 79,
        "time": 25.377,
        "duration": 0.822,
        "velocity": 1,
        "hand": "right"
      },
      {
        "midi": 60,
        "time": 25.582,
        "duration": 0.205,
        "velocity": 1,
        "hand": "right"
      },
      {
        "midi": 48,
        "time": 25.788,
        "duration": 0.205,
        "velocity": 1,
        "hand": "left"
      },
      {
        "midi": 60,
        "time": 25.993,
        "duration": 0.205,
        "velocity": 1,
        "hand": "right"
      },
      {
        "midi": 48,
        "time": 26.199,
        "duration": 0.205,
        "velocity": 1,
        "hand": "left"
      },
      {
        "midi": 77,
        "time": 26.199,
        "duration": 0.205,
        "velocity": 1,
        "hand": "right"
      },
      {
        "midi": 60,
        "time": 26.404,
        "duration": 0.205,
        "velocity": 1,
        "hand": "right"
      },
      {
        "midi": 76,
        "time": 26.404,
        "duration": 0.308,
        "velocity": 1,
        "hand": "right"
      },
      {
        "midi": 53,
        "time": 26.61,
        "duration": 0.205,
        "velocity": 1,
        "hand": "left"
      },
      {
        "midi": 74,
        "time": 26.712,
        "duration": 0.103,
        "velocity": 1,
        "hand": "right"
      },
      {
        "midi": 57,
        "time": 26.815,
        "duration": 0.205,
        "velocity": 1,
        "hand": "left"
      },
      {
        "midi": 77,
        "time": 26.815,
        "duration": 0.103,
        "velocity": 1,
        "hand": "right"
      },
      {
        "midi": 76,
        "time": 26.918,
        "duration": 0.103,
        "velocity": 1,
        "hand": "right"
      },
      {
        "midi": 53,
        "time": 27.021,
        "duration": 0.205,
        "velocity": 1,
        "hand": "left"
      },
      {
        "midi": 79,
        "time": 27.021,
        "duration": 0.103,
        "velocity": 1,
        "hand": "right"
      },
      {
        "midi": 77,
        "time": 27.123,
        "duration": 0.103,
        "velocity": 1,
        "hand": "right"
      },
      {
        "midi": 62,
        "time": 27.226,
        "duration": 0.205,
        "velocity": 1,
        "hand": "right"
      },
      {
        "midi": 76,
        "time": 27.226,
        "duration": 0.103,
        "velocity": 1,
        "hand": "right"
      },
      {
        "midi": 74,
        "time": 27.329,
        "duration": 0.103,
        "velocity": 1,
        "hand": "right"
      },
      {
        "midi": 55,
        "time": 27.432,
        "duration": 0.205,
        "velocity": 1,
        "hand": "left"
      },
      {
        "midi": 72,
        "time": 27.432,
        "duration": 0.411,
        "velocity": 1,
        "hand": "right"
      },
      {
        "midi": 64,
        "time": 27.637,
        "duration": 0.205,
        "velocity": 1,
        "hand": "right"
      },
      {
        "midi": 55,
        "time": 27.842,
        "duration": 0.205,
        "velocity": 1,
        "hand": "left"
      },
      {
        "midi": 71,
        "time": 27.842,
        "duration": 0.411,
        "velocity": 1,
        "hand": "right"
      },
      {
        "midi": 62,
        "time": 28.048,
        "duration": 0.205,
        "velocity": 1,
        "hand": "right"
      },
      {
        "midi": 57,
        "time": 28.253,
        "duration": 0.205,
        "velocity": 1,
        "hand": "left"
      },
      {
        "midi": 72,
        "time": 28.253,
        "duration": 0.205,
        "velocity": 1,
        "hand": "right"
      },
      {
        "midi": 84,
        "time": 28.253,
        "duration": 0.205,
        "velocity": 1,
        "hand": "right"
      },
      {
        "midi": 60,
        "time": 28.459,
        "duration": 0.205,
        "velocity": 1,
        "hand": "right"
      },
      {
        "midi": 72,
        "time": 28.459,
        "duration": 0.205,
        "velocity": 1,
        "hand": "right"
      },
      {
        "midi": 84,
        "time": 28.459,
        "duration": 0.205,
        "velocity": 1,
        "hand": "right"
      },
      {
        "midi": 57,
        "time": 28.664,
        "duration": 0.205,
        "velocity": 1,
        "hand": "left"
      },
      {
        "midi": 72,
        "time": 28.664,
        "duration": 0.616,
        "velocity": 1,
        "hand": "right"
      },
      {
        "midi": 84,
        "time": 28.664,
        "duration": 0.616,
        "velocity": 1,
        "hand": "right"
      },
      {
        "midi": 60,
        "time": 28.87,
        "duration": 0.205,
        "velocity": 1,
        "hand": "right"
      },
      {
        "midi": 53,
        "time": 29.075,
        "duration": 0.205,
        "velocity": 1,
        "hand": "left"
      },
      {
        "midi": 60,
        "time": 29.281,
        "duration": 0.205,
        "velocity": 1,
        "hand": "right"
      },
      {
        "midi": 86,
        "time": 29.281,
        "duration": 0.103,
        "velocity": 1,
        "hand": "right"
      },
      {
        "midi": 84,
        "time": 29.384,
        "duration": 0.103,
        "velocity": 1,
        "hand": "right"
      },
      {
        "midi": 53,
        "time": 29.486,
        "duration": 0.205,
        "velocity": 1,
        "hand": "left"
      },
      {
        "midi": 83,
        "time": 29.486,
        "duration": 0.205,
        "velocity": 1,
        "hand": "right"
      },
      {
        "midi": 60,
        "time": 29.692,
        "duration": 0.205,
        "velocity": 1,
        "hand": "right"
      },
      {
        "midi": 81,
        "time": 29.692,
        "duration": 0.205,
        "velocity": 1,
        "hand": "right"
      },
      {
        "midi": 52,
        "time": 29.897,
        "duration": 0.205,
        "velocity": 1,
        "hand": "left"
      },
      {
        "midi": 72,
        "time": 29.897,
        "duration": 0.205,
        "velocity": 1,
        "hand": "right"
      },
      {
        "midi": 79,
        "time": 29.897,
        "duration": 0.205,
        "velocity": 1,
        "hand": "right"
      },
      {
        "midi": 60,
        "time": 30.103,
        "duration": 0.205,
        "velocity": 1,
        "hand": "right"
      },
      {
        "midi": 72,
        "time": 30.103,
        "duration": 0.205,
        "velocity": 1,
        "hand": "right"
      },
      {
        "midi": 79,
        "time": 30.103,
        "duration": 0.205,
        "velocity": 1,
        "hand": "right"
      },
      {
        "midi": 52,
        "time": 30.308,
        "duration": 0.205,
        "velocity": 1,
        "hand": "left"
      },
      {
        "midi": 72,
        "time": 30.308,
        "duration": 0.616,
        "velocity": 1,
        "hand": "right"
      },
      {
        "midi": 79,
        "time": 30.308,
        "duration": 0.616,
        "velocity": 1,
        "hand": "right"
      },
      {
        "midi": 60,
        "time": 30.514,
        "duration": 0.205,
        "velocity": 1,
        "hand": "right"
      },
      {
        "midi": 48,
        "time": 30.719,
        "duration": 0.205,
        "velocity": 1,
        "hand": "left"
      },
      {
        "midi": 60,
        "time": 30.925,
        "duration": 0.205,
        "velocity": 1,
        "hand": "right"
      },
      {
        "midi": 81,
        "time": 30.925,
        "duration": 0.103,
        "velocity": 1,
        "hand": "right"
      },
      {
        "midi": 79,
        "time": 31.027,
        "duration": 0.103,
        "velocity": 1,
        "hand": "right"
      },
      {
        "midi": 48,
        "time": 31.13,
        "duration": 0.205,
        "velocity": 1,
        "hand": "left"
      },
      {
        "midi": 77,
        "time": 31.13,
        "duration": 0.205,
        "velocity": 1,
        "hand": "right"
      },
      {
        "midi": 60,
        "time": 31.336,
        "duration": 0.205,
        "velocity": 1,
        "hand": "right"
      },
      {
        "midi": 76,
        "time": 31.336,
        "duration": 0.308,
        "velocity": 1,
        "hand": "right"
      },
      {
        "midi": 53,
        "time": 31.541,
        "duration": 0.205,
        "velocity": 1,
        "hand": "left"
      },
      {
        "midi": 74,
        "time": 31.644,
        "duration": 0.103,
        "velocity": 1,
        "hand": "right"
      },
      {
        "midi": 60,
        "time": 31.747,
        "duration": 0.205,
        "velocity": 1,
        "hand": "right"
      },
      {
        "midi": 81,
        "time": 31.747,
        "duration": 0.103,
        "velocity": 1,
        "hand": "right"
      },
      {
        "midi": 80,
        "time": 31.849,
        "duration": 0.103,
        "velocity": 1,
        "hand": "right"
      },
      {
        "midi": 53,
        "time": 31.952,
        "duration": 0.205,
        "velocity": 1,
        "hand": "left"
      },
      {
        "midi": 83,
        "time": 31.952,
        "duration": 0.103,
        "velocity": 1,
        "hand": "right"
      },
      {
        "midi": 81,
        "time": 32.055,
        "duration": 0.103,
        "velocity": 1,
        "hand": "right"
      },
      {
        "midi": 62,
        "time": 32.158,
        "duration": 0.205,
        "velocity": 1,
        "hand": "right"
      },
      {
        "midi": 79,
        "time": 32.158,
        "duration": 0.103,
        "velocity": 1,
        "hand": "right"
      },
      {
        "midi": 77,
        "time": 32.26,
        "duration": 0.103,
        "velocity": 1,
        "hand": "right"
      },
      {
        "midi": 55,
        "time": 32.363,
        "duration": 0.205,
        "velocity": 1,
        "hand": "left"
      },
      {
        "midi": 76,
        "time": 32.363,
        "duration": 0.411,
        "velocity": 1,
        "hand": "right"
      },
      {
        "midi": 60,
        "time": 32.568,
        "duration": 0.205,
        "velocity": 1,
        "hand": "right"
      },
      {
        "midi": 55,
        "time": 32.774,
        "duration": 0.205,
        "velocity": 1,
        "hand": "left"
      },
      {
        "midi": 74,
        "time": 32.774,
        "duration": 0.411,
        "velocity": 1,
        "hand": "right"
      },
      {
        "midi": 59,
        "time": 32.979,
        "duration": 0.205,
        "velocity": 1,
        "hand": "left"
      },
      {
        "midi": 60,
        "time": 33.185,
        "duration": 0.205,
        "velocity": 1,
        "hand": "right"
      },
      {
        "midi": 64,
        "time": 33.185,
        "duration": 0.205,
        "velocity": 1,
        "hand": "right"
      },
      {
        "midi": 72,
        "time": 33.185,
        "duration": 0.411,
        "velocity": 1,
        "hand": "right"
      },
      {
        "midi": 60,
        "time": 33.39,
        "duration": 0.205,
        "velocity": 1,
        "hand": "right"
      },
      {
        "midi": 64,
        "time": 33.39,
        "duration": 0.205,
        "velocity": 1,
        "hand": "right"
      },
      {
        "midi": 60,
        "time": 33.596,
        "duration": 0.205,
        "velocity": 1,
        "hand": "right"
      },
      {
        "midi": 64,
        "time": 33.596,
        "duration": 0.205,
        "velocity": 1,
        "hand": "right"
      },
      {
        "midi": 60,
        "time": 33.801,
        "duration": 0.205,
        "velocity": 1,
        "hand": "right"
      },
      {
        "midi": 64,
        "time": 33.801,
        "duration": 0.205,
        "velocity": 1,
        "hand": "right"
      },
      {
        "midi": 72,
        "time": 33.801,
        "duration": 0.103,
        "velocity": 1,
        "hand": "right"
      },
      {
        "midi": 71,
        "time": 33.904,
        "duration": 0.103,
        "velocity": 1,
        "hand": "right"
      },
      {
        "midi": 60,
        "time": 34.007,
        "duration": 0.205,
        "velocity": 1,
        "hand": "right"
      },
      {
        "midi": 64,
        "time": 34.007,
        "duration": 0.205,
        "velocity": 1,
        "hand": "right"
      },
      {
        "midi": 72,
        "time": 34.007,
        "duration": 0.205,
        "velocity": 1,
        "hand": "right"
      },
      {
        "midi": 60,
        "time": 34.212,
        "duration": 0.205,
        "velocity": 1,
        "hand": "right"
      },
      {
        "midi": 64,
        "time": 34.212,
        "duration": 0.205,
        "velocity": 1,
        "hand": "right"
      },
      {
        "midi": 75,
        "time": 34.212,
        "duration": 0.205,
        "velocity": 1,
        "hand": "right"
      },
      {
        "midi": 60,
        "time": 34.418,
        "duration": 0.205,
        "velocity": 1,
        "hand": "right"
      },
      {
        "midi": 64,
        "time": 34.418,
        "duration": 0.205,
        "velocity": 1,
        "hand": "right"
      },
      {
        "midi": 76,
        "time": 34.418,
        "duration": 0.205,
        "velocity": 1,
        "hand": "right"
      },
      {
        "midi": 60,
        "time": 34.623,
        "duration": 0.205,
        "velocity": 1,
        "hand": "right"
      },
      {
        "midi": 64,
        "time": 34.623,
        "duration": 0.205,
        "velocity": 1,
        "hand": "right"
      },
      {
        "midi": 78,
        "time": 34.623,
        "duration": 0.205,
        "velocity": 1,
        "hand": "right"
      },
      {
        "midi": 60,
        "time": 34.829,
        "duration": 0.205,
        "velocity": 1,
        "hand": "right"
      },
      {
        "midi": 64,
        "time": 34.829,
        "duration": 0.205,
        "velocity": 1,
        "hand": "right"
      },
      {
        "midi": 79,
        "time": 34.829,
        "duration": 0.205,
        "velocity": 1,
        "hand": "right"
      },
      {
        "midi": 60,
        "time": 35.034,
        "duration": 0.205,
        "velocity": 1,
        "hand": "right"
      },
      {
        "midi": 64,
        "time": 35.034,
        "duration": 0.205,
        "velocity": 1,
        "hand": "right"
      },
      {
        "midi": 83,
        "time": 35.034,
        "duration": 0.205,
        "velocity": 1,
        "hand": "right"
      },
      {
        "midi": 60,
        "time": 35.24,
        "duration": 0.205,
        "velocity": 1,
        "hand": "right"
      },
      {
        "midi": 64,
        "time": 35.24,
        "duration": 0.205,
        "velocity": 1,
        "hand": "right"
      },
      {
        "midi": 84,
        "time": 35.24,
        "duration": 0.205,
        "velocity": 1,
        "hand": "right"
      },
      {
        "midi": 60,
        "time": 35.445,
        "duration": 0.205,
        "velocity": 1,
        "hand": "right"
      },
      {
        "midi": 64,
        "time": 35.445,
        "duration": 0.205,
        "velocity": 1,
        "hand": "right"
      },
      {
        "midi": 87,
        "time": 35.445,
        "duration": 0.205,
        "velocity": 1,
        "hand": "right"
      },
      {
        "midi": 60,
        "time": 35.651,
        "duration": 0.205,
        "velocity": 1,
        "hand": "right"
      },
      {
        "midi": 64,
        "time": 35.651,
        "duration": 0.205,
        "velocity": 1,
        "hand": "right"
      },
      {
        "midi": 88,
        "time": 35.651,
        "duration": 0.411,
        "velocity": 1,
        "hand": "right"
      },
      {
        "midi": 60,
        "time": 35.856,
        "duration": 0.205,
        "velocity": 1,
        "hand": "right"
      },
      {
        "midi": 64,
        "time": 35.856,
        "duration": 0.205,
        "velocity": 1,
        "hand": "right"
      },
      {
        "midi": 60,
        "time": 36.062,
        "duration": 0.205,
        "velocity": 1,
        "hand": "right"
      },
      {
        "midi": 64,
        "time": 36.062,
        "duration": 0.205,
        "velocity": 1,
        "hand": "right"
      },
      {
        "midi": 60,
        "time": 36.267,
        "duration": 0.205,
        "velocity": 1,
        "hand": "right"
      },
      {
        "midi": 64,
        "time": 36.267,
        "duration": 0.205,
        "velocity": 1,
        "hand": "right"
      },
      {
        "midi": 59,
        "time": 36.473,
        "duration": 0.205,
        "velocity": 1,
        "hand": "left"
      },
      {
        "midi": 74,
        "time": 36.473,
        "duration": 0.411,
        "velocity": 1,
        "hand": "right"
      },
      {
        "midi": 86,
        "time": 36.473,
        "duration": 0.411,
        "velocity": 1,
        "hand": "right"
      },
      {
        "midi": 59,
        "time": 36.678,
        "duration": 0.205,
        "velocity": 1,
        "hand": "left"
      },
      {
        "midi": 62,
        "time": 36.678,
        "duration": 0.205,
        "velocity": 1,
        "hand": "right"
      },
      {
        "midi": 59,
        "time": 36.884,
        "duration": 0.205,
        "velocity": 1,
        "hand": "left"
      },
      {
        "midi": 62,
        "time": 36.884,
        "duration": 0.205,
        "velocity": 1,
        "hand": "right"
      },
      {
        "midi": 59,
        "time": 37.089,
        "duration": 0.205,
        "velocity": 1,
        "hand": "left"
      },
      {
        "midi": 62,
        "time": 37.089,
        "duration": 0.205,
        "velocity": 1,
        "hand": "right"
      },
      {
        "midi": 71,
        "time": 37.089,
        "duration": 0.103,
        "velocity": 1,
        "hand": "right"
      },
      {
        "midi": 69,
        "time": 37.192,
        "duration": 0.103,
        "velocity": 1,
        "hand": "right"
      },
      {
        "midi": 59,
        "time": 37.295,
        "duration": 0.205,
        "velocity": 1,
        "hand": "left"
      },
      {
        "midi": 62,
        "time": 37.295,
        "duration": 0.205,
        "velocity": 1,
        "hand": "right"
      },
      {
        "midi": 71,
        "time": 37.295,
        "duration": 0.205,
        "velocity": 1,
        "hand": "right"
      },
      {
        "midi": 59,
        "time": 37.5,
        "duration": 0.205,
        "velocity": 1,
        "hand": "left"
      },
      {
        "midi": 62,
        "time": 37.5,
        "duration": 0.205,
        "velocity": 1,
        "hand": "right"
      },
      {
        "midi": 73,
        "time": 37.5,
        "duration": 0.205,
        "velocity": 1,
        "hand": "right"
      },
      {
        "midi": 59,
        "time": 37.705,
        "duration": 0.205,
        "velocity": 1,
        "hand": "left"
      },
      {
        "midi": 62,
        "time": 37.705,
        "duration": 0.205,
        "velocity": 1,
        "hand": "right"
      },
      {
        "midi": 74,
        "time": 37.705,
        "duration": 0.205,
        "velocity": 1,
        "hand": "right"
      },
      {
        "midi": 59,
        "time": 37.911,
        "duration": 0.205,
        "velocity": 1,
        "hand": "left"
      },
      {
        "midi": 62,
        "time": 37.911,
        "duration": 0.205,
        "velocity": 1,
        "hand": "right"
      },
      {
        "midi": 78,
        "time": 37.911,
        "duration": 0.205,
        "velocity": 1,
        "hand": "right"
      },
      {
        "midi": 59,
        "time": 38.116,
        "duration": 0.205,
        "velocity": 1,
        "hand": "left"
      },
      {
        "midi": 62,
        "time": 38.116,
        "duration": 0.205,
        "velocity": 1,
        "hand": "right"
      },
      {
        "midi": 79,
        "time": 38.116,
        "duration": 0.205,
        "velocity": 1,
        "hand": "right"
      },
      {
        "midi": 59,
        "time": 38.322,
        "duration": 0.205,
        "velocity": 1,
        "hand": "left"
      },
      {
        "midi": 62,
        "time": 38.322,
        "duration": 0.205,
        "velocity": 1,
        "hand": "right"
      },
      {
        "midi": 82,
        "time": 38.322,
        "duration": 0.205,
        "velocity": 1,
        "hand": "right"
      },
      {
        "midi": 59,
        "time": 38.527,
        "duration": 0.205,
        "velocity": 1,
        "hand": "left"
      },
      {
        "midi": 62,
        "time": 38.527,
        "duration": 0.205,
        "velocity": 1,
        "hand": "right"
      },
      {
        "midi": 83,
        "time": 38.527,
        "duration": 0.205,
        "velocity": 1,
        "hand": "right"
      },
      {
        "midi": 59,
        "time": 38.733,
        "duration": 0.205,
        "velocity": 1,
        "hand": "left"
      },
      {
        "midi": 62,
        "time": 38.733,
        "duration": 0.205,
        "velocity": 1,
        "hand": "right"
      },
      {
        "midi": 85,
        "time": 38.733,
        "duration": 0.205,
        "velocity": 1,
        "hand": "right"
      },
      {
        "midi": 59,
        "time": 38.938,
        "duration": 0.205,
        "velocity": 1,
        "hand": "left"
      },
      {
        "midi": 62,
        "time": 38.938,
        "duration": 0.205,
        "velocity": 1,
        "hand": "right"
      },
      {
        "midi": 86,
        "time": 38.938,
        "duration": 0.411,
        "velocity": 1,
        "hand": "right"
      },
      {
        "midi": 59,
        "time": 39.144,
        "duration": 0.205,
        "velocity": 1,
        "hand": "left"
      },
      {
        "midi": 62,
        "time": 39.144,
        "duration": 0.205,
        "velocity": 1,
        "hand": "right"
      },
      {
        "midi": 59,
        "time": 39.349,
        "duration": 0.205,
        "velocity": 1,
        "hand": "left"
      },
      {
        "midi": 62,
        "time": 39.349,
        "duration": 0.205,
        "velocity": 1,
        "hand": "right"
      },
      {
        "midi": 59,
        "time": 39.555,
        "duration": 0.205,
        "velocity": 1,
        "hand": "left"
      },
      {
        "midi": 62,
        "time": 39.555,
        "duration": 0.205,
        "velocity": 1,
        "hand": "right"
      },
      {
        "midi": 54,
        "time": 39.76,
        "duration": 0.205,
        "velocity": 1,
        "hand": "left"
      },
      {
        "midi": 72,
        "time": 39.76,
        "duration": 0.411,
        "velocity": 1,
        "hand": "right"
      },
      {
        "midi": 84,
        "time": 39.76,
        "duration": 0.411,
        "velocity": 1,
        "hand": "right"
      },
      {
        "midi": 54,
        "time": 39.966,
        "duration": 0.205,
        "velocity": 1,
        "hand": "left"
      },
      {
        "midi": 57,
        "time": 39.966,
        "duration": 0.205,
        "velocity": 1,
        "hand": "left"
      },
      {
        "midi": 62,
        "time": 39.966,
        "duration": 0.205,
        "velocity": 1,
        "hand": "right"
      },
      {
        "midi": 54,
        "time": 40.171,
        "duration": 0.205,
        "velocity": 1,
        "hand": "left"
      },
      {
        "midi": 57,
        "time": 40.171,
        "duration": 0.205,
        "velocity": 1,
        "hand": "left"
      },
      {
        "midi": 62,
        "time": 40.171,
        "duration": 0.205,
        "velocity": 1,
        "hand": "right"
      },
      {
        "midi": 54,
        "time": 40.377,
        "duration": 0.205,
        "velocity": 1,
        "hand": "left"
      },
      {
        "midi": 62,
        "time": 40.377,
        "duration": 0.205,
        "velocity": 1,
        "hand": "right"
      },
      {
        "midi": 69,
        "time": 40.377,
        "duration": 0.103,
        "velocity": 1,
        "hand": "right"
      },
      {
        "midi": 68,
        "time": 40.479,
        "duration": 0.103,
        "velocity": 1,
        "hand": "right"
      },
      {
        "midi": 54,
        "time": 40.582,
        "duration": 0.205,
        "velocity": 1,
        "hand": "left"
      },
      {
        "midi": 62,
        "time": 40.582,
        "duration": 0.205,
        "velocity": 1,
        "hand": "right"
      },
      {
        "midi": 69,
        "time": 40.582,
        "duration": 0.205,
        "velocity": 1,
        "hand": "right"
      },
      {
        "midi": 54,
        "time": 40.788,
        "duration": 0.205,
        "velocity": 1,
        "hand": "left"
      },
      {
        "midi": 62,
        "time": 40.788,
        "duration": 0.205,
        "velocity": 1,
        "hand": "right"
      },
      {
        "midi": 71,
        "time": 40.788,
        "duration": 0.205,
        "velocity": 1,
        "hand": "right"
      },
      {
        "midi": 54,
        "time": 40.993,
        "duration": 0.205,
        "velocity": 1,
        "hand": "left"
      },
      {
        "midi": 62,
        "time": 40.993,
        "duration": 0.205,
        "velocity": 1,
        "hand": "right"
      },
      {
        "midi": 72,
        "time": 40.993,
        "duration": 0.205,
        "velocity": 1,
        "hand": "right"
      },
      {
        "midi": 54,
        "time": 41.199,
        "duration": 0.205,
        "velocity": 1,
        "hand": "left"
      },
      {
        "midi": 62,
        "time": 41.199,
        "duration": 0.205,
        "velocity": 1,
        "hand": "right"
      },
      {
        "midi": 77,
        "time": 41.199,
        "duration": 0.205,
        "velocity": 1,
        "hand": "right"
      },
      {
        "midi": 54,
        "time": 41.404,
        "duration": 0.205,
        "velocity": 1,
        "hand": "left"
      },
      {
        "midi": 62,
        "time": 41.404,
        "duration": 0.205,
        "velocity": 1,
        "hand": "right"
      },
      {
        "midi": 78,
        "time": 41.404,
        "duration": 0.205,
        "velocity": 1,
        "hand": "right"
      },
      {
        "midi": 54,
        "time": 41.61,
        "duration": 0.205,
        "velocity": 1,
        "hand": "left"
      },
      {
        "midi": 62,
        "time": 41.61,
        "duration": 0.205,
        "velocity": 1,
        "hand": "right"
      },
      {
        "midi": 80,
        "time": 41.61,
        "duration": 0.205,
        "velocity": 1,
        "hand": "right"
      },
      {
        "midi": 54,
        "time": 41.815,
        "duration": 0.205,
        "velocity": 1,
        "hand": "left"
      },
      {
        "midi": 62,
        "time": 41.815,
        "duration": 0.205,
        "velocity": 1,
        "hand": "right"
      },
      {
        "midi": 81,
        "time": 41.815,
        "duration": 0.205,
        "velocity": 1,
        "hand": "right"
      },
      {
        "midi": 54,
        "time": 42.021,
        "duration": 0.205,
        "velocity": 1,
        "hand": "left"
      },
      {
        "midi": 62,
        "time": 42.021,
        "duration": 0.205,
        "velocity": 1,
        "hand": "right"
      },
      {
        "midi": 83,
        "time": 42.021,
        "duration": 0.205,
        "velocity": 1,
        "hand": "right"
      },
      {
        "midi": 54,
        "time": 42.226,
        "duration": 0.205,
        "velocity": 1,
        "hand": "left"
      },
      {
        "midi": 62,
        "time": 42.226,
        "duration": 0.205,
        "velocity": 1,
        "hand": "right"
      },
      {
        "midi": 84,
        "time": 42.226,
        "duration": 0.411,
        "velocity": 1,
        "hand": "right"
      },
      {
        "midi": 54,
        "time": 42.432,
        "duration": 0.205,
        "velocity": 1,
        "hand": "left"
      },
      {
        "midi": 57,
        "time": 42.432,
        "duration": 0.205,
        "velocity": 1,
        "hand": "left"
      },
      {
        "midi": 62,
        "time": 42.432,
        "duration": 0.205,
        "velocity": 1,
        "hand": "right"
      },
      {
        "midi": 54,
        "time": 42.637,
        "duration": 0.205,
        "velocity": 1,
        "hand": "left"
      },
      {
        "midi": 57,
        "time": 42.637,
        "duration": 0.205,
        "velocity": 1,
        "hand": "left"
      },
      {
        "midi": 62,
        "time": 42.637,
        "duration": 0.205,
        "velocity": 1,
        "hand": "right"
      },
      {
        "midi": 54,
        "time": 42.842,
        "duration": 0.205,
        "velocity": 1,
        "hand": "left"
      },
      {
        "midi": 57,
        "time": 42.842,
        "duration": 0.205,
        "velocity": 1,
        "hand": "left"
      },
      {
        "midi": 62,
        "time": 42.842,
        "duration": 0.205,
        "velocity": 1,
        "hand": "right"
      },
      {
        "midi": 55,
        "time": 43.048,
        "duration": 0.205,
        "velocity": 1,
        "hand": "left"
      },
      {
        "midi": 84,
        "time": 43.048,
        "duration": 0.103,
        "velocity": 1,
        "hand": "right"
      },
      {
        "midi": 83,
        "time": 43.151,
        "duration": 0.103,
        "velocity": 1,
        "hand": "right"
      },
      {
        "midi": 62,
        "time": 43.253,
        "duration": 0.205,
        "velocity": 1,
        "hand": "right"
      },
      {
        "midi": 81,
        "time": 43.253,
        "duration": 0.103,
        "velocity": 1,
        "hand": "right"
      },
      {
        "midi": 79,
        "time": 43.356,
        "duration": 0.103,
        "velocity": 1,
        "hand": "right"
      },
      {
        "midi": 57,
        "time": 43.459,
        "duration": 0.205,
        "velocity": 1,
        "hand": "left"
      },
      {
        "midi": 79,
        "time": 43.459,
        "duration": 0.103,
        "velocity": 1,
        "hand": "right"
      },
      {
        "midi": 78,
        "time": 43.562,
        "duration": 0.103,
        "velocity": 1,
        "hand": "right"
      },
      {
        "midi": 62,
        "time": 43.664,
        "duration": 0.205,
        "velocity": 1,
        "hand": "right"
      },
      {
        "midi": 76,
        "time": 43.664,
        "duration": 0.103,
        "velocity": 1,
        "hand": "right"
      },
      {
        "midi": 74,
        "time": 43.767,
        "duration": 0.103,
        "velocity": 1,
        "hand": "right"
      },
      {
        "midi": 54,
        "time": 43.87,
        "duration": 0.205,
        "velocity": 1,
        "hand": "left"
      },
      {
        "midi": 84,
        "time": 43.87,
        "duration": 0.822,
        "velocity": 1,
        "hand": "right"
      },
      {
        "midi": 62,
        "time": 44.075,
        "duration": 0.205,
        "velocity": 1,
        "hand": "right"
      },
      {
        "midi": 50,
        "time": 44.281,
        "duration": 0.205,
        "velocity": 1,
        "hand": "left"
      },
      {
        "midi": 62,
        "time": 44.486,
        "duration": 0.205,
        "velocity": 1,
        "hand": "right"
      },
      {
        "midi": 55,
        "time": 44.692,
        "duration": 0.205,
        "velocity": 1,
        "hand": "left"
      },
      {
        "midi": 84,
        "time": 44.692,
        "duration": 0.103,
        "velocity": 1,
        "hand": "right"
      },
      {
        "midi": 83,
        "time": 44.795,
        "duration": 0.103,
        "velocity": 1,
        "hand": "right"
      },
      {
        "midi": 62,
        "time": 44.897,
        "duration": 0.205,
        "velocity": 1,
        "hand": "right"
      },
      {
        "midi": 81,
        "time": 44.897,
        "duration": 0.103,
        "velocity": 1,
        "hand": "right"
      },
      {
        "midi": 79,
        "time": 45,
        "duration": 0.103,
        "velocity": 1,
        "hand": "right"
      },
      {
        "midi": 57,
        "time": 45.103,
        "duration": 0.205,
        "velocity": 1,
        "hand": "left"
      },
      {
        "midi": 79,
        "time": 45.103,
        "duration": 0.103,
        "velocity": 1,
        "hand": "right"
      },
      {
        "midi": 78,
        "time": 45.205,
        "duration": 0.103,
        "velocity": 1,
        "hand": "right"
      },
      {
        "midi": 62,
        "time": 45.308,
        "duration": 0.205,
        "velocity": 1,
        "hand": "right"
      },
      {
        "midi": 76,
        "time": 45.308,
        "duration": 0.103,
        "velocity": 1,
        "hand": "right"
      },
      {
        "midi": 74,
        "time": 45.411,
        "duration": 0.103,
        "velocity": 1,
        "hand": "right"
      },
      {
        "midi": 54,
        "time": 45.514,
        "duration": 0.205,
        "velocity": 1,
        "hand": "left"
      },
      {
        "midi": 84,
        "time": 45.514,
        "duration": 0.822,
        "velocity": 1,
        "hand": "right"
      },
      {
        "midi": 62,
        "time": 45.719,
        "duration": 0.205,
        "velocity": 1,
        "hand": "right"
      },
      {
        "midi": 50,
        "time": 45.925,
        "duration": 0.205,
        "velocity": 1,
        "hand": "left"
      },
      {
        "midi": 62,
        "time": 46.13,
        "duration": 0.205,
        "velocity": 1,
        "hand": "right"
      },
      {
        "midi": 55,
        "time": 46.336,
        "duration": 0.411,
        "velocity": 1,
        "hand": "left"
      },
      {
        "midi": 62,
        "time": 46.336,
        "duration": 0.411,
        "velocity": 1,
        "hand": "right"
      },
      {
        "midi": 83,
        "time": 46.336,
        "duration": 0.103,
        "velocity": 1,
        "hand": "right"
      },
      {
        "midi": 81,
        "time": 46.438,
        "duration": 0.103,
        "velocity": 1,
        "hand": "right"
      },
      {
        "midi": 84,
        "time": 46.541,
        "duration": 0.103,
        "velocity": 1,
        "hand": "right"
      },
      {
        "midi": 83,
        "time": 46.644,
        "duration": 0.103,
        "velocity": 1,
        "hand": "right"
      },
      {
        "midi": 86,
        "time": 46.747,
        "duration": 0.205,
        "velocity": 1,
        "hand": "right"
      },
      {
        "midi": 78,
        "time": 46.952,
        "duration": 0.205,
        "velocity": 1,
        "hand": "right"
      },
      {
        "midi": 59,
        "time": 47.158,
        "duration": 0.411,
        "velocity": 1,
        "hand": "left"
      },
      {
        "midi": 62,
        "time": 47.158,
        "duration": 0.411,
        "velocity": 1,
        "hand": "right"
      },
      {
        "midi": 79,
        "time": 47.158,
        "duration": 0.103,
        "velocity": 1,
        "hand": "right"
      },
      {
        "midi": 78,
        "time": 47.26,
        "duration": 0.103,
        "velocity": 1,
        "hand": "right"
      },
      {
        "midi": 81,
        "time": 47.363,
        "duration": 0.103,
        "velocity": 1,
        "hand": "right"
      },
      {
        "midi": 79,
        "time": 47.466,
        "duration": 0.103,
        "velocity": 1,
        "hand": "right"
      },
      {
        "midi": 83,
        "time": 47.568,
        "duration": 0.205,
        "velocity": 1,
        "hand": "right"
      },
      {
        "midi": 75,
        "time": 47.774,
        "duration": 0.205,
        "velocity": 1,
        "hand": "right"
      },
      {
        "midi": 60,
        "time": 47.979,
        "duration": 0.411,
        "velocity": 1,
        "hand": "right"
      },
      {
        "midi": 67,
        "time": 47.979,
        "duration": 0.411,
        "velocity": 1,
        "hand": "right"
      },
      {
        "midi": 76,
        "time": 47.979,
        "duration": 0.103,
        "velocity": 1,
        "hand": "right"
      },
      {
        "midi": 75,
        "time": 48.082,
        "duration": 0.103,
        "velocity": 1,
        "hand": "right"
      },
      {
        "midi": 78,
        "time": 48.185,
        "duration": 0.103,
        "velocity": 1,
        "hand": "right"
      },
      {
        "midi": 76,
        "time": 48.288,
        "duration": 0.103,
        "velocity": 1,
        "hand": "right"
      },
      {
        "midi": 79,
        "time": 48.39,
        "duration": 0.205,
        "velocity": 1,
        "hand": "right"
      },
      {
        "midi": 71,
        "time": 48.596,
        "duration": 0.205,
        "velocity": 1,
        "hand": "right"
      },
      {
        "midi": 64,
        "time": 48.801,
        "duration": 0.411,
        "velocity": 1,
        "hand": "right"
      },
      {
        "midi": 67,
        "time": 48.801,
        "duration": 0.411,
        "velocity": 1,
        "hand": "right"
      },
      {
        "midi": 72,
        "time": 48.801,
        "duration": 0.103,
        "velocity": 1,
        "hand": "right"
      },
      {
        "midi": 71,
        "time": 48.904,
        "duration": 0.103,
        "velocity": 1,
        "hand": "right"
      },
      {
        "midi": 74,
        "time": 49.007,
        "duration": 0.103,
        "velocity": 1,
        "hand": "right"
      },
      {
        "midi": 72,
        "time": 49.11,
        "duration": 0.103,
        "velocity": 1,
        "hand": "right"
      },
      {
        "midi": 76,
        "time": 49.212,
        "duration": 0.205,
        "velocity": 1,
        "hand": "right"
      },
      {
        "midi": 68,
        "time": 49.418,
        "duration": 0.205,
        "velocity": 1,
        "hand": "right"
      },
      {
        "midi": 57,
        "time": 49.623,
        "duration": 0.308,
        "velocity": 1,
        "hand": "left"
      },
      {
        "midi": 69,
        "time": 49.623,
        "duration": 0.308,
        "velocity": 1,
        "hand": "right"
      },
      {
        "midi": 59,
        "time": 49.932,
        "duration": 0.103,
        "velocity": 1,
        "hand": "left"
      },
      {
        "midi": 71,
        "time": 49.932,
        "duration": 0.103,
        "velocity": 1,
        "hand": "right"
      },
      {
        "midi": 60,
        "time": 50.034,
        "duration": 0.308,
        "velocity": 1,
        "hand": "right"
      },
      {
        "midi": 72,
        "time": 50.034,
        "duration": 0.308,
        "velocity": 1,
        "hand": "right"
      },
      {
        "midi": 59,
        "time": 50.342,
        "duration": 0.103,
        "velocity": 1,
        "hand": "left"
      },
      {
        "midi": 71,
        "time": 50.342,
        "duration": 0.103,
        "velocity": 1,
        "hand": "right"
      },
      {
        "midi": 57,
        "time": 50.445,
        "duration": 0.308,
        "velocity": 1,
        "hand": "left"
      },
      {
        "midi": 69,
        "time": 50.445,
        "duration": 0.308,
        "velocity": 1,
        "hand": "right"
      },
      {
        "midi": 55,
        "time": 50.753,
        "duration": 0.103,
        "velocity": 1,
        "hand": "left"
      },
      {
        "midi": 67,
        "time": 50.753,
        "duration": 0.103,
        "velocity": 1,
        "hand": "right"
      },
      {
        "midi": 54,
        "time": 50.856,
        "duration": 0.308,
        "velocity": 1,
        "hand": "left"
      },
      {
        "midi": 66,
        "time": 50.856,
        "duration": 0.308,
        "velocity": 1,
        "hand": "right"
      },
      {
        "midi": 52,
        "time": 51.164,
        "duration": 0.103,
        "velocity": 1,
        "hand": "left"
      },
      {
        "midi": 64,
        "time": 51.164,
        "duration": 0.103,
        "velocity": 1,
        "hand": "right"
      },
      {
        "midi": 50,
        "time": 51.267,
        "duration": 0.205,
        "velocity": 1,
        "hand": "left"
      },
      {
        "midi": 62,
        "time": 51.267,
        "duration": 0.205,
        "velocity": 1,
        "hand": "right"
      },
      {
        "midi": 54,
        "time": 51.473,
        "duration": 0.103,
        "velocity": 1,
        "hand": "left"
      },
      {
        "midi": 66,
        "time": 51.473,
        "duration": 0.103,
        "velocity": 1,
        "hand": "right"
      },
      {
        "midi": 57,
        "time": 51.575,
        "duration": 0.103,
        "velocity": 1,
        "hand": "left"
      },
      {
        "midi": 69,
        "time": 51.575,
        "duration": 0.103,
        "velocity": 1,
        "hand": "right"
      },
      {
        "midi": 62,
        "time": 51.678,
        "duration": 0.205,
        "velocity": 1,
        "hand": "right"
      },
      {
        "midi": 74,
        "time": 51.678,
        "duration": 0.205,
        "velocity": 1,
        "hand": "right"
      },
      {
        "midi": 62,
        "time": 51.884,
        "duration": 0.205,
        "velocity": 1,
        "hand": "right"
      },
      {
        "midi": 74,
        "time": 51.884,
        "duration": 0.205,
        "velocity": 1,
        "hand": "right"
      },
      {
        "midi": 62,
        "time": 52.089,
        "duration": 0.411,
        "velocity": 1,
        "hand": "right"
      },
      {
        "midi": 74,
        "time": 52.089,
        "duration": 0.411,
        "velocity": 1,
        "hand": "right"
      },
      {
        "midi": 61,
        "time": 52.911,
        "duration": 0.205,
        "velocity": 1,
        "hand": "right"
      },
      {
        "midi": 62,
        "time": 53.116,
        "duration": 0.205,
        "velocity": 1,
        "hand": "right"
      },
      {
        "midi": 61,
        "time": 53.322,
        "duration": 0.205,
        "velocity": 1,
        "hand": "right"
      },
      {
        "midi": 62,
        "time": 53.527,
        "duration": 0.205,
        "velocity": 1,
        "hand": "right"
      },
      {
        "midi": 61,
        "time": 53.733,
        "duration": 0.205,
        "velocity": 1,
        "hand": "right"
      },
      {
        "midi": 62,
        "time": 53.938,
        "duration": 0.205,
        "velocity": 1,
        "hand": "right"
      },
      {
        "midi": 61,
        "time": 54.144,
        "duration": 0.205,
        "velocity": 1,
        "hand": "right"
      },
      {
        "midi": 62,
        "time": 54.349,
        "duration": 0.205,
        "velocity": 1,
        "hand": "right"
      },
      {
        "midi": 60,
        "time": 54.555,
        "duration": 0.205,
        "velocity": 1,
        "hand": "right"
      },
      {
        "midi": 62,
        "time": 54.76,
        "duration": 0.205,
        "velocity": 1,
        "hand": "right"
      },
      {
        "midi": 59,
        "time": 54.966,
        "duration": 0.205,
        "velocity": 1,
        "hand": "left"
      },
      {
        "midi": 62,
        "time": 55.171,
        "duration": 0.205,
        "velocity": 1,
        "hand": "right"
      },
      {
        "midi": 60,
        "time": 55.377,
        "duration": 0.205,
        "velocity": 1,
        "hand": "right"
      },
      {
        "midi": 62,
        "time": 55.582,
        "duration": 0.205,
        "velocity": 1,
        "hand": "right"
      },
      {
        "midi": 57,
        "time": 55.788,
        "duration": 0.205,
        "velocity": 1,
        "hand": "left"
      },
      {
        "midi": 62,
        "time": 55.993,
        "duration": 0.205,
        "velocity": 1,
        "hand": "right"
      },
      {
        "midi": 55,
        "time": 56.199,
        "duration": 0.205,
        "velocity": 1,
        "hand": "left"
      },
      {
        "midi": 83,
        "time": 56.199,
        "duration": 0.205,
        "velocity": 1,
        "hand": "right"
      },
      {
        "midi": 62,
        "time": 56.404,
        "duration": 0.205,
        "velocity": 1,
        "hand": "right"
      },
      {
        "midi": 84,
        "time": 56.404,
        "duration": 0.205,
        "velocity": 1,
        "hand": "right"
      },
      {
        "midi": 55,
        "time": 56.61,
        "duration": 0.205,
        "velocity": 1,
        "hand": "left"
      },
      {
        "midi": 86,
        "time": 56.61,
        "duration": 0.205,
        "velocity": 1,
        "hand": "right"
      },
      {
        "midi": 62,
        "time": 56.815,
        "duration": 0.205,
        "velocity": 1,
        "hand": "right"
      },
      {
        "midi": 83,
        "time": 56.815,
        "duration": 0.205,
        "velocity": 1,
        "hand": "right"
      },
      {
        "midi": 59,
        "time": 57.021,
        "duration": 0.205,
        "velocity": 1,
        "hand": "left"
      },
      {
        "midi": 79,
        "time": 57.021,
        "duration": 0.822,
        "velocity": 1,
        "hand": "right"
      },
      {
        "midi": 62,
        "time": 57.226,
        "duration": 0.205,
        "velocity": 1,
        "hand": "right"
      },
      {
        "midi": 59,
        "time": 57.432,
        "duration": 0.205,
        "velocity": 1,
        "hand": "left"
      },
      {
        "midi": 62,
        "time": 57.637,
        "duration": 0.205,
        "velocity": 1,
        "hand": "right"
      },
      {
        "midi": 60,
        "time": 57.842,
        "duration": 0.205,
        "velocity": 1,
        "hand": "right"
      },
      {
        "midi": 81,
        "time": 57.842,
        "duration": 0.205,
        "velocity": 1,
        "hand": "right"
      },
      {
        "midi": 62,
        "time": 58.048,
        "duration": 0.205,
        "velocity": 1,
        "hand": "right"
      },
      {
        "midi": 83,
        "time": 58.048,
        "duration": 0.205,
        "velocity": 1,
        "hand": "right"
      },
      {
        "midi": 60,
        "time": 58.253,
        "duration": 0.205,
        "velocity": 1,
        "hand": "right"
      },
      {
        "midi": 84,
        "time": 58.253,
        "duration": 0.205,
        "velocity": 1,
        "hand": "right"
      },
      {
        "midi": 62,
        "time": 58.459,
        "duration": 0.205,
        "velocity": 1,
        "hand": "right"
      },
      {
        "midi": 81,
        "time": 58.459,
        "duration": 0.205,
        "velocity": 1,
        "hand": "right"
      },
      {
        "midi": 57,
        "time": 58.664,
        "duration": 0.205,
        "velocity": 1,
        "hand": "left"
      },
      {
        "midi": 78,
        "time": 58.664,
        "duration": 0.822,
        "velocity": 1,
        "hand": "right"
      },
      {
        "midi": 62,
        "time": 58.87,
        "duration": 0.205,
        "velocity": 1,
        "hand": "right"
      },
      {
        "midi": 57,
        "time": 59.075,
        "duration": 0.205,
        "velocity": 1,
        "hand": "left"
      },
      {
        "midi": 62,
        "time": 59.281,
        "duration": 0.205,
        "velocity": 1,
        "hand": "right"
      },
      {
        "midi": 59,
        "time": 59.486,
        "duration": 0.205,
        "velocity": 1,
        "hand": "left"
      },
      {
        "midi": 79,
        "time": 59.486,
        "duration": 0.103,
        "velocity": 1,
        "hand": "right"
      },
      {
        "midi": 78,
        "time": 59.589,
        "duration": 0.205,
        "velocity": 1,
        "hand": "right"
      },
      {
        "midi": 62,
        "time": 59.692,
        "duration": 0.205,
        "velocity": 1,
        "hand": "right"
      },
      {
        "midi": 55,
        "time": 59.897,
        "duration": 0.205,
        "velocity": 1,
        "hand": "left"
      },
      {
        "midi": 76,
        "time": 59.897,
        "duration": 0.103,
        "velocity": 1,
        "hand": "right"
      },
      {
        "midi": 74,
        "time": 60,
        "duration": 0.205,
        "velocity": 1,
        "hand": "right"
      },
      {
        "midi": 62,
        "time": 60.103,
        "duration": 0.205,
        "velocity": 1,
        "hand": "right"
      },
      {
        "midi": 57,
        "time": 60.308,
        "duration": 0.205,
        "velocity": 1,
        "hand": "left"
      },
      {
        "midi": 71,
        "time": 60.308,
        "duration": 0.103,
        "velocity": 1,
        "hand": "right"
      },
      {
        "midi": 72,
        "time": 60.411,
        "duration": 0.205,
        "velocity": 1,
        "hand": "right"
      },
      {
        "midi": 62,
        "time": 60.514,
        "duration": 0.205,
        "velocity": 1,
        "hand": "right"
      },
      {
        "midi": 54,
        "time": 60.719,
        "duration": 0.205,
        "velocity": 1,
        "hand": "left"
      },
      {
        "midi": 62,
        "time": 60.925,
        "duration": 0.205,
        "velocity": 1,
        "hand": "right"
      },
      {
        "midi": 55,
        "time": 61.13,
        "duration": 0.205,
        "velocity": 1,
        "hand": "left"
      },
      {
        "midi": 72,
        "time": 61.13,
        "duration": 0.103,
        "velocity": 1,
        "hand": "right"
      },
      {
        "midi": 71,
        "time": 61.233,
        "duration": 0.205,
        "velocity": 1,
        "hand": "right"
      },
      {
        "midi": 62,
        "time": 61.336,
        "duration": 0.205,
        "velocity": 1,
        "hand": "right"
      },
      {
        "midi": 52,
        "time": 61.541,
        "duration": 0.205,
        "velocity": 1,
        "hand": "left"
      },
      {
        "midi": 69,
        "time": 61.541,
        "duration": 0.103,
        "velocity": 1,
        "hand": "right"
      },
      {
        "midi": 67,
        "time": 61.644,
        "duration": 0.205,
        "velocity": 1,
        "hand": "right"
      },
      {
        "midi": 61,
        "time": 61.747,
        "duration": 0.205,
        "velocity": 1,
        "hand": "right"
      },
      {
        "midi": 50,
        "time": 61.952,
        "duration": 0.205,
        "velocity": 1,
        "hand": "left"
      },
      {
        "midi": 71,
        "time": 61.952,
        "duration": 0.103,
        "velocity": 1,
        "hand": "right"
      },
      {
        "midi": 69,
        "time": 62.055,
        "duration": 0.205,
        "velocity": 1,
        "hand": "right"
      },
      {
        "midi": 62,
        "time": 62.158,
        "duration": 0.205,
        "velocity": 1,
        "hand": "right"
      },
      {
        "midi": 60,
        "time": 62.363,
        "duration": 0.205,
        "velocity": 1,
        "hand": "right"
      },
      {
        "midi": 57,
        "time": 62.568,
        "duration": 0.205,
        "velocity": 1,
        "hand": "left"
      },
      {
        "midi": 55,
        "time": 62.774,
        "duration": 0.205,
        "velocity": 1,
        "hand": "left"
      },
      {
        "midi": 83,
        "time": 62.774,
        "duration": 0.205,
        "velocity": 1,
        "hand": "right"
      },
      {
        "midi": 62,
        "time": 62.979,
        "duration": 0.205,
        "velocity": 1,
        "hand": "right"
      },
      {
        "midi": 84,
        "time": 62.979,
        "duration": 0.205,
        "velocity": 1,
        "hand": "right"
      },
      {
        "midi": 55,
        "time": 63.185,
        "duration": 0.205,
        "velocity": 1,
        "hand": "left"
      },
      {
        "midi": 86,
        "time": 63.185,
        "duration": 0.205,
        "velocity": 1,
        "hand": "right"
      },
      {
        "midi": 62,
        "time": 63.39,
        "duration": 0.205,
        "velocity": 1,
        "hand": "right"
      },
      {
        "midi": 83,
        "time": 63.39,
        "duration": 0.205,
        "velocity": 1,
        "hand": "right"
      },
      {
        "midi": 59,
        "time": 63.596,
        "duration": 0.205,
        "velocity": 1,
        "hand": "left"
      },
      {
        "midi": 79,
        "time": 63.596,
        "duration": 0.822,
        "velocity": 1,
        "hand": "right"
      },
      {
        "midi": 62,
        "time": 63.801,
        "duration": 0.205,
        "velocity": 1,
        "hand": "right"
      },
      {
        "midi": 59,
        "time": 64.007,
        "duration": 0.205,
        "velocity": 1,
        "hand": "left"
      },
      {
        "midi": 62,
        "time": 64.212,
        "duration": 0.205,
        "velocity": 1,
        "hand": "right"
      },
      {
        "midi": 60,
        "time": 64.418,
        "duration": 0.205,
        "velocity": 1,
        "hand": "right"
      },
      {
        "midi": 81,
        "time": 64.418,
        "duration": 0.205,
        "velocity": 1,
        "hand": "right"
      },
      {
        "midi": 62,
        "time": 64.623,
        "duration": 0.205,
        "velocity": 1,
        "hand": "right"
      },
      {
        "midi": 83,
        "time": 64.623,
        "duration": 0.205,
        "velocity": 1,
        "hand": "right"
      },
      {
        "midi": 60,
        "time": 64.829,
        "duration": 0.205,
        "velocity": 1,
        "hand": "right"
      },
      {
        "midi": 84,
        "time": 64.829,
        "duration": 0.205,
        "velocity": 1,
        "hand": "right"
      },
      {
        "midi": 62,
        "time": 65.034,
        "duration": 0.205,
        "velocity": 1,
        "hand": "right"
      },
      {
        "midi": 81,
        "time": 65.034,
        "duration": 0.205,
        "velocity": 1,
        "hand": "right"
      },
      {
        "midi": 57,
        "time": 65.24,
        "duration": 0.205,
        "velocity": 1,
        "hand": "left"
      },
      {
        "midi": 78,
        "time": 65.24,
        "duration": 0.822,
        "velocity": 1,
        "hand": "right"
      },
      {
        "midi": 62,
        "time": 65.445,
        "duration": 0.205,
        "velocity": 1,
        "hand": "right"
      },
      {
        "midi": 57,
        "time": 65.651,
        "duration": 0.205,
        "velocity": 1,
        "hand": "left"
      },
      {
        "midi": 62,
        "time": 65.856,
        "duration": 0.205,
        "velocity": 1,
        "hand": "right"
      },
      {
        "midi": 59,
        "time": 66.062,
        "duration": 0.205,
        "velocity": 1,
        "hand": "left"
      },
      {
        "midi": 79,
        "time": 66.062,
        "duration": 0.103,
        "velocity": 1,
        "hand": "right"
      },
      {
        "midi": 78,
        "time": 66.164,
        "duration": 0.205,
        "velocity": 1,
        "hand": "right"
      },
      {
        "midi": 62,
        "time": 66.267,
        "duration": 0.205,
        "velocity": 1,
        "hand": "right"
      },
      {
        "midi": 55,
        "time": 66.473,
        "duration": 0.205,
        "velocity": 1,
        "hand": "left"
      },
      {
        "midi": 76,
        "time": 66.473,
        "duration": 0.103,
        "velocity": 1,
        "hand": "right"
      },
      {
        "midi": 74,
        "time": 66.575,
        "duration": 0.205,
        "velocity": 1,
        "hand": "right"
      },
      {
        "midi": 62,
        "time": 66.678,
        "duration": 0.205,
        "velocity": 1,
        "hand": "right"
      },
      {
        "midi": 57,
        "time": 66.884,
        "duration": 0.205,
        "velocity": 1,
        "hand": "left"
      },
      {
        "midi": 71,
        "time": 66.884,
        "duration": 0.103,
        "velocity": 1,
        "hand": "right"
      },
      {
        "midi": 72,
        "time": 66.986,
        "duration": 0.205,
        "velocity": 1,
        "hand": "right"
      },
      {
        "midi": 62,
        "time": 67.089,
        "duration": 0.205,
        "velocity": 1,
        "hand": "right"
      },
      {
        "midi": 54,
        "time": 67.295,
        "duration": 0.205,
        "velocity": 1,
        "hand": "left"
      },
      {
        "midi": 62,
        "time": 67.5,
        "duration": 0.205,
        "velocity": 1,
        "hand": "right"
      },
      {
        "midi": 55,
        "time": 67.705,
        "duration": 0.205,
        "velocity": 1,
        "hand": "left"
      },
      {
        "midi": 72,
        "time": 67.705,
        "duration": 0.103,
        "velocity": 1,
        "hand": "right"
      },
      {
        "midi": 71,
        "time": 67.808,
        "duration": 0.205,
        "velocity": 1,
        "hand": "right"
      },
      {
        "midi": 62,
        "time": 67.911,
        "duration": 0.205,
        "velocity": 1,
        "hand": "right"
      },
      {
        "midi": 52,
        "time": 68.116,
        "duration": 0.205,
        "velocity": 1,
        "hand": "left"
      },
      {
        "midi": 69,
        "time": 68.116,
        "duration": 0.103,
        "velocity": 1,
        "hand": "right"
      },
      {
        "midi": 67,
        "time": 68.219,
        "duration": 0.205,
        "velocity": 1,
        "hand": "right"
      },
      {
        "midi": 61,
        "time": 68.322,
        "duration": 0.205,
        "velocity": 1,
        "hand": "right"
      },
      {
        "midi": 50,
        "time": 68.527,
        "duration": 0.205,
        "velocity": 1,
        "hand": "left"
      },
      {
        "midi": 76,
        "time": 68.527,
        "duration": 0.103,
        "velocity": 1,
        "hand": "right"
      },
      {
        "midi": 74,
        "time": 68.63,
        "duration": 0.205,
        "velocity": 1,
        "hand": "right"
      },
      {
        "midi": 62,
        "time": 68.733,
        "duration": 0.205,
        "velocity": 1,
        "hand": "right"
      },
      {
        "midi": 48,
        "time": 68.938,
        "duration": 0.205,
        "velocity": 1,
        "hand": "left"
      },
      {
        "midi": 60,
        "time": 69.144,
        "duration": 0.205,
        "velocity": 1,
        "hand": "right"
      },
      {
        "midi": 47,
        "time": 69.349,
        "duration": 0.103,
        "velocity": 1,
        "hand": "left"
      },
      {
        "midi": 74,
        "time": 69.349,
        "duration": 0.822,
        "velocity": 1,
        "hand": "right"
      },
      {
        "midi": 86,
        "time": 69.349,
        "duration": 0.822,
        "velocity": 1,
        "hand": "right"
      },
      {
        "midi": 55,
        "time": 69.452,
        "duration": 0.103,
        "velocity": 1,
        "hand": "left"
      },
      {
        "midi": 54,
        "time": 69.555,
        "duration": 0.103,
        "velocity": 1,
        "hand": "left"
      },
      {
        "midi": 55,
        "time": 69.658,
        "duration": 0.103,
        "velocity": 1,
        "hand": "left"
      },
      {
        "midi": 57,
        "time": 69.76,
        "duration": 0.103,
        "velocity": 1,
        "hand": "left"
      },
      {
        "midi": 55,
        "time": 69.863,
        "duration": 0.103,
        "velocity": 1,
        "hand": "left"
      },
      {
        "midi": 54,
        "time": 69.966,
        "duration": 0.103,
        "velocity": 1,
        "hand": "left"
      },
      {
        "midi": 55,
        "time": 70.068,
        "duration": 0.103,
        "velocity": 1,
        "hand": "left"
      },
      {
        "midi": 47,
        "time": 70.171,
        "duration": 0.411,
        "velocity": 1,
        "hand": "left"
      },
      {
        "midi": 84,
        "time": 70.171,
        "duration": 0.205,
        "velocity": 1,
        "hand": "right"
      },
      {
        "midi": 83,
        "time": 70.377,
        "duration": 0.205,
        "velocity": 1,
        "hand": "right"
      },
      {
        "midi": 81,
        "time": 70.582,
        "duration": 0.205,
        "velocity": 1,
        "hand": "right"
      },
      {
        "midi": 79,
        "time": 70.788,
        "duration": 0.205,
        "velocity": 1,
        "hand": "right"
      },
      {
        "midi": 48,
        "time": 70.993,
        "duration": 0.103,
        "velocity": 1,
        "hand": "left"
      },
      {
        "midi": 76,
        "time": 70.993,
        "duration": 0.822,
        "velocity": 1,
        "hand": "right"
      },
      {
        "midi": 88,
        "time": 70.993,
        "duration": 0.822,
        "velocity": 1,
        "hand": "right"
      },
      {
        "midi": 55,
        "time": 71.096,
        "duration": 0.103,
        "velocity": 1,
        "hand": "left"
      },
      {
        "midi": 54,
        "time": 71.199,
        "duration": 0.103,
        "velocity": 1,
        "hand": "left"
      },
      {
        "midi": 55,
        "time": 71.301,
        "duration": 0.103,
        "velocity": 1,
        "hand": "left"
      },
      {
        "midi": 57,
        "time": 71.404,
        "duration": 0.103,
        "velocity": 1,
        "hand": "left"
      },
      {
        "midi": 55,
        "time": 71.507,
        "duration": 0.103,
        "velocity": 1,
        "hand": "left"
      },
      {
        "midi": 54,
        "time": 71.61,
        "duration": 0.103,
        "velocity": 1,
        "hand": "left"
      },
      {
        "midi": 55,
        "time": 71.712,
        "duration": 0.103,
        "velocity": 1,
        "hand": "left"
      },
      {
        "midi": 48,
        "time": 71.815,
        "duration": 0.411,
        "velocity": 1,
        "hand": "left"
      },
      {
        "midi": 86,
        "time": 71.815,
        "duration": 0.205,
        "velocity": 1,
        "hand": "right"
      },
      {
        "midi": 84,
        "time": 72.021,
        "duration": 0.205,
        "velocity": 1,
        "hand": "right"
      },
      {
        "midi": 83,
        "time": 72.226,
        "duration": 0.205,
        "velocity": 1,
        "hand": "right"
      },
      {
        "midi": 81,
        "time": 72.432,
        "duration": 0.205,
        "velocity": 1,
        "hand": "right"
      },
      {
        "midi": 50,
        "time": 72.637,
        "duration": 0.205,
        "velocity": 1,
        "hand": "left"
      },
      {
        "midi": 83,
        "time": 72.637,
        "duration": 0.103,
        "velocity": 1,
        "hand": "right"
      },
      {
        "midi": 84,
        "time": 72.74,
        "duration": 0.103,
        "velocity": 1,
        "hand": "right"
      },
      {
        "midi": 55,
        "time": 72.842,
        "duration": 0.205,
        "velocity": 1,
        "hand": "left"
      },
      {
        "midi": 86,
        "time": 72.842,
        "duration": 0.103,
        "velocity": 1,
        "hand": "right"
      },
      {
        "midi": 83,
        "time": 72.945,
        "duration": 0.103,
        "velocity": 1,
        "hand": "right"
      },
      {
        "midi": 59,
        "time": 73.048,
        "duration": 0.205,
        "velocity": 1,
        "hand": "left"
      },
      {
        "midi": 79,
        "time": 73.048,
        "duration": 0.205,
        "velocity": 1,
        "hand": "right"
      },
      {
        "midi": 55,
        "time": 73.253,
        "duration": 0.205,
        "velocity": 1,
        "hand": "left"
      },
      {
        "midi": 50,
        "time": 73.459,
        "duration": 0.205,
        "velocity": 1,
        "hand": "left"
      },
      {
        "midi": 81,
        "time": 73.459,
        "duration": 0.103,
        "velocity": 1,
        "hand": "right"
      },
      {
        "midi": 83,
        "time": 73.562,
        "duration": 0.103,
        "velocity": 1,
        "hand": "right"
      },
      {
        "midi": 57,
        "time": 73.664,
        "duration": 0.205,
        "velocity": 1,
        "hand": "left"
      },
      {
        "midi": 84,
        "time": 73.664,
        "duration": 0.103,
        "velocity": 1,
        "hand": "right"
      },
      {
        "midi": 81,
        "time": 73.767,
        "duration": 0.103,
        "velocity": 1,
        "hand": "right"
      },
      {
        "midi": 60,
        "time": 73.87,
        "duration": 0.205,
        "velocity": 1,
        "hand": "right"
      },
      {
        "midi": 78,
        "time": 73.87,
        "duration": 0.205,
        "velocity": 1,
        "hand": "right"
      },
      {
        "midi": 57,
        "time": 74.075,
        "duration": 0.205,
        "velocity": 1,
        "hand": "left"
      },
      {
        "midi": 47,
        "time": 74.281,
        "duration": 0.103,
        "velocity": 1,
        "hand": "left"
      },
      {
        "midi": 74,
        "time": 74.281,
        "duration": 0.822,
        "velocity": 1,
        "hand": "right"
      },
      {
        "midi": 86,
        "time": 74.281,
        "duration": 0.822,
        "velocity": 1,
        "hand": "right"
      },
      {
        "midi": 55,
        "time": 74.384,
        "duration": 0.103,
        "velocity": 1,
        "hand": "left"
      },
      {
        "midi": 54,
        "time": 74.486,
        "duration": 0.103,
        "velocity": 1,
        "hand": "left"
      },
      {
        "midi": 55,
        "time": 74.589,
        "duration": 0.103,
        "velocity": 1,
        "hand": "left"
      },
      {
        "midi": 57,
        "time": 74.692,
        "duration": 0.103,
        "velocity": 1,
        "hand": "left"
      },
      {
        "midi": 55,
        "time": 74.795,
        "duration": 0.103,
        "velocity": 1,
        "hand": "left"
      },
      {
        "midi": 54,
        "time": 74.897,
        "duration": 0.103,
        "velocity": 1,
        "hand": "left"
      },
      {
        "midi": 55,
        "time": 75,
        "duration": 0.103,
        "velocity": 1,
        "hand": "left"
      },
      {
        "midi": 47,
        "time": 75.103,
        "duration": 0.411,
        "velocity": 1,
        "hand": "left"
      },
      {
        "midi": 84,
        "time": 75.103,
        "duration": 0.103,
        "velocity": 1,
        "hand": "right"
      },
      {
        "midi": 86,
        "time": 75.205,
        "duration": 0.103,
        "velocity": 1,
        "hand": "right"
      },
      {
        "midi": 84,
        "time": 75.308,
        "duration": 0.103,
        "velocity": 1,
        "hand": "right"
      },
      {
        "midi": 83,
        "time": 75.411,
        "duration": 0.103,
        "velocity": 1,
        "hand": "right"
      },
      {
        "midi": 81,
        "time": 75.514,
        "duration": 0.103,
        "velocity": 1,
        "hand": "right"
      },
      {
        "midi": 83,
        "time": 75.616,
        "duration": 0.103,
        "velocity": 1,
        "hand": "right"
      },
      {
        "midi": 81,
        "time": 75.719,
        "duration": 0.103,
        "velocity": 1,
        "hand": "right"
      },
      {
        "midi": 79,
        "time": 75.822,
        "duration": 0.103,
        "velocity": 1,
        "hand": "right"
      },
      {
        "midi": 48,
        "time": 75.925,
        "duration": 0.103,
        "velocity": 1,
        "hand": "left"
      },
      {
        "midi": 76,
        "time": 75.925,
        "duration": 0.822,
        "velocity": 1,
        "hand": "right"
      },
      {
        "midi": 88,
        "time": 75.925,
        "duration": 0.822,
        "velocity": 1,
        "hand": "right"
      },
      {
        "midi": 55,
        "time": 76.027,
        "duration": 0.103,
        "velocity": 1,
        "hand": "left"
      },
      {
        "midi": 54,
        "time": 76.13,
        "duration": 0.103,
        "velocity": 1,
        "hand": "left"
      },
      {
        "midi": 55,
        "time": 76.233,
        "duration": 0.103,
        "velocity": 1,
        "hand": "left"
      },
      {
        "midi": 57,
        "time": 76.336,
        "duration": 0.103,
        "velocity": 1,
        "hand": "left"
      },
      {
        "midi": 55,
        "time": 76.438,
        "duration": 0.103,
        "velocity": 1,
        "hand": "left"
      },
      {
        "midi": 54,
        "time": 76.541,
        "duration": 0.103,
        "velocity": 1,
        "hand": "left"
      },
      {
        "midi": 55,
        "time": 76.644,
        "duration": 0.103,
        "velocity": 1,
        "hand": "left"
      },
      {
        "midi": 48,
        "time": 76.747,
        "duration": 0.411,
        "velocity": 1,
        "hand": "left"
      },
      {
        "midi": 86,
        "time": 76.747,
        "duration": 0.103,
        "velocity": 1,
        "hand": "right"
      },
      {
        "midi": 88,
        "time": 76.849,
        "duration": 0.103,
        "velocity": 1,
        "hand": "right"
      },
      {
        "midi": 86,
        "time": 76.952,
        "duration": 0.103,
        "velocity": 1,
        "hand": "right"
      },
      {
        "midi": 84,
        "time": 77.055,
        "duration": 0.103,
        "velocity": 1,
        "hand": "right"
      },
      {
        "midi": 83,
        "time": 77.158,
        "duration": 0.103,
        "velocity": 1,
        "hand": "right"
      },
      {
        "midi": 84,
        "time": 77.26,
        "duration": 0.103,
        "velocity": 1,
        "hand": "right"
      },
      {
        "midi": 83,
        "time": 77.363,
        "duration": 0.103,
        "velocity": 1,
        "hand": "right"
      },
      {
        "midi": 81,
        "time": 77.466,
        "duration": 0.103,
        "velocity": 1,
        "hand": "right"
      },
      {
        "midi": 62,
        "time": 77.568,
        "duration": 0.205,
        "velocity": 1,
        "hand": "right"
      },
      {
        "midi": 83,
        "time": 77.568,
        "duration": 0.205,
        "velocity": 1,
        "hand": "right"
      },
      {
        "midi": 67,
        "time": 77.774,
        "duration": 0.205,
        "velocity": 1,
        "hand": "right"
      },
      {
        "midi": 79,
        "time": 77.774,
        "duration": 0.205,
        "velocity": 1,
        "hand": "right"
      },
      {
        "midi": 64,
        "time": 77.979,
        "duration": 0.205,
        "velocity": 1,
        "hand": "right"
      },
      {
        "midi": 84,
        "time": 77.979,
        "duration": 0.411,
        "velocity": 1,
        "hand": "right"
      },
      {
        "midi": 67,
        "time": 78.185,
        "duration": 0.205,
        "velocity": 1,
        "hand": "right"
      },
      {
        "midi": 62,
        "time": 78.39,
        "duration": 0.205,
        "velocity": 1,
        "hand": "right"
      },
      {
        "midi": 83,
        "time": 78.39,
        "duration": 0.205,
        "velocity": 1,
        "hand": "right"
      },
      {
        "midi": 67,
        "time": 78.596,
        "duration": 0.205,
        "velocity": 1,
        "hand": "right"
      },
      {
        "midi": 79,
        "time": 78.596,
        "duration": 0.205,
        "velocity": 1,
        "hand": "right"
      },
      {
        "midi": 60,
        "time": 78.801,
        "duration": 0.205,
        "velocity": 1,
        "hand": "right"
      },
      {
        "midi": 88,
        "time": 78.801,
        "duration": 0.411,
        "velocity": 1,
        "hand": "right"
      },
      {
        "midi": 67,
        "time": 79.007,
        "duration": 0.205,
        "velocity": 1,
        "hand": "right"
      },
      {
        "midi": 59,
        "time": 79.212,
        "duration": 0.205,
        "velocity": 1,
        "hand": "left"
      },
      {
        "midi": 86,
        "time": 79.212,
        "duration": 0.205,
        "velocity": 1,
        "hand": "right"
      },
      {
        "midi": 67,
        "time": 79.418,
        "duration": 0.205,
        "velocity": 1,
        "hand": "right"
      },
      {
        "midi": 79,
        "time": 79.418,
        "duration": 0.205,
        "velocity": 1,
        "hand": "right"
      },
      {
        "midi": 64,
        "time": 79.623,
        "duration": 0.205,
        "velocity": 1,
        "hand": "right"
      },
      {
        "midi": 84,
        "time": 79.623,
        "duration": 0.411,
        "velocity": 1,
        "hand": "right"
      },
      {
        "midi": 67,
        "time": 79.829,
        "duration": 0.205,
        "velocity": 1,
        "hand": "right"
      },
      {
        "midi": 62,
        "time": 80.034,
        "duration": 0.205,
        "velocity": 1,
        "hand": "right"
      },
      {
        "midi": 83,
        "time": 80.034,
        "duration": 0.205,
        "velocity": 1,
        "hand": "right"
      },
      {
        "midi": 67,
        "time": 80.24,
        "duration": 0.205,
        "velocity": 1,
        "hand": "right"
      },
      {
        "midi": 79,
        "time": 80.24,
        "duration": 0.205,
        "velocity": 1,
        "hand": "right"
      },
      {
        "midi": 60,
        "time": 80.445,
        "duration": 0.205,
        "velocity": 1,
        "hand": "right"
      },
      {
        "midi": 88,
        "time": 80.445,
        "duration": 0.411,
        "velocity": 1,
        "hand": "right"
      },
      {
        "midi": 67,
        "time": 80.651,
        "duration": 0.205,
        "velocity": 1,
        "hand": "right"
      },
      {
        "midi": 59,
        "time": 80.856,
        "duration": 0.205,
        "velocity": 1,
        "hand": "left"
      },
      {
        "midi": 68,
        "time": 80.856,
        "duration": 0.205,
        "velocity": 1,
        "hand": "right"
      },
      {
        "midi": 89,
        "time": 80.856,
        "duration": 0.822,
        "velocity": 1,
        "hand": "right"
      },
      {
        "midi": 59,
        "time": 81.062,
        "duration": 0.205,
        "velocity": 1,
        "hand": "left"
      },
      {
        "midi": 62,
        "time": 81.062,
        "duration": 0.205,
        "velocity": 1,
        "hand": "right"
      },
      {
        "midi": 68,
        "time": 81.062,
        "duration": 0.205,
        "velocity": 1,
        "hand": "right"
      },
      {
        "midi": 59,
        "time": 81.267,
        "duration": 0.205,
        "velocity": 1,
        "hand": "left"
      },
      {
        "midi": 62,
        "time": 81.267,
        "duration": 0.205,
        "velocity": 1,
        "hand": "right"
      },
      {
        "midi": 68,
        "time": 81.267,
        "duration": 0.205,
        "velocity": 1,
        "hand": "right"
      },
      {
        "midi": 59,
        "time": 81.473,
        "duration": 0.205,
        "velocity": 1,
        "hand": "left"
      },
      {
        "midi": 62,
        "time": 81.473,
        "duration": 0.205,
        "velocity": 1,
        "hand": "right"
      },
      {
        "midi": 68,
        "time": 81.473,
        "duration": 0.205,
        "velocity": 1,
        "hand": "right"
      },
      {
        "midi": 59,
        "time": 81.678,
        "duration": 0.205,
        "velocity": 1,
        "hand": "left"
      },
      {
        "midi": 68,
        "time": 81.678,
        "duration": 0.205,
        "velocity": 1,
        "hand": "right"
      },
      {
        "midi": 89,
        "time": 81.678,
        "duration": 0.411,
        "velocity": 1,
        "hand": "right"
      },
      {
        "midi": 59,
        "time": 81.884,
        "duration": 0.205,
        "velocity": 1,
        "hand": "left"
      },
      {
        "midi": 62,
        "time": 81.884,
        "duration": 0.205,
        "velocity": 1,
        "hand": "right"
      },
      {
        "midi": 68,
        "time": 81.884,
        "duration": 0.205,
        "velocity": 1,
        "hand": "right"
      },
      {
        "midi": 59,
        "time": 82.089,
        "duration": 0.205,
        "velocity": 1,
        "hand": "left"
      },
      {
        "midi": 68,
        "time": 82.089,
        "duration": 0.205,
        "velocity": 1,
        "hand": "right"
      },
      {
        "midi": 89,
        "time": 82.089,
        "duration": 0.411,
        "velocity": 1,
        "hand": "right"
      },
      {
        "midi": 59,
        "time": 82.295,
        "duration": 0.205,
        "velocity": 1,
        "hand": "left"
      },
      {
        "midi": 62,
        "time": 82.295,
        "duration": 0.205,
        "velocity": 1,
        "hand": "right"
      },
      {
        "midi": 68,
        "time": 82.295,
        "duration": 0.205,
        "velocity": 1,
        "hand": "right"
      },
      {
        "midi": 60,
        "time": 82.5,
        "duration": 0.411,
        "velocity": 1,
        "hand": "right"
      },
      {
        "midi": 69,
        "time": 82.5,
        "duration": 0.411,
        "velocity": 1,
        "hand": "right"
      },
      {
        "midi": 88,
        "time": 82.5,
        "duration": 0.205,
        "velocity": 1,
        "hand": "right"
      },
      {
        "midi": 86,
        "time": 82.705,
        "duration": 0.205,
        "velocity": 1,
        "hand": "right"
      },
      {
        "midi": 84,
        "time": 82.911,
        "duration": 0.205,
        "velocity": 1,
        "hand": "right"
      },
      {
        "midi": 83,
        "time": 83.116,
        "duration": 0.205,
        "velocity": 1,
        "hand": "right"
      },
      {
        "midi": 81,
        "time": 83.322,
        "duration": 0.205,
        "velocity": 1,
        "hand": "right"
      },
      {
        "midi": 79,
        "time": 83.527,
        "duration": 0.205,
        "velocity": 1,
        "hand": "right"
      },
      {
        "midi": 78,
        "time": 83.733,
        "duration": 0.205,
        "velocity": 1,
        "hand": "right"
      },
      {
        "midi": 76,
        "time": 83.938,
        "duration": 0.205,
        "velocity": 1,
        "hand": "right"
      },
      {
        "midi": 50,
        "time": 84.144,
        "duration": 0.103,
        "velocity": 1,
        "hand": "left"
      },
      {
        "midi": 74,
        "time": 84.144,
        "duration": 0.205,
        "velocity": 1,
        "hand": "right"
      },
      {
        "midi": 59,
        "time": 84.247,
        "duration": 0.103,
        "velocity": 1,
        "hand": "left"
      },
      {
        "midi": 55,
        "time": 84.349,
        "duration": 0.103,
        "velocity": 1,
        "hand": "left"
      },
      {
        "midi": 76,
        "time": 84.349,
        "duration": 0.103,
        "velocity": 1,
        "hand": "right"
      },
      {
        "midi": 59,
        "time": 84.452,
        "duration": 0.103,
        "velocity": 1,
        "hand": "left"
      },
      {
        "midi": 78,
        "time": 84.452,
        "duration": 0.103,
        "velocity": 1,
        "hand": "right"
      },
      {
        "midi": 50,
        "time": 84.555,
        "duration": 0.103,
        "velocity": 1,
        "hand": "left"
      },
      {
        "midi": 79,
        "time": 84.555,
        "duration": 0.103,
        "velocity": 1,
        "hand": "right"
      },
      {
        "midi": 59,
        "time": 84.658,
        "duration": 0.103,
        "velocity": 1,
        "hand": "left"
      },
      {
        "midi": 81,
        "time": 84.658,
        "duration": 0.103,
        "velocity": 1,
        "hand": "right"
      },
      {
        "midi": 55,
        "time": 84.76,
        "duration": 0.103,
        "velocity": 1,
        "hand": "left"
      },
      {
        "midi": 83,
        "time": 84.76,
        "duration": 0.103,
        "velocity": 1,
        "hand": "right"
      },
      {
        "midi": 59,
        "time": 84.863,
        "duration": 0.103,
        "velocity": 1,
        "hand": "left"
      },
      {
        "midi": 84,
        "time": 84.863,
        "duration": 0.103,
        "velocity": 1,
        "hand": "right"
      },
      {
        "midi": 50,
        "time": 84.966,
        "duration": 0.103,
        "velocity": 1,
        "hand": "left"
      },
      {
        "midi": 86,
        "time": 84.966,
        "duration": 0.103,
        "velocity": 1,
        "hand": "right"
      },
      {
        "midi": 59,
        "time": 85.068,
        "duration": 0.103,
        "velocity": 1,
        "hand": "left"
      },
      {
        "midi": 84,
        "time": 85.068,
        "duration": 0.103,
        "velocity": 1,
        "hand": "right"
      },
      {
        "midi": 55,
        "time": 85.171,
        "duration": 0.103,
        "velocity": 1,
        "hand": "left"
      },
      {
        "midi": 83,
        "time": 85.171,
        "duration": 0.103,
        "velocity": 1,
        "hand": "right"
      },
      {
        "midi": 59,
        "time": 85.274,
        "duration": 0.103,
        "velocity": 1,
        "hand": "left"
      },
      {
        "midi": 84,
        "time": 85.274,
        "duration": 0.103,
        "velocity": 1,
        "hand": "right"
      },
      {
        "midi": 50,
        "time": 85.377,
        "duration": 0.103,
        "velocity": 1,
        "hand": "left"
      },
      {
        "midi": 86,
        "time": 85.377,
        "duration": 0.103,
        "velocity": 1,
        "hand": "right"
      },
      {
        "midi": 59,
        "time": 85.479,
        "duration": 0.103,
        "velocity": 1,
        "hand": "left"
      },
      {
        "midi": 83,
        "time": 85.479,
        "duration": 0.103,
        "velocity": 1,
        "hand": "right"
      },
      {
        "midi": 55,
        "time": 85.582,
        "duration": 0.103,
        "velocity": 1,
        "hand": "left"
      },
      {
        "midi": 81,
        "time": 85.582,
        "duration": 0.103,
        "velocity": 1,
        "hand": "right"
      },
      {
        "midi": 59,
        "time": 85.685,
        "duration": 0.103,
        "velocity": 1,
        "hand": "left"
      },
      {
        "midi": 79,
        "time": 85.685,
        "duration": 0.103,
        "velocity": 1,
        "hand": "right"
      },
      {
        "midi": 50,
        "time": 85.788,
        "duration": 0.103,
        "velocity": 1,
        "hand": "left"
      },
      {
        "midi": 81,
        "time": 85.788,
        "duration": 1.644,
        "velocity": 1,
        "hand": "right"
      },
      {
        "midi": 60,
        "time": 85.89,
        "duration": 0.103,
        "velocity": 1,
        "hand": "right"
      },
      {
        "midi": 54,
        "time": 85.993,
        "duration": 0.103,
        "velocity": 1,
        "hand": "left"
      },
      {
        "midi": 60,
        "time": 86.096,
        "duration": 0.103,
        "velocity": 1,
        "hand": "right"
      },
      {
        "midi": 50,
        "time": 86.199,
        "duration": 0.103,
        "velocity": 1,
        "hand": "left"
      },
      {
        "midi": 60,
        "time": 86.301,
        "duration": 0.103,
        "velocity": 1,
        "hand": "right"
      },
      {
        "midi": 54,
        "time": 86.404,
        "duration": 0.103,
        "velocity": 1,
        "hand": "left"
      },
      {
        "midi": 60,
        "time": 86.507,
        "duration": 0.103,
        "velocity": 1,
        "hand": "right"
      },
      {
        "midi": 50,
        "time": 86.61,
        "duration": 0.103,
        "velocity": 1,
        "hand": "left"
      },
      {
        "midi": 60,
        "time": 86.712,
        "duration": 0.103,
        "velocity": 1,
        "hand": "right"
      },
      {
        "midi": 54,
        "time": 86.815,
        "duration": 0.103,
        "velocity": 1,
        "hand": "left"
      },
      {
        "midi": 60,
        "time": 86.918,
        "duration": 0.103,
        "velocity": 1,
        "hand": "right"
      },
      {
        "midi": 50,
        "time": 87.021,
        "duration": 0.103,
        "velocity": 1,
        "hand": "left"
      },
      {
        "midi": 60,
        "time": 87.123,
        "duration": 0.103,
        "velocity": 1,
        "hand": "right"
      },
      {
        "midi": 54,
        "time": 87.226,
        "duration": 0.103,
        "velocity": 1,
        "hand": "left"
      },
      {
        "midi": 60,
        "time": 87.329,
        "duration": 0.103,
        "velocity": 1,
        "hand": "right"
      },
      {
        "midi": 55,
        "time": 87.432,
        "duration": 0.411,
        "velocity": 1,
        "hand": "left"
      },
      {
        "midi": 59,
        "time": 87.432,
        "duration": 0.411,
        "velocity": 1,
        "hand": "left"
      },
      {
        "midi": 79,
        "time": 87.432,
        "duration": 0.411,
        "velocity": 1,
        "hand": "right"
      },
      {
        "midi": 67,
        "time": 87.842,
        "duration": 0.411,
        "velocity": 1,
        "hand": "right"
      },
      {
        "midi": 71,
        "time": 88.048,
        "duration": 0.205,
        "velocity": 1,
        "hand": "right"
      },
      {
        "midi": 69,
        "time": 88.253,
        "duration": 0.411,
        "velocity": 1,
        "hand": "right"
      },
      {
        "midi": 74,
        "time": 88.253,
        "duration": 0.205,
        "velocity": 1,
        "hand": "right"
      },
      {
        "midi": 72,
        "time": 88.459,
        "duration": 0.205,
        "velocity": 1,
        "hand": "right"
      },
      {
        "midi": 66,
        "time": 88.664,
        "duration": 0.411,
        "velocity": 1,
        "hand": "right"
      },
      {
        "midi": 69,
        "time": 88.87,
        "duration": 0.205,
        "velocity": 1,
        "hand": "right"
      },
      {
        "midi": 67,
        "time": 89.075,
        "duration": 0.411,
        "velocity": 1,
        "hand": "right"
      },
      {
        "midi": 72,
        "time": 89.075,
        "duration": 0.205,
        "velocity": 1,
        "hand": "right"
      },
      {
        "midi": 71,
        "time": 89.281,
        "duration": 0.205,
        "velocity": 1,
        "hand": "right"
      },
      {
        "midi": 64,
        "time": 89.486,
        "duration": 0.411,
        "velocity": 1,
        "hand": "right"
      },
      {
        "midi": 67,
        "time": 89.692,
        "duration": 0.205,
        "velocity": 1,
        "hand": "right"
      },
      {
        "midi": 60,
        "time": 89.897,
        "duration": 0.411,
        "velocity": 1,
        "hand": "right"
      },
      {
        "midi": 71,
        "time": 89.897,
        "duration": 0.205,
        "velocity": 1,
        "hand": "right"
      },
      {
        "midi": 69,
        "time": 90.103,
        "duration": 0.205,
        "velocity": 1,
        "hand": "right"
      },
      {
        "midi": 62,
        "time": 90.308,
        "duration": 0.411,
        "velocity": 1,
        "hand": "right"
      },
      {
        "midi": 66,
        "time": 90.514,
        "duration": 0.205,
        "velocity": 1,
        "hand": "right"
      },
      {
        "midi": 59,
        "time": 90.719,
        "duration": 0.411,
        "velocity": 1,
        "hand": "left"
      },
      {
        "midi": 69,
        "time": 90.719,
        "duration": 0.205,
        "velocity": 1,
        "hand": "right"
      },
      {
        "midi": 67,
        "time": 90.925,
        "duration": 0.205,
        "velocity": 1,
        "hand": "right"
      },
      {
        "midi": 43,
        "time": 91.13,
        "duration": 0.411,
        "velocity": 1,
        "hand": "left"
      },
      {
        "midi": 55,
        "time": 91.13,
        "duration": 0.411,
        "velocity": 1,
        "hand": "left"
      },
      {
        "midi": 71,
        "time": 91.13,
        "duration": 0.103,
        "velocity": 1,
        "hand": "right"
      },
      {
        "midi": 72,
        "time": 91.233,
        "duration": 0.103,
        "velocity": 1,
        "hand": "right"
      },
      {
        "midi": 74,
        "time": 91.336,
        "duration": 0.103,
        "velocity": 1,
        "hand": "right"
      },
      {
        "midi": 71,
        "time": 91.438,
        "duration": 0.103,
        "velocity": 1,
        "hand": "right"
      },
      {
        "midi": 45,
        "time": 91.541,
        "duration": 0.411,
        "velocity": 1,
        "hand": "left"
      },
      {
        "midi": 57,
        "time": 91.541,
        "duration": 0.411,
        "velocity": 1,
        "hand": "left"
      },
      {
        "midi": 72,
        "time": 91.541,
        "duration": 0.103,
        "velocity": 1,
        "hand": "right"
      },
      {
        "midi": 74,
        "time": 91.644,
        "duration": 0.103,
        "velocity": 1,
        "hand": "right"
      },
      {
        "midi": 76,
        "time": 91.747,
        "duration": 0.103,
        "velocity": 1,
        "hand": "right"
      },
      {
        "midi": 72,
        "time": 91.849,
        "duration": 0.103,
        "velocity": 1,
        "hand": "right"
      },
      {
        "midi": 42,
        "time": 91.952,
        "duration": 0.411,
        "velocity": 1,
        "hand": "left"
      },
      {
        "midi": 54,
        "time": 91.952,
        "duration": 0.411,
        "velocity": 1,
        "hand": "left"
      },
      {
        "midi": 81,
        "time": 91.952,
        "duration": 0.103,
        "velocity": 1,
        "hand": "right"
      },
      {
        "midi": 83,
        "time": 92.055,
        "duration": 0.103,
        "velocity": 1,
        "hand": "right"
      },
      {
        "midi": 84,
        "time": 92.158,
        "duration": 0.103,
        "velocity": 1,
        "hand": "right"
      },
      {
        "midi": 81,
        "time": 92.26,
        "duration": 0.103,
        "velocity": 1,
        "hand": "right"
      },
      {
        "midi": 43,
        "time": 92.363,
        "duration": 0.411,
        "velocity": 1,
        "hand": "left"
      },
      {
        "midi": 55,
        "time": 92.363,
        "duration": 0.411,
        "velocity": 1,
        "hand": "left"
      },
      {
        "midi": 83,
        "time": 92.363,
        "duration": 0.103,
        "velocity": 1,
        "hand": "right"
      },
      {
        "midi": 84,
        "time": 92.466,
        "duration": 0.103,
        "velocity": 1,
        "hand": "right"
      },
      {
        "midi": 86,
        "time": 92.568,
        "duration": 0.103,
        "velocity": 1,
        "hand": "right"
      },
      {
        "midi": 83,
        "time": 92.671,
        "duration": 0.103,
        "velocity": 1,
        "hand": "right"
      },
      {
        "midi": 40,
        "time": 92.774,
        "duration": 0.411,
        "velocity": 1,
        "hand": "left"
      },
      {
        "midi": 52,
        "time": 92.774,
        "duration": 0.411,
        "velocity": 1,
        "hand": "left"
      },
      {
        "midi": 67,
        "time": 92.774,
        "duration": 0.103,
        "velocity": 1,
        "hand": "right"
      },
      {
        "midi": 69,
        "time": 92.877,
        "duration": 0.103,
        "velocity": 1,
        "hand": "right"
      },
      {
        "midi": 71,
        "time": 92.979,
        "duration": 0.103,
        "velocity": 1,
        "hand": "right"
      },
      {
        "midi": 67,
        "time": 93.082,
        "duration": 0.103,
        "velocity": 1,
        "hand": "right"
      },
      {
        "midi": 36,
        "time": 93.185,
        "duration": 0.411,
        "velocity": 1,
        "hand": "left"
      },
      {
        "midi": 48,
        "time": 93.185,
        "duration": 0.411,
        "velocity": 1,
        "hand": "left"
      },
      {
        "midi": 69,
        "time": 93.185,
        "duration": 0.103,
        "velocity": 1,
        "hand": "right"
      },
      {
        "midi": 71,
        "time": 93.288,
        "duration": 0.103,
        "velocity": 1,
        "hand": "right"
      },
      {
        "midi": 72,
        "time": 93.39,
        "duration": 0.103,
        "velocity": 1,
        "hand": "right"
      },
      {
        "midi": 69,
        "time": 93.493,
        "duration": 0.103,
        "velocity": 1,
        "hand": "right"
      },
      {
        "midi": 38,
        "time": 93.596,
        "duration": 0.411,
        "velocity": 1,
        "hand": "left"
      },
      {
        "midi": 50,
        "time": 93.596,
        "duration": 0.411,
        "velocity": 1,
        "hand": "left"
      },
      {
        "midi": 78,
        "time": 93.596,
        "duration": 0.103,
        "velocity": 1,
        "hand": "right"
      },
      {
        "midi": 79,
        "time": 93.699,
        "duration": 0.103,
        "velocity": 1,
        "hand": "right"
      },
      {
        "midi": 81,
        "time": 93.801,
        "duration": 0.103,
        "velocity": 1,
        "hand": "right"
      },
      {
        "midi": 78,
        "time": 93.904,
        "duration": 0.103,
        "velocity": 1,
        "hand": "right"
      },
      {
        "midi": 43,
        "time": 94.007,
        "duration": 0.411,
        "velocity": 1,
        "hand": "left"
      },
      {
        "midi": 79,
        "time": 94.007,
        "duration": 0.411,
        "velocity": 1,
        "hand": "right"
      },
      {
        "midi": 43,
        "time": 94.418,
        "duration": 0.411,
        "velocity": 1,
        "hand": "left"
      },
      {
        "midi": 74,
        "time": 94.418,
        "duration": 0.411,
        "velocity": 1,
        "hand": "right"
      },
      {
        "midi": 83,
        "time": 94.418,
        "duration": 0.411,
        "velocity": 1,
        "hand": "right"
      },
      {
        "midi": 43,
        "time": 94.829,
        "duration": 0.411,
        "velocity": 1,
        "hand": "left"
      },
      {
        "midi": 71,
        "time": 94.829,
        "duration": 0.411,
        "velocity": 1,
        "hand": "right"
      },
      {
        "midi": 79,
        "time": 94.829,
        "duration": 0.411,
        "velocity": 1,
        "hand": "right"
      },
      {
        "midi": 31,
        "time": 95.753,
        "duration": 0.822,
        "velocity": 1,
        "hand": "left"
      },
      {
        "midi": 43,
        "time": 95.753,
        "duration": 0.822,
        "velocity": 1,
        "hand": "left"
      },
      {
        "midi": 67,
        "time": 95.753,
        "duration": 0.822,
        "velocity": 1,
        "hand": "right"
      },
      {
        "midi": 38,
        "time": 96.575,
        "duration": 0.822,
        "velocity": 1,
        "hand": "left"
      },
      {
        "midi": 62,
        "time": 96.575,
        "duration": 0.822,
        "velocity": 1,
        "hand": "right"
      },
      {
        "midi": 46,
        "time": 97.397,
        "duration": 0.616,
        "velocity": 1,
        "hand": "left"
      },
      {
        "midi": 70,
        "time": 97.397,
        "duration": 0.616,
        "velocity": 1,
        "hand": "right"
      },
      {
        "midi": 48,
        "time": 98.014,
        "duration": 0.103,
        "velocity": 1,
        "hand": "left"
      },
      {
        "midi": 72,
        "time": 98.014,
        "duration": 0.103,
        "velocity": 1,
        "hand": "right"
      },
      {
        "midi": 45,
        "time": 98.116,
        "duration": 0.103,
        "velocity": 1,
        "hand": "left"
      },
      {
        "midi": 69,
        "time": 98.116,
        "duration": 0.103,
        "velocity": 1,
        "hand": "right"
      },
      {
        "midi": 43,
        "time": 98.219,
        "duration": 0.411,
        "velocity": 1,
        "hand": "left"
      },
      {
        "midi": 67,
        "time": 98.219,
        "duration": 0.411,
        "velocity": 1,
        "hand": "right"
      },
      {
        "midi": 70,
        "time": 99.041,
        "duration": 0.616,
        "velocity": 1,
        "hand": "right"
      },
      {
        "midi": 74,
        "time": 99.041,
        "duration": 0.616,
        "velocity": 1,
        "hand": "right"
      },
      {
        "midi": 72,
        "time": 99.658,
        "duration": 0.103,
        "velocity": 1,
        "hand": "right"
      },
      {
        "midi": 75,
        "time": 99.658,
        "duration": 0.103,
        "velocity": 1,
        "hand": "right"
      },
      {
        "midi": 69,
        "time": 99.76,
        "duration": 0.103,
        "velocity": 1,
        "hand": "right"
      },
      {
        "midi": 72,
        "time": 99.76,
        "duration": 0.103,
        "velocity": 1,
        "hand": "right"
      },
      {
        "midi": 67,
        "time": 99.863,
        "duration": 0.411,
        "velocity": 1,
        "hand": "right"
      },
      {
        "midi": 70,
        "time": 99.863,
        "duration": 0.411,
        "velocity": 1,
        "hand": "right"
      },
      {
        "midi": 74,
        "time": 100.685,
        "duration": 0.616,
        "velocity": 1,
        "hand": "right"
      },
      {
        "midi": 82,
        "time": 100.685,
        "duration": 0.616,
        "velocity": 1,
        "hand": "right"
      },
      {
        "midi": 75,
        "time": 101.301,
        "duration": 0.103,
        "velocity": 1,
        "hand": "right"
      },
      {
        "midi": 84,
        "time": 101.301,
        "duration": 0.103,
        "velocity": 1,
        "hand": "right"
      },
      {
        "midi": 72,
        "time": 101.404,
        "duration": 0.103,
        "velocity": 1,
        "hand": "right"
      },
      {
        "midi": 81,
        "time": 101.404,
        "duration": 0.103,
        "velocity": 1,
        "hand": "right"
      },
      {
        "midi": 70,
        "time": 101.507,
        "duration": 0.411,
        "velocity": 1,
        "hand": "right"
      },
      {
        "midi": 79,
        "time": 101.507,
        "duration": 0.411,
        "velocity": 1,
        "hand": "right"
      },
      {
        "midi": 58,
        "time": 102.329,
        "duration": 0.205,
        "velocity": 1,
        "hand": "left"
      },
      {
        "midi": 62,
        "time": 102.329,
        "duration": 0.205,
        "velocity": 1,
        "hand": "right"
      },
      {
        "midi": 67,
        "time": 102.534,
        "duration": 0.205,
        "velocity": 1,
        "hand": "right"
      },
      {
        "midi": 58,
        "time": 102.74,
        "duration": 0.205,
        "velocity": 1,
        "hand": "left"
      },
      {
        "midi": 62,
        "time": 102.74,
        "duration": 0.205,
        "velocity": 1,
        "hand": "right"
      },
      {
        "midi": 79,
        "time": 102.74,
        "duration": 0.411,
        "velocity": 1,
        "hand": "right"
      },
      {
        "midi": 67,
        "time": 102.945,
        "duration": 0.205,
        "velocity": 1,
        "hand": "right"
      },
      {
        "midi": 58,
        "time": 103.151,
        "duration": 0.205,
        "velocity": 1,
        "hand": "left"
      },
      {
        "midi": 62,
        "time": 103.151,
        "duration": 0.205,
        "velocity": 1,
        "hand": "right"
      },
      {
        "midi": 86,
        "time": 103.151,
        "duration": 0.411,
        "velocity": 1,
        "hand": "right"
      },
      {
        "midi": 67,
        "time": 103.356,
        "duration": 0.205,
        "velocity": 1,
        "hand": "right"
      },
      {
        "midi": 58,
        "time": 103.562,
        "duration": 0.205,
        "velocity": 1,
        "hand": "left"
      },
      {
        "midi": 62,
        "time": 103.562,
        "duration": 0.205,
        "velocity": 1,
        "hand": "right"
      },
      {
        "midi": 88,
        "time": 103.562,
        "duration": 0.411,
        "velocity": 1,
        "hand": "right"
      },
      {
        "midi": 67,
        "time": 103.767,
        "duration": 0.205,
        "velocity": 1,
        "hand": "right"
      },
      {
        "midi": 57,
        "time": 103.973,
        "duration": 0.205,
        "velocity": 1,
        "hand": "left"
      },
      {
        "midi": 64,
        "time": 103.973,
        "duration": 0.205,
        "velocity": 1,
        "hand": "right"
      },
      {
        "midi": 86,
        "time": 103.973,
        "duration": 0.822,
        "velocity": 1,
        "hand": "right"
      },
      {
        "midi": 67,
        "time": 104.178,
        "duration": 0.205,
        "velocity": 1,
        "hand": "right"
      },
      {
        "midi": 57,
        "time": 104.384,
        "duration": 0.205,
        "velocity": 1,
        "hand": "left"
      },
      {
        "midi": 64,
        "time": 104.384,
        "duration": 0.205,
        "velocity": 1,
        "hand": "right"
      },
      {
        "midi": 67,
        "time": 104.589,
        "duration": 0.205,
        "velocity": 1,
        "hand": "right"
      },
      {
        "midi": 57,
        "time": 104.795,
        "duration": 0.205,
        "velocity": 1,
        "hand": "left"
      },
      {
        "midi": 64,
        "time": 104.795,
        "duration": 0.205,
        "velocity": 1,
        "hand": "right"
      },
      {
        "midi": 85,
        "time": 104.795,
        "duration": 0.411,
        "velocity": 1,
        "hand": "right"
      },
      {
        "midi": 67,
        "time": 105,
        "duration": 0.205,
        "velocity": 1,
        "hand": "right"
      },
      {
        "midi": 57,
        "time": 105.205,
        "duration": 0.205,
        "velocity": 1,
        "hand": "left"
      },
      {
        "midi": 64,
        "time": 105.205,
        "duration": 0.205,
        "velocity": 1,
        "hand": "right"
      },
      {
        "midi": 67,
        "time": 105.411,
        "duration": 0.205,
        "velocity": 1,
        "hand": "right"
      },
      {
        "midi": 58,
        "time": 105.616,
        "duration": 0.205,
        "velocity": 1,
        "hand": "left"
      },
      {
        "midi": 62,
        "time": 105.616,
        "duration": 0.205,
        "velocity": 1,
        "hand": "right"
      },
      {
        "midi": 67,
        "time": 105.822,
        "duration": 0.205,
        "velocity": 1,
        "hand": "right"
      },
      {
        "midi": 79,
        "time": 105.925,
        "duration": 0.103,
        "velocity": 1,
        "hand": "right"
      },
      {
        "midi": 58,
        "time": 106.027,
        "duration": 0.205,
        "velocity": 1,
        "hand": "left"
      },
      {
        "midi": 62,
        "time": 106.027,
        "duration": 0.205,
        "velocity": 1,
        "hand": "right"
      },
      {
        "midi": 79,
        "time": 106.027,
        "duration": 0.308,
        "velocity": 1,
        "hand": "right"
      },
      {
        "midi": 67,
        "time": 106.233,
        "duration": 0.205,
        "velocity": 1,
        "hand": "right"
      },
      {
        "midi": 58,
        "time": 106.438,
        "duration": 0.205,
        "velocity": 1,
        "hand": "left"
      },
      {
        "midi": 62,
        "time": 106.438,
        "duration": 0.205,
        "velocity": 1,
        "hand": "right"
      },
      {
        "midi": 86,
        "time": 106.438,
        "duration": 0.411,
        "velocity": 1,
        "hand": "right"
      },
      {
        "midi": 67,
        "time": 106.644,
        "duration": 0.205,
        "velocity": 1,
        "hand": "right"
      },
      {
        "midi": 58,
        "time": 106.849,
        "duration": 0.205,
        "velocity": 1,
        "hand": "left"
      },
      {
        "midi": 62,
        "time": 106.849,
        "duration": 0.205,
        "velocity": 1,
        "hand": "right"
      },
      {
        "midi": 88,
        "time": 106.849,
        "duration": 0.411,
        "velocity": 1,
        "hand": "right"
      },
      {
        "midi": 67,
        "time": 107.055,
        "duration": 0.205,
        "velocity": 1,
        "hand": "right"
      },
      {
        "midi": 57,
        "time": 107.26,
        "duration": 0.205,
        "velocity": 1,
        "hand": "left"
      },
      {
        "midi": 64,
        "time": 107.26,
        "duration": 0.205,
        "velocity": 1,
        "hand": "right"
      },
      {
        "midi": 86,
        "time": 107.26,
        "duration": 0.822,
        "velocity": 1,
        "hand": "right"
      },
      {
        "midi": 67,
        "time": 107.466,
        "duration": 0.205,
        "velocity": 1,
        "hand": "right"
      },
      {
        "midi": 57,
        "time": 107.671,
        "duration": 0.205,
        "velocity": 1,
        "hand": "left"
      },
      {
        "midi": 64,
        "time": 107.671,
        "duration": 0.205,
        "velocity": 1,
        "hand": "right"
      },
      {
        "midi": 67,
        "time": 107.877,
        "duration": 0.205,
        "velocity": 1,
        "hand": "right"
      },
      {
        "midi": 57,
        "time": 108.082,
        "duration": 0.205,
        "velocity": 1,
        "hand": "left"
      },
      {
        "midi": 64,
        "time": 108.082,
        "duration": 0.205,
        "velocity": 1,
        "hand": "right"
      },
      {
        "midi": 85,
        "time": 108.082,
        "duration": 0.411,
        "velocity": 1,
        "hand": "right"
      },
      {
        "midi": 67,
        "time": 108.288,
        "duration": 0.205,
        "velocity": 1,
        "hand": "right"
      },
      {
        "midi": 57,
        "time": 108.493,
        "duration": 0.205,
        "velocity": 1,
        "hand": "left"
      },
      {
        "midi": 64,
        "time": 108.493,
        "duration": 0.205,
        "velocity": 1,
        "hand": "right"
      },
      {
        "midi": 67,
        "time": 108.699,
        "duration": 0.205,
        "velocity": 1,
        "hand": "right"
      },
      {
        "midi": 38,
        "time": 109.11,
        "duration": 0.822,
        "velocity": 1,
        "hand": "left"
      },
      {
        "midi": 62,
        "time": 109.11,
        "duration": 0.822,
        "velocity": 1,
        "hand": "right"
      },
      {
        "midi": 45,
        "time": 109.932,
        "duration": 0.822,
        "velocity": 1,
        "hand": "left"
      },
      {
        "midi": 57,
        "time": 109.932,
        "duration": 0.822,
        "velocity": 1,
        "hand": "left"
      },
      {
        "midi": 53,
        "time": 110.753,
        "duration": 0.616,
        "velocity": 1,
        "hand": "left"
      },
      {
        "midi": 65,
        "time": 110.753,
        "duration": 0.616,
        "velocity": 1,
        "hand": "right"
      },
      {
        "midi": 55,
        "time": 111.37,
        "duration": 0.103,
        "velocity": 1,
        "hand": "left"
      },
      {
        "midi": 67,
        "time": 111.37,
        "duration": 0.103,
        "velocity": 1,
        "hand": "right"
      },
      {
        "midi": 52,
        "time": 111.473,
        "duration": 0.103,
        "velocity": 1,
        "hand": "left"
      },
      {
        "midi": 64,
        "time": 111.473,
        "duration": 0.103,
        "velocity": 1,
        "hand": "right"
      },
      {
        "midi": 50,
        "time": 111.575,
        "duration": 0.411,
        "velocity": 1,
        "hand": "left"
      },
      {
        "midi": 62,
        "time": 111.575,
        "duration": 0.411,
        "velocity": 1,
        "hand": "right"
      },
      {
        "midi": 53,
        "time": 112.397,
        "duration": 0.411,
        "velocity": 1,
        "hand": "left"
      },
      {
        "midi": 57,
        "time": 112.397,
        "duration": 0.205,
        "velocity": 1,
        "hand": "left"
      },
      {
        "midi": 62,
        "time": 112.603,
        "duration": 0.205,
        "velocity": 1,
        "hand": "right"
      },
      {
        "midi": 74,
        "time": 112.705,
        "duration": 0.103,
        "velocity": 1,
        "hand": "right"
      },
      {
        "midi": 53,
        "time": 112.808,
        "duration": 0.411,
        "velocity": 1,
        "hand": "left"
      },
      {
        "midi": 57,
        "time": 112.808,
        "duration": 0.205,
        "velocity": 1,
        "hand": "left"
      },
      {
        "midi": 74,
        "time": 112.808,
        "duration": 0.308,
        "velocity": 1,
        "hand": "right"
      },
      {
        "midi": 62,
        "time": 113.014,
        "duration": 0.205,
        "velocity": 1,
        "hand": "right"
      },
      {
        "midi": 53,
        "time": 113.219,
        "duration": 0.411,
        "velocity": 1,
        "hand": "left"
      },
      {
        "midi": 57,
        "time": 113.219,
        "duration": 0.205,
        "velocity": 1,
        "hand": "left"
      },
      {
        "midi": 81,
        "time": 113.219,
        "duration": 0.411,
        "velocity": 1,
        "hand": "right"
      },
      {
        "midi": 62,
        "time": 113.425,
        "duration": 0.205,
        "velocity": 1,
        "hand": "right"
      },
      {
        "midi": 53,
        "time": 113.63,
        "duration": 0.411,
        "velocity": 1,
        "hand": "left"
      },
      {
        "midi": 57,
        "time": 113.63,
        "duration": 0.205,
        "velocity": 1,
        "hand": "left"
      },
      {
        "midi": 83,
        "time": 113.63,
        "duration": 0.411,
        "velocity": 1,
        "hand": "right"
      },
      {
        "midi": 62,
        "time": 113.836,
        "duration": 0.205,
        "velocity": 1,
        "hand": "right"
      },
      {
        "midi": 52,
        "time": 114.041,
        "duration": 0.411,
        "velocity": 1,
        "hand": "left"
      },
      {
        "midi": 59,
        "time": 114.041,
        "duration": 0.205,
        "velocity": 1,
        "hand": "left"
      },
      {
        "midi": 81,
        "time": 114.041,
        "duration": 0.822,
        "velocity": 1,
        "hand": "right"
      },
      {
        "midi": 62,
        "time": 114.247,
        "duration": 0.205,
        "velocity": 1,
        "hand": "right"
      },
      {
        "midi": 52,
        "time": 114.452,
        "duration": 0.411,
        "velocity": 1,
        "hand": "left"
      },
      {
        "midi": 59,
        "time": 114.452,
        "duration": 0.205,
        "velocity": 1,
        "hand": "left"
      },
      {
        "midi": 62,
        "time": 114.658,
        "duration": 0.205,
        "velocity": 1,
        "hand": "right"
      },
      {
        "midi": 52,
        "time": 114.863,
        "duration": 0.411,
        "velocity": 1,
        "hand": "left"
      },
      {
        "midi": 59,
        "time": 114.863,
        "duration": 0.205,
        "velocity": 1,
        "hand": "left"
      },
      {
        "midi": 80,
        "time": 114.863,
        "duration": 0.411,
        "velocity": 1,
        "hand": "right"
      },
      {
        "midi": 62,
        "time": 115.068,
        "duration": 0.205,
        "velocity": 1,
        "hand": "right"
      },
      {
        "midi": 52,
        "time": 115.274,
        "duration": 0.411,
        "velocity": 1,
        "hand": "left"
      },
      {
        "midi": 59,
        "time": 115.274,
        "duration": 0.205,
        "velocity": 1,
        "hand": "left"
      },
      {
        "midi": 62,
        "time": 115.479,
        "duration": 0.205,
        "velocity": 1,
        "hand": "right"
      },
      {
        "midi": 53,
        "time": 115.685,
        "duration": 0.411,
        "velocity": 1,
        "hand": "left"
      },
      {
        "midi": 57,
        "time": 115.685,
        "duration": 0.205,
        "velocity": 1,
        "hand": "left"
      },
      {
        "midi": 62,
        "time": 115.89,
        "duration": 0.205,
        "velocity": 1,
        "hand": "right"
      },
      {
        "midi": 81,
        "time": 115.89,
        "duration": 0.205,
        "velocity": 1,
        "hand": "right"
      },
      {
        "midi": 53,
        "time": 116.096,
        "duration": 0.411,
        "velocity": 1,
        "hand": "left"
      },
      {
        "midi": 57,
        "time": 116.096,
        "duration": 0.205,
        "velocity": 1,
        "hand": "left"
      },
      {
        "midi": 86,
        "time": 116.096,
        "duration": 0.205,
        "velocity": 1,
        "hand": "right"
      },
      {
        "midi": 62,
        "time": 116.301,
        "duration": 0.205,
        "velocity": 1,
        "hand": "right"
      },
      {
        "midi": 85,
        "time": 116.301,
        "duration": 0.205,
        "velocity": 1,
        "hand": "right"
      },
      {
        "midi": 53,
        "time": 116.507,
        "duration": 0.411,
        "velocity": 1,
        "hand": "left"
      },
      {
        "midi": 57,
        "time": 116.507,
        "duration": 0.205,
        "velocity": 1,
        "hand": "left"
      },
      {
        "midi": 88,
        "time": 116.507,
        "duration": 0.205,
        "velocity": 1,
        "hand": "right"
      },
      {
        "midi": 62,
        "time": 116.712,
        "duration": 0.205,
        "velocity": 1,
        "hand": "right"
      },
      {
        "midi": 86,
        "time": 116.712,
        "duration": 0.205,
        "velocity": 1,
        "hand": "right"
      },
      {
        "midi": 53,
        "time": 116.918,
        "duration": 0.411,
        "velocity": 1,
        "hand": "left"
      },
      {
        "midi": 57,
        "time": 116.918,
        "duration": 0.205,
        "velocity": 1,
        "hand": "left"
      },
      {
        "midi": 84,
        "time": 116.918,
        "duration": 0.205,
        "velocity": 1,
        "hand": "right"
      },
      {
        "midi": 62,
        "time": 117.123,
        "duration": 0.205,
        "velocity": 1,
        "hand": "right"
      },
      {
        "midi": 83,
        "time": 117.123,
        "duration": 0.205,
        "velocity": 1,
        "hand": "right"
      },
      {
        "midi": 52,
        "time": 117.329,
        "duration": 0.411,
        "velocity": 1,
        "hand": "left"
      },
      {
        "midi": 59,
        "time": 117.329,
        "duration": 0.205,
        "velocity": 1,
        "hand": "left"
      },
      {
        "midi": 81,
        "time": 117.329,
        "duration": 0.822,
        "velocity": 1,
        "hand": "right"
      },
      {
        "midi": 62,
        "time": 117.534,
        "duration": 0.205,
        "velocity": 1,
        "hand": "right"
      },
      {
        "midi": 52,
        "time": 117.74,
        "duration": 0.411,
        "velocity": 1,
        "hand": "left"
      },
      {
        "midi": 59,
        "time": 117.74,
        "duration": 0.205,
        "velocity": 1,
        "hand": "left"
      },
      {
        "midi": 62,
        "time": 117.945,
        "duration": 0.205,
        "velocity": 1,
        "hand": "right"
      },
      {
        "midi": 52,
        "time": 118.151,
        "duration": 0.411,
        "velocity": 1,
        "hand": "left"
      },
      {
        "midi": 59,
        "time": 118.151,
        "duration": 0.205,
        "velocity": 1,
        "hand": "left"
      },
      {
        "midi": 80,
        "time": 118.151,
        "duration": 0.411,
        "velocity": 1,
        "hand": "right"
      },
      {
        "midi": 62,
        "time": 118.356,
        "duration": 0.205,
        "velocity": 1,
        "hand": "right"
      },
      {
        "midi": 52,
        "time": 118.562,
        "duration": 0.411,
        "velocity": 1,
        "hand": "left"
      },
      {
        "midi": 59,
        "time": 118.562,
        "duration": 0.205,
        "velocity": 1,
        "hand": "left"
      },
      {
        "midi": 62,
        "time": 118.767,
        "duration": 0.205,
        "velocity": 1,
        "hand": "right"
      },
      {
        "midi": 57,
        "time": 118.973,
        "duration": 0.103,
        "velocity": 1,
        "hand": "left"
      },
      {
        "midi": 72,
        "time": 118.973,
        "duration": 0.822,
        "velocity": 1,
        "hand": "right"
      },
      {
        "midi": 84,
        "time": 118.973,
        "duration": 0.822,
        "velocity": 1,
        "hand": "right"
      },
      {
        "midi": 64,
        "time": 119.075,
        "duration": 0.103,
        "velocity": 1,
        "hand": "right"
      },
      {
        "midi": 60,
        "time": 119.178,
        "duration": 0.103,
        "velocity": 1,
        "hand": "right"
      },
      {
        "midi": 64,
        "time": 119.281,
        "duration": 0.103,
        "velocity": 1,
        "hand": "right"
      },
      {
        "midi": 57,
        "time": 119.384,
        "duration": 0.103,
        "velocity": 1,
        "hand": "left"
      },
      {
        "midi": 64,
        "time": 119.486,
        "duration": 0.103,
        "velocity": 1,
        "hand": "right"
      },
      {
        "midi": 60,
        "time": 119.589,
        "duration": 0.103,
        "velocity": 1,
        "hand": "right"
      },
      {
        "midi": 64,
        "time": 119.692,
        "duration": 0.103,
        "velocity": 1,
        "hand": "right"
      },
      {
        "midi": 57,
        "time": 119.795,
        "duration": 0.103,
        "velocity": 1,
        "hand": "left"
      },
      {
        "midi": 69,
        "time": 119.795,
        "duration": 0.822,
        "velocity": 1,
        "hand": "right"
      },
      {
        "midi": 81,
        "time": 119.795,
        "duration": 0.822,
        "velocity": 1,
        "hand": "right"
      },
      {
        "midi": 65,
        "time": 119.897,
        "duration": 0.103,
        "velocity": 1,
        "hand": "right"
      },
      {
        "midi": 60,
        "time": 120,
        "duration": 0.103,
        "velocity": 1,
        "hand": "right"
      },
      {
        "midi": 65,
        "time": 120.103,
        "duration": 0.103,
        "velocity": 1,
        "hand": "right"
      },
      {
        "midi": 57,
        "time": 120.205,
        "duration": 0.103,
        "velocity": 1,
        "hand": "left"
      },
      {
        "midi": 65,
        "time": 120.308,
        "duration": 0.103,
        "velocity": 1,
        "hand": "right"
      },
      {
        "midi": 60,
        "time": 120.411,
        "duration": 0.103,
        "velocity": 1,
        "hand": "right"
      },
      {
        "midi": 65,
        "time": 120.514,
        "duration": 0.103,
        "velocity": 1,
        "hand": "right"
      },
      {
        "midi": 57,
        "time": 120.616,
        "duration": 0.103,
        "velocity": 1,
        "hand": "left"
      },
      {
        "midi": 87,
        "time": 120.616,
        "duration": 0.616,
        "velocity": 1,
        "hand": "right"
      },
      {
        "midi": 66,
        "time": 120.719,
        "duration": 0.103,
        "velocity": 1,
        "hand": "right"
      },
      {
        "midi": 60,
        "time": 120.822,
        "duration": 0.103,
        "velocity": 1,
        "hand": "right"
      },
      {
        "midi": 66,
        "time": 120.925,
        "duration": 0.103,
        "velocity": 1,
        "hand": "right"
      },
      {
        "midi": 57,
        "time": 121.027,
        "duration": 0.103,
        "velocity": 1,
        "hand": "left"
      },
      {
        "midi": 66,
        "time": 121.13,
        "duration": 0.103,
        "velocity": 1,
        "hand": "right"
      },
      {
        "midi": 60,
        "time": 121.233,
        "duration": 0.103,
        "velocity": 1,
        "hand": "right"
      },
      {
        "midi": 88,
        "time": 121.233,
        "duration": 0.103,
        "velocity": 1,
        "hand": "right"
      },
      {
        "midi": 66,
        "time": 121.336,
        "duration": 0.103,
        "velocity": 1,
        "hand": "right"
      },
      {
        "midi": 87,
        "time": 121.336,
        "duration": 0.103,
        "velocity": 1,
        "hand": "right"
      },
      {
        "midi": 56,
        "time": 121.438,
        "duration": 0.103,
        "velocity": 1,
        "hand": "left"
      },
      {
        "midi": 88,
        "time": 121.438,
        "duration": 0.411,
        "velocity": 1,
        "hand": "right"
      },
      {
        "midi": 64,
        "time": 121.541,
        "duration": 0.103,
        "velocity": 1,
        "hand": "right"
      },
      {
        "midi": 59,
        "time": 121.644,
        "duration": 0.103,
        "velocity": 1,
        "hand": "left"
      },
      {
        "midi": 64,
        "time": 121.747,
        "duration": 0.103,
        "velocity": 1,
        "hand": "right"
      },
      {
        "midi": 56,
        "time": 121.849,
        "duration": 0.103,
        "velocity": 1,
        "hand": "left"
      },
      {
        "midi": 64,
        "time": 121.952,
        "duration": 0.103,
        "velocity": 1,
        "hand": "right"
      },
      {
        "midi": 59,
        "time": 122.055,
        "duration": 0.103,
        "velocity": 1,
        "hand": "left"
      },
      {
        "midi": 64,
        "time": 122.158,
        "duration": 0.103,
        "velocity": 1,
        "hand": "right"
      },
      {
        "midi": 55,
        "time": 122.26,
        "duration": 0.103,
        "velocity": 1,
        "hand": "left"
      },
      {
        "midi": 70,
        "time": 122.26,
        "duration": 0.822,
        "velocity": 1,
        "hand": "right"
      },
      {
        "midi": 82,
        "time": 122.26,
        "duration": 0.822,
        "velocity": 1,
        "hand": "right"
      },
      {
        "midi": 62,
        "time": 122.363,
        "duration": 0.103,
        "velocity": 1,
        "hand": "right"
      },
      {
        "midi": 58,
        "time": 122.466,
        "duration": 0.103,
        "velocity": 1,
        "hand": "left"
      },
      {
        "midi": 62,
        "time": 122.568,
        "duration": 0.103,
        "velocity": 1,
        "hand": "right"
      },
      {
        "midi": 55,
        "time": 122.671,
        "duration": 0.103,
        "velocity": 1,
        "hand": "left"
      },
      {
        "midi": 62,
        "time": 122.774,
        "duration": 0.103,
        "velocity": 1,
        "hand": "right"
      },
      {
        "midi": 58,
        "time": 122.877,
        "duration": 0.103,
        "velocity": 1,
        "hand": "left"
      },
      {
        "midi": 62,
        "time": 122.979,
        "duration": 0.103,
        "velocity": 1,
        "hand": "right"
      },
      {
        "midi": 55,
        "time": 123.082,
        "duration": 0.103,
        "velocity": 1,
        "hand": "left"
      },
      {
        "midi": 67,
        "time": 123.082,
        "duration": 0.822,
        "velocity": 1,
        "hand": "right"
      },
      {
        "midi": 79,
        "time": 123.082,
        "duration": 0.822,
        "velocity": 1,
        "hand": "right"
      },
      {
        "midi": 63,
        "time": 123.185,
        "duration": 0.103,
        "velocity": 1,
        "hand": "right"
      },
      {
        "midi": 58,
        "time": 123.288,
        "duration": 0.103,
        "velocity": 1,
        "hand": "left"
      },
      {
        "midi": 63,
        "time": 123.39,
        "duration": 0.103,
        "velocity": 1,
        "hand": "right"
      },
      {
        "midi": 55,
        "time": 123.493,
        "duration": 0.103,
        "velocity": 1,
        "hand": "left"
      },
      {
        "midi": 63,
        "time": 123.596,
        "duration": 0.103,
        "velocity": 1,
        "hand": "right"
      },
      {
        "midi": 58,
        "time": 123.699,
        "duration": 0.103,
        "velocity": 1,
        "hand": "left"
      },
      {
        "midi": 63,
        "time": 123.801,
        "duration": 0.103,
        "velocity": 1,
        "hand": "right"
      },
      {
        "midi": 55,
        "time": 123.904,
        "duration": 0.103,
        "velocity": 1,
        "hand": "left"
      },
      {
        "midi": 85,
        "time": 123.904,
        "duration": 0.616,
        "velocity": 1,
        "hand": "right"
      },
      {
        "midi": 64,
        "time": 124.007,
        "duration": 0.103,
        "velocity": 1,
        "hand": "right"
      },
      {
        "midi": 58,
        "time": 124.11,
        "duration": 0.103,
        "velocity": 1,
        "hand": "left"
      },
      {
        "midi": 64,
        "time": 124.212,
        "duration": 0.103,
        "velocity": 1,
        "hand": "right"
      },
      {
        "midi": 55,
        "time": 124.315,
        "duration": 0.103,
        "velocity": 1,
        "hand": "left"
      },
      {
        "midi": 64,
        "time": 124.418,
        "duration": 0.103,
        "velocity": 1,
        "hand": "right"
      },
      {
        "midi": 58,
        "time": 124.521,
        "duration": 0.103,
        "velocity": 1,
        "hand": "left"
      },
      {
        "midi": 86,
        "time": 124.521,
        "duration": 0.103,
        "velocity": 1,
        "hand": "right"
      },
      {
        "midi": 64,
        "time": 124.623,
        "duration": 0.103,
        "velocity": 1,
        "hand": "right"
      },
      {
        "midi": 85,
        "time": 124.623,
        "duration": 0.103,
        "velocity": 1,
        "hand": "right"
      },
      {
        "midi": 54,
        "time": 124.726,
        "duration": 0.103,
        "velocity": 1,
        "hand": "left"
      },
      {
        "midi": 86,
        "time": 124.726,
        "duration": 0.411,
        "velocity": 1,
        "hand": "right"
      },
      {
        "midi": 62,
        "time": 124.829,
        "duration": 0.103,
        "velocity": 1,
        "hand": "right"
      },
      {
        "midi": 57,
        "time": 124.932,
        "duration": 0.103,
        "velocity": 1,
        "hand": "left"
      },
      {
        "midi": 62,
        "time": 125.034,
        "duration": 0.103,
        "velocity": 1,
        "hand": "right"
      },
      {
        "midi": 54,
        "time": 125.137,
        "duration": 0.103,
        "velocity": 1,
        "hand": "left"
      },
      {
        "midi": 62,
        "time": 125.24,
        "duration": 0.103,
        "velocity": 1,
        "hand": "right"
      },
      {
        "midi": 57,
        "time": 125.342,
        "duration": 0.103,
        "velocity": 1,
        "hand": "left"
      },
      {
        "midi": 62,
        "time": 125.445,
        "duration": 0.103,
        "velocity": 1,
        "hand": "right"
      },
      {
        "midi": 53,
        "time": 125.548,
        "duration": 0.103,
        "velocity": 1,
        "hand": "left"
      },
      {
        "midi": 83,
        "time": 125.548,
        "duration": 0.616,
        "velocity": 1,
        "hand": "right"
      },
      {
        "midi": 62,
        "time": 125.651,
        "duration": 0.103,
        "velocity": 1,
        "hand": "right"
      },
      {
        "midi": 56,
        "time": 125.753,
        "duration": 0.103,
        "velocity": 1,
        "hand": "left"
      },
      {
        "midi": 62,
        "time": 125.856,
        "duration": 0.103,
        "velocity": 1,
        "hand": "right"
      },
      {
        "midi": 53,
        "time": 125.959,
        "duration": 0.103,
        "velocity": 1,
        "hand": "left"
      },
      {
        "midi": 62,
        "time": 126.062,
        "duration": 0.103,
        "velocity": 1,
        "hand": "right"
      },
      {
        "midi": 56,
        "time": 126.164,
        "duration": 0.103,
        "velocity": 1,
        "hand": "left"
      },
      {
        "midi": 84,
        "time": 126.164,
        "duration": 0.103,
        "velocity": 1,
        "hand": "right"
      },
      {
        "midi": 62,
        "time": 126.267,
        "duration": 0.103,
        "velocity": 1,
        "hand": "right"
      },
      {
        "midi": 83,
        "time": 126.267,
        "duration": 0.103,
        "velocity": 1,
        "hand": "right"
      },
      {
        "midi": 52,
        "time": 126.37,
        "duration": 0.103,
        "velocity": 1,
        "hand": "left"
      },
      {
        "midi": 84,
        "time": 126.37,
        "duration": 0.411,
        "velocity": 1,
        "hand": "right"
      },
      {
        "midi": 60,
        "time": 126.473,
        "duration": 0.103,
        "velocity": 1,
        "hand": "right"
      },
      {
        "midi": 55,
        "time": 126.575,
        "duration": 0.103,
        "velocity": 1,
        "hand": "left"
      },
      {
        "midi": 60,
        "time": 126.678,
        "duration": 0.103,
        "velocity": 1,
        "hand": "right"
      },
      {
        "midi": 52,
        "time": 126.781,
        "duration": 0.103,
        "velocity": 1,
        "hand": "left"
      },
      {
        "midi": 60,
        "time": 126.884,
        "duration": 0.103,
        "velocity": 1,
        "hand": "right"
      },
      {
        "midi": 55,
        "time": 126.986,
        "duration": 0.103,
        "velocity": 1,
        "hand": "left"
      },
      {
        "midi": 60,
        "time": 127.089,
        "duration": 0.103,
        "velocity": 1,
        "hand": "right"
      },
      {
        "midi": 50,
        "time": 127.192,
        "duration": 0.103,
        "velocity": 1,
        "hand": "left"
      },
      {
        "midi": 80,
        "time": 127.192,
        "duration": 0.616,
        "velocity": 1,
        "hand": "right"
      },
      {
        "midi": 59,
        "time": 127.295,
        "duration": 0.103,
        "velocity": 1,
        "hand": "left"
      },
      {
        "midi": 53,
        "time": 127.397,
        "duration": 0.103,
        "velocity": 1,
        "hand": "left"
      },
      {
        "midi": 59,
        "time": 127.5,
        "duration": 0.103,
        "velocity": 1,
        "hand": "left"
      },
      {
        "midi": 50,
        "time": 127.603,
        "duration": 0.103,
        "velocity": 1,
        "hand": "left"
      },
      {
        "midi": 59,
        "time": 127.705,
        "duration": 0.103,
        "velocity": 1,
        "hand": "left"
      },
      {
        "midi": 53,
        "time": 127.808,
        "duration": 0.103,
        "velocity": 1,
        "hand": "left"
      },
      {
        "midi": 81,
        "time": 127.808,
        "duration": 0.103,
        "velocity": 1,
        "hand": "right"
      },
      {
        "midi": 59,
        "time": 127.911,
        "duration": 0.103,
        "velocity": 1,
        "hand": "left"
      },
      {
        "midi": 80,
        "time": 127.911,
        "duration": 0.103,
        "velocity": 1,
        "hand": "right"
      },
      {
        "midi": 48,
        "time": 128.014,
        "duration": 0.103,
        "velocity": 1,
        "hand": "left"
      },
      {
        "midi": 81,
        "time": 128.014,
        "duration": 0.411,
        "velocity": 1,
        "hand": "right"
      },
      {
        "midi": 57,
        "time": 128.116,
        "duration": 0.103,
        "velocity": 1,
        "hand": "left"
      },
      {
        "midi": 52,
        "time": 128.219,
        "duration": 0.103,
        "velocity": 1,
        "hand": "left"
      },
      {
        "midi": 57,
        "time": 128.322,
        "duration": 0.103,
        "velocity": 1,
        "hand": "left"
      },
      {
        "midi": 48,
        "time": 128.425,
        "duration": 0.103,
        "velocity": 1,
        "hand": "left"
      },
      {
        "midi": 57,
        "time": 128.527,
        "duration": 0.103,
        "velocity": 1,
        "hand": "left"
      },
      {
        "midi": 52,
        "time": 128.63,
        "duration": 0.103,
        "velocity": 1,
        "hand": "left"
      },
      {
        "midi": 57,
        "time": 128.733,
        "duration": 0.103,
        "velocity": 1,
        "hand": "left"
      },
      {
        "midi": 39,
        "time": 128.836,
        "duration": 0.411,
        "velocity": 1,
        "hand": "left"
      },
      {
        "midi": 51,
        "time": 128.836,
        "duration": 0.411,
        "velocity": 1,
        "hand": "left"
      },
      {
        "midi": 81,
        "time": 129.041,
        "duration": 0.205,
        "velocity": 1,
        "hand": "right"
      },
      {
        "midi": 84,
        "time": 129.247,
        "duration": 0.205,
        "velocity": 1,
        "hand": "right"
      },
      {
        "midi": 78,
        "time": 129.452,
        "duration": 0.205,
        "velocity": 1,
        "hand": "right"
      },
      {
        "midi": 81,
        "time": 129.658,
        "duration": 0.205,
        "velocity": 1,
        "hand": "right"
      },
      {
        "midi": 75,
        "time": 129.863,
        "duration": 0.205,
        "velocity": 1,
        "hand": "right"
      },
      {
        "midi": 78,
        "time": 130.068,
        "duration": 0.205,
        "velocity": 1,
        "hand": "right"
      },
      {
        "midi": 72,
        "time": 130.274,
        "duration": 0.205,
        "velocity": 1,
        "hand": "right"
      },
      {
        "midi": 75,
        "time": 130.479,
        "duration": 0.205,
        "velocity": 1,
        "hand": "right"
      },
      {
        "midi": 57,
        "time": 130.685,
        "duration": 0.205,
        "velocity": 1,
        "hand": "left"
      },
      {
        "midi": 69,
        "time": 130.685,
        "duration": 0.205,
        "velocity": 1,
        "hand": "right"
      },
      {
        "midi": 60,
        "time": 130.89,
        "duration": 0.205,
        "velocity": 1,
        "hand": "right"
      },
      {
        "midi": 72,
        "time": 130.89,
        "duration": 0.205,
        "velocity": 1,
        "hand": "right"
      },
      {
        "midi": 54,
        "time": 131.096,
        "duration": 0.205,
        "velocity": 1,
        "hand": "left"
      },
      {
        "midi": 66,
        "time": 131.096,
        "duration": 0.205,
        "velocity": 1,
        "hand": "right"
      },
      {
        "midi": 57,
        "time": 131.301,
        "duration": 0.205,
        "velocity": 1,
        "hand": "left"
      },
      {
        "midi": 69,
        "time": 131.301,
        "duration": 0.205,
        "velocity": 1,
        "hand": "right"
      },
      {
        "midi": 51,
        "time": 131.507,
        "duration": 0.205,
        "velocity": 1,
        "hand": "left"
      },
      {
        "midi": 63,
        "time": 131.507,
        "duration": 0.205,
        "velocity": 1,
        "hand": "right"
      },
      {
        "midi": 54,
        "time": 131.712,
        "duration": 0.205,
        "velocity": 1,
        "hand": "left"
      },
      {
        "midi": 66,
        "time": 131.712,
        "duration": 0.205,
        "velocity": 1,
        "hand": "right"
      },
      {
        "midi": 45,
        "time": 131.918,
        "duration": 0.205,
        "velocity": 1,
        "hand": "left"
      },
      {
        "midi": 57,
        "time": 131.918,
        "duration": 0.205,
        "velocity": 1,
        "hand": "left"
      },
      {
        "midi": 48,
        "time": 132.123,
        "duration": 0.205,
        "velocity": 1,
        "hand": "left"
      },
      {
        "midi": 60,
        "time": 132.123,
        "duration": 0.205,
        "velocity": 1,
        "hand": "right"
      },
      {
        "midi": 42,
        "time": 132.329,
        "duration": 0.205,
        "velocity": 1,
        "hand": "left"
      },
      {
        "midi": 54,
        "time": 132.329,
        "duration": 0.205,
        "velocity": 1,
        "hand": "left"
      },
      {
        "midi": 45,
        "time": 132.534,
        "duration": 0.205,
        "velocity": 1,
        "hand": "left"
      },
      {
        "midi": 57,
        "time": 132.534,
        "duration": 0.205,
        "velocity": 1,
        "hand": "left"
      },
      {
        "midi": 39,
        "time": 132.74,
        "duration": 0.205,
        "velocity": 1,
        "hand": "left"
      },
      {
        "midi": 51,
        "time": 132.74,
        "duration": 0.205,
        "velocity": 1,
        "hand": "left"
      },
      {
        "midi": 40,
        "time": 132.945,
        "duration": 0.411,
        "velocity": 1,
        "hand": "left"
      },
      {
        "midi": 52,
        "time": 132.945,
        "duration": 0.411,
        "velocity": 1,
        "hand": "left"
      },
      {
        "midi": 40,
        "time": 133.356,
        "duration": 0.411,
        "velocity": 1,
        "hand": "left"
      },
      {
        "midi": 74,
        "time": 133.356,
        "duration": 0.411,
        "velocity": 1,
        "hand": "right"
      },
      {
        "midi": 80,
        "time": 133.356,
        "duration": 0.411,
        "velocity": 1,
        "hand": "right"
      },
      {
        "midi": 45,
        "time": 133.767,
        "duration": 0.411,
        "velocity": 1,
        "hand": "left"
      },
      {
        "midi": 72,
        "time": 133.767,
        "duration": 0.411,
        "velocity": 1,
        "hand": "right"
      },
      {
        "midi": 81,
        "time": 133.767,
        "duration": 0.411,
        "velocity": 1,
        "hand": "right"
      },
      {
        "midi": 69,
        "time": 134.178,
        "duration": 0.411,
        "velocity": 1,
        "hand": "right"
      },
      {
        "midi": 72,
        "time": 134.384,
        "duration": 0.205,
        "velocity": 1,
        "hand": "right"
      },
      {
        "midi": 71,
        "time": 134.589,
        "duration": 0.411,
        "velocity": 1,
        "hand": "right"
      },
      {
        "midi": 76,
        "time": 134.589,
        "duration": 0.205,
        "velocity": 1,
        "hand": "right"
      },
      {
        "midi": 74,
        "time": 134.795,
        "duration": 0.205,
        "velocity": 1,
        "hand": "right"
      },
      {
        "midi": 68,
        "time": 135,
        "duration": 0.411,
        "velocity": 1,
        "hand": "right"
      },
      {
        "midi": 71,
        "time": 135.205,
        "duration": 0.205,
        "velocity": 1,
        "hand": "right"
      },
      {
        "midi": 69,
        "time": 135.411,
        "duration": 0.411,
        "velocity": 1,
        "hand": "right"
      },
      {
        "midi": 74,
        "time": 135.411,
        "duration": 0.205,
        "velocity": 1,
        "hand": "right"
      },
      {
        "midi": 72,
        "time": 135.616,
        "duration": 0.205,
        "velocity": 1,
        "hand": "right"
      },
      {
        "midi": 65,
        "time": 135.822,
        "duration": 0.411,
        "velocity": 1,
        "hand": "right"
      },
      {
        "midi": 69,
        "time": 136.027,
        "duration": 0.205,
        "velocity": 1,
        "hand": "right"
      },
      {
        "midi": 62,
        "time": 136.233,
        "duration": 0.411,
        "velocity": 1,
        "hand": "right"
      },
      {
        "midi": 72,
        "time": 136.233,
        "duration": 0.205,
        "velocity": 1,
        "hand": "right"
      },
      {
        "midi": 71,
        "time": 136.438,
        "duration": 0.205,
        "velocity": 1,
        "hand": "right"
      },
      {
        "midi": 64,
        "time": 136.644,
        "duration": 0.411,
        "velocity": 1,
        "hand": "right"
      },
      {
        "midi": 68,
        "time": 136.849,
        "duration": 0.205,
        "velocity": 1,
        "hand": "right"
      },
      {
        "midi": 60,
        "time": 137.055,
        "duration": 0.411,
        "velocity": 1,
        "hand": "right"
      },
      {
        "midi": 71,
        "time": 137.055,
        "duration": 0.205,
        "velocity": 1,
        "hand": "right"
      },
      {
        "midi": 69,
        "time": 137.26,
        "duration": 0.205,
        "velocity": 1,
        "hand": "right"
      },
      {
        "midi": 45,
        "time": 137.466,
        "duration": 0.411,
        "velocity": 1,
        "hand": "left"
      },
      {
        "midi": 57,
        "time": 137.466,
        "duration": 0.411,
        "velocity": 1,
        "hand": "left"
      },
      {
        "midi": 72,
        "time": 137.466,
        "duration": 0.103,
        "velocity": 1,
        "hand": "right"
      },
      {
        "midi": 74,
        "time": 137.568,
        "duration": 0.103,
        "velocity": 1,
        "hand": "right"
      },
      {
        "midi": 76,
        "time": 137.671,
        "duration": 0.103,
        "velocity": 1,
        "hand": "right"
      },
      {
        "midi": 72,
        "time": 137.774,
        "duration": 0.103,
        "velocity": 1,
        "hand": "right"
      },
      {
        "midi": 47,
        "time": 137.877,
        "duration": 0.411,
        "velocity": 1,
        "hand": "left"
      },
      {
        "midi": 59,
        "time": 137.877,
        "duration": 0.411,
        "velocity": 1,
        "hand": "left"
      },
      {
        "midi": 74,
        "time": 137.877,
        "duration": 0.103,
        "velocity": 1,
        "hand": "right"
      },
      {
        "midi": 76,
        "time": 137.979,
        "duration": 0.103,
        "velocity": 1,
        "hand": "right"
      },
      {
        "midi": 77,
        "time": 138.082,
        "duration": 0.103,
        "velocity": 1,
        "hand": "right"
      },
      {
        "midi": 74,
        "time": 138.185,
        "duration": 0.103,
        "velocity": 1,
        "hand": "right"
      },
      {
        "midi": 44,
        "time": 138.288,
        "duration": 0.411,
        "velocity": 1,
        "hand": "left"
      },
      {
        "midi": 56,
        "time": 138.288,
        "duration": 0.411,
        "velocity": 1,
        "hand": "left"
      },
      {
        "midi": 71,
        "time": 138.288,
        "duration": 0.103,
        "velocity": 1,
        "hand": "right"
      },
      {
        "midi": 72,
        "time": 138.39,
        "duration": 0.103,
        "velocity": 1,
        "hand": "right"
      },
      {
        "midi": 74,
        "time": 138.493,
        "duration": 0.103,
        "velocity": 1,
        "hand": "right"
      },
      {
        "midi": 71,
        "time": 138.596,
        "duration": 0.103,
        "velocity": 1,
        "hand": "right"
      },
      {
        "midi": 45,
        "time": 138.699,
        "duration": 0.411,
        "velocity": 1,
        "hand": "left"
      },
      {
        "midi": 57,
        "time": 138.699,
        "duration": 0.411,
        "velocity": 1,
        "hand": "left"
      },
      {
        "midi": 72,
        "time": 138.699,
        "duration": 0.103,
        "velocity": 1,
        "hand": "right"
      },
      {
        "midi": 74,
        "time": 138.801,
        "duration": 0.103,
        "velocity": 1,
        "hand": "right"
      },
      {
        "midi": 76,
        "time": 138.904,
        "duration": 0.103,
        "velocity": 1,
        "hand": "right"
      },
      {
        "midi": 72,
        "time": 139.007,
        "duration": 0.103,
        "velocity": 1,
        "hand": "right"
      },
      {
        "midi": 41,
        "time": 139.11,
        "duration": 0.411,
        "velocity": 1,
        "hand": "left"
      },
      {
        "midi": 53,
        "time": 139.11,
        "duration": 0.411,
        "velocity": 1,
        "hand": "left"
      },
      {
        "midi": 69,
        "time": 139.11,
        "duration": 0.103,
        "velocity": 1,
        "hand": "right"
      },
      {
        "midi": 71,
        "time": 139.212,
        "duration": 0.103,
        "velocity": 1,
        "hand": "right"
      },
      {
        "midi": 72,
        "time": 139.315,
        "duration": 0.103,
        "velocity": 1,
        "hand": "right"
      },
      {
        "midi": 69,
        "time": 139.418,
        "duration": 0.103,
        "velocity": 1,
        "hand": "right"
      },
      {
        "midi": 38,
        "time": 139.521,
        "duration": 0.411,
        "velocity": 1,
        "hand": "left"
      },
      {
        "midi": 50,
        "time": 139.521,
        "duration": 0.411,
        "velocity": 1,
        "hand": "left"
      },
      {
        "midi": 71,
        "time": 139.521,
        "duration": 0.103,
        "velocity": 1,
        "hand": "right"
      },
      {
        "midi": 72,
        "time": 139.623,
        "duration": 0.103,
        "velocity": 1,
        "hand": "right"
      },
      {
        "midi": 74,
        "time": 139.726,
        "duration": 0.103,
        "velocity": 1,
        "hand": "right"
      },
      {
        "midi": 71,
        "time": 139.829,
        "duration": 0.103,
        "velocity": 1,
        "hand": "right"
      },
      {
        "midi": 40,
        "time": 139.932,
        "duration": 0.411,
        "velocity": 1,
        "hand": "left"
      },
      {
        "midi": 52,
        "time": 139.932,
        "duration": 0.411,
        "velocity": 1,
        "hand": "left"
      },
      {
        "midi": 68,
        "time": 139.932,
        "duration": 0.103,
        "velocity": 1,
        "hand": "right"
      },
      {
        "midi": 69,
        "time": 140.034,
        "duration": 0.103,
        "velocity": 1,
        "hand": "right"
      },
      {
        "midi": 71,
        "time": 140.137,
        "duration": 0.103,
        "velocity": 1,
        "hand": "right"
      },
      {
        "midi": 68,
        "time": 140.24,
        "duration": 0.103,
        "velocity": 1,
        "hand": "right"
      },
      {
        "midi": 33,
        "time": 140.445,
        "duration": 0.822,
        "velocity": 1,
        "hand": "left"
      },
      {
        "midi": 45,
        "time": 140.445,
        "duration": 0.822,
        "velocity": 1,
        "hand": "left"
      },
      {
        "midi": 69,
        "time": 140.445,
        "duration": 0.822,
        "velocity": 1,
        "hand": "right"
      },
      {
        "midi": 40,
        "time": 141.267,
        "duration": 0.822,
        "velocity": 1,
        "hand": "left"
      },
      {
        "midi": 64,
        "time": 141.267,
        "duration": 0.822,
        "velocity": 1,
        "hand": "right"
      },
      {
        "midi": 48,
        "time": 142.089,
        "duration": 0.616,
        "velocity": 1,
        "hand": "left"
      },
      {
        "midi": 72,
        "time": 142.089,
        "duration": 0.616,
        "velocity": 1,
        "hand": "right"
      },
      {
        "midi": 50,
        "time": 142.705,
        "duration": 0.103,
        "velocity": 1,
        "hand": "left"
      },
      {
        "midi": 74,
        "time": 142.705,
        "duration": 0.103,
        "velocity": 1,
        "hand": "right"
      },
      {
        "midi": 47,
        "time": 142.808,
        "duration": 0.103,
        "velocity": 1,
        "hand": "left"
      },
      {
        "midi": 71,
        "time": 142.808,
        "duration": 0.103,
        "velocity": 1,
        "hand": "right"
      },
      {
        "midi": 45,
        "time": 142.911,
        "duration": 0.411,
        "velocity": 1,
        "hand": "left"
      },
      {
        "midi": 69,
        "time": 142.911,
        "duration": 0.411,
        "velocity": 1,
        "hand": "right"
      },
      {
        "midi": 72,
        "time": 143.733,
        "duration": 0.616,
        "velocity": 1,
        "hand": "right"
      },
      {
        "midi": 76,
        "time": 143.733,
        "duration": 0.616,
        "velocity": 1,
        "hand": "right"
      },
      {
        "midi": 74,
        "time": 144.349,
        "duration": 0.103,
        "velocity": 1,
        "hand": "right"
      },
      {
        "midi": 77,
        "time": 144.349,
        "duration": 0.103,
        "velocity": 1,
        "hand": "right"
      },
      {
        "midi": 71,
        "time": 144.452,
        "duration": 0.103,
        "velocity": 1,
        "hand": "right"
      },
      {
        "midi": 74,
        "time": 144.452,
        "duration": 0.103,
        "velocity": 1,
        "hand": "right"
      },
      {
        "midi": 69,
        "time": 144.555,
        "duration": 0.411,
        "velocity": 1,
        "hand": "right"
      },
      {
        "midi": 72,
        "time": 144.555,
        "duration": 0.411,
        "velocity": 1,
        "hand": "right"
      },
      {
        "midi": 76,
        "time": 145.377,
        "duration": 0.616,
        "velocity": 1,
        "hand": "right"
      },
      {
        "midi": 84,
        "time": 145.377,
        "duration": 0.616,
        "velocity": 1,
        "hand": "right"
      },
      {
        "midi": 77,
        "time": 145.993,
        "duration": 0.103,
        "velocity": 1,
        "hand": "right"
      },
      {
        "midi": 86,
        "time": 145.993,
        "duration": 0.103,
        "velocity": 1,
        "hand": "right"
      },
      {
        "midi": 74,
        "time": 146.096,
        "duration": 0.103,
        "velocity": 1,
        "hand": "right"
      },
      {
        "midi": 83,
        "time": 146.096,
        "duration": 0.103,
        "velocity": 1,
        "hand": "right"
      },
      {
        "midi": 72,
        "time": 146.199,
        "duration": 0.411,
        "velocity": 1,
        "hand": "right"
      },
      {
        "midi": 81,
        "time": 146.199,
        "duration": 0.411,
        "velocity": 1,
        "hand": "right"
      },
      {
        "midi": 35,
        "time": 147.226,
        "duration": 0.822,
        "velocity": 1,
        "hand": "left"
      },
      {
        "midi": 47,
        "time": 147.226,
        "duration": 0.822,
        "velocity": 1,
        "hand": "left"
      },
      {
        "midi": 71,
        "time": 147.226,
        "duration": 0.822,
        "velocity": 1,
        "hand": "right"
      },
      {
        "midi": 31,
        "time": 148.048,
        "duration": 0.822,
        "velocity": 1,
        "hand": "left"
      },
      {
        "midi": 43,
        "time": 148.048,
        "duration": 0.822,
        "velocity": 1,
        "hand": "left"
      },
      {
        "midi": 67,
        "time": 148.048,
        "duration": 0.822,
        "velocity": 1,
        "hand": "right"
      },
      {
        "midi": 50,
        "time": 148.87,
        "duration": 0.616,
        "velocity": 1,
        "hand": "left"
      },
      {
        "midi": 74,
        "time": 148.87,
        "duration": 0.616,
        "velocity": 1,
        "hand": "right"
      },
      {
        "midi": 52,
        "time": 149.486,
        "duration": 0.103,
        "velocity": 1,
        "hand": "left"
      },
      {
        "midi": 76,
        "time": 149.486,
        "duration": 0.103,
        "velocity": 1,
        "hand": "right"
      },
      {
        "midi": 48,
        "time": 149.589,
        "duration": 0.103,
        "velocity": 1,
        "hand": "left"
      },
      {
        "midi": 72,
        "time": 149.589,
        "duration": 0.103,
        "velocity": 1,
        "hand": "right"
      },
      {
        "midi": 47,
        "time": 149.692,
        "duration": 0.411,
        "velocity": 1,
        "hand": "left"
      },
      {
        "midi": 71,
        "time": 149.692,
        "duration": 0.411,
        "velocity": 1,
        "hand": "right"
      },
      {
        "midi": 74,
        "time": 150.514,
        "duration": 0.616,
        "velocity": 1,
        "hand": "right"
      },
      {
        "midi": 77,
        "time": 150.514,
        "duration": 0.616,
        "velocity": 1,
        "hand": "right"
      },
      {
        "midi": 76,
        "time": 151.13,
        "duration": 0.103,
        "velocity": 1,
        "hand": "right"
      },
      {
        "midi": 79,
        "time": 151.13,
        "duration": 0.103,
        "velocity": 1,
        "hand": "right"
      },
      {
        "midi": 72,
        "time": 151.233,
        "duration": 0.103,
        "velocity": 1,
        "hand": "right"
      },
      {
        "midi": 76,
        "time": 151.233,
        "duration": 0.103,
        "velocity": 1,
        "hand": "right"
      },
      {
        "midi": 71,
        "time": 151.336,
        "duration": 0.411,
        "velocity": 1,
        "hand": "right"
      },
      {
        "midi": 74,
        "time": 151.336,
        "duration": 0.411,
        "velocity": 1,
        "hand": "right"
      },
      {
        "midi": 77,
        "time": 152.158,
        "duration": 0.616,
        "velocity": 1,
        "hand": "right"
      },
      {
        "midi": 86,
        "time": 152.158,
        "duration": 0.616,
        "velocity": 1,
        "hand": "right"
      },
      {
        "midi": 79,
        "time": 152.774,
        "duration": 0.103,
        "velocity": 1,
        "hand": "right"
      },
      {
        "midi": 88,
        "time": 152.774,
        "duration": 0.103,
        "velocity": 1,
        "hand": "right"
      },
      {
        "midi": 76,
        "time": 152.877,
        "duration": 0.103,
        "velocity": 1,
        "hand": "right"
      },
      {
        "midi": 84,
        "time": 152.877,
        "duration": 0.103,
        "velocity": 1,
        "hand": "right"
      },
      {
        "midi": 74,
        "time": 152.979,
        "duration": 0.411,
        "velocity": 1,
        "hand": "right"
      },
      {
        "midi": 83,
        "time": 152.979,
        "duration": 0.411,
        "velocity": 1,
        "hand": "right"
      },
      {
        "midi": 36,
        "time": 153.904,
        "duration": 0.822,
        "velocity": 1,
        "hand": "left"
      },
      {
        "midi": 48,
        "time": 153.904,
        "duration": 0.822,
        "velocity": 1,
        "hand": "left"
      },
      {
        "midi": 72,
        "time": 153.904,
        "duration": 0.822,
        "velocity": 1,
        "hand": "right"
      },
      {
        "midi": 31,
        "time": 154.726,
        "duration": 0.822,
        "velocity": 1,
        "hand": "left"
      },
      {
        "midi": 43,
        "time": 154.726,
        "duration": 0.822,
        "velocity": 1,
        "hand": "left"
      },
      {
        "midi": 67,
        "time": 154.726,
        "duration": 0.822,
        "velocity": 1,
        "hand": "right"
      },
      {
        "midi": 52,
        "time": 155.548,
        "duration": 0.616,
        "velocity": 1,
        "hand": "left"
      },
      {
        "midi": 76,
        "time": 155.548,
        "duration": 0.616,
        "velocity": 1,
        "hand": "right"
      },
      {
        "midi": 53,
        "time": 156.164,
        "duration": 0.103,
        "velocity": 1,
        "hand": "left"
      },
      {
        "midi": 77,
        "time": 156.164,
        "duration": 0.103,
        "velocity": 1,
        "hand": "right"
      },
      {
        "midi": 50,
        "time": 156.267,
        "duration": 0.103,
        "velocity": 1,
        "hand": "left"
      },
      {
        "midi": 74,
        "time": 156.267,
        "duration": 0.103,
        "velocity": 1,
        "hand": "right"
      },
      {
        "midi": 48,
        "time": 156.37,
        "duration": 0.411,
        "velocity": 1,
        "hand": "left"
      },
      {
        "midi": 72,
        "time": 156.37,
        "duration": 0.411,
        "velocity": 1,
        "hand": "right"
      },
      {
        "midi": 64,
        "time": 157.192,
        "duration": 0.205,
        "velocity": 1,
        "hand": "right"
      },
      {
        "midi": 79,
        "time": 157.192,
        "duration": 0.411,
        "velocity": 1,
        "hand": "right"
      },
      {
        "midi": 67,
        "time": 157.397,
        "duration": 0.205,
        "velocity": 1,
        "hand": "right"
      },
      {
        "midi": 64,
        "time": 157.603,
        "duration": 0.205,
        "velocity": 1,
        "hand": "right"
      },
      {
        "midi": 79,
        "time": 157.603,
        "duration": 0.411,
        "velocity": 1,
        "hand": "right"
      },
      {
        "midi": 67,
        "time": 157.808,
        "duration": 0.205,
        "velocity": 1,
        "hand": "right"
      },
      {
        "midi": 61,
        "time": 158.014,
        "duration": 0.205,
        "velocity": 1,
        "hand": "right"
      },
      {
        "midi": 67,
        "time": 158.219,
        "duration": 0.205,
        "velocity": 1,
        "hand": "right"
      },
      {
        "midi": 61,
        "time": 158.425,
        "duration": 0.205,
        "velocity": 1,
        "hand": "right"
      },
      {
        "midi": 81,
        "time": 158.425,
        "duration": 0.411,
        "velocity": 1,
        "hand": "right"
      },
      {
        "midi": 67,
        "time": 158.63,
        "duration": 0.205,
        "velocity": 1,
        "hand": "right"
      },
      {
        "midi": 62,
        "time": 158.836,
        "duration": 0.205,
        "velocity": 1,
        "hand": "right"
      },
      {
        "midi": 79,
        "time": 158.836,
        "duration": 0.103,
        "velocity": 1,
        "hand": "right"
      },
      {
        "midi": 77,
        "time": 158.938,
        "duration": 0.308,
        "velocity": 1,
        "hand": "right"
      },
      {
        "midi": 67,
        "time": 159.041,
        "duration": 0.205,
        "velocity": 1,
        "hand": "right"
      },
      {
        "midi": 62,
        "time": 159.247,
        "duration": 0.205,
        "velocity": 1,
        "hand": "right"
      },
      {
        "midi": 77,
        "time": 159.247,
        "duration": 0.411,
        "velocity": 1,
        "hand": "right"
      },
      {
        "midi": 67,
        "time": 159.452,
        "duration": 0.205,
        "velocity": 1,
        "hand": "right"
      },
      {
        "midi": 59,
        "time": 159.658,
        "duration": 0.205,
        "velocity": 1,
        "hand": "left"
      },
      {
        "midi": 67,
        "time": 159.863,
        "duration": 0.205,
        "velocity": 1,
        "hand": "right"
      },
      {
        "midi": 59,
        "time": 160.068,
        "duration": 0.205,
        "velocity": 1,
        "hand": "left"
      },
      {
        "midi": 79,
        "time": 160.068,
        "duration": 0.411,
        "velocity": 1,
        "hand": "right"
      },
      {
        "midi": 67,
        "time": 160.274,
        "duration": 0.205,
        "velocity": 1,
        "hand": "right"
      },
      {
        "midi": 60,
        "time": 160.479,
        "duration": 0.205,
        "velocity": 1,
        "hand": "right"
      },
      {
        "midi": 77,
        "time": 160.479,
        "duration": 0.103,
        "velocity": 1,
        "hand": "right"
      },
      {
        "midi": 76,
        "time": 160.582,
        "duration": 0.308,
        "velocity": 1,
        "hand": "right"
      },
      {
        "midi": 67,
        "time": 160.685,
        "duration": 0.205,
        "velocity": 1,
        "hand": "right"
      },
      {
        "midi": 60,
        "time": 160.89,
        "duration": 0.205,
        "velocity": 1,
        "hand": "right"
      },
      {
        "midi": 76,
        "time": 160.89,
        "duration": 0.411,
        "velocity": 1,
        "hand": "right"
      },
      {
        "midi": 67,
        "time": 161.096,
        "duration": 0.205,
        "velocity": 1,
        "hand": "right"
      },
      {
        "midi": 64,
        "time": 161.301,
        "duration": 0.205,
        "velocity": 1,
        "hand": "right"
      },
      {
        "midi": 67,
        "time": 161.507,
        "duration": 0.205,
        "velocity": 1,
        "hand": "right"
      },
      {
        "midi": 64,
        "time": 161.712,
        "duration": 0.205,
        "velocity": 1,
        "hand": "right"
      },
      {
        "midi": 79,
        "time": 161.712,
        "duration": 0.205,
        "velocity": 1,
        "hand": "right"
      },
      {
        "midi": 67,
        "time": 161.918,
        "duration": 0.205,
        "velocity": 1,
        "hand": "right"
      },
      {
        "midi": 76,
        "time": 161.918,
        "duration": 0.205,
        "velocity": 1,
        "hand": "right"
      },
      {
        "midi": 65,
        "time": 162.123,
        "duration": 1.644,
        "velocity": 1,
        "hand": "right"
      },
      {
        "midi": 69,
        "time": 162.123,
        "duration": 1.644,
        "velocity": 1,
        "hand": "right"
      },
      {
        "midi": 73,
        "time": 162.123,
        "duration": 0.205,
        "velocity": 1,
        "hand": "right"
      },
      {
        "midi": 74,
        "time": 162.329,
        "duration": 0.205,
        "velocity": 1,
        "hand": "right"
      },
      {
        "midi": 77,
        "time": 162.534,
        "duration": 0.205,
        "velocity": 1,
        "hand": "right"
      },
      {
        "midi": 76,
        "time": 162.74,
        "duration": 0.205,
        "velocity": 1,
        "hand": "right"
      },
      {
        "midi": 73,
        "time": 162.945,
        "duration": 0.205,
        "velocity": 1,
        "hand": "right"
      },
      {
        "midi": 74,
        "time": 163.151,
        "duration": 0.205,
        "velocity": 1,
        "hand": "right"
      },
      {
        "midi": 77,
        "time": 163.356,
        "duration": 0.205,
        "velocity": 1,
        "hand": "right"
      },
      {
        "midi": 76,
        "time": 163.562,
        "duration": 0.205,
        "velocity": 1,
        "hand": "right"
      },
      {
        "midi": 73,
        "time": 163.767,
        "duration": 0.205,
        "velocity": 1,
        "hand": "right"
      },
      {
        "midi": 74,
        "time": 163.973,
        "duration": 0.205,
        "velocity": 1,
        "hand": "right"
      },
      {
        "midi": 53,
        "time": 164.178,
        "duration": 0.411,
        "velocity": 1,
        "hand": "left"
      },
      {
        "midi": 62,
        "time": 164.178,
        "duration": 0.411,
        "velocity": 1,
        "hand": "right"
      },
      {
        "midi": 77,
        "time": 164.178,
        "duration": 0.205,
        "velocity": 1,
        "hand": "right"
      },
      {
        "midi": 81,
        "time": 164.384,
        "duration": 0.205,
        "velocity": 1,
        "hand": "right"
      },
      {
        "midi": 55,
        "time": 164.589,
        "duration": 0.411,
        "velocity": 1,
        "hand": "left"
      },
      {
        "midi": 64,
        "time": 164.589,
        "duration": 0.411,
        "velocity": 1,
        "hand": "right"
      },
      {
        "midi": 79,
        "time": 164.589,
        "duration": 0.205,
        "velocity": 1,
        "hand": "right"
      },
      {
        "midi": 76,
        "time": 164.795,
        "duration": 0.205,
        "velocity": 1,
        "hand": "right"
      },
      {
        "midi": 55,
        "time": 165,
        "duration": 0.411,
        "velocity": 1,
        "hand": "left"
      },
      {
        "midi": 62,
        "time": 165,
        "duration": 0.411,
        "velocity": 1,
        "hand": "right"
      },
      {
        "midi": 77,
        "time": 165,
        "duration": 0.205,
        "velocity": 1,
        "hand": "right"
      },
      {
        "midi": 74,
        "time": 165.205,
        "duration": 0.205,
        "velocity": 1,
        "hand": "right"
      },
      {
        "midi": 36,
        "time": 165.616,
        "duration": 0.822,
        "velocity": 1,
        "hand": "left"
      },
      {
        "midi": 48,
        "time": 165.616,
        "duration": 0.822,
        "velocity": 1,
        "hand": "left"
      },
      {
        "midi": 72,
        "time": 165.616,
        "duration": 0.822,
        "velocity": 1,
        "hand": "right"
      },
      {
        "midi": 31,
        "time": 166.438,
        "duration": 0.822,
        "velocity": 1,
        "hand": "left"
      },
      {
        "midi": 43,
        "time": 166.438,
        "duration": 0.822,
        "velocity": 1,
        "hand": "left"
      },
      {
        "midi": 67,
        "time": 166.438,
        "duration": 0.822,
        "velocity": 1,
        "hand": "right"
      },
      {
        "midi": 51,
        "time": 167.26,
        "duration": 0.616,
        "velocity": 1,
        "hand": "left"
      },
      {
        "midi": 75,
        "time": 167.26,
        "duration": 0.616,
        "velocity": 1,
        "hand": "right"
      },
      {
        "midi": 53,
        "time": 167.877,
        "duration": 0.103,
        "velocity": 1,
        "hand": "left"
      },
      {
        "midi": 77,
        "time": 167.877,
        "duration": 0.103,
        "velocity": 1,
        "hand": "right"
      },
      {
        "midi": 50,
        "time": 167.979,
        "duration": 0.103,
        "velocity": 1,
        "hand": "left"
      },
      {
        "midi": 74,
        "time": 167.979,
        "duration": 0.103,
        "velocity": 1,
        "hand": "right"
      },
      {
        "midi": 48,
        "time": 168.082,
        "duration": 0.411,
        "velocity": 1,
        "hand": "left"
      },
      {
        "midi": 72,
        "time": 168.082,
        "duration": 0.411,
        "velocity": 1,
        "hand": "right"
      },
      {
        "midi": 63,
        "time": 168.904,
        "duration": 0.205,
        "velocity": 1,
        "hand": "right"
      },
      {
        "midi": 78,
        "time": 168.904,
        "duration": 0.103,
        "velocity": 1,
        "hand": "right"
      },
      {
        "midi": 79,
        "time": 169.007,
        "duration": 0.308,
        "velocity": 1,
        "hand": "right"
      },
      {
        "midi": 67,
        "time": 169.11,
        "duration": 0.205,
        "velocity": 1,
        "hand": "right"
      },
      {
        "midi": 63,
        "time": 169.315,
        "duration": 0.205,
        "velocity": 1,
        "hand": "right"
      },
      {
        "midi": 79,
        "time": 169.315,
        "duration": 0.411,
        "velocity": 1,
        "hand": "right"
      },
      {
        "midi": 67,
        "time": 169.521,
        "duration": 0.205,
        "velocity": 1,
        "hand": "right"
      },
      {
        "midi": 60,
        "time": 169.726,
        "duration": 0.205,
        "velocity": 1,
        "hand": "right"
      },
      {
        "midi": 67,
        "time": 169.932,
        "duration": 0.205,
        "velocity": 1,
        "hand": "right"
      },
      {
        "midi": 72,
        "time": 169.932,
        "duration": 0.205,
        "velocity": 1,
        "hand": "right"
      },
      {
        "midi": 60,
        "time": 170.137,
        "duration": 0.205,
        "velocity": 1,
        "hand": "right"
      },
      {
        "midi": 84,
        "time": 170.137,
        "duration": 0.205,
        "velocity": 1,
        "hand": "right"
      },
      {
        "midi": 67,
        "time": 170.342,
        "duration": 0.205,
        "velocity": 1,
        "hand": "right"
      },
      {
        "midi": 80,
        "time": 170.342,
        "duration": 0.205,
        "velocity": 1,
        "hand": "right"
      },
      {
        "midi": 62,
        "time": 170.548,
        "duration": 0.205,
        "velocity": 1,
        "hand": "right"
      },
      {
        "midi": 79,
        "time": 170.548,
        "duration": 0.205,
        "velocity": 1,
        "hand": "right"
      },
      {
        "midi": 67,
        "time": 170.753,
        "duration": 0.205,
        "velocity": 1,
        "hand": "right"
      },
      {
        "midi": 78,
        "time": 170.753,
        "duration": 0.205,
        "velocity": 1,
        "hand": "right"
      },
      {
        "midi": 62,
        "time": 170.959,
        "duration": 0.205,
        "velocity": 1,
        "hand": "right"
      },
      {
        "midi": 77,
        "time": 170.959,
        "duration": 0.411,
        "velocity": 1,
        "hand": "right"
      },
      {
        "midi": 67,
        "time": 171.164,
        "duration": 0.205,
        "velocity": 1,
        "hand": "right"
      },
      {
        "midi": 59,
        "time": 171.37,
        "duration": 0.205,
        "velocity": 1,
        "hand": "left"
      },
      {
        "midi": 67,
        "time": 171.575,
        "duration": 0.205,
        "velocity": 1,
        "hand": "right"
      },
      {
        "midi": 77,
        "time": 171.575,
        "duration": 0.205,
        "velocity": 1,
        "hand": "right"
      },
      {
        "midi": 59,
        "time": 171.781,
        "duration": 0.205,
        "velocity": 1,
        "hand": "left"
      },
      {
        "midi": 80,
        "time": 171.781,
        "duration": 0.205,
        "velocity": 1,
        "hand": "right"
      },
      {
        "midi": 67,
        "time": 171.986,
        "duration": 0.205,
        "velocity": 1,
        "hand": "right"
      },
      {
        "midi": 79,
        "time": 171.986,
        "duration": 0.205,
        "velocity": 1,
        "hand": "right"
      },
      {
        "midi": 58,
        "time": 172.192,
        "duration": 0.205,
        "velocity": 1,
        "hand": "left"
      },
      {
        "midi": 61,
        "time": 172.192,
        "duration": 0.205,
        "velocity": 1,
        "hand": "right"
      },
      {
        "midi": 77,
        "time": 172.192,
        "duration": 0.205,
        "velocity": 1,
        "hand": "right"
      },
      {
        "midi": 67,
        "time": 172.397,
        "duration": 0.205,
        "velocity": 1,
        "hand": "right"
      },
      {
        "midi": 76,
        "time": 172.397,
        "duration": 0.205,
        "velocity": 1,
        "hand": "right"
      },
      {
        "midi": 58,
        "time": 172.603,
        "duration": 0.205,
        "velocity": 1,
        "hand": "left"
      },
      {
        "midi": 61,
        "time": 172.603,
        "duration": 0.205,
        "velocity": 1,
        "hand": "right"
      },
      {
        "midi": 85,
        "time": 172.603,
        "duration": 0.822,
        "velocity": 1,
        "hand": "right"
      },
      {
        "midi": 67,
        "time": 172.808,
        "duration": 0.205,
        "velocity": 1,
        "hand": "right"
      },
      {
        "midi": 58,
        "time": 173.014,
        "duration": 0.205,
        "velocity": 1,
        "hand": "left"
      },
      {
        "midi": 61,
        "time": 173.014,
        "duration": 0.205,
        "velocity": 1,
        "hand": "right"
      },
      {
        "midi": 67,
        "time": 173.219,
        "duration": 0.205,
        "velocity": 1,
        "hand": "right"
      },
      {
        "midi": 58,
        "time": 173.425,
        "duration": 0.205,
        "velocity": 1,
        "hand": "left"
      },
      {
        "midi": 61,
        "time": 173.425,
        "duration": 0.205,
        "velocity": 1,
        "hand": "right"
      },
      {
        "midi": 76,
        "time": 173.425,
        "duration": 0.411,
        "velocity": 1,
        "hand": "right"
      },
      {
        "midi": 67,
        "time": 173.63,
        "duration": 0.205,
        "velocity": 1,
        "hand": "right"
      },
      {
        "midi": 56,
        "time": 173.836,
        "duration": 0.205,
        "velocity": 1,
        "hand": "left"
      },
      {
        "midi": 60,
        "time": 173.836,
        "duration": 0.205,
        "velocity": 1,
        "hand": "right"
      },
      {
        "midi": 79,
        "time": 173.836,
        "duration": 0.411,
        "velocity": 1,
        "hand": "right"
      },
      {
        "midi": 64,
        "time": 174.041,
        "duration": 0.205,
        "velocity": 1,
        "hand": "right"
      },
      {
        "midi": 56,
        "time": 174.247,
        "duration": 0.205,
        "velocity": 1,
        "hand": "left"
      },
      {
        "midi": 60,
        "time": 174.247,
        "duration": 0.205,
        "velocity": 1,
        "hand": "right"
      },
      {
        "midi": 77,
        "time": 174.247,
        "duration": 0.411,
        "velocity": 1,
        "hand": "right"
      },
      {
        "midi": 65,
        "time": 174.452,
        "duration": 0.205,
        "velocity": 1,
        "hand": "right"
      },
      {
        "midi": 56,
        "time": 174.658,
        "duration": 0.205,
        "velocity": 1,
        "hand": "left"
      },
      {
        "midi": 60,
        "time": 174.658,
        "duration": 0.205,
        "velocity": 1,
        "hand": "right"
      },
      {
        "midi": 65,
        "time": 174.863,
        "duration": 0.205,
        "velocity": 1,
        "hand": "right"
      },
      {
        "midi": 77,
        "time": 174.863,
        "duration": 0.205,
        "velocity": 1,
        "hand": "right"
      },
      {
        "midi": 56,
        "time": 175.068,
        "duration": 0.205,
        "velocity": 1,
        "hand": "left"
      },
      {
        "midi": 60,
        "time": 175.068,
        "duration": 0.205,
        "velocity": 1,
        "hand": "right"
      },
      {
        "midi": 84,
        "time": 175.068,
        "duration": 0.205,
        "velocity": 1,
        "hand": "right"
      },
      {
        "midi": 65,
        "time": 175.274,
        "duration": 0.205,
        "velocity": 1,
        "hand": "right"
      },
      {
        "midi": 80,
        "time": 175.274,
        "duration": 0.205,
        "velocity": 1,
        "hand": "right"
      },
      {
        "midi": 60,
        "time": 175.479,
        "duration": 0.205,
        "velocity": 1,
        "hand": "right"
      },
      {
        "midi": 63,
        "time": 175.479,
        "duration": 0.205,
        "velocity": 1,
        "hand": "right"
      },
      {
        "midi": 79,
        "time": 175.479,
        "duration": 0.205,
        "velocity": 1,
        "hand": "right"
      },
      {
        "midi": 68,
        "time": 175.685,
        "duration": 0.205,
        "velocity": 1,
        "hand": "right"
      },
      {
        "midi": 78,
        "time": 175.685,
        "duration": 0.205,
        "velocity": 1,
        "hand": "right"
      },
      {
        "midi": 60,
        "time": 175.89,
        "duration": 0.205,
        "velocity": 1,
        "hand": "right"
      },
      {
        "midi": 63,
        "time": 175.89,
        "duration": 0.205,
        "velocity": 1,
        "hand": "right"
      },
      {
        "midi": 87,
        "time": 175.89,
        "duration": 0.822,
        "velocity": 1,
        "hand": "right"
      },
      {
        "midi": 68,
        "time": 176.096,
        "duration": 0.205,
        "velocity": 1,
        "hand": "right"
      },
      {
        "midi": 60,
        "time": 176.301,
        "duration": 0.205,
        "velocity": 1,
        "hand": "right"
      },
      {
        "midi": 63,
        "time": 176.301,
        "duration": 0.205,
        "velocity": 1,
        "hand": "right"
      },
      {
        "midi": 68,
        "time": 176.507,
        "duration": 0.205,
        "velocity": 1,
        "hand": "right"
      },
      {
        "midi": 60,
        "time": 176.712,
        "duration": 0.205,
        "velocity": 1,
        "hand": "right"
      },
      {
        "midi": 63,
        "time": 176.712,
        "duration": 0.205,
        "velocity": 1,
        "hand": "right"
      },
      {
        "midi": 78,
        "time": 176.712,
        "duration": 0.411,
        "velocity": 1,
        "hand": "right"
      },
      {
        "midi": 68,
        "time": 176.918,
        "duration": 0.205,
        "velocity": 1,
        "hand": "right"
      },
      {
        "midi": 59,
        "time": 177.123,
        "duration": 0.411,
        "velocity": 1,
        "hand": "left"
      },
      {
        "midi": 62,
        "time": 177.123,
        "duration": 0.411,
        "velocity": 1,
        "hand": "right"
      },
      {
        "midi": 81,
        "time": 177.123,
        "duration": 0.205,
        "velocity": 1,
        "hand": "right"
      },
      {
        "midi": 79,
        "time": 177.329,
        "duration": 0.205,
        "velocity": 1,
        "hand": "right"
      },
      {
        "midi": 78,
        "time": 177.534,
        "duration": 0.205,
        "velocity": 1,
        "hand": "right"
      },
      {
        "midi": 79,
        "time": 177.74,
        "duration": 0.205,
        "velocity": 1,
        "hand": "right"
      },
      {
        "midi": 78,
        "time": 177.945,
        "duration": 0.205,
        "velocity": 1,
        "hand": "right"
      },
      {
        "midi": 79,
        "time": 178.151,
        "duration": 0.205,
        "velocity": 1,
        "hand": "right"
      },
      {
        "midi": 78,
        "time": 178.356,
        "duration": 0.205,
        "velocity": 1,
        "hand": "right"
      },
      {
        "midi": 79,
        "time": 178.562,
        "duration": 0.205,
        "velocity": 1,
        "hand": "right"
      },
      {
        "midi": 78,
        "time": 178.767,
        "duration": 0.205,
        "velocity": 1,
        "hand": "right"
      },
      {
        "midi": 67,
        "time": 178.973,
        "duration": 0.205,
        "velocity": 1,
        "hand": "right"
      },
      {
        "midi": 79,
        "time": 178.973,
        "duration": 0.205,
        "velocity": 1,
        "hand": "right"
      },
      {
        "midi": 66,
        "time": 179.178,
        "duration": 0.205,
        "velocity": 1,
        "hand": "right"
      },
      {
        "midi": 78,
        "time": 179.178,
        "duration": 0.205,
        "velocity": 1,
        "hand": "right"
      },
      {
        "midi": 67,
        "time": 179.384,
        "duration": 0.205,
        "velocity": 1,
        "hand": "right"
      },
      {
        "midi": 79,
        "time": 179.384,
        "duration": 0.205,
        "velocity": 1,
        "hand": "right"
      },
      {
        "midi": 68,
        "time": 179.589,
        "duration": 0.205,
        "velocity": 1,
        "hand": "right"
      },
      {
        "midi": 80,
        "time": 179.589,
        "duration": 0.205,
        "velocity": 1,
        "hand": "right"
      },
      {
        "midi": 69,
        "time": 179.795,
        "duration": 0.205,
        "velocity": 1,
        "hand": "right"
      },
      {
        "midi": 81,
        "time": 179.795,
        "duration": 0.205,
        "velocity": 1,
        "hand": "right"
      },
      {
        "midi": 70,
        "time": 180,
        "duration": 0.205,
        "velocity": 1,
        "hand": "right"
      },
      {
        "midi": 82,
        "time": 180,
        "duration": 0.205,
        "velocity": 1,
        "hand": "right"
      },
      {
        "midi": 71,
        "time": 180.205,
        "duration": 0.205,
        "velocity": 1,
        "hand": "right"
      },
      {
        "midi": 83,
        "time": 180.205,
        "duration": 0.205,
        "velocity": 1,
        "hand": "right"
      },
      {
        "midi": 57,
        "time": 180.411,
        "duration": 0.205,
        "velocity": 1,
        "hand": "left"
      },
      {
        "midi": 72,
        "time": 180.411,
        "duration": 0.205,
        "velocity": 1,
        "hand": "right"
      },
      {
        "midi": 84,
        "time": 180.411,
        "duration": 0.205,
        "velocity": 1,
        "hand": "right"
      },
      {
        "midi": 60,
        "time": 180.616,
        "duration": 0.205,
        "velocity": 1,
        "hand": "right"
      },
      {
        "midi": 72,
        "time": 180.616,
        "duration": 0.205,
        "velocity": 1,
        "hand": "right"
      },
      {
        "midi": 84,
        "time": 180.616,
        "duration": 0.205,
        "velocity": 1,
        "hand": "right"
      },
      {
        "midi": 57,
        "time": 180.822,
        "duration": 0.205,
        "velocity": 1,
        "hand": "left"
      },
      {
        "midi": 72,
        "time": 180.822,
        "duration": 0.822,
        "velocity": 1,
        "hand": "right"
      },
      {
        "midi": 84,
        "time": 180.822,
        "duration": 0.822,
        "velocity": 1,
        "hand": "right"
      },
      {
        "midi": 60,
        "time": 181.027,
        "duration": 0.205,
        "velocity": 1,
        "hand": "right"
      },
      {
        "midi": 53,
        "time": 181.233,
        "duration": 0.205,
        "velocity": 1,
        "hand": "left"
      },
      {
        "midi": 60,
        "time": 181.438,
        "duration": 0.205,
        "velocity": 1,
        "hand": "right"
      },
      {
        "midi": 53,
        "time": 181.644,
        "duration": 0.205,
        "velocity": 1,
        "hand": "left"
      },
      {
        "midi": 83,
        "time": 181.644,
        "duration": 0.205,
        "velocity": 1,
        "hand": "right"
      },
      {
        "midi": 60,
        "time": 181.849,
        "duration": 0.205,
        "velocity": 1,
        "hand": "right"
      },
      {
        "midi": 81,
        "time": 181.849,
        "duration": 0.205,
        "velocity": 1,
        "hand": "right"
      },
      {
        "midi": 52,
        "time": 182.055,
        "duration": 0.205,
        "velocity": 1,
        "hand": "left"
      },
      {
        "midi": 72,
        "time": 182.055,
        "duration": 0.205,
        "velocity": 1,
        "hand": "right"
      },
      {
        "midi": 79,
        "time": 182.055,
        "duration": 0.205,
        "velocity": 1,
        "hand": "right"
      },
      {
        "midi": 60,
        "time": 182.26,
        "duration": 0.205,
        "velocity": 1,
        "hand": "right"
      },
      {
        "midi": 72,
        "time": 182.26,
        "duration": 0.205,
        "velocity": 1,
        "hand": "right"
      },
      {
        "midi": 79,
        "time": 182.26,
        "duration": 0.205,
        "velocity": 1,
        "hand": "right"
      },
      {
        "midi": 52,
        "time": 182.466,
        "duration": 0.205,
        "velocity": 1,
        "hand": "left"
      },
      {
        "midi": 72,
        "time": 182.466,
        "duration": 0.822,
        "velocity": 1,
        "hand": "right"
      },
      {
        "midi": 79,
        "time": 182.466,
        "duration": 0.822,
        "velocity": 1,
        "hand": "right"
      },
      {
        "midi": 60,
        "time": 182.671,
        "duration": 0.205,
        "velocity": 1,
        "hand": "right"
      },
      {
        "midi": 48,
        "time": 182.877,
        "duration": 0.205,
        "velocity": 1,
        "hand": "left"
      },
      {
        "midi": 60,
        "time": 183.082,
        "duration": 0.205,
        "velocity": 1,
        "hand": "right"
      },
      {
        "midi": 48,
        "time": 183.288,
        "duration": 0.205,
        "velocity": 1,
        "hand": "left"
      },
      {
        "midi": 77,
        "time": 183.288,
        "duration": 0.205,
        "velocity": 1,
        "hand": "right"
      },
      {
        "midi": 60,
        "time": 183.493,
        "duration": 0.205,
        "velocity": 1,
        "hand": "right"
      },
      {
        "midi": 76,
        "time": 183.493,
        "duration": 0.308,
        "velocity": 1,
        "hand": "right"
      },
      {
        "midi": 53,
        "time": 183.699,
        "duration": 0.205,
        "velocity": 1,
        "hand": "left"
      },
      {
        "midi": 74,
        "time": 183.801,
        "duration": 0.103,
        "velocity": 1,
        "hand": "right"
      },
      {
        "midi": 57,
        "time": 183.904,
        "duration": 0.205,
        "velocity": 1,
        "hand": "left"
      },
      {
        "midi": 77,
        "time": 183.904,
        "duration": 0.103,
        "velocity": 1,
        "hand": "right"
      },
      {
        "midi": 76,
        "time": 184.007,
        "duration": 0.103,
        "velocity": 1,
        "hand": "right"
      },
      {
        "midi": 53,
        "time": 184.11,
        "duration": 0.205,
        "velocity": 1,
        "hand": "left"
      },
      {
        "midi": 79,
        "time": 184.11,
        "duration": 0.103,
        "velocity": 1,
        "hand": "right"
      },
      {
        "midi": 77,
        "time": 184.212,
        "duration": 0.103,
        "velocity": 1,
        "hand": "right"
      },
      {
        "midi": 62,
        "time": 184.315,
        "duration": 0.205,
        "velocity": 1,
        "hand": "right"
      },
      {
        "midi": 76,
        "time": 184.315,
        "duration": 0.103,
        "velocity": 1,
        "hand": "right"
      },
      {
        "midi": 74,
        "time": 184.418,
        "duration": 0.103,
        "velocity": 1,
        "hand": "right"
      },
      {
        "midi": 55,
        "time": 184.521,
        "duration": 0.205,
        "velocity": 1,
        "hand": "left"
      },
      {
        "midi": 72,
        "time": 184.521,
        "duration": 0.411,
        "velocity": 1,
        "hand": "right"
      },
      {
        "midi": 64,
        "time": 184.726,
        "duration": 0.205,
        "velocity": 1,
        "hand": "right"
      },
      {
        "midi": 55,
        "time": 184.932,
        "duration": 0.205,
        "velocity": 1,
        "hand": "left"
      },
      {
        "midi": 71,
        "time": 184.932,
        "duration": 0.411,
        "velocity": 1,
        "hand": "right"
      },
      {
        "midi": 62,
        "time": 185.137,
        "duration": 0.205,
        "velocity": 1,
        "hand": "right"
      },
      {
        "midi": 57,
        "time": 185.342,
        "duration": 0.205,
        "velocity": 1,
        "hand": "left"
      },
      {
        "midi": 72,
        "time": 185.342,
        "duration": 0.205,
        "velocity": 1,
        "hand": "right"
      },
      {
        "midi": 84,
        "time": 185.342,
        "duration": 0.205,
        "velocity": 1,
        "hand": "right"
      },
      {
        "midi": 60,
        "time": 185.548,
        "duration": 0.205,
        "velocity": 1,
        "hand": "right"
      },
      {
        "midi": 72,
        "time": 185.548,
        "duration": 0.205,
        "velocity": 1,
        "hand": "right"
      },
      {
        "midi": 84,
        "time": 185.548,
        "duration": 0.205,
        "velocity": 1,
        "hand": "right"
      },
      {
        "midi": 57,
        "time": 185.753,
        "duration": 0.205,
        "velocity": 1,
        "hand": "left"
      },
      {
        "midi": 72,
        "time": 185.753,
        "duration": 0.616,
        "velocity": 1,
        "hand": "right"
      },
      {
        "midi": 84,
        "time": 185.753,
        "duration": 0.616,
        "velocity": 1,
        "hand": "right"
      },
      {
        "midi": 60,
        "time": 185.959,
        "duration": 0.205,
        "velocity": 1,
        "hand": "right"
      },
      {
        "midi": 53,
        "time": 186.164,
        "duration": 0.205,
        "velocity": 1,
        "hand": "left"
      },
      {
        "midi": 60,
        "time": 186.37,
        "duration": 0.205,
        "velocity": 1,
        "hand": "right"
      },
      {
        "midi": 86,
        "time": 186.37,
        "duration": 0.103,
        "velocity": 1,
        "hand": "right"
      },
      {
        "midi": 84,
        "time": 186.473,
        "duration": 0.103,
        "velocity": 1,
        "hand": "right"
      },
      {
        "midi": 53,
        "time": 186.575,
        "duration": 0.205,
        "velocity": 1,
        "hand": "left"
      },
      {
        "midi": 83,
        "time": 186.575,
        "duration": 0.205,
        "velocity": 1,
        "hand": "right"
      },
      {
        "midi": 60,
        "time": 186.781,
        "duration": 0.205,
        "velocity": 1,
        "hand": "right"
      },
      {
        "midi": 81,
        "time": 186.781,
        "duration": 0.205,
        "velocity": 1,
        "hand": "right"
      },
      {
        "midi": 52,
        "time": 186.986,
        "duration": 0.205,
        "velocity": 1,
        "hand": "left"
      },
      {
        "midi": 72,
        "time": 186.986,
        "duration": 0.205,
        "velocity": 1,
        "hand": "right"
      },
      {
        "midi": 79,
        "time": 186.986,
        "duration": 0.205,
        "velocity": 1,
        "hand": "right"
      },
      {
        "midi": 60,
        "time": 187.192,
        "duration": 0.205,
        "velocity": 1,
        "hand": "right"
      },
      {
        "midi": 72,
        "time": 187.192,
        "duration": 0.205,
        "velocity": 1,
        "hand": "right"
      },
      {
        "midi": 79,
        "time": 187.192,
        "duration": 0.205,
        "velocity": 1,
        "hand": "right"
      },
      {
        "midi": 52,
        "time": 187.397,
        "duration": 0.205,
        "velocity": 1,
        "hand": "left"
      },
      {
        "midi": 72,
        "time": 187.397,
        "duration": 0.616,
        "velocity": 1,
        "hand": "right"
      },
      {
        "midi": 79,
        "time": 187.397,
        "duration": 0.616,
        "velocity": 1,
        "hand": "right"
      },
      {
        "midi": 60,
        "time": 187.603,
        "duration": 0.205,
        "velocity": 1,
        "hand": "right"
      },
      {
        "midi": 48,
        "time": 187.808,
        "duration": 0.205,
        "velocity": 1,
        "hand": "left"
      },
      {
        "midi": 60,
        "time": 188.014,
        "duration": 0.205,
        "velocity": 1,
        "hand": "right"
      },
      {
        "midi": 81,
        "time": 188.014,
        "duration": 0.103,
        "velocity": 1,
        "hand": "right"
      },
      {
        "midi": 79,
        "time": 188.116,
        "duration": 0.103,
        "velocity": 1,
        "hand": "right"
      },
      {
        "midi": 48,
        "time": 188.219,
        "duration": 0.205,
        "velocity": 1,
        "hand": "left"
      },
      {
        "midi": 77,
        "time": 188.219,
        "duration": 0.205,
        "velocity": 1,
        "hand": "right"
      },
      {
        "midi": 60,
        "time": 188.425,
        "duration": 0.205,
        "velocity": 1,
        "hand": "right"
      },
      {
        "midi": 76,
        "time": 188.425,
        "duration": 0.308,
        "velocity": 1,
        "hand": "right"
      },
      {
        "midi": 53,
        "time": 188.63,
        "duration": 0.205,
        "velocity": 1,
        "hand": "left"
      },
      {
        "midi": 74,
        "time": 188.733,
        "duration": 0.103,
        "velocity": 1,
        "hand": "right"
      },
      {
        "midi": 60,
        "time": 188.836,
        "duration": 0.205,
        "velocity": 1,
        "hand": "right"
      },
      {
        "midi": 81,
        "time": 188.836,
        "duration": 0.103,
        "velocity": 1,
        "hand": "right"
      },
      {
        "midi": 80,
        "time": 188.938,
        "duration": 0.103,
        "velocity": 1,
        "hand": "right"
      },
      {
        "midi": 53,
        "time": 189.041,
        "duration": 0.205,
        "velocity": 1,
        "hand": "left"
      },
      {
        "midi": 83,
        "time": 189.041,
        "duration": 0.103,
        "velocity": 1,
        "hand": "right"
      },
      {
        "midi": 81,
        "time": 189.144,
        "duration": 0.103,
        "velocity": 1,
        "hand": "right"
      },
      {
        "midi": 62,
        "time": 189.247,
        "duration": 0.205,
        "velocity": 1,
        "hand": "right"
      },
      {
        "midi": 79,
        "time": 189.247,
        "duration": 0.103,
        "velocity": 1,
        "hand": "right"
      },
      {
        "midi": 77,
        "time": 189.349,
        "duration": 0.103,
        "velocity": 1,
        "hand": "right"
      },
      {
        "midi": 55,
        "time": 189.452,
        "duration": 0.205,
        "velocity": 1,
        "hand": "left"
      },
      {
        "midi": 76,
        "time": 189.452,
        "duration": 0.411,
        "velocity": 1,
        "hand": "right"
      },
      {
        "midi": 60,
        "time": 189.658,
        "duration": 0.205,
        "velocity": 1,
        "hand": "right"
      },
      {
        "midi": 55,
        "time": 189.863,
        "duration": 0.205,
        "velocity": 1,
        "hand": "left"
      },
      {
        "midi": 74,
        "time": 189.863,
        "duration": 0.411,
        "velocity": 1,
        "hand": "right"
      },
      {
        "midi": 59,
        "time": 190.068,
        "duration": 0.205,
        "velocity": 1,
        "hand": "left"
      },
      {
        "midi": 60,
        "time": 190.274,
        "duration": 0.205,
        "velocity": 1,
        "hand": "right"
      },
      {
        "midi": 64,
        "time": 190.274,
        "duration": 0.205,
        "velocity": 1,
        "hand": "right"
      },
      {
        "midi": 72,
        "time": 190.274,
        "duration": 0.411,
        "velocity": 1,
        "hand": "right"
      },
      {
        "midi": 60,
        "time": 190.479,
        "duration": 0.205,
        "velocity": 1,
        "hand": "right"
      },
      {
        "midi": 64,
        "time": 190.479,
        "duration": 0.205,
        "velocity": 1,
        "hand": "right"
      },
      {
        "midi": 60,
        "time": 190.685,
        "duration": 0.205,
        "velocity": 1,
        "hand": "right"
      },
      {
        "midi": 64,
        "time": 190.685,
        "duration": 0.205,
        "velocity": 1,
        "hand": "right"
      },
      {
        "midi": 60,
        "time": 190.89,
        "duration": 0.205,
        "velocity": 1,
        "hand": "right"
      },
      {
        "midi": 64,
        "time": 190.89,
        "duration": 0.205,
        "velocity": 1,
        "hand": "right"
      },
      {
        "midi": 72,
        "time": 190.89,
        "duration": 0.103,
        "velocity": 1,
        "hand": "right"
      },
      {
        "midi": 71,
        "time": 190.993,
        "duration": 0.103,
        "velocity": 1,
        "hand": "right"
      },
      {
        "midi": 60,
        "time": 191.096,
        "duration": 0.205,
        "velocity": 1,
        "hand": "right"
      },
      {
        "midi": 64,
        "time": 191.096,
        "duration": 0.205,
        "velocity": 1,
        "hand": "right"
      },
      {
        "midi": 72,
        "time": 191.096,
        "duration": 0.205,
        "velocity": 1,
        "hand": "right"
      },
      {
        "midi": 60,
        "time": 191.301,
        "duration": 0.205,
        "velocity": 1,
        "hand": "right"
      },
      {
        "midi": 64,
        "time": 191.301,
        "duration": 0.205,
        "velocity": 1,
        "hand": "right"
      },
      {
        "midi": 75,
        "time": 191.301,
        "duration": 0.205,
        "velocity": 1,
        "hand": "right"
      },
      {
        "midi": 60,
        "time": 191.507,
        "duration": 0.205,
        "velocity": 1,
        "hand": "right"
      },
      {
        "midi": 64,
        "time": 191.507,
        "duration": 0.205,
        "velocity": 1,
        "hand": "right"
      },
      {
        "midi": 76,
        "time": 191.507,
        "duration": 0.205,
        "velocity": 1,
        "hand": "right"
      },
      {
        "midi": 60,
        "time": 191.712,
        "duration": 0.205,
        "velocity": 1,
        "hand": "right"
      },
      {
        "midi": 64,
        "time": 191.712,
        "duration": 0.205,
        "velocity": 1,
        "hand": "right"
      },
      {
        "midi": 78,
        "time": 191.712,
        "duration": 0.205,
        "velocity": 1,
        "hand": "right"
      },
      {
        "midi": 60,
        "time": 191.918,
        "duration": 0.205,
        "velocity": 1,
        "hand": "right"
      },
      {
        "midi": 64,
        "time": 191.918,
        "duration": 0.205,
        "velocity": 1,
        "hand": "right"
      },
      {
        "midi": 79,
        "time": 191.918,
        "duration": 0.205,
        "velocity": 1,
        "hand": "right"
      },
      {
        "midi": 60,
        "time": 192.123,
        "duration": 0.205,
        "velocity": 1,
        "hand": "right"
      },
      {
        "midi": 64,
        "time": 192.123,
        "duration": 0.205,
        "velocity": 1,
        "hand": "right"
      },
      {
        "midi": 83,
        "time": 192.123,
        "duration": 0.205,
        "velocity": 1,
        "hand": "right"
      },
      {
        "midi": 60,
        "time": 192.329,
        "duration": 0.205,
        "velocity": 1,
        "hand": "right"
      },
      {
        "midi": 64,
        "time": 192.329,
        "duration": 0.205,
        "velocity": 1,
        "hand": "right"
      },
      {
        "midi": 84,
        "time": 192.329,
        "duration": 0.205,
        "velocity": 1,
        "hand": "right"
      },
      {
        "midi": 60,
        "time": 192.534,
        "duration": 0.205,
        "velocity": 1,
        "hand": "right"
      },
      {
        "midi": 64,
        "time": 192.534,
        "duration": 0.205,
        "velocity": 1,
        "hand": "right"
      },
      {
        "midi": 87,
        "time": 192.534,
        "duration": 0.205,
        "velocity": 1,
        "hand": "right"
      },
      {
        "midi": 60,
        "time": 192.74,
        "duration": 0.205,
        "velocity": 1,
        "hand": "right"
      },
      {
        "midi": 64,
        "time": 192.74,
        "duration": 0.205,
        "velocity": 1,
        "hand": "right"
      },
      {
        "midi": 88,
        "time": 192.74,
        "duration": 0.411,
        "velocity": 1,
        "hand": "right"
      },
      {
        "midi": 60,
        "time": 192.945,
        "duration": 0.205,
        "velocity": 1,
        "hand": "right"
      },
      {
        "midi": 64,
        "time": 192.945,
        "duration": 0.205,
        "velocity": 1,
        "hand": "right"
      },
      {
        "midi": 60,
        "time": 193.151,
        "duration": 0.205,
        "velocity": 1,
        "hand": "right"
      },
      {
        "midi": 64,
        "time": 193.151,
        "duration": 0.205,
        "velocity": 1,
        "hand": "right"
      },
      {
        "midi": 60,
        "time": 193.356,
        "duration": 0.205,
        "velocity": 1,
        "hand": "right"
      },
      {
        "midi": 64,
        "time": 193.356,
        "duration": 0.205,
        "velocity": 1,
        "hand": "right"
      },
      {
        "midi": 59,
        "time": 193.562,
        "duration": 0.205,
        "velocity": 1,
        "hand": "left"
      },
      {
        "midi": 74,
        "time": 193.562,
        "duration": 0.411,
        "velocity": 1,
        "hand": "right"
      },
      {
        "midi": 86,
        "time": 193.562,
        "duration": 0.411,
        "velocity": 1,
        "hand": "right"
      },
      {
        "midi": 59,
        "time": 193.767,
        "duration": 0.205,
        "velocity": 1,
        "hand": "left"
      },
      {
        "midi": 62,
        "time": 193.767,
        "duration": 0.205,
        "velocity": 1,
        "hand": "right"
      },
      {
        "midi": 59,
        "time": 193.973,
        "duration": 0.205,
        "velocity": 1,
        "hand": "left"
      },
      {
        "midi": 62,
        "time": 193.973,
        "duration": 0.205,
        "velocity": 1,
        "hand": "right"
      },
      {
        "midi": 59,
        "time": 194.178,
        "duration": 0.205,
        "velocity": 1,
        "hand": "left"
      },
      {
        "midi": 62,
        "time": 194.178,
        "duration": 0.205,
        "velocity": 1,
        "hand": "right"
      },
      {
        "midi": 71,
        "time": 194.178,
        "duration": 0.103,
        "velocity": 1,
        "hand": "right"
      },
      {
        "midi": 69,
        "time": 194.281,
        "duration": 0.103,
        "velocity": 1,
        "hand": "right"
      },
      {
        "midi": 59,
        "time": 194.384,
        "duration": 0.205,
        "velocity": 1,
        "hand": "left"
      },
      {
        "midi": 62,
        "time": 194.384,
        "duration": 0.205,
        "velocity": 1,
        "hand": "right"
      },
      {
        "midi": 71,
        "time": 194.384,
        "duration": 0.205,
        "velocity": 1,
        "hand": "right"
      },
      {
        "midi": 59,
        "time": 194.589,
        "duration": 0.205,
        "velocity": 1,
        "hand": "left"
      },
      {
        "midi": 62,
        "time": 194.589,
        "duration": 0.205,
        "velocity": 1,
        "hand": "right"
      },
      {
        "midi": 73,
        "time": 194.589,
        "duration": 0.205,
        "velocity": 1,
        "hand": "right"
      },
      {
        "midi": 59,
        "time": 194.795,
        "duration": 0.205,
        "velocity": 1,
        "hand": "left"
      },
      {
        "midi": 62,
        "time": 194.795,
        "duration": 0.205,
        "velocity": 1,
        "hand": "right"
      },
      {
        "midi": 74,
        "time": 194.795,
        "duration": 0.205,
        "velocity": 1,
        "hand": "right"
      },
      {
        "midi": 59,
        "time": 195,
        "duration": 0.205,
        "velocity": 1,
        "hand": "left"
      },
      {
        "midi": 62,
        "time": 195,
        "duration": 0.205,
        "velocity": 1,
        "hand": "right"
      },
      {
        "midi": 78,
        "time": 195,
        "duration": 0.205,
        "velocity": 1,
        "hand": "right"
      },
      {
        "midi": 59,
        "time": 195.205,
        "duration": 0.205,
        "velocity": 1,
        "hand": "left"
      },
      {
        "midi": 62,
        "time": 195.205,
        "duration": 0.205,
        "velocity": 1,
        "hand": "right"
      },
      {
        "midi": 79,
        "time": 195.205,
        "duration": 0.205,
        "velocity": 1,
        "hand": "right"
      },
      {
        "midi": 59,
        "time": 195.411,
        "duration": 0.205,
        "velocity": 1,
        "hand": "left"
      },
      {
        "midi": 62,
        "time": 195.411,
        "duration": 0.205,
        "velocity": 1,
        "hand": "right"
      },
      {
        "midi": 82,
        "time": 195.411,
        "duration": 0.205,
        "velocity": 1,
        "hand": "right"
      },
      {
        "midi": 59,
        "time": 195.616,
        "duration": 0.205,
        "velocity": 1,
        "hand": "left"
      },
      {
        "midi": 62,
        "time": 195.616,
        "duration": 0.205,
        "velocity": 1,
        "hand": "right"
      },
      {
        "midi": 83,
        "time": 195.616,
        "duration": 0.205,
        "velocity": 1,
        "hand": "right"
      },
      {
        "midi": 59,
        "time": 195.822,
        "duration": 0.205,
        "velocity": 1,
        "hand": "left"
      },
      {
        "midi": 62,
        "time": 195.822,
        "duration": 0.205,
        "velocity": 1,
        "hand": "right"
      },
      {
        "midi": 85,
        "time": 195.822,
        "duration": 0.205,
        "velocity": 1,
        "hand": "right"
      },
      {
        "midi": 59,
        "time": 196.027,
        "duration": 0.205,
        "velocity": 1,
        "hand": "left"
      },
      {
        "midi": 62,
        "time": 196.027,
        "duration": 0.205,
        "velocity": 1,
        "hand": "right"
      },
      {
        "midi": 86,
        "time": 196.027,
        "duration": 0.411,
        "velocity": 1,
        "hand": "right"
      },
      {
        "midi": 59,
        "time": 196.233,
        "duration": 0.205,
        "velocity": 1,
        "hand": "left"
      },
      {
        "midi": 62,
        "time": 196.233,
        "duration": 0.205,
        "velocity": 1,
        "hand": "right"
      },
      {
        "midi": 59,
        "time": 196.438,
        "duration": 0.205,
        "velocity": 1,
        "hand": "left"
      },
      {
        "midi": 62,
        "time": 196.438,
        "duration": 0.205,
        "velocity": 1,
        "hand": "right"
      },
      {
        "midi": 59,
        "time": 196.644,
        "duration": 0.205,
        "velocity": 1,
        "hand": "left"
      },
      {
        "midi": 62,
        "time": 196.644,
        "duration": 0.205,
        "velocity": 1,
        "hand": "right"
      },
      {
        "midi": 54,
        "time": 196.849,
        "duration": 0.205,
        "velocity": 1,
        "hand": "left"
      },
      {
        "midi": 72,
        "time": 196.849,
        "duration": 0.411,
        "velocity": 1,
        "hand": "right"
      },
      {
        "midi": 84,
        "time": 196.849,
        "duration": 0.411,
        "velocity": 1,
        "hand": "right"
      },
      {
        "midi": 54,
        "time": 197.055,
        "duration": 0.205,
        "velocity": 1,
        "hand": "left"
      },
      {
        "midi": 57,
        "time": 197.055,
        "duration": 0.205,
        "velocity": 1,
        "hand": "left"
      },
      {
        "midi": 62,
        "time": 197.055,
        "duration": 0.205,
        "velocity": 1,
        "hand": "right"
      },
      {
        "midi": 54,
        "time": 197.26,
        "duration": 0.205,
        "velocity": 1,
        "hand": "left"
      },
      {
        "midi": 57,
        "time": 197.26,
        "duration": 0.205,
        "velocity": 1,
        "hand": "left"
      },
      {
        "midi": 62,
        "time": 197.26,
        "duration": 0.205,
        "velocity": 1,
        "hand": "right"
      },
      {
        "midi": 54,
        "time": 197.466,
        "duration": 0.205,
        "velocity": 1,
        "hand": "left"
      },
      {
        "midi": 62,
        "time": 197.466,
        "duration": 0.205,
        "velocity": 1,
        "hand": "right"
      },
      {
        "midi": 69,
        "time": 197.466,
        "duration": 0.103,
        "velocity": 1,
        "hand": "right"
      },
      {
        "midi": 68,
        "time": 197.568,
        "duration": 0.103,
        "velocity": 1,
        "hand": "right"
      },
      {
        "midi": 54,
        "time": 197.671,
        "duration": 0.205,
        "velocity": 1,
        "hand": "left"
      },
      {
        "midi": 62,
        "time": 197.671,
        "duration": 0.205,
        "velocity": 1,
        "hand": "right"
      },
      {
        "midi": 69,
        "time": 197.671,
        "duration": 0.205,
        "velocity": 1,
        "hand": "right"
      },
      {
        "midi": 54,
        "time": 197.877,
        "duration": 0.205,
        "velocity": 1,
        "hand": "left"
      },
      {
        "midi": 62,
        "time": 197.877,
        "duration": 0.205,
        "velocity": 1,
        "hand": "right"
      },
      {
        "midi": 71,
        "time": 197.877,
        "duration": 0.205,
        "velocity": 1,
        "hand": "right"
      },
      {
        "midi": 54,
        "time": 198.082,
        "duration": 0.205,
        "velocity": 1,
        "hand": "left"
      },
      {
        "midi": 62,
        "time": 198.082,
        "duration": 0.205,
        "velocity": 1,
        "hand": "right"
      },
      {
        "midi": 72,
        "time": 198.082,
        "duration": 0.205,
        "velocity": 1,
        "hand": "right"
      },
      {
        "midi": 54,
        "time": 198.288,
        "duration": 0.205,
        "velocity": 1,
        "hand": "left"
      },
      {
        "midi": 62,
        "time": 198.288,
        "duration": 0.205,
        "velocity": 1,
        "hand": "right"
      },
      {
        "midi": 77,
        "time": 198.288,
        "duration": 0.205,
        "velocity": 1,
        "hand": "right"
      },
      {
        "midi": 54,
        "time": 198.493,
        "duration": 0.205,
        "velocity": 1,
        "hand": "left"
      },
      {
        "midi": 62,
        "time": 198.493,
        "duration": 0.205,
        "velocity": 1,
        "hand": "right"
      },
      {
        "midi": 78,
        "time": 198.493,
        "duration": 0.205,
        "velocity": 1,
        "hand": "right"
      },
      {
        "midi": 54,
        "time": 198.699,
        "duration": 0.205,
        "velocity": 1,
        "hand": "left"
      },
      {
        "midi": 62,
        "time": 198.699,
        "duration": 0.205,
        "velocity": 1,
        "hand": "right"
      },
      {
        "midi": 80,
        "time": 198.699,
        "duration": 0.205,
        "velocity": 1,
        "hand": "right"
      },
      {
        "midi": 54,
        "time": 198.904,
        "duration": 0.205,
        "velocity": 1,
        "hand": "left"
      },
      {
        "midi": 62,
        "time": 198.904,
        "duration": 0.205,
        "velocity": 1,
        "hand": "right"
      },
      {
        "midi": 81,
        "time": 198.904,
        "duration": 0.205,
        "velocity": 1,
        "hand": "right"
      },
      {
        "midi": 54,
        "time": 199.11,
        "duration": 0.205,
        "velocity": 1,
        "hand": "left"
      },
      {
        "midi": 62,
        "time": 199.11,
        "duration": 0.205,
        "velocity": 1,
        "hand": "right"
      },
      {
        "midi": 83,
        "time": 199.11,
        "duration": 0.205,
        "velocity": 1,
        "hand": "right"
      },
      {
        "midi": 54,
        "time": 199.315,
        "duration": 0.205,
        "velocity": 1,
        "hand": "left"
      },
      {
        "midi": 62,
        "time": 199.315,
        "duration": 0.205,
        "velocity": 1,
        "hand": "right"
      },
      {
        "midi": 84,
        "time": 199.315,
        "duration": 0.411,
        "velocity": 1,
        "hand": "right"
      },
      {
        "midi": 54,
        "time": 199.521,
        "duration": 0.205,
        "velocity": 1,
        "hand": "left"
      },
      {
        "midi": 57,
        "time": 199.521,
        "duration": 0.205,
        "velocity": 1,
        "hand": "left"
      },
      {
        "midi": 62,
        "time": 199.521,
        "duration": 0.205,
        "velocity": 1,
        "hand": "right"
      },
      {
        "midi": 54,
        "time": 199.726,
        "duration": 0.205,
        "velocity": 1,
        "hand": "left"
      },
      {
        "midi": 57,
        "time": 199.726,
        "duration": 0.205,
        "velocity": 1,
        "hand": "left"
      },
      {
        "midi": 62,
        "time": 199.726,
        "duration": 0.205,
        "velocity": 1,
        "hand": "right"
      },
      {
        "midi": 54,
        "time": 199.932,
        "duration": 0.205,
        "velocity": 1,
        "hand": "left"
      },
      {
        "midi": 57,
        "time": 199.932,
        "duration": 0.205,
        "velocity": 1,
        "hand": "left"
      },
      {
        "midi": 62,
        "time": 199.932,
        "duration": 0.205,
        "velocity": 1,
        "hand": "right"
      },
      {
        "midi": 55,
        "time": 200.137,
        "duration": 0.822,
        "velocity": 1,
        "hand": "left"
      },
      {
        "midi": 62,
        "time": 200.137,
        "duration": 0.822,
        "velocity": 1,
        "hand": "right"
      },
      {
        "midi": 83,
        "time": 200.137,
        "duration": 0.103,
        "velocity": 1,
        "hand": "right"
      },
      {
        "midi": 81,
        "time": 200.24,
        "duration": 0.103,
        "velocity": 1,
        "hand": "right"
      },
      {
        "midi": 84,
        "time": 200.342,
        "duration": 0.103,
        "velocity": 1,
        "hand": "right"
      },
      {
        "midi": 83,
        "time": 200.445,
        "duration": 0.103,
        "velocity": 1,
        "hand": "right"
      },
      {
        "midi": 86,
        "time": 200.548,
        "duration": 0.205,
        "velocity": 1,
        "hand": "right"
      },
      {
        "midi": 78,
        "time": 200.753,
        "duration": 0.205,
        "velocity": 1,
        "hand": "right"
      },
      {
        "midi": 55,
        "time": 200.959,
        "duration": 0.822,
        "velocity": 1,
        "hand": "left"
      },
      {
        "midi": 59,
        "time": 200.959,
        "duration": 0.822,
        "velocity": 1,
        "hand": "left"
      },
      {
        "midi": 79,
        "time": 200.959,
        "duration": 0.103,
        "velocity": 1,
        "hand": "right"
      },
      {
        "midi": 78,
        "time": 201.062,
        "duration": 0.103,
        "velocity": 1,
        "hand": "right"
      },
      {
        "midi": 81,
        "time": 201.164,
        "duration": 0.103,
        "velocity": 1,
        "hand": "right"
      },
      {
        "midi": 79,
        "time": 201.267,
        "duration": 0.103,
        "velocity": 1,
        "hand": "right"
      },
      {
        "midi": 83,
        "time": 201.37,
        "duration": 0.205,
        "velocity": 1,
        "hand": "right"
      },
      {
        "midi": 75,
        "time": 201.575,
        "duration": 0.205,
        "velocity": 1,
        "hand": "right"
      },
      {
        "midi": 55,
        "time": 201.781,
        "duration": 0.822,
        "velocity": 1,
        "hand": "left"
      },
      {
        "midi": 60,
        "time": 201.781,
        "duration": 0.822,
        "velocity": 1,
        "hand": "right"
      },
      {
        "midi": 76,
        "time": 201.781,
        "duration": 0.103,
        "velocity": 1,
        "hand": "right"
      },
      {
        "midi": 75,
        "time": 201.884,
        "duration": 0.103,
        "velocity": 1,
        "hand": "right"
      },
      {
        "midi": 78,
        "time": 201.986,
        "duration": 0.103,
        "velocity": 1,
        "hand": "right"
      },
      {
        "midi": 76,
        "time": 202.089,
        "duration": 0.103,
        "velocity": 1,
        "hand": "right"
      },
      {
        "midi": 79,
        "time": 202.192,
        "duration": 0.205,
        "velocity": 1,
        "hand": "right"
      },
      {
        "midi": 71,
        "time": 202.397,
        "duration": 0.205,
        "velocity": 1,
        "hand": "right"
      },
      {
        "midi": 55,
        "time": 202.603,
        "duration": 0.822,
        "velocity": 1,
        "hand": "left"
      },
      {
        "midi": 66,
        "time": 202.603,
        "duration": 0.822,
        "velocity": 1,
        "hand": "right"
      },
      {
        "midi": 72,
        "time": 202.603,
        "duration": 0.103,
        "velocity": 1,
        "hand": "right"
      },
      {
        "midi": 71,
        "time": 202.705,
        "duration": 0.103,
        "velocity": 1,
        "hand": "right"
      },
      {
        "midi": 74,
        "time": 202.808,
        "duration": 0.103,
        "velocity": 1,
        "hand": "right"
      },
      {
        "midi": 72,
        "time": 202.911,
        "duration": 0.103,
        "velocity": 1,
        "hand": "right"
      },
      {
        "midi": 76,
        "time": 203.014,
        "duration": 0.205,
        "velocity": 1,
        "hand": "right"
      },
      {
        "midi": 69,
        "time": 203.219,
        "duration": 0.205,
        "velocity": 1,
        "hand": "right"
      },
      {
        "midi": 55,
        "time": 203.425,
        "duration": 0.411,
        "velocity": 1,
        "hand": "left"
      },
      {
        "midi": 67,
        "time": 203.425,
        "duration": 0.411,
        "velocity": 1,
        "hand": "right"
      },
      {
        "midi": 71,
        "time": 203.425,
        "duration": 0.103,
        "velocity": 1,
        "hand": "right"
      },
      {
        "midi": 69,
        "time": 203.527,
        "duration": 0.103,
        "velocity": 1,
        "hand": "right"
      },
      {
        "midi": 72,
        "time": 203.63,
        "duration": 0.103,
        "velocity": 1,
        "hand": "right"
      },
      {
        "midi": 71,
        "time": 203.733,
        "duration": 0.103,
        "velocity": 1,
        "hand": "right"
      },
      {
        "midi": 74,
        "time": 203.836,
        "duration": 0.205,
        "velocity": 1,
        "hand": "right"
      },
      {
        "midi": 54,
        "time": 204.041,
        "duration": 0.205,
        "velocity": 1,
        "hand": "left"
      },
      {
        "midi": 66,
        "time": 204.041,
        "duration": 0.205,
        "velocity": 1,
        "hand": "right"
      },
      {
        "midi": 55,
        "time": 204.247,
        "duration": 0.103,
        "velocity": 1,
        "hand": "left"
      },
      {
        "midi": 67,
        "time": 204.247,
        "duration": 0.103,
        "velocity": 1,
        "hand": "right"
      },
      {
        "midi": 54,
        "time": 204.349,
        "duration": 0.103,
        "velocity": 1,
        "hand": "left"
      },
      {
        "midi": 66,
        "time": 204.349,
        "duration": 0.103,
        "velocity": 1,
        "hand": "right"
      },
      {
        "midi": 57,
        "time": 204.452,
        "duration": 0.103,
        "velocity": 1,
        "hand": "left"
      },
      {
        "midi": 69,
        "time": 204.452,
        "duration": 0.103,
        "velocity": 1,
        "hand": "right"
      },
      {
        "midi": 55,
        "time": 204.555,
        "duration": 0.103,
        "velocity": 1,
        "hand": "left"
      },
      {
        "midi": 67,
        "time": 204.555,
        "duration": 0.103,
        "velocity": 1,
        "hand": "right"
      },
      {
        "midi": 59,
        "time": 204.658,
        "duration": 0.205,
        "velocity": 1,
        "hand": "left"
      },
      {
        "midi": 71,
        "time": 204.658,
        "duration": 0.205,
        "velocity": 1,
        "hand": "right"
      },
      {
        "midi": 50,
        "time": 204.863,
        "duration": 0.205,
        "velocity": 1,
        "hand": "left"
      },
      {
        "midi": 62,
        "time": 204.863,
        "duration": 0.205,
        "velocity": 1,
        "hand": "right"
      },
      {
        "midi": 52,
        "time": 205.068,
        "duration": 0.308,
        "velocity": 1,
        "hand": "left"
      },
      {
        "midi": 64,
        "time": 205.068,
        "duration": 0.308,
        "velocity": 1,
        "hand": "right"
      },
      {
        "midi": 50,
        "time": 205.377,
        "duration": 0.103,
        "velocity": 1,
        "hand": "left"
      },
      {
        "midi": 62,
        "time": 205.377,
        "duration": 0.103,
        "velocity": 1,
        "hand": "right"
      },
      {
        "midi": 48,
        "time": 205.479,
        "duration": 0.308,
        "velocity": 1,
        "hand": "left"
      },
      {
        "midi": 60,
        "time": 205.479,
        "duration": 0.308,
        "velocity": 1,
        "hand": "right"
      },
      {
        "midi": 47,
        "time": 205.788,
        "duration": 0.103,
        "velocity": 1,
        "hand": "left"
      },
      {
        "midi": 59,
        "time": 205.788,
        "duration": 0.103,
        "velocity": 1,
        "hand": "left"
      },
      {
        "midi": 48,
        "time": 205.89,
        "duration": 0.308,
        "velocity": 1,
        "hand": "left"
      },
      {
        "midi": 60,
        "time": 205.89,
        "duration": 0.308,
        "velocity": 1,
        "hand": "right"
      },
      {
        "midi": 45,
        "time": 206.199,
        "duration": 0.103,
        "velocity": 1,
        "hand": "left"
      },
      {
        "midi": 57,
        "time": 206.199,
        "duration": 0.103,
        "velocity": 1,
        "hand": "left"
      },
      {
        "midi": 43,
        "time": 206.301,
        "duration": 0.308,
        "velocity": 1,
        "hand": "left"
      },
      {
        "midi": 55,
        "time": 206.301,
        "duration": 0.308,
        "velocity": 1,
        "hand": "left"
      },
      {
        "midi": 42,
        "time": 206.61,
        "duration": 0.103,
        "velocity": 1,
        "hand": "left"
      },
      {
        "midi": 54,
        "time": 206.61,
        "duration": 0.103,
        "velocity": 1,
        "hand": "left"
      },
      {
        "midi": 43,
        "time": 206.712,
        "duration": 0.205,
        "velocity": 1,
        "hand": "left"
      },
      {
        "midi": 55,
        "time": 206.712,
        "duration": 0.205,
        "velocity": 1,
        "hand": "left"
      },
      {
        "midi": 47,
        "time": 206.918,
        "duration": 0.103,
        "velocity": 1,
        "hand": "left"
      },
      {
        "midi": 59,
        "time": 206.918,
        "duration": 0.103,
        "velocity": 1,
        "hand": "left"
      },
      {
        "midi": 50,
        "time": 207.021,
        "duration": 0.103,
        "velocity": 1,
        "hand": "left"
      },
      {
        "midi": 62,
        "time": 207.021,
        "duration": 0.103,
        "velocity": 1,
        "hand": "right"
      },
      {
        "midi": 55,
        "time": 207.123,
        "duration": 0.205,
        "velocity": 1,
        "hand": "left"
      },
      {
        "midi": 67,
        "time": 207.123,
        "duration": 0.205,
        "velocity": 1,
        "hand": "right"
      },
      {
        "midi": 55,
        "time": 207.329,
        "duration": 0.205,
        "velocity": 1,
        "hand": "left"
      },
      {
        "midi": 67,
        "time": 207.329,
        "duration": 0.205,
        "velocity": 1,
        "hand": "right"
      },
      {
        "midi": 55,
        "time": 207.534,
        "duration": 0.411,
        "velocity": 1,
        "hand": "left"
      },
      {
        "midi": 67,
        "time": 207.534,
        "duration": 0.411,
        "velocity": 1,
        "hand": "right"
      },
      {
        "midi": 78,
        "time": 208.356,
        "duration": 0.205,
        "velocity": 1,
        "hand": "right"
      },
      {
        "midi": 79,
        "time": 208.562,
        "duration": 0.205,
        "velocity": 1,
        "hand": "right"
      },
      {
        "midi": 78,
        "time": 208.767,
        "duration": 0.205,
        "velocity": 1,
        "hand": "right"
      },
      {
        "midi": 79,
        "time": 208.973,
        "duration": 0.205,
        "velocity": 1,
        "hand": "right"
      },
      {
        "midi": 78,
        "time": 209.178,
        "duration": 0.205,
        "velocity": 1,
        "hand": "right"
      },
      {
        "midi": 79,
        "time": 209.384,
        "duration": 0.205,
        "velocity": 1,
        "hand": "right"
      },
      {
        "midi": 78,
        "time": 209.589,
        "duration": 0.205,
        "velocity": 1,
        "hand": "right"
      },
      {
        "midi": 79,
        "time": 209.795,
        "duration": 0.205,
        "velocity": 1,
        "hand": "right"
      },
      {
        "midi": 77,
        "time": 210,
        "duration": 0.205,
        "velocity": 1,
        "hand": "right"
      },
      {
        "midi": 79,
        "time": 210.205,
        "duration": 0.205,
        "velocity": 1,
        "hand": "right"
      },
      {
        "midi": 76,
        "time": 210.411,
        "duration": 0.205,
        "velocity": 1,
        "hand": "right"
      },
      {
        "midi": 79,
        "time": 210.616,
        "duration": 0.205,
        "velocity": 1,
        "hand": "right"
      },
      {
        "midi": 77,
        "time": 210.822,
        "duration": 0.205,
        "velocity": 1,
        "hand": "right"
      },
      {
        "midi": 79,
        "time": 211.027,
        "duration": 0.205,
        "velocity": 1,
        "hand": "right"
      },
      {
        "midi": 74,
        "time": 211.233,
        "duration": 0.205,
        "velocity": 1,
        "hand": "right"
      },
      {
        "midi": 79,
        "time": 211.438,
        "duration": 0.205,
        "velocity": 1,
        "hand": "right"
      },
      {
        "midi": 64,
        "time": 211.644,
        "duration": 0.205,
        "velocity": 1,
        "hand": "right"
      },
      {
        "midi": 72,
        "time": 211.644,
        "duration": 0.205,
        "velocity": 1,
        "hand": "right"
      },
      {
        "midi": 65,
        "time": 211.849,
        "duration": 0.205,
        "velocity": 1,
        "hand": "right"
      },
      {
        "midi": 79,
        "time": 211.849,
        "duration": 0.205,
        "velocity": 1,
        "hand": "right"
      },
      {
        "midi": 67,
        "time": 212.055,
        "duration": 0.205,
        "velocity": 1,
        "hand": "right"
      },
      {
        "midi": 72,
        "time": 212.055,
        "duration": 0.205,
        "velocity": 1,
        "hand": "right"
      },
      {
        "midi": 64,
        "time": 212.26,
        "duration": 0.205,
        "velocity": 1,
        "hand": "right"
      },
      {
        "midi": 79,
        "time": 212.26,
        "duration": 0.205,
        "velocity": 1,
        "hand": "right"
      },
      {
        "midi": 60,
        "time": 212.466,
        "duration": 0.822,
        "velocity": 1,
        "hand": "right"
      },
      {
        "midi": 76,
        "time": 212.466,
        "duration": 0.205,
        "velocity": 1,
        "hand": "right"
      },
      {
        "midi": 79,
        "time": 212.671,
        "duration": 0.205,
        "velocity": 1,
        "hand": "right"
      },
      {
        "midi": 76,
        "time": 212.877,
        "duration": 0.205,
        "velocity": 1,
        "hand": "right"
      },
      {
        "midi": 79,
        "time": 213.082,
        "duration": 0.205,
        "velocity": 1,
        "hand": "right"
      },
      {
        "midi": 62,
        "time": 213.288,
        "duration": 0.205,
        "velocity": 1,
        "hand": "right"
      },
      {
        "midi": 77,
        "time": 213.288,
        "duration": 0.205,
        "velocity": 1,
        "hand": "right"
      },
      {
        "midi": 64,
        "time": 213.493,
        "duration": 0.205,
        "velocity": 1,
        "hand": "right"
      },
      {
        "midi": 79,
        "time": 213.493,
        "duration": 0.205,
        "velocity": 1,
        "hand": "right"
      },
      {
        "midi": 65,
        "time": 213.699,
        "duration": 0.205,
        "velocity": 1,
        "hand": "right"
      },
      {
        "midi": 77,
        "time": 213.699,
        "duration": 0.205,
        "velocity": 1,
        "hand": "right"
      },
      {
        "midi": 62,
        "time": 213.904,
        "duration": 0.205,
        "velocity": 1,
        "hand": "right"
      },
      {
        "midi": 79,
        "time": 213.904,
        "duration": 0.205,
        "velocity": 1,
        "hand": "right"
      },
      {
        "midi": 59,
        "time": 214.11,
        "duration": 0.822,
        "velocity": 1,
        "hand": "left"
      },
      {
        "midi": 74,
        "time": 214.11,
        "duration": 0.205,
        "velocity": 1,
        "hand": "right"
      },
      {
        "midi": 79,
        "time": 214.315,
        "duration": 0.205,
        "velocity": 1,
        "hand": "right"
      },
      {
        "midi": 74,
        "time": 214.521,
        "duration": 0.205,
        "velocity": 1,
        "hand": "right"
      },
      {
        "midi": 79,
        "time": 214.726,
        "duration": 0.205,
        "velocity": 1,
        "hand": "right"
      },
      {
        "midi": 62,
        "time": 214.932,
        "duration": 0.103,
        "velocity": 1,
        "hand": "right"
      },
      {
        "midi": 76,
        "time": 214.932,
        "duration": 0.205,
        "velocity": 1,
        "hand": "right"
      },
      {
        "midi": 60,
        "time": 215.034,
        "duration": 0.205,
        "velocity": 1,
        "hand": "right"
      },
      {
        "midi": 79,
        "time": 215.137,
        "duration": 0.205,
        "velocity": 1,
        "hand": "right"
      },
      {
        "midi": 65,
        "time": 215.342,
        "duration": 0.103,
        "velocity": 1,
        "hand": "right"
      },
      {
        "midi": 72,
        "time": 215.342,
        "duration": 0.205,
        "velocity": 1,
        "hand": "right"
      },
      {
        "midi": 64,
        "time": 215.445,
        "duration": 0.205,
        "velocity": 1,
        "hand": "right"
      },
      {
        "midi": 79,
        "time": 215.548,
        "duration": 0.205,
        "velocity": 1,
        "hand": "right"
      },
      {
        "midi": 61,
        "time": 215.753,
        "duration": 0.103,
        "velocity": 1,
        "hand": "right"
      },
      {
        "midi": 71,
        "time": 215.753,
        "duration": 0.205,
        "velocity": 1,
        "hand": "right"
      },
      {
        "midi": 62,
        "time": 215.856,
        "duration": 0.205,
        "velocity": 1,
        "hand": "right"
      },
      {
        "midi": 79,
        "time": 215.959,
        "duration": 0.205,
        "velocity": 1,
        "hand": "right"
      },
      {
        "midi": 74,
        "time": 216.164,
        "duration": 0.205,
        "velocity": 1,
        "hand": "right"
      },
      {
        "midi": 79,
        "time": 216.37,
        "duration": 0.205,
        "velocity": 1,
        "hand": "right"
      },
      {
        "midi": 65,
        "time": 216.575,
        "duration": 0.103,
        "velocity": 1,
        "hand": "right"
      },
      {
        "midi": 72,
        "time": 216.575,
        "duration": 0.205,
        "velocity": 1,
        "hand": "right"
      },
      {
        "midi": 64,
        "time": 216.678,
        "duration": 0.205,
        "velocity": 1,
        "hand": "right"
      },
      {
        "midi": 79,
        "time": 216.781,
        "duration": 0.205,
        "velocity": 1,
        "hand": "right"
      },
      {
        "midi": 67,
        "time": 216.986,
        "duration": 0.103,
        "velocity": 1,
        "hand": "right"
      },
      {
        "midi": 72,
        "time": 216.986,
        "duration": 0.205,
        "velocity": 1,
        "hand": "right"
      },
      {
        "midi": 66,
        "time": 217.089,
        "duration": 0.205,
        "velocity": 1,
        "hand": "right"
      },
      {
        "midi": 81,
        "time": 217.192,
        "duration": 0.205,
        "velocity": 1,
        "hand": "right"
      },
      {
        "midi": 69,
        "time": 217.397,
        "duration": 0.103,
        "velocity": 1,
        "hand": "right"
      },
      {
        "midi": 71,
        "time": 217.397,
        "duration": 0.205,
        "velocity": 1,
        "hand": "right"
      },
      {
        "midi": 67,
        "time": 217.5,
        "duration": 0.205,
        "velocity": 1,
        "hand": "right"
      },
      {
        "midi": 74,
        "time": 217.603,
        "duration": 0.205,
        "velocity": 1,
        "hand": "right"
      },
      {
        "midi": 78,
        "time": 217.808,
        "duration": 0.205,
        "velocity": 1,
        "hand": "right"
      },
      {
        "midi": 79,
        "time": 218.014,
        "duration": 0.205,
        "velocity": 1,
        "hand": "right"
      },
      {
        "midi": 48,
        "time": 218.219,
        "duration": 0.205,
        "velocity": 1,
        "hand": "left"
      },
      {
        "midi": 76,
        "time": 218.219,
        "duration": 0.205,
        "velocity": 1,
        "hand": "right"
      },
      {
        "midi": 55,
        "time": 218.425,
        "duration": 0.205,
        "velocity": 1,
        "hand": "left"
      },
      {
        "midi": 77,
        "time": 218.425,
        "duration": 0.205,
        "velocity": 1,
        "hand": "right"
      },
      {
        "midi": 48,
        "time": 218.63,
        "duration": 0.205,
        "velocity": 1,
        "hand": "left"
      },
      {
        "midi": 79,
        "time": 218.63,
        "duration": 0.205,
        "velocity": 1,
        "hand": "right"
      },
      {
        "midi": 55,
        "time": 218.836,
        "duration": 0.205,
        "velocity": 1,
        "hand": "left"
      },
      {
        "midi": 76,
        "time": 218.836,
        "duration": 0.205,
        "velocity": 1,
        "hand": "right"
      },
      {
        "midi": 52,
        "time": 219.041,
        "duration": 0.205,
        "velocity": 1,
        "hand": "left"
      },
      {
        "midi": 72,
        "time": 219.041,
        "duration": 0.822,
        "velocity": 1,
        "hand": "right"
      },
      {
        "midi": 55,
        "time": 219.247,
        "duration": 0.205,
        "velocity": 1,
        "hand": "left"
      },
      {
        "midi": 52,
        "time": 219.452,
        "duration": 0.205,
        "velocity": 1,
        "hand": "left"
      },
      {
        "midi": 55,
        "time": 219.658,
        "duration": 0.205,
        "velocity": 1,
        "hand": "left"
      },
      {
        "midi": 53,
        "time": 219.863,
        "duration": 0.205,
        "velocity": 1,
        "hand": "left"
      },
      {
        "midi": 74,
        "time": 219.863,
        "duration": 0.205,
        "velocity": 1,
        "hand": "right"
      },
      {
        "midi": 55,
        "time": 220.068,
        "duration": 0.205,
        "velocity": 1,
        "hand": "left"
      },
      {
        "midi": 76,
        "time": 220.068,
        "duration": 0.205,
        "velocity": 1,
        "hand": "right"
      },
      {
        "midi": 53,
        "time": 220.274,
        "duration": 0.205,
        "velocity": 1,
        "hand": "left"
      },
      {
        "midi": 77,
        "time": 220.274,
        "duration": 0.205,
        "velocity": 1,
        "hand": "right"
      },
      {
        "midi": 55,
        "time": 220.479,
        "duration": 0.205,
        "velocity": 1,
        "hand": "left"
      },
      {
        "midi": 74,
        "time": 220.479,
        "duration": 0.205,
        "velocity": 1,
        "hand": "right"
      },
      {
        "midi": 50,
        "time": 220.685,
        "duration": 0.205,
        "velocity": 1,
        "hand": "left"
      },
      {
        "midi": 83,
        "time": 220.685,
        "duration": 0.822,
        "velocity": 1,
        "hand": "right"
      },
      {
        "midi": 55,
        "time": 220.89,
        "duration": 0.205,
        "velocity": 1,
        "hand": "left"
      },
      {
        "midi": 50,
        "time": 221.096,
        "duration": 0.205,
        "velocity": 1,
        "hand": "left"
      },
      {
        "midi": 55,
        "time": 221.301,
        "duration": 0.205,
        "velocity": 1,
        "hand": "left"
      },
      {
        "midi": 52,
        "time": 221.507,
        "duration": 0.205,
        "velocity": 1,
        "hand": "left"
      },
      {
        "midi": 84,
        "time": 221.507,
        "duration": 0.103,
        "velocity": 1,
        "hand": "right"
      },
      {
        "midi": 83,
        "time": 221.61,
        "duration": 0.308,
        "velocity": 1,
        "hand": "right"
      },
      {
        "midi": 55,
        "time": 221.712,
        "duration": 0.205,
        "velocity": 1,
        "hand": "left"
      },
      {
        "midi": 48,
        "time": 221.918,
        "duration": 0.205,
        "velocity": 1,
        "hand": "left"
      },
      {
        "midi": 81,
        "time": 221.918,
        "duration": 0.103,
        "velocity": 1,
        "hand": "right"
      },
      {
        "midi": 79,
        "time": 222.021,
        "duration": 0.308,
        "velocity": 1,
        "hand": "right"
      },
      {
        "midi": 55,
        "time": 222.123,
        "duration": 0.205,
        "velocity": 1,
        "hand": "left"
      },
      {
        "midi": 50,
        "time": 222.329,
        "duration": 0.205,
        "velocity": 1,
        "hand": "left"
      },
      {
        "midi": 76,
        "time": 222.329,
        "duration": 0.103,
        "velocity": 1,
        "hand": "right"
      },
      {
        "midi": 77,
        "time": 222.432,
        "duration": 0.308,
        "velocity": 1,
        "hand": "right"
      },
      {
        "midi": 55,
        "time": 222.534,
        "duration": 0.205,
        "velocity": 1,
        "hand": "left"
      },
      {
        "midi": 47,
        "time": 222.74,
        "duration": 0.205,
        "velocity": 1,
        "hand": "left"
      },
      {
        "midi": 55,
        "time": 222.945,
        "duration": 0.205,
        "velocity": 1,
        "hand": "left"
      },
      {
        "midi": 48,
        "time": 223.151,
        "duration": 0.205,
        "velocity": 1,
        "hand": "left"
      },
      {
        "midi": 77,
        "time": 223.151,
        "duration": 0.103,
        "velocity": 1,
        "hand": "right"
      },
      {
        "midi": 76,
        "time": 223.253,
        "duration": 0.308,
        "velocity": 1,
        "hand": "right"
      },
      {
        "midi": 55,
        "time": 223.356,
        "duration": 0.205,
        "velocity": 1,
        "hand": "left"
      },
      {
        "midi": 45,
        "time": 223.562,
        "duration": 0.205,
        "velocity": 1,
        "hand": "left"
      },
      {
        "midi": 74,
        "time": 223.562,
        "duration": 0.103,
        "velocity": 1,
        "hand": "right"
      },
      {
        "midi": 72,
        "time": 223.664,
        "duration": 0.308,
        "velocity": 1,
        "hand": "right"
      },
      {
        "midi": 54,
        "time": 223.767,
        "duration": 0.205,
        "velocity": 1,
        "hand": "left"
      },
      {
        "midi": 43,
        "time": 223.973,
        "duration": 0.205,
        "velocity": 1,
        "hand": "left"
      },
      {
        "midi": 81,
        "time": 223.973,
        "duration": 0.103,
        "velocity": 1,
        "hand": "right"
      },
      {
        "midi": 79,
        "time": 224.075,
        "duration": 0.308,
        "velocity": 1,
        "hand": "right"
      },
      {
        "midi": 55,
        "time": 224.178,
        "duration": 0.205,
        "velocity": 1,
        "hand": "left"
      },
      {
        "midi": 41,
        "time": 224.384,
        "duration": 0.205,
        "velocity": 1,
        "hand": "left"
      },
      {
        "midi": 53,
        "time": 224.589,
        "duration": 0.205,
        "velocity": 1,
        "hand": "left"
      },
      {
        "midi": 40,
        "time": 224.795,
        "duration": 0.103,
        "velocity": 1,
        "hand": "left"
      },
      {
        "midi": 67,
        "time": 224.795,
        "duration": 0.822,
        "velocity": 1,
        "hand": "right"
      },
      {
        "midi": 79,
        "time": 224.795,
        "duration": 0.822,
        "velocity": 1,
        "hand": "right"
      },
      {
        "midi": 48,
        "time": 224.897,
        "duration": 0.103,
        "velocity": 1,
        "hand": "left"
      },
      {
        "midi": 47,
        "time": 225,
        "duration": 0.103,
        "velocity": 1,
        "hand": "left"
      },
      {
        "midi": 48,
        "time": 225.103,
        "duration": 0.103,
        "velocity": 1,
        "hand": "left"
      },
      {
        "midi": 50,
        "time": 225.205,
        "duration": 0.103,
        "velocity": 1,
        "hand": "left"
      },
      {
        "midi": 48,
        "time": 225.308,
        "duration": 0.103,
        "velocity": 1,
        "hand": "left"
      },
      {
        "midi": 47,
        "time": 225.411,
        "duration": 0.103,
        "velocity": 1,
        "hand": "left"
      },
      {
        "midi": 48,
        "time": 225.514,
        "duration": 0.103,
        "velocity": 1,
        "hand": "left"
      },
      {
        "midi": 40,
        "time": 225.616,
        "duration": 0.411,
        "velocity": 1,
        "hand": "left"
      },
      {
        "midi": 77,
        "time": 225.616,
        "duration": 0.205,
        "velocity": 1,
        "hand": "right"
      },
      {
        "midi": 76,
        "time": 225.822,
        "duration": 0.205,
        "velocity": 1,
        "hand": "right"
      },
      {
        "midi": 74,
        "time": 226.027,
        "duration": 0.205,
        "velocity": 1,
        "hand": "right"
      },
      {
        "midi": 72,
        "time": 226.233,
        "duration": 0.205,
        "velocity": 1,
        "hand": "right"
      },
      {
        "midi": 41,
        "time": 226.438,
        "duration": 0.103,
        "velocity": 1,
        "hand": "left"
      },
      {
        "midi": 69,
        "time": 226.438,
        "duration": 0.822,
        "velocity": 1,
        "hand": "right"
      },
      {
        "midi": 81,
        "time": 226.438,
        "duration": 0.822,
        "velocity": 1,
        "hand": "right"
      },
      {
        "midi": 48,
        "time": 226.541,
        "duration": 0.103,
        "velocity": 1,
        "hand": "left"
      },
      {
        "midi": 47,
        "time": 226.644,
        "duration": 0.103,
        "velocity": 1,
        "hand": "left"
      },
      {
        "midi": 48,
        "time": 226.747,
        "duration": 0.103,
        "velocity": 1,
        "hand": "left"
      },
      {
        "midi": 50,
        "time": 226.849,
        "duration": 0.103,
        "velocity": 1,
        "hand": "left"
      },
      {
        "midi": 48,
        "time": 226.952,
        "duration": 0.103,
        "velocity": 1,
        "hand": "left"
      },
      {
        "midi": 47,
        "time": 227.055,
        "duration": 0.103,
        "velocity": 1,
        "hand": "left"
      },
      {
        "midi": 48,
        "time": 227.158,
        "duration": 0.103,
        "velocity": 1,
        "hand": "left"
      },
      {
        "midi": 41,
        "time": 227.26,
        "duration": 0.411,
        "velocity": 1,
        "hand": "left"
      },
      {
        "midi": 79,
        "time": 227.26,
        "duration": 0.205,
        "velocity": 1,
        "hand": "right"
      },
      {
        "midi": 77,
        "time": 227.466,
        "duration": 0.205,
        "velocity": 1,
        "hand": "right"
      },
      {
        "midi": 76,
        "time": 227.671,
        "duration": 0.205,
        "velocity": 1,
        "hand": "right"
      },
      {
        "midi": 74,
        "time": 227.877,
        "duration": 0.205,
        "velocity": 1,
        "hand": "right"
      },
      {
        "midi": 43,
        "time": 228.082,
        "duration": 0.205,
        "velocity": 1,
        "hand": "left"
      },
      {
        "midi": 76,
        "time": 228.082,
        "duration": 0.103,
        "velocity": 1,
        "hand": "right"
      },
      {
        "midi": 77,
        "time": 228.185,
        "duration": 0.103,
        "velocity": 1,
        "hand": "right"
      },
      {
        "midi": 48,
        "time": 228.288,
        "duration": 0.205,
        "velocity": 1,
        "hand": "left"
      },
      {
        "midi": 79,
        "time": 228.288,
        "duration": 0.103,
        "velocity": 1,
        "hand": "right"
      },
      {
        "midi": 76,
        "time": 228.39,
        "duration": 0.103,
        "velocity": 1,
        "hand": "right"
      },
      {
        "midi": 52,
        "time": 228.493,
        "duration": 0.205,
        "velocity": 1,
        "hand": "left"
      },
      {
        "midi": 72,
        "time": 228.493,
        "duration": 0.205,
        "velocity": 1,
        "hand": "right"
      },
      {
        "midi": 48,
        "time": 228.699,
        "duration": 0.205,
        "velocity": 1,
        "hand": "left"
      },
      {
        "midi": 43,
        "time": 228.904,
        "duration": 0.205,
        "velocity": 1,
        "hand": "left"
      },
      {
        "midi": 74,
        "time": 228.904,
        "duration": 0.103,
        "velocity": 1,
        "hand": "right"
      },
      {
        "midi": 76,
        "time": 229.007,
        "duration": 0.103,
        "velocity": 1,
        "hand": "right"
      },
      {
        "midi": 50,
        "time": 229.11,
        "duration": 0.205,
        "velocity": 1,
        "hand": "left"
      },
      {
        "midi": 77,
        "time": 229.11,
        "duration": 0.103,
        "velocity": 1,
        "hand": "right"
      },
      {
        "midi": 74,
        "time": 229.212,
        "duration": 0.103,
        "velocity": 1,
        "hand": "right"
      },
      {
        "midi": 53,
        "time": 229.315,
        "duration": 0.205,
        "velocity": 1,
        "hand": "left"
      },
      {
        "midi": 71,
        "time": 229.315,
        "duration": 0.205,
        "velocity": 1,
        "hand": "right"
      },
      {
        "midi": 50,
        "time": 229.521,
        "duration": 0.205,
        "velocity": 1,
        "hand": "left"
      },
      {
        "midi": 52,
        "time": 229.726,
        "duration": 0.103,
        "velocity": 1,
        "hand": "left"
      },
      {
        "midi": 67,
        "time": 229.726,
        "duration": 0.822,
        "velocity": 1,
        "hand": "right"
      },
      {
        "midi": 79,
        "time": 229.726,
        "duration": 0.822,
        "velocity": 1,
        "hand": "right"
      },
      {
        "midi": 60,
        "time": 229.829,
        "duration": 0.103,
        "velocity": 1,
        "hand": "right"
      },
      {
        "midi": 59,
        "time": 229.932,
        "duration": 0.103,
        "velocity": 1,
        "hand": "left"
      },
      {
        "midi": 60,
        "time": 230.034,
        "duration": 0.103,
        "velocity": 1,
        "hand": "right"
      },
      {
        "midi": 62,
        "time": 230.137,
        "duration": 0.103,
        "velocity": 1,
        "hand": "right"
      },
      {
        "midi": 60,
        "time": 230.24,
        "duration": 0.103,
        "velocity": 1,
        "hand": "right"
      },
      {
        "midi": 59,
        "time": 230.342,
        "duration": 0.103,
        "velocity": 1,
        "hand": "left"
      },
      {
        "midi": 60,
        "time": 230.445,
        "duration": 0.103,
        "velocity": 1,
        "hand": "right"
      },
      {
        "midi": 52,
        "time": 230.548,
        "duration": 0.411,
        "velocity": 1,
        "hand": "left"
      },
      {
        "midi": 77,
        "time": 230.548,
        "duration": 0.103,
        "velocity": 1,
        "hand": "right"
      },
      {
        "midi": 79,
        "time": 230.651,
        "duration": 0.103,
        "velocity": 1,
        "hand": "right"
      },
      {
        "midi": 77,
        "time": 230.753,
        "duration": 0.103,
        "velocity": 1,
        "hand": "right"
      },
      {
        "midi": 76,
        "time": 230.856,
        "duration": 0.103,
        "velocity": 1,
        "hand": "right"
      },
      {
        "midi": 74,
        "time": 230.959,
        "duration": 0.103,
        "velocity": 1,
        "hand": "right"
      },
      {
        "midi": 76,
        "time": 231.062,
        "duration": 0.103,
        "velocity": 1,
        "hand": "right"
      },
      {
        "midi": 74,
        "time": 231.164,
        "duration": 0.103,
        "velocity": 1,
        "hand": "right"
      },
      {
        "midi": 72,
        "time": 231.267,
        "duration": 0.103,
        "velocity": 1,
        "hand": "right"
      },
      {
        "midi": 57,
        "time": 231.37,
        "duration": 0.103,
        "velocity": 1,
        "hand": "left"
      },
      {
        "midi": 72,
        "time": 231.37,
        "duration": 0.822,
        "velocity": 1,
        "hand": "right"
      },
      {
        "midi": 84,
        "time": 231.37,
        "duration": 0.822,
        "velocity": 1,
        "hand": "right"
      },
      {
        "midi": 65,
        "time": 231.473,
        "duration": 0.103,
        "velocity": 1,
        "hand": "right"
      },
      {
        "midi": 64,
        "time": 231.575,
        "duration": 0.103,
        "velocity": 1,
        "hand": "right"
      },
      {
        "midi": 65,
        "time": 231.678,
        "duration": 0.103,
        "velocity": 1,
        "hand": "right"
      },
      {
        "midi": 67,
        "time": 231.781,
        "duration": 0.103,
        "velocity": 1,
        "hand": "right"
      },
      {
        "midi": 65,
        "time": 231.884,
        "duration": 0.103,
        "velocity": 1,
        "hand": "right"
      },
      {
        "midi": 64,
        "time": 231.986,
        "duration": 0.103,
        "velocity": 1,
        "hand": "right"
      },
      {
        "midi": 65,
        "time": 232.089,
        "duration": 0.103,
        "velocity": 1,
        "hand": "right"
      },
      {
        "midi": 57,
        "time": 232.192,
        "duration": 0.411,
        "velocity": 1,
        "hand": "left"
      },
      {
        "midi": 83,
        "time": 232.192,
        "duration": 0.103,
        "velocity": 1,
        "hand": "right"
      },
      {
        "midi": 84,
        "time": 232.295,
        "duration": 0.103,
        "velocity": 1,
        "hand": "right"
      },
      {
        "midi": 83,
        "time": 232.397,
        "duration": 0.103,
        "velocity": 1,
        "hand": "right"
      },
      {
        "midi": 81,
        "time": 232.5,
        "duration": 0.103,
        "velocity": 1,
        "hand": "right"
      },
      {
        "midi": 79,
        "time": 232.603,
        "duration": 0.103,
        "velocity": 1,
        "hand": "right"
      },
      {
        "midi": 81,
        "time": 232.705,
        "duration": 0.103,
        "velocity": 1,
        "hand": "right"
      },
      {
        "midi": 79,
        "time": 232.808,
        "duration": 0.103,
        "velocity": 1,
        "hand": "right"
      },
      {
        "midi": 77,
        "time": 232.911,
        "duration": 0.103,
        "velocity": 1,
        "hand": "right"
      },
      {
        "midi": 55,
        "time": 233.014,
        "duration": 0.205,
        "velocity": 1,
        "hand": "left"
      },
      {
        "midi": 76,
        "time": 233.014,
        "duration": 0.205,
        "velocity": 1,
        "hand": "right"
      },
      {
        "midi": 60,
        "time": 233.219,
        "duration": 0.205,
        "velocity": 1,
        "hand": "right"
      },
      {
        "midi": 72,
        "time": 233.219,
        "duration": 0.205,
        "velocity": 1,
        "hand": "right"
      },
      {
        "midi": 57,
        "time": 233.425,
        "duration": 0.205,
        "velocity": 1,
        "hand": "left"
      },
      {
        "midi": 77,
        "time": 233.425,
        "duration": 0.411,
        "velocity": 1,
        "hand": "right"
      },
      {
        "midi": 60,
        "time": 233.63,
        "duration": 0.205,
        "velocity": 1,
        "hand": "right"
      },
      {
        "midi": 55,
        "time": 233.836,
        "duration": 0.205,
        "velocity": 1,
        "hand": "left"
      },
      {
        "midi": 76,
        "time": 233.836,
        "duration": 0.205,
        "velocity": 1,
        "hand": "right"
      },
      {
        "midi": 60,
        "time": 234.041,
        "duration": 0.205,
        "velocity": 1,
        "hand": "right"
      },
      {
        "midi": 72,
        "time": 234.041,
        "duration": 0.205,
        "velocity": 1,
        "hand": "right"
      },
      {
        "midi": 53,
        "time": 234.247,
        "duration": 0.205,
        "velocity": 1,
        "hand": "left"
      },
      {
        "midi": 81,
        "time": 234.247,
        "duration": 0.411,
        "velocity": 1,
        "hand": "right"
      },
      {
        "midi": 60,
        "time": 234.452,
        "duration": 0.205,
        "velocity": 1,
        "hand": "right"
      },
      {
        "midi": 52,
        "time": 234.658,
        "duration": 0.205,
        "velocity": 1,
        "hand": "left"
      },
      {
        "midi": 79,
        "time": 234.658,
        "duration": 0.205,
        "velocity": 1,
        "hand": "right"
      },
      {
        "midi": 60,
        "time": 234.863,
        "duration": 0.205,
        "velocity": 1,
        "hand": "right"
      },
      {
        "midi": 72,
        "time": 234.863,
        "duration": 0.205,
        "velocity": 1,
        "hand": "right"
      },
      {
        "midi": 57,
        "time": 235.068,
        "duration": 0.205,
        "velocity": 1,
        "hand": "left"
      },
      {
        "midi": 77,
        "time": 235.068,
        "duration": 0.411,
        "velocity": 1,
        "hand": "right"
      },
      {
        "midi": 60,
        "time": 235.274,
        "duration": 0.205,
        "velocity": 1,
        "hand": "right"
      },
      {
        "midi": 55,
        "time": 235.479,
        "duration": 0.205,
        "velocity": 1,
        "hand": "left"
      },
      {
        "midi": 76,
        "time": 235.479,
        "duration": 0.205,
        "velocity": 1,
        "hand": "right"
      },
      {
        "midi": 60,
        "time": 235.685,
        "duration": 0.205,
        "velocity": 1,
        "hand": "right"
      },
      {
        "midi": 72,
        "time": 235.685,
        "duration": 0.205,
        "velocity": 1,
        "hand": "right"
      },
      {
        "midi": 53,
        "time": 235.89,
        "duration": 0.205,
        "velocity": 1,
        "hand": "left"
      },
      {
        "midi": 81,
        "time": 235.89,
        "duration": 0.411,
        "velocity": 1,
        "hand": "right"
      },
      {
        "midi": 60,
        "time": 236.096,
        "duration": 0.205,
        "velocity": 1,
        "hand": "right"
      },
      {
        "midi": 52,
        "time": 236.301,
        "duration": 0.205,
        "velocity": 1,
        "hand": "left"
      },
      {
        "midi": 61,
        "time": 236.301,
        "duration": 0.205,
        "velocity": 1,
        "hand": "right"
      },
      {
        "midi": 82,
        "time": 236.301,
        "duration": 0.822,
        "velocity": 1,
        "hand": "right"
      },
      {
        "midi": 52,
        "time": 236.507,
        "duration": 0.205,
        "velocity": 1,
        "hand": "left"
      },
      {
        "midi": 55,
        "time": 236.507,
        "duration": 0.205,
        "velocity": 1,
        "hand": "left"
      },
      {
        "midi": 61,
        "time": 236.507,
        "duration": 0.205,
        "velocity": 1,
        "hand": "right"
      },
      {
        "midi": 52,
        "time": 236.712,
        "duration": 0.205,
        "velocity": 1,
        "hand": "left"
      },
      {
        "midi": 55,
        "time": 236.712,
        "duration": 0.205,
        "velocity": 1,
        "hand": "left"
      },
      {
        "midi": 61,
        "time": 236.712,
        "duration": 0.205,
        "velocity": 1,
        "hand": "right"
      },
      {
        "midi": 52,
        "time": 236.918,
        "duration": 0.205,
        "velocity": 1,
        "hand": "left"
      },
      {
        "midi": 55,
        "time": 236.918,
        "duration": 0.205,
        "velocity": 1,
        "hand": "left"
      },
      {
        "midi": 61,
        "time": 236.918,
        "duration": 0.205,
        "velocity": 1,
        "hand": "right"
      },
      {
        "midi": 52,
        "time": 237.123,
        "duration": 0.205,
        "velocity": 1,
        "hand": "left"
      },
      {
        "midi": 61,
        "time": 237.123,
        "duration": 0.205,
        "velocity": 1,
        "hand": "right"
      },
      {
        "midi": 82,
        "time": 237.123,
        "duration": 0.411,
        "velocity": 1,
        "hand": "right"
      },
      {
        "midi": 52,
        "time": 237.329,
        "duration": 0.205,
        "velocity": 1,
        "hand": "left"
      },
      {
        "midi": 55,
        "time": 237.329,
        "duration": 0.205,
        "velocity": 1,
        "hand": "left"
      },
      {
        "midi": 61,
        "time": 237.329,
        "duration": 0.205,
        "velocity": 1,
        "hand": "right"
      },
      {
        "midi": 52,
        "time": 237.534,
        "duration": 0.205,
        "velocity": 1,
        "hand": "left"
      },
      {
        "midi": 61,
        "time": 237.534,
        "duration": 0.205,
        "velocity": 1,
        "hand": "right"
      },
      {
        "midi": 82,
        "time": 237.534,
        "duration": 0.411,
        "velocity": 1,
        "hand": "right"
      },
      {
        "midi": 52,
        "time": 237.74,
        "duration": 0.205,
        "velocity": 1,
        "hand": "left"
      },
      {
        "midi": 55,
        "time": 237.74,
        "duration": 0.205,
        "velocity": 1,
        "hand": "left"
      },
      {
        "midi": 61,
        "time": 237.74,
        "duration": 0.205,
        "velocity": 1,
        "hand": "right"
      },
      {
        "midi": 53,
        "time": 237.945,
        "duration": 0.411,
        "velocity": 1,
        "hand": "left"
      },
      {
        "midi": 62,
        "time": 237.945,
        "duration": 0.411,
        "velocity": 1,
        "hand": "right"
      },
      {
        "midi": 81,
        "time": 237.945,
        "duration": 0.205,
        "velocity": 1,
        "hand": "right"
      },
      {
        "midi": 79,
        "time": 238.151,
        "duration": 0.205,
        "velocity": 1,
        "hand": "right"
      },
      {
        "midi": 77,
        "time": 238.356,
        "duration": 0.205,
        "velocity": 1,
        "hand": "right"
      },
      {
        "midi": 76,
        "time": 238.562,
        "duration": 0.205,
        "velocity": 1,
        "hand": "right"
      },
      {
        "midi": 74,
        "time": 238.767,
        "duration": 0.205,
        "velocity": 1,
        "hand": "right"
      },
      {
        "midi": 72,
        "time": 238.973,
        "duration": 0.205,
        "velocity": 1,
        "hand": "right"
      },
      {
        "midi": 71,
        "time": 239.178,
        "duration": 0.205,
        "velocity": 1,
        "hand": "right"
      },
      {
        "midi": 69,
        "time": 239.384,
        "duration": 0.205,
        "velocity": 1,
        "hand": "right"
      },
      {
        "midi": 55,
        "time": 239.589,
        "duration": 0.103,
        "velocity": 1,
        "hand": "left"
      },
      {
        "midi": 67,
        "time": 239.589,
        "duration": 0.205,
        "velocity": 1,
        "hand": "right"
      },
      {
        "midi": 64,
        "time": 239.692,
        "duration": 0.103,
        "velocity": 1,
        "hand": "right"
      },
      {
        "midi": 60,
        "time": 239.795,
        "duration": 0.103,
        "velocity": 1,
        "hand": "right"
      },
      {
        "midi": 69,
        "time": 239.795,
        "duration": 0.103,
        "velocity": 1,
        "hand": "right"
      },
      {
        "midi": 64,
        "time": 239.897,
        "duration": 0.103,
        "velocity": 1,
        "hand": "right"
      },
      {
        "midi": 71,
        "time": 239.897,
        "duration": 0.103,
        "velocity": 1,
        "hand": "right"
      },
      {
        "midi": 55,
        "time": 240,
        "duration": 0.103,
        "velocity": 1,
        "hand": "left"
      },
      {
        "midi": 72,
        "time": 240,
        "duration": 0.103,
        "velocity": 1,
        "hand": "right"
      },
      {
        "midi": 64,
        "time": 240.103,
        "duration": 0.103,
        "velocity": 1,
        "hand": "right"
      },
      {
        "midi": 74,
        "time": 240.103,
        "duration": 0.103,
        "velocity": 1,
        "hand": "right"
      },
      {
        "midi": 60,
        "time": 240.205,
        "duration": 0.103,
        "velocity": 1,
        "hand": "right"
      },
      {
        "midi": 76,
        "time": 240.205,
        "duration": 0.103,
        "velocity": 1,
        "hand": "right"
      },
      {
        "midi": 64,
        "time": 240.308,
        "duration": 0.103,
        "velocity": 1,
        "hand": "right"
      },
      {
        "midi": 77,
        "time": 240.308,
        "duration": 0.103,
        "velocity": 1,
        "hand": "right"
      },
      {
        "midi": 55,
        "time": 240.411,
        "duration": 0.103,
        "velocity": 1,
        "hand": "left"
      },
      {
        "midi": 78,
        "time": 240.411,
        "duration": 0.103,
        "velocity": 1,
        "hand": "right"
      },
      {
        "midi": 64,
        "time": 240.514,
        "duration": 0.103,
        "velocity": 1,
        "hand": "right"
      },
      {
        "midi": 79,
        "time": 240.514,
        "duration": 0.103,
        "velocity": 1,
        "hand": "right"
      },
      {
        "midi": 60,
        "time": 240.616,
        "duration": 0.103,
        "velocity": 1,
        "hand": "right"
      },
      {
        "midi": 81,
        "time": 240.616,
        "duration": 0.103,
        "velocity": 1,
        "hand": "right"
      },
      {
        "midi": 64,
        "time": 240.719,
        "duration": 0.103,
        "velocity": 1,
        "hand": "right"
      },
      {
        "midi": 79,
        "time": 240.719,
        "duration": 0.103,
        "velocity": 1,
        "hand": "right"
      },
      {
        "midi": 55,
        "time": 240.822,
        "duration": 0.103,
        "velocity": 1,
        "hand": "left"
      },
      {
        "midi": 77,
        "time": 240.822,
        "duration": 0.103,
        "velocity": 1,
        "hand": "right"
      },
      {
        "midi": 64,
        "time": 240.925,
        "duration": 0.103,
        "velocity": 1,
        "hand": "right"
      },
      {
        "midi": 76,
        "time": 240.925,
        "duration": 0.103,
        "velocity": 1,
        "hand": "right"
      },
      {
        "midi": 60,
        "time": 241.027,
        "duration": 0.103,
        "velocity": 1,
        "hand": "right"
      },
      {
        "midi": 74,
        "time": 241.027,
        "duration": 0.103,
        "velocity": 1,
        "hand": "right"
      },
      {
        "midi": 64,
        "time": 241.13,
        "duration": 0.103,
        "velocity": 1,
        "hand": "right"
      },
      {
        "midi": 72,
        "time": 241.13,
        "duration": 0.103,
        "velocity": 1,
        "hand": "right"
      },
      {
        "midi": 55,
        "time": 241.233,
        "duration": 0.103,
        "velocity": 1,
        "hand": "left"
      },
      {
        "midi": 74,
        "time": 241.233,
        "duration": 1.644,
        "velocity": 1,
        "hand": "right"
      },
      {
        "midi": 65,
        "time": 241.336,
        "duration": 0.103,
        "velocity": 1,
        "hand": "right"
      },
      {
        "midi": 59,
        "time": 241.438,
        "duration": 0.103,
        "velocity": 1,
        "hand": "left"
      },
      {
        "midi": 65,
        "time": 241.541,
        "duration": 0.103,
        "velocity": 1,
        "hand": "right"
      },
      {
        "midi": 55,
        "time": 241.644,
        "duration": 0.103,
        "velocity": 1,
        "hand": "left"
      },
      {
        "midi": 65,
        "time": 241.747,
        "duration": 0.103,
        "velocity": 1,
        "hand": "right"
      },
      {
        "midi": 59,
        "time": 241.849,
        "duration": 0.103,
        "velocity": 1,
        "hand": "left"
      },
      {
        "midi": 65,
        "time": 241.952,
        "duration": 0.103,
        "velocity": 1,
        "hand": "right"
      },
      {
        "midi": 55,
        "time": 242.055,
        "duration": 0.103,
        "velocity": 1,
        "hand": "left"
      },
      {
        "midi": 65,
        "time": 242.158,
        "duration": 0.103,
        "velocity": 1,
        "hand": "right"
      },
      {
        "midi": 59,
        "time": 242.26,
        "duration": 0.103,
        "velocity": 1,
        "hand": "left"
      },
      {
        "midi": 65,
        "time": 242.363,
        "duration": 0.103,
        "velocity": 1,
        "hand": "right"
      },
      {
        "midi": 55,
        "time": 242.466,
        "duration": 0.103,
        "velocity": 1,
        "hand": "left"
      },
      {
        "midi": 65,
        "time": 242.568,
        "duration": 0.103,
        "velocity": 1,
        "hand": "right"
      },
      {
        "midi": 59,
        "time": 242.671,
        "duration": 0.103,
        "velocity": 1,
        "hand": "left"
      },
      {
        "midi": 65,
        "time": 242.774,
        "duration": 0.103,
        "velocity": 1,
        "hand": "right"
      },
      {
        "midi": 60,
        "time": 242.877,
        "duration": 0.411,
        "velocity": 1,
        "hand": "right"
      },
      {
        "midi": 64,
        "time": 242.877,
        "duration": 0.411,
        "velocity": 1,
        "hand": "right"
      },
      {
        "midi": 72,
        "time": 242.877,
        "duration": 0.411,
        "velocity": 1,
        "hand": "right"
      },
      {
        "midi": 72,
        "time": 243.288,
        "duration": 0.411,
        "velocity": 1,
        "hand": "right"
      },
      {
        "midi": 76,
        "time": 243.493,
        "duration": 0.205,
        "velocity": 1,
        "hand": "right"
      },
      {
        "midi": 74,
        "time": 243.699,
        "duration": 0.411,
        "velocity": 1,
        "hand": "right"
      },
      {
        "midi": 79,
        "time": 243.699,
        "duration": 0.205,
        "velocity": 1,
        "hand": "right"
      },
      {
        "midi": 77,
        "time": 243.904,
        "duration": 0.205,
        "velocity": 1,
        "hand": "right"
      },
      {
        "midi": 71,
        "time": 244.11,
        "duration": 0.411,
        "velocity": 1,
        "hand": "right"
      },
      {
        "midi": 74,
        "time": 244.315,
        "duration": 0.205,
        "velocity": 1,
        "hand": "right"
      },
      {
        "midi": 72,
        "time": 244.521,
        "duration": 0.411,
        "velocity": 1,
        "hand": "right"
      },
      {
        "midi": 77,
        "time": 244.521,
        "duration": 0.205,
        "velocity": 1,
        "hand": "right"
      },
      {
        "midi": 76,
        "time": 244.726,
        "duration": 0.205,
        "velocity": 1,
        "hand": "right"
      },
      {
        "midi": 69,
        "time": 244.932,
        "duration": 0.411,
        "velocity": 1,
        "hand": "right"
      },
      {
        "midi": 72,
        "time": 245.137,
        "duration": 0.205,
        "velocity": 1,
        "hand": "right"
      },
      {
        "midi": 65,
        "time": 245.342,
        "duration": 0.411,
        "velocity": 1,
        "hand": "right"
      },
      {
        "midi": 76,
        "time": 245.342,
        "duration": 0.205,
        "velocity": 1,
        "hand": "right"
      },
      {
        "midi": 74,
        "time": 245.548,
        "duration": 0.205,
        "velocity": 1,
        "hand": "right"
      },
      {
        "midi": 67,
        "time": 245.753,
        "duration": 0.411,
        "velocity": 1,
        "hand": "right"
      },
      {
        "midi": 71,
        "time": 245.959,
        "duration": 0.205,
        "velocity": 1,
        "hand": "right"
      },
      {
        "midi": 64,
        "time": 246.164,
        "duration": 0.411,
        "velocity": 1,
        "hand": "right"
      },
      {
        "midi": 74,
        "time": 246.164,
        "duration": 0.205,
        "velocity": 1,
        "hand": "right"
      },
      {
        "midi": 72,
        "time": 246.37,
        "duration": 0.205,
        "velocity": 1,
        "hand": "right"
      },
      {
        "midi": 49,
        "time": 246.575,
        "duration": 0.411,
        "velocity": 1,
        "hand": "left"
      },
      {
        "midi": 61,
        "time": 246.575,
        "duration": 0.411,
        "velocity": 1,
        "hand": "right"
      },
      {
        "midi": 76,
        "time": 246.575,
        "duration": 0.103,
        "velocity": 1,
        "hand": "right"
      },
      {
        "midi": 77,
        "time": 246.678,
        "duration": 0.103,
        "velocity": 1,
        "hand": "right"
      },
      {
        "midi": 79,
        "time": 246.781,
        "duration": 0.103,
        "velocity": 1,
        "hand": "right"
      },
      {
        "midi": 76,
        "time": 246.884,
        "duration": 0.103,
        "velocity": 1,
        "hand": "right"
      },
      {
        "midi": 50,
        "time": 246.986,
        "duration": 0.411,
        "velocity": 1,
        "hand": "left"
      },
      {
        "midi": 62,
        "time": 246.986,
        "duration": 0.411,
        "velocity": 1,
        "hand": "right"
      },
      {
        "midi": 77,
        "time": 246.986,
        "duration": 0.103,
        "velocity": 1,
        "hand": "right"
      },
      {
        "midi": 79,
        "time": 247.089,
        "duration": 0.103,
        "velocity": 1,
        "hand": "right"
      },
      {
        "midi": 81,
        "time": 247.192,
        "duration": 0.103,
        "velocity": 1,
        "hand": "right"
      },
      {
        "midi": 77,
        "time": 247.295,
        "duration": 0.103,
        "velocity": 1,
        "hand": "right"
      },
      {
        "midi": 47,
        "time": 247.397,
        "duration": 0.411,
        "velocity": 1,
        "hand": "left"
      },
      {
        "midi": 59,
        "time": 247.397,
        "duration": 0.411,
        "velocity": 1,
        "hand": "left"
      },
      {
        "midi": 74,
        "time": 247.397,
        "duration": 0.103,
        "velocity": 1,
        "hand": "right"
      },
      {
        "midi": 76,
        "time": 247.5,
        "duration": 0.103,
        "velocity": 1,
        "hand": "right"
      },
      {
        "midi": 77,
        "time": 247.603,
        "duration": 0.103,
        "velocity": 1,
        "hand": "right"
      },
      {
        "midi": 74,
        "time": 247.705,
        "duration": 0.103,
        "velocity": 1,
        "hand": "right"
      },
      {
        "midi": 48,
        "time": 247.808,
        "duration": 0.411,
        "velocity": 1,
        "hand": "left"
      },
      {
        "midi": 60,
        "time": 247.808,
        "duration": 0.411,
        "velocity": 1,
        "hand": "right"
      },
      {
        "midi": 76,
        "time": 247.808,
        "duration": 0.103,
        "velocity": 1,
        "hand": "right"
      },
      {
        "midi": 77,
        "time": 247.911,
        "duration": 0.103,
        "velocity": 1,
        "hand": "right"
      },
      {
        "midi": 79,
        "time": 248.014,
        "duration": 0.103,
        "velocity": 1,
        "hand": "right"
      },
      {
        "midi": 76,
        "time": 248.116,
        "duration": 0.103,
        "velocity": 1,
        "hand": "right"
      },
      {
        "midi": 45,
        "time": 248.219,
        "duration": 0.411,
        "velocity": 1,
        "hand": "left"
      },
      {
        "midi": 57,
        "time": 248.219,
        "duration": 0.411,
        "velocity": 1,
        "hand": "left"
      },
      {
        "midi": 72,
        "time": 248.219,
        "duration": 0.103,
        "velocity": 1,
        "hand": "right"
      },
      {
        "midi": 74,
        "time": 248.322,
        "duration": 0.103,
        "velocity": 1,
        "hand": "right"
      },
      {
        "midi": 76,
        "time": 248.425,
        "duration": 0.103,
        "velocity": 1,
        "hand": "right"
      },
      {
        "midi": 72,
        "time": 248.527,
        "duration": 0.103,
        "velocity": 1,
        "hand": "right"
      },
      {
        "midi": 41,
        "time": 248.63,
        "duration": 0.411,
        "velocity": 1,
        "hand": "left"
      },
      {
        "midi": 53,
        "time": 248.63,
        "duration": 0.411,
        "velocity": 1,
        "hand": "left"
      },
      {
        "midi": 74,
        "time": 248.63,
        "duration": 0.103,
        "velocity": 1,
        "hand": "right"
      },
      {
        "midi": 76,
        "time": 248.733,
        "duration": 0.103,
        "velocity": 1,
        "hand": "right"
      },
      {
        "midi": 77,
        "time": 248.836,
        "duration": 0.103,
        "velocity": 1,
        "hand": "right"
      },
      {
        "midi": 74,
        "time": 248.938,
        "duration": 0.103,
        "velocity": 1,
        "hand": "right"
      },
      {
        "midi": 43,
        "time": 249.041,
        "duration": 0.411,
        "velocity": 1,
        "hand": "left"
      },
      {
        "midi": 55,
        "time": 249.041,
        "duration": 0.411,
        "velocity": 1,
        "hand": "left"
      },
      {
        "midi": 71,
        "time": 249.041,
        "duration": 0.103,
        "velocity": 1,
        "hand": "right"
      },
      {
        "midi": 72,
        "time": 249.144,
        "duration": 0.103,
        "velocity": 1,
        "hand": "right"
      },
      {
        "midi": 74,
        "time": 249.247,
        "duration": 0.103,
        "velocity": 1,
        "hand": "right"
      },
      {
        "midi": 71,
        "time": 249.349,
        "duration": 0.103,
        "velocity": 1,
        "hand": "right"
      },
      {
        "midi": 36,
        "time": 249.555,
        "duration": 0.822,
        "velocity": 1,
        "hand": "left"
      },
      {
        "midi": 48,
        "time": 249.555,
        "duration": 0.822,
        "velocity": 1,
        "hand": "left"
      },
      {
        "midi": 72,
        "time": 249.555,
        "duration": 0.822,
        "velocity": 1,
        "hand": "right"
      },
      {
        "midi": 43,
        "time": 250.377,
        "duration": 0.822,
        "velocity": 1,
        "hand": "left"
      },
      {
        "midi": 67,
        "time": 250.377,
        "duration": 0.822,
        "velocity": 1,
        "hand": "right"
      },
      {
        "midi": 52,
        "time": 251.199,
        "duration": 0.616,
        "velocity": 1,
        "hand": "left"
      },
      {
        "midi": 76,
        "time": 251.199,
        "duration": 0.616,
        "velocity": 1,
        "hand": "right"
      },
      {
        "midi": 53,
        "time": 251.815,
        "duration": 0.103,
        "velocity": 1,
        "hand": "left"
      },
      {
        "midi": 77,
        "time": 251.815,
        "duration": 0.103,
        "velocity": 1,
        "hand": "right"
      },
      {
        "midi": 50,
        "time": 251.918,
        "duration": 0.103,
        "velocity": 1,
        "hand": "left"
      },
      {
        "midi": 74,
        "time": 251.918,
        "duration": 0.103,
        "velocity": 1,
        "hand": "right"
      },
      {
        "midi": 48,
        "time": 252.021,
        "duration": 0.411,
        "velocity": 1,
        "hand": "left"
      },
      {
        "midi": 72,
        "time": 252.021,
        "duration": 0.411,
        "velocity": 1,
        "hand": "right"
      },
      {
        "midi": 43,
        "time": 252.432,
        "duration": 0.411,
        "velocity": 1,
        "hand": "left"
      },
      {
        "midi": 55,
        "time": 252.432,
        "duration": 0.411,
        "velocity": 1,
        "hand": "left"
      },
      {
        "midi": 74,
        "time": 252.432,
        "duration": 0.103,
        "velocity": 1,
        "hand": "right"
      },
      {
        "midi": 77,
        "time": 252.534,
        "duration": 0.103,
        "velocity": 1,
        "hand": "right"
      },
      {
        "midi": 79,
        "time": 252.637,
        "duration": 0.103,
        "velocity": 1,
        "hand": "right"
      },
      {
        "midi": 83,
        "time": 252.74,
        "duration": 0.103,
        "velocity": 1,
        "hand": "right"
      },
      {
        "midi": 48,
        "time": 252.842,
        "duration": 0.411,
        "velocity": 1,
        "hand": "left"
      },
      {
        "midi": 60,
        "time": 252.842,
        "duration": 0.411,
        "velocity": 1,
        "hand": "right"
      },
      {
        "midi": 72,
        "time": 252.842,
        "duration": 0.103,
        "velocity": 1,
        "hand": "right"
      },
      {
        "midi": 76,
        "time": 252.945,
        "duration": 0.103,
        "velocity": 1,
        "hand": "right"
      },
      {
        "midi": 79,
        "time": 253.048,
        "duration": 0.103,
        "velocity": 1,
        "hand": "right"
      },
      {
        "midi": 84,
        "time": 253.151,
        "duration": 0.103,
        "velocity": 1,
        "hand": "right"
      },
      {
        "midi": 43,
        "time": 253.253,
        "duration": 0.411,
        "velocity": 1,
        "hand": "left"
      },
      {
        "midi": 55,
        "time": 253.253,
        "duration": 0.411,
        "velocity": 1,
        "hand": "left"
      },
      {
        "midi": 74,
        "time": 253.253,
        "duration": 0.103,
        "velocity": 1,
        "hand": "right"
      },
      {
        "midi": 77,
        "time": 253.356,
        "duration": 0.103,
        "velocity": 1,
        "hand": "right"
      },
      {
        "midi": 79,
        "time": 253.459,
        "duration": 0.103,
        "velocity": 1,
        "hand": "right"
      },
      {
        "midi": 83,
        "time": 253.562,
        "duration": 0.103,
        "velocity": 1,
        "hand": "right"
      },
      {
        "midi": 48,
        "time": 253.664,
        "duration": 0.411,
        "velocity": 1,
        "hand": "left"
      },
      {
        "midi": 60,
        "time": 253.664,
        "duration": 0.411,
        "velocity": 1,
        "hand": "right"
      },
      {
        "midi": 72,
        "time": 253.664,
        "duration": 0.103,
        "velocity": 1,
        "hand": "right"
      },
      {
        "midi": 76,
        "time": 253.767,
        "duration": 0.103,
        "velocity": 1,
        "hand": "right"
      },
      {
        "midi": 79,
        "time": 253.87,
        "duration": 0.103,
        "velocity": 1,
        "hand": "right"
      },
      {
        "midi": 84,
        "time": 253.973,
        "duration": 0.103,
        "velocity": 1,
        "hand": "right"
      },
      {
        "midi": 43,
        "time": 254.075,
        "duration": 0.411,
        "velocity": 1,
        "hand": "left"
      },
      {
        "midi": 55,
        "time": 254.075,
        "duration": 0.411,
        "velocity": 1,
        "hand": "left"
      },
      {
        "midi": 74,
        "time": 254.075,
        "duration": 0.103,
        "velocity": 1,
        "hand": "right"
      },
      {
        "midi": 77,
        "time": 254.178,
        "duration": 0.103,
        "velocity": 1,
        "hand": "right"
      },
      {
        "midi": 79,
        "time": 254.281,
        "duration": 0.103,
        "velocity": 1,
        "hand": "right"
      },
      {
        "midi": 83,
        "time": 254.384,
        "duration": 0.103,
        "velocity": 1,
        "hand": "right"
      },
      {
        "midi": 48,
        "time": 254.486,
        "duration": 0.411,
        "velocity": 1,
        "hand": "left"
      },
      {
        "midi": 76,
        "time": 254.486,
        "duration": 0.411,
        "velocity": 1,
        "hand": "right"
      },
      {
        "midi": 84,
        "time": 254.486,
        "duration": 0.411,
        "velocity": 1,
        "hand": "right"
      },
      {
        "midi": 36,
        "time": 254.897,
        "duration": 0.411,
        "velocity": 1,
        "hand": "left"
      },
      {
        "midi": 64,
        "time": 254.897,
        "duration": 0.411,
        "velocity": 1,
        "hand": "right"
      },
      {
        "midi": 72,
        "time": 254.897,
        "duration": 0.411,
        "velocity": 1,
        "hand": "right"
      },
      {
        "midi": 36,
        "time": 255.308,
        "duration": 0.411,
        "velocity": 1,
        "hand": "left"
      },
      {
        "midi": 64,
        "time": 255.308,
        "duration": 0.411,
        "velocity": 1,
        "hand": "right"
      },
      {
        "midi": 72,
        "time": 255.308,
        "duration": 0.411,
        "velocity": 1,
        "hand": "right"
      }
    ],
    "hard": [
      {
        "midi": 60,
        "time": 0,
        "duration": 0.051,
        "velocity": 1,
        "hand": "right"
      },
      {
        "midi": 64,
        "time": 0,
        "duration": 0.051,
        "velocity": 1,
        "hand": "right"
      },
      {
        "midi": 36,
        "time": 0.103,
        "duration": 0.822,
        "velocity": 1,
        "hand": "left"
      },
      {
        "midi": 48,
        "time": 0.103,
        "duration": 0.822,
        "velocity": 1,
        "hand": "left"
      },
      {
        "midi": 67,
        "time": 0.103,
        "duration": 0.051,
        "velocity": 1,
        "hand": "right"
      },
      {
        "midi": 72,
        "time": 0.103,
        "duration": 0.822,
        "velocity": 1,
        "hand": "right"
      },
      {
        "midi": 31,
        "time": 0.925,
        "duration": 0.822,
        "velocity": 1,
        "hand": "left"
      },
      {
        "midi": 43,
        "time": 0.925,
        "duration": 0.822,
        "velocity": 1,
        "hand": "left"
      },
      {
        "midi": 67,
        "time": 0.925,
        "duration": 0.822,
        "velocity": 1,
        "hand": "right"
      },
      {
        "midi": 52,
        "time": 1.747,
        "duration": 0.616,
        "velocity": 1,
        "hand": "left"
      },
      {
        "midi": 76,
        "time": 1.747,
        "duration": 0.616,
        "velocity": 1,
        "hand": "right"
      },
      {
        "midi": 53,
        "time": 2.363,
        "duration": 0.103,
        "velocity": 1,
        "hand": "left"
      },
      {
        "midi": 77,
        "time": 2.363,
        "duration": 0.103,
        "velocity": 1,
        "hand": "right"
      },
      {
        "midi": 50,
        "time": 2.466,
        "duration": 0.103,
        "velocity": 1,
        "hand": "left"
      },
      {
        "midi": 74,
        "time": 2.466,
        "duration": 0.103,
        "velocity": 1,
        "hand": "right"
      },
      {
        "midi": 48,
        "time": 2.568,
        "duration": 0.411,
        "velocity": 1,
        "hand": "left"
      },
      {
        "midi": 72,
        "time": 2.568,
        "duration": 0.411,
        "velocity": 1,
        "hand": "right"
      },
      {
        "midi": 64,
        "time": 3.39,
        "duration": 0.205,
        "velocity": 1,
        "hand": "right"
      },
      {
        "midi": 79,
        "time": 3.39,
        "duration": 0.411,
        "velocity": 1,
        "hand": "right"
      },
      {
        "midi": 67,
        "time": 3.596,
        "duration": 0.205,
        "velocity": 1,
        "hand": "right"
      },
      {
        "midi": 64,
        "time": 3.801,
        "duration": 0.205,
        "velocity": 1,
        "hand": "right"
      },
      {
        "midi": 79,
        "time": 3.801,
        "duration": 0.411,
        "velocity": 1,
        "hand": "right"
      },
      {
        "midi": 67,
        "time": 4.007,
        "duration": 0.205,
        "velocity": 1,
        "hand": "right"
      },
      {
        "midi": 61,
        "time": 4.212,
        "duration": 0.205,
        "velocity": 1,
        "hand": "right"
      },
      {
        "midi": 67,
        "time": 4.418,
        "duration": 0.205,
        "velocity": 1,
        "hand": "right"
      },
      {
        "midi": 61,
        "time": 4.623,
        "duration": 0.205,
        "velocity": 1,
        "hand": "right"
      },
      {
        "midi": 81,
        "time": 4.623,
        "duration": 0.411,
        "velocity": 1,
        "hand": "right"
      },
      {
        "midi": 67,
        "time": 4.829,
        "duration": 0.205,
        "velocity": 1,
        "hand": "right"
      },
      {
        "midi": 62,
        "time": 5.034,
        "duration": 0.205,
        "velocity": 1,
        "hand": "right"
      },
      {
        "midi": 79,
        "time": 5.034,
        "duration": 0.103,
        "velocity": 1,
        "hand": "right"
      },
      {
        "midi": 77,
        "time": 5.137,
        "duration": 0.308,
        "velocity": 1,
        "hand": "right"
      },
      {
        "midi": 67,
        "time": 5.24,
        "duration": 0.205,
        "velocity": 1,
        "hand": "right"
      },
      {
        "midi": 62,
        "time": 5.445,
        "duration": 0.205,
        "velocity": 1,
        "hand": "right"
      },
      {
        "midi": 77,
        "time": 5.445,
        "duration": 0.411,
        "velocity": 1,
        "hand": "right"
      },
      {
        "midi": 67,
        "time": 5.651,
        "duration": 0.205,
        "velocity": 1,
        "hand": "right"
      },
      {
        "midi": 59,
        "time": 5.856,
        "duration": 0.205,
        "velocity": 1,
        "hand": "left"
      },
      {
        "midi": 67,
        "time": 6.062,
        "duration": 0.205,
        "velocity": 1,
        "hand": "right"
      },
      {
        "midi": 59,
        "time": 6.267,
        "duration": 0.205,
        "velocity": 1,
        "hand": "left"
      },
      {
        "midi": 79,
        "time": 6.267,
        "duration": 0.411,
        "velocity": 1,
        "hand": "right"
      },
      {
        "midi": 67,
        "time": 6.473,
        "duration": 0.205,
        "velocity": 1,
        "hand": "right"
      },
      {
        "midi": 60,
        "time": 6.678,
        "duration": 0.205,
        "velocity": 1,
        "hand": "right"
      },
      {
        "midi": 77,
        "time": 6.678,
        "duration": 0.103,
        "velocity": 1,
        "hand": "right"
      },
      {
        "midi": 76,
        "time": 6.781,
        "duration": 0.308,
        "velocity": 1,
        "hand": "right"
      },
      {
        "midi": 67,
        "time": 6.884,
        "duration": 0.205,
        "velocity": 1,
        "hand": "right"
      },
      {
        "midi": 60,
        "time": 7.089,
        "duration": 0.205,
        "velocity": 1,
        "hand": "right"
      },
      {
        "midi": 76,
        "time": 7.089,
        "duration": 0.411,
        "velocity": 1,
        "hand": "right"
      },
      {
        "midi": 67,
        "time": 7.295,
        "duration": 0.205,
        "velocity": 1,
        "hand": "right"
      },
      {
        "midi": 64,
        "time": 7.5,
        "duration": 0.205,
        "velocity": 1,
        "hand": "right"
      },
      {
        "midi": 67,
        "time": 7.705,
        "duration": 0.205,
        "velocity": 1,
        "hand": "right"
      },
      {
        "midi": 64,
        "time": 7.911,
        "duration": 0.205,
        "velocity": 1,
        "hand": "right"
      },
      {
        "midi": 79,
        "time": 7.911,
        "duration": 0.205,
        "velocity": 1,
        "hand": "right"
      },
      {
        "midi": 67,
        "time": 8.116,
        "duration": 0.205,
        "velocity": 1,
        "hand": "right"
      },
      {
        "midi": 76,
        "time": 8.116,
        "duration": 0.205,
        "velocity": 1,
        "hand": "right"
      },
      {
        "midi": 65,
        "time": 8.322,
        "duration": 1.644,
        "velocity": 1,
        "hand": "right"
      },
      {
        "midi": 69,
        "time": 8.322,
        "duration": 1.644,
        "velocity": 1,
        "hand": "right"
      },
      {
        "midi": 73,
        "time": 8.322,
        "duration": 0.205,
        "velocity": 1,
        "hand": "right"
      },
      {
        "midi": 74,
        "time": 8.527,
        "duration": 0.205,
        "velocity": 1,
        "hand": "right"
      },
      {
        "midi": 77,
        "time": 8.733,
        "duration": 0.205,
        "velocity": 1,
        "hand": "right"
      },
      {
        "midi": 76,
        "time": 8.938,
        "duration": 0.205,
        "velocity": 1,
        "hand": "right"
      },
      {
        "midi": 73,
        "time": 9.144,
        "duration": 0.205,
        "velocity": 1,
        "hand": "right"
      },
      {
        "midi": 74,
        "time": 9.349,
        "duration": 0.205,
        "velocity": 1,
        "hand": "right"
      },
      {
        "midi": 77,
        "time": 9.555,
        "duration": 0.205,
        "velocity": 1,
        "hand": "right"
      },
      {
        "midi": 76,
        "time": 9.76,
        "duration": 0.205,
        "velocity": 1,
        "hand": "right"
      },
      {
        "midi": 73,
        "time": 9.966,
        "duration": 0.205,
        "velocity": 1,
        "hand": "right"
      },
      {
        "midi": 74,
        "time": 10.171,
        "duration": 0.205,
        "velocity": 1,
        "hand": "right"
      },
      {
        "midi": 53,
        "time": 10.377,
        "duration": 0.411,
        "velocity": 1,
        "hand": "left"
      },
      {
        "midi": 57,
        "time": 10.377,
        "duration": 0.411,
        "velocity": 1,
        "hand": "left"
      },
      {
        "midi": 62,
        "time": 10.377,
        "duration": 0.411,
        "velocity": 1,
        "hand": "right"
      },
      {
        "midi": 77,
        "time": 10.377,
        "duration": 0.205,
        "velocity": 1,
        "hand": "right"
      },
      {
        "midi": 81,
        "time": 10.582,
        "duration": 0.205,
        "velocity": 1,
        "hand": "right"
      },
      {
        "midi": 55,
        "time": 10.788,
        "duration": 0.411,
        "velocity": 1,
        "hand": "left"
      },
      {
        "midi": 60,
        "time": 10.788,
        "duration": 0.411,
        "velocity": 1,
        "hand": "right"
      },
      {
        "midi": 64,
        "time": 10.788,
        "duration": 0.411,
        "velocity": 1,
        "hand": "right"
      },
      {
        "midi": 79,
        "time": 10.788,
        "duration": 0.205,
        "velocity": 1,
        "hand": "right"
      },
      {
        "midi": 76,
        "time": 10.993,
        "duration": 0.205,
        "velocity": 1,
        "hand": "right"
      },
      {
        "midi": 55,
        "time": 11.199,
        "duration": 0.411,
        "velocity": 1,
        "hand": "left"
      },
      {
        "midi": 59,
        "time": 11.199,
        "duration": 0.411,
        "velocity": 1,
        "hand": "left"
      },
      {
        "midi": 62,
        "time": 11.199,
        "duration": 0.411,
        "velocity": 1,
        "hand": "right"
      },
      {
        "midi": 77,
        "time": 11.199,
        "duration": 0.205,
        "velocity": 1,
        "hand": "right"
      },
      {
        "midi": 74,
        "time": 11.404,
        "duration": 0.205,
        "velocity": 1,
        "hand": "right"
      },
      {
        "midi": 60,
        "time": 11.61,
        "duration": 0.051,
        "velocity": 1,
        "hand": "right"
      },
      {
        "midi": 64,
        "time": 11.712,
        "duration": 0.051,
        "velocity": 1,
        "hand": "right"
      },
      {
        "midi": 67,
        "time": 11.712,
        "duration": 0.051,
        "velocity": 1,
        "hand": "right"
      },
      {
        "midi": 36,
        "time": 11.815,
        "duration": 0.822,
        "velocity": 1,
        "hand": "left"
      },
      {
        "midi": 48,
        "time": 11.815,
        "duration": 0.822,
        "velocity": 1,
        "hand": "left"
      },
      {
        "midi": 72,
        "time": 11.815,
        "duration": 0.822,
        "velocity": 1,
        "hand": "right"
      },
      {
        "midi": 31,
        "time": 12.637,
        "duration": 0.822,
        "velocity": 1,
        "hand": "left"
      },
      {
        "midi": 43,
        "time": 12.637,
        "duration": 0.822,
        "velocity": 1,
        "hand": "left"
      },
      {
        "midi": 67,
        "time": 12.637,
        "duration": 0.822,
        "velocity": 1,
        "hand": "right"
      },
      {
        "midi": 52,
        "time": 13.459,
        "duration": 0.616,
        "velocity": 1,
        "hand": "left"
      },
      {
        "midi": 76,
        "time": 13.459,
        "duration": 0.616,
        "velocity": 1,
        "hand": "right"
      },
      {
        "midi": 53,
        "time": 14.075,
        "duration": 0.103,
        "velocity": 1,
        "hand": "left"
      },
      {
        "midi": 77,
        "time": 14.075,
        "duration": 0.103,
        "velocity": 1,
        "hand": "right"
      },
      {
        "midi": 50,
        "time": 14.178,
        "duration": 0.103,
        "velocity": 1,
        "hand": "left"
      },
      {
        "midi": 74,
        "time": 14.178,
        "duration": 0.103,
        "velocity": 1,
        "hand": "right"
      },
      {
        "midi": 48,
        "time": 14.281,
        "duration": 0.411,
        "velocity": 1,
        "hand": "left"
      },
      {
        "midi": 72,
        "time": 14.281,
        "duration": 0.411,
        "velocity": 1,
        "hand": "right"
      },
      {
        "midi": 64,
        "time": 15.103,
        "duration": 0.205,
        "velocity": 1,
        "hand": "right"
      },
      {
        "midi": 79,
        "time": 15.103,
        "duration": 0.411,
        "velocity": 1,
        "hand": "right"
      },
      {
        "midi": 67,
        "time": 15.308,
        "duration": 0.205,
        "velocity": 1,
        "hand": "right"
      },
      {
        "midi": 64,
        "time": 15.514,
        "duration": 0.205,
        "velocity": 1,
        "hand": "right"
      },
      {
        "midi": 79,
        "time": 15.514,
        "duration": 0.411,
        "velocity": 1,
        "hand": "right"
      },
      {
        "midi": 67,
        "time": 15.719,
        "duration": 0.205,
        "velocity": 1,
        "hand": "right"
      },
      {
        "midi": 61,
        "time": 15.925,
        "duration": 0.205,
        "velocity": 1,
        "hand": "right"
      },
      {
        "midi": 67,
        "time": 16.13,
        "duration": 0.205,
        "velocity": 1,
        "hand": "right"
      },
      {
        "midi": 61,
        "time": 16.336,
        "duration": 0.205,
        "velocity": 1,
        "hand": "right"
      },
      {
        "midi": 81,
        "time": 16.336,
        "duration": 0.411,
        "velocity": 1,
        "hand": "right"
      },
      {
        "midi": 67,
        "time": 16.541,
        "duration": 0.205,
        "velocity": 1,
        "hand": "right"
      },
      {
        "midi": 62,
        "time": 16.747,
        "duration": 0.205,
        "velocity": 1,
        "hand": "right"
      },
      {
        "midi": 79,
        "time": 16.747,
        "duration": 0.103,
        "velocity": 1,
        "hand": "right"
      },
      {
        "midi": 77,
        "time": 16.849,
        "duration": 0.308,
        "velocity": 1,
        "hand": "right"
      },
      {
        "midi": 67,
        "time": 16.952,
        "duration": 0.205,
        "velocity": 1,
        "hand": "right"
      },
      {
        "midi": 62,
        "time": 17.158,
        "duration": 0.205,
        "velocity": 1,
        "hand": "right"
      },
      {
        "midi": 77,
        "time": 17.158,
        "duration": 0.411,
        "velocity": 1,
        "hand": "right"
      },
      {
        "midi": 67,
        "time": 17.363,
        "duration": 0.205,
        "velocity": 1,
        "hand": "right"
      },
      {
        "midi": 59,
        "time": 17.568,
        "duration": 0.205,
        "velocity": 1,
        "hand": "left"
      },
      {
        "midi": 67,
        "time": 17.774,
        "duration": 0.205,
        "velocity": 1,
        "hand": "right"
      },
      {
        "midi": 78,
        "time": 17.774,
        "duration": 0.205,
        "velocity": 1,
        "hand": "right"
      },
      {
        "midi": 59,
        "time": 17.979,
        "duration": 0.205,
        "velocity": 1,
        "hand": "left"
      },
      {
        "midi": 81,
        "time": 17.979,
        "duration": 0.205,
        "velocity": 1,
        "hand": "right"
      },
      {
        "midi": 67,
        "time": 18.185,
        "duration": 0.205,
        "velocity": 1,
        "hand": "right"
      },
      {
        "midi": 79,
        "time": 18.185,
        "duration": 0.205,
        "velocity": 1,
        "hand": "right"
      },
      {
        "midi": 60,
        "time": 18.39,
        "duration": 0.205,
        "velocity": 1,
        "hand": "right"
      },
      {
        "midi": 77,
        "time": 18.39,
        "duration": 0.103,
        "velocity": 1,
        "hand": "right"
      },
      {
        "midi": 76,
        "time": 18.493,
        "duration": 0.308,
        "velocity": 1,
        "hand": "right"
      },
      {
        "midi": 67,
        "time": 18.596,
        "duration": 0.205,
        "velocity": 1,
        "hand": "right"
      },
      {
        "midi": 60,
        "time": 18.801,
        "duration": 0.205,
        "velocity": 1,
        "hand": "right"
      },
      {
        "midi": 76,
        "time": 18.801,
        "duration": 0.411,
        "velocity": 1,
        "hand": "right"
      },
      {
        "midi": 67,
        "time": 19.007,
        "duration": 0.205,
        "velocity": 1,
        "hand": "right"
      },
      {
        "midi": 64,
        "time": 19.212,
        "duration": 0.205,
        "velocity": 1,
        "hand": "right"
      },
      {
        "midi": 67,
        "time": 19.418,
        "duration": 0.205,
        "velocity": 1,
        "hand": "right"
      },
      {
        "midi": 76,
        "time": 19.418,
        "duration": 0.205,
        "velocity": 1,
        "hand": "right"
      },
      {
        "midi": 64,
        "time": 19.623,
        "duration": 0.205,
        "velocity": 1,
        "hand": "right"
      },
      {
        "midi": 79,
        "time": 19.623,
        "duration": 0.205,
        "velocity": 1,
        "hand": "right"
      },
      {
        "midi": 67,
        "time": 19.829,
        "duration": 0.205,
        "velocity": 1,
        "hand": "right"
      },
      {
        "midi": 76,
        "time": 19.829,
        "duration": 0.205,
        "velocity": 1,
        "hand": "right"
      },
      {
        "midi": 67,
        "time": 20.034,
        "duration": 0.822,
        "velocity": 1,
        "hand": "right"
      },
      {
        "midi": 70,
        "time": 20.034,
        "duration": 0.822,
        "velocity": 1,
        "hand": "right"
      },
      {
        "midi": 73,
        "time": 20.034,
        "duration": 0.616,
        "velocity": 1,
        "hand": "right"
      },
      {
        "midi": 74,
        "time": 20.651,
        "duration": 0.103,
        "velocity": 1,
        "hand": "right"
      },
      {
        "midi": 76,
        "time": 20.753,
        "duration": 0.103,
        "velocity": 1,
        "hand": "right"
      },
      {
        "midi": 65,
        "time": 20.856,
        "duration": 0.411,
        "velocity": 1,
        "hand": "right"
      },
      {
        "midi": 69,
        "time": 20.856,
        "duration": 0.411,
        "velocity": 1,
        "hand": "right"
      },
      {
        "midi": 74,
        "time": 20.856,
        "duration": 0.411,
        "velocity": 1,
        "hand": "right"
      },
      {
        "midi": 77,
        "time": 21.473,
        "duration": 0.205,
        "velocity": 1,
        "hand": "right"
      },
      {
        "midi": 67,
        "time": 21.678,
        "duration": 0.822,
        "velocity": 1,
        "hand": "right"
      },
      {
        "midi": 70,
        "time": 21.678,
        "duration": 0.822,
        "velocity": 1,
        "hand": "right"
      },
      {
        "midi": 76,
        "time": 21.678,
        "duration": 0.616,
        "velocity": 1,
        "hand": "right"
      },
      {
        "midi": 77,
        "time": 22.295,
        "duration": 0.103,
        "velocity": 1,
        "hand": "right"
      },
      {
        "midi": 79,
        "time": 22.397,
        "duration": 0.103,
        "velocity": 1,
        "hand": "right"
      },
      {
        "midi": 69,
        "time": 22.5,
        "duration": 0.411,
        "velocity": 1,
        "hand": "right"
      },
      {
        "midi": 72,
        "time": 22.5,
        "duration": 0.411,
        "velocity": 1,
        "hand": "right"
      },
      {
        "midi": 77,
        "time": 22.5,
        "duration": 0.411,
        "velocity": 1,
        "hand": "right"
      },
      {
        "midi": 57,
        "time": 23.322,
        "duration": 0.205,
        "velocity": 1,
        "hand": "left"
      },
      {
        "midi": 72,
        "time": 23.322,
        "duration": 0.205,
        "velocity": 1,
        "hand": "right"
      },
      {
        "midi": 84,
        "time": 23.322,
        "duration": 0.205,
        "velocity": 1,
        "hand": "right"
      },
      {
        "midi": 60,
        "time": 23.527,
        "duration": 0.205,
        "velocity": 1,
        "hand": "right"
      },
      {
        "midi": 72,
        "time": 23.527,
        "duration": 0.205,
        "velocity": 1,
        "hand": "right"
      },
      {
        "midi": 84,
        "time": 23.527,
        "duration": 0.205,
        "velocity": 1,
        "hand": "right"
      },
      {
        "midi": 57,
        "time": 23.733,
        "duration": 0.205,
        "velocity": 1,
        "hand": "left"
      },
      {
        "midi": 72,
        "time": 23.733,
        "duration": 0.822,
        "velocity": 1,
        "hand": "right"
      },
      {
        "midi": 84,
        "time": 23.733,
        "duration": 0.822,
        "velocity": 1,
        "hand": "right"
      },
      {
        "midi": 60,
        "time": 23.938,
        "duration": 0.205,
        "velocity": 1,
        "hand": "right"
      },
      {
        "midi": 53,
        "time": 24.144,
        "duration": 0.205,
        "velocity": 1,
        "hand": "left"
      },
      {
        "midi": 60,
        "time": 24.349,
        "duration": 0.205,
        "velocity": 1,
        "hand": "right"
      },
      {
        "midi": 53,
        "time": 24.555,
        "duration": 0.205,
        "velocity": 1,
        "hand": "left"
      },
      {
        "midi": 83,
        "time": 24.555,
        "duration": 0.205,
        "velocity": 1,
        "hand": "right"
      },
      {
        "midi": 60,
        "time": 24.76,
        "duration": 0.205,
        "velocity": 1,
        "hand": "right"
      },
      {
        "midi": 81,
        "time": 24.76,
        "duration": 0.205,
        "velocity": 1,
        "hand": "right"
      },
      {
        "midi": 52,
        "time": 24.966,
        "duration": 0.205,
        "velocity": 1,
        "hand": "left"
      },
      {
        "midi": 72,
        "time": 24.966,
        "duration": 0.205,
        "velocity": 1,
        "hand": "right"
      },
      {
        "midi": 79,
        "time": 24.966,
        "duration": 0.205,
        "velocity": 1,
        "hand": "right"
      },
      {
        "midi": 60,
        "time": 25.171,
        "duration": 0.205,
        "velocity": 1,
        "hand": "right"
      },
      {
        "midi": 72,
        "time": 25.171,
        "duration": 0.205,
        "velocity": 1,
        "hand": "right"
      },
      {
        "midi": 79,
        "time": 25.171,
        "duration": 0.205,
        "velocity": 1,
        "hand": "right"
      },
      {
        "midi": 52,
        "time": 25.377,
        "duration": 0.205,
        "velocity": 1,
        "hand": "left"
      },
      {
        "midi": 72,
        "time": 25.377,
        "duration": 0.822,
        "velocity": 1,
        "hand": "right"
      },
      {
        "midi": 79,
        "time": 25.377,
        "duration": 0.822,
        "velocity": 1,
        "hand": "right"
      },
      {
        "midi": 60,
        "time": 25.582,
        "duration": 0.205,
        "velocity": 1,
        "hand": "right"
      },
      {
        "midi": 48,
        "time": 25.788,
        "duration": 0.205,
        "velocity": 1,
        "hand": "left"
      },
      {
        "midi": 60,
        "time": 25.993,
        "duration": 0.205,
        "velocity": 1,
        "hand": "right"
      },
      {
        "midi": 48,
        "time": 26.199,
        "duration": 0.205,
        "velocity": 1,
        "hand": "left"
      },
      {
        "midi": 77,
        "time": 26.199,
        "duration": 0.205,
        "velocity": 1,
        "hand": "right"
      },
      {
        "midi": 60,
        "time": 26.404,
        "duration": 0.205,
        "velocity": 1,
        "hand": "right"
      },
      {
        "midi": 76,
        "time": 26.404,
        "duration": 0.308,
        "velocity": 1,
        "hand": "right"
      },
      {
        "midi": 53,
        "time": 26.61,
        "duration": 0.205,
        "velocity": 1,
        "hand": "left"
      },
      {
        "midi": 74,
        "time": 26.712,
        "duration": 0.103,
        "velocity": 1,
        "hand": "right"
      },
      {
        "midi": 57,
        "time": 26.815,
        "duration": 0.205,
        "velocity": 1,
        "hand": "left"
      },
      {
        "midi": 77,
        "time": 26.815,
        "duration": 0.103,
        "velocity": 1,
        "hand": "right"
      },
      {
        "midi": 76,
        "time": 26.918,
        "duration": 0.103,
        "velocity": 1,
        "hand": "right"
      },
      {
        "midi": 53,
        "time": 27.021,
        "duration": 0.205,
        "velocity": 1,
        "hand": "left"
      },
      {
        "midi": 79,
        "time": 27.021,
        "duration": 0.103,
        "velocity": 1,
        "hand": "right"
      },
      {
        "midi": 77,
        "time": 27.123,
        "duration": 0.103,
        "velocity": 1,
        "hand": "right"
      },
      {
        "midi": 62,
        "time": 27.226,
        "duration": 0.205,
        "velocity": 1,
        "hand": "right"
      },
      {
        "midi": 76,
        "time": 27.226,
        "duration": 0.103,
        "velocity": 1,
        "hand": "right"
      },
      {
        "midi": 74,
        "time": 27.329,
        "duration": 0.103,
        "velocity": 1,
        "hand": "right"
      },
      {
        "midi": 55,
        "time": 27.432,
        "duration": 0.205,
        "velocity": 1,
        "hand": "left"
      },
      {
        "midi": 72,
        "time": 27.432,
        "duration": 0.411,
        "velocity": 1,
        "hand": "right"
      },
      {
        "midi": 64,
        "time": 27.637,
        "duration": 0.205,
        "velocity": 1,
        "hand": "right"
      },
      {
        "midi": 55,
        "time": 27.842,
        "duration": 0.205,
        "velocity": 1,
        "hand": "left"
      },
      {
        "midi": 71,
        "time": 27.842,
        "duration": 0.411,
        "velocity": 1,
        "hand": "right"
      },
      {
        "midi": 62,
        "time": 28.048,
        "duration": 0.205,
        "velocity": 1,
        "hand": "right"
      },
      {
        "midi": 69,
        "time": 28.151,
        "duration": 0.051,
        "velocity": 1,
        "hand": "right"
      },
      {
        "midi": 57,
        "time": 28.253,
        "duration": 0.205,
        "velocity": 1,
        "hand": "left"
      },
      {
        "midi": 72,
        "time": 28.253,
        "duration": 0.205,
        "velocity": 1,
        "hand": "right"
      },
      {
        "midi": 84,
        "time": 28.253,
        "duration": 0.205,
        "velocity": 1,
        "hand": "right"
      },
      {
        "midi": 60,
        "time": 28.459,
        "duration": 0.205,
        "velocity": 1,
        "hand": "right"
      },
      {
        "midi": 72,
        "time": 28.459,
        "duration": 0.205,
        "velocity": 1,
        "hand": "right"
      },
      {
        "midi": 84,
        "time": 28.459,
        "duration": 0.205,
        "velocity": 1,
        "hand": "right"
      },
      {
        "midi": 57,
        "time": 28.664,
        "duration": 0.205,
        "velocity": 1,
        "hand": "left"
      },
      {
        "midi": 72,
        "time": 28.664,
        "duration": 0.616,
        "velocity": 1,
        "hand": "right"
      },
      {
        "midi": 84,
        "time": 28.664,
        "duration": 0.616,
        "velocity": 1,
        "hand": "right"
      },
      {
        "midi": 60,
        "time": 28.87,
        "duration": 0.205,
        "velocity": 1,
        "hand": "right"
      },
      {
        "midi": 53,
        "time": 29.075,
        "duration": 0.205,
        "velocity": 1,
        "hand": "left"
      },
      {
        "midi": 60,
        "time": 29.281,
        "duration": 0.205,
        "velocity": 1,
        "hand": "right"
      },
      {
        "midi": 86,
        "time": 29.281,
        "duration": 0.103,
        "velocity": 1,
        "hand": "right"
      },
      {
        "midi": 84,
        "time": 29.384,
        "duration": 0.103,
        "velocity": 1,
        "hand": "right"
      },
      {
        "midi": 53,
        "time": 29.486,
        "duration": 0.205,
        "velocity": 1,
        "hand": "left"
      },
      {
        "midi": 83,
        "time": 29.486,
        "duration": 0.205,
        "velocity": 1,
        "hand": "right"
      },
      {
        "midi": 60,
        "time": 29.692,
        "duration": 0.205,
        "velocity": 1,
        "hand": "right"
      },
      {
        "midi": 81,
        "time": 29.692,
        "duration": 0.205,
        "velocity": 1,
        "hand": "right"
      },
      {
        "midi": 52,
        "time": 29.897,
        "duration": 0.205,
        "velocity": 1,
        "hand": "left"
      },
      {
        "midi": 72,
        "time": 29.897,
        "duration": 0.205,
        "velocity": 1,
        "hand": "right"
      },
      {
        "midi": 79,
        "time": 29.897,
        "duration": 0.205,
        "velocity": 1,
        "hand": "right"
      },
      {
        "midi": 60,
        "time": 30.103,
        "duration": 0.205,
        "velocity": 1,
        "hand": "right"
      },
      {
        "midi": 72,
        "time": 30.103,
        "duration": 0.205,
        "velocity": 1,
        "hand": "right"
      },
      {
        "midi": 79,
        "time": 30.103,
        "duration": 0.205,
        "velocity": 1,
        "hand": "right"
      },
      {
        "midi": 52,
        "time": 30.308,
        "duration": 0.205,
        "velocity": 1,
        "hand": "left"
      },
      {
        "midi": 72,
        "time": 30.308,
        "duration": 0.616,
        "velocity": 1,
        "hand": "right"
      },
      {
        "midi": 79,
        "time": 30.308,
        "duration": 0.616,
        "velocity": 1,
        "hand": "right"
      },
      {
        "midi": 60,
        "time": 30.514,
        "duration": 0.205,
        "velocity": 1,
        "hand": "right"
      },
      {
        "midi": 48,
        "time": 30.719,
        "duration": 0.205,
        "velocity": 1,
        "hand": "left"
      },
      {
        "midi": 60,
        "time": 30.925,
        "duration": 0.205,
        "velocity": 1,
        "hand": "right"
      },
      {
        "midi": 81,
        "time": 30.925,
        "duration": 0.103,
        "velocity": 1,
        "hand": "right"
      },
      {
        "midi": 79,
        "time": 31.027,
        "duration": 0.103,
        "velocity": 1,
        "hand": "right"
      },
      {
        "midi": 48,
        "time": 31.13,
        "duration": 0.205,
        "velocity": 1,
        "hand": "left"
      },
      {
        "midi": 77,
        "time": 31.13,
        "duration": 0.205,
        "velocity": 1,
        "hand": "right"
      },
      {
        "midi": 60,
        "time": 31.336,
        "duration": 0.205,
        "velocity": 1,
        "hand": "right"
      },
      {
        "midi": 76,
        "time": 31.336,
        "duration": 0.308,
        "velocity": 1,
        "hand": "right"
      },
      {
        "midi": 53,
        "time": 31.541,
        "duration": 0.205,
        "velocity": 1,
        "hand": "left"
      },
      {
        "midi": 74,
        "time": 31.644,
        "duration": 0.103,
        "velocity": 1,
        "hand": "right"
      },
      {
        "midi": 60,
        "time": 31.747,
        "duration": 0.205,
        "velocity": 1,
        "hand": "right"
      },
      {
        "midi": 81,
        "time": 31.747,
        "duration": 0.103,
        "velocity": 1,
        "hand": "right"
      },
      {
        "midi": 80,
        "time": 31.849,
        "duration": 0.103,
        "velocity": 1,
        "hand": "right"
      },
      {
        "midi": 53,
        "time": 31.952,
        "duration": 0.205,
        "velocity": 1,
        "hand": "left"
      },
      {
        "midi": 83,
        "time": 31.952,
        "duration": 0.103,
        "velocity": 1,
        "hand": "right"
      },
      {
        "midi": 81,
        "time": 32.055,
        "duration": 0.103,
        "velocity": 1,
        "hand": "right"
      },
      {
        "midi": 62,
        "time": 32.158,
        "duration": 0.205,
        "velocity": 1,
        "hand": "right"
      },
      {
        "midi": 79,
        "time": 32.158,
        "duration": 0.103,
        "velocity": 1,
        "hand": "right"
      },
      {
        "midi": 77,
        "time": 32.26,
        "duration": 0.103,
        "velocity": 1,
        "hand": "right"
      },
      {
        "midi": 55,
        "time": 32.363,
        "duration": 0.205,
        "velocity": 1,
        "hand": "left"
      },
      {
        "midi": 76,
        "time": 32.363,
        "duration": 0.411,
        "velocity": 1,
        "hand": "right"
      },
      {
        "midi": 60,
        "time": 32.568,
        "duration": 0.205,
        "velocity": 1,
        "hand": "right"
      },
      {
        "midi": 55,
        "time": 32.774,
        "duration": 0.205,
        "velocity": 1,
        "hand": "left"
      },
      {
        "midi": 74,
        "time": 32.774,
        "duration": 0.411,
        "velocity": 1,
        "hand": "right"
      },
      {
        "midi": 59,
        "time": 32.979,
        "duration": 0.205,
        "velocity": 1,
        "hand": "left"
      },
      {
        "midi": 72,
        "time": 33.082,
        "duration": 0.051,
        "velocity": 1,
        "hand": "right"
      },
      {
        "midi": 60,
        "time": 33.185,
        "duration": 0.205,
        "velocity": 1,
        "hand": "right"
      },
      {
        "midi": 64,
        "time": 33.185,
        "duration": 0.205,
        "velocity": 1,
        "hand": "right"
      },
      {
        "midi": 72,
        "time": 33.185,
        "duration": 0.411,
        "velocity": 1,
        "hand": "right"
      },
      {
        "midi": 60,
        "time": 33.39,
        "duration": 0.205,
        "velocity": 1,
        "hand": "right"
      },
      {
        "midi": 64,
        "time": 33.39,
        "duration": 0.205,
        "velocity": 1,
        "hand": "right"
      },
      {
        "midi": 60,
        "time": 33.596,
        "duration": 0.205,
        "velocity": 1,
        "hand": "right"
      },
      {
        "midi": 64,
        "time": 33.596,
        "duration": 0.205,
        "velocity": 1,
        "hand": "right"
      },
      {
        "midi": 60,
        "time": 33.801,
        "duration": 0.205,
        "velocity": 1,
        "hand": "right"
      },
      {
        "midi": 64,
        "time": 33.801,
        "duration": 0.205,
        "velocity": 1,
        "hand": "right"
      },
      {
        "midi": 72,
        "time": 33.801,
        "duration": 0.103,
        "velocity": 1,
        "hand": "right"
      },
      {
        "midi": 74,
        "time": 33.801,
        "duration": 0.051,
        "velocity": 1,
        "hand": "right"
      },
      {
        "midi": 71,
        "time": 33.904,
        "duration": 0.103,
        "velocity": 1,
        "hand": "right"
      },
      {
        "midi": 60,
        "time": 34.007,
        "duration": 0.205,
        "velocity": 1,
        "hand": "right"
      },
      {
        "midi": 64,
        "time": 34.007,
        "duration": 0.205,
        "velocity": 1,
        "hand": "right"
      },
      {
        "midi": 72,
        "time": 34.007,
        "duration": 0.205,
        "velocity": 1,
        "hand": "right"
      },
      {
        "midi": 60,
        "time": 34.212,
        "duration": 0.205,
        "velocity": 1,
        "hand": "right"
      },
      {
        "midi": 64,
        "time": 34.212,
        "duration": 0.205,
        "velocity": 1,
        "hand": "right"
      },
      {
        "midi": 75,
        "time": 34.212,
        "duration": 0.205,
        "velocity": 1,
        "hand": "right"
      },
      {
        "midi": 60,
        "time": 34.418,
        "duration": 0.205,
        "velocity": 1,
        "hand": "right"
      },
      {
        "midi": 64,
        "time": 34.418,
        "duration": 0.205,
        "velocity": 1,
        "hand": "right"
      },
      {
        "midi": 76,
        "time": 34.418,
        "duration": 0.205,
        "velocity": 1,
        "hand": "right"
      },
      {
        "midi": 60,
        "time": 34.623,
        "duration": 0.205,
        "velocity": 1,
        "hand": "right"
      },
      {
        "midi": 64,
        "time": 34.623,
        "duration": 0.205,
        "velocity": 1,
        "hand": "right"
      },
      {
        "midi": 78,
        "time": 34.623,
        "duration": 0.205,
        "velocity": 1,
        "hand": "right"
      },
      {
        "midi": 60,
        "time": 34.829,
        "duration": 0.205,
        "velocity": 1,
        "hand": "right"
      },
      {
        "midi": 64,
        "time": 34.829,
        "duration": 0.205,
        "velocity": 1,
        "hand": "right"
      },
      {
        "midi": 79,
        "time": 34.829,
        "duration": 0.205,
        "velocity": 1,
        "hand": "right"
      },
      {
        "midi": 60,
        "time": 35.034,
        "duration": 0.205,
        "velocity": 1,
        "hand": "right"
      },
      {
        "midi": 64,
        "time": 35.034,
        "duration": 0.205,
        "velocity": 1,
        "hand": "right"
      },
      {
        "midi": 83,
        "time": 35.034,
        "duration": 0.205,
        "velocity": 1,
        "hand": "right"
      },
      {
        "midi": 60,
        "time": 35.24,
        "duration": 0.205,
        "velocity": 1,
        "hand": "right"
      },
      {
        "midi": 64,
        "time": 35.24,
        "duration": 0.205,
        "velocity": 1,
        "hand": "right"
      },
      {
        "midi": 84,
        "time": 35.24,
        "duration": 0.205,
        "velocity": 1,
        "hand": "right"
      },
      {
        "midi": 60,
        "time": 35.445,
        "duration": 0.205,
        "velocity": 1,
        "hand": "right"
      },
      {
        "midi": 64,
        "time": 35.445,
        "duration": 0.205,
        "velocity": 1,
        "hand": "right"
      },
      {
        "midi": 87,
        "time": 35.445,
        "duration": 0.205,
        "velocity": 1,
        "hand": "right"
      },
      {
        "midi": 60,
        "time": 35.651,
        "duration": 0.205,
        "velocity": 1,
        "hand": "right"
      },
      {
        "midi": 64,
        "time": 35.651,
        "duration": 0.205,
        "velocity": 1,
        "hand": "right"
      },
      {
        "midi": 88,
        "time": 35.651,
        "duration": 0.411,
        "velocity": 1,
        "hand": "right"
      },
      {
        "midi": 60,
        "time": 35.856,
        "duration": 0.205,
        "velocity": 1,
        "hand": "right"
      },
      {
        "midi": 64,
        "time": 35.856,
        "duration": 0.205,
        "velocity": 1,
        "hand": "right"
      },
      {
        "midi": 60,
        "time": 36.062,
        "duration": 0.205,
        "velocity": 1,
        "hand": "right"
      },
      {
        "midi": 64,
        "time": 36.062,
        "duration": 0.205,
        "velocity": 1,
        "hand": "right"
      },
      {
        "midi": 60,
        "time": 36.267,
        "duration": 0.205,
        "velocity": 1,
        "hand": "right"
      },
      {
        "midi": 64,
        "time": 36.267,
        "duration": 0.205,
        "velocity": 1,
        "hand": "right"
      },
      {
        "midi": 59,
        "time": 36.473,
        "duration": 0.205,
        "velocity": 1,
        "hand": "left"
      },
      {
        "midi": 62,
        "time": 36.473,
        "duration": 0.205,
        "velocity": 1,
        "hand": "right"
      },
      {
        "midi": 74,
        "time": 36.473,
        "duration": 0.411,
        "velocity": 1,
        "hand": "right"
      },
      {
        "midi": 79,
        "time": 36.473,
        "duration": 0.411,
        "velocity": 1,
        "hand": "right"
      },
      {
        "midi": 86,
        "time": 36.473,
        "duration": 0.411,
        "velocity": 1,
        "hand": "right"
      },
      {
        "midi": 59,
        "time": 36.678,
        "duration": 0.205,
        "velocity": 1,
        "hand": "left"
      },
      {
        "midi": 62,
        "time": 36.678,
        "duration": 0.205,
        "velocity": 1,
        "hand": "right"
      },
      {
        "midi": 59,
        "time": 36.884,
        "duration": 0.205,
        "velocity": 1,
        "hand": "left"
      },
      {
        "midi": 62,
        "time": 36.884,
        "duration": 0.205,
        "velocity": 1,
        "hand": "right"
      },
      {
        "midi": 59,
        "time": 37.089,
        "duration": 0.205,
        "velocity": 1,
        "hand": "left"
      },
      {
        "midi": 62,
        "time": 37.089,
        "duration": 0.205,
        "velocity": 1,
        "hand": "right"
      },
      {
        "midi": 71,
        "time": 37.089,
        "duration": 0.103,
        "velocity": 1,
        "hand": "right"
      },
      {
        "midi": 72,
        "time": 37.089,
        "duration": 0.051,
        "velocity": 1,
        "hand": "right"
      },
      {
        "midi": 69,
        "time": 37.192,
        "duration": 0.103,
        "velocity": 1,
        "hand": "right"
      },
      {
        "midi": 59,
        "time": 37.295,
        "duration": 0.205,
        "velocity": 1,
        "hand": "left"
      },
      {
        "midi": 62,
        "time": 37.295,
        "duration": 0.205,
        "velocity": 1,
        "hand": "right"
      },
      {
        "midi": 71,
        "time": 37.295,
        "duration": 0.205,
        "velocity": 1,
        "hand": "right"
      },
      {
        "midi": 59,
        "time": 37.5,
        "duration": 0.205,
        "velocity": 1,
        "hand": "left"
      },
      {
        "midi": 62,
        "time": 37.5,
        "duration": 0.205,
        "velocity": 1,
        "hand": "right"
      },
      {
        "midi": 73,
        "time": 37.5,
        "duration": 0.205,
        "velocity": 1,
        "hand": "right"
      },
      {
        "midi": 59,
        "time": 37.705,
        "duration": 0.205,
        "velocity": 1,
        "hand": "left"
      },
      {
        "midi": 62,
        "time": 37.705,
        "duration": 0.205,
        "velocity": 1,
        "hand": "right"
      },
      {
        "midi": 74,
        "time": 37.705,
        "duration": 0.205,
        "velocity": 1,
        "hand": "right"
      },
      {
        "midi": 59,
        "time": 37.911,
        "duration": 0.205,
        "velocity": 1,
        "hand": "left"
      },
      {
        "midi": 62,
        "time": 37.911,
        "duration": 0.205,
        "velocity": 1,
        "hand": "right"
      },
      {
        "midi": 78,
        "time": 37.911,
        "duration": 0.205,
        "velocity": 1,
        "hand": "right"
      },
      {
        "midi": 59,
        "time": 38.116,
        "duration": 0.205,
        "velocity": 1,
        "hand": "left"
      },
      {
        "midi": 62,
        "time": 38.116,
        "duration": 0.205,
        "velocity": 1,
        "hand": "right"
      },
      {
        "midi": 79,
        "time": 38.116,
        "duration": 0.205,
        "velocity": 1,
        "hand": "right"
      },
      {
        "midi": 59,
        "time": 38.322,
        "duration": 0.205,
        "velocity": 1,
        "hand": "left"
      },
      {
        "midi": 62,
        "time": 38.322,
        "duration": 0.205,
        "velocity": 1,
        "hand": "right"
      },
      {
        "midi": 82,
        "time": 38.322,
        "duration": 0.205,
        "velocity": 1,
        "hand": "right"
      },
      {
        "midi": 59,
        "time": 38.527,
        "duration": 0.205,
        "velocity": 1,
        "hand": "left"
      },
      {
        "midi": 62,
        "time": 38.527,
        "duration": 0.205,
        "velocity": 1,
        "hand": "right"
      },
      {
        "midi": 83,
        "time": 38.527,
        "duration": 0.205,
        "velocity": 1,
        "hand": "right"
      },
      {
        "midi": 59,
        "time": 38.733,
        "duration": 0.205,
        "velocity": 1,
        "hand": "left"
      },
      {
        "midi": 62,
        "time": 38.733,
        "duration": 0.205,
        "velocity": 1,
        "hand": "right"
      },
      {
        "midi": 85,
        "time": 38.733,
        "duration": 0.205,
        "velocity": 1,
        "hand": "right"
      },
      {
        "midi": 59,
        "time": 38.938,
        "duration": 0.205,
        "velocity": 1,
        "hand": "left"
      },
      {
        "midi": 62,
        "time": 38.938,
        "duration": 0.205,
        "velocity": 1,
        "hand": "right"
      },
      {
        "midi": 86,
        "time": 38.938,
        "duration": 0.411,
        "velocity": 1,
        "hand": "right"
      },
      {
        "midi": 59,
        "time": 39.144,
        "duration": 0.205,
        "velocity": 1,
        "hand": "left"
      },
      {
        "midi": 62,
        "time": 39.144,
        "duration": 0.205,
        "velocity": 1,
        "hand": "right"
      },
      {
        "midi": 59,
        "time": 39.349,
        "duration": 0.205,
        "velocity": 1,
        "hand": "left"
      },
      {
        "midi": 62,
        "time": 39.349,
        "duration": 0.205,
        "velocity": 1,
        "hand": "right"
      },
      {
        "midi": 59,
        "time": 39.555,
        "duration": 0.205,
        "velocity": 1,
        "hand": "left"
      },
      {
        "midi": 62,
        "time": 39.555,
        "duration": 0.205,
        "velocity": 1,
        "hand": "right"
      },
      {
        "midi": 54,
        "time": 39.76,
        "duration": 0.205,
        "velocity": 1,
        "hand": "left"
      },
      {
        "midi": 57,
        "time": 39.76,
        "duration": 0.205,
        "velocity": 1,
        "hand": "left"
      },
      {
        "midi": 62,
        "time": 39.76,
        "duration": 0.205,
        "velocity": 1,
        "hand": "right"
      },
      {
        "midi": 72,
        "time": 39.76,
        "duration": 0.411,
        "velocity": 1,
        "hand": "right"
      },
      {
        "midi": 78,
        "time": 39.76,
        "duration": 0.411,
        "velocity": 1,
        "hand": "right"
      },
      {
        "midi": 84,
        "time": 39.76,
        "duration": 0.411,
        "velocity": 1,
        "hand": "right"
      },
      {
        "midi": 54,
        "time": 39.966,
        "duration": 0.205,
        "velocity": 1,
        "hand": "left"
      },
      {
        "midi": 57,
        "time": 39.966,
        "duration": 0.205,
        "velocity": 1,
        "hand": "left"
      },
      {
        "midi": 62,
        "time": 39.966,
        "duration": 0.205,
        "velocity": 1,
        "hand": "right"
      },
      {
        "midi": 54,
        "time": 40.171,
        "duration": 0.205,
        "velocity": 1,
        "hand": "left"
      },
      {
        "midi": 57,
        "time": 40.171,
        "duration": 0.205,
        "velocity": 1,
        "hand": "left"
      },
      {
        "midi": 62,
        "time": 40.171,
        "duration": 0.205,
        "velocity": 1,
        "hand": "right"
      },
      {
        "midi": 54,
        "time": 40.377,
        "duration": 0.205,
        "velocity": 1,
        "hand": "left"
      },
      {
        "midi": 57,
        "time": 40.377,
        "duration": 0.205,
        "velocity": 1,
        "hand": "left"
      },
      {
        "midi": 62,
        "time": 40.377,
        "duration": 0.205,
        "velocity": 1,
        "hand": "right"
      },
      {
        "midi": 69,
        "time": 40.377,
        "duration": 0.103,
        "velocity": 1,
        "hand": "right"
      },
      {
        "midi": 71,
        "time": 40.377,
        "duration": 0.051,
        "velocity": 1,
        "hand": "right"
      },
      {
        "midi": 68,
        "time": 40.479,
        "duration": 0.103,
        "velocity": 1,
        "hand": "right"
      },
      {
        "midi": 54,
        "time": 40.582,
        "duration": 0.205,
        "velocity": 1,
        "hand": "left"
      },
      {
        "midi": 57,
        "time": 40.582,
        "duration": 0.205,
        "velocity": 1,
        "hand": "left"
      },
      {
        "midi": 62,
        "time": 40.582,
        "duration": 0.205,
        "velocity": 1,
        "hand": "right"
      },
      {
        "midi": 69,
        "time": 40.582,
        "duration": 0.205,
        "velocity": 1,
        "hand": "right"
      },
      {
        "midi": 54,
        "time": 40.788,
        "duration": 0.205,
        "velocity": 1,
        "hand": "left"
      },
      {
        "midi": 57,
        "time": 40.788,
        "duration": 0.205,
        "velocity": 1,
        "hand": "left"
      },
      {
        "midi": 62,
        "time": 40.788,
        "duration": 0.205,
        "velocity": 1,
        "hand": "right"
      },
      {
        "midi": 71,
        "time": 40.788,
        "duration": 0.205,
        "velocity": 1,
        "hand": "right"
      },
      {
        "midi": 54,
        "time": 40.993,
        "duration": 0.205,
        "velocity": 1,
        "hand": "left"
      },
      {
        "midi": 57,
        "time": 40.993,
        "duration": 0.205,
        "velocity": 1,
        "hand": "left"
      },
      {
        "midi": 62,
        "time": 40.993,
        "duration": 0.205,
        "velocity": 1,
        "hand": "right"
      },
      {
        "midi": 72,
        "time": 40.993,
        "duration": 0.205,
        "velocity": 1,
        "hand": "right"
      },
      {
        "midi": 54,
        "time": 41.199,
        "duration": 0.205,
        "velocity": 1,
        "hand": "left"
      },
      {
        "midi": 57,
        "time": 41.199,
        "duration": 0.205,
        "velocity": 1,
        "hand": "left"
      },
      {
        "midi": 62,
        "time": 41.199,
        "duration": 0.205,
        "velocity": 1,
        "hand": "right"
      },
      {
        "midi": 77,
        "time": 41.199,
        "duration": 0.205,
        "velocity": 1,
        "hand": "right"
      },
      {
        "midi": 54,
        "time": 41.404,
        "duration": 0.205,
        "velocity": 1,
        "hand": "left"
      },
      {
        "midi": 57,
        "time": 41.404,
        "duration": 0.205,
        "velocity": 1,
        "hand": "left"
      },
      {
        "midi": 62,
        "time": 41.404,
        "duration": 0.205,
        "velocity": 1,
        "hand": "right"
      },
      {
        "midi": 78,
        "time": 41.404,
        "duration": 0.205,
        "velocity": 1,
        "hand": "right"
      },
      {
        "midi": 54,
        "time": 41.61,
        "duration": 0.205,
        "velocity": 1,
        "hand": "left"
      },
      {
        "midi": 57,
        "time": 41.61,
        "duration": 0.205,
        "velocity": 1,
        "hand": "left"
      },
      {
        "midi": 62,
        "time": 41.61,
        "duration": 0.205,
        "velocity": 1,
        "hand": "right"
      },
      {
        "midi": 80,
        "time": 41.61,
        "duration": 0.205,
        "velocity": 1,
        "hand": "right"
      },
      {
        "midi": 54,
        "time": 41.815,
        "duration": 0.205,
        "velocity": 1,
        "hand": "left"
      },
      {
        "midi": 57,
        "time": 41.815,
        "duration": 0.205,
        "velocity": 1,
        "hand": "left"
      },
      {
        "midi": 62,
        "time": 41.815,
        "duration": 0.205,
        "velocity": 1,
        "hand": "right"
      },
      {
        "midi": 81,
        "time": 41.815,
        "duration": 0.205,
        "velocity": 1,
        "hand": "right"
      },
      {
        "midi": 54,
        "time": 42.021,
        "duration": 0.205,
        "velocity": 1,
        "hand": "left"
      },
      {
        "midi": 57,
        "time": 42.021,
        "duration": 0.205,
        "velocity": 1,
        "hand": "left"
      },
      {
        "midi": 62,
        "time": 42.021,
        "duration": 0.205,
        "velocity": 1,
        "hand": "right"
      },
      {
        "midi": 83,
        "time": 42.021,
        "duration": 0.205,
        "velocity": 1,
        "hand": "right"
      },
      {
        "midi": 54,
        "time": 42.226,
        "duration": 0.205,
        "velocity": 1,
        "hand": "left"
      },
      {
        "midi": 57,
        "time": 42.226,
        "duration": 0.205,
        "velocity": 1,
        "hand": "left"
      },
      {
        "midi": 62,
        "time": 42.226,
        "duration": 0.205,
        "velocity": 1,
        "hand": "right"
      },
      {
        "midi": 84,
        "time": 42.226,
        "duration": 0.411,
        "velocity": 1,
        "hand": "right"
      },
      {
        "midi": 54,
        "time": 42.432,
        "duration": 0.205,
        "velocity": 1,
        "hand": "left"
      },
      {
        "midi": 57,
        "time": 42.432,
        "duration": 0.205,
        "velocity": 1,
        "hand": "left"
      },
      {
        "midi": 62,
        "time": 42.432,
        "duration": 0.205,
        "velocity": 1,
        "hand": "right"
      },
      {
        "midi": 54,
        "time": 42.637,
        "duration": 0.205,
        "velocity": 1,
        "hand": "left"
      },
      {
        "midi": 57,
        "time": 42.637,
        "duration": 0.205,
        "velocity": 1,
        "hand": "left"
      },
      {
        "midi": 62,
        "time": 42.637,
        "duration": 0.205,
        "velocity": 1,
        "hand": "right"
      },
      {
        "midi": 54,
        "time": 42.842,
        "duration": 0.205,
        "velocity": 1,
        "hand": "left"
      },
      {
        "midi": 57,
        "time": 42.842,
        "duration": 0.205,
        "velocity": 1,
        "hand": "left"
      },
      {
        "midi": 62,
        "time": 42.842,
        "duration": 0.205,
        "velocity": 1,
        "hand": "right"
      },
      {
        "midi": 55,
        "time": 43.048,
        "duration": 0.205,
        "velocity": 1,
        "hand": "left"
      },
      {
        "midi": 84,
        "time": 43.048,
        "duration": 0.103,
        "velocity": 1,
        "hand": "right"
      },
      {
        "midi": 83,
        "time": 43.151,
        "duration": 0.103,
        "velocity": 1,
        "hand": "right"
      },
      {
        "midi": 62,
        "time": 43.253,
        "duration": 0.205,
        "velocity": 1,
        "hand": "right"
      },
      {
        "midi": 81,
        "time": 43.253,
        "duration": 0.103,
        "velocity": 1,
        "hand": "right"
      },
      {
        "midi": 79,
        "time": 43.356,
        "duration": 0.103,
        "velocity": 1,
        "hand": "right"
      },
      {
        "midi": 57,
        "time": 43.459,
        "duration": 0.205,
        "velocity": 1,
        "hand": "left"
      },
      {
        "midi": 79,
        "time": 43.459,
        "duration": 0.103,
        "velocity": 1,
        "hand": "right"
      },
      {
        "midi": 78,
        "time": 43.562,
        "duration": 0.103,
        "velocity": 1,
        "hand": "right"
      },
      {
        "midi": 62,
        "time": 43.664,
        "duration": 0.205,
        "velocity": 1,
        "hand": "right"
      },
      {
        "midi": 76,
        "time": 43.664,
        "duration": 0.103,
        "velocity": 1,
        "hand": "right"
      },
      {
        "midi": 74,
        "time": 43.767,
        "duration": 0.103,
        "velocity": 1,
        "hand": "right"
      },
      {
        "midi": 54,
        "time": 43.87,
        "duration": 0.205,
        "velocity": 1,
        "hand": "left"
      },
      {
        "midi": 74,
        "time": 43.87,
        "duration": 0.051,
        "velocity": 1,
        "hand": "right"
      },
      {
        "midi": 78,
        "time": 43.87,
        "duration": 0.051,
        "velocity": 1,
        "hand": "right"
      },
      {
        "midi": 81,
        "time": 43.87,
        "duration": 0.051,
        "velocity": 1,
        "hand": "right"
      },
      {
        "midi": 84,
        "time": 43.87,
        "duration": 0.822,
        "velocity": 1,
        "hand": "right"
      },
      {
        "midi": 62,
        "time": 44.075,
        "duration": 0.205,
        "velocity": 1,
        "hand": "right"
      },
      {
        "midi": 50,
        "time": 44.281,
        "duration": 0.205,
        "velocity": 1,
        "hand": "left"
      },
      {
        "midi": 62,
        "time": 44.486,
        "duration": 0.205,
        "velocity": 1,
        "hand": "right"
      },
      {
        "midi": 55,
        "time": 44.692,
        "duration": 0.205,
        "velocity": 1,
        "hand": "left"
      },
      {
        "midi": 84,
        "time": 44.692,
        "duration": 0.103,
        "velocity": 1,
        "hand": "right"
      },
      {
        "midi": 83,
        "time": 44.795,
        "duration": 0.103,
        "velocity": 1,
        "hand": "right"
      },
      {
        "midi": 62,
        "time": 44.897,
        "duration": 0.205,
        "velocity": 1,
        "hand": "right"
      },
      {
        "midi": 81,
        "time": 44.897,
        "duration": 0.103,
        "velocity": 1,
        "hand": "right"
      },
      {
        "midi": 79,
        "time": 45,
        "duration": 0.103,
        "velocity": 1,
        "hand": "right"
      },
      {
        "midi": 57,
        "time": 45.103,
        "duration": 0.205,
        "velocity": 1,
        "hand": "left"
      },
      {
        "midi": 79,
        "time": 45.103,
        "duration": 0.103,
        "velocity": 1,
        "hand": "right"
      },
      {
        "midi": 78,
        "time": 45.205,
        "duration": 0.103,
        "velocity": 1,
        "hand": "right"
      },
      {
        "midi": 62,
        "time": 45.308,
        "duration": 0.205,
        "velocity": 1,
        "hand": "right"
      },
      {
        "midi": 76,
        "time": 45.308,
        "duration": 0.103,
        "velocity": 1,
        "hand": "right"
      },
      {
        "midi": 74,
        "time": 45.411,
        "duration": 0.103,
        "velocity": 1,
        "hand": "right"
      },
      {
        "midi": 54,
        "time": 45.514,
        "duration": 0.205,
        "velocity": 1,
        "hand": "left"
      },
      {
        "midi": 74,
        "time": 45.514,
        "duration": 0.051,
        "velocity": 1,
        "hand": "right"
      },
      {
        "midi": 78,
        "time": 45.514,
        "duration": 0.051,
        "velocity": 1,
        "hand": "right"
      },
      {
        "midi": 81,
        "time": 45.514,
        "duration": 0.051,
        "velocity": 1,
        "hand": "right"
      },
      {
        "midi": 84,
        "time": 45.514,
        "duration": 0.822,
        "velocity": 1,
        "hand": "right"
      },
      {
        "midi": 62,
        "time": 45.719,
        "duration": 0.205,
        "velocity": 1,
        "hand": "right"
      },
      {
        "midi": 50,
        "time": 45.925,
        "duration": 0.205,
        "velocity": 1,
        "hand": "left"
      },
      {
        "midi": 62,
        "time": 46.13,
        "duration": 0.205,
        "velocity": 1,
        "hand": "right"
      },
      {
        "midi": 55,
        "time": 46.336,
        "duration": 0.411,
        "velocity": 1,
        "hand": "left"
      },
      {
        "midi": 62,
        "time": 46.336,
        "duration": 0.411,
        "velocity": 1,
        "hand": "right"
      },
      {
        "midi": 83,
        "time": 46.336,
        "duration": 0.103,
        "velocity": 1,
        "hand": "right"
      },
      {
        "midi": 81,
        "time": 46.438,
        "duration": 0.103,
        "velocity": 1,
        "hand": "right"
      },
      {
        "midi": 84,
        "time": 46.541,
        "duration": 0.103,
        "velocity": 1,
        "hand": "right"
      },
      {
        "midi": 83,
        "time": 46.644,
        "duration": 0.103,
        "velocity": 1,
        "hand": "right"
      },
      {
        "midi": 86,
        "time": 46.747,
        "duration": 0.205,
        "velocity": 1,
        "hand": "right"
      },
      {
        "midi": 78,
        "time": 46.952,
        "duration": 0.205,
        "velocity": 1,
        "hand": "right"
      },
      {
        "midi": 59,
        "time": 47.158,
        "duration": 0.411,
        "velocity": 1,
        "hand": "left"
      },
      {
        "midi": 62,
        "time": 47.158,
        "duration": 0.411,
        "velocity": 1,
        "hand": "right"
      },
      {
        "midi": 79,
        "time": 47.158,
        "duration": 0.103,
        "velocity": 1,
        "hand": "right"
      },
      {
        "midi": 78,
        "time": 47.26,
        "duration": 0.103,
        "velocity": 1,
        "hand": "right"
      },
      {
        "midi": 81,
        "time": 47.363,
        "duration": 0.103,
        "velocity": 1,
        "hand": "right"
      },
      {
        "midi": 79,
        "time": 47.466,
        "duration": 0.103,
        "velocity": 1,
        "hand": "right"
      },
      {
        "midi": 83,
        "time": 47.568,
        "duration": 0.205,
        "velocity": 1,
        "hand": "right"
      },
      {
        "midi": 75,
        "time": 47.774,
        "duration": 0.205,
        "velocity": 1,
        "hand": "right"
      },
      {
        "midi": 60,
        "time": 47.979,
        "duration": 0.411,
        "velocity": 1,
        "hand": "right"
      },
      {
        "midi": 67,
        "time": 47.979,
        "duration": 0.411,
        "velocity": 1,
        "hand": "right"
      },
      {
        "midi": 76,
        "time": 47.979,
        "duration": 0.103,
        "velocity": 1,
        "hand": "right"
      },
      {
        "midi": 75,
        "time": 48.082,
        "duration": 0.103,
        "velocity": 1,
        "hand": "right"
      },
      {
        "midi": 78,
        "time": 48.185,
        "duration": 0.103,
        "velocity": 1,
        "hand": "right"
      },
      {
        "midi": 76,
        "time": 48.288,
        "duration": 0.103,
        "velocity": 1,
        "hand": "right"
      },
      {
        "midi": 79,
        "time": 48.39,
        "duration": 0.205,
        "velocity": 1,
        "hand": "right"
      },
      {
        "midi": 71,
        "time": 48.596,
        "duration": 0.205,
        "velocity": 1,
        "hand": "right"
      },
      {
        "midi": 64,
        "time": 48.801,
        "duration": 0.411,
        "velocity": 1,
        "hand": "right"
      },
      {
        "midi": 67,
        "time": 48.801,
        "duration": 0.411,
        "velocity": 1,
        "hand": "right"
      },
      {
        "midi": 72,
        "time": 48.801,
        "duration": 0.103,
        "velocity": 1,
        "hand": "right"
      },
      {
        "midi": 71,
        "time": 48.904,
        "duration": 0.103,
        "velocity": 1,
        "hand": "right"
      },
      {
        "midi": 74,
        "time": 49.007,
        "duration": 0.103,
        "velocity": 1,
        "hand": "right"
      },
      {
        "midi": 72,
        "time": 49.11,
        "duration": 0.103,
        "velocity": 1,
        "hand": "right"
      },
      {
        "midi": 76,
        "time": 49.212,
        "duration": 0.205,
        "velocity": 1,
        "hand": "right"
      },
      {
        "midi": 68,
        "time": 49.418,
        "duration": 0.205,
        "velocity": 1,
        "hand": "right"
      },
      {
        "midi": 57,
        "time": 49.623,
        "duration": 0.308,
        "velocity": 1,
        "hand": "left"
      },
      {
        "midi": 69,
        "time": 49.623,
        "duration": 0.308,
        "velocity": 1,
        "hand": "right"
      },
      {
        "midi": 59,
        "time": 49.932,
        "duration": 0.103,
        "velocity": 1,
        "hand": "left"
      },
      {
        "midi": 71,
        "time": 49.932,
        "duration": 0.103,
        "velocity": 1,
        "hand": "right"
      },
      {
        "midi": 60,
        "time": 50.034,
        "duration": 0.308,
        "velocity": 1,
        "hand": "right"
      },
      {
        "midi": 72,
        "time": 50.034,
        "duration": 0.308,
        "velocity": 1,
        "hand": "right"
      },
      {
        "midi": 59,
        "time": 50.342,
        "duration": 0.103,
        "velocity": 1,
        "hand": "left"
      },
      {
        "midi": 71,
        "time": 50.342,
        "duration": 0.103,
        "velocity": 1,
        "hand": "right"
      },
      {
        "midi": 57,
        "time": 50.445,
        "duration": 0.308,
        "velocity": 1,
        "hand": "left"
      },
      {
        "midi": 69,
        "time": 50.445,
        "duration": 0.308,
        "velocity": 1,
        "hand": "right"
      },
      {
        "midi": 55,
        "time": 50.753,
        "duration": 0.103,
        "velocity": 1,
        "hand": "left"
      },
      {
        "midi": 67,
        "time": 50.753,
        "duration": 0.103,
        "velocity": 1,
        "hand": "right"
      },
      {
        "midi": 54,
        "time": 50.856,
        "duration": 0.308,
        "velocity": 1,
        "hand": "left"
      },
      {
        "midi": 66,
        "time": 50.856,
        "duration": 0.308,
        "velocity": 1,
        "hand": "right"
      },
      {
        "midi": 52,
        "time": 51.164,
        "duration": 0.103,
        "velocity": 1,
        "hand": "left"
      },
      {
        "midi": 64,
        "time": 51.164,
        "duration": 0.103,
        "velocity": 1,
        "hand": "right"
      },
      {
        "midi": 50,
        "time": 51.267,
        "duration": 0.205,
        "velocity": 1,
        "hand": "left"
      },
      {
        "midi": 62,
        "time": 51.267,
        "duration": 0.205,
        "velocity": 1,
        "hand": "right"
      },
      {
        "midi": 54,
        "time": 51.473,
        "duration": 0.103,
        "velocity": 1,
        "hand": "left"
      },
      {
        "midi": 66,
        "time": 51.473,
        "duration": 0.103,
        "velocity": 1,
        "hand": "right"
      },
      {
        "midi": 57,
        "time": 51.575,
        "duration": 0.103,
        "velocity": 1,
        "hand": "left"
      },
      {
        "midi": 69,
        "time": 51.575,
        "duration": 0.103,
        "velocity": 1,
        "hand": "right"
      },
      {
        "midi": 62,
        "time": 51.678,
        "duration": 0.205,
        "velocity": 1,
        "hand": "right"
      },
      {
        "midi": 74,
        "time": 51.678,
        "duration": 0.205,
        "velocity": 1,
        "hand": "right"
      },
      {
        "midi": 62,
        "time": 51.884,
        "duration": 0.205,
        "velocity": 1,
        "hand": "right"
      },
      {
        "midi": 74,
        "time": 51.884,
        "duration": 0.205,
        "velocity": 1,
        "hand": "right"
      },
      {
        "midi": 62,
        "time": 52.089,
        "duration": 0.411,
        "velocity": 1,
        "hand": "right"
      },
      {
        "midi": 74,
        "time": 52.089,
        "duration": 0.411,
        "velocity": 1,
        "hand": "right"
      },
      {
        "midi": 61,
        "time": 52.911,
        "duration": 0.205,
        "velocity": 1,
        "hand": "right"
      },
      {
        "midi": 62,
        "time": 53.116,
        "duration": 0.205,
        "velocity": 1,
        "hand": "right"
      },
      {
        "midi": 61,
        "time": 53.322,
        "duration": 0.205,
        "velocity": 1,
        "hand": "right"
      },
      {
        "midi": 62,
        "time": 53.527,
        "duration": 0.205,
        "velocity": 1,
        "hand": "right"
      },
      {
        "midi": 61,
        "time": 53.733,
        "duration": 0.205,
        "velocity": 1,
        "hand": "right"
      },
      {
        "midi": 62,
        "time": 53.938,
        "duration": 0.205,
        "velocity": 1,
        "hand": "right"
      },
      {
        "midi": 61,
        "time": 54.144,
        "duration": 0.205,
        "velocity": 1,
        "hand": "right"
      },
      {
        "midi": 62,
        "time": 54.349,
        "duration": 0.205,
        "velocity": 1,
        "hand": "right"
      },
      {
        "midi": 60,
        "time": 54.555,
        "duration": 0.205,
        "velocity": 1,
        "hand": "right"
      },
      {
        "midi": 62,
        "time": 54.76,
        "duration": 0.205,
        "velocity": 1,
        "hand": "right"
      },
      {
        "midi": 59,
        "time": 54.966,
        "duration": 0.205,
        "velocity": 1,
        "hand": "left"
      },
      {
        "midi": 62,
        "time": 55.171,
        "duration": 0.205,
        "velocity": 1,
        "hand": "right"
      },
      {
        "midi": 60,
        "time": 55.377,
        "duration": 0.205,
        "velocity": 1,
        "hand": "right"
      },
      {
        "midi": 62,
        "time": 55.582,
        "duration": 0.205,
        "velocity": 1,
        "hand": "right"
      },
      {
        "midi": 57,
        "time": 55.788,
        "duration": 0.205,
        "velocity": 1,
        "hand": "left"
      },
      {
        "midi": 62,
        "time": 55.993,
        "duration": 0.205,
        "velocity": 1,
        "hand": "right"
      },
      {
        "midi": 55,
        "time": 56.199,
        "duration": 0.205,
        "velocity": 1,
        "hand": "left"
      },
      {
        "midi": 83,
        "time": 56.199,
        "duration": 0.205,
        "velocity": 1,
        "hand": "right"
      },
      {
        "midi": 62,
        "time": 56.404,
        "duration": 0.205,
        "velocity": 1,
        "hand": "right"
      },
      {
        "midi": 84,
        "time": 56.404,
        "duration": 0.205,
        "velocity": 1,
        "hand": "right"
      },
      {
        "midi": 55,
        "time": 56.61,
        "duration": 0.205,
        "velocity": 1,
        "hand": "left"
      },
      {
        "midi": 86,
        "time": 56.61,
        "duration": 0.205,
        "velocity": 1,
        "hand": "right"
      },
      {
        "midi": 62,
        "time": 56.815,
        "duration": 0.205,
        "velocity": 1,
        "hand": "right"
      },
      {
        "midi": 83,
        "time": 56.815,
        "duration": 0.205,
        "velocity": 1,
        "hand": "right"
      },
      {
        "midi": 59,
        "time": 57.021,
        "duration": 0.205,
        "velocity": 1,
        "hand": "left"
      },
      {
        "midi": 79,
        "time": 57.021,
        "duration": 0.822,
        "velocity": 1,
        "hand": "right"
      },
      {
        "midi": 62,
        "time": 57.226,
        "duration": 0.205,
        "velocity": 1,
        "hand": "right"
      },
      {
        "midi": 59,
        "time": 57.432,
        "duration": 0.205,
        "velocity": 1,
        "hand": "left"
      },
      {
        "midi": 62,
        "time": 57.637,
        "duration": 0.205,
        "velocity": 1,
        "hand": "right"
      },
      {
        "midi": 60,
        "time": 57.842,
        "duration": 0.205,
        "velocity": 1,
        "hand": "right"
      },
      {
        "midi": 81,
        "time": 57.842,
        "duration": 0.205,
        "velocity": 1,
        "hand": "right"
      },
      {
        "midi": 62,
        "time": 58.048,
        "duration": 0.205,
        "velocity": 1,
        "hand": "right"
      },
      {
        "midi": 83,
        "time": 58.048,
        "duration": 0.205,
        "velocity": 1,
        "hand": "right"
      },
      {
        "midi": 60,
        "time": 58.253,
        "duration": 0.205,
        "velocity": 1,
        "hand": "right"
      },
      {
        "midi": 84,
        "time": 58.253,
        "duration": 0.205,
        "velocity": 1,
        "hand": "right"
      },
      {
        "midi": 62,
        "time": 58.459,
        "duration": 0.205,
        "velocity": 1,
        "hand": "right"
      },
      {
        "midi": 81,
        "time": 58.459,
        "duration": 0.205,
        "velocity": 1,
        "hand": "right"
      },
      {
        "midi": 57,
        "time": 58.664,
        "duration": 0.205,
        "velocity": 1,
        "hand": "left"
      },
      {
        "midi": 78,
        "time": 58.664,
        "duration": 0.822,
        "velocity": 1,
        "hand": "right"
      },
      {
        "midi": 62,
        "time": 58.87,
        "duration": 0.205,
        "velocity": 1,
        "hand": "right"
      },
      {
        "midi": 57,
        "time": 59.075,
        "duration": 0.205,
        "velocity": 1,
        "hand": "left"
      },
      {
        "midi": 62,
        "time": 59.281,
        "duration": 0.205,
        "velocity": 1,
        "hand": "right"
      },
      {
        "midi": 59,
        "time": 59.486,
        "duration": 0.205,
        "velocity": 1,
        "hand": "left"
      },
      {
        "midi": 79,
        "time": 59.486,
        "duration": 0.103,
        "velocity": 1,
        "hand": "right"
      },
      {
        "midi": 78,
        "time": 59.589,
        "duration": 0.205,
        "velocity": 1,
        "hand": "right"
      },
      {
        "midi": 62,
        "time": 59.692,
        "duration": 0.205,
        "velocity": 1,
        "hand": "right"
      },
      {
        "midi": 55,
        "time": 59.897,
        "duration": 0.205,
        "velocity": 1,
        "hand": "left"
      },
      {
        "midi": 76,
        "time": 59.897,
        "duration": 0.103,
        "velocity": 1,
        "hand": "right"
      },
      {
        "midi": 74,
        "time": 60,
        "duration": 0.205,
        "velocity": 1,
        "hand": "right"
      },
      {
        "midi": 62,
        "time": 60.103,
        "duration": 0.205,
        "velocity": 1,
        "hand": "right"
      },
      {
        "midi": 57,
        "time": 60.308,
        "duration": 0.205,
        "velocity": 1,
        "hand": "left"
      },
      {
        "midi": 71,
        "time": 60.308,
        "duration": 0.103,
        "velocity": 1,
        "hand": "right"
      },
      {
        "midi": 72,
        "time": 60.411,
        "duration": 0.205,
        "velocity": 1,
        "hand": "right"
      },
      {
        "midi": 62,
        "time": 60.514,
        "duration": 0.205,
        "velocity": 1,
        "hand": "right"
      },
      {
        "midi": 54,
        "time": 60.719,
        "duration": 0.205,
        "velocity": 1,
        "hand": "left"
      },
      {
        "midi": 62,
        "time": 60.925,
        "duration": 0.205,
        "velocity": 1,
        "hand": "right"
      },
      {
        "midi": 55,
        "time": 61.13,
        "duration": 0.205,
        "velocity": 1,
        "hand": "left"
      },
      {
        "midi": 72,
        "time": 61.13,
        "duration": 0.103,
        "velocity": 1,
        "hand": "right"
      },
      {
        "midi": 71,
        "time": 61.233,
        "duration": 0.205,
        "velocity": 1,
        "hand": "right"
      },
      {
        "midi": 62,
        "time": 61.336,
        "duration": 0.205,
        "velocity": 1,
        "hand": "right"
      },
      {
        "midi": 52,
        "time": 61.541,
        "duration": 0.205,
        "velocity": 1,
        "hand": "left"
      },
      {
        "midi": 69,
        "time": 61.541,
        "duration": 0.103,
        "velocity": 1,
        "hand": "right"
      },
      {
        "midi": 67,
        "time": 61.644,
        "duration": 0.205,
        "velocity": 1,
        "hand": "right"
      },
      {
        "midi": 61,
        "time": 61.747,
        "duration": 0.205,
        "velocity": 1,
        "hand": "right"
      },
      {
        "midi": 50,
        "time": 61.952,
        "duration": 0.205,
        "velocity": 1,
        "hand": "left"
      },
      {
        "midi": 71,
        "time": 61.952,
        "duration": 0.103,
        "velocity": 1,
        "hand": "right"
      },
      {
        "midi": 69,
        "time": 62.055,
        "duration": 0.205,
        "velocity": 1,
        "hand": "right"
      },
      {
        "midi": 62,
        "time": 62.158,
        "duration": 0.205,
        "velocity": 1,
        "hand": "right"
      },
      {
        "midi": 60,
        "time": 62.363,
        "duration": 0.205,
        "velocity": 1,
        "hand": "right"
      },
      {
        "midi": 57,
        "time": 62.568,
        "duration": 0.205,
        "velocity": 1,
        "hand": "left"
      },
      {
        "midi": 55,
        "time": 62.774,
        "duration": 0.205,
        "velocity": 1,
        "hand": "left"
      },
      {
        "midi": 83,
        "time": 62.774,
        "duration": 0.205,
        "velocity": 1,
        "hand": "right"
      },
      {
        "midi": 62,
        "time": 62.979,
        "duration": 0.205,
        "velocity": 1,
        "hand": "right"
      },
      {
        "midi": 84,
        "time": 62.979,
        "duration": 0.205,
        "velocity": 1,
        "hand": "right"
      },
      {
        "midi": 55,
        "time": 63.185,
        "duration": 0.205,
        "velocity": 1,
        "hand": "left"
      },
      {
        "midi": 86,
        "time": 63.185,
        "duration": 0.205,
        "velocity": 1,
        "hand": "right"
      },
      {
        "midi": 62,
        "time": 63.39,
        "duration": 0.205,
        "velocity": 1,
        "hand": "right"
      },
      {
        "midi": 83,
        "time": 63.39,
        "duration": 0.205,
        "velocity": 1,
        "hand": "right"
      },
      {
        "midi": 59,
        "time": 63.596,
        "duration": 0.205,
        "velocity": 1,
        "hand": "left"
      },
      {
        "midi": 79,
        "time": 63.596,
        "duration": 0.822,
        "velocity": 1,
        "hand": "right"
      },
      {
        "midi": 62,
        "time": 63.801,
        "duration": 0.205,
        "velocity": 1,
        "hand": "right"
      },
      {
        "midi": 59,
        "time": 64.007,
        "duration": 0.205,
        "velocity": 1,
        "hand": "left"
      },
      {
        "midi": 62,
        "time": 64.212,
        "duration": 0.205,
        "velocity": 1,
        "hand": "right"
      },
      {
        "midi": 60,
        "time": 64.418,
        "duration": 0.205,
        "velocity": 1,
        "hand": "right"
      },
      {
        "midi": 81,
        "time": 64.418,
        "duration": 0.205,
        "velocity": 1,
        "hand": "right"
      },
      {
        "midi": 62,
        "time": 64.623,
        "duration": 0.205,
        "velocity": 1,
        "hand": "right"
      },
      {
        "midi": 83,
        "time": 64.623,
        "duration": 0.205,
        "velocity": 1,
        "hand": "right"
      },
      {
        "midi": 60,
        "time": 64.829,
        "duration": 0.205,
        "velocity": 1,
        "hand": "right"
      },
      {
        "midi": 84,
        "time": 64.829,
        "duration": 0.205,
        "velocity": 1,
        "hand": "right"
      },
      {
        "midi": 62,
        "time": 65.034,
        "duration": 0.205,
        "velocity": 1,
        "hand": "right"
      },
      {
        "midi": 81,
        "time": 65.034,
        "duration": 0.205,
        "velocity": 1,
        "hand": "right"
      },
      {
        "midi": 57,
        "time": 65.24,
        "duration": 0.205,
        "velocity": 1,
        "hand": "left"
      },
      {
        "midi": 78,
        "time": 65.24,
        "duration": 0.822,
        "velocity": 1,
        "hand": "right"
      },
      {
        "midi": 62,
        "time": 65.445,
        "duration": 0.205,
        "velocity": 1,
        "hand": "right"
      },
      {
        "midi": 57,
        "time": 65.651,
        "duration": 0.205,
        "velocity": 1,
        "hand": "left"
      },
      {
        "midi": 62,
        "time": 65.856,
        "duration": 0.205,
        "velocity": 1,
        "hand": "right"
      },
      {
        "midi": 59,
        "time": 66.062,
        "duration": 0.205,
        "velocity": 1,
        "hand": "left"
      },
      {
        "midi": 79,
        "time": 66.062,
        "duration": 0.103,
        "velocity": 1,
        "hand": "right"
      },
      {
        "midi": 78,
        "time": 66.164,
        "duration": 0.205,
        "velocity": 1,
        "hand": "right"
      },
      {
        "midi": 62,
        "time": 66.267,
        "duration": 0.205,
        "velocity": 1,
        "hand": "right"
      },
      {
        "midi": 55,
        "time": 66.473,
        "duration": 0.205,
        "velocity": 1,
        "hand": "left"
      },
      {
        "midi": 76,
        "time": 66.473,
        "duration": 0.103,
        "velocity": 1,
        "hand": "right"
      },
      {
        "midi": 74,
        "time": 66.575,
        "duration": 0.205,
        "velocity": 1,
        "hand": "right"
      },
      {
        "midi": 62,
        "time": 66.678,
        "duration": 0.205,
        "velocity": 1,
        "hand": "right"
      },
      {
        "midi": 57,
        "time": 66.884,
        "duration": 0.205,
        "velocity": 1,
        "hand": "left"
      },
      {
        "midi": 71,
        "time": 66.884,
        "duration": 0.103,
        "velocity": 1,
        "hand": "right"
      },
      {
        "midi": 72,
        "time": 66.986,
        "duration": 0.205,
        "velocity": 1,
        "hand": "right"
      },
      {
        "midi": 62,
        "time": 67.089,
        "duration": 0.205,
        "velocity": 1,
        "hand": "right"
      },
      {
        "midi": 54,
        "time": 67.295,
        "duration": 0.205,
        "velocity": 1,
        "hand": "left"
      },
      {
        "midi": 62,
        "time": 67.5,
        "duration": 0.205,
        "velocity": 1,
        "hand": "right"
      },
      {
        "midi": 55,
        "time": 67.705,
        "duration": 0.205,
        "velocity": 1,
        "hand": "left"
      },
      {
        "midi": 72,
        "time": 67.705,
        "duration": 0.103,
        "velocity": 1,
        "hand": "right"
      },
      {
        "midi": 71,
        "time": 67.808,
        "duration": 0.205,
        "velocity": 1,
        "hand": "right"
      },
      {
        "midi": 62,
        "time": 67.911,
        "duration": 0.205,
        "velocity": 1,
        "hand": "right"
      },
      {
        "midi": 52,
        "time": 68.116,
        "duration": 0.205,
        "velocity": 1,
        "hand": "left"
      },
      {
        "midi": 69,
        "time": 68.116,
        "duration": 0.103,
        "velocity": 1,
        "hand": "right"
      },
      {
        "midi": 67,
        "time": 68.219,
        "duration": 0.205,
        "velocity": 1,
        "hand": "right"
      },
      {
        "midi": 61,
        "time": 68.322,
        "duration": 0.205,
        "velocity": 1,
        "hand": "right"
      },
      {
        "midi": 50,
        "time": 68.527,
        "duration": 0.205,
        "velocity": 1,
        "hand": "left"
      },
      {
        "midi": 76,
        "time": 68.527,
        "duration": 0.103,
        "velocity": 1,
        "hand": "right"
      },
      {
        "midi": 74,
        "time": 68.63,
        "duration": 0.205,
        "velocity": 1,
        "hand": "right"
      },
      {
        "midi": 62,
        "time": 68.733,
        "duration": 0.205,
        "velocity": 1,
        "hand": "right"
      },
      {
        "midi": 48,
        "time": 68.938,
        "duration": 0.205,
        "velocity": 1,
        "hand": "left"
      },
      {
        "midi": 60,
        "time": 69.144,
        "duration": 0.205,
        "velocity": 1,
        "hand": "right"
      },
      {
        "midi": 47,
        "time": 69.349,
        "duration": 0.103,
        "velocity": 1,
        "hand": "left"
      },
      {
        "midi": 74,
        "time": 69.349,
        "duration": 0.822,
        "velocity": 1,
        "hand": "right"
      },
      {
        "midi": 86,
        "time": 69.349,
        "duration": 0.822,
        "velocity": 1,
        "hand": "right"
      },
      {
        "midi": 55,
        "time": 69.452,
        "duration": 0.103,
        "velocity": 1,
        "hand": "left"
      },
      {
        "midi": 54,
        "time": 69.555,
        "duration": 0.103,
        "velocity": 1,
        "hand": "left"
      },
      {
        "midi": 55,
        "time": 69.658,
        "duration": 0.103,
        "velocity": 1,
        "hand": "left"
      },
      {
        "midi": 57,
        "time": 69.76,
        "duration": 0.103,
        "velocity": 1,
        "hand": "left"
      },
      {
        "midi": 55,
        "time": 69.863,
        "duration": 0.103,
        "velocity": 1,
        "hand": "left"
      },
      {
        "midi": 54,
        "time": 69.966,
        "duration": 0.103,
        "velocity": 1,
        "hand": "left"
      },
      {
        "midi": 55,
        "time": 70.068,
        "duration": 0.103,
        "velocity": 1,
        "hand": "left"
      },
      {
        "midi": 47,
        "time": 70.171,
        "duration": 0.411,
        "velocity": 1,
        "hand": "left"
      },
      {
        "midi": 84,
        "time": 70.171,
        "duration": 0.205,
        "velocity": 1,
        "hand": "right"
      },
      {
        "midi": 83,
        "time": 70.377,
        "duration": 0.205,
        "velocity": 1,
        "hand": "right"
      },
      {
        "midi": 81,
        "time": 70.582,
        "duration": 0.205,
        "velocity": 1,
        "hand": "right"
      },
      {
        "midi": 79,
        "time": 70.788,
        "duration": 0.205,
        "velocity": 1,
        "hand": "right"
      },
      {
        "midi": 48,
        "time": 70.993,
        "duration": 0.103,
        "velocity": 1,
        "hand": "left"
      },
      {
        "midi": 76,
        "time": 70.993,
        "duration": 0.822,
        "velocity": 1,
        "hand": "right"
      },
      {
        "midi": 88,
        "time": 70.993,
        "duration": 0.822,
        "velocity": 1,
        "hand": "right"
      },
      {
        "midi": 55,
        "time": 71.096,
        "duration": 0.103,
        "velocity": 1,
        "hand": "left"
      },
      {
        "midi": 54,
        "time": 71.199,
        "duration": 0.103,
        "velocity": 1,
        "hand": "left"
      },
      {
        "midi": 55,
        "time": 71.301,
        "duration": 0.103,
        "velocity": 1,
        "hand": "left"
      },
      {
        "midi": 57,
        "time": 71.404,
        "duration": 0.103,
        "velocity": 1,
        "hand": "left"
      },
      {
        "midi": 55,
        "time": 71.507,
        "duration": 0.103,
        "velocity": 1,
        "hand": "left"
      },
      {
        "midi": 54,
        "time": 71.61,
        "duration": 0.103,
        "velocity": 1,
        "hand": "left"
      },
      {
        "midi": 55,
        "time": 71.712,
        "duration": 0.103,
        "velocity": 1,
        "hand": "left"
      },
      {
        "midi": 48,
        "time": 71.815,
        "duration": 0.411,
        "velocity": 1,
        "hand": "left"
      },
      {
        "midi": 86,
        "time": 71.815,
        "duration": 0.205,
        "velocity": 1,
        "hand": "right"
      },
      {
        "midi": 84,
        "time": 72.021,
        "duration": 0.205,
        "velocity": 1,
        "hand": "right"
      },
      {
        "midi": 83,
        "time": 72.226,
        "duration": 0.205,
        "velocity": 1,
        "hand": "right"
      },
      {
        "midi": 81,
        "time": 72.432,
        "duration": 0.205,
        "velocity": 1,
        "hand": "right"
      },
      {
        "midi": 50,
        "time": 72.637,
        "duration": 0.205,
        "velocity": 1,
        "hand": "left"
      },
      {
        "midi": 83,
        "time": 72.637,
        "duration": 0.103,
        "velocity": 1,
        "hand": "right"
      },
      {
        "midi": 84,
        "time": 72.74,
        "duration": 0.103,
        "velocity": 1,
        "hand": "right"
      },
      {
        "midi": 55,
        "time": 72.842,
        "duration": 0.205,
        "velocity": 1,
        "hand": "left"
      },
      {
        "midi": 86,
        "time": 72.842,
        "duration": 0.103,
        "velocity": 1,
        "hand": "right"
      },
      {
        "midi": 83,
        "time": 72.945,
        "duration": 0.103,
        "velocity": 1,
        "hand": "right"
      },
      {
        "midi": 59,
        "time": 73.048,
        "duration": 0.205,
        "velocity": 1,
        "hand": "left"
      },
      {
        "midi": 79,
        "time": 73.048,
        "duration": 0.205,
        "velocity": 1,
        "hand": "right"
      },
      {
        "midi": 55,
        "time": 73.253,
        "duration": 0.205,
        "velocity": 1,
        "hand": "left"
      },
      {
        "midi": 50,
        "time": 73.459,
        "duration": 0.205,
        "velocity": 1,
        "hand": "left"
      },
      {
        "midi": 81,
        "time": 73.459,
        "duration": 0.103,
        "velocity": 1,
        "hand": "right"
      },
      {
        "midi": 83,
        "time": 73.562,
        "duration": 0.103,
        "velocity": 1,
        "hand": "right"
      },
      {
        "midi": 57,
        "time": 73.664,
        "duration": 0.205,
        "velocity": 1,
        "hand": "left"
      },
      {
        "midi": 84,
        "time": 73.664,
        "duration": 0.103,
        "velocity": 1,
        "hand": "right"
      },
      {
        "midi": 81,
        "time": 73.767,
        "duration": 0.103,
        "velocity": 1,
        "hand": "right"
      },
      {
        "midi": 60,
        "time": 73.87,
        "duration": 0.205,
        "velocity": 1,
        "hand": "right"
      },
      {
        "midi": 78,
        "time": 73.87,
        "duration": 0.205,
        "velocity": 1,
        "hand": "right"
      },
      {
        "midi": 57,
        "time": 74.075,
        "duration": 0.205,
        "velocity": 1,
        "hand": "left"
      },
      {
        "midi": 47,
        "time": 74.281,
        "duration": 0.103,
        "velocity": 1,
        "hand": "left"
      },
      {
        "midi": 74,
        "time": 74.281,
        "duration": 0.822,
        "velocity": 1,
        "hand": "right"
      },
      {
        "midi": 86,
        "time": 74.281,
        "duration": 0.822,
        "velocity": 1,
        "hand": "right"
      },
      {
        "midi": 55,
        "time": 74.384,
        "duration": 0.103,
        "velocity": 1,
        "hand": "left"
      },
      {
        "midi": 54,
        "time": 74.486,
        "duration": 0.103,
        "velocity": 1,
        "hand": "left"
      },
      {
        "midi": 55,
        "time": 74.589,
        "duration": 0.103,
        "velocity": 1,
        "hand": "left"
      },
      {
        "midi": 57,
        "time": 74.692,
        "duration": 0.103,
        "velocity": 1,
        "hand": "left"
      },
      {
        "midi": 55,
        "time": 74.795,
        "duration": 0.103,
        "velocity": 1,
        "hand": "left"
      },
      {
        "midi": 54,
        "time": 74.897,
        "duration": 0.103,
        "velocity": 1,
        "hand": "left"
      },
      {
        "midi": 55,
        "time": 75,
        "duration": 0.103,
        "velocity": 1,
        "hand": "left"
      },
      {
        "midi": 47,
        "time": 75.103,
        "duration": 0.411,
        "velocity": 1,
        "hand": "left"
      },
      {
        "midi": 84,
        "time": 75.103,
        "duration": 0.103,
        "velocity": 1,
        "hand": "right"
      },
      {
        "midi": 86,
        "time": 75.205,
        "duration": 0.103,
        "velocity": 1,
        "hand": "right"
      },
      {
        "midi": 84,
        "time": 75.308,
        "duration": 0.103,
        "velocity": 1,
        "hand": "right"
      },
      {
        "midi": 83,
        "time": 75.411,
        "duration": 0.103,
        "velocity": 1,
        "hand": "right"
      },
      {
        "midi": 81,
        "time": 75.514,
        "duration": 0.103,
        "velocity": 1,
        "hand": "right"
      },
      {
        "midi": 83,
        "time": 75.616,
        "duration": 0.103,
        "velocity": 1,
        "hand": "right"
      },
      {
        "midi": 81,
        "time": 75.719,
        "duration": 0.103,
        "velocity": 1,
        "hand": "right"
      },
      {
        "midi": 79,
        "time": 75.822,
        "duration": 0.103,
        "velocity": 1,
        "hand": "right"
      },
      {
        "midi": 48,
        "time": 75.925,
        "duration": 0.103,
        "velocity": 1,
        "hand": "left"
      },
      {
        "midi": 76,
        "time": 75.925,
        "duration": 0.822,
        "velocity": 1,
        "hand": "right"
      },
      {
        "midi": 88,
        "time": 75.925,
        "duration": 0.822,
        "velocity": 1,
        "hand": "right"
      },
      {
        "midi": 55,
        "time": 76.027,
        "duration": 0.103,
        "velocity": 1,
        "hand": "left"
      },
      {
        "midi": 54,
        "time": 76.13,
        "duration": 0.103,
        "velocity": 1,
        "hand": "left"
      },
      {
        "midi": 55,
        "time": 76.233,
        "duration": 0.103,
        "velocity": 1,
        "hand": "left"
      },
      {
        "midi": 57,
        "time": 76.336,
        "duration": 0.103,
        "velocity": 1,
        "hand": "left"
      },
      {
        "midi": 55,
        "time": 76.438,
        "duration": 0.103,
        "velocity": 1,
        "hand": "left"
      },
      {
        "midi": 54,
        "time": 76.541,
        "duration": 0.103,
        "velocity": 1,
        "hand": "left"
      },
      {
        "midi": 55,
        "time": 76.644,
        "duration": 0.103,
        "velocity": 1,
        "hand": "left"
      },
      {
        "midi": 48,
        "time": 76.747,
        "duration": 0.411,
        "velocity": 1,
        "hand": "left"
      },
      {
        "midi": 86,
        "time": 76.747,
        "duration": 0.103,
        "velocity": 1,
        "hand": "right"
      },
      {
        "midi": 88,
        "time": 76.849,
        "duration": 0.103,
        "velocity": 1,
        "hand": "right"
      },
      {
        "midi": 86,
        "time": 76.952,
        "duration": 0.103,
        "velocity": 1,
        "hand": "right"
      },
      {
        "midi": 84,
        "time": 77.055,
        "duration": 0.103,
        "velocity": 1,
        "hand": "right"
      },
      {
        "midi": 83,
        "time": 77.158,
        "duration": 0.103,
        "velocity": 1,
        "hand": "right"
      },
      {
        "midi": 84,
        "time": 77.26,
        "duration": 0.103,
        "velocity": 1,
        "hand": "right"
      },
      {
        "midi": 83,
        "time": 77.363,
        "duration": 0.103,
        "velocity": 1,
        "hand": "right"
      },
      {
        "midi": 81,
        "time": 77.466,
        "duration": 0.103,
        "velocity": 1,
        "hand": "right"
      },
      {
        "midi": 62,
        "time": 77.568,
        "duration": 0.205,
        "velocity": 1,
        "hand": "right"
      },
      {
        "midi": 83,
        "time": 77.568,
        "duration": 0.205,
        "velocity": 1,
        "hand": "right"
      },
      {
        "midi": 67,
        "time": 77.774,
        "duration": 0.205,
        "velocity": 1,
        "hand": "right"
      },
      {
        "midi": 79,
        "time": 77.774,
        "duration": 0.205,
        "velocity": 1,
        "hand": "right"
      },
      {
        "midi": 64,
        "time": 77.979,
        "duration": 0.205,
        "velocity": 1,
        "hand": "right"
      },
      {
        "midi": 84,
        "time": 77.979,
        "duration": 0.411,
        "velocity": 1,
        "hand": "right"
      },
      {
        "midi": 67,
        "time": 78.185,
        "duration": 0.205,
        "velocity": 1,
        "hand": "right"
      },
      {
        "midi": 62,
        "time": 78.39,
        "duration": 0.205,
        "velocity": 1,
        "hand": "right"
      },
      {
        "midi": 83,
        "time": 78.39,
        "duration": 0.205,
        "velocity": 1,
        "hand": "right"
      },
      {
        "midi": 67,
        "time": 78.596,
        "duration": 0.205,
        "velocity": 1,
        "hand": "right"
      },
      {
        "midi": 79,
        "time": 78.596,
        "duration": 0.205,
        "velocity": 1,
        "hand": "right"
      },
      {
        "midi": 60,
        "time": 78.801,
        "duration": 0.205,
        "velocity": 1,
        "hand": "right"
      },
      {
        "midi": 88,
        "time": 78.801,
        "duration": 0.411,
        "velocity": 1,
        "hand": "right"
      },
      {
        "midi": 67,
        "time": 79.007,
        "duration": 0.205,
        "velocity": 1,
        "hand": "right"
      },
      {
        "midi": 59,
        "time": 79.212,
        "duration": 0.205,
        "velocity": 1,
        "hand": "left"
      },
      {
        "midi": 86,
        "time": 79.212,
        "duration": 0.205,
        "velocity": 1,
        "hand": "right"
      },
      {
        "midi": 67,
        "time": 79.418,
        "duration": 0.205,
        "velocity": 1,
        "hand": "right"
      },
      {
        "midi": 79,
        "time": 79.418,
        "duration": 0.205,
        "velocity": 1,
        "hand": "right"
      },
      {
        "midi": 64,
        "time": 79.623,
        "duration": 0.205,
        "velocity": 1,
        "hand": "right"
      },
      {
        "midi": 84,
        "time": 79.623,
        "duration": 0.411,
        "velocity": 1,
        "hand": "right"
      },
      {
        "midi": 67,
        "time": 79.829,
        "duration": 0.205,
        "velocity": 1,
        "hand": "right"
      },
      {
        "midi": 62,
        "time": 80.034,
        "duration": 0.205,
        "velocity": 1,
        "hand": "right"
      },
      {
        "midi": 83,
        "time": 80.034,
        "duration": 0.205,
        "velocity": 1,
        "hand": "right"
      },
      {
        "midi": 67,
        "time": 80.24,
        "duration": 0.205,
        "velocity": 1,
        "hand": "right"
      },
      {
        "midi": 79,
        "time": 80.24,
        "duration": 0.205,
        "velocity": 1,
        "hand": "right"
      },
      {
        "midi": 60,
        "time": 80.445,
        "duration": 0.205,
        "velocity": 1,
        "hand": "right"
      },
      {
        "midi": 88,
        "time": 80.445,
        "duration": 0.411,
        "velocity": 1,
        "hand": "right"
      },
      {
        "midi": 67,
        "time": 80.651,
        "duration": 0.205,
        "velocity": 1,
        "hand": "right"
      },
      {
        "midi": 59,
        "time": 80.856,
        "duration": 0.205,
        "velocity": 1,
        "hand": "left"
      },
      {
        "midi": 62,
        "time": 80.856,
        "duration": 0.205,
        "velocity": 1,
        "hand": "right"
      },
      {
        "midi": 68,
        "time": 80.856,
        "duration": 0.205,
        "velocity": 1,
        "hand": "right"
      },
      {
        "midi": 77,
        "time": 80.856,
        "duration": 0.822,
        "velocity": 1,
        "hand": "right"
      },
      {
        "midi": 89,
        "time": 80.856,
        "duration": 0.822,
        "velocity": 1,
        "hand": "right"
      },
      {
        "midi": 59,
        "time": 81.062,
        "duration": 0.205,
        "velocity": 1,
        "hand": "left"
      },
      {
        "midi": 62,
        "time": 81.062,
        "duration": 0.205,
        "velocity": 1,
        "hand": "right"
      },
      {
        "midi": 68,
        "time": 81.062,
        "duration": 0.205,
        "velocity": 1,
        "hand": "right"
      },
      {
        "midi": 59,
        "time": 81.267,
        "duration": 0.205,
        "velocity": 1,
        "hand": "left"
      },
      {
        "midi": 62,
        "time": 81.267,
        "duration": 0.205,
        "velocity": 1,
        "hand": "right"
      },
      {
        "midi": 68,
        "time": 81.267,
        "duration": 0.205,
        "velocity": 1,
        "hand": "right"
      },
      {
        "midi": 59,
        "time": 81.473,
        "duration": 0.205,
        "velocity": 1,
        "hand": "left"
      },
      {
        "midi": 62,
        "time": 81.473,
        "duration": 0.205,
        "velocity": 1,
        "hand": "right"
      },
      {
        "midi": 68,
        "time": 81.473,
        "duration": 0.205,
        "velocity": 1,
        "hand": "right"
      },
      {
        "midi": 59,
        "time": 81.678,
        "duration": 0.205,
        "velocity": 1,
        "hand": "left"
      },
      {
        "midi": 62,
        "time": 81.678,
        "duration": 0.205,
        "velocity": 1,
        "hand": "right"
      },
      {
        "midi": 68,
        "time": 81.678,
        "duration": 0.205,
        "velocity": 1,
        "hand": "right"
      },
      {
        "midi": 77,
        "time": 81.678,
        "duration": 0.411,
        "velocity": 1,
        "hand": "right"
      },
      {
        "midi": 89,
        "time": 81.678,
        "duration": 0.411,
        "velocity": 1,
        "hand": "right"
      },
      {
        "midi": 59,
        "time": 81.884,
        "duration": 0.205,
        "velocity": 1,
        "hand": "left"
      },
      {
        "midi": 62,
        "time": 81.884,
        "duration": 0.205,
        "velocity": 1,
        "hand": "right"
      },
      {
        "midi": 68,
        "time": 81.884,
        "duration": 0.205,
        "velocity": 1,
        "hand": "right"
      },
      {
        "midi": 59,
        "time": 82.089,
        "duration": 0.205,
        "velocity": 1,
        "hand": "left"
      },
      {
        "midi": 62,
        "time": 82.089,
        "duration": 0.205,
        "velocity": 1,
        "hand": "right"
      },
      {
        "midi": 68,
        "time": 82.089,
        "duration": 0.205,
        "velocity": 1,
        "hand": "right"
      },
      {
        "midi": 77,
        "time": 82.089,
        "duration": 0.411,
        "velocity": 1,
        "hand": "right"
      },
      {
        "midi": 89,
        "time": 82.089,
        "duration": 0.411,
        "velocity": 1,
        "hand": "right"
      },
      {
        "midi": 59,
        "time": 82.295,
        "duration": 0.205,
        "velocity": 1,
        "hand": "left"
      },
      {
        "midi": 62,
        "time": 82.295,
        "duration": 0.205,
        "velocity": 1,
        "hand": "right"
      },
      {
        "midi": 68,
        "time": 82.295,
        "duration": 0.205,
        "velocity": 1,
        "hand": "right"
      },
      {
        "midi": 60,
        "time": 82.5,
        "duration": 0.411,
        "velocity": 1,
        "hand": "right"
      },
      {
        "midi": 64,
        "time": 82.5,
        "duration": 0.411,
        "velocity": 1,
        "hand": "right"
      },
      {
        "midi": 69,
        "time": 82.5,
        "duration": 0.411,
        "velocity": 1,
        "hand": "right"
      },
      {
        "midi": 76,
        "time": 82.5,
        "duration": 0.205,
        "velocity": 1,
        "hand": "right"
      },
      {
        "midi": 88,
        "time": 82.5,
        "duration": 0.205,
        "velocity": 1,
        "hand": "right"
      },
      {
        "midi": 86,
        "time": 82.705,
        "duration": 0.205,
        "velocity": 1,
        "hand": "right"
      },
      {
        "midi": 84,
        "time": 82.911,
        "duration": 0.205,
        "velocity": 1,
        "hand": "right"
      },
      {
        "midi": 83,
        "time": 83.116,
        "duration": 0.205,
        "velocity": 1,
        "hand": "right"
      },
      {
        "midi": 81,
        "time": 83.322,
        "duration": 0.205,
        "velocity": 1,
        "hand": "right"
      },
      {
        "midi": 79,
        "time": 83.527,
        "duration": 0.205,
        "velocity": 1,
        "hand": "right"
      },
      {
        "midi": 78,
        "time": 83.733,
        "duration": 0.205,
        "velocity": 1,
        "hand": "right"
      },
      {
        "midi": 76,
        "time": 83.938,
        "duration": 0.205,
        "velocity": 1,
        "hand": "right"
      },
      {
        "midi": 50,
        "time": 84.144,
        "duration": 0.103,
        "velocity": 1,
        "hand": "left"
      },
      {
        "midi": 74,
        "time": 84.144,
        "duration": 0.205,
        "velocity": 1,
        "hand": "right"
      },
      {
        "midi": 59,
        "time": 84.247,
        "duration": 0.103,
        "velocity": 1,
        "hand": "left"
      },
      {
        "midi": 55,
        "time": 84.349,
        "duration": 0.103,
        "velocity": 1,
        "hand": "left"
      },
      {
        "midi": 76,
        "time": 84.349,
        "duration": 0.103,
        "velocity": 1,
        "hand": "right"
      },
      {
        "midi": 59,
        "time": 84.452,
        "duration": 0.103,
        "velocity": 1,
        "hand": "left"
      },
      {
        "midi": 78,
        "time": 84.452,
        "duration": 0.103,
        "velocity": 1,
        "hand": "right"
      },
      {
        "midi": 50,
        "time": 84.555,
        "duration": 0.103,
        "velocity": 1,
        "hand": "left"
      },
      {
        "midi": 79,
        "time": 84.555,
        "duration": 0.103,
        "velocity": 1,
        "hand": "right"
      },
      {
        "midi": 59,
        "time": 84.658,
        "duration": 0.103,
        "velocity": 1,
        "hand": "left"
      },
      {
        "midi": 81,
        "time": 84.658,
        "duration": 0.103,
        "velocity": 1,
        "hand": "right"
      },
      {
        "midi": 55,
        "time": 84.76,
        "duration": 0.103,
        "velocity": 1,
        "hand": "left"
      },
      {
        "midi": 83,
        "time": 84.76,
        "duration": 0.103,
        "velocity": 1,
        "hand": "right"
      },
      {
        "midi": 59,
        "time": 84.863,
        "duration": 0.103,
        "velocity": 1,
        "hand": "left"
      },
      {
        "midi": 84,
        "time": 84.863,
        "duration": 0.103,
        "velocity": 1,
        "hand": "right"
      },
      {
        "midi": 50,
        "time": 84.966,
        "duration": 0.103,
        "velocity": 1,
        "hand": "left"
      },
      {
        "midi": 86,
        "time": 84.966,
        "duration": 0.103,
        "velocity": 1,
        "hand": "right"
      },
      {
        "midi": 59,
        "time": 85.068,
        "duration": 0.103,
        "velocity": 1,
        "hand": "left"
      },
      {
        "midi": 84,
        "time": 85.068,
        "duration": 0.103,
        "velocity": 1,
        "hand": "right"
      },
      {
        "midi": 55,
        "time": 85.171,
        "duration": 0.103,
        "velocity": 1,
        "hand": "left"
      },
      {
        "midi": 83,
        "time": 85.171,
        "duration": 0.103,
        "velocity": 1,
        "hand": "right"
      },
      {
        "midi": 59,
        "time": 85.274,
        "duration": 0.103,
        "velocity": 1,
        "hand": "left"
      },
      {
        "midi": 84,
        "time": 85.274,
        "duration": 0.103,
        "velocity": 1,
        "hand": "right"
      },
      {
        "midi": 50,
        "time": 85.377,
        "duration": 0.103,
        "velocity": 1,
        "hand": "left"
      },
      {
        "midi": 86,
        "time": 85.377,
        "duration": 0.103,
        "velocity": 1,
        "hand": "right"
      },
      {
        "midi": 59,
        "time": 85.479,
        "duration": 0.103,
        "velocity": 1,
        "hand": "left"
      },
      {
        "midi": 83,
        "time": 85.479,
        "duration": 0.103,
        "velocity": 1,
        "hand": "right"
      },
      {
        "midi": 55,
        "time": 85.582,
        "duration": 0.103,
        "velocity": 1,
        "hand": "left"
      },
      {
        "midi": 81,
        "time": 85.582,
        "duration": 0.103,
        "velocity": 1,
        "hand": "right"
      },
      {
        "midi": 59,
        "time": 85.685,
        "duration": 0.103,
        "velocity": 1,
        "hand": "left"
      },
      {
        "midi": 79,
        "time": 85.685,
        "duration": 0.103,
        "velocity": 1,
        "hand": "right"
      },
      {
        "midi": 50,
        "time": 85.788,
        "duration": 0.103,
        "velocity": 1,
        "hand": "left"
      },
      {
        "midi": 81,
        "time": 85.788,
        "duration": 1.644,
        "velocity": 1,
        "hand": "right"
      },
      {
        "midi": 60,
        "time": 85.89,
        "duration": 0.103,
        "velocity": 1,
        "hand": "right"
      },
      {
        "midi": 54,
        "time": 85.993,
        "duration": 0.103,
        "velocity": 1,
        "hand": "left"
      },
      {
        "midi": 60,
        "time": 86.096,
        "duration": 0.103,
        "velocity": 1,
        "hand": "right"
      },
      {
        "midi": 50,
        "time": 86.199,
        "duration": 0.103,
        "velocity": 1,
        "hand": "left"
      },
      {
        "midi": 60,
        "time": 86.301,
        "duration": 0.103,
        "velocity": 1,
        "hand": "right"
      },
      {
        "midi": 54,
        "time": 86.404,
        "duration": 0.103,
        "velocity": 1,
        "hand": "left"
      },
      {
        "midi": 60,
        "time": 86.507,
        "duration": 0.103,
        "velocity": 1,
        "hand": "right"
      },
      {
        "midi": 50,
        "time": 86.61,
        "duration": 0.103,
        "velocity": 1,
        "hand": "left"
      },
      {
        "midi": 60,
        "time": 86.712,
        "duration": 0.103,
        "velocity": 1,
        "hand": "right"
      },
      {
        "midi": 54,
        "time": 86.815,
        "duration": 0.103,
        "velocity": 1,
        "hand": "left"
      },
      {
        "midi": 60,
        "time": 86.918,
        "duration": 0.103,
        "velocity": 1,
        "hand": "right"
      },
      {
        "midi": 50,
        "time": 87.021,
        "duration": 0.103,
        "velocity": 1,
        "hand": "left"
      },
      {
        "midi": 79,
        "time": 87.021,
        "duration": 0.051,
        "velocity": 1,
        "hand": "right"
      },
      {
        "midi": 60,
        "time": 87.123,
        "duration": 0.103,
        "velocity": 1,
        "hand": "right"
      },
      {
        "midi": 54,
        "time": 87.226,
        "duration": 0.103,
        "velocity": 1,
        "hand": "left"
      },
      {
        "midi": 60,
        "time": 87.329,
        "duration": 0.103,
        "velocity": 1,
        "hand": "right"
      },
      {
        "midi": 55,
        "time": 87.432,
        "duration": 0.411,
        "velocity": 1,
        "hand": "left"
      },
      {
        "midi": 59,
        "time": 87.432,
        "duration": 0.411,
        "velocity": 1,
        "hand": "left"
      },
      {
        "midi": 79,
        "time": 87.432,
        "duration": 0.411,
        "velocity": 1,
        "hand": "right"
      },
      {
        "midi": 67,
        "time": 87.842,
        "duration": 0.411,
        "velocity": 1,
        "hand": "right"
      },
      {
        "midi": 71,
        "time": 88.048,
        "duration": 0.205,
        "velocity": 1,
        "hand": "right"
      },
      {
        "midi": 69,
        "time": 88.253,
        "duration": 0.411,
        "velocity": 1,
        "hand": "right"
      },
      {
        "midi": 74,
        "time": 88.253,
        "duration": 0.205,
        "velocity": 1,
        "hand": "right"
      },
      {
        "midi": 72,
        "time": 88.459,
        "duration": 0.205,
        "velocity": 1,
        "hand": "right"
      },
      {
        "midi": 66,
        "time": 88.664,
        "duration": 0.411,
        "velocity": 1,
        "hand": "right"
      },
      {
        "midi": 69,
        "time": 88.87,
        "duration": 0.205,
        "velocity": 1,
        "hand": "right"
      },
      {
        "midi": 67,
        "time": 89.075,
        "duration": 0.411,
        "velocity": 1,
        "hand": "right"
      },
      {
        "midi": 72,
        "time": 89.075,
        "duration": 0.205,
        "velocity": 1,
        "hand": "right"
      },
      {
        "midi": 71,
        "time": 89.281,
        "duration": 0.205,
        "velocity": 1,
        "hand": "right"
      },
      {
        "midi": 64,
        "time": 89.486,
        "duration": 0.411,
        "velocity": 1,
        "hand": "right"
      },
      {
        "midi": 67,
        "time": 89.692,
        "duration": 0.205,
        "velocity": 1,
        "hand": "right"
      },
      {
        "midi": 60,
        "time": 89.897,
        "duration": 0.411,
        "velocity": 1,
        "hand": "right"
      },
      {
        "midi": 71,
        "time": 89.897,
        "duration": 0.205,
        "velocity": 1,
        "hand": "right"
      },
      {
        "midi": 69,
        "time": 90.103,
        "duration": 0.205,
        "velocity": 1,
        "hand": "right"
      },
      {
        "midi": 62,
        "time": 90.308,
        "duration": 0.411,
        "velocity": 1,
        "hand": "right"
      },
      {
        "midi": 66,
        "time": 90.514,
        "duration": 0.205,
        "velocity": 1,
        "hand": "right"
      },
      {
        "midi": 59,
        "time": 90.719,
        "duration": 0.411,
        "velocity": 1,
        "hand": "left"
      },
      {
        "midi": 69,
        "time": 90.719,
        "duration": 0.205,
        "velocity": 1,
        "hand": "right"
      },
      {
        "midi": 67,
        "time": 90.925,
        "duration": 0.205,
        "velocity": 1,
        "hand": "right"
      },
      {
        "midi": 43,
        "time": 91.13,
        "duration": 0.411,
        "velocity": 1,
        "hand": "left"
      },
      {
        "midi": 55,
        "time": 91.13,
        "duration": 0.411,
        "velocity": 1,
        "hand": "left"
      },
      {
        "midi": 71,
        "time": 91.13,
        "duration": 0.103,
        "velocity": 1,
        "hand": "right"
      },
      {
        "midi": 72,
        "time": 91.233,
        "duration": 0.103,
        "velocity": 1,
        "hand": "right"
      },
      {
        "midi": 74,
        "time": 91.336,
        "duration": 0.103,
        "velocity": 1,
        "hand": "right"
      },
      {
        "midi": 71,
        "time": 91.438,
        "duration": 0.103,
        "velocity": 1,
        "hand": "right"
      },
      {
        "midi": 45,
        "time": 91.541,
        "duration": 0.411,
        "velocity": 1,
        "hand": "left"
      },
      {
        "midi": 57,
        "time": 91.541,
        "duration": 0.411,
        "velocity": 1,
        "hand": "left"
      },
      {
        "midi": 72,
        "time": 91.541,
        "duration": 0.103,
        "velocity": 1,
        "hand": "right"
      },
      {
        "midi": 74,
        "time": 91.644,
        "duration": 0.103,
        "velocity": 1,
        "hand": "right"
      },
      {
        "midi": 76,
        "time": 91.747,
        "duration": 0.103,
        "velocity": 1,
        "hand": "right"
      },
      {
        "midi": 72,
        "time": 91.849,
        "duration": 0.103,
        "velocity": 1,
        "hand": "right"
      },
      {
        "midi": 42,
        "time": 91.952,
        "duration": 0.411,
        "velocity": 1,
        "hand": "left"
      },
      {
        "midi": 54,
        "time": 91.952,
        "duration": 0.411,
        "velocity": 1,
        "hand": "left"
      },
      {
        "midi": 81,
        "time": 91.952,
        "duration": 0.103,
        "velocity": 1,
        "hand": "right"
      },
      {
        "midi": 83,
        "time": 92.055,
        "duration": 0.103,
        "velocity": 1,
        "hand": "right"
      },
      {
        "midi": 84,
        "time": 92.158,
        "duration": 0.103,
        "velocity": 1,
        "hand": "right"
      },
      {
        "midi": 81,
        "time": 92.26,
        "duration": 0.103,
        "velocity": 1,
        "hand": "right"
      },
      {
        "midi": 43,
        "time": 92.363,
        "duration": 0.411,
        "velocity": 1,
        "hand": "left"
      },
      {
        "midi": 55,
        "time": 92.363,
        "duration": 0.411,
        "velocity": 1,
        "hand": "left"
      },
      {
        "midi": 83,
        "time": 92.363,
        "duration": 0.103,
        "velocity": 1,
        "hand": "right"
      },
      {
        "midi": 84,
        "time": 92.466,
        "duration": 0.103,
        "velocity": 1,
        "hand": "right"
      },
      {
        "midi": 86,
        "time": 92.568,
        "duration": 0.103,
        "velocity": 1,
        "hand": "right"
      },
      {
        "midi": 83,
        "time": 92.671,
        "duration": 0.103,
        "velocity": 1,
        "hand": "right"
      },
      {
        "midi": 40,
        "time": 92.774,
        "duration": 0.411,
        "velocity": 1,
        "hand": "left"
      },
      {
        "midi": 52,
        "time": 92.774,
        "duration": 0.411,
        "velocity": 1,
        "hand": "left"
      },
      {
        "midi": 67,
        "time": 92.774,
        "duration": 0.103,
        "velocity": 1,
        "hand": "right"
      },
      {
        "midi": 69,
        "time": 92.877,
        "duration": 0.103,
        "velocity": 1,
        "hand": "right"
      },
      {
        "midi": 71,
        "time": 92.979,
        "duration": 0.103,
        "velocity": 1,
        "hand": "right"
      },
      {
        "midi": 67,
        "time": 93.082,
        "duration": 0.103,
        "velocity": 1,
        "hand": "right"
      },
      {
        "midi": 36,
        "time": 93.185,
        "duration": 0.411,
        "velocity": 1,
        "hand": "left"
      },
      {
        "midi": 48,
        "time": 93.185,
        "duration": 0.411,
        "velocity": 1,
        "hand": "left"
      },
      {
        "midi": 69,
        "time": 93.185,
        "duration": 0.103,
        "velocity": 1,
        "hand": "right"
      },
      {
        "midi": 71,
        "time": 93.288,
        "duration": 0.103,
        "velocity": 1,
        "hand": "right"
      },
      {
        "midi": 72,
        "time": 93.39,
        "duration": 0.103,
        "velocity": 1,
        "hand": "right"
      },
      {
        "midi": 69,
        "time": 93.493,
        "duration": 0.103,
        "velocity": 1,
        "hand": "right"
      },
      {
        "midi": 38,
        "time": 93.596,
        "duration": 0.411,
        "velocity": 1,
        "hand": "left"
      },
      {
        "midi": 50,
        "time": 93.596,
        "duration": 0.411,
        "velocity": 1,
        "hand": "left"
      },
      {
        "midi": 78,
        "time": 93.596,
        "duration": 0.103,
        "velocity": 1,
        "hand": "right"
      },
      {
        "midi": 79,
        "time": 93.699,
        "duration": 0.103,
        "velocity": 1,
        "hand": "right"
      },
      {
        "midi": 81,
        "time": 93.801,
        "duration": 0.103,
        "velocity": 1,
        "hand": "right"
      },
      {
        "midi": 78,
        "time": 93.904,
        "duration": 0.103,
        "velocity": 1,
        "hand": "right"
      },
      {
        "midi": 43,
        "time": 94.007,
        "duration": 0.411,
        "velocity": 1,
        "hand": "left"
      },
      {
        "midi": 79,
        "time": 94.007,
        "duration": 0.411,
        "velocity": 1,
        "hand": "right"
      },
      {
        "midi": 43,
        "time": 94.418,
        "duration": 0.411,
        "velocity": 1,
        "hand": "left"
      },
      {
        "midi": 55,
        "time": 94.418,
        "duration": 0.411,
        "velocity": 1,
        "hand": "left"
      },
      {
        "midi": 74,
        "time": 94.418,
        "duration": 0.411,
        "velocity": 1,
        "hand": "right"
      },
      {
        "midi": 79,
        "time": 94.418,
        "duration": 0.411,
        "velocity": 1,
        "hand": "right"
      },
      {
        "midi": 83,
        "time": 94.418,
        "duration": 0.411,
        "velocity": 1,
        "hand": "right"
      },
      {
        "midi": 43,
        "time": 94.829,
        "duration": 0.411,
        "velocity": 1,
        "hand": "left"
      },
      {
        "midi": 55,
        "time": 94.829,
        "duration": 0.411,
        "velocity": 1,
        "hand": "left"
      },
      {
        "midi": 71,
        "time": 94.829,
        "duration": 0.411,
        "velocity": 1,
        "hand": "right"
      },
      {
        "midi": 74,
        "time": 94.829,
        "duration": 0.411,
        "velocity": 1,
        "hand": "right"
      },
      {
        "midi": 79,
        "time": 94.829,
        "duration": 0.411,
        "velocity": 1,
        "hand": "right"
      },
      {
        "midi": 55,
        "time": 95.651,
        "duration": 0.051,
        "velocity": 1,
        "hand": "left"
      },
      {
        "midi": 58,
        "time": 95.651,
        "duration": 0.051,
        "velocity": 1,
        "hand": "left"
      },
      {
        "midi": 31,
        "time": 95.753,
        "duration": 0.822,
        "velocity": 1,
        "hand": "left"
      },
      {
        "midi": 43,
        "time": 95.753,
        "duration": 0.822,
        "velocity": 1,
        "hand": "left"
      },
      {
        "midi": 62,
        "time": 95.753,
        "duration": 0.051,
        "velocity": 1,
        "hand": "right"
      },
      {
        "midi": 67,
        "time": 95.753,
        "duration": 0.822,
        "velocity": 1,
        "hand": "right"
      },
      {
        "midi": 38,
        "time": 96.575,
        "duration": 0.822,
        "velocity": 1,
        "hand": "left"
      },
      {
        "midi": 62,
        "time": 96.575,
        "duration": 0.822,
        "velocity": 1,
        "hand": "right"
      },
      {
        "midi": 46,
        "time": 97.397,
        "duration": 0.616,
        "velocity": 1,
        "hand": "left"
      },
      {
        "midi": 70,
        "time": 97.397,
        "duration": 0.616,
        "velocity": 1,
        "hand": "right"
      },
      {
        "midi": 48,
        "time": 98.014,
        "duration": 0.103,
        "velocity": 1,
        "hand": "left"
      },
      {
        "midi": 72,
        "time": 98.014,
        "duration": 0.103,
        "velocity": 1,
        "hand": "right"
      },
      {
        "midi": 45,
        "time": 98.116,
        "duration": 0.103,
        "velocity": 1,
        "hand": "left"
      },
      {
        "midi": 69,
        "time": 98.116,
        "duration": 0.103,
        "velocity": 1,
        "hand": "right"
      },
      {
        "midi": 43,
        "time": 98.219,
        "duration": 0.411,
        "velocity": 1,
        "hand": "left"
      },
      {
        "midi": 67,
        "time": 98.219,
        "duration": 0.411,
        "velocity": 1,
        "hand": "right"
      },
      {
        "midi": 70,
        "time": 99.041,
        "duration": 0.616,
        "velocity": 1,
        "hand": "right"
      },
      {
        "midi": 74,
        "time": 99.041,
        "duration": 0.616,
        "velocity": 1,
        "hand": "right"
      },
      {
        "midi": 72,
        "time": 99.658,
        "duration": 0.103,
        "velocity": 1,
        "hand": "right"
      },
      {
        "midi": 75,
        "time": 99.658,
        "duration": 0.103,
        "velocity": 1,
        "hand": "right"
      },
      {
        "midi": 69,
        "time": 99.76,
        "duration": 0.103,
        "velocity": 1,
        "hand": "right"
      },
      {
        "midi": 72,
        "time": 99.76,
        "duration": 0.103,
        "velocity": 1,
        "hand": "right"
      },
      {
        "midi": 67,
        "time": 99.863,
        "duration": 0.411,
        "velocity": 1,
        "hand": "right"
      },
      {
        "midi": 70,
        "time": 99.863,
        "duration": 0.411,
        "velocity": 1,
        "hand": "right"
      },
      {
        "midi": 74,
        "time": 100.685,
        "duration": 0.616,
        "velocity": 1,
        "hand": "right"
      },
      {
        "midi": 82,
        "time": 100.685,
        "duration": 0.616,
        "velocity": 1,
        "hand": "right"
      },
      {
        "midi": 75,
        "time": 101.301,
        "duration": 0.103,
        "velocity": 1,
        "hand": "right"
      },
      {
        "midi": 84,
        "time": 101.301,
        "duration": 0.103,
        "velocity": 1,
        "hand": "right"
      },
      {
        "midi": 72,
        "time": 101.404,
        "duration": 0.103,
        "velocity": 1,
        "hand": "right"
      },
      {
        "midi": 81,
        "time": 101.404,
        "duration": 0.103,
        "velocity": 1,
        "hand": "right"
      },
      {
        "midi": 70,
        "time": 101.507,
        "duration": 0.411,
        "velocity": 1,
        "hand": "right"
      },
      {
        "midi": 79,
        "time": 101.507,
        "duration": 0.411,
        "velocity": 1,
        "hand": "right"
      },
      {
        "midi": 58,
        "time": 102.329,
        "duration": 0.205,
        "velocity": 1,
        "hand": "left"
      },
      {
        "midi": 62,
        "time": 102.329,
        "duration": 0.205,
        "velocity": 1,
        "hand": "right"
      },
      {
        "midi": 67,
        "time": 102.534,
        "duration": 0.205,
        "velocity": 1,
        "hand": "right"
      },
      {
        "midi": 58,
        "time": 102.74,
        "duration": 0.205,
        "velocity": 1,
        "hand": "left"
      },
      {
        "midi": 62,
        "time": 102.74,
        "duration": 0.205,
        "velocity": 1,
        "hand": "right"
      },
      {
        "midi": 79,
        "time": 102.74,
        "duration": 0.411,
        "velocity": 1,
        "hand": "right"
      },
      {
        "midi": 67,
        "time": 102.945,
        "duration": 0.205,
        "velocity": 1,
        "hand": "right"
      },
      {
        "midi": 58,
        "time": 103.151,
        "duration": 0.205,
        "velocity": 1,
        "hand": "left"
      },
      {
        "midi": 62,
        "time": 103.151,
        "duration": 0.205,
        "velocity": 1,
        "hand": "right"
      },
      {
        "midi": 86,
        "time": 103.151,
        "duration": 0.411,
        "velocity": 1,
        "hand": "right"
      },
      {
        "midi": 67,
        "time": 103.356,
        "duration": 0.205,
        "velocity": 1,
        "hand": "right"
      },
      {
        "midi": 58,
        "time": 103.562,
        "duration": 0.205,
        "velocity": 1,
        "hand": "left"
      },
      {
        "midi": 62,
        "time": 103.562,
        "duration": 0.205,
        "velocity": 1,
        "hand": "right"
      },
      {
        "midi": 88,
        "time": 103.562,
        "duration": 0.411,
        "velocity": 1,
        "hand": "right"
      },
      {
        "midi": 67,
        "time": 103.767,
        "duration": 0.205,
        "velocity": 1,
        "hand": "right"
      },
      {
        "midi": 57,
        "time": 103.973,
        "duration": 0.205,
        "velocity": 1,
        "hand": "left"
      },
      {
        "midi": 64,
        "time": 103.973,
        "duration": 0.205,
        "velocity": 1,
        "hand": "right"
      },
      {
        "midi": 86,
        "time": 103.973,
        "duration": 0.822,
        "velocity": 1,
        "hand": "right"
      },
      {
        "midi": 67,
        "time": 104.178,
        "duration": 0.205,
        "velocity": 1,
        "hand": "right"
      },
      {
        "midi": 57,
        "time": 104.384,
        "duration": 0.205,
        "velocity": 1,
        "hand": "left"
      },
      {
        "midi": 64,
        "time": 104.384,
        "duration": 0.205,
        "velocity": 1,
        "hand": "right"
      },
      {
        "midi": 67,
        "time": 104.589,
        "duration": 0.205,
        "velocity": 1,
        "hand": "right"
      },
      {
        "midi": 57,
        "time": 104.795,
        "duration": 0.205,
        "velocity": 1,
        "hand": "left"
      },
      {
        "midi": 64,
        "time": 104.795,
        "duration": 0.205,
        "velocity": 1,
        "hand": "right"
      },
      {
        "midi": 85,
        "time": 104.795,
        "duration": 0.411,
        "velocity": 1,
        "hand": "right"
      },
      {
        "midi": 67,
        "time": 105,
        "duration": 0.205,
        "velocity": 1,
        "hand": "right"
      },
      {
        "midi": 57,
        "time": 105.205,
        "duration": 0.205,
        "velocity": 1,
        "hand": "left"
      },
      {
        "midi": 64,
        "time": 105.205,
        "duration": 0.205,
        "velocity": 1,
        "hand": "right"
      },
      {
        "midi": 67,
        "time": 105.411,
        "duration": 0.205,
        "velocity": 1,
        "hand": "right"
      },
      {
        "midi": 58,
        "time": 105.616,
        "duration": 0.205,
        "velocity": 1,
        "hand": "left"
      },
      {
        "midi": 62,
        "time": 105.616,
        "duration": 0.205,
        "velocity": 1,
        "hand": "right"
      },
      {
        "midi": 67,
        "time": 105.822,
        "duration": 0.205,
        "velocity": 1,
        "hand": "right"
      },
      {
        "midi": 79,
        "time": 105.925,
        "duration": 0.103,
        "velocity": 1,
        "hand": "right"
      },
      {
        "midi": 58,
        "time": 106.027,
        "duration": 0.205,
        "velocity": 1,
        "hand": "left"
      },
      {
        "midi": 62,
        "time": 106.027,
        "duration": 0.205,
        "velocity": 1,
        "hand": "right"
      },
      {
        "midi": 79,
        "time": 106.027,
        "duration": 0.308,
        "velocity": 1,
        "hand": "right"
      },
      {
        "midi": 67,
        "time": 106.233,
        "duration": 0.205,
        "velocity": 1,
        "hand": "right"
      },
      {
        "midi": 78,
        "time": 106.336,
        "duration": 0.051,
        "velocity": 1,
        "hand": "right"
      },
      {
        "midi": 58,
        "time": 106.438,
        "duration": 0.205,
        "velocity": 1,
        "hand": "left"
      },
      {
        "midi": 62,
        "time": 106.438,
        "duration": 0.205,
        "velocity": 1,
        "hand": "right"
      },
      {
        "midi": 79,
        "time": 106.438,
        "duration": 0.051,
        "velocity": 1,
        "hand": "right"
      },
      {
        "midi": 86,
        "time": 106.438,
        "duration": 0.411,
        "velocity": 1,
        "hand": "right"
      },
      {
        "midi": 67,
        "time": 106.644,
        "duration": 0.205,
        "velocity": 1,
        "hand": "right"
      },
      {
        "midi": 58,
        "time": 106.849,
        "duration": 0.205,
        "velocity": 1,
        "hand": "left"
      },
      {
        "midi": 62,
        "time": 106.849,
        "duration": 0.205,
        "velocity": 1,
        "hand": "right"
      },
      {
        "midi": 88,
        "time": 106.849,
        "duration": 0.411,
        "velocity": 1,
        "hand": "right"
      },
      {
        "midi": 67,
        "time": 107.055,
        "duration": 0.205,
        "velocity": 1,
        "hand": "right"
      },
      {
        "midi": 57,
        "time": 107.26,
        "duration": 0.205,
        "velocity": 1,
        "hand": "left"
      },
      {
        "midi": 64,
        "time": 107.26,
        "duration": 0.205,
        "velocity": 1,
        "hand": "right"
      },
      {
        "midi": 86,
        "time": 107.26,
        "duration": 0.822,
        "velocity": 1,
        "hand": "right"
      },
      {
        "midi": 67,
        "time": 107.466,
        "duration": 0.205,
        "velocity": 1,
        "hand": "right"
      },
      {
        "midi": 57,
        "time": 107.671,
        "duration": 0.205,
        "velocity": 1,
        "hand": "left"
      },
      {
        "midi": 64,
        "time": 107.671,
        "duration": 0.205,
        "velocity": 1,
        "hand": "right"
      },
      {
        "midi": 67,
        "time": 107.877,
        "duration": 0.205,
        "velocity": 1,
        "hand": "right"
      },
      {
        "midi": 57,
        "time": 108.082,
        "duration": 0.205,
        "velocity": 1,
        "hand": "left"
      },
      {
        "midi": 64,
        "time": 108.082,
        "duration": 0.205,
        "velocity": 1,
        "hand": "right"
      },
      {
        "midi": 85,
        "time": 108.082,
        "duration": 0.411,
        "velocity": 1,
        "hand": "right"
      },
      {
        "midi": 67,
        "time": 108.288,
        "duration": 0.205,
        "velocity": 1,
        "hand": "right"
      },
      {
        "midi": 57,
        "time": 108.493,
        "duration": 0.205,
        "velocity": 1,
        "hand": "left"
      },
      {
        "midi": 64,
        "time": 108.493,
        "duration": 0.205,
        "velocity": 1,
        "hand": "right"
      },
      {
        "midi": 67,
        "time": 108.699,
        "duration": 0.205,
        "velocity": 1,
        "hand": "right"
      },
      {
        "midi": 50,
        "time": 108.904,
        "duration": 0.051,
        "velocity": 1,
        "hand": "left"
      },
      {
        "midi": 53,
        "time": 109.007,
        "duration": 0.051,
        "velocity": 1,
        "hand": "left"
      },
      {
        "midi": 57,
        "time": 109.007,
        "duration": 0.051,
        "velocity": 1,
        "hand": "left"
      },
      {
        "midi": 38,
        "time": 109.11,
        "duration": 0.822,
        "velocity": 1,
        "hand": "left"
      },
      {
        "midi": 62,
        "time": 109.11,
        "duration": 0.822,
        "velocity": 1,
        "hand": "right"
      },
      {
        "midi": 45,
        "time": 109.932,
        "duration": 0.822,
        "velocity": 1,
        "hand": "left"
      },
      {
        "midi": 57,
        "time": 109.932,
        "duration": 0.822,
        "velocity": 1,
        "hand": "left"
      },
      {
        "midi": 53,
        "time": 110.753,
        "duration": 0.616,
        "velocity": 1,
        "hand": "left"
      },
      {
        "midi": 65,
        "time": 110.753,
        "duration": 0.616,
        "velocity": 1,
        "hand": "right"
      },
      {
        "midi": 55,
        "time": 111.37,
        "duration": 0.103,
        "velocity": 1,
        "hand": "left"
      },
      {
        "midi": 67,
        "time": 111.37,
        "duration": 0.103,
        "velocity": 1,
        "hand": "right"
      },
      {
        "midi": 52,
        "time": 111.473,
        "duration": 0.103,
        "velocity": 1,
        "hand": "left"
      },
      {
        "midi": 64,
        "time": 111.473,
        "duration": 0.103,
        "velocity": 1,
        "hand": "right"
      },
      {
        "midi": 50,
        "time": 111.575,
        "duration": 0.411,
        "velocity": 1,
        "hand": "left"
      },
      {
        "midi": 62,
        "time": 111.575,
        "duration": 0.411,
        "velocity": 1,
        "hand": "right"
      },
      {
        "midi": 53,
        "time": 112.397,
        "duration": 0.411,
        "velocity": 1,
        "hand": "left"
      },
      {
        "midi": 57,
        "time": 112.397,
        "duration": 0.205,
        "velocity": 1,
        "hand": "left"
      },
      {
        "midi": 62,
        "time": 112.603,
        "duration": 0.205,
        "velocity": 1,
        "hand": "right"
      },
      {
        "midi": 74,
        "time": 112.705,
        "duration": 0.103,
        "velocity": 1,
        "hand": "right"
      },
      {
        "midi": 53,
        "time": 112.808,
        "duration": 0.411,
        "velocity": 1,
        "hand": "left"
      },
      {
        "midi": 57,
        "time": 112.808,
        "duration": 0.205,
        "velocity": 1,
        "hand": "left"
      },
      {
        "midi": 74,
        "time": 112.808,
        "duration": 0.308,
        "velocity": 1,
        "hand": "right"
      },
      {
        "midi": 62,
        "time": 113.014,
        "duration": 0.205,
        "velocity": 1,
        "hand": "right"
      },
      {
        "midi": 73,
        "time": 113.116,
        "duration": 0.051,
        "velocity": 1,
        "hand": "right"
      },
      {
        "midi": 74,
        "time": 113.116,
        "duration": 0.051,
        "velocity": 1,
        "hand": "right"
      },
      {
        "midi": 53,
        "time": 113.219,
        "duration": 0.411,
        "velocity": 1,
        "hand": "left"
      },
      {
        "midi": 57,
        "time": 113.219,
        "duration": 0.205,
        "velocity": 1,
        "hand": "left"
      },
      {
        "midi": 81,
        "time": 113.219,
        "duration": 0.411,
        "velocity": 1,
        "hand": "right"
      },
      {
        "midi": 62,
        "time": 113.425,
        "duration": 0.205,
        "velocity": 1,
        "hand": "right"
      },
      {
        "midi": 53,
        "time": 113.63,
        "duration": 0.411,
        "velocity": 1,
        "hand": "left"
      },
      {
        "midi": 57,
        "time": 113.63,
        "duration": 0.205,
        "velocity": 1,
        "hand": "left"
      },
      {
        "midi": 83,
        "time": 113.63,
        "duration": 0.411,
        "velocity": 1,
        "hand": "right"
      },
      {
        "midi": 62,
        "time": 113.836,
        "duration": 0.205,
        "velocity": 1,
        "hand": "right"
      },
      {
        "midi": 52,
        "time": 114.041,
        "duration": 0.411,
        "velocity": 1,
        "hand": "left"
      },
      {
        "midi": 59,
        "time": 114.041,
        "duration": 0.205,
        "velocity": 1,
        "hand": "left"
      },
      {
        "midi": 81,
        "time": 114.041,
        "duration": 0.822,
        "velocity": 1,
        "hand": "right"
      },
      {
        "midi": 62,
        "time": 114.247,
        "duration": 0.205,
        "velocity": 1,
        "hand": "right"
      },
      {
        "midi": 52,
        "time": 114.452,
        "duration": 0.411,
        "velocity": 1,
        "hand": "left"
      },
      {
        "midi": 59,
        "time": 114.452,
        "duration": 0.205,
        "velocity": 1,
        "hand": "left"
      },
      {
        "midi": 62,
        "time": 114.658,
        "duration": 0.205,
        "velocity": 1,
        "hand": "right"
      },
      {
        "midi": 52,
        "time": 114.863,
        "duration": 0.411,
        "velocity": 1,
        "hand": "left"
      },
      {
        "midi": 59,
        "time": 114.863,
        "duration": 0.205,
        "velocity": 1,
        "hand": "left"
      },
      {
        "midi": 80,
        "time": 114.863,
        "duration": 0.411,
        "velocity": 1,
        "hand": "right"
      },
      {
        "midi": 62,
        "time": 115.068,
        "duration": 0.205,
        "velocity": 1,
        "hand": "right"
      },
      {
        "midi": 52,
        "time": 115.274,
        "duration": 0.411,
        "velocity": 1,
        "hand": "left"
      },
      {
        "midi": 59,
        "time": 115.274,
        "duration": 0.205,
        "velocity": 1,
        "hand": "left"
      },
      {
        "midi": 62,
        "time": 115.479,
        "duration": 0.205,
        "velocity": 1,
        "hand": "right"
      },
      {
        "midi": 53,
        "time": 115.685,
        "duration": 0.411,
        "velocity": 1,
        "hand": "left"
      },
      {
        "midi": 57,
        "time": 115.685,
        "duration": 0.205,
        "velocity": 1,
        "hand": "left"
      },
      {
        "midi": 62,
        "time": 115.89,
        "duration": 0.205,
        "velocity": 1,
        "hand": "right"
      },
      {
        "midi": 81,
        "time": 115.89,
        "duration": 0.205,
        "velocity": 1,
        "hand": "right"
      },
      {
        "midi": 53,
        "time": 116.096,
        "duration": 0.411,
        "velocity": 1,
        "hand": "left"
      },
      {
        "midi": 57,
        "time": 116.096,
        "duration": 0.205,
        "velocity": 1,
        "hand": "left"
      },
      {
        "midi": 86,
        "time": 116.096,
        "duration": 0.205,
        "velocity": 1,
        "hand": "right"
      },
      {
        "midi": 62,
        "time": 116.301,
        "duration": 0.205,
        "velocity": 1,
        "hand": "right"
      },
      {
        "midi": 85,
        "time": 116.301,
        "duration": 0.205,
        "velocity": 1,
        "hand": "right"
      },
      {
        "midi": 53,
        "time": 116.507,
        "duration": 0.411,
        "velocity": 1,
        "hand": "left"
      },
      {
        "midi": 57,
        "time": 116.507,
        "duration": 0.205,
        "velocity": 1,
        "hand": "left"
      },
      {
        "midi": 88,
        "time": 116.507,
        "duration": 0.205,
        "velocity": 1,
        "hand": "right"
      },
      {
        "midi": 62,
        "time": 116.712,
        "duration": 0.205,
        "velocity": 1,
        "hand": "right"
      },
      {
        "midi": 86,
        "time": 116.712,
        "duration": 0.205,
        "velocity": 1,
        "hand": "right"
      },
      {
        "midi": 53,
        "time": 116.918,
        "duration": 0.411,
        "velocity": 1,
        "hand": "left"
      },
      {
        "midi": 57,
        "time": 116.918,
        "duration": 0.205,
        "velocity": 1,
        "hand": "left"
      },
      {
        "midi": 84,
        "time": 116.918,
        "duration": 0.205,
        "velocity": 1,
        "hand": "right"
      },
      {
        "midi": 62,
        "time": 117.123,
        "duration": 0.205,
        "velocity": 1,
        "hand": "right"
      },
      {
        "midi": 83,
        "time": 117.123,
        "duration": 0.205,
        "velocity": 1,
        "hand": "right"
      },
      {
        "midi": 52,
        "time": 117.329,
        "duration": 0.411,
        "velocity": 1,
        "hand": "left"
      },
      {
        "midi": 59,
        "time": 117.329,
        "duration": 0.205,
        "velocity": 1,
        "hand": "left"
      },
      {
        "midi": 81,
        "time": 117.329,
        "duration": 0.822,
        "velocity": 1,
        "hand": "right"
      },
      {
        "midi": 62,
        "time": 117.534,
        "duration": 0.205,
        "velocity": 1,
        "hand": "right"
      },
      {
        "midi": 52,
        "time": 117.74,
        "duration": 0.411,
        "velocity": 1,
        "hand": "left"
      },
      {
        "midi": 59,
        "time": 117.74,
        "duration": 0.205,
        "velocity": 1,
        "hand": "left"
      },
      {
        "midi": 62,
        "time": 117.945,
        "duration": 0.205,
        "velocity": 1,
        "hand": "right"
      },
      {
        "midi": 52,
        "time": 118.151,
        "duration": 0.411,
        "velocity": 1,
        "hand": "left"
      },
      {
        "midi": 59,
        "time": 118.151,
        "duration": 0.205,
        "velocity": 1,
        "hand": "left"
      },
      {
        "midi": 80,
        "time": 118.151,
        "duration": 0.411,
        "velocity": 1,
        "hand": "right"
      },
      {
        "midi": 81,
        "time": 118.151,
        "duration": 0.051,
        "velocity": 1,
        "hand": "right"
      },
      {
        "midi": 83,
        "time": 118.151,
        "duration": 0.051,
        "velocity": 1,
        "hand": "right"
      },
      {
        "midi": 62,
        "time": 118.356,
        "duration": 0.205,
        "velocity": 1,
        "hand": "right"
      },
      {
        "midi": 52,
        "time": 118.562,
        "duration": 0.411,
        "velocity": 1,
        "hand": "left"
      },
      {
        "midi": 59,
        "time": 118.562,
        "duration": 0.205,
        "velocity": 1,
        "hand": "left"
      },
      {
        "midi": 62,
        "time": 118.767,
        "duration": 0.205,
        "velocity": 1,
        "hand": "right"
      },
      {
        "midi": 57,
        "time": 118.973,
        "duration": 0.103,
        "velocity": 1,
        "hand": "left"
      },
      {
        "midi": 72,
        "time": 118.973,
        "duration": 0.822,
        "velocity": 1,
        "hand": "right"
      },
      {
        "midi": 84,
        "time": 118.973,
        "duration": 0.822,
        "velocity": 1,
        "hand": "right"
      },
      {
        "midi": 64,
        "time": 119.075,
        "duration": 0.103,
        "velocity": 1,
        "hand": "right"
      },
      {
        "midi": 60,
        "time": 119.178,
        "duration": 0.103,
        "velocity": 1,
        "hand": "right"
      },
      {
        "midi": 64,
        "time": 119.281,
        "duration": 0.103,
        "velocity": 1,
        "hand": "right"
      },
      {
        "midi": 57,
        "time": 119.384,
        "duration": 0.103,
        "velocity": 1,
        "hand": "left"
      },
      {
        "midi": 64,
        "time": 119.486,
        "duration": 0.103,
        "velocity": 1,
        "hand": "right"
      },
      {
        "midi": 60,
        "time": 119.589,
        "duration": 0.103,
        "velocity": 1,
        "hand": "right"
      },
      {
        "midi": 64,
        "time": 119.692,
        "duration": 0.103,
        "velocity": 1,
        "hand": "right"
      },
      {
        "midi": 57,
        "time": 119.795,
        "duration": 0.103,
        "velocity": 1,
        "hand": "left"
      },
      {
        "midi": 69,
        "time": 119.795,
        "duration": 0.822,
        "velocity": 1,
        "hand": "right"
      },
      {
        "midi": 81,
        "time": 119.795,
        "duration": 0.822,
        "velocity": 1,
        "hand": "right"
      },
      {
        "midi": 65,
        "time": 119.897,
        "duration": 0.103,
        "velocity": 1,
        "hand": "right"
      },
      {
        "midi": 60,
        "time": 120,
        "duration": 0.103,
        "velocity": 1,
        "hand": "right"
      },
      {
        "midi": 65,
        "time": 120.103,
        "duration": 0.103,
        "velocity": 1,
        "hand": "right"
      },
      {
        "midi": 57,
        "time": 120.205,
        "duration": 0.103,
        "velocity": 1,
        "hand": "left"
      },
      {
        "midi": 65,
        "time": 120.308,
        "duration": 0.103,
        "velocity": 1,
        "hand": "right"
      },
      {
        "midi": 60,
        "time": 120.411,
        "duration": 0.103,
        "velocity": 1,
        "hand": "right"
      },
      {
        "midi": 65,
        "time": 120.514,
        "duration": 0.103,
        "velocity": 1,
        "hand": "right"
      },
      {
        "midi": 57,
        "time": 120.616,
        "duration": 0.103,
        "velocity": 1,
        "hand": "left"
      },
      {
        "midi": 87,
        "time": 120.616,
        "duration": 0.616,
        "velocity": 1,
        "hand": "right"
      },
      {
        "midi": 66,
        "time": 120.719,
        "duration": 0.103,
        "velocity": 1,
        "hand": "right"
      },
      {
        "midi": 60,
        "time": 120.822,
        "duration": 0.103,
        "velocity": 1,
        "hand": "right"
      },
      {
        "midi": 66,
        "time": 120.925,
        "duration": 0.103,
        "velocity": 1,
        "hand": "right"
      },
      {
        "midi": 57,
        "time": 121.027,
        "duration": 0.103,
        "velocity": 1,
        "hand": "left"
      },
      {
        "midi": 66,
        "time": 121.13,
        "duration": 0.103,
        "velocity": 1,
        "hand": "right"
      },
      {
        "midi": 60,
        "time": 121.233,
        "duration": 0.103,
        "velocity": 1,
        "hand": "right"
      },
      {
        "midi": 88,
        "time": 121.233,
        "duration": 0.103,
        "velocity": 1,
        "hand": "right"
      },
      {
        "midi": 66,
        "time": 121.336,
        "duration": 0.103,
        "velocity": 1,
        "hand": "right"
      },
      {
        "midi": 87,
        "time": 121.336,
        "duration": 0.103,
        "velocity": 1,
        "hand": "right"
      },
      {
        "midi": 56,
        "time": 121.438,
        "duration": 0.103,
        "velocity": 1,
        "hand": "left"
      },
      {
        "midi": 88,
        "time": 121.438,
        "duration": 0.411,
        "velocity": 1,
        "hand": "right"
      },
      {
        "midi": 64,
        "time": 121.541,
        "duration": 0.103,
        "velocity": 1,
        "hand": "right"
      },
      {
        "midi": 59,
        "time": 121.644,
        "duration": 0.103,
        "velocity": 1,
        "hand": "left"
      },
      {
        "midi": 64,
        "time": 121.747,
        "duration": 0.103,
        "velocity": 1,
        "hand": "right"
      },
      {
        "midi": 56,
        "time": 121.849,
        "duration": 0.103,
        "velocity": 1,
        "hand": "left"
      },
      {
        "midi": 64,
        "time": 121.952,
        "duration": 0.103,
        "velocity": 1,
        "hand": "right"
      },
      {
        "midi": 59,
        "time": 122.055,
        "duration": 0.103,
        "velocity": 1,
        "hand": "left"
      },
      {
        "midi": 64,
        "time": 122.158,
        "duration": 0.103,
        "velocity": 1,
        "hand": "right"
      },
      {
        "midi": 55,
        "time": 122.26,
        "duration": 0.103,
        "velocity": 1,
        "hand": "left"
      },
      {
        "midi": 70,
        "time": 122.26,
        "duration": 0.822,
        "velocity": 1,
        "hand": "right"
      },
      {
        "midi": 82,
        "time": 122.26,
        "duration": 0.822,
        "velocity": 1,
        "hand": "right"
      },
      {
        "midi": 62,
        "time": 122.363,
        "duration": 0.103,
        "velocity": 1,
        "hand": "right"
      },
      {
        "midi": 58,
        "time": 122.466,
        "duration": 0.103,
        "velocity": 1,
        "hand": "left"
      },
      {
        "midi": 62,
        "time": 122.568,
        "duration": 0.103,
        "velocity": 1,
        "hand": "right"
      },
      {
        "midi": 55,
        "time": 122.671,
        "duration": 0.103,
        "velocity": 1,
        "hand": "left"
      },
      {
        "midi": 62,
        "time": 122.774,
        "duration": 0.103,
        "velocity": 1,
        "hand": "right"
      },
      {
        "midi": 58,
        "time": 122.877,
        "duration": 0.103,
        "velocity": 1,
        "hand": "left"
      },
      {
        "midi": 62,
        "time": 122.979,
        "duration": 0.103,
        "velocity": 1,
        "hand": "right"
      },
      {
        "midi": 55,
        "time": 123.082,
        "duration": 0.103,
        "velocity": 1,
        "hand": "left"
      },
      {
        "midi": 67,
        "time": 123.082,
        "duration": 0.822,
        "velocity": 1,
        "hand": "right"
      },
      {
        "midi": 79,
        "time": 123.082,
        "duration": 0.822,
        "velocity": 1,
        "hand": "right"
      },
      {
        "midi": 63,
        "time": 123.185,
        "duration": 0.103,
        "velocity": 1,
        "hand": "right"
      },
      {
        "midi": 58,
        "time": 123.288,
        "duration": 0.103,
        "velocity": 1,
        "hand": "left"
      },
      {
        "midi": 63,
        "time": 123.39,
        "duration": 0.103,
        "velocity": 1,
        "hand": "right"
      },
      {
        "midi": 55,
        "time": 123.493,
        "duration": 0.103,
        "velocity": 1,
        "hand": "left"
      },
      {
        "midi": 63,
        "time": 123.596,
        "duration": 0.103,
        "velocity": 1,
        "hand": "right"
      },
      {
        "midi": 58,
        "time": 123.699,
        "duration": 0.103,
        "velocity": 1,
        "hand": "left"
      },
      {
        "midi": 63,
        "time": 123.801,
        "duration": 0.103,
        "velocity": 1,
        "hand": "right"
      },
      {
        "midi": 55,
        "time": 123.904,
        "duration": 0.103,
        "velocity": 1,
        "hand": "left"
      },
      {
        "midi": 85,
        "time": 123.904,
        "duration": 0.616,
        "velocity": 1,
        "hand": "right"
      },
      {
        "midi": 64,
        "time": 124.007,
        "duration": 0.103,
        "velocity": 1,
        "hand": "right"
      },
      {
        "midi": 58,
        "time": 124.11,
        "duration": 0.103,
        "velocity": 1,
        "hand": "left"
      },
      {
        "midi": 64,
        "time": 124.212,
        "duration": 0.103,
        "velocity": 1,
        "hand": "right"
      },
      {
        "midi": 55,
        "time": 124.315,
        "duration": 0.103,
        "velocity": 1,
        "hand": "left"
      },
      {
        "midi": 64,
        "time": 124.418,
        "duration": 0.103,
        "velocity": 1,
        "hand": "right"
      },
      {
        "midi": 58,
        "time": 124.521,
        "duration": 0.103,
        "velocity": 1,
        "hand": "left"
      },
      {
        "midi": 86,
        "time": 124.521,
        "duration": 0.103,
        "velocity": 1,
        "hand": "right"
      },
      {
        "midi": 64,
        "time": 124.623,
        "duration": 0.103,
        "velocity": 1,
        "hand": "right"
      },
      {
        "midi": 85,
        "time": 124.623,
        "duration": 0.103,
        "velocity": 1,
        "hand": "right"
      },
      {
        "midi": 54,
        "time": 124.726,
        "duration": 0.103,
        "velocity": 1,
        "hand": "left"
      },
      {
        "midi": 86,
        "time": 124.726,
        "duration": 0.411,
        "velocity": 1,
        "hand": "right"
      },
      {
        "midi": 62,
        "time": 124.829,
        "duration": 0.103,
        "velocity": 1,
        "hand": "right"
      },
      {
        "midi": 57,
        "time": 124.932,
        "duration": 0.103,
        "velocity": 1,
        "hand": "left"
      },
      {
        "midi": 62,
        "time": 125.034,
        "duration": 0.103,
        "velocity": 1,
        "hand": "right"
      },
      {
        "midi": 54,
        "time": 125.137,
        "duration": 0.103,
        "velocity": 1,
        "hand": "left"
      },
      {
        "midi": 62,
        "time": 125.24,
        "duration": 0.103,
        "velocity": 1,
        "hand": "right"
      },
      {
        "midi": 57,
        "time": 125.342,
        "duration": 0.103,
        "velocity": 1,
        "hand": "left"
      },
      {
        "midi": 62,
        "time": 125.445,
        "duration": 0.103,
        "velocity": 1,
        "hand": "right"
      },
      {
        "midi": 53,
        "time": 125.548,
        "duration": 0.103,
        "velocity": 1,
        "hand": "left"
      },
      {
        "midi": 83,
        "time": 125.548,
        "duration": 0.616,
        "velocity": 1,
        "hand": "right"
      },
      {
        "midi": 62,
        "time": 125.651,
        "duration": 0.103,
        "velocity": 1,
        "hand": "right"
      },
      {
        "midi": 56,
        "time": 125.753,
        "duration": 0.103,
        "velocity": 1,
        "hand": "left"
      },
      {
        "midi": 62,
        "time": 125.856,
        "duration": 0.103,
        "velocity": 1,
        "hand": "right"
      },
      {
        "midi": 53,
        "time": 125.959,
        "duration": 0.103,
        "velocity": 1,
        "hand": "left"
      },
      {
        "midi": 62,
        "time": 126.062,
        "duration": 0.103,
        "velocity": 1,
        "hand": "right"
      },
      {
        "midi": 56,
        "time": 126.164,
        "duration": 0.103,
        "velocity": 1,
        "hand": "left"
      },
      {
        "midi": 84,
        "time": 126.164,
        "duration": 0.103,
        "velocity": 1,
        "hand": "right"
      },
      {
        "midi": 62,
        "time": 126.267,
        "duration": 0.103,
        "velocity": 1,
        "hand": "right"
      },
      {
        "midi": 83,
        "time": 126.267,
        "duration": 0.103,
        "velocity": 1,
        "hand": "right"
      },
      {
        "midi": 52,
        "time": 126.37,
        "duration": 0.103,
        "velocity": 1,
        "hand": "left"
      },
      {
        "midi": 84,
        "time": 126.37,
        "duration": 0.411,
        "velocity": 1,
        "hand": "right"
      },
      {
        "midi": 60,
        "time": 126.473,
        "duration": 0.103,
        "velocity": 1,
        "hand": "right"
      },
      {
        "midi": 55,
        "time": 126.575,
        "duration": 0.103,
        "velocity": 1,
        "hand": "left"
      },
      {
        "midi": 60,
        "time": 126.678,
        "duration": 0.103,
        "velocity": 1,
        "hand": "right"
      },
      {
        "midi": 52,
        "time": 126.781,
        "duration": 0.103,
        "velocity": 1,
        "hand": "left"
      },
      {
        "midi": 60,
        "time": 126.884,
        "duration": 0.103,
        "velocity": 1,
        "hand": "right"
      },
      {
        "midi": 55,
        "time": 126.986,
        "duration": 0.103,
        "velocity": 1,
        "hand": "left"
      },
      {
        "midi": 60,
        "time": 127.089,
        "duration": 0.103,
        "velocity": 1,
        "hand": "right"
      },
      {
        "midi": 50,
        "time": 127.192,
        "duration": 0.103,
        "velocity": 1,
        "hand": "left"
      },
      {
        "midi": 80,
        "time": 127.192,
        "duration": 0.616,
        "velocity": 1,
        "hand": "right"
      },
      {
        "midi": 59,
        "time": 127.295,
        "duration": 0.103,
        "velocity": 1,
        "hand": "left"
      },
      {
        "midi": 53,
        "time": 127.397,
        "duration": 0.103,
        "velocity": 1,
        "hand": "left"
      },
      {
        "midi": 59,
        "time": 127.5,
        "duration": 0.103,
        "velocity": 1,
        "hand": "left"
      },
      {
        "midi": 50,
        "time": 127.603,
        "duration": 0.103,
        "velocity": 1,
        "hand": "left"
      },
      {
        "midi": 59,
        "time": 127.705,
        "duration": 0.103,
        "velocity": 1,
        "hand": "left"
      },
      {
        "midi": 53,
        "time": 127.808,
        "duration": 0.103,
        "velocity": 1,
        "hand": "left"
      },
      {
        "midi": 81,
        "time": 127.808,
        "duration": 0.103,
        "velocity": 1,
        "hand": "right"
      },
      {
        "midi": 59,
        "time": 127.911,
        "duration": 0.103,
        "velocity": 1,
        "hand": "left"
      },
      {
        "midi": 80,
        "time": 127.911,
        "duration": 0.103,
        "velocity": 1,
        "hand": "right"
      },
      {
        "midi": 48,
        "time": 128.014,
        "duration": 0.103,
        "velocity": 1,
        "hand": "left"
      },
      {
        "midi": 81,
        "time": 128.014,
        "duration": 0.411,
        "velocity": 1,
        "hand": "right"
      },
      {
        "midi": 57,
        "time": 128.116,
        "duration": 0.103,
        "velocity": 1,
        "hand": "left"
      },
      {
        "midi": 52,
        "time": 128.219,
        "duration": 0.103,
        "velocity": 1,
        "hand": "left"
      },
      {
        "midi": 57,
        "time": 128.322,
        "duration": 0.103,
        "velocity": 1,
        "hand": "left"
      },
      {
        "midi": 48,
        "time": 128.425,
        "duration": 0.103,
        "velocity": 1,
        "hand": "left"
      },
      {
        "midi": 57,
        "time": 128.527,
        "duration": 0.103,
        "velocity": 1,
        "hand": "left"
      },
      {
        "midi": 52,
        "time": 128.63,
        "duration": 0.103,
        "velocity": 1,
        "hand": "left"
      },
      {
        "midi": 57,
        "time": 128.733,
        "duration": 0.103,
        "velocity": 1,
        "hand": "left"
      },
      {
        "midi": 39,
        "time": 128.836,
        "duration": 0.411,
        "velocity": 1,
        "hand": "left"
      },
      {
        "midi": 51,
        "time": 128.836,
        "duration": 0.411,
        "velocity": 1,
        "hand": "left"
      },
      {
        "midi": 81,
        "time": 129.041,
        "duration": 0.205,
        "velocity": 1,
        "hand": "right"
      },
      {
        "midi": 84,
        "time": 129.247,
        "duration": 0.205,
        "velocity": 1,
        "hand": "right"
      },
      {
        "midi": 78,
        "time": 129.452,
        "duration": 0.205,
        "velocity": 1,
        "hand": "right"
      },
      {
        "midi": 81,
        "time": 129.658,
        "duration": 0.205,
        "velocity": 1,
        "hand": "right"
      },
      {
        "midi": 75,
        "time": 129.863,
        "duration": 0.205,
        "velocity": 1,
        "hand": "right"
      },
      {
        "midi": 78,
        "time": 130.068,
        "duration": 0.205,
        "velocity": 1,
        "hand": "right"
      },
      {
        "midi": 72,
        "time": 130.274,
        "duration": 0.205,
        "velocity": 1,
        "hand": "right"
      },
      {
        "midi": 75,
        "time": 130.479,
        "duration": 0.205,
        "velocity": 1,
        "hand": "right"
      },
      {
        "midi": 57,
        "time": 130.685,
        "duration": 0.205,
        "velocity": 1,
        "hand": "left"
      },
      {
        "midi": 69,
        "time": 130.685,
        "duration": 0.205,
        "velocity": 1,
        "hand": "right"
      },
      {
        "midi": 60,
        "time": 130.89,
        "duration": 0.205,
        "velocity": 1,
        "hand": "right"
      },
      {
        "midi": 72,
        "time": 130.89,
        "duration": 0.205,
        "velocity": 1,
        "hand": "right"
      },
      {
        "midi": 54,
        "time": 131.096,
        "duration": 0.205,
        "velocity": 1,
        "hand": "left"
      },
      {
        "midi": 66,
        "time": 131.096,
        "duration": 0.205,
        "velocity": 1,
        "hand": "right"
      },
      {
        "midi": 57,
        "time": 131.301,
        "duration": 0.205,
        "velocity": 1,
        "hand": "left"
      },
      {
        "midi": 69,
        "time": 131.301,
        "duration": 0.205,
        "velocity": 1,
        "hand": "right"
      },
      {
        "midi": 51,
        "time": 131.507,
        "duration": 0.205,
        "velocity": 1,
        "hand": "left"
      },
      {
        "midi": 63,
        "time": 131.507,
        "duration": 0.205,
        "velocity": 1,
        "hand": "right"
      },
      {
        "midi": 54,
        "time": 131.712,
        "duration": 0.205,
        "velocity": 1,
        "hand": "left"
      },
      {
        "midi": 66,
        "time": 131.712,
        "duration": 0.205,
        "velocity": 1,
        "hand": "right"
      },
      {
        "midi": 45,
        "time": 131.918,
        "duration": 0.205,
        "velocity": 1,
        "hand": "left"
      },
      {
        "midi": 57,
        "time": 131.918,
        "duration": 0.205,
        "velocity": 1,
        "hand": "left"
      },
      {
        "midi": 48,
        "time": 132.123,
        "duration": 0.205,
        "velocity": 1,
        "hand": "left"
      },
      {
        "midi": 60,
        "time": 132.123,
        "duration": 0.205,
        "velocity": 1,
        "hand": "right"
      },
      {
        "midi": 42,
        "time": 132.329,
        "duration": 0.205,
        "velocity": 1,
        "hand": "left"
      },
      {
        "midi": 54,
        "time": 132.329,
        "duration": 0.205,
        "velocity": 1,
        "hand": "left"
      },
      {
        "midi": 45,
        "time": 132.534,
        "duration": 0.205,
        "velocity": 1,
        "hand": "left"
      },
      {
        "midi": 57,
        "time": 132.534,
        "duration": 0.205,
        "velocity": 1,
        "hand": "left"
      },
      {
        "midi": 39,
        "time": 132.74,
        "duration": 0.205,
        "velocity": 1,
        "hand": "left"
      },
      {
        "midi": 51,
        "time": 132.74,
        "duration": 0.205,
        "velocity": 1,
        "hand": "left"
      },
      {
        "midi": 40,
        "time": 132.945,
        "duration": 0.411,
        "velocity": 1,
        "hand": "left"
      },
      {
        "midi": 52,
        "time": 132.945,
        "duration": 0.411,
        "velocity": 1,
        "hand": "left"
      },
      {
        "midi": 40,
        "time": 133.356,
        "duration": 0.411,
        "velocity": 1,
        "hand": "left"
      },
      {
        "midi": 52,
        "time": 133.356,
        "duration": 0.411,
        "velocity": 1,
        "hand": "left"
      },
      {
        "midi": 71,
        "time": 133.356,
        "duration": 0.411,
        "velocity": 1,
        "hand": "right"
      },
      {
        "midi": 74,
        "time": 133.356,
        "duration": 0.411,
        "velocity": 1,
        "hand": "right"
      },
      {
        "midi": 76,
        "time": 133.356,
        "duration": 0.411,
        "velocity": 1,
        "hand": "right"
      },
      {
        "midi": 80,
        "time": 133.356,
        "duration": 0.411,
        "velocity": 1,
        "hand": "right"
      },
      {
        "midi": 45,
        "time": 133.767,
        "duration": 0.411,
        "velocity": 1,
        "hand": "left"
      },
      {
        "midi": 57,
        "time": 133.767,
        "duration": 0.411,
        "velocity": 1,
        "hand": "left"
      },
      {
        "midi": 72,
        "time": 133.767,
        "duration": 0.411,
        "velocity": 1,
        "hand": "right"
      },
      {
        "midi": 76,
        "time": 133.767,
        "duration": 0.411,
        "velocity": 1,
        "hand": "right"
      },
      {
        "midi": 81,
        "time": 133.767,
        "duration": 0.411,
        "velocity": 1,
        "hand": "right"
      },
      {
        "midi": 69,
        "time": 134.178,
        "duration": 0.411,
        "velocity": 1,
        "hand": "right"
      },
      {
        "midi": 72,
        "time": 134.384,
        "duration": 0.205,
        "velocity": 1,
        "hand": "right"
      },
      {
        "midi": 71,
        "time": 134.589,
        "duration": 0.411,
        "velocity": 1,
        "hand": "right"
      },
      {
        "midi": 76,
        "time": 134.589,
        "duration": 0.205,
        "velocity": 1,
        "hand": "right"
      },
      {
        "midi": 74,
        "time": 134.795,
        "duration": 0.205,
        "velocity": 1,
        "hand": "right"
      },
      {
        "midi": 68,
        "time": 135,
        "duration": 0.411,
        "velocity": 1,
        "hand": "right"
      },
      {
        "midi": 71,
        "time": 135.205,
        "duration": 0.205,
        "velocity": 1,
        "hand": "right"
      },
      {
        "midi": 69,
        "time": 135.411,
        "duration": 0.411,
        "velocity": 1,
        "hand": "right"
      },
      {
        "midi": 74,
        "time": 135.411,
        "duration": 0.205,
        "velocity": 1,
        "hand": "right"
      },
      {
        "midi": 72,
        "time": 135.616,
        "duration": 0.205,
        "velocity": 1,
        "hand": "right"
      },
      {
        "midi": 65,
        "time": 135.822,
        "duration": 0.411,
        "velocity": 1,
        "hand": "right"
      },
      {
        "midi": 69,
        "time": 136.027,
        "duration": 0.205,
        "velocity": 1,
        "hand": "right"
      },
      {
        "midi": 62,
        "time": 136.233,
        "duration": 0.411,
        "velocity": 1,
        "hand": "right"
      },
      {
        "midi": 72,
        "time": 136.233,
        "duration": 0.205,
        "velocity": 1,
        "hand": "right"
      },
      {
        "midi": 71,
        "time": 136.438,
        "duration": 0.205,
        "velocity": 1,
        "hand": "right"
      },
      {
        "midi": 64,
        "time": 136.644,
        "duration": 0.411,
        "velocity": 1,
        "hand": "right"
      },
      {
        "midi": 68,
        "time": 136.849,
        "duration": 0.205,
        "velocity": 1,
        "hand": "right"
      },
      {
        "midi": 60,
        "time": 137.055,
        "duration": 0.411,
        "velocity": 1,
        "hand": "right"
      },
      {
        "midi": 71,
        "time": 137.055,
        "duration": 0.205,
        "velocity": 1,
        "hand": "right"
      },
      {
        "midi": 69,
        "time": 137.26,
        "duration": 0.205,
        "velocity": 1,
        "hand": "right"
      },
      {
        "midi": 45,
        "time": 137.466,
        "duration": 0.411,
        "velocity": 1,
        "hand": "left"
      },
      {
        "midi": 57,
        "time": 137.466,
        "duration": 0.411,
        "velocity": 1,
        "hand": "left"
      },
      {
        "midi": 72,
        "time": 137.466,
        "duration": 0.103,
        "velocity": 1,
        "hand": "right"
      },
      {
        "midi": 74,
        "time": 137.568,
        "duration": 0.103,
        "velocity": 1,
        "hand": "right"
      },
      {
        "midi": 76,
        "time": 137.671,
        "duration": 0.103,
        "velocity": 1,
        "hand": "right"
      },
      {
        "midi": 72,
        "time": 137.774,
        "duration": 0.103,
        "velocity": 1,
        "hand": "right"
      },
      {
        "midi": 47,
        "time": 137.877,
        "duration": 0.411,
        "velocity": 1,
        "hand": "left"
      },
      {
        "midi": 59,
        "time": 137.877,
        "duration": 0.411,
        "velocity": 1,
        "hand": "left"
      },
      {
        "midi": 74,
        "time": 137.877,
        "duration": 0.103,
        "velocity": 1,
        "hand": "right"
      },
      {
        "midi": 76,
        "time": 137.979,
        "duration": 0.103,
        "velocity": 1,
        "hand": "right"
      },
      {
        "midi": 77,
        "time": 138.082,
        "duration": 0.103,
        "velocity": 1,
        "hand": "right"
      },
      {
        "midi": 74,
        "time": 138.185,
        "duration": 0.103,
        "velocity": 1,
        "hand": "right"
      },
      {
        "midi": 44,
        "time": 138.288,
        "duration": 0.411,
        "velocity": 1,
        "hand": "left"
      },
      {
        "midi": 56,
        "time": 138.288,
        "duration": 0.411,
        "velocity": 1,
        "hand": "left"
      },
      {
        "midi": 71,
        "time": 138.288,
        "duration": 0.103,
        "velocity": 1,
        "hand": "right"
      },
      {
        "midi": 72,
        "time": 138.39,
        "duration": 0.103,
        "velocity": 1,
        "hand": "right"
      },
      {
        "midi": 74,
        "time": 138.493,
        "duration": 0.103,
        "velocity": 1,
        "hand": "right"
      },
      {
        "midi": 71,
        "time": 138.596,
        "duration": 0.103,
        "velocity": 1,
        "hand": "right"
      },
      {
        "midi": 45,
        "time": 138.699,
        "duration": 0.411,
        "velocity": 1,
        "hand": "left"
      },
      {
        "midi": 57,
        "time": 138.699,
        "duration": 0.411,
        "velocity": 1,
        "hand": "left"
      },
      {
        "midi": 72,
        "time": 138.699,
        "duration": 0.103,
        "velocity": 1,
        "hand": "right"
      },
      {
        "midi": 74,
        "time": 138.801,
        "duration": 0.103,
        "velocity": 1,
        "hand": "right"
      },
      {
        "midi": 76,
        "time": 138.904,
        "duration": 0.103,
        "velocity": 1,
        "hand": "right"
      },
      {
        "midi": 72,
        "time": 139.007,
        "duration": 0.103,
        "velocity": 1,
        "hand": "right"
      },
      {
        "midi": 41,
        "time": 139.11,
        "duration": 0.411,
        "velocity": 1,
        "hand": "left"
      },
      {
        "midi": 53,
        "time": 139.11,
        "duration": 0.411,
        "velocity": 1,
        "hand": "left"
      },
      {
        "midi": 69,
        "time": 139.11,
        "duration": 0.103,
        "velocity": 1,
        "hand": "right"
      },
      {
        "midi": 71,
        "time": 139.212,
        "duration": 0.103,
        "velocity": 1,
        "hand": "right"
      },
      {
        "midi": 72,
        "time": 139.315,
        "duration": 0.103,
        "velocity": 1,
        "hand": "right"
      },
      {
        "midi": 69,
        "time": 139.418,
        "duration": 0.103,
        "velocity": 1,
        "hand": "right"
      },
      {
        "midi": 38,
        "time": 139.521,
        "duration": 0.411,
        "velocity": 1,
        "hand": "left"
      },
      {
        "midi": 50,
        "time": 139.521,
        "duration": 0.411,
        "velocity": 1,
        "hand": "left"
      },
      {
        "midi": 71,
        "time": 139.521,
        "duration": 0.103,
        "velocity": 1,
        "hand": "right"
      },
      {
        "midi": 72,
        "time": 139.623,
        "duration": 0.103,
        "velocity": 1,
        "hand": "right"
      },
      {
        "midi": 74,
        "time": 139.726,
        "duration": 0.103,
        "velocity": 1,
        "hand": "right"
      },
      {
        "midi": 71,
        "time": 139.829,
        "duration": 0.103,
        "velocity": 1,
        "hand": "right"
      },
      {
        "midi": 40,
        "time": 139.932,
        "duration": 0.411,
        "velocity": 1,
        "hand": "left"
      },
      {
        "midi": 52,
        "time": 139.932,
        "duration": 0.411,
        "velocity": 1,
        "hand": "left"
      },
      {
        "midi": 68,
        "time": 139.932,
        "duration": 0.103,
        "velocity": 1,
        "hand": "right"
      },
      {
        "midi": 69,
        "time": 140.034,
        "duration": 0.103,
        "velocity": 1,
        "hand": "right"
      },
      {
        "midi": 71,
        "time": 140.137,
        "duration": 0.103,
        "velocity": 1,
        "hand": "right"
      },
      {
        "midi": 68,
        "time": 140.24,
        "duration": 0.103,
        "velocity": 1,
        "hand": "right"
      },
      {
        "midi": 57,
        "time": 140.342,
        "duration": 0.051,
        "velocity": 1,
        "hand": "left"
      },
      {
        "midi": 60,
        "time": 140.342,
        "duration": 0.051,
        "velocity": 1,
        "hand": "right"
      },
      {
        "midi": 33,
        "time": 140.445,
        "duration": 0.822,
        "velocity": 1,
        "hand": "left"
      },
      {
        "midi": 45,
        "time": 140.445,
        "duration": 0.822,
        "velocity": 1,
        "hand": "left"
      },
      {
        "midi": 64,
        "time": 140.445,
        "duration": 0.051,
        "velocity": 1,
        "hand": "right"
      },
      {
        "midi": 69,
        "time": 140.445,
        "duration": 0.822,
        "velocity": 1,
        "hand": "right"
      },
      {
        "midi": 40,
        "time": 141.267,
        "duration": 0.822,
        "velocity": 1,
        "hand": "left"
      },
      {
        "midi": 64,
        "time": 141.267,
        "duration": 0.822,
        "velocity": 1,
        "hand": "right"
      },
      {
        "midi": 48,
        "time": 142.089,
        "duration": 0.616,
        "velocity": 1,
        "hand": "left"
      },
      {
        "midi": 72,
        "time": 142.089,
        "duration": 0.616,
        "velocity": 1,
        "hand": "right"
      },
      {
        "midi": 50,
        "time": 142.705,
        "duration": 0.103,
        "velocity": 1,
        "hand": "left"
      },
      {
        "midi": 74,
        "time": 142.705,
        "duration": 0.103,
        "velocity": 1,
        "hand": "right"
      },
      {
        "midi": 47,
        "time": 142.808,
        "duration": 0.103,
        "velocity": 1,
        "hand": "left"
      },
      {
        "midi": 71,
        "time": 142.808,
        "duration": 0.103,
        "velocity": 1,
        "hand": "right"
      },
      {
        "midi": 45,
        "time": 142.911,
        "duration": 0.411,
        "velocity": 1,
        "hand": "left"
      },
      {
        "midi": 69,
        "time": 142.911,
        "duration": 0.411,
        "velocity": 1,
        "hand": "right"
      },
      {
        "midi": 72,
        "time": 143.733,
        "duration": 0.616,
        "velocity": 1,
        "hand": "right"
      },
      {
        "midi": 76,
        "time": 143.733,
        "duration": 0.616,
        "velocity": 1,
        "hand": "right"
      },
      {
        "midi": 74,
        "time": 144.349,
        "duration": 0.103,
        "velocity": 1,
        "hand": "right"
      },
      {
        "midi": 77,
        "time": 144.349,
        "duration": 0.103,
        "velocity": 1,
        "hand": "right"
      },
      {
        "midi": 71,
        "time": 144.452,
        "duration": 0.103,
        "velocity": 1,
        "hand": "right"
      },
      {
        "midi": 74,
        "time": 144.452,
        "duration": 0.103,
        "velocity": 1,
        "hand": "right"
      },
      {
        "midi": 69,
        "time": 144.555,
        "duration": 0.411,
        "velocity": 1,
        "hand": "right"
      },
      {
        "midi": 72,
        "time": 144.555,
        "duration": 0.411,
        "velocity": 1,
        "hand": "right"
      },
      {
        "midi": 76,
        "time": 145.377,
        "duration": 0.616,
        "velocity": 1,
        "hand": "right"
      },
      {
        "midi": 84,
        "time": 145.377,
        "duration": 0.616,
        "velocity": 1,
        "hand": "right"
      },
      {
        "midi": 77,
        "time": 145.993,
        "duration": 0.103,
        "velocity": 1,
        "hand": "right"
      },
      {
        "midi": 86,
        "time": 145.993,
        "duration": 0.103,
        "velocity": 1,
        "hand": "right"
      },
      {
        "midi": 74,
        "time": 146.096,
        "duration": 0.103,
        "velocity": 1,
        "hand": "right"
      },
      {
        "midi": 83,
        "time": 146.096,
        "duration": 0.103,
        "velocity": 1,
        "hand": "right"
      },
      {
        "midi": 72,
        "time": 146.199,
        "duration": 0.411,
        "velocity": 1,
        "hand": "right"
      },
      {
        "midi": 81,
        "time": 146.199,
        "duration": 0.411,
        "velocity": 1,
        "hand": "right"
      },
      {
        "midi": 59,
        "time": 147.021,
        "duration": 0.051,
        "velocity": 1,
        "hand": "left"
      },
      {
        "midi": 62,
        "time": 147.123,
        "duration": 0.051,
        "velocity": 1,
        "hand": "right"
      },
      {
        "midi": 67,
        "time": 147.123,
        "duration": 0.051,
        "velocity": 1,
        "hand": "right"
      },
      {
        "midi": 35,
        "time": 147.226,
        "duration": 0.822,
        "velocity": 1,
        "hand": "left"
      },
      {
        "midi": 47,
        "time": 147.226,
        "duration": 0.822,
        "velocity": 1,
        "hand": "left"
      },
      {
        "midi": 71,
        "time": 147.226,
        "duration": 0.822,
        "velocity": 1,
        "hand": "right"
      },
      {
        "midi": 31,
        "time": 148.048,
        "duration": 0.822,
        "velocity": 1,
        "hand": "left"
      },
      {
        "midi": 43,
        "time": 148.048,
        "duration": 0.822,
        "velocity": 1,
        "hand": "left"
      },
      {
        "midi": 67,
        "time": 148.048,
        "duration": 0.822,
        "velocity": 1,
        "hand": "right"
      },
      {
        "midi": 50,
        "time": 148.87,
        "duration": 0.616,
        "velocity": 1,
        "hand": "left"
      },
      {
        "midi": 74,
        "time": 148.87,
        "duration": 0.616,
        "velocity": 1,
        "hand": "right"
      },
      {
        "midi": 52,
        "time": 149.486,
        "duration": 0.103,
        "velocity": 1,
        "hand": "left"
      },
      {
        "midi": 76,
        "time": 149.486,
        "duration": 0.103,
        "velocity": 1,
        "hand": "right"
      },
      {
        "midi": 48,
        "time": 149.589,
        "duration": 0.103,
        "velocity": 1,
        "hand": "left"
      },
      {
        "midi": 72,
        "time": 149.589,
        "duration": 0.103,
        "velocity": 1,
        "hand": "right"
      },
      {
        "midi": 47,
        "time": 149.692,
        "duration": 0.411,
        "velocity": 1,
        "hand": "left"
      },
      {
        "midi": 71,
        "time": 149.692,
        "duration": 0.411,
        "velocity": 1,
        "hand": "right"
      },
      {
        "midi": 74,
        "time": 150.514,
        "duration": 0.616,
        "velocity": 1,
        "hand": "right"
      },
      {
        "midi": 77,
        "time": 150.514,
        "duration": 0.616,
        "velocity": 1,
        "hand": "right"
      },
      {
        "midi": 76,
        "time": 151.13,
        "duration": 0.103,
        "velocity": 1,
        "hand": "right"
      },
      {
        "midi": 79,
        "time": 151.13,
        "duration": 0.103,
        "velocity": 1,
        "hand": "right"
      },
      {
        "midi": 72,
        "time": 151.233,
        "duration": 0.103,
        "velocity": 1,
        "hand": "right"
      },
      {
        "midi": 76,
        "time": 151.233,
        "duration": 0.103,
        "velocity": 1,
        "hand": "right"
      },
      {
        "midi": 71,
        "time": 151.336,
        "duration": 0.411,
        "velocity": 1,
        "hand": "right"
      },
      {
        "midi": 74,
        "time": 151.336,
        "duration": 0.411,
        "velocity": 1,
        "hand": "right"
      },
      {
        "midi": 77,
        "time": 152.158,
        "duration": 0.616,
        "velocity": 1,
        "hand": "right"
      },
      {
        "midi": 86,
        "time": 152.158,
        "duration": 0.616,
        "velocity": 1,
        "hand": "right"
      },
      {
        "midi": 79,
        "time": 152.774,
        "duration": 0.103,
        "velocity": 1,
        "hand": "right"
      },
      {
        "midi": 88,
        "time": 152.774,
        "duration": 0.103,
        "velocity": 1,
        "hand": "right"
      },
      {
        "midi": 76,
        "time": 152.877,
        "duration": 0.103,
        "velocity": 1,
        "hand": "right"
      },
      {
        "midi": 84,
        "time": 152.877,
        "duration": 0.103,
        "velocity": 1,
        "hand": "right"
      },
      {
        "midi": 74,
        "time": 152.979,
        "duration": 0.411,
        "velocity": 1,
        "hand": "right"
      },
      {
        "midi": 83,
        "time": 152.979,
        "duration": 0.411,
        "velocity": 1,
        "hand": "right"
      },
      {
        "midi": 60,
        "time": 153.801,
        "duration": 0.051,
        "velocity": 1,
        "hand": "right"
      },
      {
        "midi": 64,
        "time": 153.801,
        "duration": 0.051,
        "velocity": 1,
        "hand": "right"
      },
      {
        "midi": 36,
        "time": 153.904,
        "duration": 0.822,
        "velocity": 1,
        "hand": "left"
      },
      {
        "midi": 48,
        "time": 153.904,
        "duration": 0.822,
        "velocity": 1,
        "hand": "left"
      },
      {
        "midi": 67,
        "time": 153.904,
        "duration": 0.051,
        "velocity": 1,
        "hand": "right"
      },
      {
        "midi": 72,
        "time": 153.904,
        "duration": 0.822,
        "velocity": 1,
        "hand": "right"
      },
      {
        "midi": 31,
        "time": 154.726,
        "duration": 0.822,
        "velocity": 1,
        "hand": "left"
      },
      {
        "midi": 43,
        "time": 154.726,
        "duration": 0.822,
        "velocity": 1,
        "hand": "left"
      },
      {
        "midi": 67,
        "time": 154.726,
        "duration": 0.822,
        "velocity": 1,
        "hand": "right"
      },
      {
        "midi": 52,
        "time": 155.548,
        "duration": 0.616,
        "velocity": 1,
        "hand": "left"
      },
      {
        "midi": 76,
        "time": 155.548,
        "duration": 0.616,
        "velocity": 1,
        "hand": "right"
      },
      {
        "midi": 53,
        "time": 156.164,
        "duration": 0.103,
        "velocity": 1,
        "hand": "left"
      },
      {
        "midi": 77,
        "time": 156.164,
        "duration": 0.103,
        "velocity": 1,
        "hand": "right"
      },
      {
        "midi": 50,
        "time": 156.267,
        "duration": 0.103,
        "velocity": 1,
        "hand": "left"
      },
      {
        "midi": 74,
        "time": 156.267,
        "duration": 0.103,
        "velocity": 1,
        "hand": "right"
      },
      {
        "midi": 48,
        "time": 156.37,
        "duration": 0.411,
        "velocity": 1,
        "hand": "left"
      },
      {
        "midi": 72,
        "time": 156.37,
        "duration": 0.411,
        "velocity": 1,
        "hand": "right"
      },
      {
        "midi": 64,
        "time": 157.192,
        "duration": 0.205,
        "velocity": 1,
        "hand": "right"
      },
      {
        "midi": 79,
        "time": 157.192,
        "duration": 0.411,
        "velocity": 1,
        "hand": "right"
      },
      {
        "midi": 67,
        "time": 157.397,
        "duration": 0.205,
        "velocity": 1,
        "hand": "right"
      },
      {
        "midi": 64,
        "time": 157.603,
        "duration": 0.205,
        "velocity": 1,
        "hand": "right"
      },
      {
        "midi": 79,
        "time": 157.603,
        "duration": 0.411,
        "velocity": 1,
        "hand": "right"
      },
      {
        "midi": 67,
        "time": 157.808,
        "duration": 0.205,
        "velocity": 1,
        "hand": "right"
      },
      {
        "midi": 61,
        "time": 158.014,
        "duration": 0.205,
        "velocity": 1,
        "hand": "right"
      },
      {
        "midi": 67,
        "time": 158.219,
        "duration": 0.205,
        "velocity": 1,
        "hand": "right"
      },
      {
        "midi": 61,
        "time": 158.425,
        "duration": 0.205,
        "velocity": 1,
        "hand": "right"
      },
      {
        "midi": 81,
        "time": 158.425,
        "duration": 0.411,
        "velocity": 1,
        "hand": "right"
      },
      {
        "midi": 67,
        "time": 158.63,
        "duration": 0.205,
        "velocity": 1,
        "hand": "right"
      },
      {
        "midi": 62,
        "time": 158.836,
        "duration": 0.205,
        "velocity": 1,
        "hand": "right"
      },
      {
        "midi": 79,
        "time": 158.836,
        "duration": 0.103,
        "velocity": 1,
        "hand": "right"
      },
      {
        "midi": 77,
        "time": 158.938,
        "duration": 0.308,
        "velocity": 1,
        "hand": "right"
      },
      {
        "midi": 67,
        "time": 159.041,
        "duration": 0.205,
        "velocity": 1,
        "hand": "right"
      },
      {
        "midi": 62,
        "time": 159.247,
        "duration": 0.205,
        "velocity": 1,
        "hand": "right"
      },
      {
        "midi": 77,
        "time": 159.247,
        "duration": 0.411,
        "velocity": 1,
        "hand": "right"
      },
      {
        "midi": 67,
        "time": 159.452,
        "duration": 0.205,
        "velocity": 1,
        "hand": "right"
      },
      {
        "midi": 59,
        "time": 159.658,
        "duration": 0.205,
        "velocity": 1,
        "hand": "left"
      },
      {
        "midi": 67,
        "time": 159.863,
        "duration": 0.205,
        "velocity": 1,
        "hand": "right"
      },
      {
        "midi": 59,
        "time": 160.068,
        "duration": 0.205,
        "velocity": 1,
        "hand": "left"
      },
      {
        "midi": 79,
        "time": 160.068,
        "duration": 0.411,
        "velocity": 1,
        "hand": "right"
      },
      {
        "midi": 67,
        "time": 160.274,
        "duration": 0.205,
        "velocity": 1,
        "hand": "right"
      },
      {
        "midi": 60,
        "time": 160.479,
        "duration": 0.205,
        "velocity": 1,
        "hand": "right"
      },
      {
        "midi": 77,
        "time": 160.479,
        "duration": 0.103,
        "velocity": 1,
        "hand": "right"
      },
      {
        "midi": 76,
        "time": 160.582,
        "duration": 0.308,
        "velocity": 1,
        "hand": "right"
      },
      {
        "midi": 67,
        "time": 160.685,
        "duration": 0.205,
        "velocity": 1,
        "hand": "right"
      },
      {
        "midi": 60,
        "time": 160.89,
        "duration": 0.205,
        "velocity": 1,
        "hand": "right"
      },
      {
        "midi": 76,
        "time": 160.89,
        "duration": 0.411,
        "velocity": 1,
        "hand": "right"
      },
      {
        "midi": 67,
        "time": 161.096,
        "duration": 0.205,
        "velocity": 1,
        "hand": "right"
      },
      {
        "midi": 64,
        "time": 161.301,
        "duration": 0.205,
        "velocity": 1,
        "hand": "right"
      },
      {
        "midi": 67,
        "time": 161.507,
        "duration": 0.205,
        "velocity": 1,
        "hand": "right"
      },
      {
        "midi": 64,
        "time": 161.712,
        "duration": 0.205,
        "velocity": 1,
        "hand": "right"
      },
      {
        "midi": 79,
        "time": 161.712,
        "duration": 0.205,
        "velocity": 1,
        "hand": "right"
      },
      {
        "midi": 67,
        "time": 161.918,
        "duration": 0.205,
        "velocity": 1,
        "hand": "right"
      },
      {
        "midi": 76,
        "time": 161.918,
        "duration": 0.205,
        "velocity": 1,
        "hand": "right"
      },
      {
        "midi": 65,
        "time": 162.123,
        "duration": 1.644,
        "velocity": 1,
        "hand": "right"
      },
      {
        "midi": 69,
        "time": 162.123,
        "duration": 1.644,
        "velocity": 1,
        "hand": "right"
      },
      {
        "midi": 73,
        "time": 162.123,
        "duration": 0.205,
        "velocity": 1,
        "hand": "right"
      },
      {
        "midi": 74,
        "time": 162.329,
        "duration": 0.205,
        "velocity": 1,
        "hand": "right"
      },
      {
        "midi": 77,
        "time": 162.534,
        "duration": 0.205,
        "velocity": 1,
        "hand": "right"
      },
      {
        "midi": 76,
        "time": 162.74,
        "duration": 0.205,
        "velocity": 1,
        "hand": "right"
      },
      {
        "midi": 73,
        "time": 162.945,
        "duration": 0.205,
        "velocity": 1,
        "hand": "right"
      },
      {
        "midi": 74,
        "time": 163.151,
        "duration": 0.205,
        "velocity": 1,
        "hand": "right"
      },
      {
        "midi": 77,
        "time": 163.356,
        "duration": 0.205,
        "velocity": 1,
        "hand": "right"
      },
      {
        "midi": 76,
        "time": 163.562,
        "duration": 0.205,
        "velocity": 1,
        "hand": "right"
      },
      {
        "midi": 73,
        "time": 163.767,
        "duration": 0.205,
        "velocity": 1,
        "hand": "right"
      },
      {
        "midi": 74,
        "time": 163.973,
        "duration": 0.205,
        "velocity": 1,
        "hand": "right"
      },
      {
        "midi": 53,
        "time": 164.178,
        "duration": 0.411,
        "velocity": 1,
        "hand": "left"
      },
      {
        "midi": 57,
        "time": 164.178,
        "duration": 0.411,
        "velocity": 1,
        "hand": "left"
      },
      {
        "midi": 62,
        "time": 164.178,
        "duration": 0.411,
        "velocity": 1,
        "hand": "right"
      },
      {
        "midi": 77,
        "time": 164.178,
        "duration": 0.205,
        "velocity": 1,
        "hand": "right"
      },
      {
        "midi": 81,
        "time": 164.384,
        "duration": 0.205,
        "velocity": 1,
        "hand": "right"
      },
      {
        "midi": 55,
        "time": 164.589,
        "duration": 0.411,
        "velocity": 1,
        "hand": "left"
      },
      {
        "midi": 60,
        "time": 164.589,
        "duration": 0.411,
        "velocity": 1,
        "hand": "right"
      },
      {
        "midi": 64,
        "time": 164.589,
        "duration": 0.411,
        "velocity": 1,
        "hand": "right"
      },
      {
        "midi": 79,
        "time": 164.589,
        "duration": 0.205,
        "velocity": 1,
        "hand": "right"
      },
      {
        "midi": 76,
        "time": 164.795,
        "duration": 0.205,
        "velocity": 1,
        "hand": "right"
      },
      {
        "midi": 55,
        "time": 165,
        "duration": 0.411,
        "velocity": 1,
        "hand": "left"
      },
      {
        "midi": 59,
        "time": 165,
        "duration": 0.411,
        "velocity": 1,
        "hand": "left"
      },
      {
        "midi": 62,
        "time": 165,
        "duration": 0.411,
        "velocity": 1,
        "hand": "right"
      },
      {
        "midi": 77,
        "time": 165,
        "duration": 0.205,
        "velocity": 1,
        "hand": "right"
      },
      {
        "midi": 74,
        "time": 165.205,
        "duration": 0.205,
        "velocity": 1,
        "hand": "right"
      },
      {
        "midi": 60,
        "time": 165.411,
        "duration": 0.051,
        "velocity": 1,
        "hand": "right"
      },
      {
        "midi": 63,
        "time": 165.514,
        "duration": 0.051,
        "velocity": 1,
        "hand": "right"
      },
      {
        "midi": 67,
        "time": 165.514,
        "duration": 0.051,
        "velocity": 1,
        "hand": "right"
      },
      {
        "midi": 36,
        "time": 165.616,
        "duration": 0.822,
        "velocity": 1,
        "hand": "left"
      },
      {
        "midi": 48,
        "time": 165.616,
        "duration": 0.822,
        "velocity": 1,
        "hand": "left"
      },
      {
        "midi": 72,
        "time": 165.616,
        "duration": 0.822,
        "velocity": 1,
        "hand": "right"
      },
      {
        "midi": 31,
        "time": 166.438,
        "duration": 0.822,
        "velocity": 1,
        "hand": "left"
      },
      {
        "midi": 43,
        "time": 166.438,
        "duration": 0.822,
        "velocity": 1,
        "hand": "left"
      },
      {
        "midi": 67,
        "time": 166.438,
        "duration": 0.822,
        "velocity": 1,
        "hand": "right"
      },
      {
        "midi": 51,
        "time": 167.26,
        "duration": 0.616,
        "velocity": 1,
        "hand": "left"
      },
      {
        "midi": 75,
        "time": 167.26,
        "duration": 0.616,
        "velocity": 1,
        "hand": "right"
      },
      {
        "midi": 53,
        "time": 167.877,
        "duration": 0.103,
        "velocity": 1,
        "hand": "left"
      },
      {
        "midi": 77,
        "time": 167.877,
        "duration": 0.103,
        "velocity": 1,
        "hand": "right"
      },
      {
        "midi": 50,
        "time": 167.979,
        "duration": 0.103,
        "velocity": 1,
        "hand": "left"
      },
      {
        "midi": 74,
        "time": 167.979,
        "duration": 0.103,
        "velocity": 1,
        "hand": "right"
      },
      {
        "midi": 48,
        "time": 168.082,
        "duration": 0.411,
        "velocity": 1,
        "hand": "left"
      },
      {
        "midi": 72,
        "time": 168.082,
        "duration": 0.411,
        "velocity": 1,
        "hand": "right"
      },
      {
        "midi": 63,
        "time": 168.904,
        "duration": 0.205,
        "velocity": 1,
        "hand": "right"
      },
      {
        "midi": 78,
        "time": 168.904,
        "duration": 0.103,
        "velocity": 1,
        "hand": "right"
      },
      {
        "midi": 79,
        "time": 169.007,
        "duration": 0.308,
        "velocity": 1,
        "hand": "right"
      },
      {
        "midi": 67,
        "time": 169.11,
        "duration": 0.205,
        "velocity": 1,
        "hand": "right"
      },
      {
        "midi": 63,
        "time": 169.315,
        "duration": 0.205,
        "velocity": 1,
        "hand": "right"
      },
      {
        "midi": 79,
        "time": 169.315,
        "duration": 0.411,
        "velocity": 1,
        "hand": "right"
      },
      {
        "midi": 67,
        "time": 169.521,
        "duration": 0.205,
        "velocity": 1,
        "hand": "right"
      },
      {
        "midi": 60,
        "time": 169.726,
        "duration": 0.205,
        "velocity": 1,
        "hand": "right"
      },
      {
        "midi": 67,
        "time": 169.932,
        "duration": 0.205,
        "velocity": 1,
        "hand": "right"
      },
      {
        "midi": 72,
        "time": 169.932,
        "duration": 0.205,
        "velocity": 1,
        "hand": "right"
      },
      {
        "midi": 60,
        "time": 170.137,
        "duration": 0.205,
        "velocity": 1,
        "hand": "right"
      },
      {
        "midi": 84,
        "time": 170.137,
        "duration": 0.205,
        "velocity": 1,
        "hand": "right"
      },
      {
        "midi": 67,
        "time": 170.342,
        "duration": 0.205,
        "velocity": 1,
        "hand": "right"
      },
      {
        "midi": 80,
        "time": 170.342,
        "duration": 0.205,
        "velocity": 1,
        "hand": "right"
      },
      {
        "midi": 62,
        "time": 170.548,
        "duration": 0.205,
        "velocity": 1,
        "hand": "right"
      },
      {
        "midi": 79,
        "time": 170.548,
        "duration": 0.205,
        "velocity": 1,
        "hand": "right"
      },
      {
        "midi": 67,
        "time": 170.753,
        "duration": 0.205,
        "velocity": 1,
        "hand": "right"
      },
      {
        "midi": 78,
        "time": 170.753,
        "duration": 0.205,
        "velocity": 1,
        "hand": "right"
      },
      {
        "midi": 62,
        "time": 170.959,
        "duration": 0.205,
        "velocity": 1,
        "hand": "right"
      },
      {
        "midi": 77,
        "time": 170.959,
        "duration": 0.411,
        "velocity": 1,
        "hand": "right"
      },
      {
        "midi": 67,
        "time": 171.164,
        "duration": 0.205,
        "velocity": 1,
        "hand": "right"
      },
      {
        "midi": 59,
        "time": 171.37,
        "duration": 0.205,
        "velocity": 1,
        "hand": "left"
      },
      {
        "midi": 67,
        "time": 171.575,
        "duration": 0.205,
        "velocity": 1,
        "hand": "right"
      },
      {
        "midi": 77,
        "time": 171.575,
        "duration": 0.205,
        "velocity": 1,
        "hand": "right"
      },
      {
        "midi": 59,
        "time": 171.781,
        "duration": 0.205,
        "velocity": 1,
        "hand": "left"
      },
      {
        "midi": 80,
        "time": 171.781,
        "duration": 0.205,
        "velocity": 1,
        "hand": "right"
      },
      {
        "midi": 67,
        "time": 171.986,
        "duration": 0.205,
        "velocity": 1,
        "hand": "right"
      },
      {
        "midi": 79,
        "time": 171.986,
        "duration": 0.205,
        "velocity": 1,
        "hand": "right"
      },
      {
        "midi": 58,
        "time": 172.192,
        "duration": 0.205,
        "velocity": 1,
        "hand": "left"
      },
      {
        "midi": 61,
        "time": 172.192,
        "duration": 0.205,
        "velocity": 1,
        "hand": "right"
      },
      {
        "midi": 77,
        "time": 172.192,
        "duration": 0.205,
        "velocity": 1,
        "hand": "right"
      },
      {
        "midi": 67,
        "time": 172.397,
        "duration": 0.205,
        "velocity": 1,
        "hand": "right"
      },
      {
        "midi": 76,
        "time": 172.397,
        "duration": 0.205,
        "velocity": 1,
        "hand": "right"
      },
      {
        "midi": 58,
        "time": 172.603,
        "duration": 0.205,
        "velocity": 1,
        "hand": "left"
      },
      {
        "midi": 61,
        "time": 172.603,
        "duration": 0.205,
        "velocity": 1,
        "hand": "right"
      },
      {
        "midi": 85,
        "time": 172.603,
        "duration": 0.822,
        "velocity": 1,
        "hand": "right"
      },
      {
        "midi": 67,
        "time": 172.808,
        "duration": 0.205,
        "velocity": 1,
        "hand": "right"
      },
      {
        "midi": 58,
        "time": 173.014,
        "duration": 0.205,
        "velocity": 1,
        "hand": "left"
      },
      {
        "midi": 61,
        "time": 173.014,
        "duration": 0.205,
        "velocity": 1,
        "hand": "right"
      },
      {
        "midi": 67,
        "time": 173.219,
        "duration": 0.205,
        "velocity": 1,
        "hand": "right"
      },
      {
        "midi": 58,
        "time": 173.425,
        "duration": 0.205,
        "velocity": 1,
        "hand": "left"
      },
      {
        "midi": 61,
        "time": 173.425,
        "duration": 0.205,
        "velocity": 1,
        "hand": "right"
      },
      {
        "midi": 76,
        "time": 173.425,
        "duration": 0.411,
        "velocity": 1,
        "hand": "right"
      },
      {
        "midi": 67,
        "time": 173.63,
        "duration": 0.205,
        "velocity": 1,
        "hand": "right"
      },
      {
        "midi": 56,
        "time": 173.836,
        "duration": 0.205,
        "velocity": 1,
        "hand": "left"
      },
      {
        "midi": 60,
        "time": 173.836,
        "duration": 0.205,
        "velocity": 1,
        "hand": "right"
      },
      {
        "midi": 79,
        "time": 173.836,
        "duration": 0.411,
        "velocity": 1,
        "hand": "right"
      },
      {
        "midi": 64,
        "time": 174.041,
        "duration": 0.205,
        "velocity": 1,
        "hand": "right"
      },
      {
        "midi": 56,
        "time": 174.247,
        "duration": 0.205,
        "velocity": 1,
        "hand": "left"
      },
      {
        "midi": 60,
        "time": 174.247,
        "duration": 0.205,
        "velocity": 1,
        "hand": "right"
      },
      {
        "midi": 77,
        "time": 174.247,
        "duration": 0.411,
        "velocity": 1,
        "hand": "right"
      },
      {
        "midi": 65,
        "time": 174.452,
        "duration": 0.205,
        "velocity": 1,
        "hand": "right"
      },
      {
        "midi": 56,
        "time": 174.658,
        "duration": 0.205,
        "velocity": 1,
        "hand": "left"
      },
      {
        "midi": 60,
        "time": 174.658,
        "duration": 0.205,
        "velocity": 1,
        "hand": "right"
      },
      {
        "midi": 65,
        "time": 174.863,
        "duration": 0.205,
        "velocity": 1,
        "hand": "right"
      },
      {
        "midi": 77,
        "time": 174.863,
        "duration": 0.205,
        "velocity": 1,
        "hand": "right"
      },
      {
        "midi": 56,
        "time": 175.068,
        "duration": 0.205,
        "velocity": 1,
        "hand": "left"
      },
      {
        "midi": 60,
        "time": 175.068,
        "duration": 0.205,
        "velocity": 1,
        "hand": "right"
      },
      {
        "midi": 84,
        "time": 175.068,
        "duration": 0.205,
        "velocity": 1,
        "hand": "right"
      },
      {
        "midi": 65,
        "time": 175.274,
        "duration": 0.205,
        "velocity": 1,
        "hand": "right"
      },
      {
        "midi": 80,
        "time": 175.274,
        "duration": 0.205,
        "velocity": 1,
        "hand": "right"
      },
      {
        "midi": 60,
        "time": 175.479,
        "duration": 0.205,
        "velocity": 1,
        "hand": "right"
      },
      {
        "midi": 63,
        "time": 175.479,
        "duration": 0.205,
        "velocity": 1,
        "hand": "right"
      },
      {
        "midi": 79,
        "time": 175.479,
        "duration": 0.205,
        "velocity": 1,
        "hand": "right"
      },
      {
        "midi": 68,
        "time": 175.685,
        "duration": 0.205,
        "velocity": 1,
        "hand": "right"
      },
      {
        "midi": 78,
        "time": 175.685,
        "duration": 0.205,
        "velocity": 1,
        "hand": "right"
      },
      {
        "midi": 60,
        "time": 175.89,
        "duration": 0.205,
        "velocity": 1,
        "hand": "right"
      },
      {
        "midi": 63,
        "time": 175.89,
        "duration": 0.205,
        "velocity": 1,
        "hand": "right"
      },
      {
        "midi": 87,
        "time": 175.89,
        "duration": 0.822,
        "velocity": 1,
        "hand": "right"
      },
      {
        "midi": 68,
        "time": 176.096,
        "duration": 0.205,
        "velocity": 1,
        "hand": "right"
      },
      {
        "midi": 60,
        "time": 176.301,
        "duration": 0.205,
        "velocity": 1,
        "hand": "right"
      },
      {
        "midi": 63,
        "time": 176.301,
        "duration": 0.205,
        "velocity": 1,
        "hand": "right"
      },
      {
        "midi": 68,
        "time": 176.507,
        "duration": 0.205,
        "velocity": 1,
        "hand": "right"
      },
      {
        "midi": 60,
        "time": 176.712,
        "duration": 0.205,
        "velocity": 1,
        "hand": "right"
      },
      {
        "midi": 63,
        "time": 176.712,
        "duration": 0.205,
        "velocity": 1,
        "hand": "right"
      },
      {
        "midi": 78,
        "time": 176.712,
        "duration": 0.411,
        "velocity": 1,
        "hand": "right"
      },
      {
        "midi": 68,
        "time": 176.918,
        "duration": 0.205,
        "velocity": 1,
        "hand": "right"
      },
      {
        "midi": 59,
        "time": 177.123,
        "duration": 0.411,
        "velocity": 1,
        "hand": "left"
      },
      {
        "midi": 62,
        "time": 177.123,
        "duration": 0.411,
        "velocity": 1,
        "hand": "right"
      },
      {
        "midi": 81,
        "time": 177.123,
        "duration": 0.205,
        "velocity": 1,
        "hand": "right"
      },
      {
        "midi": 79,
        "time": 177.329,
        "duration": 0.205,
        "velocity": 1,
        "hand": "right"
      },
      {
        "midi": 78,
        "time": 177.534,
        "duration": 0.205,
        "velocity": 1,
        "hand": "right"
      },
      {
        "midi": 79,
        "time": 177.74,
        "duration": 0.205,
        "velocity": 1,
        "hand": "right"
      },
      {
        "midi": 78,
        "time": 177.945,
        "duration": 0.205,
        "velocity": 1,
        "hand": "right"
      },
      {
        "midi": 79,
        "time": 178.151,
        "duration": 0.205,
        "velocity": 1,
        "hand": "right"
      },
      {
        "midi": 78,
        "time": 178.356,
        "duration": 0.205,
        "velocity": 1,
        "hand": "right"
      },
      {
        "midi": 79,
        "time": 178.562,
        "duration": 0.205,
        "velocity": 1,
        "hand": "right"
      },
      {
        "midi": 78,
        "time": 178.767,
        "duration": 0.205,
        "velocity": 1,
        "hand": "right"
      },
      {
        "midi": 67,
        "time": 178.973,
        "duration": 0.205,
        "velocity": 1,
        "hand": "right"
      },
      {
        "midi": 79,
        "time": 178.973,
        "duration": 0.205,
        "velocity": 1,
        "hand": "right"
      },
      {
        "midi": 66,
        "time": 179.178,
        "duration": 0.205,
        "velocity": 1,
        "hand": "right"
      },
      {
        "midi": 78,
        "time": 179.178,
        "duration": 0.205,
        "velocity": 1,
        "hand": "right"
      },
      {
        "midi": 67,
        "time": 179.384,
        "duration": 0.205,
        "velocity": 1,
        "hand": "right"
      },
      {
        "midi": 79,
        "time": 179.384,
        "duration": 0.205,
        "velocity": 1,
        "hand": "right"
      },
      {
        "midi": 68,
        "time": 179.589,
        "duration": 0.205,
        "velocity": 1,
        "hand": "right"
      },
      {
        "midi": 80,
        "time": 179.589,
        "duration": 0.205,
        "velocity": 1,
        "hand": "right"
      },
      {
        "midi": 69,
        "time": 179.795,
        "duration": 0.205,
        "velocity": 1,
        "hand": "right"
      },
      {
        "midi": 81,
        "time": 179.795,
        "duration": 0.205,
        "velocity": 1,
        "hand": "right"
      },
      {
        "midi": 70,
        "time": 180,
        "duration": 0.205,
        "velocity": 1,
        "hand": "right"
      },
      {
        "midi": 82,
        "time": 180,
        "duration": 0.205,
        "velocity": 1,
        "hand": "right"
      },
      {
        "midi": 71,
        "time": 180.205,
        "duration": 0.205,
        "velocity": 1,
        "hand": "right"
      },
      {
        "midi": 83,
        "time": 180.205,
        "duration": 0.205,
        "velocity": 1,
        "hand": "right"
      },
      {
        "midi": 57,
        "time": 180.411,
        "duration": 0.205,
        "velocity": 1,
        "hand": "left"
      },
      {
        "midi": 72,
        "time": 180.411,
        "duration": 0.205,
        "velocity": 1,
        "hand": "right"
      },
      {
        "midi": 84,
        "time": 180.411,
        "duration": 0.205,
        "velocity": 1,
        "hand": "right"
      },
      {
        "midi": 60,
        "time": 180.616,
        "duration": 0.205,
        "velocity": 1,
        "hand": "right"
      },
      {
        "midi": 72,
        "time": 180.616,
        "duration": 0.205,
        "velocity": 1,
        "hand": "right"
      },
      {
        "midi": 84,
        "time": 180.616,
        "duration": 0.205,
        "velocity": 1,
        "hand": "right"
      },
      {
        "midi": 57,
        "time": 180.822,
        "duration": 0.205,
        "velocity": 1,
        "hand": "left"
      },
      {
        "midi": 72,
        "time": 180.822,
        "duration": 0.822,
        "velocity": 1,
        "hand": "right"
      },
      {
        "midi": 84,
        "time": 180.822,
        "duration": 0.822,
        "velocity": 1,
        "hand": "right"
      },
      {
        "midi": 60,
        "time": 181.027,
        "duration": 0.205,
        "velocity": 1,
        "hand": "right"
      },
      {
        "midi": 53,
        "time": 181.233,
        "duration": 0.205,
        "velocity": 1,
        "hand": "left"
      },
      {
        "midi": 60,
        "time": 181.438,
        "duration": 0.205,
        "velocity": 1,
        "hand": "right"
      },
      {
        "midi": 53,
        "time": 181.644,
        "duration": 0.205,
        "velocity": 1,
        "hand": "left"
      },
      {
        "midi": 83,
        "time": 181.644,
        "duration": 0.205,
        "velocity": 1,
        "hand": "right"
      },
      {
        "midi": 60,
        "time": 181.849,
        "duration": 0.205,
        "velocity": 1,
        "hand": "right"
      },
      {
        "midi": 81,
        "time": 181.849,
        "duration": 0.205,
        "velocity": 1,
        "hand": "right"
      },
      {
        "midi": 52,
        "time": 182.055,
        "duration": 0.205,
        "velocity": 1,
        "hand": "left"
      },
      {
        "midi": 72,
        "time": 182.055,
        "duration": 0.205,
        "velocity": 1,
        "hand": "right"
      },
      {
        "midi": 79,
        "time": 182.055,
        "duration": 0.205,
        "velocity": 1,
        "hand": "right"
      },
      {
        "midi": 60,
        "time": 182.26,
        "duration": 0.205,
        "velocity": 1,
        "hand": "right"
      },
      {
        "midi": 72,
        "time": 182.26,
        "duration": 0.205,
        "velocity": 1,
        "hand": "right"
      },
      {
        "midi": 79,
        "time": 182.26,
        "duration": 0.205,
        "velocity": 1,
        "hand": "right"
      },
      {
        "midi": 52,
        "time": 182.466,
        "duration": 0.205,
        "velocity": 1,
        "hand": "left"
      },
      {
        "midi": 72,
        "time": 182.466,
        "duration": 0.822,
        "velocity": 1,
        "hand": "right"
      },
      {
        "midi": 79,
        "time": 182.466,
        "duration": 0.822,
        "velocity": 1,
        "hand": "right"
      },
      {
        "midi": 60,
        "time": 182.671,
        "duration": 0.205,
        "velocity": 1,
        "hand": "right"
      },
      {
        "midi": 48,
        "time": 182.877,
        "duration": 0.205,
        "velocity": 1,
        "hand": "left"
      },
      {
        "midi": 60,
        "time": 183.082,
        "duration": 0.205,
        "velocity": 1,
        "hand": "right"
      },
      {
        "midi": 48,
        "time": 183.288,
        "duration": 0.205,
        "velocity": 1,
        "hand": "left"
      },
      {
        "midi": 77,
        "time": 183.288,
        "duration": 0.205,
        "velocity": 1,
        "hand": "right"
      },
      {
        "midi": 60,
        "time": 183.493,
        "duration": 0.205,
        "velocity": 1,
        "hand": "right"
      },
      {
        "midi": 76,
        "time": 183.493,
        "duration": 0.308,
        "velocity": 1,
        "hand": "right"
      },
      {
        "midi": 53,
        "time": 183.699,
        "duration": 0.205,
        "velocity": 1,
        "hand": "left"
      },
      {
        "midi": 74,
        "time": 183.801,
        "duration": 0.103,
        "velocity": 1,
        "hand": "right"
      },
      {
        "midi": 57,
        "time": 183.904,
        "duration": 0.205,
        "velocity": 1,
        "hand": "left"
      },
      {
        "midi": 77,
        "time": 183.904,
        "duration": 0.103,
        "velocity": 1,
        "hand": "right"
      },
      {
        "midi": 76,
        "time": 184.007,
        "duration": 0.103,
        "velocity": 1,
        "hand": "right"
      },
      {
        "midi": 53,
        "time": 184.11,
        "duration": 0.205,
        "velocity": 1,
        "hand": "left"
      },
      {
        "midi": 79,
        "time": 184.11,
        "duration": 0.103,
        "velocity": 1,
        "hand": "right"
      },
      {
        "midi": 77,
        "time": 184.212,
        "duration": 0.103,
        "velocity": 1,
        "hand": "right"
      },
      {
        "midi": 62,
        "time": 184.315,
        "duration": 0.205,
        "velocity": 1,
        "hand": "right"
      },
      {
        "midi": 76,
        "time": 184.315,
        "duration": 0.103,
        "velocity": 1,
        "hand": "right"
      },
      {
        "midi": 74,
        "time": 184.418,
        "duration": 0.103,
        "velocity": 1,
        "hand": "right"
      },
      {
        "midi": 55,
        "time": 184.521,
        "duration": 0.205,
        "velocity": 1,
        "hand": "left"
      },
      {
        "midi": 72,
        "time": 184.521,
        "duration": 0.411,
        "velocity": 1,
        "hand": "right"
      },
      {
        "midi": 64,
        "time": 184.726,
        "duration": 0.205,
        "velocity": 1,
        "hand": "right"
      },
      {
        "midi": 55,
        "time": 184.932,
        "duration": 0.205,
        "velocity": 1,
        "hand": "left"
      },
      {
        "midi": 71,
        "time": 184.932,
        "duration": 0.411,
        "velocity": 1,
        "hand": "right"
      },
      {
        "midi": 62,
        "time": 185.137,
        "duration": 0.205,
        "velocity": 1,
        "hand": "right"
      },
      {
        "midi": 69,
        "time": 185.24,
        "duration": 0.051,
        "velocity": 1,
        "hand": "right"
      },
      {
        "midi": 57,
        "time": 185.342,
        "duration": 0.205,
        "velocity": 1,
        "hand": "left"
      },
      {
        "midi": 72,
        "time": 185.342,
        "duration": 0.205,
        "velocity": 1,
        "hand": "right"
      },
      {
        "midi": 84,
        "time": 185.342,
        "duration": 0.205,
        "velocity": 1,
        "hand": "right"
      },
      {
        "midi": 60,
        "time": 185.548,
        "duration": 0.205,
        "velocity": 1,
        "hand": "right"
      },
      {
        "midi": 72,
        "time": 185.548,
        "duration": 0.205,
        "velocity": 1,
        "hand": "right"
      },
      {
        "midi": 84,
        "time": 185.548,
        "duration": 0.205,
        "velocity": 1,
        "hand": "right"
      },
      {
        "midi": 57,
        "time": 185.753,
        "duration": 0.205,
        "velocity": 1,
        "hand": "left"
      },
      {
        "midi": 72,
        "time": 185.753,
        "duration": 0.616,
        "velocity": 1,
        "hand": "right"
      },
      {
        "midi": 84,
        "time": 185.753,
        "duration": 0.616,
        "velocity": 1,
        "hand": "right"
      },
      {
        "midi": 60,
        "time": 185.959,
        "duration": 0.205,
        "velocity": 1,
        "hand": "right"
      },
      {
        "midi": 53,
        "time": 186.164,
        "duration": 0.205,
        "velocity": 1,
        "hand": "left"
      },
      {
        "midi": 60,
        "time": 186.37,
        "duration": 0.205,
        "velocity": 1,
        "hand": "right"
      },
      {
        "midi": 86,
        "time": 186.37,
        "duration": 0.103,
        "velocity": 1,
        "hand": "right"
      },
      {
        "midi": 84,
        "time": 186.473,
        "duration": 0.103,
        "velocity": 1,
        "hand": "right"
      },
      {
        "midi": 53,
        "time": 186.575,
        "duration": 0.205,
        "velocity": 1,
        "hand": "left"
      },
      {
        "midi": 83,
        "time": 186.575,
        "duration": 0.205,
        "velocity": 1,
        "hand": "right"
      },
      {
        "midi": 60,
        "time": 186.781,
        "duration": 0.205,
        "velocity": 1,
        "hand": "right"
      },
      {
        "midi": 81,
        "time": 186.781,
        "duration": 0.205,
        "velocity": 1,
        "hand": "right"
      },
      {
        "midi": 52,
        "time": 186.986,
        "duration": 0.205,
        "velocity": 1,
        "hand": "left"
      },
      {
        "midi": 72,
        "time": 186.986,
        "duration": 0.205,
        "velocity": 1,
        "hand": "right"
      },
      {
        "midi": 79,
        "time": 186.986,
        "duration": 0.205,
        "velocity": 1,
        "hand": "right"
      },
      {
        "midi": 60,
        "time": 187.192,
        "duration": 0.205,
        "velocity": 1,
        "hand": "right"
      },
      {
        "midi": 72,
        "time": 187.192,
        "duration": 0.205,
        "velocity": 1,
        "hand": "right"
      },
      {
        "midi": 79,
        "time": 187.192,
        "duration": 0.205,
        "velocity": 1,
        "hand": "right"
      },
      {
        "midi": 52,
        "time": 187.397,
        "duration": 0.205,
        "velocity": 1,
        "hand": "left"
      },
      {
        "midi": 72,
        "time": 187.397,
        "duration": 0.616,
        "velocity": 1,
        "hand": "right"
      },
      {
        "midi": 79,
        "time": 187.397,
        "duration": 0.616,
        "velocity": 1,
        "hand": "right"
      },
      {
        "midi": 60,
        "time": 187.603,
        "duration": 0.205,
        "velocity": 1,
        "hand": "right"
      },
      {
        "midi": 48,
        "time": 187.808,
        "duration": 0.205,
        "velocity": 1,
        "hand": "left"
      },
      {
        "midi": 60,
        "time": 188.014,
        "duration": 0.205,
        "velocity": 1,
        "hand": "right"
      },
      {
        "midi": 81,
        "time": 188.014,
        "duration": 0.103,
        "velocity": 1,
        "hand": "right"
      },
      {
        "midi": 79,
        "time": 188.116,
        "duration": 0.103,
        "velocity": 1,
        "hand": "right"
      },
      {
        "midi": 48,
        "time": 188.219,
        "duration": 0.205,
        "velocity": 1,
        "hand": "left"
      },
      {
        "midi": 77,
        "time": 188.219,
        "duration": 0.205,
        "velocity": 1,
        "hand": "right"
      },
      {
        "midi": 60,
        "time": 188.425,
        "duration": 0.205,
        "velocity": 1,
        "hand": "right"
      },
      {
        "midi": 76,
        "time": 188.425,
        "duration": 0.308,
        "velocity": 1,
        "hand": "right"
      },
      {
        "midi": 53,
        "time": 188.63,
        "duration": 0.205,
        "velocity": 1,
        "hand": "left"
      },
      {
        "midi": 74,
        "time": 188.733,
        "duration": 0.103,
        "velocity": 1,
        "hand": "right"
      },
      {
        "midi": 60,
        "time": 188.836,
        "duration": 0.205,
        "velocity": 1,
        "hand": "right"
      },
      {
        "midi": 81,
        "time": 188.836,
        "duration": 0.103,
        "velocity": 1,
        "hand": "right"
      },
      {
        "midi": 80,
        "time": 188.938,
        "duration": 0.103,
        "velocity": 1,
        "hand": "right"
      },
      {
        "midi": 53,
        "time": 189.041,
        "duration": 0.205,
        "velocity": 1,
        "hand": "left"
      },
      {
        "midi": 83,
        "time": 189.041,
        "duration": 0.103,
        "velocity": 1,
        "hand": "right"
      },
      {
        "midi": 81,
        "time": 189.144,
        "duration": 0.103,
        "velocity": 1,
        "hand": "right"
      },
      {
        "midi": 62,
        "time": 189.247,
        "duration": 0.205,
        "velocity": 1,
        "hand": "right"
      },
      {
        "midi": 79,
        "time": 189.247,
        "duration": 0.103,
        "velocity": 1,
        "hand": "right"
      },
      {
        "midi": 77,
        "time": 189.349,
        "duration": 0.103,
        "velocity": 1,
        "hand": "right"
      },
      {
        "midi": 55,
        "time": 189.452,
        "duration": 0.205,
        "velocity": 1,
        "hand": "left"
      },
      {
        "midi": 76,
        "time": 189.452,
        "duration": 0.411,
        "velocity": 1,
        "hand": "right"
      },
      {
        "midi": 60,
        "time": 189.658,
        "duration": 0.205,
        "velocity": 1,
        "hand": "right"
      },
      {
        "midi": 55,
        "time": 189.863,
        "duration": 0.205,
        "velocity": 1,
        "hand": "left"
      },
      {
        "midi": 74,
        "time": 189.863,
        "duration": 0.411,
        "velocity": 1,
        "hand": "right"
      },
      {
        "midi": 59,
        "time": 190.068,
        "duration": 0.205,
        "velocity": 1,
        "hand": "left"
      },
      {
        "midi": 72,
        "time": 190.171,
        "duration": 0.051,
        "velocity": 1,
        "hand": "right"
      },
      {
        "midi": 60,
        "time": 190.274,
        "duration": 0.205,
        "velocity": 1,
        "hand": "right"
      },
      {
        "midi": 64,
        "time": 190.274,
        "duration": 0.205,
        "velocity": 1,
        "hand": "right"
      },
      {
        "midi": 72,
        "time": 190.274,
        "duration": 0.411,
        "velocity": 1,
        "hand": "right"
      },
      {
        "midi": 60,
        "time": 190.479,
        "duration": 0.205,
        "velocity": 1,
        "hand": "right"
      },
      {
        "midi": 64,
        "time": 190.479,
        "duration": 0.205,
        "velocity": 1,
        "hand": "right"
      },
      {
        "midi": 60,
        "time": 190.685,
        "duration": 0.205,
        "velocity": 1,
        "hand": "right"
      },
      {
        "midi": 64,
        "time": 190.685,
        "duration": 0.205,
        "velocity": 1,
        "hand": "right"
      },
      {
        "midi": 60,
        "time": 190.89,
        "duration": 0.205,
        "velocity": 1,
        "hand": "right"
      },
      {
        "midi": 64,
        "time": 190.89,
        "duration": 0.205,
        "velocity": 1,
        "hand": "right"
      },
      {
        "midi": 72,
        "time": 190.89,
        "duration": 0.103,
        "velocity": 1,
        "hand": "right"
      },
      {
        "midi": 74,
        "time": 190.89,
        "duration": 0.051,
        "velocity": 1,
        "hand": "right"
      },
      {
        "midi": 71,
        "time": 190.993,
        "duration": 0.103,
        "velocity": 1,
        "hand": "right"
      },
      {
        "midi": 60,
        "time": 191.096,
        "duration": 0.205,
        "velocity": 1,
        "hand": "right"
      },
      {
        "midi": 64,
        "time": 191.096,
        "duration": 0.205,
        "velocity": 1,
        "hand": "right"
      },
      {
        "midi": 72,
        "time": 191.096,
        "duration": 0.205,
        "velocity": 1,
        "hand": "right"
      },
      {
        "midi": 60,
        "time": 191.301,
        "duration": 0.205,
        "velocity": 1,
        "hand": "right"
      },
      {
        "midi": 64,
        "time": 191.301,
        "duration": 0.205,
        "velocity": 1,
        "hand": "right"
      },
      {
        "midi": 75,
        "time": 191.301,
        "duration": 0.205,
        "velocity": 1,
        "hand": "right"
      },
      {
        "midi": 60,
        "time": 191.507,
        "duration": 0.205,
        "velocity": 1,
        "hand": "right"
      },
      {
        "midi": 64,
        "time": 191.507,
        "duration": 0.205,
        "velocity": 1,
        "hand": "right"
      },
      {
        "midi": 76,
        "time": 191.507,
        "duration": 0.205,
        "velocity": 1,
        "hand": "right"
      },
      {
        "midi": 60,
        "time": 191.712,
        "duration": 0.205,
        "velocity": 1,
        "hand": "right"
      },
      {
        "midi": 64,
        "time": 191.712,
        "duration": 0.205,
        "velocity": 1,
        "hand": "right"
      },
      {
        "midi": 78,
        "time": 191.712,
        "duration": 0.205,
        "velocity": 1,
        "hand": "right"
      },
      {
        "midi": 60,
        "time": 191.918,
        "duration": 0.205,
        "velocity": 1,
        "hand": "right"
      },
      {
        "midi": 64,
        "time": 191.918,
        "duration": 0.205,
        "velocity": 1,
        "hand": "right"
      },
      {
        "midi": 79,
        "time": 191.918,
        "duration": 0.205,
        "velocity": 1,
        "hand": "right"
      },
      {
        "midi": 60,
        "time": 192.123,
        "duration": 0.205,
        "velocity": 1,
        "hand": "right"
      },
      {
        "midi": 64,
        "time": 192.123,
        "duration": 0.205,
        "velocity": 1,
        "hand": "right"
      },
      {
        "midi": 83,
        "time": 192.123,
        "duration": 0.205,
        "velocity": 1,
        "hand": "right"
      },
      {
        "midi": 60,
        "time": 192.329,
        "duration": 0.205,
        "velocity": 1,
        "hand": "right"
      },
      {
        "midi": 64,
        "time": 192.329,
        "duration": 0.205,
        "velocity": 1,
        "hand": "right"
      },
      {
        "midi": 84,
        "time": 192.329,
        "duration": 0.205,
        "velocity": 1,
        "hand": "right"
      },
      {
        "midi": 60,
        "time": 192.534,
        "duration": 0.205,
        "velocity": 1,
        "hand": "right"
      },
      {
        "midi": 64,
        "time": 192.534,
        "duration": 0.205,
        "velocity": 1,
        "hand": "right"
      },
      {
        "midi": 87,
        "time": 192.534,
        "duration": 0.205,
        "velocity": 1,
        "hand": "right"
      },
      {
        "midi": 60,
        "time": 192.74,
        "duration": 0.205,
        "velocity": 1,
        "hand": "right"
      },
      {
        "midi": 64,
        "time": 192.74,
        "duration": 0.205,
        "velocity": 1,
        "hand": "right"
      },
      {
        "midi": 88,
        "time": 192.74,
        "duration": 0.411,
        "velocity": 1,
        "hand": "right"
      },
      {
        "midi": 60,
        "time": 192.945,
        "duration": 0.205,
        "velocity": 1,
        "hand": "right"
      },
      {
        "midi": 64,
        "time": 192.945,
        "duration": 0.205,
        "velocity": 1,
        "hand": "right"
      },
      {
        "midi": 60,
        "time": 193.151,
        "duration": 0.205,
        "velocity": 1,
        "hand": "right"
      },
      {
        "midi": 64,
        "time": 193.151,
        "duration": 0.205,
        "velocity": 1,
        "hand": "right"
      },
      {
        "midi": 60,
        "time": 193.356,
        "duration": 0.205,
        "velocity": 1,
        "hand": "right"
      },
      {
        "midi": 64,
        "time": 193.356,
        "duration": 0.205,
        "velocity": 1,
        "hand": "right"
      },
      {
        "midi": 59,
        "time": 193.562,
        "duration": 0.205,
        "velocity": 1,
        "hand": "left"
      },
      {
        "midi": 62,
        "time": 193.562,
        "duration": 0.205,
        "velocity": 1,
        "hand": "right"
      },
      {
        "midi": 74,
        "time": 193.562,
        "duration": 0.411,
        "velocity": 1,
        "hand": "right"
      },
      {
        "midi": 79,
        "time": 193.562,
        "duration": 0.411,
        "velocity": 1,
        "hand": "right"
      },
      {
        "midi": 86,
        "time": 193.562,
        "duration": 0.411,
        "velocity": 1,
        "hand": "right"
      },
      {
        "midi": 59,
        "time": 193.767,
        "duration": 0.205,
        "velocity": 1,
        "hand": "left"
      },
      {
        "midi": 62,
        "time": 193.767,
        "duration": 0.205,
        "velocity": 1,
        "hand": "right"
      },
      {
        "midi": 59,
        "time": 193.973,
        "duration": 0.205,
        "velocity": 1,
        "hand": "left"
      },
      {
        "midi": 62,
        "time": 193.973,
        "duration": 0.205,
        "velocity": 1,
        "hand": "right"
      },
      {
        "midi": 59,
        "time": 194.178,
        "duration": 0.205,
        "velocity": 1,
        "hand": "left"
      },
      {
        "midi": 62,
        "time": 194.178,
        "duration": 0.205,
        "velocity": 1,
        "hand": "right"
      },
      {
        "midi": 71,
        "time": 194.178,
        "duration": 0.103,
        "velocity": 1,
        "hand": "right"
      },
      {
        "midi": 72,
        "time": 194.178,
        "duration": 0.051,
        "velocity": 1,
        "hand": "right"
      },
      {
        "midi": 69,
        "time": 194.281,
        "duration": 0.103,
        "velocity": 1,
        "hand": "right"
      },
      {
        "midi": 59,
        "time": 194.384,
        "duration": 0.205,
        "velocity": 1,
        "hand": "left"
      },
      {
        "midi": 62,
        "time": 194.384,
        "duration": 0.205,
        "velocity": 1,
        "hand": "right"
      },
      {
        "midi": 71,
        "time": 194.384,
        "duration": 0.205,
        "velocity": 1,
        "hand": "right"
      },
      {
        "midi": 59,
        "time": 194.589,
        "duration": 0.205,
        "velocity": 1,
        "hand": "left"
      },
      {
        "midi": 62,
        "time": 194.589,
        "duration": 0.205,
        "velocity": 1,
        "hand": "right"
      },
      {
        "midi": 73,
        "time": 194.589,
        "duration": 0.205,
        "velocity": 1,
        "hand": "right"
      },
      {
        "midi": 59,
        "time": 194.795,
        "duration": 0.205,
        "velocity": 1,
        "hand": "left"
      },
      {
        "midi": 62,
        "time": 194.795,
        "duration": 0.205,
        "velocity": 1,
        "hand": "right"
      },
      {
        "midi": 74,
        "time": 194.795,
        "duration": 0.205,
        "velocity": 1,
        "hand": "right"
      },
      {
        "midi": 59,
        "time": 195,
        "duration": 0.205,
        "velocity": 1,
        "hand": "left"
      },
      {
        "midi": 62,
        "time": 195,
        "duration": 0.205,
        "velocity": 1,
        "hand": "right"
      },
      {
        "midi": 78,
        "time": 195,
        "duration": 0.205,
        "velocity": 1,
        "hand": "right"
      },
      {
        "midi": 59,
        "time": 195.205,
        "duration": 0.205,
        "velocity": 1,
        "hand": "left"
      },
      {
        "midi": 62,
        "time": 195.205,
        "duration": 0.205,
        "velocity": 1,
        "hand": "right"
      },
      {
        "midi": 79,
        "time": 195.205,
        "duration": 0.205,
        "velocity": 1,
        "hand": "right"
      },
      {
        "midi": 59,
        "time": 195.411,
        "duration": 0.205,
        "velocity": 1,
        "hand": "left"
      },
      {
        "midi": 62,
        "time": 195.411,
        "duration": 0.205,
        "velocity": 1,
        "hand": "right"
      },
      {
        "midi": 82,
        "time": 195.411,
        "duration": 0.205,
        "velocity": 1,
        "hand": "right"
      },
      {
        "midi": 59,
        "time": 195.616,
        "duration": 0.205,
        "velocity": 1,
        "hand": "left"
      },
      {
        "midi": 62,
        "time": 195.616,
        "duration": 0.205,
        "velocity": 1,
        "hand": "right"
      },
      {
        "midi": 83,
        "time": 195.616,
        "duration": 0.205,
        "velocity": 1,
        "hand": "right"
      },
      {
        "midi": 59,
        "time": 195.822,
        "duration": 0.205,
        "velocity": 1,
        "hand": "left"
      },
      {
        "midi": 62,
        "time": 195.822,
        "duration": 0.205,
        "velocity": 1,
        "hand": "right"
      },
      {
        "midi": 85,
        "time": 195.822,
        "duration": 0.205,
        "velocity": 1,
        "hand": "right"
      },
      {
        "midi": 59,
        "time": 196.027,
        "duration": 0.205,
        "velocity": 1,
        "hand": "left"
      },
      {
        "midi": 62,
        "time": 196.027,
        "duration": 0.205,
        "velocity": 1,
        "hand": "right"
      },
      {
        "midi": 86,
        "time": 196.027,
        "duration": 0.411,
        "velocity": 1,
        "hand": "right"
      },
      {
        "midi": 59,
        "time": 196.233,
        "duration": 0.205,
        "velocity": 1,
        "hand": "left"
      },
      {
        "midi": 62,
        "time": 196.233,
        "duration": 0.205,
        "velocity": 1,
        "hand": "right"
      },
      {
        "midi": 59,
        "time": 196.438,
        "duration": 0.205,
        "velocity": 1,
        "hand": "left"
      },
      {
        "midi": 62,
        "time": 196.438,
        "duration": 0.205,
        "velocity": 1,
        "hand": "right"
      },
      {
        "midi": 59,
        "time": 196.644,
        "duration": 0.205,
        "velocity": 1,
        "hand": "left"
      },
      {
        "midi": 62,
        "time": 196.644,
        "duration": 0.205,
        "velocity": 1,
        "hand": "right"
      },
      {
        "midi": 54,
        "time": 196.849,
        "duration": 0.205,
        "velocity": 1,
        "hand": "left"
      },
      {
        "midi": 57,
        "time": 196.849,
        "duration": 0.205,
        "velocity": 1,
        "hand": "left"
      },
      {
        "midi": 62,
        "time": 196.849,
        "duration": 0.205,
        "velocity": 1,
        "hand": "right"
      },
      {
        "midi": 72,
        "time": 196.849,
        "duration": 0.411,
        "velocity": 1,
        "hand": "right"
      },
      {
        "midi": 78,
        "time": 196.849,
        "duration": 0.411,
        "velocity": 1,
        "hand": "right"
      },
      {
        "midi": 84,
        "time": 196.849,
        "duration": 0.411,
        "velocity": 1,
        "hand": "right"
      },
      {
        "midi": 54,
        "time": 197.055,
        "duration": 0.205,
        "velocity": 1,
        "hand": "left"
      },
      {
        "midi": 57,
        "time": 197.055,
        "duration": 0.205,
        "velocity": 1,
        "hand": "left"
      },
      {
        "midi": 62,
        "time": 197.055,
        "duration": 0.205,
        "velocity": 1,
        "hand": "right"
      },
      {
        "midi": 54,
        "time": 197.26,
        "duration": 0.205,
        "velocity": 1,
        "hand": "left"
      },
      {
        "midi": 57,
        "time": 197.26,
        "duration": 0.205,
        "velocity": 1,
        "hand": "left"
      },
      {
        "midi": 62,
        "time": 197.26,
        "duration": 0.205,
        "velocity": 1,
        "hand": "right"
      },
      {
        "midi": 54,
        "time": 197.466,
        "duration": 0.205,
        "velocity": 1,
        "hand": "left"
      },
      {
        "midi": 57,
        "time": 197.466,
        "duration": 0.205,
        "velocity": 1,
        "hand": "left"
      },
      {
        "midi": 62,
        "time": 197.466,
        "duration": 0.205,
        "velocity": 1,
        "hand": "right"
      },
      {
        "midi": 69,
        "time": 197.466,
        "duration": 0.103,
        "velocity": 1,
        "hand": "right"
      },
      {
        "midi": 71,
        "time": 197.466,
        "duration": 0.051,
        "velocity": 1,
        "hand": "right"
      },
      {
        "midi": 68,
        "time": 197.568,
        "duration": 0.103,
        "velocity": 1,
        "hand": "right"
      },
      {
        "midi": 54,
        "time": 197.671,
        "duration": 0.205,
        "velocity": 1,
        "hand": "left"
      },
      {
        "midi": 57,
        "time": 197.671,
        "duration": 0.205,
        "velocity": 1,
        "hand": "left"
      },
      {
        "midi": 62,
        "time": 197.671,
        "duration": 0.205,
        "velocity": 1,
        "hand": "right"
      },
      {
        "midi": 69,
        "time": 197.671,
        "duration": 0.205,
        "velocity": 1,
        "hand": "right"
      },
      {
        "midi": 54,
        "time": 197.877,
        "duration": 0.205,
        "velocity": 1,
        "hand": "left"
      },
      {
        "midi": 57,
        "time": 197.877,
        "duration": 0.205,
        "velocity": 1,
        "hand": "left"
      },
      {
        "midi": 62,
        "time": 197.877,
        "duration": 0.205,
        "velocity": 1,
        "hand": "right"
      },
      {
        "midi": 71,
        "time": 197.877,
        "duration": 0.205,
        "velocity": 1,
        "hand": "right"
      },
      {
        "midi": 54,
        "time": 198.082,
        "duration": 0.205,
        "velocity": 1,
        "hand": "left"
      },
      {
        "midi": 57,
        "time": 198.082,
        "duration": 0.205,
        "velocity": 1,
        "hand": "left"
      },
      {
        "midi": 62,
        "time": 198.082,
        "duration": 0.205,
        "velocity": 1,
        "hand": "right"
      },
      {
        "midi": 72,
        "time": 198.082,
        "duration": 0.205,
        "velocity": 1,
        "hand": "right"
      },
      {
        "midi": 54,
        "time": 198.288,
        "duration": 0.205,
        "velocity": 1,
        "hand": "left"
      },
      {
        "midi": 57,
        "time": 198.288,
        "duration": 0.205,
        "velocity": 1,
        "hand": "left"
      },
      {
        "midi": 62,
        "time": 198.288,
        "duration": 0.205,
        "velocity": 1,
        "hand": "right"
      },
      {
        "midi": 77,
        "time": 198.288,
        "duration": 0.205,
        "velocity": 1,
        "hand": "right"
      },
      {
        "midi": 54,
        "time": 198.493,
        "duration": 0.205,
        "velocity": 1,
        "hand": "left"
      },
      {
        "midi": 57,
        "time": 198.493,
        "duration": 0.205,
        "velocity": 1,
        "hand": "left"
      },
      {
        "midi": 62,
        "time": 198.493,
        "duration": 0.205,
        "velocity": 1,
        "hand": "right"
      },
      {
        "midi": 78,
        "time": 198.493,
        "duration": 0.205,
        "velocity": 1,
        "hand": "right"
      },
      {
        "midi": 54,
        "time": 198.699,
        "duration": 0.205,
        "velocity": 1,
        "hand": "left"
      },
      {
        "midi": 57,
        "time": 198.699,
        "duration": 0.205,
        "velocity": 1,
        "hand": "left"
      },
      {
        "midi": 62,
        "time": 198.699,
        "duration": 0.205,
        "velocity": 1,
        "hand": "right"
      },
      {
        "midi": 80,
        "time": 198.699,
        "duration": 0.205,
        "velocity": 1,
        "hand": "right"
      },
      {
        "midi": 54,
        "time": 198.904,
        "duration": 0.205,
        "velocity": 1,
        "hand": "left"
      },
      {
        "midi": 57,
        "time": 198.904,
        "duration": 0.205,
        "velocity": 1,
        "hand": "left"
      },
      {
        "midi": 62,
        "time": 198.904,
        "duration": 0.205,
        "velocity": 1,
        "hand": "right"
      },
      {
        "midi": 81,
        "time": 198.904,
        "duration": 0.205,
        "velocity": 1,
        "hand": "right"
      },
      {
        "midi": 54,
        "time": 199.11,
        "duration": 0.205,
        "velocity": 1,
        "hand": "left"
      },
      {
        "midi": 57,
        "time": 199.11,
        "duration": 0.205,
        "velocity": 1,
        "hand": "left"
      },
      {
        "midi": 62,
        "time": 199.11,
        "duration": 0.205,
        "velocity": 1,
        "hand": "right"
      },
      {
        "midi": 83,
        "time": 199.11,
        "duration": 0.205,
        "velocity": 1,
        "hand": "right"
      },
      {
        "midi": 54,
        "time": 199.315,
        "duration": 0.205,
        "velocity": 1,
        "hand": "left"
      },
      {
        "midi": 57,
        "time": 199.315,
        "duration": 0.205,
        "velocity": 1,
        "hand": "left"
      },
      {
        "midi": 62,
        "time": 199.315,
        "duration": 0.205,
        "velocity": 1,
        "hand": "right"
      },
      {
        "midi": 84,
        "time": 199.315,
        "duration": 0.411,
        "velocity": 1,
        "hand": "right"
      },
      {
        "midi": 54,
        "time": 199.521,
        "duration": 0.205,
        "velocity": 1,
        "hand": "left"
      },
      {
        "midi": 57,
        "time": 199.521,
        "duration": 0.205,
        "velocity": 1,
        "hand": "left"
      },
      {
        "midi": 62,
        "time": 199.521,
        "duration": 0.205,
        "velocity": 1,
        "hand": "right"
      },
      {
        "midi": 54,
        "time": 199.726,
        "duration": 0.205,
        "velocity": 1,
        "hand": "left"
      },
      {
        "midi": 57,
        "time": 199.726,
        "duration": 0.205,
        "velocity": 1,
        "hand": "left"
      },
      {
        "midi": 62,
        "time": 199.726,
        "duration": 0.205,
        "velocity": 1,
        "hand": "right"
      },
      {
        "midi": 54,
        "time": 199.932,
        "duration": 0.205,
        "velocity": 1,
        "hand": "left"
      },
      {
        "midi": 57,
        "time": 199.932,
        "duration": 0.205,
        "velocity": 1,
        "hand": "left"
      },
      {
        "midi": 62,
        "time": 199.932,
        "duration": 0.205,
        "velocity": 1,
        "hand": "right"
      },
      {
        "midi": 55,
        "time": 200.137,
        "duration": 0.822,
        "velocity": 1,
        "hand": "left"
      },
      {
        "midi": 62,
        "time": 200.137,
        "duration": 0.822,
        "velocity": 1,
        "hand": "right"
      },
      {
        "midi": 83,
        "time": 200.137,
        "duration": 0.103,
        "velocity": 1,
        "hand": "right"
      },
      {
        "midi": 81,
        "time": 200.24,
        "duration": 0.103,
        "velocity": 1,
        "hand": "right"
      },
      {
        "midi": 84,
        "time": 200.342,
        "duration": 0.103,
        "velocity": 1,
        "hand": "right"
      },
      {
        "midi": 83,
        "time": 200.445,
        "duration": 0.103,
        "velocity": 1,
        "hand": "right"
      },
      {
        "midi": 86,
        "time": 200.548,
        "duration": 0.205,
        "velocity": 1,
        "hand": "right"
      },
      {
        "midi": 78,
        "time": 200.753,
        "duration": 0.205,
        "velocity": 1,
        "hand": "right"
      },
      {
        "midi": 55,
        "time": 200.959,
        "duration": 0.822,
        "velocity": 1,
        "hand": "left"
      },
      {
        "midi": 59,
        "time": 200.959,
        "duration": 0.822,
        "velocity": 1,
        "hand": "left"
      },
      {
        "midi": 79,
        "time": 200.959,
        "duration": 0.103,
        "velocity": 1,
        "hand": "right"
      },
      {
        "midi": 78,
        "time": 201.062,
        "duration": 0.103,
        "velocity": 1,
        "hand": "right"
      },
      {
        "midi": 81,
        "time": 201.164,
        "duration": 0.103,
        "velocity": 1,
        "hand": "right"
      },
      {
        "midi": 79,
        "time": 201.267,
        "duration": 0.103,
        "velocity": 1,
        "hand": "right"
      },
      {
        "midi": 83,
        "time": 201.37,
        "duration": 0.205,
        "velocity": 1,
        "hand": "right"
      },
      {
        "midi": 75,
        "time": 201.575,
        "duration": 0.205,
        "velocity": 1,
        "hand": "right"
      },
      {
        "midi": 55,
        "time": 201.781,
        "duration": 0.822,
        "velocity": 1,
        "hand": "left"
      },
      {
        "midi": 60,
        "time": 201.781,
        "duration": 0.822,
        "velocity": 1,
        "hand": "right"
      },
      {
        "midi": 76,
        "time": 201.781,
        "duration": 0.103,
        "velocity": 1,
        "hand": "right"
      },
      {
        "midi": 75,
        "time": 201.884,
        "duration": 0.103,
        "velocity": 1,
        "hand": "right"
      },
      {
        "midi": 78,
        "time": 201.986,
        "duration": 0.103,
        "velocity": 1,
        "hand": "right"
      },
      {
        "midi": 76,
        "time": 202.089,
        "duration": 0.103,
        "velocity": 1,
        "hand": "right"
      },
      {
        "midi": 79,
        "time": 202.192,
        "duration": 0.205,
        "velocity": 1,
        "hand": "right"
      },
      {
        "midi": 71,
        "time": 202.397,
        "duration": 0.205,
        "velocity": 1,
        "hand": "right"
      },
      {
        "midi": 55,
        "time": 202.603,
        "duration": 0.822,
        "velocity": 1,
        "hand": "left"
      },
      {
        "midi": 66,
        "time": 202.603,
        "duration": 0.822,
        "velocity": 1,
        "hand": "right"
      },
      {
        "midi": 72,
        "time": 202.603,
        "duration": 0.103,
        "velocity": 1,
        "hand": "right"
      },
      {
        "midi": 71,
        "time": 202.705,
        "duration": 0.103,
        "velocity": 1,
        "hand": "right"
      },
      {
        "midi": 74,
        "time": 202.808,
        "duration": 0.103,
        "velocity": 1,
        "hand": "right"
      },
      {
        "midi": 72,
        "time": 202.911,
        "duration": 0.103,
        "velocity": 1,
        "hand": "right"
      },
      {
        "midi": 76,
        "time": 203.014,
        "duration": 0.205,
        "velocity": 1,
        "hand": "right"
      },
      {
        "midi": 69,
        "time": 203.219,
        "duration": 0.205,
        "velocity": 1,
        "hand": "right"
      },
      {
        "midi": 55,
        "time": 203.425,
        "duration": 0.411,
        "velocity": 1,
        "hand": "left"
      },
      {
        "midi": 67,
        "time": 203.425,
        "duration": 0.411,
        "velocity": 1,
        "hand": "right"
      },
      {
        "midi": 71,
        "time": 203.425,
        "duration": 0.103,
        "velocity": 1,
        "hand": "right"
      },
      {
        "midi": 69,
        "time": 203.527,
        "duration": 0.103,
        "velocity": 1,
        "hand": "right"
      },
      {
        "midi": 72,
        "time": 203.63,
        "duration": 0.103,
        "velocity": 1,
        "hand": "right"
      },
      {
        "midi": 71,
        "time": 203.733,
        "duration": 0.103,
        "velocity": 1,
        "hand": "right"
      },
      {
        "midi": 74,
        "time": 203.836,
        "duration": 0.205,
        "velocity": 1,
        "hand": "right"
      },
      {
        "midi": 54,
        "time": 204.041,
        "duration": 0.205,
        "velocity": 1,
        "hand": "left"
      },
      {
        "midi": 66,
        "time": 204.041,
        "duration": 0.205,
        "velocity": 1,
        "hand": "right"
      },
      {
        "midi": 55,
        "time": 204.247,
        "duration": 0.103,
        "velocity": 1,
        "hand": "left"
      },
      {
        "midi": 67,
        "time": 204.247,
        "duration": 0.103,
        "velocity": 1,
        "hand": "right"
      },
      {
        "midi": 54,
        "time": 204.349,
        "duration": 0.103,
        "velocity": 1,
        "hand": "left"
      },
      {
        "midi": 66,
        "time": 204.349,
        "duration": 0.103,
        "velocity": 1,
        "hand": "right"
      },
      {
        "midi": 57,
        "time": 204.452,
        "duration": 0.103,
        "velocity": 1,
        "hand": "left"
      },
      {
        "midi": 69,
        "time": 204.452,
        "duration": 0.103,
        "velocity": 1,
        "hand": "right"
      },
      {
        "midi": 55,
        "time": 204.555,
        "duration": 0.103,
        "velocity": 1,
        "hand": "left"
      },
      {
        "midi": 67,
        "time": 204.555,
        "duration": 0.103,
        "velocity": 1,
        "hand": "right"
      },
      {
        "midi": 59,
        "time": 204.658,
        "duration": 0.205,
        "velocity": 1,
        "hand": "left"
      },
      {
        "midi": 71,
        "time": 204.658,
        "duration": 0.205,
        "velocity": 1,
        "hand": "right"
      },
      {
        "midi": 50,
        "time": 204.863,
        "duration": 0.205,
        "velocity": 1,
        "hand": "left"
      },
      {
        "midi": 62,
        "time": 204.863,
        "duration": 0.205,
        "velocity": 1,
        "hand": "right"
      },
      {
        "midi": 52,
        "time": 205.068,
        "duration": 0.308,
        "velocity": 1,
        "hand": "left"
      },
      {
        "midi": 64,
        "time": 205.068,
        "duration": 0.308,
        "velocity": 1,
        "hand": "right"
      },
      {
        "midi": 50,
        "time": 205.377,
        "duration": 0.103,
        "velocity": 1,
        "hand": "left"
      },
      {
        "midi": 62,
        "time": 205.377,
        "duration": 0.103,
        "velocity": 1,
        "hand": "right"
      },
      {
        "midi": 48,
        "time": 205.479,
        "duration": 0.308,
        "velocity": 1,
        "hand": "left"
      },
      {
        "midi": 60,
        "time": 205.479,
        "duration": 0.308,
        "velocity": 1,
        "hand": "right"
      },
      {
        "midi": 47,
        "time": 205.788,
        "duration": 0.103,
        "velocity": 1,
        "hand": "left"
      },
      {
        "midi": 59,
        "time": 205.788,
        "duration": 0.103,
        "velocity": 1,
        "hand": "left"
      },
      {
        "midi": 48,
        "time": 205.89,
        "duration": 0.308,
        "velocity": 1,
        "hand": "left"
      },
      {
        "midi": 60,
        "time": 205.89,
        "duration": 0.308,
        "velocity": 1,
        "hand": "right"
      },
      {
        "midi": 45,
        "time": 206.199,
        "duration": 0.103,
        "velocity": 1,
        "hand": "left"
      },
      {
        "midi": 57,
        "time": 206.199,
        "duration": 0.103,
        "velocity": 1,
        "hand": "left"
      },
      {
        "midi": 43,
        "time": 206.301,
        "duration": 0.308,
        "velocity": 1,
        "hand": "left"
      },
      {
        "midi": 55,
        "time": 206.301,
        "duration": 0.308,
        "velocity": 1,
        "hand": "left"
      },
      {
        "midi": 42,
        "time": 206.61,
        "duration": 0.103,
        "velocity": 1,
        "hand": "left"
      },
      {
        "midi": 54,
        "time": 206.61,
        "duration": 0.103,
        "velocity": 1,
        "hand": "left"
      },
      {
        "midi": 43,
        "time": 206.712,
        "duration": 0.205,
        "velocity": 1,
        "hand": "left"
      },
      {
        "midi": 55,
        "time": 206.712,
        "duration": 0.205,
        "velocity": 1,
        "hand": "left"
      },
      {
        "midi": 47,
        "time": 206.918,
        "duration": 0.103,
        "velocity": 1,
        "hand": "left"
      },
      {
        "midi": 59,
        "time": 206.918,
        "duration": 0.103,
        "velocity": 1,
        "hand": "left"
      },
      {
        "midi": 50,
        "time": 207.021,
        "duration": 0.103,
        "velocity": 1,
        "hand": "left"
      },
      {
        "midi": 62,
        "time": 207.021,
        "duration": 0.103,
        "velocity": 1,
        "hand": "right"
      },
      {
        "midi": 55,
        "time": 207.123,
        "duration": 0.205,
        "velocity": 1,
        "hand": "left"
      },
      {
        "midi": 67,
        "time": 207.123,
        "duration": 0.205,
        "velocity": 1,
        "hand": "right"
      },
      {
        "midi": 55,
        "time": 207.329,
        "duration": 0.205,
        "velocity": 1,
        "hand": "left"
      },
      {
        "midi": 67,
        "time": 207.329,
        "duration": 0.205,
        "velocity": 1,
        "hand": "right"
      },
      {
        "midi": 55,
        "time": 207.534,
        "duration": 0.411,
        "velocity": 1,
        "hand": "left"
      },
      {
        "midi": 67,
        "time": 207.534,
        "duration": 0.411,
        "velocity": 1,
        "hand": "right"
      },
      {
        "midi": 78,
        "time": 208.356,
        "duration": 0.205,
        "velocity": 1,
        "hand": "right"
      },
      {
        "midi": 79,
        "time": 208.562,
        "duration": 0.205,
        "velocity": 1,
        "hand": "right"
      },
      {
        "midi": 78,
        "time": 208.767,
        "duration": 0.205,
        "velocity": 1,
        "hand": "right"
      },
      {
        "midi": 79,
        "time": 208.973,
        "duration": 0.205,
        "velocity": 1,
        "hand": "right"
      },
      {
        "midi": 78,
        "time": 209.178,
        "duration": 0.205,
        "velocity": 1,
        "hand": "right"
      },
      {
        "midi": 79,
        "time": 209.384,
        "duration": 0.205,
        "velocity": 1,
        "hand": "right"
      },
      {
        "midi": 78,
        "time": 209.589,
        "duration": 0.205,
        "velocity": 1,
        "hand": "right"
      },
      {
        "midi": 79,
        "time": 209.795,
        "duration": 0.205,
        "velocity": 1,
        "hand": "right"
      },
      {
        "midi": 77,
        "time": 210,
        "duration": 0.205,
        "velocity": 1,
        "hand": "right"
      },
      {
        "midi": 79,
        "time": 210.205,
        "duration": 0.205,
        "velocity": 1,
        "hand": "right"
      },
      {
        "midi": 76,
        "time": 210.411,
        "duration": 0.205,
        "velocity": 1,
        "hand": "right"
      },
      {
        "midi": 79,
        "time": 210.616,
        "duration": 0.205,
        "velocity": 1,
        "hand": "right"
      },
      {
        "midi": 77,
        "time": 210.822,
        "duration": 0.205,
        "velocity": 1,
        "hand": "right"
      },
      {
        "midi": 79,
        "time": 211.027,
        "duration": 0.205,
        "velocity": 1,
        "hand": "right"
      },
      {
        "midi": 74,
        "time": 211.233,
        "duration": 0.205,
        "velocity": 1,
        "hand": "right"
      },
      {
        "midi": 79,
        "time": 211.438,
        "duration": 0.205,
        "velocity": 1,
        "hand": "right"
      },
      {
        "midi": 64,
        "time": 211.644,
        "duration": 0.205,
        "velocity": 1,
        "hand": "right"
      },
      {
        "midi": 72,
        "time": 211.644,
        "duration": 0.205,
        "velocity": 1,
        "hand": "right"
      },
      {
        "midi": 65,
        "time": 211.849,
        "duration": 0.205,
        "velocity": 1,
        "hand": "right"
      },
      {
        "midi": 79,
        "time": 211.849,
        "duration": 0.205,
        "velocity": 1,
        "hand": "right"
      },
      {
        "midi": 67,
        "time": 212.055,
        "duration": 0.205,
        "velocity": 1,
        "hand": "right"
      },
      {
        "midi": 72,
        "time": 212.055,
        "duration": 0.205,
        "velocity": 1,
        "hand": "right"
      },
      {
        "midi": 64,
        "time": 212.26,
        "duration": 0.205,
        "velocity": 1,
        "hand": "right"
      },
      {
        "midi": 79,
        "time": 212.26,
        "duration": 0.205,
        "velocity": 1,
        "hand": "right"
      },
      {
        "midi": 60,
        "time": 212.466,
        "duration": 0.822,
        "velocity": 1,
        "hand": "right"
      },
      {
        "midi": 76,
        "time": 212.466,
        "duration": 0.205,
        "velocity": 1,
        "hand": "right"
      },
      {
        "midi": 79,
        "time": 212.671,
        "duration": 0.205,
        "velocity": 1,
        "hand": "right"
      },
      {
        "midi": 76,
        "time": 212.877,
        "duration": 0.205,
        "velocity": 1,
        "hand": "right"
      },
      {
        "midi": 79,
        "time": 213.082,
        "duration": 0.205,
        "velocity": 1,
        "hand": "right"
      },
      {
        "midi": 62,
        "time": 213.288,
        "duration": 0.205,
        "velocity": 1,
        "hand": "right"
      },
      {
        "midi": 77,
        "time": 213.288,
        "duration": 0.205,
        "velocity": 1,
        "hand": "right"
      },
      {
        "midi": 64,
        "time": 213.493,
        "duration": 0.205,
        "velocity": 1,
        "hand": "right"
      },
      {
        "midi": 79,
        "time": 213.493,
        "duration": 0.205,
        "velocity": 1,
        "hand": "right"
      },
      {
        "midi": 65,
        "time": 213.699,
        "duration": 0.205,
        "velocity": 1,
        "hand": "right"
      },
      {
        "midi": 77,
        "time": 213.699,
        "duration": 0.205,
        "velocity": 1,
        "hand": "right"
      },
      {
        "midi": 62,
        "time": 213.904,
        "duration": 0.205,
        "velocity": 1,
        "hand": "right"
      },
      {
        "midi": 79,
        "time": 213.904,
        "duration": 0.205,
        "velocity": 1,
        "hand": "right"
      },
      {
        "midi": 59,
        "time": 214.11,
        "duration": 0.822,
        "velocity": 1,
        "hand": "left"
      },
      {
        "midi": 74,
        "time": 214.11,
        "duration": 0.205,
        "velocity": 1,
        "hand": "right"
      },
      {
        "midi": 79,
        "time": 214.315,
        "duration": 0.205,
        "velocity": 1,
        "hand": "right"
      },
      {
        "midi": 74,
        "time": 214.521,
        "duration": 0.205,
        "velocity": 1,
        "hand": "right"
      },
      {
        "midi": 79,
        "time": 214.726,
        "duration": 0.205,
        "velocity": 1,
        "hand": "right"
      },
      {
        "midi": 62,
        "time": 214.932,
        "duration": 0.103,
        "velocity": 1,
        "hand": "right"
      },
      {
        "midi": 76,
        "time": 214.932,
        "duration": 0.205,
        "velocity": 1,
        "hand": "right"
      },
      {
        "midi": 60,
        "time": 215.034,
        "duration": 0.205,
        "velocity": 1,
        "hand": "right"
      },
      {
        "midi": 79,
        "time": 215.137,
        "duration": 0.205,
        "velocity": 1,
        "hand": "right"
      },
      {
        "midi": 65,
        "time": 215.342,
        "duration": 0.103,
        "velocity": 1,
        "hand": "right"
      },
      {
        "midi": 72,
        "time": 215.342,
        "duration": 0.205,
        "velocity": 1,
        "hand": "right"
      },
      {
        "midi": 64,
        "time": 215.445,
        "duration": 0.205,
        "velocity": 1,
        "hand": "right"
      },
      {
        "midi": 79,
        "time": 215.548,
        "duration": 0.205,
        "velocity": 1,
        "hand": "right"
      },
      {
        "midi": 61,
        "time": 215.753,
        "duration": 0.103,
        "velocity": 1,
        "hand": "right"
      },
      {
        "midi": 71,
        "time": 215.753,
        "duration": 0.205,
        "velocity": 1,
        "hand": "right"
      },
      {
        "midi": 62,
        "time": 215.856,
        "duration": 0.205,
        "velocity": 1,
        "hand": "right"
      },
      {
        "midi": 79,
        "time": 215.959,
        "duration": 0.205,
        "velocity": 1,
        "hand": "right"
      },
      {
        "midi": 74,
        "time": 216.164,
        "duration": 0.205,
        "velocity": 1,
        "hand": "right"
      },
      {
        "midi": 79,
        "time": 216.37,
        "duration": 0.205,
        "velocity": 1,
        "hand": "right"
      },
      {
        "midi": 65,
        "time": 216.575,
        "duration": 0.103,
        "velocity": 1,
        "hand": "right"
      },
      {
        "midi": 72,
        "time": 216.575,
        "duration": 0.205,
        "velocity": 1,
        "hand": "right"
      },
      {
        "midi": 64,
        "time": 216.678,
        "duration": 0.205,
        "velocity": 1,
        "hand": "right"
      },
      {
        "midi": 79,
        "time": 216.781,
        "duration": 0.205,
        "velocity": 1,
        "hand": "right"
      },
      {
        "midi": 67,
        "time": 216.986,
        "duration": 0.103,
        "velocity": 1,
        "hand": "right"
      },
      {
        "midi": 72,
        "time": 216.986,
        "duration": 0.205,
        "velocity": 1,
        "hand": "right"
      },
      {
        "midi": 66,
        "time": 217.089,
        "duration": 0.205,
        "velocity": 1,
        "hand": "right"
      },
      {
        "midi": 81,
        "time": 217.192,
        "duration": 0.205,
        "velocity": 1,
        "hand": "right"
      },
      {
        "midi": 69,
        "time": 217.397,
        "duration": 0.103,
        "velocity": 1,
        "hand": "right"
      },
      {
        "midi": 71,
        "time": 217.397,
        "duration": 0.205,
        "velocity": 1,
        "hand": "right"
      },
      {
        "midi": 67,
        "time": 217.5,
        "duration": 0.205,
        "velocity": 1,
        "hand": "right"
      },
      {
        "midi": 74,
        "time": 217.603,
        "duration": 0.205,
        "velocity": 1,
        "hand": "right"
      },
      {
        "midi": 78,
        "time": 217.808,
        "duration": 0.205,
        "velocity": 1,
        "hand": "right"
      },
      {
        "midi": 79,
        "time": 218.014,
        "duration": 0.205,
        "velocity": 1,
        "hand": "right"
      },
      {
        "midi": 48,
        "time": 218.219,
        "duration": 0.205,
        "velocity": 1,
        "hand": "left"
      },
      {
        "midi": 76,
        "time": 218.219,
        "duration": 0.205,
        "velocity": 1,
        "hand": "right"
      },
      {
        "midi": 55,
        "time": 218.425,
        "duration": 0.205,
        "velocity": 1,
        "hand": "left"
      },
      {
        "midi": 77,
        "time": 218.425,
        "duration": 0.205,
        "velocity": 1,
        "hand": "right"
      },
      {
        "midi": 48,
        "time": 218.63,
        "duration": 0.205,
        "velocity": 1,
        "hand": "left"
      },
      {
        "midi": 79,
        "time": 218.63,
        "duration": 0.205,
        "velocity": 1,
        "hand": "right"
      },
      {
        "midi": 55,
        "time": 218.836,
        "duration": 0.205,
        "velocity": 1,
        "hand": "left"
      },
      {
        "midi": 76,
        "time": 218.836,
        "duration": 0.205,
        "velocity": 1,
        "hand": "right"
      },
      {
        "midi": 52,
        "time": 219.041,
        "duration": 0.205,
        "velocity": 1,
        "hand": "left"
      },
      {
        "midi": 72,
        "time": 219.041,
        "duration": 0.822,
        "velocity": 1,
        "hand": "right"
      },
      {
        "midi": 55,
        "time": 219.247,
        "duration": 0.205,
        "velocity": 1,
        "hand": "left"
      },
      {
        "midi": 52,
        "time": 219.452,
        "duration": 0.205,
        "velocity": 1,
        "hand": "left"
      },
      {
        "midi": 55,
        "time": 219.658,
        "duration": 0.205,
        "velocity": 1,
        "hand": "left"
      },
      {
        "midi": 53,
        "time": 219.863,
        "duration": 0.205,
        "velocity": 1,
        "hand": "left"
      },
      {
        "midi": 74,
        "time": 219.863,
        "duration": 0.205,
        "velocity": 1,
        "hand": "right"
      },
      {
        "midi": 55,
        "time": 220.068,
        "duration": 0.205,
        "velocity": 1,
        "hand": "left"
      },
      {
        "midi": 76,
        "time": 220.068,
        "duration": 0.205,
        "velocity": 1,
        "hand": "right"
      },
      {
        "midi": 53,
        "time": 220.274,
        "duration": 0.205,
        "velocity": 1,
        "hand": "left"
      },
      {
        "midi": 77,
        "time": 220.274,
        "duration": 0.205,
        "velocity": 1,
        "hand": "right"
      },
      {
        "midi": 55,
        "time": 220.479,
        "duration": 0.205,
        "velocity": 1,
        "hand": "left"
      },
      {
        "midi": 74,
        "time": 220.479,
        "duration": 0.205,
        "velocity": 1,
        "hand": "right"
      },
      {
        "midi": 50,
        "time": 220.685,
        "duration": 0.205,
        "velocity": 1,
        "hand": "left"
      },
      {
        "midi": 83,
        "time": 220.685,
        "duration": 0.822,
        "velocity": 1,
        "hand": "right"
      },
      {
        "midi": 55,
        "time": 220.89,
        "duration": 0.205,
        "velocity": 1,
        "hand": "left"
      },
      {
        "midi": 50,
        "time": 221.096,
        "duration": 0.205,
        "velocity": 1,
        "hand": "left"
      },
      {
        "midi": 55,
        "time": 221.301,
        "duration": 0.205,
        "velocity": 1,
        "hand": "left"
      },
      {
        "midi": 52,
        "time": 221.507,
        "duration": 0.205,
        "velocity": 1,
        "hand": "left"
      },
      {
        "midi": 84,
        "time": 221.507,
        "duration": 0.103,
        "velocity": 1,
        "hand": "right"
      },
      {
        "midi": 83,
        "time": 221.61,
        "duration": 0.308,
        "velocity": 1,
        "hand": "right"
      },
      {
        "midi": 55,
        "time": 221.712,
        "duration": 0.205,
        "velocity": 1,
        "hand": "left"
      },
      {
        "midi": 48,
        "time": 221.918,
        "duration": 0.205,
        "velocity": 1,
        "hand": "left"
      },
      {
        "midi": 81,
        "time": 221.918,
        "duration": 0.103,
        "velocity": 1,
        "hand": "right"
      },
      {
        "midi": 79,
        "time": 222.021,
        "duration": 0.308,
        "velocity": 1,
        "hand": "right"
      },
      {
        "midi": 55,
        "time": 222.123,
        "duration": 0.205,
        "velocity": 1,
        "hand": "left"
      },
      {
        "midi": 50,
        "time": 222.329,
        "duration": 0.205,
        "velocity": 1,
        "hand": "left"
      },
      {
        "midi": 76,
        "time": 222.329,
        "duration": 0.103,
        "velocity": 1,
        "hand": "right"
      },
      {
        "midi": 77,
        "time": 222.432,
        "duration": 0.308,
        "velocity": 1,
        "hand": "right"
      },
      {
        "midi": 55,
        "time": 222.534,
        "duration": 0.205,
        "velocity": 1,
        "hand": "left"
      },
      {
        "midi": 47,
        "time": 222.74,
        "duration": 0.205,
        "velocity": 1,
        "hand": "left"
      },
      {
        "midi": 55,
        "time": 222.945,
        "duration": 0.205,
        "velocity": 1,
        "hand": "left"
      },
      {
        "midi": 48,
        "time": 223.151,
        "duration": 0.205,
        "velocity": 1,
        "hand": "left"
      },
      {
        "midi": 77,
        "time": 223.151,
        "duration": 0.103,
        "velocity": 1,
        "hand": "right"
      },
      {
        "midi": 76,
        "time": 223.253,
        "duration": 0.308,
        "velocity": 1,
        "hand": "right"
      },
      {
        "midi": 55,
        "time": 223.356,
        "duration": 0.205,
        "velocity": 1,
        "hand": "left"
      },
      {
        "midi": 45,
        "time": 223.562,
        "duration": 0.205,
        "velocity": 1,
        "hand": "left"
      },
      {
        "midi": 74,
        "time": 223.562,
        "duration": 0.103,
        "velocity": 1,
        "hand": "right"
      },
      {
        "midi": 72,
        "time": 223.664,
        "duration": 0.308,
        "velocity": 1,
        "hand": "right"
      },
      {
        "midi": 54,
        "time": 223.767,
        "duration": 0.205,
        "velocity": 1,
        "hand": "left"
      },
      {
        "midi": 43,
        "time": 223.973,
        "duration": 0.205,
        "velocity": 1,
        "hand": "left"
      },
      {
        "midi": 81,
        "time": 223.973,
        "duration": 0.103,
        "velocity": 1,
        "hand": "right"
      },
      {
        "midi": 79,
        "time": 224.075,
        "duration": 0.308,
        "velocity": 1,
        "hand": "right"
      },
      {
        "midi": 55,
        "time": 224.178,
        "duration": 0.205,
        "velocity": 1,
        "hand": "left"
      },
      {
        "midi": 41,
        "time": 224.384,
        "duration": 0.205,
        "velocity": 1,
        "hand": "left"
      },
      {
        "midi": 53,
        "time": 224.589,
        "duration": 0.205,
        "velocity": 1,
        "hand": "left"
      },
      {
        "midi": 40,
        "time": 224.795,
        "duration": 0.103,
        "velocity": 1,
        "hand": "left"
      },
      {
        "midi": 67,
        "time": 224.795,
        "duration": 0.822,
        "velocity": 1,
        "hand": "right"
      },
      {
        "midi": 79,
        "time": 224.795,
        "duration": 0.822,
        "velocity": 1,
        "hand": "right"
      },
      {
        "midi": 48,
        "time": 224.897,
        "duration": 0.103,
        "velocity": 1,
        "hand": "left"
      },
      {
        "midi": 47,
        "time": 225,
        "duration": 0.103,
        "velocity": 1,
        "hand": "left"
      },
      {
        "midi": 48,
        "time": 225.103,
        "duration": 0.103,
        "velocity": 1,
        "hand": "left"
      },
      {
        "midi": 50,
        "time": 225.205,
        "duration": 0.103,
        "velocity": 1,
        "hand": "left"
      },
      {
        "midi": 48,
        "time": 225.308,
        "duration": 0.103,
        "velocity": 1,
        "hand": "left"
      },
      {
        "midi": 47,
        "time": 225.411,
        "duration": 0.103,
        "velocity": 1,
        "hand": "left"
      },
      {
        "midi": 48,
        "time": 225.514,
        "duration": 0.103,
        "velocity": 1,
        "hand": "left"
      },
      {
        "midi": 40,
        "time": 225.616,
        "duration": 0.411,
        "velocity": 1,
        "hand": "left"
      },
      {
        "midi": 77,
        "time": 225.616,
        "duration": 0.205,
        "velocity": 1,
        "hand": "right"
      },
      {
        "midi": 76,
        "time": 225.822,
        "duration": 0.205,
        "velocity": 1,
        "hand": "right"
      },
      {
        "midi": 74,
        "time": 226.027,
        "duration": 0.205,
        "velocity": 1,
        "hand": "right"
      },
      {
        "midi": 72,
        "time": 226.233,
        "duration": 0.205,
        "velocity": 1,
        "hand": "right"
      },
      {
        "midi": 41,
        "time": 226.438,
        "duration": 0.103,
        "velocity": 1,
        "hand": "left"
      },
      {
        "midi": 69,
        "time": 226.438,
        "duration": 0.822,
        "velocity": 1,
        "hand": "right"
      },
      {
        "midi": 81,
        "time": 226.438,
        "duration": 0.822,
        "velocity": 1,
        "hand": "right"
      },
      {
        "midi": 48,
        "time": 226.541,
        "duration": 0.103,
        "velocity": 1,
        "hand": "left"
      },
      {
        "midi": 47,
        "time": 226.644,
        "duration": 0.103,
        "velocity": 1,
        "hand": "left"
      },
      {
        "midi": 48,
        "time": 226.747,
        "duration": 0.103,
        "velocity": 1,
        "hand": "left"
      },
      {
        "midi": 50,
        "time": 226.849,
        "duration": 0.103,
        "velocity": 1,
        "hand": "left"
      },
      {
        "midi": 48,
        "time": 226.952,
        "duration": 0.103,
        "velocity": 1,
        "hand": "left"
      },
      {
        "midi": 47,
        "time": 227.055,
        "duration": 0.103,
        "velocity": 1,
        "hand": "left"
      },
      {
        "midi": 48,
        "time": 227.158,
        "duration": 0.103,
        "velocity": 1,
        "hand": "left"
      },
      {
        "midi": 41,
        "time": 227.26,
        "duration": 0.411,
        "velocity": 1,
        "hand": "left"
      },
      {
        "midi": 79,
        "time": 227.26,
        "duration": 0.205,
        "velocity": 1,
        "hand": "right"
      },
      {
        "midi": 77,
        "time": 227.466,
        "duration": 0.205,
        "velocity": 1,
        "hand": "right"
      },
      {
        "midi": 76,
        "time": 227.671,
        "duration": 0.205,
        "velocity": 1,
        "hand": "right"
      },
      {
        "midi": 74,
        "time": 227.877,
        "duration": 0.205,
        "velocity": 1,
        "hand": "right"
      },
      {
        "midi": 43,
        "time": 228.082,
        "duration": 0.205,
        "velocity": 1,
        "hand": "left"
      },
      {
        "midi": 76,
        "time": 228.082,
        "duration": 0.103,
        "velocity": 1,
        "hand": "right"
      },
      {
        "midi": 77,
        "time": 228.185,
        "duration": 0.103,
        "velocity": 1,
        "hand": "right"
      },
      {
        "midi": 48,
        "time": 228.288,
        "duration": 0.205,
        "velocity": 1,
        "hand": "left"
      },
      {
        "midi": 79,
        "time": 228.288,
        "duration": 0.103,
        "velocity": 1,
        "hand": "right"
      },
      {
        "midi": 76,
        "time": 228.39,
        "duration": 0.103,
        "velocity": 1,
        "hand": "right"
      },
      {
        "midi": 52,
        "time": 228.493,
        "duration": 0.205,
        "velocity": 1,
        "hand": "left"
      },
      {
        "midi": 72,
        "time": 228.493,
        "duration": 0.205,
        "velocity": 1,
        "hand": "right"
      },
      {
        "midi": 48,
        "time": 228.699,
        "duration": 0.205,
        "velocity": 1,
        "hand": "left"
      },
      {
        "midi": 43,
        "time": 228.904,
        "duration": 0.205,
        "velocity": 1,
        "hand": "left"
      },
      {
        "midi": 74,
        "time": 228.904,
        "duration": 0.103,
        "velocity": 1,
        "hand": "right"
      },
      {
        "midi": 76,
        "time": 229.007,
        "duration": 0.103,
        "velocity": 1,
        "hand": "right"
      },
      {
        "midi": 50,
        "time": 229.11,
        "duration": 0.205,
        "velocity": 1,
        "hand": "left"
      },
      {
        "midi": 77,
        "time": 229.11,
        "duration": 0.103,
        "velocity": 1,
        "hand": "right"
      },
      {
        "midi": 74,
        "time": 229.212,
        "duration": 0.103,
        "velocity": 1,
        "hand": "right"
      },
      {
        "midi": 53,
        "time": 229.315,
        "duration": 0.205,
        "velocity": 1,
        "hand": "left"
      },
      {
        "midi": 71,
        "time": 229.315,
        "duration": 0.205,
        "velocity": 1,
        "hand": "right"
      },
      {
        "midi": 50,
        "time": 229.521,
        "duration": 0.205,
        "velocity": 1,
        "hand": "left"
      },
      {
        "midi": 52,
        "time": 229.726,
        "duration": 0.103,
        "velocity": 1,
        "hand": "left"
      },
      {
        "midi": 67,
        "time": 229.726,
        "duration": 0.822,
        "velocity": 1,
        "hand": "right"
      },
      {
        "midi": 79,
        "time": 229.726,
        "duration": 0.822,
        "velocity": 1,
        "hand": "right"
      },
      {
        "midi": 60,
        "time": 229.829,
        "duration": 0.103,
        "velocity": 1,
        "hand": "right"
      },
      {
        "midi": 59,
        "time": 229.932,
        "duration": 0.103,
        "velocity": 1,
        "hand": "left"
      },
      {
        "midi": 60,
        "time": 230.034,
        "duration": 0.103,
        "velocity": 1,
        "hand": "right"
      },
      {
        "midi": 62,
        "time": 230.137,
        "duration": 0.103,
        "velocity": 1,
        "hand": "right"
      },
      {
        "midi": 60,
        "time": 230.24,
        "duration": 0.103,
        "velocity": 1,
        "hand": "right"
      },
      {
        "midi": 59,
        "time": 230.342,
        "duration": 0.103,
        "velocity": 1,
        "hand": "left"
      },
      {
        "midi": 60,
        "time": 230.445,
        "duration": 0.103,
        "velocity": 1,
        "hand": "right"
      },
      {
        "midi": 52,
        "time": 230.548,
        "duration": 0.411,
        "velocity": 1,
        "hand": "left"
      },
      {
        "midi": 77,
        "time": 230.548,
        "duration": 0.103,
        "velocity": 1,
        "hand": "right"
      },
      {
        "midi": 79,
        "time": 230.651,
        "duration": 0.103,
        "velocity": 1,
        "hand": "right"
      },
      {
        "midi": 77,
        "time": 230.753,
        "duration": 0.103,
        "velocity": 1,
        "hand": "right"
      },
      {
        "midi": 76,
        "time": 230.856,
        "duration": 0.103,
        "velocity": 1,
        "hand": "right"
      },
      {
        "midi": 74,
        "time": 230.959,
        "duration": 0.103,
        "velocity": 1,
        "hand": "right"
      },
      {
        "midi": 76,
        "time": 231.062,
        "duration": 0.103,
        "velocity": 1,
        "hand": "right"
      },
      {
        "midi": 74,
        "time": 231.164,
        "duration": 0.103,
        "velocity": 1,
        "hand": "right"
      },
      {
        "midi": 72,
        "time": 231.267,
        "duration": 0.103,
        "velocity": 1,
        "hand": "right"
      },
      {
        "midi": 57,
        "time": 231.37,
        "duration": 0.103,
        "velocity": 1,
        "hand": "left"
      },
      {
        "midi": 72,
        "time": 231.37,
        "duration": 0.822,
        "velocity": 1,
        "hand": "right"
      },
      {
        "midi": 84,
        "time": 231.37,
        "duration": 0.822,
        "velocity": 1,
        "hand": "right"
      },
      {
        "midi": 65,
        "time": 231.473,
        "duration": 0.103,
        "velocity": 1,
        "hand": "right"
      },
      {
        "midi": 64,
        "time": 231.575,
        "duration": 0.103,
        "velocity": 1,
        "hand": "right"
      },
      {
        "midi": 65,
        "time": 231.678,
        "duration": 0.103,
        "velocity": 1,
        "hand": "right"
      },
      {
        "midi": 67,
        "time": 231.781,
        "duration": 0.103,
        "velocity": 1,
        "hand": "right"
      },
      {
        "midi": 65,
        "time": 231.884,
        "duration": 0.103,
        "velocity": 1,
        "hand": "right"
      },
      {
        "midi": 64,
        "time": 231.986,
        "duration": 0.103,
        "velocity": 1,
        "hand": "right"
      },
      {
        "midi": 65,
        "time": 232.089,
        "duration": 0.103,
        "velocity": 1,
        "hand": "right"
      },
      {
        "midi": 57,
        "time": 232.192,
        "duration": 0.411,
        "velocity": 1,
        "hand": "left"
      },
      {
        "midi": 83,
        "time": 232.192,
        "duration": 0.103,
        "velocity": 1,
        "hand": "right"
      },
      {
        "midi": 84,
        "time": 232.295,
        "duration": 0.103,
        "velocity": 1,
        "hand": "right"
      },
      {
        "midi": 83,
        "time": 232.397,
        "duration": 0.103,
        "velocity": 1,
        "hand": "right"
      },
      {
        "midi": 81,
        "time": 232.5,
        "duration": 0.103,
        "velocity": 1,
        "hand": "right"
      },
      {
        "midi": 79,
        "time": 232.603,
        "duration": 0.103,
        "velocity": 1,
        "hand": "right"
      },
      {
        "midi": 81,
        "time": 232.705,
        "duration": 0.103,
        "velocity": 1,
        "hand": "right"
      },
      {
        "midi": 79,
        "time": 232.808,
        "duration": 0.103,
        "velocity": 1,
        "hand": "right"
      },
      {
        "midi": 77,
        "time": 232.911,
        "duration": 0.103,
        "velocity": 1,
        "hand": "right"
      },
      {
        "midi": 55,
        "time": 233.014,
        "duration": 0.205,
        "velocity": 1,
        "hand": "left"
      },
      {
        "midi": 76,
        "time": 233.014,
        "duration": 0.205,
        "velocity": 1,
        "hand": "right"
      },
      {
        "midi": 60,
        "time": 233.219,
        "duration": 0.205,
        "velocity": 1,
        "hand": "right"
      },
      {
        "midi": 72,
        "time": 233.219,
        "duration": 0.205,
        "velocity": 1,
        "hand": "right"
      },
      {
        "midi": 57,
        "time": 233.425,
        "duration": 0.205,
        "velocity": 1,
        "hand": "left"
      },
      {
        "midi": 77,
        "time": 233.425,
        "duration": 0.411,
        "velocity": 1,
        "hand": "right"
      },
      {
        "midi": 60,
        "time": 233.63,
        "duration": 0.205,
        "velocity": 1,
        "hand": "right"
      },
      {
        "midi": 55,
        "time": 233.836,
        "duration": 0.205,
        "velocity": 1,
        "hand": "left"
      },
      {
        "midi": 76,
        "time": 233.836,
        "duration": 0.205,
        "velocity": 1,
        "hand": "right"
      },
      {
        "midi": 60,
        "time": 234.041,
        "duration": 0.205,
        "velocity": 1,
        "hand": "right"
      },
      {
        "midi": 72,
        "time": 234.041,
        "duration": 0.205,
        "velocity": 1,
        "hand": "right"
      },
      {
        "midi": 53,
        "time": 234.247,
        "duration": 0.205,
        "velocity": 1,
        "hand": "left"
      },
      {
        "midi": 81,
        "time": 234.247,
        "duration": 0.411,
        "velocity": 1,
        "hand": "right"
      },
      {
        "midi": 60,
        "time": 234.452,
        "duration": 0.205,
        "velocity": 1,
        "hand": "right"
      },
      {
        "midi": 52,
        "time": 234.658,
        "duration": 0.205,
        "velocity": 1,
        "hand": "left"
      },
      {
        "midi": 79,
        "time": 234.658,
        "duration": 0.205,
        "velocity": 1,
        "hand": "right"
      },
      {
        "midi": 60,
        "time": 234.863,
        "duration": 0.205,
        "velocity": 1,
        "hand": "right"
      },
      {
        "midi": 72,
        "time": 234.863,
        "duration": 0.205,
        "velocity": 1,
        "hand": "right"
      },
      {
        "midi": 57,
        "time": 235.068,
        "duration": 0.205,
        "velocity": 1,
        "hand": "left"
      },
      {
        "midi": 77,
        "time": 235.068,
        "duration": 0.411,
        "velocity": 1,
        "hand": "right"
      },
      {
        "midi": 60,
        "time": 235.274,
        "duration": 0.205,
        "velocity": 1,
        "hand": "right"
      },
      {
        "midi": 55,
        "time": 235.479,
        "duration": 0.205,
        "velocity": 1,
        "hand": "left"
      },
      {
        "midi": 76,
        "time": 235.479,
        "duration": 0.205,
        "velocity": 1,
        "hand": "right"
      },
      {
        "midi": 60,
        "time": 235.685,
        "duration": 0.205,
        "velocity": 1,
        "hand": "right"
      },
      {
        "midi": 72,
        "time": 235.685,
        "duration": 0.205,
        "velocity": 1,
        "hand": "right"
      },
      {
        "midi": 53,
        "time": 235.89,
        "duration": 0.205,
        "velocity": 1,
        "hand": "left"
      },
      {
        "midi": 81,
        "time": 235.89,
        "duration": 0.411,
        "velocity": 1,
        "hand": "right"
      },
      {
        "midi": 60,
        "time": 236.096,
        "duration": 0.205,
        "velocity": 1,
        "hand": "right"
      },
      {
        "midi": 52,
        "time": 236.301,
        "duration": 0.205,
        "velocity": 1,
        "hand": "left"
      },
      {
        "midi": 55,
        "time": 236.301,
        "duration": 0.205,
        "velocity": 1,
        "hand": "left"
      },
      {
        "midi": 61,
        "time": 236.301,
        "duration": 0.205,
        "velocity": 1,
        "hand": "right"
      },
      {
        "midi": 70,
        "time": 236.301,
        "duration": 0.822,
        "velocity": 1,
        "hand": "right"
      },
      {
        "midi": 82,
        "time": 236.301,
        "duration": 0.822,
        "velocity": 1,
        "hand": "right"
      },
      {
        "midi": 52,
        "time": 236.507,
        "duration": 0.205,
        "velocity": 1,
        "hand": "left"
      },
      {
        "midi": 55,
        "time": 236.507,
        "duration": 0.205,
        "velocity": 1,
        "hand": "left"
      },
      {
        "midi": 61,
        "time": 236.507,
        "duration": 0.205,
        "velocity": 1,
        "hand": "right"
      },
      {
        "midi": 52,
        "time": 236.712,
        "duration": 0.205,
        "velocity": 1,
        "hand": "left"
      },
      {
        "midi": 55,
        "time": 236.712,
        "duration": 0.205,
        "velocity": 1,
        "hand": "left"
      },
      {
        "midi": 61,
        "time": 236.712,
        "duration": 0.205,
        "velocity": 1,
        "hand": "right"
      },
      {
        "midi": 52,
        "time": 236.918,
        "duration": 0.205,
        "velocity": 1,
        "hand": "left"
      },
      {
        "midi": 55,
        "time": 236.918,
        "duration": 0.205,
        "velocity": 1,
        "hand": "left"
      },
      {
        "midi": 61,
        "time": 236.918,
        "duration": 0.205,
        "velocity": 1,
        "hand": "right"
      },
      {
        "midi": 52,
        "time": 237.123,
        "duration": 0.205,
        "velocity": 1,
        "hand": "left"
      },
      {
        "midi": 55,
        "time": 237.123,
        "duration": 0.205,
        "velocity": 1,
        "hand": "left"
      },
      {
        "midi": 61,
        "time": 237.123,
        "duration": 0.205,
        "velocity": 1,
        "hand": "right"
      },
      {
        "midi": 70,
        "time": 237.123,
        "duration": 0.411,
        "velocity": 1,
        "hand": "right"
      },
      {
        "midi": 82,
        "time": 237.123,
        "duration": 0.411,
        "velocity": 1,
        "hand": "right"
      },
      {
        "midi": 52,
        "time": 237.329,
        "duration": 0.205,
        "velocity": 1,
        "hand": "left"
      },
      {
        "midi": 55,
        "time": 237.329,
        "duration": 0.205,
        "velocity": 1,
        "hand": "left"
      },
      {
        "midi": 61,
        "time": 237.329,
        "duration": 0.205,
        "velocity": 1,
        "hand": "right"
      },
      {
        "midi": 52,
        "time": 237.534,
        "duration": 0.205,
        "velocity": 1,
        "hand": "left"
      },
      {
        "midi": 55,
        "time": 237.534,
        "duration": 0.205,
        "velocity": 1,
        "hand": "left"
      },
      {
        "midi": 61,
        "time": 237.534,
        "duration": 0.205,
        "velocity": 1,
        "hand": "right"
      },
      {
        "midi": 70,
        "time": 237.534,
        "duration": 0.411,
        "velocity": 1,
        "hand": "right"
      },
      {
        "midi": 82,
        "time": 237.534,
        "duration": 0.411,
        "velocity": 1,
        "hand": "right"
      },
      {
        "midi": 52,
        "time": 237.74,
        "duration": 0.205,
        "velocity": 1,
        "hand": "left"
      },
      {
        "midi": 55,
        "time": 237.74,
        "duration": 0.205,
        "velocity": 1,
        "hand": "left"
      },
      {
        "midi": 61,
        "time": 237.74,
        "duration": 0.205,
        "velocity": 1,
        "hand": "right"
      },
      {
        "midi": 53,
        "time": 237.945,
        "duration": 0.411,
        "velocity": 1,
        "hand": "left"
      },
      {
        "midi": 57,
        "time": 237.945,
        "duration": 0.411,
        "velocity": 1,
        "hand": "left"
      },
      {
        "midi": 62,
        "time": 237.945,
        "duration": 0.411,
        "velocity": 1,
        "hand": "right"
      },
      {
        "midi": 69,
        "time": 237.945,
        "duration": 0.205,
        "velocity": 1,
        "hand": "right"
      },
      {
        "midi": 81,
        "time": 237.945,
        "duration": 0.205,
        "velocity": 1,
        "hand": "right"
      },
      {
        "midi": 79,
        "time": 238.151,
        "duration": 0.205,
        "velocity": 1,
        "hand": "right"
      },
      {
        "midi": 77,
        "time": 238.356,
        "duration": 0.205,
        "velocity": 1,
        "hand": "right"
      },
      {
        "midi": 76,
        "time": 238.562,
        "duration": 0.205,
        "velocity": 1,
        "hand": "right"
      },
      {
        "midi": 74,
        "time": 238.767,
        "duration": 0.205,
        "velocity": 1,
        "hand": "right"
      },
      {
        "midi": 72,
        "time": 238.973,
        "duration": 0.205,
        "velocity": 1,
        "hand": "right"
      },
      {
        "midi": 71,
        "time": 239.178,
        "duration": 0.205,
        "velocity": 1,
        "hand": "right"
      },
      {
        "midi": 69,
        "time": 239.384,
        "duration": 0.205,
        "velocity": 1,
        "hand": "right"
      },
      {
        "midi": 55,
        "time": 239.589,
        "duration": 0.103,
        "velocity": 1,
        "hand": "left"
      },
      {
        "midi": 67,
        "time": 239.589,
        "duration": 0.205,
        "velocity": 1,
        "hand": "right"
      },
      {
        "midi": 64,
        "time": 239.692,
        "duration": 0.103,
        "velocity": 1,
        "hand": "right"
      },
      {
        "midi": 60,
        "time": 239.795,
        "duration": 0.103,
        "velocity": 1,
        "hand": "right"
      },
      {
        "midi": 69,
        "time": 239.795,
        "duration": 0.103,
        "velocity": 1,
        "hand": "right"
      },
      {
        "midi": 64,
        "time": 239.897,
        "duration": 0.103,
        "velocity": 1,
        "hand": "right"
      },
      {
        "midi": 71,
        "time": 239.897,
        "duration": 0.103,
        "velocity": 1,
        "hand": "right"
      },
      {
        "midi": 55,
        "time": 240,
        "duration": 0.103,
        "velocity": 1,
        "hand": "left"
      },
      {
        "midi": 72,
        "time": 240,
        "duration": 0.103,
        "velocity": 1,
        "hand": "right"
      },
      {
        "midi": 64,
        "time": 240.103,
        "duration": 0.103,
        "velocity": 1,
        "hand": "right"
      },
      {
        "midi": 74,
        "time": 240.103,
        "duration": 0.103,
        "velocity": 1,
        "hand": "right"
      },
      {
        "midi": 60,
        "time": 240.205,
        "duration": 0.103,
        "velocity": 1,
        "hand": "right"
      },
      {
        "midi": 76,
        "time": 240.205,
        "duration": 0.103,
        "velocity": 1,
        "hand": "right"
      },
      {
        "midi": 64,
        "time": 240.308,
        "duration": 0.103,
        "velocity": 1,
        "hand": "right"
      },
      {
        "midi": 77,
        "time": 240.308,
        "duration": 0.103,
        "velocity": 1,
        "hand": "right"
      },
      {
        "midi": 55,
        "time": 240.411,
        "duration": 0.103,
        "velocity": 1,
        "hand": "left"
      },
      {
        "midi": 78,
        "time": 240.411,
        "duration": 0.103,
        "velocity": 1,
        "hand": "right"
      },
      {
        "midi": 64,
        "time": 240.514,
        "duration": 0.103,
        "velocity": 1,
        "hand": "right"
      },
      {
        "midi": 79,
        "time": 240.514,
        "duration": 0.103,
        "velocity": 1,
        "hand": "right"
      },
      {
        "midi": 60,
        "time": 240.616,
        "duration": 0.103,
        "velocity": 1,
        "hand": "right"
      },
      {
        "midi": 81,
        "time": 240.616,
        "duration": 0.103,
        "velocity": 1,
        "hand": "right"
      },
      {
        "midi": 64,
        "time": 240.719,
        "duration": 0.103,
        "velocity": 1,
        "hand": "right"
      },
      {
        "midi": 79,
        "time": 240.719,
        "duration": 0.103,
        "velocity": 1,
        "hand": "right"
      },
      {
        "midi": 55,
        "time": 240.822,
        "duration": 0.103,
        "velocity": 1,
        "hand": "left"
      },
      {
        "midi": 77,
        "time": 240.822,
        "duration": 0.103,
        "velocity": 1,
        "hand": "right"
      },
      {
        "midi": 64,
        "time": 240.925,
        "duration": 0.103,
        "velocity": 1,
        "hand": "right"
      },
      {
        "midi": 76,
        "time": 240.925,
        "duration": 0.103,
        "velocity": 1,
        "hand": "right"
      },
      {
        "midi": 60,
        "time": 241.027,
        "duration": 0.103,
        "velocity": 1,
        "hand": "right"
      },
      {
        "midi": 74,
        "time": 241.027,
        "duration": 0.103,
        "velocity": 1,
        "hand": "right"
      },
      {
        "midi": 64,
        "time": 241.13,
        "duration": 0.103,
        "velocity": 1,
        "hand": "right"
      },
      {
        "midi": 72,
        "time": 241.13,
        "duration": 0.103,
        "velocity": 1,
        "hand": "right"
      },
      {
        "midi": 55,
        "time": 241.233,
        "duration": 0.103,
        "velocity": 1,
        "hand": "left"
      },
      {
        "midi": 74,
        "time": 241.233,
        "duration": 1.644,
        "velocity": 1,
        "hand": "right"
      },
      {
        "midi": 65,
        "time": 241.336,
        "duration": 0.103,
        "velocity": 1,
        "hand": "right"
      },
      {
        "midi": 59,
        "time": 241.438,
        "duration": 0.103,
        "velocity": 1,
        "hand": "left"
      },
      {
        "midi": 65,
        "time": 241.541,
        "duration": 0.103,
        "velocity": 1,
        "hand": "right"
      },
      {
        "midi": 55,
        "time": 241.644,
        "duration": 0.103,
        "velocity": 1,
        "hand": "left"
      },
      {
        "midi": 65,
        "time": 241.747,
        "duration": 0.103,
        "velocity": 1,
        "hand": "right"
      },
      {
        "midi": 59,
        "time": 241.849,
        "duration": 0.103,
        "velocity": 1,
        "hand": "left"
      },
      {
        "midi": 65,
        "time": 241.952,
        "duration": 0.103,
        "velocity": 1,
        "hand": "right"
      },
      {
        "midi": 55,
        "time": 242.055,
        "duration": 0.103,
        "velocity": 1,
        "hand": "left"
      },
      {
        "midi": 65,
        "time": 242.158,
        "duration": 0.103,
        "velocity": 1,
        "hand": "right"
      },
      {
        "midi": 59,
        "time": 242.26,
        "duration": 0.103,
        "velocity": 1,
        "hand": "left"
      },
      {
        "midi": 65,
        "time": 242.363,
        "duration": 0.103,
        "velocity": 1,
        "hand": "right"
      },
      {
        "midi": 55,
        "time": 242.466,
        "duration": 0.103,
        "velocity": 1,
        "hand": "left"
      },
      {
        "midi": 72,
        "time": 242.466,
        "duration": 0.051,
        "velocity": 1,
        "hand": "right"
      },
      {
        "midi": 65,
        "time": 242.568,
        "duration": 0.103,
        "velocity": 1,
        "hand": "right"
      },
      {
        "midi": 59,
        "time": 242.671,
        "duration": 0.103,
        "velocity": 1,
        "hand": "left"
      },
      {
        "midi": 65,
        "time": 242.774,
        "duration": 0.103,
        "velocity": 1,
        "hand": "right"
      },
      {
        "midi": 60,
        "time": 242.877,
        "duration": 0.411,
        "velocity": 1,
        "hand": "right"
      },
      {
        "midi": 64,
        "time": 242.877,
        "duration": 0.411,
        "velocity": 1,
        "hand": "right"
      },
      {
        "midi": 72,
        "time": 242.877,
        "duration": 0.411,
        "velocity": 1,
        "hand": "right"
      },
      {
        "midi": 72,
        "time": 243.288,
        "duration": 0.411,
        "velocity": 1,
        "hand": "right"
      },
      {
        "midi": 76,
        "time": 243.493,
        "duration": 0.205,
        "velocity": 1,
        "hand": "right"
      },
      {
        "midi": 74,
        "time": 243.699,
        "duration": 0.411,
        "velocity": 1,
        "hand": "right"
      },
      {
        "midi": 79,
        "time": 243.699,
        "duration": 0.205,
        "velocity": 1,
        "hand": "right"
      },
      {
        "midi": 77,
        "time": 243.904,
        "duration": 0.205,
        "velocity": 1,
        "hand": "right"
      },
      {
        "midi": 71,
        "time": 244.11,
        "duration": 0.411,
        "velocity": 1,
        "hand": "right"
      },
      {
        "midi": 74,
        "time": 244.315,
        "duration": 0.205,
        "velocity": 1,
        "hand": "right"
      },
      {
        "midi": 72,
        "time": 244.521,
        "duration": 0.411,
        "velocity": 1,
        "hand": "right"
      },
      {
        "midi": 77,
        "time": 244.521,
        "duration": 0.205,
        "velocity": 1,
        "hand": "right"
      },
      {
        "midi": 76,
        "time": 244.726,
        "duration": 0.205,
        "velocity": 1,
        "hand": "right"
      },
      {
        "midi": 69,
        "time": 244.932,
        "duration": 0.411,
        "velocity": 1,
        "hand": "right"
      },
      {
        "midi": 72,
        "time": 245.137,
        "duration": 0.205,
        "velocity": 1,
        "hand": "right"
      },
      {
        "midi": 65,
        "time": 245.342,
        "duration": 0.411,
        "velocity": 1,
        "hand": "right"
      },
      {
        "midi": 76,
        "time": 245.342,
        "duration": 0.205,
        "velocity": 1,
        "hand": "right"
      },
      {
        "midi": 74,
        "time": 245.548,
        "duration": 0.205,
        "velocity": 1,
        "hand": "right"
      },
      {
        "midi": 67,
        "time": 245.753,
        "duration": 0.411,
        "velocity": 1,
        "hand": "right"
      },
      {
        "midi": 71,
        "time": 245.959,
        "duration": 0.205,
        "velocity": 1,
        "hand": "right"
      },
      {
        "midi": 64,
        "time": 246.164,
        "duration": 0.411,
        "velocity": 1,
        "hand": "right"
      },
      {
        "midi": 74,
        "time": 246.164,
        "duration": 0.205,
        "velocity": 1,
        "hand": "right"
      },
      {
        "midi": 72,
        "time": 246.37,
        "duration": 0.205,
        "velocity": 1,
        "hand": "right"
      },
      {
        "midi": 49,
        "time": 246.575,
        "duration": 0.411,
        "velocity": 1,
        "hand": "left"
      },
      {
        "midi": 61,
        "time": 246.575,
        "duration": 0.411,
        "velocity": 1,
        "hand": "right"
      },
      {
        "midi": 76,
        "time": 246.575,
        "duration": 0.103,
        "velocity": 1,
        "hand": "right"
      },
      {
        "midi": 77,
        "time": 246.678,
        "duration": 0.103,
        "velocity": 1,
        "hand": "right"
      },
      {
        "midi": 79,
        "time": 246.781,
        "duration": 0.103,
        "velocity": 1,
        "hand": "right"
      },
      {
        "midi": 76,
        "time": 246.884,
        "duration": 0.103,
        "velocity": 1,
        "hand": "right"
      },
      {
        "midi": 50,
        "time": 246.986,
        "duration": 0.411,
        "velocity": 1,
        "hand": "left"
      },
      {
        "midi": 62,
        "time": 246.986,
        "duration": 0.411,
        "velocity": 1,
        "hand": "right"
      },
      {
        "midi": 77,
        "time": 246.986,
        "duration": 0.103,
        "velocity": 1,
        "hand": "right"
      },
      {
        "midi": 79,
        "time": 247.089,
        "duration": 0.103,
        "velocity": 1,
        "hand": "right"
      },
      {
        "midi": 81,
        "time": 247.192,
        "duration": 0.103,
        "velocity": 1,
        "hand": "right"
      },
      {
        "midi": 77,
        "time": 247.295,
        "duration": 0.103,
        "velocity": 1,
        "hand": "right"
      },
      {
        "midi": 47,
        "time": 247.397,
        "duration": 0.411,
        "velocity": 1,
        "hand": "left"
      },
      {
        "midi": 59,
        "time": 247.397,
        "duration": 0.411,
        "velocity": 1,
        "hand": "left"
      },
      {
        "midi": 74,
        "time": 247.397,
        "duration": 0.103,
        "velocity": 1,
        "hand": "right"
      },
      {
        "midi": 76,
        "time": 247.5,
        "duration": 0.103,
        "velocity": 1,
        "hand": "right"
      },
      {
        "midi": 77,
        "time": 247.603,
        "duration": 0.103,
        "velocity": 1,
        "hand": "right"
      },
      {
        "midi": 74,
        "time": 247.705,
        "duration": 0.103,
        "velocity": 1,
        "hand": "right"
      },
      {
        "midi": 48,
        "time": 247.808,
        "duration": 0.411,
        "velocity": 1,
        "hand": "left"
      },
      {
        "midi": 60,
        "time": 247.808,
        "duration": 0.411,
        "velocity": 1,
        "hand": "right"
      },
      {
        "midi": 76,
        "time": 247.808,
        "duration": 0.103,
        "velocity": 1,
        "hand": "right"
      },
      {
        "midi": 77,
        "time": 247.911,
        "duration": 0.103,
        "velocity": 1,
        "hand": "right"
      },
      {
        "midi": 79,
        "time": 248.014,
        "duration": 0.103,
        "velocity": 1,
        "hand": "right"
      },
      {
        "midi": 76,
        "time": 248.116,
        "duration": 0.103,
        "velocity": 1,
        "hand": "right"
      },
      {
        "midi": 45,
        "time": 248.219,
        "duration": 0.411,
        "velocity": 1,
        "hand": "left"
      },
      {
        "midi": 57,
        "time": 248.219,
        "duration": 0.411,
        "velocity": 1,
        "hand": "left"
      },
      {
        "midi": 72,
        "time": 248.219,
        "duration": 0.103,
        "velocity": 1,
        "hand": "right"
      },
      {
        "midi": 74,
        "time": 248.322,
        "duration": 0.103,
        "velocity": 1,
        "hand": "right"
      },
      {
        "midi": 76,
        "time": 248.425,
        "duration": 0.103,
        "velocity": 1,
        "hand": "right"
      },
      {
        "midi": 72,
        "time": 248.527,
        "duration": 0.103,
        "velocity": 1,
        "hand": "right"
      },
      {
        "midi": 41,
        "time": 248.63,
        "duration": 0.411,
        "velocity": 1,
        "hand": "left"
      },
      {
        "midi": 53,
        "time": 248.63,
        "duration": 0.411,
        "velocity": 1,
        "hand": "left"
      },
      {
        "midi": 74,
        "time": 248.63,
        "duration": 0.103,
        "velocity": 1,
        "hand": "right"
      },
      {
        "midi": 76,
        "time": 248.733,
        "duration": 0.103,
        "velocity": 1,
        "hand": "right"
      },
      {
        "midi": 77,
        "time": 248.836,
        "duration": 0.103,
        "velocity": 1,
        "hand": "right"
      },
      {
        "midi": 74,
        "time": 248.938,
        "duration": 0.103,
        "velocity": 1,
        "hand": "right"
      },
      {
        "midi": 43,
        "time": 249.041,
        "duration": 0.411,
        "velocity": 1,
        "hand": "left"
      },
      {
        "midi": 55,
        "time": 249.041,
        "duration": 0.411,
        "velocity": 1,
        "hand": "left"
      },
      {
        "midi": 71,
        "time": 249.041,
        "duration": 0.103,
        "velocity": 1,
        "hand": "right"
      },
      {
        "midi": 72,
        "time": 249.144,
        "duration": 0.103,
        "velocity": 1,
        "hand": "right"
      },
      {
        "midi": 74,
        "time": 249.247,
        "duration": 0.103,
        "velocity": 1,
        "hand": "right"
      },
      {
        "midi": 71,
        "time": 249.349,
        "duration": 0.103,
        "velocity": 1,
        "hand": "right"
      },
      {
        "midi": 60,
        "time": 249.452,
        "duration": 0.051,
        "velocity": 1,
        "hand": "right"
      },
      {
        "midi": 64,
        "time": 249.452,
        "duration": 0.051,
        "velocity": 1,
        "hand": "right"
      },
      {
        "midi": 36,
        "time": 249.555,
        "duration": 0.822,
        "velocity": 1,
        "hand": "left"
      },
      {
        "midi": 48,
        "time": 249.555,
        "duration": 0.822,
        "velocity": 1,
        "hand": "left"
      },
      {
        "midi": 67,
        "time": 249.555,
        "duration": 0.051,
        "velocity": 1,
        "hand": "right"
      },
      {
        "midi": 72,
        "time": 249.555,
        "duration": 0.822,
        "velocity": 1,
        "hand": "right"
      },
      {
        "midi": 43,
        "time": 250.377,
        "duration": 0.822,
        "velocity": 1,
        "hand": "left"
      },
      {
        "midi": 67,
        "time": 250.377,
        "duration": 0.822,
        "velocity": 1,
        "hand": "right"
      },
      {
        "midi": 52,
        "time": 251.199,
        "duration": 0.616,
        "velocity": 1,
        "hand": "left"
      },
      {
        "midi": 76,
        "time": 251.199,
        "duration": 0.616,
        "velocity": 1,
        "hand": "right"
      },
      {
        "midi": 53,
        "time": 251.815,
        "duration": 0.103,
        "velocity": 1,
        "hand": "left"
      },
      {
        "midi": 77,
        "time": 251.815,
        "duration": 0.103,
        "velocity": 1,
        "hand": "right"
      },
      {
        "midi": 50,
        "time": 251.918,
        "duration": 0.103,
        "velocity": 1,
        "hand": "left"
      },
      {
        "midi": 74,
        "time": 251.918,
        "duration": 0.103,
        "velocity": 1,
        "hand": "right"
      },
      {
        "midi": 48,
        "time": 252.021,
        "duration": 0.411,
        "velocity": 1,
        "hand": "left"
      },
      {
        "midi": 72,
        "time": 252.021,
        "duration": 0.411,
        "velocity": 1,
        "hand": "right"
      },
      {
        "midi": 43,
        "time": 252.432,
        "duration": 0.411,
        "velocity": 1,
        "hand": "left"
      },
      {
        "midi": 55,
        "time": 252.432,
        "duration": 0.411,
        "velocity": 1,
        "hand": "left"
      },
      {
        "midi": 74,
        "time": 252.432,
        "duration": 0.103,
        "velocity": 1,
        "hand": "right"
      },
      {
        "midi": 77,
        "time": 252.534,
        "duration": 0.103,
        "velocity": 1,
        "hand": "right"
      },
      {
        "midi": 79,
        "time": 252.637,
        "duration": 0.103,
        "velocity": 1,
        "hand": "right"
      },
      {
        "midi": 83,
        "time": 252.74,
        "duration": 0.103,
        "velocity": 1,
        "hand": "right"
      },
      {
        "midi": 48,
        "time": 252.842,
        "duration": 0.411,
        "velocity": 1,
        "hand": "left"
      },
      {
        "midi": 60,
        "time": 252.842,
        "duration": 0.411,
        "velocity": 1,
        "hand": "right"
      },
      {
        "midi": 72,
        "time": 252.842,
        "duration": 0.103,
        "velocity": 1,
        "hand": "right"
      },
      {
        "midi": 76,
        "time": 252.945,
        "duration": 0.103,
        "velocity": 1,
        "hand": "right"
      },
      {
        "midi": 79,
        "time": 253.048,
        "duration": 0.103,
        "velocity": 1,
        "hand": "right"
      },
      {
        "midi": 84,
        "time": 253.151,
        "duration": 0.103,
        "velocity": 1,
        "hand": "right"
      },
      {
        "midi": 43,
        "time": 253.253,
        "duration": 0.411,
        "velocity": 1,
        "hand": "left"
      },
      {
        "midi": 55,
        "time": 253.253,
        "duration": 0.411,
        "velocity": 1,
        "hand": "left"
      },
      {
        "midi": 74,
        "time": 253.253,
        "duration": 0.103,
        "velocity": 1,
        "hand": "right"
      },
      {
        "midi": 77,
        "time": 253.356,
        "duration": 0.103,
        "velocity": 1,
        "hand": "right"
      },
      {
        "midi": 79,
        "time": 253.459,
        "duration": 0.103,
        "velocity": 1,
        "hand": "right"
      },
      {
        "midi": 83,
        "time": 253.562,
        "duration": 0.103,
        "velocity": 1,
        "hand": "right"
      },
      {
        "midi": 48,
        "time": 253.664,
        "duration": 0.411,
        "velocity": 1,
        "hand": "left"
      },
      {
        "midi": 60,
        "time": 253.664,
        "duration": 0.411,
        "velocity": 1,
        "hand": "right"
      },
      {
        "midi": 72,
        "time": 253.664,
        "duration": 0.103,
        "velocity": 1,
        "hand": "right"
      },
      {
        "midi": 76,
        "time": 253.767,
        "duration": 0.103,
        "velocity": 1,
        "hand": "right"
      },
      {
        "midi": 79,
        "time": 253.87,
        "duration": 0.103,
        "velocity": 1,
        "hand": "right"
      },
      {
        "midi": 84,
        "time": 253.973,
        "duration": 0.103,
        "velocity": 1,
        "hand": "right"
      },
      {
        "midi": 43,
        "time": 254.075,
        "duration": 0.411,
        "velocity": 1,
        "hand": "left"
      },
      {
        "midi": 55,
        "time": 254.075,
        "duration": 0.411,
        "velocity": 1,
        "hand": "left"
      },
      {
        "midi": 74,
        "time": 254.075,
        "duration": 0.103,
        "velocity": 1,
        "hand": "right"
      },
      {
        "midi": 77,
        "time": 254.178,
        "duration": 0.103,
        "velocity": 1,
        "hand": "right"
      },
      {
        "midi": 79,
        "time": 254.281,
        "duration": 0.103,
        "velocity": 1,
        "hand": "right"
      },
      {
        "midi": 83,
        "time": 254.384,
        "duration": 0.103,
        "velocity": 1,
        "hand": "right"
      },
      {
        "midi": 48,
        "time": 254.486,
        "duration": 0.411,
        "velocity": 1,
        "hand": "left"
      },
      {
        "midi": 60,
        "time": 254.486,
        "duration": 0.411,
        "velocity": 1,
        "hand": "right"
      },
      {
        "midi": 76,
        "time": 254.486,
        "duration": 0.411,
        "velocity": 1,
        "hand": "right"
      },
      {
        "midi": 84,
        "time": 254.486,
        "duration": 0.411,
        "velocity": 1,
        "hand": "right"
      },
      {
        "midi": 36,
        "time": 254.897,
        "duration": 0.411,
        "velocity": 1,
        "hand": "left"
      },
      {
        "midi": 48,
        "time": 254.897,
        "duration": 0.411,
        "velocity": 1,
        "hand": "left"
      },
      {
        "midi": 64,
        "time": 254.897,
        "duration": 0.411,
        "velocity": 1,
        "hand": "right"
      },
      {
        "midi": 67,
        "time": 254.897,
        "duration": 0.411,
        "velocity": 1,
        "hand": "right"
      },
      {
        "midi": 72,
        "time": 254.897,
        "duration": 0.411,
        "velocity": 1,
        "hand": "right"
      },
      {
        "midi": 36,
        "time": 255.308,
        "duration": 0.411,
        "velocity": 1,
        "hand": "left"
      },
      {
        "midi": 48,
        "time": 255.308,
        "duration": 0.411,
        "velocity": 1,
        "hand": "left"
      },
      {
        "midi": 64,
        "time": 255.308,
        "duration": 0.411,
        "velocity": 1,
        "hand": "right"
      },
      {
        "midi": 67,
        "time": 255.308,
        "duration": 0.411,
        "velocity": 1,
        "hand": "right"
      },
      {
        "midi": 72,
        "time": 255.308,
        "duration": 0.411,
        "velocity": 1,
        "hand": "right"
      }
    ]
  },
  "notes1Hand": [
    {
      "midi": 72,
      "time": 0.103,
      "duration": 0.822,
      "velocity": 1,
      "hand": "right"
    },
    {
      "midi": 67,
      "time": 0.925,
      "duration": 0.822,
      "velocity": 1,
      "hand": "right"
    },
    {
      "midi": 76,
      "time": 1.747,
      "duration": 0.616,
      "velocity": 1,
      "hand": "right"
    },
    {
      "midi": 77,
      "time": 2.363,
      "duration": 0.205,
      "velocity": 1,
      "hand": "right"
    },
    {
      "midi": 79,
      "time": 3.39,
      "duration": 0.411,
      "velocity": 1,
      "hand": "right"
    },
    {
      "midi": 67,
      "time": 3.596,
      "duration": 0.205,
      "velocity": 1,
      "hand": "right"
    },
    {
      "midi": 67,
      "time": 4.007,
      "duration": 0.205,
      "velocity": 1,
      "hand": "right"
    },
    {
      "midi": 67,
      "time": 4.418,
      "duration": 0.205,
      "velocity": 1,
      "hand": "right"
    },
    {
      "midi": 67,
      "time": 4.829,
      "duration": 0.205,
      "velocity": 1,
      "hand": "right"
    },
    {
      "midi": 77,
      "time": 5.137,
      "duration": 0.308,
      "velocity": 1,
      "hand": "right"
    },
    {
      "midi": 77,
      "time": 5.445,
      "duration": 0.411,
      "velocity": 1,
      "hand": "right"
    },
    {
      "midi": 67,
      "time": 5.651,
      "duration": 0.205,
      "velocity": 1,
      "hand": "right"
    },
    {
      "midi": 67,
      "time": 6.062,
      "duration": 0.205,
      "velocity": 1,
      "hand": "right"
    },
    {
      "midi": 67,
      "time": 6.473,
      "duration": 0.205,
      "velocity": 1,
      "hand": "right"
    },
    {
      "midi": 76,
      "time": 6.781,
      "duration": 0.308,
      "velocity": 1,
      "hand": "right"
    },
    {
      "midi": 76,
      "time": 7.089,
      "duration": 0.411,
      "velocity": 1,
      "hand": "right"
    },
    {
      "midi": 67,
      "time": 7.295,
      "duration": 0.205,
      "velocity": 1,
      "hand": "right"
    },
    {
      "midi": 67,
      "time": 7.705,
      "duration": 0.205,
      "velocity": 1,
      "hand": "right"
    },
    {
      "midi": 79,
      "time": 7.911,
      "duration": 0.205,
      "velocity": 1,
      "hand": "right"
    },
    {
      "midi": 73,
      "time": 8.322,
      "duration": 0.205,
      "velocity": 1,
      "hand": "right"
    },
    {
      "midi": 77,
      "time": 8.733,
      "duration": 0.205,
      "velocity": 1,
      "hand": "right"
    },
    {
      "midi": 73,
      "time": 9.144,
      "duration": 0.205,
      "velocity": 1,
      "hand": "right"
    },
    {
      "midi": 77,
      "time": 9.555,
      "duration": 0.205,
      "velocity": 1,
      "hand": "right"
    },
    {
      "midi": 73,
      "time": 9.966,
      "duration": 0.205,
      "velocity": 1,
      "hand": "right"
    },
    {
      "midi": 77,
      "time": 10.377,
      "duration": 0.205,
      "velocity": 1,
      "hand": "right"
    },
    {
      "midi": 79,
      "time": 10.788,
      "duration": 0.205,
      "velocity": 1,
      "hand": "right"
    },
    {
      "midi": 77,
      "time": 11.199,
      "duration": 0.205,
      "velocity": 1,
      "hand": "right"
    },
    {
      "midi": 72,
      "time": 11.815,
      "duration": 0.822,
      "velocity": 1,
      "hand": "right"
    },
    {
      "midi": 67,
      "time": 12.637,
      "duration": 0.822,
      "velocity": 1,
      "hand": "right"
    },
    {
      "midi": 76,
      "time": 13.459,
      "duration": 0.616,
      "velocity": 1,
      "hand": "right"
    },
    {
      "midi": 77,
      "time": 14.075,
      "duration": 0.205,
      "velocity": 1,
      "hand": "right"
    },
    {
      "midi": 72,
      "time": 14.281,
      "duration": 0.411,
      "velocity": 1,
      "hand": "right"
    },
    {
      "midi": 79,
      "time": 15.103,
      "duration": 0.411,
      "velocity": 1,
      "hand": "right"
    },
    {
      "midi": 79,
      "time": 15.514,
      "duration": 0.411,
      "velocity": 1,
      "hand": "right"
    },
    {
      "midi": 61,
      "time": 15.925,
      "duration": 0.205,
      "velocity": 1,
      "hand": "right"
    },
    {
      "midi": 81,
      "time": 16.336,
      "duration": 0.411,
      "velocity": 1,
      "hand": "right"
    },
    {
      "midi": 79,
      "time": 16.747,
      "duration": 0.205,
      "velocity": 1,
      "hand": "right"
    },
    {
      "midi": 77,
      "time": 17.158,
      "duration": 0.411,
      "velocity": 1,
      "hand": "right"
    },
    {
      "midi": 78,
      "time": 17.774,
      "duration": 0.205,
      "velocity": 1,
      "hand": "right"
    },
    {
      "midi": 79,
      "time": 18.185,
      "duration": 0.205,
      "velocity": 1,
      "hand": "right"
    },
    {
      "midi": 76,
      "time": 18.493,
      "duration": 0.308,
      "velocity": 1,
      "hand": "right"
    },
    {
      "midi": 76,
      "time": 18.801,
      "duration": 0.411,
      "velocity": 1,
      "hand": "right"
    },
    {
      "midi": 67,
      "time": 19.007,
      "duration": 0.205,
      "velocity": 1,
      "hand": "right"
    },
    {
      "midi": 76,
      "time": 19.418,
      "duration": 0.205,
      "velocity": 1,
      "hand": "right"
    },
    {
      "midi": 76,
      "time": 19.829,
      "duration": 0.205,
      "velocity": 1,
      "hand": "right"
    },
    {
      "midi": 74,
      "time": 20.651,
      "duration": 0.205,
      "velocity": 1,
      "hand": "right"
    },
    {
      "midi": 77,
      "time": 21.473,
      "duration": 0.205,
      "velocity": 1,
      "hand": "right"
    },
    {
      "midi": 77,
      "time": 22.295,
      "duration": 0.205,
      "velocity": 1,
      "hand": "right"
    },
    {
      "midi": 84,
      "time": 23.322,
      "duration": 0.205,
      "velocity": 1,
      "hand": "right"
    },
    {
      "midi": 84,
      "time": 23.733,
      "duration": 0.822,
      "velocity": 1,
      "hand": "right"
    },
    {
      "midi": 60,
      "time": 24.349,
      "duration": 0.205,
      "velocity": 1,
      "hand": "right"
    },
    {
      "midi": 83,
      "time": 24.555,
      "duration": 0.205,
      "velocity": 1,
      "hand": "right"
    },
    {
      "midi": 79,
      "time": 24.966,
      "duration": 0.205,
      "velocity": 1,
      "hand": "right"
    },
    {
      "midi": 79,
      "time": 25.377,
      "duration": 0.822,
      "velocity": 1,
      "hand": "right"
    },
    {
      "midi": 60,
      "time": 25.993,
      "duration": 0.205,
      "velocity": 1,
      "hand": "right"
    },
    {
      "midi": 77,
      "time": 26.199,
      "duration": 0.205,
      "velocity": 1,
      "hand": "right"
    },
    {
      "midi": 74,
      "time": 26.712,
      "duration": 0.205,
      "velocity": 1,
      "hand": "right"
    },
    {
      "midi": 76,
      "time": 26.918,
      "duration": 0.205,
      "velocity": 1,
      "hand": "right"
    },
    {
      "midi": 76,
      "time": 27.226,
      "duration": 0.205,
      "velocity": 1,
      "hand": "right"
    },
    {
      "midi": 72,
      "time": 27.432,
      "duration": 0.411,
      "velocity": 1,
      "hand": "right"
    },
    {
      "midi": 71,
      "time": 27.842,
      "duration": 0.411,
      "velocity": 1,
      "hand": "right"
    },
    {
      "midi": 62,
      "time": 28.048,
      "duration": 0.205,
      "velocity": 1,
      "hand": "right"
    },
    {
      "midi": 84,
      "time": 28.459,
      "duration": 0.205,
      "velocity": 1,
      "hand": "right"
    },
    {
      "midi": 60,
      "time": 28.87,
      "duration": 0.205,
      "velocity": 1,
      "hand": "right"
    },
    {
      "midi": 86,
      "time": 29.281,
      "duration": 0.205,
      "velocity": 1,
      "hand": "right"
    },
    {
      "midi": 81,
      "time": 29.692,
      "duration": 0.205,
      "velocity": 1,
      "hand": "right"
    },
    {
      "midi": 79,
      "time": 30.103,
      "duration": 0.205,
      "velocity": 1,
      "hand": "right"
    },
    {
      "midi": 60,
      "time": 30.514,
      "duration": 0.205,
      "velocity": 1,
      "hand": "right"
    },
    {
      "midi": 81,
      "time": 30.925,
      "duration": 0.205,
      "velocity": 1,
      "hand": "right"
    },
    {
      "midi": 76,
      "time": 31.336,
      "duration": 0.308,
      "velocity": 1,
      "hand": "right"
    },
    {
      "midi": 74,
      "time": 31.644,
      "duration": 0.205,
      "velocity": 1,
      "hand": "right"
    },
    {
      "midi": 83,
      "time": 31.952,
      "duration": 0.205,
      "velocity": 1,
      "hand": "right"
    },
    {
      "midi": 79,
      "time": 32.158,
      "duration": 0.205,
      "velocity": 1,
      "hand": "right"
    },
    {
      "midi": 60,
      "time": 32.568,
      "duration": 0.205,
      "velocity": 1,
      "hand": "right"
    },
    {
      "midi": 74,
      "time": 32.774,
      "duration": 0.411,
      "velocity": 1,
      "hand": "right"
    },
    {
      "midi": 72,
      "time": 33.185,
      "duration": 0.411,
      "velocity": 1,
      "hand": "right"
    },
    {
      "midi": 64,
      "time": 33.596,
      "duration": 0.205,
      "velocity": 1,
      "hand": "right"
    },
    {
      "midi": 71,
      "time": 33.904,
      "duration": 0.205,
      "velocity": 1,
      "hand": "right"
    },
    {
      "midi": 75,
      "time": 34.212,
      "duration": 0.205,
      "velocity": 1,
      "hand": "right"
    },
    {
      "midi": 76,
      "time": 34.418,
      "duration": 0.205,
      "velocity": 1,
      "hand": "right"
    },
    {
      "midi": 79,
      "time": 34.829,
      "duration": 0.205,
      "velocity": 1,
      "hand": "right"
    },
    {
      "midi": 84,
      "time": 35.24,
      "duration": 0.205,
      "velocity": 1,
      "hand": "right"
    },
    {
      "midi": 88,
      "time": 35.651,
      "duration": 0.411,
      "velocity": 1,
      "hand": "right"
    },
    {
      "midi": 64,
      "time": 36.062,
      "duration": 0.205,
      "velocity": 1,
      "hand": "right"
    },
    {
      "midi": 86,
      "time": 36.473,
      "duration": 0.411,
      "velocity": 1,
      "hand": "right"
    },
    {
      "midi": 62,
      "time": 36.884,
      "duration": 0.205,
      "velocity": 1,
      "hand": "right"
    },
    {
      "midi": 69,
      "time": 37.192,
      "duration": 0.205,
      "velocity": 1,
      "hand": "right"
    },
    {
      "midi": 73,
      "time": 37.5,
      "duration": 0.205,
      "velocity": 1,
      "hand": "right"
    },
    {
      "midi": 78,
      "time": 37.911,
      "duration": 0.205,
      "velocity": 1,
      "hand": "right"
    },
    {
      "midi": 82,
      "time": 38.322,
      "duration": 0.205,
      "velocity": 1,
      "hand": "right"
    },
    {
      "midi": 85,
      "time": 38.733,
      "duration": 0.205,
      "velocity": 1,
      "hand": "right"
    },
    {
      "midi": 62,
      "time": 39.144,
      "duration": 0.205,
      "velocity": 1,
      "hand": "right"
    },
    {
      "midi": 62,
      "time": 39.555,
      "duration": 0.205,
      "velocity": 1,
      "hand": "right"
    },
    {
      "midi": 62,
      "time": 39.966,
      "duration": 0.205,
      "velocity": 1,
      "hand": "right"
    },
    {
      "midi": 69,
      "time": 40.377,
      "duration": 0.205,
      "velocity": 1,
      "hand": "right"
    },
    {
      "midi": 71,
      "time": 40.788,
      "duration": 0.205,
      "velocity": 1,
      "hand": "right"
    },
    {
      "midi": 77,
      "time": 41.199,
      "duration": 0.205,
      "velocity": 1,
      "hand": "right"
    },
    {
      "midi": 80,
      "time": 41.61,
      "duration": 0.205,
      "velocity": 1,
      "hand": "right"
    },
    {
      "midi": 83,
      "time": 42.021,
      "duration": 0.205,
      "velocity": 1,
      "hand": "right"
    },
    {
      "midi": 62,
      "time": 42.432,
      "duration": 0.205,
      "velocity": 1,
      "hand": "right"
    },
    {
      "midi": 62,
      "time": 42.842,
      "duration": 0.205,
      "velocity": 1,
      "hand": "right"
    },
    {
      "midi": 84,
      "time": 43.048,
      "duration": 0.205,
      "velocity": 1,
      "hand": "right"
    },
    {
      "midi": 79,
      "time": 43.356,
      "duration": 0.205,
      "velocity": 1,
      "hand": "right"
    },
    {
      "midi": 78,
      "time": 43.562,
      "duration": 0.205,
      "velocity": 1,
      "hand": "right"
    },
    {
      "midi": 84,
      "time": 43.87,
      "duration": 0.822,
      "velocity": 1,
      "hand": "right"
    },
    {
      "midi": 62,
      "time": 44.486,
      "duration": 0.205,
      "velocity": 1,
      "hand": "right"
    },
    {
      "midi": 84,
      "time": 44.692,
      "duration": 0.205,
      "velocity": 1,
      "hand": "right"
    },
    {
      "midi": 79,
      "time": 45,
      "duration": 0.205,
      "velocity": 1,
      "hand": "right"
    },
    {
      "midi": 76,
      "time": 45.308,
      "duration": 0.205,
      "velocity": 1,
      "hand": "right"
    },
    {
      "midi": 84,
      "time": 45.514,
      "duration": 0.822,
      "velocity": 1,
      "hand": "right"
    },
    {
      "midi": 62,
      "time": 46.13,
      "duration": 0.205,
      "velocity": 1,
      "hand": "right"
    },
    {
      "midi": 83,
      "time": 46.336,
      "duration": 0.205,
      "velocity": 1,
      "hand": "right"
    },
    {
      "midi": 83,
      "time": 46.644,
      "duration": 0.205,
      "velocity": 1,
      "hand": "right"
    },
    {
      "midi": 78,
      "time": 46.952,
      "duration": 0.205,
      "velocity": 1,
      "hand": "right"
    },
    {
      "midi": 79,
      "time": 47.158,
      "duration": 0.205,
      "velocity": 1,
      "hand": "right"
    },
    {
      "midi": 79,
      "time": 47.466,
      "duration": 0.205,
      "velocity": 1,
      "hand": "right"
    },
    {
      "midi": 75,
      "time": 47.774,
      "duration": 0.205,
      "velocity": 1,
      "hand": "right"
    },
    {
      "midi": 75,
      "time": 48.082,
      "duration": 0.205,
      "velocity": 1,
      "hand": "right"
    },
    {
      "midi": 76,
      "time": 48.288,
      "duration": 0.205,
      "velocity": 1,
      "hand": "right"
    },
    {
      "midi": 71,
      "time": 48.596,
      "duration": 0.205,
      "velocity": 1,
      "hand": "right"
    },
    {
      "midi": 71,
      "time": 48.904,
      "duration": 0.205,
      "velocity": 1,
      "hand": "right"
    },
    {
      "midi": 72,
      "time": 49.11,
      "duration": 0.205,
      "velocity": 1,
      "hand": "right"
    },
    {
      "midi": 68,
      "time": 49.418,
      "duration": 0.205,
      "velocity": 1,
      "hand": "right"
    },
    {
      "midi": 71,
      "time": 49.932,
      "duration": 0.205,
      "velocity": 1,
      "hand": "right"
    },
    {
      "midi": 71,
      "time": 50.342,
      "duration": 0.205,
      "velocity": 1,
      "hand": "right"
    },
    {
      "midi": 67,
      "time": 50.753,
      "duration": 0.205,
      "velocity": 1,
      "hand": "right"
    },
    {
      "midi": 64,
      "time": 51.164,
      "duration": 0.205,
      "velocity": 1,
      "hand": "right"
    },
    {
      "midi": 66,
      "time": 51.473,
      "duration": 0.205,
      "velocity": 1,
      "hand": "right"
    },
    {
      "midi": 74,
      "time": 51.884,
      "duration": 0.205,
      "velocity": 1,
      "hand": "right"
    },
    {
      "midi": 61,
      "time": 52.911,
      "duration": 0.205,
      "velocity": 1,
      "hand": "right"
    },
    {
      "midi": 61,
      "time": 53.322,
      "duration": 0.205,
      "velocity": 1,
      "hand": "right"
    },
    {
      "midi": 61,
      "time": 53.733,
      "duration": 0.205,
      "velocity": 1,
      "hand": "right"
    },
    {
      "midi": 61,
      "time": 54.144,
      "duration": 0.205,
      "velocity": 1,
      "hand": "right"
    },
    {
      "midi": 60,
      "time": 54.555,
      "duration": 0.205,
      "velocity": 1,
      "hand": "right"
    },
    {
      "midi": 62,
      "time": 55.171,
      "duration": 0.205,
      "velocity": 1,
      "hand": "right"
    },
    {
      "midi": 60,
      "time": 55.377,
      "duration": 0.205,
      "velocity": 1,
      "hand": "right"
    },
    {
      "midi": 62,
      "time": 55.993,
      "duration": 0.205,
      "velocity": 1,
      "hand": "right"
    },
    {
      "midi": 83,
      "time": 56.199,
      "duration": 0.205,
      "velocity": 1,
      "hand": "right"
    },
    {
      "midi": 86,
      "time": 56.61,
      "duration": 0.205,
      "velocity": 1,
      "hand": "right"
    },
    {
      "midi": 79,
      "time": 57.021,
      "duration": 0.822,
      "velocity": 1,
      "hand": "right"
    },
    {
      "midi": 62,
      "time": 57.637,
      "duration": 0.205,
      "velocity": 1,
      "hand": "right"
    },
    {
      "midi": 83,
      "time": 58.048,
      "duration": 0.205,
      "velocity": 1,
      "hand": "right"
    },
    {
      "midi": 81,
      "time": 58.459,
      "duration": 0.205,
      "velocity": 1,
      "hand": "right"
    },
    {
      "midi": 62,
      "time": 58.87,
      "duration": 0.205,
      "velocity": 1,
      "hand": "right"
    },
    {
      "midi": 62,
      "time": 59.281,
      "duration": 0.205,
      "velocity": 1,
      "hand": "right"
    },
    {
      "midi": 78,
      "time": 59.589,
      "duration": 0.205,
      "velocity": 1,
      "hand": "right"
    },
    {
      "midi": 76,
      "time": 59.897,
      "duration": 0.205,
      "velocity": 1,
      "hand": "right"
    },
    {
      "midi": 62,
      "time": 60.103,
      "duration": 0.205,
      "velocity": 1,
      "hand": "right"
    },
    {
      "midi": 72,
      "time": 60.411,
      "duration": 0.205,
      "velocity": 1,
      "hand": "right"
    },
    {
      "midi": 62,
      "time": 60.925,
      "duration": 0.205,
      "velocity": 1,
      "hand": "right"
    },
    {
      "midi": 71,
      "time": 61.233,
      "duration": 0.205,
      "velocity": 1,
      "hand": "right"
    },
    {
      "midi": 69,
      "time": 61.541,
      "duration": 0.205,
      "velocity": 1,
      "hand": "right"
    },
    {
      "midi": 61,
      "time": 61.747,
      "duration": 0.205,
      "velocity": 1,
      "hand": "right"
    },
    {
      "midi": 69,
      "time": 62.055,
      "duration": 0.205,
      "velocity": 1,
      "hand": "right"
    },
    {
      "midi": 60,
      "time": 62.363,
      "duration": 0.205,
      "velocity": 1,
      "hand": "right"
    },
    {
      "midi": 83,
      "time": 62.774,
      "duration": 0.205,
      "velocity": 1,
      "hand": "right"
    },
    {
      "midi": 86,
      "time": 63.185,
      "duration": 0.205,
      "velocity": 1,
      "hand": "right"
    },
    {
      "midi": 79,
      "time": 63.596,
      "duration": 0.822,
      "velocity": 1,
      "hand": "right"
    },
    {
      "midi": 62,
      "time": 64.212,
      "duration": 0.205,
      "velocity": 1,
      "hand": "right"
    },
    {
      "midi": 81,
      "time": 64.418,
      "duration": 0.205,
      "velocity": 1,
      "hand": "right"
    },
    {
      "midi": 84,
      "time": 64.829,
      "duration": 0.205,
      "velocity": 1,
      "hand": "right"
    },
    {
      "midi": 78,
      "time": 65.24,
      "duration": 0.822,
      "velocity": 1,
      "hand": "right"
    },
    {
      "midi": 62,
      "time": 65.856,
      "duration": 0.205,
      "velocity": 1,
      "hand": "right"
    },
    {
      "midi": 79,
      "time": 66.062,
      "duration": 0.205,
      "velocity": 1,
      "hand": "right"
    },
    {
      "midi": 76,
      "time": 66.473,
      "duration": 0.205,
      "velocity": 1,
      "hand": "right"
    },
    {
      "midi": 71,
      "time": 66.884,
      "duration": 0.205,
      "velocity": 1,
      "hand": "right"
    },
    {
      "midi": 62,
      "time": 67.5,
      "duration": 0.205,
      "velocity": 1,
      "hand": "right"
    },
    {
      "midi": 71,
      "time": 67.808,
      "duration": 0.205,
      "velocity": 1,
      "hand": "right"
    },
    {
      "midi": 69,
      "time": 68.116,
      "duration": 0.205,
      "velocity": 1,
      "hand": "right"
    },
    {
      "midi": 61,
      "time": 68.322,
      "duration": 0.205,
      "velocity": 1,
      "hand": "right"
    },
    {
      "midi": 74,
      "time": 68.63,
      "duration": 0.205,
      "velocity": 1,
      "hand": "right"
    },
    {
      "midi": 60,
      "time": 69.144,
      "duration": 0.205,
      "velocity": 1,
      "hand": "right"
    },
    {
      "midi": 84,
      "time": 70.171,
      "duration": 0.205,
      "velocity": 1,
      "hand": "right"
    },
    {
      "midi": 83,
      "time": 70.377,
      "duration": 0.205,
      "velocity": 1,
      "hand": "right"
    },
    {
      "midi": 79,
      "time": 70.788,
      "duration": 0.205,
      "velocity": 1,
      "hand": "right"
    },
    {
      "midi": 86,
      "time": 71.815,
      "duration": 0.205,
      "velocity": 1,
      "hand": "right"
    },
    {
      "midi": 84,
      "time": 72.021,
      "duration": 0.205,
      "velocity": 1,
      "hand": "right"
    },
    {
      "midi": 81,
      "time": 72.432,
      "duration": 0.205,
      "velocity": 1,
      "hand": "right"
    },
    {
      "midi": 84,
      "time": 72.74,
      "duration": 0.205,
      "velocity": 1,
      "hand": "right"
    },
    {
      "midi": 79,
      "time": 73.048,
      "duration": 0.205,
      "velocity": 1,
      "hand": "right"
    },
    {
      "midi": 81,
      "time": 73.459,
      "duration": 0.205,
      "velocity": 1,
      "hand": "right"
    },
    {
      "midi": 81,
      "time": 73.767,
      "duration": 0.205,
      "velocity": 1,
      "hand": "right"
    },
    {
      "midi": 86,
      "time": 74.281,
      "duration": 0.822,
      "velocity": 1,
      "hand": "right"
    },
    {
      "midi": 84,
      "time": 75.103,
      "duration": 0.205,
      "velocity": 1,
      "hand": "right"
    },
    {
      "midi": 83,
      "time": 75.411,
      "duration": 0.205,
      "velocity": 1,
      "hand": "right"
    },
    {
      "midi": 81,
      "time": 75.719,
      "duration": 0.205,
      "velocity": 1,
      "hand": "right"
    },
    {
      "midi": 88,
      "time": 75.925,
      "duration": 0.822,
      "velocity": 1,
      "hand": "right"
    },
    {
      "midi": 86,
      "time": 76.747,
      "duration": 0.205,
      "velocity": 1,
      "hand": "right"
    },
    {
      "midi": 84,
      "time": 77.055,
      "duration": 0.205,
      "velocity": 1,
      "hand": "right"
    },
    {
      "midi": 83,
      "time": 77.363,
      "duration": 0.205,
      "velocity": 1,
      "hand": "right"
    },
    {
      "midi": 79,
      "time": 77.774,
      "duration": 0.205,
      "velocity": 1,
      "hand": "right"
    },
    {
      "midi": 67,
      "time": 78.185,
      "duration": 0.205,
      "velocity": 1,
      "hand": "right"
    },
    {
      "midi": 79,
      "time": 78.596,
      "duration": 0.205,
      "velocity": 1,
      "hand": "right"
    },
    {
      "midi": 67,
      "time": 79.007,
      "duration": 0.205,
      "velocity": 1,
      "hand": "right"
    },
    {
      "midi": 79,
      "time": 79.418,
      "duration": 0.205,
      "velocity": 1,
      "hand": "right"
    },
    {
      "midi": 67,
      "time": 79.829,
      "duration": 0.205,
      "velocity": 1,
      "hand": "right"
    },
    {
      "midi": 79,
      "time": 80.24,
      "duration": 0.205,
      "velocity": 1,
      "hand": "right"
    },
    {
      "midi": 67,
      "time": 80.651,
      "duration": 0.205,
      "velocity": 1,
      "hand": "right"
    },
    {
      "midi": 68,
      "time": 81.062,
      "duration": 0.205,
      "velocity": 1,
      "hand": "right"
    },
    {
      "midi": 68,
      "time": 81.473,
      "duration": 0.205,
      "velocity": 1,
      "hand": "right"
    },
    {
      "midi": 68,
      "time": 81.884,
      "duration": 0.205,
      "velocity": 1,
      "hand": "right"
    },
    {
      "midi": 68,
      "time": 82.295,
      "duration": 0.205,
      "velocity": 1,
      "hand": "right"
    },
    {
      "midi": 86,
      "time": 82.705,
      "duration": 0.205,
      "velocity": 1,
      "hand": "right"
    },
    {
      "midi": 84,
      "time": 82.911,
      "duration": 0.205,
      "velocity": 1,
      "hand": "right"
    },
    {
      "midi": 81,
      "time": 83.322,
      "duration": 0.205,
      "velocity": 1,
      "hand": "right"
    },
    {
      "midi": 78,
      "time": 83.733,
      "duration": 0.205,
      "velocity": 1,
      "hand": "right"
    },
    {
      "midi": 74,
      "time": 84.144,
      "duration": 0.205,
      "velocity": 1,
      "hand": "right"
    },
    {
      "midi": 78,
      "time": 84.452,
      "duration": 0.205,
      "velocity": 1,
      "hand": "right"
    },
    {
      "midi": 81,
      "time": 84.658,
      "duration": 0.205,
      "velocity": 1,
      "hand": "right"
    },
    {
      "midi": 86,
      "time": 84.966,
      "duration": 0.205,
      "velocity": 1,
      "hand": "right"
    },
    {
      "midi": 84,
      "time": 85.274,
      "duration": 0.205,
      "velocity": 1,
      "hand": "right"
    },
    {
      "midi": 81,
      "time": 85.582,
      "duration": 0.205,
      "velocity": 1,
      "hand": "right"
    },
    {
      "midi": 60,
      "time": 86.096,
      "duration": 0.205,
      "velocity": 1,
      "hand": "right"
    },
    {
      "midi": 60,
      "time": 86.507,
      "duration": 0.205,
      "velocity": 1,
      "hand": "right"
    },
    {
      "midi": 60,
      "time": 86.918,
      "duration": 0.205,
      "velocity": 1,
      "hand": "right"
    },
    {
      "midi": 60,
      "time": 87.329,
      "duration": 0.205,
      "velocity": 1,
      "hand": "right"
    },
    {
      "midi": 67,
      "time": 87.842,
      "duration": 0.411,
      "velocity": 1,
      "hand": "right"
    },
    {
      "midi": 71,
      "time": 88.048,
      "duration": 0.205,
      "velocity": 1,
      "hand": "right"
    },
    {
      "midi": 72,
      "time": 88.459,
      "duration": 0.205,
      "velocity": 1,
      "hand": "right"
    },
    {
      "midi": 69,
      "time": 88.87,
      "duration": 0.205,
      "velocity": 1,
      "hand": "right"
    },
    {
      "midi": 71,
      "time": 89.281,
      "duration": 0.205,
      "velocity": 1,
      "hand": "right"
    },
    {
      "midi": 67,
      "time": 89.692,
      "duration": 0.205,
      "velocity": 1,
      "hand": "right"
    },
    {
      "midi": 69,
      "time": 90.103,
      "duration": 0.205,
      "velocity": 1,
      "hand": "right"
    },
    {
      "midi": 66,
      "time": 90.514,
      "duration": 0.205,
      "velocity": 1,
      "hand": "right"
    },
    {
      "midi": 67,
      "time": 90.925,
      "duration": 0.205,
      "velocity": 1,
      "hand": "right"
    },
    {
      "midi": 72,
      "time": 91.233,
      "duration": 0.205,
      "velocity": 1,
      "hand": "right"
    },
    {
      "midi": 72,
      "time": 91.541,
      "duration": 0.205,
      "velocity": 1,
      "hand": "right"
    },
    {
      "midi": 76,
      "time": 91.747,
      "duration": 0.205,
      "velocity": 1,
      "hand": "right"
    },
    {
      "midi": 83,
      "time": 92.055,
      "duration": 0.205,
      "velocity": 1,
      "hand": "right"
    },
    {
      "midi": 83,
      "time": 92.363,
      "duration": 0.205,
      "velocity": 1,
      "hand": "right"
    },
    {
      "midi": 83,
      "time": 92.671,
      "duration": 0.205,
      "velocity": 1,
      "hand": "right"
    },
    {
      "midi": 69,
      "time": 92.877,
      "duration": 0.205,
      "velocity": 1,
      "hand": "right"
    },
    {
      "midi": 69,
      "time": 93.185,
      "duration": 0.205,
      "velocity": 1,
      "hand": "right"
    },
    {
      "midi": 69,
      "time": 93.493,
      "duration": 0.205,
      "velocity": 1,
      "hand": "right"
    },
    {
      "midi": 79,
      "time": 93.699,
      "duration": 0.205,
      "velocity": 1,
      "hand": "right"
    },
    {
      "midi": 79,
      "time": 94.007,
      "duration": 0.411,
      "velocity": 1,
      "hand": "right"
    },
    {
      "midi": 83,
      "time": 94.418,
      "duration": 0.411,
      "velocity": 1,
      "hand": "right"
    },
    {
      "midi": 79,
      "time": 94.829,
      "duration": 0.411,
      "velocity": 1,
      "hand": "right"
    },
    {
      "midi": 67,
      "time": 95.753,
      "duration": 0.822,
      "velocity": 1,
      "hand": "right"
    },
    {
      "midi": 62,
      "time": 96.575,
      "duration": 0.822,
      "velocity": 1,
      "hand": "right"
    },
    {
      "midi": 70,
      "time": 97.397,
      "duration": 0.616,
      "velocity": 1,
      "hand": "right"
    },
    {
      "midi": 72,
      "time": 98.014,
      "duration": 0.205,
      "velocity": 1,
      "hand": "right"
    },
    {
      "midi": 74,
      "time": 99.041,
      "duration": 0.616,
      "velocity": 1,
      "hand": "right"
    },
    {
      "midi": 75,
      "time": 99.658,
      "duration": 0.205,
      "velocity": 1,
      "hand": "right"
    },
    {
      "midi": 82,
      "time": 100.685,
      "duration": 0.616,
      "velocity": 1,
      "hand": "right"
    },
    {
      "midi": 84,
      "time": 101.301,
      "duration": 0.205,
      "velocity": 1,
      "hand": "right"
    },
    {
      "midi": 79,
      "time": 101.507,
      "duration": 0.411,
      "velocity": 1,
      "hand": "right"
    },
    {
      "midi": 62,
      "time": 102.329,
      "duration": 0.205,
      "velocity": 1,
      "hand": "right"
    },
    {
      "midi": 79,
      "time": 102.74,
      "duration": 0.411,
      "velocity": 1,
      "hand": "right"
    },
    {
      "midi": 86,
      "time": 103.151,
      "duration": 0.411,
      "velocity": 1,
      "hand": "right"
    },
    {
      "midi": 88,
      "time": 103.562,
      "duration": 0.411,
      "velocity": 1,
      "hand": "right"
    },
    {
      "midi": 86,
      "time": 103.973,
      "duration": 0.822,
      "velocity": 1,
      "hand": "right"
    },
    {
      "midi": 64,
      "time": 104.384,
      "duration": 0.205,
      "velocity": 1,
      "hand": "right"
    },
    {
      "midi": 85,
      "time": 104.795,
      "duration": 0.411,
      "velocity": 1,
      "hand": "right"
    },
    {
      "midi": 64,
      "time": 105.205,
      "duration": 0.205,
      "velocity": 1,
      "hand": "right"
    },
    {
      "midi": 67,
      "time": 105.411,
      "duration": 0.205,
      "velocity": 1,
      "hand": "right"
    },
    {
      "midi": 67,
      "time": 105.822,
      "duration": 0.205,
      "velocity": 1,
      "hand": "right"
    },
    {
      "midi": 67,
      "time": 106.233,
      "duration": 0.205,
      "velocity": 1,
      "hand": "right"
    },
    {
      "midi": 67,
      "time": 106.644,
      "duration": 0.205,
      "velocity": 1,
      "hand": "right"
    },
    {
      "midi": 67,
      "time": 107.055,
      "duration": 0.205,
      "velocity": 1,
      "hand": "right"
    },
    {
      "midi": 67,
      "time": 107.466,
      "duration": 0.205,
      "velocity": 1,
      "hand": "right"
    },
    {
      "midi": 67,
      "time": 107.877,
      "duration": 0.205,
      "velocity": 1,
      "hand": "right"
    },
    {
      "midi": 67,
      "time": 108.288,
      "duration": 0.205,
      "velocity": 1,
      "hand": "right"
    },
    {
      "midi": 67,
      "time": 108.699,
      "duration": 0.205,
      "velocity": 1,
      "hand": "right"
    },
    {
      "midi": 62,
      "time": 109.11,
      "duration": 0.822,
      "velocity": 1,
      "hand": "right"
    },
    {
      "midi": 65,
      "time": 110.753,
      "duration": 0.616,
      "velocity": 1,
      "hand": "right"
    },
    {
      "midi": 67,
      "time": 111.37,
      "duration": 0.205,
      "velocity": 1,
      "hand": "right"
    },
    {
      "midi": 62,
      "time": 112.603,
      "duration": 0.205,
      "velocity": 1,
      "hand": "right"
    },
    {
      "midi": 62,
      "time": 113.014,
      "duration": 0.205,
      "velocity": 1,
      "hand": "right"
    },
    {
      "midi": 62,
      "time": 113.425,
      "duration": 0.205,
      "velocity": 1,
      "hand": "right"
    },
    {
      "midi": 62,
      "time": 113.836,
      "duration": 0.205,
      "velocity": 1,
      "hand": "right"
    },
    {
      "midi": 62,
      "time": 114.247,
      "duration": 0.205,
      "velocity": 1,
      "hand": "right"
    },
    {
      "midi": 62,
      "time": 114.658,
      "duration": 0.205,
      "velocity": 1,
      "hand": "right"
    },
    {
      "midi": 62,
      "time": 115.068,
      "duration": 0.205,
      "velocity": 1,
      "hand": "right"
    },
    {
      "midi": 62,
      "time": 115.479,
      "duration": 0.205,
      "velocity": 1,
      "hand": "right"
    },
    {
      "midi": 81,
      "time": 115.89,
      "duration": 0.205,
      "velocity": 1,
      "hand": "right"
    },
    {
      "midi": 86,
      "time": 116.096,
      "duration": 0.205,
      "velocity": 1,
      "hand": "right"
    },
    {
      "midi": 88,
      "time": 116.507,
      "duration": 0.205,
      "velocity": 1,
      "hand": "right"
    },
    {
      "midi": 84,
      "time": 116.918,
      "duration": 0.205,
      "velocity": 1,
      "hand": "right"
    },
    {
      "midi": 81,
      "time": 117.329,
      "duration": 0.822,
      "velocity": 1,
      "hand": "right"
    },
    {
      "midi": 62,
      "time": 117.945,
      "duration": 0.205,
      "velocity": 1,
      "hand": "right"
    },
    {
      "midi": 80,
      "time": 118.151,
      "duration": 0.411,
      "velocity": 1,
      "hand": "right"
    },
    {
      "midi": 62,
      "time": 118.767,
      "duration": 0.205,
      "velocity": 1,
      "hand": "right"
    },
    {
      "midi": 84,
      "time": 118.973,
      "duration": 0.822,
      "velocity": 1,
      "hand": "right"
    },
    {
      "midi": 64,
      "time": 119.281,
      "duration": 0.205,
      "velocity": 1,
      "hand": "right"
    },
    {
      "midi": 60,
      "time": 119.589,
      "duration": 0.205,
      "velocity": 1,
      "hand": "right"
    },
    {
      "midi": 81,
      "time": 119.795,
      "duration": 0.822,
      "velocity": 1,
      "hand": "right"
    },
    {
      "midi": 65,
      "time": 120.103,
      "duration": 0.205,
      "velocity": 1,
      "hand": "right"
    },
    {
      "midi": 60,
      "time": 120.411,
      "duration": 0.205,
      "velocity": 1,
      "hand": "right"
    },
    {
      "midi": 66,
      "time": 120.719,
      "duration": 0.205,
      "velocity": 1,
      "hand": "right"
    },
    {
      "midi": 88,
      "time": 121.233,
      "duration": 0.205,
      "velocity": 1,
      "hand": "right"
    },
    {
      "midi": 64,
      "time": 121.541,
      "duration": 0.205,
      "velocity": 1,
      "hand": "right"
    },
    {
      "midi": 64,
      "time": 122.158,
      "duration": 0.205,
      "velocity": 1,
      "hand": "right"
    },
    {
      "midi": 62,
      "time": 122.568,
      "duration": 0.205,
      "velocity": 1,
      "hand": "right"
    },
    {
      "midi": 79,
      "time": 123.082,
      "duration": 0.822,
      "velocity": 1,
      "hand": "right"
    },
    {
      "midi": 63,
      "time": 123.39,
      "duration": 0.205,
      "velocity": 1,
      "hand": "right"
    },
    {
      "midi": 85,
      "time": 123.904,
      "duration": 0.616,
      "velocity": 1,
      "hand": "right"
    },
    {
      "midi": 64,
      "time": 124.212,
      "duration": 0.205,
      "velocity": 1,
      "hand": "right"
    },
    {
      "midi": 86,
      "time": 124.726,
      "duration": 0.411,
      "velocity": 1,
      "hand": "right"
    },
    {
      "midi": 62,
      "time": 125.034,
      "duration": 0.205,
      "velocity": 1,
      "hand": "right"
    },
    {
      "midi": 83,
      "time": 125.548,
      "duration": 0.616,
      "velocity": 1,
      "hand": "right"
    },
    {
      "midi": 62,
      "time": 125.856,
      "duration": 0.205,
      "velocity": 1,
      "hand": "right"
    },
    {
      "midi": 84,
      "time": 126.37,
      "duration": 0.411,
      "velocity": 1,
      "hand": "right"
    },
    {
      "midi": 60,
      "time": 126.678,
      "duration": 0.205,
      "velocity": 1,
      "hand": "right"
    },
    {
      "midi": 80,
      "time": 127.192,
      "duration": 0.616,
      "velocity": 1,
      "hand": "right"
    },
    {
      "midi": 81,
      "time": 127.808,
      "duration": 0.205,
      "velocity": 1,
      "hand": "right"
    },
    {
      "midi": 81,
      "time": 129.041,
      "duration": 0.205,
      "velocity": 1,
      "hand": "right"
    },
    {
      "midi": 84,
      "time": 129.247,
      "duration": 0.205,
      "velocity": 1,
      "hand": "right"
    },
    {
      "midi": 81,
      "time": 129.658,
      "duration": 0.205,
      "velocity": 1,
      "hand": "right"
    },
    {
      "midi": 78,
      "time": 130.068,
      "duration": 0.205,
      "velocity": 1,
      "hand": "right"
    },
    {
      "midi": 72,
      "time": 130.274,
      "duration": 0.205,
      "velocity": 1,
      "hand": "right"
    },
    {
      "midi": 69,
      "time": 130.685,
      "duration": 0.205,
      "velocity": 1,
      "hand": "right"
    },
    {
      "midi": 66,
      "time": 131.096,
      "duration": 0.205,
      "velocity": 1,
      "hand": "right"
    },
    {
      "midi": 63,
      "time": 131.507,
      "duration": 0.205,
      "velocity": 1,
      "hand": "right"
    },
    {
      "midi": 60,
      "time": 132.123,
      "duration": 0.205,
      "velocity": 1,
      "hand": "right"
    },
    {
      "midi": 80,
      "time": 133.356,
      "duration": 0.411,
      "velocity": 1,
      "hand": "right"
    },
    {
      "midi": 81,
      "time": 133.767,
      "duration": 0.411,
      "velocity": 1,
      "hand": "right"
    },
    {
      "midi": 69,
      "time": 134.178,
      "duration": 0.411,
      "velocity": 1,
      "hand": "right"
    },
    {
      "midi": 72,
      "time": 134.384,
      "duration": 0.205,
      "velocity": 1,
      "hand": "right"
    },
    {
      "midi": 74,
      "time": 134.795,
      "duration": 0.205,
      "velocity": 1,
      "hand": "right"
    },
    {
      "midi": 71,
      "time": 135.205,
      "duration": 0.205,
      "velocity": 1,
      "hand": "right"
    },
    {
      "midi": 74,
      "time": 135.411,
      "duration": 0.205,
      "velocity": 1,
      "hand": "right"
    },
    {
      "midi": 65,
      "time": 135.822,
      "duration": 0.411,
      "velocity": 1,
      "hand": "right"
    },
    {
      "midi": 72,
      "time": 136.233,
      "duration": 0.205,
      "velocity": 1,
      "hand": "right"
    },
    {
      "midi": 64,
      "time": 136.644,
      "duration": 0.411,
      "velocity": 1,
      "hand": "right"
    },
    {
      "midi": 71,
      "time": 137.055,
      "duration": 0.205,
      "velocity": 1,
      "hand": "right"
    },
    {
      "midi": 72,
      "time": 137.466,
      "duration": 0.205,
      "velocity": 1,
      "hand": "right"
    },
    {
      "midi": 72,
      "time": 137.774,
      "duration": 0.205,
      "velocity": 1,
      "hand": "right"
    },
    {
      "midi": 77,
      "time": 138.082,
      "duration": 0.205,
      "velocity": 1,
      "hand": "right"
    },
    {
      "midi": 71,
      "time": 138.288,
      "duration": 0.205,
      "velocity": 1,
      "hand": "right"
    },
    {
      "midi": 71,
      "time": 138.596,
      "duration": 0.205,
      "velocity": 1,
      "hand": "right"
    },
    {
      "midi": 76,
      "time": 138.904,
      "duration": 0.205,
      "velocity": 1,
      "hand": "right"
    },
    {
      "midi": 69,
      "time": 139.11,
      "duration": 0.205,
      "velocity": 1,
      "hand": "right"
    },
    {
      "midi": 69,
      "time": 139.418,
      "duration": 0.205,
      "velocity": 1,
      "hand": "right"
    },
    {
      "midi": 74,
      "time": 139.726,
      "duration": 0.205,
      "velocity": 1,
      "hand": "right"
    },
    {
      "midi": 68,
      "time": 139.932,
      "duration": 0.205,
      "velocity": 1,
      "hand": "right"
    },
    {
      "midi": 68,
      "time": 140.24,
      "duration": 0.205,
      "velocity": 1,
      "hand": "right"
    },
    {
      "midi": 64,
      "time": 141.267,
      "duration": 0.822,
      "velocity": 1,
      "hand": "right"
    },
    {
      "midi": 72,
      "time": 142.089,
      "duration": 0.616,
      "velocity": 1,
      "hand": "right"
    },
    {
      "midi": 74,
      "time": 142.705,
      "duration": 0.205,
      "velocity": 1,
      "hand": "right"
    },
    {
      "midi": 69,
      "time": 142.911,
      "duration": 0.411,
      "velocity": 1,
      "hand": "right"
    },
    {
      "midi": 76,
      "time": 143.733,
      "duration": 0.616,
      "velocity": 1,
      "hand": "right"
    },
    {
      "midi": 77,
      "time": 144.349,
      "duration": 0.205,
      "velocity": 1,
      "hand": "right"
    },
    {
      "midi": 72,
      "time": 144.555,
      "duration": 0.411,
      "velocity": 1,
      "hand": "right"
    },
    {
      "midi": 84,
      "time": 145.377,
      "duration": 0.616,
      "velocity": 1,
      "hand": "right"
    },
    {
      "midi": 86,
      "time": 145.993,
      "duration": 0.205,
      "velocity": 1,
      "hand": "right"
    },
    {
      "midi": 81,
      "time": 146.199,
      "duration": 0.411,
      "velocity": 1,
      "hand": "right"
    },
    {
      "midi": 71,
      "time": 147.226,
      "duration": 0.822,
      "velocity": 1,
      "hand": "right"
    },
    {
      "midi": 67,
      "time": 148.048,
      "duration": 0.822,
      "velocity": 1,
      "hand": "right"
    },
    {
      "midi": 74,
      "time": 148.87,
      "duration": 0.616,
      "velocity": 1,
      "hand": "right"
    },
    {
      "midi": 76,
      "time": 149.486,
      "duration": 0.205,
      "velocity": 1,
      "hand": "right"
    },
    {
      "midi": 71,
      "time": 149.692,
      "duration": 0.411,
      "velocity": 1,
      "hand": "right"
    },
    {
      "midi": 77,
      "time": 150.514,
      "duration": 0.616,
      "velocity": 1,
      "hand": "right"
    },
    {
      "midi": 79,
      "time": 151.13,
      "duration": 0.205,
      "velocity": 1,
      "hand": "right"
    },
    {
      "midi": 74,
      "time": 151.336,
      "duration": 0.411,
      "velocity": 1,
      "hand": "right"
    },
    {
      "midi": 86,
      "time": 152.158,
      "duration": 0.616,
      "velocity": 1,
      "hand": "right"
    },
    {
      "midi": 88,
      "time": 152.774,
      "duration": 0.205,
      "velocity": 1,
      "hand": "right"
    },
    {
      "midi": 72,
      "time": 153.904,
      "duration": 0.822,
      "velocity": 1,
      "hand": "right"
    },
    {
      "midi": 67,
      "time": 154.726,
      "duration": 0.822,
      "velocity": 1,
      "hand": "right"
    },
    {
      "midi": 76,
      "time": 155.548,
      "duration": 0.616,
      "velocity": 1,
      "hand": "right"
    },
    {
      "midi": 77,
      "time": 156.164,
      "duration": 0.205,
      "velocity": 1,
      "hand": "right"
    },
    {
      "midi": 72,
      "time": 156.37,
      "duration": 0.411,
      "velocity": 1,
      "hand": "right"
    },
    {
      "midi": 79,
      "time": 157.192,
      "duration": 0.411,
      "velocity": 1,
      "hand": "right"
    },
    {
      "midi": 79,
      "time": 157.603,
      "duration": 0.411,
      "velocity": 1,
      "hand": "right"
    },
    {
      "midi": 61,
      "time": 158.014,
      "duration": 0.205,
      "velocity": 1,
      "hand": "right"
    },
    {
      "midi": 81,
      "time": 158.425,
      "duration": 0.411,
      "velocity": 1,
      "hand": "right"
    },
    {
      "midi": 79,
      "time": 158.836,
      "duration": 0.205,
      "velocity": 1,
      "hand": "right"
    },
    {
      "midi": 77,
      "time": 159.247,
      "duration": 0.411,
      "velocity": 1,
      "hand": "right"
    },
    {
      "midi": 67,
      "time": 159.863,
      "duration": 0.205,
      "velocity": 1,
      "hand": "right"
    },
    {
      "midi": 67,
      "time": 160.274,
      "duration": 0.205,
      "velocity": 1,
      "hand": "right"
    },
    {
      "midi": 76,
      "time": 160.582,
      "duration": 0.308,
      "velocity": 1,
      "hand": "right"
    },
    {
      "midi": 76,
      "time": 160.89,
      "duration": 0.411,
      "velocity": 1,
      "hand": "right"
    },
    {
      "midi": 67,
      "time": 161.096,
      "duration": 0.205,
      "velocity": 1,
      "hand": "right"
    },
    {
      "midi": 67,
      "time": 161.507,
      "duration": 0.205,
      "velocity": 1,
      "hand": "right"
    },
    {
      "midi": 76,
      "time": 161.918,
      "duration": 0.205,
      "velocity": 1,
      "hand": "right"
    },
    {
      "midi": 74,
      "time": 162.329,
      "duration": 0.205,
      "velocity": 1,
      "hand": "right"
    },
    {
      "midi": 76,
      "time": 162.74,
      "duration": 0.205,
      "velocity": 1,
      "hand": "right"
    },
    {
      "midi": 74,
      "time": 163.151,
      "duration": 0.205,
      "velocity": 1,
      "hand": "right"
    },
    {
      "midi": 76,
      "time": 163.562,
      "duration": 0.205,
      "velocity": 1,
      "hand": "right"
    },
    {
      "midi": 74,
      "time": 163.973,
      "duration": 0.205,
      "velocity": 1,
      "hand": "right"
    },
    {
      "midi": 81,
      "time": 164.384,
      "duration": 0.205,
      "velocity": 1,
      "hand": "right"
    },
    {
      "midi": 76,
      "time": 164.795,
      "duration": 0.205,
      "velocity": 1,
      "hand": "right"
    },
    {
      "midi": 74,
      "time": 165.205,
      "duration": 0.205,
      "velocity": 1,
      "hand": "right"
    },
    {
      "midi": 72,
      "time": 165.616,
      "duration": 0.822,
      "velocity": 1,
      "hand": "right"
    },
    {
      "midi": 67,
      "time": 166.438,
      "duration": 0.822,
      "velocity": 1,
      "hand": "right"
    },
    {
      "midi": 75,
      "time": 167.26,
      "duration": 0.616,
      "velocity": 1,
      "hand": "right"
    },
    {
      "midi": 77,
      "time": 167.877,
      "duration": 0.205,
      "velocity": 1,
      "hand": "right"
    },
    {
      "midi": 78,
      "time": 168.904,
      "duration": 0.205,
      "velocity": 1,
      "hand": "right"
    },
    {
      "midi": 67,
      "time": 169.11,
      "duration": 0.205,
      "velocity": 1,
      "hand": "right"
    },
    {
      "midi": 67,
      "time": 169.521,
      "duration": 0.205,
      "velocity": 1,
      "hand": "right"
    },
    {
      "midi": 72,
      "time": 169.932,
      "duration": 0.205,
      "velocity": 1,
      "hand": "right"
    },
    {
      "midi": 80,
      "time": 170.342,
      "duration": 0.205,
      "velocity": 1,
      "hand": "right"
    },
    {
      "midi": 79,
      "time": 170.548,
      "duration": 0.205,
      "velocity": 1,
      "hand": "right"
    },
    {
      "midi": 77,
      "time": 170.959,
      "duration": 0.411,
      "velocity": 1,
      "hand": "right"
    },
    {
      "midi": 77,
      "time": 171.575,
      "duration": 0.205,
      "velocity": 1,
      "hand": "right"
    },
    {
      "midi": 80,
      "time": 171.781,
      "duration": 0.205,
      "velocity": 1,
      "hand": "right"
    },
    {
      "midi": 77,
      "time": 172.192,
      "duration": 0.205,
      "velocity": 1,
      "hand": "right"
    },
    {
      "midi": 85,
      "time": 172.603,
      "duration": 0.822,
      "velocity": 1,
      "hand": "right"
    },
    {
      "midi": 61,
      "time": 173.014,
      "duration": 0.205,
      "velocity": 1,
      "hand": "right"
    },
    {
      "midi": 76,
      "time": 173.425,
      "duration": 0.411,
      "velocity": 1,
      "hand": "right"
    },
    {
      "midi": 79,
      "time": 173.836,
      "duration": 0.411,
      "velocity": 1,
      "hand": "right"
    },
    {
      "midi": 77,
      "time": 174.247,
      "duration": 0.411,
      "velocity": 1,
      "hand": "right"
    },
    {
      "midi": 60,
      "time": 174.658,
      "duration": 0.205,
      "velocity": 1,
      "hand": "right"
    },
    {
      "midi": 84,
      "time": 175.068,
      "duration": 0.205,
      "velocity": 1,
      "hand": "right"
    },
    {
      "midi": 80,
      "time": 175.274,
      "duration": 0.205,
      "velocity": 1,
      "hand": "right"
    },
    {
      "midi": 78,
      "time": 175.685,
      "duration": 0.205,
      "velocity": 1,
      "hand": "right"
    },
    {
      "midi": 68,
      "time": 176.096,
      "duration": 0.205,
      "velocity": 1,
      "hand": "right"
    },
    {
      "midi": 68,
      "time": 176.507,
      "duration": 0.205,
      "velocity": 1,
      "hand": "right"
    },
    {
      "midi": 68,
      "time": 176.918,
      "duration": 0.205,
      "velocity": 1,
      "hand": "right"
    },
    {
      "midi": 79,
      "time": 177.329,
      "duration": 0.205,
      "velocity": 1,
      "hand": "right"
    },
    {
      "midi": 79,
      "time": 177.74,
      "duration": 0.205,
      "velocity": 1,
      "hand": "right"
    },
    {
      "midi": 79,
      "time": 178.151,
      "duration": 0.205,
      "velocity": 1,
      "hand": "right"
    },
    {
      "midi": 79,
      "time": 178.562,
      "duration": 0.205,
      "velocity": 1,
      "hand": "right"
    },
    {
      "midi": 79,
      "time": 178.973,
      "duration": 0.205,
      "velocity": 1,
      "hand": "right"
    },
    {
      "midi": 79,
      "time": 179.384,
      "duration": 0.205,
      "velocity": 1,
      "hand": "right"
    },
    {
      "midi": 81,
      "time": 179.795,
      "duration": 0.205,
      "velocity": 1,
      "hand": "right"
    },
    {
      "midi": 83,
      "time": 180.205,
      "duration": 0.205,
      "velocity": 1,
      "hand": "right"
    },
    {
      "midi": 84,
      "time": 180.411,
      "duration": 0.205,
      "velocity": 1,
      "hand": "right"
    },
    {
      "midi": 84,
      "time": 180.822,
      "duration": 0.822,
      "velocity": 1,
      "hand": "right"
    },
    {
      "midi": 60,
      "time": 181.438,
      "duration": 0.205,
      "velocity": 1,
      "hand": "right"
    },
    {
      "midi": 83,
      "time": 181.644,
      "duration": 0.205,
      "velocity": 1,
      "hand": "right"
    },
    {
      "midi": 79,
      "time": 182.055,
      "duration": 0.205,
      "velocity": 1,
      "hand": "right"
    },
    {
      "midi": 79,
      "time": 182.466,
      "duration": 0.822,
      "velocity": 1,
      "hand": "right"
    },
    {
      "midi": 60,
      "time": 183.082,
      "duration": 0.205,
      "velocity": 1,
      "hand": "right"
    },
    {
      "midi": 77,
      "time": 183.288,
      "duration": 0.205,
      "velocity": 1,
      "hand": "right"
    },
    {
      "midi": 74,
      "time": 183.801,
      "duration": 0.205,
      "velocity": 1,
      "hand": "right"
    },
    {
      "midi": 76,
      "time": 184.007,
      "duration": 0.205,
      "velocity": 1,
      "hand": "right"
    },
    {
      "midi": 76,
      "time": 184.315,
      "duration": 0.205,
      "velocity": 1,
      "hand": "right"
    },
    {
      "midi": 72,
      "time": 184.521,
      "duration": 0.411,
      "velocity": 1,
      "hand": "right"
    },
    {
      "midi": 71,
      "time": 184.932,
      "duration": 0.411,
      "velocity": 1,
      "hand": "right"
    },
    {
      "midi": 84,
      "time": 185.342,
      "duration": 0.205,
      "velocity": 1,
      "hand": "right"
    },
    {
      "midi": 60,
      "time": 185.959,
      "duration": 0.205,
      "velocity": 1,
      "hand": "right"
    },
    {
      "midi": 86,
      "time": 186.37,
      "duration": 0.205,
      "velocity": 1,
      "hand": "right"
    },
    {
      "midi": 81,
      "time": 186.781,
      "duration": 0.205,
      "velocity": 1,
      "hand": "right"
    },
    {
      "midi": 79,
      "time": 187.192,
      "duration": 0.205,
      "velocity": 1,
      "hand": "right"
    },
    {
      "midi": 60,
      "time": 187.603,
      "duration": 0.205,
      "velocity": 1,
      "hand": "right"
    },
    {
      "midi": 81,
      "time": 188.014,
      "duration": 0.205,
      "velocity": 1,
      "hand": "right"
    },
    {
      "midi": 76,
      "time": 188.425,
      "duration": 0.308,
      "velocity": 1,
      "hand": "right"
    },
    {
      "midi": 74,
      "time": 188.733,
      "duration": 0.205,
      "velocity": 1,
      "hand": "right"
    },
    {
      "midi": 83,
      "time": 189.041,
      "duration": 0.205,
      "velocity": 1,
      "hand": "right"
    },
    {
      "midi": 79,
      "time": 189.247,
      "duration": 0.205,
      "velocity": 1,
      "hand": "right"
    },
    {
      "midi": 60,
      "time": 189.658,
      "duration": 0.205,
      "velocity": 1,
      "hand": "right"
    },
    {
      "midi": 72,
      "time": 190.274,
      "duration": 0.411,
      "velocity": 1,
      "hand": "right"
    },
    {
      "midi": 64,
      "time": 190.685,
      "duration": 0.205,
      "velocity": 1,
      "hand": "right"
    },
    {
      "midi": 71,
      "time": 190.993,
      "duration": 0.205,
      "velocity": 1,
      "hand": "right"
    },
    {
      "midi": 75,
      "time": 191.301,
      "duration": 0.205,
      "velocity": 1,
      "hand": "right"
    },
    {
      "midi": 76,
      "time": 191.507,
      "duration": 0.205,
      "velocity": 1,
      "hand": "right"
    },
    {
      "midi": 79,
      "time": 191.918,
      "duration": 0.205,
      "velocity": 1,
      "hand": "right"
    },
    {
      "midi": 84,
      "time": 192.329,
      "duration": 0.205,
      "velocity": 1,
      "hand": "right"
    },
    {
      "midi": 88,
      "time": 192.74,
      "duration": 0.411,
      "velocity": 1,
      "hand": "right"
    },
    {
      "midi": 64,
      "time": 193.151,
      "duration": 0.205,
      "velocity": 1,
      "hand": "right"
    },
    {
      "midi": 86,
      "time": 193.562,
      "duration": 0.411,
      "velocity": 1,
      "hand": "right"
    },
    {
      "midi": 62,
      "time": 193.973,
      "duration": 0.205,
      "velocity": 1,
      "hand": "right"
    },
    {
      "midi": 69,
      "time": 194.281,
      "duration": 0.205,
      "velocity": 1,
      "hand": "right"
    },
    {
      "midi": 73,
      "time": 194.589,
      "duration": 0.205,
      "velocity": 1,
      "hand": "right"
    },
    {
      "midi": 74,
      "time": 194.795,
      "duration": 0.205,
      "velocity": 1,
      "hand": "right"
    },
    {
      "midi": 79,
      "time": 195.205,
      "duration": 0.205,
      "velocity": 1,
      "hand": "right"
    },
    {
      "midi": 82,
      "time": 195.411,
      "duration": 0.205,
      "velocity": 1,
      "hand": "right"
    },
    {
      "midi": 85,
      "time": 195.822,
      "duration": 0.205,
      "velocity": 1,
      "hand": "right"
    },
    {
      "midi": 62,
      "time": 196.233,
      "duration": 0.205,
      "velocity": 1,
      "hand": "right"
    },
    {
      "midi": 62,
      "time": 196.644,
      "duration": 0.205,
      "velocity": 1,
      "hand": "right"
    },
    {
      "midi": 62,
      "time": 197.055,
      "duration": 0.205,
      "velocity": 1,
      "hand": "right"
    },
    {
      "midi": 69,
      "time": 197.466,
      "duration": 0.205,
      "velocity": 1,
      "hand": "right"
    },
    {
      "midi": 71,
      "time": 197.877,
      "duration": 0.205,
      "velocity": 1,
      "hand": "right"
    },
    {
      "midi": 77,
      "time": 198.288,
      "duration": 0.205,
      "velocity": 1,
      "hand": "right"
    },
    {
      "midi": 80,
      "time": 198.699,
      "duration": 0.205,
      "velocity": 1,
      "hand": "right"
    },
    {
      "midi": 83,
      "time": 199.11,
      "duration": 0.205,
      "velocity": 1,
      "hand": "right"
    },
    {
      "midi": 62,
      "time": 199.521,
      "duration": 0.205,
      "velocity": 1,
      "hand": "right"
    },
    {
      "midi": 62,
      "time": 199.932,
      "duration": 0.205,
      "velocity": 1,
      "hand": "right"
    },
    {
      "midi": 81,
      "time": 200.24,
      "duration": 0.205,
      "velocity": 1,
      "hand": "right"
    },
    {
      "midi": 86,
      "time": 200.548,
      "duration": 0.205,
      "velocity": 1,
      "hand": "right"
    },
    {
      "midi": 79,
      "time": 200.959,
      "duration": 0.205,
      "velocity": 1,
      "hand": "right"
    },
    {
      "midi": 79,
      "time": 201.267,
      "duration": 0.205,
      "velocity": 1,
      "hand": "right"
    },
    {
      "midi": 75,
      "time": 201.575,
      "duration": 0.205,
      "velocity": 1,
      "hand": "right"
    },
    {
      "midi": 76,
      "time": 201.781,
      "duration": 0.205,
      "velocity": 1,
      "hand": "right"
    },
    {
      "midi": 76,
      "time": 202.089,
      "duration": 0.205,
      "velocity": 1,
      "hand": "right"
    },
    {
      "midi": 71,
      "time": 202.397,
      "duration": 0.205,
      "velocity": 1,
      "hand": "right"
    },
    {
      "midi": 72,
      "time": 202.603,
      "duration": 0.205,
      "velocity": 1,
      "hand": "right"
    },
    {
      "midi": 72,
      "time": 202.911,
      "duration": 0.205,
      "velocity": 1,
      "hand": "right"
    },
    {
      "midi": 69,
      "time": 203.219,
      "duration": 0.205,
      "velocity": 1,
      "hand": "right"
    },
    {
      "midi": 71,
      "time": 203.425,
      "duration": 0.205,
      "velocity": 1,
      "hand": "right"
    },
    {
      "midi": 71,
      "time": 203.733,
      "duration": 0.205,
      "velocity": 1,
      "hand": "right"
    },
    {
      "midi": 66,
      "time": 204.041,
      "duration": 0.205,
      "velocity": 1,
      "hand": "right"
    },
    {
      "midi": 67,
      "time": 204.247,
      "duration": 0.205,
      "velocity": 1,
      "hand": "right"
    },
    {
      "midi": 67,
      "time": 204.555,
      "duration": 0.205,
      "velocity": 1,
      "hand": "right"
    },
    {
      "midi": 62,
      "time": 204.863,
      "duration": 0.205,
      "velocity": 1,
      "hand": "right"
    },
    {
      "midi": 62,
      "time": 205.377,
      "duration": 0.205,
      "velocity": 1,
      "hand": "right"
    },
    {
      "midi": 60,
      "time": 205.89,
      "duration": 0.308,
      "velocity": 1,
      "hand": "right"
    },
    {
      "midi": 62,
      "time": 207.021,
      "duration": 0.205,
      "velocity": 1,
      "hand": "right"
    },
    {
      "midi": 67,
      "time": 207.329,
      "duration": 0.205,
      "velocity": 1,
      "hand": "right"
    },
    {
      "midi": 78,
      "time": 208.356,
      "duration": 0.205,
      "velocity": 1,
      "hand": "right"
    },
    {
      "midi": 79,
      "time": 208.562,
      "duration": 0.205,
      "velocity": 1,
      "hand": "right"
    },
    {
      "midi": 79,
      "time": 208.973,
      "duration": 0.205,
      "velocity": 1,
      "hand": "right"
    },
    {
      "midi": 79,
      "time": 209.384,
      "duration": 0.205,
      "velocity": 1,
      "hand": "right"
    },
    {
      "midi": 79,
      "time": 209.795,
      "duration": 0.205,
      "velocity": 1,
      "hand": "right"
    },
    {
      "midi": 79,
      "time": 210.205,
      "duration": 0.205,
      "velocity": 1,
      "hand": "right"
    },
    {
      "midi": 76,
      "time": 210.411,
      "duration": 0.205,
      "velocity": 1,
      "hand": "right"
    },
    {
      "midi": 77,
      "time": 210.822,
      "duration": 0.205,
      "velocity": 1,
      "hand": "right"
    },
    {
      "midi": 74,
      "time": 211.233,
      "duration": 0.205,
      "velocity": 1,
      "hand": "right"
    },
    {
      "midi": 72,
      "time": 211.644,
      "duration": 0.205,
      "velocity": 1,
      "hand": "right"
    },
    {
      "midi": 72,
      "time": 212.055,
      "duration": 0.205,
      "velocity": 1,
      "hand": "right"
    },
    {
      "midi": 76,
      "time": 212.466,
      "duration": 0.205,
      "velocity": 1,
      "hand": "right"
    },
    {
      "midi": 76,
      "time": 212.877,
      "duration": 0.205,
      "velocity": 1,
      "hand": "right"
    },
    {
      "midi": 77,
      "time": 213.288,
      "duration": 0.205,
      "velocity": 1,
      "hand": "right"
    },
    {
      "midi": 77,
      "time": 213.699,
      "duration": 0.205,
      "velocity": 1,
      "hand": "right"
    },
    {
      "midi": 74,
      "time": 214.11,
      "duration": 0.205,
      "velocity": 1,
      "hand": "right"
    },
    {
      "midi": 74,
      "time": 214.521,
      "duration": 0.205,
      "velocity": 1,
      "hand": "right"
    },
    {
      "midi": 76,
      "time": 214.932,
      "duration": 0.205,
      "velocity": 1,
      "hand": "right"
    },
    {
      "midi": 72,
      "time": 215.342,
      "duration": 0.205,
      "velocity": 1,
      "hand": "right"
    },
    {
      "midi": 79,
      "time": 215.548,
      "duration": 0.205,
      "velocity": 1,
      "hand": "right"
    },
    {
      "midi": 62,
      "time": 215.856,
      "duration": 0.205,
      "velocity": 1,
      "hand": "right"
    },
    {
      "midi": 74,
      "time": 216.164,
      "duration": 0.205,
      "velocity": 1,
      "hand": "right"
    },
    {
      "midi": 79,
      "time": 216.37,
      "duration": 0.205,
      "velocity": 1,
      "hand": "right"
    },
    {
      "midi": 64,
      "time": 216.678,
      "duration": 0.205,
      "velocity": 1,
      "hand": "right"
    },
    {
      "midi": 72,
      "time": 216.986,
      "duration": 0.205,
      "velocity": 1,
      "hand": "right"
    },
    {
      "midi": 81,
      "time": 217.192,
      "duration": 0.205,
      "velocity": 1,
      "hand": "right"
    },
    {
      "midi": 67,
      "time": 217.5,
      "duration": 0.205,
      "velocity": 1,
      "hand": "right"
    },
    {
      "midi": 78,
      "time": 217.808,
      "duration": 0.205,
      "velocity": 1,
      "hand": "right"
    },
    {
      "midi": 79,
      "time": 218.014,
      "duration": 0.205,
      "velocity": 1,
      "hand": "right"
    },
    {
      "midi": 77,
      "time": 218.425,
      "duration": 0.205,
      "velocity": 1,
      "hand": "right"
    },
    {
      "midi": 76,
      "time": 218.836,
      "duration": 0.205,
      "velocity": 1,
      "hand": "right"
    },
    {
      "midi": 74,
      "time": 219.863,
      "duration": 0.205,
      "velocity": 1,
      "hand": "right"
    },
    {
      "midi": 77,
      "time": 220.274,
      "duration": 0.205,
      "velocity": 1,
      "hand": "right"
    },
    {
      "midi": 83,
      "time": 220.685,
      "duration": 0.822,
      "velocity": 1,
      "hand": "right"
    },
    {
      "midi": 84,
      "time": 221.507,
      "duration": 0.205,
      "velocity": 1,
      "hand": "right"
    },
    {
      "midi": 81,
      "time": 221.918,
      "duration": 0.205,
      "velocity": 1,
      "hand": "right"
    },
    {
      "midi": 76,
      "time": 222.329,
      "duration": 0.205,
      "velocity": 1,
      "hand": "right"
    },
    {
      "midi": 77,
      "time": 223.151,
      "duration": 0.205,
      "velocity": 1,
      "hand": "right"
    },
    {
      "midi": 74,
      "time": 223.562,
      "duration": 0.205,
      "velocity": 1,
      "hand": "right"
    },
    {
      "midi": 81,
      "time": 223.973,
      "duration": 0.205,
      "velocity": 1,
      "hand": "right"
    },
    {
      "midi": 79,
      "time": 224.795,
      "duration": 0.822,
      "velocity": 1,
      "hand": "right"
    },
    {
      "midi": 77,
      "time": 225.616,
      "duration": 0.205,
      "velocity": 1,
      "hand": "right"
    },
    {
      "midi": 76,
      "time": 225.822,
      "duration": 0.205,
      "velocity": 1,
      "hand": "right"
    },
    {
      "midi": 72,
      "time": 226.233,
      "duration": 0.205,
      "velocity": 1,
      "hand": "right"
    },
    {
      "midi": 79,
      "time": 227.26,
      "duration": 0.205,
      "velocity": 1,
      "hand": "right"
    },
    {
      "midi": 77,
      "time": 227.466,
      "duration": 0.205,
      "velocity": 1,
      "hand": "right"
    },
    {
      "midi": 74,
      "time": 227.877,
      "duration": 0.205,
      "velocity": 1,
      "hand": "right"
    },
    {
      "midi": 77,
      "time": 228.185,
      "duration": 0.205,
      "velocity": 1,
      "hand": "right"
    },
    {
      "midi": 72,
      "time": 228.493,
      "duration": 0.205,
      "velocity": 1,
      "hand": "right"
    },
    {
      "midi": 74,
      "time": 228.904,
      "duration": 0.205,
      "velocity": 1,
      "hand": "right"
    },
    {
      "midi": 77,
      "time": 229.11,
      "duration": 0.205,
      "velocity": 1,
      "hand": "right"
    },
    {
      "midi": 79,
      "time": 229.726,
      "duration": 0.822,
      "velocity": 1,
      "hand": "right"
    },
    {
      "midi": 60,
      "time": 230.034,
      "duration": 0.205,
      "velocity": 1,
      "hand": "right"
    },
    {
      "midi": 77,
      "time": 230.548,
      "duration": 0.205,
      "velocity": 1,
      "hand": "right"
    },
    {
      "midi": 76,
      "time": 230.856,
      "duration": 0.205,
      "velocity": 1,
      "hand": "right"
    },
    {
      "midi": 84,
      "time": 231.37,
      "duration": 0.822,
      "velocity": 1,
      "hand": "right"
    },
    {
      "midi": 65,
      "time": 231.678,
      "duration": 0.205,
      "velocity": 1,
      "hand": "right"
    },
    {
      "midi": 83,
      "time": 232.192,
      "duration": 0.205,
      "velocity": 1,
      "hand": "right"
    },
    {
      "midi": 81,
      "time": 232.5,
      "duration": 0.205,
      "velocity": 1,
      "hand": "right"
    },
    {
      "midi": 79,
      "time": 232.808,
      "duration": 0.205,
      "velocity": 1,
      "hand": "right"
    },
    {
      "midi": 76,
      "time": 233.014,
      "duration": 0.205,
      "velocity": 1,
      "hand": "right"
    },
    {
      "midi": 77,
      "time": 233.425,
      "duration": 0.411,
      "velocity": 1,
      "hand": "right"
    },
    {
      "midi": 76,
      "time": 233.836,
      "duration": 0.205,
      "velocity": 1,
      "hand": "right"
    },
    {
      "midi": 81,
      "time": 234.247,
      "duration": 0.411,
      "velocity": 1,
      "hand": "right"
    },
    {
      "midi": 79,
      "time": 234.658,
      "duration": 0.205,
      "velocity": 1,
      "hand": "right"
    },
    {
      "midi": 77,
      "time": 235.068,
      "duration": 0.411,
      "velocity": 1,
      "hand": "right"
    },
    {
      "midi": 60,
      "time": 235.274,
      "duration": 0.205,
      "velocity": 1,
      "hand": "right"
    },
    {
      "midi": 72,
      "time": 235.685,
      "duration": 0.205,
      "velocity": 1,
      "hand": "right"
    },
    {
      "midi": 60,
      "time": 236.096,
      "duration": 0.205,
      "velocity": 1,
      "hand": "right"
    },
    {
      "midi": 61,
      "time": 236.507,
      "duration": 0.205,
      "velocity": 1,
      "hand": "right"
    },
    {
      "midi": 61,
      "time": 236.918,
      "duration": 0.205,
      "velocity": 1,
      "hand": "right"
    },
    {
      "midi": 61,
      "time": 237.329,
      "duration": 0.205,
      "velocity": 1,
      "hand": "right"
    },
    {
      "midi": 61,
      "time": 237.74,
      "duration": 0.205,
      "velocity": 1,
      "hand": "right"
    },
    {
      "midi": 79,
      "time": 238.151,
      "duration": 0.205,
      "velocity": 1,
      "hand": "right"
    },
    {
      "midi": 76,
      "time": 238.562,
      "duration": 0.205,
      "velocity": 1,
      "hand": "right"
    },
    {
      "midi": 72,
      "time": 238.973,
      "duration": 0.205,
      "velocity": 1,
      "hand": "right"
    },
    {
      "midi": 69,
      "time": 239.384,
      "duration": 0.205,
      "velocity": 1,
      "hand": "right"
    },
    {
      "midi": 64,
      "time": 239.692,
      "duration": 0.205,
      "velocity": 1,
      "hand": "right"
    },
    {
      "midi": 72,
      "time": 240,
      "duration": 0.205,
      "velocity": 1,
      "hand": "right"
    },
    {
      "midi": 77,
      "time": 240.308,
      "duration": 0.205,
      "velocity": 1,
      "hand": "right"
    },
    {
      "midi": 79,
      "time": 240.514,
      "duration": 0.205,
      "velocity": 1,
      "hand": "right"
    },
    {
      "midi": 77,
      "time": 240.822,
      "duration": 0.205,
      "velocity": 1,
      "hand": "right"
    },
    {
      "midi": 72,
      "time": 241.13,
      "duration": 0.205,
      "velocity": 1,
      "hand": "right"
    },
    {
      "midi": 65,
      "time": 241.336,
      "duration": 0.205,
      "velocity": 1,
      "hand": "right"
    },
    {
      "midi": 65,
      "time": 241.747,
      "duration": 0.205,
      "velocity": 1,
      "hand": "right"
    },
    {
      "midi": 65,
      "time": 242.158,
      "duration": 0.205,
      "velocity": 1,
      "hand": "right"
    },
    {
      "midi": 65,
      "time": 242.568,
      "duration": 0.205,
      "velocity": 1,
      "hand": "right"
    },
    {
      "midi": 72,
      "time": 243.288,
      "duration": 0.411,
      "velocity": 1,
      "hand": "right"
    },
    {
      "midi": 79,
      "time": 243.699,
      "duration": 0.205,
      "velocity": 1,
      "hand": "right"
    },
    {
      "midi": 71,
      "time": 244.11,
      "duration": 0.411,
      "velocity": 1,
      "hand": "right"
    },
    {
      "midi": 77,
      "time": 244.521,
      "duration": 0.205,
      "velocity": 1,
      "hand": "right"
    },
    {
      "midi": 69,
      "time": 244.932,
      "duration": 0.411,
      "velocity": 1,
      "hand": "right"
    },
    {
      "midi": 76,
      "time": 245.342,
      "duration": 0.205,
      "velocity": 1,
      "hand": "right"
    },
    {
      "midi": 74,
      "time": 245.548,
      "duration": 0.205,
      "velocity": 1,
      "hand": "right"
    },
    {
      "midi": 71,
      "time": 245.959,
      "duration": 0.205,
      "velocity": 1,
      "hand": "right"
    },
    {
      "midi": 72,
      "time": 246.37,
      "duration": 0.205,
      "velocity": 1,
      "hand": "right"
    },
    {
      "midi": 77,
      "time": 246.678,
      "duration": 0.205,
      "velocity": 1,
      "hand": "right"
    },
    {
      "midi": 76,
      "time": 246.884,
      "duration": 0.205,
      "velocity": 1,
      "hand": "right"
    },
    {
      "midi": 81,
      "time": 247.192,
      "duration": 0.205,
      "velocity": 1,
      "hand": "right"
    },
    {
      "midi": 76,
      "time": 247.5,
      "duration": 0.205,
      "velocity": 1,
      "hand": "right"
    },
    {
      "midi": 76,
      "time": 247.808,
      "duration": 0.205,
      "velocity": 1,
      "hand": "right"
    },
    {
      "midi": 79,
      "time": 248.014,
      "duration": 0.205,
      "velocity": 1,
      "hand": "right"
    },
    {
      "midi": 74,
      "time": 248.322,
      "duration": 0.205,
      "velocity": 1,
      "hand": "right"
    },
    {
      "midi": 74,
      "time": 248.63,
      "duration": 0.205,
      "velocity": 1,
      "hand": "right"
    },
    {
      "midi": 77,
      "time": 248.836,
      "duration": 0.205,
      "velocity": 1,
      "hand": "right"
    },
    {
      "midi": 72,
      "time": 249.144,
      "duration": 0.205,
      "velocity": 1,
      "hand": "right"
    },
    {
      "midi": 72,
      "time": 249.555,
      "duration": 0.822,
      "velocity": 1,
      "hand": "right"
    },
    {
      "midi": 67,
      "time": 250.377,
      "duration": 0.822,
      "velocity": 1,
      "hand": "right"
    },
    {
      "midi": 76,
      "time": 251.199,
      "duration": 0.616,
      "velocity": 1,
      "hand": "right"
    },
    {
      "midi": 77,
      "time": 251.815,
      "duration": 0.205,
      "velocity": 1,
      "hand": "right"
    },
    {
      "midi": 72,
      "time": 252.021,
      "duration": 0.411,
      "velocity": 1,
      "hand": "right"
    },
    {
      "midi": 74,
      "time": 252.432,
      "duration": 0.205,
      "velocity": 1,
      "hand": "right"
    },
    {
      "midi": 83,
      "time": 252.74,
      "duration": 0.205,
      "velocity": 1,
      "hand": "right"
    },
    {
      "midi": 79,
      "time": 253.048,
      "duration": 0.205,
      "velocity": 1,
      "hand": "right"
    },
    {
      "midi": 77,
      "time": 253.356,
      "duration": 0.205,
      "velocity": 1,
      "hand": "right"
    },
    {
      "midi": 83,
      "time": 253.562,
      "duration": 0.205,
      "velocity": 1,
      "hand": "right"
    },
    {
      "midi": 79,
      "time": 253.87,
      "duration": 0.205,
      "velocity": 1,
      "hand": "right"
    },
    {
      "midi": 77,
      "time": 254.178,
      "duration": 0.205,
      "velocity": 1,
      "hand": "right"
    },
    {
      "midi": 83,
      "time": 254.384,
      "duration": 0.205,
      "velocity": 1,
      "hand": "right"
    },
    {
      "midi": 72,
      "time": 254.897,
      "duration": 0.411,
      "velocity": 1,
      "hand": "right"
    },
    {
      "midi": 72,
      "time": 255.308,
      "duration": 0.411,
      "velocity": 1,
      "hand": "right"
    }
  ],
  "notes2Hands": [
    {
      "midi": 60,
      "time": 0,
      "duration": 0.051,
      "velocity": 1,
      "hand": "right"
    },
    {
      "midi": 64,
      "time": 0,
      "duration": 0.051,
      "velocity": 1,
      "hand": "right"
    },
    {
      "midi": 36,
      "time": 0.103,
      "duration": 0.822,
      "velocity": 1,
      "hand": "left"
    },
    {
      "midi": 48,
      "time": 0.103,
      "duration": 0.822,
      "velocity": 1,
      "hand": "left"
    },
    {
      "midi": 67,
      "time": 0.103,
      "duration": 0.051,
      "velocity": 1,
      "hand": "right"
    },
    {
      "midi": 72,
      "time": 0.103,
      "duration": 0.822,
      "velocity": 1,
      "hand": "right"
    },
    {
      "midi": 31,
      "time": 0.925,
      "duration": 0.822,
      "velocity": 1,
      "hand": "left"
    },
    {
      "midi": 43,
      "time": 0.925,
      "duration": 0.822,
      "velocity": 1,
      "hand": "left"
    },
    {
      "midi": 67,
      "time": 0.925,
      "duration": 0.822,
      "velocity": 1,
      "hand": "right"
    },
    {
      "midi": 52,
      "time": 1.747,
      "duration": 0.616,
      "velocity": 1,
      "hand": "left"
    },
    {
      "midi": 76,
      "time": 1.747,
      "duration": 0.616,
      "velocity": 1,
      "hand": "right"
    },
    {
      "midi": 53,
      "time": 2.363,
      "duration": 0.103,
      "velocity": 1,
      "hand": "left"
    },
    {
      "midi": 77,
      "time": 2.363,
      "duration": 0.103,
      "velocity": 1,
      "hand": "right"
    },
    {
      "midi": 50,
      "time": 2.466,
      "duration": 0.103,
      "velocity": 1,
      "hand": "left"
    },
    {
      "midi": 74,
      "time": 2.466,
      "duration": 0.103,
      "velocity": 1,
      "hand": "right"
    },
    {
      "midi": 48,
      "time": 2.568,
      "duration": 0.411,
      "velocity": 1,
      "hand": "left"
    },
    {
      "midi": 72,
      "time": 2.568,
      "duration": 0.411,
      "velocity": 1,
      "hand": "right"
    },
    {
      "midi": 64,
      "time": 3.39,
      "duration": 0.205,
      "velocity": 1,
      "hand": "right"
    },
    {
      "midi": 79,
      "time": 3.39,
      "duration": 0.411,
      "velocity": 1,
      "hand": "right"
    },
    {
      "midi": 67,
      "time": 3.596,
      "duration": 0.205,
      "velocity": 1,
      "hand": "right"
    },
    {
      "midi": 64,
      "time": 3.801,
      "duration": 0.205,
      "velocity": 1,
      "hand": "right"
    },
    {
      "midi": 79,
      "time": 3.801,
      "duration": 0.411,
      "velocity": 1,
      "hand": "right"
    },
    {
      "midi": 67,
      "time": 4.007,
      "duration": 0.205,
      "velocity": 1,
      "hand": "right"
    },
    {
      "midi": 61,
      "time": 4.212,
      "duration": 0.205,
      "velocity": 1,
      "hand": "right"
    },
    {
      "midi": 67,
      "time": 4.418,
      "duration": 0.205,
      "velocity": 1,
      "hand": "right"
    },
    {
      "midi": 61,
      "time": 4.623,
      "duration": 0.205,
      "velocity": 1,
      "hand": "right"
    },
    {
      "midi": 81,
      "time": 4.623,
      "duration": 0.411,
      "velocity": 1,
      "hand": "right"
    },
    {
      "midi": 67,
      "time": 4.829,
      "duration": 0.205,
      "velocity": 1,
      "hand": "right"
    },
    {
      "midi": 62,
      "time": 5.034,
      "duration": 0.205,
      "velocity": 1,
      "hand": "right"
    },
    {
      "midi": 79,
      "time": 5.034,
      "duration": 0.103,
      "velocity": 1,
      "hand": "right"
    },
    {
      "midi": 77,
      "time": 5.137,
      "duration": 0.308,
      "velocity": 1,
      "hand": "right"
    },
    {
      "midi": 67,
      "time": 5.24,
      "duration": 0.205,
      "velocity": 1,
      "hand": "right"
    },
    {
      "midi": 62,
      "time": 5.445,
      "duration": 0.205,
      "velocity": 1,
      "hand": "right"
    },
    {
      "midi": 77,
      "time": 5.445,
      "duration": 0.411,
      "velocity": 1,
      "hand": "right"
    },
    {
      "midi": 67,
      "time": 5.651,
      "duration": 0.205,
      "velocity": 1,
      "hand": "right"
    },
    {
      "midi": 59,
      "time": 5.856,
      "duration": 0.205,
      "velocity": 1,
      "hand": "left"
    },
    {
      "midi": 67,
      "time": 6.062,
      "duration": 0.205,
      "velocity": 1,
      "hand": "right"
    },
    {
      "midi": 59,
      "time": 6.267,
      "duration": 0.205,
      "velocity": 1,
      "hand": "left"
    },
    {
      "midi": 79,
      "time": 6.267,
      "duration": 0.411,
      "velocity": 1,
      "hand": "right"
    },
    {
      "midi": 67,
      "time": 6.473,
      "duration": 0.205,
      "velocity": 1,
      "hand": "right"
    },
    {
      "midi": 60,
      "time": 6.678,
      "duration": 0.205,
      "velocity": 1,
      "hand": "right"
    },
    {
      "midi": 77,
      "time": 6.678,
      "duration": 0.103,
      "velocity": 1,
      "hand": "right"
    },
    {
      "midi": 76,
      "time": 6.781,
      "duration": 0.308,
      "velocity": 1,
      "hand": "right"
    },
    {
      "midi": 67,
      "time": 6.884,
      "duration": 0.205,
      "velocity": 1,
      "hand": "right"
    },
    {
      "midi": 60,
      "time": 7.089,
      "duration": 0.205,
      "velocity": 1,
      "hand": "right"
    },
    {
      "midi": 76,
      "time": 7.089,
      "duration": 0.411,
      "velocity": 1,
      "hand": "right"
    },
    {
      "midi": 67,
      "time": 7.295,
      "duration": 0.205,
      "velocity": 1,
      "hand": "right"
    },
    {
      "midi": 64,
      "time": 7.5,
      "duration": 0.205,
      "velocity": 1,
      "hand": "right"
    },
    {
      "midi": 67,
      "time": 7.705,
      "duration": 0.205,
      "velocity": 1,
      "hand": "right"
    },
    {
      "midi": 64,
      "time": 7.911,
      "duration": 0.205,
      "velocity": 1,
      "hand": "right"
    },
    {
      "midi": 79,
      "time": 7.911,
      "duration": 0.205,
      "velocity": 1,
      "hand": "right"
    },
    {
      "midi": 67,
      "time": 8.116,
      "duration": 0.205,
      "velocity": 1,
      "hand": "right"
    },
    {
      "midi": 76,
      "time": 8.116,
      "duration": 0.205,
      "velocity": 1,
      "hand": "right"
    },
    {
      "midi": 65,
      "time": 8.322,
      "duration": 1.644,
      "velocity": 1,
      "hand": "right"
    },
    {
      "midi": 69,
      "time": 8.322,
      "duration": 1.644,
      "velocity": 1,
      "hand": "right"
    },
    {
      "midi": 73,
      "time": 8.322,
      "duration": 0.205,
      "velocity": 1,
      "hand": "right"
    },
    {
      "midi": 74,
      "time": 8.527,
      "duration": 0.205,
      "velocity": 1,
      "hand": "right"
    },
    {
      "midi": 77,
      "time": 8.733,
      "duration": 0.205,
      "velocity": 1,
      "hand": "right"
    },
    {
      "midi": 76,
      "time": 8.938,
      "duration": 0.205,
      "velocity": 1,
      "hand": "right"
    },
    {
      "midi": 73,
      "time": 9.144,
      "duration": 0.205,
      "velocity": 1,
      "hand": "right"
    },
    {
      "midi": 74,
      "time": 9.349,
      "duration": 0.205,
      "velocity": 1,
      "hand": "right"
    },
    {
      "midi": 77,
      "time": 9.555,
      "duration": 0.205,
      "velocity": 1,
      "hand": "right"
    },
    {
      "midi": 76,
      "time": 9.76,
      "duration": 0.205,
      "velocity": 1,
      "hand": "right"
    },
    {
      "midi": 73,
      "time": 9.966,
      "duration": 0.205,
      "velocity": 1,
      "hand": "right"
    },
    {
      "midi": 74,
      "time": 10.171,
      "duration": 0.205,
      "velocity": 1,
      "hand": "right"
    },
    {
      "midi": 53,
      "time": 10.377,
      "duration": 0.411,
      "velocity": 1,
      "hand": "left"
    },
    {
      "midi": 57,
      "time": 10.377,
      "duration": 0.411,
      "velocity": 1,
      "hand": "left"
    },
    {
      "midi": 62,
      "time": 10.377,
      "duration": 0.411,
      "velocity": 1,
      "hand": "right"
    },
    {
      "midi": 77,
      "time": 10.377,
      "duration": 0.205,
      "velocity": 1,
      "hand": "right"
    },
    {
      "midi": 81,
      "time": 10.582,
      "duration": 0.205,
      "velocity": 1,
      "hand": "right"
    },
    {
      "midi": 55,
      "time": 10.788,
      "duration": 0.411,
      "velocity": 1,
      "hand": "left"
    },
    {
      "midi": 60,
      "time": 10.788,
      "duration": 0.411,
      "velocity": 1,
      "hand": "right"
    },
    {
      "midi": 64,
      "time": 10.788,
      "duration": 0.411,
      "velocity": 1,
      "hand": "right"
    },
    {
      "midi": 79,
      "time": 10.788,
      "duration": 0.205,
      "velocity": 1,
      "hand": "right"
    },
    {
      "midi": 76,
      "time": 10.993,
      "duration": 0.205,
      "velocity": 1,
      "hand": "right"
    },
    {
      "midi": 55,
      "time": 11.199,
      "duration": 0.411,
      "velocity": 1,
      "hand": "left"
    },
    {
      "midi": 59,
      "time": 11.199,
      "duration": 0.411,
      "velocity": 1,
      "hand": "left"
    },
    {
      "midi": 62,
      "time": 11.199,
      "duration": 0.411,
      "velocity": 1,
      "hand": "right"
    },
    {
      "midi": 77,
      "time": 11.199,
      "duration": 0.205,
      "velocity": 1,
      "hand": "right"
    },
    {
      "midi": 74,
      "time": 11.404,
      "duration": 0.205,
      "velocity": 1,
      "hand": "right"
    },
    {
      "midi": 60,
      "time": 11.61,
      "duration": 0.051,
      "velocity": 1,
      "hand": "right"
    },
    {
      "midi": 64,
      "time": 11.712,
      "duration": 0.051,
      "velocity": 1,
      "hand": "right"
    },
    {
      "midi": 67,
      "time": 11.712,
      "duration": 0.051,
      "velocity": 1,
      "hand": "right"
    },
    {
      "midi": 36,
      "time": 11.815,
      "duration": 0.822,
      "velocity": 1,
      "hand": "left"
    },
    {
      "midi": 48,
      "time": 11.815,
      "duration": 0.822,
      "velocity": 1,
      "hand": "left"
    },
    {
      "midi": 72,
      "time": 11.815,
      "duration": 0.822,
      "velocity": 1,
      "hand": "right"
    },
    {
      "midi": 31,
      "time": 12.637,
      "duration": 0.822,
      "velocity": 1,
      "hand": "left"
    },
    {
      "midi": 43,
      "time": 12.637,
      "duration": 0.822,
      "velocity": 1,
      "hand": "left"
    },
    {
      "midi": 67,
      "time": 12.637,
      "duration": 0.822,
      "velocity": 1,
      "hand": "right"
    },
    {
      "midi": 52,
      "time": 13.459,
      "duration": 0.616,
      "velocity": 1,
      "hand": "left"
    },
    {
      "midi": 76,
      "time": 13.459,
      "duration": 0.616,
      "velocity": 1,
      "hand": "right"
    },
    {
      "midi": 53,
      "time": 14.075,
      "duration": 0.103,
      "velocity": 1,
      "hand": "left"
    },
    {
      "midi": 77,
      "time": 14.075,
      "duration": 0.103,
      "velocity": 1,
      "hand": "right"
    },
    {
      "midi": 50,
      "time": 14.178,
      "duration": 0.103,
      "velocity": 1,
      "hand": "left"
    },
    {
      "midi": 74,
      "time": 14.178,
      "duration": 0.103,
      "velocity": 1,
      "hand": "right"
    },
    {
      "midi": 48,
      "time": 14.281,
      "duration": 0.411,
      "velocity": 1,
      "hand": "left"
    },
    {
      "midi": 72,
      "time": 14.281,
      "duration": 0.411,
      "velocity": 1,
      "hand": "right"
    },
    {
      "midi": 64,
      "time": 15.103,
      "duration": 0.205,
      "velocity": 1,
      "hand": "right"
    },
    {
      "midi": 79,
      "time": 15.103,
      "duration": 0.411,
      "velocity": 1,
      "hand": "right"
    },
    {
      "midi": 67,
      "time": 15.308,
      "duration": 0.205,
      "velocity": 1,
      "hand": "right"
    },
    {
      "midi": 64,
      "time": 15.514,
      "duration": 0.205,
      "velocity": 1,
      "hand": "right"
    },
    {
      "midi": 79,
      "time": 15.514,
      "duration": 0.411,
      "velocity": 1,
      "hand": "right"
    },
    {
      "midi": 67,
      "time": 15.719,
      "duration": 0.205,
      "velocity": 1,
      "hand": "right"
    },
    {
      "midi": 61,
      "time": 15.925,
      "duration": 0.205,
      "velocity": 1,
      "hand": "right"
    },
    {
      "midi": 67,
      "time": 16.13,
      "duration": 0.205,
      "velocity": 1,
      "hand": "right"
    },
    {
      "midi": 61,
      "time": 16.336,
      "duration": 0.205,
      "velocity": 1,
      "hand": "right"
    },
    {
      "midi": 81,
      "time": 16.336,
      "duration": 0.411,
      "velocity": 1,
      "hand": "right"
    },
    {
      "midi": 67,
      "time": 16.541,
      "duration": 0.205,
      "velocity": 1,
      "hand": "right"
    },
    {
      "midi": 62,
      "time": 16.747,
      "duration": 0.205,
      "velocity": 1,
      "hand": "right"
    },
    {
      "midi": 79,
      "time": 16.747,
      "duration": 0.103,
      "velocity": 1,
      "hand": "right"
    },
    {
      "midi": 77,
      "time": 16.849,
      "duration": 0.308,
      "velocity": 1,
      "hand": "right"
    },
    {
      "midi": 67,
      "time": 16.952,
      "duration": 0.205,
      "velocity": 1,
      "hand": "right"
    },
    {
      "midi": 62,
      "time": 17.158,
      "duration": 0.205,
      "velocity": 1,
      "hand": "right"
    },
    {
      "midi": 77,
      "time": 17.158,
      "duration": 0.411,
      "velocity": 1,
      "hand": "right"
    },
    {
      "midi": 67,
      "time": 17.363,
      "duration": 0.205,
      "velocity": 1,
      "hand": "right"
    },
    {
      "midi": 59,
      "time": 17.568,
      "duration": 0.205,
      "velocity": 1,
      "hand": "left"
    },
    {
      "midi": 67,
      "time": 17.774,
      "duration": 0.205,
      "velocity": 1,
      "hand": "right"
    },
    {
      "midi": 78,
      "time": 17.774,
      "duration": 0.205,
      "velocity": 1,
      "hand": "right"
    },
    {
      "midi": 59,
      "time": 17.979,
      "duration": 0.205,
      "velocity": 1,
      "hand": "left"
    },
    {
      "midi": 81,
      "time": 17.979,
      "duration": 0.205,
      "velocity": 1,
      "hand": "right"
    },
    {
      "midi": 67,
      "time": 18.185,
      "duration": 0.205,
      "velocity": 1,
      "hand": "right"
    },
    {
      "midi": 79,
      "time": 18.185,
      "duration": 0.205,
      "velocity": 1,
      "hand": "right"
    },
    {
      "midi": 60,
      "time": 18.39,
      "duration": 0.205,
      "velocity": 1,
      "hand": "right"
    },
    {
      "midi": 77,
      "time": 18.39,
      "duration": 0.103,
      "velocity": 1,
      "hand": "right"
    },
    {
      "midi": 76,
      "time": 18.493,
      "duration": 0.308,
      "velocity": 1,
      "hand": "right"
    },
    {
      "midi": 67,
      "time": 18.596,
      "duration": 0.205,
      "velocity": 1,
      "hand": "right"
    },
    {
      "midi": 60,
      "time": 18.801,
      "duration": 0.205,
      "velocity": 1,
      "hand": "right"
    },
    {
      "midi": 76,
      "time": 18.801,
      "duration": 0.411,
      "velocity": 1,
      "hand": "right"
    },
    {
      "midi": 67,
      "time": 19.007,
      "duration": 0.205,
      "velocity": 1,
      "hand": "right"
    },
    {
      "midi": 64,
      "time": 19.212,
      "duration": 0.205,
      "velocity": 1,
      "hand": "right"
    },
    {
      "midi": 67,
      "time": 19.418,
      "duration": 0.205,
      "velocity": 1,
      "hand": "right"
    },
    {
      "midi": 76,
      "time": 19.418,
      "duration": 0.205,
      "velocity": 1,
      "hand": "right"
    },
    {
      "midi": 64,
      "time": 19.623,
      "duration": 0.205,
      "velocity": 1,
      "hand": "right"
    },
    {
      "midi": 79,
      "time": 19.623,
      "duration": 0.205,
      "velocity": 1,
      "hand": "right"
    },
    {
      "midi": 67,
      "time": 19.829,
      "duration": 0.205,
      "velocity": 1,
      "hand": "right"
    },
    {
      "midi": 76,
      "time": 19.829,
      "duration": 0.205,
      "velocity": 1,
      "hand": "right"
    },
    {
      "midi": 67,
      "time": 20.034,
      "duration": 0.822,
      "velocity": 1,
      "hand": "right"
    },
    {
      "midi": 70,
      "time": 20.034,
      "duration": 0.822,
      "velocity": 1,
      "hand": "right"
    },
    {
      "midi": 73,
      "time": 20.034,
      "duration": 0.616,
      "velocity": 1,
      "hand": "right"
    },
    {
      "midi": 74,
      "time": 20.651,
      "duration": 0.103,
      "velocity": 1,
      "hand": "right"
    },
    {
      "midi": 76,
      "time": 20.753,
      "duration": 0.103,
      "velocity": 1,
      "hand": "right"
    },
    {
      "midi": 65,
      "time": 20.856,
      "duration": 0.411,
      "velocity": 1,
      "hand": "right"
    },
    {
      "midi": 69,
      "time": 20.856,
      "duration": 0.411,
      "velocity": 1,
      "hand": "right"
    },
    {
      "midi": 74,
      "time": 20.856,
      "duration": 0.411,
      "velocity": 1,
      "hand": "right"
    },
    {
      "midi": 77,
      "time": 21.473,
      "duration": 0.205,
      "velocity": 1,
      "hand": "right"
    },
    {
      "midi": 67,
      "time": 21.678,
      "duration": 0.822,
      "velocity": 1,
      "hand": "right"
    },
    {
      "midi": 70,
      "time": 21.678,
      "duration": 0.822,
      "velocity": 1,
      "hand": "right"
    },
    {
      "midi": 76,
      "time": 21.678,
      "duration": 0.616,
      "velocity": 1,
      "hand": "right"
    },
    {
      "midi": 77,
      "time": 22.295,
      "duration": 0.103,
      "velocity": 1,
      "hand": "right"
    },
    {
      "midi": 79,
      "time": 22.397,
      "duration": 0.103,
      "velocity": 1,
      "hand": "right"
    },
    {
      "midi": 69,
      "time": 22.5,
      "duration": 0.411,
      "velocity": 1,
      "hand": "right"
    },
    {
      "midi": 72,
      "time": 22.5,
      "duration": 0.411,
      "velocity": 1,
      "hand": "right"
    },
    {
      "midi": 77,
      "time": 22.5,
      "duration": 0.411,
      "velocity": 1,
      "hand": "right"
    },
    {
      "midi": 57,
      "time": 23.322,
      "duration": 0.205,
      "velocity": 1,
      "hand": "left"
    },
    {
      "midi": 72,
      "time": 23.322,
      "duration": 0.205,
      "velocity": 1,
      "hand": "right"
    },
    {
      "midi": 84,
      "time": 23.322,
      "duration": 0.205,
      "velocity": 1,
      "hand": "right"
    },
    {
      "midi": 60,
      "time": 23.527,
      "duration": 0.205,
      "velocity": 1,
      "hand": "right"
    },
    {
      "midi": 72,
      "time": 23.527,
      "duration": 0.205,
      "velocity": 1,
      "hand": "right"
    },
    {
      "midi": 84,
      "time": 23.527,
      "duration": 0.205,
      "velocity": 1,
      "hand": "right"
    },
    {
      "midi": 57,
      "time": 23.733,
      "duration": 0.205,
      "velocity": 1,
      "hand": "left"
    },
    {
      "midi": 72,
      "time": 23.733,
      "duration": 0.822,
      "velocity": 1,
      "hand": "right"
    },
    {
      "midi": 84,
      "time": 23.733,
      "duration": 0.822,
      "velocity": 1,
      "hand": "right"
    },
    {
      "midi": 60,
      "time": 23.938,
      "duration": 0.205,
      "velocity": 1,
      "hand": "right"
    },
    {
      "midi": 53,
      "time": 24.144,
      "duration": 0.205,
      "velocity": 1,
      "hand": "left"
    },
    {
      "midi": 60,
      "time": 24.349,
      "duration": 0.205,
      "velocity": 1,
      "hand": "right"
    },
    {
      "midi": 53,
      "time": 24.555,
      "duration": 0.205,
      "velocity": 1,
      "hand": "left"
    },
    {
      "midi": 83,
      "time": 24.555,
      "duration": 0.205,
      "velocity": 1,
      "hand": "right"
    },
    {
      "midi": 60,
      "time": 24.76,
      "duration": 0.205,
      "velocity": 1,
      "hand": "right"
    },
    {
      "midi": 81,
      "time": 24.76,
      "duration": 0.205,
      "velocity": 1,
      "hand": "right"
    },
    {
      "midi": 52,
      "time": 24.966,
      "duration": 0.205,
      "velocity": 1,
      "hand": "left"
    },
    {
      "midi": 72,
      "time": 24.966,
      "duration": 0.205,
      "velocity": 1,
      "hand": "right"
    },
    {
      "midi": 79,
      "time": 24.966,
      "duration": 0.205,
      "velocity": 1,
      "hand": "right"
    },
    {
      "midi": 60,
      "time": 25.171,
      "duration": 0.205,
      "velocity": 1,
      "hand": "right"
    },
    {
      "midi": 72,
      "time": 25.171,
      "duration": 0.205,
      "velocity": 1,
      "hand": "right"
    },
    {
      "midi": 79,
      "time": 25.171,
      "duration": 0.205,
      "velocity": 1,
      "hand": "right"
    },
    {
      "midi": 52,
      "time": 25.377,
      "duration": 0.205,
      "velocity": 1,
      "hand": "left"
    },
    {
      "midi": 72,
      "time": 25.377,
      "duration": 0.822,
      "velocity": 1,
      "hand": "right"
    },
    {
      "midi": 79,
      "time": 25.377,
      "duration": 0.822,
      "velocity": 1,
      "hand": "right"
    },
    {
      "midi": 60,
      "time": 25.582,
      "duration": 0.205,
      "velocity": 1,
      "hand": "right"
    },
    {
      "midi": 48,
      "time": 25.788,
      "duration": 0.205,
      "velocity": 1,
      "hand": "left"
    },
    {
      "midi": 60,
      "time": 25.993,
      "duration": 0.205,
      "velocity": 1,
      "hand": "right"
    },
    {
      "midi": 48,
      "time": 26.199,
      "duration": 0.205,
      "velocity": 1,
      "hand": "left"
    },
    {
      "midi": 77,
      "time": 26.199,
      "duration": 0.205,
      "velocity": 1,
      "hand": "right"
    },
    {
      "midi": 60,
      "time": 26.404,
      "duration": 0.205,
      "velocity": 1,
      "hand": "right"
    },
    {
      "midi": 76,
      "time": 26.404,
      "duration": 0.308,
      "velocity": 1,
      "hand": "right"
    },
    {
      "midi": 53,
      "time": 26.61,
      "duration": 0.205,
      "velocity": 1,
      "hand": "left"
    },
    {
      "midi": 74,
      "time": 26.712,
      "duration": 0.103,
      "velocity": 1,
      "hand": "right"
    },
    {
      "midi": 57,
      "time": 26.815,
      "duration": 0.205,
      "velocity": 1,
      "hand": "left"
    },
    {
      "midi": 77,
      "time": 26.815,
      "duration": 0.103,
      "velocity": 1,
      "hand": "right"
    },
    {
      "midi": 76,
      "time": 26.918,
      "duration": 0.103,
      "velocity": 1,
      "hand": "right"
    },
    {
      "midi": 53,
      "time": 27.021,
      "duration": 0.205,
      "velocity": 1,
      "hand": "left"
    },
    {
      "midi": 79,
      "time": 27.021,
      "duration": 0.103,
      "velocity": 1,
      "hand": "right"
    },
    {
      "midi": 77,
      "time": 27.123,
      "duration": 0.103,
      "velocity": 1,
      "hand": "right"
    },
    {
      "midi": 62,
      "time": 27.226,
      "duration": 0.205,
      "velocity": 1,
      "hand": "right"
    },
    {
      "midi": 76,
      "time": 27.226,
      "duration": 0.103,
      "velocity": 1,
      "hand": "right"
    },
    {
      "midi": 74,
      "time": 27.329,
      "duration": 0.103,
      "velocity": 1,
      "hand": "right"
    },
    {
      "midi": 55,
      "time": 27.432,
      "duration": 0.205,
      "velocity": 1,
      "hand": "left"
    },
    {
      "midi": 72,
      "time": 27.432,
      "duration": 0.411,
      "velocity": 1,
      "hand": "right"
    },
    {
      "midi": 64,
      "time": 27.637,
      "duration": 0.205,
      "velocity": 1,
      "hand": "right"
    },
    {
      "midi": 55,
      "time": 27.842,
      "duration": 0.205,
      "velocity": 1,
      "hand": "left"
    },
    {
      "midi": 71,
      "time": 27.842,
      "duration": 0.411,
      "velocity": 1,
      "hand": "right"
    },
    {
      "midi": 62,
      "time": 28.048,
      "duration": 0.205,
      "velocity": 1,
      "hand": "right"
    },
    {
      "midi": 69,
      "time": 28.151,
      "duration": 0.051,
      "velocity": 1,
      "hand": "right"
    },
    {
      "midi": 57,
      "time": 28.253,
      "duration": 0.205,
      "velocity": 1,
      "hand": "left"
    },
    {
      "midi": 72,
      "time": 28.253,
      "duration": 0.205,
      "velocity": 1,
      "hand": "right"
    },
    {
      "midi": 84,
      "time": 28.253,
      "duration": 0.205,
      "velocity": 1,
      "hand": "right"
    },
    {
      "midi": 60,
      "time": 28.459,
      "duration": 0.205,
      "velocity": 1,
      "hand": "right"
    },
    {
      "midi": 72,
      "time": 28.459,
      "duration": 0.205,
      "velocity": 1,
      "hand": "right"
    },
    {
      "midi": 84,
      "time": 28.459,
      "duration": 0.205,
      "velocity": 1,
      "hand": "right"
    },
    {
      "midi": 57,
      "time": 28.664,
      "duration": 0.205,
      "velocity": 1,
      "hand": "left"
    },
    {
      "midi": 72,
      "time": 28.664,
      "duration": 0.616,
      "velocity": 1,
      "hand": "right"
    },
    {
      "midi": 84,
      "time": 28.664,
      "duration": 0.616,
      "velocity": 1,
      "hand": "right"
    },
    {
      "midi": 60,
      "time": 28.87,
      "duration": 0.205,
      "velocity": 1,
      "hand": "right"
    },
    {
      "midi": 53,
      "time": 29.075,
      "duration": 0.205,
      "velocity": 1,
      "hand": "left"
    },
    {
      "midi": 60,
      "time": 29.281,
      "duration": 0.205,
      "velocity": 1,
      "hand": "right"
    },
    {
      "midi": 86,
      "time": 29.281,
      "duration": 0.103,
      "velocity": 1,
      "hand": "right"
    },
    {
      "midi": 84,
      "time": 29.384,
      "duration": 0.103,
      "velocity": 1,
      "hand": "right"
    },
    {
      "midi": 53,
      "time": 29.486,
      "duration": 0.205,
      "velocity": 1,
      "hand": "left"
    },
    {
      "midi": 83,
      "time": 29.486,
      "duration": 0.205,
      "velocity": 1,
      "hand": "right"
    },
    {
      "midi": 60,
      "time": 29.692,
      "duration": 0.205,
      "velocity": 1,
      "hand": "right"
    },
    {
      "midi": 81,
      "time": 29.692,
      "duration": 0.205,
      "velocity": 1,
      "hand": "right"
    },
    {
      "midi": 52,
      "time": 29.897,
      "duration": 0.205,
      "velocity": 1,
      "hand": "left"
    },
    {
      "midi": 72,
      "time": 29.897,
      "duration": 0.205,
      "velocity": 1,
      "hand": "right"
    },
    {
      "midi": 79,
      "time": 29.897,
      "duration": 0.205,
      "velocity": 1,
      "hand": "right"
    },
    {
      "midi": 60,
      "time": 30.103,
      "duration": 0.205,
      "velocity": 1,
      "hand": "right"
    },
    {
      "midi": 72,
      "time": 30.103,
      "duration": 0.205,
      "velocity": 1,
      "hand": "right"
    },
    {
      "midi": 79,
      "time": 30.103,
      "duration": 0.205,
      "velocity": 1,
      "hand": "right"
    },
    {
      "midi": 52,
      "time": 30.308,
      "duration": 0.205,
      "velocity": 1,
      "hand": "left"
    },
    {
      "midi": 72,
      "time": 30.308,
      "duration": 0.616,
      "velocity": 1,
      "hand": "right"
    },
    {
      "midi": 79,
      "time": 30.308,
      "duration": 0.616,
      "velocity": 1,
      "hand": "right"
    },
    {
      "midi": 60,
      "time": 30.514,
      "duration": 0.205,
      "velocity": 1,
      "hand": "right"
    },
    {
      "midi": 48,
      "time": 30.719,
      "duration": 0.205,
      "velocity": 1,
      "hand": "left"
    },
    {
      "midi": 60,
      "time": 30.925,
      "duration": 0.205,
      "velocity": 1,
      "hand": "right"
    },
    {
      "midi": 81,
      "time": 30.925,
      "duration": 0.103,
      "velocity": 1,
      "hand": "right"
    },
    {
      "midi": 79,
      "time": 31.027,
      "duration": 0.103,
      "velocity": 1,
      "hand": "right"
    },
    {
      "midi": 48,
      "time": 31.13,
      "duration": 0.205,
      "velocity": 1,
      "hand": "left"
    },
    {
      "midi": 77,
      "time": 31.13,
      "duration": 0.205,
      "velocity": 1,
      "hand": "right"
    },
    {
      "midi": 60,
      "time": 31.336,
      "duration": 0.205,
      "velocity": 1,
      "hand": "right"
    },
    {
      "midi": 76,
      "time": 31.336,
      "duration": 0.308,
      "velocity": 1,
      "hand": "right"
    },
    {
      "midi": 53,
      "time": 31.541,
      "duration": 0.205,
      "velocity": 1,
      "hand": "left"
    },
    {
      "midi": 74,
      "time": 31.644,
      "duration": 0.103,
      "velocity": 1,
      "hand": "right"
    },
    {
      "midi": 60,
      "time": 31.747,
      "duration": 0.205,
      "velocity": 1,
      "hand": "right"
    },
    {
      "midi": 81,
      "time": 31.747,
      "duration": 0.103,
      "velocity": 1,
      "hand": "right"
    },
    {
      "midi": 80,
      "time": 31.849,
      "duration": 0.103,
      "velocity": 1,
      "hand": "right"
    },
    {
      "midi": 53,
      "time": 31.952,
      "duration": 0.205,
      "velocity": 1,
      "hand": "left"
    },
    {
      "midi": 83,
      "time": 31.952,
      "duration": 0.103,
      "velocity": 1,
      "hand": "right"
    },
    {
      "midi": 81,
      "time": 32.055,
      "duration": 0.103,
      "velocity": 1,
      "hand": "right"
    },
    {
      "midi": 62,
      "time": 32.158,
      "duration": 0.205,
      "velocity": 1,
      "hand": "right"
    },
    {
      "midi": 79,
      "time": 32.158,
      "duration": 0.103,
      "velocity": 1,
      "hand": "right"
    },
    {
      "midi": 77,
      "time": 32.26,
      "duration": 0.103,
      "velocity": 1,
      "hand": "right"
    },
    {
      "midi": 55,
      "time": 32.363,
      "duration": 0.205,
      "velocity": 1,
      "hand": "left"
    },
    {
      "midi": 76,
      "time": 32.363,
      "duration": 0.411,
      "velocity": 1,
      "hand": "right"
    },
    {
      "midi": 60,
      "time": 32.568,
      "duration": 0.205,
      "velocity": 1,
      "hand": "right"
    },
    {
      "midi": 55,
      "time": 32.774,
      "duration": 0.205,
      "velocity": 1,
      "hand": "left"
    },
    {
      "midi": 74,
      "time": 32.774,
      "duration": 0.411,
      "velocity": 1,
      "hand": "right"
    },
    {
      "midi": 59,
      "time": 32.979,
      "duration": 0.205,
      "velocity": 1,
      "hand": "left"
    },
    {
      "midi": 72,
      "time": 33.082,
      "duration": 0.051,
      "velocity": 1,
      "hand": "right"
    },
    {
      "midi": 60,
      "time": 33.185,
      "duration": 0.205,
      "velocity": 1,
      "hand": "right"
    },
    {
      "midi": 64,
      "time": 33.185,
      "duration": 0.205,
      "velocity": 1,
      "hand": "right"
    },
    {
      "midi": 72,
      "time": 33.185,
      "duration": 0.411,
      "velocity": 1,
      "hand": "right"
    },
    {
      "midi": 60,
      "time": 33.39,
      "duration": 0.205,
      "velocity": 1,
      "hand": "right"
    },
    {
      "midi": 64,
      "time": 33.39,
      "duration": 0.205,
      "velocity": 1,
      "hand": "right"
    },
    {
      "midi": 60,
      "time": 33.596,
      "duration": 0.205,
      "velocity": 1,
      "hand": "right"
    },
    {
      "midi": 64,
      "time": 33.596,
      "duration": 0.205,
      "velocity": 1,
      "hand": "right"
    },
    {
      "midi": 60,
      "time": 33.801,
      "duration": 0.205,
      "velocity": 1,
      "hand": "right"
    },
    {
      "midi": 64,
      "time": 33.801,
      "duration": 0.205,
      "velocity": 1,
      "hand": "right"
    },
    {
      "midi": 72,
      "time": 33.801,
      "duration": 0.103,
      "velocity": 1,
      "hand": "right"
    },
    {
      "midi": 74,
      "time": 33.801,
      "duration": 0.051,
      "velocity": 1,
      "hand": "right"
    },
    {
      "midi": 71,
      "time": 33.904,
      "duration": 0.103,
      "velocity": 1,
      "hand": "right"
    },
    {
      "midi": 60,
      "time": 34.007,
      "duration": 0.205,
      "velocity": 1,
      "hand": "right"
    },
    {
      "midi": 64,
      "time": 34.007,
      "duration": 0.205,
      "velocity": 1,
      "hand": "right"
    },
    {
      "midi": 72,
      "time": 34.007,
      "duration": 0.205,
      "velocity": 1,
      "hand": "right"
    },
    {
      "midi": 60,
      "time": 34.212,
      "duration": 0.205,
      "velocity": 1,
      "hand": "right"
    },
    {
      "midi": 64,
      "time": 34.212,
      "duration": 0.205,
      "velocity": 1,
      "hand": "right"
    },
    {
      "midi": 75,
      "time": 34.212,
      "duration": 0.205,
      "velocity": 1,
      "hand": "right"
    },
    {
      "midi": 60,
      "time": 34.418,
      "duration": 0.205,
      "velocity": 1,
      "hand": "right"
    },
    {
      "midi": 64,
      "time": 34.418,
      "duration": 0.205,
      "velocity": 1,
      "hand": "right"
    },
    {
      "midi": 76,
      "time": 34.418,
      "duration": 0.205,
      "velocity": 1,
      "hand": "right"
    },
    {
      "midi": 60,
      "time": 34.623,
      "duration": 0.205,
      "velocity": 1,
      "hand": "right"
    },
    {
      "midi": 64,
      "time": 34.623,
      "duration": 0.205,
      "velocity": 1,
      "hand": "right"
    },
    {
      "midi": 78,
      "time": 34.623,
      "duration": 0.205,
      "velocity": 1,
      "hand": "right"
    },
    {
      "midi": 60,
      "time": 34.829,
      "duration": 0.205,
      "velocity": 1,
      "hand": "right"
    },
    {
      "midi": 64,
      "time": 34.829,
      "duration": 0.205,
      "velocity": 1,
      "hand": "right"
    },
    {
      "midi": 79,
      "time": 34.829,
      "duration": 0.205,
      "velocity": 1,
      "hand": "right"
    },
    {
      "midi": 60,
      "time": 35.034,
      "duration": 0.205,
      "velocity": 1,
      "hand": "right"
    },
    {
      "midi": 64,
      "time": 35.034,
      "duration": 0.205,
      "velocity": 1,
      "hand": "right"
    },
    {
      "midi": 83,
      "time": 35.034,
      "duration": 0.205,
      "velocity": 1,
      "hand": "right"
    },
    {
      "midi": 60,
      "time": 35.24,
      "duration": 0.205,
      "velocity": 1,
      "hand": "right"
    },
    {
      "midi": 64,
      "time": 35.24,
      "duration": 0.205,
      "velocity": 1,
      "hand": "right"
    },
    {
      "midi": 84,
      "time": 35.24,
      "duration": 0.205,
      "velocity": 1,
      "hand": "right"
    },
    {
      "midi": 60,
      "time": 35.445,
      "duration": 0.205,
      "velocity": 1,
      "hand": "right"
    },
    {
      "midi": 64,
      "time": 35.445,
      "duration": 0.205,
      "velocity": 1,
      "hand": "right"
    },
    {
      "midi": 87,
      "time": 35.445,
      "duration": 0.205,
      "velocity": 1,
      "hand": "right"
    },
    {
      "midi": 60,
      "time": 35.651,
      "duration": 0.205,
      "velocity": 1,
      "hand": "right"
    },
    {
      "midi": 64,
      "time": 35.651,
      "duration": 0.205,
      "velocity": 1,
      "hand": "right"
    },
    {
      "midi": 88,
      "time": 35.651,
      "duration": 0.411,
      "velocity": 1,
      "hand": "right"
    },
    {
      "midi": 60,
      "time": 35.856,
      "duration": 0.205,
      "velocity": 1,
      "hand": "right"
    },
    {
      "midi": 64,
      "time": 35.856,
      "duration": 0.205,
      "velocity": 1,
      "hand": "right"
    },
    {
      "midi": 60,
      "time": 36.062,
      "duration": 0.205,
      "velocity": 1,
      "hand": "right"
    },
    {
      "midi": 64,
      "time": 36.062,
      "duration": 0.205,
      "velocity": 1,
      "hand": "right"
    },
    {
      "midi": 60,
      "time": 36.267,
      "duration": 0.205,
      "velocity": 1,
      "hand": "right"
    },
    {
      "midi": 64,
      "time": 36.267,
      "duration": 0.205,
      "velocity": 1,
      "hand": "right"
    },
    {
      "midi": 59,
      "time": 36.473,
      "duration": 0.205,
      "velocity": 1,
      "hand": "left"
    },
    {
      "midi": 62,
      "time": 36.473,
      "duration": 0.205,
      "velocity": 1,
      "hand": "right"
    },
    {
      "midi": 74,
      "time": 36.473,
      "duration": 0.411,
      "velocity": 1,
      "hand": "right"
    },
    {
      "midi": 79,
      "time": 36.473,
      "duration": 0.411,
      "velocity": 1,
      "hand": "right"
    },
    {
      "midi": 86,
      "time": 36.473,
      "duration": 0.411,
      "velocity": 1,
      "hand": "right"
    },
    {
      "midi": 59,
      "time": 36.678,
      "duration": 0.205,
      "velocity": 1,
      "hand": "left"
    },
    {
      "midi": 62,
      "time": 36.678,
      "duration": 0.205,
      "velocity": 1,
      "hand": "right"
    },
    {
      "midi": 59,
      "time": 36.884,
      "duration": 0.205,
      "velocity": 1,
      "hand": "left"
    },
    {
      "midi": 62,
      "time": 36.884,
      "duration": 0.205,
      "velocity": 1,
      "hand": "right"
    },
    {
      "midi": 59,
      "time": 37.089,
      "duration": 0.205,
      "velocity": 1,
      "hand": "left"
    },
    {
      "midi": 62,
      "time": 37.089,
      "duration": 0.205,
      "velocity": 1,
      "hand": "right"
    },
    {
      "midi": 71,
      "time": 37.089,
      "duration": 0.103,
      "velocity": 1,
      "hand": "right"
    },
    {
      "midi": 72,
      "time": 37.089,
      "duration": 0.051,
      "velocity": 1,
      "hand": "right"
    },
    {
      "midi": 69,
      "time": 37.192,
      "duration": 0.103,
      "velocity": 1,
      "hand": "right"
    },
    {
      "midi": 59,
      "time": 37.295,
      "duration": 0.205,
      "velocity": 1,
      "hand": "left"
    },
    {
      "midi": 62,
      "time": 37.295,
      "duration": 0.205,
      "velocity": 1,
      "hand": "right"
    },
    {
      "midi": 71,
      "time": 37.295,
      "duration": 0.205,
      "velocity": 1,
      "hand": "right"
    },
    {
      "midi": 59,
      "time": 37.5,
      "duration": 0.205,
      "velocity": 1,
      "hand": "left"
    },
    {
      "midi": 62,
      "time": 37.5,
      "duration": 0.205,
      "velocity": 1,
      "hand": "right"
    },
    {
      "midi": 73,
      "time": 37.5,
      "duration": 0.205,
      "velocity": 1,
      "hand": "right"
    },
    {
      "midi": 59,
      "time": 37.705,
      "duration": 0.205,
      "velocity": 1,
      "hand": "left"
    },
    {
      "midi": 62,
      "time": 37.705,
      "duration": 0.205,
      "velocity": 1,
      "hand": "right"
    },
    {
      "midi": 74,
      "time": 37.705,
      "duration": 0.205,
      "velocity": 1,
      "hand": "right"
    },
    {
      "midi": 59,
      "time": 37.911,
      "duration": 0.205,
      "velocity": 1,
      "hand": "left"
    },
    {
      "midi": 62,
      "time": 37.911,
      "duration": 0.205,
      "velocity": 1,
      "hand": "right"
    },
    {
      "midi": 78,
      "time": 37.911,
      "duration": 0.205,
      "velocity": 1,
      "hand": "right"
    },
    {
      "midi": 59,
      "time": 38.116,
      "duration": 0.205,
      "velocity": 1,
      "hand": "left"
    },
    {
      "midi": 62,
      "time": 38.116,
      "duration": 0.205,
      "velocity": 1,
      "hand": "right"
    },
    {
      "midi": 79,
      "time": 38.116,
      "duration": 0.205,
      "velocity": 1,
      "hand": "right"
    },
    {
      "midi": 59,
      "time": 38.322,
      "duration": 0.205,
      "velocity": 1,
      "hand": "left"
    },
    {
      "midi": 62,
      "time": 38.322,
      "duration": 0.205,
      "velocity": 1,
      "hand": "right"
    },
    {
      "midi": 82,
      "time": 38.322,
      "duration": 0.205,
      "velocity": 1,
      "hand": "right"
    },
    {
      "midi": 59,
      "time": 38.527,
      "duration": 0.205,
      "velocity": 1,
      "hand": "left"
    },
    {
      "midi": 62,
      "time": 38.527,
      "duration": 0.205,
      "velocity": 1,
      "hand": "right"
    },
    {
      "midi": 83,
      "time": 38.527,
      "duration": 0.205,
      "velocity": 1,
      "hand": "right"
    },
    {
      "midi": 59,
      "time": 38.733,
      "duration": 0.205,
      "velocity": 1,
      "hand": "left"
    },
    {
      "midi": 62,
      "time": 38.733,
      "duration": 0.205,
      "velocity": 1,
      "hand": "right"
    },
    {
      "midi": 85,
      "time": 38.733,
      "duration": 0.205,
      "velocity": 1,
      "hand": "right"
    },
    {
      "midi": 59,
      "time": 38.938,
      "duration": 0.205,
      "velocity": 1,
      "hand": "left"
    },
    {
      "midi": 62,
      "time": 38.938,
      "duration": 0.205,
      "velocity": 1,
      "hand": "right"
    },
    {
      "midi": 86,
      "time": 38.938,
      "duration": 0.411,
      "velocity": 1,
      "hand": "right"
    },
    {
      "midi": 59,
      "time": 39.144,
      "duration": 0.205,
      "velocity": 1,
      "hand": "left"
    },
    {
      "midi": 62,
      "time": 39.144,
      "duration": 0.205,
      "velocity": 1,
      "hand": "right"
    },
    {
      "midi": 59,
      "time": 39.349,
      "duration": 0.205,
      "velocity": 1,
      "hand": "left"
    },
    {
      "midi": 62,
      "time": 39.349,
      "duration": 0.205,
      "velocity": 1,
      "hand": "right"
    },
    {
      "midi": 59,
      "time": 39.555,
      "duration": 0.205,
      "velocity": 1,
      "hand": "left"
    },
    {
      "midi": 62,
      "time": 39.555,
      "duration": 0.205,
      "velocity": 1,
      "hand": "right"
    },
    {
      "midi": 54,
      "time": 39.76,
      "duration": 0.205,
      "velocity": 1,
      "hand": "left"
    },
    {
      "midi": 57,
      "time": 39.76,
      "duration": 0.205,
      "velocity": 1,
      "hand": "left"
    },
    {
      "midi": 62,
      "time": 39.76,
      "duration": 0.205,
      "velocity": 1,
      "hand": "right"
    },
    {
      "midi": 72,
      "time": 39.76,
      "duration": 0.411,
      "velocity": 1,
      "hand": "right"
    },
    {
      "midi": 78,
      "time": 39.76,
      "duration": 0.411,
      "velocity": 1,
      "hand": "right"
    },
    {
      "midi": 84,
      "time": 39.76,
      "duration": 0.411,
      "velocity": 1,
      "hand": "right"
    },
    {
      "midi": 54,
      "time": 39.966,
      "duration": 0.205,
      "velocity": 1,
      "hand": "left"
    },
    {
      "midi": 57,
      "time": 39.966,
      "duration": 0.205,
      "velocity": 1,
      "hand": "left"
    },
    {
      "midi": 62,
      "time": 39.966,
      "duration": 0.205,
      "velocity": 1,
      "hand": "right"
    },
    {
      "midi": 54,
      "time": 40.171,
      "duration": 0.205,
      "velocity": 1,
      "hand": "left"
    },
    {
      "midi": 57,
      "time": 40.171,
      "duration": 0.205,
      "velocity": 1,
      "hand": "left"
    },
    {
      "midi": 62,
      "time": 40.171,
      "duration": 0.205,
      "velocity": 1,
      "hand": "right"
    },
    {
      "midi": 54,
      "time": 40.377,
      "duration": 0.205,
      "velocity": 1,
      "hand": "left"
    },
    {
      "midi": 57,
      "time": 40.377,
      "duration": 0.205,
      "velocity": 1,
      "hand": "left"
    },
    {
      "midi": 62,
      "time": 40.377,
      "duration": 0.205,
      "velocity": 1,
      "hand": "right"
    },
    {
      "midi": 69,
      "time": 40.377,
      "duration": 0.103,
      "velocity": 1,
      "hand": "right"
    },
    {
      "midi": 71,
      "time": 40.377,
      "duration": 0.051,
      "velocity": 1,
      "hand": "right"
    },
    {
      "midi": 68,
      "time": 40.479,
      "duration": 0.103,
      "velocity": 1,
      "hand": "right"
    },
    {
      "midi": 54,
      "time": 40.582,
      "duration": 0.205,
      "velocity": 1,
      "hand": "left"
    },
    {
      "midi": 57,
      "time": 40.582,
      "duration": 0.205,
      "velocity": 1,
      "hand": "left"
    },
    {
      "midi": 62,
      "time": 40.582,
      "duration": 0.205,
      "velocity": 1,
      "hand": "right"
    },
    {
      "midi": 69,
      "time": 40.582,
      "duration": 0.205,
      "velocity": 1,
      "hand": "right"
    },
    {
      "midi": 54,
      "time": 40.788,
      "duration": 0.205,
      "velocity": 1,
      "hand": "left"
    },
    {
      "midi": 57,
      "time": 40.788,
      "duration": 0.205,
      "velocity": 1,
      "hand": "left"
    },
    {
      "midi": 62,
      "time": 40.788,
      "duration": 0.205,
      "velocity": 1,
      "hand": "right"
    },
    {
      "midi": 71,
      "time": 40.788,
      "duration": 0.205,
      "velocity": 1,
      "hand": "right"
    },
    {
      "midi": 54,
      "time": 40.993,
      "duration": 0.205,
      "velocity": 1,
      "hand": "left"
    },
    {
      "midi": 57,
      "time": 40.993,
      "duration": 0.205,
      "velocity": 1,
      "hand": "left"
    },
    {
      "midi": 62,
      "time": 40.993,
      "duration": 0.205,
      "velocity": 1,
      "hand": "right"
    },
    {
      "midi": 72,
      "time": 40.993,
      "duration": 0.205,
      "velocity": 1,
      "hand": "right"
    },
    {
      "midi": 54,
      "time": 41.199,
      "duration": 0.205,
      "velocity": 1,
      "hand": "left"
    },
    {
      "midi": 57,
      "time": 41.199,
      "duration": 0.205,
      "velocity": 1,
      "hand": "left"
    },
    {
      "midi": 62,
      "time": 41.199,
      "duration": 0.205,
      "velocity": 1,
      "hand": "right"
    },
    {
      "midi": 77,
      "time": 41.199,
      "duration": 0.205,
      "velocity": 1,
      "hand": "right"
    },
    {
      "midi": 54,
      "time": 41.404,
      "duration": 0.205,
      "velocity": 1,
      "hand": "left"
    },
    {
      "midi": 57,
      "time": 41.404,
      "duration": 0.205,
      "velocity": 1,
      "hand": "left"
    },
    {
      "midi": 62,
      "time": 41.404,
      "duration": 0.205,
      "velocity": 1,
      "hand": "right"
    },
    {
      "midi": 78,
      "time": 41.404,
      "duration": 0.205,
      "velocity": 1,
      "hand": "right"
    },
    {
      "midi": 54,
      "time": 41.61,
      "duration": 0.205,
      "velocity": 1,
      "hand": "left"
    },
    {
      "midi": 57,
      "time": 41.61,
      "duration": 0.205,
      "velocity": 1,
      "hand": "left"
    },
    {
      "midi": 62,
      "time": 41.61,
      "duration": 0.205,
      "velocity": 1,
      "hand": "right"
    },
    {
      "midi": 80,
      "time": 41.61,
      "duration": 0.205,
      "velocity": 1,
      "hand": "right"
    },
    {
      "midi": 54,
      "time": 41.815,
      "duration": 0.205,
      "velocity": 1,
      "hand": "left"
    },
    {
      "midi": 57,
      "time": 41.815,
      "duration": 0.205,
      "velocity": 1,
      "hand": "left"
    },
    {
      "midi": 62,
      "time": 41.815,
      "duration": 0.205,
      "velocity": 1,
      "hand": "right"
    },
    {
      "midi": 81,
      "time": 41.815,
      "duration": 0.205,
      "velocity": 1,
      "hand": "right"
    },
    {
      "midi": 54,
      "time": 42.021,
      "duration": 0.205,
      "velocity": 1,
      "hand": "left"
    },
    {
      "midi": 57,
      "time": 42.021,
      "duration": 0.205,
      "velocity": 1,
      "hand": "left"
    },
    {
      "midi": 62,
      "time": 42.021,
      "duration": 0.205,
      "velocity": 1,
      "hand": "right"
    },
    {
      "midi": 83,
      "time": 42.021,
      "duration": 0.205,
      "velocity": 1,
      "hand": "right"
    },
    {
      "midi": 54,
      "time": 42.226,
      "duration": 0.205,
      "velocity": 1,
      "hand": "left"
    },
    {
      "midi": 57,
      "time": 42.226,
      "duration": 0.205,
      "velocity": 1,
      "hand": "left"
    },
    {
      "midi": 62,
      "time": 42.226,
      "duration": 0.205,
      "velocity": 1,
      "hand": "right"
    },
    {
      "midi": 84,
      "time": 42.226,
      "duration": 0.411,
      "velocity": 1,
      "hand": "right"
    },
    {
      "midi": 54,
      "time": 42.432,
      "duration": 0.205,
      "velocity": 1,
      "hand": "left"
    },
    {
      "midi": 57,
      "time": 42.432,
      "duration": 0.205,
      "velocity": 1,
      "hand": "left"
    },
    {
      "midi": 62,
      "time": 42.432,
      "duration": 0.205,
      "velocity": 1,
      "hand": "right"
    },
    {
      "midi": 54,
      "time": 42.637,
      "duration": 0.205,
      "velocity": 1,
      "hand": "left"
    },
    {
      "midi": 57,
      "time": 42.637,
      "duration": 0.205,
      "velocity": 1,
      "hand": "left"
    },
    {
      "midi": 62,
      "time": 42.637,
      "duration": 0.205,
      "velocity": 1,
      "hand": "right"
    },
    {
      "midi": 54,
      "time": 42.842,
      "duration": 0.205,
      "velocity": 1,
      "hand": "left"
    },
    {
      "midi": 57,
      "time": 42.842,
      "duration": 0.205,
      "velocity": 1,
      "hand": "left"
    },
    {
      "midi": 62,
      "time": 42.842,
      "duration": 0.205,
      "velocity": 1,
      "hand": "right"
    },
    {
      "midi": 55,
      "time": 43.048,
      "duration": 0.205,
      "velocity": 1,
      "hand": "left"
    },
    {
      "midi": 84,
      "time": 43.048,
      "duration": 0.103,
      "velocity": 1,
      "hand": "right"
    },
    {
      "midi": 83,
      "time": 43.151,
      "duration": 0.103,
      "velocity": 1,
      "hand": "right"
    },
    {
      "midi": 62,
      "time": 43.253,
      "duration": 0.205,
      "velocity": 1,
      "hand": "right"
    },
    {
      "midi": 81,
      "time": 43.253,
      "duration": 0.103,
      "velocity": 1,
      "hand": "right"
    },
    {
      "midi": 79,
      "time": 43.356,
      "duration": 0.103,
      "velocity": 1,
      "hand": "right"
    },
    {
      "midi": 57,
      "time": 43.459,
      "duration": 0.205,
      "velocity": 1,
      "hand": "left"
    },
    {
      "midi": 79,
      "time": 43.459,
      "duration": 0.103,
      "velocity": 1,
      "hand": "right"
    },
    {
      "midi": 78,
      "time": 43.562,
      "duration": 0.103,
      "velocity": 1,
      "hand": "right"
    },
    {
      "midi": 62,
      "time": 43.664,
      "duration": 0.205,
      "velocity": 1,
      "hand": "right"
    },
    {
      "midi": 76,
      "time": 43.664,
      "duration": 0.103,
      "velocity": 1,
      "hand": "right"
    },
    {
      "midi": 74,
      "time": 43.767,
      "duration": 0.103,
      "velocity": 1,
      "hand": "right"
    },
    {
      "midi": 54,
      "time": 43.87,
      "duration": 0.205,
      "velocity": 1,
      "hand": "left"
    },
    {
      "midi": 74,
      "time": 43.87,
      "duration": 0.051,
      "velocity": 1,
      "hand": "right"
    },
    {
      "midi": 78,
      "time": 43.87,
      "duration": 0.051,
      "velocity": 1,
      "hand": "right"
    },
    {
      "midi": 81,
      "time": 43.87,
      "duration": 0.051,
      "velocity": 1,
      "hand": "right"
    },
    {
      "midi": 84,
      "time": 43.87,
      "duration": 0.822,
      "velocity": 1,
      "hand": "right"
    },
    {
      "midi": 62,
      "time": 44.075,
      "duration": 0.205,
      "velocity": 1,
      "hand": "right"
    },
    {
      "midi": 50,
      "time": 44.281,
      "duration": 0.205,
      "velocity": 1,
      "hand": "left"
    },
    {
      "midi": 62,
      "time": 44.486,
      "duration": 0.205,
      "velocity": 1,
      "hand": "right"
    },
    {
      "midi": 55,
      "time": 44.692,
      "duration": 0.205,
      "velocity": 1,
      "hand": "left"
    },
    {
      "midi": 84,
      "time": 44.692,
      "duration": 0.103,
      "velocity": 1,
      "hand": "right"
    },
    {
      "midi": 83,
      "time": 44.795,
      "duration": 0.103,
      "velocity": 1,
      "hand": "right"
    },
    {
      "midi": 62,
      "time": 44.897,
      "duration": 0.205,
      "velocity": 1,
      "hand": "right"
    },
    {
      "midi": 81,
      "time": 44.897,
      "duration": 0.103,
      "velocity": 1,
      "hand": "right"
    },
    {
      "midi": 79,
      "time": 45,
      "duration": 0.103,
      "velocity": 1,
      "hand": "right"
    },
    {
      "midi": 57,
      "time": 45.103,
      "duration": 0.205,
      "velocity": 1,
      "hand": "left"
    },
    {
      "midi": 79,
      "time": 45.103,
      "duration": 0.103,
      "velocity": 1,
      "hand": "right"
    },
    {
      "midi": 78,
      "time": 45.205,
      "duration": 0.103,
      "velocity": 1,
      "hand": "right"
    },
    {
      "midi": 62,
      "time": 45.308,
      "duration": 0.205,
      "velocity": 1,
      "hand": "right"
    },
    {
      "midi": 76,
      "time": 45.308,
      "duration": 0.103,
      "velocity": 1,
      "hand": "right"
    },
    {
      "midi": 74,
      "time": 45.411,
      "duration": 0.103,
      "velocity": 1,
      "hand": "right"
    },
    {
      "midi": 54,
      "time": 45.514,
      "duration": 0.205,
      "velocity": 1,
      "hand": "left"
    },
    {
      "midi": 74,
      "time": 45.514,
      "duration": 0.051,
      "velocity": 1,
      "hand": "right"
    },
    {
      "midi": 78,
      "time": 45.514,
      "duration": 0.051,
      "velocity": 1,
      "hand": "right"
    },
    {
      "midi": 81,
      "time": 45.514,
      "duration": 0.051,
      "velocity": 1,
      "hand": "right"
    },
    {
      "midi": 84,
      "time": 45.514,
      "duration": 0.822,
      "velocity": 1,
      "hand": "right"
    },
    {
      "midi": 62,
      "time": 45.719,
      "duration": 0.205,
      "velocity": 1,
      "hand": "right"
    },
    {
      "midi": 50,
      "time": 45.925,
      "duration": 0.205,
      "velocity": 1,
      "hand": "left"
    },
    {
      "midi": 62,
      "time": 46.13,
      "duration": 0.205,
      "velocity": 1,
      "hand": "right"
    },
    {
      "midi": 55,
      "time": 46.336,
      "duration": 0.411,
      "velocity": 1,
      "hand": "left"
    },
    {
      "midi": 62,
      "time": 46.336,
      "duration": 0.411,
      "velocity": 1,
      "hand": "right"
    },
    {
      "midi": 83,
      "time": 46.336,
      "duration": 0.103,
      "velocity": 1,
      "hand": "right"
    },
    {
      "midi": 81,
      "time": 46.438,
      "duration": 0.103,
      "velocity": 1,
      "hand": "right"
    },
    {
      "midi": 84,
      "time": 46.541,
      "duration": 0.103,
      "velocity": 1,
      "hand": "right"
    },
    {
      "midi": 83,
      "time": 46.644,
      "duration": 0.103,
      "velocity": 1,
      "hand": "right"
    },
    {
      "midi": 86,
      "time": 46.747,
      "duration": 0.205,
      "velocity": 1,
      "hand": "right"
    },
    {
      "midi": 78,
      "time": 46.952,
      "duration": 0.205,
      "velocity": 1,
      "hand": "right"
    },
    {
      "midi": 59,
      "time": 47.158,
      "duration": 0.411,
      "velocity": 1,
      "hand": "left"
    },
    {
      "midi": 62,
      "time": 47.158,
      "duration": 0.411,
      "velocity": 1,
      "hand": "right"
    },
    {
      "midi": 79,
      "time": 47.158,
      "duration": 0.103,
      "velocity": 1,
      "hand": "right"
    },
    {
      "midi": 78,
      "time": 47.26,
      "duration": 0.103,
      "velocity": 1,
      "hand": "right"
    },
    {
      "midi": 81,
      "time": 47.363,
      "duration": 0.103,
      "velocity": 1,
      "hand": "right"
    },
    {
      "midi": 79,
      "time": 47.466,
      "duration": 0.103,
      "velocity": 1,
      "hand": "right"
    },
    {
      "midi": 83,
      "time": 47.568,
      "duration": 0.205,
      "velocity": 1,
      "hand": "right"
    },
    {
      "midi": 75,
      "time": 47.774,
      "duration": 0.205,
      "velocity": 1,
      "hand": "right"
    },
    {
      "midi": 60,
      "time": 47.979,
      "duration": 0.411,
      "velocity": 1,
      "hand": "right"
    },
    {
      "midi": 67,
      "time": 47.979,
      "duration": 0.411,
      "velocity": 1,
      "hand": "right"
    },
    {
      "midi": 76,
      "time": 47.979,
      "duration": 0.103,
      "velocity": 1,
      "hand": "right"
    },
    {
      "midi": 75,
      "time": 48.082,
      "duration": 0.103,
      "velocity": 1,
      "hand": "right"
    },
    {
      "midi": 78,
      "time": 48.185,
      "duration": 0.103,
      "velocity": 1,
      "hand": "right"
    },
    {
      "midi": 76,
      "time": 48.288,
      "duration": 0.103,
      "velocity": 1,
      "hand": "right"
    },
    {
      "midi": 79,
      "time": 48.39,
      "duration": 0.205,
      "velocity": 1,
      "hand": "right"
    },
    {
      "midi": 71,
      "time": 48.596,
      "duration": 0.205,
      "velocity": 1,
      "hand": "right"
    },
    {
      "midi": 64,
      "time": 48.801,
      "duration": 0.411,
      "velocity": 1,
      "hand": "right"
    },
    {
      "midi": 67,
      "time": 48.801,
      "duration": 0.411,
      "velocity": 1,
      "hand": "right"
    },
    {
      "midi": 72,
      "time": 48.801,
      "duration": 0.103,
      "velocity": 1,
      "hand": "right"
    },
    {
      "midi": 71,
      "time": 48.904,
      "duration": 0.103,
      "velocity": 1,
      "hand": "right"
    },
    {
      "midi": 74,
      "time": 49.007,
      "duration": 0.103,
      "velocity": 1,
      "hand": "right"
    },
    {
      "midi": 72,
      "time": 49.11,
      "duration": 0.103,
      "velocity": 1,
      "hand": "right"
    },
    {
      "midi": 76,
      "time": 49.212,
      "duration": 0.205,
      "velocity": 1,
      "hand": "right"
    },
    {
      "midi": 68,
      "time": 49.418,
      "duration": 0.205,
      "velocity": 1,
      "hand": "right"
    },
    {
      "midi": 57,
      "time": 49.623,
      "duration": 0.308,
      "velocity": 1,
      "hand": "left"
    },
    {
      "midi": 69,
      "time": 49.623,
      "duration": 0.308,
      "velocity": 1,
      "hand": "right"
    },
    {
      "midi": 59,
      "time": 49.932,
      "duration": 0.103,
      "velocity": 1,
      "hand": "left"
    },
    {
      "midi": 71,
      "time": 49.932,
      "duration": 0.103,
      "velocity": 1,
      "hand": "right"
    },
    {
      "midi": 60,
      "time": 50.034,
      "duration": 0.308,
      "velocity": 1,
      "hand": "right"
    },
    {
      "midi": 72,
      "time": 50.034,
      "duration": 0.308,
      "velocity": 1,
      "hand": "right"
    },
    {
      "midi": 59,
      "time": 50.342,
      "duration": 0.103,
      "velocity": 1,
      "hand": "left"
    },
    {
      "midi": 71,
      "time": 50.342,
      "duration": 0.103,
      "velocity": 1,
      "hand": "right"
    },
    {
      "midi": 57,
      "time": 50.445,
      "duration": 0.308,
      "velocity": 1,
      "hand": "left"
    },
    {
      "midi": 69,
      "time": 50.445,
      "duration": 0.308,
      "velocity": 1,
      "hand": "right"
    },
    {
      "midi": 55,
      "time": 50.753,
      "duration": 0.103,
      "velocity": 1,
      "hand": "left"
    },
    {
      "midi": 67,
      "time": 50.753,
      "duration": 0.103,
      "velocity": 1,
      "hand": "right"
    },
    {
      "midi": 54,
      "time": 50.856,
      "duration": 0.308,
      "velocity": 1,
      "hand": "left"
    },
    {
      "midi": 66,
      "time": 50.856,
      "duration": 0.308,
      "velocity": 1,
      "hand": "right"
    },
    {
      "midi": 52,
      "time": 51.164,
      "duration": 0.103,
      "velocity": 1,
      "hand": "left"
    },
    {
      "midi": 64,
      "time": 51.164,
      "duration": 0.103,
      "velocity": 1,
      "hand": "right"
    },
    {
      "midi": 50,
      "time": 51.267,
      "duration": 0.205,
      "velocity": 1,
      "hand": "left"
    },
    {
      "midi": 62,
      "time": 51.267,
      "duration": 0.205,
      "velocity": 1,
      "hand": "right"
    },
    {
      "midi": 54,
      "time": 51.473,
      "duration": 0.103,
      "velocity": 1,
      "hand": "left"
    },
    {
      "midi": 66,
      "time": 51.473,
      "duration": 0.103,
      "velocity": 1,
      "hand": "right"
    },
    {
      "midi": 57,
      "time": 51.575,
      "duration": 0.103,
      "velocity": 1,
      "hand": "left"
    },
    {
      "midi": 69,
      "time": 51.575,
      "duration": 0.103,
      "velocity": 1,
      "hand": "right"
    },
    {
      "midi": 62,
      "time": 51.678,
      "duration": 0.205,
      "velocity": 1,
      "hand": "right"
    },
    {
      "midi": 74,
      "time": 51.678,
      "duration": 0.205,
      "velocity": 1,
      "hand": "right"
    },
    {
      "midi": 62,
      "time": 51.884,
      "duration": 0.205,
      "velocity": 1,
      "hand": "right"
    },
    {
      "midi": 74,
      "time": 51.884,
      "duration": 0.205,
      "velocity": 1,
      "hand": "right"
    },
    {
      "midi": 62,
      "time": 52.089,
      "duration": 0.411,
      "velocity": 1,
      "hand": "right"
    },
    {
      "midi": 74,
      "time": 52.089,
      "duration": 0.411,
      "velocity": 1,
      "hand": "right"
    },
    {
      "midi": 61,
      "time": 52.911,
      "duration": 0.205,
      "velocity": 1,
      "hand": "right"
    },
    {
      "midi": 62,
      "time": 53.116,
      "duration": 0.205,
      "velocity": 1,
      "hand": "right"
    },
    {
      "midi": 61,
      "time": 53.322,
      "duration": 0.205,
      "velocity": 1,
      "hand": "right"
    },
    {
      "midi": 62,
      "time": 53.527,
      "duration": 0.205,
      "velocity": 1,
      "hand": "right"
    },
    {
      "midi": 61,
      "time": 53.733,
      "duration": 0.205,
      "velocity": 1,
      "hand": "right"
    },
    {
      "midi": 62,
      "time": 53.938,
      "duration": 0.205,
      "velocity": 1,
      "hand": "right"
    },
    {
      "midi": 61,
      "time": 54.144,
      "duration": 0.205,
      "velocity": 1,
      "hand": "right"
    },
    {
      "midi": 62,
      "time": 54.349,
      "duration": 0.205,
      "velocity": 1,
      "hand": "right"
    },
    {
      "midi": 60,
      "time": 54.555,
      "duration": 0.205,
      "velocity": 1,
      "hand": "right"
    },
    {
      "midi": 62,
      "time": 54.76,
      "duration": 0.205,
      "velocity": 1,
      "hand": "right"
    },
    {
      "midi": 59,
      "time": 54.966,
      "duration": 0.205,
      "velocity": 1,
      "hand": "left"
    },
    {
      "midi": 62,
      "time": 55.171,
      "duration": 0.205,
      "velocity": 1,
      "hand": "right"
    },
    {
      "midi": 60,
      "time": 55.377,
      "duration": 0.205,
      "velocity": 1,
      "hand": "right"
    },
    {
      "midi": 62,
      "time": 55.582,
      "duration": 0.205,
      "velocity": 1,
      "hand": "right"
    },
    {
      "midi": 57,
      "time": 55.788,
      "duration": 0.205,
      "velocity": 1,
      "hand": "left"
    },
    {
      "midi": 62,
      "time": 55.993,
      "duration": 0.205,
      "velocity": 1,
      "hand": "right"
    },
    {
      "midi": 55,
      "time": 56.199,
      "duration": 0.205,
      "velocity": 1,
      "hand": "left"
    },
    {
      "midi": 83,
      "time": 56.199,
      "duration": 0.205,
      "velocity": 1,
      "hand": "right"
    },
    {
      "midi": 62,
      "time": 56.404,
      "duration": 0.205,
      "velocity": 1,
      "hand": "right"
    },
    {
      "midi": 84,
      "time": 56.404,
      "duration": 0.205,
      "velocity": 1,
      "hand": "right"
    },
    {
      "midi": 55,
      "time": 56.61,
      "duration": 0.205,
      "velocity": 1,
      "hand": "left"
    },
    {
      "midi": 86,
      "time": 56.61,
      "duration": 0.205,
      "velocity": 1,
      "hand": "right"
    },
    {
      "midi": 62,
      "time": 56.815,
      "duration": 0.205,
      "velocity": 1,
      "hand": "right"
    },
    {
      "midi": 83,
      "time": 56.815,
      "duration": 0.205,
      "velocity": 1,
      "hand": "right"
    },
    {
      "midi": 59,
      "time": 57.021,
      "duration": 0.205,
      "velocity": 1,
      "hand": "left"
    },
    {
      "midi": 79,
      "time": 57.021,
      "duration": 0.822,
      "velocity": 1,
      "hand": "right"
    },
    {
      "midi": 62,
      "time": 57.226,
      "duration": 0.205,
      "velocity": 1,
      "hand": "right"
    },
    {
      "midi": 59,
      "time": 57.432,
      "duration": 0.205,
      "velocity": 1,
      "hand": "left"
    },
    {
      "midi": 62,
      "time": 57.637,
      "duration": 0.205,
      "velocity": 1,
      "hand": "right"
    },
    {
      "midi": 60,
      "time": 57.842,
      "duration": 0.205,
      "velocity": 1,
      "hand": "right"
    },
    {
      "midi": 81,
      "time": 57.842,
      "duration": 0.205,
      "velocity": 1,
      "hand": "right"
    },
    {
      "midi": 62,
      "time": 58.048,
      "duration": 0.205,
      "velocity": 1,
      "hand": "right"
    },
    {
      "midi": 83,
      "time": 58.048,
      "duration": 0.205,
      "velocity": 1,
      "hand": "right"
    },
    {
      "midi": 60,
      "time": 58.253,
      "duration": 0.205,
      "velocity": 1,
      "hand": "right"
    },
    {
      "midi": 84,
      "time": 58.253,
      "duration": 0.205,
      "velocity": 1,
      "hand": "right"
    },
    {
      "midi": 62,
      "time": 58.459,
      "duration": 0.205,
      "velocity": 1,
      "hand": "right"
    },
    {
      "midi": 81,
      "time": 58.459,
      "duration": 0.205,
      "velocity": 1,
      "hand": "right"
    },
    {
      "midi": 57,
      "time": 58.664,
      "duration": 0.205,
      "velocity": 1,
      "hand": "left"
    },
    {
      "midi": 78,
      "time": 58.664,
      "duration": 0.822,
      "velocity": 1,
      "hand": "right"
    },
    {
      "midi": 62,
      "time": 58.87,
      "duration": 0.205,
      "velocity": 1,
      "hand": "right"
    },
    {
      "midi": 57,
      "time": 59.075,
      "duration": 0.205,
      "velocity": 1,
      "hand": "left"
    },
    {
      "midi": 62,
      "time": 59.281,
      "duration": 0.205,
      "velocity": 1,
      "hand": "right"
    },
    {
      "midi": 59,
      "time": 59.486,
      "duration": 0.205,
      "velocity": 1,
      "hand": "left"
    },
    {
      "midi": 79,
      "time": 59.486,
      "duration": 0.103,
      "velocity": 1,
      "hand": "right"
    },
    {
      "midi": 78,
      "time": 59.589,
      "duration": 0.205,
      "velocity": 1,
      "hand": "right"
    },
    {
      "midi": 62,
      "time": 59.692,
      "duration": 0.205,
      "velocity": 1,
      "hand": "right"
    },
    {
      "midi": 55,
      "time": 59.897,
      "duration": 0.205,
      "velocity": 1,
      "hand": "left"
    },
    {
      "midi": 76,
      "time": 59.897,
      "duration": 0.103,
      "velocity": 1,
      "hand": "right"
    },
    {
      "midi": 74,
      "time": 60,
      "duration": 0.205,
      "velocity": 1,
      "hand": "right"
    },
    {
      "midi": 62,
      "time": 60.103,
      "duration": 0.205,
      "velocity": 1,
      "hand": "right"
    },
    {
      "midi": 57,
      "time": 60.308,
      "duration": 0.205,
      "velocity": 1,
      "hand": "left"
    },
    {
      "midi": 71,
      "time": 60.308,
      "duration": 0.103,
      "velocity": 1,
      "hand": "right"
    },
    {
      "midi": 72,
      "time": 60.411,
      "duration": 0.205,
      "velocity": 1,
      "hand": "right"
    },
    {
      "midi": 62,
      "time": 60.514,
      "duration": 0.205,
      "velocity": 1,
      "hand": "right"
    },
    {
      "midi": 54,
      "time": 60.719,
      "duration": 0.205,
      "velocity": 1,
      "hand": "left"
    },
    {
      "midi": 62,
      "time": 60.925,
      "duration": 0.205,
      "velocity": 1,
      "hand": "right"
    },
    {
      "midi": 55,
      "time": 61.13,
      "duration": 0.205,
      "velocity": 1,
      "hand": "left"
    },
    {
      "midi": 72,
      "time": 61.13,
      "duration": 0.103,
      "velocity": 1,
      "hand": "right"
    },
    {
      "midi": 71,
      "time": 61.233,
      "duration": 0.205,
      "velocity": 1,
      "hand": "right"
    },
    {
      "midi": 62,
      "time": 61.336,
      "duration": 0.205,
      "velocity": 1,
      "hand": "right"
    },
    {
      "midi": 52,
      "time": 61.541,
      "duration": 0.205,
      "velocity": 1,
      "hand": "left"
    },
    {
      "midi": 69,
      "time": 61.541,
      "duration": 0.103,
      "velocity": 1,
      "hand": "right"
    },
    {
      "midi": 67,
      "time": 61.644,
      "duration": 0.205,
      "velocity": 1,
      "hand": "right"
    },
    {
      "midi": 61,
      "time": 61.747,
      "duration": 0.205,
      "velocity": 1,
      "hand": "right"
    },
    {
      "midi": 50,
      "time": 61.952,
      "duration": 0.205,
      "velocity": 1,
      "hand": "left"
    },
    {
      "midi": 71,
      "time": 61.952,
      "duration": 0.103,
      "velocity": 1,
      "hand": "right"
    },
    {
      "midi": 69,
      "time": 62.055,
      "duration": 0.205,
      "velocity": 1,
      "hand": "right"
    },
    {
      "midi": 62,
      "time": 62.158,
      "duration": 0.205,
      "velocity": 1,
      "hand": "right"
    },
    {
      "midi": 60,
      "time": 62.363,
      "duration": 0.205,
      "velocity": 1,
      "hand": "right"
    },
    {
      "midi": 57,
      "time": 62.568,
      "duration": 0.205,
      "velocity": 1,
      "hand": "left"
    },
    {
      "midi": 55,
      "time": 62.774,
      "duration": 0.205,
      "velocity": 1,
      "hand": "left"
    },
    {
      "midi": 83,
      "time": 62.774,
      "duration": 0.205,
      "velocity": 1,
      "hand": "right"
    },
    {
      "midi": 62,
      "time": 62.979,
      "duration": 0.205,
      "velocity": 1,
      "hand": "right"
    },
    {
      "midi": 84,
      "time": 62.979,
      "duration": 0.205,
      "velocity": 1,
      "hand": "right"
    },
    {
      "midi": 55,
      "time": 63.185,
      "duration": 0.205,
      "velocity": 1,
      "hand": "left"
    },
    {
      "midi": 86,
      "time": 63.185,
      "duration": 0.205,
      "velocity": 1,
      "hand": "right"
    },
    {
      "midi": 62,
      "time": 63.39,
      "duration": 0.205,
      "velocity": 1,
      "hand": "right"
    },
    {
      "midi": 83,
      "time": 63.39,
      "duration": 0.205,
      "velocity": 1,
      "hand": "right"
    },
    {
      "midi": 59,
      "time": 63.596,
      "duration": 0.205,
      "velocity": 1,
      "hand": "left"
    },
    {
      "midi": 79,
      "time": 63.596,
      "duration": 0.822,
      "velocity": 1,
      "hand": "right"
    },
    {
      "midi": 62,
      "time": 63.801,
      "duration": 0.205,
      "velocity": 1,
      "hand": "right"
    },
    {
      "midi": 59,
      "time": 64.007,
      "duration": 0.205,
      "velocity": 1,
      "hand": "left"
    },
    {
      "midi": 62,
      "time": 64.212,
      "duration": 0.205,
      "velocity": 1,
      "hand": "right"
    },
    {
      "midi": 60,
      "time": 64.418,
      "duration": 0.205,
      "velocity": 1,
      "hand": "right"
    },
    {
      "midi": 81,
      "time": 64.418,
      "duration": 0.205,
      "velocity": 1,
      "hand": "right"
    },
    {
      "midi": 62,
      "time": 64.623,
      "duration": 0.205,
      "velocity": 1,
      "hand": "right"
    },
    {
      "midi": 83,
      "time": 64.623,
      "duration": 0.205,
      "velocity": 1,
      "hand": "right"
    },
    {
      "midi": 60,
      "time": 64.829,
      "duration": 0.205,
      "velocity": 1,
      "hand": "right"
    },
    {
      "midi": 84,
      "time": 64.829,
      "duration": 0.205,
      "velocity": 1,
      "hand": "right"
    },
    {
      "midi": 62,
      "time": 65.034,
      "duration": 0.205,
      "velocity": 1,
      "hand": "right"
    },
    {
      "midi": 81,
      "time": 65.034,
      "duration": 0.205,
      "velocity": 1,
      "hand": "right"
    },
    {
      "midi": 57,
      "time": 65.24,
      "duration": 0.205,
      "velocity": 1,
      "hand": "left"
    },
    {
      "midi": 78,
      "time": 65.24,
      "duration": 0.822,
      "velocity": 1,
      "hand": "right"
    },
    {
      "midi": 62,
      "time": 65.445,
      "duration": 0.205,
      "velocity": 1,
      "hand": "right"
    },
    {
      "midi": 57,
      "time": 65.651,
      "duration": 0.205,
      "velocity": 1,
      "hand": "left"
    },
    {
      "midi": 62,
      "time": 65.856,
      "duration": 0.205,
      "velocity": 1,
      "hand": "right"
    },
    {
      "midi": 59,
      "time": 66.062,
      "duration": 0.205,
      "velocity": 1,
      "hand": "left"
    },
    {
      "midi": 79,
      "time": 66.062,
      "duration": 0.103,
      "velocity": 1,
      "hand": "right"
    },
    {
      "midi": 78,
      "time": 66.164,
      "duration": 0.205,
      "velocity": 1,
      "hand": "right"
    },
    {
      "midi": 62,
      "time": 66.267,
      "duration": 0.205,
      "velocity": 1,
      "hand": "right"
    },
    {
      "midi": 55,
      "time": 66.473,
      "duration": 0.205,
      "velocity": 1,
      "hand": "left"
    },
    {
      "midi": 76,
      "time": 66.473,
      "duration": 0.103,
      "velocity": 1,
      "hand": "right"
    },
    {
      "midi": 74,
      "time": 66.575,
      "duration": 0.205,
      "velocity": 1,
      "hand": "right"
    },
    {
      "midi": 62,
      "time": 66.678,
      "duration": 0.205,
      "velocity": 1,
      "hand": "right"
    },
    {
      "midi": 57,
      "time": 66.884,
      "duration": 0.205,
      "velocity": 1,
      "hand": "left"
    },
    {
      "midi": 71,
      "time": 66.884,
      "duration": 0.103,
      "velocity": 1,
      "hand": "right"
    },
    {
      "midi": 72,
      "time": 66.986,
      "duration": 0.205,
      "velocity": 1,
      "hand": "right"
    },
    {
      "midi": 62,
      "time": 67.089,
      "duration": 0.205,
      "velocity": 1,
      "hand": "right"
    },
    {
      "midi": 54,
      "time": 67.295,
      "duration": 0.205,
      "velocity": 1,
      "hand": "left"
    },
    {
      "midi": 62,
      "time": 67.5,
      "duration": 0.205,
      "velocity": 1,
      "hand": "right"
    },
    {
      "midi": 55,
      "time": 67.705,
      "duration": 0.205,
      "velocity": 1,
      "hand": "left"
    },
    {
      "midi": 72,
      "time": 67.705,
      "duration": 0.103,
      "velocity": 1,
      "hand": "right"
    },
    {
      "midi": 71,
      "time": 67.808,
      "duration": 0.205,
      "velocity": 1,
      "hand": "right"
    },
    {
      "midi": 62,
      "time": 67.911,
      "duration": 0.205,
      "velocity": 1,
      "hand": "right"
    },
    {
      "midi": 52,
      "time": 68.116,
      "duration": 0.205,
      "velocity": 1,
      "hand": "left"
    },
    {
      "midi": 69,
      "time": 68.116,
      "duration": 0.103,
      "velocity": 1,
      "hand": "right"
    },
    {
      "midi": 67,
      "time": 68.219,
      "duration": 0.205,
      "velocity": 1,
      "hand": "right"
    },
    {
      "midi": 61,
      "time": 68.322,
      "duration": 0.205,
      "velocity": 1,
      "hand": "right"
    },
    {
      "midi": 50,
      "time": 68.527,
      "duration": 0.205,
      "velocity": 1,
      "hand": "left"
    },
    {
      "midi": 76,
      "time": 68.527,
      "duration": 0.103,
      "velocity": 1,
      "hand": "right"
    },
    {
      "midi": 74,
      "time": 68.63,
      "duration": 0.205,
      "velocity": 1,
      "hand": "right"
    },
    {
      "midi": 62,
      "time": 68.733,
      "duration": 0.205,
      "velocity": 1,
      "hand": "right"
    },
    {
      "midi": 48,
      "time": 68.938,
      "duration": 0.205,
      "velocity": 1,
      "hand": "left"
    },
    {
      "midi": 60,
      "time": 69.144,
      "duration": 0.205,
      "velocity": 1,
      "hand": "right"
    },
    {
      "midi": 47,
      "time": 69.349,
      "duration": 0.103,
      "velocity": 1,
      "hand": "left"
    },
    {
      "midi": 74,
      "time": 69.349,
      "duration": 0.822,
      "velocity": 1,
      "hand": "right"
    },
    {
      "midi": 86,
      "time": 69.349,
      "duration": 0.822,
      "velocity": 1,
      "hand": "right"
    },
    {
      "midi": 55,
      "time": 69.452,
      "duration": 0.103,
      "velocity": 1,
      "hand": "left"
    },
    {
      "midi": 54,
      "time": 69.555,
      "duration": 0.103,
      "velocity": 1,
      "hand": "left"
    },
    {
      "midi": 55,
      "time": 69.658,
      "duration": 0.103,
      "velocity": 1,
      "hand": "left"
    },
    {
      "midi": 57,
      "time": 69.76,
      "duration": 0.103,
      "velocity": 1,
      "hand": "left"
    },
    {
      "midi": 55,
      "time": 69.863,
      "duration": 0.103,
      "velocity": 1,
      "hand": "left"
    },
    {
      "midi": 54,
      "time": 69.966,
      "duration": 0.103,
      "velocity": 1,
      "hand": "left"
    },
    {
      "midi": 55,
      "time": 70.068,
      "duration": 0.103,
      "velocity": 1,
      "hand": "left"
    },
    {
      "midi": 47,
      "time": 70.171,
      "duration": 0.411,
      "velocity": 1,
      "hand": "left"
    },
    {
      "midi": 84,
      "time": 70.171,
      "duration": 0.205,
      "velocity": 1,
      "hand": "right"
    },
    {
      "midi": 83,
      "time": 70.377,
      "duration": 0.205,
      "velocity": 1,
      "hand": "right"
    },
    {
      "midi": 81,
      "time": 70.582,
      "duration": 0.205,
      "velocity": 1,
      "hand": "right"
    },
    {
      "midi": 79,
      "time": 70.788,
      "duration": 0.205,
      "velocity": 1,
      "hand": "right"
    },
    {
      "midi": 48,
      "time": 70.993,
      "duration": 0.103,
      "velocity": 1,
      "hand": "left"
    },
    {
      "midi": 76,
      "time": 70.993,
      "duration": 0.822,
      "velocity": 1,
      "hand": "right"
    },
    {
      "midi": 88,
      "time": 70.993,
      "duration": 0.822,
      "velocity": 1,
      "hand": "right"
    },
    {
      "midi": 55,
      "time": 71.096,
      "duration": 0.103,
      "velocity": 1,
      "hand": "left"
    },
    {
      "midi": 54,
      "time": 71.199,
      "duration": 0.103,
      "velocity": 1,
      "hand": "left"
    },
    {
      "midi": 55,
      "time": 71.301,
      "duration": 0.103,
      "velocity": 1,
      "hand": "left"
    },
    {
      "midi": 57,
      "time": 71.404,
      "duration": 0.103,
      "velocity": 1,
      "hand": "left"
    },
    {
      "midi": 55,
      "time": 71.507,
      "duration": 0.103,
      "velocity": 1,
      "hand": "left"
    },
    {
      "midi": 54,
      "time": 71.61,
      "duration": 0.103,
      "velocity": 1,
      "hand": "left"
    },
    {
      "midi": 55,
      "time": 71.712,
      "duration": 0.103,
      "velocity": 1,
      "hand": "left"
    },
    {
      "midi": 48,
      "time": 71.815,
      "duration": 0.411,
      "velocity": 1,
      "hand": "left"
    },
    {
      "midi": 86,
      "time": 71.815,
      "duration": 0.205,
      "velocity": 1,
      "hand": "right"
    },
    {
      "midi": 84,
      "time": 72.021,
      "duration": 0.205,
      "velocity": 1,
      "hand": "right"
    },
    {
      "midi": 83,
      "time": 72.226,
      "duration": 0.205,
      "velocity": 1,
      "hand": "right"
    },
    {
      "midi": 81,
      "time": 72.432,
      "duration": 0.205,
      "velocity": 1,
      "hand": "right"
    },
    {
      "midi": 50,
      "time": 72.637,
      "duration": 0.205,
      "velocity": 1,
      "hand": "left"
    },
    {
      "midi": 83,
      "time": 72.637,
      "duration": 0.103,
      "velocity": 1,
      "hand": "right"
    },
    {
      "midi": 84,
      "time": 72.74,
      "duration": 0.103,
      "velocity": 1,
      "hand": "right"
    },
    {
      "midi": 55,
      "time": 72.842,
      "duration": 0.205,
      "velocity": 1,
      "hand": "left"
    },
    {
      "midi": 86,
      "time": 72.842,
      "duration": 0.103,
      "velocity": 1,
      "hand": "right"
    },
    {
      "midi": 83,
      "time": 72.945,
      "duration": 0.103,
      "velocity": 1,
      "hand": "right"
    },
    {
      "midi": 59,
      "time": 73.048,
      "duration": 0.205,
      "velocity": 1,
      "hand": "left"
    },
    {
      "midi": 79,
      "time": 73.048,
      "duration": 0.205,
      "velocity": 1,
      "hand": "right"
    },
    {
      "midi": 55,
      "time": 73.253,
      "duration": 0.205,
      "velocity": 1,
      "hand": "left"
    },
    {
      "midi": 50,
      "time": 73.459,
      "duration": 0.205,
      "velocity": 1,
      "hand": "left"
    },
    {
      "midi": 81,
      "time": 73.459,
      "duration": 0.103,
      "velocity": 1,
      "hand": "right"
    },
    {
      "midi": 83,
      "time": 73.562,
      "duration": 0.103,
      "velocity": 1,
      "hand": "right"
    },
    {
      "midi": 57,
      "time": 73.664,
      "duration": 0.205,
      "velocity": 1,
      "hand": "left"
    },
    {
      "midi": 84,
      "time": 73.664,
      "duration": 0.103,
      "velocity": 1,
      "hand": "right"
    },
    {
      "midi": 81,
      "time": 73.767,
      "duration": 0.103,
      "velocity": 1,
      "hand": "right"
    },
    {
      "midi": 60,
      "time": 73.87,
      "duration": 0.205,
      "velocity": 1,
      "hand": "right"
    },
    {
      "midi": 78,
      "time": 73.87,
      "duration": 0.205,
      "velocity": 1,
      "hand": "right"
    },
    {
      "midi": 57,
      "time": 74.075,
      "duration": 0.205,
      "velocity": 1,
      "hand": "left"
    },
    {
      "midi": 47,
      "time": 74.281,
      "duration": 0.103,
      "velocity": 1,
      "hand": "left"
    },
    {
      "midi": 74,
      "time": 74.281,
      "duration": 0.822,
      "velocity": 1,
      "hand": "right"
    },
    {
      "midi": 86,
      "time": 74.281,
      "duration": 0.822,
      "velocity": 1,
      "hand": "right"
    },
    {
      "midi": 55,
      "time": 74.384,
      "duration": 0.103,
      "velocity": 1,
      "hand": "left"
    },
    {
      "midi": 54,
      "time": 74.486,
      "duration": 0.103,
      "velocity": 1,
      "hand": "left"
    },
    {
      "midi": 55,
      "time": 74.589,
      "duration": 0.103,
      "velocity": 1,
      "hand": "left"
    },
    {
      "midi": 57,
      "time": 74.692,
      "duration": 0.103,
      "velocity": 1,
      "hand": "left"
    },
    {
      "midi": 55,
      "time": 74.795,
      "duration": 0.103,
      "velocity": 1,
      "hand": "left"
    },
    {
      "midi": 54,
      "time": 74.897,
      "duration": 0.103,
      "velocity": 1,
      "hand": "left"
    },
    {
      "midi": 55,
      "time": 75,
      "duration": 0.103,
      "velocity": 1,
      "hand": "left"
    },
    {
      "midi": 47,
      "time": 75.103,
      "duration": 0.411,
      "velocity": 1,
      "hand": "left"
    },
    {
      "midi": 84,
      "time": 75.103,
      "duration": 0.103,
      "velocity": 1,
      "hand": "right"
    },
    {
      "midi": 86,
      "time": 75.205,
      "duration": 0.103,
      "velocity": 1,
      "hand": "right"
    },
    {
      "midi": 84,
      "time": 75.308,
      "duration": 0.103,
      "velocity": 1,
      "hand": "right"
    },
    {
      "midi": 83,
      "time": 75.411,
      "duration": 0.103,
      "velocity": 1,
      "hand": "right"
    },
    {
      "midi": 81,
      "time": 75.514,
      "duration": 0.103,
      "velocity": 1,
      "hand": "right"
    },
    {
      "midi": 83,
      "time": 75.616,
      "duration": 0.103,
      "velocity": 1,
      "hand": "right"
    },
    {
      "midi": 81,
      "time": 75.719,
      "duration": 0.103,
      "velocity": 1,
      "hand": "right"
    },
    {
      "midi": 79,
      "time": 75.822,
      "duration": 0.103,
      "velocity": 1,
      "hand": "right"
    },
    {
      "midi": 48,
      "time": 75.925,
      "duration": 0.103,
      "velocity": 1,
      "hand": "left"
    },
    {
      "midi": 76,
      "time": 75.925,
      "duration": 0.822,
      "velocity": 1,
      "hand": "right"
    },
    {
      "midi": 88,
      "time": 75.925,
      "duration": 0.822,
      "velocity": 1,
      "hand": "right"
    },
    {
      "midi": 55,
      "time": 76.027,
      "duration": 0.103,
      "velocity": 1,
      "hand": "left"
    },
    {
      "midi": 54,
      "time": 76.13,
      "duration": 0.103,
      "velocity": 1,
      "hand": "left"
    },
    {
      "midi": 55,
      "time": 76.233,
      "duration": 0.103,
      "velocity": 1,
      "hand": "left"
    },
    {
      "midi": 57,
      "time": 76.336,
      "duration": 0.103,
      "velocity": 1,
      "hand": "left"
    },
    {
      "midi": 55,
      "time": 76.438,
      "duration": 0.103,
      "velocity": 1,
      "hand": "left"
    },
    {
      "midi": 54,
      "time": 76.541,
      "duration": 0.103,
      "velocity": 1,
      "hand": "left"
    },
    {
      "midi": 55,
      "time": 76.644,
      "duration": 0.103,
      "velocity": 1,
      "hand": "left"
    },
    {
      "midi": 48,
      "time": 76.747,
      "duration": 0.411,
      "velocity": 1,
      "hand": "left"
    },
    {
      "midi": 86,
      "time": 76.747,
      "duration": 0.103,
      "velocity": 1,
      "hand": "right"
    },
    {
      "midi": 88,
      "time": 76.849,
      "duration": 0.103,
      "velocity": 1,
      "hand": "right"
    },
    {
      "midi": 86,
      "time": 76.952,
      "duration": 0.103,
      "velocity": 1,
      "hand": "right"
    },
    {
      "midi": 84,
      "time": 77.055,
      "duration": 0.103,
      "velocity": 1,
      "hand": "right"
    },
    {
      "midi": 83,
      "time": 77.158,
      "duration": 0.103,
      "velocity": 1,
      "hand": "right"
    },
    {
      "midi": 84,
      "time": 77.26,
      "duration": 0.103,
      "velocity": 1,
      "hand": "right"
    },
    {
      "midi": 83,
      "time": 77.363,
      "duration": 0.103,
      "velocity": 1,
      "hand": "right"
    },
    {
      "midi": 81,
      "time": 77.466,
      "duration": 0.103,
      "velocity": 1,
      "hand": "right"
    },
    {
      "midi": 62,
      "time": 77.568,
      "duration": 0.205,
      "velocity": 1,
      "hand": "right"
    },
    {
      "midi": 83,
      "time": 77.568,
      "duration": 0.205,
      "velocity": 1,
      "hand": "right"
    },
    {
      "midi": 67,
      "time": 77.774,
      "duration": 0.205,
      "velocity": 1,
      "hand": "right"
    },
    {
      "midi": 79,
      "time": 77.774,
      "duration": 0.205,
      "velocity": 1,
      "hand": "right"
    },
    {
      "midi": 64,
      "time": 77.979,
      "duration": 0.205,
      "velocity": 1,
      "hand": "right"
    },
    {
      "midi": 84,
      "time": 77.979,
      "duration": 0.411,
      "velocity": 1,
      "hand": "right"
    },
    {
      "midi": 67,
      "time": 78.185,
      "duration": 0.205,
      "velocity": 1,
      "hand": "right"
    },
    {
      "midi": 62,
      "time": 78.39,
      "duration": 0.205,
      "velocity": 1,
      "hand": "right"
    },
    {
      "midi": 83,
      "time": 78.39,
      "duration": 0.205,
      "velocity": 1,
      "hand": "right"
    },
    {
      "midi": 67,
      "time": 78.596,
      "duration": 0.205,
      "velocity": 1,
      "hand": "right"
    },
    {
      "midi": 79,
      "time": 78.596,
      "duration": 0.205,
      "velocity": 1,
      "hand": "right"
    },
    {
      "midi": 60,
      "time": 78.801,
      "duration": 0.205,
      "velocity": 1,
      "hand": "right"
    },
    {
      "midi": 88,
      "time": 78.801,
      "duration": 0.411,
      "velocity": 1,
      "hand": "right"
    },
    {
      "midi": 67,
      "time": 79.007,
      "duration": 0.205,
      "velocity": 1,
      "hand": "right"
    },
    {
      "midi": 59,
      "time": 79.212,
      "duration": 0.205,
      "velocity": 1,
      "hand": "left"
    },
    {
      "midi": 86,
      "time": 79.212,
      "duration": 0.205,
      "velocity": 1,
      "hand": "right"
    },
    {
      "midi": 67,
      "time": 79.418,
      "duration": 0.205,
      "velocity": 1,
      "hand": "right"
    },
    {
      "midi": 79,
      "time": 79.418,
      "duration": 0.205,
      "velocity": 1,
      "hand": "right"
    },
    {
      "midi": 64,
      "time": 79.623,
      "duration": 0.205,
      "velocity": 1,
      "hand": "right"
    },
    {
      "midi": 84,
      "time": 79.623,
      "duration": 0.411,
      "velocity": 1,
      "hand": "right"
    },
    {
      "midi": 67,
      "time": 79.829,
      "duration": 0.205,
      "velocity": 1,
      "hand": "right"
    },
    {
      "midi": 62,
      "time": 80.034,
      "duration": 0.205,
      "velocity": 1,
      "hand": "right"
    },
    {
      "midi": 83,
      "time": 80.034,
      "duration": 0.205,
      "velocity": 1,
      "hand": "right"
    },
    {
      "midi": 67,
      "time": 80.24,
      "duration": 0.205,
      "velocity": 1,
      "hand": "right"
    },
    {
      "midi": 79,
      "time": 80.24,
      "duration": 0.205,
      "velocity": 1,
      "hand": "right"
    },
    {
      "midi": 60,
      "time": 80.445,
      "duration": 0.205,
      "velocity": 1,
      "hand": "right"
    },
    {
      "midi": 88,
      "time": 80.445,
      "duration": 0.411,
      "velocity": 1,
      "hand": "right"
    },
    {
      "midi": 67,
      "time": 80.651,
      "duration": 0.205,
      "velocity": 1,
      "hand": "right"
    },
    {
      "midi": 59,
      "time": 80.856,
      "duration": 0.205,
      "velocity": 1,
      "hand": "left"
    },
    {
      "midi": 62,
      "time": 80.856,
      "duration": 0.205,
      "velocity": 1,
      "hand": "right"
    },
    {
      "midi": 68,
      "time": 80.856,
      "duration": 0.205,
      "velocity": 1,
      "hand": "right"
    },
    {
      "midi": 77,
      "time": 80.856,
      "duration": 0.822,
      "velocity": 1,
      "hand": "right"
    },
    {
      "midi": 89,
      "time": 80.856,
      "duration": 0.822,
      "velocity": 1,
      "hand": "right"
    },
    {
      "midi": 59,
      "time": 81.062,
      "duration": 0.205,
      "velocity": 1,
      "hand": "left"
    },
    {
      "midi": 62,
      "time": 81.062,
      "duration": 0.205,
      "velocity": 1,
      "hand": "right"
    },
    {
      "midi": 68,
      "time": 81.062,
      "duration": 0.205,
      "velocity": 1,
      "hand": "right"
    },
    {
      "midi": 59,
      "time": 81.267,
      "duration": 0.205,
      "velocity": 1,
      "hand": "left"
    },
    {
      "midi": 62,
      "time": 81.267,
      "duration": 0.205,
      "velocity": 1,
      "hand": "right"
    },
    {
      "midi": 68,
      "time": 81.267,
      "duration": 0.205,
      "velocity": 1,
      "hand": "right"
    },
    {
      "midi": 59,
      "time": 81.473,
      "duration": 0.205,
      "velocity": 1,
      "hand": "left"
    },
    {
      "midi": 62,
      "time": 81.473,
      "duration": 0.205,
      "velocity": 1,
      "hand": "right"
    },
    {
      "midi": 68,
      "time": 81.473,
      "duration": 0.205,
      "velocity": 1,
      "hand": "right"
    },
    {
      "midi": 59,
      "time": 81.678,
      "duration": 0.205,
      "velocity": 1,
      "hand": "left"
    },
    {
      "midi": 62,
      "time": 81.678,
      "duration": 0.205,
      "velocity": 1,
      "hand": "right"
    },
    {
      "midi": 68,
      "time": 81.678,
      "duration": 0.205,
      "velocity": 1,
      "hand": "right"
    },
    {
      "midi": 77,
      "time": 81.678,
      "duration": 0.411,
      "velocity": 1,
      "hand": "right"
    },
    {
      "midi": 89,
      "time": 81.678,
      "duration": 0.411,
      "velocity": 1,
      "hand": "right"
    },
    {
      "midi": 59,
      "time": 81.884,
      "duration": 0.205,
      "velocity": 1,
      "hand": "left"
    },
    {
      "midi": 62,
      "time": 81.884,
      "duration": 0.205,
      "velocity": 1,
      "hand": "right"
    },
    {
      "midi": 68,
      "time": 81.884,
      "duration": 0.205,
      "velocity": 1,
      "hand": "right"
    },
    {
      "midi": 59,
      "time": 82.089,
      "duration": 0.205,
      "velocity": 1,
      "hand": "left"
    },
    {
      "midi": 62,
      "time": 82.089,
      "duration": 0.205,
      "velocity": 1,
      "hand": "right"
    },
    {
      "midi": 68,
      "time": 82.089,
      "duration": 0.205,
      "velocity": 1,
      "hand": "right"
    },
    {
      "midi": 77,
      "time": 82.089,
      "duration": 0.411,
      "velocity": 1,
      "hand": "right"
    },
    {
      "midi": 89,
      "time": 82.089,
      "duration": 0.411,
      "velocity": 1,
      "hand": "right"
    },
    {
      "midi": 59,
      "time": 82.295,
      "duration": 0.205,
      "velocity": 1,
      "hand": "left"
    },
    {
      "midi": 62,
      "time": 82.295,
      "duration": 0.205,
      "velocity": 1,
      "hand": "right"
    },
    {
      "midi": 68,
      "time": 82.295,
      "duration": 0.205,
      "velocity": 1,
      "hand": "right"
    },
    {
      "midi": 60,
      "time": 82.5,
      "duration": 0.411,
      "velocity": 1,
      "hand": "right"
    },
    {
      "midi": 64,
      "time": 82.5,
      "duration": 0.411,
      "velocity": 1,
      "hand": "right"
    },
    {
      "midi": 69,
      "time": 82.5,
      "duration": 0.411,
      "velocity": 1,
      "hand": "right"
    },
    {
      "midi": 76,
      "time": 82.5,
      "duration": 0.205,
      "velocity": 1,
      "hand": "right"
    },
    {
      "midi": 88,
      "time": 82.5,
      "duration": 0.205,
      "velocity": 1,
      "hand": "right"
    },
    {
      "midi": 86,
      "time": 82.705,
      "duration": 0.205,
      "velocity": 1,
      "hand": "right"
    },
    {
      "midi": 84,
      "time": 82.911,
      "duration": 0.205,
      "velocity": 1,
      "hand": "right"
    },
    {
      "midi": 83,
      "time": 83.116,
      "duration": 0.205,
      "velocity": 1,
      "hand": "right"
    },
    {
      "midi": 81,
      "time": 83.322,
      "duration": 0.205,
      "velocity": 1,
      "hand": "right"
    },
    {
      "midi": 79,
      "time": 83.527,
      "duration": 0.205,
      "velocity": 1,
      "hand": "right"
    },
    {
      "midi": 78,
      "time": 83.733,
      "duration": 0.205,
      "velocity": 1,
      "hand": "right"
    },
    {
      "midi": 76,
      "time": 83.938,
      "duration": 0.205,
      "velocity": 1,
      "hand": "right"
    },
    {
      "midi": 50,
      "time": 84.144,
      "duration": 0.103,
      "velocity": 1,
      "hand": "left"
    },
    {
      "midi": 74,
      "time": 84.144,
      "duration": 0.205,
      "velocity": 1,
      "hand": "right"
    },
    {
      "midi": 59,
      "time": 84.247,
      "duration": 0.103,
      "velocity": 1,
      "hand": "left"
    },
    {
      "midi": 55,
      "time": 84.349,
      "duration": 0.103,
      "velocity": 1,
      "hand": "left"
    },
    {
      "midi": 76,
      "time": 84.349,
      "duration": 0.103,
      "velocity": 1,
      "hand": "right"
    },
    {
      "midi": 59,
      "time": 84.452,
      "duration": 0.103,
      "velocity": 1,
      "hand": "left"
    },
    {
      "midi": 78,
      "time": 84.452,
      "duration": 0.103,
      "velocity": 1,
      "hand": "right"
    },
    {
      "midi": 50,
      "time": 84.555,
      "duration": 0.103,
      "velocity": 1,
      "hand": "left"
    },
    {
      "midi": 79,
      "time": 84.555,
      "duration": 0.103,
      "velocity": 1,
      "hand": "right"
    },
    {
      "midi": 59,
      "time": 84.658,
      "duration": 0.103,
      "velocity": 1,
      "hand": "left"
    },
    {
      "midi": 81,
      "time": 84.658,
      "duration": 0.103,
      "velocity": 1,
      "hand": "right"
    },
    {
      "midi": 55,
      "time": 84.76,
      "duration": 0.103,
      "velocity": 1,
      "hand": "left"
    },
    {
      "midi": 83,
      "time": 84.76,
      "duration": 0.103,
      "velocity": 1,
      "hand": "right"
    },
    {
      "midi": 59,
      "time": 84.863,
      "duration": 0.103,
      "velocity": 1,
      "hand": "left"
    },
    {
      "midi": 84,
      "time": 84.863,
      "duration": 0.103,
      "velocity": 1,
      "hand": "right"
    },
    {
      "midi": 50,
      "time": 84.966,
      "duration": 0.103,
      "velocity": 1,
      "hand": "left"
    },
    {
      "midi": 86,
      "time": 84.966,
      "duration": 0.103,
      "velocity": 1,
      "hand": "right"
    },
    {
      "midi": 59,
      "time": 85.068,
      "duration": 0.103,
      "velocity": 1,
      "hand": "left"
    },
    {
      "midi": 84,
      "time": 85.068,
      "duration": 0.103,
      "velocity": 1,
      "hand": "right"
    },
    {
      "midi": 55,
      "time": 85.171,
      "duration": 0.103,
      "velocity": 1,
      "hand": "left"
    },
    {
      "midi": 83,
      "time": 85.171,
      "duration": 0.103,
      "velocity": 1,
      "hand": "right"
    },
    {
      "midi": 59,
      "time": 85.274,
      "duration": 0.103,
      "velocity": 1,
      "hand": "left"
    },
    {
      "midi": 84,
      "time": 85.274,
      "duration": 0.103,
      "velocity": 1,
      "hand": "right"
    },
    {
      "midi": 50,
      "time": 85.377,
      "duration": 0.103,
      "velocity": 1,
      "hand": "left"
    },
    {
      "midi": 86,
      "time": 85.377,
      "duration": 0.103,
      "velocity": 1,
      "hand": "right"
    },
    {
      "midi": 59,
      "time": 85.479,
      "duration": 0.103,
      "velocity": 1,
      "hand": "left"
    },
    {
      "midi": 83,
      "time": 85.479,
      "duration": 0.103,
      "velocity": 1,
      "hand": "right"
    },
    {
      "midi": 55,
      "time": 85.582,
      "duration": 0.103,
      "velocity": 1,
      "hand": "left"
    },
    {
      "midi": 81,
      "time": 85.582,
      "duration": 0.103,
      "velocity": 1,
      "hand": "right"
    },
    {
      "midi": 59,
      "time": 85.685,
      "duration": 0.103,
      "velocity": 1,
      "hand": "left"
    },
    {
      "midi": 79,
      "time": 85.685,
      "duration": 0.103,
      "velocity": 1,
      "hand": "right"
    },
    {
      "midi": 50,
      "time": 85.788,
      "duration": 0.103,
      "velocity": 1,
      "hand": "left"
    },
    {
      "midi": 81,
      "time": 85.788,
      "duration": 1.644,
      "velocity": 1,
      "hand": "right"
    },
    {
      "midi": 60,
      "time": 85.89,
      "duration": 0.103,
      "velocity": 1,
      "hand": "right"
    },
    {
      "midi": 54,
      "time": 85.993,
      "duration": 0.103,
      "velocity": 1,
      "hand": "left"
    },
    {
      "midi": 60,
      "time": 86.096,
      "duration": 0.103,
      "velocity": 1,
      "hand": "right"
    },
    {
      "midi": 50,
      "time": 86.199,
      "duration": 0.103,
      "velocity": 1,
      "hand": "left"
    },
    {
      "midi": 60,
      "time": 86.301,
      "duration": 0.103,
      "velocity": 1,
      "hand": "right"
    },
    {
      "midi": 54,
      "time": 86.404,
      "duration": 0.103,
      "velocity": 1,
      "hand": "left"
    },
    {
      "midi": 60,
      "time": 86.507,
      "duration": 0.103,
      "velocity": 1,
      "hand": "right"
    },
    {
      "midi": 50,
      "time": 86.61,
      "duration": 0.103,
      "velocity": 1,
      "hand": "left"
    },
    {
      "midi": 60,
      "time": 86.712,
      "duration": 0.103,
      "velocity": 1,
      "hand": "right"
    },
    {
      "midi": 54,
      "time": 86.815,
      "duration": 0.103,
      "velocity": 1,
      "hand": "left"
    },
    {
      "midi": 60,
      "time": 86.918,
      "duration": 0.103,
      "velocity": 1,
      "hand": "right"
    },
    {
      "midi": 50,
      "time": 87.021,
      "duration": 0.103,
      "velocity": 1,
      "hand": "left"
    },
    {
      "midi": 79,
      "time": 87.021,
      "duration": 0.051,
      "velocity": 1,
      "hand": "right"
    },
    {
      "midi": 60,
      "time": 87.123,
      "duration": 0.103,
      "velocity": 1,
      "hand": "right"
    },
    {
      "midi": 54,
      "time": 87.226,
      "duration": 0.103,
      "velocity": 1,
      "hand": "left"
    },
    {
      "midi": 60,
      "time": 87.329,
      "duration": 0.103,
      "velocity": 1,
      "hand": "right"
    },
    {
      "midi": 55,
      "time": 87.432,
      "duration": 0.411,
      "velocity": 1,
      "hand": "left"
    },
    {
      "midi": 59,
      "time": 87.432,
      "duration": 0.411,
      "velocity": 1,
      "hand": "left"
    },
    {
      "midi": 79,
      "time": 87.432,
      "duration": 0.411,
      "velocity": 1,
      "hand": "right"
    },
    {
      "midi": 67,
      "time": 87.842,
      "duration": 0.411,
      "velocity": 1,
      "hand": "right"
    },
    {
      "midi": 71,
      "time": 88.048,
      "duration": 0.205,
      "velocity": 1,
      "hand": "right"
    },
    {
      "midi": 69,
      "time": 88.253,
      "duration": 0.411,
      "velocity": 1,
      "hand": "right"
    },
    {
      "midi": 74,
      "time": 88.253,
      "duration": 0.205,
      "velocity": 1,
      "hand": "right"
    },
    {
      "midi": 72,
      "time": 88.459,
      "duration": 0.205,
      "velocity": 1,
      "hand": "right"
    },
    {
      "midi": 66,
      "time": 88.664,
      "duration": 0.411,
      "velocity": 1,
      "hand": "right"
    },
    {
      "midi": 69,
      "time": 88.87,
      "duration": 0.205,
      "velocity": 1,
      "hand": "right"
    },
    {
      "midi": 67,
      "time": 89.075,
      "duration": 0.411,
      "velocity": 1,
      "hand": "right"
    },
    {
      "midi": 72,
      "time": 89.075,
      "duration": 0.205,
      "velocity": 1,
      "hand": "right"
    },
    {
      "midi": 71,
      "time": 89.281,
      "duration": 0.205,
      "velocity": 1,
      "hand": "right"
    },
    {
      "midi": 64,
      "time": 89.486,
      "duration": 0.411,
      "velocity": 1,
      "hand": "right"
    },
    {
      "midi": 67,
      "time": 89.692,
      "duration": 0.205,
      "velocity": 1,
      "hand": "right"
    },
    {
      "midi": 60,
      "time": 89.897,
      "duration": 0.411,
      "velocity": 1,
      "hand": "right"
    },
    {
      "midi": 71,
      "time": 89.897,
      "duration": 0.205,
      "velocity": 1,
      "hand": "right"
    },
    {
      "midi": 69,
      "time": 90.103,
      "duration": 0.205,
      "velocity": 1,
      "hand": "right"
    },
    {
      "midi": 62,
      "time": 90.308,
      "duration": 0.411,
      "velocity": 1,
      "hand": "right"
    },
    {
      "midi": 66,
      "time": 90.514,
      "duration": 0.205,
      "velocity": 1,
      "hand": "right"
    },
    {
      "midi": 59,
      "time": 90.719,
      "duration": 0.411,
      "velocity": 1,
      "hand": "left"
    },
    {
      "midi": 69,
      "time": 90.719,
      "duration": 0.205,
      "velocity": 1,
      "hand": "right"
    },
    {
      "midi": 67,
      "time": 90.925,
      "duration": 0.205,
      "velocity": 1,
      "hand": "right"
    },
    {
      "midi": 43,
      "time": 91.13,
      "duration": 0.411,
      "velocity": 1,
      "hand": "left"
    },
    {
      "midi": 55,
      "time": 91.13,
      "duration": 0.411,
      "velocity": 1,
      "hand": "left"
    },
    {
      "midi": 71,
      "time": 91.13,
      "duration": 0.103,
      "velocity": 1,
      "hand": "right"
    },
    {
      "midi": 72,
      "time": 91.233,
      "duration": 0.103,
      "velocity": 1,
      "hand": "right"
    },
    {
      "midi": 74,
      "time": 91.336,
      "duration": 0.103,
      "velocity": 1,
      "hand": "right"
    },
    {
      "midi": 71,
      "time": 91.438,
      "duration": 0.103,
      "velocity": 1,
      "hand": "right"
    },
    {
      "midi": 45,
      "time": 91.541,
      "duration": 0.411,
      "velocity": 1,
      "hand": "left"
    },
    {
      "midi": 57,
      "time": 91.541,
      "duration": 0.411,
      "velocity": 1,
      "hand": "left"
    },
    {
      "midi": 72,
      "time": 91.541,
      "duration": 0.103,
      "velocity": 1,
      "hand": "right"
    },
    {
      "midi": 74,
      "time": 91.644,
      "duration": 0.103,
      "velocity": 1,
      "hand": "right"
    },
    {
      "midi": 76,
      "time": 91.747,
      "duration": 0.103,
      "velocity": 1,
      "hand": "right"
    },
    {
      "midi": 72,
      "time": 91.849,
      "duration": 0.103,
      "velocity": 1,
      "hand": "right"
    },
    {
      "midi": 42,
      "time": 91.952,
      "duration": 0.411,
      "velocity": 1,
      "hand": "left"
    },
    {
      "midi": 54,
      "time": 91.952,
      "duration": 0.411,
      "velocity": 1,
      "hand": "left"
    },
    {
      "midi": 81,
      "time": 91.952,
      "duration": 0.103,
      "velocity": 1,
      "hand": "right"
    },
    {
      "midi": 83,
      "time": 92.055,
      "duration": 0.103,
      "velocity": 1,
      "hand": "right"
    },
    {
      "midi": 84,
      "time": 92.158,
      "duration": 0.103,
      "velocity": 1,
      "hand": "right"
    },
    {
      "midi": 81,
      "time": 92.26,
      "duration": 0.103,
      "velocity": 1,
      "hand": "right"
    },
    {
      "midi": 43,
      "time": 92.363,
      "duration": 0.411,
      "velocity": 1,
      "hand": "left"
    },
    {
      "midi": 55,
      "time": 92.363,
      "duration": 0.411,
      "velocity": 1,
      "hand": "left"
    },
    {
      "midi": 83,
      "time": 92.363,
      "duration": 0.103,
      "velocity": 1,
      "hand": "right"
    },
    {
      "midi": 84,
      "time": 92.466,
      "duration": 0.103,
      "velocity": 1,
      "hand": "right"
    },
    {
      "midi": 86,
      "time": 92.568,
      "duration": 0.103,
      "velocity": 1,
      "hand": "right"
    },
    {
      "midi": 83,
      "time": 92.671,
      "duration": 0.103,
      "velocity": 1,
      "hand": "right"
    },
    {
      "midi": 40,
      "time": 92.774,
      "duration": 0.411,
      "velocity": 1,
      "hand": "left"
    },
    {
      "midi": 52,
      "time": 92.774,
      "duration": 0.411,
      "velocity": 1,
      "hand": "left"
    },
    {
      "midi": 67,
      "time": 92.774,
      "duration": 0.103,
      "velocity": 1,
      "hand": "right"
    },
    {
      "midi": 69,
      "time": 92.877,
      "duration": 0.103,
      "velocity": 1,
      "hand": "right"
    },
    {
      "midi": 71,
      "time": 92.979,
      "duration": 0.103,
      "velocity": 1,
      "hand": "right"
    },
    {
      "midi": 67,
      "time": 93.082,
      "duration": 0.103,
      "velocity": 1,
      "hand": "right"
    },
    {
      "midi": 36,
      "time": 93.185,
      "duration": 0.411,
      "velocity": 1,
      "hand": "left"
    },
    {
      "midi": 48,
      "time": 93.185,
      "duration": 0.411,
      "velocity": 1,
      "hand": "left"
    },
    {
      "midi": 69,
      "time": 93.185,
      "duration": 0.103,
      "velocity": 1,
      "hand": "right"
    },
    {
      "midi": 71,
      "time": 93.288,
      "duration": 0.103,
      "velocity": 1,
      "hand": "right"
    },
    {
      "midi": 72,
      "time": 93.39,
      "duration": 0.103,
      "velocity": 1,
      "hand": "right"
    },
    {
      "midi": 69,
      "time": 93.493,
      "duration": 0.103,
      "velocity": 1,
      "hand": "right"
    },
    {
      "midi": 38,
      "time": 93.596,
      "duration": 0.411,
      "velocity": 1,
      "hand": "left"
    },
    {
      "midi": 50,
      "time": 93.596,
      "duration": 0.411,
      "velocity": 1,
      "hand": "left"
    },
    {
      "midi": 78,
      "time": 93.596,
      "duration": 0.103,
      "velocity": 1,
      "hand": "right"
    },
    {
      "midi": 79,
      "time": 93.699,
      "duration": 0.103,
      "velocity": 1,
      "hand": "right"
    },
    {
      "midi": 81,
      "time": 93.801,
      "duration": 0.103,
      "velocity": 1,
      "hand": "right"
    },
    {
      "midi": 78,
      "time": 93.904,
      "duration": 0.103,
      "velocity": 1,
      "hand": "right"
    },
    {
      "midi": 43,
      "time": 94.007,
      "duration": 0.411,
      "velocity": 1,
      "hand": "left"
    },
    {
      "midi": 79,
      "time": 94.007,
      "duration": 0.411,
      "velocity": 1,
      "hand": "right"
    },
    {
      "midi": 43,
      "time": 94.418,
      "duration": 0.411,
      "velocity": 1,
      "hand": "left"
    },
    {
      "midi": 55,
      "time": 94.418,
      "duration": 0.411,
      "velocity": 1,
      "hand": "left"
    },
    {
      "midi": 74,
      "time": 94.418,
      "duration": 0.411,
      "velocity": 1,
      "hand": "right"
    },
    {
      "midi": 79,
      "time": 94.418,
      "duration": 0.411,
      "velocity": 1,
      "hand": "right"
    },
    {
      "midi": 83,
      "time": 94.418,
      "duration": 0.411,
      "velocity": 1,
      "hand": "right"
    },
    {
      "midi": 43,
      "time": 94.829,
      "duration": 0.411,
      "velocity": 1,
      "hand": "left"
    },
    {
      "midi": 55,
      "time": 94.829,
      "duration": 0.411,
      "velocity": 1,
      "hand": "left"
    },
    {
      "midi": 71,
      "time": 94.829,
      "duration": 0.411,
      "velocity": 1,
      "hand": "right"
    },
    {
      "midi": 74,
      "time": 94.829,
      "duration": 0.411,
      "velocity": 1,
      "hand": "right"
    },
    {
      "midi": 79,
      "time": 94.829,
      "duration": 0.411,
      "velocity": 1,
      "hand": "right"
    },
    {
      "midi": 55,
      "time": 95.651,
      "duration": 0.051,
      "velocity": 1,
      "hand": "left"
    },
    {
      "midi": 58,
      "time": 95.651,
      "duration": 0.051,
      "velocity": 1,
      "hand": "left"
    },
    {
      "midi": 31,
      "time": 95.753,
      "duration": 0.822,
      "velocity": 1,
      "hand": "left"
    },
    {
      "midi": 43,
      "time": 95.753,
      "duration": 0.822,
      "velocity": 1,
      "hand": "left"
    },
    {
      "midi": 62,
      "time": 95.753,
      "duration": 0.051,
      "velocity": 1,
      "hand": "right"
    },
    {
      "midi": 67,
      "time": 95.753,
      "duration": 0.822,
      "velocity": 1,
      "hand": "right"
    },
    {
      "midi": 38,
      "time": 96.575,
      "duration": 0.822,
      "velocity": 1,
      "hand": "left"
    },
    {
      "midi": 62,
      "time": 96.575,
      "duration": 0.822,
      "velocity": 1,
      "hand": "right"
    },
    {
      "midi": 46,
      "time": 97.397,
      "duration": 0.616,
      "velocity": 1,
      "hand": "left"
    },
    {
      "midi": 70,
      "time": 97.397,
      "duration": 0.616,
      "velocity": 1,
      "hand": "right"
    },
    {
      "midi": 48,
      "time": 98.014,
      "duration": 0.103,
      "velocity": 1,
      "hand": "left"
    },
    {
      "midi": 72,
      "time": 98.014,
      "duration": 0.103,
      "velocity": 1,
      "hand": "right"
    },
    {
      "midi": 45,
      "time": 98.116,
      "duration": 0.103,
      "velocity": 1,
      "hand": "left"
    },
    {
      "midi": 69,
      "time": 98.116,
      "duration": 0.103,
      "velocity": 1,
      "hand": "right"
    },
    {
      "midi": 43,
      "time": 98.219,
      "duration": 0.411,
      "velocity": 1,
      "hand": "left"
    },
    {
      "midi": 67,
      "time": 98.219,
      "duration": 0.411,
      "velocity": 1,
      "hand": "right"
    },
    {
      "midi": 70,
      "time": 99.041,
      "duration": 0.616,
      "velocity": 1,
      "hand": "right"
    },
    {
      "midi": 74,
      "time": 99.041,
      "duration": 0.616,
      "velocity": 1,
      "hand": "right"
    },
    {
      "midi": 72,
      "time": 99.658,
      "duration": 0.103,
      "velocity": 1,
      "hand": "right"
    },
    {
      "midi": 75,
      "time": 99.658,
      "duration": 0.103,
      "velocity": 1,
      "hand": "right"
    },
    {
      "midi": 69,
      "time": 99.76,
      "duration": 0.103,
      "velocity": 1,
      "hand": "right"
    },
    {
      "midi": 72,
      "time": 99.76,
      "duration": 0.103,
      "velocity": 1,
      "hand": "right"
    },
    {
      "midi": 67,
      "time": 99.863,
      "duration": 0.411,
      "velocity": 1,
      "hand": "right"
    },
    {
      "midi": 70,
      "time": 99.863,
      "duration": 0.411,
      "velocity": 1,
      "hand": "right"
    },
    {
      "midi": 74,
      "time": 100.685,
      "duration": 0.616,
      "velocity": 1,
      "hand": "right"
    },
    {
      "midi": 82,
      "time": 100.685,
      "duration": 0.616,
      "velocity": 1,
      "hand": "right"
    },
    {
      "midi": 75,
      "time": 101.301,
      "duration": 0.103,
      "velocity": 1,
      "hand": "right"
    },
    {
      "midi": 84,
      "time": 101.301,
      "duration": 0.103,
      "velocity": 1,
      "hand": "right"
    },
    {
      "midi": 72,
      "time": 101.404,
      "duration": 0.103,
      "velocity": 1,
      "hand": "right"
    },
    {
      "midi": 81,
      "time": 101.404,
      "duration": 0.103,
      "velocity": 1,
      "hand": "right"
    },
    {
      "midi": 70,
      "time": 101.507,
      "duration": 0.411,
      "velocity": 1,
      "hand": "right"
    },
    {
      "midi": 79,
      "time": 101.507,
      "duration": 0.411,
      "velocity": 1,
      "hand": "right"
    },
    {
      "midi": 58,
      "time": 102.329,
      "duration": 0.205,
      "velocity": 1,
      "hand": "left"
    },
    {
      "midi": 62,
      "time": 102.329,
      "duration": 0.205,
      "velocity": 1,
      "hand": "right"
    },
    {
      "midi": 67,
      "time": 102.534,
      "duration": 0.205,
      "velocity": 1,
      "hand": "right"
    },
    {
      "midi": 58,
      "time": 102.74,
      "duration": 0.205,
      "velocity": 1,
      "hand": "left"
    },
    {
      "midi": 62,
      "time": 102.74,
      "duration": 0.205,
      "velocity": 1,
      "hand": "right"
    },
    {
      "midi": 79,
      "time": 102.74,
      "duration": 0.411,
      "velocity": 1,
      "hand": "right"
    },
    {
      "midi": 67,
      "time": 102.945,
      "duration": 0.205,
      "velocity": 1,
      "hand": "right"
    },
    {
      "midi": 58,
      "time": 103.151,
      "duration": 0.205,
      "velocity": 1,
      "hand": "left"
    },
    {
      "midi": 62,
      "time": 103.151,
      "duration": 0.205,
      "velocity": 1,
      "hand": "right"
    },
    {
      "midi": 86,
      "time": 103.151,
      "duration": 0.411,
      "velocity": 1,
      "hand": "right"
    },
    {
      "midi": 67,
      "time": 103.356,
      "duration": 0.205,
      "velocity": 1,
      "hand": "right"
    },
    {
      "midi": 58,
      "time": 103.562,
      "duration": 0.205,
      "velocity": 1,
      "hand": "left"
    },
    {
      "midi": 62,
      "time": 103.562,
      "duration": 0.205,
      "velocity": 1,
      "hand": "right"
    },
    {
      "midi": 88,
      "time": 103.562,
      "duration": 0.411,
      "velocity": 1,
      "hand": "right"
    },
    {
      "midi": 67,
      "time": 103.767,
      "duration": 0.205,
      "velocity": 1,
      "hand": "right"
    },
    {
      "midi": 57,
      "time": 103.973,
      "duration": 0.205,
      "velocity": 1,
      "hand": "left"
    },
    {
      "midi": 64,
      "time": 103.973,
      "duration": 0.205,
      "velocity": 1,
      "hand": "right"
    },
    {
      "midi": 86,
      "time": 103.973,
      "duration": 0.822,
      "velocity": 1,
      "hand": "right"
    },
    {
      "midi": 67,
      "time": 104.178,
      "duration": 0.205,
      "velocity": 1,
      "hand": "right"
    },
    {
      "midi": 57,
      "time": 104.384,
      "duration": 0.205,
      "velocity": 1,
      "hand": "left"
    },
    {
      "midi": 64,
      "time": 104.384,
      "duration": 0.205,
      "velocity": 1,
      "hand": "right"
    },
    {
      "midi": 67,
      "time": 104.589,
      "duration": 0.205,
      "velocity": 1,
      "hand": "right"
    },
    {
      "midi": 57,
      "time": 104.795,
      "duration": 0.205,
      "velocity": 1,
      "hand": "left"
    },
    {
      "midi": 64,
      "time": 104.795,
      "duration": 0.205,
      "velocity": 1,
      "hand": "right"
    },
    {
      "midi": 85,
      "time": 104.795,
      "duration": 0.411,
      "velocity": 1,
      "hand": "right"
    },
    {
      "midi": 67,
      "time": 105,
      "duration": 0.205,
      "velocity": 1,
      "hand": "right"
    },
    {
      "midi": 57,
      "time": 105.205,
      "duration": 0.205,
      "velocity": 1,
      "hand": "left"
    },
    {
      "midi": 64,
      "time": 105.205,
      "duration": 0.205,
      "velocity": 1,
      "hand": "right"
    },
    {
      "midi": 67,
      "time": 105.411,
      "duration": 0.205,
      "velocity": 1,
      "hand": "right"
    },
    {
      "midi": 58,
      "time": 105.616,
      "duration": 0.205,
      "velocity": 1,
      "hand": "left"
    },
    {
      "midi": 62,
      "time": 105.616,
      "duration": 0.205,
      "velocity": 1,
      "hand": "right"
    },
    {
      "midi": 67,
      "time": 105.822,
      "duration": 0.205,
      "velocity": 1,
      "hand": "right"
    },
    {
      "midi": 79,
      "time": 105.925,
      "duration": 0.103,
      "velocity": 1,
      "hand": "right"
    },
    {
      "midi": 58,
      "time": 106.027,
      "duration": 0.205,
      "velocity": 1,
      "hand": "left"
    },
    {
      "midi": 62,
      "time": 106.027,
      "duration": 0.205,
      "velocity": 1,
      "hand": "right"
    },
    {
      "midi": 79,
      "time": 106.027,
      "duration": 0.308,
      "velocity": 1,
      "hand": "right"
    },
    {
      "midi": 67,
      "time": 106.233,
      "duration": 0.205,
      "velocity": 1,
      "hand": "right"
    },
    {
      "midi": 78,
      "time": 106.336,
      "duration": 0.051,
      "velocity": 1,
      "hand": "right"
    },
    {
      "midi": 58,
      "time": 106.438,
      "duration": 0.205,
      "velocity": 1,
      "hand": "left"
    },
    {
      "midi": 62,
      "time": 106.438,
      "duration": 0.205,
      "velocity": 1,
      "hand": "right"
    },
    {
      "midi": 79,
      "time": 106.438,
      "duration": 0.051,
      "velocity": 1,
      "hand": "right"
    },
    {
      "midi": 86,
      "time": 106.438,
      "duration": 0.411,
      "velocity": 1,
      "hand": "right"
    },
    {
      "midi": 67,
      "time": 106.644,
      "duration": 0.205,
      "velocity": 1,
      "hand": "right"
    },
    {
      "midi": 58,
      "time": 106.849,
      "duration": 0.205,
      "velocity": 1,
      "hand": "left"
    },
    {
      "midi": 62,
      "time": 106.849,
      "duration": 0.205,
      "velocity": 1,
      "hand": "right"
    },
    {
      "midi": 88,
      "time": 106.849,
      "duration": 0.411,
      "velocity": 1,
      "hand": "right"
    },
    {
      "midi": 67,
      "time": 107.055,
      "duration": 0.205,
      "velocity": 1,
      "hand": "right"
    },
    {
      "midi": 57,
      "time": 107.26,
      "duration": 0.205,
      "velocity": 1,
      "hand": "left"
    },
    {
      "midi": 64,
      "time": 107.26,
      "duration": 0.205,
      "velocity": 1,
      "hand": "right"
    },
    {
      "midi": 86,
      "time": 107.26,
      "duration": 0.822,
      "velocity": 1,
      "hand": "right"
    },
    {
      "midi": 67,
      "time": 107.466,
      "duration": 0.205,
      "velocity": 1,
      "hand": "right"
    },
    {
      "midi": 57,
      "time": 107.671,
      "duration": 0.205,
      "velocity": 1,
      "hand": "left"
    },
    {
      "midi": 64,
      "time": 107.671,
      "duration": 0.205,
      "velocity": 1,
      "hand": "right"
    },
    {
      "midi": 67,
      "time": 107.877,
      "duration": 0.205,
      "velocity": 1,
      "hand": "right"
    },
    {
      "midi": 57,
      "time": 108.082,
      "duration": 0.205,
      "velocity": 1,
      "hand": "left"
    },
    {
      "midi": 64,
      "time": 108.082,
      "duration": 0.205,
      "velocity": 1,
      "hand": "right"
    },
    {
      "midi": 85,
      "time": 108.082,
      "duration": 0.411,
      "velocity": 1,
      "hand": "right"
    },
    {
      "midi": 67,
      "time": 108.288,
      "duration": 0.205,
      "velocity": 1,
      "hand": "right"
    },
    {
      "midi": 57,
      "time": 108.493,
      "duration": 0.205,
      "velocity": 1,
      "hand": "left"
    },
    {
      "midi": 64,
      "time": 108.493,
      "duration": 0.205,
      "velocity": 1,
      "hand": "right"
    },
    {
      "midi": 67,
      "time": 108.699,
      "duration": 0.205,
      "velocity": 1,
      "hand": "right"
    },
    {
      "midi": 50,
      "time": 108.904,
      "duration": 0.051,
      "velocity": 1,
      "hand": "left"
    },
    {
      "midi": 53,
      "time": 109.007,
      "duration": 0.051,
      "velocity": 1,
      "hand": "left"
    },
    {
      "midi": 57,
      "time": 109.007,
      "duration": 0.051,
      "velocity": 1,
      "hand": "left"
    },
    {
      "midi": 38,
      "time": 109.11,
      "duration": 0.822,
      "velocity": 1,
      "hand": "left"
    },
    {
      "midi": 62,
      "time": 109.11,
      "duration": 0.822,
      "velocity": 1,
      "hand": "right"
    },
    {
      "midi": 45,
      "time": 109.932,
      "duration": 0.822,
      "velocity": 1,
      "hand": "left"
    },
    {
      "midi": 57,
      "time": 109.932,
      "duration": 0.822,
      "velocity": 1,
      "hand": "left"
    },
    {
      "midi": 53,
      "time": 110.753,
      "duration": 0.616,
      "velocity": 1,
      "hand": "left"
    },
    {
      "midi": 65,
      "time": 110.753,
      "duration": 0.616,
      "velocity": 1,
      "hand": "right"
    },
    {
      "midi": 55,
      "time": 111.37,
      "duration": 0.103,
      "velocity": 1,
      "hand": "left"
    },
    {
      "midi": 67,
      "time": 111.37,
      "duration": 0.103,
      "velocity": 1,
      "hand": "right"
    },
    {
      "midi": 52,
      "time": 111.473,
      "duration": 0.103,
      "velocity": 1,
      "hand": "left"
    },
    {
      "midi": 64,
      "time": 111.473,
      "duration": 0.103,
      "velocity": 1,
      "hand": "right"
    },
    {
      "midi": 50,
      "time": 111.575,
      "duration": 0.411,
      "velocity": 1,
      "hand": "left"
    },
    {
      "midi": 62,
      "time": 111.575,
      "duration": 0.411,
      "velocity": 1,
      "hand": "right"
    },
    {
      "midi": 53,
      "time": 112.397,
      "duration": 0.411,
      "velocity": 1,
      "hand": "left"
    },
    {
      "midi": 57,
      "time": 112.397,
      "duration": 0.205,
      "velocity": 1,
      "hand": "left"
    },
    {
      "midi": 62,
      "time": 112.603,
      "duration": 0.205,
      "velocity": 1,
      "hand": "right"
    },
    {
      "midi": 74,
      "time": 112.705,
      "duration": 0.103,
      "velocity": 1,
      "hand": "right"
    },
    {
      "midi": 53,
      "time": 112.808,
      "duration": 0.411,
      "velocity": 1,
      "hand": "left"
    },
    {
      "midi": 57,
      "time": 112.808,
      "duration": 0.205,
      "velocity": 1,
      "hand": "left"
    },
    {
      "midi": 74,
      "time": 112.808,
      "duration": 0.308,
      "velocity": 1,
      "hand": "right"
    },
    {
      "midi": 62,
      "time": 113.014,
      "duration": 0.205,
      "velocity": 1,
      "hand": "right"
    },
    {
      "midi": 73,
      "time": 113.116,
      "duration": 0.051,
      "velocity": 1,
      "hand": "right"
    },
    {
      "midi": 74,
      "time": 113.116,
      "duration": 0.051,
      "velocity": 1,
      "hand": "right"
    },
    {
      "midi": 53,
      "time": 113.219,
      "duration": 0.411,
      "velocity": 1,
      "hand": "left"
    },
    {
      "midi": 57,
      "time": 113.219,
      "duration": 0.205,
      "velocity": 1,
      "hand": "left"
    },
    {
      "midi": 81,
      "time": 113.219,
      "duration": 0.411,
      "velocity": 1,
      "hand": "right"
    },
    {
      "midi": 62,
      "time": 113.425,
      "duration": 0.205,
      "velocity": 1,
      "hand": "right"
    },
    {
      "midi": 53,
      "time": 113.63,
      "duration": 0.411,
      "velocity": 1,
      "hand": "left"
    },
    {
      "midi": 57,
      "time": 113.63,
      "duration": 0.205,
      "velocity": 1,
      "hand": "left"
    },
    {
      "midi": 83,
      "time": 113.63,
      "duration": 0.411,
      "velocity": 1,
      "hand": "right"
    },
    {
      "midi": 62,
      "time": 113.836,
      "duration": 0.205,
      "velocity": 1,
      "hand": "right"
    },
    {
      "midi": 52,
      "time": 114.041,
      "duration": 0.411,
      "velocity": 1,
      "hand": "left"
    },
    {
      "midi": 59,
      "time": 114.041,
      "duration": 0.205,
      "velocity": 1,
      "hand": "left"
    },
    {
      "midi": 81,
      "time": 114.041,
      "duration": 0.822,
      "velocity": 1,
      "hand": "right"
    },
    {
      "midi": 62,
      "time": 114.247,
      "duration": 0.205,
      "velocity": 1,
      "hand": "right"
    },
    {
      "midi": 52,
      "time": 114.452,
      "duration": 0.411,
      "velocity": 1,
      "hand": "left"
    },
    {
      "midi": 59,
      "time": 114.452,
      "duration": 0.205,
      "velocity": 1,
      "hand": "left"
    },
    {
      "midi": 62,
      "time": 114.658,
      "duration": 0.205,
      "velocity": 1,
      "hand": "right"
    },
    {
      "midi": 52,
      "time": 114.863,
      "duration": 0.411,
      "velocity": 1,
      "hand": "left"
    },
    {
      "midi": 59,
      "time": 114.863,
      "duration": 0.205,
      "velocity": 1,
      "hand": "left"
    },
    {
      "midi": 80,
      "time": 114.863,
      "duration": 0.411,
      "velocity": 1,
      "hand": "right"
    },
    {
      "midi": 62,
      "time": 115.068,
      "duration": 0.205,
      "velocity": 1,
      "hand": "right"
    },
    {
      "midi": 52,
      "time": 115.274,
      "duration": 0.411,
      "velocity": 1,
      "hand": "left"
    },
    {
      "midi": 59,
      "time": 115.274,
      "duration": 0.205,
      "velocity": 1,
      "hand": "left"
    },
    {
      "midi": 62,
      "time": 115.479,
      "duration": 0.205,
      "velocity": 1,
      "hand": "right"
    },
    {
      "midi": 53,
      "time": 115.685,
      "duration": 0.411,
      "velocity": 1,
      "hand": "left"
    },
    {
      "midi": 57,
      "time": 115.685,
      "duration": 0.205,
      "velocity": 1,
      "hand": "left"
    },
    {
      "midi": 62,
      "time": 115.89,
      "duration": 0.205,
      "velocity": 1,
      "hand": "right"
    },
    {
      "midi": 81,
      "time": 115.89,
      "duration": 0.205,
      "velocity": 1,
      "hand": "right"
    },
    {
      "midi": 53,
      "time": 116.096,
      "duration": 0.411,
      "velocity": 1,
      "hand": "left"
    },
    {
      "midi": 57,
      "time": 116.096,
      "duration": 0.205,
      "velocity": 1,
      "hand": "left"
    },
    {
      "midi": 86,
      "time": 116.096,
      "duration": 0.205,
      "velocity": 1,
      "hand": "right"
    },
    {
      "midi": 62,
      "time": 116.301,
      "duration": 0.205,
      "velocity": 1,
      "hand": "right"
    },
    {
      "midi": 85,
      "time": 116.301,
      "duration": 0.205,
      "velocity": 1,
      "hand": "right"
    },
    {
      "midi": 53,
      "time": 116.507,
      "duration": 0.411,
      "velocity": 1,
      "hand": "left"
    },
    {
      "midi": 57,
      "time": 116.507,
      "duration": 0.205,
      "velocity": 1,
      "hand": "left"
    },
    {
      "midi": 88,
      "time": 116.507,
      "duration": 0.205,
      "velocity": 1,
      "hand": "right"
    },
    {
      "midi": 62,
      "time": 116.712,
      "duration": 0.205,
      "velocity": 1,
      "hand": "right"
    },
    {
      "midi": 86,
      "time": 116.712,
      "duration": 0.205,
      "velocity": 1,
      "hand": "right"
    },
    {
      "midi": 53,
      "time": 116.918,
      "duration": 0.411,
      "velocity": 1,
      "hand": "left"
    },
    {
      "midi": 57,
      "time": 116.918,
      "duration": 0.205,
      "velocity": 1,
      "hand": "left"
    },
    {
      "midi": 84,
      "time": 116.918,
      "duration": 0.205,
      "velocity": 1,
      "hand": "right"
    },
    {
      "midi": 62,
      "time": 117.123,
      "duration": 0.205,
      "velocity": 1,
      "hand": "right"
    },
    {
      "midi": 83,
      "time": 117.123,
      "duration": 0.205,
      "velocity": 1,
      "hand": "right"
    },
    {
      "midi": 52,
      "time": 117.329,
      "duration": 0.411,
      "velocity": 1,
      "hand": "left"
    },
    {
      "midi": 59,
      "time": 117.329,
      "duration": 0.205,
      "velocity": 1,
      "hand": "left"
    },
    {
      "midi": 81,
      "time": 117.329,
      "duration": 0.822,
      "velocity": 1,
      "hand": "right"
    },
    {
      "midi": 62,
      "time": 117.534,
      "duration": 0.205,
      "velocity": 1,
      "hand": "right"
    },
    {
      "midi": 52,
      "time": 117.74,
      "duration": 0.411,
      "velocity": 1,
      "hand": "left"
    },
    {
      "midi": 59,
      "time": 117.74,
      "duration": 0.205,
      "velocity": 1,
      "hand": "left"
    },
    {
      "midi": 62,
      "time": 117.945,
      "duration": 0.205,
      "velocity": 1,
      "hand": "right"
    },
    {
      "midi": 52,
      "time": 118.151,
      "duration": 0.411,
      "velocity": 1,
      "hand": "left"
    },
    {
      "midi": 59,
      "time": 118.151,
      "duration": 0.205,
      "velocity": 1,
      "hand": "left"
    },
    {
      "midi": 80,
      "time": 118.151,
      "duration": 0.411,
      "velocity": 1,
      "hand": "right"
    },
    {
      "midi": 81,
      "time": 118.151,
      "duration": 0.051,
      "velocity": 1,
      "hand": "right"
    },
    {
      "midi": 83,
      "time": 118.151,
      "duration": 0.051,
      "velocity": 1,
      "hand": "right"
    },
    {
      "midi": 62,
      "time": 118.356,
      "duration": 0.205,
      "velocity": 1,
      "hand": "right"
    },
    {
      "midi": 52,
      "time": 118.562,
      "duration": 0.411,
      "velocity": 1,
      "hand": "left"
    },
    {
      "midi": 59,
      "time": 118.562,
      "duration": 0.205,
      "velocity": 1,
      "hand": "left"
    },
    {
      "midi": 62,
      "time": 118.767,
      "duration": 0.205,
      "velocity": 1,
      "hand": "right"
    },
    {
      "midi": 57,
      "time": 118.973,
      "duration": 0.103,
      "velocity": 1,
      "hand": "left"
    },
    {
      "midi": 72,
      "time": 118.973,
      "duration": 0.822,
      "velocity": 1,
      "hand": "right"
    },
    {
      "midi": 84,
      "time": 118.973,
      "duration": 0.822,
      "velocity": 1,
      "hand": "right"
    },
    {
      "midi": 64,
      "time": 119.075,
      "duration": 0.103,
      "velocity": 1,
      "hand": "right"
    },
    {
      "midi": 60,
      "time": 119.178,
      "duration": 0.103,
      "velocity": 1,
      "hand": "right"
    },
    {
      "midi": 64,
      "time": 119.281,
      "duration": 0.103,
      "velocity": 1,
      "hand": "right"
    },
    {
      "midi": 57,
      "time": 119.384,
      "duration": 0.103,
      "velocity": 1,
      "hand": "left"
    },
    {
      "midi": 64,
      "time": 119.486,
      "duration": 0.103,
      "velocity": 1,
      "hand": "right"
    },
    {
      "midi": 60,
      "time": 119.589,
      "duration": 0.103,
      "velocity": 1,
      "hand": "right"
    },
    {
      "midi": 64,
      "time": 119.692,
      "duration": 0.103,
      "velocity": 1,
      "hand": "right"
    },
    {
      "midi": 57,
      "time": 119.795,
      "duration": 0.103,
      "velocity": 1,
      "hand": "left"
    },
    {
      "midi": 69,
      "time": 119.795,
      "duration": 0.822,
      "velocity": 1,
      "hand": "right"
    },
    {
      "midi": 81,
      "time": 119.795,
      "duration": 0.822,
      "velocity": 1,
      "hand": "right"
    },
    {
      "midi": 65,
      "time": 119.897,
      "duration": 0.103,
      "velocity": 1,
      "hand": "right"
    },
    {
      "midi": 60,
      "time": 120,
      "duration": 0.103,
      "velocity": 1,
      "hand": "right"
    },
    {
      "midi": 65,
      "time": 120.103,
      "duration": 0.103,
      "velocity": 1,
      "hand": "right"
    },
    {
      "midi": 57,
      "time": 120.205,
      "duration": 0.103,
      "velocity": 1,
      "hand": "left"
    },
    {
      "midi": 65,
      "time": 120.308,
      "duration": 0.103,
      "velocity": 1,
      "hand": "right"
    },
    {
      "midi": 60,
      "time": 120.411,
      "duration": 0.103,
      "velocity": 1,
      "hand": "right"
    },
    {
      "midi": 65,
      "time": 120.514,
      "duration": 0.103,
      "velocity": 1,
      "hand": "right"
    },
    {
      "midi": 57,
      "time": 120.616,
      "duration": 0.103,
      "velocity": 1,
      "hand": "left"
    },
    {
      "midi": 87,
      "time": 120.616,
      "duration": 0.616,
      "velocity": 1,
      "hand": "right"
    },
    {
      "midi": 66,
      "time": 120.719,
      "duration": 0.103,
      "velocity": 1,
      "hand": "right"
    },
    {
      "midi": 60,
      "time": 120.822,
      "duration": 0.103,
      "velocity": 1,
      "hand": "right"
    },
    {
      "midi": 66,
      "time": 120.925,
      "duration": 0.103,
      "velocity": 1,
      "hand": "right"
    },
    {
      "midi": 57,
      "time": 121.027,
      "duration": 0.103,
      "velocity": 1,
      "hand": "left"
    },
    {
      "midi": 66,
      "time": 121.13,
      "duration": 0.103,
      "velocity": 1,
      "hand": "right"
    },
    {
      "midi": 60,
      "time": 121.233,
      "duration": 0.103,
      "velocity": 1,
      "hand": "right"
    },
    {
      "midi": 88,
      "time": 121.233,
      "duration": 0.103,
      "velocity": 1,
      "hand": "right"
    },
    {
      "midi": 66,
      "time": 121.336,
      "duration": 0.103,
      "velocity": 1,
      "hand": "right"
    },
    {
      "midi": 87,
      "time": 121.336,
      "duration": 0.103,
      "velocity": 1,
      "hand": "right"
    },
    {
      "midi": 56,
      "time": 121.438,
      "duration": 0.103,
      "velocity": 1,
      "hand": "left"
    },
    {
      "midi": 88,
      "time": 121.438,
      "duration": 0.411,
      "velocity": 1,
      "hand": "right"
    },
    {
      "midi": 64,
      "time": 121.541,
      "duration": 0.103,
      "velocity": 1,
      "hand": "right"
    },
    {
      "midi": 59,
      "time": 121.644,
      "duration": 0.103,
      "velocity": 1,
      "hand": "left"
    },
    {
      "midi": 64,
      "time": 121.747,
      "duration": 0.103,
      "velocity": 1,
      "hand": "right"
    },
    {
      "midi": 56,
      "time": 121.849,
      "duration": 0.103,
      "velocity": 1,
      "hand": "left"
    },
    {
      "midi": 64,
      "time": 121.952,
      "duration": 0.103,
      "velocity": 1,
      "hand": "right"
    },
    {
      "midi": 59,
      "time": 122.055,
      "duration": 0.103,
      "velocity": 1,
      "hand": "left"
    },
    {
      "midi": 64,
      "time": 122.158,
      "duration": 0.103,
      "velocity": 1,
      "hand": "right"
    },
    {
      "midi": 55,
      "time": 122.26,
      "duration": 0.103,
      "velocity": 1,
      "hand": "left"
    },
    {
      "midi": 70,
      "time": 122.26,
      "duration": 0.822,
      "velocity": 1,
      "hand": "right"
    },
    {
      "midi": 82,
      "time": 122.26,
      "duration": 0.822,
      "velocity": 1,
      "hand": "right"
    },
    {
      "midi": 62,
      "time": 122.363,
      "duration": 0.103,
      "velocity": 1,
      "hand": "right"
    },
    {
      "midi": 58,
      "time": 122.466,
      "duration": 0.103,
      "velocity": 1,
      "hand": "left"
    },
    {
      "midi": 62,
      "time": 122.568,
      "duration": 0.103,
      "velocity": 1,
      "hand": "right"
    },
    {
      "midi": 55,
      "time": 122.671,
      "duration": 0.103,
      "velocity": 1,
      "hand": "left"
    },
    {
      "midi": 62,
      "time": 122.774,
      "duration": 0.103,
      "velocity": 1,
      "hand": "right"
    },
    {
      "midi": 58,
      "time": 122.877,
      "duration": 0.103,
      "velocity": 1,
      "hand": "left"
    },
    {
      "midi": 62,
      "time": 122.979,
      "duration": 0.103,
      "velocity": 1,
      "hand": "right"
    },
    {
      "midi": 55,
      "time": 123.082,
      "duration": 0.103,
      "velocity": 1,
      "hand": "left"
    },
    {
      "midi": 67,
      "time": 123.082,
      "duration": 0.822,
      "velocity": 1,
      "hand": "right"
    },
    {
      "midi": 79,
      "time": 123.082,
      "duration": 0.822,
      "velocity": 1,
      "hand": "right"
    },
    {
      "midi": 63,
      "time": 123.185,
      "duration": 0.103,
      "velocity": 1,
      "hand": "right"
    },
    {
      "midi": 58,
      "time": 123.288,
      "duration": 0.103,
      "velocity": 1,
      "hand": "left"
    },
    {
      "midi": 63,
      "time": 123.39,
      "duration": 0.103,
      "velocity": 1,
      "hand": "right"
    },
    {
      "midi": 55,
      "time": 123.493,
      "duration": 0.103,
      "velocity": 1,
      "hand": "left"
    },
    {
      "midi": 63,
      "time": 123.596,
      "duration": 0.103,
      "velocity": 1,
      "hand": "right"
    },
    {
      "midi": 58,
      "time": 123.699,
      "duration": 0.103,
      "velocity": 1,
      "hand": "left"
    },
    {
      "midi": 63,
      "time": 123.801,
      "duration": 0.103,
      "velocity": 1,
      "hand": "right"
    },
    {
      "midi": 55,
      "time": 123.904,
      "duration": 0.103,
      "velocity": 1,
      "hand": "left"
    },
    {
      "midi": 85,
      "time": 123.904,
      "duration": 0.616,
      "velocity": 1,
      "hand": "right"
    },
    {
      "midi": 64,
      "time": 124.007,
      "duration": 0.103,
      "velocity": 1,
      "hand": "right"
    },
    {
      "midi": 58,
      "time": 124.11,
      "duration": 0.103,
      "velocity": 1,
      "hand": "left"
    },
    {
      "midi": 64,
      "time": 124.212,
      "duration": 0.103,
      "velocity": 1,
      "hand": "right"
    },
    {
      "midi": 55,
      "time": 124.315,
      "duration": 0.103,
      "velocity": 1,
      "hand": "left"
    },
    {
      "midi": 64,
      "time": 124.418,
      "duration": 0.103,
      "velocity": 1,
      "hand": "right"
    },
    {
      "midi": 58,
      "time": 124.521,
      "duration": 0.103,
      "velocity": 1,
      "hand": "left"
    },
    {
      "midi": 86,
      "time": 124.521,
      "duration": 0.103,
      "velocity": 1,
      "hand": "right"
    },
    {
      "midi": 64,
      "time": 124.623,
      "duration": 0.103,
      "velocity": 1,
      "hand": "right"
    },
    {
      "midi": 85,
      "time": 124.623,
      "duration": 0.103,
      "velocity": 1,
      "hand": "right"
    },
    {
      "midi": 54,
      "time": 124.726,
      "duration": 0.103,
      "velocity": 1,
      "hand": "left"
    },
    {
      "midi": 86,
      "time": 124.726,
      "duration": 0.411,
      "velocity": 1,
      "hand": "right"
    },
    {
      "midi": 62,
      "time": 124.829,
      "duration": 0.103,
      "velocity": 1,
      "hand": "right"
    },
    {
      "midi": 57,
      "time": 124.932,
      "duration": 0.103,
      "velocity": 1,
      "hand": "left"
    },
    {
      "midi": 62,
      "time": 125.034,
      "duration": 0.103,
      "velocity": 1,
      "hand": "right"
    },
    {
      "midi": 54,
      "time": 125.137,
      "duration": 0.103,
      "velocity": 1,
      "hand": "left"
    },
    {
      "midi": 62,
      "time": 125.24,
      "duration": 0.103,
      "velocity": 1,
      "hand": "right"
    },
    {
      "midi": 57,
      "time": 125.342,
      "duration": 0.103,
      "velocity": 1,
      "hand": "left"
    },
    {
      "midi": 62,
      "time": 125.445,
      "duration": 0.103,
      "velocity": 1,
      "hand": "right"
    },
    {
      "midi": 53,
      "time": 125.548,
      "duration": 0.103,
      "velocity": 1,
      "hand": "left"
    },
    {
      "midi": 83,
      "time": 125.548,
      "duration": 0.616,
      "velocity": 1,
      "hand": "right"
    },
    {
      "midi": 62,
      "time": 125.651,
      "duration": 0.103,
      "velocity": 1,
      "hand": "right"
    },
    {
      "midi": 56,
      "time": 125.753,
      "duration": 0.103,
      "velocity": 1,
      "hand": "left"
    },
    {
      "midi": 62,
      "time": 125.856,
      "duration": 0.103,
      "velocity": 1,
      "hand": "right"
    },
    {
      "midi": 53,
      "time": 125.959,
      "duration": 0.103,
      "velocity": 1,
      "hand": "left"
    },
    {
      "midi": 62,
      "time": 126.062,
      "duration": 0.103,
      "velocity": 1,
      "hand": "right"
    },
    {
      "midi": 56,
      "time": 126.164,
      "duration": 0.103,
      "velocity": 1,
      "hand": "left"
    },
    {
      "midi": 84,
      "time": 126.164,
      "duration": 0.103,
      "velocity": 1,
      "hand": "right"
    },
    {
      "midi": 62,
      "time": 126.267,
      "duration": 0.103,
      "velocity": 1,
      "hand": "right"
    },
    {
      "midi": 83,
      "time": 126.267,
      "duration": 0.103,
      "velocity": 1,
      "hand": "right"
    },
    {
      "midi": 52,
      "time": 126.37,
      "duration": 0.103,
      "velocity": 1,
      "hand": "left"
    },
    {
      "midi": 84,
      "time": 126.37,
      "duration": 0.411,
      "velocity": 1,
      "hand": "right"
    },
    {
      "midi": 60,
      "time": 126.473,
      "duration": 0.103,
      "velocity": 1,
      "hand": "right"
    },
    {
      "midi": 55,
      "time": 126.575,
      "duration": 0.103,
      "velocity": 1,
      "hand": "left"
    },
    {
      "midi": 60,
      "time": 126.678,
      "duration": 0.103,
      "velocity": 1,
      "hand": "right"
    },
    {
      "midi": 52,
      "time": 126.781,
      "duration": 0.103,
      "velocity": 1,
      "hand": "left"
    },
    {
      "midi": 60,
      "time": 126.884,
      "duration": 0.103,
      "velocity": 1,
      "hand": "right"
    },
    {
      "midi": 55,
      "time": 126.986,
      "duration": 0.103,
      "velocity": 1,
      "hand": "left"
    },
    {
      "midi": 60,
      "time": 127.089,
      "duration": 0.103,
      "velocity": 1,
      "hand": "right"
    },
    {
      "midi": 50,
      "time": 127.192,
      "duration": 0.103,
      "velocity": 1,
      "hand": "left"
    },
    {
      "midi": 80,
      "time": 127.192,
      "duration": 0.616,
      "velocity": 1,
      "hand": "right"
    },
    {
      "midi": 59,
      "time": 127.295,
      "duration": 0.103,
      "velocity": 1,
      "hand": "left"
    },
    {
      "midi": 53,
      "time": 127.397,
      "duration": 0.103,
      "velocity": 1,
      "hand": "left"
    },
    {
      "midi": 59,
      "time": 127.5,
      "duration": 0.103,
      "velocity": 1,
      "hand": "left"
    },
    {
      "midi": 50,
      "time": 127.603,
      "duration": 0.103,
      "velocity": 1,
      "hand": "left"
    },
    {
      "midi": 59,
      "time": 127.705,
      "duration": 0.103,
      "velocity": 1,
      "hand": "left"
    },
    {
      "midi": 53,
      "time": 127.808,
      "duration": 0.103,
      "velocity": 1,
      "hand": "left"
    },
    {
      "midi": 81,
      "time": 127.808,
      "duration": 0.103,
      "velocity": 1,
      "hand": "right"
    },
    {
      "midi": 59,
      "time": 127.911,
      "duration": 0.103,
      "velocity": 1,
      "hand": "left"
    },
    {
      "midi": 80,
      "time": 127.911,
      "duration": 0.103,
      "velocity": 1,
      "hand": "right"
    },
    {
      "midi": 48,
      "time": 128.014,
      "duration": 0.103,
      "velocity": 1,
      "hand": "left"
    },
    {
      "midi": 81,
      "time": 128.014,
      "duration": 0.411,
      "velocity": 1,
      "hand": "right"
    },
    {
      "midi": 57,
      "time": 128.116,
      "duration": 0.103,
      "velocity": 1,
      "hand": "left"
    },
    {
      "midi": 52,
      "time": 128.219,
      "duration": 0.103,
      "velocity": 1,
      "hand": "left"
    },
    {
      "midi": 57,
      "time": 128.322,
      "duration": 0.103,
      "velocity": 1,
      "hand": "left"
    },
    {
      "midi": 48,
      "time": 128.425,
      "duration": 0.103,
      "velocity": 1,
      "hand": "left"
    },
    {
      "midi": 57,
      "time": 128.527,
      "duration": 0.103,
      "velocity": 1,
      "hand": "left"
    },
    {
      "midi": 52,
      "time": 128.63,
      "duration": 0.103,
      "velocity": 1,
      "hand": "left"
    },
    {
      "midi": 57,
      "time": 128.733,
      "duration": 0.103,
      "velocity": 1,
      "hand": "left"
    },
    {
      "midi": 39,
      "time": 128.836,
      "duration": 0.411,
      "velocity": 1,
      "hand": "left"
    },
    {
      "midi": 51,
      "time": 128.836,
      "duration": 0.411,
      "velocity": 1,
      "hand": "left"
    },
    {
      "midi": 81,
      "time": 129.041,
      "duration": 0.205,
      "velocity": 1,
      "hand": "right"
    },
    {
      "midi": 84,
      "time": 129.247,
      "duration": 0.205,
      "velocity": 1,
      "hand": "right"
    },
    {
      "midi": 78,
      "time": 129.452,
      "duration": 0.205,
      "velocity": 1,
      "hand": "right"
    },
    {
      "midi": 81,
      "time": 129.658,
      "duration": 0.205,
      "velocity": 1,
      "hand": "right"
    },
    {
      "midi": 75,
      "time": 129.863,
      "duration": 0.205,
      "velocity": 1,
      "hand": "right"
    },
    {
      "midi": 78,
      "time": 130.068,
      "duration": 0.205,
      "velocity": 1,
      "hand": "right"
    },
    {
      "midi": 72,
      "time": 130.274,
      "duration": 0.205,
      "velocity": 1,
      "hand": "right"
    },
    {
      "midi": 75,
      "time": 130.479,
      "duration": 0.205,
      "velocity": 1,
      "hand": "right"
    },
    {
      "midi": 57,
      "time": 130.685,
      "duration": 0.205,
      "velocity": 1,
      "hand": "left"
    },
    {
      "midi": 69,
      "time": 130.685,
      "duration": 0.205,
      "velocity": 1,
      "hand": "right"
    },
    {
      "midi": 60,
      "time": 130.89,
      "duration": 0.205,
      "velocity": 1,
      "hand": "right"
    },
    {
      "midi": 72,
      "time": 130.89,
      "duration": 0.205,
      "velocity": 1,
      "hand": "right"
    },
    {
      "midi": 54,
      "time": 131.096,
      "duration": 0.205,
      "velocity": 1,
      "hand": "left"
    },
    {
      "midi": 66,
      "time": 131.096,
      "duration": 0.205,
      "velocity": 1,
      "hand": "right"
    },
    {
      "midi": 57,
      "time": 131.301,
      "duration": 0.205,
      "velocity": 1,
      "hand": "left"
    },
    {
      "midi": 69,
      "time": 131.301,
      "duration": 0.205,
      "velocity": 1,
      "hand": "right"
    },
    {
      "midi": 51,
      "time": 131.507,
      "duration": 0.205,
      "velocity": 1,
      "hand": "left"
    },
    {
      "midi": 63,
      "time": 131.507,
      "duration": 0.205,
      "velocity": 1,
      "hand": "right"
    },
    {
      "midi": 54,
      "time": 131.712,
      "duration": 0.205,
      "velocity": 1,
      "hand": "left"
    },
    {
      "midi": 66,
      "time": 131.712,
      "duration": 0.205,
      "velocity": 1,
      "hand": "right"
    },
    {
      "midi": 45,
      "time": 131.918,
      "duration": 0.205,
      "velocity": 1,
      "hand": "left"
    },
    {
      "midi": 57,
      "time": 131.918,
      "duration": 0.205,
      "velocity": 1,
      "hand": "left"
    },
    {
      "midi": 48,
      "time": 132.123,
      "duration": 0.205,
      "velocity": 1,
      "hand": "left"
    },
    {
      "midi": 60,
      "time": 132.123,
      "duration": 0.205,
      "velocity": 1,
      "hand": "right"
    },
    {
      "midi": 42,
      "time": 132.329,
      "duration": 0.205,
      "velocity": 1,
      "hand": "left"
    },
    {
      "midi": 54,
      "time": 132.329,
      "duration": 0.205,
      "velocity": 1,
      "hand": "left"
    },
    {
      "midi": 45,
      "time": 132.534,
      "duration": 0.205,
      "velocity": 1,
      "hand": "left"
    },
    {
      "midi": 57,
      "time": 132.534,
      "duration": 0.205,
      "velocity": 1,
      "hand": "left"
    },
    {
      "midi": 39,
      "time": 132.74,
      "duration": 0.205,
      "velocity": 1,
      "hand": "left"
    },
    {
      "midi": 51,
      "time": 132.74,
      "duration": 0.205,
      "velocity": 1,
      "hand": "left"
    },
    {
      "midi": 40,
      "time": 132.945,
      "duration": 0.411,
      "velocity": 1,
      "hand": "left"
    },
    {
      "midi": 52,
      "time": 132.945,
      "duration": 0.411,
      "velocity": 1,
      "hand": "left"
    },
    {
      "midi": 40,
      "time": 133.356,
      "duration": 0.411,
      "velocity": 1,
      "hand": "left"
    },
    {
      "midi": 52,
      "time": 133.356,
      "duration": 0.411,
      "velocity": 1,
      "hand": "left"
    },
    {
      "midi": 71,
      "time": 133.356,
      "duration": 0.411,
      "velocity": 1,
      "hand": "right"
    },
    {
      "midi": 74,
      "time": 133.356,
      "duration": 0.411,
      "velocity": 1,
      "hand": "right"
    },
    {
      "midi": 76,
      "time": 133.356,
      "duration": 0.411,
      "velocity": 1,
      "hand": "right"
    },
    {
      "midi": 80,
      "time": 133.356,
      "duration": 0.411,
      "velocity": 1,
      "hand": "right"
    },
    {
      "midi": 45,
      "time": 133.767,
      "duration": 0.411,
      "velocity": 1,
      "hand": "left"
    },
    {
      "midi": 57,
      "time": 133.767,
      "duration": 0.411,
      "velocity": 1,
      "hand": "left"
    },
    {
      "midi": 72,
      "time": 133.767,
      "duration": 0.411,
      "velocity": 1,
      "hand": "right"
    },
    {
      "midi": 76,
      "time": 133.767,
      "duration": 0.411,
      "velocity": 1,
      "hand": "right"
    },
    {
      "midi": 81,
      "time": 133.767,
      "duration": 0.411,
      "velocity": 1,
      "hand": "right"
    },
    {
      "midi": 69,
      "time": 134.178,
      "duration": 0.411,
      "velocity": 1,
      "hand": "right"
    },
    {
      "midi": 72,
      "time": 134.384,
      "duration": 0.205,
      "velocity": 1,
      "hand": "right"
    },
    {
      "midi": 71,
      "time": 134.589,
      "duration": 0.411,
      "velocity": 1,
      "hand": "right"
    },
    {
      "midi": 76,
      "time": 134.589,
      "duration": 0.205,
      "velocity": 1,
      "hand": "right"
    },
    {
      "midi": 74,
      "time": 134.795,
      "duration": 0.205,
      "velocity": 1,
      "hand": "right"
    },
    {
      "midi": 68,
      "time": 135,
      "duration": 0.411,
      "velocity": 1,
      "hand": "right"
    },
    {
      "midi": 71,
      "time": 135.205,
      "duration": 0.205,
      "velocity": 1,
      "hand": "right"
    },
    {
      "midi": 69,
      "time": 135.411,
      "duration": 0.411,
      "velocity": 1,
      "hand": "right"
    },
    {
      "midi": 74,
      "time": 135.411,
      "duration": 0.205,
      "velocity": 1,
      "hand": "right"
    },
    {
      "midi": 72,
      "time": 135.616,
      "duration": 0.205,
      "velocity": 1,
      "hand": "right"
    },
    {
      "midi": 65,
      "time": 135.822,
      "duration": 0.411,
      "velocity": 1,
      "hand": "right"
    },
    {
      "midi": 69,
      "time": 136.027,
      "duration": 0.205,
      "velocity": 1,
      "hand": "right"
    },
    {
      "midi": 62,
      "time": 136.233,
      "duration": 0.411,
      "velocity": 1,
      "hand": "right"
    },
    {
      "midi": 72,
      "time": 136.233,
      "duration": 0.205,
      "velocity": 1,
      "hand": "right"
    },
    {
      "midi": 71,
      "time": 136.438,
      "duration": 0.205,
      "velocity": 1,
      "hand": "right"
    },
    {
      "midi": 64,
      "time": 136.644,
      "duration": 0.411,
      "velocity": 1,
      "hand": "right"
    },
    {
      "midi": 68,
      "time": 136.849,
      "duration": 0.205,
      "velocity": 1,
      "hand": "right"
    },
    {
      "midi": 60,
      "time": 137.055,
      "duration": 0.411,
      "velocity": 1,
      "hand": "right"
    },
    {
      "midi": 71,
      "time": 137.055,
      "duration": 0.205,
      "velocity": 1,
      "hand": "right"
    },
    {
      "midi": 69,
      "time": 137.26,
      "duration": 0.205,
      "velocity": 1,
      "hand": "right"
    },
    {
      "midi": 45,
      "time": 137.466,
      "duration": 0.411,
      "velocity": 1,
      "hand": "left"
    },
    {
      "midi": 57,
      "time": 137.466,
      "duration": 0.411,
      "velocity": 1,
      "hand": "left"
    },
    {
      "midi": 72,
      "time": 137.466,
      "duration": 0.103,
      "velocity": 1,
      "hand": "right"
    },
    {
      "midi": 74,
      "time": 137.568,
      "duration": 0.103,
      "velocity": 1,
      "hand": "right"
    },
    {
      "midi": 76,
      "time": 137.671,
      "duration": 0.103,
      "velocity": 1,
      "hand": "right"
    },
    {
      "midi": 72,
      "time": 137.774,
      "duration": 0.103,
      "velocity": 1,
      "hand": "right"
    },
    {
      "midi": 47,
      "time": 137.877,
      "duration": 0.411,
      "velocity": 1,
      "hand": "left"
    },
    {
      "midi": 59,
      "time": 137.877,
      "duration": 0.411,
      "velocity": 1,
      "hand": "left"
    },
    {
      "midi": 74,
      "time": 137.877,
      "duration": 0.103,
      "velocity": 1,
      "hand": "right"
    },
    {
      "midi": 76,
      "time": 137.979,
      "duration": 0.103,
      "velocity": 1,
      "hand": "right"
    },
    {
      "midi": 77,
      "time": 138.082,
      "duration": 0.103,
      "velocity": 1,
      "hand": "right"
    },
    {
      "midi": 74,
      "time": 138.185,
      "duration": 0.103,
      "velocity": 1,
      "hand": "right"
    },
    {
      "midi": 44,
      "time": 138.288,
      "duration": 0.411,
      "velocity": 1,
      "hand": "left"
    },
    {
      "midi": 56,
      "time": 138.288,
      "duration": 0.411,
      "velocity": 1,
      "hand": "left"
    },
    {
      "midi": 71,
      "time": 138.288,
      "duration": 0.103,
      "velocity": 1,
      "hand": "right"
    },
    {
      "midi": 72,
      "time": 138.39,
      "duration": 0.103,
      "velocity": 1,
      "hand": "right"
    },
    {
      "midi": 74,
      "time": 138.493,
      "duration": 0.103,
      "velocity": 1,
      "hand": "right"
    },
    {
      "midi": 71,
      "time": 138.596,
      "duration": 0.103,
      "velocity": 1,
      "hand": "right"
    },
    {
      "midi": 45,
      "time": 138.699,
      "duration": 0.411,
      "velocity": 1,
      "hand": "left"
    },
    {
      "midi": 57,
      "time": 138.699,
      "duration": 0.411,
      "velocity": 1,
      "hand": "left"
    },
    {
      "midi": 72,
      "time": 138.699,
      "duration": 0.103,
      "velocity": 1,
      "hand": "right"
    },
    {
      "midi": 74,
      "time": 138.801,
      "duration": 0.103,
      "velocity": 1,
      "hand": "right"
    },
    {
      "midi": 76,
      "time": 138.904,
      "duration": 0.103,
      "velocity": 1,
      "hand": "right"
    },
    {
      "midi": 72,
      "time": 139.007,
      "duration": 0.103,
      "velocity": 1,
      "hand": "right"
    },
    {
      "midi": 41,
      "time": 139.11,
      "duration": 0.411,
      "velocity": 1,
      "hand": "left"
    },
    {
      "midi": 53,
      "time": 139.11,
      "duration": 0.411,
      "velocity": 1,
      "hand": "left"
    },
    {
      "midi": 69,
      "time": 139.11,
      "duration": 0.103,
      "velocity": 1,
      "hand": "right"
    },
    {
      "midi": 71,
      "time": 139.212,
      "duration": 0.103,
      "velocity": 1,
      "hand": "right"
    },
    {
      "midi": 72,
      "time": 139.315,
      "duration": 0.103,
      "velocity": 1,
      "hand": "right"
    },
    {
      "midi": 69,
      "time": 139.418,
      "duration": 0.103,
      "velocity": 1,
      "hand": "right"
    },
    {
      "midi": 38,
      "time": 139.521,
      "duration": 0.411,
      "velocity": 1,
      "hand": "left"
    },
    {
      "midi": 50,
      "time": 139.521,
      "duration": 0.411,
      "velocity": 1,
      "hand": "left"
    },
    {
      "midi": 71,
      "time": 139.521,
      "duration": 0.103,
      "velocity": 1,
      "hand": "right"
    },
    {
      "midi": 72,
      "time": 139.623,
      "duration": 0.103,
      "velocity": 1,
      "hand": "right"
    },
    {
      "midi": 74,
      "time": 139.726,
      "duration": 0.103,
      "velocity": 1,
      "hand": "right"
    },
    {
      "midi": 71,
      "time": 139.829,
      "duration": 0.103,
      "velocity": 1,
      "hand": "right"
    },
    {
      "midi": 40,
      "time": 139.932,
      "duration": 0.411,
      "velocity": 1,
      "hand": "left"
    },
    {
      "midi": 52,
      "time": 139.932,
      "duration": 0.411,
      "velocity": 1,
      "hand": "left"
    },
    {
      "midi": 68,
      "time": 139.932,
      "duration": 0.103,
      "velocity": 1,
      "hand": "right"
    },
    {
      "midi": 69,
      "time": 140.034,
      "duration": 0.103,
      "velocity": 1,
      "hand": "right"
    },
    {
      "midi": 71,
      "time": 140.137,
      "duration": 0.103,
      "velocity": 1,
      "hand": "right"
    },
    {
      "midi": 68,
      "time": 140.24,
      "duration": 0.103,
      "velocity": 1,
      "hand": "right"
    },
    {
      "midi": 57,
      "time": 140.342,
      "duration": 0.051,
      "velocity": 1,
      "hand": "left"
    },
    {
      "midi": 60,
      "time": 140.342,
      "duration": 0.051,
      "velocity": 1,
      "hand": "right"
    },
    {
      "midi": 33,
      "time": 140.445,
      "duration": 0.822,
      "velocity": 1,
      "hand": "left"
    },
    {
      "midi": 45,
      "time": 140.445,
      "duration": 0.822,
      "velocity": 1,
      "hand": "left"
    },
    {
      "midi": 64,
      "time": 140.445,
      "duration": 0.051,
      "velocity": 1,
      "hand": "right"
    },
    {
      "midi": 69,
      "time": 140.445,
      "duration": 0.822,
      "velocity": 1,
      "hand": "right"
    },
    {
      "midi": 40,
      "time": 141.267,
      "duration": 0.822,
      "velocity": 1,
      "hand": "left"
    },
    {
      "midi": 64,
      "time": 141.267,
      "duration": 0.822,
      "velocity": 1,
      "hand": "right"
    },
    {
      "midi": 48,
      "time": 142.089,
      "duration": 0.616,
      "velocity": 1,
      "hand": "left"
    },
    {
      "midi": 72,
      "time": 142.089,
      "duration": 0.616,
      "velocity": 1,
      "hand": "right"
    },
    {
      "midi": 50,
      "time": 142.705,
      "duration": 0.103,
      "velocity": 1,
      "hand": "left"
    },
    {
      "midi": 74,
      "time": 142.705,
      "duration": 0.103,
      "velocity": 1,
      "hand": "right"
    },
    {
      "midi": 47,
      "time": 142.808,
      "duration": 0.103,
      "velocity": 1,
      "hand": "left"
    },
    {
      "midi": 71,
      "time": 142.808,
      "duration": 0.103,
      "velocity": 1,
      "hand": "right"
    },
    {
      "midi": 45,
      "time": 142.911,
      "duration": 0.411,
      "velocity": 1,
      "hand": "left"
    },
    {
      "midi": 69,
      "time": 142.911,
      "duration": 0.411,
      "velocity": 1,
      "hand": "right"
    },
    {
      "midi": 72,
      "time": 143.733,
      "duration": 0.616,
      "velocity": 1,
      "hand": "right"
    },
    {
      "midi": 76,
      "time": 143.733,
      "duration": 0.616,
      "velocity": 1,
      "hand": "right"
    },
    {
      "midi": 74,
      "time": 144.349,
      "duration": 0.103,
      "velocity": 1,
      "hand": "right"
    },
    {
      "midi": 77,
      "time": 144.349,
      "duration": 0.103,
      "velocity": 1,
      "hand": "right"
    },
    {
      "midi": 71,
      "time": 144.452,
      "duration": 0.103,
      "velocity": 1,
      "hand": "right"
    },
    {
      "midi": 74,
      "time": 144.452,
      "duration": 0.103,
      "velocity": 1,
      "hand": "right"
    },
    {
      "midi": 69,
      "time": 144.555,
      "duration": 0.411,
      "velocity": 1,
      "hand": "right"
    },
    {
      "midi": 72,
      "time": 144.555,
      "duration": 0.411,
      "velocity": 1,
      "hand": "right"
    },
    {
      "midi": 76,
      "time": 145.377,
      "duration": 0.616,
      "velocity": 1,
      "hand": "right"
    },
    {
      "midi": 84,
      "time": 145.377,
      "duration": 0.616,
      "velocity": 1,
      "hand": "right"
    },
    {
      "midi": 77,
      "time": 145.993,
      "duration": 0.103,
      "velocity": 1,
      "hand": "right"
    },
    {
      "midi": 86,
      "time": 145.993,
      "duration": 0.103,
      "velocity": 1,
      "hand": "right"
    },
    {
      "midi": 74,
      "time": 146.096,
      "duration": 0.103,
      "velocity": 1,
      "hand": "right"
    },
    {
      "midi": 83,
      "time": 146.096,
      "duration": 0.103,
      "velocity": 1,
      "hand": "right"
    },
    {
      "midi": 72,
      "time": 146.199,
      "duration": 0.411,
      "velocity": 1,
      "hand": "right"
    },
    {
      "midi": 81,
      "time": 146.199,
      "duration": 0.411,
      "velocity": 1,
      "hand": "right"
    },
    {
      "midi": 59,
      "time": 147.021,
      "duration": 0.051,
      "velocity": 1,
      "hand": "left"
    },
    {
      "midi": 62,
      "time": 147.123,
      "duration": 0.051,
      "velocity": 1,
      "hand": "right"
    },
    {
      "midi": 67,
      "time": 147.123,
      "duration": 0.051,
      "velocity": 1,
      "hand": "right"
    },
    {
      "midi": 35,
      "time": 147.226,
      "duration": 0.822,
      "velocity": 1,
      "hand": "left"
    },
    {
      "midi": 47,
      "time": 147.226,
      "duration": 0.822,
      "velocity": 1,
      "hand": "left"
    },
    {
      "midi": 71,
      "time": 147.226,
      "duration": 0.822,
      "velocity": 1,
      "hand": "right"
    },
    {
      "midi": 31,
      "time": 148.048,
      "duration": 0.822,
      "velocity": 1,
      "hand": "left"
    },
    {
      "midi": 43,
      "time": 148.048,
      "duration": 0.822,
      "velocity": 1,
      "hand": "left"
    },
    {
      "midi": 67,
      "time": 148.048,
      "duration": 0.822,
      "velocity": 1,
      "hand": "right"
    },
    {
      "midi": 50,
      "time": 148.87,
      "duration": 0.616,
      "velocity": 1,
      "hand": "left"
    },
    {
      "midi": 74,
      "time": 148.87,
      "duration": 0.616,
      "velocity": 1,
      "hand": "right"
    },
    {
      "midi": 52,
      "time": 149.486,
      "duration": 0.103,
      "velocity": 1,
      "hand": "left"
    },
    {
      "midi": 76,
      "time": 149.486,
      "duration": 0.103,
      "velocity": 1,
      "hand": "right"
    },
    {
      "midi": 48,
      "time": 149.589,
      "duration": 0.103,
      "velocity": 1,
      "hand": "left"
    },
    {
      "midi": 72,
      "time": 149.589,
      "duration": 0.103,
      "velocity": 1,
      "hand": "right"
    },
    {
      "midi": 47,
      "time": 149.692,
      "duration": 0.411,
      "velocity": 1,
      "hand": "left"
    },
    {
      "midi": 71,
      "time": 149.692,
      "duration": 0.411,
      "velocity": 1,
      "hand": "right"
    },
    {
      "midi": 74,
      "time": 150.514,
      "duration": 0.616,
      "velocity": 1,
      "hand": "right"
    },
    {
      "midi": 77,
      "time": 150.514,
      "duration": 0.616,
      "velocity": 1,
      "hand": "right"
    },
    {
      "midi": 76,
      "time": 151.13,
      "duration": 0.103,
      "velocity": 1,
      "hand": "right"
    },
    {
      "midi": 79,
      "time": 151.13,
      "duration": 0.103,
      "velocity": 1,
      "hand": "right"
    },
    {
      "midi": 72,
      "time": 151.233,
      "duration": 0.103,
      "velocity": 1,
      "hand": "right"
    },
    {
      "midi": 76,
      "time": 151.233,
      "duration": 0.103,
      "velocity": 1,
      "hand": "right"
    },
    {
      "midi": 71,
      "time": 151.336,
      "duration": 0.411,
      "velocity": 1,
      "hand": "right"
    },
    {
      "midi": 74,
      "time": 151.336,
      "duration": 0.411,
      "velocity": 1,
      "hand": "right"
    },
    {
      "midi": 77,
      "time": 152.158,
      "duration": 0.616,
      "velocity": 1,
      "hand": "right"
    },
    {
      "midi": 86,
      "time": 152.158,
      "duration": 0.616,
      "velocity": 1,
      "hand": "right"
    },
    {
      "midi": 79,
      "time": 152.774,
      "duration": 0.103,
      "velocity": 1,
      "hand": "right"
    },
    {
      "midi": 88,
      "time": 152.774,
      "duration": 0.103,
      "velocity": 1,
      "hand": "right"
    },
    {
      "midi": 76,
      "time": 152.877,
      "duration": 0.103,
      "velocity": 1,
      "hand": "right"
    },
    {
      "midi": 84,
      "time": 152.877,
      "duration": 0.103,
      "velocity": 1,
      "hand": "right"
    },
    {
      "midi": 74,
      "time": 152.979,
      "duration": 0.411,
      "velocity": 1,
      "hand": "right"
    },
    {
      "midi": 83,
      "time": 152.979,
      "duration": 0.411,
      "velocity": 1,
      "hand": "right"
    },
    {
      "midi": 60,
      "time": 153.801,
      "duration": 0.051,
      "velocity": 1,
      "hand": "right"
    },
    {
      "midi": 64,
      "time": 153.801,
      "duration": 0.051,
      "velocity": 1,
      "hand": "right"
    },
    {
      "midi": 36,
      "time": 153.904,
      "duration": 0.822,
      "velocity": 1,
      "hand": "left"
    },
    {
      "midi": 48,
      "time": 153.904,
      "duration": 0.822,
      "velocity": 1,
      "hand": "left"
    },
    {
      "midi": 67,
      "time": 153.904,
      "duration": 0.051,
      "velocity": 1,
      "hand": "right"
    },
    {
      "midi": 72,
      "time": 153.904,
      "duration": 0.822,
      "velocity": 1,
      "hand": "right"
    },
    {
      "midi": 31,
      "time": 154.726,
      "duration": 0.822,
      "velocity": 1,
      "hand": "left"
    },
    {
      "midi": 43,
      "time": 154.726,
      "duration": 0.822,
      "velocity": 1,
      "hand": "left"
    },
    {
      "midi": 67,
      "time": 154.726,
      "duration": 0.822,
      "velocity": 1,
      "hand": "right"
    },
    {
      "midi": 52,
      "time": 155.548,
      "duration": 0.616,
      "velocity": 1,
      "hand": "left"
    },
    {
      "midi": 76,
      "time": 155.548,
      "duration": 0.616,
      "velocity": 1,
      "hand": "right"
    },
    {
      "midi": 53,
      "time": 156.164,
      "duration": 0.103,
      "velocity": 1,
      "hand": "left"
    },
    {
      "midi": 77,
      "time": 156.164,
      "duration": 0.103,
      "velocity": 1,
      "hand": "right"
    },
    {
      "midi": 50,
      "time": 156.267,
      "duration": 0.103,
      "velocity": 1,
      "hand": "left"
    },
    {
      "midi": 74,
      "time": 156.267,
      "duration": 0.103,
      "velocity": 1,
      "hand": "right"
    },
    {
      "midi": 48,
      "time": 156.37,
      "duration": 0.411,
      "velocity": 1,
      "hand": "left"
    },
    {
      "midi": 72,
      "time": 156.37,
      "duration": 0.411,
      "velocity": 1,
      "hand": "right"
    },
    {
      "midi": 64,
      "time": 157.192,
      "duration": 0.205,
      "velocity": 1,
      "hand": "right"
    },
    {
      "midi": 79,
      "time": 157.192,
      "duration": 0.411,
      "velocity": 1,
      "hand": "right"
    },
    {
      "midi": 67,
      "time": 157.397,
      "duration": 0.205,
      "velocity": 1,
      "hand": "right"
    },
    {
      "midi": 64,
      "time": 157.603,
      "duration": 0.205,
      "velocity": 1,
      "hand": "right"
    },
    {
      "midi": 79,
      "time": 157.603,
      "duration": 0.411,
      "velocity": 1,
      "hand": "right"
    },
    {
      "midi": 67,
      "time": 157.808,
      "duration": 0.205,
      "velocity": 1,
      "hand": "right"
    },
    {
      "midi": 61,
      "time": 158.014,
      "duration": 0.205,
      "velocity": 1,
      "hand": "right"
    },
    {
      "midi": 67,
      "time": 158.219,
      "duration": 0.205,
      "velocity": 1,
      "hand": "right"
    },
    {
      "midi": 61,
      "time": 158.425,
      "duration": 0.205,
      "velocity": 1,
      "hand": "right"
    },
    {
      "midi": 81,
      "time": 158.425,
      "duration": 0.411,
      "velocity": 1,
      "hand": "right"
    },
    {
      "midi": 67,
      "time": 158.63,
      "duration": 0.205,
      "velocity": 1,
      "hand": "right"
    },
    {
      "midi": 62,
      "time": 158.836,
      "duration": 0.205,
      "velocity": 1,
      "hand": "right"
    },
    {
      "midi": 79,
      "time": 158.836,
      "duration": 0.103,
      "velocity": 1,
      "hand": "right"
    },
    {
      "midi": 77,
      "time": 158.938,
      "duration": 0.308,
      "velocity": 1,
      "hand": "right"
    },
    {
      "midi": 67,
      "time": 159.041,
      "duration": 0.205,
      "velocity": 1,
      "hand": "right"
    },
    {
      "midi": 62,
      "time": 159.247,
      "duration": 0.205,
      "velocity": 1,
      "hand": "right"
    },
    {
      "midi": 77,
      "time": 159.247,
      "duration": 0.411,
      "velocity": 1,
      "hand": "right"
    },
    {
      "midi": 67,
      "time": 159.452,
      "duration": 0.205,
      "velocity": 1,
      "hand": "right"
    },
    {
      "midi": 59,
      "time": 159.658,
      "duration": 0.205,
      "velocity": 1,
      "hand": "left"
    },
    {
      "midi": 67,
      "time": 159.863,
      "duration": 0.205,
      "velocity": 1,
      "hand": "right"
    },
    {
      "midi": 59,
      "time": 160.068,
      "duration": 0.205,
      "velocity": 1,
      "hand": "left"
    },
    {
      "midi": 79,
      "time": 160.068,
      "duration": 0.411,
      "velocity": 1,
      "hand": "right"
    },
    {
      "midi": 67,
      "time": 160.274,
      "duration": 0.205,
      "velocity": 1,
      "hand": "right"
    },
    {
      "midi": 60,
      "time": 160.479,
      "duration": 0.205,
      "velocity": 1,
      "hand": "right"
    },
    {
      "midi": 77,
      "time": 160.479,
      "duration": 0.103,
      "velocity": 1,
      "hand": "right"
    },
    {
      "midi": 76,
      "time": 160.582,
      "duration": 0.308,
      "velocity": 1,
      "hand": "right"
    },
    {
      "midi": 67,
      "time": 160.685,
      "duration": 0.205,
      "velocity": 1,
      "hand": "right"
    },
    {
      "midi": 60,
      "time": 160.89,
      "duration": 0.205,
      "velocity": 1,
      "hand": "right"
    },
    {
      "midi": 76,
      "time": 160.89,
      "duration": 0.411,
      "velocity": 1,
      "hand": "right"
    },
    {
      "midi": 67,
      "time": 161.096,
      "duration": 0.205,
      "velocity": 1,
      "hand": "right"
    },
    {
      "midi": 64,
      "time": 161.301,
      "duration": 0.205,
      "velocity": 1,
      "hand": "right"
    },
    {
      "midi": 67,
      "time": 161.507,
      "duration": 0.205,
      "velocity": 1,
      "hand": "right"
    },
    {
      "midi": 64,
      "time": 161.712,
      "duration": 0.205,
      "velocity": 1,
      "hand": "right"
    },
    {
      "midi": 79,
      "time": 161.712,
      "duration": 0.205,
      "velocity": 1,
      "hand": "right"
    },
    {
      "midi": 67,
      "time": 161.918,
      "duration": 0.205,
      "velocity": 1,
      "hand": "right"
    },
    {
      "midi": 76,
      "time": 161.918,
      "duration": 0.205,
      "velocity": 1,
      "hand": "right"
    },
    {
      "midi": 65,
      "time": 162.123,
      "duration": 1.644,
      "velocity": 1,
      "hand": "right"
    },
    {
      "midi": 69,
      "time": 162.123,
      "duration": 1.644,
      "velocity": 1,
      "hand": "right"
    },
    {
      "midi": 73,
      "time": 162.123,
      "duration": 0.205,
      "velocity": 1,
      "hand": "right"
    },
    {
      "midi": 74,
      "time": 162.329,
      "duration": 0.205,
      "velocity": 1,
      "hand": "right"
    },
    {
      "midi": 77,
      "time": 162.534,
      "duration": 0.205,
      "velocity": 1,
      "hand": "right"
    },
    {
      "midi": 76,
      "time": 162.74,
      "duration": 0.205,
      "velocity": 1,
      "hand": "right"
    },
    {
      "midi": 73,
      "time": 162.945,
      "duration": 0.205,
      "velocity": 1,
      "hand": "right"
    },
    {
      "midi": 74,
      "time": 163.151,
      "duration": 0.205,
      "velocity": 1,
      "hand": "right"
    },
    {
      "midi": 77,
      "time": 163.356,
      "duration": 0.205,
      "velocity": 1,
      "hand": "right"
    },
    {
      "midi": 76,
      "time": 163.562,
      "duration": 0.205,
      "velocity": 1,
      "hand": "right"
    },
    {
      "midi": 73,
      "time": 163.767,
      "duration": 0.205,
      "velocity": 1,
      "hand": "right"
    },
    {
      "midi": 74,
      "time": 163.973,
      "duration": 0.205,
      "velocity": 1,
      "hand": "right"
    },
    {
      "midi": 53,
      "time": 164.178,
      "duration": 0.411,
      "velocity": 1,
      "hand": "left"
    },
    {
      "midi": 57,
      "time": 164.178,
      "duration": 0.411,
      "velocity": 1,
      "hand": "left"
    },
    {
      "midi": 62,
      "time": 164.178,
      "duration": 0.411,
      "velocity": 1,
      "hand": "right"
    },
    {
      "midi": 77,
      "time": 164.178,
      "duration": 0.205,
      "velocity": 1,
      "hand": "right"
    },
    {
      "midi": 81,
      "time": 164.384,
      "duration": 0.205,
      "velocity": 1,
      "hand": "right"
    },
    {
      "midi": 55,
      "time": 164.589,
      "duration": 0.411,
      "velocity": 1,
      "hand": "left"
    },
    {
      "midi": 60,
      "time": 164.589,
      "duration": 0.411,
      "velocity": 1,
      "hand": "right"
    },
    {
      "midi": 64,
      "time": 164.589,
      "duration": 0.411,
      "velocity": 1,
      "hand": "right"
    },
    {
      "midi": 79,
      "time": 164.589,
      "duration": 0.205,
      "velocity": 1,
      "hand": "right"
    },
    {
      "midi": 76,
      "time": 164.795,
      "duration": 0.205,
      "velocity": 1,
      "hand": "right"
    },
    {
      "midi": 55,
      "time": 165,
      "duration": 0.411,
      "velocity": 1,
      "hand": "left"
    },
    {
      "midi": 59,
      "time": 165,
      "duration": 0.411,
      "velocity": 1,
      "hand": "left"
    },
    {
      "midi": 62,
      "time": 165,
      "duration": 0.411,
      "velocity": 1,
      "hand": "right"
    },
    {
      "midi": 77,
      "time": 165,
      "duration": 0.205,
      "velocity": 1,
      "hand": "right"
    },
    {
      "midi": 74,
      "time": 165.205,
      "duration": 0.205,
      "velocity": 1,
      "hand": "right"
    },
    {
      "midi": 60,
      "time": 165.411,
      "duration": 0.051,
      "velocity": 1,
      "hand": "right"
    },
    {
      "midi": 63,
      "time": 165.514,
      "duration": 0.051,
      "velocity": 1,
      "hand": "right"
    },
    {
      "midi": 67,
      "time": 165.514,
      "duration": 0.051,
      "velocity": 1,
      "hand": "right"
    },
    {
      "midi": 36,
      "time": 165.616,
      "duration": 0.822,
      "velocity": 1,
      "hand": "left"
    },
    {
      "midi": 48,
      "time": 165.616,
      "duration": 0.822,
      "velocity": 1,
      "hand": "left"
    },
    {
      "midi": 72,
      "time": 165.616,
      "duration": 0.822,
      "velocity": 1,
      "hand": "right"
    },
    {
      "midi": 31,
      "time": 166.438,
      "duration": 0.822,
      "velocity": 1,
      "hand": "left"
    },
    {
      "midi": 43,
      "time": 166.438,
      "duration": 0.822,
      "velocity": 1,
      "hand": "left"
    },
    {
      "midi": 67,
      "time": 166.438,
      "duration": 0.822,
      "velocity": 1,
      "hand": "right"
    },
    {
      "midi": 51,
      "time": 167.26,
      "duration": 0.616,
      "velocity": 1,
      "hand": "left"
    },
    {
      "midi": 75,
      "time": 167.26,
      "duration": 0.616,
      "velocity": 1,
      "hand": "right"
    },
    {
      "midi": 53,
      "time": 167.877,
      "duration": 0.103,
      "velocity": 1,
      "hand": "left"
    },
    {
      "midi": 77,
      "time": 167.877,
      "duration": 0.103,
      "velocity": 1,
      "hand": "right"
    },
    {
      "midi": 50,
      "time": 167.979,
      "duration": 0.103,
      "velocity": 1,
      "hand": "left"
    },
    {
      "midi": 74,
      "time": 167.979,
      "duration": 0.103,
      "velocity": 1,
      "hand": "right"
    },
    {
      "midi": 48,
      "time": 168.082,
      "duration": 0.411,
      "velocity": 1,
      "hand": "left"
    },
    {
      "midi": 72,
      "time": 168.082,
      "duration": 0.411,
      "velocity": 1,
      "hand": "right"
    },
    {
      "midi": 63,
      "time": 168.904,
      "duration": 0.205,
      "velocity": 1,
      "hand": "right"
    },
    {
      "midi": 78,
      "time": 168.904,
      "duration": 0.103,
      "velocity": 1,
      "hand": "right"
    },
    {
      "midi": 79,
      "time": 169.007,
      "duration": 0.308,
      "velocity": 1,
      "hand": "right"
    },
    {
      "midi": 67,
      "time": 169.11,
      "duration": 0.205,
      "velocity": 1,
      "hand": "right"
    },
    {
      "midi": 63,
      "time": 169.315,
      "duration": 0.205,
      "velocity": 1,
      "hand": "right"
    },
    {
      "midi": 79,
      "time": 169.315,
      "duration": 0.411,
      "velocity": 1,
      "hand": "right"
    },
    {
      "midi": 67,
      "time": 169.521,
      "duration": 0.205,
      "velocity": 1,
      "hand": "right"
    },
    {
      "midi": 60,
      "time": 169.726,
      "duration": 0.205,
      "velocity": 1,
      "hand": "right"
    },
    {
      "midi": 67,
      "time": 169.932,
      "duration": 0.205,
      "velocity": 1,
      "hand": "right"
    },
    {
      "midi": 72,
      "time": 169.932,
      "duration": 0.205,
      "velocity": 1,
      "hand": "right"
    },
    {
      "midi": 60,
      "time": 170.137,
      "duration": 0.205,
      "velocity": 1,
      "hand": "right"
    },
    {
      "midi": 84,
      "time": 170.137,
      "duration": 0.205,
      "velocity": 1,
      "hand": "right"
    },
    {
      "midi": 67,
      "time": 170.342,
      "duration": 0.205,
      "velocity": 1,
      "hand": "right"
    },
    {
      "midi": 80,
      "time": 170.342,
      "duration": 0.205,
      "velocity": 1,
      "hand": "right"
    },
    {
      "midi": 62,
      "time": 170.548,
      "duration": 0.205,
      "velocity": 1,
      "hand": "right"
    },
    {
      "midi": 79,
      "time": 170.548,
      "duration": 0.205,
      "velocity": 1,
      "hand": "right"
    },
    {
      "midi": 67,
      "time": 170.753,
      "duration": 0.205,
      "velocity": 1,
      "hand": "right"
    },
    {
      "midi": 78,
      "time": 170.753,
      "duration": 0.205,
      "velocity": 1,
      "hand": "right"
    },
    {
      "midi": 62,
      "time": 170.959,
      "duration": 0.205,
      "velocity": 1,
      "hand": "right"
    },
    {
      "midi": 77,
      "time": 170.959,
      "duration": 0.411,
      "velocity": 1,
      "hand": "right"
    },
    {
      "midi": 67,
      "time": 171.164,
      "duration": 0.205,
      "velocity": 1,
      "hand": "right"
    },
    {
      "midi": 59,
      "time": 171.37,
      "duration": 0.205,
      "velocity": 1,
      "hand": "left"
    },
    {
      "midi": 67,
      "time": 171.575,
      "duration": 0.205,
      "velocity": 1,
      "hand": "right"
    },
    {
      "midi": 77,
      "time": 171.575,
      "duration": 0.205,
      "velocity": 1,
      "hand": "right"
    },
    {
      "midi": 59,
      "time": 171.781,
      "duration": 0.205,
      "velocity": 1,
      "hand": "left"
    },
    {
      "midi": 80,
      "time": 171.781,
      "duration": 0.205,
      "velocity": 1,
      "hand": "right"
    },
    {
      "midi": 67,
      "time": 171.986,
      "duration": 0.205,
      "velocity": 1,
      "hand": "right"
    },
    {
      "midi": 79,
      "time": 171.986,
      "duration": 0.205,
      "velocity": 1,
      "hand": "right"
    },
    {
      "midi": 58,
      "time": 172.192,
      "duration": 0.205,
      "velocity": 1,
      "hand": "left"
    },
    {
      "midi": 61,
      "time": 172.192,
      "duration": 0.205,
      "velocity": 1,
      "hand": "right"
    },
    {
      "midi": 77,
      "time": 172.192,
      "duration": 0.205,
      "velocity": 1,
      "hand": "right"
    },
    {
      "midi": 67,
      "time": 172.397,
      "duration": 0.205,
      "velocity": 1,
      "hand": "right"
    },
    {
      "midi": 76,
      "time": 172.397,
      "duration": 0.205,
      "velocity": 1,
      "hand": "right"
    },
    {
      "midi": 58,
      "time": 172.603,
      "duration": 0.205,
      "velocity": 1,
      "hand": "left"
    },
    {
      "midi": 61,
      "time": 172.603,
      "duration": 0.205,
      "velocity": 1,
      "hand": "right"
    },
    {
      "midi": 85,
      "time": 172.603,
      "duration": 0.822,
      "velocity": 1,
      "hand": "right"
    },
    {
      "midi": 67,
      "time": 172.808,
      "duration": 0.205,
      "velocity": 1,
      "hand": "right"
    },
    {
      "midi": 58,
      "time": 173.014,
      "duration": 0.205,
      "velocity": 1,
      "hand": "left"
    },
    {
      "midi": 61,
      "time": 173.014,
      "duration": 0.205,
      "velocity": 1,
      "hand": "right"
    },
    {
      "midi": 67,
      "time": 173.219,
      "duration": 0.205,
      "velocity": 1,
      "hand": "right"
    },
    {
      "midi": 58,
      "time": 173.425,
      "duration": 0.205,
      "velocity": 1,
      "hand": "left"
    },
    {
      "midi": 61,
      "time": 173.425,
      "duration": 0.205,
      "velocity": 1,
      "hand": "right"
    },
    {
      "midi": 76,
      "time": 173.425,
      "duration": 0.411,
      "velocity": 1,
      "hand": "right"
    },
    {
      "midi": 67,
      "time": 173.63,
      "duration": 0.205,
      "velocity": 1,
      "hand": "right"
    },
    {
      "midi": 56,
      "time": 173.836,
      "duration": 0.205,
      "velocity": 1,
      "hand": "left"
    },
    {
      "midi": 60,
      "time": 173.836,
      "duration": 0.205,
      "velocity": 1,
      "hand": "right"
    },
    {
      "midi": 79,
      "time": 173.836,
      "duration": 0.411,
      "velocity": 1,
      "hand": "right"
    },
    {
      "midi": 64,
      "time": 174.041,
      "duration": 0.205,
      "velocity": 1,
      "hand": "right"
    },
    {
      "midi": 56,
      "time": 174.247,
      "duration": 0.205,
      "velocity": 1,
      "hand": "left"
    },
    {
      "midi": 60,
      "time": 174.247,
      "duration": 0.205,
      "velocity": 1,
      "hand": "right"
    },
    {
      "midi": 77,
      "time": 174.247,
      "duration": 0.411,
      "velocity": 1,
      "hand": "right"
    },
    {
      "midi": 65,
      "time": 174.452,
      "duration": 0.205,
      "velocity": 1,
      "hand": "right"
    },
    {
      "midi": 56,
      "time": 174.658,
      "duration": 0.205,
      "velocity": 1,
      "hand": "left"
    },
    {
      "midi": 60,
      "time": 174.658,
      "duration": 0.205,
      "velocity": 1,
      "hand": "right"
    },
    {
      "midi": 65,
      "time": 174.863,
      "duration": 0.205,
      "velocity": 1,
      "hand": "right"
    },
    {
      "midi": 77,
      "time": 174.863,
      "duration": 0.205,
      "velocity": 1,
      "hand": "right"
    },
    {
      "midi": 56,
      "time": 175.068,
      "duration": 0.205,
      "velocity": 1,
      "hand": "left"
    },
    {
      "midi": 60,
      "time": 175.068,
      "duration": 0.205,
      "velocity": 1,
      "hand": "right"
    },
    {
      "midi": 84,
      "time": 175.068,
      "duration": 0.205,
      "velocity": 1,
      "hand": "right"
    },
    {
      "midi": 65,
      "time": 175.274,
      "duration": 0.205,
      "velocity": 1,
      "hand": "right"
    },
    {
      "midi": 80,
      "time": 175.274,
      "duration": 0.205,
      "velocity": 1,
      "hand": "right"
    },
    {
      "midi": 60,
      "time": 175.479,
      "duration": 0.205,
      "velocity": 1,
      "hand": "right"
    },
    {
      "midi": 63,
      "time": 175.479,
      "duration": 0.205,
      "velocity": 1,
      "hand": "right"
    },
    {
      "midi": 79,
      "time": 175.479,
      "duration": 0.205,
      "velocity": 1,
      "hand": "right"
    },
    {
      "midi": 68,
      "time": 175.685,
      "duration": 0.205,
      "velocity": 1,
      "hand": "right"
    },
    {
      "midi": 78,
      "time": 175.685,
      "duration": 0.205,
      "velocity": 1,
      "hand": "right"
    },
    {
      "midi": 60,
      "time": 175.89,
      "duration": 0.205,
      "velocity": 1,
      "hand": "right"
    },
    {
      "midi": 63,
      "time": 175.89,
      "duration": 0.205,
      "velocity": 1,
      "hand": "right"
    },
    {
      "midi": 87,
      "time": 175.89,
      "duration": 0.822,
      "velocity": 1,
      "hand": "right"
    },
    {
      "midi": 68,
      "time": 176.096,
      "duration": 0.205,
      "velocity": 1,
      "hand": "right"
    },
    {
      "midi": 60,
      "time": 176.301,
      "duration": 0.205,
      "velocity": 1,
      "hand": "right"
    },
    {
      "midi": 63,
      "time": 176.301,
      "duration": 0.205,
      "velocity": 1,
      "hand": "right"
    },
    {
      "midi": 68,
      "time": 176.507,
      "duration": 0.205,
      "velocity": 1,
      "hand": "right"
    },
    {
      "midi": 60,
      "time": 176.712,
      "duration": 0.205,
      "velocity": 1,
      "hand": "right"
    },
    {
      "midi": 63,
      "time": 176.712,
      "duration": 0.205,
      "velocity": 1,
      "hand": "right"
    },
    {
      "midi": 78,
      "time": 176.712,
      "duration": 0.411,
      "velocity": 1,
      "hand": "right"
    },
    {
      "midi": 68,
      "time": 176.918,
      "duration": 0.205,
      "velocity": 1,
      "hand": "right"
    },
    {
      "midi": 59,
      "time": 177.123,
      "duration": 0.411,
      "velocity": 1,
      "hand": "left"
    },
    {
      "midi": 62,
      "time": 177.123,
      "duration": 0.411,
      "velocity": 1,
      "hand": "right"
    },
    {
      "midi": 81,
      "time": 177.123,
      "duration": 0.205,
      "velocity": 1,
      "hand": "right"
    },
    {
      "midi": 79,
      "time": 177.329,
      "duration": 0.205,
      "velocity": 1,
      "hand": "right"
    },
    {
      "midi": 78,
      "time": 177.534,
      "duration": 0.205,
      "velocity": 1,
      "hand": "right"
    },
    {
      "midi": 79,
      "time": 177.74,
      "duration": 0.205,
      "velocity": 1,
      "hand": "right"
    },
    {
      "midi": 78,
      "time": 177.945,
      "duration": 0.205,
      "velocity": 1,
      "hand": "right"
    },
    {
      "midi": 79,
      "time": 178.151,
      "duration": 0.205,
      "velocity": 1,
      "hand": "right"
    },
    {
      "midi": 78,
      "time": 178.356,
      "duration": 0.205,
      "velocity": 1,
      "hand": "right"
    },
    {
      "midi": 79,
      "time": 178.562,
      "duration": 0.205,
      "velocity": 1,
      "hand": "right"
    },
    {
      "midi": 78,
      "time": 178.767,
      "duration": 0.205,
      "velocity": 1,
      "hand": "right"
    },
    {
      "midi": 67,
      "time": 178.973,
      "duration": 0.205,
      "velocity": 1,
      "hand": "right"
    },
    {
      "midi": 79,
      "time": 178.973,
      "duration": 0.205,
      "velocity": 1,
      "hand": "right"
    },
    {
      "midi": 66,
      "time": 179.178,
      "duration": 0.205,
      "velocity": 1,
      "hand": "right"
    },
    {
      "midi": 78,
      "time": 179.178,
      "duration": 0.205,
      "velocity": 1,
      "hand": "right"
    },
    {
      "midi": 67,
      "time": 179.384,
      "duration": 0.205,
      "velocity": 1,
      "hand": "right"
    },
    {
      "midi": 79,
      "time": 179.384,
      "duration": 0.205,
      "velocity": 1,
      "hand": "right"
    },
    {
      "midi": 68,
      "time": 179.589,
      "duration": 0.205,
      "velocity": 1,
      "hand": "right"
    },
    {
      "midi": 80,
      "time": 179.589,
      "duration": 0.205,
      "velocity": 1,
      "hand": "right"
    },
    {
      "midi": 69,
      "time": 179.795,
      "duration": 0.205,
      "velocity": 1,
      "hand": "right"
    },
    {
      "midi": 81,
      "time": 179.795,
      "duration": 0.205,
      "velocity": 1,
      "hand": "right"
    },
    {
      "midi": 70,
      "time": 180,
      "duration": 0.205,
      "velocity": 1,
      "hand": "right"
    },
    {
      "midi": 82,
      "time": 180,
      "duration": 0.205,
      "velocity": 1,
      "hand": "right"
    },
    {
      "midi": 71,
      "time": 180.205,
      "duration": 0.205,
      "velocity": 1,
      "hand": "right"
    },
    {
      "midi": 83,
      "time": 180.205,
      "duration": 0.205,
      "velocity": 1,
      "hand": "right"
    },
    {
      "midi": 57,
      "time": 180.411,
      "duration": 0.205,
      "velocity": 1,
      "hand": "left"
    },
    {
      "midi": 72,
      "time": 180.411,
      "duration": 0.205,
      "velocity": 1,
      "hand": "right"
    },
    {
      "midi": 84,
      "time": 180.411,
      "duration": 0.205,
      "velocity": 1,
      "hand": "right"
    },
    {
      "midi": 60,
      "time": 180.616,
      "duration": 0.205,
      "velocity": 1,
      "hand": "right"
    },
    {
      "midi": 72,
      "time": 180.616,
      "duration": 0.205,
      "velocity": 1,
      "hand": "right"
    },
    {
      "midi": 84,
      "time": 180.616,
      "duration": 0.205,
      "velocity": 1,
      "hand": "right"
    },
    {
      "midi": 57,
      "time": 180.822,
      "duration": 0.205,
      "velocity": 1,
      "hand": "left"
    },
    {
      "midi": 72,
      "time": 180.822,
      "duration": 0.822,
      "velocity": 1,
      "hand": "right"
    },
    {
      "midi": 84,
      "time": 180.822,
      "duration": 0.822,
      "velocity": 1,
      "hand": "right"
    },
    {
      "midi": 60,
      "time": 181.027,
      "duration": 0.205,
      "velocity": 1,
      "hand": "right"
    },
    {
      "midi": 53,
      "time": 181.233,
      "duration": 0.205,
      "velocity": 1,
      "hand": "left"
    },
    {
      "midi": 60,
      "time": 181.438,
      "duration": 0.205,
      "velocity": 1,
      "hand": "right"
    },
    {
      "midi": 53,
      "time": 181.644,
      "duration": 0.205,
      "velocity": 1,
      "hand": "left"
    },
    {
      "midi": 83,
      "time": 181.644,
      "duration": 0.205,
      "velocity": 1,
      "hand": "right"
    },
    {
      "midi": 60,
      "time": 181.849,
      "duration": 0.205,
      "velocity": 1,
      "hand": "right"
    },
    {
      "midi": 81,
      "time": 181.849,
      "duration": 0.205,
      "velocity": 1,
      "hand": "right"
    },
    {
      "midi": 52,
      "time": 182.055,
      "duration": 0.205,
      "velocity": 1,
      "hand": "left"
    },
    {
      "midi": 72,
      "time": 182.055,
      "duration": 0.205,
      "velocity": 1,
      "hand": "right"
    },
    {
      "midi": 79,
      "time": 182.055,
      "duration": 0.205,
      "velocity": 1,
      "hand": "right"
    },
    {
      "midi": 60,
      "time": 182.26,
      "duration": 0.205,
      "velocity": 1,
      "hand": "right"
    },
    {
      "midi": 72,
      "time": 182.26,
      "duration": 0.205,
      "velocity": 1,
      "hand": "right"
    },
    {
      "midi": 79,
      "time": 182.26,
      "duration": 0.205,
      "velocity": 1,
      "hand": "right"
    },
    {
      "midi": 52,
      "time": 182.466,
      "duration": 0.205,
      "velocity": 1,
      "hand": "left"
    },
    {
      "midi": 72,
      "time": 182.466,
      "duration": 0.822,
      "velocity": 1,
      "hand": "right"
    },
    {
      "midi": 79,
      "time": 182.466,
      "duration": 0.822,
      "velocity": 1,
      "hand": "right"
    },
    {
      "midi": 60,
      "time": 182.671,
      "duration": 0.205,
      "velocity": 1,
      "hand": "right"
    },
    {
      "midi": 48,
      "time": 182.877,
      "duration": 0.205,
      "velocity": 1,
      "hand": "left"
    },
    {
      "midi": 60,
      "time": 183.082,
      "duration": 0.205,
      "velocity": 1,
      "hand": "right"
    },
    {
      "midi": 48,
      "time": 183.288,
      "duration": 0.205,
      "velocity": 1,
      "hand": "left"
    },
    {
      "midi": 77,
      "time": 183.288,
      "duration": 0.205,
      "velocity": 1,
      "hand": "right"
    },
    {
      "midi": 60,
      "time": 183.493,
      "duration": 0.205,
      "velocity": 1,
      "hand": "right"
    },
    {
      "midi": 76,
      "time": 183.493,
      "duration": 0.308,
      "velocity": 1,
      "hand": "right"
    },
    {
      "midi": 53,
      "time": 183.699,
      "duration": 0.205,
      "velocity": 1,
      "hand": "left"
    },
    {
      "midi": 74,
      "time": 183.801,
      "duration": 0.103,
      "velocity": 1,
      "hand": "right"
    },
    {
      "midi": 57,
      "time": 183.904,
      "duration": 0.205,
      "velocity": 1,
      "hand": "left"
    },
    {
      "midi": 77,
      "time": 183.904,
      "duration": 0.103,
      "velocity": 1,
      "hand": "right"
    },
    {
      "midi": 76,
      "time": 184.007,
      "duration": 0.103,
      "velocity": 1,
      "hand": "right"
    },
    {
      "midi": 53,
      "time": 184.11,
      "duration": 0.205,
      "velocity": 1,
      "hand": "left"
    },
    {
      "midi": 79,
      "time": 184.11,
      "duration": 0.103,
      "velocity": 1,
      "hand": "right"
    },
    {
      "midi": 77,
      "time": 184.212,
      "duration": 0.103,
      "velocity": 1,
      "hand": "right"
    },
    {
      "midi": 62,
      "time": 184.315,
      "duration": 0.205,
      "velocity": 1,
      "hand": "right"
    },
    {
      "midi": 76,
      "time": 184.315,
      "duration": 0.103,
      "velocity": 1,
      "hand": "right"
    },
    {
      "midi": 74,
      "time": 184.418,
      "duration": 0.103,
      "velocity": 1,
      "hand": "right"
    },
    {
      "midi": 55,
      "time": 184.521,
      "duration": 0.205,
      "velocity": 1,
      "hand": "left"
    },
    {
      "midi": 72,
      "time": 184.521,
      "duration": 0.411,
      "velocity": 1,
      "hand": "right"
    },
    {
      "midi": 64,
      "time": 184.726,
      "duration": 0.205,
      "velocity": 1,
      "hand": "right"
    },
    {
      "midi": 55,
      "time": 184.932,
      "duration": 0.205,
      "velocity": 1,
      "hand": "left"
    },
    {
      "midi": 71,
      "time": 184.932,
      "duration": 0.411,
      "velocity": 1,
      "hand": "right"
    },
    {
      "midi": 62,
      "time": 185.137,
      "duration": 0.205,
      "velocity": 1,
      "hand": "right"
    },
    {
      "midi": 69,
      "time": 185.24,
      "duration": 0.051,
      "velocity": 1,
      "hand": "right"
    },
    {
      "midi": 57,
      "time": 185.342,
      "duration": 0.205,
      "velocity": 1,
      "hand": "left"
    },
    {
      "midi": 72,
      "time": 185.342,
      "duration": 0.205,
      "velocity": 1,
      "hand": "right"
    },
    {
      "midi": 84,
      "time": 185.342,
      "duration": 0.205,
      "velocity": 1,
      "hand": "right"
    },
    {
      "midi": 60,
      "time": 185.548,
      "duration": 0.205,
      "velocity": 1,
      "hand": "right"
    },
    {
      "midi": 72,
      "time": 185.548,
      "duration": 0.205,
      "velocity": 1,
      "hand": "right"
    },
    {
      "midi": 84,
      "time": 185.548,
      "duration": 0.205,
      "velocity": 1,
      "hand": "right"
    },
    {
      "midi": 57,
      "time": 185.753,
      "duration": 0.205,
      "velocity": 1,
      "hand": "left"
    },
    {
      "midi": 72,
      "time": 185.753,
      "duration": 0.616,
      "velocity": 1,
      "hand": "right"
    },
    {
      "midi": 84,
      "time": 185.753,
      "duration": 0.616,
      "velocity": 1,
      "hand": "right"
    },
    {
      "midi": 60,
      "time": 185.959,
      "duration": 0.205,
      "velocity": 1,
      "hand": "right"
    },
    {
      "midi": 53,
      "time": 186.164,
      "duration": 0.205,
      "velocity": 1,
      "hand": "left"
    },
    {
      "midi": 60,
      "time": 186.37,
      "duration": 0.205,
      "velocity": 1,
      "hand": "right"
    },
    {
      "midi": 86,
      "time": 186.37,
      "duration": 0.103,
      "velocity": 1,
      "hand": "right"
    },
    {
      "midi": 84,
      "time": 186.473,
      "duration": 0.103,
      "velocity": 1,
      "hand": "right"
    },
    {
      "midi": 53,
      "time": 186.575,
      "duration": 0.205,
      "velocity": 1,
      "hand": "left"
    },
    {
      "midi": 83,
      "time": 186.575,
      "duration": 0.205,
      "velocity": 1,
      "hand": "right"
    },
    {
      "midi": 60,
      "time": 186.781,
      "duration": 0.205,
      "velocity": 1,
      "hand": "right"
    },
    {
      "midi": 81,
      "time": 186.781,
      "duration": 0.205,
      "velocity": 1,
      "hand": "right"
    },
    {
      "midi": 52,
      "time": 186.986,
      "duration": 0.205,
      "velocity": 1,
      "hand": "left"
    },
    {
      "midi": 72,
      "time": 186.986,
      "duration": 0.205,
      "velocity": 1,
      "hand": "right"
    },
    {
      "midi": 79,
      "time": 186.986,
      "duration": 0.205,
      "velocity": 1,
      "hand": "right"
    },
    {
      "midi": 60,
      "time": 187.192,
      "duration": 0.205,
      "velocity": 1,
      "hand": "right"
    },
    {
      "midi": 72,
      "time": 187.192,
      "duration": 0.205,
      "velocity": 1,
      "hand": "right"
    },
    {
      "midi": 79,
      "time": 187.192,
      "duration": 0.205,
      "velocity": 1,
      "hand": "right"
    },
    {
      "midi": 52,
      "time": 187.397,
      "duration": 0.205,
      "velocity": 1,
      "hand": "left"
    },
    {
      "midi": 72,
      "time": 187.397,
      "duration": 0.616,
      "velocity": 1,
      "hand": "right"
    },
    {
      "midi": 79,
      "time": 187.397,
      "duration": 0.616,
      "velocity": 1,
      "hand": "right"
    },
    {
      "midi": 60,
      "time": 187.603,
      "duration": 0.205,
      "velocity": 1,
      "hand": "right"
    },
    {
      "midi": 48,
      "time": 187.808,
      "duration": 0.205,
      "velocity": 1,
      "hand": "left"
    },
    {
      "midi": 60,
      "time": 188.014,
      "duration": 0.205,
      "velocity": 1,
      "hand": "right"
    },
    {
      "midi": 81,
      "time": 188.014,
      "duration": 0.103,
      "velocity": 1,
      "hand": "right"
    },
    {
      "midi": 79,
      "time": 188.116,
      "duration": 0.103,
      "velocity": 1,
      "hand": "right"
    },
    {
      "midi": 48,
      "time": 188.219,
      "duration": 0.205,
      "velocity": 1,
      "hand": "left"
    },
    {
      "midi": 77,
      "time": 188.219,
      "duration": 0.205,
      "velocity": 1,
      "hand": "right"
    },
    {
      "midi": 60,
      "time": 188.425,
      "duration": 0.205,
      "velocity": 1,
      "hand": "right"
    },
    {
      "midi": 76,
      "time": 188.425,
      "duration": 0.308,
      "velocity": 1,
      "hand": "right"
    },
    {
      "midi": 53,
      "time": 188.63,
      "duration": 0.205,
      "velocity": 1,
      "hand": "left"
    },
    {
      "midi": 74,
      "time": 188.733,
      "duration": 0.103,
      "velocity": 1,
      "hand": "right"
    },
    {
      "midi": 60,
      "time": 188.836,
      "duration": 0.205,
      "velocity": 1,
      "hand": "right"
    },
    {
      "midi": 81,
      "time": 188.836,
      "duration": 0.103,
      "velocity": 1,
      "hand": "right"
    },
    {
      "midi": 80,
      "time": 188.938,
      "duration": 0.103,
      "velocity": 1,
      "hand": "right"
    },
    {
      "midi": 53,
      "time": 189.041,
      "duration": 0.205,
      "velocity": 1,
      "hand": "left"
    },
    {
      "midi": 83,
      "time": 189.041,
      "duration": 0.103,
      "velocity": 1,
      "hand": "right"
    },
    {
      "midi": 81,
      "time": 189.144,
      "duration": 0.103,
      "velocity": 1,
      "hand": "right"
    },
    {
      "midi": 62,
      "time": 189.247,
      "duration": 0.205,
      "velocity": 1,
      "hand": "right"
    },
    {
      "midi": 79,
      "time": 189.247,
      "duration": 0.103,
      "velocity": 1,
      "hand": "right"
    },
    {
      "midi": 77,
      "time": 189.349,
      "duration": 0.103,
      "velocity": 1,
      "hand": "right"
    },
    {
      "midi": 55,
      "time": 189.452,
      "duration": 0.205,
      "velocity": 1,
      "hand": "left"
    },
    {
      "midi": 76,
      "time": 189.452,
      "duration": 0.411,
      "velocity": 1,
      "hand": "right"
    },
    {
      "midi": 60,
      "time": 189.658,
      "duration": 0.205,
      "velocity": 1,
      "hand": "right"
    },
    {
      "midi": 55,
      "time": 189.863,
      "duration": 0.205,
      "velocity": 1,
      "hand": "left"
    },
    {
      "midi": 74,
      "time": 189.863,
      "duration": 0.411,
      "velocity": 1,
      "hand": "right"
    },
    {
      "midi": 59,
      "time": 190.068,
      "duration": 0.205,
      "velocity": 1,
      "hand": "left"
    },
    {
      "midi": 72,
      "time": 190.171,
      "duration": 0.051,
      "velocity": 1,
      "hand": "right"
    },
    {
      "midi": 60,
      "time": 190.274,
      "duration": 0.205,
      "velocity": 1,
      "hand": "right"
    },
    {
      "midi": 64,
      "time": 190.274,
      "duration": 0.205,
      "velocity": 1,
      "hand": "right"
    },
    {
      "midi": 72,
      "time": 190.274,
      "duration": 0.411,
      "velocity": 1,
      "hand": "right"
    },
    {
      "midi": 60,
      "time": 190.479,
      "duration": 0.205,
      "velocity": 1,
      "hand": "right"
    },
    {
      "midi": 64,
      "time": 190.479,
      "duration": 0.205,
      "velocity": 1,
      "hand": "right"
    },
    {
      "midi": 60,
      "time": 190.685,
      "duration": 0.205,
      "velocity": 1,
      "hand": "right"
    },
    {
      "midi": 64,
      "time": 190.685,
      "duration": 0.205,
      "velocity": 1,
      "hand": "right"
    },
    {
      "midi": 60,
      "time": 190.89,
      "duration": 0.205,
      "velocity": 1,
      "hand": "right"
    },
    {
      "midi": 64,
      "time": 190.89,
      "duration": 0.205,
      "velocity": 1,
      "hand": "right"
    },
    {
      "midi": 72,
      "time": 190.89,
      "duration": 0.103,
      "velocity": 1,
      "hand": "right"
    },
    {
      "midi": 74,
      "time": 190.89,
      "duration": 0.051,
      "velocity": 1,
      "hand": "right"
    },
    {
      "midi": 71,
      "time": 190.993,
      "duration": 0.103,
      "velocity": 1,
      "hand": "right"
    },
    {
      "midi": 60,
      "time": 191.096,
      "duration": 0.205,
      "velocity": 1,
      "hand": "right"
    },
    {
      "midi": 64,
      "time": 191.096,
      "duration": 0.205,
      "velocity": 1,
      "hand": "right"
    },
    {
      "midi": 72,
      "time": 191.096,
      "duration": 0.205,
      "velocity": 1,
      "hand": "right"
    },
    {
      "midi": 60,
      "time": 191.301,
      "duration": 0.205,
      "velocity": 1,
      "hand": "right"
    },
    {
      "midi": 64,
      "time": 191.301,
      "duration": 0.205,
      "velocity": 1,
      "hand": "right"
    },
    {
      "midi": 75,
      "time": 191.301,
      "duration": 0.205,
      "velocity": 1,
      "hand": "right"
    },
    {
      "midi": 60,
      "time": 191.507,
      "duration": 0.205,
      "velocity": 1,
      "hand": "right"
    },
    {
      "midi": 64,
      "time": 191.507,
      "duration": 0.205,
      "velocity": 1,
      "hand": "right"
    },
    {
      "midi": 76,
      "time": 191.507,
      "duration": 0.205,
      "velocity": 1,
      "hand": "right"
    },
    {
      "midi": 60,
      "time": 191.712,
      "duration": 0.205,
      "velocity": 1,
      "hand": "right"
    },
    {
      "midi": 64,
      "time": 191.712,
      "duration": 0.205,
      "velocity": 1,
      "hand": "right"
    },
    {
      "midi": 78,
      "time": 191.712,
      "duration": 0.205,
      "velocity": 1,
      "hand": "right"
    },
    {
      "midi": 60,
      "time": 191.918,
      "duration": 0.205,
      "velocity": 1,
      "hand": "right"
    },
    {
      "midi": 64,
      "time": 191.918,
      "duration": 0.205,
      "velocity": 1,
      "hand": "right"
    },
    {
      "midi": 79,
      "time": 191.918,
      "duration": 0.205,
      "velocity": 1,
      "hand": "right"
    },
    {
      "midi": 60,
      "time": 192.123,
      "duration": 0.205,
      "velocity": 1,
      "hand": "right"
    },
    {
      "midi": 64,
      "time": 192.123,
      "duration": 0.205,
      "velocity": 1,
      "hand": "right"
    },
    {
      "midi": 83,
      "time": 192.123,
      "duration": 0.205,
      "velocity": 1,
      "hand": "right"
    },
    {
      "midi": 60,
      "time": 192.329,
      "duration": 0.205,
      "velocity": 1,
      "hand": "right"
    },
    {
      "midi": 64,
      "time": 192.329,
      "duration": 0.205,
      "velocity": 1,
      "hand": "right"
    },
    {
      "midi": 84,
      "time": 192.329,
      "duration": 0.205,
      "velocity": 1,
      "hand": "right"
    },
    {
      "midi": 60,
      "time": 192.534,
      "duration": 0.205,
      "velocity": 1,
      "hand": "right"
    },
    {
      "midi": 64,
      "time": 192.534,
      "duration": 0.205,
      "velocity": 1,
      "hand": "right"
    },
    {
      "midi": 87,
      "time": 192.534,
      "duration": 0.205,
      "velocity": 1,
      "hand": "right"
    },
    {
      "midi": 60,
      "time": 192.74,
      "duration": 0.205,
      "velocity": 1,
      "hand": "right"
    },
    {
      "midi": 64,
      "time": 192.74,
      "duration": 0.205,
      "velocity": 1,
      "hand": "right"
    },
    {
      "midi": 88,
      "time": 192.74,
      "duration": 0.411,
      "velocity": 1,
      "hand": "right"
    },
    {
      "midi": 60,
      "time": 192.945,
      "duration": 0.205,
      "velocity": 1,
      "hand": "right"
    },
    {
      "midi": 64,
      "time": 192.945,
      "duration": 0.205,
      "velocity": 1,
      "hand": "right"
    },
    {
      "midi": 60,
      "time": 193.151,
      "duration": 0.205,
      "velocity": 1,
      "hand": "right"
    },
    {
      "midi": 64,
      "time": 193.151,
      "duration": 0.205,
      "velocity": 1,
      "hand": "right"
    },
    {
      "midi": 60,
      "time": 193.356,
      "duration": 0.205,
      "velocity": 1,
      "hand": "right"
    },
    {
      "midi": 64,
      "time": 193.356,
      "duration": 0.205,
      "velocity": 1,
      "hand": "right"
    },
    {
      "midi": 59,
      "time": 193.562,
      "duration": 0.205,
      "velocity": 1,
      "hand": "left"
    },
    {
      "midi": 62,
      "time": 193.562,
      "duration": 0.205,
      "velocity": 1,
      "hand": "right"
    },
    {
      "midi": 74,
      "time": 193.562,
      "duration": 0.411,
      "velocity": 1,
      "hand": "right"
    },
    {
      "midi": 79,
      "time": 193.562,
      "duration": 0.411,
      "velocity": 1,
      "hand": "right"
    },
    {
      "midi": 86,
      "time": 193.562,
      "duration": 0.411,
      "velocity": 1,
      "hand": "right"
    },
    {
      "midi": 59,
      "time": 193.767,
      "duration": 0.205,
      "velocity": 1,
      "hand": "left"
    },
    {
      "midi": 62,
      "time": 193.767,
      "duration": 0.205,
      "velocity": 1,
      "hand": "right"
    },
    {
      "midi": 59,
      "time": 193.973,
      "duration": 0.205,
      "velocity": 1,
      "hand": "left"
    },
    {
      "midi": 62,
      "time": 193.973,
      "duration": 0.205,
      "velocity": 1,
      "hand": "right"
    },
    {
      "midi": 59,
      "time": 194.178,
      "duration": 0.205,
      "velocity": 1,
      "hand": "left"
    },
    {
      "midi": 62,
      "time": 194.178,
      "duration": 0.205,
      "velocity": 1,
      "hand": "right"
    },
    {
      "midi": 71,
      "time": 194.178,
      "duration": 0.103,
      "velocity": 1,
      "hand": "right"
    },
    {
      "midi": 72,
      "time": 194.178,
      "duration": 0.051,
      "velocity": 1,
      "hand": "right"
    },
    {
      "midi": 69,
      "time": 194.281,
      "duration": 0.103,
      "velocity": 1,
      "hand": "right"
    },
    {
      "midi": 59,
      "time": 194.384,
      "duration": 0.205,
      "velocity": 1,
      "hand": "left"
    },
    {
      "midi": 62,
      "time": 194.384,
      "duration": 0.205,
      "velocity": 1,
      "hand": "right"
    },
    {
      "midi": 71,
      "time": 194.384,
      "duration": 0.205,
      "velocity": 1,
      "hand": "right"
    },
    {
      "midi": 59,
      "time": 194.589,
      "duration": 0.205,
      "velocity": 1,
      "hand": "left"
    },
    {
      "midi": 62,
      "time": 194.589,
      "duration": 0.205,
      "velocity": 1,
      "hand": "right"
    },
    {
      "midi": 73,
      "time": 194.589,
      "duration": 0.205,
      "velocity": 1,
      "hand": "right"
    },
    {
      "midi": 59,
      "time": 194.795,
      "duration": 0.205,
      "velocity": 1,
      "hand": "left"
    },
    {
      "midi": 62,
      "time": 194.795,
      "duration": 0.205,
      "velocity": 1,
      "hand": "right"
    },
    {
      "midi": 74,
      "time": 194.795,
      "duration": 0.205,
      "velocity": 1,
      "hand": "right"
    },
    {
      "midi": 59,
      "time": 195,
      "duration": 0.205,
      "velocity": 1,
      "hand": "left"
    },
    {
      "midi": 62,
      "time": 195,
      "duration": 0.205,
      "velocity": 1,
      "hand": "right"
    },
    {
      "midi": 78,
      "time": 195,
      "duration": 0.205,
      "velocity": 1,
      "hand": "right"
    },
    {
      "midi": 59,
      "time": 195.205,
      "duration": 0.205,
      "velocity": 1,
      "hand": "left"
    },
    {
      "midi": 62,
      "time": 195.205,
      "duration": 0.205,
      "velocity": 1,
      "hand": "right"
    },
    {
      "midi": 79,
      "time": 195.205,
      "duration": 0.205,
      "velocity": 1,
      "hand": "right"
    },
    {
      "midi": 59,
      "time": 195.411,
      "duration": 0.205,
      "velocity": 1,
      "hand": "left"
    },
    {
      "midi": 62,
      "time": 195.411,
      "duration": 0.205,
      "velocity": 1,
      "hand": "right"
    },
    {
      "midi": 82,
      "time": 195.411,
      "duration": 0.205,
      "velocity": 1,
      "hand": "right"
    },
    {
      "midi": 59,
      "time": 195.616,
      "duration": 0.205,
      "velocity": 1,
      "hand": "left"
    },
    {
      "midi": 62,
      "time": 195.616,
      "duration": 0.205,
      "velocity": 1,
      "hand": "right"
    },
    {
      "midi": 83,
      "time": 195.616,
      "duration": 0.205,
      "velocity": 1,
      "hand": "right"
    },
    {
      "midi": 59,
      "time": 195.822,
      "duration": 0.205,
      "velocity": 1,
      "hand": "left"
    },
    {
      "midi": 62,
      "time": 195.822,
      "duration": 0.205,
      "velocity": 1,
      "hand": "right"
    },
    {
      "midi": 85,
      "time": 195.822,
      "duration": 0.205,
      "velocity": 1,
      "hand": "right"
    },
    {
      "midi": 59,
      "time": 196.027,
      "duration": 0.205,
      "velocity": 1,
      "hand": "left"
    },
    {
      "midi": 62,
      "time": 196.027,
      "duration": 0.205,
      "velocity": 1,
      "hand": "right"
    },
    {
      "midi": 86,
      "time": 196.027,
      "duration": 0.411,
      "velocity": 1,
      "hand": "right"
    },
    {
      "midi": 59,
      "time": 196.233,
      "duration": 0.205,
      "velocity": 1,
      "hand": "left"
    },
    {
      "midi": 62,
      "time": 196.233,
      "duration": 0.205,
      "velocity": 1,
      "hand": "right"
    },
    {
      "midi": 59,
      "time": 196.438,
      "duration": 0.205,
      "velocity": 1,
      "hand": "left"
    },
    {
      "midi": 62,
      "time": 196.438,
      "duration": 0.205,
      "velocity": 1,
      "hand": "right"
    },
    {
      "midi": 59,
      "time": 196.644,
      "duration": 0.205,
      "velocity": 1,
      "hand": "left"
    },
    {
      "midi": 62,
      "time": 196.644,
      "duration": 0.205,
      "velocity": 1,
      "hand": "right"
    },
    {
      "midi": 54,
      "time": 196.849,
      "duration": 0.205,
      "velocity": 1,
      "hand": "left"
    },
    {
      "midi": 57,
      "time": 196.849,
      "duration": 0.205,
      "velocity": 1,
      "hand": "left"
    },
    {
      "midi": 62,
      "time": 196.849,
      "duration": 0.205,
      "velocity": 1,
      "hand": "right"
    },
    {
      "midi": 72,
      "time": 196.849,
      "duration": 0.411,
      "velocity": 1,
      "hand": "right"
    },
    {
      "midi": 78,
      "time": 196.849,
      "duration": 0.411,
      "velocity": 1,
      "hand": "right"
    },
    {
      "midi": 84,
      "time": 196.849,
      "duration": 0.411,
      "velocity": 1,
      "hand": "right"
    },
    {
      "midi": 54,
      "time": 197.055,
      "duration": 0.205,
      "velocity": 1,
      "hand": "left"
    },
    {
      "midi": 57,
      "time": 197.055,
      "duration": 0.205,
      "velocity": 1,
      "hand": "left"
    },
    {
      "midi": 62,
      "time": 197.055,
      "duration": 0.205,
      "velocity": 1,
      "hand": "right"
    },
    {
      "midi": 54,
      "time": 197.26,
      "duration": 0.205,
      "velocity": 1,
      "hand": "left"
    },
    {
      "midi": 57,
      "time": 197.26,
      "duration": 0.205,
      "velocity": 1,
      "hand": "left"
    },
    {
      "midi": 62,
      "time": 197.26,
      "duration": 0.205,
      "velocity": 1,
      "hand": "right"
    },
    {
      "midi": 54,
      "time": 197.466,
      "duration": 0.205,
      "velocity": 1,
      "hand": "left"
    },
    {
      "midi": 57,
      "time": 197.466,
      "duration": 0.205,
      "velocity": 1,
      "hand": "left"
    },
    {
      "midi": 62,
      "time": 197.466,
      "duration": 0.205,
      "velocity": 1,
      "hand": "right"
    },
    {
      "midi": 69,
      "time": 197.466,
      "duration": 0.103,
      "velocity": 1,
      "hand": "right"
    },
    {
      "midi": 71,
      "time": 197.466,
      "duration": 0.051,
      "velocity": 1,
      "hand": "right"
    },
    {
      "midi": 68,
      "time": 197.568,
      "duration": 0.103,
      "velocity": 1,
      "hand": "right"
    },
    {
      "midi": 54,
      "time": 197.671,
      "duration": 0.205,
      "velocity": 1,
      "hand": "left"
    },
    {
      "midi": 57,
      "time": 197.671,
      "duration": 0.205,
      "velocity": 1,
      "hand": "left"
    },
    {
      "midi": 62,
      "time": 197.671,
      "duration": 0.205,
      "velocity": 1,
      "hand": "right"
    },
    {
      "midi": 69,
      "time": 197.671,
      "duration": 0.205,
      "velocity": 1,
      "hand": "right"
    },
    {
      "midi": 54,
      "time": 197.877,
      "duration": 0.205,
      "velocity": 1,
      "hand": "left"
    },
    {
      "midi": 57,
      "time": 197.877,
      "duration": 0.205,
      "velocity": 1,
      "hand": "left"
    },
    {
      "midi": 62,
      "time": 197.877,
      "duration": 0.205,
      "velocity": 1,
      "hand": "right"
    },
    {
      "midi": 71,
      "time": 197.877,
      "duration": 0.205,
      "velocity": 1,
      "hand": "right"
    },
    {
      "midi": 54,
      "time": 198.082,
      "duration": 0.205,
      "velocity": 1,
      "hand": "left"
    },
    {
      "midi": 57,
      "time": 198.082,
      "duration": 0.205,
      "velocity": 1,
      "hand": "left"
    },
    {
      "midi": 62,
      "time": 198.082,
      "duration": 0.205,
      "velocity": 1,
      "hand": "right"
    },
    {
      "midi": 72,
      "time": 198.082,
      "duration": 0.205,
      "velocity": 1,
      "hand": "right"
    },
    {
      "midi": 54,
      "time": 198.288,
      "duration": 0.205,
      "velocity": 1,
      "hand": "left"
    },
    {
      "midi": 57,
      "time": 198.288,
      "duration": 0.205,
      "velocity": 1,
      "hand": "left"
    },
    {
      "midi": 62,
      "time": 198.288,
      "duration": 0.205,
      "velocity": 1,
      "hand": "right"
    },
    {
      "midi": 77,
      "time": 198.288,
      "duration": 0.205,
      "velocity": 1,
      "hand": "right"
    },
    {
      "midi": 54,
      "time": 198.493,
      "duration": 0.205,
      "velocity": 1,
      "hand": "left"
    },
    {
      "midi": 57,
      "time": 198.493,
      "duration": 0.205,
      "velocity": 1,
      "hand": "left"
    },
    {
      "midi": 62,
      "time": 198.493,
      "duration": 0.205,
      "velocity": 1,
      "hand": "right"
    },
    {
      "midi": 78,
      "time": 198.493,
      "duration": 0.205,
      "velocity": 1,
      "hand": "right"
    },
    {
      "midi": 54,
      "time": 198.699,
      "duration": 0.205,
      "velocity": 1,
      "hand": "left"
    },
    {
      "midi": 57,
      "time": 198.699,
      "duration": 0.205,
      "velocity": 1,
      "hand": "left"
    },
    {
      "midi": 62,
      "time": 198.699,
      "duration": 0.205,
      "velocity": 1,
      "hand": "right"
    },
    {
      "midi": 80,
      "time": 198.699,
      "duration": 0.205,
      "velocity": 1,
      "hand": "right"
    },
    {
      "midi": 54,
      "time": 198.904,
      "duration": 0.205,
      "velocity": 1,
      "hand": "left"
    },
    {
      "midi": 57,
      "time": 198.904,
      "duration": 0.205,
      "velocity": 1,
      "hand": "left"
    },
    {
      "midi": 62,
      "time": 198.904,
      "duration": 0.205,
      "velocity": 1,
      "hand": "right"
    },
    {
      "midi": 81,
      "time": 198.904,
      "duration": 0.205,
      "velocity": 1,
      "hand": "right"
    },
    {
      "midi": 54,
      "time": 199.11,
      "duration": 0.205,
      "velocity": 1,
      "hand": "left"
    },
    {
      "midi": 57,
      "time": 199.11,
      "duration": 0.205,
      "velocity": 1,
      "hand": "left"
    },
    {
      "midi": 62,
      "time": 199.11,
      "duration": 0.205,
      "velocity": 1,
      "hand": "right"
    },
    {
      "midi": 83,
      "time": 199.11,
      "duration": 0.205,
      "velocity": 1,
      "hand": "right"
    },
    {
      "midi": 54,
      "time": 199.315,
      "duration": 0.205,
      "velocity": 1,
      "hand": "left"
    },
    {
      "midi": 57,
      "time": 199.315,
      "duration": 0.205,
      "velocity": 1,
      "hand": "left"
    },
    {
      "midi": 62,
      "time": 199.315,
      "duration": 0.205,
      "velocity": 1,
      "hand": "right"
    },
    {
      "midi": 84,
      "time": 199.315,
      "duration": 0.411,
      "velocity": 1,
      "hand": "right"
    },
    {
      "midi": 54,
      "time": 199.521,
      "duration": 0.205,
      "velocity": 1,
      "hand": "left"
    },
    {
      "midi": 57,
      "time": 199.521,
      "duration": 0.205,
      "velocity": 1,
      "hand": "left"
    },
    {
      "midi": 62,
      "time": 199.521,
      "duration": 0.205,
      "velocity": 1,
      "hand": "right"
    },
    {
      "midi": 54,
      "time": 199.726,
      "duration": 0.205,
      "velocity": 1,
      "hand": "left"
    },
    {
      "midi": 57,
      "time": 199.726,
      "duration": 0.205,
      "velocity": 1,
      "hand": "left"
    },
    {
      "midi": 62,
      "time": 199.726,
      "duration": 0.205,
      "velocity": 1,
      "hand": "right"
    },
    {
      "midi": 54,
      "time": 199.932,
      "duration": 0.205,
      "velocity": 1,
      "hand": "left"
    },
    {
      "midi": 57,
      "time": 199.932,
      "duration": 0.205,
      "velocity": 1,
      "hand": "left"
    },
    {
      "midi": 62,
      "time": 199.932,
      "duration": 0.205,
      "velocity": 1,
      "hand": "right"
    },
    {
      "midi": 55,
      "time": 200.137,
      "duration": 0.822,
      "velocity": 1,
      "hand": "left"
    },
    {
      "midi": 62,
      "time": 200.137,
      "duration": 0.822,
      "velocity": 1,
      "hand": "right"
    },
    {
      "midi": 83,
      "time": 200.137,
      "duration": 0.103,
      "velocity": 1,
      "hand": "right"
    },
    {
      "midi": 81,
      "time": 200.24,
      "duration": 0.103,
      "velocity": 1,
      "hand": "right"
    },
    {
      "midi": 84,
      "time": 200.342,
      "duration": 0.103,
      "velocity": 1,
      "hand": "right"
    },
    {
      "midi": 83,
      "time": 200.445,
      "duration": 0.103,
      "velocity": 1,
      "hand": "right"
    },
    {
      "midi": 86,
      "time": 200.548,
      "duration": 0.205,
      "velocity": 1,
      "hand": "right"
    },
    {
      "midi": 78,
      "time": 200.753,
      "duration": 0.205,
      "velocity": 1,
      "hand": "right"
    },
    {
      "midi": 55,
      "time": 200.959,
      "duration": 0.822,
      "velocity": 1,
      "hand": "left"
    },
    {
      "midi": 59,
      "time": 200.959,
      "duration": 0.822,
      "velocity": 1,
      "hand": "left"
    },
    {
      "midi": 79,
      "time": 200.959,
      "duration": 0.103,
      "velocity": 1,
      "hand": "right"
    },
    {
      "midi": 78,
      "time": 201.062,
      "duration": 0.103,
      "velocity": 1,
      "hand": "right"
    },
    {
      "midi": 81,
      "time": 201.164,
      "duration": 0.103,
      "velocity": 1,
      "hand": "right"
    },
    {
      "midi": 79,
      "time": 201.267,
      "duration": 0.103,
      "velocity": 1,
      "hand": "right"
    },
    {
      "midi": 83,
      "time": 201.37,
      "duration": 0.205,
      "velocity": 1,
      "hand": "right"
    },
    {
      "midi": 75,
      "time": 201.575,
      "duration": 0.205,
      "velocity": 1,
      "hand": "right"
    },
    {
      "midi": 55,
      "time": 201.781,
      "duration": 0.822,
      "velocity": 1,
      "hand": "left"
    },
    {
      "midi": 60,
      "time": 201.781,
      "duration": 0.822,
      "velocity": 1,
      "hand": "right"
    },
    {
      "midi": 76,
      "time": 201.781,
      "duration": 0.103,
      "velocity": 1,
      "hand": "right"
    },
    {
      "midi": 75,
      "time": 201.884,
      "duration": 0.103,
      "velocity": 1,
      "hand": "right"
    },
    {
      "midi": 78,
      "time": 201.986,
      "duration": 0.103,
      "velocity": 1,
      "hand": "right"
    },
    {
      "midi": 76,
      "time": 202.089,
      "duration": 0.103,
      "velocity": 1,
      "hand": "right"
    },
    {
      "midi": 79,
      "time": 202.192,
      "duration": 0.205,
      "velocity": 1,
      "hand": "right"
    },
    {
      "midi": 71,
      "time": 202.397,
      "duration": 0.205,
      "velocity": 1,
      "hand": "right"
    },
    {
      "midi": 55,
      "time": 202.603,
      "duration": 0.822,
      "velocity": 1,
      "hand": "left"
    },
    {
      "midi": 66,
      "time": 202.603,
      "duration": 0.822,
      "velocity": 1,
      "hand": "right"
    },
    {
      "midi": 72,
      "time": 202.603,
      "duration": 0.103,
      "velocity": 1,
      "hand": "right"
    },
    {
      "midi": 71,
      "time": 202.705,
      "duration": 0.103,
      "velocity": 1,
      "hand": "right"
    },
    {
      "midi": 74,
      "time": 202.808,
      "duration": 0.103,
      "velocity": 1,
      "hand": "right"
    },
    {
      "midi": 72,
      "time": 202.911,
      "duration": 0.103,
      "velocity": 1,
      "hand": "right"
    },
    {
      "midi": 76,
      "time": 203.014,
      "duration": 0.205,
      "velocity": 1,
      "hand": "right"
    },
    {
      "midi": 69,
      "time": 203.219,
      "duration": 0.205,
      "velocity": 1,
      "hand": "right"
    },
    {
      "midi": 55,
      "time": 203.425,
      "duration": 0.411,
      "velocity": 1,
      "hand": "left"
    },
    {
      "midi": 67,
      "time": 203.425,
      "duration": 0.411,
      "velocity": 1,
      "hand": "right"
    },
    {
      "midi": 71,
      "time": 203.425,
      "duration": 0.103,
      "velocity": 1,
      "hand": "right"
    },
    {
      "midi": 69,
      "time": 203.527,
      "duration": 0.103,
      "velocity": 1,
      "hand": "right"
    },
    {
      "midi": 72,
      "time": 203.63,
      "duration": 0.103,
      "velocity": 1,
      "hand": "right"
    },
    {
      "midi": 71,
      "time": 203.733,
      "duration": 0.103,
      "velocity": 1,
      "hand": "right"
    },
    {
      "midi": 74,
      "time": 203.836,
      "duration": 0.205,
      "velocity": 1,
      "hand": "right"
    },
    {
      "midi": 54,
      "time": 204.041,
      "duration": 0.205,
      "velocity": 1,
      "hand": "left"
    },
    {
      "midi": 66,
      "time": 204.041,
      "duration": 0.205,
      "velocity": 1,
      "hand": "right"
    },
    {
      "midi": 55,
      "time": 204.247,
      "duration": 0.103,
      "velocity": 1,
      "hand": "left"
    },
    {
      "midi": 67,
      "time": 204.247,
      "duration": 0.103,
      "velocity": 1,
      "hand": "right"
    },
    {
      "midi": 54,
      "time": 204.349,
      "duration": 0.103,
      "velocity": 1,
      "hand": "left"
    },
    {
      "midi": 66,
      "time": 204.349,
      "duration": 0.103,
      "velocity": 1,
      "hand": "right"
    },
    {
      "midi": 57,
      "time": 204.452,
      "duration": 0.103,
      "velocity": 1,
      "hand": "left"
    },
    {
      "midi": 69,
      "time": 204.452,
      "duration": 0.103,
      "velocity": 1,
      "hand": "right"
    },
    {
      "midi": 55,
      "time": 204.555,
      "duration": 0.103,
      "velocity": 1,
      "hand": "left"
    },
    {
      "midi": 67,
      "time": 204.555,
      "duration": 0.103,
      "velocity": 1,
      "hand": "right"
    },
    {
      "midi": 59,
      "time": 204.658,
      "duration": 0.205,
      "velocity": 1,
      "hand": "left"
    },
    {
      "midi": 71,
      "time": 204.658,
      "duration": 0.205,
      "velocity": 1,
      "hand": "right"
    },
    {
      "midi": 50,
      "time": 204.863,
      "duration": 0.205,
      "velocity": 1,
      "hand": "left"
    },
    {
      "midi": 62,
      "time": 204.863,
      "duration": 0.205,
      "velocity": 1,
      "hand": "right"
    },
    {
      "midi": 52,
      "time": 205.068,
      "duration": 0.308,
      "velocity": 1,
      "hand": "left"
    },
    {
      "midi": 64,
      "time": 205.068,
      "duration": 0.308,
      "velocity": 1,
      "hand": "right"
    },
    {
      "midi": 50,
      "time": 205.377,
      "duration": 0.103,
      "velocity": 1,
      "hand": "left"
    },
    {
      "midi": 62,
      "time": 205.377,
      "duration": 0.103,
      "velocity": 1,
      "hand": "right"
    },
    {
      "midi": 48,
      "time": 205.479,
      "duration": 0.308,
      "velocity": 1,
      "hand": "left"
    },
    {
      "midi": 60,
      "time": 205.479,
      "duration": 0.308,
      "velocity": 1,
      "hand": "right"
    },
    {
      "midi": 47,
      "time": 205.788,
      "duration": 0.103,
      "velocity": 1,
      "hand": "left"
    },
    {
      "midi": 59,
      "time": 205.788,
      "duration": 0.103,
      "velocity": 1,
      "hand": "left"
    },
    {
      "midi": 48,
      "time": 205.89,
      "duration": 0.308,
      "velocity": 1,
      "hand": "left"
    },
    {
      "midi": 60,
      "time": 205.89,
      "duration": 0.308,
      "velocity": 1,
      "hand": "right"
    },
    {
      "midi": 45,
      "time": 206.199,
      "duration": 0.103,
      "velocity": 1,
      "hand": "left"
    },
    {
      "midi": 57,
      "time": 206.199,
      "duration": 0.103,
      "velocity": 1,
      "hand": "left"
    },
    {
      "midi": 43,
      "time": 206.301,
      "duration": 0.308,
      "velocity": 1,
      "hand": "left"
    },
    {
      "midi": 55,
      "time": 206.301,
      "duration": 0.308,
      "velocity": 1,
      "hand": "left"
    },
    {
      "midi": 42,
      "time": 206.61,
      "duration": 0.103,
      "velocity": 1,
      "hand": "left"
    },
    {
      "midi": 54,
      "time": 206.61,
      "duration": 0.103,
      "velocity": 1,
      "hand": "left"
    },
    {
      "midi": 43,
      "time": 206.712,
      "duration": 0.205,
      "velocity": 1,
      "hand": "left"
    },
    {
      "midi": 55,
      "time": 206.712,
      "duration": 0.205,
      "velocity": 1,
      "hand": "left"
    },
    {
      "midi": 47,
      "time": 206.918,
      "duration": 0.103,
      "velocity": 1,
      "hand": "left"
    },
    {
      "midi": 59,
      "time": 206.918,
      "duration": 0.103,
      "velocity": 1,
      "hand": "left"
    },
    {
      "midi": 50,
      "time": 207.021,
      "duration": 0.103,
      "velocity": 1,
      "hand": "left"
    },
    {
      "midi": 62,
      "time": 207.021,
      "duration": 0.103,
      "velocity": 1,
      "hand": "right"
    },
    {
      "midi": 55,
      "time": 207.123,
      "duration": 0.205,
      "velocity": 1,
      "hand": "left"
    },
    {
      "midi": 67,
      "time": 207.123,
      "duration": 0.205,
      "velocity": 1,
      "hand": "right"
    },
    {
      "midi": 55,
      "time": 207.329,
      "duration": 0.205,
      "velocity": 1,
      "hand": "left"
    },
    {
      "midi": 67,
      "time": 207.329,
      "duration": 0.205,
      "velocity": 1,
      "hand": "right"
    },
    {
      "midi": 55,
      "time": 207.534,
      "duration": 0.411,
      "velocity": 1,
      "hand": "left"
    },
    {
      "midi": 67,
      "time": 207.534,
      "duration": 0.411,
      "velocity": 1,
      "hand": "right"
    },
    {
      "midi": 78,
      "time": 208.356,
      "duration": 0.205,
      "velocity": 1,
      "hand": "right"
    },
    {
      "midi": 79,
      "time": 208.562,
      "duration": 0.205,
      "velocity": 1,
      "hand": "right"
    },
    {
      "midi": 78,
      "time": 208.767,
      "duration": 0.205,
      "velocity": 1,
      "hand": "right"
    },
    {
      "midi": 79,
      "time": 208.973,
      "duration": 0.205,
      "velocity": 1,
      "hand": "right"
    },
    {
      "midi": 78,
      "time": 209.178,
      "duration": 0.205,
      "velocity": 1,
      "hand": "right"
    },
    {
      "midi": 79,
      "time": 209.384,
      "duration": 0.205,
      "velocity": 1,
      "hand": "right"
    },
    {
      "midi": 78,
      "time": 209.589,
      "duration": 0.205,
      "velocity": 1,
      "hand": "right"
    },
    {
      "midi": 79,
      "time": 209.795,
      "duration": 0.205,
      "velocity": 1,
      "hand": "right"
    },
    {
      "midi": 77,
      "time": 210,
      "duration": 0.205,
      "velocity": 1,
      "hand": "right"
    },
    {
      "midi": 79,
      "time": 210.205,
      "duration": 0.205,
      "velocity": 1,
      "hand": "right"
    },
    {
      "midi": 76,
      "time": 210.411,
      "duration": 0.205,
      "velocity": 1,
      "hand": "right"
    },
    {
      "midi": 79,
      "time": 210.616,
      "duration": 0.205,
      "velocity": 1,
      "hand": "right"
    },
    {
      "midi": 77,
      "time": 210.822,
      "duration": 0.205,
      "velocity": 1,
      "hand": "right"
    },
    {
      "midi": 79,
      "time": 211.027,
      "duration": 0.205,
      "velocity": 1,
      "hand": "right"
    },
    {
      "midi": 74,
      "time": 211.233,
      "duration": 0.205,
      "velocity": 1,
      "hand": "right"
    },
    {
      "midi": 79,
      "time": 211.438,
      "duration": 0.205,
      "velocity": 1,
      "hand": "right"
    },
    {
      "midi": 64,
      "time": 211.644,
      "duration": 0.205,
      "velocity": 1,
      "hand": "right"
    },
    {
      "midi": 72,
      "time": 211.644,
      "duration": 0.205,
      "velocity": 1,
      "hand": "right"
    },
    {
      "midi": 65,
      "time": 211.849,
      "duration": 0.205,
      "velocity": 1,
      "hand": "right"
    },
    {
      "midi": 79,
      "time": 211.849,
      "duration": 0.205,
      "velocity": 1,
      "hand": "right"
    },
    {
      "midi": 67,
      "time": 212.055,
      "duration": 0.205,
      "velocity": 1,
      "hand": "right"
    },
    {
      "midi": 72,
      "time": 212.055,
      "duration": 0.205,
      "velocity": 1,
      "hand": "right"
    },
    {
      "midi": 64,
      "time": 212.26,
      "duration": 0.205,
      "velocity": 1,
      "hand": "right"
    },
    {
      "midi": 79,
      "time": 212.26,
      "duration": 0.205,
      "velocity": 1,
      "hand": "right"
    },
    {
      "midi": 60,
      "time": 212.466,
      "duration": 0.822,
      "velocity": 1,
      "hand": "right"
    },
    {
      "midi": 76,
      "time": 212.466,
      "duration": 0.205,
      "velocity": 1,
      "hand": "right"
    },
    {
      "midi": 79,
      "time": 212.671,
      "duration": 0.205,
      "velocity": 1,
      "hand": "right"
    },
    {
      "midi": 76,
      "time": 212.877,
      "duration": 0.205,
      "velocity": 1,
      "hand": "right"
    },
    {
      "midi": 79,
      "time": 213.082,
      "duration": 0.205,
      "velocity": 1,
      "hand": "right"
    },
    {
      "midi": 62,
      "time": 213.288,
      "duration": 0.205,
      "velocity": 1,
      "hand": "right"
    },
    {
      "midi": 77,
      "time": 213.288,
      "duration": 0.205,
      "velocity": 1,
      "hand": "right"
    },
    {
      "midi": 64,
      "time": 213.493,
      "duration": 0.205,
      "velocity": 1,
      "hand": "right"
    },
    {
      "midi": 79,
      "time": 213.493,
      "duration": 0.205,
      "velocity": 1,
      "hand": "right"
    },
    {
      "midi": 65,
      "time": 213.699,
      "duration": 0.205,
      "velocity": 1,
      "hand": "right"
    },
    {
      "midi": 77,
      "time": 213.699,
      "duration": 0.205,
      "velocity": 1,
      "hand": "right"
    },
    {
      "midi": 62,
      "time": 213.904,
      "duration": 0.205,
      "velocity": 1,
      "hand": "right"
    },
    {
      "midi": 79,
      "time": 213.904,
      "duration": 0.205,
      "velocity": 1,
      "hand": "right"
    },
    {
      "midi": 59,
      "time": 214.11,
      "duration": 0.822,
      "velocity": 1,
      "hand": "left"
    },
    {
      "midi": 74,
      "time": 214.11,
      "duration": 0.205,
      "velocity": 1,
      "hand": "right"
    },
    {
      "midi": 79,
      "time": 214.315,
      "duration": 0.205,
      "velocity": 1,
      "hand": "right"
    },
    {
      "midi": 74,
      "time": 214.521,
      "duration": 0.205,
      "velocity": 1,
      "hand": "right"
    },
    {
      "midi": 79,
      "time": 214.726,
      "duration": 0.205,
      "velocity": 1,
      "hand": "right"
    },
    {
      "midi": 62,
      "time": 214.932,
      "duration": 0.103,
      "velocity": 1,
      "hand": "right"
    },
    {
      "midi": 76,
      "time": 214.932,
      "duration": 0.205,
      "velocity": 1,
      "hand": "right"
    },
    {
      "midi": 60,
      "time": 215.034,
      "duration": 0.205,
      "velocity": 1,
      "hand": "right"
    },
    {
      "midi": 79,
      "time": 215.137,
      "duration": 0.205,
      "velocity": 1,
      "hand": "right"
    },
    {
      "midi": 65,
      "time": 215.342,
      "duration": 0.103,
      "velocity": 1,
      "hand": "right"
    },
    {
      "midi": 72,
      "time": 215.342,
      "duration": 0.205,
      "velocity": 1,
      "hand": "right"
    },
    {
      "midi": 64,
      "time": 215.445,
      "duration": 0.205,
      "velocity": 1,
      "hand": "right"
    },
    {
      "midi": 79,
      "time": 215.548,
      "duration": 0.205,
      "velocity": 1,
      "hand": "right"
    },
    {
      "midi": 61,
      "time": 215.753,
      "duration": 0.103,
      "velocity": 1,
      "hand": "right"
    },
    {
      "midi": 71,
      "time": 215.753,
      "duration": 0.205,
      "velocity": 1,
      "hand": "right"
    },
    {
      "midi": 62,
      "time": 215.856,
      "duration": 0.205,
      "velocity": 1,
      "hand": "right"
    },
    {
      "midi": 79,
      "time": 215.959,
      "duration": 0.205,
      "velocity": 1,
      "hand": "right"
    },
    {
      "midi": 74,
      "time": 216.164,
      "duration": 0.205,
      "velocity": 1,
      "hand": "right"
    },
    {
      "midi": 79,
      "time": 216.37,
      "duration": 0.205,
      "velocity": 1,
      "hand": "right"
    },
    {
      "midi": 65,
      "time": 216.575,
      "duration": 0.103,
      "velocity": 1,
      "hand": "right"
    },
    {
      "midi": 72,
      "time": 216.575,
      "duration": 0.205,
      "velocity": 1,
      "hand": "right"
    },
    {
      "midi": 64,
      "time": 216.678,
      "duration": 0.205,
      "velocity": 1,
      "hand": "right"
    },
    {
      "midi": 79,
      "time": 216.781,
      "duration": 0.205,
      "velocity": 1,
      "hand": "right"
    },
    {
      "midi": 67,
      "time": 216.986,
      "duration": 0.103,
      "velocity": 1,
      "hand": "right"
    },
    {
      "midi": 72,
      "time": 216.986,
      "duration": 0.205,
      "velocity": 1,
      "hand": "right"
    },
    {
      "midi": 66,
      "time": 217.089,
      "duration": 0.205,
      "velocity": 1,
      "hand": "right"
    },
    {
      "midi": 81,
      "time": 217.192,
      "duration": 0.205,
      "velocity": 1,
      "hand": "right"
    },
    {
      "midi": 69,
      "time": 217.397,
      "duration": 0.103,
      "velocity": 1,
      "hand": "right"
    },
    {
      "midi": 71,
      "time": 217.397,
      "duration": 0.205,
      "velocity": 1,
      "hand": "right"
    },
    {
      "midi": 67,
      "time": 217.5,
      "duration": 0.205,
      "velocity": 1,
      "hand": "right"
    },
    {
      "midi": 74,
      "time": 217.603,
      "duration": 0.205,
      "velocity": 1,
      "hand": "right"
    },
    {
      "midi": 78,
      "time": 217.808,
      "duration": 0.205,
      "velocity": 1,
      "hand": "right"
    },
    {
      "midi": 79,
      "time": 218.014,
      "duration": 0.205,
      "velocity": 1,
      "hand": "right"
    },
    {
      "midi": 48,
      "time": 218.219,
      "duration": 0.205,
      "velocity": 1,
      "hand": "left"
    },
    {
      "midi": 76,
      "time": 218.219,
      "duration": 0.205,
      "velocity": 1,
      "hand": "right"
    },
    {
      "midi": 55,
      "time": 218.425,
      "duration": 0.205,
      "velocity": 1,
      "hand": "left"
    },
    {
      "midi": 77,
      "time": 218.425,
      "duration": 0.205,
      "velocity": 1,
      "hand": "right"
    },
    {
      "midi": 48,
      "time": 218.63,
      "duration": 0.205,
      "velocity": 1,
      "hand": "left"
    },
    {
      "midi": 79,
      "time": 218.63,
      "duration": 0.205,
      "velocity": 1,
      "hand": "right"
    },
    {
      "midi": 55,
      "time": 218.836,
      "duration": 0.205,
      "velocity": 1,
      "hand": "left"
    },
    {
      "midi": 76,
      "time": 218.836,
      "duration": 0.205,
      "velocity": 1,
      "hand": "right"
    },
    {
      "midi": 52,
      "time": 219.041,
      "duration": 0.205,
      "velocity": 1,
      "hand": "left"
    },
    {
      "midi": 72,
      "time": 219.041,
      "duration": 0.822,
      "velocity": 1,
      "hand": "right"
    },
    {
      "midi": 55,
      "time": 219.247,
      "duration": 0.205,
      "velocity": 1,
      "hand": "left"
    },
    {
      "midi": 52,
      "time": 219.452,
      "duration": 0.205,
      "velocity": 1,
      "hand": "left"
    },
    {
      "midi": 55,
      "time": 219.658,
      "duration": 0.205,
      "velocity": 1,
      "hand": "left"
    },
    {
      "midi": 53,
      "time": 219.863,
      "duration": 0.205,
      "velocity": 1,
      "hand": "left"
    },
    {
      "midi": 74,
      "time": 219.863,
      "duration": 0.205,
      "velocity": 1,
      "hand": "right"
    },
    {
      "midi": 55,
      "time": 220.068,
      "duration": 0.205,
      "velocity": 1,
      "hand": "left"
    },
    {
      "midi": 76,
      "time": 220.068,
      "duration": 0.205,
      "velocity": 1,
      "hand": "right"
    },
    {
      "midi": 53,
      "time": 220.274,
      "duration": 0.205,
      "velocity": 1,
      "hand": "left"
    },
    {
      "midi": 77,
      "time": 220.274,
      "duration": 0.205,
      "velocity": 1,
      "hand": "right"
    },
    {
      "midi": 55,
      "time": 220.479,
      "duration": 0.205,
      "velocity": 1,
      "hand": "left"
    },
    {
      "midi": 74,
      "time": 220.479,
      "duration": 0.205,
      "velocity": 1,
      "hand": "right"
    },
    {
      "midi": 50,
      "time": 220.685,
      "duration": 0.205,
      "velocity": 1,
      "hand": "left"
    },
    {
      "midi": 83,
      "time": 220.685,
      "duration": 0.822,
      "velocity": 1,
      "hand": "right"
    },
    {
      "midi": 55,
      "time": 220.89,
      "duration": 0.205,
      "velocity": 1,
      "hand": "left"
    },
    {
      "midi": 50,
      "time": 221.096,
      "duration": 0.205,
      "velocity": 1,
      "hand": "left"
    },
    {
      "midi": 55,
      "time": 221.301,
      "duration": 0.205,
      "velocity": 1,
      "hand": "left"
    },
    {
      "midi": 52,
      "time": 221.507,
      "duration": 0.205,
      "velocity": 1,
      "hand": "left"
    },
    {
      "midi": 84,
      "time": 221.507,
      "duration": 0.103,
      "velocity": 1,
      "hand": "right"
    },
    {
      "midi": 83,
      "time": 221.61,
      "duration": 0.308,
      "velocity": 1,
      "hand": "right"
    },
    {
      "midi": 55,
      "time": 221.712,
      "duration": 0.205,
      "velocity": 1,
      "hand": "left"
    },
    {
      "midi": 48,
      "time": 221.918,
      "duration": 0.205,
      "velocity": 1,
      "hand": "left"
    },
    {
      "midi": 81,
      "time": 221.918,
      "duration": 0.103,
      "velocity": 1,
      "hand": "right"
    },
    {
      "midi": 79,
      "time": 222.021,
      "duration": 0.308,
      "velocity": 1,
      "hand": "right"
    },
    {
      "midi": 55,
      "time": 222.123,
      "duration": 0.205,
      "velocity": 1,
      "hand": "left"
    },
    {
      "midi": 50,
      "time": 222.329,
      "duration": 0.205,
      "velocity": 1,
      "hand": "left"
    },
    {
      "midi": 76,
      "time": 222.329,
      "duration": 0.103,
      "velocity": 1,
      "hand": "right"
    },
    {
      "midi": 77,
      "time": 222.432,
      "duration": 0.308,
      "velocity": 1,
      "hand": "right"
    },
    {
      "midi": 55,
      "time": 222.534,
      "duration": 0.205,
      "velocity": 1,
      "hand": "left"
    },
    {
      "midi": 47,
      "time": 222.74,
      "duration": 0.205,
      "velocity": 1,
      "hand": "left"
    },
    {
      "midi": 55,
      "time": 222.945,
      "duration": 0.205,
      "velocity": 1,
      "hand": "left"
    },
    {
      "midi": 48,
      "time": 223.151,
      "duration": 0.205,
      "velocity": 1,
      "hand": "left"
    },
    {
      "midi": 77,
      "time": 223.151,
      "duration": 0.103,
      "velocity": 1,
      "hand": "right"
    },
    {
      "midi": 76,
      "time": 223.253,
      "duration": 0.308,
      "velocity": 1,
      "hand": "right"
    },
    {
      "midi": 55,
      "time": 223.356,
      "duration": 0.205,
      "velocity": 1,
      "hand": "left"
    },
    {
      "midi": 45,
      "time": 223.562,
      "duration": 0.205,
      "velocity": 1,
      "hand": "left"
    },
    {
      "midi": 74,
      "time": 223.562,
      "duration": 0.103,
      "velocity": 1,
      "hand": "right"
    },
    {
      "midi": 72,
      "time": 223.664,
      "duration": 0.308,
      "velocity": 1,
      "hand": "right"
    },
    {
      "midi": 54,
      "time": 223.767,
      "duration": 0.205,
      "velocity": 1,
      "hand": "left"
    },
    {
      "midi": 43,
      "time": 223.973,
      "duration": 0.205,
      "velocity": 1,
      "hand": "left"
    },
    {
      "midi": 81,
      "time": 223.973,
      "duration": 0.103,
      "velocity": 1,
      "hand": "right"
    },
    {
      "midi": 79,
      "time": 224.075,
      "duration": 0.308,
      "velocity": 1,
      "hand": "right"
    },
    {
      "midi": 55,
      "time": 224.178,
      "duration": 0.205,
      "velocity": 1,
      "hand": "left"
    },
    {
      "midi": 41,
      "time": 224.384,
      "duration": 0.205,
      "velocity": 1,
      "hand": "left"
    },
    {
      "midi": 53,
      "time": 224.589,
      "duration": 0.205,
      "velocity": 1,
      "hand": "left"
    },
    {
      "midi": 40,
      "time": 224.795,
      "duration": 0.103,
      "velocity": 1,
      "hand": "left"
    },
    {
      "midi": 67,
      "time": 224.795,
      "duration": 0.822,
      "velocity": 1,
      "hand": "right"
    },
    {
      "midi": 79,
      "time": 224.795,
      "duration": 0.822,
      "velocity": 1,
      "hand": "right"
    },
    {
      "midi": 48,
      "time": 224.897,
      "duration": 0.103,
      "velocity": 1,
      "hand": "left"
    },
    {
      "midi": 47,
      "time": 225,
      "duration": 0.103,
      "velocity": 1,
      "hand": "left"
    },
    {
      "midi": 48,
      "time": 225.103,
      "duration": 0.103,
      "velocity": 1,
      "hand": "left"
    },
    {
      "midi": 50,
      "time": 225.205,
      "duration": 0.103,
      "velocity": 1,
      "hand": "left"
    },
    {
      "midi": 48,
      "time": 225.308,
      "duration": 0.103,
      "velocity": 1,
      "hand": "left"
    },
    {
      "midi": 47,
      "time": 225.411,
      "duration": 0.103,
      "velocity": 1,
      "hand": "left"
    },
    {
      "midi": 48,
      "time": 225.514,
      "duration": 0.103,
      "velocity": 1,
      "hand": "left"
    },
    {
      "midi": 40,
      "time": 225.616,
      "duration": 0.411,
      "velocity": 1,
      "hand": "left"
    },
    {
      "midi": 77,
      "time": 225.616,
      "duration": 0.205,
      "velocity": 1,
      "hand": "right"
    },
    {
      "midi": 76,
      "time": 225.822,
      "duration": 0.205,
      "velocity": 1,
      "hand": "right"
    },
    {
      "midi": 74,
      "time": 226.027,
      "duration": 0.205,
      "velocity": 1,
      "hand": "right"
    },
    {
      "midi": 72,
      "time": 226.233,
      "duration": 0.205,
      "velocity": 1,
      "hand": "right"
    },
    {
      "midi": 41,
      "time": 226.438,
      "duration": 0.103,
      "velocity": 1,
      "hand": "left"
    },
    {
      "midi": 69,
      "time": 226.438,
      "duration": 0.822,
      "velocity": 1,
      "hand": "right"
    },
    {
      "midi": 81,
      "time": 226.438,
      "duration": 0.822,
      "velocity": 1,
      "hand": "right"
    },
    {
      "midi": 48,
      "time": 226.541,
      "duration": 0.103,
      "velocity": 1,
      "hand": "left"
    },
    {
      "midi": 47,
      "time": 226.644,
      "duration": 0.103,
      "velocity": 1,
      "hand": "left"
    },
    {
      "midi": 48,
      "time": 226.747,
      "duration": 0.103,
      "velocity": 1,
      "hand": "left"
    },
    {
      "midi": 50,
      "time": 226.849,
      "duration": 0.103,
      "velocity": 1,
      "hand": "left"
    },
    {
      "midi": 48,
      "time": 226.952,
      "duration": 0.103,
      "velocity": 1,
      "hand": "left"
    },
    {
      "midi": 47,
      "time": 227.055,
      "duration": 0.103,
      "velocity": 1,
      "hand": "left"
    },
    {
      "midi": 48,
      "time": 227.158,
      "duration": 0.103,
      "velocity": 1,
      "hand": "left"
    },
    {
      "midi": 41,
      "time": 227.26,
      "duration": 0.411,
      "velocity": 1,
      "hand": "left"
    },
    {
      "midi": 79,
      "time": 227.26,
      "duration": 0.205,
      "velocity": 1,
      "hand": "right"
    },
    {
      "midi": 77,
      "time": 227.466,
      "duration": 0.205,
      "velocity": 1,
      "hand": "right"
    },
    {
      "midi": 76,
      "time": 227.671,
      "duration": 0.205,
      "velocity": 1,
      "hand": "right"
    },
    {
      "midi": 74,
      "time": 227.877,
      "duration": 0.205,
      "velocity": 1,
      "hand": "right"
    },
    {
      "midi": 43,
      "time": 228.082,
      "duration": 0.205,
      "velocity": 1,
      "hand": "left"
    },
    {
      "midi": 76,
      "time": 228.082,
      "duration": 0.103,
      "velocity": 1,
      "hand": "right"
    },
    {
      "midi": 77,
      "time": 228.185,
      "duration": 0.103,
      "velocity": 1,
      "hand": "right"
    },
    {
      "midi": 48,
      "time": 228.288,
      "duration": 0.205,
      "velocity": 1,
      "hand": "left"
    },
    {
      "midi": 79,
      "time": 228.288,
      "duration": 0.103,
      "velocity": 1,
      "hand": "right"
    },
    {
      "midi": 76,
      "time": 228.39,
      "duration": 0.103,
      "velocity": 1,
      "hand": "right"
    },
    {
      "midi": 52,
      "time": 228.493,
      "duration": 0.205,
      "velocity": 1,
      "hand": "left"
    },
    {
      "midi": 72,
      "time": 228.493,
      "duration": 0.205,
      "velocity": 1,
      "hand": "right"
    },
    {
      "midi": 48,
      "time": 228.699,
      "duration": 0.205,
      "velocity": 1,
      "hand": "left"
    },
    {
      "midi": 43,
      "time": 228.904,
      "duration": 0.205,
      "velocity": 1,
      "hand": "left"
    },
    {
      "midi": 74,
      "time": 228.904,
      "duration": 0.103,
      "velocity": 1,
      "hand": "right"
    },
    {
      "midi": 76,
      "time": 229.007,
      "duration": 0.103,
      "velocity": 1,
      "hand": "right"
    },
    {
      "midi": 50,
      "time": 229.11,
      "duration": 0.205,
      "velocity": 1,
      "hand": "left"
    },
    {
      "midi": 77,
      "time": 229.11,
      "duration": 0.103,
      "velocity": 1,
      "hand": "right"
    },
    {
      "midi": 74,
      "time": 229.212,
      "duration": 0.103,
      "velocity": 1,
      "hand": "right"
    },
    {
      "midi": 53,
      "time": 229.315,
      "duration": 0.205,
      "velocity": 1,
      "hand": "left"
    },
    {
      "midi": 71,
      "time": 229.315,
      "duration": 0.205,
      "velocity": 1,
      "hand": "right"
    },
    {
      "midi": 50,
      "time": 229.521,
      "duration": 0.205,
      "velocity": 1,
      "hand": "left"
    },
    {
      "midi": 52,
      "time": 229.726,
      "duration": 0.103,
      "velocity": 1,
      "hand": "left"
    },
    {
      "midi": 67,
      "time": 229.726,
      "duration": 0.822,
      "velocity": 1,
      "hand": "right"
    },
    {
      "midi": 79,
      "time": 229.726,
      "duration": 0.822,
      "velocity": 1,
      "hand": "right"
    },
    {
      "midi": 60,
      "time": 229.829,
      "duration": 0.103,
      "velocity": 1,
      "hand": "right"
    },
    {
      "midi": 59,
      "time": 229.932,
      "duration": 0.103,
      "velocity": 1,
      "hand": "left"
    },
    {
      "midi": 60,
      "time": 230.034,
      "duration": 0.103,
      "velocity": 1,
      "hand": "right"
    },
    {
      "midi": 62,
      "time": 230.137,
      "duration": 0.103,
      "velocity": 1,
      "hand": "right"
    },
    {
      "midi": 60,
      "time": 230.24,
      "duration": 0.103,
      "velocity": 1,
      "hand": "right"
    },
    {
      "midi": 59,
      "time": 230.342,
      "duration": 0.103,
      "velocity": 1,
      "hand": "left"
    },
    {
      "midi": 60,
      "time": 230.445,
      "duration": 0.103,
      "velocity": 1,
      "hand": "right"
    },
    {
      "midi": 52,
      "time": 230.548,
      "duration": 0.411,
      "velocity": 1,
      "hand": "left"
    },
    {
      "midi": 77,
      "time": 230.548,
      "duration": 0.103,
      "velocity": 1,
      "hand": "right"
    },
    {
      "midi": 79,
      "time": 230.651,
      "duration": 0.103,
      "velocity": 1,
      "hand": "right"
    },
    {
      "midi": 77,
      "time": 230.753,
      "duration": 0.103,
      "velocity": 1,
      "hand": "right"
    },
    {
      "midi": 76,
      "time": 230.856,
      "duration": 0.103,
      "velocity": 1,
      "hand": "right"
    },
    {
      "midi": 74,
      "time": 230.959,
      "duration": 0.103,
      "velocity": 1,
      "hand": "right"
    },
    {
      "midi": 76,
      "time": 231.062,
      "duration": 0.103,
      "velocity": 1,
      "hand": "right"
    },
    {
      "midi": 74,
      "time": 231.164,
      "duration": 0.103,
      "velocity": 1,
      "hand": "right"
    },
    {
      "midi": 72,
      "time": 231.267,
      "duration": 0.103,
      "velocity": 1,
      "hand": "right"
    },
    {
      "midi": 57,
      "time": 231.37,
      "duration": 0.103,
      "velocity": 1,
      "hand": "left"
    },
    {
      "midi": 72,
      "time": 231.37,
      "duration": 0.822,
      "velocity": 1,
      "hand": "right"
    },
    {
      "midi": 84,
      "time": 231.37,
      "duration": 0.822,
      "velocity": 1,
      "hand": "right"
    },
    {
      "midi": 65,
      "time": 231.473,
      "duration": 0.103,
      "velocity": 1,
      "hand": "right"
    },
    {
      "midi": 64,
      "time": 231.575,
      "duration": 0.103,
      "velocity": 1,
      "hand": "right"
    },
    {
      "midi": 65,
      "time": 231.678,
      "duration": 0.103,
      "velocity": 1,
      "hand": "right"
    },
    {
      "midi": 67,
      "time": 231.781,
      "duration": 0.103,
      "velocity": 1,
      "hand": "right"
    },
    {
      "midi": 65,
      "time": 231.884,
      "duration": 0.103,
      "velocity": 1,
      "hand": "right"
    },
    {
      "midi": 64,
      "time": 231.986,
      "duration": 0.103,
      "velocity": 1,
      "hand": "right"
    },
    {
      "midi": 65,
      "time": 232.089,
      "duration": 0.103,
      "velocity": 1,
      "hand": "right"
    },
    {
      "midi": 57,
      "time": 232.192,
      "duration": 0.411,
      "velocity": 1,
      "hand": "left"
    },
    {
      "midi": 83,
      "time": 232.192,
      "duration": 0.103,
      "velocity": 1,
      "hand": "right"
    },
    {
      "midi": 84,
      "time": 232.295,
      "duration": 0.103,
      "velocity": 1,
      "hand": "right"
    },
    {
      "midi": 83,
      "time": 232.397,
      "duration": 0.103,
      "velocity": 1,
      "hand": "right"
    },
    {
      "midi": 81,
      "time": 232.5,
      "duration": 0.103,
      "velocity": 1,
      "hand": "right"
    },
    {
      "midi": 79,
      "time": 232.603,
      "duration": 0.103,
      "velocity": 1,
      "hand": "right"
    },
    {
      "midi": 81,
      "time": 232.705,
      "duration": 0.103,
      "velocity": 1,
      "hand": "right"
    },
    {
      "midi": 79,
      "time": 232.808,
      "duration": 0.103,
      "velocity": 1,
      "hand": "right"
    },
    {
      "midi": 77,
      "time": 232.911,
      "duration": 0.103,
      "velocity": 1,
      "hand": "right"
    },
    {
      "midi": 55,
      "time": 233.014,
      "duration": 0.205,
      "velocity": 1,
      "hand": "left"
    },
    {
      "midi": 76,
      "time": 233.014,
      "duration": 0.205,
      "velocity": 1,
      "hand": "right"
    },
    {
      "midi": 60,
      "time": 233.219,
      "duration": 0.205,
      "velocity": 1,
      "hand": "right"
    },
    {
      "midi": 72,
      "time": 233.219,
      "duration": 0.205,
      "velocity": 1,
      "hand": "right"
    },
    {
      "midi": 57,
      "time": 233.425,
      "duration": 0.205,
      "velocity": 1,
      "hand": "left"
    },
    {
      "midi": 77,
      "time": 233.425,
      "duration": 0.411,
      "velocity": 1,
      "hand": "right"
    },
    {
      "midi": 60,
      "time": 233.63,
      "duration": 0.205,
      "velocity": 1,
      "hand": "right"
    },
    {
      "midi": 55,
      "time": 233.836,
      "duration": 0.205,
      "velocity": 1,
      "hand": "left"
    },
    {
      "midi": 76,
      "time": 233.836,
      "duration": 0.205,
      "velocity": 1,
      "hand": "right"
    },
    {
      "midi": 60,
      "time": 234.041,
      "duration": 0.205,
      "velocity": 1,
      "hand": "right"
    },
    {
      "midi": 72,
      "time": 234.041,
      "duration": 0.205,
      "velocity": 1,
      "hand": "right"
    },
    {
      "midi": 53,
      "time": 234.247,
      "duration": 0.205,
      "velocity": 1,
      "hand": "left"
    },
    {
      "midi": 81,
      "time": 234.247,
      "duration": 0.411,
      "velocity": 1,
      "hand": "right"
    },
    {
      "midi": 60,
      "time": 234.452,
      "duration": 0.205,
      "velocity": 1,
      "hand": "right"
    },
    {
      "midi": 52,
      "time": 234.658,
      "duration": 0.205,
      "velocity": 1,
      "hand": "left"
    },
    {
      "midi": 79,
      "time": 234.658,
      "duration": 0.205,
      "velocity": 1,
      "hand": "right"
    },
    {
      "midi": 60,
      "time": 234.863,
      "duration": 0.205,
      "velocity": 1,
      "hand": "right"
    },
    {
      "midi": 72,
      "time": 234.863,
      "duration": 0.205,
      "velocity": 1,
      "hand": "right"
    },
    {
      "midi": 57,
      "time": 235.068,
      "duration": 0.205,
      "velocity": 1,
      "hand": "left"
    },
    {
      "midi": 77,
      "time": 235.068,
      "duration": 0.411,
      "velocity": 1,
      "hand": "right"
    },
    {
      "midi": 60,
      "time": 235.274,
      "duration": 0.205,
      "velocity": 1,
      "hand": "right"
    },
    {
      "midi": 55,
      "time": 235.479,
      "duration": 0.205,
      "velocity": 1,
      "hand": "left"
    },
    {
      "midi": 76,
      "time": 235.479,
      "duration": 0.205,
      "velocity": 1,
      "hand": "right"
    },
    {
      "midi": 60,
      "time": 235.685,
      "duration": 0.205,
      "velocity": 1,
      "hand": "right"
    },
    {
      "midi": 72,
      "time": 235.685,
      "duration": 0.205,
      "velocity": 1,
      "hand": "right"
    },
    {
      "midi": 53,
      "time": 235.89,
      "duration": 0.205,
      "velocity": 1,
      "hand": "left"
    },
    {
      "midi": 81,
      "time": 235.89,
      "duration": 0.411,
      "velocity": 1,
      "hand": "right"
    },
    {
      "midi": 60,
      "time": 236.096,
      "duration": 0.205,
      "velocity": 1,
      "hand": "right"
    },
    {
      "midi": 52,
      "time": 236.301,
      "duration": 0.205,
      "velocity": 1,
      "hand": "left"
    },
    {
      "midi": 55,
      "time": 236.301,
      "duration": 0.205,
      "velocity": 1,
      "hand": "left"
    },
    {
      "midi": 61,
      "time": 236.301,
      "duration": 0.205,
      "velocity": 1,
      "hand": "right"
    },
    {
      "midi": 70,
      "time": 236.301,
      "duration": 0.822,
      "velocity": 1,
      "hand": "right"
    },
    {
      "midi": 82,
      "time": 236.301,
      "duration": 0.822,
      "velocity": 1,
      "hand": "right"
    },
    {
      "midi": 52,
      "time": 236.507,
      "duration": 0.205,
      "velocity": 1,
      "hand": "left"
    },
    {
      "midi": 55,
      "time": 236.507,
      "duration": 0.205,
      "velocity": 1,
      "hand": "left"
    },
    {
      "midi": 61,
      "time": 236.507,
      "duration": 0.205,
      "velocity": 1,
      "hand": "right"
    },
    {
      "midi": 52,
      "time": 236.712,
      "duration": 0.205,
      "velocity": 1,
      "hand": "left"
    },
    {
      "midi": 55,
      "time": 236.712,
      "duration": 0.205,
      "velocity": 1,
      "hand": "left"
    },
    {
      "midi": 61,
      "time": 236.712,
      "duration": 0.205,
      "velocity": 1,
      "hand": "right"
    },
    {
      "midi": 52,
      "time": 236.918,
      "duration": 0.205,
      "velocity": 1,
      "hand": "left"
    },
    {
      "midi": 55,
      "time": 236.918,
      "duration": 0.205,
      "velocity": 1,
      "hand": "left"
    },
    {
      "midi": 61,
      "time": 236.918,
      "duration": 0.205,
      "velocity": 1,
      "hand": "right"
    },
    {
      "midi": 52,
      "time": 237.123,
      "duration": 0.205,
      "velocity": 1,
      "hand": "left"
    },
    {
      "midi": 55,
      "time": 237.123,
      "duration": 0.205,
      "velocity": 1,
      "hand": "left"
    },
    {
      "midi": 61,
      "time": 237.123,
      "duration": 0.205,
      "velocity": 1,
      "hand": "right"
    },
    {
      "midi": 70,
      "time": 237.123,
      "duration": 0.411,
      "velocity": 1,
      "hand": "right"
    },
    {
      "midi": 82,
      "time": 237.123,
      "duration": 0.411,
      "velocity": 1,
      "hand": "right"
    },
    {
      "midi": 52,
      "time": 237.329,
      "duration": 0.205,
      "velocity": 1,
      "hand": "left"
    },
    {
      "midi": 55,
      "time": 237.329,
      "duration": 0.205,
      "velocity": 1,
      "hand": "left"
    },
    {
      "midi": 61,
      "time": 237.329,
      "duration": 0.205,
      "velocity": 1,
      "hand": "right"
    },
    {
      "midi": 52,
      "time": 237.534,
      "duration": 0.205,
      "velocity": 1,
      "hand": "left"
    },
    {
      "midi": 55,
      "time": 237.534,
      "duration": 0.205,
      "velocity": 1,
      "hand": "left"
    },
    {
      "midi": 61,
      "time": 237.534,
      "duration": 0.205,
      "velocity": 1,
      "hand": "right"
    },
    {
      "midi": 70,
      "time": 237.534,
      "duration": 0.411,
      "velocity": 1,
      "hand": "right"
    },
    {
      "midi": 82,
      "time": 237.534,
      "duration": 0.411,
      "velocity": 1,
      "hand": "right"
    },
    {
      "midi": 52,
      "time": 237.74,
      "duration": 0.205,
      "velocity": 1,
      "hand": "left"
    },
    {
      "midi": 55,
      "time": 237.74,
      "duration": 0.205,
      "velocity": 1,
      "hand": "left"
    },
    {
      "midi": 61,
      "time": 237.74,
      "duration": 0.205,
      "velocity": 1,
      "hand": "right"
    },
    {
      "midi": 53,
      "time": 237.945,
      "duration": 0.411,
      "velocity": 1,
      "hand": "left"
    },
    {
      "midi": 57,
      "time": 237.945,
      "duration": 0.411,
      "velocity": 1,
      "hand": "left"
    },
    {
      "midi": 62,
      "time": 237.945,
      "duration": 0.411,
      "velocity": 1,
      "hand": "right"
    },
    {
      "midi": 69,
      "time": 237.945,
      "duration": 0.205,
      "velocity": 1,
      "hand": "right"
    },
    {
      "midi": 81,
      "time": 237.945,
      "duration": 0.205,
      "velocity": 1,
      "hand": "right"
    },
    {
      "midi": 79,
      "time": 238.151,
      "duration": 0.205,
      "velocity": 1,
      "hand": "right"
    },
    {
      "midi": 77,
      "time": 238.356,
      "duration": 0.205,
      "velocity": 1,
      "hand": "right"
    },
    {
      "midi": 76,
      "time": 238.562,
      "duration": 0.205,
      "velocity": 1,
      "hand": "right"
    },
    {
      "midi": 74,
      "time": 238.767,
      "duration": 0.205,
      "velocity": 1,
      "hand": "right"
    },
    {
      "midi": 72,
      "time": 238.973,
      "duration": 0.205,
      "velocity": 1,
      "hand": "right"
    },
    {
      "midi": 71,
      "time": 239.178,
      "duration": 0.205,
      "velocity": 1,
      "hand": "right"
    },
    {
      "midi": 69,
      "time": 239.384,
      "duration": 0.205,
      "velocity": 1,
      "hand": "right"
    },
    {
      "midi": 55,
      "time": 239.589,
      "duration": 0.103,
      "velocity": 1,
      "hand": "left"
    },
    {
      "midi": 67,
      "time": 239.589,
      "duration": 0.205,
      "velocity": 1,
      "hand": "right"
    },
    {
      "midi": 64,
      "time": 239.692,
      "duration": 0.103,
      "velocity": 1,
      "hand": "right"
    },
    {
      "midi": 60,
      "time": 239.795,
      "duration": 0.103,
      "velocity": 1,
      "hand": "right"
    },
    {
      "midi": 69,
      "time": 239.795,
      "duration": 0.103,
      "velocity": 1,
      "hand": "right"
    },
    {
      "midi": 64,
      "time": 239.897,
      "duration": 0.103,
      "velocity": 1,
      "hand": "right"
    },
    {
      "midi": 71,
      "time": 239.897,
      "duration": 0.103,
      "velocity": 1,
      "hand": "right"
    },
    {
      "midi": 55,
      "time": 240,
      "duration": 0.103,
      "velocity": 1,
      "hand": "left"
    },
    {
      "midi": 72,
      "time": 240,
      "duration": 0.103,
      "velocity": 1,
      "hand": "right"
    },
    {
      "midi": 64,
      "time": 240.103,
      "duration": 0.103,
      "velocity": 1,
      "hand": "right"
    },
    {
      "midi": 74,
      "time": 240.103,
      "duration": 0.103,
      "velocity": 1,
      "hand": "right"
    },
    {
      "midi": 60,
      "time": 240.205,
      "duration": 0.103,
      "velocity": 1,
      "hand": "right"
    },
    {
      "midi": 76,
      "time": 240.205,
      "duration": 0.103,
      "velocity": 1,
      "hand": "right"
    },
    {
      "midi": 64,
      "time": 240.308,
      "duration": 0.103,
      "velocity": 1,
      "hand": "right"
    },
    {
      "midi": 77,
      "time": 240.308,
      "duration": 0.103,
      "velocity": 1,
      "hand": "right"
    },
    {
      "midi": 55,
      "time": 240.411,
      "duration": 0.103,
      "velocity": 1,
      "hand": "left"
    },
    {
      "midi": 78,
      "time": 240.411,
      "duration": 0.103,
      "velocity": 1,
      "hand": "right"
    },
    {
      "midi": 64,
      "time": 240.514,
      "duration": 0.103,
      "velocity": 1,
      "hand": "right"
    },
    {
      "midi": 79,
      "time": 240.514,
      "duration": 0.103,
      "velocity": 1,
      "hand": "right"
    },
    {
      "midi": 60,
      "time": 240.616,
      "duration": 0.103,
      "velocity": 1,
      "hand": "right"
    },
    {
      "midi": 81,
      "time": 240.616,
      "duration": 0.103,
      "velocity": 1,
      "hand": "right"
    },
    {
      "midi": 64,
      "time": 240.719,
      "duration": 0.103,
      "velocity": 1,
      "hand": "right"
    },
    {
      "midi": 79,
      "time": 240.719,
      "duration": 0.103,
      "velocity": 1,
      "hand": "right"
    },
    {
      "midi": 55,
      "time": 240.822,
      "duration": 0.103,
      "velocity": 1,
      "hand": "left"
    },
    {
      "midi": 77,
      "time": 240.822,
      "duration": 0.103,
      "velocity": 1,
      "hand": "right"
    },
    {
      "midi": 64,
      "time": 240.925,
      "duration": 0.103,
      "velocity": 1,
      "hand": "right"
    },
    {
      "midi": 76,
      "time": 240.925,
      "duration": 0.103,
      "velocity": 1,
      "hand": "right"
    },
    {
      "midi": 60,
      "time": 241.027,
      "duration": 0.103,
      "velocity": 1,
      "hand": "right"
    },
    {
      "midi": 74,
      "time": 241.027,
      "duration": 0.103,
      "velocity": 1,
      "hand": "right"
    },
    {
      "midi": 64,
      "time": 241.13,
      "duration": 0.103,
      "velocity": 1,
      "hand": "right"
    },
    {
      "midi": 72,
      "time": 241.13,
      "duration": 0.103,
      "velocity": 1,
      "hand": "right"
    },
    {
      "midi": 55,
      "time": 241.233,
      "duration": 0.103,
      "velocity": 1,
      "hand": "left"
    },
    {
      "midi": 74,
      "time": 241.233,
      "duration": 1.644,
      "velocity": 1,
      "hand": "right"
    },
    {
      "midi": 65,
      "time": 241.336,
      "duration": 0.103,
      "velocity": 1,
      "hand": "right"
    },
    {
      "midi": 59,
      "time": 241.438,
      "duration": 0.103,
      "velocity": 1,
      "hand": "left"
    },
    {
      "midi": 65,
      "time": 241.541,
      "duration": 0.103,
      "velocity": 1,
      "hand": "right"
    },
    {
      "midi": 55,
      "time": 241.644,
      "duration": 0.103,
      "velocity": 1,
      "hand": "left"
    },
    {
      "midi": 65,
      "time": 241.747,
      "duration": 0.103,
      "velocity": 1,
      "hand": "right"
    },
    {
      "midi": 59,
      "time": 241.849,
      "duration": 0.103,
      "velocity": 1,
      "hand": "left"
    },
    {
      "midi": 65,
      "time": 241.952,
      "duration": 0.103,
      "velocity": 1,
      "hand": "right"
    },
    {
      "midi": 55,
      "time": 242.055,
      "duration": 0.103,
      "velocity": 1,
      "hand": "left"
    },
    {
      "midi": 65,
      "time": 242.158,
      "duration": 0.103,
      "velocity": 1,
      "hand": "right"
    },
    {
      "midi": 59,
      "time": 242.26,
      "duration": 0.103,
      "velocity": 1,
      "hand": "left"
    },
    {
      "midi": 65,
      "time": 242.363,
      "duration": 0.103,
      "velocity": 1,
      "hand": "right"
    },
    {
      "midi": 55,
      "time": 242.466,
      "duration": 0.103,
      "velocity": 1,
      "hand": "left"
    },
    {
      "midi": 72,
      "time": 242.466,
      "duration": 0.051,
      "velocity": 1,
      "hand": "right"
    },
    {
      "midi": 65,
      "time": 242.568,
      "duration": 0.103,
      "velocity": 1,
      "hand": "right"
    },
    {
      "midi": 59,
      "time": 242.671,
      "duration": 0.103,
      "velocity": 1,
      "hand": "left"
    },
    {
      "midi": 65,
      "time": 242.774,
      "duration": 0.103,
      "velocity": 1,
      "hand": "right"
    },
    {
      "midi": 60,
      "time": 242.877,
      "duration": 0.411,
      "velocity": 1,
      "hand": "right"
    },
    {
      "midi": 64,
      "time": 242.877,
      "duration": 0.411,
      "velocity": 1,
      "hand": "right"
    },
    {
      "midi": 72,
      "time": 242.877,
      "duration": 0.411,
      "velocity": 1,
      "hand": "right"
    },
    {
      "midi": 72,
      "time": 243.288,
      "duration": 0.411,
      "velocity": 1,
      "hand": "right"
    },
    {
      "midi": 76,
      "time": 243.493,
      "duration": 0.205,
      "velocity": 1,
      "hand": "right"
    },
    {
      "midi": 74,
      "time": 243.699,
      "duration": 0.411,
      "velocity": 1,
      "hand": "right"
    },
    {
      "midi": 79,
      "time": 243.699,
      "duration": 0.205,
      "velocity": 1,
      "hand": "right"
    },
    {
      "midi": 77,
      "time": 243.904,
      "duration": 0.205,
      "velocity": 1,
      "hand": "right"
    },
    {
      "midi": 71,
      "time": 244.11,
      "duration": 0.411,
      "velocity": 1,
      "hand": "right"
    },
    {
      "midi": 74,
      "time": 244.315,
      "duration": 0.205,
      "velocity": 1,
      "hand": "right"
    },
    {
      "midi": 72,
      "time": 244.521,
      "duration": 0.411,
      "velocity": 1,
      "hand": "right"
    },
    {
      "midi": 77,
      "time": 244.521,
      "duration": 0.205,
      "velocity": 1,
      "hand": "right"
    },
    {
      "midi": 76,
      "time": 244.726,
      "duration": 0.205,
      "velocity": 1,
      "hand": "right"
    },
    {
      "midi": 69,
      "time": 244.932,
      "duration": 0.411,
      "velocity": 1,
      "hand": "right"
    },
    {
      "midi": 72,
      "time": 245.137,
      "duration": 0.205,
      "velocity": 1,
      "hand": "right"
    },
    {
      "midi": 65,
      "time": 245.342,
      "duration": 0.411,
      "velocity": 1,
      "hand": "right"
    },
    {
      "midi": 76,
      "time": 245.342,
      "duration": 0.205,
      "velocity": 1,
      "hand": "right"
    },
    {
      "midi": 74,
      "time": 245.548,
      "duration": 0.205,
      "velocity": 1,
      "hand": "right"
    },
    {
      "midi": 67,
      "time": 245.753,
      "duration": 0.411,
      "velocity": 1,
      "hand": "right"
    },
    {
      "midi": 71,
      "time": 245.959,
      "duration": 0.205,
      "velocity": 1,
      "hand": "right"
    },
    {
      "midi": 64,
      "time": 246.164,
      "duration": 0.411,
      "velocity": 1,
      "hand": "right"
    },
    {
      "midi": 74,
      "time": 246.164,
      "duration": 0.205,
      "velocity": 1,
      "hand": "right"
    },
    {
      "midi": 72,
      "time": 246.37,
      "duration": 0.205,
      "velocity": 1,
      "hand": "right"
    },
    {
      "midi": 49,
      "time": 246.575,
      "duration": 0.411,
      "velocity": 1,
      "hand": "left"
    },
    {
      "midi": 61,
      "time": 246.575,
      "duration": 0.411,
      "velocity": 1,
      "hand": "right"
    },
    {
      "midi": 76,
      "time": 246.575,
      "duration": 0.103,
      "velocity": 1,
      "hand": "right"
    },
    {
      "midi": 77,
      "time": 246.678,
      "duration": 0.103,
      "velocity": 1,
      "hand": "right"
    },
    {
      "midi": 79,
      "time": 246.781,
      "duration": 0.103,
      "velocity": 1,
      "hand": "right"
    },
    {
      "midi": 76,
      "time": 246.884,
      "duration": 0.103,
      "velocity": 1,
      "hand": "right"
    },
    {
      "midi": 50,
      "time": 246.986,
      "duration": 0.411,
      "velocity": 1,
      "hand": "left"
    },
    {
      "midi": 62,
      "time": 246.986,
      "duration": 0.411,
      "velocity": 1,
      "hand": "right"
    },
    {
      "midi": 77,
      "time": 246.986,
      "duration": 0.103,
      "velocity": 1,
      "hand": "right"
    },
    {
      "midi": 79,
      "time": 247.089,
      "duration": 0.103,
      "velocity": 1,
      "hand": "right"
    },
    {
      "midi": 81,
      "time": 247.192,
      "duration": 0.103,
      "velocity": 1,
      "hand": "right"
    },
    {
      "midi": 77,
      "time": 247.295,
      "duration": 0.103,
      "velocity": 1,
      "hand": "right"
    },
    {
      "midi": 47,
      "time": 247.397,
      "duration": 0.411,
      "velocity": 1,
      "hand": "left"
    },
    {
      "midi": 59,
      "time": 247.397,
      "duration": 0.411,
      "velocity": 1,
      "hand": "left"
    },
    {
      "midi": 74,
      "time": 247.397,
      "duration": 0.103,
      "velocity": 1,
      "hand": "right"
    },
    {
      "midi": 76,
      "time": 247.5,
      "duration": 0.103,
      "velocity": 1,
      "hand": "right"
    },
    {
      "midi": 77,
      "time": 247.603,
      "duration": 0.103,
      "velocity": 1,
      "hand": "right"
    },
    {
      "midi": 74,
      "time": 247.705,
      "duration": 0.103,
      "velocity": 1,
      "hand": "right"
    },
    {
      "midi": 48,
      "time": 247.808,
      "duration": 0.411,
      "velocity": 1,
      "hand": "left"
    },
    {
      "midi": 60,
      "time": 247.808,
      "duration": 0.411,
      "velocity": 1,
      "hand": "right"
    },
    {
      "midi": 76,
      "time": 247.808,
      "duration": 0.103,
      "velocity": 1,
      "hand": "right"
    },
    {
      "midi": 77,
      "time": 247.911,
      "duration": 0.103,
      "velocity": 1,
      "hand": "right"
    },
    {
      "midi": 79,
      "time": 248.014,
      "duration": 0.103,
      "velocity": 1,
      "hand": "right"
    },
    {
      "midi": 76,
      "time": 248.116,
      "duration": 0.103,
      "velocity": 1,
      "hand": "right"
    },
    {
      "midi": 45,
      "time": 248.219,
      "duration": 0.411,
      "velocity": 1,
      "hand": "left"
    },
    {
      "midi": 57,
      "time": 248.219,
      "duration": 0.411,
      "velocity": 1,
      "hand": "left"
    },
    {
      "midi": 72,
      "time": 248.219,
      "duration": 0.103,
      "velocity": 1,
      "hand": "right"
    },
    {
      "midi": 74,
      "time": 248.322,
      "duration": 0.103,
      "velocity": 1,
      "hand": "right"
    },
    {
      "midi": 76,
      "time": 248.425,
      "duration": 0.103,
      "velocity": 1,
      "hand": "right"
    },
    {
      "midi": 72,
      "time": 248.527,
      "duration": 0.103,
      "velocity": 1,
      "hand": "right"
    },
    {
      "midi": 41,
      "time": 248.63,
      "duration": 0.411,
      "velocity": 1,
      "hand": "left"
    },
    {
      "midi": 53,
      "time": 248.63,
      "duration": 0.411,
      "velocity": 1,
      "hand": "left"
    },
    {
      "midi": 74,
      "time": 248.63,
      "duration": 0.103,
      "velocity": 1,
      "hand": "right"
    },
    {
      "midi": 76,
      "time": 248.733,
      "duration": 0.103,
      "velocity": 1,
      "hand": "right"
    },
    {
      "midi": 77,
      "time": 248.836,
      "duration": 0.103,
      "velocity": 1,
      "hand": "right"
    },
    {
      "midi": 74,
      "time": 248.938,
      "duration": 0.103,
      "velocity": 1,
      "hand": "right"
    },
    {
      "midi": 43,
      "time": 249.041,
      "duration": 0.411,
      "velocity": 1,
      "hand": "left"
    },
    {
      "midi": 55,
      "time": 249.041,
      "duration": 0.411,
      "velocity": 1,
      "hand": "left"
    },
    {
      "midi": 71,
      "time": 249.041,
      "duration": 0.103,
      "velocity": 1,
      "hand": "right"
    },
    {
      "midi": 72,
      "time": 249.144,
      "duration": 0.103,
      "velocity": 1,
      "hand": "right"
    },
    {
      "midi": 74,
      "time": 249.247,
      "duration": 0.103,
      "velocity": 1,
      "hand": "right"
    },
    {
      "midi": 71,
      "time": 249.349,
      "duration": 0.103,
      "velocity": 1,
      "hand": "right"
    },
    {
      "midi": 60,
      "time": 249.452,
      "duration": 0.051,
      "velocity": 1,
      "hand": "right"
    },
    {
      "midi": 64,
      "time": 249.452,
      "duration": 0.051,
      "velocity": 1,
      "hand": "right"
    },
    {
      "midi": 36,
      "time": 249.555,
      "duration": 0.822,
      "velocity": 1,
      "hand": "left"
    },
    {
      "midi": 48,
      "time": 249.555,
      "duration": 0.822,
      "velocity": 1,
      "hand": "left"
    },
    {
      "midi": 67,
      "time": 249.555,
      "duration": 0.051,
      "velocity": 1,
      "hand": "right"
    },
    {
      "midi": 72,
      "time": 249.555,
      "duration": 0.822,
      "velocity": 1,
      "hand": "right"
    },
    {
      "midi": 43,
      "time": 250.377,
      "duration": 0.822,
      "velocity": 1,
      "hand": "left"
    },
    {
      "midi": 67,
      "time": 250.377,
      "duration": 0.822,
      "velocity": 1,
      "hand": "right"
    },
    {
      "midi": 52,
      "time": 251.199,
      "duration": 0.616,
      "velocity": 1,
      "hand": "left"
    },
    {
      "midi": 76,
      "time": 251.199,
      "duration": 0.616,
      "velocity": 1,
      "hand": "right"
    },
    {
      "midi": 53,
      "time": 251.815,
      "duration": 0.103,
      "velocity": 1,
      "hand": "left"
    },
    {
      "midi": 77,
      "time": 251.815,
      "duration": 0.103,
      "velocity": 1,
      "hand": "right"
    },
    {
      "midi": 50,
      "time": 251.918,
      "duration": 0.103,
      "velocity": 1,
      "hand": "left"
    },
    {
      "midi": 74,
      "time": 251.918,
      "duration": 0.103,
      "velocity": 1,
      "hand": "right"
    },
    {
      "midi": 48,
      "time": 252.021,
      "duration": 0.411,
      "velocity": 1,
      "hand": "left"
    },
    {
      "midi": 72,
      "time": 252.021,
      "duration": 0.411,
      "velocity": 1,
      "hand": "right"
    },
    {
      "midi": 43,
      "time": 252.432,
      "duration": 0.411,
      "velocity": 1,
      "hand": "left"
    },
    {
      "midi": 55,
      "time": 252.432,
      "duration": 0.411,
      "velocity": 1,
      "hand": "left"
    },
    {
      "midi": 74,
      "time": 252.432,
      "duration": 0.103,
      "velocity": 1,
      "hand": "right"
    },
    {
      "midi": 77,
      "time": 252.534,
      "duration": 0.103,
      "velocity": 1,
      "hand": "right"
    },
    {
      "midi": 79,
      "time": 252.637,
      "duration": 0.103,
      "velocity": 1,
      "hand": "right"
    },
    {
      "midi": 83,
      "time": 252.74,
      "duration": 0.103,
      "velocity": 1,
      "hand": "right"
    },
    {
      "midi": 48,
      "time": 252.842,
      "duration": 0.411,
      "velocity": 1,
      "hand": "left"
    },
    {
      "midi": 60,
      "time": 252.842,
      "duration": 0.411,
      "velocity": 1,
      "hand": "right"
    },
    {
      "midi": 72,
      "time": 252.842,
      "duration": 0.103,
      "velocity": 1,
      "hand": "right"
    },
    {
      "midi": 76,
      "time": 252.945,
      "duration": 0.103,
      "velocity": 1,
      "hand": "right"
    },
    {
      "midi": 79,
      "time": 253.048,
      "duration": 0.103,
      "velocity": 1,
      "hand": "right"
    },
    {
      "midi": 84,
      "time": 253.151,
      "duration": 0.103,
      "velocity": 1,
      "hand": "right"
    },
    {
      "midi": 43,
      "time": 253.253,
      "duration": 0.411,
      "velocity": 1,
      "hand": "left"
    },
    {
      "midi": 55,
      "time": 253.253,
      "duration": 0.411,
      "velocity": 1,
      "hand": "left"
    },
    {
      "midi": 74,
      "time": 253.253,
      "duration": 0.103,
      "velocity": 1,
      "hand": "right"
    },
    {
      "midi": 77,
      "time": 253.356,
      "duration": 0.103,
      "velocity": 1,
      "hand": "right"
    },
    {
      "midi": 79,
      "time": 253.459,
      "duration": 0.103,
      "velocity": 1,
      "hand": "right"
    },
    {
      "midi": 83,
      "time": 253.562,
      "duration": 0.103,
      "velocity": 1,
      "hand": "right"
    },
    {
      "midi": 48,
      "time": 253.664,
      "duration": 0.411,
      "velocity": 1,
      "hand": "left"
    },
    {
      "midi": 60,
      "time": 253.664,
      "duration": 0.411,
      "velocity": 1,
      "hand": "right"
    },
    {
      "midi": 72,
      "time": 253.664,
      "duration": 0.103,
      "velocity": 1,
      "hand": "right"
    },
    {
      "midi": 76,
      "time": 253.767,
      "duration": 0.103,
      "velocity": 1,
      "hand": "right"
    },
    {
      "midi": 79,
      "time": 253.87,
      "duration": 0.103,
      "velocity": 1,
      "hand": "right"
    },
    {
      "midi": 84,
      "time": 253.973,
      "duration": 0.103,
      "velocity": 1,
      "hand": "right"
    },
    {
      "midi": 43,
      "time": 254.075,
      "duration": 0.411,
      "velocity": 1,
      "hand": "left"
    },
    {
      "midi": 55,
      "time": 254.075,
      "duration": 0.411,
      "velocity": 1,
      "hand": "left"
    },
    {
      "midi": 74,
      "time": 254.075,
      "duration": 0.103,
      "velocity": 1,
      "hand": "right"
    },
    {
      "midi": 77,
      "time": 254.178,
      "duration": 0.103,
      "velocity": 1,
      "hand": "right"
    },
    {
      "midi": 79,
      "time": 254.281,
      "duration": 0.103,
      "velocity": 1,
      "hand": "right"
    },
    {
      "midi": 83,
      "time": 254.384,
      "duration": 0.103,
      "velocity": 1,
      "hand": "right"
    },
    {
      "midi": 48,
      "time": 254.486,
      "duration": 0.411,
      "velocity": 1,
      "hand": "left"
    },
    {
      "midi": 60,
      "time": 254.486,
      "duration": 0.411,
      "velocity": 1,
      "hand": "right"
    },
    {
      "midi": 76,
      "time": 254.486,
      "duration": 0.411,
      "velocity": 1,
      "hand": "right"
    },
    {
      "midi": 84,
      "time": 254.486,
      "duration": 0.411,
      "velocity": 1,
      "hand": "right"
    },
    {
      "midi": 36,
      "time": 254.897,
      "duration": 0.411,
      "velocity": 1,
      "hand": "left"
    },
    {
      "midi": 48,
      "time": 254.897,
      "duration": 0.411,
      "velocity": 1,
      "hand": "left"
    },
    {
      "midi": 64,
      "time": 254.897,
      "duration": 0.411,
      "velocity": 1,
      "hand": "right"
    },
    {
      "midi": 67,
      "time": 254.897,
      "duration": 0.411,
      "velocity": 1,
      "hand": "right"
    },
    {
      "midi": 72,
      "time": 254.897,
      "duration": 0.411,
      "velocity": 1,
      "hand": "right"
    },
    {
      "midi": 36,
      "time": 255.308,
      "duration": 0.411,
      "velocity": 1,
      "hand": "left"
    },
    {
      "midi": 48,
      "time": 255.308,
      "duration": 0.411,
      "velocity": 1,
      "hand": "left"
    },
    {
      "midi": 64,
      "time": 255.308,
      "duration": 0.411,
      "velocity": 1,
      "hand": "right"
    },
    {
      "midi": 67,
      "time": 255.308,
      "duration": 0.411,
      "velocity": 1,
      "hand": "right"
    },
    {
      "midi": 72,
      "time": 255.308,
      "duration": 0.411,
      "velocity": 1,
      "hand": "right"
    }
  ]
}
