{
  "id": "pintinho-amarelinho",
  "title": "Meu Pintinho Amarelinho",
  "artist": "Folclore Brasileiro",
  "difficulty": "Fácil",
  "bpm": 120,
  "duration": 20,
  "category": "Infantis",
  "isPremium": false,
  "coverUrl": "/images/covers/pintinho.png",
  "notes": [
    { "midi": 65, "time": 0.0, "duration": 0.25, "hand": "right", "velocity": 0.8 },
    { "midi": 65, "time": 0.25, "duration": 0.25, "hand": "right", "velocity": 0.8 },
    { "midi": 65, "time": 0.5, "duration": 0.25, "hand": "right", "velocity": 0.8 },
    { "midi": 69, "time": 0.75, "duration": 0.25, "hand": "right", "velocity": 0.8 },
    { "midi": 70, "time": 1.0, "duration": 0.25, "hand": "right", "velocity": 0.8 },
    { "midi": 72, "time": 1.25, "duration": 0.25, "hand": "right", "velocity": 0.8 },
    { "midi": 72, "time": 1.5, "duration": 0.25, "hand": "right", "velocity": 0.8 },
    { "midi": 72, "time": 1.75, "duration": 0.5, "hand": "right", "velocity": 0.8 },

    { "midi": 72, "time": 2.25, "duration": 0.25, "hand": "right", "velocity": 0.8 },
    { "midi": 74, "time": 2.5, "duration": 0.25, "hand": "right", "velocity": 0.8 },
    { "midi": 72, "time": 2.75, "duration": 0.25, "hand": "right", "velocity": 0.8 },
    { "midi": 70, "time": 3.0, "duration": 0.25, "hand": "right", "velocity": 0.8 },
    { "midi": 70, "time": 3.25, "duration": 0.5, "hand": "right", "velocity": 0.8 },
    { "midi": 69, "time": 3.75, "duration": 0.25, "hand": "right", "velocity": 0.8 },
    { "midi": 70, "time": 4.0, "duration": 0.25, "hand": "right", "velocity": 0.8 },
    { "midi": 69, "time": 4.25, "duration": 0.25, "hand": "right", "velocity": 0.8 },
    { "midi": 67, "time": 4.5, "duration": 0.25, "hand": "right", "velocity": 0.8 },
    { "midi": 65, "time": 4.75, "duration": 0.5, "hand": "right", "velocity": 0.8 },
    { "midi": 65, "time": 5.25, "duration": 0.5, "hand": "right", "velocity": 0.8 },

    { "midi": 65, "time": 5.75, "duration": 0.25, "hand": "right", "velocity": 0.8 },
    { "midi": 65, "time": 6.0, "duration": 0.25, "hand": "right", "velocity": 0.8 },
    { "midi": 65, "time": 6.25, "duration": 0.25, "hand": "right", "velocity": 0.8 },
    { "midi": 69, "time": 6.5, "duration": 0.25, "hand": "right", "velocity": 0.8 },
    { "midi": 70, "time": 6.75, "duration": 0.25, "hand": "right", "velocity": 0.8 },
    { "midi": 72, "time": 7.0, "duration": 0.25, "hand": "right", "velocity": 0.8 },
    { "midi": 72, "time": 7.25, "duration": 0.25, "hand": "right", "velocity": 0.8 },
    { "midi": 72, "time": 7.5, "duration": 0.5, "hand": "right", "velocity": 0.8 },

    { "midi": 72, "time": 8.0, "duration": 0.25, "hand": "right", "velocity": 0.8 },
    { "midi": 74, "time": 8.25, "duration": 0.25, "hand": "right", "velocity": 0.8 },
    { "midi": 72, "time": 8.5, "duration": 0.25, "hand": "right", "velocity": 0.8 },
    { "midi": 70, "time": 8.75, "duration": 0.25, "hand": "right", "velocity": 0.8 },
    { "midi": 70, "time": 9.0, "duration": 0.5, "hand": "right", "velocity": 0.8 },
    { "midi": 69, "time": 9.5, "duration": 0.25, "hand": "right", "velocity": 0.8 },
    { "midi": 70, "time": 9.75, "duration": 0.25, "hand": "right", "velocity": 0.8 },
    { "midi": 69, "time": 10.0, "duration": 0.25, "hand": "right", "velocity": 0.8 },
    { "midi": 67, "time": 10.25, "duration": 0.25, "hand": "right", "velocity": 0.8 },
    { "midi": 65, "time": 10.5, "duration": 1.0, "hand": "right", "velocity": 0.8 },

    { "midi": 65, "time": 11.5, "duration": 0.25, "hand": "right", "velocity": 0.8 },
    { "midi": 67, "time": 11.75, "duration": 0.25, "hand": "right", "velocity": 0.8 },
    { "midi": 69, "time": 12.0, "duration": 0.25, "hand": "right", "velocity": 0.8 },
    { "midi": 70, "time": 12.25, "duration": 0.5, "hand": "right", "velocity": 0.8 },
    { "midi": 70, "time": 12.75, "duration": 0.5, "hand": "right", "velocity": 0.8 },

    { "midi": 65, "time": 13.25, "duration": 0.25, "hand": "right", "velocity": 0.8 },
    { "midi": 67, "time": 13.5, "duration": 0.25, "hand": "right", "velocity": 0.8 },
    { "midi": 69, "time": 13.75, "duration": 0.25, "hand": "right", "velocity": 0.8 },
    { "midi": 70, "time": 14.0, "duration": 0.5, "hand": "right", "velocity": 0.8 },
    { "midi": 70, "time": 14.5, "duration": 0.5, "hand": "right", "velocity": 0.8 },

    { "midi": 72, "time": 15.0, "duration": 0.25, "hand": "right", "velocity": 0.8 },
    { "midi": 72, "time": 15.25, "duration": 0.25, "hand": "right", "velocity": 0.8 },
    { "midi": 72, "time": 15.5, "duration": 0.25, "hand": "right", "velocity": 0.8 },
    { "midi": 72, "time": 15.75, "duration": 0.25, "hand": "right", "velocity": 0.8 },
    { "midi": 72, "time": 16.0, "duration": 0.25, "hand": "right", "velocity": 0.8 },
    { "midi": 69, "time": 16.25, "duration": 0.25, "hand": "right", "velocity": 0.8 },
    { "midi": 70, "time": 16.5, "duration": 0.25, "hand": "right", "velocity": 0.8 },
    { "midi": 69, "time": 16.75, "duration": 0.25, "hand": "right", "velocity": 0.8 },
    { "midi": 67, "time": 17.0, "duration": 0.25, "hand": "right", "velocity": 0.8 },
    { "midi": 65, "time": 17.25, "duration": 1.0, "hand": "right", "velocity": 0.8 },

    { "midi": 53, "time": 0.0, "duration": 1.0, "hand": "left", "velocity": 0.6 },
    { "midi": 57, "time": 0.0, "duration": 1.0, "hand": "left", "velocity": 0.5 },
    { "midi": 60, "time": 0.0, "duration": 1.0, "hand": "left", "velocity": 0.5 },

    { "midi": 48, "time": 2.0, "duration": 1.0, "hand": "left", "velocity": 0.6 },
    { "midi": 52, "time": 2.0, "duration": 1.0, "hand": "left", "velocity": 0.5 },
    { "midi": 55, "time": 2.0, "duration": 1.0, "hand": "left", "velocity": 0.5 },

    { "midi": 48, "time": 4.0, "duration": 1.0, "hand": "left", "velocity": 0.6 },
    { "midi": 52, "time": 4.0, "duration": 1.0, "hand": "left", "velocity": 0.5 },
    { "midi": 55, "time": 4.0, "duration": 1.0, "hand": "left", "velocity": 0.5 },

    { "midi": 53, "time": 6.0, "duration": 1.0, "hand": "left", "velocity": 0.6 },
    { "midi": 57, "time": 6.0, "duration": 1.0, "hand": "left", "velocity": 0.5 },
    { "midi": 60, "time": 6.0, "duration": 1.0, "hand": "left", "velocity": 0.5 },

    { "midi": 48, "time": 8.0, "duration": 1.0, "hand": "left", "velocity": 0.6 },
    { "midi": 52, "time": 8.0, "duration": 1.0, "hand": "left", "velocity": 0.5 },
    { "midi": 55, "time": 8.0, "duration": 1.0, "hand": "left", "velocity": 0.5 },

    { "midi": 48, "time": 10.0, "duration": 1.0, "hand": "left", "velocity": 0.6 },
    { "midi": 52, "time": 10.0, "duration": 1.0, "hand": "left", "velocity": 0.5 },
    { "midi": 55, "time": 10.0, "duration": 1.0, "hand": "left", "velocity": 0.5 },

    { "midi": 53, "time": 12.0, "duration": 1.0, "hand": "left", "velocity": 0.6 },
    { "midi": 57, "time": 12.0, "duration": 1.0, "hand": "left", "velocity": 0.5 },
    { "midi": 60, "time": 12.0, "duration": 1.0, "hand": "left", "velocity": 0.5 },

    { "midi": 48, "time": 14.0, "duration": 1.0, "hand": "left", "velocity": 0.6 },
    { "midi": 52, "time": 14.0, "duration": 1.0, "hand": "left", "velocity": 0.5 },
    { "midi": 55, "time": 14.0, "duration": 1.0, "hand": "left", "velocity": 0.5 },

    { "midi": 53, "time": 16.0, "duration": 1.0, "hand": "left", "velocity": 0.6 },
    { "midi": 57, "time": 16.0, "duration": 1.0, "hand": "left", "velocity": 0.5 },
    { "midi": 60, "time": 16.0, "duration": 1.0, "hand": "left", "velocity": 0.5 },

    { "midi": 53, "time": 17.0, "duration": 1.0, "hand": "left", "velocity": 0.6 },
    { "midi": 57, "time": 17.0, "duration": 1.0, "hand": "left", "velocity": 0.5 },
    { "midi": 60, "time": 17.0, "duration": 1.0, "hand": "left", "velocity": 0.5 }
  ]
}
