{
  "id": "pirulito-que-bate-bate",
  "title": "Pirulito que Bate Bate",
  "artist": "Tradicional",
  "difficulty": "Fácil",
  "bpm": 100,
  "duration": 19,
  "category": "Infantis",
  "isPremium": false,
  "coverUrl": "/images/covers/placeholder.png",
  "notes": [
    {
      "midi": 64,
      "time": 0.3,
      "duration": 0.15,
      "velocity": 1,
      "hand": "right"
    },
    {
      "midi": 65,
      "time": 0.45,
      "duration": 0.15,
      "velocity": 1,
      "hand": "right"
    },
    {
      "midi": 48,
      "time": 0.6,
      "duration": 1.05,
      "velocity": 1,
      "hand": "left"
    },
    {
      "midi": 55,
      "time": 0.6,
      "duration": 0.45,
      "velocity": 0.91,
      "hand": "left"
    },
    {
      "midi": 67,
      "time": 0.6,
      "duration": 0.3,
      "velocity": 1,
      "hand": "right"
    },
    {
      "midi": 67,
      "time": 0.9,
      "duration": 0.15,
      "velocity": 1,
      "hand": "right"
    },
    {
      "midi": 67,
      "time": 1.05,
      "duration": 0.15,
      "velocity": 1,
      "hand": "right"
    },
    {
      "midi": 57,
      "time": 1.2,
      "duration": 0.3,
      "velocity": 0.91,
      "hand": "left"
    },
    {
      "midi": 60,
      "time": 1.2,
      "duration": 0.45,
      "velocity": 1,
      "hand": "right"
    },
    {
      "midi": 65,
      "time": 1.2,
      "duration": 0.3,
      "velocity": 1,
      "hand": "right"
    },
    {
      "midi": 67,
      "time": 1.2,
      "duration": 0.45,
      "velocity": 1,
      "hand": "right"
    },
    {
      "midi": 55,
      "time": 1.5,
      "duration": 0.3,
      "velocity": 0.91,
      "hand": "left"
    },
    {
      "midi": 64,
      "time": 1.5,
      "duration": 0.3,
      "velocity": 1,
      "hand": "right"
    },
    {
      "midi": 48,
      "time": 1.8,
      "duration": 1.05,
      "velocity": 1,
      "hand": "left"
    },
    {
      "midi": 53,
      "time": 1.8,
      "duration": 0.45,
      "velocity": 0.91,
      "hand": "left"
    },
    {
      "midi": 69,
      "time": 1.8,
      "duration": 0.3,
      "velocity": 1,
      "hand": "right"
    },
    {
      "midi": 69,
      "time": 2.1,
      "duration": 0.3,
      "velocity": 1,
      "hand": "right"
    },
    {
      "midi": 55,
      "time": 2.4,
      "duration": 0.3,
      "velocity": 0.91,
      "hand": "left"
    },
    {
      "midi": 62,
      "time": 2.4,
      "duration": 0.45,
      "velocity": 1,
      "hand": "right"
    },
    {
      "midi": 65,
      "time": 2.4,
      "duration": 0.45,
      "velocity": 1,
      "hand": "right"
    },
    {
      "midi": 57,
      "time": 2.7,
      "duration": 0.3,
      "velocity": 0.91,
      "hand": "left"
    },
    {
      "midi": 62,
      "time": 2.7,
      "duration": 0.15,
      "velocity": 1,
      "hand": "right"
    },
    {
      "midi": 64,
      "time": 2.85,
      "duration": 0.15,
      "velocity": 1,
      "hand": "right"
    },
    {
      "midi": 43,
      "time": 3,
      "duration": 1.05,
      "velocity": 1,
      "hand": "left"
    },
    {
      "midi": 59,
      "time": 3,
      "duration": 0.45,
      "velocity": 0.91,
      "hand": "left"
    },
    {
      "midi": 65,
      "time": 3,
      "duration": 0.3,
      "velocity": 1,
      "hand": "right"
    },
    {
      "midi": 65,
      "time": 3.3,
      "duration": 0.15,
      "velocity": 1,
      "hand": "right"
    },
    {
      "midi": 65,
      "time": 3.45,
      "duration": 0.15,
      "velocity": 1,
      "hand": "right"
    },
    {
      "midi": 55,
      "time": 3.6,
      "duration": 0.3,
      "velocity": 0.91,
      "hand": "left"
    },
    {
      "midi": 59,
      "time": 3.6,
      "duration": 0.45,
      "velocity": 1,
      "hand": "left"
    },
    {
      "midi": 64,
      "time": 3.6,
      "duration": 0.3,
      "velocity": 1,
      "hand": "right"
    },
    {
      "midi": 65,
      "time": 3.6,
      "duration": 0.45,
      "velocity": 1,
      "hand": "right"
    },
    {
      "midi": 53,
      "time": 3.9,
      "duration": 0.3,
      "velocity": 0.91,
      "hand": "left"
    },
    {
      "midi": 62,
      "time": 3.9,
      "duration": 0.3,
      "velocity": 1,
      "hand": "right"
    },
    {
      "midi": 48,
      "time": 4.2,
      "duration": 1.05,
      "velocity": 1,
      "hand": "left"
    },
    {
      "midi": 52,
      "time": 4.2,
      "duration": 0.45,
      "velocity": 0.91,
      "hand": "left"
    },
    {
      "midi": 67,
      "time": 4.2,
      "duration": 0.75,
      "velocity": 1,
      "hand": "right"
    },
    {
      "midi": 60,
      "time": 4.8,
      "duration": 0.3,
      "velocity": 0.91,
      "hand": "right"
    },
    {
      "midi": 60,
      "time": 4.8,
      "duration": 0.45,
      "velocity": 1,
      "hand": "right"
    },
    {
      "midi": 64,
      "time": 4.8,
      "duration": 0.45,
      "velocity": 1,
      "hand": "right"
    },
    {
      "midi": 57,
      "time": 5.1,
      "duration": 0.3,
      "velocity": 0.91,
      "hand": "left"
    },
    {
      "midi": 64,
      "time": 5.1,
      "duration": 0.15,
      "velocity": 1,
      "hand": "right"
    },
    {
      "midi": 65,
      "time": 5.25,
      "duration": 0.15,
      "velocity": 1,
      "hand": "right"
    },
    {
      "midi": 48,
      "time": 5.4,
      "duration": 1.05,
      "velocity": 1,
      "hand": "left"
    },
    {
      "midi": 55,
      "time": 5.4,
      "duration": 0.45,
      "velocity": 0.91,
      "hand": "left"
    },
    {
      "midi": 67,
      "time": 5.4,
      "duration": 0.3,
      "velocity": 1,
      "hand": "right"
    },
    {
      "midi": 67,
      "time": 5.7,
      "duration": 0.3,
      "velocity": 1,
      "hand": "right"
    },
    {
      "midi": 57,
      "time": 6,
      "duration": 0.3,
      "velocity": 0.91,
      "hand": "left"
    },
    {
      "midi": 60,
      "time": 6,
      "duration": 0.45,
      "velocity": 1,
      "hand": "right"
    },
    {
      "midi": 65,
      "time": 6,
      "duration": 0.3,
      "velocity": 1,
      "hand": "right"
    },
    {
      "midi": 67,
      "time": 6,
      "duration": 0.45,
      "velocity": 1,
      "hand": "right"
    },
    {
      "midi": 55,
      "time": 6.3,
      "duration": 0.3,
      "velocity": 0.91,
      "hand": "left"
    },
    {
      "midi": 64,
      "time": 6.3,
      "duration": 0.3,
      "velocity": 1,
      "hand": "right"
    },
    {
      "midi": 48,
      "time": 6.6,
      "duration": 1.05,
      "velocity": 1,
      "hand": "left"
    },
    {
      "midi": 53,
      "time": 6.6,
      "duration": 0.45,
      "velocity": 0.91,
      "hand": "left"
    },
    {
      "midi": 69,
      "time": 6.6,
      "duration": 0.3,
      "velocity": 1,
      "hand": "right"
    },
    {
      "midi": 72,
      "time": 6.9,
      "duration": 0.3,
      "velocity": 1,
      "hand": "right"
    },
    {
      "midi": 55,
      "time": 7.2,
      "duration": 0.3,
      "velocity": 0.91,
      "hand": "left"
    },
    {
      "midi": 62,
      "time": 7.2,
      "duration": 0.45,
      "velocity": 1,
      "hand": "right"
    },
    {
      "midi": 65,
      "time": 7.2,
      "duration": 0.45,
      "velocity": 1,
      "hand": "right"
    },
    {
      "midi": 71,
      "time": 7.2,
      "duration": 0.3,
      "velocity": 1,
      "hand": "right"
    },
    {
      "midi": 57,
      "time": 7.5,
      "duration": 0.3,
      "velocity": 0.91,
      "hand": "left"
    },
    {
      "midi": 69,
      "time": 7.5,
      "duration": 0.3,
      "velocity": 1,
      "hand": "right"
    },
    {
      "midi": 43,
      "time": 7.8,
      "duration": 1.05,
      "velocity": 1,
      "hand": "left"
    },
    {
      "midi": 59,
      "time": 7.8,
      "duration": 0.3,
      "velocity": 0.91,
      "hand": "left"
    },
    {
      "midi": 67,
      "time": 7.8,
      "duration": 0.3,
      "velocity": 1,
      "hand": "right"
    },
    {
      "midi": 55,
      "time": 8.1,
      "duration": 0.3,
      "velocity": 0.91,
      "hand": "left"
    },
    {
      "midi": 65,
      "time": 8.1,
      "duration": 0.3,
      "velocity": 1,
      "hand": "right"
    },
    {
      "midi": 54,
      "time": 8.4,
      "duration": 0.3,
      "velocity": 0.91,
      "hand": "left"
    },
    {
      "midi": 55,
      "time": 8.4,
      "duration": 0.45,
      "velocity": 1,
      "hand": "left"
    },
    {
      "midi": 59,
      "time": 8.4,
      "duration": 0.45,
      "velocity": 1,
      "hand": "left"
    },
    {
      "midi": 64,
      "time": 8.4,
      "duration": 0.3,
      "velocity": 1,
      "hand": "right"
    },
    {
      "midi": 53,
      "time": 8.7,
      "duration": 0.3,
      "velocity": 0.91,
      "hand": "left"
    },
    {
      "midi": 62,
      "time": 8.7,
      "duration": 0.3,
      "velocity": 1,
      "hand": "right"
    },
    {
      "midi": 48,
      "time": 9,
      "duration": 0.45,
      "velocity": 1,
      "hand": "left"
    },
    {
      "midi": 52,
      "time": 9,
      "duration": 0.45,
      "velocity": 0.91,
      "hand": "left"
    },
    {
      "midi": 55,
      "time": 9,
      "duration": 0.45,
      "velocity": 1,
      "hand": "left"
    },
    {
      "midi": 60,
      "time": 9,
      "duration": 0.45,
      "velocity": 1,
      "hand": "right"
    },
    {
      "midi": 64,
      "time": 9.9,
      "duration": 0.15,
      "velocity": 1,
      "hand": "right"
    },
    {
      "midi": 65,
      "time": 10.05,
      "duration": 0.15,
      "velocity": 1,
      "hand": "right"
    },
    {
      "midi": 48,
      "time": 10.2,
      "duration": 1.05,
      "velocity": 1,
      "hand": "left"
    },
    {
      "midi": 55,
      "time": 10.2,
      "duration": 0.45,
      "velocity": 0.91,
      "hand": "left"
    },
    {
      "midi": 67,
      "time": 10.2,
      "duration": 0.3,
      "velocity": 1,
      "hand": "right"
    },
    {
      "midi": 67,
      "time": 10.5,
      "duration": 0.15,
      "velocity": 1,
      "hand": "right"
    },
    {
      "midi": 67,
      "time": 10.65,
      "duration": 0.15,
      "velocity": 1,
      "hand": "right"
    },
    {
      "midi": 57,
      "time": 10.8,
      "duration": 0.3,
      "velocity": 0.91,
      "hand": "left"
    },
    {
      "midi": 60,
      "time": 10.8,
      "duration": 0.45,
      "velocity": 1,
      "hand": "right"
    },
    {
      "midi": 65,
      "time": 10.8,
      "duration": 0.3,
      "velocity": 1,
      "hand": "right"
    },
    {
      "midi": 67,
      "time": 10.8,
      "duration": 0.45,
      "velocity": 1,
      "hand": "right"
    },
    {
      "midi": 55,
      "time": 11.1,
      "duration": 0.3,
      "velocity": 0.91,
      "hand": "left"
    },
    {
      "midi": 64,
      "time": 11.1,
      "duration": 0.3,
      "velocity": 1,
      "hand": "right"
    },
    {
      "midi": 48,
      "time": 11.4,
      "duration": 1.05,
      "velocity": 1,
      "hand": "left"
    },
    {
      "midi": 53,
      "time": 11.4,
      "duration": 0.45,
      "velocity": 0.91,
      "hand": "left"
    },
    {
      "midi": 69,
      "time": 11.4,
      "duration": 0.3,
      "velocity": 1,
      "hand": "right"
    },
    {
      "midi": 69,
      "time": 11.7,
      "duration": 0.3,
      "velocity": 1,
      "hand": "right"
    },
    {
      "midi": 55,
      "time": 12,
      "duration": 0.3,
      "velocity": 0.91,
      "hand": "left"
    },
    {
      "midi": 62,
      "time": 12,
      "duration": 0.45,
      "velocity": 1,
      "hand": "right"
    },
    {
      "midi": 65,
      "time": 12,
      "duration": 0.45,
      "velocity": 1,
      "hand": "right"
    },
    {
      "midi": 57,
      "time": 12.3,
      "duration": 0.3,
      "velocity": 0.91,
      "hand": "left"
    },
    {
      "midi": 62,
      "time": 12.3,
      "duration": 0.15,
      "velocity": 1,
      "hand": "right"
    },
    {
      "midi": 64,
      "time": 12.45,
      "duration": 0.15,
      "velocity": 1,
      "hand": "right"
    },
    {
      "midi": 43,
      "time": 12.6,
      "duration": 1.05,
      "velocity": 1,
      "hand": "left"
    },
    {
      "midi": 59,
      "time": 12.6,
      "duration": 0.45,
      "velocity": 0.91,
      "hand": "left"
    },
    {
      "midi": 65,
      "time": 12.6,
      "duration": 0.3,
      "velocity": 1,
      "hand": "right"
    },
    {
      "midi": 65,
      "time": 12.9,
      "duration": 0.15,
      "velocity": 1,
      "hand": "right"
    },
    {
      "midi": 65,
      "time": 13.05,
      "duration": 0.15,
      "velocity": 1,
      "hand": "right"
    },
    {
      "midi": 55,
      "time": 13.2,
      "duration": 0.3,
      "velocity": 0.91,
      "hand": "left"
    },
    {
      "midi": 59,
      "time": 13.2,
      "duration": 0.45,
      "velocity": 1,
      "hand": "left"
    },
    {
      "midi": 64,
      "time": 13.2,
      "duration": 0.3,
      "velocity": 1,
      "hand": "right"
    },
    {
      "midi": 65,
      "time": 13.2,
      "duration": 0.45,
      "velocity": 1,
      "hand": "right"
    },
    {
      "midi": 53,
      "time": 13.5,
      "duration": 0.3,
      "velocity": 0.91,
      "hand": "left"
    },
    {
      "midi": 62,
      "time": 13.5,
      "duration": 0.3,
      "velocity": 1,
      "hand": "right"
    },
    {
      "midi": 48,
      "time": 13.8,
      "duration": 1.05,
      "velocity": 1,
      "hand": "left"
    },
    {
      "midi": 52,
      "time": 13.8,
      "duration": 0.45,
      "velocity": 0.91,
      "hand": "left"
    },
    {
      "midi": 67,
      "time": 13.8,
      "duration": 0.75,
      "velocity": 1,
      "hand": "right"
    },
    {
      "midi": 60,
      "time": 14.4,
      "duration": 0.3,
      "velocity": 0.91,
      "hand": "right"
    },
    {
      "midi": 60,
      "time": 14.4,
      "duration": 0.45,
      "velocity": 1,
      "hand": "right"
    },
    {
      "midi": 64,
      "time": 14.4,
      "duration": 0.45,
      "velocity": 1,
      "hand": "right"
    },
    {
      "midi": 57,
      "time": 14.7,
      "duration": 0.3,
      "velocity": 0.91,
      "hand": "left"
    },
    {
      "midi": 64,
      "time": 14.7,
      "duration": 0.15,
      "velocity": 1,
      "hand": "right"
    },
    {
      "midi": 65,
      "time": 14.85,
      "duration": 0.15,
      "velocity": 1,
      "hand": "right"
    },
    {
      "midi": 48,
      "time": 15,
      "duration": 1.05,
      "velocity": 1,
      "hand": "left"
    },
    {
      "midi": 55,
      "time": 15,
      "duration": 0.45,
      "velocity": 0.91,
      "hand": "left"
    },
    {
      "midi": 67,
      "time": 15,
      "duration": 0.3,
      "velocity": 1,
      "hand": "right"
    },
    {
      "midi": 67,
      "time": 15.3,
      "duration": 0.3,
      "velocity": 1,
      "hand": "right"
    },
    {
      "midi": 57,
      "time": 15.6,
      "duration": 0.3,
      "velocity": 0.91,
      "hand": "left"
    },
    {
      "midi": 60,
      "time": 15.6,
      "duration": 0.45,
      "velocity": 1,
      "hand": "right"
    },
    {
      "midi": 65,
      "time": 15.6,
      "duration": 0.3,
      "velocity": 1,
      "hand": "right"
    },
    {
      "midi": 67,
      "time": 15.6,
      "duration": 0.45,
      "velocity": 1,
      "hand": "right"
    },
    {
      "midi": 55,
      "time": 15.9,
      "duration": 0.3,
      "velocity": 0.91,
      "hand": "left"
    },
    {
      "midi": 64,
      "time": 15.9,
      "duration": 0.3,
      "velocity": 1,
      "hand": "right"
    },
    {
      "midi": 48,
      "time": 16.2,
      "duration": 1.05,
      "velocity": 1,
      "hand": "left"
    },
    {
      "midi": 53,
      "time": 16.2,
      "duration": 0.45,
      "velocity": 0.91,
      "hand": "left"
    },
    {
      "midi": 69,
      "time": 16.2,
      "duration": 0.3,
      "velocity": 1,
      "hand": "right"
    },
    {
      "midi": 72,
      "time": 16.5,
      "duration": 0.3,
      "velocity": 1,
      "hand": "right"
    },
    {
      "midi": 55,
      "time": 16.8,
      "duration": 0.3,
      "velocity": 0.91,
      "hand": "left"
    },
    {
      "midi": 62,
      "time": 16.8,
      "duration": 0.45,
      "velocity": 1,
      "hand": "right"
    },
    {
      "midi": 65,
      "time": 16.8,
      "duration": 0.45,
      "velocity": 1,
      "hand": "right"
    },
    {
      "midi": 71,
      "time": 16.8,
      "duration": 0.3,
      "velocity": 1,
      "hand": "right"
    },
    {
      "midi": 57,
      "time": 17.1,
      "duration": 0.3,
      "velocity": 0.91,
      "hand": "left"
    },
    {
      "midi": 69,
      "time": 17.1,
      "duration": 0.3,
      "velocity": 1,
      "hand": "right"
    },
    {
      "midi": 43,
      "time": 17.4,
      "duration": 1.05,
      "velocity": 1,
      "hand": "left"
    },
    {
      "midi": 59,
      "time": 17.4,
      "duration": 0.3,
      "velocity": 0.91,
      "hand": "left"
    },
    {
      "midi": 67,
      "time": 17.4,
      "duration": 0.3,
      "velocity": 1,
      "hand": "right"
    },
    {
      "midi": 55,
      "time": 17.7,
      "duration": 0.3,
      "velocity": 0.91,
      "hand": "left"
    },
    {
      "midi": 65,
      "time": 17.7,
      "duration": 0.3,
      "velocity": 1,
      "hand": "right"
    },
    {
      "midi": 54,
      "time": 18,
      "duration": 0.3,
      "velocity": 0.91,
      "hand": "left"
    },
    {
      "midi": 55,
      "time": 18,
      "duration": 0.45,
      "velocity": 1,
      "hand": "left"
    },
    {
      "midi": 59,
      "time": 18,
      "duration": 0.45,
      "velocity": 1,
      "hand": "left"
    },
    {
      "midi": 64,
      "time": 18,
      "duration": 0.3,
      "velocity": 1,
      "hand": "right"
    },
    {
      "midi": 53,
      "time": 18.3,
      "duration": 0.3,
      "velocity": 0.91,
      "hand": "left"
    },
    {
      "midi": 62,
      "time": 18.3,
      "duration": 0.3,
      "velocity": 1,
      "hand": "right"
    },
    {
      "midi": 48,
      "time": 18.6,
      "duration": 0.45,
      "velocity": 1,
      "hand": "left"
    },
    {
      "midi": 52,
      "time": 18.6,
      "duration": 0.45,
      "velocity": 0.91,
      "hand": "left"
    },
    {
      "midi": 55,
      "time": 18.6,
      "duration": 0.45,
      "velocity": 1,
      "hand": "left"
    },
    {
      "midi": 60,
      "time": 18.6,
      "duration": 0.45,
      "velocity": 1,
      "hand": "right"
    }
  ],
  "arrangements": {
    "easy": [
      {
        "midi": 64,
        "time": 0.3,
        "duration": 0.2,
        "velocity": 1,
        "hand": "right"
      },
      {
        "midi": 65,
        "time": 0.45,
        "duration": 0.2,
        "velocity": 1,
        "hand": "right"
      },
      {
        "midi": 67,
        "time": 0.6,
        "duration": 0.3,
        "velocity": 1,
        "hand": "right"
      },
      {
        "midi": 67,
        "time": 0.9,
        "duration": 0.2,
        "velocity": 1,
        "hand": "right"
      },
      {
        "midi": 67,
        "time": 1.05,
        "duration": 0.2,
        "velocity": 1,
        "hand": "right"
      },
      {
        "midi": 64,
        "time": 1.5,
        "duration": 0.3,
        "velocity": 1,
        "hand": "right"
      },
      {
        "midi": 69,
        "time": 1.8,
        "duration": 0.3,
        "velocity": 1,
        "hand": "right"
      },
      {
        "midi": 69,
        "time": 2.1,
        "duration": 0.3,
        "velocity": 1,
        "hand": "right"
      },
      {
        "midi": 65,
        "time": 2.4,
        "duration": 0.45,
        "velocity": 1,
        "hand": "right"
      },
      {
        "midi": 62,
        "time": 2.7,
        "duration": 0.2,
        "velocity": 1,
        "hand": "right"
      },
      {
        "midi": 64,
        "time": 2.85,
        "duration": 0.2,
        "velocity": 1,
        "hand": "right"
      },
      {
        "midi": 65,
        "time": 3,
        "duration": 0.3,
        "velocity": 1,
        "hand": "right"
      },
      {
        "midi": 65,
        "time": 3.3,
        "duration": 0.2,
        "velocity": 1,
        "hand": "right"
      },
      {
        "midi": 65,
        "time": 3.45,
        "duration": 0.2,
        "velocity": 1,
        "hand": "right"
      },
      {
        "midi": 62,
        "time": 3.9,
        "duration": 0.3,
        "velocity": 1,
        "hand": "right"
      },
      {
        "midi": 67,
        "time": 4.2,
        "duration": 0.75,
        "velocity": 1,
        "hand": "right"
      },
      {
        "midi": 64,
        "time": 4.8,
        "duration": 0.45,
        "velocity": 1,
        "hand": "right"
      },
      {
        "midi": 64,
        "time": 5.1,
        "duration": 0.2,
        "velocity": 1,
        "hand": "right"
      },
      {
        "midi": 65,
        "time": 5.25,
        "duration": 0.2,
        "velocity": 1,
        "hand": "right"
      },
      {
        "midi": 67,
        "time": 5.4,
        "duration": 0.3,
        "velocity": 1,
        "hand": "right"
      },
      {
        "midi": 67,
        "time": 5.7,
        "duration": 0.3,
        "velocity": 1,
        "hand": "right"
      },
      {
        "midi": 67,
        "time": 6,
        "duration": 0.45,
        "velocity": 1,
        "hand": "right"
      },
      {
        "midi": 64,
        "time": 6.3,
        "duration": 0.3,
        "velocity": 1,
        "hand": "right"
      },
      {
        "midi": 69,
        "time": 6.6,
        "duration": 0.3,
        "velocity": 1,
        "hand": "right"
      },
      {
        "midi": 72,
        "time": 6.9,
        "duration": 0.3,
        "velocity": 1,
        "hand": "right"
      },
      {
        "midi": 71,
        "time": 7.2,
        "duration": 0.3,
        "velocity": 1,
        "hand": "right"
      },
      {
        "midi": 69,
        "time": 7.5,
        "duration": 0.3,
        "velocity": 1,
        "hand": "right"
      },
      {
        "midi": 67,
        "time": 7.8,
        "duration": 0.3,
        "velocity": 1,
        "hand": "right"
      },
      {
        "midi": 65,
        "time": 8.1,
        "duration": 0.3,
        "velocity": 1,
        "hand": "right"
      },
      {
        "midi": 64,
        "time": 8.4,
        "duration": 0.3,
        "velocity": 1,
        "hand": "right"
      },
      {
        "midi": 62,
        "time": 8.7,
        "duration": 0.3,
        "velocity": 1,
        "hand": "right"
      },
      {
        "midi": 60,
        "time": 9,
        "duration": 0.45,
        "velocity": 1,
        "hand": "right"
      },
      {
        "midi": 64,
        "time": 9.9,
        "duration": 0.2,
        "velocity": 1,
        "hand": "right"
      },
      {
        "midi": 65,
        "time": 10.05,
        "duration": 0.2,
        "velocity": 1,
        "hand": "right"
      },
      {
        "midi": 67,
        "time": 10.2,
        "duration": 0.3,
        "velocity": 1,
        "hand": "right"
      },
      {
        "midi": 67,
        "time": 10.5,
        "duration": 0.2,
        "velocity": 1,
        "hand": "right"
      },
      {
        "midi": 67,
        "time": 10.65,
        "duration": 0.2,
        "velocity": 1,
        "hand": "right"
      },
      {
        "midi": 67,
        "time": 10.8,
        "duration": 0.45,
        "velocity": 1,
        "hand": "right"
      },
      {
        "midi": 64,
        "time": 11.1,
        "duration": 0.3,
        "velocity": 1,
        "hand": "right"
      },
      {
        "midi": 69,
        "time": 11.4,
        "duration": 0.3,
        "velocity": 1,
        "hand": "right"
      },
      {
        "midi": 69,
        "time": 11.7,
        "duration": 0.3,
        "velocity": 1,
        "hand": "right"
      },
      {
        "midi": 65,
        "time": 12,
        "duration": 0.45,
        "velocity": 1,
        "hand": "right"
      },
      {
        "midi": 62,
        "time": 12.3,
        "duration": 0.2,
        "velocity": 1,
        "hand": "right"
      },
      {
        "midi": 64,
        "time": 12.45,
        "duration": 0.2,
        "velocity": 1,
        "hand": "right"
      },
      {
        "midi": 65,
        "time": 12.6,
        "duration": 0.3,
        "velocity": 1,
        "hand": "right"
      },
      {
        "midi": 65,
        "time": 12.9,
        "duration": 0.2,
        "velocity": 1,
        "hand": "right"
      },
      {
        "midi": 65,
        "time": 13.05,
        "duration": 0.2,
        "velocity": 1,
        "hand": "right"
      },
      {
        "midi": 62,
        "time": 13.5,
        "duration": 0.3,
        "velocity": 1,
        "hand": "right"
      },
      {
        "midi": 67,
        "time": 13.8,
        "duration": 0.75,
        "velocity": 1,
        "hand": "right"
      },
      {
        "midi": 64,
        "time": 14.4,
        "duration": 0.45,
        "velocity": 1,
        "hand": "right"
      },
      {
        "midi": 64,
        "time": 14.7,
        "duration": 0.2,
        "velocity": 1,
        "hand": "right"
      },
      {
        "midi": 65,
        "time": 14.85,
        "duration": 0.2,
        "velocity": 1,
        "hand": "right"
      },
      {
        "midi": 67,
        "time": 15,
        "duration": 0.3,
        "velocity": 1,
        "hand": "right"
      },
      {
        "midi": 67,
        "time": 15.3,
        "duration": 0.3,
        "velocity": 1,
        "hand": "right"
      },
      {
        "midi": 67,
        "time": 15.6,
        "duration": 0.45,
        "velocity": 1,
        "hand": "right"
      },
      {
        "midi": 64,
        "time": 15.9,
        "duration": 0.3,
        "velocity": 1,
        "hand": "right"
      },
      {
        "midi": 69,
        "time": 16.2,
        "duration": 0.3,
        "velocity": 1,
        "hand": "right"
      },
      {
        "midi": 72,
        "time": 16.5,
        "duration": 0.3,
        "velocity": 1,
        "hand": "right"
      },
      {
        "midi": 71,
        "time": 16.8,
        "duration": 0.3,
        "velocity": 1,
        "hand": "right"
      },
      {
        "midi": 69,
        "time": 17.1,
        "duration": 0.3,
        "velocity": 1,
        "hand": "right"
      },
      {
        "midi": 67,
        "time": 17.4,
        "duration": 0.3,
        "velocity": 1,
        "hand": "right"
      },
      {
        "midi": 65,
        "time": 17.7,
        "duration": 0.3,
        "velocity": 1,
        "hand": "right"
      },
      {
        "midi": 64,
        "time": 18,
        "duration": 0.3,
        "velocity": 1,
        "hand": "right"
      },
      {
        "midi": 62,
        "time": 18.3,
        "duration": 0.3,
        "velocity": 1,
        "hand": "right"
      },
      {
        "midi": 60,
        "time": 18.6,
        "duration": 0.45,
        "velocity": 1,
        "hand": "right"
      }
    ],
    "medium": [
      {
        "midi": 64,
        "time": 0.3,
        "duration": 0.15,
        "velocity": 1,
        "hand": "right"
      },
      {
        "midi": 65,
        "time": 0.45,
        "duration": 0.15,
        "velocity": 1,
        "hand": "right"
      },
      {
        "midi": 48,
        "time": 0.6,
        "duration": 1.05,
        "velocity": 1,
        "hand": "left"
      },
      {
        "midi": 55,
        "time": 0.6,
        "duration": 0.45,
        "velocity": 0.91,
        "hand": "left"
      },
      {
        "midi": 67,
        "time": 0.6,
        "duration": 0.3,
        "velocity": 1,
        "hand": "right"
      },
      {
        "midi": 67,
        "time": 0.9,
        "duration": 0.15,
        "velocity": 1,
        "hand": "right"
      },
      {
        "midi": 67,
        "time": 1.05,
        "duration": 0.15,
        "velocity": 1,
        "hand": "right"
      },
      {
        "midi": 57,
        "time": 1.2,
        "duration": 0.3,
        "velocity": 0.91,
        "hand": "left"
      },
      {
        "midi": 65,
        "time": 1.2,
        "duration": 0.3,
        "velocity": 1,
        "hand": "right"
      },
      {
        "midi": 67,
        "time": 1.2,
        "duration": 0.45,
        "velocity": 1,
        "hand": "right"
      },
      {
        "midi": 55,
        "time": 1.5,
        "duration": 0.3,
        "velocity": 0.91,
        "hand": "left"
      },
      {
        "midi": 64,
        "time": 1.5,
        "duration": 0.3,
        "velocity": 1,
        "hand": "right"
      },
      {
        "midi": 48,
        "time": 1.8,
        "duration": 1.05,
        "velocity": 1,
        "hand": "left"
      },
      {
        "midi": 53,
        "time": 1.8,
        "duration": 0.45,
        "velocity": 0.91,
        "hand": "left"
      },
      {
        "midi": 69,
        "time": 1.8,
        "duration": 0.3,
        "velocity": 1,
        "hand": "right"
      },
      {
        "midi": 69,
        "time": 2.1,
        "duration": 0.3,
        "velocity": 1,
        "hand": "right"
      },
      {
        "midi": 55,
        "time": 2.4,
        "duration": 0.3,
        "velocity": 0.91,
        "hand": "left"
      },
      {
        "midi": 62,
        "time": 2.4,
        "duration": 0.45,
        "velocity": 1,
        "hand": "right"
      },
      {
        "midi": 65,
        "time": 2.4,
        "duration": 0.45,
        "velocity": 1,
        "hand": "right"
      },
      {
        "midi": 57,
        "time": 2.7,
        "duration": 0.3,
        "velocity": 0.91,
        "hand": "left"
      },
      {
        "midi": 62,
        "time": 2.7,
        "duration": 0.15,
        "velocity": 1,
        "hand": "right"
      },
      {
        "midi": 64,
        "time": 2.85,
        "duration": 0.15,
        "velocity": 1,
        "hand": "right"
      },
      {
        "midi": 43,
        "time": 3,
        "duration": 1.05,
        "velocity": 1,
        "hand": "left"
      },
      {
        "midi": 59,
        "time": 3,
        "duration": 0.45,
        "velocity": 0.91,
        "hand": "left"
      },
      {
        "midi": 65,
        "time": 3,
        "duration": 0.3,
        "velocity": 1,
        "hand": "right"
      },
      {
        "midi": 65,
        "time": 3.3,
        "duration": 0.15,
        "velocity": 1,
        "hand": "right"
      },
      {
        "midi": 65,
        "time": 3.45,
        "duration": 0.15,
        "velocity": 1,
        "hand": "right"
      },
      {
        "midi": 55,
        "time": 3.6,
        "duration": 0.3,
        "velocity": 0.91,
        "hand": "left"
      },
      {
        "midi": 64,
        "time": 3.6,
        "duration": 0.3,
        "velocity": 1,
        "hand": "right"
      },
      {
        "midi": 65,
        "time": 3.6,
        "duration": 0.45,
        "velocity": 1,
        "hand": "right"
      },
      {
        "midi": 53,
        "time": 3.9,
        "duration": 0.3,
        "velocity": 0.91,
        "hand": "left"
      },
      {
        "midi": 62,
        "time": 3.9,
        "duration": 0.3,
        "velocity": 1,
        "hand": "right"
      },
      {
        "midi": 48,
        "time": 4.2,
        "duration": 1.05,
        "velocity": 1,
        "hand": "left"
      },
      {
        "midi": 52,
        "time": 4.2,
        "duration": 0.45,
        "velocity": 0.91,
        "hand": "left"
      },
      {
        "midi": 67,
        "time": 4.2,
        "duration": 0.75,
        "velocity": 1,
        "hand": "right"
      },
      {
        "midi": 60,
        "time": 4.8,
        "duration": 0.3,
        "velocity": 0.91,
        "hand": "right"
      },
      {
        "midi": 64,
        "time": 4.8,
        "duration": 0.45,
        "velocity": 1,
        "hand": "right"
      },
      {
        "midi": 57,
        "time": 5.1,
        "duration": 0.3,
        "velocity": 0.91,
        "hand": "left"
      },
      {
        "midi": 64,
        "time": 5.1,
        "duration": 0.15,
        "velocity": 1,
        "hand": "right"
      },
      {
        "midi": 65,
        "time": 5.25,
        "duration": 0.15,
        "velocity": 1,
        "hand": "right"
      },
      {
        "midi": 48,
        "time": 5.4,
        "duration": 1.05,
        "velocity": 1,
        "hand": "left"
      },
      {
        "midi": 55,
        "time": 5.4,
        "duration": 0.45,
        "velocity": 0.91,
        "hand": "left"
      },
      {
        "midi": 67,
        "time": 5.4,
        "duration": 0.3,
        "velocity": 1,
        "hand": "right"
      },
      {
        "midi": 67,
        "time": 5.7,
        "duration": 0.3,
        "velocity": 1,
        "hand": "right"
      },
      {
        "midi": 57,
        "time": 6,
        "duration": 0.3,
        "velocity": 0.91,
        "hand": "left"
      },
      {
        "midi": 65,
        "time": 6,
        "duration": 0.3,
        "velocity": 1,
        "hand": "right"
      },
      {
        "midi": 67,
        "time": 6,
        "duration": 0.45,
        "velocity": 1,
        "hand": "right"
      },
      {
        "midi": 55,
        "time": 6.3,
        "duration": 0.3,
        "velocity": 0.91,
        "hand": "left"
      },
      {
        "midi": 64,
        "time": 6.3,
        "duration": 0.3,
        "velocity": 1,
        "hand": "right"
      },
      {
        "midi": 48,
        "time": 6.6,
        "duration": 1.05,
        "velocity": 1,
        "hand": "left"
      },
      {
        "midi": 53,
        "time": 6.6,
        "duration": 0.45,
        "velocity": 0.91,
        "hand": "left"
      },
      {
        "midi": 69,
        "time": 6.6,
        "duration": 0.3,
        "velocity": 1,
        "hand": "right"
      },
      {
        "midi": 72,
        "time": 6.9,
        "duration": 0.3,
        "velocity": 1,
        "hand": "right"
      },
      {
        "midi": 55,
        "time": 7.2,
        "duration": 0.3,
        "velocity": 0.91,
        "hand": "left"
      },
      {
        "midi": 65,
        "time": 7.2,
        "duration": 0.45,
        "velocity": 1,
        "hand": "right"
      },
      {
        "midi": 71,
        "time": 7.2,
        "duration": 0.3,
        "velocity": 1,
        "hand": "right"
      },
      {
        "midi": 57,
        "time": 7.5,
        "duration": 0.3,
        "velocity": 0.91,
        "hand": "left"
      },
      {
        "midi": 69,
        "time": 7.5,
        "duration": 0.3,
        "velocity": 1,
        "hand": "right"
      },
      {
        "midi": 43,
        "time": 7.8,
        "duration": 1.05,
        "velocity": 1,
        "hand": "left"
      },
      {
        "midi": 59,
        "time": 7.8,
        "duration": 0.3,
        "velocity": 0.91,
        "hand": "left"
      },
      {
        "midi": 67,
        "time": 7.8,
        "duration": 0.3,
        "velocity": 1,
        "hand": "right"
      },
      {
        "midi": 55,
        "time": 8.1,
        "duration": 0.3,
        "velocity": 0.91,
        "hand": "left"
      },
      {
        "midi": 65,
        "time": 8.1,
        "duration": 0.3,
        "velocity": 1,
        "hand": "right"
      },
      {
        "midi": 54,
        "time": 8.4,
        "duration": 0.3,
        "velocity": 0.91,
        "hand": "left"
      },
      {
        "midi": 59,
        "time": 8.4,
        "duration": 0.45,
        "velocity": 1,
        "hand": "left"
      },
      {
        "midi": 64,
        "time": 8.4,
        "duration": 0.3,
        "velocity": 1,
        "hand": "right"
      },
      {
        "midi": 53,
        "time": 8.7,
        "duration": 0.3,
        "velocity": 0.91,
        "hand": "left"
      },
      {
        "midi": 62,
        "time": 8.7,
        "duration": 0.3,
        "velocity": 1,
        "hand": "right"
      },
      {
        "midi": 48,
        "time": 9,
        "duration": 0.45,
        "velocity": 1,
        "hand": "left"
      },
      {
        "midi": 55,
        "time": 9,
        "duration": 0.45,
        "velocity": 1,
        "hand": "left"
      },
      {
        "midi": 60,
        "time": 9,
        "duration": 0.45,
        "velocity": 1,
        "hand": "right"
      },
      {
        "midi": 64,
        "time": 9.9,
        "duration": 0.15,
        "velocity": 1,
        "hand": "right"
      },
      {
        "midi": 65,
        "time": 10.05,
        "duration": 0.15,
        "velocity": 1,
        "hand": "right"
      },
      {
        "midi": 48,
        "time": 10.2,
        "duration": 1.05,
        "velocity": 1,
        "hand": "left"
      },
      {
        "midi": 55,
        "time": 10.2,
        "duration": 0.45,
        "velocity": 0.91,
        "hand": "left"
      },
      {
        "midi": 67,
        "time": 10.2,
        "duration": 0.3,
        "velocity": 1,
        "hand": "right"
      },
      {
        "midi": 67,
        "time": 10.5,
        "duration": 0.15,
        "velocity": 1,
        "hand": "right"
      },
      {
        "midi": 67,
        "time": 10.65,
        "duration": 0.15,
        "velocity": 1,
        "hand": "right"
      },
      {
        "midi": 57,
        "time": 10.8,
        "duration": 0.3,
        "velocity": 0.91,
        "hand": "left"
      },
      {
        "midi": 65,
        "time": 10.8,
        "duration": 0.3,
        "velocity": 1,
        "hand": "right"
      },
      {
        "midi": 67,
        "time": 10.8,
        "duration": 0.45,
        "velocity": 1,
        "hand": "right"
      },
      {
        "midi": 55,
        "time": 11.1,
        "duration": 0.3,
        "velocity": 0.91,
        "hand": "left"
      },
      {
        "midi": 64,
        "time": 11.1,
        "duration": 0.3,
        "velocity": 1,
        "hand": "right"
      },
      {
        "midi": 48,
        "time": 11.4,
        "duration": 1.05,
        "velocity": 1,
        "hand": "left"
      },
      {
        "midi": 53,
        "time": 11.4,
        "duration": 0.45,
        "velocity": 0.91,
        "hand": "left"
      },
      {
        "midi": 69,
        "time": 11.4,
        "duration": 0.3,
        "velocity": 1,
        "hand": "right"
      },
      {
        "midi": 69,
        "time": 11.7,
        "duration": 0.3,
        "velocity": 1,
        "hand": "right"
      },
      {
        "midi": 55,
        "time": 12,
        "duration": 0.3,
        "velocity": 0.91,
        "hand": "left"
      },
      {
        "midi": 62,
        "time": 12,
        "duration": 0.45,
        "velocity": 1,
        "hand": "right"
      },
      {
        "midi": 65,
        "time": 12,
        "duration": 0.45,
        "velocity": 1,
        "hand": "right"
      },
      {
        "midi": 57,
        "time": 12.3,
        "duration": 0.3,
        "velocity": 0.91,
        "hand": "left"
      },
      {
        "midi": 62,
        "time": 12.3,
        "duration": 0.15,
        "velocity": 1,
        "hand": "right"
      },
      {
        "midi": 64,
        "time": 12.45,
        "duration": 0.15,
        "velocity": 1,
        "hand": "right"
      },
      {
        "midi": 43,
        "time": 12.6,
        "duration": 1.05,
        "velocity": 1,
        "hand": "left"
      },
      {
        "midi": 59,
        "time": 12.6,
        "duration": 0.45,
        "velocity": 0.91,
        "hand": "left"
      },
      {
        "midi": 65,
        "time": 12.6,
        "duration": 0.3,
        "velocity": 1,
        "hand": "right"
      },
      {
        "midi": 65,
        "time": 12.9,
        "duration": 0.15,
        "velocity": 1,
        "hand": "right"
      },
      {
        "midi": 65,
        "time": 13.05,
        "duration": 0.15,
        "velocity": 1,
        "hand": "right"
      },
      {
        "midi": 55,
        "time": 13.2,
        "duration": 0.3,
        "velocity": 0.91,
        "hand": "left"
      },
      {
        "midi": 64,
        "time": 13.2,
        "duration": 0.3,
        "velocity": 1,
        "hand": "right"
      },
      {
        "midi": 65,
        "time": 13.2,
        "duration": 0.45,
        "velocity": 1,
        "hand": "right"
      },
      {
        "midi": 53,
        "time": 13.5,
        "duration": 0.3,
        "velocity": 0.91,
        "hand": "left"
      },
      {
        "midi": 62,
        "time": 13.5,
        "duration": 0.3,
        "velocity": 1,
        "hand": "right"
      },
      {
        "midi": 48,
        "time": 13.8,
        "duration": 1.05,
        "velocity": 1,
        "hand": "left"
      },
      {
        "midi": 52,
        "time": 13.8,
        "duration": 0.45,
        "velocity": 0.91,
        "hand": "left"
      },
      {
        "midi": 67,
        "time": 13.8,
        "duration": 0.75,
        "velocity": 1,
        "hand": "right"
      },
      {
        "midi": 60,
        "time": 14.4,
        "duration": 0.3,
        "velocity": 0.91,
        "hand": "right"
      },
      {
        "midi": 64,
        "time": 14.4,
        "duration": 0.45,
        "velocity": 1,
        "hand": "right"
      },
      {
        "midi": 57,
        "time": 14.7,
        "duration": 0.3,
        "velocity": 0.91,
        "hand": "left"
      },
      {
        "midi": 64,
        "time": 14.7,
        "duration": 0.15,
        "velocity": 1,
        "hand": "right"
      },
      {
        "midi": 65,
        "time": 14.85,
        "duration": 0.15,
        "velocity": 1,
        "hand": "right"
      },
      {
        "midi": 48,
        "time": 15,
        "duration": 1.05,
        "velocity": 1,
        "hand": "left"
      },
      {
        "midi": 55,
        "time": 15,
        "duration": 0.45,
        "velocity": 0.91,
        "hand": "left"
      },
      {
        "midi": 67,
        "time": 15,
        "duration": 0.3,
        "velocity": 1,
        "hand": "right"
      },
      {
        "midi": 67,
        "time": 15.3,
        "duration": 0.3,
        "velocity": 1,
        "hand": "right"
      },
      {
        "midi": 57,
        "time": 15.6,
        "duration": 0.3,
        "velocity": 0.91,
        "hand": "left"
      },
      {
        "midi": 65,
        "time": 15.6,
        "duration": 0.3,
        "velocity": 1,
        "hand": "right"
      },
      {
        "midi": 67,
        "time": 15.6,
        "duration": 0.45,
        "velocity": 1,
        "hand": "right"
      },
      {
        "midi": 55,
        "time": 15.9,
        "duration": 0.3,
        "velocity": 0.91,
        "hand": "left"
      },
      {
        "midi": 64,
        "time": 15.9,
        "duration": 0.3,
        "velocity": 1,
        "hand": "right"
      },
      {
        "midi": 48,
        "time": 16.2,
        "duration": 1.05,
        "velocity": 1,
        "hand": "left"
      },
      {
        "midi": 53,
        "time": 16.2,
        "duration": 0.45,
        "velocity": 0.91,
        "hand": "left"
      },
      {
        "midi": 69,
        "time": 16.2,
        "duration": 0.3,
        "velocity": 1,
        "hand": "right"
      },
      {
        "midi": 72,
        "time": 16.5,
        "duration": 0.3,
        "velocity": 1,
        "hand": "right"
      },
      {
        "midi": 55,
        "time": 16.8,
        "duration": 0.3,
        "velocity": 0.91,
        "hand": "left"
      },
      {
        "midi": 65,
        "time": 16.8,
        "duration": 0.45,
        "velocity": 1,
        "hand": "right"
      },
      {
        "midi": 71,
        "time": 16.8,
        "duration": 0.3,
        "velocity": 1,
        "hand": "right"
      },
      {
        "midi": 57,
        "time": 17.1,
        "duration": 0.3,
        "velocity": 0.91,
        "hand": "left"
      },
      {
        "midi": 69,
        "time": 17.1,
        "duration": 0.3,
        "velocity": 1,
        "hand": "right"
      },
      {
        "midi": 43,
        "time": 17.4,
        "duration": 1.05,
        "velocity": 1,
        "hand": "left"
      },
      {
        "midi": 59,
        "time": 17.4,
        "duration": 0.3,
        "velocity": 0.91,
        "hand": "left"
      },
      {
        "midi": 67,
        "time": 17.4,
        "duration": 0.3,
        "velocity": 1,
        "hand": "right"
      },
      {
        "midi": 55,
        "time": 17.7,
        "duration": 0.3,
        "velocity": 0.91,
        "hand": "left"
      },
      {
        "midi": 65,
        "time": 17.7,
        "duration": 0.3,
        "velocity": 1,
        "hand": "right"
      },
      {
        "midi": 54,
        "time": 18,
        "duration": 0.3,
        "velocity": 0.91,
        "hand": "left"
      },
      {
        "midi": 59,
        "time": 18,
        "duration": 0.45,
        "velocity": 1,
        "hand": "left"
      },
      {
        "midi": 64,
        "time": 18,
        "duration": 0.3,
        "velocity": 1,
        "hand": "right"
      },
      {
        "midi": 53,
        "time": 18.3,
        "duration": 0.3,
        "velocity": 0.91,
        "hand": "left"
      },
      {
        "midi": 62,
        "time": 18.3,
        "duration": 0.3,
        "velocity": 1,
        "hand": "right"
      },
      {
        "midi": 48,
        "time": 18.6,
        "duration": 0.45,
        "velocity": 1,
        "hand": "left"
      },
      {
        "midi": 55,
        "time": 18.6,
        "duration": 0.45,
        "velocity": 1,
        "hand": "left"
      },
      {
        "midi": 60,
        "time": 18.6,
        "duration": 0.45,
        "velocity": 1,
        "hand": "right"
      }
    ],
    "hard": [
      {
        "midi": 64,
        "time": 0.3,
        "duration": 0.15,
        "velocity": 1,
        "hand": "right"
      },
      {
        "midi": 65,
        "time": 0.45,
        "duration": 0.15,
        "velocity": 1,
        "hand": "right"
      },
      {
        "midi": 48,
        "time": 0.6,
        "duration": 1.05,
        "velocity": 1,
        "hand": "left"
      },
      {
        "midi": 55,
        "time": 0.6,
        "duration": 0.45,
        "velocity": 0.91,
        "hand": "left"
      },
      {
        "midi": 67,
        "time": 0.6,
        "duration": 0.3,
        "velocity": 1,
        "hand": "right"
      },
      {
        "midi": 67,
        "time": 0.9,
        "duration": 0.15,
        "velocity": 1,
        "hand": "right"
      },
      {
        "midi": 67,
        "time": 1.05,
        "duration": 0.15,
        "velocity": 1,
        "hand": "right"
      },
      {
        "midi": 57,
        "time": 1.2,
        "duration": 0.3,
        "velocity": 0.91,
        "hand": "left"
      },
      {
        "midi": 60,
        "time": 1.2,
        "duration": 0.45,
        "velocity": 1,
        "hand": "right"
      },
      {
        "midi": 65,
        "time": 1.2,
        "duration": 0.3,
        "velocity": 1,
        "hand": "right"
      },
      {
        "midi": 67,
        "time": 1.2,
        "duration": 0.45,
        "velocity": 1,
        "hand": "right"
      },
      {
        "midi": 55,
        "time": 1.5,
        "duration": 0.3,
        "velocity": 0.91,
        "hand": "left"
      },
      {
        "midi": 64,
        "time": 1.5,
        "duration": 0.3,
        "velocity": 1,
        "hand": "right"
      },
      {
        "midi": 48,
        "time": 1.8,
        "duration": 1.05,
        "velocity": 1,
        "hand": "left"
      },
      {
        "midi": 53,
        "time": 1.8,
        "duration": 0.45,
        "velocity": 0.91,
        "hand": "left"
      },
      {
        "midi": 69,
        "time": 1.8,
        "duration": 0.3,
        "velocity": 1,
        "hand": "right"
      },
      {
        "midi": 69,
        "time": 2.1,
        "duration": 0.3,
        "velocity": 1,
        "hand": "right"
      },
      {
        "midi": 55,
        "time": 2.4,
        "duration": 0.3,
        "velocity": 0.91,
        "hand": "left"
      },
      {
        "midi": 62,
        "time": 2.4,
        "duration": 0.45,
        "velocity": 1,
        "hand": "right"
      },
      {
        "midi": 65,
        "time": 2.4,
        "duration": 0.45,
        "velocity": 1,
        "hand": "right"
      },
      {
        "midi": 57,
        "time": 2.7,
        "duration": 0.3,
        "velocity": 0.91,
        "hand": "left"
      },
      {
        "midi": 62,
        "time": 2.7,
        "duration": 0.15,
        "velocity": 1,
        "hand": "right"
      },
      {
        "midi": 64,
        "time": 2.85,
        "duration": 0.15,
        "velocity": 1,
        "hand": "right"
      },
      {
        "midi": 43,
        "time": 3,
        "duration": 1.05,
        "velocity": 1,
        "hand": "left"
      },
      {
        "midi": 59,
        "time": 3,
        "duration": 0.45,
        "velocity": 0.91,
        "hand": "left"
      },
      {
        "midi": 65,
        "time": 3,
        "duration": 0.3,
        "velocity": 1,
        "hand": "right"
      },
      {
        "midi": 65,
        "time": 3.3,
        "duration": 0.15,
        "velocity": 1,
        "hand": "right"
      },
      {
        "midi": 65,
        "time": 3.45,
        "duration": 0.15,
        "velocity": 1,
        "hand": "right"
      },
      {
        "midi": 55,
        "time": 3.6,
        "duration": 0.3,
        "velocity": 0.91,
        "hand": "left"
      },
      {
        "midi": 59,
        "time": 3.6,
        "duration": 0.45,
        "velocity": 1,
        "hand": "left"
      },
      {
        "midi": 64,
        "time": 3.6,
        "duration": 0.3,
        "velocity": 1,
        "hand": "right"
      },
      {
        "midi": 65,
        "time": 3.6,
        "duration": 0.45,
        "velocity": 1,
        "hand": "right"
      },
      {
        "midi": 53,
        "time": 3.9,
        "duration": 0.3,
        "velocity": 0.91,
        "hand": "left"
      },
      {
        "midi": 62,
        "time": 3.9,
        "duration": 0.3,
        "velocity": 1,
        "hand": "right"
      },
      {
        "midi": 48,
        "time": 4.2,
        "duration": 1.05,
        "velocity": 1,
        "hand": "left"
      },
      {
        "midi": 52,
        "time": 4.2,
        "duration": 0.45,
        "velocity": 0.91,
        "hand": "left"
      },
      {
        "midi": 67,
        "time": 4.2,
        "duration": 0.75,
        "velocity": 1,
        "hand": "right"
      },
      {
        "midi": 60,
        "time": 4.8,
        "duration": 0.3,
        "velocity": 0.91,
        "hand": "right"
      },
      {
        "midi": 60,
        "time": 4.8,
        "duration": 0.45,
        "velocity": 1,
        "hand": "right"
      },
      {
        "midi": 64,
        "time": 4.8,
        "duration": 0.45,
        "velocity": 1,
        "hand": "right"
      },
      {
        "midi": 57,
        "time": 5.1,
        "duration": 0.3,
        "velocity": 0.91,
        "hand": "left"
      },
      {
        "midi": 64,
        "time": 5.1,
        "duration": 0.15,
        "velocity": 1,
        "hand": "right"
      },
      {
        "midi": 65,
        "time": 5.25,
        "duration": 0.15,
        "velocity": 1,
        "hand": "right"
      },
      {
        "midi": 48,
        "time": 5.4,
        "duration": 1.05,
        "velocity": 1,
        "hand": "left"
      },
      {
        "midi": 55,
        "time": 5.4,
        "duration": 0.45,
        "velocity": 0.91,
        "hand": "left"
      },
      {
        "midi": 67,
        "time": 5.4,
        "duration": 0.3,
        "velocity": 1,
        "hand": "right"
      },
      {
        "midi": 67,
        "time": 5.7,
        "duration": 0.3,
        "velocity": 1,
        "hand": "right"
      },
      {
        "midi": 57,
        "time": 6,
        "duration": 0.3,
        "velocity": 0.91,
        "hand": "left"
      },
      {
        "midi": 60,
        "time": 6,
        "duration": 0.45,
        "velocity": 1,
        "hand": "right"
      },
      {
        "midi": 65,
        "time": 6,
        "duration": 0.3,
        "velocity": 1,
        "hand": "right"
      },
      {
        "midi": 67,
        "time": 6,
        "duration": 0.45,
        "velocity": 1,
        "hand": "right"
      },
      {
        "midi": 55,
        "time": 6.3,
        "duration": 0.3,
        "velocity": 0.91,
        "hand": "left"
      },
      {
        "midi": 64,
        "time": 6.3,
        "duration": 0.3,
        "velocity": 1,
        "hand": "right"
      },
      {
        "midi": 48,
        "time": 6.6,
        "duration": 1.05,
        "velocity": 1,
        "hand": "left"
      },
      {
        "midi": 53,
        "time": 6.6,
        "duration": 0.45,
        "velocity": 0.91,
        "hand": "left"
      },
      {
        "midi": 69,
        "time": 6.6,
        "duration": 0.3,
        "velocity": 1,
        "hand": "right"
      },
      {
        "midi": 72,
        "time": 6.9,
        "duration": 0.3,
        "velocity": 1,
        "hand": "right"
      },
      {
        "midi": 55,
        "time": 7.2,
        "duration": 0.3,
        "velocity": 0.91,
        "hand": "left"
      },
      {
        "midi": 62,
        "time": 7.2,
        "duration": 0.45,
        "velocity": 1,
        "hand": "right"
      },
      {
        "midi": 65,
        "time": 7.2,
        "duration": 0.45,
        "velocity": 1,
        "hand": "right"
      },
      {
        "midi": 71,
        "time": 7.2,
        "duration": 0.3,
        "velocity": 1,
        "hand": "right"
      },
      {
        "midi": 57,
        "time": 7.5,
        "duration": 0.3,
        "velocity": 0.91,
        "hand": "left"
      },
      {
        "midi": 69,
        "time": 7.5,
        "duration": 0.3,
        "velocity": 1,
        "hand": "right"
      },
      {
        "midi": 43,
        "time": 7.8,
        "duration": 1.05,
        "velocity": 1,
        "hand": "left"
      },
      {
        "midi": 59,
        "time": 7.8,
        "duration": 0.3,
        "velocity": 0.91,
        "hand": "left"
      },
      {
        "midi": 67,
        "time": 7.8,
        "duration": 0.3,
        "velocity": 1,
        "hand": "right"
      },
      {
        "midi": 55,
        "time": 8.1,
        "duration": 0.3,
        "velocity": 0.91,
        "hand": "left"
      },
      {
        "midi": 65,
        "time": 8.1,
        "duration": 0.3,
        "velocity": 1,
        "hand": "right"
      },
      {
        "midi": 54,
        "time": 8.4,
        "duration": 0.3,
        "velocity": 0.91,
        "hand": "left"
      },
      {
        "midi": 55,
        "time": 8.4,
        "duration": 0.45,
        "velocity": 1,
        "hand": "left"
      },
      {
        "midi": 59,
        "time": 8.4,
        "duration": 0.45,
        "velocity": 1,
        "hand": "left"
      },
      {
        "midi": 64,
        "time": 8.4,
        "duration": 0.3,
        "velocity": 1,
        "hand": "right"
      },
      {
        "midi": 53,
        "time": 8.7,
        "duration": 0.3,
        "velocity": 0.91,
        "hand": "left"
      },
      {
        "midi": 62,
        "time": 8.7,
        "duration": 0.3,
        "velocity": 1,
        "hand": "right"
      },
      {
        "midi": 48,
        "time": 9,
        "duration": 0.45,
        "velocity": 1,
        "hand": "left"
      },
      {
        "midi": 52,
        "time": 9,
        "duration": 0.45,
        "velocity": 0.91,
        "hand": "left"
      },
      {
        "midi": 55,
        "time": 9,
        "duration": 0.45,
        "velocity": 1,
        "hand": "left"
      },
      {
        "midi": 60,
        "time": 9,
        "duration": 0.45,
        "velocity": 1,
        "hand": "right"
      },
      {
        "midi": 64,
        "time": 9.9,
        "duration": 0.15,
        "velocity": 1,
        "hand": "right"
      },
      {
        "midi": 65,
        "time": 10.05,
        "duration": 0.15,
        "velocity": 1,
        "hand": "right"
      },
      {
        "midi": 48,
        "time": 10.2,
        "duration": 1.05,
        "velocity": 1,
        "hand": "left"
      },
      {
        "midi": 55,
        "time": 10.2,
        "duration": 0.45,
        "velocity": 0.91,
        "hand": "left"
      },
      {
        "midi": 67,
        "time": 10.2,
        "duration": 0.3,
        "velocity": 1,
        "hand": "right"
      },
      {
        "midi": 67,
        "time": 10.5,
        "duration": 0.15,
        "velocity": 1,
        "hand": "right"
      },
      {
        "midi": 67,
        "time": 10.65,
        "duration": 0.15,
        "velocity": 1,
        "hand": "right"
      },
      {
        "midi": 57,
        "time": 10.8,
        "duration": 0.3,
        "velocity": 0.91,
        "hand": "left"
      },
      {
        "midi": 60,
        "time": 10.8,
        "duration": 0.45,
        "velocity": 1,
        "hand": "right"
      },
      {
        "midi": 65,
        "time": 10.8,
        "duration": 0.3,
        "velocity": 1,
        "hand": "right"
      },
      {
        "midi": 67,
        "time": 10.8,
        "duration": 0.45,
        "velocity": 1,
        "hand": "right"
      },
      {
        "midi": 55,
        "time": 11.1,
        "duration": 0.3,
        "velocity": 0.91,
        "hand": "left"
      },
      {
        "midi": 64,
        "time": 11.1,
        "duration": 0.3,
        "velocity": 1,
        "hand": "right"
      },
      {
        "midi": 48,
        "time": 11.4,
        "duration": 1.05,
        "velocity": 1,
        "hand": "left"
      },
      {
        "midi": 53,
        "time": 11.4,
        "duration": 0.45,
        "velocity": 0.91,
        "hand": "left"
      },
      {
        "midi": 69,
        "time": 11.4,
        "duration": 0.3,
        "velocity": 1,
        "hand": "right"
      },
      {
        "midi": 69,
        "time": 11.7,
        "duration": 0.3,
        "velocity": 1,
        "hand": "right"
      },
      {
        "midi": 55,
        "time": 12,
        "duration": 0.3,
        "velocity": 0.91,
        "hand": "left"
      },
      {
        "midi": 62,
        "time": 12,
        "duration": 0.45,
        "velocity": 1,
        "hand": "right"
      },
      {
        "midi": 65,
        "time": 12,
        "duration": 0.45,
        "velocity": 1,
        "hand": "right"
      },
      {
        "midi": 57,
        "time": 12.3,
        "duration": 0.3,
        "velocity": 0.91,
        "hand": "left"
      },
      {
        "midi": 62,
        "time": 12.3,
        "duration": 0.15,
        "velocity": 1,
        "hand": "right"
      },
      {
        "midi": 64,
        "time": 12.45,
        "duration": 0.15,
        "velocity": 1,
        "hand": "right"
      },
      {
        "midi": 43,
        "time": 12.6,
        "duration": 1.05,
        "velocity": 1,
        "hand": "left"
      },
      {
        "midi": 59,
        "time": 12.6,
        "duration": 0.45,
        "velocity": 0.91,
        "hand": "left"
      },
      {
        "midi": 65,
        "time": 12.6,
        "duration": 0.3,
        "velocity": 1,
        "hand": "right"
      },
      {
        "midi": 65,
        "time": 12.9,
        "duration": 0.15,
        "velocity": 1,
        "hand": "right"
      },
      {
        "midi": 65,
        "time": 13.05,
        "duration": 0.15,
        "velocity": 1,
        "hand": "right"
      },
      {
        "midi": 55,
        "time": 13.2,
        "duration": 0.3,
        "velocity": 0.91,
        "hand": "left"
      },
      {
        "midi": 59,
        "time": 13.2,
        "duration": 0.45,
        "velocity": 1,
        "hand": "left"
      },
      {
        "midi": 64,
        "time": 13.2,
        "duration": 0.3,
        "velocity": 1,
        "hand": "right"
      },
      {
        "midi": 65,
        "time": 13.2,
        "duration": 0.45,
        "velocity": 1,
        "hand": "right"
      },
      {
        "midi": 53,
        "time": 13.5,
        "duration": 0.3,
        "velocity": 0.91,
        "hand": "left"
      },
      {
        "midi": 62,
        "time": 13.5,
        "duration": 0.3,
        "velocity": 1,
        "hand": "right"
      },
      {
        "midi": 48,
        "time": 13.8,
        "duration": 1.05,
        "velocity": 1,
        "hand": "left"
      },
      {
        "midi": 52,
        "time": 13.8,
        "duration": 0.45,
        "velocity": 0.91,
        "hand": "left"
      },
      {
        "midi": 67,
        "time": 13.8,
        "duration": 0.75,
        "velocity": 1,
        "hand": "right"
      },
      {
        "midi": 60,
        "time": 14.4,
        "duration": 0.3,
        "velocity": 0.91,
        "hand": "right"
      },
      {
        "midi": 60,
        "time": 14.4,
        "duration": 0.45,
        "velocity": 1,
        "hand": "right"
      },
      {
        "midi": 64,
        "time": 14.4,
        "duration": 0.45,
        "velocity": 1,
        "hand": "right"
      },
      {
        "midi": 57,
        "time": 14.7,
        "duration": 0.3,
        "velocity": 0.91,
        "hand": "left"
      },
      {
        "midi": 64,
        "time": 14.7,
        "duration": 0.15,
        "velocity": 1,
        "hand": "right"
      },
      {
        "midi": 65,
        "time": 14.85,
        "duration": 0.15,
        "velocity": 1,
        "hand": "right"
      },
      {
        "midi": 48,
        "time": 15,
        "duration": 1.05,
        "velocity": 1,
        "hand": "left"
      },
      {
        "midi": 55,
        "time": 15,
        "duration": 0.45,
        "velocity": 0.91,
        "hand": "left"
      },
      {
        "midi": 67,
        "time": 15,
        "duration": 0.3,
        "velocity": 1,
        "hand": "right"
      },
      {
        "midi": 67,
        "time": 15.3,
        "duration": 0.3,
        "velocity": 1,
        "hand": "right"
      },
      {
        "midi": 57,
        "time": 15.6,
        "duration": 0.3,
        "velocity": 0.91,
        "hand": "left"
      },
      {
        "midi": 60,
        "time": 15.6,
        "duration": 0.45,
        "velocity": 1,
        "hand": "right"
      },
      {
        "midi": 65,
        "time": 15.6,
        "duration": 0.3,
        "velocity": 1,
        "hand": "right"
      },
      {
        "midi": 67,
        "time": 15.6,
        "duration": 0.45,
        "velocity": 1,
        "hand": "right"
      },
      {
        "midi": 55,
        "time": 15.9,
        "duration": 0.3,
        "velocity": 0.91,
        "hand": "left"
      },
      {
        "midi": 64,
        "time": 15.9,
        "duration": 0.3,
        "velocity": 1,
        "hand": "right"
      },
      {
        "midi": 48,
        "time": 16.2,
        "duration": 1.05,
        "velocity": 1,
        "hand": "left"
      },
      {
        "midi": 53,
        "time": 16.2,
        "duration": 0.45,
        "velocity": 0.91,
        "hand": "left"
      },
      {
        "midi": 69,
        "time": 16.2,
        "duration": 0.3,
        "velocity": 1,
        "hand": "right"
      },
      {
        "midi": 72,
        "time": 16.5,
        "duration": 0.3,
        "velocity": 1,
        "hand": "right"
      },
      {
        "midi": 55,
        "time": 16.8,
        "duration": 0.3,
        "velocity": 0.91,
        "hand": "left"
      },
      {
        "midi": 62,
        "time": 16.8,
        "duration": 0.45,
        "velocity": 1,
        "hand": "right"
      },
      {
        "midi": 65,
        "time": 16.8,
        "duration": 0.45,
        "velocity": 1,
        "hand": "right"
      },
      {
        "midi": 71,
        "time": 16.8,
        "duration": 0.3,
        "velocity": 1,
        "hand": "right"
      },
      {
        "midi": 57,
        "time": 17.1,
        "duration": 0.3,
        "velocity": 0.91,
        "hand": "left"
      },
      {
        "midi": 69,
        "time": 17.1,
        "duration": 0.3,
        "velocity": 1,
        "hand": "right"
      },
      {
        "midi": 43,
        "time": 17.4,
        "duration": 1.05,
        "velocity": 1,
        "hand": "left"
      },
      {
        "midi": 59,
        "time": 17.4,
        "duration": 0.3,
        "velocity": 0.91,
        "hand": "left"
      },
      {
        "midi": 67,
        "time": 17.4,
        "duration": 0.3,
        "velocity": 1,
        "hand": "right"
      },
      {
        "midi": 55,
        "time": 17.7,
        "duration": 0.3,
        "velocity": 0.91,
        "hand": "left"
      },
      {
        "midi": 65,
        "time": 17.7,
        "duration": 0.3,
        "velocity": 1,
        "hand": "right"
      },
      {
        "midi": 54,
        "time": 18,
        "duration": 0.3,
        "velocity": 0.91,
        "hand": "left"
      },
      {
        "midi": 55,
        "time": 18,
        "duration": 0.45,
        "velocity": 1,
        "hand": "left"
      },
      {
        "midi": 59,
        "time": 18,
        "duration": 0.45,
        "velocity": 1,
        "hand": "left"
      },
      {
        "midi": 64,
        "time": 18,
        "duration": 0.3,
        "velocity": 1,
        "hand": "right"
      },
      {
        "midi": 53,
        "time": 18.3,
        "duration": 0.3,
        "velocity": 0.91,
        "hand": "left"
      },
      {
        "midi": 62,
        "time": 18.3,
        "duration": 0.3,
        "velocity": 1,
        "hand": "right"
      },
      {
        "midi": 48,
        "time": 18.6,
        "duration": 0.45,
        "velocity": 1,
        "hand": "left"
      },
      {
        "midi": 52,
        "time": 18.6,
        "duration": 0.45,
        "velocity": 0.91,
        "hand": "left"
      },
      {
        "midi": 55,
        "time": 18.6,
        "duration": 0.45,
        "velocity": 1,
        "hand": "left"
      },
      {
        "midi": 60,
        "time": 18.6,
        "duration": 0.45,
        "velocity": 1,
        "hand": "right"
      }
    ]
  },
  "notes1Hand": [
    {
      "midi": 64,
      "time": 0.3,
      "duration": 0.2,
      "velocity": 1,
      "hand": "right"
    },
    {
      "midi": 65,
      "time": 0.45,
      "duration": 0.2,
      "velocity": 1,
      "hand": "right"
    },
    {
      "midi": 67,
      "time": 0.6,
      "duration": 0.3,
      "velocity": 1,
      "hand": "right"
    },
    {
      "midi": 67,
      "time": 0.9,
      "duration": 0.2,
      "velocity": 1,
      "hand": "right"
    },
    {
      "midi": 67,
      "time": 1.05,
      "duration": 0.2,
      "velocity": 1,
      "hand": "right"
    },
    {
      "midi": 64,
      "time": 1.5,
      "duration": 0.3,
      "velocity": 1,
      "hand": "right"
    },
    {
      "midi": 69,
      "time": 1.8,
      "duration": 0.3,
      "velocity": 1,
      "hand": "right"
    },
    {
      "midi": 69,
      "time": 2.1,
      "duration": 0.3,
      "velocity": 1,
      "hand": "right"
    },
    {
      "midi": 65,
      "time": 2.4,
      "duration": 0.45,
      "velocity": 1,
      "hand": "right"
    },
    {
      "midi": 62,
      "time": 2.7,
      "duration": 0.2,
      "velocity": 1,
      "hand": "right"
    },
    {
      "midi": 64,
      "time": 2.85,
      "duration": 0.2,
      "velocity": 1,
      "hand": "right"
    },
    {
      "midi": 65,
      "time": 3,
      "duration": 0.3,
      "velocity": 1,
      "hand": "right"
    },
    {
      "midi": 65,
      "time": 3.3,
      "duration": 0.2,
      "velocity": 1,
      "hand": "right"
    },
    {
      "midi": 65,
      "time": 3.45,
      "duration": 0.2,
      "velocity": 1,
      "hand": "right"
    },
    {
      "midi": 62,
      "time": 3.9,
      "duration": 0.3,
      "velocity": 1,
      "hand": "right"
    },
    {
      "midi": 67,
      "time": 4.2,
      "duration": 0.75,
      "velocity": 1,
      "hand": "right"
    },
    {
      "midi": 64,
      "time": 4.8,
      "duration": 0.45,
      "velocity": 1,
      "hand": "right"
    },
    {
      "midi": 64,
      "time": 5.1,
      "duration": 0.2,
      "velocity": 1,
      "hand": "right"
    },
    {
      "midi": 65,
      "time": 5.25,
      "duration": 0.2,
      "velocity": 1,
      "hand": "right"
    },
    {
      "midi": 67,
      "time": 5.4,
      "duration": 0.3,
      "velocity": 1,
      "hand": "right"
    },
    {
      "midi": 67,
      "time": 5.7,
      "duration": 0.3,
      "velocity": 1,
      "hand": "right"
    },
    {
      "midi": 67,
      "time": 6,
      "duration": 0.45,
      "velocity": 1,
      "hand": "right"
    },
    {
      "midi": 64,
      "time": 6.3,
      "duration": 0.3,
      "velocity": 1,
      "hand": "right"
    },
    {
      "midi": 69,
      "time": 6.6,
      "duration": 0.3,
      "velocity": 1,
      "hand": "right"
    },
    {
      "midi": 72,
      "time": 6.9,
      "duration": 0.3,
      "velocity": 1,
      "hand": "right"
    },
    {
      "midi": 71,
      "time": 7.2,
      "duration": 0.3,
      "velocity": 1,
      "hand": "right"
    },
    {
      "midi": 69,
      "time": 7.5,
      "duration": 0.3,
      "velocity": 1,
      "hand": "right"
    },
    {
      "midi": 67,
      "time": 7.8,
      "duration": 0.3,
      "velocity": 1,
      "hand": "right"
    },
    {
      "midi": 65,
      "time": 8.1,
      "duration": 0.3,
      "velocity": 1,
      "hand": "right"
    },
    {
      "midi": 64,
      "time": 8.4,
      "duration": 0.3,
      "velocity": 1,
      "hand": "right"
    },
    {
      "midi": 62,
      "time": 8.7,
      "duration": 0.3,
      "velocity": 1,
      "hand": "right"
    },
    {
      "midi": 60,
      "time": 9,
      "duration": 0.45,
      "velocity": 1,
      "hand": "right"
    },
    {
      "midi": 64,
      "time": 9.9,
      "duration": 0.2,
      "velocity": 1,
      "hand": "right"
    },
    {
      "midi": 65,
      "time": 10.05,
      "duration": 0.2,
      "velocity": 1,
      "hand": "right"
    },
    {
      "midi": 67,
      "time": 10.2,
      "duration": 0.3,
      "velocity": 1,
      "hand": "right"
    },
    {
      "midi": 67,
      "time": 10.5,
      "duration": 0.2,
      "velocity": 1,
      "hand": "right"
    },
    {
      "midi": 67,
      "time": 10.65,
      "duration": 0.2,
      "velocity": 1,
      "hand": "right"
    },
    {
      "midi": 67,
      "time": 10.8,
      "duration": 0.45,
      "velocity": 1,
      "hand": "right"
    },
    {
      "midi": 64,
      "time": 11.1,
      "duration": 0.3,
      "velocity": 1,
      "hand": "right"
    },
    {
      "midi": 69,
      "time": 11.4,
      "duration": 0.3,
      "velocity": 1,
      "hand": "right"
    },
    {
      "midi": 69,
      "time": 11.7,
      "duration": 0.3,
      "velocity": 1,
      "hand": "right"
    },
    {
      "midi": 65,
      "time": 12,
      "duration": 0.45,
      "velocity": 1,
      "hand": "right"
    },
    {
      "midi": 62,
      "time": 12.3,
      "duration": 0.2,
      "velocity": 1,
      "hand": "right"
    },
    {
      "midi": 64,
      "time": 12.45,
      "duration": 0.2,
      "velocity": 1,
      "hand": "right"
    },
    {
      "midi": 65,
      "time": 12.6,
      "duration": 0.3,
      "velocity": 1,
      "hand": "right"
    },
    {
      "midi": 65,
      "time": 12.9,
      "duration": 0.2,
      "velocity": 1,
      "hand": "right"
    },
    {
      "midi": 65,
      "time": 13.05,
      "duration": 0.2,
      "velocity": 1,
      "hand": "right"
    },
    {
      "midi": 62,
      "time": 13.5,
      "duration": 0.3,
      "velocity": 1,
      "hand": "right"
    },
    {
      "midi": 67,
      "time": 13.8,
      "duration": 0.75,
      "velocity": 1,
      "hand": "right"
    },
    {
      "midi": 64,
      "time": 14.4,
      "duration": 0.45,
      "velocity": 1,
      "hand": "right"
    },
    {
      "midi": 64,
      "time": 14.7,
      "duration": 0.2,
      "velocity": 1,
      "hand": "right"
    },
    {
      "midi": 65,
      "time": 14.85,
      "duration": 0.2,
      "velocity": 1,
      "hand": "right"
    },
    {
      "midi": 67,
      "time": 15,
      "duration": 0.3,
      "velocity": 1,
      "hand": "right"
    },
    {
      "midi": 67,
      "time": 15.3,
      "duration": 0.3,
      "velocity": 1,
      "hand": "right"
    },
    {
      "midi": 67,
      "time": 15.6,
      "duration": 0.45,
      "velocity": 1,
      "hand": "right"
    },
    {
      "midi": 64,
      "time": 15.9,
      "duration": 0.3,
      "velocity": 1,
      "hand": "right"
    },
    {
      "midi": 69,
      "time": 16.2,
      "duration": 0.3,
      "velocity": 1,
      "hand": "right"
    },
    {
      "midi": 72,
      "time": 16.5,
      "duration": 0.3,
      "velocity": 1,
      "hand": "right"
    },
    {
      "midi": 71,
      "time": 16.8,
      "duration": 0.3,
      "velocity": 1,
      "hand": "right"
    },
    {
      "midi": 69,
      "time": 17.1,
      "duration": 0.3,
      "velocity": 1,
      "hand": "right"
    },
    {
      "midi": 67,
      "time": 17.4,
      "duration": 0.3,
      "velocity": 1,
      "hand": "right"
    },
    {
      "midi": 65,
      "time": 17.7,
      "duration": 0.3,
      "velocity": 1,
      "hand": "right"
    },
    {
      "midi": 64,
      "time": 18,
      "duration": 0.3,
      "velocity": 1,
      "hand": "right"
    },
    {
      "midi": 62,
      "time": 18.3,
      "duration": 0.3,
      "velocity": 1,
      "hand": "right"
    },
    {
      "midi": 60,
      "time": 18.6,
      "duration": 0.45,
      "velocity": 1,
      "hand": "right"
    }
  ],
  "notes2Hands": [
    {
      "midi": 64,
      "time": 0.3,
      "duration": 0.15,
      "velocity": 1,
      "hand": "right"
    },
    {
      "midi": 65,
      "time": 0.45,
      "duration": 0.15,
      "velocity": 1,
      "hand": "right"
    },
    {
      "midi": 48,
      "time": 0.6,
      "duration": 1.05,
      "velocity": 1,
      "hand": "left"
    },
    {
      "midi": 55,
      "time": 0.6,
      "duration": 0.45,
      "velocity": 0.91,
      "hand": "left"
    },
    {
      "midi": 67,
      "time": 0.6,
      "duration": 0.3,
      "velocity": 1,
      "hand": "right"
    },
    {
      "midi": 67,
      "time": 0.9,
      "duration": 0.15,
      "velocity": 1,
      "hand": "right"
    },
    {
      "midi": 67,
      "time": 1.05,
      "duration": 0.15,
      "velocity": 1,
      "hand": "right"
    },
    {
      "midi": 57,
      "time": 1.2,
      "duration": 0.3,
      "velocity": 0.91,
      "hand": "left"
    },
    {
      "midi": 60,
      "time": 1.2,
      "duration": 0.45,
      "velocity": 1,
      "hand": "right"
    },
    {
      "midi": 65,
      "time": 1.2,
      "duration": 0.3,
      "velocity": 1,
      "hand": "right"
    },
    {
      "midi": 67,
      "time": 1.2,
      "duration": 0.45,
      "velocity": 1,
      "hand": "right"
    },
    {
      "midi": 55,
      "time": 1.5,
      "duration": 0.3,
      "velocity": 0.91,
      "hand": "left"
    },
    {
      "midi": 64,
      "time": 1.5,
      "duration": 0.3,
      "velocity": 1,
      "hand": "right"
    },
    {
      "midi": 48,
      "time": 1.8,
      "duration": 1.05,
      "velocity": 1,
      "hand": "left"
    },
    {
      "midi": 53,
      "time": 1.8,
      "duration": 0.45,
      "velocity": 0.91,
      "hand": "left"
    },
    {
      "midi": 69,
      "time": 1.8,
      "duration": 0.3,
      "velocity": 1,
      "hand": "right"
    },
    {
      "midi": 69,
      "time": 2.1,
      "duration": 0.3,
      "velocity": 1,
      "hand": "right"
    },
    {
      "midi": 55,
      "time": 2.4,
      "duration": 0.3,
      "velocity": 0.91,
      "hand": "left"
    },
    {
      "midi": 62,
      "time": 2.4,
      "duration": 0.45,
      "velocity": 1,
      "hand": "right"
    },
    {
      "midi": 65,
      "time": 2.4,
      "duration": 0.45,
      "velocity": 1,
      "hand": "right"
    },
    {
      "midi": 57,
      "time": 2.7,
      "duration": 0.3,
      "velocity": 0.91,
      "hand": "left"
    },
    {
      "midi": 62,
      "time": 2.7,
      "duration": 0.15,
      "velocity": 1,
      "hand": "right"
    },
    {
      "midi": 64,
      "time": 2.85,
      "duration": 0.15,
      "velocity": 1,
      "hand": "right"
    },
    {
      "midi": 43,
      "time": 3,
      "duration": 1.05,
      "velocity": 1,
      "hand": "left"
    },
    {
      "midi": 59,
      "time": 3,
      "duration": 0.45,
      "velocity": 0.91,
      "hand": "left"
    },
    {
      "midi": 65,
      "time": 3,
      "duration": 0.3,
      "velocity": 1,
      "hand": "right"
    },
    {
      "midi": 65,
      "time": 3.3,
      "duration": 0.15,
      "velocity": 1,
      "hand": "right"
    },
    {
      "midi": 65,
      "time": 3.45,
      "duration": 0.15,
      "velocity": 1,
      "hand": "right"
    },
    {
      "midi": 55,
      "time": 3.6,
      "duration": 0.3,
      "velocity": 0.91,
      "hand": "left"
    },
    {
      "midi": 59,
      "time": 3.6,
      "duration": 0.45,
      "velocity": 1,
      "hand": "left"
    },
    {
      "midi": 64,
      "time": 3.6,
      "duration": 0.3,
      "velocity": 1,
      "hand": "right"
    },
    {
      "midi": 65,
      "time": 3.6,
      "duration": 0.45,
      "velocity": 1,
      "hand": "right"
    },
    {
      "midi": 53,
      "time": 3.9,
      "duration": 0.3,
      "velocity": 0.91,
      "hand": "left"
    },
    {
      "midi": 62,
      "time": 3.9,
      "duration": 0.3,
      "velocity": 1,
      "hand": "right"
    },
    {
      "midi": 48,
      "time": 4.2,
      "duration": 1.05,
      "velocity": 1,
      "hand": "left"
    },
    {
      "midi": 52,
      "time": 4.2,
      "duration": 0.45,
      "velocity": 0.91,
      "hand": "left"
    },
    {
      "midi": 67,
      "time": 4.2,
      "duration": 0.75,
      "velocity": 1,
      "hand": "right"
    },
    {
      "midi": 60,
      "time": 4.8,
      "duration": 0.3,
      "velocity": 0.91,
      "hand": "right"
    },
    {
      "midi": 60,
      "time": 4.8,
      "duration": 0.45,
      "velocity": 1,
      "hand": "right"
    },
    {
      "midi": 64,
      "time": 4.8,
      "duration": 0.45,
      "velocity": 1,
      "hand": "right"
    },
    {
      "midi": 57,
      "time": 5.1,
      "duration": 0.3,
      "velocity": 0.91,
      "hand": "left"
    },
    {
      "midi": 64,
      "time": 5.1,
      "duration": 0.15,
      "velocity": 1,
      "hand": "right"
    },
    {
      "midi": 65,
      "time": 5.25,
      "duration": 0.15,
      "velocity": 1,
      "hand": "right"
    },
    {
      "midi": 48,
      "time": 5.4,
      "duration": 1.05,
      "velocity": 1,
      "hand": "left"
    },
    {
      "midi": 55,
      "time": 5.4,
      "duration": 0.45,
      "velocity": 0.91,
      "hand": "left"
    },
    {
      "midi": 67,
      "time": 5.4,
      "duration": 0.3,
      "velocity": 1,
      "hand": "right"
    },
    {
      "midi": 67,
      "time": 5.7,
      "duration": 0.3,
      "velocity": 1,
      "hand": "right"
    },
    {
      "midi": 57,
      "time": 6,
      "duration": 0.3,
      "velocity": 0.91,
      "hand": "left"
    },
    {
      "midi": 60,
      "time": 6,
      "duration": 0.45,
      "velocity": 1,
      "hand": "right"
    },
    {
      "midi": 65,
      "time": 6,
      "duration": 0.3,
      "velocity": 1,
      "hand": "right"
    },
    {
      "midi": 67,
      "time": 6,
      "duration": 0.45,
      "velocity": 1,
      "hand": "right"
    },
    {
      "midi": 55,
      "time": 6.3,
      "duration": 0.3,
      "velocity": 0.91,
      "hand": "left"
    },
    {
      "midi": 64,
      "time": 6.3,
      "duration": 0.3,
      "velocity": 1,
      "hand": "right"
    },
    {
      "midi": 48,
      "time": 6.6,
      "duration": 1.05,
      "velocity": 1,
      "hand": "left"
    },
    {
      "midi": 53,
      "time": 6.6,
      "duration": 0.45,
      "velocity": 0.91,
      "hand": "left"
    },
    {
      "midi": 69,
      "time": 6.6,
      "duration": 0.3,
      "velocity": 1,
      "hand": "right"
    },
    {
      "midi": 72,
      "time": 6.9,
      "duration": 0.3,
      "velocity": 1,
      "hand": "right"
    },
    {
      "midi": 55,
      "time": 7.2,
      "duration": 0.3,
      "velocity": 0.91,
      "hand": "left"
    },
    {
      "midi": 62,
      "time": 7.2,
      "duration": 0.45,
      "velocity": 1,
      "hand": "right"
    },
    {
      "midi": 65,
      "time": 7.2,
      "duration": 0.45,
      "velocity": 1,
      "hand": "right"
    },
    {
      "midi": 71,
      "time": 7.2,
      "duration": 0.3,
      "velocity": 1,
      "hand": "right"
    },
    {
      "midi": 57,
      "time": 7.5,
      "duration": 0.3,
      "velocity": 0.91,
      "hand": "left"
    },
    {
      "midi": 69,
      "time": 7.5,
      "duration": 0.3,
      "velocity": 1,
      "hand": "right"
    },
    {
      "midi": 43,
      "time": 7.8,
      "duration": 1.05,
      "velocity": 1,
      "hand": "left"
    },
    {
      "midi": 59,
      "time": 7.8,
      "duration": 0.3,
      "velocity": 0.91,
      "hand": "left"
    },
    {
      "midi": 67,
      "time": 7.8,
      "duration": 0.3,
      "velocity": 1,
      "hand": "right"
    },
    {
      "midi": 55,
      "time": 8.1,
      "duration": 0.3,
      "velocity": 0.91,
      "hand": "left"
    },
    {
      "midi": 65,
      "time": 8.1,
      "duration": 0.3,
      "velocity": 1,
      "hand": "right"
    },
    {
      "midi": 54,
      "time": 8.4,
      "duration": 0.3,
      "velocity": 0.91,
      "hand": "left"
    },
    {
      "midi": 55,
      "time": 8.4,
      "duration": 0.45,
      "velocity": 1,
      "hand": "left"
    },
    {
      "midi": 59,
      "time": 8.4,
      "duration": 0.45,
      "velocity": 1,
      "hand": "left"
    },
    {
      "midi": 64,
      "time": 8.4,
      "duration": 0.3,
      "velocity": 1,
      "hand": "right"
    },
    {
      "midi": 53,
      "time": 8.7,
      "duration": 0.3,
      "velocity": 0.91,
      "hand": "left"
    },
    {
      "midi": 62,
      "time": 8.7,
      "duration": 0.3,
      "velocity": 1,
      "hand": "right"
    },
    {
      "midi": 48,
      "time": 9,
      "duration": 0.45,
      "velocity": 1,
      "hand": "left"
    },
    {
      "midi": 52,
      "time": 9,
      "duration": 0.45,
      "velocity": 0.91,
      "hand": "left"
    },
    {
      "midi": 55,
      "time": 9,
      "duration": 0.45,
      "velocity": 1,
      "hand": "left"
    },
    {
      "midi": 60,
      "time": 9,
      "duration": 0.45,
      "velocity": 1,
      "hand": "right"
    },
    {
      "midi": 64,
      "time": 9.9,
      "duration": 0.15,
      "velocity": 1,
      "hand": "right"
    },
    {
      "midi": 65,
      "time": 10.05,
      "duration": 0.15,
      "velocity": 1,
      "hand": "right"
    },
    {
      "midi": 48,
      "time": 10.2,
      "duration": 1.05,
      "velocity": 1,
      "hand": "left"
    },
    {
      "midi": 55,
      "time": 10.2,
      "duration": 0.45,
      "velocity": 0.91,
      "hand": "left"
    },
    {
      "midi": 67,
      "time": 10.2,
      "duration": 0.3,
      "velocity": 1,
      "hand": "right"
    },
    {
      "midi": 67,
      "time": 10.5,
      "duration": 0.15,
      "velocity": 1,
      "hand": "right"
    },
    {
      "midi": 67,
      "time": 10.65,
      "duration": 0.15,
      "velocity": 1,
      "hand": "right"
    },
    {
      "midi": 57,
      "time": 10.8,
      "duration": 0.3,
      "velocity": 0.91,
      "hand": "left"
    },
    {
      "midi": 60,
      "time": 10.8,
      "duration": 0.45,
      "velocity": 1,
      "hand": "right"
    },
    {
      "midi": 65,
      "time": 10.8,
      "duration": 0.3,
      "velocity": 1,
      "hand": "right"
    },
    {
      "midi": 67,
      "time": 10.8,
      "duration": 0.45,
      "velocity": 1,
      "hand": "right"
    },
    {
      "midi": 55,
      "time": 11.1,
      "duration": 0.3,
      "velocity": 0.91,
      "hand": "left"
    },
    {
      "midi": 64,
      "time": 11.1,
      "duration": 0.3,
      "velocity": 1,
      "hand": "right"
    },
    {
      "midi": 48,
      "time": 11.4,
      "duration": 1.05,
      "velocity": 1,
      "hand": "left"
    },
    {
      "midi": 53,
      "time": 11.4,
      "duration": 0.45,
      "velocity": 0.91,
      "hand": "left"
    },
    {
      "midi": 69,
      "time": 11.4,
      "duration": 0.3,
      "velocity": 1,
      "hand": "right"
    },
    {
      "midi": 69,
      "time": 11.7,
      "duration": 0.3,
      "velocity": 1,
      "hand": "right"
    },
    {
      "midi": 55,
      "time": 12,
      "duration": 0.3,
      "velocity": 0.91,
      "hand": "left"
    },
    {
      "midi": 62,
      "time": 12,
      "duration": 0.45,
      "velocity": 1,
      "hand": "right"
    },
    {
      "midi": 65,
      "time": 12,
      "duration": 0.45,
      "velocity": 1,
      "hand": "right"
    },
    {
      "midi": 57,
      "time": 12.3,
      "duration": 0.3,
      "velocity": 0.91,
      "hand": "left"
    },
    {
      "midi": 62,
      "time": 12.3,
      "duration": 0.15,
      "velocity": 1,
      "hand": "right"
    },
    {
      "midi": 64,
      "time": 12.45,
      "duration": 0.15,
      "velocity": 1,
      "hand": "right"
    },
    {
      "midi": 43,
      "time": 12.6,
      "duration": 1.05,
      "velocity": 1,
      "hand": "left"
    },
    {
      "midi": 59,
      "time": 12.6,
      "duration": 0.45,
      "velocity": 0.91,
      "hand": "left"
    },
    {
      "midi": 65,
      "time": 12.6,
      "duration": 0.3,
      "velocity": 1,
      "hand": "right"
    },
    {
      "midi": 65,
      "time": 12.9,
      "duration": 0.15,
      "velocity": 1,
      "hand": "right"
    },
    {
      "midi": 65,
      "time": 13.05,
      "duration": 0.15,
      "velocity": 1,
      "hand": "right"
    },
    {
      "midi": 55,
      "time": 13.2,
      "duration": 0.3,
      "velocity": 0.91,
      "hand": "left"
    },
    {
      "midi": 59,
      "time": 13.2,
      "duration": 0.45,
      "velocity": 1,
      "hand": "left"
    },
    {
      "midi": 64,
      "time": 13.2,
      "duration": 0.3,
      "velocity": 1,
      "hand": "right"
    },
    {
      "midi": 65,
      "time": 13.2,
      "duration": 0.45,
      "velocity": 1,
      "hand": "right"
    },
    {
      "midi": 53,
      "time": 13.5,
      "duration": 0.3,
      "velocity": 0.91,
      "hand": "left"
    },
    {
      "midi": 62,
      "time": 13.5,
      "duration": 0.3,
      "velocity": 1,
      "hand": "right"
    },
    {
      "midi": 48,
      "time": 13.8,
      "duration": 1.05,
      "velocity": 1,
      "hand": "left"
    },
    {
      "midi": 52,
      "time": 13.8,
      "duration": 0.45,
      "velocity": 0.91,
      "hand": "left"
    },
    {
      "midi": 67,
      "time": 13.8,
      "duration": 0.75,
      "velocity": 1,
      "hand": "right"
    },
    {
      "midi": 60,
      "time": 14.4,
      "duration": 0.3,
      "velocity": 0.91,
      "hand": "right"
    },
    {
      "midi": 60,
      "time": 14.4,
      "duration": 0.45,
      "velocity": 1,
      "hand": "right"
    },
    {
      "midi": 64,
      "time": 14.4,
      "duration": 0.45,
      "velocity": 1,
      "hand": "right"
    },
    {
      "midi": 57,
      "time": 14.7,
      "duration": 0.3,
      "velocity": 0.91,
      "hand": "left"
    },
    {
      "midi": 64,
      "time": 14.7,
      "duration": 0.15,
      "velocity": 1,
      "hand": "right"
    },
    {
      "midi": 65,
      "time": 14.85,
      "duration": 0.15,
      "velocity": 1,
      "hand": "right"
    },
    {
      "midi": 48,
      "time": 15,
      "duration": 1.05,
      "velocity": 1,
      "hand": "left"
    },
    {
      "midi": 55,
      "time": 15,
      "duration": 0.45,
      "velocity": 0.91,
      "hand": "left"
    },
    {
      "midi": 67,
      "time": 15,
      "duration": 0.3,
      "velocity": 1,
      "hand": "right"
    },
    {
      "midi": 67,
      "time": 15.3,
      "duration": 0.3,
      "velocity": 1,
      "hand": "right"
    },
    {
      "midi": 57,
      "time": 15.6,
      "duration": 0.3,
      "velocity": 0.91,
      "hand": "left"
    },
    {
      "midi": 60,
      "time": 15.6,
      "duration": 0.45,
      "velocity": 1,
      "hand": "right"
    },
    {
      "midi": 65,
      "time": 15.6,
      "duration": 0.3,
      "velocity": 1,
      "hand": "right"
    },
    {
      "midi": 67,
      "time": 15.6,
      "duration": 0.45,
      "velocity": 1,
      "hand": "right"
    },
    {
      "midi": 55,
      "time": 15.9,
      "duration": 0.3,
      "velocity": 0.91,
      "hand": "left"
    },
    {
      "midi": 64,
      "time": 15.9,
      "duration": 0.3,
      "velocity": 1,
      "hand": "right"
    },
    {
      "midi": 48,
      "time": 16.2,
      "duration": 1.05,
      "velocity": 1,
      "hand": "left"
    },
    {
      "midi": 53,
      "time": 16.2,
      "duration": 0.45,
      "velocity": 0.91,
      "hand": "left"
    },
    {
      "midi": 69,
      "time": 16.2,
      "duration": 0.3,
      "velocity": 1,
      "hand": "right"
    },
    {
      "midi": 72,
      "time": 16.5,
      "duration": 0.3,
      "velocity": 1,
      "hand": "right"
    },
    {
      "midi": 55,
      "time": 16.8,
      "duration": 0.3,
      "velocity": 0.91,
      "hand": "left"
    },
    {
      "midi": 62,
      "time": 16.8,
      "duration": 0.45,
      "velocity": 1,
      "hand": "right"
    },
    {
      "midi": 65,
      "time": 16.8,
      "duration": 0.45,
      "velocity": 1,
      "hand": "right"
    },
    {
      "midi": 71,
      "time": 16.8,
      "duration": 0.3,
      "velocity": 1,
      "hand": "right"
    },
    {
      "midi": 57,
      "time": 17.1,
      "duration": 0.3,
      "velocity": 0.91,
      "hand": "left"
    },
    {
      "midi": 69,
      "time": 17.1,
      "duration": 0.3,
      "velocity": 1,
      "hand": "right"
    },
    {
      "midi": 43,
      "time": 17.4,
      "duration": 1.05,
      "velocity": 1,
      "hand": "left"
    },
    {
      "midi": 59,
      "time": 17.4,
      "duration": 0.3,
      "velocity": 0.91,
      "hand": "left"
    },
    {
      "midi": 67,
      "time": 17.4,
      "duration": 0.3,
      "velocity": 1,
      "hand": "right"
    },
    {
      "midi": 55,
      "time": 17.7,
      "duration": 0.3,
      "velocity": 0.91,
      "hand": "left"
    },
    {
      "midi": 65,
      "time": 17.7,
      "duration": 0.3,
      "velocity": 1,
      "hand": "right"
    },
    {
      "midi": 54,
      "time": 18,
      "duration": 0.3,
      "velocity": 0.91,
      "hand": "left"
    },
    {
      "midi": 55,
      "time": 18,
      "duration": 0.45,
      "velocity": 1,
      "hand": "left"
    },
    {
      "midi": 59,
      "time": 18,
      "duration": 0.45,
      "velocity": 1,
      "hand": "left"
    },
    {
      "midi": 64,
      "time": 18,
      "duration": 0.3,
      "velocity": 1,
      "hand": "right"
    },
    {
      "midi": 53,
      "time": 18.3,
      "duration": 0.3,
      "velocity": 0.91,
      "hand": "left"
    },
    {
      "midi": 62,
      "time": 18.3,
      "duration": 0.3,
      "velocity": 1,
      "hand": "right"
    },
    {
      "midi": 48,
      "time": 18.6,
      "duration": 0.45,
      "velocity": 1,
      "hand": "left"
    },
    {
      "midi": 52,
      "time": 18.6,
      "duration": 0.45,
      "velocity": 0.91,
      "hand": "left"
    },
    {
      "midi": 55,
      "time": 18.6,
      "duration": 0.45,
      "velocity": 1,
      "hand": "left"
    },
    {
      "midi": 60,
      "time": 18.6,
      "duration": 0.45,
      "velocity": 1,
      "hand": "right"
    }
  ]
}
