{
  "id": "preludio-n-6-chopin",
  "title": "Prelúdio nº 6",
  "artist": "Frédéric Chopin",
  "difficulty": "Médio",
  "bpm": 45,
  "duration": 101,
  "category": "Clássicos",
  "isPremium": true,
  "coverUrl": "/images/covers/placeholder.png",
  "notes": [
    {
      "midi": 47,
      "time": 0,
      "duration": 0.333,
      "velocity": 0.54,
      "hand": "left"
    },
    {
      "midi": 62,
      "time": 0,
      "duration": 1.333,
      "velocity": 0.71,
      "hand": "right"
    },
    {
      "midi": 66,
      "time": 0,
      "duration": 1.333,
      "velocity": 0.71,
      "hand": "right"
    },
    {
      "midi": 71,
      "time": 0,
      "duration": 0.667,
      "velocity": 0.71,
      "hand": "right"
    },
    {
      "midi": 50,
      "time": 0.333,
      "duration": 0.333,
      "velocity": 0.6,
      "hand": "left"
    },
    {
      "midi": 54,
      "time": 0.667,
      "duration": 0.333,
      "velocity": 0.66,
      "hand": "left"
    },
    {
      "midi": 71,
      "time": 0.667,
      "duration": 0.667,
      "velocity": 0.71,
      "hand": "right"
    },
    {
      "midi": 59,
      "time": 1,
      "duration": 0.333,
      "velocity": 0.72,
      "hand": "left"
    },
    {
      "midi": 62,
      "time": 1.333,
      "duration": 1.333,
      "velocity": 0.77,
      "hand": "right"
    },
    {
      "midi": 66,
      "time": 1.333,
      "duration": 1.333,
      "velocity": 0.71,
      "hand": "right"
    },
    {
      "midi": 71,
      "time": 1.333,
      "duration": 0.667,
      "velocity": 0.71,
      "hand": "right"
    },
    {
      "midi": 71,
      "time": 2,
      "duration": 0.667,
      "velocity": 0.71,
      "hand": "right"
    },
    {
      "midi": 61,
      "time": 2.667,
      "duration": 1,
      "velocity": 0.77,
      "hand": "right"
    },
    {
      "midi": 66,
      "time": 2.667,
      "duration": 1.333,
      "velocity": 0.71,
      "hand": "right"
    },
    {
      "midi": 71,
      "time": 2.667,
      "duration": 0.667,
      "velocity": 0.71,
      "hand": "right"
    },
    {
      "midi": 71,
      "time": 3.333,
      "duration": 0.667,
      "velocity": 0.71,
      "hand": "right"
    },
    {
      "midi": 62,
      "time": 3.667,
      "duration": 0.333,
      "velocity": 0.77,
      "hand": "right"
    },
    {
      "midi": 59,
      "time": 4,
      "duration": 2,
      "velocity": 0.77,
      "hand": "left"
    },
    {
      "midi": 62,
      "time": 4,
      "duration": 1.333,
      "velocity": 0.71,
      "hand": "right"
    },
    {
      "midi": 66,
      "time": 4,
      "duration": 1.333,
      "velocity": 0.71,
      "hand": "right"
    },
    {
      "midi": 71,
      "time": 4,
      "duration": 0.667,
      "velocity": 0.71,
      "hand": "right"
    },
    {
      "midi": 71,
      "time": 4.667,
      "duration": 0.667,
      "velocity": 0.71,
      "hand": "right"
    },
    {
      "midi": 62,
      "time": 5.333,
      "duration": 1.333,
      "velocity": 0.71,
      "hand": "right"
    },
    {
      "midi": 66,
      "time": 5.333,
      "duration": 1.333,
      "velocity": 0.71,
      "hand": "right"
    },
    {
      "midi": 71,
      "time": 5.333,
      "duration": 0.667,
      "velocity": 0.71,
      "hand": "right"
    },
    {
      "midi": 54,
      "time": 6,
      "duration": 0.667,
      "velocity": 0.64,
      "hand": "left"
    },
    {
      "midi": 71,
      "time": 6,
      "duration": 0.667,
      "velocity": 0.71,
      "hand": "right"
    },
    {
      "midi": 50,
      "time": 6.667,
      "duration": 0.667,
      "velocity": 0.59,
      "hand": "left"
    },
    {
      "midi": 62,
      "time": 6.667,
      "duration": 1.333,
      "velocity": 0.71,
      "hand": "right"
    },
    {
      "midi": 66,
      "time": 6.667,
      "duration": 1.333,
      "velocity": 0.71,
      "hand": "right"
    },
    {
      "midi": 71,
      "time": 6.667,
      "duration": 0.667,
      "velocity": 0.71,
      "hand": "right"
    },
    {
      "midi": 49,
      "time": 7.333,
      "duration": 0.667,
      "velocity": 0.54,
      "hand": "left"
    },
    {
      "midi": 71,
      "time": 7.333,
      "duration": 0.667,
      "velocity": 0.71,
      "hand": "right"
    },
    {
      "midi": 47,
      "time": 8,
      "duration": 0.333,
      "velocity": 0.54,
      "hand": "left"
    },
    {
      "midi": 62,
      "time": 8,
      "duration": 1.333,
      "velocity": 0.71,
      "hand": "right"
    },
    {
      "midi": 66,
      "time": 8,
      "duration": 1.333,
      "velocity": 0.71,
      "hand": "right"
    },
    {
      "midi": 71,
      "time": 8,
      "duration": 0.667,
      "velocity": 0.71,
      "hand": "right"
    },
    {
      "midi": 54,
      "time": 8.333,
      "duration": 0.333,
      "velocity": 0.6,
      "hand": "left"
    },
    {
      "midi": 59,
      "time": 8.667,
      "duration": 0.333,
      "velocity": 0.66,
      "hand": "left"
    },
    {
      "midi": 71,
      "time": 8.667,
      "duration": 0.667,
      "velocity": 0.71,
      "hand": "right"
    },
    {
      "midi": 62,
      "time": 9,
      "duration": 0.333,
      "velocity": 0.72,
      "hand": "right"
    },
    {
      "midi": 66,
      "time": 9.333,
      "duration": 1.333,
      "velocity": 0.77,
      "hand": "right"
    },
    {
      "midi": 71,
      "time": 9.333,
      "duration": 1.333,
      "velocity": 0.71,
      "hand": "right"
    },
    {
      "midi": 74,
      "time": 9.333,
      "duration": 0.667,
      "velocity": 0.71,
      "hand": "right"
    },
    {
      "midi": 74,
      "time": 10,
      "duration": 0.667,
      "velocity": 0.71,
      "hand": "right"
    },
    {
      "midi": 64,
      "time": 10.667,
      "duration": 1,
      "velocity": 0.77,
      "hand": "right"
    },
    {
      "midi": 71,
      "time": 10.667,
      "duration": 1.333,
      "velocity": 0.71,
      "hand": "right"
    },
    {
      "midi": 74,
      "time": 10.667,
      "duration": 0.667,
      "velocity": 0.71,
      "hand": "right"
    },
    {
      "midi": 74,
      "time": 11.333,
      "duration": 0.667,
      "velocity": 0.71,
      "hand": "right"
    },
    {
      "midi": 66,
      "time": 11.667,
      "duration": 0.333,
      "velocity": 0.77,
      "hand": "right"
    },
    {
      "midi": 62,
      "time": 12,
      "duration": 2,
      "velocity": 0.77,
      "hand": "right"
    },
    {
      "midi": 66,
      "time": 12,
      "duration": 1.333,
      "velocity": 0.71,
      "hand": "right"
    },
    {
      "midi": 71,
      "time": 12,
      "duration": 1.333,
      "velocity": 0.71,
      "hand": "right"
    },
    {
      "midi": 74,
      "time": 12,
      "duration": 0.667,
      "velocity": 0.71,
      "hand": "right"
    },
    {
      "midi": 74,
      "time": 12.667,
      "duration": 0.667,
      "velocity": 0.71,
      "hand": "right"
    },
    {
      "midi": 66,
      "time": 13.333,
      "duration": 1.333,
      "velocity": 0.71,
      "hand": "right"
    },
    {
      "midi": 71,
      "time": 13.333,
      "duration": 1.333,
      "velocity": 0.71,
      "hand": "right"
    },
    {
      "midi": 74,
      "time": 13.333,
      "duration": 0.667,
      "velocity": 0.71,
      "hand": "right"
    },
    {
      "midi": 59,
      "time": 14,
      "duration": 0.667,
      "velocity": 0.64,
      "hand": "left"
    },
    {
      "midi": 74,
      "time": 14,
      "duration": 0.667,
      "velocity": 0.71,
      "hand": "right"
    },
    {
      "midi": 54,
      "time": 14.667,
      "duration": 0.667,
      "velocity": 0.59,
      "hand": "left"
    },
    {
      "midi": 66,
      "time": 14.667,
      "duration": 1.333,
      "velocity": 0.71,
      "hand": "right"
    },
    {
      "midi": 71,
      "time": 14.667,
      "duration": 1.333,
      "velocity": 0.71,
      "hand": "right"
    },
    {
      "midi": 74,
      "time": 14.667,
      "duration": 0.667,
      "velocity": 0.71,
      "hand": "right"
    },
    {
      "midi": 50,
      "time": 15.333,
      "duration": 0.667,
      "velocity": 0.54,
      "hand": "left"
    },
    {
      "midi": 74,
      "time": 15.333,
      "duration": 0.667,
      "velocity": 0.71,
      "hand": "right"
    },
    {
      "midi": 43,
      "time": 16,
      "duration": 0.333,
      "velocity": 0.54,
      "hand": "left"
    },
    {
      "midi": 67,
      "time": 16,
      "duration": 1.333,
      "velocity": 0.71,
      "hand": "right"
    },
    {
      "midi": 71,
      "time": 16,
      "duration": 1.333,
      "velocity": 0.71,
      "hand": "right"
    },
    {
      "midi": 74,
      "time": 16,
      "duration": 0.667,
      "velocity": 0.71,
      "hand": "right"
    },
    {
      "midi": 50,
      "time": 16.333,
      "duration": 0.333,
      "velocity": 0.6,
      "hand": "left"
    },
    {
      "midi": 59,
      "time": 16.667,
      "duration": 0.333,
      "velocity": 0.66,
      "hand": "left"
    },
    {
      "midi": 74,
      "time": 16.667,
      "duration": 0.667,
      "velocity": 0.71,
      "hand": "right"
    },
    {
      "midi": 62,
      "time": 17,
      "duration": 0.333,
      "velocity": 0.72,
      "hand": "right"
    },
    {
      "midi": 67,
      "time": 17.333,
      "duration": 1.333,
      "velocity": 0.77,
      "hand": "right"
    },
    {
      "midi": 71,
      "time": 17.333,
      "duration": 1.333,
      "velocity": 0.71,
      "hand": "right"
    },
    {
      "midi": 74,
      "time": 17.333,
      "duration": 0.667,
      "velocity": 0.71,
      "hand": "right"
    },
    {
      "midi": 74,
      "time": 18,
      "duration": 0.667,
      "velocity": 0.71,
      "hand": "right"
    },
    {
      "midi": 66,
      "time": 18.667,
      "duration": 1.333,
      "velocity": 0.77,
      "hand": "right"
    },
    {
      "midi": 71,
      "time": 18.667,
      "duration": 1.333,
      "velocity": 0.71,
      "hand": "right"
    },
    {
      "midi": 74,
      "time": 18.667,
      "duration": 0.667,
      "velocity": 0.71,
      "hand": "right"
    },
    {
      "midi": 74,
      "time": 19.333,
      "duration": 0.667,
      "velocity": 0.71,
      "hand": "right"
    },
    {
      "midi": 66,
      "time": 20,
      "duration": 1.333,
      "velocity": 0.77,
      "hand": "right"
    },
    {
      "midi": 68,
      "time": 20,
      "duration": 1.333,
      "velocity": 0.71,
      "hand": "right"
    },
    {
      "midi": 71,
      "time": 20,
      "duration": 1.333,
      "velocity": 0.71,
      "hand": "right"
    },
    {
      "midi": 74,
      "time": 20,
      "duration": 0.667,
      "velocity": 0.71,
      "hand": "right"
    },
    {
      "midi": 74,
      "time": 20.667,
      "duration": 0.667,
      "velocity": 0.71,
      "hand": "right"
    },
    {
      "midi": 65,
      "time": 21.333,
      "duration": 1.333,
      "velocity": 0.54,
      "hand": "right"
    },
    {
      "midi": 68,
      "time": 21.333,
      "duration": 1.333,
      "velocity": 0.71,
      "hand": "right"
    },
    {
      "midi": 71,
      "time": 21.333,
      "duration": 1.333,
      "velocity": 0.71,
      "hand": "right"
    },
    {
      "midi": 73,
      "time": 21.333,
      "duration": 0.667,
      "velocity": 0.71,
      "hand": "right"
    },
    {
      "midi": 73,
      "time": 22,
      "duration": 0.667,
      "velocity": 0.71,
      "hand": "right"
    },
    {
      "midi": 64,
      "time": 22.667,
      "duration": 0.667,
      "velocity": 0.54,
      "hand": "right"
    },
    {
      "midi": 67,
      "time": 22.667,
      "duration": 1.333,
      "velocity": 0.71,
      "hand": "right"
    },
    {
      "midi": 70,
      "time": 22.667,
      "duration": 0.667,
      "velocity": 0.71,
      "hand": "right"
    },
    {
      "midi": 73,
      "time": 22.667,
      "duration": 0.667,
      "velocity": 0.71,
      "hand": "right"
    },
    {
      "midi": 62,
      "time": 23.333,
      "duration": 0.667,
      "velocity": 0.54,
      "hand": "right"
    },
    {
      "midi": 71,
      "time": 23.333,
      "duration": 0.667,
      "velocity": 0.71,
      "hand": "right"
    },
    {
      "midi": 74,
      "time": 23.333,
      "duration": 0.667,
      "velocity": 0.71,
      "hand": "right"
    },
    {
      "midi": 61,
      "time": 24,
      "duration": 0.667,
      "velocity": 0.54,
      "hand": "right"
    },
    {
      "midi": 67,
      "time": 24,
      "duration": 0.667,
      "velocity": 0.71,
      "hand": "right"
    },
    {
      "midi": 70,
      "time": 24,
      "duration": 0.667,
      "velocity": 0.71,
      "hand": "right"
    },
    {
      "midi": 76,
      "time": 24,
      "duration": 2,
      "velocity": 0.71,
      "hand": "right"
    },
    {
      "midi": 62,
      "time": 24.667,
      "duration": 0.667,
      "velocity": 0.54,
      "hand": "right"
    },
    {
      "midi": 64,
      "time": 24.667,
      "duration": 0.167,
      "velocity": 0.54,
      "hand": "right"
    },
    {
      "midi": 67,
      "time": 24.667,
      "duration": 0.667,
      "velocity": 0.71,
      "hand": "right"
    },
    {
      "midi": 71,
      "time": 24.667,
      "duration": 0.667,
      "velocity": 0.71,
      "hand": "right"
    },
    {
      "midi": 61,
      "time": 25.333,
      "duration": 0.667,
      "velocity": 0.54,
      "hand": "right"
    },
    {
      "midi": 67,
      "time": 25.333,
      "duration": 0.667,
      "velocity": 0.71,
      "hand": "right"
    },
    {
      "midi": 70,
      "time": 25.333,
      "duration": 0.667,
      "velocity": 0.71,
      "hand": "right"
    },
    {
      "midi": 58,
      "time": 26,
      "duration": 0.667,
      "velocity": 0.54,
      "hand": "left"
    },
    {
      "midi": 66,
      "time": 26,
      "duration": 0.667,
      "velocity": 0.71,
      "hand": "right"
    },
    {
      "midi": 73,
      "time": 26,
      "duration": 0.667,
      "velocity": 0.71,
      "hand": "right"
    },
    {
      "midi": 78,
      "time": 26,
      "duration": 0.667,
      "velocity": 0.71,
      "hand": "right"
    },
    {
      "midi": 59,
      "time": 26.667,
      "duration": 0.667,
      "velocity": 0.54,
      "hand": "left"
    },
    {
      "midi": 66,
      "time": 26.667,
      "duration": 0.667,
      "velocity": 0.71,
      "hand": "right"
    },
    {
      "midi": 71,
      "time": 26.667,
      "duration": 0.667,
      "velocity": 0.71,
      "hand": "right"
    },
    {
      "midi": 76,
      "time": 26.667,
      "duration": 0.333,
      "velocity": 0.71,
      "hand": "right"
    },
    {
      "midi": 74,
      "time": 27,
      "duration": 0.333,
      "velocity": 0.71,
      "hand": "right"
    },
    {
      "midi": 50,
      "time": 27.333,
      "duration": 0.667,
      "velocity": 0.54,
      "hand": "left"
    },
    {
      "midi": 66,
      "time": 27.333,
      "duration": 0.667,
      "velocity": 0.71,
      "hand": "right"
    },
    {
      "midi": 73,
      "time": 27.333,
      "duration": 0.333,
      "velocity": 0.71,
      "hand": "right"
    },
    {
      "midi": 74,
      "time": 27.333,
      "duration": 0.167,
      "velocity": 0.71,
      "hand": "right"
    },
    {
      "midi": 71,
      "time": 27.667,
      "duration": 0.333,
      "velocity": 0.71,
      "hand": "right"
    },
    {
      "midi": 52,
      "time": 28,
      "duration": 0.667,
      "velocity": 0.54,
      "hand": "left"
    },
    {
      "midi": 61,
      "time": 28,
      "duration": 0.667,
      "velocity": 0.71,
      "hand": "right"
    },
    {
      "midi": 67,
      "time": 28,
      "duration": 0.667,
      "velocity": 0.71,
      "hand": "right"
    },
    {
      "midi": 70,
      "time": 28,
      "duration": 0.667,
      "velocity": 0.71,
      "hand": "right"
    },
    {
      "midi": 53,
      "time": 28.667,
      "duration": 0.667,
      "velocity": 0.54,
      "hand": "left"
    },
    {
      "midi": 62,
      "time": 28.667,
      "duration": 0.667,
      "velocity": 0.93,
      "hand": "right"
    },
    {
      "midi": 68,
      "time": 28.667,
      "duration": 0.667,
      "velocity": 0.93,
      "hand": "right"
    },
    {
      "midi": 71,
      "time": 28.667,
      "duration": 0.667,
      "velocity": 0.93,
      "hand": "right"
    },
    {
      "midi": 54,
      "time": 29.333,
      "duration": 1.333,
      "velocity": 0.54,
      "hand": "left"
    },
    {
      "midi": 62,
      "time": 29.333,
      "duration": 0.667,
      "velocity": 0.93,
      "hand": "right"
    },
    {
      "midi": 71,
      "time": 29.333,
      "duration": 0.667,
      "velocity": 0.93,
      "hand": "right"
    },
    {
      "midi": 74,
      "time": 29.333,
      "duration": 0.667,
      "velocity": 0.93,
      "hand": "right"
    },
    {
      "midi": 61,
      "time": 30,
      "duration": 0.667,
      "velocity": 0.71,
      "hand": "right"
    },
    {
      "midi": 70,
      "time": 30,
      "duration": 0.667,
      "velocity": 0.71,
      "hand": "right"
    },
    {
      "midi": 73,
      "time": 30,
      "duration": 0.667,
      "velocity": 0.71,
      "hand": "right"
    },
    {
      "midi": 50,
      "time": 30.667,
      "duration": 0.667,
      "velocity": 0.54,
      "hand": "left"
    },
    {
      "midi": 49,
      "time": 31.333,
      "duration": 0.667,
      "velocity": 0.54,
      "hand": "left"
    },
    {
      "midi": 47,
      "time": 32,
      "duration": 0.333,
      "velocity": 0.54,
      "hand": "left"
    },
    {
      "midi": 62,
      "time": 32,
      "duration": 1.333,
      "velocity": 0.71,
      "hand": "right"
    },
    {
      "midi": 66,
      "time": 32,
      "duration": 1.333,
      "velocity": 0.71,
      "hand": "right"
    },
    {
      "midi": 71,
      "time": 32,
      "duration": 0.667,
      "velocity": 0.71,
      "hand": "right"
    },
    {
      "midi": 50,
      "time": 32.333,
      "duration": 0.333,
      "velocity": 0.6,
      "hand": "left"
    },
    {
      "midi": 54,
      "time": 32.667,
      "duration": 0.333,
      "velocity": 0.66,
      "hand": "left"
    },
    {
      "midi": 71,
      "time": 32.667,
      "duration": 0.667,
      "velocity": 0.71,
      "hand": "right"
    },
    {
      "midi": 59,
      "time": 33,
      "duration": 0.333,
      "velocity": 0.72,
      "hand": "left"
    },
    {
      "midi": 62,
      "time": 33.333,
      "duration": 1.333,
      "velocity": 0.77,
      "hand": "right"
    },
    {
      "midi": 66,
      "time": 33.333,
      "duration": 1.333,
      "velocity": 0.71,
      "hand": "right"
    },
    {
      "midi": 71,
      "time": 33.333,
      "duration": 0.667,
      "velocity": 0.71,
      "hand": "right"
    },
    {
      "midi": 71,
      "time": 34,
      "duration": 0.667,
      "velocity": 0.71,
      "hand": "right"
    },
    {
      "midi": 61,
      "time": 34.667,
      "duration": 1,
      "velocity": 0.77,
      "hand": "right"
    },
    {
      "midi": 66,
      "time": 34.667,
      "duration": 1.333,
      "velocity": 0.71,
      "hand": "right"
    },
    {
      "midi": 71,
      "time": 34.667,
      "duration": 0.667,
      "velocity": 0.71,
      "hand": "right"
    },
    {
      "midi": 71,
      "time": 35.333,
      "duration": 0.667,
      "velocity": 0.71,
      "hand": "right"
    },
    {
      "midi": 62,
      "time": 35.667,
      "duration": 0.333,
      "velocity": 0.77,
      "hand": "right"
    },
    {
      "midi": 59,
      "time": 36,
      "duration": 2,
      "velocity": 0.77,
      "hand": "left"
    },
    {
      "midi": 62,
      "time": 36,
      "duration": 1.333,
      "velocity": 0.71,
      "hand": "right"
    },
    {
      "midi": 66,
      "time": 36,
      "duration": 1.333,
      "velocity": 0.71,
      "hand": "right"
    },
    {
      "midi": 71,
      "time": 36,
      "duration": 0.667,
      "velocity": 0.71,
      "hand": "right"
    },
    {
      "midi": 71,
      "time": 36.667,
      "duration": 0.667,
      "velocity": 0.71,
      "hand": "right"
    },
    {
      "midi": 62,
      "time": 37.333,
      "duration": 1.333,
      "velocity": 0.71,
      "hand": "right"
    },
    {
      "midi": 66,
      "time": 37.333,
      "duration": 1.333,
      "velocity": 0.71,
      "hand": "right"
    },
    {
      "midi": 71,
      "time": 37.333,
      "duration": 0.667,
      "velocity": 0.71,
      "hand": "right"
    },
    {
      "midi": 54,
      "time": 38,
      "duration": 0.667,
      "velocity": 0.64,
      "hand": "left"
    },
    {
      "midi": 71,
      "time": 38,
      "duration": 0.667,
      "velocity": 0.71,
      "hand": "right"
    },
    {
      "midi": 50,
      "time": 38.667,
      "duration": 0.667,
      "velocity": 0.59,
      "hand": "left"
    },
    {
      "midi": 62,
      "time": 38.667,
      "duration": 1.333,
      "velocity": 0.71,
      "hand": "right"
    },
    {
      "midi": 66,
      "time": 38.667,
      "duration": 1.333,
      "velocity": 0.71,
      "hand": "right"
    },
    {
      "midi": 71,
      "time": 38.667,
      "duration": 0.667,
      "velocity": 0.71,
      "hand": "right"
    },
    {
      "midi": 47,
      "time": 39.333,
      "duration": 0.667,
      "velocity": 0.54,
      "hand": "left"
    },
    {
      "midi": 71,
      "time": 39.333,
      "duration": 0.667,
      "velocity": 0.71,
      "hand": "right"
    },
    {
      "midi": 43,
      "time": 40,
      "duration": 0.333,
      "velocity": 0.54,
      "hand": "left"
    },
    {
      "midi": 62,
      "time": 40,
      "duration": 1.333,
      "velocity": 0.71,
      "hand": "right"
    },
    {
      "midi": 67,
      "time": 40,
      "duration": 1.333,
      "velocity": 0.71,
      "hand": "right"
    },
    {
      "midi": 71,
      "time": 40,
      "duration": 0.667,
      "velocity": 0.71,
      "hand": "right"
    },
    {
      "midi": 50,
      "time": 40.333,
      "duration": 0.333,
      "velocity": 0.57,
      "hand": "left"
    },
    {
      "midi": 55,
      "time": 40.667,
      "duration": 0.333,
      "velocity": 0.59,
      "hand": "left"
    },
    {
      "midi": 71,
      "time": 40.667,
      "duration": 0.667,
      "velocity": 0.71,
      "hand": "right"
    },
    {
      "midi": 59,
      "time": 41,
      "duration": 0.333,
      "velocity": 0.61,
      "hand": "left"
    },
    {
      "midi": 62,
      "time": 41.333,
      "duration": 1.333,
      "velocity": 0.64,
      "hand": "right"
    },
    {
      "midi": 67,
      "time": 41.333,
      "duration": 1.333,
      "velocity": 0.71,
      "hand": "right"
    },
    {
      "midi": 71,
      "time": 41.333,
      "duration": 0.667,
      "velocity": 0.71,
      "hand": "right"
    },
    {
      "midi": 71,
      "time": 42,
      "duration": 0.667,
      "velocity": 0.71,
      "hand": "right"
    },
    {
      "midi": 64,
      "time": 42.667,
      "duration": 0.667,
      "velocity": 0.72,
      "hand": "right"
    },
    {
      "midi": 67,
      "time": 42.667,
      "duration": 1.333,
      "velocity": 0.71,
      "hand": "right"
    },
    {
      "midi": 71,
      "time": 42.667,
      "duration": 0.667,
      "velocity": 0.71,
      "hand": "right"
    },
    {
      "midi": 65,
      "time": 43.333,
      "duration": 0.667,
      "velocity": 0.77,
      "hand": "right"
    },
    {
      "midi": 71,
      "time": 43.333,
      "duration": 0.667,
      "velocity": 0.71,
      "hand": "right"
    },
    {
      "midi": 64,
      "time": 44,
      "duration": 2,
      "velocity": 0.77,
      "hand": "right"
    },
    {
      "midi": 67,
      "time": 44,
      "duration": 1.333,
      "velocity": 0.71,
      "hand": "right"
    },
    {
      "midi": 72,
      "time": 44,
      "duration": 0.667,
      "velocity": 0.71,
      "hand": "right"
    },
    {
      "midi": 72,
      "time": 44.667,
      "duration": 0.667,
      "velocity": 0.71,
      "hand": "right"
    },
    {
      "midi": 64,
      "time": 45.333,
      "duration": 1.333,
      "velocity": 0.71,
      "hand": "right"
    },
    {
      "midi": 67,
      "time": 45.333,
      "duration": 1.333,
      "velocity": 0.71,
      "hand": "right"
    },
    {
      "midi": 72,
      "time": 45.333,
      "duration": 0.667,
      "velocity": 0.71,
      "hand": "right"
    },
    {
      "midi": 60,
      "time": 46,
      "duration": 0.667,
      "velocity": 0.64,
      "hand": "right"
    },
    {
      "midi": 72,
      "time": 46,
      "duration": 0.667,
      "velocity": 0.71,
      "hand": "right"
    },
    {
      "midi": 55,
      "time": 46.667,
      "duration": 0.667,
      "velocity": 0.59,
      "hand": "left"
    },
    {
      "midi": 64,
      "time": 46.667,
      "duration": 1.333,
      "velocity": 0.71,
      "hand": "right"
    },
    {
      "midi": 67,
      "time": 46.667,
      "duration": 1.333,
      "velocity": 0.71,
      "hand": "right"
    },
    {
      "midi": 72,
      "time": 46.667,
      "duration": 0.667,
      "velocity": 0.71,
      "hand": "right"
    },
    {
      "midi": 48,
      "time": 47.333,
      "duration": 0.667,
      "velocity": 0.54,
      "hand": "left"
    },
    {
      "midi": 72,
      "time": 47.333,
      "duration": 0.667,
      "velocity": 0.71,
      "hand": "right"
    },
    {
      "midi": 36,
      "time": 48,
      "duration": 0.333,
      "velocity": 0.54,
      "hand": "left"
    },
    {
      "midi": 64,
      "time": 48,
      "duration": 1.333,
      "velocity": 0.71,
      "hand": "right"
    },
    {
      "midi": 67,
      "time": 48,
      "duration": 1.333,
      "velocity": 0.71,
      "hand": "right"
    },
    {
      "midi": 72,
      "time": 48,
      "duration": 0.667,
      "velocity": 0.71,
      "hand": "right"
    },
    {
      "midi": 43,
      "time": 48.333,
      "duration": 0.333,
      "velocity": 0.6,
      "hand": "left"
    },
    {
      "midi": 52,
      "time": 48.667,
      "duration": 0.333,
      "velocity": 0.66,
      "hand": "left"
    },
    {
      "midi": 72,
      "time": 48.667,
      "duration": 0.667,
      "velocity": 0.71,
      "hand": "right"
    },
    {
      "midi": 55,
      "time": 49,
      "duration": 0.333,
      "velocity": 0.72,
      "hand": "left"
    },
    {
      "midi": 64,
      "time": 49.333,
      "duration": 1.333,
      "velocity": 0.77,
      "hand": "right"
    },
    {
      "midi": 67,
      "time": 49.333,
      "duration": 1.333,
      "velocity": 0.71,
      "hand": "right"
    },
    {
      "midi": 72,
      "time": 49.333,
      "duration": 0.667,
      "velocity": 0.71,
      "hand": "right"
    },
    {
      "midi": 72,
      "time": 50,
      "duration": 0.667,
      "velocity": 0.71,
      "hand": "right"
    },
    {
      "midi": 36,
      "time": 50.667,
      "duration": 0.333,
      "velocity": 0.77,
      "hand": "left"
    },
    {
      "midi": 64,
      "time": 50.667,
      "duration": 1.333,
      "velocity": 0.71,
      "hand": "right"
    },
    {
      "midi": 67,
      "time": 50.667,
      "duration": 1.333,
      "velocity": 0.71,
      "hand": "right"
    },
    {
      "midi": 72,
      "time": 50.667,
      "duration": 0.667,
      "velocity": 0.71,
      "hand": "right"
    },
    {
      "midi": 43,
      "time": 51,
      "duration": 0.333,
      "velocity": 0.83,
      "hand": "left"
    },
    {
      "midi": 52,
      "time": 51.333,
      "duration": 0.333,
      "velocity": 0.88,
      "hand": "left"
    },
    {
      "midi": 72,
      "time": 51.333,
      "duration": 0.667,
      "velocity": 0.71,
      "hand": "right"
    },
    {
      "midi": 55,
      "time": 51.667,
      "duration": 0.333,
      "velocity": 0.94,
      "hand": "left"
    },
    {
      "midi": 64,
      "time": 52,
      "duration": 2.667,
      "velocity": 1,
      "hand": "right"
    },
    {
      "midi": 67,
      "time": 52,
      "duration": 1.333,
      "velocity": 0.71,
      "hand": "right"
    },
    {
      "midi": 72,
      "time": 52,
      "duration": 0.667,
      "velocity": 0.71,
      "hand": "right"
    },
    {
      "midi": 72,
      "time": 52.667,
      "duration": 0.667,
      "velocity": 0.71,
      "hand": "right"
    },
    {
      "midi": 67,
      "time": 53.333,
      "duration": 1.333,
      "velocity": 0.71,
      "hand": "right"
    },
    {
      "midi": 72,
      "time": 53.333,
      "duration": 0.667,
      "velocity": 0.71,
      "hand": "right"
    },
    {
      "midi": 72,
      "time": 54,
      "duration": 0.667,
      "velocity": 0.71,
      "hand": "right"
    },
    {
      "midi": 67,
      "time": 54.667,
      "duration": 1.333,
      "velocity": 0.71,
      "hand": "right"
    },
    {
      "midi": 71,
      "time": 54.667,
      "duration": 0.667,
      "velocity": 0.71,
      "hand": "right"
    },
    {
      "midi": 71,
      "time": 55.333,
      "duration": 0.667,
      "velocity": 0.71,
      "hand": "right"
    },
    {
      "midi": 52,
      "time": 56,
      "duration": 2,
      "velocity": 1,
      "hand": "left"
    },
    {
      "midi": 61,
      "time": 56,
      "duration": 1.333,
      "velocity": 0.54,
      "hand": "right"
    },
    {
      "midi": 67,
      "time": 56,
      "duration": 1.333,
      "velocity": 0.54,
      "hand": "right"
    },
    {
      "midi": 70,
      "time": 56,
      "duration": 0.667,
      "velocity": 0.71,
      "hand": "right"
    },
    {
      "midi": 70,
      "time": 56.667,
      "duration": 0.667,
      "velocity": 0.71,
      "hand": "right"
    },
    {
      "midi": 61,
      "time": 57.333,
      "duration": 1.333,
      "velocity": 0.54,
      "hand": "right"
    },
    {
      "midi": 66,
      "time": 57.333,
      "duration": 1.333,
      "velocity": 0.54,
      "hand": "right"
    },
    {
      "midi": 70,
      "time": 57.333,
      "duration": 0.667,
      "velocity": 0.71,
      "hand": "right"
    },
    {
      "midi": 54,
      "time": 58,
      "duration": 0.667,
      "velocity": 1,
      "hand": "left"
    },
    {
      "midi": 70,
      "time": 58,
      "duration": 0.667,
      "velocity": 0.71,
      "hand": "right"
    },
    {
      "midi": 52,
      "time": 58.667,
      "duration": 0.333,
      "velocity": 1,
      "hand": "left"
    },
    {
      "midi": 62,
      "time": 58.667,
      "duration": 1.333,
      "velocity": 0.54,
      "hand": "right"
    },
    {
      "midi": 66,
      "time": 58.667,
      "duration": 1.333,
      "velocity": 0.54,
      "hand": "right"
    },
    {
      "midi": 71,
      "time": 58.667,
      "duration": 0.667,
      "velocity": 0.71,
      "hand": "right"
    },
    {
      "midi": 50,
      "time": 59,
      "duration": 0.333,
      "velocity": 1,
      "hand": "left"
    },
    {
      "midi": 49,
      "time": 59.333,
      "duration": 0.333,
      "velocity": 1,
      "hand": "left"
    },
    {
      "midi": 71,
      "time": 59.333,
      "duration": 0.667,
      "velocity": 0.71,
      "hand": "right"
    },
    {
      "midi": 47,
      "time": 59.667,
      "duration": 0.333,
      "velocity": 1,
      "hand": "left"
    },
    {
      "midi": 52,
      "time": 60,
      "duration": 2,
      "velocity": 1,
      "hand": "left"
    },
    {
      "midi": 61,
      "time": 60,
      "duration": 1.333,
      "velocity": 0.54,
      "hand": "right"
    },
    {
      "midi": 67,
      "time": 60,
      "duration": 1.333,
      "velocity": 0.54,
      "hand": "right"
    },
    {
      "midi": 71,
      "time": 60,
      "duration": 0.667,
      "velocity": 0.71,
      "hand": "right"
    },
    {
      "midi": 71,
      "time": 60.667,
      "duration": 0.667,
      "velocity": 0.71,
      "hand": "right"
    },
    {
      "midi": 61,
      "time": 61.333,
      "duration": 1.333,
      "velocity": 0.54,
      "hand": "right"
    },
    {
      "midi": 67,
      "time": 61.333,
      "duration": 1.333,
      "velocity": 0.54,
      "hand": "right"
    },
    {
      "midi": 70,
      "time": 61.333,
      "duration": 0.667,
      "velocity": 0.71,
      "hand": "right"
    },
    {
      "midi": 54,
      "time": 62,
      "duration": 0.667,
      "velocity": 1,
      "hand": "left"
    },
    {
      "midi": 70,
      "time": 62,
      "duration": 0.667,
      "velocity": 0.71,
      "hand": "right"
    },
    {
      "midi": 52,
      "time": 62.667,
      "duration": 0.333,
      "velocity": 1,
      "hand": "left"
    },
    {
      "midi": 62,
      "time": 62.667,
      "duration": 1.333,
      "velocity": 0.54,
      "hand": "right"
    },
    {
      "midi": 67,
      "time": 62.667,
      "duration": 1.333,
      "velocity": 0.54,
      "hand": "right"
    },
    {
      "midi": 71,
      "time": 62.667,
      "duration": 0.667,
      "velocity": 0.71,
      "hand": "right"
    },
    {
      "midi": 50,
      "time": 63,
      "duration": 0.333,
      "velocity": 1,
      "hand": "left"
    },
    {
      "midi": 49,
      "time": 63.333,
      "duration": 0.333,
      "velocity": 1,
      "hand": "left"
    },
    {
      "midi": 71,
      "time": 63.333,
      "duration": 0.667,
      "velocity": 0.71,
      "hand": "right"
    },
    {
      "midi": 47,
      "time": 63.667,
      "duration": 0.333,
      "velocity": 1,
      "hand": "left"
    },
    {
      "midi": 45,
      "time": 64,
      "duration": 0.333,
      "velocity": 1,
      "hand": "left"
    },
    {
      "midi": 62,
      "time": 64,
      "duration": 1.333,
      "velocity": 0.54,
      "hand": "right"
    },
    {
      "midi": 67,
      "time": 64,
      "duration": 1.333,
      "velocity": 0.54,
      "hand": "right"
    },
    {
      "midi": 71,
      "time": 64,
      "duration": 0.667,
      "velocity": 0.71,
      "hand": "right"
    },
    {
      "midi": 43,
      "time": 64.333,
      "duration": 0.333,
      "velocity": 1,
      "hand": "left"
    },
    {
      "midi": 38,
      "time": 64.667,
      "duration": 0.333,
      "velocity": 1,
      "hand": "left"
    },
    {
      "midi": 71,
      "time": 64.667,
      "duration": 0.667,
      "velocity": 0.71,
      "hand": "right"
    },
    {
      "midi": 40,
      "time": 65,
      "duration": 0.333,
      "velocity": 1,
      "hand": "left"
    },
    {
      "midi": 42,
      "time": 65.333,
      "duration": 2.667,
      "velocity": 1,
      "hand": "left"
    },
    {
      "midi": 61,
      "time": 65.333,
      "duration": 1.333,
      "velocity": 0.54,
      "hand": "right"
    },
    {
      "midi": 66,
      "time": 65.333,
      "duration": 1.333,
      "velocity": 0.54,
      "hand": "right"
    },
    {
      "midi": 71,
      "time": 65.333,
      "duration": 0.667,
      "velocity": 0.71,
      "hand": "right"
    },
    {
      "midi": 71,
      "time": 66,
      "duration": 0.667,
      "velocity": 0.71,
      "hand": "right"
    },
    {
      "midi": 61,
      "time": 66.667,
      "duration": 1.333,
      "velocity": 0.54,
      "hand": "right"
    },
    {
      "midi": 64,
      "time": 66.667,
      "duration": 1.333,
      "velocity": 0.54,
      "hand": "right"
    },
    {
      "midi": 70,
      "time": 66.667,
      "duration": 0.667,
      "velocity": 0.71,
      "hand": "right"
    },
    {
      "midi": 70,
      "time": 67.333,
      "duration": 0.667,
      "velocity": 0.71,
      "hand": "right"
    },
    {
      "midi": 43,
      "time": 68,
      "duration": 2.667,
      "velocity": 1,
      "hand": "left"
    },
    {
      "midi": 61,
      "time": 68,
      "duration": 1.333,
      "velocity": 0.54,
      "hand": "right"
    },
    {
      "midi": 64,
      "time": 68,
      "duration": 1.333,
      "velocity": 0.54,
      "hand": "right"
    },
    {
      "midi": 70,
      "time": 68,
      "duration": 0.667,
      "velocity": 0.71,
      "hand": "right"
    },
    {
      "midi": 70,
      "time": 68.667,
      "duration": 0.667,
      "velocity": 0.71,
      "hand": "right"
    },
    {
      "midi": 59,
      "time": 69.333,
      "duration": 1.333,
      "velocity": 0.54,
      "hand": "left"
    },
    {
      "midi": 62,
      "time": 69.333,
      "duration": 1.333,
      "velocity": 0.54,
      "hand": "right"
    },
    {
      "midi": 71,
      "time": 69.333,
      "duration": 0.667,
      "velocity": 0.71,
      "hand": "right"
    },
    {
      "midi": 71,
      "time": 70,
      "duration": 0.667,
      "velocity": 0.71,
      "hand": "right"
    },
    {
      "midi": 55,
      "time": 70.667,
      "duration": 1.333,
      "velocity": 1,
      "hand": "left"
    },
    {
      "midi": 62,
      "time": 70.667,
      "duration": 1.333,
      "velocity": 0.54,
      "hand": "right"
    },
    {
      "midi": 67,
      "time": 70.667,
      "duration": 1.333,
      "velocity": 0.54,
      "hand": "right"
    },
    {
      "midi": 71,
      "time": 70.667,
      "duration": 0.667,
      "velocity": 0.71,
      "hand": "right"
    },
    {
      "midi": 71,
      "time": 71.333,
      "duration": 0.667,
      "velocity": 0.71,
      "hand": "right"
    },
    {
      "midi": 52,
      "time": 72,
      "duration": 2,
      "velocity": 1,
      "hand": "left"
    },
    {
      "midi": 61,
      "time": 72,
      "duration": 1.333,
      "velocity": 0.54,
      "hand": "right"
    },
    {
      "midi": 67,
      "time": 72,
      "duration": 1.333,
      "velocity": 0.54,
      "hand": "right"
    },
    {
      "midi": 71,
      "time": 72,
      "duration": 0.667,
      "velocity": 0.71,
      "hand": "right"
    },
    {
      "midi": 71,
      "time": 72.667,
      "duration": 0.667,
      "velocity": 0.71,
      "hand": "right"
    },
    {
      "midi": 61,
      "time": 73.333,
      "duration": 1.333,
      "velocity": 0.54,
      "hand": "right"
    },
    {
      "midi": 67,
      "time": 73.333,
      "duration": 1.333,
      "velocity": 0.54,
      "hand": "right"
    },
    {
      "midi": 70,
      "time": 73.333,
      "duration": 0.667,
      "velocity": 0.71,
      "hand": "right"
    },
    {
      "midi": 54,
      "time": 74,
      "duration": 0.667,
      "velocity": 1,
      "hand": "left"
    },
    {
      "midi": 70,
      "time": 74,
      "duration": 0.667,
      "velocity": 0.71,
      "hand": "right"
    },
    {
      "midi": 52,
      "time": 74.667,
      "duration": 0.333,
      "velocity": 1,
      "hand": "left"
    },
    {
      "midi": 62,
      "time": 74.667,
      "duration": 1.333,
      "velocity": 0.54,
      "hand": "right"
    },
    {
      "midi": 66,
      "time": 74.667,
      "duration": 1.333,
      "velocity": 0.54,
      "hand": "right"
    },
    {
      "midi": 71,
      "time": 74.667,
      "duration": 0.667,
      "velocity": 0.71,
      "hand": "right"
    },
    {
      "midi": 50,
      "time": 75,
      "duration": 0.333,
      "velocity": 1,
      "hand": "left"
    },
    {
      "midi": 49,
      "time": 75.333,
      "duration": 0.333,
      "velocity": 1,
      "hand": "left"
    },
    {
      "midi": 71,
      "time": 75.333,
      "duration": 0.667,
      "velocity": 0.71,
      "hand": "right"
    },
    {
      "midi": 47,
      "time": 75.667,
      "duration": 0.333,
      "velocity": 1,
      "hand": "left"
    },
    {
      "midi": 52,
      "time": 76,
      "duration": 2,
      "velocity": 1,
      "hand": "left"
    },
    {
      "midi": 61,
      "time": 76,
      "duration": 1.333,
      "velocity": 0.54,
      "hand": "right"
    },
    {
      "midi": 67,
      "time": 76,
      "duration": 1.333,
      "velocity": 0.54,
      "hand": "right"
    },
    {
      "midi": 71,
      "time": 76,
      "duration": 0.667,
      "velocity": 0.71,
      "hand": "right"
    },
    {
      "midi": 71,
      "time": 76.667,
      "duration": 0.667,
      "velocity": 0.71,
      "hand": "right"
    },
    {
      "midi": 61,
      "time": 77.333,
      "duration": 1.333,
      "velocity": 0.54,
      "hand": "right"
    },
    {
      "midi": 67,
      "time": 77.333,
      "duration": 1.333,
      "velocity": 0.54,
      "hand": "right"
    },
    {
      "midi": 70,
      "time": 77.333,
      "duration": 0.667,
      "velocity": 0.71,
      "hand": "right"
    },
    {
      "midi": 54,
      "time": 78,
      "duration": 0.667,
      "velocity": 1,
      "hand": "left"
    },
    {
      "midi": 70,
      "time": 78,
      "duration": 0.667,
      "velocity": 0.71,
      "hand": "right"
    },
    {
      "midi": 52,
      "time": 78.667,
      "duration": 0.333,
      "velocity": 1,
      "hand": "left"
    },
    {
      "midi": 62,
      "time": 78.667,
      "duration": 1.333,
      "velocity": 0.54,
      "hand": "right"
    },
    {
      "midi": 67,
      "time": 78.667,
      "duration": 1.333,
      "velocity": 0.54,
      "hand": "right"
    },
    {
      "midi": 71,
      "time": 78.667,
      "duration": 0.667,
      "velocity": 0.71,
      "hand": "right"
    },
    {
      "midi": 50,
      "time": 79,
      "duration": 0.333,
      "velocity": 1,
      "hand": "left"
    },
    {
      "midi": 49,
      "time": 79.333,
      "duration": 0.333,
      "velocity": 1,
      "hand": "left"
    },
    {
      "midi": 71,
      "time": 79.333,
      "duration": 0.667,
      "velocity": 0.71,
      "hand": "right"
    },
    {
      "midi": 47,
      "time": 79.667,
      "duration": 0.333,
      "velocity": 1,
      "hand": "left"
    },
    {
      "midi": 45,
      "time": 80,
      "duration": 0.333,
      "velocity": 1,
      "hand": "left"
    },
    {
      "midi": 62,
      "time": 80,
      "duration": 1.333,
      "velocity": 0.54,
      "hand": "right"
    },
    {
      "midi": 67,
      "time": 80,
      "duration": 1.333,
      "velocity": 0.54,
      "hand": "right"
    },
    {
      "midi": 71,
      "time": 80,
      "duration": 0.667,
      "velocity": 0.71,
      "hand": "right"
    },
    {
      "midi": 43,
      "time": 80.333,
      "duration": 0.333,
      "velocity": 1,
      "hand": "left"
    },
    {
      "midi": 38,
      "time": 80.667,
      "duration": 0.333,
      "velocity": 1,
      "hand": "left"
    },
    {
      "midi": 71,
      "time": 80.667,
      "duration": 0.667,
      "velocity": 0.71,
      "hand": "right"
    },
    {
      "midi": 40,
      "time": 81,
      "duration": 0.333,
      "velocity": 1,
      "hand": "left"
    },
    {
      "midi": 42,
      "time": 81.333,
      "duration": 2.667,
      "velocity": 1,
      "hand": "left"
    },
    {
      "midi": 61,
      "time": 81.333,
      "duration": 1.333,
      "velocity": 0.54,
      "hand": "right"
    },
    {
      "midi": 66,
      "time": 81.333,
      "duration": 1.333,
      "velocity": 0.54,
      "hand": "right"
    },
    {
      "midi": 71,
      "time": 81.333,
      "duration": 0.667,
      "velocity": 0.71,
      "hand": "right"
    },
    {
      "midi": 71,
      "time": 82,
      "duration": 0.667,
      "velocity": 0.71,
      "hand": "right"
    },
    {
      "midi": 61,
      "time": 82.667,
      "duration": 1.333,
      "velocity": 0.54,
      "hand": "right"
    },
    {
      "midi": 66,
      "time": 82.667,
      "duration": 1.333,
      "velocity": 0.54,
      "hand": "right"
    },
    {
      "midi": 70,
      "time": 82.667,
      "duration": 0.667,
      "velocity": 0.71,
      "hand": "right"
    },
    {
      "midi": 70,
      "time": 83.333,
      "duration": 0.667,
      "velocity": 0.71,
      "hand": "right"
    },
    {
      "midi": 35,
      "time": 84,
      "duration": 4.333,
      "velocity": 1,
      "hand": "left"
    },
    {
      "midi": 62,
      "time": 84,
      "duration": 1.333,
      "velocity": 0.49,
      "hand": "right"
    },
    {
      "midi": 66,
      "time": 84,
      "duration": 1.333,
      "velocity": 0.49,
      "hand": "right"
    },
    {
      "midi": 71,
      "time": 84,
      "duration": 0.667,
      "velocity": 0.71,
      "hand": "right"
    },
    {
      "midi": 71,
      "time": 84.667,
      "duration": 0.667,
      "velocity": 0.71,
      "hand": "right"
    },
    {
      "midi": 62,
      "time": 85.333,
      "duration": 1.333,
      "velocity": 0.49,
      "hand": "right"
    },
    {
      "midi": 66,
      "time": 85.333,
      "duration": 1.333,
      "velocity": 0.49,
      "hand": "right"
    },
    {
      "midi": 71,
      "time": 85.333,
      "duration": 0.667,
      "velocity": 0.71,
      "hand": "right"
    },
    {
      "midi": 71,
      "time": 86,
      "duration": 0.667,
      "velocity": 0.71,
      "hand": "right"
    },
    {
      "midi": 62,
      "time": 86.667,
      "duration": 1.333,
      "velocity": 0.49,
      "hand": "right"
    },
    {
      "midi": 66,
      "time": 86.667,
      "duration": 1.333,
      "velocity": 0.49,
      "hand": "right"
    },
    {
      "midi": 69,
      "time": 86.667,
      "duration": 0.667,
      "velocity": 0.71,
      "hand": "right"
    },
    {
      "midi": 69,
      "time": 87.333,
      "duration": 0.667,
      "velocity": 0.71,
      "hand": "right"
    },
    {
      "midi": 62,
      "time": 88,
      "duration": 1.333,
      "velocity": 0.49,
      "hand": "right"
    },
    {
      "midi": 66,
      "time": 88,
      "duration": 0.667,
      "velocity": 0.71,
      "hand": "right"
    },
    {
      "midi": 47,
      "time": 88.333,
      "duration": 0.333,
      "velocity": 1,
      "hand": "left"
    },
    {
      "midi": 54,
      "time": 88.667,
      "duration": 0.333,
      "velocity": 1,
      "hand": "left"
    },
    {
      "midi": 66,
      "time": 88.667,
      "duration": 0.667,
      "velocity": 0.71,
      "hand": "right"
    },
    {
      "midi": 59,
      "time": 89,
      "duration": 0.333,
      "velocity": 1,
      "hand": "left"
    },
    {
      "midi": 62,
      "time": 89.333,
      "duration": 1.333,
      "velocity": 1,
      "hand": "right"
    },
    {
      "midi": 66,
      "time": 89.333,
      "duration": 0.667,
      "velocity": 0.71,
      "hand": "right"
    },
    {
      "midi": 66,
      "time": 90,
      "duration": 0.667,
      "velocity": 0.71,
      "hand": "right"
    },
    {
      "midi": 61,
      "time": 90.667,
      "duration": 1,
      "velocity": 1,
      "hand": "right"
    },
    {
      "midi": 66,
      "time": 90.667,
      "duration": 0.667,
      "velocity": 0.71,
      "hand": "right"
    },
    {
      "midi": 66,
      "time": 91.333,
      "duration": 0.667,
      "velocity": 0.71,
      "hand": "right"
    },
    {
      "midi": 62,
      "time": 91.667,
      "duration": 0.333,
      "velocity": 1,
      "hand": "right"
    },
    {
      "midi": 59,
      "time": 92,
      "duration": 2,
      "velocity": 1,
      "hand": "left"
    },
    {
      "midi": 62,
      "time": 92,
      "duration": 1.333,
      "velocity": 0.49,
      "hand": "right"
    },
    {
      "midi": 66,
      "time": 92,
      "duration": 0.667,
      "velocity": 0.71,
      "hand": "right"
    },
    {
      "midi": 66,
      "time": 92.667,
      "duration": 0.667,
      "velocity": 0.71,
      "hand": "right"
    },
    {
      "midi": 62,
      "time": 93.333,
      "duration": 1.333,
      "velocity": 0.49,
      "hand": "right"
    },
    {
      "midi": 66,
      "time": 93.333,
      "duration": 0.667,
      "velocity": 0.71,
      "hand": "right"
    },
    {
      "midi": 54,
      "time": 94,
      "duration": 0.667,
      "velocity": 0.86,
      "hand": "left"
    },
    {
      "midi": 66,
      "time": 94,
      "duration": 0.667,
      "velocity": 0.71,
      "hand": "right"
    },
    {
      "midi": 50,
      "time": 94.667,
      "duration": 0.667,
      "velocity": 0.82,
      "hand": "left"
    },
    {
      "midi": 62,
      "time": 94.667,
      "duration": 1.333,
      "velocity": 0.49,
      "hand": "right"
    },
    {
      "midi": 66,
      "time": 94.667,
      "duration": 0.667,
      "velocity": 0.71,
      "hand": "right"
    },
    {
      "midi": 49,
      "time": 95.333,
      "duration": 0.667,
      "velocity": 0.77,
      "hand": "left"
    },
    {
      "midi": 66,
      "time": 95.333,
      "duration": 0.667,
      "velocity": 0.71,
      "hand": "right"
    },
    {
      "midi": 47,
      "time": 96,
      "duration": 5.333,
      "velocity": 0.77,
      "hand": "left"
    },
    {
      "midi": 62,
      "time": 96,
      "duration": 1.333,
      "velocity": 0.49,
      "hand": "right"
    },
    {
      "midi": 66,
      "time": 96,
      "duration": 0.667,
      "velocity": 0.71,
      "hand": "right"
    },
    {
      "midi": 66,
      "time": 96.667,
      "duration": 0.667,
      "velocity": 0.71,
      "hand": "right"
    },
    {
      "midi": 62,
      "time": 98.667,
      "duration": 1.333,
      "velocity": 0.42,
      "hand": "right"
    },
    {
      "midi": 66,
      "time": 98.667,
      "duration": 0.667,
      "velocity": 0.71,
      "hand": "right"
    },
    {
      "midi": 66,
      "time": 99.333,
      "duration": 0.667,
      "velocity": 0.71,
      "hand": "right"
    },
    {
      "midi": 62,
      "time": 100,
      "duration": 1.333,
      "velocity": 0.42,
      "hand": "right"
    },
    {
      "midi": 66,
      "time": 100,
      "duration": 0.667,
      "velocity": 0.71,
      "hand": "right"
    },
    {
      "midi": 66,
      "time": 100.667,
      "duration": 0.667,
      "velocity": 0.71,
      "hand": "right"
    }
  ],
  "arrangements": {
    "easy": [
      {
        "midi": 71,
        "time": 0,
        "duration": 0.667,
        "velocity": 0.71,
        "hand": "right"
      },
      {
        "midi": 71,
        "time": 2,
        "duration": 0.667,
        "velocity": 0.71,
        "hand": "right"
      },
      {
        "midi": 62,
        "time": 3.667,
        "duration": 0.667,
        "velocity": 0.77,
        "hand": "right"
      },
      {
        "midi": 71,
        "time": 4.667,
        "duration": 0.667,
        "velocity": 0.71,
        "hand": "right"
      },
      {
        "midi": 71,
        "time": 6,
        "duration": 0.667,
        "velocity": 0.71,
        "hand": "right"
      },
      {
        "midi": 71,
        "time": 8,
        "duration": 0.667,
        "velocity": 0.71,
        "hand": "right"
      },
      {
        "midi": 74,
        "time": 10,
        "duration": 0.667,
        "velocity": 0.71,
        "hand": "right"
      },
      {
        "midi": 66,
        "time": 11.667,
        "duration": 0.667,
        "velocity": 0.77,
        "hand": "right"
      },
      {
        "midi": 74,
        "time": 12.667,
        "duration": 0.667,
        "velocity": 0.71,
        "hand": "right"
      },
      {
        "midi": 74,
        "time": 14,
        "duration": 0.667,
        "velocity": 0.71,
        "hand": "right"
      },
      {
        "midi": 74,
        "time": 16,
        "duration": 0.667,
        "velocity": 0.71,
        "hand": "right"
      },
      {
        "midi": 74,
        "time": 18,
        "duration": 0.667,
        "velocity": 0.71,
        "hand": "right"
      },
      {
        "midi": 74,
        "time": 20,
        "duration": 0.667,
        "velocity": 0.71,
        "hand": "right"
      },
      {
        "midi": 73,
        "time": 22,
        "duration": 0.667,
        "velocity": 0.71,
        "hand": "right"
      },
      {
        "midi": 76,
        "time": 24,
        "duration": 2,
        "velocity": 0.71,
        "hand": "right"
      },
      {
        "midi": 71,
        "time": 24.667,
        "duration": 0.667,
        "velocity": 0.71,
        "hand": "right"
      },
      {
        "midi": 78,
        "time": 26,
        "duration": 0.667,
        "velocity": 0.71,
        "hand": "right"
      },
      {
        "midi": 76,
        "time": 26.667,
        "duration": 0.667,
        "velocity": 0.71,
        "hand": "right"
      },
      {
        "midi": 71,
        "time": 27.667,
        "duration": 0.667,
        "velocity": 0.71,
        "hand": "right"
      },
      {
        "midi": 71,
        "time": 28.667,
        "duration": 0.667,
        "velocity": 0.93,
        "hand": "right"
      },
      {
        "midi": 73,
        "time": 30,
        "duration": 0.667,
        "velocity": 0.71,
        "hand": "right"
      },
      {
        "midi": 71,
        "time": 32,
        "duration": 0.667,
        "velocity": 0.71,
        "hand": "right"
      },
      {
        "midi": 71,
        "time": 34,
        "duration": 0.667,
        "velocity": 0.71,
        "hand": "right"
      },
      {
        "midi": 62,
        "time": 35.667,
        "duration": 0.667,
        "velocity": 0.77,
        "hand": "right"
      },
      {
        "midi": 71,
        "time": 36.667,
        "duration": 0.667,
        "velocity": 0.71,
        "hand": "right"
      },
      {
        "midi": 71,
        "time": 38,
        "duration": 0.667,
        "velocity": 0.71,
        "hand": "right"
      },
      {
        "midi": 71,
        "time": 40,
        "duration": 0.667,
        "velocity": 0.71,
        "hand": "right"
      },
      {
        "midi": 71,
        "time": 42,
        "duration": 0.667,
        "velocity": 0.71,
        "hand": "right"
      },
      {
        "midi": 72,
        "time": 44,
        "duration": 0.667,
        "velocity": 0.71,
        "hand": "right"
      },
      {
        "midi": 72,
        "time": 46,
        "duration": 0.667,
        "velocity": 0.71,
        "hand": "right"
      },
      {
        "midi": 72,
        "time": 48,
        "duration": 0.667,
        "velocity": 0.71,
        "hand": "right"
      },
      {
        "midi": 72,
        "time": 50,
        "duration": 0.667,
        "velocity": 0.71,
        "hand": "right"
      },
      {
        "midi": 72,
        "time": 52,
        "duration": 0.667,
        "velocity": 0.71,
        "hand": "right"
      },
      {
        "midi": 72,
        "time": 54,
        "duration": 0.667,
        "velocity": 0.71,
        "hand": "right"
      },
      {
        "midi": 71,
        "time": 54.667,
        "duration": 0.667,
        "velocity": 0.71,
        "hand": "right"
      },
      {
        "midi": 70,
        "time": 56,
        "duration": 0.667,
        "velocity": 0.71,
        "hand": "right"
      },
      {
        "midi": 70,
        "time": 58,
        "duration": 0.667,
        "velocity": 0.71,
        "hand": "right"
      },
      {
        "midi": 71,
        "time": 58.667,
        "duration": 0.667,
        "velocity": 0.71,
        "hand": "right"
      },
      {
        "midi": 71,
        "time": 60,
        "duration": 0.667,
        "velocity": 0.71,
        "hand": "right"
      },
      {
        "midi": 70,
        "time": 62,
        "duration": 0.667,
        "velocity": 0.71,
        "hand": "right"
      },
      {
        "midi": 71,
        "time": 62.667,
        "duration": 0.667,
        "velocity": 0.71,
        "hand": "right"
      },
      {
        "midi": 71,
        "time": 64,
        "duration": 0.667,
        "velocity": 0.71,
        "hand": "right"
      },
      {
        "midi": 71,
        "time": 66,
        "duration": 0.667,
        "velocity": 0.71,
        "hand": "right"
      },
      {
        "midi": 70,
        "time": 66.667,
        "duration": 0.667,
        "velocity": 0.71,
        "hand": "right"
      },
      {
        "midi": 70,
        "time": 68,
        "duration": 0.667,
        "velocity": 0.71,
        "hand": "right"
      },
      {
        "midi": 71,
        "time": 70,
        "duration": 0.667,
        "velocity": 0.71,
        "hand": "right"
      },
      {
        "midi": 71,
        "time": 72,
        "duration": 0.667,
        "velocity": 0.71,
        "hand": "right"
      },
      {
        "midi": 70,
        "time": 74,
        "duration": 0.667,
        "velocity": 0.71,
        "hand": "right"
      },
      {
        "midi": 71,
        "time": 74.667,
        "duration": 0.667,
        "velocity": 0.71,
        "hand": "right"
      },
      {
        "midi": 71,
        "time": 76,
        "duration": 0.667,
        "velocity": 0.71,
        "hand": "right"
      },
      {
        "midi": 70,
        "time": 78,
        "duration": 0.667,
        "velocity": 0.71,
        "hand": "right"
      },
      {
        "midi": 71,
        "time": 78.667,
        "duration": 0.667,
        "velocity": 0.71,
        "hand": "right"
      },
      {
        "midi": 71,
        "time": 80,
        "duration": 0.667,
        "velocity": 0.71,
        "hand": "right"
      },
      {
        "midi": 71,
        "time": 82,
        "duration": 0.667,
        "velocity": 0.71,
        "hand": "right"
      },
      {
        "midi": 70,
        "time": 82.667,
        "duration": 0.667,
        "velocity": 0.71,
        "hand": "right"
      },
      {
        "midi": 71,
        "time": 84,
        "duration": 0.667,
        "velocity": 0.71,
        "hand": "right"
      },
      {
        "midi": 71,
        "time": 86,
        "duration": 0.667,
        "velocity": 0.71,
        "hand": "right"
      },
      {
        "midi": 69,
        "time": 86.667,
        "duration": 0.667,
        "velocity": 0.71,
        "hand": "right"
      },
      {
        "midi": 66,
        "time": 88,
        "duration": 0.667,
        "velocity": 0.71,
        "hand": "right"
      },
      {
        "midi": 66,
        "time": 90,
        "duration": 0.667,
        "velocity": 0.71,
        "hand": "right"
      },
      {
        "midi": 62,
        "time": 91.667,
        "duration": 0.667,
        "velocity": 1,
        "hand": "right"
      },
      {
        "midi": 66,
        "time": 92.667,
        "duration": 0.667,
        "velocity": 0.71,
        "hand": "right"
      },
      {
        "midi": 66,
        "time": 94,
        "duration": 0.667,
        "velocity": 0.71,
        "hand": "right"
      },
      {
        "midi": 66,
        "time": 96,
        "duration": 0.667,
        "velocity": 0.71,
        "hand": "right"
      },
      {
        "midi": 66,
        "time": 98.667,
        "duration": 0.667,
        "velocity": 0.71,
        "hand": "right"
      },
      {
        "midi": 66,
        "time": 100,
        "duration": 0.667,
        "velocity": 0.71,
        "hand": "right"
      }
    ],
    "medium": [
      {
        "midi": 47,
        "time": 0,
        "duration": 0.333,
        "velocity": 0.54,
        "hand": "left"
      },
      {
        "midi": 66,
        "time": 0,
        "duration": 1.333,
        "velocity": 0.71,
        "hand": "right"
      },
      {
        "midi": 71,
        "time": 0,
        "duration": 0.667,
        "velocity": 0.71,
        "hand": "right"
      },
      {
        "midi": 50,
        "time": 0.333,
        "duration": 0.333,
        "velocity": 0.6,
        "hand": "left"
      },
      {
        "midi": 54,
        "time": 0.667,
        "duration": 0.333,
        "velocity": 0.66,
        "hand": "left"
      },
      {
        "midi": 71,
        "time": 0.667,
        "duration": 0.667,
        "velocity": 0.71,
        "hand": "right"
      },
      {
        "midi": 59,
        "time": 1,
        "duration": 0.333,
        "velocity": 0.72,
        "hand": "left"
      },
      {
        "midi": 62,
        "time": 1.333,
        "duration": 1.333,
        "velocity": 0.77,
        "hand": "right"
      },
      {
        "midi": 66,
        "time": 1.333,
        "duration": 1.333,
        "velocity": 0.71,
        "hand": "right"
      },
      {
        "midi": 71,
        "time": 1.333,
        "duration": 0.667,
        "velocity": 0.71,
        "hand": "right"
      },
      {
        "midi": 71,
        "time": 2,
        "duration": 0.667,
        "velocity": 0.71,
        "hand": "right"
      },
      {
        "midi": 61,
        "time": 2.667,
        "duration": 1,
        "velocity": 0.77,
        "hand": "right"
      },
      {
        "midi": 66,
        "time": 2.667,
        "duration": 1.333,
        "velocity": 0.71,
        "hand": "right"
      },
      {
        "midi": 71,
        "time": 2.667,
        "duration": 0.667,
        "velocity": 0.71,
        "hand": "right"
      },
      {
        "midi": 71,
        "time": 3.333,
        "duration": 0.667,
        "velocity": 0.71,
        "hand": "right"
      },
      {
        "midi": 62,
        "time": 3.667,
        "duration": 0.333,
        "velocity": 0.77,
        "hand": "right"
      },
      {
        "midi": 59,
        "time": 4,
        "duration": 2,
        "velocity": 0.77,
        "hand": "left"
      },
      {
        "midi": 66,
        "time": 4,
        "duration": 1.333,
        "velocity": 0.71,
        "hand": "right"
      },
      {
        "midi": 71,
        "time": 4,
        "duration": 0.667,
        "velocity": 0.71,
        "hand": "right"
      },
      {
        "midi": 71,
        "time": 4.667,
        "duration": 0.667,
        "velocity": 0.71,
        "hand": "right"
      },
      {
        "midi": 62,
        "time": 5.333,
        "duration": 1.333,
        "velocity": 0.71,
        "hand": "right"
      },
      {
        "midi": 66,
        "time": 5.333,
        "duration": 1.333,
        "velocity": 0.71,
        "hand": "right"
      },
      {
        "midi": 71,
        "time": 5.333,
        "duration": 0.667,
        "velocity": 0.71,
        "hand": "right"
      },
      {
        "midi": 54,
        "time": 6,
        "duration": 0.667,
        "velocity": 0.64,
        "hand": "left"
      },
      {
        "midi": 71,
        "time": 6,
        "duration": 0.667,
        "velocity": 0.71,
        "hand": "right"
      },
      {
        "midi": 50,
        "time": 6.667,
        "duration": 0.667,
        "velocity": 0.59,
        "hand": "left"
      },
      {
        "midi": 66,
        "time": 6.667,
        "duration": 1.333,
        "velocity": 0.71,
        "hand": "right"
      },
      {
        "midi": 71,
        "time": 6.667,
        "duration": 0.667,
        "velocity": 0.71,
        "hand": "right"
      },
      {
        "midi": 49,
        "time": 7.333,
        "duration": 0.667,
        "velocity": 0.54,
        "hand": "left"
      },
      {
        "midi": 71,
        "time": 7.333,
        "duration": 0.667,
        "velocity": 0.71,
        "hand": "right"
      },
      {
        "midi": 47,
        "time": 8,
        "duration": 0.333,
        "velocity": 0.54,
        "hand": "left"
      },
      {
        "midi": 66,
        "time": 8,
        "duration": 1.333,
        "velocity": 0.71,
        "hand": "right"
      },
      {
        "midi": 71,
        "time": 8,
        "duration": 0.667,
        "velocity": 0.71,
        "hand": "right"
      },
      {
        "midi": 54,
        "time": 8.333,
        "duration": 0.333,
        "velocity": 0.6,
        "hand": "left"
      },
      {
        "midi": 59,
        "time": 8.667,
        "duration": 0.333,
        "velocity": 0.66,
        "hand": "left"
      },
      {
        "midi": 71,
        "time": 8.667,
        "duration": 0.667,
        "velocity": 0.71,
        "hand": "right"
      },
      {
        "midi": 62,
        "time": 9,
        "duration": 0.333,
        "velocity": 0.72,
        "hand": "right"
      },
      {
        "midi": 66,
        "time": 9.333,
        "duration": 1.333,
        "velocity": 0.77,
        "hand": "right"
      },
      {
        "midi": 71,
        "time": 9.333,
        "duration": 1.333,
        "velocity": 0.71,
        "hand": "right"
      },
      {
        "midi": 74,
        "time": 9.333,
        "duration": 0.667,
        "velocity": 0.71,
        "hand": "right"
      },
      {
        "midi": 74,
        "time": 10,
        "duration": 0.667,
        "velocity": 0.71,
        "hand": "right"
      },
      {
        "midi": 64,
        "time": 10.667,
        "duration": 1,
        "velocity": 0.77,
        "hand": "right"
      },
      {
        "midi": 71,
        "time": 10.667,
        "duration": 1.333,
        "velocity": 0.71,
        "hand": "right"
      },
      {
        "midi": 74,
        "time": 10.667,
        "duration": 0.667,
        "velocity": 0.71,
        "hand": "right"
      },
      {
        "midi": 74,
        "time": 11.333,
        "duration": 0.667,
        "velocity": 0.71,
        "hand": "right"
      },
      {
        "midi": 66,
        "time": 11.667,
        "duration": 0.333,
        "velocity": 0.77,
        "hand": "right"
      },
      {
        "midi": 62,
        "time": 12,
        "duration": 2,
        "velocity": 0.77,
        "hand": "right"
      },
      {
        "midi": 71,
        "time": 12,
        "duration": 1.333,
        "velocity": 0.71,
        "hand": "right"
      },
      {
        "midi": 74,
        "time": 12,
        "duration": 0.667,
        "velocity": 0.71,
        "hand": "right"
      },
      {
        "midi": 74,
        "time": 12.667,
        "duration": 0.667,
        "velocity": 0.71,
        "hand": "right"
      },
      {
        "midi": 66,
        "time": 13.333,
        "duration": 1.333,
        "velocity": 0.71,
        "hand": "right"
      },
      {
        "midi": 71,
        "time": 13.333,
        "duration": 1.333,
        "velocity": 0.71,
        "hand": "right"
      },
      {
        "midi": 74,
        "time": 13.333,
        "duration": 0.667,
        "velocity": 0.71,
        "hand": "right"
      },
      {
        "midi": 59,
        "time": 14,
        "duration": 0.667,
        "velocity": 0.64,
        "hand": "left"
      },
      {
        "midi": 74,
        "time": 14,
        "duration": 0.667,
        "velocity": 0.71,
        "hand": "right"
      },
      {
        "midi": 54,
        "time": 14.667,
        "duration": 0.667,
        "velocity": 0.59,
        "hand": "left"
      },
      {
        "midi": 71,
        "time": 14.667,
        "duration": 1.333,
        "velocity": 0.71,
        "hand": "right"
      },
      {
        "midi": 74,
        "time": 14.667,
        "duration": 0.667,
        "velocity": 0.71,
        "hand": "right"
      },
      {
        "midi": 50,
        "time": 15.333,
        "duration": 0.667,
        "velocity": 0.54,
        "hand": "left"
      },
      {
        "midi": 74,
        "time": 15.333,
        "duration": 0.667,
        "velocity": 0.71,
        "hand": "right"
      },
      {
        "midi": 43,
        "time": 16,
        "duration": 0.333,
        "velocity": 0.54,
        "hand": "left"
      },
      {
        "midi": 71,
        "time": 16,
        "duration": 1.333,
        "velocity": 0.71,
        "hand": "right"
      },
      {
        "midi": 74,
        "time": 16,
        "duration": 0.667,
        "velocity": 0.71,
        "hand": "right"
      },
      {
        "midi": 50,
        "time": 16.333,
        "duration": 0.333,
        "velocity": 0.6,
        "hand": "left"
      },
      {
        "midi": 59,
        "time": 16.667,
        "duration": 0.333,
        "velocity": 0.66,
        "hand": "left"
      },
      {
        "midi": 74,
        "time": 16.667,
        "duration": 0.667,
        "velocity": 0.71,
        "hand": "right"
      },
      {
        "midi": 62,
        "time": 17,
        "duration": 0.333,
        "velocity": 0.72,
        "hand": "right"
      },
      {
        "midi": 67,
        "time": 17.333,
        "duration": 1.333,
        "velocity": 0.77,
        "hand": "right"
      },
      {
        "midi": 71,
        "time": 17.333,
        "duration": 1.333,
        "velocity": 0.71,
        "hand": "right"
      },
      {
        "midi": 74,
        "time": 17.333,
        "duration": 0.667,
        "velocity": 0.71,
        "hand": "right"
      },
      {
        "midi": 74,
        "time": 18,
        "duration": 0.667,
        "velocity": 0.71,
        "hand": "right"
      },
      {
        "midi": 66,
        "time": 18.667,
        "duration": 1.333,
        "velocity": 0.77,
        "hand": "right"
      },
      {
        "midi": 71,
        "time": 18.667,
        "duration": 1.333,
        "velocity": 0.71,
        "hand": "right"
      },
      {
        "midi": 74,
        "time": 18.667,
        "duration": 0.667,
        "velocity": 0.71,
        "hand": "right"
      },
      {
        "midi": 74,
        "time": 19.333,
        "duration": 0.667,
        "velocity": 0.71,
        "hand": "right"
      },
      {
        "midi": 66,
        "time": 20,
        "duration": 1.333,
        "velocity": 0.77,
        "hand": "right"
      },
      {
        "midi": 71,
        "time": 20,
        "duration": 1.333,
        "velocity": 0.71,
        "hand": "right"
      },
      {
        "midi": 74,
        "time": 20,
        "duration": 0.667,
        "velocity": 0.71,
        "hand": "right"
      },
      {
        "midi": 74,
        "time": 20.667,
        "duration": 0.667,
        "velocity": 0.71,
        "hand": "right"
      },
      {
        "midi": 65,
        "time": 21.333,
        "duration": 1.333,
        "velocity": 0.54,
        "hand": "right"
      },
      {
        "midi": 71,
        "time": 21.333,
        "duration": 1.333,
        "velocity": 0.71,
        "hand": "right"
      },
      {
        "midi": 73,
        "time": 21.333,
        "duration": 0.667,
        "velocity": 0.71,
        "hand": "right"
      },
      {
        "midi": 73,
        "time": 22,
        "duration": 0.667,
        "velocity": 0.71,
        "hand": "right"
      },
      {
        "midi": 64,
        "time": 22.667,
        "duration": 0.667,
        "velocity": 0.54,
        "hand": "right"
      },
      {
        "midi": 70,
        "time": 22.667,
        "duration": 0.667,
        "velocity": 0.71,
        "hand": "right"
      },
      {
        "midi": 73,
        "time": 22.667,
        "duration": 0.667,
        "velocity": 0.71,
        "hand": "right"
      },
      {
        "midi": 62,
        "time": 23.333,
        "duration": 0.667,
        "velocity": 0.54,
        "hand": "right"
      },
      {
        "midi": 71,
        "time": 23.333,
        "duration": 0.667,
        "velocity": 0.71,
        "hand": "right"
      },
      {
        "midi": 74,
        "time": 23.333,
        "duration": 0.667,
        "velocity": 0.71,
        "hand": "right"
      },
      {
        "midi": 61,
        "time": 24,
        "duration": 0.667,
        "velocity": 0.54,
        "hand": "right"
      },
      {
        "midi": 70,
        "time": 24,
        "duration": 0.667,
        "velocity": 0.71,
        "hand": "right"
      },
      {
        "midi": 76,
        "time": 24,
        "duration": 2,
        "velocity": 0.71,
        "hand": "right"
      },
      {
        "midi": 62,
        "time": 24.667,
        "duration": 0.667,
        "velocity": 0.54,
        "hand": "right"
      },
      {
        "midi": 67,
        "time": 24.667,
        "duration": 0.667,
        "velocity": 0.71,
        "hand": "right"
      },
      {
        "midi": 71,
        "time": 24.667,
        "duration": 0.667,
        "velocity": 0.71,
        "hand": "right"
      },
      {
        "midi": 61,
        "time": 25.333,
        "duration": 0.667,
        "velocity": 0.54,
        "hand": "right"
      },
      {
        "midi": 67,
        "time": 25.333,
        "duration": 0.667,
        "velocity": 0.71,
        "hand": "right"
      },
      {
        "midi": 70,
        "time": 25.333,
        "duration": 0.667,
        "velocity": 0.71,
        "hand": "right"
      },
      {
        "midi": 58,
        "time": 26,
        "duration": 0.667,
        "velocity": 0.54,
        "hand": "left"
      },
      {
        "midi": 73,
        "time": 26,
        "duration": 0.667,
        "velocity": 0.71,
        "hand": "right"
      },
      {
        "midi": 78,
        "time": 26,
        "duration": 0.667,
        "velocity": 0.71,
        "hand": "right"
      },
      {
        "midi": 59,
        "time": 26.667,
        "duration": 0.667,
        "velocity": 0.54,
        "hand": "left"
      },
      {
        "midi": 71,
        "time": 26.667,
        "duration": 0.667,
        "velocity": 0.71,
        "hand": "right"
      },
      {
        "midi": 76,
        "time": 26.667,
        "duration": 0.333,
        "velocity": 0.71,
        "hand": "right"
      },
      {
        "midi": 74,
        "time": 27,
        "duration": 0.333,
        "velocity": 0.71,
        "hand": "right"
      },
      {
        "midi": 50,
        "time": 27.333,
        "duration": 0.667,
        "velocity": 0.54,
        "hand": "left"
      },
      {
        "midi": 73,
        "time": 27.333,
        "duration": 0.333,
        "velocity": 0.71,
        "hand": "right"
      },
      {
        "midi": 74,
        "time": 27.333,
        "duration": 0.333,
        "velocity": 0.71,
        "hand": "right"
      },
      {
        "midi": 71,
        "time": 27.667,
        "duration": 0.333,
        "velocity": 0.71,
        "hand": "right"
      },
      {
        "midi": 52,
        "time": 28,
        "duration": 0.667,
        "velocity": 0.54,
        "hand": "left"
      },
      {
        "midi": 67,
        "time": 28,
        "duration": 0.667,
        "velocity": 0.71,
        "hand": "right"
      },
      {
        "midi": 70,
        "time": 28,
        "duration": 0.667,
        "velocity": 0.71,
        "hand": "right"
      },
      {
        "midi": 53,
        "time": 28.667,
        "duration": 0.667,
        "velocity": 0.54,
        "hand": "left"
      },
      {
        "midi": 68,
        "time": 28.667,
        "duration": 0.667,
        "velocity": 0.93,
        "hand": "right"
      },
      {
        "midi": 71,
        "time": 28.667,
        "duration": 0.667,
        "velocity": 0.93,
        "hand": "right"
      },
      {
        "midi": 54,
        "time": 29.333,
        "duration": 1.333,
        "velocity": 0.54,
        "hand": "left"
      },
      {
        "midi": 71,
        "time": 29.333,
        "duration": 0.667,
        "velocity": 0.93,
        "hand": "right"
      },
      {
        "midi": 74,
        "time": 29.333,
        "duration": 0.667,
        "velocity": 0.93,
        "hand": "right"
      },
      {
        "midi": 61,
        "time": 30,
        "duration": 0.667,
        "velocity": 0.71,
        "hand": "right"
      },
      {
        "midi": 70,
        "time": 30,
        "duration": 0.667,
        "velocity": 0.71,
        "hand": "right"
      },
      {
        "midi": 73,
        "time": 30,
        "duration": 0.667,
        "velocity": 0.71,
        "hand": "right"
      },
      {
        "midi": 50,
        "time": 30.667,
        "duration": 0.667,
        "velocity": 0.54,
        "hand": "left"
      },
      {
        "midi": 49,
        "time": 31.333,
        "duration": 0.667,
        "velocity": 0.54,
        "hand": "left"
      },
      {
        "midi": 47,
        "time": 32,
        "duration": 0.333,
        "velocity": 0.54,
        "hand": "left"
      },
      {
        "midi": 66,
        "time": 32,
        "duration": 1.333,
        "velocity": 0.71,
        "hand": "right"
      },
      {
        "midi": 71,
        "time": 32,
        "duration": 0.667,
        "velocity": 0.71,
        "hand": "right"
      },
      {
        "midi": 50,
        "time": 32.333,
        "duration": 0.333,
        "velocity": 0.6,
        "hand": "left"
      },
      {
        "midi": 54,
        "time": 32.667,
        "duration": 0.333,
        "velocity": 0.66,
        "hand": "left"
      },
      {
        "midi": 71,
        "time": 32.667,
        "duration": 0.667,
        "velocity": 0.71,
        "hand": "right"
      },
      {
        "midi": 59,
        "time": 33,
        "duration": 0.333,
        "velocity": 0.72,
        "hand": "left"
      },
      {
        "midi": 62,
        "time": 33.333,
        "duration": 1.333,
        "velocity": 0.77,
        "hand": "right"
      },
      {
        "midi": 66,
        "time": 33.333,
        "duration": 1.333,
        "velocity": 0.71,
        "hand": "right"
      },
      {
        "midi": 71,
        "time": 33.333,
        "duration": 0.667,
        "velocity": 0.71,
        "hand": "right"
      },
      {
        "midi": 71,
        "time": 34,
        "duration": 0.667,
        "velocity": 0.71,
        "hand": "right"
      },
      {
        "midi": 61,
        "time": 34.667,
        "duration": 1,
        "velocity": 0.77,
        "hand": "right"
      },
      {
        "midi": 66,
        "time": 34.667,
        "duration": 1.333,
        "velocity": 0.71,
        "hand": "right"
      },
      {
        "midi": 71,
        "time": 34.667,
        "duration": 0.667,
        "velocity": 0.71,
        "hand": "right"
      },
      {
        "midi": 71,
        "time": 35.333,
        "duration": 0.667,
        "velocity": 0.71,
        "hand": "right"
      },
      {
        "midi": 62,
        "time": 35.667,
        "duration": 0.333,
        "velocity": 0.77,
        "hand": "right"
      },
      {
        "midi": 59,
        "time": 36,
        "duration": 2,
        "velocity": 0.77,
        "hand": "left"
      },
      {
        "midi": 66,
        "time": 36,
        "duration": 1.333,
        "velocity": 0.71,
        "hand": "right"
      },
      {
        "midi": 71,
        "time": 36,
        "duration": 0.667,
        "velocity": 0.71,
        "hand": "right"
      },
      {
        "midi": 71,
        "time": 36.667,
        "duration": 0.667,
        "velocity": 0.71,
        "hand": "right"
      },
      {
        "midi": 62,
        "time": 37.333,
        "duration": 1.333,
        "velocity": 0.71,
        "hand": "right"
      },
      {
        "midi": 66,
        "time": 37.333,
        "duration": 1.333,
        "velocity": 0.71,
        "hand": "right"
      },
      {
        "midi": 71,
        "time": 37.333,
        "duration": 0.667,
        "velocity": 0.71,
        "hand": "right"
      },
      {
        "midi": 54,
        "time": 38,
        "duration": 0.667,
        "velocity": 0.64,
        "hand": "left"
      },
      {
        "midi": 71,
        "time": 38,
        "duration": 0.667,
        "velocity": 0.71,
        "hand": "right"
      },
      {
        "midi": 50,
        "time": 38.667,
        "duration": 0.667,
        "velocity": 0.59,
        "hand": "left"
      },
      {
        "midi": 66,
        "time": 38.667,
        "duration": 1.333,
        "velocity": 0.71,
        "hand": "right"
      },
      {
        "midi": 71,
        "time": 38.667,
        "duration": 0.667,
        "velocity": 0.71,
        "hand": "right"
      },
      {
        "midi": 47,
        "time": 39.333,
        "duration": 0.667,
        "velocity": 0.54,
        "hand": "left"
      },
      {
        "midi": 71,
        "time": 39.333,
        "duration": 0.667,
        "velocity": 0.71,
        "hand": "right"
      },
      {
        "midi": 43,
        "time": 40,
        "duration": 0.333,
        "velocity": 0.54,
        "hand": "left"
      },
      {
        "midi": 67,
        "time": 40,
        "duration": 1.333,
        "velocity": 0.71,
        "hand": "right"
      },
      {
        "midi": 71,
        "time": 40,
        "duration": 0.667,
        "velocity": 0.71,
        "hand": "right"
      },
      {
        "midi": 50,
        "time": 40.333,
        "duration": 0.333,
        "velocity": 0.57,
        "hand": "left"
      },
      {
        "midi": 55,
        "time": 40.667,
        "duration": 0.333,
        "velocity": 0.59,
        "hand": "left"
      },
      {
        "midi": 71,
        "time": 40.667,
        "duration": 0.667,
        "velocity": 0.71,
        "hand": "right"
      },
      {
        "midi": 59,
        "time": 41,
        "duration": 0.333,
        "velocity": 0.61,
        "hand": "left"
      },
      {
        "midi": 62,
        "time": 41.333,
        "duration": 1.333,
        "velocity": 0.64,
        "hand": "right"
      },
      {
        "midi": 67,
        "time": 41.333,
        "duration": 1.333,
        "velocity": 0.71,
        "hand": "right"
      },
      {
        "midi": 71,
        "time": 41.333,
        "duration": 0.667,
        "velocity": 0.71,
        "hand": "right"
      },
      {
        "midi": 71,
        "time": 42,
        "duration": 0.667,
        "velocity": 0.71,
        "hand": "right"
      },
      {
        "midi": 64,
        "time": 42.667,
        "duration": 0.667,
        "velocity": 0.72,
        "hand": "right"
      },
      {
        "midi": 67,
        "time": 42.667,
        "duration": 1.333,
        "velocity": 0.71,
        "hand": "right"
      },
      {
        "midi": 71,
        "time": 42.667,
        "duration": 0.667,
        "velocity": 0.71,
        "hand": "right"
      },
      {
        "midi": 65,
        "time": 43.333,
        "duration": 0.667,
        "velocity": 0.77,
        "hand": "right"
      },
      {
        "midi": 71,
        "time": 43.333,
        "duration": 0.667,
        "velocity": 0.71,
        "hand": "right"
      },
      {
        "midi": 64,
        "time": 44,
        "duration": 2,
        "velocity": 0.77,
        "hand": "right"
      },
      {
        "midi": 67,
        "time": 44,
        "duration": 1.333,
        "velocity": 0.71,
        "hand": "right"
      },
      {
        "midi": 72,
        "time": 44,
        "duration": 0.667,
        "velocity": 0.71,
        "hand": "right"
      },
      {
        "midi": 72,
        "time": 44.667,
        "duration": 0.667,
        "velocity": 0.71,
        "hand": "right"
      },
      {
        "midi": 64,
        "time": 45.333,
        "duration": 1.333,
        "velocity": 0.71,
        "hand": "right"
      },
      {
        "midi": 67,
        "time": 45.333,
        "duration": 1.333,
        "velocity": 0.71,
        "hand": "right"
      },
      {
        "midi": 72,
        "time": 45.333,
        "duration": 0.667,
        "velocity": 0.71,
        "hand": "right"
      },
      {
        "midi": 60,
        "time": 46,
        "duration": 0.667,
        "velocity": 0.64,
        "hand": "right"
      },
      {
        "midi": 72,
        "time": 46,
        "duration": 0.667,
        "velocity": 0.71,
        "hand": "right"
      },
      {
        "midi": 55,
        "time": 46.667,
        "duration": 0.667,
        "velocity": 0.59,
        "hand": "left"
      },
      {
        "midi": 67,
        "time": 46.667,
        "duration": 1.333,
        "velocity": 0.71,
        "hand": "right"
      },
      {
        "midi": 72,
        "time": 46.667,
        "duration": 0.667,
        "velocity": 0.71,
        "hand": "right"
      },
      {
        "midi": 48,
        "time": 47.333,
        "duration": 0.667,
        "velocity": 0.54,
        "hand": "left"
      },
      {
        "midi": 72,
        "time": 47.333,
        "duration": 0.667,
        "velocity": 0.71,
        "hand": "right"
      },
      {
        "midi": 36,
        "time": 48,
        "duration": 0.333,
        "velocity": 0.54,
        "hand": "left"
      },
      {
        "midi": 67,
        "time": 48,
        "duration": 1.333,
        "velocity": 0.71,
        "hand": "right"
      },
      {
        "midi": 72,
        "time": 48,
        "duration": 0.667,
        "velocity": 0.71,
        "hand": "right"
      },
      {
        "midi": 43,
        "time": 48.333,
        "duration": 0.333,
        "velocity": 0.6,
        "hand": "left"
      },
      {
        "midi": 52,
        "time": 48.667,
        "duration": 0.333,
        "velocity": 0.66,
        "hand": "left"
      },
      {
        "midi": 72,
        "time": 48.667,
        "duration": 0.667,
        "velocity": 0.71,
        "hand": "right"
      },
      {
        "midi": 55,
        "time": 49,
        "duration": 0.333,
        "velocity": 0.72,
        "hand": "left"
      },
      {
        "midi": 64,
        "time": 49.333,
        "duration": 1.333,
        "velocity": 0.77,
        "hand": "right"
      },
      {
        "midi": 67,
        "time": 49.333,
        "duration": 1.333,
        "velocity": 0.71,
        "hand": "right"
      },
      {
        "midi": 72,
        "time": 49.333,
        "duration": 0.667,
        "velocity": 0.71,
        "hand": "right"
      },
      {
        "midi": 72,
        "time": 50,
        "duration": 0.667,
        "velocity": 0.71,
        "hand": "right"
      },
      {
        "midi": 36,
        "time": 50.667,
        "duration": 0.333,
        "velocity": 0.77,
        "hand": "left"
      },
      {
        "midi": 67,
        "time": 50.667,
        "duration": 1.333,
        "velocity": 0.71,
        "hand": "right"
      },
      {
        "midi": 72,
        "time": 50.667,
        "duration": 0.667,
        "velocity": 0.71,
        "hand": "right"
      },
      {
        "midi": 43,
        "time": 51,
        "duration": 0.333,
        "velocity": 0.83,
        "hand": "left"
      },
      {
        "midi": 52,
        "time": 51.333,
        "duration": 0.333,
        "velocity": 0.88,
        "hand": "left"
      },
      {
        "midi": 72,
        "time": 51.333,
        "duration": 0.667,
        "velocity": 0.71,
        "hand": "right"
      },
      {
        "midi": 55,
        "time": 51.667,
        "duration": 0.333,
        "velocity": 0.94,
        "hand": "left"
      },
      {
        "midi": 64,
        "time": 52,
        "duration": 2.667,
        "velocity": 1,
        "hand": "right"
      },
      {
        "midi": 67,
        "time": 52,
        "duration": 1.333,
        "velocity": 0.71,
        "hand": "right"
      },
      {
        "midi": 72,
        "time": 52,
        "duration": 0.667,
        "velocity": 0.71,
        "hand": "right"
      },
      {
        "midi": 72,
        "time": 52.667,
        "duration": 0.667,
        "velocity": 0.71,
        "hand": "right"
      },
      {
        "midi": 67,
        "time": 53.333,
        "duration": 1.333,
        "velocity": 0.71,
        "hand": "right"
      },
      {
        "midi": 72,
        "time": 53.333,
        "duration": 0.667,
        "velocity": 0.71,
        "hand": "right"
      },
      {
        "midi": 72,
        "time": 54,
        "duration": 0.667,
        "velocity": 0.71,
        "hand": "right"
      },
      {
        "midi": 67,
        "time": 54.667,
        "duration": 1.333,
        "velocity": 0.71,
        "hand": "right"
      },
      {
        "midi": 71,
        "time": 54.667,
        "duration": 0.667,
        "velocity": 0.71,
        "hand": "right"
      },
      {
        "midi": 71,
        "time": 55.333,
        "duration": 0.667,
        "velocity": 0.71,
        "hand": "right"
      },
      {
        "midi": 52,
        "time": 56,
        "duration": 2,
        "velocity": 1,
        "hand": "left"
      },
      {
        "midi": 67,
        "time": 56,
        "duration": 1.333,
        "velocity": 0.54,
        "hand": "right"
      },
      {
        "midi": 70,
        "time": 56,
        "duration": 0.667,
        "velocity": 0.71,
        "hand": "right"
      },
      {
        "midi": 70,
        "time": 56.667,
        "duration": 0.667,
        "velocity": 0.71,
        "hand": "right"
      },
      {
        "midi": 61,
        "time": 57.333,
        "duration": 1.333,
        "velocity": 0.54,
        "hand": "right"
      },
      {
        "midi": 66,
        "time": 57.333,
        "duration": 1.333,
        "velocity": 0.54,
        "hand": "right"
      },
      {
        "midi": 70,
        "time": 57.333,
        "duration": 0.667,
        "velocity": 0.71,
        "hand": "right"
      },
      {
        "midi": 54,
        "time": 58,
        "duration": 0.667,
        "velocity": 1,
        "hand": "left"
      },
      {
        "midi": 70,
        "time": 58,
        "duration": 0.667,
        "velocity": 0.71,
        "hand": "right"
      },
      {
        "midi": 52,
        "time": 58.667,
        "duration": 0.333,
        "velocity": 1,
        "hand": "left"
      },
      {
        "midi": 66,
        "time": 58.667,
        "duration": 1.333,
        "velocity": 0.54,
        "hand": "right"
      },
      {
        "midi": 71,
        "time": 58.667,
        "duration": 0.667,
        "velocity": 0.71,
        "hand": "right"
      },
      {
        "midi": 50,
        "time": 59,
        "duration": 0.333,
        "velocity": 1,
        "hand": "left"
      },
      {
        "midi": 49,
        "time": 59.333,
        "duration": 0.333,
        "velocity": 1,
        "hand": "left"
      },
      {
        "midi": 71,
        "time": 59.333,
        "duration": 0.667,
        "velocity": 0.71,
        "hand": "right"
      },
      {
        "midi": 47,
        "time": 59.667,
        "duration": 0.333,
        "velocity": 1,
        "hand": "left"
      },
      {
        "midi": 52,
        "time": 60,
        "duration": 2,
        "velocity": 1,
        "hand": "left"
      },
      {
        "midi": 67,
        "time": 60,
        "duration": 1.333,
        "velocity": 0.54,
        "hand": "right"
      },
      {
        "midi": 71,
        "time": 60,
        "duration": 0.667,
        "velocity": 0.71,
        "hand": "right"
      },
      {
        "midi": 71,
        "time": 60.667,
        "duration": 0.667,
        "velocity": 0.71,
        "hand": "right"
      },
      {
        "midi": 61,
        "time": 61.333,
        "duration": 1.333,
        "velocity": 0.54,
        "hand": "right"
      },
      {
        "midi": 67,
        "time": 61.333,
        "duration": 1.333,
        "velocity": 0.54,
        "hand": "right"
      },
      {
        "midi": 70,
        "time": 61.333,
        "duration": 0.667,
        "velocity": 0.71,
        "hand": "right"
      },
      {
        "midi": 54,
        "time": 62,
        "duration": 0.667,
        "velocity": 1,
        "hand": "left"
      },
      {
        "midi": 70,
        "time": 62,
        "duration": 0.667,
        "velocity": 0.71,
        "hand": "right"
      },
      {
        "midi": 52,
        "time": 62.667,
        "duration": 0.333,
        "velocity": 1,
        "hand": "left"
      },
      {
        "midi": 67,
        "time": 62.667,
        "duration": 1.333,
        "velocity": 0.54,
        "hand": "right"
      },
      {
        "midi": 71,
        "time": 62.667,
        "duration": 0.667,
        "velocity": 0.71,
        "hand": "right"
      },
      {
        "midi": 50,
        "time": 63,
        "duration": 0.333,
        "velocity": 1,
        "hand": "left"
      },
      {
        "midi": 49,
        "time": 63.333,
        "duration": 0.333,
        "velocity": 1,
        "hand": "left"
      },
      {
        "midi": 71,
        "time": 63.333,
        "duration": 0.667,
        "velocity": 0.71,
        "hand": "right"
      },
      {
        "midi": 47,
        "time": 63.667,
        "duration": 0.333,
        "velocity": 1,
        "hand": "left"
      },
      {
        "midi": 45,
        "time": 64,
        "duration": 0.333,
        "velocity": 1,
        "hand": "left"
      },
      {
        "midi": 67,
        "time": 64,
        "duration": 1.333,
        "velocity": 0.54,
        "hand": "right"
      },
      {
        "midi": 71,
        "time": 64,
        "duration": 0.667,
        "velocity": 0.71,
        "hand": "right"
      },
      {
        "midi": 43,
        "time": 64.333,
        "duration": 0.333,
        "velocity": 1,
        "hand": "left"
      },
      {
        "midi": 38,
        "time": 64.667,
        "duration": 0.333,
        "velocity": 1,
        "hand": "left"
      },
      {
        "midi": 71,
        "time": 64.667,
        "duration": 0.667,
        "velocity": 0.71,
        "hand": "right"
      },
      {
        "midi": 40,
        "time": 65,
        "duration": 0.333,
        "velocity": 1,
        "hand": "left"
      },
      {
        "midi": 42,
        "time": 65.333,
        "duration": 2.667,
        "velocity": 1,
        "hand": "left"
      },
      {
        "midi": 66,
        "time": 65.333,
        "duration": 1.333,
        "velocity": 0.54,
        "hand": "right"
      },
      {
        "midi": 71,
        "time": 65.333,
        "duration": 0.667,
        "velocity": 0.71,
        "hand": "right"
      },
      {
        "midi": 71,
        "time": 66,
        "duration": 0.667,
        "velocity": 0.71,
        "hand": "right"
      },
      {
        "midi": 61,
        "time": 66.667,
        "duration": 1.333,
        "velocity": 0.54,
        "hand": "right"
      },
      {
        "midi": 64,
        "time": 66.667,
        "duration": 1.333,
        "velocity": 0.54,
        "hand": "right"
      },
      {
        "midi": 70,
        "time": 66.667,
        "duration": 0.667,
        "velocity": 0.71,
        "hand": "right"
      },
      {
        "midi": 70,
        "time": 67.333,
        "duration": 0.667,
        "velocity": 0.71,
        "hand": "right"
      },
      {
        "midi": 43,
        "time": 68,
        "duration": 2.667,
        "velocity": 1,
        "hand": "left"
      },
      {
        "midi": 64,
        "time": 68,
        "duration": 1.333,
        "velocity": 0.54,
        "hand": "right"
      },
      {
        "midi": 70,
        "time": 68,
        "duration": 0.667,
        "velocity": 0.71,
        "hand": "right"
      },
      {
        "midi": 70,
        "time": 68.667,
        "duration": 0.667,
        "velocity": 0.71,
        "hand": "right"
      },
      {
        "midi": 59,
        "time": 69.333,
        "duration": 1.333,
        "velocity": 0.54,
        "hand": "left"
      },
      {
        "midi": 62,
        "time": 69.333,
        "duration": 1.333,
        "velocity": 0.54,
        "hand": "right"
      },
      {
        "midi": 71,
        "time": 69.333,
        "duration": 0.667,
        "velocity": 0.71,
        "hand": "right"
      },
      {
        "midi": 71,
        "time": 70,
        "duration": 0.667,
        "velocity": 0.71,
        "hand": "right"
      },
      {
        "midi": 55,
        "time": 70.667,
        "duration": 1.333,
        "velocity": 1,
        "hand": "left"
      },
      {
        "midi": 67,
        "time": 70.667,
        "duration": 1.333,
        "velocity": 0.54,
        "hand": "right"
      },
      {
        "midi": 71,
        "time": 70.667,
        "duration": 0.667,
        "velocity": 0.71,
        "hand": "right"
      },
      {
        "midi": 71,
        "time": 71.333,
        "duration": 0.667,
        "velocity": 0.71,
        "hand": "right"
      },
      {
        "midi": 52,
        "time": 72,
        "duration": 2,
        "velocity": 1,
        "hand": "left"
      },
      {
        "midi": 67,
        "time": 72,
        "duration": 1.333,
        "velocity": 0.54,
        "hand": "right"
      },
      {
        "midi": 71,
        "time": 72,
        "duration": 0.667,
        "velocity": 0.71,
        "hand": "right"
      },
      {
        "midi": 71,
        "time": 72.667,
        "duration": 0.667,
        "velocity": 0.71,
        "hand": "right"
      },
      {
        "midi": 61,
        "time": 73.333,
        "duration": 1.333,
        "velocity": 0.54,
        "hand": "right"
      },
      {
        "midi": 67,
        "time": 73.333,
        "duration": 1.333,
        "velocity": 0.54,
        "hand": "right"
      },
      {
        "midi": 70,
        "time": 73.333,
        "duration": 0.667,
        "velocity": 0.71,
        "hand": "right"
      },
      {
        "midi": 54,
        "time": 74,
        "duration": 0.667,
        "velocity": 1,
        "hand": "left"
      },
      {
        "midi": 70,
        "time": 74,
        "duration": 0.667,
        "velocity": 0.71,
        "hand": "right"
      },
      {
        "midi": 52,
        "time": 74.667,
        "duration": 0.333,
        "velocity": 1,
        "hand": "left"
      },
      {
        "midi": 66,
        "time": 74.667,
        "duration": 1.333,
        "velocity": 0.54,
        "hand": "right"
      },
      {
        "midi": 71,
        "time": 74.667,
        "duration": 0.667,
        "velocity": 0.71,
        "hand": "right"
      },
      {
        "midi": 50,
        "time": 75,
        "duration": 0.333,
        "velocity": 1,
        "hand": "left"
      },
      {
        "midi": 49,
        "time": 75.333,
        "duration": 0.333,
        "velocity": 1,
        "hand": "left"
      },
      {
        "midi": 71,
        "time": 75.333,
        "duration": 0.667,
        "velocity": 0.71,
        "hand": "right"
      },
      {
        "midi": 47,
        "time": 75.667,
        "duration": 0.333,
        "velocity": 1,
        "hand": "left"
      },
      {
        "midi": 52,
        "time": 76,
        "duration": 2,
        "velocity": 1,
        "hand": "left"
      },
      {
        "midi": 67,
        "time": 76,
        "duration": 1.333,
        "velocity": 0.54,
        "hand": "right"
      },
      {
        "midi": 71,
        "time": 76,
        "duration": 0.667,
        "velocity": 0.71,
        "hand": "right"
      },
      {
        "midi": 71,
        "time": 76.667,
        "duration": 0.667,
        "velocity": 0.71,
        "hand": "right"
      },
      {
        "midi": 61,
        "time": 77.333,
        "duration": 1.333,
        "velocity": 0.54,
        "hand": "right"
      },
      {
        "midi": 67,
        "time": 77.333,
        "duration": 1.333,
        "velocity": 0.54,
        "hand": "right"
      },
      {
        "midi": 70,
        "time": 77.333,
        "duration": 0.667,
        "velocity": 0.71,
        "hand": "right"
      },
      {
        "midi": 54,
        "time": 78,
        "duration": 0.667,
        "velocity": 1,
        "hand": "left"
      },
      {
        "midi": 70,
        "time": 78,
        "duration": 0.667,
        "velocity": 0.71,
        "hand": "right"
      },
      {
        "midi": 52,
        "time": 78.667,
        "duration": 0.333,
        "velocity": 1,
        "hand": "left"
      },
      {
        "midi": 67,
        "time": 78.667,
        "duration": 1.333,
        "velocity": 0.54,
        "hand": "right"
      },
      {
        "midi": 71,
        "time": 78.667,
        "duration": 0.667,
        "velocity": 0.71,
        "hand": "right"
      },
      {
        "midi": 50,
        "time": 79,
        "duration": 0.333,
        "velocity": 1,
        "hand": "left"
      },
      {
        "midi": 49,
        "time": 79.333,
        "duration": 0.333,
        "velocity": 1,
        "hand": "left"
      },
      {
        "midi": 71,
        "time": 79.333,
        "duration": 0.667,
        "velocity": 0.71,
        "hand": "right"
      },
      {
        "midi": 47,
        "time": 79.667,
        "duration": 0.333,
        "velocity": 1,
        "hand": "left"
      },
      {
        "midi": 45,
        "time": 80,
        "duration": 0.333,
        "velocity": 1,
        "hand": "left"
      },
      {
        "midi": 67,
        "time": 80,
        "duration": 1.333,
        "velocity": 0.54,
        "hand": "right"
      },
      {
        "midi": 71,
        "time": 80,
        "duration": 0.667,
        "velocity": 0.71,
        "hand": "right"
      },
      {
        "midi": 43,
        "time": 80.333,
        "duration": 0.333,
        "velocity": 1,
        "hand": "left"
      },
      {
        "midi": 38,
        "time": 80.667,
        "duration": 0.333,
        "velocity": 1,
        "hand": "left"
      },
      {
        "midi": 71,
        "time": 80.667,
        "duration": 0.667,
        "velocity": 0.71,
        "hand": "right"
      },
      {
        "midi": 40,
        "time": 81,
        "duration": 0.333,
        "velocity": 1,
        "hand": "left"
      },
      {
        "midi": 42,
        "time": 81.333,
        "duration": 2.667,
        "velocity": 1,
        "hand": "left"
      },
      {
        "midi": 66,
        "time": 81.333,
        "duration": 1.333,
        "velocity": 0.54,
        "hand": "right"
      },
      {
        "midi": 71,
        "time": 81.333,
        "duration": 0.667,
        "velocity": 0.71,
        "hand": "right"
      },
      {
        "midi": 71,
        "time": 82,
        "duration": 0.667,
        "velocity": 0.71,
        "hand": "right"
      },
      {
        "midi": 61,
        "time": 82.667,
        "duration": 1.333,
        "velocity": 0.54,
        "hand": "right"
      },
      {
        "midi": 66,
        "time": 82.667,
        "duration": 1.333,
        "velocity": 0.54,
        "hand": "right"
      },
      {
        "midi": 70,
        "time": 82.667,
        "duration": 0.667,
        "velocity": 0.71,
        "hand": "right"
      },
      {
        "midi": 70,
        "time": 83.333,
        "duration": 0.667,
        "velocity": 0.71,
        "hand": "right"
      },
      {
        "midi": 35,
        "time": 84,
        "duration": 4.333,
        "velocity": 1,
        "hand": "left"
      },
      {
        "midi": 66,
        "time": 84,
        "duration": 1.333,
        "velocity": 0.49,
        "hand": "right"
      },
      {
        "midi": 71,
        "time": 84,
        "duration": 0.667,
        "velocity": 0.71,
        "hand": "right"
      },
      {
        "midi": 71,
        "time": 84.667,
        "duration": 0.667,
        "velocity": 0.71,
        "hand": "right"
      },
      {
        "midi": 62,
        "time": 85.333,
        "duration": 1.333,
        "velocity": 0.49,
        "hand": "right"
      },
      {
        "midi": 66,
        "time": 85.333,
        "duration": 1.333,
        "velocity": 0.49,
        "hand": "right"
      },
      {
        "midi": 71,
        "time": 85.333,
        "duration": 0.667,
        "velocity": 0.71,
        "hand": "right"
      },
      {
        "midi": 71,
        "time": 86,
        "duration": 0.667,
        "velocity": 0.71,
        "hand": "right"
      },
      {
        "midi": 62,
        "time": 86.667,
        "duration": 1.333,
        "velocity": 0.49,
        "hand": "right"
      },
      {
        "midi": 66,
        "time": 86.667,
        "duration": 1.333,
        "velocity": 0.49,
        "hand": "right"
      },
      {
        "midi": 69,
        "time": 86.667,
        "duration": 0.667,
        "velocity": 0.71,
        "hand": "right"
      },
      {
        "midi": 69,
        "time": 87.333,
        "duration": 0.667,
        "velocity": 0.71,
        "hand": "right"
      },
      {
        "midi": 62,
        "time": 88,
        "duration": 1.333,
        "velocity": 0.49,
        "hand": "right"
      },
      {
        "midi": 66,
        "time": 88,
        "duration": 0.667,
        "velocity": 0.71,
        "hand": "right"
      },
      {
        "midi": 47,
        "time": 88.333,
        "duration": 0.333,
        "velocity": 1,
        "hand": "left"
      },
      {
        "midi": 54,
        "time": 88.667,
        "duration": 0.333,
        "velocity": 1,
        "hand": "left"
      },
      {
        "midi": 66,
        "time": 88.667,
        "duration": 0.667,
        "velocity": 0.71,
        "hand": "right"
      },
      {
        "midi": 59,
        "time": 89,
        "duration": 0.333,
        "velocity": 1,
        "hand": "left"
      },
      {
        "midi": 62,
        "time": 89.333,
        "duration": 1.333,
        "velocity": 1,
        "hand": "right"
      },
      {
        "midi": 66,
        "time": 89.333,
        "duration": 0.667,
        "velocity": 0.71,
        "hand": "right"
      },
      {
        "midi": 66,
        "time": 90,
        "duration": 0.667,
        "velocity": 0.71,
        "hand": "right"
      },
      {
        "midi": 61,
        "time": 90.667,
        "duration": 1,
        "velocity": 1,
        "hand": "right"
      },
      {
        "midi": 66,
        "time": 90.667,
        "duration": 0.667,
        "velocity": 0.71,
        "hand": "right"
      },
      {
        "midi": 66,
        "time": 91.333,
        "duration": 0.667,
        "velocity": 0.71,
        "hand": "right"
      },
      {
        "midi": 62,
        "time": 91.667,
        "duration": 0.333,
        "velocity": 1,
        "hand": "right"
      },
      {
        "midi": 59,
        "time": 92,
        "duration": 2,
        "velocity": 1,
        "hand": "left"
      },
      {
        "midi": 62,
        "time": 92,
        "duration": 1.333,
        "velocity": 0.49,
        "hand": "right"
      },
      {
        "midi": 66,
        "time": 92,
        "duration": 0.667,
        "velocity": 0.71,
        "hand": "right"
      },
      {
        "midi": 66,
        "time": 92.667,
        "duration": 0.667,
        "velocity": 0.71,
        "hand": "right"
      },
      {
        "midi": 62,
        "time": 93.333,
        "duration": 1.333,
        "velocity": 0.49,
        "hand": "right"
      },
      {
        "midi": 66,
        "time": 93.333,
        "duration": 0.667,
        "velocity": 0.71,
        "hand": "right"
      },
      {
        "midi": 54,
        "time": 94,
        "duration": 0.667,
        "velocity": 0.86,
        "hand": "left"
      },
      {
        "midi": 66,
        "time": 94,
        "duration": 0.667,
        "velocity": 0.71,
        "hand": "right"
      },
      {
        "midi": 50,
        "time": 94.667,
        "duration": 0.667,
        "velocity": 0.82,
        "hand": "left"
      },
      {
        "midi": 62,
        "time": 94.667,
        "duration": 1.333,
        "velocity": 0.49,
        "hand": "right"
      },
      {
        "midi": 66,
        "time": 94.667,
        "duration": 0.667,
        "velocity": 0.71,
        "hand": "right"
      },
      {
        "midi": 49,
        "time": 95.333,
        "duration": 0.667,
        "velocity": 0.77,
        "hand": "left"
      },
      {
        "midi": 66,
        "time": 95.333,
        "duration": 0.667,
        "velocity": 0.71,
        "hand": "right"
      },
      {
        "midi": 47,
        "time": 96,
        "duration": 5.333,
        "velocity": 0.77,
        "hand": "left"
      },
      {
        "midi": 62,
        "time": 96,
        "duration": 1.333,
        "velocity": 0.49,
        "hand": "right"
      },
      {
        "midi": 66,
        "time": 96,
        "duration": 0.667,
        "velocity": 0.71,
        "hand": "right"
      },
      {
        "midi": 66,
        "time": 96.667,
        "duration": 0.667,
        "velocity": 0.71,
        "hand": "right"
      },
      {
        "midi": 62,
        "time": 98.667,
        "duration": 1.333,
        "velocity": 0.42,
        "hand": "right"
      },
      {
        "midi": 66,
        "time": 98.667,
        "duration": 0.667,
        "velocity": 0.71,
        "hand": "right"
      },
      {
        "midi": 66,
        "time": 99.333,
        "duration": 0.667,
        "velocity": 0.71,
        "hand": "right"
      },
      {
        "midi": 62,
        "time": 100,
        "duration": 1.333,
        "velocity": 0.42,
        "hand": "right"
      },
      {
        "midi": 66,
        "time": 100,
        "duration": 0.667,
        "velocity": 0.71,
        "hand": "right"
      },
      {
        "midi": 66,
        "time": 100.667,
        "duration": 0.667,
        "velocity": 0.71,
        "hand": "right"
      }
    ],
    "hard": [
      {
        "midi": 47,
        "time": 0,
        "duration": 0.333,
        "velocity": 0.54,
        "hand": "left"
      },
      {
        "midi": 62,
        "time": 0,
        "duration": 1.333,
        "velocity": 0.71,
        "hand": "right"
      },
      {
        "midi": 66,
        "time": 0,
        "duration": 1.333,
        "velocity": 0.71,
        "hand": "right"
      },
      {
        "midi": 71,
        "time": 0,
        "duration": 0.667,
        "velocity": 0.71,
        "hand": "right"
      },
      {
        "midi": 50,
        "time": 0.333,
        "duration": 0.333,
        "velocity": 0.6,
        "hand": "left"
      },
      {
        "midi": 54,
        "time": 0.667,
        "duration": 0.333,
        "velocity": 0.66,
        "hand": "left"
      },
      {
        "midi": 71,
        "time": 0.667,
        "duration": 0.667,
        "velocity": 0.71,
        "hand": "right"
      },
      {
        "midi": 59,
        "time": 1,
        "duration": 0.333,
        "velocity": 0.72,
        "hand": "left"
      },
      {
        "midi": 62,
        "time": 1.333,
        "duration": 1.333,
        "velocity": 0.77,
        "hand": "right"
      },
      {
        "midi": 66,
        "time": 1.333,
        "duration": 1.333,
        "velocity": 0.71,
        "hand": "right"
      },
      {
        "midi": 71,
        "time": 1.333,
        "duration": 0.667,
        "velocity": 0.71,
        "hand": "right"
      },
      {
        "midi": 71,
        "time": 2,
        "duration": 0.667,
        "velocity": 0.71,
        "hand": "right"
      },
      {
        "midi": 61,
        "time": 2.667,
        "duration": 1,
        "velocity": 0.77,
        "hand": "right"
      },
      {
        "midi": 66,
        "time": 2.667,
        "duration": 1.333,
        "velocity": 0.71,
        "hand": "right"
      },
      {
        "midi": 71,
        "time": 2.667,
        "duration": 0.667,
        "velocity": 0.71,
        "hand": "right"
      },
      {
        "midi": 71,
        "time": 3.333,
        "duration": 0.667,
        "velocity": 0.71,
        "hand": "right"
      },
      {
        "midi": 62,
        "time": 3.667,
        "duration": 0.333,
        "velocity": 0.77,
        "hand": "right"
      },
      {
        "midi": 59,
        "time": 4,
        "duration": 2,
        "velocity": 0.77,
        "hand": "left"
      },
      {
        "midi": 62,
        "time": 4,
        "duration": 1.333,
        "velocity": 0.71,
        "hand": "right"
      },
      {
        "midi": 66,
        "time": 4,
        "duration": 1.333,
        "velocity": 0.71,
        "hand": "right"
      },
      {
        "midi": 71,
        "time": 4,
        "duration": 0.667,
        "velocity": 0.71,
        "hand": "right"
      },
      {
        "midi": 71,
        "time": 4.667,
        "duration": 0.667,
        "velocity": 0.71,
        "hand": "right"
      },
      {
        "midi": 62,
        "time": 5.333,
        "duration": 1.333,
        "velocity": 0.71,
        "hand": "right"
      },
      {
        "midi": 66,
        "time": 5.333,
        "duration": 1.333,
        "velocity": 0.71,
        "hand": "right"
      },
      {
        "midi": 71,
        "time": 5.333,
        "duration": 0.667,
        "velocity": 0.71,
        "hand": "right"
      },
      {
        "midi": 54,
        "time": 6,
        "duration": 0.667,
        "velocity": 0.64,
        "hand": "left"
      },
      {
        "midi": 71,
        "time": 6,
        "duration": 0.667,
        "velocity": 0.71,
        "hand": "right"
      },
      {
        "midi": 50,
        "time": 6.667,
        "duration": 0.667,
        "velocity": 0.59,
        "hand": "left"
      },
      {
        "midi": 62,
        "time": 6.667,
        "duration": 1.333,
        "velocity": 0.71,
        "hand": "right"
      },
      {
        "midi": 66,
        "time": 6.667,
        "duration": 1.333,
        "velocity": 0.71,
        "hand": "right"
      },
      {
        "midi": 71,
        "time": 6.667,
        "duration": 0.667,
        "velocity": 0.71,
        "hand": "right"
      },
      {
        "midi": 49,
        "time": 7.333,
        "duration": 0.667,
        "velocity": 0.54,
        "hand": "left"
      },
      {
        "midi": 71,
        "time": 7.333,
        "duration": 0.667,
        "velocity": 0.71,
        "hand": "right"
      },
      {
        "midi": 47,
        "time": 8,
        "duration": 0.333,
        "velocity": 0.54,
        "hand": "left"
      },
      {
        "midi": 62,
        "time": 8,
        "duration": 1.333,
        "velocity": 0.71,
        "hand": "right"
      },
      {
        "midi": 66,
        "time": 8,
        "duration": 1.333,
        "velocity": 0.71,
        "hand": "right"
      },
      {
        "midi": 71,
        "time": 8,
        "duration": 0.667,
        "velocity": 0.71,
        "hand": "right"
      },
      {
        "midi": 54,
        "time": 8.333,
        "duration": 0.333,
        "velocity": 0.6,
        "hand": "left"
      },
      {
        "midi": 59,
        "time": 8.667,
        "duration": 0.333,
        "velocity": 0.66,
        "hand": "left"
      },
      {
        "midi": 71,
        "time": 8.667,
        "duration": 0.667,
        "velocity": 0.71,
        "hand": "right"
      },
      {
        "midi": 62,
        "time": 9,
        "duration": 0.333,
        "velocity": 0.72,
        "hand": "right"
      },
      {
        "midi": 66,
        "time": 9.333,
        "duration": 1.333,
        "velocity": 0.77,
        "hand": "right"
      },
      {
        "midi": 71,
        "time": 9.333,
        "duration": 1.333,
        "velocity": 0.71,
        "hand": "right"
      },
      {
        "midi": 74,
        "time": 9.333,
        "duration": 0.667,
        "velocity": 0.71,
        "hand": "right"
      },
      {
        "midi": 74,
        "time": 10,
        "duration": 0.667,
        "velocity": 0.71,
        "hand": "right"
      },
      {
        "midi": 64,
        "time": 10.667,
        "duration": 1,
        "velocity": 0.77,
        "hand": "right"
      },
      {
        "midi": 71,
        "time": 10.667,
        "duration": 1.333,
        "velocity": 0.71,
        "hand": "right"
      },
      {
        "midi": 74,
        "time": 10.667,
        "duration": 0.667,
        "velocity": 0.71,
        "hand": "right"
      },
      {
        "midi": 74,
        "time": 11.333,
        "duration": 0.667,
        "velocity": 0.71,
        "hand": "right"
      },
      {
        "midi": 66,
        "time": 11.667,
        "duration": 0.333,
        "velocity": 0.77,
        "hand": "right"
      },
      {
        "midi": 62,
        "time": 12,
        "duration": 2,
        "velocity": 0.77,
        "hand": "right"
      },
      {
        "midi": 66,
        "time": 12,
        "duration": 1.333,
        "velocity": 0.71,
        "hand": "right"
      },
      {
        "midi": 71,
        "time": 12,
        "duration": 1.333,
        "velocity": 0.71,
        "hand": "right"
      },
      {
        "midi": 74,
        "time": 12,
        "duration": 0.667,
        "velocity": 0.71,
        "hand": "right"
      },
      {
        "midi": 74,
        "time": 12.667,
        "duration": 0.667,
        "velocity": 0.71,
        "hand": "right"
      },
      {
        "midi": 66,
        "time": 13.333,
        "duration": 1.333,
        "velocity": 0.71,
        "hand": "right"
      },
      {
        "midi": 71,
        "time": 13.333,
        "duration": 1.333,
        "velocity": 0.71,
        "hand": "right"
      },
      {
        "midi": 74,
        "time": 13.333,
        "duration": 0.667,
        "velocity": 0.71,
        "hand": "right"
      },
      {
        "midi": 59,
        "time": 14,
        "duration": 0.667,
        "velocity": 0.64,
        "hand": "left"
      },
      {
        "midi": 74,
        "time": 14,
        "duration": 0.667,
        "velocity": 0.71,
        "hand": "right"
      },
      {
        "midi": 54,
        "time": 14.667,
        "duration": 0.667,
        "velocity": 0.59,
        "hand": "left"
      },
      {
        "midi": 66,
        "time": 14.667,
        "duration": 1.333,
        "velocity": 0.71,
        "hand": "right"
      },
      {
        "midi": 71,
        "time": 14.667,
        "duration": 1.333,
        "velocity": 0.71,
        "hand": "right"
      },
      {
        "midi": 74,
        "time": 14.667,
        "duration": 0.667,
        "velocity": 0.71,
        "hand": "right"
      },
      {
        "midi": 50,
        "time": 15.333,
        "duration": 0.667,
        "velocity": 0.54,
        "hand": "left"
      },
      {
        "midi": 74,
        "time": 15.333,
        "duration": 0.667,
        "velocity": 0.71,
        "hand": "right"
      },
      {
        "midi": 43,
        "time": 16,
        "duration": 0.333,
        "velocity": 0.54,
        "hand": "left"
      },
      {
        "midi": 67,
        "time": 16,
        "duration": 1.333,
        "velocity": 0.71,
        "hand": "right"
      },
      {
        "midi": 71,
        "time": 16,
        "duration": 1.333,
        "velocity": 0.71,
        "hand": "right"
      },
      {
        "midi": 74,
        "time": 16,
        "duration": 0.667,
        "velocity": 0.71,
        "hand": "right"
      },
      {
        "midi": 50,
        "time": 16.333,
        "duration": 0.333,
        "velocity": 0.6,
        "hand": "left"
      },
      {
        "midi": 59,
        "time": 16.667,
        "duration": 0.333,
        "velocity": 0.66,
        "hand": "left"
      },
      {
        "midi": 74,
        "time": 16.667,
        "duration": 0.667,
        "velocity": 0.71,
        "hand": "right"
      },
      {
        "midi": 62,
        "time": 17,
        "duration": 0.333,
        "velocity": 0.72,
        "hand": "right"
      },
      {
        "midi": 67,
        "time": 17.333,
        "duration": 1.333,
        "velocity": 0.77,
        "hand": "right"
      },
      {
        "midi": 71,
        "time": 17.333,
        "duration": 1.333,
        "velocity": 0.71,
        "hand": "right"
      },
      {
        "midi": 74,
        "time": 17.333,
        "duration": 0.667,
        "velocity": 0.71,
        "hand": "right"
      },
      {
        "midi": 74,
        "time": 18,
        "duration": 0.667,
        "velocity": 0.71,
        "hand": "right"
      },
      {
        "midi": 66,
        "time": 18.667,
        "duration": 1.333,
        "velocity": 0.77,
        "hand": "right"
      },
      {
        "midi": 71,
        "time": 18.667,
        "duration": 1.333,
        "velocity": 0.71,
        "hand": "right"
      },
      {
        "midi": 74,
        "time": 18.667,
        "duration": 0.667,
        "velocity": 0.71,
        "hand": "right"
      },
      {
        "midi": 74,
        "time": 19.333,
        "duration": 0.667,
        "velocity": 0.71,
        "hand": "right"
      },
      {
        "midi": 66,
        "time": 20,
        "duration": 1.333,
        "velocity": 0.77,
        "hand": "right"
      },
      {
        "midi": 68,
        "time": 20,
        "duration": 1.333,
        "velocity": 0.71,
        "hand": "right"
      },
      {
        "midi": 71,
        "time": 20,
        "duration": 1.333,
        "velocity": 0.71,
        "hand": "right"
      },
      {
        "midi": 74,
        "time": 20,
        "duration": 0.667,
        "velocity": 0.71,
        "hand": "right"
      },
      {
        "midi": 74,
        "time": 20.667,
        "duration": 0.667,
        "velocity": 0.71,
        "hand": "right"
      },
      {
        "midi": 65,
        "time": 21.333,
        "duration": 1.333,
        "velocity": 0.54,
        "hand": "right"
      },
      {
        "midi": 68,
        "time": 21.333,
        "duration": 1.333,
        "velocity": 0.71,
        "hand": "right"
      },
      {
        "midi": 71,
        "time": 21.333,
        "duration": 1.333,
        "velocity": 0.71,
        "hand": "right"
      },
      {
        "midi": 73,
        "time": 21.333,
        "duration": 0.667,
        "velocity": 0.71,
        "hand": "right"
      },
      {
        "midi": 73,
        "time": 22,
        "duration": 0.667,
        "velocity": 0.71,
        "hand": "right"
      },
      {
        "midi": 64,
        "time": 22.667,
        "duration": 0.667,
        "velocity": 0.54,
        "hand": "right"
      },
      {
        "midi": 67,
        "time": 22.667,
        "duration": 1.333,
        "velocity": 0.71,
        "hand": "right"
      },
      {
        "midi": 70,
        "time": 22.667,
        "duration": 0.667,
        "velocity": 0.71,
        "hand": "right"
      },
      {
        "midi": 73,
        "time": 22.667,
        "duration": 0.667,
        "velocity": 0.71,
        "hand": "right"
      },
      {
        "midi": 62,
        "time": 23.333,
        "duration": 0.667,
        "velocity": 0.54,
        "hand": "right"
      },
      {
        "midi": 71,
        "time": 23.333,
        "duration": 0.667,
        "velocity": 0.71,
        "hand": "right"
      },
      {
        "midi": 74,
        "time": 23.333,
        "duration": 0.667,
        "velocity": 0.71,
        "hand": "right"
      },
      {
        "midi": 61,
        "time": 24,
        "duration": 0.667,
        "velocity": 0.54,
        "hand": "right"
      },
      {
        "midi": 67,
        "time": 24,
        "duration": 0.667,
        "velocity": 0.71,
        "hand": "right"
      },
      {
        "midi": 70,
        "time": 24,
        "duration": 0.667,
        "velocity": 0.71,
        "hand": "right"
      },
      {
        "midi": 76,
        "time": 24,
        "duration": 2,
        "velocity": 0.71,
        "hand": "right"
      },
      {
        "midi": 62,
        "time": 24.667,
        "duration": 0.667,
        "velocity": 0.54,
        "hand": "right"
      },
      {
        "midi": 64,
        "time": 24.667,
        "duration": 0.167,
        "velocity": 0.54,
        "hand": "right"
      },
      {
        "midi": 67,
        "time": 24.667,
        "duration": 0.667,
        "velocity": 0.71,
        "hand": "right"
      },
      {
        "midi": 71,
        "time": 24.667,
        "duration": 0.667,
        "velocity": 0.71,
        "hand": "right"
      },
      {
        "midi": 61,
        "time": 25.333,
        "duration": 0.667,
        "velocity": 0.54,
        "hand": "right"
      },
      {
        "midi": 67,
        "time": 25.333,
        "duration": 0.667,
        "velocity": 0.71,
        "hand": "right"
      },
      {
        "midi": 70,
        "time": 25.333,
        "duration": 0.667,
        "velocity": 0.71,
        "hand": "right"
      },
      {
        "midi": 58,
        "time": 26,
        "duration": 0.667,
        "velocity": 0.54,
        "hand": "left"
      },
      {
        "midi": 66,
        "time": 26,
        "duration": 0.667,
        "velocity": 0.71,
        "hand": "right"
      },
      {
        "midi": 73,
        "time": 26,
        "duration": 0.667,
        "velocity": 0.71,
        "hand": "right"
      },
      {
        "midi": 78,
        "time": 26,
        "duration": 0.667,
        "velocity": 0.71,
        "hand": "right"
      },
      {
        "midi": 59,
        "time": 26.667,
        "duration": 0.667,
        "velocity": 0.54,
        "hand": "left"
      },
      {
        "midi": 66,
        "time": 26.667,
        "duration": 0.667,
        "velocity": 0.71,
        "hand": "right"
      },
      {
        "midi": 71,
        "time": 26.667,
        "duration": 0.667,
        "velocity": 0.71,
        "hand": "right"
      },
      {
        "midi": 76,
        "time": 26.667,
        "duration": 0.333,
        "velocity": 0.71,
        "hand": "right"
      },
      {
        "midi": 74,
        "time": 27,
        "duration": 0.333,
        "velocity": 0.71,
        "hand": "right"
      },
      {
        "midi": 50,
        "time": 27.333,
        "duration": 0.667,
        "velocity": 0.54,
        "hand": "left"
      },
      {
        "midi": 66,
        "time": 27.333,
        "duration": 0.667,
        "velocity": 0.71,
        "hand": "right"
      },
      {
        "midi": 73,
        "time": 27.333,
        "duration": 0.333,
        "velocity": 0.71,
        "hand": "right"
      },
      {
        "midi": 74,
        "time": 27.333,
        "duration": 0.167,
        "velocity": 0.71,
        "hand": "right"
      },
      {
        "midi": 71,
        "time": 27.667,
        "duration": 0.333,
        "velocity": 0.71,
        "hand": "right"
      },
      {
        "midi": 52,
        "time": 28,
        "duration": 0.667,
        "velocity": 0.54,
        "hand": "left"
      },
      {
        "midi": 61,
        "time": 28,
        "duration": 0.667,
        "velocity": 0.71,
        "hand": "right"
      },
      {
        "midi": 67,
        "time": 28,
        "duration": 0.667,
        "velocity": 0.71,
        "hand": "right"
      },
      {
        "midi": 70,
        "time": 28,
        "duration": 0.667,
        "velocity": 0.71,
        "hand": "right"
      },
      {
        "midi": 53,
        "time": 28.667,
        "duration": 0.667,
        "velocity": 0.54,
        "hand": "left"
      },
      {
        "midi": 62,
        "time": 28.667,
        "duration": 0.667,
        "velocity": 0.93,
        "hand": "right"
      },
      {
        "midi": 68,
        "time": 28.667,
        "duration": 0.667,
        "velocity": 0.93,
        "hand": "right"
      },
      {
        "midi": 71,
        "time": 28.667,
        "duration": 0.667,
        "velocity": 0.93,
        "hand": "right"
      },
      {
        "midi": 54,
        "time": 29.333,
        "duration": 1.333,
        "velocity": 0.54,
        "hand": "left"
      },
      {
        "midi": 62,
        "time": 29.333,
        "duration": 0.667,
        "velocity": 0.93,
        "hand": "right"
      },
      {
        "midi": 71,
        "time": 29.333,
        "duration": 0.667,
        "velocity": 0.93,
        "hand": "right"
      },
      {
        "midi": 74,
        "time": 29.333,
        "duration": 0.667,
        "velocity": 0.93,
        "hand": "right"
      },
      {
        "midi": 61,
        "time": 30,
        "duration": 0.667,
        "velocity": 0.71,
        "hand": "right"
      },
      {
        "midi": 70,
        "time": 30,
        "duration": 0.667,
        "velocity": 0.71,
        "hand": "right"
      },
      {
        "midi": 73,
        "time": 30,
        "duration": 0.667,
        "velocity": 0.71,
        "hand": "right"
      },
      {
        "midi": 50,
        "time": 30.667,
        "duration": 0.667,
        "velocity": 0.54,
        "hand": "left"
      },
      {
        "midi": 49,
        "time": 31.333,
        "duration": 0.667,
        "velocity": 0.54,
        "hand": "left"
      },
      {
        "midi": 47,
        "time": 32,
        "duration": 0.333,
        "velocity": 0.54,
        "hand": "left"
      },
      {
        "midi": 62,
        "time": 32,
        "duration": 1.333,
        "velocity": 0.71,
        "hand": "right"
      },
      {
        "midi": 66,
        "time": 32,
        "duration": 1.333,
        "velocity": 0.71,
        "hand": "right"
      },
      {
        "midi": 71,
        "time": 32,
        "duration": 0.667,
        "velocity": 0.71,
        "hand": "right"
      },
      {
        "midi": 50,
        "time": 32.333,
        "duration": 0.333,
        "velocity": 0.6,
        "hand": "left"
      },
      {
        "midi": 54,
        "time": 32.667,
        "duration": 0.333,
        "velocity": 0.66,
        "hand": "left"
      },
      {
        "midi": 71,
        "time": 32.667,
        "duration": 0.667,
        "velocity": 0.71,
        "hand": "right"
      },
      {
        "midi": 59,
        "time": 33,
        "duration": 0.333,
        "velocity": 0.72,
        "hand": "left"
      },
      {
        "midi": 62,
        "time": 33.333,
        "duration": 1.333,
        "velocity": 0.77,
        "hand": "right"
      },
      {
        "midi": 66,
        "time": 33.333,
        "duration": 1.333,
        "velocity": 0.71,
        "hand": "right"
      },
      {
        "midi": 71,
        "time": 33.333,
        "duration": 0.667,
        "velocity": 0.71,
        "hand": "right"
      },
      {
        "midi": 71,
        "time": 34,
        "duration": 0.667,
        "velocity": 0.71,
        "hand": "right"
      },
      {
        "midi": 61,
        "time": 34.667,
        "duration": 1,
        "velocity": 0.77,
        "hand": "right"
      },
      {
        "midi": 66,
        "time": 34.667,
        "duration": 1.333,
        "velocity": 0.71,
        "hand": "right"
      },
      {
        "midi": 71,
        "time": 34.667,
        "duration": 0.667,
        "velocity": 0.71,
        "hand": "right"
      },
      {
        "midi": 71,
        "time": 35.333,
        "duration": 0.667,
        "velocity": 0.71,
        "hand": "right"
      },
      {
        "midi": 62,
        "time": 35.667,
        "duration": 0.333,
        "velocity": 0.77,
        "hand": "right"
      },
      {
        "midi": 59,
        "time": 36,
        "duration": 2,
        "velocity": 0.77,
        "hand": "left"
      },
      {
        "midi": 62,
        "time": 36,
        "duration": 1.333,
        "velocity": 0.71,
        "hand": "right"
      },
      {
        "midi": 66,
        "time": 36,
        "duration": 1.333,
        "velocity": 0.71,
        "hand": "right"
      },
      {
        "midi": 71,
        "time": 36,
        "duration": 0.667,
        "velocity": 0.71,
        "hand": "right"
      },
      {
        "midi": 71,
        "time": 36.667,
        "duration": 0.667,
        "velocity": 0.71,
        "hand": "right"
      },
      {
        "midi": 62,
        "time": 37.333,
        "duration": 1.333,
        "velocity": 0.71,
        "hand": "right"
      },
      {
        "midi": 66,
        "time": 37.333,
        "duration": 1.333,
        "velocity": 0.71,
        "hand": "right"
      },
      {
        "midi": 71,
        "time": 37.333,
        "duration": 0.667,
        "velocity": 0.71,
        "hand": "right"
      },
      {
        "midi": 54,
        "time": 38,
        "duration": 0.667,
        "velocity": 0.64,
        "hand": "left"
      },
      {
        "midi": 71,
        "time": 38,
        "duration": 0.667,
        "velocity": 0.71,
        "hand": "right"
      },
      {
        "midi": 50,
        "time": 38.667,
        "duration": 0.667,
        "velocity": 0.59,
        "hand": "left"
      },
      {
        "midi": 62,
        "time": 38.667,
        "duration": 1.333,
        "velocity": 0.71,
        "hand": "right"
      },
      {
        "midi": 66,
        "time": 38.667,
        "duration": 1.333,
        "velocity": 0.71,
        "hand": "right"
      },
      {
        "midi": 71,
        "time": 38.667,
        "duration": 0.667,
        "velocity": 0.71,
        "hand": "right"
      },
      {
        "midi": 47,
        "time": 39.333,
        "duration": 0.667,
        "velocity": 0.54,
        "hand": "left"
      },
      {
        "midi": 71,
        "time": 39.333,
        "duration": 0.667,
        "velocity": 0.71,
        "hand": "right"
      },
      {
        "midi": 43,
        "time": 40,
        "duration": 0.333,
        "velocity": 0.54,
        "hand": "left"
      },
      {
        "midi": 62,
        "time": 40,
        "duration": 1.333,
        "velocity": 0.71,
        "hand": "right"
      },
      {
        "midi": 67,
        "time": 40,
        "duration": 1.333,
        "velocity": 0.71,
        "hand": "right"
      },
      {
        "midi": 71,
        "time": 40,
        "duration": 0.667,
        "velocity": 0.71,
        "hand": "right"
      },
      {
        "midi": 50,
        "time": 40.333,
        "duration": 0.333,
        "velocity": 0.57,
        "hand": "left"
      },
      {
        "midi": 55,
        "time": 40.667,
        "duration": 0.333,
        "velocity": 0.59,
        "hand": "left"
      },
      {
        "midi": 71,
        "time": 40.667,
        "duration": 0.667,
        "velocity": 0.71,
        "hand": "right"
      },
      {
        "midi": 59,
        "time": 41,
        "duration": 0.333,
        "velocity": 0.61,
        "hand": "left"
      },
      {
        "midi": 62,
        "time": 41.333,
        "duration": 1.333,
        "velocity": 0.64,
        "hand": "right"
      },
      {
        "midi": 67,
        "time": 41.333,
        "duration": 1.333,
        "velocity": 0.71,
        "hand": "right"
      },
      {
        "midi": 71,
        "time": 41.333,
        "duration": 0.667,
        "velocity": 0.71,
        "hand": "right"
      },
      {
        "midi": 71,
        "time": 42,
        "duration": 0.667,
        "velocity": 0.71,
        "hand": "right"
      },
      {
        "midi": 64,
        "time": 42.667,
        "duration": 0.667,
        "velocity": 0.72,
        "hand": "right"
      },
      {
        "midi": 67,
        "time": 42.667,
        "duration": 1.333,
        "velocity": 0.71,
        "hand": "right"
      },
      {
        "midi": 71,
        "time": 42.667,
        "duration": 0.667,
        "velocity": 0.71,
        "hand": "right"
      },
      {
        "midi": 65,
        "time": 43.333,
        "duration": 0.667,
        "velocity": 0.77,
        "hand": "right"
      },
      {
        "midi": 71,
        "time": 43.333,
        "duration": 0.667,
        "velocity": 0.71,
        "hand": "right"
      },
      {
        "midi": 64,
        "time": 44,
        "duration": 2,
        "velocity": 0.77,
        "hand": "right"
      },
      {
        "midi": 67,
        "time": 44,
        "duration": 1.333,
        "velocity": 0.71,
        "hand": "right"
      },
      {
        "midi": 72,
        "time": 44,
        "duration": 0.667,
        "velocity": 0.71,
        "hand": "right"
      },
      {
        "midi": 72,
        "time": 44.667,
        "duration": 0.667,
        "velocity": 0.71,
        "hand": "right"
      },
      {
        "midi": 64,
        "time": 45.333,
        "duration": 1.333,
        "velocity": 0.71,
        "hand": "right"
      },
      {
        "midi": 67,
        "time": 45.333,
        "duration": 1.333,
        "velocity": 0.71,
        "hand": "right"
      },
      {
        "midi": 72,
        "time": 45.333,
        "duration": 0.667,
        "velocity": 0.71,
        "hand": "right"
      },
      {
        "midi": 60,
        "time": 46,
        "duration": 0.667,
        "velocity": 0.64,
        "hand": "right"
      },
      {
        "midi": 72,
        "time": 46,
        "duration": 0.667,
        "velocity": 0.71,
        "hand": "right"
      },
      {
        "midi": 55,
        "time": 46.667,
        "duration": 0.667,
        "velocity": 0.59,
        "hand": "left"
      },
      {
        "midi": 64,
        "time": 46.667,
        "duration": 1.333,
        "velocity": 0.71,
        "hand": "right"
      },
      {
        "midi": 67,
        "time": 46.667,
        "duration": 1.333,
        "velocity": 0.71,
        "hand": "right"
      },
      {
        "midi": 72,
        "time": 46.667,
        "duration": 0.667,
        "velocity": 0.71,
        "hand": "right"
      },
      {
        "midi": 48,
        "time": 47.333,
        "duration": 0.667,
        "velocity": 0.54,
        "hand": "left"
      },
      {
        "midi": 72,
        "time": 47.333,
        "duration": 0.667,
        "velocity": 0.71,
        "hand": "right"
      },
      {
        "midi": 36,
        "time": 48,
        "duration": 0.333,
        "velocity": 0.54,
        "hand": "left"
      },
      {
        "midi": 64,
        "time": 48,
        "duration": 1.333,
        "velocity": 0.71,
        "hand": "right"
      },
      {
        "midi": 67,
        "time": 48,
        "duration": 1.333,
        "velocity": 0.71,
        "hand": "right"
      },
      {
        "midi": 72,
        "time": 48,
        "duration": 0.667,
        "velocity": 0.71,
        "hand": "right"
      },
      {
        "midi": 43,
        "time": 48.333,
        "duration": 0.333,
        "velocity": 0.6,
        "hand": "left"
      },
      {
        "midi": 52,
        "time": 48.667,
        "duration": 0.333,
        "velocity": 0.66,
        "hand": "left"
      },
      {
        "midi": 72,
        "time": 48.667,
        "duration": 0.667,
        "velocity": 0.71,
        "hand": "right"
      },
      {
        "midi": 55,
        "time": 49,
        "duration": 0.333,
        "velocity": 0.72,
        "hand": "left"
      },
      {
        "midi": 64,
        "time": 49.333,
        "duration": 1.333,
        "velocity": 0.77,
        "hand": "right"
      },
      {
        "midi": 67,
        "time": 49.333,
        "duration": 1.333,
        "velocity": 0.71,
        "hand": "right"
      },
      {
        "midi": 72,
        "time": 49.333,
        "duration": 0.667,
        "velocity": 0.71,
        "hand": "right"
      },
      {
        "midi": 72,
        "time": 50,
        "duration": 0.667,
        "velocity": 0.71,
        "hand": "right"
      },
      {
        "midi": 36,
        "time": 50.667,
        "duration": 0.333,
        "velocity": 0.77,
        "hand": "left"
      },
      {
        "midi": 64,
        "time": 50.667,
        "duration": 1.333,
        "velocity": 0.71,
        "hand": "right"
      },
      {
        "midi": 67,
        "time": 50.667,
        "duration": 1.333,
        "velocity": 0.71,
        "hand": "right"
      },
      {
        "midi": 72,
        "time": 50.667,
        "duration": 0.667,
        "velocity": 0.71,
        "hand": "right"
      },
      {
        "midi": 43,
        "time": 51,
        "duration": 0.333,
        "velocity": 0.83,
        "hand": "left"
      },
      {
        "midi": 52,
        "time": 51.333,
        "duration": 0.333,
        "velocity": 0.88,
        "hand": "left"
      },
      {
        "midi": 72,
        "time": 51.333,
        "duration": 0.667,
        "velocity": 0.71,
        "hand": "right"
      },
      {
        "midi": 55,
        "time": 51.667,
        "duration": 0.333,
        "velocity": 0.94,
        "hand": "left"
      },
      {
        "midi": 64,
        "time": 52,
        "duration": 2.667,
        "velocity": 1,
        "hand": "right"
      },
      {
        "midi": 67,
        "time": 52,
        "duration": 1.333,
        "velocity": 0.71,
        "hand": "right"
      },
      {
        "midi": 72,
        "time": 52,
        "duration": 0.667,
        "velocity": 0.71,
        "hand": "right"
      },
      {
        "midi": 72,
        "time": 52.667,
        "duration": 0.667,
        "velocity": 0.71,
        "hand": "right"
      },
      {
        "midi": 67,
        "time": 53.333,
        "duration": 1.333,
        "velocity": 0.71,
        "hand": "right"
      },
      {
        "midi": 72,
        "time": 53.333,
        "duration": 0.667,
        "velocity": 0.71,
        "hand": "right"
      },
      {
        "midi": 72,
        "time": 54,
        "duration": 0.667,
        "velocity": 0.71,
        "hand": "right"
      },
      {
        "midi": 67,
        "time": 54.667,
        "duration": 1.333,
        "velocity": 0.71,
        "hand": "right"
      },
      {
        "midi": 71,
        "time": 54.667,
        "duration": 0.667,
        "velocity": 0.71,
        "hand": "right"
      },
      {
        "midi": 71,
        "time": 55.333,
        "duration": 0.667,
        "velocity": 0.71,
        "hand": "right"
      },
      {
        "midi": 52,
        "time": 56,
        "duration": 2,
        "velocity": 1,
        "hand": "left"
      },
      {
        "midi": 61,
        "time": 56,
        "duration": 1.333,
        "velocity": 0.54,
        "hand": "right"
      },
      {
        "midi": 67,
        "time": 56,
        "duration": 1.333,
        "velocity": 0.54,
        "hand": "right"
      },
      {
        "midi": 70,
        "time": 56,
        "duration": 0.667,
        "velocity": 0.71,
        "hand": "right"
      },
      {
        "midi": 70,
        "time": 56.667,
        "duration": 0.667,
        "velocity": 0.71,
        "hand": "right"
      },
      {
        "midi": 61,
        "time": 57.333,
        "duration": 1.333,
        "velocity": 0.54,
        "hand": "right"
      },
      {
        "midi": 66,
        "time": 57.333,
        "duration": 1.333,
        "velocity": 0.54,
        "hand": "right"
      },
      {
        "midi": 70,
        "time": 57.333,
        "duration": 0.667,
        "velocity": 0.71,
        "hand": "right"
      },
      {
        "midi": 54,
        "time": 58,
        "duration": 0.667,
        "velocity": 1,
        "hand": "left"
      },
      {
        "midi": 70,
        "time": 58,
        "duration": 0.667,
        "velocity": 0.71,
        "hand": "right"
      },
      {
        "midi": 52,
        "time": 58.667,
        "duration": 0.333,
        "velocity": 1,
        "hand": "left"
      },
      {
        "midi": 62,
        "time": 58.667,
        "duration": 1.333,
        "velocity": 0.54,
        "hand": "right"
      },
      {
        "midi": 66,
        "time": 58.667,
        "duration": 1.333,
        "velocity": 0.54,
        "hand": "right"
      },
      {
        "midi": 71,
        "time": 58.667,
        "duration": 0.667,
        "velocity": 0.71,
        "hand": "right"
      },
      {
        "midi": 50,
        "time": 59,
        "duration": 0.333,
        "velocity": 1,
        "hand": "left"
      },
      {
        "midi": 49,
        "time": 59.333,
        "duration": 0.333,
        "velocity": 1,
        "hand": "left"
      },
      {
        "midi": 71,
        "time": 59.333,
        "duration": 0.667,
        "velocity": 0.71,
        "hand": "right"
      },
      {
        "midi": 47,
        "time": 59.667,
        "duration": 0.333,
        "velocity": 1,
        "hand": "left"
      },
      {
        "midi": 52,
        "time": 60,
        "duration": 2,
        "velocity": 1,
        "hand": "left"
      },
      {
        "midi": 61,
        "time": 60,
        "duration": 1.333,
        "velocity": 0.54,
        "hand": "right"
      },
      {
        "midi": 67,
        "time": 60,
        "duration": 1.333,
        "velocity": 0.54,
        "hand": "right"
      },
      {
        "midi": 71,
        "time": 60,
        "duration": 0.667,
        "velocity": 0.71,
        "hand": "right"
      },
      {
        "midi": 71,
        "time": 60.667,
        "duration": 0.667,
        "velocity": 0.71,
        "hand": "right"
      },
      {
        "midi": 61,
        "time": 61.333,
        "duration": 1.333,
        "velocity": 0.54,
        "hand": "right"
      },
      {
        "midi": 67,
        "time": 61.333,
        "duration": 1.333,
        "velocity": 0.54,
        "hand": "right"
      },
      {
        "midi": 70,
        "time": 61.333,
        "duration": 0.667,
        "velocity": 0.71,
        "hand": "right"
      },
      {
        "midi": 54,
        "time": 62,
        "duration": 0.667,
        "velocity": 1,
        "hand": "left"
      },
      {
        "midi": 70,
        "time": 62,
        "duration": 0.667,
        "velocity": 0.71,
        "hand": "right"
      },
      {
        "midi": 52,
        "time": 62.667,
        "duration": 0.333,
        "velocity": 1,
        "hand": "left"
      },
      {
        "midi": 62,
        "time": 62.667,
        "duration": 1.333,
        "velocity": 0.54,
        "hand": "right"
      },
      {
        "midi": 67,
        "time": 62.667,
        "duration": 1.333,
        "velocity": 0.54,
        "hand": "right"
      },
      {
        "midi": 71,
        "time": 62.667,
        "duration": 0.667,
        "velocity": 0.71,
        "hand": "right"
      },
      {
        "midi": 50,
        "time": 63,
        "duration": 0.333,
        "velocity": 1,
        "hand": "left"
      },
      {
        "midi": 49,
        "time": 63.333,
        "duration": 0.333,
        "velocity": 1,
        "hand": "left"
      },
      {
        "midi": 71,
        "time": 63.333,
        "duration": 0.667,
        "velocity": 0.71,
        "hand": "right"
      },
      {
        "midi": 47,
        "time": 63.667,
        "duration": 0.333,
        "velocity": 1,
        "hand": "left"
      },
      {
        "midi": 45,
        "time": 64,
        "duration": 0.333,
        "velocity": 1,
        "hand": "left"
      },
      {
        "midi": 62,
        "time": 64,
        "duration": 1.333,
        "velocity": 0.54,
        "hand": "right"
      },
      {
        "midi": 67,
        "time": 64,
        "duration": 1.333,
        "velocity": 0.54,
        "hand": "right"
      },
      {
        "midi": 71,
        "time": 64,
        "duration": 0.667,
        "velocity": 0.71,
        "hand": "right"
      },
      {
        "midi": 43,
        "time": 64.333,
        "duration": 0.333,
        "velocity": 1,
        "hand": "left"
      },
      {
        "midi": 38,
        "time": 64.667,
        "duration": 0.333,
        "velocity": 1,
        "hand": "left"
      },
      {
        "midi": 71,
        "time": 64.667,
        "duration": 0.667,
        "velocity": 0.71,
        "hand": "right"
      },
      {
        "midi": 40,
        "time": 65,
        "duration": 0.333,
        "velocity": 1,
        "hand": "left"
      },
      {
        "midi": 42,
        "time": 65.333,
        "duration": 2.667,
        "velocity": 1,
        "hand": "left"
      },
      {
        "midi": 61,
        "time": 65.333,
        "duration": 1.333,
        "velocity": 0.54,
        "hand": "right"
      },
      {
        "midi": 66,
        "time": 65.333,
        "duration": 1.333,
        "velocity": 0.54,
        "hand": "right"
      },
      {
        "midi": 71,
        "time": 65.333,
        "duration": 0.667,
        "velocity": 0.71,
        "hand": "right"
      },
      {
        "midi": 71,
        "time": 66,
        "duration": 0.667,
        "velocity": 0.71,
        "hand": "right"
      },
      {
        "midi": 61,
        "time": 66.667,
        "duration": 1.333,
        "velocity": 0.54,
        "hand": "right"
      },
      {
        "midi": 64,
        "time": 66.667,
        "duration": 1.333,
        "velocity": 0.54,
        "hand": "right"
      },
      {
        "midi": 70,
        "time": 66.667,
        "duration": 0.667,
        "velocity": 0.71,
        "hand": "right"
      },
      {
        "midi": 70,
        "time": 67.333,
        "duration": 0.667,
        "velocity": 0.71,
        "hand": "right"
      },
      {
        "midi": 43,
        "time": 68,
        "duration": 2.667,
        "velocity": 1,
        "hand": "left"
      },
      {
        "midi": 61,
        "time": 68,
        "duration": 1.333,
        "velocity": 0.54,
        "hand": "right"
      },
      {
        "midi": 64,
        "time": 68,
        "duration": 1.333,
        "velocity": 0.54,
        "hand": "right"
      },
      {
        "midi": 70,
        "time": 68,
        "duration": 0.667,
        "velocity": 0.71,
        "hand": "right"
      },
      {
        "midi": 70,
        "time": 68.667,
        "duration": 0.667,
        "velocity": 0.71,
        "hand": "right"
      },
      {
        "midi": 59,
        "time": 69.333,
        "duration": 1.333,
        "velocity": 0.54,
        "hand": "left"
      },
      {
        "midi": 62,
        "time": 69.333,
        "duration": 1.333,
        "velocity": 0.54,
        "hand": "right"
      },
      {
        "midi": 71,
        "time": 69.333,
        "duration": 0.667,
        "velocity": 0.71,
        "hand": "right"
      },
      {
        "midi": 71,
        "time": 70,
        "duration": 0.667,
        "velocity": 0.71,
        "hand": "right"
      },
      {
        "midi": 55,
        "time": 70.667,
        "duration": 1.333,
        "velocity": 1,
        "hand": "left"
      },
      {
        "midi": 62,
        "time": 70.667,
        "duration": 1.333,
        "velocity": 0.54,
        "hand": "right"
      },
      {
        "midi": 67,
        "time": 70.667,
        "duration": 1.333,
        "velocity": 0.54,
        "hand": "right"
      },
      {
        "midi": 71,
        "time": 70.667,
        "duration": 0.667,
        "velocity": 0.71,
        "hand": "right"
      },
      {
        "midi": 71,
        "time": 71.333,
        "duration": 0.667,
        "velocity": 0.71,
        "hand": "right"
      },
      {
        "midi": 52,
        "time": 72,
        "duration": 2,
        "velocity": 1,
        "hand": "left"
      },
      {
        "midi": 61,
        "time": 72,
        "duration": 1.333,
        "velocity": 0.54,
        "hand": "right"
      },
      {
        "midi": 67,
        "time": 72,
        "duration": 1.333,
        "velocity": 0.54,
        "hand": "right"
      },
      {
        "midi": 71,
        "time": 72,
        "duration": 0.667,
        "velocity": 0.71,
        "hand": "right"
      },
      {
        "midi": 71,
        "time": 72.667,
        "duration": 0.667,
        "velocity": 0.71,
        "hand": "right"
      },
      {
        "midi": 61,
        "time": 73.333,
        "duration": 1.333,
        "velocity": 0.54,
        "hand": "right"
      },
      {
        "midi": 67,
        "time": 73.333,
        "duration": 1.333,
        "velocity": 0.54,
        "hand": "right"
      },
      {
        "midi": 70,
        "time": 73.333,
        "duration": 0.667,
        "velocity": 0.71,
        "hand": "right"
      },
      {
        "midi": 54,
        "time": 74,
        "duration": 0.667,
        "velocity": 1,
        "hand": "left"
      },
      {
        "midi": 70,
        "time": 74,
        "duration": 0.667,
        "velocity": 0.71,
        "hand": "right"
      },
      {
        "midi": 52,
        "time": 74.667,
        "duration": 0.333,
        "velocity": 1,
        "hand": "left"
      },
      {
        "midi": 62,
        "time": 74.667,
        "duration": 1.333,
        "velocity": 0.54,
        "hand": "right"
      },
      {
        "midi": 66,
        "time": 74.667,
        "duration": 1.333,
        "velocity": 0.54,
        "hand": "right"
      },
      {
        "midi": 71,
        "time": 74.667,
        "duration": 0.667,
        "velocity": 0.71,
        "hand": "right"
      },
      {
        "midi": 50,
        "time": 75,
        "duration": 0.333,
        "velocity": 1,
        "hand": "left"
      },
      {
        "midi": 49,
        "time": 75.333,
        "duration": 0.333,
        "velocity": 1,
        "hand": "left"
      },
      {
        "midi": 71,
        "time": 75.333,
        "duration": 0.667,
        "velocity": 0.71,
        "hand": "right"
      },
      {
        "midi": 47,
        "time": 75.667,
        "duration": 0.333,
        "velocity": 1,
        "hand": "left"
      },
      {
        "midi": 52,
        "time": 76,
        "duration": 2,
        "velocity": 1,
        "hand": "left"
      },
      {
        "midi": 61,
        "time": 76,
        "duration": 1.333,
        "velocity": 0.54,
        "hand": "right"
      },
      {
        "midi": 67,
        "time": 76,
        "duration": 1.333,
        "velocity": 0.54,
        "hand": "right"
      },
      {
        "midi": 71,
        "time": 76,
        "duration": 0.667,
        "velocity": 0.71,
        "hand": "right"
      },
      {
        "midi": 71,
        "time": 76.667,
        "duration": 0.667,
        "velocity": 0.71,
        "hand": "right"
      },
      {
        "midi": 61,
        "time": 77.333,
        "duration": 1.333,
        "velocity": 0.54,
        "hand": "right"
      },
      {
        "midi": 67,
        "time": 77.333,
        "duration": 1.333,
        "velocity": 0.54,
        "hand": "right"
      },
      {
        "midi": 70,
        "time": 77.333,
        "duration": 0.667,
        "velocity": 0.71,
        "hand": "right"
      },
      {
        "midi": 54,
        "time": 78,
        "duration": 0.667,
        "velocity": 1,
        "hand": "left"
      },
      {
        "midi": 70,
        "time": 78,
        "duration": 0.667,
        "velocity": 0.71,
        "hand": "right"
      },
      {
        "midi": 52,
        "time": 78.667,
        "duration": 0.333,
        "velocity": 1,
        "hand": "left"
      },
      {
        "midi": 62,
        "time": 78.667,
        "duration": 1.333,
        "velocity": 0.54,
        "hand": "right"
      },
      {
        "midi": 67,
        "time": 78.667,
        "duration": 1.333,
        "velocity": 0.54,
        "hand": "right"
      },
      {
        "midi": 71,
        "time": 78.667,
        "duration": 0.667,
        "velocity": 0.71,
        "hand": "right"
      },
      {
        "midi": 50,
        "time": 79,
        "duration": 0.333,
        "velocity": 1,
        "hand": "left"
      },
      {
        "midi": 49,
        "time": 79.333,
        "duration": 0.333,
        "velocity": 1,
        "hand": "left"
      },
      {
        "midi": 71,
        "time": 79.333,
        "duration": 0.667,
        "velocity": 0.71,
        "hand": "right"
      },
      {
        "midi": 47,
        "time": 79.667,
        "duration": 0.333,
        "velocity": 1,
        "hand": "left"
      },
      {
        "midi": 45,
        "time": 80,
        "duration": 0.333,
        "velocity": 1,
        "hand": "left"
      },
      {
        "midi": 62,
        "time": 80,
        "duration": 1.333,
        "velocity": 0.54,
        "hand": "right"
      },
      {
        "midi": 67,
        "time": 80,
        "duration": 1.333,
        "velocity": 0.54,
        "hand": "right"
      },
      {
        "midi": 71,
        "time": 80,
        "duration": 0.667,
        "velocity": 0.71,
        "hand": "right"
      },
      {
        "midi": 43,
        "time": 80.333,
        "duration": 0.333,
        "velocity": 1,
        "hand": "left"
      },
      {
        "midi": 38,
        "time": 80.667,
        "duration": 0.333,
        "velocity": 1,
        "hand": "left"
      },
      {
        "midi": 71,
        "time": 80.667,
        "duration": 0.667,
        "velocity": 0.71,
        "hand": "right"
      },
      {
        "midi": 40,
        "time": 81,
        "duration": 0.333,
        "velocity": 1,
        "hand": "left"
      },
      {
        "midi": 42,
        "time": 81.333,
        "duration": 2.667,
        "velocity": 1,
        "hand": "left"
      },
      {
        "midi": 61,
        "time": 81.333,
        "duration": 1.333,
        "velocity": 0.54,
        "hand": "right"
      },
      {
        "midi": 66,
        "time": 81.333,
        "duration": 1.333,
        "velocity": 0.54,
        "hand": "right"
      },
      {
        "midi": 71,
        "time": 81.333,
        "duration": 0.667,
        "velocity": 0.71,
        "hand": "right"
      },
      {
        "midi": 71,
        "time": 82,
        "duration": 0.667,
        "velocity": 0.71,
        "hand": "right"
      },
      {
        "midi": 61,
        "time": 82.667,
        "duration": 1.333,
        "velocity": 0.54,
        "hand": "right"
      },
      {
        "midi": 66,
        "time": 82.667,
        "duration": 1.333,
        "velocity": 0.54,
        "hand": "right"
      },
      {
        "midi": 70,
        "time": 82.667,
        "duration": 0.667,
        "velocity": 0.71,
        "hand": "right"
      },
      {
        "midi": 70,
        "time": 83.333,
        "duration": 0.667,
        "velocity": 0.71,
        "hand": "right"
      },
      {
        "midi": 35,
        "time": 84,
        "duration": 4.333,
        "velocity": 1,
        "hand": "left"
      },
      {
        "midi": 62,
        "time": 84,
        "duration": 1.333,
        "velocity": 0.49,
        "hand": "right"
      },
      {
        "midi": 66,
        "time": 84,
        "duration": 1.333,
        "velocity": 0.49,
        "hand": "right"
      },
      {
        "midi": 71,
        "time": 84,
        "duration": 0.667,
        "velocity": 0.71,
        "hand": "right"
      },
      {
        "midi": 71,
        "time": 84.667,
        "duration": 0.667,
        "velocity": 0.71,
        "hand": "right"
      },
      {
        "midi": 62,
        "time": 85.333,
        "duration": 1.333,
        "velocity": 0.49,
        "hand": "right"
      },
      {
        "midi": 66,
        "time": 85.333,
        "duration": 1.333,
        "velocity": 0.49,
        "hand": "right"
      },
      {
        "midi": 71,
        "time": 85.333,
        "duration": 0.667,
        "velocity": 0.71,
        "hand": "right"
      },
      {
        "midi": 71,
        "time": 86,
        "duration": 0.667,
        "velocity": 0.71,
        "hand": "right"
      },
      {
        "midi": 62,
        "time": 86.667,
        "duration": 1.333,
        "velocity": 0.49,
        "hand": "right"
      },
      {
        "midi": 66,
        "time": 86.667,
        "duration": 1.333,
        "velocity": 0.49,
        "hand": "right"
      },
      {
        "midi": 69,
        "time": 86.667,
        "duration": 0.667,
        "velocity": 0.71,
        "hand": "right"
      },
      {
        "midi": 69,
        "time": 87.333,
        "duration": 0.667,
        "velocity": 0.71,
        "hand": "right"
      },
      {
        "midi": 62,
        "time": 88,
        "duration": 1.333,
        "velocity": 0.49,
        "hand": "right"
      },
      {
        "midi": 66,
        "time": 88,
        "duration": 0.667,
        "velocity": 0.71,
        "hand": "right"
      },
      {
        "midi": 47,
        "time": 88.333,
        "duration": 0.333,
        "velocity": 1,
        "hand": "left"
      },
      {
        "midi": 54,
        "time": 88.667,
        "duration": 0.333,
        "velocity": 1,
        "hand": "left"
      },
      {
        "midi": 66,
        "time": 88.667,
        "duration": 0.667,
        "velocity": 0.71,
        "hand": "right"
      },
      {
        "midi": 59,
        "time": 89,
        "duration": 0.333,
        "velocity": 1,
        "hand": "left"
      },
      {
        "midi": 62,
        "time": 89.333,
        "duration": 1.333,
        "velocity": 1,
        "hand": "right"
      },
      {
        "midi": 66,
        "time": 89.333,
        "duration": 0.667,
        "velocity": 0.71,
        "hand": "right"
      },
      {
        "midi": 66,
        "time": 90,
        "duration": 0.667,
        "velocity": 0.71,
        "hand": "right"
      },
      {
        "midi": 61,
        "time": 90.667,
        "duration": 1,
        "velocity": 1,
        "hand": "right"
      },
      {
        "midi": 66,
        "time": 90.667,
        "duration": 0.667,
        "velocity": 0.71,
        "hand": "right"
      },
      {
        "midi": 66,
        "time": 91.333,
        "duration": 0.667,
        "velocity": 0.71,
        "hand": "right"
      },
      {
        "midi": 62,
        "time": 91.667,
        "duration": 0.333,
        "velocity": 1,
        "hand": "right"
      },
      {
        "midi": 59,
        "time": 92,
        "duration": 2,
        "velocity": 1,
        "hand": "left"
      },
      {
        "midi": 62,
        "time": 92,
        "duration": 1.333,
        "velocity": 0.49,
        "hand": "right"
      },
      {
        "midi": 66,
        "time": 92,
        "duration": 0.667,
        "velocity": 0.71,
        "hand": "right"
      },
      {
        "midi": 66,
        "time": 92.667,
        "duration": 0.667,
        "velocity": 0.71,
        "hand": "right"
      },
      {
        "midi": 62,
        "time": 93.333,
        "duration": 1.333,
        "velocity": 0.49,
        "hand": "right"
      },
      {
        "midi": 66,
        "time": 93.333,
        "duration": 0.667,
        "velocity": 0.71,
        "hand": "right"
      },
      {
        "midi": 54,
        "time": 94,
        "duration": 0.667,
        "velocity": 0.86,
        "hand": "left"
      },
      {
        "midi": 66,
        "time": 94,
        "duration": 0.667,
        "velocity": 0.71,
        "hand": "right"
      },
      {
        "midi": 50,
        "time": 94.667,
        "duration": 0.667,
        "velocity": 0.82,
        "hand": "left"
      },
      {
        "midi": 62,
        "time": 94.667,
        "duration": 1.333,
        "velocity": 0.49,
        "hand": "right"
      },
      {
        "midi": 66,
        "time": 94.667,
        "duration": 0.667,
        "velocity": 0.71,
        "hand": "right"
      },
      {
        "midi": 49,
        "time": 95.333,
        "duration": 0.667,
        "velocity": 0.77,
        "hand": "left"
      },
      {
        "midi": 66,
        "time": 95.333,
        "duration": 0.667,
        "velocity": 0.71,
        "hand": "right"
      },
      {
        "midi": 47,
        "time": 96,
        "duration": 5.333,
        "velocity": 0.77,
        "hand": "left"
      },
      {
        "midi": 62,
        "time": 96,
        "duration": 1.333,
        "velocity": 0.49,
        "hand": "right"
      },
      {
        "midi": 66,
        "time": 96,
        "duration": 0.667,
        "velocity": 0.71,
        "hand": "right"
      },
      {
        "midi": 66,
        "time": 96.667,
        "duration": 0.667,
        "velocity": 0.71,
        "hand": "right"
      },
      {
        "midi": 62,
        "time": 98.667,
        "duration": 1.333,
        "velocity": 0.42,
        "hand": "right"
      },
      {
        "midi": 66,
        "time": 98.667,
        "duration": 0.667,
        "velocity": 0.71,
        "hand": "right"
      },
      {
        "midi": 66,
        "time": 99.333,
        "duration": 0.667,
        "velocity": 0.71,
        "hand": "right"
      },
      {
        "midi": 62,
        "time": 100,
        "duration": 1.333,
        "velocity": 0.42,
        "hand": "right"
      },
      {
        "midi": 66,
        "time": 100,
        "duration": 0.667,
        "velocity": 0.71,
        "hand": "right"
      },
      {
        "midi": 66,
        "time": 100.667,
        "duration": 0.667,
        "velocity": 0.71,
        "hand": "right"
      }
    ]
  },
  "notes1Hand": [
    {
      "midi": 71,
      "time": 0,
      "duration": 0.667,
      "velocity": 0.71,
      "hand": "right"
    },
    {
      "midi": 71,
      "time": 2,
      "duration": 0.667,
      "velocity": 0.71,
      "hand": "right"
    },
    {
      "midi": 62,
      "time": 3.667,
      "duration": 0.667,
      "velocity": 0.77,
      "hand": "right"
    },
    {
      "midi": 71,
      "time": 4.667,
      "duration": 0.667,
      "velocity": 0.71,
      "hand": "right"
    },
    {
      "midi": 71,
      "time": 6,
      "duration": 0.667,
      "velocity": 0.71,
      "hand": "right"
    },
    {
      "midi": 71,
      "time": 8,
      "duration": 0.667,
      "velocity": 0.71,
      "hand": "right"
    },
    {
      "midi": 74,
      "time": 10,
      "duration": 0.667,
      "velocity": 0.71,
      "hand": "right"
    },
    {
      "midi": 66,
      "time": 11.667,
      "duration": 0.667,
      "velocity": 0.77,
      "hand": "right"
    },
    {
      "midi": 74,
      "time": 12.667,
      "duration": 0.667,
      "velocity": 0.71,
      "hand": "right"
    },
    {
      "midi": 74,
      "time": 14,
      "duration": 0.667,
      "velocity": 0.71,
      "hand": "right"
    },
    {
      "midi": 74,
      "time": 16,
      "duration": 0.667,
      "velocity": 0.71,
      "hand": "right"
    },
    {
      "midi": 74,
      "time": 18,
      "duration": 0.667,
      "velocity": 0.71,
      "hand": "right"
    },
    {
      "midi": 74,
      "time": 20,
      "duration": 0.667,
      "velocity": 0.71,
      "hand": "right"
    },
    {
      "midi": 73,
      "time": 22,
      "duration": 0.667,
      "velocity": 0.71,
      "hand": "right"
    },
    {
      "midi": 76,
      "time": 24,
      "duration": 2,
      "velocity": 0.71,
      "hand": "right"
    },
    {
      "midi": 71,
      "time": 24.667,
      "duration": 0.667,
      "velocity": 0.71,
      "hand": "right"
    },
    {
      "midi": 78,
      "time": 26,
      "duration": 0.667,
      "velocity": 0.71,
      "hand": "right"
    },
    {
      "midi": 76,
      "time": 26.667,
      "duration": 0.667,
      "velocity": 0.71,
      "hand": "right"
    },
    {
      "midi": 71,
      "time": 27.667,
      "duration": 0.667,
      "velocity": 0.71,
      "hand": "right"
    },
    {
      "midi": 71,
      "time": 28.667,
      "duration": 0.667,
      "velocity": 0.93,
      "hand": "right"
    },
    {
      "midi": 73,
      "time": 30,
      "duration": 0.667,
      "velocity": 0.71,
      "hand": "right"
    },
    {
      "midi": 71,
      "time": 32,
      "duration": 0.667,
      "velocity": 0.71,
      "hand": "right"
    },
    {
      "midi": 71,
      "time": 34,
      "duration": 0.667,
      "velocity": 0.71,
      "hand": "right"
    },
    {
      "midi": 62,
      "time": 35.667,
      "duration": 0.667,
      "velocity": 0.77,
      "hand": "right"
    },
    {
      "midi": 71,
      "time": 36.667,
      "duration": 0.667,
      "velocity": 0.71,
      "hand": "right"
    },
    {
      "midi": 71,
      "time": 38,
      "duration": 0.667,
      "velocity": 0.71,
      "hand": "right"
    },
    {
      "midi": 71,
      "time": 40,
      "duration": 0.667,
      "velocity": 0.71,
      "hand": "right"
    },
    {
      "midi": 71,
      "time": 42,
      "duration": 0.667,
      "velocity": 0.71,
      "hand": "right"
    },
    {
      "midi": 72,
      "time": 44,
      "duration": 0.667,
      "velocity": 0.71,
      "hand": "right"
    },
    {
      "midi": 72,
      "time": 46,
      "duration": 0.667,
      "velocity": 0.71,
      "hand": "right"
    },
    {
      "midi": 72,
      "time": 48,
      "duration": 0.667,
      "velocity": 0.71,
      "hand": "right"
    },
    {
      "midi": 72,
      "time": 50,
      "duration": 0.667,
      "velocity": 0.71,
      "hand": "right"
    },
    {
      "midi": 72,
      "time": 52,
      "duration": 0.667,
      "velocity": 0.71,
      "hand": "right"
    },
    {
      "midi": 72,
      "time": 54,
      "duration": 0.667,
      "velocity": 0.71,
      "hand": "right"
    },
    {
      "midi": 71,
      "time": 54.667,
      "duration": 0.667,
      "velocity": 0.71,
      "hand": "right"
    },
    {
      "midi": 70,
      "time": 56,
      "duration": 0.667,
      "velocity": 0.71,
      "hand": "right"
    },
    {
      "midi": 70,
      "time": 58,
      "duration": 0.667,
      "velocity": 0.71,
      "hand": "right"
    },
    {
      "midi": 71,
      "time": 58.667,
      "duration": 0.667,
      "velocity": 0.71,
      "hand": "right"
    },
    {
      "midi": 71,
      "time": 60,
      "duration": 0.667,
      "velocity": 0.71,
      "hand": "right"
    },
    {
      "midi": 70,
      "time": 62,
      "duration": 0.667,
      "velocity": 0.71,
      "hand": "right"
    },
    {
      "midi": 71,
      "time": 62.667,
      "duration": 0.667,
      "velocity": 0.71,
      "hand": "right"
    },
    {
      "midi": 71,
      "time": 64,
      "duration": 0.667,
      "velocity": 0.71,
      "hand": "right"
    },
    {
      "midi": 71,
      "time": 66,
      "duration": 0.667,
      "velocity": 0.71,
      "hand": "right"
    },
    {
      "midi": 70,
      "time": 66.667,
      "duration": 0.667,
      "velocity": 0.71,
      "hand": "right"
    },
    {
      "midi": 70,
      "time": 68,
      "duration": 0.667,
      "velocity": 0.71,
      "hand": "right"
    },
    {
      "midi": 71,
      "time": 70,
      "duration": 0.667,
      "velocity": 0.71,
      "hand": "right"
    },
    {
      "midi": 71,
      "time": 72,
      "duration": 0.667,
      "velocity": 0.71,
      "hand": "right"
    },
    {
      "midi": 70,
      "time": 74,
      "duration": 0.667,
      "velocity": 0.71,
      "hand": "right"
    },
    {
      "midi": 71,
      "time": 74.667,
      "duration": 0.667,
      "velocity": 0.71,
      "hand": "right"
    },
    {
      "midi": 71,
      "time": 76,
      "duration": 0.667,
      "velocity": 0.71,
      "hand": "right"
    },
    {
      "midi": 70,
      "time": 78,
      "duration": 0.667,
      "velocity": 0.71,
      "hand": "right"
    },
    {
      "midi": 71,
      "time": 78.667,
      "duration": 0.667,
      "velocity": 0.71,
      "hand": "right"
    },
    {
      "midi": 71,
      "time": 80,
      "duration": 0.667,
      "velocity": 0.71,
      "hand": "right"
    },
    {
      "midi": 71,
      "time": 82,
      "duration": 0.667,
      "velocity": 0.71,
      "hand": "right"
    },
    {
      "midi": 70,
      "time": 82.667,
      "duration": 0.667,
      "velocity": 0.71,
      "hand": "right"
    },
    {
      "midi": 71,
      "time": 84,
      "duration": 0.667,
      "velocity": 0.71,
      "hand": "right"
    },
    {
      "midi": 71,
      "time": 86,
      "duration": 0.667,
      "velocity": 0.71,
      "hand": "right"
    },
    {
      "midi": 69,
      "time": 86.667,
      "duration": 0.667,
      "velocity": 0.71,
      "hand": "right"
    },
    {
      "midi": 66,
      "time": 88,
      "duration": 0.667,
      "velocity": 0.71,
      "hand": "right"
    },
    {
      "midi": 66,
      "time": 90,
      "duration": 0.667,
      "velocity": 0.71,
      "hand": "right"
    },
    {
      "midi": 62,
      "time": 91.667,
      "duration": 0.667,
      "velocity": 1,
      "hand": "right"
    },
    {
      "midi": 66,
      "time": 92.667,
      "duration": 0.667,
      "velocity": 0.71,
      "hand": "right"
    },
    {
      "midi": 66,
      "time": 94,
      "duration": 0.667,
      "velocity": 0.71,
      "hand": "right"
    },
    {
      "midi": 66,
      "time": 96,
      "duration": 0.667,
      "velocity": 0.71,
      "hand": "right"
    },
    {
      "midi": 66,
      "time": 98.667,
      "duration": 0.667,
      "velocity": 0.71,
      "hand": "right"
    },
    {
      "midi": 66,
      "time": 100,
      "duration": 0.667,
      "velocity": 0.71,
      "hand": "right"
    }
  ],
  "notes2Hands": [
    {
      "midi": 47,
      "time": 0,
      "duration": 0.333,
      "velocity": 0.54,
      "hand": "left"
    },
    {
      "midi": 62,
      "time": 0,
      "duration": 1.333,
      "velocity": 0.71,
      "hand": "right"
    },
    {
      "midi": 66,
      "time": 0,
      "duration": 1.333,
      "velocity": 0.71,
      "hand": "right"
    },
    {
      "midi": 71,
      "time": 0,
      "duration": 0.667,
      "velocity": 0.71,
      "hand": "right"
    },
    {
      "midi": 50,
      "time": 0.333,
      "duration": 0.333,
      "velocity": 0.6,
      "hand": "left"
    },
    {
      "midi": 54,
      "time": 0.667,
      "duration": 0.333,
      "velocity": 0.66,
      "hand": "left"
    },
    {
      "midi": 71,
      "time": 0.667,
      "duration": 0.667,
      "velocity": 0.71,
      "hand": "right"
    },
    {
      "midi": 59,
      "time": 1,
      "duration": 0.333,
      "velocity": 0.72,
      "hand": "left"
    },
    {
      "midi": 62,
      "time": 1.333,
      "duration": 1.333,
      "velocity": 0.77,
      "hand": "right"
    },
    {
      "midi": 66,
      "time": 1.333,
      "duration": 1.333,
      "velocity": 0.71,
      "hand": "right"
    },
    {
      "midi": 71,
      "time": 1.333,
      "duration": 0.667,
      "velocity": 0.71,
      "hand": "right"
    },
    {
      "midi": 71,
      "time": 2,
      "duration": 0.667,
      "velocity": 0.71,
      "hand": "right"
    },
    {
      "midi": 61,
      "time": 2.667,
      "duration": 1,
      "velocity": 0.77,
      "hand": "right"
    },
    {
      "midi": 66,
      "time": 2.667,
      "duration": 1.333,
      "velocity": 0.71,
      "hand": "right"
    },
    {
      "midi": 71,
      "time": 2.667,
      "duration": 0.667,
      "velocity": 0.71,
      "hand": "right"
    },
    {
      "midi": 71,
      "time": 3.333,
      "duration": 0.667,
      "velocity": 0.71,
      "hand": "right"
    },
    {
      "midi": 62,
      "time": 3.667,
      "duration": 0.333,
      "velocity": 0.77,
      "hand": "right"
    },
    {
      "midi": 59,
      "time": 4,
      "duration": 2,
      "velocity": 0.77,
      "hand": "left"
    },
    {
      "midi": 62,
      "time": 4,
      "duration": 1.333,
      "velocity": 0.71,
      "hand": "right"
    },
    {
      "midi": 66,
      "time": 4,
      "duration": 1.333,
      "velocity": 0.71,
      "hand": "right"
    },
    {
      "midi": 71,
      "time": 4,
      "duration": 0.667,
      "velocity": 0.71,
      "hand": "right"
    },
    {
      "midi": 71,
      "time": 4.667,
      "duration": 0.667,
      "velocity": 0.71,
      "hand": "right"
    },
    {
      "midi": 62,
      "time": 5.333,
      "duration": 1.333,
      "velocity": 0.71,
      "hand": "right"
    },
    {
      "midi": 66,
      "time": 5.333,
      "duration": 1.333,
      "velocity": 0.71,
      "hand": "right"
    },
    {
      "midi": 71,
      "time": 5.333,
      "duration": 0.667,
      "velocity": 0.71,
      "hand": "right"
    },
    {
      "midi": 54,
      "time": 6,
      "duration": 0.667,
      "velocity": 0.64,
      "hand": "left"
    },
    {
      "midi": 71,
      "time": 6,
      "duration": 0.667,
      "velocity": 0.71,
      "hand": "right"
    },
    {
      "midi": 50,
      "time": 6.667,
      "duration": 0.667,
      "velocity": 0.59,
      "hand": "left"
    },
    {
      "midi": 62,
      "time": 6.667,
      "duration": 1.333,
      "velocity": 0.71,
      "hand": "right"
    },
    {
      "midi": 66,
      "time": 6.667,
      "duration": 1.333,
      "velocity": 0.71,
      "hand": "right"
    },
    {
      "midi": 71,
      "time": 6.667,
      "duration": 0.667,
      "velocity": 0.71,
      "hand": "right"
    },
    {
      "midi": 49,
      "time": 7.333,
      "duration": 0.667,
      "velocity": 0.54,
      "hand": "left"
    },
    {
      "midi": 71,
      "time": 7.333,
      "duration": 0.667,
      "velocity": 0.71,
      "hand": "right"
    },
    {
      "midi": 47,
      "time": 8,
      "duration": 0.333,
      "velocity": 0.54,
      "hand": "left"
    },
    {
      "midi": 62,
      "time": 8,
      "duration": 1.333,
      "velocity": 0.71,
      "hand": "right"
    },
    {
      "midi": 66,
      "time": 8,
      "duration": 1.333,
      "velocity": 0.71,
      "hand": "right"
    },
    {
      "midi": 71,
      "time": 8,
      "duration": 0.667,
      "velocity": 0.71,
      "hand": "right"
    },
    {
      "midi": 54,
      "time": 8.333,
      "duration": 0.333,
      "velocity": 0.6,
      "hand": "left"
    },
    {
      "midi": 59,
      "time": 8.667,
      "duration": 0.333,
      "velocity": 0.66,
      "hand": "left"
    },
    {
      "midi": 71,
      "time": 8.667,
      "duration": 0.667,
      "velocity": 0.71,
      "hand": "right"
    },
    {
      "midi": 62,
      "time": 9,
      "duration": 0.333,
      "velocity": 0.72,
      "hand": "right"
    },
    {
      "midi": 66,
      "time": 9.333,
      "duration": 1.333,
      "velocity": 0.77,
      "hand": "right"
    },
    {
      "midi": 71,
      "time": 9.333,
      "duration": 1.333,
      "velocity": 0.71,
      "hand": "right"
    },
    {
      "midi": 74,
      "time": 9.333,
      "duration": 0.667,
      "velocity": 0.71,
      "hand": "right"
    },
    {
      "midi": 74,
      "time": 10,
      "duration": 0.667,
      "velocity": 0.71,
      "hand": "right"
    },
    {
      "midi": 64,
      "time": 10.667,
      "duration": 1,
      "velocity": 0.77,
      "hand": "right"
    },
    {
      "midi": 71,
      "time": 10.667,
      "duration": 1.333,
      "velocity": 0.71,
      "hand": "right"
    },
    {
      "midi": 74,
      "time": 10.667,
      "duration": 0.667,
      "velocity": 0.71,
      "hand": "right"
    },
    {
      "midi": 74,
      "time": 11.333,
      "duration": 0.667,
      "velocity": 0.71,
      "hand": "right"
    },
    {
      "midi": 66,
      "time": 11.667,
      "duration": 0.333,
      "velocity": 0.77,
      "hand": "right"
    },
    {
      "midi": 62,
      "time": 12,
      "duration": 2,
      "velocity": 0.77,
      "hand": "right"
    },
    {
      "midi": 66,
      "time": 12,
      "duration": 1.333,
      "velocity": 0.71,
      "hand": "right"
    },
    {
      "midi": 71,
      "time": 12,
      "duration": 1.333,
      "velocity": 0.71,
      "hand": "right"
    },
    {
      "midi": 74,
      "time": 12,
      "duration": 0.667,
      "velocity": 0.71,
      "hand": "right"
    },
    {
      "midi": 74,
      "time": 12.667,
      "duration": 0.667,
      "velocity": 0.71,
      "hand": "right"
    },
    {
      "midi": 66,
      "time": 13.333,
      "duration": 1.333,
      "velocity": 0.71,
      "hand": "right"
    },
    {
      "midi": 71,
      "time": 13.333,
      "duration": 1.333,
      "velocity": 0.71,
      "hand": "right"
    },
    {
      "midi": 74,
      "time": 13.333,
      "duration": 0.667,
      "velocity": 0.71,
      "hand": "right"
    },
    {
      "midi": 59,
      "time": 14,
      "duration": 0.667,
      "velocity": 0.64,
      "hand": "left"
    },
    {
      "midi": 74,
      "time": 14,
      "duration": 0.667,
      "velocity": 0.71,
      "hand": "right"
    },
    {
      "midi": 54,
      "time": 14.667,
      "duration": 0.667,
      "velocity": 0.59,
      "hand": "left"
    },
    {
      "midi": 66,
      "time": 14.667,
      "duration": 1.333,
      "velocity": 0.71,
      "hand": "right"
    },
    {
      "midi": 71,
      "time": 14.667,
      "duration": 1.333,
      "velocity": 0.71,
      "hand": "right"
    },
    {
      "midi": 74,
      "time": 14.667,
      "duration": 0.667,
      "velocity": 0.71,
      "hand": "right"
    },
    {
      "midi": 50,
      "time": 15.333,
      "duration": 0.667,
      "velocity": 0.54,
      "hand": "left"
    },
    {
      "midi": 74,
      "time": 15.333,
      "duration": 0.667,
      "velocity": 0.71,
      "hand": "right"
    },
    {
      "midi": 43,
      "time": 16,
      "duration": 0.333,
      "velocity": 0.54,
      "hand": "left"
    },
    {
      "midi": 67,
      "time": 16,
      "duration": 1.333,
      "velocity": 0.71,
      "hand": "right"
    },
    {
      "midi": 71,
      "time": 16,
      "duration": 1.333,
      "velocity": 0.71,
      "hand": "right"
    },
    {
      "midi": 74,
      "time": 16,
      "duration": 0.667,
      "velocity": 0.71,
      "hand": "right"
    },
    {
      "midi": 50,
      "time": 16.333,
      "duration": 0.333,
      "velocity": 0.6,
      "hand": "left"
    },
    {
      "midi": 59,
      "time": 16.667,
      "duration": 0.333,
      "velocity": 0.66,
      "hand": "left"
    },
    {
      "midi": 74,
      "time": 16.667,
      "duration": 0.667,
      "velocity": 0.71,
      "hand": "right"
    },
    {
      "midi": 62,
      "time": 17,
      "duration": 0.333,
      "velocity": 0.72,
      "hand": "right"
    },
    {
      "midi": 67,
      "time": 17.333,
      "duration": 1.333,
      "velocity": 0.77,
      "hand": "right"
    },
    {
      "midi": 71,
      "time": 17.333,
      "duration": 1.333,
      "velocity": 0.71,
      "hand": "right"
    },
    {
      "midi": 74,
      "time": 17.333,
      "duration": 0.667,
      "velocity": 0.71,
      "hand": "right"
    },
    {
      "midi": 74,
      "time": 18,
      "duration": 0.667,
      "velocity": 0.71,
      "hand": "right"
    },
    {
      "midi": 66,
      "time": 18.667,
      "duration": 1.333,
      "velocity": 0.77,
      "hand": "right"
    },
    {
      "midi": 71,
      "time": 18.667,
      "duration": 1.333,
      "velocity": 0.71,
      "hand": "right"
    },
    {
      "midi": 74,
      "time": 18.667,
      "duration": 0.667,
      "velocity": 0.71,
      "hand": "right"
    },
    {
      "midi": 74,
      "time": 19.333,
      "duration": 0.667,
      "velocity": 0.71,
      "hand": "right"
    },
    {
      "midi": 66,
      "time": 20,
      "duration": 1.333,
      "velocity": 0.77,
      "hand": "right"
    },
    {
      "midi": 68,
      "time": 20,
      "duration": 1.333,
      "velocity": 0.71,
      "hand": "right"
    },
    {
      "midi": 71,
      "time": 20,
      "duration": 1.333,
      "velocity": 0.71,
      "hand": "right"
    },
    {
      "midi": 74,
      "time": 20,
      "duration": 0.667,
      "velocity": 0.71,
      "hand": "right"
    },
    {
      "midi": 74,
      "time": 20.667,
      "duration": 0.667,
      "velocity": 0.71,
      "hand": "right"
    },
    {
      "midi": 65,
      "time": 21.333,
      "duration": 1.333,
      "velocity": 0.54,
      "hand": "right"
    },
    {
      "midi": 68,
      "time": 21.333,
      "duration": 1.333,
      "velocity": 0.71,
      "hand": "right"
    },
    {
      "midi": 71,
      "time": 21.333,
      "duration": 1.333,
      "velocity": 0.71,
      "hand": "right"
    },
    {
      "midi": 73,
      "time": 21.333,
      "duration": 0.667,
      "velocity": 0.71,
      "hand": "right"
    },
    {
      "midi": 73,
      "time": 22,
      "duration": 0.667,
      "velocity": 0.71,
      "hand": "right"
    },
    {
      "midi": 64,
      "time": 22.667,
      "duration": 0.667,
      "velocity": 0.54,
      "hand": "right"
    },
    {
      "midi": 67,
      "time": 22.667,
      "duration": 1.333,
      "velocity": 0.71,
      "hand": "right"
    },
    {
      "midi": 70,
      "time": 22.667,
      "duration": 0.667,
      "velocity": 0.71,
      "hand": "right"
    },
    {
      "midi": 73,
      "time": 22.667,
      "duration": 0.667,
      "velocity": 0.71,
      "hand": "right"
    },
    {
      "midi": 62,
      "time": 23.333,
      "duration": 0.667,
      "velocity": 0.54,
      "hand": "right"
    },
    {
      "midi": 71,
      "time": 23.333,
      "duration": 0.667,
      "velocity": 0.71,
      "hand": "right"
    },
    {
      "midi": 74,
      "time": 23.333,
      "duration": 0.667,
      "velocity": 0.71,
      "hand": "right"
    },
    {
      "midi": 61,
      "time": 24,
      "duration": 0.667,
      "velocity": 0.54,
      "hand": "right"
    },
    {
      "midi": 67,
      "time": 24,
      "duration": 0.667,
      "velocity": 0.71,
      "hand": "right"
    },
    {
      "midi": 70,
      "time": 24,
      "duration": 0.667,
      "velocity": 0.71,
      "hand": "right"
    },
    {
      "midi": 76,
      "time": 24,
      "duration": 2,
      "velocity": 0.71,
      "hand": "right"
    },
    {
      "midi": 62,
      "time": 24.667,
      "duration": 0.667,
      "velocity": 0.54,
      "hand": "right"
    },
    {
      "midi": 64,
      "time": 24.667,
      "duration": 0.167,
      "velocity": 0.54,
      "hand": "right"
    },
    {
      "midi": 67,
      "time": 24.667,
      "duration": 0.667,
      "velocity": 0.71,
      "hand": "right"
    },
    {
      "midi": 71,
      "time": 24.667,
      "duration": 0.667,
      "velocity": 0.71,
      "hand": "right"
    },
    {
      "midi": 61,
      "time": 25.333,
      "duration": 0.667,
      "velocity": 0.54,
      "hand": "right"
    },
    {
      "midi": 67,
      "time": 25.333,
      "duration": 0.667,
      "velocity": 0.71,
      "hand": "right"
    },
    {
      "midi": 70,
      "time": 25.333,
      "duration": 0.667,
      "velocity": 0.71,
      "hand": "right"
    },
    {
      "midi": 58,
      "time": 26,
      "duration": 0.667,
      "velocity": 0.54,
      "hand": "left"
    },
    {
      "midi": 66,
      "time": 26,
      "duration": 0.667,
      "velocity": 0.71,
      "hand": "right"
    },
    {
      "midi": 73,
      "time": 26,
      "duration": 0.667,
      "velocity": 0.71,
      "hand": "right"
    },
    {
      "midi": 78,
      "time": 26,
      "duration": 0.667,
      "velocity": 0.71,
      "hand": "right"
    },
    {
      "midi": 59,
      "time": 26.667,
      "duration": 0.667,
      "velocity": 0.54,
      "hand": "left"
    },
    {
      "midi": 66,
      "time": 26.667,
      "duration": 0.667,
      "velocity": 0.71,
      "hand": "right"
    },
    {
      "midi": 71,
      "time": 26.667,
      "duration": 0.667,
      "velocity": 0.71,
      "hand": "right"
    },
    {
      "midi": 76,
      "time": 26.667,
      "duration": 0.333,
      "velocity": 0.71,
      "hand": "right"
    },
    {
      "midi": 74,
      "time": 27,
      "duration": 0.333,
      "velocity": 0.71,
      "hand": "right"
    },
    {
      "midi": 50,
      "time": 27.333,
      "duration": 0.667,
      "velocity": 0.54,
      "hand": "left"
    },
    {
      "midi": 66,
      "time": 27.333,
      "duration": 0.667,
      "velocity": 0.71,
      "hand": "right"
    },
    {
      "midi": 73,
      "time": 27.333,
      "duration": 0.333,
      "velocity": 0.71,
      "hand": "right"
    },
    {
      "midi": 74,
      "time": 27.333,
      "duration": 0.167,
      "velocity": 0.71,
      "hand": "right"
    },
    {
      "midi": 71,
      "time": 27.667,
      "duration": 0.333,
      "velocity": 0.71,
      "hand": "right"
    },
    {
      "midi": 52,
      "time": 28,
      "duration": 0.667,
      "velocity": 0.54,
      "hand": "left"
    },
    {
      "midi": 61,
      "time": 28,
      "duration": 0.667,
      "velocity": 0.71,
      "hand": "right"
    },
    {
      "midi": 67,
      "time": 28,
      "duration": 0.667,
      "velocity": 0.71,
      "hand": "right"
    },
    {
      "midi": 70,
      "time": 28,
      "duration": 0.667,
      "velocity": 0.71,
      "hand": "right"
    },
    {
      "midi": 53,
      "time": 28.667,
      "duration": 0.667,
      "velocity": 0.54,
      "hand": "left"
    },
    {
      "midi": 62,
      "time": 28.667,
      "duration": 0.667,
      "velocity": 0.93,
      "hand": "right"
    },
    {
      "midi": 68,
      "time": 28.667,
      "duration": 0.667,
      "velocity": 0.93,
      "hand": "right"
    },
    {
      "midi": 71,
      "time": 28.667,
      "duration": 0.667,
      "velocity": 0.93,
      "hand": "right"
    },
    {
      "midi": 54,
      "time": 29.333,
      "duration": 1.333,
      "velocity": 0.54,
      "hand": "left"
    },
    {
      "midi": 62,
      "time": 29.333,
      "duration": 0.667,
      "velocity": 0.93,
      "hand": "right"
    },
    {
      "midi": 71,
      "time": 29.333,
      "duration": 0.667,
      "velocity": 0.93,
      "hand": "right"
    },
    {
      "midi": 74,
      "time": 29.333,
      "duration": 0.667,
      "velocity": 0.93,
      "hand": "right"
    },
    {
      "midi": 61,
      "time": 30,
      "duration": 0.667,
      "velocity": 0.71,
      "hand": "right"
    },
    {
      "midi": 70,
      "time": 30,
      "duration": 0.667,
      "velocity": 0.71,
      "hand": "right"
    },
    {
      "midi": 73,
      "time": 30,
      "duration": 0.667,
      "velocity": 0.71,
      "hand": "right"
    },
    {
      "midi": 50,
      "time": 30.667,
      "duration": 0.667,
      "velocity": 0.54,
      "hand": "left"
    },
    {
      "midi": 49,
      "time": 31.333,
      "duration": 0.667,
      "velocity": 0.54,
      "hand": "left"
    },
    {
      "midi": 47,
      "time": 32,
      "duration": 0.333,
      "velocity": 0.54,
      "hand": "left"
    },
    {
      "midi": 62,
      "time": 32,
      "duration": 1.333,
      "velocity": 0.71,
      "hand": "right"
    },
    {
      "midi": 66,
      "time": 32,
      "duration": 1.333,
      "velocity": 0.71,
      "hand": "right"
    },
    {
      "midi": 71,
      "time": 32,
      "duration": 0.667,
      "velocity": 0.71,
      "hand": "right"
    },
    {
      "midi": 50,
      "time": 32.333,
      "duration": 0.333,
      "velocity": 0.6,
      "hand": "left"
    },
    {
      "midi": 54,
      "time": 32.667,
      "duration": 0.333,
      "velocity": 0.66,
      "hand": "left"
    },
    {
      "midi": 71,
      "time": 32.667,
      "duration": 0.667,
      "velocity": 0.71,
      "hand": "right"
    },
    {
      "midi": 59,
      "time": 33,
      "duration": 0.333,
      "velocity": 0.72,
      "hand": "left"
    },
    {
      "midi": 62,
      "time": 33.333,
      "duration": 1.333,
      "velocity": 0.77,
      "hand": "right"
    },
    {
      "midi": 66,
      "time": 33.333,
      "duration": 1.333,
      "velocity": 0.71,
      "hand": "right"
    },
    {
      "midi": 71,
      "time": 33.333,
      "duration": 0.667,
      "velocity": 0.71,
      "hand": "right"
    },
    {
      "midi": 71,
      "time": 34,
      "duration": 0.667,
      "velocity": 0.71,
      "hand": "right"
    },
    {
      "midi": 61,
      "time": 34.667,
      "duration": 1,
      "velocity": 0.77,
      "hand": "right"
    },
    {
      "midi": 66,
      "time": 34.667,
      "duration": 1.333,
      "velocity": 0.71,
      "hand": "right"
    },
    {
      "midi": 71,
      "time": 34.667,
      "duration": 0.667,
      "velocity": 0.71,
      "hand": "right"
    },
    {
      "midi": 71,
      "time": 35.333,
      "duration": 0.667,
      "velocity": 0.71,
      "hand": "right"
    },
    {
      "midi": 62,
      "time": 35.667,
      "duration": 0.333,
      "velocity": 0.77,
      "hand": "right"
    },
    {
      "midi": 59,
      "time": 36,
      "duration": 2,
      "velocity": 0.77,
      "hand": "left"
    },
    {
      "midi": 62,
      "time": 36,
      "duration": 1.333,
      "velocity": 0.71,
      "hand": "right"
    },
    {
      "midi": 66,
      "time": 36,
      "duration": 1.333,
      "velocity": 0.71,
      "hand": "right"
    },
    {
      "midi": 71,
      "time": 36,
      "duration": 0.667,
      "velocity": 0.71,
      "hand": "right"
    },
    {
      "midi": 71,
      "time": 36.667,
      "duration": 0.667,
      "velocity": 0.71,
      "hand": "right"
    },
    {
      "midi": 62,
      "time": 37.333,
      "duration": 1.333,
      "velocity": 0.71,
      "hand": "right"
    },
    {
      "midi": 66,
      "time": 37.333,
      "duration": 1.333,
      "velocity": 0.71,
      "hand": "right"
    },
    {
      "midi": 71,
      "time": 37.333,
      "duration": 0.667,
      "velocity": 0.71,
      "hand": "right"
    },
    {
      "midi": 54,
      "time": 38,
      "duration": 0.667,
      "velocity": 0.64,
      "hand": "left"
    },
    {
      "midi": 71,
      "time": 38,
      "duration": 0.667,
      "velocity": 0.71,
      "hand": "right"
    },
    {
      "midi": 50,
      "time": 38.667,
      "duration": 0.667,
      "velocity": 0.59,
      "hand": "left"
    },
    {
      "midi": 62,
      "time": 38.667,
      "duration": 1.333,
      "velocity": 0.71,
      "hand": "right"
    },
    {
      "midi": 66,
      "time": 38.667,
      "duration": 1.333,
      "velocity": 0.71,
      "hand": "right"
    },
    {
      "midi": 71,
      "time": 38.667,
      "duration": 0.667,
      "velocity": 0.71,
      "hand": "right"
    },
    {
      "midi": 47,
      "time": 39.333,
      "duration": 0.667,
      "velocity": 0.54,
      "hand": "left"
    },
    {
      "midi": 71,
      "time": 39.333,
      "duration": 0.667,
      "velocity": 0.71,
      "hand": "right"
    },
    {
      "midi": 43,
      "time": 40,
      "duration": 0.333,
      "velocity": 0.54,
      "hand": "left"
    },
    {
      "midi": 62,
      "time": 40,
      "duration": 1.333,
      "velocity": 0.71,
      "hand": "right"
    },
    {
      "midi": 67,
      "time": 40,
      "duration": 1.333,
      "velocity": 0.71,
      "hand": "right"
    },
    {
      "midi": 71,
      "time": 40,
      "duration": 0.667,
      "velocity": 0.71,
      "hand": "right"
    },
    {
      "midi": 50,
      "time": 40.333,
      "duration": 0.333,
      "velocity": 0.57,
      "hand": "left"
    },
    {
      "midi": 55,
      "time": 40.667,
      "duration": 0.333,
      "velocity": 0.59,
      "hand": "left"
    },
    {
      "midi": 71,
      "time": 40.667,
      "duration": 0.667,
      "velocity": 0.71,
      "hand": "right"
    },
    {
      "midi": 59,
      "time": 41,
      "duration": 0.333,
      "velocity": 0.61,
      "hand": "left"
    },
    {
      "midi": 62,
      "time": 41.333,
      "duration": 1.333,
      "velocity": 0.64,
      "hand": "right"
    },
    {
      "midi": 67,
      "time": 41.333,
      "duration": 1.333,
      "velocity": 0.71,
      "hand": "right"
    },
    {
      "midi": 71,
      "time": 41.333,
      "duration": 0.667,
      "velocity": 0.71,
      "hand": "right"
    },
    {
      "midi": 71,
      "time": 42,
      "duration": 0.667,
      "velocity": 0.71,
      "hand": "right"
    },
    {
      "midi": 64,
      "time": 42.667,
      "duration": 0.667,
      "velocity": 0.72,
      "hand": "right"
    },
    {
      "midi": 67,
      "time": 42.667,
      "duration": 1.333,
      "velocity": 0.71,
      "hand": "right"
    },
    {
      "midi": 71,
      "time": 42.667,
      "duration": 0.667,
      "velocity": 0.71,
      "hand": "right"
    },
    {
      "midi": 65,
      "time": 43.333,
      "duration": 0.667,
      "velocity": 0.77,
      "hand": "right"
    },
    {
      "midi": 71,
      "time": 43.333,
      "duration": 0.667,
      "velocity": 0.71,
      "hand": "right"
    },
    {
      "midi": 64,
      "time": 44,
      "duration": 2,
      "velocity": 0.77,
      "hand": "right"
    },
    {
      "midi": 67,
      "time": 44,
      "duration": 1.333,
      "velocity": 0.71,
      "hand": "right"
    },
    {
      "midi": 72,
      "time": 44,
      "duration": 0.667,
      "velocity": 0.71,
      "hand": "right"
    },
    {
      "midi": 72,
      "time": 44.667,
      "duration": 0.667,
      "velocity": 0.71,
      "hand": "right"
    },
    {
      "midi": 64,
      "time": 45.333,
      "duration": 1.333,
      "velocity": 0.71,
      "hand": "right"
    },
    {
      "midi": 67,
      "time": 45.333,
      "duration": 1.333,
      "velocity": 0.71,
      "hand": "right"
    },
    {
      "midi": 72,
      "time": 45.333,
      "duration": 0.667,
      "velocity": 0.71,
      "hand": "right"
    },
    {
      "midi": 60,
      "time": 46,
      "duration": 0.667,
      "velocity": 0.64,
      "hand": "right"
    },
    {
      "midi": 72,
      "time": 46,
      "duration": 0.667,
      "velocity": 0.71,
      "hand": "right"
    },
    {
      "midi": 55,
      "time": 46.667,
      "duration": 0.667,
      "velocity": 0.59,
      "hand": "left"
    },
    {
      "midi": 64,
      "time": 46.667,
      "duration": 1.333,
      "velocity": 0.71,
      "hand": "right"
    },
    {
      "midi": 67,
      "time": 46.667,
      "duration": 1.333,
      "velocity": 0.71,
      "hand": "right"
    },
    {
      "midi": 72,
      "time": 46.667,
      "duration": 0.667,
      "velocity": 0.71,
      "hand": "right"
    },
    {
      "midi": 48,
      "time": 47.333,
      "duration": 0.667,
      "velocity": 0.54,
      "hand": "left"
    },
    {
      "midi": 72,
      "time": 47.333,
      "duration": 0.667,
      "velocity": 0.71,
      "hand": "right"
    },
    {
      "midi": 36,
      "time": 48,
      "duration": 0.333,
      "velocity": 0.54,
      "hand": "left"
    },
    {
      "midi": 64,
      "time": 48,
      "duration": 1.333,
      "velocity": 0.71,
      "hand": "right"
    },
    {
      "midi": 67,
      "time": 48,
      "duration": 1.333,
      "velocity": 0.71,
      "hand": "right"
    },
    {
      "midi": 72,
      "time": 48,
      "duration": 0.667,
      "velocity": 0.71,
      "hand": "right"
    },
    {
      "midi": 43,
      "time": 48.333,
      "duration": 0.333,
      "velocity": 0.6,
      "hand": "left"
    },
    {
      "midi": 52,
      "time": 48.667,
      "duration": 0.333,
      "velocity": 0.66,
      "hand": "left"
    },
    {
      "midi": 72,
      "time": 48.667,
      "duration": 0.667,
      "velocity": 0.71,
      "hand": "right"
    },
    {
      "midi": 55,
      "time": 49,
      "duration": 0.333,
      "velocity": 0.72,
      "hand": "left"
    },
    {
      "midi": 64,
      "time": 49.333,
      "duration": 1.333,
      "velocity": 0.77,
      "hand": "right"
    },
    {
      "midi": 67,
      "time": 49.333,
      "duration": 1.333,
      "velocity": 0.71,
      "hand": "right"
    },
    {
      "midi": 72,
      "time": 49.333,
      "duration": 0.667,
      "velocity": 0.71,
      "hand": "right"
    },
    {
      "midi": 72,
      "time": 50,
      "duration": 0.667,
      "velocity": 0.71,
      "hand": "right"
    },
    {
      "midi": 36,
      "time": 50.667,
      "duration": 0.333,
      "velocity": 0.77,
      "hand": "left"
    },
    {
      "midi": 64,
      "time": 50.667,
      "duration": 1.333,
      "velocity": 0.71,
      "hand": "right"
    },
    {
      "midi": 67,
      "time": 50.667,
      "duration": 1.333,
      "velocity": 0.71,
      "hand": "right"
    },
    {
      "midi": 72,
      "time": 50.667,
      "duration": 0.667,
      "velocity": 0.71,
      "hand": "right"
    },
    {
      "midi": 43,
      "time": 51,
      "duration": 0.333,
      "velocity": 0.83,
      "hand": "left"
    },
    {
      "midi": 52,
      "time": 51.333,
      "duration": 0.333,
      "velocity": 0.88,
      "hand": "left"
    },
    {
      "midi": 72,
      "time": 51.333,
      "duration": 0.667,
      "velocity": 0.71,
      "hand": "right"
    },
    {
      "midi": 55,
      "time": 51.667,
      "duration": 0.333,
      "velocity": 0.94,
      "hand": "left"
    },
    {
      "midi": 64,
      "time": 52,
      "duration": 2.667,
      "velocity": 1,
      "hand": "right"
    },
    {
      "midi": 67,
      "time": 52,
      "duration": 1.333,
      "velocity": 0.71,
      "hand": "right"
    },
    {
      "midi": 72,
      "time": 52,
      "duration": 0.667,
      "velocity": 0.71,
      "hand": "right"
    },
    {
      "midi": 72,
      "time": 52.667,
      "duration": 0.667,
      "velocity": 0.71,
      "hand": "right"
    },
    {
      "midi": 67,
      "time": 53.333,
      "duration": 1.333,
      "velocity": 0.71,
      "hand": "right"
    },
    {
      "midi": 72,
      "time": 53.333,
      "duration": 0.667,
      "velocity": 0.71,
      "hand": "right"
    },
    {
      "midi": 72,
      "time": 54,
      "duration": 0.667,
      "velocity": 0.71,
      "hand": "right"
    },
    {
      "midi": 67,
      "time": 54.667,
      "duration": 1.333,
      "velocity": 0.71,
      "hand": "right"
    },
    {
      "midi": 71,
      "time": 54.667,
      "duration": 0.667,
      "velocity": 0.71,
      "hand": "right"
    },
    {
      "midi": 71,
      "time": 55.333,
      "duration": 0.667,
      "velocity": 0.71,
      "hand": "right"
    },
    {
      "midi": 52,
      "time": 56,
      "duration": 2,
      "velocity": 1,
      "hand": "left"
    },
    {
      "midi": 61,
      "time": 56,
      "duration": 1.333,
      "velocity": 0.54,
      "hand": "right"
    },
    {
      "midi": 67,
      "time": 56,
      "duration": 1.333,
      "velocity": 0.54,
      "hand": "right"
    },
    {
      "midi": 70,
      "time": 56,
      "duration": 0.667,
      "velocity": 0.71,
      "hand": "right"
    },
    {
      "midi": 70,
      "time": 56.667,
      "duration": 0.667,
      "velocity": 0.71,
      "hand": "right"
    },
    {
      "midi": 61,
      "time": 57.333,
      "duration": 1.333,
      "velocity": 0.54,
      "hand": "right"
    },
    {
      "midi": 66,
      "time": 57.333,
      "duration": 1.333,
      "velocity": 0.54,
      "hand": "right"
    },
    {
      "midi": 70,
      "time": 57.333,
      "duration": 0.667,
      "velocity": 0.71,
      "hand": "right"
    },
    {
      "midi": 54,
      "time": 58,
      "duration": 0.667,
      "velocity": 1,
      "hand": "left"
    },
    {
      "midi": 70,
      "time": 58,
      "duration": 0.667,
      "velocity": 0.71,
      "hand": "right"
    },
    {
      "midi": 52,
      "time": 58.667,
      "duration": 0.333,
      "velocity": 1,
      "hand": "left"
    },
    {
      "midi": 62,
      "time": 58.667,
      "duration": 1.333,
      "velocity": 0.54,
      "hand": "right"
    },
    {
      "midi": 66,
      "time": 58.667,
      "duration": 1.333,
      "velocity": 0.54,
      "hand": "right"
    },
    {
      "midi": 71,
      "time": 58.667,
      "duration": 0.667,
      "velocity": 0.71,
      "hand": "right"
    },
    {
      "midi": 50,
      "time": 59,
      "duration": 0.333,
      "velocity": 1,
      "hand": "left"
    },
    {
      "midi": 49,
      "time": 59.333,
      "duration": 0.333,
      "velocity": 1,
      "hand": "left"
    },
    {
      "midi": 71,
      "time": 59.333,
      "duration": 0.667,
      "velocity": 0.71,
      "hand": "right"
    },
    {
      "midi": 47,
      "time": 59.667,
      "duration": 0.333,
      "velocity": 1,
      "hand": "left"
    },
    {
      "midi": 52,
      "time": 60,
      "duration": 2,
      "velocity": 1,
      "hand": "left"
    },
    {
      "midi": 61,
      "time": 60,
      "duration": 1.333,
      "velocity": 0.54,
      "hand": "right"
    },
    {
      "midi": 67,
      "time": 60,
      "duration": 1.333,
      "velocity": 0.54,
      "hand": "right"
    },
    {
      "midi": 71,
      "time": 60,
      "duration": 0.667,
      "velocity": 0.71,
      "hand": "right"
    },
    {
      "midi": 71,
      "time": 60.667,
      "duration": 0.667,
      "velocity": 0.71,
      "hand": "right"
    },
    {
      "midi": 61,
      "time": 61.333,
      "duration": 1.333,
      "velocity": 0.54,
      "hand": "right"
    },
    {
      "midi": 67,
      "time": 61.333,
      "duration": 1.333,
      "velocity": 0.54,
      "hand": "right"
    },
    {
      "midi": 70,
      "time": 61.333,
      "duration": 0.667,
      "velocity": 0.71,
      "hand": "right"
    },
    {
      "midi": 54,
      "time": 62,
      "duration": 0.667,
      "velocity": 1,
      "hand": "left"
    },
    {
      "midi": 70,
      "time": 62,
      "duration": 0.667,
      "velocity": 0.71,
      "hand": "right"
    },
    {
      "midi": 52,
      "time": 62.667,
      "duration": 0.333,
      "velocity": 1,
      "hand": "left"
    },
    {
      "midi": 62,
      "time": 62.667,
      "duration": 1.333,
      "velocity": 0.54,
      "hand": "right"
    },
    {
      "midi": 67,
      "time": 62.667,
      "duration": 1.333,
      "velocity": 0.54,
      "hand": "right"
    },
    {
      "midi": 71,
      "time": 62.667,
      "duration": 0.667,
      "velocity": 0.71,
      "hand": "right"
    },
    {
      "midi": 50,
      "time": 63,
      "duration": 0.333,
      "velocity": 1,
      "hand": "left"
    },
    {
      "midi": 49,
      "time": 63.333,
      "duration": 0.333,
      "velocity": 1,
      "hand": "left"
    },
    {
      "midi": 71,
      "time": 63.333,
      "duration": 0.667,
      "velocity": 0.71,
      "hand": "right"
    },
    {
      "midi": 47,
      "time": 63.667,
      "duration": 0.333,
      "velocity": 1,
      "hand": "left"
    },
    {
      "midi": 45,
      "time": 64,
      "duration": 0.333,
      "velocity": 1,
      "hand": "left"
    },
    {
      "midi": 62,
      "time": 64,
      "duration": 1.333,
      "velocity": 0.54,
      "hand": "right"
    },
    {
      "midi": 67,
      "time": 64,
      "duration": 1.333,
      "velocity": 0.54,
      "hand": "right"
    },
    {
      "midi": 71,
      "time": 64,
      "duration": 0.667,
      "velocity": 0.71,
      "hand": "right"
    },
    {
      "midi": 43,
      "time": 64.333,
      "duration": 0.333,
      "velocity": 1,
      "hand": "left"
    },
    {
      "midi": 38,
      "time": 64.667,
      "duration": 0.333,
      "velocity": 1,
      "hand": "left"
    },
    {
      "midi": 71,
      "time": 64.667,
      "duration": 0.667,
      "velocity": 0.71,
      "hand": "right"
    },
    {
      "midi": 40,
      "time": 65,
      "duration": 0.333,
      "velocity": 1,
      "hand": "left"
    },
    {
      "midi": 42,
      "time": 65.333,
      "duration": 2.667,
      "velocity": 1,
      "hand": "left"
    },
    {
      "midi": 61,
      "time": 65.333,
      "duration": 1.333,
      "velocity": 0.54,
      "hand": "right"
    },
    {
      "midi": 66,
      "time": 65.333,
      "duration": 1.333,
      "velocity": 0.54,
      "hand": "right"
    },
    {
      "midi": 71,
      "time": 65.333,
      "duration": 0.667,
      "velocity": 0.71,
      "hand": "right"
    },
    {
      "midi": 71,
      "time": 66,
      "duration": 0.667,
      "velocity": 0.71,
      "hand": "right"
    },
    {
      "midi": 61,
      "time": 66.667,
      "duration": 1.333,
      "velocity": 0.54,
      "hand": "right"
    },
    {
      "midi": 64,
      "time": 66.667,
      "duration": 1.333,
      "velocity": 0.54,
      "hand": "right"
    },
    {
      "midi": 70,
      "time": 66.667,
      "duration": 0.667,
      "velocity": 0.71,
      "hand": "right"
    },
    {
      "midi": 70,
      "time": 67.333,
      "duration": 0.667,
      "velocity": 0.71,
      "hand": "right"
    },
    {
      "midi": 43,
      "time": 68,
      "duration": 2.667,
      "velocity": 1,
      "hand": "left"
    },
    {
      "midi": 61,
      "time": 68,
      "duration": 1.333,
      "velocity": 0.54,
      "hand": "right"
    },
    {
      "midi": 64,
      "time": 68,
      "duration": 1.333,
      "velocity": 0.54,
      "hand": "right"
    },
    {
      "midi": 70,
      "time": 68,
      "duration": 0.667,
      "velocity": 0.71,
      "hand": "right"
    },
    {
      "midi": 70,
      "time": 68.667,
      "duration": 0.667,
      "velocity": 0.71,
      "hand": "right"
    },
    {
      "midi": 59,
      "time": 69.333,
      "duration": 1.333,
      "velocity": 0.54,
      "hand": "left"
    },
    {
      "midi": 62,
      "time": 69.333,
      "duration": 1.333,
      "velocity": 0.54,
      "hand": "right"
    },
    {
      "midi": 71,
      "time": 69.333,
      "duration": 0.667,
      "velocity": 0.71,
      "hand": "right"
    },
    {
      "midi": 71,
      "time": 70,
      "duration": 0.667,
      "velocity": 0.71,
      "hand": "right"
    },
    {
      "midi": 55,
      "time": 70.667,
      "duration": 1.333,
      "velocity": 1,
      "hand": "left"
    },
    {
      "midi": 62,
      "time": 70.667,
      "duration": 1.333,
      "velocity": 0.54,
      "hand": "right"
    },
    {
      "midi": 67,
      "time": 70.667,
      "duration": 1.333,
      "velocity": 0.54,
      "hand": "right"
    },
    {
      "midi": 71,
      "time": 70.667,
      "duration": 0.667,
      "velocity": 0.71,
      "hand": "right"
    },
    {
      "midi": 71,
      "time": 71.333,
      "duration": 0.667,
      "velocity": 0.71,
      "hand": "right"
    },
    {
      "midi": 52,
      "time": 72,
      "duration": 2,
      "velocity": 1,
      "hand": "left"
    },
    {
      "midi": 61,
      "time": 72,
      "duration": 1.333,
      "velocity": 0.54,
      "hand": "right"
    },
    {
      "midi": 67,
      "time": 72,
      "duration": 1.333,
      "velocity": 0.54,
      "hand": "right"
    },
    {
      "midi": 71,
      "time": 72,
      "duration": 0.667,
      "velocity": 0.71,
      "hand": "right"
    },
    {
      "midi": 71,
      "time": 72.667,
      "duration": 0.667,
      "velocity": 0.71,
      "hand": "right"
    },
    {
      "midi": 61,
      "time": 73.333,
      "duration": 1.333,
      "velocity": 0.54,
      "hand": "right"
    },
    {
      "midi": 67,
      "time": 73.333,
      "duration": 1.333,
      "velocity": 0.54,
      "hand": "right"
    },
    {
      "midi": 70,
      "time": 73.333,
      "duration": 0.667,
      "velocity": 0.71,
      "hand": "right"
    },
    {
      "midi": 54,
      "time": 74,
      "duration": 0.667,
      "velocity": 1,
      "hand": "left"
    },
    {
      "midi": 70,
      "time": 74,
      "duration": 0.667,
      "velocity": 0.71,
      "hand": "right"
    },
    {
      "midi": 52,
      "time": 74.667,
      "duration": 0.333,
      "velocity": 1,
      "hand": "left"
    },
    {
      "midi": 62,
      "time": 74.667,
      "duration": 1.333,
      "velocity": 0.54,
      "hand": "right"
    },
    {
      "midi": 66,
      "time": 74.667,
      "duration": 1.333,
      "velocity": 0.54,
      "hand": "right"
    },
    {
      "midi": 71,
      "time": 74.667,
      "duration": 0.667,
      "velocity": 0.71,
      "hand": "right"
    },
    {
      "midi": 50,
      "time": 75,
      "duration": 0.333,
      "velocity": 1,
      "hand": "left"
    },
    {
      "midi": 49,
      "time": 75.333,
      "duration": 0.333,
      "velocity": 1,
      "hand": "left"
    },
    {
      "midi": 71,
      "time": 75.333,
      "duration": 0.667,
      "velocity": 0.71,
      "hand": "right"
    },
    {
      "midi": 47,
      "time": 75.667,
      "duration": 0.333,
      "velocity": 1,
      "hand": "left"
    },
    {
      "midi": 52,
      "time": 76,
      "duration": 2,
      "velocity": 1,
      "hand": "left"
    },
    {
      "midi": 61,
      "time": 76,
      "duration": 1.333,
      "velocity": 0.54,
      "hand": "right"
    },
    {
      "midi": 67,
      "time": 76,
      "duration": 1.333,
      "velocity": 0.54,
      "hand": "right"
    },
    {
      "midi": 71,
      "time": 76,
      "duration": 0.667,
      "velocity": 0.71,
      "hand": "right"
    },
    {
      "midi": 71,
      "time": 76.667,
      "duration": 0.667,
      "velocity": 0.71,
      "hand": "right"
    },
    {
      "midi": 61,
      "time": 77.333,
      "duration": 1.333,
      "velocity": 0.54,
      "hand": "right"
    },
    {
      "midi": 67,
      "time": 77.333,
      "duration": 1.333,
      "velocity": 0.54,
      "hand": "right"
    },
    {
      "midi": 70,
      "time": 77.333,
      "duration": 0.667,
      "velocity": 0.71,
      "hand": "right"
    },
    {
      "midi": 54,
      "time": 78,
      "duration": 0.667,
      "velocity": 1,
      "hand": "left"
    },
    {
      "midi": 70,
      "time": 78,
      "duration": 0.667,
      "velocity": 0.71,
      "hand": "right"
    },
    {
      "midi": 52,
      "time": 78.667,
      "duration": 0.333,
      "velocity": 1,
      "hand": "left"
    },
    {
      "midi": 62,
      "time": 78.667,
      "duration": 1.333,
      "velocity": 0.54,
      "hand": "right"
    },
    {
      "midi": 67,
      "time": 78.667,
      "duration": 1.333,
      "velocity": 0.54,
      "hand": "right"
    },
    {
      "midi": 71,
      "time": 78.667,
      "duration": 0.667,
      "velocity": 0.71,
      "hand": "right"
    },
    {
      "midi": 50,
      "time": 79,
      "duration": 0.333,
      "velocity": 1,
      "hand": "left"
    },
    {
      "midi": 49,
      "time": 79.333,
      "duration": 0.333,
      "velocity": 1,
      "hand": "left"
    },
    {
      "midi": 71,
      "time": 79.333,
      "duration": 0.667,
      "velocity": 0.71,
      "hand": "right"
    },
    {
      "midi": 47,
      "time": 79.667,
      "duration": 0.333,
      "velocity": 1,
      "hand": "left"
    },
    {
      "midi": 45,
      "time": 80,
      "duration": 0.333,
      "velocity": 1,
      "hand": "left"
    },
    {
      "midi": 62,
      "time": 80,
      "duration": 1.333,
      "velocity": 0.54,
      "hand": "right"
    },
    {
      "midi": 67,
      "time": 80,
      "duration": 1.333,
      "velocity": 0.54,
      "hand": "right"
    },
    {
      "midi": 71,
      "time": 80,
      "duration": 0.667,
      "velocity": 0.71,
      "hand": "right"
    },
    {
      "midi": 43,
      "time": 80.333,
      "duration": 0.333,
      "velocity": 1,
      "hand": "left"
    },
    {
      "midi": 38,
      "time": 80.667,
      "duration": 0.333,
      "velocity": 1,
      "hand": "left"
    },
    {
      "midi": 71,
      "time": 80.667,
      "duration": 0.667,
      "velocity": 0.71,
      "hand": "right"
    },
    {
      "midi": 40,
      "time": 81,
      "duration": 0.333,
      "velocity": 1,
      "hand": "left"
    },
    {
      "midi": 42,
      "time": 81.333,
      "duration": 2.667,
      "velocity": 1,
      "hand": "left"
    },
    {
      "midi": 61,
      "time": 81.333,
      "duration": 1.333,
      "velocity": 0.54,
      "hand": "right"
    },
    {
      "midi": 66,
      "time": 81.333,
      "duration": 1.333,
      "velocity": 0.54,
      "hand": "right"
    },
    {
      "midi": 71,
      "time": 81.333,
      "duration": 0.667,
      "velocity": 0.71,
      "hand": "right"
    },
    {
      "midi": 71,
      "time": 82,
      "duration": 0.667,
      "velocity": 0.71,
      "hand": "right"
    },
    {
      "midi": 61,
      "time": 82.667,
      "duration": 1.333,
      "velocity": 0.54,
      "hand": "right"
    },
    {
      "midi": 66,
      "time": 82.667,
      "duration": 1.333,
      "velocity": 0.54,
      "hand": "right"
    },
    {
      "midi": 70,
      "time": 82.667,
      "duration": 0.667,
      "velocity": 0.71,
      "hand": "right"
    },
    {
      "midi": 70,
      "time": 83.333,
      "duration": 0.667,
      "velocity": 0.71,
      "hand": "right"
    },
    {
      "midi": 35,
      "time": 84,
      "duration": 4.333,
      "velocity": 1,
      "hand": "left"
    },
    {
      "midi": 62,
      "time": 84,
      "duration": 1.333,
      "velocity": 0.49,
      "hand": "right"
    },
    {
      "midi": 66,
      "time": 84,
      "duration": 1.333,
      "velocity": 0.49,
      "hand": "right"
    },
    {
      "midi": 71,
      "time": 84,
      "duration": 0.667,
      "velocity": 0.71,
      "hand": "right"
    },
    {
      "midi": 71,
      "time": 84.667,
      "duration": 0.667,
      "velocity": 0.71,
      "hand": "right"
    },
    {
      "midi": 62,
      "time": 85.333,
      "duration": 1.333,
      "velocity": 0.49,
      "hand": "right"
    },
    {
      "midi": 66,
      "time": 85.333,
      "duration": 1.333,
      "velocity": 0.49,
      "hand": "right"
    },
    {
      "midi": 71,
      "time": 85.333,
      "duration": 0.667,
      "velocity": 0.71,
      "hand": "right"
    },
    {
      "midi": 71,
      "time": 86,
      "duration": 0.667,
      "velocity": 0.71,
      "hand": "right"
    },
    {
      "midi": 62,
      "time": 86.667,
      "duration": 1.333,
      "velocity": 0.49,
      "hand": "right"
    },
    {
      "midi": 66,
      "time": 86.667,
      "duration": 1.333,
      "velocity": 0.49,
      "hand": "right"
    },
    {
      "midi": 69,
      "time": 86.667,
      "duration": 0.667,
      "velocity": 0.71,
      "hand": "right"
    },
    {
      "midi": 69,
      "time": 87.333,
      "duration": 0.667,
      "velocity": 0.71,
      "hand": "right"
    },
    {
      "midi": 62,
      "time": 88,
      "duration": 1.333,
      "velocity": 0.49,
      "hand": "right"
    },
    {
      "midi": 66,
      "time": 88,
      "duration": 0.667,
      "velocity": 0.71,
      "hand": "right"
    },
    {
      "midi": 47,
      "time": 88.333,
      "duration": 0.333,
      "velocity": 1,
      "hand": "left"
    },
    {
      "midi": 54,
      "time": 88.667,
      "duration": 0.333,
      "velocity": 1,
      "hand": "left"
    },
    {
      "midi": 66,
      "time": 88.667,
      "duration": 0.667,
      "velocity": 0.71,
      "hand": "right"
    },
    {
      "midi": 59,
      "time": 89,
      "duration": 0.333,
      "velocity": 1,
      "hand": "left"
    },
    {
      "midi": 62,
      "time": 89.333,
      "duration": 1.333,
      "velocity": 1,
      "hand": "right"
    },
    {
      "midi": 66,
      "time": 89.333,
      "duration": 0.667,
      "velocity": 0.71,
      "hand": "right"
    },
    {
      "midi": 66,
      "time": 90,
      "duration": 0.667,
      "velocity": 0.71,
      "hand": "right"
    },
    {
      "midi": 61,
      "time": 90.667,
      "duration": 1,
      "velocity": 1,
      "hand": "right"
    },
    {
      "midi": 66,
      "time": 90.667,
      "duration": 0.667,
      "velocity": 0.71,
      "hand": "right"
    },
    {
      "midi": 66,
      "time": 91.333,
      "duration": 0.667,
      "velocity": 0.71,
      "hand": "right"
    },
    {
      "midi": 62,
      "time": 91.667,
      "duration": 0.333,
      "velocity": 1,
      "hand": "right"
    },
    {
      "midi": 59,
      "time": 92,
      "duration": 2,
      "velocity": 1,
      "hand": "left"
    },
    {
      "midi": 62,
      "time": 92,
      "duration": 1.333,
      "velocity": 0.49,
      "hand": "right"
    },
    {
      "midi": 66,
      "time": 92,
      "duration": 0.667,
      "velocity": 0.71,
      "hand": "right"
    },
    {
      "midi": 66,
      "time": 92.667,
      "duration": 0.667,
      "velocity": 0.71,
      "hand": "right"
    },
    {
      "midi": 62,
      "time": 93.333,
      "duration": 1.333,
      "velocity": 0.49,
      "hand": "right"
    },
    {
      "midi": 66,
      "time": 93.333,
      "duration": 0.667,
      "velocity": 0.71,
      "hand": "right"
    },
    {
      "midi": 54,
      "time": 94,
      "duration": 0.667,
      "velocity": 0.86,
      "hand": "left"
    },
    {
      "midi": 66,
      "time": 94,
      "duration": 0.667,
      "velocity": 0.71,
      "hand": "right"
    },
    {
      "midi": 50,
      "time": 94.667,
      "duration": 0.667,
      "velocity": 0.82,
      "hand": "left"
    },
    {
      "midi": 62,
      "time": 94.667,
      "duration": 1.333,
      "velocity": 0.49,
      "hand": "right"
    },
    {
      "midi": 66,
      "time": 94.667,
      "duration": 0.667,
      "velocity": 0.71,
      "hand": "right"
    },
    {
      "midi": 49,
      "time": 95.333,
      "duration": 0.667,
      "velocity": 0.77,
      "hand": "left"
    },
    {
      "midi": 66,
      "time": 95.333,
      "duration": 0.667,
      "velocity": 0.71,
      "hand": "right"
    },
    {
      "midi": 47,
      "time": 96,
      "duration": 5.333,
      "velocity": 0.77,
      "hand": "left"
    },
    {
      "midi": 62,
      "time": 96,
      "duration": 1.333,
      "velocity": 0.49,
      "hand": "right"
    },
    {
      "midi": 66,
      "time": 96,
      "duration": 0.667,
      "velocity": 0.71,
      "hand": "right"
    },
    {
      "midi": 66,
      "time": 96.667,
      "duration": 0.667,
      "velocity": 0.71,
      "hand": "right"
    },
    {
      "midi": 62,
      "time": 98.667,
      "duration": 1.333,
      "velocity": 0.42,
      "hand": "right"
    },
    {
      "midi": 66,
      "time": 98.667,
      "duration": 0.667,
      "velocity": 0.71,
      "hand": "right"
    },
    {
      "midi": 66,
      "time": 99.333,
      "duration": 0.667,
      "velocity": 0.71,
      "hand": "right"
    },
    {
      "midi": 62,
      "time": 100,
      "duration": 1.333,
      "velocity": 0.42,
      "hand": "right"
    },
    {
      "midi": 66,
      "time": 100,
      "duration": 0.667,
      "velocity": 0.71,
      "hand": "right"
    },
    {
      "midi": 66,
      "time": 100.667,
      "duration": 0.667,
      "velocity": 0.71,
      "hand": "right"
    }
  ]
}
