{
  "id": "preludio-n-20-chopin",
  "title": "Prelúdio nº 20",
  "artist": "Frédéric Chopin",
  "difficulty": "Médio",
  "bpm": 42,
  "duration": 74,
  "category": "Clássicos",
  "isPremium": true,
  "coverUrl": "/images/covers/placeholder.png",
  "notes": [
    {
      "midi": 36,
      "time": 0,
      "duration": 1.429,
      "velocity": 0.71,
      "hand": "left"
    },
    {
      "midi": 48,
      "time": 0,
      "duration": 1.429,
      "velocity": 0.71,
      "hand": "left"
    },
    {
      "midi": 55,
      "time": 0,
      "duration": 1.429,
      "velocity": 0.71,
      "hand": "left"
    },
    {
      "midi": 60,
      "time": 0,
      "duration": 1.429,
      "velocity": 0.71,
      "hand": "right"
    },
    {
      "midi": 63,
      "time": 0,
      "duration": 1.429,
      "velocity": 0.71,
      "hand": "right"
    },
    {
      "midi": 67,
      "time": 0,
      "duration": 1.429,
      "velocity": 0.71,
      "hand": "right"
    },
    {
      "midi": 29,
      "time": 1.429,
      "duration": 1.429,
      "velocity": 0.71,
      "hand": "left"
    },
    {
      "midi": 41,
      "time": 1.429,
      "duration": 1.429,
      "velocity": 0.71,
      "hand": "left"
    },
    {
      "midi": 56,
      "time": 1.429,
      "duration": 1.429,
      "velocity": 0.71,
      "hand": "left"
    },
    {
      "midi": 60,
      "time": 1.429,
      "duration": 1.429,
      "velocity": 0.71,
      "hand": "right"
    },
    {
      "midi": 63,
      "time": 1.429,
      "duration": 1.429,
      "velocity": 0.71,
      "hand": "right"
    },
    {
      "midi": 68,
      "time": 1.429,
      "duration": 1.429,
      "velocity": 0.71,
      "hand": "right"
    },
    {
      "midi": 31,
      "time": 2.857,
      "duration": 1.429,
      "velocity": 0.71,
      "hand": "left"
    },
    {
      "midi": 43,
      "time": 2.857,
      "duration": 1.429,
      "velocity": 0.71,
      "hand": "left"
    },
    {
      "midi": 55,
      "time": 2.857,
      "duration": 1.429,
      "velocity": 0.71,
      "hand": "left"
    },
    {
      "midi": 59,
      "time": 2.857,
      "duration": 1.429,
      "velocity": 0.71,
      "hand": "left"
    },
    {
      "midi": 63,
      "time": 2.857,
      "duration": 1.071,
      "velocity": 0.71,
      "hand": "right"
    },
    {
      "midi": 67,
      "time": 2.857,
      "duration": 1.071,
      "velocity": 0.71,
      "hand": "right"
    },
    {
      "midi": 62,
      "time": 3.929,
      "duration": 0.357,
      "velocity": 0.71,
      "hand": "right"
    },
    {
      "midi": 65,
      "time": 3.929,
      "duration": 0.357,
      "velocity": 0.71,
      "hand": "right"
    },
    {
      "midi": 36,
      "time": 4.286,
      "duration": 1.429,
      "velocity": 0.71,
      "hand": "left"
    },
    {
      "midi": 43,
      "time": 4.286,
      "duration": 1.429,
      "velocity": 0.71,
      "hand": "left"
    },
    {
      "midi": 48,
      "time": 4.286,
      "duration": 1.429,
      "velocity": 0.71,
      "hand": "left"
    },
    {
      "midi": 51,
      "time": 4.286,
      "duration": 1.429,
      "velocity": 0.71,
      "hand": "left"
    },
    {
      "midi": 55,
      "time": 4.286,
      "duration": 1.429,
      "velocity": 0.71,
      "hand": "left"
    },
    {
      "midi": 60,
      "time": 4.286,
      "duration": 1.429,
      "velocity": 0.71,
      "hand": "right"
    },
    {
      "midi": 63,
      "time": 4.286,
      "duration": 1.429,
      "velocity": 0.71,
      "hand": "right"
    },
    {
      "midi": 32,
      "time": 5.714,
      "duration": 1.429,
      "velocity": 0.71,
      "hand": "left"
    },
    {
      "midi": 44,
      "time": 5.714,
      "duration": 1.429,
      "velocity": 0.71,
      "hand": "left"
    },
    {
      "midi": 51,
      "time": 5.714,
      "duration": 1.429,
      "velocity": 0.71,
      "hand": "left"
    },
    {
      "midi": 56,
      "time": 5.714,
      "duration": 1.429,
      "velocity": 0.71,
      "hand": "left"
    },
    {
      "midi": 60,
      "time": 5.714,
      "duration": 1.429,
      "velocity": 0.71,
      "hand": "right"
    },
    {
      "midi": 63,
      "time": 5.714,
      "duration": 1.429,
      "velocity": 0.71,
      "hand": "right"
    },
    {
      "midi": 25,
      "time": 7.143,
      "duration": 1.429,
      "velocity": 0.71,
      "hand": "left"
    },
    {
      "midi": 37,
      "time": 7.143,
      "duration": 1.429,
      "velocity": 0.71,
      "hand": "left"
    },
    {
      "midi": 53,
      "time": 7.143,
      "duration": 1.429,
      "velocity": 0.71,
      "hand": "left"
    },
    {
      "midi": 56,
      "time": 7.143,
      "duration": 1.429,
      "velocity": 0.71,
      "hand": "left"
    },
    {
      "midi": 61,
      "time": 7.143,
      "duration": 1.429,
      "velocity": 0.71,
      "hand": "right"
    },
    {
      "midi": 65,
      "time": 7.143,
      "duration": 1.429,
      "velocity": 0.71,
      "hand": "right"
    },
    {
      "midi": 27,
      "time": 8.571,
      "duration": 1.429,
      "velocity": 0.71,
      "hand": "left"
    },
    {
      "midi": 39,
      "time": 8.571,
      "duration": 1.429,
      "velocity": 0.71,
      "hand": "left"
    },
    {
      "midi": 49,
      "time": 8.571,
      "duration": 1.429,
      "velocity": 0.71,
      "hand": "left"
    },
    {
      "midi": 51,
      "time": 8.571,
      "duration": 1.429,
      "velocity": 0.71,
      "hand": "left"
    },
    {
      "midi": 55,
      "time": 8.571,
      "duration": 1.429,
      "velocity": 0.71,
      "hand": "left"
    },
    {
      "midi": 60,
      "time": 8.571,
      "duration": 1.071,
      "velocity": 0.71,
      "hand": "right"
    },
    {
      "midi": 63,
      "time": 8.571,
      "duration": 1.071,
      "velocity": 0.71,
      "hand": "right"
    },
    {
      "midi": 58,
      "time": 9.643,
      "duration": 0.357,
      "velocity": 0.71,
      "hand": "left"
    },
    {
      "midi": 61,
      "time": 9.643,
      "duration": 0.357,
      "velocity": 0.71,
      "hand": "right"
    },
    {
      "midi": 32,
      "time": 10,
      "duration": 1.429,
      "velocity": 0.71,
      "hand": "left"
    },
    {
      "midi": 44,
      "time": 10,
      "duration": 1.429,
      "velocity": 0.71,
      "hand": "left"
    },
    {
      "midi": 48,
      "time": 10,
      "duration": 1.429,
      "velocity": 0.71,
      "hand": "left"
    },
    {
      "midi": 51,
      "time": 10,
      "duration": 1.429,
      "velocity": 0.71,
      "hand": "left"
    },
    {
      "midi": 56,
      "time": 10,
      "duration": 1.429,
      "velocity": 0.71,
      "hand": "left"
    },
    {
      "midi": 60,
      "time": 10,
      "duration": 1.429,
      "velocity": 0.71,
      "hand": "right"
    },
    {
      "midi": 31,
      "time": 11.429,
      "duration": 1.429,
      "velocity": 0.71,
      "hand": "left"
    },
    {
      "midi": 43,
      "time": 11.429,
      "duration": 1.429,
      "velocity": 0.71,
      "hand": "left"
    },
    {
      "midi": 50,
      "time": 11.429,
      "duration": 1.429,
      "velocity": 0.71,
      "hand": "left"
    },
    {
      "midi": 53,
      "time": 11.429,
      "duration": 1.429,
      "velocity": 0.71,
      "hand": "left"
    },
    {
      "midi": 59,
      "time": 11.429,
      "duration": 1.429,
      "velocity": 0.71,
      "hand": "left"
    },
    {
      "midi": 62,
      "time": 11.429,
      "duration": 1.429,
      "velocity": 0.71,
      "hand": "right"
    },
    {
      "midi": 24,
      "time": 12.857,
      "duration": 1.429,
      "velocity": 0.71,
      "hand": "left"
    },
    {
      "midi": 36,
      "time": 12.857,
      "duration": 1.429,
      "velocity": 0.71,
      "hand": "left"
    },
    {
      "midi": 52,
      "time": 12.857,
      "duration": 1.429,
      "velocity": 0.71,
      "hand": "left"
    },
    {
      "midi": 55,
      "time": 12.857,
      "duration": 1.429,
      "velocity": 0.71,
      "hand": "left"
    },
    {
      "midi": 58,
      "time": 12.857,
      "duration": 1.429,
      "velocity": 0.71,
      "hand": "left"
    },
    {
      "midi": 60,
      "time": 12.857,
      "duration": 1.429,
      "velocity": 0.71,
      "hand": "right"
    },
    {
      "midi": 64,
      "time": 12.857,
      "duration": 1.429,
      "velocity": 0.71,
      "hand": "right"
    },
    {
      "midi": 29,
      "time": 14.286,
      "duration": 1.429,
      "velocity": 0.71,
      "hand": "left"
    },
    {
      "midi": 41,
      "time": 14.286,
      "duration": 1.429,
      "velocity": 0.71,
      "hand": "left"
    },
    {
      "midi": 56,
      "time": 14.286,
      "duration": 1.429,
      "velocity": 0.71,
      "hand": "left"
    },
    {
      "midi": 60,
      "time": 14.286,
      "duration": 1.429,
      "velocity": 0.71,
      "hand": "right"
    },
    {
      "midi": 67,
      "time": 14.286,
      "duration": 1.071,
      "velocity": 0.71,
      "hand": "right"
    },
    {
      "midi": 65,
      "time": 15.357,
      "duration": 0.357,
      "velocity": 0.71,
      "hand": "right"
    },
    {
      "midi": 36,
      "time": 15.714,
      "duration": 1.429,
      "velocity": 0.71,
      "hand": "left"
    },
    {
      "midi": 48,
      "time": 15.714,
      "duration": 1.429,
      "velocity": 0.71,
      "hand": "left"
    },
    {
      "midi": 55,
      "time": 15.714,
      "duration": 1.429,
      "velocity": 0.71,
      "hand": "left"
    },
    {
      "midi": 60,
      "time": 15.714,
      "duration": 1.429,
      "velocity": 0.71,
      "hand": "right"
    },
    {
      "midi": 63,
      "time": 15.714,
      "duration": 1.429,
      "velocity": 0.71,
      "hand": "right"
    },
    {
      "midi": 38,
      "time": 17.143,
      "duration": 1.429,
      "velocity": 0.71,
      "hand": "left"
    },
    {
      "midi": 45,
      "time": 17.143,
      "duration": 1.429,
      "velocity": 0.71,
      "hand": "left"
    },
    {
      "midi": 50,
      "time": 17.143,
      "duration": 1.429,
      "velocity": 0.71,
      "hand": "left"
    },
    {
      "midi": 54,
      "time": 17.143,
      "duration": 1.429,
      "velocity": 0.71,
      "hand": "left"
    },
    {
      "midi": 60,
      "time": 17.143,
      "duration": 1.429,
      "velocity": 0.71,
      "hand": "right"
    },
    {
      "midi": 62,
      "time": 17.143,
      "duration": 1.429,
      "velocity": 0.71,
      "hand": "right"
    },
    {
      "midi": 31,
      "time": 18.571,
      "duration": 1.429,
      "velocity": 0.71,
      "hand": "left"
    },
    {
      "midi": 43,
      "time": 18.571,
      "duration": 1.429,
      "velocity": 0.71,
      "hand": "left"
    },
    {
      "midi": 55,
      "time": 18.571,
      "duration": 1.429,
      "velocity": 0.71,
      "hand": "left"
    },
    {
      "midi": 59,
      "time": 18.571,
      "duration": 1.429,
      "velocity": 0.71,
      "hand": "left"
    },
    {
      "midi": 62,
      "time": 18.571,
      "duration": 1.429,
      "velocity": 0.71,
      "hand": "right"
    },
    {
      "midi": 67,
      "time": 18.571,
      "duration": 1.429,
      "velocity": 0.71,
      "hand": "right"
    },
    {
      "midi": 26,
      "time": 20,
      "duration": 1.429,
      "velocity": 0.71,
      "hand": "left"
    },
    {
      "midi": 38,
      "time": 20,
      "duration": 1.429,
      "velocity": 0.71,
      "hand": "left"
    },
    {
      "midi": 60,
      "time": 20,
      "duration": 1.429,
      "velocity": 0.71,
      "hand": "right"
    },
    {
      "midi": 62,
      "time": 20,
      "duration": 1.429,
      "velocity": 0.71,
      "hand": "right"
    },
    {
      "midi": 66,
      "time": 20,
      "duration": 1.429,
      "velocity": 0.71,
      "hand": "right"
    },
    {
      "midi": 71,
      "time": 20,
      "duration": 1.071,
      "velocity": 0.71,
      "hand": "right"
    },
    {
      "midi": 69,
      "time": 21.071,
      "duration": 0.357,
      "velocity": 0.71,
      "hand": "right"
    },
    {
      "midi": 31,
      "time": 21.429,
      "duration": 1.429,
      "velocity": 0.71,
      "hand": "left"
    },
    {
      "midi": 43,
      "time": 21.429,
      "duration": 1.429,
      "velocity": 0.71,
      "hand": "left"
    },
    {
      "midi": 59,
      "time": 21.429,
      "duration": 1.429,
      "velocity": 0.71,
      "hand": "left"
    },
    {
      "midi": 62,
      "time": 21.429,
      "duration": 1.429,
      "velocity": 0.71,
      "hand": "right"
    },
    {
      "midi": 67,
      "time": 21.429,
      "duration": 1.429,
      "velocity": 0.71,
      "hand": "right"
    },
    {
      "midi": 36,
      "time": 22.857,
      "duration": 1.429,
      "velocity": 0.71,
      "hand": "left"
    },
    {
      "midi": 48,
      "time": 22.857,
      "duration": 1.429,
      "velocity": 0.71,
      "hand": "left"
    },
    {
      "midi": 63,
      "time": 22.857,
      "duration": 1.429,
      "velocity": 0.71,
      "hand": "right"
    },
    {
      "midi": 67,
      "time": 22.857,
      "duration": 1.429,
      "velocity": 0.71,
      "hand": "right"
    },
    {
      "midi": 75,
      "time": 22.857,
      "duration": 1.429,
      "velocity": 0.71,
      "hand": "right"
    },
    {
      "midi": 48,
      "time": 24.286,
      "duration": 1.429,
      "velocity": 0.71,
      "hand": "left"
    },
    {
      "midi": 60,
      "time": 24.286,
      "duration": 1.429,
      "velocity": 0.71,
      "hand": "right"
    },
    {
      "midi": 63,
      "time": 24.286,
      "duration": 1.429,
      "velocity": 0.71,
      "hand": "right"
    },
    {
      "midi": 68,
      "time": 24.286,
      "duration": 1.429,
      "velocity": 0.71,
      "hand": "right"
    },
    {
      "midi": 75,
      "time": 24.286,
      "duration": 1.429,
      "velocity": 0.71,
      "hand": "right"
    },
    {
      "midi": 47,
      "time": 25.714,
      "duration": 1.429,
      "velocity": 0.71,
      "hand": "left"
    },
    {
      "midi": 59,
      "time": 25.714,
      "duration": 1.429,
      "velocity": 0.71,
      "hand": "left"
    },
    {
      "midi": 62,
      "time": 25.714,
      "duration": 1.429,
      "velocity": 0.71,
      "hand": "right"
    },
    {
      "midi": 68,
      "time": 25.714,
      "duration": 1.071,
      "velocity": 0.71,
      "hand": "right"
    },
    {
      "midi": 74,
      "time": 25.714,
      "duration": 1.429,
      "velocity": 0.71,
      "hand": "right"
    },
    {
      "midi": 66,
      "time": 26.786,
      "duration": 0.357,
      "velocity": 0.71,
      "hand": "right"
    },
    {
      "midi": 46,
      "time": 27.143,
      "duration": 1.429,
      "velocity": 0.71,
      "hand": "left"
    },
    {
      "midi": 58,
      "time": 27.143,
      "duration": 1.429,
      "velocity": 0.71,
      "hand": "left"
    },
    {
      "midi": 62,
      "time": 27.143,
      "duration": 1.429,
      "velocity": 0.71,
      "hand": "right"
    },
    {
      "midi": 67,
      "time": 27.143,
      "duration": 1.429,
      "velocity": 0.71,
      "hand": "right"
    },
    {
      "midi": 74,
      "time": 27.143,
      "duration": 1.429,
      "velocity": 0.71,
      "hand": "right"
    },
    {
      "midi": 45,
      "time": 28.571,
      "duration": 1.429,
      "velocity": 0.71,
      "hand": "left"
    },
    {
      "midi": 57,
      "time": 28.571,
      "duration": 1.429,
      "velocity": 0.71,
      "hand": "left"
    },
    {
      "midi": 60,
      "time": 28.571,
      "duration": 1.429,
      "velocity": 0.71,
      "hand": "right"
    },
    {
      "midi": 67,
      "time": 28.571,
      "duration": 1.429,
      "velocity": 0.71,
      "hand": "right"
    },
    {
      "midi": 72,
      "time": 28.571,
      "duration": 1.429,
      "velocity": 0.71,
      "hand": "right"
    },
    {
      "midi": 44,
      "time": 30,
      "duration": 1.429,
      "velocity": 0.71,
      "hand": "left"
    },
    {
      "midi": 56,
      "time": 30,
      "duration": 1.429,
      "velocity": 0.71,
      "hand": "left"
    },
    {
      "midi": 60,
      "time": 30,
      "duration": 1.429,
      "velocity": 0.71,
      "hand": "right"
    },
    {
      "midi": 62,
      "time": 30,
      "duration": 1.429,
      "velocity": 0.71,
      "hand": "right"
    },
    {
      "midi": 66,
      "time": 30,
      "duration": 1.429,
      "velocity": 0.71,
      "hand": "right"
    },
    {
      "midi": 74,
      "time": 30,
      "duration": 1.429,
      "velocity": 0.71,
      "hand": "right"
    },
    {
      "midi": 43,
      "time": 31.429,
      "duration": 1.429,
      "velocity": 0.71,
      "hand": "left"
    },
    {
      "midi": 55,
      "time": 31.429,
      "duration": 1.429,
      "velocity": 0.71,
      "hand": "left"
    },
    {
      "midi": 62,
      "time": 31.429,
      "duration": 1.071,
      "velocity": 0.71,
      "hand": "right"
    },
    {
      "midi": 67,
      "time": 31.429,
      "duration": 1.071,
      "velocity": 0.71,
      "hand": "right"
    },
    {
      "midi": 71,
      "time": 31.429,
      "duration": 1.071,
      "velocity": 0.71,
      "hand": "right"
    },
    {
      "midi": 60,
      "time": 32.5,
      "duration": 0.357,
      "velocity": 0.71,
      "hand": "right"
    },
    {
      "midi": 69,
      "time": 32.5,
      "duration": 0.357,
      "velocity": 0.71,
      "hand": "right"
    },
    {
      "midi": 41,
      "time": 32.857,
      "duration": 1.429,
      "velocity": 0.71,
      "hand": "left"
    },
    {
      "midi": 53,
      "time": 32.857,
      "duration": 1.429,
      "velocity": 0.71,
      "hand": "left"
    },
    {
      "midi": 59,
      "time": 32.857,
      "duration": 1.429,
      "velocity": 0.71,
      "hand": "left"
    },
    {
      "midi": 62,
      "time": 32.857,
      "duration": 1.429,
      "velocity": 0.71,
      "hand": "right"
    },
    {
      "midi": 67,
      "time": 32.857,
      "duration": 1.429,
      "velocity": 0.71,
      "hand": "right"
    },
    {
      "midi": 39,
      "time": 34.286,
      "duration": 1.429,
      "velocity": 0.71,
      "hand": "left"
    },
    {
      "midi": 51,
      "time": 34.286,
      "duration": 1.429,
      "velocity": 0.71,
      "hand": "left"
    },
    {
      "midi": 60,
      "time": 34.286,
      "duration": 1.429,
      "velocity": 0.71,
      "hand": "right"
    },
    {
      "midi": 67,
      "time": 34.286,
      "duration": 1.429,
      "velocity": 0.71,
      "hand": "right"
    },
    {
      "midi": 72,
      "time": 34.286,
      "duration": 1.429,
      "velocity": 0.71,
      "hand": "right"
    },
    {
      "midi": 41,
      "time": 35.714,
      "duration": 1.429,
      "velocity": 0.71,
      "hand": "left"
    },
    {
      "midi": 53,
      "time": 35.714,
      "duration": 1.429,
      "velocity": 0.71,
      "hand": "left"
    },
    {
      "midi": 56,
      "time": 35.714,
      "duration": 1.429,
      "velocity": 0.71,
      "hand": "left"
    },
    {
      "midi": 60,
      "time": 35.714,
      "duration": 1.429,
      "velocity": 0.71,
      "hand": "right"
    },
    {
      "midi": 68,
      "time": 35.714,
      "duration": 1.429,
      "velocity": 0.71,
      "hand": "right"
    },
    {
      "midi": 35,
      "time": 37.143,
      "duration": 1.429,
      "velocity": 0.71,
      "hand": "left"
    },
    {
      "midi": 47,
      "time": 37.143,
      "duration": 1.429,
      "velocity": 0.71,
      "hand": "left"
    },
    {
      "midi": 55,
      "time": 37.143,
      "duration": 1.429,
      "velocity": 0.71,
      "hand": "left"
    },
    {
      "midi": 62,
      "time": 37.143,
      "duration": 1.429,
      "velocity": 0.71,
      "hand": "right"
    },
    {
      "midi": 67,
      "time": 37.143,
      "duration": 1.071,
      "velocity": 0.71,
      "hand": "right"
    },
    {
      "midi": 65,
      "time": 38.214,
      "duration": 0.357,
      "velocity": 0.71,
      "hand": "right"
    },
    {
      "midi": 36,
      "time": 38.571,
      "duration": 1.429,
      "velocity": 0.71,
      "hand": "left"
    },
    {
      "midi": 48,
      "time": 38.571,
      "duration": 1.429,
      "velocity": 0.71,
      "hand": "left"
    },
    {
      "midi": 55,
      "time": 38.571,
      "duration": 1.429,
      "velocity": 0.71,
      "hand": "left"
    },
    {
      "midi": 60,
      "time": 38.571,
      "duration": 1.429,
      "velocity": 0.71,
      "hand": "right"
    },
    {
      "midi": 63,
      "time": 38.571,
      "duration": 1.429,
      "velocity": 0.71,
      "hand": "right"
    },
    {
      "midi": 32,
      "time": 40,
      "duration": 1.429,
      "velocity": 0.71,
      "hand": "left"
    },
    {
      "midi": 44,
      "time": 40,
      "duration": 1.429,
      "velocity": 0.71,
      "hand": "left"
    },
    {
      "midi": 51,
      "time": 40,
      "duration": 1.429,
      "velocity": 0.71,
      "hand": "left"
    },
    {
      "midi": 56,
      "time": 40,
      "duration": 1.429,
      "velocity": 0.71,
      "hand": "left"
    },
    {
      "midi": 60,
      "time": 40,
      "duration": 1.429,
      "velocity": 0.71,
      "hand": "right"
    },
    {
      "midi": 63,
      "time": 40,
      "duration": 1.429,
      "velocity": 0.71,
      "hand": "right"
    },
    {
      "midi": 25,
      "time": 41.429,
      "duration": 1.429,
      "velocity": 0.71,
      "hand": "left"
    },
    {
      "midi": 37,
      "time": 41.429,
      "duration": 1.429,
      "velocity": 0.71,
      "hand": "left"
    },
    {
      "midi": 53,
      "time": 41.429,
      "duration": 1.429,
      "velocity": 0.71,
      "hand": "left"
    },
    {
      "midi": 56,
      "time": 41.429,
      "duration": 1.429,
      "velocity": 0.71,
      "hand": "left"
    },
    {
      "midi": 61,
      "time": 41.429,
      "duration": 1.429,
      "velocity": 0.71,
      "hand": "right"
    },
    {
      "midi": 65,
      "time": 41.429,
      "duration": 1.429,
      "velocity": 0.71,
      "hand": "right"
    },
    {
      "midi": 31,
      "time": 42.857,
      "duration": 1.429,
      "velocity": 0.71,
      "hand": "left"
    },
    {
      "midi": 43,
      "time": 42.857,
      "duration": 1.429,
      "velocity": 0.71,
      "hand": "left"
    },
    {
      "midi": 53,
      "time": 42.857,
      "duration": 1.429,
      "velocity": 0.71,
      "hand": "left"
    },
    {
      "midi": 55,
      "time": 42.857,
      "duration": 1.429,
      "velocity": 0.71,
      "hand": "left"
    },
    {
      "midi": 59,
      "time": 42.857,
      "duration": 1.429,
      "velocity": 0.71,
      "hand": "left"
    },
    {
      "midi": 63,
      "time": 42.857,
      "duration": 1.071,
      "velocity": 0.71,
      "hand": "right"
    },
    {
      "midi": 62,
      "time": 43.929,
      "duration": 0.357,
      "velocity": 0.71,
      "hand": "right"
    },
    {
      "midi": 24,
      "time": 44.286,
      "duration": 1.429,
      "velocity": 0.71,
      "hand": "left"
    },
    {
      "midi": 36,
      "time": 44.286,
      "duration": 1.429,
      "velocity": 0.71,
      "hand": "left"
    },
    {
      "midi": 51,
      "time": 44.286,
      "duration": 1.429,
      "velocity": 0.71,
      "hand": "left"
    },
    {
      "midi": 55,
      "time": 44.286,
      "duration": 1.429,
      "velocity": 0.71,
      "hand": "left"
    },
    {
      "midi": 60,
      "time": 44.286,
      "duration": 1.429,
      "velocity": 0.71,
      "hand": "right"
    },
    {
      "midi": 36,
      "time": 45.714,
      "duration": 1.429,
      "velocity": 0.71,
      "hand": "left"
    },
    {
      "midi": 48,
      "time": 45.714,
      "duration": 1.429,
      "velocity": 0.71,
      "hand": "left"
    },
    {
      "midi": 63,
      "time": 45.714,
      "duration": 1.429,
      "velocity": 0.71,
      "hand": "right"
    },
    {
      "midi": 67,
      "time": 45.714,
      "duration": 1.429,
      "velocity": 0.71,
      "hand": "right"
    },
    {
      "midi": 75,
      "time": 45.714,
      "duration": 1.429,
      "velocity": 0.71,
      "hand": "right"
    },
    {
      "midi": 48,
      "time": 47.143,
      "duration": 1.429,
      "velocity": 0.71,
      "hand": "left"
    },
    {
      "midi": 60,
      "time": 47.143,
      "duration": 1.429,
      "velocity": 0.71,
      "hand": "right"
    },
    {
      "midi": 63,
      "time": 47.143,
      "duration": 1.429,
      "velocity": 0.71,
      "hand": "right"
    },
    {
      "midi": 68,
      "time": 47.143,
      "duration": 1.429,
      "velocity": 0.71,
      "hand": "right"
    },
    {
      "midi": 75,
      "time": 47.143,
      "duration": 1.429,
      "velocity": 0.71,
      "hand": "right"
    },
    {
      "midi": 47,
      "time": 48.571,
      "duration": 1.429,
      "velocity": 0.71,
      "hand": "left"
    },
    {
      "midi": 59,
      "time": 48.571,
      "duration": 1.429,
      "velocity": 0.71,
      "hand": "left"
    },
    {
      "midi": 62,
      "time": 48.571,
      "duration": 1.429,
      "velocity": 0.71,
      "hand": "right"
    },
    {
      "midi": 68,
      "time": 48.571,
      "duration": 1.071,
      "velocity": 0.71,
      "hand": "right"
    },
    {
      "midi": 74,
      "time": 48.571,
      "duration": 1.429,
      "velocity": 0.71,
      "hand": "right"
    },
    {
      "midi": 66,
      "time": 49.643,
      "duration": 0.357,
      "velocity": 0.71,
      "hand": "right"
    },
    {
      "midi": 46,
      "time": 50,
      "duration": 1.429,
      "velocity": 0.71,
      "hand": "left"
    },
    {
      "midi": 58,
      "time": 50,
      "duration": 1.429,
      "velocity": 0.71,
      "hand": "left"
    },
    {
      "midi": 62,
      "time": 50,
      "duration": 1.429,
      "velocity": 0.71,
      "hand": "right"
    },
    {
      "midi": 67,
      "time": 50,
      "duration": 1.429,
      "velocity": 0.71,
      "hand": "right"
    },
    {
      "midi": 74,
      "time": 50,
      "duration": 1.429,
      "velocity": 0.71,
      "hand": "right"
    },
    {
      "midi": 45,
      "time": 51.429,
      "duration": 1.429,
      "velocity": 0.71,
      "hand": "left"
    },
    {
      "midi": 57,
      "time": 51.429,
      "duration": 1.429,
      "velocity": 0.71,
      "hand": "left"
    },
    {
      "midi": 60,
      "time": 51.429,
      "duration": 1.429,
      "velocity": 0.71,
      "hand": "right"
    },
    {
      "midi": 67,
      "time": 51.429,
      "duration": 1.429,
      "velocity": 0.71,
      "hand": "right"
    },
    {
      "midi": 72,
      "time": 51.429,
      "duration": 1.429,
      "velocity": 0.71,
      "hand": "right"
    },
    {
      "midi": 44,
      "time": 52.857,
      "duration": 1.429,
      "velocity": 0.71,
      "hand": "left"
    },
    {
      "midi": 56,
      "time": 52.857,
      "duration": 1.429,
      "velocity": 0.71,
      "hand": "left"
    },
    {
      "midi": 60,
      "time": 52.857,
      "duration": 1.429,
      "velocity": 0.71,
      "hand": "right"
    },
    {
      "midi": 62,
      "time": 52.857,
      "duration": 1.429,
      "velocity": 0.71,
      "hand": "right"
    },
    {
      "midi": 66,
      "time": 52.857,
      "duration": 1.429,
      "velocity": 0.71,
      "hand": "right"
    },
    {
      "midi": 74,
      "time": 52.857,
      "duration": 1.429,
      "velocity": 0.71,
      "hand": "right"
    },
    {
      "midi": 43,
      "time": 54.286,
      "duration": 1.429,
      "velocity": 0.71,
      "hand": "left"
    },
    {
      "midi": 55,
      "time": 54.286,
      "duration": 1.429,
      "velocity": 0.71,
      "hand": "left"
    },
    {
      "midi": 62,
      "time": 54.286,
      "duration": 1.071,
      "velocity": 0.71,
      "hand": "right"
    },
    {
      "midi": 67,
      "time": 54.286,
      "duration": 1.071,
      "velocity": 0.71,
      "hand": "right"
    },
    {
      "midi": 71,
      "time": 54.286,
      "duration": 1.071,
      "velocity": 0.71,
      "hand": "right"
    },
    {
      "midi": 60,
      "time": 55.357,
      "duration": 0.357,
      "velocity": 0.71,
      "hand": "right"
    },
    {
      "midi": 69,
      "time": 55.357,
      "duration": 0.357,
      "velocity": 0.71,
      "hand": "right"
    },
    {
      "midi": 41,
      "time": 55.714,
      "duration": 1.429,
      "velocity": 0.71,
      "hand": "left"
    },
    {
      "midi": 53,
      "time": 55.714,
      "duration": 1.429,
      "velocity": 0.71,
      "hand": "left"
    },
    {
      "midi": 59,
      "time": 55.714,
      "duration": 1.429,
      "velocity": 0.71,
      "hand": "left"
    },
    {
      "midi": 62,
      "time": 55.714,
      "duration": 1.429,
      "velocity": 0.71,
      "hand": "right"
    },
    {
      "midi": 67,
      "time": 55.714,
      "duration": 1.429,
      "velocity": 0.71,
      "hand": "right"
    },
    {
      "midi": 39,
      "time": 57.143,
      "duration": 1.429,
      "velocity": 0.71,
      "hand": "left"
    },
    {
      "midi": 51,
      "time": 57.143,
      "duration": 1.429,
      "velocity": 0.71,
      "hand": "left"
    },
    {
      "midi": 60,
      "time": 57.143,
      "duration": 1.429,
      "velocity": 0.71,
      "hand": "right"
    },
    {
      "midi": 67,
      "time": 57.143,
      "duration": 1.429,
      "velocity": 0.71,
      "hand": "right"
    },
    {
      "midi": 72,
      "time": 57.143,
      "duration": 1.429,
      "velocity": 0.71,
      "hand": "right"
    },
    {
      "midi": 41,
      "time": 58.571,
      "duration": 1.429,
      "velocity": 0.71,
      "hand": "left"
    },
    {
      "midi": 53,
      "time": 58.571,
      "duration": 1.429,
      "velocity": 0.71,
      "hand": "left"
    },
    {
      "midi": 56,
      "time": 58.571,
      "duration": 1.429,
      "velocity": 0.71,
      "hand": "left"
    },
    {
      "midi": 60,
      "time": 58.571,
      "duration": 1.429,
      "velocity": 0.71,
      "hand": "right"
    },
    {
      "midi": 68,
      "time": 58.571,
      "duration": 1.429,
      "velocity": 0.71,
      "hand": "right"
    },
    {
      "midi": 35,
      "time": 60,
      "duration": 1.429,
      "velocity": 0.71,
      "hand": "left"
    },
    {
      "midi": 47,
      "time": 60,
      "duration": 1.429,
      "velocity": 0.71,
      "hand": "left"
    },
    {
      "midi": 55,
      "time": 60,
      "duration": 1.429,
      "velocity": 0.71,
      "hand": "left"
    },
    {
      "midi": 62,
      "time": 60,
      "duration": 1.429,
      "velocity": 0.71,
      "hand": "right"
    },
    {
      "midi": 67,
      "time": 60,
      "duration": 1.071,
      "velocity": 0.71,
      "hand": "right"
    },
    {
      "midi": 65,
      "time": 61.071,
      "duration": 0.357,
      "velocity": 0.71,
      "hand": "right"
    },
    {
      "midi": 36,
      "time": 61.429,
      "duration": 1.429,
      "velocity": 0.71,
      "hand": "left"
    },
    {
      "midi": 48,
      "time": 61.429,
      "duration": 1.429,
      "velocity": 0.71,
      "hand": "left"
    },
    {
      "midi": 55,
      "time": 61.429,
      "duration": 1.429,
      "velocity": 0.71,
      "hand": "left"
    },
    {
      "midi": 60,
      "time": 61.429,
      "duration": 1.429,
      "velocity": 0.71,
      "hand": "right"
    },
    {
      "midi": 63,
      "time": 61.429,
      "duration": 1.429,
      "velocity": 0.71,
      "hand": "right"
    },
    {
      "midi": 32,
      "time": 62.857,
      "duration": 1.429,
      "velocity": 0.71,
      "hand": "left"
    },
    {
      "midi": 44,
      "time": 62.857,
      "duration": 1.429,
      "velocity": 0.71,
      "hand": "left"
    },
    {
      "midi": 51,
      "time": 62.857,
      "duration": 1.429,
      "velocity": 0.71,
      "hand": "left"
    },
    {
      "midi": 56,
      "time": 62.857,
      "duration": 1.429,
      "velocity": 0.71,
      "hand": "left"
    },
    {
      "midi": 60,
      "time": 62.857,
      "duration": 1.429,
      "velocity": 0.71,
      "hand": "right"
    },
    {
      "midi": 63,
      "time": 62.857,
      "duration": 1.429,
      "velocity": 0.71,
      "hand": "right"
    },
    {
      "midi": 25,
      "time": 64.286,
      "duration": 1.429,
      "velocity": 0.71,
      "hand": "left"
    },
    {
      "midi": 37,
      "time": 64.286,
      "duration": 1.429,
      "velocity": 0.71,
      "hand": "left"
    },
    {
      "midi": 53,
      "time": 64.286,
      "duration": 1.429,
      "velocity": 0.71,
      "hand": "left"
    },
    {
      "midi": 56,
      "time": 64.286,
      "duration": 1.429,
      "velocity": 0.71,
      "hand": "left"
    },
    {
      "midi": 61,
      "time": 64.286,
      "duration": 1.429,
      "velocity": 0.71,
      "hand": "right"
    },
    {
      "midi": 65,
      "time": 64.286,
      "duration": 1.429,
      "velocity": 0.71,
      "hand": "right"
    },
    {
      "midi": 31,
      "time": 65.714,
      "duration": 1.429,
      "velocity": 0.71,
      "hand": "left"
    },
    {
      "midi": 43,
      "time": 65.714,
      "duration": 1.429,
      "velocity": 0.71,
      "hand": "left"
    },
    {
      "midi": 53,
      "time": 65.714,
      "duration": 1.429,
      "velocity": 0.71,
      "hand": "left"
    },
    {
      "midi": 55,
      "time": 65.714,
      "duration": 1.429,
      "velocity": 0.71,
      "hand": "left"
    },
    {
      "midi": 59,
      "time": 65.714,
      "duration": 1.429,
      "velocity": 0.71,
      "hand": "left"
    },
    {
      "midi": 63,
      "time": 65.714,
      "duration": 1.071,
      "velocity": 0.71,
      "hand": "right"
    },
    {
      "midi": 62,
      "time": 66.786,
      "duration": 0.357,
      "velocity": 0.71,
      "hand": "right"
    },
    {
      "midi": 24,
      "time": 67.143,
      "duration": 1.429,
      "velocity": 0.71,
      "hand": "left"
    },
    {
      "midi": 36,
      "time": 67.143,
      "duration": 1.429,
      "velocity": 0.71,
      "hand": "left"
    },
    {
      "midi": 51,
      "time": 67.143,
      "duration": 1.429,
      "velocity": 0.71,
      "hand": "left"
    },
    {
      "midi": 55,
      "time": 67.143,
      "duration": 1.429,
      "velocity": 0.71,
      "hand": "left"
    },
    {
      "midi": 60,
      "time": 67.143,
      "duration": 1.429,
      "velocity": 0.71,
      "hand": "right"
    },
    {
      "midi": 48,
      "time": 68.571,
      "duration": 5.714,
      "velocity": 0.71,
      "hand": "left"
    },
    {
      "midi": 55,
      "time": 68.571,
      "duration": 5.714,
      "velocity": 0.71,
      "hand": "left"
    },
    {
      "midi": 60,
      "time": 68.571,
      "duration": 5.714,
      "velocity": 0.71,
      "hand": "right"
    },
    {
      "midi": 63,
      "time": 68.571,
      "duration": 5.714,
      "velocity": 0.71,
      "hand": "right"
    },
    {
      "midi": 67,
      "time": 68.571,
      "duration": 5.714,
      "velocity": 0.71,
      "hand": "right"
    },
    {
      "midi": 72,
      "time": 68.571,
      "duration": 5.714,
      "velocity": 0.71,
      "hand": "right"
    }
  ],
  "arrangements": {
    "easy": [
      {
        "midi": 67,
        "time": 0,
        "duration": 1.429,
        "velocity": 0.71,
        "hand": "right"
      },
      {
        "midi": 68,
        "time": 1.429,
        "duration": 1.429,
        "velocity": 0.71,
        "hand": "right"
      },
      {
        "midi": 67,
        "time": 2.857,
        "duration": 1.071,
        "velocity": 0.71,
        "hand": "right"
      },
      {
        "midi": 65,
        "time": 3.929,
        "duration": 0.714,
        "velocity": 0.71,
        "hand": "right"
      },
      {
        "midi": 63,
        "time": 5.714,
        "duration": 1.429,
        "velocity": 0.71,
        "hand": "right"
      },
      {
        "midi": 65,
        "time": 7.143,
        "duration": 1.429,
        "velocity": 0.71,
        "hand": "right"
      },
      {
        "midi": 63,
        "time": 8.571,
        "duration": 1.071,
        "velocity": 0.71,
        "hand": "right"
      },
      {
        "midi": 61,
        "time": 9.643,
        "duration": 0.714,
        "velocity": 0.71,
        "hand": "right"
      },
      {
        "midi": 62,
        "time": 11.429,
        "duration": 1.429,
        "velocity": 0.71,
        "hand": "right"
      },
      {
        "midi": 64,
        "time": 12.857,
        "duration": 1.429,
        "velocity": 0.71,
        "hand": "right"
      },
      {
        "midi": 67,
        "time": 14.286,
        "duration": 1.071,
        "velocity": 0.71,
        "hand": "right"
      },
      {
        "midi": 65,
        "time": 15.357,
        "duration": 0.714,
        "velocity": 0.71,
        "hand": "right"
      },
      {
        "midi": 62,
        "time": 17.143,
        "duration": 1.429,
        "velocity": 0.71,
        "hand": "right"
      },
      {
        "midi": 67,
        "time": 18.571,
        "duration": 1.429,
        "velocity": 0.71,
        "hand": "right"
      },
      {
        "midi": 71,
        "time": 20,
        "duration": 1.071,
        "velocity": 0.71,
        "hand": "right"
      },
      {
        "midi": 69,
        "time": 21.071,
        "duration": 0.714,
        "velocity": 0.71,
        "hand": "right"
      },
      {
        "midi": 75,
        "time": 22.857,
        "duration": 1.429,
        "velocity": 0.71,
        "hand": "right"
      },
      {
        "midi": 75,
        "time": 24.286,
        "duration": 1.429,
        "velocity": 0.71,
        "hand": "right"
      },
      {
        "midi": 74,
        "time": 25.714,
        "duration": 1.429,
        "velocity": 0.71,
        "hand": "right"
      },
      {
        "midi": 66,
        "time": 26.786,
        "duration": 0.714,
        "velocity": 0.71,
        "hand": "right"
      },
      {
        "midi": 72,
        "time": 28.571,
        "duration": 1.429,
        "velocity": 0.71,
        "hand": "right"
      },
      {
        "midi": 74,
        "time": 30,
        "duration": 1.429,
        "velocity": 0.71,
        "hand": "right"
      },
      {
        "midi": 71,
        "time": 31.429,
        "duration": 1.071,
        "velocity": 0.71,
        "hand": "right"
      },
      {
        "midi": 69,
        "time": 32.5,
        "duration": 0.714,
        "velocity": 0.71,
        "hand": "right"
      },
      {
        "midi": 72,
        "time": 34.286,
        "duration": 1.429,
        "velocity": 0.71,
        "hand": "right"
      },
      {
        "midi": 68,
        "time": 35.714,
        "duration": 1.429,
        "velocity": 0.71,
        "hand": "right"
      },
      {
        "midi": 67,
        "time": 37.143,
        "duration": 1.071,
        "velocity": 0.71,
        "hand": "right"
      },
      {
        "midi": 65,
        "time": 38.214,
        "duration": 0.714,
        "velocity": 0.71,
        "hand": "right"
      },
      {
        "midi": 63,
        "time": 40,
        "duration": 1.429,
        "velocity": 0.71,
        "hand": "right"
      },
      {
        "midi": 65,
        "time": 41.429,
        "duration": 1.429,
        "velocity": 0.71,
        "hand": "right"
      },
      {
        "midi": 63,
        "time": 42.857,
        "duration": 1.071,
        "velocity": 0.71,
        "hand": "right"
      },
      {
        "midi": 62,
        "time": 43.929,
        "duration": 0.714,
        "velocity": 0.71,
        "hand": "right"
      },
      {
        "midi": 75,
        "time": 45.714,
        "duration": 1.429,
        "velocity": 0.71,
        "hand": "right"
      },
      {
        "midi": 75,
        "time": 47.143,
        "duration": 1.429,
        "velocity": 0.71,
        "hand": "right"
      },
      {
        "midi": 74,
        "time": 48.571,
        "duration": 1.429,
        "velocity": 0.71,
        "hand": "right"
      },
      {
        "midi": 66,
        "time": 49.643,
        "duration": 0.714,
        "velocity": 0.71,
        "hand": "right"
      },
      {
        "midi": 72,
        "time": 51.429,
        "duration": 1.429,
        "velocity": 0.71,
        "hand": "right"
      },
      {
        "midi": 74,
        "time": 52.857,
        "duration": 1.429,
        "velocity": 0.71,
        "hand": "right"
      },
      {
        "midi": 71,
        "time": 54.286,
        "duration": 1.071,
        "velocity": 0.71,
        "hand": "right"
      },
      {
        "midi": 69,
        "time": 55.357,
        "duration": 0.714,
        "velocity": 0.71,
        "hand": "right"
      },
      {
        "midi": 72,
        "time": 57.143,
        "duration": 1.429,
        "velocity": 0.71,
        "hand": "right"
      },
      {
        "midi": 68,
        "time": 58.571,
        "duration": 1.429,
        "velocity": 0.71,
        "hand": "right"
      },
      {
        "midi": 67,
        "time": 60,
        "duration": 1.071,
        "velocity": 0.71,
        "hand": "right"
      },
      {
        "midi": 65,
        "time": 61.071,
        "duration": 0.714,
        "velocity": 0.71,
        "hand": "right"
      },
      {
        "midi": 63,
        "time": 62.857,
        "duration": 1.429,
        "velocity": 0.71,
        "hand": "right"
      },
      {
        "midi": 65,
        "time": 64.286,
        "duration": 1.429,
        "velocity": 0.71,
        "hand": "right"
      },
      {
        "midi": 63,
        "time": 65.714,
        "duration": 1.071,
        "velocity": 0.71,
        "hand": "right"
      },
      {
        "midi": 62,
        "time": 66.786,
        "duration": 0.714,
        "velocity": 0.71,
        "hand": "right"
      },
      {
        "midi": 72,
        "time": 68.571,
        "duration": 5.714,
        "velocity": 0.71,
        "hand": "right"
      }
    ],
    "medium": [
      {
        "midi": 36,
        "time": 0,
        "duration": 1.429,
        "velocity": 0.71,
        "hand": "left"
      },
      {
        "midi": 60,
        "time": 0,
        "duration": 1.429,
        "velocity": 0.71,
        "hand": "right"
      },
      {
        "midi": 67,
        "time": 0,
        "duration": 1.429,
        "velocity": 0.71,
        "hand": "right"
      },
      {
        "midi": 29,
        "time": 1.429,
        "duration": 1.429,
        "velocity": 0.71,
        "hand": "left"
      },
      {
        "midi": 60,
        "time": 1.429,
        "duration": 1.429,
        "velocity": 0.71,
        "hand": "right"
      },
      {
        "midi": 68,
        "time": 1.429,
        "duration": 1.429,
        "velocity": 0.71,
        "hand": "right"
      },
      {
        "midi": 31,
        "time": 2.857,
        "duration": 1.429,
        "velocity": 0.71,
        "hand": "left"
      },
      {
        "midi": 59,
        "time": 2.857,
        "duration": 1.429,
        "velocity": 0.71,
        "hand": "left"
      },
      {
        "midi": 67,
        "time": 2.857,
        "duration": 1.071,
        "velocity": 0.71,
        "hand": "right"
      },
      {
        "midi": 62,
        "time": 3.929,
        "duration": 0.357,
        "velocity": 0.71,
        "hand": "right"
      },
      {
        "midi": 65,
        "time": 3.929,
        "duration": 0.357,
        "velocity": 0.71,
        "hand": "right"
      },
      {
        "midi": 36,
        "time": 4.286,
        "duration": 1.429,
        "velocity": 0.71,
        "hand": "left"
      },
      {
        "midi": 51,
        "time": 4.286,
        "duration": 1.429,
        "velocity": 0.71,
        "hand": "left"
      },
      {
        "midi": 63,
        "time": 4.286,
        "duration": 1.429,
        "velocity": 0.71,
        "hand": "right"
      },
      {
        "midi": 32,
        "time": 5.714,
        "duration": 1.429,
        "velocity": 0.71,
        "hand": "left"
      },
      {
        "midi": 56,
        "time": 5.714,
        "duration": 1.429,
        "velocity": 0.71,
        "hand": "left"
      },
      {
        "midi": 63,
        "time": 5.714,
        "duration": 1.429,
        "velocity": 0.71,
        "hand": "right"
      },
      {
        "midi": 25,
        "time": 7.143,
        "duration": 1.429,
        "velocity": 0.71,
        "hand": "left"
      },
      {
        "midi": 56,
        "time": 7.143,
        "duration": 1.429,
        "velocity": 0.71,
        "hand": "left"
      },
      {
        "midi": 65,
        "time": 7.143,
        "duration": 1.429,
        "velocity": 0.71,
        "hand": "right"
      },
      {
        "midi": 27,
        "time": 8.571,
        "duration": 1.429,
        "velocity": 0.71,
        "hand": "left"
      },
      {
        "midi": 51,
        "time": 8.571,
        "duration": 1.429,
        "velocity": 0.71,
        "hand": "left"
      },
      {
        "midi": 63,
        "time": 8.571,
        "duration": 1.071,
        "velocity": 0.71,
        "hand": "right"
      },
      {
        "midi": 58,
        "time": 9.643,
        "duration": 0.357,
        "velocity": 0.71,
        "hand": "left"
      },
      {
        "midi": 61,
        "time": 9.643,
        "duration": 0.357,
        "velocity": 0.71,
        "hand": "right"
      },
      {
        "midi": 32,
        "time": 10,
        "duration": 1.429,
        "velocity": 0.71,
        "hand": "left"
      },
      {
        "midi": 51,
        "time": 10,
        "duration": 1.429,
        "velocity": 0.71,
        "hand": "left"
      },
      {
        "midi": 60,
        "time": 10,
        "duration": 1.429,
        "velocity": 0.71,
        "hand": "right"
      },
      {
        "midi": 31,
        "time": 11.429,
        "duration": 1.429,
        "velocity": 0.71,
        "hand": "left"
      },
      {
        "midi": 53,
        "time": 11.429,
        "duration": 1.429,
        "velocity": 0.71,
        "hand": "left"
      },
      {
        "midi": 62,
        "time": 11.429,
        "duration": 1.429,
        "velocity": 0.71,
        "hand": "right"
      },
      {
        "midi": 24,
        "time": 12.857,
        "duration": 1.429,
        "velocity": 0.71,
        "hand": "left"
      },
      {
        "midi": 55,
        "time": 12.857,
        "duration": 1.429,
        "velocity": 0.71,
        "hand": "left"
      },
      {
        "midi": 64,
        "time": 12.857,
        "duration": 1.429,
        "velocity": 0.71,
        "hand": "right"
      },
      {
        "midi": 29,
        "time": 14.286,
        "duration": 1.429,
        "velocity": 0.71,
        "hand": "left"
      },
      {
        "midi": 56,
        "time": 14.286,
        "duration": 1.429,
        "velocity": 0.71,
        "hand": "left"
      },
      {
        "midi": 67,
        "time": 14.286,
        "duration": 1.071,
        "velocity": 0.71,
        "hand": "right"
      },
      {
        "midi": 65,
        "time": 15.357,
        "duration": 0.357,
        "velocity": 0.71,
        "hand": "right"
      },
      {
        "midi": 36,
        "time": 15.714,
        "duration": 1.429,
        "velocity": 0.71,
        "hand": "left"
      },
      {
        "midi": 55,
        "time": 15.714,
        "duration": 1.429,
        "velocity": 0.71,
        "hand": "left"
      },
      {
        "midi": 63,
        "time": 15.714,
        "duration": 1.429,
        "velocity": 0.71,
        "hand": "right"
      },
      {
        "midi": 38,
        "time": 17.143,
        "duration": 1.429,
        "velocity": 0.71,
        "hand": "left"
      },
      {
        "midi": 54,
        "time": 17.143,
        "duration": 1.429,
        "velocity": 0.71,
        "hand": "left"
      },
      {
        "midi": 62,
        "time": 17.143,
        "duration": 1.429,
        "velocity": 0.71,
        "hand": "right"
      },
      {
        "midi": 31,
        "time": 18.571,
        "duration": 1.429,
        "velocity": 0.71,
        "hand": "left"
      },
      {
        "midi": 59,
        "time": 18.571,
        "duration": 1.429,
        "velocity": 0.71,
        "hand": "left"
      },
      {
        "midi": 67,
        "time": 18.571,
        "duration": 1.429,
        "velocity": 0.71,
        "hand": "right"
      },
      {
        "midi": 26,
        "time": 20,
        "duration": 1.429,
        "velocity": 0.71,
        "hand": "left"
      },
      {
        "midi": 62,
        "time": 20,
        "duration": 1.429,
        "velocity": 0.71,
        "hand": "right"
      },
      {
        "midi": 71,
        "time": 20,
        "duration": 1.071,
        "velocity": 0.71,
        "hand": "right"
      },
      {
        "midi": 69,
        "time": 21.071,
        "duration": 0.357,
        "velocity": 0.71,
        "hand": "right"
      },
      {
        "midi": 31,
        "time": 21.429,
        "duration": 1.429,
        "velocity": 0.71,
        "hand": "left"
      },
      {
        "midi": 59,
        "time": 21.429,
        "duration": 1.429,
        "velocity": 0.71,
        "hand": "left"
      },
      {
        "midi": 67,
        "time": 21.429,
        "duration": 1.429,
        "velocity": 0.71,
        "hand": "right"
      },
      {
        "midi": 36,
        "time": 22.857,
        "duration": 1.429,
        "velocity": 0.71,
        "hand": "left"
      },
      {
        "midi": 63,
        "time": 22.857,
        "duration": 1.429,
        "velocity": 0.71,
        "hand": "right"
      },
      {
        "midi": 75,
        "time": 22.857,
        "duration": 1.429,
        "velocity": 0.71,
        "hand": "right"
      },
      {
        "midi": 48,
        "time": 24.286,
        "duration": 1.429,
        "velocity": 0.71,
        "hand": "left"
      },
      {
        "midi": 63,
        "time": 24.286,
        "duration": 1.429,
        "velocity": 0.71,
        "hand": "right"
      },
      {
        "midi": 75,
        "time": 24.286,
        "duration": 1.429,
        "velocity": 0.71,
        "hand": "right"
      },
      {
        "midi": 47,
        "time": 25.714,
        "duration": 1.429,
        "velocity": 0.71,
        "hand": "left"
      },
      {
        "midi": 62,
        "time": 25.714,
        "duration": 1.429,
        "velocity": 0.71,
        "hand": "right"
      },
      {
        "midi": 74,
        "time": 25.714,
        "duration": 1.429,
        "velocity": 0.71,
        "hand": "right"
      },
      {
        "midi": 66,
        "time": 26.786,
        "duration": 0.357,
        "velocity": 0.71,
        "hand": "right"
      },
      {
        "midi": 46,
        "time": 27.143,
        "duration": 1.429,
        "velocity": 0.71,
        "hand": "left"
      },
      {
        "midi": 62,
        "time": 27.143,
        "duration": 1.429,
        "velocity": 0.71,
        "hand": "right"
      },
      {
        "midi": 74,
        "time": 27.143,
        "duration": 1.429,
        "velocity": 0.71,
        "hand": "right"
      },
      {
        "midi": 45,
        "time": 28.571,
        "duration": 1.429,
        "velocity": 0.71,
        "hand": "left"
      },
      {
        "midi": 60,
        "time": 28.571,
        "duration": 1.429,
        "velocity": 0.71,
        "hand": "right"
      },
      {
        "midi": 72,
        "time": 28.571,
        "duration": 1.429,
        "velocity": 0.71,
        "hand": "right"
      },
      {
        "midi": 44,
        "time": 30,
        "duration": 1.429,
        "velocity": 0.71,
        "hand": "left"
      },
      {
        "midi": 62,
        "time": 30,
        "duration": 1.429,
        "velocity": 0.71,
        "hand": "right"
      },
      {
        "midi": 74,
        "time": 30,
        "duration": 1.429,
        "velocity": 0.71,
        "hand": "right"
      },
      {
        "midi": 43,
        "time": 31.429,
        "duration": 1.429,
        "velocity": 0.71,
        "hand": "left"
      },
      {
        "midi": 62,
        "time": 31.429,
        "duration": 1.071,
        "velocity": 0.71,
        "hand": "right"
      },
      {
        "midi": 71,
        "time": 31.429,
        "duration": 1.071,
        "velocity": 0.71,
        "hand": "right"
      },
      {
        "midi": 60,
        "time": 32.5,
        "duration": 0.357,
        "velocity": 0.71,
        "hand": "right"
      },
      {
        "midi": 69,
        "time": 32.5,
        "duration": 0.357,
        "velocity": 0.71,
        "hand": "right"
      },
      {
        "midi": 41,
        "time": 32.857,
        "duration": 1.429,
        "velocity": 0.71,
        "hand": "left"
      },
      {
        "midi": 59,
        "time": 32.857,
        "duration": 1.429,
        "velocity": 0.71,
        "hand": "left"
      },
      {
        "midi": 67,
        "time": 32.857,
        "duration": 1.429,
        "velocity": 0.71,
        "hand": "right"
      },
      {
        "midi": 39,
        "time": 34.286,
        "duration": 1.429,
        "velocity": 0.71,
        "hand": "left"
      },
      {
        "midi": 60,
        "time": 34.286,
        "duration": 1.429,
        "velocity": 0.71,
        "hand": "right"
      },
      {
        "midi": 72,
        "time": 34.286,
        "duration": 1.429,
        "velocity": 0.71,
        "hand": "right"
      },
      {
        "midi": 41,
        "time": 35.714,
        "duration": 1.429,
        "velocity": 0.71,
        "hand": "left"
      },
      {
        "midi": 56,
        "time": 35.714,
        "duration": 1.429,
        "velocity": 0.71,
        "hand": "left"
      },
      {
        "midi": 68,
        "time": 35.714,
        "duration": 1.429,
        "velocity": 0.71,
        "hand": "right"
      },
      {
        "midi": 35,
        "time": 37.143,
        "duration": 1.429,
        "velocity": 0.71,
        "hand": "left"
      },
      {
        "midi": 55,
        "time": 37.143,
        "duration": 1.429,
        "velocity": 0.71,
        "hand": "left"
      },
      {
        "midi": 67,
        "time": 37.143,
        "duration": 1.071,
        "velocity": 0.71,
        "hand": "right"
      },
      {
        "midi": 65,
        "time": 38.214,
        "duration": 0.357,
        "velocity": 0.71,
        "hand": "right"
      },
      {
        "midi": 36,
        "time": 38.571,
        "duration": 1.429,
        "velocity": 0.71,
        "hand": "left"
      },
      {
        "midi": 55,
        "time": 38.571,
        "duration": 1.429,
        "velocity": 0.71,
        "hand": "left"
      },
      {
        "midi": 63,
        "time": 38.571,
        "duration": 1.429,
        "velocity": 0.71,
        "hand": "right"
      },
      {
        "midi": 32,
        "time": 40,
        "duration": 1.429,
        "velocity": 0.71,
        "hand": "left"
      },
      {
        "midi": 56,
        "time": 40,
        "duration": 1.429,
        "velocity": 0.71,
        "hand": "left"
      },
      {
        "midi": 63,
        "time": 40,
        "duration": 1.429,
        "velocity": 0.71,
        "hand": "right"
      },
      {
        "midi": 25,
        "time": 41.429,
        "duration": 1.429,
        "velocity": 0.71,
        "hand": "left"
      },
      {
        "midi": 56,
        "time": 41.429,
        "duration": 1.429,
        "velocity": 0.71,
        "hand": "left"
      },
      {
        "midi": 65,
        "time": 41.429,
        "duration": 1.429,
        "velocity": 0.71,
        "hand": "right"
      },
      {
        "midi": 31,
        "time": 42.857,
        "duration": 1.429,
        "velocity": 0.71,
        "hand": "left"
      },
      {
        "midi": 55,
        "time": 42.857,
        "duration": 1.429,
        "velocity": 0.71,
        "hand": "left"
      },
      {
        "midi": 63,
        "time": 42.857,
        "duration": 1.071,
        "velocity": 0.71,
        "hand": "right"
      },
      {
        "midi": 62,
        "time": 43.929,
        "duration": 0.357,
        "velocity": 0.71,
        "hand": "right"
      },
      {
        "midi": 24,
        "time": 44.286,
        "duration": 1.429,
        "velocity": 0.71,
        "hand": "left"
      },
      {
        "midi": 51,
        "time": 44.286,
        "duration": 1.429,
        "velocity": 0.71,
        "hand": "left"
      },
      {
        "midi": 60,
        "time": 44.286,
        "duration": 1.429,
        "velocity": 0.71,
        "hand": "right"
      },
      {
        "midi": 36,
        "time": 45.714,
        "duration": 1.429,
        "velocity": 0.71,
        "hand": "left"
      },
      {
        "midi": 63,
        "time": 45.714,
        "duration": 1.429,
        "velocity": 0.71,
        "hand": "right"
      },
      {
        "midi": 75,
        "time": 45.714,
        "duration": 1.429,
        "velocity": 0.71,
        "hand": "right"
      },
      {
        "midi": 48,
        "time": 47.143,
        "duration": 1.429,
        "velocity": 0.71,
        "hand": "left"
      },
      {
        "midi": 63,
        "time": 47.143,
        "duration": 1.429,
        "velocity": 0.71,
        "hand": "right"
      },
      {
        "midi": 75,
        "time": 47.143,
        "duration": 1.429,
        "velocity": 0.71,
        "hand": "right"
      },
      {
        "midi": 47,
        "time": 48.571,
        "duration": 1.429,
        "velocity": 0.71,
        "hand": "left"
      },
      {
        "midi": 62,
        "time": 48.571,
        "duration": 1.429,
        "velocity": 0.71,
        "hand": "right"
      },
      {
        "midi": 74,
        "time": 48.571,
        "duration": 1.429,
        "velocity": 0.71,
        "hand": "right"
      },
      {
        "midi": 66,
        "time": 49.643,
        "duration": 0.357,
        "velocity": 0.71,
        "hand": "right"
      },
      {
        "midi": 46,
        "time": 50,
        "duration": 1.429,
        "velocity": 0.71,
        "hand": "left"
      },
      {
        "midi": 62,
        "time": 50,
        "duration": 1.429,
        "velocity": 0.71,
        "hand": "right"
      },
      {
        "midi": 74,
        "time": 50,
        "duration": 1.429,
        "velocity": 0.71,
        "hand": "right"
      },
      {
        "midi": 45,
        "time": 51.429,
        "duration": 1.429,
        "velocity": 0.71,
        "hand": "left"
      },
      {
        "midi": 60,
        "time": 51.429,
        "duration": 1.429,
        "velocity": 0.71,
        "hand": "right"
      },
      {
        "midi": 72,
        "time": 51.429,
        "duration": 1.429,
        "velocity": 0.71,
        "hand": "right"
      },
      {
        "midi": 44,
        "time": 52.857,
        "duration": 1.429,
        "velocity": 0.71,
        "hand": "left"
      },
      {
        "midi": 62,
        "time": 52.857,
        "duration": 1.429,
        "velocity": 0.71,
        "hand": "right"
      },
      {
        "midi": 74,
        "time": 52.857,
        "duration": 1.429,
        "velocity": 0.71,
        "hand": "right"
      },
      {
        "midi": 43,
        "time": 54.286,
        "duration": 1.429,
        "velocity": 0.71,
        "hand": "left"
      },
      {
        "midi": 62,
        "time": 54.286,
        "duration": 1.071,
        "velocity": 0.71,
        "hand": "right"
      },
      {
        "midi": 71,
        "time": 54.286,
        "duration": 1.071,
        "velocity": 0.71,
        "hand": "right"
      },
      {
        "midi": 60,
        "time": 55.357,
        "duration": 0.357,
        "velocity": 0.71,
        "hand": "right"
      },
      {
        "midi": 69,
        "time": 55.357,
        "duration": 0.357,
        "velocity": 0.71,
        "hand": "right"
      },
      {
        "midi": 41,
        "time": 55.714,
        "duration": 1.429,
        "velocity": 0.71,
        "hand": "left"
      },
      {
        "midi": 59,
        "time": 55.714,
        "duration": 1.429,
        "velocity": 0.71,
        "hand": "left"
      },
      {
        "midi": 67,
        "time": 55.714,
        "duration": 1.429,
        "velocity": 0.71,
        "hand": "right"
      },
      {
        "midi": 39,
        "time": 57.143,
        "duration": 1.429,
        "velocity": 0.71,
        "hand": "left"
      },
      {
        "midi": 60,
        "time": 57.143,
        "duration": 1.429,
        "velocity": 0.71,
        "hand": "right"
      },
      {
        "midi": 72,
        "time": 57.143,
        "duration": 1.429,
        "velocity": 0.71,
        "hand": "right"
      },
      {
        "midi": 41,
        "time": 58.571,
        "duration": 1.429,
        "velocity": 0.71,
        "hand": "left"
      },
      {
        "midi": 56,
        "time": 58.571,
        "duration": 1.429,
        "velocity": 0.71,
        "hand": "left"
      },
      {
        "midi": 68,
        "time": 58.571,
        "duration": 1.429,
        "velocity": 0.71,
        "hand": "right"
      },
      {
        "midi": 35,
        "time": 60,
        "duration": 1.429,
        "velocity": 0.71,
        "hand": "left"
      },
      {
        "midi": 55,
        "time": 60,
        "duration": 1.429,
        "velocity": 0.71,
        "hand": "left"
      },
      {
        "midi": 67,
        "time": 60,
        "duration": 1.071,
        "velocity": 0.71,
        "hand": "right"
      },
      {
        "midi": 65,
        "time": 61.071,
        "duration": 0.357,
        "velocity": 0.71,
        "hand": "right"
      },
      {
        "midi": 36,
        "time": 61.429,
        "duration": 1.429,
        "velocity": 0.71,
        "hand": "left"
      },
      {
        "midi": 55,
        "time": 61.429,
        "duration": 1.429,
        "velocity": 0.71,
        "hand": "left"
      },
      {
        "midi": 63,
        "time": 61.429,
        "duration": 1.429,
        "velocity": 0.71,
        "hand": "right"
      },
      {
        "midi": 32,
        "time": 62.857,
        "duration": 1.429,
        "velocity": 0.71,
        "hand": "left"
      },
      {
        "midi": 56,
        "time": 62.857,
        "duration": 1.429,
        "velocity": 0.71,
        "hand": "left"
      },
      {
        "midi": 63,
        "time": 62.857,
        "duration": 1.429,
        "velocity": 0.71,
        "hand": "right"
      },
      {
        "midi": 25,
        "time": 64.286,
        "duration": 1.429,
        "velocity": 0.71,
        "hand": "left"
      },
      {
        "midi": 56,
        "time": 64.286,
        "duration": 1.429,
        "velocity": 0.71,
        "hand": "left"
      },
      {
        "midi": 65,
        "time": 64.286,
        "duration": 1.429,
        "velocity": 0.71,
        "hand": "right"
      },
      {
        "midi": 31,
        "time": 65.714,
        "duration": 1.429,
        "velocity": 0.71,
        "hand": "left"
      },
      {
        "midi": 55,
        "time": 65.714,
        "duration": 1.429,
        "velocity": 0.71,
        "hand": "left"
      },
      {
        "midi": 63,
        "time": 65.714,
        "duration": 1.071,
        "velocity": 0.71,
        "hand": "right"
      },
      {
        "midi": 62,
        "time": 66.786,
        "duration": 0.357,
        "velocity": 0.71,
        "hand": "right"
      },
      {
        "midi": 24,
        "time": 67.143,
        "duration": 1.429,
        "velocity": 0.71,
        "hand": "left"
      },
      {
        "midi": 51,
        "time": 67.143,
        "duration": 1.429,
        "velocity": 0.71,
        "hand": "left"
      },
      {
        "midi": 60,
        "time": 67.143,
        "duration": 1.429,
        "velocity": 0.71,
        "hand": "right"
      },
      {
        "midi": 48,
        "time": 68.571,
        "duration": 5.714,
        "velocity": 0.71,
        "hand": "left"
      },
      {
        "midi": 63,
        "time": 68.571,
        "duration": 5.714,
        "velocity": 0.71,
        "hand": "right"
      },
      {
        "midi": 72,
        "time": 68.571,
        "duration": 5.714,
        "velocity": 0.71,
        "hand": "right"
      }
    ],
    "hard": [
      {
        "midi": 36,
        "time": 0,
        "duration": 1.429,
        "velocity": 0.71,
        "hand": "left"
      },
      {
        "midi": 48,
        "time": 0,
        "duration": 1.429,
        "velocity": 0.71,
        "hand": "left"
      },
      {
        "midi": 55,
        "time": 0,
        "duration": 1.429,
        "velocity": 0.71,
        "hand": "left"
      },
      {
        "midi": 60,
        "time": 0,
        "duration": 1.429,
        "velocity": 0.71,
        "hand": "right"
      },
      {
        "midi": 63,
        "time": 0,
        "duration": 1.429,
        "velocity": 0.71,
        "hand": "right"
      },
      {
        "midi": 67,
        "time": 0,
        "duration": 1.429,
        "velocity": 0.71,
        "hand": "right"
      },
      {
        "midi": 29,
        "time": 1.429,
        "duration": 1.429,
        "velocity": 0.71,
        "hand": "left"
      },
      {
        "midi": 41,
        "time": 1.429,
        "duration": 1.429,
        "velocity": 0.71,
        "hand": "left"
      },
      {
        "midi": 56,
        "time": 1.429,
        "duration": 1.429,
        "velocity": 0.71,
        "hand": "left"
      },
      {
        "midi": 60,
        "time": 1.429,
        "duration": 1.429,
        "velocity": 0.71,
        "hand": "right"
      },
      {
        "midi": 63,
        "time": 1.429,
        "duration": 1.429,
        "velocity": 0.71,
        "hand": "right"
      },
      {
        "midi": 68,
        "time": 1.429,
        "duration": 1.429,
        "velocity": 0.71,
        "hand": "right"
      },
      {
        "midi": 31,
        "time": 2.857,
        "duration": 1.429,
        "velocity": 0.71,
        "hand": "left"
      },
      {
        "midi": 43,
        "time": 2.857,
        "duration": 1.429,
        "velocity": 0.71,
        "hand": "left"
      },
      {
        "midi": 55,
        "time": 2.857,
        "duration": 1.429,
        "velocity": 0.71,
        "hand": "left"
      },
      {
        "midi": 59,
        "time": 2.857,
        "duration": 1.429,
        "velocity": 0.71,
        "hand": "left"
      },
      {
        "midi": 63,
        "time": 2.857,
        "duration": 1.071,
        "velocity": 0.71,
        "hand": "right"
      },
      {
        "midi": 67,
        "time": 2.857,
        "duration": 1.071,
        "velocity": 0.71,
        "hand": "right"
      },
      {
        "midi": 62,
        "time": 3.929,
        "duration": 0.357,
        "velocity": 0.71,
        "hand": "right"
      },
      {
        "midi": 65,
        "time": 3.929,
        "duration": 0.357,
        "velocity": 0.71,
        "hand": "right"
      },
      {
        "midi": 36,
        "time": 4.286,
        "duration": 1.429,
        "velocity": 0.71,
        "hand": "left"
      },
      {
        "midi": 43,
        "time": 4.286,
        "duration": 1.429,
        "velocity": 0.71,
        "hand": "left"
      },
      {
        "midi": 48,
        "time": 4.286,
        "duration": 1.429,
        "velocity": 0.71,
        "hand": "left"
      },
      {
        "midi": 51,
        "time": 4.286,
        "duration": 1.429,
        "velocity": 0.71,
        "hand": "left"
      },
      {
        "midi": 55,
        "time": 4.286,
        "duration": 1.429,
        "velocity": 0.71,
        "hand": "left"
      },
      {
        "midi": 60,
        "time": 4.286,
        "duration": 1.429,
        "velocity": 0.71,
        "hand": "right"
      },
      {
        "midi": 63,
        "time": 4.286,
        "duration": 1.429,
        "velocity": 0.71,
        "hand": "right"
      },
      {
        "midi": 32,
        "time": 5.714,
        "duration": 1.429,
        "velocity": 0.71,
        "hand": "left"
      },
      {
        "midi": 44,
        "time": 5.714,
        "duration": 1.429,
        "velocity": 0.71,
        "hand": "left"
      },
      {
        "midi": 51,
        "time": 5.714,
        "duration": 1.429,
        "velocity": 0.71,
        "hand": "left"
      },
      {
        "midi": 56,
        "time": 5.714,
        "duration": 1.429,
        "velocity": 0.71,
        "hand": "left"
      },
      {
        "midi": 60,
        "time": 5.714,
        "duration": 1.429,
        "velocity": 0.71,
        "hand": "right"
      },
      {
        "midi": 63,
        "time": 5.714,
        "duration": 1.429,
        "velocity": 0.71,
        "hand": "right"
      },
      {
        "midi": 25,
        "time": 7.143,
        "duration": 1.429,
        "velocity": 0.71,
        "hand": "left"
      },
      {
        "midi": 37,
        "time": 7.143,
        "duration": 1.429,
        "velocity": 0.71,
        "hand": "left"
      },
      {
        "midi": 53,
        "time": 7.143,
        "duration": 1.429,
        "velocity": 0.71,
        "hand": "left"
      },
      {
        "midi": 56,
        "time": 7.143,
        "duration": 1.429,
        "velocity": 0.71,
        "hand": "left"
      },
      {
        "midi": 61,
        "time": 7.143,
        "duration": 1.429,
        "velocity": 0.71,
        "hand": "right"
      },
      {
        "midi": 65,
        "time": 7.143,
        "duration": 1.429,
        "velocity": 0.71,
        "hand": "right"
      },
      {
        "midi": 27,
        "time": 8.571,
        "duration": 1.429,
        "velocity": 0.71,
        "hand": "left"
      },
      {
        "midi": 39,
        "time": 8.571,
        "duration": 1.429,
        "velocity": 0.71,
        "hand": "left"
      },
      {
        "midi": 49,
        "time": 8.571,
        "duration": 1.429,
        "velocity": 0.71,
        "hand": "left"
      },
      {
        "midi": 51,
        "time": 8.571,
        "duration": 1.429,
        "velocity": 0.71,
        "hand": "left"
      },
      {
        "midi": 55,
        "time": 8.571,
        "duration": 1.429,
        "velocity": 0.71,
        "hand": "left"
      },
      {
        "midi": 60,
        "time": 8.571,
        "duration": 1.071,
        "velocity": 0.71,
        "hand": "right"
      },
      {
        "midi": 63,
        "time": 8.571,
        "duration": 1.071,
        "velocity": 0.71,
        "hand": "right"
      },
      {
        "midi": 58,
        "time": 9.643,
        "duration": 0.357,
        "velocity": 0.71,
        "hand": "left"
      },
      {
        "midi": 61,
        "time": 9.643,
        "duration": 0.357,
        "velocity": 0.71,
        "hand": "right"
      },
      {
        "midi": 32,
        "time": 10,
        "duration": 1.429,
        "velocity": 0.71,
        "hand": "left"
      },
      {
        "midi": 44,
        "time": 10,
        "duration": 1.429,
        "velocity": 0.71,
        "hand": "left"
      },
      {
        "midi": 48,
        "time": 10,
        "duration": 1.429,
        "velocity": 0.71,
        "hand": "left"
      },
      {
        "midi": 51,
        "time": 10,
        "duration": 1.429,
        "velocity": 0.71,
        "hand": "left"
      },
      {
        "midi": 56,
        "time": 10,
        "duration": 1.429,
        "velocity": 0.71,
        "hand": "left"
      },
      {
        "midi": 60,
        "time": 10,
        "duration": 1.429,
        "velocity": 0.71,
        "hand": "right"
      },
      {
        "midi": 31,
        "time": 11.429,
        "duration": 1.429,
        "velocity": 0.71,
        "hand": "left"
      },
      {
        "midi": 43,
        "time": 11.429,
        "duration": 1.429,
        "velocity": 0.71,
        "hand": "left"
      },
      {
        "midi": 50,
        "time": 11.429,
        "duration": 1.429,
        "velocity": 0.71,
        "hand": "left"
      },
      {
        "midi": 53,
        "time": 11.429,
        "duration": 1.429,
        "velocity": 0.71,
        "hand": "left"
      },
      {
        "midi": 59,
        "time": 11.429,
        "duration": 1.429,
        "velocity": 0.71,
        "hand": "left"
      },
      {
        "midi": 62,
        "time": 11.429,
        "duration": 1.429,
        "velocity": 0.71,
        "hand": "right"
      },
      {
        "midi": 24,
        "time": 12.857,
        "duration": 1.429,
        "velocity": 0.71,
        "hand": "left"
      },
      {
        "midi": 36,
        "time": 12.857,
        "duration": 1.429,
        "velocity": 0.71,
        "hand": "left"
      },
      {
        "midi": 52,
        "time": 12.857,
        "duration": 1.429,
        "velocity": 0.71,
        "hand": "left"
      },
      {
        "midi": 55,
        "time": 12.857,
        "duration": 1.429,
        "velocity": 0.71,
        "hand": "left"
      },
      {
        "midi": 58,
        "time": 12.857,
        "duration": 1.429,
        "velocity": 0.71,
        "hand": "left"
      },
      {
        "midi": 60,
        "time": 12.857,
        "duration": 1.429,
        "velocity": 0.71,
        "hand": "right"
      },
      {
        "midi": 64,
        "time": 12.857,
        "duration": 1.429,
        "velocity": 0.71,
        "hand": "right"
      },
      {
        "midi": 29,
        "time": 14.286,
        "duration": 1.429,
        "velocity": 0.71,
        "hand": "left"
      },
      {
        "midi": 41,
        "time": 14.286,
        "duration": 1.429,
        "velocity": 0.71,
        "hand": "left"
      },
      {
        "midi": 56,
        "time": 14.286,
        "duration": 1.429,
        "velocity": 0.71,
        "hand": "left"
      },
      {
        "midi": 60,
        "time": 14.286,
        "duration": 1.429,
        "velocity": 0.71,
        "hand": "right"
      },
      {
        "midi": 67,
        "time": 14.286,
        "duration": 1.071,
        "velocity": 0.71,
        "hand": "right"
      },
      {
        "midi": 65,
        "time": 15.357,
        "duration": 0.357,
        "velocity": 0.71,
        "hand": "right"
      },
      {
        "midi": 36,
        "time": 15.714,
        "duration": 1.429,
        "velocity": 0.71,
        "hand": "left"
      },
      {
        "midi": 48,
        "time": 15.714,
        "duration": 1.429,
        "velocity": 0.71,
        "hand": "left"
      },
      {
        "midi": 55,
        "time": 15.714,
        "duration": 1.429,
        "velocity": 0.71,
        "hand": "left"
      },
      {
        "midi": 60,
        "time": 15.714,
        "duration": 1.429,
        "velocity": 0.71,
        "hand": "right"
      },
      {
        "midi": 63,
        "time": 15.714,
        "duration": 1.429,
        "velocity": 0.71,
        "hand": "right"
      },
      {
        "midi": 38,
        "time": 17.143,
        "duration": 1.429,
        "velocity": 0.71,
        "hand": "left"
      },
      {
        "midi": 45,
        "time": 17.143,
        "duration": 1.429,
        "velocity": 0.71,
        "hand": "left"
      },
      {
        "midi": 50,
        "time": 17.143,
        "duration": 1.429,
        "velocity": 0.71,
        "hand": "left"
      },
      {
        "midi": 54,
        "time": 17.143,
        "duration": 1.429,
        "velocity": 0.71,
        "hand": "left"
      },
      {
        "midi": 60,
        "time": 17.143,
        "duration": 1.429,
        "velocity": 0.71,
        "hand": "right"
      },
      {
        "midi": 62,
        "time": 17.143,
        "duration": 1.429,
        "velocity": 0.71,
        "hand": "right"
      },
      {
        "midi": 31,
        "time": 18.571,
        "duration": 1.429,
        "velocity": 0.71,
        "hand": "left"
      },
      {
        "midi": 43,
        "time": 18.571,
        "duration": 1.429,
        "velocity": 0.71,
        "hand": "left"
      },
      {
        "midi": 55,
        "time": 18.571,
        "duration": 1.429,
        "velocity": 0.71,
        "hand": "left"
      },
      {
        "midi": 59,
        "time": 18.571,
        "duration": 1.429,
        "velocity": 0.71,
        "hand": "left"
      },
      {
        "midi": 62,
        "time": 18.571,
        "duration": 1.429,
        "velocity": 0.71,
        "hand": "right"
      },
      {
        "midi": 67,
        "time": 18.571,
        "duration": 1.429,
        "velocity": 0.71,
        "hand": "right"
      },
      {
        "midi": 26,
        "time": 20,
        "duration": 1.429,
        "velocity": 0.71,
        "hand": "left"
      },
      {
        "midi": 38,
        "time": 20,
        "duration": 1.429,
        "velocity": 0.71,
        "hand": "left"
      },
      {
        "midi": 60,
        "time": 20,
        "duration": 1.429,
        "velocity": 0.71,
        "hand": "right"
      },
      {
        "midi": 62,
        "time": 20,
        "duration": 1.429,
        "velocity": 0.71,
        "hand": "right"
      },
      {
        "midi": 66,
        "time": 20,
        "duration": 1.429,
        "velocity": 0.71,
        "hand": "right"
      },
      {
        "midi": 71,
        "time": 20,
        "duration": 1.071,
        "velocity": 0.71,
        "hand": "right"
      },
      {
        "midi": 69,
        "time": 21.071,
        "duration": 0.357,
        "velocity": 0.71,
        "hand": "right"
      },
      {
        "midi": 31,
        "time": 21.429,
        "duration": 1.429,
        "velocity": 0.71,
        "hand": "left"
      },
      {
        "midi": 43,
        "time": 21.429,
        "duration": 1.429,
        "velocity": 0.71,
        "hand": "left"
      },
      {
        "midi": 59,
        "time": 21.429,
        "duration": 1.429,
        "velocity": 0.71,
        "hand": "left"
      },
      {
        "midi": 62,
        "time": 21.429,
        "duration": 1.429,
        "velocity": 0.71,
        "hand": "right"
      },
      {
        "midi": 67,
        "time": 21.429,
        "duration": 1.429,
        "velocity": 0.71,
        "hand": "right"
      },
      {
        "midi": 36,
        "time": 22.857,
        "duration": 1.429,
        "velocity": 0.71,
        "hand": "left"
      },
      {
        "midi": 48,
        "time": 22.857,
        "duration": 1.429,
        "velocity": 0.71,
        "hand": "left"
      },
      {
        "midi": 63,
        "time": 22.857,
        "duration": 1.429,
        "velocity": 0.71,
        "hand": "right"
      },
      {
        "midi": 67,
        "time": 22.857,
        "duration": 1.429,
        "velocity": 0.71,
        "hand": "right"
      },
      {
        "midi": 75,
        "time": 22.857,
        "duration": 1.429,
        "velocity": 0.71,
        "hand": "right"
      },
      {
        "midi": 48,
        "time": 24.286,
        "duration": 1.429,
        "velocity": 0.71,
        "hand": "left"
      },
      {
        "midi": 60,
        "time": 24.286,
        "duration": 1.429,
        "velocity": 0.71,
        "hand": "right"
      },
      {
        "midi": 63,
        "time": 24.286,
        "duration": 1.429,
        "velocity": 0.71,
        "hand": "right"
      },
      {
        "midi": 68,
        "time": 24.286,
        "duration": 1.429,
        "velocity": 0.71,
        "hand": "right"
      },
      {
        "midi": 75,
        "time": 24.286,
        "duration": 1.429,
        "velocity": 0.71,
        "hand": "right"
      },
      {
        "midi": 47,
        "time": 25.714,
        "duration": 1.429,
        "velocity": 0.71,
        "hand": "left"
      },
      {
        "midi": 59,
        "time": 25.714,
        "duration": 1.429,
        "velocity": 0.71,
        "hand": "left"
      },
      {
        "midi": 62,
        "time": 25.714,
        "duration": 1.429,
        "velocity": 0.71,
        "hand": "right"
      },
      {
        "midi": 68,
        "time": 25.714,
        "duration": 1.071,
        "velocity": 0.71,
        "hand": "right"
      },
      {
        "midi": 74,
        "time": 25.714,
        "duration": 1.429,
        "velocity": 0.71,
        "hand": "right"
      },
      {
        "midi": 66,
        "time": 26.786,
        "duration": 0.357,
        "velocity": 0.71,
        "hand": "right"
      },
      {
        "midi": 46,
        "time": 27.143,
        "duration": 1.429,
        "velocity": 0.71,
        "hand": "left"
      },
      {
        "midi": 58,
        "time": 27.143,
        "duration": 1.429,
        "velocity": 0.71,
        "hand": "left"
      },
      {
        "midi": 62,
        "time": 27.143,
        "duration": 1.429,
        "velocity": 0.71,
        "hand": "right"
      },
      {
        "midi": 67,
        "time": 27.143,
        "duration": 1.429,
        "velocity": 0.71,
        "hand": "right"
      },
      {
        "midi": 74,
        "time": 27.143,
        "duration": 1.429,
        "velocity": 0.71,
        "hand": "right"
      },
      {
        "midi": 45,
        "time": 28.571,
        "duration": 1.429,
        "velocity": 0.71,
        "hand": "left"
      },
      {
        "midi": 57,
        "time": 28.571,
        "duration": 1.429,
        "velocity": 0.71,
        "hand": "left"
      },
      {
        "midi": 60,
        "time": 28.571,
        "duration": 1.429,
        "velocity": 0.71,
        "hand": "right"
      },
      {
        "midi": 67,
        "time": 28.571,
        "duration": 1.429,
        "velocity": 0.71,
        "hand": "right"
      },
      {
        "midi": 72,
        "time": 28.571,
        "duration": 1.429,
        "velocity": 0.71,
        "hand": "right"
      },
      {
        "midi": 44,
        "time": 30,
        "duration": 1.429,
        "velocity": 0.71,
        "hand": "left"
      },
      {
        "midi": 56,
        "time": 30,
        "duration": 1.429,
        "velocity": 0.71,
        "hand": "left"
      },
      {
        "midi": 60,
        "time": 30,
        "duration": 1.429,
        "velocity": 0.71,
        "hand": "right"
      },
      {
        "midi": 62,
        "time": 30,
        "duration": 1.429,
        "velocity": 0.71,
        "hand": "right"
      },
      {
        "midi": 66,
        "time": 30,
        "duration": 1.429,
        "velocity": 0.71,
        "hand": "right"
      },
      {
        "midi": 74,
        "time": 30,
        "duration": 1.429,
        "velocity": 0.71,
        "hand": "right"
      },
      {
        "midi": 43,
        "time": 31.429,
        "duration": 1.429,
        "velocity": 0.71,
        "hand": "left"
      },
      {
        "midi": 55,
        "time": 31.429,
        "duration": 1.429,
        "velocity": 0.71,
        "hand": "left"
      },
      {
        "midi": 62,
        "time": 31.429,
        "duration": 1.071,
        "velocity": 0.71,
        "hand": "right"
      },
      {
        "midi": 67,
        "time": 31.429,
        "duration": 1.071,
        "velocity": 0.71,
        "hand": "right"
      },
      {
        "midi": 71,
        "time": 31.429,
        "duration": 1.071,
        "velocity": 0.71,
        "hand": "right"
      },
      {
        "midi": 60,
        "time": 32.5,
        "duration": 0.357,
        "velocity": 0.71,
        "hand": "right"
      },
      {
        "midi": 69,
        "time": 32.5,
        "duration": 0.357,
        "velocity": 0.71,
        "hand": "right"
      },
      {
        "midi": 41,
        "time": 32.857,
        "duration": 1.429,
        "velocity": 0.71,
        "hand": "left"
      },
      {
        "midi": 53,
        "time": 32.857,
        "duration": 1.429,
        "velocity": 0.71,
        "hand": "left"
      },
      {
        "midi": 59,
        "time": 32.857,
        "duration": 1.429,
        "velocity": 0.71,
        "hand": "left"
      },
      {
        "midi": 62,
        "time": 32.857,
        "duration": 1.429,
        "velocity": 0.71,
        "hand": "right"
      },
      {
        "midi": 67,
        "time": 32.857,
        "duration": 1.429,
        "velocity": 0.71,
        "hand": "right"
      },
      {
        "midi": 39,
        "time": 34.286,
        "duration": 1.429,
        "velocity": 0.71,
        "hand": "left"
      },
      {
        "midi": 51,
        "time": 34.286,
        "duration": 1.429,
        "velocity": 0.71,
        "hand": "left"
      },
      {
        "midi": 60,
        "time": 34.286,
        "duration": 1.429,
        "velocity": 0.71,
        "hand": "right"
      },
      {
        "midi": 67,
        "time": 34.286,
        "duration": 1.429,
        "velocity": 0.71,
        "hand": "right"
      },
      {
        "midi": 72,
        "time": 34.286,
        "duration": 1.429,
        "velocity": 0.71,
        "hand": "right"
      },
      {
        "midi": 41,
        "time": 35.714,
        "duration": 1.429,
        "velocity": 0.71,
        "hand": "left"
      },
      {
        "midi": 53,
        "time": 35.714,
        "duration": 1.429,
        "velocity": 0.71,
        "hand": "left"
      },
      {
        "midi": 56,
        "time": 35.714,
        "duration": 1.429,
        "velocity": 0.71,
        "hand": "left"
      },
      {
        "midi": 60,
        "time": 35.714,
        "duration": 1.429,
        "velocity": 0.71,
        "hand": "right"
      },
      {
        "midi": 68,
        "time": 35.714,
        "duration": 1.429,
        "velocity": 0.71,
        "hand": "right"
      },
      {
        "midi": 35,
        "time": 37.143,
        "duration": 1.429,
        "velocity": 0.71,
        "hand": "left"
      },
      {
        "midi": 47,
        "time": 37.143,
        "duration": 1.429,
        "velocity": 0.71,
        "hand": "left"
      },
      {
        "midi": 55,
        "time": 37.143,
        "duration": 1.429,
        "velocity": 0.71,
        "hand": "left"
      },
      {
        "midi": 62,
        "time": 37.143,
        "duration": 1.429,
        "velocity": 0.71,
        "hand": "right"
      },
      {
        "midi": 67,
        "time": 37.143,
        "duration": 1.071,
        "velocity": 0.71,
        "hand": "right"
      },
      {
        "midi": 65,
        "time": 38.214,
        "duration": 0.357,
        "velocity": 0.71,
        "hand": "right"
      },
      {
        "midi": 36,
        "time": 38.571,
        "duration": 1.429,
        "velocity": 0.71,
        "hand": "left"
      },
      {
        "midi": 48,
        "time": 38.571,
        "duration": 1.429,
        "velocity": 0.71,
        "hand": "left"
      },
      {
        "midi": 55,
        "time": 38.571,
        "duration": 1.429,
        "velocity": 0.71,
        "hand": "left"
      },
      {
        "midi": 60,
        "time": 38.571,
        "duration": 1.429,
        "velocity": 0.71,
        "hand": "right"
      },
      {
        "midi": 63,
        "time": 38.571,
        "duration": 1.429,
        "velocity": 0.71,
        "hand": "right"
      },
      {
        "midi": 32,
        "time": 40,
        "duration": 1.429,
        "velocity": 0.71,
        "hand": "left"
      },
      {
        "midi": 44,
        "time": 40,
        "duration": 1.429,
        "velocity": 0.71,
        "hand": "left"
      },
      {
        "midi": 51,
        "time": 40,
        "duration": 1.429,
        "velocity": 0.71,
        "hand": "left"
      },
      {
        "midi": 56,
        "time": 40,
        "duration": 1.429,
        "velocity": 0.71,
        "hand": "left"
      },
      {
        "midi": 60,
        "time": 40,
        "duration": 1.429,
        "velocity": 0.71,
        "hand": "right"
      },
      {
        "midi": 63,
        "time": 40,
        "duration": 1.429,
        "velocity": 0.71,
        "hand": "right"
      },
      {
        "midi": 25,
        "time": 41.429,
        "duration": 1.429,
        "velocity": 0.71,
        "hand": "left"
      },
      {
        "midi": 37,
        "time": 41.429,
        "duration": 1.429,
        "velocity": 0.71,
        "hand": "left"
      },
      {
        "midi": 53,
        "time": 41.429,
        "duration": 1.429,
        "velocity": 0.71,
        "hand": "left"
      },
      {
        "midi": 56,
        "time": 41.429,
        "duration": 1.429,
        "velocity": 0.71,
        "hand": "left"
      },
      {
        "midi": 61,
        "time": 41.429,
        "duration": 1.429,
        "velocity": 0.71,
        "hand": "right"
      },
      {
        "midi": 65,
        "time": 41.429,
        "duration": 1.429,
        "velocity": 0.71,
        "hand": "right"
      },
      {
        "midi": 31,
        "time": 42.857,
        "duration": 1.429,
        "velocity": 0.71,
        "hand": "left"
      },
      {
        "midi": 43,
        "time": 42.857,
        "duration": 1.429,
        "velocity": 0.71,
        "hand": "left"
      },
      {
        "midi": 53,
        "time": 42.857,
        "duration": 1.429,
        "velocity": 0.71,
        "hand": "left"
      },
      {
        "midi": 55,
        "time": 42.857,
        "duration": 1.429,
        "velocity": 0.71,
        "hand": "left"
      },
      {
        "midi": 59,
        "time": 42.857,
        "duration": 1.429,
        "velocity": 0.71,
        "hand": "left"
      },
      {
        "midi": 63,
        "time": 42.857,
        "duration": 1.071,
        "velocity": 0.71,
        "hand": "right"
      },
      {
        "midi": 62,
        "time": 43.929,
        "duration": 0.357,
        "velocity": 0.71,
        "hand": "right"
      },
      {
        "midi": 24,
        "time": 44.286,
        "duration": 1.429,
        "velocity": 0.71,
        "hand": "left"
      },
      {
        "midi": 36,
        "time": 44.286,
        "duration": 1.429,
        "velocity": 0.71,
        "hand": "left"
      },
      {
        "midi": 51,
        "time": 44.286,
        "duration": 1.429,
        "velocity": 0.71,
        "hand": "left"
      },
      {
        "midi": 55,
        "time": 44.286,
        "duration": 1.429,
        "velocity": 0.71,
        "hand": "left"
      },
      {
        "midi": 60,
        "time": 44.286,
        "duration": 1.429,
        "velocity": 0.71,
        "hand": "right"
      },
      {
        "midi": 36,
        "time": 45.714,
        "duration": 1.429,
        "velocity": 0.71,
        "hand": "left"
      },
      {
        "midi": 48,
        "time": 45.714,
        "duration": 1.429,
        "velocity": 0.71,
        "hand": "left"
      },
      {
        "midi": 63,
        "time": 45.714,
        "duration": 1.429,
        "velocity": 0.71,
        "hand": "right"
      },
      {
        "midi": 67,
        "time": 45.714,
        "duration": 1.429,
        "velocity": 0.71,
        "hand": "right"
      },
      {
        "midi": 75,
        "time": 45.714,
        "duration": 1.429,
        "velocity": 0.71,
        "hand": "right"
      },
      {
        "midi": 48,
        "time": 47.143,
        "duration": 1.429,
        "velocity": 0.71,
        "hand": "left"
      },
      {
        "midi": 60,
        "time": 47.143,
        "duration": 1.429,
        "velocity": 0.71,
        "hand": "right"
      },
      {
        "midi": 63,
        "time": 47.143,
        "duration": 1.429,
        "velocity": 0.71,
        "hand": "right"
      },
      {
        "midi": 68,
        "time": 47.143,
        "duration": 1.429,
        "velocity": 0.71,
        "hand": "right"
      },
      {
        "midi": 75,
        "time": 47.143,
        "duration": 1.429,
        "velocity": 0.71,
        "hand": "right"
      },
      {
        "midi": 47,
        "time": 48.571,
        "duration": 1.429,
        "velocity": 0.71,
        "hand": "left"
      },
      {
        "midi": 59,
        "time": 48.571,
        "duration": 1.429,
        "velocity": 0.71,
        "hand": "left"
      },
      {
        "midi": 62,
        "time": 48.571,
        "duration": 1.429,
        "velocity": 0.71,
        "hand": "right"
      },
      {
        "midi": 68,
        "time": 48.571,
        "duration": 1.071,
        "velocity": 0.71,
        "hand": "right"
      },
      {
        "midi": 74,
        "time": 48.571,
        "duration": 1.429,
        "velocity": 0.71,
        "hand": "right"
      },
      {
        "midi": 66,
        "time": 49.643,
        "duration": 0.357,
        "velocity": 0.71,
        "hand": "right"
      },
      {
        "midi": 46,
        "time": 50,
        "duration": 1.429,
        "velocity": 0.71,
        "hand": "left"
      },
      {
        "midi": 58,
        "time": 50,
        "duration": 1.429,
        "velocity": 0.71,
        "hand": "left"
      },
      {
        "midi": 62,
        "time": 50,
        "duration": 1.429,
        "velocity": 0.71,
        "hand": "right"
      },
      {
        "midi": 67,
        "time": 50,
        "duration": 1.429,
        "velocity": 0.71,
        "hand": "right"
      },
      {
        "midi": 74,
        "time": 50,
        "duration": 1.429,
        "velocity": 0.71,
        "hand": "right"
      },
      {
        "midi": 45,
        "time": 51.429,
        "duration": 1.429,
        "velocity": 0.71,
        "hand": "left"
      },
      {
        "midi": 57,
        "time": 51.429,
        "duration": 1.429,
        "velocity": 0.71,
        "hand": "left"
      },
      {
        "midi": 60,
        "time": 51.429,
        "duration": 1.429,
        "velocity": 0.71,
        "hand": "right"
      },
      {
        "midi": 67,
        "time": 51.429,
        "duration": 1.429,
        "velocity": 0.71,
        "hand": "right"
      },
      {
        "midi": 72,
        "time": 51.429,
        "duration": 1.429,
        "velocity": 0.71,
        "hand": "right"
      },
      {
        "midi": 44,
        "time": 52.857,
        "duration": 1.429,
        "velocity": 0.71,
        "hand": "left"
      },
      {
        "midi": 56,
        "time": 52.857,
        "duration": 1.429,
        "velocity": 0.71,
        "hand": "left"
      },
      {
        "midi": 60,
        "time": 52.857,
        "duration": 1.429,
        "velocity": 0.71,
        "hand": "right"
      },
      {
        "midi": 62,
        "time": 52.857,
        "duration": 1.429,
        "velocity": 0.71,
        "hand": "right"
      },
      {
        "midi": 66,
        "time": 52.857,
        "duration": 1.429,
        "velocity": 0.71,
        "hand": "right"
      },
      {
        "midi": 74,
        "time": 52.857,
        "duration": 1.429,
        "velocity": 0.71,
        "hand": "right"
      },
      {
        "midi": 43,
        "time": 54.286,
        "duration": 1.429,
        "velocity": 0.71,
        "hand": "left"
      },
      {
        "midi": 55,
        "time": 54.286,
        "duration": 1.429,
        "velocity": 0.71,
        "hand": "left"
      },
      {
        "midi": 62,
        "time": 54.286,
        "duration": 1.071,
        "velocity": 0.71,
        "hand": "right"
      },
      {
        "midi": 67,
        "time": 54.286,
        "duration": 1.071,
        "velocity": 0.71,
        "hand": "right"
      },
      {
        "midi": 71,
        "time": 54.286,
        "duration": 1.071,
        "velocity": 0.71,
        "hand": "right"
      },
      {
        "midi": 60,
        "time": 55.357,
        "duration": 0.357,
        "velocity": 0.71,
        "hand": "right"
      },
      {
        "midi": 69,
        "time": 55.357,
        "duration": 0.357,
        "velocity": 0.71,
        "hand": "right"
      },
      {
        "midi": 41,
        "time": 55.714,
        "duration": 1.429,
        "velocity": 0.71,
        "hand": "left"
      },
      {
        "midi": 53,
        "time": 55.714,
        "duration": 1.429,
        "velocity": 0.71,
        "hand": "left"
      },
      {
        "midi": 59,
        "time": 55.714,
        "duration": 1.429,
        "velocity": 0.71,
        "hand": "left"
      },
      {
        "midi": 62,
        "time": 55.714,
        "duration": 1.429,
        "velocity": 0.71,
        "hand": "right"
      },
      {
        "midi": 67,
        "time": 55.714,
        "duration": 1.429,
        "velocity": 0.71,
        "hand": "right"
      },
      {
        "midi": 39,
        "time": 57.143,
        "duration": 1.429,
        "velocity": 0.71,
        "hand": "left"
      },
      {
        "midi": 51,
        "time": 57.143,
        "duration": 1.429,
        "velocity": 0.71,
        "hand": "left"
      },
      {
        "midi": 60,
        "time": 57.143,
        "duration": 1.429,
        "velocity": 0.71,
        "hand": "right"
      },
      {
        "midi": 67,
        "time": 57.143,
        "duration": 1.429,
        "velocity": 0.71,
        "hand": "right"
      },
      {
        "midi": 72,
        "time": 57.143,
        "duration": 1.429,
        "velocity": 0.71,
        "hand": "right"
      },
      {
        "midi": 41,
        "time": 58.571,
        "duration": 1.429,
        "velocity": 0.71,
        "hand": "left"
      },
      {
        "midi": 53,
        "time": 58.571,
        "duration": 1.429,
        "velocity": 0.71,
        "hand": "left"
      },
      {
        "midi": 56,
        "time": 58.571,
        "duration": 1.429,
        "velocity": 0.71,
        "hand": "left"
      },
      {
        "midi": 60,
        "time": 58.571,
        "duration": 1.429,
        "velocity": 0.71,
        "hand": "right"
      },
      {
        "midi": 68,
        "time": 58.571,
        "duration": 1.429,
        "velocity": 0.71,
        "hand": "right"
      },
      {
        "midi": 35,
        "time": 60,
        "duration": 1.429,
        "velocity": 0.71,
        "hand": "left"
      },
      {
        "midi": 47,
        "time": 60,
        "duration": 1.429,
        "velocity": 0.71,
        "hand": "left"
      },
      {
        "midi": 55,
        "time": 60,
        "duration": 1.429,
        "velocity": 0.71,
        "hand": "left"
      },
      {
        "midi": 62,
        "time": 60,
        "duration": 1.429,
        "velocity": 0.71,
        "hand": "right"
      },
      {
        "midi": 67,
        "time": 60,
        "duration": 1.071,
        "velocity": 0.71,
        "hand": "right"
      },
      {
        "midi": 65,
        "time": 61.071,
        "duration": 0.357,
        "velocity": 0.71,
        "hand": "right"
      },
      {
        "midi": 36,
        "time": 61.429,
        "duration": 1.429,
        "velocity": 0.71,
        "hand": "left"
      },
      {
        "midi": 48,
        "time": 61.429,
        "duration": 1.429,
        "velocity": 0.71,
        "hand": "left"
      },
      {
        "midi": 55,
        "time": 61.429,
        "duration": 1.429,
        "velocity": 0.71,
        "hand": "left"
      },
      {
        "midi": 60,
        "time": 61.429,
        "duration": 1.429,
        "velocity": 0.71,
        "hand": "right"
      },
      {
        "midi": 63,
        "time": 61.429,
        "duration": 1.429,
        "velocity": 0.71,
        "hand": "right"
      },
      {
        "midi": 32,
        "time": 62.857,
        "duration": 1.429,
        "velocity": 0.71,
        "hand": "left"
      },
      {
        "midi": 44,
        "time": 62.857,
        "duration": 1.429,
        "velocity": 0.71,
        "hand": "left"
      },
      {
        "midi": 51,
        "time": 62.857,
        "duration": 1.429,
        "velocity": 0.71,
        "hand": "left"
      },
      {
        "midi": 56,
        "time": 62.857,
        "duration": 1.429,
        "velocity": 0.71,
        "hand": "left"
      },
      {
        "midi": 60,
        "time": 62.857,
        "duration": 1.429,
        "velocity": 0.71,
        "hand": "right"
      },
      {
        "midi": 63,
        "time": 62.857,
        "duration": 1.429,
        "velocity": 0.71,
        "hand": "right"
      },
      {
        "midi": 25,
        "time": 64.286,
        "duration": 1.429,
        "velocity": 0.71,
        "hand": "left"
      },
      {
        "midi": 37,
        "time": 64.286,
        "duration": 1.429,
        "velocity": 0.71,
        "hand": "left"
      },
      {
        "midi": 53,
        "time": 64.286,
        "duration": 1.429,
        "velocity": 0.71,
        "hand": "left"
      },
      {
        "midi": 56,
        "time": 64.286,
        "duration": 1.429,
        "velocity": 0.71,
        "hand": "left"
      },
      {
        "midi": 61,
        "time": 64.286,
        "duration": 1.429,
        "velocity": 0.71,
        "hand": "right"
      },
      {
        "midi": 65,
        "time": 64.286,
        "duration": 1.429,
        "velocity": 0.71,
        "hand": "right"
      },
      {
        "midi": 31,
        "time": 65.714,
        "duration": 1.429,
        "velocity": 0.71,
        "hand": "left"
      },
      {
        "midi": 43,
        "time": 65.714,
        "duration": 1.429,
        "velocity": 0.71,
        "hand": "left"
      },
      {
        "midi": 53,
        "time": 65.714,
        "duration": 1.429,
        "velocity": 0.71,
        "hand": "left"
      },
      {
        "midi": 55,
        "time": 65.714,
        "duration": 1.429,
        "velocity": 0.71,
        "hand": "left"
      },
      {
        "midi": 59,
        "time": 65.714,
        "duration": 1.429,
        "velocity": 0.71,
        "hand": "left"
      },
      {
        "midi": 63,
        "time": 65.714,
        "duration": 1.071,
        "velocity": 0.71,
        "hand": "right"
      },
      {
        "midi": 62,
        "time": 66.786,
        "duration": 0.357,
        "velocity": 0.71,
        "hand": "right"
      },
      {
        "midi": 24,
        "time": 67.143,
        "duration": 1.429,
        "velocity": 0.71,
        "hand": "left"
      },
      {
        "midi": 36,
        "time": 67.143,
        "duration": 1.429,
        "velocity": 0.71,
        "hand": "left"
      },
      {
        "midi": 51,
        "time": 67.143,
        "duration": 1.429,
        "velocity": 0.71,
        "hand": "left"
      },
      {
        "midi": 55,
        "time": 67.143,
        "duration": 1.429,
        "velocity": 0.71,
        "hand": "left"
      },
      {
        "midi": 60,
        "time": 67.143,
        "duration": 1.429,
        "velocity": 0.71,
        "hand": "right"
      },
      {
        "midi": 48,
        "time": 68.571,
        "duration": 5.714,
        "velocity": 0.71,
        "hand": "left"
      },
      {
        "midi": 55,
        "time": 68.571,
        "duration": 5.714,
        "velocity": 0.71,
        "hand": "left"
      },
      {
        "midi": 60,
        "time": 68.571,
        "duration": 5.714,
        "velocity": 0.71,
        "hand": "right"
      },
      {
        "midi": 63,
        "time": 68.571,
        "duration": 5.714,
        "velocity": 0.71,
        "hand": "right"
      },
      {
        "midi": 67,
        "time": 68.571,
        "duration": 5.714,
        "velocity": 0.71,
        "hand": "right"
      },
      {
        "midi": 72,
        "time": 68.571,
        "duration": 5.714,
        "velocity": 0.71,
        "hand": "right"
      }
    ]
  },
  "notes1Hand": [
    {
      "midi": 67,
      "time": 0,
      "duration": 1.429,
      "velocity": 0.71,
      "hand": "right"
    },
    {
      "midi": 68,
      "time": 1.429,
      "duration": 1.429,
      "velocity": 0.71,
      "hand": "right"
    },
    {
      "midi": 67,
      "time": 2.857,
      "duration": 1.071,
      "velocity": 0.71,
      "hand": "right"
    },
    {
      "midi": 65,
      "time": 3.929,
      "duration": 0.714,
      "velocity": 0.71,
      "hand": "right"
    },
    {
      "midi": 63,
      "time": 5.714,
      "duration": 1.429,
      "velocity": 0.71,
      "hand": "right"
    },
    {
      "midi": 65,
      "time": 7.143,
      "duration": 1.429,
      "velocity": 0.71,
      "hand": "right"
    },
    {
      "midi": 63,
      "time": 8.571,
      "duration": 1.071,
      "velocity": 0.71,
      "hand": "right"
    },
    {
      "midi": 61,
      "time": 9.643,
      "duration": 0.714,
      "velocity": 0.71,
      "hand": "right"
    },
    {
      "midi": 62,
      "time": 11.429,
      "duration": 1.429,
      "velocity": 0.71,
      "hand": "right"
    },
    {
      "midi": 64,
      "time": 12.857,
      "duration": 1.429,
      "velocity": 0.71,
      "hand": "right"
    },
    {
      "midi": 67,
      "time": 14.286,
      "duration": 1.071,
      "velocity": 0.71,
      "hand": "right"
    },
    {
      "midi": 65,
      "time": 15.357,
      "duration": 0.714,
      "velocity": 0.71,
      "hand": "right"
    },
    {
      "midi": 62,
      "time": 17.143,
      "duration": 1.429,
      "velocity": 0.71,
      "hand": "right"
    },
    {
      "midi": 67,
      "time": 18.571,
      "duration": 1.429,
      "velocity": 0.71,
      "hand": "right"
    },
    {
      "midi": 71,
      "time": 20,
      "duration": 1.071,
      "velocity": 0.71,
      "hand": "right"
    },
    {
      "midi": 69,
      "time": 21.071,
      "duration": 0.714,
      "velocity": 0.71,
      "hand": "right"
    },
    {
      "midi": 75,
      "time": 22.857,
      "duration": 1.429,
      "velocity": 0.71,
      "hand": "right"
    },
    {
      "midi": 75,
      "time": 24.286,
      "duration": 1.429,
      "velocity": 0.71,
      "hand": "right"
    },
    {
      "midi": 74,
      "time": 25.714,
      "duration": 1.429,
      "velocity": 0.71,
      "hand": "right"
    },
    {
      "midi": 66,
      "time": 26.786,
      "duration": 0.714,
      "velocity": 0.71,
      "hand": "right"
    },
    {
      "midi": 72,
      "time": 28.571,
      "duration": 1.429,
      "velocity": 0.71,
      "hand": "right"
    },
    {
      "midi": 74,
      "time": 30,
      "duration": 1.429,
      "velocity": 0.71,
      "hand": "right"
    },
    {
      "midi": 71,
      "time": 31.429,
      "duration": 1.071,
      "velocity": 0.71,
      "hand": "right"
    },
    {
      "midi": 69,
      "time": 32.5,
      "duration": 0.714,
      "velocity": 0.71,
      "hand": "right"
    },
    {
      "midi": 72,
      "time": 34.286,
      "duration": 1.429,
      "velocity": 0.71,
      "hand": "right"
    },
    {
      "midi": 68,
      "time": 35.714,
      "duration": 1.429,
      "velocity": 0.71,
      "hand": "right"
    },
    {
      "midi": 67,
      "time": 37.143,
      "duration": 1.071,
      "velocity": 0.71,
      "hand": "right"
    },
    {
      "midi": 65,
      "time": 38.214,
      "duration": 0.714,
      "velocity": 0.71,
      "hand": "right"
    },
    {
      "midi": 63,
      "time": 40,
      "duration": 1.429,
      "velocity": 0.71,
      "hand": "right"
    },
    {
      "midi": 65,
      "time": 41.429,
      "duration": 1.429,
      "velocity": 0.71,
      "hand": "right"
    },
    {
      "midi": 63,
      "time": 42.857,
      "duration": 1.071,
      "velocity": 0.71,
      "hand": "right"
    },
    {
      "midi": 62,
      "time": 43.929,
      "duration": 0.714,
      "velocity": 0.71,
      "hand": "right"
    },
    {
      "midi": 75,
      "time": 45.714,
      "duration": 1.429,
      "velocity": 0.71,
      "hand": "right"
    },
    {
      "midi": 75,
      "time": 47.143,
      "duration": 1.429,
      "velocity": 0.71,
      "hand": "right"
    },
    {
      "midi": 74,
      "time": 48.571,
      "duration": 1.429,
      "velocity": 0.71,
      "hand": "right"
    },
    {
      "midi": 66,
      "time": 49.643,
      "duration": 0.714,
      "velocity": 0.71,
      "hand": "right"
    },
    {
      "midi": 72,
      "time": 51.429,
      "duration": 1.429,
      "velocity": 0.71,
      "hand": "right"
    },
    {
      "midi": 74,
      "time": 52.857,
      "duration": 1.429,
      "velocity": 0.71,
      "hand": "right"
    },
    {
      "midi": 71,
      "time": 54.286,
      "duration": 1.071,
      "velocity": 0.71,
      "hand": "right"
    },
    {
      "midi": 69,
      "time": 55.357,
      "duration": 0.714,
      "velocity": 0.71,
      "hand": "right"
    },
    {
      "midi": 72,
      "time": 57.143,
      "duration": 1.429,
      "velocity": 0.71,
      "hand": "right"
    },
    {
      "midi": 68,
      "time": 58.571,
      "duration": 1.429,
      "velocity": 0.71,
      "hand": "right"
    },
    {
      "midi": 67,
      "time": 60,
      "duration": 1.071,
      "velocity": 0.71,
      "hand": "right"
    },
    {
      "midi": 65,
      "time": 61.071,
      "duration": 0.714,
      "velocity": 0.71,
      "hand": "right"
    },
    {
      "midi": 63,
      "time": 62.857,
      "duration": 1.429,
      "velocity": 0.71,
      "hand": "right"
    },
    {
      "midi": 65,
      "time": 64.286,
      "duration": 1.429,
      "velocity": 0.71,
      "hand": "right"
    },
    {
      "midi": 63,
      "time": 65.714,
      "duration": 1.071,
      "velocity": 0.71,
      "hand": "right"
    },
    {
      "midi": 62,
      "time": 66.786,
      "duration": 0.714,
      "velocity": 0.71,
      "hand": "right"
    },
    {
      "midi": 72,
      "time": 68.571,
      "duration": 5.714,
      "velocity": 0.71,
      "hand": "right"
    }
  ],
  "notes2Hands": [
    {
      "midi": 36,
      "time": 0,
      "duration": 1.429,
      "velocity": 0.71,
      "hand": "left"
    },
    {
      "midi": 48,
      "time": 0,
      "duration": 1.429,
      "velocity": 0.71,
      "hand": "left"
    },
    {
      "midi": 55,
      "time": 0,
      "duration": 1.429,
      "velocity": 0.71,
      "hand": "left"
    },
    {
      "midi": 60,
      "time": 0,
      "duration": 1.429,
      "velocity": 0.71,
      "hand": "right"
    },
    {
      "midi": 63,
      "time": 0,
      "duration": 1.429,
      "velocity": 0.71,
      "hand": "right"
    },
    {
      "midi": 67,
      "time": 0,
      "duration": 1.429,
      "velocity": 0.71,
      "hand": "right"
    },
    {
      "midi": 29,
      "time": 1.429,
      "duration": 1.429,
      "velocity": 0.71,
      "hand": "left"
    },
    {
      "midi": 41,
      "time": 1.429,
      "duration": 1.429,
      "velocity": 0.71,
      "hand": "left"
    },
    {
      "midi": 56,
      "time": 1.429,
      "duration": 1.429,
      "velocity": 0.71,
      "hand": "left"
    },
    {
      "midi": 60,
      "time": 1.429,
      "duration": 1.429,
      "velocity": 0.71,
      "hand": "right"
    },
    {
      "midi": 63,
      "time": 1.429,
      "duration": 1.429,
      "velocity": 0.71,
      "hand": "right"
    },
    {
      "midi": 68,
      "time": 1.429,
      "duration": 1.429,
      "velocity": 0.71,
      "hand": "right"
    },
    {
      "midi": 31,
      "time": 2.857,
      "duration": 1.429,
      "velocity": 0.71,
      "hand": "left"
    },
    {
      "midi": 43,
      "time": 2.857,
      "duration": 1.429,
      "velocity": 0.71,
      "hand": "left"
    },
    {
      "midi": 55,
      "time": 2.857,
      "duration": 1.429,
      "velocity": 0.71,
      "hand": "left"
    },
    {
      "midi": 59,
      "time": 2.857,
      "duration": 1.429,
      "velocity": 0.71,
      "hand": "left"
    },
    {
      "midi": 63,
      "time": 2.857,
      "duration": 1.071,
      "velocity": 0.71,
      "hand": "right"
    },
    {
      "midi": 67,
      "time": 2.857,
      "duration": 1.071,
      "velocity": 0.71,
      "hand": "right"
    },
    {
      "midi": 62,
      "time": 3.929,
      "duration": 0.357,
      "velocity": 0.71,
      "hand": "right"
    },
    {
      "midi": 65,
      "time": 3.929,
      "duration": 0.357,
      "velocity": 0.71,
      "hand": "right"
    },
    {
      "midi": 36,
      "time": 4.286,
      "duration": 1.429,
      "velocity": 0.71,
      "hand": "left"
    },
    {
      "midi": 43,
      "time": 4.286,
      "duration": 1.429,
      "velocity": 0.71,
      "hand": "left"
    },
    {
      "midi": 48,
      "time": 4.286,
      "duration": 1.429,
      "velocity": 0.71,
      "hand": "left"
    },
    {
      "midi": 51,
      "time": 4.286,
      "duration": 1.429,
      "velocity": 0.71,
      "hand": "left"
    },
    {
      "midi": 55,
      "time": 4.286,
      "duration": 1.429,
      "velocity": 0.71,
      "hand": "left"
    },
    {
      "midi": 60,
      "time": 4.286,
      "duration": 1.429,
      "velocity": 0.71,
      "hand": "right"
    },
    {
      "midi": 63,
      "time": 4.286,
      "duration": 1.429,
      "velocity": 0.71,
      "hand": "right"
    },
    {
      "midi": 32,
      "time": 5.714,
      "duration": 1.429,
      "velocity": 0.71,
      "hand": "left"
    },
    {
      "midi": 44,
      "time": 5.714,
      "duration": 1.429,
      "velocity": 0.71,
      "hand": "left"
    },
    {
      "midi": 51,
      "time": 5.714,
      "duration": 1.429,
      "velocity": 0.71,
      "hand": "left"
    },
    {
      "midi": 56,
      "time": 5.714,
      "duration": 1.429,
      "velocity": 0.71,
      "hand": "left"
    },
    {
      "midi": 60,
      "time": 5.714,
      "duration": 1.429,
      "velocity": 0.71,
      "hand": "right"
    },
    {
      "midi": 63,
      "time": 5.714,
      "duration": 1.429,
      "velocity": 0.71,
      "hand": "right"
    },
    {
      "midi": 25,
      "time": 7.143,
      "duration": 1.429,
      "velocity": 0.71,
      "hand": "left"
    },
    {
      "midi": 37,
      "time": 7.143,
      "duration": 1.429,
      "velocity": 0.71,
      "hand": "left"
    },
    {
      "midi": 53,
      "time": 7.143,
      "duration": 1.429,
      "velocity": 0.71,
      "hand": "left"
    },
    {
      "midi": 56,
      "time": 7.143,
      "duration": 1.429,
      "velocity": 0.71,
      "hand": "left"
    },
    {
      "midi": 61,
      "time": 7.143,
      "duration": 1.429,
      "velocity": 0.71,
      "hand": "right"
    },
    {
      "midi": 65,
      "time": 7.143,
      "duration": 1.429,
      "velocity": 0.71,
      "hand": "right"
    },
    {
      "midi": 27,
      "time": 8.571,
      "duration": 1.429,
      "velocity": 0.71,
      "hand": "left"
    },
    {
      "midi": 39,
      "time": 8.571,
      "duration": 1.429,
      "velocity": 0.71,
      "hand": "left"
    },
    {
      "midi": 49,
      "time": 8.571,
      "duration": 1.429,
      "velocity": 0.71,
      "hand": "left"
    },
    {
      "midi": 51,
      "time": 8.571,
      "duration": 1.429,
      "velocity": 0.71,
      "hand": "left"
    },
    {
      "midi": 55,
      "time": 8.571,
      "duration": 1.429,
      "velocity": 0.71,
      "hand": "left"
    },
    {
      "midi": 60,
      "time": 8.571,
      "duration": 1.071,
      "velocity": 0.71,
      "hand": "right"
    },
    {
      "midi": 63,
      "time": 8.571,
      "duration": 1.071,
      "velocity": 0.71,
      "hand": "right"
    },
    {
      "midi": 58,
      "time": 9.643,
      "duration": 0.357,
      "velocity": 0.71,
      "hand": "left"
    },
    {
      "midi": 61,
      "time": 9.643,
      "duration": 0.357,
      "velocity": 0.71,
      "hand": "right"
    },
    {
      "midi": 32,
      "time": 10,
      "duration": 1.429,
      "velocity": 0.71,
      "hand": "left"
    },
    {
      "midi": 44,
      "time": 10,
      "duration": 1.429,
      "velocity": 0.71,
      "hand": "left"
    },
    {
      "midi": 48,
      "time": 10,
      "duration": 1.429,
      "velocity": 0.71,
      "hand": "left"
    },
    {
      "midi": 51,
      "time": 10,
      "duration": 1.429,
      "velocity": 0.71,
      "hand": "left"
    },
    {
      "midi": 56,
      "time": 10,
      "duration": 1.429,
      "velocity": 0.71,
      "hand": "left"
    },
    {
      "midi": 60,
      "time": 10,
      "duration": 1.429,
      "velocity": 0.71,
      "hand": "right"
    },
    {
      "midi": 31,
      "time": 11.429,
      "duration": 1.429,
      "velocity": 0.71,
      "hand": "left"
    },
    {
      "midi": 43,
      "time": 11.429,
      "duration": 1.429,
      "velocity": 0.71,
      "hand": "left"
    },
    {
      "midi": 50,
      "time": 11.429,
      "duration": 1.429,
      "velocity": 0.71,
      "hand": "left"
    },
    {
      "midi": 53,
      "time": 11.429,
      "duration": 1.429,
      "velocity": 0.71,
      "hand": "left"
    },
    {
      "midi": 59,
      "time": 11.429,
      "duration": 1.429,
      "velocity": 0.71,
      "hand": "left"
    },
    {
      "midi": 62,
      "time": 11.429,
      "duration": 1.429,
      "velocity": 0.71,
      "hand": "right"
    },
    {
      "midi": 24,
      "time": 12.857,
      "duration": 1.429,
      "velocity": 0.71,
      "hand": "left"
    },
    {
      "midi": 36,
      "time": 12.857,
      "duration": 1.429,
      "velocity": 0.71,
      "hand": "left"
    },
    {
      "midi": 52,
      "time": 12.857,
      "duration": 1.429,
      "velocity": 0.71,
      "hand": "left"
    },
    {
      "midi": 55,
      "time": 12.857,
      "duration": 1.429,
      "velocity": 0.71,
      "hand": "left"
    },
    {
      "midi": 58,
      "time": 12.857,
      "duration": 1.429,
      "velocity": 0.71,
      "hand": "left"
    },
    {
      "midi": 60,
      "time": 12.857,
      "duration": 1.429,
      "velocity": 0.71,
      "hand": "right"
    },
    {
      "midi": 64,
      "time": 12.857,
      "duration": 1.429,
      "velocity": 0.71,
      "hand": "right"
    },
    {
      "midi": 29,
      "time": 14.286,
      "duration": 1.429,
      "velocity": 0.71,
      "hand": "left"
    },
    {
      "midi": 41,
      "time": 14.286,
      "duration": 1.429,
      "velocity": 0.71,
      "hand": "left"
    },
    {
      "midi": 56,
      "time": 14.286,
      "duration": 1.429,
      "velocity": 0.71,
      "hand": "left"
    },
    {
      "midi": 60,
      "time": 14.286,
      "duration": 1.429,
      "velocity": 0.71,
      "hand": "right"
    },
    {
      "midi": 67,
      "time": 14.286,
      "duration": 1.071,
      "velocity": 0.71,
      "hand": "right"
    },
    {
      "midi": 65,
      "time": 15.357,
      "duration": 0.357,
      "velocity": 0.71,
      "hand": "right"
    },
    {
      "midi": 36,
      "time": 15.714,
      "duration": 1.429,
      "velocity": 0.71,
      "hand": "left"
    },
    {
      "midi": 48,
      "time": 15.714,
      "duration": 1.429,
      "velocity": 0.71,
      "hand": "left"
    },
    {
      "midi": 55,
      "time": 15.714,
      "duration": 1.429,
      "velocity": 0.71,
      "hand": "left"
    },
    {
      "midi": 60,
      "time": 15.714,
      "duration": 1.429,
      "velocity": 0.71,
      "hand": "right"
    },
    {
      "midi": 63,
      "time": 15.714,
      "duration": 1.429,
      "velocity": 0.71,
      "hand": "right"
    },
    {
      "midi": 38,
      "time": 17.143,
      "duration": 1.429,
      "velocity": 0.71,
      "hand": "left"
    },
    {
      "midi": 45,
      "time": 17.143,
      "duration": 1.429,
      "velocity": 0.71,
      "hand": "left"
    },
    {
      "midi": 50,
      "time": 17.143,
      "duration": 1.429,
      "velocity": 0.71,
      "hand": "left"
    },
    {
      "midi": 54,
      "time": 17.143,
      "duration": 1.429,
      "velocity": 0.71,
      "hand": "left"
    },
    {
      "midi": 60,
      "time": 17.143,
      "duration": 1.429,
      "velocity": 0.71,
      "hand": "right"
    },
    {
      "midi": 62,
      "time": 17.143,
      "duration": 1.429,
      "velocity": 0.71,
      "hand": "right"
    },
    {
      "midi": 31,
      "time": 18.571,
      "duration": 1.429,
      "velocity": 0.71,
      "hand": "left"
    },
    {
      "midi": 43,
      "time": 18.571,
      "duration": 1.429,
      "velocity": 0.71,
      "hand": "left"
    },
    {
      "midi": 55,
      "time": 18.571,
      "duration": 1.429,
      "velocity": 0.71,
      "hand": "left"
    },
    {
      "midi": 59,
      "time": 18.571,
      "duration": 1.429,
      "velocity": 0.71,
      "hand": "left"
    },
    {
      "midi": 62,
      "time": 18.571,
      "duration": 1.429,
      "velocity": 0.71,
      "hand": "right"
    },
    {
      "midi": 67,
      "time": 18.571,
      "duration": 1.429,
      "velocity": 0.71,
      "hand": "right"
    },
    {
      "midi": 26,
      "time": 20,
      "duration": 1.429,
      "velocity": 0.71,
      "hand": "left"
    },
    {
      "midi": 38,
      "time": 20,
      "duration": 1.429,
      "velocity": 0.71,
      "hand": "left"
    },
    {
      "midi": 60,
      "time": 20,
      "duration": 1.429,
      "velocity": 0.71,
      "hand": "right"
    },
    {
      "midi": 62,
      "time": 20,
      "duration": 1.429,
      "velocity": 0.71,
      "hand": "right"
    },
    {
      "midi": 66,
      "time": 20,
      "duration": 1.429,
      "velocity": 0.71,
      "hand": "right"
    },
    {
      "midi": 71,
      "time": 20,
      "duration": 1.071,
      "velocity": 0.71,
      "hand": "right"
    },
    {
      "midi": 69,
      "time": 21.071,
      "duration": 0.357,
      "velocity": 0.71,
      "hand": "right"
    },
    {
      "midi": 31,
      "time": 21.429,
      "duration": 1.429,
      "velocity": 0.71,
      "hand": "left"
    },
    {
      "midi": 43,
      "time": 21.429,
      "duration": 1.429,
      "velocity": 0.71,
      "hand": "left"
    },
    {
      "midi": 59,
      "time": 21.429,
      "duration": 1.429,
      "velocity": 0.71,
      "hand": "left"
    },
    {
      "midi": 62,
      "time": 21.429,
      "duration": 1.429,
      "velocity": 0.71,
      "hand": "right"
    },
    {
      "midi": 67,
      "time": 21.429,
      "duration": 1.429,
      "velocity": 0.71,
      "hand": "right"
    },
    {
      "midi": 36,
      "time": 22.857,
      "duration": 1.429,
      "velocity": 0.71,
      "hand": "left"
    },
    {
      "midi": 48,
      "time": 22.857,
      "duration": 1.429,
      "velocity": 0.71,
      "hand": "left"
    },
    {
      "midi": 63,
      "time": 22.857,
      "duration": 1.429,
      "velocity": 0.71,
      "hand": "right"
    },
    {
      "midi": 67,
      "time": 22.857,
      "duration": 1.429,
      "velocity": 0.71,
      "hand": "right"
    },
    {
      "midi": 75,
      "time": 22.857,
      "duration": 1.429,
      "velocity": 0.71,
      "hand": "right"
    },
    {
      "midi": 48,
      "time": 24.286,
      "duration": 1.429,
      "velocity": 0.71,
      "hand": "left"
    },
    {
      "midi": 60,
      "time": 24.286,
      "duration": 1.429,
      "velocity": 0.71,
      "hand": "right"
    },
    {
      "midi": 63,
      "time": 24.286,
      "duration": 1.429,
      "velocity": 0.71,
      "hand": "right"
    },
    {
      "midi": 68,
      "time": 24.286,
      "duration": 1.429,
      "velocity": 0.71,
      "hand": "right"
    },
    {
      "midi": 75,
      "time": 24.286,
      "duration": 1.429,
      "velocity": 0.71,
      "hand": "right"
    },
    {
      "midi": 47,
      "time": 25.714,
      "duration": 1.429,
      "velocity": 0.71,
      "hand": "left"
    },
    {
      "midi": 59,
      "time": 25.714,
      "duration": 1.429,
      "velocity": 0.71,
      "hand": "left"
    },
    {
      "midi": 62,
      "time": 25.714,
      "duration": 1.429,
      "velocity": 0.71,
      "hand": "right"
    },
    {
      "midi": 68,
      "time": 25.714,
      "duration": 1.071,
      "velocity": 0.71,
      "hand": "right"
    },
    {
      "midi": 74,
      "time": 25.714,
      "duration": 1.429,
      "velocity": 0.71,
      "hand": "right"
    },
    {
      "midi": 66,
      "time": 26.786,
      "duration": 0.357,
      "velocity": 0.71,
      "hand": "right"
    },
    {
      "midi": 46,
      "time": 27.143,
      "duration": 1.429,
      "velocity": 0.71,
      "hand": "left"
    },
    {
      "midi": 58,
      "time": 27.143,
      "duration": 1.429,
      "velocity": 0.71,
      "hand": "left"
    },
    {
      "midi": 62,
      "time": 27.143,
      "duration": 1.429,
      "velocity": 0.71,
      "hand": "right"
    },
    {
      "midi": 67,
      "time": 27.143,
      "duration": 1.429,
      "velocity": 0.71,
      "hand": "right"
    },
    {
      "midi": 74,
      "time": 27.143,
      "duration": 1.429,
      "velocity": 0.71,
      "hand": "right"
    },
    {
      "midi": 45,
      "time": 28.571,
      "duration": 1.429,
      "velocity": 0.71,
      "hand": "left"
    },
    {
      "midi": 57,
      "time": 28.571,
      "duration": 1.429,
      "velocity": 0.71,
      "hand": "left"
    },
    {
      "midi": 60,
      "time": 28.571,
      "duration": 1.429,
      "velocity": 0.71,
      "hand": "right"
    },
    {
      "midi": 67,
      "time": 28.571,
      "duration": 1.429,
      "velocity": 0.71,
      "hand": "right"
    },
    {
      "midi": 72,
      "time": 28.571,
      "duration": 1.429,
      "velocity": 0.71,
      "hand": "right"
    },
    {
      "midi": 44,
      "time": 30,
      "duration": 1.429,
      "velocity": 0.71,
      "hand": "left"
    },
    {
      "midi": 56,
      "time": 30,
      "duration": 1.429,
      "velocity": 0.71,
      "hand": "left"
    },
    {
      "midi": 60,
      "time": 30,
      "duration": 1.429,
      "velocity": 0.71,
      "hand": "right"
    },
    {
      "midi": 62,
      "time": 30,
      "duration": 1.429,
      "velocity": 0.71,
      "hand": "right"
    },
    {
      "midi": 66,
      "time": 30,
      "duration": 1.429,
      "velocity": 0.71,
      "hand": "right"
    },
    {
      "midi": 74,
      "time": 30,
      "duration": 1.429,
      "velocity": 0.71,
      "hand": "right"
    },
    {
      "midi": 43,
      "time": 31.429,
      "duration": 1.429,
      "velocity": 0.71,
      "hand": "left"
    },
    {
      "midi": 55,
      "time": 31.429,
      "duration": 1.429,
      "velocity": 0.71,
      "hand": "left"
    },
    {
      "midi": 62,
      "time": 31.429,
      "duration": 1.071,
      "velocity": 0.71,
      "hand": "right"
    },
    {
      "midi": 67,
      "time": 31.429,
      "duration": 1.071,
      "velocity": 0.71,
      "hand": "right"
    },
    {
      "midi": 71,
      "time": 31.429,
      "duration": 1.071,
      "velocity": 0.71,
      "hand": "right"
    },
    {
      "midi": 60,
      "time": 32.5,
      "duration": 0.357,
      "velocity": 0.71,
      "hand": "right"
    },
    {
      "midi": 69,
      "time": 32.5,
      "duration": 0.357,
      "velocity": 0.71,
      "hand": "right"
    },
    {
      "midi": 41,
      "time": 32.857,
      "duration": 1.429,
      "velocity": 0.71,
      "hand": "left"
    },
    {
      "midi": 53,
      "time": 32.857,
      "duration": 1.429,
      "velocity": 0.71,
      "hand": "left"
    },
    {
      "midi": 59,
      "time": 32.857,
      "duration": 1.429,
      "velocity": 0.71,
      "hand": "left"
    },
    {
      "midi": 62,
      "time": 32.857,
      "duration": 1.429,
      "velocity": 0.71,
      "hand": "right"
    },
    {
      "midi": 67,
      "time": 32.857,
      "duration": 1.429,
      "velocity": 0.71,
      "hand": "right"
    },
    {
      "midi": 39,
      "time": 34.286,
      "duration": 1.429,
      "velocity": 0.71,
      "hand": "left"
    },
    {
      "midi": 51,
      "time": 34.286,
      "duration": 1.429,
      "velocity": 0.71,
      "hand": "left"
    },
    {
      "midi": 60,
      "time": 34.286,
      "duration": 1.429,
      "velocity": 0.71,
      "hand": "right"
    },
    {
      "midi": 67,
      "time": 34.286,
      "duration": 1.429,
      "velocity": 0.71,
      "hand": "right"
    },
    {
      "midi": 72,
      "time": 34.286,
      "duration": 1.429,
      "velocity": 0.71,
      "hand": "right"
    },
    {
      "midi": 41,
      "time": 35.714,
      "duration": 1.429,
      "velocity": 0.71,
      "hand": "left"
    },
    {
      "midi": 53,
      "time": 35.714,
      "duration": 1.429,
      "velocity": 0.71,
      "hand": "left"
    },
    {
      "midi": 56,
      "time": 35.714,
      "duration": 1.429,
      "velocity": 0.71,
      "hand": "left"
    },
    {
      "midi": 60,
      "time": 35.714,
      "duration": 1.429,
      "velocity": 0.71,
      "hand": "right"
    },
    {
      "midi": 68,
      "time": 35.714,
      "duration": 1.429,
      "velocity": 0.71,
      "hand": "right"
    },
    {
      "midi": 35,
      "time": 37.143,
      "duration": 1.429,
      "velocity": 0.71,
      "hand": "left"
    },
    {
      "midi": 47,
      "time": 37.143,
      "duration": 1.429,
      "velocity": 0.71,
      "hand": "left"
    },
    {
      "midi": 55,
      "time": 37.143,
      "duration": 1.429,
      "velocity": 0.71,
      "hand": "left"
    },
    {
      "midi": 62,
      "time": 37.143,
      "duration": 1.429,
      "velocity": 0.71,
      "hand": "right"
    },
    {
      "midi": 67,
      "time": 37.143,
      "duration": 1.071,
      "velocity": 0.71,
      "hand": "right"
    },
    {
      "midi": 65,
      "time": 38.214,
      "duration": 0.357,
      "velocity": 0.71,
      "hand": "right"
    },
    {
      "midi": 36,
      "time": 38.571,
      "duration": 1.429,
      "velocity": 0.71,
      "hand": "left"
    },
    {
      "midi": 48,
      "time": 38.571,
      "duration": 1.429,
      "velocity": 0.71,
      "hand": "left"
    },
    {
      "midi": 55,
      "time": 38.571,
      "duration": 1.429,
      "velocity": 0.71,
      "hand": "left"
    },
    {
      "midi": 60,
      "time": 38.571,
      "duration": 1.429,
      "velocity": 0.71,
      "hand": "right"
    },
    {
      "midi": 63,
      "time": 38.571,
      "duration": 1.429,
      "velocity": 0.71,
      "hand": "right"
    },
    {
      "midi": 32,
      "time": 40,
      "duration": 1.429,
      "velocity": 0.71,
      "hand": "left"
    },
    {
      "midi": 44,
      "time": 40,
      "duration": 1.429,
      "velocity": 0.71,
      "hand": "left"
    },
    {
      "midi": 51,
      "time": 40,
      "duration": 1.429,
      "velocity": 0.71,
      "hand": "left"
    },
    {
      "midi": 56,
      "time": 40,
      "duration": 1.429,
      "velocity": 0.71,
      "hand": "left"
    },
    {
      "midi": 60,
      "time": 40,
      "duration": 1.429,
      "velocity": 0.71,
      "hand": "right"
    },
    {
      "midi": 63,
      "time": 40,
      "duration": 1.429,
      "velocity": 0.71,
      "hand": "right"
    },
    {
      "midi": 25,
      "time": 41.429,
      "duration": 1.429,
      "velocity": 0.71,
      "hand": "left"
    },
    {
      "midi": 37,
      "time": 41.429,
      "duration": 1.429,
      "velocity": 0.71,
      "hand": "left"
    },
    {
      "midi": 53,
      "time": 41.429,
      "duration": 1.429,
      "velocity": 0.71,
      "hand": "left"
    },
    {
      "midi": 56,
      "time": 41.429,
      "duration": 1.429,
      "velocity": 0.71,
      "hand": "left"
    },
    {
      "midi": 61,
      "time": 41.429,
      "duration": 1.429,
      "velocity": 0.71,
      "hand": "right"
    },
    {
      "midi": 65,
      "time": 41.429,
      "duration": 1.429,
      "velocity": 0.71,
      "hand": "right"
    },
    {
      "midi": 31,
      "time": 42.857,
      "duration": 1.429,
      "velocity": 0.71,
      "hand": "left"
    },
    {
      "midi": 43,
      "time": 42.857,
      "duration": 1.429,
      "velocity": 0.71,
      "hand": "left"
    },
    {
      "midi": 53,
      "time": 42.857,
      "duration": 1.429,
      "velocity": 0.71,
      "hand": "left"
    },
    {
      "midi": 55,
      "time": 42.857,
      "duration": 1.429,
      "velocity": 0.71,
      "hand": "left"
    },
    {
      "midi": 59,
      "time": 42.857,
      "duration": 1.429,
      "velocity": 0.71,
      "hand": "left"
    },
    {
      "midi": 63,
      "time": 42.857,
      "duration": 1.071,
      "velocity": 0.71,
      "hand": "right"
    },
    {
      "midi": 62,
      "time": 43.929,
      "duration": 0.357,
      "velocity": 0.71,
      "hand": "right"
    },
    {
      "midi": 24,
      "time": 44.286,
      "duration": 1.429,
      "velocity": 0.71,
      "hand": "left"
    },
    {
      "midi": 36,
      "time": 44.286,
      "duration": 1.429,
      "velocity": 0.71,
      "hand": "left"
    },
    {
      "midi": 51,
      "time": 44.286,
      "duration": 1.429,
      "velocity": 0.71,
      "hand": "left"
    },
    {
      "midi": 55,
      "time": 44.286,
      "duration": 1.429,
      "velocity": 0.71,
      "hand": "left"
    },
    {
      "midi": 60,
      "time": 44.286,
      "duration": 1.429,
      "velocity": 0.71,
      "hand": "right"
    },
    {
      "midi": 36,
      "time": 45.714,
      "duration": 1.429,
      "velocity": 0.71,
      "hand": "left"
    },
    {
      "midi": 48,
      "time": 45.714,
      "duration": 1.429,
      "velocity": 0.71,
      "hand": "left"
    },
    {
      "midi": 63,
      "time": 45.714,
      "duration": 1.429,
      "velocity": 0.71,
      "hand": "right"
    },
    {
      "midi": 67,
      "time": 45.714,
      "duration": 1.429,
      "velocity": 0.71,
      "hand": "right"
    },
    {
      "midi": 75,
      "time": 45.714,
      "duration": 1.429,
      "velocity": 0.71,
      "hand": "right"
    },
    {
      "midi": 48,
      "time": 47.143,
      "duration": 1.429,
      "velocity": 0.71,
      "hand": "left"
    },
    {
      "midi": 60,
      "time": 47.143,
      "duration": 1.429,
      "velocity": 0.71,
      "hand": "right"
    },
    {
      "midi": 63,
      "time": 47.143,
      "duration": 1.429,
      "velocity": 0.71,
      "hand": "right"
    },
    {
      "midi": 68,
      "time": 47.143,
      "duration": 1.429,
      "velocity": 0.71,
      "hand": "right"
    },
    {
      "midi": 75,
      "time": 47.143,
      "duration": 1.429,
      "velocity": 0.71,
      "hand": "right"
    },
    {
      "midi": 47,
      "time": 48.571,
      "duration": 1.429,
      "velocity": 0.71,
      "hand": "left"
    },
    {
      "midi": 59,
      "time": 48.571,
      "duration": 1.429,
      "velocity": 0.71,
      "hand": "left"
    },
    {
      "midi": 62,
      "time": 48.571,
      "duration": 1.429,
      "velocity": 0.71,
      "hand": "right"
    },
    {
      "midi": 68,
      "time": 48.571,
      "duration": 1.071,
      "velocity": 0.71,
      "hand": "right"
    },
    {
      "midi": 74,
      "time": 48.571,
      "duration": 1.429,
      "velocity": 0.71,
      "hand": "right"
    },
    {
      "midi": 66,
      "time": 49.643,
      "duration": 0.357,
      "velocity": 0.71,
      "hand": "right"
    },
    {
      "midi": 46,
      "time": 50,
      "duration": 1.429,
      "velocity": 0.71,
      "hand": "left"
    },
    {
      "midi": 58,
      "time": 50,
      "duration": 1.429,
      "velocity": 0.71,
      "hand": "left"
    },
    {
      "midi": 62,
      "time": 50,
      "duration": 1.429,
      "velocity": 0.71,
      "hand": "right"
    },
    {
      "midi": 67,
      "time": 50,
      "duration": 1.429,
      "velocity": 0.71,
      "hand": "right"
    },
    {
      "midi": 74,
      "time": 50,
      "duration": 1.429,
      "velocity": 0.71,
      "hand": "right"
    },
    {
      "midi": 45,
      "time": 51.429,
      "duration": 1.429,
      "velocity": 0.71,
      "hand": "left"
    },
    {
      "midi": 57,
      "time": 51.429,
      "duration": 1.429,
      "velocity": 0.71,
      "hand": "left"
    },
    {
      "midi": 60,
      "time": 51.429,
      "duration": 1.429,
      "velocity": 0.71,
      "hand": "right"
    },
    {
      "midi": 67,
      "time": 51.429,
      "duration": 1.429,
      "velocity": 0.71,
      "hand": "right"
    },
    {
      "midi": 72,
      "time": 51.429,
      "duration": 1.429,
      "velocity": 0.71,
      "hand": "right"
    },
    {
      "midi": 44,
      "time": 52.857,
      "duration": 1.429,
      "velocity": 0.71,
      "hand": "left"
    },
    {
      "midi": 56,
      "time": 52.857,
      "duration": 1.429,
      "velocity": 0.71,
      "hand": "left"
    },
    {
      "midi": 60,
      "time": 52.857,
      "duration": 1.429,
      "velocity": 0.71,
      "hand": "right"
    },
    {
      "midi": 62,
      "time": 52.857,
      "duration": 1.429,
      "velocity": 0.71,
      "hand": "right"
    },
    {
      "midi": 66,
      "time": 52.857,
      "duration": 1.429,
      "velocity": 0.71,
      "hand": "right"
    },
    {
      "midi": 74,
      "time": 52.857,
      "duration": 1.429,
      "velocity": 0.71,
      "hand": "right"
    },
    {
      "midi": 43,
      "time": 54.286,
      "duration": 1.429,
      "velocity": 0.71,
      "hand": "left"
    },
    {
      "midi": 55,
      "time": 54.286,
      "duration": 1.429,
      "velocity": 0.71,
      "hand": "left"
    },
    {
      "midi": 62,
      "time": 54.286,
      "duration": 1.071,
      "velocity": 0.71,
      "hand": "right"
    },
    {
      "midi": 67,
      "time": 54.286,
      "duration": 1.071,
      "velocity": 0.71,
      "hand": "right"
    },
    {
      "midi": 71,
      "time": 54.286,
      "duration": 1.071,
      "velocity": 0.71,
      "hand": "right"
    },
    {
      "midi": 60,
      "time": 55.357,
      "duration": 0.357,
      "velocity": 0.71,
      "hand": "right"
    },
    {
      "midi": 69,
      "time": 55.357,
      "duration": 0.357,
      "velocity": 0.71,
      "hand": "right"
    },
    {
      "midi": 41,
      "time": 55.714,
      "duration": 1.429,
      "velocity": 0.71,
      "hand": "left"
    },
    {
      "midi": 53,
      "time": 55.714,
      "duration": 1.429,
      "velocity": 0.71,
      "hand": "left"
    },
    {
      "midi": 59,
      "time": 55.714,
      "duration": 1.429,
      "velocity": 0.71,
      "hand": "left"
    },
    {
      "midi": 62,
      "time": 55.714,
      "duration": 1.429,
      "velocity": 0.71,
      "hand": "right"
    },
    {
      "midi": 67,
      "time": 55.714,
      "duration": 1.429,
      "velocity": 0.71,
      "hand": "right"
    },
    {
      "midi": 39,
      "time": 57.143,
      "duration": 1.429,
      "velocity": 0.71,
      "hand": "left"
    },
    {
      "midi": 51,
      "time": 57.143,
      "duration": 1.429,
      "velocity": 0.71,
      "hand": "left"
    },
    {
      "midi": 60,
      "time": 57.143,
      "duration": 1.429,
      "velocity": 0.71,
      "hand": "right"
    },
    {
      "midi": 67,
      "time": 57.143,
      "duration": 1.429,
      "velocity": 0.71,
      "hand": "right"
    },
    {
      "midi": 72,
      "time": 57.143,
      "duration": 1.429,
      "velocity": 0.71,
      "hand": "right"
    },
    {
      "midi": 41,
      "time": 58.571,
      "duration": 1.429,
      "velocity": 0.71,
      "hand": "left"
    },
    {
      "midi": 53,
      "time": 58.571,
      "duration": 1.429,
      "velocity": 0.71,
      "hand": "left"
    },
    {
      "midi": 56,
      "time": 58.571,
      "duration": 1.429,
      "velocity": 0.71,
      "hand": "left"
    },
    {
      "midi": 60,
      "time": 58.571,
      "duration": 1.429,
      "velocity": 0.71,
      "hand": "right"
    },
    {
      "midi": 68,
      "time": 58.571,
      "duration": 1.429,
      "velocity": 0.71,
      "hand": "right"
    },
    {
      "midi": 35,
      "time": 60,
      "duration": 1.429,
      "velocity": 0.71,
      "hand": "left"
    },
    {
      "midi": 47,
      "time": 60,
      "duration": 1.429,
      "velocity": 0.71,
      "hand": "left"
    },
    {
      "midi": 55,
      "time": 60,
      "duration": 1.429,
      "velocity": 0.71,
      "hand": "left"
    },
    {
      "midi": 62,
      "time": 60,
      "duration": 1.429,
      "velocity": 0.71,
      "hand": "right"
    },
    {
      "midi": 67,
      "time": 60,
      "duration": 1.071,
      "velocity": 0.71,
      "hand": "right"
    },
    {
      "midi": 65,
      "time": 61.071,
      "duration": 0.357,
      "velocity": 0.71,
      "hand": "right"
    },
    {
      "midi": 36,
      "time": 61.429,
      "duration": 1.429,
      "velocity": 0.71,
      "hand": "left"
    },
    {
      "midi": 48,
      "time": 61.429,
      "duration": 1.429,
      "velocity": 0.71,
      "hand": "left"
    },
    {
      "midi": 55,
      "time": 61.429,
      "duration": 1.429,
      "velocity": 0.71,
      "hand": "left"
    },
    {
      "midi": 60,
      "time": 61.429,
      "duration": 1.429,
      "velocity": 0.71,
      "hand": "right"
    },
    {
      "midi": 63,
      "time": 61.429,
      "duration": 1.429,
      "velocity": 0.71,
      "hand": "right"
    },
    {
      "midi": 32,
      "time": 62.857,
      "duration": 1.429,
      "velocity": 0.71,
      "hand": "left"
    },
    {
      "midi": 44,
      "time": 62.857,
      "duration": 1.429,
      "velocity": 0.71,
      "hand": "left"
    },
    {
      "midi": 51,
      "time": 62.857,
      "duration": 1.429,
      "velocity": 0.71,
      "hand": "left"
    },
    {
      "midi": 56,
      "time": 62.857,
      "duration": 1.429,
      "velocity": 0.71,
      "hand": "left"
    },
    {
      "midi": 60,
      "time": 62.857,
      "duration": 1.429,
      "velocity": 0.71,
      "hand": "right"
    },
    {
      "midi": 63,
      "time": 62.857,
      "duration": 1.429,
      "velocity": 0.71,
      "hand": "right"
    },
    {
      "midi": 25,
      "time": 64.286,
      "duration": 1.429,
      "velocity": 0.71,
      "hand": "left"
    },
    {
      "midi": 37,
      "time": 64.286,
      "duration": 1.429,
      "velocity": 0.71,
      "hand": "left"
    },
    {
      "midi": 53,
      "time": 64.286,
      "duration": 1.429,
      "velocity": 0.71,
      "hand": "left"
    },
    {
      "midi": 56,
      "time": 64.286,
      "duration": 1.429,
      "velocity": 0.71,
      "hand": "left"
    },
    {
      "midi": 61,
      "time": 64.286,
      "duration": 1.429,
      "velocity": 0.71,
      "hand": "right"
    },
    {
      "midi": 65,
      "time": 64.286,
      "duration": 1.429,
      "velocity": 0.71,
      "hand": "right"
    },
    {
      "midi": 31,
      "time": 65.714,
      "duration": 1.429,
      "velocity": 0.71,
      "hand": "left"
    },
    {
      "midi": 43,
      "time": 65.714,
      "duration": 1.429,
      "velocity": 0.71,
      "hand": "left"
    },
    {
      "midi": 53,
      "time": 65.714,
      "duration": 1.429,
      "velocity": 0.71,
      "hand": "left"
    },
    {
      "midi": 55,
      "time": 65.714,
      "duration": 1.429,
      "velocity": 0.71,
      "hand": "left"
    },
    {
      "midi": 59,
      "time": 65.714,
      "duration": 1.429,
      "velocity": 0.71,
      "hand": "left"
    },
    {
      "midi": 63,
      "time": 65.714,
      "duration": 1.071,
      "velocity": 0.71,
      "hand": "right"
    },
    {
      "midi": 62,
      "time": 66.786,
      "duration": 0.357,
      "velocity": 0.71,
      "hand": "right"
    },
    {
      "midi": 24,
      "time": 67.143,
      "duration": 1.429,
      "velocity": 0.71,
      "hand": "left"
    },
    {
      "midi": 36,
      "time": 67.143,
      "duration": 1.429,
      "velocity": 0.71,
      "hand": "left"
    },
    {
      "midi": 51,
      "time": 67.143,
      "duration": 1.429,
      "velocity": 0.71,
      "hand": "left"
    },
    {
      "midi": 55,
      "time": 67.143,
      "duration": 1.429,
      "velocity": 0.71,
      "hand": "left"
    },
    {
      "midi": 60,
      "time": 67.143,
      "duration": 1.429,
      "velocity": 0.71,
      "hand": "right"
    },
    {
      "midi": 48,
      "time": 68.571,
      "duration": 5.714,
      "velocity": 0.71,
      "hand": "left"
    },
    {
      "midi": 55,
      "time": 68.571,
      "duration": 5.714,
      "velocity": 0.71,
      "hand": "left"
    },
    {
      "midi": 60,
      "time": 68.571,
      "duration": 5.714,
      "velocity": 0.71,
      "hand": "right"
    },
    {
      "midi": 63,
      "time": 68.571,
      "duration": 5.714,
      "velocity": 0.71,
      "hand": "right"
    },
    {
      "midi": 67,
      "time": 68.571,
      "duration": 5.714,
      "velocity": 0.71,
      "hand": "right"
    },
    {
      "midi": 72,
      "time": 68.571,
      "duration": 5.714,
      "velocity": 0.71,
      "hand": "right"
    }
  ]
}
