{
  "id": "prelude-op-28-no-4-suffocation-chopin",
  "title": "Prelúdio Op. 28 nº 4",
  "artist": "Frédéric Chopin",
  "difficulty": "Médio",
  "bpm": 56,
  "duration": 108,
  "category": "Clássicos",
  "isPremium": true,
  "coverUrl": "/images/covers/placeholder.png",
  "notes": [
    {
      "midi": 59,
      "time": 0,
      "duration": 0.804,
      "velocity": 0.71,
      "hand": "left"
    },
    {
      "midi": 71,
      "time": 0.804,
      "duration": 0.268,
      "velocity": 0.71,
      "hand": "right"
    },
    {
      "midi": 55,
      "time": 1.071,
      "duration": 0.536,
      "velocity": 0.71,
      "hand": "left"
    },
    {
      "midi": 59,
      "time": 1.071,
      "duration": 0.536,
      "velocity": 0.71,
      "hand": "left"
    },
    {
      "midi": 64,
      "time": 1.071,
      "duration": 0.536,
      "velocity": 0.71,
      "hand": "right"
    },
    {
      "midi": 71,
      "time": 1.071,
      "duration": 3.214,
      "velocity": 0.71,
      "hand": "right"
    },
    {
      "midi": 55,
      "time": 1.607,
      "duration": 0.536,
      "velocity": 0.71,
      "hand": "left"
    },
    {
      "midi": 59,
      "time": 1.607,
      "duration": 0.536,
      "velocity": 0.71,
      "hand": "left"
    },
    {
      "midi": 64,
      "time": 1.607,
      "duration": 0.536,
      "velocity": 0.71,
      "hand": "right"
    },
    {
      "midi": 55,
      "time": 2.143,
      "duration": 0.536,
      "velocity": 0.71,
      "hand": "left"
    },
    {
      "midi": 59,
      "time": 2.143,
      "duration": 0.536,
      "velocity": 0.71,
      "hand": "left"
    },
    {
      "midi": 64,
      "time": 2.143,
      "duration": 0.536,
      "velocity": 0.71,
      "hand": "right"
    },
    {
      "midi": 55,
      "time": 2.679,
      "duration": 0.536,
      "velocity": 0.71,
      "hand": "left"
    },
    {
      "midi": 59,
      "time": 2.679,
      "duration": 0.536,
      "velocity": 0.71,
      "hand": "left"
    },
    {
      "midi": 64,
      "time": 2.679,
      "duration": 0.536,
      "velocity": 0.71,
      "hand": "right"
    },
    {
      "midi": 55,
      "time": 3.214,
      "duration": 0.536,
      "velocity": 0.71,
      "hand": "left"
    },
    {
      "midi": 59,
      "time": 3.214,
      "duration": 0.536,
      "velocity": 0.71,
      "hand": "left"
    },
    {
      "midi": 64,
      "time": 3.214,
      "duration": 0.536,
      "velocity": 0.71,
      "hand": "right"
    },
    {
      "midi": 55,
      "time": 3.75,
      "duration": 0.536,
      "velocity": 0.71,
      "hand": "left"
    },
    {
      "midi": 59,
      "time": 3.75,
      "duration": 0.536,
      "velocity": 0.71,
      "hand": "left"
    },
    {
      "midi": 64,
      "time": 3.75,
      "duration": 0.536,
      "velocity": 0.71,
      "hand": "right"
    },
    {
      "midi": 55,
      "time": 4.286,
      "duration": 0.536,
      "velocity": 0.71,
      "hand": "left"
    },
    {
      "midi": 59,
      "time": 4.286,
      "duration": 0.536,
      "velocity": 0.71,
      "hand": "left"
    },
    {
      "midi": 64,
      "time": 4.286,
      "duration": 0.536,
      "velocity": 0.71,
      "hand": "right"
    },
    {
      "midi": 72,
      "time": 4.286,
      "duration": 1.071,
      "velocity": 0.71,
      "hand": "right"
    },
    {
      "midi": 55,
      "time": 4.821,
      "duration": 0.536,
      "velocity": 0.71,
      "hand": "left"
    },
    {
      "midi": 59,
      "time": 4.821,
      "duration": 0.536,
      "velocity": 0.71,
      "hand": "left"
    },
    {
      "midi": 64,
      "time": 4.821,
      "duration": 0.536,
      "velocity": 0.71,
      "hand": "right"
    },
    {
      "midi": 54,
      "time": 5.357,
      "duration": 0.536,
      "velocity": 0.71,
      "hand": "left"
    },
    {
      "midi": 57,
      "time": 5.357,
      "duration": 0.536,
      "velocity": 0.71,
      "hand": "left"
    },
    {
      "midi": 64,
      "time": 5.357,
      "duration": 0.536,
      "velocity": 0.71,
      "hand": "right"
    },
    {
      "midi": 71,
      "time": 5.357,
      "duration": 3.214,
      "velocity": 0.71,
      "hand": "right"
    },
    {
      "midi": 54,
      "time": 5.893,
      "duration": 0.536,
      "velocity": 0.71,
      "hand": "left"
    },
    {
      "midi": 57,
      "time": 5.893,
      "duration": 0.536,
      "velocity": 0.71,
      "hand": "left"
    },
    {
      "midi": 64,
      "time": 5.893,
      "duration": 0.536,
      "velocity": 0.71,
      "hand": "right"
    },
    {
      "midi": 54,
      "time": 6.429,
      "duration": 0.536,
      "velocity": 0.71,
      "hand": "left"
    },
    {
      "midi": 57,
      "time": 6.429,
      "duration": 0.536,
      "velocity": 0.71,
      "hand": "left"
    },
    {
      "midi": 64,
      "time": 6.429,
      "duration": 0.536,
      "velocity": 0.71,
      "hand": "right"
    },
    {
      "midi": 54,
      "time": 6.964,
      "duration": 0.536,
      "velocity": 0.71,
      "hand": "left"
    },
    {
      "midi": 57,
      "time": 6.964,
      "duration": 0.536,
      "velocity": 0.71,
      "hand": "left"
    },
    {
      "midi": 64,
      "time": 6.964,
      "duration": 0.536,
      "velocity": 0.71,
      "hand": "right"
    },
    {
      "midi": 54,
      "time": 7.5,
      "duration": 0.536,
      "velocity": 0.71,
      "hand": "left"
    },
    {
      "midi": 57,
      "time": 7.5,
      "duration": 0.536,
      "velocity": 0.71,
      "hand": "left"
    },
    {
      "midi": 63,
      "time": 7.5,
      "duration": 0.536,
      "velocity": 0.71,
      "hand": "right"
    },
    {
      "midi": 54,
      "time": 8.036,
      "duration": 0.536,
      "velocity": 0.71,
      "hand": "left"
    },
    {
      "midi": 57,
      "time": 8.036,
      "duration": 0.536,
      "velocity": 0.71,
      "hand": "left"
    },
    {
      "midi": 63,
      "time": 8.036,
      "duration": 0.536,
      "velocity": 0.71,
      "hand": "right"
    },
    {
      "midi": 54,
      "time": 8.571,
      "duration": 0.536,
      "velocity": 0.71,
      "hand": "left"
    },
    {
      "midi": 57,
      "time": 8.571,
      "duration": 0.536,
      "velocity": 0.71,
      "hand": "left"
    },
    {
      "midi": 63,
      "time": 8.571,
      "duration": 0.536,
      "velocity": 0.71,
      "hand": "right"
    },
    {
      "midi": 72,
      "time": 8.571,
      "duration": 1.071,
      "velocity": 0.71,
      "hand": "right"
    },
    {
      "midi": 54,
      "time": 9.107,
      "duration": 0.536,
      "velocity": 0.71,
      "hand": "left"
    },
    {
      "midi": 57,
      "time": 9.107,
      "duration": 0.536,
      "velocity": 0.71,
      "hand": "left"
    },
    {
      "midi": 63,
      "time": 9.107,
      "duration": 0.536,
      "velocity": 0.71,
      "hand": "right"
    },
    {
      "midi": 53,
      "time": 9.643,
      "duration": 0.536,
      "velocity": 0.71,
      "hand": "left"
    },
    {
      "midi": 57,
      "time": 9.643,
      "duration": 0.536,
      "velocity": 0.71,
      "hand": "left"
    },
    {
      "midi": 63,
      "time": 9.643,
      "duration": 0.536,
      "velocity": 0.71,
      "hand": "right"
    },
    {
      "midi": 71,
      "time": 9.643,
      "duration": 3.214,
      "velocity": 0.71,
      "hand": "right"
    },
    {
      "midi": 53,
      "time": 10.179,
      "duration": 0.536,
      "velocity": 0.71,
      "hand": "left"
    },
    {
      "midi": 57,
      "time": 10.179,
      "duration": 0.536,
      "velocity": 0.71,
      "hand": "left"
    },
    {
      "midi": 63,
      "time": 10.179,
      "duration": 0.536,
      "velocity": 0.71,
      "hand": "right"
    },
    {
      "midi": 53,
      "time": 10.714,
      "duration": 0.536,
      "velocity": 0.71,
      "hand": "left"
    },
    {
      "midi": 57,
      "time": 10.714,
      "duration": 0.536,
      "velocity": 0.71,
      "hand": "left"
    },
    {
      "midi": 63,
      "time": 10.714,
      "duration": 0.536,
      "velocity": 0.71,
      "hand": "right"
    },
    {
      "midi": 53,
      "time": 11.25,
      "duration": 0.536,
      "velocity": 0.71,
      "hand": "left"
    },
    {
      "midi": 57,
      "time": 11.25,
      "duration": 0.536,
      "velocity": 0.71,
      "hand": "left"
    },
    {
      "midi": 63,
      "time": 11.25,
      "duration": 0.536,
      "velocity": 0.71,
      "hand": "right"
    },
    {
      "midi": 53,
      "time": 11.786,
      "duration": 0.536,
      "velocity": 0.71,
      "hand": "left"
    },
    {
      "midi": 57,
      "time": 11.786,
      "duration": 0.536,
      "velocity": 0.71,
      "hand": "left"
    },
    {
      "midi": 62,
      "time": 11.786,
      "duration": 0.536,
      "velocity": 0.71,
      "hand": "right"
    },
    {
      "midi": 53,
      "time": 12.321,
      "duration": 0.536,
      "velocity": 0.71,
      "hand": "left"
    },
    {
      "midi": 57,
      "time": 12.321,
      "duration": 0.536,
      "velocity": 0.71,
      "hand": "left"
    },
    {
      "midi": 62,
      "time": 12.321,
      "duration": 0.536,
      "velocity": 0.71,
      "hand": "right"
    },
    {
      "midi": 53,
      "time": 12.857,
      "duration": 0.536,
      "velocity": 0.71,
      "hand": "left"
    },
    {
      "midi": 56,
      "time": 12.857,
      "duration": 0.536,
      "velocity": 0.71,
      "hand": "left"
    },
    {
      "midi": 62,
      "time": 12.857,
      "duration": 0.536,
      "velocity": 0.71,
      "hand": "right"
    },
    {
      "midi": 72,
      "time": 12.857,
      "duration": 1.071,
      "velocity": 0.71,
      "hand": "right"
    },
    {
      "midi": 53,
      "time": 13.393,
      "duration": 0.536,
      "velocity": 0.71,
      "hand": "left"
    },
    {
      "midi": 56,
      "time": 13.393,
      "duration": 0.536,
      "velocity": 0.71,
      "hand": "left"
    },
    {
      "midi": 62,
      "time": 13.393,
      "duration": 0.536,
      "velocity": 0.71,
      "hand": "right"
    },
    {
      "midi": 52,
      "time": 13.929,
      "duration": 0.536,
      "velocity": 0.71,
      "hand": "left"
    },
    {
      "midi": 56,
      "time": 13.929,
      "duration": 0.536,
      "velocity": 0.71,
      "hand": "left"
    },
    {
      "midi": 62,
      "time": 13.929,
      "duration": 0.536,
      "velocity": 0.71,
      "hand": "right"
    },
    {
      "midi": 71,
      "time": 13.929,
      "duration": 3.214,
      "velocity": 0.71,
      "hand": "right"
    },
    {
      "midi": 52,
      "time": 14.464,
      "duration": 0.536,
      "velocity": 0.71,
      "hand": "left"
    },
    {
      "midi": 56,
      "time": 14.464,
      "duration": 0.536,
      "velocity": 0.71,
      "hand": "left"
    },
    {
      "midi": 62,
      "time": 14.464,
      "duration": 0.536,
      "velocity": 0.71,
      "hand": "right"
    },
    {
      "midi": 52,
      "time": 15,
      "duration": 0.536,
      "velocity": 0.71,
      "hand": "left"
    },
    {
      "midi": 56,
      "time": 15,
      "duration": 0.536,
      "velocity": 0.71,
      "hand": "left"
    },
    {
      "midi": 62,
      "time": 15,
      "duration": 0.536,
      "velocity": 0.71,
      "hand": "right"
    },
    {
      "midi": 52,
      "time": 15.536,
      "duration": 0.536,
      "velocity": 0.71,
      "hand": "left"
    },
    {
      "midi": 56,
      "time": 15.536,
      "duration": 0.536,
      "velocity": 0.71,
      "hand": "left"
    },
    {
      "midi": 62,
      "time": 15.536,
      "duration": 0.536,
      "velocity": 0.71,
      "hand": "right"
    },
    {
      "midi": 52,
      "time": 16.071,
      "duration": 0.536,
      "velocity": 0.71,
      "hand": "left"
    },
    {
      "midi": 55,
      "time": 16.071,
      "duration": 0.536,
      "velocity": 0.71,
      "hand": "left"
    },
    {
      "midi": 62,
      "time": 16.071,
      "duration": 0.536,
      "velocity": 0.71,
      "hand": "right"
    },
    {
      "midi": 52,
      "time": 16.607,
      "duration": 0.536,
      "velocity": 0.71,
      "hand": "left"
    },
    {
      "midi": 55,
      "time": 16.607,
      "duration": 0.536,
      "velocity": 0.71,
      "hand": "left"
    },
    {
      "midi": 62,
      "time": 16.607,
      "duration": 0.536,
      "velocity": 0.71,
      "hand": "right"
    },
    {
      "midi": 52,
      "time": 17.143,
      "duration": 0.536,
      "velocity": 0.71,
      "hand": "left"
    },
    {
      "midi": 55,
      "time": 17.143,
      "duration": 0.536,
      "velocity": 0.71,
      "hand": "left"
    },
    {
      "midi": 61,
      "time": 17.143,
      "duration": 0.536,
      "velocity": 0.71,
      "hand": "right"
    },
    {
      "midi": 70,
      "time": 17.143,
      "duration": 1.071,
      "velocity": 0.71,
      "hand": "right"
    },
    {
      "midi": 52,
      "time": 17.679,
      "duration": 0.536,
      "velocity": 0.71,
      "hand": "left"
    },
    {
      "midi": 55,
      "time": 17.679,
      "duration": 0.536,
      "velocity": 0.71,
      "hand": "left"
    },
    {
      "midi": 61,
      "time": 17.679,
      "duration": 0.536,
      "velocity": 0.71,
      "hand": "right"
    },
    {
      "midi": 52,
      "time": 18.214,
      "duration": 0.536,
      "velocity": 0.71,
      "hand": "left"
    },
    {
      "midi": 55,
      "time": 18.214,
      "duration": 0.536,
      "velocity": 0.71,
      "hand": "left"
    },
    {
      "midi": 60,
      "time": 18.214,
      "duration": 0.536,
      "velocity": 0.71,
      "hand": "right"
    },
    {
      "midi": 69,
      "time": 18.214,
      "duration": 3.214,
      "velocity": 0.71,
      "hand": "right"
    },
    {
      "midi": 52,
      "time": 18.75,
      "duration": 0.536,
      "velocity": 0.71,
      "hand": "left"
    },
    {
      "midi": 55,
      "time": 18.75,
      "duration": 0.536,
      "velocity": 0.71,
      "hand": "left"
    },
    {
      "midi": 60,
      "time": 18.75,
      "duration": 0.536,
      "velocity": 0.71,
      "hand": "right"
    },
    {
      "midi": 52,
      "time": 19.286,
      "duration": 0.536,
      "velocity": 0.71,
      "hand": "left"
    },
    {
      "midi": 55,
      "time": 19.286,
      "duration": 0.536,
      "velocity": 0.71,
      "hand": "left"
    },
    {
      "midi": 60,
      "time": 19.286,
      "duration": 0.536,
      "velocity": 0.71,
      "hand": "right"
    },
    {
      "midi": 52,
      "time": 19.821,
      "duration": 0.536,
      "velocity": 0.71,
      "hand": "left"
    },
    {
      "midi": 55,
      "time": 19.821,
      "duration": 0.536,
      "velocity": 0.71,
      "hand": "left"
    },
    {
      "midi": 60,
      "time": 19.821,
      "duration": 0.536,
      "velocity": 0.71,
      "hand": "right"
    },
    {
      "midi": 52,
      "time": 20.357,
      "duration": 0.536,
      "velocity": 0.71,
      "hand": "left"
    },
    {
      "midi": 54,
      "time": 20.357,
      "duration": 0.536,
      "velocity": 0.71,
      "hand": "left"
    },
    {
      "midi": 60,
      "time": 20.357,
      "duration": 0.536,
      "velocity": 0.71,
      "hand": "right"
    },
    {
      "midi": 52,
      "time": 20.893,
      "duration": 0.536,
      "velocity": 0.71,
      "hand": "left"
    },
    {
      "midi": 54,
      "time": 20.893,
      "duration": 0.536,
      "velocity": 0.71,
      "hand": "left"
    },
    {
      "midi": 60,
      "time": 20.893,
      "duration": 0.536,
      "velocity": 0.71,
      "hand": "right"
    },
    {
      "midi": 52,
      "time": 21.429,
      "duration": 0.536,
      "velocity": 0.71,
      "hand": "left"
    },
    {
      "midi": 54,
      "time": 21.429,
      "duration": 0.536,
      "velocity": 0.71,
      "hand": "left"
    },
    {
      "midi": 60,
      "time": 21.429,
      "duration": 0.536,
      "velocity": 0.71,
      "hand": "right"
    },
    {
      "midi": 71,
      "time": 21.429,
      "duration": 1.071,
      "velocity": 0.71,
      "hand": "right"
    },
    {
      "midi": 52,
      "time": 21.964,
      "duration": 0.536,
      "velocity": 0.71,
      "hand": "left"
    },
    {
      "midi": 54,
      "time": 21.964,
      "duration": 0.536,
      "velocity": 0.71,
      "hand": "left"
    },
    {
      "midi": 60,
      "time": 21.964,
      "duration": 0.536,
      "velocity": 0.71,
      "hand": "right"
    },
    {
      "midi": 52,
      "time": 22.5,
      "duration": 0.536,
      "velocity": 0.71,
      "hand": "left"
    },
    {
      "midi": 54,
      "time": 22.5,
      "duration": 0.536,
      "velocity": 0.71,
      "hand": "left"
    },
    {
      "midi": 60,
      "time": 22.5,
      "duration": 0.536,
      "velocity": 0.71,
      "hand": "right"
    },
    {
      "midi": 69,
      "time": 22.5,
      "duration": 3.214,
      "velocity": 0.71,
      "hand": "right"
    },
    {
      "midi": 52,
      "time": 23.036,
      "duration": 0.536,
      "velocity": 0.71,
      "hand": "left"
    },
    {
      "midi": 54,
      "time": 23.036,
      "duration": 0.536,
      "velocity": 0.71,
      "hand": "left"
    },
    {
      "midi": 60,
      "time": 23.036,
      "duration": 0.536,
      "velocity": 0.71,
      "hand": "right"
    },
    {
      "midi": 52,
      "time": 23.571,
      "duration": 0.536,
      "velocity": 0.71,
      "hand": "left"
    },
    {
      "midi": 54,
      "time": 23.571,
      "duration": 0.536,
      "velocity": 0.71,
      "hand": "left"
    },
    {
      "midi": 60,
      "time": 23.571,
      "duration": 0.536,
      "velocity": 0.71,
      "hand": "right"
    },
    {
      "midi": 52,
      "time": 24.107,
      "duration": 0.536,
      "velocity": 0.71,
      "hand": "left"
    },
    {
      "midi": 54,
      "time": 24.107,
      "duration": 0.536,
      "velocity": 0.71,
      "hand": "left"
    },
    {
      "midi": 60,
      "time": 24.107,
      "duration": 0.536,
      "velocity": 0.71,
      "hand": "right"
    },
    {
      "midi": 51,
      "time": 24.643,
      "duration": 0.536,
      "velocity": 0.71,
      "hand": "left"
    },
    {
      "midi": 54,
      "time": 24.643,
      "duration": 0.536,
      "velocity": 0.71,
      "hand": "left"
    },
    {
      "midi": 60,
      "time": 24.643,
      "duration": 0.536,
      "velocity": 0.71,
      "hand": "right"
    },
    {
      "midi": 51,
      "time": 25.179,
      "duration": 0.536,
      "velocity": 0.71,
      "hand": "left"
    },
    {
      "midi": 54,
      "time": 25.179,
      "duration": 0.536,
      "velocity": 0.71,
      "hand": "left"
    },
    {
      "midi": 60,
      "time": 25.179,
      "duration": 0.536,
      "velocity": 0.71,
      "hand": "right"
    },
    {
      "midi": 51,
      "time": 25.714,
      "duration": 0.536,
      "velocity": 0.71,
      "hand": "left"
    },
    {
      "midi": 54,
      "time": 25.714,
      "duration": 0.536,
      "velocity": 0.71,
      "hand": "left"
    },
    {
      "midi": 60,
      "time": 25.714,
      "duration": 0.536,
      "velocity": 0.71,
      "hand": "right"
    },
    {
      "midi": 71,
      "time": 25.714,
      "duration": 1.071,
      "velocity": 0.71,
      "hand": "right"
    },
    {
      "midi": 51,
      "time": 26.25,
      "duration": 0.536,
      "velocity": 0.71,
      "hand": "left"
    },
    {
      "midi": 54,
      "time": 26.25,
      "duration": 0.536,
      "velocity": 0.71,
      "hand": "left"
    },
    {
      "midi": 60,
      "time": 26.25,
      "duration": 0.536,
      "velocity": 0.71,
      "hand": "right"
    },
    {
      "midi": 50,
      "time": 26.786,
      "duration": 0.536,
      "velocity": 0.71,
      "hand": "left"
    },
    {
      "midi": 54,
      "time": 26.786,
      "duration": 0.536,
      "velocity": 0.71,
      "hand": "left"
    },
    {
      "midi": 60,
      "time": 26.786,
      "duration": 0.536,
      "velocity": 0.71,
      "hand": "right"
    },
    {
      "midi": 69,
      "time": 26.786,
      "duration": 3.214,
      "velocity": 0.71,
      "hand": "right"
    },
    {
      "midi": 50,
      "time": 27.321,
      "duration": 0.536,
      "velocity": 0.71,
      "hand": "left"
    },
    {
      "midi": 54,
      "time": 27.321,
      "duration": 0.536,
      "velocity": 0.71,
      "hand": "left"
    },
    {
      "midi": 60,
      "time": 27.321,
      "duration": 0.536,
      "velocity": 0.71,
      "hand": "right"
    },
    {
      "midi": 50,
      "time": 27.857,
      "duration": 0.536,
      "velocity": 0.71,
      "hand": "left"
    },
    {
      "midi": 54,
      "time": 27.857,
      "duration": 0.536,
      "velocity": 0.71,
      "hand": "left"
    },
    {
      "midi": 60,
      "time": 27.857,
      "duration": 0.536,
      "velocity": 0.71,
      "hand": "right"
    },
    {
      "midi": 50,
      "time": 28.393,
      "duration": 0.536,
      "velocity": 0.71,
      "hand": "left"
    },
    {
      "midi": 54,
      "time": 28.393,
      "duration": 0.536,
      "velocity": 0.71,
      "hand": "left"
    },
    {
      "midi": 60,
      "time": 28.393,
      "duration": 0.536,
      "velocity": 0.71,
      "hand": "right"
    },
    {
      "midi": 50,
      "time": 28.929,
      "duration": 0.536,
      "velocity": 0.71,
      "hand": "left"
    },
    {
      "midi": 54,
      "time": 28.929,
      "duration": 0.536,
      "velocity": 0.71,
      "hand": "left"
    },
    {
      "midi": 60,
      "time": 28.929,
      "duration": 0.536,
      "velocity": 0.71,
      "hand": "right"
    },
    {
      "midi": 50,
      "time": 29.464,
      "duration": 0.536,
      "velocity": 0.71,
      "hand": "left"
    },
    {
      "midi": 54,
      "time": 29.464,
      "duration": 0.536,
      "velocity": 0.71,
      "hand": "left"
    },
    {
      "midi": 60,
      "time": 29.464,
      "duration": 0.536,
      "velocity": 0.71,
      "hand": "right"
    },
    {
      "midi": 50,
      "time": 30,
      "duration": 0.536,
      "velocity": 0.71,
      "hand": "left"
    },
    {
      "midi": 54,
      "time": 30,
      "duration": 0.536,
      "velocity": 0.71,
      "hand": "left"
    },
    {
      "midi": 60,
      "time": 30,
      "duration": 0.536,
      "velocity": 0.71,
      "hand": "right"
    },
    {
      "midi": 71,
      "time": 30,
      "duration": 0.804,
      "velocity": 0.71,
      "hand": "right"
    },
    {
      "midi": 50,
      "time": 30.536,
      "duration": 0.536,
      "velocity": 0.71,
      "hand": "left"
    },
    {
      "midi": 54,
      "time": 30.536,
      "duration": 0.536,
      "velocity": 0.71,
      "hand": "left"
    },
    {
      "midi": 60,
      "time": 30.536,
      "duration": 0.536,
      "velocity": 0.71,
      "hand": "right"
    },
    {
      "midi": 69,
      "time": 30.804,
      "duration": 0.268,
      "velocity": 0.71,
      "hand": "right"
    },
    {
      "midi": 50,
      "time": 31.071,
      "duration": 0.536,
      "velocity": 0.71,
      "hand": "left"
    },
    {
      "midi": 53,
      "time": 31.071,
      "duration": 0.536,
      "velocity": 0.71,
      "hand": "left"
    },
    {
      "midi": 60,
      "time": 31.071,
      "duration": 0.536,
      "velocity": 0.71,
      "hand": "right"
    },
    {
      "midi": 69,
      "time": 31.071,
      "duration": 3.214,
      "velocity": 0.71,
      "hand": "right"
    },
    {
      "midi": 50,
      "time": 31.607,
      "duration": 0.536,
      "velocity": 0.71,
      "hand": "left"
    },
    {
      "midi": 53,
      "time": 31.607,
      "duration": 0.536,
      "velocity": 0.71,
      "hand": "left"
    },
    {
      "midi": 60,
      "time": 31.607,
      "duration": 0.536,
      "velocity": 0.71,
      "hand": "right"
    },
    {
      "midi": 50,
      "time": 32.143,
      "duration": 0.536,
      "velocity": 0.71,
      "hand": "left"
    },
    {
      "midi": 53,
      "time": 32.143,
      "duration": 0.536,
      "velocity": 0.71,
      "hand": "left"
    },
    {
      "midi": 60,
      "time": 32.143,
      "duration": 0.536,
      "velocity": 0.71,
      "hand": "right"
    },
    {
      "midi": 50,
      "time": 32.679,
      "duration": 0.536,
      "velocity": 0.71,
      "hand": "left"
    },
    {
      "midi": 53,
      "time": 32.679,
      "duration": 0.536,
      "velocity": 0.71,
      "hand": "left"
    },
    {
      "midi": 60,
      "time": 32.679,
      "duration": 0.536,
      "velocity": 0.71,
      "hand": "right"
    },
    {
      "midi": 50,
      "time": 33.214,
      "duration": 0.536,
      "velocity": 0.71,
      "hand": "left"
    },
    {
      "midi": 53,
      "time": 33.214,
      "duration": 0.536,
      "velocity": 0.71,
      "hand": "left"
    },
    {
      "midi": 59,
      "time": 33.214,
      "duration": 0.536,
      "velocity": 0.71,
      "hand": "left"
    },
    {
      "midi": 50,
      "time": 33.75,
      "duration": 0.536,
      "velocity": 0.71,
      "hand": "left"
    },
    {
      "midi": 53,
      "time": 33.75,
      "duration": 0.536,
      "velocity": 0.71,
      "hand": "left"
    },
    {
      "midi": 59,
      "time": 33.75,
      "duration": 0.536,
      "velocity": 0.71,
      "hand": "left"
    },
    {
      "midi": 50,
      "time": 34.286,
      "duration": 0.536,
      "velocity": 0.71,
      "hand": "left"
    },
    {
      "midi": 53,
      "time": 34.286,
      "duration": 0.536,
      "velocity": 0.71,
      "hand": "left"
    },
    {
      "midi": 59,
      "time": 34.286,
      "duration": 0.536,
      "velocity": 0.71,
      "hand": "left"
    },
    {
      "midi": 68,
      "time": 34.286,
      "duration": 2.143,
      "velocity": 0.71,
      "hand": "right"
    },
    {
      "midi": 50,
      "time": 34.821,
      "duration": 0.536,
      "velocity": 0.71,
      "hand": "left"
    },
    {
      "midi": 53,
      "time": 34.821,
      "duration": 0.536,
      "velocity": 0.71,
      "hand": "left"
    },
    {
      "midi": 59,
      "time": 34.821,
      "duration": 0.536,
      "velocity": 0.71,
      "hand": "left"
    },
    {
      "midi": 48,
      "time": 35.357,
      "duration": 0.536,
      "velocity": 0.71,
      "hand": "left"
    },
    {
      "midi": 52,
      "time": 35.357,
      "duration": 0.536,
      "velocity": 0.71,
      "hand": "left"
    },
    {
      "midi": 59,
      "time": 35.357,
      "duration": 0.536,
      "velocity": 0.71,
      "hand": "left"
    },
    {
      "midi": 48,
      "time": 35.893,
      "duration": 0.536,
      "velocity": 0.71,
      "hand": "left"
    },
    {
      "midi": 52,
      "time": 35.893,
      "duration": 0.536,
      "velocity": 0.71,
      "hand": "left"
    },
    {
      "midi": 59,
      "time": 35.893,
      "duration": 0.536,
      "velocity": 0.71,
      "hand": "left"
    },
    {
      "midi": 48,
      "time": 36.429,
      "duration": 0.536,
      "velocity": 0.71,
      "hand": "left"
    },
    {
      "midi": 52,
      "time": 36.429,
      "duration": 0.536,
      "velocity": 0.71,
      "hand": "left"
    },
    {
      "midi": 57,
      "time": 36.429,
      "duration": 0.536,
      "velocity": 0.71,
      "hand": "left"
    },
    {
      "midi": 69,
      "time": 36.429,
      "duration": 0.536,
      "velocity": 0.71,
      "hand": "right"
    },
    {
      "midi": 48,
      "time": 36.964,
      "duration": 0.536,
      "velocity": 0.71,
      "hand": "left"
    },
    {
      "midi": 52,
      "time": 36.964,
      "duration": 0.536,
      "velocity": 0.71,
      "hand": "left"
    },
    {
      "midi": 57,
      "time": 36.964,
      "duration": 0.536,
      "velocity": 0.71,
      "hand": "left"
    },
    {
      "midi": 71,
      "time": 36.964,
      "duration": 0.536,
      "velocity": 0.71,
      "hand": "right"
    },
    {
      "midi": 48,
      "time": 37.5,
      "duration": 0.536,
      "velocity": 0.71,
      "hand": "left"
    },
    {
      "midi": 52,
      "time": 37.5,
      "duration": 0.536,
      "velocity": 0.71,
      "hand": "left"
    },
    {
      "midi": 57,
      "time": 37.5,
      "duration": 0.536,
      "velocity": 0.71,
      "hand": "left"
    },
    {
      "midi": 74,
      "time": 37.5,
      "duration": 0.536,
      "velocity": 0.71,
      "hand": "right"
    },
    {
      "midi": 48,
      "time": 38.036,
      "duration": 0.536,
      "velocity": 0.71,
      "hand": "left"
    },
    {
      "midi": 52,
      "time": 38.036,
      "duration": 0.536,
      "velocity": 0.71,
      "hand": "left"
    },
    {
      "midi": 57,
      "time": 38.036,
      "duration": 0.536,
      "velocity": 0.71,
      "hand": "left"
    },
    {
      "midi": 72,
      "time": 38.036,
      "duration": 0.536,
      "velocity": 0.71,
      "hand": "right"
    },
    {
      "midi": 48,
      "time": 38.571,
      "duration": 0.536,
      "velocity": 0.71,
      "hand": "left"
    },
    {
      "midi": 52,
      "time": 38.571,
      "duration": 0.536,
      "velocity": 0.71,
      "hand": "left"
    },
    {
      "midi": 57,
      "time": 38.571,
      "duration": 0.536,
      "velocity": 0.71,
      "hand": "left"
    },
    {
      "midi": 64,
      "time": 38.571,
      "duration": 0.536,
      "velocity": 0.71,
      "hand": "right"
    },
    {
      "midi": 48,
      "time": 39.107,
      "duration": 0.536,
      "velocity": 0.71,
      "hand": "left"
    },
    {
      "midi": 52,
      "time": 39.107,
      "duration": 0.536,
      "velocity": 0.71,
      "hand": "left"
    },
    {
      "midi": 57,
      "time": 39.107,
      "duration": 0.536,
      "velocity": 0.71,
      "hand": "left"
    },
    {
      "midi": 69,
      "time": 39.107,
      "duration": 0.536,
      "velocity": 0.71,
      "hand": "right"
    },
    {
      "midi": 47,
      "time": 39.643,
      "duration": 0.536,
      "velocity": 0.71,
      "hand": "left"
    },
    {
      "midi": 52,
      "time": 39.643,
      "duration": 0.536,
      "velocity": 0.71,
      "hand": "left"
    },
    {
      "midi": 57,
      "time": 39.643,
      "duration": 0.536,
      "velocity": 0.71,
      "hand": "left"
    },
    {
      "midi": 66,
      "time": 39.643,
      "duration": 3.214,
      "velocity": 0.71,
      "hand": "right"
    },
    {
      "midi": 47,
      "time": 40.179,
      "duration": 0.536,
      "velocity": 0.71,
      "hand": "left"
    },
    {
      "midi": 52,
      "time": 40.179,
      "duration": 0.536,
      "velocity": 0.71,
      "hand": "left"
    },
    {
      "midi": 57,
      "time": 40.179,
      "duration": 0.536,
      "velocity": 0.71,
      "hand": "left"
    },
    {
      "midi": 47,
      "time": 40.714,
      "duration": 0.536,
      "velocity": 0.71,
      "hand": "left"
    },
    {
      "midi": 51,
      "time": 40.714,
      "duration": 0.536,
      "velocity": 0.71,
      "hand": "left"
    },
    {
      "midi": 57,
      "time": 40.714,
      "duration": 0.536,
      "velocity": 0.71,
      "hand": "left"
    },
    {
      "midi": 47,
      "time": 41.25,
      "duration": 0.536,
      "velocity": 0.71,
      "hand": "left"
    },
    {
      "midi": 51,
      "time": 41.25,
      "duration": 0.536,
      "velocity": 0.71,
      "hand": "left"
    },
    {
      "midi": 57,
      "time": 41.25,
      "duration": 0.536,
      "velocity": 0.71,
      "hand": "left"
    },
    {
      "midi": 48,
      "time": 41.786,
      "duration": 0.536,
      "velocity": 0.71,
      "hand": "left"
    },
    {
      "midi": 52,
      "time": 41.786,
      "duration": 0.536,
      "velocity": 0.71,
      "hand": "left"
    },
    {
      "midi": 57,
      "time": 41.786,
      "duration": 0.536,
      "velocity": 0.71,
      "hand": "left"
    },
    {
      "midi": 48,
      "time": 42.321,
      "duration": 0.536,
      "velocity": 0.71,
      "hand": "left"
    },
    {
      "midi": 52,
      "time": 42.321,
      "duration": 0.536,
      "velocity": 0.71,
      "hand": "left"
    },
    {
      "midi": 57,
      "time": 42.321,
      "duration": 0.536,
      "velocity": 0.71,
      "hand": "left"
    },
    {
      "midi": 48,
      "time": 42.857,
      "duration": 0.536,
      "velocity": 0.71,
      "hand": "left"
    },
    {
      "midi": 52,
      "time": 42.857,
      "duration": 0.536,
      "velocity": 0.71,
      "hand": "left"
    },
    {
      "midi": 57,
      "time": 42.857,
      "duration": 0.536,
      "velocity": 0.71,
      "hand": "left"
    },
    {
      "midi": 69,
      "time": 42.857,
      "duration": 1.071,
      "velocity": 0.71,
      "hand": "right"
    },
    {
      "midi": 48,
      "time": 43.393,
      "duration": 0.536,
      "velocity": 0.71,
      "hand": "left"
    },
    {
      "midi": 52,
      "time": 43.393,
      "duration": 0.536,
      "velocity": 0.71,
      "hand": "left"
    },
    {
      "midi": 57,
      "time": 43.393,
      "duration": 0.536,
      "velocity": 0.71,
      "hand": "left"
    },
    {
      "midi": 47,
      "time": 43.929,
      "duration": 0.536,
      "velocity": 0.71,
      "hand": "left"
    },
    {
      "midi": 51,
      "time": 43.929,
      "duration": 0.536,
      "velocity": 0.71,
      "hand": "left"
    },
    {
      "midi": 57,
      "time": 43.929,
      "duration": 0.536,
      "velocity": 0.71,
      "hand": "left"
    },
    {
      "midi": 66,
      "time": 43.929,
      "duration": 3.214,
      "velocity": 0.71,
      "hand": "right"
    },
    {
      "midi": 47,
      "time": 44.464,
      "duration": 0.536,
      "velocity": 0.71,
      "hand": "left"
    },
    {
      "midi": 51,
      "time": 44.464,
      "duration": 0.536,
      "velocity": 0.71,
      "hand": "left"
    },
    {
      "midi": 57,
      "time": 44.464,
      "duration": 0.536,
      "velocity": 0.71,
      "hand": "left"
    },
    {
      "midi": 47,
      "time": 45,
      "duration": 0.536,
      "velocity": 0.71,
      "hand": "left"
    },
    {
      "midi": 51,
      "time": 45,
      "duration": 0.536,
      "velocity": 0.71,
      "hand": "left"
    },
    {
      "midi": 57,
      "time": 45,
      "duration": 0.536,
      "velocity": 0.71,
      "hand": "left"
    },
    {
      "midi": 47,
      "time": 45.536,
      "duration": 0.536,
      "velocity": 0.71,
      "hand": "left"
    },
    {
      "midi": 51,
      "time": 45.536,
      "duration": 0.536,
      "velocity": 0.71,
      "hand": "left"
    },
    {
      "midi": 57,
      "time": 45.536,
      "duration": 0.536,
      "velocity": 0.71,
      "hand": "left"
    },
    {
      "midi": 48,
      "time": 46.071,
      "duration": 0.536,
      "velocity": 0.71,
      "hand": "left"
    },
    {
      "midi": 52,
      "time": 46.071,
      "duration": 0.536,
      "velocity": 0.71,
      "hand": "left"
    },
    {
      "midi": 57,
      "time": 46.071,
      "duration": 0.536,
      "velocity": 0.71,
      "hand": "left"
    },
    {
      "midi": 48,
      "time": 46.607,
      "duration": 0.536,
      "velocity": 0.71,
      "hand": "left"
    },
    {
      "midi": 52,
      "time": 46.607,
      "duration": 0.536,
      "velocity": 0.71,
      "hand": "left"
    },
    {
      "midi": 57,
      "time": 46.607,
      "duration": 0.536,
      "velocity": 0.71,
      "hand": "left"
    },
    {
      "midi": 48,
      "time": 47.143,
      "duration": 0.536,
      "velocity": 0.71,
      "hand": "left"
    },
    {
      "midi": 52,
      "time": 47.143,
      "duration": 0.536,
      "velocity": 0.71,
      "hand": "left"
    },
    {
      "midi": 57,
      "time": 47.143,
      "duration": 0.536,
      "velocity": 0.71,
      "hand": "left"
    },
    {
      "midi": 69,
      "time": 47.143,
      "duration": 1.071,
      "velocity": 0.71,
      "hand": "right"
    },
    {
      "midi": 71,
      "time": 47.143,
      "duration": 0.134,
      "velocity": 0.71,
      "hand": "right"
    },
    {
      "midi": 48,
      "time": 47.679,
      "duration": 0.536,
      "velocity": 0.71,
      "hand": "left"
    },
    {
      "midi": 52,
      "time": 47.679,
      "duration": 0.536,
      "velocity": 0.71,
      "hand": "left"
    },
    {
      "midi": 57,
      "time": 47.679,
      "duration": 0.536,
      "velocity": 0.71,
      "hand": "left"
    },
    {
      "midi": 47,
      "time": 48.214,
      "duration": 1.071,
      "velocity": 0.71,
      "hand": "left"
    },
    {
      "midi": 51,
      "time": 48.214,
      "duration": 1.071,
      "velocity": 0.71,
      "hand": "left"
    },
    {
      "midi": 57,
      "time": 48.214,
      "duration": 1.071,
      "velocity": 0.71,
      "hand": "left"
    },
    {
      "midi": 67,
      "time": 48.214,
      "duration": 0.536,
      "velocity": 0.71,
      "hand": "right"
    },
    {
      "midi": 66,
      "time": 48.75,
      "duration": 0.536,
      "velocity": 0.71,
      "hand": "right"
    },
    {
      "midi": 60,
      "time": 49.286,
      "duration": 0.536,
      "velocity": 0.71,
      "hand": "right"
    },
    {
      "midi": 59,
      "time": 49.821,
      "duration": 0.536,
      "velocity": 0.71,
      "hand": "left"
    },
    {
      "midi": 63,
      "time": 50.357,
      "duration": 0.536,
      "velocity": 0.71,
      "hand": "right"
    },
    {
      "midi": 66,
      "time": 50.893,
      "duration": 0.536,
      "velocity": 0.71,
      "hand": "right"
    },
    {
      "midi": 74,
      "time": 51.429,
      "duration": 0.268,
      "velocity": 0.71,
      "hand": "right"
    },
    {
      "midi": 72,
      "time": 51.696,
      "duration": 0.268,
      "velocity": 0.71,
      "hand": "right"
    },
    {
      "midi": 71,
      "time": 52.232,
      "duration": 0.268,
      "velocity": 0.71,
      "hand": "right"
    },
    {
      "midi": 55,
      "time": 52.5,
      "duration": 0.536,
      "velocity": 0.71,
      "hand": "left"
    },
    {
      "midi": 59,
      "time": 52.5,
      "duration": 0.536,
      "velocity": 0.71,
      "hand": "left"
    },
    {
      "midi": 64,
      "time": 52.5,
      "duration": 0.536,
      "velocity": 0.71,
      "hand": "right"
    },
    {
      "midi": 71,
      "time": 52.5,
      "duration": 3.214,
      "velocity": 0.71,
      "hand": "right"
    },
    {
      "midi": 55,
      "time": 53.036,
      "duration": 0.536,
      "velocity": 0.71,
      "hand": "left"
    },
    {
      "midi": 59,
      "time": 53.036,
      "duration": 0.536,
      "velocity": 0.71,
      "hand": "left"
    },
    {
      "midi": 64,
      "time": 53.036,
      "duration": 0.536,
      "velocity": 0.71,
      "hand": "right"
    },
    {
      "midi": 55,
      "time": 53.571,
      "duration": 0.536,
      "velocity": 0.71,
      "hand": "left"
    },
    {
      "midi": 59,
      "time": 53.571,
      "duration": 0.536,
      "velocity": 0.71,
      "hand": "left"
    },
    {
      "midi": 64,
      "time": 53.571,
      "duration": 0.536,
      "velocity": 0.71,
      "hand": "right"
    },
    {
      "midi": 55,
      "time": 54.107,
      "duration": 0.536,
      "velocity": 0.71,
      "hand": "left"
    },
    {
      "midi": 59,
      "time": 54.107,
      "duration": 0.536,
      "velocity": 0.71,
      "hand": "left"
    },
    {
      "midi": 64,
      "time": 54.107,
      "duration": 0.536,
      "velocity": 0.71,
      "hand": "right"
    },
    {
      "midi": 55,
      "time": 54.643,
      "duration": 0.536,
      "velocity": 0.71,
      "hand": "left"
    },
    {
      "midi": 59,
      "time": 54.643,
      "duration": 0.536,
      "velocity": 0.71,
      "hand": "left"
    },
    {
      "midi": 64,
      "time": 54.643,
      "duration": 0.536,
      "velocity": 0.71,
      "hand": "right"
    },
    {
      "midi": 55,
      "time": 55.179,
      "duration": 0.536,
      "velocity": 0.71,
      "hand": "left"
    },
    {
      "midi": 59,
      "time": 55.179,
      "duration": 0.536,
      "velocity": 0.71,
      "hand": "left"
    },
    {
      "midi": 64,
      "time": 55.179,
      "duration": 0.536,
      "velocity": 0.71,
      "hand": "right"
    },
    {
      "midi": 55,
      "time": 55.714,
      "duration": 0.536,
      "velocity": 0.71,
      "hand": "left"
    },
    {
      "midi": 59,
      "time": 55.714,
      "duration": 0.536,
      "velocity": 0.71,
      "hand": "left"
    },
    {
      "midi": 64,
      "time": 55.714,
      "duration": 0.536,
      "velocity": 0.71,
      "hand": "right"
    },
    {
      "midi": 72,
      "time": 55.714,
      "duration": 1.071,
      "velocity": 0.71,
      "hand": "right"
    },
    {
      "midi": 55,
      "time": 56.25,
      "duration": 0.536,
      "velocity": 0.71,
      "hand": "left"
    },
    {
      "midi": 59,
      "time": 56.25,
      "duration": 0.536,
      "velocity": 0.71,
      "hand": "left"
    },
    {
      "midi": 64,
      "time": 56.25,
      "duration": 0.536,
      "velocity": 0.71,
      "hand": "right"
    },
    {
      "midi": 54,
      "time": 56.786,
      "duration": 0.536,
      "velocity": 0.71,
      "hand": "left"
    },
    {
      "midi": 57,
      "time": 56.786,
      "duration": 0.536,
      "velocity": 0.71,
      "hand": "left"
    },
    {
      "midi": 64,
      "time": 56.786,
      "duration": 0.536,
      "velocity": 0.71,
      "hand": "right"
    },
    {
      "midi": 71,
      "time": 56.786,
      "duration": 3.214,
      "velocity": 0.71,
      "hand": "right"
    },
    {
      "midi": 54,
      "time": 57.321,
      "duration": 0.536,
      "velocity": 0.71,
      "hand": "left"
    },
    {
      "midi": 57,
      "time": 57.321,
      "duration": 0.536,
      "velocity": 0.71,
      "hand": "left"
    },
    {
      "midi": 64,
      "time": 57.321,
      "duration": 0.536,
      "velocity": 0.71,
      "hand": "right"
    },
    {
      "midi": 54,
      "time": 57.857,
      "duration": 0.536,
      "velocity": 0.71,
      "hand": "left"
    },
    {
      "midi": 57,
      "time": 57.857,
      "duration": 0.536,
      "velocity": 0.71,
      "hand": "left"
    },
    {
      "midi": 64,
      "time": 57.857,
      "duration": 0.536,
      "velocity": 0.71,
      "hand": "right"
    },
    {
      "midi": 54,
      "time": 58.393,
      "duration": 0.536,
      "velocity": 0.71,
      "hand": "left"
    },
    {
      "midi": 57,
      "time": 58.393,
      "duration": 0.536,
      "velocity": 0.71,
      "hand": "left"
    },
    {
      "midi": 64,
      "time": 58.393,
      "duration": 0.536,
      "velocity": 0.71,
      "hand": "right"
    },
    {
      "midi": 53,
      "time": 58.929,
      "duration": 0.536,
      "velocity": 0.71,
      "hand": "left"
    },
    {
      "midi": 57,
      "time": 58.929,
      "duration": 0.536,
      "velocity": 0.71,
      "hand": "left"
    },
    {
      "midi": 63,
      "time": 58.929,
      "duration": 0.536,
      "velocity": 0.71,
      "hand": "right"
    },
    {
      "midi": 53,
      "time": 59.464,
      "duration": 0.536,
      "velocity": 0.71,
      "hand": "left"
    },
    {
      "midi": 57,
      "time": 59.464,
      "duration": 0.536,
      "velocity": 0.71,
      "hand": "left"
    },
    {
      "midi": 63,
      "time": 59.464,
      "duration": 0.536,
      "velocity": 0.71,
      "hand": "right"
    },
    {
      "midi": 53,
      "time": 60,
      "duration": 0.536,
      "velocity": 0.71,
      "hand": "left"
    },
    {
      "midi": 57,
      "time": 60,
      "duration": 0.536,
      "velocity": 0.71,
      "hand": "left"
    },
    {
      "midi": 63,
      "time": 60,
      "duration": 0.536,
      "velocity": 0.71,
      "hand": "right"
    },
    {
      "midi": 72,
      "time": 60,
      "duration": 1.071,
      "velocity": 0.71,
      "hand": "right"
    },
    {
      "midi": 53,
      "time": 60.536,
      "duration": 0.536,
      "velocity": 0.71,
      "hand": "left"
    },
    {
      "midi": 57,
      "time": 60.536,
      "duration": 0.536,
      "velocity": 0.71,
      "hand": "left"
    },
    {
      "midi": 63,
      "time": 60.536,
      "duration": 0.536,
      "velocity": 0.71,
      "hand": "right"
    },
    {
      "midi": 53,
      "time": 61.071,
      "duration": 0.536,
      "velocity": 0.71,
      "hand": "left"
    },
    {
      "midi": 56,
      "time": 61.071,
      "duration": 0.536,
      "velocity": 0.71,
      "hand": "left"
    },
    {
      "midi": 63,
      "time": 61.071,
      "duration": 0.536,
      "velocity": 0.71,
      "hand": "right"
    },
    {
      "midi": 71,
      "time": 61.071,
      "duration": 3.214,
      "velocity": 0.71,
      "hand": "right"
    },
    {
      "midi": 53,
      "time": 61.607,
      "duration": 0.536,
      "velocity": 0.71,
      "hand": "left"
    },
    {
      "midi": 56,
      "time": 61.607,
      "duration": 0.536,
      "velocity": 0.71,
      "hand": "left"
    },
    {
      "midi": 63,
      "time": 61.607,
      "duration": 0.536,
      "velocity": 0.71,
      "hand": "right"
    },
    {
      "midi": 53,
      "time": 62.143,
      "duration": 0.536,
      "velocity": 0.71,
      "hand": "left"
    },
    {
      "midi": 56,
      "time": 62.143,
      "duration": 0.536,
      "velocity": 0.71,
      "hand": "left"
    },
    {
      "midi": 62,
      "time": 62.143,
      "duration": 0.536,
      "velocity": 0.71,
      "hand": "right"
    },
    {
      "midi": 53,
      "time": 62.679,
      "duration": 0.536,
      "velocity": 0.71,
      "hand": "left"
    },
    {
      "midi": 56,
      "time": 62.679,
      "duration": 0.536,
      "velocity": 0.71,
      "hand": "left"
    },
    {
      "midi": 62,
      "time": 62.679,
      "duration": 0.536,
      "velocity": 0.71,
      "hand": "right"
    },
    {
      "midi": 52,
      "time": 63.214,
      "duration": 0.536,
      "velocity": 0.71,
      "hand": "left"
    },
    {
      "midi": 56,
      "time": 63.214,
      "duration": 0.536,
      "velocity": 0.71,
      "hand": "left"
    },
    {
      "midi": 62,
      "time": 63.214,
      "duration": 0.536,
      "velocity": 0.71,
      "hand": "right"
    },
    {
      "midi": 52,
      "time": 63.75,
      "duration": 0.536,
      "velocity": 0.71,
      "hand": "left"
    },
    {
      "midi": 56,
      "time": 63.75,
      "duration": 0.536,
      "velocity": 0.71,
      "hand": "left"
    },
    {
      "midi": 62,
      "time": 63.75,
      "duration": 0.536,
      "velocity": 0.71,
      "hand": "right"
    },
    {
      "midi": 52,
      "time": 64.286,
      "duration": 0.536,
      "velocity": 0.71,
      "hand": "left"
    },
    {
      "midi": 56,
      "time": 64.286,
      "duration": 0.536,
      "velocity": 0.71,
      "hand": "left"
    },
    {
      "midi": 62,
      "time": 64.286,
      "duration": 0.536,
      "velocity": 0.71,
      "hand": "right"
    },
    {
      "midi": 72,
      "time": 64.286,
      "duration": 1.071,
      "velocity": 0.71,
      "hand": "right"
    },
    {
      "midi": 52,
      "time": 64.821,
      "duration": 0.536,
      "velocity": 0.71,
      "hand": "left"
    },
    {
      "midi": 56,
      "time": 64.821,
      "duration": 0.536,
      "velocity": 0.71,
      "hand": "left"
    },
    {
      "midi": 62,
      "time": 64.821,
      "duration": 0.536,
      "velocity": 0.71,
      "hand": "right"
    },
    {
      "midi": 52,
      "time": 65.357,
      "duration": 0.536,
      "velocity": 0.71,
      "hand": "left"
    },
    {
      "midi": 55,
      "time": 65.357,
      "duration": 0.536,
      "velocity": 0.71,
      "hand": "left"
    },
    {
      "midi": 62,
      "time": 65.357,
      "duration": 0.536,
      "velocity": 0.71,
      "hand": "right"
    },
    {
      "midi": 71,
      "time": 65.357,
      "duration": 0.804,
      "velocity": 0.71,
      "hand": "right"
    },
    {
      "midi": 52,
      "time": 65.893,
      "duration": 0.536,
      "velocity": 0.71,
      "hand": "left"
    },
    {
      "midi": 55,
      "time": 65.893,
      "duration": 0.536,
      "velocity": 0.71,
      "hand": "left"
    },
    {
      "midi": 62,
      "time": 65.893,
      "duration": 0.536,
      "velocity": 0.71,
      "hand": "right"
    },
    {
      "midi": 70,
      "time": 66.161,
      "duration": 0.268,
      "velocity": 0.71,
      "hand": "right"
    },
    {
      "midi": 52,
      "time": 66.429,
      "duration": 0.536,
      "velocity": 0.71,
      "hand": "left"
    },
    {
      "midi": 55,
      "time": 66.429,
      "duration": 0.536,
      "velocity": 0.71,
      "hand": "left"
    },
    {
      "midi": 61,
      "time": 66.429,
      "duration": 0.536,
      "velocity": 0.71,
      "hand": "right"
    },
    {
      "midi": 70,
      "time": 66.429,
      "duration": 1.071,
      "velocity": 0.71,
      "hand": "right"
    },
    {
      "midi": 52,
      "time": 66.964,
      "duration": 0.536,
      "velocity": 0.71,
      "hand": "left"
    },
    {
      "midi": 55,
      "time": 66.964,
      "duration": 0.536,
      "velocity": 0.71,
      "hand": "left"
    },
    {
      "midi": 61,
      "time": 66.964,
      "duration": 0.536,
      "velocity": 0.71,
      "hand": "right"
    },
    {
      "midi": 49,
      "time": 67.5,
      "duration": 0.536,
      "velocity": 0.71,
      "hand": "left"
    },
    {
      "midi": 52,
      "time": 67.5,
      "duration": 0.536,
      "velocity": 0.71,
      "hand": "left"
    },
    {
      "midi": 58,
      "time": 67.5,
      "duration": 0.536,
      "velocity": 0.71,
      "hand": "left"
    },
    {
      "midi": 81,
      "time": 67.5,
      "duration": 1.071,
      "velocity": 0.71,
      "hand": "right"
    },
    {
      "midi": 49,
      "time": 68.036,
      "duration": 0.536,
      "velocity": 0.71,
      "hand": "left"
    },
    {
      "midi": 52,
      "time": 68.036,
      "duration": 0.536,
      "velocity": 0.71,
      "hand": "left"
    },
    {
      "midi": 58,
      "time": 68.036,
      "duration": 0.536,
      "velocity": 0.71,
      "hand": "left"
    },
    {
      "midi": 48,
      "time": 68.571,
      "duration": 0.536,
      "velocity": 0.71,
      "hand": "left"
    },
    {
      "midi": 52,
      "time": 68.571,
      "duration": 0.536,
      "velocity": 0.71,
      "hand": "left"
    },
    {
      "midi": 57,
      "time": 68.571,
      "duration": 0.536,
      "velocity": 0.71,
      "hand": "left"
    },
    {
      "midi": 78,
      "time": 68.571,
      "duration": 0.804,
      "velocity": 0.71,
      "hand": "right"
    },
    {
      "midi": 48,
      "time": 69.107,
      "duration": 0.536,
      "velocity": 0.71,
      "hand": "left"
    },
    {
      "midi": 52,
      "time": 69.107,
      "duration": 0.536,
      "velocity": 0.71,
      "hand": "left"
    },
    {
      "midi": 57,
      "time": 69.107,
      "duration": 0.536,
      "velocity": 0.71,
      "hand": "left"
    },
    {
      "midi": 76,
      "time": 69.375,
      "duration": 0.268,
      "velocity": 0.71,
      "hand": "right"
    },
    {
      "midi": 35,
      "time": 69.643,
      "duration": 0.536,
      "velocity": 0.71,
      "hand": "left"
    },
    {
      "midi": 47,
      "time": 69.643,
      "duration": 0.536,
      "velocity": 0.71,
      "hand": "left"
    },
    {
      "midi": 76,
      "time": 69.643,
      "duration": 0.536,
      "velocity": 0.71,
      "hand": "right"
    },
    {
      "midi": 57,
      "time": 70.179,
      "duration": 0.536,
      "velocity": 0.71,
      "hand": "left"
    },
    {
      "midi": 60,
      "time": 70.179,
      "duration": 0.536,
      "velocity": 0.71,
      "hand": "right"
    },
    {
      "midi": 66,
      "time": 70.179,
      "duration": 0.536,
      "velocity": 0.71,
      "hand": "right"
    },
    {
      "midi": 69,
      "time": 70.179,
      "duration": 0.536,
      "velocity": 0.71,
      "hand": "right"
    },
    {
      "midi": 75,
      "time": 70.179,
      "duration": 0.536,
      "velocity": 0.71,
      "hand": "right"
    },
    {
      "midi": 57,
      "time": 70.714,
      "duration": 0.536,
      "velocity": 0.71,
      "hand": "left"
    },
    {
      "midi": 60,
      "time": 70.714,
      "duration": 0.536,
      "velocity": 0.71,
      "hand": "right"
    },
    {
      "midi": 66,
      "time": 70.714,
      "duration": 0.536,
      "velocity": 0.71,
      "hand": "right"
    },
    {
      "midi": 69,
      "time": 70.714,
      "duration": 0.536,
      "velocity": 0.71,
      "hand": "right"
    },
    {
      "midi": 84,
      "time": 70.714,
      "duration": 0.536,
      "velocity": 0.71,
      "hand": "right"
    },
    {
      "midi": 57,
      "time": 71.25,
      "duration": 0.536,
      "velocity": 0.71,
      "hand": "left"
    },
    {
      "midi": 60,
      "time": 71.25,
      "duration": 0.536,
      "velocity": 0.71,
      "hand": "right"
    },
    {
      "midi": 66,
      "time": 71.25,
      "duration": 0.536,
      "velocity": 0.71,
      "hand": "right"
    },
    {
      "midi": 69,
      "time": 71.25,
      "duration": 0.536,
      "velocity": 0.71,
      "hand": "right"
    },
    {
      "midi": 75,
      "time": 71.25,
      "duration": 0.536,
      "velocity": 0.71,
      "hand": "right"
    },
    {
      "midi": 55,
      "time": 71.786,
      "duration": 0.536,
      "velocity": 0.71,
      "hand": "left"
    },
    {
      "midi": 59,
      "time": 71.786,
      "duration": 0.536,
      "velocity": 0.71,
      "hand": "left"
    },
    {
      "midi": 63,
      "time": 71.786,
      "duration": 0.536,
      "velocity": 0.71,
      "hand": "right"
    },
    {
      "midi": 66,
      "time": 71.786,
      "duration": 0.536,
      "velocity": 0.71,
      "hand": "right"
    },
    {
      "midi": 75,
      "time": 71.786,
      "duration": 0.536,
      "velocity": 0.71,
      "hand": "right"
    },
    {
      "midi": 55,
      "time": 72.321,
      "duration": 0.536,
      "velocity": 0.71,
      "hand": "left"
    },
    {
      "midi": 59,
      "time": 72.321,
      "duration": 0.536,
      "velocity": 0.71,
      "hand": "left"
    },
    {
      "midi": 64,
      "time": 72.321,
      "duration": 0.536,
      "velocity": 0.71,
      "hand": "right"
    },
    {
      "midi": 76,
      "time": 72.321,
      "duration": 0.536,
      "velocity": 0.71,
      "hand": "right"
    },
    {
      "midi": 55,
      "time": 72.857,
      "duration": 0.536,
      "velocity": 0.71,
      "hand": "left"
    },
    {
      "midi": 59,
      "time": 72.857,
      "duration": 0.536,
      "velocity": 0.71,
      "hand": "left"
    },
    {
      "midi": 64,
      "time": 72.857,
      "duration": 0.536,
      "velocity": 0.71,
      "hand": "right"
    },
    {
      "midi": 79,
      "time": 72.857,
      "duration": 0.536,
      "velocity": 0.71,
      "hand": "right"
    },
    {
      "midi": 55,
      "time": 73.393,
      "duration": 0.536,
      "velocity": 0.71,
      "hand": "left"
    },
    {
      "midi": 59,
      "time": 73.393,
      "duration": 0.536,
      "velocity": 0.71,
      "hand": "left"
    },
    {
      "midi": 64,
      "time": 73.393,
      "duration": 0.536,
      "velocity": 0.71,
      "hand": "right"
    },
    {
      "midi": 71,
      "time": 73.393,
      "duration": 0.536,
      "velocity": 0.71,
      "hand": "right"
    },
    {
      "midi": 57,
      "time": 73.929,
      "duration": 0.536,
      "velocity": 0.71,
      "hand": "left"
    },
    {
      "midi": 60,
      "time": 73.929,
      "duration": 0.536,
      "velocity": 0.71,
      "hand": "right"
    },
    {
      "midi": 64,
      "time": 73.929,
      "duration": 0.536,
      "velocity": 0.71,
      "hand": "right"
    },
    {
      "midi": 74,
      "time": 73.929,
      "duration": 0.536,
      "velocity": 0.71,
      "hand": "right"
    },
    {
      "midi": 57,
      "time": 74.464,
      "duration": 0.536,
      "velocity": 0.71,
      "hand": "left"
    },
    {
      "midi": 60,
      "time": 74.464,
      "duration": 0.536,
      "velocity": 0.71,
      "hand": "right"
    },
    {
      "midi": 64,
      "time": 74.464,
      "duration": 0.536,
      "velocity": 0.71,
      "hand": "right"
    },
    {
      "midi": 72,
      "time": 74.464,
      "duration": 0.536,
      "velocity": 0.71,
      "hand": "right"
    },
    {
      "midi": 45,
      "time": 75,
      "duration": 0.536,
      "velocity": 0.71,
      "hand": "left"
    },
    {
      "midi": 76,
      "time": 75,
      "duration": 0.268,
      "velocity": 0.71,
      "hand": "right"
    },
    {
      "midi": 64,
      "time": 75.268,
      "duration": 0.268,
      "velocity": 0.71,
      "hand": "right"
    },
    {
      "midi": 52,
      "time": 75.536,
      "duration": 0.536,
      "velocity": 0.71,
      "hand": "left"
    },
    {
      "midi": 54,
      "time": 75.536,
      "duration": 0.536,
      "velocity": 0.71,
      "hand": "left"
    },
    {
      "midi": 60,
      "time": 75.536,
      "duration": 0.536,
      "velocity": 0.71,
      "hand": "right"
    },
    {
      "midi": 69,
      "time": 75.804,
      "duration": 0.268,
      "velocity": 0.71,
      "hand": "right"
    },
    {
      "midi": 47,
      "time": 76.071,
      "duration": 0.536,
      "velocity": 0.71,
      "hand": "left"
    },
    {
      "midi": 52,
      "time": 76.071,
      "duration": 0.536,
      "velocity": 0.71,
      "hand": "left"
    },
    {
      "midi": 59,
      "time": 76.071,
      "duration": 0.536,
      "velocity": 0.71,
      "hand": "left"
    },
    {
      "midi": 66,
      "time": 76.071,
      "duration": 1.607,
      "velocity": 0.71,
      "hand": "right"
    },
    {
      "midi": 47,
      "time": 76.607,
      "duration": 0.536,
      "velocity": 0.71,
      "hand": "left"
    },
    {
      "midi": 52,
      "time": 76.607,
      "duration": 0.536,
      "velocity": 0.71,
      "hand": "left"
    },
    {
      "midi": 59,
      "time": 76.607,
      "duration": 0.536,
      "velocity": 0.71,
      "hand": "left"
    },
    {
      "midi": 48,
      "time": 77.143,
      "duration": 0.536,
      "velocity": 0.71,
      "hand": "left"
    },
    {
      "midi": 52,
      "time": 77.143,
      "duration": 0.536,
      "velocity": 0.71,
      "hand": "left"
    },
    {
      "midi": 57,
      "time": 77.143,
      "duration": 0.536,
      "velocity": 0.71,
      "hand": "left"
    },
    {
      "midi": 48,
      "time": 77.679,
      "duration": 0.536,
      "velocity": 0.71,
      "hand": "left"
    },
    {
      "midi": 52,
      "time": 77.679,
      "duration": 0.536,
      "velocity": 0.71,
      "hand": "left"
    },
    {
      "midi": 57,
      "time": 77.679,
      "duration": 0.536,
      "velocity": 0.71,
      "hand": "left"
    },
    {
      "midi": 69,
      "time": 77.679,
      "duration": 0.536,
      "velocity": 0.71,
      "hand": "right"
    },
    {
      "midi": 47,
      "time": 78.214,
      "duration": 0.536,
      "velocity": 0.71,
      "hand": "left"
    },
    {
      "midi": 52,
      "time": 78.214,
      "duration": 0.536,
      "velocity": 0.71,
      "hand": "left"
    },
    {
      "midi": 59,
      "time": 78.214,
      "duration": 0.536,
      "velocity": 0.71,
      "hand": "left"
    },
    {
      "midi": 66,
      "time": 78.214,
      "duration": 3.214,
      "velocity": 0.71,
      "hand": "right"
    },
    {
      "midi": 47,
      "time": 78.75,
      "duration": 0.536,
      "velocity": 0.71,
      "hand": "left"
    },
    {
      "midi": 52,
      "time": 78.75,
      "duration": 0.536,
      "velocity": 0.71,
      "hand": "left"
    },
    {
      "midi": 59,
      "time": 78.75,
      "duration": 0.536,
      "velocity": 0.71,
      "hand": "left"
    },
    {
      "midi": 47,
      "time": 79.286,
      "duration": 0.536,
      "velocity": 0.71,
      "hand": "left"
    },
    {
      "midi": 52,
      "time": 79.286,
      "duration": 0.536,
      "velocity": 0.71,
      "hand": "left"
    },
    {
      "midi": 59,
      "time": 79.286,
      "duration": 0.536,
      "velocity": 0.71,
      "hand": "left"
    },
    {
      "midi": 47,
      "time": 79.821,
      "duration": 0.536,
      "velocity": 0.71,
      "hand": "left"
    },
    {
      "midi": 52,
      "time": 79.821,
      "duration": 0.536,
      "velocity": 0.71,
      "hand": "left"
    },
    {
      "midi": 59,
      "time": 79.821,
      "duration": 0.536,
      "velocity": 0.71,
      "hand": "left"
    },
    {
      "midi": 48,
      "time": 80.357,
      "duration": 0.536,
      "velocity": 0.71,
      "hand": "left"
    },
    {
      "midi": 52,
      "time": 80.357,
      "duration": 0.536,
      "velocity": 0.71,
      "hand": "left"
    },
    {
      "midi": 57,
      "time": 80.357,
      "duration": 0.536,
      "velocity": 0.71,
      "hand": "left"
    },
    {
      "midi": 48,
      "time": 80.893,
      "duration": 0.536,
      "velocity": 0.71,
      "hand": "left"
    },
    {
      "midi": 52,
      "time": 80.893,
      "duration": 0.536,
      "velocity": 0.71,
      "hand": "left"
    },
    {
      "midi": 57,
      "time": 80.893,
      "duration": 0.536,
      "velocity": 0.71,
      "hand": "left"
    },
    {
      "midi": 48,
      "time": 81.429,
      "duration": 0.536,
      "velocity": 0.71,
      "hand": "left"
    },
    {
      "midi": 52,
      "time": 81.429,
      "duration": 0.536,
      "velocity": 0.71,
      "hand": "left"
    },
    {
      "midi": 57,
      "time": 81.429,
      "duration": 0.536,
      "velocity": 0.71,
      "hand": "left"
    },
    {
      "midi": 69,
      "time": 81.429,
      "duration": 1.071,
      "velocity": 0.71,
      "hand": "right"
    },
    {
      "midi": 71,
      "time": 81.429,
      "duration": 0.134,
      "velocity": 0.71,
      "hand": "right"
    },
    {
      "midi": 48,
      "time": 81.964,
      "duration": 0.536,
      "velocity": 0.71,
      "hand": "left"
    },
    {
      "midi": 52,
      "time": 81.964,
      "duration": 0.536,
      "velocity": 0.71,
      "hand": "left"
    },
    {
      "midi": 57,
      "time": 81.964,
      "duration": 0.536,
      "velocity": 0.71,
      "hand": "left"
    },
    {
      "midi": 47,
      "time": 82.5,
      "duration": 0.536,
      "velocity": 0.71,
      "hand": "left"
    },
    {
      "midi": 52,
      "time": 82.5,
      "duration": 0.536,
      "velocity": 0.71,
      "hand": "left"
    },
    {
      "midi": 59,
      "time": 82.5,
      "duration": 0.536,
      "velocity": 0.71,
      "hand": "left"
    },
    {
      "midi": 66,
      "time": 82.5,
      "duration": 4.018,
      "velocity": 0.71,
      "hand": "right"
    },
    {
      "midi": 47,
      "time": 83.036,
      "duration": 0.536,
      "velocity": 0.71,
      "hand": "left"
    },
    {
      "midi": 52,
      "time": 83.036,
      "duration": 0.536,
      "velocity": 0.71,
      "hand": "left"
    },
    {
      "midi": 59,
      "time": 83.036,
      "duration": 0.536,
      "velocity": 0.71,
      "hand": "left"
    },
    {
      "midi": 47,
      "time": 83.571,
      "duration": 0.536,
      "velocity": 0.71,
      "hand": "left"
    },
    {
      "midi": 52,
      "time": 83.571,
      "duration": 0.536,
      "velocity": 0.71,
      "hand": "left"
    },
    {
      "midi": 59,
      "time": 83.571,
      "duration": 0.536,
      "velocity": 0.71,
      "hand": "left"
    },
    {
      "midi": 47,
      "time": 84.107,
      "duration": 0.536,
      "velocity": 0.71,
      "hand": "left"
    },
    {
      "midi": 52,
      "time": 84.107,
      "duration": 0.536,
      "velocity": 0.71,
      "hand": "left"
    },
    {
      "midi": 59,
      "time": 84.107,
      "duration": 0.536,
      "velocity": 0.71,
      "hand": "left"
    },
    {
      "midi": 47,
      "time": 84.643,
      "duration": 0.536,
      "velocity": 0.71,
      "hand": "left"
    },
    {
      "midi": 51,
      "time": 84.643,
      "duration": 0.536,
      "velocity": 0.71,
      "hand": "left"
    },
    {
      "midi": 59,
      "time": 84.643,
      "duration": 0.536,
      "velocity": 0.71,
      "hand": "left"
    },
    {
      "midi": 47,
      "time": 85.179,
      "duration": 0.536,
      "velocity": 0.71,
      "hand": "left"
    },
    {
      "midi": 51,
      "time": 85.179,
      "duration": 0.536,
      "velocity": 0.71,
      "hand": "left"
    },
    {
      "midi": 59,
      "time": 85.179,
      "duration": 0.536,
      "velocity": 0.71,
      "hand": "left"
    },
    {
      "midi": 47,
      "time": 85.714,
      "duration": 0.536,
      "velocity": 0.71,
      "hand": "left"
    },
    {
      "midi": 51,
      "time": 85.714,
      "duration": 0.536,
      "velocity": 0.71,
      "hand": "left"
    },
    {
      "midi": 57,
      "time": 85.714,
      "duration": 0.536,
      "velocity": 0.71,
      "hand": "left"
    },
    {
      "midi": 47,
      "time": 86.25,
      "duration": 0.536,
      "velocity": 0.71,
      "hand": "left"
    },
    {
      "midi": 51,
      "time": 86.25,
      "duration": 0.536,
      "velocity": 0.71,
      "hand": "left"
    },
    {
      "midi": 57,
      "time": 86.25,
      "duration": 0.536,
      "velocity": 0.71,
      "hand": "left"
    },
    {
      "midi": 64,
      "time": 86.518,
      "duration": 0.268,
      "velocity": 0.71,
      "hand": "right"
    },
    {
      "midi": 48,
      "time": 86.786,
      "duration": 0.536,
      "velocity": 0.71,
      "hand": "left"
    },
    {
      "midi": 55,
      "time": 86.786,
      "duration": 0.536,
      "velocity": 0.71,
      "hand": "left"
    },
    {
      "midi": 64,
      "time": 86.786,
      "duration": 3.214,
      "velocity": 0.71,
      "hand": "right"
    },
    {
      "midi": 48,
      "time": 87.321,
      "duration": 0.536,
      "velocity": 0.71,
      "hand": "left"
    },
    {
      "midi": 55,
      "time": 87.321,
      "duration": 0.536,
      "velocity": 0.71,
      "hand": "left"
    },
    {
      "midi": 48,
      "time": 87.857,
      "duration": 0.536,
      "velocity": 0.71,
      "hand": "left"
    },
    {
      "midi": 55,
      "time": 87.857,
      "duration": 0.536,
      "velocity": 0.71,
      "hand": "left"
    },
    {
      "midi": 48,
      "time": 88.393,
      "duration": 0.536,
      "velocity": 0.71,
      "hand": "left"
    },
    {
      "midi": 55,
      "time": 88.393,
      "duration": 0.536,
      "velocity": 0.71,
      "hand": "left"
    },
    {
      "midi": 48,
      "time": 88.929,
      "duration": 0.536,
      "velocity": 0.71,
      "hand": "left"
    },
    {
      "midi": 58,
      "time": 88.929,
      "duration": 0.536,
      "velocity": 0.71,
      "hand": "left"
    },
    {
      "midi": 48,
      "time": 89.464,
      "duration": 0.536,
      "velocity": 0.71,
      "hand": "left"
    },
    {
      "midi": 58,
      "time": 89.464,
      "duration": 0.536,
      "velocity": 0.71,
      "hand": "left"
    },
    {
      "midi": 48,
      "time": 90,
      "duration": 0.536,
      "velocity": 0.71,
      "hand": "left"
    },
    {
      "midi": 52,
      "time": 90,
      "duration": 0.536,
      "velocity": 0.71,
      "hand": "left"
    },
    {
      "midi": 57,
      "time": 90,
      "duration": 0.536,
      "velocity": 0.71,
      "hand": "left"
    },
    {
      "midi": 66,
      "time": 90,
      "duration": 1.071,
      "velocity": 0.71,
      "hand": "right"
    },
    {
      "midi": 48,
      "time": 90.536,
      "duration": 0.536,
      "velocity": 0.71,
      "hand": "left"
    },
    {
      "midi": 52,
      "time": 90.536,
      "duration": 0.536,
      "velocity": 0.71,
      "hand": "left"
    },
    {
      "midi": 57,
      "time": 90.536,
      "duration": 0.536,
      "velocity": 0.71,
      "hand": "left"
    },
    {
      "midi": 47,
      "time": 91.071,
      "duration": 0.536,
      "velocity": 0.71,
      "hand": "left"
    },
    {
      "midi": 52,
      "time": 91.071,
      "duration": 0.536,
      "velocity": 0.71,
      "hand": "left"
    },
    {
      "midi": 57,
      "time": 91.071,
      "duration": 0.536,
      "velocity": 0.71,
      "hand": "left"
    },
    {
      "midi": 64,
      "time": 91.071,
      "duration": 3.214,
      "velocity": 0.71,
      "hand": "right"
    },
    {
      "midi": 47,
      "time": 91.607,
      "duration": 0.536,
      "velocity": 0.71,
      "hand": "left"
    },
    {
      "midi": 52,
      "time": 91.607,
      "duration": 0.536,
      "velocity": 0.71,
      "hand": "left"
    },
    {
      "midi": 57,
      "time": 91.607,
      "duration": 0.536,
      "velocity": 0.71,
      "hand": "left"
    },
    {
      "midi": 47,
      "time": 92.143,
      "duration": 0.536,
      "velocity": 0.71,
      "hand": "left"
    },
    {
      "midi": 52,
      "time": 92.143,
      "duration": 0.536,
      "velocity": 0.71,
      "hand": "left"
    },
    {
      "midi": 56,
      "time": 92.143,
      "duration": 0.536,
      "velocity": 0.71,
      "hand": "left"
    },
    {
      "midi": 47,
      "time": 92.679,
      "duration": 0.536,
      "velocity": 0.71,
      "hand": "left"
    },
    {
      "midi": 52,
      "time": 92.679,
      "duration": 0.536,
      "velocity": 0.71,
      "hand": "left"
    },
    {
      "midi": 56,
      "time": 92.679,
      "duration": 0.536,
      "velocity": 0.71,
      "hand": "left"
    },
    {
      "midi": 47,
      "time": 93.214,
      "duration": 0.536,
      "velocity": 0.71,
      "hand": "left"
    },
    {
      "midi": 52,
      "time": 93.214,
      "duration": 0.536,
      "velocity": 0.71,
      "hand": "left"
    },
    {
      "midi": 55,
      "time": 93.214,
      "duration": 0.536,
      "velocity": 0.71,
      "hand": "left"
    },
    {
      "midi": 47,
      "time": 93.75,
      "duration": 0.536,
      "velocity": 0.71,
      "hand": "left"
    },
    {
      "midi": 52,
      "time": 93.75,
      "duration": 0.536,
      "velocity": 0.71,
      "hand": "left"
    },
    {
      "midi": 55,
      "time": 93.75,
      "duration": 0.536,
      "velocity": 0.71,
      "hand": "left"
    },
    {
      "midi": 47,
      "time": 94.286,
      "duration": 0.536,
      "velocity": 0.71,
      "hand": "left"
    },
    {
      "midi": 52,
      "time": 94.286,
      "duration": 0.536,
      "velocity": 0.71,
      "hand": "left"
    },
    {
      "midi": 55,
      "time": 94.286,
      "duration": 0.536,
      "velocity": 0.71,
      "hand": "left"
    },
    {
      "midi": 66,
      "time": 94.286,
      "duration": 1.071,
      "velocity": 0.71,
      "hand": "right"
    },
    {
      "midi": 47,
      "time": 94.821,
      "duration": 0.536,
      "velocity": 0.71,
      "hand": "left"
    },
    {
      "midi": 52,
      "time": 94.821,
      "duration": 0.536,
      "velocity": 0.71,
      "hand": "left"
    },
    {
      "midi": 55,
      "time": 94.821,
      "duration": 0.536,
      "velocity": 0.71,
      "hand": "left"
    },
    {
      "midi": 46,
      "time": 95.357,
      "duration": 2.143,
      "velocity": 0.71,
      "hand": "left"
    },
    {
      "midi": 48,
      "time": 95.357,
      "duration": 2.143,
      "velocity": 0.71,
      "hand": "left"
    },
    {
      "midi": 55,
      "time": 95.357,
      "duration": 2.143,
      "velocity": 0.71,
      "hand": "left"
    },
    {
      "midi": 64,
      "time": 95.357,
      "duration": 2.143,
      "velocity": 0.71,
      "hand": "right"
    },
    {
      "midi": 35,
      "time": 99.643,
      "duration": 2.143,
      "velocity": 0.71,
      "hand": "left"
    },
    {
      "midi": 47,
      "time": 99.643,
      "duration": 2.143,
      "velocity": 0.71,
      "hand": "left"
    },
    {
      "midi": 52,
      "time": 99.643,
      "duration": 2.143,
      "velocity": 0.71,
      "hand": "left"
    },
    {
      "midi": 54,
      "time": 99.643,
      "duration": 2.143,
      "velocity": 0.71,
      "hand": "left"
    },
    {
      "midi": 59,
      "time": 99.643,
      "duration": 2.143,
      "velocity": 0.71,
      "hand": "left"
    },
    {
      "midi": 64,
      "time": 99.643,
      "duration": 2.143,
      "velocity": 0.71,
      "hand": "right"
    },
    {
      "midi": 35,
      "time": 101.786,
      "duration": 2.143,
      "velocity": 0.71,
      "hand": "left"
    },
    {
      "midi": 42,
      "time": 101.786,
      "duration": 2.143,
      "velocity": 0.71,
      "hand": "left"
    },
    {
      "midi": 47,
      "time": 101.786,
      "duration": 2.143,
      "velocity": 0.71,
      "hand": "left"
    },
    {
      "midi": 51,
      "time": 101.786,
      "duration": 2.143,
      "velocity": 0.71,
      "hand": "left"
    },
    {
      "midi": 54,
      "time": 101.786,
      "duration": 2.143,
      "velocity": 0.71,
      "hand": "left"
    },
    {
      "midi": 59,
      "time": 101.786,
      "duration": 2.143,
      "velocity": 0.71,
      "hand": "left"
    },
    {
      "midi": 63,
      "time": 101.786,
      "duration": 2.143,
      "velocity": 0.71,
      "hand": "right"
    },
    {
      "midi": 28,
      "time": 103.929,
      "duration": 4.286,
      "velocity": 0.71,
      "hand": "left"
    },
    {
      "midi": 40,
      "time": 103.929,
      "duration": 4.286,
      "velocity": 0.71,
      "hand": "left"
    },
    {
      "midi": 52,
      "time": 103.929,
      "duration": 4.286,
      "velocity": 0.71,
      "hand": "left"
    },
    {
      "midi": 55,
      "time": 103.929,
      "duration": 4.286,
      "velocity": 0.71,
      "hand": "left"
    },
    {
      "midi": 59,
      "time": 103.929,
      "duration": 4.286,
      "velocity": 0.71,
      "hand": "left"
    },
    {
      "midi": 64,
      "time": 103.929,
      "duration": 4.286,
      "velocity": 0.71,
      "hand": "right"
    }
  ],
  "arrangements": {
    "easy": [
      {
        "midi": 71,
        "time": 0.804,
        "duration": 0.536,
        "velocity": 0.71,
        "hand": "right"
      },
      {
        "midi": 64,
        "time": 1.607,
        "duration": 0.536,
        "velocity": 0.71,
        "hand": "right"
      },
      {
        "midi": 64,
        "time": 2.679,
        "duration": 0.536,
        "velocity": 0.71,
        "hand": "right"
      },
      {
        "midi": 64,
        "time": 3.75,
        "duration": 0.536,
        "velocity": 0.71,
        "hand": "right"
      },
      {
        "midi": 72,
        "time": 4.286,
        "duration": 1.071,
        "velocity": 0.71,
        "hand": "right"
      },
      {
        "midi": 71,
        "time": 5.357,
        "duration": 3.214,
        "velocity": 0.71,
        "hand": "right"
      },
      {
        "midi": 64,
        "time": 5.893,
        "duration": 0.536,
        "velocity": 0.71,
        "hand": "right"
      },
      {
        "midi": 63,
        "time": 7.5,
        "duration": 0.536,
        "velocity": 0.71,
        "hand": "right"
      },
      {
        "midi": 63,
        "time": 9.107,
        "duration": 0.536,
        "velocity": 0.71,
        "hand": "right"
      },
      {
        "midi": 71,
        "time": 9.643,
        "duration": 3.214,
        "velocity": 0.71,
        "hand": "right"
      },
      {
        "midi": 63,
        "time": 10.179,
        "duration": 0.536,
        "velocity": 0.71,
        "hand": "right"
      },
      {
        "midi": 63,
        "time": 11.25,
        "duration": 0.536,
        "velocity": 0.71,
        "hand": "right"
      },
      {
        "midi": 62,
        "time": 11.786,
        "duration": 0.536,
        "velocity": 0.71,
        "hand": "right"
      },
      {
        "midi": 72,
        "time": 12.857,
        "duration": 1.071,
        "velocity": 0.71,
        "hand": "right"
      },
      {
        "midi": 62,
        "time": 13.393,
        "duration": 0.536,
        "velocity": 0.71,
        "hand": "right"
      },
      {
        "midi": 71,
        "time": 13.929,
        "duration": 3.214,
        "velocity": 0.71,
        "hand": "right"
      },
      {
        "midi": 62,
        "time": 15,
        "duration": 0.536,
        "velocity": 0.71,
        "hand": "right"
      },
      {
        "midi": 62,
        "time": 16.607,
        "duration": 0.536,
        "velocity": 0.71,
        "hand": "right"
      },
      {
        "midi": 70,
        "time": 17.143,
        "duration": 1.071,
        "velocity": 0.71,
        "hand": "right"
      },
      {
        "midi": 61,
        "time": 17.679,
        "duration": 0.536,
        "velocity": 0.71,
        "hand": "right"
      },
      {
        "midi": 60,
        "time": 18.75,
        "duration": 0.536,
        "velocity": 0.71,
        "hand": "right"
      },
      {
        "midi": 60,
        "time": 20.357,
        "duration": 0.536,
        "velocity": 0.71,
        "hand": "right"
      },
      {
        "midi": 71,
        "time": 21.429,
        "duration": 1.071,
        "velocity": 0.71,
        "hand": "right"
      },
      {
        "midi": 69,
        "time": 22.5,
        "duration": 3.214,
        "velocity": 0.71,
        "hand": "right"
      },
      {
        "midi": 60,
        "time": 23.036,
        "duration": 0.536,
        "velocity": 0.71,
        "hand": "right"
      },
      {
        "midi": 60,
        "time": 24.107,
        "duration": 0.536,
        "velocity": 0.71,
        "hand": "right"
      },
      {
        "midi": 60,
        "time": 25.179,
        "duration": 0.536,
        "velocity": 0.71,
        "hand": "right"
      },
      {
        "midi": 60,
        "time": 26.25,
        "duration": 0.536,
        "velocity": 0.71,
        "hand": "right"
      },
      {
        "midi": 69,
        "time": 26.786,
        "duration": 3.214,
        "velocity": 0.71,
        "hand": "right"
      },
      {
        "midi": 60,
        "time": 27.857,
        "duration": 0.536,
        "velocity": 0.71,
        "hand": "right"
      },
      {
        "midi": 60,
        "time": 28.929,
        "duration": 0.536,
        "velocity": 0.71,
        "hand": "right"
      },
      {
        "midi": 71,
        "time": 30,
        "duration": 0.804,
        "velocity": 0.71,
        "hand": "right"
      },
      {
        "midi": 60,
        "time": 30.536,
        "duration": 0.536,
        "velocity": 0.71,
        "hand": "right"
      },
      {
        "midi": 60,
        "time": 31.607,
        "duration": 0.536,
        "velocity": 0.71,
        "hand": "right"
      },
      {
        "midi": 60,
        "time": 32.679,
        "duration": 0.536,
        "velocity": 0.71,
        "hand": "right"
      },
      {
        "midi": 68,
        "time": 34.286,
        "duration": 2.143,
        "velocity": 0.71,
        "hand": "right"
      },
      {
        "midi": 69,
        "time": 36.429,
        "duration": 0.536,
        "velocity": 0.71,
        "hand": "right"
      },
      {
        "midi": 74,
        "time": 37.5,
        "duration": 0.536,
        "velocity": 0.71,
        "hand": "right"
      },
      {
        "midi": 72,
        "time": 38.036,
        "duration": 0.536,
        "velocity": 0.71,
        "hand": "right"
      },
      {
        "midi": 69,
        "time": 39.107,
        "duration": 0.536,
        "velocity": 0.71,
        "hand": "right"
      },
      {
        "midi": 66,
        "time": 39.643,
        "duration": 3.214,
        "velocity": 0.71,
        "hand": "right"
      },
      {
        "midi": 69,
        "time": 42.857,
        "duration": 1.071,
        "velocity": 0.71,
        "hand": "right"
      },
      {
        "midi": 66,
        "time": 43.929,
        "duration": 3.214,
        "velocity": 0.71,
        "hand": "right"
      },
      {
        "midi": 69,
        "time": 47.143,
        "duration": 1.071,
        "velocity": 0.71,
        "hand": "right"
      },
      {
        "midi": 67,
        "time": 48.214,
        "duration": 0.536,
        "velocity": 0.71,
        "hand": "right"
      },
      {
        "midi": 66,
        "time": 48.75,
        "duration": 0.536,
        "velocity": 0.71,
        "hand": "right"
      },
      {
        "midi": 60,
        "time": 49.286,
        "duration": 0.536,
        "velocity": 0.71,
        "hand": "right"
      },
      {
        "midi": 63,
        "time": 50.357,
        "duration": 0.536,
        "velocity": 0.71,
        "hand": "right"
      },
      {
        "midi": 66,
        "time": 50.893,
        "duration": 0.536,
        "velocity": 0.71,
        "hand": "right"
      },
      {
        "midi": 74,
        "time": 51.429,
        "duration": 0.536,
        "velocity": 0.71,
        "hand": "right"
      },
      {
        "midi": 71,
        "time": 52.232,
        "duration": 0.536,
        "velocity": 0.71,
        "hand": "right"
      },
      {
        "midi": 64,
        "time": 53.036,
        "duration": 0.536,
        "velocity": 0.71,
        "hand": "right"
      },
      {
        "midi": 64,
        "time": 54.107,
        "duration": 0.536,
        "velocity": 0.71,
        "hand": "right"
      },
      {
        "midi": 64,
        "time": 55.179,
        "duration": 0.536,
        "velocity": 0.71,
        "hand": "right"
      },
      {
        "midi": 64,
        "time": 56.25,
        "duration": 0.536,
        "velocity": 0.71,
        "hand": "right"
      },
      {
        "midi": 71,
        "time": 56.786,
        "duration": 3.214,
        "velocity": 0.71,
        "hand": "right"
      },
      {
        "midi": 64,
        "time": 57.857,
        "duration": 0.536,
        "velocity": 0.71,
        "hand": "right"
      },
      {
        "midi": 63,
        "time": 58.929,
        "duration": 0.536,
        "velocity": 0.71,
        "hand": "right"
      },
      {
        "midi": 72,
        "time": 60,
        "duration": 1.071,
        "velocity": 0.71,
        "hand": "right"
      },
      {
        "midi": 63,
        "time": 60.536,
        "duration": 0.536,
        "velocity": 0.71,
        "hand": "right"
      },
      {
        "midi": 63,
        "time": 61.607,
        "duration": 0.536,
        "velocity": 0.71,
        "hand": "right"
      },
      {
        "midi": 62,
        "time": 62.143,
        "duration": 0.536,
        "velocity": 0.71,
        "hand": "right"
      },
      {
        "midi": 62,
        "time": 63.75,
        "duration": 0.536,
        "velocity": 0.71,
        "hand": "right"
      },
      {
        "midi": 72,
        "time": 64.286,
        "duration": 1.071,
        "velocity": 0.71,
        "hand": "right"
      },
      {
        "midi": 71,
        "time": 65.357,
        "duration": 0.804,
        "velocity": 0.71,
        "hand": "right"
      },
      {
        "midi": 62,
        "time": 65.893,
        "duration": 0.536,
        "velocity": 0.71,
        "hand": "right"
      },
      {
        "midi": 70,
        "time": 66.429,
        "duration": 1.071,
        "velocity": 0.71,
        "hand": "right"
      },
      {
        "midi": 81,
        "time": 67.5,
        "duration": 1.071,
        "velocity": 0.71,
        "hand": "right"
      },
      {
        "midi": 78,
        "time": 68.571,
        "duration": 0.804,
        "velocity": 0.71,
        "hand": "right"
      },
      {
        "midi": 76,
        "time": 69.375,
        "duration": 0.536,
        "velocity": 0.71,
        "hand": "right"
      },
      {
        "midi": 75,
        "time": 70.179,
        "duration": 0.536,
        "velocity": 0.71,
        "hand": "right"
      },
      {
        "midi": 75,
        "time": 71.25,
        "duration": 0.536,
        "velocity": 0.71,
        "hand": "right"
      },
      {
        "midi": 79,
        "time": 72.857,
        "duration": 0.536,
        "velocity": 0.71,
        "hand": "right"
      },
      {
        "midi": 71,
        "time": 73.393,
        "duration": 0.536,
        "velocity": 0.71,
        "hand": "right"
      },
      {
        "midi": 74,
        "time": 73.929,
        "duration": 0.536,
        "velocity": 0.71,
        "hand": "right"
      },
      {
        "midi": 76,
        "time": 75,
        "duration": 0.536,
        "velocity": 0.71,
        "hand": "right"
      },
      {
        "midi": 60,
        "time": 75.536,
        "duration": 0.536,
        "velocity": 0.71,
        "hand": "right"
      },
      {
        "midi": 69,
        "time": 77.679,
        "duration": 0.536,
        "velocity": 0.71,
        "hand": "right"
      },
      {
        "midi": 69,
        "time": 81.429,
        "duration": 1.071,
        "velocity": 0.71,
        "hand": "right"
      },
      {
        "midi": 66,
        "time": 82.5,
        "duration": 4.018,
        "velocity": 0.71,
        "hand": "right"
      },
      {
        "midi": 64,
        "time": 86.518,
        "duration": 0.536,
        "velocity": 0.71,
        "hand": "right"
      },
      {
        "midi": 66,
        "time": 90,
        "duration": 1.071,
        "velocity": 0.71,
        "hand": "right"
      },
      {
        "midi": 64,
        "time": 91.071,
        "duration": 3.214,
        "velocity": 0.71,
        "hand": "right"
      },
      {
        "midi": 66,
        "time": 94.286,
        "duration": 1.071,
        "velocity": 0.71,
        "hand": "right"
      },
      {
        "midi": 64,
        "time": 95.357,
        "duration": 2.143,
        "velocity": 0.71,
        "hand": "right"
      },
      {
        "midi": 64,
        "time": 99.643,
        "duration": 2.143,
        "velocity": 0.71,
        "hand": "right"
      },
      {
        "midi": 63,
        "time": 101.786,
        "duration": 2.143,
        "velocity": 0.71,
        "hand": "right"
      },
      {
        "midi": 64,
        "time": 103.929,
        "duration": 4.286,
        "velocity": 0.71,
        "hand": "right"
      }
    ],
    "medium": [
      {
        "midi": 59,
        "time": 0,
        "duration": 0.804,
        "velocity": 0.71,
        "hand": "left"
      },
      {
        "midi": 71,
        "time": 0.804,
        "duration": 0.268,
        "velocity": 0.71,
        "hand": "right"
      },
      {
        "midi": 55,
        "time": 1.071,
        "duration": 0.536,
        "velocity": 0.71,
        "hand": "left"
      },
      {
        "midi": 64,
        "time": 1.071,
        "duration": 0.536,
        "velocity": 0.71,
        "hand": "right"
      },
      {
        "midi": 71,
        "time": 1.071,
        "duration": 3.214,
        "velocity": 0.71,
        "hand": "right"
      },
      {
        "midi": 55,
        "time": 1.607,
        "duration": 0.536,
        "velocity": 0.71,
        "hand": "left"
      },
      {
        "midi": 59,
        "time": 1.607,
        "duration": 0.536,
        "velocity": 0.71,
        "hand": "left"
      },
      {
        "midi": 64,
        "time": 1.607,
        "duration": 0.536,
        "velocity": 0.71,
        "hand": "right"
      },
      {
        "midi": 55,
        "time": 2.143,
        "duration": 0.536,
        "velocity": 0.71,
        "hand": "left"
      },
      {
        "midi": 59,
        "time": 2.143,
        "duration": 0.536,
        "velocity": 0.71,
        "hand": "left"
      },
      {
        "midi": 64,
        "time": 2.143,
        "duration": 0.536,
        "velocity": 0.71,
        "hand": "right"
      },
      {
        "midi": 55,
        "time": 2.679,
        "duration": 0.536,
        "velocity": 0.71,
        "hand": "left"
      },
      {
        "midi": 59,
        "time": 2.679,
        "duration": 0.536,
        "velocity": 0.71,
        "hand": "left"
      },
      {
        "midi": 64,
        "time": 2.679,
        "duration": 0.536,
        "velocity": 0.71,
        "hand": "right"
      },
      {
        "midi": 55,
        "time": 3.214,
        "duration": 0.536,
        "velocity": 0.71,
        "hand": "left"
      },
      {
        "midi": 59,
        "time": 3.214,
        "duration": 0.536,
        "velocity": 0.71,
        "hand": "left"
      },
      {
        "midi": 64,
        "time": 3.214,
        "duration": 0.536,
        "velocity": 0.71,
        "hand": "right"
      },
      {
        "midi": 55,
        "time": 3.75,
        "duration": 0.536,
        "velocity": 0.71,
        "hand": "left"
      },
      {
        "midi": 59,
        "time": 3.75,
        "duration": 0.536,
        "velocity": 0.71,
        "hand": "left"
      },
      {
        "midi": 64,
        "time": 3.75,
        "duration": 0.536,
        "velocity": 0.71,
        "hand": "right"
      },
      {
        "midi": 55,
        "time": 4.286,
        "duration": 0.536,
        "velocity": 0.71,
        "hand": "left"
      },
      {
        "midi": 64,
        "time": 4.286,
        "duration": 0.536,
        "velocity": 0.71,
        "hand": "right"
      },
      {
        "midi": 72,
        "time": 4.286,
        "duration": 1.071,
        "velocity": 0.71,
        "hand": "right"
      },
      {
        "midi": 55,
        "time": 4.821,
        "duration": 0.536,
        "velocity": 0.71,
        "hand": "left"
      },
      {
        "midi": 59,
        "time": 4.821,
        "duration": 0.536,
        "velocity": 0.71,
        "hand": "left"
      },
      {
        "midi": 64,
        "time": 4.821,
        "duration": 0.536,
        "velocity": 0.71,
        "hand": "right"
      },
      {
        "midi": 54,
        "time": 5.357,
        "duration": 0.536,
        "velocity": 0.71,
        "hand": "left"
      },
      {
        "midi": 64,
        "time": 5.357,
        "duration": 0.536,
        "velocity": 0.71,
        "hand": "right"
      },
      {
        "midi": 71,
        "time": 5.357,
        "duration": 3.214,
        "velocity": 0.71,
        "hand": "right"
      },
      {
        "midi": 54,
        "time": 5.893,
        "duration": 0.536,
        "velocity": 0.71,
        "hand": "left"
      },
      {
        "midi": 57,
        "time": 5.893,
        "duration": 0.536,
        "velocity": 0.71,
        "hand": "left"
      },
      {
        "midi": 64,
        "time": 5.893,
        "duration": 0.536,
        "velocity": 0.71,
        "hand": "right"
      },
      {
        "midi": 54,
        "time": 6.429,
        "duration": 0.536,
        "velocity": 0.71,
        "hand": "left"
      },
      {
        "midi": 57,
        "time": 6.429,
        "duration": 0.536,
        "velocity": 0.71,
        "hand": "left"
      },
      {
        "midi": 64,
        "time": 6.429,
        "duration": 0.536,
        "velocity": 0.71,
        "hand": "right"
      },
      {
        "midi": 54,
        "time": 6.964,
        "duration": 0.536,
        "velocity": 0.71,
        "hand": "left"
      },
      {
        "midi": 57,
        "time": 6.964,
        "duration": 0.536,
        "velocity": 0.71,
        "hand": "left"
      },
      {
        "midi": 64,
        "time": 6.964,
        "duration": 0.536,
        "velocity": 0.71,
        "hand": "right"
      },
      {
        "midi": 54,
        "time": 7.5,
        "duration": 0.536,
        "velocity": 0.71,
        "hand": "left"
      },
      {
        "midi": 57,
        "time": 7.5,
        "duration": 0.536,
        "velocity": 0.71,
        "hand": "left"
      },
      {
        "midi": 63,
        "time": 7.5,
        "duration": 0.536,
        "velocity": 0.71,
        "hand": "right"
      },
      {
        "midi": 54,
        "time": 8.036,
        "duration": 0.536,
        "velocity": 0.71,
        "hand": "left"
      },
      {
        "midi": 57,
        "time": 8.036,
        "duration": 0.536,
        "velocity": 0.71,
        "hand": "left"
      },
      {
        "midi": 63,
        "time": 8.036,
        "duration": 0.536,
        "velocity": 0.71,
        "hand": "right"
      },
      {
        "midi": 54,
        "time": 8.571,
        "duration": 0.536,
        "velocity": 0.71,
        "hand": "left"
      },
      {
        "midi": 63,
        "time": 8.571,
        "duration": 0.536,
        "velocity": 0.71,
        "hand": "right"
      },
      {
        "midi": 72,
        "time": 8.571,
        "duration": 1.071,
        "velocity": 0.71,
        "hand": "right"
      },
      {
        "midi": 54,
        "time": 9.107,
        "duration": 0.536,
        "velocity": 0.71,
        "hand": "left"
      },
      {
        "midi": 57,
        "time": 9.107,
        "duration": 0.536,
        "velocity": 0.71,
        "hand": "left"
      },
      {
        "midi": 63,
        "time": 9.107,
        "duration": 0.536,
        "velocity": 0.71,
        "hand": "right"
      },
      {
        "midi": 53,
        "time": 9.643,
        "duration": 0.536,
        "velocity": 0.71,
        "hand": "left"
      },
      {
        "midi": 63,
        "time": 9.643,
        "duration": 0.536,
        "velocity": 0.71,
        "hand": "right"
      },
      {
        "midi": 71,
        "time": 9.643,
        "duration": 3.214,
        "velocity": 0.71,
        "hand": "right"
      },
      {
        "midi": 53,
        "time": 10.179,
        "duration": 0.536,
        "velocity": 0.71,
        "hand": "left"
      },
      {
        "midi": 57,
        "time": 10.179,
        "duration": 0.536,
        "velocity": 0.71,
        "hand": "left"
      },
      {
        "midi": 63,
        "time": 10.179,
        "duration": 0.536,
        "velocity": 0.71,
        "hand": "right"
      },
      {
        "midi": 53,
        "time": 10.714,
        "duration": 0.536,
        "velocity": 0.71,
        "hand": "left"
      },
      {
        "midi": 57,
        "time": 10.714,
        "duration": 0.536,
        "velocity": 0.71,
        "hand": "left"
      },
      {
        "midi": 63,
        "time": 10.714,
        "duration": 0.536,
        "velocity": 0.71,
        "hand": "right"
      },
      {
        "midi": 53,
        "time": 11.25,
        "duration": 0.536,
        "velocity": 0.71,
        "hand": "left"
      },
      {
        "midi": 57,
        "time": 11.25,
        "duration": 0.536,
        "velocity": 0.71,
        "hand": "left"
      },
      {
        "midi": 63,
        "time": 11.25,
        "duration": 0.536,
        "velocity": 0.71,
        "hand": "right"
      },
      {
        "midi": 53,
        "time": 11.786,
        "duration": 0.536,
        "velocity": 0.71,
        "hand": "left"
      },
      {
        "midi": 57,
        "time": 11.786,
        "duration": 0.536,
        "velocity": 0.71,
        "hand": "left"
      },
      {
        "midi": 62,
        "time": 11.786,
        "duration": 0.536,
        "velocity": 0.71,
        "hand": "right"
      },
      {
        "midi": 53,
        "time": 12.321,
        "duration": 0.536,
        "velocity": 0.71,
        "hand": "left"
      },
      {
        "midi": 57,
        "time": 12.321,
        "duration": 0.536,
        "velocity": 0.71,
        "hand": "left"
      },
      {
        "midi": 62,
        "time": 12.321,
        "duration": 0.536,
        "velocity": 0.71,
        "hand": "right"
      },
      {
        "midi": 53,
        "time": 12.857,
        "duration": 0.536,
        "velocity": 0.71,
        "hand": "left"
      },
      {
        "midi": 62,
        "time": 12.857,
        "duration": 0.536,
        "velocity": 0.71,
        "hand": "right"
      },
      {
        "midi": 72,
        "time": 12.857,
        "duration": 1.071,
        "velocity": 0.71,
        "hand": "right"
      },
      {
        "midi": 53,
        "time": 13.393,
        "duration": 0.536,
        "velocity": 0.71,
        "hand": "left"
      },
      {
        "midi": 56,
        "time": 13.393,
        "duration": 0.536,
        "velocity": 0.71,
        "hand": "left"
      },
      {
        "midi": 62,
        "time": 13.393,
        "duration": 0.536,
        "velocity": 0.71,
        "hand": "right"
      },
      {
        "midi": 52,
        "time": 13.929,
        "duration": 0.536,
        "velocity": 0.71,
        "hand": "left"
      },
      {
        "midi": 62,
        "time": 13.929,
        "duration": 0.536,
        "velocity": 0.71,
        "hand": "right"
      },
      {
        "midi": 71,
        "time": 13.929,
        "duration": 3.214,
        "velocity": 0.71,
        "hand": "right"
      },
      {
        "midi": 52,
        "time": 14.464,
        "duration": 0.536,
        "velocity": 0.71,
        "hand": "left"
      },
      {
        "midi": 56,
        "time": 14.464,
        "duration": 0.536,
        "velocity": 0.71,
        "hand": "left"
      },
      {
        "midi": 62,
        "time": 14.464,
        "duration": 0.536,
        "velocity": 0.71,
        "hand": "right"
      },
      {
        "midi": 52,
        "time": 15,
        "duration": 0.536,
        "velocity": 0.71,
        "hand": "left"
      },
      {
        "midi": 56,
        "time": 15,
        "duration": 0.536,
        "velocity": 0.71,
        "hand": "left"
      },
      {
        "midi": 62,
        "time": 15,
        "duration": 0.536,
        "velocity": 0.71,
        "hand": "right"
      },
      {
        "midi": 52,
        "time": 15.536,
        "duration": 0.536,
        "velocity": 0.71,
        "hand": "left"
      },
      {
        "midi": 56,
        "time": 15.536,
        "duration": 0.536,
        "velocity": 0.71,
        "hand": "left"
      },
      {
        "midi": 62,
        "time": 15.536,
        "duration": 0.536,
        "velocity": 0.71,
        "hand": "right"
      },
      {
        "midi": 52,
        "time": 16.071,
        "duration": 0.536,
        "velocity": 0.71,
        "hand": "left"
      },
      {
        "midi": 55,
        "time": 16.071,
        "duration": 0.536,
        "velocity": 0.71,
        "hand": "left"
      },
      {
        "midi": 62,
        "time": 16.071,
        "duration": 0.536,
        "velocity": 0.71,
        "hand": "right"
      },
      {
        "midi": 52,
        "time": 16.607,
        "duration": 0.536,
        "velocity": 0.71,
        "hand": "left"
      },
      {
        "midi": 55,
        "time": 16.607,
        "duration": 0.536,
        "velocity": 0.71,
        "hand": "left"
      },
      {
        "midi": 62,
        "time": 16.607,
        "duration": 0.536,
        "velocity": 0.71,
        "hand": "right"
      },
      {
        "midi": 52,
        "time": 17.143,
        "duration": 0.536,
        "velocity": 0.71,
        "hand": "left"
      },
      {
        "midi": 61,
        "time": 17.143,
        "duration": 0.536,
        "velocity": 0.71,
        "hand": "right"
      },
      {
        "midi": 70,
        "time": 17.143,
        "duration": 1.071,
        "velocity": 0.71,
        "hand": "right"
      },
      {
        "midi": 52,
        "time": 17.679,
        "duration": 0.536,
        "velocity": 0.71,
        "hand": "left"
      },
      {
        "midi": 55,
        "time": 17.679,
        "duration": 0.536,
        "velocity": 0.71,
        "hand": "left"
      },
      {
        "midi": 61,
        "time": 17.679,
        "duration": 0.536,
        "velocity": 0.71,
        "hand": "right"
      },
      {
        "midi": 52,
        "time": 18.214,
        "duration": 0.536,
        "velocity": 0.71,
        "hand": "left"
      },
      {
        "midi": 60,
        "time": 18.214,
        "duration": 0.536,
        "velocity": 0.71,
        "hand": "right"
      },
      {
        "midi": 69,
        "time": 18.214,
        "duration": 3.214,
        "velocity": 0.71,
        "hand": "right"
      },
      {
        "midi": 52,
        "time": 18.75,
        "duration": 0.536,
        "velocity": 0.71,
        "hand": "left"
      },
      {
        "midi": 55,
        "time": 18.75,
        "duration": 0.536,
        "velocity": 0.71,
        "hand": "left"
      },
      {
        "midi": 60,
        "time": 18.75,
        "duration": 0.536,
        "velocity": 0.71,
        "hand": "right"
      },
      {
        "midi": 52,
        "time": 19.286,
        "duration": 0.536,
        "velocity": 0.71,
        "hand": "left"
      },
      {
        "midi": 55,
        "time": 19.286,
        "duration": 0.536,
        "velocity": 0.71,
        "hand": "left"
      },
      {
        "midi": 60,
        "time": 19.286,
        "duration": 0.536,
        "velocity": 0.71,
        "hand": "right"
      },
      {
        "midi": 52,
        "time": 19.821,
        "duration": 0.536,
        "velocity": 0.71,
        "hand": "left"
      },
      {
        "midi": 55,
        "time": 19.821,
        "duration": 0.536,
        "velocity": 0.71,
        "hand": "left"
      },
      {
        "midi": 60,
        "time": 19.821,
        "duration": 0.536,
        "velocity": 0.71,
        "hand": "right"
      },
      {
        "midi": 52,
        "time": 20.357,
        "duration": 0.536,
        "velocity": 0.71,
        "hand": "left"
      },
      {
        "midi": 54,
        "time": 20.357,
        "duration": 0.536,
        "velocity": 0.71,
        "hand": "left"
      },
      {
        "midi": 60,
        "time": 20.357,
        "duration": 0.536,
        "velocity": 0.71,
        "hand": "right"
      },
      {
        "midi": 52,
        "time": 20.893,
        "duration": 0.536,
        "velocity": 0.71,
        "hand": "left"
      },
      {
        "midi": 54,
        "time": 20.893,
        "duration": 0.536,
        "velocity": 0.71,
        "hand": "left"
      },
      {
        "midi": 60,
        "time": 20.893,
        "duration": 0.536,
        "velocity": 0.71,
        "hand": "right"
      },
      {
        "midi": 52,
        "time": 21.429,
        "duration": 0.536,
        "velocity": 0.71,
        "hand": "left"
      },
      {
        "midi": 60,
        "time": 21.429,
        "duration": 0.536,
        "velocity": 0.71,
        "hand": "right"
      },
      {
        "midi": 71,
        "time": 21.429,
        "duration": 1.071,
        "velocity": 0.71,
        "hand": "right"
      },
      {
        "midi": 52,
        "time": 21.964,
        "duration": 0.536,
        "velocity": 0.71,
        "hand": "left"
      },
      {
        "midi": 54,
        "time": 21.964,
        "duration": 0.536,
        "velocity": 0.71,
        "hand": "left"
      },
      {
        "midi": 60,
        "time": 21.964,
        "duration": 0.536,
        "velocity": 0.71,
        "hand": "right"
      },
      {
        "midi": 52,
        "time": 22.5,
        "duration": 0.536,
        "velocity": 0.71,
        "hand": "left"
      },
      {
        "midi": 60,
        "time": 22.5,
        "duration": 0.536,
        "velocity": 0.71,
        "hand": "right"
      },
      {
        "midi": 69,
        "time": 22.5,
        "duration": 3.214,
        "velocity": 0.71,
        "hand": "right"
      },
      {
        "midi": 52,
        "time": 23.036,
        "duration": 0.536,
        "velocity": 0.71,
        "hand": "left"
      },
      {
        "midi": 54,
        "time": 23.036,
        "duration": 0.536,
        "velocity": 0.71,
        "hand": "left"
      },
      {
        "midi": 60,
        "time": 23.036,
        "duration": 0.536,
        "velocity": 0.71,
        "hand": "right"
      },
      {
        "midi": 52,
        "time": 23.571,
        "duration": 0.536,
        "velocity": 0.71,
        "hand": "left"
      },
      {
        "midi": 54,
        "time": 23.571,
        "duration": 0.536,
        "velocity": 0.71,
        "hand": "left"
      },
      {
        "midi": 60,
        "time": 23.571,
        "duration": 0.536,
        "velocity": 0.71,
        "hand": "right"
      },
      {
        "midi": 52,
        "time": 24.107,
        "duration": 0.536,
        "velocity": 0.71,
        "hand": "left"
      },
      {
        "midi": 54,
        "time": 24.107,
        "duration": 0.536,
        "velocity": 0.71,
        "hand": "left"
      },
      {
        "midi": 60,
        "time": 24.107,
        "duration": 0.536,
        "velocity": 0.71,
        "hand": "right"
      },
      {
        "midi": 51,
        "time": 24.643,
        "duration": 0.536,
        "velocity": 0.71,
        "hand": "left"
      },
      {
        "midi": 54,
        "time": 24.643,
        "duration": 0.536,
        "velocity": 0.71,
        "hand": "left"
      },
      {
        "midi": 60,
        "time": 24.643,
        "duration": 0.536,
        "velocity": 0.71,
        "hand": "right"
      },
      {
        "midi": 51,
        "time": 25.179,
        "duration": 0.536,
        "velocity": 0.71,
        "hand": "left"
      },
      {
        "midi": 54,
        "time": 25.179,
        "duration": 0.536,
        "velocity": 0.71,
        "hand": "left"
      },
      {
        "midi": 60,
        "time": 25.179,
        "duration": 0.536,
        "velocity": 0.71,
        "hand": "right"
      },
      {
        "midi": 51,
        "time": 25.714,
        "duration": 0.536,
        "velocity": 0.71,
        "hand": "left"
      },
      {
        "midi": 60,
        "time": 25.714,
        "duration": 0.536,
        "velocity": 0.71,
        "hand": "right"
      },
      {
        "midi": 71,
        "time": 25.714,
        "duration": 1.071,
        "velocity": 0.71,
        "hand": "right"
      },
      {
        "midi": 51,
        "time": 26.25,
        "duration": 0.536,
        "velocity": 0.71,
        "hand": "left"
      },
      {
        "midi": 54,
        "time": 26.25,
        "duration": 0.536,
        "velocity": 0.71,
        "hand": "left"
      },
      {
        "midi": 60,
        "time": 26.25,
        "duration": 0.536,
        "velocity": 0.71,
        "hand": "right"
      },
      {
        "midi": 50,
        "time": 26.786,
        "duration": 0.536,
        "velocity": 0.71,
        "hand": "left"
      },
      {
        "midi": 60,
        "time": 26.786,
        "duration": 0.536,
        "velocity": 0.71,
        "hand": "right"
      },
      {
        "midi": 69,
        "time": 26.786,
        "duration": 3.214,
        "velocity": 0.71,
        "hand": "right"
      },
      {
        "midi": 50,
        "time": 27.321,
        "duration": 0.536,
        "velocity": 0.71,
        "hand": "left"
      },
      {
        "midi": 54,
        "time": 27.321,
        "duration": 0.536,
        "velocity": 0.71,
        "hand": "left"
      },
      {
        "midi": 60,
        "time": 27.321,
        "duration": 0.536,
        "velocity": 0.71,
        "hand": "right"
      },
      {
        "midi": 50,
        "time": 27.857,
        "duration": 0.536,
        "velocity": 0.71,
        "hand": "left"
      },
      {
        "midi": 54,
        "time": 27.857,
        "duration": 0.536,
        "velocity": 0.71,
        "hand": "left"
      },
      {
        "midi": 60,
        "time": 27.857,
        "duration": 0.536,
        "velocity": 0.71,
        "hand": "right"
      },
      {
        "midi": 50,
        "time": 28.393,
        "duration": 0.536,
        "velocity": 0.71,
        "hand": "left"
      },
      {
        "midi": 54,
        "time": 28.393,
        "duration": 0.536,
        "velocity": 0.71,
        "hand": "left"
      },
      {
        "midi": 60,
        "time": 28.393,
        "duration": 0.536,
        "velocity": 0.71,
        "hand": "right"
      },
      {
        "midi": 50,
        "time": 28.929,
        "duration": 0.536,
        "velocity": 0.71,
        "hand": "left"
      },
      {
        "midi": 54,
        "time": 28.929,
        "duration": 0.536,
        "velocity": 0.71,
        "hand": "left"
      },
      {
        "midi": 60,
        "time": 28.929,
        "duration": 0.536,
        "velocity": 0.71,
        "hand": "right"
      },
      {
        "midi": 50,
        "time": 29.464,
        "duration": 0.536,
        "velocity": 0.71,
        "hand": "left"
      },
      {
        "midi": 54,
        "time": 29.464,
        "duration": 0.536,
        "velocity": 0.71,
        "hand": "left"
      },
      {
        "midi": 60,
        "time": 29.464,
        "duration": 0.536,
        "velocity": 0.71,
        "hand": "right"
      },
      {
        "midi": 50,
        "time": 30,
        "duration": 0.536,
        "velocity": 0.71,
        "hand": "left"
      },
      {
        "midi": 60,
        "time": 30,
        "duration": 0.536,
        "velocity": 0.71,
        "hand": "right"
      },
      {
        "midi": 71,
        "time": 30,
        "duration": 0.804,
        "velocity": 0.71,
        "hand": "right"
      },
      {
        "midi": 50,
        "time": 30.536,
        "duration": 0.536,
        "velocity": 0.71,
        "hand": "left"
      },
      {
        "midi": 54,
        "time": 30.536,
        "duration": 0.536,
        "velocity": 0.71,
        "hand": "left"
      },
      {
        "midi": 60,
        "time": 30.536,
        "duration": 0.536,
        "velocity": 0.71,
        "hand": "right"
      },
      {
        "midi": 69,
        "time": 30.804,
        "duration": 0.268,
        "velocity": 0.71,
        "hand": "right"
      },
      {
        "midi": 50,
        "time": 31.071,
        "duration": 0.536,
        "velocity": 0.71,
        "hand": "left"
      },
      {
        "midi": 60,
        "time": 31.071,
        "duration": 0.536,
        "velocity": 0.71,
        "hand": "right"
      },
      {
        "midi": 69,
        "time": 31.071,
        "duration": 3.214,
        "velocity": 0.71,
        "hand": "right"
      },
      {
        "midi": 50,
        "time": 31.607,
        "duration": 0.536,
        "velocity": 0.71,
        "hand": "left"
      },
      {
        "midi": 53,
        "time": 31.607,
        "duration": 0.536,
        "velocity": 0.71,
        "hand": "left"
      },
      {
        "midi": 60,
        "time": 31.607,
        "duration": 0.536,
        "velocity": 0.71,
        "hand": "right"
      },
      {
        "midi": 50,
        "time": 32.143,
        "duration": 0.536,
        "velocity": 0.71,
        "hand": "left"
      },
      {
        "midi": 53,
        "time": 32.143,
        "duration": 0.536,
        "velocity": 0.71,
        "hand": "left"
      },
      {
        "midi": 60,
        "time": 32.143,
        "duration": 0.536,
        "velocity": 0.71,
        "hand": "right"
      },
      {
        "midi": 50,
        "time": 32.679,
        "duration": 0.536,
        "velocity": 0.71,
        "hand": "left"
      },
      {
        "midi": 53,
        "time": 32.679,
        "duration": 0.536,
        "velocity": 0.71,
        "hand": "left"
      },
      {
        "midi": 60,
        "time": 32.679,
        "duration": 0.536,
        "velocity": 0.71,
        "hand": "right"
      },
      {
        "midi": 50,
        "time": 33.214,
        "duration": 0.536,
        "velocity": 0.71,
        "hand": "left"
      },
      {
        "midi": 53,
        "time": 33.214,
        "duration": 0.536,
        "velocity": 0.71,
        "hand": "left"
      },
      {
        "midi": 59,
        "time": 33.214,
        "duration": 0.536,
        "velocity": 0.71,
        "hand": "left"
      },
      {
        "midi": 50,
        "time": 33.75,
        "duration": 0.536,
        "velocity": 0.71,
        "hand": "left"
      },
      {
        "midi": 53,
        "time": 33.75,
        "duration": 0.536,
        "velocity": 0.71,
        "hand": "left"
      },
      {
        "midi": 59,
        "time": 33.75,
        "duration": 0.536,
        "velocity": 0.71,
        "hand": "left"
      },
      {
        "midi": 50,
        "time": 34.286,
        "duration": 0.536,
        "velocity": 0.71,
        "hand": "left"
      },
      {
        "midi": 59,
        "time": 34.286,
        "duration": 0.536,
        "velocity": 0.71,
        "hand": "left"
      },
      {
        "midi": 68,
        "time": 34.286,
        "duration": 2.143,
        "velocity": 0.71,
        "hand": "right"
      },
      {
        "midi": 50,
        "time": 34.821,
        "duration": 0.536,
        "velocity": 0.71,
        "hand": "left"
      },
      {
        "midi": 53,
        "time": 34.821,
        "duration": 0.536,
        "velocity": 0.71,
        "hand": "left"
      },
      {
        "midi": 59,
        "time": 34.821,
        "duration": 0.536,
        "velocity": 0.71,
        "hand": "left"
      },
      {
        "midi": 48,
        "time": 35.357,
        "duration": 0.536,
        "velocity": 0.71,
        "hand": "left"
      },
      {
        "midi": 52,
        "time": 35.357,
        "duration": 0.536,
        "velocity": 0.71,
        "hand": "left"
      },
      {
        "midi": 59,
        "time": 35.357,
        "duration": 0.536,
        "velocity": 0.71,
        "hand": "left"
      },
      {
        "midi": 48,
        "time": 35.893,
        "duration": 0.536,
        "velocity": 0.71,
        "hand": "left"
      },
      {
        "midi": 52,
        "time": 35.893,
        "duration": 0.536,
        "velocity": 0.71,
        "hand": "left"
      },
      {
        "midi": 59,
        "time": 35.893,
        "duration": 0.536,
        "velocity": 0.71,
        "hand": "left"
      },
      {
        "midi": 48,
        "time": 36.429,
        "duration": 0.536,
        "velocity": 0.71,
        "hand": "left"
      },
      {
        "midi": 57,
        "time": 36.429,
        "duration": 0.536,
        "velocity": 0.71,
        "hand": "left"
      },
      {
        "midi": 69,
        "time": 36.429,
        "duration": 0.536,
        "velocity": 0.71,
        "hand": "right"
      },
      {
        "midi": 48,
        "time": 36.964,
        "duration": 0.536,
        "velocity": 0.71,
        "hand": "left"
      },
      {
        "midi": 57,
        "time": 36.964,
        "duration": 0.536,
        "velocity": 0.71,
        "hand": "left"
      },
      {
        "midi": 71,
        "time": 36.964,
        "duration": 0.536,
        "velocity": 0.71,
        "hand": "right"
      },
      {
        "midi": 48,
        "time": 37.5,
        "duration": 0.536,
        "velocity": 0.71,
        "hand": "left"
      },
      {
        "midi": 57,
        "time": 37.5,
        "duration": 0.536,
        "velocity": 0.71,
        "hand": "left"
      },
      {
        "midi": 74,
        "time": 37.5,
        "duration": 0.536,
        "velocity": 0.71,
        "hand": "right"
      },
      {
        "midi": 48,
        "time": 38.036,
        "duration": 0.536,
        "velocity": 0.71,
        "hand": "left"
      },
      {
        "midi": 57,
        "time": 38.036,
        "duration": 0.536,
        "velocity": 0.71,
        "hand": "left"
      },
      {
        "midi": 72,
        "time": 38.036,
        "duration": 0.536,
        "velocity": 0.71,
        "hand": "right"
      },
      {
        "midi": 48,
        "time": 38.571,
        "duration": 0.536,
        "velocity": 0.71,
        "hand": "left"
      },
      {
        "midi": 57,
        "time": 38.571,
        "duration": 0.536,
        "velocity": 0.71,
        "hand": "left"
      },
      {
        "midi": 64,
        "time": 38.571,
        "duration": 0.536,
        "velocity": 0.71,
        "hand": "right"
      },
      {
        "midi": 48,
        "time": 39.107,
        "duration": 0.536,
        "velocity": 0.71,
        "hand": "left"
      },
      {
        "midi": 57,
        "time": 39.107,
        "duration": 0.536,
        "velocity": 0.71,
        "hand": "left"
      },
      {
        "midi": 69,
        "time": 39.107,
        "duration": 0.536,
        "velocity": 0.71,
        "hand": "right"
      },
      {
        "midi": 47,
        "time": 39.643,
        "duration": 0.536,
        "velocity": 0.71,
        "hand": "left"
      },
      {
        "midi": 57,
        "time": 39.643,
        "duration": 0.536,
        "velocity": 0.71,
        "hand": "left"
      },
      {
        "midi": 66,
        "time": 39.643,
        "duration": 3.214,
        "velocity": 0.71,
        "hand": "right"
      },
      {
        "midi": 47,
        "time": 40.179,
        "duration": 0.536,
        "velocity": 0.71,
        "hand": "left"
      },
      {
        "midi": 52,
        "time": 40.179,
        "duration": 0.536,
        "velocity": 0.71,
        "hand": "left"
      },
      {
        "midi": 57,
        "time": 40.179,
        "duration": 0.536,
        "velocity": 0.71,
        "hand": "left"
      },
      {
        "midi": 47,
        "time": 40.714,
        "duration": 0.536,
        "velocity": 0.71,
        "hand": "left"
      },
      {
        "midi": 51,
        "time": 40.714,
        "duration": 0.536,
        "velocity": 0.71,
        "hand": "left"
      },
      {
        "midi": 57,
        "time": 40.714,
        "duration": 0.536,
        "velocity": 0.71,
        "hand": "left"
      },
      {
        "midi": 47,
        "time": 41.25,
        "duration": 0.536,
        "velocity": 0.71,
        "hand": "left"
      },
      {
        "midi": 51,
        "time": 41.25,
        "duration": 0.536,
        "velocity": 0.71,
        "hand": "left"
      },
      {
        "midi": 57,
        "time": 41.25,
        "duration": 0.536,
        "velocity": 0.71,
        "hand": "left"
      },
      {
        "midi": 48,
        "time": 41.786,
        "duration": 0.536,
        "velocity": 0.71,
        "hand": "left"
      },
      {
        "midi": 52,
        "time": 41.786,
        "duration": 0.536,
        "velocity": 0.71,
        "hand": "left"
      },
      {
        "midi": 57,
        "time": 41.786,
        "duration": 0.536,
        "velocity": 0.71,
        "hand": "left"
      },
      {
        "midi": 48,
        "time": 42.321,
        "duration": 0.536,
        "velocity": 0.71,
        "hand": "left"
      },
      {
        "midi": 52,
        "time": 42.321,
        "duration": 0.536,
        "velocity": 0.71,
        "hand": "left"
      },
      {
        "midi": 57,
        "time": 42.321,
        "duration": 0.536,
        "velocity": 0.71,
        "hand": "left"
      },
      {
        "midi": 48,
        "time": 42.857,
        "duration": 0.536,
        "velocity": 0.71,
        "hand": "left"
      },
      {
        "midi": 57,
        "time": 42.857,
        "duration": 0.536,
        "velocity": 0.71,
        "hand": "left"
      },
      {
        "midi": 69,
        "time": 42.857,
        "duration": 1.071,
        "velocity": 0.71,
        "hand": "right"
      },
      {
        "midi": 48,
        "time": 43.393,
        "duration": 0.536,
        "velocity": 0.71,
        "hand": "left"
      },
      {
        "midi": 52,
        "time": 43.393,
        "duration": 0.536,
        "velocity": 0.71,
        "hand": "left"
      },
      {
        "midi": 57,
        "time": 43.393,
        "duration": 0.536,
        "velocity": 0.71,
        "hand": "left"
      },
      {
        "midi": 47,
        "time": 43.929,
        "duration": 0.536,
        "velocity": 0.71,
        "hand": "left"
      },
      {
        "midi": 57,
        "time": 43.929,
        "duration": 0.536,
        "velocity": 0.71,
        "hand": "left"
      },
      {
        "midi": 66,
        "time": 43.929,
        "duration": 3.214,
        "velocity": 0.71,
        "hand": "right"
      },
      {
        "midi": 47,
        "time": 44.464,
        "duration": 0.536,
        "velocity": 0.71,
        "hand": "left"
      },
      {
        "midi": 51,
        "time": 44.464,
        "duration": 0.536,
        "velocity": 0.71,
        "hand": "left"
      },
      {
        "midi": 57,
        "time": 44.464,
        "duration": 0.536,
        "velocity": 0.71,
        "hand": "left"
      },
      {
        "midi": 47,
        "time": 45,
        "duration": 0.536,
        "velocity": 0.71,
        "hand": "left"
      },
      {
        "midi": 51,
        "time": 45,
        "duration": 0.536,
        "velocity": 0.71,
        "hand": "left"
      },
      {
        "midi": 57,
        "time": 45,
        "duration": 0.536,
        "velocity": 0.71,
        "hand": "left"
      },
      {
        "midi": 47,
        "time": 45.536,
        "duration": 0.536,
        "velocity": 0.71,
        "hand": "left"
      },
      {
        "midi": 51,
        "time": 45.536,
        "duration": 0.536,
        "velocity": 0.71,
        "hand": "left"
      },
      {
        "midi": 57,
        "time": 45.536,
        "duration": 0.536,
        "velocity": 0.71,
        "hand": "left"
      },
      {
        "midi": 48,
        "time": 46.071,
        "duration": 0.536,
        "velocity": 0.71,
        "hand": "left"
      },
      {
        "midi": 52,
        "time": 46.071,
        "duration": 0.536,
        "velocity": 0.71,
        "hand": "left"
      },
      {
        "midi": 57,
        "time": 46.071,
        "duration": 0.536,
        "velocity": 0.71,
        "hand": "left"
      },
      {
        "midi": 48,
        "time": 46.607,
        "duration": 0.536,
        "velocity": 0.71,
        "hand": "left"
      },
      {
        "midi": 52,
        "time": 46.607,
        "duration": 0.536,
        "velocity": 0.71,
        "hand": "left"
      },
      {
        "midi": 57,
        "time": 46.607,
        "duration": 0.536,
        "velocity": 0.71,
        "hand": "left"
      },
      {
        "midi": 48,
        "time": 47.143,
        "duration": 0.536,
        "velocity": 0.71,
        "hand": "left"
      },
      {
        "midi": 57,
        "time": 47.143,
        "duration": 0.536,
        "velocity": 0.71,
        "hand": "left"
      },
      {
        "midi": 71,
        "time": 47.143,
        "duration": 0.268,
        "velocity": 0.71,
        "hand": "right"
      },
      {
        "midi": 48,
        "time": 47.679,
        "duration": 0.536,
        "velocity": 0.71,
        "hand": "left"
      },
      {
        "midi": 52,
        "time": 47.679,
        "duration": 0.536,
        "velocity": 0.71,
        "hand": "left"
      },
      {
        "midi": 57,
        "time": 47.679,
        "duration": 0.536,
        "velocity": 0.71,
        "hand": "left"
      },
      {
        "midi": 47,
        "time": 48.214,
        "duration": 1.071,
        "velocity": 0.71,
        "hand": "left"
      },
      {
        "midi": 57,
        "time": 48.214,
        "duration": 1.071,
        "velocity": 0.71,
        "hand": "left"
      },
      {
        "midi": 67,
        "time": 48.214,
        "duration": 0.536,
        "velocity": 0.71,
        "hand": "right"
      },
      {
        "midi": 66,
        "time": 48.75,
        "duration": 0.536,
        "velocity": 0.71,
        "hand": "right"
      },
      {
        "midi": 60,
        "time": 49.286,
        "duration": 0.536,
        "velocity": 0.71,
        "hand": "right"
      },
      {
        "midi": 59,
        "time": 49.821,
        "duration": 0.536,
        "velocity": 0.71,
        "hand": "left"
      },
      {
        "midi": 63,
        "time": 50.357,
        "duration": 0.536,
        "velocity": 0.71,
        "hand": "right"
      },
      {
        "midi": 66,
        "time": 50.893,
        "duration": 0.536,
        "velocity": 0.71,
        "hand": "right"
      },
      {
        "midi": 74,
        "time": 51.429,
        "duration": 0.268,
        "velocity": 0.71,
        "hand": "right"
      },
      {
        "midi": 72,
        "time": 51.696,
        "duration": 0.268,
        "velocity": 0.71,
        "hand": "right"
      },
      {
        "midi": 71,
        "time": 52.232,
        "duration": 0.268,
        "velocity": 0.71,
        "hand": "right"
      },
      {
        "midi": 55,
        "time": 52.5,
        "duration": 0.536,
        "velocity": 0.71,
        "hand": "left"
      },
      {
        "midi": 64,
        "time": 52.5,
        "duration": 0.536,
        "velocity": 0.71,
        "hand": "right"
      },
      {
        "midi": 71,
        "time": 52.5,
        "duration": 3.214,
        "velocity": 0.71,
        "hand": "right"
      },
      {
        "midi": 55,
        "time": 53.036,
        "duration": 0.536,
        "velocity": 0.71,
        "hand": "left"
      },
      {
        "midi": 59,
        "time": 53.036,
        "duration": 0.536,
        "velocity": 0.71,
        "hand": "left"
      },
      {
        "midi": 64,
        "time": 53.036,
        "duration": 0.536,
        "velocity": 0.71,
        "hand": "right"
      },
      {
        "midi": 55,
        "time": 53.571,
        "duration": 0.536,
        "velocity": 0.71,
        "hand": "left"
      },
      {
        "midi": 59,
        "time": 53.571,
        "duration": 0.536,
        "velocity": 0.71,
        "hand": "left"
      },
      {
        "midi": 64,
        "time": 53.571,
        "duration": 0.536,
        "velocity": 0.71,
        "hand": "right"
      },
      {
        "midi": 55,
        "time": 54.107,
        "duration": 0.536,
        "velocity": 0.71,
        "hand": "left"
      },
      {
        "midi": 59,
        "time": 54.107,
        "duration": 0.536,
        "velocity": 0.71,
        "hand": "left"
      },
      {
        "midi": 64,
        "time": 54.107,
        "duration": 0.536,
        "velocity": 0.71,
        "hand": "right"
      },
      {
        "midi": 55,
        "time": 54.643,
        "duration": 0.536,
        "velocity": 0.71,
        "hand": "left"
      },
      {
        "midi": 59,
        "time": 54.643,
        "duration": 0.536,
        "velocity": 0.71,
        "hand": "left"
      },
      {
        "midi": 64,
        "time": 54.643,
        "duration": 0.536,
        "velocity": 0.71,
        "hand": "right"
      },
      {
        "midi": 55,
        "time": 55.179,
        "duration": 0.536,
        "velocity": 0.71,
        "hand": "left"
      },
      {
        "midi": 59,
        "time": 55.179,
        "duration": 0.536,
        "velocity": 0.71,
        "hand": "left"
      },
      {
        "midi": 64,
        "time": 55.179,
        "duration": 0.536,
        "velocity": 0.71,
        "hand": "right"
      },
      {
        "midi": 55,
        "time": 55.714,
        "duration": 0.536,
        "velocity": 0.71,
        "hand": "left"
      },
      {
        "midi": 64,
        "time": 55.714,
        "duration": 0.536,
        "velocity": 0.71,
        "hand": "right"
      },
      {
        "midi": 72,
        "time": 55.714,
        "duration": 1.071,
        "velocity": 0.71,
        "hand": "right"
      },
      {
        "midi": 55,
        "time": 56.25,
        "duration": 0.536,
        "velocity": 0.71,
        "hand": "left"
      },
      {
        "midi": 59,
        "time": 56.25,
        "duration": 0.536,
        "velocity": 0.71,
        "hand": "left"
      },
      {
        "midi": 64,
        "time": 56.25,
        "duration": 0.536,
        "velocity": 0.71,
        "hand": "right"
      },
      {
        "midi": 54,
        "time": 56.786,
        "duration": 0.536,
        "velocity": 0.71,
        "hand": "left"
      },
      {
        "midi": 64,
        "time": 56.786,
        "duration": 0.536,
        "velocity": 0.71,
        "hand": "right"
      },
      {
        "midi": 71,
        "time": 56.786,
        "duration": 3.214,
        "velocity": 0.71,
        "hand": "right"
      },
      {
        "midi": 54,
        "time": 57.321,
        "duration": 0.536,
        "velocity": 0.71,
        "hand": "left"
      },
      {
        "midi": 57,
        "time": 57.321,
        "duration": 0.536,
        "velocity": 0.71,
        "hand": "left"
      },
      {
        "midi": 64,
        "time": 57.321,
        "duration": 0.536,
        "velocity": 0.71,
        "hand": "right"
      },
      {
        "midi": 54,
        "time": 57.857,
        "duration": 0.536,
        "velocity": 0.71,
        "hand": "left"
      },
      {
        "midi": 57,
        "time": 57.857,
        "duration": 0.536,
        "velocity": 0.71,
        "hand": "left"
      },
      {
        "midi": 64,
        "time": 57.857,
        "duration": 0.536,
        "velocity": 0.71,
        "hand": "right"
      },
      {
        "midi": 54,
        "time": 58.393,
        "duration": 0.536,
        "velocity": 0.71,
        "hand": "left"
      },
      {
        "midi": 57,
        "time": 58.393,
        "duration": 0.536,
        "velocity": 0.71,
        "hand": "left"
      },
      {
        "midi": 64,
        "time": 58.393,
        "duration": 0.536,
        "velocity": 0.71,
        "hand": "right"
      },
      {
        "midi": 53,
        "time": 58.929,
        "duration": 0.536,
        "velocity": 0.71,
        "hand": "left"
      },
      {
        "midi": 57,
        "time": 58.929,
        "duration": 0.536,
        "velocity": 0.71,
        "hand": "left"
      },
      {
        "midi": 63,
        "time": 58.929,
        "duration": 0.536,
        "velocity": 0.71,
        "hand": "right"
      },
      {
        "midi": 53,
        "time": 59.464,
        "duration": 0.536,
        "velocity": 0.71,
        "hand": "left"
      },
      {
        "midi": 57,
        "time": 59.464,
        "duration": 0.536,
        "velocity": 0.71,
        "hand": "left"
      },
      {
        "midi": 63,
        "time": 59.464,
        "duration": 0.536,
        "velocity": 0.71,
        "hand": "right"
      },
      {
        "midi": 53,
        "time": 60,
        "duration": 0.536,
        "velocity": 0.71,
        "hand": "left"
      },
      {
        "midi": 63,
        "time": 60,
        "duration": 0.536,
        "velocity": 0.71,
        "hand": "right"
      },
      {
        "midi": 72,
        "time": 60,
        "duration": 1.071,
        "velocity": 0.71,
        "hand": "right"
      },
      {
        "midi": 53,
        "time": 60.536,
        "duration": 0.536,
        "velocity": 0.71,
        "hand": "left"
      },
      {
        "midi": 57,
        "time": 60.536,
        "duration": 0.536,
        "velocity": 0.71,
        "hand": "left"
      },
      {
        "midi": 63,
        "time": 60.536,
        "duration": 0.536,
        "velocity": 0.71,
        "hand": "right"
      },
      {
        "midi": 53,
        "time": 61.071,
        "duration": 0.536,
        "velocity": 0.71,
        "hand": "left"
      },
      {
        "midi": 63,
        "time": 61.071,
        "duration": 0.536,
        "velocity": 0.71,
        "hand": "right"
      },
      {
        "midi": 71,
        "time": 61.071,
        "duration": 3.214,
        "velocity": 0.71,
        "hand": "right"
      },
      {
        "midi": 53,
        "time": 61.607,
        "duration": 0.536,
        "velocity": 0.71,
        "hand": "left"
      },
      {
        "midi": 56,
        "time": 61.607,
        "duration": 0.536,
        "velocity": 0.71,
        "hand": "left"
      },
      {
        "midi": 63,
        "time": 61.607,
        "duration": 0.536,
        "velocity": 0.71,
        "hand": "right"
      },
      {
        "midi": 53,
        "time": 62.143,
        "duration": 0.536,
        "velocity": 0.71,
        "hand": "left"
      },
      {
        "midi": 56,
        "time": 62.143,
        "duration": 0.536,
        "velocity": 0.71,
        "hand": "left"
      },
      {
        "midi": 62,
        "time": 62.143,
        "duration": 0.536,
        "velocity": 0.71,
        "hand": "right"
      },
      {
        "midi": 53,
        "time": 62.679,
        "duration": 0.536,
        "velocity": 0.71,
        "hand": "left"
      },
      {
        "midi": 56,
        "time": 62.679,
        "duration": 0.536,
        "velocity": 0.71,
        "hand": "left"
      },
      {
        "midi": 62,
        "time": 62.679,
        "duration": 0.536,
        "velocity": 0.71,
        "hand": "right"
      },
      {
        "midi": 52,
        "time": 63.214,
        "duration": 0.536,
        "velocity": 0.71,
        "hand": "left"
      },
      {
        "midi": 56,
        "time": 63.214,
        "duration": 0.536,
        "velocity": 0.71,
        "hand": "left"
      },
      {
        "midi": 62,
        "time": 63.214,
        "duration": 0.536,
        "velocity": 0.71,
        "hand": "right"
      },
      {
        "midi": 52,
        "time": 63.75,
        "duration": 0.536,
        "velocity": 0.71,
        "hand": "left"
      },
      {
        "midi": 56,
        "time": 63.75,
        "duration": 0.536,
        "velocity": 0.71,
        "hand": "left"
      },
      {
        "midi": 62,
        "time": 63.75,
        "duration": 0.536,
        "velocity": 0.71,
        "hand": "right"
      },
      {
        "midi": 52,
        "time": 64.286,
        "duration": 0.536,
        "velocity": 0.71,
        "hand": "left"
      },
      {
        "midi": 62,
        "time": 64.286,
        "duration": 0.536,
        "velocity": 0.71,
        "hand": "right"
      },
      {
        "midi": 72,
        "time": 64.286,
        "duration": 1.071,
        "velocity": 0.71,
        "hand": "right"
      },
      {
        "midi": 52,
        "time": 64.821,
        "duration": 0.536,
        "velocity": 0.71,
        "hand": "left"
      },
      {
        "midi": 56,
        "time": 64.821,
        "duration": 0.536,
        "velocity": 0.71,
        "hand": "left"
      },
      {
        "midi": 62,
        "time": 64.821,
        "duration": 0.536,
        "velocity": 0.71,
        "hand": "right"
      },
      {
        "midi": 52,
        "time": 65.357,
        "duration": 0.536,
        "velocity": 0.71,
        "hand": "left"
      },
      {
        "midi": 62,
        "time": 65.357,
        "duration": 0.536,
        "velocity": 0.71,
        "hand": "right"
      },
      {
        "midi": 71,
        "time": 65.357,
        "duration": 0.804,
        "velocity": 0.71,
        "hand": "right"
      },
      {
        "midi": 52,
        "time": 65.893,
        "duration": 0.536,
        "velocity": 0.71,
        "hand": "left"
      },
      {
        "midi": 55,
        "time": 65.893,
        "duration": 0.536,
        "velocity": 0.71,
        "hand": "left"
      },
      {
        "midi": 62,
        "time": 65.893,
        "duration": 0.536,
        "velocity": 0.71,
        "hand": "right"
      },
      {
        "midi": 70,
        "time": 66.161,
        "duration": 0.268,
        "velocity": 0.71,
        "hand": "right"
      },
      {
        "midi": 52,
        "time": 66.429,
        "duration": 0.536,
        "velocity": 0.71,
        "hand": "left"
      },
      {
        "midi": 61,
        "time": 66.429,
        "duration": 0.536,
        "velocity": 0.71,
        "hand": "right"
      },
      {
        "midi": 70,
        "time": 66.429,
        "duration": 1.071,
        "velocity": 0.71,
        "hand": "right"
      },
      {
        "midi": 52,
        "time": 66.964,
        "duration": 0.536,
        "velocity": 0.71,
        "hand": "left"
      },
      {
        "midi": 55,
        "time": 66.964,
        "duration": 0.536,
        "velocity": 0.71,
        "hand": "left"
      },
      {
        "midi": 61,
        "time": 66.964,
        "duration": 0.536,
        "velocity": 0.71,
        "hand": "right"
      },
      {
        "midi": 49,
        "time": 67.5,
        "duration": 0.536,
        "velocity": 0.71,
        "hand": "left"
      },
      {
        "midi": 58,
        "time": 67.5,
        "duration": 0.536,
        "velocity": 0.71,
        "hand": "left"
      },
      {
        "midi": 81,
        "time": 67.5,
        "duration": 1.071,
        "velocity": 0.71,
        "hand": "right"
      },
      {
        "midi": 49,
        "time": 68.036,
        "duration": 0.536,
        "velocity": 0.71,
        "hand": "left"
      },
      {
        "midi": 52,
        "time": 68.036,
        "duration": 0.536,
        "velocity": 0.71,
        "hand": "left"
      },
      {
        "midi": 58,
        "time": 68.036,
        "duration": 0.536,
        "velocity": 0.71,
        "hand": "left"
      },
      {
        "midi": 48,
        "time": 68.571,
        "duration": 0.536,
        "velocity": 0.71,
        "hand": "left"
      },
      {
        "midi": 57,
        "time": 68.571,
        "duration": 0.536,
        "velocity": 0.71,
        "hand": "left"
      },
      {
        "midi": 78,
        "time": 68.571,
        "duration": 0.804,
        "velocity": 0.71,
        "hand": "right"
      },
      {
        "midi": 48,
        "time": 69.107,
        "duration": 0.536,
        "velocity": 0.71,
        "hand": "left"
      },
      {
        "midi": 52,
        "time": 69.107,
        "duration": 0.536,
        "velocity": 0.71,
        "hand": "left"
      },
      {
        "midi": 57,
        "time": 69.107,
        "duration": 0.536,
        "velocity": 0.71,
        "hand": "left"
      },
      {
        "midi": 76,
        "time": 69.375,
        "duration": 0.268,
        "velocity": 0.71,
        "hand": "right"
      },
      {
        "midi": 35,
        "time": 69.643,
        "duration": 0.536,
        "velocity": 0.71,
        "hand": "left"
      },
      {
        "midi": 47,
        "time": 69.643,
        "duration": 0.536,
        "velocity": 0.71,
        "hand": "left"
      },
      {
        "midi": 76,
        "time": 69.643,
        "duration": 0.536,
        "velocity": 0.71,
        "hand": "right"
      },
      {
        "midi": 57,
        "time": 70.179,
        "duration": 0.536,
        "velocity": 0.71,
        "hand": "left"
      },
      {
        "midi": 66,
        "time": 70.179,
        "duration": 0.536,
        "velocity": 0.71,
        "hand": "right"
      },
      {
        "midi": 75,
        "time": 70.179,
        "duration": 0.536,
        "velocity": 0.71,
        "hand": "right"
      },
      {
        "midi": 57,
        "time": 70.714,
        "duration": 0.536,
        "velocity": 0.71,
        "hand": "left"
      },
      {
        "midi": 66,
        "time": 70.714,
        "duration": 0.536,
        "velocity": 0.71,
        "hand": "right"
      },
      {
        "midi": 84,
        "time": 70.714,
        "duration": 0.536,
        "velocity": 0.71,
        "hand": "right"
      },
      {
        "midi": 57,
        "time": 71.25,
        "duration": 0.536,
        "velocity": 0.71,
        "hand": "left"
      },
      {
        "midi": 66,
        "time": 71.25,
        "duration": 0.536,
        "velocity": 0.71,
        "hand": "right"
      },
      {
        "midi": 75,
        "time": 71.25,
        "duration": 0.536,
        "velocity": 0.71,
        "hand": "right"
      },
      {
        "midi": 55,
        "time": 71.786,
        "duration": 0.536,
        "velocity": 0.71,
        "hand": "left"
      },
      {
        "midi": 63,
        "time": 71.786,
        "duration": 0.536,
        "velocity": 0.71,
        "hand": "right"
      },
      {
        "midi": 75,
        "time": 71.786,
        "duration": 0.536,
        "velocity": 0.71,
        "hand": "right"
      },
      {
        "midi": 55,
        "time": 72.321,
        "duration": 0.536,
        "velocity": 0.71,
        "hand": "left"
      },
      {
        "midi": 64,
        "time": 72.321,
        "duration": 0.536,
        "velocity": 0.71,
        "hand": "right"
      },
      {
        "midi": 76,
        "time": 72.321,
        "duration": 0.536,
        "velocity": 0.71,
        "hand": "right"
      },
      {
        "midi": 55,
        "time": 72.857,
        "duration": 0.536,
        "velocity": 0.71,
        "hand": "left"
      },
      {
        "midi": 64,
        "time": 72.857,
        "duration": 0.536,
        "velocity": 0.71,
        "hand": "right"
      },
      {
        "midi": 79,
        "time": 72.857,
        "duration": 0.536,
        "velocity": 0.71,
        "hand": "right"
      },
      {
        "midi": 55,
        "time": 73.393,
        "duration": 0.536,
        "velocity": 0.71,
        "hand": "left"
      },
      {
        "midi": 64,
        "time": 73.393,
        "duration": 0.536,
        "velocity": 0.71,
        "hand": "right"
      },
      {
        "midi": 71,
        "time": 73.393,
        "duration": 0.536,
        "velocity": 0.71,
        "hand": "right"
      },
      {
        "midi": 57,
        "time": 73.929,
        "duration": 0.536,
        "velocity": 0.71,
        "hand": "left"
      },
      {
        "midi": 64,
        "time": 73.929,
        "duration": 0.536,
        "velocity": 0.71,
        "hand": "right"
      },
      {
        "midi": 74,
        "time": 73.929,
        "duration": 0.536,
        "velocity": 0.71,
        "hand": "right"
      },
      {
        "midi": 57,
        "time": 74.464,
        "duration": 0.536,
        "velocity": 0.71,
        "hand": "left"
      },
      {
        "midi": 64,
        "time": 74.464,
        "duration": 0.536,
        "velocity": 0.71,
        "hand": "right"
      },
      {
        "midi": 72,
        "time": 74.464,
        "duration": 0.536,
        "velocity": 0.71,
        "hand": "right"
      },
      {
        "midi": 45,
        "time": 75,
        "duration": 0.536,
        "velocity": 0.71,
        "hand": "left"
      },
      {
        "midi": 76,
        "time": 75,
        "duration": 0.268,
        "velocity": 0.71,
        "hand": "right"
      },
      {
        "midi": 64,
        "time": 75.268,
        "duration": 0.268,
        "velocity": 0.71,
        "hand": "right"
      },
      {
        "midi": 52,
        "time": 75.536,
        "duration": 0.536,
        "velocity": 0.71,
        "hand": "left"
      },
      {
        "midi": 54,
        "time": 75.536,
        "duration": 0.536,
        "velocity": 0.71,
        "hand": "left"
      },
      {
        "midi": 60,
        "time": 75.536,
        "duration": 0.536,
        "velocity": 0.71,
        "hand": "right"
      },
      {
        "midi": 69,
        "time": 75.804,
        "duration": 0.268,
        "velocity": 0.71,
        "hand": "right"
      },
      {
        "midi": 47,
        "time": 76.071,
        "duration": 0.536,
        "velocity": 0.71,
        "hand": "left"
      },
      {
        "midi": 59,
        "time": 76.071,
        "duration": 0.536,
        "velocity": 0.71,
        "hand": "left"
      },
      {
        "midi": 66,
        "time": 76.071,
        "duration": 1.607,
        "velocity": 0.71,
        "hand": "right"
      },
      {
        "midi": 47,
        "time": 76.607,
        "duration": 0.536,
        "velocity": 0.71,
        "hand": "left"
      },
      {
        "midi": 52,
        "time": 76.607,
        "duration": 0.536,
        "velocity": 0.71,
        "hand": "left"
      },
      {
        "midi": 59,
        "time": 76.607,
        "duration": 0.536,
        "velocity": 0.71,
        "hand": "left"
      },
      {
        "midi": 48,
        "time": 77.143,
        "duration": 0.536,
        "velocity": 0.71,
        "hand": "left"
      },
      {
        "midi": 52,
        "time": 77.143,
        "duration": 0.536,
        "velocity": 0.71,
        "hand": "left"
      },
      {
        "midi": 57,
        "time": 77.143,
        "duration": 0.536,
        "velocity": 0.71,
        "hand": "left"
      },
      {
        "midi": 48,
        "time": 77.679,
        "duration": 0.536,
        "velocity": 0.71,
        "hand": "left"
      },
      {
        "midi": 57,
        "time": 77.679,
        "duration": 0.536,
        "velocity": 0.71,
        "hand": "left"
      },
      {
        "midi": 69,
        "time": 77.679,
        "duration": 0.536,
        "velocity": 0.71,
        "hand": "right"
      },
      {
        "midi": 47,
        "time": 78.214,
        "duration": 0.536,
        "velocity": 0.71,
        "hand": "left"
      },
      {
        "midi": 59,
        "time": 78.214,
        "duration": 0.536,
        "velocity": 0.71,
        "hand": "left"
      },
      {
        "midi": 66,
        "time": 78.214,
        "duration": 3.214,
        "velocity": 0.71,
        "hand": "right"
      },
      {
        "midi": 47,
        "time": 78.75,
        "duration": 0.536,
        "velocity": 0.71,
        "hand": "left"
      },
      {
        "midi": 52,
        "time": 78.75,
        "duration": 0.536,
        "velocity": 0.71,
        "hand": "left"
      },
      {
        "midi": 59,
        "time": 78.75,
        "duration": 0.536,
        "velocity": 0.71,
        "hand": "left"
      },
      {
        "midi": 47,
        "time": 79.286,
        "duration": 0.536,
        "velocity": 0.71,
        "hand": "left"
      },
      {
        "midi": 52,
        "time": 79.286,
        "duration": 0.536,
        "velocity": 0.71,
        "hand": "left"
      },
      {
        "midi": 59,
        "time": 79.286,
        "duration": 0.536,
        "velocity": 0.71,
        "hand": "left"
      },
      {
        "midi": 47,
        "time": 79.821,
        "duration": 0.536,
        "velocity": 0.71,
        "hand": "left"
      },
      {
        "midi": 52,
        "time": 79.821,
        "duration": 0.536,
        "velocity": 0.71,
        "hand": "left"
      },
      {
        "midi": 59,
        "time": 79.821,
        "duration": 0.536,
        "velocity": 0.71,
        "hand": "left"
      },
      {
        "midi": 48,
        "time": 80.357,
        "duration": 0.536,
        "velocity": 0.71,
        "hand": "left"
      },
      {
        "midi": 52,
        "time": 80.357,
        "duration": 0.536,
        "velocity": 0.71,
        "hand": "left"
      },
      {
        "midi": 57,
        "time": 80.357,
        "duration": 0.536,
        "velocity": 0.71,
        "hand": "left"
      },
      {
        "midi": 48,
        "time": 80.893,
        "duration": 0.536,
        "velocity": 0.71,
        "hand": "left"
      },
      {
        "midi": 52,
        "time": 80.893,
        "duration": 0.536,
        "velocity": 0.71,
        "hand": "left"
      },
      {
        "midi": 57,
        "time": 80.893,
        "duration": 0.536,
        "velocity": 0.71,
        "hand": "left"
      },
      {
        "midi": 48,
        "time": 81.429,
        "duration": 0.536,
        "velocity": 0.71,
        "hand": "left"
      },
      {
        "midi": 57,
        "time": 81.429,
        "duration": 0.536,
        "velocity": 0.71,
        "hand": "left"
      },
      {
        "midi": 71,
        "time": 81.429,
        "duration": 0.268,
        "velocity": 0.71,
        "hand": "right"
      },
      {
        "midi": 48,
        "time": 81.964,
        "duration": 0.536,
        "velocity": 0.71,
        "hand": "left"
      },
      {
        "midi": 52,
        "time": 81.964,
        "duration": 0.536,
        "velocity": 0.71,
        "hand": "left"
      },
      {
        "midi": 57,
        "time": 81.964,
        "duration": 0.536,
        "velocity": 0.71,
        "hand": "left"
      },
      {
        "midi": 47,
        "time": 82.5,
        "duration": 0.536,
        "velocity": 0.71,
        "hand": "left"
      },
      {
        "midi": 59,
        "time": 82.5,
        "duration": 0.536,
        "velocity": 0.71,
        "hand": "left"
      },
      {
        "midi": 66,
        "time": 82.5,
        "duration": 4.018,
        "velocity": 0.71,
        "hand": "right"
      },
      {
        "midi": 47,
        "time": 83.036,
        "duration": 0.536,
        "velocity": 0.71,
        "hand": "left"
      },
      {
        "midi": 52,
        "time": 83.036,
        "duration": 0.536,
        "velocity": 0.71,
        "hand": "left"
      },
      {
        "midi": 59,
        "time": 83.036,
        "duration": 0.536,
        "velocity": 0.71,
        "hand": "left"
      },
      {
        "midi": 47,
        "time": 83.571,
        "duration": 0.536,
        "velocity": 0.71,
        "hand": "left"
      },
      {
        "midi": 52,
        "time": 83.571,
        "duration": 0.536,
        "velocity": 0.71,
        "hand": "left"
      },
      {
        "midi": 59,
        "time": 83.571,
        "duration": 0.536,
        "velocity": 0.71,
        "hand": "left"
      },
      {
        "midi": 47,
        "time": 84.107,
        "duration": 0.536,
        "velocity": 0.71,
        "hand": "left"
      },
      {
        "midi": 52,
        "time": 84.107,
        "duration": 0.536,
        "velocity": 0.71,
        "hand": "left"
      },
      {
        "midi": 59,
        "time": 84.107,
        "duration": 0.536,
        "velocity": 0.71,
        "hand": "left"
      },
      {
        "midi": 47,
        "time": 84.643,
        "duration": 0.536,
        "velocity": 0.71,
        "hand": "left"
      },
      {
        "midi": 51,
        "time": 84.643,
        "duration": 0.536,
        "velocity": 0.71,
        "hand": "left"
      },
      {
        "midi": 59,
        "time": 84.643,
        "duration": 0.536,
        "velocity": 0.71,
        "hand": "left"
      },
      {
        "midi": 47,
        "time": 85.179,
        "duration": 0.536,
        "velocity": 0.71,
        "hand": "left"
      },
      {
        "midi": 51,
        "time": 85.179,
        "duration": 0.536,
        "velocity": 0.71,
        "hand": "left"
      },
      {
        "midi": 59,
        "time": 85.179,
        "duration": 0.536,
        "velocity": 0.71,
        "hand": "left"
      },
      {
        "midi": 47,
        "time": 85.714,
        "duration": 0.536,
        "velocity": 0.71,
        "hand": "left"
      },
      {
        "midi": 51,
        "time": 85.714,
        "duration": 0.536,
        "velocity": 0.71,
        "hand": "left"
      },
      {
        "midi": 57,
        "time": 85.714,
        "duration": 0.536,
        "velocity": 0.71,
        "hand": "left"
      },
      {
        "midi": 47,
        "time": 86.25,
        "duration": 0.536,
        "velocity": 0.71,
        "hand": "left"
      },
      {
        "midi": 51,
        "time": 86.25,
        "duration": 0.536,
        "velocity": 0.71,
        "hand": "left"
      },
      {
        "midi": 57,
        "time": 86.25,
        "duration": 0.536,
        "velocity": 0.71,
        "hand": "left"
      },
      {
        "midi": 64,
        "time": 86.518,
        "duration": 0.268,
        "velocity": 0.71,
        "hand": "right"
      },
      {
        "midi": 48,
        "time": 86.786,
        "duration": 0.536,
        "velocity": 0.71,
        "hand": "left"
      },
      {
        "midi": 55,
        "time": 86.786,
        "duration": 0.536,
        "velocity": 0.71,
        "hand": "left"
      },
      {
        "midi": 64,
        "time": 86.786,
        "duration": 3.214,
        "velocity": 0.71,
        "hand": "right"
      },
      {
        "midi": 48,
        "time": 87.321,
        "duration": 0.536,
        "velocity": 0.71,
        "hand": "left"
      },
      {
        "midi": 55,
        "time": 87.321,
        "duration": 0.536,
        "velocity": 0.71,
        "hand": "left"
      },
      {
        "midi": 48,
        "time": 87.857,
        "duration": 0.536,
        "velocity": 0.71,
        "hand": "left"
      },
      {
        "midi": 55,
        "time": 87.857,
        "duration": 0.536,
        "velocity": 0.71,
        "hand": "left"
      },
      {
        "midi": 48,
        "time": 88.393,
        "duration": 0.536,
        "velocity": 0.71,
        "hand": "left"
      },
      {
        "midi": 55,
        "time": 88.393,
        "duration": 0.536,
        "velocity": 0.71,
        "hand": "left"
      },
      {
        "midi": 48,
        "time": 88.929,
        "duration": 0.536,
        "velocity": 0.71,
        "hand": "left"
      },
      {
        "midi": 58,
        "time": 88.929,
        "duration": 0.536,
        "velocity": 0.71,
        "hand": "left"
      },
      {
        "midi": 48,
        "time": 89.464,
        "duration": 0.536,
        "velocity": 0.71,
        "hand": "left"
      },
      {
        "midi": 58,
        "time": 89.464,
        "duration": 0.536,
        "velocity": 0.71,
        "hand": "left"
      },
      {
        "midi": 48,
        "time": 90,
        "duration": 0.536,
        "velocity": 0.71,
        "hand": "left"
      },
      {
        "midi": 57,
        "time": 90,
        "duration": 0.536,
        "velocity": 0.71,
        "hand": "left"
      },
      {
        "midi": 66,
        "time": 90,
        "duration": 1.071,
        "velocity": 0.71,
        "hand": "right"
      },
      {
        "midi": 48,
        "time": 90.536,
        "duration": 0.536,
        "velocity": 0.71,
        "hand": "left"
      },
      {
        "midi": 52,
        "time": 90.536,
        "duration": 0.536,
        "velocity": 0.71,
        "hand": "left"
      },
      {
        "midi": 57,
        "time": 90.536,
        "duration": 0.536,
        "velocity": 0.71,
        "hand": "left"
      },
      {
        "midi": 47,
        "time": 91.071,
        "duration": 0.536,
        "velocity": 0.71,
        "hand": "left"
      },
      {
        "midi": 57,
        "time": 91.071,
        "duration": 0.536,
        "velocity": 0.71,
        "hand": "left"
      },
      {
        "midi": 64,
        "time": 91.071,
        "duration": 3.214,
        "velocity": 0.71,
        "hand": "right"
      },
      {
        "midi": 47,
        "time": 91.607,
        "duration": 0.536,
        "velocity": 0.71,
        "hand": "left"
      },
      {
        "midi": 52,
        "time": 91.607,
        "duration": 0.536,
        "velocity": 0.71,
        "hand": "left"
      },
      {
        "midi": 57,
        "time": 91.607,
        "duration": 0.536,
        "velocity": 0.71,
        "hand": "left"
      },
      {
        "midi": 47,
        "time": 92.143,
        "duration": 0.536,
        "velocity": 0.71,
        "hand": "left"
      },
      {
        "midi": 52,
        "time": 92.143,
        "duration": 0.536,
        "velocity": 0.71,
        "hand": "left"
      },
      {
        "midi": 56,
        "time": 92.143,
        "duration": 0.536,
        "velocity": 0.71,
        "hand": "left"
      },
      {
        "midi": 47,
        "time": 92.679,
        "duration": 0.536,
        "velocity": 0.71,
        "hand": "left"
      },
      {
        "midi": 52,
        "time": 92.679,
        "duration": 0.536,
        "velocity": 0.71,
        "hand": "left"
      },
      {
        "midi": 56,
        "time": 92.679,
        "duration": 0.536,
        "velocity": 0.71,
        "hand": "left"
      },
      {
        "midi": 47,
        "time": 93.214,
        "duration": 0.536,
        "velocity": 0.71,
        "hand": "left"
      },
      {
        "midi": 52,
        "time": 93.214,
        "duration": 0.536,
        "velocity": 0.71,
        "hand": "left"
      },
      {
        "midi": 55,
        "time": 93.214,
        "duration": 0.536,
        "velocity": 0.71,
        "hand": "left"
      },
      {
        "midi": 47,
        "time": 93.75,
        "duration": 0.536,
        "velocity": 0.71,
        "hand": "left"
      },
      {
        "midi": 52,
        "time": 93.75,
        "duration": 0.536,
        "velocity": 0.71,
        "hand": "left"
      },
      {
        "midi": 55,
        "time": 93.75,
        "duration": 0.536,
        "velocity": 0.71,
        "hand": "left"
      },
      {
        "midi": 47,
        "time": 94.286,
        "duration": 0.536,
        "velocity": 0.71,
        "hand": "left"
      },
      {
        "midi": 55,
        "time": 94.286,
        "duration": 0.536,
        "velocity": 0.71,
        "hand": "left"
      },
      {
        "midi": 66,
        "time": 94.286,
        "duration": 1.071,
        "velocity": 0.71,
        "hand": "right"
      },
      {
        "midi": 47,
        "time": 94.821,
        "duration": 0.536,
        "velocity": 0.71,
        "hand": "left"
      },
      {
        "midi": 52,
        "time": 94.821,
        "duration": 0.536,
        "velocity": 0.71,
        "hand": "left"
      },
      {
        "midi": 55,
        "time": 94.821,
        "duration": 0.536,
        "velocity": 0.71,
        "hand": "left"
      },
      {
        "midi": 46,
        "time": 95.357,
        "duration": 2.143,
        "velocity": 0.71,
        "hand": "left"
      },
      {
        "midi": 55,
        "time": 95.357,
        "duration": 2.143,
        "velocity": 0.71,
        "hand": "left"
      },
      {
        "midi": 64,
        "time": 95.357,
        "duration": 2.143,
        "velocity": 0.71,
        "hand": "right"
      },
      {
        "midi": 35,
        "time": 99.643,
        "duration": 2.143,
        "velocity": 0.71,
        "hand": "left"
      },
      {
        "midi": 54,
        "time": 99.643,
        "duration": 2.143,
        "velocity": 0.71,
        "hand": "left"
      },
      {
        "midi": 64,
        "time": 99.643,
        "duration": 2.143,
        "velocity": 0.71,
        "hand": "right"
      },
      {
        "midi": 35,
        "time": 101.786,
        "duration": 2.143,
        "velocity": 0.71,
        "hand": "left"
      },
      {
        "midi": 51,
        "time": 101.786,
        "duration": 2.143,
        "velocity": 0.71,
        "hand": "left"
      },
      {
        "midi": 63,
        "time": 101.786,
        "duration": 2.143,
        "velocity": 0.71,
        "hand": "right"
      },
      {
        "midi": 28,
        "time": 103.929,
        "duration": 4.286,
        "velocity": 0.71,
        "hand": "left"
      },
      {
        "midi": 55,
        "time": 103.929,
        "duration": 4.286,
        "velocity": 0.71,
        "hand": "left"
      },
      {
        "midi": 64,
        "time": 103.929,
        "duration": 4.286,
        "velocity": 0.71,
        "hand": "right"
      }
    ],
    "hard": [
      {
        "midi": 59,
        "time": 0,
        "duration": 0.804,
        "velocity": 0.71,
        "hand": "left"
      },
      {
        "midi": 71,
        "time": 0.804,
        "duration": 0.268,
        "velocity": 0.71,
        "hand": "right"
      },
      {
        "midi": 55,
        "time": 1.071,
        "duration": 0.536,
        "velocity": 0.71,
        "hand": "left"
      },
      {
        "midi": 59,
        "time": 1.071,
        "duration": 0.536,
        "velocity": 0.71,
        "hand": "left"
      },
      {
        "midi": 64,
        "time": 1.071,
        "duration": 0.536,
        "velocity": 0.71,
        "hand": "right"
      },
      {
        "midi": 71,
        "time": 1.071,
        "duration": 3.214,
        "velocity": 0.71,
        "hand": "right"
      },
      {
        "midi": 55,
        "time": 1.607,
        "duration": 0.536,
        "velocity": 0.71,
        "hand": "left"
      },
      {
        "midi": 59,
        "time": 1.607,
        "duration": 0.536,
        "velocity": 0.71,
        "hand": "left"
      },
      {
        "midi": 64,
        "time": 1.607,
        "duration": 0.536,
        "velocity": 0.71,
        "hand": "right"
      },
      {
        "midi": 55,
        "time": 2.143,
        "duration": 0.536,
        "velocity": 0.71,
        "hand": "left"
      },
      {
        "midi": 59,
        "time": 2.143,
        "duration": 0.536,
        "velocity": 0.71,
        "hand": "left"
      },
      {
        "midi": 64,
        "time": 2.143,
        "duration": 0.536,
        "velocity": 0.71,
        "hand": "right"
      },
      {
        "midi": 55,
        "time": 2.679,
        "duration": 0.536,
        "velocity": 0.71,
        "hand": "left"
      },
      {
        "midi": 59,
        "time": 2.679,
        "duration": 0.536,
        "velocity": 0.71,
        "hand": "left"
      },
      {
        "midi": 64,
        "time": 2.679,
        "duration": 0.536,
        "velocity": 0.71,
        "hand": "right"
      },
      {
        "midi": 55,
        "time": 3.214,
        "duration": 0.536,
        "velocity": 0.71,
        "hand": "left"
      },
      {
        "midi": 59,
        "time": 3.214,
        "duration": 0.536,
        "velocity": 0.71,
        "hand": "left"
      },
      {
        "midi": 64,
        "time": 3.214,
        "duration": 0.536,
        "velocity": 0.71,
        "hand": "right"
      },
      {
        "midi": 55,
        "time": 3.75,
        "duration": 0.536,
        "velocity": 0.71,
        "hand": "left"
      },
      {
        "midi": 59,
        "time": 3.75,
        "duration": 0.536,
        "velocity": 0.71,
        "hand": "left"
      },
      {
        "midi": 64,
        "time": 3.75,
        "duration": 0.536,
        "velocity": 0.71,
        "hand": "right"
      },
      {
        "midi": 55,
        "time": 4.286,
        "duration": 0.536,
        "velocity": 0.71,
        "hand": "left"
      },
      {
        "midi": 59,
        "time": 4.286,
        "duration": 0.536,
        "velocity": 0.71,
        "hand": "left"
      },
      {
        "midi": 64,
        "time": 4.286,
        "duration": 0.536,
        "velocity": 0.71,
        "hand": "right"
      },
      {
        "midi": 72,
        "time": 4.286,
        "duration": 1.071,
        "velocity": 0.71,
        "hand": "right"
      },
      {
        "midi": 55,
        "time": 4.821,
        "duration": 0.536,
        "velocity": 0.71,
        "hand": "left"
      },
      {
        "midi": 59,
        "time": 4.821,
        "duration": 0.536,
        "velocity": 0.71,
        "hand": "left"
      },
      {
        "midi": 64,
        "time": 4.821,
        "duration": 0.536,
        "velocity": 0.71,
        "hand": "right"
      },
      {
        "midi": 54,
        "time": 5.357,
        "duration": 0.536,
        "velocity": 0.71,
        "hand": "left"
      },
      {
        "midi": 57,
        "time": 5.357,
        "duration": 0.536,
        "velocity": 0.71,
        "hand": "left"
      },
      {
        "midi": 64,
        "time": 5.357,
        "duration": 0.536,
        "velocity": 0.71,
        "hand": "right"
      },
      {
        "midi": 71,
        "time": 5.357,
        "duration": 3.214,
        "velocity": 0.71,
        "hand": "right"
      },
      {
        "midi": 54,
        "time": 5.893,
        "duration": 0.536,
        "velocity": 0.71,
        "hand": "left"
      },
      {
        "midi": 57,
        "time": 5.893,
        "duration": 0.536,
        "velocity": 0.71,
        "hand": "left"
      },
      {
        "midi": 64,
        "time": 5.893,
        "duration": 0.536,
        "velocity": 0.71,
        "hand": "right"
      },
      {
        "midi": 54,
        "time": 6.429,
        "duration": 0.536,
        "velocity": 0.71,
        "hand": "left"
      },
      {
        "midi": 57,
        "time": 6.429,
        "duration": 0.536,
        "velocity": 0.71,
        "hand": "left"
      },
      {
        "midi": 64,
        "time": 6.429,
        "duration": 0.536,
        "velocity": 0.71,
        "hand": "right"
      },
      {
        "midi": 54,
        "time": 6.964,
        "duration": 0.536,
        "velocity": 0.71,
        "hand": "left"
      },
      {
        "midi": 57,
        "time": 6.964,
        "duration": 0.536,
        "velocity": 0.71,
        "hand": "left"
      },
      {
        "midi": 64,
        "time": 6.964,
        "duration": 0.536,
        "velocity": 0.71,
        "hand": "right"
      },
      {
        "midi": 54,
        "time": 7.5,
        "duration": 0.536,
        "velocity": 0.71,
        "hand": "left"
      },
      {
        "midi": 57,
        "time": 7.5,
        "duration": 0.536,
        "velocity": 0.71,
        "hand": "left"
      },
      {
        "midi": 63,
        "time": 7.5,
        "duration": 0.536,
        "velocity": 0.71,
        "hand": "right"
      },
      {
        "midi": 54,
        "time": 8.036,
        "duration": 0.536,
        "velocity": 0.71,
        "hand": "left"
      },
      {
        "midi": 57,
        "time": 8.036,
        "duration": 0.536,
        "velocity": 0.71,
        "hand": "left"
      },
      {
        "midi": 63,
        "time": 8.036,
        "duration": 0.536,
        "velocity": 0.71,
        "hand": "right"
      },
      {
        "midi": 54,
        "time": 8.571,
        "duration": 0.536,
        "velocity": 0.71,
        "hand": "left"
      },
      {
        "midi": 57,
        "time": 8.571,
        "duration": 0.536,
        "velocity": 0.71,
        "hand": "left"
      },
      {
        "midi": 63,
        "time": 8.571,
        "duration": 0.536,
        "velocity": 0.71,
        "hand": "right"
      },
      {
        "midi": 72,
        "time": 8.571,
        "duration": 1.071,
        "velocity": 0.71,
        "hand": "right"
      },
      {
        "midi": 54,
        "time": 9.107,
        "duration": 0.536,
        "velocity": 0.71,
        "hand": "left"
      },
      {
        "midi": 57,
        "time": 9.107,
        "duration": 0.536,
        "velocity": 0.71,
        "hand": "left"
      },
      {
        "midi": 63,
        "time": 9.107,
        "duration": 0.536,
        "velocity": 0.71,
        "hand": "right"
      },
      {
        "midi": 53,
        "time": 9.643,
        "duration": 0.536,
        "velocity": 0.71,
        "hand": "left"
      },
      {
        "midi": 57,
        "time": 9.643,
        "duration": 0.536,
        "velocity": 0.71,
        "hand": "left"
      },
      {
        "midi": 63,
        "time": 9.643,
        "duration": 0.536,
        "velocity": 0.71,
        "hand": "right"
      },
      {
        "midi": 71,
        "time": 9.643,
        "duration": 3.214,
        "velocity": 0.71,
        "hand": "right"
      },
      {
        "midi": 53,
        "time": 10.179,
        "duration": 0.536,
        "velocity": 0.71,
        "hand": "left"
      },
      {
        "midi": 57,
        "time": 10.179,
        "duration": 0.536,
        "velocity": 0.71,
        "hand": "left"
      },
      {
        "midi": 63,
        "time": 10.179,
        "duration": 0.536,
        "velocity": 0.71,
        "hand": "right"
      },
      {
        "midi": 53,
        "time": 10.714,
        "duration": 0.536,
        "velocity": 0.71,
        "hand": "left"
      },
      {
        "midi": 57,
        "time": 10.714,
        "duration": 0.536,
        "velocity": 0.71,
        "hand": "left"
      },
      {
        "midi": 63,
        "time": 10.714,
        "duration": 0.536,
        "velocity": 0.71,
        "hand": "right"
      },
      {
        "midi": 53,
        "time": 11.25,
        "duration": 0.536,
        "velocity": 0.71,
        "hand": "left"
      },
      {
        "midi": 57,
        "time": 11.25,
        "duration": 0.536,
        "velocity": 0.71,
        "hand": "left"
      },
      {
        "midi": 63,
        "time": 11.25,
        "duration": 0.536,
        "velocity": 0.71,
        "hand": "right"
      },
      {
        "midi": 53,
        "time": 11.786,
        "duration": 0.536,
        "velocity": 0.71,
        "hand": "left"
      },
      {
        "midi": 57,
        "time": 11.786,
        "duration": 0.536,
        "velocity": 0.71,
        "hand": "left"
      },
      {
        "midi": 62,
        "time": 11.786,
        "duration": 0.536,
        "velocity": 0.71,
        "hand": "right"
      },
      {
        "midi": 53,
        "time": 12.321,
        "duration": 0.536,
        "velocity": 0.71,
        "hand": "left"
      },
      {
        "midi": 57,
        "time": 12.321,
        "duration": 0.536,
        "velocity": 0.71,
        "hand": "left"
      },
      {
        "midi": 62,
        "time": 12.321,
        "duration": 0.536,
        "velocity": 0.71,
        "hand": "right"
      },
      {
        "midi": 53,
        "time": 12.857,
        "duration": 0.536,
        "velocity": 0.71,
        "hand": "left"
      },
      {
        "midi": 56,
        "time": 12.857,
        "duration": 0.536,
        "velocity": 0.71,
        "hand": "left"
      },
      {
        "midi": 62,
        "time": 12.857,
        "duration": 0.536,
        "velocity": 0.71,
        "hand": "right"
      },
      {
        "midi": 72,
        "time": 12.857,
        "duration": 1.071,
        "velocity": 0.71,
        "hand": "right"
      },
      {
        "midi": 53,
        "time": 13.393,
        "duration": 0.536,
        "velocity": 0.71,
        "hand": "left"
      },
      {
        "midi": 56,
        "time": 13.393,
        "duration": 0.536,
        "velocity": 0.71,
        "hand": "left"
      },
      {
        "midi": 62,
        "time": 13.393,
        "duration": 0.536,
        "velocity": 0.71,
        "hand": "right"
      },
      {
        "midi": 52,
        "time": 13.929,
        "duration": 0.536,
        "velocity": 0.71,
        "hand": "left"
      },
      {
        "midi": 56,
        "time": 13.929,
        "duration": 0.536,
        "velocity": 0.71,
        "hand": "left"
      },
      {
        "midi": 62,
        "time": 13.929,
        "duration": 0.536,
        "velocity": 0.71,
        "hand": "right"
      },
      {
        "midi": 71,
        "time": 13.929,
        "duration": 3.214,
        "velocity": 0.71,
        "hand": "right"
      },
      {
        "midi": 52,
        "time": 14.464,
        "duration": 0.536,
        "velocity": 0.71,
        "hand": "left"
      },
      {
        "midi": 56,
        "time": 14.464,
        "duration": 0.536,
        "velocity": 0.71,
        "hand": "left"
      },
      {
        "midi": 62,
        "time": 14.464,
        "duration": 0.536,
        "velocity": 0.71,
        "hand": "right"
      },
      {
        "midi": 52,
        "time": 15,
        "duration": 0.536,
        "velocity": 0.71,
        "hand": "left"
      },
      {
        "midi": 56,
        "time": 15,
        "duration": 0.536,
        "velocity": 0.71,
        "hand": "left"
      },
      {
        "midi": 62,
        "time": 15,
        "duration": 0.536,
        "velocity": 0.71,
        "hand": "right"
      },
      {
        "midi": 52,
        "time": 15.536,
        "duration": 0.536,
        "velocity": 0.71,
        "hand": "left"
      },
      {
        "midi": 56,
        "time": 15.536,
        "duration": 0.536,
        "velocity": 0.71,
        "hand": "left"
      },
      {
        "midi": 62,
        "time": 15.536,
        "duration": 0.536,
        "velocity": 0.71,
        "hand": "right"
      },
      {
        "midi": 52,
        "time": 16.071,
        "duration": 0.536,
        "velocity": 0.71,
        "hand": "left"
      },
      {
        "midi": 55,
        "time": 16.071,
        "duration": 0.536,
        "velocity": 0.71,
        "hand": "left"
      },
      {
        "midi": 62,
        "time": 16.071,
        "duration": 0.536,
        "velocity": 0.71,
        "hand": "right"
      },
      {
        "midi": 52,
        "time": 16.607,
        "duration": 0.536,
        "velocity": 0.71,
        "hand": "left"
      },
      {
        "midi": 55,
        "time": 16.607,
        "duration": 0.536,
        "velocity": 0.71,
        "hand": "left"
      },
      {
        "midi": 62,
        "time": 16.607,
        "duration": 0.536,
        "velocity": 0.71,
        "hand": "right"
      },
      {
        "midi": 52,
        "time": 17.143,
        "duration": 0.536,
        "velocity": 0.71,
        "hand": "left"
      },
      {
        "midi": 55,
        "time": 17.143,
        "duration": 0.536,
        "velocity": 0.71,
        "hand": "left"
      },
      {
        "midi": 61,
        "time": 17.143,
        "duration": 0.536,
        "velocity": 0.71,
        "hand": "right"
      },
      {
        "midi": 70,
        "time": 17.143,
        "duration": 1.071,
        "velocity": 0.71,
        "hand": "right"
      },
      {
        "midi": 52,
        "time": 17.679,
        "duration": 0.536,
        "velocity": 0.71,
        "hand": "left"
      },
      {
        "midi": 55,
        "time": 17.679,
        "duration": 0.536,
        "velocity": 0.71,
        "hand": "left"
      },
      {
        "midi": 61,
        "time": 17.679,
        "duration": 0.536,
        "velocity": 0.71,
        "hand": "right"
      },
      {
        "midi": 52,
        "time": 18.214,
        "duration": 0.536,
        "velocity": 0.71,
        "hand": "left"
      },
      {
        "midi": 55,
        "time": 18.214,
        "duration": 0.536,
        "velocity": 0.71,
        "hand": "left"
      },
      {
        "midi": 60,
        "time": 18.214,
        "duration": 0.536,
        "velocity": 0.71,
        "hand": "right"
      },
      {
        "midi": 69,
        "time": 18.214,
        "duration": 3.214,
        "velocity": 0.71,
        "hand": "right"
      },
      {
        "midi": 52,
        "time": 18.75,
        "duration": 0.536,
        "velocity": 0.71,
        "hand": "left"
      },
      {
        "midi": 55,
        "time": 18.75,
        "duration": 0.536,
        "velocity": 0.71,
        "hand": "left"
      },
      {
        "midi": 60,
        "time": 18.75,
        "duration": 0.536,
        "velocity": 0.71,
        "hand": "right"
      },
      {
        "midi": 52,
        "time": 19.286,
        "duration": 0.536,
        "velocity": 0.71,
        "hand": "left"
      },
      {
        "midi": 55,
        "time": 19.286,
        "duration": 0.536,
        "velocity": 0.71,
        "hand": "left"
      },
      {
        "midi": 60,
        "time": 19.286,
        "duration": 0.536,
        "velocity": 0.71,
        "hand": "right"
      },
      {
        "midi": 52,
        "time": 19.821,
        "duration": 0.536,
        "velocity": 0.71,
        "hand": "left"
      },
      {
        "midi": 55,
        "time": 19.821,
        "duration": 0.536,
        "velocity": 0.71,
        "hand": "left"
      },
      {
        "midi": 60,
        "time": 19.821,
        "duration": 0.536,
        "velocity": 0.71,
        "hand": "right"
      },
      {
        "midi": 52,
        "time": 20.357,
        "duration": 0.536,
        "velocity": 0.71,
        "hand": "left"
      },
      {
        "midi": 54,
        "time": 20.357,
        "duration": 0.536,
        "velocity": 0.71,
        "hand": "left"
      },
      {
        "midi": 60,
        "time": 20.357,
        "duration": 0.536,
        "velocity": 0.71,
        "hand": "right"
      },
      {
        "midi": 52,
        "time": 20.893,
        "duration": 0.536,
        "velocity": 0.71,
        "hand": "left"
      },
      {
        "midi": 54,
        "time": 20.893,
        "duration": 0.536,
        "velocity": 0.71,
        "hand": "left"
      },
      {
        "midi": 60,
        "time": 20.893,
        "duration": 0.536,
        "velocity": 0.71,
        "hand": "right"
      },
      {
        "midi": 52,
        "time": 21.429,
        "duration": 0.536,
        "velocity": 0.71,
        "hand": "left"
      },
      {
        "midi": 54,
        "time": 21.429,
        "duration": 0.536,
        "velocity": 0.71,
        "hand": "left"
      },
      {
        "midi": 60,
        "time": 21.429,
        "duration": 0.536,
        "velocity": 0.71,
        "hand": "right"
      },
      {
        "midi": 71,
        "time": 21.429,
        "duration": 1.071,
        "velocity": 0.71,
        "hand": "right"
      },
      {
        "midi": 52,
        "time": 21.964,
        "duration": 0.536,
        "velocity": 0.71,
        "hand": "left"
      },
      {
        "midi": 54,
        "time": 21.964,
        "duration": 0.536,
        "velocity": 0.71,
        "hand": "left"
      },
      {
        "midi": 60,
        "time": 21.964,
        "duration": 0.536,
        "velocity": 0.71,
        "hand": "right"
      },
      {
        "midi": 52,
        "time": 22.5,
        "duration": 0.536,
        "velocity": 0.71,
        "hand": "left"
      },
      {
        "midi": 54,
        "time": 22.5,
        "duration": 0.536,
        "velocity": 0.71,
        "hand": "left"
      },
      {
        "midi": 60,
        "time": 22.5,
        "duration": 0.536,
        "velocity": 0.71,
        "hand": "right"
      },
      {
        "midi": 69,
        "time": 22.5,
        "duration": 3.214,
        "velocity": 0.71,
        "hand": "right"
      },
      {
        "midi": 52,
        "time": 23.036,
        "duration": 0.536,
        "velocity": 0.71,
        "hand": "left"
      },
      {
        "midi": 54,
        "time": 23.036,
        "duration": 0.536,
        "velocity": 0.71,
        "hand": "left"
      },
      {
        "midi": 60,
        "time": 23.036,
        "duration": 0.536,
        "velocity": 0.71,
        "hand": "right"
      },
      {
        "midi": 52,
        "time": 23.571,
        "duration": 0.536,
        "velocity": 0.71,
        "hand": "left"
      },
      {
        "midi": 54,
        "time": 23.571,
        "duration": 0.536,
        "velocity": 0.71,
        "hand": "left"
      },
      {
        "midi": 60,
        "time": 23.571,
        "duration": 0.536,
        "velocity": 0.71,
        "hand": "right"
      },
      {
        "midi": 52,
        "time": 24.107,
        "duration": 0.536,
        "velocity": 0.71,
        "hand": "left"
      },
      {
        "midi": 54,
        "time": 24.107,
        "duration": 0.536,
        "velocity": 0.71,
        "hand": "left"
      },
      {
        "midi": 60,
        "time": 24.107,
        "duration": 0.536,
        "velocity": 0.71,
        "hand": "right"
      },
      {
        "midi": 51,
        "time": 24.643,
        "duration": 0.536,
        "velocity": 0.71,
        "hand": "left"
      },
      {
        "midi": 54,
        "time": 24.643,
        "duration": 0.536,
        "velocity": 0.71,
        "hand": "left"
      },
      {
        "midi": 60,
        "time": 24.643,
        "duration": 0.536,
        "velocity": 0.71,
        "hand": "right"
      },
      {
        "midi": 51,
        "time": 25.179,
        "duration": 0.536,
        "velocity": 0.71,
        "hand": "left"
      },
      {
        "midi": 54,
        "time": 25.179,
        "duration": 0.536,
        "velocity": 0.71,
        "hand": "left"
      },
      {
        "midi": 60,
        "time": 25.179,
        "duration": 0.536,
        "velocity": 0.71,
        "hand": "right"
      },
      {
        "midi": 51,
        "time": 25.714,
        "duration": 0.536,
        "velocity": 0.71,
        "hand": "left"
      },
      {
        "midi": 54,
        "time": 25.714,
        "duration": 0.536,
        "velocity": 0.71,
        "hand": "left"
      },
      {
        "midi": 60,
        "time": 25.714,
        "duration": 0.536,
        "velocity": 0.71,
        "hand": "right"
      },
      {
        "midi": 71,
        "time": 25.714,
        "duration": 1.071,
        "velocity": 0.71,
        "hand": "right"
      },
      {
        "midi": 51,
        "time": 26.25,
        "duration": 0.536,
        "velocity": 0.71,
        "hand": "left"
      },
      {
        "midi": 54,
        "time": 26.25,
        "duration": 0.536,
        "velocity": 0.71,
        "hand": "left"
      },
      {
        "midi": 60,
        "time": 26.25,
        "duration": 0.536,
        "velocity": 0.71,
        "hand": "right"
      },
      {
        "midi": 50,
        "time": 26.786,
        "duration": 0.536,
        "velocity": 0.71,
        "hand": "left"
      },
      {
        "midi": 54,
        "time": 26.786,
        "duration": 0.536,
        "velocity": 0.71,
        "hand": "left"
      },
      {
        "midi": 60,
        "time": 26.786,
        "duration": 0.536,
        "velocity": 0.71,
        "hand": "right"
      },
      {
        "midi": 69,
        "time": 26.786,
        "duration": 3.214,
        "velocity": 0.71,
        "hand": "right"
      },
      {
        "midi": 50,
        "time": 27.321,
        "duration": 0.536,
        "velocity": 0.71,
        "hand": "left"
      },
      {
        "midi": 54,
        "time": 27.321,
        "duration": 0.536,
        "velocity": 0.71,
        "hand": "left"
      },
      {
        "midi": 60,
        "time": 27.321,
        "duration": 0.536,
        "velocity": 0.71,
        "hand": "right"
      },
      {
        "midi": 50,
        "time": 27.857,
        "duration": 0.536,
        "velocity": 0.71,
        "hand": "left"
      },
      {
        "midi": 54,
        "time": 27.857,
        "duration": 0.536,
        "velocity": 0.71,
        "hand": "left"
      },
      {
        "midi": 60,
        "time": 27.857,
        "duration": 0.536,
        "velocity": 0.71,
        "hand": "right"
      },
      {
        "midi": 50,
        "time": 28.393,
        "duration": 0.536,
        "velocity": 0.71,
        "hand": "left"
      },
      {
        "midi": 54,
        "time": 28.393,
        "duration": 0.536,
        "velocity": 0.71,
        "hand": "left"
      },
      {
        "midi": 60,
        "time": 28.393,
        "duration": 0.536,
        "velocity": 0.71,
        "hand": "right"
      },
      {
        "midi": 50,
        "time": 28.929,
        "duration": 0.536,
        "velocity": 0.71,
        "hand": "left"
      },
      {
        "midi": 54,
        "time": 28.929,
        "duration": 0.536,
        "velocity": 0.71,
        "hand": "left"
      },
      {
        "midi": 60,
        "time": 28.929,
        "duration": 0.536,
        "velocity": 0.71,
        "hand": "right"
      },
      {
        "midi": 50,
        "time": 29.464,
        "duration": 0.536,
        "velocity": 0.71,
        "hand": "left"
      },
      {
        "midi": 54,
        "time": 29.464,
        "duration": 0.536,
        "velocity": 0.71,
        "hand": "left"
      },
      {
        "midi": 60,
        "time": 29.464,
        "duration": 0.536,
        "velocity": 0.71,
        "hand": "right"
      },
      {
        "midi": 50,
        "time": 30,
        "duration": 0.536,
        "velocity": 0.71,
        "hand": "left"
      },
      {
        "midi": 54,
        "time": 30,
        "duration": 0.536,
        "velocity": 0.71,
        "hand": "left"
      },
      {
        "midi": 60,
        "time": 30,
        "duration": 0.536,
        "velocity": 0.71,
        "hand": "right"
      },
      {
        "midi": 71,
        "time": 30,
        "duration": 0.804,
        "velocity": 0.71,
        "hand": "right"
      },
      {
        "midi": 50,
        "time": 30.536,
        "duration": 0.536,
        "velocity": 0.71,
        "hand": "left"
      },
      {
        "midi": 54,
        "time": 30.536,
        "duration": 0.536,
        "velocity": 0.71,
        "hand": "left"
      },
      {
        "midi": 60,
        "time": 30.536,
        "duration": 0.536,
        "velocity": 0.71,
        "hand": "right"
      },
      {
        "midi": 69,
        "time": 30.804,
        "duration": 0.268,
        "velocity": 0.71,
        "hand": "right"
      },
      {
        "midi": 50,
        "time": 31.071,
        "duration": 0.536,
        "velocity": 0.71,
        "hand": "left"
      },
      {
        "midi": 53,
        "time": 31.071,
        "duration": 0.536,
        "velocity": 0.71,
        "hand": "left"
      },
      {
        "midi": 60,
        "time": 31.071,
        "duration": 0.536,
        "velocity": 0.71,
        "hand": "right"
      },
      {
        "midi": 69,
        "time": 31.071,
        "duration": 3.214,
        "velocity": 0.71,
        "hand": "right"
      },
      {
        "midi": 50,
        "time": 31.607,
        "duration": 0.536,
        "velocity": 0.71,
        "hand": "left"
      },
      {
        "midi": 53,
        "time": 31.607,
        "duration": 0.536,
        "velocity": 0.71,
        "hand": "left"
      },
      {
        "midi": 60,
        "time": 31.607,
        "duration": 0.536,
        "velocity": 0.71,
        "hand": "right"
      },
      {
        "midi": 50,
        "time": 32.143,
        "duration": 0.536,
        "velocity": 0.71,
        "hand": "left"
      },
      {
        "midi": 53,
        "time": 32.143,
        "duration": 0.536,
        "velocity": 0.71,
        "hand": "left"
      },
      {
        "midi": 60,
        "time": 32.143,
        "duration": 0.536,
        "velocity": 0.71,
        "hand": "right"
      },
      {
        "midi": 50,
        "time": 32.679,
        "duration": 0.536,
        "velocity": 0.71,
        "hand": "left"
      },
      {
        "midi": 53,
        "time": 32.679,
        "duration": 0.536,
        "velocity": 0.71,
        "hand": "left"
      },
      {
        "midi": 60,
        "time": 32.679,
        "duration": 0.536,
        "velocity": 0.71,
        "hand": "right"
      },
      {
        "midi": 50,
        "time": 33.214,
        "duration": 0.536,
        "velocity": 0.71,
        "hand": "left"
      },
      {
        "midi": 53,
        "time": 33.214,
        "duration": 0.536,
        "velocity": 0.71,
        "hand": "left"
      },
      {
        "midi": 59,
        "time": 33.214,
        "duration": 0.536,
        "velocity": 0.71,
        "hand": "left"
      },
      {
        "midi": 50,
        "time": 33.75,
        "duration": 0.536,
        "velocity": 0.71,
        "hand": "left"
      },
      {
        "midi": 53,
        "time": 33.75,
        "duration": 0.536,
        "velocity": 0.71,
        "hand": "left"
      },
      {
        "midi": 59,
        "time": 33.75,
        "duration": 0.536,
        "velocity": 0.71,
        "hand": "left"
      },
      {
        "midi": 50,
        "time": 34.286,
        "duration": 0.536,
        "velocity": 0.71,
        "hand": "left"
      },
      {
        "midi": 53,
        "time": 34.286,
        "duration": 0.536,
        "velocity": 0.71,
        "hand": "left"
      },
      {
        "midi": 59,
        "time": 34.286,
        "duration": 0.536,
        "velocity": 0.71,
        "hand": "left"
      },
      {
        "midi": 68,
        "time": 34.286,
        "duration": 2.143,
        "velocity": 0.71,
        "hand": "right"
      },
      {
        "midi": 50,
        "time": 34.821,
        "duration": 0.536,
        "velocity": 0.71,
        "hand": "left"
      },
      {
        "midi": 53,
        "time": 34.821,
        "duration": 0.536,
        "velocity": 0.71,
        "hand": "left"
      },
      {
        "midi": 59,
        "time": 34.821,
        "duration": 0.536,
        "velocity": 0.71,
        "hand": "left"
      },
      {
        "midi": 48,
        "time": 35.357,
        "duration": 0.536,
        "velocity": 0.71,
        "hand": "left"
      },
      {
        "midi": 52,
        "time": 35.357,
        "duration": 0.536,
        "velocity": 0.71,
        "hand": "left"
      },
      {
        "midi": 59,
        "time": 35.357,
        "duration": 0.536,
        "velocity": 0.71,
        "hand": "left"
      },
      {
        "midi": 48,
        "time": 35.893,
        "duration": 0.536,
        "velocity": 0.71,
        "hand": "left"
      },
      {
        "midi": 52,
        "time": 35.893,
        "duration": 0.536,
        "velocity": 0.71,
        "hand": "left"
      },
      {
        "midi": 59,
        "time": 35.893,
        "duration": 0.536,
        "velocity": 0.71,
        "hand": "left"
      },
      {
        "midi": 48,
        "time": 36.429,
        "duration": 0.536,
        "velocity": 0.71,
        "hand": "left"
      },
      {
        "midi": 52,
        "time": 36.429,
        "duration": 0.536,
        "velocity": 0.71,
        "hand": "left"
      },
      {
        "midi": 57,
        "time": 36.429,
        "duration": 0.536,
        "velocity": 0.71,
        "hand": "left"
      },
      {
        "midi": 69,
        "time": 36.429,
        "duration": 0.536,
        "velocity": 0.71,
        "hand": "right"
      },
      {
        "midi": 48,
        "time": 36.964,
        "duration": 0.536,
        "velocity": 0.71,
        "hand": "left"
      },
      {
        "midi": 52,
        "time": 36.964,
        "duration": 0.536,
        "velocity": 0.71,
        "hand": "left"
      },
      {
        "midi": 57,
        "time": 36.964,
        "duration": 0.536,
        "velocity": 0.71,
        "hand": "left"
      },
      {
        "midi": 71,
        "time": 36.964,
        "duration": 0.536,
        "velocity": 0.71,
        "hand": "right"
      },
      {
        "midi": 48,
        "time": 37.5,
        "duration": 0.536,
        "velocity": 0.71,
        "hand": "left"
      },
      {
        "midi": 52,
        "time": 37.5,
        "duration": 0.536,
        "velocity": 0.71,
        "hand": "left"
      },
      {
        "midi": 57,
        "time": 37.5,
        "duration": 0.536,
        "velocity": 0.71,
        "hand": "left"
      },
      {
        "midi": 74,
        "time": 37.5,
        "duration": 0.536,
        "velocity": 0.71,
        "hand": "right"
      },
      {
        "midi": 48,
        "time": 38.036,
        "duration": 0.536,
        "velocity": 0.71,
        "hand": "left"
      },
      {
        "midi": 52,
        "time": 38.036,
        "duration": 0.536,
        "velocity": 0.71,
        "hand": "left"
      },
      {
        "midi": 57,
        "time": 38.036,
        "duration": 0.536,
        "velocity": 0.71,
        "hand": "left"
      },
      {
        "midi": 72,
        "time": 38.036,
        "duration": 0.536,
        "velocity": 0.71,
        "hand": "right"
      },
      {
        "midi": 48,
        "time": 38.571,
        "duration": 0.536,
        "velocity": 0.71,
        "hand": "left"
      },
      {
        "midi": 52,
        "time": 38.571,
        "duration": 0.536,
        "velocity": 0.71,
        "hand": "left"
      },
      {
        "midi": 57,
        "time": 38.571,
        "duration": 0.536,
        "velocity": 0.71,
        "hand": "left"
      },
      {
        "midi": 64,
        "time": 38.571,
        "duration": 0.536,
        "velocity": 0.71,
        "hand": "right"
      },
      {
        "midi": 48,
        "time": 39.107,
        "duration": 0.536,
        "velocity": 0.71,
        "hand": "left"
      },
      {
        "midi": 52,
        "time": 39.107,
        "duration": 0.536,
        "velocity": 0.71,
        "hand": "left"
      },
      {
        "midi": 57,
        "time": 39.107,
        "duration": 0.536,
        "velocity": 0.71,
        "hand": "left"
      },
      {
        "midi": 69,
        "time": 39.107,
        "duration": 0.536,
        "velocity": 0.71,
        "hand": "right"
      },
      {
        "midi": 47,
        "time": 39.643,
        "duration": 0.536,
        "velocity": 0.71,
        "hand": "left"
      },
      {
        "midi": 52,
        "time": 39.643,
        "duration": 0.536,
        "velocity": 0.71,
        "hand": "left"
      },
      {
        "midi": 57,
        "time": 39.643,
        "duration": 0.536,
        "velocity": 0.71,
        "hand": "left"
      },
      {
        "midi": 66,
        "time": 39.643,
        "duration": 3.214,
        "velocity": 0.71,
        "hand": "right"
      },
      {
        "midi": 47,
        "time": 40.179,
        "duration": 0.536,
        "velocity": 0.71,
        "hand": "left"
      },
      {
        "midi": 52,
        "time": 40.179,
        "duration": 0.536,
        "velocity": 0.71,
        "hand": "left"
      },
      {
        "midi": 57,
        "time": 40.179,
        "duration": 0.536,
        "velocity": 0.71,
        "hand": "left"
      },
      {
        "midi": 47,
        "time": 40.714,
        "duration": 0.536,
        "velocity": 0.71,
        "hand": "left"
      },
      {
        "midi": 51,
        "time": 40.714,
        "duration": 0.536,
        "velocity": 0.71,
        "hand": "left"
      },
      {
        "midi": 57,
        "time": 40.714,
        "duration": 0.536,
        "velocity": 0.71,
        "hand": "left"
      },
      {
        "midi": 47,
        "time": 41.25,
        "duration": 0.536,
        "velocity": 0.71,
        "hand": "left"
      },
      {
        "midi": 51,
        "time": 41.25,
        "duration": 0.536,
        "velocity": 0.71,
        "hand": "left"
      },
      {
        "midi": 57,
        "time": 41.25,
        "duration": 0.536,
        "velocity": 0.71,
        "hand": "left"
      },
      {
        "midi": 48,
        "time": 41.786,
        "duration": 0.536,
        "velocity": 0.71,
        "hand": "left"
      },
      {
        "midi": 52,
        "time": 41.786,
        "duration": 0.536,
        "velocity": 0.71,
        "hand": "left"
      },
      {
        "midi": 57,
        "time": 41.786,
        "duration": 0.536,
        "velocity": 0.71,
        "hand": "left"
      },
      {
        "midi": 48,
        "time": 42.321,
        "duration": 0.536,
        "velocity": 0.71,
        "hand": "left"
      },
      {
        "midi": 52,
        "time": 42.321,
        "duration": 0.536,
        "velocity": 0.71,
        "hand": "left"
      },
      {
        "midi": 57,
        "time": 42.321,
        "duration": 0.536,
        "velocity": 0.71,
        "hand": "left"
      },
      {
        "midi": 48,
        "time": 42.857,
        "duration": 0.536,
        "velocity": 0.71,
        "hand": "left"
      },
      {
        "midi": 52,
        "time": 42.857,
        "duration": 0.536,
        "velocity": 0.71,
        "hand": "left"
      },
      {
        "midi": 57,
        "time": 42.857,
        "duration": 0.536,
        "velocity": 0.71,
        "hand": "left"
      },
      {
        "midi": 69,
        "time": 42.857,
        "duration": 1.071,
        "velocity": 0.71,
        "hand": "right"
      },
      {
        "midi": 48,
        "time": 43.393,
        "duration": 0.536,
        "velocity": 0.71,
        "hand": "left"
      },
      {
        "midi": 52,
        "time": 43.393,
        "duration": 0.536,
        "velocity": 0.71,
        "hand": "left"
      },
      {
        "midi": 57,
        "time": 43.393,
        "duration": 0.536,
        "velocity": 0.71,
        "hand": "left"
      },
      {
        "midi": 47,
        "time": 43.929,
        "duration": 0.536,
        "velocity": 0.71,
        "hand": "left"
      },
      {
        "midi": 51,
        "time": 43.929,
        "duration": 0.536,
        "velocity": 0.71,
        "hand": "left"
      },
      {
        "midi": 57,
        "time": 43.929,
        "duration": 0.536,
        "velocity": 0.71,
        "hand": "left"
      },
      {
        "midi": 66,
        "time": 43.929,
        "duration": 3.214,
        "velocity": 0.71,
        "hand": "right"
      },
      {
        "midi": 47,
        "time": 44.464,
        "duration": 0.536,
        "velocity": 0.71,
        "hand": "left"
      },
      {
        "midi": 51,
        "time": 44.464,
        "duration": 0.536,
        "velocity": 0.71,
        "hand": "left"
      },
      {
        "midi": 57,
        "time": 44.464,
        "duration": 0.536,
        "velocity": 0.71,
        "hand": "left"
      },
      {
        "midi": 47,
        "time": 45,
        "duration": 0.536,
        "velocity": 0.71,
        "hand": "left"
      },
      {
        "midi": 51,
        "time": 45,
        "duration": 0.536,
        "velocity": 0.71,
        "hand": "left"
      },
      {
        "midi": 57,
        "time": 45,
        "duration": 0.536,
        "velocity": 0.71,
        "hand": "left"
      },
      {
        "midi": 47,
        "time": 45.536,
        "duration": 0.536,
        "velocity": 0.71,
        "hand": "left"
      },
      {
        "midi": 51,
        "time": 45.536,
        "duration": 0.536,
        "velocity": 0.71,
        "hand": "left"
      },
      {
        "midi": 57,
        "time": 45.536,
        "duration": 0.536,
        "velocity": 0.71,
        "hand": "left"
      },
      {
        "midi": 48,
        "time": 46.071,
        "duration": 0.536,
        "velocity": 0.71,
        "hand": "left"
      },
      {
        "midi": 52,
        "time": 46.071,
        "duration": 0.536,
        "velocity": 0.71,
        "hand": "left"
      },
      {
        "midi": 57,
        "time": 46.071,
        "duration": 0.536,
        "velocity": 0.71,
        "hand": "left"
      },
      {
        "midi": 48,
        "time": 46.607,
        "duration": 0.536,
        "velocity": 0.71,
        "hand": "left"
      },
      {
        "midi": 52,
        "time": 46.607,
        "duration": 0.536,
        "velocity": 0.71,
        "hand": "left"
      },
      {
        "midi": 57,
        "time": 46.607,
        "duration": 0.536,
        "velocity": 0.71,
        "hand": "left"
      },
      {
        "midi": 48,
        "time": 47.143,
        "duration": 0.536,
        "velocity": 0.71,
        "hand": "left"
      },
      {
        "midi": 52,
        "time": 47.143,
        "duration": 0.536,
        "velocity": 0.71,
        "hand": "left"
      },
      {
        "midi": 57,
        "time": 47.143,
        "duration": 0.536,
        "velocity": 0.71,
        "hand": "left"
      },
      {
        "midi": 69,
        "time": 47.143,
        "duration": 1.071,
        "velocity": 0.71,
        "hand": "right"
      },
      {
        "midi": 71,
        "time": 47.143,
        "duration": 0.134,
        "velocity": 0.71,
        "hand": "right"
      },
      {
        "midi": 48,
        "time": 47.679,
        "duration": 0.536,
        "velocity": 0.71,
        "hand": "left"
      },
      {
        "midi": 52,
        "time": 47.679,
        "duration": 0.536,
        "velocity": 0.71,
        "hand": "left"
      },
      {
        "midi": 57,
        "time": 47.679,
        "duration": 0.536,
        "velocity": 0.71,
        "hand": "left"
      },
      {
        "midi": 47,
        "time": 48.214,
        "duration": 1.071,
        "velocity": 0.71,
        "hand": "left"
      },
      {
        "midi": 51,
        "time": 48.214,
        "duration": 1.071,
        "velocity": 0.71,
        "hand": "left"
      },
      {
        "midi": 57,
        "time": 48.214,
        "duration": 1.071,
        "velocity": 0.71,
        "hand": "left"
      },
      {
        "midi": 67,
        "time": 48.214,
        "duration": 0.536,
        "velocity": 0.71,
        "hand": "right"
      },
      {
        "midi": 66,
        "time": 48.75,
        "duration": 0.536,
        "velocity": 0.71,
        "hand": "right"
      },
      {
        "midi": 60,
        "time": 49.286,
        "duration": 0.536,
        "velocity": 0.71,
        "hand": "right"
      },
      {
        "midi": 59,
        "time": 49.821,
        "duration": 0.536,
        "velocity": 0.71,
        "hand": "left"
      },
      {
        "midi": 63,
        "time": 50.357,
        "duration": 0.536,
        "velocity": 0.71,
        "hand": "right"
      },
      {
        "midi": 66,
        "time": 50.893,
        "duration": 0.536,
        "velocity": 0.71,
        "hand": "right"
      },
      {
        "midi": 74,
        "time": 51.429,
        "duration": 0.268,
        "velocity": 0.71,
        "hand": "right"
      },
      {
        "midi": 72,
        "time": 51.696,
        "duration": 0.268,
        "velocity": 0.71,
        "hand": "right"
      },
      {
        "midi": 71,
        "time": 52.232,
        "duration": 0.268,
        "velocity": 0.71,
        "hand": "right"
      },
      {
        "midi": 55,
        "time": 52.5,
        "duration": 0.536,
        "velocity": 0.71,
        "hand": "left"
      },
      {
        "midi": 59,
        "time": 52.5,
        "duration": 0.536,
        "velocity": 0.71,
        "hand": "left"
      },
      {
        "midi": 64,
        "time": 52.5,
        "duration": 0.536,
        "velocity": 0.71,
        "hand": "right"
      },
      {
        "midi": 71,
        "time": 52.5,
        "duration": 3.214,
        "velocity": 0.71,
        "hand": "right"
      },
      {
        "midi": 55,
        "time": 53.036,
        "duration": 0.536,
        "velocity": 0.71,
        "hand": "left"
      },
      {
        "midi": 59,
        "time": 53.036,
        "duration": 0.536,
        "velocity": 0.71,
        "hand": "left"
      },
      {
        "midi": 64,
        "time": 53.036,
        "duration": 0.536,
        "velocity": 0.71,
        "hand": "right"
      },
      {
        "midi": 55,
        "time": 53.571,
        "duration": 0.536,
        "velocity": 0.71,
        "hand": "left"
      },
      {
        "midi": 59,
        "time": 53.571,
        "duration": 0.536,
        "velocity": 0.71,
        "hand": "left"
      },
      {
        "midi": 64,
        "time": 53.571,
        "duration": 0.536,
        "velocity": 0.71,
        "hand": "right"
      },
      {
        "midi": 55,
        "time": 54.107,
        "duration": 0.536,
        "velocity": 0.71,
        "hand": "left"
      },
      {
        "midi": 59,
        "time": 54.107,
        "duration": 0.536,
        "velocity": 0.71,
        "hand": "left"
      },
      {
        "midi": 64,
        "time": 54.107,
        "duration": 0.536,
        "velocity": 0.71,
        "hand": "right"
      },
      {
        "midi": 55,
        "time": 54.643,
        "duration": 0.536,
        "velocity": 0.71,
        "hand": "left"
      },
      {
        "midi": 59,
        "time": 54.643,
        "duration": 0.536,
        "velocity": 0.71,
        "hand": "left"
      },
      {
        "midi": 64,
        "time": 54.643,
        "duration": 0.536,
        "velocity": 0.71,
        "hand": "right"
      },
      {
        "midi": 55,
        "time": 55.179,
        "duration": 0.536,
        "velocity": 0.71,
        "hand": "left"
      },
      {
        "midi": 59,
        "time": 55.179,
        "duration": 0.536,
        "velocity": 0.71,
        "hand": "left"
      },
      {
        "midi": 64,
        "time": 55.179,
        "duration": 0.536,
        "velocity": 0.71,
        "hand": "right"
      },
      {
        "midi": 55,
        "time": 55.714,
        "duration": 0.536,
        "velocity": 0.71,
        "hand": "left"
      },
      {
        "midi": 59,
        "time": 55.714,
        "duration": 0.536,
        "velocity": 0.71,
        "hand": "left"
      },
      {
        "midi": 64,
        "time": 55.714,
        "duration": 0.536,
        "velocity": 0.71,
        "hand": "right"
      },
      {
        "midi": 72,
        "time": 55.714,
        "duration": 1.071,
        "velocity": 0.71,
        "hand": "right"
      },
      {
        "midi": 55,
        "time": 56.25,
        "duration": 0.536,
        "velocity": 0.71,
        "hand": "left"
      },
      {
        "midi": 59,
        "time": 56.25,
        "duration": 0.536,
        "velocity": 0.71,
        "hand": "left"
      },
      {
        "midi": 64,
        "time": 56.25,
        "duration": 0.536,
        "velocity": 0.71,
        "hand": "right"
      },
      {
        "midi": 54,
        "time": 56.786,
        "duration": 0.536,
        "velocity": 0.71,
        "hand": "left"
      },
      {
        "midi": 57,
        "time": 56.786,
        "duration": 0.536,
        "velocity": 0.71,
        "hand": "left"
      },
      {
        "midi": 64,
        "time": 56.786,
        "duration": 0.536,
        "velocity": 0.71,
        "hand": "right"
      },
      {
        "midi": 71,
        "time": 56.786,
        "duration": 3.214,
        "velocity": 0.71,
        "hand": "right"
      },
      {
        "midi": 54,
        "time": 57.321,
        "duration": 0.536,
        "velocity": 0.71,
        "hand": "left"
      },
      {
        "midi": 57,
        "time": 57.321,
        "duration": 0.536,
        "velocity": 0.71,
        "hand": "left"
      },
      {
        "midi": 64,
        "time": 57.321,
        "duration": 0.536,
        "velocity": 0.71,
        "hand": "right"
      },
      {
        "midi": 54,
        "time": 57.857,
        "duration": 0.536,
        "velocity": 0.71,
        "hand": "left"
      },
      {
        "midi": 57,
        "time": 57.857,
        "duration": 0.536,
        "velocity": 0.71,
        "hand": "left"
      },
      {
        "midi": 64,
        "time": 57.857,
        "duration": 0.536,
        "velocity": 0.71,
        "hand": "right"
      },
      {
        "midi": 54,
        "time": 58.393,
        "duration": 0.536,
        "velocity": 0.71,
        "hand": "left"
      },
      {
        "midi": 57,
        "time": 58.393,
        "duration": 0.536,
        "velocity": 0.71,
        "hand": "left"
      },
      {
        "midi": 64,
        "time": 58.393,
        "duration": 0.536,
        "velocity": 0.71,
        "hand": "right"
      },
      {
        "midi": 53,
        "time": 58.929,
        "duration": 0.536,
        "velocity": 0.71,
        "hand": "left"
      },
      {
        "midi": 57,
        "time": 58.929,
        "duration": 0.536,
        "velocity": 0.71,
        "hand": "left"
      },
      {
        "midi": 63,
        "time": 58.929,
        "duration": 0.536,
        "velocity": 0.71,
        "hand": "right"
      },
      {
        "midi": 53,
        "time": 59.464,
        "duration": 0.536,
        "velocity": 0.71,
        "hand": "left"
      },
      {
        "midi": 57,
        "time": 59.464,
        "duration": 0.536,
        "velocity": 0.71,
        "hand": "left"
      },
      {
        "midi": 63,
        "time": 59.464,
        "duration": 0.536,
        "velocity": 0.71,
        "hand": "right"
      },
      {
        "midi": 53,
        "time": 60,
        "duration": 0.536,
        "velocity": 0.71,
        "hand": "left"
      },
      {
        "midi": 57,
        "time": 60,
        "duration": 0.536,
        "velocity": 0.71,
        "hand": "left"
      },
      {
        "midi": 63,
        "time": 60,
        "duration": 0.536,
        "velocity": 0.71,
        "hand": "right"
      },
      {
        "midi": 72,
        "time": 60,
        "duration": 1.071,
        "velocity": 0.71,
        "hand": "right"
      },
      {
        "midi": 53,
        "time": 60.536,
        "duration": 0.536,
        "velocity": 0.71,
        "hand": "left"
      },
      {
        "midi": 57,
        "time": 60.536,
        "duration": 0.536,
        "velocity": 0.71,
        "hand": "left"
      },
      {
        "midi": 63,
        "time": 60.536,
        "duration": 0.536,
        "velocity": 0.71,
        "hand": "right"
      },
      {
        "midi": 53,
        "time": 61.071,
        "duration": 0.536,
        "velocity": 0.71,
        "hand": "left"
      },
      {
        "midi": 56,
        "time": 61.071,
        "duration": 0.536,
        "velocity": 0.71,
        "hand": "left"
      },
      {
        "midi": 63,
        "time": 61.071,
        "duration": 0.536,
        "velocity": 0.71,
        "hand": "right"
      },
      {
        "midi": 71,
        "time": 61.071,
        "duration": 3.214,
        "velocity": 0.71,
        "hand": "right"
      },
      {
        "midi": 53,
        "time": 61.607,
        "duration": 0.536,
        "velocity": 0.71,
        "hand": "left"
      },
      {
        "midi": 56,
        "time": 61.607,
        "duration": 0.536,
        "velocity": 0.71,
        "hand": "left"
      },
      {
        "midi": 63,
        "time": 61.607,
        "duration": 0.536,
        "velocity": 0.71,
        "hand": "right"
      },
      {
        "midi": 53,
        "time": 62.143,
        "duration": 0.536,
        "velocity": 0.71,
        "hand": "left"
      },
      {
        "midi": 56,
        "time": 62.143,
        "duration": 0.536,
        "velocity": 0.71,
        "hand": "left"
      },
      {
        "midi": 62,
        "time": 62.143,
        "duration": 0.536,
        "velocity": 0.71,
        "hand": "right"
      },
      {
        "midi": 53,
        "time": 62.679,
        "duration": 0.536,
        "velocity": 0.71,
        "hand": "left"
      },
      {
        "midi": 56,
        "time": 62.679,
        "duration": 0.536,
        "velocity": 0.71,
        "hand": "left"
      },
      {
        "midi": 62,
        "time": 62.679,
        "duration": 0.536,
        "velocity": 0.71,
        "hand": "right"
      },
      {
        "midi": 52,
        "time": 63.214,
        "duration": 0.536,
        "velocity": 0.71,
        "hand": "left"
      },
      {
        "midi": 56,
        "time": 63.214,
        "duration": 0.536,
        "velocity": 0.71,
        "hand": "left"
      },
      {
        "midi": 62,
        "time": 63.214,
        "duration": 0.536,
        "velocity": 0.71,
        "hand": "right"
      },
      {
        "midi": 52,
        "time": 63.75,
        "duration": 0.536,
        "velocity": 0.71,
        "hand": "left"
      },
      {
        "midi": 56,
        "time": 63.75,
        "duration": 0.536,
        "velocity": 0.71,
        "hand": "left"
      },
      {
        "midi": 62,
        "time": 63.75,
        "duration": 0.536,
        "velocity": 0.71,
        "hand": "right"
      },
      {
        "midi": 52,
        "time": 64.286,
        "duration": 0.536,
        "velocity": 0.71,
        "hand": "left"
      },
      {
        "midi": 56,
        "time": 64.286,
        "duration": 0.536,
        "velocity": 0.71,
        "hand": "left"
      },
      {
        "midi": 62,
        "time": 64.286,
        "duration": 0.536,
        "velocity": 0.71,
        "hand": "right"
      },
      {
        "midi": 72,
        "time": 64.286,
        "duration": 1.071,
        "velocity": 0.71,
        "hand": "right"
      },
      {
        "midi": 52,
        "time": 64.821,
        "duration": 0.536,
        "velocity": 0.71,
        "hand": "left"
      },
      {
        "midi": 56,
        "time": 64.821,
        "duration": 0.536,
        "velocity": 0.71,
        "hand": "left"
      },
      {
        "midi": 62,
        "time": 64.821,
        "duration": 0.536,
        "velocity": 0.71,
        "hand": "right"
      },
      {
        "midi": 52,
        "time": 65.357,
        "duration": 0.536,
        "velocity": 0.71,
        "hand": "left"
      },
      {
        "midi": 55,
        "time": 65.357,
        "duration": 0.536,
        "velocity": 0.71,
        "hand": "left"
      },
      {
        "midi": 62,
        "time": 65.357,
        "duration": 0.536,
        "velocity": 0.71,
        "hand": "right"
      },
      {
        "midi": 71,
        "time": 65.357,
        "duration": 0.804,
        "velocity": 0.71,
        "hand": "right"
      },
      {
        "midi": 52,
        "time": 65.893,
        "duration": 0.536,
        "velocity": 0.71,
        "hand": "left"
      },
      {
        "midi": 55,
        "time": 65.893,
        "duration": 0.536,
        "velocity": 0.71,
        "hand": "left"
      },
      {
        "midi": 62,
        "time": 65.893,
        "duration": 0.536,
        "velocity": 0.71,
        "hand": "right"
      },
      {
        "midi": 70,
        "time": 66.161,
        "duration": 0.268,
        "velocity": 0.71,
        "hand": "right"
      },
      {
        "midi": 52,
        "time": 66.429,
        "duration": 0.536,
        "velocity": 0.71,
        "hand": "left"
      },
      {
        "midi": 55,
        "time": 66.429,
        "duration": 0.536,
        "velocity": 0.71,
        "hand": "left"
      },
      {
        "midi": 61,
        "time": 66.429,
        "duration": 0.536,
        "velocity": 0.71,
        "hand": "right"
      },
      {
        "midi": 70,
        "time": 66.429,
        "duration": 1.071,
        "velocity": 0.71,
        "hand": "right"
      },
      {
        "midi": 52,
        "time": 66.964,
        "duration": 0.536,
        "velocity": 0.71,
        "hand": "left"
      },
      {
        "midi": 55,
        "time": 66.964,
        "duration": 0.536,
        "velocity": 0.71,
        "hand": "left"
      },
      {
        "midi": 61,
        "time": 66.964,
        "duration": 0.536,
        "velocity": 0.71,
        "hand": "right"
      },
      {
        "midi": 49,
        "time": 67.5,
        "duration": 0.536,
        "velocity": 0.71,
        "hand": "left"
      },
      {
        "midi": 52,
        "time": 67.5,
        "duration": 0.536,
        "velocity": 0.71,
        "hand": "left"
      },
      {
        "midi": 58,
        "time": 67.5,
        "duration": 0.536,
        "velocity": 0.71,
        "hand": "left"
      },
      {
        "midi": 81,
        "time": 67.5,
        "duration": 1.071,
        "velocity": 0.71,
        "hand": "right"
      },
      {
        "midi": 49,
        "time": 68.036,
        "duration": 0.536,
        "velocity": 0.71,
        "hand": "left"
      },
      {
        "midi": 52,
        "time": 68.036,
        "duration": 0.536,
        "velocity": 0.71,
        "hand": "left"
      },
      {
        "midi": 58,
        "time": 68.036,
        "duration": 0.536,
        "velocity": 0.71,
        "hand": "left"
      },
      {
        "midi": 48,
        "time": 68.571,
        "duration": 0.536,
        "velocity": 0.71,
        "hand": "left"
      },
      {
        "midi": 52,
        "time": 68.571,
        "duration": 0.536,
        "velocity": 0.71,
        "hand": "left"
      },
      {
        "midi": 57,
        "time": 68.571,
        "duration": 0.536,
        "velocity": 0.71,
        "hand": "left"
      },
      {
        "midi": 78,
        "time": 68.571,
        "duration": 0.804,
        "velocity": 0.71,
        "hand": "right"
      },
      {
        "midi": 48,
        "time": 69.107,
        "duration": 0.536,
        "velocity": 0.71,
        "hand": "left"
      },
      {
        "midi": 52,
        "time": 69.107,
        "duration": 0.536,
        "velocity": 0.71,
        "hand": "left"
      },
      {
        "midi": 57,
        "time": 69.107,
        "duration": 0.536,
        "velocity": 0.71,
        "hand": "left"
      },
      {
        "midi": 76,
        "time": 69.375,
        "duration": 0.268,
        "velocity": 0.71,
        "hand": "right"
      },
      {
        "midi": 35,
        "time": 69.643,
        "duration": 0.536,
        "velocity": 0.71,
        "hand": "left"
      },
      {
        "midi": 47,
        "time": 69.643,
        "duration": 0.536,
        "velocity": 0.71,
        "hand": "left"
      },
      {
        "midi": 76,
        "time": 69.643,
        "duration": 0.536,
        "velocity": 0.71,
        "hand": "right"
      },
      {
        "midi": 57,
        "time": 70.179,
        "duration": 0.536,
        "velocity": 0.71,
        "hand": "left"
      },
      {
        "midi": 60,
        "time": 70.179,
        "duration": 0.536,
        "velocity": 0.71,
        "hand": "right"
      },
      {
        "midi": 66,
        "time": 70.179,
        "duration": 0.536,
        "velocity": 0.71,
        "hand": "right"
      },
      {
        "midi": 69,
        "time": 70.179,
        "duration": 0.536,
        "velocity": 0.71,
        "hand": "right"
      },
      {
        "midi": 75,
        "time": 70.179,
        "duration": 0.536,
        "velocity": 0.71,
        "hand": "right"
      },
      {
        "midi": 57,
        "time": 70.714,
        "duration": 0.536,
        "velocity": 0.71,
        "hand": "left"
      },
      {
        "midi": 60,
        "time": 70.714,
        "duration": 0.536,
        "velocity": 0.71,
        "hand": "right"
      },
      {
        "midi": 66,
        "time": 70.714,
        "duration": 0.536,
        "velocity": 0.71,
        "hand": "right"
      },
      {
        "midi": 69,
        "time": 70.714,
        "duration": 0.536,
        "velocity": 0.71,
        "hand": "right"
      },
      {
        "midi": 84,
        "time": 70.714,
        "duration": 0.536,
        "velocity": 0.71,
        "hand": "right"
      },
      {
        "midi": 57,
        "time": 71.25,
        "duration": 0.536,
        "velocity": 0.71,
        "hand": "left"
      },
      {
        "midi": 60,
        "time": 71.25,
        "duration": 0.536,
        "velocity": 0.71,
        "hand": "right"
      },
      {
        "midi": 66,
        "time": 71.25,
        "duration": 0.536,
        "velocity": 0.71,
        "hand": "right"
      },
      {
        "midi": 69,
        "time": 71.25,
        "duration": 0.536,
        "velocity": 0.71,
        "hand": "right"
      },
      {
        "midi": 75,
        "time": 71.25,
        "duration": 0.536,
        "velocity": 0.71,
        "hand": "right"
      },
      {
        "midi": 55,
        "time": 71.786,
        "duration": 0.536,
        "velocity": 0.71,
        "hand": "left"
      },
      {
        "midi": 59,
        "time": 71.786,
        "duration": 0.536,
        "velocity": 0.71,
        "hand": "left"
      },
      {
        "midi": 63,
        "time": 71.786,
        "duration": 0.536,
        "velocity": 0.71,
        "hand": "right"
      },
      {
        "midi": 66,
        "time": 71.786,
        "duration": 0.536,
        "velocity": 0.71,
        "hand": "right"
      },
      {
        "midi": 75,
        "time": 71.786,
        "duration": 0.536,
        "velocity": 0.71,
        "hand": "right"
      },
      {
        "midi": 55,
        "time": 72.321,
        "duration": 0.536,
        "velocity": 0.71,
        "hand": "left"
      },
      {
        "midi": 59,
        "time": 72.321,
        "duration": 0.536,
        "velocity": 0.71,
        "hand": "left"
      },
      {
        "midi": 64,
        "time": 72.321,
        "duration": 0.536,
        "velocity": 0.71,
        "hand": "right"
      },
      {
        "midi": 76,
        "time": 72.321,
        "duration": 0.536,
        "velocity": 0.71,
        "hand": "right"
      },
      {
        "midi": 55,
        "time": 72.857,
        "duration": 0.536,
        "velocity": 0.71,
        "hand": "left"
      },
      {
        "midi": 59,
        "time": 72.857,
        "duration": 0.536,
        "velocity": 0.71,
        "hand": "left"
      },
      {
        "midi": 64,
        "time": 72.857,
        "duration": 0.536,
        "velocity": 0.71,
        "hand": "right"
      },
      {
        "midi": 79,
        "time": 72.857,
        "duration": 0.536,
        "velocity": 0.71,
        "hand": "right"
      },
      {
        "midi": 55,
        "time": 73.393,
        "duration": 0.536,
        "velocity": 0.71,
        "hand": "left"
      },
      {
        "midi": 59,
        "time": 73.393,
        "duration": 0.536,
        "velocity": 0.71,
        "hand": "left"
      },
      {
        "midi": 64,
        "time": 73.393,
        "duration": 0.536,
        "velocity": 0.71,
        "hand": "right"
      },
      {
        "midi": 71,
        "time": 73.393,
        "duration": 0.536,
        "velocity": 0.71,
        "hand": "right"
      },
      {
        "midi": 57,
        "time": 73.929,
        "duration": 0.536,
        "velocity": 0.71,
        "hand": "left"
      },
      {
        "midi": 60,
        "time": 73.929,
        "duration": 0.536,
        "velocity": 0.71,
        "hand": "right"
      },
      {
        "midi": 64,
        "time": 73.929,
        "duration": 0.536,
        "velocity": 0.71,
        "hand": "right"
      },
      {
        "midi": 74,
        "time": 73.929,
        "duration": 0.536,
        "velocity": 0.71,
        "hand": "right"
      },
      {
        "midi": 57,
        "time": 74.464,
        "duration": 0.536,
        "velocity": 0.71,
        "hand": "left"
      },
      {
        "midi": 60,
        "time": 74.464,
        "duration": 0.536,
        "velocity": 0.71,
        "hand": "right"
      },
      {
        "midi": 64,
        "time": 74.464,
        "duration": 0.536,
        "velocity": 0.71,
        "hand": "right"
      },
      {
        "midi": 72,
        "time": 74.464,
        "duration": 0.536,
        "velocity": 0.71,
        "hand": "right"
      },
      {
        "midi": 45,
        "time": 75,
        "duration": 0.536,
        "velocity": 0.71,
        "hand": "left"
      },
      {
        "midi": 76,
        "time": 75,
        "duration": 0.268,
        "velocity": 0.71,
        "hand": "right"
      },
      {
        "midi": 64,
        "time": 75.268,
        "duration": 0.268,
        "velocity": 0.71,
        "hand": "right"
      },
      {
        "midi": 52,
        "time": 75.536,
        "duration": 0.536,
        "velocity": 0.71,
        "hand": "left"
      },
      {
        "midi": 54,
        "time": 75.536,
        "duration": 0.536,
        "velocity": 0.71,
        "hand": "left"
      },
      {
        "midi": 60,
        "time": 75.536,
        "duration": 0.536,
        "velocity": 0.71,
        "hand": "right"
      },
      {
        "midi": 69,
        "time": 75.804,
        "duration": 0.268,
        "velocity": 0.71,
        "hand": "right"
      },
      {
        "midi": 47,
        "time": 76.071,
        "duration": 0.536,
        "velocity": 0.71,
        "hand": "left"
      },
      {
        "midi": 52,
        "time": 76.071,
        "duration": 0.536,
        "velocity": 0.71,
        "hand": "left"
      },
      {
        "midi": 59,
        "time": 76.071,
        "duration": 0.536,
        "velocity": 0.71,
        "hand": "left"
      },
      {
        "midi": 66,
        "time": 76.071,
        "duration": 1.607,
        "velocity": 0.71,
        "hand": "right"
      },
      {
        "midi": 47,
        "time": 76.607,
        "duration": 0.536,
        "velocity": 0.71,
        "hand": "left"
      },
      {
        "midi": 52,
        "time": 76.607,
        "duration": 0.536,
        "velocity": 0.71,
        "hand": "left"
      },
      {
        "midi": 59,
        "time": 76.607,
        "duration": 0.536,
        "velocity": 0.71,
        "hand": "left"
      },
      {
        "midi": 48,
        "time": 77.143,
        "duration": 0.536,
        "velocity": 0.71,
        "hand": "left"
      },
      {
        "midi": 52,
        "time": 77.143,
        "duration": 0.536,
        "velocity": 0.71,
        "hand": "left"
      },
      {
        "midi": 57,
        "time": 77.143,
        "duration": 0.536,
        "velocity": 0.71,
        "hand": "left"
      },
      {
        "midi": 48,
        "time": 77.679,
        "duration": 0.536,
        "velocity": 0.71,
        "hand": "left"
      },
      {
        "midi": 52,
        "time": 77.679,
        "duration": 0.536,
        "velocity": 0.71,
        "hand": "left"
      },
      {
        "midi": 57,
        "time": 77.679,
        "duration": 0.536,
        "velocity": 0.71,
        "hand": "left"
      },
      {
        "midi": 69,
        "time": 77.679,
        "duration": 0.536,
        "velocity": 0.71,
        "hand": "right"
      },
      {
        "midi": 47,
        "time": 78.214,
        "duration": 0.536,
        "velocity": 0.71,
        "hand": "left"
      },
      {
        "midi": 52,
        "time": 78.214,
        "duration": 0.536,
        "velocity": 0.71,
        "hand": "left"
      },
      {
        "midi": 59,
        "time": 78.214,
        "duration": 0.536,
        "velocity": 0.71,
        "hand": "left"
      },
      {
        "midi": 66,
        "time": 78.214,
        "duration": 3.214,
        "velocity": 0.71,
        "hand": "right"
      },
      {
        "midi": 47,
        "time": 78.75,
        "duration": 0.536,
        "velocity": 0.71,
        "hand": "left"
      },
      {
        "midi": 52,
        "time": 78.75,
        "duration": 0.536,
        "velocity": 0.71,
        "hand": "left"
      },
      {
        "midi": 59,
        "time": 78.75,
        "duration": 0.536,
        "velocity": 0.71,
        "hand": "left"
      },
      {
        "midi": 47,
        "time": 79.286,
        "duration": 0.536,
        "velocity": 0.71,
        "hand": "left"
      },
      {
        "midi": 52,
        "time": 79.286,
        "duration": 0.536,
        "velocity": 0.71,
        "hand": "left"
      },
      {
        "midi": 59,
        "time": 79.286,
        "duration": 0.536,
        "velocity": 0.71,
        "hand": "left"
      },
      {
        "midi": 47,
        "time": 79.821,
        "duration": 0.536,
        "velocity": 0.71,
        "hand": "left"
      },
      {
        "midi": 52,
        "time": 79.821,
        "duration": 0.536,
        "velocity": 0.71,
        "hand": "left"
      },
      {
        "midi": 59,
        "time": 79.821,
        "duration": 0.536,
        "velocity": 0.71,
        "hand": "left"
      },
      {
        "midi": 48,
        "time": 80.357,
        "duration": 0.536,
        "velocity": 0.71,
        "hand": "left"
      },
      {
        "midi": 52,
        "time": 80.357,
        "duration": 0.536,
        "velocity": 0.71,
        "hand": "left"
      },
      {
        "midi": 57,
        "time": 80.357,
        "duration": 0.536,
        "velocity": 0.71,
        "hand": "left"
      },
      {
        "midi": 48,
        "time": 80.893,
        "duration": 0.536,
        "velocity": 0.71,
        "hand": "left"
      },
      {
        "midi": 52,
        "time": 80.893,
        "duration": 0.536,
        "velocity": 0.71,
        "hand": "left"
      },
      {
        "midi": 57,
        "time": 80.893,
        "duration": 0.536,
        "velocity": 0.71,
        "hand": "left"
      },
      {
        "midi": 48,
        "time": 81.429,
        "duration": 0.536,
        "velocity": 0.71,
        "hand": "left"
      },
      {
        "midi": 52,
        "time": 81.429,
        "duration": 0.536,
        "velocity": 0.71,
        "hand": "left"
      },
      {
        "midi": 57,
        "time": 81.429,
        "duration": 0.536,
        "velocity": 0.71,
        "hand": "left"
      },
      {
        "midi": 69,
        "time": 81.429,
        "duration": 1.071,
        "velocity": 0.71,
        "hand": "right"
      },
      {
        "midi": 71,
        "time": 81.429,
        "duration": 0.134,
        "velocity": 0.71,
        "hand": "right"
      },
      {
        "midi": 48,
        "time": 81.964,
        "duration": 0.536,
        "velocity": 0.71,
        "hand": "left"
      },
      {
        "midi": 52,
        "time": 81.964,
        "duration": 0.536,
        "velocity": 0.71,
        "hand": "left"
      },
      {
        "midi": 57,
        "time": 81.964,
        "duration": 0.536,
        "velocity": 0.71,
        "hand": "left"
      },
      {
        "midi": 47,
        "time": 82.5,
        "duration": 0.536,
        "velocity": 0.71,
        "hand": "left"
      },
      {
        "midi": 52,
        "time": 82.5,
        "duration": 0.536,
        "velocity": 0.71,
        "hand": "left"
      },
      {
        "midi": 59,
        "time": 82.5,
        "duration": 0.536,
        "velocity": 0.71,
        "hand": "left"
      },
      {
        "midi": 66,
        "time": 82.5,
        "duration": 4.018,
        "velocity": 0.71,
        "hand": "right"
      },
      {
        "midi": 47,
        "time": 83.036,
        "duration": 0.536,
        "velocity": 0.71,
        "hand": "left"
      },
      {
        "midi": 52,
        "time": 83.036,
        "duration": 0.536,
        "velocity": 0.71,
        "hand": "left"
      },
      {
        "midi": 59,
        "time": 83.036,
        "duration": 0.536,
        "velocity": 0.71,
        "hand": "left"
      },
      {
        "midi": 47,
        "time": 83.571,
        "duration": 0.536,
        "velocity": 0.71,
        "hand": "left"
      },
      {
        "midi": 52,
        "time": 83.571,
        "duration": 0.536,
        "velocity": 0.71,
        "hand": "left"
      },
      {
        "midi": 59,
        "time": 83.571,
        "duration": 0.536,
        "velocity": 0.71,
        "hand": "left"
      },
      {
        "midi": 47,
        "time": 84.107,
        "duration": 0.536,
        "velocity": 0.71,
        "hand": "left"
      },
      {
        "midi": 52,
        "time": 84.107,
        "duration": 0.536,
        "velocity": 0.71,
        "hand": "left"
      },
      {
        "midi": 59,
        "time": 84.107,
        "duration": 0.536,
        "velocity": 0.71,
        "hand": "left"
      },
      {
        "midi": 47,
        "time": 84.643,
        "duration": 0.536,
        "velocity": 0.71,
        "hand": "left"
      },
      {
        "midi": 51,
        "time": 84.643,
        "duration": 0.536,
        "velocity": 0.71,
        "hand": "left"
      },
      {
        "midi": 59,
        "time": 84.643,
        "duration": 0.536,
        "velocity": 0.71,
        "hand": "left"
      },
      {
        "midi": 47,
        "time": 85.179,
        "duration": 0.536,
        "velocity": 0.71,
        "hand": "left"
      },
      {
        "midi": 51,
        "time": 85.179,
        "duration": 0.536,
        "velocity": 0.71,
        "hand": "left"
      },
      {
        "midi": 59,
        "time": 85.179,
        "duration": 0.536,
        "velocity": 0.71,
        "hand": "left"
      },
      {
        "midi": 47,
        "time": 85.714,
        "duration": 0.536,
        "velocity": 0.71,
        "hand": "left"
      },
      {
        "midi": 51,
        "time": 85.714,
        "duration": 0.536,
        "velocity": 0.71,
        "hand": "left"
      },
      {
        "midi": 57,
        "time": 85.714,
        "duration": 0.536,
        "velocity": 0.71,
        "hand": "left"
      },
      {
        "midi": 47,
        "time": 86.25,
        "duration": 0.536,
        "velocity": 0.71,
        "hand": "left"
      },
      {
        "midi": 51,
        "time": 86.25,
        "duration": 0.536,
        "velocity": 0.71,
        "hand": "left"
      },
      {
        "midi": 57,
        "time": 86.25,
        "duration": 0.536,
        "velocity": 0.71,
        "hand": "left"
      },
      {
        "midi": 64,
        "time": 86.518,
        "duration": 0.268,
        "velocity": 0.71,
        "hand": "right"
      },
      {
        "midi": 48,
        "time": 86.786,
        "duration": 0.536,
        "velocity": 0.71,
        "hand": "left"
      },
      {
        "midi": 55,
        "time": 86.786,
        "duration": 0.536,
        "velocity": 0.71,
        "hand": "left"
      },
      {
        "midi": 64,
        "time": 86.786,
        "duration": 3.214,
        "velocity": 0.71,
        "hand": "right"
      },
      {
        "midi": 48,
        "time": 87.321,
        "duration": 0.536,
        "velocity": 0.71,
        "hand": "left"
      },
      {
        "midi": 55,
        "time": 87.321,
        "duration": 0.536,
        "velocity": 0.71,
        "hand": "left"
      },
      {
        "midi": 48,
        "time": 87.857,
        "duration": 0.536,
        "velocity": 0.71,
        "hand": "left"
      },
      {
        "midi": 55,
        "time": 87.857,
        "duration": 0.536,
        "velocity": 0.71,
        "hand": "left"
      },
      {
        "midi": 48,
        "time": 88.393,
        "duration": 0.536,
        "velocity": 0.71,
        "hand": "left"
      },
      {
        "midi": 55,
        "time": 88.393,
        "duration": 0.536,
        "velocity": 0.71,
        "hand": "left"
      },
      {
        "midi": 48,
        "time": 88.929,
        "duration": 0.536,
        "velocity": 0.71,
        "hand": "left"
      },
      {
        "midi": 58,
        "time": 88.929,
        "duration": 0.536,
        "velocity": 0.71,
        "hand": "left"
      },
      {
        "midi": 48,
        "time": 89.464,
        "duration": 0.536,
        "velocity": 0.71,
        "hand": "left"
      },
      {
        "midi": 58,
        "time": 89.464,
        "duration": 0.536,
        "velocity": 0.71,
        "hand": "left"
      },
      {
        "midi": 48,
        "time": 90,
        "duration": 0.536,
        "velocity": 0.71,
        "hand": "left"
      },
      {
        "midi": 52,
        "time": 90,
        "duration": 0.536,
        "velocity": 0.71,
        "hand": "left"
      },
      {
        "midi": 57,
        "time": 90,
        "duration": 0.536,
        "velocity": 0.71,
        "hand": "left"
      },
      {
        "midi": 66,
        "time": 90,
        "duration": 1.071,
        "velocity": 0.71,
        "hand": "right"
      },
      {
        "midi": 48,
        "time": 90.536,
        "duration": 0.536,
        "velocity": 0.71,
        "hand": "left"
      },
      {
        "midi": 52,
        "time": 90.536,
        "duration": 0.536,
        "velocity": 0.71,
        "hand": "left"
      },
      {
        "midi": 57,
        "time": 90.536,
        "duration": 0.536,
        "velocity": 0.71,
        "hand": "left"
      },
      {
        "midi": 47,
        "time": 91.071,
        "duration": 0.536,
        "velocity": 0.71,
        "hand": "left"
      },
      {
        "midi": 52,
        "time": 91.071,
        "duration": 0.536,
        "velocity": 0.71,
        "hand": "left"
      },
      {
        "midi": 57,
        "time": 91.071,
        "duration": 0.536,
        "velocity": 0.71,
        "hand": "left"
      },
      {
        "midi": 64,
        "time": 91.071,
        "duration": 3.214,
        "velocity": 0.71,
        "hand": "right"
      },
      {
        "midi": 47,
        "time": 91.607,
        "duration": 0.536,
        "velocity": 0.71,
        "hand": "left"
      },
      {
        "midi": 52,
        "time": 91.607,
        "duration": 0.536,
        "velocity": 0.71,
        "hand": "left"
      },
      {
        "midi": 57,
        "time": 91.607,
        "duration": 0.536,
        "velocity": 0.71,
        "hand": "left"
      },
      {
        "midi": 47,
        "time": 92.143,
        "duration": 0.536,
        "velocity": 0.71,
        "hand": "left"
      },
      {
        "midi": 52,
        "time": 92.143,
        "duration": 0.536,
        "velocity": 0.71,
        "hand": "left"
      },
      {
        "midi": 56,
        "time": 92.143,
        "duration": 0.536,
        "velocity": 0.71,
        "hand": "left"
      },
      {
        "midi": 47,
        "time": 92.679,
        "duration": 0.536,
        "velocity": 0.71,
        "hand": "left"
      },
      {
        "midi": 52,
        "time": 92.679,
        "duration": 0.536,
        "velocity": 0.71,
        "hand": "left"
      },
      {
        "midi": 56,
        "time": 92.679,
        "duration": 0.536,
        "velocity": 0.71,
        "hand": "left"
      },
      {
        "midi": 47,
        "time": 93.214,
        "duration": 0.536,
        "velocity": 0.71,
        "hand": "left"
      },
      {
        "midi": 52,
        "time": 93.214,
        "duration": 0.536,
        "velocity": 0.71,
        "hand": "left"
      },
      {
        "midi": 55,
        "time": 93.214,
        "duration": 0.536,
        "velocity": 0.71,
        "hand": "left"
      },
      {
        "midi": 47,
        "time": 93.75,
        "duration": 0.536,
        "velocity": 0.71,
        "hand": "left"
      },
      {
        "midi": 52,
        "time": 93.75,
        "duration": 0.536,
        "velocity": 0.71,
        "hand": "left"
      },
      {
        "midi": 55,
        "time": 93.75,
        "duration": 0.536,
        "velocity": 0.71,
        "hand": "left"
      },
      {
        "midi": 47,
        "time": 94.286,
        "duration": 0.536,
        "velocity": 0.71,
        "hand": "left"
      },
      {
        "midi": 52,
        "time": 94.286,
        "duration": 0.536,
        "velocity": 0.71,
        "hand": "left"
      },
      {
        "midi": 55,
        "time": 94.286,
        "duration": 0.536,
        "velocity": 0.71,
        "hand": "left"
      },
      {
        "midi": 66,
        "time": 94.286,
        "duration": 1.071,
        "velocity": 0.71,
        "hand": "right"
      },
      {
        "midi": 47,
        "time": 94.821,
        "duration": 0.536,
        "velocity": 0.71,
        "hand": "left"
      },
      {
        "midi": 52,
        "time": 94.821,
        "duration": 0.536,
        "velocity": 0.71,
        "hand": "left"
      },
      {
        "midi": 55,
        "time": 94.821,
        "duration": 0.536,
        "velocity": 0.71,
        "hand": "left"
      },
      {
        "midi": 46,
        "time": 95.357,
        "duration": 2.143,
        "velocity": 0.71,
        "hand": "left"
      },
      {
        "midi": 48,
        "time": 95.357,
        "duration": 2.143,
        "velocity": 0.71,
        "hand": "left"
      },
      {
        "midi": 55,
        "time": 95.357,
        "duration": 2.143,
        "velocity": 0.71,
        "hand": "left"
      },
      {
        "midi": 64,
        "time": 95.357,
        "duration": 2.143,
        "velocity": 0.71,
        "hand": "right"
      },
      {
        "midi": 35,
        "time": 99.643,
        "duration": 2.143,
        "velocity": 0.71,
        "hand": "left"
      },
      {
        "midi": 47,
        "time": 99.643,
        "duration": 2.143,
        "velocity": 0.71,
        "hand": "left"
      },
      {
        "midi": 52,
        "time": 99.643,
        "duration": 2.143,
        "velocity": 0.71,
        "hand": "left"
      },
      {
        "midi": 54,
        "time": 99.643,
        "duration": 2.143,
        "velocity": 0.71,
        "hand": "left"
      },
      {
        "midi": 59,
        "time": 99.643,
        "duration": 2.143,
        "velocity": 0.71,
        "hand": "left"
      },
      {
        "midi": 64,
        "time": 99.643,
        "duration": 2.143,
        "velocity": 0.71,
        "hand": "right"
      },
      {
        "midi": 35,
        "time": 101.786,
        "duration": 2.143,
        "velocity": 0.71,
        "hand": "left"
      },
      {
        "midi": 42,
        "time": 101.786,
        "duration": 2.143,
        "velocity": 0.71,
        "hand": "left"
      },
      {
        "midi": 47,
        "time": 101.786,
        "duration": 2.143,
        "velocity": 0.71,
        "hand": "left"
      },
      {
        "midi": 51,
        "time": 101.786,
        "duration": 2.143,
        "velocity": 0.71,
        "hand": "left"
      },
      {
        "midi": 54,
        "time": 101.786,
        "duration": 2.143,
        "velocity": 0.71,
        "hand": "left"
      },
      {
        "midi": 59,
        "time": 101.786,
        "duration": 2.143,
        "velocity": 0.71,
        "hand": "left"
      },
      {
        "midi": 63,
        "time": 101.786,
        "duration": 2.143,
        "velocity": 0.71,
        "hand": "right"
      },
      {
        "midi": 28,
        "time": 103.929,
        "duration": 4.286,
        "velocity": 0.71,
        "hand": "left"
      },
      {
        "midi": 40,
        "time": 103.929,
        "duration": 4.286,
        "velocity": 0.71,
        "hand": "left"
      },
      {
        "midi": 52,
        "time": 103.929,
        "duration": 4.286,
        "velocity": 0.71,
        "hand": "left"
      },
      {
        "midi": 55,
        "time": 103.929,
        "duration": 4.286,
        "velocity": 0.71,
        "hand": "left"
      },
      {
        "midi": 59,
        "time": 103.929,
        "duration": 4.286,
        "velocity": 0.71,
        "hand": "left"
      },
      {
        "midi": 64,
        "time": 103.929,
        "duration": 4.286,
        "velocity": 0.71,
        "hand": "right"
      }
    ]
  },
  "notes1Hand": [
    {
      "midi": 71,
      "time": 0.804,
      "duration": 0.536,
      "velocity": 0.71,
      "hand": "right"
    },
    {
      "midi": 64,
      "time": 1.607,
      "duration": 0.536,
      "velocity": 0.71,
      "hand": "right"
    },
    {
      "midi": 64,
      "time": 2.679,
      "duration": 0.536,
      "velocity": 0.71,
      "hand": "right"
    },
    {
      "midi": 64,
      "time": 3.75,
      "duration": 0.536,
      "velocity": 0.71,
      "hand": "right"
    },
    {
      "midi": 72,
      "time": 4.286,
      "duration": 1.071,
      "velocity": 0.71,
      "hand": "right"
    },
    {
      "midi": 71,
      "time": 5.357,
      "duration": 3.214,
      "velocity": 0.71,
      "hand": "right"
    },
    {
      "midi": 64,
      "time": 5.893,
      "duration": 0.536,
      "velocity": 0.71,
      "hand": "right"
    },
    {
      "midi": 63,
      "time": 7.5,
      "duration": 0.536,
      "velocity": 0.71,
      "hand": "right"
    },
    {
      "midi": 63,
      "time": 9.107,
      "duration": 0.536,
      "velocity": 0.71,
      "hand": "right"
    },
    {
      "midi": 71,
      "time": 9.643,
      "duration": 3.214,
      "velocity": 0.71,
      "hand": "right"
    },
    {
      "midi": 63,
      "time": 10.179,
      "duration": 0.536,
      "velocity": 0.71,
      "hand": "right"
    },
    {
      "midi": 63,
      "time": 11.25,
      "duration": 0.536,
      "velocity": 0.71,
      "hand": "right"
    },
    {
      "midi": 62,
      "time": 11.786,
      "duration": 0.536,
      "velocity": 0.71,
      "hand": "right"
    },
    {
      "midi": 72,
      "time": 12.857,
      "duration": 1.071,
      "velocity": 0.71,
      "hand": "right"
    },
    {
      "midi": 62,
      "time": 13.393,
      "duration": 0.536,
      "velocity": 0.71,
      "hand": "right"
    },
    {
      "midi": 71,
      "time": 13.929,
      "duration": 3.214,
      "velocity": 0.71,
      "hand": "right"
    },
    {
      "midi": 62,
      "time": 15,
      "duration": 0.536,
      "velocity": 0.71,
      "hand": "right"
    },
    {
      "midi": 62,
      "time": 16.607,
      "duration": 0.536,
      "velocity": 0.71,
      "hand": "right"
    },
    {
      "midi": 70,
      "time": 17.143,
      "duration": 1.071,
      "velocity": 0.71,
      "hand": "right"
    },
    {
      "midi": 61,
      "time": 17.679,
      "duration": 0.536,
      "velocity": 0.71,
      "hand": "right"
    },
    {
      "midi": 60,
      "time": 18.75,
      "duration": 0.536,
      "velocity": 0.71,
      "hand": "right"
    },
    {
      "midi": 60,
      "time": 20.357,
      "duration": 0.536,
      "velocity": 0.71,
      "hand": "right"
    },
    {
      "midi": 71,
      "time": 21.429,
      "duration": 1.071,
      "velocity": 0.71,
      "hand": "right"
    },
    {
      "midi": 69,
      "time": 22.5,
      "duration": 3.214,
      "velocity": 0.71,
      "hand": "right"
    },
    {
      "midi": 60,
      "time": 23.036,
      "duration": 0.536,
      "velocity": 0.71,
      "hand": "right"
    },
    {
      "midi": 60,
      "time": 24.107,
      "duration": 0.536,
      "velocity": 0.71,
      "hand": "right"
    },
    {
      "midi": 60,
      "time": 25.179,
      "duration": 0.536,
      "velocity": 0.71,
      "hand": "right"
    },
    {
      "midi": 60,
      "time": 26.25,
      "duration": 0.536,
      "velocity": 0.71,
      "hand": "right"
    },
    {
      "midi": 69,
      "time": 26.786,
      "duration": 3.214,
      "velocity": 0.71,
      "hand": "right"
    },
    {
      "midi": 60,
      "time": 27.857,
      "duration": 0.536,
      "velocity": 0.71,
      "hand": "right"
    },
    {
      "midi": 60,
      "time": 28.929,
      "duration": 0.536,
      "velocity": 0.71,
      "hand": "right"
    },
    {
      "midi": 71,
      "time": 30,
      "duration": 0.804,
      "velocity": 0.71,
      "hand": "right"
    },
    {
      "midi": 60,
      "time": 30.536,
      "duration": 0.536,
      "velocity": 0.71,
      "hand": "right"
    },
    {
      "midi": 60,
      "time": 31.607,
      "duration": 0.536,
      "velocity": 0.71,
      "hand": "right"
    },
    {
      "midi": 60,
      "time": 32.679,
      "duration": 0.536,
      "velocity": 0.71,
      "hand": "right"
    },
    {
      "midi": 68,
      "time": 34.286,
      "duration": 2.143,
      "velocity": 0.71,
      "hand": "right"
    },
    {
      "midi": 69,
      "time": 36.429,
      "duration": 0.536,
      "velocity": 0.71,
      "hand": "right"
    },
    {
      "midi": 74,
      "time": 37.5,
      "duration": 0.536,
      "velocity": 0.71,
      "hand": "right"
    },
    {
      "midi": 72,
      "time": 38.036,
      "duration": 0.536,
      "velocity": 0.71,
      "hand": "right"
    },
    {
      "midi": 69,
      "time": 39.107,
      "duration": 0.536,
      "velocity": 0.71,
      "hand": "right"
    },
    {
      "midi": 66,
      "time": 39.643,
      "duration": 3.214,
      "velocity": 0.71,
      "hand": "right"
    },
    {
      "midi": 69,
      "time": 42.857,
      "duration": 1.071,
      "velocity": 0.71,
      "hand": "right"
    },
    {
      "midi": 66,
      "time": 43.929,
      "duration": 3.214,
      "velocity": 0.71,
      "hand": "right"
    },
    {
      "midi": 69,
      "time": 47.143,
      "duration": 1.071,
      "velocity": 0.71,
      "hand": "right"
    },
    {
      "midi": 67,
      "time": 48.214,
      "duration": 0.536,
      "velocity": 0.71,
      "hand": "right"
    },
    {
      "midi": 66,
      "time": 48.75,
      "duration": 0.536,
      "velocity": 0.71,
      "hand": "right"
    },
    {
      "midi": 60,
      "time": 49.286,
      "duration": 0.536,
      "velocity": 0.71,
      "hand": "right"
    },
    {
      "midi": 63,
      "time": 50.357,
      "duration": 0.536,
      "velocity": 0.71,
      "hand": "right"
    },
    {
      "midi": 66,
      "time": 50.893,
      "duration": 0.536,
      "velocity": 0.71,
      "hand": "right"
    },
    {
      "midi": 74,
      "time": 51.429,
      "duration": 0.536,
      "velocity": 0.71,
      "hand": "right"
    },
    {
      "midi": 71,
      "time": 52.232,
      "duration": 0.536,
      "velocity": 0.71,
      "hand": "right"
    },
    {
      "midi": 64,
      "time": 53.036,
      "duration": 0.536,
      "velocity": 0.71,
      "hand": "right"
    },
    {
      "midi": 64,
      "time": 54.107,
      "duration": 0.536,
      "velocity": 0.71,
      "hand": "right"
    },
    {
      "midi": 64,
      "time": 55.179,
      "duration": 0.536,
      "velocity": 0.71,
      "hand": "right"
    },
    {
      "midi": 64,
      "time": 56.25,
      "duration": 0.536,
      "velocity": 0.71,
      "hand": "right"
    },
    {
      "midi": 71,
      "time": 56.786,
      "duration": 3.214,
      "velocity": 0.71,
      "hand": "right"
    },
    {
      "midi": 64,
      "time": 57.857,
      "duration": 0.536,
      "velocity": 0.71,
      "hand": "right"
    },
    {
      "midi": 63,
      "time": 58.929,
      "duration": 0.536,
      "velocity": 0.71,
      "hand": "right"
    },
    {
      "midi": 72,
      "time": 60,
      "duration": 1.071,
      "velocity": 0.71,
      "hand": "right"
    },
    {
      "midi": 63,
      "time": 60.536,
      "duration": 0.536,
      "velocity": 0.71,
      "hand": "right"
    },
    {
      "midi": 63,
      "time": 61.607,
      "duration": 0.536,
      "velocity": 0.71,
      "hand": "right"
    },
    {
      "midi": 62,
      "time": 62.143,
      "duration": 0.536,
      "velocity": 0.71,
      "hand": "right"
    },
    {
      "midi": 62,
      "time": 63.75,
      "duration": 0.536,
      "velocity": 0.71,
      "hand": "right"
    },
    {
      "midi": 72,
      "time": 64.286,
      "duration": 1.071,
      "velocity": 0.71,
      "hand": "right"
    },
    {
      "midi": 71,
      "time": 65.357,
      "duration": 0.804,
      "velocity": 0.71,
      "hand": "right"
    },
    {
      "midi": 62,
      "time": 65.893,
      "duration": 0.536,
      "velocity": 0.71,
      "hand": "right"
    },
    {
      "midi": 70,
      "time": 66.429,
      "duration": 1.071,
      "velocity": 0.71,
      "hand": "right"
    },
    {
      "midi": 81,
      "time": 67.5,
      "duration": 1.071,
      "velocity": 0.71,
      "hand": "right"
    },
    {
      "midi": 78,
      "time": 68.571,
      "duration": 0.804,
      "velocity": 0.71,
      "hand": "right"
    },
    {
      "midi": 76,
      "time": 69.375,
      "duration": 0.536,
      "velocity": 0.71,
      "hand": "right"
    },
    {
      "midi": 75,
      "time": 70.179,
      "duration": 0.536,
      "velocity": 0.71,
      "hand": "right"
    },
    {
      "midi": 75,
      "time": 71.25,
      "duration": 0.536,
      "velocity": 0.71,
      "hand": "right"
    },
    {
      "midi": 79,
      "time": 72.857,
      "duration": 0.536,
      "velocity": 0.71,
      "hand": "right"
    },
    {
      "midi": 71,
      "time": 73.393,
      "duration": 0.536,
      "velocity": 0.71,
      "hand": "right"
    },
    {
      "midi": 74,
      "time": 73.929,
      "duration": 0.536,
      "velocity": 0.71,
      "hand": "right"
    },
    {
      "midi": 76,
      "time": 75,
      "duration": 0.536,
      "velocity": 0.71,
      "hand": "right"
    },
    {
      "midi": 60,
      "time": 75.536,
      "duration": 0.536,
      "velocity": 0.71,
      "hand": "right"
    },
    {
      "midi": 69,
      "time": 77.679,
      "duration": 0.536,
      "velocity": 0.71,
      "hand": "right"
    },
    {
      "midi": 69,
      "time": 81.429,
      "duration": 1.071,
      "velocity": 0.71,
      "hand": "right"
    },
    {
      "midi": 66,
      "time": 82.5,
      "duration": 4.018,
      "velocity": 0.71,
      "hand": "right"
    },
    {
      "midi": 64,
      "time": 86.518,
      "duration": 0.536,
      "velocity": 0.71,
      "hand": "right"
    },
    {
      "midi": 66,
      "time": 90,
      "duration": 1.071,
      "velocity": 0.71,
      "hand": "right"
    },
    {
      "midi": 64,
      "time": 91.071,
      "duration": 3.214,
      "velocity": 0.71,
      "hand": "right"
    },
    {
      "midi": 66,
      "time": 94.286,
      "duration": 1.071,
      "velocity": 0.71,
      "hand": "right"
    },
    {
      "midi": 64,
      "time": 95.357,
      "duration": 2.143,
      "velocity": 0.71,
      "hand": "right"
    },
    {
      "midi": 64,
      "time": 99.643,
      "duration": 2.143,
      "velocity": 0.71,
      "hand": "right"
    },
    {
      "midi": 63,
      "time": 101.786,
      "duration": 2.143,
      "velocity": 0.71,
      "hand": "right"
    },
    {
      "midi": 64,
      "time": 103.929,
      "duration": 4.286,
      "velocity": 0.71,
      "hand": "right"
    }
  ],
  "notes2Hands": [
    {
      "midi": 59,
      "time": 0,
      "duration": 0.804,
      "velocity": 0.71,
      "hand": "left"
    },
    {
      "midi": 71,
      "time": 0.804,
      "duration": 0.268,
      "velocity": 0.71,
      "hand": "right"
    },
    {
      "midi": 55,
      "time": 1.071,
      "duration": 0.536,
      "velocity": 0.71,
      "hand": "left"
    },
    {
      "midi": 59,
      "time": 1.071,
      "duration": 0.536,
      "velocity": 0.71,
      "hand": "left"
    },
    {
      "midi": 64,
      "time": 1.071,
      "duration": 0.536,
      "velocity": 0.71,
      "hand": "right"
    },
    {
      "midi": 71,
      "time": 1.071,
      "duration": 3.214,
      "velocity": 0.71,
      "hand": "right"
    },
    {
      "midi": 55,
      "time": 1.607,
      "duration": 0.536,
      "velocity": 0.71,
      "hand": "left"
    },
    {
      "midi": 59,
      "time": 1.607,
      "duration": 0.536,
      "velocity": 0.71,
      "hand": "left"
    },
    {
      "midi": 64,
      "time": 1.607,
      "duration": 0.536,
      "velocity": 0.71,
      "hand": "right"
    },
    {
      "midi": 55,
      "time": 2.143,
      "duration": 0.536,
      "velocity": 0.71,
      "hand": "left"
    },
    {
      "midi": 59,
      "time": 2.143,
      "duration": 0.536,
      "velocity": 0.71,
      "hand": "left"
    },
    {
      "midi": 64,
      "time": 2.143,
      "duration": 0.536,
      "velocity": 0.71,
      "hand": "right"
    },
    {
      "midi": 55,
      "time": 2.679,
      "duration": 0.536,
      "velocity": 0.71,
      "hand": "left"
    },
    {
      "midi": 59,
      "time": 2.679,
      "duration": 0.536,
      "velocity": 0.71,
      "hand": "left"
    },
    {
      "midi": 64,
      "time": 2.679,
      "duration": 0.536,
      "velocity": 0.71,
      "hand": "right"
    },
    {
      "midi": 55,
      "time": 3.214,
      "duration": 0.536,
      "velocity": 0.71,
      "hand": "left"
    },
    {
      "midi": 59,
      "time": 3.214,
      "duration": 0.536,
      "velocity": 0.71,
      "hand": "left"
    },
    {
      "midi": 64,
      "time": 3.214,
      "duration": 0.536,
      "velocity": 0.71,
      "hand": "right"
    },
    {
      "midi": 55,
      "time": 3.75,
      "duration": 0.536,
      "velocity": 0.71,
      "hand": "left"
    },
    {
      "midi": 59,
      "time": 3.75,
      "duration": 0.536,
      "velocity": 0.71,
      "hand": "left"
    },
    {
      "midi": 64,
      "time": 3.75,
      "duration": 0.536,
      "velocity": 0.71,
      "hand": "right"
    },
    {
      "midi": 55,
      "time": 4.286,
      "duration": 0.536,
      "velocity": 0.71,
      "hand": "left"
    },
    {
      "midi": 59,
      "time": 4.286,
      "duration": 0.536,
      "velocity": 0.71,
      "hand": "left"
    },
    {
      "midi": 64,
      "time": 4.286,
      "duration": 0.536,
      "velocity": 0.71,
      "hand": "right"
    },
    {
      "midi": 72,
      "time": 4.286,
      "duration": 1.071,
      "velocity": 0.71,
      "hand": "right"
    },
    {
      "midi": 55,
      "time": 4.821,
      "duration": 0.536,
      "velocity": 0.71,
      "hand": "left"
    },
    {
      "midi": 59,
      "time": 4.821,
      "duration": 0.536,
      "velocity": 0.71,
      "hand": "left"
    },
    {
      "midi": 64,
      "time": 4.821,
      "duration": 0.536,
      "velocity": 0.71,
      "hand": "right"
    },
    {
      "midi": 54,
      "time": 5.357,
      "duration": 0.536,
      "velocity": 0.71,
      "hand": "left"
    },
    {
      "midi": 57,
      "time": 5.357,
      "duration": 0.536,
      "velocity": 0.71,
      "hand": "left"
    },
    {
      "midi": 64,
      "time": 5.357,
      "duration": 0.536,
      "velocity": 0.71,
      "hand": "right"
    },
    {
      "midi": 71,
      "time": 5.357,
      "duration": 3.214,
      "velocity": 0.71,
      "hand": "right"
    },
    {
      "midi": 54,
      "time": 5.893,
      "duration": 0.536,
      "velocity": 0.71,
      "hand": "left"
    },
    {
      "midi": 57,
      "time": 5.893,
      "duration": 0.536,
      "velocity": 0.71,
      "hand": "left"
    },
    {
      "midi": 64,
      "time": 5.893,
      "duration": 0.536,
      "velocity": 0.71,
      "hand": "right"
    },
    {
      "midi": 54,
      "time": 6.429,
      "duration": 0.536,
      "velocity": 0.71,
      "hand": "left"
    },
    {
      "midi": 57,
      "time": 6.429,
      "duration": 0.536,
      "velocity": 0.71,
      "hand": "left"
    },
    {
      "midi": 64,
      "time": 6.429,
      "duration": 0.536,
      "velocity": 0.71,
      "hand": "right"
    },
    {
      "midi": 54,
      "time": 6.964,
      "duration": 0.536,
      "velocity": 0.71,
      "hand": "left"
    },
    {
      "midi": 57,
      "time": 6.964,
      "duration": 0.536,
      "velocity": 0.71,
      "hand": "left"
    },
    {
      "midi": 64,
      "time": 6.964,
      "duration": 0.536,
      "velocity": 0.71,
      "hand": "right"
    },
    {
      "midi": 54,
      "time": 7.5,
      "duration": 0.536,
      "velocity": 0.71,
      "hand": "left"
    },
    {
      "midi": 57,
      "time": 7.5,
      "duration": 0.536,
      "velocity": 0.71,
      "hand": "left"
    },
    {
      "midi": 63,
      "time": 7.5,
      "duration": 0.536,
      "velocity": 0.71,
      "hand": "right"
    },
    {
      "midi": 54,
      "time": 8.036,
      "duration": 0.536,
      "velocity": 0.71,
      "hand": "left"
    },
    {
      "midi": 57,
      "time": 8.036,
      "duration": 0.536,
      "velocity": 0.71,
      "hand": "left"
    },
    {
      "midi": 63,
      "time": 8.036,
      "duration": 0.536,
      "velocity": 0.71,
      "hand": "right"
    },
    {
      "midi": 54,
      "time": 8.571,
      "duration": 0.536,
      "velocity": 0.71,
      "hand": "left"
    },
    {
      "midi": 57,
      "time": 8.571,
      "duration": 0.536,
      "velocity": 0.71,
      "hand": "left"
    },
    {
      "midi": 63,
      "time": 8.571,
      "duration": 0.536,
      "velocity": 0.71,
      "hand": "right"
    },
    {
      "midi": 72,
      "time": 8.571,
      "duration": 1.071,
      "velocity": 0.71,
      "hand": "right"
    },
    {
      "midi": 54,
      "time": 9.107,
      "duration": 0.536,
      "velocity": 0.71,
      "hand": "left"
    },
    {
      "midi": 57,
      "time": 9.107,
      "duration": 0.536,
      "velocity": 0.71,
      "hand": "left"
    },
    {
      "midi": 63,
      "time": 9.107,
      "duration": 0.536,
      "velocity": 0.71,
      "hand": "right"
    },
    {
      "midi": 53,
      "time": 9.643,
      "duration": 0.536,
      "velocity": 0.71,
      "hand": "left"
    },
    {
      "midi": 57,
      "time": 9.643,
      "duration": 0.536,
      "velocity": 0.71,
      "hand": "left"
    },
    {
      "midi": 63,
      "time": 9.643,
      "duration": 0.536,
      "velocity": 0.71,
      "hand": "right"
    },
    {
      "midi": 71,
      "time": 9.643,
      "duration": 3.214,
      "velocity": 0.71,
      "hand": "right"
    },
    {
      "midi": 53,
      "time": 10.179,
      "duration": 0.536,
      "velocity": 0.71,
      "hand": "left"
    },
    {
      "midi": 57,
      "time": 10.179,
      "duration": 0.536,
      "velocity": 0.71,
      "hand": "left"
    },
    {
      "midi": 63,
      "time": 10.179,
      "duration": 0.536,
      "velocity": 0.71,
      "hand": "right"
    },
    {
      "midi": 53,
      "time": 10.714,
      "duration": 0.536,
      "velocity": 0.71,
      "hand": "left"
    },
    {
      "midi": 57,
      "time": 10.714,
      "duration": 0.536,
      "velocity": 0.71,
      "hand": "left"
    },
    {
      "midi": 63,
      "time": 10.714,
      "duration": 0.536,
      "velocity": 0.71,
      "hand": "right"
    },
    {
      "midi": 53,
      "time": 11.25,
      "duration": 0.536,
      "velocity": 0.71,
      "hand": "left"
    },
    {
      "midi": 57,
      "time": 11.25,
      "duration": 0.536,
      "velocity": 0.71,
      "hand": "left"
    },
    {
      "midi": 63,
      "time": 11.25,
      "duration": 0.536,
      "velocity": 0.71,
      "hand": "right"
    },
    {
      "midi": 53,
      "time": 11.786,
      "duration": 0.536,
      "velocity": 0.71,
      "hand": "left"
    },
    {
      "midi": 57,
      "time": 11.786,
      "duration": 0.536,
      "velocity": 0.71,
      "hand": "left"
    },
    {
      "midi": 62,
      "time": 11.786,
      "duration": 0.536,
      "velocity": 0.71,
      "hand": "right"
    },
    {
      "midi": 53,
      "time": 12.321,
      "duration": 0.536,
      "velocity": 0.71,
      "hand": "left"
    },
    {
      "midi": 57,
      "time": 12.321,
      "duration": 0.536,
      "velocity": 0.71,
      "hand": "left"
    },
    {
      "midi": 62,
      "time": 12.321,
      "duration": 0.536,
      "velocity": 0.71,
      "hand": "right"
    },
    {
      "midi": 53,
      "time": 12.857,
      "duration": 0.536,
      "velocity": 0.71,
      "hand": "left"
    },
    {
      "midi": 56,
      "time": 12.857,
      "duration": 0.536,
      "velocity": 0.71,
      "hand": "left"
    },
    {
      "midi": 62,
      "time": 12.857,
      "duration": 0.536,
      "velocity": 0.71,
      "hand": "right"
    },
    {
      "midi": 72,
      "time": 12.857,
      "duration": 1.071,
      "velocity": 0.71,
      "hand": "right"
    },
    {
      "midi": 53,
      "time": 13.393,
      "duration": 0.536,
      "velocity": 0.71,
      "hand": "left"
    },
    {
      "midi": 56,
      "time": 13.393,
      "duration": 0.536,
      "velocity": 0.71,
      "hand": "left"
    },
    {
      "midi": 62,
      "time": 13.393,
      "duration": 0.536,
      "velocity": 0.71,
      "hand": "right"
    },
    {
      "midi": 52,
      "time": 13.929,
      "duration": 0.536,
      "velocity": 0.71,
      "hand": "left"
    },
    {
      "midi": 56,
      "time": 13.929,
      "duration": 0.536,
      "velocity": 0.71,
      "hand": "left"
    },
    {
      "midi": 62,
      "time": 13.929,
      "duration": 0.536,
      "velocity": 0.71,
      "hand": "right"
    },
    {
      "midi": 71,
      "time": 13.929,
      "duration": 3.214,
      "velocity": 0.71,
      "hand": "right"
    },
    {
      "midi": 52,
      "time": 14.464,
      "duration": 0.536,
      "velocity": 0.71,
      "hand": "left"
    },
    {
      "midi": 56,
      "time": 14.464,
      "duration": 0.536,
      "velocity": 0.71,
      "hand": "left"
    },
    {
      "midi": 62,
      "time": 14.464,
      "duration": 0.536,
      "velocity": 0.71,
      "hand": "right"
    },
    {
      "midi": 52,
      "time": 15,
      "duration": 0.536,
      "velocity": 0.71,
      "hand": "left"
    },
    {
      "midi": 56,
      "time": 15,
      "duration": 0.536,
      "velocity": 0.71,
      "hand": "left"
    },
    {
      "midi": 62,
      "time": 15,
      "duration": 0.536,
      "velocity": 0.71,
      "hand": "right"
    },
    {
      "midi": 52,
      "time": 15.536,
      "duration": 0.536,
      "velocity": 0.71,
      "hand": "left"
    },
    {
      "midi": 56,
      "time": 15.536,
      "duration": 0.536,
      "velocity": 0.71,
      "hand": "left"
    },
    {
      "midi": 62,
      "time": 15.536,
      "duration": 0.536,
      "velocity": 0.71,
      "hand": "right"
    },
    {
      "midi": 52,
      "time": 16.071,
      "duration": 0.536,
      "velocity": 0.71,
      "hand": "left"
    },
    {
      "midi": 55,
      "time": 16.071,
      "duration": 0.536,
      "velocity": 0.71,
      "hand": "left"
    },
    {
      "midi": 62,
      "time": 16.071,
      "duration": 0.536,
      "velocity": 0.71,
      "hand": "right"
    },
    {
      "midi": 52,
      "time": 16.607,
      "duration": 0.536,
      "velocity": 0.71,
      "hand": "left"
    },
    {
      "midi": 55,
      "time": 16.607,
      "duration": 0.536,
      "velocity": 0.71,
      "hand": "left"
    },
    {
      "midi": 62,
      "time": 16.607,
      "duration": 0.536,
      "velocity": 0.71,
      "hand": "right"
    },
    {
      "midi": 52,
      "time": 17.143,
      "duration": 0.536,
      "velocity": 0.71,
      "hand": "left"
    },
    {
      "midi": 55,
      "time": 17.143,
      "duration": 0.536,
      "velocity": 0.71,
      "hand": "left"
    },
    {
      "midi": 61,
      "time": 17.143,
      "duration": 0.536,
      "velocity": 0.71,
      "hand": "right"
    },
    {
      "midi": 70,
      "time": 17.143,
      "duration": 1.071,
      "velocity": 0.71,
      "hand": "right"
    },
    {
      "midi": 52,
      "time": 17.679,
      "duration": 0.536,
      "velocity": 0.71,
      "hand": "left"
    },
    {
      "midi": 55,
      "time": 17.679,
      "duration": 0.536,
      "velocity": 0.71,
      "hand": "left"
    },
    {
      "midi": 61,
      "time": 17.679,
      "duration": 0.536,
      "velocity": 0.71,
      "hand": "right"
    },
    {
      "midi": 52,
      "time": 18.214,
      "duration": 0.536,
      "velocity": 0.71,
      "hand": "left"
    },
    {
      "midi": 55,
      "time": 18.214,
      "duration": 0.536,
      "velocity": 0.71,
      "hand": "left"
    },
    {
      "midi": 60,
      "time": 18.214,
      "duration": 0.536,
      "velocity": 0.71,
      "hand": "right"
    },
    {
      "midi": 69,
      "time": 18.214,
      "duration": 3.214,
      "velocity": 0.71,
      "hand": "right"
    },
    {
      "midi": 52,
      "time": 18.75,
      "duration": 0.536,
      "velocity": 0.71,
      "hand": "left"
    },
    {
      "midi": 55,
      "time": 18.75,
      "duration": 0.536,
      "velocity": 0.71,
      "hand": "left"
    },
    {
      "midi": 60,
      "time": 18.75,
      "duration": 0.536,
      "velocity": 0.71,
      "hand": "right"
    },
    {
      "midi": 52,
      "time": 19.286,
      "duration": 0.536,
      "velocity": 0.71,
      "hand": "left"
    },
    {
      "midi": 55,
      "time": 19.286,
      "duration": 0.536,
      "velocity": 0.71,
      "hand": "left"
    },
    {
      "midi": 60,
      "time": 19.286,
      "duration": 0.536,
      "velocity": 0.71,
      "hand": "right"
    },
    {
      "midi": 52,
      "time": 19.821,
      "duration": 0.536,
      "velocity": 0.71,
      "hand": "left"
    },
    {
      "midi": 55,
      "time": 19.821,
      "duration": 0.536,
      "velocity": 0.71,
      "hand": "left"
    },
    {
      "midi": 60,
      "time": 19.821,
      "duration": 0.536,
      "velocity": 0.71,
      "hand": "right"
    },
    {
      "midi": 52,
      "time": 20.357,
      "duration": 0.536,
      "velocity": 0.71,
      "hand": "left"
    },
    {
      "midi": 54,
      "time": 20.357,
      "duration": 0.536,
      "velocity": 0.71,
      "hand": "left"
    },
    {
      "midi": 60,
      "time": 20.357,
      "duration": 0.536,
      "velocity": 0.71,
      "hand": "right"
    },
    {
      "midi": 52,
      "time": 20.893,
      "duration": 0.536,
      "velocity": 0.71,
      "hand": "left"
    },
    {
      "midi": 54,
      "time": 20.893,
      "duration": 0.536,
      "velocity": 0.71,
      "hand": "left"
    },
    {
      "midi": 60,
      "time": 20.893,
      "duration": 0.536,
      "velocity": 0.71,
      "hand": "right"
    },
    {
      "midi": 52,
      "time": 21.429,
      "duration": 0.536,
      "velocity": 0.71,
      "hand": "left"
    },
    {
      "midi": 54,
      "time": 21.429,
      "duration": 0.536,
      "velocity": 0.71,
      "hand": "left"
    },
    {
      "midi": 60,
      "time": 21.429,
      "duration": 0.536,
      "velocity": 0.71,
      "hand": "right"
    },
    {
      "midi": 71,
      "time": 21.429,
      "duration": 1.071,
      "velocity": 0.71,
      "hand": "right"
    },
    {
      "midi": 52,
      "time": 21.964,
      "duration": 0.536,
      "velocity": 0.71,
      "hand": "left"
    },
    {
      "midi": 54,
      "time": 21.964,
      "duration": 0.536,
      "velocity": 0.71,
      "hand": "left"
    },
    {
      "midi": 60,
      "time": 21.964,
      "duration": 0.536,
      "velocity": 0.71,
      "hand": "right"
    },
    {
      "midi": 52,
      "time": 22.5,
      "duration": 0.536,
      "velocity": 0.71,
      "hand": "left"
    },
    {
      "midi": 54,
      "time": 22.5,
      "duration": 0.536,
      "velocity": 0.71,
      "hand": "left"
    },
    {
      "midi": 60,
      "time": 22.5,
      "duration": 0.536,
      "velocity": 0.71,
      "hand": "right"
    },
    {
      "midi": 69,
      "time": 22.5,
      "duration": 3.214,
      "velocity": 0.71,
      "hand": "right"
    },
    {
      "midi": 52,
      "time": 23.036,
      "duration": 0.536,
      "velocity": 0.71,
      "hand": "left"
    },
    {
      "midi": 54,
      "time": 23.036,
      "duration": 0.536,
      "velocity": 0.71,
      "hand": "left"
    },
    {
      "midi": 60,
      "time": 23.036,
      "duration": 0.536,
      "velocity": 0.71,
      "hand": "right"
    },
    {
      "midi": 52,
      "time": 23.571,
      "duration": 0.536,
      "velocity": 0.71,
      "hand": "left"
    },
    {
      "midi": 54,
      "time": 23.571,
      "duration": 0.536,
      "velocity": 0.71,
      "hand": "left"
    },
    {
      "midi": 60,
      "time": 23.571,
      "duration": 0.536,
      "velocity": 0.71,
      "hand": "right"
    },
    {
      "midi": 52,
      "time": 24.107,
      "duration": 0.536,
      "velocity": 0.71,
      "hand": "left"
    },
    {
      "midi": 54,
      "time": 24.107,
      "duration": 0.536,
      "velocity": 0.71,
      "hand": "left"
    },
    {
      "midi": 60,
      "time": 24.107,
      "duration": 0.536,
      "velocity": 0.71,
      "hand": "right"
    },
    {
      "midi": 51,
      "time": 24.643,
      "duration": 0.536,
      "velocity": 0.71,
      "hand": "left"
    },
    {
      "midi": 54,
      "time": 24.643,
      "duration": 0.536,
      "velocity": 0.71,
      "hand": "left"
    },
    {
      "midi": 60,
      "time": 24.643,
      "duration": 0.536,
      "velocity": 0.71,
      "hand": "right"
    },
    {
      "midi": 51,
      "time": 25.179,
      "duration": 0.536,
      "velocity": 0.71,
      "hand": "left"
    },
    {
      "midi": 54,
      "time": 25.179,
      "duration": 0.536,
      "velocity": 0.71,
      "hand": "left"
    },
    {
      "midi": 60,
      "time": 25.179,
      "duration": 0.536,
      "velocity": 0.71,
      "hand": "right"
    },
    {
      "midi": 51,
      "time": 25.714,
      "duration": 0.536,
      "velocity": 0.71,
      "hand": "left"
    },
    {
      "midi": 54,
      "time": 25.714,
      "duration": 0.536,
      "velocity": 0.71,
      "hand": "left"
    },
    {
      "midi": 60,
      "time": 25.714,
      "duration": 0.536,
      "velocity": 0.71,
      "hand": "right"
    },
    {
      "midi": 71,
      "time": 25.714,
      "duration": 1.071,
      "velocity": 0.71,
      "hand": "right"
    },
    {
      "midi": 51,
      "time": 26.25,
      "duration": 0.536,
      "velocity": 0.71,
      "hand": "left"
    },
    {
      "midi": 54,
      "time": 26.25,
      "duration": 0.536,
      "velocity": 0.71,
      "hand": "left"
    },
    {
      "midi": 60,
      "time": 26.25,
      "duration": 0.536,
      "velocity": 0.71,
      "hand": "right"
    },
    {
      "midi": 50,
      "time": 26.786,
      "duration": 0.536,
      "velocity": 0.71,
      "hand": "left"
    },
    {
      "midi": 54,
      "time": 26.786,
      "duration": 0.536,
      "velocity": 0.71,
      "hand": "left"
    },
    {
      "midi": 60,
      "time": 26.786,
      "duration": 0.536,
      "velocity": 0.71,
      "hand": "right"
    },
    {
      "midi": 69,
      "time": 26.786,
      "duration": 3.214,
      "velocity": 0.71,
      "hand": "right"
    },
    {
      "midi": 50,
      "time": 27.321,
      "duration": 0.536,
      "velocity": 0.71,
      "hand": "left"
    },
    {
      "midi": 54,
      "time": 27.321,
      "duration": 0.536,
      "velocity": 0.71,
      "hand": "left"
    },
    {
      "midi": 60,
      "time": 27.321,
      "duration": 0.536,
      "velocity": 0.71,
      "hand": "right"
    },
    {
      "midi": 50,
      "time": 27.857,
      "duration": 0.536,
      "velocity": 0.71,
      "hand": "left"
    },
    {
      "midi": 54,
      "time": 27.857,
      "duration": 0.536,
      "velocity": 0.71,
      "hand": "left"
    },
    {
      "midi": 60,
      "time": 27.857,
      "duration": 0.536,
      "velocity": 0.71,
      "hand": "right"
    },
    {
      "midi": 50,
      "time": 28.393,
      "duration": 0.536,
      "velocity": 0.71,
      "hand": "left"
    },
    {
      "midi": 54,
      "time": 28.393,
      "duration": 0.536,
      "velocity": 0.71,
      "hand": "left"
    },
    {
      "midi": 60,
      "time": 28.393,
      "duration": 0.536,
      "velocity": 0.71,
      "hand": "right"
    },
    {
      "midi": 50,
      "time": 28.929,
      "duration": 0.536,
      "velocity": 0.71,
      "hand": "left"
    },
    {
      "midi": 54,
      "time": 28.929,
      "duration": 0.536,
      "velocity": 0.71,
      "hand": "left"
    },
    {
      "midi": 60,
      "time": 28.929,
      "duration": 0.536,
      "velocity": 0.71,
      "hand": "right"
    },
    {
      "midi": 50,
      "time": 29.464,
      "duration": 0.536,
      "velocity": 0.71,
      "hand": "left"
    },
    {
      "midi": 54,
      "time": 29.464,
      "duration": 0.536,
      "velocity": 0.71,
      "hand": "left"
    },
    {
      "midi": 60,
      "time": 29.464,
      "duration": 0.536,
      "velocity": 0.71,
      "hand": "right"
    },
    {
      "midi": 50,
      "time": 30,
      "duration": 0.536,
      "velocity": 0.71,
      "hand": "left"
    },
    {
      "midi": 54,
      "time": 30,
      "duration": 0.536,
      "velocity": 0.71,
      "hand": "left"
    },
    {
      "midi": 60,
      "time": 30,
      "duration": 0.536,
      "velocity": 0.71,
      "hand": "right"
    },
    {
      "midi": 71,
      "time": 30,
      "duration": 0.804,
      "velocity": 0.71,
      "hand": "right"
    },
    {
      "midi": 50,
      "time": 30.536,
      "duration": 0.536,
      "velocity": 0.71,
      "hand": "left"
    },
    {
      "midi": 54,
      "time": 30.536,
      "duration": 0.536,
      "velocity": 0.71,
      "hand": "left"
    },
    {
      "midi": 60,
      "time": 30.536,
      "duration": 0.536,
      "velocity": 0.71,
      "hand": "right"
    },
    {
      "midi": 69,
      "time": 30.804,
      "duration": 0.268,
      "velocity": 0.71,
      "hand": "right"
    },
    {
      "midi": 50,
      "time": 31.071,
      "duration": 0.536,
      "velocity": 0.71,
      "hand": "left"
    },
    {
      "midi": 53,
      "time": 31.071,
      "duration": 0.536,
      "velocity": 0.71,
      "hand": "left"
    },
    {
      "midi": 60,
      "time": 31.071,
      "duration": 0.536,
      "velocity": 0.71,
      "hand": "right"
    },
    {
      "midi": 69,
      "time": 31.071,
      "duration": 3.214,
      "velocity": 0.71,
      "hand": "right"
    },
    {
      "midi": 50,
      "time": 31.607,
      "duration": 0.536,
      "velocity": 0.71,
      "hand": "left"
    },
    {
      "midi": 53,
      "time": 31.607,
      "duration": 0.536,
      "velocity": 0.71,
      "hand": "left"
    },
    {
      "midi": 60,
      "time": 31.607,
      "duration": 0.536,
      "velocity": 0.71,
      "hand": "right"
    },
    {
      "midi": 50,
      "time": 32.143,
      "duration": 0.536,
      "velocity": 0.71,
      "hand": "left"
    },
    {
      "midi": 53,
      "time": 32.143,
      "duration": 0.536,
      "velocity": 0.71,
      "hand": "left"
    },
    {
      "midi": 60,
      "time": 32.143,
      "duration": 0.536,
      "velocity": 0.71,
      "hand": "right"
    },
    {
      "midi": 50,
      "time": 32.679,
      "duration": 0.536,
      "velocity": 0.71,
      "hand": "left"
    },
    {
      "midi": 53,
      "time": 32.679,
      "duration": 0.536,
      "velocity": 0.71,
      "hand": "left"
    },
    {
      "midi": 60,
      "time": 32.679,
      "duration": 0.536,
      "velocity": 0.71,
      "hand": "right"
    },
    {
      "midi": 50,
      "time": 33.214,
      "duration": 0.536,
      "velocity": 0.71,
      "hand": "left"
    },
    {
      "midi": 53,
      "time": 33.214,
      "duration": 0.536,
      "velocity": 0.71,
      "hand": "left"
    },
    {
      "midi": 59,
      "time": 33.214,
      "duration": 0.536,
      "velocity": 0.71,
      "hand": "left"
    },
    {
      "midi": 50,
      "time": 33.75,
      "duration": 0.536,
      "velocity": 0.71,
      "hand": "left"
    },
    {
      "midi": 53,
      "time": 33.75,
      "duration": 0.536,
      "velocity": 0.71,
      "hand": "left"
    },
    {
      "midi": 59,
      "time": 33.75,
      "duration": 0.536,
      "velocity": 0.71,
      "hand": "left"
    },
    {
      "midi": 50,
      "time": 34.286,
      "duration": 0.536,
      "velocity": 0.71,
      "hand": "left"
    },
    {
      "midi": 53,
      "time": 34.286,
      "duration": 0.536,
      "velocity": 0.71,
      "hand": "left"
    },
    {
      "midi": 59,
      "time": 34.286,
      "duration": 0.536,
      "velocity": 0.71,
      "hand": "left"
    },
    {
      "midi": 68,
      "time": 34.286,
      "duration": 2.143,
      "velocity": 0.71,
      "hand": "right"
    },
    {
      "midi": 50,
      "time": 34.821,
      "duration": 0.536,
      "velocity": 0.71,
      "hand": "left"
    },
    {
      "midi": 53,
      "time": 34.821,
      "duration": 0.536,
      "velocity": 0.71,
      "hand": "left"
    },
    {
      "midi": 59,
      "time": 34.821,
      "duration": 0.536,
      "velocity": 0.71,
      "hand": "left"
    },
    {
      "midi": 48,
      "time": 35.357,
      "duration": 0.536,
      "velocity": 0.71,
      "hand": "left"
    },
    {
      "midi": 52,
      "time": 35.357,
      "duration": 0.536,
      "velocity": 0.71,
      "hand": "left"
    },
    {
      "midi": 59,
      "time": 35.357,
      "duration": 0.536,
      "velocity": 0.71,
      "hand": "left"
    },
    {
      "midi": 48,
      "time": 35.893,
      "duration": 0.536,
      "velocity": 0.71,
      "hand": "left"
    },
    {
      "midi": 52,
      "time": 35.893,
      "duration": 0.536,
      "velocity": 0.71,
      "hand": "left"
    },
    {
      "midi": 59,
      "time": 35.893,
      "duration": 0.536,
      "velocity": 0.71,
      "hand": "left"
    },
    {
      "midi": 48,
      "time": 36.429,
      "duration": 0.536,
      "velocity": 0.71,
      "hand": "left"
    },
    {
      "midi": 52,
      "time": 36.429,
      "duration": 0.536,
      "velocity": 0.71,
      "hand": "left"
    },
    {
      "midi": 57,
      "time": 36.429,
      "duration": 0.536,
      "velocity": 0.71,
      "hand": "left"
    },
    {
      "midi": 69,
      "time": 36.429,
      "duration": 0.536,
      "velocity": 0.71,
      "hand": "right"
    },
    {
      "midi": 48,
      "time": 36.964,
      "duration": 0.536,
      "velocity": 0.71,
      "hand": "left"
    },
    {
      "midi": 52,
      "time": 36.964,
      "duration": 0.536,
      "velocity": 0.71,
      "hand": "left"
    },
    {
      "midi": 57,
      "time": 36.964,
      "duration": 0.536,
      "velocity": 0.71,
      "hand": "left"
    },
    {
      "midi": 71,
      "time": 36.964,
      "duration": 0.536,
      "velocity": 0.71,
      "hand": "right"
    },
    {
      "midi": 48,
      "time": 37.5,
      "duration": 0.536,
      "velocity": 0.71,
      "hand": "left"
    },
    {
      "midi": 52,
      "time": 37.5,
      "duration": 0.536,
      "velocity": 0.71,
      "hand": "left"
    },
    {
      "midi": 57,
      "time": 37.5,
      "duration": 0.536,
      "velocity": 0.71,
      "hand": "left"
    },
    {
      "midi": 74,
      "time": 37.5,
      "duration": 0.536,
      "velocity": 0.71,
      "hand": "right"
    },
    {
      "midi": 48,
      "time": 38.036,
      "duration": 0.536,
      "velocity": 0.71,
      "hand": "left"
    },
    {
      "midi": 52,
      "time": 38.036,
      "duration": 0.536,
      "velocity": 0.71,
      "hand": "left"
    },
    {
      "midi": 57,
      "time": 38.036,
      "duration": 0.536,
      "velocity": 0.71,
      "hand": "left"
    },
    {
      "midi": 72,
      "time": 38.036,
      "duration": 0.536,
      "velocity": 0.71,
      "hand": "right"
    },
    {
      "midi": 48,
      "time": 38.571,
      "duration": 0.536,
      "velocity": 0.71,
      "hand": "left"
    },
    {
      "midi": 52,
      "time": 38.571,
      "duration": 0.536,
      "velocity": 0.71,
      "hand": "left"
    },
    {
      "midi": 57,
      "time": 38.571,
      "duration": 0.536,
      "velocity": 0.71,
      "hand": "left"
    },
    {
      "midi": 64,
      "time": 38.571,
      "duration": 0.536,
      "velocity": 0.71,
      "hand": "right"
    },
    {
      "midi": 48,
      "time": 39.107,
      "duration": 0.536,
      "velocity": 0.71,
      "hand": "left"
    },
    {
      "midi": 52,
      "time": 39.107,
      "duration": 0.536,
      "velocity": 0.71,
      "hand": "left"
    },
    {
      "midi": 57,
      "time": 39.107,
      "duration": 0.536,
      "velocity": 0.71,
      "hand": "left"
    },
    {
      "midi": 69,
      "time": 39.107,
      "duration": 0.536,
      "velocity": 0.71,
      "hand": "right"
    },
    {
      "midi": 47,
      "time": 39.643,
      "duration": 0.536,
      "velocity": 0.71,
      "hand": "left"
    },
    {
      "midi": 52,
      "time": 39.643,
      "duration": 0.536,
      "velocity": 0.71,
      "hand": "left"
    },
    {
      "midi": 57,
      "time": 39.643,
      "duration": 0.536,
      "velocity": 0.71,
      "hand": "left"
    },
    {
      "midi": 66,
      "time": 39.643,
      "duration": 3.214,
      "velocity": 0.71,
      "hand": "right"
    },
    {
      "midi": 47,
      "time": 40.179,
      "duration": 0.536,
      "velocity": 0.71,
      "hand": "left"
    },
    {
      "midi": 52,
      "time": 40.179,
      "duration": 0.536,
      "velocity": 0.71,
      "hand": "left"
    },
    {
      "midi": 57,
      "time": 40.179,
      "duration": 0.536,
      "velocity": 0.71,
      "hand": "left"
    },
    {
      "midi": 47,
      "time": 40.714,
      "duration": 0.536,
      "velocity": 0.71,
      "hand": "left"
    },
    {
      "midi": 51,
      "time": 40.714,
      "duration": 0.536,
      "velocity": 0.71,
      "hand": "left"
    },
    {
      "midi": 57,
      "time": 40.714,
      "duration": 0.536,
      "velocity": 0.71,
      "hand": "left"
    },
    {
      "midi": 47,
      "time": 41.25,
      "duration": 0.536,
      "velocity": 0.71,
      "hand": "left"
    },
    {
      "midi": 51,
      "time": 41.25,
      "duration": 0.536,
      "velocity": 0.71,
      "hand": "left"
    },
    {
      "midi": 57,
      "time": 41.25,
      "duration": 0.536,
      "velocity": 0.71,
      "hand": "left"
    },
    {
      "midi": 48,
      "time": 41.786,
      "duration": 0.536,
      "velocity": 0.71,
      "hand": "left"
    },
    {
      "midi": 52,
      "time": 41.786,
      "duration": 0.536,
      "velocity": 0.71,
      "hand": "left"
    },
    {
      "midi": 57,
      "time": 41.786,
      "duration": 0.536,
      "velocity": 0.71,
      "hand": "left"
    },
    {
      "midi": 48,
      "time": 42.321,
      "duration": 0.536,
      "velocity": 0.71,
      "hand": "left"
    },
    {
      "midi": 52,
      "time": 42.321,
      "duration": 0.536,
      "velocity": 0.71,
      "hand": "left"
    },
    {
      "midi": 57,
      "time": 42.321,
      "duration": 0.536,
      "velocity": 0.71,
      "hand": "left"
    },
    {
      "midi": 48,
      "time": 42.857,
      "duration": 0.536,
      "velocity": 0.71,
      "hand": "left"
    },
    {
      "midi": 52,
      "time": 42.857,
      "duration": 0.536,
      "velocity": 0.71,
      "hand": "left"
    },
    {
      "midi": 57,
      "time": 42.857,
      "duration": 0.536,
      "velocity": 0.71,
      "hand": "left"
    },
    {
      "midi": 69,
      "time": 42.857,
      "duration": 1.071,
      "velocity": 0.71,
      "hand": "right"
    },
    {
      "midi": 48,
      "time": 43.393,
      "duration": 0.536,
      "velocity": 0.71,
      "hand": "left"
    },
    {
      "midi": 52,
      "time": 43.393,
      "duration": 0.536,
      "velocity": 0.71,
      "hand": "left"
    },
    {
      "midi": 57,
      "time": 43.393,
      "duration": 0.536,
      "velocity": 0.71,
      "hand": "left"
    },
    {
      "midi": 47,
      "time": 43.929,
      "duration": 0.536,
      "velocity": 0.71,
      "hand": "left"
    },
    {
      "midi": 51,
      "time": 43.929,
      "duration": 0.536,
      "velocity": 0.71,
      "hand": "left"
    },
    {
      "midi": 57,
      "time": 43.929,
      "duration": 0.536,
      "velocity": 0.71,
      "hand": "left"
    },
    {
      "midi": 66,
      "time": 43.929,
      "duration": 3.214,
      "velocity": 0.71,
      "hand": "right"
    },
    {
      "midi": 47,
      "time": 44.464,
      "duration": 0.536,
      "velocity": 0.71,
      "hand": "left"
    },
    {
      "midi": 51,
      "time": 44.464,
      "duration": 0.536,
      "velocity": 0.71,
      "hand": "left"
    },
    {
      "midi": 57,
      "time": 44.464,
      "duration": 0.536,
      "velocity": 0.71,
      "hand": "left"
    },
    {
      "midi": 47,
      "time": 45,
      "duration": 0.536,
      "velocity": 0.71,
      "hand": "left"
    },
    {
      "midi": 51,
      "time": 45,
      "duration": 0.536,
      "velocity": 0.71,
      "hand": "left"
    },
    {
      "midi": 57,
      "time": 45,
      "duration": 0.536,
      "velocity": 0.71,
      "hand": "left"
    },
    {
      "midi": 47,
      "time": 45.536,
      "duration": 0.536,
      "velocity": 0.71,
      "hand": "left"
    },
    {
      "midi": 51,
      "time": 45.536,
      "duration": 0.536,
      "velocity": 0.71,
      "hand": "left"
    },
    {
      "midi": 57,
      "time": 45.536,
      "duration": 0.536,
      "velocity": 0.71,
      "hand": "left"
    },
    {
      "midi": 48,
      "time": 46.071,
      "duration": 0.536,
      "velocity": 0.71,
      "hand": "left"
    },
    {
      "midi": 52,
      "time": 46.071,
      "duration": 0.536,
      "velocity": 0.71,
      "hand": "left"
    },
    {
      "midi": 57,
      "time": 46.071,
      "duration": 0.536,
      "velocity": 0.71,
      "hand": "left"
    },
    {
      "midi": 48,
      "time": 46.607,
      "duration": 0.536,
      "velocity": 0.71,
      "hand": "left"
    },
    {
      "midi": 52,
      "time": 46.607,
      "duration": 0.536,
      "velocity": 0.71,
      "hand": "left"
    },
    {
      "midi": 57,
      "time": 46.607,
      "duration": 0.536,
      "velocity": 0.71,
      "hand": "left"
    },
    {
      "midi": 48,
      "time": 47.143,
      "duration": 0.536,
      "velocity": 0.71,
      "hand": "left"
    },
    {
      "midi": 52,
      "time": 47.143,
      "duration": 0.536,
      "velocity": 0.71,
      "hand": "left"
    },
    {
      "midi": 57,
      "time": 47.143,
      "duration": 0.536,
      "velocity": 0.71,
      "hand": "left"
    },
    {
      "midi": 69,
      "time": 47.143,
      "duration": 1.071,
      "velocity": 0.71,
      "hand": "right"
    },
    {
      "midi": 71,
      "time": 47.143,
      "duration": 0.134,
      "velocity": 0.71,
      "hand": "right"
    },
    {
      "midi": 48,
      "time": 47.679,
      "duration": 0.536,
      "velocity": 0.71,
      "hand": "left"
    },
    {
      "midi": 52,
      "time": 47.679,
      "duration": 0.536,
      "velocity": 0.71,
      "hand": "left"
    },
    {
      "midi": 57,
      "time": 47.679,
      "duration": 0.536,
      "velocity": 0.71,
      "hand": "left"
    },
    {
      "midi": 47,
      "time": 48.214,
      "duration": 1.071,
      "velocity": 0.71,
      "hand": "left"
    },
    {
      "midi": 51,
      "time": 48.214,
      "duration": 1.071,
      "velocity": 0.71,
      "hand": "left"
    },
    {
      "midi": 57,
      "time": 48.214,
      "duration": 1.071,
      "velocity": 0.71,
      "hand": "left"
    },
    {
      "midi": 67,
      "time": 48.214,
      "duration": 0.536,
      "velocity": 0.71,
      "hand": "right"
    },
    {
      "midi": 66,
      "time": 48.75,
      "duration": 0.536,
      "velocity": 0.71,
      "hand": "right"
    },
    {
      "midi": 60,
      "time": 49.286,
      "duration": 0.536,
      "velocity": 0.71,
      "hand": "right"
    },
    {
      "midi": 59,
      "time": 49.821,
      "duration": 0.536,
      "velocity": 0.71,
      "hand": "left"
    },
    {
      "midi": 63,
      "time": 50.357,
      "duration": 0.536,
      "velocity": 0.71,
      "hand": "right"
    },
    {
      "midi": 66,
      "time": 50.893,
      "duration": 0.536,
      "velocity": 0.71,
      "hand": "right"
    },
    {
      "midi": 74,
      "time": 51.429,
      "duration": 0.268,
      "velocity": 0.71,
      "hand": "right"
    },
    {
      "midi": 72,
      "time": 51.696,
      "duration": 0.268,
      "velocity": 0.71,
      "hand": "right"
    },
    {
      "midi": 71,
      "time": 52.232,
      "duration": 0.268,
      "velocity": 0.71,
      "hand": "right"
    },
    {
      "midi": 55,
      "time": 52.5,
      "duration": 0.536,
      "velocity": 0.71,
      "hand": "left"
    },
    {
      "midi": 59,
      "time": 52.5,
      "duration": 0.536,
      "velocity": 0.71,
      "hand": "left"
    },
    {
      "midi": 64,
      "time": 52.5,
      "duration": 0.536,
      "velocity": 0.71,
      "hand": "right"
    },
    {
      "midi": 71,
      "time": 52.5,
      "duration": 3.214,
      "velocity": 0.71,
      "hand": "right"
    },
    {
      "midi": 55,
      "time": 53.036,
      "duration": 0.536,
      "velocity": 0.71,
      "hand": "left"
    },
    {
      "midi": 59,
      "time": 53.036,
      "duration": 0.536,
      "velocity": 0.71,
      "hand": "left"
    },
    {
      "midi": 64,
      "time": 53.036,
      "duration": 0.536,
      "velocity": 0.71,
      "hand": "right"
    },
    {
      "midi": 55,
      "time": 53.571,
      "duration": 0.536,
      "velocity": 0.71,
      "hand": "left"
    },
    {
      "midi": 59,
      "time": 53.571,
      "duration": 0.536,
      "velocity": 0.71,
      "hand": "left"
    },
    {
      "midi": 64,
      "time": 53.571,
      "duration": 0.536,
      "velocity": 0.71,
      "hand": "right"
    },
    {
      "midi": 55,
      "time": 54.107,
      "duration": 0.536,
      "velocity": 0.71,
      "hand": "left"
    },
    {
      "midi": 59,
      "time": 54.107,
      "duration": 0.536,
      "velocity": 0.71,
      "hand": "left"
    },
    {
      "midi": 64,
      "time": 54.107,
      "duration": 0.536,
      "velocity": 0.71,
      "hand": "right"
    },
    {
      "midi": 55,
      "time": 54.643,
      "duration": 0.536,
      "velocity": 0.71,
      "hand": "left"
    },
    {
      "midi": 59,
      "time": 54.643,
      "duration": 0.536,
      "velocity": 0.71,
      "hand": "left"
    },
    {
      "midi": 64,
      "time": 54.643,
      "duration": 0.536,
      "velocity": 0.71,
      "hand": "right"
    },
    {
      "midi": 55,
      "time": 55.179,
      "duration": 0.536,
      "velocity": 0.71,
      "hand": "left"
    },
    {
      "midi": 59,
      "time": 55.179,
      "duration": 0.536,
      "velocity": 0.71,
      "hand": "left"
    },
    {
      "midi": 64,
      "time": 55.179,
      "duration": 0.536,
      "velocity": 0.71,
      "hand": "right"
    },
    {
      "midi": 55,
      "time": 55.714,
      "duration": 0.536,
      "velocity": 0.71,
      "hand": "left"
    },
    {
      "midi": 59,
      "time": 55.714,
      "duration": 0.536,
      "velocity": 0.71,
      "hand": "left"
    },
    {
      "midi": 64,
      "time": 55.714,
      "duration": 0.536,
      "velocity": 0.71,
      "hand": "right"
    },
    {
      "midi": 72,
      "time": 55.714,
      "duration": 1.071,
      "velocity": 0.71,
      "hand": "right"
    },
    {
      "midi": 55,
      "time": 56.25,
      "duration": 0.536,
      "velocity": 0.71,
      "hand": "left"
    },
    {
      "midi": 59,
      "time": 56.25,
      "duration": 0.536,
      "velocity": 0.71,
      "hand": "left"
    },
    {
      "midi": 64,
      "time": 56.25,
      "duration": 0.536,
      "velocity": 0.71,
      "hand": "right"
    },
    {
      "midi": 54,
      "time": 56.786,
      "duration": 0.536,
      "velocity": 0.71,
      "hand": "left"
    },
    {
      "midi": 57,
      "time": 56.786,
      "duration": 0.536,
      "velocity": 0.71,
      "hand": "left"
    },
    {
      "midi": 64,
      "time": 56.786,
      "duration": 0.536,
      "velocity": 0.71,
      "hand": "right"
    },
    {
      "midi": 71,
      "time": 56.786,
      "duration": 3.214,
      "velocity": 0.71,
      "hand": "right"
    },
    {
      "midi": 54,
      "time": 57.321,
      "duration": 0.536,
      "velocity": 0.71,
      "hand": "left"
    },
    {
      "midi": 57,
      "time": 57.321,
      "duration": 0.536,
      "velocity": 0.71,
      "hand": "left"
    },
    {
      "midi": 64,
      "time": 57.321,
      "duration": 0.536,
      "velocity": 0.71,
      "hand": "right"
    },
    {
      "midi": 54,
      "time": 57.857,
      "duration": 0.536,
      "velocity": 0.71,
      "hand": "left"
    },
    {
      "midi": 57,
      "time": 57.857,
      "duration": 0.536,
      "velocity": 0.71,
      "hand": "left"
    },
    {
      "midi": 64,
      "time": 57.857,
      "duration": 0.536,
      "velocity": 0.71,
      "hand": "right"
    },
    {
      "midi": 54,
      "time": 58.393,
      "duration": 0.536,
      "velocity": 0.71,
      "hand": "left"
    },
    {
      "midi": 57,
      "time": 58.393,
      "duration": 0.536,
      "velocity": 0.71,
      "hand": "left"
    },
    {
      "midi": 64,
      "time": 58.393,
      "duration": 0.536,
      "velocity": 0.71,
      "hand": "right"
    },
    {
      "midi": 53,
      "time": 58.929,
      "duration": 0.536,
      "velocity": 0.71,
      "hand": "left"
    },
    {
      "midi": 57,
      "time": 58.929,
      "duration": 0.536,
      "velocity": 0.71,
      "hand": "left"
    },
    {
      "midi": 63,
      "time": 58.929,
      "duration": 0.536,
      "velocity": 0.71,
      "hand": "right"
    },
    {
      "midi": 53,
      "time": 59.464,
      "duration": 0.536,
      "velocity": 0.71,
      "hand": "left"
    },
    {
      "midi": 57,
      "time": 59.464,
      "duration": 0.536,
      "velocity": 0.71,
      "hand": "left"
    },
    {
      "midi": 63,
      "time": 59.464,
      "duration": 0.536,
      "velocity": 0.71,
      "hand": "right"
    },
    {
      "midi": 53,
      "time": 60,
      "duration": 0.536,
      "velocity": 0.71,
      "hand": "left"
    },
    {
      "midi": 57,
      "time": 60,
      "duration": 0.536,
      "velocity": 0.71,
      "hand": "left"
    },
    {
      "midi": 63,
      "time": 60,
      "duration": 0.536,
      "velocity": 0.71,
      "hand": "right"
    },
    {
      "midi": 72,
      "time": 60,
      "duration": 1.071,
      "velocity": 0.71,
      "hand": "right"
    },
    {
      "midi": 53,
      "time": 60.536,
      "duration": 0.536,
      "velocity": 0.71,
      "hand": "left"
    },
    {
      "midi": 57,
      "time": 60.536,
      "duration": 0.536,
      "velocity": 0.71,
      "hand": "left"
    },
    {
      "midi": 63,
      "time": 60.536,
      "duration": 0.536,
      "velocity": 0.71,
      "hand": "right"
    },
    {
      "midi": 53,
      "time": 61.071,
      "duration": 0.536,
      "velocity": 0.71,
      "hand": "left"
    },
    {
      "midi": 56,
      "time": 61.071,
      "duration": 0.536,
      "velocity": 0.71,
      "hand": "left"
    },
    {
      "midi": 63,
      "time": 61.071,
      "duration": 0.536,
      "velocity": 0.71,
      "hand": "right"
    },
    {
      "midi": 71,
      "time": 61.071,
      "duration": 3.214,
      "velocity": 0.71,
      "hand": "right"
    },
    {
      "midi": 53,
      "time": 61.607,
      "duration": 0.536,
      "velocity": 0.71,
      "hand": "left"
    },
    {
      "midi": 56,
      "time": 61.607,
      "duration": 0.536,
      "velocity": 0.71,
      "hand": "left"
    },
    {
      "midi": 63,
      "time": 61.607,
      "duration": 0.536,
      "velocity": 0.71,
      "hand": "right"
    },
    {
      "midi": 53,
      "time": 62.143,
      "duration": 0.536,
      "velocity": 0.71,
      "hand": "left"
    },
    {
      "midi": 56,
      "time": 62.143,
      "duration": 0.536,
      "velocity": 0.71,
      "hand": "left"
    },
    {
      "midi": 62,
      "time": 62.143,
      "duration": 0.536,
      "velocity": 0.71,
      "hand": "right"
    },
    {
      "midi": 53,
      "time": 62.679,
      "duration": 0.536,
      "velocity": 0.71,
      "hand": "left"
    },
    {
      "midi": 56,
      "time": 62.679,
      "duration": 0.536,
      "velocity": 0.71,
      "hand": "left"
    },
    {
      "midi": 62,
      "time": 62.679,
      "duration": 0.536,
      "velocity": 0.71,
      "hand": "right"
    },
    {
      "midi": 52,
      "time": 63.214,
      "duration": 0.536,
      "velocity": 0.71,
      "hand": "left"
    },
    {
      "midi": 56,
      "time": 63.214,
      "duration": 0.536,
      "velocity": 0.71,
      "hand": "left"
    },
    {
      "midi": 62,
      "time": 63.214,
      "duration": 0.536,
      "velocity": 0.71,
      "hand": "right"
    },
    {
      "midi": 52,
      "time": 63.75,
      "duration": 0.536,
      "velocity": 0.71,
      "hand": "left"
    },
    {
      "midi": 56,
      "time": 63.75,
      "duration": 0.536,
      "velocity": 0.71,
      "hand": "left"
    },
    {
      "midi": 62,
      "time": 63.75,
      "duration": 0.536,
      "velocity": 0.71,
      "hand": "right"
    },
    {
      "midi": 52,
      "time": 64.286,
      "duration": 0.536,
      "velocity": 0.71,
      "hand": "left"
    },
    {
      "midi": 56,
      "time": 64.286,
      "duration": 0.536,
      "velocity": 0.71,
      "hand": "left"
    },
    {
      "midi": 62,
      "time": 64.286,
      "duration": 0.536,
      "velocity": 0.71,
      "hand": "right"
    },
    {
      "midi": 72,
      "time": 64.286,
      "duration": 1.071,
      "velocity": 0.71,
      "hand": "right"
    },
    {
      "midi": 52,
      "time": 64.821,
      "duration": 0.536,
      "velocity": 0.71,
      "hand": "left"
    },
    {
      "midi": 56,
      "time": 64.821,
      "duration": 0.536,
      "velocity": 0.71,
      "hand": "left"
    },
    {
      "midi": 62,
      "time": 64.821,
      "duration": 0.536,
      "velocity": 0.71,
      "hand": "right"
    },
    {
      "midi": 52,
      "time": 65.357,
      "duration": 0.536,
      "velocity": 0.71,
      "hand": "left"
    },
    {
      "midi": 55,
      "time": 65.357,
      "duration": 0.536,
      "velocity": 0.71,
      "hand": "left"
    },
    {
      "midi": 62,
      "time": 65.357,
      "duration": 0.536,
      "velocity": 0.71,
      "hand": "right"
    },
    {
      "midi": 71,
      "time": 65.357,
      "duration": 0.804,
      "velocity": 0.71,
      "hand": "right"
    },
    {
      "midi": 52,
      "time": 65.893,
      "duration": 0.536,
      "velocity": 0.71,
      "hand": "left"
    },
    {
      "midi": 55,
      "time": 65.893,
      "duration": 0.536,
      "velocity": 0.71,
      "hand": "left"
    },
    {
      "midi": 62,
      "time": 65.893,
      "duration": 0.536,
      "velocity": 0.71,
      "hand": "right"
    },
    {
      "midi": 70,
      "time": 66.161,
      "duration": 0.268,
      "velocity": 0.71,
      "hand": "right"
    },
    {
      "midi": 52,
      "time": 66.429,
      "duration": 0.536,
      "velocity": 0.71,
      "hand": "left"
    },
    {
      "midi": 55,
      "time": 66.429,
      "duration": 0.536,
      "velocity": 0.71,
      "hand": "left"
    },
    {
      "midi": 61,
      "time": 66.429,
      "duration": 0.536,
      "velocity": 0.71,
      "hand": "right"
    },
    {
      "midi": 70,
      "time": 66.429,
      "duration": 1.071,
      "velocity": 0.71,
      "hand": "right"
    },
    {
      "midi": 52,
      "time": 66.964,
      "duration": 0.536,
      "velocity": 0.71,
      "hand": "left"
    },
    {
      "midi": 55,
      "time": 66.964,
      "duration": 0.536,
      "velocity": 0.71,
      "hand": "left"
    },
    {
      "midi": 61,
      "time": 66.964,
      "duration": 0.536,
      "velocity": 0.71,
      "hand": "right"
    },
    {
      "midi": 49,
      "time": 67.5,
      "duration": 0.536,
      "velocity": 0.71,
      "hand": "left"
    },
    {
      "midi": 52,
      "time": 67.5,
      "duration": 0.536,
      "velocity": 0.71,
      "hand": "left"
    },
    {
      "midi": 58,
      "time": 67.5,
      "duration": 0.536,
      "velocity": 0.71,
      "hand": "left"
    },
    {
      "midi": 81,
      "time": 67.5,
      "duration": 1.071,
      "velocity": 0.71,
      "hand": "right"
    },
    {
      "midi": 49,
      "time": 68.036,
      "duration": 0.536,
      "velocity": 0.71,
      "hand": "left"
    },
    {
      "midi": 52,
      "time": 68.036,
      "duration": 0.536,
      "velocity": 0.71,
      "hand": "left"
    },
    {
      "midi": 58,
      "time": 68.036,
      "duration": 0.536,
      "velocity": 0.71,
      "hand": "left"
    },
    {
      "midi": 48,
      "time": 68.571,
      "duration": 0.536,
      "velocity": 0.71,
      "hand": "left"
    },
    {
      "midi": 52,
      "time": 68.571,
      "duration": 0.536,
      "velocity": 0.71,
      "hand": "left"
    },
    {
      "midi": 57,
      "time": 68.571,
      "duration": 0.536,
      "velocity": 0.71,
      "hand": "left"
    },
    {
      "midi": 78,
      "time": 68.571,
      "duration": 0.804,
      "velocity": 0.71,
      "hand": "right"
    },
    {
      "midi": 48,
      "time": 69.107,
      "duration": 0.536,
      "velocity": 0.71,
      "hand": "left"
    },
    {
      "midi": 52,
      "time": 69.107,
      "duration": 0.536,
      "velocity": 0.71,
      "hand": "left"
    },
    {
      "midi": 57,
      "time": 69.107,
      "duration": 0.536,
      "velocity": 0.71,
      "hand": "left"
    },
    {
      "midi": 76,
      "time": 69.375,
      "duration": 0.268,
      "velocity": 0.71,
      "hand": "right"
    },
    {
      "midi": 35,
      "time": 69.643,
      "duration": 0.536,
      "velocity": 0.71,
      "hand": "left"
    },
    {
      "midi": 47,
      "time": 69.643,
      "duration": 0.536,
      "velocity": 0.71,
      "hand": "left"
    },
    {
      "midi": 76,
      "time": 69.643,
      "duration": 0.536,
      "velocity": 0.71,
      "hand": "right"
    },
    {
      "midi": 57,
      "time": 70.179,
      "duration": 0.536,
      "velocity": 0.71,
      "hand": "left"
    },
    {
      "midi": 60,
      "time": 70.179,
      "duration": 0.536,
      "velocity": 0.71,
      "hand": "right"
    },
    {
      "midi": 66,
      "time": 70.179,
      "duration": 0.536,
      "velocity": 0.71,
      "hand": "right"
    },
    {
      "midi": 69,
      "time": 70.179,
      "duration": 0.536,
      "velocity": 0.71,
      "hand": "right"
    },
    {
      "midi": 75,
      "time": 70.179,
      "duration": 0.536,
      "velocity": 0.71,
      "hand": "right"
    },
    {
      "midi": 57,
      "time": 70.714,
      "duration": 0.536,
      "velocity": 0.71,
      "hand": "left"
    },
    {
      "midi": 60,
      "time": 70.714,
      "duration": 0.536,
      "velocity": 0.71,
      "hand": "right"
    },
    {
      "midi": 66,
      "time": 70.714,
      "duration": 0.536,
      "velocity": 0.71,
      "hand": "right"
    },
    {
      "midi": 69,
      "time": 70.714,
      "duration": 0.536,
      "velocity": 0.71,
      "hand": "right"
    },
    {
      "midi": 84,
      "time": 70.714,
      "duration": 0.536,
      "velocity": 0.71,
      "hand": "right"
    },
    {
      "midi": 57,
      "time": 71.25,
      "duration": 0.536,
      "velocity": 0.71,
      "hand": "left"
    },
    {
      "midi": 60,
      "time": 71.25,
      "duration": 0.536,
      "velocity": 0.71,
      "hand": "right"
    },
    {
      "midi": 66,
      "time": 71.25,
      "duration": 0.536,
      "velocity": 0.71,
      "hand": "right"
    },
    {
      "midi": 69,
      "time": 71.25,
      "duration": 0.536,
      "velocity": 0.71,
      "hand": "right"
    },
    {
      "midi": 75,
      "time": 71.25,
      "duration": 0.536,
      "velocity": 0.71,
      "hand": "right"
    },
    {
      "midi": 55,
      "time": 71.786,
      "duration": 0.536,
      "velocity": 0.71,
      "hand": "left"
    },
    {
      "midi": 59,
      "time": 71.786,
      "duration": 0.536,
      "velocity": 0.71,
      "hand": "left"
    },
    {
      "midi": 63,
      "time": 71.786,
      "duration": 0.536,
      "velocity": 0.71,
      "hand": "right"
    },
    {
      "midi": 66,
      "time": 71.786,
      "duration": 0.536,
      "velocity": 0.71,
      "hand": "right"
    },
    {
      "midi": 75,
      "time": 71.786,
      "duration": 0.536,
      "velocity": 0.71,
      "hand": "right"
    },
    {
      "midi": 55,
      "time": 72.321,
      "duration": 0.536,
      "velocity": 0.71,
      "hand": "left"
    },
    {
      "midi": 59,
      "time": 72.321,
      "duration": 0.536,
      "velocity": 0.71,
      "hand": "left"
    },
    {
      "midi": 64,
      "time": 72.321,
      "duration": 0.536,
      "velocity": 0.71,
      "hand": "right"
    },
    {
      "midi": 76,
      "time": 72.321,
      "duration": 0.536,
      "velocity": 0.71,
      "hand": "right"
    },
    {
      "midi": 55,
      "time": 72.857,
      "duration": 0.536,
      "velocity": 0.71,
      "hand": "left"
    },
    {
      "midi": 59,
      "time": 72.857,
      "duration": 0.536,
      "velocity": 0.71,
      "hand": "left"
    },
    {
      "midi": 64,
      "time": 72.857,
      "duration": 0.536,
      "velocity": 0.71,
      "hand": "right"
    },
    {
      "midi": 79,
      "time": 72.857,
      "duration": 0.536,
      "velocity": 0.71,
      "hand": "right"
    },
    {
      "midi": 55,
      "time": 73.393,
      "duration": 0.536,
      "velocity": 0.71,
      "hand": "left"
    },
    {
      "midi": 59,
      "time": 73.393,
      "duration": 0.536,
      "velocity": 0.71,
      "hand": "left"
    },
    {
      "midi": 64,
      "time": 73.393,
      "duration": 0.536,
      "velocity": 0.71,
      "hand": "right"
    },
    {
      "midi": 71,
      "time": 73.393,
      "duration": 0.536,
      "velocity": 0.71,
      "hand": "right"
    },
    {
      "midi": 57,
      "time": 73.929,
      "duration": 0.536,
      "velocity": 0.71,
      "hand": "left"
    },
    {
      "midi": 60,
      "time": 73.929,
      "duration": 0.536,
      "velocity": 0.71,
      "hand": "right"
    },
    {
      "midi": 64,
      "time": 73.929,
      "duration": 0.536,
      "velocity": 0.71,
      "hand": "right"
    },
    {
      "midi": 74,
      "time": 73.929,
      "duration": 0.536,
      "velocity": 0.71,
      "hand": "right"
    },
    {
      "midi": 57,
      "time": 74.464,
      "duration": 0.536,
      "velocity": 0.71,
      "hand": "left"
    },
    {
      "midi": 60,
      "time": 74.464,
      "duration": 0.536,
      "velocity": 0.71,
      "hand": "right"
    },
    {
      "midi": 64,
      "time": 74.464,
      "duration": 0.536,
      "velocity": 0.71,
      "hand": "right"
    },
    {
      "midi": 72,
      "time": 74.464,
      "duration": 0.536,
      "velocity": 0.71,
      "hand": "right"
    },
    {
      "midi": 45,
      "time": 75,
      "duration": 0.536,
      "velocity": 0.71,
      "hand": "left"
    },
    {
      "midi": 76,
      "time": 75,
      "duration": 0.268,
      "velocity": 0.71,
      "hand": "right"
    },
    {
      "midi": 64,
      "time": 75.268,
      "duration": 0.268,
      "velocity": 0.71,
      "hand": "right"
    },
    {
      "midi": 52,
      "time": 75.536,
      "duration": 0.536,
      "velocity": 0.71,
      "hand": "left"
    },
    {
      "midi": 54,
      "time": 75.536,
      "duration": 0.536,
      "velocity": 0.71,
      "hand": "left"
    },
    {
      "midi": 60,
      "time": 75.536,
      "duration": 0.536,
      "velocity": 0.71,
      "hand": "right"
    },
    {
      "midi": 69,
      "time": 75.804,
      "duration": 0.268,
      "velocity": 0.71,
      "hand": "right"
    },
    {
      "midi": 47,
      "time": 76.071,
      "duration": 0.536,
      "velocity": 0.71,
      "hand": "left"
    },
    {
      "midi": 52,
      "time": 76.071,
      "duration": 0.536,
      "velocity": 0.71,
      "hand": "left"
    },
    {
      "midi": 59,
      "time": 76.071,
      "duration": 0.536,
      "velocity": 0.71,
      "hand": "left"
    },
    {
      "midi": 66,
      "time": 76.071,
      "duration": 1.607,
      "velocity": 0.71,
      "hand": "right"
    },
    {
      "midi": 47,
      "time": 76.607,
      "duration": 0.536,
      "velocity": 0.71,
      "hand": "left"
    },
    {
      "midi": 52,
      "time": 76.607,
      "duration": 0.536,
      "velocity": 0.71,
      "hand": "left"
    },
    {
      "midi": 59,
      "time": 76.607,
      "duration": 0.536,
      "velocity": 0.71,
      "hand": "left"
    },
    {
      "midi": 48,
      "time": 77.143,
      "duration": 0.536,
      "velocity": 0.71,
      "hand": "left"
    },
    {
      "midi": 52,
      "time": 77.143,
      "duration": 0.536,
      "velocity": 0.71,
      "hand": "left"
    },
    {
      "midi": 57,
      "time": 77.143,
      "duration": 0.536,
      "velocity": 0.71,
      "hand": "left"
    },
    {
      "midi": 48,
      "time": 77.679,
      "duration": 0.536,
      "velocity": 0.71,
      "hand": "left"
    },
    {
      "midi": 52,
      "time": 77.679,
      "duration": 0.536,
      "velocity": 0.71,
      "hand": "left"
    },
    {
      "midi": 57,
      "time": 77.679,
      "duration": 0.536,
      "velocity": 0.71,
      "hand": "left"
    },
    {
      "midi": 69,
      "time": 77.679,
      "duration": 0.536,
      "velocity": 0.71,
      "hand": "right"
    },
    {
      "midi": 47,
      "time": 78.214,
      "duration": 0.536,
      "velocity": 0.71,
      "hand": "left"
    },
    {
      "midi": 52,
      "time": 78.214,
      "duration": 0.536,
      "velocity": 0.71,
      "hand": "left"
    },
    {
      "midi": 59,
      "time": 78.214,
      "duration": 0.536,
      "velocity": 0.71,
      "hand": "left"
    },
    {
      "midi": 66,
      "time": 78.214,
      "duration": 3.214,
      "velocity": 0.71,
      "hand": "right"
    },
    {
      "midi": 47,
      "time": 78.75,
      "duration": 0.536,
      "velocity": 0.71,
      "hand": "left"
    },
    {
      "midi": 52,
      "time": 78.75,
      "duration": 0.536,
      "velocity": 0.71,
      "hand": "left"
    },
    {
      "midi": 59,
      "time": 78.75,
      "duration": 0.536,
      "velocity": 0.71,
      "hand": "left"
    },
    {
      "midi": 47,
      "time": 79.286,
      "duration": 0.536,
      "velocity": 0.71,
      "hand": "left"
    },
    {
      "midi": 52,
      "time": 79.286,
      "duration": 0.536,
      "velocity": 0.71,
      "hand": "left"
    },
    {
      "midi": 59,
      "time": 79.286,
      "duration": 0.536,
      "velocity": 0.71,
      "hand": "left"
    },
    {
      "midi": 47,
      "time": 79.821,
      "duration": 0.536,
      "velocity": 0.71,
      "hand": "left"
    },
    {
      "midi": 52,
      "time": 79.821,
      "duration": 0.536,
      "velocity": 0.71,
      "hand": "left"
    },
    {
      "midi": 59,
      "time": 79.821,
      "duration": 0.536,
      "velocity": 0.71,
      "hand": "left"
    },
    {
      "midi": 48,
      "time": 80.357,
      "duration": 0.536,
      "velocity": 0.71,
      "hand": "left"
    },
    {
      "midi": 52,
      "time": 80.357,
      "duration": 0.536,
      "velocity": 0.71,
      "hand": "left"
    },
    {
      "midi": 57,
      "time": 80.357,
      "duration": 0.536,
      "velocity": 0.71,
      "hand": "left"
    },
    {
      "midi": 48,
      "time": 80.893,
      "duration": 0.536,
      "velocity": 0.71,
      "hand": "left"
    },
    {
      "midi": 52,
      "time": 80.893,
      "duration": 0.536,
      "velocity": 0.71,
      "hand": "left"
    },
    {
      "midi": 57,
      "time": 80.893,
      "duration": 0.536,
      "velocity": 0.71,
      "hand": "left"
    },
    {
      "midi": 48,
      "time": 81.429,
      "duration": 0.536,
      "velocity": 0.71,
      "hand": "left"
    },
    {
      "midi": 52,
      "time": 81.429,
      "duration": 0.536,
      "velocity": 0.71,
      "hand": "left"
    },
    {
      "midi": 57,
      "time": 81.429,
      "duration": 0.536,
      "velocity": 0.71,
      "hand": "left"
    },
    {
      "midi": 69,
      "time": 81.429,
      "duration": 1.071,
      "velocity": 0.71,
      "hand": "right"
    },
    {
      "midi": 71,
      "time": 81.429,
      "duration": 0.134,
      "velocity": 0.71,
      "hand": "right"
    },
    {
      "midi": 48,
      "time": 81.964,
      "duration": 0.536,
      "velocity": 0.71,
      "hand": "left"
    },
    {
      "midi": 52,
      "time": 81.964,
      "duration": 0.536,
      "velocity": 0.71,
      "hand": "left"
    },
    {
      "midi": 57,
      "time": 81.964,
      "duration": 0.536,
      "velocity": 0.71,
      "hand": "left"
    },
    {
      "midi": 47,
      "time": 82.5,
      "duration": 0.536,
      "velocity": 0.71,
      "hand": "left"
    },
    {
      "midi": 52,
      "time": 82.5,
      "duration": 0.536,
      "velocity": 0.71,
      "hand": "left"
    },
    {
      "midi": 59,
      "time": 82.5,
      "duration": 0.536,
      "velocity": 0.71,
      "hand": "left"
    },
    {
      "midi": 66,
      "time": 82.5,
      "duration": 4.018,
      "velocity": 0.71,
      "hand": "right"
    },
    {
      "midi": 47,
      "time": 83.036,
      "duration": 0.536,
      "velocity": 0.71,
      "hand": "left"
    },
    {
      "midi": 52,
      "time": 83.036,
      "duration": 0.536,
      "velocity": 0.71,
      "hand": "left"
    },
    {
      "midi": 59,
      "time": 83.036,
      "duration": 0.536,
      "velocity": 0.71,
      "hand": "left"
    },
    {
      "midi": 47,
      "time": 83.571,
      "duration": 0.536,
      "velocity": 0.71,
      "hand": "left"
    },
    {
      "midi": 52,
      "time": 83.571,
      "duration": 0.536,
      "velocity": 0.71,
      "hand": "left"
    },
    {
      "midi": 59,
      "time": 83.571,
      "duration": 0.536,
      "velocity": 0.71,
      "hand": "left"
    },
    {
      "midi": 47,
      "time": 84.107,
      "duration": 0.536,
      "velocity": 0.71,
      "hand": "left"
    },
    {
      "midi": 52,
      "time": 84.107,
      "duration": 0.536,
      "velocity": 0.71,
      "hand": "left"
    },
    {
      "midi": 59,
      "time": 84.107,
      "duration": 0.536,
      "velocity": 0.71,
      "hand": "left"
    },
    {
      "midi": 47,
      "time": 84.643,
      "duration": 0.536,
      "velocity": 0.71,
      "hand": "left"
    },
    {
      "midi": 51,
      "time": 84.643,
      "duration": 0.536,
      "velocity": 0.71,
      "hand": "left"
    },
    {
      "midi": 59,
      "time": 84.643,
      "duration": 0.536,
      "velocity": 0.71,
      "hand": "left"
    },
    {
      "midi": 47,
      "time": 85.179,
      "duration": 0.536,
      "velocity": 0.71,
      "hand": "left"
    },
    {
      "midi": 51,
      "time": 85.179,
      "duration": 0.536,
      "velocity": 0.71,
      "hand": "left"
    },
    {
      "midi": 59,
      "time": 85.179,
      "duration": 0.536,
      "velocity": 0.71,
      "hand": "left"
    },
    {
      "midi": 47,
      "time": 85.714,
      "duration": 0.536,
      "velocity": 0.71,
      "hand": "left"
    },
    {
      "midi": 51,
      "time": 85.714,
      "duration": 0.536,
      "velocity": 0.71,
      "hand": "left"
    },
    {
      "midi": 57,
      "time": 85.714,
      "duration": 0.536,
      "velocity": 0.71,
      "hand": "left"
    },
    {
      "midi": 47,
      "time": 86.25,
      "duration": 0.536,
      "velocity": 0.71,
      "hand": "left"
    },
    {
      "midi": 51,
      "time": 86.25,
      "duration": 0.536,
      "velocity": 0.71,
      "hand": "left"
    },
    {
      "midi": 57,
      "time": 86.25,
      "duration": 0.536,
      "velocity": 0.71,
      "hand": "left"
    },
    {
      "midi": 64,
      "time": 86.518,
      "duration": 0.268,
      "velocity": 0.71,
      "hand": "right"
    },
    {
      "midi": 48,
      "time": 86.786,
      "duration": 0.536,
      "velocity": 0.71,
      "hand": "left"
    },
    {
      "midi": 55,
      "time": 86.786,
      "duration": 0.536,
      "velocity": 0.71,
      "hand": "left"
    },
    {
      "midi": 64,
      "time": 86.786,
      "duration": 3.214,
      "velocity": 0.71,
      "hand": "right"
    },
    {
      "midi": 48,
      "time": 87.321,
      "duration": 0.536,
      "velocity": 0.71,
      "hand": "left"
    },
    {
      "midi": 55,
      "time": 87.321,
      "duration": 0.536,
      "velocity": 0.71,
      "hand": "left"
    },
    {
      "midi": 48,
      "time": 87.857,
      "duration": 0.536,
      "velocity": 0.71,
      "hand": "left"
    },
    {
      "midi": 55,
      "time": 87.857,
      "duration": 0.536,
      "velocity": 0.71,
      "hand": "left"
    },
    {
      "midi": 48,
      "time": 88.393,
      "duration": 0.536,
      "velocity": 0.71,
      "hand": "left"
    },
    {
      "midi": 55,
      "time": 88.393,
      "duration": 0.536,
      "velocity": 0.71,
      "hand": "left"
    },
    {
      "midi": 48,
      "time": 88.929,
      "duration": 0.536,
      "velocity": 0.71,
      "hand": "left"
    },
    {
      "midi": 58,
      "time": 88.929,
      "duration": 0.536,
      "velocity": 0.71,
      "hand": "left"
    },
    {
      "midi": 48,
      "time": 89.464,
      "duration": 0.536,
      "velocity": 0.71,
      "hand": "left"
    },
    {
      "midi": 58,
      "time": 89.464,
      "duration": 0.536,
      "velocity": 0.71,
      "hand": "left"
    },
    {
      "midi": 48,
      "time": 90,
      "duration": 0.536,
      "velocity": 0.71,
      "hand": "left"
    },
    {
      "midi": 52,
      "time": 90,
      "duration": 0.536,
      "velocity": 0.71,
      "hand": "left"
    },
    {
      "midi": 57,
      "time": 90,
      "duration": 0.536,
      "velocity": 0.71,
      "hand": "left"
    },
    {
      "midi": 66,
      "time": 90,
      "duration": 1.071,
      "velocity": 0.71,
      "hand": "right"
    },
    {
      "midi": 48,
      "time": 90.536,
      "duration": 0.536,
      "velocity": 0.71,
      "hand": "left"
    },
    {
      "midi": 52,
      "time": 90.536,
      "duration": 0.536,
      "velocity": 0.71,
      "hand": "left"
    },
    {
      "midi": 57,
      "time": 90.536,
      "duration": 0.536,
      "velocity": 0.71,
      "hand": "left"
    },
    {
      "midi": 47,
      "time": 91.071,
      "duration": 0.536,
      "velocity": 0.71,
      "hand": "left"
    },
    {
      "midi": 52,
      "time": 91.071,
      "duration": 0.536,
      "velocity": 0.71,
      "hand": "left"
    },
    {
      "midi": 57,
      "time": 91.071,
      "duration": 0.536,
      "velocity": 0.71,
      "hand": "left"
    },
    {
      "midi": 64,
      "time": 91.071,
      "duration": 3.214,
      "velocity": 0.71,
      "hand": "right"
    },
    {
      "midi": 47,
      "time": 91.607,
      "duration": 0.536,
      "velocity": 0.71,
      "hand": "left"
    },
    {
      "midi": 52,
      "time": 91.607,
      "duration": 0.536,
      "velocity": 0.71,
      "hand": "left"
    },
    {
      "midi": 57,
      "time": 91.607,
      "duration": 0.536,
      "velocity": 0.71,
      "hand": "left"
    },
    {
      "midi": 47,
      "time": 92.143,
      "duration": 0.536,
      "velocity": 0.71,
      "hand": "left"
    },
    {
      "midi": 52,
      "time": 92.143,
      "duration": 0.536,
      "velocity": 0.71,
      "hand": "left"
    },
    {
      "midi": 56,
      "time": 92.143,
      "duration": 0.536,
      "velocity": 0.71,
      "hand": "left"
    },
    {
      "midi": 47,
      "time": 92.679,
      "duration": 0.536,
      "velocity": 0.71,
      "hand": "left"
    },
    {
      "midi": 52,
      "time": 92.679,
      "duration": 0.536,
      "velocity": 0.71,
      "hand": "left"
    },
    {
      "midi": 56,
      "time": 92.679,
      "duration": 0.536,
      "velocity": 0.71,
      "hand": "left"
    },
    {
      "midi": 47,
      "time": 93.214,
      "duration": 0.536,
      "velocity": 0.71,
      "hand": "left"
    },
    {
      "midi": 52,
      "time": 93.214,
      "duration": 0.536,
      "velocity": 0.71,
      "hand": "left"
    },
    {
      "midi": 55,
      "time": 93.214,
      "duration": 0.536,
      "velocity": 0.71,
      "hand": "left"
    },
    {
      "midi": 47,
      "time": 93.75,
      "duration": 0.536,
      "velocity": 0.71,
      "hand": "left"
    },
    {
      "midi": 52,
      "time": 93.75,
      "duration": 0.536,
      "velocity": 0.71,
      "hand": "left"
    },
    {
      "midi": 55,
      "time": 93.75,
      "duration": 0.536,
      "velocity": 0.71,
      "hand": "left"
    },
    {
      "midi": 47,
      "time": 94.286,
      "duration": 0.536,
      "velocity": 0.71,
      "hand": "left"
    },
    {
      "midi": 52,
      "time": 94.286,
      "duration": 0.536,
      "velocity": 0.71,
      "hand": "left"
    },
    {
      "midi": 55,
      "time": 94.286,
      "duration": 0.536,
      "velocity": 0.71,
      "hand": "left"
    },
    {
      "midi": 66,
      "time": 94.286,
      "duration": 1.071,
      "velocity": 0.71,
      "hand": "right"
    },
    {
      "midi": 47,
      "time": 94.821,
      "duration": 0.536,
      "velocity": 0.71,
      "hand": "left"
    },
    {
      "midi": 52,
      "time": 94.821,
      "duration": 0.536,
      "velocity": 0.71,
      "hand": "left"
    },
    {
      "midi": 55,
      "time": 94.821,
      "duration": 0.536,
      "velocity": 0.71,
      "hand": "left"
    },
    {
      "midi": 46,
      "time": 95.357,
      "duration": 2.143,
      "velocity": 0.71,
      "hand": "left"
    },
    {
      "midi": 48,
      "time": 95.357,
      "duration": 2.143,
      "velocity": 0.71,
      "hand": "left"
    },
    {
      "midi": 55,
      "time": 95.357,
      "duration": 2.143,
      "velocity": 0.71,
      "hand": "left"
    },
    {
      "midi": 64,
      "time": 95.357,
      "duration": 2.143,
      "velocity": 0.71,
      "hand": "right"
    },
    {
      "midi": 35,
      "time": 99.643,
      "duration": 2.143,
      "velocity": 0.71,
      "hand": "left"
    },
    {
      "midi": 47,
      "time": 99.643,
      "duration": 2.143,
      "velocity": 0.71,
      "hand": "left"
    },
    {
      "midi": 52,
      "time": 99.643,
      "duration": 2.143,
      "velocity": 0.71,
      "hand": "left"
    },
    {
      "midi": 54,
      "time": 99.643,
      "duration": 2.143,
      "velocity": 0.71,
      "hand": "left"
    },
    {
      "midi": 59,
      "time": 99.643,
      "duration": 2.143,
      "velocity": 0.71,
      "hand": "left"
    },
    {
      "midi": 64,
      "time": 99.643,
      "duration": 2.143,
      "velocity": 0.71,
      "hand": "right"
    },
    {
      "midi": 35,
      "time": 101.786,
      "duration": 2.143,
      "velocity": 0.71,
      "hand": "left"
    },
    {
      "midi": 42,
      "time": 101.786,
      "duration": 2.143,
      "velocity": 0.71,
      "hand": "left"
    },
    {
      "midi": 47,
      "time": 101.786,
      "duration": 2.143,
      "velocity": 0.71,
      "hand": "left"
    },
    {
      "midi": 51,
      "time": 101.786,
      "duration": 2.143,
      "velocity": 0.71,
      "hand": "left"
    },
    {
      "midi": 54,
      "time": 101.786,
      "duration": 2.143,
      "velocity": 0.71,
      "hand": "left"
    },
    {
      "midi": 59,
      "time": 101.786,
      "duration": 2.143,
      "velocity": 0.71,
      "hand": "left"
    },
    {
      "midi": 63,
      "time": 101.786,
      "duration": 2.143,
      "velocity": 0.71,
      "hand": "right"
    },
    {
      "midi": 28,
      "time": 103.929,
      "duration": 4.286,
      "velocity": 0.71,
      "hand": "left"
    },
    {
      "midi": 40,
      "time": 103.929,
      "duration": 4.286,
      "velocity": 0.71,
      "hand": "left"
    },
    {
      "midi": 52,
      "time": 103.929,
      "duration": 4.286,
      "velocity": 0.71,
      "hand": "left"
    },
    {
      "midi": 55,
      "time": 103.929,
      "duration": 4.286,
      "velocity": 0.71,
      "hand": "left"
    },
    {
      "midi": 59,
      "time": 103.929,
      "duration": 4.286,
      "velocity": 0.71,
      "hand": "left"
    },
    {
      "midi": 64,
      "time": 103.929,
      "duration": 4.286,
      "velocity": 0.71,
      "hand": "right"
    }
  ]
}
