{
  "id": "preludio-numero7chopin",
  "title": "Prelúdio nº 7",
  "artist": "Frédéric Chopin",
  "difficulty": "Difícil",
  "bpm": 120,
  "duration": 25,
  "category": "Clássicos",
  "isPremium": true,
  "coverUrl": "/images/covers/placeholder.png",
  "notes": [
    {
      "midi": 64,
      "time": 0,
      "duration": 0.5,
      "velocity": 0.71,
      "hand": "right"
    },
    {
      "midi": 40,
      "time": 0.5,
      "duration": 0.5,
      "velocity": 0.54,
      "hand": "left"
    },
    {
      "midi": 73,
      "time": 0.5,
      "duration": 0.375,
      "velocity": 0.71,
      "hand": "right"
    },
    {
      "midi": 74,
      "time": 0.875,
      "duration": 0.125,
      "velocity": 0.71,
      "hand": "right"
    },
    {
      "midi": 52,
      "time": 1,
      "duration": 0.485,
      "velocity": 0.54,
      "hand": "left"
    },
    {
      "midi": 62,
      "time": 1,
      "duration": 0.485,
      "velocity": 0.71,
      "hand": "right"
    },
    {
      "midi": 64,
      "time": 1,
      "duration": 0.485,
      "velocity": 0.54,
      "hand": "right"
    },
    {
      "midi": 68,
      "time": 1,
      "duration": 0.485,
      "velocity": 0.71,
      "hand": "right"
    },
    {
      "midi": 71,
      "time": 1,
      "duration": 0.485,
      "velocity": 0.71,
      "hand": "right"
    },
    {
      "midi": 52,
      "time": 1.5,
      "duration": 0.485,
      "velocity": 0.54,
      "hand": "left"
    },
    {
      "midi": 62,
      "time": 1.5,
      "duration": 0.485,
      "velocity": 0.71,
      "hand": "right"
    },
    {
      "midi": 64,
      "time": 1.5,
      "duration": 0.485,
      "velocity": 0.54,
      "hand": "right"
    },
    {
      "midi": 68,
      "time": 1.5,
      "duration": 0.485,
      "velocity": 0.71,
      "hand": "right"
    },
    {
      "midi": 71,
      "time": 1.5,
      "duration": 0.485,
      "velocity": 0.71,
      "hand": "right"
    },
    {
      "midi": 52,
      "time": 2,
      "duration": 1,
      "velocity": 0.54,
      "hand": "left"
    },
    {
      "midi": 62,
      "time": 2,
      "duration": 1,
      "velocity": 0.71,
      "hand": "right"
    },
    {
      "midi": 64,
      "time": 2,
      "duration": 1,
      "velocity": 0.54,
      "hand": "right"
    },
    {
      "midi": 68,
      "time": 2,
      "duration": 1,
      "velocity": 0.71,
      "hand": "right"
    },
    {
      "midi": 71,
      "time": 2,
      "duration": 1,
      "velocity": 0.71,
      "hand": "right"
    },
    {
      "midi": 74,
      "time": 3,
      "duration": 0.5,
      "velocity": 0.71,
      "hand": "right"
    },
    {
      "midi": 78,
      "time": 3,
      "duration": 0.5,
      "velocity": 0.71,
      "hand": "right"
    },
    {
      "midi": 45,
      "time": 3.5,
      "duration": 0.5,
      "velocity": 0.54,
      "hand": "left"
    },
    {
      "midi": 72,
      "time": 3.5,
      "duration": 0.375,
      "velocity": 0.71,
      "hand": "right"
    },
    {
      "midi": 75,
      "time": 3.5,
      "duration": 0.375,
      "velocity": 0.71,
      "hand": "right"
    },
    {
      "midi": 73,
      "time": 3.875,
      "duration": 0.11,
      "velocity": 0.71,
      "hand": "right"
    },
    {
      "midi": 76,
      "time": 3.875,
      "duration": 0.125,
      "velocity": 0.71,
      "hand": "right"
    },
    {
      "midi": 57,
      "time": 4,
      "duration": 0.485,
      "velocity": 0.54,
      "hand": "left"
    },
    {
      "midi": 64,
      "time": 4,
      "duration": 0.485,
      "velocity": 0.54,
      "hand": "right"
    },
    {
      "midi": 73,
      "time": 4,
      "duration": 0.485,
      "velocity": 0.71,
      "hand": "right"
    },
    {
      "midi": 81,
      "time": 4,
      "duration": 0.485,
      "velocity": 0.71,
      "hand": "right"
    },
    {
      "midi": 57,
      "time": 4.5,
      "duration": 0.485,
      "velocity": 0.54,
      "hand": "left"
    },
    {
      "midi": 64,
      "time": 4.5,
      "duration": 0.485,
      "velocity": 0.54,
      "hand": "right"
    },
    {
      "midi": 73,
      "time": 4.5,
      "duration": 0.485,
      "velocity": 0.71,
      "hand": "right"
    },
    {
      "midi": 81,
      "time": 4.5,
      "duration": 0.485,
      "velocity": 0.71,
      "hand": "right"
    },
    {
      "midi": 57,
      "time": 5,
      "duration": 1,
      "velocity": 0.54,
      "hand": "left"
    },
    {
      "midi": 64,
      "time": 5,
      "duration": 0.985,
      "velocity": 0.54,
      "hand": "right"
    },
    {
      "midi": 73,
      "time": 5,
      "duration": 0.985,
      "velocity": 0.71,
      "hand": "right"
    },
    {
      "midi": 81,
      "time": 5,
      "duration": 1,
      "velocity": 0.71,
      "hand": "right"
    },
    {
      "midi": 64,
      "time": 6,
      "duration": 0.5,
      "velocity": 0.71,
      "hand": "right"
    },
    {
      "midi": 73,
      "time": 6,
      "duration": 0.5,
      "velocity": 0.71,
      "hand": "right"
    },
    {
      "midi": 40,
      "time": 6.5,
      "duration": 0.5,
      "velocity": 0.54,
      "hand": "left"
    },
    {
      "midi": 61,
      "time": 6.5,
      "duration": 0.375,
      "velocity": 0.71,
      "hand": "right"
    },
    {
      "midi": 70,
      "time": 6.5,
      "duration": 0.375,
      "velocity": 0.71,
      "hand": "right"
    },
    {
      "midi": 62,
      "time": 6.875,
      "duration": 2.11,
      "velocity": 0.71,
      "hand": "right"
    },
    {
      "midi": 71,
      "time": 6.875,
      "duration": 0.125,
      "velocity": 0.71,
      "hand": "right"
    },
    {
      "midi": 52,
      "time": 7,
      "duration": 0.485,
      "velocity": 0.54,
      "hand": "left"
    },
    {
      "midi": 59,
      "time": 7,
      "duration": 0.485,
      "velocity": 0.54,
      "hand": "left"
    },
    {
      "midi": 66,
      "time": 7,
      "duration": 0.485,
      "velocity": 0.71,
      "hand": "right"
    },
    {
      "midi": 74,
      "time": 7,
      "duration": 0.485,
      "velocity": 0.71,
      "hand": "right"
    },
    {
      "midi": 52,
      "time": 7.5,
      "duration": 0.485,
      "velocity": 0.54,
      "hand": "left"
    },
    {
      "midi": 59,
      "time": 7.5,
      "duration": 0.485,
      "velocity": 0.54,
      "hand": "left"
    },
    {
      "midi": 66,
      "time": 7.5,
      "duration": 0.485,
      "velocity": 0.71,
      "hand": "right"
    },
    {
      "midi": 74,
      "time": 7.5,
      "duration": 0.485,
      "velocity": 0.71,
      "hand": "right"
    },
    {
      "midi": 52,
      "time": 8,
      "duration": 1,
      "velocity": 0.54,
      "hand": "left"
    },
    {
      "midi": 59,
      "time": 8,
      "duration": 1,
      "velocity": 0.54,
      "hand": "left"
    },
    {
      "midi": 66,
      "time": 8,
      "duration": 1,
      "velocity": 0.71,
      "hand": "right"
    },
    {
      "midi": 74,
      "time": 8,
      "duration": 1,
      "velocity": 0.71,
      "hand": "right"
    },
    {
      "midi": 62,
      "time": 9,
      "duration": 0.485,
      "velocity": 0.71,
      "hand": "right"
    },
    {
      "midi": 68,
      "time": 9,
      "duration": 0.485,
      "velocity": 0.71,
      "hand": "right"
    },
    {
      "midi": 45,
      "time": 9.5,
      "duration": 0.5,
      "velocity": 0.54,
      "hand": "left"
    },
    {
      "midi": 62,
      "time": 9.5,
      "duration": 0.375,
      "velocity": 0.71,
      "hand": "right"
    },
    {
      "midi": 68,
      "time": 9.5,
      "duration": 0.375,
      "velocity": 0.71,
      "hand": "right"
    },
    {
      "midi": 61,
      "time": 9.875,
      "duration": 0.11,
      "velocity": 0.71,
      "hand": "right"
    },
    {
      "midi": 69,
      "time": 9.875,
      "duration": 0.125,
      "velocity": 0.71,
      "hand": "right"
    },
    {
      "midi": 52,
      "time": 10,
      "duration": 0.485,
      "velocity": 0.54,
      "hand": "left"
    },
    {
      "midi": 57,
      "time": 10,
      "duration": 0.485,
      "velocity": 0.54,
      "hand": "left"
    },
    {
      "midi": 61,
      "time": 10,
      "duration": 0.485,
      "velocity": 0.71,
      "hand": "right"
    },
    {
      "midi": 64,
      "time": 10,
      "duration": 0.485,
      "velocity": 0.54,
      "hand": "right"
    },
    {
      "midi": 73,
      "time": 10,
      "duration": 0.485,
      "velocity": 0.71,
      "hand": "right"
    },
    {
      "midi": 52,
      "time": 10.5,
      "duration": 0.485,
      "velocity": 0.54,
      "hand": "left"
    },
    {
      "midi": 57,
      "time": 10.5,
      "duration": 0.485,
      "velocity": 0.54,
      "hand": "left"
    },
    {
      "midi": 61,
      "time": 10.5,
      "duration": 0.485,
      "velocity": 0.71,
      "hand": "right"
    },
    {
      "midi": 64,
      "time": 10.5,
      "duration": 0.485,
      "velocity": 0.54,
      "hand": "right"
    },
    {
      "midi": 73,
      "time": 10.5,
      "duration": 0.485,
      "velocity": 0.71,
      "hand": "right"
    },
    {
      "midi": 52,
      "time": 11,
      "duration": 1,
      "velocity": 0.54,
      "hand": "left"
    },
    {
      "midi": 57,
      "time": 11,
      "duration": 1,
      "velocity": 0.54,
      "hand": "left"
    },
    {
      "midi": 61,
      "time": 11,
      "duration": 1,
      "velocity": 0.71,
      "hand": "right"
    },
    {
      "midi": 64,
      "time": 11,
      "duration": 0.985,
      "velocity": 0.54,
      "hand": "right"
    },
    {
      "midi": 73,
      "time": 11,
      "duration": 1,
      "velocity": 0.71,
      "hand": "right"
    },
    {
      "midi": 64,
      "time": 12,
      "duration": 0.985,
      "velocity": 0.71,
      "hand": "right"
    },
    {
      "midi": 40,
      "time": 12.5,
      "duration": 0.5,
      "velocity": 0.54,
      "hand": "left"
    },
    {
      "midi": 68,
      "time": 12.5,
      "duration": 0.485,
      "velocity": 0.71,
      "hand": "right"
    },
    {
      "midi": 73,
      "time": 12.5,
      "duration": 0.375,
      "velocity": 0.71,
      "hand": "right"
    },
    {
      "midi": 74,
      "time": 12.875,
      "duration": 0.125,
      "velocity": 0.71,
      "hand": "right"
    },
    {
      "midi": 52,
      "time": 13,
      "duration": 0.485,
      "velocity": 0.54,
      "hand": "left"
    },
    {
      "midi": 62,
      "time": 13,
      "duration": 0.485,
      "velocity": 0.71,
      "hand": "right"
    },
    {
      "midi": 64,
      "time": 13,
      "duration": 0.485,
      "velocity": 0.54,
      "hand": "right"
    },
    {
      "midi": 68,
      "time": 13,
      "duration": 0.485,
      "velocity": 0.71,
      "hand": "right"
    },
    {
      "midi": 71,
      "time": 13,
      "duration": 0.485,
      "velocity": 0.71,
      "hand": "right"
    },
    {
      "midi": 52,
      "time": 13.5,
      "duration": 0.485,
      "velocity": 0.54,
      "hand": "left"
    },
    {
      "midi": 62,
      "time": 13.5,
      "duration": 0.485,
      "velocity": 0.71,
      "hand": "right"
    },
    {
      "midi": 64,
      "time": 13.5,
      "duration": 0.485,
      "velocity": 0.54,
      "hand": "right"
    },
    {
      "midi": 68,
      "time": 13.5,
      "duration": 0.485,
      "velocity": 0.71,
      "hand": "right"
    },
    {
      "midi": 71,
      "time": 13.5,
      "duration": 0.485,
      "velocity": 0.71,
      "hand": "right"
    },
    {
      "midi": 52,
      "time": 14,
      "duration": 1,
      "velocity": 0.54,
      "hand": "left"
    },
    {
      "midi": 62,
      "time": 14,
      "duration": 1,
      "velocity": 0.71,
      "hand": "right"
    },
    {
      "midi": 64,
      "time": 14,
      "duration": 1,
      "velocity": 0.54,
      "hand": "right"
    },
    {
      "midi": 68,
      "time": 14,
      "duration": 1,
      "velocity": 0.71,
      "hand": "right"
    },
    {
      "midi": 71,
      "time": 14,
      "duration": 1,
      "velocity": 0.71,
      "hand": "right"
    },
    {
      "midi": 74,
      "time": 15,
      "duration": 0.5,
      "velocity": 0.71,
      "hand": "right"
    },
    {
      "midi": 78,
      "time": 15,
      "duration": 0.5,
      "velocity": 0.71,
      "hand": "right"
    },
    {
      "midi": 45,
      "time": 15.5,
      "duration": 0.5,
      "velocity": 0.54,
      "hand": "left"
    },
    {
      "midi": 72,
      "time": 15.5,
      "duration": 0.375,
      "velocity": 0.71,
      "hand": "right"
    },
    {
      "midi": 75,
      "time": 15.5,
      "duration": 0.375,
      "velocity": 0.71,
      "hand": "right"
    },
    {
      "midi": 73,
      "time": 15.875,
      "duration": 0.11,
      "velocity": 0.71,
      "hand": "right"
    },
    {
      "midi": 76,
      "time": 15.875,
      "duration": 1.11,
      "velocity": 0.71,
      "hand": "right"
    },
    {
      "midi": 57,
      "time": 16,
      "duration": 0.485,
      "velocity": 0.62,
      "hand": "left"
    },
    {
      "midi": 64,
      "time": 16,
      "duration": 0.485,
      "velocity": 0.62,
      "hand": "right"
    },
    {
      "midi": 69,
      "time": 16,
      "duration": 0.485,
      "velocity": 0.62,
      "hand": "right"
    },
    {
      "midi": 73,
      "time": 16,
      "duration": 0.485,
      "velocity": 0.71,
      "hand": "right"
    },
    {
      "midi": 81,
      "time": 16,
      "duration": 0.485,
      "velocity": 0.71,
      "hand": "right"
    },
    {
      "midi": 57,
      "time": 16.5,
      "duration": 0.5,
      "velocity": 0.69,
      "hand": "left"
    },
    {
      "midi": 64,
      "time": 16.5,
      "duration": 0.485,
      "velocity": 0.69,
      "hand": "right"
    },
    {
      "midi": 69,
      "time": 16.5,
      "duration": 0.5,
      "velocity": 0.69,
      "hand": "right"
    },
    {
      "midi": 73,
      "time": 16.5,
      "duration": 0.485,
      "velocity": 0.71,
      "hand": "right"
    },
    {
      "midi": 81,
      "time": 16.5,
      "duration": 0.5,
      "velocity": 0.71,
      "hand": "right"
    },
    {
      "midi": 54,
      "time": 17,
      "duration": 1,
      "velocity": 0.77,
      "hand": "left"
    },
    {
      "midi": 70,
      "time": 17,
      "duration": 0.985,
      "velocity": 0.71,
      "hand": "right"
    },
    {
      "midi": 73,
      "time": 17,
      "duration": 0.985,
      "velocity": 0.71,
      "hand": "right"
    },
    {
      "midi": 76,
      "time": 17,
      "duration": 1,
      "velocity": 0.71,
      "hand": "right"
    },
    {
      "midi": 82,
      "time": 17,
      "duration": 1,
      "velocity": 0.71,
      "hand": "right"
    },
    {
      "midi": 70,
      "time": 18,
      "duration": 0.485,
      "velocity": 0.71,
      "hand": "right"
    },
    {
      "midi": 73,
      "time": 18,
      "duration": 0.485,
      "velocity": 0.71,
      "hand": "right"
    },
    {
      "midi": 47,
      "time": 18.5,
      "duration": 0.5,
      "velocity": 0.77,
      "hand": "left"
    },
    {
      "midi": 70,
      "time": 18.5,
      "duration": 0.375,
      "velocity": 0.71,
      "hand": "right"
    },
    {
      "midi": 73,
      "time": 18.5,
      "duration": 0.375,
      "velocity": 0.71,
      "hand": "right"
    },
    {
      "midi": 71,
      "time": 18.875,
      "duration": 0.11,
      "velocity": 0.71,
      "hand": "right"
    },
    {
      "midi": 74,
      "time": 18.875,
      "duration": 0.125,
      "velocity": 0.71,
      "hand": "right"
    },
    {
      "midi": 54,
      "time": 19,
      "duration": 0.485,
      "velocity": 0.77,
      "hand": "left"
    },
    {
      "midi": 62,
      "time": 19,
      "duration": 0.485,
      "velocity": 0.77,
      "hand": "right"
    },
    {
      "midi": 71,
      "time": 19,
      "duration": 0.5,
      "velocity": 0.71,
      "hand": "right"
    },
    {
      "midi": 78,
      "time": 19,
      "duration": 0.485,
      "velocity": 0.71,
      "hand": "right"
    },
    {
      "midi": 54,
      "time": 19.5,
      "duration": 0.5,
      "velocity": 0.77,
      "hand": "left"
    },
    {
      "midi": 59,
      "time": 19.5,
      "duration": 0.485,
      "velocity": 0.77,
      "hand": "left"
    },
    {
      "midi": 62,
      "time": 19.5,
      "duration": 0.485,
      "velocity": 0.77,
      "hand": "right"
    },
    {
      "midi": 69,
      "time": 19.5,
      "duration": 0.5,
      "velocity": 0.71,
      "hand": "right"
    },
    {
      "midi": 78,
      "time": 19.5,
      "duration": 0.485,
      "velocity": 0.71,
      "hand": "right"
    },
    {
      "midi": 52,
      "time": 20,
      "duration": 1,
      "velocity": 0.77,
      "hand": "left"
    },
    {
      "midi": 59,
      "time": 20,
      "duration": 1,
      "velocity": 0.77,
      "hand": "left"
    },
    {
      "midi": 62,
      "time": 20,
      "duration": 0.985,
      "velocity": 0.77,
      "hand": "right"
    },
    {
      "midi": 68,
      "time": 20,
      "duration": 0.985,
      "velocity": 0.71,
      "hand": "right"
    },
    {
      "midi": 78,
      "time": 20,
      "duration": 1,
      "velocity": 0.71,
      "hand": "right"
    },
    {
      "midi": 62,
      "time": 21,
      "duration": 0.485,
      "velocity": 0.71,
      "hand": "right"
    },
    {
      "midi": 68,
      "time": 21,
      "duration": 0.5,
      "velocity": 0.71,
      "hand": "right"
    },
    {
      "midi": 45,
      "time": 21.5,
      "duration": 0.5,
      "velocity": 0.77,
      "hand": "left"
    },
    {
      "midi": 62,
      "time": 21.5,
      "duration": 0.375,
      "velocity": 0.71,
      "hand": "right"
    },
    {
      "midi": 71,
      "time": 21.5,
      "duration": 0.375,
      "velocity": 0.71,
      "hand": "right"
    },
    {
      "midi": 61,
      "time": 21.875,
      "duration": 0.125,
      "velocity": 0.71,
      "hand": "right"
    },
    {
      "midi": 69,
      "time": 21.875,
      "duration": 0.11,
      "velocity": 0.71,
      "hand": "right"
    },
    {
      "midi": 52,
      "time": 22,
      "duration": 0.5,
      "velocity": 0.77,
      "hand": "left"
    },
    {
      "midi": 57,
      "time": 22,
      "duration": 0.485,
      "velocity": 0.77,
      "hand": "left"
    },
    {
      "midi": 64,
      "time": 22,
      "duration": 0.485,
      "velocity": 0.77,
      "hand": "right"
    },
    {
      "midi": 69,
      "time": 22,
      "duration": 2,
      "velocity": 0.71,
      "hand": "right"
    },
    {
      "midi": 73,
      "time": 22,
      "duration": 0.485,
      "velocity": 0.71,
      "hand": "right"
    },
    {
      "midi": 81,
      "time": 22,
      "duration": 0.485,
      "velocity": 0.71,
      "hand": "right"
    },
    {
      "midi": 57,
      "time": 22.5,
      "duration": 0.485,
      "velocity": 0.77,
      "hand": "left"
    },
    {
      "midi": 64,
      "time": 22.5,
      "duration": 0.485,
      "velocity": 0.77,
      "hand": "right"
    },
    {
      "midi": 73,
      "time": 22.5,
      "duration": 0.485,
      "velocity": 0.71,
      "hand": "right"
    },
    {
      "midi": 81,
      "time": 22.5,
      "duration": 0.485,
      "velocity": 0.71,
      "hand": "right"
    },
    {
      "midi": 57,
      "time": 23,
      "duration": 1,
      "velocity": 0.77,
      "hand": "left"
    },
    {
      "midi": 64,
      "time": 23,
      "duration": 1,
      "velocity": 0.77,
      "hand": "right"
    },
    {
      "midi": 73,
      "time": 23,
      "duration": 1,
      "velocity": 0.71,
      "hand": "right"
    },
    {
      "midi": 81,
      "time": 23,
      "duration": 1,
      "velocity": 0.71,
      "hand": "right"
    }
  ],
  "arrangements": {
    "easy": [
      {
        "midi": 64,
        "time": 0,
        "duration": 0.5,
        "velocity": 0.71,
        "hand": "right"
      },
      {
        "midi": 74,
        "time": 0.875,
        "duration": 0.3,
        "velocity": 0.71,
        "hand": "right"
      },
      {
        "midi": 71,
        "time": 1.5,
        "duration": 0.485,
        "velocity": 0.71,
        "hand": "right"
      },
      {
        "midi": 78,
        "time": 3,
        "duration": 0.5,
        "velocity": 0.71,
        "hand": "right"
      },
      {
        "midi": 76,
        "time": 3.875,
        "duration": 0.3,
        "velocity": 0.71,
        "hand": "right"
      },
      {
        "midi": 81,
        "time": 4.5,
        "duration": 0.485,
        "velocity": 0.71,
        "hand": "right"
      },
      {
        "midi": 73,
        "time": 6,
        "duration": 0.5,
        "velocity": 0.71,
        "hand": "right"
      },
      {
        "midi": 71,
        "time": 6.875,
        "duration": 0.3,
        "velocity": 0.71,
        "hand": "right"
      },
      {
        "midi": 74,
        "time": 7.5,
        "duration": 0.485,
        "velocity": 0.71,
        "hand": "right"
      },
      {
        "midi": 68,
        "time": 9,
        "duration": 0.485,
        "velocity": 0.71,
        "hand": "right"
      },
      {
        "midi": 69,
        "time": 9.875,
        "duration": 0.3,
        "velocity": 0.71,
        "hand": "right"
      },
      {
        "midi": 73,
        "time": 10.5,
        "duration": 0.485,
        "velocity": 0.71,
        "hand": "right"
      },
      {
        "midi": 64,
        "time": 12,
        "duration": 0.985,
        "velocity": 0.71,
        "hand": "right"
      },
      {
        "midi": 74,
        "time": 12.875,
        "duration": 0.3,
        "velocity": 0.71,
        "hand": "right"
      },
      {
        "midi": 71,
        "time": 13.5,
        "duration": 0.485,
        "velocity": 0.71,
        "hand": "right"
      },
      {
        "midi": 78,
        "time": 15,
        "duration": 0.5,
        "velocity": 0.71,
        "hand": "right"
      },
      {
        "midi": 76,
        "time": 15.875,
        "duration": 1.11,
        "velocity": 0.71,
        "hand": "right"
      },
      {
        "midi": 81,
        "time": 16.5,
        "duration": 0.5,
        "velocity": 0.71,
        "hand": "right"
      },
      {
        "midi": 73,
        "time": 18,
        "duration": 0.485,
        "velocity": 0.71,
        "hand": "right"
      },
      {
        "midi": 74,
        "time": 18.875,
        "duration": 0.3,
        "velocity": 0.71,
        "hand": "right"
      },
      {
        "midi": 78,
        "time": 19.5,
        "duration": 0.485,
        "velocity": 0.71,
        "hand": "right"
      },
      {
        "midi": 68,
        "time": 21,
        "duration": 0.5,
        "velocity": 0.71,
        "hand": "right"
      },
      {
        "midi": 69,
        "time": 21.875,
        "duration": 0.3,
        "velocity": 0.71,
        "hand": "right"
      },
      {
        "midi": 81,
        "time": 22.5,
        "duration": 0.485,
        "velocity": 0.71,
        "hand": "right"
      }
    ],
    "medium": [
      {
        "midi": 64,
        "time": 0,
        "duration": 0.5,
        "velocity": 0.71,
        "hand": "right"
      },
      {
        "midi": 74,
        "time": 0.875,
        "duration": 0.175,
        "velocity": 0.71,
        "hand": "right"
      },
      {
        "midi": 71,
        "time": 2,
        "duration": 1,
        "velocity": 0.71,
        "hand": "right"
      },
      {
        "midi": 74,
        "time": 3,
        "duration": 0.5,
        "velocity": 0.71,
        "hand": "right"
      },
      {
        "midi": 78,
        "time": 3,
        "duration": 0.5,
        "velocity": 0.71,
        "hand": "right"
      },
      {
        "midi": 73,
        "time": 3.875,
        "duration": 0.175,
        "velocity": 0.71,
        "hand": "right"
      },
      {
        "midi": 76,
        "time": 3.875,
        "duration": 0.175,
        "velocity": 0.71,
        "hand": "right"
      },
      {
        "midi": 81,
        "time": 5,
        "duration": 1,
        "velocity": 0.71,
        "hand": "right"
      },
      {
        "midi": 64,
        "time": 6,
        "duration": 0.5,
        "velocity": 0.71,
        "hand": "right"
      },
      {
        "midi": 73,
        "time": 6,
        "duration": 0.5,
        "velocity": 0.71,
        "hand": "right"
      },
      {
        "midi": 62,
        "time": 6.875,
        "duration": 2.11,
        "velocity": 0.71,
        "hand": "right"
      },
      {
        "midi": 71,
        "time": 6.875,
        "duration": 0.175,
        "velocity": 0.71,
        "hand": "right"
      },
      {
        "midi": 74,
        "time": 8,
        "duration": 1,
        "velocity": 0.71,
        "hand": "right"
      },
      {
        "midi": 62,
        "time": 9,
        "duration": 0.485,
        "velocity": 0.71,
        "hand": "right"
      },
      {
        "midi": 68,
        "time": 9,
        "duration": 0.485,
        "velocity": 0.71,
        "hand": "right"
      },
      {
        "midi": 61,
        "time": 9.875,
        "duration": 0.175,
        "velocity": 0.71,
        "hand": "right"
      },
      {
        "midi": 69,
        "time": 9.875,
        "duration": 0.175,
        "velocity": 0.71,
        "hand": "right"
      },
      {
        "midi": 73,
        "time": 11,
        "duration": 1,
        "velocity": 0.71,
        "hand": "right"
      },
      {
        "midi": 64,
        "time": 12,
        "duration": 0.985,
        "velocity": 0.71,
        "hand": "right"
      },
      {
        "midi": 74,
        "time": 12.875,
        "duration": 0.175,
        "velocity": 0.71,
        "hand": "right"
      },
      {
        "midi": 71,
        "time": 14,
        "duration": 1,
        "velocity": 0.71,
        "hand": "right"
      },
      {
        "midi": 74,
        "time": 15,
        "duration": 0.5,
        "velocity": 0.71,
        "hand": "right"
      },
      {
        "midi": 78,
        "time": 15,
        "duration": 0.5,
        "velocity": 0.71,
        "hand": "right"
      },
      {
        "midi": 73,
        "time": 15.875,
        "duration": 0.175,
        "velocity": 0.71,
        "hand": "right"
      },
      {
        "midi": 76,
        "time": 15.875,
        "duration": 1.11,
        "velocity": 0.71,
        "hand": "right"
      },
      {
        "midi": 82,
        "time": 17,
        "duration": 1,
        "velocity": 0.71,
        "hand": "right"
      },
      {
        "midi": 70,
        "time": 18,
        "duration": 0.485,
        "velocity": 0.71,
        "hand": "right"
      },
      {
        "midi": 73,
        "time": 18,
        "duration": 0.485,
        "velocity": 0.71,
        "hand": "right"
      },
      {
        "midi": 71,
        "time": 18.875,
        "duration": 0.175,
        "velocity": 0.71,
        "hand": "right"
      },
      {
        "midi": 74,
        "time": 18.875,
        "duration": 0.175,
        "velocity": 0.71,
        "hand": "right"
      },
      {
        "midi": 78,
        "time": 20,
        "duration": 1,
        "velocity": 0.71,
        "hand": "right"
      },
      {
        "midi": 62,
        "time": 21,
        "duration": 0.485,
        "velocity": 0.71,
        "hand": "right"
      },
      {
        "midi": 68,
        "time": 21,
        "duration": 0.5,
        "velocity": 0.71,
        "hand": "right"
      },
      {
        "midi": 61,
        "time": 21.875,
        "duration": 0.175,
        "velocity": 0.71,
        "hand": "right"
      },
      {
        "midi": 69,
        "time": 21.875,
        "duration": 0.175,
        "velocity": 0.71,
        "hand": "right"
      },
      {
        "midi": 81,
        "time": 23,
        "duration": 1,
        "velocity": 0.71,
        "hand": "right"
      }
    ],
    "hard": [
      {
        "midi": 64,
        "time": 0,
        "duration": 0.5,
        "velocity": 0.71,
        "hand": "right"
      },
      {
        "midi": 40,
        "time": 0.5,
        "duration": 0.5,
        "velocity": 0.54,
        "hand": "left"
      },
      {
        "midi": 73,
        "time": 0.5,
        "duration": 0.375,
        "velocity": 0.71,
        "hand": "right"
      },
      {
        "midi": 74,
        "time": 0.875,
        "duration": 0.125,
        "velocity": 0.71,
        "hand": "right"
      },
      {
        "midi": 52,
        "time": 1,
        "duration": 0.485,
        "velocity": 0.54,
        "hand": "left"
      },
      {
        "midi": 62,
        "time": 1,
        "duration": 0.485,
        "velocity": 0.71,
        "hand": "right"
      },
      {
        "midi": 64,
        "time": 1,
        "duration": 0.485,
        "velocity": 0.54,
        "hand": "right"
      },
      {
        "midi": 68,
        "time": 1,
        "duration": 0.485,
        "velocity": 0.71,
        "hand": "right"
      },
      {
        "midi": 71,
        "time": 1,
        "duration": 0.485,
        "velocity": 0.71,
        "hand": "right"
      },
      {
        "midi": 52,
        "time": 1.5,
        "duration": 0.485,
        "velocity": 0.54,
        "hand": "left"
      },
      {
        "midi": 62,
        "time": 1.5,
        "duration": 0.485,
        "velocity": 0.71,
        "hand": "right"
      },
      {
        "midi": 64,
        "time": 1.5,
        "duration": 0.485,
        "velocity": 0.54,
        "hand": "right"
      },
      {
        "midi": 68,
        "time": 1.5,
        "duration": 0.485,
        "velocity": 0.71,
        "hand": "right"
      },
      {
        "midi": 71,
        "time": 1.5,
        "duration": 0.485,
        "velocity": 0.71,
        "hand": "right"
      },
      {
        "midi": 52,
        "time": 2,
        "duration": 1,
        "velocity": 0.54,
        "hand": "left"
      },
      {
        "midi": 62,
        "time": 2,
        "duration": 1,
        "velocity": 0.71,
        "hand": "right"
      },
      {
        "midi": 64,
        "time": 2,
        "duration": 1,
        "velocity": 0.54,
        "hand": "right"
      },
      {
        "midi": 68,
        "time": 2,
        "duration": 1,
        "velocity": 0.71,
        "hand": "right"
      },
      {
        "midi": 71,
        "time": 2,
        "duration": 1,
        "velocity": 0.71,
        "hand": "right"
      },
      {
        "midi": 74,
        "time": 3,
        "duration": 0.5,
        "velocity": 0.71,
        "hand": "right"
      },
      {
        "midi": 78,
        "time": 3,
        "duration": 0.5,
        "velocity": 0.71,
        "hand": "right"
      },
      {
        "midi": 45,
        "time": 3.5,
        "duration": 0.5,
        "velocity": 0.54,
        "hand": "left"
      },
      {
        "midi": 72,
        "time": 3.5,
        "duration": 0.375,
        "velocity": 0.71,
        "hand": "right"
      },
      {
        "midi": 75,
        "time": 3.5,
        "duration": 0.375,
        "velocity": 0.71,
        "hand": "right"
      },
      {
        "midi": 73,
        "time": 3.875,
        "duration": 0.11,
        "velocity": 0.71,
        "hand": "right"
      },
      {
        "midi": 76,
        "time": 3.875,
        "duration": 0.125,
        "velocity": 0.71,
        "hand": "right"
      },
      {
        "midi": 57,
        "time": 4,
        "duration": 0.485,
        "velocity": 0.54,
        "hand": "left"
      },
      {
        "midi": 64,
        "time": 4,
        "duration": 0.485,
        "velocity": 0.54,
        "hand": "right"
      },
      {
        "midi": 73,
        "time": 4,
        "duration": 0.485,
        "velocity": 0.71,
        "hand": "right"
      },
      {
        "midi": 81,
        "time": 4,
        "duration": 0.485,
        "velocity": 0.71,
        "hand": "right"
      },
      {
        "midi": 57,
        "time": 4.5,
        "duration": 0.485,
        "velocity": 0.54,
        "hand": "left"
      },
      {
        "midi": 64,
        "time": 4.5,
        "duration": 0.485,
        "velocity": 0.54,
        "hand": "right"
      },
      {
        "midi": 73,
        "time": 4.5,
        "duration": 0.485,
        "velocity": 0.71,
        "hand": "right"
      },
      {
        "midi": 81,
        "time": 4.5,
        "duration": 0.485,
        "velocity": 0.71,
        "hand": "right"
      },
      {
        "midi": 57,
        "time": 5,
        "duration": 1,
        "velocity": 0.54,
        "hand": "left"
      },
      {
        "midi": 64,
        "time": 5,
        "duration": 0.985,
        "velocity": 0.54,
        "hand": "right"
      },
      {
        "midi": 73,
        "time": 5,
        "duration": 0.985,
        "velocity": 0.71,
        "hand": "right"
      },
      {
        "midi": 81,
        "time": 5,
        "duration": 1,
        "velocity": 0.71,
        "hand": "right"
      },
      {
        "midi": 64,
        "time": 6,
        "duration": 0.5,
        "velocity": 0.71,
        "hand": "right"
      },
      {
        "midi": 73,
        "time": 6,
        "duration": 0.5,
        "velocity": 0.71,
        "hand": "right"
      },
      {
        "midi": 40,
        "time": 6.5,
        "duration": 0.5,
        "velocity": 0.54,
        "hand": "left"
      },
      {
        "midi": 61,
        "time": 6.5,
        "duration": 0.375,
        "velocity": 0.71,
        "hand": "right"
      },
      {
        "midi": 70,
        "time": 6.5,
        "duration": 0.375,
        "velocity": 0.71,
        "hand": "right"
      },
      {
        "midi": 62,
        "time": 6.875,
        "duration": 2.11,
        "velocity": 0.71,
        "hand": "right"
      },
      {
        "midi": 71,
        "time": 6.875,
        "duration": 0.125,
        "velocity": 0.71,
        "hand": "right"
      },
      {
        "midi": 52,
        "time": 7,
        "duration": 0.485,
        "velocity": 0.54,
        "hand": "left"
      },
      {
        "midi": 59,
        "time": 7,
        "duration": 0.485,
        "velocity": 0.54,
        "hand": "left"
      },
      {
        "midi": 66,
        "time": 7,
        "duration": 0.485,
        "velocity": 0.71,
        "hand": "right"
      },
      {
        "midi": 74,
        "time": 7,
        "duration": 0.485,
        "velocity": 0.71,
        "hand": "right"
      },
      {
        "midi": 52,
        "time": 7.5,
        "duration": 0.485,
        "velocity": 0.54,
        "hand": "left"
      },
      {
        "midi": 59,
        "time": 7.5,
        "duration": 0.485,
        "velocity": 0.54,
        "hand": "left"
      },
      {
        "midi": 66,
        "time": 7.5,
        "duration": 0.485,
        "velocity": 0.71,
        "hand": "right"
      },
      {
        "midi": 74,
        "time": 7.5,
        "duration": 0.485,
        "velocity": 0.71,
        "hand": "right"
      },
      {
        "midi": 52,
        "time": 8,
        "duration": 1,
        "velocity": 0.54,
        "hand": "left"
      },
      {
        "midi": 59,
        "time": 8,
        "duration": 1,
        "velocity": 0.54,
        "hand": "left"
      },
      {
        "midi": 66,
        "time": 8,
        "duration": 1,
        "velocity": 0.71,
        "hand": "right"
      },
      {
        "midi": 74,
        "time": 8,
        "duration": 1,
        "velocity": 0.71,
        "hand": "right"
      },
      {
        "midi": 62,
        "time": 9,
        "duration": 0.485,
        "velocity": 0.71,
        "hand": "right"
      },
      {
        "midi": 68,
        "time": 9,
        "duration": 0.485,
        "velocity": 0.71,
        "hand": "right"
      },
      {
        "midi": 45,
        "time": 9.5,
        "duration": 0.5,
        "velocity": 0.54,
        "hand": "left"
      },
      {
        "midi": 62,
        "time": 9.5,
        "duration": 0.375,
        "velocity": 0.71,
        "hand": "right"
      },
      {
        "midi": 68,
        "time": 9.5,
        "duration": 0.375,
        "velocity": 0.71,
        "hand": "right"
      },
      {
        "midi": 61,
        "time": 9.875,
        "duration": 0.11,
        "velocity": 0.71,
        "hand": "right"
      },
      {
        "midi": 69,
        "time": 9.875,
        "duration": 0.125,
        "velocity": 0.71,
        "hand": "right"
      },
      {
        "midi": 52,
        "time": 10,
        "duration": 0.485,
        "velocity": 0.54,
        "hand": "left"
      },
      {
        "midi": 57,
        "time": 10,
        "duration": 0.485,
        "velocity": 0.54,
        "hand": "left"
      },
      {
        "midi": 61,
        "time": 10,
        "duration": 0.485,
        "velocity": 0.71,
        "hand": "right"
      },
      {
        "midi": 64,
        "time": 10,
        "duration": 0.485,
        "velocity": 0.54,
        "hand": "right"
      },
      {
        "midi": 73,
        "time": 10,
        "duration": 0.485,
        "velocity": 0.71,
        "hand": "right"
      },
      {
        "midi": 52,
        "time": 10.5,
        "duration": 0.485,
        "velocity": 0.54,
        "hand": "left"
      },
      {
        "midi": 57,
        "time": 10.5,
        "duration": 0.485,
        "velocity": 0.54,
        "hand": "left"
      },
      {
        "midi": 61,
        "time": 10.5,
        "duration": 0.485,
        "velocity": 0.71,
        "hand": "right"
      },
      {
        "midi": 64,
        "time": 10.5,
        "duration": 0.485,
        "velocity": 0.54,
        "hand": "right"
      },
      {
        "midi": 73,
        "time": 10.5,
        "duration": 0.485,
        "velocity": 0.71,
        "hand": "right"
      },
      {
        "midi": 52,
        "time": 11,
        "duration": 1,
        "velocity": 0.54,
        "hand": "left"
      },
      {
        "midi": 57,
        "time": 11,
        "duration": 1,
        "velocity": 0.54,
        "hand": "left"
      },
      {
        "midi": 61,
        "time": 11,
        "duration": 1,
        "velocity": 0.71,
        "hand": "right"
      },
      {
        "midi": 64,
        "time": 11,
        "duration": 0.985,
        "velocity": 0.54,
        "hand": "right"
      },
      {
        "midi": 73,
        "time": 11,
        "duration": 1,
        "velocity": 0.71,
        "hand": "right"
      },
      {
        "midi": 64,
        "time": 12,
        "duration": 0.985,
        "velocity": 0.71,
        "hand": "right"
      },
      {
        "midi": 40,
        "time": 12.5,
        "duration": 0.5,
        "velocity": 0.54,
        "hand": "left"
      },
      {
        "midi": 68,
        "time": 12.5,
        "duration": 0.485,
        "velocity": 0.71,
        "hand": "right"
      },
      {
        "midi": 73,
        "time": 12.5,
        "duration": 0.375,
        "velocity": 0.71,
        "hand": "right"
      },
      {
        "midi": 74,
        "time": 12.875,
        "duration": 0.125,
        "velocity": 0.71,
        "hand": "right"
      },
      {
        "midi": 52,
        "time": 13,
        "duration": 0.485,
        "velocity": 0.54,
        "hand": "left"
      },
      {
        "midi": 62,
        "time": 13,
        "duration": 0.485,
        "velocity": 0.71,
        "hand": "right"
      },
      {
        "midi": 64,
        "time": 13,
        "duration": 0.485,
        "velocity": 0.54,
        "hand": "right"
      },
      {
        "midi": 68,
        "time": 13,
        "duration": 0.485,
        "velocity": 0.71,
        "hand": "right"
      },
      {
        "midi": 71,
        "time": 13,
        "duration": 0.485,
        "velocity": 0.71,
        "hand": "right"
      },
      {
        "midi": 52,
        "time": 13.5,
        "duration": 0.485,
        "velocity": 0.54,
        "hand": "left"
      },
      {
        "midi": 62,
        "time": 13.5,
        "duration": 0.485,
        "velocity": 0.71,
        "hand": "right"
      },
      {
        "midi": 64,
        "time": 13.5,
        "duration": 0.485,
        "velocity": 0.54,
        "hand": "right"
      },
      {
        "midi": 68,
        "time": 13.5,
        "duration": 0.485,
        "velocity": 0.71,
        "hand": "right"
      },
      {
        "midi": 71,
        "time": 13.5,
        "duration": 0.485,
        "velocity": 0.71,
        "hand": "right"
      },
      {
        "midi": 52,
        "time": 14,
        "duration": 1,
        "velocity": 0.54,
        "hand": "left"
      },
      {
        "midi": 62,
        "time": 14,
        "duration": 1,
        "velocity": 0.71,
        "hand": "right"
      },
      {
        "midi": 64,
        "time": 14,
        "duration": 1,
        "velocity": 0.54,
        "hand": "right"
      },
      {
        "midi": 68,
        "time": 14,
        "duration": 1,
        "velocity": 0.71,
        "hand": "right"
      },
      {
        "midi": 71,
        "time": 14,
        "duration": 1,
        "velocity": 0.71,
        "hand": "right"
      },
      {
        "midi": 74,
        "time": 15,
        "duration": 0.5,
        "velocity": 0.71,
        "hand": "right"
      },
      {
        "midi": 78,
        "time": 15,
        "duration": 0.5,
        "velocity": 0.71,
        "hand": "right"
      },
      {
        "midi": 45,
        "time": 15.5,
        "duration": 0.5,
        "velocity": 0.54,
        "hand": "left"
      },
      {
        "midi": 72,
        "time": 15.5,
        "duration": 0.375,
        "velocity": 0.71,
        "hand": "right"
      },
      {
        "midi": 75,
        "time": 15.5,
        "duration": 0.375,
        "velocity": 0.71,
        "hand": "right"
      },
      {
        "midi": 73,
        "time": 15.875,
        "duration": 0.11,
        "velocity": 0.71,
        "hand": "right"
      },
      {
        "midi": 76,
        "time": 15.875,
        "duration": 1.11,
        "velocity": 0.71,
        "hand": "right"
      },
      {
        "midi": 57,
        "time": 16,
        "duration": 0.485,
        "velocity": 0.62,
        "hand": "left"
      },
      {
        "midi": 64,
        "time": 16,
        "duration": 0.485,
        "velocity": 0.62,
        "hand": "right"
      },
      {
        "midi": 69,
        "time": 16,
        "duration": 0.485,
        "velocity": 0.62,
        "hand": "right"
      },
      {
        "midi": 73,
        "time": 16,
        "duration": 0.485,
        "velocity": 0.71,
        "hand": "right"
      },
      {
        "midi": 81,
        "time": 16,
        "duration": 0.485,
        "velocity": 0.71,
        "hand": "right"
      },
      {
        "midi": 57,
        "time": 16.5,
        "duration": 0.5,
        "velocity": 0.69,
        "hand": "left"
      },
      {
        "midi": 64,
        "time": 16.5,
        "duration": 0.485,
        "velocity": 0.69,
        "hand": "right"
      },
      {
        "midi": 69,
        "time": 16.5,
        "duration": 0.5,
        "velocity": 0.69,
        "hand": "right"
      },
      {
        "midi": 73,
        "time": 16.5,
        "duration": 0.485,
        "velocity": 0.71,
        "hand": "right"
      },
      {
        "midi": 81,
        "time": 16.5,
        "duration": 0.5,
        "velocity": 0.71,
        "hand": "right"
      },
      {
        "midi": 54,
        "time": 17,
        "duration": 1,
        "velocity": 0.77,
        "hand": "left"
      },
      {
        "midi": 70,
        "time": 17,
        "duration": 0.985,
        "velocity": 0.71,
        "hand": "right"
      },
      {
        "midi": 73,
        "time": 17,
        "duration": 0.985,
        "velocity": 0.71,
        "hand": "right"
      },
      {
        "midi": 76,
        "time": 17,
        "duration": 1,
        "velocity": 0.71,
        "hand": "right"
      },
      {
        "midi": 82,
        "time": 17,
        "duration": 1,
        "velocity": 0.71,
        "hand": "right"
      },
      {
        "midi": 70,
        "time": 18,
        "duration": 0.485,
        "velocity": 0.71,
        "hand": "right"
      },
      {
        "midi": 73,
        "time": 18,
        "duration": 0.485,
        "velocity": 0.71,
        "hand": "right"
      },
      {
        "midi": 47,
        "time": 18.5,
        "duration": 0.5,
        "velocity": 0.77,
        "hand": "left"
      },
      {
        "midi": 70,
        "time": 18.5,
        "duration": 0.375,
        "velocity": 0.71,
        "hand": "right"
      },
      {
        "midi": 73,
        "time": 18.5,
        "duration": 0.375,
        "velocity": 0.71,
        "hand": "right"
      },
      {
        "midi": 71,
        "time": 18.875,
        "duration": 0.11,
        "velocity": 0.71,
        "hand": "right"
      },
      {
        "midi": 74,
        "time": 18.875,
        "duration": 0.125,
        "velocity": 0.71,
        "hand": "right"
      },
      {
        "midi": 54,
        "time": 19,
        "duration": 0.485,
        "velocity": 0.77,
        "hand": "left"
      },
      {
        "midi": 62,
        "time": 19,
        "duration": 0.485,
        "velocity": 0.77,
        "hand": "right"
      },
      {
        "midi": 71,
        "time": 19,
        "duration": 0.5,
        "velocity": 0.71,
        "hand": "right"
      },
      {
        "midi": 78,
        "time": 19,
        "duration": 0.485,
        "velocity": 0.71,
        "hand": "right"
      },
      {
        "midi": 54,
        "time": 19.5,
        "duration": 0.5,
        "velocity": 0.77,
        "hand": "left"
      },
      {
        "midi": 59,
        "time": 19.5,
        "duration": 0.485,
        "velocity": 0.77,
        "hand": "left"
      },
      {
        "midi": 62,
        "time": 19.5,
        "duration": 0.485,
        "velocity": 0.77,
        "hand": "right"
      },
      {
        "midi": 69,
        "time": 19.5,
        "duration": 0.5,
        "velocity": 0.71,
        "hand": "right"
      },
      {
        "midi": 78,
        "time": 19.5,
        "duration": 0.485,
        "velocity": 0.71,
        "hand": "right"
      },
      {
        "midi": 52,
        "time": 20,
        "duration": 1,
        "velocity": 0.77,
        "hand": "left"
      },
      {
        "midi": 59,
        "time": 20,
        "duration": 1,
        "velocity": 0.77,
        "hand": "left"
      },
      {
        "midi": 62,
        "time": 20,
        "duration": 0.985,
        "velocity": 0.77,
        "hand": "right"
      },
      {
        "midi": 68,
        "time": 20,
        "duration": 0.985,
        "velocity": 0.71,
        "hand": "right"
      },
      {
        "midi": 78,
        "time": 20,
        "duration": 1,
        "velocity": 0.71,
        "hand": "right"
      },
      {
        "midi": 62,
        "time": 21,
        "duration": 0.485,
        "velocity": 0.71,
        "hand": "right"
      },
      {
        "midi": 68,
        "time": 21,
        "duration": 0.5,
        "velocity": 0.71,
        "hand": "right"
      },
      {
        "midi": 45,
        "time": 21.5,
        "duration": 0.5,
        "velocity": 0.77,
        "hand": "left"
      },
      {
        "midi": 62,
        "time": 21.5,
        "duration": 0.375,
        "velocity": 0.71,
        "hand": "right"
      },
      {
        "midi": 71,
        "time": 21.5,
        "duration": 0.375,
        "velocity": 0.71,
        "hand": "right"
      },
      {
        "midi": 61,
        "time": 21.875,
        "duration": 0.125,
        "velocity": 0.71,
        "hand": "right"
      },
      {
        "midi": 69,
        "time": 21.875,
        "duration": 0.11,
        "velocity": 0.71,
        "hand": "right"
      },
      {
        "midi": 52,
        "time": 22,
        "duration": 0.5,
        "velocity": 0.77,
        "hand": "left"
      },
      {
        "midi": 57,
        "time": 22,
        "duration": 0.485,
        "velocity": 0.77,
        "hand": "left"
      },
      {
        "midi": 64,
        "time": 22,
        "duration": 0.485,
        "velocity": 0.77,
        "hand": "right"
      },
      {
        "midi": 69,
        "time": 22,
        "duration": 2,
        "velocity": 0.71,
        "hand": "right"
      },
      {
        "midi": 73,
        "time": 22,
        "duration": 0.485,
        "velocity": 0.71,
        "hand": "right"
      },
      {
        "midi": 81,
        "time": 22,
        "duration": 0.485,
        "velocity": 0.71,
        "hand": "right"
      },
      {
        "midi": 57,
        "time": 22.5,
        "duration": 0.485,
        "velocity": 0.77,
        "hand": "left"
      },
      {
        "midi": 64,
        "time": 22.5,
        "duration": 0.485,
        "velocity": 0.77,
        "hand": "right"
      },
      {
        "midi": 73,
        "time": 22.5,
        "duration": 0.485,
        "velocity": 0.71,
        "hand": "right"
      },
      {
        "midi": 81,
        "time": 22.5,
        "duration": 0.485,
        "velocity": 0.71,
        "hand": "right"
      },
      {
        "midi": 57,
        "time": 23,
        "duration": 1,
        "velocity": 0.77,
        "hand": "left"
      },
      {
        "midi": 64,
        "time": 23,
        "duration": 1,
        "velocity": 0.77,
        "hand": "right"
      },
      {
        "midi": 73,
        "time": 23,
        "duration": 1,
        "velocity": 0.71,
        "hand": "right"
      },
      {
        "midi": 81,
        "time": 23,
        "duration": 1,
        "velocity": 0.71,
        "hand": "right"
      }
    ]
  },
  "notes1Hand": [
    {
      "midi": 64,
      "time": 0,
      "duration": 0.5,
      "velocity": 0.71,
      "hand": "right"
    },
    {
      "midi": 74,
      "time": 0.875,
      "duration": 0.3,
      "velocity": 0.71,
      "hand": "right"
    },
    {
      "midi": 71,
      "time": 1.5,
      "duration": 0.485,
      "velocity": 0.71,
      "hand": "right"
    },
    {
      "midi": 78,
      "time": 3,
      "duration": 0.5,
      "velocity": 0.71,
      "hand": "right"
    },
    {
      "midi": 76,
      "time": 3.875,
      "duration": 0.3,
      "velocity": 0.71,
      "hand": "right"
    },
    {
      "midi": 81,
      "time": 4.5,
      "duration": 0.485,
      "velocity": 0.71,
      "hand": "right"
    },
    {
      "midi": 73,
      "time": 6,
      "duration": 0.5,
      "velocity": 0.71,
      "hand": "right"
    },
    {
      "midi": 71,
      "time": 6.875,
      "duration": 0.3,
      "velocity": 0.71,
      "hand": "right"
    },
    {
      "midi": 74,
      "time": 7.5,
      "duration": 0.485,
      "velocity": 0.71,
      "hand": "right"
    },
    {
      "midi": 68,
      "time": 9,
      "duration": 0.485,
      "velocity": 0.71,
      "hand": "right"
    },
    {
      "midi": 69,
      "time": 9.875,
      "duration": 0.3,
      "velocity": 0.71,
      "hand": "right"
    },
    {
      "midi": 73,
      "time": 10.5,
      "duration": 0.485,
      "velocity": 0.71,
      "hand": "right"
    },
    {
      "midi": 64,
      "time": 12,
      "duration": 0.985,
      "velocity": 0.71,
      "hand": "right"
    },
    {
      "midi": 74,
      "time": 12.875,
      "duration": 0.3,
      "velocity": 0.71,
      "hand": "right"
    },
    {
      "midi": 71,
      "time": 13.5,
      "duration": 0.485,
      "velocity": 0.71,
      "hand": "right"
    },
    {
      "midi": 78,
      "time": 15,
      "duration": 0.5,
      "velocity": 0.71,
      "hand": "right"
    },
    {
      "midi": 76,
      "time": 15.875,
      "duration": 1.11,
      "velocity": 0.71,
      "hand": "right"
    },
    {
      "midi": 81,
      "time": 16.5,
      "duration": 0.5,
      "velocity": 0.71,
      "hand": "right"
    },
    {
      "midi": 73,
      "time": 18,
      "duration": 0.485,
      "velocity": 0.71,
      "hand": "right"
    },
    {
      "midi": 74,
      "time": 18.875,
      "duration": 0.3,
      "velocity": 0.71,
      "hand": "right"
    },
    {
      "midi": 78,
      "time": 19.5,
      "duration": 0.485,
      "velocity": 0.71,
      "hand": "right"
    },
    {
      "midi": 68,
      "time": 21,
      "duration": 0.5,
      "velocity": 0.71,
      "hand": "right"
    },
    {
      "midi": 69,
      "time": 21.875,
      "duration": 0.3,
      "velocity": 0.71,
      "hand": "right"
    },
    {
      "midi": 81,
      "time": 22.5,
      "duration": 0.485,
      "velocity": 0.71,
      "hand": "right"
    }
  ],
  "notes2Hands": [
    {
      "midi": 64,
      "time": 0,
      "duration": 0.5,
      "velocity": 0.71,
      "hand": "right"
    },
    {
      "midi": 40,
      "time": 0.5,
      "duration": 0.5,
      "velocity": 0.54,
      "hand": "left"
    },
    {
      "midi": 73,
      "time": 0.5,
      "duration": 0.375,
      "velocity": 0.71,
      "hand": "right"
    },
    {
      "midi": 74,
      "time": 0.875,
      "duration": 0.125,
      "velocity": 0.71,
      "hand": "right"
    },
    {
      "midi": 52,
      "time": 1,
      "duration": 0.485,
      "velocity": 0.54,
      "hand": "left"
    },
    {
      "midi": 62,
      "time": 1,
      "duration": 0.485,
      "velocity": 0.71,
      "hand": "right"
    },
    {
      "midi": 64,
      "time": 1,
      "duration": 0.485,
      "velocity": 0.54,
      "hand": "right"
    },
    {
      "midi": 68,
      "time": 1,
      "duration": 0.485,
      "velocity": 0.71,
      "hand": "right"
    },
    {
      "midi": 71,
      "time": 1,
      "duration": 0.485,
      "velocity": 0.71,
      "hand": "right"
    },
    {
      "midi": 52,
      "time": 1.5,
      "duration": 0.485,
      "velocity": 0.54,
      "hand": "left"
    },
    {
      "midi": 62,
      "time": 1.5,
      "duration": 0.485,
      "velocity": 0.71,
      "hand": "right"
    },
    {
      "midi": 64,
      "time": 1.5,
      "duration": 0.485,
      "velocity": 0.54,
      "hand": "right"
    },
    {
      "midi": 68,
      "time": 1.5,
      "duration": 0.485,
      "velocity": 0.71,
      "hand": "right"
    },
    {
      "midi": 71,
      "time": 1.5,
      "duration": 0.485,
      "velocity": 0.71,
      "hand": "right"
    },
    {
      "midi": 52,
      "time": 2,
      "duration": 1,
      "velocity": 0.54,
      "hand": "left"
    },
    {
      "midi": 62,
      "time": 2,
      "duration": 1,
      "velocity": 0.71,
      "hand": "right"
    },
    {
      "midi": 64,
      "time": 2,
      "duration": 1,
      "velocity": 0.54,
      "hand": "right"
    },
    {
      "midi": 68,
      "time": 2,
      "duration": 1,
      "velocity": 0.71,
      "hand": "right"
    },
    {
      "midi": 71,
      "time": 2,
      "duration": 1,
      "velocity": 0.71,
      "hand": "right"
    },
    {
      "midi": 74,
      "time": 3,
      "duration": 0.5,
      "velocity": 0.71,
      "hand": "right"
    },
    {
      "midi": 78,
      "time": 3,
      "duration": 0.5,
      "velocity": 0.71,
      "hand": "right"
    },
    {
      "midi": 45,
      "time": 3.5,
      "duration": 0.5,
      "velocity": 0.54,
      "hand": "left"
    },
    {
      "midi": 72,
      "time": 3.5,
      "duration": 0.375,
      "velocity": 0.71,
      "hand": "right"
    },
    {
      "midi": 75,
      "time": 3.5,
      "duration": 0.375,
      "velocity": 0.71,
      "hand": "right"
    },
    {
      "midi": 73,
      "time": 3.875,
      "duration": 0.11,
      "velocity": 0.71,
      "hand": "right"
    },
    {
      "midi": 76,
      "time": 3.875,
      "duration": 0.125,
      "velocity": 0.71,
      "hand": "right"
    },
    {
      "midi": 57,
      "time": 4,
      "duration": 0.485,
      "velocity": 0.54,
      "hand": "left"
    },
    {
      "midi": 64,
      "time": 4,
      "duration": 0.485,
      "velocity": 0.54,
      "hand": "right"
    },
    {
      "midi": 73,
      "time": 4,
      "duration": 0.485,
      "velocity": 0.71,
      "hand": "right"
    },
    {
      "midi": 81,
      "time": 4,
      "duration": 0.485,
      "velocity": 0.71,
      "hand": "right"
    },
    {
      "midi": 57,
      "time": 4.5,
      "duration": 0.485,
      "velocity": 0.54,
      "hand": "left"
    },
    {
      "midi": 64,
      "time": 4.5,
      "duration": 0.485,
      "velocity": 0.54,
      "hand": "right"
    },
    {
      "midi": 73,
      "time": 4.5,
      "duration": 0.485,
      "velocity": 0.71,
      "hand": "right"
    },
    {
      "midi": 81,
      "time": 4.5,
      "duration": 0.485,
      "velocity": 0.71,
      "hand": "right"
    },
    {
      "midi": 57,
      "time": 5,
      "duration": 1,
      "velocity": 0.54,
      "hand": "left"
    },
    {
      "midi": 64,
      "time": 5,
      "duration": 0.985,
      "velocity": 0.54,
      "hand": "right"
    },
    {
      "midi": 73,
      "time": 5,
      "duration": 0.985,
      "velocity": 0.71,
      "hand": "right"
    },
    {
      "midi": 81,
      "time": 5,
      "duration": 1,
      "velocity": 0.71,
      "hand": "right"
    },
    {
      "midi": 64,
      "time": 6,
      "duration": 0.5,
      "velocity": 0.71,
      "hand": "right"
    },
    {
      "midi": 73,
      "time": 6,
      "duration": 0.5,
      "velocity": 0.71,
      "hand": "right"
    },
    {
      "midi": 40,
      "time": 6.5,
      "duration": 0.5,
      "velocity": 0.54,
      "hand": "left"
    },
    {
      "midi": 61,
      "time": 6.5,
      "duration": 0.375,
      "velocity": 0.71,
      "hand": "right"
    },
    {
      "midi": 70,
      "time": 6.5,
      "duration": 0.375,
      "velocity": 0.71,
      "hand": "right"
    },
    {
      "midi": 62,
      "time": 6.875,
      "duration": 2.11,
      "velocity": 0.71,
      "hand": "right"
    },
    {
      "midi": 71,
      "time": 6.875,
      "duration": 0.125,
      "velocity": 0.71,
      "hand": "right"
    },
    {
      "midi": 52,
      "time": 7,
      "duration": 0.485,
      "velocity": 0.54,
      "hand": "left"
    },
    {
      "midi": 59,
      "time": 7,
      "duration": 0.485,
      "velocity": 0.54,
      "hand": "left"
    },
    {
      "midi": 66,
      "time": 7,
      "duration": 0.485,
      "velocity": 0.71,
      "hand": "right"
    },
    {
      "midi": 74,
      "time": 7,
      "duration": 0.485,
      "velocity": 0.71,
      "hand": "right"
    },
    {
      "midi": 52,
      "time": 7.5,
      "duration": 0.485,
      "velocity": 0.54,
      "hand": "left"
    },
    {
      "midi": 59,
      "time": 7.5,
      "duration": 0.485,
      "velocity": 0.54,
      "hand": "left"
    },
    {
      "midi": 66,
      "time": 7.5,
      "duration": 0.485,
      "velocity": 0.71,
      "hand": "right"
    },
    {
      "midi": 74,
      "time": 7.5,
      "duration": 0.485,
      "velocity": 0.71,
      "hand": "right"
    },
    {
      "midi": 52,
      "time": 8,
      "duration": 1,
      "velocity": 0.54,
      "hand": "left"
    },
    {
      "midi": 59,
      "time": 8,
      "duration": 1,
      "velocity": 0.54,
      "hand": "left"
    },
    {
      "midi": 66,
      "time": 8,
      "duration": 1,
      "velocity": 0.71,
      "hand": "right"
    },
    {
      "midi": 74,
      "time": 8,
      "duration": 1,
      "velocity": 0.71,
      "hand": "right"
    },
    {
      "midi": 62,
      "time": 9,
      "duration": 0.485,
      "velocity": 0.71,
      "hand": "right"
    },
    {
      "midi": 68,
      "time": 9,
      "duration": 0.485,
      "velocity": 0.71,
      "hand": "right"
    },
    {
      "midi": 45,
      "time": 9.5,
      "duration": 0.5,
      "velocity": 0.54,
      "hand": "left"
    },
    {
      "midi": 62,
      "time": 9.5,
      "duration": 0.375,
      "velocity": 0.71,
      "hand": "right"
    },
    {
      "midi": 68,
      "time": 9.5,
      "duration": 0.375,
      "velocity": 0.71,
      "hand": "right"
    },
    {
      "midi": 61,
      "time": 9.875,
      "duration": 0.11,
      "velocity": 0.71,
      "hand": "right"
    },
    {
      "midi": 69,
      "time": 9.875,
      "duration": 0.125,
      "velocity": 0.71,
      "hand": "right"
    },
    {
      "midi": 52,
      "time": 10,
      "duration": 0.485,
      "velocity": 0.54,
      "hand": "left"
    },
    {
      "midi": 57,
      "time": 10,
      "duration": 0.485,
      "velocity": 0.54,
      "hand": "left"
    },
    {
      "midi": 61,
      "time": 10,
      "duration": 0.485,
      "velocity": 0.71,
      "hand": "right"
    },
    {
      "midi": 64,
      "time": 10,
      "duration": 0.485,
      "velocity": 0.54,
      "hand": "right"
    },
    {
      "midi": 73,
      "time": 10,
      "duration": 0.485,
      "velocity": 0.71,
      "hand": "right"
    },
    {
      "midi": 52,
      "time": 10.5,
      "duration": 0.485,
      "velocity": 0.54,
      "hand": "left"
    },
    {
      "midi": 57,
      "time": 10.5,
      "duration": 0.485,
      "velocity": 0.54,
      "hand": "left"
    },
    {
      "midi": 61,
      "time": 10.5,
      "duration": 0.485,
      "velocity": 0.71,
      "hand": "right"
    },
    {
      "midi": 64,
      "time": 10.5,
      "duration": 0.485,
      "velocity": 0.54,
      "hand": "right"
    },
    {
      "midi": 73,
      "time": 10.5,
      "duration": 0.485,
      "velocity": 0.71,
      "hand": "right"
    },
    {
      "midi": 52,
      "time": 11,
      "duration": 1,
      "velocity": 0.54,
      "hand": "left"
    },
    {
      "midi": 57,
      "time": 11,
      "duration": 1,
      "velocity": 0.54,
      "hand": "left"
    },
    {
      "midi": 61,
      "time": 11,
      "duration": 1,
      "velocity": 0.71,
      "hand": "right"
    },
    {
      "midi": 64,
      "time": 11,
      "duration": 0.985,
      "velocity": 0.54,
      "hand": "right"
    },
    {
      "midi": 73,
      "time": 11,
      "duration": 1,
      "velocity": 0.71,
      "hand": "right"
    },
    {
      "midi": 64,
      "time": 12,
      "duration": 0.985,
      "velocity": 0.71,
      "hand": "right"
    },
    {
      "midi": 40,
      "time": 12.5,
      "duration": 0.5,
      "velocity": 0.54,
      "hand": "left"
    },
    {
      "midi": 68,
      "time": 12.5,
      "duration": 0.485,
      "velocity": 0.71,
      "hand": "right"
    },
    {
      "midi": 73,
      "time": 12.5,
      "duration": 0.375,
      "velocity": 0.71,
      "hand": "right"
    },
    {
      "midi": 74,
      "time": 12.875,
      "duration": 0.125,
      "velocity": 0.71,
      "hand": "right"
    },
    {
      "midi": 52,
      "time": 13,
      "duration": 0.485,
      "velocity": 0.54,
      "hand": "left"
    },
    {
      "midi": 62,
      "time": 13,
      "duration": 0.485,
      "velocity": 0.71,
      "hand": "right"
    },
    {
      "midi": 64,
      "time": 13,
      "duration": 0.485,
      "velocity": 0.54,
      "hand": "right"
    },
    {
      "midi": 68,
      "time": 13,
      "duration": 0.485,
      "velocity": 0.71,
      "hand": "right"
    },
    {
      "midi": 71,
      "time": 13,
      "duration": 0.485,
      "velocity": 0.71,
      "hand": "right"
    },
    {
      "midi": 52,
      "time": 13.5,
      "duration": 0.485,
      "velocity": 0.54,
      "hand": "left"
    },
    {
      "midi": 62,
      "time": 13.5,
      "duration": 0.485,
      "velocity": 0.71,
      "hand": "right"
    },
    {
      "midi": 64,
      "time": 13.5,
      "duration": 0.485,
      "velocity": 0.54,
      "hand": "right"
    },
    {
      "midi": 68,
      "time": 13.5,
      "duration": 0.485,
      "velocity": 0.71,
      "hand": "right"
    },
    {
      "midi": 71,
      "time": 13.5,
      "duration": 0.485,
      "velocity": 0.71,
      "hand": "right"
    },
    {
      "midi": 52,
      "time": 14,
      "duration": 1,
      "velocity": 0.54,
      "hand": "left"
    },
    {
      "midi": 62,
      "time": 14,
      "duration": 1,
      "velocity": 0.71,
      "hand": "right"
    },
    {
      "midi": 64,
      "time": 14,
      "duration": 1,
      "velocity": 0.54,
      "hand": "right"
    },
    {
      "midi": 68,
      "time": 14,
      "duration": 1,
      "velocity": 0.71,
      "hand": "right"
    },
    {
      "midi": 71,
      "time": 14,
      "duration": 1,
      "velocity": 0.71,
      "hand": "right"
    },
    {
      "midi": 74,
      "time": 15,
      "duration": 0.5,
      "velocity": 0.71,
      "hand": "right"
    },
    {
      "midi": 78,
      "time": 15,
      "duration": 0.5,
      "velocity": 0.71,
      "hand": "right"
    },
    {
      "midi": 45,
      "time": 15.5,
      "duration": 0.5,
      "velocity": 0.54,
      "hand": "left"
    },
    {
      "midi": 72,
      "time": 15.5,
      "duration": 0.375,
      "velocity": 0.71,
      "hand": "right"
    },
    {
      "midi": 75,
      "time": 15.5,
      "duration": 0.375,
      "velocity": 0.71,
      "hand": "right"
    },
    {
      "midi": 73,
      "time": 15.875,
      "duration": 0.11,
      "velocity": 0.71,
      "hand": "right"
    },
    {
      "midi": 76,
      "time": 15.875,
      "duration": 1.11,
      "velocity": 0.71,
      "hand": "right"
    },
    {
      "midi": 57,
      "time": 16,
      "duration": 0.485,
      "velocity": 0.62,
      "hand": "left"
    },
    {
      "midi": 64,
      "time": 16,
      "duration": 0.485,
      "velocity": 0.62,
      "hand": "right"
    },
    {
      "midi": 69,
      "time": 16,
      "duration": 0.485,
      "velocity": 0.62,
      "hand": "right"
    },
    {
      "midi": 73,
      "time": 16,
      "duration": 0.485,
      "velocity": 0.71,
      "hand": "right"
    },
    {
      "midi": 81,
      "time": 16,
      "duration": 0.485,
      "velocity": 0.71,
      "hand": "right"
    },
    {
      "midi": 57,
      "time": 16.5,
      "duration": 0.5,
      "velocity": 0.69,
      "hand": "left"
    },
    {
      "midi": 64,
      "time": 16.5,
      "duration": 0.485,
      "velocity": 0.69,
      "hand": "right"
    },
    {
      "midi": 69,
      "time": 16.5,
      "duration": 0.5,
      "velocity": 0.69,
      "hand": "right"
    },
    {
      "midi": 73,
      "time": 16.5,
      "duration": 0.485,
      "velocity": 0.71,
      "hand": "right"
    },
    {
      "midi": 81,
      "time": 16.5,
      "duration": 0.5,
      "velocity": 0.71,
      "hand": "right"
    },
    {
      "midi": 54,
      "time": 17,
      "duration": 1,
      "velocity": 0.77,
      "hand": "left"
    },
    {
      "midi": 70,
      "time": 17,
      "duration": 0.985,
      "velocity": 0.71,
      "hand": "right"
    },
    {
      "midi": 73,
      "time": 17,
      "duration": 0.985,
      "velocity": 0.71,
      "hand": "right"
    },
    {
      "midi": 76,
      "time": 17,
      "duration": 1,
      "velocity": 0.71,
      "hand": "right"
    },
    {
      "midi": 82,
      "time": 17,
      "duration": 1,
      "velocity": 0.71,
      "hand": "right"
    },
    {
      "midi": 70,
      "time": 18,
      "duration": 0.485,
      "velocity": 0.71,
      "hand": "right"
    },
    {
      "midi": 73,
      "time": 18,
      "duration": 0.485,
      "velocity": 0.71,
      "hand": "right"
    },
    {
      "midi": 47,
      "time": 18.5,
      "duration": 0.5,
      "velocity": 0.77,
      "hand": "left"
    },
    {
      "midi": 70,
      "time": 18.5,
      "duration": 0.375,
      "velocity": 0.71,
      "hand": "right"
    },
    {
      "midi": 73,
      "time": 18.5,
      "duration": 0.375,
      "velocity": 0.71,
      "hand": "right"
    },
    {
      "midi": 71,
      "time": 18.875,
      "duration": 0.11,
      "velocity": 0.71,
      "hand": "right"
    },
    {
      "midi": 74,
      "time": 18.875,
      "duration": 0.125,
      "velocity": 0.71,
      "hand": "right"
    },
    {
      "midi": 54,
      "time": 19,
      "duration": 0.485,
      "velocity": 0.77,
      "hand": "left"
    },
    {
      "midi": 62,
      "time": 19,
      "duration": 0.485,
      "velocity": 0.77,
      "hand": "right"
    },
    {
      "midi": 71,
      "time": 19,
      "duration": 0.5,
      "velocity": 0.71,
      "hand": "right"
    },
    {
      "midi": 78,
      "time": 19,
      "duration": 0.485,
      "velocity": 0.71,
      "hand": "right"
    },
    {
      "midi": 54,
      "time": 19.5,
      "duration": 0.5,
      "velocity": 0.77,
      "hand": "left"
    },
    {
      "midi": 59,
      "time": 19.5,
      "duration": 0.485,
      "velocity": 0.77,
      "hand": "left"
    },
    {
      "midi": 62,
      "time": 19.5,
      "duration": 0.485,
      "velocity": 0.77,
      "hand": "right"
    },
    {
      "midi": 69,
      "time": 19.5,
      "duration": 0.5,
      "velocity": 0.71,
      "hand": "right"
    },
    {
      "midi": 78,
      "time": 19.5,
      "duration": 0.485,
      "velocity": 0.71,
      "hand": "right"
    },
    {
      "midi": 52,
      "time": 20,
      "duration": 1,
      "velocity": 0.77,
      "hand": "left"
    },
    {
      "midi": 59,
      "time": 20,
      "duration": 1,
      "velocity": 0.77,
      "hand": "left"
    },
    {
      "midi": 62,
      "time": 20,
      "duration": 0.985,
      "velocity": 0.77,
      "hand": "right"
    },
    {
      "midi": 68,
      "time": 20,
      "duration": 0.985,
      "velocity": 0.71,
      "hand": "right"
    },
    {
      "midi": 78,
      "time": 20,
      "duration": 1,
      "velocity": 0.71,
      "hand": "right"
    },
    {
      "midi": 62,
      "time": 21,
      "duration": 0.485,
      "velocity": 0.71,
      "hand": "right"
    },
    {
      "midi": 68,
      "time": 21,
      "duration": 0.5,
      "velocity": 0.71,
      "hand": "right"
    },
    {
      "midi": 45,
      "time": 21.5,
      "duration": 0.5,
      "velocity": 0.77,
      "hand": "left"
    },
    {
      "midi": 62,
      "time": 21.5,
      "duration": 0.375,
      "velocity": 0.71,
      "hand": "right"
    },
    {
      "midi": 71,
      "time": 21.5,
      "duration": 0.375,
      "velocity": 0.71,
      "hand": "right"
    },
    {
      "midi": 61,
      "time": 21.875,
      "duration": 0.125,
      "velocity": 0.71,
      "hand": "right"
    },
    {
      "midi": 69,
      "time": 21.875,
      "duration": 0.11,
      "velocity": 0.71,
      "hand": "right"
    },
    {
      "midi": 52,
      "time": 22,
      "duration": 0.5,
      "velocity": 0.77,
      "hand": "left"
    },
    {
      "midi": 57,
      "time": 22,
      "duration": 0.485,
      "velocity": 0.77,
      "hand": "left"
    },
    {
      "midi": 64,
      "time": 22,
      "duration": 0.485,
      "velocity": 0.77,
      "hand": "right"
    },
    {
      "midi": 69,
      "time": 22,
      "duration": 2,
      "velocity": 0.71,
      "hand": "right"
    },
    {
      "midi": 73,
      "time": 22,
      "duration": 0.485,
      "velocity": 0.71,
      "hand": "right"
    },
    {
      "midi": 81,
      "time": 22,
      "duration": 0.485,
      "velocity": 0.71,
      "hand": "right"
    },
    {
      "midi": 57,
      "time": 22.5,
      "duration": 0.485,
      "velocity": 0.77,
      "hand": "left"
    },
    {
      "midi": 64,
      "time": 22.5,
      "duration": 0.485,
      "velocity": 0.77,
      "hand": "right"
    },
    {
      "midi": 73,
      "time": 22.5,
      "duration": 0.485,
      "velocity": 0.71,
      "hand": "right"
    },
    {
      "midi": 81,
      "time": 22.5,
      "duration": 0.485,
      "velocity": 0.71,
      "hand": "right"
    },
    {
      "midi": 57,
      "time": 23,
      "duration": 1,
      "velocity": 0.77,
      "hand": "left"
    },
    {
      "midi": 64,
      "time": 23,
      "duration": 1,
      "velocity": 0.77,
      "hand": "right"
    },
    {
      "midi": 73,
      "time": 23,
      "duration": 1,
      "velocity": 0.71,
      "hand": "right"
    },
    {
      "midi": 81,
      "time": 23,
      "duration": 1,
      "velocity": 0.71,
      "hand": "right"
    }
  ]
}
