{
  "id": "preludio-n-15-chopin",
  "title": "Prelúdio nº 15",
  "artist": "Frédéric Chopin",
  "difficulty": "Difícil",
  "bpm": 80,
  "duration": 267,
  "category": "Clássicos",
  "isPremium": true,
  "coverUrl": "/images/covers/placeholder.png",
  "notes": [
    {
      "midi": 49,
      "time": 0,
      "duration": 0.375,
      "velocity": 0.71,
      "hand": "left"
    },
    {
      "midi": 77,
      "time": 0,
      "duration": 0.563,
      "velocity": 0.71,
      "hand": "right"
    },
    {
      "midi": 56,
      "time": 0.375,
      "duration": 0.375,
      "velocity": 0.71,
      "hand": "left"
    },
    {
      "midi": 73,
      "time": 0.563,
      "duration": 0.188,
      "velocity": 0.71,
      "hand": "right"
    },
    {
      "midi": 61,
      "time": 0.75,
      "duration": 1.5,
      "velocity": 0.71,
      "hand": "right"
    },
    {
      "midi": 65,
      "time": 0.75,
      "duration": 1.5,
      "velocity": 0.71,
      "hand": "right"
    },
    {
      "midi": 68,
      "time": 0.75,
      "duration": 1.5,
      "velocity": 0.71,
      "hand": "right"
    },
    {
      "midi": 56,
      "time": 1.125,
      "duration": 0.375,
      "velocity": 0.71,
      "hand": "left"
    },
    {
      "midi": 56,
      "time": 1.5,
      "duration": 0.375,
      "velocity": 0.71,
      "hand": "left"
    },
    {
      "midi": 56,
      "time": 1.875,
      "duration": 0.375,
      "velocity": 0.71,
      "hand": "left"
    },
    {
      "midi": 61,
      "time": 2.25,
      "duration": 0.375,
      "velocity": 0.71,
      "hand": "right"
    },
    {
      "midi": 65,
      "time": 2.25,
      "duration": 0.375,
      "velocity": 0.71,
      "hand": "right"
    },
    {
      "midi": 70,
      "time": 2.25,
      "duration": 0.75,
      "velocity": 0.71,
      "hand": "right"
    },
    {
      "midi": 56,
      "time": 2.625,
      "duration": 0.375,
      "velocity": 0.71,
      "hand": "left"
    },
    {
      "midi": 63,
      "time": 3,
      "duration": 2.25,
      "velocity": 0.71,
      "hand": "right"
    },
    {
      "midi": 66,
      "time": 3,
      "duration": 2.25,
      "velocity": 0.71,
      "hand": "right"
    },
    {
      "midi": 72,
      "time": 3,
      "duration": 2.25,
      "velocity": 0.71,
      "hand": "right"
    },
    {
      "midi": 56,
      "time": 3.375,
      "duration": 0.375,
      "velocity": 0.71,
      "hand": "left"
    },
    {
      "midi": 56,
      "time": 3.75,
      "duration": 0.375,
      "velocity": 0.71,
      "hand": "left"
    },
    {
      "midi": 56,
      "time": 4.125,
      "duration": 0.375,
      "velocity": 0.71,
      "hand": "left"
    },
    {
      "midi": 58,
      "time": 4.5,
      "duration": 0.375,
      "velocity": 0.71,
      "hand": "left"
    },
    {
      "midi": 56,
      "time": 4.875,
      "duration": 0.375,
      "velocity": 0.71,
      "hand": "left"
    },
    {
      "midi": 61,
      "time": 5.25,
      "duration": 0.375,
      "velocity": 0.71,
      "hand": "right"
    },
    {
      "midi": 65,
      "time": 5.25,
      "duration": 0.375,
      "velocity": 0.71,
      "hand": "right"
    },
    {
      "midi": 73,
      "time": 5.25,
      "duration": 0.75,
      "velocity": 0.71,
      "hand": "right"
    },
    {
      "midi": 56,
      "time": 5.625,
      "duration": 0.375,
      "velocity": 0.71,
      "hand": "left"
    },
    {
      "midi": 60,
      "time": 6,
      "duration": 2.25,
      "velocity": 0.71,
      "hand": "right"
    },
    {
      "midi": 66,
      "time": 6,
      "duration": 0.375,
      "velocity": 0.71,
      "hand": "right"
    },
    {
      "midi": 75,
      "time": 6,
      "duration": 0.563,
      "velocity": 0.71,
      "hand": "right"
    },
    {
      "midi": 56,
      "time": 6.375,
      "duration": 0.75,
      "velocity": 0.71,
      "hand": "left"
    },
    {
      "midi": 68,
      "time": 6.563,
      "duration": 0.188,
      "velocity": 0.71,
      "hand": "right"
    },
    {
      "midi": 77,
      "time": 6.563,
      "duration": 0.188,
      "velocity": 0.71,
      "hand": "right"
    },
    {
      "midi": 70,
      "time": 6.75,
      "duration": 1.5,
      "velocity": 0.71,
      "hand": "right"
    },
    {
      "midi": 78,
      "time": 6.75,
      "duration": 1.5,
      "velocity": 0.71,
      "hand": "right"
    },
    {
      "midi": 56,
      "time": 7.125,
      "duration": 0.375,
      "velocity": 0.71,
      "hand": "left"
    },
    {
      "midi": 56,
      "time": 7.5,
      "duration": 0.375,
      "velocity": 0.71,
      "hand": "left"
    },
    {
      "midi": 56,
      "time": 7.875,
      "duration": 0.75,
      "velocity": 0.71,
      "hand": "left"
    },
    {
      "midi": 61,
      "time": 8.25,
      "duration": 0.375,
      "velocity": 0.71,
      "hand": "right"
    },
    {
      "midi": 68,
      "time": 8.25,
      "duration": 0.375,
      "velocity": 0.71,
      "hand": "right"
    },
    {
      "midi": 77,
      "time": 8.25,
      "duration": 0.75,
      "velocity": 0.71,
      "hand": "right"
    },
    {
      "midi": 56,
      "time": 8.625,
      "duration": 0.375,
      "velocity": 0.71,
      "hand": "left"
    },
    {
      "midi": 60,
      "time": 9,
      "duration": 1.5,
      "velocity": 0.71,
      "hand": "right"
    },
    {
      "midi": 68,
      "time": 9,
      "duration": 0.375,
      "velocity": 0.71,
      "hand": "right"
    },
    {
      "midi": 77,
      "time": 9,
      "duration": 1.125,
      "velocity": 0.71,
      "hand": "right"
    },
    {
      "midi": 56,
      "time": 9.375,
      "duration": 0.375,
      "velocity": 0.71,
      "hand": "left"
    },
    {
      "midi": 66,
      "time": 9.75,
      "duration": 0.375,
      "velocity": 0.71,
      "hand": "right"
    },
    {
      "midi": 56,
      "time": 10.125,
      "duration": 0.375,
      "velocity": 0.71,
      "hand": "left"
    },
    {
      "midi": 75,
      "time": 10.125,
      "duration": 0.375,
      "velocity": 0.71,
      "hand": "right"
    },
    {
      "midi": 61,
      "time": 10.5,
      "duration": 0.375,
      "velocity": 0.71,
      "hand": "right"
    },
    {
      "midi": 65,
      "time": 10.5,
      "duration": 0.375,
      "velocity": 0.71,
      "hand": "right"
    },
    {
      "midi": 73,
      "time": 10.5,
      "duration": 0.75,
      "velocity": 0.71,
      "hand": "right"
    },
    {
      "midi": 56,
      "time": 10.875,
      "duration": 0.375,
      "velocity": 0.71,
      "hand": "left"
    },
    {
      "midi": 60,
      "time": 11.25,
      "duration": 0.375,
      "velocity": 0.71,
      "hand": "right"
    },
    {
      "midi": 66,
      "time": 11.25,
      "duration": 0.375,
      "velocity": 0.71,
      "hand": "right"
    },
    {
      "midi": 75,
      "time": 11.25,
      "duration": 0.094,
      "velocity": 0.71,
      "hand": "right"
    },
    {
      "midi": 75,
      "time": 11.25,
      "duration": 0.188,
      "velocity": 0.71,
      "hand": "right"
    },
    {
      "midi": 75,
      "time": 11.438,
      "duration": 0.188,
      "velocity": 0.71,
      "hand": "right"
    },
    {
      "midi": 77,
      "time": 11.438,
      "duration": 0.188,
      "velocity": 0.71,
      "hand": "right"
    },
    {
      "midi": 56,
      "time": 11.625,
      "duration": 0.375,
      "velocity": 0.71,
      "hand": "left"
    },
    {
      "midi": 74,
      "time": 11.625,
      "duration": 0.188,
      "velocity": 0.71,
      "hand": "right"
    },
    {
      "midi": 75,
      "time": 11.625,
      "duration": 0.188,
      "velocity": 0.71,
      "hand": "right"
    },
    {
      "midi": 77,
      "time": 11.813,
      "duration": 0.188,
      "velocity": 0.71,
      "hand": "right"
    },
    {
      "midi": 78,
      "time": 11.813,
      "duration": 0.188,
      "velocity": 0.71,
      "hand": "right"
    },
    {
      "midi": 49,
      "time": 12,
      "duration": 0.375,
      "velocity": 0.71,
      "hand": "left"
    },
    {
      "midi": 77,
      "time": 12,
      "duration": 0.563,
      "velocity": 0.71,
      "hand": "right"
    },
    {
      "midi": 56,
      "time": 12.375,
      "duration": 0.375,
      "velocity": 0.71,
      "hand": "left"
    },
    {
      "midi": 73,
      "time": 12.563,
      "duration": 0.188,
      "velocity": 0.71,
      "hand": "right"
    },
    {
      "midi": 61,
      "time": 12.75,
      "duration": 2.25,
      "velocity": 0.71,
      "hand": "right"
    },
    {
      "midi": 65,
      "time": 12.75,
      "duration": 2.25,
      "velocity": 0.71,
      "hand": "right"
    },
    {
      "midi": 68,
      "time": 12.75,
      "duration": 1.5,
      "velocity": 0.71,
      "hand": "right"
    },
    {
      "midi": 56,
      "time": 13.125,
      "duration": 0.375,
      "velocity": 0.71,
      "hand": "left"
    },
    {
      "midi": 56,
      "time": 13.5,
      "duration": 0.375,
      "velocity": 0.71,
      "hand": "left"
    },
    {
      "midi": 56,
      "time": 13.875,
      "duration": 0.375,
      "velocity": 0.71,
      "hand": "left"
    },
    {
      "midi": 56,
      "time": 14.25,
      "duration": 0.375,
      "velocity": 0.71,
      "hand": "left"
    },
    {
      "midi": 70,
      "time": 14.25,
      "duration": 0.75,
      "velocity": 0.71,
      "hand": "right"
    },
    {
      "midi": 56,
      "time": 14.625,
      "duration": 0.375,
      "velocity": 0.71,
      "hand": "left"
    },
    {
      "midi": 63,
      "time": 15,
      "duration": 2.25,
      "velocity": 0.71,
      "hand": "right"
    },
    {
      "midi": 66,
      "time": 15,
      "duration": 2.25,
      "velocity": 0.71,
      "hand": "right"
    },
    {
      "midi": 72,
      "time": 15,
      "duration": 2.25,
      "velocity": 0.71,
      "hand": "right"
    },
    {
      "midi": 56,
      "time": 15.375,
      "duration": 0.375,
      "velocity": 0.71,
      "hand": "left"
    },
    {
      "midi": 56,
      "time": 15.75,
      "duration": 0.375,
      "velocity": 0.71,
      "hand": "left"
    },
    {
      "midi": 56,
      "time": 16.125,
      "duration": 0.375,
      "velocity": 0.71,
      "hand": "left"
    },
    {
      "midi": 58,
      "time": 16.5,
      "duration": 0.375,
      "velocity": 0.71,
      "hand": "left"
    },
    {
      "midi": 56,
      "time": 16.875,
      "duration": 0.375,
      "velocity": 0.71,
      "hand": "left"
    },
    {
      "midi": 61,
      "time": 17.25,
      "duration": 0.375,
      "velocity": 0.71,
      "hand": "right"
    },
    {
      "midi": 65,
      "time": 17.25,
      "duration": 0.375,
      "velocity": 0.71,
      "hand": "right"
    },
    {
      "midi": 73,
      "time": 17.25,
      "duration": 0.75,
      "velocity": 0.71,
      "hand": "right"
    },
    {
      "midi": 56,
      "time": 17.625,
      "duration": 0.375,
      "velocity": 0.71,
      "hand": "left"
    },
    {
      "midi": 60,
      "time": 18,
      "duration": 2.25,
      "velocity": 0.71,
      "hand": "right"
    },
    {
      "midi": 66,
      "time": 18,
      "duration": 0.375,
      "velocity": 0.71,
      "hand": "right"
    },
    {
      "midi": 75,
      "time": 18,
      "duration": 0.563,
      "velocity": 0.71,
      "hand": "right"
    },
    {
      "midi": 56,
      "time": 18.375,
      "duration": 0.75,
      "velocity": 0.71,
      "hand": "left"
    },
    {
      "midi": 68,
      "time": 18.563,
      "duration": 0.188,
      "velocity": 0.71,
      "hand": "right"
    },
    {
      "midi": 77,
      "time": 18.563,
      "duration": 0.188,
      "velocity": 0.71,
      "hand": "right"
    },
    {
      "midi": 70,
      "time": 18.75,
      "duration": 1.5,
      "velocity": 0.71,
      "hand": "right"
    },
    {
      "midi": 78,
      "time": 18.75,
      "duration": 1.5,
      "velocity": 0.71,
      "hand": "right"
    },
    {
      "midi": 56,
      "time": 19.125,
      "duration": 0.375,
      "velocity": 0.71,
      "hand": "left"
    },
    {
      "midi": 56,
      "time": 19.5,
      "duration": 0.375,
      "velocity": 0.71,
      "hand": "left"
    },
    {
      "midi": 56,
      "time": 19.875,
      "duration": 0.75,
      "velocity": 0.71,
      "hand": "left"
    },
    {
      "midi": 61,
      "time": 20.25,
      "duration": 0.375,
      "velocity": 0.71,
      "hand": "right"
    },
    {
      "midi": 68,
      "time": 20.25,
      "duration": 0.375,
      "velocity": 0.71,
      "hand": "right"
    },
    {
      "midi": 77,
      "time": 20.25,
      "duration": 0.75,
      "velocity": 0.71,
      "hand": "right"
    },
    {
      "midi": 56,
      "time": 20.625,
      "duration": 0.375,
      "velocity": 0.71,
      "hand": "left"
    },
    {
      "midi": 60,
      "time": 21,
      "duration": 1.5,
      "velocity": 0.71,
      "hand": "right"
    },
    {
      "midi": 68,
      "time": 21,
      "duration": 0.375,
      "velocity": 0.71,
      "hand": "right"
    },
    {
      "midi": 77,
      "time": 21,
      "duration": 1.125,
      "velocity": 0.71,
      "hand": "right"
    },
    {
      "midi": 56,
      "time": 21.375,
      "duration": 0.375,
      "velocity": 0.71,
      "hand": "left"
    },
    {
      "midi": 63,
      "time": 21.75,
      "duration": 0.375,
      "velocity": 0.71,
      "hand": "right"
    },
    {
      "midi": 56,
      "time": 22.125,
      "duration": 0.375,
      "velocity": 0.71,
      "hand": "left"
    },
    {
      "midi": 75,
      "time": 22.125,
      "duration": 0.375,
      "velocity": 0.71,
      "hand": "right"
    },
    {
      "midi": 61,
      "time": 22.5,
      "duration": 0.375,
      "velocity": 0.71,
      "hand": "right"
    },
    {
      "midi": 65,
      "time": 22.5,
      "duration": 0.375,
      "velocity": 0.71,
      "hand": "right"
    },
    {
      "midi": 73,
      "time": 22.5,
      "duration": 0.75,
      "velocity": 0.71,
      "hand": "right"
    },
    {
      "midi": 56,
      "time": 22.875,
      "duration": 0.375,
      "velocity": 0.71,
      "hand": "left"
    },
    {
      "midi": 61,
      "time": 23.25,
      "duration": 0.375,
      "velocity": 0.71,
      "hand": "right"
    },
    {
      "midi": 65,
      "time": 23.25,
      "duration": 0.375,
      "velocity": 0.71,
      "hand": "right"
    },
    {
      "midi": 72,
      "time": 23.25,
      "duration": 0.375,
      "velocity": 0.71,
      "hand": "right"
    },
    {
      "midi": 56,
      "time": 23.625,
      "duration": 0.375,
      "velocity": 0.71,
      "hand": "left"
    },
    {
      "midi": 73,
      "time": 23.625,
      "duration": 0.375,
      "velocity": 0.71,
      "hand": "right"
    },
    {
      "midi": 44,
      "time": 24,
      "duration": 0.375,
      "velocity": 0.71,
      "hand": "left"
    },
    {
      "midi": 75,
      "time": 24,
      "duration": 0.75,
      "velocity": 0.71,
      "hand": "right"
    },
    {
      "midi": 56,
      "time": 24.375,
      "duration": 0.375,
      "velocity": 0.71,
      "hand": "left"
    },
    {
      "midi": 63,
      "time": 24.75,
      "duration": 0.375,
      "velocity": 0.71,
      "hand": "right"
    },
    {
      "midi": 75,
      "time": 24.75,
      "duration": 1.5,
      "velocity": 0.71,
      "hand": "right"
    },
    {
      "midi": 56,
      "time": 25.125,
      "duration": 0.375,
      "velocity": 0.71,
      "hand": "left"
    },
    {
      "midi": 59,
      "time": 25.5,
      "duration": 0.375,
      "velocity": 0.71,
      "hand": "left"
    },
    {
      "midi": 63,
      "time": 25.5,
      "duration": 0.375,
      "velocity": 0.71,
      "hand": "right"
    },
    {
      "midi": 56,
      "time": 25.875,
      "duration": 0.375,
      "velocity": 0.71,
      "hand": "left"
    },
    {
      "midi": 49,
      "time": 26.25,
      "duration": 0.375,
      "velocity": 0.71,
      "hand": "left"
    },
    {
      "midi": 59,
      "time": 26.25,
      "duration": 0.375,
      "velocity": 0.71,
      "hand": "left"
    },
    {
      "midi": 65,
      "time": 26.25,
      "duration": 0.375,
      "velocity": 0.71,
      "hand": "right"
    },
    {
      "midi": 77,
      "time": 26.25,
      "duration": 0.75,
      "velocity": 0.71,
      "hand": "right"
    },
    {
      "midi": 61,
      "time": 26.625,
      "duration": 0.375,
      "velocity": 0.71,
      "hand": "right"
    },
    {
      "midi": 54,
      "time": 27,
      "duration": 0.375,
      "velocity": 0.71,
      "hand": "left"
    },
    {
      "midi": 58,
      "time": 27,
      "duration": 0.375,
      "velocity": 0.71,
      "hand": "left"
    },
    {
      "midi": 78,
      "time": 27,
      "duration": 0.375,
      "velocity": 0.71,
      "hand": "right"
    },
    {
      "midi": 61,
      "time": 27.375,
      "duration": 0.375,
      "velocity": 0.71,
      "hand": "right"
    },
    {
      "midi": 77,
      "time": 27.375,
      "duration": 0.375,
      "velocity": 0.71,
      "hand": "right"
    },
    {
      "midi": 58,
      "time": 27.75,
      "duration": 0.375,
      "velocity": 0.71,
      "hand": "left"
    },
    {
      "midi": 66,
      "time": 27.75,
      "duration": 0.375,
      "velocity": 0.71,
      "hand": "right"
    },
    {
      "midi": 75,
      "time": 27.75,
      "duration": 0.375,
      "velocity": 0.71,
      "hand": "right"
    },
    {
      "midi": 61,
      "time": 28.125,
      "duration": 0.375,
      "velocity": 0.71,
      "hand": "right"
    },
    {
      "midi": 73,
      "time": 28.125,
      "duration": 0.375,
      "velocity": 0.71,
      "hand": "right"
    },
    {
      "midi": 49,
      "time": 28.5,
      "duration": 0.375,
      "velocity": 0.71,
      "hand": "left"
    },
    {
      "midi": 77,
      "time": 28.5,
      "duration": 1.5,
      "velocity": 0.71,
      "hand": "right"
    },
    {
      "midi": 56,
      "time": 28.875,
      "duration": 0.375,
      "velocity": 0.71,
      "hand": "left"
    },
    {
      "midi": 61,
      "time": 29.25,
      "duration": 0.375,
      "velocity": 0.71,
      "hand": "right"
    },
    {
      "midi": 65,
      "time": 29.25,
      "duration": 0.375,
      "velocity": 0.71,
      "hand": "right"
    },
    {
      "midi": 56,
      "time": 29.625,
      "duration": 0.375,
      "velocity": 0.71,
      "hand": "left"
    },
    {
      "midi": 51,
      "time": 30,
      "duration": 0.375,
      "velocity": 0.71,
      "hand": "left"
    },
    {
      "midi": 75,
      "time": 30,
      "duration": 0.375,
      "velocity": 0.71,
      "hand": "right"
    },
    {
      "midi": 56,
      "time": 30.375,
      "duration": 0.375,
      "velocity": 0.71,
      "hand": "left"
    },
    {
      "midi": 71,
      "time": 30.375,
      "duration": 0.375,
      "velocity": 0.71,
      "hand": "right"
    },
    {
      "midi": 59,
      "time": 30.75,
      "duration": 0.375,
      "velocity": 0.71,
      "hand": "left"
    },
    {
      "midi": 63,
      "time": 30.75,
      "duration": 0.375,
      "velocity": 0.71,
      "hand": "right"
    },
    {
      "midi": 70,
      "time": 30.75,
      "duration": 0.375,
      "velocity": 0.71,
      "hand": "right"
    },
    {
      "midi": 56,
      "time": 31.125,
      "duration": 0.375,
      "velocity": 0.71,
      "hand": "left"
    },
    {
      "midi": 68,
      "time": 31.125,
      "duration": 0.375,
      "velocity": 0.71,
      "hand": "right"
    },
    {
      "midi": 51,
      "time": 31.5,
      "duration": 0.375,
      "velocity": 0.71,
      "hand": "left"
    },
    {
      "midi": 70,
      "time": 31.5,
      "duration": 0.563,
      "velocity": 0.71,
      "hand": "right"
    },
    {
      "midi": 55,
      "time": 31.875,
      "duration": 0.375,
      "velocity": 0.71,
      "hand": "left"
    },
    {
      "midi": 70,
      "time": 32.063,
      "duration": 0.094,
      "velocity": 0.71,
      "hand": "right"
    },
    {
      "midi": 71,
      "time": 32.063,
      "duration": 0.094,
      "velocity": 0.71,
      "hand": "right"
    },
    {
      "midi": 61,
      "time": 32.25,
      "duration": 0.375,
      "velocity": 0.71,
      "hand": "right"
    },
    {
      "midi": 63,
      "time": 32.25,
      "duration": 0.375,
      "velocity": 0.71,
      "hand": "right"
    },
    {
      "midi": 68,
      "time": 32.25,
      "duration": 0.094,
      "velocity": 0.71,
      "hand": "right"
    },
    {
      "midi": 70,
      "time": 32.25,
      "duration": 0.563,
      "velocity": 0.71,
      "hand": "right"
    },
    {
      "midi": 55,
      "time": 32.625,
      "duration": 0.375,
      "velocity": 0.71,
      "hand": "left"
    },
    {
      "midi": 71,
      "time": 32.813,
      "duration": 0.188,
      "velocity": 0.71,
      "hand": "right"
    },
    {
      "midi": 44,
      "time": 33,
      "duration": 0.375,
      "velocity": 0.71,
      "hand": "left"
    },
    {
      "midi": 68,
      "time": 33,
      "duration": 0.75,
      "velocity": 0.71,
      "hand": "right"
    },
    {
      "midi": 56,
      "time": 33.375,
      "duration": 0.375,
      "velocity": 0.71,
      "hand": "left"
    },
    {
      "midi": 59,
      "time": 33.75,
      "duration": 0.375,
      "velocity": 0.71,
      "hand": "left"
    },
    {
      "midi": 63,
      "time": 33.75,
      "duration": 0.375,
      "velocity": 0.71,
      "hand": "right"
    },
    {
      "midi": 75,
      "time": 33.75,
      "duration": 0.75,
      "velocity": 0.71,
      "hand": "right"
    },
    {
      "midi": 56,
      "time": 34.125,
      "duration": 0.375,
      "velocity": 0.71,
      "hand": "left"
    },
    {
      "midi": 58,
      "time": 34.5,
      "duration": 0.375,
      "velocity": 0.71,
      "hand": "left"
    },
    {
      "midi": 61,
      "time": 34.5,
      "duration": 0.375,
      "velocity": 0.71,
      "hand": "right"
    },
    {
      "midi": 73,
      "time": 34.5,
      "duration": 0.75,
      "velocity": 0.71,
      "hand": "right"
    },
    {
      "midi": 56,
      "time": 34.875,
      "duration": 0.375,
      "velocity": 0.71,
      "hand": "left"
    },
    {
      "midi": 61,
      "time": 35.25,
      "duration": 0.375,
      "velocity": 0.71,
      "hand": "right"
    },
    {
      "midi": 64,
      "time": 35.25,
      "duration": 0.375,
      "velocity": 0.71,
      "hand": "right"
    },
    {
      "midi": 76,
      "time": 35.25,
      "duration": 0.75,
      "velocity": 0.71,
      "hand": "right"
    },
    {
      "midi": 56,
      "time": 35.625,
      "duration": 0.375,
      "velocity": 0.71,
      "hand": "left"
    },
    {
      "midi": 44,
      "time": 36,
      "duration": 0.375,
      "velocity": 0.71,
      "hand": "left"
    },
    {
      "midi": 75,
      "time": 36,
      "duration": 0.75,
      "velocity": 0.71,
      "hand": "right"
    },
    {
      "midi": 56,
      "time": 36.375,
      "duration": 0.375,
      "velocity": 0.71,
      "hand": "left"
    },
    {
      "midi": 59,
      "time": 36.75,
      "duration": 1.5,
      "velocity": 0.71,
      "hand": "left"
    },
    {
      "midi": 63,
      "time": 36.75,
      "duration": 1.5,
      "velocity": 0.71,
      "hand": "right"
    },
    {
      "midi": 75,
      "time": 36.75,
      "duration": 1.5,
      "velocity": 0.71,
      "hand": "right"
    },
    {
      "midi": 56,
      "time": 37.125,
      "duration": 0.375,
      "velocity": 0.71,
      "hand": "left"
    },
    {
      "midi": 56,
      "time": 37.5,
      "duration": 0.375,
      "velocity": 0.71,
      "hand": "left"
    },
    {
      "midi": 56,
      "time": 37.875,
      "duration": 0.375,
      "velocity": 0.71,
      "hand": "left"
    },
    {
      "midi": 59,
      "time": 38.25,
      "duration": 0.375,
      "velocity": 0.71,
      "hand": "left"
    },
    {
      "midi": 65,
      "time": 38.25,
      "duration": 0.375,
      "velocity": 0.71,
      "hand": "right"
    },
    {
      "midi": 77,
      "time": 38.25,
      "duration": 0.75,
      "velocity": 0.71,
      "hand": "right"
    },
    {
      "midi": 56,
      "time": 38.625,
      "duration": 0.375,
      "velocity": 0.71,
      "hand": "left"
    },
    {
      "midi": 51,
      "time": 39,
      "duration": 0.375,
      "velocity": 0.71,
      "hand": "left"
    },
    {
      "midi": 78,
      "time": 39,
      "duration": 0.375,
      "velocity": 0.71,
      "hand": "right"
    },
    {
      "midi": 54,
      "time": 39.375,
      "duration": 0.375,
      "velocity": 0.71,
      "hand": "left"
    },
    {
      "midi": 77,
      "time": 39.375,
      "duration": 0.375,
      "velocity": 0.71,
      "hand": "right"
    },
    {
      "midi": 58,
      "time": 39.75,
      "duration": 0.375,
      "velocity": 0.71,
      "hand": "left"
    },
    {
      "midi": 66,
      "time": 39.75,
      "duration": 0.375,
      "velocity": 0.71,
      "hand": "right"
    },
    {
      "midi": 75,
      "time": 39.75,
      "duration": 0.375,
      "velocity": 0.71,
      "hand": "right"
    },
    {
      "midi": 54,
      "time": 40.125,
      "duration": 0.375,
      "velocity": 0.71,
      "hand": "left"
    },
    {
      "midi": 73,
      "time": 40.125,
      "duration": 0.375,
      "velocity": 0.71,
      "hand": "right"
    },
    {
      "midi": 46,
      "time": 40.5,
      "duration": 0.375,
      "velocity": 0.71,
      "hand": "left"
    },
    {
      "midi": 77,
      "time": 40.5,
      "duration": 1.875,
      "velocity": 0.71,
      "hand": "right"
    },
    {
      "midi": 53,
      "time": 40.875,
      "duration": 0.375,
      "velocity": 0.71,
      "hand": "left"
    },
    {
      "midi": 58,
      "time": 41.25,
      "duration": 0.375,
      "velocity": 0.71,
      "hand": "left"
    },
    {
      "midi": 61,
      "time": 41.25,
      "duration": 0.375,
      "velocity": 0.71,
      "hand": "right"
    },
    {
      "midi": 65,
      "time": 41.25,
      "duration": 0.375,
      "velocity": 0.71,
      "hand": "right"
    },
    {
      "midi": 53,
      "time": 41.625,
      "duration": 0.375,
      "velocity": 0.71,
      "hand": "left"
    },
    {
      "midi": 41,
      "time": 42,
      "duration": 0.375,
      "velocity": 0.71,
      "hand": "left"
    },
    {
      "midi": 53,
      "time": 42.375,
      "duration": 0.375,
      "velocity": 0.71,
      "hand": "left"
    },
    {
      "midi": 73,
      "time": 42.375,
      "duration": 0.375,
      "velocity": 0.71,
      "hand": "right"
    },
    {
      "midi": 58,
      "time": 42.75,
      "duration": 0.375,
      "velocity": 0.71,
      "hand": "left"
    },
    {
      "midi": 61,
      "time": 42.75,
      "duration": 0.375,
      "velocity": 0.71,
      "hand": "right"
    },
    {
      "midi": 65,
      "time": 42.75,
      "duration": 0.375,
      "velocity": 0.71,
      "hand": "right"
    },
    {
      "midi": 72,
      "time": 42.75,
      "duration": 0.375,
      "velocity": 0.71,
      "hand": "right"
    },
    {
      "midi": 53,
      "time": 43.125,
      "duration": 0.375,
      "velocity": 0.71,
      "hand": "left"
    },
    {
      "midi": 70,
      "time": 43.125,
      "duration": 0.375,
      "velocity": 0.71,
      "hand": "right"
    },
    {
      "midi": 41,
      "time": 43.5,
      "duration": 0.375,
      "velocity": 0.71,
      "hand": "left"
    },
    {
      "midi": 72,
      "time": 43.5,
      "duration": 0.563,
      "velocity": 0.71,
      "hand": "right"
    },
    {
      "midi": 53,
      "time": 43.875,
      "duration": 0.375,
      "velocity": 0.71,
      "hand": "left"
    },
    {
      "midi": 72,
      "time": 44.063,
      "duration": 0.094,
      "velocity": 0.71,
      "hand": "right"
    },
    {
      "midi": 73,
      "time": 44.063,
      "duration": 0.094,
      "velocity": 0.71,
      "hand": "right"
    },
    {
      "midi": 57,
      "time": 44.25,
      "duration": 0.375,
      "velocity": 0.71,
      "hand": "left"
    },
    {
      "midi": 63,
      "time": 44.25,
      "duration": 0.375,
      "velocity": 0.71,
      "hand": "right"
    },
    {
      "midi": 65,
      "time": 44.25,
      "duration": 0.375,
      "velocity": 0.71,
      "hand": "right"
    },
    {
      "midi": 70,
      "time": 44.25,
      "duration": 0.094,
      "velocity": 0.71,
      "hand": "right"
    },
    {
      "midi": 72,
      "time": 44.25,
      "duration": 0.375,
      "velocity": 0.71,
      "hand": "right"
    },
    {
      "midi": 53,
      "time": 44.625,
      "duration": 0.375,
      "velocity": 0.71,
      "hand": "left"
    },
    {
      "midi": 73,
      "time": 44.625,
      "duration": 0.375,
      "velocity": 0.71,
      "hand": "right"
    },
    {
      "midi": 46,
      "time": 45,
      "duration": 0.375,
      "velocity": 0.71,
      "hand": "left"
    },
    {
      "midi": 70,
      "time": 45,
      "duration": 0.75,
      "velocity": 0.71,
      "hand": "right"
    },
    {
      "midi": 53,
      "time": 45.375,
      "duration": 0.375,
      "velocity": 0.71,
      "hand": "left"
    },
    {
      "midi": 61,
      "time": 45.75,
      "duration": 0.375,
      "velocity": 0.71,
      "hand": "right"
    },
    {
      "midi": 65,
      "time": 45.75,
      "duration": 0.375,
      "velocity": 0.71,
      "hand": "right"
    },
    {
      "midi": 77,
      "time": 45.75,
      "duration": 0.75,
      "velocity": 0.71,
      "hand": "right"
    },
    {
      "midi": 53,
      "time": 46.125,
      "duration": 0.375,
      "velocity": 0.71,
      "hand": "left"
    },
    {
      "midi": 60,
      "time": 46.5,
      "duration": 0.375,
      "velocity": 0.71,
      "hand": "right"
    },
    {
      "midi": 63,
      "time": 46.5,
      "duration": 0.375,
      "velocity": 0.71,
      "hand": "right"
    },
    {
      "midi": 75,
      "time": 46.5,
      "duration": 0.75,
      "velocity": 0.71,
      "hand": "right"
    },
    {
      "midi": 53,
      "time": 46.875,
      "duration": 0.375,
      "velocity": 0.71,
      "hand": "left"
    },
    {
      "midi": 63,
      "time": 47.25,
      "duration": 0.375,
      "velocity": 0.71,
      "hand": "right"
    },
    {
      "midi": 66,
      "time": 47.25,
      "duration": 0.375,
      "velocity": 0.71,
      "hand": "right"
    },
    {
      "midi": 78,
      "time": 47.25,
      "duration": 0.75,
      "velocity": 0.71,
      "hand": "right"
    },
    {
      "midi": 53,
      "time": 47.625,
      "duration": 0.375,
      "velocity": 0.71,
      "hand": "left"
    },
    {
      "midi": 61,
      "time": 48,
      "duration": 0.375,
      "velocity": 0.71,
      "hand": "right"
    },
    {
      "midi": 65,
      "time": 48,
      "duration": 0.375,
      "velocity": 0.71,
      "hand": "right"
    },
    {
      "midi": 77,
      "time": 48,
      "duration": 0.375,
      "velocity": 0.71,
      "hand": "right"
    },
    {
      "midi": 53,
      "time": 48.375,
      "duration": 0.375,
      "velocity": 0.71,
      "hand": "left"
    },
    {
      "midi": 73,
      "time": 48.375,
      "duration": 0.375,
      "velocity": 0.71,
      "hand": "right"
    },
    {
      "midi": 58,
      "time": 48.75,
      "duration": 0.375,
      "velocity": 0.71,
      "hand": "left"
    },
    {
      "midi": 61,
      "time": 48.75,
      "duration": 0.375,
      "velocity": 0.71,
      "hand": "right"
    },
    {
      "midi": 65,
      "time": 48.75,
      "duration": 0.375,
      "velocity": 0.71,
      "hand": "right"
    },
    {
      "midi": 72,
      "time": 48.75,
      "duration": 0.375,
      "velocity": 0.71,
      "hand": "right"
    },
    {
      "midi": 53,
      "time": 49.125,
      "duration": 0.375,
      "velocity": 0.71,
      "hand": "left"
    },
    {
      "midi": 70,
      "time": 49.125,
      "duration": 0.375,
      "velocity": 0.71,
      "hand": "right"
    },
    {
      "midi": 57,
      "time": 49.5,
      "duration": 0.375,
      "velocity": 0.71,
      "hand": "left"
    },
    {
      "midi": 63,
      "time": 49.5,
      "duration": 0.375,
      "velocity": 0.71,
      "hand": "right"
    },
    {
      "midi": 72,
      "time": 49.5,
      "duration": 0.563,
      "velocity": 0.71,
      "hand": "right"
    },
    {
      "midi": 53,
      "time": 49.875,
      "duration": 0.375,
      "velocity": 0.71,
      "hand": "left"
    },
    {
      "midi": 72,
      "time": 50.063,
      "duration": 0.094,
      "velocity": 0.71,
      "hand": "right"
    },
    {
      "midi": 73,
      "time": 50.063,
      "duration": 0.094,
      "velocity": 0.71,
      "hand": "right"
    },
    {
      "midi": 63,
      "time": 50.25,
      "duration": 0.375,
      "velocity": 0.71,
      "hand": "right"
    },
    {
      "midi": 65,
      "time": 50.25,
      "duration": 0.375,
      "velocity": 0.71,
      "hand": "right"
    },
    {
      "midi": 70,
      "time": 50.25,
      "duration": 0.094,
      "velocity": 0.71,
      "hand": "right"
    },
    {
      "midi": 72,
      "time": 50.25,
      "duration": 0.563,
      "velocity": 0.71,
      "hand": "right"
    },
    {
      "midi": 53,
      "time": 50.625,
      "duration": 0.375,
      "velocity": 0.71,
      "hand": "left"
    },
    {
      "midi": 73,
      "time": 50.813,
      "duration": 0.188,
      "velocity": 0.71,
      "hand": "right"
    },
    {
      "midi": 46,
      "time": 51,
      "duration": 0.375,
      "velocity": 0.71,
      "hand": "left"
    },
    {
      "midi": 70,
      "time": 51,
      "duration": 0.75,
      "velocity": 0.71,
      "hand": "right"
    },
    {
      "midi": 53,
      "time": 51.375,
      "duration": 0.375,
      "velocity": 0.71,
      "hand": "left"
    },
    {
      "midi": 60,
      "time": 51.75,
      "duration": 0.375,
      "velocity": 0.71,
      "hand": "right"
    },
    {
      "midi": 63,
      "time": 51.75,
      "duration": 0.375,
      "velocity": 0.71,
      "hand": "right"
    },
    {
      "midi": 75,
      "time": 51.75,
      "duration": 0.75,
      "velocity": 0.71,
      "hand": "right"
    },
    {
      "midi": 53,
      "time": 52.125,
      "duration": 0.375,
      "velocity": 0.71,
      "hand": "left"
    },
    {
      "midi": 61,
      "time": 52.5,
      "duration": 0.375,
      "velocity": 0.71,
      "hand": "right"
    },
    {
      "midi": 65,
      "time": 52.5,
      "duration": 0.375,
      "velocity": 0.71,
      "hand": "right"
    },
    {
      "midi": 77,
      "time": 52.5,
      "duration": 0.75,
      "velocity": 0.71,
      "hand": "right"
    },
    {
      "midi": 53,
      "time": 52.875,
      "duration": 0.375,
      "velocity": 0.71,
      "hand": "left"
    },
    {
      "midi": 60,
      "time": 53.25,
      "duration": 0.375,
      "velocity": 0.71,
      "hand": "right"
    },
    {
      "midi": 63,
      "time": 53.25,
      "duration": 0.375,
      "velocity": 0.71,
      "hand": "right"
    },
    {
      "midi": 75,
      "time": 53.25,
      "duration": 0.75,
      "velocity": 0.71,
      "hand": "right"
    },
    {
      "midi": 53,
      "time": 53.625,
      "duration": 0.375,
      "velocity": 0.71,
      "hand": "left"
    },
    {
      "midi": 61,
      "time": 54,
      "duration": 1.5,
      "velocity": 0.71,
      "hand": "right"
    },
    {
      "midi": 65,
      "time": 54,
      "duration": 1.5,
      "velocity": 0.71,
      "hand": "right"
    },
    {
      "midi": 77,
      "time": 54,
      "duration": 2.25,
      "velocity": 0.71,
      "hand": "right"
    },
    {
      "midi": 53,
      "time": 54.375,
      "duration": 0.375,
      "velocity": 0.71,
      "hand": "left"
    },
    {
      "midi": 53,
      "time": 54.75,
      "duration": 0.375,
      "velocity": 0.71,
      "hand": "left"
    },
    {
      "midi": 53,
      "time": 55.125,
      "duration": 0.375,
      "velocity": 0.71,
      "hand": "left"
    },
    {
      "midi": 61,
      "time": 55.5,
      "duration": 0.375,
      "velocity": 0.71,
      "hand": "right"
    },
    {
      "midi": 65,
      "time": 55.5,
      "duration": 0.375,
      "velocity": 0.71,
      "hand": "right"
    },
    {
      "midi": 54,
      "time": 55.875,
      "duration": 0.75,
      "velocity": 0.71,
      "hand": "left"
    },
    {
      "midi": 60,
      "time": 56.25,
      "duration": 0.375,
      "velocity": 0.71,
      "hand": "right"
    },
    {
      "midi": 63,
      "time": 56.25,
      "duration": 0.375,
      "velocity": 0.71,
      "hand": "right"
    },
    {
      "midi": 75,
      "time": 56.25,
      "duration": 0.75,
      "velocity": 0.71,
      "hand": "right"
    },
    {
      "midi": 56,
      "time": 56.625,
      "duration": 0.375,
      "velocity": 0.71,
      "hand": "left"
    },
    {
      "midi": 49,
      "time": 57,
      "duration": 0.375,
      "velocity": 0.71,
      "hand": "left"
    },
    {
      "midi": 77,
      "time": 57,
      "duration": 0.563,
      "velocity": 0.71,
      "hand": "right"
    },
    {
      "midi": 56,
      "time": 57.375,
      "duration": 0.375,
      "velocity": 0.71,
      "hand": "left"
    },
    {
      "midi": 73,
      "time": 57.563,
      "duration": 0.188,
      "velocity": 0.71,
      "hand": "right"
    },
    {
      "midi": 61,
      "time": 57.75,
      "duration": 1.5,
      "velocity": 0.71,
      "hand": "right"
    },
    {
      "midi": 65,
      "time": 57.75,
      "duration": 1.5,
      "velocity": 0.71,
      "hand": "right"
    },
    {
      "midi": 68,
      "time": 57.75,
      "duration": 1.5,
      "velocity": 0.71,
      "hand": "right"
    },
    {
      "midi": 56,
      "time": 58.125,
      "duration": 0.375,
      "velocity": 0.71,
      "hand": "left"
    },
    {
      "midi": 56,
      "time": 58.5,
      "duration": 0.375,
      "velocity": 0.71,
      "hand": "left"
    },
    {
      "midi": 56,
      "time": 58.875,
      "duration": 0.375,
      "velocity": 0.71,
      "hand": "left"
    },
    {
      "midi": 61,
      "time": 59.25,
      "duration": 0.375,
      "velocity": 0.71,
      "hand": "right"
    },
    {
      "midi": 65,
      "time": 59.25,
      "duration": 0.375,
      "velocity": 0.71,
      "hand": "right"
    },
    {
      "midi": 70,
      "time": 59.25,
      "duration": 0.75,
      "velocity": 0.71,
      "hand": "right"
    },
    {
      "midi": 56,
      "time": 59.625,
      "duration": 0.375,
      "velocity": 0.71,
      "hand": "left"
    },
    {
      "midi": 63,
      "time": 60,
      "duration": 1.5,
      "velocity": 0.71,
      "hand": "right"
    },
    {
      "midi": 66,
      "time": 60,
      "duration": 1.5,
      "velocity": 0.71,
      "hand": "right"
    },
    {
      "midi": 72,
      "time": 60,
      "duration": 2.25,
      "velocity": 0.71,
      "hand": "right"
    },
    {
      "midi": 56,
      "time": 60.375,
      "duration": 0.375,
      "velocity": 0.71,
      "hand": "left"
    },
    {
      "midi": 56,
      "time": 60.75,
      "duration": 0.375,
      "velocity": 0.71,
      "hand": "left"
    },
    {
      "midi": 56,
      "time": 61.125,
      "duration": 0.375,
      "velocity": 0.71,
      "hand": "left"
    },
    {
      "midi": 58,
      "time": 61.5,
      "duration": 0.375,
      "velocity": 0.71,
      "hand": "left"
    },
    {
      "midi": 56,
      "time": 61.875,
      "duration": 0.375,
      "velocity": 0.71,
      "hand": "left"
    },
    {
      "midi": 61,
      "time": 62.25,
      "duration": 0.375,
      "velocity": 0.71,
      "hand": "right"
    },
    {
      "midi": 65,
      "time": 62.25,
      "duration": 0.375,
      "velocity": 0.71,
      "hand": "right"
    },
    {
      "midi": 73,
      "time": 62.25,
      "duration": 0.75,
      "velocity": 0.71,
      "hand": "right"
    },
    {
      "midi": 56,
      "time": 62.625,
      "duration": 0.375,
      "velocity": 0.71,
      "hand": "left"
    },
    {
      "midi": 60,
      "time": 63,
      "duration": 2.25,
      "velocity": 0.71,
      "hand": "right"
    },
    {
      "midi": 66,
      "time": 63,
      "duration": 0.375,
      "velocity": 0.71,
      "hand": "right"
    },
    {
      "midi": 75,
      "time": 63,
      "duration": 0.563,
      "velocity": 0.71,
      "hand": "right"
    },
    {
      "midi": 56,
      "time": 63.375,
      "duration": 0.75,
      "velocity": 0.71,
      "hand": "left"
    },
    {
      "midi": 68,
      "time": 63.563,
      "duration": 0.188,
      "velocity": 0.71,
      "hand": "right"
    },
    {
      "midi": 77,
      "time": 63.563,
      "duration": 0.188,
      "velocity": 0.71,
      "hand": "right"
    },
    {
      "midi": 70,
      "time": 63.75,
      "duration": 1.5,
      "velocity": 0.71,
      "hand": "right"
    },
    {
      "midi": 78,
      "time": 63.75,
      "duration": 1.5,
      "velocity": 0.71,
      "hand": "right"
    },
    {
      "midi": 56,
      "time": 64.125,
      "duration": 0.375,
      "velocity": 0.71,
      "hand": "left"
    },
    {
      "midi": 56,
      "time": 64.5,
      "duration": 0.375,
      "velocity": 0.71,
      "hand": "left"
    },
    {
      "midi": 56,
      "time": 64.875,
      "duration": 0.75,
      "velocity": 0.71,
      "hand": "left"
    },
    {
      "midi": 61,
      "time": 65.25,
      "duration": 0.375,
      "velocity": 0.71,
      "hand": "right"
    },
    {
      "midi": 68,
      "time": 65.25,
      "duration": 0.375,
      "velocity": 0.71,
      "hand": "right"
    },
    {
      "midi": 77,
      "time": 65.25,
      "duration": 0.75,
      "velocity": 0.71,
      "hand": "right"
    },
    {
      "midi": 56,
      "time": 65.625,
      "duration": 0.375,
      "velocity": 0.71,
      "hand": "left"
    },
    {
      "midi": 60,
      "time": 66,
      "duration": 0.375,
      "velocity": 0.71,
      "hand": "right"
    },
    {
      "midi": 68,
      "time": 66,
      "duration": 0.375,
      "velocity": 0.71,
      "hand": "right"
    },
    {
      "midi": 77,
      "time": 66,
      "duration": 1.125,
      "velocity": 0.71,
      "hand": "right"
    },
    {
      "midi": 56,
      "time": 66.375,
      "duration": 0.375,
      "velocity": 0.71,
      "hand": "left"
    },
    {
      "midi": 60,
      "time": 66.75,
      "duration": 0.375,
      "velocity": 0.71,
      "hand": "right"
    },
    {
      "midi": 66,
      "time": 66.75,
      "duration": 0.375,
      "velocity": 0.71,
      "hand": "right"
    },
    {
      "midi": 56,
      "time": 67.125,
      "duration": 0.375,
      "velocity": 0.71,
      "hand": "left"
    },
    {
      "midi": 75,
      "time": 67.125,
      "duration": 0.375,
      "velocity": 0.71,
      "hand": "right"
    },
    {
      "midi": 61,
      "time": 67.5,
      "duration": 0.375,
      "velocity": 0.71,
      "hand": "right"
    },
    {
      "midi": 65,
      "time": 67.5,
      "duration": 0.375,
      "velocity": 0.71,
      "hand": "right"
    },
    {
      "midi": 73,
      "time": 67.5,
      "duration": 0.75,
      "velocity": 0.71,
      "hand": "right"
    },
    {
      "midi": 56,
      "time": 67.875,
      "duration": 0.375,
      "velocity": 0.71,
      "hand": "left"
    },
    {
      "midi": 60,
      "time": 68.25,
      "duration": 0.375,
      "velocity": 0.71,
      "hand": "right"
    },
    {
      "midi": 66,
      "time": 68.25,
      "duration": 0.375,
      "velocity": 0.71,
      "hand": "right"
    },
    {
      "midi": 74,
      "time": 68.25,
      "duration": 0.188,
      "velocity": 0.71,
      "hand": "right"
    },
    {
      "midi": 75,
      "time": 68.438,
      "duration": 0.188,
      "velocity": 0.71,
      "hand": "right"
    },
    {
      "midi": 76,
      "time": 68.438,
      "duration": 0.188,
      "velocity": 0.71,
      "hand": "right"
    },
    {
      "midi": 56,
      "time": 68.625,
      "duration": 0.375,
      "velocity": 0.71,
      "hand": "left"
    },
    {
      "midi": 77,
      "time": 68.625,
      "duration": 0.188,
      "velocity": 0.71,
      "hand": "right"
    },
    {
      "midi": 80,
      "time": 68.625,
      "duration": 0.188,
      "velocity": 0.71,
      "hand": "right"
    },
    {
      "midi": 78,
      "time": 68.813,
      "duration": 0.188,
      "velocity": 0.71,
      "hand": "right"
    },
    {
      "midi": 79,
      "time": 68.813,
      "duration": 0.188,
      "velocity": 0.71,
      "hand": "right"
    },
    {
      "midi": 49,
      "time": 69,
      "duration": 0.375,
      "velocity": 0.71,
      "hand": "left"
    },
    {
      "midi": 77,
      "time": 69,
      "duration": 0.563,
      "velocity": 0.71,
      "hand": "right"
    },
    {
      "midi": 56,
      "time": 69.375,
      "duration": 0.375,
      "velocity": 0.71,
      "hand": "left"
    },
    {
      "midi": 73,
      "time": 69.563,
      "duration": 0.188,
      "velocity": 0.71,
      "hand": "right"
    },
    {
      "midi": 61,
      "time": 69.75,
      "duration": 1.5,
      "velocity": 0.71,
      "hand": "right"
    },
    {
      "midi": 65,
      "time": 69.75,
      "duration": 1.5,
      "velocity": 0.71,
      "hand": "right"
    },
    {
      "midi": 68,
      "time": 69.75,
      "duration": 1.5,
      "velocity": 0.71,
      "hand": "right"
    },
    {
      "midi": 56,
      "time": 70.125,
      "duration": 0.375,
      "velocity": 0.71,
      "hand": "left"
    },
    {
      "midi": 56,
      "time": 70.5,
      "duration": 0.375,
      "velocity": 0.71,
      "hand": "left"
    },
    {
      "midi": 56,
      "time": 70.875,
      "duration": 0.375,
      "velocity": 0.71,
      "hand": "left"
    },
    {
      "midi": 56,
      "time": 71.25,
      "duration": 0.375,
      "velocity": 0.71,
      "hand": "left"
    },
    {
      "midi": 70,
      "time": 71.25,
      "duration": 0.75,
      "velocity": 0.71,
      "hand": "right"
    },
    {
      "midi": 56,
      "time": 71.625,
      "duration": 0.375,
      "velocity": 0.71,
      "hand": "left"
    },
    {
      "midi": 63,
      "time": 72,
      "duration": 1.5,
      "velocity": 0.71,
      "hand": "right"
    },
    {
      "midi": 66,
      "time": 72,
      "duration": 1.5,
      "velocity": 0.71,
      "hand": "right"
    },
    {
      "midi": 72,
      "time": 72,
      "duration": 2.25,
      "velocity": 0.71,
      "hand": "right"
    },
    {
      "midi": 56,
      "time": 72.375,
      "duration": 0.375,
      "velocity": 0.71,
      "hand": "left"
    },
    {
      "midi": 56,
      "time": 72.75,
      "duration": 0.375,
      "velocity": 0.71,
      "hand": "left"
    },
    {
      "midi": 56,
      "time": 73.125,
      "duration": 0.375,
      "velocity": 0.71,
      "hand": "left"
    },
    {
      "midi": 58,
      "time": 73.5,
      "duration": 0.375,
      "velocity": 0.71,
      "hand": "left"
    },
    {
      "midi": 56,
      "time": 73.875,
      "duration": 0.375,
      "velocity": 0.71,
      "hand": "left"
    },
    {
      "midi": 61,
      "time": 74.25,
      "duration": 0.375,
      "velocity": 0.71,
      "hand": "right"
    },
    {
      "midi": 65,
      "time": 74.25,
      "duration": 0.375,
      "velocity": 0.71,
      "hand": "right"
    },
    {
      "midi": 73,
      "time": 74.25,
      "duration": 0.75,
      "velocity": 0.71,
      "hand": "right"
    },
    {
      "midi": 56,
      "time": 74.625,
      "duration": 0.375,
      "velocity": 0.71,
      "hand": "left"
    },
    {
      "midi": 60,
      "time": 75,
      "duration": 2.25,
      "velocity": 0.71,
      "hand": "right"
    },
    {
      "midi": 66,
      "time": 75,
      "duration": 0.375,
      "velocity": 0.71,
      "hand": "right"
    },
    {
      "midi": 75,
      "time": 75,
      "duration": 0.563,
      "velocity": 0.71,
      "hand": "right"
    },
    {
      "midi": 56,
      "time": 75.375,
      "duration": 0.75,
      "velocity": 0.71,
      "hand": "left"
    },
    {
      "midi": 68,
      "time": 75.563,
      "duration": 0.188,
      "velocity": 0.71,
      "hand": "right"
    },
    {
      "midi": 77,
      "time": 75.563,
      "duration": 0.188,
      "velocity": 0.71,
      "hand": "right"
    },
    {
      "midi": 70,
      "time": 75.75,
      "duration": 1.5,
      "velocity": 0.71,
      "hand": "right"
    },
    {
      "midi": 78,
      "time": 75.75,
      "duration": 1.5,
      "velocity": 0.71,
      "hand": "right"
    },
    {
      "midi": 56,
      "time": 76.125,
      "duration": 0.375,
      "velocity": 0.71,
      "hand": "left"
    },
    {
      "midi": 56,
      "time": 76.5,
      "duration": 0.375,
      "velocity": 0.71,
      "hand": "left"
    },
    {
      "midi": 56,
      "time": 76.875,
      "duration": 0.75,
      "velocity": 0.71,
      "hand": "left"
    },
    {
      "midi": 63,
      "time": 77.25,
      "duration": 0.375,
      "velocity": 0.71,
      "hand": "right"
    },
    {
      "midi": 72,
      "time": 77.25,
      "duration": 0.75,
      "velocity": 0.71,
      "hand": "right"
    },
    {
      "midi": 56,
      "time": 77.625,
      "duration": 0.375,
      "velocity": 0.71,
      "hand": "left"
    },
    {
      "midi": 66,
      "time": 78,
      "duration": 1.5,
      "velocity": 0.71,
      "hand": "right"
    },
    {
      "midi": 75,
      "time": 78,
      "duration": 1.5,
      "velocity": 0.71,
      "hand": "right"
    },
    {
      "midi": 56,
      "time": 78.375,
      "duration": 0.375,
      "velocity": 0.71,
      "hand": "left"
    },
    {
      "midi": 56,
      "time": 78.75,
      "duration": 0.375,
      "velocity": 0.71,
      "hand": "left"
    },
    {
      "midi": 56,
      "time": 79.125,
      "duration": 0.375,
      "velocity": 0.71,
      "hand": "left"
    },
    {
      "midi": 56,
      "time": 79.5,
      "duration": 0.375,
      "velocity": 0.71,
      "hand": "left"
    },
    {
      "midi": 56,
      "time": 79.875,
      "duration": 0.375,
      "velocity": 0.71,
      "hand": "left"
    },
    {
      "midi": 56,
      "time": 80.25,
      "duration": 0.375,
      "velocity": 0.71,
      "hand": "left"
    },
    {
      "midi": 56,
      "time": 80.625,
      "duration": 0.375,
      "velocity": 0.71,
      "hand": "left"
    },
    {
      "midi": 37,
      "time": 81,
      "duration": 0.75,
      "velocity": 0.71,
      "hand": "left"
    },
    {
      "midi": 44,
      "time": 81,
      "duration": 0.75,
      "velocity": 0.71,
      "hand": "left"
    },
    {
      "midi": 56,
      "time": 81,
      "duration": 0.375,
      "velocity": 0.71,
      "hand": "left"
    },
    {
      "midi": 56,
      "time": 81.375,
      "duration": 0.375,
      "velocity": 0.71,
      "hand": "left"
    },
    {
      "midi": 39,
      "time": 81.75,
      "duration": 0.75,
      "velocity": 0.71,
      "hand": "left"
    },
    {
      "midi": 44,
      "time": 81.75,
      "duration": 0.75,
      "velocity": 0.71,
      "hand": "left"
    },
    {
      "midi": 56,
      "time": 81.75,
      "duration": 0.375,
      "velocity": 0.71,
      "hand": "left"
    },
    {
      "midi": 56,
      "time": 82.125,
      "duration": 0.375,
      "velocity": 0.71,
      "hand": "left"
    },
    {
      "midi": 40,
      "time": 82.5,
      "duration": 0.75,
      "velocity": 0.71,
      "hand": "left"
    },
    {
      "midi": 49,
      "time": 82.5,
      "duration": 0.75,
      "velocity": 0.71,
      "hand": "left"
    },
    {
      "midi": 56,
      "time": 82.5,
      "duration": 0.375,
      "velocity": 0.71,
      "hand": "left"
    },
    {
      "midi": 56,
      "time": 82.875,
      "duration": 0.375,
      "velocity": 0.71,
      "hand": "left"
    },
    {
      "midi": 39,
      "time": 83.25,
      "duration": 0.75,
      "velocity": 0.71,
      "hand": "left"
    },
    {
      "midi": 48,
      "time": 83.25,
      "duration": 0.75,
      "velocity": 0.71,
      "hand": "left"
    },
    {
      "midi": 56,
      "time": 83.25,
      "duration": 0.375,
      "velocity": 0.71,
      "hand": "left"
    },
    {
      "midi": 56,
      "time": 83.625,
      "duration": 0.375,
      "velocity": 0.71,
      "hand": "left"
    },
    {
      "midi": 39,
      "time": 84,
      "duration": 0.75,
      "velocity": 0.71,
      "hand": "left"
    },
    {
      "midi": 44,
      "time": 84,
      "duration": 0.75,
      "velocity": 0.71,
      "hand": "left"
    },
    {
      "midi": 56,
      "time": 84,
      "duration": 0.375,
      "velocity": 0.71,
      "hand": "left"
    },
    {
      "midi": 56,
      "time": 84.375,
      "duration": 0.375,
      "velocity": 0.71,
      "hand": "left"
    },
    {
      "midi": 40,
      "time": 84.75,
      "duration": 0.75,
      "velocity": 0.71,
      "hand": "left"
    },
    {
      "midi": 44,
      "time": 84.75,
      "duration": 0.75,
      "velocity": 0.71,
      "hand": "left"
    },
    {
      "midi": 56,
      "time": 84.75,
      "duration": 0.375,
      "velocity": 0.71,
      "hand": "left"
    },
    {
      "midi": 56,
      "time": 85.125,
      "duration": 0.375,
      "velocity": 0.71,
      "hand": "left"
    },
    {
      "midi": 42,
      "time": 85.5,
      "duration": 0.75,
      "velocity": 0.71,
      "hand": "left"
    },
    {
      "midi": 51,
      "time": 85.5,
      "duration": 0.75,
      "velocity": 0.71,
      "hand": "left"
    },
    {
      "midi": 56,
      "time": 85.5,
      "duration": 0.375,
      "velocity": 0.71,
      "hand": "left"
    },
    {
      "midi": 56,
      "time": 85.875,
      "duration": 0.375,
      "velocity": 0.71,
      "hand": "left"
    },
    {
      "midi": 40,
      "time": 86.25,
      "duration": 0.75,
      "velocity": 0.71,
      "hand": "left"
    },
    {
      "midi": 49,
      "time": 86.25,
      "duration": 0.75,
      "velocity": 0.71,
      "hand": "left"
    },
    {
      "midi": 56,
      "time": 86.25,
      "duration": 0.375,
      "velocity": 0.71,
      "hand": "left"
    },
    {
      "midi": 56,
      "time": 86.625,
      "duration": 0.375,
      "velocity": 0.71,
      "hand": "left"
    },
    {
      "midi": 40,
      "time": 87,
      "duration": 0.75,
      "velocity": 0.71,
      "hand": "left"
    },
    {
      "midi": 49,
      "time": 87,
      "duration": 0.75,
      "velocity": 0.71,
      "hand": "left"
    },
    {
      "midi": 56,
      "time": 87,
      "duration": 0.375,
      "velocity": 0.71,
      "hand": "left"
    },
    {
      "midi": 56,
      "time": 87.375,
      "duration": 0.375,
      "velocity": 0.71,
      "hand": "left"
    },
    {
      "midi": 44,
      "time": 87.75,
      "duration": 0.75,
      "velocity": 0.71,
      "hand": "left"
    },
    {
      "midi": 51,
      "time": 87.75,
      "duration": 0.75,
      "velocity": 0.71,
      "hand": "left"
    },
    {
      "midi": 56,
      "time": 87.75,
      "duration": 0.375,
      "velocity": 0.71,
      "hand": "left"
    },
    {
      "midi": 56,
      "time": 88.125,
      "duration": 0.375,
      "velocity": 0.71,
      "hand": "left"
    },
    {
      "midi": 49,
      "time": 88.5,
      "duration": 0.75,
      "velocity": 0.71,
      "hand": "left"
    },
    {
      "midi": 52,
      "time": 88.5,
      "duration": 0.75,
      "velocity": 0.71,
      "hand": "left"
    },
    {
      "midi": 56,
      "time": 88.5,
      "duration": 0.375,
      "velocity": 0.71,
      "hand": "left"
    },
    {
      "midi": 56,
      "time": 88.875,
      "duration": 0.375,
      "velocity": 0.71,
      "hand": "left"
    },
    {
      "midi": 44,
      "time": 89.25,
      "duration": 0.75,
      "velocity": 0.71,
      "hand": "left"
    },
    {
      "midi": 51,
      "time": 89.25,
      "duration": 0.75,
      "velocity": 0.71,
      "hand": "left"
    },
    {
      "midi": 56,
      "time": 89.25,
      "duration": 0.375,
      "velocity": 0.71,
      "hand": "left"
    },
    {
      "midi": 56,
      "time": 89.625,
      "duration": 0.375,
      "velocity": 0.71,
      "hand": "left"
    },
    {
      "midi": 44,
      "time": 90,
      "duration": 3.75,
      "velocity": 0.71,
      "hand": "left"
    },
    {
      "midi": 51,
      "time": 90,
      "duration": 3.75,
      "velocity": 0.71,
      "hand": "left"
    },
    {
      "midi": 56,
      "time": 90,
      "duration": 0.375,
      "velocity": 0.71,
      "hand": "left"
    },
    {
      "midi": 56,
      "time": 90.375,
      "duration": 0.375,
      "velocity": 0.71,
      "hand": "left"
    },
    {
      "midi": 56,
      "time": 90.75,
      "duration": 0.375,
      "velocity": 0.71,
      "hand": "left"
    },
    {
      "midi": 56,
      "time": 91.125,
      "duration": 0.375,
      "velocity": 0.71,
      "hand": "left"
    },
    {
      "midi": 56,
      "time": 91.5,
      "duration": 0.375,
      "velocity": 0.71,
      "hand": "left"
    },
    {
      "midi": 56,
      "time": 91.875,
      "duration": 0.375,
      "velocity": 0.71,
      "hand": "left"
    },
    {
      "midi": 56,
      "time": 92.25,
      "duration": 0.375,
      "velocity": 0.71,
      "hand": "left"
    },
    {
      "midi": 56,
      "time": 92.625,
      "duration": 0.375,
      "velocity": 0.71,
      "hand": "left"
    },
    {
      "midi": 56,
      "time": 93,
      "duration": 0.375,
      "velocity": 0.71,
      "hand": "left"
    },
    {
      "midi": 56,
      "time": 93.375,
      "duration": 0.375,
      "velocity": 0.71,
      "hand": "left"
    },
    {
      "midi": 49,
      "time": 93.75,
      "duration": 0.75,
      "velocity": 0.71,
      "hand": "left"
    },
    {
      "midi": 52,
      "time": 93.75,
      "duration": 0.75,
      "velocity": 0.71,
      "hand": "left"
    },
    {
      "midi": 56,
      "time": 93.75,
      "duration": 0.375,
      "velocity": 0.71,
      "hand": "left"
    },
    {
      "midi": 56,
      "time": 94.125,
      "duration": 0.375,
      "velocity": 0.71,
      "hand": "left"
    },
    {
      "midi": 44,
      "time": 94.5,
      "duration": 0.75,
      "velocity": 0.71,
      "hand": "left"
    },
    {
      "midi": 51,
      "time": 94.5,
      "duration": 0.75,
      "velocity": 0.71,
      "hand": "left"
    },
    {
      "midi": 56,
      "time": 94.5,
      "duration": 0.375,
      "velocity": 0.71,
      "hand": "left"
    },
    {
      "midi": 56,
      "time": 94.875,
      "duration": 0.375,
      "velocity": 0.71,
      "hand": "left"
    },
    {
      "midi": 40,
      "time": 95.25,
      "duration": 0.75,
      "velocity": 0.71,
      "hand": "left"
    },
    {
      "midi": 49,
      "time": 95.25,
      "duration": 0.75,
      "velocity": 0.71,
      "hand": "left"
    },
    {
      "midi": 56,
      "time": 95.25,
      "duration": 0.375,
      "velocity": 0.71,
      "hand": "left"
    },
    {
      "midi": 56,
      "time": 95.625,
      "duration": 0.375,
      "velocity": 0.71,
      "hand": "left"
    },
    {
      "midi": 44,
      "time": 96,
      "duration": 0.75,
      "velocity": 0.71,
      "hand": "left"
    },
    {
      "midi": 51,
      "time": 96,
      "duration": 0.75,
      "velocity": 0.71,
      "hand": "left"
    },
    {
      "midi": 56,
      "time": 96,
      "duration": 0.375,
      "velocity": 0.71,
      "hand": "left"
    },
    {
      "midi": 56,
      "time": 96.375,
      "duration": 0.375,
      "velocity": 0.71,
      "hand": "left"
    },
    {
      "midi": 40,
      "time": 96.75,
      "duration": 0.75,
      "velocity": 0.71,
      "hand": "left"
    },
    {
      "midi": 49,
      "time": 96.75,
      "duration": 0.75,
      "velocity": 0.71,
      "hand": "left"
    },
    {
      "midi": 56,
      "time": 96.75,
      "duration": 0.375,
      "velocity": 0.71,
      "hand": "left"
    },
    {
      "midi": 56,
      "time": 97.125,
      "duration": 0.375,
      "velocity": 0.71,
      "hand": "left"
    },
    {
      "midi": 39,
      "time": 97.5,
      "duration": 0.75,
      "velocity": 0.71,
      "hand": "left"
    },
    {
      "midi": 48,
      "time": 97.5,
      "duration": 0.75,
      "velocity": 0.71,
      "hand": "left"
    },
    {
      "midi": 56,
      "time": 97.5,
      "duration": 0.375,
      "velocity": 0.71,
      "hand": "left"
    },
    {
      "midi": 56,
      "time": 97.875,
      "duration": 0.375,
      "velocity": 0.71,
      "hand": "left"
    },
    {
      "midi": 40,
      "time": 98.25,
      "duration": 0.75,
      "velocity": 0.71,
      "hand": "left"
    },
    {
      "midi": 49,
      "time": 98.25,
      "duration": 0.75,
      "velocity": 0.71,
      "hand": "left"
    },
    {
      "midi": 56,
      "time": 98.25,
      "duration": 0.375,
      "velocity": 0.71,
      "hand": "left"
    },
    {
      "midi": 56,
      "time": 98.625,
      "duration": 0.375,
      "velocity": 0.71,
      "hand": "left"
    },
    {
      "midi": 39,
      "time": 99,
      "duration": 0.75,
      "velocity": 0.71,
      "hand": "left"
    },
    {
      "midi": 48,
      "time": 99,
      "duration": 0.75,
      "velocity": 0.71,
      "hand": "left"
    },
    {
      "midi": 56,
      "time": 99,
      "duration": 0.375,
      "velocity": 0.71,
      "hand": "left"
    },
    {
      "midi": 56,
      "time": 99.375,
      "duration": 0.375,
      "velocity": 0.71,
      "hand": "left"
    },
    {
      "midi": 40,
      "time": 99.75,
      "duration": 0.75,
      "velocity": 0.71,
      "hand": "left"
    },
    {
      "midi": 49,
      "time": 99.75,
      "duration": 0.75,
      "velocity": 0.71,
      "hand": "left"
    },
    {
      "midi": 56,
      "time": 99.75,
      "duration": 0.375,
      "velocity": 0.71,
      "hand": "left"
    },
    {
      "midi": 56,
      "time": 100.125,
      "duration": 0.375,
      "velocity": 0.71,
      "hand": "left"
    },
    {
      "midi": 39,
      "time": 100.5,
      "duration": 0.75,
      "velocity": 0.71,
      "hand": "left"
    },
    {
      "midi": 51,
      "time": 100.5,
      "duration": 0.75,
      "velocity": 0.71,
      "hand": "left"
    },
    {
      "midi": 56,
      "time": 100.5,
      "duration": 0.375,
      "velocity": 0.71,
      "hand": "left"
    },
    {
      "midi": 56,
      "time": 100.875,
      "duration": 0.375,
      "velocity": 0.71,
      "hand": "left"
    },
    {
      "midi": 37,
      "time": 101.25,
      "duration": 0.75,
      "velocity": 0.71,
      "hand": "left"
    },
    {
      "midi": 52,
      "time": 101.25,
      "duration": 0.75,
      "velocity": 0.71,
      "hand": "left"
    },
    {
      "midi": 56,
      "time": 101.25,
      "duration": 0.375,
      "velocity": 0.71,
      "hand": "left"
    },
    {
      "midi": 56,
      "time": 101.625,
      "duration": 0.375,
      "velocity": 0.71,
      "hand": "left"
    },
    {
      "midi": 44,
      "time": 102,
      "duration": 3,
      "velocity": 0.71,
      "hand": "left"
    },
    {
      "midi": 51,
      "time": 102,
      "duration": 3,
      "velocity": 0.71,
      "hand": "left"
    },
    {
      "midi": 56,
      "time": 102,
      "duration": 0.375,
      "velocity": 0.71,
      "hand": "left"
    },
    {
      "midi": 56,
      "time": 102.375,
      "duration": 0.375,
      "velocity": 0.71,
      "hand": "left"
    },
    {
      "midi": 68,
      "time": 102.375,
      "duration": 0.375,
      "velocity": 0.71,
      "hand": "right"
    },
    {
      "midi": 56,
      "time": 102.75,
      "duration": 0.375,
      "velocity": 0.71,
      "hand": "left"
    },
    {
      "midi": 68,
      "time": 102.75,
      "duration": 0.375,
      "velocity": 0.71,
      "hand": "right"
    },
    {
      "midi": 56,
      "time": 103.125,
      "duration": 0.375,
      "velocity": 0.71,
      "hand": "left"
    },
    {
      "midi": 68,
      "time": 103.125,
      "duration": 0.375,
      "velocity": 0.71,
      "hand": "right"
    },
    {
      "midi": 56,
      "time": 103.5,
      "duration": 0.375,
      "velocity": 0.71,
      "hand": "left"
    },
    {
      "midi": 68,
      "time": 103.5,
      "duration": 0.375,
      "velocity": 0.71,
      "hand": "right"
    },
    {
      "midi": 56,
      "time": 103.875,
      "duration": 0.375,
      "velocity": 0.71,
      "hand": "left"
    },
    {
      "midi": 68,
      "time": 103.875,
      "duration": 0.375,
      "velocity": 0.71,
      "hand": "right"
    },
    {
      "midi": 56,
      "time": 104.25,
      "duration": 0.375,
      "velocity": 0.71,
      "hand": "left"
    },
    {
      "midi": 68,
      "time": 104.25,
      "duration": 0.375,
      "velocity": 0.71,
      "hand": "right"
    },
    {
      "midi": 56,
      "time": 104.625,
      "duration": 0.375,
      "velocity": 0.71,
      "hand": "left"
    },
    {
      "midi": 68,
      "time": 104.625,
      "duration": 0.375,
      "velocity": 0.71,
      "hand": "right"
    },
    {
      "midi": 37,
      "time": 105,
      "duration": 0.75,
      "velocity": 0.71,
      "hand": "left"
    },
    {
      "midi": 44,
      "time": 105,
      "duration": 0.75,
      "velocity": 0.71,
      "hand": "left"
    },
    {
      "midi": 56,
      "time": 105,
      "duration": 0.375,
      "velocity": 0.71,
      "hand": "left"
    },
    {
      "midi": 68,
      "time": 105,
      "duration": 0.375,
      "velocity": 0.71,
      "hand": "right"
    },
    {
      "midi": 56,
      "time": 105.375,
      "duration": 0.375,
      "velocity": 0.71,
      "hand": "left"
    },
    {
      "midi": 68,
      "time": 105.375,
      "duration": 0.375,
      "velocity": 0.71,
      "hand": "right"
    },
    {
      "midi": 39,
      "time": 105.75,
      "duration": 0.75,
      "velocity": 0.71,
      "hand": "left"
    },
    {
      "midi": 44,
      "time": 105.75,
      "duration": 0.75,
      "velocity": 0.71,
      "hand": "left"
    },
    {
      "midi": 56,
      "time": 105.75,
      "duration": 0.375,
      "velocity": 0.71,
      "hand": "left"
    },
    {
      "midi": 68,
      "time": 105.75,
      "duration": 0.375,
      "velocity": 0.71,
      "hand": "right"
    },
    {
      "midi": 56,
      "time": 106.125,
      "duration": 0.375,
      "velocity": 0.71,
      "hand": "left"
    },
    {
      "midi": 68,
      "time": 106.125,
      "duration": 0.375,
      "velocity": 0.71,
      "hand": "right"
    },
    {
      "midi": 40,
      "time": 106.5,
      "duration": 0.75,
      "velocity": 0.71,
      "hand": "left"
    },
    {
      "midi": 49,
      "time": 106.5,
      "duration": 0.75,
      "velocity": 0.71,
      "hand": "left"
    },
    {
      "midi": 56,
      "time": 106.5,
      "duration": 0.375,
      "velocity": 0.71,
      "hand": "left"
    },
    {
      "midi": 61,
      "time": 106.5,
      "duration": 0.75,
      "velocity": 0.71,
      "hand": "right"
    },
    {
      "midi": 68,
      "time": 106.5,
      "duration": 0.375,
      "velocity": 0.71,
      "hand": "right"
    },
    {
      "midi": 56,
      "time": 106.875,
      "duration": 0.375,
      "velocity": 0.71,
      "hand": "left"
    },
    {
      "midi": 68,
      "time": 106.875,
      "duration": 0.375,
      "velocity": 0.71,
      "hand": "right"
    },
    {
      "midi": 39,
      "time": 107.25,
      "duration": 0.75,
      "velocity": 0.71,
      "hand": "left"
    },
    {
      "midi": 48,
      "time": 107.25,
      "duration": 0.75,
      "velocity": 0.71,
      "hand": "left"
    },
    {
      "midi": 56,
      "time": 107.25,
      "duration": 0.375,
      "velocity": 0.71,
      "hand": "left"
    },
    {
      "midi": 60,
      "time": 107.25,
      "duration": 0.75,
      "velocity": 0.71,
      "hand": "right"
    },
    {
      "midi": 68,
      "time": 107.25,
      "duration": 0.375,
      "velocity": 0.71,
      "hand": "right"
    },
    {
      "midi": 56,
      "time": 107.625,
      "duration": 0.375,
      "velocity": 0.71,
      "hand": "left"
    },
    {
      "midi": 68,
      "time": 107.625,
      "duration": 0.375,
      "velocity": 0.71,
      "hand": "right"
    },
    {
      "midi": 39,
      "time": 108,
      "duration": 0.75,
      "velocity": 0.71,
      "hand": "left"
    },
    {
      "midi": 44,
      "time": 108,
      "duration": 0.75,
      "velocity": 0.71,
      "hand": "left"
    },
    {
      "midi": 56,
      "time": 108,
      "duration": 0.375,
      "velocity": 0.71,
      "hand": "left"
    },
    {
      "midi": 68,
      "time": 108,
      "duration": 0.375,
      "velocity": 0.71,
      "hand": "right"
    },
    {
      "midi": 56,
      "time": 108.375,
      "duration": 0.375,
      "velocity": 0.71,
      "hand": "left"
    },
    {
      "midi": 68,
      "time": 108.375,
      "duration": 0.375,
      "velocity": 0.71,
      "hand": "right"
    },
    {
      "midi": 40,
      "time": 108.75,
      "duration": 0.75,
      "velocity": 0.71,
      "hand": "left"
    },
    {
      "midi": 44,
      "time": 108.75,
      "duration": 0.75,
      "velocity": 0.71,
      "hand": "left"
    },
    {
      "midi": 56,
      "time": 108.75,
      "duration": 0.375,
      "velocity": 0.71,
      "hand": "left"
    },
    {
      "midi": 68,
      "time": 108.75,
      "duration": 0.375,
      "velocity": 0.71,
      "hand": "right"
    },
    {
      "midi": 56,
      "time": 109.125,
      "duration": 0.375,
      "velocity": 0.71,
      "hand": "left"
    },
    {
      "midi": 68,
      "time": 109.125,
      "duration": 0.375,
      "velocity": 0.71,
      "hand": "right"
    },
    {
      "midi": 42,
      "time": 109.5,
      "duration": 0.75,
      "velocity": 0.71,
      "hand": "left"
    },
    {
      "midi": 51,
      "time": 109.5,
      "duration": 0.75,
      "velocity": 0.71,
      "hand": "left"
    },
    {
      "midi": 56,
      "time": 109.5,
      "duration": 0.375,
      "velocity": 0.71,
      "hand": "left"
    },
    {
      "midi": 63,
      "time": 109.5,
      "duration": 0.75,
      "velocity": 0.71,
      "hand": "right"
    },
    {
      "midi": 68,
      "time": 109.5,
      "duration": 0.375,
      "velocity": 0.71,
      "hand": "right"
    },
    {
      "midi": 56,
      "time": 109.875,
      "duration": 0.375,
      "velocity": 0.71,
      "hand": "left"
    },
    {
      "midi": 68,
      "time": 109.875,
      "duration": 0.375,
      "velocity": 0.71,
      "hand": "right"
    },
    {
      "midi": 40,
      "time": 110.25,
      "duration": 0.75,
      "velocity": 0.71,
      "hand": "left"
    },
    {
      "midi": 49,
      "time": 110.25,
      "duration": 0.75,
      "velocity": 0.71,
      "hand": "left"
    },
    {
      "midi": 56,
      "time": 110.25,
      "duration": 0.375,
      "velocity": 0.71,
      "hand": "left"
    },
    {
      "midi": 61,
      "time": 110.25,
      "duration": 1.5,
      "velocity": 0.71,
      "hand": "right"
    },
    {
      "midi": 68,
      "time": 110.25,
      "duration": 0.375,
      "velocity": 0.71,
      "hand": "right"
    },
    {
      "midi": 56,
      "time": 110.625,
      "duration": 0.375,
      "velocity": 0.71,
      "hand": "left"
    },
    {
      "midi": 68,
      "time": 110.625,
      "duration": 0.375,
      "velocity": 0.71,
      "hand": "right"
    },
    {
      "midi": 40,
      "time": 111,
      "duration": 0.75,
      "velocity": 0.71,
      "hand": "left"
    },
    {
      "midi": 49,
      "time": 111,
      "duration": 0.75,
      "velocity": 0.71,
      "hand": "left"
    },
    {
      "midi": 56,
      "time": 111,
      "duration": 0.375,
      "velocity": 0.71,
      "hand": "left"
    },
    {
      "midi": 68,
      "time": 111,
      "duration": 0.375,
      "velocity": 0.71,
      "hand": "right"
    },
    {
      "midi": 56,
      "time": 111.375,
      "duration": 0.375,
      "velocity": 0.71,
      "hand": "left"
    },
    {
      "midi": 68,
      "time": 111.375,
      "duration": 0.375,
      "velocity": 0.71,
      "hand": "right"
    },
    {
      "midi": 44,
      "time": 111.75,
      "duration": 0.75,
      "velocity": 0.71,
      "hand": "left"
    },
    {
      "midi": 51,
      "time": 111.75,
      "duration": 0.75,
      "velocity": 0.71,
      "hand": "left"
    },
    {
      "midi": 56,
      "time": 111.75,
      "duration": 0.375,
      "velocity": 0.71,
      "hand": "left"
    },
    {
      "midi": 63,
      "time": 111.75,
      "duration": 0.75,
      "velocity": 0.71,
      "hand": "right"
    },
    {
      "midi": 68,
      "time": 111.75,
      "duration": 0.375,
      "velocity": 0.71,
      "hand": "right"
    },
    {
      "midi": 56,
      "time": 112.125,
      "duration": 0.375,
      "velocity": 0.71,
      "hand": "left"
    },
    {
      "midi": 68,
      "time": 112.125,
      "duration": 0.375,
      "velocity": 0.71,
      "hand": "right"
    },
    {
      "midi": 49,
      "time": 112.5,
      "duration": 0.75,
      "velocity": 0.71,
      "hand": "left"
    },
    {
      "midi": 52,
      "time": 112.5,
      "duration": 0.75,
      "velocity": 0.71,
      "hand": "left"
    },
    {
      "midi": 56,
      "time": 112.5,
      "duration": 0.375,
      "velocity": 0.71,
      "hand": "left"
    },
    {
      "midi": 64,
      "time": 112.5,
      "duration": 0.75,
      "velocity": 0.71,
      "hand": "right"
    },
    {
      "midi": 68,
      "time": 112.5,
      "duration": 0.375,
      "velocity": 0.71,
      "hand": "right"
    },
    {
      "midi": 56,
      "time": 112.875,
      "duration": 0.375,
      "velocity": 0.71,
      "hand": "left"
    },
    {
      "midi": 68,
      "time": 112.875,
      "duration": 0.375,
      "velocity": 0.71,
      "hand": "right"
    },
    {
      "midi": 44,
      "time": 113.25,
      "duration": 0.75,
      "velocity": 0.71,
      "hand": "left"
    },
    {
      "midi": 51,
      "time": 113.25,
      "duration": 0.75,
      "velocity": 0.71,
      "hand": "left"
    },
    {
      "midi": 56,
      "time": 113.25,
      "duration": 0.375,
      "velocity": 0.71,
      "hand": "left"
    },
    {
      "midi": 63,
      "time": 113.25,
      "duration": 0.75,
      "velocity": 0.71,
      "hand": "right"
    },
    {
      "midi": 68,
      "time": 113.25,
      "duration": 0.375,
      "velocity": 0.71,
      "hand": "right"
    },
    {
      "midi": 56,
      "time": 113.625,
      "duration": 0.375,
      "velocity": 0.71,
      "hand": "left"
    },
    {
      "midi": 68,
      "time": 113.625,
      "duration": 0.375,
      "velocity": 0.71,
      "hand": "right"
    },
    {
      "midi": 32,
      "time": 114,
      "duration": 0.094,
      "velocity": 0.71,
      "hand": "left"
    },
    {
      "midi": 44,
      "time": 114,
      "duration": 3,
      "velocity": 0.71,
      "hand": "left"
    },
    {
      "midi": 51,
      "time": 114,
      "duration": 3,
      "velocity": 0.71,
      "hand": "left"
    },
    {
      "midi": 56,
      "time": 114,
      "duration": 0.375,
      "velocity": 0.71,
      "hand": "left"
    },
    {
      "midi": 63,
      "time": 114,
      "duration": 3,
      "velocity": 0.71,
      "hand": "right"
    },
    {
      "midi": 68,
      "time": 114,
      "duration": 0.375,
      "velocity": 0.71,
      "hand": "right"
    },
    {
      "midi": 56,
      "time": 114.375,
      "duration": 0.375,
      "velocity": 0.71,
      "hand": "left"
    },
    {
      "midi": 68,
      "time": 114.375,
      "duration": 0.375,
      "velocity": 0.71,
      "hand": "right"
    },
    {
      "midi": 56,
      "time": 114.75,
      "duration": 0.375,
      "velocity": 0.71,
      "hand": "left"
    },
    {
      "midi": 68,
      "time": 114.75,
      "duration": 0.375,
      "velocity": 0.71,
      "hand": "right"
    },
    {
      "midi": 56,
      "time": 115.125,
      "duration": 0.375,
      "velocity": 0.71,
      "hand": "left"
    },
    {
      "midi": 68,
      "time": 115.125,
      "duration": 0.375,
      "velocity": 0.71,
      "hand": "right"
    },
    {
      "midi": 56,
      "time": 115.5,
      "duration": 0.375,
      "velocity": 0.71,
      "hand": "left"
    },
    {
      "midi": 68,
      "time": 115.5,
      "duration": 0.375,
      "velocity": 0.71,
      "hand": "right"
    },
    {
      "midi": 56,
      "time": 115.875,
      "duration": 0.375,
      "velocity": 0.71,
      "hand": "left"
    },
    {
      "midi": 68,
      "time": 115.875,
      "duration": 0.375,
      "velocity": 0.71,
      "hand": "right"
    },
    {
      "midi": 56,
      "time": 116.25,
      "duration": 0.375,
      "velocity": 0.71,
      "hand": "left"
    },
    {
      "midi": 68,
      "time": 116.25,
      "duration": 0.375,
      "velocity": 0.71,
      "hand": "right"
    },
    {
      "midi": 56,
      "time": 116.625,
      "duration": 0.375,
      "velocity": 0.71,
      "hand": "left"
    },
    {
      "midi": 68,
      "time": 116.625,
      "duration": 0.375,
      "velocity": 0.71,
      "hand": "right"
    },
    {
      "midi": 28,
      "time": 117,
      "duration": 1.5,
      "velocity": 0.71,
      "hand": "left"
    },
    {
      "midi": 40,
      "time": 117,
      "duration": 1.5,
      "velocity": 0.71,
      "hand": "left"
    },
    {
      "midi": 59,
      "time": 117,
      "duration": 0.375,
      "velocity": 0.71,
      "hand": "left"
    },
    {
      "midi": 64,
      "time": 117,
      "duration": 1.5,
      "velocity": 0.71,
      "hand": "right"
    },
    {
      "midi": 68,
      "time": 117,
      "duration": 1.5,
      "velocity": 0.71,
      "hand": "right"
    },
    {
      "midi": 71,
      "time": 117,
      "duration": 0.375,
      "velocity": 0.71,
      "hand": "right"
    },
    {
      "midi": 59,
      "time": 117.375,
      "duration": 0.375,
      "velocity": 0.71,
      "hand": "left"
    },
    {
      "midi": 71,
      "time": 117.375,
      "duration": 0.375,
      "velocity": 0.71,
      "hand": "right"
    },
    {
      "midi": 59,
      "time": 117.75,
      "duration": 0.375,
      "velocity": 0.71,
      "hand": "left"
    },
    {
      "midi": 71,
      "time": 117.75,
      "duration": 0.375,
      "velocity": 0.71,
      "hand": "right"
    },
    {
      "midi": 59,
      "time": 118.125,
      "duration": 0.375,
      "velocity": 0.71,
      "hand": "left"
    },
    {
      "midi": 71,
      "time": 118.125,
      "duration": 0.375,
      "velocity": 0.71,
      "hand": "right"
    },
    {
      "midi": 35,
      "time": 118.5,
      "duration": 1.5,
      "velocity": 0.71,
      "hand": "left"
    },
    {
      "midi": 47,
      "time": 118.5,
      "duration": 1.5,
      "velocity": 0.71,
      "hand": "left"
    },
    {
      "midi": 59,
      "time": 118.5,
      "duration": 0.375,
      "velocity": 0.71,
      "hand": "left"
    },
    {
      "midi": 63,
      "time": 118.5,
      "duration": 1.5,
      "velocity": 0.71,
      "hand": "right"
    },
    {
      "midi": 68,
      "time": 118.5,
      "duration": 1.5,
      "velocity": 0.71,
      "hand": "right"
    },
    {
      "midi": 71,
      "time": 118.5,
      "duration": 0.375,
      "velocity": 0.71,
      "hand": "right"
    },
    {
      "midi": 59,
      "time": 118.875,
      "duration": 0.375,
      "velocity": 0.71,
      "hand": "left"
    },
    {
      "midi": 71,
      "time": 118.875,
      "duration": 0.375,
      "velocity": 0.71,
      "hand": "right"
    },
    {
      "midi": 59,
      "time": 119.25,
      "duration": 0.375,
      "velocity": 0.71,
      "hand": "left"
    },
    {
      "midi": 71,
      "time": 119.25,
      "duration": 0.375,
      "velocity": 0.71,
      "hand": "right"
    },
    {
      "midi": 59,
      "time": 119.625,
      "duration": 0.375,
      "velocity": 0.71,
      "hand": "left"
    },
    {
      "midi": 71,
      "time": 119.625,
      "duration": 0.375,
      "velocity": 0.71,
      "hand": "right"
    },
    {
      "midi": 28,
      "time": 120,
      "duration": 1.5,
      "velocity": 0.71,
      "hand": "left"
    },
    {
      "midi": 40,
      "time": 120,
      "duration": 1.5,
      "velocity": 0.71,
      "hand": "left"
    },
    {
      "midi": 59,
      "time": 120,
      "duration": 0.375,
      "velocity": 0.71,
      "hand": "left"
    },
    {
      "midi": 64,
      "time": 120,
      "duration": 1.5,
      "velocity": 0.71,
      "hand": "right"
    },
    {
      "midi": 68,
      "time": 120,
      "duration": 1.5,
      "velocity": 0.71,
      "hand": "right"
    },
    {
      "midi": 71,
      "time": 120,
      "duration": 0.375,
      "velocity": 0.71,
      "hand": "right"
    },
    {
      "midi": 59,
      "time": 120.375,
      "duration": 0.375,
      "velocity": 0.71,
      "hand": "left"
    },
    {
      "midi": 71,
      "time": 120.375,
      "duration": 0.375,
      "velocity": 0.71,
      "hand": "right"
    },
    {
      "midi": 59,
      "time": 120.75,
      "duration": 0.375,
      "velocity": 0.71,
      "hand": "left"
    },
    {
      "midi": 71,
      "time": 120.75,
      "duration": 0.375,
      "velocity": 0.71,
      "hand": "right"
    },
    {
      "midi": 59,
      "time": 121.125,
      "duration": 0.375,
      "velocity": 0.71,
      "hand": "left"
    },
    {
      "midi": 71,
      "time": 121.125,
      "duration": 0.375,
      "velocity": 0.71,
      "hand": "right"
    },
    {
      "midi": 35,
      "time": 121.5,
      "duration": 1.125,
      "velocity": 0.71,
      "hand": "left"
    },
    {
      "midi": 47,
      "time": 121.5,
      "duration": 1.125,
      "velocity": 0.71,
      "hand": "left"
    },
    {
      "midi": 59,
      "time": 121.5,
      "duration": 0.375,
      "velocity": 0.71,
      "hand": "left"
    },
    {
      "midi": 63,
      "time": 121.5,
      "duration": 1.5,
      "velocity": 0.71,
      "hand": "right"
    },
    {
      "midi": 68,
      "time": 121.5,
      "duration": 1.5,
      "velocity": 0.71,
      "hand": "right"
    },
    {
      "midi": 71,
      "time": 121.5,
      "duration": 0.375,
      "velocity": 0.71,
      "hand": "right"
    },
    {
      "midi": 59,
      "time": 121.875,
      "duration": 0.375,
      "velocity": 0.71,
      "hand": "left"
    },
    {
      "midi": 71,
      "time": 121.875,
      "duration": 0.375,
      "velocity": 0.71,
      "hand": "right"
    },
    {
      "midi": 59,
      "time": 122.25,
      "duration": 0.375,
      "velocity": 0.71,
      "hand": "left"
    },
    {
      "midi": 71,
      "time": 122.25,
      "duration": 0.375,
      "velocity": 0.71,
      "hand": "right"
    },
    {
      "midi": 34,
      "time": 122.625,
      "duration": 0.375,
      "velocity": 0.71,
      "hand": "left"
    },
    {
      "midi": 46,
      "time": 122.625,
      "duration": 0.375,
      "velocity": 0.71,
      "hand": "left"
    },
    {
      "midi": 59,
      "time": 122.625,
      "duration": 0.375,
      "velocity": 0.71,
      "hand": "left"
    },
    {
      "midi": 71,
      "time": 122.625,
      "duration": 0.375,
      "velocity": 0.71,
      "hand": "right"
    },
    {
      "midi": 32,
      "time": 123,
      "duration": 1.5,
      "velocity": 0.71,
      "hand": "left"
    },
    {
      "midi": 44,
      "time": 123,
      "duration": 1.5,
      "velocity": 0.71,
      "hand": "left"
    },
    {
      "midi": 59,
      "time": 123,
      "duration": 0.375,
      "velocity": 0.71,
      "hand": "left"
    },
    {
      "midi": 63,
      "time": 123,
      "duration": 1.5,
      "velocity": 0.71,
      "hand": "right"
    },
    {
      "midi": 68,
      "time": 123,
      "duration": 1.5,
      "velocity": 0.71,
      "hand": "right"
    },
    {
      "midi": 71,
      "time": 123,
      "duration": 0.375,
      "velocity": 0.71,
      "hand": "right"
    },
    {
      "midi": 59,
      "time": 123.375,
      "duration": 0.375,
      "velocity": 0.71,
      "hand": "left"
    },
    {
      "midi": 71,
      "time": 123.375,
      "duration": 0.375,
      "velocity": 0.71,
      "hand": "right"
    },
    {
      "midi": 59,
      "time": 123.75,
      "duration": 0.375,
      "velocity": 0.71,
      "hand": "left"
    },
    {
      "midi": 71,
      "time": 123.75,
      "duration": 0.375,
      "velocity": 0.71,
      "hand": "right"
    },
    {
      "midi": 59,
      "time": 124.125,
      "duration": 0.375,
      "velocity": 0.71,
      "hand": "left"
    },
    {
      "midi": 71,
      "time": 124.125,
      "duration": 0.375,
      "velocity": 0.71,
      "hand": "right"
    },
    {
      "midi": 39,
      "time": 124.5,
      "duration": 1.5,
      "velocity": 0.71,
      "hand": "left"
    },
    {
      "midi": 51,
      "time": 124.5,
      "duration": 1.5,
      "velocity": 0.71,
      "hand": "left"
    },
    {
      "midi": 59,
      "time": 124.5,
      "duration": 0.375,
      "velocity": 0.71,
      "hand": "left"
    },
    {
      "midi": 63,
      "time": 124.5,
      "duration": 1.5,
      "velocity": 0.71,
      "hand": "right"
    },
    {
      "midi": 67,
      "time": 124.5,
      "duration": 1.5,
      "velocity": 0.71,
      "hand": "right"
    },
    {
      "midi": 71,
      "time": 124.5,
      "duration": 0.375,
      "velocity": 0.71,
      "hand": "right"
    },
    {
      "midi": 59,
      "time": 124.875,
      "duration": 0.375,
      "velocity": 0.71,
      "hand": "left"
    },
    {
      "midi": 71,
      "time": 124.875,
      "duration": 0.375,
      "velocity": 0.71,
      "hand": "right"
    },
    {
      "midi": 59,
      "time": 125.25,
      "duration": 0.375,
      "velocity": 0.71,
      "hand": "left"
    },
    {
      "midi": 71,
      "time": 125.25,
      "duration": 0.375,
      "velocity": 0.71,
      "hand": "right"
    },
    {
      "midi": 59,
      "time": 125.625,
      "duration": 0.375,
      "velocity": 0.71,
      "hand": "left"
    },
    {
      "midi": 71,
      "time": 125.625,
      "duration": 0.375,
      "velocity": 0.71,
      "hand": "right"
    },
    {
      "midi": 32,
      "time": 126,
      "duration": 1.5,
      "velocity": 0.71,
      "hand": "left"
    },
    {
      "midi": 44,
      "time": 126,
      "duration": 1.5,
      "velocity": 0.71,
      "hand": "left"
    },
    {
      "midi": 59,
      "time": 126,
      "duration": 0.375,
      "velocity": 0.71,
      "hand": "left"
    },
    {
      "midi": 63,
      "time": 126,
      "duration": 0.375,
      "velocity": 0.71,
      "hand": "right"
    },
    {
      "midi": 68,
      "time": 126,
      "duration": 0.375,
      "velocity": 0.71,
      "hand": "right"
    },
    {
      "midi": 71,
      "time": 126,
      "duration": 0.375,
      "velocity": 0.71,
      "hand": "right"
    },
    {
      "midi": 56,
      "time": 126.375,
      "duration": 0.375,
      "velocity": 0.71,
      "hand": "left"
    },
    {
      "midi": 56,
      "time": 126.75,
      "duration": 0.375,
      "velocity": 0.71,
      "hand": "left"
    },
    {
      "midi": 56,
      "time": 127.125,
      "duration": 0.375,
      "velocity": 0.71,
      "hand": "left"
    },
    {
      "midi": 56,
      "time": 127.5,
      "duration": 0.375,
      "velocity": 0.71,
      "hand": "left"
    },
    {
      "midi": 56,
      "time": 127.875,
      "duration": 0.375,
      "velocity": 0.71,
      "hand": "left"
    },
    {
      "midi": 56,
      "time": 128.25,
      "duration": 0.375,
      "velocity": 0.71,
      "hand": "left"
    },
    {
      "midi": 56,
      "time": 128.625,
      "duration": 0.375,
      "velocity": 0.71,
      "hand": "left"
    },
    {
      "midi": 37,
      "time": 129,
      "duration": 0.75,
      "velocity": 0.71,
      "hand": "left"
    },
    {
      "midi": 44,
      "time": 129,
      "duration": 0.75,
      "velocity": 0.71,
      "hand": "left"
    },
    {
      "midi": 56,
      "time": 129,
      "duration": 0.375,
      "velocity": 0.71,
      "hand": "left"
    },
    {
      "midi": 56,
      "time": 129.375,
      "duration": 0.375,
      "velocity": 0.71,
      "hand": "left"
    },
    {
      "midi": 39,
      "time": 129.75,
      "duration": 0.75,
      "velocity": 0.71,
      "hand": "left"
    },
    {
      "midi": 44,
      "time": 129.75,
      "duration": 0.75,
      "velocity": 0.71,
      "hand": "left"
    },
    {
      "midi": 56,
      "time": 129.75,
      "duration": 0.375,
      "velocity": 0.71,
      "hand": "left"
    },
    {
      "midi": 56,
      "time": 130.125,
      "duration": 0.375,
      "velocity": 0.71,
      "hand": "left"
    },
    {
      "midi": 40,
      "time": 130.5,
      "duration": 0.75,
      "velocity": 0.71,
      "hand": "left"
    },
    {
      "midi": 49,
      "time": 130.5,
      "duration": 0.75,
      "velocity": 0.71,
      "hand": "left"
    },
    {
      "midi": 56,
      "time": 130.5,
      "duration": 0.375,
      "velocity": 0.71,
      "hand": "left"
    },
    {
      "midi": 56,
      "time": 130.875,
      "duration": 0.375,
      "velocity": 0.71,
      "hand": "left"
    },
    {
      "midi": 39,
      "time": 131.25,
      "duration": 0.75,
      "velocity": 0.71,
      "hand": "left"
    },
    {
      "midi": 48,
      "time": 131.25,
      "duration": 0.75,
      "velocity": 0.71,
      "hand": "left"
    },
    {
      "midi": 56,
      "time": 131.25,
      "duration": 0.375,
      "velocity": 0.71,
      "hand": "left"
    },
    {
      "midi": 56,
      "time": 131.625,
      "duration": 0.375,
      "velocity": 0.71,
      "hand": "left"
    },
    {
      "midi": 39,
      "time": 132,
      "duration": 0.75,
      "velocity": 0.71,
      "hand": "left"
    },
    {
      "midi": 44,
      "time": 132,
      "duration": 0.75,
      "velocity": 0.71,
      "hand": "left"
    },
    {
      "midi": 56,
      "time": 132,
      "duration": 0.375,
      "velocity": 0.71,
      "hand": "left"
    },
    {
      "midi": 56,
      "time": 132.375,
      "duration": 0.375,
      "velocity": 0.71,
      "hand": "left"
    },
    {
      "midi": 40,
      "time": 132.75,
      "duration": 0.75,
      "velocity": 0.71,
      "hand": "left"
    },
    {
      "midi": 44,
      "time": 132.75,
      "duration": 0.75,
      "velocity": 0.71,
      "hand": "left"
    },
    {
      "midi": 56,
      "time": 132.75,
      "duration": 0.375,
      "velocity": 0.71,
      "hand": "left"
    },
    {
      "midi": 56,
      "time": 133.125,
      "duration": 0.375,
      "velocity": 0.71,
      "hand": "left"
    },
    {
      "midi": 42,
      "time": 133.5,
      "duration": 0.75,
      "velocity": 0.71,
      "hand": "left"
    },
    {
      "midi": 51,
      "time": 133.5,
      "duration": 0.75,
      "velocity": 0.71,
      "hand": "left"
    },
    {
      "midi": 56,
      "time": 133.5,
      "duration": 0.375,
      "velocity": 0.71,
      "hand": "left"
    },
    {
      "midi": 56,
      "time": 133.875,
      "duration": 0.375,
      "velocity": 0.71,
      "hand": "left"
    },
    {
      "midi": 40,
      "time": 134.25,
      "duration": 0.75,
      "velocity": 0.71,
      "hand": "left"
    },
    {
      "midi": 49,
      "time": 134.25,
      "duration": 0.75,
      "velocity": 0.71,
      "hand": "left"
    },
    {
      "midi": 56,
      "time": 134.25,
      "duration": 0.375,
      "velocity": 0.71,
      "hand": "left"
    },
    {
      "midi": 56,
      "time": 134.625,
      "duration": 0.375,
      "velocity": 0.71,
      "hand": "left"
    },
    {
      "midi": 40,
      "time": 135,
      "duration": 0.75,
      "velocity": 0.71,
      "hand": "left"
    },
    {
      "midi": 49,
      "time": 135,
      "duration": 0.75,
      "velocity": 0.71,
      "hand": "left"
    },
    {
      "midi": 56,
      "time": 135,
      "duration": 0.375,
      "velocity": 0.71,
      "hand": "left"
    },
    {
      "midi": 56,
      "time": 135.375,
      "duration": 0.375,
      "velocity": 0.71,
      "hand": "left"
    },
    {
      "midi": 44,
      "time": 135.75,
      "duration": 0.75,
      "velocity": 0.71,
      "hand": "left"
    },
    {
      "midi": 51,
      "time": 135.75,
      "duration": 0.75,
      "velocity": 0.71,
      "hand": "left"
    },
    {
      "midi": 56,
      "time": 135.75,
      "duration": 0.375,
      "velocity": 0.71,
      "hand": "left"
    },
    {
      "midi": 56,
      "time": 136.125,
      "duration": 0.375,
      "velocity": 0.71,
      "hand": "left"
    },
    {
      "midi": 49,
      "time": 136.5,
      "duration": 0.75,
      "velocity": 0.71,
      "hand": "left"
    },
    {
      "midi": 52,
      "time": 136.5,
      "duration": 0.75,
      "velocity": 0.71,
      "hand": "left"
    },
    {
      "midi": 56,
      "time": 136.5,
      "duration": 0.375,
      "velocity": 0.71,
      "hand": "left"
    },
    {
      "midi": 56,
      "time": 136.875,
      "duration": 0.375,
      "velocity": 0.71,
      "hand": "left"
    },
    {
      "midi": 44,
      "time": 137.25,
      "duration": 0.75,
      "velocity": 0.71,
      "hand": "left"
    },
    {
      "midi": 51,
      "time": 137.25,
      "duration": 0.75,
      "velocity": 0.71,
      "hand": "left"
    },
    {
      "midi": 56,
      "time": 137.25,
      "duration": 0.375,
      "velocity": 0.71,
      "hand": "left"
    },
    {
      "midi": 56,
      "time": 137.625,
      "duration": 0.375,
      "velocity": 0.71,
      "hand": "left"
    },
    {
      "midi": 44,
      "time": 138,
      "duration": 3.75,
      "velocity": 0.71,
      "hand": "left"
    },
    {
      "midi": 51,
      "time": 138,
      "duration": 3.75,
      "velocity": 0.71,
      "hand": "left"
    },
    {
      "midi": 56,
      "time": 138,
      "duration": 0.375,
      "velocity": 0.71,
      "hand": "left"
    },
    {
      "midi": 56,
      "time": 138.375,
      "duration": 0.375,
      "velocity": 0.71,
      "hand": "left"
    },
    {
      "midi": 56,
      "time": 138.75,
      "duration": 0.375,
      "velocity": 0.71,
      "hand": "left"
    },
    {
      "midi": 56,
      "time": 139.125,
      "duration": 0.375,
      "velocity": 0.71,
      "hand": "left"
    },
    {
      "midi": 56,
      "time": 139.5,
      "duration": 0.375,
      "velocity": 0.71,
      "hand": "left"
    },
    {
      "midi": 56,
      "time": 139.875,
      "duration": 0.375,
      "velocity": 0.71,
      "hand": "left"
    },
    {
      "midi": 56,
      "time": 140.25,
      "duration": 0.375,
      "velocity": 0.71,
      "hand": "left"
    },
    {
      "midi": 56,
      "time": 140.625,
      "duration": 0.375,
      "velocity": 0.71,
      "hand": "left"
    },
    {
      "midi": 56,
      "time": 141,
      "duration": 0.375,
      "velocity": 0.71,
      "hand": "left"
    },
    {
      "midi": 56,
      "time": 141.375,
      "duration": 0.375,
      "velocity": 0.71,
      "hand": "left"
    },
    {
      "midi": 49,
      "time": 141.75,
      "duration": 0.75,
      "velocity": 0.71,
      "hand": "left"
    },
    {
      "midi": 52,
      "time": 141.75,
      "duration": 0.75,
      "velocity": 0.71,
      "hand": "left"
    },
    {
      "midi": 56,
      "time": 141.75,
      "duration": 0.375,
      "velocity": 0.71,
      "hand": "left"
    },
    {
      "midi": 56,
      "time": 142.125,
      "duration": 0.375,
      "velocity": 0.71,
      "hand": "left"
    },
    {
      "midi": 44,
      "time": 142.5,
      "duration": 0.75,
      "velocity": 0.71,
      "hand": "left"
    },
    {
      "midi": 51,
      "time": 142.5,
      "duration": 0.75,
      "velocity": 0.71,
      "hand": "left"
    },
    {
      "midi": 56,
      "time": 142.5,
      "duration": 0.375,
      "velocity": 0.71,
      "hand": "left"
    },
    {
      "midi": 56,
      "time": 142.875,
      "duration": 0.375,
      "velocity": 0.71,
      "hand": "left"
    },
    {
      "midi": 40,
      "time": 143.25,
      "duration": 0.75,
      "velocity": 0.71,
      "hand": "left"
    },
    {
      "midi": 49,
      "time": 143.25,
      "duration": 0.75,
      "velocity": 0.71,
      "hand": "left"
    },
    {
      "midi": 56,
      "time": 143.25,
      "duration": 0.375,
      "velocity": 0.71,
      "hand": "left"
    },
    {
      "midi": 56,
      "time": 143.625,
      "duration": 0.375,
      "velocity": 0.71,
      "hand": "left"
    },
    {
      "midi": 44,
      "time": 144,
      "duration": 0.75,
      "velocity": 0.71,
      "hand": "left"
    },
    {
      "midi": 51,
      "time": 144,
      "duration": 0.75,
      "velocity": 0.71,
      "hand": "left"
    },
    {
      "midi": 56,
      "time": 144,
      "duration": 0.375,
      "velocity": 0.71,
      "hand": "left"
    },
    {
      "midi": 56,
      "time": 144.375,
      "duration": 0.375,
      "velocity": 0.71,
      "hand": "left"
    },
    {
      "midi": 40,
      "time": 144.75,
      "duration": 0.75,
      "velocity": 0.71,
      "hand": "left"
    },
    {
      "midi": 49,
      "time": 144.75,
      "duration": 0.75,
      "velocity": 0.71,
      "hand": "left"
    },
    {
      "midi": 56,
      "time": 144.75,
      "duration": 0.375,
      "velocity": 0.71,
      "hand": "left"
    },
    {
      "midi": 56,
      "time": 145.125,
      "duration": 0.375,
      "velocity": 0.71,
      "hand": "left"
    },
    {
      "midi": 39,
      "time": 145.5,
      "duration": 0.75,
      "velocity": 0.71,
      "hand": "left"
    },
    {
      "midi": 48,
      "time": 145.5,
      "duration": 0.75,
      "velocity": 0.71,
      "hand": "left"
    },
    {
      "midi": 56,
      "time": 145.5,
      "duration": 0.375,
      "velocity": 0.71,
      "hand": "left"
    },
    {
      "midi": 56,
      "time": 145.875,
      "duration": 0.375,
      "velocity": 0.71,
      "hand": "left"
    },
    {
      "midi": 40,
      "time": 146.25,
      "duration": 0.75,
      "velocity": 0.71,
      "hand": "left"
    },
    {
      "midi": 49,
      "time": 146.25,
      "duration": 0.75,
      "velocity": 0.71,
      "hand": "left"
    },
    {
      "midi": 56,
      "time": 146.25,
      "duration": 0.375,
      "velocity": 0.71,
      "hand": "left"
    },
    {
      "midi": 56,
      "time": 146.625,
      "duration": 0.375,
      "velocity": 0.71,
      "hand": "left"
    },
    {
      "midi": 39,
      "time": 147,
      "duration": 0.75,
      "velocity": 0.71,
      "hand": "left"
    },
    {
      "midi": 48,
      "time": 147,
      "duration": 0.75,
      "velocity": 0.71,
      "hand": "left"
    },
    {
      "midi": 56,
      "time": 147,
      "duration": 0.375,
      "velocity": 0.71,
      "hand": "left"
    },
    {
      "midi": 56,
      "time": 147.375,
      "duration": 0.375,
      "velocity": 0.71,
      "hand": "left"
    },
    {
      "midi": 40,
      "time": 147.75,
      "duration": 0.75,
      "velocity": 0.71,
      "hand": "left"
    },
    {
      "midi": 49,
      "time": 147.75,
      "duration": 0.75,
      "velocity": 0.71,
      "hand": "left"
    },
    {
      "midi": 56,
      "time": 147.75,
      "duration": 0.375,
      "velocity": 0.71,
      "hand": "left"
    },
    {
      "midi": 56,
      "time": 148.125,
      "duration": 0.375,
      "velocity": 0.71,
      "hand": "left"
    },
    {
      "midi": 39,
      "time": 148.5,
      "duration": 0.75,
      "velocity": 0.71,
      "hand": "left"
    },
    {
      "midi": 51,
      "time": 148.5,
      "duration": 0.75,
      "velocity": 0.71,
      "hand": "left"
    },
    {
      "midi": 56,
      "time": 148.5,
      "duration": 0.375,
      "velocity": 0.71,
      "hand": "left"
    },
    {
      "midi": 56,
      "time": 148.875,
      "duration": 0.375,
      "velocity": 0.71,
      "hand": "left"
    },
    {
      "midi": 37,
      "time": 149.25,
      "duration": 0.75,
      "velocity": 0.71,
      "hand": "left"
    },
    {
      "midi": 52,
      "time": 149.25,
      "duration": 0.75,
      "velocity": 0.71,
      "hand": "left"
    },
    {
      "midi": 56,
      "time": 149.25,
      "duration": 0.375,
      "velocity": 0.71,
      "hand": "left"
    },
    {
      "midi": 56,
      "time": 149.625,
      "duration": 0.375,
      "velocity": 0.71,
      "hand": "left"
    },
    {
      "midi": 44,
      "time": 150,
      "duration": 3,
      "velocity": 0.71,
      "hand": "left"
    },
    {
      "midi": 51,
      "time": 150,
      "duration": 3,
      "velocity": 0.71,
      "hand": "left"
    },
    {
      "midi": 56,
      "time": 150,
      "duration": 0.375,
      "velocity": 0.71,
      "hand": "left"
    },
    {
      "midi": 56,
      "time": 150.375,
      "duration": 0.375,
      "velocity": 0.71,
      "hand": "left"
    },
    {
      "midi": 68,
      "time": 150.375,
      "duration": 0.375,
      "velocity": 0.71,
      "hand": "right"
    },
    {
      "midi": 56,
      "time": 150.75,
      "duration": 0.375,
      "velocity": 0.71,
      "hand": "left"
    },
    {
      "midi": 68,
      "time": 150.75,
      "duration": 0.375,
      "velocity": 0.71,
      "hand": "right"
    },
    {
      "midi": 56,
      "time": 151.125,
      "duration": 0.375,
      "velocity": 0.71,
      "hand": "left"
    },
    {
      "midi": 68,
      "time": 151.125,
      "duration": 0.375,
      "velocity": 0.71,
      "hand": "right"
    },
    {
      "midi": 56,
      "time": 151.5,
      "duration": 0.375,
      "velocity": 0.71,
      "hand": "left"
    },
    {
      "midi": 68,
      "time": 151.5,
      "duration": 0.375,
      "velocity": 0.71,
      "hand": "right"
    },
    {
      "midi": 56,
      "time": 151.875,
      "duration": 0.375,
      "velocity": 0.71,
      "hand": "left"
    },
    {
      "midi": 68,
      "time": 151.875,
      "duration": 0.375,
      "velocity": 0.71,
      "hand": "right"
    },
    {
      "midi": 56,
      "time": 152.25,
      "duration": 0.375,
      "velocity": 0.71,
      "hand": "left"
    },
    {
      "midi": 68,
      "time": 152.25,
      "duration": 0.375,
      "velocity": 0.71,
      "hand": "right"
    },
    {
      "midi": 56,
      "time": 152.625,
      "duration": 0.375,
      "velocity": 0.71,
      "hand": "left"
    },
    {
      "midi": 68,
      "time": 152.625,
      "duration": 0.375,
      "velocity": 0.71,
      "hand": "right"
    },
    {
      "midi": 37,
      "time": 153,
      "duration": 0.75,
      "velocity": 0.71,
      "hand": "left"
    },
    {
      "midi": 44,
      "time": 153,
      "duration": 0.75,
      "velocity": 0.71,
      "hand": "left"
    },
    {
      "midi": 56,
      "time": 153,
      "duration": 0.375,
      "velocity": 0.71,
      "hand": "left"
    },
    {
      "midi": 68,
      "time": 153,
      "duration": 0.375,
      "velocity": 0.71,
      "hand": "right"
    },
    {
      "midi": 56,
      "time": 153.375,
      "duration": 0.375,
      "velocity": 0.71,
      "hand": "left"
    },
    {
      "midi": 68,
      "time": 153.375,
      "duration": 0.375,
      "velocity": 0.71,
      "hand": "right"
    },
    {
      "midi": 39,
      "time": 153.75,
      "duration": 0.75,
      "velocity": 0.71,
      "hand": "left"
    },
    {
      "midi": 44,
      "time": 153.75,
      "duration": 0.75,
      "velocity": 0.71,
      "hand": "left"
    },
    {
      "midi": 56,
      "time": 153.75,
      "duration": 0.375,
      "velocity": 0.71,
      "hand": "left"
    },
    {
      "midi": 68,
      "time": 153.75,
      "duration": 0.375,
      "velocity": 0.71,
      "hand": "right"
    },
    {
      "midi": 56,
      "time": 154.125,
      "duration": 0.375,
      "velocity": 0.71,
      "hand": "left"
    },
    {
      "midi": 68,
      "time": 154.125,
      "duration": 0.375,
      "velocity": 0.71,
      "hand": "right"
    },
    {
      "midi": 40,
      "time": 154.5,
      "duration": 0.75,
      "velocity": 0.71,
      "hand": "left"
    },
    {
      "midi": 49,
      "time": 154.5,
      "duration": 0.75,
      "velocity": 0.71,
      "hand": "left"
    },
    {
      "midi": 56,
      "time": 154.5,
      "duration": 0.375,
      "velocity": 0.71,
      "hand": "left"
    },
    {
      "midi": 61,
      "time": 154.5,
      "duration": 0.75,
      "velocity": 0.71,
      "hand": "right"
    },
    {
      "midi": 68,
      "time": 154.5,
      "duration": 0.375,
      "velocity": 0.71,
      "hand": "right"
    },
    {
      "midi": 56,
      "time": 154.875,
      "duration": 0.375,
      "velocity": 0.71,
      "hand": "left"
    },
    {
      "midi": 68,
      "time": 154.875,
      "duration": 0.375,
      "velocity": 0.71,
      "hand": "right"
    },
    {
      "midi": 39,
      "time": 155.25,
      "duration": 0.75,
      "velocity": 0.71,
      "hand": "left"
    },
    {
      "midi": 48,
      "time": 155.25,
      "duration": 0.75,
      "velocity": 0.71,
      "hand": "left"
    },
    {
      "midi": 56,
      "time": 155.25,
      "duration": 0.375,
      "velocity": 0.71,
      "hand": "left"
    },
    {
      "midi": 60,
      "time": 155.25,
      "duration": 0.75,
      "velocity": 0.71,
      "hand": "right"
    },
    {
      "midi": 68,
      "time": 155.25,
      "duration": 0.375,
      "velocity": 0.71,
      "hand": "right"
    },
    {
      "midi": 56,
      "time": 155.625,
      "duration": 0.375,
      "velocity": 0.71,
      "hand": "left"
    },
    {
      "midi": 68,
      "time": 155.625,
      "duration": 0.375,
      "velocity": 0.71,
      "hand": "right"
    },
    {
      "midi": 39,
      "time": 156,
      "duration": 0.75,
      "velocity": 0.71,
      "hand": "left"
    },
    {
      "midi": 44,
      "time": 156,
      "duration": 0.75,
      "velocity": 0.71,
      "hand": "left"
    },
    {
      "midi": 56,
      "time": 156,
      "duration": 0.375,
      "velocity": 0.71,
      "hand": "left"
    },
    {
      "midi": 68,
      "time": 156,
      "duration": 0.375,
      "velocity": 0.71,
      "hand": "right"
    },
    {
      "midi": 56,
      "time": 156.375,
      "duration": 0.375,
      "velocity": 0.71,
      "hand": "left"
    },
    {
      "midi": 68,
      "time": 156.375,
      "duration": 0.375,
      "velocity": 0.71,
      "hand": "right"
    },
    {
      "midi": 40,
      "time": 156.75,
      "duration": 0.75,
      "velocity": 0.71,
      "hand": "left"
    },
    {
      "midi": 44,
      "time": 156.75,
      "duration": 0.75,
      "velocity": 0.71,
      "hand": "left"
    },
    {
      "midi": 56,
      "time": 156.75,
      "duration": 0.375,
      "velocity": 0.71,
      "hand": "left"
    },
    {
      "midi": 68,
      "time": 156.75,
      "duration": 0.375,
      "velocity": 0.71,
      "hand": "right"
    },
    {
      "midi": 56,
      "time": 157.125,
      "duration": 0.375,
      "velocity": 0.71,
      "hand": "left"
    },
    {
      "midi": 68,
      "time": 157.125,
      "duration": 0.375,
      "velocity": 0.71,
      "hand": "right"
    },
    {
      "midi": 42,
      "time": 157.5,
      "duration": 0.75,
      "velocity": 0.71,
      "hand": "left"
    },
    {
      "midi": 51,
      "time": 157.5,
      "duration": 0.75,
      "velocity": 0.71,
      "hand": "left"
    },
    {
      "midi": 56,
      "time": 157.5,
      "duration": 0.375,
      "velocity": 0.71,
      "hand": "left"
    },
    {
      "midi": 63,
      "time": 157.5,
      "duration": 0.75,
      "velocity": 0.71,
      "hand": "right"
    },
    {
      "midi": 68,
      "time": 157.5,
      "duration": 0.375,
      "velocity": 0.71,
      "hand": "right"
    },
    {
      "midi": 56,
      "time": 157.875,
      "duration": 0.375,
      "velocity": 0.71,
      "hand": "left"
    },
    {
      "midi": 68,
      "time": 157.875,
      "duration": 0.375,
      "velocity": 0.71,
      "hand": "right"
    },
    {
      "midi": 40,
      "time": 158.25,
      "duration": 0.75,
      "velocity": 0.71,
      "hand": "left"
    },
    {
      "midi": 49,
      "time": 158.25,
      "duration": 0.75,
      "velocity": 0.71,
      "hand": "left"
    },
    {
      "midi": 56,
      "time": 158.25,
      "duration": 0.375,
      "velocity": 0.71,
      "hand": "left"
    },
    {
      "midi": 61,
      "time": 158.25,
      "duration": 1.5,
      "velocity": 0.71,
      "hand": "right"
    },
    {
      "midi": 68,
      "time": 158.25,
      "duration": 0.375,
      "velocity": 0.71,
      "hand": "right"
    },
    {
      "midi": 56,
      "time": 158.625,
      "duration": 0.375,
      "velocity": 0.71,
      "hand": "left"
    },
    {
      "midi": 68,
      "time": 158.625,
      "duration": 0.375,
      "velocity": 0.71,
      "hand": "right"
    },
    {
      "midi": 40,
      "time": 159,
      "duration": 0.75,
      "velocity": 0.71,
      "hand": "left"
    },
    {
      "midi": 49,
      "time": 159,
      "duration": 0.75,
      "velocity": 0.71,
      "hand": "left"
    },
    {
      "midi": 56,
      "time": 159,
      "duration": 0.375,
      "velocity": 0.71,
      "hand": "left"
    },
    {
      "midi": 68,
      "time": 159,
      "duration": 0.375,
      "velocity": 0.71,
      "hand": "right"
    },
    {
      "midi": 56,
      "time": 159.375,
      "duration": 0.375,
      "velocity": 0.71,
      "hand": "left"
    },
    {
      "midi": 68,
      "time": 159.375,
      "duration": 0.375,
      "velocity": 0.71,
      "hand": "right"
    },
    {
      "midi": 44,
      "time": 159.75,
      "duration": 0.75,
      "velocity": 0.71,
      "hand": "left"
    },
    {
      "midi": 51,
      "time": 159.75,
      "duration": 0.75,
      "velocity": 0.71,
      "hand": "left"
    },
    {
      "midi": 56,
      "time": 159.75,
      "duration": 0.375,
      "velocity": 0.71,
      "hand": "left"
    },
    {
      "midi": 63,
      "time": 159.75,
      "duration": 0.75,
      "velocity": 0.71,
      "hand": "right"
    },
    {
      "midi": 68,
      "time": 159.75,
      "duration": 0.375,
      "velocity": 0.71,
      "hand": "right"
    },
    {
      "midi": 56,
      "time": 160.125,
      "duration": 0.375,
      "velocity": 0.71,
      "hand": "left"
    },
    {
      "midi": 68,
      "time": 160.125,
      "duration": 0.375,
      "velocity": 0.71,
      "hand": "right"
    },
    {
      "midi": 49,
      "time": 160.5,
      "duration": 0.75,
      "velocity": 0.71,
      "hand": "left"
    },
    {
      "midi": 52,
      "time": 160.5,
      "duration": 0.75,
      "velocity": 0.71,
      "hand": "left"
    },
    {
      "midi": 56,
      "time": 160.5,
      "duration": 0.375,
      "velocity": 0.71,
      "hand": "left"
    },
    {
      "midi": 64,
      "time": 160.5,
      "duration": 0.75,
      "velocity": 0.71,
      "hand": "right"
    },
    {
      "midi": 68,
      "time": 160.5,
      "duration": 0.375,
      "velocity": 0.71,
      "hand": "right"
    },
    {
      "midi": 56,
      "time": 160.875,
      "duration": 0.375,
      "velocity": 0.71,
      "hand": "left"
    },
    {
      "midi": 68,
      "time": 160.875,
      "duration": 0.375,
      "velocity": 0.71,
      "hand": "right"
    },
    {
      "midi": 44,
      "time": 161.25,
      "duration": 0.75,
      "velocity": 0.71,
      "hand": "left"
    },
    {
      "midi": 51,
      "time": 161.25,
      "duration": 0.75,
      "velocity": 0.71,
      "hand": "left"
    },
    {
      "midi": 56,
      "time": 161.25,
      "duration": 0.375,
      "velocity": 0.71,
      "hand": "left"
    },
    {
      "midi": 63,
      "time": 161.25,
      "duration": 0.75,
      "velocity": 0.71,
      "hand": "right"
    },
    {
      "midi": 68,
      "time": 161.25,
      "duration": 0.375,
      "velocity": 0.71,
      "hand": "right"
    },
    {
      "midi": 56,
      "time": 161.625,
      "duration": 0.375,
      "velocity": 0.71,
      "hand": "left"
    },
    {
      "midi": 68,
      "time": 161.625,
      "duration": 0.375,
      "velocity": 0.71,
      "hand": "right"
    },
    {
      "midi": 32,
      "time": 162,
      "duration": 0.094,
      "velocity": 0.71,
      "hand": "left"
    },
    {
      "midi": 44,
      "time": 162,
      "duration": 3,
      "velocity": 0.71,
      "hand": "left"
    },
    {
      "midi": 51,
      "time": 162,
      "duration": 3,
      "velocity": 0.71,
      "hand": "left"
    },
    {
      "midi": 56,
      "time": 162,
      "duration": 0.375,
      "velocity": 0.71,
      "hand": "left"
    },
    {
      "midi": 63,
      "time": 162,
      "duration": 3,
      "velocity": 0.71,
      "hand": "right"
    },
    {
      "midi": 68,
      "time": 162,
      "duration": 0.375,
      "velocity": 0.71,
      "hand": "right"
    },
    {
      "midi": 56,
      "time": 162.375,
      "duration": 0.375,
      "velocity": 0.71,
      "hand": "left"
    },
    {
      "midi": 68,
      "time": 162.375,
      "duration": 0.375,
      "velocity": 0.71,
      "hand": "right"
    },
    {
      "midi": 56,
      "time": 162.75,
      "duration": 0.375,
      "velocity": 0.71,
      "hand": "left"
    },
    {
      "midi": 68,
      "time": 162.75,
      "duration": 0.375,
      "velocity": 0.71,
      "hand": "right"
    },
    {
      "midi": 56,
      "time": 163.125,
      "duration": 0.375,
      "velocity": 0.71,
      "hand": "left"
    },
    {
      "midi": 68,
      "time": 163.125,
      "duration": 0.375,
      "velocity": 0.71,
      "hand": "right"
    },
    {
      "midi": 56,
      "time": 163.5,
      "duration": 0.375,
      "velocity": 0.71,
      "hand": "left"
    },
    {
      "midi": 68,
      "time": 163.5,
      "duration": 0.375,
      "velocity": 0.71,
      "hand": "right"
    },
    {
      "midi": 56,
      "time": 163.875,
      "duration": 0.375,
      "velocity": 0.71,
      "hand": "left"
    },
    {
      "midi": 68,
      "time": 163.875,
      "duration": 0.375,
      "velocity": 0.71,
      "hand": "right"
    },
    {
      "midi": 56,
      "time": 164.25,
      "duration": 0.375,
      "velocity": 0.71,
      "hand": "left"
    },
    {
      "midi": 68,
      "time": 164.25,
      "duration": 0.375,
      "velocity": 0.71,
      "hand": "right"
    },
    {
      "midi": 56,
      "time": 164.625,
      "duration": 0.375,
      "velocity": 0.71,
      "hand": "left"
    },
    {
      "midi": 68,
      "time": 164.625,
      "duration": 0.375,
      "velocity": 0.71,
      "hand": "right"
    },
    {
      "midi": 28,
      "time": 165,
      "duration": 1.5,
      "velocity": 0.71,
      "hand": "left"
    },
    {
      "midi": 40,
      "time": 165,
      "duration": 1.5,
      "velocity": 0.71,
      "hand": "left"
    },
    {
      "midi": 59,
      "time": 165,
      "duration": 0.375,
      "velocity": 0.71,
      "hand": "left"
    },
    {
      "midi": 64,
      "time": 165,
      "duration": 1.5,
      "velocity": 0.71,
      "hand": "right"
    },
    {
      "midi": 68,
      "time": 165,
      "duration": 1.5,
      "velocity": 0.71,
      "hand": "right"
    },
    {
      "midi": 71,
      "time": 165,
      "duration": 0.375,
      "velocity": 0.71,
      "hand": "right"
    },
    {
      "midi": 59,
      "time": 165.375,
      "duration": 0.375,
      "velocity": 0.71,
      "hand": "left"
    },
    {
      "midi": 71,
      "time": 165.375,
      "duration": 0.375,
      "velocity": 0.71,
      "hand": "right"
    },
    {
      "midi": 59,
      "time": 165.75,
      "duration": 0.375,
      "velocity": 0.71,
      "hand": "left"
    },
    {
      "midi": 71,
      "time": 165.75,
      "duration": 0.375,
      "velocity": 0.71,
      "hand": "right"
    },
    {
      "midi": 59,
      "time": 166.125,
      "duration": 0.375,
      "velocity": 0.71,
      "hand": "left"
    },
    {
      "midi": 71,
      "time": 166.125,
      "duration": 0.375,
      "velocity": 0.71,
      "hand": "right"
    },
    {
      "midi": 35,
      "time": 166.5,
      "duration": 1.5,
      "velocity": 0.71,
      "hand": "left"
    },
    {
      "midi": 47,
      "time": 166.5,
      "duration": 1.5,
      "velocity": 0.71,
      "hand": "left"
    },
    {
      "midi": 59,
      "time": 166.5,
      "duration": 0.375,
      "velocity": 0.71,
      "hand": "left"
    },
    {
      "midi": 63,
      "time": 166.5,
      "duration": 1.5,
      "velocity": 0.71,
      "hand": "right"
    },
    {
      "midi": 68,
      "time": 166.5,
      "duration": 1.5,
      "velocity": 0.71,
      "hand": "right"
    },
    {
      "midi": 71,
      "time": 166.5,
      "duration": 0.375,
      "velocity": 0.71,
      "hand": "right"
    },
    {
      "midi": 59,
      "time": 166.875,
      "duration": 0.375,
      "velocity": 0.71,
      "hand": "left"
    },
    {
      "midi": 71,
      "time": 166.875,
      "duration": 0.375,
      "velocity": 0.71,
      "hand": "right"
    },
    {
      "midi": 59,
      "time": 167.25,
      "duration": 0.375,
      "velocity": 0.71,
      "hand": "left"
    },
    {
      "midi": 71,
      "time": 167.25,
      "duration": 0.375,
      "velocity": 0.71,
      "hand": "right"
    },
    {
      "midi": 59,
      "time": 167.625,
      "duration": 0.375,
      "velocity": 0.71,
      "hand": "left"
    },
    {
      "midi": 71,
      "time": 167.625,
      "duration": 0.375,
      "velocity": 0.71,
      "hand": "right"
    },
    {
      "midi": 28,
      "time": 168,
      "duration": 1.5,
      "velocity": 0.71,
      "hand": "left"
    },
    {
      "midi": 40,
      "time": 168,
      "duration": 1.5,
      "velocity": 0.71,
      "hand": "left"
    },
    {
      "midi": 59,
      "time": 168,
      "duration": 0.375,
      "velocity": 0.71,
      "hand": "left"
    },
    {
      "midi": 64,
      "time": 168,
      "duration": 1.5,
      "velocity": 0.71,
      "hand": "right"
    },
    {
      "midi": 68,
      "time": 168,
      "duration": 1.5,
      "velocity": 0.71,
      "hand": "right"
    },
    {
      "midi": 71,
      "time": 168,
      "duration": 0.375,
      "velocity": 0.71,
      "hand": "right"
    },
    {
      "midi": 59,
      "time": 168.375,
      "duration": 0.375,
      "velocity": 0.71,
      "hand": "left"
    },
    {
      "midi": 71,
      "time": 168.375,
      "duration": 0.375,
      "velocity": 0.71,
      "hand": "right"
    },
    {
      "midi": 59,
      "time": 168.75,
      "duration": 0.375,
      "velocity": 0.71,
      "hand": "left"
    },
    {
      "midi": 71,
      "time": 168.75,
      "duration": 0.375,
      "velocity": 0.71,
      "hand": "right"
    },
    {
      "midi": 59,
      "time": 169.125,
      "duration": 0.375,
      "velocity": 0.71,
      "hand": "left"
    },
    {
      "midi": 71,
      "time": 169.125,
      "duration": 0.375,
      "velocity": 0.71,
      "hand": "right"
    },
    {
      "midi": 35,
      "time": 169.5,
      "duration": 1.125,
      "velocity": 0.71,
      "hand": "left"
    },
    {
      "midi": 47,
      "time": 169.5,
      "duration": 1.125,
      "velocity": 0.71,
      "hand": "left"
    },
    {
      "midi": 59,
      "time": 169.5,
      "duration": 0.375,
      "velocity": 0.71,
      "hand": "left"
    },
    {
      "midi": 63,
      "time": 169.5,
      "duration": 1.5,
      "velocity": 0.71,
      "hand": "right"
    },
    {
      "midi": 68,
      "time": 169.5,
      "duration": 1.5,
      "velocity": 0.71,
      "hand": "right"
    },
    {
      "midi": 71,
      "time": 169.5,
      "duration": 0.375,
      "velocity": 0.71,
      "hand": "right"
    },
    {
      "midi": 59,
      "time": 169.875,
      "duration": 0.375,
      "velocity": 0.71,
      "hand": "left"
    },
    {
      "midi": 71,
      "time": 169.875,
      "duration": 0.375,
      "velocity": 0.71,
      "hand": "right"
    },
    {
      "midi": 59,
      "time": 170.25,
      "duration": 0.375,
      "velocity": 0.71,
      "hand": "left"
    },
    {
      "midi": 71,
      "time": 170.25,
      "duration": 0.375,
      "velocity": 0.71,
      "hand": "right"
    },
    {
      "midi": 34,
      "time": 170.625,
      "duration": 0.375,
      "velocity": 0.71,
      "hand": "left"
    },
    {
      "midi": 46,
      "time": 170.625,
      "duration": 0.375,
      "velocity": 0.71,
      "hand": "left"
    },
    {
      "midi": 59,
      "time": 170.625,
      "duration": 0.375,
      "velocity": 0.71,
      "hand": "left"
    },
    {
      "midi": 71,
      "time": 170.625,
      "duration": 0.375,
      "velocity": 0.71,
      "hand": "right"
    },
    {
      "midi": 32,
      "time": 171,
      "duration": 1.5,
      "velocity": 0.71,
      "hand": "left"
    },
    {
      "midi": 44,
      "time": 171,
      "duration": 1.5,
      "velocity": 0.71,
      "hand": "left"
    },
    {
      "midi": 59,
      "time": 171,
      "duration": 0.375,
      "velocity": 0.71,
      "hand": "left"
    },
    {
      "midi": 63,
      "time": 171,
      "duration": 1.5,
      "velocity": 0.71,
      "hand": "right"
    },
    {
      "midi": 68,
      "time": 171,
      "duration": 1.5,
      "velocity": 0.71,
      "hand": "right"
    },
    {
      "midi": 71,
      "time": 171,
      "duration": 0.375,
      "velocity": 0.71,
      "hand": "right"
    },
    {
      "midi": 59,
      "time": 171.375,
      "duration": 0.375,
      "velocity": 0.71,
      "hand": "left"
    },
    {
      "midi": 71,
      "time": 171.375,
      "duration": 0.375,
      "velocity": 0.71,
      "hand": "right"
    },
    {
      "midi": 59,
      "time": 171.75,
      "duration": 0.375,
      "velocity": 0.71,
      "hand": "left"
    },
    {
      "midi": 71,
      "time": 171.75,
      "duration": 0.375,
      "velocity": 0.71,
      "hand": "right"
    },
    {
      "midi": 59,
      "time": 172.125,
      "duration": 0.375,
      "velocity": 0.71,
      "hand": "left"
    },
    {
      "midi": 71,
      "time": 172.125,
      "duration": 0.375,
      "velocity": 0.71,
      "hand": "right"
    },
    {
      "midi": 39,
      "time": 172.5,
      "duration": 1.5,
      "velocity": 0.71,
      "hand": "left"
    },
    {
      "midi": 51,
      "time": 172.5,
      "duration": 1.5,
      "velocity": 0.71,
      "hand": "left"
    },
    {
      "midi": 59,
      "time": 172.5,
      "duration": 0.375,
      "velocity": 0.71,
      "hand": "left"
    },
    {
      "midi": 63,
      "time": 172.5,
      "duration": 1.5,
      "velocity": 0.71,
      "hand": "right"
    },
    {
      "midi": 67,
      "time": 172.5,
      "duration": 1.5,
      "velocity": 0.71,
      "hand": "right"
    },
    {
      "midi": 71,
      "time": 172.5,
      "duration": 0.375,
      "velocity": 0.71,
      "hand": "right"
    },
    {
      "midi": 59,
      "time": 172.875,
      "duration": 0.375,
      "velocity": 0.71,
      "hand": "left"
    },
    {
      "midi": 71,
      "time": 172.875,
      "duration": 0.375,
      "velocity": 0.71,
      "hand": "right"
    },
    {
      "midi": 59,
      "time": 173.25,
      "duration": 0.375,
      "velocity": 0.71,
      "hand": "left"
    },
    {
      "midi": 71,
      "time": 173.25,
      "duration": 0.375,
      "velocity": 0.71,
      "hand": "right"
    },
    {
      "midi": 59,
      "time": 173.625,
      "duration": 0.375,
      "velocity": 0.71,
      "hand": "left"
    },
    {
      "midi": 71,
      "time": 173.625,
      "duration": 0.375,
      "velocity": 0.71,
      "hand": "right"
    },
    {
      "midi": 32,
      "time": 174,
      "duration": 1.5,
      "velocity": 0.71,
      "hand": "left"
    },
    {
      "midi": 44,
      "time": 174,
      "duration": 1.5,
      "velocity": 0.71,
      "hand": "left"
    },
    {
      "midi": 59,
      "time": 174,
      "duration": 0.375,
      "velocity": 0.71,
      "hand": "left"
    },
    {
      "midi": 63,
      "time": 174,
      "duration": 0.375,
      "velocity": 0.71,
      "hand": "right"
    },
    {
      "midi": 68,
      "time": 174,
      "duration": 0.375,
      "velocity": 0.71,
      "hand": "right"
    },
    {
      "midi": 71,
      "time": 174,
      "duration": 0.375,
      "velocity": 0.71,
      "hand": "right"
    },
    {
      "midi": 68,
      "time": 174.375,
      "duration": 0.375,
      "velocity": 0.71,
      "hand": "right"
    },
    {
      "midi": 68,
      "time": 174.75,
      "duration": 0.375,
      "velocity": 0.71,
      "hand": "right"
    },
    {
      "midi": 68,
      "time": 175.125,
      "duration": 0.375,
      "velocity": 0.71,
      "hand": "right"
    },
    {
      "midi": 68,
      "time": 175.5,
      "duration": 0.375,
      "velocity": 0.71,
      "hand": "right"
    },
    {
      "midi": 68,
      "time": 175.875,
      "duration": 0.375,
      "velocity": 0.71,
      "hand": "right"
    },
    {
      "midi": 68,
      "time": 176.25,
      "duration": 0.375,
      "velocity": 0.71,
      "hand": "right"
    },
    {
      "midi": 68,
      "time": 176.625,
      "duration": 0.375,
      "velocity": 0.71,
      "hand": "right"
    },
    {
      "midi": 42,
      "time": 177,
      "duration": 1.5,
      "velocity": 0.71,
      "hand": "left"
    },
    {
      "midi": 44,
      "time": 177,
      "duration": 1.5,
      "velocity": 0.71,
      "hand": "left"
    },
    {
      "midi": 51,
      "time": 177,
      "duration": 1.5,
      "velocity": 0.71,
      "hand": "left"
    },
    {
      "midi": 60,
      "time": 177,
      "duration": 1.5,
      "velocity": 0.71,
      "hand": "right"
    },
    {
      "midi": 68,
      "time": 177,
      "duration": 0.375,
      "velocity": 0.71,
      "hand": "right"
    },
    {
      "midi": 72,
      "time": 177,
      "duration": 1.5,
      "velocity": 0.71,
      "hand": "right"
    },
    {
      "midi": 68,
      "time": 177.375,
      "duration": 0.375,
      "velocity": 0.71,
      "hand": "right"
    },
    {
      "midi": 68,
      "time": 177.75,
      "duration": 0.375,
      "velocity": 0.71,
      "hand": "right"
    },
    {
      "midi": 68,
      "time": 178.125,
      "duration": 0.375,
      "velocity": 0.71,
      "hand": "right"
    },
    {
      "midi": 40,
      "time": 178.5,
      "duration": 0.75,
      "velocity": 0.71,
      "hand": "left"
    },
    {
      "midi": 44,
      "time": 178.5,
      "duration": 1.5,
      "velocity": 0.71,
      "hand": "left"
    },
    {
      "midi": 52,
      "time": 178.5,
      "duration": 0.75,
      "velocity": 0.71,
      "hand": "left"
    },
    {
      "midi": 61,
      "time": 178.5,
      "duration": 1.5,
      "velocity": 0.71,
      "hand": "right"
    },
    {
      "midi": 68,
      "time": 178.5,
      "duration": 0.375,
      "velocity": 0.71,
      "hand": "right"
    },
    {
      "midi": 73,
      "time": 178.5,
      "duration": 1.5,
      "velocity": 0.71,
      "hand": "right"
    },
    {
      "midi": 68,
      "time": 178.875,
      "duration": 0.375,
      "velocity": 0.71,
      "hand": "right"
    },
    {
      "midi": 37,
      "time": 179.25,
      "duration": 0.75,
      "velocity": 0.71,
      "hand": "left"
    },
    {
      "midi": 49,
      "time": 179.25,
      "duration": 0.75,
      "velocity": 0.71,
      "hand": "left"
    },
    {
      "midi": 68,
      "time": 179.25,
      "duration": 0.375,
      "velocity": 0.71,
      "hand": "right"
    },
    {
      "midi": 68,
      "time": 179.625,
      "duration": 0.375,
      "velocity": 0.71,
      "hand": "right"
    },
    {
      "midi": 32,
      "time": 180,
      "duration": 2.25,
      "velocity": 0.71,
      "hand": "left"
    },
    {
      "midi": 44,
      "time": 180,
      "duration": 2.25,
      "velocity": 0.71,
      "hand": "left"
    },
    {
      "midi": 63,
      "time": 180,
      "duration": 2.25,
      "velocity": 0.71,
      "hand": "right"
    },
    {
      "midi": 68,
      "time": 180,
      "duration": 0.375,
      "velocity": 0.71,
      "hand": "right"
    },
    {
      "midi": 73,
      "time": 180,
      "duration": 2.25,
      "velocity": 0.71,
      "hand": "right"
    },
    {
      "midi": 75,
      "time": 180,
      "duration": 2.25,
      "velocity": 0.71,
      "hand": "right"
    },
    {
      "midi": 68,
      "time": 180.375,
      "duration": 0.375,
      "velocity": 0.71,
      "hand": "right"
    },
    {
      "midi": 68,
      "time": 180.75,
      "duration": 0.375,
      "velocity": 0.71,
      "hand": "right"
    },
    {
      "midi": 68,
      "time": 181.125,
      "duration": 0.375,
      "velocity": 0.71,
      "hand": "right"
    },
    {
      "midi": 68,
      "time": 181.5,
      "duration": 0.375,
      "velocity": 0.71,
      "hand": "right"
    },
    {
      "midi": 68,
      "time": 181.875,
      "duration": 0.375,
      "velocity": 0.71,
      "hand": "right"
    },
    {
      "midi": 44,
      "time": 182.25,
      "duration": 0.75,
      "velocity": 0.71,
      "hand": "left"
    },
    {
      "midi": 56,
      "time": 182.25,
      "duration": 0.75,
      "velocity": 0.71,
      "hand": "left"
    },
    {
      "midi": 63,
      "time": 182.25,
      "duration": 0.75,
      "velocity": 0.71,
      "hand": "right"
    },
    {
      "midi": 68,
      "time": 182.25,
      "duration": 0.375,
      "velocity": 0.71,
      "hand": "right"
    },
    {
      "midi": 72,
      "time": 182.25,
      "duration": 0.75,
      "velocity": 0.71,
      "hand": "right"
    },
    {
      "midi": 75,
      "time": 182.25,
      "duration": 0.75,
      "velocity": 0.71,
      "hand": "right"
    },
    {
      "midi": 68,
      "time": 182.625,
      "duration": 0.375,
      "velocity": 0.71,
      "hand": "right"
    },
    {
      "midi": 49,
      "time": 183,
      "duration": 1.5,
      "velocity": 0.71,
      "hand": "left"
    },
    {
      "midi": 56,
      "time": 183,
      "duration": 1.5,
      "velocity": 0.71,
      "hand": "left"
    },
    {
      "midi": 64,
      "time": 183,
      "duration": 0.75,
      "velocity": 0.71,
      "hand": "right"
    },
    {
      "midi": 68,
      "time": 183,
      "duration": 0.375,
      "velocity": 0.71,
      "hand": "right"
    },
    {
      "midi": 75,
      "time": 183,
      "duration": 0.75,
      "velocity": 0.71,
      "hand": "right"
    },
    {
      "midi": 76,
      "time": 183,
      "duration": 0.75,
      "velocity": 0.71,
      "hand": "right"
    },
    {
      "midi": 68,
      "time": 183.375,
      "duration": 0.375,
      "velocity": 0.71,
      "hand": "right"
    },
    {
      "midi": 64,
      "time": 183.75,
      "duration": 0.75,
      "velocity": 0.71,
      "hand": "right"
    },
    {
      "midi": 68,
      "time": 183.75,
      "duration": 0.375,
      "velocity": 0.71,
      "hand": "right"
    },
    {
      "midi": 73,
      "time": 183.75,
      "duration": 0.75,
      "velocity": 0.71,
      "hand": "right"
    },
    {
      "midi": 76,
      "time": 183.75,
      "duration": 0.75,
      "velocity": 0.71,
      "hand": "right"
    },
    {
      "midi": 68,
      "time": 184.125,
      "duration": 0.375,
      "velocity": 0.71,
      "hand": "right"
    },
    {
      "midi": 44,
      "time": 184.5,
      "duration": 1.5,
      "velocity": 0.71,
      "hand": "left"
    },
    {
      "midi": 56,
      "time": 184.5,
      "duration": 1.5,
      "velocity": 0.71,
      "hand": "left"
    },
    {
      "midi": 63,
      "time": 184.5,
      "duration": 0.75,
      "velocity": 0.71,
      "hand": "right"
    },
    {
      "midi": 68,
      "time": 184.5,
      "duration": 0.375,
      "velocity": 0.71,
      "hand": "right"
    },
    {
      "midi": 73,
      "time": 184.5,
      "duration": 0.75,
      "velocity": 0.71,
      "hand": "right"
    },
    {
      "midi": 75,
      "time": 184.5,
      "duration": 0.75,
      "velocity": 0.71,
      "hand": "right"
    },
    {
      "midi": 68,
      "time": 184.875,
      "duration": 0.375,
      "velocity": 0.71,
      "hand": "right"
    },
    {
      "midi": 63,
      "time": 185.25,
      "duration": 0.75,
      "velocity": 0.71,
      "hand": "right"
    },
    {
      "midi": 68,
      "time": 185.25,
      "duration": 0.375,
      "velocity": 0.71,
      "hand": "right"
    },
    {
      "midi": 72,
      "time": 185.25,
      "duration": 0.75,
      "velocity": 0.71,
      "hand": "right"
    },
    {
      "midi": 75,
      "time": 185.25,
      "duration": 0.75,
      "velocity": 0.71,
      "hand": "right"
    },
    {
      "midi": 68,
      "time": 185.625,
      "duration": 0.375,
      "velocity": 0.71,
      "hand": "right"
    },
    {
      "midi": 45,
      "time": 186,
      "duration": 1.5,
      "velocity": 0.71,
      "hand": "left"
    },
    {
      "midi": 57,
      "time": 186,
      "duration": 1.5,
      "velocity": 0.71,
      "hand": "left"
    },
    {
      "midi": 61,
      "time": 186,
      "duration": 3,
      "velocity": 0.71,
      "hand": "right"
    },
    {
      "midi": 68,
      "time": 186,
      "duration": 0.375,
      "velocity": 0.71,
      "hand": "right"
    },
    {
      "midi": 73,
      "time": 186,
      "duration": 3,
      "velocity": 0.71,
      "hand": "right"
    },
    {
      "midi": 68,
      "time": 186.375,
      "duration": 0.375,
      "velocity": 0.71,
      "hand": "right"
    },
    {
      "midi": 66,
      "time": 186.75,
      "duration": 0.375,
      "velocity": 0.71,
      "hand": "right"
    },
    {
      "midi": 66,
      "time": 187.125,
      "duration": 0.375,
      "velocity": 0.71,
      "hand": "right"
    },
    {
      "midi": 44,
      "time": 187.5,
      "duration": 0.75,
      "velocity": 0.71,
      "hand": "left"
    },
    {
      "midi": 56,
      "time": 187.5,
      "duration": 0.75,
      "velocity": 0.71,
      "hand": "left"
    },
    {
      "midi": 68,
      "time": 187.5,
      "duration": 0.375,
      "velocity": 0.71,
      "hand": "right"
    },
    {
      "midi": 68,
      "time": 187.875,
      "duration": 0.375,
      "velocity": 0.71,
      "hand": "right"
    },
    {
      "midi": 42,
      "time": 188.25,
      "duration": 0.75,
      "velocity": 0.71,
      "hand": "left"
    },
    {
      "midi": 54,
      "time": 188.25,
      "duration": 0.75,
      "velocity": 0.71,
      "hand": "left"
    },
    {
      "midi": 69,
      "time": 188.25,
      "duration": 0.375,
      "velocity": 0.71,
      "hand": "right"
    },
    {
      "midi": 69,
      "time": 188.625,
      "duration": 0.375,
      "velocity": 0.71,
      "hand": "right"
    },
    {
      "midi": 44,
      "time": 189,
      "duration": 1.5,
      "velocity": 0.71,
      "hand": "left"
    },
    {
      "midi": 56,
      "time": 189,
      "duration": 0.375,
      "velocity": 0.71,
      "hand": "left"
    },
    {
      "midi": 60,
      "time": 189,
      "duration": 1.5,
      "velocity": 0.71,
      "hand": "right"
    },
    {
      "midi": 63,
      "time": 189,
      "duration": 1.5,
      "velocity": 0.71,
      "hand": "right"
    },
    {
      "midi": 68,
      "time": 189,
      "duration": 1.5,
      "velocity": 0.71,
      "hand": "right"
    },
    {
      "midi": 56,
      "time": 189.375,
      "duration": 0.375,
      "velocity": 0.71,
      "hand": "left"
    },
    {
      "midi": 56,
      "time": 189.75,
      "duration": 0.375,
      "velocity": 0.71,
      "hand": "left"
    },
    {
      "midi": 56,
      "time": 190.125,
      "duration": 0.375,
      "velocity": 0.71,
      "hand": "left"
    },
    {
      "midi": 37,
      "time": 190.5,
      "duration": 1.5,
      "velocity": 0.71,
      "hand": "left"
    },
    {
      "midi": 44,
      "time": 190.5,
      "duration": 1.5,
      "velocity": 0.71,
      "hand": "left"
    },
    {
      "midi": 56,
      "time": 190.5,
      "duration": 0.375,
      "velocity": 0.71,
      "hand": "left"
    },
    {
      "midi": 61,
      "time": 190.5,
      "duration": 0.75,
      "velocity": 0.71,
      "hand": "right"
    },
    {
      "midi": 64,
      "time": 190.5,
      "duration": 0.75,
      "velocity": 0.71,
      "hand": "right"
    },
    {
      "midi": 68,
      "time": 190.5,
      "duration": 0.75,
      "velocity": 0.71,
      "hand": "right"
    },
    {
      "midi": 56,
      "time": 190.875,
      "duration": 0.375,
      "velocity": 0.71,
      "hand": "left"
    },
    {
      "midi": 56,
      "time": 191.25,
      "duration": 0.375,
      "velocity": 0.71,
      "hand": "left"
    },
    {
      "midi": 58,
      "time": 191.25,
      "duration": 0.75,
      "velocity": 0.71,
      "hand": "left"
    },
    {
      "midi": 61,
      "time": 191.25,
      "duration": 0.75,
      "velocity": 0.71,
      "hand": "right"
    },
    {
      "midi": 68,
      "time": 191.25,
      "duration": 0.75,
      "velocity": 0.71,
      "hand": "right"
    },
    {
      "midi": 56,
      "time": 191.625,
      "duration": 0.375,
      "velocity": 0.71,
      "hand": "left"
    },
    {
      "midi": 32,
      "time": 192,
      "duration": 0.75,
      "velocity": 0.71,
      "hand": "left"
    },
    {
      "midi": 44,
      "time": 192,
      "duration": 0.75,
      "velocity": 0.71,
      "hand": "left"
    },
    {
      "midi": 56,
      "time": 192,
      "duration": 0.375,
      "velocity": 0.71,
      "hand": "left"
    },
    {
      "midi": 60,
      "time": 192,
      "duration": 0.75,
      "velocity": 0.71,
      "hand": "right"
    },
    {
      "midi": 63,
      "time": 192,
      "duration": 0.75,
      "velocity": 0.71,
      "hand": "right"
    },
    {
      "midi": 68,
      "time": 192,
      "duration": 0.75,
      "velocity": 0.71,
      "hand": "right"
    },
    {
      "midi": 56,
      "time": 192.375,
      "duration": 0.375,
      "velocity": 0.71,
      "hand": "left"
    },
    {
      "midi": 37,
      "time": 192.75,
      "duration": 2.25,
      "velocity": 0.71,
      "hand": "left"
    },
    {
      "midi": 44,
      "time": 192.75,
      "duration": 2.25,
      "velocity": 0.71,
      "hand": "left"
    },
    {
      "midi": 56,
      "time": 192.75,
      "duration": 0.375,
      "velocity": 0.71,
      "hand": "left"
    },
    {
      "midi": 61,
      "time": 192.75,
      "duration": 0.75,
      "velocity": 0.71,
      "hand": "right"
    },
    {
      "midi": 64,
      "time": 192.75,
      "duration": 0.75,
      "velocity": 0.71,
      "hand": "right"
    },
    {
      "midi": 68,
      "time": 192.75,
      "duration": 0.75,
      "velocity": 0.71,
      "hand": "right"
    },
    {
      "midi": 56,
      "time": 193.125,
      "duration": 0.375,
      "velocity": 0.71,
      "hand": "left"
    },
    {
      "midi": 56,
      "time": 193.5,
      "duration": 0.375,
      "velocity": 0.71,
      "hand": "left"
    },
    {
      "midi": 58,
      "time": 193.5,
      "duration": 0.75,
      "velocity": 0.71,
      "hand": "left"
    },
    {
      "midi": 61,
      "time": 193.5,
      "duration": 0.75,
      "velocity": 0.71,
      "hand": "right"
    },
    {
      "midi": 68,
      "time": 193.5,
      "duration": 0.75,
      "velocity": 0.71,
      "hand": "right"
    },
    {
      "midi": 56,
      "time": 193.875,
      "duration": 0.375,
      "velocity": 0.71,
      "hand": "left"
    },
    {
      "midi": 56,
      "time": 194.25,
      "duration": 0.375,
      "velocity": 0.71,
      "hand": "left"
    },
    {
      "midi": 61,
      "time": 194.25,
      "duration": 0.75,
      "velocity": 0.71,
      "hand": "right"
    },
    {
      "midi": 64,
      "time": 194.25,
      "duration": 0.75,
      "velocity": 0.71,
      "hand": "right"
    },
    {
      "midi": 68,
      "time": 194.25,
      "duration": 0.75,
      "velocity": 0.71,
      "hand": "right"
    },
    {
      "midi": 56,
      "time": 194.625,
      "duration": 0.375,
      "velocity": 0.71,
      "hand": "left"
    },
    {
      "midi": 37,
      "time": 195,
      "duration": 0.75,
      "velocity": 0.71,
      "hand": "left"
    },
    {
      "midi": 44,
      "time": 195,
      "duration": 0.75,
      "velocity": 0.71,
      "hand": "left"
    },
    {
      "midi": 56,
      "time": 195,
      "duration": 0.375,
      "velocity": 0.71,
      "hand": "left"
    },
    {
      "midi": 61,
      "time": 195,
      "duration": 0.75,
      "velocity": 0.71,
      "hand": "right"
    },
    {
      "midi": 64,
      "time": 195,
      "duration": 0.75,
      "velocity": 0.71,
      "hand": "right"
    },
    {
      "midi": 68,
      "time": 195,
      "duration": 0.75,
      "velocity": 0.71,
      "hand": "right"
    },
    {
      "midi": 56,
      "time": 195.375,
      "duration": 0.375,
      "velocity": 0.71,
      "hand": "left"
    },
    {
      "midi": 32,
      "time": 195.75,
      "duration": 1.5,
      "velocity": 0.71,
      "hand": "left"
    },
    {
      "midi": 44,
      "time": 195.75,
      "duration": 1.5,
      "velocity": 0.71,
      "hand": "left"
    },
    {
      "midi": 56,
      "time": 195.75,
      "duration": 0.375,
      "velocity": 0.71,
      "hand": "left"
    },
    {
      "midi": 60,
      "time": 195.75,
      "duration": 0.75,
      "velocity": 0.71,
      "hand": "right"
    },
    {
      "midi": 63,
      "time": 195.75,
      "duration": 0.75,
      "velocity": 0.71,
      "hand": "right"
    },
    {
      "midi": 68,
      "time": 195.75,
      "duration": 0.75,
      "velocity": 0.71,
      "hand": "right"
    },
    {
      "midi": 56,
      "time": 196.125,
      "duration": 0.375,
      "velocity": 0.71,
      "hand": "left"
    },
    {
      "midi": 56,
      "time": 196.5,
      "duration": 0.375,
      "velocity": 0.71,
      "hand": "left"
    },
    {
      "midi": 63,
      "time": 196.5,
      "duration": 0.75,
      "velocity": 0.71,
      "hand": "right"
    },
    {
      "midi": 66,
      "time": 196.5,
      "duration": 0.75,
      "velocity": 0.71,
      "hand": "right"
    },
    {
      "midi": 68,
      "time": 196.5,
      "duration": 0.75,
      "velocity": 0.71,
      "hand": "right"
    },
    {
      "midi": 56,
      "time": 196.875,
      "duration": 0.375,
      "velocity": 0.71,
      "hand": "left"
    },
    {
      "midi": 37,
      "time": 197.25,
      "duration": 0.75,
      "velocity": 0.71,
      "hand": "left"
    },
    {
      "midi": 44,
      "time": 197.25,
      "duration": 0.75,
      "velocity": 0.71,
      "hand": "left"
    },
    {
      "midi": 56,
      "time": 197.25,
      "duration": 0.375,
      "velocity": 0.71,
      "hand": "left"
    },
    {
      "midi": 61,
      "time": 197.25,
      "duration": 0.75,
      "velocity": 0.71,
      "hand": "right"
    },
    {
      "midi": 64,
      "time": 197.25,
      "duration": 0.75,
      "velocity": 0.71,
      "hand": "right"
    },
    {
      "midi": 68,
      "time": 197.25,
      "duration": 0.75,
      "velocity": 0.71,
      "hand": "right"
    },
    {
      "midi": 56,
      "time": 197.625,
      "duration": 0.375,
      "velocity": 0.71,
      "hand": "left"
    },
    {
      "midi": 32,
      "time": 198,
      "duration": 3,
      "velocity": 0.71,
      "hand": "left"
    },
    {
      "midi": 44,
      "time": 198,
      "duration": 3,
      "velocity": 0.71,
      "hand": "left"
    },
    {
      "midi": 56,
      "time": 198,
      "duration": 0.375,
      "velocity": 0.71,
      "hand": "left"
    },
    {
      "midi": 60,
      "time": 198,
      "duration": 3,
      "velocity": 0.71,
      "hand": "right"
    },
    {
      "midi": 63,
      "time": 198,
      "duration": 3,
      "velocity": 0.71,
      "hand": "right"
    },
    {
      "midi": 68,
      "time": 198,
      "duration": 3,
      "velocity": 0.71,
      "hand": "right"
    },
    {
      "midi": 56,
      "time": 198.375,
      "duration": 0.375,
      "velocity": 0.71,
      "hand": "left"
    },
    {
      "midi": 56,
      "time": 198.75,
      "duration": 0.375,
      "velocity": 0.71,
      "hand": "left"
    },
    {
      "midi": 56,
      "time": 199.125,
      "duration": 0.375,
      "velocity": 0.71,
      "hand": "left"
    },
    {
      "midi": 56,
      "time": 199.5,
      "duration": 0.375,
      "velocity": 0.71,
      "hand": "left"
    },
    {
      "midi": 56,
      "time": 199.875,
      "duration": 0.375,
      "velocity": 0.71,
      "hand": "left"
    },
    {
      "midi": 56,
      "time": 200.25,
      "duration": 0.375,
      "velocity": 0.71,
      "hand": "left"
    },
    {
      "midi": 56,
      "time": 200.625,
      "duration": 0.375,
      "velocity": 0.71,
      "hand": "left"
    },
    {
      "midi": 42,
      "time": 201,
      "duration": 1.5,
      "velocity": 0.71,
      "hand": "left"
    },
    {
      "midi": 44,
      "time": 201,
      "duration": 0.375,
      "velocity": 0.71,
      "hand": "left"
    },
    {
      "midi": 54,
      "time": 201,
      "duration": 1.5,
      "velocity": 0.71,
      "hand": "left"
    },
    {
      "midi": 60,
      "time": 201,
      "duration": 1.5,
      "velocity": 0.71,
      "hand": "right"
    },
    {
      "midi": 63,
      "time": 201,
      "duration": 1.5,
      "velocity": 0.71,
      "hand": "right"
    },
    {
      "midi": 68,
      "time": 201,
      "duration": 0.375,
      "velocity": 0.71,
      "hand": "right"
    },
    {
      "midi": 72,
      "time": 201,
      "duration": 1.5,
      "velocity": 0.71,
      "hand": "right"
    },
    {
      "midi": 44,
      "time": 201.375,
      "duration": 0.375,
      "velocity": 0.71,
      "hand": "left"
    },
    {
      "midi": 68,
      "time": 201.375,
      "duration": 0.375,
      "velocity": 0.71,
      "hand": "right"
    },
    {
      "midi": 44,
      "time": 201.75,
      "duration": 0.375,
      "velocity": 0.71,
      "hand": "left"
    },
    {
      "midi": 68,
      "time": 201.75,
      "duration": 0.375,
      "velocity": 0.71,
      "hand": "right"
    },
    {
      "midi": 44,
      "time": 202.125,
      "duration": 0.375,
      "velocity": 0.71,
      "hand": "left"
    },
    {
      "midi": 68,
      "time": 202.125,
      "duration": 0.375,
      "velocity": 0.71,
      "hand": "right"
    },
    {
      "midi": 40,
      "time": 202.5,
      "duration": 0.75,
      "velocity": 0.71,
      "hand": "left"
    },
    {
      "midi": 44,
      "time": 202.5,
      "duration": 0.75,
      "velocity": 0.71,
      "hand": "left"
    },
    {
      "midi": 52,
      "time": 202.5,
      "duration": 0.75,
      "velocity": 0.71,
      "hand": "left"
    },
    {
      "midi": 61,
      "time": 202.5,
      "duration": 1.5,
      "velocity": 0.71,
      "hand": "right"
    },
    {
      "midi": 68,
      "time": 202.5,
      "duration": 0.375,
      "velocity": 0.71,
      "hand": "right"
    },
    {
      "midi": 73,
      "time": 202.5,
      "duration": 1.5,
      "velocity": 0.71,
      "hand": "right"
    },
    {
      "midi": 68,
      "time": 202.875,
      "duration": 0.375,
      "velocity": 0.71,
      "hand": "right"
    },
    {
      "midi": 37,
      "time": 203.25,
      "duration": 0.75,
      "velocity": 0.71,
      "hand": "left"
    },
    {
      "midi": 49,
      "time": 203.25,
      "duration": 0.75,
      "velocity": 0.71,
      "hand": "left"
    },
    {
      "midi": 68,
      "time": 203.25,
      "duration": 0.375,
      "velocity": 0.71,
      "hand": "right"
    },
    {
      "midi": 68,
      "time": 203.625,
      "duration": 0.375,
      "velocity": 0.71,
      "hand": "right"
    },
    {
      "midi": 32,
      "time": 204,
      "duration": 3,
      "velocity": 0.71,
      "hand": "left"
    },
    {
      "midi": 44,
      "time": 204,
      "duration": 3,
      "velocity": 0.71,
      "hand": "left"
    },
    {
      "midi": 63,
      "time": 204,
      "duration": 2.25,
      "velocity": 0.71,
      "hand": "right"
    },
    {
      "midi": 68,
      "time": 204,
      "duration": 0.375,
      "velocity": 0.71,
      "hand": "right"
    },
    {
      "midi": 73,
      "time": 204,
      "duration": 2.25,
      "velocity": 0.71,
      "hand": "right"
    },
    {
      "midi": 75,
      "time": 204,
      "duration": 2.25,
      "velocity": 0.71,
      "hand": "right"
    },
    {
      "midi": 68,
      "time": 204.375,
      "duration": 0.375,
      "velocity": 0.71,
      "hand": "right"
    },
    {
      "midi": 68,
      "time": 204.75,
      "duration": 0.375,
      "velocity": 0.71,
      "hand": "right"
    },
    {
      "midi": 68,
      "time": 205.125,
      "duration": 0.375,
      "velocity": 0.71,
      "hand": "right"
    },
    {
      "midi": 68,
      "time": 205.5,
      "duration": 0.375,
      "velocity": 0.71,
      "hand": "right"
    },
    {
      "midi": 68,
      "time": 205.875,
      "duration": 0.375,
      "velocity": 0.71,
      "hand": "right"
    },
    {
      "midi": 63,
      "time": 206.25,
      "duration": 0.75,
      "velocity": 0.71,
      "hand": "right"
    },
    {
      "midi": 68,
      "time": 206.25,
      "duration": 0.375,
      "velocity": 0.71,
      "hand": "right"
    },
    {
      "midi": 72,
      "time": 206.25,
      "duration": 0.75,
      "velocity": 0.71,
      "hand": "right"
    },
    {
      "midi": 75,
      "time": 206.25,
      "duration": 0.75,
      "velocity": 0.71,
      "hand": "right"
    },
    {
      "midi": 68,
      "time": 206.625,
      "duration": 0.375,
      "velocity": 0.71,
      "hand": "right"
    },
    {
      "midi": 37,
      "time": 207,
      "duration": 1.5,
      "velocity": 0.71,
      "hand": "left"
    },
    {
      "midi": 44,
      "time": 207,
      "duration": 1.5,
      "velocity": 0.71,
      "hand": "left"
    },
    {
      "midi": 64,
      "time": 207,
      "duration": 0.75,
      "velocity": 0.71,
      "hand": "right"
    },
    {
      "midi": 68,
      "time": 207,
      "duration": 0.375,
      "velocity": 0.71,
      "hand": "right"
    },
    {
      "midi": 75,
      "time": 207,
      "duration": 0.75,
      "velocity": 0.71,
      "hand": "right"
    },
    {
      "midi": 76,
      "time": 207,
      "duration": 0.75,
      "velocity": 0.71,
      "hand": "right"
    },
    {
      "midi": 68,
      "time": 207.375,
      "duration": 0.375,
      "velocity": 0.71,
      "hand": "right"
    },
    {
      "midi": 64,
      "time": 207.75,
      "duration": 0.75,
      "velocity": 0.71,
      "hand": "right"
    },
    {
      "midi": 68,
      "time": 207.75,
      "duration": 0.375,
      "velocity": 0.71,
      "hand": "right"
    },
    {
      "midi": 73,
      "time": 207.75,
      "duration": 0.75,
      "velocity": 0.71,
      "hand": "right"
    },
    {
      "midi": 76,
      "time": 207.75,
      "duration": 0.75,
      "velocity": 0.71,
      "hand": "right"
    },
    {
      "midi": 68,
      "time": 208.125,
      "duration": 0.375,
      "velocity": 0.71,
      "hand": "right"
    },
    {
      "midi": 44,
      "time": 208.5,
      "duration": 1.5,
      "velocity": 0.71,
      "hand": "left"
    },
    {
      "midi": 56,
      "time": 208.5,
      "duration": 1.5,
      "velocity": 0.71,
      "hand": "left"
    },
    {
      "midi": 63,
      "time": 208.5,
      "duration": 0.75,
      "velocity": 0.71,
      "hand": "right"
    },
    {
      "midi": 68,
      "time": 208.5,
      "duration": 0.375,
      "velocity": 0.71,
      "hand": "right"
    },
    {
      "midi": 73,
      "time": 208.5,
      "duration": 0.75,
      "velocity": 0.71,
      "hand": "right"
    },
    {
      "midi": 75,
      "time": 208.5,
      "duration": 0.75,
      "velocity": 0.71,
      "hand": "right"
    },
    {
      "midi": 68,
      "time": 208.875,
      "duration": 0.375,
      "velocity": 0.71,
      "hand": "right"
    },
    {
      "midi": 63,
      "time": 209.25,
      "duration": 0.75,
      "velocity": 0.71,
      "hand": "right"
    },
    {
      "midi": 68,
      "time": 209.25,
      "duration": 0.375,
      "velocity": 0.71,
      "hand": "right"
    },
    {
      "midi": 72,
      "time": 209.25,
      "duration": 0.75,
      "velocity": 0.71,
      "hand": "right"
    },
    {
      "midi": 75,
      "time": 209.25,
      "duration": 0.75,
      "velocity": 0.71,
      "hand": "right"
    },
    {
      "midi": 68,
      "time": 209.625,
      "duration": 0.375,
      "velocity": 0.71,
      "hand": "right"
    },
    {
      "midi": 41,
      "time": 210,
      "duration": 1.5,
      "velocity": 0.71,
      "hand": "left"
    },
    {
      "midi": 53,
      "time": 210,
      "duration": 1.5,
      "velocity": 0.71,
      "hand": "left"
    },
    {
      "midi": 61,
      "time": 210,
      "duration": 0.375,
      "velocity": 0.71,
      "hand": "right"
    },
    {
      "midi": 68,
      "time": 210,
      "duration": 1.5,
      "velocity": 0.71,
      "hand": "right"
    },
    {
      "midi": 71,
      "time": 210,
      "duration": 1.5,
      "velocity": 0.71,
      "hand": "right"
    },
    {
      "midi": 73,
      "time": 210,
      "duration": 1.5,
      "velocity": 0.71,
      "hand": "right"
    },
    {
      "midi": 61,
      "time": 210.375,
      "duration": 0.375,
      "velocity": 0.71,
      "hand": "right"
    },
    {
      "midi": 61,
      "time": 210.75,
      "duration": 0.375,
      "velocity": 0.71,
      "hand": "right"
    },
    {
      "midi": 61,
      "time": 211.125,
      "duration": 0.375,
      "velocity": 0.71,
      "hand": "right"
    },
    {
      "midi": 42,
      "time": 211.5,
      "duration": 1.5,
      "velocity": 0.71,
      "hand": "left"
    },
    {
      "midi": 54,
      "time": 211.5,
      "duration": 1.5,
      "velocity": 0.71,
      "hand": "left"
    },
    {
      "midi": 61,
      "time": 211.5,
      "duration": 0.375,
      "velocity": 0.71,
      "hand": "right"
    },
    {
      "midi": 68,
      "time": 211.5,
      "duration": 0.75,
      "velocity": 0.71,
      "hand": "right"
    },
    {
      "midi": 69,
      "time": 211.5,
      "duration": 0.75,
      "velocity": 0.71,
      "hand": "right"
    },
    {
      "midi": 73,
      "time": 211.5,
      "duration": 0.75,
      "velocity": 0.71,
      "hand": "right"
    },
    {
      "midi": 61,
      "time": 211.875,
      "duration": 0.375,
      "velocity": 0.71,
      "hand": "right"
    },
    {
      "midi": 61,
      "time": 212.25,
      "duration": 0.375,
      "velocity": 0.71,
      "hand": "right"
    },
    {
      "midi": 66,
      "time": 212.25,
      "duration": 0.75,
      "velocity": 0.71,
      "hand": "right"
    },
    {
      "midi": 69,
      "time": 212.25,
      "duration": 0.75,
      "velocity": 0.71,
      "hand": "right"
    },
    {
      "midi": 73,
      "time": 212.25,
      "duration": 0.75,
      "velocity": 0.71,
      "hand": "right"
    },
    {
      "midi": 61,
      "time": 212.625,
      "duration": 0.375,
      "velocity": 0.71,
      "hand": "right"
    },
    {
      "midi": 36,
      "time": 213,
      "duration": 1.5,
      "velocity": 0.71,
      "hand": "left"
    },
    {
      "midi": 48,
      "time": 213,
      "duration": 1.5,
      "velocity": 0.71,
      "hand": "left"
    },
    {
      "midi": 56,
      "time": 213,
      "duration": 0.375,
      "velocity": 0.71,
      "hand": "left"
    },
    {
      "midi": 63,
      "time": 213,
      "duration": 1.5,
      "velocity": 0.71,
      "hand": "right"
    },
    {
      "midi": 66,
      "time": 213,
      "duration": 1.5,
      "velocity": 0.71,
      "hand": "right"
    },
    {
      "midi": 68,
      "time": 213,
      "duration": 1.5,
      "velocity": 0.71,
      "hand": "right"
    },
    {
      "midi": 56,
      "time": 213.375,
      "duration": 0.375,
      "velocity": 0.71,
      "hand": "left"
    },
    {
      "midi": 56,
      "time": 213.75,
      "duration": 0.375,
      "velocity": 0.71,
      "hand": "left"
    },
    {
      "midi": 56,
      "time": 214.125,
      "duration": 0.375,
      "velocity": 0.71,
      "hand": "left"
    },
    {
      "midi": 37,
      "time": 214.5,
      "duration": 1.5,
      "velocity": 0.71,
      "hand": "left"
    },
    {
      "midi": 49,
      "time": 214.5,
      "duration": 1.5,
      "velocity": 0.71,
      "hand": "left"
    },
    {
      "midi": 56,
      "time": 214.5,
      "duration": 0.375,
      "velocity": 0.71,
      "hand": "left"
    },
    {
      "midi": 61,
      "time": 214.5,
      "duration": 0.75,
      "velocity": 0.71,
      "hand": "right"
    },
    {
      "midi": 66,
      "time": 214.5,
      "duration": 0.75,
      "velocity": 0.71,
      "hand": "right"
    },
    {
      "midi": 68,
      "time": 214.5,
      "duration": 0.75,
      "velocity": 0.71,
      "hand": "right"
    },
    {
      "midi": 56,
      "time": 214.875,
      "duration": 0.375,
      "velocity": 0.71,
      "hand": "left"
    },
    {
      "midi": 56,
      "time": 215.25,
      "duration": 0.375,
      "velocity": 0.71,
      "hand": "left"
    },
    {
      "midi": 61,
      "time": 215.25,
      "duration": 0.75,
      "velocity": 0.71,
      "hand": "right"
    },
    {
      "midi": 64,
      "time": 215.25,
      "duration": 0.75,
      "velocity": 0.71,
      "hand": "right"
    },
    {
      "midi": 70,
      "time": 215.25,
      "duration": 0.75,
      "velocity": 0.71,
      "hand": "right"
    },
    {
      "midi": 56,
      "time": 215.625,
      "duration": 0.375,
      "velocity": 0.71,
      "hand": "left"
    },
    {
      "midi": 32,
      "time": 216,
      "duration": 2.25,
      "velocity": 0.71,
      "hand": "left"
    },
    {
      "midi": 44,
      "time": 216,
      "duration": 2.25,
      "velocity": 0.71,
      "hand": "left"
    },
    {
      "midi": 56,
      "time": 216,
      "duration": 0.375,
      "velocity": 0.71,
      "hand": "left"
    },
    {
      "midi": 61,
      "time": 216,
      "duration": 1.5,
      "velocity": 0.71,
      "hand": "right"
    },
    {
      "midi": 64,
      "time": 216,
      "duration": 1.5,
      "velocity": 0.71,
      "hand": "right"
    },
    {
      "midi": 70,
      "time": 216,
      "duration": 1.5,
      "velocity": 0.71,
      "hand": "right"
    },
    {
      "midi": 56,
      "time": 216.375,
      "duration": 0.375,
      "velocity": 0.71,
      "hand": "left"
    },
    {
      "midi": 56,
      "time": 216.75,
      "duration": 0.375,
      "velocity": 0.71,
      "hand": "left"
    },
    {
      "midi": 56,
      "time": 217.125,
      "duration": 0.375,
      "velocity": 0.71,
      "hand": "left"
    },
    {
      "midi": 56,
      "time": 217.5,
      "duration": 0.375,
      "velocity": 0.71,
      "hand": "left"
    },
    {
      "midi": 60,
      "time": 217.5,
      "duration": 0.75,
      "velocity": 0.71,
      "hand": "right"
    },
    {
      "midi": 63,
      "time": 217.5,
      "duration": 0.75,
      "velocity": 0.71,
      "hand": "right"
    },
    {
      "midi": 68,
      "time": 217.5,
      "duration": 0.75,
      "velocity": 0.71,
      "hand": "right"
    },
    {
      "midi": 56,
      "time": 217.875,
      "duration": 0.375,
      "velocity": 0.71,
      "hand": "left"
    },
    {
      "midi": 37,
      "time": 218.25,
      "duration": 0.75,
      "velocity": 0.71,
      "hand": "left"
    },
    {
      "midi": 44,
      "time": 218.25,
      "duration": 0.75,
      "velocity": 0.71,
      "hand": "left"
    },
    {
      "midi": 56,
      "time": 218.25,
      "duration": 0.375,
      "velocity": 0.71,
      "hand": "left"
    },
    {
      "midi": 61,
      "time": 218.25,
      "duration": 0.75,
      "velocity": 0.71,
      "hand": "right"
    },
    {
      "midi": 64,
      "time": 218.25,
      "duration": 0.75,
      "velocity": 0.71,
      "hand": "right"
    },
    {
      "midi": 70,
      "time": 218.25,
      "duration": 0.75,
      "velocity": 0.71,
      "hand": "right"
    },
    {
      "midi": 56,
      "time": 218.625,
      "duration": 0.375,
      "velocity": 0.71,
      "hand": "left"
    },
    {
      "midi": 32,
      "time": 219,
      "duration": 2.25,
      "velocity": 0.71,
      "hand": "left"
    },
    {
      "midi": 44,
      "time": 219,
      "duration": 2.25,
      "velocity": 0.71,
      "hand": "left"
    },
    {
      "midi": 56,
      "time": 219,
      "duration": 0.375,
      "velocity": 0.71,
      "hand": "left"
    },
    {
      "midi": 61,
      "time": 219,
      "duration": 1.5,
      "velocity": 0.71,
      "hand": "right"
    },
    {
      "midi": 64,
      "time": 219,
      "duration": 1.5,
      "velocity": 0.71,
      "hand": "right"
    },
    {
      "midi": 70,
      "time": 219,
      "duration": 1.5,
      "velocity": 0.71,
      "hand": "right"
    },
    {
      "midi": 56,
      "time": 219.375,
      "duration": 0.375,
      "velocity": 0.71,
      "hand": "left"
    },
    {
      "midi": 56,
      "time": 219.75,
      "duration": 0.375,
      "velocity": 0.71,
      "hand": "left"
    },
    {
      "midi": 56,
      "time": 220.125,
      "duration": 0.375,
      "velocity": 0.71,
      "hand": "left"
    },
    {
      "midi": 56,
      "time": 220.5,
      "duration": 0.375,
      "velocity": 0.71,
      "hand": "left"
    },
    {
      "midi": 60,
      "time": 220.5,
      "duration": 0.75,
      "velocity": 0.71,
      "hand": "right"
    },
    {
      "midi": 63,
      "time": 220.5,
      "duration": 0.75,
      "velocity": 0.71,
      "hand": "right"
    },
    {
      "midi": 68,
      "time": 220.5,
      "duration": 0.75,
      "velocity": 0.71,
      "hand": "right"
    },
    {
      "midi": 56,
      "time": 220.875,
      "duration": 0.375,
      "velocity": 0.71,
      "hand": "left"
    },
    {
      "midi": 37,
      "time": 221.25,
      "duration": 0.75,
      "velocity": 0.71,
      "hand": "left"
    },
    {
      "midi": 44,
      "time": 221.25,
      "duration": 0.75,
      "velocity": 0.71,
      "hand": "left"
    },
    {
      "midi": 56,
      "time": 221.25,
      "duration": 0.375,
      "velocity": 0.71,
      "hand": "left"
    },
    {
      "midi": 61,
      "time": 221.25,
      "duration": 0.75,
      "velocity": 0.71,
      "hand": "right"
    },
    {
      "midi": 64,
      "time": 221.25,
      "duration": 0.75,
      "velocity": 0.71,
      "hand": "right"
    },
    {
      "midi": 70,
      "time": 221.25,
      "duration": 0.75,
      "velocity": 0.71,
      "hand": "right"
    },
    {
      "midi": 56,
      "time": 221.625,
      "duration": 0.375,
      "velocity": 0.71,
      "hand": "left"
    },
    {
      "midi": 32,
      "time": 222,
      "duration": 1.5,
      "velocity": 0.71,
      "hand": "left"
    },
    {
      "midi": 44,
      "time": 222,
      "duration": 0.75,
      "velocity": 0.71,
      "hand": "left"
    },
    {
      "midi": 56,
      "time": 222,
      "duration": 0.375,
      "velocity": 0.71,
      "hand": "left"
    },
    {
      "midi": 61,
      "time": 222,
      "duration": 0.75,
      "velocity": 0.71,
      "hand": "right"
    },
    {
      "midi": 64,
      "time": 222,
      "duration": 0.75,
      "velocity": 0.71,
      "hand": "right"
    },
    {
      "midi": 70,
      "time": 222,
      "duration": 0.75,
      "velocity": 0.71,
      "hand": "right"
    },
    {
      "midi": 56,
      "time": 222.375,
      "duration": 0.375,
      "velocity": 0.71,
      "hand": "left"
    },
    {
      "midi": 44,
      "time": 222.75,
      "duration": 0.75,
      "velocity": 0.71,
      "hand": "left"
    },
    {
      "midi": 56,
      "time": 222.75,
      "duration": 0.375,
      "velocity": 0.71,
      "hand": "left"
    },
    {
      "midi": 60,
      "time": 222.75,
      "duration": 0.75,
      "velocity": 0.71,
      "hand": "right"
    },
    {
      "midi": 63,
      "time": 222.75,
      "duration": 0.75,
      "velocity": 0.71,
      "hand": "right"
    },
    {
      "midi": 68,
      "time": 222.75,
      "duration": 0.75,
      "velocity": 0.71,
      "hand": "right"
    },
    {
      "midi": 56,
      "time": 223.125,
      "duration": 0.375,
      "velocity": 0.71,
      "hand": "left"
    },
    {
      "midi": 56,
      "time": 223.5,
      "duration": 0.375,
      "velocity": 0.71,
      "hand": "left"
    },
    {
      "midi": 53,
      "time": 223.875,
      "duration": 0.375,
      "velocity": 0.71,
      "hand": "left"
    },
    {
      "midi": 56,
      "time": 223.875,
      "duration": 0.375,
      "velocity": 0.71,
      "hand": "left"
    },
    {
      "midi": 54,
      "time": 224.25,
      "duration": 0.375,
      "velocity": 0.71,
      "hand": "left"
    },
    {
      "midi": 56,
      "time": 224.25,
      "duration": 0.375,
      "velocity": 0.71,
      "hand": "left"
    },
    {
      "midi": 51,
      "time": 224.625,
      "duration": 0.375,
      "velocity": 0.71,
      "hand": "left"
    },
    {
      "midi": 56,
      "time": 224.625,
      "duration": 0.375,
      "velocity": 0.71,
      "hand": "left"
    },
    {
      "midi": 49,
      "time": 225,
      "duration": 0.375,
      "velocity": 0.71,
      "hand": "left"
    },
    {
      "midi": 77,
      "time": 225,
      "duration": 0.563,
      "velocity": 0.71,
      "hand": "right"
    },
    {
      "midi": 56,
      "time": 225.375,
      "duration": 0.375,
      "velocity": 0.71,
      "hand": "left"
    },
    {
      "midi": 73,
      "time": 225.563,
      "duration": 0.188,
      "velocity": 0.71,
      "hand": "right"
    },
    {
      "midi": 61,
      "time": 225.75,
      "duration": 1.5,
      "velocity": 0.71,
      "hand": "right"
    },
    {
      "midi": 65,
      "time": 225.75,
      "duration": 1.5,
      "velocity": 0.71,
      "hand": "right"
    },
    {
      "midi": 68,
      "time": 225.75,
      "duration": 1.5,
      "velocity": 0.71,
      "hand": "right"
    },
    {
      "midi": 56,
      "time": 226.125,
      "duration": 0.375,
      "velocity": 0.71,
      "hand": "left"
    },
    {
      "midi": 56,
      "time": 226.5,
      "duration": 0.375,
      "velocity": 0.71,
      "hand": "left"
    },
    {
      "midi": 56,
      "time": 226.875,
      "duration": 0.375,
      "velocity": 0.71,
      "hand": "left"
    },
    {
      "midi": 56,
      "time": 227.25,
      "duration": 0.375,
      "velocity": 0.71,
      "hand": "left"
    },
    {
      "midi": 70,
      "time": 227.25,
      "duration": 0.75,
      "velocity": 0.71,
      "hand": "right"
    },
    {
      "midi": 56,
      "time": 227.625,
      "duration": 0.375,
      "velocity": 0.71,
      "hand": "left"
    },
    {
      "midi": 63,
      "time": 228,
      "duration": 2.25,
      "velocity": 0.71,
      "hand": "right"
    },
    {
      "midi": 66,
      "time": 228,
      "duration": 2.25,
      "velocity": 0.71,
      "hand": "right"
    },
    {
      "midi": 72,
      "time": 228,
      "duration": 2.25,
      "velocity": 0.71,
      "hand": "right"
    },
    {
      "midi": 56,
      "time": 228.375,
      "duration": 0.375,
      "velocity": 0.71,
      "hand": "left"
    },
    {
      "midi": 56,
      "time": 228.75,
      "duration": 0.375,
      "velocity": 0.71,
      "hand": "left"
    },
    {
      "midi": 56,
      "time": 229.125,
      "duration": 0.375,
      "velocity": 0.71,
      "hand": "left"
    },
    {
      "midi": 58,
      "time": 229.5,
      "duration": 0.375,
      "velocity": 0.71,
      "hand": "left"
    },
    {
      "midi": 56,
      "time": 229.875,
      "duration": 0.375,
      "velocity": 0.71,
      "hand": "left"
    },
    {
      "midi": 61,
      "time": 230.25,
      "duration": 0.375,
      "velocity": 0.71,
      "hand": "right"
    },
    {
      "midi": 65,
      "time": 230.25,
      "duration": 0.375,
      "velocity": 0.71,
      "hand": "right"
    },
    {
      "midi": 73,
      "time": 230.25,
      "duration": 0.75,
      "velocity": 0.71,
      "hand": "right"
    },
    {
      "midi": 56,
      "time": 230.625,
      "duration": 0.375,
      "velocity": 0.71,
      "hand": "left"
    },
    {
      "midi": 60,
      "time": 231,
      "duration": 2.25,
      "velocity": 0.71,
      "hand": "right"
    },
    {
      "midi": 66,
      "time": 231,
      "duration": 0.375,
      "velocity": 0.71,
      "hand": "right"
    },
    {
      "midi": 75,
      "time": 231,
      "duration": 0.563,
      "velocity": 0.71,
      "hand": "right"
    },
    {
      "midi": 56,
      "time": 231.375,
      "duration": 0.75,
      "velocity": 0.71,
      "hand": "left"
    },
    {
      "midi": 68,
      "time": 231.563,
      "duration": 0.188,
      "velocity": 0.71,
      "hand": "right"
    },
    {
      "midi": 77,
      "time": 231.563,
      "duration": 0.188,
      "velocity": 0.71,
      "hand": "right"
    },
    {
      "midi": 70,
      "time": 231.75,
      "duration": 1.5,
      "velocity": 0.71,
      "hand": "right"
    },
    {
      "midi": 78,
      "time": 231.75,
      "duration": 1.5,
      "velocity": 0.71,
      "hand": "right"
    },
    {
      "midi": 56,
      "time": 232.125,
      "duration": 0.375,
      "velocity": 0.71,
      "hand": "left"
    },
    {
      "midi": 56,
      "time": 232.5,
      "duration": 0.375,
      "velocity": 0.71,
      "hand": "left"
    },
    {
      "midi": 56,
      "time": 232.875,
      "duration": 0.75,
      "velocity": 0.71,
      "hand": "left"
    },
    {
      "midi": 61,
      "time": 233.25,
      "duration": 0.375,
      "velocity": 0.71,
      "hand": "right"
    },
    {
      "midi": 68,
      "time": 233.25,
      "duration": 0.375,
      "velocity": 0.71,
      "hand": "right"
    },
    {
      "midi": 77,
      "time": 233.25,
      "duration": 0.75,
      "velocity": 0.71,
      "hand": "right"
    },
    {
      "midi": 56,
      "time": 233.625,
      "duration": 0.375,
      "velocity": 0.71,
      "hand": "left"
    },
    {
      "midi": 60,
      "time": 234,
      "duration": 1.5,
      "velocity": 0.71,
      "hand": "right"
    },
    {
      "midi": 68,
      "time": 234,
      "duration": 0.375,
      "velocity": 0.71,
      "hand": "right"
    },
    {
      "midi": 77,
      "time": 234,
      "duration": 1.125,
      "velocity": 0.71,
      "hand": "right"
    },
    {
      "midi": 56,
      "time": 234.375,
      "duration": 0.375,
      "velocity": 0.71,
      "hand": "left"
    },
    {
      "midi": 66,
      "time": 234.75,
      "duration": 0.375,
      "velocity": 0.71,
      "hand": "right"
    },
    {
      "midi": 56,
      "time": 235.125,
      "duration": 0.375,
      "velocity": 0.71,
      "hand": "left"
    },
    {
      "midi": 75,
      "time": 235.125,
      "duration": 0.375,
      "velocity": 0.71,
      "hand": "right"
    },
    {
      "midi": 61,
      "time": 235.5,
      "duration": 0.375,
      "velocity": 0.71,
      "hand": "right"
    },
    {
      "midi": 65,
      "time": 235.5,
      "duration": 0.375,
      "velocity": 0.71,
      "hand": "right"
    },
    {
      "midi": 73,
      "time": 235.5,
      "duration": 0.563,
      "velocity": 0.71,
      "hand": "right"
    },
    {
      "midi": 56,
      "time": 235.875,
      "duration": 0.375,
      "velocity": 0.71,
      "hand": "left"
    },
    {
      "midi": 74,
      "time": 236.063,
      "duration": 0.188,
      "velocity": 0.71,
      "hand": "right"
    },
    {
      "midi": 60,
      "time": 236.25,
      "duration": 0.375,
      "velocity": 0.71,
      "hand": "right"
    },
    {
      "midi": 66,
      "time": 236.25,
      "duration": 0.375,
      "velocity": 0.71,
      "hand": "right"
    },
    {
      "midi": 75,
      "time": 236.25,
      "duration": 0.094,
      "velocity": 0.71,
      "hand": "right"
    },
    {
      "midi": 77,
      "time": 236.25,
      "duration": 0.094,
      "velocity": 0.71,
      "hand": "right"
    },
    {
      "midi": 74,
      "time": 236.438,
      "duration": 0.094,
      "velocity": 0.71,
      "hand": "right"
    },
    {
      "midi": 75,
      "time": 236.438,
      "duration": 0.094,
      "velocity": 0.71,
      "hand": "right"
    },
    {
      "midi": 56,
      "time": 236.625,
      "duration": 0.375,
      "velocity": 0.71,
      "hand": "left"
    },
    {
      "midi": 75,
      "time": 236.625,
      "duration": 0.094,
      "velocity": 0.71,
      "hand": "right"
    },
    {
      "midi": 76,
      "time": 236.625,
      "duration": 0.094,
      "velocity": 0.71,
      "hand": "right"
    },
    {
      "midi": 77,
      "time": 236.625,
      "duration": 0.094,
      "velocity": 0.71,
      "hand": "right"
    },
    {
      "midi": 79,
      "time": 236.813,
      "duration": 0.094,
      "velocity": 0.71,
      "hand": "right"
    },
    {
      "midi": 80,
      "time": 236.813,
      "duration": 0.094,
      "velocity": 0.71,
      "hand": "right"
    },
    {
      "midi": 49,
      "time": 237,
      "duration": 0.375,
      "velocity": 0.71,
      "hand": "left"
    },
    {
      "midi": 77,
      "time": 237,
      "duration": 0.563,
      "velocity": 0.71,
      "hand": "right"
    },
    {
      "midi": 78,
      "time": 237,
      "duration": 0.094,
      "velocity": 0.71,
      "hand": "right"
    },
    {
      "midi": 56,
      "time": 237.375,
      "duration": 0.375,
      "velocity": 0.71,
      "hand": "left"
    },
    {
      "midi": 73,
      "time": 237.563,
      "duration": 0.188,
      "velocity": 0.71,
      "hand": "right"
    },
    {
      "midi": 61,
      "time": 237.75,
      "duration": 1.5,
      "velocity": 0.71,
      "hand": "right"
    },
    {
      "midi": 65,
      "time": 237.75,
      "duration": 1.5,
      "velocity": 0.71,
      "hand": "right"
    },
    {
      "midi": 68,
      "time": 237.75,
      "duration": 1.5,
      "velocity": 0.71,
      "hand": "right"
    },
    {
      "midi": 56,
      "time": 238.125,
      "duration": 0.375,
      "velocity": 0.71,
      "hand": "left"
    },
    {
      "midi": 56,
      "time": 238.5,
      "duration": 0.375,
      "velocity": 0.71,
      "hand": "left"
    },
    {
      "midi": 56,
      "time": 238.875,
      "duration": 0.375,
      "velocity": 0.71,
      "hand": "left"
    },
    {
      "midi": 56,
      "time": 239.25,
      "duration": 0.375,
      "velocity": 0.71,
      "hand": "left"
    },
    {
      "midi": 70,
      "time": 239.25,
      "duration": 0.75,
      "velocity": 0.71,
      "hand": "right"
    },
    {
      "midi": 56,
      "time": 239.625,
      "duration": 0.375,
      "velocity": 0.71,
      "hand": "left"
    },
    {
      "midi": 63,
      "time": 240,
      "duration": 0.375,
      "velocity": 0.71,
      "hand": "right"
    },
    {
      "midi": 66,
      "time": 240,
      "duration": 0.375,
      "velocity": 0.71,
      "hand": "right"
    },
    {
      "midi": 72,
      "time": 240,
      "duration": 0.75,
      "velocity": 0.71,
      "hand": "right"
    },
    {
      "midi": 56,
      "time": 240.375,
      "duration": 0.375,
      "velocity": 0.71,
      "hand": "left"
    },
    {
      "midi": 56,
      "time": 240.75,
      "duration": 0.375,
      "velocity": 0.71,
      "hand": "left"
    },
    {
      "midi": 56,
      "time": 241.125,
      "duration": 0.375,
      "velocity": 0.71,
      "hand": "left"
    },
    {
      "midi": 58,
      "time": 241.5,
      "duration": 0.375,
      "velocity": 0.71,
      "hand": "left"
    },
    {
      "midi": 56,
      "time": 241.875,
      "duration": 0.375,
      "velocity": 0.71,
      "hand": "left"
    },
    {
      "midi": 82,
      "time": 242.25,
      "duration": 1.5,
      "velocity": 0.71,
      "hand": "right"
    },
    {
      "midi": 80,
      "time": 243.75,
      "duration": 0.75,
      "velocity": 0.71,
      "hand": "right"
    },
    {
      "midi": 78,
      "time": 244.5,
      "duration": 0.75,
      "velocity": 0.71,
      "hand": "right"
    },
    {
      "midi": 72,
      "time": 245.25,
      "duration": 0.75,
      "velocity": 0.71,
      "hand": "right"
    },
    {
      "midi": 77,
      "time": 246,
      "duration": 0.75,
      "velocity": 0.71,
      "hand": "right"
    },
    {
      "midi": 75,
      "time": 246.75,
      "duration": 0.75,
      "velocity": 0.71,
      "hand": "right"
    },
    {
      "midi": 73,
      "time": 247.5,
      "duration": 0.75,
      "velocity": 0.71,
      "hand": "right"
    },
    {
      "midi": 70,
      "time": 248.25,
      "duration": 0.75,
      "velocity": 0.71,
      "hand": "right"
    },
    {
      "midi": 44,
      "time": 249,
      "duration": 3,
      "velocity": 0.71,
      "hand": "left"
    },
    {
      "midi": 58,
      "time": 249,
      "duration": 1.5,
      "velocity": 0.71,
      "hand": "left"
    },
    {
      "midi": 63,
      "time": 249,
      "duration": 3,
      "velocity": 0.71,
      "hand": "right"
    },
    {
      "midi": 66,
      "time": 249,
      "duration": 3,
      "velocity": 0.71,
      "hand": "right"
    },
    {
      "midi": 56,
      "time": 249.375,
      "duration": 0.375,
      "velocity": 0.71,
      "hand": "left"
    },
    {
      "midi": 56,
      "time": 249.75,
      "duration": 0.375,
      "velocity": 0.71,
      "hand": "left"
    },
    {
      "midi": 56,
      "time": 250.125,
      "duration": 0.375,
      "velocity": 0.71,
      "hand": "left"
    },
    {
      "midi": 56,
      "time": 250.5,
      "duration": 0.375,
      "velocity": 0.71,
      "hand": "left"
    },
    {
      "midi": 60,
      "time": 250.5,
      "duration": 1.5,
      "velocity": 0.71,
      "hand": "right"
    },
    {
      "midi": 56,
      "time": 250.875,
      "duration": 0.375,
      "velocity": 0.71,
      "hand": "left"
    },
    {
      "midi": 56,
      "time": 251.25,
      "duration": 0.375,
      "velocity": 0.71,
      "hand": "left"
    },
    {
      "midi": 56,
      "time": 251.625,
      "duration": 0.375,
      "velocity": 0.71,
      "hand": "left"
    },
    {
      "midi": 49,
      "time": 252,
      "duration": 3,
      "velocity": 0.71,
      "hand": "left"
    },
    {
      "midi": 56,
      "time": 252,
      "duration": 0.375,
      "velocity": 0.71,
      "hand": "left"
    },
    {
      "midi": 61,
      "time": 252,
      "duration": 1.875,
      "velocity": 0.71,
      "hand": "right"
    },
    {
      "midi": 65,
      "time": 252,
      "duration": 3,
      "velocity": 0.71,
      "hand": "right"
    },
    {
      "midi": 56,
      "time": 252.375,
      "duration": 0.375,
      "velocity": 0.71,
      "hand": "left"
    },
    {
      "midi": 56,
      "time": 252.75,
      "duration": 0.375,
      "velocity": 0.71,
      "hand": "left"
    },
    {
      "midi": 56,
      "time": 253.125,
      "duration": 0.375,
      "velocity": 0.71,
      "hand": "left"
    },
    {
      "midi": 56,
      "time": 253.5,
      "duration": 0.375,
      "velocity": 0.71,
      "hand": "left"
    },
    {
      "midi": 56,
      "time": 253.875,
      "duration": 0.375,
      "velocity": 0.71,
      "hand": "left"
    },
    {
      "midi": 61,
      "time": 253.875,
      "duration": 0.375,
      "velocity": 0.71,
      "hand": "right"
    },
    {
      "midi": 56,
      "time": 254.25,
      "duration": 0.375,
      "velocity": 0.71,
      "hand": "left"
    },
    {
      "midi": 63,
      "time": 254.25,
      "duration": 0.563,
      "velocity": 0.71,
      "hand": "right"
    },
    {
      "midi": 56,
      "time": 254.625,
      "duration": 0.375,
      "velocity": 0.71,
      "hand": "left"
    },
    {
      "midi": 61,
      "time": 254.813,
      "duration": 0.188,
      "velocity": 0.71,
      "hand": "right"
    },
    {
      "midi": 44,
      "time": 255,
      "duration": 3,
      "velocity": 0.71,
      "hand": "left"
    },
    {
      "midi": 56,
      "time": 255,
      "duration": 0.375,
      "velocity": 0.71,
      "hand": "left"
    },
    {
      "midi": 61,
      "time": 255,
      "duration": 0.75,
      "velocity": 0.71,
      "hand": "right"
    },
    {
      "midi": 63,
      "time": 255,
      "duration": 3,
      "velocity": 0.71,
      "hand": "right"
    },
    {
      "midi": 66,
      "time": 255,
      "duration": 3,
      "velocity": 0.71,
      "hand": "right"
    },
    {
      "midi": 56,
      "time": 255.375,
      "duration": 0.375,
      "velocity": 0.71,
      "hand": "left"
    },
    {
      "midi": 56,
      "time": 255.75,
      "duration": 0.375,
      "velocity": 0.71,
      "hand": "left"
    },
    {
      "midi": 60,
      "time": 255.75,
      "duration": 0.75,
      "velocity": 0.71,
      "hand": "right"
    },
    {
      "midi": 56,
      "time": 256.125,
      "duration": 0.375,
      "velocity": 0.71,
      "hand": "left"
    },
    {
      "midi": 56,
      "time": 256.5,
      "duration": 0.375,
      "velocity": 0.71,
      "hand": "left"
    },
    {
      "midi": 70,
      "time": 256.5,
      "duration": 0.75,
      "velocity": 0.71,
      "hand": "right"
    },
    {
      "midi": 56,
      "time": 256.875,
      "duration": 0.375,
      "velocity": 0.71,
      "hand": "left"
    },
    {
      "midi": 56,
      "time": 257.25,
      "duration": 0.375,
      "velocity": 0.71,
      "hand": "left"
    },
    {
      "midi": 60,
      "time": 257.25,
      "duration": 0.75,
      "velocity": 0.71,
      "hand": "right"
    },
    {
      "midi": 56,
      "time": 257.625,
      "duration": 0.375,
      "velocity": 0.71,
      "hand": "left"
    },
    {
      "midi": 44,
      "time": 258,
      "duration": 3,
      "velocity": 0.71,
      "hand": "left"
    },
    {
      "midi": 56,
      "time": 258,
      "duration": 0.375,
      "velocity": 0.71,
      "hand": "left"
    },
    {
      "midi": 60,
      "time": 258,
      "duration": 3,
      "velocity": 0.71,
      "hand": "right"
    },
    {
      "midi": 63,
      "time": 258,
      "duration": 3,
      "velocity": 0.71,
      "hand": "right"
    },
    {
      "midi": 66,
      "time": 258,
      "duration": 3,
      "velocity": 0.71,
      "hand": "right"
    },
    {
      "midi": 56,
      "time": 258.375,
      "duration": 0.375,
      "velocity": 0.71,
      "hand": "left"
    },
    {
      "midi": 56,
      "time": 258.75,
      "duration": 0.375,
      "velocity": 0.71,
      "hand": "left"
    },
    {
      "midi": 56,
      "time": 259.125,
      "duration": 0.375,
      "velocity": 0.71,
      "hand": "left"
    },
    {
      "midi": 56,
      "time": 259.5,
      "duration": 0.375,
      "velocity": 0.71,
      "hand": "left"
    },
    {
      "midi": 56,
      "time": 259.875,
      "duration": 0.375,
      "velocity": 0.71,
      "hand": "left"
    },
    {
      "midi": 56,
      "time": 260.25,
      "duration": 0.375,
      "velocity": 0.71,
      "hand": "left"
    },
    {
      "midi": 56,
      "time": 260.625,
      "duration": 0.375,
      "velocity": 0.71,
      "hand": "left"
    },
    {
      "midi": 49,
      "time": 261,
      "duration": 1.5,
      "velocity": 0.71,
      "hand": "left"
    },
    {
      "midi": 56,
      "time": 261,
      "duration": 0.375,
      "velocity": 0.71,
      "hand": "left"
    },
    {
      "midi": 61,
      "time": 261,
      "duration": 3,
      "velocity": 0.71,
      "hand": "right"
    },
    {
      "midi": 65,
      "time": 261,
      "duration": 3,
      "velocity": 0.71,
      "hand": "right"
    },
    {
      "midi": 56,
      "time": 261.375,
      "duration": 0.375,
      "velocity": 0.71,
      "hand": "left"
    },
    {
      "midi": 56,
      "time": 261.75,
      "duration": 0.375,
      "velocity": 0.71,
      "hand": "left"
    },
    {
      "midi": 56,
      "time": 262.125,
      "duration": 0.375,
      "velocity": 0.71,
      "hand": "left"
    },
    {
      "midi": 44,
      "time": 262.5,
      "duration": 1.5,
      "velocity": 0.71,
      "hand": "left"
    },
    {
      "midi": 56,
      "time": 262.5,
      "duration": 0.375,
      "velocity": 0.71,
      "hand": "left"
    },
    {
      "midi": 56,
      "time": 262.875,
      "duration": 0.375,
      "velocity": 0.71,
      "hand": "left"
    },
    {
      "midi": 56,
      "time": 263.25,
      "duration": 0.375,
      "velocity": 0.71,
      "hand": "left"
    },
    {
      "midi": 56,
      "time": 263.625,
      "duration": 0.375,
      "velocity": 0.71,
      "hand": "left"
    },
    {
      "midi": 37,
      "time": 264,
      "duration": 3,
      "velocity": 0.71,
      "hand": "left"
    },
    {
      "midi": 56,
      "time": 264,
      "duration": 3,
      "velocity": 0.71,
      "hand": "left"
    },
    {
      "midi": 61,
      "time": 264,
      "duration": 3,
      "velocity": 0.71,
      "hand": "right"
    },
    {
      "midi": 65,
      "time": 264,
      "duration": 3,
      "velocity": 0.71,
      "hand": "right"
    }
  ],
  "arrangements": {
    "easy": [
      {
        "midi": 77,
        "time": 0,
        "duration": 0.563,
        "velocity": 0.71,
        "hand": "right"
      },
      {
        "midi": 73,
        "time": 0.563,
        "duration": 0.375,
        "velocity": 0.71,
        "hand": "right"
      },
      {
        "midi": 70,
        "time": 2.25,
        "duration": 0.75,
        "velocity": 0.71,
        "hand": "right"
      },
      {
        "midi": 72,
        "time": 3,
        "duration": 2.25,
        "velocity": 0.71,
        "hand": "right"
      },
      {
        "midi": 73,
        "time": 5.25,
        "duration": 0.75,
        "velocity": 0.71,
        "hand": "right"
      },
      {
        "midi": 75,
        "time": 6,
        "duration": 0.563,
        "velocity": 0.71,
        "hand": "right"
      },
      {
        "midi": 77,
        "time": 6.563,
        "duration": 0.375,
        "velocity": 0.71,
        "hand": "right"
      },
      {
        "midi": 77,
        "time": 8.25,
        "duration": 0.75,
        "velocity": 0.71,
        "hand": "right"
      },
      {
        "midi": 77,
        "time": 9,
        "duration": 1.125,
        "velocity": 0.71,
        "hand": "right"
      },
      {
        "midi": 66,
        "time": 9.75,
        "duration": 0.375,
        "velocity": 0.71,
        "hand": "right"
      },
      {
        "midi": 75,
        "time": 10.125,
        "duration": 0.375,
        "velocity": 0.71,
        "hand": "right"
      },
      {
        "midi": 73,
        "time": 10.5,
        "duration": 0.75,
        "velocity": 0.71,
        "hand": "right"
      },
      {
        "midi": 75,
        "time": 11.25,
        "duration": 0.375,
        "velocity": 0.71,
        "hand": "right"
      },
      {
        "midi": 77,
        "time": 12,
        "duration": 0.563,
        "velocity": 0.71,
        "hand": "right"
      },
      {
        "midi": 73,
        "time": 12.563,
        "duration": 0.375,
        "velocity": 0.71,
        "hand": "right"
      },
      {
        "midi": 70,
        "time": 14.25,
        "duration": 0.75,
        "velocity": 0.71,
        "hand": "right"
      },
      {
        "midi": 72,
        "time": 15,
        "duration": 2.25,
        "velocity": 0.71,
        "hand": "right"
      },
      {
        "midi": 73,
        "time": 17.25,
        "duration": 0.75,
        "velocity": 0.71,
        "hand": "right"
      },
      {
        "midi": 75,
        "time": 18,
        "duration": 0.563,
        "velocity": 0.71,
        "hand": "right"
      },
      {
        "midi": 77,
        "time": 18.563,
        "duration": 0.375,
        "velocity": 0.71,
        "hand": "right"
      },
      {
        "midi": 77,
        "time": 20.25,
        "duration": 0.75,
        "velocity": 0.71,
        "hand": "right"
      },
      {
        "midi": 77,
        "time": 21,
        "duration": 1.125,
        "velocity": 0.71,
        "hand": "right"
      },
      {
        "midi": 63,
        "time": 21.75,
        "duration": 0.375,
        "velocity": 0.71,
        "hand": "right"
      },
      {
        "midi": 75,
        "time": 22.125,
        "duration": 0.375,
        "velocity": 0.71,
        "hand": "right"
      },
      {
        "midi": 73,
        "time": 22.5,
        "duration": 0.75,
        "velocity": 0.71,
        "hand": "right"
      },
      {
        "midi": 72,
        "time": 23.25,
        "duration": 0.375,
        "velocity": 0.71,
        "hand": "right"
      },
      {
        "midi": 73,
        "time": 23.625,
        "duration": 0.375,
        "velocity": 0.71,
        "hand": "right"
      },
      {
        "midi": 75,
        "time": 24,
        "duration": 0.75,
        "velocity": 0.71,
        "hand": "right"
      },
      {
        "midi": 75,
        "time": 24.75,
        "duration": 1.5,
        "velocity": 0.71,
        "hand": "right"
      },
      {
        "midi": 63,
        "time": 25.5,
        "duration": 0.375,
        "velocity": 0.71,
        "hand": "right"
      },
      {
        "midi": 77,
        "time": 26.25,
        "duration": 0.75,
        "velocity": 0.71,
        "hand": "right"
      },
      {
        "midi": 61,
        "time": 26.625,
        "duration": 0.375,
        "velocity": 0.71,
        "hand": "right"
      },
      {
        "midi": 78,
        "time": 27,
        "duration": 0.375,
        "velocity": 0.71,
        "hand": "right"
      },
      {
        "midi": 77,
        "time": 27.375,
        "duration": 0.375,
        "velocity": 0.71,
        "hand": "right"
      },
      {
        "midi": 75,
        "time": 27.75,
        "duration": 0.375,
        "velocity": 0.71,
        "hand": "right"
      },
      {
        "midi": 73,
        "time": 28.125,
        "duration": 0.375,
        "velocity": 0.71,
        "hand": "right"
      },
      {
        "midi": 77,
        "time": 28.5,
        "duration": 1.5,
        "velocity": 0.71,
        "hand": "right"
      },
      {
        "midi": 65,
        "time": 29.25,
        "duration": 0.375,
        "velocity": 0.71,
        "hand": "right"
      },
      {
        "midi": 75,
        "time": 30,
        "duration": 0.375,
        "velocity": 0.71,
        "hand": "right"
      },
      {
        "midi": 71,
        "time": 30.375,
        "duration": 0.375,
        "velocity": 0.71,
        "hand": "right"
      },
      {
        "midi": 70,
        "time": 30.75,
        "duration": 0.375,
        "velocity": 0.71,
        "hand": "right"
      },
      {
        "midi": 68,
        "time": 31.125,
        "duration": 0.375,
        "velocity": 0.71,
        "hand": "right"
      },
      {
        "midi": 70,
        "time": 31.5,
        "duration": 0.563,
        "velocity": 0.71,
        "hand": "right"
      },
      {
        "midi": 70,
        "time": 32.25,
        "duration": 0.563,
        "velocity": 0.71,
        "hand": "right"
      },
      {
        "midi": 71,
        "time": 32.813,
        "duration": 0.375,
        "velocity": 0.71,
        "hand": "right"
      },
      {
        "midi": 75,
        "time": 33.75,
        "duration": 0.75,
        "velocity": 0.71,
        "hand": "right"
      },
      {
        "midi": 73,
        "time": 34.5,
        "duration": 0.75,
        "velocity": 0.71,
        "hand": "right"
      },
      {
        "midi": 76,
        "time": 35.25,
        "duration": 0.75,
        "velocity": 0.71,
        "hand": "right"
      },
      {
        "midi": 75,
        "time": 36,
        "duration": 0.75,
        "velocity": 0.71,
        "hand": "right"
      },
      {
        "midi": 75,
        "time": 36.75,
        "duration": 1.5,
        "velocity": 0.71,
        "hand": "right"
      },
      {
        "midi": 77,
        "time": 38.25,
        "duration": 0.75,
        "velocity": 0.71,
        "hand": "right"
      },
      {
        "midi": 78,
        "time": 39,
        "duration": 0.375,
        "velocity": 0.71,
        "hand": "right"
      },
      {
        "midi": 77,
        "time": 39.375,
        "duration": 0.375,
        "velocity": 0.71,
        "hand": "right"
      },
      {
        "midi": 75,
        "time": 39.75,
        "duration": 0.375,
        "velocity": 0.71,
        "hand": "right"
      },
      {
        "midi": 73,
        "time": 40.125,
        "duration": 0.375,
        "velocity": 0.71,
        "hand": "right"
      },
      {
        "midi": 77,
        "time": 40.5,
        "duration": 1.875,
        "velocity": 0.71,
        "hand": "right"
      },
      {
        "midi": 65,
        "time": 41.25,
        "duration": 0.375,
        "velocity": 0.71,
        "hand": "right"
      },
      {
        "midi": 73,
        "time": 42.375,
        "duration": 0.375,
        "velocity": 0.71,
        "hand": "right"
      },
      {
        "midi": 72,
        "time": 42.75,
        "duration": 0.375,
        "velocity": 0.71,
        "hand": "right"
      },
      {
        "midi": 70,
        "time": 43.125,
        "duration": 0.375,
        "velocity": 0.71,
        "hand": "right"
      },
      {
        "midi": 72,
        "time": 43.5,
        "duration": 0.563,
        "velocity": 0.71,
        "hand": "right"
      },
      {
        "midi": 72,
        "time": 44.25,
        "duration": 0.375,
        "velocity": 0.71,
        "hand": "right"
      },
      {
        "midi": 73,
        "time": 44.625,
        "duration": 0.375,
        "velocity": 0.71,
        "hand": "right"
      },
      {
        "midi": 70,
        "time": 45,
        "duration": 0.75,
        "velocity": 0.71,
        "hand": "right"
      },
      {
        "midi": 77,
        "time": 45.75,
        "duration": 0.75,
        "velocity": 0.71,
        "hand": "right"
      },
      {
        "midi": 75,
        "time": 46.5,
        "duration": 0.75,
        "velocity": 0.71,
        "hand": "right"
      },
      {
        "midi": 78,
        "time": 47.25,
        "duration": 0.75,
        "velocity": 0.71,
        "hand": "right"
      },
      {
        "midi": 77,
        "time": 48,
        "duration": 0.375,
        "velocity": 0.71,
        "hand": "right"
      },
      {
        "midi": 73,
        "time": 48.375,
        "duration": 0.375,
        "velocity": 0.71,
        "hand": "right"
      },
      {
        "midi": 72,
        "time": 48.75,
        "duration": 0.375,
        "velocity": 0.71,
        "hand": "right"
      },
      {
        "midi": 70,
        "time": 49.125,
        "duration": 0.375,
        "velocity": 0.71,
        "hand": "right"
      },
      {
        "midi": 72,
        "time": 49.5,
        "duration": 0.563,
        "velocity": 0.71,
        "hand": "right"
      },
      {
        "midi": 72,
        "time": 50.25,
        "duration": 0.563,
        "velocity": 0.71,
        "hand": "right"
      },
      {
        "midi": 73,
        "time": 50.813,
        "duration": 0.375,
        "velocity": 0.71,
        "hand": "right"
      },
      {
        "midi": 75,
        "time": 51.75,
        "duration": 0.75,
        "velocity": 0.71,
        "hand": "right"
      },
      {
        "midi": 77,
        "time": 52.5,
        "duration": 0.75,
        "velocity": 0.71,
        "hand": "right"
      },
      {
        "midi": 75,
        "time": 53.25,
        "duration": 0.75,
        "velocity": 0.71,
        "hand": "right"
      },
      {
        "midi": 77,
        "time": 54,
        "duration": 2.25,
        "velocity": 0.71,
        "hand": "right"
      },
      {
        "midi": 65,
        "time": 55.5,
        "duration": 0.375,
        "velocity": 0.71,
        "hand": "right"
      },
      {
        "midi": 75,
        "time": 56.25,
        "duration": 0.75,
        "velocity": 0.71,
        "hand": "right"
      },
      {
        "midi": 77,
        "time": 57,
        "duration": 0.563,
        "velocity": 0.71,
        "hand": "right"
      },
      {
        "midi": 73,
        "time": 57.563,
        "duration": 0.375,
        "velocity": 0.71,
        "hand": "right"
      },
      {
        "midi": 70,
        "time": 59.25,
        "duration": 0.75,
        "velocity": 0.71,
        "hand": "right"
      },
      {
        "midi": 72,
        "time": 60,
        "duration": 2.25,
        "velocity": 0.71,
        "hand": "right"
      },
      {
        "midi": 73,
        "time": 62.25,
        "duration": 0.75,
        "velocity": 0.71,
        "hand": "right"
      },
      {
        "midi": 75,
        "time": 63,
        "duration": 0.563,
        "velocity": 0.71,
        "hand": "right"
      },
      {
        "midi": 77,
        "time": 63.563,
        "duration": 0.375,
        "velocity": 0.71,
        "hand": "right"
      },
      {
        "midi": 77,
        "time": 65.25,
        "duration": 0.75,
        "velocity": 0.71,
        "hand": "right"
      },
      {
        "midi": 77,
        "time": 66,
        "duration": 1.125,
        "velocity": 0.71,
        "hand": "right"
      },
      {
        "midi": 66,
        "time": 66.75,
        "duration": 0.375,
        "velocity": 0.71,
        "hand": "right"
      },
      {
        "midi": 75,
        "time": 67.125,
        "duration": 0.375,
        "velocity": 0.71,
        "hand": "right"
      },
      {
        "midi": 73,
        "time": 67.5,
        "duration": 0.75,
        "velocity": 0.71,
        "hand": "right"
      },
      {
        "midi": 74,
        "time": 68.25,
        "duration": 0.375,
        "velocity": 0.71,
        "hand": "right"
      },
      {
        "midi": 80,
        "time": 68.625,
        "duration": 0.375,
        "velocity": 0.71,
        "hand": "right"
      },
      {
        "midi": 77,
        "time": 69,
        "duration": 0.563,
        "velocity": 0.71,
        "hand": "right"
      },
      {
        "midi": 73,
        "time": 69.563,
        "duration": 0.375,
        "velocity": 0.71,
        "hand": "right"
      },
      {
        "midi": 70,
        "time": 71.25,
        "duration": 0.75,
        "velocity": 0.71,
        "hand": "right"
      },
      {
        "midi": 72,
        "time": 72,
        "duration": 2.25,
        "velocity": 0.71,
        "hand": "right"
      },
      {
        "midi": 73,
        "time": 74.25,
        "duration": 0.75,
        "velocity": 0.71,
        "hand": "right"
      },
      {
        "midi": 75,
        "time": 75,
        "duration": 0.563,
        "velocity": 0.71,
        "hand": "right"
      },
      {
        "midi": 77,
        "time": 75.563,
        "duration": 0.375,
        "velocity": 0.71,
        "hand": "right"
      },
      {
        "midi": 72,
        "time": 77.25,
        "duration": 0.75,
        "velocity": 0.71,
        "hand": "right"
      },
      {
        "midi": 75,
        "time": 78,
        "duration": 1.5,
        "velocity": 0.71,
        "hand": "right"
      },
      {
        "midi": 68,
        "time": 102.375,
        "duration": 0.375,
        "velocity": 0.71,
        "hand": "right"
      },
      {
        "midi": 68,
        "time": 103.125,
        "duration": 0.375,
        "velocity": 0.71,
        "hand": "right"
      },
      {
        "midi": 68,
        "time": 103.875,
        "duration": 0.375,
        "velocity": 0.71,
        "hand": "right"
      },
      {
        "midi": 68,
        "time": 104.625,
        "duration": 0.375,
        "velocity": 0.71,
        "hand": "right"
      },
      {
        "midi": 68,
        "time": 105.375,
        "duration": 0.375,
        "velocity": 0.71,
        "hand": "right"
      },
      {
        "midi": 68,
        "time": 106.125,
        "duration": 0.375,
        "velocity": 0.71,
        "hand": "right"
      },
      {
        "midi": 68,
        "time": 106.875,
        "duration": 0.375,
        "velocity": 0.71,
        "hand": "right"
      },
      {
        "midi": 68,
        "time": 107.625,
        "duration": 0.375,
        "velocity": 0.71,
        "hand": "right"
      },
      {
        "midi": 68,
        "time": 108.375,
        "duration": 0.375,
        "velocity": 0.71,
        "hand": "right"
      },
      {
        "midi": 68,
        "time": 109.125,
        "duration": 0.375,
        "velocity": 0.71,
        "hand": "right"
      },
      {
        "midi": 68,
        "time": 109.875,
        "duration": 0.375,
        "velocity": 0.71,
        "hand": "right"
      },
      {
        "midi": 68,
        "time": 110.625,
        "duration": 0.375,
        "velocity": 0.71,
        "hand": "right"
      },
      {
        "midi": 68,
        "time": 111.375,
        "duration": 0.375,
        "velocity": 0.71,
        "hand": "right"
      },
      {
        "midi": 68,
        "time": 112.125,
        "duration": 0.375,
        "velocity": 0.71,
        "hand": "right"
      },
      {
        "midi": 68,
        "time": 112.875,
        "duration": 0.375,
        "velocity": 0.71,
        "hand": "right"
      },
      {
        "midi": 68,
        "time": 113.625,
        "duration": 0.375,
        "velocity": 0.71,
        "hand": "right"
      },
      {
        "midi": 68,
        "time": 114.375,
        "duration": 0.375,
        "velocity": 0.71,
        "hand": "right"
      },
      {
        "midi": 68,
        "time": 115.125,
        "duration": 0.375,
        "velocity": 0.71,
        "hand": "right"
      },
      {
        "midi": 68,
        "time": 115.875,
        "duration": 0.375,
        "velocity": 0.71,
        "hand": "right"
      },
      {
        "midi": 68,
        "time": 116.625,
        "duration": 0.375,
        "velocity": 0.71,
        "hand": "right"
      },
      {
        "midi": 71,
        "time": 117,
        "duration": 0.375,
        "velocity": 0.71,
        "hand": "right"
      },
      {
        "midi": 71,
        "time": 117.75,
        "duration": 0.375,
        "velocity": 0.71,
        "hand": "right"
      },
      {
        "midi": 71,
        "time": 118.5,
        "duration": 0.375,
        "velocity": 0.71,
        "hand": "right"
      },
      {
        "midi": 71,
        "time": 119.25,
        "duration": 0.375,
        "velocity": 0.71,
        "hand": "right"
      },
      {
        "midi": 71,
        "time": 120,
        "duration": 0.375,
        "velocity": 0.71,
        "hand": "right"
      },
      {
        "midi": 71,
        "time": 120.75,
        "duration": 0.375,
        "velocity": 0.71,
        "hand": "right"
      },
      {
        "midi": 71,
        "time": 121.5,
        "duration": 0.375,
        "velocity": 0.71,
        "hand": "right"
      },
      {
        "midi": 71,
        "time": 122.25,
        "duration": 0.375,
        "velocity": 0.71,
        "hand": "right"
      },
      {
        "midi": 71,
        "time": 123,
        "duration": 0.375,
        "velocity": 0.71,
        "hand": "right"
      },
      {
        "midi": 71,
        "time": 123.75,
        "duration": 0.375,
        "velocity": 0.71,
        "hand": "right"
      },
      {
        "midi": 71,
        "time": 124.5,
        "duration": 0.375,
        "velocity": 0.71,
        "hand": "right"
      },
      {
        "midi": 71,
        "time": 125.25,
        "duration": 0.375,
        "velocity": 0.71,
        "hand": "right"
      },
      {
        "midi": 71,
        "time": 126,
        "duration": 0.375,
        "velocity": 0.71,
        "hand": "right"
      },
      {
        "midi": 68,
        "time": 150.375,
        "duration": 0.375,
        "velocity": 0.71,
        "hand": "right"
      },
      {
        "midi": 68,
        "time": 151.125,
        "duration": 0.375,
        "velocity": 0.71,
        "hand": "right"
      },
      {
        "midi": 68,
        "time": 151.875,
        "duration": 0.375,
        "velocity": 0.71,
        "hand": "right"
      },
      {
        "midi": 68,
        "time": 152.625,
        "duration": 0.375,
        "velocity": 0.71,
        "hand": "right"
      },
      {
        "midi": 68,
        "time": 153.375,
        "duration": 0.375,
        "velocity": 0.71,
        "hand": "right"
      },
      {
        "midi": 68,
        "time": 154.125,
        "duration": 0.375,
        "velocity": 0.71,
        "hand": "right"
      },
      {
        "midi": 68,
        "time": 154.875,
        "duration": 0.375,
        "velocity": 0.71,
        "hand": "right"
      },
      {
        "midi": 68,
        "time": 155.625,
        "duration": 0.375,
        "velocity": 0.71,
        "hand": "right"
      },
      {
        "midi": 68,
        "time": 156.375,
        "duration": 0.375,
        "velocity": 0.71,
        "hand": "right"
      },
      {
        "midi": 68,
        "time": 157.125,
        "duration": 0.375,
        "velocity": 0.71,
        "hand": "right"
      },
      {
        "midi": 68,
        "time": 157.875,
        "duration": 0.375,
        "velocity": 0.71,
        "hand": "right"
      },
      {
        "midi": 68,
        "time": 158.625,
        "duration": 0.375,
        "velocity": 0.71,
        "hand": "right"
      },
      {
        "midi": 68,
        "time": 159.375,
        "duration": 0.375,
        "velocity": 0.71,
        "hand": "right"
      },
      {
        "midi": 68,
        "time": 160.125,
        "duration": 0.375,
        "velocity": 0.71,
        "hand": "right"
      },
      {
        "midi": 68,
        "time": 160.875,
        "duration": 0.375,
        "velocity": 0.71,
        "hand": "right"
      },
      {
        "midi": 68,
        "time": 161.625,
        "duration": 0.375,
        "velocity": 0.71,
        "hand": "right"
      },
      {
        "midi": 68,
        "time": 162.375,
        "duration": 0.375,
        "velocity": 0.71,
        "hand": "right"
      },
      {
        "midi": 68,
        "time": 163.125,
        "duration": 0.375,
        "velocity": 0.71,
        "hand": "right"
      },
      {
        "midi": 68,
        "time": 163.875,
        "duration": 0.375,
        "velocity": 0.71,
        "hand": "right"
      },
      {
        "midi": 68,
        "time": 164.625,
        "duration": 0.375,
        "velocity": 0.71,
        "hand": "right"
      },
      {
        "midi": 71,
        "time": 165,
        "duration": 0.375,
        "velocity": 0.71,
        "hand": "right"
      },
      {
        "midi": 71,
        "time": 165.75,
        "duration": 0.375,
        "velocity": 0.71,
        "hand": "right"
      },
      {
        "midi": 71,
        "time": 166.5,
        "duration": 0.375,
        "velocity": 0.71,
        "hand": "right"
      },
      {
        "midi": 71,
        "time": 167.25,
        "duration": 0.375,
        "velocity": 0.71,
        "hand": "right"
      },
      {
        "midi": 71,
        "time": 168,
        "duration": 0.375,
        "velocity": 0.71,
        "hand": "right"
      },
      {
        "midi": 71,
        "time": 168.75,
        "duration": 0.375,
        "velocity": 0.71,
        "hand": "right"
      },
      {
        "midi": 71,
        "time": 169.5,
        "duration": 0.375,
        "velocity": 0.71,
        "hand": "right"
      },
      {
        "midi": 71,
        "time": 170.25,
        "duration": 0.375,
        "velocity": 0.71,
        "hand": "right"
      },
      {
        "midi": 71,
        "time": 171,
        "duration": 0.375,
        "velocity": 0.71,
        "hand": "right"
      },
      {
        "midi": 71,
        "time": 171.75,
        "duration": 0.375,
        "velocity": 0.71,
        "hand": "right"
      },
      {
        "midi": 71,
        "time": 172.5,
        "duration": 0.375,
        "velocity": 0.71,
        "hand": "right"
      },
      {
        "midi": 71,
        "time": 173.25,
        "duration": 0.375,
        "velocity": 0.71,
        "hand": "right"
      },
      {
        "midi": 71,
        "time": 174,
        "duration": 0.375,
        "velocity": 0.71,
        "hand": "right"
      },
      {
        "midi": 68,
        "time": 174.375,
        "duration": 0.375,
        "velocity": 0.71,
        "hand": "right"
      },
      {
        "midi": 68,
        "time": 175.125,
        "duration": 0.375,
        "velocity": 0.71,
        "hand": "right"
      },
      {
        "midi": 68,
        "time": 175.875,
        "duration": 0.375,
        "velocity": 0.71,
        "hand": "right"
      },
      {
        "midi": 68,
        "time": 176.625,
        "duration": 0.375,
        "velocity": 0.71,
        "hand": "right"
      },
      {
        "midi": 72,
        "time": 177,
        "duration": 1.5,
        "velocity": 0.71,
        "hand": "right"
      },
      {
        "midi": 68,
        "time": 177.375,
        "duration": 0.375,
        "velocity": 0.71,
        "hand": "right"
      },
      {
        "midi": 68,
        "time": 178.125,
        "duration": 0.375,
        "velocity": 0.71,
        "hand": "right"
      },
      {
        "midi": 73,
        "time": 178.5,
        "duration": 1.5,
        "velocity": 0.71,
        "hand": "right"
      },
      {
        "midi": 68,
        "time": 178.875,
        "duration": 0.375,
        "velocity": 0.71,
        "hand": "right"
      },
      {
        "midi": 68,
        "time": 179.625,
        "duration": 0.375,
        "velocity": 0.71,
        "hand": "right"
      },
      {
        "midi": 75,
        "time": 180,
        "duration": 2.25,
        "velocity": 0.71,
        "hand": "right"
      },
      {
        "midi": 68,
        "time": 180.375,
        "duration": 0.375,
        "velocity": 0.71,
        "hand": "right"
      },
      {
        "midi": 68,
        "time": 181.125,
        "duration": 0.375,
        "velocity": 0.71,
        "hand": "right"
      },
      {
        "midi": 68,
        "time": 181.875,
        "duration": 0.375,
        "velocity": 0.71,
        "hand": "right"
      },
      {
        "midi": 75,
        "time": 182.25,
        "duration": 0.75,
        "velocity": 0.71,
        "hand": "right"
      },
      {
        "midi": 68,
        "time": 182.625,
        "duration": 0.375,
        "velocity": 0.71,
        "hand": "right"
      },
      {
        "midi": 76,
        "time": 183,
        "duration": 0.75,
        "velocity": 0.71,
        "hand": "right"
      },
      {
        "midi": 68,
        "time": 183.375,
        "duration": 0.375,
        "velocity": 0.71,
        "hand": "right"
      },
      {
        "midi": 76,
        "time": 183.75,
        "duration": 0.75,
        "velocity": 0.71,
        "hand": "right"
      },
      {
        "midi": 68,
        "time": 184.125,
        "duration": 0.375,
        "velocity": 0.71,
        "hand": "right"
      },
      {
        "midi": 75,
        "time": 184.5,
        "duration": 0.75,
        "velocity": 0.71,
        "hand": "right"
      },
      {
        "midi": 68,
        "time": 184.875,
        "duration": 0.375,
        "velocity": 0.71,
        "hand": "right"
      },
      {
        "midi": 75,
        "time": 185.25,
        "duration": 0.75,
        "velocity": 0.71,
        "hand": "right"
      },
      {
        "midi": 68,
        "time": 185.625,
        "duration": 0.375,
        "velocity": 0.71,
        "hand": "right"
      },
      {
        "midi": 73,
        "time": 186,
        "duration": 3,
        "velocity": 0.71,
        "hand": "right"
      },
      {
        "midi": 68,
        "time": 186.375,
        "duration": 0.375,
        "velocity": 0.71,
        "hand": "right"
      },
      {
        "midi": 66,
        "time": 186.75,
        "duration": 0.375,
        "velocity": 0.71,
        "hand": "right"
      },
      {
        "midi": 68,
        "time": 187.5,
        "duration": 0.375,
        "velocity": 0.71,
        "hand": "right"
      },
      {
        "midi": 69,
        "time": 188.25,
        "duration": 0.375,
        "velocity": 0.71,
        "hand": "right"
      },
      {
        "midi": 68,
        "time": 189,
        "duration": 1.5,
        "velocity": 0.71,
        "hand": "right"
      },
      {
        "midi": 68,
        "time": 190.5,
        "duration": 0.75,
        "velocity": 0.71,
        "hand": "right"
      },
      {
        "midi": 68,
        "time": 191.25,
        "duration": 0.75,
        "velocity": 0.71,
        "hand": "right"
      },
      {
        "midi": 68,
        "time": 192,
        "duration": 0.75,
        "velocity": 0.71,
        "hand": "right"
      },
      {
        "midi": 68,
        "time": 192.75,
        "duration": 0.75,
        "velocity": 0.71,
        "hand": "right"
      },
      {
        "midi": 68,
        "time": 193.5,
        "duration": 0.75,
        "velocity": 0.71,
        "hand": "right"
      },
      {
        "midi": 68,
        "time": 194.25,
        "duration": 0.75,
        "velocity": 0.71,
        "hand": "right"
      },
      {
        "midi": 68,
        "time": 195,
        "duration": 0.75,
        "velocity": 0.71,
        "hand": "right"
      },
      {
        "midi": 68,
        "time": 195.75,
        "duration": 0.75,
        "velocity": 0.71,
        "hand": "right"
      },
      {
        "midi": 68,
        "time": 196.5,
        "duration": 0.75,
        "velocity": 0.71,
        "hand": "right"
      },
      {
        "midi": 68,
        "time": 197.25,
        "duration": 0.75,
        "velocity": 0.71,
        "hand": "right"
      },
      {
        "midi": 68,
        "time": 198,
        "duration": 3,
        "velocity": 0.71,
        "hand": "right"
      },
      {
        "midi": 72,
        "time": 201,
        "duration": 1.5,
        "velocity": 0.71,
        "hand": "right"
      },
      {
        "midi": 68,
        "time": 201.375,
        "duration": 0.375,
        "velocity": 0.71,
        "hand": "right"
      },
      {
        "midi": 68,
        "time": 202.125,
        "duration": 0.375,
        "velocity": 0.71,
        "hand": "right"
      },
      {
        "midi": 73,
        "time": 202.5,
        "duration": 1.5,
        "velocity": 0.71,
        "hand": "right"
      },
      {
        "midi": 68,
        "time": 202.875,
        "duration": 0.375,
        "velocity": 0.71,
        "hand": "right"
      },
      {
        "midi": 68,
        "time": 203.625,
        "duration": 0.375,
        "velocity": 0.71,
        "hand": "right"
      },
      {
        "midi": 75,
        "time": 204,
        "duration": 2.25,
        "velocity": 0.71,
        "hand": "right"
      },
      {
        "midi": 68,
        "time": 204.375,
        "duration": 0.375,
        "velocity": 0.71,
        "hand": "right"
      },
      {
        "midi": 68,
        "time": 205.125,
        "duration": 0.375,
        "velocity": 0.71,
        "hand": "right"
      },
      {
        "midi": 68,
        "time": 205.875,
        "duration": 0.375,
        "velocity": 0.71,
        "hand": "right"
      },
      {
        "midi": 75,
        "time": 206.25,
        "duration": 0.75,
        "velocity": 0.71,
        "hand": "right"
      },
      {
        "midi": 68,
        "time": 206.625,
        "duration": 0.375,
        "velocity": 0.71,
        "hand": "right"
      },
      {
        "midi": 76,
        "time": 207,
        "duration": 0.75,
        "velocity": 0.71,
        "hand": "right"
      },
      {
        "midi": 68,
        "time": 207.375,
        "duration": 0.375,
        "velocity": 0.71,
        "hand": "right"
      },
      {
        "midi": 76,
        "time": 207.75,
        "duration": 0.75,
        "velocity": 0.71,
        "hand": "right"
      },
      {
        "midi": 68,
        "time": 208.125,
        "duration": 0.375,
        "velocity": 0.71,
        "hand": "right"
      },
      {
        "midi": 75,
        "time": 208.5,
        "duration": 0.75,
        "velocity": 0.71,
        "hand": "right"
      },
      {
        "midi": 68,
        "time": 208.875,
        "duration": 0.375,
        "velocity": 0.71,
        "hand": "right"
      },
      {
        "midi": 75,
        "time": 209.25,
        "duration": 0.75,
        "velocity": 0.71,
        "hand": "right"
      },
      {
        "midi": 68,
        "time": 209.625,
        "duration": 0.375,
        "velocity": 0.71,
        "hand": "right"
      },
      {
        "midi": 73,
        "time": 210,
        "duration": 1.5,
        "velocity": 0.71,
        "hand": "right"
      },
      {
        "midi": 61,
        "time": 210.375,
        "duration": 0.375,
        "velocity": 0.71,
        "hand": "right"
      },
      {
        "midi": 61,
        "time": 211.125,
        "duration": 0.375,
        "velocity": 0.71,
        "hand": "right"
      },
      {
        "midi": 73,
        "time": 211.5,
        "duration": 0.75,
        "velocity": 0.71,
        "hand": "right"
      },
      {
        "midi": 61,
        "time": 211.875,
        "duration": 0.375,
        "velocity": 0.71,
        "hand": "right"
      },
      {
        "midi": 73,
        "time": 212.25,
        "duration": 0.75,
        "velocity": 0.71,
        "hand": "right"
      },
      {
        "midi": 61,
        "time": 212.625,
        "duration": 0.375,
        "velocity": 0.71,
        "hand": "right"
      },
      {
        "midi": 68,
        "time": 213,
        "duration": 1.5,
        "velocity": 0.71,
        "hand": "right"
      },
      {
        "midi": 68,
        "time": 214.5,
        "duration": 0.75,
        "velocity": 0.71,
        "hand": "right"
      },
      {
        "midi": 70,
        "time": 215.25,
        "duration": 0.75,
        "velocity": 0.71,
        "hand": "right"
      },
      {
        "midi": 70,
        "time": 216,
        "duration": 1.5,
        "velocity": 0.71,
        "hand": "right"
      },
      {
        "midi": 68,
        "time": 217.5,
        "duration": 0.75,
        "velocity": 0.71,
        "hand": "right"
      },
      {
        "midi": 70,
        "time": 218.25,
        "duration": 0.75,
        "velocity": 0.71,
        "hand": "right"
      },
      {
        "midi": 70,
        "time": 219,
        "duration": 1.5,
        "velocity": 0.71,
        "hand": "right"
      },
      {
        "midi": 68,
        "time": 220.5,
        "duration": 0.75,
        "velocity": 0.71,
        "hand": "right"
      },
      {
        "midi": 70,
        "time": 221.25,
        "duration": 0.75,
        "velocity": 0.71,
        "hand": "right"
      },
      {
        "midi": 70,
        "time": 222,
        "duration": 0.75,
        "velocity": 0.71,
        "hand": "right"
      },
      {
        "midi": 68,
        "time": 222.75,
        "duration": 0.75,
        "velocity": 0.71,
        "hand": "right"
      },
      {
        "midi": 77,
        "time": 225,
        "duration": 0.563,
        "velocity": 0.71,
        "hand": "right"
      },
      {
        "midi": 73,
        "time": 225.563,
        "duration": 0.375,
        "velocity": 0.71,
        "hand": "right"
      },
      {
        "midi": 70,
        "time": 227.25,
        "duration": 0.75,
        "velocity": 0.71,
        "hand": "right"
      },
      {
        "midi": 72,
        "time": 228,
        "duration": 2.25,
        "velocity": 0.71,
        "hand": "right"
      },
      {
        "midi": 73,
        "time": 230.25,
        "duration": 0.75,
        "velocity": 0.71,
        "hand": "right"
      },
      {
        "midi": 75,
        "time": 231,
        "duration": 0.563,
        "velocity": 0.71,
        "hand": "right"
      },
      {
        "midi": 77,
        "time": 231.563,
        "duration": 0.375,
        "velocity": 0.71,
        "hand": "right"
      },
      {
        "midi": 77,
        "time": 233.25,
        "duration": 0.75,
        "velocity": 0.71,
        "hand": "right"
      },
      {
        "midi": 77,
        "time": 234,
        "duration": 1.125,
        "velocity": 0.71,
        "hand": "right"
      },
      {
        "midi": 66,
        "time": 234.75,
        "duration": 0.375,
        "velocity": 0.71,
        "hand": "right"
      },
      {
        "midi": 75,
        "time": 235.125,
        "duration": 0.375,
        "velocity": 0.71,
        "hand": "right"
      },
      {
        "midi": 73,
        "time": 235.5,
        "duration": 0.563,
        "velocity": 0.71,
        "hand": "right"
      },
      {
        "midi": 74,
        "time": 236.063,
        "duration": 0.375,
        "velocity": 0.71,
        "hand": "right"
      },
      {
        "midi": 77,
        "time": 237,
        "duration": 0.563,
        "velocity": 0.71,
        "hand": "right"
      },
      {
        "midi": 73,
        "time": 237.563,
        "duration": 0.375,
        "velocity": 0.71,
        "hand": "right"
      },
      {
        "midi": 70,
        "time": 239.25,
        "duration": 0.75,
        "velocity": 0.71,
        "hand": "right"
      },
      {
        "midi": 72,
        "time": 240,
        "duration": 0.75,
        "velocity": 0.71,
        "hand": "right"
      },
      {
        "midi": 82,
        "time": 242.25,
        "duration": 1.5,
        "velocity": 0.71,
        "hand": "right"
      },
      {
        "midi": 80,
        "time": 243.75,
        "duration": 0.75,
        "velocity": 0.71,
        "hand": "right"
      },
      {
        "midi": 78,
        "time": 244.5,
        "duration": 0.75,
        "velocity": 0.71,
        "hand": "right"
      },
      {
        "midi": 72,
        "time": 245.25,
        "duration": 0.75,
        "velocity": 0.71,
        "hand": "right"
      },
      {
        "midi": 77,
        "time": 246,
        "duration": 0.75,
        "velocity": 0.71,
        "hand": "right"
      },
      {
        "midi": 75,
        "time": 246.75,
        "duration": 0.75,
        "velocity": 0.71,
        "hand": "right"
      },
      {
        "midi": 73,
        "time": 247.5,
        "duration": 0.75,
        "velocity": 0.71,
        "hand": "right"
      },
      {
        "midi": 70,
        "time": 248.25,
        "duration": 0.75,
        "velocity": 0.71,
        "hand": "right"
      },
      {
        "midi": 66,
        "time": 249,
        "duration": 3,
        "velocity": 0.71,
        "hand": "right"
      },
      {
        "midi": 60,
        "time": 250.5,
        "duration": 1.5,
        "velocity": 0.71,
        "hand": "right"
      },
      {
        "midi": 65,
        "time": 252,
        "duration": 3,
        "velocity": 0.71,
        "hand": "right"
      },
      {
        "midi": 61,
        "time": 253.875,
        "duration": 0.375,
        "velocity": 0.71,
        "hand": "right"
      },
      {
        "midi": 63,
        "time": 254.25,
        "duration": 0.563,
        "velocity": 0.71,
        "hand": "right"
      },
      {
        "midi": 61,
        "time": 254.813,
        "duration": 0.375,
        "velocity": 0.71,
        "hand": "right"
      },
      {
        "midi": 60,
        "time": 255.75,
        "duration": 0.75,
        "velocity": 0.71,
        "hand": "right"
      },
      {
        "midi": 70,
        "time": 256.5,
        "duration": 0.75,
        "velocity": 0.71,
        "hand": "right"
      },
      {
        "midi": 60,
        "time": 257.25,
        "duration": 0.75,
        "velocity": 0.71,
        "hand": "right"
      },
      {
        "midi": 66,
        "time": 258,
        "duration": 3,
        "velocity": 0.71,
        "hand": "right"
      },
      {
        "midi": 65,
        "time": 261,
        "duration": 3,
        "velocity": 0.71,
        "hand": "right"
      },
      {
        "midi": 65,
        "time": 264,
        "duration": 3,
        "velocity": 0.71,
        "hand": "right"
      }
    ],
    "medium": [
      {
        "midi": 49,
        "time": 0,
        "duration": 0.375,
        "velocity": 0.71,
        "hand": "left"
      },
      {
        "midi": 77,
        "time": 0,
        "duration": 0.563,
        "velocity": 0.71,
        "hand": "right"
      },
      {
        "midi": 56,
        "time": 0.375,
        "duration": 0.375,
        "velocity": 0.71,
        "hand": "left"
      },
      {
        "midi": 73,
        "time": 0.563,
        "duration": 0.188,
        "velocity": 0.71,
        "hand": "right"
      },
      {
        "midi": 61,
        "time": 0.75,
        "duration": 1.5,
        "velocity": 0.71,
        "hand": "right"
      },
      {
        "midi": 65,
        "time": 0.75,
        "duration": 1.5,
        "velocity": 0.71,
        "hand": "right"
      },
      {
        "midi": 68,
        "time": 0.75,
        "duration": 1.5,
        "velocity": 0.71,
        "hand": "right"
      },
      {
        "midi": 56,
        "time": 1.125,
        "duration": 0.375,
        "velocity": 0.71,
        "hand": "left"
      },
      {
        "midi": 56,
        "time": 1.5,
        "duration": 0.375,
        "velocity": 0.71,
        "hand": "left"
      },
      {
        "midi": 56,
        "time": 1.875,
        "duration": 0.375,
        "velocity": 0.71,
        "hand": "left"
      },
      {
        "midi": 61,
        "time": 2.25,
        "duration": 0.375,
        "velocity": 0.71,
        "hand": "right"
      },
      {
        "midi": 65,
        "time": 2.25,
        "duration": 0.375,
        "velocity": 0.71,
        "hand": "right"
      },
      {
        "midi": 70,
        "time": 2.25,
        "duration": 0.75,
        "velocity": 0.71,
        "hand": "right"
      },
      {
        "midi": 56,
        "time": 2.625,
        "duration": 0.375,
        "velocity": 0.71,
        "hand": "left"
      },
      {
        "midi": 63,
        "time": 3,
        "duration": 2.25,
        "velocity": 0.71,
        "hand": "right"
      },
      {
        "midi": 66,
        "time": 3,
        "duration": 2.25,
        "velocity": 0.71,
        "hand": "right"
      },
      {
        "midi": 72,
        "time": 3,
        "duration": 2.25,
        "velocity": 0.71,
        "hand": "right"
      },
      {
        "midi": 56,
        "time": 3.375,
        "duration": 0.375,
        "velocity": 0.71,
        "hand": "left"
      },
      {
        "midi": 56,
        "time": 3.75,
        "duration": 0.375,
        "velocity": 0.71,
        "hand": "left"
      },
      {
        "midi": 56,
        "time": 4.125,
        "duration": 0.375,
        "velocity": 0.71,
        "hand": "left"
      },
      {
        "midi": 58,
        "time": 4.5,
        "duration": 0.375,
        "velocity": 0.71,
        "hand": "left"
      },
      {
        "midi": 56,
        "time": 4.875,
        "duration": 0.375,
        "velocity": 0.71,
        "hand": "left"
      },
      {
        "midi": 61,
        "time": 5.25,
        "duration": 0.375,
        "velocity": 0.71,
        "hand": "right"
      },
      {
        "midi": 65,
        "time": 5.25,
        "duration": 0.375,
        "velocity": 0.71,
        "hand": "right"
      },
      {
        "midi": 73,
        "time": 5.25,
        "duration": 0.75,
        "velocity": 0.71,
        "hand": "right"
      },
      {
        "midi": 56,
        "time": 5.625,
        "duration": 0.375,
        "velocity": 0.71,
        "hand": "left"
      },
      {
        "midi": 60,
        "time": 6,
        "duration": 2.25,
        "velocity": 0.71,
        "hand": "right"
      },
      {
        "midi": 66,
        "time": 6,
        "duration": 0.375,
        "velocity": 0.71,
        "hand": "right"
      },
      {
        "midi": 75,
        "time": 6,
        "duration": 0.563,
        "velocity": 0.71,
        "hand": "right"
      },
      {
        "midi": 56,
        "time": 6.375,
        "duration": 0.75,
        "velocity": 0.71,
        "hand": "left"
      },
      {
        "midi": 68,
        "time": 6.563,
        "duration": 0.188,
        "velocity": 0.71,
        "hand": "right"
      },
      {
        "midi": 77,
        "time": 6.563,
        "duration": 0.188,
        "velocity": 0.71,
        "hand": "right"
      },
      {
        "midi": 70,
        "time": 6.75,
        "duration": 1.5,
        "velocity": 0.71,
        "hand": "right"
      },
      {
        "midi": 78,
        "time": 6.75,
        "duration": 1.5,
        "velocity": 0.71,
        "hand": "right"
      },
      {
        "midi": 56,
        "time": 7.125,
        "duration": 0.375,
        "velocity": 0.71,
        "hand": "left"
      },
      {
        "midi": 56,
        "time": 7.5,
        "duration": 0.375,
        "velocity": 0.71,
        "hand": "left"
      },
      {
        "midi": 56,
        "time": 7.875,
        "duration": 0.75,
        "velocity": 0.71,
        "hand": "left"
      },
      {
        "midi": 61,
        "time": 8.25,
        "duration": 0.375,
        "velocity": 0.71,
        "hand": "right"
      },
      {
        "midi": 68,
        "time": 8.25,
        "duration": 0.375,
        "velocity": 0.71,
        "hand": "right"
      },
      {
        "midi": 77,
        "time": 8.25,
        "duration": 0.75,
        "velocity": 0.71,
        "hand": "right"
      },
      {
        "midi": 56,
        "time": 8.625,
        "duration": 0.375,
        "velocity": 0.71,
        "hand": "left"
      },
      {
        "midi": 60,
        "time": 9,
        "duration": 1.5,
        "velocity": 0.71,
        "hand": "right"
      },
      {
        "midi": 68,
        "time": 9,
        "duration": 0.375,
        "velocity": 0.71,
        "hand": "right"
      },
      {
        "midi": 77,
        "time": 9,
        "duration": 1.125,
        "velocity": 0.71,
        "hand": "right"
      },
      {
        "midi": 56,
        "time": 9.375,
        "duration": 0.375,
        "velocity": 0.71,
        "hand": "left"
      },
      {
        "midi": 66,
        "time": 9.75,
        "duration": 0.375,
        "velocity": 0.71,
        "hand": "right"
      },
      {
        "midi": 56,
        "time": 10.125,
        "duration": 0.375,
        "velocity": 0.71,
        "hand": "left"
      },
      {
        "midi": 75,
        "time": 10.125,
        "duration": 0.375,
        "velocity": 0.71,
        "hand": "right"
      },
      {
        "midi": 61,
        "time": 10.5,
        "duration": 0.375,
        "velocity": 0.71,
        "hand": "right"
      },
      {
        "midi": 65,
        "time": 10.5,
        "duration": 0.375,
        "velocity": 0.71,
        "hand": "right"
      },
      {
        "midi": 73,
        "time": 10.5,
        "duration": 0.75,
        "velocity": 0.71,
        "hand": "right"
      },
      {
        "midi": 56,
        "time": 10.875,
        "duration": 0.375,
        "velocity": 0.71,
        "hand": "left"
      },
      {
        "midi": 60,
        "time": 11.25,
        "duration": 0.375,
        "velocity": 0.71,
        "hand": "right"
      },
      {
        "midi": 75,
        "time": 11.25,
        "duration": 0.188,
        "velocity": 0.71,
        "hand": "right"
      },
      {
        "midi": 75,
        "time": 11.438,
        "duration": 0.188,
        "velocity": 0.71,
        "hand": "right"
      },
      {
        "midi": 77,
        "time": 11.438,
        "duration": 0.188,
        "velocity": 0.71,
        "hand": "right"
      },
      {
        "midi": 56,
        "time": 11.625,
        "duration": 0.375,
        "velocity": 0.71,
        "hand": "left"
      },
      {
        "midi": 74,
        "time": 11.625,
        "duration": 0.188,
        "velocity": 0.71,
        "hand": "right"
      },
      {
        "midi": 75,
        "time": 11.625,
        "duration": 0.188,
        "velocity": 0.71,
        "hand": "right"
      },
      {
        "midi": 77,
        "time": 11.813,
        "duration": 0.188,
        "velocity": 0.71,
        "hand": "right"
      },
      {
        "midi": 78,
        "time": 11.813,
        "duration": 0.188,
        "velocity": 0.71,
        "hand": "right"
      },
      {
        "midi": 49,
        "time": 12,
        "duration": 0.375,
        "velocity": 0.71,
        "hand": "left"
      },
      {
        "midi": 77,
        "time": 12,
        "duration": 0.563,
        "velocity": 0.71,
        "hand": "right"
      },
      {
        "midi": 56,
        "time": 12.375,
        "duration": 0.375,
        "velocity": 0.71,
        "hand": "left"
      },
      {
        "midi": 73,
        "time": 12.563,
        "duration": 0.188,
        "velocity": 0.71,
        "hand": "right"
      },
      {
        "midi": 61,
        "time": 12.75,
        "duration": 2.25,
        "velocity": 0.71,
        "hand": "right"
      },
      {
        "midi": 65,
        "time": 12.75,
        "duration": 2.25,
        "velocity": 0.71,
        "hand": "right"
      },
      {
        "midi": 68,
        "time": 12.75,
        "duration": 1.5,
        "velocity": 0.71,
        "hand": "right"
      },
      {
        "midi": 56,
        "time": 13.125,
        "duration": 0.375,
        "velocity": 0.71,
        "hand": "left"
      },
      {
        "midi": 56,
        "time": 13.5,
        "duration": 0.375,
        "velocity": 0.71,
        "hand": "left"
      },
      {
        "midi": 56,
        "time": 13.875,
        "duration": 0.375,
        "velocity": 0.71,
        "hand": "left"
      },
      {
        "midi": 56,
        "time": 14.25,
        "duration": 0.375,
        "velocity": 0.71,
        "hand": "left"
      },
      {
        "midi": 70,
        "time": 14.25,
        "duration": 0.75,
        "velocity": 0.71,
        "hand": "right"
      },
      {
        "midi": 56,
        "time": 14.625,
        "duration": 0.375,
        "velocity": 0.71,
        "hand": "left"
      },
      {
        "midi": 63,
        "time": 15,
        "duration": 2.25,
        "velocity": 0.71,
        "hand": "right"
      },
      {
        "midi": 66,
        "time": 15,
        "duration": 2.25,
        "velocity": 0.71,
        "hand": "right"
      },
      {
        "midi": 72,
        "time": 15,
        "duration": 2.25,
        "velocity": 0.71,
        "hand": "right"
      },
      {
        "midi": 56,
        "time": 15.375,
        "duration": 0.375,
        "velocity": 0.71,
        "hand": "left"
      },
      {
        "midi": 56,
        "time": 15.75,
        "duration": 0.375,
        "velocity": 0.71,
        "hand": "left"
      },
      {
        "midi": 56,
        "time": 16.125,
        "duration": 0.375,
        "velocity": 0.71,
        "hand": "left"
      },
      {
        "midi": 58,
        "time": 16.5,
        "duration": 0.375,
        "velocity": 0.71,
        "hand": "left"
      },
      {
        "midi": 56,
        "time": 16.875,
        "duration": 0.375,
        "velocity": 0.71,
        "hand": "left"
      },
      {
        "midi": 61,
        "time": 17.25,
        "duration": 0.375,
        "velocity": 0.71,
        "hand": "right"
      },
      {
        "midi": 65,
        "time": 17.25,
        "duration": 0.375,
        "velocity": 0.71,
        "hand": "right"
      },
      {
        "midi": 73,
        "time": 17.25,
        "duration": 0.75,
        "velocity": 0.71,
        "hand": "right"
      },
      {
        "midi": 56,
        "time": 17.625,
        "duration": 0.375,
        "velocity": 0.71,
        "hand": "left"
      },
      {
        "midi": 60,
        "time": 18,
        "duration": 2.25,
        "velocity": 0.71,
        "hand": "right"
      },
      {
        "midi": 66,
        "time": 18,
        "duration": 0.375,
        "velocity": 0.71,
        "hand": "right"
      },
      {
        "midi": 75,
        "time": 18,
        "duration": 0.563,
        "velocity": 0.71,
        "hand": "right"
      },
      {
        "midi": 56,
        "time": 18.375,
        "duration": 0.75,
        "velocity": 0.71,
        "hand": "left"
      },
      {
        "midi": 68,
        "time": 18.563,
        "duration": 0.188,
        "velocity": 0.71,
        "hand": "right"
      },
      {
        "midi": 77,
        "time": 18.563,
        "duration": 0.188,
        "velocity": 0.71,
        "hand": "right"
      },
      {
        "midi": 70,
        "time": 18.75,
        "duration": 1.5,
        "velocity": 0.71,
        "hand": "right"
      },
      {
        "midi": 78,
        "time": 18.75,
        "duration": 1.5,
        "velocity": 0.71,
        "hand": "right"
      },
      {
        "midi": 56,
        "time": 19.125,
        "duration": 0.375,
        "velocity": 0.71,
        "hand": "left"
      },
      {
        "midi": 56,
        "time": 19.5,
        "duration": 0.375,
        "velocity": 0.71,
        "hand": "left"
      },
      {
        "midi": 56,
        "time": 19.875,
        "duration": 0.75,
        "velocity": 0.71,
        "hand": "left"
      },
      {
        "midi": 61,
        "time": 20.25,
        "duration": 0.375,
        "velocity": 0.71,
        "hand": "right"
      },
      {
        "midi": 68,
        "time": 20.25,
        "duration": 0.375,
        "velocity": 0.71,
        "hand": "right"
      },
      {
        "midi": 77,
        "time": 20.25,
        "duration": 0.75,
        "velocity": 0.71,
        "hand": "right"
      },
      {
        "midi": 56,
        "time": 20.625,
        "duration": 0.375,
        "velocity": 0.71,
        "hand": "left"
      },
      {
        "midi": 60,
        "time": 21,
        "duration": 1.5,
        "velocity": 0.71,
        "hand": "right"
      },
      {
        "midi": 68,
        "time": 21,
        "duration": 0.375,
        "velocity": 0.71,
        "hand": "right"
      },
      {
        "midi": 77,
        "time": 21,
        "duration": 1.125,
        "velocity": 0.71,
        "hand": "right"
      },
      {
        "midi": 56,
        "time": 21.375,
        "duration": 0.375,
        "velocity": 0.71,
        "hand": "left"
      },
      {
        "midi": 63,
        "time": 21.75,
        "duration": 0.375,
        "velocity": 0.71,
        "hand": "right"
      },
      {
        "midi": 56,
        "time": 22.125,
        "duration": 0.375,
        "velocity": 0.71,
        "hand": "left"
      },
      {
        "midi": 75,
        "time": 22.125,
        "duration": 0.375,
        "velocity": 0.71,
        "hand": "right"
      },
      {
        "midi": 61,
        "time": 22.5,
        "duration": 0.375,
        "velocity": 0.71,
        "hand": "right"
      },
      {
        "midi": 65,
        "time": 22.5,
        "duration": 0.375,
        "velocity": 0.71,
        "hand": "right"
      },
      {
        "midi": 73,
        "time": 22.5,
        "duration": 0.75,
        "velocity": 0.71,
        "hand": "right"
      },
      {
        "midi": 56,
        "time": 22.875,
        "duration": 0.375,
        "velocity": 0.71,
        "hand": "left"
      },
      {
        "midi": 61,
        "time": 23.25,
        "duration": 0.375,
        "velocity": 0.71,
        "hand": "right"
      },
      {
        "midi": 65,
        "time": 23.25,
        "duration": 0.375,
        "velocity": 0.71,
        "hand": "right"
      },
      {
        "midi": 72,
        "time": 23.25,
        "duration": 0.375,
        "velocity": 0.71,
        "hand": "right"
      },
      {
        "midi": 56,
        "time": 23.625,
        "duration": 0.375,
        "velocity": 0.71,
        "hand": "left"
      },
      {
        "midi": 73,
        "time": 23.625,
        "duration": 0.375,
        "velocity": 0.71,
        "hand": "right"
      },
      {
        "midi": 44,
        "time": 24,
        "duration": 0.375,
        "velocity": 0.71,
        "hand": "left"
      },
      {
        "midi": 75,
        "time": 24,
        "duration": 0.75,
        "velocity": 0.71,
        "hand": "right"
      },
      {
        "midi": 56,
        "time": 24.375,
        "duration": 0.375,
        "velocity": 0.71,
        "hand": "left"
      },
      {
        "midi": 63,
        "time": 24.75,
        "duration": 0.375,
        "velocity": 0.71,
        "hand": "right"
      },
      {
        "midi": 75,
        "time": 24.75,
        "duration": 1.5,
        "velocity": 0.71,
        "hand": "right"
      },
      {
        "midi": 56,
        "time": 25.125,
        "duration": 0.375,
        "velocity": 0.71,
        "hand": "left"
      },
      {
        "midi": 59,
        "time": 25.5,
        "duration": 0.375,
        "velocity": 0.71,
        "hand": "left"
      },
      {
        "midi": 63,
        "time": 25.5,
        "duration": 0.375,
        "velocity": 0.71,
        "hand": "right"
      },
      {
        "midi": 56,
        "time": 25.875,
        "duration": 0.375,
        "velocity": 0.71,
        "hand": "left"
      },
      {
        "midi": 49,
        "time": 26.25,
        "duration": 0.375,
        "velocity": 0.71,
        "hand": "left"
      },
      {
        "midi": 65,
        "time": 26.25,
        "duration": 0.375,
        "velocity": 0.71,
        "hand": "right"
      },
      {
        "midi": 77,
        "time": 26.25,
        "duration": 0.75,
        "velocity": 0.71,
        "hand": "right"
      },
      {
        "midi": 61,
        "time": 26.625,
        "duration": 0.375,
        "velocity": 0.71,
        "hand": "right"
      },
      {
        "midi": 54,
        "time": 27,
        "duration": 0.375,
        "velocity": 0.71,
        "hand": "left"
      },
      {
        "midi": 58,
        "time": 27,
        "duration": 0.375,
        "velocity": 0.71,
        "hand": "left"
      },
      {
        "midi": 78,
        "time": 27,
        "duration": 0.375,
        "velocity": 0.71,
        "hand": "right"
      },
      {
        "midi": 61,
        "time": 27.375,
        "duration": 0.375,
        "velocity": 0.71,
        "hand": "right"
      },
      {
        "midi": 77,
        "time": 27.375,
        "duration": 0.375,
        "velocity": 0.71,
        "hand": "right"
      },
      {
        "midi": 58,
        "time": 27.75,
        "duration": 0.375,
        "velocity": 0.71,
        "hand": "left"
      },
      {
        "midi": 66,
        "time": 27.75,
        "duration": 0.375,
        "velocity": 0.71,
        "hand": "right"
      },
      {
        "midi": 75,
        "time": 27.75,
        "duration": 0.375,
        "velocity": 0.71,
        "hand": "right"
      },
      {
        "midi": 61,
        "time": 28.125,
        "duration": 0.375,
        "velocity": 0.71,
        "hand": "right"
      },
      {
        "midi": 73,
        "time": 28.125,
        "duration": 0.375,
        "velocity": 0.71,
        "hand": "right"
      },
      {
        "midi": 49,
        "time": 28.5,
        "duration": 0.375,
        "velocity": 0.71,
        "hand": "left"
      },
      {
        "midi": 77,
        "time": 28.5,
        "duration": 1.5,
        "velocity": 0.71,
        "hand": "right"
      },
      {
        "midi": 56,
        "time": 28.875,
        "duration": 0.375,
        "velocity": 0.71,
        "hand": "left"
      },
      {
        "midi": 61,
        "time": 29.25,
        "duration": 0.375,
        "velocity": 0.71,
        "hand": "right"
      },
      {
        "midi": 65,
        "time": 29.25,
        "duration": 0.375,
        "velocity": 0.71,
        "hand": "right"
      },
      {
        "midi": 56,
        "time": 29.625,
        "duration": 0.375,
        "velocity": 0.71,
        "hand": "left"
      },
      {
        "midi": 51,
        "time": 30,
        "duration": 0.375,
        "velocity": 0.71,
        "hand": "left"
      },
      {
        "midi": 75,
        "time": 30,
        "duration": 0.375,
        "velocity": 0.71,
        "hand": "right"
      },
      {
        "midi": 56,
        "time": 30.375,
        "duration": 0.375,
        "velocity": 0.71,
        "hand": "left"
      },
      {
        "midi": 71,
        "time": 30.375,
        "duration": 0.375,
        "velocity": 0.71,
        "hand": "right"
      },
      {
        "midi": 59,
        "time": 30.75,
        "duration": 0.375,
        "velocity": 0.71,
        "hand": "left"
      },
      {
        "midi": 63,
        "time": 30.75,
        "duration": 0.375,
        "velocity": 0.71,
        "hand": "right"
      },
      {
        "midi": 70,
        "time": 30.75,
        "duration": 0.375,
        "velocity": 0.71,
        "hand": "right"
      },
      {
        "midi": 56,
        "time": 31.125,
        "duration": 0.375,
        "velocity": 0.71,
        "hand": "left"
      },
      {
        "midi": 68,
        "time": 31.125,
        "duration": 0.375,
        "velocity": 0.71,
        "hand": "right"
      },
      {
        "midi": 51,
        "time": 31.5,
        "duration": 0.375,
        "velocity": 0.71,
        "hand": "left"
      },
      {
        "midi": 70,
        "time": 31.5,
        "duration": 0.563,
        "velocity": 0.71,
        "hand": "right"
      },
      {
        "midi": 55,
        "time": 31.875,
        "duration": 0.375,
        "velocity": 0.71,
        "hand": "left"
      },
      {
        "midi": 70,
        "time": 32.063,
        "duration": 0.188,
        "velocity": 0.71,
        "hand": "right"
      },
      {
        "midi": 71,
        "time": 32.063,
        "duration": 0.188,
        "velocity": 0.71,
        "hand": "right"
      },
      {
        "midi": 61,
        "time": 32.25,
        "duration": 0.375,
        "velocity": 0.71,
        "hand": "right"
      },
      {
        "midi": 68,
        "time": 32.25,
        "duration": 0.188,
        "velocity": 0.71,
        "hand": "right"
      },
      {
        "midi": 70,
        "time": 32.25,
        "duration": 0.563,
        "velocity": 0.71,
        "hand": "right"
      },
      {
        "midi": 55,
        "time": 32.625,
        "duration": 0.375,
        "velocity": 0.71,
        "hand": "left"
      },
      {
        "midi": 71,
        "time": 32.813,
        "duration": 0.188,
        "velocity": 0.71,
        "hand": "right"
      },
      {
        "midi": 44,
        "time": 33,
        "duration": 0.375,
        "velocity": 0.71,
        "hand": "left"
      },
      {
        "midi": 68,
        "time": 33,
        "duration": 0.75,
        "velocity": 0.71,
        "hand": "right"
      },
      {
        "midi": 56,
        "time": 33.375,
        "duration": 0.375,
        "velocity": 0.71,
        "hand": "left"
      },
      {
        "midi": 59,
        "time": 33.75,
        "duration": 0.375,
        "velocity": 0.71,
        "hand": "left"
      },
      {
        "midi": 63,
        "time": 33.75,
        "duration": 0.375,
        "velocity": 0.71,
        "hand": "right"
      },
      {
        "midi": 75,
        "time": 33.75,
        "duration": 0.75,
        "velocity": 0.71,
        "hand": "right"
      },
      {
        "midi": 56,
        "time": 34.125,
        "duration": 0.375,
        "velocity": 0.71,
        "hand": "left"
      },
      {
        "midi": 58,
        "time": 34.5,
        "duration": 0.375,
        "velocity": 0.71,
        "hand": "left"
      },
      {
        "midi": 61,
        "time": 34.5,
        "duration": 0.375,
        "velocity": 0.71,
        "hand": "right"
      },
      {
        "midi": 73,
        "time": 34.5,
        "duration": 0.75,
        "velocity": 0.71,
        "hand": "right"
      },
      {
        "midi": 56,
        "time": 34.875,
        "duration": 0.375,
        "velocity": 0.71,
        "hand": "left"
      },
      {
        "midi": 61,
        "time": 35.25,
        "duration": 0.375,
        "velocity": 0.71,
        "hand": "right"
      },
      {
        "midi": 64,
        "time": 35.25,
        "duration": 0.375,
        "velocity": 0.71,
        "hand": "right"
      },
      {
        "midi": 76,
        "time": 35.25,
        "duration": 0.75,
        "velocity": 0.71,
        "hand": "right"
      },
      {
        "midi": 56,
        "time": 35.625,
        "duration": 0.375,
        "velocity": 0.71,
        "hand": "left"
      },
      {
        "midi": 44,
        "time": 36,
        "duration": 0.375,
        "velocity": 0.71,
        "hand": "left"
      },
      {
        "midi": 75,
        "time": 36,
        "duration": 0.75,
        "velocity": 0.71,
        "hand": "right"
      },
      {
        "midi": 56,
        "time": 36.375,
        "duration": 0.375,
        "velocity": 0.71,
        "hand": "left"
      },
      {
        "midi": 59,
        "time": 36.75,
        "duration": 1.5,
        "velocity": 0.71,
        "hand": "left"
      },
      {
        "midi": 63,
        "time": 36.75,
        "duration": 1.5,
        "velocity": 0.71,
        "hand": "right"
      },
      {
        "midi": 75,
        "time": 36.75,
        "duration": 1.5,
        "velocity": 0.71,
        "hand": "right"
      },
      {
        "midi": 56,
        "time": 37.125,
        "duration": 0.375,
        "velocity": 0.71,
        "hand": "left"
      },
      {
        "midi": 56,
        "time": 37.5,
        "duration": 0.375,
        "velocity": 0.71,
        "hand": "left"
      },
      {
        "midi": 56,
        "time": 37.875,
        "duration": 0.375,
        "velocity": 0.71,
        "hand": "left"
      },
      {
        "midi": 59,
        "time": 38.25,
        "duration": 0.375,
        "velocity": 0.71,
        "hand": "left"
      },
      {
        "midi": 65,
        "time": 38.25,
        "duration": 0.375,
        "velocity": 0.71,
        "hand": "right"
      },
      {
        "midi": 77,
        "time": 38.25,
        "duration": 0.75,
        "velocity": 0.71,
        "hand": "right"
      },
      {
        "midi": 56,
        "time": 38.625,
        "duration": 0.375,
        "velocity": 0.71,
        "hand": "left"
      },
      {
        "midi": 51,
        "time": 39,
        "duration": 0.375,
        "velocity": 0.71,
        "hand": "left"
      },
      {
        "midi": 78,
        "time": 39,
        "duration": 0.375,
        "velocity": 0.71,
        "hand": "right"
      },
      {
        "midi": 54,
        "time": 39.375,
        "duration": 0.375,
        "velocity": 0.71,
        "hand": "left"
      },
      {
        "midi": 77,
        "time": 39.375,
        "duration": 0.375,
        "velocity": 0.71,
        "hand": "right"
      },
      {
        "midi": 58,
        "time": 39.75,
        "duration": 0.375,
        "velocity": 0.71,
        "hand": "left"
      },
      {
        "midi": 66,
        "time": 39.75,
        "duration": 0.375,
        "velocity": 0.71,
        "hand": "right"
      },
      {
        "midi": 75,
        "time": 39.75,
        "duration": 0.375,
        "velocity": 0.71,
        "hand": "right"
      },
      {
        "midi": 54,
        "time": 40.125,
        "duration": 0.375,
        "velocity": 0.71,
        "hand": "left"
      },
      {
        "midi": 73,
        "time": 40.125,
        "duration": 0.375,
        "velocity": 0.71,
        "hand": "right"
      },
      {
        "midi": 46,
        "time": 40.5,
        "duration": 0.375,
        "velocity": 0.71,
        "hand": "left"
      },
      {
        "midi": 77,
        "time": 40.5,
        "duration": 1.875,
        "velocity": 0.71,
        "hand": "right"
      },
      {
        "midi": 53,
        "time": 40.875,
        "duration": 0.375,
        "velocity": 0.71,
        "hand": "left"
      },
      {
        "midi": 58,
        "time": 41.25,
        "duration": 0.375,
        "velocity": 0.71,
        "hand": "left"
      },
      {
        "midi": 61,
        "time": 41.25,
        "duration": 0.375,
        "velocity": 0.71,
        "hand": "right"
      },
      {
        "midi": 65,
        "time": 41.25,
        "duration": 0.375,
        "velocity": 0.71,
        "hand": "right"
      },
      {
        "midi": 53,
        "time": 41.625,
        "duration": 0.375,
        "velocity": 0.71,
        "hand": "left"
      },
      {
        "midi": 41,
        "time": 42,
        "duration": 0.375,
        "velocity": 0.71,
        "hand": "left"
      },
      {
        "midi": 53,
        "time": 42.375,
        "duration": 0.375,
        "velocity": 0.71,
        "hand": "left"
      },
      {
        "midi": 73,
        "time": 42.375,
        "duration": 0.375,
        "velocity": 0.71,
        "hand": "right"
      },
      {
        "midi": 58,
        "time": 42.75,
        "duration": 0.375,
        "velocity": 0.71,
        "hand": "left"
      },
      {
        "midi": 65,
        "time": 42.75,
        "duration": 0.375,
        "velocity": 0.71,
        "hand": "right"
      },
      {
        "midi": 72,
        "time": 42.75,
        "duration": 0.375,
        "velocity": 0.71,
        "hand": "right"
      },
      {
        "midi": 53,
        "time": 43.125,
        "duration": 0.375,
        "velocity": 0.71,
        "hand": "left"
      },
      {
        "midi": 70,
        "time": 43.125,
        "duration": 0.375,
        "velocity": 0.71,
        "hand": "right"
      },
      {
        "midi": 41,
        "time": 43.5,
        "duration": 0.375,
        "velocity": 0.71,
        "hand": "left"
      },
      {
        "midi": 72,
        "time": 43.5,
        "duration": 0.563,
        "velocity": 0.71,
        "hand": "right"
      },
      {
        "midi": 53,
        "time": 43.875,
        "duration": 0.375,
        "velocity": 0.71,
        "hand": "left"
      },
      {
        "midi": 72,
        "time": 44.063,
        "duration": 0.188,
        "velocity": 0.71,
        "hand": "right"
      },
      {
        "midi": 73,
        "time": 44.063,
        "duration": 0.188,
        "velocity": 0.71,
        "hand": "right"
      },
      {
        "midi": 57,
        "time": 44.25,
        "duration": 0.375,
        "velocity": 0.71,
        "hand": "left"
      },
      {
        "midi": 65,
        "time": 44.25,
        "duration": 0.375,
        "velocity": 0.71,
        "hand": "right"
      },
      {
        "midi": 72,
        "time": 44.25,
        "duration": 0.375,
        "velocity": 0.71,
        "hand": "right"
      },
      {
        "midi": 53,
        "time": 44.625,
        "duration": 0.375,
        "velocity": 0.71,
        "hand": "left"
      },
      {
        "midi": 73,
        "time": 44.625,
        "duration": 0.375,
        "velocity": 0.71,
        "hand": "right"
      },
      {
        "midi": 46,
        "time": 45,
        "duration": 0.375,
        "velocity": 0.71,
        "hand": "left"
      },
      {
        "midi": 70,
        "time": 45,
        "duration": 0.75,
        "velocity": 0.71,
        "hand": "right"
      },
      {
        "midi": 53,
        "time": 45.375,
        "duration": 0.375,
        "velocity": 0.71,
        "hand": "left"
      },
      {
        "midi": 61,
        "time": 45.75,
        "duration": 0.375,
        "velocity": 0.71,
        "hand": "right"
      },
      {
        "midi": 65,
        "time": 45.75,
        "duration": 0.375,
        "velocity": 0.71,
        "hand": "right"
      },
      {
        "midi": 77,
        "time": 45.75,
        "duration": 0.75,
        "velocity": 0.71,
        "hand": "right"
      },
      {
        "midi": 53,
        "time": 46.125,
        "duration": 0.375,
        "velocity": 0.71,
        "hand": "left"
      },
      {
        "midi": 60,
        "time": 46.5,
        "duration": 0.375,
        "velocity": 0.71,
        "hand": "right"
      },
      {
        "midi": 63,
        "time": 46.5,
        "duration": 0.375,
        "velocity": 0.71,
        "hand": "right"
      },
      {
        "midi": 75,
        "time": 46.5,
        "duration": 0.75,
        "velocity": 0.71,
        "hand": "right"
      },
      {
        "midi": 53,
        "time": 46.875,
        "duration": 0.375,
        "velocity": 0.71,
        "hand": "left"
      },
      {
        "midi": 63,
        "time": 47.25,
        "duration": 0.375,
        "velocity": 0.71,
        "hand": "right"
      },
      {
        "midi": 66,
        "time": 47.25,
        "duration": 0.375,
        "velocity": 0.71,
        "hand": "right"
      },
      {
        "midi": 78,
        "time": 47.25,
        "duration": 0.75,
        "velocity": 0.71,
        "hand": "right"
      },
      {
        "midi": 53,
        "time": 47.625,
        "duration": 0.375,
        "velocity": 0.71,
        "hand": "left"
      },
      {
        "midi": 61,
        "time": 48,
        "duration": 0.375,
        "velocity": 0.71,
        "hand": "right"
      },
      {
        "midi": 65,
        "time": 48,
        "duration": 0.375,
        "velocity": 0.71,
        "hand": "right"
      },
      {
        "midi": 77,
        "time": 48,
        "duration": 0.375,
        "velocity": 0.71,
        "hand": "right"
      },
      {
        "midi": 53,
        "time": 48.375,
        "duration": 0.375,
        "velocity": 0.71,
        "hand": "left"
      },
      {
        "midi": 73,
        "time": 48.375,
        "duration": 0.375,
        "velocity": 0.71,
        "hand": "right"
      },
      {
        "midi": 58,
        "time": 48.75,
        "duration": 0.375,
        "velocity": 0.71,
        "hand": "left"
      },
      {
        "midi": 65,
        "time": 48.75,
        "duration": 0.375,
        "velocity": 0.71,
        "hand": "right"
      },
      {
        "midi": 72,
        "time": 48.75,
        "duration": 0.375,
        "velocity": 0.71,
        "hand": "right"
      },
      {
        "midi": 53,
        "time": 49.125,
        "duration": 0.375,
        "velocity": 0.71,
        "hand": "left"
      },
      {
        "midi": 70,
        "time": 49.125,
        "duration": 0.375,
        "velocity": 0.71,
        "hand": "right"
      },
      {
        "midi": 57,
        "time": 49.5,
        "duration": 0.375,
        "velocity": 0.71,
        "hand": "left"
      },
      {
        "midi": 63,
        "time": 49.5,
        "duration": 0.375,
        "velocity": 0.71,
        "hand": "right"
      },
      {
        "midi": 72,
        "time": 49.5,
        "duration": 0.563,
        "velocity": 0.71,
        "hand": "right"
      },
      {
        "midi": 53,
        "time": 49.875,
        "duration": 0.375,
        "velocity": 0.71,
        "hand": "left"
      },
      {
        "midi": 72,
        "time": 50.063,
        "duration": 0.188,
        "velocity": 0.71,
        "hand": "right"
      },
      {
        "midi": 73,
        "time": 50.063,
        "duration": 0.188,
        "velocity": 0.71,
        "hand": "right"
      },
      {
        "midi": 63,
        "time": 50.25,
        "duration": 0.375,
        "velocity": 0.71,
        "hand": "right"
      },
      {
        "midi": 70,
        "time": 50.25,
        "duration": 0.188,
        "velocity": 0.71,
        "hand": "right"
      },
      {
        "midi": 72,
        "time": 50.25,
        "duration": 0.563,
        "velocity": 0.71,
        "hand": "right"
      },
      {
        "midi": 53,
        "time": 50.625,
        "duration": 0.375,
        "velocity": 0.71,
        "hand": "left"
      },
      {
        "midi": 73,
        "time": 50.813,
        "duration": 0.188,
        "velocity": 0.71,
        "hand": "right"
      },
      {
        "midi": 46,
        "time": 51,
        "duration": 0.375,
        "velocity": 0.71,
        "hand": "left"
      },
      {
        "midi": 70,
        "time": 51,
        "duration": 0.75,
        "velocity": 0.71,
        "hand": "right"
      },
      {
        "midi": 53,
        "time": 51.375,
        "duration": 0.375,
        "velocity": 0.71,
        "hand": "left"
      },
      {
        "midi": 60,
        "time": 51.75,
        "duration": 0.375,
        "velocity": 0.71,
        "hand": "right"
      },
      {
        "midi": 63,
        "time": 51.75,
        "duration": 0.375,
        "velocity": 0.71,
        "hand": "right"
      },
      {
        "midi": 75,
        "time": 51.75,
        "duration": 0.75,
        "velocity": 0.71,
        "hand": "right"
      },
      {
        "midi": 53,
        "time": 52.125,
        "duration": 0.375,
        "velocity": 0.71,
        "hand": "left"
      },
      {
        "midi": 61,
        "time": 52.5,
        "duration": 0.375,
        "velocity": 0.71,
        "hand": "right"
      },
      {
        "midi": 65,
        "time": 52.5,
        "duration": 0.375,
        "velocity": 0.71,
        "hand": "right"
      },
      {
        "midi": 77,
        "time": 52.5,
        "duration": 0.75,
        "velocity": 0.71,
        "hand": "right"
      },
      {
        "midi": 53,
        "time": 52.875,
        "duration": 0.375,
        "velocity": 0.71,
        "hand": "left"
      },
      {
        "midi": 60,
        "time": 53.25,
        "duration": 0.375,
        "velocity": 0.71,
        "hand": "right"
      },
      {
        "midi": 63,
        "time": 53.25,
        "duration": 0.375,
        "velocity": 0.71,
        "hand": "right"
      },
      {
        "midi": 75,
        "time": 53.25,
        "duration": 0.75,
        "velocity": 0.71,
        "hand": "right"
      },
      {
        "midi": 53,
        "time": 53.625,
        "duration": 0.375,
        "velocity": 0.71,
        "hand": "left"
      },
      {
        "midi": 61,
        "time": 54,
        "duration": 1.5,
        "velocity": 0.71,
        "hand": "right"
      },
      {
        "midi": 65,
        "time": 54,
        "duration": 1.5,
        "velocity": 0.71,
        "hand": "right"
      },
      {
        "midi": 77,
        "time": 54,
        "duration": 2.25,
        "velocity": 0.71,
        "hand": "right"
      },
      {
        "midi": 53,
        "time": 54.375,
        "duration": 0.375,
        "velocity": 0.71,
        "hand": "left"
      },
      {
        "midi": 53,
        "time": 54.75,
        "duration": 0.375,
        "velocity": 0.71,
        "hand": "left"
      },
      {
        "midi": 53,
        "time": 55.125,
        "duration": 0.375,
        "velocity": 0.71,
        "hand": "left"
      },
      {
        "midi": 61,
        "time": 55.5,
        "duration": 0.375,
        "velocity": 0.71,
        "hand": "right"
      },
      {
        "midi": 65,
        "time": 55.5,
        "duration": 0.375,
        "velocity": 0.71,
        "hand": "right"
      },
      {
        "midi": 54,
        "time": 55.875,
        "duration": 0.75,
        "velocity": 0.71,
        "hand": "left"
      },
      {
        "midi": 60,
        "time": 56.25,
        "duration": 0.375,
        "velocity": 0.71,
        "hand": "right"
      },
      {
        "midi": 63,
        "time": 56.25,
        "duration": 0.375,
        "velocity": 0.71,
        "hand": "right"
      },
      {
        "midi": 75,
        "time": 56.25,
        "duration": 0.75,
        "velocity": 0.71,
        "hand": "right"
      },
      {
        "midi": 56,
        "time": 56.625,
        "duration": 0.375,
        "velocity": 0.71,
        "hand": "left"
      },
      {
        "midi": 49,
        "time": 57,
        "duration": 0.375,
        "velocity": 0.71,
        "hand": "left"
      },
      {
        "midi": 77,
        "time": 57,
        "duration": 0.563,
        "velocity": 0.71,
        "hand": "right"
      },
      {
        "midi": 56,
        "time": 57.375,
        "duration": 0.375,
        "velocity": 0.71,
        "hand": "left"
      },
      {
        "midi": 73,
        "time": 57.563,
        "duration": 0.188,
        "velocity": 0.71,
        "hand": "right"
      },
      {
        "midi": 61,
        "time": 57.75,
        "duration": 1.5,
        "velocity": 0.71,
        "hand": "right"
      },
      {
        "midi": 65,
        "time": 57.75,
        "duration": 1.5,
        "velocity": 0.71,
        "hand": "right"
      },
      {
        "midi": 68,
        "time": 57.75,
        "duration": 1.5,
        "velocity": 0.71,
        "hand": "right"
      },
      {
        "midi": 56,
        "time": 58.125,
        "duration": 0.375,
        "velocity": 0.71,
        "hand": "left"
      },
      {
        "midi": 56,
        "time": 58.5,
        "duration": 0.375,
        "velocity": 0.71,
        "hand": "left"
      },
      {
        "midi": 56,
        "time": 58.875,
        "duration": 0.375,
        "velocity": 0.71,
        "hand": "left"
      },
      {
        "midi": 61,
        "time": 59.25,
        "duration": 0.375,
        "velocity": 0.71,
        "hand": "right"
      },
      {
        "midi": 65,
        "time": 59.25,
        "duration": 0.375,
        "velocity": 0.71,
        "hand": "right"
      },
      {
        "midi": 70,
        "time": 59.25,
        "duration": 0.75,
        "velocity": 0.71,
        "hand": "right"
      },
      {
        "midi": 56,
        "time": 59.625,
        "duration": 0.375,
        "velocity": 0.71,
        "hand": "left"
      },
      {
        "midi": 63,
        "time": 60,
        "duration": 1.5,
        "velocity": 0.71,
        "hand": "right"
      },
      {
        "midi": 66,
        "time": 60,
        "duration": 1.5,
        "velocity": 0.71,
        "hand": "right"
      },
      {
        "midi": 72,
        "time": 60,
        "duration": 2.25,
        "velocity": 0.71,
        "hand": "right"
      },
      {
        "midi": 56,
        "time": 60.375,
        "duration": 0.375,
        "velocity": 0.71,
        "hand": "left"
      },
      {
        "midi": 56,
        "time": 60.75,
        "duration": 0.375,
        "velocity": 0.71,
        "hand": "left"
      },
      {
        "midi": 56,
        "time": 61.125,
        "duration": 0.375,
        "velocity": 0.71,
        "hand": "left"
      },
      {
        "midi": 58,
        "time": 61.5,
        "duration": 0.375,
        "velocity": 0.71,
        "hand": "left"
      },
      {
        "midi": 56,
        "time": 61.875,
        "duration": 0.375,
        "velocity": 0.71,
        "hand": "left"
      },
      {
        "midi": 61,
        "time": 62.25,
        "duration": 0.375,
        "velocity": 0.71,
        "hand": "right"
      },
      {
        "midi": 65,
        "time": 62.25,
        "duration": 0.375,
        "velocity": 0.71,
        "hand": "right"
      },
      {
        "midi": 73,
        "time": 62.25,
        "duration": 0.75,
        "velocity": 0.71,
        "hand": "right"
      },
      {
        "midi": 56,
        "time": 62.625,
        "duration": 0.375,
        "velocity": 0.71,
        "hand": "left"
      },
      {
        "midi": 60,
        "time": 63,
        "duration": 2.25,
        "velocity": 0.71,
        "hand": "right"
      },
      {
        "midi": 66,
        "time": 63,
        "duration": 0.375,
        "velocity": 0.71,
        "hand": "right"
      },
      {
        "midi": 75,
        "time": 63,
        "duration": 0.563,
        "velocity": 0.71,
        "hand": "right"
      },
      {
        "midi": 56,
        "time": 63.375,
        "duration": 0.75,
        "velocity": 0.71,
        "hand": "left"
      },
      {
        "midi": 68,
        "time": 63.563,
        "duration": 0.188,
        "velocity": 0.71,
        "hand": "right"
      },
      {
        "midi": 77,
        "time": 63.563,
        "duration": 0.188,
        "velocity": 0.71,
        "hand": "right"
      },
      {
        "midi": 70,
        "time": 63.75,
        "duration": 1.5,
        "velocity": 0.71,
        "hand": "right"
      },
      {
        "midi": 78,
        "time": 63.75,
        "duration": 1.5,
        "velocity": 0.71,
        "hand": "right"
      },
      {
        "midi": 56,
        "time": 64.125,
        "duration": 0.375,
        "velocity": 0.71,
        "hand": "left"
      },
      {
        "midi": 56,
        "time": 64.5,
        "duration": 0.375,
        "velocity": 0.71,
        "hand": "left"
      },
      {
        "midi": 56,
        "time": 64.875,
        "duration": 0.75,
        "velocity": 0.71,
        "hand": "left"
      },
      {
        "midi": 61,
        "time": 65.25,
        "duration": 0.375,
        "velocity": 0.71,
        "hand": "right"
      },
      {
        "midi": 68,
        "time": 65.25,
        "duration": 0.375,
        "velocity": 0.71,
        "hand": "right"
      },
      {
        "midi": 77,
        "time": 65.25,
        "duration": 0.75,
        "velocity": 0.71,
        "hand": "right"
      },
      {
        "midi": 56,
        "time": 65.625,
        "duration": 0.375,
        "velocity": 0.71,
        "hand": "left"
      },
      {
        "midi": 60,
        "time": 66,
        "duration": 0.375,
        "velocity": 0.71,
        "hand": "right"
      },
      {
        "midi": 68,
        "time": 66,
        "duration": 0.375,
        "velocity": 0.71,
        "hand": "right"
      },
      {
        "midi": 77,
        "time": 66,
        "duration": 1.125,
        "velocity": 0.71,
        "hand": "right"
      },
      {
        "midi": 56,
        "time": 66.375,
        "duration": 0.375,
        "velocity": 0.71,
        "hand": "left"
      },
      {
        "midi": 60,
        "time": 66.75,
        "duration": 0.375,
        "velocity": 0.71,
        "hand": "right"
      },
      {
        "midi": 66,
        "time": 66.75,
        "duration": 0.375,
        "velocity": 0.71,
        "hand": "right"
      },
      {
        "midi": 56,
        "time": 67.125,
        "duration": 0.375,
        "velocity": 0.71,
        "hand": "left"
      },
      {
        "midi": 75,
        "time": 67.125,
        "duration": 0.375,
        "velocity": 0.71,
        "hand": "right"
      },
      {
        "midi": 61,
        "time": 67.5,
        "duration": 0.375,
        "velocity": 0.71,
        "hand": "right"
      },
      {
        "midi": 65,
        "time": 67.5,
        "duration": 0.375,
        "velocity": 0.71,
        "hand": "right"
      },
      {
        "midi": 73,
        "time": 67.5,
        "duration": 0.75,
        "velocity": 0.71,
        "hand": "right"
      },
      {
        "midi": 56,
        "time": 67.875,
        "duration": 0.375,
        "velocity": 0.71,
        "hand": "left"
      },
      {
        "midi": 60,
        "time": 68.25,
        "duration": 0.375,
        "velocity": 0.71,
        "hand": "right"
      },
      {
        "midi": 66,
        "time": 68.25,
        "duration": 0.375,
        "velocity": 0.71,
        "hand": "right"
      },
      {
        "midi": 74,
        "time": 68.25,
        "duration": 0.188,
        "velocity": 0.71,
        "hand": "right"
      },
      {
        "midi": 75,
        "time": 68.438,
        "duration": 0.188,
        "velocity": 0.71,
        "hand": "right"
      },
      {
        "midi": 76,
        "time": 68.438,
        "duration": 0.188,
        "velocity": 0.71,
        "hand": "right"
      },
      {
        "midi": 56,
        "time": 68.625,
        "duration": 0.375,
        "velocity": 0.71,
        "hand": "left"
      },
      {
        "midi": 77,
        "time": 68.625,
        "duration": 0.188,
        "velocity": 0.71,
        "hand": "right"
      },
      {
        "midi": 80,
        "time": 68.625,
        "duration": 0.188,
        "velocity": 0.71,
        "hand": "right"
      },
      {
        "midi": 78,
        "time": 68.813,
        "duration": 0.188,
        "velocity": 0.71,
        "hand": "right"
      },
      {
        "midi": 79,
        "time": 68.813,
        "duration": 0.188,
        "velocity": 0.71,
        "hand": "right"
      },
      {
        "midi": 49,
        "time": 69,
        "duration": 0.375,
        "velocity": 0.71,
        "hand": "left"
      },
      {
        "midi": 77,
        "time": 69,
        "duration": 0.563,
        "velocity": 0.71,
        "hand": "right"
      },
      {
        "midi": 56,
        "time": 69.375,
        "duration": 0.375,
        "velocity": 0.71,
        "hand": "left"
      },
      {
        "midi": 73,
        "time": 69.563,
        "duration": 0.188,
        "velocity": 0.71,
        "hand": "right"
      },
      {
        "midi": 61,
        "time": 69.75,
        "duration": 1.5,
        "velocity": 0.71,
        "hand": "right"
      },
      {
        "midi": 65,
        "time": 69.75,
        "duration": 1.5,
        "velocity": 0.71,
        "hand": "right"
      },
      {
        "midi": 68,
        "time": 69.75,
        "duration": 1.5,
        "velocity": 0.71,
        "hand": "right"
      },
      {
        "midi": 56,
        "time": 70.125,
        "duration": 0.375,
        "velocity": 0.71,
        "hand": "left"
      },
      {
        "midi": 56,
        "time": 70.5,
        "duration": 0.375,
        "velocity": 0.71,
        "hand": "left"
      },
      {
        "midi": 56,
        "time": 70.875,
        "duration": 0.375,
        "velocity": 0.71,
        "hand": "left"
      },
      {
        "midi": 56,
        "time": 71.25,
        "duration": 0.375,
        "velocity": 0.71,
        "hand": "left"
      },
      {
        "midi": 70,
        "time": 71.25,
        "duration": 0.75,
        "velocity": 0.71,
        "hand": "right"
      },
      {
        "midi": 56,
        "time": 71.625,
        "duration": 0.375,
        "velocity": 0.71,
        "hand": "left"
      },
      {
        "midi": 63,
        "time": 72,
        "duration": 1.5,
        "velocity": 0.71,
        "hand": "right"
      },
      {
        "midi": 66,
        "time": 72,
        "duration": 1.5,
        "velocity": 0.71,
        "hand": "right"
      },
      {
        "midi": 72,
        "time": 72,
        "duration": 2.25,
        "velocity": 0.71,
        "hand": "right"
      },
      {
        "midi": 56,
        "time": 72.375,
        "duration": 0.375,
        "velocity": 0.71,
        "hand": "left"
      },
      {
        "midi": 56,
        "time": 72.75,
        "duration": 0.375,
        "velocity": 0.71,
        "hand": "left"
      },
      {
        "midi": 56,
        "time": 73.125,
        "duration": 0.375,
        "velocity": 0.71,
        "hand": "left"
      },
      {
        "midi": 58,
        "time": 73.5,
        "duration": 0.375,
        "velocity": 0.71,
        "hand": "left"
      },
      {
        "midi": 56,
        "time": 73.875,
        "duration": 0.375,
        "velocity": 0.71,
        "hand": "left"
      },
      {
        "midi": 61,
        "time": 74.25,
        "duration": 0.375,
        "velocity": 0.71,
        "hand": "right"
      },
      {
        "midi": 65,
        "time": 74.25,
        "duration": 0.375,
        "velocity": 0.71,
        "hand": "right"
      },
      {
        "midi": 73,
        "time": 74.25,
        "duration": 0.75,
        "velocity": 0.71,
        "hand": "right"
      },
      {
        "midi": 56,
        "time": 74.625,
        "duration": 0.375,
        "velocity": 0.71,
        "hand": "left"
      },
      {
        "midi": 60,
        "time": 75,
        "duration": 2.25,
        "velocity": 0.71,
        "hand": "right"
      },
      {
        "midi": 66,
        "time": 75,
        "duration": 0.375,
        "velocity": 0.71,
        "hand": "right"
      },
      {
        "midi": 75,
        "time": 75,
        "duration": 0.563,
        "velocity": 0.71,
        "hand": "right"
      },
      {
        "midi": 56,
        "time": 75.375,
        "duration": 0.75,
        "velocity": 0.71,
        "hand": "left"
      },
      {
        "midi": 68,
        "time": 75.563,
        "duration": 0.188,
        "velocity": 0.71,
        "hand": "right"
      },
      {
        "midi": 77,
        "time": 75.563,
        "duration": 0.188,
        "velocity": 0.71,
        "hand": "right"
      },
      {
        "midi": 70,
        "time": 75.75,
        "duration": 1.5,
        "velocity": 0.71,
        "hand": "right"
      },
      {
        "midi": 78,
        "time": 75.75,
        "duration": 1.5,
        "velocity": 0.71,
        "hand": "right"
      },
      {
        "midi": 56,
        "time": 76.125,
        "duration": 0.375,
        "velocity": 0.71,
        "hand": "left"
      },
      {
        "midi": 56,
        "time": 76.5,
        "duration": 0.375,
        "velocity": 0.71,
        "hand": "left"
      },
      {
        "midi": 56,
        "time": 76.875,
        "duration": 0.75,
        "velocity": 0.71,
        "hand": "left"
      },
      {
        "midi": 63,
        "time": 77.25,
        "duration": 0.375,
        "velocity": 0.71,
        "hand": "right"
      },
      {
        "midi": 72,
        "time": 77.25,
        "duration": 0.75,
        "velocity": 0.71,
        "hand": "right"
      },
      {
        "midi": 56,
        "time": 77.625,
        "duration": 0.375,
        "velocity": 0.71,
        "hand": "left"
      },
      {
        "midi": 66,
        "time": 78,
        "duration": 1.5,
        "velocity": 0.71,
        "hand": "right"
      },
      {
        "midi": 75,
        "time": 78,
        "duration": 1.5,
        "velocity": 0.71,
        "hand": "right"
      },
      {
        "midi": 56,
        "time": 78.375,
        "duration": 0.375,
        "velocity": 0.71,
        "hand": "left"
      },
      {
        "midi": 56,
        "time": 78.75,
        "duration": 0.375,
        "velocity": 0.71,
        "hand": "left"
      },
      {
        "midi": 56,
        "time": 79.125,
        "duration": 0.375,
        "velocity": 0.71,
        "hand": "left"
      },
      {
        "midi": 56,
        "time": 79.5,
        "duration": 0.375,
        "velocity": 0.71,
        "hand": "left"
      },
      {
        "midi": 56,
        "time": 79.875,
        "duration": 0.375,
        "velocity": 0.71,
        "hand": "left"
      },
      {
        "midi": 56,
        "time": 80.25,
        "duration": 0.375,
        "velocity": 0.71,
        "hand": "left"
      },
      {
        "midi": 56,
        "time": 80.625,
        "duration": 0.375,
        "velocity": 0.71,
        "hand": "left"
      },
      {
        "midi": 37,
        "time": 81,
        "duration": 0.75,
        "velocity": 0.71,
        "hand": "left"
      },
      {
        "midi": 44,
        "time": 81,
        "duration": 0.75,
        "velocity": 0.71,
        "hand": "left"
      },
      {
        "midi": 56,
        "time": 81,
        "duration": 0.375,
        "velocity": 0.71,
        "hand": "left"
      },
      {
        "midi": 56,
        "time": 81.375,
        "duration": 0.375,
        "velocity": 0.71,
        "hand": "left"
      },
      {
        "midi": 39,
        "time": 81.75,
        "duration": 0.75,
        "velocity": 0.71,
        "hand": "left"
      },
      {
        "midi": 44,
        "time": 81.75,
        "duration": 0.75,
        "velocity": 0.71,
        "hand": "left"
      },
      {
        "midi": 56,
        "time": 81.75,
        "duration": 0.375,
        "velocity": 0.71,
        "hand": "left"
      },
      {
        "midi": 56,
        "time": 82.125,
        "duration": 0.375,
        "velocity": 0.71,
        "hand": "left"
      },
      {
        "midi": 40,
        "time": 82.5,
        "duration": 0.75,
        "velocity": 0.71,
        "hand": "left"
      },
      {
        "midi": 49,
        "time": 82.5,
        "duration": 0.75,
        "velocity": 0.71,
        "hand": "left"
      },
      {
        "midi": 56,
        "time": 82.5,
        "duration": 0.375,
        "velocity": 0.71,
        "hand": "left"
      },
      {
        "midi": 56,
        "time": 82.875,
        "duration": 0.375,
        "velocity": 0.71,
        "hand": "left"
      },
      {
        "midi": 39,
        "time": 83.25,
        "duration": 0.75,
        "velocity": 0.71,
        "hand": "left"
      },
      {
        "midi": 48,
        "time": 83.25,
        "duration": 0.75,
        "velocity": 0.71,
        "hand": "left"
      },
      {
        "midi": 56,
        "time": 83.25,
        "duration": 0.375,
        "velocity": 0.71,
        "hand": "left"
      },
      {
        "midi": 56,
        "time": 83.625,
        "duration": 0.375,
        "velocity": 0.71,
        "hand": "left"
      },
      {
        "midi": 39,
        "time": 84,
        "duration": 0.75,
        "velocity": 0.71,
        "hand": "left"
      },
      {
        "midi": 44,
        "time": 84,
        "duration": 0.75,
        "velocity": 0.71,
        "hand": "left"
      },
      {
        "midi": 56,
        "time": 84,
        "duration": 0.375,
        "velocity": 0.71,
        "hand": "left"
      },
      {
        "midi": 56,
        "time": 84.375,
        "duration": 0.375,
        "velocity": 0.71,
        "hand": "left"
      },
      {
        "midi": 40,
        "time": 84.75,
        "duration": 0.75,
        "velocity": 0.71,
        "hand": "left"
      },
      {
        "midi": 44,
        "time": 84.75,
        "duration": 0.75,
        "velocity": 0.71,
        "hand": "left"
      },
      {
        "midi": 56,
        "time": 84.75,
        "duration": 0.375,
        "velocity": 0.71,
        "hand": "left"
      },
      {
        "midi": 56,
        "time": 85.125,
        "duration": 0.375,
        "velocity": 0.71,
        "hand": "left"
      },
      {
        "midi": 42,
        "time": 85.5,
        "duration": 0.75,
        "velocity": 0.71,
        "hand": "left"
      },
      {
        "midi": 51,
        "time": 85.5,
        "duration": 0.75,
        "velocity": 0.71,
        "hand": "left"
      },
      {
        "midi": 56,
        "time": 85.5,
        "duration": 0.375,
        "velocity": 0.71,
        "hand": "left"
      },
      {
        "midi": 56,
        "time": 85.875,
        "duration": 0.375,
        "velocity": 0.71,
        "hand": "left"
      },
      {
        "midi": 40,
        "time": 86.25,
        "duration": 0.75,
        "velocity": 0.71,
        "hand": "left"
      },
      {
        "midi": 49,
        "time": 86.25,
        "duration": 0.75,
        "velocity": 0.71,
        "hand": "left"
      },
      {
        "midi": 56,
        "time": 86.25,
        "duration": 0.375,
        "velocity": 0.71,
        "hand": "left"
      },
      {
        "midi": 56,
        "time": 86.625,
        "duration": 0.375,
        "velocity": 0.71,
        "hand": "left"
      },
      {
        "midi": 40,
        "time": 87,
        "duration": 0.75,
        "velocity": 0.71,
        "hand": "left"
      },
      {
        "midi": 49,
        "time": 87,
        "duration": 0.75,
        "velocity": 0.71,
        "hand": "left"
      },
      {
        "midi": 56,
        "time": 87,
        "duration": 0.375,
        "velocity": 0.71,
        "hand": "left"
      },
      {
        "midi": 56,
        "time": 87.375,
        "duration": 0.375,
        "velocity": 0.71,
        "hand": "left"
      },
      {
        "midi": 44,
        "time": 87.75,
        "duration": 0.75,
        "velocity": 0.71,
        "hand": "left"
      },
      {
        "midi": 51,
        "time": 87.75,
        "duration": 0.75,
        "velocity": 0.71,
        "hand": "left"
      },
      {
        "midi": 56,
        "time": 87.75,
        "duration": 0.375,
        "velocity": 0.71,
        "hand": "left"
      },
      {
        "midi": 56,
        "time": 88.125,
        "duration": 0.375,
        "velocity": 0.71,
        "hand": "left"
      },
      {
        "midi": 49,
        "time": 88.5,
        "duration": 0.75,
        "velocity": 0.71,
        "hand": "left"
      },
      {
        "midi": 52,
        "time": 88.5,
        "duration": 0.75,
        "velocity": 0.71,
        "hand": "left"
      },
      {
        "midi": 56,
        "time": 88.5,
        "duration": 0.375,
        "velocity": 0.71,
        "hand": "left"
      },
      {
        "midi": 56,
        "time": 88.875,
        "duration": 0.375,
        "velocity": 0.71,
        "hand": "left"
      },
      {
        "midi": 44,
        "time": 89.25,
        "duration": 0.75,
        "velocity": 0.71,
        "hand": "left"
      },
      {
        "midi": 51,
        "time": 89.25,
        "duration": 0.75,
        "velocity": 0.71,
        "hand": "left"
      },
      {
        "midi": 56,
        "time": 89.25,
        "duration": 0.375,
        "velocity": 0.71,
        "hand": "left"
      },
      {
        "midi": 56,
        "time": 89.625,
        "duration": 0.375,
        "velocity": 0.71,
        "hand": "left"
      },
      {
        "midi": 44,
        "time": 90,
        "duration": 3.75,
        "velocity": 0.71,
        "hand": "left"
      },
      {
        "midi": 51,
        "time": 90,
        "duration": 3.75,
        "velocity": 0.71,
        "hand": "left"
      },
      {
        "midi": 56,
        "time": 90,
        "duration": 0.375,
        "velocity": 0.71,
        "hand": "left"
      },
      {
        "midi": 56,
        "time": 90.375,
        "duration": 0.375,
        "velocity": 0.71,
        "hand": "left"
      },
      {
        "midi": 56,
        "time": 90.75,
        "duration": 0.375,
        "velocity": 0.71,
        "hand": "left"
      },
      {
        "midi": 56,
        "time": 91.125,
        "duration": 0.375,
        "velocity": 0.71,
        "hand": "left"
      },
      {
        "midi": 56,
        "time": 91.5,
        "duration": 0.375,
        "velocity": 0.71,
        "hand": "left"
      },
      {
        "midi": 56,
        "time": 91.875,
        "duration": 0.375,
        "velocity": 0.71,
        "hand": "left"
      },
      {
        "midi": 56,
        "time": 92.25,
        "duration": 0.375,
        "velocity": 0.71,
        "hand": "left"
      },
      {
        "midi": 56,
        "time": 92.625,
        "duration": 0.375,
        "velocity": 0.71,
        "hand": "left"
      },
      {
        "midi": 56,
        "time": 93,
        "duration": 0.375,
        "velocity": 0.71,
        "hand": "left"
      },
      {
        "midi": 56,
        "time": 93.375,
        "duration": 0.375,
        "velocity": 0.71,
        "hand": "left"
      },
      {
        "midi": 49,
        "time": 93.75,
        "duration": 0.75,
        "velocity": 0.71,
        "hand": "left"
      },
      {
        "midi": 52,
        "time": 93.75,
        "duration": 0.75,
        "velocity": 0.71,
        "hand": "left"
      },
      {
        "midi": 56,
        "time": 93.75,
        "duration": 0.375,
        "velocity": 0.71,
        "hand": "left"
      },
      {
        "midi": 56,
        "time": 94.125,
        "duration": 0.375,
        "velocity": 0.71,
        "hand": "left"
      },
      {
        "midi": 44,
        "time": 94.5,
        "duration": 0.75,
        "velocity": 0.71,
        "hand": "left"
      },
      {
        "midi": 51,
        "time": 94.5,
        "duration": 0.75,
        "velocity": 0.71,
        "hand": "left"
      },
      {
        "midi": 56,
        "time": 94.5,
        "duration": 0.375,
        "velocity": 0.71,
        "hand": "left"
      },
      {
        "midi": 56,
        "time": 94.875,
        "duration": 0.375,
        "velocity": 0.71,
        "hand": "left"
      },
      {
        "midi": 40,
        "time": 95.25,
        "duration": 0.75,
        "velocity": 0.71,
        "hand": "left"
      },
      {
        "midi": 49,
        "time": 95.25,
        "duration": 0.75,
        "velocity": 0.71,
        "hand": "left"
      },
      {
        "midi": 56,
        "time": 95.25,
        "duration": 0.375,
        "velocity": 0.71,
        "hand": "left"
      },
      {
        "midi": 56,
        "time": 95.625,
        "duration": 0.375,
        "velocity": 0.71,
        "hand": "left"
      },
      {
        "midi": 44,
        "time": 96,
        "duration": 0.75,
        "velocity": 0.71,
        "hand": "left"
      },
      {
        "midi": 51,
        "time": 96,
        "duration": 0.75,
        "velocity": 0.71,
        "hand": "left"
      },
      {
        "midi": 56,
        "time": 96,
        "duration": 0.375,
        "velocity": 0.71,
        "hand": "left"
      },
      {
        "midi": 56,
        "time": 96.375,
        "duration": 0.375,
        "velocity": 0.71,
        "hand": "left"
      },
      {
        "midi": 40,
        "time": 96.75,
        "duration": 0.75,
        "velocity": 0.71,
        "hand": "left"
      },
      {
        "midi": 49,
        "time": 96.75,
        "duration": 0.75,
        "velocity": 0.71,
        "hand": "left"
      },
      {
        "midi": 56,
        "time": 96.75,
        "duration": 0.375,
        "velocity": 0.71,
        "hand": "left"
      },
      {
        "midi": 56,
        "time": 97.125,
        "duration": 0.375,
        "velocity": 0.71,
        "hand": "left"
      },
      {
        "midi": 39,
        "time": 97.5,
        "duration": 0.75,
        "velocity": 0.71,
        "hand": "left"
      },
      {
        "midi": 48,
        "time": 97.5,
        "duration": 0.75,
        "velocity": 0.71,
        "hand": "left"
      },
      {
        "midi": 56,
        "time": 97.5,
        "duration": 0.375,
        "velocity": 0.71,
        "hand": "left"
      },
      {
        "midi": 56,
        "time": 97.875,
        "duration": 0.375,
        "velocity": 0.71,
        "hand": "left"
      },
      {
        "midi": 40,
        "time": 98.25,
        "duration": 0.75,
        "velocity": 0.71,
        "hand": "left"
      },
      {
        "midi": 49,
        "time": 98.25,
        "duration": 0.75,
        "velocity": 0.71,
        "hand": "left"
      },
      {
        "midi": 56,
        "time": 98.25,
        "duration": 0.375,
        "velocity": 0.71,
        "hand": "left"
      },
      {
        "midi": 56,
        "time": 98.625,
        "duration": 0.375,
        "velocity": 0.71,
        "hand": "left"
      },
      {
        "midi": 39,
        "time": 99,
        "duration": 0.75,
        "velocity": 0.71,
        "hand": "left"
      },
      {
        "midi": 48,
        "time": 99,
        "duration": 0.75,
        "velocity": 0.71,
        "hand": "left"
      },
      {
        "midi": 56,
        "time": 99,
        "duration": 0.375,
        "velocity": 0.71,
        "hand": "left"
      },
      {
        "midi": 56,
        "time": 99.375,
        "duration": 0.375,
        "velocity": 0.71,
        "hand": "left"
      },
      {
        "midi": 40,
        "time": 99.75,
        "duration": 0.75,
        "velocity": 0.71,
        "hand": "left"
      },
      {
        "midi": 49,
        "time": 99.75,
        "duration": 0.75,
        "velocity": 0.71,
        "hand": "left"
      },
      {
        "midi": 56,
        "time": 99.75,
        "duration": 0.375,
        "velocity": 0.71,
        "hand": "left"
      },
      {
        "midi": 56,
        "time": 100.125,
        "duration": 0.375,
        "velocity": 0.71,
        "hand": "left"
      },
      {
        "midi": 39,
        "time": 100.5,
        "duration": 0.75,
        "velocity": 0.71,
        "hand": "left"
      },
      {
        "midi": 51,
        "time": 100.5,
        "duration": 0.75,
        "velocity": 0.71,
        "hand": "left"
      },
      {
        "midi": 56,
        "time": 100.5,
        "duration": 0.375,
        "velocity": 0.71,
        "hand": "left"
      },
      {
        "midi": 56,
        "time": 100.875,
        "duration": 0.375,
        "velocity": 0.71,
        "hand": "left"
      },
      {
        "midi": 37,
        "time": 101.25,
        "duration": 0.75,
        "velocity": 0.71,
        "hand": "left"
      },
      {
        "midi": 52,
        "time": 101.25,
        "duration": 0.75,
        "velocity": 0.71,
        "hand": "left"
      },
      {
        "midi": 56,
        "time": 101.25,
        "duration": 0.375,
        "velocity": 0.71,
        "hand": "left"
      },
      {
        "midi": 56,
        "time": 101.625,
        "duration": 0.375,
        "velocity": 0.71,
        "hand": "left"
      },
      {
        "midi": 44,
        "time": 102,
        "duration": 3,
        "velocity": 0.71,
        "hand": "left"
      },
      {
        "midi": 51,
        "time": 102,
        "duration": 3,
        "velocity": 0.71,
        "hand": "left"
      },
      {
        "midi": 56,
        "time": 102,
        "duration": 0.375,
        "velocity": 0.71,
        "hand": "left"
      },
      {
        "midi": 56,
        "time": 102.375,
        "duration": 0.375,
        "velocity": 0.71,
        "hand": "left"
      },
      {
        "midi": 68,
        "time": 102.375,
        "duration": 0.375,
        "velocity": 0.71,
        "hand": "right"
      },
      {
        "midi": 56,
        "time": 102.75,
        "duration": 0.375,
        "velocity": 0.71,
        "hand": "left"
      },
      {
        "midi": 68,
        "time": 102.75,
        "duration": 0.375,
        "velocity": 0.71,
        "hand": "right"
      },
      {
        "midi": 56,
        "time": 103.125,
        "duration": 0.375,
        "velocity": 0.71,
        "hand": "left"
      },
      {
        "midi": 68,
        "time": 103.125,
        "duration": 0.375,
        "velocity": 0.71,
        "hand": "right"
      },
      {
        "midi": 56,
        "time": 103.5,
        "duration": 0.375,
        "velocity": 0.71,
        "hand": "left"
      },
      {
        "midi": 68,
        "time": 103.5,
        "duration": 0.375,
        "velocity": 0.71,
        "hand": "right"
      },
      {
        "midi": 56,
        "time": 103.875,
        "duration": 0.375,
        "velocity": 0.71,
        "hand": "left"
      },
      {
        "midi": 68,
        "time": 103.875,
        "duration": 0.375,
        "velocity": 0.71,
        "hand": "right"
      },
      {
        "midi": 56,
        "time": 104.25,
        "duration": 0.375,
        "velocity": 0.71,
        "hand": "left"
      },
      {
        "midi": 68,
        "time": 104.25,
        "duration": 0.375,
        "velocity": 0.71,
        "hand": "right"
      },
      {
        "midi": 56,
        "time": 104.625,
        "duration": 0.375,
        "velocity": 0.71,
        "hand": "left"
      },
      {
        "midi": 68,
        "time": 104.625,
        "duration": 0.375,
        "velocity": 0.71,
        "hand": "right"
      },
      {
        "midi": 37,
        "time": 105,
        "duration": 0.75,
        "velocity": 0.71,
        "hand": "left"
      },
      {
        "midi": 56,
        "time": 105,
        "duration": 0.375,
        "velocity": 0.71,
        "hand": "left"
      },
      {
        "midi": 68,
        "time": 105,
        "duration": 0.375,
        "velocity": 0.71,
        "hand": "right"
      },
      {
        "midi": 56,
        "time": 105.375,
        "duration": 0.375,
        "velocity": 0.71,
        "hand": "left"
      },
      {
        "midi": 68,
        "time": 105.375,
        "duration": 0.375,
        "velocity": 0.71,
        "hand": "right"
      },
      {
        "midi": 39,
        "time": 105.75,
        "duration": 0.75,
        "velocity": 0.71,
        "hand": "left"
      },
      {
        "midi": 56,
        "time": 105.75,
        "duration": 0.375,
        "velocity": 0.71,
        "hand": "left"
      },
      {
        "midi": 68,
        "time": 105.75,
        "duration": 0.375,
        "velocity": 0.71,
        "hand": "right"
      },
      {
        "midi": 56,
        "time": 106.125,
        "duration": 0.375,
        "velocity": 0.71,
        "hand": "left"
      },
      {
        "midi": 68,
        "time": 106.125,
        "duration": 0.375,
        "velocity": 0.71,
        "hand": "right"
      },
      {
        "midi": 40,
        "time": 106.5,
        "duration": 0.75,
        "velocity": 0.71,
        "hand": "left"
      },
      {
        "midi": 56,
        "time": 106.5,
        "duration": 0.375,
        "velocity": 0.71,
        "hand": "left"
      },
      {
        "midi": 68,
        "time": 106.5,
        "duration": 0.375,
        "velocity": 0.71,
        "hand": "right"
      },
      {
        "midi": 56,
        "time": 106.875,
        "duration": 0.375,
        "velocity": 0.71,
        "hand": "left"
      },
      {
        "midi": 68,
        "time": 106.875,
        "duration": 0.375,
        "velocity": 0.71,
        "hand": "right"
      },
      {
        "midi": 39,
        "time": 107.25,
        "duration": 0.75,
        "velocity": 0.71,
        "hand": "left"
      },
      {
        "midi": 56,
        "time": 107.25,
        "duration": 0.375,
        "velocity": 0.71,
        "hand": "left"
      },
      {
        "midi": 68,
        "time": 107.25,
        "duration": 0.375,
        "velocity": 0.71,
        "hand": "right"
      },
      {
        "midi": 56,
        "time": 107.625,
        "duration": 0.375,
        "velocity": 0.71,
        "hand": "left"
      },
      {
        "midi": 68,
        "time": 107.625,
        "duration": 0.375,
        "velocity": 0.71,
        "hand": "right"
      },
      {
        "midi": 39,
        "time": 108,
        "duration": 0.75,
        "velocity": 0.71,
        "hand": "left"
      },
      {
        "midi": 56,
        "time": 108,
        "duration": 0.375,
        "velocity": 0.71,
        "hand": "left"
      },
      {
        "midi": 68,
        "time": 108,
        "duration": 0.375,
        "velocity": 0.71,
        "hand": "right"
      },
      {
        "midi": 56,
        "time": 108.375,
        "duration": 0.375,
        "velocity": 0.71,
        "hand": "left"
      },
      {
        "midi": 68,
        "time": 108.375,
        "duration": 0.375,
        "velocity": 0.71,
        "hand": "right"
      },
      {
        "midi": 40,
        "time": 108.75,
        "duration": 0.75,
        "velocity": 0.71,
        "hand": "left"
      },
      {
        "midi": 56,
        "time": 108.75,
        "duration": 0.375,
        "velocity": 0.71,
        "hand": "left"
      },
      {
        "midi": 68,
        "time": 108.75,
        "duration": 0.375,
        "velocity": 0.71,
        "hand": "right"
      },
      {
        "midi": 56,
        "time": 109.125,
        "duration": 0.375,
        "velocity": 0.71,
        "hand": "left"
      },
      {
        "midi": 68,
        "time": 109.125,
        "duration": 0.375,
        "velocity": 0.71,
        "hand": "right"
      },
      {
        "midi": 42,
        "time": 109.5,
        "duration": 0.75,
        "velocity": 0.71,
        "hand": "left"
      },
      {
        "midi": 56,
        "time": 109.5,
        "duration": 0.375,
        "velocity": 0.71,
        "hand": "left"
      },
      {
        "midi": 68,
        "time": 109.5,
        "duration": 0.375,
        "velocity": 0.71,
        "hand": "right"
      },
      {
        "midi": 56,
        "time": 109.875,
        "duration": 0.375,
        "velocity": 0.71,
        "hand": "left"
      },
      {
        "midi": 68,
        "time": 109.875,
        "duration": 0.375,
        "velocity": 0.71,
        "hand": "right"
      },
      {
        "midi": 40,
        "time": 110.25,
        "duration": 0.75,
        "velocity": 0.71,
        "hand": "left"
      },
      {
        "midi": 56,
        "time": 110.25,
        "duration": 0.375,
        "velocity": 0.71,
        "hand": "left"
      },
      {
        "midi": 68,
        "time": 110.25,
        "duration": 0.375,
        "velocity": 0.71,
        "hand": "right"
      },
      {
        "midi": 56,
        "time": 110.625,
        "duration": 0.375,
        "velocity": 0.71,
        "hand": "left"
      },
      {
        "midi": 68,
        "time": 110.625,
        "duration": 0.375,
        "velocity": 0.71,
        "hand": "right"
      },
      {
        "midi": 40,
        "time": 111,
        "duration": 0.75,
        "velocity": 0.71,
        "hand": "left"
      },
      {
        "midi": 56,
        "time": 111,
        "duration": 0.375,
        "velocity": 0.71,
        "hand": "left"
      },
      {
        "midi": 68,
        "time": 111,
        "duration": 0.375,
        "velocity": 0.71,
        "hand": "right"
      },
      {
        "midi": 56,
        "time": 111.375,
        "duration": 0.375,
        "velocity": 0.71,
        "hand": "left"
      },
      {
        "midi": 68,
        "time": 111.375,
        "duration": 0.375,
        "velocity": 0.71,
        "hand": "right"
      },
      {
        "midi": 44,
        "time": 111.75,
        "duration": 0.75,
        "velocity": 0.71,
        "hand": "left"
      },
      {
        "midi": 56,
        "time": 111.75,
        "duration": 0.375,
        "velocity": 0.71,
        "hand": "left"
      },
      {
        "midi": 68,
        "time": 111.75,
        "duration": 0.375,
        "velocity": 0.71,
        "hand": "right"
      },
      {
        "midi": 56,
        "time": 112.125,
        "duration": 0.375,
        "velocity": 0.71,
        "hand": "left"
      },
      {
        "midi": 68,
        "time": 112.125,
        "duration": 0.375,
        "velocity": 0.71,
        "hand": "right"
      },
      {
        "midi": 49,
        "time": 112.5,
        "duration": 0.75,
        "velocity": 0.71,
        "hand": "left"
      },
      {
        "midi": 56,
        "time": 112.5,
        "duration": 0.375,
        "velocity": 0.71,
        "hand": "left"
      },
      {
        "midi": 68,
        "time": 112.5,
        "duration": 0.375,
        "velocity": 0.71,
        "hand": "right"
      },
      {
        "midi": 56,
        "time": 112.875,
        "duration": 0.375,
        "velocity": 0.71,
        "hand": "left"
      },
      {
        "midi": 68,
        "time": 112.875,
        "duration": 0.375,
        "velocity": 0.71,
        "hand": "right"
      },
      {
        "midi": 44,
        "time": 113.25,
        "duration": 0.75,
        "velocity": 0.71,
        "hand": "left"
      },
      {
        "midi": 56,
        "time": 113.25,
        "duration": 0.375,
        "velocity": 0.71,
        "hand": "left"
      },
      {
        "midi": 68,
        "time": 113.25,
        "duration": 0.375,
        "velocity": 0.71,
        "hand": "right"
      },
      {
        "midi": 56,
        "time": 113.625,
        "duration": 0.375,
        "velocity": 0.71,
        "hand": "left"
      },
      {
        "midi": 68,
        "time": 113.625,
        "duration": 0.375,
        "velocity": 0.71,
        "hand": "right"
      },
      {
        "midi": 32,
        "time": 114,
        "duration": 0.188,
        "velocity": 0.71,
        "hand": "left"
      },
      {
        "midi": 56,
        "time": 114,
        "duration": 0.375,
        "velocity": 0.71,
        "hand": "left"
      },
      {
        "midi": 68,
        "time": 114,
        "duration": 0.375,
        "velocity": 0.71,
        "hand": "right"
      },
      {
        "midi": 56,
        "time": 114.375,
        "duration": 0.375,
        "velocity": 0.71,
        "hand": "left"
      },
      {
        "midi": 68,
        "time": 114.375,
        "duration": 0.375,
        "velocity": 0.71,
        "hand": "right"
      },
      {
        "midi": 56,
        "time": 114.75,
        "duration": 0.375,
        "velocity": 0.71,
        "hand": "left"
      },
      {
        "midi": 68,
        "time": 114.75,
        "duration": 0.375,
        "velocity": 0.71,
        "hand": "right"
      },
      {
        "midi": 56,
        "time": 115.125,
        "duration": 0.375,
        "velocity": 0.71,
        "hand": "left"
      },
      {
        "midi": 68,
        "time": 115.125,
        "duration": 0.375,
        "velocity": 0.71,
        "hand": "right"
      },
      {
        "midi": 56,
        "time": 115.5,
        "duration": 0.375,
        "velocity": 0.71,
        "hand": "left"
      },
      {
        "midi": 68,
        "time": 115.5,
        "duration": 0.375,
        "velocity": 0.71,
        "hand": "right"
      },
      {
        "midi": 56,
        "time": 115.875,
        "duration": 0.375,
        "velocity": 0.71,
        "hand": "left"
      },
      {
        "midi": 68,
        "time": 115.875,
        "duration": 0.375,
        "velocity": 0.71,
        "hand": "right"
      },
      {
        "midi": 56,
        "time": 116.25,
        "duration": 0.375,
        "velocity": 0.71,
        "hand": "left"
      },
      {
        "midi": 68,
        "time": 116.25,
        "duration": 0.375,
        "velocity": 0.71,
        "hand": "right"
      },
      {
        "midi": 56,
        "time": 116.625,
        "duration": 0.375,
        "velocity": 0.71,
        "hand": "left"
      },
      {
        "midi": 68,
        "time": 116.625,
        "duration": 0.375,
        "velocity": 0.71,
        "hand": "right"
      },
      {
        "midi": 28,
        "time": 117,
        "duration": 1.5,
        "velocity": 0.71,
        "hand": "left"
      },
      {
        "midi": 64,
        "time": 117,
        "duration": 1.5,
        "velocity": 0.71,
        "hand": "right"
      },
      {
        "midi": 71,
        "time": 117,
        "duration": 0.375,
        "velocity": 0.71,
        "hand": "right"
      },
      {
        "midi": 59,
        "time": 117.375,
        "duration": 0.375,
        "velocity": 0.71,
        "hand": "left"
      },
      {
        "midi": 71,
        "time": 117.375,
        "duration": 0.375,
        "velocity": 0.71,
        "hand": "right"
      },
      {
        "midi": 59,
        "time": 117.75,
        "duration": 0.375,
        "velocity": 0.71,
        "hand": "left"
      },
      {
        "midi": 71,
        "time": 117.75,
        "duration": 0.375,
        "velocity": 0.71,
        "hand": "right"
      },
      {
        "midi": 59,
        "time": 118.125,
        "duration": 0.375,
        "velocity": 0.71,
        "hand": "left"
      },
      {
        "midi": 71,
        "time": 118.125,
        "duration": 0.375,
        "velocity": 0.71,
        "hand": "right"
      },
      {
        "midi": 35,
        "time": 118.5,
        "duration": 1.5,
        "velocity": 0.71,
        "hand": "left"
      },
      {
        "midi": 63,
        "time": 118.5,
        "duration": 1.5,
        "velocity": 0.71,
        "hand": "right"
      },
      {
        "midi": 71,
        "time": 118.5,
        "duration": 0.375,
        "velocity": 0.71,
        "hand": "right"
      },
      {
        "midi": 59,
        "time": 118.875,
        "duration": 0.375,
        "velocity": 0.71,
        "hand": "left"
      },
      {
        "midi": 71,
        "time": 118.875,
        "duration": 0.375,
        "velocity": 0.71,
        "hand": "right"
      },
      {
        "midi": 59,
        "time": 119.25,
        "duration": 0.375,
        "velocity": 0.71,
        "hand": "left"
      },
      {
        "midi": 71,
        "time": 119.25,
        "duration": 0.375,
        "velocity": 0.71,
        "hand": "right"
      },
      {
        "midi": 59,
        "time": 119.625,
        "duration": 0.375,
        "velocity": 0.71,
        "hand": "left"
      },
      {
        "midi": 71,
        "time": 119.625,
        "duration": 0.375,
        "velocity": 0.71,
        "hand": "right"
      },
      {
        "midi": 28,
        "time": 120,
        "duration": 1.5,
        "velocity": 0.71,
        "hand": "left"
      },
      {
        "midi": 64,
        "time": 120,
        "duration": 1.5,
        "velocity": 0.71,
        "hand": "right"
      },
      {
        "midi": 71,
        "time": 120,
        "duration": 0.375,
        "velocity": 0.71,
        "hand": "right"
      },
      {
        "midi": 59,
        "time": 120.375,
        "duration": 0.375,
        "velocity": 0.71,
        "hand": "left"
      },
      {
        "midi": 71,
        "time": 120.375,
        "duration": 0.375,
        "velocity": 0.71,
        "hand": "right"
      },
      {
        "midi": 59,
        "time": 120.75,
        "duration": 0.375,
        "velocity": 0.71,
        "hand": "left"
      },
      {
        "midi": 71,
        "time": 120.75,
        "duration": 0.375,
        "velocity": 0.71,
        "hand": "right"
      },
      {
        "midi": 59,
        "time": 121.125,
        "duration": 0.375,
        "velocity": 0.71,
        "hand": "left"
      },
      {
        "midi": 71,
        "time": 121.125,
        "duration": 0.375,
        "velocity": 0.71,
        "hand": "right"
      },
      {
        "midi": 35,
        "time": 121.5,
        "duration": 1.125,
        "velocity": 0.71,
        "hand": "left"
      },
      {
        "midi": 63,
        "time": 121.5,
        "duration": 1.5,
        "velocity": 0.71,
        "hand": "right"
      },
      {
        "midi": 71,
        "time": 121.5,
        "duration": 0.375,
        "velocity": 0.71,
        "hand": "right"
      },
      {
        "midi": 59,
        "time": 121.875,
        "duration": 0.375,
        "velocity": 0.71,
        "hand": "left"
      },
      {
        "midi": 71,
        "time": 121.875,
        "duration": 0.375,
        "velocity": 0.71,
        "hand": "right"
      },
      {
        "midi": 59,
        "time": 122.25,
        "duration": 0.375,
        "velocity": 0.71,
        "hand": "left"
      },
      {
        "midi": 71,
        "time": 122.25,
        "duration": 0.375,
        "velocity": 0.71,
        "hand": "right"
      },
      {
        "midi": 34,
        "time": 122.625,
        "duration": 0.375,
        "velocity": 0.71,
        "hand": "left"
      },
      {
        "midi": 59,
        "time": 122.625,
        "duration": 0.375,
        "velocity": 0.71,
        "hand": "left"
      },
      {
        "midi": 71,
        "time": 122.625,
        "duration": 0.375,
        "velocity": 0.71,
        "hand": "right"
      },
      {
        "midi": 32,
        "time": 123,
        "duration": 1.5,
        "velocity": 0.71,
        "hand": "left"
      },
      {
        "midi": 63,
        "time": 123,
        "duration": 1.5,
        "velocity": 0.71,
        "hand": "right"
      },
      {
        "midi": 71,
        "time": 123,
        "duration": 0.375,
        "velocity": 0.71,
        "hand": "right"
      },
      {
        "midi": 59,
        "time": 123.375,
        "duration": 0.375,
        "velocity": 0.71,
        "hand": "left"
      },
      {
        "midi": 71,
        "time": 123.375,
        "duration": 0.375,
        "velocity": 0.71,
        "hand": "right"
      },
      {
        "midi": 59,
        "time": 123.75,
        "duration": 0.375,
        "velocity": 0.71,
        "hand": "left"
      },
      {
        "midi": 71,
        "time": 123.75,
        "duration": 0.375,
        "velocity": 0.71,
        "hand": "right"
      },
      {
        "midi": 59,
        "time": 124.125,
        "duration": 0.375,
        "velocity": 0.71,
        "hand": "left"
      },
      {
        "midi": 71,
        "time": 124.125,
        "duration": 0.375,
        "velocity": 0.71,
        "hand": "right"
      },
      {
        "midi": 39,
        "time": 124.5,
        "duration": 1.5,
        "velocity": 0.71,
        "hand": "left"
      },
      {
        "midi": 63,
        "time": 124.5,
        "duration": 1.5,
        "velocity": 0.71,
        "hand": "right"
      },
      {
        "midi": 71,
        "time": 124.5,
        "duration": 0.375,
        "velocity": 0.71,
        "hand": "right"
      },
      {
        "midi": 59,
        "time": 124.875,
        "duration": 0.375,
        "velocity": 0.71,
        "hand": "left"
      },
      {
        "midi": 71,
        "time": 124.875,
        "duration": 0.375,
        "velocity": 0.71,
        "hand": "right"
      },
      {
        "midi": 59,
        "time": 125.25,
        "duration": 0.375,
        "velocity": 0.71,
        "hand": "left"
      },
      {
        "midi": 71,
        "time": 125.25,
        "duration": 0.375,
        "velocity": 0.71,
        "hand": "right"
      },
      {
        "midi": 59,
        "time": 125.625,
        "duration": 0.375,
        "velocity": 0.71,
        "hand": "left"
      },
      {
        "midi": 71,
        "time": 125.625,
        "duration": 0.375,
        "velocity": 0.71,
        "hand": "right"
      },
      {
        "midi": 32,
        "time": 126,
        "duration": 1.5,
        "velocity": 0.71,
        "hand": "left"
      },
      {
        "midi": 63,
        "time": 126,
        "duration": 0.375,
        "velocity": 0.71,
        "hand": "right"
      },
      {
        "midi": 71,
        "time": 126,
        "duration": 0.375,
        "velocity": 0.71,
        "hand": "right"
      },
      {
        "midi": 56,
        "time": 126.375,
        "duration": 0.375,
        "velocity": 0.71,
        "hand": "left"
      },
      {
        "midi": 56,
        "time": 126.75,
        "duration": 0.375,
        "velocity": 0.71,
        "hand": "left"
      },
      {
        "midi": 56,
        "time": 127.125,
        "duration": 0.375,
        "velocity": 0.71,
        "hand": "left"
      },
      {
        "midi": 56,
        "time": 127.5,
        "duration": 0.375,
        "velocity": 0.71,
        "hand": "left"
      },
      {
        "midi": 56,
        "time": 127.875,
        "duration": 0.375,
        "velocity": 0.71,
        "hand": "left"
      },
      {
        "midi": 56,
        "time": 128.25,
        "duration": 0.375,
        "velocity": 0.71,
        "hand": "left"
      },
      {
        "midi": 56,
        "time": 128.625,
        "duration": 0.375,
        "velocity": 0.71,
        "hand": "left"
      },
      {
        "midi": 37,
        "time": 129,
        "duration": 0.75,
        "velocity": 0.71,
        "hand": "left"
      },
      {
        "midi": 44,
        "time": 129,
        "duration": 0.75,
        "velocity": 0.71,
        "hand": "left"
      },
      {
        "midi": 56,
        "time": 129,
        "duration": 0.375,
        "velocity": 0.71,
        "hand": "left"
      },
      {
        "midi": 56,
        "time": 129.375,
        "duration": 0.375,
        "velocity": 0.71,
        "hand": "left"
      },
      {
        "midi": 39,
        "time": 129.75,
        "duration": 0.75,
        "velocity": 0.71,
        "hand": "left"
      },
      {
        "midi": 44,
        "time": 129.75,
        "duration": 0.75,
        "velocity": 0.71,
        "hand": "left"
      },
      {
        "midi": 56,
        "time": 129.75,
        "duration": 0.375,
        "velocity": 0.71,
        "hand": "left"
      },
      {
        "midi": 56,
        "time": 130.125,
        "duration": 0.375,
        "velocity": 0.71,
        "hand": "left"
      },
      {
        "midi": 40,
        "time": 130.5,
        "duration": 0.75,
        "velocity": 0.71,
        "hand": "left"
      },
      {
        "midi": 49,
        "time": 130.5,
        "duration": 0.75,
        "velocity": 0.71,
        "hand": "left"
      },
      {
        "midi": 56,
        "time": 130.5,
        "duration": 0.375,
        "velocity": 0.71,
        "hand": "left"
      },
      {
        "midi": 56,
        "time": 130.875,
        "duration": 0.375,
        "velocity": 0.71,
        "hand": "left"
      },
      {
        "midi": 39,
        "time": 131.25,
        "duration": 0.75,
        "velocity": 0.71,
        "hand": "left"
      },
      {
        "midi": 48,
        "time": 131.25,
        "duration": 0.75,
        "velocity": 0.71,
        "hand": "left"
      },
      {
        "midi": 56,
        "time": 131.25,
        "duration": 0.375,
        "velocity": 0.71,
        "hand": "left"
      },
      {
        "midi": 56,
        "time": 131.625,
        "duration": 0.375,
        "velocity": 0.71,
        "hand": "left"
      },
      {
        "midi": 39,
        "time": 132,
        "duration": 0.75,
        "velocity": 0.71,
        "hand": "left"
      },
      {
        "midi": 44,
        "time": 132,
        "duration": 0.75,
        "velocity": 0.71,
        "hand": "left"
      },
      {
        "midi": 56,
        "time": 132,
        "duration": 0.375,
        "velocity": 0.71,
        "hand": "left"
      },
      {
        "midi": 56,
        "time": 132.375,
        "duration": 0.375,
        "velocity": 0.71,
        "hand": "left"
      },
      {
        "midi": 40,
        "time": 132.75,
        "duration": 0.75,
        "velocity": 0.71,
        "hand": "left"
      },
      {
        "midi": 44,
        "time": 132.75,
        "duration": 0.75,
        "velocity": 0.71,
        "hand": "left"
      },
      {
        "midi": 56,
        "time": 132.75,
        "duration": 0.375,
        "velocity": 0.71,
        "hand": "left"
      },
      {
        "midi": 56,
        "time": 133.125,
        "duration": 0.375,
        "velocity": 0.71,
        "hand": "left"
      },
      {
        "midi": 42,
        "time": 133.5,
        "duration": 0.75,
        "velocity": 0.71,
        "hand": "left"
      },
      {
        "midi": 51,
        "time": 133.5,
        "duration": 0.75,
        "velocity": 0.71,
        "hand": "left"
      },
      {
        "midi": 56,
        "time": 133.5,
        "duration": 0.375,
        "velocity": 0.71,
        "hand": "left"
      },
      {
        "midi": 56,
        "time": 133.875,
        "duration": 0.375,
        "velocity": 0.71,
        "hand": "left"
      },
      {
        "midi": 40,
        "time": 134.25,
        "duration": 0.75,
        "velocity": 0.71,
        "hand": "left"
      },
      {
        "midi": 49,
        "time": 134.25,
        "duration": 0.75,
        "velocity": 0.71,
        "hand": "left"
      },
      {
        "midi": 56,
        "time": 134.25,
        "duration": 0.375,
        "velocity": 0.71,
        "hand": "left"
      },
      {
        "midi": 56,
        "time": 134.625,
        "duration": 0.375,
        "velocity": 0.71,
        "hand": "left"
      },
      {
        "midi": 40,
        "time": 135,
        "duration": 0.75,
        "velocity": 0.71,
        "hand": "left"
      },
      {
        "midi": 49,
        "time": 135,
        "duration": 0.75,
        "velocity": 0.71,
        "hand": "left"
      },
      {
        "midi": 56,
        "time": 135,
        "duration": 0.375,
        "velocity": 0.71,
        "hand": "left"
      },
      {
        "midi": 56,
        "time": 135.375,
        "duration": 0.375,
        "velocity": 0.71,
        "hand": "left"
      },
      {
        "midi": 44,
        "time": 135.75,
        "duration": 0.75,
        "velocity": 0.71,
        "hand": "left"
      },
      {
        "midi": 51,
        "time": 135.75,
        "duration": 0.75,
        "velocity": 0.71,
        "hand": "left"
      },
      {
        "midi": 56,
        "time": 135.75,
        "duration": 0.375,
        "velocity": 0.71,
        "hand": "left"
      },
      {
        "midi": 56,
        "time": 136.125,
        "duration": 0.375,
        "velocity": 0.71,
        "hand": "left"
      },
      {
        "midi": 49,
        "time": 136.5,
        "duration": 0.75,
        "velocity": 0.71,
        "hand": "left"
      },
      {
        "midi": 52,
        "time": 136.5,
        "duration": 0.75,
        "velocity": 0.71,
        "hand": "left"
      },
      {
        "midi": 56,
        "time": 136.5,
        "duration": 0.375,
        "velocity": 0.71,
        "hand": "left"
      },
      {
        "midi": 56,
        "time": 136.875,
        "duration": 0.375,
        "velocity": 0.71,
        "hand": "left"
      },
      {
        "midi": 44,
        "time": 137.25,
        "duration": 0.75,
        "velocity": 0.71,
        "hand": "left"
      },
      {
        "midi": 51,
        "time": 137.25,
        "duration": 0.75,
        "velocity": 0.71,
        "hand": "left"
      },
      {
        "midi": 56,
        "time": 137.25,
        "duration": 0.375,
        "velocity": 0.71,
        "hand": "left"
      },
      {
        "midi": 56,
        "time": 137.625,
        "duration": 0.375,
        "velocity": 0.71,
        "hand": "left"
      },
      {
        "midi": 44,
        "time": 138,
        "duration": 3.75,
        "velocity": 0.71,
        "hand": "left"
      },
      {
        "midi": 51,
        "time": 138,
        "duration": 3.75,
        "velocity": 0.71,
        "hand": "left"
      },
      {
        "midi": 56,
        "time": 138,
        "duration": 0.375,
        "velocity": 0.71,
        "hand": "left"
      },
      {
        "midi": 56,
        "time": 138.375,
        "duration": 0.375,
        "velocity": 0.71,
        "hand": "left"
      },
      {
        "midi": 56,
        "time": 138.75,
        "duration": 0.375,
        "velocity": 0.71,
        "hand": "left"
      },
      {
        "midi": 56,
        "time": 139.125,
        "duration": 0.375,
        "velocity": 0.71,
        "hand": "left"
      },
      {
        "midi": 56,
        "time": 139.5,
        "duration": 0.375,
        "velocity": 0.71,
        "hand": "left"
      },
      {
        "midi": 56,
        "time": 139.875,
        "duration": 0.375,
        "velocity": 0.71,
        "hand": "left"
      },
      {
        "midi": 56,
        "time": 140.25,
        "duration": 0.375,
        "velocity": 0.71,
        "hand": "left"
      },
      {
        "midi": 56,
        "time": 140.625,
        "duration": 0.375,
        "velocity": 0.71,
        "hand": "left"
      },
      {
        "midi": 56,
        "time": 141,
        "duration": 0.375,
        "velocity": 0.71,
        "hand": "left"
      },
      {
        "midi": 56,
        "time": 141.375,
        "duration": 0.375,
        "velocity": 0.71,
        "hand": "left"
      },
      {
        "midi": 49,
        "time": 141.75,
        "duration": 0.75,
        "velocity": 0.71,
        "hand": "left"
      },
      {
        "midi": 52,
        "time": 141.75,
        "duration": 0.75,
        "velocity": 0.71,
        "hand": "left"
      },
      {
        "midi": 56,
        "time": 141.75,
        "duration": 0.375,
        "velocity": 0.71,
        "hand": "left"
      },
      {
        "midi": 56,
        "time": 142.125,
        "duration": 0.375,
        "velocity": 0.71,
        "hand": "left"
      },
      {
        "midi": 44,
        "time": 142.5,
        "duration": 0.75,
        "velocity": 0.71,
        "hand": "left"
      },
      {
        "midi": 51,
        "time": 142.5,
        "duration": 0.75,
        "velocity": 0.71,
        "hand": "left"
      },
      {
        "midi": 56,
        "time": 142.5,
        "duration": 0.375,
        "velocity": 0.71,
        "hand": "left"
      },
      {
        "midi": 56,
        "time": 142.875,
        "duration": 0.375,
        "velocity": 0.71,
        "hand": "left"
      },
      {
        "midi": 40,
        "time": 143.25,
        "duration": 0.75,
        "velocity": 0.71,
        "hand": "left"
      },
      {
        "midi": 49,
        "time": 143.25,
        "duration": 0.75,
        "velocity": 0.71,
        "hand": "left"
      },
      {
        "midi": 56,
        "time": 143.25,
        "duration": 0.375,
        "velocity": 0.71,
        "hand": "left"
      },
      {
        "midi": 56,
        "time": 143.625,
        "duration": 0.375,
        "velocity": 0.71,
        "hand": "left"
      },
      {
        "midi": 44,
        "time": 144,
        "duration": 0.75,
        "velocity": 0.71,
        "hand": "left"
      },
      {
        "midi": 51,
        "time": 144,
        "duration": 0.75,
        "velocity": 0.71,
        "hand": "left"
      },
      {
        "midi": 56,
        "time": 144,
        "duration": 0.375,
        "velocity": 0.71,
        "hand": "left"
      },
      {
        "midi": 56,
        "time": 144.375,
        "duration": 0.375,
        "velocity": 0.71,
        "hand": "left"
      },
      {
        "midi": 40,
        "time": 144.75,
        "duration": 0.75,
        "velocity": 0.71,
        "hand": "left"
      },
      {
        "midi": 49,
        "time": 144.75,
        "duration": 0.75,
        "velocity": 0.71,
        "hand": "left"
      },
      {
        "midi": 56,
        "time": 144.75,
        "duration": 0.375,
        "velocity": 0.71,
        "hand": "left"
      },
      {
        "midi": 56,
        "time": 145.125,
        "duration": 0.375,
        "velocity": 0.71,
        "hand": "left"
      },
      {
        "midi": 39,
        "time": 145.5,
        "duration": 0.75,
        "velocity": 0.71,
        "hand": "left"
      },
      {
        "midi": 48,
        "time": 145.5,
        "duration": 0.75,
        "velocity": 0.71,
        "hand": "left"
      },
      {
        "midi": 56,
        "time": 145.5,
        "duration": 0.375,
        "velocity": 0.71,
        "hand": "left"
      },
      {
        "midi": 56,
        "time": 145.875,
        "duration": 0.375,
        "velocity": 0.71,
        "hand": "left"
      },
      {
        "midi": 40,
        "time": 146.25,
        "duration": 0.75,
        "velocity": 0.71,
        "hand": "left"
      },
      {
        "midi": 49,
        "time": 146.25,
        "duration": 0.75,
        "velocity": 0.71,
        "hand": "left"
      },
      {
        "midi": 56,
        "time": 146.25,
        "duration": 0.375,
        "velocity": 0.71,
        "hand": "left"
      },
      {
        "midi": 56,
        "time": 146.625,
        "duration": 0.375,
        "velocity": 0.71,
        "hand": "left"
      },
      {
        "midi": 39,
        "time": 147,
        "duration": 0.75,
        "velocity": 0.71,
        "hand": "left"
      },
      {
        "midi": 48,
        "time": 147,
        "duration": 0.75,
        "velocity": 0.71,
        "hand": "left"
      },
      {
        "midi": 56,
        "time": 147,
        "duration": 0.375,
        "velocity": 0.71,
        "hand": "left"
      },
      {
        "midi": 56,
        "time": 147.375,
        "duration": 0.375,
        "velocity": 0.71,
        "hand": "left"
      },
      {
        "midi": 40,
        "time": 147.75,
        "duration": 0.75,
        "velocity": 0.71,
        "hand": "left"
      },
      {
        "midi": 49,
        "time": 147.75,
        "duration": 0.75,
        "velocity": 0.71,
        "hand": "left"
      },
      {
        "midi": 56,
        "time": 147.75,
        "duration": 0.375,
        "velocity": 0.71,
        "hand": "left"
      },
      {
        "midi": 56,
        "time": 148.125,
        "duration": 0.375,
        "velocity": 0.71,
        "hand": "left"
      },
      {
        "midi": 39,
        "time": 148.5,
        "duration": 0.75,
        "velocity": 0.71,
        "hand": "left"
      },
      {
        "midi": 51,
        "time": 148.5,
        "duration": 0.75,
        "velocity": 0.71,
        "hand": "left"
      },
      {
        "midi": 56,
        "time": 148.5,
        "duration": 0.375,
        "velocity": 0.71,
        "hand": "left"
      },
      {
        "midi": 56,
        "time": 148.875,
        "duration": 0.375,
        "velocity": 0.71,
        "hand": "left"
      },
      {
        "midi": 37,
        "time": 149.25,
        "duration": 0.75,
        "velocity": 0.71,
        "hand": "left"
      },
      {
        "midi": 52,
        "time": 149.25,
        "duration": 0.75,
        "velocity": 0.71,
        "hand": "left"
      },
      {
        "midi": 56,
        "time": 149.25,
        "duration": 0.375,
        "velocity": 0.71,
        "hand": "left"
      },
      {
        "midi": 56,
        "time": 149.625,
        "duration": 0.375,
        "velocity": 0.71,
        "hand": "left"
      },
      {
        "midi": 44,
        "time": 150,
        "duration": 3,
        "velocity": 0.71,
        "hand": "left"
      },
      {
        "midi": 51,
        "time": 150,
        "duration": 3,
        "velocity": 0.71,
        "hand": "left"
      },
      {
        "midi": 56,
        "time": 150,
        "duration": 0.375,
        "velocity": 0.71,
        "hand": "left"
      },
      {
        "midi": 56,
        "time": 150.375,
        "duration": 0.375,
        "velocity": 0.71,
        "hand": "left"
      },
      {
        "midi": 68,
        "time": 150.375,
        "duration": 0.375,
        "velocity": 0.71,
        "hand": "right"
      },
      {
        "midi": 56,
        "time": 150.75,
        "duration": 0.375,
        "velocity": 0.71,
        "hand": "left"
      },
      {
        "midi": 68,
        "time": 150.75,
        "duration": 0.375,
        "velocity": 0.71,
        "hand": "right"
      },
      {
        "midi": 56,
        "time": 151.125,
        "duration": 0.375,
        "velocity": 0.71,
        "hand": "left"
      },
      {
        "midi": 68,
        "time": 151.125,
        "duration": 0.375,
        "velocity": 0.71,
        "hand": "right"
      },
      {
        "midi": 56,
        "time": 151.5,
        "duration": 0.375,
        "velocity": 0.71,
        "hand": "left"
      },
      {
        "midi": 68,
        "time": 151.5,
        "duration": 0.375,
        "velocity": 0.71,
        "hand": "right"
      },
      {
        "midi": 56,
        "time": 151.875,
        "duration": 0.375,
        "velocity": 0.71,
        "hand": "left"
      },
      {
        "midi": 68,
        "time": 151.875,
        "duration": 0.375,
        "velocity": 0.71,
        "hand": "right"
      },
      {
        "midi": 56,
        "time": 152.25,
        "duration": 0.375,
        "velocity": 0.71,
        "hand": "left"
      },
      {
        "midi": 68,
        "time": 152.25,
        "duration": 0.375,
        "velocity": 0.71,
        "hand": "right"
      },
      {
        "midi": 56,
        "time": 152.625,
        "duration": 0.375,
        "velocity": 0.71,
        "hand": "left"
      },
      {
        "midi": 68,
        "time": 152.625,
        "duration": 0.375,
        "velocity": 0.71,
        "hand": "right"
      },
      {
        "midi": 37,
        "time": 153,
        "duration": 0.75,
        "velocity": 0.71,
        "hand": "left"
      },
      {
        "midi": 56,
        "time": 153,
        "duration": 0.375,
        "velocity": 0.71,
        "hand": "left"
      },
      {
        "midi": 68,
        "time": 153,
        "duration": 0.375,
        "velocity": 0.71,
        "hand": "right"
      },
      {
        "midi": 56,
        "time": 153.375,
        "duration": 0.375,
        "velocity": 0.71,
        "hand": "left"
      },
      {
        "midi": 68,
        "time": 153.375,
        "duration": 0.375,
        "velocity": 0.71,
        "hand": "right"
      },
      {
        "midi": 39,
        "time": 153.75,
        "duration": 0.75,
        "velocity": 0.71,
        "hand": "left"
      },
      {
        "midi": 56,
        "time": 153.75,
        "duration": 0.375,
        "velocity": 0.71,
        "hand": "left"
      },
      {
        "midi": 68,
        "time": 153.75,
        "duration": 0.375,
        "velocity": 0.71,
        "hand": "right"
      },
      {
        "midi": 56,
        "time": 154.125,
        "duration": 0.375,
        "velocity": 0.71,
        "hand": "left"
      },
      {
        "midi": 68,
        "time": 154.125,
        "duration": 0.375,
        "velocity": 0.71,
        "hand": "right"
      },
      {
        "midi": 40,
        "time": 154.5,
        "duration": 0.75,
        "velocity": 0.71,
        "hand": "left"
      },
      {
        "midi": 56,
        "time": 154.5,
        "duration": 0.375,
        "velocity": 0.71,
        "hand": "left"
      },
      {
        "midi": 68,
        "time": 154.5,
        "duration": 0.375,
        "velocity": 0.71,
        "hand": "right"
      },
      {
        "midi": 56,
        "time": 154.875,
        "duration": 0.375,
        "velocity": 0.71,
        "hand": "left"
      },
      {
        "midi": 68,
        "time": 154.875,
        "duration": 0.375,
        "velocity": 0.71,
        "hand": "right"
      },
      {
        "midi": 39,
        "time": 155.25,
        "duration": 0.75,
        "velocity": 0.71,
        "hand": "left"
      },
      {
        "midi": 56,
        "time": 155.25,
        "duration": 0.375,
        "velocity": 0.71,
        "hand": "left"
      },
      {
        "midi": 68,
        "time": 155.25,
        "duration": 0.375,
        "velocity": 0.71,
        "hand": "right"
      },
      {
        "midi": 56,
        "time": 155.625,
        "duration": 0.375,
        "velocity": 0.71,
        "hand": "left"
      },
      {
        "midi": 68,
        "time": 155.625,
        "duration": 0.375,
        "velocity": 0.71,
        "hand": "right"
      },
      {
        "midi": 39,
        "time": 156,
        "duration": 0.75,
        "velocity": 0.71,
        "hand": "left"
      },
      {
        "midi": 56,
        "time": 156,
        "duration": 0.375,
        "velocity": 0.71,
        "hand": "left"
      },
      {
        "midi": 68,
        "time": 156,
        "duration": 0.375,
        "velocity": 0.71,
        "hand": "right"
      },
      {
        "midi": 56,
        "time": 156.375,
        "duration": 0.375,
        "velocity": 0.71,
        "hand": "left"
      },
      {
        "midi": 68,
        "time": 156.375,
        "duration": 0.375,
        "velocity": 0.71,
        "hand": "right"
      },
      {
        "midi": 40,
        "time": 156.75,
        "duration": 0.75,
        "velocity": 0.71,
        "hand": "left"
      },
      {
        "midi": 56,
        "time": 156.75,
        "duration": 0.375,
        "velocity": 0.71,
        "hand": "left"
      },
      {
        "midi": 68,
        "time": 156.75,
        "duration": 0.375,
        "velocity": 0.71,
        "hand": "right"
      },
      {
        "midi": 56,
        "time": 157.125,
        "duration": 0.375,
        "velocity": 0.71,
        "hand": "left"
      },
      {
        "midi": 68,
        "time": 157.125,
        "duration": 0.375,
        "velocity": 0.71,
        "hand": "right"
      },
      {
        "midi": 42,
        "time": 157.5,
        "duration": 0.75,
        "velocity": 0.71,
        "hand": "left"
      },
      {
        "midi": 56,
        "time": 157.5,
        "duration": 0.375,
        "velocity": 0.71,
        "hand": "left"
      },
      {
        "midi": 68,
        "time": 157.5,
        "duration": 0.375,
        "velocity": 0.71,
        "hand": "right"
      },
      {
        "midi": 56,
        "time": 157.875,
        "duration": 0.375,
        "velocity": 0.71,
        "hand": "left"
      },
      {
        "midi": 68,
        "time": 157.875,
        "duration": 0.375,
        "velocity": 0.71,
        "hand": "right"
      },
      {
        "midi": 40,
        "time": 158.25,
        "duration": 0.75,
        "velocity": 0.71,
        "hand": "left"
      },
      {
        "midi": 56,
        "time": 158.25,
        "duration": 0.375,
        "velocity": 0.71,
        "hand": "left"
      },
      {
        "midi": 68,
        "time": 158.25,
        "duration": 0.375,
        "velocity": 0.71,
        "hand": "right"
      },
      {
        "midi": 56,
        "time": 158.625,
        "duration": 0.375,
        "velocity": 0.71,
        "hand": "left"
      },
      {
        "midi": 68,
        "time": 158.625,
        "duration": 0.375,
        "velocity": 0.71,
        "hand": "right"
      },
      {
        "midi": 40,
        "time": 159,
        "duration": 0.75,
        "velocity": 0.71,
        "hand": "left"
      },
      {
        "midi": 56,
        "time": 159,
        "duration": 0.375,
        "velocity": 0.71,
        "hand": "left"
      },
      {
        "midi": 68,
        "time": 159,
        "duration": 0.375,
        "velocity": 0.71,
        "hand": "right"
      },
      {
        "midi": 56,
        "time": 159.375,
        "duration": 0.375,
        "velocity": 0.71,
        "hand": "left"
      },
      {
        "midi": 68,
        "time": 159.375,
        "duration": 0.375,
        "velocity": 0.71,
        "hand": "right"
      },
      {
        "midi": 44,
        "time": 159.75,
        "duration": 0.75,
        "velocity": 0.71,
        "hand": "left"
      },
      {
        "midi": 56,
        "time": 159.75,
        "duration": 0.375,
        "velocity": 0.71,
        "hand": "left"
      },
      {
        "midi": 68,
        "time": 159.75,
        "duration": 0.375,
        "velocity": 0.71,
        "hand": "right"
      },
      {
        "midi": 56,
        "time": 160.125,
        "duration": 0.375,
        "velocity": 0.71,
        "hand": "left"
      },
      {
        "midi": 68,
        "time": 160.125,
        "duration": 0.375,
        "velocity": 0.71,
        "hand": "right"
      },
      {
        "midi": 49,
        "time": 160.5,
        "duration": 0.75,
        "velocity": 0.71,
        "hand": "left"
      },
      {
        "midi": 56,
        "time": 160.5,
        "duration": 0.375,
        "velocity": 0.71,
        "hand": "left"
      },
      {
        "midi": 68,
        "time": 160.5,
        "duration": 0.375,
        "velocity": 0.71,
        "hand": "right"
      },
      {
        "midi": 56,
        "time": 160.875,
        "duration": 0.375,
        "velocity": 0.71,
        "hand": "left"
      },
      {
        "midi": 68,
        "time": 160.875,
        "duration": 0.375,
        "velocity": 0.71,
        "hand": "right"
      },
      {
        "midi": 44,
        "time": 161.25,
        "duration": 0.75,
        "velocity": 0.71,
        "hand": "left"
      },
      {
        "midi": 56,
        "time": 161.25,
        "duration": 0.375,
        "velocity": 0.71,
        "hand": "left"
      },
      {
        "midi": 68,
        "time": 161.25,
        "duration": 0.375,
        "velocity": 0.71,
        "hand": "right"
      },
      {
        "midi": 56,
        "time": 161.625,
        "duration": 0.375,
        "velocity": 0.71,
        "hand": "left"
      },
      {
        "midi": 68,
        "time": 161.625,
        "duration": 0.375,
        "velocity": 0.71,
        "hand": "right"
      },
      {
        "midi": 32,
        "time": 162,
        "duration": 0.188,
        "velocity": 0.71,
        "hand": "left"
      },
      {
        "midi": 56,
        "time": 162,
        "duration": 0.375,
        "velocity": 0.71,
        "hand": "left"
      },
      {
        "midi": 68,
        "time": 162,
        "duration": 0.375,
        "velocity": 0.71,
        "hand": "right"
      },
      {
        "midi": 56,
        "time": 162.375,
        "duration": 0.375,
        "velocity": 0.71,
        "hand": "left"
      },
      {
        "midi": 68,
        "time": 162.375,
        "duration": 0.375,
        "velocity": 0.71,
        "hand": "right"
      },
      {
        "midi": 56,
        "time": 162.75,
        "duration": 0.375,
        "velocity": 0.71,
        "hand": "left"
      },
      {
        "midi": 68,
        "time": 162.75,
        "duration": 0.375,
        "velocity": 0.71,
        "hand": "right"
      },
      {
        "midi": 56,
        "time": 163.125,
        "duration": 0.375,
        "velocity": 0.71,
        "hand": "left"
      },
      {
        "midi": 68,
        "time": 163.125,
        "duration": 0.375,
        "velocity": 0.71,
        "hand": "right"
      },
      {
        "midi": 56,
        "time": 163.5,
        "duration": 0.375,
        "velocity": 0.71,
        "hand": "left"
      },
      {
        "midi": 68,
        "time": 163.5,
        "duration": 0.375,
        "velocity": 0.71,
        "hand": "right"
      },
      {
        "midi": 56,
        "time": 163.875,
        "duration": 0.375,
        "velocity": 0.71,
        "hand": "left"
      },
      {
        "midi": 68,
        "time": 163.875,
        "duration": 0.375,
        "velocity": 0.71,
        "hand": "right"
      },
      {
        "midi": 56,
        "time": 164.25,
        "duration": 0.375,
        "velocity": 0.71,
        "hand": "left"
      },
      {
        "midi": 68,
        "time": 164.25,
        "duration": 0.375,
        "velocity": 0.71,
        "hand": "right"
      },
      {
        "midi": 56,
        "time": 164.625,
        "duration": 0.375,
        "velocity": 0.71,
        "hand": "left"
      },
      {
        "midi": 68,
        "time": 164.625,
        "duration": 0.375,
        "velocity": 0.71,
        "hand": "right"
      },
      {
        "midi": 28,
        "time": 165,
        "duration": 1.5,
        "velocity": 0.71,
        "hand": "left"
      },
      {
        "midi": 64,
        "time": 165,
        "duration": 1.5,
        "velocity": 0.71,
        "hand": "right"
      },
      {
        "midi": 71,
        "time": 165,
        "duration": 0.375,
        "velocity": 0.71,
        "hand": "right"
      },
      {
        "midi": 59,
        "time": 165.375,
        "duration": 0.375,
        "velocity": 0.71,
        "hand": "left"
      },
      {
        "midi": 71,
        "time": 165.375,
        "duration": 0.375,
        "velocity": 0.71,
        "hand": "right"
      },
      {
        "midi": 59,
        "time": 165.75,
        "duration": 0.375,
        "velocity": 0.71,
        "hand": "left"
      },
      {
        "midi": 71,
        "time": 165.75,
        "duration": 0.375,
        "velocity": 0.71,
        "hand": "right"
      },
      {
        "midi": 59,
        "time": 166.125,
        "duration": 0.375,
        "velocity": 0.71,
        "hand": "left"
      },
      {
        "midi": 71,
        "time": 166.125,
        "duration": 0.375,
        "velocity": 0.71,
        "hand": "right"
      },
      {
        "midi": 35,
        "time": 166.5,
        "duration": 1.5,
        "velocity": 0.71,
        "hand": "left"
      },
      {
        "midi": 63,
        "time": 166.5,
        "duration": 1.5,
        "velocity": 0.71,
        "hand": "right"
      },
      {
        "midi": 71,
        "time": 166.5,
        "duration": 0.375,
        "velocity": 0.71,
        "hand": "right"
      },
      {
        "midi": 59,
        "time": 166.875,
        "duration": 0.375,
        "velocity": 0.71,
        "hand": "left"
      },
      {
        "midi": 71,
        "time": 166.875,
        "duration": 0.375,
        "velocity": 0.71,
        "hand": "right"
      },
      {
        "midi": 59,
        "time": 167.25,
        "duration": 0.375,
        "velocity": 0.71,
        "hand": "left"
      },
      {
        "midi": 71,
        "time": 167.25,
        "duration": 0.375,
        "velocity": 0.71,
        "hand": "right"
      },
      {
        "midi": 59,
        "time": 167.625,
        "duration": 0.375,
        "velocity": 0.71,
        "hand": "left"
      },
      {
        "midi": 71,
        "time": 167.625,
        "duration": 0.375,
        "velocity": 0.71,
        "hand": "right"
      },
      {
        "midi": 28,
        "time": 168,
        "duration": 1.5,
        "velocity": 0.71,
        "hand": "left"
      },
      {
        "midi": 64,
        "time": 168,
        "duration": 1.5,
        "velocity": 0.71,
        "hand": "right"
      },
      {
        "midi": 71,
        "time": 168,
        "duration": 0.375,
        "velocity": 0.71,
        "hand": "right"
      },
      {
        "midi": 59,
        "time": 168.375,
        "duration": 0.375,
        "velocity": 0.71,
        "hand": "left"
      },
      {
        "midi": 71,
        "time": 168.375,
        "duration": 0.375,
        "velocity": 0.71,
        "hand": "right"
      },
      {
        "midi": 59,
        "time": 168.75,
        "duration": 0.375,
        "velocity": 0.71,
        "hand": "left"
      },
      {
        "midi": 71,
        "time": 168.75,
        "duration": 0.375,
        "velocity": 0.71,
        "hand": "right"
      },
      {
        "midi": 59,
        "time": 169.125,
        "duration": 0.375,
        "velocity": 0.71,
        "hand": "left"
      },
      {
        "midi": 71,
        "time": 169.125,
        "duration": 0.375,
        "velocity": 0.71,
        "hand": "right"
      },
      {
        "midi": 35,
        "time": 169.5,
        "duration": 1.125,
        "velocity": 0.71,
        "hand": "left"
      },
      {
        "midi": 63,
        "time": 169.5,
        "duration": 1.5,
        "velocity": 0.71,
        "hand": "right"
      },
      {
        "midi": 71,
        "time": 169.5,
        "duration": 0.375,
        "velocity": 0.71,
        "hand": "right"
      },
      {
        "midi": 59,
        "time": 169.875,
        "duration": 0.375,
        "velocity": 0.71,
        "hand": "left"
      },
      {
        "midi": 71,
        "time": 169.875,
        "duration": 0.375,
        "velocity": 0.71,
        "hand": "right"
      },
      {
        "midi": 59,
        "time": 170.25,
        "duration": 0.375,
        "velocity": 0.71,
        "hand": "left"
      },
      {
        "midi": 71,
        "time": 170.25,
        "duration": 0.375,
        "velocity": 0.71,
        "hand": "right"
      },
      {
        "midi": 34,
        "time": 170.625,
        "duration": 0.375,
        "velocity": 0.71,
        "hand": "left"
      },
      {
        "midi": 59,
        "time": 170.625,
        "duration": 0.375,
        "velocity": 0.71,
        "hand": "left"
      },
      {
        "midi": 71,
        "time": 170.625,
        "duration": 0.375,
        "velocity": 0.71,
        "hand": "right"
      },
      {
        "midi": 32,
        "time": 171,
        "duration": 1.5,
        "velocity": 0.71,
        "hand": "left"
      },
      {
        "midi": 63,
        "time": 171,
        "duration": 1.5,
        "velocity": 0.71,
        "hand": "right"
      },
      {
        "midi": 71,
        "time": 171,
        "duration": 0.375,
        "velocity": 0.71,
        "hand": "right"
      },
      {
        "midi": 59,
        "time": 171.375,
        "duration": 0.375,
        "velocity": 0.71,
        "hand": "left"
      },
      {
        "midi": 71,
        "time": 171.375,
        "duration": 0.375,
        "velocity": 0.71,
        "hand": "right"
      },
      {
        "midi": 59,
        "time": 171.75,
        "duration": 0.375,
        "velocity": 0.71,
        "hand": "left"
      },
      {
        "midi": 71,
        "time": 171.75,
        "duration": 0.375,
        "velocity": 0.71,
        "hand": "right"
      },
      {
        "midi": 59,
        "time": 172.125,
        "duration": 0.375,
        "velocity": 0.71,
        "hand": "left"
      },
      {
        "midi": 71,
        "time": 172.125,
        "duration": 0.375,
        "velocity": 0.71,
        "hand": "right"
      },
      {
        "midi": 39,
        "time": 172.5,
        "duration": 1.5,
        "velocity": 0.71,
        "hand": "left"
      },
      {
        "midi": 63,
        "time": 172.5,
        "duration": 1.5,
        "velocity": 0.71,
        "hand": "right"
      },
      {
        "midi": 71,
        "time": 172.5,
        "duration": 0.375,
        "velocity": 0.71,
        "hand": "right"
      },
      {
        "midi": 59,
        "time": 172.875,
        "duration": 0.375,
        "velocity": 0.71,
        "hand": "left"
      },
      {
        "midi": 71,
        "time": 172.875,
        "duration": 0.375,
        "velocity": 0.71,
        "hand": "right"
      },
      {
        "midi": 59,
        "time": 173.25,
        "duration": 0.375,
        "velocity": 0.71,
        "hand": "left"
      },
      {
        "midi": 71,
        "time": 173.25,
        "duration": 0.375,
        "velocity": 0.71,
        "hand": "right"
      },
      {
        "midi": 59,
        "time": 173.625,
        "duration": 0.375,
        "velocity": 0.71,
        "hand": "left"
      },
      {
        "midi": 71,
        "time": 173.625,
        "duration": 0.375,
        "velocity": 0.71,
        "hand": "right"
      },
      {
        "midi": 32,
        "time": 174,
        "duration": 1.5,
        "velocity": 0.71,
        "hand": "left"
      },
      {
        "midi": 63,
        "time": 174,
        "duration": 0.375,
        "velocity": 0.71,
        "hand": "right"
      },
      {
        "midi": 71,
        "time": 174,
        "duration": 0.375,
        "velocity": 0.71,
        "hand": "right"
      },
      {
        "midi": 68,
        "time": 174.375,
        "duration": 0.375,
        "velocity": 0.71,
        "hand": "right"
      },
      {
        "midi": 68,
        "time": 174.75,
        "duration": 0.375,
        "velocity": 0.71,
        "hand": "right"
      },
      {
        "midi": 68,
        "time": 175.125,
        "duration": 0.375,
        "velocity": 0.71,
        "hand": "right"
      },
      {
        "midi": 68,
        "time": 175.5,
        "duration": 0.375,
        "velocity": 0.71,
        "hand": "right"
      },
      {
        "midi": 68,
        "time": 175.875,
        "duration": 0.375,
        "velocity": 0.71,
        "hand": "right"
      },
      {
        "midi": 68,
        "time": 176.25,
        "duration": 0.375,
        "velocity": 0.71,
        "hand": "right"
      },
      {
        "midi": 68,
        "time": 176.625,
        "duration": 0.375,
        "velocity": 0.71,
        "hand": "right"
      },
      {
        "midi": 42,
        "time": 177,
        "duration": 1.5,
        "velocity": 0.71,
        "hand": "left"
      },
      {
        "midi": 60,
        "time": 177,
        "duration": 1.5,
        "velocity": 0.71,
        "hand": "right"
      },
      {
        "midi": 72,
        "time": 177,
        "duration": 1.5,
        "velocity": 0.71,
        "hand": "right"
      },
      {
        "midi": 68,
        "time": 177.375,
        "duration": 0.375,
        "velocity": 0.71,
        "hand": "right"
      },
      {
        "midi": 68,
        "time": 177.75,
        "duration": 0.375,
        "velocity": 0.71,
        "hand": "right"
      },
      {
        "midi": 68,
        "time": 178.125,
        "duration": 0.375,
        "velocity": 0.71,
        "hand": "right"
      },
      {
        "midi": 40,
        "time": 178.5,
        "duration": 0.75,
        "velocity": 0.71,
        "hand": "left"
      },
      {
        "midi": 61,
        "time": 178.5,
        "duration": 1.5,
        "velocity": 0.71,
        "hand": "right"
      },
      {
        "midi": 73,
        "time": 178.5,
        "duration": 1.5,
        "velocity": 0.71,
        "hand": "right"
      },
      {
        "midi": 68,
        "time": 178.875,
        "duration": 0.375,
        "velocity": 0.71,
        "hand": "right"
      },
      {
        "midi": 37,
        "time": 179.25,
        "duration": 0.75,
        "velocity": 0.71,
        "hand": "left"
      },
      {
        "midi": 49,
        "time": 179.25,
        "duration": 0.75,
        "velocity": 0.71,
        "hand": "left"
      },
      {
        "midi": 68,
        "time": 179.25,
        "duration": 0.375,
        "velocity": 0.71,
        "hand": "right"
      },
      {
        "midi": 68,
        "time": 179.625,
        "duration": 0.375,
        "velocity": 0.71,
        "hand": "right"
      },
      {
        "midi": 32,
        "time": 180,
        "duration": 2.25,
        "velocity": 0.71,
        "hand": "left"
      },
      {
        "midi": 68,
        "time": 180,
        "duration": 0.375,
        "velocity": 0.71,
        "hand": "right"
      },
      {
        "midi": 75,
        "time": 180,
        "duration": 2.25,
        "velocity": 0.71,
        "hand": "right"
      },
      {
        "midi": 68,
        "time": 180.375,
        "duration": 0.375,
        "velocity": 0.71,
        "hand": "right"
      },
      {
        "midi": 68,
        "time": 180.75,
        "duration": 0.375,
        "velocity": 0.71,
        "hand": "right"
      },
      {
        "midi": 68,
        "time": 181.125,
        "duration": 0.375,
        "velocity": 0.71,
        "hand": "right"
      },
      {
        "midi": 68,
        "time": 181.5,
        "duration": 0.375,
        "velocity": 0.71,
        "hand": "right"
      },
      {
        "midi": 68,
        "time": 181.875,
        "duration": 0.375,
        "velocity": 0.71,
        "hand": "right"
      },
      {
        "midi": 44,
        "time": 182.25,
        "duration": 0.75,
        "velocity": 0.71,
        "hand": "left"
      },
      {
        "midi": 68,
        "time": 182.25,
        "duration": 0.375,
        "velocity": 0.71,
        "hand": "right"
      },
      {
        "midi": 75,
        "time": 182.25,
        "duration": 0.75,
        "velocity": 0.71,
        "hand": "right"
      },
      {
        "midi": 68,
        "time": 182.625,
        "duration": 0.375,
        "velocity": 0.71,
        "hand": "right"
      },
      {
        "midi": 49,
        "time": 183,
        "duration": 1.5,
        "velocity": 0.71,
        "hand": "left"
      },
      {
        "midi": 68,
        "time": 183,
        "duration": 0.375,
        "velocity": 0.71,
        "hand": "right"
      },
      {
        "midi": 76,
        "time": 183,
        "duration": 0.75,
        "velocity": 0.71,
        "hand": "right"
      },
      {
        "midi": 68,
        "time": 183.375,
        "duration": 0.375,
        "velocity": 0.71,
        "hand": "right"
      },
      {
        "midi": 64,
        "time": 183.75,
        "duration": 0.75,
        "velocity": 0.71,
        "hand": "right"
      },
      {
        "midi": 73,
        "time": 183.75,
        "duration": 0.75,
        "velocity": 0.71,
        "hand": "right"
      },
      {
        "midi": 76,
        "time": 183.75,
        "duration": 0.75,
        "velocity": 0.71,
        "hand": "right"
      },
      {
        "midi": 68,
        "time": 184.125,
        "duration": 0.375,
        "velocity": 0.71,
        "hand": "right"
      },
      {
        "midi": 44,
        "time": 184.5,
        "duration": 1.5,
        "velocity": 0.71,
        "hand": "left"
      },
      {
        "midi": 68,
        "time": 184.5,
        "duration": 0.375,
        "velocity": 0.71,
        "hand": "right"
      },
      {
        "midi": 75,
        "time": 184.5,
        "duration": 0.75,
        "velocity": 0.71,
        "hand": "right"
      },
      {
        "midi": 68,
        "time": 184.875,
        "duration": 0.375,
        "velocity": 0.71,
        "hand": "right"
      },
      {
        "midi": 63,
        "time": 185.25,
        "duration": 0.75,
        "velocity": 0.71,
        "hand": "right"
      },
      {
        "midi": 72,
        "time": 185.25,
        "duration": 0.75,
        "velocity": 0.71,
        "hand": "right"
      },
      {
        "midi": 75,
        "time": 185.25,
        "duration": 0.75,
        "velocity": 0.71,
        "hand": "right"
      },
      {
        "midi": 68,
        "time": 185.625,
        "duration": 0.375,
        "velocity": 0.71,
        "hand": "right"
      },
      {
        "midi": 45,
        "time": 186,
        "duration": 1.5,
        "velocity": 0.71,
        "hand": "left"
      },
      {
        "midi": 61,
        "time": 186,
        "duration": 3,
        "velocity": 0.71,
        "hand": "right"
      },
      {
        "midi": 73,
        "time": 186,
        "duration": 3,
        "velocity": 0.71,
        "hand": "right"
      },
      {
        "midi": 68,
        "time": 186.375,
        "duration": 0.375,
        "velocity": 0.71,
        "hand": "right"
      },
      {
        "midi": 66,
        "time": 186.75,
        "duration": 0.375,
        "velocity": 0.71,
        "hand": "right"
      },
      {
        "midi": 66,
        "time": 187.125,
        "duration": 0.375,
        "velocity": 0.71,
        "hand": "right"
      },
      {
        "midi": 44,
        "time": 187.5,
        "duration": 0.75,
        "velocity": 0.71,
        "hand": "left"
      },
      {
        "midi": 56,
        "time": 187.5,
        "duration": 0.75,
        "velocity": 0.71,
        "hand": "left"
      },
      {
        "midi": 68,
        "time": 187.5,
        "duration": 0.375,
        "velocity": 0.71,
        "hand": "right"
      },
      {
        "midi": 68,
        "time": 187.875,
        "duration": 0.375,
        "velocity": 0.71,
        "hand": "right"
      },
      {
        "midi": 42,
        "time": 188.25,
        "duration": 0.75,
        "velocity": 0.71,
        "hand": "left"
      },
      {
        "midi": 54,
        "time": 188.25,
        "duration": 0.75,
        "velocity": 0.71,
        "hand": "left"
      },
      {
        "midi": 69,
        "time": 188.25,
        "duration": 0.375,
        "velocity": 0.71,
        "hand": "right"
      },
      {
        "midi": 69,
        "time": 188.625,
        "duration": 0.375,
        "velocity": 0.71,
        "hand": "right"
      },
      {
        "midi": 44,
        "time": 189,
        "duration": 1.5,
        "velocity": 0.71,
        "hand": "left"
      },
      {
        "midi": 60,
        "time": 189,
        "duration": 1.5,
        "velocity": 0.71,
        "hand": "right"
      },
      {
        "midi": 68,
        "time": 189,
        "duration": 1.5,
        "velocity": 0.71,
        "hand": "right"
      },
      {
        "midi": 56,
        "time": 189.375,
        "duration": 0.375,
        "velocity": 0.71,
        "hand": "left"
      },
      {
        "midi": 56,
        "time": 189.75,
        "duration": 0.375,
        "velocity": 0.71,
        "hand": "left"
      },
      {
        "midi": 56,
        "time": 190.125,
        "duration": 0.375,
        "velocity": 0.71,
        "hand": "left"
      },
      {
        "midi": 37,
        "time": 190.5,
        "duration": 1.5,
        "velocity": 0.71,
        "hand": "left"
      },
      {
        "midi": 61,
        "time": 190.5,
        "duration": 0.75,
        "velocity": 0.71,
        "hand": "right"
      },
      {
        "midi": 68,
        "time": 190.5,
        "duration": 0.75,
        "velocity": 0.71,
        "hand": "right"
      },
      {
        "midi": 56,
        "time": 190.875,
        "duration": 0.375,
        "velocity": 0.71,
        "hand": "left"
      },
      {
        "midi": 56,
        "time": 191.25,
        "duration": 0.375,
        "velocity": 0.71,
        "hand": "left"
      },
      {
        "midi": 61,
        "time": 191.25,
        "duration": 0.75,
        "velocity": 0.71,
        "hand": "right"
      },
      {
        "midi": 68,
        "time": 191.25,
        "duration": 0.75,
        "velocity": 0.71,
        "hand": "right"
      },
      {
        "midi": 56,
        "time": 191.625,
        "duration": 0.375,
        "velocity": 0.71,
        "hand": "left"
      },
      {
        "midi": 32,
        "time": 192,
        "duration": 0.75,
        "velocity": 0.71,
        "hand": "left"
      },
      {
        "midi": 60,
        "time": 192,
        "duration": 0.75,
        "velocity": 0.71,
        "hand": "right"
      },
      {
        "midi": 68,
        "time": 192,
        "duration": 0.75,
        "velocity": 0.71,
        "hand": "right"
      },
      {
        "midi": 56,
        "time": 192.375,
        "duration": 0.375,
        "velocity": 0.71,
        "hand": "left"
      },
      {
        "midi": 37,
        "time": 192.75,
        "duration": 2.25,
        "velocity": 0.71,
        "hand": "left"
      },
      {
        "midi": 61,
        "time": 192.75,
        "duration": 0.75,
        "velocity": 0.71,
        "hand": "right"
      },
      {
        "midi": 68,
        "time": 192.75,
        "duration": 0.75,
        "velocity": 0.71,
        "hand": "right"
      },
      {
        "midi": 56,
        "time": 193.125,
        "duration": 0.375,
        "velocity": 0.71,
        "hand": "left"
      },
      {
        "midi": 56,
        "time": 193.5,
        "duration": 0.375,
        "velocity": 0.71,
        "hand": "left"
      },
      {
        "midi": 61,
        "time": 193.5,
        "duration": 0.75,
        "velocity": 0.71,
        "hand": "right"
      },
      {
        "midi": 68,
        "time": 193.5,
        "duration": 0.75,
        "velocity": 0.71,
        "hand": "right"
      },
      {
        "midi": 56,
        "time": 193.875,
        "duration": 0.375,
        "velocity": 0.71,
        "hand": "left"
      },
      {
        "midi": 56,
        "time": 194.25,
        "duration": 0.375,
        "velocity": 0.71,
        "hand": "left"
      },
      {
        "midi": 64,
        "time": 194.25,
        "duration": 0.75,
        "velocity": 0.71,
        "hand": "right"
      },
      {
        "midi": 68,
        "time": 194.25,
        "duration": 0.75,
        "velocity": 0.71,
        "hand": "right"
      },
      {
        "midi": 56,
        "time": 194.625,
        "duration": 0.375,
        "velocity": 0.71,
        "hand": "left"
      },
      {
        "midi": 37,
        "time": 195,
        "duration": 0.75,
        "velocity": 0.71,
        "hand": "left"
      },
      {
        "midi": 61,
        "time": 195,
        "duration": 0.75,
        "velocity": 0.71,
        "hand": "right"
      },
      {
        "midi": 68,
        "time": 195,
        "duration": 0.75,
        "velocity": 0.71,
        "hand": "right"
      },
      {
        "midi": 56,
        "time": 195.375,
        "duration": 0.375,
        "velocity": 0.71,
        "hand": "left"
      },
      {
        "midi": 32,
        "time": 195.75,
        "duration": 1.5,
        "velocity": 0.71,
        "hand": "left"
      },
      {
        "midi": 60,
        "time": 195.75,
        "duration": 0.75,
        "velocity": 0.71,
        "hand": "right"
      },
      {
        "midi": 68,
        "time": 195.75,
        "duration": 0.75,
        "velocity": 0.71,
        "hand": "right"
      },
      {
        "midi": 56,
        "time": 196.125,
        "duration": 0.375,
        "velocity": 0.71,
        "hand": "left"
      },
      {
        "midi": 56,
        "time": 196.5,
        "duration": 0.375,
        "velocity": 0.71,
        "hand": "left"
      },
      {
        "midi": 66,
        "time": 196.5,
        "duration": 0.75,
        "velocity": 0.71,
        "hand": "right"
      },
      {
        "midi": 68,
        "time": 196.5,
        "duration": 0.75,
        "velocity": 0.71,
        "hand": "right"
      },
      {
        "midi": 56,
        "time": 196.875,
        "duration": 0.375,
        "velocity": 0.71,
        "hand": "left"
      },
      {
        "midi": 37,
        "time": 197.25,
        "duration": 0.75,
        "velocity": 0.71,
        "hand": "left"
      },
      {
        "midi": 61,
        "time": 197.25,
        "duration": 0.75,
        "velocity": 0.71,
        "hand": "right"
      },
      {
        "midi": 68,
        "time": 197.25,
        "duration": 0.75,
        "velocity": 0.71,
        "hand": "right"
      },
      {
        "midi": 56,
        "time": 197.625,
        "duration": 0.375,
        "velocity": 0.71,
        "hand": "left"
      },
      {
        "midi": 32,
        "time": 198,
        "duration": 3,
        "velocity": 0.71,
        "hand": "left"
      },
      {
        "midi": 60,
        "time": 198,
        "duration": 3,
        "velocity": 0.71,
        "hand": "right"
      },
      {
        "midi": 68,
        "time": 198,
        "duration": 3,
        "velocity": 0.71,
        "hand": "right"
      },
      {
        "midi": 56,
        "time": 198.375,
        "duration": 0.375,
        "velocity": 0.71,
        "hand": "left"
      },
      {
        "midi": 56,
        "time": 198.75,
        "duration": 0.375,
        "velocity": 0.71,
        "hand": "left"
      },
      {
        "midi": 56,
        "time": 199.125,
        "duration": 0.375,
        "velocity": 0.71,
        "hand": "left"
      },
      {
        "midi": 56,
        "time": 199.5,
        "duration": 0.375,
        "velocity": 0.71,
        "hand": "left"
      },
      {
        "midi": 56,
        "time": 199.875,
        "duration": 0.375,
        "velocity": 0.71,
        "hand": "left"
      },
      {
        "midi": 56,
        "time": 200.25,
        "duration": 0.375,
        "velocity": 0.71,
        "hand": "left"
      },
      {
        "midi": 56,
        "time": 200.625,
        "duration": 0.375,
        "velocity": 0.71,
        "hand": "left"
      },
      {
        "midi": 42,
        "time": 201,
        "duration": 1.5,
        "velocity": 0.71,
        "hand": "left"
      },
      {
        "midi": 60,
        "time": 201,
        "duration": 1.5,
        "velocity": 0.71,
        "hand": "right"
      },
      {
        "midi": 72,
        "time": 201,
        "duration": 1.5,
        "velocity": 0.71,
        "hand": "right"
      },
      {
        "midi": 44,
        "time": 201.375,
        "duration": 0.375,
        "velocity": 0.71,
        "hand": "left"
      },
      {
        "midi": 68,
        "time": 201.375,
        "duration": 0.375,
        "velocity": 0.71,
        "hand": "right"
      },
      {
        "midi": 44,
        "time": 201.75,
        "duration": 0.375,
        "velocity": 0.71,
        "hand": "left"
      },
      {
        "midi": 68,
        "time": 201.75,
        "duration": 0.375,
        "velocity": 0.71,
        "hand": "right"
      },
      {
        "midi": 44,
        "time": 202.125,
        "duration": 0.375,
        "velocity": 0.71,
        "hand": "left"
      },
      {
        "midi": 68,
        "time": 202.125,
        "duration": 0.375,
        "velocity": 0.71,
        "hand": "right"
      },
      {
        "midi": 40,
        "time": 202.5,
        "duration": 0.75,
        "velocity": 0.71,
        "hand": "left"
      },
      {
        "midi": 61,
        "time": 202.5,
        "duration": 1.5,
        "velocity": 0.71,
        "hand": "right"
      },
      {
        "midi": 73,
        "time": 202.5,
        "duration": 1.5,
        "velocity": 0.71,
        "hand": "right"
      },
      {
        "midi": 68,
        "time": 202.875,
        "duration": 0.375,
        "velocity": 0.71,
        "hand": "right"
      },
      {
        "midi": 37,
        "time": 203.25,
        "duration": 0.75,
        "velocity": 0.71,
        "hand": "left"
      },
      {
        "midi": 49,
        "time": 203.25,
        "duration": 0.75,
        "velocity": 0.71,
        "hand": "left"
      },
      {
        "midi": 68,
        "time": 203.25,
        "duration": 0.375,
        "velocity": 0.71,
        "hand": "right"
      },
      {
        "midi": 68,
        "time": 203.625,
        "duration": 0.375,
        "velocity": 0.71,
        "hand": "right"
      },
      {
        "midi": 32,
        "time": 204,
        "duration": 3,
        "velocity": 0.71,
        "hand": "left"
      },
      {
        "midi": 68,
        "time": 204,
        "duration": 0.375,
        "velocity": 0.71,
        "hand": "right"
      },
      {
        "midi": 75,
        "time": 204,
        "duration": 2.25,
        "velocity": 0.71,
        "hand": "right"
      },
      {
        "midi": 68,
        "time": 204.375,
        "duration": 0.375,
        "velocity": 0.71,
        "hand": "right"
      },
      {
        "midi": 68,
        "time": 204.75,
        "duration": 0.375,
        "velocity": 0.71,
        "hand": "right"
      },
      {
        "midi": 68,
        "time": 205.125,
        "duration": 0.375,
        "velocity": 0.71,
        "hand": "right"
      },
      {
        "midi": 68,
        "time": 205.5,
        "duration": 0.375,
        "velocity": 0.71,
        "hand": "right"
      },
      {
        "midi": 68,
        "time": 205.875,
        "duration": 0.375,
        "velocity": 0.71,
        "hand": "right"
      },
      {
        "midi": 63,
        "time": 206.25,
        "duration": 0.75,
        "velocity": 0.71,
        "hand": "right"
      },
      {
        "midi": 72,
        "time": 206.25,
        "duration": 0.75,
        "velocity": 0.71,
        "hand": "right"
      },
      {
        "midi": 75,
        "time": 206.25,
        "duration": 0.75,
        "velocity": 0.71,
        "hand": "right"
      },
      {
        "midi": 68,
        "time": 206.625,
        "duration": 0.375,
        "velocity": 0.71,
        "hand": "right"
      },
      {
        "midi": 37,
        "time": 207,
        "duration": 1.5,
        "velocity": 0.71,
        "hand": "left"
      },
      {
        "midi": 68,
        "time": 207,
        "duration": 0.375,
        "velocity": 0.71,
        "hand": "right"
      },
      {
        "midi": 76,
        "time": 207,
        "duration": 0.75,
        "velocity": 0.71,
        "hand": "right"
      },
      {
        "midi": 68,
        "time": 207.375,
        "duration": 0.375,
        "velocity": 0.71,
        "hand": "right"
      },
      {
        "midi": 64,
        "time": 207.75,
        "duration": 0.75,
        "velocity": 0.71,
        "hand": "right"
      },
      {
        "midi": 73,
        "time": 207.75,
        "duration": 0.75,
        "velocity": 0.71,
        "hand": "right"
      },
      {
        "midi": 76,
        "time": 207.75,
        "duration": 0.75,
        "velocity": 0.71,
        "hand": "right"
      },
      {
        "midi": 68,
        "time": 208.125,
        "duration": 0.375,
        "velocity": 0.71,
        "hand": "right"
      },
      {
        "midi": 44,
        "time": 208.5,
        "duration": 1.5,
        "velocity": 0.71,
        "hand": "left"
      },
      {
        "midi": 68,
        "time": 208.5,
        "duration": 0.375,
        "velocity": 0.71,
        "hand": "right"
      },
      {
        "midi": 75,
        "time": 208.5,
        "duration": 0.75,
        "velocity": 0.71,
        "hand": "right"
      },
      {
        "midi": 68,
        "time": 208.875,
        "duration": 0.375,
        "velocity": 0.71,
        "hand": "right"
      },
      {
        "midi": 63,
        "time": 209.25,
        "duration": 0.75,
        "velocity": 0.71,
        "hand": "right"
      },
      {
        "midi": 72,
        "time": 209.25,
        "duration": 0.75,
        "velocity": 0.71,
        "hand": "right"
      },
      {
        "midi": 75,
        "time": 209.25,
        "duration": 0.75,
        "velocity": 0.71,
        "hand": "right"
      },
      {
        "midi": 68,
        "time": 209.625,
        "duration": 0.375,
        "velocity": 0.71,
        "hand": "right"
      },
      {
        "midi": 41,
        "time": 210,
        "duration": 1.5,
        "velocity": 0.71,
        "hand": "left"
      },
      {
        "midi": 68,
        "time": 210,
        "duration": 1.5,
        "velocity": 0.71,
        "hand": "right"
      },
      {
        "midi": 73,
        "time": 210,
        "duration": 1.5,
        "velocity": 0.71,
        "hand": "right"
      },
      {
        "midi": 61,
        "time": 210.375,
        "duration": 0.375,
        "velocity": 0.71,
        "hand": "right"
      },
      {
        "midi": 61,
        "time": 210.75,
        "duration": 0.375,
        "velocity": 0.71,
        "hand": "right"
      },
      {
        "midi": 61,
        "time": 211.125,
        "duration": 0.375,
        "velocity": 0.71,
        "hand": "right"
      },
      {
        "midi": 42,
        "time": 211.5,
        "duration": 1.5,
        "velocity": 0.71,
        "hand": "left"
      },
      {
        "midi": 68,
        "time": 211.5,
        "duration": 0.75,
        "velocity": 0.71,
        "hand": "right"
      },
      {
        "midi": 73,
        "time": 211.5,
        "duration": 0.75,
        "velocity": 0.71,
        "hand": "right"
      },
      {
        "midi": 61,
        "time": 211.875,
        "duration": 0.375,
        "velocity": 0.71,
        "hand": "right"
      },
      {
        "midi": 61,
        "time": 212.25,
        "duration": 0.375,
        "velocity": 0.71,
        "hand": "right"
      },
      {
        "midi": 69,
        "time": 212.25,
        "duration": 0.75,
        "velocity": 0.71,
        "hand": "right"
      },
      {
        "midi": 73,
        "time": 212.25,
        "duration": 0.75,
        "velocity": 0.71,
        "hand": "right"
      },
      {
        "midi": 61,
        "time": 212.625,
        "duration": 0.375,
        "velocity": 0.71,
        "hand": "right"
      },
      {
        "midi": 36,
        "time": 213,
        "duration": 1.5,
        "velocity": 0.71,
        "hand": "left"
      },
      {
        "midi": 63,
        "time": 213,
        "duration": 1.5,
        "velocity": 0.71,
        "hand": "right"
      },
      {
        "midi": 68,
        "time": 213,
        "duration": 1.5,
        "velocity": 0.71,
        "hand": "right"
      },
      {
        "midi": 56,
        "time": 213.375,
        "duration": 0.375,
        "velocity": 0.71,
        "hand": "left"
      },
      {
        "midi": 56,
        "time": 213.75,
        "duration": 0.375,
        "velocity": 0.71,
        "hand": "left"
      },
      {
        "midi": 56,
        "time": 214.125,
        "duration": 0.375,
        "velocity": 0.71,
        "hand": "left"
      },
      {
        "midi": 37,
        "time": 214.5,
        "duration": 1.5,
        "velocity": 0.71,
        "hand": "left"
      },
      {
        "midi": 61,
        "time": 214.5,
        "duration": 0.75,
        "velocity": 0.71,
        "hand": "right"
      },
      {
        "midi": 68,
        "time": 214.5,
        "duration": 0.75,
        "velocity": 0.71,
        "hand": "right"
      },
      {
        "midi": 56,
        "time": 214.875,
        "duration": 0.375,
        "velocity": 0.71,
        "hand": "left"
      },
      {
        "midi": 56,
        "time": 215.25,
        "duration": 0.375,
        "velocity": 0.71,
        "hand": "left"
      },
      {
        "midi": 64,
        "time": 215.25,
        "duration": 0.75,
        "velocity": 0.71,
        "hand": "right"
      },
      {
        "midi": 70,
        "time": 215.25,
        "duration": 0.75,
        "velocity": 0.71,
        "hand": "right"
      },
      {
        "midi": 56,
        "time": 215.625,
        "duration": 0.375,
        "velocity": 0.71,
        "hand": "left"
      },
      {
        "midi": 32,
        "time": 216,
        "duration": 2.25,
        "velocity": 0.71,
        "hand": "left"
      },
      {
        "midi": 61,
        "time": 216,
        "duration": 1.5,
        "velocity": 0.71,
        "hand": "right"
      },
      {
        "midi": 70,
        "time": 216,
        "duration": 1.5,
        "velocity": 0.71,
        "hand": "right"
      },
      {
        "midi": 56,
        "time": 216.375,
        "duration": 0.375,
        "velocity": 0.71,
        "hand": "left"
      },
      {
        "midi": 56,
        "time": 216.75,
        "duration": 0.375,
        "velocity": 0.71,
        "hand": "left"
      },
      {
        "midi": 56,
        "time": 217.125,
        "duration": 0.375,
        "velocity": 0.71,
        "hand": "left"
      },
      {
        "midi": 56,
        "time": 217.5,
        "duration": 0.375,
        "velocity": 0.71,
        "hand": "left"
      },
      {
        "midi": 63,
        "time": 217.5,
        "duration": 0.75,
        "velocity": 0.71,
        "hand": "right"
      },
      {
        "midi": 68,
        "time": 217.5,
        "duration": 0.75,
        "velocity": 0.71,
        "hand": "right"
      },
      {
        "midi": 56,
        "time": 217.875,
        "duration": 0.375,
        "velocity": 0.71,
        "hand": "left"
      },
      {
        "midi": 37,
        "time": 218.25,
        "duration": 0.75,
        "velocity": 0.71,
        "hand": "left"
      },
      {
        "midi": 61,
        "time": 218.25,
        "duration": 0.75,
        "velocity": 0.71,
        "hand": "right"
      },
      {
        "midi": 70,
        "time": 218.25,
        "duration": 0.75,
        "velocity": 0.71,
        "hand": "right"
      },
      {
        "midi": 56,
        "time": 218.625,
        "duration": 0.375,
        "velocity": 0.71,
        "hand": "left"
      },
      {
        "midi": 32,
        "time": 219,
        "duration": 2.25,
        "velocity": 0.71,
        "hand": "left"
      },
      {
        "midi": 61,
        "time": 219,
        "duration": 1.5,
        "velocity": 0.71,
        "hand": "right"
      },
      {
        "midi": 70,
        "time": 219,
        "duration": 1.5,
        "velocity": 0.71,
        "hand": "right"
      },
      {
        "midi": 56,
        "time": 219.375,
        "duration": 0.375,
        "velocity": 0.71,
        "hand": "left"
      },
      {
        "midi": 56,
        "time": 219.75,
        "duration": 0.375,
        "velocity": 0.71,
        "hand": "left"
      },
      {
        "midi": 56,
        "time": 220.125,
        "duration": 0.375,
        "velocity": 0.71,
        "hand": "left"
      },
      {
        "midi": 56,
        "time": 220.5,
        "duration": 0.375,
        "velocity": 0.71,
        "hand": "left"
      },
      {
        "midi": 63,
        "time": 220.5,
        "duration": 0.75,
        "velocity": 0.71,
        "hand": "right"
      },
      {
        "midi": 68,
        "time": 220.5,
        "duration": 0.75,
        "velocity": 0.71,
        "hand": "right"
      },
      {
        "midi": 56,
        "time": 220.875,
        "duration": 0.375,
        "velocity": 0.71,
        "hand": "left"
      },
      {
        "midi": 37,
        "time": 221.25,
        "duration": 0.75,
        "velocity": 0.71,
        "hand": "left"
      },
      {
        "midi": 61,
        "time": 221.25,
        "duration": 0.75,
        "velocity": 0.71,
        "hand": "right"
      },
      {
        "midi": 70,
        "time": 221.25,
        "duration": 0.75,
        "velocity": 0.71,
        "hand": "right"
      },
      {
        "midi": 56,
        "time": 221.625,
        "duration": 0.375,
        "velocity": 0.71,
        "hand": "left"
      },
      {
        "midi": 32,
        "time": 222,
        "duration": 1.5,
        "velocity": 0.71,
        "hand": "left"
      },
      {
        "midi": 61,
        "time": 222,
        "duration": 0.75,
        "velocity": 0.71,
        "hand": "right"
      },
      {
        "midi": 70,
        "time": 222,
        "duration": 0.75,
        "velocity": 0.71,
        "hand": "right"
      },
      {
        "midi": 56,
        "time": 222.375,
        "duration": 0.375,
        "velocity": 0.71,
        "hand": "left"
      },
      {
        "midi": 44,
        "time": 222.75,
        "duration": 0.75,
        "velocity": 0.71,
        "hand": "left"
      },
      {
        "midi": 60,
        "time": 222.75,
        "duration": 0.75,
        "velocity": 0.71,
        "hand": "right"
      },
      {
        "midi": 68,
        "time": 222.75,
        "duration": 0.75,
        "velocity": 0.71,
        "hand": "right"
      },
      {
        "midi": 56,
        "time": 223.125,
        "duration": 0.375,
        "velocity": 0.71,
        "hand": "left"
      },
      {
        "midi": 56,
        "time": 223.5,
        "duration": 0.375,
        "velocity": 0.71,
        "hand": "left"
      },
      {
        "midi": 53,
        "time": 223.875,
        "duration": 0.375,
        "velocity": 0.71,
        "hand": "left"
      },
      {
        "midi": 56,
        "time": 223.875,
        "duration": 0.375,
        "velocity": 0.71,
        "hand": "left"
      },
      {
        "midi": 54,
        "time": 224.25,
        "duration": 0.375,
        "velocity": 0.71,
        "hand": "left"
      },
      {
        "midi": 56,
        "time": 224.25,
        "duration": 0.375,
        "velocity": 0.71,
        "hand": "left"
      },
      {
        "midi": 51,
        "time": 224.625,
        "duration": 0.375,
        "velocity": 0.71,
        "hand": "left"
      },
      {
        "midi": 56,
        "time": 224.625,
        "duration": 0.375,
        "velocity": 0.71,
        "hand": "left"
      },
      {
        "midi": 49,
        "time": 225,
        "duration": 0.375,
        "velocity": 0.71,
        "hand": "left"
      },
      {
        "midi": 77,
        "time": 225,
        "duration": 0.563,
        "velocity": 0.71,
        "hand": "right"
      },
      {
        "midi": 56,
        "time": 225.375,
        "duration": 0.375,
        "velocity": 0.71,
        "hand": "left"
      },
      {
        "midi": 73,
        "time": 225.563,
        "duration": 0.188,
        "velocity": 0.71,
        "hand": "right"
      },
      {
        "midi": 61,
        "time": 225.75,
        "duration": 1.5,
        "velocity": 0.71,
        "hand": "right"
      },
      {
        "midi": 65,
        "time": 225.75,
        "duration": 1.5,
        "velocity": 0.71,
        "hand": "right"
      },
      {
        "midi": 68,
        "time": 225.75,
        "duration": 1.5,
        "velocity": 0.71,
        "hand": "right"
      },
      {
        "midi": 56,
        "time": 226.125,
        "duration": 0.375,
        "velocity": 0.71,
        "hand": "left"
      },
      {
        "midi": 56,
        "time": 226.5,
        "duration": 0.375,
        "velocity": 0.71,
        "hand": "left"
      },
      {
        "midi": 56,
        "time": 226.875,
        "duration": 0.375,
        "velocity": 0.71,
        "hand": "left"
      },
      {
        "midi": 56,
        "time": 227.25,
        "duration": 0.375,
        "velocity": 0.71,
        "hand": "left"
      },
      {
        "midi": 70,
        "time": 227.25,
        "duration": 0.75,
        "velocity": 0.71,
        "hand": "right"
      },
      {
        "midi": 56,
        "time": 227.625,
        "duration": 0.375,
        "velocity": 0.71,
        "hand": "left"
      },
      {
        "midi": 63,
        "time": 228,
        "duration": 2.25,
        "velocity": 0.71,
        "hand": "right"
      },
      {
        "midi": 66,
        "time": 228,
        "duration": 2.25,
        "velocity": 0.71,
        "hand": "right"
      },
      {
        "midi": 72,
        "time": 228,
        "duration": 2.25,
        "velocity": 0.71,
        "hand": "right"
      },
      {
        "midi": 56,
        "time": 228.375,
        "duration": 0.375,
        "velocity": 0.71,
        "hand": "left"
      },
      {
        "midi": 56,
        "time": 228.75,
        "duration": 0.375,
        "velocity": 0.71,
        "hand": "left"
      },
      {
        "midi": 56,
        "time": 229.125,
        "duration": 0.375,
        "velocity": 0.71,
        "hand": "left"
      },
      {
        "midi": 58,
        "time": 229.5,
        "duration": 0.375,
        "velocity": 0.71,
        "hand": "left"
      },
      {
        "midi": 56,
        "time": 229.875,
        "duration": 0.375,
        "velocity": 0.71,
        "hand": "left"
      },
      {
        "midi": 61,
        "time": 230.25,
        "duration": 0.375,
        "velocity": 0.71,
        "hand": "right"
      },
      {
        "midi": 65,
        "time": 230.25,
        "duration": 0.375,
        "velocity": 0.71,
        "hand": "right"
      },
      {
        "midi": 73,
        "time": 230.25,
        "duration": 0.75,
        "velocity": 0.71,
        "hand": "right"
      },
      {
        "midi": 56,
        "time": 230.625,
        "duration": 0.375,
        "velocity": 0.71,
        "hand": "left"
      },
      {
        "midi": 60,
        "time": 231,
        "duration": 2.25,
        "velocity": 0.71,
        "hand": "right"
      },
      {
        "midi": 66,
        "time": 231,
        "duration": 0.375,
        "velocity": 0.71,
        "hand": "right"
      },
      {
        "midi": 75,
        "time": 231,
        "duration": 0.563,
        "velocity": 0.71,
        "hand": "right"
      },
      {
        "midi": 56,
        "time": 231.375,
        "duration": 0.75,
        "velocity": 0.71,
        "hand": "left"
      },
      {
        "midi": 68,
        "time": 231.563,
        "duration": 0.188,
        "velocity": 0.71,
        "hand": "right"
      },
      {
        "midi": 77,
        "time": 231.563,
        "duration": 0.188,
        "velocity": 0.71,
        "hand": "right"
      },
      {
        "midi": 70,
        "time": 231.75,
        "duration": 1.5,
        "velocity": 0.71,
        "hand": "right"
      },
      {
        "midi": 78,
        "time": 231.75,
        "duration": 1.5,
        "velocity": 0.71,
        "hand": "right"
      },
      {
        "midi": 56,
        "time": 232.125,
        "duration": 0.375,
        "velocity": 0.71,
        "hand": "left"
      },
      {
        "midi": 56,
        "time": 232.5,
        "duration": 0.375,
        "velocity": 0.71,
        "hand": "left"
      },
      {
        "midi": 56,
        "time": 232.875,
        "duration": 0.75,
        "velocity": 0.71,
        "hand": "left"
      },
      {
        "midi": 61,
        "time": 233.25,
        "duration": 0.375,
        "velocity": 0.71,
        "hand": "right"
      },
      {
        "midi": 68,
        "time": 233.25,
        "duration": 0.375,
        "velocity": 0.71,
        "hand": "right"
      },
      {
        "midi": 77,
        "time": 233.25,
        "duration": 0.75,
        "velocity": 0.71,
        "hand": "right"
      },
      {
        "midi": 56,
        "time": 233.625,
        "duration": 0.375,
        "velocity": 0.71,
        "hand": "left"
      },
      {
        "midi": 60,
        "time": 234,
        "duration": 1.5,
        "velocity": 0.71,
        "hand": "right"
      },
      {
        "midi": 68,
        "time": 234,
        "duration": 0.375,
        "velocity": 0.71,
        "hand": "right"
      },
      {
        "midi": 77,
        "time": 234,
        "duration": 1.125,
        "velocity": 0.71,
        "hand": "right"
      },
      {
        "midi": 56,
        "time": 234.375,
        "duration": 0.375,
        "velocity": 0.71,
        "hand": "left"
      },
      {
        "midi": 66,
        "time": 234.75,
        "duration": 0.375,
        "velocity": 0.71,
        "hand": "right"
      },
      {
        "midi": 56,
        "time": 235.125,
        "duration": 0.375,
        "velocity": 0.71,
        "hand": "left"
      },
      {
        "midi": 75,
        "time": 235.125,
        "duration": 0.375,
        "velocity": 0.71,
        "hand": "right"
      },
      {
        "midi": 61,
        "time": 235.5,
        "duration": 0.375,
        "velocity": 0.71,
        "hand": "right"
      },
      {
        "midi": 65,
        "time": 235.5,
        "duration": 0.375,
        "velocity": 0.71,
        "hand": "right"
      },
      {
        "midi": 73,
        "time": 235.5,
        "duration": 0.563,
        "velocity": 0.71,
        "hand": "right"
      },
      {
        "midi": 56,
        "time": 235.875,
        "duration": 0.375,
        "velocity": 0.71,
        "hand": "left"
      },
      {
        "midi": 74,
        "time": 236.063,
        "duration": 0.188,
        "velocity": 0.71,
        "hand": "right"
      },
      {
        "midi": 60,
        "time": 236.25,
        "duration": 0.375,
        "velocity": 0.71,
        "hand": "right"
      },
      {
        "midi": 75,
        "time": 236.25,
        "duration": 0.188,
        "velocity": 0.71,
        "hand": "right"
      },
      {
        "midi": 77,
        "time": 236.25,
        "duration": 0.188,
        "velocity": 0.71,
        "hand": "right"
      },
      {
        "midi": 74,
        "time": 236.438,
        "duration": 0.188,
        "velocity": 0.71,
        "hand": "right"
      },
      {
        "midi": 75,
        "time": 236.438,
        "duration": 0.188,
        "velocity": 0.71,
        "hand": "right"
      },
      {
        "midi": 56,
        "time": 236.625,
        "duration": 0.375,
        "velocity": 0.71,
        "hand": "left"
      },
      {
        "midi": 76,
        "time": 236.625,
        "duration": 0.188,
        "velocity": 0.71,
        "hand": "right"
      },
      {
        "midi": 77,
        "time": 236.625,
        "duration": 0.188,
        "velocity": 0.71,
        "hand": "right"
      },
      {
        "midi": 79,
        "time": 236.813,
        "duration": 0.188,
        "velocity": 0.71,
        "hand": "right"
      },
      {
        "midi": 80,
        "time": 236.813,
        "duration": 0.188,
        "velocity": 0.71,
        "hand": "right"
      },
      {
        "midi": 49,
        "time": 237,
        "duration": 0.375,
        "velocity": 0.71,
        "hand": "left"
      },
      {
        "midi": 77,
        "time": 237,
        "duration": 0.563,
        "velocity": 0.71,
        "hand": "right"
      },
      {
        "midi": 78,
        "time": 237,
        "duration": 0.188,
        "velocity": 0.71,
        "hand": "right"
      },
      {
        "midi": 56,
        "time": 237.375,
        "duration": 0.375,
        "velocity": 0.71,
        "hand": "left"
      },
      {
        "midi": 73,
        "time": 237.563,
        "duration": 0.188,
        "velocity": 0.71,
        "hand": "right"
      },
      {
        "midi": 61,
        "time": 237.75,
        "duration": 1.5,
        "velocity": 0.71,
        "hand": "right"
      },
      {
        "midi": 65,
        "time": 237.75,
        "duration": 1.5,
        "velocity": 0.71,
        "hand": "right"
      },
      {
        "midi": 68,
        "time": 237.75,
        "duration": 1.5,
        "velocity": 0.71,
        "hand": "right"
      },
      {
        "midi": 56,
        "time": 238.125,
        "duration": 0.375,
        "velocity": 0.71,
        "hand": "left"
      },
      {
        "midi": 56,
        "time": 238.5,
        "duration": 0.375,
        "velocity": 0.71,
        "hand": "left"
      },
      {
        "midi": 56,
        "time": 238.875,
        "duration": 0.375,
        "velocity": 0.71,
        "hand": "left"
      },
      {
        "midi": 56,
        "time": 239.25,
        "duration": 0.375,
        "velocity": 0.71,
        "hand": "left"
      },
      {
        "midi": 70,
        "time": 239.25,
        "duration": 0.75,
        "velocity": 0.71,
        "hand": "right"
      },
      {
        "midi": 56,
        "time": 239.625,
        "duration": 0.375,
        "velocity": 0.71,
        "hand": "left"
      },
      {
        "midi": 63,
        "time": 240,
        "duration": 0.375,
        "velocity": 0.71,
        "hand": "right"
      },
      {
        "midi": 66,
        "time": 240,
        "duration": 0.375,
        "velocity": 0.71,
        "hand": "right"
      },
      {
        "midi": 72,
        "time": 240,
        "duration": 0.75,
        "velocity": 0.71,
        "hand": "right"
      },
      {
        "midi": 56,
        "time": 240.375,
        "duration": 0.375,
        "velocity": 0.71,
        "hand": "left"
      },
      {
        "midi": 56,
        "time": 240.75,
        "duration": 0.375,
        "velocity": 0.71,
        "hand": "left"
      },
      {
        "midi": 56,
        "time": 241.125,
        "duration": 0.375,
        "velocity": 0.71,
        "hand": "left"
      },
      {
        "midi": 58,
        "time": 241.5,
        "duration": 0.375,
        "velocity": 0.71,
        "hand": "left"
      },
      {
        "midi": 56,
        "time": 241.875,
        "duration": 0.375,
        "velocity": 0.71,
        "hand": "left"
      },
      {
        "midi": 82,
        "time": 242.25,
        "duration": 1.5,
        "velocity": 0.71,
        "hand": "right"
      },
      {
        "midi": 80,
        "time": 243.75,
        "duration": 0.75,
        "velocity": 0.71,
        "hand": "right"
      },
      {
        "midi": 78,
        "time": 244.5,
        "duration": 0.75,
        "velocity": 0.71,
        "hand": "right"
      },
      {
        "midi": 72,
        "time": 245.25,
        "duration": 0.75,
        "velocity": 0.71,
        "hand": "right"
      },
      {
        "midi": 77,
        "time": 246,
        "duration": 0.75,
        "velocity": 0.71,
        "hand": "right"
      },
      {
        "midi": 75,
        "time": 246.75,
        "duration": 0.75,
        "velocity": 0.71,
        "hand": "right"
      },
      {
        "midi": 73,
        "time": 247.5,
        "duration": 0.75,
        "velocity": 0.71,
        "hand": "right"
      },
      {
        "midi": 70,
        "time": 248.25,
        "duration": 0.75,
        "velocity": 0.71,
        "hand": "right"
      },
      {
        "midi": 44,
        "time": 249,
        "duration": 3,
        "velocity": 0.71,
        "hand": "left"
      },
      {
        "midi": 63,
        "time": 249,
        "duration": 3,
        "velocity": 0.71,
        "hand": "right"
      },
      {
        "midi": 66,
        "time": 249,
        "duration": 3,
        "velocity": 0.71,
        "hand": "right"
      },
      {
        "midi": 56,
        "time": 249.375,
        "duration": 0.375,
        "velocity": 0.71,
        "hand": "left"
      },
      {
        "midi": 56,
        "time": 249.75,
        "duration": 0.375,
        "velocity": 0.71,
        "hand": "left"
      },
      {
        "midi": 56,
        "time": 250.125,
        "duration": 0.375,
        "velocity": 0.71,
        "hand": "left"
      },
      {
        "midi": 56,
        "time": 250.5,
        "duration": 0.375,
        "velocity": 0.71,
        "hand": "left"
      },
      {
        "midi": 60,
        "time": 250.5,
        "duration": 1.5,
        "velocity": 0.71,
        "hand": "right"
      },
      {
        "midi": 56,
        "time": 250.875,
        "duration": 0.375,
        "velocity": 0.71,
        "hand": "left"
      },
      {
        "midi": 56,
        "time": 251.25,
        "duration": 0.375,
        "velocity": 0.71,
        "hand": "left"
      },
      {
        "midi": 56,
        "time": 251.625,
        "duration": 0.375,
        "velocity": 0.71,
        "hand": "left"
      },
      {
        "midi": 49,
        "time": 252,
        "duration": 3,
        "velocity": 0.71,
        "hand": "left"
      },
      {
        "midi": 61,
        "time": 252,
        "duration": 1.875,
        "velocity": 0.71,
        "hand": "right"
      },
      {
        "midi": 65,
        "time": 252,
        "duration": 3,
        "velocity": 0.71,
        "hand": "right"
      },
      {
        "midi": 56,
        "time": 252.375,
        "duration": 0.375,
        "velocity": 0.71,
        "hand": "left"
      },
      {
        "midi": 56,
        "time": 252.75,
        "duration": 0.375,
        "velocity": 0.71,
        "hand": "left"
      },
      {
        "midi": 56,
        "time": 253.125,
        "duration": 0.375,
        "velocity": 0.71,
        "hand": "left"
      },
      {
        "midi": 56,
        "time": 253.5,
        "duration": 0.375,
        "velocity": 0.71,
        "hand": "left"
      },
      {
        "midi": 56,
        "time": 253.875,
        "duration": 0.375,
        "velocity": 0.71,
        "hand": "left"
      },
      {
        "midi": 61,
        "time": 253.875,
        "duration": 0.375,
        "velocity": 0.71,
        "hand": "right"
      },
      {
        "midi": 56,
        "time": 254.25,
        "duration": 0.375,
        "velocity": 0.71,
        "hand": "left"
      },
      {
        "midi": 63,
        "time": 254.25,
        "duration": 0.563,
        "velocity": 0.71,
        "hand": "right"
      },
      {
        "midi": 56,
        "time": 254.625,
        "duration": 0.375,
        "velocity": 0.71,
        "hand": "left"
      },
      {
        "midi": 61,
        "time": 254.813,
        "duration": 0.188,
        "velocity": 0.71,
        "hand": "right"
      },
      {
        "midi": 44,
        "time": 255,
        "duration": 3,
        "velocity": 0.71,
        "hand": "left"
      },
      {
        "midi": 61,
        "time": 255,
        "duration": 0.75,
        "velocity": 0.71,
        "hand": "right"
      },
      {
        "midi": 66,
        "time": 255,
        "duration": 3,
        "velocity": 0.71,
        "hand": "right"
      },
      {
        "midi": 56,
        "time": 255.375,
        "duration": 0.375,
        "velocity": 0.71,
        "hand": "left"
      },
      {
        "midi": 56,
        "time": 255.75,
        "duration": 0.375,
        "velocity": 0.71,
        "hand": "left"
      },
      {
        "midi": 60,
        "time": 255.75,
        "duration": 0.75,
        "velocity": 0.71,
        "hand": "right"
      },
      {
        "midi": 56,
        "time": 256.125,
        "duration": 0.375,
        "velocity": 0.71,
        "hand": "left"
      },
      {
        "midi": 56,
        "time": 256.5,
        "duration": 0.375,
        "velocity": 0.71,
        "hand": "left"
      },
      {
        "midi": 70,
        "time": 256.5,
        "duration": 0.75,
        "velocity": 0.71,
        "hand": "right"
      },
      {
        "midi": 56,
        "time": 256.875,
        "duration": 0.375,
        "velocity": 0.71,
        "hand": "left"
      },
      {
        "midi": 56,
        "time": 257.25,
        "duration": 0.375,
        "velocity": 0.71,
        "hand": "left"
      },
      {
        "midi": 60,
        "time": 257.25,
        "duration": 0.75,
        "velocity": 0.71,
        "hand": "right"
      },
      {
        "midi": 56,
        "time": 257.625,
        "duration": 0.375,
        "velocity": 0.71,
        "hand": "left"
      },
      {
        "midi": 44,
        "time": 258,
        "duration": 3,
        "velocity": 0.71,
        "hand": "left"
      },
      {
        "midi": 60,
        "time": 258,
        "duration": 3,
        "velocity": 0.71,
        "hand": "right"
      },
      {
        "midi": 66,
        "time": 258,
        "duration": 3,
        "velocity": 0.71,
        "hand": "right"
      },
      {
        "midi": 56,
        "time": 258.375,
        "duration": 0.375,
        "velocity": 0.71,
        "hand": "left"
      },
      {
        "midi": 56,
        "time": 258.75,
        "duration": 0.375,
        "velocity": 0.71,
        "hand": "left"
      },
      {
        "midi": 56,
        "time": 259.125,
        "duration": 0.375,
        "velocity": 0.71,
        "hand": "left"
      },
      {
        "midi": 56,
        "time": 259.5,
        "duration": 0.375,
        "velocity": 0.71,
        "hand": "left"
      },
      {
        "midi": 56,
        "time": 259.875,
        "duration": 0.375,
        "velocity": 0.71,
        "hand": "left"
      },
      {
        "midi": 56,
        "time": 260.25,
        "duration": 0.375,
        "velocity": 0.71,
        "hand": "left"
      },
      {
        "midi": 56,
        "time": 260.625,
        "duration": 0.375,
        "velocity": 0.71,
        "hand": "left"
      },
      {
        "midi": 49,
        "time": 261,
        "duration": 1.5,
        "velocity": 0.71,
        "hand": "left"
      },
      {
        "midi": 61,
        "time": 261,
        "duration": 3,
        "velocity": 0.71,
        "hand": "right"
      },
      {
        "midi": 65,
        "time": 261,
        "duration": 3,
        "velocity": 0.71,
        "hand": "right"
      },
      {
        "midi": 56,
        "time": 261.375,
        "duration": 0.375,
        "velocity": 0.71,
        "hand": "left"
      },
      {
        "midi": 56,
        "time": 261.75,
        "duration": 0.375,
        "velocity": 0.71,
        "hand": "left"
      },
      {
        "midi": 56,
        "time": 262.125,
        "duration": 0.375,
        "velocity": 0.71,
        "hand": "left"
      },
      {
        "midi": 44,
        "time": 262.5,
        "duration": 1.5,
        "velocity": 0.71,
        "hand": "left"
      },
      {
        "midi": 56,
        "time": 262.5,
        "duration": 0.375,
        "velocity": 0.71,
        "hand": "left"
      },
      {
        "midi": 56,
        "time": 262.875,
        "duration": 0.375,
        "velocity": 0.71,
        "hand": "left"
      },
      {
        "midi": 56,
        "time": 263.25,
        "duration": 0.375,
        "velocity": 0.71,
        "hand": "left"
      },
      {
        "midi": 56,
        "time": 263.625,
        "duration": 0.375,
        "velocity": 0.71,
        "hand": "left"
      },
      {
        "midi": 37,
        "time": 264,
        "duration": 3,
        "velocity": 0.71,
        "hand": "left"
      },
      {
        "midi": 61,
        "time": 264,
        "duration": 3,
        "velocity": 0.71,
        "hand": "right"
      },
      {
        "midi": 65,
        "time": 264,
        "duration": 3,
        "velocity": 0.71,
        "hand": "right"
      }
    ],
    "hard": [
      {
        "midi": 49,
        "time": 0,
        "duration": 0.375,
        "velocity": 0.71,
        "hand": "left"
      },
      {
        "midi": 77,
        "time": 0,
        "duration": 0.563,
        "velocity": 0.71,
        "hand": "right"
      },
      {
        "midi": 56,
        "time": 0.375,
        "duration": 0.375,
        "velocity": 0.71,
        "hand": "left"
      },
      {
        "midi": 73,
        "time": 0.563,
        "duration": 0.188,
        "velocity": 0.71,
        "hand": "right"
      },
      {
        "midi": 61,
        "time": 0.75,
        "duration": 1.5,
        "velocity": 0.71,
        "hand": "right"
      },
      {
        "midi": 65,
        "time": 0.75,
        "duration": 1.5,
        "velocity": 0.71,
        "hand": "right"
      },
      {
        "midi": 68,
        "time": 0.75,
        "duration": 1.5,
        "velocity": 0.71,
        "hand": "right"
      },
      {
        "midi": 56,
        "time": 1.125,
        "duration": 0.375,
        "velocity": 0.71,
        "hand": "left"
      },
      {
        "midi": 56,
        "time": 1.5,
        "duration": 0.375,
        "velocity": 0.71,
        "hand": "left"
      },
      {
        "midi": 56,
        "time": 1.875,
        "duration": 0.375,
        "velocity": 0.71,
        "hand": "left"
      },
      {
        "midi": 61,
        "time": 2.25,
        "duration": 0.375,
        "velocity": 0.71,
        "hand": "right"
      },
      {
        "midi": 65,
        "time": 2.25,
        "duration": 0.375,
        "velocity": 0.71,
        "hand": "right"
      },
      {
        "midi": 70,
        "time": 2.25,
        "duration": 0.75,
        "velocity": 0.71,
        "hand": "right"
      },
      {
        "midi": 56,
        "time": 2.625,
        "duration": 0.375,
        "velocity": 0.71,
        "hand": "left"
      },
      {
        "midi": 63,
        "time": 3,
        "duration": 2.25,
        "velocity": 0.71,
        "hand": "right"
      },
      {
        "midi": 66,
        "time": 3,
        "duration": 2.25,
        "velocity": 0.71,
        "hand": "right"
      },
      {
        "midi": 72,
        "time": 3,
        "duration": 2.25,
        "velocity": 0.71,
        "hand": "right"
      },
      {
        "midi": 56,
        "time": 3.375,
        "duration": 0.375,
        "velocity": 0.71,
        "hand": "left"
      },
      {
        "midi": 56,
        "time": 3.75,
        "duration": 0.375,
        "velocity": 0.71,
        "hand": "left"
      },
      {
        "midi": 56,
        "time": 4.125,
        "duration": 0.375,
        "velocity": 0.71,
        "hand": "left"
      },
      {
        "midi": 58,
        "time": 4.5,
        "duration": 0.375,
        "velocity": 0.71,
        "hand": "left"
      },
      {
        "midi": 56,
        "time": 4.875,
        "duration": 0.375,
        "velocity": 0.71,
        "hand": "left"
      },
      {
        "midi": 61,
        "time": 5.25,
        "duration": 0.375,
        "velocity": 0.71,
        "hand": "right"
      },
      {
        "midi": 65,
        "time": 5.25,
        "duration": 0.375,
        "velocity": 0.71,
        "hand": "right"
      },
      {
        "midi": 73,
        "time": 5.25,
        "duration": 0.75,
        "velocity": 0.71,
        "hand": "right"
      },
      {
        "midi": 56,
        "time": 5.625,
        "duration": 0.375,
        "velocity": 0.71,
        "hand": "left"
      },
      {
        "midi": 60,
        "time": 6,
        "duration": 2.25,
        "velocity": 0.71,
        "hand": "right"
      },
      {
        "midi": 66,
        "time": 6,
        "duration": 0.375,
        "velocity": 0.71,
        "hand": "right"
      },
      {
        "midi": 75,
        "time": 6,
        "duration": 0.563,
        "velocity": 0.71,
        "hand": "right"
      },
      {
        "midi": 56,
        "time": 6.375,
        "duration": 0.75,
        "velocity": 0.71,
        "hand": "left"
      },
      {
        "midi": 68,
        "time": 6.563,
        "duration": 0.188,
        "velocity": 0.71,
        "hand": "right"
      },
      {
        "midi": 77,
        "time": 6.563,
        "duration": 0.188,
        "velocity": 0.71,
        "hand": "right"
      },
      {
        "midi": 70,
        "time": 6.75,
        "duration": 1.5,
        "velocity": 0.71,
        "hand": "right"
      },
      {
        "midi": 78,
        "time": 6.75,
        "duration": 1.5,
        "velocity": 0.71,
        "hand": "right"
      },
      {
        "midi": 56,
        "time": 7.125,
        "duration": 0.375,
        "velocity": 0.71,
        "hand": "left"
      },
      {
        "midi": 56,
        "time": 7.5,
        "duration": 0.375,
        "velocity": 0.71,
        "hand": "left"
      },
      {
        "midi": 56,
        "time": 7.875,
        "duration": 0.75,
        "velocity": 0.71,
        "hand": "left"
      },
      {
        "midi": 61,
        "time": 8.25,
        "duration": 0.375,
        "velocity": 0.71,
        "hand": "right"
      },
      {
        "midi": 68,
        "time": 8.25,
        "duration": 0.375,
        "velocity": 0.71,
        "hand": "right"
      },
      {
        "midi": 77,
        "time": 8.25,
        "duration": 0.75,
        "velocity": 0.71,
        "hand": "right"
      },
      {
        "midi": 56,
        "time": 8.625,
        "duration": 0.375,
        "velocity": 0.71,
        "hand": "left"
      },
      {
        "midi": 60,
        "time": 9,
        "duration": 1.5,
        "velocity": 0.71,
        "hand": "right"
      },
      {
        "midi": 68,
        "time": 9,
        "duration": 0.375,
        "velocity": 0.71,
        "hand": "right"
      },
      {
        "midi": 77,
        "time": 9,
        "duration": 1.125,
        "velocity": 0.71,
        "hand": "right"
      },
      {
        "midi": 56,
        "time": 9.375,
        "duration": 0.375,
        "velocity": 0.71,
        "hand": "left"
      },
      {
        "midi": 66,
        "time": 9.75,
        "duration": 0.375,
        "velocity": 0.71,
        "hand": "right"
      },
      {
        "midi": 56,
        "time": 10.125,
        "duration": 0.375,
        "velocity": 0.71,
        "hand": "left"
      },
      {
        "midi": 75,
        "time": 10.125,
        "duration": 0.375,
        "velocity": 0.71,
        "hand": "right"
      },
      {
        "midi": 61,
        "time": 10.5,
        "duration": 0.375,
        "velocity": 0.71,
        "hand": "right"
      },
      {
        "midi": 65,
        "time": 10.5,
        "duration": 0.375,
        "velocity": 0.71,
        "hand": "right"
      },
      {
        "midi": 73,
        "time": 10.5,
        "duration": 0.75,
        "velocity": 0.71,
        "hand": "right"
      },
      {
        "midi": 56,
        "time": 10.875,
        "duration": 0.375,
        "velocity": 0.71,
        "hand": "left"
      },
      {
        "midi": 60,
        "time": 11.25,
        "duration": 0.375,
        "velocity": 0.71,
        "hand": "right"
      },
      {
        "midi": 66,
        "time": 11.25,
        "duration": 0.375,
        "velocity": 0.71,
        "hand": "right"
      },
      {
        "midi": 75,
        "time": 11.25,
        "duration": 0.094,
        "velocity": 0.71,
        "hand": "right"
      },
      {
        "midi": 75,
        "time": 11.25,
        "duration": 0.188,
        "velocity": 0.71,
        "hand": "right"
      },
      {
        "midi": 75,
        "time": 11.438,
        "duration": 0.188,
        "velocity": 0.71,
        "hand": "right"
      },
      {
        "midi": 77,
        "time": 11.438,
        "duration": 0.188,
        "velocity": 0.71,
        "hand": "right"
      },
      {
        "midi": 56,
        "time": 11.625,
        "duration": 0.375,
        "velocity": 0.71,
        "hand": "left"
      },
      {
        "midi": 74,
        "time": 11.625,
        "duration": 0.188,
        "velocity": 0.71,
        "hand": "right"
      },
      {
        "midi": 75,
        "time": 11.625,
        "duration": 0.188,
        "velocity": 0.71,
        "hand": "right"
      },
      {
        "midi": 77,
        "time": 11.813,
        "duration": 0.188,
        "velocity": 0.71,
        "hand": "right"
      },
      {
        "midi": 78,
        "time": 11.813,
        "duration": 0.188,
        "velocity": 0.71,
        "hand": "right"
      },
      {
        "midi": 49,
        "time": 12,
        "duration": 0.375,
        "velocity": 0.71,
        "hand": "left"
      },
      {
        "midi": 77,
        "time": 12,
        "duration": 0.563,
        "velocity": 0.71,
        "hand": "right"
      },
      {
        "midi": 56,
        "time": 12.375,
        "duration": 0.375,
        "velocity": 0.71,
        "hand": "left"
      },
      {
        "midi": 73,
        "time": 12.563,
        "duration": 0.188,
        "velocity": 0.71,
        "hand": "right"
      },
      {
        "midi": 61,
        "time": 12.75,
        "duration": 2.25,
        "velocity": 0.71,
        "hand": "right"
      },
      {
        "midi": 65,
        "time": 12.75,
        "duration": 2.25,
        "velocity": 0.71,
        "hand": "right"
      },
      {
        "midi": 68,
        "time": 12.75,
        "duration": 1.5,
        "velocity": 0.71,
        "hand": "right"
      },
      {
        "midi": 56,
        "time": 13.125,
        "duration": 0.375,
        "velocity": 0.71,
        "hand": "left"
      },
      {
        "midi": 56,
        "time": 13.5,
        "duration": 0.375,
        "velocity": 0.71,
        "hand": "left"
      },
      {
        "midi": 56,
        "time": 13.875,
        "duration": 0.375,
        "velocity": 0.71,
        "hand": "left"
      },
      {
        "midi": 56,
        "time": 14.25,
        "duration": 0.375,
        "velocity": 0.71,
        "hand": "left"
      },
      {
        "midi": 70,
        "time": 14.25,
        "duration": 0.75,
        "velocity": 0.71,
        "hand": "right"
      },
      {
        "midi": 56,
        "time": 14.625,
        "duration": 0.375,
        "velocity": 0.71,
        "hand": "left"
      },
      {
        "midi": 63,
        "time": 15,
        "duration": 2.25,
        "velocity": 0.71,
        "hand": "right"
      },
      {
        "midi": 66,
        "time": 15,
        "duration": 2.25,
        "velocity": 0.71,
        "hand": "right"
      },
      {
        "midi": 72,
        "time": 15,
        "duration": 2.25,
        "velocity": 0.71,
        "hand": "right"
      },
      {
        "midi": 56,
        "time": 15.375,
        "duration": 0.375,
        "velocity": 0.71,
        "hand": "left"
      },
      {
        "midi": 56,
        "time": 15.75,
        "duration": 0.375,
        "velocity": 0.71,
        "hand": "left"
      },
      {
        "midi": 56,
        "time": 16.125,
        "duration": 0.375,
        "velocity": 0.71,
        "hand": "left"
      },
      {
        "midi": 58,
        "time": 16.5,
        "duration": 0.375,
        "velocity": 0.71,
        "hand": "left"
      },
      {
        "midi": 56,
        "time": 16.875,
        "duration": 0.375,
        "velocity": 0.71,
        "hand": "left"
      },
      {
        "midi": 61,
        "time": 17.25,
        "duration": 0.375,
        "velocity": 0.71,
        "hand": "right"
      },
      {
        "midi": 65,
        "time": 17.25,
        "duration": 0.375,
        "velocity": 0.71,
        "hand": "right"
      },
      {
        "midi": 73,
        "time": 17.25,
        "duration": 0.75,
        "velocity": 0.71,
        "hand": "right"
      },
      {
        "midi": 56,
        "time": 17.625,
        "duration": 0.375,
        "velocity": 0.71,
        "hand": "left"
      },
      {
        "midi": 60,
        "time": 18,
        "duration": 2.25,
        "velocity": 0.71,
        "hand": "right"
      },
      {
        "midi": 66,
        "time": 18,
        "duration": 0.375,
        "velocity": 0.71,
        "hand": "right"
      },
      {
        "midi": 75,
        "time": 18,
        "duration": 0.563,
        "velocity": 0.71,
        "hand": "right"
      },
      {
        "midi": 56,
        "time": 18.375,
        "duration": 0.75,
        "velocity": 0.71,
        "hand": "left"
      },
      {
        "midi": 68,
        "time": 18.563,
        "duration": 0.188,
        "velocity": 0.71,
        "hand": "right"
      },
      {
        "midi": 77,
        "time": 18.563,
        "duration": 0.188,
        "velocity": 0.71,
        "hand": "right"
      },
      {
        "midi": 70,
        "time": 18.75,
        "duration": 1.5,
        "velocity": 0.71,
        "hand": "right"
      },
      {
        "midi": 78,
        "time": 18.75,
        "duration": 1.5,
        "velocity": 0.71,
        "hand": "right"
      },
      {
        "midi": 56,
        "time": 19.125,
        "duration": 0.375,
        "velocity": 0.71,
        "hand": "left"
      },
      {
        "midi": 56,
        "time": 19.5,
        "duration": 0.375,
        "velocity": 0.71,
        "hand": "left"
      },
      {
        "midi": 56,
        "time": 19.875,
        "duration": 0.75,
        "velocity": 0.71,
        "hand": "left"
      },
      {
        "midi": 61,
        "time": 20.25,
        "duration": 0.375,
        "velocity": 0.71,
        "hand": "right"
      },
      {
        "midi": 68,
        "time": 20.25,
        "duration": 0.375,
        "velocity": 0.71,
        "hand": "right"
      },
      {
        "midi": 77,
        "time": 20.25,
        "duration": 0.75,
        "velocity": 0.71,
        "hand": "right"
      },
      {
        "midi": 56,
        "time": 20.625,
        "duration": 0.375,
        "velocity": 0.71,
        "hand": "left"
      },
      {
        "midi": 60,
        "time": 21,
        "duration": 1.5,
        "velocity": 0.71,
        "hand": "right"
      },
      {
        "midi": 68,
        "time": 21,
        "duration": 0.375,
        "velocity": 0.71,
        "hand": "right"
      },
      {
        "midi": 77,
        "time": 21,
        "duration": 1.125,
        "velocity": 0.71,
        "hand": "right"
      },
      {
        "midi": 56,
        "time": 21.375,
        "duration": 0.375,
        "velocity": 0.71,
        "hand": "left"
      },
      {
        "midi": 63,
        "time": 21.75,
        "duration": 0.375,
        "velocity": 0.71,
        "hand": "right"
      },
      {
        "midi": 56,
        "time": 22.125,
        "duration": 0.375,
        "velocity": 0.71,
        "hand": "left"
      },
      {
        "midi": 75,
        "time": 22.125,
        "duration": 0.375,
        "velocity": 0.71,
        "hand": "right"
      },
      {
        "midi": 61,
        "time": 22.5,
        "duration": 0.375,
        "velocity": 0.71,
        "hand": "right"
      },
      {
        "midi": 65,
        "time": 22.5,
        "duration": 0.375,
        "velocity": 0.71,
        "hand": "right"
      },
      {
        "midi": 73,
        "time": 22.5,
        "duration": 0.75,
        "velocity": 0.71,
        "hand": "right"
      },
      {
        "midi": 56,
        "time": 22.875,
        "duration": 0.375,
        "velocity": 0.71,
        "hand": "left"
      },
      {
        "midi": 61,
        "time": 23.25,
        "duration": 0.375,
        "velocity": 0.71,
        "hand": "right"
      },
      {
        "midi": 65,
        "time": 23.25,
        "duration": 0.375,
        "velocity": 0.71,
        "hand": "right"
      },
      {
        "midi": 72,
        "time": 23.25,
        "duration": 0.375,
        "velocity": 0.71,
        "hand": "right"
      },
      {
        "midi": 56,
        "time": 23.625,
        "duration": 0.375,
        "velocity": 0.71,
        "hand": "left"
      },
      {
        "midi": 73,
        "time": 23.625,
        "duration": 0.375,
        "velocity": 0.71,
        "hand": "right"
      },
      {
        "midi": 44,
        "time": 24,
        "duration": 0.375,
        "velocity": 0.71,
        "hand": "left"
      },
      {
        "midi": 75,
        "time": 24,
        "duration": 0.75,
        "velocity": 0.71,
        "hand": "right"
      },
      {
        "midi": 56,
        "time": 24.375,
        "duration": 0.375,
        "velocity": 0.71,
        "hand": "left"
      },
      {
        "midi": 63,
        "time": 24.75,
        "duration": 0.375,
        "velocity": 0.71,
        "hand": "right"
      },
      {
        "midi": 75,
        "time": 24.75,
        "duration": 1.5,
        "velocity": 0.71,
        "hand": "right"
      },
      {
        "midi": 56,
        "time": 25.125,
        "duration": 0.375,
        "velocity": 0.71,
        "hand": "left"
      },
      {
        "midi": 59,
        "time": 25.5,
        "duration": 0.375,
        "velocity": 0.71,
        "hand": "left"
      },
      {
        "midi": 63,
        "time": 25.5,
        "duration": 0.375,
        "velocity": 0.71,
        "hand": "right"
      },
      {
        "midi": 56,
        "time": 25.875,
        "duration": 0.375,
        "velocity": 0.71,
        "hand": "left"
      },
      {
        "midi": 49,
        "time": 26.25,
        "duration": 0.375,
        "velocity": 0.71,
        "hand": "left"
      },
      {
        "midi": 59,
        "time": 26.25,
        "duration": 0.375,
        "velocity": 0.71,
        "hand": "left"
      },
      {
        "midi": 65,
        "time": 26.25,
        "duration": 0.375,
        "velocity": 0.71,
        "hand": "right"
      },
      {
        "midi": 77,
        "time": 26.25,
        "duration": 0.75,
        "velocity": 0.71,
        "hand": "right"
      },
      {
        "midi": 61,
        "time": 26.625,
        "duration": 0.375,
        "velocity": 0.71,
        "hand": "right"
      },
      {
        "midi": 54,
        "time": 27,
        "duration": 0.375,
        "velocity": 0.71,
        "hand": "left"
      },
      {
        "midi": 58,
        "time": 27,
        "duration": 0.375,
        "velocity": 0.71,
        "hand": "left"
      },
      {
        "midi": 78,
        "time": 27,
        "duration": 0.375,
        "velocity": 0.71,
        "hand": "right"
      },
      {
        "midi": 61,
        "time": 27.375,
        "duration": 0.375,
        "velocity": 0.71,
        "hand": "right"
      },
      {
        "midi": 77,
        "time": 27.375,
        "duration": 0.375,
        "velocity": 0.71,
        "hand": "right"
      },
      {
        "midi": 58,
        "time": 27.75,
        "duration": 0.375,
        "velocity": 0.71,
        "hand": "left"
      },
      {
        "midi": 66,
        "time": 27.75,
        "duration": 0.375,
        "velocity": 0.71,
        "hand": "right"
      },
      {
        "midi": 75,
        "time": 27.75,
        "duration": 0.375,
        "velocity": 0.71,
        "hand": "right"
      },
      {
        "midi": 61,
        "time": 28.125,
        "duration": 0.375,
        "velocity": 0.71,
        "hand": "right"
      },
      {
        "midi": 73,
        "time": 28.125,
        "duration": 0.375,
        "velocity": 0.71,
        "hand": "right"
      },
      {
        "midi": 49,
        "time": 28.5,
        "duration": 0.375,
        "velocity": 0.71,
        "hand": "left"
      },
      {
        "midi": 77,
        "time": 28.5,
        "duration": 1.5,
        "velocity": 0.71,
        "hand": "right"
      },
      {
        "midi": 56,
        "time": 28.875,
        "duration": 0.375,
        "velocity": 0.71,
        "hand": "left"
      },
      {
        "midi": 61,
        "time": 29.25,
        "duration": 0.375,
        "velocity": 0.71,
        "hand": "right"
      },
      {
        "midi": 65,
        "time": 29.25,
        "duration": 0.375,
        "velocity": 0.71,
        "hand": "right"
      },
      {
        "midi": 56,
        "time": 29.625,
        "duration": 0.375,
        "velocity": 0.71,
        "hand": "left"
      },
      {
        "midi": 51,
        "time": 30,
        "duration": 0.375,
        "velocity": 0.71,
        "hand": "left"
      },
      {
        "midi": 75,
        "time": 30,
        "duration": 0.375,
        "velocity": 0.71,
        "hand": "right"
      },
      {
        "midi": 56,
        "time": 30.375,
        "duration": 0.375,
        "velocity": 0.71,
        "hand": "left"
      },
      {
        "midi": 71,
        "time": 30.375,
        "duration": 0.375,
        "velocity": 0.71,
        "hand": "right"
      },
      {
        "midi": 59,
        "time": 30.75,
        "duration": 0.375,
        "velocity": 0.71,
        "hand": "left"
      },
      {
        "midi": 63,
        "time": 30.75,
        "duration": 0.375,
        "velocity": 0.71,
        "hand": "right"
      },
      {
        "midi": 70,
        "time": 30.75,
        "duration": 0.375,
        "velocity": 0.71,
        "hand": "right"
      },
      {
        "midi": 56,
        "time": 31.125,
        "duration": 0.375,
        "velocity": 0.71,
        "hand": "left"
      },
      {
        "midi": 68,
        "time": 31.125,
        "duration": 0.375,
        "velocity": 0.71,
        "hand": "right"
      },
      {
        "midi": 51,
        "time": 31.5,
        "duration": 0.375,
        "velocity": 0.71,
        "hand": "left"
      },
      {
        "midi": 70,
        "time": 31.5,
        "duration": 0.563,
        "velocity": 0.71,
        "hand": "right"
      },
      {
        "midi": 55,
        "time": 31.875,
        "duration": 0.375,
        "velocity": 0.71,
        "hand": "left"
      },
      {
        "midi": 70,
        "time": 32.063,
        "duration": 0.094,
        "velocity": 0.71,
        "hand": "right"
      },
      {
        "midi": 71,
        "time": 32.063,
        "duration": 0.094,
        "velocity": 0.71,
        "hand": "right"
      },
      {
        "midi": 61,
        "time": 32.25,
        "duration": 0.375,
        "velocity": 0.71,
        "hand": "right"
      },
      {
        "midi": 63,
        "time": 32.25,
        "duration": 0.375,
        "velocity": 0.71,
        "hand": "right"
      },
      {
        "midi": 68,
        "time": 32.25,
        "duration": 0.094,
        "velocity": 0.71,
        "hand": "right"
      },
      {
        "midi": 70,
        "time": 32.25,
        "duration": 0.563,
        "velocity": 0.71,
        "hand": "right"
      },
      {
        "midi": 55,
        "time": 32.625,
        "duration": 0.375,
        "velocity": 0.71,
        "hand": "left"
      },
      {
        "midi": 71,
        "time": 32.813,
        "duration": 0.188,
        "velocity": 0.71,
        "hand": "right"
      },
      {
        "midi": 44,
        "time": 33,
        "duration": 0.375,
        "velocity": 0.71,
        "hand": "left"
      },
      {
        "midi": 68,
        "time": 33,
        "duration": 0.75,
        "velocity": 0.71,
        "hand": "right"
      },
      {
        "midi": 56,
        "time": 33.375,
        "duration": 0.375,
        "velocity": 0.71,
        "hand": "left"
      },
      {
        "midi": 59,
        "time": 33.75,
        "duration": 0.375,
        "velocity": 0.71,
        "hand": "left"
      },
      {
        "midi": 63,
        "time": 33.75,
        "duration": 0.375,
        "velocity": 0.71,
        "hand": "right"
      },
      {
        "midi": 75,
        "time": 33.75,
        "duration": 0.75,
        "velocity": 0.71,
        "hand": "right"
      },
      {
        "midi": 56,
        "time": 34.125,
        "duration": 0.375,
        "velocity": 0.71,
        "hand": "left"
      },
      {
        "midi": 58,
        "time": 34.5,
        "duration": 0.375,
        "velocity": 0.71,
        "hand": "left"
      },
      {
        "midi": 61,
        "time": 34.5,
        "duration": 0.375,
        "velocity": 0.71,
        "hand": "right"
      },
      {
        "midi": 73,
        "time": 34.5,
        "duration": 0.75,
        "velocity": 0.71,
        "hand": "right"
      },
      {
        "midi": 56,
        "time": 34.875,
        "duration": 0.375,
        "velocity": 0.71,
        "hand": "left"
      },
      {
        "midi": 61,
        "time": 35.25,
        "duration": 0.375,
        "velocity": 0.71,
        "hand": "right"
      },
      {
        "midi": 64,
        "time": 35.25,
        "duration": 0.375,
        "velocity": 0.71,
        "hand": "right"
      },
      {
        "midi": 76,
        "time": 35.25,
        "duration": 0.75,
        "velocity": 0.71,
        "hand": "right"
      },
      {
        "midi": 56,
        "time": 35.625,
        "duration": 0.375,
        "velocity": 0.71,
        "hand": "left"
      },
      {
        "midi": 44,
        "time": 36,
        "duration": 0.375,
        "velocity": 0.71,
        "hand": "left"
      },
      {
        "midi": 75,
        "time": 36,
        "duration": 0.75,
        "velocity": 0.71,
        "hand": "right"
      },
      {
        "midi": 56,
        "time": 36.375,
        "duration": 0.375,
        "velocity": 0.71,
        "hand": "left"
      },
      {
        "midi": 59,
        "time": 36.75,
        "duration": 1.5,
        "velocity": 0.71,
        "hand": "left"
      },
      {
        "midi": 63,
        "time": 36.75,
        "duration": 1.5,
        "velocity": 0.71,
        "hand": "right"
      },
      {
        "midi": 75,
        "time": 36.75,
        "duration": 1.5,
        "velocity": 0.71,
        "hand": "right"
      },
      {
        "midi": 56,
        "time": 37.125,
        "duration": 0.375,
        "velocity": 0.71,
        "hand": "left"
      },
      {
        "midi": 56,
        "time": 37.5,
        "duration": 0.375,
        "velocity": 0.71,
        "hand": "left"
      },
      {
        "midi": 56,
        "time": 37.875,
        "duration": 0.375,
        "velocity": 0.71,
        "hand": "left"
      },
      {
        "midi": 59,
        "time": 38.25,
        "duration": 0.375,
        "velocity": 0.71,
        "hand": "left"
      },
      {
        "midi": 65,
        "time": 38.25,
        "duration": 0.375,
        "velocity": 0.71,
        "hand": "right"
      },
      {
        "midi": 77,
        "time": 38.25,
        "duration": 0.75,
        "velocity": 0.71,
        "hand": "right"
      },
      {
        "midi": 56,
        "time": 38.625,
        "duration": 0.375,
        "velocity": 0.71,
        "hand": "left"
      },
      {
        "midi": 51,
        "time": 39,
        "duration": 0.375,
        "velocity": 0.71,
        "hand": "left"
      },
      {
        "midi": 78,
        "time": 39,
        "duration": 0.375,
        "velocity": 0.71,
        "hand": "right"
      },
      {
        "midi": 54,
        "time": 39.375,
        "duration": 0.375,
        "velocity": 0.71,
        "hand": "left"
      },
      {
        "midi": 77,
        "time": 39.375,
        "duration": 0.375,
        "velocity": 0.71,
        "hand": "right"
      },
      {
        "midi": 58,
        "time": 39.75,
        "duration": 0.375,
        "velocity": 0.71,
        "hand": "left"
      },
      {
        "midi": 66,
        "time": 39.75,
        "duration": 0.375,
        "velocity": 0.71,
        "hand": "right"
      },
      {
        "midi": 75,
        "time": 39.75,
        "duration": 0.375,
        "velocity": 0.71,
        "hand": "right"
      },
      {
        "midi": 54,
        "time": 40.125,
        "duration": 0.375,
        "velocity": 0.71,
        "hand": "left"
      },
      {
        "midi": 73,
        "time": 40.125,
        "duration": 0.375,
        "velocity": 0.71,
        "hand": "right"
      },
      {
        "midi": 46,
        "time": 40.5,
        "duration": 0.375,
        "velocity": 0.71,
        "hand": "left"
      },
      {
        "midi": 77,
        "time": 40.5,
        "duration": 1.875,
        "velocity": 0.71,
        "hand": "right"
      },
      {
        "midi": 53,
        "time": 40.875,
        "duration": 0.375,
        "velocity": 0.71,
        "hand": "left"
      },
      {
        "midi": 58,
        "time": 41.25,
        "duration": 0.375,
        "velocity": 0.71,
        "hand": "left"
      },
      {
        "midi": 61,
        "time": 41.25,
        "duration": 0.375,
        "velocity": 0.71,
        "hand": "right"
      },
      {
        "midi": 65,
        "time": 41.25,
        "duration": 0.375,
        "velocity": 0.71,
        "hand": "right"
      },
      {
        "midi": 53,
        "time": 41.625,
        "duration": 0.375,
        "velocity": 0.71,
        "hand": "left"
      },
      {
        "midi": 41,
        "time": 42,
        "duration": 0.375,
        "velocity": 0.71,
        "hand": "left"
      },
      {
        "midi": 53,
        "time": 42.375,
        "duration": 0.375,
        "velocity": 0.71,
        "hand": "left"
      },
      {
        "midi": 73,
        "time": 42.375,
        "duration": 0.375,
        "velocity": 0.71,
        "hand": "right"
      },
      {
        "midi": 58,
        "time": 42.75,
        "duration": 0.375,
        "velocity": 0.71,
        "hand": "left"
      },
      {
        "midi": 61,
        "time": 42.75,
        "duration": 0.375,
        "velocity": 0.71,
        "hand": "right"
      },
      {
        "midi": 65,
        "time": 42.75,
        "duration": 0.375,
        "velocity": 0.71,
        "hand": "right"
      },
      {
        "midi": 72,
        "time": 42.75,
        "duration": 0.375,
        "velocity": 0.71,
        "hand": "right"
      },
      {
        "midi": 53,
        "time": 43.125,
        "duration": 0.375,
        "velocity": 0.71,
        "hand": "left"
      },
      {
        "midi": 70,
        "time": 43.125,
        "duration": 0.375,
        "velocity": 0.71,
        "hand": "right"
      },
      {
        "midi": 41,
        "time": 43.5,
        "duration": 0.375,
        "velocity": 0.71,
        "hand": "left"
      },
      {
        "midi": 72,
        "time": 43.5,
        "duration": 0.563,
        "velocity": 0.71,
        "hand": "right"
      },
      {
        "midi": 53,
        "time": 43.875,
        "duration": 0.375,
        "velocity": 0.71,
        "hand": "left"
      },
      {
        "midi": 72,
        "time": 44.063,
        "duration": 0.094,
        "velocity": 0.71,
        "hand": "right"
      },
      {
        "midi": 73,
        "time": 44.063,
        "duration": 0.094,
        "velocity": 0.71,
        "hand": "right"
      },
      {
        "midi": 57,
        "time": 44.25,
        "duration": 0.375,
        "velocity": 0.71,
        "hand": "left"
      },
      {
        "midi": 63,
        "time": 44.25,
        "duration": 0.375,
        "velocity": 0.71,
        "hand": "right"
      },
      {
        "midi": 65,
        "time": 44.25,
        "duration": 0.375,
        "velocity": 0.71,
        "hand": "right"
      },
      {
        "midi": 70,
        "time": 44.25,
        "duration": 0.094,
        "velocity": 0.71,
        "hand": "right"
      },
      {
        "midi": 72,
        "time": 44.25,
        "duration": 0.375,
        "velocity": 0.71,
        "hand": "right"
      },
      {
        "midi": 53,
        "time": 44.625,
        "duration": 0.375,
        "velocity": 0.71,
        "hand": "left"
      },
      {
        "midi": 73,
        "time": 44.625,
        "duration": 0.375,
        "velocity": 0.71,
        "hand": "right"
      },
      {
        "midi": 46,
        "time": 45,
        "duration": 0.375,
        "velocity": 0.71,
        "hand": "left"
      },
      {
        "midi": 70,
        "time": 45,
        "duration": 0.75,
        "velocity": 0.71,
        "hand": "right"
      },
      {
        "midi": 53,
        "time": 45.375,
        "duration": 0.375,
        "velocity": 0.71,
        "hand": "left"
      },
      {
        "midi": 61,
        "time": 45.75,
        "duration": 0.375,
        "velocity": 0.71,
        "hand": "right"
      },
      {
        "midi": 65,
        "time": 45.75,
        "duration": 0.375,
        "velocity": 0.71,
        "hand": "right"
      },
      {
        "midi": 77,
        "time": 45.75,
        "duration": 0.75,
        "velocity": 0.71,
        "hand": "right"
      },
      {
        "midi": 53,
        "time": 46.125,
        "duration": 0.375,
        "velocity": 0.71,
        "hand": "left"
      },
      {
        "midi": 60,
        "time": 46.5,
        "duration": 0.375,
        "velocity": 0.71,
        "hand": "right"
      },
      {
        "midi": 63,
        "time": 46.5,
        "duration": 0.375,
        "velocity": 0.71,
        "hand": "right"
      },
      {
        "midi": 75,
        "time": 46.5,
        "duration": 0.75,
        "velocity": 0.71,
        "hand": "right"
      },
      {
        "midi": 53,
        "time": 46.875,
        "duration": 0.375,
        "velocity": 0.71,
        "hand": "left"
      },
      {
        "midi": 63,
        "time": 47.25,
        "duration": 0.375,
        "velocity": 0.71,
        "hand": "right"
      },
      {
        "midi": 66,
        "time": 47.25,
        "duration": 0.375,
        "velocity": 0.71,
        "hand": "right"
      },
      {
        "midi": 78,
        "time": 47.25,
        "duration": 0.75,
        "velocity": 0.71,
        "hand": "right"
      },
      {
        "midi": 53,
        "time": 47.625,
        "duration": 0.375,
        "velocity": 0.71,
        "hand": "left"
      },
      {
        "midi": 61,
        "time": 48,
        "duration": 0.375,
        "velocity": 0.71,
        "hand": "right"
      },
      {
        "midi": 65,
        "time": 48,
        "duration": 0.375,
        "velocity": 0.71,
        "hand": "right"
      },
      {
        "midi": 77,
        "time": 48,
        "duration": 0.375,
        "velocity": 0.71,
        "hand": "right"
      },
      {
        "midi": 53,
        "time": 48.375,
        "duration": 0.375,
        "velocity": 0.71,
        "hand": "left"
      },
      {
        "midi": 73,
        "time": 48.375,
        "duration": 0.375,
        "velocity": 0.71,
        "hand": "right"
      },
      {
        "midi": 58,
        "time": 48.75,
        "duration": 0.375,
        "velocity": 0.71,
        "hand": "left"
      },
      {
        "midi": 61,
        "time": 48.75,
        "duration": 0.375,
        "velocity": 0.71,
        "hand": "right"
      },
      {
        "midi": 65,
        "time": 48.75,
        "duration": 0.375,
        "velocity": 0.71,
        "hand": "right"
      },
      {
        "midi": 72,
        "time": 48.75,
        "duration": 0.375,
        "velocity": 0.71,
        "hand": "right"
      },
      {
        "midi": 53,
        "time": 49.125,
        "duration": 0.375,
        "velocity": 0.71,
        "hand": "left"
      },
      {
        "midi": 70,
        "time": 49.125,
        "duration": 0.375,
        "velocity": 0.71,
        "hand": "right"
      },
      {
        "midi": 57,
        "time": 49.5,
        "duration": 0.375,
        "velocity": 0.71,
        "hand": "left"
      },
      {
        "midi": 63,
        "time": 49.5,
        "duration": 0.375,
        "velocity": 0.71,
        "hand": "right"
      },
      {
        "midi": 72,
        "time": 49.5,
        "duration": 0.563,
        "velocity": 0.71,
        "hand": "right"
      },
      {
        "midi": 53,
        "time": 49.875,
        "duration": 0.375,
        "velocity": 0.71,
        "hand": "left"
      },
      {
        "midi": 72,
        "time": 50.063,
        "duration": 0.094,
        "velocity": 0.71,
        "hand": "right"
      },
      {
        "midi": 73,
        "time": 50.063,
        "duration": 0.094,
        "velocity": 0.71,
        "hand": "right"
      },
      {
        "midi": 63,
        "time": 50.25,
        "duration": 0.375,
        "velocity": 0.71,
        "hand": "right"
      },
      {
        "midi": 65,
        "time": 50.25,
        "duration": 0.375,
        "velocity": 0.71,
        "hand": "right"
      },
      {
        "midi": 70,
        "time": 50.25,
        "duration": 0.094,
        "velocity": 0.71,
        "hand": "right"
      },
      {
        "midi": 72,
        "time": 50.25,
        "duration": 0.563,
        "velocity": 0.71,
        "hand": "right"
      },
      {
        "midi": 53,
        "time": 50.625,
        "duration": 0.375,
        "velocity": 0.71,
        "hand": "left"
      },
      {
        "midi": 73,
        "time": 50.813,
        "duration": 0.188,
        "velocity": 0.71,
        "hand": "right"
      },
      {
        "midi": 46,
        "time": 51,
        "duration": 0.375,
        "velocity": 0.71,
        "hand": "left"
      },
      {
        "midi": 70,
        "time": 51,
        "duration": 0.75,
        "velocity": 0.71,
        "hand": "right"
      },
      {
        "midi": 53,
        "time": 51.375,
        "duration": 0.375,
        "velocity": 0.71,
        "hand": "left"
      },
      {
        "midi": 60,
        "time": 51.75,
        "duration": 0.375,
        "velocity": 0.71,
        "hand": "right"
      },
      {
        "midi": 63,
        "time": 51.75,
        "duration": 0.375,
        "velocity": 0.71,
        "hand": "right"
      },
      {
        "midi": 75,
        "time": 51.75,
        "duration": 0.75,
        "velocity": 0.71,
        "hand": "right"
      },
      {
        "midi": 53,
        "time": 52.125,
        "duration": 0.375,
        "velocity": 0.71,
        "hand": "left"
      },
      {
        "midi": 61,
        "time": 52.5,
        "duration": 0.375,
        "velocity": 0.71,
        "hand": "right"
      },
      {
        "midi": 65,
        "time": 52.5,
        "duration": 0.375,
        "velocity": 0.71,
        "hand": "right"
      },
      {
        "midi": 77,
        "time": 52.5,
        "duration": 0.75,
        "velocity": 0.71,
        "hand": "right"
      },
      {
        "midi": 53,
        "time": 52.875,
        "duration": 0.375,
        "velocity": 0.71,
        "hand": "left"
      },
      {
        "midi": 60,
        "time": 53.25,
        "duration": 0.375,
        "velocity": 0.71,
        "hand": "right"
      },
      {
        "midi": 63,
        "time": 53.25,
        "duration": 0.375,
        "velocity": 0.71,
        "hand": "right"
      },
      {
        "midi": 75,
        "time": 53.25,
        "duration": 0.75,
        "velocity": 0.71,
        "hand": "right"
      },
      {
        "midi": 53,
        "time": 53.625,
        "duration": 0.375,
        "velocity": 0.71,
        "hand": "left"
      },
      {
        "midi": 61,
        "time": 54,
        "duration": 1.5,
        "velocity": 0.71,
        "hand": "right"
      },
      {
        "midi": 65,
        "time": 54,
        "duration": 1.5,
        "velocity": 0.71,
        "hand": "right"
      },
      {
        "midi": 77,
        "time": 54,
        "duration": 2.25,
        "velocity": 0.71,
        "hand": "right"
      },
      {
        "midi": 53,
        "time": 54.375,
        "duration": 0.375,
        "velocity": 0.71,
        "hand": "left"
      },
      {
        "midi": 53,
        "time": 54.75,
        "duration": 0.375,
        "velocity": 0.71,
        "hand": "left"
      },
      {
        "midi": 53,
        "time": 55.125,
        "duration": 0.375,
        "velocity": 0.71,
        "hand": "left"
      },
      {
        "midi": 61,
        "time": 55.5,
        "duration": 0.375,
        "velocity": 0.71,
        "hand": "right"
      },
      {
        "midi": 65,
        "time": 55.5,
        "duration": 0.375,
        "velocity": 0.71,
        "hand": "right"
      },
      {
        "midi": 54,
        "time": 55.875,
        "duration": 0.75,
        "velocity": 0.71,
        "hand": "left"
      },
      {
        "midi": 60,
        "time": 56.25,
        "duration": 0.375,
        "velocity": 0.71,
        "hand": "right"
      },
      {
        "midi": 63,
        "time": 56.25,
        "duration": 0.375,
        "velocity": 0.71,
        "hand": "right"
      },
      {
        "midi": 75,
        "time": 56.25,
        "duration": 0.75,
        "velocity": 0.71,
        "hand": "right"
      },
      {
        "midi": 56,
        "time": 56.625,
        "duration": 0.375,
        "velocity": 0.71,
        "hand": "left"
      },
      {
        "midi": 49,
        "time": 57,
        "duration": 0.375,
        "velocity": 0.71,
        "hand": "left"
      },
      {
        "midi": 77,
        "time": 57,
        "duration": 0.563,
        "velocity": 0.71,
        "hand": "right"
      },
      {
        "midi": 56,
        "time": 57.375,
        "duration": 0.375,
        "velocity": 0.71,
        "hand": "left"
      },
      {
        "midi": 73,
        "time": 57.563,
        "duration": 0.188,
        "velocity": 0.71,
        "hand": "right"
      },
      {
        "midi": 61,
        "time": 57.75,
        "duration": 1.5,
        "velocity": 0.71,
        "hand": "right"
      },
      {
        "midi": 65,
        "time": 57.75,
        "duration": 1.5,
        "velocity": 0.71,
        "hand": "right"
      },
      {
        "midi": 68,
        "time": 57.75,
        "duration": 1.5,
        "velocity": 0.71,
        "hand": "right"
      },
      {
        "midi": 56,
        "time": 58.125,
        "duration": 0.375,
        "velocity": 0.71,
        "hand": "left"
      },
      {
        "midi": 56,
        "time": 58.5,
        "duration": 0.375,
        "velocity": 0.71,
        "hand": "left"
      },
      {
        "midi": 56,
        "time": 58.875,
        "duration": 0.375,
        "velocity": 0.71,
        "hand": "left"
      },
      {
        "midi": 61,
        "time": 59.25,
        "duration": 0.375,
        "velocity": 0.71,
        "hand": "right"
      },
      {
        "midi": 65,
        "time": 59.25,
        "duration": 0.375,
        "velocity": 0.71,
        "hand": "right"
      },
      {
        "midi": 70,
        "time": 59.25,
        "duration": 0.75,
        "velocity": 0.71,
        "hand": "right"
      },
      {
        "midi": 56,
        "time": 59.625,
        "duration": 0.375,
        "velocity": 0.71,
        "hand": "left"
      },
      {
        "midi": 63,
        "time": 60,
        "duration": 1.5,
        "velocity": 0.71,
        "hand": "right"
      },
      {
        "midi": 66,
        "time": 60,
        "duration": 1.5,
        "velocity": 0.71,
        "hand": "right"
      },
      {
        "midi": 72,
        "time": 60,
        "duration": 2.25,
        "velocity": 0.71,
        "hand": "right"
      },
      {
        "midi": 56,
        "time": 60.375,
        "duration": 0.375,
        "velocity": 0.71,
        "hand": "left"
      },
      {
        "midi": 56,
        "time": 60.75,
        "duration": 0.375,
        "velocity": 0.71,
        "hand": "left"
      },
      {
        "midi": 56,
        "time": 61.125,
        "duration": 0.375,
        "velocity": 0.71,
        "hand": "left"
      },
      {
        "midi": 58,
        "time": 61.5,
        "duration": 0.375,
        "velocity": 0.71,
        "hand": "left"
      },
      {
        "midi": 56,
        "time": 61.875,
        "duration": 0.375,
        "velocity": 0.71,
        "hand": "left"
      },
      {
        "midi": 61,
        "time": 62.25,
        "duration": 0.375,
        "velocity": 0.71,
        "hand": "right"
      },
      {
        "midi": 65,
        "time": 62.25,
        "duration": 0.375,
        "velocity": 0.71,
        "hand": "right"
      },
      {
        "midi": 73,
        "time": 62.25,
        "duration": 0.75,
        "velocity": 0.71,
        "hand": "right"
      },
      {
        "midi": 56,
        "time": 62.625,
        "duration": 0.375,
        "velocity": 0.71,
        "hand": "left"
      },
      {
        "midi": 60,
        "time": 63,
        "duration": 2.25,
        "velocity": 0.71,
        "hand": "right"
      },
      {
        "midi": 66,
        "time": 63,
        "duration": 0.375,
        "velocity": 0.71,
        "hand": "right"
      },
      {
        "midi": 75,
        "time": 63,
        "duration": 0.563,
        "velocity": 0.71,
        "hand": "right"
      },
      {
        "midi": 56,
        "time": 63.375,
        "duration": 0.75,
        "velocity": 0.71,
        "hand": "left"
      },
      {
        "midi": 68,
        "time": 63.563,
        "duration": 0.188,
        "velocity": 0.71,
        "hand": "right"
      },
      {
        "midi": 77,
        "time": 63.563,
        "duration": 0.188,
        "velocity": 0.71,
        "hand": "right"
      },
      {
        "midi": 70,
        "time": 63.75,
        "duration": 1.5,
        "velocity": 0.71,
        "hand": "right"
      },
      {
        "midi": 78,
        "time": 63.75,
        "duration": 1.5,
        "velocity": 0.71,
        "hand": "right"
      },
      {
        "midi": 56,
        "time": 64.125,
        "duration": 0.375,
        "velocity": 0.71,
        "hand": "left"
      },
      {
        "midi": 56,
        "time": 64.5,
        "duration": 0.375,
        "velocity": 0.71,
        "hand": "left"
      },
      {
        "midi": 56,
        "time": 64.875,
        "duration": 0.75,
        "velocity": 0.71,
        "hand": "left"
      },
      {
        "midi": 61,
        "time": 65.25,
        "duration": 0.375,
        "velocity": 0.71,
        "hand": "right"
      },
      {
        "midi": 68,
        "time": 65.25,
        "duration": 0.375,
        "velocity": 0.71,
        "hand": "right"
      },
      {
        "midi": 77,
        "time": 65.25,
        "duration": 0.75,
        "velocity": 0.71,
        "hand": "right"
      },
      {
        "midi": 56,
        "time": 65.625,
        "duration": 0.375,
        "velocity": 0.71,
        "hand": "left"
      },
      {
        "midi": 60,
        "time": 66,
        "duration": 0.375,
        "velocity": 0.71,
        "hand": "right"
      },
      {
        "midi": 68,
        "time": 66,
        "duration": 0.375,
        "velocity": 0.71,
        "hand": "right"
      },
      {
        "midi": 77,
        "time": 66,
        "duration": 1.125,
        "velocity": 0.71,
        "hand": "right"
      },
      {
        "midi": 56,
        "time": 66.375,
        "duration": 0.375,
        "velocity": 0.71,
        "hand": "left"
      },
      {
        "midi": 60,
        "time": 66.75,
        "duration": 0.375,
        "velocity": 0.71,
        "hand": "right"
      },
      {
        "midi": 66,
        "time": 66.75,
        "duration": 0.375,
        "velocity": 0.71,
        "hand": "right"
      },
      {
        "midi": 56,
        "time": 67.125,
        "duration": 0.375,
        "velocity": 0.71,
        "hand": "left"
      },
      {
        "midi": 75,
        "time": 67.125,
        "duration": 0.375,
        "velocity": 0.71,
        "hand": "right"
      },
      {
        "midi": 61,
        "time": 67.5,
        "duration": 0.375,
        "velocity": 0.71,
        "hand": "right"
      },
      {
        "midi": 65,
        "time": 67.5,
        "duration": 0.375,
        "velocity": 0.71,
        "hand": "right"
      },
      {
        "midi": 73,
        "time": 67.5,
        "duration": 0.75,
        "velocity": 0.71,
        "hand": "right"
      },
      {
        "midi": 56,
        "time": 67.875,
        "duration": 0.375,
        "velocity": 0.71,
        "hand": "left"
      },
      {
        "midi": 60,
        "time": 68.25,
        "duration": 0.375,
        "velocity": 0.71,
        "hand": "right"
      },
      {
        "midi": 66,
        "time": 68.25,
        "duration": 0.375,
        "velocity": 0.71,
        "hand": "right"
      },
      {
        "midi": 74,
        "time": 68.25,
        "duration": 0.188,
        "velocity": 0.71,
        "hand": "right"
      },
      {
        "midi": 75,
        "time": 68.438,
        "duration": 0.188,
        "velocity": 0.71,
        "hand": "right"
      },
      {
        "midi": 76,
        "time": 68.438,
        "duration": 0.188,
        "velocity": 0.71,
        "hand": "right"
      },
      {
        "midi": 56,
        "time": 68.625,
        "duration": 0.375,
        "velocity": 0.71,
        "hand": "left"
      },
      {
        "midi": 77,
        "time": 68.625,
        "duration": 0.188,
        "velocity": 0.71,
        "hand": "right"
      },
      {
        "midi": 80,
        "time": 68.625,
        "duration": 0.188,
        "velocity": 0.71,
        "hand": "right"
      },
      {
        "midi": 78,
        "time": 68.813,
        "duration": 0.188,
        "velocity": 0.71,
        "hand": "right"
      },
      {
        "midi": 79,
        "time": 68.813,
        "duration": 0.188,
        "velocity": 0.71,
        "hand": "right"
      },
      {
        "midi": 49,
        "time": 69,
        "duration": 0.375,
        "velocity": 0.71,
        "hand": "left"
      },
      {
        "midi": 77,
        "time": 69,
        "duration": 0.563,
        "velocity": 0.71,
        "hand": "right"
      },
      {
        "midi": 56,
        "time": 69.375,
        "duration": 0.375,
        "velocity": 0.71,
        "hand": "left"
      },
      {
        "midi": 73,
        "time": 69.563,
        "duration": 0.188,
        "velocity": 0.71,
        "hand": "right"
      },
      {
        "midi": 61,
        "time": 69.75,
        "duration": 1.5,
        "velocity": 0.71,
        "hand": "right"
      },
      {
        "midi": 65,
        "time": 69.75,
        "duration": 1.5,
        "velocity": 0.71,
        "hand": "right"
      },
      {
        "midi": 68,
        "time": 69.75,
        "duration": 1.5,
        "velocity": 0.71,
        "hand": "right"
      },
      {
        "midi": 56,
        "time": 70.125,
        "duration": 0.375,
        "velocity": 0.71,
        "hand": "left"
      },
      {
        "midi": 56,
        "time": 70.5,
        "duration": 0.375,
        "velocity": 0.71,
        "hand": "left"
      },
      {
        "midi": 56,
        "time": 70.875,
        "duration": 0.375,
        "velocity": 0.71,
        "hand": "left"
      },
      {
        "midi": 56,
        "time": 71.25,
        "duration": 0.375,
        "velocity": 0.71,
        "hand": "left"
      },
      {
        "midi": 70,
        "time": 71.25,
        "duration": 0.75,
        "velocity": 0.71,
        "hand": "right"
      },
      {
        "midi": 56,
        "time": 71.625,
        "duration": 0.375,
        "velocity": 0.71,
        "hand": "left"
      },
      {
        "midi": 63,
        "time": 72,
        "duration": 1.5,
        "velocity": 0.71,
        "hand": "right"
      },
      {
        "midi": 66,
        "time": 72,
        "duration": 1.5,
        "velocity": 0.71,
        "hand": "right"
      },
      {
        "midi": 72,
        "time": 72,
        "duration": 2.25,
        "velocity": 0.71,
        "hand": "right"
      },
      {
        "midi": 56,
        "time": 72.375,
        "duration": 0.375,
        "velocity": 0.71,
        "hand": "left"
      },
      {
        "midi": 56,
        "time": 72.75,
        "duration": 0.375,
        "velocity": 0.71,
        "hand": "left"
      },
      {
        "midi": 56,
        "time": 73.125,
        "duration": 0.375,
        "velocity": 0.71,
        "hand": "left"
      },
      {
        "midi": 58,
        "time": 73.5,
        "duration": 0.375,
        "velocity": 0.71,
        "hand": "left"
      },
      {
        "midi": 56,
        "time": 73.875,
        "duration": 0.375,
        "velocity": 0.71,
        "hand": "left"
      },
      {
        "midi": 61,
        "time": 74.25,
        "duration": 0.375,
        "velocity": 0.71,
        "hand": "right"
      },
      {
        "midi": 65,
        "time": 74.25,
        "duration": 0.375,
        "velocity": 0.71,
        "hand": "right"
      },
      {
        "midi": 73,
        "time": 74.25,
        "duration": 0.75,
        "velocity": 0.71,
        "hand": "right"
      },
      {
        "midi": 56,
        "time": 74.625,
        "duration": 0.375,
        "velocity": 0.71,
        "hand": "left"
      },
      {
        "midi": 60,
        "time": 75,
        "duration": 2.25,
        "velocity": 0.71,
        "hand": "right"
      },
      {
        "midi": 66,
        "time": 75,
        "duration": 0.375,
        "velocity": 0.71,
        "hand": "right"
      },
      {
        "midi": 75,
        "time": 75,
        "duration": 0.563,
        "velocity": 0.71,
        "hand": "right"
      },
      {
        "midi": 56,
        "time": 75.375,
        "duration": 0.75,
        "velocity": 0.71,
        "hand": "left"
      },
      {
        "midi": 68,
        "time": 75.563,
        "duration": 0.188,
        "velocity": 0.71,
        "hand": "right"
      },
      {
        "midi": 77,
        "time": 75.563,
        "duration": 0.188,
        "velocity": 0.71,
        "hand": "right"
      },
      {
        "midi": 70,
        "time": 75.75,
        "duration": 1.5,
        "velocity": 0.71,
        "hand": "right"
      },
      {
        "midi": 78,
        "time": 75.75,
        "duration": 1.5,
        "velocity": 0.71,
        "hand": "right"
      },
      {
        "midi": 56,
        "time": 76.125,
        "duration": 0.375,
        "velocity": 0.71,
        "hand": "left"
      },
      {
        "midi": 56,
        "time": 76.5,
        "duration": 0.375,
        "velocity": 0.71,
        "hand": "left"
      },
      {
        "midi": 56,
        "time": 76.875,
        "duration": 0.75,
        "velocity": 0.71,
        "hand": "left"
      },
      {
        "midi": 63,
        "time": 77.25,
        "duration": 0.375,
        "velocity": 0.71,
        "hand": "right"
      },
      {
        "midi": 72,
        "time": 77.25,
        "duration": 0.75,
        "velocity": 0.71,
        "hand": "right"
      },
      {
        "midi": 56,
        "time": 77.625,
        "duration": 0.375,
        "velocity": 0.71,
        "hand": "left"
      },
      {
        "midi": 66,
        "time": 78,
        "duration": 1.5,
        "velocity": 0.71,
        "hand": "right"
      },
      {
        "midi": 75,
        "time": 78,
        "duration": 1.5,
        "velocity": 0.71,
        "hand": "right"
      },
      {
        "midi": 56,
        "time": 78.375,
        "duration": 0.375,
        "velocity": 0.71,
        "hand": "left"
      },
      {
        "midi": 56,
        "time": 78.75,
        "duration": 0.375,
        "velocity": 0.71,
        "hand": "left"
      },
      {
        "midi": 56,
        "time": 79.125,
        "duration": 0.375,
        "velocity": 0.71,
        "hand": "left"
      },
      {
        "midi": 56,
        "time": 79.5,
        "duration": 0.375,
        "velocity": 0.71,
        "hand": "left"
      },
      {
        "midi": 56,
        "time": 79.875,
        "duration": 0.375,
        "velocity": 0.71,
        "hand": "left"
      },
      {
        "midi": 56,
        "time": 80.25,
        "duration": 0.375,
        "velocity": 0.71,
        "hand": "left"
      },
      {
        "midi": 56,
        "time": 80.625,
        "duration": 0.375,
        "velocity": 0.71,
        "hand": "left"
      },
      {
        "midi": 37,
        "time": 81,
        "duration": 0.75,
        "velocity": 0.71,
        "hand": "left"
      },
      {
        "midi": 44,
        "time": 81,
        "duration": 0.75,
        "velocity": 0.71,
        "hand": "left"
      },
      {
        "midi": 56,
        "time": 81,
        "duration": 0.375,
        "velocity": 0.71,
        "hand": "left"
      },
      {
        "midi": 56,
        "time": 81.375,
        "duration": 0.375,
        "velocity": 0.71,
        "hand": "left"
      },
      {
        "midi": 39,
        "time": 81.75,
        "duration": 0.75,
        "velocity": 0.71,
        "hand": "left"
      },
      {
        "midi": 44,
        "time": 81.75,
        "duration": 0.75,
        "velocity": 0.71,
        "hand": "left"
      },
      {
        "midi": 56,
        "time": 81.75,
        "duration": 0.375,
        "velocity": 0.71,
        "hand": "left"
      },
      {
        "midi": 56,
        "time": 82.125,
        "duration": 0.375,
        "velocity": 0.71,
        "hand": "left"
      },
      {
        "midi": 40,
        "time": 82.5,
        "duration": 0.75,
        "velocity": 0.71,
        "hand": "left"
      },
      {
        "midi": 49,
        "time": 82.5,
        "duration": 0.75,
        "velocity": 0.71,
        "hand": "left"
      },
      {
        "midi": 56,
        "time": 82.5,
        "duration": 0.375,
        "velocity": 0.71,
        "hand": "left"
      },
      {
        "midi": 56,
        "time": 82.875,
        "duration": 0.375,
        "velocity": 0.71,
        "hand": "left"
      },
      {
        "midi": 39,
        "time": 83.25,
        "duration": 0.75,
        "velocity": 0.71,
        "hand": "left"
      },
      {
        "midi": 48,
        "time": 83.25,
        "duration": 0.75,
        "velocity": 0.71,
        "hand": "left"
      },
      {
        "midi": 56,
        "time": 83.25,
        "duration": 0.375,
        "velocity": 0.71,
        "hand": "left"
      },
      {
        "midi": 56,
        "time": 83.625,
        "duration": 0.375,
        "velocity": 0.71,
        "hand": "left"
      },
      {
        "midi": 39,
        "time": 84,
        "duration": 0.75,
        "velocity": 0.71,
        "hand": "left"
      },
      {
        "midi": 44,
        "time": 84,
        "duration": 0.75,
        "velocity": 0.71,
        "hand": "left"
      },
      {
        "midi": 56,
        "time": 84,
        "duration": 0.375,
        "velocity": 0.71,
        "hand": "left"
      },
      {
        "midi": 56,
        "time": 84.375,
        "duration": 0.375,
        "velocity": 0.71,
        "hand": "left"
      },
      {
        "midi": 40,
        "time": 84.75,
        "duration": 0.75,
        "velocity": 0.71,
        "hand": "left"
      },
      {
        "midi": 44,
        "time": 84.75,
        "duration": 0.75,
        "velocity": 0.71,
        "hand": "left"
      },
      {
        "midi": 56,
        "time": 84.75,
        "duration": 0.375,
        "velocity": 0.71,
        "hand": "left"
      },
      {
        "midi": 56,
        "time": 85.125,
        "duration": 0.375,
        "velocity": 0.71,
        "hand": "left"
      },
      {
        "midi": 42,
        "time": 85.5,
        "duration": 0.75,
        "velocity": 0.71,
        "hand": "left"
      },
      {
        "midi": 51,
        "time": 85.5,
        "duration": 0.75,
        "velocity": 0.71,
        "hand": "left"
      },
      {
        "midi": 56,
        "time": 85.5,
        "duration": 0.375,
        "velocity": 0.71,
        "hand": "left"
      },
      {
        "midi": 56,
        "time": 85.875,
        "duration": 0.375,
        "velocity": 0.71,
        "hand": "left"
      },
      {
        "midi": 40,
        "time": 86.25,
        "duration": 0.75,
        "velocity": 0.71,
        "hand": "left"
      },
      {
        "midi": 49,
        "time": 86.25,
        "duration": 0.75,
        "velocity": 0.71,
        "hand": "left"
      },
      {
        "midi": 56,
        "time": 86.25,
        "duration": 0.375,
        "velocity": 0.71,
        "hand": "left"
      },
      {
        "midi": 56,
        "time": 86.625,
        "duration": 0.375,
        "velocity": 0.71,
        "hand": "left"
      },
      {
        "midi": 40,
        "time": 87,
        "duration": 0.75,
        "velocity": 0.71,
        "hand": "left"
      },
      {
        "midi": 49,
        "time": 87,
        "duration": 0.75,
        "velocity": 0.71,
        "hand": "left"
      },
      {
        "midi": 56,
        "time": 87,
        "duration": 0.375,
        "velocity": 0.71,
        "hand": "left"
      },
      {
        "midi": 56,
        "time": 87.375,
        "duration": 0.375,
        "velocity": 0.71,
        "hand": "left"
      },
      {
        "midi": 44,
        "time": 87.75,
        "duration": 0.75,
        "velocity": 0.71,
        "hand": "left"
      },
      {
        "midi": 51,
        "time": 87.75,
        "duration": 0.75,
        "velocity": 0.71,
        "hand": "left"
      },
      {
        "midi": 56,
        "time": 87.75,
        "duration": 0.375,
        "velocity": 0.71,
        "hand": "left"
      },
      {
        "midi": 56,
        "time": 88.125,
        "duration": 0.375,
        "velocity": 0.71,
        "hand": "left"
      },
      {
        "midi": 49,
        "time": 88.5,
        "duration": 0.75,
        "velocity": 0.71,
        "hand": "left"
      },
      {
        "midi": 52,
        "time": 88.5,
        "duration": 0.75,
        "velocity": 0.71,
        "hand": "left"
      },
      {
        "midi": 56,
        "time": 88.5,
        "duration": 0.375,
        "velocity": 0.71,
        "hand": "left"
      },
      {
        "midi": 56,
        "time": 88.875,
        "duration": 0.375,
        "velocity": 0.71,
        "hand": "left"
      },
      {
        "midi": 44,
        "time": 89.25,
        "duration": 0.75,
        "velocity": 0.71,
        "hand": "left"
      },
      {
        "midi": 51,
        "time": 89.25,
        "duration": 0.75,
        "velocity": 0.71,
        "hand": "left"
      },
      {
        "midi": 56,
        "time": 89.25,
        "duration": 0.375,
        "velocity": 0.71,
        "hand": "left"
      },
      {
        "midi": 56,
        "time": 89.625,
        "duration": 0.375,
        "velocity": 0.71,
        "hand": "left"
      },
      {
        "midi": 44,
        "time": 90,
        "duration": 3.75,
        "velocity": 0.71,
        "hand": "left"
      },
      {
        "midi": 51,
        "time": 90,
        "duration": 3.75,
        "velocity": 0.71,
        "hand": "left"
      },
      {
        "midi": 56,
        "time": 90,
        "duration": 0.375,
        "velocity": 0.71,
        "hand": "left"
      },
      {
        "midi": 56,
        "time": 90.375,
        "duration": 0.375,
        "velocity": 0.71,
        "hand": "left"
      },
      {
        "midi": 56,
        "time": 90.75,
        "duration": 0.375,
        "velocity": 0.71,
        "hand": "left"
      },
      {
        "midi": 56,
        "time": 91.125,
        "duration": 0.375,
        "velocity": 0.71,
        "hand": "left"
      },
      {
        "midi": 56,
        "time": 91.5,
        "duration": 0.375,
        "velocity": 0.71,
        "hand": "left"
      },
      {
        "midi": 56,
        "time": 91.875,
        "duration": 0.375,
        "velocity": 0.71,
        "hand": "left"
      },
      {
        "midi": 56,
        "time": 92.25,
        "duration": 0.375,
        "velocity": 0.71,
        "hand": "left"
      },
      {
        "midi": 56,
        "time": 92.625,
        "duration": 0.375,
        "velocity": 0.71,
        "hand": "left"
      },
      {
        "midi": 56,
        "time": 93,
        "duration": 0.375,
        "velocity": 0.71,
        "hand": "left"
      },
      {
        "midi": 56,
        "time": 93.375,
        "duration": 0.375,
        "velocity": 0.71,
        "hand": "left"
      },
      {
        "midi": 49,
        "time": 93.75,
        "duration": 0.75,
        "velocity": 0.71,
        "hand": "left"
      },
      {
        "midi": 52,
        "time": 93.75,
        "duration": 0.75,
        "velocity": 0.71,
        "hand": "left"
      },
      {
        "midi": 56,
        "time": 93.75,
        "duration": 0.375,
        "velocity": 0.71,
        "hand": "left"
      },
      {
        "midi": 56,
        "time": 94.125,
        "duration": 0.375,
        "velocity": 0.71,
        "hand": "left"
      },
      {
        "midi": 44,
        "time": 94.5,
        "duration": 0.75,
        "velocity": 0.71,
        "hand": "left"
      },
      {
        "midi": 51,
        "time": 94.5,
        "duration": 0.75,
        "velocity": 0.71,
        "hand": "left"
      },
      {
        "midi": 56,
        "time": 94.5,
        "duration": 0.375,
        "velocity": 0.71,
        "hand": "left"
      },
      {
        "midi": 56,
        "time": 94.875,
        "duration": 0.375,
        "velocity": 0.71,
        "hand": "left"
      },
      {
        "midi": 40,
        "time": 95.25,
        "duration": 0.75,
        "velocity": 0.71,
        "hand": "left"
      },
      {
        "midi": 49,
        "time": 95.25,
        "duration": 0.75,
        "velocity": 0.71,
        "hand": "left"
      },
      {
        "midi": 56,
        "time": 95.25,
        "duration": 0.375,
        "velocity": 0.71,
        "hand": "left"
      },
      {
        "midi": 56,
        "time": 95.625,
        "duration": 0.375,
        "velocity": 0.71,
        "hand": "left"
      },
      {
        "midi": 44,
        "time": 96,
        "duration": 0.75,
        "velocity": 0.71,
        "hand": "left"
      },
      {
        "midi": 51,
        "time": 96,
        "duration": 0.75,
        "velocity": 0.71,
        "hand": "left"
      },
      {
        "midi": 56,
        "time": 96,
        "duration": 0.375,
        "velocity": 0.71,
        "hand": "left"
      },
      {
        "midi": 56,
        "time": 96.375,
        "duration": 0.375,
        "velocity": 0.71,
        "hand": "left"
      },
      {
        "midi": 40,
        "time": 96.75,
        "duration": 0.75,
        "velocity": 0.71,
        "hand": "left"
      },
      {
        "midi": 49,
        "time": 96.75,
        "duration": 0.75,
        "velocity": 0.71,
        "hand": "left"
      },
      {
        "midi": 56,
        "time": 96.75,
        "duration": 0.375,
        "velocity": 0.71,
        "hand": "left"
      },
      {
        "midi": 56,
        "time": 97.125,
        "duration": 0.375,
        "velocity": 0.71,
        "hand": "left"
      },
      {
        "midi": 39,
        "time": 97.5,
        "duration": 0.75,
        "velocity": 0.71,
        "hand": "left"
      },
      {
        "midi": 48,
        "time": 97.5,
        "duration": 0.75,
        "velocity": 0.71,
        "hand": "left"
      },
      {
        "midi": 56,
        "time": 97.5,
        "duration": 0.375,
        "velocity": 0.71,
        "hand": "left"
      },
      {
        "midi": 56,
        "time": 97.875,
        "duration": 0.375,
        "velocity": 0.71,
        "hand": "left"
      },
      {
        "midi": 40,
        "time": 98.25,
        "duration": 0.75,
        "velocity": 0.71,
        "hand": "left"
      },
      {
        "midi": 49,
        "time": 98.25,
        "duration": 0.75,
        "velocity": 0.71,
        "hand": "left"
      },
      {
        "midi": 56,
        "time": 98.25,
        "duration": 0.375,
        "velocity": 0.71,
        "hand": "left"
      },
      {
        "midi": 56,
        "time": 98.625,
        "duration": 0.375,
        "velocity": 0.71,
        "hand": "left"
      },
      {
        "midi": 39,
        "time": 99,
        "duration": 0.75,
        "velocity": 0.71,
        "hand": "left"
      },
      {
        "midi": 48,
        "time": 99,
        "duration": 0.75,
        "velocity": 0.71,
        "hand": "left"
      },
      {
        "midi": 56,
        "time": 99,
        "duration": 0.375,
        "velocity": 0.71,
        "hand": "left"
      },
      {
        "midi": 56,
        "time": 99.375,
        "duration": 0.375,
        "velocity": 0.71,
        "hand": "left"
      },
      {
        "midi": 40,
        "time": 99.75,
        "duration": 0.75,
        "velocity": 0.71,
        "hand": "left"
      },
      {
        "midi": 49,
        "time": 99.75,
        "duration": 0.75,
        "velocity": 0.71,
        "hand": "left"
      },
      {
        "midi": 56,
        "time": 99.75,
        "duration": 0.375,
        "velocity": 0.71,
        "hand": "left"
      },
      {
        "midi": 56,
        "time": 100.125,
        "duration": 0.375,
        "velocity": 0.71,
        "hand": "left"
      },
      {
        "midi": 39,
        "time": 100.5,
        "duration": 0.75,
        "velocity": 0.71,
        "hand": "left"
      },
      {
        "midi": 51,
        "time": 100.5,
        "duration": 0.75,
        "velocity": 0.71,
        "hand": "left"
      },
      {
        "midi": 56,
        "time": 100.5,
        "duration": 0.375,
        "velocity": 0.71,
        "hand": "left"
      },
      {
        "midi": 56,
        "time": 100.875,
        "duration": 0.375,
        "velocity": 0.71,
        "hand": "left"
      },
      {
        "midi": 37,
        "time": 101.25,
        "duration": 0.75,
        "velocity": 0.71,
        "hand": "left"
      },
      {
        "midi": 52,
        "time": 101.25,
        "duration": 0.75,
        "velocity": 0.71,
        "hand": "left"
      },
      {
        "midi": 56,
        "time": 101.25,
        "duration": 0.375,
        "velocity": 0.71,
        "hand": "left"
      },
      {
        "midi": 56,
        "time": 101.625,
        "duration": 0.375,
        "velocity": 0.71,
        "hand": "left"
      },
      {
        "midi": 44,
        "time": 102,
        "duration": 3,
        "velocity": 0.71,
        "hand": "left"
      },
      {
        "midi": 51,
        "time": 102,
        "duration": 3,
        "velocity": 0.71,
        "hand": "left"
      },
      {
        "midi": 56,
        "time": 102,
        "duration": 0.375,
        "velocity": 0.71,
        "hand": "left"
      },
      {
        "midi": 56,
        "time": 102.375,
        "duration": 0.375,
        "velocity": 0.71,
        "hand": "left"
      },
      {
        "midi": 68,
        "time": 102.375,
        "duration": 0.375,
        "velocity": 0.71,
        "hand": "right"
      },
      {
        "midi": 56,
        "time": 102.75,
        "duration": 0.375,
        "velocity": 0.71,
        "hand": "left"
      },
      {
        "midi": 68,
        "time": 102.75,
        "duration": 0.375,
        "velocity": 0.71,
        "hand": "right"
      },
      {
        "midi": 56,
        "time": 103.125,
        "duration": 0.375,
        "velocity": 0.71,
        "hand": "left"
      },
      {
        "midi": 68,
        "time": 103.125,
        "duration": 0.375,
        "velocity": 0.71,
        "hand": "right"
      },
      {
        "midi": 56,
        "time": 103.5,
        "duration": 0.375,
        "velocity": 0.71,
        "hand": "left"
      },
      {
        "midi": 68,
        "time": 103.5,
        "duration": 0.375,
        "velocity": 0.71,
        "hand": "right"
      },
      {
        "midi": 56,
        "time": 103.875,
        "duration": 0.375,
        "velocity": 0.71,
        "hand": "left"
      },
      {
        "midi": 68,
        "time": 103.875,
        "duration": 0.375,
        "velocity": 0.71,
        "hand": "right"
      },
      {
        "midi": 56,
        "time": 104.25,
        "duration": 0.375,
        "velocity": 0.71,
        "hand": "left"
      },
      {
        "midi": 68,
        "time": 104.25,
        "duration": 0.375,
        "velocity": 0.71,
        "hand": "right"
      },
      {
        "midi": 56,
        "time": 104.625,
        "duration": 0.375,
        "velocity": 0.71,
        "hand": "left"
      },
      {
        "midi": 68,
        "time": 104.625,
        "duration": 0.375,
        "velocity": 0.71,
        "hand": "right"
      },
      {
        "midi": 37,
        "time": 105,
        "duration": 0.75,
        "velocity": 0.71,
        "hand": "left"
      },
      {
        "midi": 44,
        "time": 105,
        "duration": 0.75,
        "velocity": 0.71,
        "hand": "left"
      },
      {
        "midi": 56,
        "time": 105,
        "duration": 0.375,
        "velocity": 0.71,
        "hand": "left"
      },
      {
        "midi": 68,
        "time": 105,
        "duration": 0.375,
        "velocity": 0.71,
        "hand": "right"
      },
      {
        "midi": 56,
        "time": 105.375,
        "duration": 0.375,
        "velocity": 0.71,
        "hand": "left"
      },
      {
        "midi": 68,
        "time": 105.375,
        "duration": 0.375,
        "velocity": 0.71,
        "hand": "right"
      },
      {
        "midi": 39,
        "time": 105.75,
        "duration": 0.75,
        "velocity": 0.71,
        "hand": "left"
      },
      {
        "midi": 44,
        "time": 105.75,
        "duration": 0.75,
        "velocity": 0.71,
        "hand": "left"
      },
      {
        "midi": 56,
        "time": 105.75,
        "duration": 0.375,
        "velocity": 0.71,
        "hand": "left"
      },
      {
        "midi": 68,
        "time": 105.75,
        "duration": 0.375,
        "velocity": 0.71,
        "hand": "right"
      },
      {
        "midi": 56,
        "time": 106.125,
        "duration": 0.375,
        "velocity": 0.71,
        "hand": "left"
      },
      {
        "midi": 68,
        "time": 106.125,
        "duration": 0.375,
        "velocity": 0.71,
        "hand": "right"
      },
      {
        "midi": 40,
        "time": 106.5,
        "duration": 0.75,
        "velocity": 0.71,
        "hand": "left"
      },
      {
        "midi": 49,
        "time": 106.5,
        "duration": 0.75,
        "velocity": 0.71,
        "hand": "left"
      },
      {
        "midi": 56,
        "time": 106.5,
        "duration": 0.375,
        "velocity": 0.71,
        "hand": "left"
      },
      {
        "midi": 61,
        "time": 106.5,
        "duration": 0.75,
        "velocity": 0.71,
        "hand": "right"
      },
      {
        "midi": 68,
        "time": 106.5,
        "duration": 0.375,
        "velocity": 0.71,
        "hand": "right"
      },
      {
        "midi": 56,
        "time": 106.875,
        "duration": 0.375,
        "velocity": 0.71,
        "hand": "left"
      },
      {
        "midi": 68,
        "time": 106.875,
        "duration": 0.375,
        "velocity": 0.71,
        "hand": "right"
      },
      {
        "midi": 39,
        "time": 107.25,
        "duration": 0.75,
        "velocity": 0.71,
        "hand": "left"
      },
      {
        "midi": 48,
        "time": 107.25,
        "duration": 0.75,
        "velocity": 0.71,
        "hand": "left"
      },
      {
        "midi": 56,
        "time": 107.25,
        "duration": 0.375,
        "velocity": 0.71,
        "hand": "left"
      },
      {
        "midi": 60,
        "time": 107.25,
        "duration": 0.75,
        "velocity": 0.71,
        "hand": "right"
      },
      {
        "midi": 68,
        "time": 107.25,
        "duration": 0.375,
        "velocity": 0.71,
        "hand": "right"
      },
      {
        "midi": 56,
        "time": 107.625,
        "duration": 0.375,
        "velocity": 0.71,
        "hand": "left"
      },
      {
        "midi": 68,
        "time": 107.625,
        "duration": 0.375,
        "velocity": 0.71,
        "hand": "right"
      },
      {
        "midi": 39,
        "time": 108,
        "duration": 0.75,
        "velocity": 0.71,
        "hand": "left"
      },
      {
        "midi": 44,
        "time": 108,
        "duration": 0.75,
        "velocity": 0.71,
        "hand": "left"
      },
      {
        "midi": 56,
        "time": 108,
        "duration": 0.375,
        "velocity": 0.71,
        "hand": "left"
      },
      {
        "midi": 68,
        "time": 108,
        "duration": 0.375,
        "velocity": 0.71,
        "hand": "right"
      },
      {
        "midi": 56,
        "time": 108.375,
        "duration": 0.375,
        "velocity": 0.71,
        "hand": "left"
      },
      {
        "midi": 68,
        "time": 108.375,
        "duration": 0.375,
        "velocity": 0.71,
        "hand": "right"
      },
      {
        "midi": 40,
        "time": 108.75,
        "duration": 0.75,
        "velocity": 0.71,
        "hand": "left"
      },
      {
        "midi": 44,
        "time": 108.75,
        "duration": 0.75,
        "velocity": 0.71,
        "hand": "left"
      },
      {
        "midi": 56,
        "time": 108.75,
        "duration": 0.375,
        "velocity": 0.71,
        "hand": "left"
      },
      {
        "midi": 68,
        "time": 108.75,
        "duration": 0.375,
        "velocity": 0.71,
        "hand": "right"
      },
      {
        "midi": 56,
        "time": 109.125,
        "duration": 0.375,
        "velocity": 0.71,
        "hand": "left"
      },
      {
        "midi": 68,
        "time": 109.125,
        "duration": 0.375,
        "velocity": 0.71,
        "hand": "right"
      },
      {
        "midi": 42,
        "time": 109.5,
        "duration": 0.75,
        "velocity": 0.71,
        "hand": "left"
      },
      {
        "midi": 51,
        "time": 109.5,
        "duration": 0.75,
        "velocity": 0.71,
        "hand": "left"
      },
      {
        "midi": 56,
        "time": 109.5,
        "duration": 0.375,
        "velocity": 0.71,
        "hand": "left"
      },
      {
        "midi": 63,
        "time": 109.5,
        "duration": 0.75,
        "velocity": 0.71,
        "hand": "right"
      },
      {
        "midi": 68,
        "time": 109.5,
        "duration": 0.375,
        "velocity": 0.71,
        "hand": "right"
      },
      {
        "midi": 56,
        "time": 109.875,
        "duration": 0.375,
        "velocity": 0.71,
        "hand": "left"
      },
      {
        "midi": 68,
        "time": 109.875,
        "duration": 0.375,
        "velocity": 0.71,
        "hand": "right"
      },
      {
        "midi": 40,
        "time": 110.25,
        "duration": 0.75,
        "velocity": 0.71,
        "hand": "left"
      },
      {
        "midi": 49,
        "time": 110.25,
        "duration": 0.75,
        "velocity": 0.71,
        "hand": "left"
      },
      {
        "midi": 56,
        "time": 110.25,
        "duration": 0.375,
        "velocity": 0.71,
        "hand": "left"
      },
      {
        "midi": 61,
        "time": 110.25,
        "duration": 1.5,
        "velocity": 0.71,
        "hand": "right"
      },
      {
        "midi": 68,
        "time": 110.25,
        "duration": 0.375,
        "velocity": 0.71,
        "hand": "right"
      },
      {
        "midi": 56,
        "time": 110.625,
        "duration": 0.375,
        "velocity": 0.71,
        "hand": "left"
      },
      {
        "midi": 68,
        "time": 110.625,
        "duration": 0.375,
        "velocity": 0.71,
        "hand": "right"
      },
      {
        "midi": 40,
        "time": 111,
        "duration": 0.75,
        "velocity": 0.71,
        "hand": "left"
      },
      {
        "midi": 49,
        "time": 111,
        "duration": 0.75,
        "velocity": 0.71,
        "hand": "left"
      },
      {
        "midi": 56,
        "time": 111,
        "duration": 0.375,
        "velocity": 0.71,
        "hand": "left"
      },
      {
        "midi": 68,
        "time": 111,
        "duration": 0.375,
        "velocity": 0.71,
        "hand": "right"
      },
      {
        "midi": 56,
        "time": 111.375,
        "duration": 0.375,
        "velocity": 0.71,
        "hand": "left"
      },
      {
        "midi": 68,
        "time": 111.375,
        "duration": 0.375,
        "velocity": 0.71,
        "hand": "right"
      },
      {
        "midi": 44,
        "time": 111.75,
        "duration": 0.75,
        "velocity": 0.71,
        "hand": "left"
      },
      {
        "midi": 51,
        "time": 111.75,
        "duration": 0.75,
        "velocity": 0.71,
        "hand": "left"
      },
      {
        "midi": 56,
        "time": 111.75,
        "duration": 0.375,
        "velocity": 0.71,
        "hand": "left"
      },
      {
        "midi": 63,
        "time": 111.75,
        "duration": 0.75,
        "velocity": 0.71,
        "hand": "right"
      },
      {
        "midi": 68,
        "time": 111.75,
        "duration": 0.375,
        "velocity": 0.71,
        "hand": "right"
      },
      {
        "midi": 56,
        "time": 112.125,
        "duration": 0.375,
        "velocity": 0.71,
        "hand": "left"
      },
      {
        "midi": 68,
        "time": 112.125,
        "duration": 0.375,
        "velocity": 0.71,
        "hand": "right"
      },
      {
        "midi": 49,
        "time": 112.5,
        "duration": 0.75,
        "velocity": 0.71,
        "hand": "left"
      },
      {
        "midi": 52,
        "time": 112.5,
        "duration": 0.75,
        "velocity": 0.71,
        "hand": "left"
      },
      {
        "midi": 56,
        "time": 112.5,
        "duration": 0.375,
        "velocity": 0.71,
        "hand": "left"
      },
      {
        "midi": 64,
        "time": 112.5,
        "duration": 0.75,
        "velocity": 0.71,
        "hand": "right"
      },
      {
        "midi": 68,
        "time": 112.5,
        "duration": 0.375,
        "velocity": 0.71,
        "hand": "right"
      },
      {
        "midi": 56,
        "time": 112.875,
        "duration": 0.375,
        "velocity": 0.71,
        "hand": "left"
      },
      {
        "midi": 68,
        "time": 112.875,
        "duration": 0.375,
        "velocity": 0.71,
        "hand": "right"
      },
      {
        "midi": 44,
        "time": 113.25,
        "duration": 0.75,
        "velocity": 0.71,
        "hand": "left"
      },
      {
        "midi": 51,
        "time": 113.25,
        "duration": 0.75,
        "velocity": 0.71,
        "hand": "left"
      },
      {
        "midi": 56,
        "time": 113.25,
        "duration": 0.375,
        "velocity": 0.71,
        "hand": "left"
      },
      {
        "midi": 63,
        "time": 113.25,
        "duration": 0.75,
        "velocity": 0.71,
        "hand": "right"
      },
      {
        "midi": 68,
        "time": 113.25,
        "duration": 0.375,
        "velocity": 0.71,
        "hand": "right"
      },
      {
        "midi": 56,
        "time": 113.625,
        "duration": 0.375,
        "velocity": 0.71,
        "hand": "left"
      },
      {
        "midi": 68,
        "time": 113.625,
        "duration": 0.375,
        "velocity": 0.71,
        "hand": "right"
      },
      {
        "midi": 32,
        "time": 114,
        "duration": 0.094,
        "velocity": 0.71,
        "hand": "left"
      },
      {
        "midi": 44,
        "time": 114,
        "duration": 3,
        "velocity": 0.71,
        "hand": "left"
      },
      {
        "midi": 51,
        "time": 114,
        "duration": 3,
        "velocity": 0.71,
        "hand": "left"
      },
      {
        "midi": 56,
        "time": 114,
        "duration": 0.375,
        "velocity": 0.71,
        "hand": "left"
      },
      {
        "midi": 63,
        "time": 114,
        "duration": 3,
        "velocity": 0.71,
        "hand": "right"
      },
      {
        "midi": 68,
        "time": 114,
        "duration": 0.375,
        "velocity": 0.71,
        "hand": "right"
      },
      {
        "midi": 56,
        "time": 114.375,
        "duration": 0.375,
        "velocity": 0.71,
        "hand": "left"
      },
      {
        "midi": 68,
        "time": 114.375,
        "duration": 0.375,
        "velocity": 0.71,
        "hand": "right"
      },
      {
        "midi": 56,
        "time": 114.75,
        "duration": 0.375,
        "velocity": 0.71,
        "hand": "left"
      },
      {
        "midi": 68,
        "time": 114.75,
        "duration": 0.375,
        "velocity": 0.71,
        "hand": "right"
      },
      {
        "midi": 56,
        "time": 115.125,
        "duration": 0.375,
        "velocity": 0.71,
        "hand": "left"
      },
      {
        "midi": 68,
        "time": 115.125,
        "duration": 0.375,
        "velocity": 0.71,
        "hand": "right"
      },
      {
        "midi": 56,
        "time": 115.5,
        "duration": 0.375,
        "velocity": 0.71,
        "hand": "left"
      },
      {
        "midi": 68,
        "time": 115.5,
        "duration": 0.375,
        "velocity": 0.71,
        "hand": "right"
      },
      {
        "midi": 56,
        "time": 115.875,
        "duration": 0.375,
        "velocity": 0.71,
        "hand": "left"
      },
      {
        "midi": 68,
        "time": 115.875,
        "duration": 0.375,
        "velocity": 0.71,
        "hand": "right"
      },
      {
        "midi": 56,
        "time": 116.25,
        "duration": 0.375,
        "velocity": 0.71,
        "hand": "left"
      },
      {
        "midi": 68,
        "time": 116.25,
        "duration": 0.375,
        "velocity": 0.71,
        "hand": "right"
      },
      {
        "midi": 56,
        "time": 116.625,
        "duration": 0.375,
        "velocity": 0.71,
        "hand": "left"
      },
      {
        "midi": 68,
        "time": 116.625,
        "duration": 0.375,
        "velocity": 0.71,
        "hand": "right"
      },
      {
        "midi": 28,
        "time": 117,
        "duration": 1.5,
        "velocity": 0.71,
        "hand": "left"
      },
      {
        "midi": 40,
        "time": 117,
        "duration": 1.5,
        "velocity": 0.71,
        "hand": "left"
      },
      {
        "midi": 59,
        "time": 117,
        "duration": 0.375,
        "velocity": 0.71,
        "hand": "left"
      },
      {
        "midi": 64,
        "time": 117,
        "duration": 1.5,
        "velocity": 0.71,
        "hand": "right"
      },
      {
        "midi": 68,
        "time": 117,
        "duration": 1.5,
        "velocity": 0.71,
        "hand": "right"
      },
      {
        "midi": 71,
        "time": 117,
        "duration": 0.375,
        "velocity": 0.71,
        "hand": "right"
      },
      {
        "midi": 59,
        "time": 117.375,
        "duration": 0.375,
        "velocity": 0.71,
        "hand": "left"
      },
      {
        "midi": 71,
        "time": 117.375,
        "duration": 0.375,
        "velocity": 0.71,
        "hand": "right"
      },
      {
        "midi": 59,
        "time": 117.75,
        "duration": 0.375,
        "velocity": 0.71,
        "hand": "left"
      },
      {
        "midi": 71,
        "time": 117.75,
        "duration": 0.375,
        "velocity": 0.71,
        "hand": "right"
      },
      {
        "midi": 59,
        "time": 118.125,
        "duration": 0.375,
        "velocity": 0.71,
        "hand": "left"
      },
      {
        "midi": 71,
        "time": 118.125,
        "duration": 0.375,
        "velocity": 0.71,
        "hand": "right"
      },
      {
        "midi": 35,
        "time": 118.5,
        "duration": 1.5,
        "velocity": 0.71,
        "hand": "left"
      },
      {
        "midi": 47,
        "time": 118.5,
        "duration": 1.5,
        "velocity": 0.71,
        "hand": "left"
      },
      {
        "midi": 59,
        "time": 118.5,
        "duration": 0.375,
        "velocity": 0.71,
        "hand": "left"
      },
      {
        "midi": 63,
        "time": 118.5,
        "duration": 1.5,
        "velocity": 0.71,
        "hand": "right"
      },
      {
        "midi": 68,
        "time": 118.5,
        "duration": 1.5,
        "velocity": 0.71,
        "hand": "right"
      },
      {
        "midi": 71,
        "time": 118.5,
        "duration": 0.375,
        "velocity": 0.71,
        "hand": "right"
      },
      {
        "midi": 59,
        "time": 118.875,
        "duration": 0.375,
        "velocity": 0.71,
        "hand": "left"
      },
      {
        "midi": 71,
        "time": 118.875,
        "duration": 0.375,
        "velocity": 0.71,
        "hand": "right"
      },
      {
        "midi": 59,
        "time": 119.25,
        "duration": 0.375,
        "velocity": 0.71,
        "hand": "left"
      },
      {
        "midi": 71,
        "time": 119.25,
        "duration": 0.375,
        "velocity": 0.71,
        "hand": "right"
      },
      {
        "midi": 59,
        "time": 119.625,
        "duration": 0.375,
        "velocity": 0.71,
        "hand": "left"
      },
      {
        "midi": 71,
        "time": 119.625,
        "duration": 0.375,
        "velocity": 0.71,
        "hand": "right"
      },
      {
        "midi": 28,
        "time": 120,
        "duration": 1.5,
        "velocity": 0.71,
        "hand": "left"
      },
      {
        "midi": 40,
        "time": 120,
        "duration": 1.5,
        "velocity": 0.71,
        "hand": "left"
      },
      {
        "midi": 59,
        "time": 120,
        "duration": 0.375,
        "velocity": 0.71,
        "hand": "left"
      },
      {
        "midi": 64,
        "time": 120,
        "duration": 1.5,
        "velocity": 0.71,
        "hand": "right"
      },
      {
        "midi": 68,
        "time": 120,
        "duration": 1.5,
        "velocity": 0.71,
        "hand": "right"
      },
      {
        "midi": 71,
        "time": 120,
        "duration": 0.375,
        "velocity": 0.71,
        "hand": "right"
      },
      {
        "midi": 59,
        "time": 120.375,
        "duration": 0.375,
        "velocity": 0.71,
        "hand": "left"
      },
      {
        "midi": 71,
        "time": 120.375,
        "duration": 0.375,
        "velocity": 0.71,
        "hand": "right"
      },
      {
        "midi": 59,
        "time": 120.75,
        "duration": 0.375,
        "velocity": 0.71,
        "hand": "left"
      },
      {
        "midi": 71,
        "time": 120.75,
        "duration": 0.375,
        "velocity": 0.71,
        "hand": "right"
      },
      {
        "midi": 59,
        "time": 121.125,
        "duration": 0.375,
        "velocity": 0.71,
        "hand": "left"
      },
      {
        "midi": 71,
        "time": 121.125,
        "duration": 0.375,
        "velocity": 0.71,
        "hand": "right"
      },
      {
        "midi": 35,
        "time": 121.5,
        "duration": 1.125,
        "velocity": 0.71,
        "hand": "left"
      },
      {
        "midi": 47,
        "time": 121.5,
        "duration": 1.125,
        "velocity": 0.71,
        "hand": "left"
      },
      {
        "midi": 59,
        "time": 121.5,
        "duration": 0.375,
        "velocity": 0.71,
        "hand": "left"
      },
      {
        "midi": 63,
        "time": 121.5,
        "duration": 1.5,
        "velocity": 0.71,
        "hand": "right"
      },
      {
        "midi": 68,
        "time": 121.5,
        "duration": 1.5,
        "velocity": 0.71,
        "hand": "right"
      },
      {
        "midi": 71,
        "time": 121.5,
        "duration": 0.375,
        "velocity": 0.71,
        "hand": "right"
      },
      {
        "midi": 59,
        "time": 121.875,
        "duration": 0.375,
        "velocity": 0.71,
        "hand": "left"
      },
      {
        "midi": 71,
        "time": 121.875,
        "duration": 0.375,
        "velocity": 0.71,
        "hand": "right"
      },
      {
        "midi": 59,
        "time": 122.25,
        "duration": 0.375,
        "velocity": 0.71,
        "hand": "left"
      },
      {
        "midi": 71,
        "time": 122.25,
        "duration": 0.375,
        "velocity": 0.71,
        "hand": "right"
      },
      {
        "midi": 34,
        "time": 122.625,
        "duration": 0.375,
        "velocity": 0.71,
        "hand": "left"
      },
      {
        "midi": 46,
        "time": 122.625,
        "duration": 0.375,
        "velocity": 0.71,
        "hand": "left"
      },
      {
        "midi": 59,
        "time": 122.625,
        "duration": 0.375,
        "velocity": 0.71,
        "hand": "left"
      },
      {
        "midi": 71,
        "time": 122.625,
        "duration": 0.375,
        "velocity": 0.71,
        "hand": "right"
      },
      {
        "midi": 32,
        "time": 123,
        "duration": 1.5,
        "velocity": 0.71,
        "hand": "left"
      },
      {
        "midi": 44,
        "time": 123,
        "duration": 1.5,
        "velocity": 0.71,
        "hand": "left"
      },
      {
        "midi": 59,
        "time": 123,
        "duration": 0.375,
        "velocity": 0.71,
        "hand": "left"
      },
      {
        "midi": 63,
        "time": 123,
        "duration": 1.5,
        "velocity": 0.71,
        "hand": "right"
      },
      {
        "midi": 68,
        "time": 123,
        "duration": 1.5,
        "velocity": 0.71,
        "hand": "right"
      },
      {
        "midi": 71,
        "time": 123,
        "duration": 0.375,
        "velocity": 0.71,
        "hand": "right"
      },
      {
        "midi": 59,
        "time": 123.375,
        "duration": 0.375,
        "velocity": 0.71,
        "hand": "left"
      },
      {
        "midi": 71,
        "time": 123.375,
        "duration": 0.375,
        "velocity": 0.71,
        "hand": "right"
      },
      {
        "midi": 59,
        "time": 123.75,
        "duration": 0.375,
        "velocity": 0.71,
        "hand": "left"
      },
      {
        "midi": 71,
        "time": 123.75,
        "duration": 0.375,
        "velocity": 0.71,
        "hand": "right"
      },
      {
        "midi": 59,
        "time": 124.125,
        "duration": 0.375,
        "velocity": 0.71,
        "hand": "left"
      },
      {
        "midi": 71,
        "time": 124.125,
        "duration": 0.375,
        "velocity": 0.71,
        "hand": "right"
      },
      {
        "midi": 39,
        "time": 124.5,
        "duration": 1.5,
        "velocity": 0.71,
        "hand": "left"
      },
      {
        "midi": 51,
        "time": 124.5,
        "duration": 1.5,
        "velocity": 0.71,
        "hand": "left"
      },
      {
        "midi": 59,
        "time": 124.5,
        "duration": 0.375,
        "velocity": 0.71,
        "hand": "left"
      },
      {
        "midi": 63,
        "time": 124.5,
        "duration": 1.5,
        "velocity": 0.71,
        "hand": "right"
      },
      {
        "midi": 67,
        "time": 124.5,
        "duration": 1.5,
        "velocity": 0.71,
        "hand": "right"
      },
      {
        "midi": 71,
        "time": 124.5,
        "duration": 0.375,
        "velocity": 0.71,
        "hand": "right"
      },
      {
        "midi": 59,
        "time": 124.875,
        "duration": 0.375,
        "velocity": 0.71,
        "hand": "left"
      },
      {
        "midi": 71,
        "time": 124.875,
        "duration": 0.375,
        "velocity": 0.71,
        "hand": "right"
      },
      {
        "midi": 59,
        "time": 125.25,
        "duration": 0.375,
        "velocity": 0.71,
        "hand": "left"
      },
      {
        "midi": 71,
        "time": 125.25,
        "duration": 0.375,
        "velocity": 0.71,
        "hand": "right"
      },
      {
        "midi": 59,
        "time": 125.625,
        "duration": 0.375,
        "velocity": 0.71,
        "hand": "left"
      },
      {
        "midi": 71,
        "time": 125.625,
        "duration": 0.375,
        "velocity": 0.71,
        "hand": "right"
      },
      {
        "midi": 32,
        "time": 126,
        "duration": 1.5,
        "velocity": 0.71,
        "hand": "left"
      },
      {
        "midi": 44,
        "time": 126,
        "duration": 1.5,
        "velocity": 0.71,
        "hand": "left"
      },
      {
        "midi": 59,
        "time": 126,
        "duration": 0.375,
        "velocity": 0.71,
        "hand": "left"
      },
      {
        "midi": 63,
        "time": 126,
        "duration": 0.375,
        "velocity": 0.71,
        "hand": "right"
      },
      {
        "midi": 68,
        "time": 126,
        "duration": 0.375,
        "velocity": 0.71,
        "hand": "right"
      },
      {
        "midi": 71,
        "time": 126,
        "duration": 0.375,
        "velocity": 0.71,
        "hand": "right"
      },
      {
        "midi": 56,
        "time": 126.375,
        "duration": 0.375,
        "velocity": 0.71,
        "hand": "left"
      },
      {
        "midi": 56,
        "time": 126.75,
        "duration": 0.375,
        "velocity": 0.71,
        "hand": "left"
      },
      {
        "midi": 56,
        "time": 127.125,
        "duration": 0.375,
        "velocity": 0.71,
        "hand": "left"
      },
      {
        "midi": 56,
        "time": 127.5,
        "duration": 0.375,
        "velocity": 0.71,
        "hand": "left"
      },
      {
        "midi": 56,
        "time": 127.875,
        "duration": 0.375,
        "velocity": 0.71,
        "hand": "left"
      },
      {
        "midi": 56,
        "time": 128.25,
        "duration": 0.375,
        "velocity": 0.71,
        "hand": "left"
      },
      {
        "midi": 56,
        "time": 128.625,
        "duration": 0.375,
        "velocity": 0.71,
        "hand": "left"
      },
      {
        "midi": 37,
        "time": 129,
        "duration": 0.75,
        "velocity": 0.71,
        "hand": "left"
      },
      {
        "midi": 44,
        "time": 129,
        "duration": 0.75,
        "velocity": 0.71,
        "hand": "left"
      },
      {
        "midi": 56,
        "time": 129,
        "duration": 0.375,
        "velocity": 0.71,
        "hand": "left"
      },
      {
        "midi": 56,
        "time": 129.375,
        "duration": 0.375,
        "velocity": 0.71,
        "hand": "left"
      },
      {
        "midi": 39,
        "time": 129.75,
        "duration": 0.75,
        "velocity": 0.71,
        "hand": "left"
      },
      {
        "midi": 44,
        "time": 129.75,
        "duration": 0.75,
        "velocity": 0.71,
        "hand": "left"
      },
      {
        "midi": 56,
        "time": 129.75,
        "duration": 0.375,
        "velocity": 0.71,
        "hand": "left"
      },
      {
        "midi": 56,
        "time": 130.125,
        "duration": 0.375,
        "velocity": 0.71,
        "hand": "left"
      },
      {
        "midi": 40,
        "time": 130.5,
        "duration": 0.75,
        "velocity": 0.71,
        "hand": "left"
      },
      {
        "midi": 49,
        "time": 130.5,
        "duration": 0.75,
        "velocity": 0.71,
        "hand": "left"
      },
      {
        "midi": 56,
        "time": 130.5,
        "duration": 0.375,
        "velocity": 0.71,
        "hand": "left"
      },
      {
        "midi": 56,
        "time": 130.875,
        "duration": 0.375,
        "velocity": 0.71,
        "hand": "left"
      },
      {
        "midi": 39,
        "time": 131.25,
        "duration": 0.75,
        "velocity": 0.71,
        "hand": "left"
      },
      {
        "midi": 48,
        "time": 131.25,
        "duration": 0.75,
        "velocity": 0.71,
        "hand": "left"
      },
      {
        "midi": 56,
        "time": 131.25,
        "duration": 0.375,
        "velocity": 0.71,
        "hand": "left"
      },
      {
        "midi": 56,
        "time": 131.625,
        "duration": 0.375,
        "velocity": 0.71,
        "hand": "left"
      },
      {
        "midi": 39,
        "time": 132,
        "duration": 0.75,
        "velocity": 0.71,
        "hand": "left"
      },
      {
        "midi": 44,
        "time": 132,
        "duration": 0.75,
        "velocity": 0.71,
        "hand": "left"
      },
      {
        "midi": 56,
        "time": 132,
        "duration": 0.375,
        "velocity": 0.71,
        "hand": "left"
      },
      {
        "midi": 56,
        "time": 132.375,
        "duration": 0.375,
        "velocity": 0.71,
        "hand": "left"
      },
      {
        "midi": 40,
        "time": 132.75,
        "duration": 0.75,
        "velocity": 0.71,
        "hand": "left"
      },
      {
        "midi": 44,
        "time": 132.75,
        "duration": 0.75,
        "velocity": 0.71,
        "hand": "left"
      },
      {
        "midi": 56,
        "time": 132.75,
        "duration": 0.375,
        "velocity": 0.71,
        "hand": "left"
      },
      {
        "midi": 56,
        "time": 133.125,
        "duration": 0.375,
        "velocity": 0.71,
        "hand": "left"
      },
      {
        "midi": 42,
        "time": 133.5,
        "duration": 0.75,
        "velocity": 0.71,
        "hand": "left"
      },
      {
        "midi": 51,
        "time": 133.5,
        "duration": 0.75,
        "velocity": 0.71,
        "hand": "left"
      },
      {
        "midi": 56,
        "time": 133.5,
        "duration": 0.375,
        "velocity": 0.71,
        "hand": "left"
      },
      {
        "midi": 56,
        "time": 133.875,
        "duration": 0.375,
        "velocity": 0.71,
        "hand": "left"
      },
      {
        "midi": 40,
        "time": 134.25,
        "duration": 0.75,
        "velocity": 0.71,
        "hand": "left"
      },
      {
        "midi": 49,
        "time": 134.25,
        "duration": 0.75,
        "velocity": 0.71,
        "hand": "left"
      },
      {
        "midi": 56,
        "time": 134.25,
        "duration": 0.375,
        "velocity": 0.71,
        "hand": "left"
      },
      {
        "midi": 56,
        "time": 134.625,
        "duration": 0.375,
        "velocity": 0.71,
        "hand": "left"
      },
      {
        "midi": 40,
        "time": 135,
        "duration": 0.75,
        "velocity": 0.71,
        "hand": "left"
      },
      {
        "midi": 49,
        "time": 135,
        "duration": 0.75,
        "velocity": 0.71,
        "hand": "left"
      },
      {
        "midi": 56,
        "time": 135,
        "duration": 0.375,
        "velocity": 0.71,
        "hand": "left"
      },
      {
        "midi": 56,
        "time": 135.375,
        "duration": 0.375,
        "velocity": 0.71,
        "hand": "left"
      },
      {
        "midi": 44,
        "time": 135.75,
        "duration": 0.75,
        "velocity": 0.71,
        "hand": "left"
      },
      {
        "midi": 51,
        "time": 135.75,
        "duration": 0.75,
        "velocity": 0.71,
        "hand": "left"
      },
      {
        "midi": 56,
        "time": 135.75,
        "duration": 0.375,
        "velocity": 0.71,
        "hand": "left"
      },
      {
        "midi": 56,
        "time": 136.125,
        "duration": 0.375,
        "velocity": 0.71,
        "hand": "left"
      },
      {
        "midi": 49,
        "time": 136.5,
        "duration": 0.75,
        "velocity": 0.71,
        "hand": "left"
      },
      {
        "midi": 52,
        "time": 136.5,
        "duration": 0.75,
        "velocity": 0.71,
        "hand": "left"
      },
      {
        "midi": 56,
        "time": 136.5,
        "duration": 0.375,
        "velocity": 0.71,
        "hand": "left"
      },
      {
        "midi": 56,
        "time": 136.875,
        "duration": 0.375,
        "velocity": 0.71,
        "hand": "left"
      },
      {
        "midi": 44,
        "time": 137.25,
        "duration": 0.75,
        "velocity": 0.71,
        "hand": "left"
      },
      {
        "midi": 51,
        "time": 137.25,
        "duration": 0.75,
        "velocity": 0.71,
        "hand": "left"
      },
      {
        "midi": 56,
        "time": 137.25,
        "duration": 0.375,
        "velocity": 0.71,
        "hand": "left"
      },
      {
        "midi": 56,
        "time": 137.625,
        "duration": 0.375,
        "velocity": 0.71,
        "hand": "left"
      },
      {
        "midi": 44,
        "time": 138,
        "duration": 3.75,
        "velocity": 0.71,
        "hand": "left"
      },
      {
        "midi": 51,
        "time": 138,
        "duration": 3.75,
        "velocity": 0.71,
        "hand": "left"
      },
      {
        "midi": 56,
        "time": 138,
        "duration": 0.375,
        "velocity": 0.71,
        "hand": "left"
      },
      {
        "midi": 56,
        "time": 138.375,
        "duration": 0.375,
        "velocity": 0.71,
        "hand": "left"
      },
      {
        "midi": 56,
        "time": 138.75,
        "duration": 0.375,
        "velocity": 0.71,
        "hand": "left"
      },
      {
        "midi": 56,
        "time": 139.125,
        "duration": 0.375,
        "velocity": 0.71,
        "hand": "left"
      },
      {
        "midi": 56,
        "time": 139.5,
        "duration": 0.375,
        "velocity": 0.71,
        "hand": "left"
      },
      {
        "midi": 56,
        "time": 139.875,
        "duration": 0.375,
        "velocity": 0.71,
        "hand": "left"
      },
      {
        "midi": 56,
        "time": 140.25,
        "duration": 0.375,
        "velocity": 0.71,
        "hand": "left"
      },
      {
        "midi": 56,
        "time": 140.625,
        "duration": 0.375,
        "velocity": 0.71,
        "hand": "left"
      },
      {
        "midi": 56,
        "time": 141,
        "duration": 0.375,
        "velocity": 0.71,
        "hand": "left"
      },
      {
        "midi": 56,
        "time": 141.375,
        "duration": 0.375,
        "velocity": 0.71,
        "hand": "left"
      },
      {
        "midi": 49,
        "time": 141.75,
        "duration": 0.75,
        "velocity": 0.71,
        "hand": "left"
      },
      {
        "midi": 52,
        "time": 141.75,
        "duration": 0.75,
        "velocity": 0.71,
        "hand": "left"
      },
      {
        "midi": 56,
        "time": 141.75,
        "duration": 0.375,
        "velocity": 0.71,
        "hand": "left"
      },
      {
        "midi": 56,
        "time": 142.125,
        "duration": 0.375,
        "velocity": 0.71,
        "hand": "left"
      },
      {
        "midi": 44,
        "time": 142.5,
        "duration": 0.75,
        "velocity": 0.71,
        "hand": "left"
      },
      {
        "midi": 51,
        "time": 142.5,
        "duration": 0.75,
        "velocity": 0.71,
        "hand": "left"
      },
      {
        "midi": 56,
        "time": 142.5,
        "duration": 0.375,
        "velocity": 0.71,
        "hand": "left"
      },
      {
        "midi": 56,
        "time": 142.875,
        "duration": 0.375,
        "velocity": 0.71,
        "hand": "left"
      },
      {
        "midi": 40,
        "time": 143.25,
        "duration": 0.75,
        "velocity": 0.71,
        "hand": "left"
      },
      {
        "midi": 49,
        "time": 143.25,
        "duration": 0.75,
        "velocity": 0.71,
        "hand": "left"
      },
      {
        "midi": 56,
        "time": 143.25,
        "duration": 0.375,
        "velocity": 0.71,
        "hand": "left"
      },
      {
        "midi": 56,
        "time": 143.625,
        "duration": 0.375,
        "velocity": 0.71,
        "hand": "left"
      },
      {
        "midi": 44,
        "time": 144,
        "duration": 0.75,
        "velocity": 0.71,
        "hand": "left"
      },
      {
        "midi": 51,
        "time": 144,
        "duration": 0.75,
        "velocity": 0.71,
        "hand": "left"
      },
      {
        "midi": 56,
        "time": 144,
        "duration": 0.375,
        "velocity": 0.71,
        "hand": "left"
      },
      {
        "midi": 56,
        "time": 144.375,
        "duration": 0.375,
        "velocity": 0.71,
        "hand": "left"
      },
      {
        "midi": 40,
        "time": 144.75,
        "duration": 0.75,
        "velocity": 0.71,
        "hand": "left"
      },
      {
        "midi": 49,
        "time": 144.75,
        "duration": 0.75,
        "velocity": 0.71,
        "hand": "left"
      },
      {
        "midi": 56,
        "time": 144.75,
        "duration": 0.375,
        "velocity": 0.71,
        "hand": "left"
      },
      {
        "midi": 56,
        "time": 145.125,
        "duration": 0.375,
        "velocity": 0.71,
        "hand": "left"
      },
      {
        "midi": 39,
        "time": 145.5,
        "duration": 0.75,
        "velocity": 0.71,
        "hand": "left"
      },
      {
        "midi": 48,
        "time": 145.5,
        "duration": 0.75,
        "velocity": 0.71,
        "hand": "left"
      },
      {
        "midi": 56,
        "time": 145.5,
        "duration": 0.375,
        "velocity": 0.71,
        "hand": "left"
      },
      {
        "midi": 56,
        "time": 145.875,
        "duration": 0.375,
        "velocity": 0.71,
        "hand": "left"
      },
      {
        "midi": 40,
        "time": 146.25,
        "duration": 0.75,
        "velocity": 0.71,
        "hand": "left"
      },
      {
        "midi": 49,
        "time": 146.25,
        "duration": 0.75,
        "velocity": 0.71,
        "hand": "left"
      },
      {
        "midi": 56,
        "time": 146.25,
        "duration": 0.375,
        "velocity": 0.71,
        "hand": "left"
      },
      {
        "midi": 56,
        "time": 146.625,
        "duration": 0.375,
        "velocity": 0.71,
        "hand": "left"
      },
      {
        "midi": 39,
        "time": 147,
        "duration": 0.75,
        "velocity": 0.71,
        "hand": "left"
      },
      {
        "midi": 48,
        "time": 147,
        "duration": 0.75,
        "velocity": 0.71,
        "hand": "left"
      },
      {
        "midi": 56,
        "time": 147,
        "duration": 0.375,
        "velocity": 0.71,
        "hand": "left"
      },
      {
        "midi": 56,
        "time": 147.375,
        "duration": 0.375,
        "velocity": 0.71,
        "hand": "left"
      },
      {
        "midi": 40,
        "time": 147.75,
        "duration": 0.75,
        "velocity": 0.71,
        "hand": "left"
      },
      {
        "midi": 49,
        "time": 147.75,
        "duration": 0.75,
        "velocity": 0.71,
        "hand": "left"
      },
      {
        "midi": 56,
        "time": 147.75,
        "duration": 0.375,
        "velocity": 0.71,
        "hand": "left"
      },
      {
        "midi": 56,
        "time": 148.125,
        "duration": 0.375,
        "velocity": 0.71,
        "hand": "left"
      },
      {
        "midi": 39,
        "time": 148.5,
        "duration": 0.75,
        "velocity": 0.71,
        "hand": "left"
      },
      {
        "midi": 51,
        "time": 148.5,
        "duration": 0.75,
        "velocity": 0.71,
        "hand": "left"
      },
      {
        "midi": 56,
        "time": 148.5,
        "duration": 0.375,
        "velocity": 0.71,
        "hand": "left"
      },
      {
        "midi": 56,
        "time": 148.875,
        "duration": 0.375,
        "velocity": 0.71,
        "hand": "left"
      },
      {
        "midi": 37,
        "time": 149.25,
        "duration": 0.75,
        "velocity": 0.71,
        "hand": "left"
      },
      {
        "midi": 52,
        "time": 149.25,
        "duration": 0.75,
        "velocity": 0.71,
        "hand": "left"
      },
      {
        "midi": 56,
        "time": 149.25,
        "duration": 0.375,
        "velocity": 0.71,
        "hand": "left"
      },
      {
        "midi": 56,
        "time": 149.625,
        "duration": 0.375,
        "velocity": 0.71,
        "hand": "left"
      },
      {
        "midi": 44,
        "time": 150,
        "duration": 3,
        "velocity": 0.71,
        "hand": "left"
      },
      {
        "midi": 51,
        "time": 150,
        "duration": 3,
        "velocity": 0.71,
        "hand": "left"
      },
      {
        "midi": 56,
        "time": 150,
        "duration": 0.375,
        "velocity": 0.71,
        "hand": "left"
      },
      {
        "midi": 56,
        "time": 150.375,
        "duration": 0.375,
        "velocity": 0.71,
        "hand": "left"
      },
      {
        "midi": 68,
        "time": 150.375,
        "duration": 0.375,
        "velocity": 0.71,
        "hand": "right"
      },
      {
        "midi": 56,
        "time": 150.75,
        "duration": 0.375,
        "velocity": 0.71,
        "hand": "left"
      },
      {
        "midi": 68,
        "time": 150.75,
        "duration": 0.375,
        "velocity": 0.71,
        "hand": "right"
      },
      {
        "midi": 56,
        "time": 151.125,
        "duration": 0.375,
        "velocity": 0.71,
        "hand": "left"
      },
      {
        "midi": 68,
        "time": 151.125,
        "duration": 0.375,
        "velocity": 0.71,
        "hand": "right"
      },
      {
        "midi": 56,
        "time": 151.5,
        "duration": 0.375,
        "velocity": 0.71,
        "hand": "left"
      },
      {
        "midi": 68,
        "time": 151.5,
        "duration": 0.375,
        "velocity": 0.71,
        "hand": "right"
      },
      {
        "midi": 56,
        "time": 151.875,
        "duration": 0.375,
        "velocity": 0.71,
        "hand": "left"
      },
      {
        "midi": 68,
        "time": 151.875,
        "duration": 0.375,
        "velocity": 0.71,
        "hand": "right"
      },
      {
        "midi": 56,
        "time": 152.25,
        "duration": 0.375,
        "velocity": 0.71,
        "hand": "left"
      },
      {
        "midi": 68,
        "time": 152.25,
        "duration": 0.375,
        "velocity": 0.71,
        "hand": "right"
      },
      {
        "midi": 56,
        "time": 152.625,
        "duration": 0.375,
        "velocity": 0.71,
        "hand": "left"
      },
      {
        "midi": 68,
        "time": 152.625,
        "duration": 0.375,
        "velocity": 0.71,
        "hand": "right"
      },
      {
        "midi": 37,
        "time": 153,
        "duration": 0.75,
        "velocity": 0.71,
        "hand": "left"
      },
      {
        "midi": 44,
        "time": 153,
        "duration": 0.75,
        "velocity": 0.71,
        "hand": "left"
      },
      {
        "midi": 56,
        "time": 153,
        "duration": 0.375,
        "velocity": 0.71,
        "hand": "left"
      },
      {
        "midi": 68,
        "time": 153,
        "duration": 0.375,
        "velocity": 0.71,
        "hand": "right"
      },
      {
        "midi": 56,
        "time": 153.375,
        "duration": 0.375,
        "velocity": 0.71,
        "hand": "left"
      },
      {
        "midi": 68,
        "time": 153.375,
        "duration": 0.375,
        "velocity": 0.71,
        "hand": "right"
      },
      {
        "midi": 39,
        "time": 153.75,
        "duration": 0.75,
        "velocity": 0.71,
        "hand": "left"
      },
      {
        "midi": 44,
        "time": 153.75,
        "duration": 0.75,
        "velocity": 0.71,
        "hand": "left"
      },
      {
        "midi": 56,
        "time": 153.75,
        "duration": 0.375,
        "velocity": 0.71,
        "hand": "left"
      },
      {
        "midi": 68,
        "time": 153.75,
        "duration": 0.375,
        "velocity": 0.71,
        "hand": "right"
      },
      {
        "midi": 56,
        "time": 154.125,
        "duration": 0.375,
        "velocity": 0.71,
        "hand": "left"
      },
      {
        "midi": 68,
        "time": 154.125,
        "duration": 0.375,
        "velocity": 0.71,
        "hand": "right"
      },
      {
        "midi": 40,
        "time": 154.5,
        "duration": 0.75,
        "velocity": 0.71,
        "hand": "left"
      },
      {
        "midi": 49,
        "time": 154.5,
        "duration": 0.75,
        "velocity": 0.71,
        "hand": "left"
      },
      {
        "midi": 56,
        "time": 154.5,
        "duration": 0.375,
        "velocity": 0.71,
        "hand": "left"
      },
      {
        "midi": 61,
        "time": 154.5,
        "duration": 0.75,
        "velocity": 0.71,
        "hand": "right"
      },
      {
        "midi": 68,
        "time": 154.5,
        "duration": 0.375,
        "velocity": 0.71,
        "hand": "right"
      },
      {
        "midi": 56,
        "time": 154.875,
        "duration": 0.375,
        "velocity": 0.71,
        "hand": "left"
      },
      {
        "midi": 68,
        "time": 154.875,
        "duration": 0.375,
        "velocity": 0.71,
        "hand": "right"
      },
      {
        "midi": 39,
        "time": 155.25,
        "duration": 0.75,
        "velocity": 0.71,
        "hand": "left"
      },
      {
        "midi": 48,
        "time": 155.25,
        "duration": 0.75,
        "velocity": 0.71,
        "hand": "left"
      },
      {
        "midi": 56,
        "time": 155.25,
        "duration": 0.375,
        "velocity": 0.71,
        "hand": "left"
      },
      {
        "midi": 60,
        "time": 155.25,
        "duration": 0.75,
        "velocity": 0.71,
        "hand": "right"
      },
      {
        "midi": 68,
        "time": 155.25,
        "duration": 0.375,
        "velocity": 0.71,
        "hand": "right"
      },
      {
        "midi": 56,
        "time": 155.625,
        "duration": 0.375,
        "velocity": 0.71,
        "hand": "left"
      },
      {
        "midi": 68,
        "time": 155.625,
        "duration": 0.375,
        "velocity": 0.71,
        "hand": "right"
      },
      {
        "midi": 39,
        "time": 156,
        "duration": 0.75,
        "velocity": 0.71,
        "hand": "left"
      },
      {
        "midi": 44,
        "time": 156,
        "duration": 0.75,
        "velocity": 0.71,
        "hand": "left"
      },
      {
        "midi": 56,
        "time": 156,
        "duration": 0.375,
        "velocity": 0.71,
        "hand": "left"
      },
      {
        "midi": 68,
        "time": 156,
        "duration": 0.375,
        "velocity": 0.71,
        "hand": "right"
      },
      {
        "midi": 56,
        "time": 156.375,
        "duration": 0.375,
        "velocity": 0.71,
        "hand": "left"
      },
      {
        "midi": 68,
        "time": 156.375,
        "duration": 0.375,
        "velocity": 0.71,
        "hand": "right"
      },
      {
        "midi": 40,
        "time": 156.75,
        "duration": 0.75,
        "velocity": 0.71,
        "hand": "left"
      },
      {
        "midi": 44,
        "time": 156.75,
        "duration": 0.75,
        "velocity": 0.71,
        "hand": "left"
      },
      {
        "midi": 56,
        "time": 156.75,
        "duration": 0.375,
        "velocity": 0.71,
        "hand": "left"
      },
      {
        "midi": 68,
        "time": 156.75,
        "duration": 0.375,
        "velocity": 0.71,
        "hand": "right"
      },
      {
        "midi": 56,
        "time": 157.125,
        "duration": 0.375,
        "velocity": 0.71,
        "hand": "left"
      },
      {
        "midi": 68,
        "time": 157.125,
        "duration": 0.375,
        "velocity": 0.71,
        "hand": "right"
      },
      {
        "midi": 42,
        "time": 157.5,
        "duration": 0.75,
        "velocity": 0.71,
        "hand": "left"
      },
      {
        "midi": 51,
        "time": 157.5,
        "duration": 0.75,
        "velocity": 0.71,
        "hand": "left"
      },
      {
        "midi": 56,
        "time": 157.5,
        "duration": 0.375,
        "velocity": 0.71,
        "hand": "left"
      },
      {
        "midi": 63,
        "time": 157.5,
        "duration": 0.75,
        "velocity": 0.71,
        "hand": "right"
      },
      {
        "midi": 68,
        "time": 157.5,
        "duration": 0.375,
        "velocity": 0.71,
        "hand": "right"
      },
      {
        "midi": 56,
        "time": 157.875,
        "duration": 0.375,
        "velocity": 0.71,
        "hand": "left"
      },
      {
        "midi": 68,
        "time": 157.875,
        "duration": 0.375,
        "velocity": 0.71,
        "hand": "right"
      },
      {
        "midi": 40,
        "time": 158.25,
        "duration": 0.75,
        "velocity": 0.71,
        "hand": "left"
      },
      {
        "midi": 49,
        "time": 158.25,
        "duration": 0.75,
        "velocity": 0.71,
        "hand": "left"
      },
      {
        "midi": 56,
        "time": 158.25,
        "duration": 0.375,
        "velocity": 0.71,
        "hand": "left"
      },
      {
        "midi": 61,
        "time": 158.25,
        "duration": 1.5,
        "velocity": 0.71,
        "hand": "right"
      },
      {
        "midi": 68,
        "time": 158.25,
        "duration": 0.375,
        "velocity": 0.71,
        "hand": "right"
      },
      {
        "midi": 56,
        "time": 158.625,
        "duration": 0.375,
        "velocity": 0.71,
        "hand": "left"
      },
      {
        "midi": 68,
        "time": 158.625,
        "duration": 0.375,
        "velocity": 0.71,
        "hand": "right"
      },
      {
        "midi": 40,
        "time": 159,
        "duration": 0.75,
        "velocity": 0.71,
        "hand": "left"
      },
      {
        "midi": 49,
        "time": 159,
        "duration": 0.75,
        "velocity": 0.71,
        "hand": "left"
      },
      {
        "midi": 56,
        "time": 159,
        "duration": 0.375,
        "velocity": 0.71,
        "hand": "left"
      },
      {
        "midi": 68,
        "time": 159,
        "duration": 0.375,
        "velocity": 0.71,
        "hand": "right"
      },
      {
        "midi": 56,
        "time": 159.375,
        "duration": 0.375,
        "velocity": 0.71,
        "hand": "left"
      },
      {
        "midi": 68,
        "time": 159.375,
        "duration": 0.375,
        "velocity": 0.71,
        "hand": "right"
      },
      {
        "midi": 44,
        "time": 159.75,
        "duration": 0.75,
        "velocity": 0.71,
        "hand": "left"
      },
      {
        "midi": 51,
        "time": 159.75,
        "duration": 0.75,
        "velocity": 0.71,
        "hand": "left"
      },
      {
        "midi": 56,
        "time": 159.75,
        "duration": 0.375,
        "velocity": 0.71,
        "hand": "left"
      },
      {
        "midi": 63,
        "time": 159.75,
        "duration": 0.75,
        "velocity": 0.71,
        "hand": "right"
      },
      {
        "midi": 68,
        "time": 159.75,
        "duration": 0.375,
        "velocity": 0.71,
        "hand": "right"
      },
      {
        "midi": 56,
        "time": 160.125,
        "duration": 0.375,
        "velocity": 0.71,
        "hand": "left"
      },
      {
        "midi": 68,
        "time": 160.125,
        "duration": 0.375,
        "velocity": 0.71,
        "hand": "right"
      },
      {
        "midi": 49,
        "time": 160.5,
        "duration": 0.75,
        "velocity": 0.71,
        "hand": "left"
      },
      {
        "midi": 52,
        "time": 160.5,
        "duration": 0.75,
        "velocity": 0.71,
        "hand": "left"
      },
      {
        "midi": 56,
        "time": 160.5,
        "duration": 0.375,
        "velocity": 0.71,
        "hand": "left"
      },
      {
        "midi": 64,
        "time": 160.5,
        "duration": 0.75,
        "velocity": 0.71,
        "hand": "right"
      },
      {
        "midi": 68,
        "time": 160.5,
        "duration": 0.375,
        "velocity": 0.71,
        "hand": "right"
      },
      {
        "midi": 56,
        "time": 160.875,
        "duration": 0.375,
        "velocity": 0.71,
        "hand": "left"
      },
      {
        "midi": 68,
        "time": 160.875,
        "duration": 0.375,
        "velocity": 0.71,
        "hand": "right"
      },
      {
        "midi": 44,
        "time": 161.25,
        "duration": 0.75,
        "velocity": 0.71,
        "hand": "left"
      },
      {
        "midi": 51,
        "time": 161.25,
        "duration": 0.75,
        "velocity": 0.71,
        "hand": "left"
      },
      {
        "midi": 56,
        "time": 161.25,
        "duration": 0.375,
        "velocity": 0.71,
        "hand": "left"
      },
      {
        "midi": 63,
        "time": 161.25,
        "duration": 0.75,
        "velocity": 0.71,
        "hand": "right"
      },
      {
        "midi": 68,
        "time": 161.25,
        "duration": 0.375,
        "velocity": 0.71,
        "hand": "right"
      },
      {
        "midi": 56,
        "time": 161.625,
        "duration": 0.375,
        "velocity": 0.71,
        "hand": "left"
      },
      {
        "midi": 68,
        "time": 161.625,
        "duration": 0.375,
        "velocity": 0.71,
        "hand": "right"
      },
      {
        "midi": 32,
        "time": 162,
        "duration": 0.094,
        "velocity": 0.71,
        "hand": "left"
      },
      {
        "midi": 44,
        "time": 162,
        "duration": 3,
        "velocity": 0.71,
        "hand": "left"
      },
      {
        "midi": 51,
        "time": 162,
        "duration": 3,
        "velocity": 0.71,
        "hand": "left"
      },
      {
        "midi": 56,
        "time": 162,
        "duration": 0.375,
        "velocity": 0.71,
        "hand": "left"
      },
      {
        "midi": 63,
        "time": 162,
        "duration": 3,
        "velocity": 0.71,
        "hand": "right"
      },
      {
        "midi": 68,
        "time": 162,
        "duration": 0.375,
        "velocity": 0.71,
        "hand": "right"
      },
      {
        "midi": 56,
        "time": 162.375,
        "duration": 0.375,
        "velocity": 0.71,
        "hand": "left"
      },
      {
        "midi": 68,
        "time": 162.375,
        "duration": 0.375,
        "velocity": 0.71,
        "hand": "right"
      },
      {
        "midi": 56,
        "time": 162.75,
        "duration": 0.375,
        "velocity": 0.71,
        "hand": "left"
      },
      {
        "midi": 68,
        "time": 162.75,
        "duration": 0.375,
        "velocity": 0.71,
        "hand": "right"
      },
      {
        "midi": 56,
        "time": 163.125,
        "duration": 0.375,
        "velocity": 0.71,
        "hand": "left"
      },
      {
        "midi": 68,
        "time": 163.125,
        "duration": 0.375,
        "velocity": 0.71,
        "hand": "right"
      },
      {
        "midi": 56,
        "time": 163.5,
        "duration": 0.375,
        "velocity": 0.71,
        "hand": "left"
      },
      {
        "midi": 68,
        "time": 163.5,
        "duration": 0.375,
        "velocity": 0.71,
        "hand": "right"
      },
      {
        "midi": 56,
        "time": 163.875,
        "duration": 0.375,
        "velocity": 0.71,
        "hand": "left"
      },
      {
        "midi": 68,
        "time": 163.875,
        "duration": 0.375,
        "velocity": 0.71,
        "hand": "right"
      },
      {
        "midi": 56,
        "time": 164.25,
        "duration": 0.375,
        "velocity": 0.71,
        "hand": "left"
      },
      {
        "midi": 68,
        "time": 164.25,
        "duration": 0.375,
        "velocity": 0.71,
        "hand": "right"
      },
      {
        "midi": 56,
        "time": 164.625,
        "duration": 0.375,
        "velocity": 0.71,
        "hand": "left"
      },
      {
        "midi": 68,
        "time": 164.625,
        "duration": 0.375,
        "velocity": 0.71,
        "hand": "right"
      },
      {
        "midi": 28,
        "time": 165,
        "duration": 1.5,
        "velocity": 0.71,
        "hand": "left"
      },
      {
        "midi": 40,
        "time": 165,
        "duration": 1.5,
        "velocity": 0.71,
        "hand": "left"
      },
      {
        "midi": 59,
        "time": 165,
        "duration": 0.375,
        "velocity": 0.71,
        "hand": "left"
      },
      {
        "midi": 64,
        "time": 165,
        "duration": 1.5,
        "velocity": 0.71,
        "hand": "right"
      },
      {
        "midi": 68,
        "time": 165,
        "duration": 1.5,
        "velocity": 0.71,
        "hand": "right"
      },
      {
        "midi": 71,
        "time": 165,
        "duration": 0.375,
        "velocity": 0.71,
        "hand": "right"
      },
      {
        "midi": 59,
        "time": 165.375,
        "duration": 0.375,
        "velocity": 0.71,
        "hand": "left"
      },
      {
        "midi": 71,
        "time": 165.375,
        "duration": 0.375,
        "velocity": 0.71,
        "hand": "right"
      },
      {
        "midi": 59,
        "time": 165.75,
        "duration": 0.375,
        "velocity": 0.71,
        "hand": "left"
      },
      {
        "midi": 71,
        "time": 165.75,
        "duration": 0.375,
        "velocity": 0.71,
        "hand": "right"
      },
      {
        "midi": 59,
        "time": 166.125,
        "duration": 0.375,
        "velocity": 0.71,
        "hand": "left"
      },
      {
        "midi": 71,
        "time": 166.125,
        "duration": 0.375,
        "velocity": 0.71,
        "hand": "right"
      },
      {
        "midi": 35,
        "time": 166.5,
        "duration": 1.5,
        "velocity": 0.71,
        "hand": "left"
      },
      {
        "midi": 47,
        "time": 166.5,
        "duration": 1.5,
        "velocity": 0.71,
        "hand": "left"
      },
      {
        "midi": 59,
        "time": 166.5,
        "duration": 0.375,
        "velocity": 0.71,
        "hand": "left"
      },
      {
        "midi": 63,
        "time": 166.5,
        "duration": 1.5,
        "velocity": 0.71,
        "hand": "right"
      },
      {
        "midi": 68,
        "time": 166.5,
        "duration": 1.5,
        "velocity": 0.71,
        "hand": "right"
      },
      {
        "midi": 71,
        "time": 166.5,
        "duration": 0.375,
        "velocity": 0.71,
        "hand": "right"
      },
      {
        "midi": 59,
        "time": 166.875,
        "duration": 0.375,
        "velocity": 0.71,
        "hand": "left"
      },
      {
        "midi": 71,
        "time": 166.875,
        "duration": 0.375,
        "velocity": 0.71,
        "hand": "right"
      },
      {
        "midi": 59,
        "time": 167.25,
        "duration": 0.375,
        "velocity": 0.71,
        "hand": "left"
      },
      {
        "midi": 71,
        "time": 167.25,
        "duration": 0.375,
        "velocity": 0.71,
        "hand": "right"
      },
      {
        "midi": 59,
        "time": 167.625,
        "duration": 0.375,
        "velocity": 0.71,
        "hand": "left"
      },
      {
        "midi": 71,
        "time": 167.625,
        "duration": 0.375,
        "velocity": 0.71,
        "hand": "right"
      },
      {
        "midi": 28,
        "time": 168,
        "duration": 1.5,
        "velocity": 0.71,
        "hand": "left"
      },
      {
        "midi": 40,
        "time": 168,
        "duration": 1.5,
        "velocity": 0.71,
        "hand": "left"
      },
      {
        "midi": 59,
        "time": 168,
        "duration": 0.375,
        "velocity": 0.71,
        "hand": "left"
      },
      {
        "midi": 64,
        "time": 168,
        "duration": 1.5,
        "velocity": 0.71,
        "hand": "right"
      },
      {
        "midi": 68,
        "time": 168,
        "duration": 1.5,
        "velocity": 0.71,
        "hand": "right"
      },
      {
        "midi": 71,
        "time": 168,
        "duration": 0.375,
        "velocity": 0.71,
        "hand": "right"
      },
      {
        "midi": 59,
        "time": 168.375,
        "duration": 0.375,
        "velocity": 0.71,
        "hand": "left"
      },
      {
        "midi": 71,
        "time": 168.375,
        "duration": 0.375,
        "velocity": 0.71,
        "hand": "right"
      },
      {
        "midi": 59,
        "time": 168.75,
        "duration": 0.375,
        "velocity": 0.71,
        "hand": "left"
      },
      {
        "midi": 71,
        "time": 168.75,
        "duration": 0.375,
        "velocity": 0.71,
        "hand": "right"
      },
      {
        "midi": 59,
        "time": 169.125,
        "duration": 0.375,
        "velocity": 0.71,
        "hand": "left"
      },
      {
        "midi": 71,
        "time": 169.125,
        "duration": 0.375,
        "velocity": 0.71,
        "hand": "right"
      },
      {
        "midi": 35,
        "time": 169.5,
        "duration": 1.125,
        "velocity": 0.71,
        "hand": "left"
      },
      {
        "midi": 47,
        "time": 169.5,
        "duration": 1.125,
        "velocity": 0.71,
        "hand": "left"
      },
      {
        "midi": 59,
        "time": 169.5,
        "duration": 0.375,
        "velocity": 0.71,
        "hand": "left"
      },
      {
        "midi": 63,
        "time": 169.5,
        "duration": 1.5,
        "velocity": 0.71,
        "hand": "right"
      },
      {
        "midi": 68,
        "time": 169.5,
        "duration": 1.5,
        "velocity": 0.71,
        "hand": "right"
      },
      {
        "midi": 71,
        "time": 169.5,
        "duration": 0.375,
        "velocity": 0.71,
        "hand": "right"
      },
      {
        "midi": 59,
        "time": 169.875,
        "duration": 0.375,
        "velocity": 0.71,
        "hand": "left"
      },
      {
        "midi": 71,
        "time": 169.875,
        "duration": 0.375,
        "velocity": 0.71,
        "hand": "right"
      },
      {
        "midi": 59,
        "time": 170.25,
        "duration": 0.375,
        "velocity": 0.71,
        "hand": "left"
      },
      {
        "midi": 71,
        "time": 170.25,
        "duration": 0.375,
        "velocity": 0.71,
        "hand": "right"
      },
      {
        "midi": 34,
        "time": 170.625,
        "duration": 0.375,
        "velocity": 0.71,
        "hand": "left"
      },
      {
        "midi": 46,
        "time": 170.625,
        "duration": 0.375,
        "velocity": 0.71,
        "hand": "left"
      },
      {
        "midi": 59,
        "time": 170.625,
        "duration": 0.375,
        "velocity": 0.71,
        "hand": "left"
      },
      {
        "midi": 71,
        "time": 170.625,
        "duration": 0.375,
        "velocity": 0.71,
        "hand": "right"
      },
      {
        "midi": 32,
        "time": 171,
        "duration": 1.5,
        "velocity": 0.71,
        "hand": "left"
      },
      {
        "midi": 44,
        "time": 171,
        "duration": 1.5,
        "velocity": 0.71,
        "hand": "left"
      },
      {
        "midi": 59,
        "time": 171,
        "duration": 0.375,
        "velocity": 0.71,
        "hand": "left"
      },
      {
        "midi": 63,
        "time": 171,
        "duration": 1.5,
        "velocity": 0.71,
        "hand": "right"
      },
      {
        "midi": 68,
        "time": 171,
        "duration": 1.5,
        "velocity": 0.71,
        "hand": "right"
      },
      {
        "midi": 71,
        "time": 171,
        "duration": 0.375,
        "velocity": 0.71,
        "hand": "right"
      },
      {
        "midi": 59,
        "time": 171.375,
        "duration": 0.375,
        "velocity": 0.71,
        "hand": "left"
      },
      {
        "midi": 71,
        "time": 171.375,
        "duration": 0.375,
        "velocity": 0.71,
        "hand": "right"
      },
      {
        "midi": 59,
        "time": 171.75,
        "duration": 0.375,
        "velocity": 0.71,
        "hand": "left"
      },
      {
        "midi": 71,
        "time": 171.75,
        "duration": 0.375,
        "velocity": 0.71,
        "hand": "right"
      },
      {
        "midi": 59,
        "time": 172.125,
        "duration": 0.375,
        "velocity": 0.71,
        "hand": "left"
      },
      {
        "midi": 71,
        "time": 172.125,
        "duration": 0.375,
        "velocity": 0.71,
        "hand": "right"
      },
      {
        "midi": 39,
        "time": 172.5,
        "duration": 1.5,
        "velocity": 0.71,
        "hand": "left"
      },
      {
        "midi": 51,
        "time": 172.5,
        "duration": 1.5,
        "velocity": 0.71,
        "hand": "left"
      },
      {
        "midi": 59,
        "time": 172.5,
        "duration": 0.375,
        "velocity": 0.71,
        "hand": "left"
      },
      {
        "midi": 63,
        "time": 172.5,
        "duration": 1.5,
        "velocity": 0.71,
        "hand": "right"
      },
      {
        "midi": 67,
        "time": 172.5,
        "duration": 1.5,
        "velocity": 0.71,
        "hand": "right"
      },
      {
        "midi": 71,
        "time": 172.5,
        "duration": 0.375,
        "velocity": 0.71,
        "hand": "right"
      },
      {
        "midi": 59,
        "time": 172.875,
        "duration": 0.375,
        "velocity": 0.71,
        "hand": "left"
      },
      {
        "midi": 71,
        "time": 172.875,
        "duration": 0.375,
        "velocity": 0.71,
        "hand": "right"
      },
      {
        "midi": 59,
        "time": 173.25,
        "duration": 0.375,
        "velocity": 0.71,
        "hand": "left"
      },
      {
        "midi": 71,
        "time": 173.25,
        "duration": 0.375,
        "velocity": 0.71,
        "hand": "right"
      },
      {
        "midi": 59,
        "time": 173.625,
        "duration": 0.375,
        "velocity": 0.71,
        "hand": "left"
      },
      {
        "midi": 71,
        "time": 173.625,
        "duration": 0.375,
        "velocity": 0.71,
        "hand": "right"
      },
      {
        "midi": 32,
        "time": 174,
        "duration": 1.5,
        "velocity": 0.71,
        "hand": "left"
      },
      {
        "midi": 44,
        "time": 174,
        "duration": 1.5,
        "velocity": 0.71,
        "hand": "left"
      },
      {
        "midi": 59,
        "time": 174,
        "duration": 0.375,
        "velocity": 0.71,
        "hand": "left"
      },
      {
        "midi": 63,
        "time": 174,
        "duration": 0.375,
        "velocity": 0.71,
        "hand": "right"
      },
      {
        "midi": 68,
        "time": 174,
        "duration": 0.375,
        "velocity": 0.71,
        "hand": "right"
      },
      {
        "midi": 71,
        "time": 174,
        "duration": 0.375,
        "velocity": 0.71,
        "hand": "right"
      },
      {
        "midi": 68,
        "time": 174.375,
        "duration": 0.375,
        "velocity": 0.71,
        "hand": "right"
      },
      {
        "midi": 68,
        "time": 174.75,
        "duration": 0.375,
        "velocity": 0.71,
        "hand": "right"
      },
      {
        "midi": 68,
        "time": 175.125,
        "duration": 0.375,
        "velocity": 0.71,
        "hand": "right"
      },
      {
        "midi": 68,
        "time": 175.5,
        "duration": 0.375,
        "velocity": 0.71,
        "hand": "right"
      },
      {
        "midi": 68,
        "time": 175.875,
        "duration": 0.375,
        "velocity": 0.71,
        "hand": "right"
      },
      {
        "midi": 68,
        "time": 176.25,
        "duration": 0.375,
        "velocity": 0.71,
        "hand": "right"
      },
      {
        "midi": 68,
        "time": 176.625,
        "duration": 0.375,
        "velocity": 0.71,
        "hand": "right"
      },
      {
        "midi": 42,
        "time": 177,
        "duration": 1.5,
        "velocity": 0.71,
        "hand": "left"
      },
      {
        "midi": 44,
        "time": 177,
        "duration": 1.5,
        "velocity": 0.71,
        "hand": "left"
      },
      {
        "midi": 51,
        "time": 177,
        "duration": 1.5,
        "velocity": 0.71,
        "hand": "left"
      },
      {
        "midi": 60,
        "time": 177,
        "duration": 1.5,
        "velocity": 0.71,
        "hand": "right"
      },
      {
        "midi": 68,
        "time": 177,
        "duration": 0.375,
        "velocity": 0.71,
        "hand": "right"
      },
      {
        "midi": 72,
        "time": 177,
        "duration": 1.5,
        "velocity": 0.71,
        "hand": "right"
      },
      {
        "midi": 68,
        "time": 177.375,
        "duration": 0.375,
        "velocity": 0.71,
        "hand": "right"
      },
      {
        "midi": 68,
        "time": 177.75,
        "duration": 0.375,
        "velocity": 0.71,
        "hand": "right"
      },
      {
        "midi": 68,
        "time": 178.125,
        "duration": 0.375,
        "velocity": 0.71,
        "hand": "right"
      },
      {
        "midi": 40,
        "time": 178.5,
        "duration": 0.75,
        "velocity": 0.71,
        "hand": "left"
      },
      {
        "midi": 44,
        "time": 178.5,
        "duration": 1.5,
        "velocity": 0.71,
        "hand": "left"
      },
      {
        "midi": 52,
        "time": 178.5,
        "duration": 0.75,
        "velocity": 0.71,
        "hand": "left"
      },
      {
        "midi": 61,
        "time": 178.5,
        "duration": 1.5,
        "velocity": 0.71,
        "hand": "right"
      },
      {
        "midi": 68,
        "time": 178.5,
        "duration": 0.375,
        "velocity": 0.71,
        "hand": "right"
      },
      {
        "midi": 73,
        "time": 178.5,
        "duration": 1.5,
        "velocity": 0.71,
        "hand": "right"
      },
      {
        "midi": 68,
        "time": 178.875,
        "duration": 0.375,
        "velocity": 0.71,
        "hand": "right"
      },
      {
        "midi": 37,
        "time": 179.25,
        "duration": 0.75,
        "velocity": 0.71,
        "hand": "left"
      },
      {
        "midi": 49,
        "time": 179.25,
        "duration": 0.75,
        "velocity": 0.71,
        "hand": "left"
      },
      {
        "midi": 68,
        "time": 179.25,
        "duration": 0.375,
        "velocity": 0.71,
        "hand": "right"
      },
      {
        "midi": 68,
        "time": 179.625,
        "duration": 0.375,
        "velocity": 0.71,
        "hand": "right"
      },
      {
        "midi": 32,
        "time": 180,
        "duration": 2.25,
        "velocity": 0.71,
        "hand": "left"
      },
      {
        "midi": 44,
        "time": 180,
        "duration": 2.25,
        "velocity": 0.71,
        "hand": "left"
      },
      {
        "midi": 63,
        "time": 180,
        "duration": 2.25,
        "velocity": 0.71,
        "hand": "right"
      },
      {
        "midi": 68,
        "time": 180,
        "duration": 0.375,
        "velocity": 0.71,
        "hand": "right"
      },
      {
        "midi": 73,
        "time": 180,
        "duration": 2.25,
        "velocity": 0.71,
        "hand": "right"
      },
      {
        "midi": 75,
        "time": 180,
        "duration": 2.25,
        "velocity": 0.71,
        "hand": "right"
      },
      {
        "midi": 68,
        "time": 180.375,
        "duration": 0.375,
        "velocity": 0.71,
        "hand": "right"
      },
      {
        "midi": 68,
        "time": 180.75,
        "duration": 0.375,
        "velocity": 0.71,
        "hand": "right"
      },
      {
        "midi": 68,
        "time": 181.125,
        "duration": 0.375,
        "velocity": 0.71,
        "hand": "right"
      },
      {
        "midi": 68,
        "time": 181.5,
        "duration": 0.375,
        "velocity": 0.71,
        "hand": "right"
      },
      {
        "midi": 68,
        "time": 181.875,
        "duration": 0.375,
        "velocity": 0.71,
        "hand": "right"
      },
      {
        "midi": 44,
        "time": 182.25,
        "duration": 0.75,
        "velocity": 0.71,
        "hand": "left"
      },
      {
        "midi": 56,
        "time": 182.25,
        "duration": 0.75,
        "velocity": 0.71,
        "hand": "left"
      },
      {
        "midi": 63,
        "time": 182.25,
        "duration": 0.75,
        "velocity": 0.71,
        "hand": "right"
      },
      {
        "midi": 68,
        "time": 182.25,
        "duration": 0.375,
        "velocity": 0.71,
        "hand": "right"
      },
      {
        "midi": 72,
        "time": 182.25,
        "duration": 0.75,
        "velocity": 0.71,
        "hand": "right"
      },
      {
        "midi": 75,
        "time": 182.25,
        "duration": 0.75,
        "velocity": 0.71,
        "hand": "right"
      },
      {
        "midi": 68,
        "time": 182.625,
        "duration": 0.375,
        "velocity": 0.71,
        "hand": "right"
      },
      {
        "midi": 49,
        "time": 183,
        "duration": 1.5,
        "velocity": 0.71,
        "hand": "left"
      },
      {
        "midi": 56,
        "time": 183,
        "duration": 1.5,
        "velocity": 0.71,
        "hand": "left"
      },
      {
        "midi": 64,
        "time": 183,
        "duration": 0.75,
        "velocity": 0.71,
        "hand": "right"
      },
      {
        "midi": 68,
        "time": 183,
        "duration": 0.375,
        "velocity": 0.71,
        "hand": "right"
      },
      {
        "midi": 75,
        "time": 183,
        "duration": 0.75,
        "velocity": 0.71,
        "hand": "right"
      },
      {
        "midi": 76,
        "time": 183,
        "duration": 0.75,
        "velocity": 0.71,
        "hand": "right"
      },
      {
        "midi": 68,
        "time": 183.375,
        "duration": 0.375,
        "velocity": 0.71,
        "hand": "right"
      },
      {
        "midi": 64,
        "time": 183.75,
        "duration": 0.75,
        "velocity": 0.71,
        "hand": "right"
      },
      {
        "midi": 68,
        "time": 183.75,
        "duration": 0.375,
        "velocity": 0.71,
        "hand": "right"
      },
      {
        "midi": 73,
        "time": 183.75,
        "duration": 0.75,
        "velocity": 0.71,
        "hand": "right"
      },
      {
        "midi": 76,
        "time": 183.75,
        "duration": 0.75,
        "velocity": 0.71,
        "hand": "right"
      },
      {
        "midi": 68,
        "time": 184.125,
        "duration": 0.375,
        "velocity": 0.71,
        "hand": "right"
      },
      {
        "midi": 44,
        "time": 184.5,
        "duration": 1.5,
        "velocity": 0.71,
        "hand": "left"
      },
      {
        "midi": 56,
        "time": 184.5,
        "duration": 1.5,
        "velocity": 0.71,
        "hand": "left"
      },
      {
        "midi": 63,
        "time": 184.5,
        "duration": 0.75,
        "velocity": 0.71,
        "hand": "right"
      },
      {
        "midi": 68,
        "time": 184.5,
        "duration": 0.375,
        "velocity": 0.71,
        "hand": "right"
      },
      {
        "midi": 73,
        "time": 184.5,
        "duration": 0.75,
        "velocity": 0.71,
        "hand": "right"
      },
      {
        "midi": 75,
        "time": 184.5,
        "duration": 0.75,
        "velocity": 0.71,
        "hand": "right"
      },
      {
        "midi": 68,
        "time": 184.875,
        "duration": 0.375,
        "velocity": 0.71,
        "hand": "right"
      },
      {
        "midi": 63,
        "time": 185.25,
        "duration": 0.75,
        "velocity": 0.71,
        "hand": "right"
      },
      {
        "midi": 68,
        "time": 185.25,
        "duration": 0.375,
        "velocity": 0.71,
        "hand": "right"
      },
      {
        "midi": 72,
        "time": 185.25,
        "duration": 0.75,
        "velocity": 0.71,
        "hand": "right"
      },
      {
        "midi": 75,
        "time": 185.25,
        "duration": 0.75,
        "velocity": 0.71,
        "hand": "right"
      },
      {
        "midi": 68,
        "time": 185.625,
        "duration": 0.375,
        "velocity": 0.71,
        "hand": "right"
      },
      {
        "midi": 45,
        "time": 186,
        "duration": 1.5,
        "velocity": 0.71,
        "hand": "left"
      },
      {
        "midi": 57,
        "time": 186,
        "duration": 1.5,
        "velocity": 0.71,
        "hand": "left"
      },
      {
        "midi": 61,
        "time": 186,
        "duration": 3,
        "velocity": 0.71,
        "hand": "right"
      },
      {
        "midi": 68,
        "time": 186,
        "duration": 0.375,
        "velocity": 0.71,
        "hand": "right"
      },
      {
        "midi": 73,
        "time": 186,
        "duration": 3,
        "velocity": 0.71,
        "hand": "right"
      },
      {
        "midi": 68,
        "time": 186.375,
        "duration": 0.375,
        "velocity": 0.71,
        "hand": "right"
      },
      {
        "midi": 66,
        "time": 186.75,
        "duration": 0.375,
        "velocity": 0.71,
        "hand": "right"
      },
      {
        "midi": 66,
        "time": 187.125,
        "duration": 0.375,
        "velocity": 0.71,
        "hand": "right"
      },
      {
        "midi": 44,
        "time": 187.5,
        "duration": 0.75,
        "velocity": 0.71,
        "hand": "left"
      },
      {
        "midi": 56,
        "time": 187.5,
        "duration": 0.75,
        "velocity": 0.71,
        "hand": "left"
      },
      {
        "midi": 68,
        "time": 187.5,
        "duration": 0.375,
        "velocity": 0.71,
        "hand": "right"
      },
      {
        "midi": 68,
        "time": 187.875,
        "duration": 0.375,
        "velocity": 0.71,
        "hand": "right"
      },
      {
        "midi": 42,
        "time": 188.25,
        "duration": 0.75,
        "velocity": 0.71,
        "hand": "left"
      },
      {
        "midi": 54,
        "time": 188.25,
        "duration": 0.75,
        "velocity": 0.71,
        "hand": "left"
      },
      {
        "midi": 69,
        "time": 188.25,
        "duration": 0.375,
        "velocity": 0.71,
        "hand": "right"
      },
      {
        "midi": 69,
        "time": 188.625,
        "duration": 0.375,
        "velocity": 0.71,
        "hand": "right"
      },
      {
        "midi": 44,
        "time": 189,
        "duration": 1.5,
        "velocity": 0.71,
        "hand": "left"
      },
      {
        "midi": 56,
        "time": 189,
        "duration": 0.375,
        "velocity": 0.71,
        "hand": "left"
      },
      {
        "midi": 60,
        "time": 189,
        "duration": 1.5,
        "velocity": 0.71,
        "hand": "right"
      },
      {
        "midi": 63,
        "time": 189,
        "duration": 1.5,
        "velocity": 0.71,
        "hand": "right"
      },
      {
        "midi": 68,
        "time": 189,
        "duration": 1.5,
        "velocity": 0.71,
        "hand": "right"
      },
      {
        "midi": 56,
        "time": 189.375,
        "duration": 0.375,
        "velocity": 0.71,
        "hand": "left"
      },
      {
        "midi": 56,
        "time": 189.75,
        "duration": 0.375,
        "velocity": 0.71,
        "hand": "left"
      },
      {
        "midi": 56,
        "time": 190.125,
        "duration": 0.375,
        "velocity": 0.71,
        "hand": "left"
      },
      {
        "midi": 37,
        "time": 190.5,
        "duration": 1.5,
        "velocity": 0.71,
        "hand": "left"
      },
      {
        "midi": 44,
        "time": 190.5,
        "duration": 1.5,
        "velocity": 0.71,
        "hand": "left"
      },
      {
        "midi": 56,
        "time": 190.5,
        "duration": 0.375,
        "velocity": 0.71,
        "hand": "left"
      },
      {
        "midi": 61,
        "time": 190.5,
        "duration": 0.75,
        "velocity": 0.71,
        "hand": "right"
      },
      {
        "midi": 64,
        "time": 190.5,
        "duration": 0.75,
        "velocity": 0.71,
        "hand": "right"
      },
      {
        "midi": 68,
        "time": 190.5,
        "duration": 0.75,
        "velocity": 0.71,
        "hand": "right"
      },
      {
        "midi": 56,
        "time": 190.875,
        "duration": 0.375,
        "velocity": 0.71,
        "hand": "left"
      },
      {
        "midi": 56,
        "time": 191.25,
        "duration": 0.375,
        "velocity": 0.71,
        "hand": "left"
      },
      {
        "midi": 58,
        "time": 191.25,
        "duration": 0.75,
        "velocity": 0.71,
        "hand": "left"
      },
      {
        "midi": 61,
        "time": 191.25,
        "duration": 0.75,
        "velocity": 0.71,
        "hand": "right"
      },
      {
        "midi": 68,
        "time": 191.25,
        "duration": 0.75,
        "velocity": 0.71,
        "hand": "right"
      },
      {
        "midi": 56,
        "time": 191.625,
        "duration": 0.375,
        "velocity": 0.71,
        "hand": "left"
      },
      {
        "midi": 32,
        "time": 192,
        "duration": 0.75,
        "velocity": 0.71,
        "hand": "left"
      },
      {
        "midi": 44,
        "time": 192,
        "duration": 0.75,
        "velocity": 0.71,
        "hand": "left"
      },
      {
        "midi": 56,
        "time": 192,
        "duration": 0.375,
        "velocity": 0.71,
        "hand": "left"
      },
      {
        "midi": 60,
        "time": 192,
        "duration": 0.75,
        "velocity": 0.71,
        "hand": "right"
      },
      {
        "midi": 63,
        "time": 192,
        "duration": 0.75,
        "velocity": 0.71,
        "hand": "right"
      },
      {
        "midi": 68,
        "time": 192,
        "duration": 0.75,
        "velocity": 0.71,
        "hand": "right"
      },
      {
        "midi": 56,
        "time": 192.375,
        "duration": 0.375,
        "velocity": 0.71,
        "hand": "left"
      },
      {
        "midi": 37,
        "time": 192.75,
        "duration": 2.25,
        "velocity": 0.71,
        "hand": "left"
      },
      {
        "midi": 44,
        "time": 192.75,
        "duration": 2.25,
        "velocity": 0.71,
        "hand": "left"
      },
      {
        "midi": 56,
        "time": 192.75,
        "duration": 0.375,
        "velocity": 0.71,
        "hand": "left"
      },
      {
        "midi": 61,
        "time": 192.75,
        "duration": 0.75,
        "velocity": 0.71,
        "hand": "right"
      },
      {
        "midi": 64,
        "time": 192.75,
        "duration": 0.75,
        "velocity": 0.71,
        "hand": "right"
      },
      {
        "midi": 68,
        "time": 192.75,
        "duration": 0.75,
        "velocity": 0.71,
        "hand": "right"
      },
      {
        "midi": 56,
        "time": 193.125,
        "duration": 0.375,
        "velocity": 0.71,
        "hand": "left"
      },
      {
        "midi": 56,
        "time": 193.5,
        "duration": 0.375,
        "velocity": 0.71,
        "hand": "left"
      },
      {
        "midi": 58,
        "time": 193.5,
        "duration": 0.75,
        "velocity": 0.71,
        "hand": "left"
      },
      {
        "midi": 61,
        "time": 193.5,
        "duration": 0.75,
        "velocity": 0.71,
        "hand": "right"
      },
      {
        "midi": 68,
        "time": 193.5,
        "duration": 0.75,
        "velocity": 0.71,
        "hand": "right"
      },
      {
        "midi": 56,
        "time": 193.875,
        "duration": 0.375,
        "velocity": 0.71,
        "hand": "left"
      },
      {
        "midi": 56,
        "time": 194.25,
        "duration": 0.375,
        "velocity": 0.71,
        "hand": "left"
      },
      {
        "midi": 61,
        "time": 194.25,
        "duration": 0.75,
        "velocity": 0.71,
        "hand": "right"
      },
      {
        "midi": 64,
        "time": 194.25,
        "duration": 0.75,
        "velocity": 0.71,
        "hand": "right"
      },
      {
        "midi": 68,
        "time": 194.25,
        "duration": 0.75,
        "velocity": 0.71,
        "hand": "right"
      },
      {
        "midi": 56,
        "time": 194.625,
        "duration": 0.375,
        "velocity": 0.71,
        "hand": "left"
      },
      {
        "midi": 37,
        "time": 195,
        "duration": 0.75,
        "velocity": 0.71,
        "hand": "left"
      },
      {
        "midi": 44,
        "time": 195,
        "duration": 0.75,
        "velocity": 0.71,
        "hand": "left"
      },
      {
        "midi": 56,
        "time": 195,
        "duration": 0.375,
        "velocity": 0.71,
        "hand": "left"
      },
      {
        "midi": 61,
        "time": 195,
        "duration": 0.75,
        "velocity": 0.71,
        "hand": "right"
      },
      {
        "midi": 64,
        "time": 195,
        "duration": 0.75,
        "velocity": 0.71,
        "hand": "right"
      },
      {
        "midi": 68,
        "time": 195,
        "duration": 0.75,
        "velocity": 0.71,
        "hand": "right"
      },
      {
        "midi": 56,
        "time": 195.375,
        "duration": 0.375,
        "velocity": 0.71,
        "hand": "left"
      },
      {
        "midi": 32,
        "time": 195.75,
        "duration": 1.5,
        "velocity": 0.71,
        "hand": "left"
      },
      {
        "midi": 44,
        "time": 195.75,
        "duration": 1.5,
        "velocity": 0.71,
        "hand": "left"
      },
      {
        "midi": 56,
        "time": 195.75,
        "duration": 0.375,
        "velocity": 0.71,
        "hand": "left"
      },
      {
        "midi": 60,
        "time": 195.75,
        "duration": 0.75,
        "velocity": 0.71,
        "hand": "right"
      },
      {
        "midi": 63,
        "time": 195.75,
        "duration": 0.75,
        "velocity": 0.71,
        "hand": "right"
      },
      {
        "midi": 68,
        "time": 195.75,
        "duration": 0.75,
        "velocity": 0.71,
        "hand": "right"
      },
      {
        "midi": 56,
        "time": 196.125,
        "duration": 0.375,
        "velocity": 0.71,
        "hand": "left"
      },
      {
        "midi": 56,
        "time": 196.5,
        "duration": 0.375,
        "velocity": 0.71,
        "hand": "left"
      },
      {
        "midi": 63,
        "time": 196.5,
        "duration": 0.75,
        "velocity": 0.71,
        "hand": "right"
      },
      {
        "midi": 66,
        "time": 196.5,
        "duration": 0.75,
        "velocity": 0.71,
        "hand": "right"
      },
      {
        "midi": 68,
        "time": 196.5,
        "duration": 0.75,
        "velocity": 0.71,
        "hand": "right"
      },
      {
        "midi": 56,
        "time": 196.875,
        "duration": 0.375,
        "velocity": 0.71,
        "hand": "left"
      },
      {
        "midi": 37,
        "time": 197.25,
        "duration": 0.75,
        "velocity": 0.71,
        "hand": "left"
      },
      {
        "midi": 44,
        "time": 197.25,
        "duration": 0.75,
        "velocity": 0.71,
        "hand": "left"
      },
      {
        "midi": 56,
        "time": 197.25,
        "duration": 0.375,
        "velocity": 0.71,
        "hand": "left"
      },
      {
        "midi": 61,
        "time": 197.25,
        "duration": 0.75,
        "velocity": 0.71,
        "hand": "right"
      },
      {
        "midi": 64,
        "time": 197.25,
        "duration": 0.75,
        "velocity": 0.71,
        "hand": "right"
      },
      {
        "midi": 68,
        "time": 197.25,
        "duration": 0.75,
        "velocity": 0.71,
        "hand": "right"
      },
      {
        "midi": 56,
        "time": 197.625,
        "duration": 0.375,
        "velocity": 0.71,
        "hand": "left"
      },
      {
        "midi": 32,
        "time": 198,
        "duration": 3,
        "velocity": 0.71,
        "hand": "left"
      },
      {
        "midi": 44,
        "time": 198,
        "duration": 3,
        "velocity": 0.71,
        "hand": "left"
      },
      {
        "midi": 56,
        "time": 198,
        "duration": 0.375,
        "velocity": 0.71,
        "hand": "left"
      },
      {
        "midi": 60,
        "time": 198,
        "duration": 3,
        "velocity": 0.71,
        "hand": "right"
      },
      {
        "midi": 63,
        "time": 198,
        "duration": 3,
        "velocity": 0.71,
        "hand": "right"
      },
      {
        "midi": 68,
        "time": 198,
        "duration": 3,
        "velocity": 0.71,
        "hand": "right"
      },
      {
        "midi": 56,
        "time": 198.375,
        "duration": 0.375,
        "velocity": 0.71,
        "hand": "left"
      },
      {
        "midi": 56,
        "time": 198.75,
        "duration": 0.375,
        "velocity": 0.71,
        "hand": "left"
      },
      {
        "midi": 56,
        "time": 199.125,
        "duration": 0.375,
        "velocity": 0.71,
        "hand": "left"
      },
      {
        "midi": 56,
        "time": 199.5,
        "duration": 0.375,
        "velocity": 0.71,
        "hand": "left"
      },
      {
        "midi": 56,
        "time": 199.875,
        "duration": 0.375,
        "velocity": 0.71,
        "hand": "left"
      },
      {
        "midi": 56,
        "time": 200.25,
        "duration": 0.375,
        "velocity": 0.71,
        "hand": "left"
      },
      {
        "midi": 56,
        "time": 200.625,
        "duration": 0.375,
        "velocity": 0.71,
        "hand": "left"
      },
      {
        "midi": 42,
        "time": 201,
        "duration": 1.5,
        "velocity": 0.71,
        "hand": "left"
      },
      {
        "midi": 44,
        "time": 201,
        "duration": 0.375,
        "velocity": 0.71,
        "hand": "left"
      },
      {
        "midi": 54,
        "time": 201,
        "duration": 1.5,
        "velocity": 0.71,
        "hand": "left"
      },
      {
        "midi": 60,
        "time": 201,
        "duration": 1.5,
        "velocity": 0.71,
        "hand": "right"
      },
      {
        "midi": 63,
        "time": 201,
        "duration": 1.5,
        "velocity": 0.71,
        "hand": "right"
      },
      {
        "midi": 68,
        "time": 201,
        "duration": 0.375,
        "velocity": 0.71,
        "hand": "right"
      },
      {
        "midi": 72,
        "time": 201,
        "duration": 1.5,
        "velocity": 0.71,
        "hand": "right"
      },
      {
        "midi": 44,
        "time": 201.375,
        "duration": 0.375,
        "velocity": 0.71,
        "hand": "left"
      },
      {
        "midi": 68,
        "time": 201.375,
        "duration": 0.375,
        "velocity": 0.71,
        "hand": "right"
      },
      {
        "midi": 44,
        "time": 201.75,
        "duration": 0.375,
        "velocity": 0.71,
        "hand": "left"
      },
      {
        "midi": 68,
        "time": 201.75,
        "duration": 0.375,
        "velocity": 0.71,
        "hand": "right"
      },
      {
        "midi": 44,
        "time": 202.125,
        "duration": 0.375,
        "velocity": 0.71,
        "hand": "left"
      },
      {
        "midi": 68,
        "time": 202.125,
        "duration": 0.375,
        "velocity": 0.71,
        "hand": "right"
      },
      {
        "midi": 40,
        "time": 202.5,
        "duration": 0.75,
        "velocity": 0.71,
        "hand": "left"
      },
      {
        "midi": 44,
        "time": 202.5,
        "duration": 0.75,
        "velocity": 0.71,
        "hand": "left"
      },
      {
        "midi": 52,
        "time": 202.5,
        "duration": 0.75,
        "velocity": 0.71,
        "hand": "left"
      },
      {
        "midi": 61,
        "time": 202.5,
        "duration": 1.5,
        "velocity": 0.71,
        "hand": "right"
      },
      {
        "midi": 68,
        "time": 202.5,
        "duration": 0.375,
        "velocity": 0.71,
        "hand": "right"
      },
      {
        "midi": 73,
        "time": 202.5,
        "duration": 1.5,
        "velocity": 0.71,
        "hand": "right"
      },
      {
        "midi": 68,
        "time": 202.875,
        "duration": 0.375,
        "velocity": 0.71,
        "hand": "right"
      },
      {
        "midi": 37,
        "time": 203.25,
        "duration": 0.75,
        "velocity": 0.71,
        "hand": "left"
      },
      {
        "midi": 49,
        "time": 203.25,
        "duration": 0.75,
        "velocity": 0.71,
        "hand": "left"
      },
      {
        "midi": 68,
        "time": 203.25,
        "duration": 0.375,
        "velocity": 0.71,
        "hand": "right"
      },
      {
        "midi": 68,
        "time": 203.625,
        "duration": 0.375,
        "velocity": 0.71,
        "hand": "right"
      },
      {
        "midi": 32,
        "time": 204,
        "duration": 3,
        "velocity": 0.71,
        "hand": "left"
      },
      {
        "midi": 44,
        "time": 204,
        "duration": 3,
        "velocity": 0.71,
        "hand": "left"
      },
      {
        "midi": 63,
        "time": 204,
        "duration": 2.25,
        "velocity": 0.71,
        "hand": "right"
      },
      {
        "midi": 68,
        "time": 204,
        "duration": 0.375,
        "velocity": 0.71,
        "hand": "right"
      },
      {
        "midi": 73,
        "time": 204,
        "duration": 2.25,
        "velocity": 0.71,
        "hand": "right"
      },
      {
        "midi": 75,
        "time": 204,
        "duration": 2.25,
        "velocity": 0.71,
        "hand": "right"
      },
      {
        "midi": 68,
        "time": 204.375,
        "duration": 0.375,
        "velocity": 0.71,
        "hand": "right"
      },
      {
        "midi": 68,
        "time": 204.75,
        "duration": 0.375,
        "velocity": 0.71,
        "hand": "right"
      },
      {
        "midi": 68,
        "time": 205.125,
        "duration": 0.375,
        "velocity": 0.71,
        "hand": "right"
      },
      {
        "midi": 68,
        "time": 205.5,
        "duration": 0.375,
        "velocity": 0.71,
        "hand": "right"
      },
      {
        "midi": 68,
        "time": 205.875,
        "duration": 0.375,
        "velocity": 0.71,
        "hand": "right"
      },
      {
        "midi": 63,
        "time": 206.25,
        "duration": 0.75,
        "velocity": 0.71,
        "hand": "right"
      },
      {
        "midi": 68,
        "time": 206.25,
        "duration": 0.375,
        "velocity": 0.71,
        "hand": "right"
      },
      {
        "midi": 72,
        "time": 206.25,
        "duration": 0.75,
        "velocity": 0.71,
        "hand": "right"
      },
      {
        "midi": 75,
        "time": 206.25,
        "duration": 0.75,
        "velocity": 0.71,
        "hand": "right"
      },
      {
        "midi": 68,
        "time": 206.625,
        "duration": 0.375,
        "velocity": 0.71,
        "hand": "right"
      },
      {
        "midi": 37,
        "time": 207,
        "duration": 1.5,
        "velocity": 0.71,
        "hand": "left"
      },
      {
        "midi": 44,
        "time": 207,
        "duration": 1.5,
        "velocity": 0.71,
        "hand": "left"
      },
      {
        "midi": 64,
        "time": 207,
        "duration": 0.75,
        "velocity": 0.71,
        "hand": "right"
      },
      {
        "midi": 68,
        "time": 207,
        "duration": 0.375,
        "velocity": 0.71,
        "hand": "right"
      },
      {
        "midi": 75,
        "time": 207,
        "duration": 0.75,
        "velocity": 0.71,
        "hand": "right"
      },
      {
        "midi": 76,
        "time": 207,
        "duration": 0.75,
        "velocity": 0.71,
        "hand": "right"
      },
      {
        "midi": 68,
        "time": 207.375,
        "duration": 0.375,
        "velocity": 0.71,
        "hand": "right"
      },
      {
        "midi": 64,
        "time": 207.75,
        "duration": 0.75,
        "velocity": 0.71,
        "hand": "right"
      },
      {
        "midi": 68,
        "time": 207.75,
        "duration": 0.375,
        "velocity": 0.71,
        "hand": "right"
      },
      {
        "midi": 73,
        "time": 207.75,
        "duration": 0.75,
        "velocity": 0.71,
        "hand": "right"
      },
      {
        "midi": 76,
        "time": 207.75,
        "duration": 0.75,
        "velocity": 0.71,
        "hand": "right"
      },
      {
        "midi": 68,
        "time": 208.125,
        "duration": 0.375,
        "velocity": 0.71,
        "hand": "right"
      },
      {
        "midi": 44,
        "time": 208.5,
        "duration": 1.5,
        "velocity": 0.71,
        "hand": "left"
      },
      {
        "midi": 56,
        "time": 208.5,
        "duration": 1.5,
        "velocity": 0.71,
        "hand": "left"
      },
      {
        "midi": 63,
        "time": 208.5,
        "duration": 0.75,
        "velocity": 0.71,
        "hand": "right"
      },
      {
        "midi": 68,
        "time": 208.5,
        "duration": 0.375,
        "velocity": 0.71,
        "hand": "right"
      },
      {
        "midi": 73,
        "time": 208.5,
        "duration": 0.75,
        "velocity": 0.71,
        "hand": "right"
      },
      {
        "midi": 75,
        "time": 208.5,
        "duration": 0.75,
        "velocity": 0.71,
        "hand": "right"
      },
      {
        "midi": 68,
        "time": 208.875,
        "duration": 0.375,
        "velocity": 0.71,
        "hand": "right"
      },
      {
        "midi": 63,
        "time": 209.25,
        "duration": 0.75,
        "velocity": 0.71,
        "hand": "right"
      },
      {
        "midi": 68,
        "time": 209.25,
        "duration": 0.375,
        "velocity": 0.71,
        "hand": "right"
      },
      {
        "midi": 72,
        "time": 209.25,
        "duration": 0.75,
        "velocity": 0.71,
        "hand": "right"
      },
      {
        "midi": 75,
        "time": 209.25,
        "duration": 0.75,
        "velocity": 0.71,
        "hand": "right"
      },
      {
        "midi": 68,
        "time": 209.625,
        "duration": 0.375,
        "velocity": 0.71,
        "hand": "right"
      },
      {
        "midi": 41,
        "time": 210,
        "duration": 1.5,
        "velocity": 0.71,
        "hand": "left"
      },
      {
        "midi": 53,
        "time": 210,
        "duration": 1.5,
        "velocity": 0.71,
        "hand": "left"
      },
      {
        "midi": 61,
        "time": 210,
        "duration": 0.375,
        "velocity": 0.71,
        "hand": "right"
      },
      {
        "midi": 68,
        "time": 210,
        "duration": 1.5,
        "velocity": 0.71,
        "hand": "right"
      },
      {
        "midi": 71,
        "time": 210,
        "duration": 1.5,
        "velocity": 0.71,
        "hand": "right"
      },
      {
        "midi": 73,
        "time": 210,
        "duration": 1.5,
        "velocity": 0.71,
        "hand": "right"
      },
      {
        "midi": 61,
        "time": 210.375,
        "duration": 0.375,
        "velocity": 0.71,
        "hand": "right"
      },
      {
        "midi": 61,
        "time": 210.75,
        "duration": 0.375,
        "velocity": 0.71,
        "hand": "right"
      },
      {
        "midi": 61,
        "time": 211.125,
        "duration": 0.375,
        "velocity": 0.71,
        "hand": "right"
      },
      {
        "midi": 42,
        "time": 211.5,
        "duration": 1.5,
        "velocity": 0.71,
        "hand": "left"
      },
      {
        "midi": 54,
        "time": 211.5,
        "duration": 1.5,
        "velocity": 0.71,
        "hand": "left"
      },
      {
        "midi": 61,
        "time": 211.5,
        "duration": 0.375,
        "velocity": 0.71,
        "hand": "right"
      },
      {
        "midi": 68,
        "time": 211.5,
        "duration": 0.75,
        "velocity": 0.71,
        "hand": "right"
      },
      {
        "midi": 69,
        "time": 211.5,
        "duration": 0.75,
        "velocity": 0.71,
        "hand": "right"
      },
      {
        "midi": 73,
        "time": 211.5,
        "duration": 0.75,
        "velocity": 0.71,
        "hand": "right"
      },
      {
        "midi": 61,
        "time": 211.875,
        "duration": 0.375,
        "velocity": 0.71,
        "hand": "right"
      },
      {
        "midi": 61,
        "time": 212.25,
        "duration": 0.375,
        "velocity": 0.71,
        "hand": "right"
      },
      {
        "midi": 66,
        "time": 212.25,
        "duration": 0.75,
        "velocity": 0.71,
        "hand": "right"
      },
      {
        "midi": 69,
        "time": 212.25,
        "duration": 0.75,
        "velocity": 0.71,
        "hand": "right"
      },
      {
        "midi": 73,
        "time": 212.25,
        "duration": 0.75,
        "velocity": 0.71,
        "hand": "right"
      },
      {
        "midi": 61,
        "time": 212.625,
        "duration": 0.375,
        "velocity": 0.71,
        "hand": "right"
      },
      {
        "midi": 36,
        "time": 213,
        "duration": 1.5,
        "velocity": 0.71,
        "hand": "left"
      },
      {
        "midi": 48,
        "time": 213,
        "duration": 1.5,
        "velocity": 0.71,
        "hand": "left"
      },
      {
        "midi": 56,
        "time": 213,
        "duration": 0.375,
        "velocity": 0.71,
        "hand": "left"
      },
      {
        "midi": 63,
        "time": 213,
        "duration": 1.5,
        "velocity": 0.71,
        "hand": "right"
      },
      {
        "midi": 66,
        "time": 213,
        "duration": 1.5,
        "velocity": 0.71,
        "hand": "right"
      },
      {
        "midi": 68,
        "time": 213,
        "duration": 1.5,
        "velocity": 0.71,
        "hand": "right"
      },
      {
        "midi": 56,
        "time": 213.375,
        "duration": 0.375,
        "velocity": 0.71,
        "hand": "left"
      },
      {
        "midi": 56,
        "time": 213.75,
        "duration": 0.375,
        "velocity": 0.71,
        "hand": "left"
      },
      {
        "midi": 56,
        "time": 214.125,
        "duration": 0.375,
        "velocity": 0.71,
        "hand": "left"
      },
      {
        "midi": 37,
        "time": 214.5,
        "duration": 1.5,
        "velocity": 0.71,
        "hand": "left"
      },
      {
        "midi": 49,
        "time": 214.5,
        "duration": 1.5,
        "velocity": 0.71,
        "hand": "left"
      },
      {
        "midi": 56,
        "time": 214.5,
        "duration": 0.375,
        "velocity": 0.71,
        "hand": "left"
      },
      {
        "midi": 61,
        "time": 214.5,
        "duration": 0.75,
        "velocity": 0.71,
        "hand": "right"
      },
      {
        "midi": 66,
        "time": 214.5,
        "duration": 0.75,
        "velocity": 0.71,
        "hand": "right"
      },
      {
        "midi": 68,
        "time": 214.5,
        "duration": 0.75,
        "velocity": 0.71,
        "hand": "right"
      },
      {
        "midi": 56,
        "time": 214.875,
        "duration": 0.375,
        "velocity": 0.71,
        "hand": "left"
      },
      {
        "midi": 56,
        "time": 215.25,
        "duration": 0.375,
        "velocity": 0.71,
        "hand": "left"
      },
      {
        "midi": 61,
        "time": 215.25,
        "duration": 0.75,
        "velocity": 0.71,
        "hand": "right"
      },
      {
        "midi": 64,
        "time": 215.25,
        "duration": 0.75,
        "velocity": 0.71,
        "hand": "right"
      },
      {
        "midi": 70,
        "time": 215.25,
        "duration": 0.75,
        "velocity": 0.71,
        "hand": "right"
      },
      {
        "midi": 56,
        "time": 215.625,
        "duration": 0.375,
        "velocity": 0.71,
        "hand": "left"
      },
      {
        "midi": 32,
        "time": 216,
        "duration": 2.25,
        "velocity": 0.71,
        "hand": "left"
      },
      {
        "midi": 44,
        "time": 216,
        "duration": 2.25,
        "velocity": 0.71,
        "hand": "left"
      },
      {
        "midi": 56,
        "time": 216,
        "duration": 0.375,
        "velocity": 0.71,
        "hand": "left"
      },
      {
        "midi": 61,
        "time": 216,
        "duration": 1.5,
        "velocity": 0.71,
        "hand": "right"
      },
      {
        "midi": 64,
        "time": 216,
        "duration": 1.5,
        "velocity": 0.71,
        "hand": "right"
      },
      {
        "midi": 70,
        "time": 216,
        "duration": 1.5,
        "velocity": 0.71,
        "hand": "right"
      },
      {
        "midi": 56,
        "time": 216.375,
        "duration": 0.375,
        "velocity": 0.71,
        "hand": "left"
      },
      {
        "midi": 56,
        "time": 216.75,
        "duration": 0.375,
        "velocity": 0.71,
        "hand": "left"
      },
      {
        "midi": 56,
        "time": 217.125,
        "duration": 0.375,
        "velocity": 0.71,
        "hand": "left"
      },
      {
        "midi": 56,
        "time": 217.5,
        "duration": 0.375,
        "velocity": 0.71,
        "hand": "left"
      },
      {
        "midi": 60,
        "time": 217.5,
        "duration": 0.75,
        "velocity": 0.71,
        "hand": "right"
      },
      {
        "midi": 63,
        "time": 217.5,
        "duration": 0.75,
        "velocity": 0.71,
        "hand": "right"
      },
      {
        "midi": 68,
        "time": 217.5,
        "duration": 0.75,
        "velocity": 0.71,
        "hand": "right"
      },
      {
        "midi": 56,
        "time": 217.875,
        "duration": 0.375,
        "velocity": 0.71,
        "hand": "left"
      },
      {
        "midi": 37,
        "time": 218.25,
        "duration": 0.75,
        "velocity": 0.71,
        "hand": "left"
      },
      {
        "midi": 44,
        "time": 218.25,
        "duration": 0.75,
        "velocity": 0.71,
        "hand": "left"
      },
      {
        "midi": 56,
        "time": 218.25,
        "duration": 0.375,
        "velocity": 0.71,
        "hand": "left"
      },
      {
        "midi": 61,
        "time": 218.25,
        "duration": 0.75,
        "velocity": 0.71,
        "hand": "right"
      },
      {
        "midi": 64,
        "time": 218.25,
        "duration": 0.75,
        "velocity": 0.71,
        "hand": "right"
      },
      {
        "midi": 70,
        "time": 218.25,
        "duration": 0.75,
        "velocity": 0.71,
        "hand": "right"
      },
      {
        "midi": 56,
        "time": 218.625,
        "duration": 0.375,
        "velocity": 0.71,
        "hand": "left"
      },
      {
        "midi": 32,
        "time": 219,
        "duration": 2.25,
        "velocity": 0.71,
        "hand": "left"
      },
      {
        "midi": 44,
        "time": 219,
        "duration": 2.25,
        "velocity": 0.71,
        "hand": "left"
      },
      {
        "midi": 56,
        "time": 219,
        "duration": 0.375,
        "velocity": 0.71,
        "hand": "left"
      },
      {
        "midi": 61,
        "time": 219,
        "duration": 1.5,
        "velocity": 0.71,
        "hand": "right"
      },
      {
        "midi": 64,
        "time": 219,
        "duration": 1.5,
        "velocity": 0.71,
        "hand": "right"
      },
      {
        "midi": 70,
        "time": 219,
        "duration": 1.5,
        "velocity": 0.71,
        "hand": "right"
      },
      {
        "midi": 56,
        "time": 219.375,
        "duration": 0.375,
        "velocity": 0.71,
        "hand": "left"
      },
      {
        "midi": 56,
        "time": 219.75,
        "duration": 0.375,
        "velocity": 0.71,
        "hand": "left"
      },
      {
        "midi": 56,
        "time": 220.125,
        "duration": 0.375,
        "velocity": 0.71,
        "hand": "left"
      },
      {
        "midi": 56,
        "time": 220.5,
        "duration": 0.375,
        "velocity": 0.71,
        "hand": "left"
      },
      {
        "midi": 60,
        "time": 220.5,
        "duration": 0.75,
        "velocity": 0.71,
        "hand": "right"
      },
      {
        "midi": 63,
        "time": 220.5,
        "duration": 0.75,
        "velocity": 0.71,
        "hand": "right"
      },
      {
        "midi": 68,
        "time": 220.5,
        "duration": 0.75,
        "velocity": 0.71,
        "hand": "right"
      },
      {
        "midi": 56,
        "time": 220.875,
        "duration": 0.375,
        "velocity": 0.71,
        "hand": "left"
      },
      {
        "midi": 37,
        "time": 221.25,
        "duration": 0.75,
        "velocity": 0.71,
        "hand": "left"
      },
      {
        "midi": 44,
        "time": 221.25,
        "duration": 0.75,
        "velocity": 0.71,
        "hand": "left"
      },
      {
        "midi": 56,
        "time": 221.25,
        "duration": 0.375,
        "velocity": 0.71,
        "hand": "left"
      },
      {
        "midi": 61,
        "time": 221.25,
        "duration": 0.75,
        "velocity": 0.71,
        "hand": "right"
      },
      {
        "midi": 64,
        "time": 221.25,
        "duration": 0.75,
        "velocity": 0.71,
        "hand": "right"
      },
      {
        "midi": 70,
        "time": 221.25,
        "duration": 0.75,
        "velocity": 0.71,
        "hand": "right"
      },
      {
        "midi": 56,
        "time": 221.625,
        "duration": 0.375,
        "velocity": 0.71,
        "hand": "left"
      },
      {
        "midi": 32,
        "time": 222,
        "duration": 1.5,
        "velocity": 0.71,
        "hand": "left"
      },
      {
        "midi": 44,
        "time": 222,
        "duration": 0.75,
        "velocity": 0.71,
        "hand": "left"
      },
      {
        "midi": 56,
        "time": 222,
        "duration": 0.375,
        "velocity": 0.71,
        "hand": "left"
      },
      {
        "midi": 61,
        "time": 222,
        "duration": 0.75,
        "velocity": 0.71,
        "hand": "right"
      },
      {
        "midi": 64,
        "time": 222,
        "duration": 0.75,
        "velocity": 0.71,
        "hand": "right"
      },
      {
        "midi": 70,
        "time": 222,
        "duration": 0.75,
        "velocity": 0.71,
        "hand": "right"
      },
      {
        "midi": 56,
        "time": 222.375,
        "duration": 0.375,
        "velocity": 0.71,
        "hand": "left"
      },
      {
        "midi": 44,
        "time": 222.75,
        "duration": 0.75,
        "velocity": 0.71,
        "hand": "left"
      },
      {
        "midi": 56,
        "time": 222.75,
        "duration": 0.375,
        "velocity": 0.71,
        "hand": "left"
      },
      {
        "midi": 60,
        "time": 222.75,
        "duration": 0.75,
        "velocity": 0.71,
        "hand": "right"
      },
      {
        "midi": 63,
        "time": 222.75,
        "duration": 0.75,
        "velocity": 0.71,
        "hand": "right"
      },
      {
        "midi": 68,
        "time": 222.75,
        "duration": 0.75,
        "velocity": 0.71,
        "hand": "right"
      },
      {
        "midi": 56,
        "time": 223.125,
        "duration": 0.375,
        "velocity": 0.71,
        "hand": "left"
      },
      {
        "midi": 56,
        "time": 223.5,
        "duration": 0.375,
        "velocity": 0.71,
        "hand": "left"
      },
      {
        "midi": 53,
        "time": 223.875,
        "duration": 0.375,
        "velocity": 0.71,
        "hand": "left"
      },
      {
        "midi": 56,
        "time": 223.875,
        "duration": 0.375,
        "velocity": 0.71,
        "hand": "left"
      },
      {
        "midi": 54,
        "time": 224.25,
        "duration": 0.375,
        "velocity": 0.71,
        "hand": "left"
      },
      {
        "midi": 56,
        "time": 224.25,
        "duration": 0.375,
        "velocity": 0.71,
        "hand": "left"
      },
      {
        "midi": 51,
        "time": 224.625,
        "duration": 0.375,
        "velocity": 0.71,
        "hand": "left"
      },
      {
        "midi": 56,
        "time": 224.625,
        "duration": 0.375,
        "velocity": 0.71,
        "hand": "left"
      },
      {
        "midi": 49,
        "time": 225,
        "duration": 0.375,
        "velocity": 0.71,
        "hand": "left"
      },
      {
        "midi": 77,
        "time": 225,
        "duration": 0.563,
        "velocity": 0.71,
        "hand": "right"
      },
      {
        "midi": 56,
        "time": 225.375,
        "duration": 0.375,
        "velocity": 0.71,
        "hand": "left"
      },
      {
        "midi": 73,
        "time": 225.563,
        "duration": 0.188,
        "velocity": 0.71,
        "hand": "right"
      },
      {
        "midi": 61,
        "time": 225.75,
        "duration": 1.5,
        "velocity": 0.71,
        "hand": "right"
      },
      {
        "midi": 65,
        "time": 225.75,
        "duration": 1.5,
        "velocity": 0.71,
        "hand": "right"
      },
      {
        "midi": 68,
        "time": 225.75,
        "duration": 1.5,
        "velocity": 0.71,
        "hand": "right"
      },
      {
        "midi": 56,
        "time": 226.125,
        "duration": 0.375,
        "velocity": 0.71,
        "hand": "left"
      },
      {
        "midi": 56,
        "time": 226.5,
        "duration": 0.375,
        "velocity": 0.71,
        "hand": "left"
      },
      {
        "midi": 56,
        "time": 226.875,
        "duration": 0.375,
        "velocity": 0.71,
        "hand": "left"
      },
      {
        "midi": 56,
        "time": 227.25,
        "duration": 0.375,
        "velocity": 0.71,
        "hand": "left"
      },
      {
        "midi": 70,
        "time": 227.25,
        "duration": 0.75,
        "velocity": 0.71,
        "hand": "right"
      },
      {
        "midi": 56,
        "time": 227.625,
        "duration": 0.375,
        "velocity": 0.71,
        "hand": "left"
      },
      {
        "midi": 63,
        "time": 228,
        "duration": 2.25,
        "velocity": 0.71,
        "hand": "right"
      },
      {
        "midi": 66,
        "time": 228,
        "duration": 2.25,
        "velocity": 0.71,
        "hand": "right"
      },
      {
        "midi": 72,
        "time": 228,
        "duration": 2.25,
        "velocity": 0.71,
        "hand": "right"
      },
      {
        "midi": 56,
        "time": 228.375,
        "duration": 0.375,
        "velocity": 0.71,
        "hand": "left"
      },
      {
        "midi": 56,
        "time": 228.75,
        "duration": 0.375,
        "velocity": 0.71,
        "hand": "left"
      },
      {
        "midi": 56,
        "time": 229.125,
        "duration": 0.375,
        "velocity": 0.71,
        "hand": "left"
      },
      {
        "midi": 58,
        "time": 229.5,
        "duration": 0.375,
        "velocity": 0.71,
        "hand": "left"
      },
      {
        "midi": 56,
        "time": 229.875,
        "duration": 0.375,
        "velocity": 0.71,
        "hand": "left"
      },
      {
        "midi": 61,
        "time": 230.25,
        "duration": 0.375,
        "velocity": 0.71,
        "hand": "right"
      },
      {
        "midi": 65,
        "time": 230.25,
        "duration": 0.375,
        "velocity": 0.71,
        "hand": "right"
      },
      {
        "midi": 73,
        "time": 230.25,
        "duration": 0.75,
        "velocity": 0.71,
        "hand": "right"
      },
      {
        "midi": 56,
        "time": 230.625,
        "duration": 0.375,
        "velocity": 0.71,
        "hand": "left"
      },
      {
        "midi": 60,
        "time": 231,
        "duration": 2.25,
        "velocity": 0.71,
        "hand": "right"
      },
      {
        "midi": 66,
        "time": 231,
        "duration": 0.375,
        "velocity": 0.71,
        "hand": "right"
      },
      {
        "midi": 75,
        "time": 231,
        "duration": 0.563,
        "velocity": 0.71,
        "hand": "right"
      },
      {
        "midi": 56,
        "time": 231.375,
        "duration": 0.75,
        "velocity": 0.71,
        "hand": "left"
      },
      {
        "midi": 68,
        "time": 231.563,
        "duration": 0.188,
        "velocity": 0.71,
        "hand": "right"
      },
      {
        "midi": 77,
        "time": 231.563,
        "duration": 0.188,
        "velocity": 0.71,
        "hand": "right"
      },
      {
        "midi": 70,
        "time": 231.75,
        "duration": 1.5,
        "velocity": 0.71,
        "hand": "right"
      },
      {
        "midi": 78,
        "time": 231.75,
        "duration": 1.5,
        "velocity": 0.71,
        "hand": "right"
      },
      {
        "midi": 56,
        "time": 232.125,
        "duration": 0.375,
        "velocity": 0.71,
        "hand": "left"
      },
      {
        "midi": 56,
        "time": 232.5,
        "duration": 0.375,
        "velocity": 0.71,
        "hand": "left"
      },
      {
        "midi": 56,
        "time": 232.875,
        "duration": 0.75,
        "velocity": 0.71,
        "hand": "left"
      },
      {
        "midi": 61,
        "time": 233.25,
        "duration": 0.375,
        "velocity": 0.71,
        "hand": "right"
      },
      {
        "midi": 68,
        "time": 233.25,
        "duration": 0.375,
        "velocity": 0.71,
        "hand": "right"
      },
      {
        "midi": 77,
        "time": 233.25,
        "duration": 0.75,
        "velocity": 0.71,
        "hand": "right"
      },
      {
        "midi": 56,
        "time": 233.625,
        "duration": 0.375,
        "velocity": 0.71,
        "hand": "left"
      },
      {
        "midi": 60,
        "time": 234,
        "duration": 1.5,
        "velocity": 0.71,
        "hand": "right"
      },
      {
        "midi": 68,
        "time": 234,
        "duration": 0.375,
        "velocity": 0.71,
        "hand": "right"
      },
      {
        "midi": 77,
        "time": 234,
        "duration": 1.125,
        "velocity": 0.71,
        "hand": "right"
      },
      {
        "midi": 56,
        "time": 234.375,
        "duration": 0.375,
        "velocity": 0.71,
        "hand": "left"
      },
      {
        "midi": 66,
        "time": 234.75,
        "duration": 0.375,
        "velocity": 0.71,
        "hand": "right"
      },
      {
        "midi": 56,
        "time": 235.125,
        "duration": 0.375,
        "velocity": 0.71,
        "hand": "left"
      },
      {
        "midi": 75,
        "time": 235.125,
        "duration": 0.375,
        "velocity": 0.71,
        "hand": "right"
      },
      {
        "midi": 61,
        "time": 235.5,
        "duration": 0.375,
        "velocity": 0.71,
        "hand": "right"
      },
      {
        "midi": 65,
        "time": 235.5,
        "duration": 0.375,
        "velocity": 0.71,
        "hand": "right"
      },
      {
        "midi": 73,
        "time": 235.5,
        "duration": 0.563,
        "velocity": 0.71,
        "hand": "right"
      },
      {
        "midi": 56,
        "time": 235.875,
        "duration": 0.375,
        "velocity": 0.71,
        "hand": "left"
      },
      {
        "midi": 74,
        "time": 236.063,
        "duration": 0.188,
        "velocity": 0.71,
        "hand": "right"
      },
      {
        "midi": 60,
        "time": 236.25,
        "duration": 0.375,
        "velocity": 0.71,
        "hand": "right"
      },
      {
        "midi": 66,
        "time": 236.25,
        "duration": 0.375,
        "velocity": 0.71,
        "hand": "right"
      },
      {
        "midi": 75,
        "time": 236.25,
        "duration": 0.094,
        "velocity": 0.71,
        "hand": "right"
      },
      {
        "midi": 77,
        "time": 236.25,
        "duration": 0.094,
        "velocity": 0.71,
        "hand": "right"
      },
      {
        "midi": 74,
        "time": 236.438,
        "duration": 0.094,
        "velocity": 0.71,
        "hand": "right"
      },
      {
        "midi": 75,
        "time": 236.438,
        "duration": 0.094,
        "velocity": 0.71,
        "hand": "right"
      },
      {
        "midi": 56,
        "time": 236.625,
        "duration": 0.375,
        "velocity": 0.71,
        "hand": "left"
      },
      {
        "midi": 75,
        "time": 236.625,
        "duration": 0.094,
        "velocity": 0.71,
        "hand": "right"
      },
      {
        "midi": 76,
        "time": 236.625,
        "duration": 0.094,
        "velocity": 0.71,
        "hand": "right"
      },
      {
        "midi": 77,
        "time": 236.625,
        "duration": 0.094,
        "velocity": 0.71,
        "hand": "right"
      },
      {
        "midi": 79,
        "time": 236.813,
        "duration": 0.094,
        "velocity": 0.71,
        "hand": "right"
      },
      {
        "midi": 80,
        "time": 236.813,
        "duration": 0.094,
        "velocity": 0.71,
        "hand": "right"
      },
      {
        "midi": 49,
        "time": 237,
        "duration": 0.375,
        "velocity": 0.71,
        "hand": "left"
      },
      {
        "midi": 77,
        "time": 237,
        "duration": 0.563,
        "velocity": 0.71,
        "hand": "right"
      },
      {
        "midi": 78,
        "time": 237,
        "duration": 0.094,
        "velocity": 0.71,
        "hand": "right"
      },
      {
        "midi": 56,
        "time": 237.375,
        "duration": 0.375,
        "velocity": 0.71,
        "hand": "left"
      },
      {
        "midi": 73,
        "time": 237.563,
        "duration": 0.188,
        "velocity": 0.71,
        "hand": "right"
      },
      {
        "midi": 61,
        "time": 237.75,
        "duration": 1.5,
        "velocity": 0.71,
        "hand": "right"
      },
      {
        "midi": 65,
        "time": 237.75,
        "duration": 1.5,
        "velocity": 0.71,
        "hand": "right"
      },
      {
        "midi": 68,
        "time": 237.75,
        "duration": 1.5,
        "velocity": 0.71,
        "hand": "right"
      },
      {
        "midi": 56,
        "time": 238.125,
        "duration": 0.375,
        "velocity": 0.71,
        "hand": "left"
      },
      {
        "midi": 56,
        "time": 238.5,
        "duration": 0.375,
        "velocity": 0.71,
        "hand": "left"
      },
      {
        "midi": 56,
        "time": 238.875,
        "duration": 0.375,
        "velocity": 0.71,
        "hand": "left"
      },
      {
        "midi": 56,
        "time": 239.25,
        "duration": 0.375,
        "velocity": 0.71,
        "hand": "left"
      },
      {
        "midi": 70,
        "time": 239.25,
        "duration": 0.75,
        "velocity": 0.71,
        "hand": "right"
      },
      {
        "midi": 56,
        "time": 239.625,
        "duration": 0.375,
        "velocity": 0.71,
        "hand": "left"
      },
      {
        "midi": 63,
        "time": 240,
        "duration": 0.375,
        "velocity": 0.71,
        "hand": "right"
      },
      {
        "midi": 66,
        "time": 240,
        "duration": 0.375,
        "velocity": 0.71,
        "hand": "right"
      },
      {
        "midi": 72,
        "time": 240,
        "duration": 0.75,
        "velocity": 0.71,
        "hand": "right"
      },
      {
        "midi": 56,
        "time": 240.375,
        "duration": 0.375,
        "velocity": 0.71,
        "hand": "left"
      },
      {
        "midi": 56,
        "time": 240.75,
        "duration": 0.375,
        "velocity": 0.71,
        "hand": "left"
      },
      {
        "midi": 56,
        "time": 241.125,
        "duration": 0.375,
        "velocity": 0.71,
        "hand": "left"
      },
      {
        "midi": 58,
        "time": 241.5,
        "duration": 0.375,
        "velocity": 0.71,
        "hand": "left"
      },
      {
        "midi": 56,
        "time": 241.875,
        "duration": 0.375,
        "velocity": 0.71,
        "hand": "left"
      },
      {
        "midi": 82,
        "time": 242.25,
        "duration": 1.5,
        "velocity": 0.71,
        "hand": "right"
      },
      {
        "midi": 80,
        "time": 243.75,
        "duration": 0.75,
        "velocity": 0.71,
        "hand": "right"
      },
      {
        "midi": 78,
        "time": 244.5,
        "duration": 0.75,
        "velocity": 0.71,
        "hand": "right"
      },
      {
        "midi": 72,
        "time": 245.25,
        "duration": 0.75,
        "velocity": 0.71,
        "hand": "right"
      },
      {
        "midi": 77,
        "time": 246,
        "duration": 0.75,
        "velocity": 0.71,
        "hand": "right"
      },
      {
        "midi": 75,
        "time": 246.75,
        "duration": 0.75,
        "velocity": 0.71,
        "hand": "right"
      },
      {
        "midi": 73,
        "time": 247.5,
        "duration": 0.75,
        "velocity": 0.71,
        "hand": "right"
      },
      {
        "midi": 70,
        "time": 248.25,
        "duration": 0.75,
        "velocity": 0.71,
        "hand": "right"
      },
      {
        "midi": 44,
        "time": 249,
        "duration": 3,
        "velocity": 0.71,
        "hand": "left"
      },
      {
        "midi": 58,
        "time": 249,
        "duration": 1.5,
        "velocity": 0.71,
        "hand": "left"
      },
      {
        "midi": 63,
        "time": 249,
        "duration": 3,
        "velocity": 0.71,
        "hand": "right"
      },
      {
        "midi": 66,
        "time": 249,
        "duration": 3,
        "velocity": 0.71,
        "hand": "right"
      },
      {
        "midi": 56,
        "time": 249.375,
        "duration": 0.375,
        "velocity": 0.71,
        "hand": "left"
      },
      {
        "midi": 56,
        "time": 249.75,
        "duration": 0.375,
        "velocity": 0.71,
        "hand": "left"
      },
      {
        "midi": 56,
        "time": 250.125,
        "duration": 0.375,
        "velocity": 0.71,
        "hand": "left"
      },
      {
        "midi": 56,
        "time": 250.5,
        "duration": 0.375,
        "velocity": 0.71,
        "hand": "left"
      },
      {
        "midi": 60,
        "time": 250.5,
        "duration": 1.5,
        "velocity": 0.71,
        "hand": "right"
      },
      {
        "midi": 56,
        "time": 250.875,
        "duration": 0.375,
        "velocity": 0.71,
        "hand": "left"
      },
      {
        "midi": 56,
        "time": 251.25,
        "duration": 0.375,
        "velocity": 0.71,
        "hand": "left"
      },
      {
        "midi": 56,
        "time": 251.625,
        "duration": 0.375,
        "velocity": 0.71,
        "hand": "left"
      },
      {
        "midi": 49,
        "time": 252,
        "duration": 3,
        "velocity": 0.71,
        "hand": "left"
      },
      {
        "midi": 56,
        "time": 252,
        "duration": 0.375,
        "velocity": 0.71,
        "hand": "left"
      },
      {
        "midi": 61,
        "time": 252,
        "duration": 1.875,
        "velocity": 0.71,
        "hand": "right"
      },
      {
        "midi": 65,
        "time": 252,
        "duration": 3,
        "velocity": 0.71,
        "hand": "right"
      },
      {
        "midi": 56,
        "time": 252.375,
        "duration": 0.375,
        "velocity": 0.71,
        "hand": "left"
      },
      {
        "midi": 56,
        "time": 252.75,
        "duration": 0.375,
        "velocity": 0.71,
        "hand": "left"
      },
      {
        "midi": 56,
        "time": 253.125,
        "duration": 0.375,
        "velocity": 0.71,
        "hand": "left"
      },
      {
        "midi": 56,
        "time": 253.5,
        "duration": 0.375,
        "velocity": 0.71,
        "hand": "left"
      },
      {
        "midi": 56,
        "time": 253.875,
        "duration": 0.375,
        "velocity": 0.71,
        "hand": "left"
      },
      {
        "midi": 61,
        "time": 253.875,
        "duration": 0.375,
        "velocity": 0.71,
        "hand": "right"
      },
      {
        "midi": 56,
        "time": 254.25,
        "duration": 0.375,
        "velocity": 0.71,
        "hand": "left"
      },
      {
        "midi": 63,
        "time": 254.25,
        "duration": 0.563,
        "velocity": 0.71,
        "hand": "right"
      },
      {
        "midi": 56,
        "time": 254.625,
        "duration": 0.375,
        "velocity": 0.71,
        "hand": "left"
      },
      {
        "midi": 61,
        "time": 254.813,
        "duration": 0.188,
        "velocity": 0.71,
        "hand": "right"
      },
      {
        "midi": 44,
        "time": 255,
        "duration": 3,
        "velocity": 0.71,
        "hand": "left"
      },
      {
        "midi": 56,
        "time": 255,
        "duration": 0.375,
        "velocity": 0.71,
        "hand": "left"
      },
      {
        "midi": 61,
        "time": 255,
        "duration": 0.75,
        "velocity": 0.71,
        "hand": "right"
      },
      {
        "midi": 63,
        "time": 255,
        "duration": 3,
        "velocity": 0.71,
        "hand": "right"
      },
      {
        "midi": 66,
        "time": 255,
        "duration": 3,
        "velocity": 0.71,
        "hand": "right"
      },
      {
        "midi": 56,
        "time": 255.375,
        "duration": 0.375,
        "velocity": 0.71,
        "hand": "left"
      },
      {
        "midi": 56,
        "time": 255.75,
        "duration": 0.375,
        "velocity": 0.71,
        "hand": "left"
      },
      {
        "midi": 60,
        "time": 255.75,
        "duration": 0.75,
        "velocity": 0.71,
        "hand": "right"
      },
      {
        "midi": 56,
        "time": 256.125,
        "duration": 0.375,
        "velocity": 0.71,
        "hand": "left"
      },
      {
        "midi": 56,
        "time": 256.5,
        "duration": 0.375,
        "velocity": 0.71,
        "hand": "left"
      },
      {
        "midi": 70,
        "time": 256.5,
        "duration": 0.75,
        "velocity": 0.71,
        "hand": "right"
      },
      {
        "midi": 56,
        "time": 256.875,
        "duration": 0.375,
        "velocity": 0.71,
        "hand": "left"
      },
      {
        "midi": 56,
        "time": 257.25,
        "duration": 0.375,
        "velocity": 0.71,
        "hand": "left"
      },
      {
        "midi": 60,
        "time": 257.25,
        "duration": 0.75,
        "velocity": 0.71,
        "hand": "right"
      },
      {
        "midi": 56,
        "time": 257.625,
        "duration": 0.375,
        "velocity": 0.71,
        "hand": "left"
      },
      {
        "midi": 44,
        "time": 258,
        "duration": 3,
        "velocity": 0.71,
        "hand": "left"
      },
      {
        "midi": 56,
        "time": 258,
        "duration": 0.375,
        "velocity": 0.71,
        "hand": "left"
      },
      {
        "midi": 60,
        "time": 258,
        "duration": 3,
        "velocity": 0.71,
        "hand": "right"
      },
      {
        "midi": 63,
        "time": 258,
        "duration": 3,
        "velocity": 0.71,
        "hand": "right"
      },
      {
        "midi": 66,
        "time": 258,
        "duration": 3,
        "velocity": 0.71,
        "hand": "right"
      },
      {
        "midi": 56,
        "time": 258.375,
        "duration": 0.375,
        "velocity": 0.71,
        "hand": "left"
      },
      {
        "midi": 56,
        "time": 258.75,
        "duration": 0.375,
        "velocity": 0.71,
        "hand": "left"
      },
      {
        "midi": 56,
        "time": 259.125,
        "duration": 0.375,
        "velocity": 0.71,
        "hand": "left"
      },
      {
        "midi": 56,
        "time": 259.5,
        "duration": 0.375,
        "velocity": 0.71,
        "hand": "left"
      },
      {
        "midi": 56,
        "time": 259.875,
        "duration": 0.375,
        "velocity": 0.71,
        "hand": "left"
      },
      {
        "midi": 56,
        "time": 260.25,
        "duration": 0.375,
        "velocity": 0.71,
        "hand": "left"
      },
      {
        "midi": 56,
        "time": 260.625,
        "duration": 0.375,
        "velocity": 0.71,
        "hand": "left"
      },
      {
        "midi": 49,
        "time": 261,
        "duration": 1.5,
        "velocity": 0.71,
        "hand": "left"
      },
      {
        "midi": 56,
        "time": 261,
        "duration": 0.375,
        "velocity": 0.71,
        "hand": "left"
      },
      {
        "midi": 61,
        "time": 261,
        "duration": 3,
        "velocity": 0.71,
        "hand": "right"
      },
      {
        "midi": 65,
        "time": 261,
        "duration": 3,
        "velocity": 0.71,
        "hand": "right"
      },
      {
        "midi": 56,
        "time": 261.375,
        "duration": 0.375,
        "velocity": 0.71,
        "hand": "left"
      },
      {
        "midi": 56,
        "time": 261.75,
        "duration": 0.375,
        "velocity": 0.71,
        "hand": "left"
      },
      {
        "midi": 56,
        "time": 262.125,
        "duration": 0.375,
        "velocity": 0.71,
        "hand": "left"
      },
      {
        "midi": 44,
        "time": 262.5,
        "duration": 1.5,
        "velocity": 0.71,
        "hand": "left"
      },
      {
        "midi": 56,
        "time": 262.5,
        "duration": 0.375,
        "velocity": 0.71,
        "hand": "left"
      },
      {
        "midi": 56,
        "time": 262.875,
        "duration": 0.375,
        "velocity": 0.71,
        "hand": "left"
      },
      {
        "midi": 56,
        "time": 263.25,
        "duration": 0.375,
        "velocity": 0.71,
        "hand": "left"
      },
      {
        "midi": 56,
        "time": 263.625,
        "duration": 0.375,
        "velocity": 0.71,
        "hand": "left"
      },
      {
        "midi": 37,
        "time": 264,
        "duration": 3,
        "velocity": 0.71,
        "hand": "left"
      },
      {
        "midi": 56,
        "time": 264,
        "duration": 3,
        "velocity": 0.71,
        "hand": "left"
      },
      {
        "midi": 61,
        "time": 264,
        "duration": 3,
        "velocity": 0.71,
        "hand": "right"
      },
      {
        "midi": 65,
        "time": 264,
        "duration": 3,
        "velocity": 0.71,
        "hand": "right"
      }
    ]
  },
  "notes1Hand": [
    {
      "midi": 77,
      "time": 0,
      "duration": 0.563,
      "velocity": 0.71,
      "hand": "right"
    },
    {
      "midi": 73,
      "time": 0.563,
      "duration": 0.375,
      "velocity": 0.71,
      "hand": "right"
    },
    {
      "midi": 70,
      "time": 2.25,
      "duration": 0.75,
      "velocity": 0.71,
      "hand": "right"
    },
    {
      "midi": 72,
      "time": 3,
      "duration": 2.25,
      "velocity": 0.71,
      "hand": "right"
    },
    {
      "midi": 73,
      "time": 5.25,
      "duration": 0.75,
      "velocity": 0.71,
      "hand": "right"
    },
    {
      "midi": 75,
      "time": 6,
      "duration": 0.563,
      "velocity": 0.71,
      "hand": "right"
    },
    {
      "midi": 77,
      "time": 6.563,
      "duration": 0.375,
      "velocity": 0.71,
      "hand": "right"
    },
    {
      "midi": 77,
      "time": 8.25,
      "duration": 0.75,
      "velocity": 0.71,
      "hand": "right"
    },
    {
      "midi": 77,
      "time": 9,
      "duration": 1.125,
      "velocity": 0.71,
      "hand": "right"
    },
    {
      "midi": 66,
      "time": 9.75,
      "duration": 0.375,
      "velocity": 0.71,
      "hand": "right"
    },
    {
      "midi": 75,
      "time": 10.125,
      "duration": 0.375,
      "velocity": 0.71,
      "hand": "right"
    },
    {
      "midi": 73,
      "time": 10.5,
      "duration": 0.75,
      "velocity": 0.71,
      "hand": "right"
    },
    {
      "midi": 75,
      "time": 11.25,
      "duration": 0.375,
      "velocity": 0.71,
      "hand": "right"
    },
    {
      "midi": 77,
      "time": 12,
      "duration": 0.563,
      "velocity": 0.71,
      "hand": "right"
    },
    {
      "midi": 73,
      "time": 12.563,
      "duration": 0.375,
      "velocity": 0.71,
      "hand": "right"
    },
    {
      "midi": 70,
      "time": 14.25,
      "duration": 0.75,
      "velocity": 0.71,
      "hand": "right"
    },
    {
      "midi": 72,
      "time": 15,
      "duration": 2.25,
      "velocity": 0.71,
      "hand": "right"
    },
    {
      "midi": 73,
      "time": 17.25,
      "duration": 0.75,
      "velocity": 0.71,
      "hand": "right"
    },
    {
      "midi": 75,
      "time": 18,
      "duration": 0.563,
      "velocity": 0.71,
      "hand": "right"
    },
    {
      "midi": 77,
      "time": 18.563,
      "duration": 0.375,
      "velocity": 0.71,
      "hand": "right"
    },
    {
      "midi": 77,
      "time": 20.25,
      "duration": 0.75,
      "velocity": 0.71,
      "hand": "right"
    },
    {
      "midi": 77,
      "time": 21,
      "duration": 1.125,
      "velocity": 0.71,
      "hand": "right"
    },
    {
      "midi": 63,
      "time": 21.75,
      "duration": 0.375,
      "velocity": 0.71,
      "hand": "right"
    },
    {
      "midi": 75,
      "time": 22.125,
      "duration": 0.375,
      "velocity": 0.71,
      "hand": "right"
    },
    {
      "midi": 73,
      "time": 22.5,
      "duration": 0.75,
      "velocity": 0.71,
      "hand": "right"
    },
    {
      "midi": 72,
      "time": 23.25,
      "duration": 0.375,
      "velocity": 0.71,
      "hand": "right"
    },
    {
      "midi": 73,
      "time": 23.625,
      "duration": 0.375,
      "velocity": 0.71,
      "hand": "right"
    },
    {
      "midi": 75,
      "time": 24,
      "duration": 0.75,
      "velocity": 0.71,
      "hand": "right"
    },
    {
      "midi": 75,
      "time": 24.75,
      "duration": 1.5,
      "velocity": 0.71,
      "hand": "right"
    },
    {
      "midi": 63,
      "time": 25.5,
      "duration": 0.375,
      "velocity": 0.71,
      "hand": "right"
    },
    {
      "midi": 77,
      "time": 26.25,
      "duration": 0.75,
      "velocity": 0.71,
      "hand": "right"
    },
    {
      "midi": 61,
      "time": 26.625,
      "duration": 0.375,
      "velocity": 0.71,
      "hand": "right"
    },
    {
      "midi": 78,
      "time": 27,
      "duration": 0.375,
      "velocity": 0.71,
      "hand": "right"
    },
    {
      "midi": 77,
      "time": 27.375,
      "duration": 0.375,
      "velocity": 0.71,
      "hand": "right"
    },
    {
      "midi": 75,
      "time": 27.75,
      "duration": 0.375,
      "velocity": 0.71,
      "hand": "right"
    },
    {
      "midi": 73,
      "time": 28.125,
      "duration": 0.375,
      "velocity": 0.71,
      "hand": "right"
    },
    {
      "midi": 77,
      "time": 28.5,
      "duration": 1.5,
      "velocity": 0.71,
      "hand": "right"
    },
    {
      "midi": 65,
      "time": 29.25,
      "duration": 0.375,
      "velocity": 0.71,
      "hand": "right"
    },
    {
      "midi": 75,
      "time": 30,
      "duration": 0.375,
      "velocity": 0.71,
      "hand": "right"
    },
    {
      "midi": 71,
      "time": 30.375,
      "duration": 0.375,
      "velocity": 0.71,
      "hand": "right"
    },
    {
      "midi": 70,
      "time": 30.75,
      "duration": 0.375,
      "velocity": 0.71,
      "hand": "right"
    },
    {
      "midi": 68,
      "time": 31.125,
      "duration": 0.375,
      "velocity": 0.71,
      "hand": "right"
    },
    {
      "midi": 70,
      "time": 31.5,
      "duration": 0.563,
      "velocity": 0.71,
      "hand": "right"
    },
    {
      "midi": 70,
      "time": 32.25,
      "duration": 0.563,
      "velocity": 0.71,
      "hand": "right"
    },
    {
      "midi": 71,
      "time": 32.813,
      "duration": 0.375,
      "velocity": 0.71,
      "hand": "right"
    },
    {
      "midi": 75,
      "time": 33.75,
      "duration": 0.75,
      "velocity": 0.71,
      "hand": "right"
    },
    {
      "midi": 73,
      "time": 34.5,
      "duration": 0.75,
      "velocity": 0.71,
      "hand": "right"
    },
    {
      "midi": 76,
      "time": 35.25,
      "duration": 0.75,
      "velocity": 0.71,
      "hand": "right"
    },
    {
      "midi": 75,
      "time": 36,
      "duration": 0.75,
      "velocity": 0.71,
      "hand": "right"
    },
    {
      "midi": 75,
      "time": 36.75,
      "duration": 1.5,
      "velocity": 0.71,
      "hand": "right"
    },
    {
      "midi": 77,
      "time": 38.25,
      "duration": 0.75,
      "velocity": 0.71,
      "hand": "right"
    },
    {
      "midi": 78,
      "time": 39,
      "duration": 0.375,
      "velocity": 0.71,
      "hand": "right"
    },
    {
      "midi": 77,
      "time": 39.375,
      "duration": 0.375,
      "velocity": 0.71,
      "hand": "right"
    },
    {
      "midi": 75,
      "time": 39.75,
      "duration": 0.375,
      "velocity": 0.71,
      "hand": "right"
    },
    {
      "midi": 73,
      "time": 40.125,
      "duration": 0.375,
      "velocity": 0.71,
      "hand": "right"
    },
    {
      "midi": 77,
      "time": 40.5,
      "duration": 1.875,
      "velocity": 0.71,
      "hand": "right"
    },
    {
      "midi": 65,
      "time": 41.25,
      "duration": 0.375,
      "velocity": 0.71,
      "hand": "right"
    },
    {
      "midi": 73,
      "time": 42.375,
      "duration": 0.375,
      "velocity": 0.71,
      "hand": "right"
    },
    {
      "midi": 72,
      "time": 42.75,
      "duration": 0.375,
      "velocity": 0.71,
      "hand": "right"
    },
    {
      "midi": 70,
      "time": 43.125,
      "duration": 0.375,
      "velocity": 0.71,
      "hand": "right"
    },
    {
      "midi": 72,
      "time": 43.5,
      "duration": 0.563,
      "velocity": 0.71,
      "hand": "right"
    },
    {
      "midi": 72,
      "time": 44.25,
      "duration": 0.375,
      "velocity": 0.71,
      "hand": "right"
    },
    {
      "midi": 73,
      "time": 44.625,
      "duration": 0.375,
      "velocity": 0.71,
      "hand": "right"
    },
    {
      "midi": 70,
      "time": 45,
      "duration": 0.75,
      "velocity": 0.71,
      "hand": "right"
    },
    {
      "midi": 77,
      "time": 45.75,
      "duration": 0.75,
      "velocity": 0.71,
      "hand": "right"
    },
    {
      "midi": 75,
      "time": 46.5,
      "duration": 0.75,
      "velocity": 0.71,
      "hand": "right"
    },
    {
      "midi": 78,
      "time": 47.25,
      "duration": 0.75,
      "velocity": 0.71,
      "hand": "right"
    },
    {
      "midi": 77,
      "time": 48,
      "duration": 0.375,
      "velocity": 0.71,
      "hand": "right"
    },
    {
      "midi": 73,
      "time": 48.375,
      "duration": 0.375,
      "velocity": 0.71,
      "hand": "right"
    },
    {
      "midi": 72,
      "time": 48.75,
      "duration": 0.375,
      "velocity": 0.71,
      "hand": "right"
    },
    {
      "midi": 70,
      "time": 49.125,
      "duration": 0.375,
      "velocity": 0.71,
      "hand": "right"
    },
    {
      "midi": 72,
      "time": 49.5,
      "duration": 0.563,
      "velocity": 0.71,
      "hand": "right"
    },
    {
      "midi": 72,
      "time": 50.25,
      "duration": 0.563,
      "velocity": 0.71,
      "hand": "right"
    },
    {
      "midi": 73,
      "time": 50.813,
      "duration": 0.375,
      "velocity": 0.71,
      "hand": "right"
    },
    {
      "midi": 75,
      "time": 51.75,
      "duration": 0.75,
      "velocity": 0.71,
      "hand": "right"
    },
    {
      "midi": 77,
      "time": 52.5,
      "duration": 0.75,
      "velocity": 0.71,
      "hand": "right"
    },
    {
      "midi": 75,
      "time": 53.25,
      "duration": 0.75,
      "velocity": 0.71,
      "hand": "right"
    },
    {
      "midi": 77,
      "time": 54,
      "duration": 2.25,
      "velocity": 0.71,
      "hand": "right"
    },
    {
      "midi": 65,
      "time": 55.5,
      "duration": 0.375,
      "velocity": 0.71,
      "hand": "right"
    },
    {
      "midi": 75,
      "time": 56.25,
      "duration": 0.75,
      "velocity": 0.71,
      "hand": "right"
    },
    {
      "midi": 77,
      "time": 57,
      "duration": 0.563,
      "velocity": 0.71,
      "hand": "right"
    },
    {
      "midi": 73,
      "time": 57.563,
      "duration": 0.375,
      "velocity": 0.71,
      "hand": "right"
    },
    {
      "midi": 70,
      "time": 59.25,
      "duration": 0.75,
      "velocity": 0.71,
      "hand": "right"
    },
    {
      "midi": 72,
      "time": 60,
      "duration": 2.25,
      "velocity": 0.71,
      "hand": "right"
    },
    {
      "midi": 73,
      "time": 62.25,
      "duration": 0.75,
      "velocity": 0.71,
      "hand": "right"
    },
    {
      "midi": 75,
      "time": 63,
      "duration": 0.563,
      "velocity": 0.71,
      "hand": "right"
    },
    {
      "midi": 77,
      "time": 63.563,
      "duration": 0.375,
      "velocity": 0.71,
      "hand": "right"
    },
    {
      "midi": 77,
      "time": 65.25,
      "duration": 0.75,
      "velocity": 0.71,
      "hand": "right"
    },
    {
      "midi": 77,
      "time": 66,
      "duration": 1.125,
      "velocity": 0.71,
      "hand": "right"
    },
    {
      "midi": 66,
      "time": 66.75,
      "duration": 0.375,
      "velocity": 0.71,
      "hand": "right"
    },
    {
      "midi": 75,
      "time": 67.125,
      "duration": 0.375,
      "velocity": 0.71,
      "hand": "right"
    },
    {
      "midi": 73,
      "time": 67.5,
      "duration": 0.75,
      "velocity": 0.71,
      "hand": "right"
    },
    {
      "midi": 74,
      "time": 68.25,
      "duration": 0.375,
      "velocity": 0.71,
      "hand": "right"
    },
    {
      "midi": 80,
      "time": 68.625,
      "duration": 0.375,
      "velocity": 0.71,
      "hand": "right"
    },
    {
      "midi": 77,
      "time": 69,
      "duration": 0.563,
      "velocity": 0.71,
      "hand": "right"
    },
    {
      "midi": 73,
      "time": 69.563,
      "duration": 0.375,
      "velocity": 0.71,
      "hand": "right"
    },
    {
      "midi": 70,
      "time": 71.25,
      "duration": 0.75,
      "velocity": 0.71,
      "hand": "right"
    },
    {
      "midi": 72,
      "time": 72,
      "duration": 2.25,
      "velocity": 0.71,
      "hand": "right"
    },
    {
      "midi": 73,
      "time": 74.25,
      "duration": 0.75,
      "velocity": 0.71,
      "hand": "right"
    },
    {
      "midi": 75,
      "time": 75,
      "duration": 0.563,
      "velocity": 0.71,
      "hand": "right"
    },
    {
      "midi": 77,
      "time": 75.563,
      "duration": 0.375,
      "velocity": 0.71,
      "hand": "right"
    },
    {
      "midi": 72,
      "time": 77.25,
      "duration": 0.75,
      "velocity": 0.71,
      "hand": "right"
    },
    {
      "midi": 75,
      "time": 78,
      "duration": 1.5,
      "velocity": 0.71,
      "hand": "right"
    },
    {
      "midi": 68,
      "time": 102.375,
      "duration": 0.375,
      "velocity": 0.71,
      "hand": "right"
    },
    {
      "midi": 68,
      "time": 103.125,
      "duration": 0.375,
      "velocity": 0.71,
      "hand": "right"
    },
    {
      "midi": 68,
      "time": 103.875,
      "duration": 0.375,
      "velocity": 0.71,
      "hand": "right"
    },
    {
      "midi": 68,
      "time": 104.625,
      "duration": 0.375,
      "velocity": 0.71,
      "hand": "right"
    },
    {
      "midi": 68,
      "time": 105.375,
      "duration": 0.375,
      "velocity": 0.71,
      "hand": "right"
    },
    {
      "midi": 68,
      "time": 106.125,
      "duration": 0.375,
      "velocity": 0.71,
      "hand": "right"
    },
    {
      "midi": 68,
      "time": 106.875,
      "duration": 0.375,
      "velocity": 0.71,
      "hand": "right"
    },
    {
      "midi": 68,
      "time": 107.625,
      "duration": 0.375,
      "velocity": 0.71,
      "hand": "right"
    },
    {
      "midi": 68,
      "time": 108.375,
      "duration": 0.375,
      "velocity": 0.71,
      "hand": "right"
    },
    {
      "midi": 68,
      "time": 109.125,
      "duration": 0.375,
      "velocity": 0.71,
      "hand": "right"
    },
    {
      "midi": 68,
      "time": 109.875,
      "duration": 0.375,
      "velocity": 0.71,
      "hand": "right"
    },
    {
      "midi": 68,
      "time": 110.625,
      "duration": 0.375,
      "velocity": 0.71,
      "hand": "right"
    },
    {
      "midi": 68,
      "time": 111.375,
      "duration": 0.375,
      "velocity": 0.71,
      "hand": "right"
    },
    {
      "midi": 68,
      "time": 112.125,
      "duration": 0.375,
      "velocity": 0.71,
      "hand": "right"
    },
    {
      "midi": 68,
      "time": 112.875,
      "duration": 0.375,
      "velocity": 0.71,
      "hand": "right"
    },
    {
      "midi": 68,
      "time": 113.625,
      "duration": 0.375,
      "velocity": 0.71,
      "hand": "right"
    },
    {
      "midi": 68,
      "time": 114.375,
      "duration": 0.375,
      "velocity": 0.71,
      "hand": "right"
    },
    {
      "midi": 68,
      "time": 115.125,
      "duration": 0.375,
      "velocity": 0.71,
      "hand": "right"
    },
    {
      "midi": 68,
      "time": 115.875,
      "duration": 0.375,
      "velocity": 0.71,
      "hand": "right"
    },
    {
      "midi": 68,
      "time": 116.625,
      "duration": 0.375,
      "velocity": 0.71,
      "hand": "right"
    },
    {
      "midi": 71,
      "time": 117,
      "duration": 0.375,
      "velocity": 0.71,
      "hand": "right"
    },
    {
      "midi": 71,
      "time": 117.75,
      "duration": 0.375,
      "velocity": 0.71,
      "hand": "right"
    },
    {
      "midi": 71,
      "time": 118.5,
      "duration": 0.375,
      "velocity": 0.71,
      "hand": "right"
    },
    {
      "midi": 71,
      "time": 119.25,
      "duration": 0.375,
      "velocity": 0.71,
      "hand": "right"
    },
    {
      "midi": 71,
      "time": 120,
      "duration": 0.375,
      "velocity": 0.71,
      "hand": "right"
    },
    {
      "midi": 71,
      "time": 120.75,
      "duration": 0.375,
      "velocity": 0.71,
      "hand": "right"
    },
    {
      "midi": 71,
      "time": 121.5,
      "duration": 0.375,
      "velocity": 0.71,
      "hand": "right"
    },
    {
      "midi": 71,
      "time": 122.25,
      "duration": 0.375,
      "velocity": 0.71,
      "hand": "right"
    },
    {
      "midi": 71,
      "time": 123,
      "duration": 0.375,
      "velocity": 0.71,
      "hand": "right"
    },
    {
      "midi": 71,
      "time": 123.75,
      "duration": 0.375,
      "velocity": 0.71,
      "hand": "right"
    },
    {
      "midi": 71,
      "time": 124.5,
      "duration": 0.375,
      "velocity": 0.71,
      "hand": "right"
    },
    {
      "midi": 71,
      "time": 125.25,
      "duration": 0.375,
      "velocity": 0.71,
      "hand": "right"
    },
    {
      "midi": 71,
      "time": 126,
      "duration": 0.375,
      "velocity": 0.71,
      "hand": "right"
    },
    {
      "midi": 68,
      "time": 150.375,
      "duration": 0.375,
      "velocity": 0.71,
      "hand": "right"
    },
    {
      "midi": 68,
      "time": 151.125,
      "duration": 0.375,
      "velocity": 0.71,
      "hand": "right"
    },
    {
      "midi": 68,
      "time": 151.875,
      "duration": 0.375,
      "velocity": 0.71,
      "hand": "right"
    },
    {
      "midi": 68,
      "time": 152.625,
      "duration": 0.375,
      "velocity": 0.71,
      "hand": "right"
    },
    {
      "midi": 68,
      "time": 153.375,
      "duration": 0.375,
      "velocity": 0.71,
      "hand": "right"
    },
    {
      "midi": 68,
      "time": 154.125,
      "duration": 0.375,
      "velocity": 0.71,
      "hand": "right"
    },
    {
      "midi": 68,
      "time": 154.875,
      "duration": 0.375,
      "velocity": 0.71,
      "hand": "right"
    },
    {
      "midi": 68,
      "time": 155.625,
      "duration": 0.375,
      "velocity": 0.71,
      "hand": "right"
    },
    {
      "midi": 68,
      "time": 156.375,
      "duration": 0.375,
      "velocity": 0.71,
      "hand": "right"
    },
    {
      "midi": 68,
      "time": 157.125,
      "duration": 0.375,
      "velocity": 0.71,
      "hand": "right"
    },
    {
      "midi": 68,
      "time": 157.875,
      "duration": 0.375,
      "velocity": 0.71,
      "hand": "right"
    },
    {
      "midi": 68,
      "time": 158.625,
      "duration": 0.375,
      "velocity": 0.71,
      "hand": "right"
    },
    {
      "midi": 68,
      "time": 159.375,
      "duration": 0.375,
      "velocity": 0.71,
      "hand": "right"
    },
    {
      "midi": 68,
      "time": 160.125,
      "duration": 0.375,
      "velocity": 0.71,
      "hand": "right"
    },
    {
      "midi": 68,
      "time": 160.875,
      "duration": 0.375,
      "velocity": 0.71,
      "hand": "right"
    },
    {
      "midi": 68,
      "time": 161.625,
      "duration": 0.375,
      "velocity": 0.71,
      "hand": "right"
    },
    {
      "midi": 68,
      "time": 162.375,
      "duration": 0.375,
      "velocity": 0.71,
      "hand": "right"
    },
    {
      "midi": 68,
      "time": 163.125,
      "duration": 0.375,
      "velocity": 0.71,
      "hand": "right"
    },
    {
      "midi": 68,
      "time": 163.875,
      "duration": 0.375,
      "velocity": 0.71,
      "hand": "right"
    },
    {
      "midi": 68,
      "time": 164.625,
      "duration": 0.375,
      "velocity": 0.71,
      "hand": "right"
    },
    {
      "midi": 71,
      "time": 165,
      "duration": 0.375,
      "velocity": 0.71,
      "hand": "right"
    },
    {
      "midi": 71,
      "time": 165.75,
      "duration": 0.375,
      "velocity": 0.71,
      "hand": "right"
    },
    {
      "midi": 71,
      "time": 166.5,
      "duration": 0.375,
      "velocity": 0.71,
      "hand": "right"
    },
    {
      "midi": 71,
      "time": 167.25,
      "duration": 0.375,
      "velocity": 0.71,
      "hand": "right"
    },
    {
      "midi": 71,
      "time": 168,
      "duration": 0.375,
      "velocity": 0.71,
      "hand": "right"
    },
    {
      "midi": 71,
      "time": 168.75,
      "duration": 0.375,
      "velocity": 0.71,
      "hand": "right"
    },
    {
      "midi": 71,
      "time": 169.5,
      "duration": 0.375,
      "velocity": 0.71,
      "hand": "right"
    },
    {
      "midi": 71,
      "time": 170.25,
      "duration": 0.375,
      "velocity": 0.71,
      "hand": "right"
    },
    {
      "midi": 71,
      "time": 171,
      "duration": 0.375,
      "velocity": 0.71,
      "hand": "right"
    },
    {
      "midi": 71,
      "time": 171.75,
      "duration": 0.375,
      "velocity": 0.71,
      "hand": "right"
    },
    {
      "midi": 71,
      "time": 172.5,
      "duration": 0.375,
      "velocity": 0.71,
      "hand": "right"
    },
    {
      "midi": 71,
      "time": 173.25,
      "duration": 0.375,
      "velocity": 0.71,
      "hand": "right"
    },
    {
      "midi": 71,
      "time": 174,
      "duration": 0.375,
      "velocity": 0.71,
      "hand": "right"
    },
    {
      "midi": 68,
      "time": 174.375,
      "duration": 0.375,
      "velocity": 0.71,
      "hand": "right"
    },
    {
      "midi": 68,
      "time": 175.125,
      "duration": 0.375,
      "velocity": 0.71,
      "hand": "right"
    },
    {
      "midi": 68,
      "time": 175.875,
      "duration": 0.375,
      "velocity": 0.71,
      "hand": "right"
    },
    {
      "midi": 68,
      "time": 176.625,
      "duration": 0.375,
      "velocity": 0.71,
      "hand": "right"
    },
    {
      "midi": 72,
      "time": 177,
      "duration": 1.5,
      "velocity": 0.71,
      "hand": "right"
    },
    {
      "midi": 68,
      "time": 177.375,
      "duration": 0.375,
      "velocity": 0.71,
      "hand": "right"
    },
    {
      "midi": 68,
      "time": 178.125,
      "duration": 0.375,
      "velocity": 0.71,
      "hand": "right"
    },
    {
      "midi": 73,
      "time": 178.5,
      "duration": 1.5,
      "velocity": 0.71,
      "hand": "right"
    },
    {
      "midi": 68,
      "time": 178.875,
      "duration": 0.375,
      "velocity": 0.71,
      "hand": "right"
    },
    {
      "midi": 68,
      "time": 179.625,
      "duration": 0.375,
      "velocity": 0.71,
      "hand": "right"
    },
    {
      "midi": 75,
      "time": 180,
      "duration": 2.25,
      "velocity": 0.71,
      "hand": "right"
    },
    {
      "midi": 68,
      "time": 180.375,
      "duration": 0.375,
      "velocity": 0.71,
      "hand": "right"
    },
    {
      "midi": 68,
      "time": 181.125,
      "duration": 0.375,
      "velocity": 0.71,
      "hand": "right"
    },
    {
      "midi": 68,
      "time": 181.875,
      "duration": 0.375,
      "velocity": 0.71,
      "hand": "right"
    },
    {
      "midi": 75,
      "time": 182.25,
      "duration": 0.75,
      "velocity": 0.71,
      "hand": "right"
    },
    {
      "midi": 68,
      "time": 182.625,
      "duration": 0.375,
      "velocity": 0.71,
      "hand": "right"
    },
    {
      "midi": 76,
      "time": 183,
      "duration": 0.75,
      "velocity": 0.71,
      "hand": "right"
    },
    {
      "midi": 68,
      "time": 183.375,
      "duration": 0.375,
      "velocity": 0.71,
      "hand": "right"
    },
    {
      "midi": 76,
      "time": 183.75,
      "duration": 0.75,
      "velocity": 0.71,
      "hand": "right"
    },
    {
      "midi": 68,
      "time": 184.125,
      "duration": 0.375,
      "velocity": 0.71,
      "hand": "right"
    },
    {
      "midi": 75,
      "time": 184.5,
      "duration": 0.75,
      "velocity": 0.71,
      "hand": "right"
    },
    {
      "midi": 68,
      "time": 184.875,
      "duration": 0.375,
      "velocity": 0.71,
      "hand": "right"
    },
    {
      "midi": 75,
      "time": 185.25,
      "duration": 0.75,
      "velocity": 0.71,
      "hand": "right"
    },
    {
      "midi": 68,
      "time": 185.625,
      "duration": 0.375,
      "velocity": 0.71,
      "hand": "right"
    },
    {
      "midi": 73,
      "time": 186,
      "duration": 3,
      "velocity": 0.71,
      "hand": "right"
    },
    {
      "midi": 68,
      "time": 186.375,
      "duration": 0.375,
      "velocity": 0.71,
      "hand": "right"
    },
    {
      "midi": 66,
      "time": 186.75,
      "duration": 0.375,
      "velocity": 0.71,
      "hand": "right"
    },
    {
      "midi": 68,
      "time": 187.5,
      "duration": 0.375,
      "velocity": 0.71,
      "hand": "right"
    },
    {
      "midi": 69,
      "time": 188.25,
      "duration": 0.375,
      "velocity": 0.71,
      "hand": "right"
    },
    {
      "midi": 68,
      "time": 189,
      "duration": 1.5,
      "velocity": 0.71,
      "hand": "right"
    },
    {
      "midi": 68,
      "time": 190.5,
      "duration": 0.75,
      "velocity": 0.71,
      "hand": "right"
    },
    {
      "midi": 68,
      "time": 191.25,
      "duration": 0.75,
      "velocity": 0.71,
      "hand": "right"
    },
    {
      "midi": 68,
      "time": 192,
      "duration": 0.75,
      "velocity": 0.71,
      "hand": "right"
    },
    {
      "midi": 68,
      "time": 192.75,
      "duration": 0.75,
      "velocity": 0.71,
      "hand": "right"
    },
    {
      "midi": 68,
      "time": 193.5,
      "duration": 0.75,
      "velocity": 0.71,
      "hand": "right"
    },
    {
      "midi": 68,
      "time": 194.25,
      "duration": 0.75,
      "velocity": 0.71,
      "hand": "right"
    },
    {
      "midi": 68,
      "time": 195,
      "duration": 0.75,
      "velocity": 0.71,
      "hand": "right"
    },
    {
      "midi": 68,
      "time": 195.75,
      "duration": 0.75,
      "velocity": 0.71,
      "hand": "right"
    },
    {
      "midi": 68,
      "time": 196.5,
      "duration": 0.75,
      "velocity": 0.71,
      "hand": "right"
    },
    {
      "midi": 68,
      "time": 197.25,
      "duration": 0.75,
      "velocity": 0.71,
      "hand": "right"
    },
    {
      "midi": 68,
      "time": 198,
      "duration": 3,
      "velocity": 0.71,
      "hand": "right"
    },
    {
      "midi": 72,
      "time": 201,
      "duration": 1.5,
      "velocity": 0.71,
      "hand": "right"
    },
    {
      "midi": 68,
      "time": 201.375,
      "duration": 0.375,
      "velocity": 0.71,
      "hand": "right"
    },
    {
      "midi": 68,
      "time": 202.125,
      "duration": 0.375,
      "velocity": 0.71,
      "hand": "right"
    },
    {
      "midi": 73,
      "time": 202.5,
      "duration": 1.5,
      "velocity": 0.71,
      "hand": "right"
    },
    {
      "midi": 68,
      "time": 202.875,
      "duration": 0.375,
      "velocity": 0.71,
      "hand": "right"
    },
    {
      "midi": 68,
      "time": 203.625,
      "duration": 0.375,
      "velocity": 0.71,
      "hand": "right"
    },
    {
      "midi": 75,
      "time": 204,
      "duration": 2.25,
      "velocity": 0.71,
      "hand": "right"
    },
    {
      "midi": 68,
      "time": 204.375,
      "duration": 0.375,
      "velocity": 0.71,
      "hand": "right"
    },
    {
      "midi": 68,
      "time": 205.125,
      "duration": 0.375,
      "velocity": 0.71,
      "hand": "right"
    },
    {
      "midi": 68,
      "time": 205.875,
      "duration": 0.375,
      "velocity": 0.71,
      "hand": "right"
    },
    {
      "midi": 75,
      "time": 206.25,
      "duration": 0.75,
      "velocity": 0.71,
      "hand": "right"
    },
    {
      "midi": 68,
      "time": 206.625,
      "duration": 0.375,
      "velocity": 0.71,
      "hand": "right"
    },
    {
      "midi": 76,
      "time": 207,
      "duration": 0.75,
      "velocity": 0.71,
      "hand": "right"
    },
    {
      "midi": 68,
      "time": 207.375,
      "duration": 0.375,
      "velocity": 0.71,
      "hand": "right"
    },
    {
      "midi": 76,
      "time": 207.75,
      "duration": 0.75,
      "velocity": 0.71,
      "hand": "right"
    },
    {
      "midi": 68,
      "time": 208.125,
      "duration": 0.375,
      "velocity": 0.71,
      "hand": "right"
    },
    {
      "midi": 75,
      "time": 208.5,
      "duration": 0.75,
      "velocity": 0.71,
      "hand": "right"
    },
    {
      "midi": 68,
      "time": 208.875,
      "duration": 0.375,
      "velocity": 0.71,
      "hand": "right"
    },
    {
      "midi": 75,
      "time": 209.25,
      "duration": 0.75,
      "velocity": 0.71,
      "hand": "right"
    },
    {
      "midi": 68,
      "time": 209.625,
      "duration": 0.375,
      "velocity": 0.71,
      "hand": "right"
    },
    {
      "midi": 73,
      "time": 210,
      "duration": 1.5,
      "velocity": 0.71,
      "hand": "right"
    },
    {
      "midi": 61,
      "time": 210.375,
      "duration": 0.375,
      "velocity": 0.71,
      "hand": "right"
    },
    {
      "midi": 61,
      "time": 211.125,
      "duration": 0.375,
      "velocity": 0.71,
      "hand": "right"
    },
    {
      "midi": 73,
      "time": 211.5,
      "duration": 0.75,
      "velocity": 0.71,
      "hand": "right"
    },
    {
      "midi": 61,
      "time": 211.875,
      "duration": 0.375,
      "velocity": 0.71,
      "hand": "right"
    },
    {
      "midi": 73,
      "time": 212.25,
      "duration": 0.75,
      "velocity": 0.71,
      "hand": "right"
    },
    {
      "midi": 61,
      "time": 212.625,
      "duration": 0.375,
      "velocity": 0.71,
      "hand": "right"
    },
    {
      "midi": 68,
      "time": 213,
      "duration": 1.5,
      "velocity": 0.71,
      "hand": "right"
    },
    {
      "midi": 68,
      "time": 214.5,
      "duration": 0.75,
      "velocity": 0.71,
      "hand": "right"
    },
    {
      "midi": 70,
      "time": 215.25,
      "duration": 0.75,
      "velocity": 0.71,
      "hand": "right"
    },
    {
      "midi": 70,
      "time": 216,
      "duration": 1.5,
      "velocity": 0.71,
      "hand": "right"
    },
    {
      "midi": 68,
      "time": 217.5,
      "duration": 0.75,
      "velocity": 0.71,
      "hand": "right"
    },
    {
      "midi": 70,
      "time": 218.25,
      "duration": 0.75,
      "velocity": 0.71,
      "hand": "right"
    },
    {
      "midi": 70,
      "time": 219,
      "duration": 1.5,
      "velocity": 0.71,
      "hand": "right"
    },
    {
      "midi": 68,
      "time": 220.5,
      "duration": 0.75,
      "velocity": 0.71,
      "hand": "right"
    },
    {
      "midi": 70,
      "time": 221.25,
      "duration": 0.75,
      "velocity": 0.71,
      "hand": "right"
    },
    {
      "midi": 70,
      "time": 222,
      "duration": 0.75,
      "velocity": 0.71,
      "hand": "right"
    },
    {
      "midi": 68,
      "time": 222.75,
      "duration": 0.75,
      "velocity": 0.71,
      "hand": "right"
    },
    {
      "midi": 77,
      "time": 225,
      "duration": 0.563,
      "velocity": 0.71,
      "hand": "right"
    },
    {
      "midi": 73,
      "time": 225.563,
      "duration": 0.375,
      "velocity": 0.71,
      "hand": "right"
    },
    {
      "midi": 70,
      "time": 227.25,
      "duration": 0.75,
      "velocity": 0.71,
      "hand": "right"
    },
    {
      "midi": 72,
      "time": 228,
      "duration": 2.25,
      "velocity": 0.71,
      "hand": "right"
    },
    {
      "midi": 73,
      "time": 230.25,
      "duration": 0.75,
      "velocity": 0.71,
      "hand": "right"
    },
    {
      "midi": 75,
      "time": 231,
      "duration": 0.563,
      "velocity": 0.71,
      "hand": "right"
    },
    {
      "midi": 77,
      "time": 231.563,
      "duration": 0.375,
      "velocity": 0.71,
      "hand": "right"
    },
    {
      "midi": 77,
      "time": 233.25,
      "duration": 0.75,
      "velocity": 0.71,
      "hand": "right"
    },
    {
      "midi": 77,
      "time": 234,
      "duration": 1.125,
      "velocity": 0.71,
      "hand": "right"
    },
    {
      "midi": 66,
      "time": 234.75,
      "duration": 0.375,
      "velocity": 0.71,
      "hand": "right"
    },
    {
      "midi": 75,
      "time": 235.125,
      "duration": 0.375,
      "velocity": 0.71,
      "hand": "right"
    },
    {
      "midi": 73,
      "time": 235.5,
      "duration": 0.563,
      "velocity": 0.71,
      "hand": "right"
    },
    {
      "midi": 74,
      "time": 236.063,
      "duration": 0.375,
      "velocity": 0.71,
      "hand": "right"
    },
    {
      "midi": 77,
      "time": 237,
      "duration": 0.563,
      "velocity": 0.71,
      "hand": "right"
    },
    {
      "midi": 73,
      "time": 237.563,
      "duration": 0.375,
      "velocity": 0.71,
      "hand": "right"
    },
    {
      "midi": 70,
      "time": 239.25,
      "duration": 0.75,
      "velocity": 0.71,
      "hand": "right"
    },
    {
      "midi": 72,
      "time": 240,
      "duration": 0.75,
      "velocity": 0.71,
      "hand": "right"
    },
    {
      "midi": 82,
      "time": 242.25,
      "duration": 1.5,
      "velocity": 0.71,
      "hand": "right"
    },
    {
      "midi": 80,
      "time": 243.75,
      "duration": 0.75,
      "velocity": 0.71,
      "hand": "right"
    },
    {
      "midi": 78,
      "time": 244.5,
      "duration": 0.75,
      "velocity": 0.71,
      "hand": "right"
    },
    {
      "midi": 72,
      "time": 245.25,
      "duration": 0.75,
      "velocity": 0.71,
      "hand": "right"
    },
    {
      "midi": 77,
      "time": 246,
      "duration": 0.75,
      "velocity": 0.71,
      "hand": "right"
    },
    {
      "midi": 75,
      "time": 246.75,
      "duration": 0.75,
      "velocity": 0.71,
      "hand": "right"
    },
    {
      "midi": 73,
      "time": 247.5,
      "duration": 0.75,
      "velocity": 0.71,
      "hand": "right"
    },
    {
      "midi": 70,
      "time": 248.25,
      "duration": 0.75,
      "velocity": 0.71,
      "hand": "right"
    },
    {
      "midi": 66,
      "time": 249,
      "duration": 3,
      "velocity": 0.71,
      "hand": "right"
    },
    {
      "midi": 60,
      "time": 250.5,
      "duration": 1.5,
      "velocity": 0.71,
      "hand": "right"
    },
    {
      "midi": 65,
      "time": 252,
      "duration": 3,
      "velocity": 0.71,
      "hand": "right"
    },
    {
      "midi": 61,
      "time": 253.875,
      "duration": 0.375,
      "velocity": 0.71,
      "hand": "right"
    },
    {
      "midi": 63,
      "time": 254.25,
      "duration": 0.563,
      "velocity": 0.71,
      "hand": "right"
    },
    {
      "midi": 61,
      "time": 254.813,
      "duration": 0.375,
      "velocity": 0.71,
      "hand": "right"
    },
    {
      "midi": 60,
      "time": 255.75,
      "duration": 0.75,
      "velocity": 0.71,
      "hand": "right"
    },
    {
      "midi": 70,
      "time": 256.5,
      "duration": 0.75,
      "velocity": 0.71,
      "hand": "right"
    },
    {
      "midi": 60,
      "time": 257.25,
      "duration": 0.75,
      "velocity": 0.71,
      "hand": "right"
    },
    {
      "midi": 66,
      "time": 258,
      "duration": 3,
      "velocity": 0.71,
      "hand": "right"
    },
    {
      "midi": 65,
      "time": 261,
      "duration": 3,
      "velocity": 0.71,
      "hand": "right"
    },
    {
      "midi": 65,
      "time": 264,
      "duration": 3,
      "velocity": 0.71,
      "hand": "right"
    }
  ],
  "notes2Hands": [
    {
      "midi": 49,
      "time": 0,
      "duration": 0.375,
      "velocity": 0.71,
      "hand": "left"
    },
    {
      "midi": 77,
      "time": 0,
      "duration": 0.563,
      "velocity": 0.71,
      "hand": "right"
    },
    {
      "midi": 56,
      "time": 0.375,
      "duration": 0.375,
      "velocity": 0.71,
      "hand": "left"
    },
    {
      "midi": 73,
      "time": 0.563,
      "duration": 0.188,
      "velocity": 0.71,
      "hand": "right"
    },
    {
      "midi": 61,
      "time": 0.75,
      "duration": 1.5,
      "velocity": 0.71,
      "hand": "right"
    },
    {
      "midi": 65,
      "time": 0.75,
      "duration": 1.5,
      "velocity": 0.71,
      "hand": "right"
    },
    {
      "midi": 68,
      "time": 0.75,
      "duration": 1.5,
      "velocity": 0.71,
      "hand": "right"
    },
    {
      "midi": 56,
      "time": 1.125,
      "duration": 0.375,
      "velocity": 0.71,
      "hand": "left"
    },
    {
      "midi": 56,
      "time": 1.5,
      "duration": 0.375,
      "velocity": 0.71,
      "hand": "left"
    },
    {
      "midi": 56,
      "time": 1.875,
      "duration": 0.375,
      "velocity": 0.71,
      "hand": "left"
    },
    {
      "midi": 61,
      "time": 2.25,
      "duration": 0.375,
      "velocity": 0.71,
      "hand": "right"
    },
    {
      "midi": 65,
      "time": 2.25,
      "duration": 0.375,
      "velocity": 0.71,
      "hand": "right"
    },
    {
      "midi": 70,
      "time": 2.25,
      "duration": 0.75,
      "velocity": 0.71,
      "hand": "right"
    },
    {
      "midi": 56,
      "time": 2.625,
      "duration": 0.375,
      "velocity": 0.71,
      "hand": "left"
    },
    {
      "midi": 63,
      "time": 3,
      "duration": 2.25,
      "velocity": 0.71,
      "hand": "right"
    },
    {
      "midi": 66,
      "time": 3,
      "duration": 2.25,
      "velocity": 0.71,
      "hand": "right"
    },
    {
      "midi": 72,
      "time": 3,
      "duration": 2.25,
      "velocity": 0.71,
      "hand": "right"
    },
    {
      "midi": 56,
      "time": 3.375,
      "duration": 0.375,
      "velocity": 0.71,
      "hand": "left"
    },
    {
      "midi": 56,
      "time": 3.75,
      "duration": 0.375,
      "velocity": 0.71,
      "hand": "left"
    },
    {
      "midi": 56,
      "time": 4.125,
      "duration": 0.375,
      "velocity": 0.71,
      "hand": "left"
    },
    {
      "midi": 58,
      "time": 4.5,
      "duration": 0.375,
      "velocity": 0.71,
      "hand": "left"
    },
    {
      "midi": 56,
      "time": 4.875,
      "duration": 0.375,
      "velocity": 0.71,
      "hand": "left"
    },
    {
      "midi": 61,
      "time": 5.25,
      "duration": 0.375,
      "velocity": 0.71,
      "hand": "right"
    },
    {
      "midi": 65,
      "time": 5.25,
      "duration": 0.375,
      "velocity": 0.71,
      "hand": "right"
    },
    {
      "midi": 73,
      "time": 5.25,
      "duration": 0.75,
      "velocity": 0.71,
      "hand": "right"
    },
    {
      "midi": 56,
      "time": 5.625,
      "duration": 0.375,
      "velocity": 0.71,
      "hand": "left"
    },
    {
      "midi": 60,
      "time": 6,
      "duration": 2.25,
      "velocity": 0.71,
      "hand": "right"
    },
    {
      "midi": 66,
      "time": 6,
      "duration": 0.375,
      "velocity": 0.71,
      "hand": "right"
    },
    {
      "midi": 75,
      "time": 6,
      "duration": 0.563,
      "velocity": 0.71,
      "hand": "right"
    },
    {
      "midi": 56,
      "time": 6.375,
      "duration": 0.75,
      "velocity": 0.71,
      "hand": "left"
    },
    {
      "midi": 68,
      "time": 6.563,
      "duration": 0.188,
      "velocity": 0.71,
      "hand": "right"
    },
    {
      "midi": 77,
      "time": 6.563,
      "duration": 0.188,
      "velocity": 0.71,
      "hand": "right"
    },
    {
      "midi": 70,
      "time": 6.75,
      "duration": 1.5,
      "velocity": 0.71,
      "hand": "right"
    },
    {
      "midi": 78,
      "time": 6.75,
      "duration": 1.5,
      "velocity": 0.71,
      "hand": "right"
    },
    {
      "midi": 56,
      "time": 7.125,
      "duration": 0.375,
      "velocity": 0.71,
      "hand": "left"
    },
    {
      "midi": 56,
      "time": 7.5,
      "duration": 0.375,
      "velocity": 0.71,
      "hand": "left"
    },
    {
      "midi": 56,
      "time": 7.875,
      "duration": 0.75,
      "velocity": 0.71,
      "hand": "left"
    },
    {
      "midi": 61,
      "time": 8.25,
      "duration": 0.375,
      "velocity": 0.71,
      "hand": "right"
    },
    {
      "midi": 68,
      "time": 8.25,
      "duration": 0.375,
      "velocity": 0.71,
      "hand": "right"
    },
    {
      "midi": 77,
      "time": 8.25,
      "duration": 0.75,
      "velocity": 0.71,
      "hand": "right"
    },
    {
      "midi": 56,
      "time": 8.625,
      "duration": 0.375,
      "velocity": 0.71,
      "hand": "left"
    },
    {
      "midi": 60,
      "time": 9,
      "duration": 1.5,
      "velocity": 0.71,
      "hand": "right"
    },
    {
      "midi": 68,
      "time": 9,
      "duration": 0.375,
      "velocity": 0.71,
      "hand": "right"
    },
    {
      "midi": 77,
      "time": 9,
      "duration": 1.125,
      "velocity": 0.71,
      "hand": "right"
    },
    {
      "midi": 56,
      "time": 9.375,
      "duration": 0.375,
      "velocity": 0.71,
      "hand": "left"
    },
    {
      "midi": 66,
      "time": 9.75,
      "duration": 0.375,
      "velocity": 0.71,
      "hand": "right"
    },
    {
      "midi": 56,
      "time": 10.125,
      "duration": 0.375,
      "velocity": 0.71,
      "hand": "left"
    },
    {
      "midi": 75,
      "time": 10.125,
      "duration": 0.375,
      "velocity": 0.71,
      "hand": "right"
    },
    {
      "midi": 61,
      "time": 10.5,
      "duration": 0.375,
      "velocity": 0.71,
      "hand": "right"
    },
    {
      "midi": 65,
      "time": 10.5,
      "duration": 0.375,
      "velocity": 0.71,
      "hand": "right"
    },
    {
      "midi": 73,
      "time": 10.5,
      "duration": 0.75,
      "velocity": 0.71,
      "hand": "right"
    },
    {
      "midi": 56,
      "time": 10.875,
      "duration": 0.375,
      "velocity": 0.71,
      "hand": "left"
    },
    {
      "midi": 60,
      "time": 11.25,
      "duration": 0.375,
      "velocity": 0.71,
      "hand": "right"
    },
    {
      "midi": 66,
      "time": 11.25,
      "duration": 0.375,
      "velocity": 0.71,
      "hand": "right"
    },
    {
      "midi": 75,
      "time": 11.25,
      "duration": 0.094,
      "velocity": 0.71,
      "hand": "right"
    },
    {
      "midi": 75,
      "time": 11.25,
      "duration": 0.188,
      "velocity": 0.71,
      "hand": "right"
    },
    {
      "midi": 75,
      "time": 11.438,
      "duration": 0.188,
      "velocity": 0.71,
      "hand": "right"
    },
    {
      "midi": 77,
      "time": 11.438,
      "duration": 0.188,
      "velocity": 0.71,
      "hand": "right"
    },
    {
      "midi": 56,
      "time": 11.625,
      "duration": 0.375,
      "velocity": 0.71,
      "hand": "left"
    },
    {
      "midi": 74,
      "time": 11.625,
      "duration": 0.188,
      "velocity": 0.71,
      "hand": "right"
    },
    {
      "midi": 75,
      "time": 11.625,
      "duration": 0.188,
      "velocity": 0.71,
      "hand": "right"
    },
    {
      "midi": 77,
      "time": 11.813,
      "duration": 0.188,
      "velocity": 0.71,
      "hand": "right"
    },
    {
      "midi": 78,
      "time": 11.813,
      "duration": 0.188,
      "velocity": 0.71,
      "hand": "right"
    },
    {
      "midi": 49,
      "time": 12,
      "duration": 0.375,
      "velocity": 0.71,
      "hand": "left"
    },
    {
      "midi": 77,
      "time": 12,
      "duration": 0.563,
      "velocity": 0.71,
      "hand": "right"
    },
    {
      "midi": 56,
      "time": 12.375,
      "duration": 0.375,
      "velocity": 0.71,
      "hand": "left"
    },
    {
      "midi": 73,
      "time": 12.563,
      "duration": 0.188,
      "velocity": 0.71,
      "hand": "right"
    },
    {
      "midi": 61,
      "time": 12.75,
      "duration": 2.25,
      "velocity": 0.71,
      "hand": "right"
    },
    {
      "midi": 65,
      "time": 12.75,
      "duration": 2.25,
      "velocity": 0.71,
      "hand": "right"
    },
    {
      "midi": 68,
      "time": 12.75,
      "duration": 1.5,
      "velocity": 0.71,
      "hand": "right"
    },
    {
      "midi": 56,
      "time": 13.125,
      "duration": 0.375,
      "velocity": 0.71,
      "hand": "left"
    },
    {
      "midi": 56,
      "time": 13.5,
      "duration": 0.375,
      "velocity": 0.71,
      "hand": "left"
    },
    {
      "midi": 56,
      "time": 13.875,
      "duration": 0.375,
      "velocity": 0.71,
      "hand": "left"
    },
    {
      "midi": 56,
      "time": 14.25,
      "duration": 0.375,
      "velocity": 0.71,
      "hand": "left"
    },
    {
      "midi": 70,
      "time": 14.25,
      "duration": 0.75,
      "velocity": 0.71,
      "hand": "right"
    },
    {
      "midi": 56,
      "time": 14.625,
      "duration": 0.375,
      "velocity": 0.71,
      "hand": "left"
    },
    {
      "midi": 63,
      "time": 15,
      "duration": 2.25,
      "velocity": 0.71,
      "hand": "right"
    },
    {
      "midi": 66,
      "time": 15,
      "duration": 2.25,
      "velocity": 0.71,
      "hand": "right"
    },
    {
      "midi": 72,
      "time": 15,
      "duration": 2.25,
      "velocity": 0.71,
      "hand": "right"
    },
    {
      "midi": 56,
      "time": 15.375,
      "duration": 0.375,
      "velocity": 0.71,
      "hand": "left"
    },
    {
      "midi": 56,
      "time": 15.75,
      "duration": 0.375,
      "velocity": 0.71,
      "hand": "left"
    },
    {
      "midi": 56,
      "time": 16.125,
      "duration": 0.375,
      "velocity": 0.71,
      "hand": "left"
    },
    {
      "midi": 58,
      "time": 16.5,
      "duration": 0.375,
      "velocity": 0.71,
      "hand": "left"
    },
    {
      "midi": 56,
      "time": 16.875,
      "duration": 0.375,
      "velocity": 0.71,
      "hand": "left"
    },
    {
      "midi": 61,
      "time": 17.25,
      "duration": 0.375,
      "velocity": 0.71,
      "hand": "right"
    },
    {
      "midi": 65,
      "time": 17.25,
      "duration": 0.375,
      "velocity": 0.71,
      "hand": "right"
    },
    {
      "midi": 73,
      "time": 17.25,
      "duration": 0.75,
      "velocity": 0.71,
      "hand": "right"
    },
    {
      "midi": 56,
      "time": 17.625,
      "duration": 0.375,
      "velocity": 0.71,
      "hand": "left"
    },
    {
      "midi": 60,
      "time": 18,
      "duration": 2.25,
      "velocity": 0.71,
      "hand": "right"
    },
    {
      "midi": 66,
      "time": 18,
      "duration": 0.375,
      "velocity": 0.71,
      "hand": "right"
    },
    {
      "midi": 75,
      "time": 18,
      "duration": 0.563,
      "velocity": 0.71,
      "hand": "right"
    },
    {
      "midi": 56,
      "time": 18.375,
      "duration": 0.75,
      "velocity": 0.71,
      "hand": "left"
    },
    {
      "midi": 68,
      "time": 18.563,
      "duration": 0.188,
      "velocity": 0.71,
      "hand": "right"
    },
    {
      "midi": 77,
      "time": 18.563,
      "duration": 0.188,
      "velocity": 0.71,
      "hand": "right"
    },
    {
      "midi": 70,
      "time": 18.75,
      "duration": 1.5,
      "velocity": 0.71,
      "hand": "right"
    },
    {
      "midi": 78,
      "time": 18.75,
      "duration": 1.5,
      "velocity": 0.71,
      "hand": "right"
    },
    {
      "midi": 56,
      "time": 19.125,
      "duration": 0.375,
      "velocity": 0.71,
      "hand": "left"
    },
    {
      "midi": 56,
      "time": 19.5,
      "duration": 0.375,
      "velocity": 0.71,
      "hand": "left"
    },
    {
      "midi": 56,
      "time": 19.875,
      "duration": 0.75,
      "velocity": 0.71,
      "hand": "left"
    },
    {
      "midi": 61,
      "time": 20.25,
      "duration": 0.375,
      "velocity": 0.71,
      "hand": "right"
    },
    {
      "midi": 68,
      "time": 20.25,
      "duration": 0.375,
      "velocity": 0.71,
      "hand": "right"
    },
    {
      "midi": 77,
      "time": 20.25,
      "duration": 0.75,
      "velocity": 0.71,
      "hand": "right"
    },
    {
      "midi": 56,
      "time": 20.625,
      "duration": 0.375,
      "velocity": 0.71,
      "hand": "left"
    },
    {
      "midi": 60,
      "time": 21,
      "duration": 1.5,
      "velocity": 0.71,
      "hand": "right"
    },
    {
      "midi": 68,
      "time": 21,
      "duration": 0.375,
      "velocity": 0.71,
      "hand": "right"
    },
    {
      "midi": 77,
      "time": 21,
      "duration": 1.125,
      "velocity": 0.71,
      "hand": "right"
    },
    {
      "midi": 56,
      "time": 21.375,
      "duration": 0.375,
      "velocity": 0.71,
      "hand": "left"
    },
    {
      "midi": 63,
      "time": 21.75,
      "duration": 0.375,
      "velocity": 0.71,
      "hand": "right"
    },
    {
      "midi": 56,
      "time": 22.125,
      "duration": 0.375,
      "velocity": 0.71,
      "hand": "left"
    },
    {
      "midi": 75,
      "time": 22.125,
      "duration": 0.375,
      "velocity": 0.71,
      "hand": "right"
    },
    {
      "midi": 61,
      "time": 22.5,
      "duration": 0.375,
      "velocity": 0.71,
      "hand": "right"
    },
    {
      "midi": 65,
      "time": 22.5,
      "duration": 0.375,
      "velocity": 0.71,
      "hand": "right"
    },
    {
      "midi": 73,
      "time": 22.5,
      "duration": 0.75,
      "velocity": 0.71,
      "hand": "right"
    },
    {
      "midi": 56,
      "time": 22.875,
      "duration": 0.375,
      "velocity": 0.71,
      "hand": "left"
    },
    {
      "midi": 61,
      "time": 23.25,
      "duration": 0.375,
      "velocity": 0.71,
      "hand": "right"
    },
    {
      "midi": 65,
      "time": 23.25,
      "duration": 0.375,
      "velocity": 0.71,
      "hand": "right"
    },
    {
      "midi": 72,
      "time": 23.25,
      "duration": 0.375,
      "velocity": 0.71,
      "hand": "right"
    },
    {
      "midi": 56,
      "time": 23.625,
      "duration": 0.375,
      "velocity": 0.71,
      "hand": "left"
    },
    {
      "midi": 73,
      "time": 23.625,
      "duration": 0.375,
      "velocity": 0.71,
      "hand": "right"
    },
    {
      "midi": 44,
      "time": 24,
      "duration": 0.375,
      "velocity": 0.71,
      "hand": "left"
    },
    {
      "midi": 75,
      "time": 24,
      "duration": 0.75,
      "velocity": 0.71,
      "hand": "right"
    },
    {
      "midi": 56,
      "time": 24.375,
      "duration": 0.375,
      "velocity": 0.71,
      "hand": "left"
    },
    {
      "midi": 63,
      "time": 24.75,
      "duration": 0.375,
      "velocity": 0.71,
      "hand": "right"
    },
    {
      "midi": 75,
      "time": 24.75,
      "duration": 1.5,
      "velocity": 0.71,
      "hand": "right"
    },
    {
      "midi": 56,
      "time": 25.125,
      "duration": 0.375,
      "velocity": 0.71,
      "hand": "left"
    },
    {
      "midi": 59,
      "time": 25.5,
      "duration": 0.375,
      "velocity": 0.71,
      "hand": "left"
    },
    {
      "midi": 63,
      "time": 25.5,
      "duration": 0.375,
      "velocity": 0.71,
      "hand": "right"
    },
    {
      "midi": 56,
      "time": 25.875,
      "duration": 0.375,
      "velocity": 0.71,
      "hand": "left"
    },
    {
      "midi": 49,
      "time": 26.25,
      "duration": 0.375,
      "velocity": 0.71,
      "hand": "left"
    },
    {
      "midi": 59,
      "time": 26.25,
      "duration": 0.375,
      "velocity": 0.71,
      "hand": "left"
    },
    {
      "midi": 65,
      "time": 26.25,
      "duration": 0.375,
      "velocity": 0.71,
      "hand": "right"
    },
    {
      "midi": 77,
      "time": 26.25,
      "duration": 0.75,
      "velocity": 0.71,
      "hand": "right"
    },
    {
      "midi": 61,
      "time": 26.625,
      "duration": 0.375,
      "velocity": 0.71,
      "hand": "right"
    },
    {
      "midi": 54,
      "time": 27,
      "duration": 0.375,
      "velocity": 0.71,
      "hand": "left"
    },
    {
      "midi": 58,
      "time": 27,
      "duration": 0.375,
      "velocity": 0.71,
      "hand": "left"
    },
    {
      "midi": 78,
      "time": 27,
      "duration": 0.375,
      "velocity": 0.71,
      "hand": "right"
    },
    {
      "midi": 61,
      "time": 27.375,
      "duration": 0.375,
      "velocity": 0.71,
      "hand": "right"
    },
    {
      "midi": 77,
      "time": 27.375,
      "duration": 0.375,
      "velocity": 0.71,
      "hand": "right"
    },
    {
      "midi": 58,
      "time": 27.75,
      "duration": 0.375,
      "velocity": 0.71,
      "hand": "left"
    },
    {
      "midi": 66,
      "time": 27.75,
      "duration": 0.375,
      "velocity": 0.71,
      "hand": "right"
    },
    {
      "midi": 75,
      "time": 27.75,
      "duration": 0.375,
      "velocity": 0.71,
      "hand": "right"
    },
    {
      "midi": 61,
      "time": 28.125,
      "duration": 0.375,
      "velocity": 0.71,
      "hand": "right"
    },
    {
      "midi": 73,
      "time": 28.125,
      "duration": 0.375,
      "velocity": 0.71,
      "hand": "right"
    },
    {
      "midi": 49,
      "time": 28.5,
      "duration": 0.375,
      "velocity": 0.71,
      "hand": "left"
    },
    {
      "midi": 77,
      "time": 28.5,
      "duration": 1.5,
      "velocity": 0.71,
      "hand": "right"
    },
    {
      "midi": 56,
      "time": 28.875,
      "duration": 0.375,
      "velocity": 0.71,
      "hand": "left"
    },
    {
      "midi": 61,
      "time": 29.25,
      "duration": 0.375,
      "velocity": 0.71,
      "hand": "right"
    },
    {
      "midi": 65,
      "time": 29.25,
      "duration": 0.375,
      "velocity": 0.71,
      "hand": "right"
    },
    {
      "midi": 56,
      "time": 29.625,
      "duration": 0.375,
      "velocity": 0.71,
      "hand": "left"
    },
    {
      "midi": 51,
      "time": 30,
      "duration": 0.375,
      "velocity": 0.71,
      "hand": "left"
    },
    {
      "midi": 75,
      "time": 30,
      "duration": 0.375,
      "velocity": 0.71,
      "hand": "right"
    },
    {
      "midi": 56,
      "time": 30.375,
      "duration": 0.375,
      "velocity": 0.71,
      "hand": "left"
    },
    {
      "midi": 71,
      "time": 30.375,
      "duration": 0.375,
      "velocity": 0.71,
      "hand": "right"
    },
    {
      "midi": 59,
      "time": 30.75,
      "duration": 0.375,
      "velocity": 0.71,
      "hand": "left"
    },
    {
      "midi": 63,
      "time": 30.75,
      "duration": 0.375,
      "velocity": 0.71,
      "hand": "right"
    },
    {
      "midi": 70,
      "time": 30.75,
      "duration": 0.375,
      "velocity": 0.71,
      "hand": "right"
    },
    {
      "midi": 56,
      "time": 31.125,
      "duration": 0.375,
      "velocity": 0.71,
      "hand": "left"
    },
    {
      "midi": 68,
      "time": 31.125,
      "duration": 0.375,
      "velocity": 0.71,
      "hand": "right"
    },
    {
      "midi": 51,
      "time": 31.5,
      "duration": 0.375,
      "velocity": 0.71,
      "hand": "left"
    },
    {
      "midi": 70,
      "time": 31.5,
      "duration": 0.563,
      "velocity": 0.71,
      "hand": "right"
    },
    {
      "midi": 55,
      "time": 31.875,
      "duration": 0.375,
      "velocity": 0.71,
      "hand": "left"
    },
    {
      "midi": 70,
      "time": 32.063,
      "duration": 0.094,
      "velocity": 0.71,
      "hand": "right"
    },
    {
      "midi": 71,
      "time": 32.063,
      "duration": 0.094,
      "velocity": 0.71,
      "hand": "right"
    },
    {
      "midi": 61,
      "time": 32.25,
      "duration": 0.375,
      "velocity": 0.71,
      "hand": "right"
    },
    {
      "midi": 63,
      "time": 32.25,
      "duration": 0.375,
      "velocity": 0.71,
      "hand": "right"
    },
    {
      "midi": 68,
      "time": 32.25,
      "duration": 0.094,
      "velocity": 0.71,
      "hand": "right"
    },
    {
      "midi": 70,
      "time": 32.25,
      "duration": 0.563,
      "velocity": 0.71,
      "hand": "right"
    },
    {
      "midi": 55,
      "time": 32.625,
      "duration": 0.375,
      "velocity": 0.71,
      "hand": "left"
    },
    {
      "midi": 71,
      "time": 32.813,
      "duration": 0.188,
      "velocity": 0.71,
      "hand": "right"
    },
    {
      "midi": 44,
      "time": 33,
      "duration": 0.375,
      "velocity": 0.71,
      "hand": "left"
    },
    {
      "midi": 68,
      "time": 33,
      "duration": 0.75,
      "velocity": 0.71,
      "hand": "right"
    },
    {
      "midi": 56,
      "time": 33.375,
      "duration": 0.375,
      "velocity": 0.71,
      "hand": "left"
    },
    {
      "midi": 59,
      "time": 33.75,
      "duration": 0.375,
      "velocity": 0.71,
      "hand": "left"
    },
    {
      "midi": 63,
      "time": 33.75,
      "duration": 0.375,
      "velocity": 0.71,
      "hand": "right"
    },
    {
      "midi": 75,
      "time": 33.75,
      "duration": 0.75,
      "velocity": 0.71,
      "hand": "right"
    },
    {
      "midi": 56,
      "time": 34.125,
      "duration": 0.375,
      "velocity": 0.71,
      "hand": "left"
    },
    {
      "midi": 58,
      "time": 34.5,
      "duration": 0.375,
      "velocity": 0.71,
      "hand": "left"
    },
    {
      "midi": 61,
      "time": 34.5,
      "duration": 0.375,
      "velocity": 0.71,
      "hand": "right"
    },
    {
      "midi": 73,
      "time": 34.5,
      "duration": 0.75,
      "velocity": 0.71,
      "hand": "right"
    },
    {
      "midi": 56,
      "time": 34.875,
      "duration": 0.375,
      "velocity": 0.71,
      "hand": "left"
    },
    {
      "midi": 61,
      "time": 35.25,
      "duration": 0.375,
      "velocity": 0.71,
      "hand": "right"
    },
    {
      "midi": 64,
      "time": 35.25,
      "duration": 0.375,
      "velocity": 0.71,
      "hand": "right"
    },
    {
      "midi": 76,
      "time": 35.25,
      "duration": 0.75,
      "velocity": 0.71,
      "hand": "right"
    },
    {
      "midi": 56,
      "time": 35.625,
      "duration": 0.375,
      "velocity": 0.71,
      "hand": "left"
    },
    {
      "midi": 44,
      "time": 36,
      "duration": 0.375,
      "velocity": 0.71,
      "hand": "left"
    },
    {
      "midi": 75,
      "time": 36,
      "duration": 0.75,
      "velocity": 0.71,
      "hand": "right"
    },
    {
      "midi": 56,
      "time": 36.375,
      "duration": 0.375,
      "velocity": 0.71,
      "hand": "left"
    },
    {
      "midi": 59,
      "time": 36.75,
      "duration": 1.5,
      "velocity": 0.71,
      "hand": "left"
    },
    {
      "midi": 63,
      "time": 36.75,
      "duration": 1.5,
      "velocity": 0.71,
      "hand": "right"
    },
    {
      "midi": 75,
      "time": 36.75,
      "duration": 1.5,
      "velocity": 0.71,
      "hand": "right"
    },
    {
      "midi": 56,
      "time": 37.125,
      "duration": 0.375,
      "velocity": 0.71,
      "hand": "left"
    },
    {
      "midi": 56,
      "time": 37.5,
      "duration": 0.375,
      "velocity": 0.71,
      "hand": "left"
    },
    {
      "midi": 56,
      "time": 37.875,
      "duration": 0.375,
      "velocity": 0.71,
      "hand": "left"
    },
    {
      "midi": 59,
      "time": 38.25,
      "duration": 0.375,
      "velocity": 0.71,
      "hand": "left"
    },
    {
      "midi": 65,
      "time": 38.25,
      "duration": 0.375,
      "velocity": 0.71,
      "hand": "right"
    },
    {
      "midi": 77,
      "time": 38.25,
      "duration": 0.75,
      "velocity": 0.71,
      "hand": "right"
    },
    {
      "midi": 56,
      "time": 38.625,
      "duration": 0.375,
      "velocity": 0.71,
      "hand": "left"
    },
    {
      "midi": 51,
      "time": 39,
      "duration": 0.375,
      "velocity": 0.71,
      "hand": "left"
    },
    {
      "midi": 78,
      "time": 39,
      "duration": 0.375,
      "velocity": 0.71,
      "hand": "right"
    },
    {
      "midi": 54,
      "time": 39.375,
      "duration": 0.375,
      "velocity": 0.71,
      "hand": "left"
    },
    {
      "midi": 77,
      "time": 39.375,
      "duration": 0.375,
      "velocity": 0.71,
      "hand": "right"
    },
    {
      "midi": 58,
      "time": 39.75,
      "duration": 0.375,
      "velocity": 0.71,
      "hand": "left"
    },
    {
      "midi": 66,
      "time": 39.75,
      "duration": 0.375,
      "velocity": 0.71,
      "hand": "right"
    },
    {
      "midi": 75,
      "time": 39.75,
      "duration": 0.375,
      "velocity": 0.71,
      "hand": "right"
    },
    {
      "midi": 54,
      "time": 40.125,
      "duration": 0.375,
      "velocity": 0.71,
      "hand": "left"
    },
    {
      "midi": 73,
      "time": 40.125,
      "duration": 0.375,
      "velocity": 0.71,
      "hand": "right"
    },
    {
      "midi": 46,
      "time": 40.5,
      "duration": 0.375,
      "velocity": 0.71,
      "hand": "left"
    },
    {
      "midi": 77,
      "time": 40.5,
      "duration": 1.875,
      "velocity": 0.71,
      "hand": "right"
    },
    {
      "midi": 53,
      "time": 40.875,
      "duration": 0.375,
      "velocity": 0.71,
      "hand": "left"
    },
    {
      "midi": 58,
      "time": 41.25,
      "duration": 0.375,
      "velocity": 0.71,
      "hand": "left"
    },
    {
      "midi": 61,
      "time": 41.25,
      "duration": 0.375,
      "velocity": 0.71,
      "hand": "right"
    },
    {
      "midi": 65,
      "time": 41.25,
      "duration": 0.375,
      "velocity": 0.71,
      "hand": "right"
    },
    {
      "midi": 53,
      "time": 41.625,
      "duration": 0.375,
      "velocity": 0.71,
      "hand": "left"
    },
    {
      "midi": 41,
      "time": 42,
      "duration": 0.375,
      "velocity": 0.71,
      "hand": "left"
    },
    {
      "midi": 53,
      "time": 42.375,
      "duration": 0.375,
      "velocity": 0.71,
      "hand": "left"
    },
    {
      "midi": 73,
      "time": 42.375,
      "duration": 0.375,
      "velocity": 0.71,
      "hand": "right"
    },
    {
      "midi": 58,
      "time": 42.75,
      "duration": 0.375,
      "velocity": 0.71,
      "hand": "left"
    },
    {
      "midi": 61,
      "time": 42.75,
      "duration": 0.375,
      "velocity": 0.71,
      "hand": "right"
    },
    {
      "midi": 65,
      "time": 42.75,
      "duration": 0.375,
      "velocity": 0.71,
      "hand": "right"
    },
    {
      "midi": 72,
      "time": 42.75,
      "duration": 0.375,
      "velocity": 0.71,
      "hand": "right"
    },
    {
      "midi": 53,
      "time": 43.125,
      "duration": 0.375,
      "velocity": 0.71,
      "hand": "left"
    },
    {
      "midi": 70,
      "time": 43.125,
      "duration": 0.375,
      "velocity": 0.71,
      "hand": "right"
    },
    {
      "midi": 41,
      "time": 43.5,
      "duration": 0.375,
      "velocity": 0.71,
      "hand": "left"
    },
    {
      "midi": 72,
      "time": 43.5,
      "duration": 0.563,
      "velocity": 0.71,
      "hand": "right"
    },
    {
      "midi": 53,
      "time": 43.875,
      "duration": 0.375,
      "velocity": 0.71,
      "hand": "left"
    },
    {
      "midi": 72,
      "time": 44.063,
      "duration": 0.094,
      "velocity": 0.71,
      "hand": "right"
    },
    {
      "midi": 73,
      "time": 44.063,
      "duration": 0.094,
      "velocity": 0.71,
      "hand": "right"
    },
    {
      "midi": 57,
      "time": 44.25,
      "duration": 0.375,
      "velocity": 0.71,
      "hand": "left"
    },
    {
      "midi": 63,
      "time": 44.25,
      "duration": 0.375,
      "velocity": 0.71,
      "hand": "right"
    },
    {
      "midi": 65,
      "time": 44.25,
      "duration": 0.375,
      "velocity": 0.71,
      "hand": "right"
    },
    {
      "midi": 70,
      "time": 44.25,
      "duration": 0.094,
      "velocity": 0.71,
      "hand": "right"
    },
    {
      "midi": 72,
      "time": 44.25,
      "duration": 0.375,
      "velocity": 0.71,
      "hand": "right"
    },
    {
      "midi": 53,
      "time": 44.625,
      "duration": 0.375,
      "velocity": 0.71,
      "hand": "left"
    },
    {
      "midi": 73,
      "time": 44.625,
      "duration": 0.375,
      "velocity": 0.71,
      "hand": "right"
    },
    {
      "midi": 46,
      "time": 45,
      "duration": 0.375,
      "velocity": 0.71,
      "hand": "left"
    },
    {
      "midi": 70,
      "time": 45,
      "duration": 0.75,
      "velocity": 0.71,
      "hand": "right"
    },
    {
      "midi": 53,
      "time": 45.375,
      "duration": 0.375,
      "velocity": 0.71,
      "hand": "left"
    },
    {
      "midi": 61,
      "time": 45.75,
      "duration": 0.375,
      "velocity": 0.71,
      "hand": "right"
    },
    {
      "midi": 65,
      "time": 45.75,
      "duration": 0.375,
      "velocity": 0.71,
      "hand": "right"
    },
    {
      "midi": 77,
      "time": 45.75,
      "duration": 0.75,
      "velocity": 0.71,
      "hand": "right"
    },
    {
      "midi": 53,
      "time": 46.125,
      "duration": 0.375,
      "velocity": 0.71,
      "hand": "left"
    },
    {
      "midi": 60,
      "time": 46.5,
      "duration": 0.375,
      "velocity": 0.71,
      "hand": "right"
    },
    {
      "midi": 63,
      "time": 46.5,
      "duration": 0.375,
      "velocity": 0.71,
      "hand": "right"
    },
    {
      "midi": 75,
      "time": 46.5,
      "duration": 0.75,
      "velocity": 0.71,
      "hand": "right"
    },
    {
      "midi": 53,
      "time": 46.875,
      "duration": 0.375,
      "velocity": 0.71,
      "hand": "left"
    },
    {
      "midi": 63,
      "time": 47.25,
      "duration": 0.375,
      "velocity": 0.71,
      "hand": "right"
    },
    {
      "midi": 66,
      "time": 47.25,
      "duration": 0.375,
      "velocity": 0.71,
      "hand": "right"
    },
    {
      "midi": 78,
      "time": 47.25,
      "duration": 0.75,
      "velocity": 0.71,
      "hand": "right"
    },
    {
      "midi": 53,
      "time": 47.625,
      "duration": 0.375,
      "velocity": 0.71,
      "hand": "left"
    },
    {
      "midi": 61,
      "time": 48,
      "duration": 0.375,
      "velocity": 0.71,
      "hand": "right"
    },
    {
      "midi": 65,
      "time": 48,
      "duration": 0.375,
      "velocity": 0.71,
      "hand": "right"
    },
    {
      "midi": 77,
      "time": 48,
      "duration": 0.375,
      "velocity": 0.71,
      "hand": "right"
    },
    {
      "midi": 53,
      "time": 48.375,
      "duration": 0.375,
      "velocity": 0.71,
      "hand": "left"
    },
    {
      "midi": 73,
      "time": 48.375,
      "duration": 0.375,
      "velocity": 0.71,
      "hand": "right"
    },
    {
      "midi": 58,
      "time": 48.75,
      "duration": 0.375,
      "velocity": 0.71,
      "hand": "left"
    },
    {
      "midi": 61,
      "time": 48.75,
      "duration": 0.375,
      "velocity": 0.71,
      "hand": "right"
    },
    {
      "midi": 65,
      "time": 48.75,
      "duration": 0.375,
      "velocity": 0.71,
      "hand": "right"
    },
    {
      "midi": 72,
      "time": 48.75,
      "duration": 0.375,
      "velocity": 0.71,
      "hand": "right"
    },
    {
      "midi": 53,
      "time": 49.125,
      "duration": 0.375,
      "velocity": 0.71,
      "hand": "left"
    },
    {
      "midi": 70,
      "time": 49.125,
      "duration": 0.375,
      "velocity": 0.71,
      "hand": "right"
    },
    {
      "midi": 57,
      "time": 49.5,
      "duration": 0.375,
      "velocity": 0.71,
      "hand": "left"
    },
    {
      "midi": 63,
      "time": 49.5,
      "duration": 0.375,
      "velocity": 0.71,
      "hand": "right"
    },
    {
      "midi": 72,
      "time": 49.5,
      "duration": 0.563,
      "velocity": 0.71,
      "hand": "right"
    },
    {
      "midi": 53,
      "time": 49.875,
      "duration": 0.375,
      "velocity": 0.71,
      "hand": "left"
    },
    {
      "midi": 72,
      "time": 50.063,
      "duration": 0.094,
      "velocity": 0.71,
      "hand": "right"
    },
    {
      "midi": 73,
      "time": 50.063,
      "duration": 0.094,
      "velocity": 0.71,
      "hand": "right"
    },
    {
      "midi": 63,
      "time": 50.25,
      "duration": 0.375,
      "velocity": 0.71,
      "hand": "right"
    },
    {
      "midi": 65,
      "time": 50.25,
      "duration": 0.375,
      "velocity": 0.71,
      "hand": "right"
    },
    {
      "midi": 70,
      "time": 50.25,
      "duration": 0.094,
      "velocity": 0.71,
      "hand": "right"
    },
    {
      "midi": 72,
      "time": 50.25,
      "duration": 0.563,
      "velocity": 0.71,
      "hand": "right"
    },
    {
      "midi": 53,
      "time": 50.625,
      "duration": 0.375,
      "velocity": 0.71,
      "hand": "left"
    },
    {
      "midi": 73,
      "time": 50.813,
      "duration": 0.188,
      "velocity": 0.71,
      "hand": "right"
    },
    {
      "midi": 46,
      "time": 51,
      "duration": 0.375,
      "velocity": 0.71,
      "hand": "left"
    },
    {
      "midi": 70,
      "time": 51,
      "duration": 0.75,
      "velocity": 0.71,
      "hand": "right"
    },
    {
      "midi": 53,
      "time": 51.375,
      "duration": 0.375,
      "velocity": 0.71,
      "hand": "left"
    },
    {
      "midi": 60,
      "time": 51.75,
      "duration": 0.375,
      "velocity": 0.71,
      "hand": "right"
    },
    {
      "midi": 63,
      "time": 51.75,
      "duration": 0.375,
      "velocity": 0.71,
      "hand": "right"
    },
    {
      "midi": 75,
      "time": 51.75,
      "duration": 0.75,
      "velocity": 0.71,
      "hand": "right"
    },
    {
      "midi": 53,
      "time": 52.125,
      "duration": 0.375,
      "velocity": 0.71,
      "hand": "left"
    },
    {
      "midi": 61,
      "time": 52.5,
      "duration": 0.375,
      "velocity": 0.71,
      "hand": "right"
    },
    {
      "midi": 65,
      "time": 52.5,
      "duration": 0.375,
      "velocity": 0.71,
      "hand": "right"
    },
    {
      "midi": 77,
      "time": 52.5,
      "duration": 0.75,
      "velocity": 0.71,
      "hand": "right"
    },
    {
      "midi": 53,
      "time": 52.875,
      "duration": 0.375,
      "velocity": 0.71,
      "hand": "left"
    },
    {
      "midi": 60,
      "time": 53.25,
      "duration": 0.375,
      "velocity": 0.71,
      "hand": "right"
    },
    {
      "midi": 63,
      "time": 53.25,
      "duration": 0.375,
      "velocity": 0.71,
      "hand": "right"
    },
    {
      "midi": 75,
      "time": 53.25,
      "duration": 0.75,
      "velocity": 0.71,
      "hand": "right"
    },
    {
      "midi": 53,
      "time": 53.625,
      "duration": 0.375,
      "velocity": 0.71,
      "hand": "left"
    },
    {
      "midi": 61,
      "time": 54,
      "duration": 1.5,
      "velocity": 0.71,
      "hand": "right"
    },
    {
      "midi": 65,
      "time": 54,
      "duration": 1.5,
      "velocity": 0.71,
      "hand": "right"
    },
    {
      "midi": 77,
      "time": 54,
      "duration": 2.25,
      "velocity": 0.71,
      "hand": "right"
    },
    {
      "midi": 53,
      "time": 54.375,
      "duration": 0.375,
      "velocity": 0.71,
      "hand": "left"
    },
    {
      "midi": 53,
      "time": 54.75,
      "duration": 0.375,
      "velocity": 0.71,
      "hand": "left"
    },
    {
      "midi": 53,
      "time": 55.125,
      "duration": 0.375,
      "velocity": 0.71,
      "hand": "left"
    },
    {
      "midi": 61,
      "time": 55.5,
      "duration": 0.375,
      "velocity": 0.71,
      "hand": "right"
    },
    {
      "midi": 65,
      "time": 55.5,
      "duration": 0.375,
      "velocity": 0.71,
      "hand": "right"
    },
    {
      "midi": 54,
      "time": 55.875,
      "duration": 0.75,
      "velocity": 0.71,
      "hand": "left"
    },
    {
      "midi": 60,
      "time": 56.25,
      "duration": 0.375,
      "velocity": 0.71,
      "hand": "right"
    },
    {
      "midi": 63,
      "time": 56.25,
      "duration": 0.375,
      "velocity": 0.71,
      "hand": "right"
    },
    {
      "midi": 75,
      "time": 56.25,
      "duration": 0.75,
      "velocity": 0.71,
      "hand": "right"
    },
    {
      "midi": 56,
      "time": 56.625,
      "duration": 0.375,
      "velocity": 0.71,
      "hand": "left"
    },
    {
      "midi": 49,
      "time": 57,
      "duration": 0.375,
      "velocity": 0.71,
      "hand": "left"
    },
    {
      "midi": 77,
      "time": 57,
      "duration": 0.563,
      "velocity": 0.71,
      "hand": "right"
    },
    {
      "midi": 56,
      "time": 57.375,
      "duration": 0.375,
      "velocity": 0.71,
      "hand": "left"
    },
    {
      "midi": 73,
      "time": 57.563,
      "duration": 0.188,
      "velocity": 0.71,
      "hand": "right"
    },
    {
      "midi": 61,
      "time": 57.75,
      "duration": 1.5,
      "velocity": 0.71,
      "hand": "right"
    },
    {
      "midi": 65,
      "time": 57.75,
      "duration": 1.5,
      "velocity": 0.71,
      "hand": "right"
    },
    {
      "midi": 68,
      "time": 57.75,
      "duration": 1.5,
      "velocity": 0.71,
      "hand": "right"
    },
    {
      "midi": 56,
      "time": 58.125,
      "duration": 0.375,
      "velocity": 0.71,
      "hand": "left"
    },
    {
      "midi": 56,
      "time": 58.5,
      "duration": 0.375,
      "velocity": 0.71,
      "hand": "left"
    },
    {
      "midi": 56,
      "time": 58.875,
      "duration": 0.375,
      "velocity": 0.71,
      "hand": "left"
    },
    {
      "midi": 61,
      "time": 59.25,
      "duration": 0.375,
      "velocity": 0.71,
      "hand": "right"
    },
    {
      "midi": 65,
      "time": 59.25,
      "duration": 0.375,
      "velocity": 0.71,
      "hand": "right"
    },
    {
      "midi": 70,
      "time": 59.25,
      "duration": 0.75,
      "velocity": 0.71,
      "hand": "right"
    },
    {
      "midi": 56,
      "time": 59.625,
      "duration": 0.375,
      "velocity": 0.71,
      "hand": "left"
    },
    {
      "midi": 63,
      "time": 60,
      "duration": 1.5,
      "velocity": 0.71,
      "hand": "right"
    },
    {
      "midi": 66,
      "time": 60,
      "duration": 1.5,
      "velocity": 0.71,
      "hand": "right"
    },
    {
      "midi": 72,
      "time": 60,
      "duration": 2.25,
      "velocity": 0.71,
      "hand": "right"
    },
    {
      "midi": 56,
      "time": 60.375,
      "duration": 0.375,
      "velocity": 0.71,
      "hand": "left"
    },
    {
      "midi": 56,
      "time": 60.75,
      "duration": 0.375,
      "velocity": 0.71,
      "hand": "left"
    },
    {
      "midi": 56,
      "time": 61.125,
      "duration": 0.375,
      "velocity": 0.71,
      "hand": "left"
    },
    {
      "midi": 58,
      "time": 61.5,
      "duration": 0.375,
      "velocity": 0.71,
      "hand": "left"
    },
    {
      "midi": 56,
      "time": 61.875,
      "duration": 0.375,
      "velocity": 0.71,
      "hand": "left"
    },
    {
      "midi": 61,
      "time": 62.25,
      "duration": 0.375,
      "velocity": 0.71,
      "hand": "right"
    },
    {
      "midi": 65,
      "time": 62.25,
      "duration": 0.375,
      "velocity": 0.71,
      "hand": "right"
    },
    {
      "midi": 73,
      "time": 62.25,
      "duration": 0.75,
      "velocity": 0.71,
      "hand": "right"
    },
    {
      "midi": 56,
      "time": 62.625,
      "duration": 0.375,
      "velocity": 0.71,
      "hand": "left"
    },
    {
      "midi": 60,
      "time": 63,
      "duration": 2.25,
      "velocity": 0.71,
      "hand": "right"
    },
    {
      "midi": 66,
      "time": 63,
      "duration": 0.375,
      "velocity": 0.71,
      "hand": "right"
    },
    {
      "midi": 75,
      "time": 63,
      "duration": 0.563,
      "velocity": 0.71,
      "hand": "right"
    },
    {
      "midi": 56,
      "time": 63.375,
      "duration": 0.75,
      "velocity": 0.71,
      "hand": "left"
    },
    {
      "midi": 68,
      "time": 63.563,
      "duration": 0.188,
      "velocity": 0.71,
      "hand": "right"
    },
    {
      "midi": 77,
      "time": 63.563,
      "duration": 0.188,
      "velocity": 0.71,
      "hand": "right"
    },
    {
      "midi": 70,
      "time": 63.75,
      "duration": 1.5,
      "velocity": 0.71,
      "hand": "right"
    },
    {
      "midi": 78,
      "time": 63.75,
      "duration": 1.5,
      "velocity": 0.71,
      "hand": "right"
    },
    {
      "midi": 56,
      "time": 64.125,
      "duration": 0.375,
      "velocity": 0.71,
      "hand": "left"
    },
    {
      "midi": 56,
      "time": 64.5,
      "duration": 0.375,
      "velocity": 0.71,
      "hand": "left"
    },
    {
      "midi": 56,
      "time": 64.875,
      "duration": 0.75,
      "velocity": 0.71,
      "hand": "left"
    },
    {
      "midi": 61,
      "time": 65.25,
      "duration": 0.375,
      "velocity": 0.71,
      "hand": "right"
    },
    {
      "midi": 68,
      "time": 65.25,
      "duration": 0.375,
      "velocity": 0.71,
      "hand": "right"
    },
    {
      "midi": 77,
      "time": 65.25,
      "duration": 0.75,
      "velocity": 0.71,
      "hand": "right"
    },
    {
      "midi": 56,
      "time": 65.625,
      "duration": 0.375,
      "velocity": 0.71,
      "hand": "left"
    },
    {
      "midi": 60,
      "time": 66,
      "duration": 0.375,
      "velocity": 0.71,
      "hand": "right"
    },
    {
      "midi": 68,
      "time": 66,
      "duration": 0.375,
      "velocity": 0.71,
      "hand": "right"
    },
    {
      "midi": 77,
      "time": 66,
      "duration": 1.125,
      "velocity": 0.71,
      "hand": "right"
    },
    {
      "midi": 56,
      "time": 66.375,
      "duration": 0.375,
      "velocity": 0.71,
      "hand": "left"
    },
    {
      "midi": 60,
      "time": 66.75,
      "duration": 0.375,
      "velocity": 0.71,
      "hand": "right"
    },
    {
      "midi": 66,
      "time": 66.75,
      "duration": 0.375,
      "velocity": 0.71,
      "hand": "right"
    },
    {
      "midi": 56,
      "time": 67.125,
      "duration": 0.375,
      "velocity": 0.71,
      "hand": "left"
    },
    {
      "midi": 75,
      "time": 67.125,
      "duration": 0.375,
      "velocity": 0.71,
      "hand": "right"
    },
    {
      "midi": 61,
      "time": 67.5,
      "duration": 0.375,
      "velocity": 0.71,
      "hand": "right"
    },
    {
      "midi": 65,
      "time": 67.5,
      "duration": 0.375,
      "velocity": 0.71,
      "hand": "right"
    },
    {
      "midi": 73,
      "time": 67.5,
      "duration": 0.75,
      "velocity": 0.71,
      "hand": "right"
    },
    {
      "midi": 56,
      "time": 67.875,
      "duration": 0.375,
      "velocity": 0.71,
      "hand": "left"
    },
    {
      "midi": 60,
      "time": 68.25,
      "duration": 0.375,
      "velocity": 0.71,
      "hand": "right"
    },
    {
      "midi": 66,
      "time": 68.25,
      "duration": 0.375,
      "velocity": 0.71,
      "hand": "right"
    },
    {
      "midi": 74,
      "time": 68.25,
      "duration": 0.188,
      "velocity": 0.71,
      "hand": "right"
    },
    {
      "midi": 75,
      "time": 68.438,
      "duration": 0.188,
      "velocity": 0.71,
      "hand": "right"
    },
    {
      "midi": 76,
      "time": 68.438,
      "duration": 0.188,
      "velocity": 0.71,
      "hand": "right"
    },
    {
      "midi": 56,
      "time": 68.625,
      "duration": 0.375,
      "velocity": 0.71,
      "hand": "left"
    },
    {
      "midi": 77,
      "time": 68.625,
      "duration": 0.188,
      "velocity": 0.71,
      "hand": "right"
    },
    {
      "midi": 80,
      "time": 68.625,
      "duration": 0.188,
      "velocity": 0.71,
      "hand": "right"
    },
    {
      "midi": 78,
      "time": 68.813,
      "duration": 0.188,
      "velocity": 0.71,
      "hand": "right"
    },
    {
      "midi": 79,
      "time": 68.813,
      "duration": 0.188,
      "velocity": 0.71,
      "hand": "right"
    },
    {
      "midi": 49,
      "time": 69,
      "duration": 0.375,
      "velocity": 0.71,
      "hand": "left"
    },
    {
      "midi": 77,
      "time": 69,
      "duration": 0.563,
      "velocity": 0.71,
      "hand": "right"
    },
    {
      "midi": 56,
      "time": 69.375,
      "duration": 0.375,
      "velocity": 0.71,
      "hand": "left"
    },
    {
      "midi": 73,
      "time": 69.563,
      "duration": 0.188,
      "velocity": 0.71,
      "hand": "right"
    },
    {
      "midi": 61,
      "time": 69.75,
      "duration": 1.5,
      "velocity": 0.71,
      "hand": "right"
    },
    {
      "midi": 65,
      "time": 69.75,
      "duration": 1.5,
      "velocity": 0.71,
      "hand": "right"
    },
    {
      "midi": 68,
      "time": 69.75,
      "duration": 1.5,
      "velocity": 0.71,
      "hand": "right"
    },
    {
      "midi": 56,
      "time": 70.125,
      "duration": 0.375,
      "velocity": 0.71,
      "hand": "left"
    },
    {
      "midi": 56,
      "time": 70.5,
      "duration": 0.375,
      "velocity": 0.71,
      "hand": "left"
    },
    {
      "midi": 56,
      "time": 70.875,
      "duration": 0.375,
      "velocity": 0.71,
      "hand": "left"
    },
    {
      "midi": 56,
      "time": 71.25,
      "duration": 0.375,
      "velocity": 0.71,
      "hand": "left"
    },
    {
      "midi": 70,
      "time": 71.25,
      "duration": 0.75,
      "velocity": 0.71,
      "hand": "right"
    },
    {
      "midi": 56,
      "time": 71.625,
      "duration": 0.375,
      "velocity": 0.71,
      "hand": "left"
    },
    {
      "midi": 63,
      "time": 72,
      "duration": 1.5,
      "velocity": 0.71,
      "hand": "right"
    },
    {
      "midi": 66,
      "time": 72,
      "duration": 1.5,
      "velocity": 0.71,
      "hand": "right"
    },
    {
      "midi": 72,
      "time": 72,
      "duration": 2.25,
      "velocity": 0.71,
      "hand": "right"
    },
    {
      "midi": 56,
      "time": 72.375,
      "duration": 0.375,
      "velocity": 0.71,
      "hand": "left"
    },
    {
      "midi": 56,
      "time": 72.75,
      "duration": 0.375,
      "velocity": 0.71,
      "hand": "left"
    },
    {
      "midi": 56,
      "time": 73.125,
      "duration": 0.375,
      "velocity": 0.71,
      "hand": "left"
    },
    {
      "midi": 58,
      "time": 73.5,
      "duration": 0.375,
      "velocity": 0.71,
      "hand": "left"
    },
    {
      "midi": 56,
      "time": 73.875,
      "duration": 0.375,
      "velocity": 0.71,
      "hand": "left"
    },
    {
      "midi": 61,
      "time": 74.25,
      "duration": 0.375,
      "velocity": 0.71,
      "hand": "right"
    },
    {
      "midi": 65,
      "time": 74.25,
      "duration": 0.375,
      "velocity": 0.71,
      "hand": "right"
    },
    {
      "midi": 73,
      "time": 74.25,
      "duration": 0.75,
      "velocity": 0.71,
      "hand": "right"
    },
    {
      "midi": 56,
      "time": 74.625,
      "duration": 0.375,
      "velocity": 0.71,
      "hand": "left"
    },
    {
      "midi": 60,
      "time": 75,
      "duration": 2.25,
      "velocity": 0.71,
      "hand": "right"
    },
    {
      "midi": 66,
      "time": 75,
      "duration": 0.375,
      "velocity": 0.71,
      "hand": "right"
    },
    {
      "midi": 75,
      "time": 75,
      "duration": 0.563,
      "velocity": 0.71,
      "hand": "right"
    },
    {
      "midi": 56,
      "time": 75.375,
      "duration": 0.75,
      "velocity": 0.71,
      "hand": "left"
    },
    {
      "midi": 68,
      "time": 75.563,
      "duration": 0.188,
      "velocity": 0.71,
      "hand": "right"
    },
    {
      "midi": 77,
      "time": 75.563,
      "duration": 0.188,
      "velocity": 0.71,
      "hand": "right"
    },
    {
      "midi": 70,
      "time": 75.75,
      "duration": 1.5,
      "velocity": 0.71,
      "hand": "right"
    },
    {
      "midi": 78,
      "time": 75.75,
      "duration": 1.5,
      "velocity": 0.71,
      "hand": "right"
    },
    {
      "midi": 56,
      "time": 76.125,
      "duration": 0.375,
      "velocity": 0.71,
      "hand": "left"
    },
    {
      "midi": 56,
      "time": 76.5,
      "duration": 0.375,
      "velocity": 0.71,
      "hand": "left"
    },
    {
      "midi": 56,
      "time": 76.875,
      "duration": 0.75,
      "velocity": 0.71,
      "hand": "left"
    },
    {
      "midi": 63,
      "time": 77.25,
      "duration": 0.375,
      "velocity": 0.71,
      "hand": "right"
    },
    {
      "midi": 72,
      "time": 77.25,
      "duration": 0.75,
      "velocity": 0.71,
      "hand": "right"
    },
    {
      "midi": 56,
      "time": 77.625,
      "duration": 0.375,
      "velocity": 0.71,
      "hand": "left"
    },
    {
      "midi": 66,
      "time": 78,
      "duration": 1.5,
      "velocity": 0.71,
      "hand": "right"
    },
    {
      "midi": 75,
      "time": 78,
      "duration": 1.5,
      "velocity": 0.71,
      "hand": "right"
    },
    {
      "midi": 56,
      "time": 78.375,
      "duration": 0.375,
      "velocity": 0.71,
      "hand": "left"
    },
    {
      "midi": 56,
      "time": 78.75,
      "duration": 0.375,
      "velocity": 0.71,
      "hand": "left"
    },
    {
      "midi": 56,
      "time": 79.125,
      "duration": 0.375,
      "velocity": 0.71,
      "hand": "left"
    },
    {
      "midi": 56,
      "time": 79.5,
      "duration": 0.375,
      "velocity": 0.71,
      "hand": "left"
    },
    {
      "midi": 56,
      "time": 79.875,
      "duration": 0.375,
      "velocity": 0.71,
      "hand": "left"
    },
    {
      "midi": 56,
      "time": 80.25,
      "duration": 0.375,
      "velocity": 0.71,
      "hand": "left"
    },
    {
      "midi": 56,
      "time": 80.625,
      "duration": 0.375,
      "velocity": 0.71,
      "hand": "left"
    },
    {
      "midi": 37,
      "time": 81,
      "duration": 0.75,
      "velocity": 0.71,
      "hand": "left"
    },
    {
      "midi": 44,
      "time": 81,
      "duration": 0.75,
      "velocity": 0.71,
      "hand": "left"
    },
    {
      "midi": 56,
      "time": 81,
      "duration": 0.375,
      "velocity": 0.71,
      "hand": "left"
    },
    {
      "midi": 56,
      "time": 81.375,
      "duration": 0.375,
      "velocity": 0.71,
      "hand": "left"
    },
    {
      "midi": 39,
      "time": 81.75,
      "duration": 0.75,
      "velocity": 0.71,
      "hand": "left"
    },
    {
      "midi": 44,
      "time": 81.75,
      "duration": 0.75,
      "velocity": 0.71,
      "hand": "left"
    },
    {
      "midi": 56,
      "time": 81.75,
      "duration": 0.375,
      "velocity": 0.71,
      "hand": "left"
    },
    {
      "midi": 56,
      "time": 82.125,
      "duration": 0.375,
      "velocity": 0.71,
      "hand": "left"
    },
    {
      "midi": 40,
      "time": 82.5,
      "duration": 0.75,
      "velocity": 0.71,
      "hand": "left"
    },
    {
      "midi": 49,
      "time": 82.5,
      "duration": 0.75,
      "velocity": 0.71,
      "hand": "left"
    },
    {
      "midi": 56,
      "time": 82.5,
      "duration": 0.375,
      "velocity": 0.71,
      "hand": "left"
    },
    {
      "midi": 56,
      "time": 82.875,
      "duration": 0.375,
      "velocity": 0.71,
      "hand": "left"
    },
    {
      "midi": 39,
      "time": 83.25,
      "duration": 0.75,
      "velocity": 0.71,
      "hand": "left"
    },
    {
      "midi": 48,
      "time": 83.25,
      "duration": 0.75,
      "velocity": 0.71,
      "hand": "left"
    },
    {
      "midi": 56,
      "time": 83.25,
      "duration": 0.375,
      "velocity": 0.71,
      "hand": "left"
    },
    {
      "midi": 56,
      "time": 83.625,
      "duration": 0.375,
      "velocity": 0.71,
      "hand": "left"
    },
    {
      "midi": 39,
      "time": 84,
      "duration": 0.75,
      "velocity": 0.71,
      "hand": "left"
    },
    {
      "midi": 44,
      "time": 84,
      "duration": 0.75,
      "velocity": 0.71,
      "hand": "left"
    },
    {
      "midi": 56,
      "time": 84,
      "duration": 0.375,
      "velocity": 0.71,
      "hand": "left"
    },
    {
      "midi": 56,
      "time": 84.375,
      "duration": 0.375,
      "velocity": 0.71,
      "hand": "left"
    },
    {
      "midi": 40,
      "time": 84.75,
      "duration": 0.75,
      "velocity": 0.71,
      "hand": "left"
    },
    {
      "midi": 44,
      "time": 84.75,
      "duration": 0.75,
      "velocity": 0.71,
      "hand": "left"
    },
    {
      "midi": 56,
      "time": 84.75,
      "duration": 0.375,
      "velocity": 0.71,
      "hand": "left"
    },
    {
      "midi": 56,
      "time": 85.125,
      "duration": 0.375,
      "velocity": 0.71,
      "hand": "left"
    },
    {
      "midi": 42,
      "time": 85.5,
      "duration": 0.75,
      "velocity": 0.71,
      "hand": "left"
    },
    {
      "midi": 51,
      "time": 85.5,
      "duration": 0.75,
      "velocity": 0.71,
      "hand": "left"
    },
    {
      "midi": 56,
      "time": 85.5,
      "duration": 0.375,
      "velocity": 0.71,
      "hand": "left"
    },
    {
      "midi": 56,
      "time": 85.875,
      "duration": 0.375,
      "velocity": 0.71,
      "hand": "left"
    },
    {
      "midi": 40,
      "time": 86.25,
      "duration": 0.75,
      "velocity": 0.71,
      "hand": "left"
    },
    {
      "midi": 49,
      "time": 86.25,
      "duration": 0.75,
      "velocity": 0.71,
      "hand": "left"
    },
    {
      "midi": 56,
      "time": 86.25,
      "duration": 0.375,
      "velocity": 0.71,
      "hand": "left"
    },
    {
      "midi": 56,
      "time": 86.625,
      "duration": 0.375,
      "velocity": 0.71,
      "hand": "left"
    },
    {
      "midi": 40,
      "time": 87,
      "duration": 0.75,
      "velocity": 0.71,
      "hand": "left"
    },
    {
      "midi": 49,
      "time": 87,
      "duration": 0.75,
      "velocity": 0.71,
      "hand": "left"
    },
    {
      "midi": 56,
      "time": 87,
      "duration": 0.375,
      "velocity": 0.71,
      "hand": "left"
    },
    {
      "midi": 56,
      "time": 87.375,
      "duration": 0.375,
      "velocity": 0.71,
      "hand": "left"
    },
    {
      "midi": 44,
      "time": 87.75,
      "duration": 0.75,
      "velocity": 0.71,
      "hand": "left"
    },
    {
      "midi": 51,
      "time": 87.75,
      "duration": 0.75,
      "velocity": 0.71,
      "hand": "left"
    },
    {
      "midi": 56,
      "time": 87.75,
      "duration": 0.375,
      "velocity": 0.71,
      "hand": "left"
    },
    {
      "midi": 56,
      "time": 88.125,
      "duration": 0.375,
      "velocity": 0.71,
      "hand": "left"
    },
    {
      "midi": 49,
      "time": 88.5,
      "duration": 0.75,
      "velocity": 0.71,
      "hand": "left"
    },
    {
      "midi": 52,
      "time": 88.5,
      "duration": 0.75,
      "velocity": 0.71,
      "hand": "left"
    },
    {
      "midi": 56,
      "time": 88.5,
      "duration": 0.375,
      "velocity": 0.71,
      "hand": "left"
    },
    {
      "midi": 56,
      "time": 88.875,
      "duration": 0.375,
      "velocity": 0.71,
      "hand": "left"
    },
    {
      "midi": 44,
      "time": 89.25,
      "duration": 0.75,
      "velocity": 0.71,
      "hand": "left"
    },
    {
      "midi": 51,
      "time": 89.25,
      "duration": 0.75,
      "velocity": 0.71,
      "hand": "left"
    },
    {
      "midi": 56,
      "time": 89.25,
      "duration": 0.375,
      "velocity": 0.71,
      "hand": "left"
    },
    {
      "midi": 56,
      "time": 89.625,
      "duration": 0.375,
      "velocity": 0.71,
      "hand": "left"
    },
    {
      "midi": 44,
      "time": 90,
      "duration": 3.75,
      "velocity": 0.71,
      "hand": "left"
    },
    {
      "midi": 51,
      "time": 90,
      "duration": 3.75,
      "velocity": 0.71,
      "hand": "left"
    },
    {
      "midi": 56,
      "time": 90,
      "duration": 0.375,
      "velocity": 0.71,
      "hand": "left"
    },
    {
      "midi": 56,
      "time": 90.375,
      "duration": 0.375,
      "velocity": 0.71,
      "hand": "left"
    },
    {
      "midi": 56,
      "time": 90.75,
      "duration": 0.375,
      "velocity": 0.71,
      "hand": "left"
    },
    {
      "midi": 56,
      "time": 91.125,
      "duration": 0.375,
      "velocity": 0.71,
      "hand": "left"
    },
    {
      "midi": 56,
      "time": 91.5,
      "duration": 0.375,
      "velocity": 0.71,
      "hand": "left"
    },
    {
      "midi": 56,
      "time": 91.875,
      "duration": 0.375,
      "velocity": 0.71,
      "hand": "left"
    },
    {
      "midi": 56,
      "time": 92.25,
      "duration": 0.375,
      "velocity": 0.71,
      "hand": "left"
    },
    {
      "midi": 56,
      "time": 92.625,
      "duration": 0.375,
      "velocity": 0.71,
      "hand": "left"
    },
    {
      "midi": 56,
      "time": 93,
      "duration": 0.375,
      "velocity": 0.71,
      "hand": "left"
    },
    {
      "midi": 56,
      "time": 93.375,
      "duration": 0.375,
      "velocity": 0.71,
      "hand": "left"
    },
    {
      "midi": 49,
      "time": 93.75,
      "duration": 0.75,
      "velocity": 0.71,
      "hand": "left"
    },
    {
      "midi": 52,
      "time": 93.75,
      "duration": 0.75,
      "velocity": 0.71,
      "hand": "left"
    },
    {
      "midi": 56,
      "time": 93.75,
      "duration": 0.375,
      "velocity": 0.71,
      "hand": "left"
    },
    {
      "midi": 56,
      "time": 94.125,
      "duration": 0.375,
      "velocity": 0.71,
      "hand": "left"
    },
    {
      "midi": 44,
      "time": 94.5,
      "duration": 0.75,
      "velocity": 0.71,
      "hand": "left"
    },
    {
      "midi": 51,
      "time": 94.5,
      "duration": 0.75,
      "velocity": 0.71,
      "hand": "left"
    },
    {
      "midi": 56,
      "time": 94.5,
      "duration": 0.375,
      "velocity": 0.71,
      "hand": "left"
    },
    {
      "midi": 56,
      "time": 94.875,
      "duration": 0.375,
      "velocity": 0.71,
      "hand": "left"
    },
    {
      "midi": 40,
      "time": 95.25,
      "duration": 0.75,
      "velocity": 0.71,
      "hand": "left"
    },
    {
      "midi": 49,
      "time": 95.25,
      "duration": 0.75,
      "velocity": 0.71,
      "hand": "left"
    },
    {
      "midi": 56,
      "time": 95.25,
      "duration": 0.375,
      "velocity": 0.71,
      "hand": "left"
    },
    {
      "midi": 56,
      "time": 95.625,
      "duration": 0.375,
      "velocity": 0.71,
      "hand": "left"
    },
    {
      "midi": 44,
      "time": 96,
      "duration": 0.75,
      "velocity": 0.71,
      "hand": "left"
    },
    {
      "midi": 51,
      "time": 96,
      "duration": 0.75,
      "velocity": 0.71,
      "hand": "left"
    },
    {
      "midi": 56,
      "time": 96,
      "duration": 0.375,
      "velocity": 0.71,
      "hand": "left"
    },
    {
      "midi": 56,
      "time": 96.375,
      "duration": 0.375,
      "velocity": 0.71,
      "hand": "left"
    },
    {
      "midi": 40,
      "time": 96.75,
      "duration": 0.75,
      "velocity": 0.71,
      "hand": "left"
    },
    {
      "midi": 49,
      "time": 96.75,
      "duration": 0.75,
      "velocity": 0.71,
      "hand": "left"
    },
    {
      "midi": 56,
      "time": 96.75,
      "duration": 0.375,
      "velocity": 0.71,
      "hand": "left"
    },
    {
      "midi": 56,
      "time": 97.125,
      "duration": 0.375,
      "velocity": 0.71,
      "hand": "left"
    },
    {
      "midi": 39,
      "time": 97.5,
      "duration": 0.75,
      "velocity": 0.71,
      "hand": "left"
    },
    {
      "midi": 48,
      "time": 97.5,
      "duration": 0.75,
      "velocity": 0.71,
      "hand": "left"
    },
    {
      "midi": 56,
      "time": 97.5,
      "duration": 0.375,
      "velocity": 0.71,
      "hand": "left"
    },
    {
      "midi": 56,
      "time": 97.875,
      "duration": 0.375,
      "velocity": 0.71,
      "hand": "left"
    },
    {
      "midi": 40,
      "time": 98.25,
      "duration": 0.75,
      "velocity": 0.71,
      "hand": "left"
    },
    {
      "midi": 49,
      "time": 98.25,
      "duration": 0.75,
      "velocity": 0.71,
      "hand": "left"
    },
    {
      "midi": 56,
      "time": 98.25,
      "duration": 0.375,
      "velocity": 0.71,
      "hand": "left"
    },
    {
      "midi": 56,
      "time": 98.625,
      "duration": 0.375,
      "velocity": 0.71,
      "hand": "left"
    },
    {
      "midi": 39,
      "time": 99,
      "duration": 0.75,
      "velocity": 0.71,
      "hand": "left"
    },
    {
      "midi": 48,
      "time": 99,
      "duration": 0.75,
      "velocity": 0.71,
      "hand": "left"
    },
    {
      "midi": 56,
      "time": 99,
      "duration": 0.375,
      "velocity": 0.71,
      "hand": "left"
    },
    {
      "midi": 56,
      "time": 99.375,
      "duration": 0.375,
      "velocity": 0.71,
      "hand": "left"
    },
    {
      "midi": 40,
      "time": 99.75,
      "duration": 0.75,
      "velocity": 0.71,
      "hand": "left"
    },
    {
      "midi": 49,
      "time": 99.75,
      "duration": 0.75,
      "velocity": 0.71,
      "hand": "left"
    },
    {
      "midi": 56,
      "time": 99.75,
      "duration": 0.375,
      "velocity": 0.71,
      "hand": "left"
    },
    {
      "midi": 56,
      "time": 100.125,
      "duration": 0.375,
      "velocity": 0.71,
      "hand": "left"
    },
    {
      "midi": 39,
      "time": 100.5,
      "duration": 0.75,
      "velocity": 0.71,
      "hand": "left"
    },
    {
      "midi": 51,
      "time": 100.5,
      "duration": 0.75,
      "velocity": 0.71,
      "hand": "left"
    },
    {
      "midi": 56,
      "time": 100.5,
      "duration": 0.375,
      "velocity": 0.71,
      "hand": "left"
    },
    {
      "midi": 56,
      "time": 100.875,
      "duration": 0.375,
      "velocity": 0.71,
      "hand": "left"
    },
    {
      "midi": 37,
      "time": 101.25,
      "duration": 0.75,
      "velocity": 0.71,
      "hand": "left"
    },
    {
      "midi": 52,
      "time": 101.25,
      "duration": 0.75,
      "velocity": 0.71,
      "hand": "left"
    },
    {
      "midi": 56,
      "time": 101.25,
      "duration": 0.375,
      "velocity": 0.71,
      "hand": "left"
    },
    {
      "midi": 56,
      "time": 101.625,
      "duration": 0.375,
      "velocity": 0.71,
      "hand": "left"
    },
    {
      "midi": 44,
      "time": 102,
      "duration": 3,
      "velocity": 0.71,
      "hand": "left"
    },
    {
      "midi": 51,
      "time": 102,
      "duration": 3,
      "velocity": 0.71,
      "hand": "left"
    },
    {
      "midi": 56,
      "time": 102,
      "duration": 0.375,
      "velocity": 0.71,
      "hand": "left"
    },
    {
      "midi": 56,
      "time": 102.375,
      "duration": 0.375,
      "velocity": 0.71,
      "hand": "left"
    },
    {
      "midi": 68,
      "time": 102.375,
      "duration": 0.375,
      "velocity": 0.71,
      "hand": "right"
    },
    {
      "midi": 56,
      "time": 102.75,
      "duration": 0.375,
      "velocity": 0.71,
      "hand": "left"
    },
    {
      "midi": 68,
      "time": 102.75,
      "duration": 0.375,
      "velocity": 0.71,
      "hand": "right"
    },
    {
      "midi": 56,
      "time": 103.125,
      "duration": 0.375,
      "velocity": 0.71,
      "hand": "left"
    },
    {
      "midi": 68,
      "time": 103.125,
      "duration": 0.375,
      "velocity": 0.71,
      "hand": "right"
    },
    {
      "midi": 56,
      "time": 103.5,
      "duration": 0.375,
      "velocity": 0.71,
      "hand": "left"
    },
    {
      "midi": 68,
      "time": 103.5,
      "duration": 0.375,
      "velocity": 0.71,
      "hand": "right"
    },
    {
      "midi": 56,
      "time": 103.875,
      "duration": 0.375,
      "velocity": 0.71,
      "hand": "left"
    },
    {
      "midi": 68,
      "time": 103.875,
      "duration": 0.375,
      "velocity": 0.71,
      "hand": "right"
    },
    {
      "midi": 56,
      "time": 104.25,
      "duration": 0.375,
      "velocity": 0.71,
      "hand": "left"
    },
    {
      "midi": 68,
      "time": 104.25,
      "duration": 0.375,
      "velocity": 0.71,
      "hand": "right"
    },
    {
      "midi": 56,
      "time": 104.625,
      "duration": 0.375,
      "velocity": 0.71,
      "hand": "left"
    },
    {
      "midi": 68,
      "time": 104.625,
      "duration": 0.375,
      "velocity": 0.71,
      "hand": "right"
    },
    {
      "midi": 37,
      "time": 105,
      "duration": 0.75,
      "velocity": 0.71,
      "hand": "left"
    },
    {
      "midi": 44,
      "time": 105,
      "duration": 0.75,
      "velocity": 0.71,
      "hand": "left"
    },
    {
      "midi": 56,
      "time": 105,
      "duration": 0.375,
      "velocity": 0.71,
      "hand": "left"
    },
    {
      "midi": 68,
      "time": 105,
      "duration": 0.375,
      "velocity": 0.71,
      "hand": "right"
    },
    {
      "midi": 56,
      "time": 105.375,
      "duration": 0.375,
      "velocity": 0.71,
      "hand": "left"
    },
    {
      "midi": 68,
      "time": 105.375,
      "duration": 0.375,
      "velocity": 0.71,
      "hand": "right"
    },
    {
      "midi": 39,
      "time": 105.75,
      "duration": 0.75,
      "velocity": 0.71,
      "hand": "left"
    },
    {
      "midi": 44,
      "time": 105.75,
      "duration": 0.75,
      "velocity": 0.71,
      "hand": "left"
    },
    {
      "midi": 56,
      "time": 105.75,
      "duration": 0.375,
      "velocity": 0.71,
      "hand": "left"
    },
    {
      "midi": 68,
      "time": 105.75,
      "duration": 0.375,
      "velocity": 0.71,
      "hand": "right"
    },
    {
      "midi": 56,
      "time": 106.125,
      "duration": 0.375,
      "velocity": 0.71,
      "hand": "left"
    },
    {
      "midi": 68,
      "time": 106.125,
      "duration": 0.375,
      "velocity": 0.71,
      "hand": "right"
    },
    {
      "midi": 40,
      "time": 106.5,
      "duration": 0.75,
      "velocity": 0.71,
      "hand": "left"
    },
    {
      "midi": 49,
      "time": 106.5,
      "duration": 0.75,
      "velocity": 0.71,
      "hand": "left"
    },
    {
      "midi": 56,
      "time": 106.5,
      "duration": 0.375,
      "velocity": 0.71,
      "hand": "left"
    },
    {
      "midi": 61,
      "time": 106.5,
      "duration": 0.75,
      "velocity": 0.71,
      "hand": "right"
    },
    {
      "midi": 68,
      "time": 106.5,
      "duration": 0.375,
      "velocity": 0.71,
      "hand": "right"
    },
    {
      "midi": 56,
      "time": 106.875,
      "duration": 0.375,
      "velocity": 0.71,
      "hand": "left"
    },
    {
      "midi": 68,
      "time": 106.875,
      "duration": 0.375,
      "velocity": 0.71,
      "hand": "right"
    },
    {
      "midi": 39,
      "time": 107.25,
      "duration": 0.75,
      "velocity": 0.71,
      "hand": "left"
    },
    {
      "midi": 48,
      "time": 107.25,
      "duration": 0.75,
      "velocity": 0.71,
      "hand": "left"
    },
    {
      "midi": 56,
      "time": 107.25,
      "duration": 0.375,
      "velocity": 0.71,
      "hand": "left"
    },
    {
      "midi": 60,
      "time": 107.25,
      "duration": 0.75,
      "velocity": 0.71,
      "hand": "right"
    },
    {
      "midi": 68,
      "time": 107.25,
      "duration": 0.375,
      "velocity": 0.71,
      "hand": "right"
    },
    {
      "midi": 56,
      "time": 107.625,
      "duration": 0.375,
      "velocity": 0.71,
      "hand": "left"
    },
    {
      "midi": 68,
      "time": 107.625,
      "duration": 0.375,
      "velocity": 0.71,
      "hand": "right"
    },
    {
      "midi": 39,
      "time": 108,
      "duration": 0.75,
      "velocity": 0.71,
      "hand": "left"
    },
    {
      "midi": 44,
      "time": 108,
      "duration": 0.75,
      "velocity": 0.71,
      "hand": "left"
    },
    {
      "midi": 56,
      "time": 108,
      "duration": 0.375,
      "velocity": 0.71,
      "hand": "left"
    },
    {
      "midi": 68,
      "time": 108,
      "duration": 0.375,
      "velocity": 0.71,
      "hand": "right"
    },
    {
      "midi": 56,
      "time": 108.375,
      "duration": 0.375,
      "velocity": 0.71,
      "hand": "left"
    },
    {
      "midi": 68,
      "time": 108.375,
      "duration": 0.375,
      "velocity": 0.71,
      "hand": "right"
    },
    {
      "midi": 40,
      "time": 108.75,
      "duration": 0.75,
      "velocity": 0.71,
      "hand": "left"
    },
    {
      "midi": 44,
      "time": 108.75,
      "duration": 0.75,
      "velocity": 0.71,
      "hand": "left"
    },
    {
      "midi": 56,
      "time": 108.75,
      "duration": 0.375,
      "velocity": 0.71,
      "hand": "left"
    },
    {
      "midi": 68,
      "time": 108.75,
      "duration": 0.375,
      "velocity": 0.71,
      "hand": "right"
    },
    {
      "midi": 56,
      "time": 109.125,
      "duration": 0.375,
      "velocity": 0.71,
      "hand": "left"
    },
    {
      "midi": 68,
      "time": 109.125,
      "duration": 0.375,
      "velocity": 0.71,
      "hand": "right"
    },
    {
      "midi": 42,
      "time": 109.5,
      "duration": 0.75,
      "velocity": 0.71,
      "hand": "left"
    },
    {
      "midi": 51,
      "time": 109.5,
      "duration": 0.75,
      "velocity": 0.71,
      "hand": "left"
    },
    {
      "midi": 56,
      "time": 109.5,
      "duration": 0.375,
      "velocity": 0.71,
      "hand": "left"
    },
    {
      "midi": 63,
      "time": 109.5,
      "duration": 0.75,
      "velocity": 0.71,
      "hand": "right"
    },
    {
      "midi": 68,
      "time": 109.5,
      "duration": 0.375,
      "velocity": 0.71,
      "hand": "right"
    },
    {
      "midi": 56,
      "time": 109.875,
      "duration": 0.375,
      "velocity": 0.71,
      "hand": "left"
    },
    {
      "midi": 68,
      "time": 109.875,
      "duration": 0.375,
      "velocity": 0.71,
      "hand": "right"
    },
    {
      "midi": 40,
      "time": 110.25,
      "duration": 0.75,
      "velocity": 0.71,
      "hand": "left"
    },
    {
      "midi": 49,
      "time": 110.25,
      "duration": 0.75,
      "velocity": 0.71,
      "hand": "left"
    },
    {
      "midi": 56,
      "time": 110.25,
      "duration": 0.375,
      "velocity": 0.71,
      "hand": "left"
    },
    {
      "midi": 61,
      "time": 110.25,
      "duration": 1.5,
      "velocity": 0.71,
      "hand": "right"
    },
    {
      "midi": 68,
      "time": 110.25,
      "duration": 0.375,
      "velocity": 0.71,
      "hand": "right"
    },
    {
      "midi": 56,
      "time": 110.625,
      "duration": 0.375,
      "velocity": 0.71,
      "hand": "left"
    },
    {
      "midi": 68,
      "time": 110.625,
      "duration": 0.375,
      "velocity": 0.71,
      "hand": "right"
    },
    {
      "midi": 40,
      "time": 111,
      "duration": 0.75,
      "velocity": 0.71,
      "hand": "left"
    },
    {
      "midi": 49,
      "time": 111,
      "duration": 0.75,
      "velocity": 0.71,
      "hand": "left"
    },
    {
      "midi": 56,
      "time": 111,
      "duration": 0.375,
      "velocity": 0.71,
      "hand": "left"
    },
    {
      "midi": 68,
      "time": 111,
      "duration": 0.375,
      "velocity": 0.71,
      "hand": "right"
    },
    {
      "midi": 56,
      "time": 111.375,
      "duration": 0.375,
      "velocity": 0.71,
      "hand": "left"
    },
    {
      "midi": 68,
      "time": 111.375,
      "duration": 0.375,
      "velocity": 0.71,
      "hand": "right"
    },
    {
      "midi": 44,
      "time": 111.75,
      "duration": 0.75,
      "velocity": 0.71,
      "hand": "left"
    },
    {
      "midi": 51,
      "time": 111.75,
      "duration": 0.75,
      "velocity": 0.71,
      "hand": "left"
    },
    {
      "midi": 56,
      "time": 111.75,
      "duration": 0.375,
      "velocity": 0.71,
      "hand": "left"
    },
    {
      "midi": 63,
      "time": 111.75,
      "duration": 0.75,
      "velocity": 0.71,
      "hand": "right"
    },
    {
      "midi": 68,
      "time": 111.75,
      "duration": 0.375,
      "velocity": 0.71,
      "hand": "right"
    },
    {
      "midi": 56,
      "time": 112.125,
      "duration": 0.375,
      "velocity": 0.71,
      "hand": "left"
    },
    {
      "midi": 68,
      "time": 112.125,
      "duration": 0.375,
      "velocity": 0.71,
      "hand": "right"
    },
    {
      "midi": 49,
      "time": 112.5,
      "duration": 0.75,
      "velocity": 0.71,
      "hand": "left"
    },
    {
      "midi": 52,
      "time": 112.5,
      "duration": 0.75,
      "velocity": 0.71,
      "hand": "left"
    },
    {
      "midi": 56,
      "time": 112.5,
      "duration": 0.375,
      "velocity": 0.71,
      "hand": "left"
    },
    {
      "midi": 64,
      "time": 112.5,
      "duration": 0.75,
      "velocity": 0.71,
      "hand": "right"
    },
    {
      "midi": 68,
      "time": 112.5,
      "duration": 0.375,
      "velocity": 0.71,
      "hand": "right"
    },
    {
      "midi": 56,
      "time": 112.875,
      "duration": 0.375,
      "velocity": 0.71,
      "hand": "left"
    },
    {
      "midi": 68,
      "time": 112.875,
      "duration": 0.375,
      "velocity": 0.71,
      "hand": "right"
    },
    {
      "midi": 44,
      "time": 113.25,
      "duration": 0.75,
      "velocity": 0.71,
      "hand": "left"
    },
    {
      "midi": 51,
      "time": 113.25,
      "duration": 0.75,
      "velocity": 0.71,
      "hand": "left"
    },
    {
      "midi": 56,
      "time": 113.25,
      "duration": 0.375,
      "velocity": 0.71,
      "hand": "left"
    },
    {
      "midi": 63,
      "time": 113.25,
      "duration": 0.75,
      "velocity": 0.71,
      "hand": "right"
    },
    {
      "midi": 68,
      "time": 113.25,
      "duration": 0.375,
      "velocity": 0.71,
      "hand": "right"
    },
    {
      "midi": 56,
      "time": 113.625,
      "duration": 0.375,
      "velocity": 0.71,
      "hand": "left"
    },
    {
      "midi": 68,
      "time": 113.625,
      "duration": 0.375,
      "velocity": 0.71,
      "hand": "right"
    },
    {
      "midi": 32,
      "time": 114,
      "duration": 0.094,
      "velocity": 0.71,
      "hand": "left"
    },
    {
      "midi": 44,
      "time": 114,
      "duration": 3,
      "velocity": 0.71,
      "hand": "left"
    },
    {
      "midi": 51,
      "time": 114,
      "duration": 3,
      "velocity": 0.71,
      "hand": "left"
    },
    {
      "midi": 56,
      "time": 114,
      "duration": 0.375,
      "velocity": 0.71,
      "hand": "left"
    },
    {
      "midi": 63,
      "time": 114,
      "duration": 3,
      "velocity": 0.71,
      "hand": "right"
    },
    {
      "midi": 68,
      "time": 114,
      "duration": 0.375,
      "velocity": 0.71,
      "hand": "right"
    },
    {
      "midi": 56,
      "time": 114.375,
      "duration": 0.375,
      "velocity": 0.71,
      "hand": "left"
    },
    {
      "midi": 68,
      "time": 114.375,
      "duration": 0.375,
      "velocity": 0.71,
      "hand": "right"
    },
    {
      "midi": 56,
      "time": 114.75,
      "duration": 0.375,
      "velocity": 0.71,
      "hand": "left"
    },
    {
      "midi": 68,
      "time": 114.75,
      "duration": 0.375,
      "velocity": 0.71,
      "hand": "right"
    },
    {
      "midi": 56,
      "time": 115.125,
      "duration": 0.375,
      "velocity": 0.71,
      "hand": "left"
    },
    {
      "midi": 68,
      "time": 115.125,
      "duration": 0.375,
      "velocity": 0.71,
      "hand": "right"
    },
    {
      "midi": 56,
      "time": 115.5,
      "duration": 0.375,
      "velocity": 0.71,
      "hand": "left"
    },
    {
      "midi": 68,
      "time": 115.5,
      "duration": 0.375,
      "velocity": 0.71,
      "hand": "right"
    },
    {
      "midi": 56,
      "time": 115.875,
      "duration": 0.375,
      "velocity": 0.71,
      "hand": "left"
    },
    {
      "midi": 68,
      "time": 115.875,
      "duration": 0.375,
      "velocity": 0.71,
      "hand": "right"
    },
    {
      "midi": 56,
      "time": 116.25,
      "duration": 0.375,
      "velocity": 0.71,
      "hand": "left"
    },
    {
      "midi": 68,
      "time": 116.25,
      "duration": 0.375,
      "velocity": 0.71,
      "hand": "right"
    },
    {
      "midi": 56,
      "time": 116.625,
      "duration": 0.375,
      "velocity": 0.71,
      "hand": "left"
    },
    {
      "midi": 68,
      "time": 116.625,
      "duration": 0.375,
      "velocity": 0.71,
      "hand": "right"
    },
    {
      "midi": 28,
      "time": 117,
      "duration": 1.5,
      "velocity": 0.71,
      "hand": "left"
    },
    {
      "midi": 40,
      "time": 117,
      "duration": 1.5,
      "velocity": 0.71,
      "hand": "left"
    },
    {
      "midi": 59,
      "time": 117,
      "duration": 0.375,
      "velocity": 0.71,
      "hand": "left"
    },
    {
      "midi": 64,
      "time": 117,
      "duration": 1.5,
      "velocity": 0.71,
      "hand": "right"
    },
    {
      "midi": 68,
      "time": 117,
      "duration": 1.5,
      "velocity": 0.71,
      "hand": "right"
    },
    {
      "midi": 71,
      "time": 117,
      "duration": 0.375,
      "velocity": 0.71,
      "hand": "right"
    },
    {
      "midi": 59,
      "time": 117.375,
      "duration": 0.375,
      "velocity": 0.71,
      "hand": "left"
    },
    {
      "midi": 71,
      "time": 117.375,
      "duration": 0.375,
      "velocity": 0.71,
      "hand": "right"
    },
    {
      "midi": 59,
      "time": 117.75,
      "duration": 0.375,
      "velocity": 0.71,
      "hand": "left"
    },
    {
      "midi": 71,
      "time": 117.75,
      "duration": 0.375,
      "velocity": 0.71,
      "hand": "right"
    },
    {
      "midi": 59,
      "time": 118.125,
      "duration": 0.375,
      "velocity": 0.71,
      "hand": "left"
    },
    {
      "midi": 71,
      "time": 118.125,
      "duration": 0.375,
      "velocity": 0.71,
      "hand": "right"
    },
    {
      "midi": 35,
      "time": 118.5,
      "duration": 1.5,
      "velocity": 0.71,
      "hand": "left"
    },
    {
      "midi": 47,
      "time": 118.5,
      "duration": 1.5,
      "velocity": 0.71,
      "hand": "left"
    },
    {
      "midi": 59,
      "time": 118.5,
      "duration": 0.375,
      "velocity": 0.71,
      "hand": "left"
    },
    {
      "midi": 63,
      "time": 118.5,
      "duration": 1.5,
      "velocity": 0.71,
      "hand": "right"
    },
    {
      "midi": 68,
      "time": 118.5,
      "duration": 1.5,
      "velocity": 0.71,
      "hand": "right"
    },
    {
      "midi": 71,
      "time": 118.5,
      "duration": 0.375,
      "velocity": 0.71,
      "hand": "right"
    },
    {
      "midi": 59,
      "time": 118.875,
      "duration": 0.375,
      "velocity": 0.71,
      "hand": "left"
    },
    {
      "midi": 71,
      "time": 118.875,
      "duration": 0.375,
      "velocity": 0.71,
      "hand": "right"
    },
    {
      "midi": 59,
      "time": 119.25,
      "duration": 0.375,
      "velocity": 0.71,
      "hand": "left"
    },
    {
      "midi": 71,
      "time": 119.25,
      "duration": 0.375,
      "velocity": 0.71,
      "hand": "right"
    },
    {
      "midi": 59,
      "time": 119.625,
      "duration": 0.375,
      "velocity": 0.71,
      "hand": "left"
    },
    {
      "midi": 71,
      "time": 119.625,
      "duration": 0.375,
      "velocity": 0.71,
      "hand": "right"
    },
    {
      "midi": 28,
      "time": 120,
      "duration": 1.5,
      "velocity": 0.71,
      "hand": "left"
    },
    {
      "midi": 40,
      "time": 120,
      "duration": 1.5,
      "velocity": 0.71,
      "hand": "left"
    },
    {
      "midi": 59,
      "time": 120,
      "duration": 0.375,
      "velocity": 0.71,
      "hand": "left"
    },
    {
      "midi": 64,
      "time": 120,
      "duration": 1.5,
      "velocity": 0.71,
      "hand": "right"
    },
    {
      "midi": 68,
      "time": 120,
      "duration": 1.5,
      "velocity": 0.71,
      "hand": "right"
    },
    {
      "midi": 71,
      "time": 120,
      "duration": 0.375,
      "velocity": 0.71,
      "hand": "right"
    },
    {
      "midi": 59,
      "time": 120.375,
      "duration": 0.375,
      "velocity": 0.71,
      "hand": "left"
    },
    {
      "midi": 71,
      "time": 120.375,
      "duration": 0.375,
      "velocity": 0.71,
      "hand": "right"
    },
    {
      "midi": 59,
      "time": 120.75,
      "duration": 0.375,
      "velocity": 0.71,
      "hand": "left"
    },
    {
      "midi": 71,
      "time": 120.75,
      "duration": 0.375,
      "velocity": 0.71,
      "hand": "right"
    },
    {
      "midi": 59,
      "time": 121.125,
      "duration": 0.375,
      "velocity": 0.71,
      "hand": "left"
    },
    {
      "midi": 71,
      "time": 121.125,
      "duration": 0.375,
      "velocity": 0.71,
      "hand": "right"
    },
    {
      "midi": 35,
      "time": 121.5,
      "duration": 1.125,
      "velocity": 0.71,
      "hand": "left"
    },
    {
      "midi": 47,
      "time": 121.5,
      "duration": 1.125,
      "velocity": 0.71,
      "hand": "left"
    },
    {
      "midi": 59,
      "time": 121.5,
      "duration": 0.375,
      "velocity": 0.71,
      "hand": "left"
    },
    {
      "midi": 63,
      "time": 121.5,
      "duration": 1.5,
      "velocity": 0.71,
      "hand": "right"
    },
    {
      "midi": 68,
      "time": 121.5,
      "duration": 1.5,
      "velocity": 0.71,
      "hand": "right"
    },
    {
      "midi": 71,
      "time": 121.5,
      "duration": 0.375,
      "velocity": 0.71,
      "hand": "right"
    },
    {
      "midi": 59,
      "time": 121.875,
      "duration": 0.375,
      "velocity": 0.71,
      "hand": "left"
    },
    {
      "midi": 71,
      "time": 121.875,
      "duration": 0.375,
      "velocity": 0.71,
      "hand": "right"
    },
    {
      "midi": 59,
      "time": 122.25,
      "duration": 0.375,
      "velocity": 0.71,
      "hand": "left"
    },
    {
      "midi": 71,
      "time": 122.25,
      "duration": 0.375,
      "velocity": 0.71,
      "hand": "right"
    },
    {
      "midi": 34,
      "time": 122.625,
      "duration": 0.375,
      "velocity": 0.71,
      "hand": "left"
    },
    {
      "midi": 46,
      "time": 122.625,
      "duration": 0.375,
      "velocity": 0.71,
      "hand": "left"
    },
    {
      "midi": 59,
      "time": 122.625,
      "duration": 0.375,
      "velocity": 0.71,
      "hand": "left"
    },
    {
      "midi": 71,
      "time": 122.625,
      "duration": 0.375,
      "velocity": 0.71,
      "hand": "right"
    },
    {
      "midi": 32,
      "time": 123,
      "duration": 1.5,
      "velocity": 0.71,
      "hand": "left"
    },
    {
      "midi": 44,
      "time": 123,
      "duration": 1.5,
      "velocity": 0.71,
      "hand": "left"
    },
    {
      "midi": 59,
      "time": 123,
      "duration": 0.375,
      "velocity": 0.71,
      "hand": "left"
    },
    {
      "midi": 63,
      "time": 123,
      "duration": 1.5,
      "velocity": 0.71,
      "hand": "right"
    },
    {
      "midi": 68,
      "time": 123,
      "duration": 1.5,
      "velocity": 0.71,
      "hand": "right"
    },
    {
      "midi": 71,
      "time": 123,
      "duration": 0.375,
      "velocity": 0.71,
      "hand": "right"
    },
    {
      "midi": 59,
      "time": 123.375,
      "duration": 0.375,
      "velocity": 0.71,
      "hand": "left"
    },
    {
      "midi": 71,
      "time": 123.375,
      "duration": 0.375,
      "velocity": 0.71,
      "hand": "right"
    },
    {
      "midi": 59,
      "time": 123.75,
      "duration": 0.375,
      "velocity": 0.71,
      "hand": "left"
    },
    {
      "midi": 71,
      "time": 123.75,
      "duration": 0.375,
      "velocity": 0.71,
      "hand": "right"
    },
    {
      "midi": 59,
      "time": 124.125,
      "duration": 0.375,
      "velocity": 0.71,
      "hand": "left"
    },
    {
      "midi": 71,
      "time": 124.125,
      "duration": 0.375,
      "velocity": 0.71,
      "hand": "right"
    },
    {
      "midi": 39,
      "time": 124.5,
      "duration": 1.5,
      "velocity": 0.71,
      "hand": "left"
    },
    {
      "midi": 51,
      "time": 124.5,
      "duration": 1.5,
      "velocity": 0.71,
      "hand": "left"
    },
    {
      "midi": 59,
      "time": 124.5,
      "duration": 0.375,
      "velocity": 0.71,
      "hand": "left"
    },
    {
      "midi": 63,
      "time": 124.5,
      "duration": 1.5,
      "velocity": 0.71,
      "hand": "right"
    },
    {
      "midi": 67,
      "time": 124.5,
      "duration": 1.5,
      "velocity": 0.71,
      "hand": "right"
    },
    {
      "midi": 71,
      "time": 124.5,
      "duration": 0.375,
      "velocity": 0.71,
      "hand": "right"
    },
    {
      "midi": 59,
      "time": 124.875,
      "duration": 0.375,
      "velocity": 0.71,
      "hand": "left"
    },
    {
      "midi": 71,
      "time": 124.875,
      "duration": 0.375,
      "velocity": 0.71,
      "hand": "right"
    },
    {
      "midi": 59,
      "time": 125.25,
      "duration": 0.375,
      "velocity": 0.71,
      "hand": "left"
    },
    {
      "midi": 71,
      "time": 125.25,
      "duration": 0.375,
      "velocity": 0.71,
      "hand": "right"
    },
    {
      "midi": 59,
      "time": 125.625,
      "duration": 0.375,
      "velocity": 0.71,
      "hand": "left"
    },
    {
      "midi": 71,
      "time": 125.625,
      "duration": 0.375,
      "velocity": 0.71,
      "hand": "right"
    },
    {
      "midi": 32,
      "time": 126,
      "duration": 1.5,
      "velocity": 0.71,
      "hand": "left"
    },
    {
      "midi": 44,
      "time": 126,
      "duration": 1.5,
      "velocity": 0.71,
      "hand": "left"
    },
    {
      "midi": 59,
      "time": 126,
      "duration": 0.375,
      "velocity": 0.71,
      "hand": "left"
    },
    {
      "midi": 63,
      "time": 126,
      "duration": 0.375,
      "velocity": 0.71,
      "hand": "right"
    },
    {
      "midi": 68,
      "time": 126,
      "duration": 0.375,
      "velocity": 0.71,
      "hand": "right"
    },
    {
      "midi": 71,
      "time": 126,
      "duration": 0.375,
      "velocity": 0.71,
      "hand": "right"
    },
    {
      "midi": 56,
      "time": 126.375,
      "duration": 0.375,
      "velocity": 0.71,
      "hand": "left"
    },
    {
      "midi": 56,
      "time": 126.75,
      "duration": 0.375,
      "velocity": 0.71,
      "hand": "left"
    },
    {
      "midi": 56,
      "time": 127.125,
      "duration": 0.375,
      "velocity": 0.71,
      "hand": "left"
    },
    {
      "midi": 56,
      "time": 127.5,
      "duration": 0.375,
      "velocity": 0.71,
      "hand": "left"
    },
    {
      "midi": 56,
      "time": 127.875,
      "duration": 0.375,
      "velocity": 0.71,
      "hand": "left"
    },
    {
      "midi": 56,
      "time": 128.25,
      "duration": 0.375,
      "velocity": 0.71,
      "hand": "left"
    },
    {
      "midi": 56,
      "time": 128.625,
      "duration": 0.375,
      "velocity": 0.71,
      "hand": "left"
    },
    {
      "midi": 37,
      "time": 129,
      "duration": 0.75,
      "velocity": 0.71,
      "hand": "left"
    },
    {
      "midi": 44,
      "time": 129,
      "duration": 0.75,
      "velocity": 0.71,
      "hand": "left"
    },
    {
      "midi": 56,
      "time": 129,
      "duration": 0.375,
      "velocity": 0.71,
      "hand": "left"
    },
    {
      "midi": 56,
      "time": 129.375,
      "duration": 0.375,
      "velocity": 0.71,
      "hand": "left"
    },
    {
      "midi": 39,
      "time": 129.75,
      "duration": 0.75,
      "velocity": 0.71,
      "hand": "left"
    },
    {
      "midi": 44,
      "time": 129.75,
      "duration": 0.75,
      "velocity": 0.71,
      "hand": "left"
    },
    {
      "midi": 56,
      "time": 129.75,
      "duration": 0.375,
      "velocity": 0.71,
      "hand": "left"
    },
    {
      "midi": 56,
      "time": 130.125,
      "duration": 0.375,
      "velocity": 0.71,
      "hand": "left"
    },
    {
      "midi": 40,
      "time": 130.5,
      "duration": 0.75,
      "velocity": 0.71,
      "hand": "left"
    },
    {
      "midi": 49,
      "time": 130.5,
      "duration": 0.75,
      "velocity": 0.71,
      "hand": "left"
    },
    {
      "midi": 56,
      "time": 130.5,
      "duration": 0.375,
      "velocity": 0.71,
      "hand": "left"
    },
    {
      "midi": 56,
      "time": 130.875,
      "duration": 0.375,
      "velocity": 0.71,
      "hand": "left"
    },
    {
      "midi": 39,
      "time": 131.25,
      "duration": 0.75,
      "velocity": 0.71,
      "hand": "left"
    },
    {
      "midi": 48,
      "time": 131.25,
      "duration": 0.75,
      "velocity": 0.71,
      "hand": "left"
    },
    {
      "midi": 56,
      "time": 131.25,
      "duration": 0.375,
      "velocity": 0.71,
      "hand": "left"
    },
    {
      "midi": 56,
      "time": 131.625,
      "duration": 0.375,
      "velocity": 0.71,
      "hand": "left"
    },
    {
      "midi": 39,
      "time": 132,
      "duration": 0.75,
      "velocity": 0.71,
      "hand": "left"
    },
    {
      "midi": 44,
      "time": 132,
      "duration": 0.75,
      "velocity": 0.71,
      "hand": "left"
    },
    {
      "midi": 56,
      "time": 132,
      "duration": 0.375,
      "velocity": 0.71,
      "hand": "left"
    },
    {
      "midi": 56,
      "time": 132.375,
      "duration": 0.375,
      "velocity": 0.71,
      "hand": "left"
    },
    {
      "midi": 40,
      "time": 132.75,
      "duration": 0.75,
      "velocity": 0.71,
      "hand": "left"
    },
    {
      "midi": 44,
      "time": 132.75,
      "duration": 0.75,
      "velocity": 0.71,
      "hand": "left"
    },
    {
      "midi": 56,
      "time": 132.75,
      "duration": 0.375,
      "velocity": 0.71,
      "hand": "left"
    },
    {
      "midi": 56,
      "time": 133.125,
      "duration": 0.375,
      "velocity": 0.71,
      "hand": "left"
    },
    {
      "midi": 42,
      "time": 133.5,
      "duration": 0.75,
      "velocity": 0.71,
      "hand": "left"
    },
    {
      "midi": 51,
      "time": 133.5,
      "duration": 0.75,
      "velocity": 0.71,
      "hand": "left"
    },
    {
      "midi": 56,
      "time": 133.5,
      "duration": 0.375,
      "velocity": 0.71,
      "hand": "left"
    },
    {
      "midi": 56,
      "time": 133.875,
      "duration": 0.375,
      "velocity": 0.71,
      "hand": "left"
    },
    {
      "midi": 40,
      "time": 134.25,
      "duration": 0.75,
      "velocity": 0.71,
      "hand": "left"
    },
    {
      "midi": 49,
      "time": 134.25,
      "duration": 0.75,
      "velocity": 0.71,
      "hand": "left"
    },
    {
      "midi": 56,
      "time": 134.25,
      "duration": 0.375,
      "velocity": 0.71,
      "hand": "left"
    },
    {
      "midi": 56,
      "time": 134.625,
      "duration": 0.375,
      "velocity": 0.71,
      "hand": "left"
    },
    {
      "midi": 40,
      "time": 135,
      "duration": 0.75,
      "velocity": 0.71,
      "hand": "left"
    },
    {
      "midi": 49,
      "time": 135,
      "duration": 0.75,
      "velocity": 0.71,
      "hand": "left"
    },
    {
      "midi": 56,
      "time": 135,
      "duration": 0.375,
      "velocity": 0.71,
      "hand": "left"
    },
    {
      "midi": 56,
      "time": 135.375,
      "duration": 0.375,
      "velocity": 0.71,
      "hand": "left"
    },
    {
      "midi": 44,
      "time": 135.75,
      "duration": 0.75,
      "velocity": 0.71,
      "hand": "left"
    },
    {
      "midi": 51,
      "time": 135.75,
      "duration": 0.75,
      "velocity": 0.71,
      "hand": "left"
    },
    {
      "midi": 56,
      "time": 135.75,
      "duration": 0.375,
      "velocity": 0.71,
      "hand": "left"
    },
    {
      "midi": 56,
      "time": 136.125,
      "duration": 0.375,
      "velocity": 0.71,
      "hand": "left"
    },
    {
      "midi": 49,
      "time": 136.5,
      "duration": 0.75,
      "velocity": 0.71,
      "hand": "left"
    },
    {
      "midi": 52,
      "time": 136.5,
      "duration": 0.75,
      "velocity": 0.71,
      "hand": "left"
    },
    {
      "midi": 56,
      "time": 136.5,
      "duration": 0.375,
      "velocity": 0.71,
      "hand": "left"
    },
    {
      "midi": 56,
      "time": 136.875,
      "duration": 0.375,
      "velocity": 0.71,
      "hand": "left"
    },
    {
      "midi": 44,
      "time": 137.25,
      "duration": 0.75,
      "velocity": 0.71,
      "hand": "left"
    },
    {
      "midi": 51,
      "time": 137.25,
      "duration": 0.75,
      "velocity": 0.71,
      "hand": "left"
    },
    {
      "midi": 56,
      "time": 137.25,
      "duration": 0.375,
      "velocity": 0.71,
      "hand": "left"
    },
    {
      "midi": 56,
      "time": 137.625,
      "duration": 0.375,
      "velocity": 0.71,
      "hand": "left"
    },
    {
      "midi": 44,
      "time": 138,
      "duration": 3.75,
      "velocity": 0.71,
      "hand": "left"
    },
    {
      "midi": 51,
      "time": 138,
      "duration": 3.75,
      "velocity": 0.71,
      "hand": "left"
    },
    {
      "midi": 56,
      "time": 138,
      "duration": 0.375,
      "velocity": 0.71,
      "hand": "left"
    },
    {
      "midi": 56,
      "time": 138.375,
      "duration": 0.375,
      "velocity": 0.71,
      "hand": "left"
    },
    {
      "midi": 56,
      "time": 138.75,
      "duration": 0.375,
      "velocity": 0.71,
      "hand": "left"
    },
    {
      "midi": 56,
      "time": 139.125,
      "duration": 0.375,
      "velocity": 0.71,
      "hand": "left"
    },
    {
      "midi": 56,
      "time": 139.5,
      "duration": 0.375,
      "velocity": 0.71,
      "hand": "left"
    },
    {
      "midi": 56,
      "time": 139.875,
      "duration": 0.375,
      "velocity": 0.71,
      "hand": "left"
    },
    {
      "midi": 56,
      "time": 140.25,
      "duration": 0.375,
      "velocity": 0.71,
      "hand": "left"
    },
    {
      "midi": 56,
      "time": 140.625,
      "duration": 0.375,
      "velocity": 0.71,
      "hand": "left"
    },
    {
      "midi": 56,
      "time": 141,
      "duration": 0.375,
      "velocity": 0.71,
      "hand": "left"
    },
    {
      "midi": 56,
      "time": 141.375,
      "duration": 0.375,
      "velocity": 0.71,
      "hand": "left"
    },
    {
      "midi": 49,
      "time": 141.75,
      "duration": 0.75,
      "velocity": 0.71,
      "hand": "left"
    },
    {
      "midi": 52,
      "time": 141.75,
      "duration": 0.75,
      "velocity": 0.71,
      "hand": "left"
    },
    {
      "midi": 56,
      "time": 141.75,
      "duration": 0.375,
      "velocity": 0.71,
      "hand": "left"
    },
    {
      "midi": 56,
      "time": 142.125,
      "duration": 0.375,
      "velocity": 0.71,
      "hand": "left"
    },
    {
      "midi": 44,
      "time": 142.5,
      "duration": 0.75,
      "velocity": 0.71,
      "hand": "left"
    },
    {
      "midi": 51,
      "time": 142.5,
      "duration": 0.75,
      "velocity": 0.71,
      "hand": "left"
    },
    {
      "midi": 56,
      "time": 142.5,
      "duration": 0.375,
      "velocity": 0.71,
      "hand": "left"
    },
    {
      "midi": 56,
      "time": 142.875,
      "duration": 0.375,
      "velocity": 0.71,
      "hand": "left"
    },
    {
      "midi": 40,
      "time": 143.25,
      "duration": 0.75,
      "velocity": 0.71,
      "hand": "left"
    },
    {
      "midi": 49,
      "time": 143.25,
      "duration": 0.75,
      "velocity": 0.71,
      "hand": "left"
    },
    {
      "midi": 56,
      "time": 143.25,
      "duration": 0.375,
      "velocity": 0.71,
      "hand": "left"
    },
    {
      "midi": 56,
      "time": 143.625,
      "duration": 0.375,
      "velocity": 0.71,
      "hand": "left"
    },
    {
      "midi": 44,
      "time": 144,
      "duration": 0.75,
      "velocity": 0.71,
      "hand": "left"
    },
    {
      "midi": 51,
      "time": 144,
      "duration": 0.75,
      "velocity": 0.71,
      "hand": "left"
    },
    {
      "midi": 56,
      "time": 144,
      "duration": 0.375,
      "velocity": 0.71,
      "hand": "left"
    },
    {
      "midi": 56,
      "time": 144.375,
      "duration": 0.375,
      "velocity": 0.71,
      "hand": "left"
    },
    {
      "midi": 40,
      "time": 144.75,
      "duration": 0.75,
      "velocity": 0.71,
      "hand": "left"
    },
    {
      "midi": 49,
      "time": 144.75,
      "duration": 0.75,
      "velocity": 0.71,
      "hand": "left"
    },
    {
      "midi": 56,
      "time": 144.75,
      "duration": 0.375,
      "velocity": 0.71,
      "hand": "left"
    },
    {
      "midi": 56,
      "time": 145.125,
      "duration": 0.375,
      "velocity": 0.71,
      "hand": "left"
    },
    {
      "midi": 39,
      "time": 145.5,
      "duration": 0.75,
      "velocity": 0.71,
      "hand": "left"
    },
    {
      "midi": 48,
      "time": 145.5,
      "duration": 0.75,
      "velocity": 0.71,
      "hand": "left"
    },
    {
      "midi": 56,
      "time": 145.5,
      "duration": 0.375,
      "velocity": 0.71,
      "hand": "left"
    },
    {
      "midi": 56,
      "time": 145.875,
      "duration": 0.375,
      "velocity": 0.71,
      "hand": "left"
    },
    {
      "midi": 40,
      "time": 146.25,
      "duration": 0.75,
      "velocity": 0.71,
      "hand": "left"
    },
    {
      "midi": 49,
      "time": 146.25,
      "duration": 0.75,
      "velocity": 0.71,
      "hand": "left"
    },
    {
      "midi": 56,
      "time": 146.25,
      "duration": 0.375,
      "velocity": 0.71,
      "hand": "left"
    },
    {
      "midi": 56,
      "time": 146.625,
      "duration": 0.375,
      "velocity": 0.71,
      "hand": "left"
    },
    {
      "midi": 39,
      "time": 147,
      "duration": 0.75,
      "velocity": 0.71,
      "hand": "left"
    },
    {
      "midi": 48,
      "time": 147,
      "duration": 0.75,
      "velocity": 0.71,
      "hand": "left"
    },
    {
      "midi": 56,
      "time": 147,
      "duration": 0.375,
      "velocity": 0.71,
      "hand": "left"
    },
    {
      "midi": 56,
      "time": 147.375,
      "duration": 0.375,
      "velocity": 0.71,
      "hand": "left"
    },
    {
      "midi": 40,
      "time": 147.75,
      "duration": 0.75,
      "velocity": 0.71,
      "hand": "left"
    },
    {
      "midi": 49,
      "time": 147.75,
      "duration": 0.75,
      "velocity": 0.71,
      "hand": "left"
    },
    {
      "midi": 56,
      "time": 147.75,
      "duration": 0.375,
      "velocity": 0.71,
      "hand": "left"
    },
    {
      "midi": 56,
      "time": 148.125,
      "duration": 0.375,
      "velocity": 0.71,
      "hand": "left"
    },
    {
      "midi": 39,
      "time": 148.5,
      "duration": 0.75,
      "velocity": 0.71,
      "hand": "left"
    },
    {
      "midi": 51,
      "time": 148.5,
      "duration": 0.75,
      "velocity": 0.71,
      "hand": "left"
    },
    {
      "midi": 56,
      "time": 148.5,
      "duration": 0.375,
      "velocity": 0.71,
      "hand": "left"
    },
    {
      "midi": 56,
      "time": 148.875,
      "duration": 0.375,
      "velocity": 0.71,
      "hand": "left"
    },
    {
      "midi": 37,
      "time": 149.25,
      "duration": 0.75,
      "velocity": 0.71,
      "hand": "left"
    },
    {
      "midi": 52,
      "time": 149.25,
      "duration": 0.75,
      "velocity": 0.71,
      "hand": "left"
    },
    {
      "midi": 56,
      "time": 149.25,
      "duration": 0.375,
      "velocity": 0.71,
      "hand": "left"
    },
    {
      "midi": 56,
      "time": 149.625,
      "duration": 0.375,
      "velocity": 0.71,
      "hand": "left"
    },
    {
      "midi": 44,
      "time": 150,
      "duration": 3,
      "velocity": 0.71,
      "hand": "left"
    },
    {
      "midi": 51,
      "time": 150,
      "duration": 3,
      "velocity": 0.71,
      "hand": "left"
    },
    {
      "midi": 56,
      "time": 150,
      "duration": 0.375,
      "velocity": 0.71,
      "hand": "left"
    },
    {
      "midi": 56,
      "time": 150.375,
      "duration": 0.375,
      "velocity": 0.71,
      "hand": "left"
    },
    {
      "midi": 68,
      "time": 150.375,
      "duration": 0.375,
      "velocity": 0.71,
      "hand": "right"
    },
    {
      "midi": 56,
      "time": 150.75,
      "duration": 0.375,
      "velocity": 0.71,
      "hand": "left"
    },
    {
      "midi": 68,
      "time": 150.75,
      "duration": 0.375,
      "velocity": 0.71,
      "hand": "right"
    },
    {
      "midi": 56,
      "time": 151.125,
      "duration": 0.375,
      "velocity": 0.71,
      "hand": "left"
    },
    {
      "midi": 68,
      "time": 151.125,
      "duration": 0.375,
      "velocity": 0.71,
      "hand": "right"
    },
    {
      "midi": 56,
      "time": 151.5,
      "duration": 0.375,
      "velocity": 0.71,
      "hand": "left"
    },
    {
      "midi": 68,
      "time": 151.5,
      "duration": 0.375,
      "velocity": 0.71,
      "hand": "right"
    },
    {
      "midi": 56,
      "time": 151.875,
      "duration": 0.375,
      "velocity": 0.71,
      "hand": "left"
    },
    {
      "midi": 68,
      "time": 151.875,
      "duration": 0.375,
      "velocity": 0.71,
      "hand": "right"
    },
    {
      "midi": 56,
      "time": 152.25,
      "duration": 0.375,
      "velocity": 0.71,
      "hand": "left"
    },
    {
      "midi": 68,
      "time": 152.25,
      "duration": 0.375,
      "velocity": 0.71,
      "hand": "right"
    },
    {
      "midi": 56,
      "time": 152.625,
      "duration": 0.375,
      "velocity": 0.71,
      "hand": "left"
    },
    {
      "midi": 68,
      "time": 152.625,
      "duration": 0.375,
      "velocity": 0.71,
      "hand": "right"
    },
    {
      "midi": 37,
      "time": 153,
      "duration": 0.75,
      "velocity": 0.71,
      "hand": "left"
    },
    {
      "midi": 44,
      "time": 153,
      "duration": 0.75,
      "velocity": 0.71,
      "hand": "left"
    },
    {
      "midi": 56,
      "time": 153,
      "duration": 0.375,
      "velocity": 0.71,
      "hand": "left"
    },
    {
      "midi": 68,
      "time": 153,
      "duration": 0.375,
      "velocity": 0.71,
      "hand": "right"
    },
    {
      "midi": 56,
      "time": 153.375,
      "duration": 0.375,
      "velocity": 0.71,
      "hand": "left"
    },
    {
      "midi": 68,
      "time": 153.375,
      "duration": 0.375,
      "velocity": 0.71,
      "hand": "right"
    },
    {
      "midi": 39,
      "time": 153.75,
      "duration": 0.75,
      "velocity": 0.71,
      "hand": "left"
    },
    {
      "midi": 44,
      "time": 153.75,
      "duration": 0.75,
      "velocity": 0.71,
      "hand": "left"
    },
    {
      "midi": 56,
      "time": 153.75,
      "duration": 0.375,
      "velocity": 0.71,
      "hand": "left"
    },
    {
      "midi": 68,
      "time": 153.75,
      "duration": 0.375,
      "velocity": 0.71,
      "hand": "right"
    },
    {
      "midi": 56,
      "time": 154.125,
      "duration": 0.375,
      "velocity": 0.71,
      "hand": "left"
    },
    {
      "midi": 68,
      "time": 154.125,
      "duration": 0.375,
      "velocity": 0.71,
      "hand": "right"
    },
    {
      "midi": 40,
      "time": 154.5,
      "duration": 0.75,
      "velocity": 0.71,
      "hand": "left"
    },
    {
      "midi": 49,
      "time": 154.5,
      "duration": 0.75,
      "velocity": 0.71,
      "hand": "left"
    },
    {
      "midi": 56,
      "time": 154.5,
      "duration": 0.375,
      "velocity": 0.71,
      "hand": "left"
    },
    {
      "midi": 61,
      "time": 154.5,
      "duration": 0.75,
      "velocity": 0.71,
      "hand": "right"
    },
    {
      "midi": 68,
      "time": 154.5,
      "duration": 0.375,
      "velocity": 0.71,
      "hand": "right"
    },
    {
      "midi": 56,
      "time": 154.875,
      "duration": 0.375,
      "velocity": 0.71,
      "hand": "left"
    },
    {
      "midi": 68,
      "time": 154.875,
      "duration": 0.375,
      "velocity": 0.71,
      "hand": "right"
    },
    {
      "midi": 39,
      "time": 155.25,
      "duration": 0.75,
      "velocity": 0.71,
      "hand": "left"
    },
    {
      "midi": 48,
      "time": 155.25,
      "duration": 0.75,
      "velocity": 0.71,
      "hand": "left"
    },
    {
      "midi": 56,
      "time": 155.25,
      "duration": 0.375,
      "velocity": 0.71,
      "hand": "left"
    },
    {
      "midi": 60,
      "time": 155.25,
      "duration": 0.75,
      "velocity": 0.71,
      "hand": "right"
    },
    {
      "midi": 68,
      "time": 155.25,
      "duration": 0.375,
      "velocity": 0.71,
      "hand": "right"
    },
    {
      "midi": 56,
      "time": 155.625,
      "duration": 0.375,
      "velocity": 0.71,
      "hand": "left"
    },
    {
      "midi": 68,
      "time": 155.625,
      "duration": 0.375,
      "velocity": 0.71,
      "hand": "right"
    },
    {
      "midi": 39,
      "time": 156,
      "duration": 0.75,
      "velocity": 0.71,
      "hand": "left"
    },
    {
      "midi": 44,
      "time": 156,
      "duration": 0.75,
      "velocity": 0.71,
      "hand": "left"
    },
    {
      "midi": 56,
      "time": 156,
      "duration": 0.375,
      "velocity": 0.71,
      "hand": "left"
    },
    {
      "midi": 68,
      "time": 156,
      "duration": 0.375,
      "velocity": 0.71,
      "hand": "right"
    },
    {
      "midi": 56,
      "time": 156.375,
      "duration": 0.375,
      "velocity": 0.71,
      "hand": "left"
    },
    {
      "midi": 68,
      "time": 156.375,
      "duration": 0.375,
      "velocity": 0.71,
      "hand": "right"
    },
    {
      "midi": 40,
      "time": 156.75,
      "duration": 0.75,
      "velocity": 0.71,
      "hand": "left"
    },
    {
      "midi": 44,
      "time": 156.75,
      "duration": 0.75,
      "velocity": 0.71,
      "hand": "left"
    },
    {
      "midi": 56,
      "time": 156.75,
      "duration": 0.375,
      "velocity": 0.71,
      "hand": "left"
    },
    {
      "midi": 68,
      "time": 156.75,
      "duration": 0.375,
      "velocity": 0.71,
      "hand": "right"
    },
    {
      "midi": 56,
      "time": 157.125,
      "duration": 0.375,
      "velocity": 0.71,
      "hand": "left"
    },
    {
      "midi": 68,
      "time": 157.125,
      "duration": 0.375,
      "velocity": 0.71,
      "hand": "right"
    },
    {
      "midi": 42,
      "time": 157.5,
      "duration": 0.75,
      "velocity": 0.71,
      "hand": "left"
    },
    {
      "midi": 51,
      "time": 157.5,
      "duration": 0.75,
      "velocity": 0.71,
      "hand": "left"
    },
    {
      "midi": 56,
      "time": 157.5,
      "duration": 0.375,
      "velocity": 0.71,
      "hand": "left"
    },
    {
      "midi": 63,
      "time": 157.5,
      "duration": 0.75,
      "velocity": 0.71,
      "hand": "right"
    },
    {
      "midi": 68,
      "time": 157.5,
      "duration": 0.375,
      "velocity": 0.71,
      "hand": "right"
    },
    {
      "midi": 56,
      "time": 157.875,
      "duration": 0.375,
      "velocity": 0.71,
      "hand": "left"
    },
    {
      "midi": 68,
      "time": 157.875,
      "duration": 0.375,
      "velocity": 0.71,
      "hand": "right"
    },
    {
      "midi": 40,
      "time": 158.25,
      "duration": 0.75,
      "velocity": 0.71,
      "hand": "left"
    },
    {
      "midi": 49,
      "time": 158.25,
      "duration": 0.75,
      "velocity": 0.71,
      "hand": "left"
    },
    {
      "midi": 56,
      "time": 158.25,
      "duration": 0.375,
      "velocity": 0.71,
      "hand": "left"
    },
    {
      "midi": 61,
      "time": 158.25,
      "duration": 1.5,
      "velocity": 0.71,
      "hand": "right"
    },
    {
      "midi": 68,
      "time": 158.25,
      "duration": 0.375,
      "velocity": 0.71,
      "hand": "right"
    },
    {
      "midi": 56,
      "time": 158.625,
      "duration": 0.375,
      "velocity": 0.71,
      "hand": "left"
    },
    {
      "midi": 68,
      "time": 158.625,
      "duration": 0.375,
      "velocity": 0.71,
      "hand": "right"
    },
    {
      "midi": 40,
      "time": 159,
      "duration": 0.75,
      "velocity": 0.71,
      "hand": "left"
    },
    {
      "midi": 49,
      "time": 159,
      "duration": 0.75,
      "velocity": 0.71,
      "hand": "left"
    },
    {
      "midi": 56,
      "time": 159,
      "duration": 0.375,
      "velocity": 0.71,
      "hand": "left"
    },
    {
      "midi": 68,
      "time": 159,
      "duration": 0.375,
      "velocity": 0.71,
      "hand": "right"
    },
    {
      "midi": 56,
      "time": 159.375,
      "duration": 0.375,
      "velocity": 0.71,
      "hand": "left"
    },
    {
      "midi": 68,
      "time": 159.375,
      "duration": 0.375,
      "velocity": 0.71,
      "hand": "right"
    },
    {
      "midi": 44,
      "time": 159.75,
      "duration": 0.75,
      "velocity": 0.71,
      "hand": "left"
    },
    {
      "midi": 51,
      "time": 159.75,
      "duration": 0.75,
      "velocity": 0.71,
      "hand": "left"
    },
    {
      "midi": 56,
      "time": 159.75,
      "duration": 0.375,
      "velocity": 0.71,
      "hand": "left"
    },
    {
      "midi": 63,
      "time": 159.75,
      "duration": 0.75,
      "velocity": 0.71,
      "hand": "right"
    },
    {
      "midi": 68,
      "time": 159.75,
      "duration": 0.375,
      "velocity": 0.71,
      "hand": "right"
    },
    {
      "midi": 56,
      "time": 160.125,
      "duration": 0.375,
      "velocity": 0.71,
      "hand": "left"
    },
    {
      "midi": 68,
      "time": 160.125,
      "duration": 0.375,
      "velocity": 0.71,
      "hand": "right"
    },
    {
      "midi": 49,
      "time": 160.5,
      "duration": 0.75,
      "velocity": 0.71,
      "hand": "left"
    },
    {
      "midi": 52,
      "time": 160.5,
      "duration": 0.75,
      "velocity": 0.71,
      "hand": "left"
    },
    {
      "midi": 56,
      "time": 160.5,
      "duration": 0.375,
      "velocity": 0.71,
      "hand": "left"
    },
    {
      "midi": 64,
      "time": 160.5,
      "duration": 0.75,
      "velocity": 0.71,
      "hand": "right"
    },
    {
      "midi": 68,
      "time": 160.5,
      "duration": 0.375,
      "velocity": 0.71,
      "hand": "right"
    },
    {
      "midi": 56,
      "time": 160.875,
      "duration": 0.375,
      "velocity": 0.71,
      "hand": "left"
    },
    {
      "midi": 68,
      "time": 160.875,
      "duration": 0.375,
      "velocity": 0.71,
      "hand": "right"
    },
    {
      "midi": 44,
      "time": 161.25,
      "duration": 0.75,
      "velocity": 0.71,
      "hand": "left"
    },
    {
      "midi": 51,
      "time": 161.25,
      "duration": 0.75,
      "velocity": 0.71,
      "hand": "left"
    },
    {
      "midi": 56,
      "time": 161.25,
      "duration": 0.375,
      "velocity": 0.71,
      "hand": "left"
    },
    {
      "midi": 63,
      "time": 161.25,
      "duration": 0.75,
      "velocity": 0.71,
      "hand": "right"
    },
    {
      "midi": 68,
      "time": 161.25,
      "duration": 0.375,
      "velocity": 0.71,
      "hand": "right"
    },
    {
      "midi": 56,
      "time": 161.625,
      "duration": 0.375,
      "velocity": 0.71,
      "hand": "left"
    },
    {
      "midi": 68,
      "time": 161.625,
      "duration": 0.375,
      "velocity": 0.71,
      "hand": "right"
    },
    {
      "midi": 32,
      "time": 162,
      "duration": 0.094,
      "velocity": 0.71,
      "hand": "left"
    },
    {
      "midi": 44,
      "time": 162,
      "duration": 3,
      "velocity": 0.71,
      "hand": "left"
    },
    {
      "midi": 51,
      "time": 162,
      "duration": 3,
      "velocity": 0.71,
      "hand": "left"
    },
    {
      "midi": 56,
      "time": 162,
      "duration": 0.375,
      "velocity": 0.71,
      "hand": "left"
    },
    {
      "midi": 63,
      "time": 162,
      "duration": 3,
      "velocity": 0.71,
      "hand": "right"
    },
    {
      "midi": 68,
      "time": 162,
      "duration": 0.375,
      "velocity": 0.71,
      "hand": "right"
    },
    {
      "midi": 56,
      "time": 162.375,
      "duration": 0.375,
      "velocity": 0.71,
      "hand": "left"
    },
    {
      "midi": 68,
      "time": 162.375,
      "duration": 0.375,
      "velocity": 0.71,
      "hand": "right"
    },
    {
      "midi": 56,
      "time": 162.75,
      "duration": 0.375,
      "velocity": 0.71,
      "hand": "left"
    },
    {
      "midi": 68,
      "time": 162.75,
      "duration": 0.375,
      "velocity": 0.71,
      "hand": "right"
    },
    {
      "midi": 56,
      "time": 163.125,
      "duration": 0.375,
      "velocity": 0.71,
      "hand": "left"
    },
    {
      "midi": 68,
      "time": 163.125,
      "duration": 0.375,
      "velocity": 0.71,
      "hand": "right"
    },
    {
      "midi": 56,
      "time": 163.5,
      "duration": 0.375,
      "velocity": 0.71,
      "hand": "left"
    },
    {
      "midi": 68,
      "time": 163.5,
      "duration": 0.375,
      "velocity": 0.71,
      "hand": "right"
    },
    {
      "midi": 56,
      "time": 163.875,
      "duration": 0.375,
      "velocity": 0.71,
      "hand": "left"
    },
    {
      "midi": 68,
      "time": 163.875,
      "duration": 0.375,
      "velocity": 0.71,
      "hand": "right"
    },
    {
      "midi": 56,
      "time": 164.25,
      "duration": 0.375,
      "velocity": 0.71,
      "hand": "left"
    },
    {
      "midi": 68,
      "time": 164.25,
      "duration": 0.375,
      "velocity": 0.71,
      "hand": "right"
    },
    {
      "midi": 56,
      "time": 164.625,
      "duration": 0.375,
      "velocity": 0.71,
      "hand": "left"
    },
    {
      "midi": 68,
      "time": 164.625,
      "duration": 0.375,
      "velocity": 0.71,
      "hand": "right"
    },
    {
      "midi": 28,
      "time": 165,
      "duration": 1.5,
      "velocity": 0.71,
      "hand": "left"
    },
    {
      "midi": 40,
      "time": 165,
      "duration": 1.5,
      "velocity": 0.71,
      "hand": "left"
    },
    {
      "midi": 59,
      "time": 165,
      "duration": 0.375,
      "velocity": 0.71,
      "hand": "left"
    },
    {
      "midi": 64,
      "time": 165,
      "duration": 1.5,
      "velocity": 0.71,
      "hand": "right"
    },
    {
      "midi": 68,
      "time": 165,
      "duration": 1.5,
      "velocity": 0.71,
      "hand": "right"
    },
    {
      "midi": 71,
      "time": 165,
      "duration": 0.375,
      "velocity": 0.71,
      "hand": "right"
    },
    {
      "midi": 59,
      "time": 165.375,
      "duration": 0.375,
      "velocity": 0.71,
      "hand": "left"
    },
    {
      "midi": 71,
      "time": 165.375,
      "duration": 0.375,
      "velocity": 0.71,
      "hand": "right"
    },
    {
      "midi": 59,
      "time": 165.75,
      "duration": 0.375,
      "velocity": 0.71,
      "hand": "left"
    },
    {
      "midi": 71,
      "time": 165.75,
      "duration": 0.375,
      "velocity": 0.71,
      "hand": "right"
    },
    {
      "midi": 59,
      "time": 166.125,
      "duration": 0.375,
      "velocity": 0.71,
      "hand": "left"
    },
    {
      "midi": 71,
      "time": 166.125,
      "duration": 0.375,
      "velocity": 0.71,
      "hand": "right"
    },
    {
      "midi": 35,
      "time": 166.5,
      "duration": 1.5,
      "velocity": 0.71,
      "hand": "left"
    },
    {
      "midi": 47,
      "time": 166.5,
      "duration": 1.5,
      "velocity": 0.71,
      "hand": "left"
    },
    {
      "midi": 59,
      "time": 166.5,
      "duration": 0.375,
      "velocity": 0.71,
      "hand": "left"
    },
    {
      "midi": 63,
      "time": 166.5,
      "duration": 1.5,
      "velocity": 0.71,
      "hand": "right"
    },
    {
      "midi": 68,
      "time": 166.5,
      "duration": 1.5,
      "velocity": 0.71,
      "hand": "right"
    },
    {
      "midi": 71,
      "time": 166.5,
      "duration": 0.375,
      "velocity": 0.71,
      "hand": "right"
    },
    {
      "midi": 59,
      "time": 166.875,
      "duration": 0.375,
      "velocity": 0.71,
      "hand": "left"
    },
    {
      "midi": 71,
      "time": 166.875,
      "duration": 0.375,
      "velocity": 0.71,
      "hand": "right"
    },
    {
      "midi": 59,
      "time": 167.25,
      "duration": 0.375,
      "velocity": 0.71,
      "hand": "left"
    },
    {
      "midi": 71,
      "time": 167.25,
      "duration": 0.375,
      "velocity": 0.71,
      "hand": "right"
    },
    {
      "midi": 59,
      "time": 167.625,
      "duration": 0.375,
      "velocity": 0.71,
      "hand": "left"
    },
    {
      "midi": 71,
      "time": 167.625,
      "duration": 0.375,
      "velocity": 0.71,
      "hand": "right"
    },
    {
      "midi": 28,
      "time": 168,
      "duration": 1.5,
      "velocity": 0.71,
      "hand": "left"
    },
    {
      "midi": 40,
      "time": 168,
      "duration": 1.5,
      "velocity": 0.71,
      "hand": "left"
    },
    {
      "midi": 59,
      "time": 168,
      "duration": 0.375,
      "velocity": 0.71,
      "hand": "left"
    },
    {
      "midi": 64,
      "time": 168,
      "duration": 1.5,
      "velocity": 0.71,
      "hand": "right"
    },
    {
      "midi": 68,
      "time": 168,
      "duration": 1.5,
      "velocity": 0.71,
      "hand": "right"
    },
    {
      "midi": 71,
      "time": 168,
      "duration": 0.375,
      "velocity": 0.71,
      "hand": "right"
    },
    {
      "midi": 59,
      "time": 168.375,
      "duration": 0.375,
      "velocity": 0.71,
      "hand": "left"
    },
    {
      "midi": 71,
      "time": 168.375,
      "duration": 0.375,
      "velocity": 0.71,
      "hand": "right"
    },
    {
      "midi": 59,
      "time": 168.75,
      "duration": 0.375,
      "velocity": 0.71,
      "hand": "left"
    },
    {
      "midi": 71,
      "time": 168.75,
      "duration": 0.375,
      "velocity": 0.71,
      "hand": "right"
    },
    {
      "midi": 59,
      "time": 169.125,
      "duration": 0.375,
      "velocity": 0.71,
      "hand": "left"
    },
    {
      "midi": 71,
      "time": 169.125,
      "duration": 0.375,
      "velocity": 0.71,
      "hand": "right"
    },
    {
      "midi": 35,
      "time": 169.5,
      "duration": 1.125,
      "velocity": 0.71,
      "hand": "left"
    },
    {
      "midi": 47,
      "time": 169.5,
      "duration": 1.125,
      "velocity": 0.71,
      "hand": "left"
    },
    {
      "midi": 59,
      "time": 169.5,
      "duration": 0.375,
      "velocity": 0.71,
      "hand": "left"
    },
    {
      "midi": 63,
      "time": 169.5,
      "duration": 1.5,
      "velocity": 0.71,
      "hand": "right"
    },
    {
      "midi": 68,
      "time": 169.5,
      "duration": 1.5,
      "velocity": 0.71,
      "hand": "right"
    },
    {
      "midi": 71,
      "time": 169.5,
      "duration": 0.375,
      "velocity": 0.71,
      "hand": "right"
    },
    {
      "midi": 59,
      "time": 169.875,
      "duration": 0.375,
      "velocity": 0.71,
      "hand": "left"
    },
    {
      "midi": 71,
      "time": 169.875,
      "duration": 0.375,
      "velocity": 0.71,
      "hand": "right"
    },
    {
      "midi": 59,
      "time": 170.25,
      "duration": 0.375,
      "velocity": 0.71,
      "hand": "left"
    },
    {
      "midi": 71,
      "time": 170.25,
      "duration": 0.375,
      "velocity": 0.71,
      "hand": "right"
    },
    {
      "midi": 34,
      "time": 170.625,
      "duration": 0.375,
      "velocity": 0.71,
      "hand": "left"
    },
    {
      "midi": 46,
      "time": 170.625,
      "duration": 0.375,
      "velocity": 0.71,
      "hand": "left"
    },
    {
      "midi": 59,
      "time": 170.625,
      "duration": 0.375,
      "velocity": 0.71,
      "hand": "left"
    },
    {
      "midi": 71,
      "time": 170.625,
      "duration": 0.375,
      "velocity": 0.71,
      "hand": "right"
    },
    {
      "midi": 32,
      "time": 171,
      "duration": 1.5,
      "velocity": 0.71,
      "hand": "left"
    },
    {
      "midi": 44,
      "time": 171,
      "duration": 1.5,
      "velocity": 0.71,
      "hand": "left"
    },
    {
      "midi": 59,
      "time": 171,
      "duration": 0.375,
      "velocity": 0.71,
      "hand": "left"
    },
    {
      "midi": 63,
      "time": 171,
      "duration": 1.5,
      "velocity": 0.71,
      "hand": "right"
    },
    {
      "midi": 68,
      "time": 171,
      "duration": 1.5,
      "velocity": 0.71,
      "hand": "right"
    },
    {
      "midi": 71,
      "time": 171,
      "duration": 0.375,
      "velocity": 0.71,
      "hand": "right"
    },
    {
      "midi": 59,
      "time": 171.375,
      "duration": 0.375,
      "velocity": 0.71,
      "hand": "left"
    },
    {
      "midi": 71,
      "time": 171.375,
      "duration": 0.375,
      "velocity": 0.71,
      "hand": "right"
    },
    {
      "midi": 59,
      "time": 171.75,
      "duration": 0.375,
      "velocity": 0.71,
      "hand": "left"
    },
    {
      "midi": 71,
      "time": 171.75,
      "duration": 0.375,
      "velocity": 0.71,
      "hand": "right"
    },
    {
      "midi": 59,
      "time": 172.125,
      "duration": 0.375,
      "velocity": 0.71,
      "hand": "left"
    },
    {
      "midi": 71,
      "time": 172.125,
      "duration": 0.375,
      "velocity": 0.71,
      "hand": "right"
    },
    {
      "midi": 39,
      "time": 172.5,
      "duration": 1.5,
      "velocity": 0.71,
      "hand": "left"
    },
    {
      "midi": 51,
      "time": 172.5,
      "duration": 1.5,
      "velocity": 0.71,
      "hand": "left"
    },
    {
      "midi": 59,
      "time": 172.5,
      "duration": 0.375,
      "velocity": 0.71,
      "hand": "left"
    },
    {
      "midi": 63,
      "time": 172.5,
      "duration": 1.5,
      "velocity": 0.71,
      "hand": "right"
    },
    {
      "midi": 67,
      "time": 172.5,
      "duration": 1.5,
      "velocity": 0.71,
      "hand": "right"
    },
    {
      "midi": 71,
      "time": 172.5,
      "duration": 0.375,
      "velocity": 0.71,
      "hand": "right"
    },
    {
      "midi": 59,
      "time": 172.875,
      "duration": 0.375,
      "velocity": 0.71,
      "hand": "left"
    },
    {
      "midi": 71,
      "time": 172.875,
      "duration": 0.375,
      "velocity": 0.71,
      "hand": "right"
    },
    {
      "midi": 59,
      "time": 173.25,
      "duration": 0.375,
      "velocity": 0.71,
      "hand": "left"
    },
    {
      "midi": 71,
      "time": 173.25,
      "duration": 0.375,
      "velocity": 0.71,
      "hand": "right"
    },
    {
      "midi": 59,
      "time": 173.625,
      "duration": 0.375,
      "velocity": 0.71,
      "hand": "left"
    },
    {
      "midi": 71,
      "time": 173.625,
      "duration": 0.375,
      "velocity": 0.71,
      "hand": "right"
    },
    {
      "midi": 32,
      "time": 174,
      "duration": 1.5,
      "velocity": 0.71,
      "hand": "left"
    },
    {
      "midi": 44,
      "time": 174,
      "duration": 1.5,
      "velocity": 0.71,
      "hand": "left"
    },
    {
      "midi": 59,
      "time": 174,
      "duration": 0.375,
      "velocity": 0.71,
      "hand": "left"
    },
    {
      "midi": 63,
      "time": 174,
      "duration": 0.375,
      "velocity": 0.71,
      "hand": "right"
    },
    {
      "midi": 68,
      "time": 174,
      "duration": 0.375,
      "velocity": 0.71,
      "hand": "right"
    },
    {
      "midi": 71,
      "time": 174,
      "duration": 0.375,
      "velocity": 0.71,
      "hand": "right"
    },
    {
      "midi": 68,
      "time": 174.375,
      "duration": 0.375,
      "velocity": 0.71,
      "hand": "right"
    },
    {
      "midi": 68,
      "time": 174.75,
      "duration": 0.375,
      "velocity": 0.71,
      "hand": "right"
    },
    {
      "midi": 68,
      "time": 175.125,
      "duration": 0.375,
      "velocity": 0.71,
      "hand": "right"
    },
    {
      "midi": 68,
      "time": 175.5,
      "duration": 0.375,
      "velocity": 0.71,
      "hand": "right"
    },
    {
      "midi": 68,
      "time": 175.875,
      "duration": 0.375,
      "velocity": 0.71,
      "hand": "right"
    },
    {
      "midi": 68,
      "time": 176.25,
      "duration": 0.375,
      "velocity": 0.71,
      "hand": "right"
    },
    {
      "midi": 68,
      "time": 176.625,
      "duration": 0.375,
      "velocity": 0.71,
      "hand": "right"
    },
    {
      "midi": 42,
      "time": 177,
      "duration": 1.5,
      "velocity": 0.71,
      "hand": "left"
    },
    {
      "midi": 44,
      "time": 177,
      "duration": 1.5,
      "velocity": 0.71,
      "hand": "left"
    },
    {
      "midi": 51,
      "time": 177,
      "duration": 1.5,
      "velocity": 0.71,
      "hand": "left"
    },
    {
      "midi": 60,
      "time": 177,
      "duration": 1.5,
      "velocity": 0.71,
      "hand": "right"
    },
    {
      "midi": 68,
      "time": 177,
      "duration": 0.375,
      "velocity": 0.71,
      "hand": "right"
    },
    {
      "midi": 72,
      "time": 177,
      "duration": 1.5,
      "velocity": 0.71,
      "hand": "right"
    },
    {
      "midi": 68,
      "time": 177.375,
      "duration": 0.375,
      "velocity": 0.71,
      "hand": "right"
    },
    {
      "midi": 68,
      "time": 177.75,
      "duration": 0.375,
      "velocity": 0.71,
      "hand": "right"
    },
    {
      "midi": 68,
      "time": 178.125,
      "duration": 0.375,
      "velocity": 0.71,
      "hand": "right"
    },
    {
      "midi": 40,
      "time": 178.5,
      "duration": 0.75,
      "velocity": 0.71,
      "hand": "left"
    },
    {
      "midi": 44,
      "time": 178.5,
      "duration": 1.5,
      "velocity": 0.71,
      "hand": "left"
    },
    {
      "midi": 52,
      "time": 178.5,
      "duration": 0.75,
      "velocity": 0.71,
      "hand": "left"
    },
    {
      "midi": 61,
      "time": 178.5,
      "duration": 1.5,
      "velocity": 0.71,
      "hand": "right"
    },
    {
      "midi": 68,
      "time": 178.5,
      "duration": 0.375,
      "velocity": 0.71,
      "hand": "right"
    },
    {
      "midi": 73,
      "time": 178.5,
      "duration": 1.5,
      "velocity": 0.71,
      "hand": "right"
    },
    {
      "midi": 68,
      "time": 178.875,
      "duration": 0.375,
      "velocity": 0.71,
      "hand": "right"
    },
    {
      "midi": 37,
      "time": 179.25,
      "duration": 0.75,
      "velocity": 0.71,
      "hand": "left"
    },
    {
      "midi": 49,
      "time": 179.25,
      "duration": 0.75,
      "velocity": 0.71,
      "hand": "left"
    },
    {
      "midi": 68,
      "time": 179.25,
      "duration": 0.375,
      "velocity": 0.71,
      "hand": "right"
    },
    {
      "midi": 68,
      "time": 179.625,
      "duration": 0.375,
      "velocity": 0.71,
      "hand": "right"
    },
    {
      "midi": 32,
      "time": 180,
      "duration": 2.25,
      "velocity": 0.71,
      "hand": "left"
    },
    {
      "midi": 44,
      "time": 180,
      "duration": 2.25,
      "velocity": 0.71,
      "hand": "left"
    },
    {
      "midi": 63,
      "time": 180,
      "duration": 2.25,
      "velocity": 0.71,
      "hand": "right"
    },
    {
      "midi": 68,
      "time": 180,
      "duration": 0.375,
      "velocity": 0.71,
      "hand": "right"
    },
    {
      "midi": 73,
      "time": 180,
      "duration": 2.25,
      "velocity": 0.71,
      "hand": "right"
    },
    {
      "midi": 75,
      "time": 180,
      "duration": 2.25,
      "velocity": 0.71,
      "hand": "right"
    },
    {
      "midi": 68,
      "time": 180.375,
      "duration": 0.375,
      "velocity": 0.71,
      "hand": "right"
    },
    {
      "midi": 68,
      "time": 180.75,
      "duration": 0.375,
      "velocity": 0.71,
      "hand": "right"
    },
    {
      "midi": 68,
      "time": 181.125,
      "duration": 0.375,
      "velocity": 0.71,
      "hand": "right"
    },
    {
      "midi": 68,
      "time": 181.5,
      "duration": 0.375,
      "velocity": 0.71,
      "hand": "right"
    },
    {
      "midi": 68,
      "time": 181.875,
      "duration": 0.375,
      "velocity": 0.71,
      "hand": "right"
    },
    {
      "midi": 44,
      "time": 182.25,
      "duration": 0.75,
      "velocity": 0.71,
      "hand": "left"
    },
    {
      "midi": 56,
      "time": 182.25,
      "duration": 0.75,
      "velocity": 0.71,
      "hand": "left"
    },
    {
      "midi": 63,
      "time": 182.25,
      "duration": 0.75,
      "velocity": 0.71,
      "hand": "right"
    },
    {
      "midi": 68,
      "time": 182.25,
      "duration": 0.375,
      "velocity": 0.71,
      "hand": "right"
    },
    {
      "midi": 72,
      "time": 182.25,
      "duration": 0.75,
      "velocity": 0.71,
      "hand": "right"
    },
    {
      "midi": 75,
      "time": 182.25,
      "duration": 0.75,
      "velocity": 0.71,
      "hand": "right"
    },
    {
      "midi": 68,
      "time": 182.625,
      "duration": 0.375,
      "velocity": 0.71,
      "hand": "right"
    },
    {
      "midi": 49,
      "time": 183,
      "duration": 1.5,
      "velocity": 0.71,
      "hand": "left"
    },
    {
      "midi": 56,
      "time": 183,
      "duration": 1.5,
      "velocity": 0.71,
      "hand": "left"
    },
    {
      "midi": 64,
      "time": 183,
      "duration": 0.75,
      "velocity": 0.71,
      "hand": "right"
    },
    {
      "midi": 68,
      "time": 183,
      "duration": 0.375,
      "velocity": 0.71,
      "hand": "right"
    },
    {
      "midi": 75,
      "time": 183,
      "duration": 0.75,
      "velocity": 0.71,
      "hand": "right"
    },
    {
      "midi": 76,
      "time": 183,
      "duration": 0.75,
      "velocity": 0.71,
      "hand": "right"
    },
    {
      "midi": 68,
      "time": 183.375,
      "duration": 0.375,
      "velocity": 0.71,
      "hand": "right"
    },
    {
      "midi": 64,
      "time": 183.75,
      "duration": 0.75,
      "velocity": 0.71,
      "hand": "right"
    },
    {
      "midi": 68,
      "time": 183.75,
      "duration": 0.375,
      "velocity": 0.71,
      "hand": "right"
    },
    {
      "midi": 73,
      "time": 183.75,
      "duration": 0.75,
      "velocity": 0.71,
      "hand": "right"
    },
    {
      "midi": 76,
      "time": 183.75,
      "duration": 0.75,
      "velocity": 0.71,
      "hand": "right"
    },
    {
      "midi": 68,
      "time": 184.125,
      "duration": 0.375,
      "velocity": 0.71,
      "hand": "right"
    },
    {
      "midi": 44,
      "time": 184.5,
      "duration": 1.5,
      "velocity": 0.71,
      "hand": "left"
    },
    {
      "midi": 56,
      "time": 184.5,
      "duration": 1.5,
      "velocity": 0.71,
      "hand": "left"
    },
    {
      "midi": 63,
      "time": 184.5,
      "duration": 0.75,
      "velocity": 0.71,
      "hand": "right"
    },
    {
      "midi": 68,
      "time": 184.5,
      "duration": 0.375,
      "velocity": 0.71,
      "hand": "right"
    },
    {
      "midi": 73,
      "time": 184.5,
      "duration": 0.75,
      "velocity": 0.71,
      "hand": "right"
    },
    {
      "midi": 75,
      "time": 184.5,
      "duration": 0.75,
      "velocity": 0.71,
      "hand": "right"
    },
    {
      "midi": 68,
      "time": 184.875,
      "duration": 0.375,
      "velocity": 0.71,
      "hand": "right"
    },
    {
      "midi": 63,
      "time": 185.25,
      "duration": 0.75,
      "velocity": 0.71,
      "hand": "right"
    },
    {
      "midi": 68,
      "time": 185.25,
      "duration": 0.375,
      "velocity": 0.71,
      "hand": "right"
    },
    {
      "midi": 72,
      "time": 185.25,
      "duration": 0.75,
      "velocity": 0.71,
      "hand": "right"
    },
    {
      "midi": 75,
      "time": 185.25,
      "duration": 0.75,
      "velocity": 0.71,
      "hand": "right"
    },
    {
      "midi": 68,
      "time": 185.625,
      "duration": 0.375,
      "velocity": 0.71,
      "hand": "right"
    },
    {
      "midi": 45,
      "time": 186,
      "duration": 1.5,
      "velocity": 0.71,
      "hand": "left"
    },
    {
      "midi": 57,
      "time": 186,
      "duration": 1.5,
      "velocity": 0.71,
      "hand": "left"
    },
    {
      "midi": 61,
      "time": 186,
      "duration": 3,
      "velocity": 0.71,
      "hand": "right"
    },
    {
      "midi": 68,
      "time": 186,
      "duration": 0.375,
      "velocity": 0.71,
      "hand": "right"
    },
    {
      "midi": 73,
      "time": 186,
      "duration": 3,
      "velocity": 0.71,
      "hand": "right"
    },
    {
      "midi": 68,
      "time": 186.375,
      "duration": 0.375,
      "velocity": 0.71,
      "hand": "right"
    },
    {
      "midi": 66,
      "time": 186.75,
      "duration": 0.375,
      "velocity": 0.71,
      "hand": "right"
    },
    {
      "midi": 66,
      "time": 187.125,
      "duration": 0.375,
      "velocity": 0.71,
      "hand": "right"
    },
    {
      "midi": 44,
      "time": 187.5,
      "duration": 0.75,
      "velocity": 0.71,
      "hand": "left"
    },
    {
      "midi": 56,
      "time": 187.5,
      "duration": 0.75,
      "velocity": 0.71,
      "hand": "left"
    },
    {
      "midi": 68,
      "time": 187.5,
      "duration": 0.375,
      "velocity": 0.71,
      "hand": "right"
    },
    {
      "midi": 68,
      "time": 187.875,
      "duration": 0.375,
      "velocity": 0.71,
      "hand": "right"
    },
    {
      "midi": 42,
      "time": 188.25,
      "duration": 0.75,
      "velocity": 0.71,
      "hand": "left"
    },
    {
      "midi": 54,
      "time": 188.25,
      "duration": 0.75,
      "velocity": 0.71,
      "hand": "left"
    },
    {
      "midi": 69,
      "time": 188.25,
      "duration": 0.375,
      "velocity": 0.71,
      "hand": "right"
    },
    {
      "midi": 69,
      "time": 188.625,
      "duration": 0.375,
      "velocity": 0.71,
      "hand": "right"
    },
    {
      "midi": 44,
      "time": 189,
      "duration": 1.5,
      "velocity": 0.71,
      "hand": "left"
    },
    {
      "midi": 56,
      "time": 189,
      "duration": 0.375,
      "velocity": 0.71,
      "hand": "left"
    },
    {
      "midi": 60,
      "time": 189,
      "duration": 1.5,
      "velocity": 0.71,
      "hand": "right"
    },
    {
      "midi": 63,
      "time": 189,
      "duration": 1.5,
      "velocity": 0.71,
      "hand": "right"
    },
    {
      "midi": 68,
      "time": 189,
      "duration": 1.5,
      "velocity": 0.71,
      "hand": "right"
    },
    {
      "midi": 56,
      "time": 189.375,
      "duration": 0.375,
      "velocity": 0.71,
      "hand": "left"
    },
    {
      "midi": 56,
      "time": 189.75,
      "duration": 0.375,
      "velocity": 0.71,
      "hand": "left"
    },
    {
      "midi": 56,
      "time": 190.125,
      "duration": 0.375,
      "velocity": 0.71,
      "hand": "left"
    },
    {
      "midi": 37,
      "time": 190.5,
      "duration": 1.5,
      "velocity": 0.71,
      "hand": "left"
    },
    {
      "midi": 44,
      "time": 190.5,
      "duration": 1.5,
      "velocity": 0.71,
      "hand": "left"
    },
    {
      "midi": 56,
      "time": 190.5,
      "duration": 0.375,
      "velocity": 0.71,
      "hand": "left"
    },
    {
      "midi": 61,
      "time": 190.5,
      "duration": 0.75,
      "velocity": 0.71,
      "hand": "right"
    },
    {
      "midi": 64,
      "time": 190.5,
      "duration": 0.75,
      "velocity": 0.71,
      "hand": "right"
    },
    {
      "midi": 68,
      "time": 190.5,
      "duration": 0.75,
      "velocity": 0.71,
      "hand": "right"
    },
    {
      "midi": 56,
      "time": 190.875,
      "duration": 0.375,
      "velocity": 0.71,
      "hand": "left"
    },
    {
      "midi": 56,
      "time": 191.25,
      "duration": 0.375,
      "velocity": 0.71,
      "hand": "left"
    },
    {
      "midi": 58,
      "time": 191.25,
      "duration": 0.75,
      "velocity": 0.71,
      "hand": "left"
    },
    {
      "midi": 61,
      "time": 191.25,
      "duration": 0.75,
      "velocity": 0.71,
      "hand": "right"
    },
    {
      "midi": 68,
      "time": 191.25,
      "duration": 0.75,
      "velocity": 0.71,
      "hand": "right"
    },
    {
      "midi": 56,
      "time": 191.625,
      "duration": 0.375,
      "velocity": 0.71,
      "hand": "left"
    },
    {
      "midi": 32,
      "time": 192,
      "duration": 0.75,
      "velocity": 0.71,
      "hand": "left"
    },
    {
      "midi": 44,
      "time": 192,
      "duration": 0.75,
      "velocity": 0.71,
      "hand": "left"
    },
    {
      "midi": 56,
      "time": 192,
      "duration": 0.375,
      "velocity": 0.71,
      "hand": "left"
    },
    {
      "midi": 60,
      "time": 192,
      "duration": 0.75,
      "velocity": 0.71,
      "hand": "right"
    },
    {
      "midi": 63,
      "time": 192,
      "duration": 0.75,
      "velocity": 0.71,
      "hand": "right"
    },
    {
      "midi": 68,
      "time": 192,
      "duration": 0.75,
      "velocity": 0.71,
      "hand": "right"
    },
    {
      "midi": 56,
      "time": 192.375,
      "duration": 0.375,
      "velocity": 0.71,
      "hand": "left"
    },
    {
      "midi": 37,
      "time": 192.75,
      "duration": 2.25,
      "velocity": 0.71,
      "hand": "left"
    },
    {
      "midi": 44,
      "time": 192.75,
      "duration": 2.25,
      "velocity": 0.71,
      "hand": "left"
    },
    {
      "midi": 56,
      "time": 192.75,
      "duration": 0.375,
      "velocity": 0.71,
      "hand": "left"
    },
    {
      "midi": 61,
      "time": 192.75,
      "duration": 0.75,
      "velocity": 0.71,
      "hand": "right"
    },
    {
      "midi": 64,
      "time": 192.75,
      "duration": 0.75,
      "velocity": 0.71,
      "hand": "right"
    },
    {
      "midi": 68,
      "time": 192.75,
      "duration": 0.75,
      "velocity": 0.71,
      "hand": "right"
    },
    {
      "midi": 56,
      "time": 193.125,
      "duration": 0.375,
      "velocity": 0.71,
      "hand": "left"
    },
    {
      "midi": 56,
      "time": 193.5,
      "duration": 0.375,
      "velocity": 0.71,
      "hand": "left"
    },
    {
      "midi": 58,
      "time": 193.5,
      "duration": 0.75,
      "velocity": 0.71,
      "hand": "left"
    },
    {
      "midi": 61,
      "time": 193.5,
      "duration": 0.75,
      "velocity": 0.71,
      "hand": "right"
    },
    {
      "midi": 68,
      "time": 193.5,
      "duration": 0.75,
      "velocity": 0.71,
      "hand": "right"
    },
    {
      "midi": 56,
      "time": 193.875,
      "duration": 0.375,
      "velocity": 0.71,
      "hand": "left"
    },
    {
      "midi": 56,
      "time": 194.25,
      "duration": 0.375,
      "velocity": 0.71,
      "hand": "left"
    },
    {
      "midi": 61,
      "time": 194.25,
      "duration": 0.75,
      "velocity": 0.71,
      "hand": "right"
    },
    {
      "midi": 64,
      "time": 194.25,
      "duration": 0.75,
      "velocity": 0.71,
      "hand": "right"
    },
    {
      "midi": 68,
      "time": 194.25,
      "duration": 0.75,
      "velocity": 0.71,
      "hand": "right"
    },
    {
      "midi": 56,
      "time": 194.625,
      "duration": 0.375,
      "velocity": 0.71,
      "hand": "left"
    },
    {
      "midi": 37,
      "time": 195,
      "duration": 0.75,
      "velocity": 0.71,
      "hand": "left"
    },
    {
      "midi": 44,
      "time": 195,
      "duration": 0.75,
      "velocity": 0.71,
      "hand": "left"
    },
    {
      "midi": 56,
      "time": 195,
      "duration": 0.375,
      "velocity": 0.71,
      "hand": "left"
    },
    {
      "midi": 61,
      "time": 195,
      "duration": 0.75,
      "velocity": 0.71,
      "hand": "right"
    },
    {
      "midi": 64,
      "time": 195,
      "duration": 0.75,
      "velocity": 0.71,
      "hand": "right"
    },
    {
      "midi": 68,
      "time": 195,
      "duration": 0.75,
      "velocity": 0.71,
      "hand": "right"
    },
    {
      "midi": 56,
      "time": 195.375,
      "duration": 0.375,
      "velocity": 0.71,
      "hand": "left"
    },
    {
      "midi": 32,
      "time": 195.75,
      "duration": 1.5,
      "velocity": 0.71,
      "hand": "left"
    },
    {
      "midi": 44,
      "time": 195.75,
      "duration": 1.5,
      "velocity": 0.71,
      "hand": "left"
    },
    {
      "midi": 56,
      "time": 195.75,
      "duration": 0.375,
      "velocity": 0.71,
      "hand": "left"
    },
    {
      "midi": 60,
      "time": 195.75,
      "duration": 0.75,
      "velocity": 0.71,
      "hand": "right"
    },
    {
      "midi": 63,
      "time": 195.75,
      "duration": 0.75,
      "velocity": 0.71,
      "hand": "right"
    },
    {
      "midi": 68,
      "time": 195.75,
      "duration": 0.75,
      "velocity": 0.71,
      "hand": "right"
    },
    {
      "midi": 56,
      "time": 196.125,
      "duration": 0.375,
      "velocity": 0.71,
      "hand": "left"
    },
    {
      "midi": 56,
      "time": 196.5,
      "duration": 0.375,
      "velocity": 0.71,
      "hand": "left"
    },
    {
      "midi": 63,
      "time": 196.5,
      "duration": 0.75,
      "velocity": 0.71,
      "hand": "right"
    },
    {
      "midi": 66,
      "time": 196.5,
      "duration": 0.75,
      "velocity": 0.71,
      "hand": "right"
    },
    {
      "midi": 68,
      "time": 196.5,
      "duration": 0.75,
      "velocity": 0.71,
      "hand": "right"
    },
    {
      "midi": 56,
      "time": 196.875,
      "duration": 0.375,
      "velocity": 0.71,
      "hand": "left"
    },
    {
      "midi": 37,
      "time": 197.25,
      "duration": 0.75,
      "velocity": 0.71,
      "hand": "left"
    },
    {
      "midi": 44,
      "time": 197.25,
      "duration": 0.75,
      "velocity": 0.71,
      "hand": "left"
    },
    {
      "midi": 56,
      "time": 197.25,
      "duration": 0.375,
      "velocity": 0.71,
      "hand": "left"
    },
    {
      "midi": 61,
      "time": 197.25,
      "duration": 0.75,
      "velocity": 0.71,
      "hand": "right"
    },
    {
      "midi": 64,
      "time": 197.25,
      "duration": 0.75,
      "velocity": 0.71,
      "hand": "right"
    },
    {
      "midi": 68,
      "time": 197.25,
      "duration": 0.75,
      "velocity": 0.71,
      "hand": "right"
    },
    {
      "midi": 56,
      "time": 197.625,
      "duration": 0.375,
      "velocity": 0.71,
      "hand": "left"
    },
    {
      "midi": 32,
      "time": 198,
      "duration": 3,
      "velocity": 0.71,
      "hand": "left"
    },
    {
      "midi": 44,
      "time": 198,
      "duration": 3,
      "velocity": 0.71,
      "hand": "left"
    },
    {
      "midi": 56,
      "time": 198,
      "duration": 0.375,
      "velocity": 0.71,
      "hand": "left"
    },
    {
      "midi": 60,
      "time": 198,
      "duration": 3,
      "velocity": 0.71,
      "hand": "right"
    },
    {
      "midi": 63,
      "time": 198,
      "duration": 3,
      "velocity": 0.71,
      "hand": "right"
    },
    {
      "midi": 68,
      "time": 198,
      "duration": 3,
      "velocity": 0.71,
      "hand": "right"
    },
    {
      "midi": 56,
      "time": 198.375,
      "duration": 0.375,
      "velocity": 0.71,
      "hand": "left"
    },
    {
      "midi": 56,
      "time": 198.75,
      "duration": 0.375,
      "velocity": 0.71,
      "hand": "left"
    },
    {
      "midi": 56,
      "time": 199.125,
      "duration": 0.375,
      "velocity": 0.71,
      "hand": "left"
    },
    {
      "midi": 56,
      "time": 199.5,
      "duration": 0.375,
      "velocity": 0.71,
      "hand": "left"
    },
    {
      "midi": 56,
      "time": 199.875,
      "duration": 0.375,
      "velocity": 0.71,
      "hand": "left"
    },
    {
      "midi": 56,
      "time": 200.25,
      "duration": 0.375,
      "velocity": 0.71,
      "hand": "left"
    },
    {
      "midi": 56,
      "time": 200.625,
      "duration": 0.375,
      "velocity": 0.71,
      "hand": "left"
    },
    {
      "midi": 42,
      "time": 201,
      "duration": 1.5,
      "velocity": 0.71,
      "hand": "left"
    },
    {
      "midi": 44,
      "time": 201,
      "duration": 0.375,
      "velocity": 0.71,
      "hand": "left"
    },
    {
      "midi": 54,
      "time": 201,
      "duration": 1.5,
      "velocity": 0.71,
      "hand": "left"
    },
    {
      "midi": 60,
      "time": 201,
      "duration": 1.5,
      "velocity": 0.71,
      "hand": "right"
    },
    {
      "midi": 63,
      "time": 201,
      "duration": 1.5,
      "velocity": 0.71,
      "hand": "right"
    },
    {
      "midi": 68,
      "time": 201,
      "duration": 0.375,
      "velocity": 0.71,
      "hand": "right"
    },
    {
      "midi": 72,
      "time": 201,
      "duration": 1.5,
      "velocity": 0.71,
      "hand": "right"
    },
    {
      "midi": 44,
      "time": 201.375,
      "duration": 0.375,
      "velocity": 0.71,
      "hand": "left"
    },
    {
      "midi": 68,
      "time": 201.375,
      "duration": 0.375,
      "velocity": 0.71,
      "hand": "right"
    },
    {
      "midi": 44,
      "time": 201.75,
      "duration": 0.375,
      "velocity": 0.71,
      "hand": "left"
    },
    {
      "midi": 68,
      "time": 201.75,
      "duration": 0.375,
      "velocity": 0.71,
      "hand": "right"
    },
    {
      "midi": 44,
      "time": 202.125,
      "duration": 0.375,
      "velocity": 0.71,
      "hand": "left"
    },
    {
      "midi": 68,
      "time": 202.125,
      "duration": 0.375,
      "velocity": 0.71,
      "hand": "right"
    },
    {
      "midi": 40,
      "time": 202.5,
      "duration": 0.75,
      "velocity": 0.71,
      "hand": "left"
    },
    {
      "midi": 44,
      "time": 202.5,
      "duration": 0.75,
      "velocity": 0.71,
      "hand": "left"
    },
    {
      "midi": 52,
      "time": 202.5,
      "duration": 0.75,
      "velocity": 0.71,
      "hand": "left"
    },
    {
      "midi": 61,
      "time": 202.5,
      "duration": 1.5,
      "velocity": 0.71,
      "hand": "right"
    },
    {
      "midi": 68,
      "time": 202.5,
      "duration": 0.375,
      "velocity": 0.71,
      "hand": "right"
    },
    {
      "midi": 73,
      "time": 202.5,
      "duration": 1.5,
      "velocity": 0.71,
      "hand": "right"
    },
    {
      "midi": 68,
      "time": 202.875,
      "duration": 0.375,
      "velocity": 0.71,
      "hand": "right"
    },
    {
      "midi": 37,
      "time": 203.25,
      "duration": 0.75,
      "velocity": 0.71,
      "hand": "left"
    },
    {
      "midi": 49,
      "time": 203.25,
      "duration": 0.75,
      "velocity": 0.71,
      "hand": "left"
    },
    {
      "midi": 68,
      "time": 203.25,
      "duration": 0.375,
      "velocity": 0.71,
      "hand": "right"
    },
    {
      "midi": 68,
      "time": 203.625,
      "duration": 0.375,
      "velocity": 0.71,
      "hand": "right"
    },
    {
      "midi": 32,
      "time": 204,
      "duration": 3,
      "velocity": 0.71,
      "hand": "left"
    },
    {
      "midi": 44,
      "time": 204,
      "duration": 3,
      "velocity": 0.71,
      "hand": "left"
    },
    {
      "midi": 63,
      "time": 204,
      "duration": 2.25,
      "velocity": 0.71,
      "hand": "right"
    },
    {
      "midi": 68,
      "time": 204,
      "duration": 0.375,
      "velocity": 0.71,
      "hand": "right"
    },
    {
      "midi": 73,
      "time": 204,
      "duration": 2.25,
      "velocity": 0.71,
      "hand": "right"
    },
    {
      "midi": 75,
      "time": 204,
      "duration": 2.25,
      "velocity": 0.71,
      "hand": "right"
    },
    {
      "midi": 68,
      "time": 204.375,
      "duration": 0.375,
      "velocity": 0.71,
      "hand": "right"
    },
    {
      "midi": 68,
      "time": 204.75,
      "duration": 0.375,
      "velocity": 0.71,
      "hand": "right"
    },
    {
      "midi": 68,
      "time": 205.125,
      "duration": 0.375,
      "velocity": 0.71,
      "hand": "right"
    },
    {
      "midi": 68,
      "time": 205.5,
      "duration": 0.375,
      "velocity": 0.71,
      "hand": "right"
    },
    {
      "midi": 68,
      "time": 205.875,
      "duration": 0.375,
      "velocity": 0.71,
      "hand": "right"
    },
    {
      "midi": 63,
      "time": 206.25,
      "duration": 0.75,
      "velocity": 0.71,
      "hand": "right"
    },
    {
      "midi": 68,
      "time": 206.25,
      "duration": 0.375,
      "velocity": 0.71,
      "hand": "right"
    },
    {
      "midi": 72,
      "time": 206.25,
      "duration": 0.75,
      "velocity": 0.71,
      "hand": "right"
    },
    {
      "midi": 75,
      "time": 206.25,
      "duration": 0.75,
      "velocity": 0.71,
      "hand": "right"
    },
    {
      "midi": 68,
      "time": 206.625,
      "duration": 0.375,
      "velocity": 0.71,
      "hand": "right"
    },
    {
      "midi": 37,
      "time": 207,
      "duration": 1.5,
      "velocity": 0.71,
      "hand": "left"
    },
    {
      "midi": 44,
      "time": 207,
      "duration": 1.5,
      "velocity": 0.71,
      "hand": "left"
    },
    {
      "midi": 64,
      "time": 207,
      "duration": 0.75,
      "velocity": 0.71,
      "hand": "right"
    },
    {
      "midi": 68,
      "time": 207,
      "duration": 0.375,
      "velocity": 0.71,
      "hand": "right"
    },
    {
      "midi": 75,
      "time": 207,
      "duration": 0.75,
      "velocity": 0.71,
      "hand": "right"
    },
    {
      "midi": 76,
      "time": 207,
      "duration": 0.75,
      "velocity": 0.71,
      "hand": "right"
    },
    {
      "midi": 68,
      "time": 207.375,
      "duration": 0.375,
      "velocity": 0.71,
      "hand": "right"
    },
    {
      "midi": 64,
      "time": 207.75,
      "duration": 0.75,
      "velocity": 0.71,
      "hand": "right"
    },
    {
      "midi": 68,
      "time": 207.75,
      "duration": 0.375,
      "velocity": 0.71,
      "hand": "right"
    },
    {
      "midi": 73,
      "time": 207.75,
      "duration": 0.75,
      "velocity": 0.71,
      "hand": "right"
    },
    {
      "midi": 76,
      "time": 207.75,
      "duration": 0.75,
      "velocity": 0.71,
      "hand": "right"
    },
    {
      "midi": 68,
      "time": 208.125,
      "duration": 0.375,
      "velocity": 0.71,
      "hand": "right"
    },
    {
      "midi": 44,
      "time": 208.5,
      "duration": 1.5,
      "velocity": 0.71,
      "hand": "left"
    },
    {
      "midi": 56,
      "time": 208.5,
      "duration": 1.5,
      "velocity": 0.71,
      "hand": "left"
    },
    {
      "midi": 63,
      "time": 208.5,
      "duration": 0.75,
      "velocity": 0.71,
      "hand": "right"
    },
    {
      "midi": 68,
      "time": 208.5,
      "duration": 0.375,
      "velocity": 0.71,
      "hand": "right"
    },
    {
      "midi": 73,
      "time": 208.5,
      "duration": 0.75,
      "velocity": 0.71,
      "hand": "right"
    },
    {
      "midi": 75,
      "time": 208.5,
      "duration": 0.75,
      "velocity": 0.71,
      "hand": "right"
    },
    {
      "midi": 68,
      "time": 208.875,
      "duration": 0.375,
      "velocity": 0.71,
      "hand": "right"
    },
    {
      "midi": 63,
      "time": 209.25,
      "duration": 0.75,
      "velocity": 0.71,
      "hand": "right"
    },
    {
      "midi": 68,
      "time": 209.25,
      "duration": 0.375,
      "velocity": 0.71,
      "hand": "right"
    },
    {
      "midi": 72,
      "time": 209.25,
      "duration": 0.75,
      "velocity": 0.71,
      "hand": "right"
    },
    {
      "midi": 75,
      "time": 209.25,
      "duration": 0.75,
      "velocity": 0.71,
      "hand": "right"
    },
    {
      "midi": 68,
      "time": 209.625,
      "duration": 0.375,
      "velocity": 0.71,
      "hand": "right"
    },
    {
      "midi": 41,
      "time": 210,
      "duration": 1.5,
      "velocity": 0.71,
      "hand": "left"
    },
    {
      "midi": 53,
      "time": 210,
      "duration": 1.5,
      "velocity": 0.71,
      "hand": "left"
    },
    {
      "midi": 61,
      "time": 210,
      "duration": 0.375,
      "velocity": 0.71,
      "hand": "right"
    },
    {
      "midi": 68,
      "time": 210,
      "duration": 1.5,
      "velocity": 0.71,
      "hand": "right"
    },
    {
      "midi": 71,
      "time": 210,
      "duration": 1.5,
      "velocity": 0.71,
      "hand": "right"
    },
    {
      "midi": 73,
      "time": 210,
      "duration": 1.5,
      "velocity": 0.71,
      "hand": "right"
    },
    {
      "midi": 61,
      "time": 210.375,
      "duration": 0.375,
      "velocity": 0.71,
      "hand": "right"
    },
    {
      "midi": 61,
      "time": 210.75,
      "duration": 0.375,
      "velocity": 0.71,
      "hand": "right"
    },
    {
      "midi": 61,
      "time": 211.125,
      "duration": 0.375,
      "velocity": 0.71,
      "hand": "right"
    },
    {
      "midi": 42,
      "time": 211.5,
      "duration": 1.5,
      "velocity": 0.71,
      "hand": "left"
    },
    {
      "midi": 54,
      "time": 211.5,
      "duration": 1.5,
      "velocity": 0.71,
      "hand": "left"
    },
    {
      "midi": 61,
      "time": 211.5,
      "duration": 0.375,
      "velocity": 0.71,
      "hand": "right"
    },
    {
      "midi": 68,
      "time": 211.5,
      "duration": 0.75,
      "velocity": 0.71,
      "hand": "right"
    },
    {
      "midi": 69,
      "time": 211.5,
      "duration": 0.75,
      "velocity": 0.71,
      "hand": "right"
    },
    {
      "midi": 73,
      "time": 211.5,
      "duration": 0.75,
      "velocity": 0.71,
      "hand": "right"
    },
    {
      "midi": 61,
      "time": 211.875,
      "duration": 0.375,
      "velocity": 0.71,
      "hand": "right"
    },
    {
      "midi": 61,
      "time": 212.25,
      "duration": 0.375,
      "velocity": 0.71,
      "hand": "right"
    },
    {
      "midi": 66,
      "time": 212.25,
      "duration": 0.75,
      "velocity": 0.71,
      "hand": "right"
    },
    {
      "midi": 69,
      "time": 212.25,
      "duration": 0.75,
      "velocity": 0.71,
      "hand": "right"
    },
    {
      "midi": 73,
      "time": 212.25,
      "duration": 0.75,
      "velocity": 0.71,
      "hand": "right"
    },
    {
      "midi": 61,
      "time": 212.625,
      "duration": 0.375,
      "velocity": 0.71,
      "hand": "right"
    },
    {
      "midi": 36,
      "time": 213,
      "duration": 1.5,
      "velocity": 0.71,
      "hand": "left"
    },
    {
      "midi": 48,
      "time": 213,
      "duration": 1.5,
      "velocity": 0.71,
      "hand": "left"
    },
    {
      "midi": 56,
      "time": 213,
      "duration": 0.375,
      "velocity": 0.71,
      "hand": "left"
    },
    {
      "midi": 63,
      "time": 213,
      "duration": 1.5,
      "velocity": 0.71,
      "hand": "right"
    },
    {
      "midi": 66,
      "time": 213,
      "duration": 1.5,
      "velocity": 0.71,
      "hand": "right"
    },
    {
      "midi": 68,
      "time": 213,
      "duration": 1.5,
      "velocity": 0.71,
      "hand": "right"
    },
    {
      "midi": 56,
      "time": 213.375,
      "duration": 0.375,
      "velocity": 0.71,
      "hand": "left"
    },
    {
      "midi": 56,
      "time": 213.75,
      "duration": 0.375,
      "velocity": 0.71,
      "hand": "left"
    },
    {
      "midi": 56,
      "time": 214.125,
      "duration": 0.375,
      "velocity": 0.71,
      "hand": "left"
    },
    {
      "midi": 37,
      "time": 214.5,
      "duration": 1.5,
      "velocity": 0.71,
      "hand": "left"
    },
    {
      "midi": 49,
      "time": 214.5,
      "duration": 1.5,
      "velocity": 0.71,
      "hand": "left"
    },
    {
      "midi": 56,
      "time": 214.5,
      "duration": 0.375,
      "velocity": 0.71,
      "hand": "left"
    },
    {
      "midi": 61,
      "time": 214.5,
      "duration": 0.75,
      "velocity": 0.71,
      "hand": "right"
    },
    {
      "midi": 66,
      "time": 214.5,
      "duration": 0.75,
      "velocity": 0.71,
      "hand": "right"
    },
    {
      "midi": 68,
      "time": 214.5,
      "duration": 0.75,
      "velocity": 0.71,
      "hand": "right"
    },
    {
      "midi": 56,
      "time": 214.875,
      "duration": 0.375,
      "velocity": 0.71,
      "hand": "left"
    },
    {
      "midi": 56,
      "time": 215.25,
      "duration": 0.375,
      "velocity": 0.71,
      "hand": "left"
    },
    {
      "midi": 61,
      "time": 215.25,
      "duration": 0.75,
      "velocity": 0.71,
      "hand": "right"
    },
    {
      "midi": 64,
      "time": 215.25,
      "duration": 0.75,
      "velocity": 0.71,
      "hand": "right"
    },
    {
      "midi": 70,
      "time": 215.25,
      "duration": 0.75,
      "velocity": 0.71,
      "hand": "right"
    },
    {
      "midi": 56,
      "time": 215.625,
      "duration": 0.375,
      "velocity": 0.71,
      "hand": "left"
    },
    {
      "midi": 32,
      "time": 216,
      "duration": 2.25,
      "velocity": 0.71,
      "hand": "left"
    },
    {
      "midi": 44,
      "time": 216,
      "duration": 2.25,
      "velocity": 0.71,
      "hand": "left"
    },
    {
      "midi": 56,
      "time": 216,
      "duration": 0.375,
      "velocity": 0.71,
      "hand": "left"
    },
    {
      "midi": 61,
      "time": 216,
      "duration": 1.5,
      "velocity": 0.71,
      "hand": "right"
    },
    {
      "midi": 64,
      "time": 216,
      "duration": 1.5,
      "velocity": 0.71,
      "hand": "right"
    },
    {
      "midi": 70,
      "time": 216,
      "duration": 1.5,
      "velocity": 0.71,
      "hand": "right"
    },
    {
      "midi": 56,
      "time": 216.375,
      "duration": 0.375,
      "velocity": 0.71,
      "hand": "left"
    },
    {
      "midi": 56,
      "time": 216.75,
      "duration": 0.375,
      "velocity": 0.71,
      "hand": "left"
    },
    {
      "midi": 56,
      "time": 217.125,
      "duration": 0.375,
      "velocity": 0.71,
      "hand": "left"
    },
    {
      "midi": 56,
      "time": 217.5,
      "duration": 0.375,
      "velocity": 0.71,
      "hand": "left"
    },
    {
      "midi": 60,
      "time": 217.5,
      "duration": 0.75,
      "velocity": 0.71,
      "hand": "right"
    },
    {
      "midi": 63,
      "time": 217.5,
      "duration": 0.75,
      "velocity": 0.71,
      "hand": "right"
    },
    {
      "midi": 68,
      "time": 217.5,
      "duration": 0.75,
      "velocity": 0.71,
      "hand": "right"
    },
    {
      "midi": 56,
      "time": 217.875,
      "duration": 0.375,
      "velocity": 0.71,
      "hand": "left"
    },
    {
      "midi": 37,
      "time": 218.25,
      "duration": 0.75,
      "velocity": 0.71,
      "hand": "left"
    },
    {
      "midi": 44,
      "time": 218.25,
      "duration": 0.75,
      "velocity": 0.71,
      "hand": "left"
    },
    {
      "midi": 56,
      "time": 218.25,
      "duration": 0.375,
      "velocity": 0.71,
      "hand": "left"
    },
    {
      "midi": 61,
      "time": 218.25,
      "duration": 0.75,
      "velocity": 0.71,
      "hand": "right"
    },
    {
      "midi": 64,
      "time": 218.25,
      "duration": 0.75,
      "velocity": 0.71,
      "hand": "right"
    },
    {
      "midi": 70,
      "time": 218.25,
      "duration": 0.75,
      "velocity": 0.71,
      "hand": "right"
    },
    {
      "midi": 56,
      "time": 218.625,
      "duration": 0.375,
      "velocity": 0.71,
      "hand": "left"
    },
    {
      "midi": 32,
      "time": 219,
      "duration": 2.25,
      "velocity": 0.71,
      "hand": "left"
    },
    {
      "midi": 44,
      "time": 219,
      "duration": 2.25,
      "velocity": 0.71,
      "hand": "left"
    },
    {
      "midi": 56,
      "time": 219,
      "duration": 0.375,
      "velocity": 0.71,
      "hand": "left"
    },
    {
      "midi": 61,
      "time": 219,
      "duration": 1.5,
      "velocity": 0.71,
      "hand": "right"
    },
    {
      "midi": 64,
      "time": 219,
      "duration": 1.5,
      "velocity": 0.71,
      "hand": "right"
    },
    {
      "midi": 70,
      "time": 219,
      "duration": 1.5,
      "velocity": 0.71,
      "hand": "right"
    },
    {
      "midi": 56,
      "time": 219.375,
      "duration": 0.375,
      "velocity": 0.71,
      "hand": "left"
    },
    {
      "midi": 56,
      "time": 219.75,
      "duration": 0.375,
      "velocity": 0.71,
      "hand": "left"
    },
    {
      "midi": 56,
      "time": 220.125,
      "duration": 0.375,
      "velocity": 0.71,
      "hand": "left"
    },
    {
      "midi": 56,
      "time": 220.5,
      "duration": 0.375,
      "velocity": 0.71,
      "hand": "left"
    },
    {
      "midi": 60,
      "time": 220.5,
      "duration": 0.75,
      "velocity": 0.71,
      "hand": "right"
    },
    {
      "midi": 63,
      "time": 220.5,
      "duration": 0.75,
      "velocity": 0.71,
      "hand": "right"
    },
    {
      "midi": 68,
      "time": 220.5,
      "duration": 0.75,
      "velocity": 0.71,
      "hand": "right"
    },
    {
      "midi": 56,
      "time": 220.875,
      "duration": 0.375,
      "velocity": 0.71,
      "hand": "left"
    },
    {
      "midi": 37,
      "time": 221.25,
      "duration": 0.75,
      "velocity": 0.71,
      "hand": "left"
    },
    {
      "midi": 44,
      "time": 221.25,
      "duration": 0.75,
      "velocity": 0.71,
      "hand": "left"
    },
    {
      "midi": 56,
      "time": 221.25,
      "duration": 0.375,
      "velocity": 0.71,
      "hand": "left"
    },
    {
      "midi": 61,
      "time": 221.25,
      "duration": 0.75,
      "velocity": 0.71,
      "hand": "right"
    },
    {
      "midi": 64,
      "time": 221.25,
      "duration": 0.75,
      "velocity": 0.71,
      "hand": "right"
    },
    {
      "midi": 70,
      "time": 221.25,
      "duration": 0.75,
      "velocity": 0.71,
      "hand": "right"
    },
    {
      "midi": 56,
      "time": 221.625,
      "duration": 0.375,
      "velocity": 0.71,
      "hand": "left"
    },
    {
      "midi": 32,
      "time": 222,
      "duration": 1.5,
      "velocity": 0.71,
      "hand": "left"
    },
    {
      "midi": 44,
      "time": 222,
      "duration": 0.75,
      "velocity": 0.71,
      "hand": "left"
    },
    {
      "midi": 56,
      "time": 222,
      "duration": 0.375,
      "velocity": 0.71,
      "hand": "left"
    },
    {
      "midi": 61,
      "time": 222,
      "duration": 0.75,
      "velocity": 0.71,
      "hand": "right"
    },
    {
      "midi": 64,
      "time": 222,
      "duration": 0.75,
      "velocity": 0.71,
      "hand": "right"
    },
    {
      "midi": 70,
      "time": 222,
      "duration": 0.75,
      "velocity": 0.71,
      "hand": "right"
    },
    {
      "midi": 56,
      "time": 222.375,
      "duration": 0.375,
      "velocity": 0.71,
      "hand": "left"
    },
    {
      "midi": 44,
      "time": 222.75,
      "duration": 0.75,
      "velocity": 0.71,
      "hand": "left"
    },
    {
      "midi": 56,
      "time": 222.75,
      "duration": 0.375,
      "velocity": 0.71,
      "hand": "left"
    },
    {
      "midi": 60,
      "time": 222.75,
      "duration": 0.75,
      "velocity": 0.71,
      "hand": "right"
    },
    {
      "midi": 63,
      "time": 222.75,
      "duration": 0.75,
      "velocity": 0.71,
      "hand": "right"
    },
    {
      "midi": 68,
      "time": 222.75,
      "duration": 0.75,
      "velocity": 0.71,
      "hand": "right"
    },
    {
      "midi": 56,
      "time": 223.125,
      "duration": 0.375,
      "velocity": 0.71,
      "hand": "left"
    },
    {
      "midi": 56,
      "time": 223.5,
      "duration": 0.375,
      "velocity": 0.71,
      "hand": "left"
    },
    {
      "midi": 53,
      "time": 223.875,
      "duration": 0.375,
      "velocity": 0.71,
      "hand": "left"
    },
    {
      "midi": 56,
      "time": 223.875,
      "duration": 0.375,
      "velocity": 0.71,
      "hand": "left"
    },
    {
      "midi": 54,
      "time": 224.25,
      "duration": 0.375,
      "velocity": 0.71,
      "hand": "left"
    },
    {
      "midi": 56,
      "time": 224.25,
      "duration": 0.375,
      "velocity": 0.71,
      "hand": "left"
    },
    {
      "midi": 51,
      "time": 224.625,
      "duration": 0.375,
      "velocity": 0.71,
      "hand": "left"
    },
    {
      "midi": 56,
      "time": 224.625,
      "duration": 0.375,
      "velocity": 0.71,
      "hand": "left"
    },
    {
      "midi": 49,
      "time": 225,
      "duration": 0.375,
      "velocity": 0.71,
      "hand": "left"
    },
    {
      "midi": 77,
      "time": 225,
      "duration": 0.563,
      "velocity": 0.71,
      "hand": "right"
    },
    {
      "midi": 56,
      "time": 225.375,
      "duration": 0.375,
      "velocity": 0.71,
      "hand": "left"
    },
    {
      "midi": 73,
      "time": 225.563,
      "duration": 0.188,
      "velocity": 0.71,
      "hand": "right"
    },
    {
      "midi": 61,
      "time": 225.75,
      "duration": 1.5,
      "velocity": 0.71,
      "hand": "right"
    },
    {
      "midi": 65,
      "time": 225.75,
      "duration": 1.5,
      "velocity": 0.71,
      "hand": "right"
    },
    {
      "midi": 68,
      "time": 225.75,
      "duration": 1.5,
      "velocity": 0.71,
      "hand": "right"
    },
    {
      "midi": 56,
      "time": 226.125,
      "duration": 0.375,
      "velocity": 0.71,
      "hand": "left"
    },
    {
      "midi": 56,
      "time": 226.5,
      "duration": 0.375,
      "velocity": 0.71,
      "hand": "left"
    },
    {
      "midi": 56,
      "time": 226.875,
      "duration": 0.375,
      "velocity": 0.71,
      "hand": "left"
    },
    {
      "midi": 56,
      "time": 227.25,
      "duration": 0.375,
      "velocity": 0.71,
      "hand": "left"
    },
    {
      "midi": 70,
      "time": 227.25,
      "duration": 0.75,
      "velocity": 0.71,
      "hand": "right"
    },
    {
      "midi": 56,
      "time": 227.625,
      "duration": 0.375,
      "velocity": 0.71,
      "hand": "left"
    },
    {
      "midi": 63,
      "time": 228,
      "duration": 2.25,
      "velocity": 0.71,
      "hand": "right"
    },
    {
      "midi": 66,
      "time": 228,
      "duration": 2.25,
      "velocity": 0.71,
      "hand": "right"
    },
    {
      "midi": 72,
      "time": 228,
      "duration": 2.25,
      "velocity": 0.71,
      "hand": "right"
    },
    {
      "midi": 56,
      "time": 228.375,
      "duration": 0.375,
      "velocity": 0.71,
      "hand": "left"
    },
    {
      "midi": 56,
      "time": 228.75,
      "duration": 0.375,
      "velocity": 0.71,
      "hand": "left"
    },
    {
      "midi": 56,
      "time": 229.125,
      "duration": 0.375,
      "velocity": 0.71,
      "hand": "left"
    },
    {
      "midi": 58,
      "time": 229.5,
      "duration": 0.375,
      "velocity": 0.71,
      "hand": "left"
    },
    {
      "midi": 56,
      "time": 229.875,
      "duration": 0.375,
      "velocity": 0.71,
      "hand": "left"
    },
    {
      "midi": 61,
      "time": 230.25,
      "duration": 0.375,
      "velocity": 0.71,
      "hand": "right"
    },
    {
      "midi": 65,
      "time": 230.25,
      "duration": 0.375,
      "velocity": 0.71,
      "hand": "right"
    },
    {
      "midi": 73,
      "time": 230.25,
      "duration": 0.75,
      "velocity": 0.71,
      "hand": "right"
    },
    {
      "midi": 56,
      "time": 230.625,
      "duration": 0.375,
      "velocity": 0.71,
      "hand": "left"
    },
    {
      "midi": 60,
      "time": 231,
      "duration": 2.25,
      "velocity": 0.71,
      "hand": "right"
    },
    {
      "midi": 66,
      "time": 231,
      "duration": 0.375,
      "velocity": 0.71,
      "hand": "right"
    },
    {
      "midi": 75,
      "time": 231,
      "duration": 0.563,
      "velocity": 0.71,
      "hand": "right"
    },
    {
      "midi": 56,
      "time": 231.375,
      "duration": 0.75,
      "velocity": 0.71,
      "hand": "left"
    },
    {
      "midi": 68,
      "time": 231.563,
      "duration": 0.188,
      "velocity": 0.71,
      "hand": "right"
    },
    {
      "midi": 77,
      "time": 231.563,
      "duration": 0.188,
      "velocity": 0.71,
      "hand": "right"
    },
    {
      "midi": 70,
      "time": 231.75,
      "duration": 1.5,
      "velocity": 0.71,
      "hand": "right"
    },
    {
      "midi": 78,
      "time": 231.75,
      "duration": 1.5,
      "velocity": 0.71,
      "hand": "right"
    },
    {
      "midi": 56,
      "time": 232.125,
      "duration": 0.375,
      "velocity": 0.71,
      "hand": "left"
    },
    {
      "midi": 56,
      "time": 232.5,
      "duration": 0.375,
      "velocity": 0.71,
      "hand": "left"
    },
    {
      "midi": 56,
      "time": 232.875,
      "duration": 0.75,
      "velocity": 0.71,
      "hand": "left"
    },
    {
      "midi": 61,
      "time": 233.25,
      "duration": 0.375,
      "velocity": 0.71,
      "hand": "right"
    },
    {
      "midi": 68,
      "time": 233.25,
      "duration": 0.375,
      "velocity": 0.71,
      "hand": "right"
    },
    {
      "midi": 77,
      "time": 233.25,
      "duration": 0.75,
      "velocity": 0.71,
      "hand": "right"
    },
    {
      "midi": 56,
      "time": 233.625,
      "duration": 0.375,
      "velocity": 0.71,
      "hand": "left"
    },
    {
      "midi": 60,
      "time": 234,
      "duration": 1.5,
      "velocity": 0.71,
      "hand": "right"
    },
    {
      "midi": 68,
      "time": 234,
      "duration": 0.375,
      "velocity": 0.71,
      "hand": "right"
    },
    {
      "midi": 77,
      "time": 234,
      "duration": 1.125,
      "velocity": 0.71,
      "hand": "right"
    },
    {
      "midi": 56,
      "time": 234.375,
      "duration": 0.375,
      "velocity": 0.71,
      "hand": "left"
    },
    {
      "midi": 66,
      "time": 234.75,
      "duration": 0.375,
      "velocity": 0.71,
      "hand": "right"
    },
    {
      "midi": 56,
      "time": 235.125,
      "duration": 0.375,
      "velocity": 0.71,
      "hand": "left"
    },
    {
      "midi": 75,
      "time": 235.125,
      "duration": 0.375,
      "velocity": 0.71,
      "hand": "right"
    },
    {
      "midi": 61,
      "time": 235.5,
      "duration": 0.375,
      "velocity": 0.71,
      "hand": "right"
    },
    {
      "midi": 65,
      "time": 235.5,
      "duration": 0.375,
      "velocity": 0.71,
      "hand": "right"
    },
    {
      "midi": 73,
      "time": 235.5,
      "duration": 0.563,
      "velocity": 0.71,
      "hand": "right"
    },
    {
      "midi": 56,
      "time": 235.875,
      "duration": 0.375,
      "velocity": 0.71,
      "hand": "left"
    },
    {
      "midi": 74,
      "time": 236.063,
      "duration": 0.188,
      "velocity": 0.71,
      "hand": "right"
    },
    {
      "midi": 60,
      "time": 236.25,
      "duration": 0.375,
      "velocity": 0.71,
      "hand": "right"
    },
    {
      "midi": 66,
      "time": 236.25,
      "duration": 0.375,
      "velocity": 0.71,
      "hand": "right"
    },
    {
      "midi": 75,
      "time": 236.25,
      "duration": 0.094,
      "velocity": 0.71,
      "hand": "right"
    },
    {
      "midi": 77,
      "time": 236.25,
      "duration": 0.094,
      "velocity": 0.71,
      "hand": "right"
    },
    {
      "midi": 74,
      "time": 236.438,
      "duration": 0.094,
      "velocity": 0.71,
      "hand": "right"
    },
    {
      "midi": 75,
      "time": 236.438,
      "duration": 0.094,
      "velocity": 0.71,
      "hand": "right"
    },
    {
      "midi": 56,
      "time": 236.625,
      "duration": 0.375,
      "velocity": 0.71,
      "hand": "left"
    },
    {
      "midi": 75,
      "time": 236.625,
      "duration": 0.094,
      "velocity": 0.71,
      "hand": "right"
    },
    {
      "midi": 76,
      "time": 236.625,
      "duration": 0.094,
      "velocity": 0.71,
      "hand": "right"
    },
    {
      "midi": 77,
      "time": 236.625,
      "duration": 0.094,
      "velocity": 0.71,
      "hand": "right"
    },
    {
      "midi": 79,
      "time": 236.813,
      "duration": 0.094,
      "velocity": 0.71,
      "hand": "right"
    },
    {
      "midi": 80,
      "time": 236.813,
      "duration": 0.094,
      "velocity": 0.71,
      "hand": "right"
    },
    {
      "midi": 49,
      "time": 237,
      "duration": 0.375,
      "velocity": 0.71,
      "hand": "left"
    },
    {
      "midi": 77,
      "time": 237,
      "duration": 0.563,
      "velocity": 0.71,
      "hand": "right"
    },
    {
      "midi": 78,
      "time": 237,
      "duration": 0.094,
      "velocity": 0.71,
      "hand": "right"
    },
    {
      "midi": 56,
      "time": 237.375,
      "duration": 0.375,
      "velocity": 0.71,
      "hand": "left"
    },
    {
      "midi": 73,
      "time": 237.563,
      "duration": 0.188,
      "velocity": 0.71,
      "hand": "right"
    },
    {
      "midi": 61,
      "time": 237.75,
      "duration": 1.5,
      "velocity": 0.71,
      "hand": "right"
    },
    {
      "midi": 65,
      "time": 237.75,
      "duration": 1.5,
      "velocity": 0.71,
      "hand": "right"
    },
    {
      "midi": 68,
      "time": 237.75,
      "duration": 1.5,
      "velocity": 0.71,
      "hand": "right"
    },
    {
      "midi": 56,
      "time": 238.125,
      "duration": 0.375,
      "velocity": 0.71,
      "hand": "left"
    },
    {
      "midi": 56,
      "time": 238.5,
      "duration": 0.375,
      "velocity": 0.71,
      "hand": "left"
    },
    {
      "midi": 56,
      "time": 238.875,
      "duration": 0.375,
      "velocity": 0.71,
      "hand": "left"
    },
    {
      "midi": 56,
      "time": 239.25,
      "duration": 0.375,
      "velocity": 0.71,
      "hand": "left"
    },
    {
      "midi": 70,
      "time": 239.25,
      "duration": 0.75,
      "velocity": 0.71,
      "hand": "right"
    },
    {
      "midi": 56,
      "time": 239.625,
      "duration": 0.375,
      "velocity": 0.71,
      "hand": "left"
    },
    {
      "midi": 63,
      "time": 240,
      "duration": 0.375,
      "velocity": 0.71,
      "hand": "right"
    },
    {
      "midi": 66,
      "time": 240,
      "duration": 0.375,
      "velocity": 0.71,
      "hand": "right"
    },
    {
      "midi": 72,
      "time": 240,
      "duration": 0.75,
      "velocity": 0.71,
      "hand": "right"
    },
    {
      "midi": 56,
      "time": 240.375,
      "duration": 0.375,
      "velocity": 0.71,
      "hand": "left"
    },
    {
      "midi": 56,
      "time": 240.75,
      "duration": 0.375,
      "velocity": 0.71,
      "hand": "left"
    },
    {
      "midi": 56,
      "time": 241.125,
      "duration": 0.375,
      "velocity": 0.71,
      "hand": "left"
    },
    {
      "midi": 58,
      "time": 241.5,
      "duration": 0.375,
      "velocity": 0.71,
      "hand": "left"
    },
    {
      "midi": 56,
      "time": 241.875,
      "duration": 0.375,
      "velocity": 0.71,
      "hand": "left"
    },
    {
      "midi": 82,
      "time": 242.25,
      "duration": 1.5,
      "velocity": 0.71,
      "hand": "right"
    },
    {
      "midi": 80,
      "time": 243.75,
      "duration": 0.75,
      "velocity": 0.71,
      "hand": "right"
    },
    {
      "midi": 78,
      "time": 244.5,
      "duration": 0.75,
      "velocity": 0.71,
      "hand": "right"
    },
    {
      "midi": 72,
      "time": 245.25,
      "duration": 0.75,
      "velocity": 0.71,
      "hand": "right"
    },
    {
      "midi": 77,
      "time": 246,
      "duration": 0.75,
      "velocity": 0.71,
      "hand": "right"
    },
    {
      "midi": 75,
      "time": 246.75,
      "duration": 0.75,
      "velocity": 0.71,
      "hand": "right"
    },
    {
      "midi": 73,
      "time": 247.5,
      "duration": 0.75,
      "velocity": 0.71,
      "hand": "right"
    },
    {
      "midi": 70,
      "time": 248.25,
      "duration": 0.75,
      "velocity": 0.71,
      "hand": "right"
    },
    {
      "midi": 44,
      "time": 249,
      "duration": 3,
      "velocity": 0.71,
      "hand": "left"
    },
    {
      "midi": 58,
      "time": 249,
      "duration": 1.5,
      "velocity": 0.71,
      "hand": "left"
    },
    {
      "midi": 63,
      "time": 249,
      "duration": 3,
      "velocity": 0.71,
      "hand": "right"
    },
    {
      "midi": 66,
      "time": 249,
      "duration": 3,
      "velocity": 0.71,
      "hand": "right"
    },
    {
      "midi": 56,
      "time": 249.375,
      "duration": 0.375,
      "velocity": 0.71,
      "hand": "left"
    },
    {
      "midi": 56,
      "time": 249.75,
      "duration": 0.375,
      "velocity": 0.71,
      "hand": "left"
    },
    {
      "midi": 56,
      "time": 250.125,
      "duration": 0.375,
      "velocity": 0.71,
      "hand": "left"
    },
    {
      "midi": 56,
      "time": 250.5,
      "duration": 0.375,
      "velocity": 0.71,
      "hand": "left"
    },
    {
      "midi": 60,
      "time": 250.5,
      "duration": 1.5,
      "velocity": 0.71,
      "hand": "right"
    },
    {
      "midi": 56,
      "time": 250.875,
      "duration": 0.375,
      "velocity": 0.71,
      "hand": "left"
    },
    {
      "midi": 56,
      "time": 251.25,
      "duration": 0.375,
      "velocity": 0.71,
      "hand": "left"
    },
    {
      "midi": 56,
      "time": 251.625,
      "duration": 0.375,
      "velocity": 0.71,
      "hand": "left"
    },
    {
      "midi": 49,
      "time": 252,
      "duration": 3,
      "velocity": 0.71,
      "hand": "left"
    },
    {
      "midi": 56,
      "time": 252,
      "duration": 0.375,
      "velocity": 0.71,
      "hand": "left"
    },
    {
      "midi": 61,
      "time": 252,
      "duration": 1.875,
      "velocity": 0.71,
      "hand": "right"
    },
    {
      "midi": 65,
      "time": 252,
      "duration": 3,
      "velocity": 0.71,
      "hand": "right"
    },
    {
      "midi": 56,
      "time": 252.375,
      "duration": 0.375,
      "velocity": 0.71,
      "hand": "left"
    },
    {
      "midi": 56,
      "time": 252.75,
      "duration": 0.375,
      "velocity": 0.71,
      "hand": "left"
    },
    {
      "midi": 56,
      "time": 253.125,
      "duration": 0.375,
      "velocity": 0.71,
      "hand": "left"
    },
    {
      "midi": 56,
      "time": 253.5,
      "duration": 0.375,
      "velocity": 0.71,
      "hand": "left"
    },
    {
      "midi": 56,
      "time": 253.875,
      "duration": 0.375,
      "velocity": 0.71,
      "hand": "left"
    },
    {
      "midi": 61,
      "time": 253.875,
      "duration": 0.375,
      "velocity": 0.71,
      "hand": "right"
    },
    {
      "midi": 56,
      "time": 254.25,
      "duration": 0.375,
      "velocity": 0.71,
      "hand": "left"
    },
    {
      "midi": 63,
      "time": 254.25,
      "duration": 0.563,
      "velocity": 0.71,
      "hand": "right"
    },
    {
      "midi": 56,
      "time": 254.625,
      "duration": 0.375,
      "velocity": 0.71,
      "hand": "left"
    },
    {
      "midi": 61,
      "time": 254.813,
      "duration": 0.188,
      "velocity": 0.71,
      "hand": "right"
    },
    {
      "midi": 44,
      "time": 255,
      "duration": 3,
      "velocity": 0.71,
      "hand": "left"
    },
    {
      "midi": 56,
      "time": 255,
      "duration": 0.375,
      "velocity": 0.71,
      "hand": "left"
    },
    {
      "midi": 61,
      "time": 255,
      "duration": 0.75,
      "velocity": 0.71,
      "hand": "right"
    },
    {
      "midi": 63,
      "time": 255,
      "duration": 3,
      "velocity": 0.71,
      "hand": "right"
    },
    {
      "midi": 66,
      "time": 255,
      "duration": 3,
      "velocity": 0.71,
      "hand": "right"
    },
    {
      "midi": 56,
      "time": 255.375,
      "duration": 0.375,
      "velocity": 0.71,
      "hand": "left"
    },
    {
      "midi": 56,
      "time": 255.75,
      "duration": 0.375,
      "velocity": 0.71,
      "hand": "left"
    },
    {
      "midi": 60,
      "time": 255.75,
      "duration": 0.75,
      "velocity": 0.71,
      "hand": "right"
    },
    {
      "midi": 56,
      "time": 256.125,
      "duration": 0.375,
      "velocity": 0.71,
      "hand": "left"
    },
    {
      "midi": 56,
      "time": 256.5,
      "duration": 0.375,
      "velocity": 0.71,
      "hand": "left"
    },
    {
      "midi": 70,
      "time": 256.5,
      "duration": 0.75,
      "velocity": 0.71,
      "hand": "right"
    },
    {
      "midi": 56,
      "time": 256.875,
      "duration": 0.375,
      "velocity": 0.71,
      "hand": "left"
    },
    {
      "midi": 56,
      "time": 257.25,
      "duration": 0.375,
      "velocity": 0.71,
      "hand": "left"
    },
    {
      "midi": 60,
      "time": 257.25,
      "duration": 0.75,
      "velocity": 0.71,
      "hand": "right"
    },
    {
      "midi": 56,
      "time": 257.625,
      "duration": 0.375,
      "velocity": 0.71,
      "hand": "left"
    },
    {
      "midi": 44,
      "time": 258,
      "duration": 3,
      "velocity": 0.71,
      "hand": "left"
    },
    {
      "midi": 56,
      "time": 258,
      "duration": 0.375,
      "velocity": 0.71,
      "hand": "left"
    },
    {
      "midi": 60,
      "time": 258,
      "duration": 3,
      "velocity": 0.71,
      "hand": "right"
    },
    {
      "midi": 63,
      "time": 258,
      "duration": 3,
      "velocity": 0.71,
      "hand": "right"
    },
    {
      "midi": 66,
      "time": 258,
      "duration": 3,
      "velocity": 0.71,
      "hand": "right"
    },
    {
      "midi": 56,
      "time": 258.375,
      "duration": 0.375,
      "velocity": 0.71,
      "hand": "left"
    },
    {
      "midi": 56,
      "time": 258.75,
      "duration": 0.375,
      "velocity": 0.71,
      "hand": "left"
    },
    {
      "midi": 56,
      "time": 259.125,
      "duration": 0.375,
      "velocity": 0.71,
      "hand": "left"
    },
    {
      "midi": 56,
      "time": 259.5,
      "duration": 0.375,
      "velocity": 0.71,
      "hand": "left"
    },
    {
      "midi": 56,
      "time": 259.875,
      "duration": 0.375,
      "velocity": 0.71,
      "hand": "left"
    },
    {
      "midi": 56,
      "time": 260.25,
      "duration": 0.375,
      "velocity": 0.71,
      "hand": "left"
    },
    {
      "midi": 56,
      "time": 260.625,
      "duration": 0.375,
      "velocity": 0.71,
      "hand": "left"
    },
    {
      "midi": 49,
      "time": 261,
      "duration": 1.5,
      "velocity": 0.71,
      "hand": "left"
    },
    {
      "midi": 56,
      "time": 261,
      "duration": 0.375,
      "velocity": 0.71,
      "hand": "left"
    },
    {
      "midi": 61,
      "time": 261,
      "duration": 3,
      "velocity": 0.71,
      "hand": "right"
    },
    {
      "midi": 65,
      "time": 261,
      "duration": 3,
      "velocity": 0.71,
      "hand": "right"
    },
    {
      "midi": 56,
      "time": 261.375,
      "duration": 0.375,
      "velocity": 0.71,
      "hand": "left"
    },
    {
      "midi": 56,
      "time": 261.75,
      "duration": 0.375,
      "velocity": 0.71,
      "hand": "left"
    },
    {
      "midi": 56,
      "time": 262.125,
      "duration": 0.375,
      "velocity": 0.71,
      "hand": "left"
    },
    {
      "midi": 44,
      "time": 262.5,
      "duration": 1.5,
      "velocity": 0.71,
      "hand": "left"
    },
    {
      "midi": 56,
      "time": 262.5,
      "duration": 0.375,
      "velocity": 0.71,
      "hand": "left"
    },
    {
      "midi": 56,
      "time": 262.875,
      "duration": 0.375,
      "velocity": 0.71,
      "hand": "left"
    },
    {
      "midi": 56,
      "time": 263.25,
      "duration": 0.375,
      "velocity": 0.71,
      "hand": "left"
    },
    {
      "midi": 56,
      "time": 263.625,
      "duration": 0.375,
      "velocity": 0.71,
      "hand": "left"
    },
    {
      "midi": 37,
      "time": 264,
      "duration": 3,
      "velocity": 0.71,
      "hand": "left"
    },
    {
      "midi": 56,
      "time": 264,
      "duration": 3,
      "velocity": 0.71,
      "hand": "left"
    },
    {
      "midi": 61,
      "time": 264,
      "duration": 3,
      "velocity": 0.71,
      "hand": "right"
    },
    {
      "midi": 65,
      "time": 264,
      "duration": 3,
      "velocity": 0.71,
      "hand": "right"
    }
  ]
}
