{
  "id": "preludio-chopin",
  "title": "Prelúdio de Chopin",
  "artist": "Frédéric Chopin",
  "difficulty": "Difícil",
  "bpm": 120,
  "duration": 198,
  "category": "Clássicos",
  "isPremium": true,
  "coverUrl": "/images/covers/placeholder.png",
  "notes": [
    {
      "midi": 64,
      "time": 0.5,
      "duration": 0.5,
      "velocity": 0.71,
      "hand": "right"
    },
    {
      "midi": 68,
      "time": 0.5,
      "duration": 0.5,
      "velocity": 0.71,
      "hand": "right"
    },
    {
      "midi": 73,
      "time": 0.5,
      "duration": 0.5,
      "velocity": 0.71,
      "hand": "right"
    },
    {
      "midi": 62,
      "time": 1,
      "duration": 0.5,
      "velocity": 0.71,
      "hand": "right"
    },
    {
      "midi": 66,
      "time": 1,
      "duration": 0.5,
      "velocity": 0.71,
      "hand": "right"
    },
    {
      "midi": 71,
      "time": 1,
      "duration": 0.5,
      "velocity": 0.71,
      "hand": "right"
    },
    {
      "midi": 61,
      "time": 1.5,
      "duration": 0.5,
      "velocity": 0.71,
      "hand": "right"
    },
    {
      "midi": 64,
      "time": 1.5,
      "duration": 0.5,
      "velocity": 0.71,
      "hand": "right"
    },
    {
      "midi": 69,
      "time": 1.5,
      "duration": 0.5,
      "velocity": 0.71,
      "hand": "right"
    },
    {
      "midi": 60,
      "time": 2,
      "duration": 0.5,
      "velocity": 0.71,
      "hand": "right"
    },
    {
      "midi": 63,
      "time": 2,
      "duration": 0.5,
      "velocity": 0.71,
      "hand": "right"
    },
    {
      "midi": 68,
      "time": 2,
      "duration": 0.5,
      "velocity": 0.71,
      "hand": "right"
    },
    {
      "midi": 61,
      "time": 2.5,
      "duration": 0.5,
      "velocity": 0.71,
      "hand": "right"
    },
    {
      "midi": 64,
      "time": 2.5,
      "duration": 0.5,
      "velocity": 0.71,
      "hand": "right"
    },
    {
      "midi": 69,
      "time": 2.5,
      "duration": 0.5,
      "velocity": 0.71,
      "hand": "right"
    },
    {
      "midi": 71,
      "time": 2.5,
      "duration": 0.063,
      "velocity": 0.71,
      "hand": "right"
    },
    {
      "midi": 59,
      "time": 3,
      "duration": 0.5,
      "velocity": 0.71,
      "hand": "left"
    },
    {
      "midi": 62,
      "time": 3,
      "duration": 0.5,
      "velocity": 0.71,
      "hand": "right"
    },
    {
      "midi": 67,
      "time": 3,
      "duration": 0.5,
      "velocity": 0.71,
      "hand": "right"
    },
    {
      "midi": 57,
      "time": 3.5,
      "duration": 0.5,
      "velocity": 0.71,
      "hand": "left"
    },
    {
      "midi": 61,
      "time": 3.5,
      "duration": 0.5,
      "velocity": 0.71,
      "hand": "right"
    },
    {
      "midi": 66,
      "time": 3.5,
      "duration": 0.5,
      "velocity": 0.71,
      "hand": "right"
    },
    {
      "midi": 56,
      "time": 4,
      "duration": 0.5,
      "velocity": 0.71,
      "hand": "left"
    },
    {
      "midi": 59,
      "time": 4,
      "duration": 0.5,
      "velocity": 0.71,
      "hand": "left"
    },
    {
      "midi": 65,
      "time": 4,
      "duration": 0.5,
      "velocity": 0.71,
      "hand": "right"
    },
    {
      "midi": 57,
      "time": 4.5,
      "duration": 0.5,
      "velocity": 0.71,
      "hand": "left"
    },
    {
      "midi": 61,
      "time": 4.5,
      "duration": 0.5,
      "velocity": 0.71,
      "hand": "right"
    },
    {
      "midi": 66,
      "time": 4.5,
      "duration": 0.5,
      "velocity": 0.71,
      "hand": "right"
    },
    {
      "midi": 56,
      "time": 5,
      "duration": 0.5,
      "velocity": 0.71,
      "hand": "left"
    },
    {
      "midi": 59,
      "time": 5,
      "duration": 0.5,
      "velocity": 0.71,
      "hand": "left"
    },
    {
      "midi": 64,
      "time": 5,
      "duration": 0.5,
      "velocity": 0.71,
      "hand": "right"
    },
    {
      "midi": 54,
      "time": 5.5,
      "duration": 0.5,
      "velocity": 0.71,
      "hand": "left"
    },
    {
      "midi": 57,
      "time": 5.5,
      "duration": 1,
      "velocity": 0.71,
      "hand": "left"
    },
    {
      "midi": 62,
      "time": 5.5,
      "duration": 0.5,
      "velocity": 0.71,
      "hand": "right"
    },
    {
      "midi": 52,
      "time": 6,
      "duration": 1,
      "velocity": 0.71,
      "hand": "left"
    },
    {
      "midi": 61,
      "time": 6,
      "duration": 1.5,
      "velocity": 0.71,
      "hand": "right"
    },
    {
      "midi": 56,
      "time": 6.5,
      "duration": 1.5,
      "velocity": 0.71,
      "hand": "left"
    },
    {
      "midi": 51,
      "time": 7,
      "duration": 1,
      "velocity": 0.71,
      "hand": "left"
    },
    {
      "midi": 32,
      "time": 7.5,
      "duration": 0.5,
      "velocity": 0.71,
      "hand": "left"
    },
    {
      "midi": 60,
      "time": 7.5,
      "duration": 0.5,
      "velocity": 0.71,
      "hand": "right"
    },
    {
      "midi": 25,
      "time": 8,
      "duration": 0.25,
      "velocity": 0.71,
      "hand": "left"
    },
    {
      "midi": 52,
      "time": 8,
      "duration": 0.75,
      "velocity": 0.71,
      "hand": "left"
    },
    {
      "midi": 56,
      "time": 8,
      "duration": 1,
      "velocity": 0.71,
      "hand": "left"
    },
    {
      "midi": 63,
      "time": 8,
      "duration": 0.75,
      "velocity": 0.71,
      "hand": "right"
    },
    {
      "midi": 37,
      "time": 8.25,
      "duration": 0.25,
      "velocity": 0.71,
      "hand": "left"
    },
    {
      "midi": 44,
      "time": 8.5,
      "duration": 0.25,
      "velocity": 0.71,
      "hand": "left"
    },
    {
      "midi": 52,
      "time": 8.75,
      "duration": 0.25,
      "velocity": 0.71,
      "hand": "left"
    },
    {
      "midi": 61,
      "time": 8.75,
      "duration": 0.25,
      "velocity": 0.71,
      "hand": "right"
    },
    {
      "midi": 51,
      "time": 9,
      "duration": 0.25,
      "velocity": 0.71,
      "hand": "left"
    },
    {
      "midi": 49,
      "time": 9.25,
      "duration": 0.25,
      "velocity": 0.71,
      "hand": "left"
    },
    {
      "midi": 56,
      "time": 9.5,
      "duration": 0.25,
      "velocity": 0.71,
      "hand": "left"
    },
    {
      "midi": 64,
      "time": 9.75,
      "duration": 0.25,
      "velocity": 0.71,
      "hand": "right"
    },
    {
      "midi": 63,
      "time": 10,
      "duration": 0.25,
      "velocity": 0.71,
      "hand": "right"
    },
    {
      "midi": 61,
      "time": 10.25,
      "duration": 0.25,
      "velocity": 0.71,
      "hand": "right"
    },
    {
      "midi": 64,
      "time": 10.5,
      "duration": 0.25,
      "velocity": 0.71,
      "hand": "right"
    },
    {
      "midi": 66,
      "time": 10.75,
      "duration": 0.25,
      "velocity": 0.71,
      "hand": "right"
    },
    {
      "midi": 68,
      "time": 11,
      "duration": 1,
      "velocity": 0.71,
      "hand": "right"
    },
    {
      "midi": 80,
      "time": 11,
      "duration": 1,
      "velocity": 0.71,
      "hand": "right"
    },
    {
      "midi": 73,
      "time": 11.25,
      "duration": 0.25,
      "velocity": 0.71,
      "hand": "right"
    },
    {
      "midi": 75,
      "time": 11.5,
      "duration": 0.25,
      "velocity": 0.71,
      "hand": "right"
    },
    {
      "midi": 76,
      "time": 11.75,
      "duration": 0.25,
      "velocity": 0.71,
      "hand": "right"
    },
    {
      "midi": 78,
      "time": 11.75,
      "duration": 0.063,
      "velocity": 0.71,
      "hand": "right"
    },
    {
      "midi": 68,
      "time": 12,
      "duration": 2,
      "velocity": 0.71,
      "hand": "right"
    },
    {
      "midi": 75,
      "time": 12,
      "duration": 1.75,
      "velocity": 0.71,
      "hand": "right"
    },
    {
      "midi": 80,
      "time": 12,
      "duration": 2,
      "velocity": 0.71,
      "hand": "right"
    },
    {
      "midi": 37,
      "time": 12.25,
      "duration": 0.25,
      "velocity": 0.71,
      "hand": "left"
    },
    {
      "midi": 44,
      "time": 12.5,
      "duration": 0.25,
      "velocity": 0.71,
      "hand": "left"
    },
    {
      "midi": 52,
      "time": 12.75,
      "duration": 0.25,
      "velocity": 0.71,
      "hand": "left"
    },
    {
      "midi": 51,
      "time": 13,
      "duration": 0.25,
      "velocity": 0.71,
      "hand": "left"
    },
    {
      "midi": 49,
      "time": 13.25,
      "duration": 0.25,
      "velocity": 0.71,
      "hand": "left"
    },
    {
      "midi": 56,
      "time": 13.5,
      "duration": 0.25,
      "velocity": 0.71,
      "hand": "left"
    },
    {
      "midi": 64,
      "time": 13.75,
      "duration": 0.25,
      "velocity": 0.71,
      "hand": "right"
    },
    {
      "midi": 73,
      "time": 13.75,
      "duration": 0.25,
      "velocity": 0.71,
      "hand": "right"
    },
    {
      "midi": 63,
      "time": 14,
      "duration": 0.25,
      "velocity": 0.71,
      "hand": "right"
    },
    {
      "midi": 61,
      "time": 14.25,
      "duration": 0.25,
      "velocity": 0.71,
      "hand": "right"
    },
    {
      "midi": 64,
      "time": 14.5,
      "duration": 0.25,
      "velocity": 0.71,
      "hand": "right"
    },
    {
      "midi": 66,
      "time": 14.75,
      "duration": 0.25,
      "velocity": 0.71,
      "hand": "right"
    },
    {
      "midi": 68,
      "time": 15,
      "duration": 0.75,
      "velocity": 0.71,
      "hand": "right"
    },
    {
      "midi": 80,
      "time": 15,
      "duration": 0.75,
      "velocity": 0.71,
      "hand": "right"
    },
    {
      "midi": 73,
      "time": 15.25,
      "duration": 0.25,
      "velocity": 0.71,
      "hand": "right"
    },
    {
      "midi": 76,
      "time": 15.5,
      "duration": 0.5,
      "velocity": 0.71,
      "hand": "right"
    },
    {
      "midi": 42,
      "time": 15.75,
      "duration": 0.5,
      "velocity": 0.71,
      "hand": "left"
    },
    {
      "midi": 70,
      "time": 15.75,
      "duration": 0.25,
      "velocity": 0.71,
      "hand": "right"
    },
    {
      "midi": 82,
      "time": 15.75,
      "duration": 0.25,
      "velocity": 0.71,
      "hand": "right"
    },
    {
      "midi": 70,
      "time": 16,
      "duration": 0.063,
      "velocity": 0.71,
      "hand": "right"
    },
    {
      "midi": 70,
      "time": 16,
      "duration": 0.75,
      "velocity": 0.71,
      "hand": "right"
    },
    {
      "midi": 76,
      "time": 16,
      "duration": 0.75,
      "velocity": 0.71,
      "hand": "right"
    },
    {
      "midi": 85,
      "time": 16,
      "duration": 0.75,
      "velocity": 0.71,
      "hand": "right"
    },
    {
      "midi": 35,
      "time": 16.25,
      "duration": 0.25,
      "velocity": 0.71,
      "hand": "left"
    },
    {
      "midi": 42,
      "time": 16.5,
      "duration": 0.25,
      "velocity": 0.71,
      "hand": "left"
    },
    {
      "midi": 51,
      "time": 16.75,
      "duration": 0.25,
      "velocity": 0.71,
      "hand": "left"
    },
    {
      "midi": 71,
      "time": 16.75,
      "duration": 0.25,
      "velocity": 0.71,
      "hand": "right"
    },
    {
      "midi": 75,
      "time": 16.75,
      "duration": 0.25,
      "velocity": 0.71,
      "hand": "right"
    },
    {
      "midi": 83,
      "time": 16.75,
      "duration": 0.25,
      "velocity": 0.71,
      "hand": "right"
    },
    {
      "midi": 49,
      "time": 17,
      "duration": 0.25,
      "velocity": 0.71,
      "hand": "left"
    },
    {
      "midi": 47,
      "time": 17.25,
      "duration": 0.25,
      "velocity": 0.71,
      "hand": "left"
    },
    {
      "midi": 54,
      "time": 17.5,
      "duration": 0.25,
      "velocity": 0.71,
      "hand": "left"
    },
    {
      "midi": 63,
      "time": 17.75,
      "duration": 0.25,
      "velocity": 0.71,
      "hand": "right"
    },
    {
      "midi": 61,
      "time": 18,
      "duration": 0.25,
      "velocity": 0.71,
      "hand": "right"
    },
    {
      "midi": 59,
      "time": 18.25,
      "duration": 0.25,
      "velocity": 0.71,
      "hand": "left"
    },
    {
      "midi": 63,
      "time": 18.5,
      "duration": 0.25,
      "velocity": 0.71,
      "hand": "right"
    },
    {
      "midi": 64,
      "time": 18.75,
      "duration": 0.25,
      "velocity": 0.71,
      "hand": "right"
    },
    {
      "midi": 66,
      "time": 19,
      "duration": 1,
      "velocity": 0.71,
      "hand": "right"
    },
    {
      "midi": 78,
      "time": 19,
      "duration": 1,
      "velocity": 0.71,
      "hand": "right"
    },
    {
      "midi": 71,
      "time": 19.25,
      "duration": 0.25,
      "velocity": 0.71,
      "hand": "right"
    },
    {
      "midi": 73,
      "time": 19.5,
      "duration": 0.25,
      "velocity": 0.71,
      "hand": "right"
    },
    {
      "midi": 74,
      "time": 19.75,
      "duration": 0.25,
      "velocity": 0.71,
      "hand": "right"
    },
    {
      "midi": 76,
      "time": 19.75,
      "duration": 0.063,
      "velocity": 0.71,
      "hand": "right"
    },
    {
      "midi": 66,
      "time": 20,
      "duration": 2,
      "velocity": 0.71,
      "hand": "right"
    },
    {
      "midi": 73,
      "time": 20,
      "duration": 1.75,
      "velocity": 0.71,
      "hand": "right"
    },
    {
      "midi": 78,
      "time": 20,
      "duration": 2,
      "velocity": 0.71,
      "hand": "right"
    },
    {
      "midi": 35,
      "time": 20.25,
      "duration": 0.25,
      "velocity": 0.71,
      "hand": "left"
    },
    {
      "midi": 42,
      "time": 20.5,
      "duration": 0.25,
      "velocity": 0.71,
      "hand": "left"
    },
    {
      "midi": 50,
      "time": 20.75,
      "duration": 0.25,
      "velocity": 0.71,
      "hand": "left"
    },
    {
      "midi": 49,
      "time": 21,
      "duration": 0.25,
      "velocity": 0.71,
      "hand": "left"
    },
    {
      "midi": 47,
      "time": 21.25,
      "duration": 0.25,
      "velocity": 0.71,
      "hand": "left"
    },
    {
      "midi": 54,
      "time": 21.5,
      "duration": 0.25,
      "velocity": 0.71,
      "hand": "left"
    },
    {
      "midi": 62,
      "time": 21.75,
      "duration": 0.25,
      "velocity": 0.71,
      "hand": "right"
    },
    {
      "midi": 71,
      "time": 21.75,
      "duration": 0.25,
      "velocity": 0.71,
      "hand": "right"
    },
    {
      "midi": 61,
      "time": 22,
      "duration": 0.25,
      "velocity": 0.71,
      "hand": "right"
    },
    {
      "midi": 59,
      "time": 22.25,
      "duration": 0.25,
      "velocity": 0.71,
      "hand": "left"
    },
    {
      "midi": 62,
      "time": 22.5,
      "duration": 0.25,
      "velocity": 0.71,
      "hand": "right"
    },
    {
      "midi": 64,
      "time": 22.75,
      "duration": 0.25,
      "velocity": 0.71,
      "hand": "right"
    },
    {
      "midi": 66,
      "time": 23,
      "duration": 0.75,
      "velocity": 0.71,
      "hand": "right"
    },
    {
      "midi": 78,
      "time": 23,
      "duration": 0.75,
      "velocity": 0.71,
      "hand": "right"
    },
    {
      "midi": 71,
      "time": 23.25,
      "duration": 0.25,
      "velocity": 0.71,
      "hand": "right"
    },
    {
      "midi": 74,
      "time": 23.5,
      "duration": 0.5,
      "velocity": 0.71,
      "hand": "right"
    },
    {
      "midi": 40,
      "time": 23.75,
      "duration": 0.5,
      "velocity": 0.71,
      "hand": "left"
    },
    {
      "midi": 68,
      "time": 23.75,
      "duration": 0.25,
      "velocity": 0.71,
      "hand": "right"
    },
    {
      "midi": 80,
      "time": 23.75,
      "duration": 0.25,
      "velocity": 0.71,
      "hand": "right"
    },
    {
      "midi": 68,
      "time": 24,
      "duration": 0.063,
      "velocity": 0.71,
      "hand": "right"
    },
    {
      "midi": 68,
      "time": 24,
      "duration": 0.75,
      "velocity": 0.71,
      "hand": "right"
    },
    {
      "midi": 74,
      "time": 24,
      "duration": 0.75,
      "velocity": 0.71,
      "hand": "right"
    },
    {
      "midi": 83,
      "time": 24,
      "duration": 0.75,
      "velocity": 0.71,
      "hand": "right"
    },
    {
      "midi": 33,
      "time": 24.25,
      "duration": 0.25,
      "velocity": 0.71,
      "hand": "left"
    },
    {
      "midi": 40,
      "time": 24.5,
      "duration": 0.25,
      "velocity": 0.71,
      "hand": "left"
    },
    {
      "midi": 49,
      "time": 24.75,
      "duration": 0.25,
      "velocity": 0.71,
      "hand": "left"
    },
    {
      "midi": 69,
      "time": 24.75,
      "duration": 0.25,
      "velocity": 0.71,
      "hand": "right"
    },
    {
      "midi": 73,
      "time": 24.75,
      "duration": 0.25,
      "velocity": 0.71,
      "hand": "right"
    },
    {
      "midi": 81,
      "time": 24.75,
      "duration": 0.25,
      "velocity": 0.71,
      "hand": "right"
    },
    {
      "midi": 47,
      "time": 25,
      "duration": 0.25,
      "velocity": 0.71,
      "hand": "left"
    },
    {
      "midi": 45,
      "time": 25.25,
      "duration": 0.25,
      "velocity": 0.71,
      "hand": "left"
    },
    {
      "midi": 52,
      "time": 25.5,
      "duration": 0.25,
      "velocity": 0.71,
      "hand": "left"
    },
    {
      "midi": 69,
      "time": 25.5,
      "duration": 0.5,
      "velocity": 0.71,
      "hand": "right"
    },
    {
      "midi": 73,
      "time": 25.5,
      "duration": 0.5,
      "velocity": 0.71,
      "hand": "right"
    },
    {
      "midi": 81,
      "time": 25.5,
      "duration": 0.5,
      "velocity": 0.71,
      "hand": "right"
    },
    {
      "midi": 61,
      "time": 25.75,
      "duration": 0.25,
      "velocity": 0.71,
      "hand": "right"
    },
    {
      "midi": 69,
      "time": 26,
      "duration": 0.5,
      "velocity": 0.71,
      "hand": "right"
    },
    {
      "midi": 73,
      "time": 26,
      "duration": 0.5,
      "velocity": 0.71,
      "hand": "right"
    },
    {
      "midi": 81,
      "time": 26,
      "duration": 0.5,
      "velocity": 0.71,
      "hand": "right"
    },
    {
      "midi": 41,
      "time": 26.25,
      "duration": 0.25,
      "velocity": 0.71,
      "hand": "left"
    },
    {
      "midi": 49,
      "time": 26.5,
      "duration": 0.25,
      "velocity": 0.71,
      "hand": "left"
    },
    {
      "midi": 68,
      "time": 26.5,
      "duration": 0.5,
      "velocity": 0.71,
      "hand": "right"
    },
    {
      "midi": 71,
      "time": 26.5,
      "duration": 0.5,
      "velocity": 0.71,
      "hand": "right"
    },
    {
      "midi": 80,
      "time": 26.5,
      "duration": 0.5,
      "velocity": 0.71,
      "hand": "right"
    },
    {
      "midi": 61,
      "time": 26.75,
      "duration": 0.25,
      "velocity": 0.71,
      "hand": "right"
    },
    {
      "midi": 66,
      "time": 27,
      "duration": 0.5,
      "velocity": 0.71,
      "hand": "right"
    },
    {
      "midi": 69,
      "time": 27,
      "duration": 0.5,
      "velocity": 0.71,
      "hand": "right"
    },
    {
      "midi": 78,
      "time": 27,
      "duration": 0.5,
      "velocity": 0.71,
      "hand": "right"
    },
    {
      "midi": 42,
      "time": 27.25,
      "duration": 0.25,
      "velocity": 0.71,
      "hand": "left"
    },
    {
      "midi": 49,
      "time": 27.5,
      "duration": 0.25,
      "velocity": 0.71,
      "hand": "left"
    },
    {
      "midi": 68,
      "time": 27.5,
      "duration": 0.5,
      "velocity": 0.71,
      "hand": "right"
    },
    {
      "midi": 71,
      "time": 27.5,
      "duration": 0.5,
      "velocity": 0.71,
      "hand": "right"
    },
    {
      "midi": 80,
      "time": 27.5,
      "duration": 0.5,
      "velocity": 0.71,
      "hand": "right"
    },
    {
      "midi": 61,
      "time": 27.75,
      "duration": 0.25,
      "velocity": 0.71,
      "hand": "right"
    },
    {
      "midi": 66,
      "time": 28,
      "duration": 1.75,
      "velocity": 0.71,
      "hand": "right"
    },
    {
      "midi": 69,
      "time": 28,
      "duration": 2,
      "velocity": 0.71,
      "hand": "right"
    },
    {
      "midi": 78,
      "time": 28,
      "duration": 1.875,
      "velocity": 0.71,
      "hand": "right"
    },
    {
      "midi": 38,
      "time": 28.25,
      "duration": 0.25,
      "velocity": 0.71,
      "hand": "left"
    },
    {
      "midi": 45,
      "time": 28.5,
      "duration": 0.25,
      "velocity": 0.71,
      "hand": "left"
    },
    {
      "midi": 54,
      "time": 28.75,
      "duration": 0.25,
      "velocity": 0.71,
      "hand": "left"
    },
    {
      "midi": 52,
      "time": 29,
      "duration": 0.25,
      "velocity": 0.71,
      "hand": "left"
    },
    {
      "midi": 50,
      "time": 29.25,
      "duration": 0.25,
      "velocity": 0.71,
      "hand": "left"
    },
    {
      "midi": 57,
      "time": 29.5,
      "duration": 0.25,
      "velocity": 0.71,
      "hand": "left"
    },
    {
      "midi": 66,
      "time": 29.75,
      "duration": 0.25,
      "velocity": 0.71,
      "hand": "right"
    },
    {
      "midi": 64,
      "time": 29.875,
      "duration": 0.125,
      "velocity": 0.71,
      "hand": "right"
    },
    {
      "midi": 76,
      "time": 29.875,
      "duration": 0.125,
      "velocity": 0.71,
      "hand": "right"
    },
    {
      "midi": 64,
      "time": 30,
      "duration": 0.5,
      "velocity": 0.71,
      "hand": "right"
    },
    {
      "midi": 69,
      "time": 30,
      "duration": 1.5,
      "velocity": 0.71,
      "hand": "right"
    },
    {
      "midi": 76,
      "time": 30,
      "duration": 0.5,
      "velocity": 0.71,
      "hand": "right"
    },
    {
      "midi": 38,
      "time": 30.25,
      "duration": 0.25,
      "velocity": 0.71,
      "hand": "left"
    },
    {
      "midi": 45,
      "time": 30.5,
      "duration": 0.25,
      "velocity": 0.71,
      "hand": "left"
    },
    {
      "midi": 62,
      "time": 30.5,
      "duration": 1,
      "velocity": 0.71,
      "hand": "right"
    },
    {
      "midi": 74,
      "time": 30.5,
      "duration": 1,
      "velocity": 0.71,
      "hand": "right"
    },
    {
      "midi": 54,
      "time": 30.75,
      "duration": 0.25,
      "velocity": 0.71,
      "hand": "left"
    },
    {
      "midi": 52,
      "time": 31,
      "duration": 0.25,
      "velocity": 0.71,
      "hand": "left"
    },
    {
      "midi": 50,
      "time": 31.25,
      "duration": 0.25,
      "velocity": 0.71,
      "hand": "left"
    },
    {
      "midi": 57,
      "time": 31.5,
      "duration": 0.25,
      "velocity": 0.71,
      "hand": "left"
    },
    {
      "midi": 62,
      "time": 31.5,
      "duration": 0.5,
      "velocity": 0.71,
      "hand": "right"
    },
    {
      "midi": 69,
      "time": 31.5,
      "duration": 0.5,
      "velocity": 0.71,
      "hand": "right"
    },
    {
      "midi": 66,
      "time": 31.75,
      "duration": 0.25,
      "velocity": 0.71,
      "hand": "right"
    },
    {
      "midi": 59,
      "time": 32,
      "duration": 2,
      "velocity": 0.71,
      "hand": "left"
    },
    {
      "midi": 62,
      "time": 32,
      "duration": 1.75,
      "velocity": 0.71,
      "hand": "right"
    },
    {
      "midi": 67,
      "time": 32,
      "duration": 2,
      "velocity": 0.71,
      "hand": "right"
    },
    {
      "midi": 71,
      "time": 32,
      "duration": 2,
      "velocity": 0.71,
      "hand": "right"
    },
    {
      "midi": 31,
      "time": 32.25,
      "duration": 0.25,
      "velocity": 0.71,
      "hand": "left"
    },
    {
      "midi": 43,
      "time": 32.5,
      "duration": 0.25,
      "velocity": 0.71,
      "hand": "left"
    },
    {
      "midi": 50,
      "time": 32.75,
      "duration": 0.25,
      "velocity": 0.71,
      "hand": "left"
    },
    {
      "midi": 52,
      "time": 33,
      "duration": 0.25,
      "velocity": 0.71,
      "hand": "left"
    },
    {
      "midi": 50,
      "time": 33.25,
      "duration": 0.25,
      "velocity": 0.71,
      "hand": "left"
    },
    {
      "midi": 55,
      "time": 33.5,
      "duration": 0.25,
      "velocity": 0.71,
      "hand": "left"
    },
    {
      "midi": 52,
      "time": 33.75,
      "duration": 0.25,
      "velocity": 0.71,
      "hand": "left"
    },
    {
      "midi": 64,
      "time": 33.75,
      "duration": 0.25,
      "velocity": 0.71,
      "hand": "right"
    },
    {
      "midi": 50,
      "time": 34,
      "duration": 0.25,
      "velocity": 0.71,
      "hand": "left"
    },
    {
      "midi": 57,
      "time": 34,
      "duration": 1,
      "velocity": 0.71,
      "hand": "left"
    },
    {
      "midi": 66,
      "time": 34,
      "duration": 0.75,
      "velocity": 0.71,
      "hand": "right"
    },
    {
      "midi": 69,
      "time": 34,
      "duration": 0.75,
      "velocity": 0.71,
      "hand": "right"
    },
    {
      "midi": 45,
      "time": 34.25,
      "duration": 0.25,
      "velocity": 0.71,
      "hand": "left"
    },
    {
      "midi": 38,
      "time": 34.5,
      "duration": 0.25,
      "velocity": 0.71,
      "hand": "left"
    },
    {
      "midi": 54,
      "time": 34.75,
      "duration": 0.25,
      "velocity": 0.71,
      "hand": "left"
    },
    {
      "midi": 62,
      "time": 34.75,
      "duration": 0.25,
      "velocity": 0.71,
      "hand": "right"
    },
    {
      "midi": 66,
      "time": 34.75,
      "duration": 0.25,
      "velocity": 0.71,
      "hand": "right"
    },
    {
      "midi": 50,
      "time": 35,
      "duration": 0.25,
      "velocity": 0.71,
      "hand": "left"
    },
    {
      "midi": 57,
      "time": 35,
      "duration": 1.75,
      "velocity": 0.71,
      "hand": "left"
    },
    {
      "midi": 66,
      "time": 35,
      "duration": 1,
      "velocity": 0.71,
      "hand": "right"
    },
    {
      "midi": 69,
      "time": 35,
      "duration": 1,
      "velocity": 0.71,
      "hand": "right"
    },
    {
      "midi": 45,
      "time": 35.25,
      "duration": 0.25,
      "velocity": 0.71,
      "hand": "left"
    },
    {
      "midi": 43,
      "time": 35.5,
      "duration": 0.25,
      "velocity": 0.71,
      "hand": "left"
    },
    {
      "midi": 42,
      "time": 35.75,
      "duration": 0.25,
      "velocity": 0.71,
      "hand": "left"
    },
    {
      "midi": 30,
      "time": 36,
      "duration": 0.25,
      "velocity": 0.71,
      "hand": "left"
    },
    {
      "midi": 61,
      "time": 36,
      "duration": 1,
      "velocity": 0.71,
      "hand": "right"
    },
    {
      "midi": 66,
      "time": 36,
      "duration": 1,
      "velocity": 0.71,
      "hand": "right"
    },
    {
      "midi": 69,
      "time": 36,
      "duration": 1,
      "velocity": 0.71,
      "hand": "right"
    },
    {
      "midi": 42,
      "time": 36.25,
      "duration": 0.25,
      "velocity": 0.71,
      "hand": "left"
    },
    {
      "midi": 49,
      "time": 36.5,
      "duration": 0.25,
      "velocity": 0.71,
      "hand": "left"
    },
    {
      "midi": 57,
      "time": 36.75,
      "duration": 0.25,
      "velocity": 0.71,
      "hand": "left"
    },
    {
      "midi": 56,
      "time": 37,
      "duration": 0.25,
      "velocity": 0.71,
      "hand": "left"
    },
    {
      "midi": 54,
      "time": 37.25,
      "duration": 0.25,
      "velocity": 0.71,
      "hand": "left"
    },
    {
      "midi": 61,
      "time": 37.5,
      "duration": 0.25,
      "velocity": 0.71,
      "hand": "right"
    },
    {
      "midi": 69,
      "time": 37.75,
      "duration": 0.25,
      "velocity": 0.71,
      "hand": "right"
    },
    {
      "midi": 68,
      "time": 38,
      "duration": 0.25,
      "velocity": 0.71,
      "hand": "right"
    },
    {
      "midi": 66,
      "time": 38.25,
      "duration": 0.25,
      "velocity": 0.71,
      "hand": "right"
    },
    {
      "midi": 69,
      "time": 38.5,
      "duration": 0.25,
      "velocity": 0.71,
      "hand": "right"
    },
    {
      "midi": 71,
      "time": 38.75,
      "duration": 0.25,
      "velocity": 0.71,
      "hand": "right"
    },
    {
      "midi": 73,
      "time": 39,
      "duration": 1,
      "velocity": 0.71,
      "hand": "right"
    },
    {
      "midi": 85,
      "time": 39,
      "duration": 1,
      "velocity": 0.71,
      "hand": "right"
    },
    {
      "midi": 78,
      "time": 39.25,
      "duration": 0.25,
      "velocity": 0.71,
      "hand": "right"
    },
    {
      "midi": 80,
      "time": 39.5,
      "duration": 0.25,
      "velocity": 0.71,
      "hand": "right"
    },
    {
      "midi": 81,
      "time": 39.75,
      "duration": 0.25,
      "velocity": 0.71,
      "hand": "right"
    },
    {
      "midi": 83,
      "time": 39.75,
      "duration": 0.063,
      "velocity": 0.71,
      "hand": "right"
    },
    {
      "midi": 73,
      "time": 40,
      "duration": 2,
      "velocity": 0.71,
      "hand": "right"
    },
    {
      "midi": 80,
      "time": 40,
      "duration": 1.75,
      "velocity": 0.71,
      "hand": "right"
    },
    {
      "midi": 85,
      "time": 40,
      "duration": 2,
      "velocity": 0.71,
      "hand": "right"
    },
    {
      "midi": 42,
      "time": 40.25,
      "duration": 0.25,
      "velocity": 0.71,
      "hand": "left"
    },
    {
      "midi": 49,
      "time": 40.5,
      "duration": 0.25,
      "velocity": 0.71,
      "hand": "left"
    },
    {
      "midi": 57,
      "time": 40.75,
      "duration": 0.25,
      "velocity": 0.71,
      "hand": "left"
    },
    {
      "midi": 56,
      "time": 41,
      "duration": 0.25,
      "velocity": 0.71,
      "hand": "left"
    },
    {
      "midi": 54,
      "time": 41.25,
      "duration": 0.25,
      "velocity": 0.71,
      "hand": "left"
    },
    {
      "midi": 61,
      "time": 41.5,
      "duration": 0.25,
      "velocity": 0.71,
      "hand": "right"
    },
    {
      "midi": 69,
      "time": 41.75,
      "duration": 0.25,
      "velocity": 0.71,
      "hand": "right"
    },
    {
      "midi": 78,
      "time": 41.75,
      "duration": 0.25,
      "velocity": 0.71,
      "hand": "right"
    },
    {
      "midi": 68,
      "time": 42,
      "duration": 0.25,
      "velocity": 0.71,
      "hand": "right"
    },
    {
      "midi": 66,
      "time": 42.25,
      "duration": 0.25,
      "velocity": 0.71,
      "hand": "right"
    },
    {
      "midi": 69,
      "time": 42.5,
      "duration": 0.25,
      "velocity": 0.71,
      "hand": "right"
    },
    {
      "midi": 71,
      "time": 42.75,
      "duration": 0.25,
      "velocity": 0.71,
      "hand": "right"
    },
    {
      "midi": 73,
      "time": 43,
      "duration": 0.75,
      "velocity": 0.71,
      "hand": "right"
    },
    {
      "midi": 85,
      "time": 43,
      "duration": 0.75,
      "velocity": 0.71,
      "hand": "right"
    },
    {
      "midi": 78,
      "time": 43.25,
      "duration": 0.25,
      "velocity": 0.71,
      "hand": "right"
    },
    {
      "midi": 81,
      "time": 43.5,
      "duration": 0.5,
      "velocity": 0.71,
      "hand": "right"
    },
    {
      "midi": 47,
      "time": 43.75,
      "duration": 0.5,
      "velocity": 0.71,
      "hand": "left"
    },
    {
      "midi": 75,
      "time": 43.75,
      "duration": 0.25,
      "velocity": 0.71,
      "hand": "right"
    },
    {
      "midi": 87,
      "time": 43.75,
      "duration": 0.25,
      "velocity": 0.71,
      "hand": "right"
    },
    {
      "midi": 75,
      "time": 44,
      "duration": 0.063,
      "velocity": 0.71,
      "hand": "right"
    },
    {
      "midi": 75,
      "time": 44,
      "duration": 0.75,
      "velocity": 0.71,
      "hand": "right"
    },
    {
      "midi": 81,
      "time": 44,
      "duration": 0.75,
      "velocity": 0.71,
      "hand": "right"
    },
    {
      "midi": 90,
      "time": 44,
      "duration": 0.75,
      "velocity": 0.71,
      "hand": "right"
    },
    {
      "midi": 40,
      "time": 44.25,
      "duration": 0.25,
      "velocity": 0.71,
      "hand": "left"
    },
    {
      "midi": 47,
      "time": 44.5,
      "duration": 0.25,
      "velocity": 0.71,
      "hand": "left"
    },
    {
      "midi": 56,
      "time": 44.75,
      "duration": 0.25,
      "velocity": 0.71,
      "hand": "left"
    },
    {
      "midi": 76,
      "time": 44.75,
      "duration": 0.25,
      "velocity": 0.71,
      "hand": "right"
    },
    {
      "midi": 80,
      "time": 44.75,
      "duration": 0.25,
      "velocity": 0.71,
      "hand": "right"
    },
    {
      "midi": 88,
      "time": 44.75,
      "duration": 0.25,
      "velocity": 0.71,
      "hand": "right"
    },
    {
      "midi": 54,
      "time": 45,
      "duration": 0.25,
      "velocity": 0.71,
      "hand": "left"
    },
    {
      "midi": 52,
      "time": 45.25,
      "duration": 0.25,
      "velocity": 0.71,
      "hand": "left"
    },
    {
      "midi": 59,
      "time": 45.5,
      "duration": 0.25,
      "velocity": 0.71,
      "hand": "left"
    },
    {
      "midi": 68,
      "time": 45.75,
      "duration": 0.25,
      "velocity": 0.71,
      "hand": "right"
    },
    {
      "midi": 66,
      "time": 46,
      "duration": 0.25,
      "velocity": 0.71,
      "hand": "right"
    },
    {
      "midi": 64,
      "time": 46.25,
      "duration": 0.25,
      "velocity": 0.71,
      "hand": "right"
    },
    {
      "midi": 68,
      "time": 46.5,
      "duration": 0.25,
      "velocity": 0.71,
      "hand": "right"
    },
    {
      "midi": 69,
      "time": 46.75,
      "duration": 0.25,
      "velocity": 0.71,
      "hand": "right"
    },
    {
      "midi": 71,
      "time": 47,
      "duration": 1,
      "velocity": 0.71,
      "hand": "right"
    },
    {
      "midi": 83,
      "time": 47,
      "duration": 1,
      "velocity": 0.71,
      "hand": "right"
    },
    {
      "midi": 76,
      "time": 47.25,
      "duration": 0.25,
      "velocity": 0.71,
      "hand": "right"
    },
    {
      "midi": 78,
      "time": 47.5,
      "duration": 0.25,
      "velocity": 0.71,
      "hand": "right"
    },
    {
      "midi": 79,
      "time": 47.75,
      "duration": 0.25,
      "velocity": 0.71,
      "hand": "right"
    },
    {
      "midi": 81,
      "time": 47.75,
      "duration": 0.063,
      "velocity": 0.71,
      "hand": "right"
    },
    {
      "midi": 71,
      "time": 48,
      "duration": 2,
      "velocity": 0.71,
      "hand": "right"
    },
    {
      "midi": 78,
      "time": 48,
      "duration": 1.75,
      "velocity": 0.71,
      "hand": "right"
    },
    {
      "midi": 83,
      "time": 48,
      "duration": 2,
      "velocity": 0.71,
      "hand": "right"
    },
    {
      "midi": 40,
      "time": 48.25,
      "duration": 0.25,
      "velocity": 0.71,
      "hand": "left"
    },
    {
      "midi": 47,
      "time": 48.5,
      "duration": 0.25,
      "velocity": 0.71,
      "hand": "left"
    },
    {
      "midi": 55,
      "time": 48.75,
      "duration": 0.25,
      "velocity": 0.71,
      "hand": "left"
    },
    {
      "midi": 54,
      "time": 49,
      "duration": 0.25,
      "velocity": 0.71,
      "hand": "left"
    },
    {
      "midi": 52,
      "time": 49.25,
      "duration": 0.25,
      "velocity": 0.71,
      "hand": "left"
    },
    {
      "midi": 59,
      "time": 49.5,
      "duration": 0.25,
      "velocity": 0.71,
      "hand": "left"
    },
    {
      "midi": 67,
      "time": 49.75,
      "duration": 0.25,
      "velocity": 0.71,
      "hand": "right"
    },
    {
      "midi": 76,
      "time": 49.75,
      "duration": 0.25,
      "velocity": 0.71,
      "hand": "right"
    },
    {
      "midi": 66,
      "time": 50,
      "duration": 0.25,
      "velocity": 0.71,
      "hand": "right"
    },
    {
      "midi": 64,
      "time": 50.25,
      "duration": 0.25,
      "velocity": 0.71,
      "hand": "right"
    },
    {
      "midi": 67,
      "time": 50.5,
      "duration": 0.25,
      "velocity": 0.71,
      "hand": "right"
    },
    {
      "midi": 69,
      "time": 50.75,
      "duration": 0.25,
      "velocity": 0.71,
      "hand": "right"
    },
    {
      "midi": 71,
      "time": 51,
      "duration": 0.75,
      "velocity": 0.71,
      "hand": "right"
    },
    {
      "midi": 83,
      "time": 51,
      "duration": 0.75,
      "velocity": 0.71,
      "hand": "right"
    },
    {
      "midi": 76,
      "time": 51.25,
      "duration": 0.25,
      "velocity": 0.71,
      "hand": "right"
    },
    {
      "midi": 79,
      "time": 51.5,
      "duration": 0.25,
      "velocity": 0.71,
      "hand": "right"
    },
    {
      "midi": 45,
      "time": 51.75,
      "duration": 0.5,
      "velocity": 0.71,
      "hand": "left"
    },
    {
      "midi": 73,
      "time": 51.75,
      "duration": 0.25,
      "velocity": 0.71,
      "hand": "right"
    },
    {
      "midi": 85,
      "time": 51.75,
      "duration": 0.25,
      "velocity": 0.71,
      "hand": "right"
    },
    {
      "midi": 73,
      "time": 52,
      "duration": 0.5,
      "velocity": 0.71,
      "hand": "right"
    },
    {
      "midi": 79,
      "time": 52,
      "duration": 0.5,
      "velocity": 0.71,
      "hand": "right"
    },
    {
      "midi": 85,
      "time": 52,
      "duration": 0.5,
      "velocity": 0.71,
      "hand": "right"
    },
    {
      "midi": 46,
      "time": 52.25,
      "duration": 0.25,
      "velocity": 0.71,
      "hand": "left"
    },
    {
      "midi": 53,
      "time": 52.5,
      "duration": 0.25,
      "velocity": 0.71,
      "hand": "left"
    },
    {
      "midi": 74,
      "time": 52.5,
      "duration": 1,
      "velocity": 0.71,
      "hand": "right"
    },
    {
      "midi": 77,
      "time": 52.5,
      "duration": 1,
      "velocity": 0.71,
      "hand": "right"
    },
    {
      "midi": 86,
      "time": 52.5,
      "duration": 1,
      "velocity": 0.71,
      "hand": "right"
    },
    {
      "midi": 62,
      "time": 52.75,
      "duration": 0.25,
      "velocity": 0.71,
      "hand": "right"
    },
    {
      "midi": 60,
      "time": 53,
      "duration": 0.25,
      "velocity": 0.71,
      "hand": "right"
    },
    {
      "midi": 58,
      "time": 53.25,
      "duration": 0.25,
      "velocity": 0.71,
      "hand": "left"
    },
    {
      "midi": 65,
      "time": 53.5,
      "duration": 0.25,
      "velocity": 0.71,
      "hand": "right"
    },
    {
      "midi": 72,
      "time": 53.5,
      "duration": 0.5,
      "velocity": 0.71,
      "hand": "right"
    },
    {
      "midi": 77,
      "time": 53.5,
      "duration": 0.5,
      "velocity": 0.71,
      "hand": "right"
    },
    {
      "midi": 84,
      "time": 53.5,
      "duration": 0.5,
      "velocity": 0.71,
      "hand": "right"
    },
    {
      "midi": 74,
      "time": 53.75,
      "duration": 0.25,
      "velocity": 0.71,
      "hand": "right"
    },
    {
      "midi": 72,
      "time": 54,
      "duration": 0.5,
      "velocity": 0.71,
      "hand": "right"
    },
    {
      "midi": 75,
      "time": 54,
      "duration": 0.5,
      "velocity": 0.71,
      "hand": "right"
    },
    {
      "midi": 84,
      "time": 54,
      "duration": 0.5,
      "velocity": 0.71,
      "hand": "right"
    },
    {
      "midi": 39,
      "time": 54.25,
      "duration": 0.25,
      "velocity": 0.71,
      "hand": "left"
    },
    {
      "midi": 46,
      "time": 54.5,
      "duration": 0.25,
      "velocity": 0.71,
      "hand": "left"
    },
    {
      "midi": 70,
      "time": 54.5,
      "duration": 0.5,
      "velocity": 0.71,
      "hand": "right"
    },
    {
      "midi": 79,
      "time": 54.5,
      "duration": 0.5,
      "velocity": 0.71,
      "hand": "right"
    },
    {
      "midi": 82,
      "time": 54.5,
      "duration": 0.5,
      "velocity": 0.71,
      "hand": "right"
    },
    {
      "midi": 55,
      "time": 54.75,
      "duration": 0.25,
      "velocity": 0.71,
      "hand": "left"
    },
    {
      "midi": 53,
      "time": 55,
      "duration": 0.25,
      "velocity": 0.71,
      "hand": "left"
    },
    {
      "midi": 67,
      "time": 55,
      "duration": 0.5,
      "velocity": 0.71,
      "hand": "right"
    },
    {
      "midi": 75,
      "time": 55,
      "duration": 0.5,
      "velocity": 0.71,
      "hand": "right"
    },
    {
      "midi": 79,
      "time": 55,
      "duration": 0.5,
      "velocity": 0.71,
      "hand": "right"
    },
    {
      "midi": 51,
      "time": 55.25,
      "duration": 0.25,
      "velocity": 0.71,
      "hand": "left"
    },
    {
      "midi": 58,
      "time": 55.5,
      "duration": 0.25,
      "velocity": 0.71,
      "hand": "left"
    },
    {
      "midi": 70,
      "time": 55.5,
      "duration": 0.5,
      "velocity": 0.71,
      "hand": "right"
    },
    {
      "midi": 79,
      "time": 55.5,
      "duration": 0.5,
      "velocity": 0.71,
      "hand": "right"
    },
    {
      "midi": 82,
      "time": 55.5,
      "duration": 0.5,
      "velocity": 0.71,
      "hand": "right"
    },
    {
      "midi": 67,
      "time": 55.75,
      "duration": 0.25,
      "velocity": 0.71,
      "hand": "right"
    },
    {
      "midi": 65,
      "time": 56,
      "duration": 2,
      "velocity": 0.71,
      "hand": "right"
    },
    {
      "midi": 70,
      "time": 56,
      "duration": 2,
      "velocity": 0.71,
      "hand": "right"
    },
    {
      "midi": 74,
      "time": 56,
      "duration": 2,
      "velocity": 0.71,
      "hand": "right"
    },
    {
      "midi": 77,
      "time": 56,
      "duration": 2,
      "velocity": 0.71,
      "hand": "right"
    },
    {
      "midi": 41,
      "time": 56.25,
      "duration": 0.25,
      "velocity": 0.71,
      "hand": "left"
    },
    {
      "midi": 50,
      "time": 56.5,
      "duration": 0.25,
      "velocity": 0.71,
      "hand": "left"
    },
    {
      "midi": 53,
      "time": 56.75,
      "duration": 0.25,
      "velocity": 0.71,
      "hand": "left"
    },
    {
      "midi": 55,
      "time": 57,
      "duration": 0.25,
      "velocity": 0.71,
      "hand": "left"
    },
    {
      "midi": 53,
      "time": 57.25,
      "duration": 0.25,
      "velocity": 0.71,
      "hand": "left"
    },
    {
      "midi": 63,
      "time": 57.5,
      "duration": 0.25,
      "velocity": 0.71,
      "hand": "right"
    },
    {
      "midi": 62,
      "time": 57.75,
      "duration": 0.25,
      "velocity": 0.71,
      "hand": "right"
    },
    {
      "midi": 29,
      "time": 58,
      "duration": 0.25,
      "velocity": 0.71,
      "hand": "left"
    },
    {
      "midi": 63,
      "time": 58,
      "duration": 2,
      "velocity": 0.71,
      "hand": "right"
    },
    {
      "midi": 69,
      "time": 58,
      "duration": 2,
      "velocity": 0.71,
      "hand": "right"
    },
    {
      "midi": 74,
      "time": 58,
      "duration": 1.75,
      "velocity": 0.71,
      "hand": "right"
    },
    {
      "midi": 77,
      "time": 58,
      "duration": 1.75,
      "velocity": 0.71,
      "hand": "right"
    },
    {
      "midi": 41,
      "time": 58.25,
      "duration": 0.25,
      "velocity": 0.71,
      "hand": "left"
    },
    {
      "midi": 48,
      "time": 58.5,
      "duration": 0.25,
      "velocity": 0.71,
      "hand": "left"
    },
    {
      "midi": 51,
      "time": 58.75,
      "duration": 0.25,
      "velocity": 0.71,
      "hand": "left"
    },
    {
      "midi": 55,
      "time": 59,
      "duration": 0.25,
      "velocity": 0.71,
      "hand": "left"
    },
    {
      "midi": 53,
      "time": 59.25,
      "duration": 0.25,
      "velocity": 0.71,
      "hand": "left"
    },
    {
      "midi": 62,
      "time": 59.5,
      "duration": 0.25,
      "velocity": 0.71,
      "hand": "right"
    },
    {
      "midi": 60,
      "time": 59.75,
      "duration": 0.25,
      "velocity": 0.71,
      "hand": "right"
    },
    {
      "midi": 75,
      "time": 59.75,
      "duration": 0.25,
      "velocity": 0.71,
      "hand": "right"
    },
    {
      "midi": 30,
      "time": 60,
      "duration": 0.25,
      "velocity": 0.71,
      "hand": "left"
    },
    {
      "midi": 61,
      "time": 60,
      "duration": 0.5,
      "velocity": 0.71,
      "hand": "right"
    },
    {
      "midi": 70,
      "time": 60,
      "duration": 0.5,
      "velocity": 0.71,
      "hand": "right"
    },
    {
      "midi": 73,
      "time": 60,
      "duration": 0.5,
      "velocity": 0.71,
      "hand": "right"
    },
    {
      "midi": 42,
      "time": 60.25,
      "duration": 0.25,
      "velocity": 0.71,
      "hand": "left"
    },
    {
      "midi": 49,
      "time": 60.5,
      "duration": 0.25,
      "velocity": 0.71,
      "hand": "left"
    },
    {
      "midi": 58,
      "time": 60.75,
      "duration": 0.25,
      "velocity": 0.71,
      "hand": "left"
    },
    {
      "midi": 56,
      "time": 61,
      "duration": 0.25,
      "velocity": 0.71,
      "hand": "left"
    },
    {
      "midi": 70,
      "time": 61,
      "duration": 0.75,
      "velocity": 0.71,
      "hand": "right"
    },
    {
      "midi": 73,
      "time": 61,
      "duration": 1,
      "velocity": 0.71,
      "hand": "right"
    },
    {
      "midi": 82,
      "time": 61,
      "duration": 1,
      "velocity": 0.71,
      "hand": "right"
    },
    {
      "midi": 54,
      "time": 61.25,
      "duration": 0.25,
      "velocity": 0.71,
      "hand": "left"
    },
    {
      "midi": 61,
      "time": 61.5,
      "duration": 0.25,
      "velocity": 0.71,
      "hand": "right"
    },
    {
      "midi": 70,
      "time": 61.75,
      "duration": 0.25,
      "velocity": 0.71,
      "hand": "right"
    },
    {
      "midi": 68,
      "time": 62,
      "duration": 0.5,
      "velocity": 0.71,
      "hand": "right"
    },
    {
      "midi": 71,
      "time": 62,
      "duration": 0.5,
      "velocity": 0.71,
      "hand": "right"
    },
    {
      "midi": 80,
      "time": 62,
      "duration": 0.5,
      "velocity": 0.71,
      "hand": "right"
    },
    {
      "midi": 35,
      "time": 62.25,
      "duration": 0.25,
      "velocity": 0.71,
      "hand": "left"
    },
    {
      "midi": 42,
      "time": 62.5,
      "duration": 0.25,
      "velocity": 0.71,
      "hand": "left"
    },
    {
      "midi": 66,
      "time": 62.5,
      "duration": 0.5,
      "velocity": 0.71,
      "hand": "right"
    },
    {
      "midi": 71,
      "time": 62.5,
      "duration": 0.5,
      "velocity": 0.71,
      "hand": "right"
    },
    {
      "midi": 78,
      "time": 62.5,
      "duration": 0.5,
      "velocity": 0.71,
      "hand": "right"
    },
    {
      "midi": 51,
      "time": 62.75,
      "duration": 0.25,
      "velocity": 0.71,
      "hand": "left"
    },
    {
      "midi": 49,
      "time": 63,
      "duration": 0.25,
      "velocity": 0.71,
      "hand": "left"
    },
    {
      "midi": 63,
      "time": 63,
      "duration": 0.5,
      "velocity": 0.71,
      "hand": "right"
    },
    {
      "midi": 71,
      "time": 63,
      "duration": 0.5,
      "velocity": 0.71,
      "hand": "right"
    },
    {
      "midi": 75,
      "time": 63,
      "duration": 0.5,
      "velocity": 0.71,
      "hand": "right"
    },
    {
      "midi": 47,
      "time": 63.25,
      "duration": 0.25,
      "velocity": 0.71,
      "hand": "left"
    },
    {
      "midi": 54,
      "time": 63.5,
      "duration": 0.25,
      "velocity": 0.71,
      "hand": "left"
    },
    {
      "midi": 66,
      "time": 63.5,
      "duration": 0.5,
      "velocity": 0.71,
      "hand": "right"
    },
    {
      "midi": 71,
      "time": 63.5,
      "duration": 0.5,
      "velocity": 0.71,
      "hand": "right"
    },
    {
      "midi": 78,
      "time": 63.5,
      "duration": 0.5,
      "velocity": 0.71,
      "hand": "right"
    },
    {
      "midi": 63,
      "time": 63.75,
      "duration": 0.25,
      "velocity": 0.71,
      "hand": "right"
    },
    {
      "midi": 37,
      "time": 64,
      "duration": 0.25,
      "velocity": 0.71,
      "hand": "left"
    },
    {
      "midi": 61,
      "time": 64,
      "duration": 1,
      "velocity": 0.71,
      "hand": "right"
    },
    {
      "midi": 66,
      "time": 64,
      "duration": 1,
      "velocity": 0.71,
      "hand": "right"
    },
    {
      "midi": 70,
      "time": 64,
      "duration": 1,
      "velocity": 0.71,
      "hand": "right"
    },
    {
      "midi": 73,
      "time": 64,
      "duration": 1,
      "velocity": 0.71,
      "hand": "right"
    },
    {
      "midi": 49,
      "time": 64.25,
      "duration": 0.25,
      "velocity": 0.71,
      "hand": "left"
    },
    {
      "midi": 54,
      "time": 64.5,
      "duration": 0.25,
      "velocity": 0.71,
      "hand": "left"
    },
    {
      "midi": 58,
      "time": 64.75,
      "duration": 0.25,
      "velocity": 0.71,
      "hand": "left"
    },
    {
      "midi": 56,
      "time": 65,
      "duration": 0.25,
      "velocity": 0.71,
      "hand": "left"
    },
    {
      "midi": 63,
      "time": 65,
      "duration": 1,
      "velocity": 0.71,
      "hand": "right"
    },
    {
      "midi": 70,
      "time": 65,
      "duration": 1,
      "velocity": 0.71,
      "hand": "right"
    },
    {
      "midi": 73,
      "time": 65,
      "duration": 1,
      "velocity": 0.71,
      "hand": "right"
    },
    {
      "midi": 75,
      "time": 65,
      "duration": 1,
      "velocity": 0.71,
      "hand": "right"
    },
    {
      "midi": 55,
      "time": 65.25,
      "duration": 0.25,
      "velocity": 0.71,
      "hand": "left"
    },
    {
      "midi": 59,
      "time": 65.5,
      "duration": 0.25,
      "velocity": 0.71,
      "hand": "left"
    },
    {
      "midi": 58,
      "time": 65.75,
      "duration": 0.25,
      "velocity": 0.71,
      "hand": "left"
    },
    {
      "midi": 49,
      "time": 66,
      "duration": 2,
      "velocity": 0.71,
      "hand": "left"
    },
    {
      "midi": 63,
      "time": 66,
      "duration": 1.5,
      "velocity": 0.71,
      "hand": "right"
    },
    {
      "midi": 68,
      "time": 66,
      "duration": 1.5,
      "velocity": 0.71,
      "hand": "right"
    },
    {
      "midi": 71,
      "time": 66,
      "duration": 1.5,
      "velocity": 0.71,
      "hand": "right"
    },
    {
      "midi": 75,
      "time": 66,
      "duration": 1.5,
      "velocity": 0.71,
      "hand": "right"
    },
    {
      "midi": 55,
      "time": 66.25,
      "duration": 0.25,
      "velocity": 0.71,
      "hand": "left"
    },
    {
      "midi": 56,
      "time": 66.5,
      "duration": 0.25,
      "velocity": 0.71,
      "hand": "left"
    },
    {
      "midi": 59,
      "time": 66.75,
      "duration": 0.25,
      "velocity": 0.71,
      "hand": "left"
    },
    {
      "midi": 58,
      "time": 67,
      "duration": 0.25,
      "velocity": 0.71,
      "hand": "left"
    },
    {
      "midi": 56,
      "time": 67.25,
      "duration": 0.25,
      "velocity": 0.71,
      "hand": "left"
    },
    {
      "midi": 63,
      "time": 67.5,
      "duration": 0.25,
      "velocity": 0.71,
      "hand": "right"
    },
    {
      "midi": 65,
      "time": 67.5,
      "duration": 0.5,
      "velocity": 0.71,
      "hand": "right"
    },
    {
      "midi": 71,
      "time": 67.5,
      "duration": 0.5,
      "velocity": 0.71,
      "hand": "right"
    },
    {
      "midi": 73,
      "time": 67.5,
      "duration": 0.5,
      "velocity": 0.71,
      "hand": "right"
    },
    {
      "midi": 77,
      "time": 67.5,
      "duration": 0.5,
      "velocity": 0.71,
      "hand": "right"
    },
    {
      "midi": 61,
      "time": 67.75,
      "duration": 0.25,
      "velocity": 0.71,
      "hand": "right"
    },
    {
      "midi": 30,
      "time": 68,
      "duration": 0.25,
      "velocity": 0.71,
      "hand": "left"
    },
    {
      "midi": 65,
      "time": 68,
      "duration": 0.75,
      "velocity": 0.71,
      "hand": "right"
    },
    {
      "midi": 70,
      "time": 68,
      "duration": 1,
      "velocity": 0.71,
      "hand": "right"
    },
    {
      "midi": 73,
      "time": 68,
      "duration": 1,
      "velocity": 0.71,
      "hand": "right"
    },
    {
      "midi": 77,
      "time": 68,
      "duration": 0.75,
      "velocity": 0.71,
      "hand": "right"
    },
    {
      "midi": 42,
      "time": 68.25,
      "duration": 0.25,
      "velocity": 0.71,
      "hand": "left"
    },
    {
      "midi": 49,
      "time": 68.5,
      "duration": 0.25,
      "velocity": 0.71,
      "hand": "left"
    },
    {
      "midi": 58,
      "time": 68.75,
      "duration": 0.25,
      "velocity": 0.71,
      "hand": "left"
    },
    {
      "midi": 66,
      "time": 68.75,
      "duration": 0.25,
      "velocity": 0.71,
      "hand": "right"
    },
    {
      "midi": 78,
      "time": 68.75,
      "duration": 0.25,
      "velocity": 0.71,
      "hand": "right"
    },
    {
      "midi": 56,
      "time": 69,
      "duration": 0.25,
      "velocity": 0.71,
      "hand": "left"
    },
    {
      "midi": 54,
      "time": 69.25,
      "duration": 0.25,
      "velocity": 0.71,
      "hand": "left"
    },
    {
      "midi": 61,
      "time": 69.5,
      "duration": 0.25,
      "velocity": 0.71,
      "hand": "right"
    },
    {
      "midi": 70,
      "time": 69.75,
      "duration": 0.25,
      "velocity": 0.71,
      "hand": "right"
    },
    {
      "midi": 68,
      "time": 70,
      "duration": 0.25,
      "velocity": 0.71,
      "hand": "right"
    },
    {
      "midi": 66,
      "time": 70.25,
      "duration": 0.25,
      "velocity": 0.71,
      "hand": "right"
    },
    {
      "midi": 70,
      "time": 70.5,
      "duration": 0.25,
      "velocity": 0.71,
      "hand": "right"
    },
    {
      "midi": 71,
      "time": 70.75,
      "duration": 0.25,
      "velocity": 0.71,
      "hand": "right"
    },
    {
      "midi": 73,
      "time": 71,
      "duration": 1,
      "velocity": 0.71,
      "hand": "right"
    },
    {
      "midi": 85,
      "time": 71,
      "duration": 0.875,
      "velocity": 0.71,
      "hand": "right"
    },
    {
      "midi": 76,
      "time": 71.25,
      "duration": 0.25,
      "velocity": 0.71,
      "hand": "right"
    },
    {
      "midi": 82,
      "time": 71.5,
      "duration": 0.25,
      "velocity": 0.71,
      "hand": "right"
    },
    {
      "midi": 80,
      "time": 71.75,
      "duration": 0.25,
      "velocity": 0.71,
      "hand": "right"
    },
    {
      "midi": 85,
      "time": 71.875,
      "duration": 0.125,
      "velocity": 0.71,
      "hand": "right"
    },
    {
      "midi": 30,
      "time": 72,
      "duration": 0.25,
      "velocity": 0.71,
      "hand": "left"
    },
    {
      "midi": 73,
      "time": 72,
      "duration": 2,
      "velocity": 0.71,
      "hand": "right"
    },
    {
      "midi": 76,
      "time": 72,
      "duration": 2,
      "velocity": 0.71,
      "hand": "right"
    },
    {
      "midi": 80,
      "time": 72,
      "duration": 1.75,
      "velocity": 0.71,
      "hand": "right"
    },
    {
      "midi": 85,
      "time": 72,
      "duration": 2,
      "velocity": 0.71,
      "hand": "right"
    },
    {
      "midi": 42,
      "time": 72.25,
      "duration": 0.25,
      "velocity": 0.71,
      "hand": "left"
    },
    {
      "midi": 49,
      "time": 72.5,
      "duration": 0.25,
      "velocity": 0.71,
      "hand": "left"
    },
    {
      "midi": 58,
      "time": 72.75,
      "duration": 0.25,
      "velocity": 0.71,
      "hand": "left"
    },
    {
      "midi": 56,
      "time": 73,
      "duration": 0.25,
      "velocity": 0.71,
      "hand": "left"
    },
    {
      "midi": 54,
      "time": 73.25,
      "duration": 0.25,
      "velocity": 0.71,
      "hand": "left"
    },
    {
      "midi": 61,
      "time": 73.5,
      "duration": 0.25,
      "velocity": 0.71,
      "hand": "right"
    },
    {
      "midi": 70,
      "time": 73.75,
      "duration": 0.25,
      "velocity": 0.71,
      "hand": "right"
    },
    {
      "midi": 78,
      "time": 73.75,
      "duration": 0.25,
      "velocity": 0.71,
      "hand": "right"
    },
    {
      "midi": 68,
      "time": 74,
      "duration": 0.25,
      "velocity": 0.71,
      "hand": "right"
    },
    {
      "midi": 66,
      "time": 74.25,
      "duration": 0.25,
      "velocity": 0.71,
      "hand": "right"
    },
    {
      "midi": 70,
      "time": 74.5,
      "duration": 0.25,
      "velocity": 0.71,
      "hand": "right"
    },
    {
      "midi": 71,
      "time": 74.75,
      "duration": 0.25,
      "velocity": 0.71,
      "hand": "right"
    },
    {
      "midi": 73,
      "time": 75,
      "duration": 0.75,
      "velocity": 0.71,
      "hand": "right"
    },
    {
      "midi": 85,
      "time": 75,
      "duration": 0.75,
      "velocity": 0.71,
      "hand": "right"
    },
    {
      "midi": 76,
      "time": 75.25,
      "duration": 0.25,
      "velocity": 0.71,
      "hand": "right"
    },
    {
      "midi": 82,
      "time": 75.5,
      "duration": 0.25,
      "velocity": 0.71,
      "hand": "right"
    },
    {
      "midi": 40,
      "time": 75.75,
      "duration": 0.5,
      "velocity": 0.71,
      "hand": "left"
    },
    {
      "midi": 74,
      "time": 75.75,
      "duration": 0.25,
      "velocity": 0.71,
      "hand": "right"
    },
    {
      "midi": 80,
      "time": 75.75,
      "duration": 0.25,
      "velocity": 0.71,
      "hand": "right"
    },
    {
      "midi": 86,
      "time": 75.75,
      "duration": 0.25,
      "velocity": 0.71,
      "hand": "right"
    },
    {
      "midi": 75,
      "time": 76,
      "duration": 1,
      "velocity": 0.71,
      "hand": "right"
    },
    {
      "midi": 79,
      "time": 76,
      "duration": 1,
      "velocity": 0.71,
      "hand": "right"
    },
    {
      "midi": 87,
      "time": 76,
      "duration": 1,
      "velocity": 0.71,
      "hand": "right"
    },
    {
      "midi": 39,
      "time": 76.25,
      "duration": 0.25,
      "velocity": 0.71,
      "hand": "left"
    },
    {
      "midi": 46,
      "time": 76.5,
      "duration": 0.25,
      "velocity": 0.71,
      "hand": "left"
    },
    {
      "midi": 55,
      "time": 76.75,
      "duration": 0.25,
      "velocity": 0.71,
      "hand": "left"
    },
    {
      "midi": 53,
      "time": 77,
      "duration": 0.25,
      "velocity": 0.71,
      "hand": "left"
    },
    {
      "midi": 70,
      "time": 77,
      "duration": 0.5,
      "velocity": 0.71,
      "hand": "right"
    },
    {
      "midi": 79,
      "time": 77,
      "duration": 0.5,
      "velocity": 0.71,
      "hand": "right"
    },
    {
      "midi": 82,
      "time": 77,
      "duration": 0.5,
      "velocity": 0.71,
      "hand": "right"
    },
    {
      "midi": 51,
      "time": 77.25,
      "duration": 0.25,
      "velocity": 0.71,
      "hand": "left"
    },
    {
      "midi": 58,
      "time": 77.5,
      "duration": 0.25,
      "velocity": 0.71,
      "hand": "left"
    },
    {
      "midi": 67,
      "time": 77.75,
      "duration": 0.25,
      "velocity": 0.71,
      "hand": "right"
    },
    {
      "midi": 65,
      "time": 78,
      "duration": 0.25,
      "velocity": 0.71,
      "hand": "right"
    },
    {
      "midi": 63,
      "time": 78.25,
      "duration": 0.25,
      "velocity": 0.71,
      "hand": "right"
    },
    {
      "midi": 67,
      "time": 78.5,
      "duration": 0.25,
      "velocity": 0.71,
      "hand": "right"
    },
    {
      "midi": 68,
      "time": 78.75,
      "duration": 0.25,
      "velocity": 0.71,
      "hand": "right"
    },
    {
      "midi": 70,
      "time": 79,
      "duration": 1,
      "velocity": 0.71,
      "hand": "right"
    },
    {
      "midi": 82,
      "time": 79,
      "duration": 0.875,
      "velocity": 0.71,
      "hand": "right"
    },
    {
      "midi": 75,
      "time": 79.25,
      "duration": 0.25,
      "velocity": 0.71,
      "hand": "right"
    },
    {
      "midi": 79,
      "time": 79.5,
      "duration": 0.25,
      "velocity": 0.71,
      "hand": "right"
    },
    {
      "midi": 77,
      "time": 79.75,
      "duration": 0.25,
      "velocity": 0.71,
      "hand": "right"
    },
    {
      "midi": 82,
      "time": 79.875,
      "duration": 0.125,
      "velocity": 0.71,
      "hand": "right"
    },
    {
      "midi": 27,
      "time": 80,
      "duration": 0.25,
      "velocity": 0.71,
      "hand": "left"
    },
    {
      "midi": 70,
      "time": 80,
      "duration": 2,
      "velocity": 0.71,
      "hand": "right"
    },
    {
      "midi": 77,
      "time": 80,
      "duration": 1.75,
      "velocity": 0.71,
      "hand": "right"
    },
    {
      "midi": 79,
      "time": 80,
      "duration": 2,
      "velocity": 0.71,
      "hand": "right"
    },
    {
      "midi": 82,
      "time": 80,
      "duration": 2,
      "velocity": 0.71,
      "hand": "right"
    },
    {
      "midi": 39,
      "time": 80.25,
      "duration": 0.25,
      "velocity": 0.71,
      "hand": "left"
    },
    {
      "midi": 46,
      "time": 80.5,
      "duration": 0.25,
      "velocity": 0.71,
      "hand": "left"
    },
    {
      "midi": 55,
      "time": 80.75,
      "duration": 0.25,
      "velocity": 0.71,
      "hand": "left"
    },
    {
      "midi": 53,
      "time": 81,
      "duration": 0.25,
      "velocity": 0.71,
      "hand": "left"
    },
    {
      "midi": 51,
      "time": 81.25,
      "duration": 0.25,
      "velocity": 0.71,
      "hand": "left"
    },
    {
      "midi": 58,
      "time": 81.5,
      "duration": 0.25,
      "velocity": 0.71,
      "hand": "left"
    },
    {
      "midi": 67,
      "time": 81.75,
      "duration": 0.25,
      "velocity": 0.71,
      "hand": "right"
    },
    {
      "midi": 75,
      "time": 81.75,
      "duration": 0.25,
      "velocity": 0.71,
      "hand": "right"
    },
    {
      "midi": 65,
      "time": 82,
      "duration": 0.25,
      "velocity": 0.71,
      "hand": "right"
    },
    {
      "midi": 63,
      "time": 82.25,
      "duration": 0.25,
      "velocity": 0.71,
      "hand": "right"
    },
    {
      "midi": 67,
      "time": 82.5,
      "duration": 0.25,
      "velocity": 0.71,
      "hand": "right"
    },
    {
      "midi": 68,
      "time": 82.75,
      "duration": 0.25,
      "velocity": 0.71,
      "hand": "right"
    },
    {
      "midi": 70,
      "time": 83,
      "duration": 0.75,
      "velocity": 0.71,
      "hand": "right"
    },
    {
      "midi": 82,
      "time": 83,
      "duration": 0.75,
      "velocity": 0.71,
      "hand": "right"
    },
    {
      "midi": 75,
      "time": 83.25,
      "duration": 0.25,
      "velocity": 0.71,
      "hand": "right"
    },
    {
      "midi": 79,
      "time": 83.5,
      "duration": 0.5,
      "velocity": 0.71,
      "hand": "right"
    },
    {
      "midi": 71,
      "time": 83.75,
      "duration": 0.25,
      "velocity": 0.71,
      "hand": "right"
    },
    {
      "midi": 83,
      "time": 83.75,
      "duration": 0.25,
      "velocity": 0.71,
      "hand": "right"
    },
    {
      "midi": 32,
      "time": 84,
      "duration": 0.25,
      "velocity": 0.71,
      "hand": "left"
    },
    {
      "midi": 71,
      "time": 84,
      "duration": 0.5,
      "velocity": 0.71,
      "hand": "right"
    },
    {
      "midi": 75,
      "time": 84,
      "duration": 1,
      "velocity": 0.71,
      "hand": "right"
    },
    {
      "midi": 79,
      "time": 84,
      "duration": 0.5,
      "velocity": 0.71,
      "hand": "right"
    },
    {
      "midi": 83,
      "time": 84,
      "duration": 0.5,
      "velocity": 0.71,
      "hand": "right"
    },
    {
      "midi": 44,
      "time": 84.25,
      "duration": 0.25,
      "velocity": 0.71,
      "hand": "left"
    },
    {
      "midi": 51,
      "time": 84.5,
      "duration": 0.25,
      "velocity": 0.71,
      "hand": "left"
    },
    {
      "midi": 72,
      "time": 84.5,
      "duration": 0.5,
      "velocity": 0.71,
      "hand": "right"
    },
    {
      "midi": 80,
      "time": 84.5,
      "duration": 0.5,
      "velocity": 0.71,
      "hand": "right"
    },
    {
      "midi": 84,
      "time": 84.5,
      "duration": 0.5,
      "velocity": 0.71,
      "hand": "right"
    },
    {
      "midi": 60,
      "time": 84.75,
      "duration": 0.25,
      "velocity": 0.71,
      "hand": "right"
    },
    {
      "midi": 58,
      "time": 85,
      "duration": 0.25,
      "velocity": 0.71,
      "hand": "left"
    },
    {
      "midi": 56,
      "time": 85.25,
      "duration": 0.25,
      "velocity": 0.71,
      "hand": "left"
    },
    {
      "midi": 63,
      "time": 85.5,
      "duration": 0.25,
      "velocity": 0.71,
      "hand": "right"
    },
    {
      "midi": 72,
      "time": 85.75,
      "duration": 0.25,
      "velocity": 0.71,
      "hand": "right"
    },
    {
      "midi": 70,
      "time": 86,
      "duration": 0.25,
      "velocity": 0.71,
      "hand": "right"
    },
    {
      "midi": 68,
      "time": 86.25,
      "duration": 0.25,
      "velocity": 0.71,
      "hand": "right"
    },
    {
      "midi": 72,
      "time": 86.5,
      "duration": 0.25,
      "velocity": 0.71,
      "hand": "right"
    },
    {
      "midi": 73,
      "time": 86.75,
      "duration": 0.25,
      "velocity": 0.71,
      "hand": "right"
    },
    {
      "midi": 75,
      "time": 87,
      "duration": 1,
      "velocity": 0.71,
      "hand": "right"
    },
    {
      "midi": 87,
      "time": 87,
      "duration": 0.875,
      "velocity": 0.71,
      "hand": "right"
    },
    {
      "midi": 78,
      "time": 87.25,
      "duration": 0.25,
      "velocity": 0.71,
      "hand": "right"
    },
    {
      "midi": 84,
      "time": 87.5,
      "duration": 0.25,
      "velocity": 0.71,
      "hand": "right"
    },
    {
      "midi": 82,
      "time": 87.75,
      "duration": 0.25,
      "velocity": 0.71,
      "hand": "right"
    },
    {
      "midi": 87,
      "time": 87.875,
      "duration": 0.125,
      "velocity": 0.71,
      "hand": "right"
    },
    {
      "midi": 32,
      "time": 88,
      "duration": 0.25,
      "velocity": 0.71,
      "hand": "left"
    },
    {
      "midi": 75,
      "time": 88,
      "duration": 2,
      "velocity": 0.71,
      "hand": "right"
    },
    {
      "midi": 78,
      "time": 88,
      "duration": 2,
      "velocity": 0.71,
      "hand": "right"
    },
    {
      "midi": 82,
      "time": 88,
      "duration": 1.75,
      "velocity": 0.71,
      "hand": "right"
    },
    {
      "midi": 87,
      "time": 88,
      "duration": 2,
      "velocity": 0.71,
      "hand": "right"
    },
    {
      "midi": 44,
      "time": 88.25,
      "duration": 0.25,
      "velocity": 0.71,
      "hand": "left"
    },
    {
      "midi": 51,
      "time": 88.5,
      "duration": 0.25,
      "velocity": 0.71,
      "hand": "left"
    },
    {
      "midi": 60,
      "time": 88.75,
      "duration": 0.25,
      "velocity": 0.71,
      "hand": "right"
    },
    {
      "midi": 58,
      "time": 89,
      "duration": 0.25,
      "velocity": 0.71,
      "hand": "left"
    },
    {
      "midi": 56,
      "time": 89.25,
      "duration": 0.25,
      "velocity": 0.71,
      "hand": "left"
    },
    {
      "midi": 63,
      "time": 89.5,
      "duration": 0.25,
      "velocity": 0.71,
      "hand": "right"
    },
    {
      "midi": 72,
      "time": 89.75,
      "duration": 0.25,
      "velocity": 0.71,
      "hand": "right"
    },
    {
      "midi": 80,
      "time": 89.75,
      "duration": 0.25,
      "velocity": 0.71,
      "hand": "right"
    },
    {
      "midi": 70,
      "time": 90,
      "duration": 0.25,
      "velocity": 0.71,
      "hand": "right"
    },
    {
      "midi": 68,
      "time": 90.25,
      "duration": 0.25,
      "velocity": 0.71,
      "hand": "right"
    },
    {
      "midi": 72,
      "time": 90.5,
      "duration": 0.25,
      "velocity": 0.71,
      "hand": "right"
    },
    {
      "midi": 73,
      "time": 90.75,
      "duration": 0.25,
      "velocity": 0.71,
      "hand": "right"
    },
    {
      "midi": 75,
      "time": 91,
      "duration": 0.75,
      "velocity": 0.71,
      "hand": "right"
    },
    {
      "midi": 87,
      "time": 91,
      "duration": 0.75,
      "velocity": 0.71,
      "hand": "right"
    },
    {
      "midi": 78,
      "time": 91.25,
      "duration": 0.25,
      "velocity": 0.71,
      "hand": "right"
    },
    {
      "midi": 84,
      "time": 91.5,
      "duration": 0.25,
      "velocity": 0.71,
      "hand": "right"
    },
    {
      "midi": 42,
      "time": 91.75,
      "duration": 0.5,
      "velocity": 0.71,
      "hand": "left"
    },
    {
      "midi": 76,
      "time": 91.75,
      "duration": 0.25,
      "velocity": 0.71,
      "hand": "right"
    },
    {
      "midi": 82,
      "time": 91.75,
      "duration": 0.25,
      "velocity": 0.71,
      "hand": "right"
    },
    {
      "midi": 88,
      "time": 91.75,
      "duration": 0.25,
      "velocity": 0.71,
      "hand": "right"
    },
    {
      "midi": 77,
      "time": 92,
      "duration": 1,
      "velocity": 0.71,
      "hand": "right"
    },
    {
      "midi": 81,
      "time": 92,
      "duration": 1,
      "velocity": 0.71,
      "hand": "right"
    },
    {
      "midi": 89,
      "time": 92,
      "duration": 1,
      "velocity": 0.71,
      "hand": "right"
    },
    {
      "midi": 41,
      "time": 92.25,
      "duration": 0.25,
      "velocity": 0.71,
      "hand": "left"
    },
    {
      "midi": 48,
      "time": 92.5,
      "duration": 0.25,
      "velocity": 0.71,
      "hand": "left"
    },
    {
      "midi": 57,
      "time": 92.75,
      "duration": 0.25,
      "velocity": 0.71,
      "hand": "left"
    },
    {
      "midi": 55,
      "time": 93,
      "duration": 0.25,
      "velocity": 0.71,
      "hand": "left"
    },
    {
      "midi": 72,
      "time": 93,
      "duration": 0.5,
      "velocity": 0.71,
      "hand": "right"
    },
    {
      "midi": 81,
      "time": 93,
      "duration": 0.5,
      "velocity": 0.71,
      "hand": "right"
    },
    {
      "midi": 84,
      "time": 93,
      "duration": 0.5,
      "velocity": 0.71,
      "hand": "right"
    },
    {
      "midi": 53,
      "time": 93.25,
      "duration": 0.25,
      "velocity": 0.71,
      "hand": "left"
    },
    {
      "midi": 60,
      "time": 93.5,
      "duration": 0.25,
      "velocity": 0.71,
      "hand": "right"
    },
    {
      "midi": 69,
      "time": 93.75,
      "duration": 0.25,
      "velocity": 0.71,
      "hand": "right"
    },
    {
      "midi": 67,
      "time": 94,
      "duration": 0.25,
      "velocity": 0.71,
      "hand": "right"
    },
    {
      "midi": 65,
      "time": 94.25,
      "duration": 0.25,
      "velocity": 0.71,
      "hand": "right"
    },
    {
      "midi": 69,
      "time": 94.5,
      "duration": 0.25,
      "velocity": 0.71,
      "hand": "right"
    },
    {
      "midi": 70,
      "time": 94.75,
      "duration": 0.25,
      "velocity": 0.71,
      "hand": "right"
    },
    {
      "midi": 72,
      "time": 95,
      "duration": 1,
      "velocity": 0.71,
      "hand": "right"
    },
    {
      "midi": 84,
      "time": 95,
      "duration": 0.875,
      "velocity": 0.71,
      "hand": "right"
    },
    {
      "midi": 77,
      "time": 95.25,
      "duration": 0.25,
      "velocity": 0.71,
      "hand": "right"
    },
    {
      "midi": 81,
      "time": 95.5,
      "duration": 0.25,
      "velocity": 0.71,
      "hand": "right"
    },
    {
      "midi": 79,
      "time": 95.75,
      "duration": 0.25,
      "velocity": 0.71,
      "hand": "right"
    },
    {
      "midi": 84,
      "time": 95.875,
      "duration": 0.125,
      "velocity": 0.71,
      "hand": "right"
    },
    {
      "midi": 29,
      "time": 96,
      "duration": 0.25,
      "velocity": 0.71,
      "hand": "left"
    },
    {
      "midi": 72,
      "time": 96,
      "duration": 2,
      "velocity": 0.71,
      "hand": "right"
    },
    {
      "midi": 79,
      "time": 96,
      "duration": 1.75,
      "velocity": 0.71,
      "hand": "right"
    },
    {
      "midi": 81,
      "time": 96,
      "duration": 2,
      "velocity": 0.71,
      "hand": "right"
    },
    {
      "midi": 84,
      "time": 96,
      "duration": 2,
      "velocity": 0.71,
      "hand": "right"
    },
    {
      "midi": 41,
      "time": 96.25,
      "duration": 0.25,
      "velocity": 0.71,
      "hand": "left"
    },
    {
      "midi": 48,
      "time": 96.5,
      "duration": 0.25,
      "velocity": 0.71,
      "hand": "left"
    },
    {
      "midi": 57,
      "time": 96.75,
      "duration": 0.25,
      "velocity": 0.71,
      "hand": "left"
    },
    {
      "midi": 55,
      "time": 97,
      "duration": 0.25,
      "velocity": 0.71,
      "hand": "left"
    },
    {
      "midi": 53,
      "time": 97.25,
      "duration": 0.25,
      "velocity": 0.71,
      "hand": "left"
    },
    {
      "midi": 60,
      "time": 97.5,
      "duration": 0.25,
      "velocity": 0.71,
      "hand": "right"
    },
    {
      "midi": 69,
      "time": 97.75,
      "duration": 0.25,
      "velocity": 0.71,
      "hand": "right"
    },
    {
      "midi": 77,
      "time": 97.75,
      "duration": 0.25,
      "velocity": 0.71,
      "hand": "right"
    },
    {
      "midi": 67,
      "time": 98,
      "duration": 0.25,
      "velocity": 0.71,
      "hand": "right"
    },
    {
      "midi": 65,
      "time": 98.25,
      "duration": 0.25,
      "velocity": 0.71,
      "hand": "right"
    },
    {
      "midi": 69,
      "time": 98.5,
      "duration": 0.25,
      "velocity": 0.71,
      "hand": "right"
    },
    {
      "midi": 70,
      "time": 98.75,
      "duration": 0.25,
      "velocity": 0.71,
      "hand": "right"
    },
    {
      "midi": 72,
      "time": 99,
      "duration": 0.75,
      "velocity": 0.71,
      "hand": "right"
    },
    {
      "midi": 84,
      "time": 99,
      "duration": 0.75,
      "velocity": 0.71,
      "hand": "right"
    },
    {
      "midi": 77,
      "time": 99.25,
      "duration": 0.25,
      "velocity": 0.71,
      "hand": "right"
    },
    {
      "midi": 81,
      "time": 99.5,
      "duration": 0.5,
      "velocity": 0.71,
      "hand": "right"
    },
    {
      "midi": 73,
      "time": 99.75,
      "duration": 0.25,
      "velocity": 0.71,
      "hand": "right"
    },
    {
      "midi": 85,
      "time": 99.75,
      "duration": 0.25,
      "velocity": 0.71,
      "hand": "right"
    },
    {
      "midi": 28,
      "time": 100,
      "duration": 0.25,
      "velocity": 0.71,
      "hand": "left"
    },
    {
      "midi": 73,
      "time": 100,
      "duration": 2,
      "velocity": 0.71,
      "hand": "right"
    },
    {
      "midi": 76,
      "time": 100,
      "duration": 2,
      "velocity": 0.71,
      "hand": "right"
    },
    {
      "midi": 81,
      "time": 100,
      "duration": 2,
      "velocity": 0.71,
      "hand": "right"
    },
    {
      "midi": 85,
      "time": 100,
      "duration": 2,
      "velocity": 0.71,
      "hand": "right"
    },
    {
      "midi": 40,
      "time": 100.25,
      "duration": 0.25,
      "velocity": 0.71,
      "hand": "left"
    },
    {
      "midi": 45,
      "time": 100.5,
      "duration": 0.25,
      "velocity": 0.71,
      "hand": "left"
    },
    {
      "midi": 52,
      "time": 100.75,
      "duration": 0.25,
      "velocity": 0.71,
      "hand": "left"
    },
    {
      "midi": 54,
      "time": 101,
      "duration": 0.25,
      "velocity": 0.71,
      "hand": "left"
    },
    {
      "midi": 52,
      "time": 101.25,
      "duration": 0.25,
      "velocity": 0.71,
      "hand": "left"
    },
    {
      "midi": 61,
      "time": 101.5,
      "duration": 0.25,
      "velocity": 0.71,
      "hand": "right"
    },
    {
      "midi": 69,
      "time": 101.75,
      "duration": 0.25,
      "velocity": 0.71,
      "hand": "right"
    },
    {
      "midi": 71,
      "time": 102,
      "duration": 0.5,
      "velocity": 0.71,
      "hand": "right"
    },
    {
      "midi": 78,
      "time": 102,
      "duration": 1,
      "velocity": 0.71,
      "hand": "right"
    },
    {
      "midi": 83,
      "time": 102,
      "duration": 0.5,
      "velocity": 0.71,
      "hand": "right"
    },
    {
      "midi": 39,
      "time": 102.25,
      "duration": 0.25,
      "velocity": 0.71,
      "hand": "left"
    },
    {
      "midi": 47,
      "time": 102.5,
      "duration": 0.25,
      "velocity": 0.71,
      "hand": "left"
    },
    {
      "midi": 69,
      "time": 102.5,
      "duration": 0.5,
      "velocity": 0.71,
      "hand": "right"
    },
    {
      "midi": 81,
      "time": 102.5,
      "duration": 0.5,
      "velocity": 0.71,
      "hand": "right"
    },
    {
      "midi": 54,
      "time": 102.75,
      "duration": 0.25,
      "velocity": 0.71,
      "hand": "left"
    },
    {
      "midi": 61,
      "time": 103,
      "duration": 0.5,
      "velocity": 0.71,
      "hand": "right"
    },
    {
      "midi": 66,
      "time": 103,
      "duration": 0.5,
      "velocity": 0.71,
      "hand": "right"
    },
    {
      "midi": 69,
      "time": 103,
      "duration": 0.5,
      "velocity": 0.71,
      "hand": "right"
    },
    {
      "midi": 71,
      "time": 103,
      "duration": 0.5,
      "velocity": 0.71,
      "hand": "right"
    },
    {
      "midi": 78,
      "time": 103,
      "duration": 0.5,
      "velocity": 0.71,
      "hand": "right"
    },
    {
      "midi": 51,
      "time": 103.25,
      "duration": 0.25,
      "velocity": 0.71,
      "hand": "left"
    },
    {
      "midi": 59,
      "time": 103.5,
      "duration": 0.5,
      "velocity": 0.71,
      "hand": "left"
    },
    {
      "midi": 69,
      "time": 103.5,
      "duration": 0.25,
      "velocity": 0.71,
      "hand": "right"
    },
    {
      "midi": 71,
      "time": 103.5,
      "duration": 0.5,
      "velocity": 0.71,
      "hand": "right"
    },
    {
      "midi": 81,
      "time": 103.5,
      "duration": 0.5,
      "velocity": 0.71,
      "hand": "right"
    },
    {
      "midi": 69,
      "time": 103.75,
      "duration": 0.25,
      "velocity": 0.71,
      "hand": "right"
    },
    {
      "midi": 64,
      "time": 104,
      "duration": 2,
      "velocity": 0.71,
      "hand": "right"
    },
    {
      "midi": 69,
      "time": 104,
      "duration": 2,
      "velocity": 0.71,
      "hand": "right"
    },
    {
      "midi": 73,
      "time": 104,
      "duration": 2,
      "velocity": 0.71,
      "hand": "right"
    },
    {
      "midi": 76,
      "time": 104,
      "duration": 2,
      "velocity": 0.71,
      "hand": "right"
    },
    {
      "midi": 40,
      "time": 104.25,
      "duration": 0.25,
      "velocity": 0.71,
      "hand": "left"
    },
    {
      "midi": 45,
      "time": 104.5,
      "duration": 0.25,
      "velocity": 0.71,
      "hand": "left"
    },
    {
      "midi": 52,
      "time": 104.75,
      "duration": 0.25,
      "velocity": 0.71,
      "hand": "left"
    },
    {
      "midi": 54,
      "time": 105,
      "duration": 0.25,
      "velocity": 0.71,
      "hand": "left"
    },
    {
      "midi": 52,
      "time": 105.25,
      "duration": 0.25,
      "velocity": 0.71,
      "hand": "left"
    },
    {
      "midi": 62,
      "time": 105.5,
      "duration": 0.25,
      "velocity": 0.71,
      "hand": "right"
    },
    {
      "midi": 61,
      "time": 105.75,
      "duration": 0.25,
      "velocity": 0.71,
      "hand": "right"
    },
    {
      "midi": 28,
      "time": 106,
      "duration": 0.25,
      "velocity": 0.71,
      "hand": "left"
    },
    {
      "midi": 62,
      "time": 106,
      "duration": 2,
      "velocity": 0.71,
      "hand": "right"
    },
    {
      "midi": 64,
      "time": 106,
      "duration": 2,
      "velocity": 0.71,
      "hand": "right"
    },
    {
      "midi": 68,
      "time": 106,
      "duration": 2,
      "velocity": 0.71,
      "hand": "right"
    },
    {
      "midi": 73,
      "time": 106,
      "duration": 1.75,
      "velocity": 0.71,
      "hand": "right"
    },
    {
      "midi": 76,
      "time": 106,
      "duration": 1.75,
      "velocity": 0.71,
      "hand": "right"
    },
    {
      "midi": 40,
      "time": 106.25,
      "duration": 0.25,
      "velocity": 0.71,
      "hand": "left"
    },
    {
      "midi": 47,
      "time": 106.5,
      "duration": 0.25,
      "velocity": 0.71,
      "hand": "left"
    },
    {
      "midi": 52,
      "time": 106.75,
      "duration": 0.25,
      "velocity": 0.71,
      "hand": "left"
    },
    {
      "midi": 54,
      "time": 107,
      "duration": 0.25,
      "velocity": 0.71,
      "hand": "left"
    },
    {
      "midi": 52,
      "time": 107.25,
      "duration": 0.25,
      "velocity": 0.71,
      "hand": "left"
    },
    {
      "midi": 61,
      "time": 107.5,
      "duration": 0.25,
      "velocity": 0.71,
      "hand": "right"
    },
    {
      "midi": 59,
      "time": 107.75,
      "duration": 0.25,
      "velocity": 0.71,
      "hand": "left"
    },
    {
      "midi": 74,
      "time": 107.75,
      "duration": 0.25,
      "velocity": 0.71,
      "hand": "right"
    },
    {
      "midi": 29,
      "time": 108,
      "duration": 0.25,
      "velocity": 0.71,
      "hand": "left"
    },
    {
      "midi": 62,
      "time": 108,
      "duration": 0.5,
      "velocity": 0.71,
      "hand": "right"
    },
    {
      "midi": 68,
      "time": 108,
      "duration": 0.5,
      "velocity": 0.71,
      "hand": "right"
    },
    {
      "midi": 74,
      "time": 108,
      "duration": 0.5,
      "velocity": 0.71,
      "hand": "right"
    },
    {
      "midi": 41,
      "time": 108.25,
      "duration": 0.25,
      "velocity": 0.71,
      "hand": "left"
    },
    {
      "midi": 48,
      "time": 108.5,
      "duration": 0.25,
      "velocity": 0.71,
      "hand": "left"
    },
    {
      "midi": 60,
      "time": 108.5,
      "duration": 1,
      "velocity": 0.71,
      "hand": "right"
    },
    {
      "midi": 69,
      "time": 108.5,
      "duration": 1,
      "velocity": 0.71,
      "hand": "right"
    },
    {
      "midi": 72,
      "time": 108.5,
      "duration": 1,
      "velocity": 0.71,
      "hand": "right"
    },
    {
      "midi": 57,
      "time": 108.75,
      "duration": 0.25,
      "velocity": 0.71,
      "hand": "left"
    },
    {
      "midi": 55,
      "time": 109,
      "duration": 0.25,
      "velocity": 0.71,
      "hand": "left"
    },
    {
      "midi": 53,
      "time": 109.25,
      "duration": 0.25,
      "velocity": 0.71,
      "hand": "left"
    },
    {
      "midi": 60,
      "time": 109.5,
      "duration": 0.25,
      "velocity": 0.71,
      "hand": "right"
    },
    {
      "midi": 69,
      "time": 109.5,
      "duration": 0.25,
      "velocity": 0.71,
      "hand": "right"
    },
    {
      "midi": 72,
      "time": 109.5,
      "duration": 0.5,
      "velocity": 0.71,
      "hand": "right"
    },
    {
      "midi": 81,
      "time": 109.5,
      "duration": 0.5,
      "velocity": 0.71,
      "hand": "right"
    },
    {
      "midi": 69,
      "time": 109.75,
      "duration": 0.25,
      "velocity": 0.71,
      "hand": "right"
    },
    {
      "midi": 67,
      "time": 110,
      "duration": 0.5,
      "velocity": 0.71,
      "hand": "right"
    },
    {
      "midi": 70,
      "time": 110,
      "duration": 1,
      "velocity": 0.71,
      "hand": "right"
    },
    {
      "midi": 74,
      "time": 110,
      "duration": 1,
      "velocity": 0.71,
      "hand": "right"
    },
    {
      "midi": 79,
      "time": 110,
      "duration": 0.5,
      "velocity": 0.71,
      "hand": "right"
    },
    {
      "midi": 34,
      "time": 110.25,
      "duration": 0.25,
      "velocity": 0.71,
      "hand": "left"
    },
    {
      "midi": 41,
      "time": 110.5,
      "duration": 0.25,
      "velocity": 0.71,
      "hand": "left"
    },
    {
      "midi": 65,
      "time": 110.5,
      "duration": 0.5,
      "velocity": 0.71,
      "hand": "right"
    },
    {
      "midi": 77,
      "time": 110.5,
      "duration": 0.5,
      "velocity": 0.71,
      "hand": "right"
    },
    {
      "midi": 50,
      "time": 110.75,
      "duration": 0.25,
      "velocity": 0.71,
      "hand": "left"
    },
    {
      "midi": 48,
      "time": 111,
      "duration": 0.25,
      "velocity": 0.71,
      "hand": "left"
    },
    {
      "midi": 62,
      "time": 111,
      "duration": 0.5,
      "velocity": 0.71,
      "hand": "right"
    },
    {
      "midi": 70,
      "time": 111,
      "duration": 0.5,
      "velocity": 0.71,
      "hand": "right"
    },
    {
      "midi": 74,
      "time": 111,
      "duration": 0.5,
      "velocity": 0.71,
      "hand": "right"
    },
    {
      "midi": 46,
      "time": 111.25,
      "duration": 0.25,
      "velocity": 0.71,
      "hand": "left"
    },
    {
      "midi": 53,
      "time": 111.5,
      "duration": 0.25,
      "velocity": 0.71,
      "hand": "left"
    },
    {
      "midi": 65,
      "time": 111.5,
      "duration": 0.5,
      "velocity": 0.71,
      "hand": "right"
    },
    {
      "midi": 74,
      "time": 111.5,
      "duration": 0.5,
      "velocity": 0.71,
      "hand": "right"
    },
    {
      "midi": 77,
      "time": 111.5,
      "duration": 0.5,
      "velocity": 0.71,
      "hand": "right"
    },
    {
      "midi": 62,
      "time": 111.75,
      "duration": 0.25,
      "velocity": 0.71,
      "hand": "right"
    },
    {
      "midi": 36,
      "time": 112,
      "duration": 0.25,
      "velocity": 0.71,
      "hand": "left"
    },
    {
      "midi": 60,
      "time": 112,
      "duration": 1,
      "velocity": 0.71,
      "hand": "right"
    },
    {
      "midi": 65,
      "time": 112,
      "duration": 1,
      "velocity": 0.71,
      "hand": "right"
    },
    {
      "midi": 69,
      "time": 112,
      "duration": 1,
      "velocity": 0.71,
      "hand": "right"
    },
    {
      "midi": 72,
      "time": 112,
      "duration": 1,
      "velocity": 0.71,
      "hand": "right"
    },
    {
      "midi": 48,
      "time": 112.25,
      "duration": 0.25,
      "velocity": 0.71,
      "hand": "left"
    },
    {
      "midi": 53,
      "time": 112.5,
      "duration": 0.25,
      "velocity": 0.71,
      "hand": "left"
    },
    {
      "midi": 57,
      "time": 112.75,
      "duration": 0.25,
      "velocity": 0.71,
      "hand": "left"
    },
    {
      "midi": 55,
      "time": 113,
      "duration": 0.25,
      "velocity": 0.71,
      "hand": "left"
    },
    {
      "midi": 62,
      "time": 113,
      "duration": 1,
      "velocity": 0.71,
      "hand": "right"
    },
    {
      "midi": 69,
      "time": 113,
      "duration": 1,
      "velocity": 0.71,
      "hand": "right"
    },
    {
      "midi": 72,
      "time": 113,
      "duration": 1,
      "velocity": 0.71,
      "hand": "right"
    },
    {
      "midi": 74,
      "time": 113,
      "duration": 1,
      "velocity": 0.71,
      "hand": "right"
    },
    {
      "midi": 54,
      "time": 113.25,
      "duration": 0.25,
      "velocity": 0.71,
      "hand": "left"
    },
    {
      "midi": 58,
      "time": 113.5,
      "duration": 0.25,
      "velocity": 0.71,
      "hand": "left"
    },
    {
      "midi": 57,
      "time": 113.75,
      "duration": 0.25,
      "velocity": 0.71,
      "hand": "left"
    },
    {
      "midi": 48,
      "time": 114,
      "duration": 2,
      "velocity": 0.71,
      "hand": "left"
    },
    {
      "midi": 62,
      "time": 114,
      "duration": 1.5,
      "velocity": 0.71,
      "hand": "right"
    },
    {
      "midi": 67,
      "time": 114,
      "duration": 1.5,
      "velocity": 0.71,
      "hand": "right"
    },
    {
      "midi": 70,
      "time": 114,
      "duration": 1.5,
      "velocity": 0.71,
      "hand": "right"
    },
    {
      "midi": 74,
      "time": 114,
      "duration": 1.5,
      "velocity": 0.71,
      "hand": "right"
    },
    {
      "midi": 54,
      "time": 114.25,
      "duration": 0.25,
      "velocity": 0.71,
      "hand": "left"
    },
    {
      "midi": 55,
      "time": 114.5,
      "duration": 0.25,
      "velocity": 0.71,
      "hand": "left"
    },
    {
      "midi": 58,
      "time": 114.75,
      "duration": 0.25,
      "velocity": 0.71,
      "hand": "left"
    },
    {
      "midi": 57,
      "time": 115,
      "duration": 0.25,
      "velocity": 0.71,
      "hand": "left"
    },
    {
      "midi": 55,
      "time": 115.25,
      "duration": 0.25,
      "velocity": 0.71,
      "hand": "left"
    },
    {
      "midi": 62,
      "time": 115.5,
      "duration": 0.25,
      "velocity": 0.71,
      "hand": "right"
    },
    {
      "midi": 64,
      "time": 115.5,
      "duration": 0.5,
      "velocity": 0.71,
      "hand": "right"
    },
    {
      "midi": 70,
      "time": 115.5,
      "duration": 0.5,
      "velocity": 0.71,
      "hand": "right"
    },
    {
      "midi": 72,
      "time": 115.5,
      "duration": 0.5,
      "velocity": 0.71,
      "hand": "right"
    },
    {
      "midi": 76,
      "time": 115.5,
      "duration": 0.5,
      "velocity": 0.71,
      "hand": "right"
    },
    {
      "midi": 60,
      "time": 115.75,
      "duration": 0.25,
      "velocity": 0.71,
      "hand": "right"
    },
    {
      "midi": 64,
      "time": 116,
      "duration": 0.75,
      "velocity": 0.71,
      "hand": "right"
    },
    {
      "midi": 69,
      "time": 116,
      "duration": 1,
      "velocity": 0.71,
      "hand": "right"
    },
    {
      "midi": 72,
      "time": 116,
      "duration": 1,
      "velocity": 0.71,
      "hand": "right"
    },
    {
      "midi": 76,
      "time": 116,
      "duration": 0.75,
      "velocity": 0.71,
      "hand": "right"
    },
    {
      "midi": 41,
      "time": 116.25,
      "duration": 0.25,
      "velocity": 0.71,
      "hand": "left"
    },
    {
      "midi": 48,
      "time": 116.5,
      "duration": 0.25,
      "velocity": 0.71,
      "hand": "left"
    },
    {
      "midi": 57,
      "time": 116.75,
      "duration": 0.25,
      "velocity": 0.71,
      "hand": "left"
    },
    {
      "midi": 65,
      "time": 116.75,
      "duration": 0.25,
      "velocity": 0.71,
      "hand": "right"
    },
    {
      "midi": 77,
      "time": 116.75,
      "duration": 0.25,
      "velocity": 0.71,
      "hand": "right"
    },
    {
      "midi": 55,
      "time": 117,
      "duration": 0.25,
      "velocity": 0.71,
      "hand": "left"
    },
    {
      "midi": 53,
      "time": 117.25,
      "duration": 0.25,
      "velocity": 0.71,
      "hand": "left"
    },
    {
      "midi": 60,
      "time": 117.5,
      "duration": 0.25,
      "velocity": 0.71,
      "hand": "right"
    },
    {
      "midi": 69,
      "time": 117.75,
      "duration": 0.25,
      "velocity": 0.71,
      "hand": "right"
    },
    {
      "midi": 65,
      "time": 118,
      "duration": 0.25,
      "velocity": 0.71,
      "hand": "right"
    },
    {
      "midi": 60,
      "time": 118.25,
      "duration": 0.25,
      "velocity": 0.71,
      "hand": "right"
    },
    {
      "midi": 57,
      "time": 118.5,
      "duration": 0.25,
      "velocity": 0.71,
      "hand": "left"
    },
    {
      "midi": 61,
      "time": 118.75,
      "duration": 0.25,
      "velocity": 0.71,
      "hand": "right"
    },
    {
      "midi": 60,
      "time": 119,
      "duration": 0.25,
      "velocity": 0.71,
      "hand": "right"
    },
    {
      "midi": 57,
      "time": 119.25,
      "duration": 0.25,
      "velocity": 0.71,
      "hand": "left"
    },
    {
      "midi": 53,
      "time": 119.5,
      "duration": 0.25,
      "velocity": 0.71,
      "hand": "left"
    },
    {
      "midi": 69,
      "time": 119.75,
      "duration": 0.25,
      "velocity": 0.71,
      "hand": "right"
    },
    {
      "midi": 65,
      "time": 120,
      "duration": 0.25,
      "velocity": 0.71,
      "hand": "right"
    },
    {
      "midi": 60,
      "time": 120.25,
      "duration": 0.25,
      "velocity": 0.71,
      "hand": "right"
    },
    {
      "midi": 57,
      "time": 120.5,
      "duration": 0.25,
      "velocity": 0.71,
      "hand": "left"
    },
    {
      "midi": 61,
      "time": 120.75,
      "duration": 0.25,
      "velocity": 0.71,
      "hand": "right"
    },
    {
      "midi": 60,
      "time": 121,
      "duration": 0.25,
      "velocity": 0.71,
      "hand": "right"
    },
    {
      "midi": 57,
      "time": 121.25,
      "duration": 0.25,
      "velocity": 0.71,
      "hand": "left"
    },
    {
      "midi": 53,
      "time": 121.5,
      "duration": 0.25,
      "velocity": 0.71,
      "hand": "left"
    },
    {
      "midi": 58,
      "time": 121.75,
      "duration": 0.25,
      "velocity": 0.71,
      "hand": "left"
    },
    {
      "midi": 57,
      "time": 122,
      "duration": 0.25,
      "velocity": 0.71,
      "hand": "left"
    },
    {
      "midi": 53,
      "time": 122.25,
      "duration": 0.25,
      "velocity": 0.71,
      "hand": "left"
    },
    {
      "midi": 48,
      "time": 122.5,
      "duration": 0.25,
      "velocity": 0.71,
      "hand": "left"
    },
    {
      "midi": 54,
      "time": 122.75,
      "duration": 0.25,
      "velocity": 0.71,
      "hand": "left"
    },
    {
      "midi": 53,
      "time": 123,
      "duration": 0.25,
      "velocity": 0.71,
      "hand": "left"
    },
    {
      "midi": 48,
      "time": 123.25,
      "duration": 0.25,
      "velocity": 0.71,
      "hand": "left"
    },
    {
      "midi": 45,
      "time": 123.5,
      "duration": 0.25,
      "velocity": 0.71,
      "hand": "left"
    },
    {
      "midi": 49,
      "time": 123.75,
      "duration": 0.25,
      "velocity": 0.71,
      "hand": "left"
    },
    {
      "midi": 41,
      "time": 124,
      "duration": 0.25,
      "velocity": 0.71,
      "hand": "left"
    },
    {
      "midi": 48,
      "time": 124.25,
      "duration": 0.25,
      "velocity": 0.71,
      "hand": "left"
    },
    {
      "midi": 57,
      "time": 124.5,
      "duration": 0.25,
      "velocity": 0.71,
      "hand": "left"
    },
    {
      "midi": 53,
      "time": 124.75,
      "duration": 1.25,
      "velocity": 0.71,
      "hand": "left"
    },
    {
      "midi": 65,
      "time": 125,
      "duration": 1,
      "velocity": 0.71,
      "hand": "right"
    },
    {
      "midi": 58,
      "time": 125.25,
      "duration": 0.25,
      "velocity": 0.71,
      "hand": "left"
    },
    {
      "midi": 59,
      "time": 125.5,
      "duration": 0.25,
      "velocity": 0.71,
      "hand": "left"
    },
    {
      "midi": 60,
      "time": 125.75,
      "duration": 0.25,
      "velocity": 0.71,
      "hand": "right"
    },
    {
      "midi": 61,
      "time": 125.75,
      "duration": 0.063,
      "velocity": 0.71,
      "hand": "right"
    },
    {
      "midi": 40,
      "time": 126,
      "duration": 0.25,
      "velocity": 0.71,
      "hand": "left"
    },
    {
      "midi": 49,
      "time": 126.25,
      "duration": 0.25,
      "velocity": 0.71,
      "hand": "left"
    },
    {
      "midi": 58,
      "time": 126.5,
      "duration": 0.25,
      "velocity": 0.71,
      "hand": "left"
    },
    {
      "midi": 54,
      "time": 126.75,
      "duration": 1.25,
      "velocity": 0.71,
      "hand": "left"
    },
    {
      "midi": 66,
      "time": 127,
      "duration": 1,
      "velocity": 0.71,
      "hand": "right"
    },
    {
      "midi": 59,
      "time": 127.25,
      "duration": 0.25,
      "velocity": 0.71,
      "hand": "left"
    },
    {
      "midi": 60,
      "time": 127.5,
      "duration": 0.25,
      "velocity": 0.71,
      "hand": "right"
    },
    {
      "midi": 61,
      "time": 127.75,
      "duration": 0.25,
      "velocity": 0.71,
      "hand": "right"
    },
    {
      "midi": 63,
      "time": 127.75,
      "duration": 0.063,
      "velocity": 0.71,
      "hand": "right"
    },
    {
      "midi": 39,
      "time": 128,
      "duration": 0.25,
      "velocity": 0.71,
      "hand": "left"
    },
    {
      "midi": 49,
      "time": 128.25,
      "duration": 0.25,
      "velocity": 0.71,
      "hand": "left"
    },
    {
      "midi": 58,
      "time": 128.5,
      "duration": 0.25,
      "velocity": 0.71,
      "hand": "left"
    },
    {
      "midi": 55,
      "time": 128.75,
      "duration": 1.25,
      "velocity": 0.71,
      "hand": "left"
    },
    {
      "midi": 67,
      "time": 129,
      "duration": 1,
      "velocity": 0.71,
      "hand": "right"
    },
    {
      "midi": 61,
      "time": 129.25,
      "duration": 0.25,
      "velocity": 0.71,
      "hand": "right"
    },
    {
      "midi": 63,
      "time": 129.5,
      "duration": 0.25,
      "velocity": 0.71,
      "hand": "right"
    },
    {
      "midi": 64,
      "time": 129.75,
      "duration": 0.25,
      "velocity": 0.71,
      "hand": "right"
    },
    {
      "midi": 66,
      "time": 129.75,
      "duration": 0.063,
      "velocity": 0.71,
      "hand": "right"
    },
    {
      "midi": 32,
      "time": 130,
      "duration": 0.25,
      "velocity": 0.71,
      "hand": "left"
    },
    {
      "midi": 44,
      "time": 130.25,
      "duration": 0.25,
      "velocity": 0.71,
      "hand": "left"
    },
    {
      "midi": 54,
      "time": 130.5,
      "duration": 0.25,
      "velocity": 0.71,
      "hand": "left"
    },
    {
      "midi": 57,
      "time": 130.75,
      "duration": 0.25,
      "velocity": 0.71,
      "hand": "left"
    },
    {
      "midi": 56,
      "time": 131,
      "duration": 0.75,
      "velocity": 0.71,
      "hand": "left"
    },
    {
      "midi": 68,
      "time": 131,
      "duration": 1,
      "velocity": 0.71,
      "hand": "right"
    },
    {
      "midi": 60,
      "time": 131.25,
      "duration": 0.25,
      "velocity": 0.71,
      "hand": "right"
    },
    {
      "midi": 64,
      "time": 131.5,
      "duration": 0.25,
      "velocity": 0.71,
      "hand": "right"
    },
    {
      "midi": 54,
      "time": 131.75,
      "duration": 0.25,
      "velocity": 0.71,
      "hand": "left"
    },
    {
      "midi": 63,
      "time": 131.75,
      "duration": 0.25,
      "velocity": 0.71,
      "hand": "right"
    },
    {
      "midi": 25,
      "time": 132,
      "duration": 0.25,
      "velocity": 0.71,
      "hand": "left"
    },
    {
      "midi": 52,
      "time": 132,
      "duration": 0.75,
      "velocity": 0.71,
      "hand": "left"
    },
    {
      "midi": 63,
      "time": 132,
      "duration": 0.75,
      "velocity": 0.71,
      "hand": "right"
    },
    {
      "midi": 37,
      "time": 132.25,
      "duration": 0.25,
      "velocity": 0.71,
      "hand": "left"
    },
    {
      "midi": 44,
      "time": 132.5,
      "duration": 0.25,
      "velocity": 0.71,
      "hand": "left"
    },
    {
      "midi": 52,
      "time": 132.75,
      "duration": 0.25,
      "velocity": 0.71,
      "hand": "left"
    },
    {
      "midi": 61,
      "time": 132.75,
      "duration": 0.25,
      "velocity": 0.71,
      "hand": "right"
    },
    {
      "midi": 51,
      "time": 133,
      "duration": 0.25,
      "velocity": 0.71,
      "hand": "left"
    },
    {
      "midi": 49,
      "time": 133.25,
      "duration": 0.25,
      "velocity": 0.71,
      "hand": "left"
    },
    {
      "midi": 56,
      "time": 133.5,
      "duration": 0.25,
      "velocity": 0.71,
      "hand": "left"
    },
    {
      "midi": 64,
      "time": 133.75,
      "duration": 0.25,
      "velocity": 0.71,
      "hand": "right"
    },
    {
      "midi": 63,
      "time": 134,
      "duration": 0.25,
      "velocity": 0.71,
      "hand": "right"
    },
    {
      "midi": 61,
      "time": 134.25,
      "duration": 0.25,
      "velocity": 0.71,
      "hand": "right"
    },
    {
      "midi": 64,
      "time": 134.5,
      "duration": 0.25,
      "velocity": 0.71,
      "hand": "right"
    },
    {
      "midi": 66,
      "time": 134.75,
      "duration": 0.25,
      "velocity": 0.71,
      "hand": "right"
    },
    {
      "midi": 68,
      "time": 135,
      "duration": 1,
      "velocity": 0.71,
      "hand": "right"
    },
    {
      "midi": 80,
      "time": 135,
      "duration": 1,
      "velocity": 0.71,
      "hand": "right"
    },
    {
      "midi": 73,
      "time": 135.25,
      "duration": 0.25,
      "velocity": 0.71,
      "hand": "right"
    },
    {
      "midi": 75,
      "time": 135.5,
      "duration": 0.25,
      "velocity": 0.71,
      "hand": "right"
    },
    {
      "midi": 76,
      "time": 135.75,
      "duration": 0.25,
      "velocity": 0.71,
      "hand": "right"
    },
    {
      "midi": 78,
      "time": 135.75,
      "duration": 0.063,
      "velocity": 0.71,
      "hand": "right"
    },
    {
      "midi": 68,
      "time": 136,
      "duration": 2,
      "velocity": 0.71,
      "hand": "right"
    },
    {
      "midi": 75,
      "time": 136,
      "duration": 1.75,
      "velocity": 0.71,
      "hand": "right"
    },
    {
      "midi": 80,
      "time": 136,
      "duration": 2,
      "velocity": 0.71,
      "hand": "right"
    },
    {
      "midi": 37,
      "time": 136.25,
      "duration": 0.25,
      "velocity": 0.71,
      "hand": "left"
    },
    {
      "midi": 44,
      "time": 136.5,
      "duration": 0.25,
      "velocity": 0.71,
      "hand": "left"
    },
    {
      "midi": 52,
      "time": 136.75,
      "duration": 0.25,
      "velocity": 0.71,
      "hand": "left"
    },
    {
      "midi": 51,
      "time": 137,
      "duration": 0.25,
      "velocity": 0.71,
      "hand": "left"
    },
    {
      "midi": 49,
      "time": 137.25,
      "duration": 0.25,
      "velocity": 0.71,
      "hand": "left"
    },
    {
      "midi": 56,
      "time": 137.5,
      "duration": 0.25,
      "velocity": 0.71,
      "hand": "left"
    },
    {
      "midi": 64,
      "time": 137.75,
      "duration": 0.25,
      "velocity": 0.71,
      "hand": "right"
    },
    {
      "midi": 73,
      "time": 137.75,
      "duration": 0.25,
      "velocity": 0.71,
      "hand": "right"
    },
    {
      "midi": 63,
      "time": 138,
      "duration": 0.25,
      "velocity": 0.71,
      "hand": "right"
    },
    {
      "midi": 61,
      "time": 138.25,
      "duration": 0.25,
      "velocity": 0.71,
      "hand": "right"
    },
    {
      "midi": 64,
      "time": 138.5,
      "duration": 0.25,
      "velocity": 0.71,
      "hand": "right"
    },
    {
      "midi": 66,
      "time": 138.75,
      "duration": 0.25,
      "velocity": 0.71,
      "hand": "right"
    },
    {
      "midi": 68,
      "time": 139,
      "duration": 0.75,
      "velocity": 0.71,
      "hand": "right"
    },
    {
      "midi": 80,
      "time": 139,
      "duration": 0.75,
      "velocity": 0.71,
      "hand": "right"
    },
    {
      "midi": 73,
      "time": 139.25,
      "duration": 0.25,
      "velocity": 0.71,
      "hand": "right"
    },
    {
      "midi": 76,
      "time": 139.5,
      "duration": 0.5,
      "velocity": 0.71,
      "hand": "right"
    },
    {
      "midi": 42,
      "time": 139.75,
      "duration": 0.5,
      "velocity": 0.71,
      "hand": "left"
    },
    {
      "midi": 70,
      "time": 139.75,
      "duration": 0.25,
      "velocity": 0.71,
      "hand": "right"
    },
    {
      "midi": 82,
      "time": 139.75,
      "duration": 0.25,
      "velocity": 0.71,
      "hand": "right"
    },
    {
      "midi": 70,
      "time": 140,
      "duration": 0.063,
      "velocity": 0.71,
      "hand": "right"
    },
    {
      "midi": 70,
      "time": 140,
      "duration": 0.75,
      "velocity": 0.71,
      "hand": "right"
    },
    {
      "midi": 76,
      "time": 140,
      "duration": 0.75,
      "velocity": 0.71,
      "hand": "right"
    },
    {
      "midi": 85,
      "time": 140,
      "duration": 0.75,
      "velocity": 0.71,
      "hand": "right"
    },
    {
      "midi": 35,
      "time": 140.25,
      "duration": 0.25,
      "velocity": 0.71,
      "hand": "left"
    },
    {
      "midi": 42,
      "time": 140.5,
      "duration": 0.25,
      "velocity": 0.71,
      "hand": "left"
    },
    {
      "midi": 51,
      "time": 140.75,
      "duration": 0.25,
      "velocity": 0.71,
      "hand": "left"
    },
    {
      "midi": 71,
      "time": 140.75,
      "duration": 0.25,
      "velocity": 0.71,
      "hand": "right"
    },
    {
      "midi": 75,
      "time": 140.75,
      "duration": 0.25,
      "velocity": 0.71,
      "hand": "right"
    },
    {
      "midi": 83,
      "time": 140.75,
      "duration": 0.25,
      "velocity": 0.71,
      "hand": "right"
    },
    {
      "midi": 49,
      "time": 141,
      "duration": 0.25,
      "velocity": 0.71,
      "hand": "left"
    },
    {
      "midi": 47,
      "time": 141.25,
      "duration": 0.25,
      "velocity": 0.71,
      "hand": "left"
    },
    {
      "midi": 54,
      "time": 141.5,
      "duration": 0.25,
      "velocity": 0.71,
      "hand": "left"
    },
    {
      "midi": 63,
      "time": 141.75,
      "duration": 0.25,
      "velocity": 0.71,
      "hand": "right"
    },
    {
      "midi": 61,
      "time": 142,
      "duration": 0.25,
      "velocity": 0.71,
      "hand": "right"
    },
    {
      "midi": 59,
      "time": 142.25,
      "duration": 0.25,
      "velocity": 0.71,
      "hand": "left"
    },
    {
      "midi": 63,
      "time": 142.5,
      "duration": 0.25,
      "velocity": 0.71,
      "hand": "right"
    },
    {
      "midi": 64,
      "time": 142.75,
      "duration": 0.25,
      "velocity": 0.71,
      "hand": "right"
    },
    {
      "midi": 66,
      "time": 143,
      "duration": 1,
      "velocity": 0.71,
      "hand": "right"
    },
    {
      "midi": 78,
      "time": 143,
      "duration": 1,
      "velocity": 0.71,
      "hand": "right"
    },
    {
      "midi": 71,
      "time": 143.25,
      "duration": 0.25,
      "velocity": 0.71,
      "hand": "right"
    },
    {
      "midi": 73,
      "time": 143.5,
      "duration": 0.25,
      "velocity": 0.71,
      "hand": "right"
    },
    {
      "midi": 74,
      "time": 143.75,
      "duration": 0.25,
      "velocity": 0.71,
      "hand": "right"
    },
    {
      "midi": 76,
      "time": 143.75,
      "duration": 0.063,
      "velocity": 0.71,
      "hand": "right"
    },
    {
      "midi": 66,
      "time": 144,
      "duration": 2,
      "velocity": 0.71,
      "hand": "right"
    },
    {
      "midi": 73,
      "time": 144,
      "duration": 1.75,
      "velocity": 0.71,
      "hand": "right"
    },
    {
      "midi": 78,
      "time": 144,
      "duration": 2,
      "velocity": 0.71,
      "hand": "right"
    },
    {
      "midi": 35,
      "time": 144.25,
      "duration": 0.25,
      "velocity": 0.71,
      "hand": "left"
    },
    {
      "midi": 42,
      "time": 144.5,
      "duration": 0.25,
      "velocity": 0.71,
      "hand": "left"
    },
    {
      "midi": 50,
      "time": 144.75,
      "duration": 0.25,
      "velocity": 0.71,
      "hand": "left"
    },
    {
      "midi": 49,
      "time": 145,
      "duration": 0.25,
      "velocity": 0.71,
      "hand": "left"
    },
    {
      "midi": 47,
      "time": 145.25,
      "duration": 0.25,
      "velocity": 0.71,
      "hand": "left"
    },
    {
      "midi": 54,
      "time": 145.5,
      "duration": 0.25,
      "velocity": 0.71,
      "hand": "left"
    },
    {
      "midi": 62,
      "time": 145.75,
      "duration": 0.25,
      "velocity": 0.71,
      "hand": "right"
    },
    {
      "midi": 71,
      "time": 145.75,
      "duration": 0.25,
      "velocity": 0.71,
      "hand": "right"
    },
    {
      "midi": 61,
      "time": 146,
      "duration": 0.25,
      "velocity": 0.71,
      "hand": "right"
    },
    {
      "midi": 59,
      "time": 146.25,
      "duration": 0.25,
      "velocity": 0.71,
      "hand": "left"
    },
    {
      "midi": 62,
      "time": 146.5,
      "duration": 0.25,
      "velocity": 0.71,
      "hand": "right"
    },
    {
      "midi": 64,
      "time": 146.75,
      "duration": 0.25,
      "velocity": 0.71,
      "hand": "right"
    },
    {
      "midi": 66,
      "time": 147,
      "duration": 0.75,
      "velocity": 0.71,
      "hand": "right"
    },
    {
      "midi": 78,
      "time": 147,
      "duration": 0.75,
      "velocity": 0.71,
      "hand": "right"
    },
    {
      "midi": 71,
      "time": 147.25,
      "duration": 0.25,
      "velocity": 0.71,
      "hand": "right"
    },
    {
      "midi": 74,
      "time": 147.5,
      "duration": 0.5,
      "velocity": 0.71,
      "hand": "right"
    },
    {
      "midi": 40,
      "time": 147.75,
      "duration": 0.5,
      "velocity": 0.71,
      "hand": "left"
    },
    {
      "midi": 68,
      "time": 147.75,
      "duration": 0.25,
      "velocity": 0.71,
      "hand": "right"
    },
    {
      "midi": 80,
      "time": 147.75,
      "duration": 0.25,
      "velocity": 0.71,
      "hand": "right"
    },
    {
      "midi": 68,
      "time": 148,
      "duration": 0.5,
      "velocity": 0.71,
      "hand": "right"
    },
    {
      "midi": 74,
      "time": 148,
      "duration": 0.5,
      "velocity": 0.71,
      "hand": "right"
    },
    {
      "midi": 83,
      "time": 148,
      "duration": 0.5,
      "velocity": 0.71,
      "hand": "right"
    },
    {
      "midi": 33,
      "time": 148.25,
      "duration": 0.25,
      "velocity": 0.71,
      "hand": "left"
    },
    {
      "midi": 40,
      "time": 148.5,
      "duration": 0.25,
      "velocity": 0.71,
      "hand": "left"
    },
    {
      "midi": 69,
      "time": 148.5,
      "duration": 1,
      "velocity": 0.71,
      "hand": "right"
    },
    {
      "midi": 73,
      "time": 148.5,
      "duration": 1,
      "velocity": 0.71,
      "hand": "right"
    },
    {
      "midi": 81,
      "time": 148.5,
      "duration": 1,
      "velocity": 0.71,
      "hand": "right"
    },
    {
      "midi": 49,
      "time": 148.75,
      "duration": 0.25,
      "velocity": 0.71,
      "hand": "left"
    },
    {
      "midi": 47,
      "time": 149,
      "duration": 0.25,
      "velocity": 0.71,
      "hand": "left"
    },
    {
      "midi": 45,
      "time": 149.25,
      "duration": 0.25,
      "velocity": 0.71,
      "hand": "left"
    },
    {
      "midi": 52,
      "time": 149.5,
      "duration": 0.25,
      "velocity": 0.71,
      "hand": "left"
    },
    {
      "midi": 68,
      "time": 149.5,
      "duration": 0.5,
      "velocity": 0.71,
      "hand": "right"
    },
    {
      "midi": 73,
      "time": 149.5,
      "duration": 0.5,
      "velocity": 0.71,
      "hand": "right"
    },
    {
      "midi": 80,
      "time": 149.5,
      "duration": 0.5,
      "velocity": 0.71,
      "hand": "right"
    },
    {
      "midi": 61,
      "time": 149.75,
      "duration": 0.25,
      "velocity": 0.71,
      "hand": "right"
    },
    {
      "midi": 59,
      "time": 150,
      "duration": 0.25,
      "velocity": 0.71,
      "hand": "left"
    },
    {
      "midi": 68,
      "time": 150,
      "duration": 1.75,
      "velocity": 0.71,
      "hand": "right"
    },
    {
      "midi": 73,
      "time": 150,
      "duration": 2,
      "velocity": 0.71,
      "hand": "right"
    },
    {
      "midi": 80,
      "time": 150,
      "duration": 1.75,
      "velocity": 0.71,
      "hand": "right"
    },
    {
      "midi": 57,
      "time": 150.25,
      "duration": 0.25,
      "velocity": 0.71,
      "hand": "left"
    },
    {
      "midi": 61,
      "time": 150.5,
      "duration": 0.25,
      "velocity": 0.71,
      "hand": "right"
    },
    {
      "midi": 66,
      "time": 150.75,
      "duration": 0.25,
      "velocity": 0.71,
      "hand": "right"
    },
    {
      "midi": 64,
      "time": 151,
      "duration": 0.25,
      "velocity": 0.71,
      "hand": "right"
    },
    {
      "midi": 61,
      "time": 151.25,
      "duration": 0.25,
      "velocity": 0.71,
      "hand": "right"
    },
    {
      "midi": 57,
      "time": 151.5,
      "duration": 0.25,
      "velocity": 0.71,
      "hand": "left"
    },
    {
      "midi": 63,
      "time": 151.75,
      "duration": 0.25,
      "velocity": 0.71,
      "hand": "right"
    },
    {
      "midi": 67,
      "time": 151.75,
      "duration": 0.25,
      "velocity": 0.71,
      "hand": "right"
    },
    {
      "midi": 79,
      "time": 151.75,
      "duration": 0.25,
      "velocity": 0.71,
      "hand": "right"
    },
    {
      "midi": 61,
      "time": 152,
      "duration": 0.25,
      "velocity": 0.71,
      "hand": "right"
    },
    {
      "midi": 57,
      "time": 152.25,
      "duration": 0.25,
      "velocity": 0.71,
      "hand": "left"
    },
    {
      "midi": 52,
      "time": 152.5,
      "duration": 0.25,
      "velocity": 0.71,
      "hand": "left"
    },
    {
      "midi": 66,
      "time": 152.75,
      "duration": 0.25,
      "velocity": 0.71,
      "hand": "right"
    },
    {
      "midi": 64,
      "time": 153,
      "duration": 0.25,
      "velocity": 0.71,
      "hand": "right"
    },
    {
      "midi": 61,
      "time": 153.25,
      "duration": 0.25,
      "velocity": 0.71,
      "hand": "right"
    },
    {
      "midi": 57,
      "time": 153.5,
      "duration": 0.25,
      "velocity": 0.71,
      "hand": "left"
    },
    {
      "midi": 63,
      "time": 153.75,
      "duration": 0.25,
      "velocity": 0.71,
      "hand": "right"
    },
    {
      "midi": 61,
      "time": 154,
      "duration": 0.25,
      "velocity": 0.71,
      "hand": "right"
    },
    {
      "midi": 57,
      "time": 154.25,
      "duration": 0.25,
      "velocity": 0.71,
      "hand": "left"
    },
    {
      "midi": 52,
      "time": 154.5,
      "duration": 0.25,
      "velocity": 0.71,
      "hand": "left"
    },
    {
      "midi": 59,
      "time": 154.75,
      "duration": 0.25,
      "velocity": 0.71,
      "hand": "left"
    },
    {
      "midi": 57,
      "time": 155,
      "duration": 0.25,
      "velocity": 0.71,
      "hand": "left"
    },
    {
      "midi": 67,
      "time": 155,
      "duration": 1,
      "velocity": 0.71,
      "hand": "right"
    },
    {
      "midi": 52,
      "time": 155.25,
      "duration": 0.25,
      "velocity": 0.71,
      "hand": "left"
    },
    {
      "midi": 73,
      "time": 155.25,
      "duration": 0.25,
      "velocity": 0.71,
      "hand": "right"
    },
    {
      "midi": 51,
      "time": 155.5,
      "duration": 0.25,
      "velocity": 0.71,
      "hand": "left"
    },
    {
      "midi": 75,
      "time": 155.5,
      "duration": 0.25,
      "velocity": 0.71,
      "hand": "right"
    },
    {
      "midi": 49,
      "time": 155.75,
      "duration": 0.25,
      "velocity": 0.71,
      "hand": "left"
    },
    {
      "midi": 76,
      "time": 155.75,
      "duration": 0.25,
      "velocity": 0.71,
      "hand": "right"
    },
    {
      "midi": 78,
      "time": 155.75,
      "duration": 0.063,
      "velocity": 0.71,
      "hand": "right"
    },
    {
      "midi": 45,
      "time": 156,
      "duration": 2,
      "velocity": 0.71,
      "hand": "left"
    },
    {
      "midi": 61,
      "time": 156,
      "duration": 2,
      "velocity": 0.71,
      "hand": "right"
    },
    {
      "midi": 67,
      "time": 156,
      "duration": 2,
      "velocity": 0.71,
      "hand": "right"
    },
    {
      "midi": 75,
      "time": 156,
      "duration": 0.75,
      "velocity": 0.71,
      "hand": "right"
    },
    {
      "midi": 81,
      "time": 156,
      "duration": 2,
      "velocity": 0.71,
      "hand": "right"
    },
    {
      "midi": 73,
      "time": 156.75,
      "duration": 0.25,
      "velocity": 0.71,
      "hand": "right"
    },
    {
      "midi": 61,
      "time": 158,
      "duration": 0.25,
      "velocity": 0.71,
      "hand": "right"
    },
    {
      "midi": 67,
      "time": 158,
      "duration": 0.25,
      "velocity": 0.71,
      "hand": "right"
    },
    {
      "midi": 69,
      "time": 158,
      "duration": 0.25,
      "velocity": 0.71,
      "hand": "right"
    },
    {
      "midi": 76,
      "time": 158,
      "duration": 0.25,
      "velocity": 0.71,
      "hand": "right"
    },
    {
      "midi": 57,
      "time": 158.25,
      "duration": 0.25,
      "velocity": 0.71,
      "hand": "left"
    },
    {
      "midi": 64,
      "time": 158.25,
      "duration": 0.25,
      "velocity": 0.71,
      "hand": "right"
    },
    {
      "midi": 73,
      "time": 158.25,
      "duration": 0.25,
      "velocity": 0.71,
      "hand": "right"
    },
    {
      "midi": 81,
      "time": 158.25,
      "duration": 0.25,
      "velocity": 0.71,
      "hand": "right"
    },
    {
      "midi": 61,
      "time": 158.5,
      "duration": 0.25,
      "velocity": 0.71,
      "hand": "right"
    },
    {
      "midi": 66,
      "time": 158.5,
      "duration": 0.25,
      "velocity": 0.71,
      "hand": "right"
    },
    {
      "midi": 69,
      "time": 158.5,
      "duration": 0.25,
      "velocity": 0.71,
      "hand": "right"
    },
    {
      "midi": 75,
      "time": 158.5,
      "duration": 0.25,
      "velocity": 0.71,
      "hand": "right"
    },
    {
      "midi": 54,
      "time": 158.75,
      "duration": 0.25,
      "velocity": 0.71,
      "hand": "left"
    },
    {
      "midi": 63,
      "time": 158.75,
      "duration": 0.25,
      "velocity": 0.71,
      "hand": "right"
    },
    {
      "midi": 73,
      "time": 158.75,
      "duration": 0.25,
      "velocity": 0.71,
      "hand": "right"
    },
    {
      "midi": 81,
      "time": 158.75,
      "duration": 0.25,
      "velocity": 0.71,
      "hand": "right"
    },
    {
      "midi": 60,
      "time": 159,
      "duration": 0.25,
      "velocity": 0.71,
      "hand": "right"
    },
    {
      "midi": 66,
      "time": 159,
      "duration": 0.25,
      "velocity": 0.71,
      "hand": "right"
    },
    {
      "midi": 68,
      "time": 159,
      "duration": 0.25,
      "velocity": 0.71,
      "hand": "right"
    },
    {
      "midi": 75,
      "time": 159,
      "duration": 0.25,
      "velocity": 0.71,
      "hand": "right"
    },
    {
      "midi": 56,
      "time": 159.25,
      "duration": 0.25,
      "velocity": 0.71,
      "hand": "left"
    },
    {
      "midi": 63,
      "time": 159.25,
      "duration": 0.25,
      "velocity": 0.71,
      "hand": "right"
    },
    {
      "midi": 72,
      "time": 159.25,
      "duration": 0.25,
      "velocity": 0.71,
      "hand": "right"
    },
    {
      "midi": 80,
      "time": 159.25,
      "duration": 0.25,
      "velocity": 0.71,
      "hand": "right"
    },
    {
      "midi": 60,
      "time": 159.5,
      "duration": 0.25,
      "velocity": 0.71,
      "hand": "right"
    },
    {
      "midi": 65,
      "time": 159.5,
      "duration": 0.25,
      "velocity": 0.71,
      "hand": "right"
    },
    {
      "midi": 68,
      "time": 159.5,
      "duration": 0.25,
      "velocity": 0.71,
      "hand": "right"
    },
    {
      "midi": 74,
      "time": 159.5,
      "duration": 0.25,
      "velocity": 0.71,
      "hand": "right"
    },
    {
      "midi": 53,
      "time": 159.75,
      "duration": 0.25,
      "velocity": 0.71,
      "hand": "left"
    },
    {
      "midi": 62,
      "time": 159.75,
      "duration": 0.25,
      "velocity": 0.71,
      "hand": "right"
    },
    {
      "midi": 72,
      "time": 159.75,
      "duration": 0.25,
      "velocity": 0.71,
      "hand": "right"
    },
    {
      "midi": 80,
      "time": 159.75,
      "duration": 0.25,
      "velocity": 0.71,
      "hand": "right"
    },
    {
      "midi": 59,
      "time": 160,
      "duration": 0.25,
      "velocity": 0.71,
      "hand": "left"
    },
    {
      "midi": 65,
      "time": 160,
      "duration": 0.25,
      "velocity": 0.71,
      "hand": "right"
    },
    {
      "midi": 67,
      "time": 160,
      "duration": 0.25,
      "velocity": 0.71,
      "hand": "right"
    },
    {
      "midi": 74,
      "time": 160,
      "duration": 0.25,
      "velocity": 0.71,
      "hand": "right"
    },
    {
      "midi": 55,
      "time": 160.25,
      "duration": 0.25,
      "velocity": 0.71,
      "hand": "left"
    },
    {
      "midi": 62,
      "time": 160.25,
      "duration": 0.25,
      "velocity": 0.71,
      "hand": "right"
    },
    {
      "midi": 71,
      "time": 160.25,
      "duration": 0.25,
      "velocity": 0.71,
      "hand": "right"
    },
    {
      "midi": 79,
      "time": 160.25,
      "duration": 0.25,
      "velocity": 0.71,
      "hand": "right"
    },
    {
      "midi": 59,
      "time": 160.5,
      "duration": 0.25,
      "velocity": 0.71,
      "hand": "left"
    },
    {
      "midi": 64,
      "time": 160.5,
      "duration": 0.25,
      "velocity": 0.71,
      "hand": "right"
    },
    {
      "midi": 67,
      "time": 160.5,
      "duration": 0.25,
      "velocity": 0.71,
      "hand": "right"
    },
    {
      "midi": 73,
      "time": 160.5,
      "duration": 0.25,
      "velocity": 0.71,
      "hand": "right"
    },
    {
      "midi": 52,
      "time": 160.75,
      "duration": 0.25,
      "velocity": 0.71,
      "hand": "left"
    },
    {
      "midi": 61,
      "time": 160.75,
      "duration": 0.25,
      "velocity": 0.71,
      "hand": "right"
    },
    {
      "midi": 71,
      "time": 160.75,
      "duration": 0.25,
      "velocity": 0.71,
      "hand": "right"
    },
    {
      "midi": 79,
      "time": 160.75,
      "duration": 0.25,
      "velocity": 0.71,
      "hand": "right"
    },
    {
      "midi": 58,
      "time": 161,
      "duration": 0.25,
      "velocity": 0.71,
      "hand": "left"
    },
    {
      "midi": 64,
      "time": 161,
      "duration": 0.25,
      "velocity": 0.71,
      "hand": "right"
    },
    {
      "midi": 66,
      "time": 161,
      "duration": 0.25,
      "velocity": 0.71,
      "hand": "right"
    },
    {
      "midi": 73,
      "time": 161,
      "duration": 0.25,
      "velocity": 0.71,
      "hand": "right"
    },
    {
      "midi": 54,
      "time": 161.25,
      "duration": 0.25,
      "velocity": 0.71,
      "hand": "left"
    },
    {
      "midi": 61,
      "time": 161.25,
      "duration": 0.25,
      "velocity": 0.71,
      "hand": "right"
    },
    {
      "midi": 70,
      "time": 161.25,
      "duration": 0.25,
      "velocity": 0.71,
      "hand": "right"
    },
    {
      "midi": 78,
      "time": 161.25,
      "duration": 0.25,
      "velocity": 0.71,
      "hand": "right"
    },
    {
      "midi": 58,
      "time": 161.5,
      "duration": 0.25,
      "velocity": 0.71,
      "hand": "left"
    },
    {
      "midi": 63,
      "time": 161.5,
      "duration": 0.25,
      "velocity": 0.71,
      "hand": "right"
    },
    {
      "midi": 66,
      "time": 161.5,
      "duration": 0.25,
      "velocity": 0.71,
      "hand": "right"
    },
    {
      "midi": 72,
      "time": 161.5,
      "duration": 0.25,
      "velocity": 0.71,
      "hand": "right"
    },
    {
      "midi": 51,
      "time": 161.75,
      "duration": 0.25,
      "velocity": 0.71,
      "hand": "left"
    },
    {
      "midi": 60,
      "time": 161.75,
      "duration": 0.25,
      "velocity": 0.71,
      "hand": "right"
    },
    {
      "midi": 70,
      "time": 161.75,
      "duration": 0.25,
      "velocity": 0.71,
      "hand": "right"
    },
    {
      "midi": 78,
      "time": 161.75,
      "duration": 0.25,
      "velocity": 0.71,
      "hand": "right"
    },
    {
      "midi": 57,
      "time": 162,
      "duration": 0.25,
      "velocity": 0.71,
      "hand": "left"
    },
    {
      "midi": 63,
      "time": 162,
      "duration": 0.25,
      "velocity": 0.71,
      "hand": "right"
    },
    {
      "midi": 65,
      "time": 162,
      "duration": 0.25,
      "velocity": 0.71,
      "hand": "right"
    },
    {
      "midi": 72,
      "time": 162,
      "duration": 0.25,
      "velocity": 0.71,
      "hand": "right"
    },
    {
      "midi": 53,
      "time": 162.25,
      "duration": 0.25,
      "velocity": 0.71,
      "hand": "left"
    },
    {
      "midi": 60,
      "time": 162.25,
      "duration": 0.25,
      "velocity": 0.71,
      "hand": "right"
    },
    {
      "midi": 69,
      "time": 162.25,
      "duration": 0.25,
      "velocity": 0.71,
      "hand": "right"
    },
    {
      "midi": 77,
      "time": 162.25,
      "duration": 0.25,
      "velocity": 0.71,
      "hand": "right"
    },
    {
      "midi": 57,
      "time": 162.5,
      "duration": 0.25,
      "velocity": 0.71,
      "hand": "left"
    },
    {
      "midi": 62,
      "time": 162.5,
      "duration": 0.25,
      "velocity": 0.71,
      "hand": "right"
    },
    {
      "midi": 65,
      "time": 162.5,
      "duration": 0.25,
      "velocity": 0.71,
      "hand": "right"
    },
    {
      "midi": 71,
      "time": 162.5,
      "duration": 0.25,
      "velocity": 0.71,
      "hand": "right"
    },
    {
      "midi": 50,
      "time": 162.75,
      "duration": 0.25,
      "velocity": 0.71,
      "hand": "left"
    },
    {
      "midi": 59,
      "time": 162.75,
      "duration": 0.25,
      "velocity": 0.71,
      "hand": "left"
    },
    {
      "midi": 69,
      "time": 162.75,
      "duration": 0.25,
      "velocity": 0.71,
      "hand": "right"
    },
    {
      "midi": 77,
      "time": 162.75,
      "duration": 0.25,
      "velocity": 0.71,
      "hand": "right"
    },
    {
      "midi": 56,
      "time": 163,
      "duration": 0.25,
      "velocity": 0.71,
      "hand": "left"
    },
    {
      "midi": 62,
      "time": 163,
      "duration": 0.25,
      "velocity": 0.71,
      "hand": "right"
    },
    {
      "midi": 64,
      "time": 163,
      "duration": 0.25,
      "velocity": 0.71,
      "hand": "right"
    },
    {
      "midi": 71,
      "time": 163,
      "duration": 0.25,
      "velocity": 0.71,
      "hand": "right"
    },
    {
      "midi": 52,
      "time": 163.25,
      "duration": 0.25,
      "velocity": 0.71,
      "hand": "left"
    },
    {
      "midi": 59,
      "time": 163.25,
      "duration": 0.25,
      "velocity": 0.71,
      "hand": "left"
    },
    {
      "midi": 68,
      "time": 163.25,
      "duration": 0.25,
      "velocity": 0.71,
      "hand": "right"
    },
    {
      "midi": 76,
      "time": 163.25,
      "duration": 0.25,
      "velocity": 0.71,
      "hand": "right"
    },
    {
      "midi": 56,
      "time": 163.5,
      "duration": 0.25,
      "velocity": 0.71,
      "hand": "left"
    },
    {
      "midi": 61,
      "time": 163.5,
      "duration": 0.25,
      "velocity": 0.71,
      "hand": "right"
    },
    {
      "midi": 64,
      "time": 163.5,
      "duration": 0.25,
      "velocity": 0.71,
      "hand": "right"
    },
    {
      "midi": 70,
      "time": 163.5,
      "duration": 0.25,
      "velocity": 0.71,
      "hand": "right"
    },
    {
      "midi": 49,
      "time": 163.75,
      "duration": 0.25,
      "velocity": 0.71,
      "hand": "left"
    },
    {
      "midi": 58,
      "time": 163.75,
      "duration": 0.25,
      "velocity": 0.71,
      "hand": "left"
    },
    {
      "midi": 68,
      "time": 163.75,
      "duration": 0.25,
      "velocity": 0.71,
      "hand": "right"
    },
    {
      "midi": 76,
      "time": 163.75,
      "duration": 0.25,
      "velocity": 0.71,
      "hand": "right"
    },
    {
      "midi": 55,
      "time": 164,
      "duration": 0.25,
      "velocity": 0.71,
      "hand": "left"
    },
    {
      "midi": 61,
      "time": 164,
      "duration": 0.25,
      "velocity": 0.71,
      "hand": "right"
    },
    {
      "midi": 63,
      "time": 164,
      "duration": 0.25,
      "velocity": 0.71,
      "hand": "right"
    },
    {
      "midi": 70,
      "time": 164,
      "duration": 0.25,
      "velocity": 0.71,
      "hand": "right"
    },
    {
      "midi": 51,
      "time": 164.25,
      "duration": 0.25,
      "velocity": 0.71,
      "hand": "left"
    },
    {
      "midi": 58,
      "time": 164.25,
      "duration": 0.25,
      "velocity": 0.71,
      "hand": "left"
    },
    {
      "midi": 67,
      "time": 164.25,
      "duration": 0.25,
      "velocity": 0.71,
      "hand": "right"
    },
    {
      "midi": 75,
      "time": 164.25,
      "duration": 0.25,
      "velocity": 0.71,
      "hand": "right"
    },
    {
      "midi": 55,
      "time": 164.5,
      "duration": 0.25,
      "velocity": 0.71,
      "hand": "left"
    },
    {
      "midi": 60,
      "time": 164.5,
      "duration": 0.25,
      "velocity": 0.71,
      "hand": "right"
    },
    {
      "midi": 63,
      "time": 164.5,
      "duration": 0.25,
      "velocity": 0.71,
      "hand": "right"
    },
    {
      "midi": 69,
      "time": 164.5,
      "duration": 0.25,
      "velocity": 0.71,
      "hand": "right"
    },
    {
      "midi": 48,
      "time": 164.75,
      "duration": 0.25,
      "velocity": 0.71,
      "hand": "left"
    },
    {
      "midi": 57,
      "time": 164.75,
      "duration": 0.25,
      "velocity": 0.71,
      "hand": "left"
    },
    {
      "midi": 67,
      "time": 164.75,
      "duration": 0.25,
      "velocity": 0.71,
      "hand": "right"
    },
    {
      "midi": 75,
      "time": 164.75,
      "duration": 0.25,
      "velocity": 0.71,
      "hand": "right"
    },
    {
      "midi": 54,
      "time": 165,
      "duration": 0.25,
      "velocity": 0.71,
      "hand": "left"
    },
    {
      "midi": 60,
      "time": 165,
      "duration": 0.25,
      "velocity": 0.71,
      "hand": "right"
    },
    {
      "midi": 62,
      "time": 165,
      "duration": 0.25,
      "velocity": 0.71,
      "hand": "right"
    },
    {
      "midi": 69,
      "time": 165,
      "duration": 0.25,
      "velocity": 0.71,
      "hand": "right"
    },
    {
      "midi": 50,
      "time": 165.25,
      "duration": 0.25,
      "velocity": 0.71,
      "hand": "left"
    },
    {
      "midi": 57,
      "time": 165.25,
      "duration": 0.25,
      "velocity": 0.71,
      "hand": "left"
    },
    {
      "midi": 66,
      "time": 165.25,
      "duration": 0.25,
      "velocity": 0.71,
      "hand": "right"
    },
    {
      "midi": 74,
      "time": 165.25,
      "duration": 0.25,
      "velocity": 0.71,
      "hand": "right"
    },
    {
      "midi": 54,
      "time": 165.5,
      "duration": 0.25,
      "velocity": 0.71,
      "hand": "left"
    },
    {
      "midi": 59,
      "time": 165.5,
      "duration": 0.25,
      "velocity": 0.71,
      "hand": "left"
    },
    {
      "midi": 62,
      "time": 165.5,
      "duration": 0.25,
      "velocity": 0.71,
      "hand": "right"
    },
    {
      "midi": 68,
      "time": 165.5,
      "duration": 0.25,
      "velocity": 0.71,
      "hand": "right"
    },
    {
      "midi": 47,
      "time": 165.75,
      "duration": 0.25,
      "velocity": 0.71,
      "hand": "left"
    },
    {
      "midi": 56,
      "time": 165.75,
      "duration": 0.25,
      "velocity": 0.71,
      "hand": "left"
    },
    {
      "midi": 66,
      "time": 165.75,
      "duration": 0.25,
      "velocity": 0.71,
      "hand": "right"
    },
    {
      "midi": 74,
      "time": 165.75,
      "duration": 0.25,
      "velocity": 0.71,
      "hand": "right"
    },
    {
      "midi": 53,
      "time": 166,
      "duration": 0.25,
      "velocity": 0.71,
      "hand": "left"
    },
    {
      "midi": 59,
      "time": 166,
      "duration": 0.25,
      "velocity": 0.71,
      "hand": "left"
    },
    {
      "midi": 62,
      "time": 166,
      "duration": 0.25,
      "velocity": 0.71,
      "hand": "right"
    },
    {
      "midi": 68,
      "time": 166,
      "duration": 0.25,
      "velocity": 0.71,
      "hand": "right"
    },
    {
      "midi": 52,
      "time": 166.25,
      "duration": 0.25,
      "velocity": 0.71,
      "hand": "left"
    },
    {
      "midi": 58,
      "time": 166.25,
      "duration": 0.25,
      "velocity": 0.71,
      "hand": "left"
    },
    {
      "midi": 67,
      "time": 166.25,
      "duration": 0.25,
      "velocity": 0.71,
      "hand": "right"
    },
    {
      "midi": 73,
      "time": 166.25,
      "duration": 0.25,
      "velocity": 0.71,
      "hand": "right"
    },
    {
      "midi": 53,
      "time": 166.5,
      "duration": 0.25,
      "velocity": 0.71,
      "hand": "left"
    },
    {
      "midi": 59,
      "time": 166.5,
      "duration": 0.25,
      "velocity": 0.71,
      "hand": "left"
    },
    {
      "midi": 68,
      "time": 166.5,
      "duration": 0.25,
      "velocity": 0.71,
      "hand": "right"
    },
    {
      "midi": 74,
      "time": 166.5,
      "duration": 0.25,
      "velocity": 0.71,
      "hand": "right"
    },
    {
      "midi": 56,
      "time": 166.75,
      "duration": 0.25,
      "velocity": 0.71,
      "hand": "left"
    },
    {
      "midi": 62,
      "time": 166.75,
      "duration": 0.25,
      "velocity": 0.71,
      "hand": "right"
    },
    {
      "midi": 65,
      "time": 166.75,
      "duration": 0.25,
      "velocity": 0.71,
      "hand": "right"
    },
    {
      "midi": 71,
      "time": 166.75,
      "duration": 0.25,
      "velocity": 0.71,
      "hand": "right"
    },
    {
      "midi": 53,
      "time": 167,
      "duration": 0.25,
      "velocity": 0.71,
      "hand": "left"
    },
    {
      "midi": 59,
      "time": 167,
      "duration": 0.25,
      "velocity": 0.71,
      "hand": "left"
    },
    {
      "midi": 68,
      "time": 167,
      "duration": 0.25,
      "velocity": 0.71,
      "hand": "right"
    },
    {
      "midi": 74,
      "time": 167,
      "duration": 0.25,
      "velocity": 0.71,
      "hand": "right"
    },
    {
      "midi": 54,
      "time": 167.25,
      "duration": 0.25,
      "velocity": 0.71,
      "hand": "left"
    },
    {
      "midi": 60,
      "time": 167.25,
      "duration": 0.25,
      "velocity": 0.71,
      "hand": "right"
    },
    {
      "midi": 69,
      "time": 167.25,
      "duration": 0.25,
      "velocity": 0.71,
      "hand": "right"
    },
    {
      "midi": 75,
      "time": 167.25,
      "duration": 0.25,
      "velocity": 0.71,
      "hand": "right"
    },
    {
      "midi": 55,
      "time": 167.5,
      "duration": 0.25,
      "velocity": 0.71,
      "hand": "left"
    },
    {
      "midi": 61,
      "time": 167.5,
      "duration": 0.25,
      "velocity": 0.71,
      "hand": "right"
    },
    {
      "midi": 70,
      "time": 167.5,
      "duration": 0.25,
      "velocity": 0.71,
      "hand": "right"
    },
    {
      "midi": 76,
      "time": 167.5,
      "duration": 0.25,
      "velocity": 0.71,
      "hand": "right"
    },
    {
      "midi": 58,
      "time": 167.75,
      "duration": 0.25,
      "velocity": 0.71,
      "hand": "left"
    },
    {
      "midi": 64,
      "time": 167.75,
      "duration": 0.25,
      "velocity": 0.71,
      "hand": "right"
    },
    {
      "midi": 67,
      "time": 167.75,
      "duration": 0.25,
      "velocity": 0.71,
      "hand": "right"
    },
    {
      "midi": 73,
      "time": 167.75,
      "duration": 0.25,
      "velocity": 0.71,
      "hand": "right"
    },
    {
      "midi": 55,
      "time": 168,
      "duration": 0.25,
      "velocity": 0.71,
      "hand": "left"
    },
    {
      "midi": 61,
      "time": 168,
      "duration": 0.25,
      "velocity": 0.71,
      "hand": "right"
    },
    {
      "midi": 70,
      "time": 168,
      "duration": 0.25,
      "velocity": 0.71,
      "hand": "right"
    },
    {
      "midi": 76,
      "time": 168,
      "duration": 0.25,
      "velocity": 0.71,
      "hand": "right"
    },
    {
      "midi": 56,
      "time": 168.25,
      "duration": 0.25,
      "velocity": 0.71,
      "hand": "left"
    },
    {
      "midi": 62,
      "time": 168.25,
      "duration": 0.25,
      "velocity": 0.71,
      "hand": "right"
    },
    {
      "midi": 71,
      "time": 168.25,
      "duration": 0.25,
      "velocity": 0.71,
      "hand": "right"
    },
    {
      "midi": 77,
      "time": 168.25,
      "duration": 0.25,
      "velocity": 0.71,
      "hand": "right"
    },
    {
      "midi": 57,
      "time": 168.5,
      "duration": 0.25,
      "velocity": 0.71,
      "hand": "left"
    },
    {
      "midi": 63,
      "time": 168.5,
      "duration": 0.25,
      "velocity": 0.71,
      "hand": "right"
    },
    {
      "midi": 72,
      "time": 168.5,
      "duration": 0.25,
      "velocity": 0.71,
      "hand": "right"
    },
    {
      "midi": 78,
      "time": 168.5,
      "duration": 0.25,
      "velocity": 0.71,
      "hand": "right"
    },
    {
      "midi": 60,
      "time": 168.75,
      "duration": 0.25,
      "velocity": 0.71,
      "hand": "right"
    },
    {
      "midi": 66,
      "time": 168.75,
      "duration": 0.25,
      "velocity": 0.71,
      "hand": "right"
    },
    {
      "midi": 69,
      "time": 168.75,
      "duration": 0.25,
      "velocity": 0.71,
      "hand": "right"
    },
    {
      "midi": 75,
      "time": 168.75,
      "duration": 0.25,
      "velocity": 0.71,
      "hand": "right"
    },
    {
      "midi": 57,
      "time": 169,
      "duration": 0.25,
      "velocity": 0.71,
      "hand": "left"
    },
    {
      "midi": 63,
      "time": 169,
      "duration": 0.25,
      "velocity": 0.71,
      "hand": "right"
    },
    {
      "midi": 72,
      "time": 169,
      "duration": 0.25,
      "velocity": 0.71,
      "hand": "right"
    },
    {
      "midi": 78,
      "time": 169,
      "duration": 0.25,
      "velocity": 0.71,
      "hand": "right"
    },
    {
      "midi": 58,
      "time": 169.25,
      "duration": 0.25,
      "velocity": 0.71,
      "hand": "left"
    },
    {
      "midi": 64,
      "time": 169.25,
      "duration": 0.25,
      "velocity": 0.71,
      "hand": "right"
    },
    {
      "midi": 73,
      "time": 169.25,
      "duration": 0.25,
      "velocity": 0.71,
      "hand": "right"
    },
    {
      "midi": 79,
      "time": 169.25,
      "duration": 0.25,
      "velocity": 0.71,
      "hand": "right"
    },
    {
      "midi": 59,
      "time": 169.5,
      "duration": 0.25,
      "velocity": 0.71,
      "hand": "left"
    },
    {
      "midi": 65,
      "time": 169.5,
      "duration": 0.25,
      "velocity": 0.71,
      "hand": "right"
    },
    {
      "midi": 74,
      "time": 169.5,
      "duration": 0.25,
      "velocity": 0.71,
      "hand": "right"
    },
    {
      "midi": 80,
      "time": 169.5,
      "duration": 0.25,
      "velocity": 0.71,
      "hand": "right"
    },
    {
      "midi": 62,
      "time": 169.75,
      "duration": 0.25,
      "velocity": 0.71,
      "hand": "right"
    },
    {
      "midi": 68,
      "time": 169.75,
      "duration": 0.25,
      "velocity": 0.71,
      "hand": "right"
    },
    {
      "midi": 71,
      "time": 169.75,
      "duration": 0.25,
      "velocity": 0.71,
      "hand": "right"
    },
    {
      "midi": 77,
      "time": 169.75,
      "duration": 0.25,
      "velocity": 0.71,
      "hand": "right"
    },
    {
      "midi": 59,
      "time": 170,
      "duration": 0.25,
      "velocity": 0.71,
      "hand": "left"
    },
    {
      "midi": 65,
      "time": 170,
      "duration": 0.25,
      "velocity": 0.71,
      "hand": "right"
    },
    {
      "midi": 74,
      "time": 170,
      "duration": 0.25,
      "velocity": 0.71,
      "hand": "right"
    },
    {
      "midi": 80,
      "time": 170,
      "duration": 0.25,
      "velocity": 0.71,
      "hand": "right"
    },
    {
      "midi": 60,
      "time": 170.25,
      "duration": 0.25,
      "velocity": 0.71,
      "hand": "right"
    },
    {
      "midi": 66,
      "time": 170.25,
      "duration": 0.25,
      "velocity": 0.71,
      "hand": "right"
    },
    {
      "midi": 75,
      "time": 170.25,
      "duration": 0.25,
      "velocity": 0.71,
      "hand": "right"
    },
    {
      "midi": 81,
      "time": 170.25,
      "duration": 0.25,
      "velocity": 0.71,
      "hand": "right"
    },
    {
      "midi": 61,
      "time": 170.5,
      "duration": 0.25,
      "velocity": 0.71,
      "hand": "right"
    },
    {
      "midi": 67,
      "time": 170.5,
      "duration": 0.25,
      "velocity": 0.71,
      "hand": "right"
    },
    {
      "midi": 76,
      "time": 170.5,
      "duration": 0.25,
      "velocity": 0.71,
      "hand": "right"
    },
    {
      "midi": 82,
      "time": 170.5,
      "duration": 0.25,
      "velocity": 0.71,
      "hand": "right"
    },
    {
      "midi": 64,
      "time": 170.75,
      "duration": 0.25,
      "velocity": 0.71,
      "hand": "right"
    },
    {
      "midi": 70,
      "time": 170.75,
      "duration": 0.25,
      "velocity": 0.71,
      "hand": "right"
    },
    {
      "midi": 73,
      "time": 170.75,
      "duration": 0.25,
      "velocity": 0.71,
      "hand": "right"
    },
    {
      "midi": 79,
      "time": 170.75,
      "duration": 0.25,
      "velocity": 0.71,
      "hand": "right"
    },
    {
      "midi": 61,
      "time": 171,
      "duration": 0.25,
      "velocity": 0.71,
      "hand": "right"
    },
    {
      "midi": 67,
      "time": 171,
      "duration": 0.25,
      "velocity": 0.71,
      "hand": "right"
    },
    {
      "midi": 76,
      "time": 171,
      "duration": 0.25,
      "velocity": 0.71,
      "hand": "right"
    },
    {
      "midi": 82,
      "time": 171,
      "duration": 0.25,
      "velocity": 0.71,
      "hand": "right"
    },
    {
      "midi": 62,
      "time": 171.25,
      "duration": 0.25,
      "velocity": 0.71,
      "hand": "right"
    },
    {
      "midi": 68,
      "time": 171.25,
      "duration": 0.25,
      "velocity": 0.71,
      "hand": "right"
    },
    {
      "midi": 77,
      "time": 171.25,
      "duration": 0.25,
      "velocity": 0.71,
      "hand": "right"
    },
    {
      "midi": 83,
      "time": 171.25,
      "duration": 0.25,
      "velocity": 0.71,
      "hand": "right"
    },
    {
      "midi": 63,
      "time": 171.5,
      "duration": 0.25,
      "velocity": 0.71,
      "hand": "right"
    },
    {
      "midi": 69,
      "time": 171.5,
      "duration": 0.25,
      "velocity": 0.71,
      "hand": "right"
    },
    {
      "midi": 78,
      "time": 171.5,
      "duration": 0.25,
      "velocity": 0.71,
      "hand": "right"
    },
    {
      "midi": 84,
      "time": 171.5,
      "duration": 0.25,
      "velocity": 0.71,
      "hand": "right"
    },
    {
      "midi": 66,
      "time": 171.75,
      "duration": 0.25,
      "velocity": 0.71,
      "hand": "right"
    },
    {
      "midi": 72,
      "time": 171.75,
      "duration": 0.25,
      "velocity": 0.71,
      "hand": "right"
    },
    {
      "midi": 75,
      "time": 171.75,
      "duration": 0.25,
      "velocity": 0.71,
      "hand": "right"
    },
    {
      "midi": 81,
      "time": 171.75,
      "duration": 0.25,
      "velocity": 0.71,
      "hand": "right"
    },
    {
      "midi": 63,
      "time": 172,
      "duration": 0.25,
      "velocity": 0.71,
      "hand": "right"
    },
    {
      "midi": 69,
      "time": 172,
      "duration": 0.25,
      "velocity": 0.71,
      "hand": "right"
    },
    {
      "midi": 78,
      "time": 172,
      "duration": 0.25,
      "velocity": 0.71,
      "hand": "right"
    },
    {
      "midi": 84,
      "time": 172,
      "duration": 0.25,
      "velocity": 0.71,
      "hand": "right"
    },
    {
      "midi": 64,
      "time": 172.25,
      "duration": 0.25,
      "velocity": 0.71,
      "hand": "right"
    },
    {
      "midi": 70,
      "time": 172.25,
      "duration": 0.25,
      "velocity": 0.71,
      "hand": "right"
    },
    {
      "midi": 79,
      "time": 172.25,
      "duration": 0.25,
      "velocity": 0.71,
      "hand": "right"
    },
    {
      "midi": 85,
      "time": 172.25,
      "duration": 0.25,
      "velocity": 0.71,
      "hand": "right"
    },
    {
      "midi": 67,
      "time": 172.5,
      "duration": 0.25,
      "velocity": 0.71,
      "hand": "right"
    },
    {
      "midi": 73,
      "time": 172.5,
      "duration": 0.25,
      "velocity": 0.71,
      "hand": "right"
    },
    {
      "midi": 82,
      "time": 172.5,
      "duration": 0.25,
      "velocity": 0.71,
      "hand": "right"
    },
    {
      "midi": 88,
      "time": 172.5,
      "duration": 0.25,
      "velocity": 0.71,
      "hand": "right"
    },
    {
      "midi": 70,
      "time": 172.75,
      "duration": 0.25,
      "velocity": 0.71,
      "hand": "right"
    },
    {
      "midi": 76,
      "time": 172.75,
      "duration": 0.25,
      "velocity": 0.71,
      "hand": "right"
    },
    {
      "midi": 85,
      "time": 172.75,
      "duration": 0.25,
      "velocity": 0.71,
      "hand": "right"
    },
    {
      "midi": 91,
      "time": 172.75,
      "duration": 0.25,
      "velocity": 0.71,
      "hand": "right"
    },
    {
      "midi": 67,
      "time": 173,
      "duration": 0.25,
      "velocity": 0.71,
      "hand": "right"
    },
    {
      "midi": 73,
      "time": 173,
      "duration": 0.25,
      "velocity": 0.71,
      "hand": "right"
    },
    {
      "midi": 82,
      "time": 173,
      "duration": 0.25,
      "velocity": 0.71,
      "hand": "right"
    },
    {
      "midi": 88,
      "time": 173,
      "duration": 0.25,
      "velocity": 0.71,
      "hand": "right"
    },
    {
      "midi": 70,
      "time": 173.25,
      "duration": 0.25,
      "velocity": 0.71,
      "hand": "right"
    },
    {
      "midi": 76,
      "time": 173.25,
      "duration": 0.25,
      "velocity": 0.71,
      "hand": "right"
    },
    {
      "midi": 85,
      "time": 173.25,
      "duration": 0.25,
      "velocity": 0.71,
      "hand": "right"
    },
    {
      "midi": 91,
      "time": 173.25,
      "duration": 0.25,
      "velocity": 0.71,
      "hand": "right"
    },
    {
      "midi": 73,
      "time": 173.5,
      "duration": 0.25,
      "velocity": 0.71,
      "hand": "right"
    },
    {
      "midi": 79,
      "time": 173.5,
      "duration": 0.25,
      "velocity": 0.71,
      "hand": "right"
    },
    {
      "midi": 88,
      "time": 173.5,
      "duration": 0.25,
      "velocity": 0.71,
      "hand": "right"
    },
    {
      "midi": 94,
      "time": 173.5,
      "duration": 0.25,
      "velocity": 0.71,
      "hand": "right"
    },
    {
      "midi": 76,
      "time": 173.75,
      "duration": 0.25,
      "velocity": 0.71,
      "hand": "right"
    },
    {
      "midi": 82,
      "time": 173.75,
      "duration": 0.25,
      "velocity": 0.71,
      "hand": "right"
    },
    {
      "midi": 91,
      "time": 173.75,
      "duration": 0.25,
      "velocity": 0.71,
      "hand": "right"
    },
    {
      "midi": 100,
      "time": 173.75,
      "duration": 0.25,
      "velocity": 0.71,
      "hand": "right"
    },
    {
      "midi": 32,
      "time": 174,
      "duration": 0.5,
      "velocity": 0.71,
      "hand": "left"
    },
    {
      "midi": 68,
      "time": 174,
      "duration": 1,
      "velocity": 0.71,
      "hand": "right"
    },
    {
      "midi": 73,
      "time": 174,
      "duration": 1,
      "velocity": 0.71,
      "hand": "right"
    },
    {
      "midi": 76,
      "time": 174,
      "duration": 1,
      "velocity": 0.71,
      "hand": "right"
    },
    {
      "midi": 80,
      "time": 174,
      "duration": 1.25,
      "velocity": 0.71,
      "hand": "right"
    },
    {
      "midi": 52,
      "time": 175,
      "duration": 0.5,
      "velocity": 0.71,
      "hand": "left"
    },
    {
      "midi": 56,
      "time": 175,
      "duration": 0.5,
      "velocity": 0.71,
      "hand": "left"
    },
    {
      "midi": 61,
      "time": 175,
      "duration": 0.5,
      "velocity": 0.71,
      "hand": "right"
    },
    {
      "midi": 64,
      "time": 175,
      "duration": 0.5,
      "velocity": 0.71,
      "hand": "right"
    },
    {
      "midi": 85,
      "time": 175.25,
      "duration": 0.25,
      "velocity": 0.71,
      "hand": "right"
    },
    {
      "midi": 83,
      "time": 175.5,
      "duration": 0.25,
      "velocity": 0.71,
      "hand": "right"
    },
    {
      "midi": 81,
      "time": 175.75,
      "duration": 0.25,
      "velocity": 0.71,
      "hand": "right"
    },
    {
      "midi": 79,
      "time": 176,
      "duration": 0.25,
      "velocity": 0.71,
      "hand": "right"
    },
    {
      "midi": 80,
      "time": 176.25,
      "duration": 0.25,
      "velocity": 0.71,
      "hand": "right"
    },
    {
      "midi": 76,
      "time": 176.5,
      "duration": 0.25,
      "velocity": 0.71,
      "hand": "right"
    },
    {
      "midi": 72,
      "time": 176.75,
      "duration": 0.25,
      "velocity": 0.71,
      "hand": "right"
    },
    {
      "midi": 75,
      "time": 177,
      "duration": 0.25,
      "velocity": 0.71,
      "hand": "right"
    },
    {
      "midi": 76,
      "time": 177.25,
      "duration": 0.25,
      "velocity": 0.71,
      "hand": "right"
    },
    {
      "midi": 73,
      "time": 177.5,
      "duration": 0.25,
      "velocity": 0.71,
      "hand": "right"
    },
    {
      "midi": 67,
      "time": 177.75,
      "duration": 0.25,
      "velocity": 0.71,
      "hand": "right"
    },
    {
      "midi": 68,
      "time": 178,
      "duration": 2,
      "velocity": 0.71,
      "hand": "right"
    },
    {
      "midi": 44,
      "time": 180,
      "duration": 2,
      "velocity": 0.71,
      "hand": "left"
    },
    {
      "midi": 54,
      "time": 180,
      "duration": 2,
      "velocity": 0.71,
      "hand": "left"
    },
    {
      "midi": 60,
      "time": 180,
      "duration": 2,
      "velocity": 0.71,
      "hand": "right"
    },
    {
      "midi": 52,
      "time": 182,
      "duration": 0.75,
      "velocity": 0.71,
      "hand": "left"
    },
    {
      "midi": 61,
      "time": 182,
      "duration": 1,
      "velocity": 0.71,
      "hand": "right"
    },
    {
      "midi": 37,
      "time": 182.25,
      "duration": 0.25,
      "velocity": 0.71,
      "hand": "left"
    },
    {
      "midi": 44,
      "time": 182.5,
      "duration": 0.25,
      "velocity": 0.71,
      "hand": "left"
    },
    {
      "midi": 52,
      "time": 182.75,
      "duration": 0.25,
      "velocity": 0.71,
      "hand": "left"
    },
    {
      "midi": 51,
      "time": 183,
      "duration": 0.25,
      "velocity": 0.71,
      "hand": "left"
    },
    {
      "midi": 49,
      "time": 183.25,
      "duration": 0.25,
      "velocity": 0.71,
      "hand": "left"
    },
    {
      "midi": 57,
      "time": 183.5,
      "duration": 0.25,
      "velocity": 0.71,
      "hand": "left"
    },
    {
      "midi": 64,
      "time": 183.75,
      "duration": 0.25,
      "velocity": 0.71,
      "hand": "right"
    },
    {
      "midi": 63,
      "time": 184,
      "duration": 0.25,
      "velocity": 0.71,
      "hand": "right"
    },
    {
      "midi": 61,
      "time": 184.25,
      "duration": 0.25,
      "velocity": 0.71,
      "hand": "right"
    },
    {
      "midi": 64,
      "time": 184.5,
      "duration": 0.25,
      "velocity": 0.71,
      "hand": "right"
    },
    {
      "midi": 67,
      "time": 184.75,
      "duration": 0.25,
      "velocity": 0.71,
      "hand": "right"
    },
    {
      "midi": 69,
      "time": 185,
      "duration": 0.75,
      "velocity": 0.71,
      "hand": "right"
    },
    {
      "midi": 81,
      "time": 185,
      "duration": 0.875,
      "velocity": 0.71,
      "hand": "right"
    },
    {
      "midi": 73,
      "time": 185.25,
      "duration": 0.25,
      "velocity": 0.71,
      "hand": "right"
    },
    {
      "midi": 78,
      "time": 185.5,
      "duration": 0.25,
      "velocity": 0.71,
      "hand": "right"
    },
    {
      "midi": 67,
      "time": 185.75,
      "duration": 0.25,
      "velocity": 0.71,
      "hand": "right"
    },
    {
      "midi": 76,
      "time": 185.75,
      "duration": 0.25,
      "velocity": 0.71,
      "hand": "right"
    },
    {
      "midi": 81,
      "time": 185.875,
      "duration": 0.125,
      "velocity": 0.71,
      "hand": "right"
    },
    {
      "midi": 66,
      "time": 186,
      "duration": 1,
      "velocity": 0.71,
      "hand": "right"
    },
    {
      "midi": 74,
      "time": 186,
      "duration": 2,
      "velocity": 0.71,
      "hand": "right"
    },
    {
      "midi": 81,
      "time": 186,
      "duration": 1,
      "velocity": 0.71,
      "hand": "right"
    },
    {
      "midi": 38,
      "time": 186.25,
      "duration": 0.25,
      "velocity": 0.71,
      "hand": "left"
    },
    {
      "midi": 45,
      "time": 186.5,
      "duration": 0.25,
      "velocity": 0.71,
      "hand": "left"
    },
    {
      "midi": 54,
      "time": 186.75,
      "duration": 0.25,
      "velocity": 0.71,
      "hand": "left"
    },
    {
      "midi": 52,
      "time": 187,
      "duration": 0.25,
      "velocity": 0.71,
      "hand": "left"
    },
    {
      "midi": 69,
      "time": 187,
      "duration": 1,
      "velocity": 0.71,
      "hand": "right"
    },
    {
      "midi": 78,
      "time": 187,
      "duration": 1,
      "velocity": 0.71,
      "hand": "right"
    },
    {
      "midi": 50,
      "time": 187.25,
      "duration": 0.25,
      "velocity": 0.71,
      "hand": "left"
    },
    {
      "midi": 57,
      "time": 187.5,
      "duration": 0.25,
      "velocity": 0.71,
      "hand": "left"
    },
    {
      "midi": 66,
      "time": 187.75,
      "duration": 0.25,
      "velocity": 0.71,
      "hand": "right"
    },
    {
      "midi": 66,
      "time": 188,
      "duration": 1,
      "velocity": 0.71,
      "hand": "right"
    },
    {
      "midi": 72,
      "time": 188,
      "duration": 1,
      "velocity": 0.71,
      "hand": "right"
    },
    {
      "midi": 80,
      "time": 188,
      "duration": 1,
      "velocity": 0.71,
      "hand": "right"
    },
    {
      "midi": 44,
      "time": 188.25,
      "duration": 0.25,
      "velocity": 0.71,
      "hand": "left"
    },
    {
      "midi": 51,
      "time": 188.5,
      "duration": 0.25,
      "velocity": 0.71,
      "hand": "left"
    },
    {
      "midi": 60,
      "time": 188.75,
      "duration": 0.25,
      "velocity": 0.71,
      "hand": "right"
    },
    {
      "midi": 66,
      "time": 189,
      "duration": 0.5,
      "velocity": 0.71,
      "hand": "right"
    },
    {
      "midi": 72,
      "time": 189,
      "duration": 0.75,
      "velocity": 0.71,
      "hand": "right"
    },
    {
      "midi": 84,
      "time": 189,
      "duration": 0.75,
      "velocity": 0.71,
      "hand": "right"
    },
    {
      "midi": 76,
      "time": 189.25,
      "duration": 0.5,
      "velocity": 0.71,
      "hand": "right"
    },
    {
      "midi": 80,
      "time": 189.5,
      "duration": 0.25,
      "velocity": 0.71,
      "hand": "right"
    },
    {
      "midi": 75,
      "time": 189.75,
      "duration": 0.25,
      "velocity": 0.71,
      "hand": "right"
    },
    {
      "midi": 78,
      "time": 189.75,
      "duration": 0.25,
      "velocity": 0.71,
      "hand": "right"
    },
    {
      "midi": 84,
      "time": 189.75,
      "duration": 0.25,
      "velocity": 0.71,
      "hand": "right"
    },
    {
      "midi": 72,
      "time": 190,
      "duration": 1.75,
      "velocity": 0.71,
      "hand": "right"
    },
    {
      "midi": 76,
      "time": 190,
      "duration": 2,
      "velocity": 0.71,
      "hand": "right"
    },
    {
      "midi": 84,
      "time": 190,
      "duration": 1.75,
      "velocity": 0.71,
      "hand": "right"
    },
    {
      "midi": 37,
      "time": 190.25,
      "duration": 0.25,
      "velocity": 0.71,
      "hand": "left"
    },
    {
      "midi": 44,
      "time": 190.5,
      "duration": 0.25,
      "velocity": 0.71,
      "hand": "left"
    },
    {
      "midi": 52,
      "time": 190.75,
      "duration": 0.25,
      "velocity": 0.71,
      "hand": "left"
    },
    {
      "midi": 51,
      "time": 191,
      "duration": 0.25,
      "velocity": 0.71,
      "hand": "left"
    },
    {
      "midi": 49,
      "time": 191.25,
      "duration": 0.25,
      "velocity": 0.71,
      "hand": "left"
    },
    {
      "midi": 56,
      "time": 191.5,
      "duration": 0.25,
      "velocity": 0.71,
      "hand": "left"
    },
    {
      "midi": 64,
      "time": 191.75,
      "duration": 0.25,
      "velocity": 0.71,
      "hand": "right"
    },
    {
      "midi": 73,
      "time": 191.75,
      "duration": 0.25,
      "velocity": 0.71,
      "hand": "right"
    },
    {
      "midi": 85,
      "time": 191.75,
      "duration": 0.25,
      "velocity": 0.71,
      "hand": "right"
    },
    {
      "midi": 63,
      "time": 192,
      "duration": 0.25,
      "velocity": 0.71,
      "hand": "right"
    },
    {
      "midi": 61,
      "time": 192.25,
      "duration": 0.25,
      "velocity": 0.71,
      "hand": "right"
    },
    {
      "midi": 68,
      "time": 192.5,
      "duration": 0.25,
      "velocity": 0.71,
      "hand": "right"
    },
    {
      "midi": 76,
      "time": 192.75,
      "duration": 0.25,
      "velocity": 0.71,
      "hand": "right"
    },
    {
      "midi": 75,
      "time": 193,
      "duration": 0.25,
      "velocity": 0.71,
      "hand": "right"
    },
    {
      "midi": 73,
      "time": 193.25,
      "duration": 0.25,
      "velocity": 0.71,
      "hand": "right"
    },
    {
      "midi": 76,
      "time": 193.5,
      "duration": 0.25,
      "velocity": 0.71,
      "hand": "right"
    },
    {
      "midi": 85,
      "time": 193.75,
      "duration": 0.25,
      "velocity": 0.71,
      "hand": "right"
    },
    {
      "midi": 97,
      "time": 194,
      "duration": 0.25,
      "velocity": 0.71,
      "hand": "right"
    },
    {
      "midi": 37,
      "time": 195,
      "duration": 1,
      "velocity": 0.71,
      "hand": "left"
    },
    {
      "midi": 44,
      "time": 195,
      "duration": 1,
      "velocity": 0.71,
      "hand": "left"
    },
    {
      "midi": 52,
      "time": 195,
      "duration": 1,
      "velocity": 0.71,
      "hand": "left"
    },
    {
      "midi": 56,
      "time": 195,
      "duration": 1,
      "velocity": 0.71,
      "hand": "left"
    },
    {
      "midi": 64,
      "time": 195,
      "duration": 1,
      "velocity": 0.71,
      "hand": "right"
    },
    {
      "midi": 37,
      "time": 196,
      "duration": 2,
      "velocity": 0.71,
      "hand": "left"
    },
    {
      "midi": 44,
      "time": 196,
      "duration": 2,
      "velocity": 0.71,
      "hand": "left"
    },
    {
      "midi": 52,
      "time": 196,
      "duration": 2,
      "velocity": 0.71,
      "hand": "left"
    },
    {
      "midi": 61,
      "time": 196,
      "duration": 2,
      "velocity": 0.71,
      "hand": "right"
    }
  ],
  "arrangements": {
    "easy": [
      {
        "midi": 73,
        "time": 0.5,
        "duration": 0.5,
        "velocity": 0.71,
        "hand": "right"
      },
      {
        "midi": 71,
        "time": 1,
        "duration": 0.5,
        "velocity": 0.71,
        "hand": "right"
      },
      {
        "midi": 69,
        "time": 1.5,
        "duration": 0.5,
        "velocity": 0.71,
        "hand": "right"
      },
      {
        "midi": 68,
        "time": 2,
        "duration": 0.5,
        "velocity": 0.71,
        "hand": "right"
      },
      {
        "midi": 69,
        "time": 2.5,
        "duration": 0.5,
        "velocity": 0.71,
        "hand": "right"
      },
      {
        "midi": 67,
        "time": 3,
        "duration": 0.5,
        "velocity": 0.71,
        "hand": "right"
      },
      {
        "midi": 66,
        "time": 3.5,
        "duration": 0.5,
        "velocity": 0.71,
        "hand": "right"
      },
      {
        "midi": 65,
        "time": 4,
        "duration": 0.5,
        "velocity": 0.71,
        "hand": "right"
      },
      {
        "midi": 66,
        "time": 4.5,
        "duration": 0.5,
        "velocity": 0.71,
        "hand": "right"
      },
      {
        "midi": 64,
        "time": 5,
        "duration": 0.5,
        "velocity": 0.71,
        "hand": "right"
      },
      {
        "midi": 62,
        "time": 5.5,
        "duration": 0.5,
        "velocity": 0.71,
        "hand": "right"
      },
      {
        "midi": 61,
        "time": 6,
        "duration": 1.5,
        "velocity": 0.71,
        "hand": "right"
      },
      {
        "midi": 60,
        "time": 7.5,
        "duration": 0.5,
        "velocity": 0.71,
        "hand": "right"
      },
      {
        "midi": 63,
        "time": 8,
        "duration": 0.75,
        "velocity": 0.71,
        "hand": "right"
      },
      {
        "midi": 61,
        "time": 8.75,
        "duration": 0.25,
        "velocity": 0.71,
        "hand": "right"
      },
      {
        "midi": 64,
        "time": 9.75,
        "duration": 0.25,
        "velocity": 0.71,
        "hand": "right"
      },
      {
        "midi": 63,
        "time": 10,
        "duration": 0.25,
        "velocity": 0.71,
        "hand": "right"
      },
      {
        "midi": 61,
        "time": 10.25,
        "duration": 0.25,
        "velocity": 0.71,
        "hand": "right"
      },
      {
        "midi": 64,
        "time": 10.5,
        "duration": 0.25,
        "velocity": 0.71,
        "hand": "right"
      },
      {
        "midi": 66,
        "time": 10.75,
        "duration": 0.25,
        "velocity": 0.71,
        "hand": "right"
      },
      {
        "midi": 80,
        "time": 11,
        "duration": 1,
        "velocity": 0.71,
        "hand": "right"
      },
      {
        "midi": 73,
        "time": 11.25,
        "duration": 0.25,
        "velocity": 0.71,
        "hand": "right"
      },
      {
        "midi": 75,
        "time": 11.5,
        "duration": 0.25,
        "velocity": 0.71,
        "hand": "right"
      },
      {
        "midi": 76,
        "time": 11.75,
        "duration": 0.25,
        "velocity": 0.71,
        "hand": "right"
      },
      {
        "midi": 80,
        "time": 12,
        "duration": 2,
        "velocity": 0.71,
        "hand": "right"
      },
      {
        "midi": 73,
        "time": 13.75,
        "duration": 0.25,
        "velocity": 0.71,
        "hand": "right"
      },
      {
        "midi": 63,
        "time": 14,
        "duration": 0.25,
        "velocity": 0.71,
        "hand": "right"
      },
      {
        "midi": 61,
        "time": 14.25,
        "duration": 0.25,
        "velocity": 0.71,
        "hand": "right"
      },
      {
        "midi": 64,
        "time": 14.5,
        "duration": 0.25,
        "velocity": 0.71,
        "hand": "right"
      },
      {
        "midi": 66,
        "time": 14.75,
        "duration": 0.25,
        "velocity": 0.71,
        "hand": "right"
      },
      {
        "midi": 80,
        "time": 15,
        "duration": 0.75,
        "velocity": 0.71,
        "hand": "right"
      },
      {
        "midi": 73,
        "time": 15.25,
        "duration": 0.25,
        "velocity": 0.71,
        "hand": "right"
      },
      {
        "midi": 76,
        "time": 15.5,
        "duration": 0.5,
        "velocity": 0.71,
        "hand": "right"
      },
      {
        "midi": 82,
        "time": 15.75,
        "duration": 0.25,
        "velocity": 0.71,
        "hand": "right"
      },
      {
        "midi": 85,
        "time": 16,
        "duration": 0.75,
        "velocity": 0.71,
        "hand": "right"
      },
      {
        "midi": 83,
        "time": 16.75,
        "duration": 0.25,
        "velocity": 0.71,
        "hand": "right"
      },
      {
        "midi": 63,
        "time": 17.75,
        "duration": 0.25,
        "velocity": 0.71,
        "hand": "right"
      },
      {
        "midi": 61,
        "time": 18,
        "duration": 0.25,
        "velocity": 0.71,
        "hand": "right"
      },
      {
        "midi": 63,
        "time": 18.5,
        "duration": 0.25,
        "velocity": 0.71,
        "hand": "right"
      },
      {
        "midi": 64,
        "time": 18.75,
        "duration": 0.25,
        "velocity": 0.71,
        "hand": "right"
      },
      {
        "midi": 78,
        "time": 19,
        "duration": 1,
        "velocity": 0.71,
        "hand": "right"
      },
      {
        "midi": 71,
        "time": 19.25,
        "duration": 0.25,
        "velocity": 0.71,
        "hand": "right"
      },
      {
        "midi": 73,
        "time": 19.5,
        "duration": 0.25,
        "velocity": 0.71,
        "hand": "right"
      },
      {
        "midi": 74,
        "time": 19.75,
        "duration": 0.25,
        "velocity": 0.71,
        "hand": "right"
      },
      {
        "midi": 78,
        "time": 20,
        "duration": 2,
        "velocity": 0.71,
        "hand": "right"
      },
      {
        "midi": 71,
        "time": 21.75,
        "duration": 0.25,
        "velocity": 0.71,
        "hand": "right"
      },
      {
        "midi": 61,
        "time": 22,
        "duration": 0.25,
        "velocity": 0.71,
        "hand": "right"
      },
      {
        "midi": 62,
        "time": 22.5,
        "duration": 0.25,
        "velocity": 0.71,
        "hand": "right"
      },
      {
        "midi": 64,
        "time": 22.75,
        "duration": 0.25,
        "velocity": 0.71,
        "hand": "right"
      },
      {
        "midi": 78,
        "time": 23,
        "duration": 0.75,
        "velocity": 0.71,
        "hand": "right"
      },
      {
        "midi": 71,
        "time": 23.25,
        "duration": 0.25,
        "velocity": 0.71,
        "hand": "right"
      },
      {
        "midi": 74,
        "time": 23.5,
        "duration": 0.5,
        "velocity": 0.71,
        "hand": "right"
      },
      {
        "midi": 80,
        "time": 23.75,
        "duration": 0.25,
        "velocity": 0.71,
        "hand": "right"
      },
      {
        "midi": 83,
        "time": 24,
        "duration": 0.75,
        "velocity": 0.71,
        "hand": "right"
      },
      {
        "midi": 81,
        "time": 24.75,
        "duration": 0.25,
        "velocity": 0.71,
        "hand": "right"
      },
      {
        "midi": 81,
        "time": 25.5,
        "duration": 0.5,
        "velocity": 0.71,
        "hand": "right"
      },
      {
        "midi": 61,
        "time": 25.75,
        "duration": 0.25,
        "velocity": 0.71,
        "hand": "right"
      },
      {
        "midi": 81,
        "time": 26,
        "duration": 0.5,
        "velocity": 0.71,
        "hand": "right"
      },
      {
        "midi": 80,
        "time": 26.5,
        "duration": 0.5,
        "velocity": 0.71,
        "hand": "right"
      },
      {
        "midi": 61,
        "time": 26.75,
        "duration": 0.25,
        "velocity": 0.71,
        "hand": "right"
      },
      {
        "midi": 78,
        "time": 27,
        "duration": 0.5,
        "velocity": 0.71,
        "hand": "right"
      },
      {
        "midi": 80,
        "time": 27.5,
        "duration": 0.5,
        "velocity": 0.71,
        "hand": "right"
      },
      {
        "midi": 61,
        "time": 27.75,
        "duration": 0.25,
        "velocity": 0.71,
        "hand": "right"
      },
      {
        "midi": 78,
        "time": 28,
        "duration": 1.875,
        "velocity": 0.71,
        "hand": "right"
      },
      {
        "midi": 66,
        "time": 29.75,
        "duration": 0.25,
        "velocity": 0.71,
        "hand": "right"
      },
      {
        "midi": 76,
        "time": 30,
        "duration": 0.5,
        "velocity": 0.71,
        "hand": "right"
      },
      {
        "midi": 74,
        "time": 30.5,
        "duration": 1,
        "velocity": 0.71,
        "hand": "right"
      },
      {
        "midi": 69,
        "time": 31.5,
        "duration": 0.5,
        "velocity": 0.71,
        "hand": "right"
      },
      {
        "midi": 66,
        "time": 31.75,
        "duration": 0.25,
        "velocity": 0.71,
        "hand": "right"
      },
      {
        "midi": 71,
        "time": 32,
        "duration": 2,
        "velocity": 0.71,
        "hand": "right"
      },
      {
        "midi": 64,
        "time": 33.75,
        "duration": 0.25,
        "velocity": 0.71,
        "hand": "right"
      },
      {
        "midi": 69,
        "time": 34,
        "duration": 0.75,
        "velocity": 0.71,
        "hand": "right"
      },
      {
        "midi": 66,
        "time": 34.75,
        "duration": 0.25,
        "velocity": 0.71,
        "hand": "right"
      },
      {
        "midi": 69,
        "time": 35,
        "duration": 1,
        "velocity": 0.71,
        "hand": "right"
      },
      {
        "midi": 69,
        "time": 36,
        "duration": 1,
        "velocity": 0.71,
        "hand": "right"
      },
      {
        "midi": 61,
        "time": 37.5,
        "duration": 0.25,
        "velocity": 0.71,
        "hand": "right"
      },
      {
        "midi": 69,
        "time": 37.75,
        "duration": 0.25,
        "velocity": 0.71,
        "hand": "right"
      },
      {
        "midi": 68,
        "time": 38,
        "duration": 0.25,
        "velocity": 0.71,
        "hand": "right"
      },
      {
        "midi": 66,
        "time": 38.25,
        "duration": 0.25,
        "velocity": 0.71,
        "hand": "right"
      },
      {
        "midi": 69,
        "time": 38.5,
        "duration": 0.25,
        "velocity": 0.71,
        "hand": "right"
      },
      {
        "midi": 71,
        "time": 38.75,
        "duration": 0.25,
        "velocity": 0.71,
        "hand": "right"
      },
      {
        "midi": 85,
        "time": 39,
        "duration": 1,
        "velocity": 0.71,
        "hand": "right"
      },
      {
        "midi": 78,
        "time": 39.25,
        "duration": 0.25,
        "velocity": 0.71,
        "hand": "right"
      },
      {
        "midi": 80,
        "time": 39.5,
        "duration": 0.25,
        "velocity": 0.71,
        "hand": "right"
      },
      {
        "midi": 81,
        "time": 39.75,
        "duration": 0.25,
        "velocity": 0.71,
        "hand": "right"
      },
      {
        "midi": 85,
        "time": 40,
        "duration": 2,
        "velocity": 0.71,
        "hand": "right"
      },
      {
        "midi": 61,
        "time": 41.5,
        "duration": 0.25,
        "velocity": 0.71,
        "hand": "right"
      },
      {
        "midi": 78,
        "time": 41.75,
        "duration": 0.25,
        "velocity": 0.71,
        "hand": "right"
      },
      {
        "midi": 68,
        "time": 42,
        "duration": 0.25,
        "velocity": 0.71,
        "hand": "right"
      },
      {
        "midi": 66,
        "time": 42.25,
        "duration": 0.25,
        "velocity": 0.71,
        "hand": "right"
      },
      {
        "midi": 69,
        "time": 42.5,
        "duration": 0.25,
        "velocity": 0.71,
        "hand": "right"
      },
      {
        "midi": 71,
        "time": 42.75,
        "duration": 0.25,
        "velocity": 0.71,
        "hand": "right"
      },
      {
        "midi": 85,
        "time": 43,
        "duration": 0.75,
        "velocity": 0.71,
        "hand": "right"
      },
      {
        "midi": 78,
        "time": 43.25,
        "duration": 0.25,
        "velocity": 0.71,
        "hand": "right"
      },
      {
        "midi": 81,
        "time": 43.5,
        "duration": 0.5,
        "velocity": 0.71,
        "hand": "right"
      },
      {
        "midi": 87,
        "time": 43.75,
        "duration": 0.25,
        "velocity": 0.71,
        "hand": "right"
      },
      {
        "midi": 90,
        "time": 44,
        "duration": 0.75,
        "velocity": 0.71,
        "hand": "right"
      },
      {
        "midi": 88,
        "time": 44.75,
        "duration": 0.25,
        "velocity": 0.71,
        "hand": "right"
      },
      {
        "midi": 68,
        "time": 45.75,
        "duration": 0.25,
        "velocity": 0.71,
        "hand": "right"
      },
      {
        "midi": 66,
        "time": 46,
        "duration": 0.25,
        "velocity": 0.71,
        "hand": "right"
      },
      {
        "midi": 64,
        "time": 46.25,
        "duration": 0.25,
        "velocity": 0.71,
        "hand": "right"
      },
      {
        "midi": 68,
        "time": 46.5,
        "duration": 0.25,
        "velocity": 0.71,
        "hand": "right"
      },
      {
        "midi": 69,
        "time": 46.75,
        "duration": 0.25,
        "velocity": 0.71,
        "hand": "right"
      },
      {
        "midi": 83,
        "time": 47,
        "duration": 1,
        "velocity": 0.71,
        "hand": "right"
      },
      {
        "midi": 76,
        "time": 47.25,
        "duration": 0.25,
        "velocity": 0.71,
        "hand": "right"
      },
      {
        "midi": 78,
        "time": 47.5,
        "duration": 0.25,
        "velocity": 0.71,
        "hand": "right"
      },
      {
        "midi": 79,
        "time": 47.75,
        "duration": 0.25,
        "velocity": 0.71,
        "hand": "right"
      },
      {
        "midi": 83,
        "time": 48,
        "duration": 2,
        "velocity": 0.71,
        "hand": "right"
      },
      {
        "midi": 76,
        "time": 49.75,
        "duration": 0.25,
        "velocity": 0.71,
        "hand": "right"
      },
      {
        "midi": 66,
        "time": 50,
        "duration": 0.25,
        "velocity": 0.71,
        "hand": "right"
      },
      {
        "midi": 64,
        "time": 50.25,
        "duration": 0.25,
        "velocity": 0.71,
        "hand": "right"
      },
      {
        "midi": 67,
        "time": 50.5,
        "duration": 0.25,
        "velocity": 0.71,
        "hand": "right"
      },
      {
        "midi": 69,
        "time": 50.75,
        "duration": 0.25,
        "velocity": 0.71,
        "hand": "right"
      },
      {
        "midi": 83,
        "time": 51,
        "duration": 0.75,
        "velocity": 0.71,
        "hand": "right"
      },
      {
        "midi": 76,
        "time": 51.25,
        "duration": 0.25,
        "velocity": 0.71,
        "hand": "right"
      },
      {
        "midi": 79,
        "time": 51.5,
        "duration": 0.25,
        "velocity": 0.71,
        "hand": "right"
      },
      {
        "midi": 85,
        "time": 51.75,
        "duration": 0.25,
        "velocity": 0.71,
        "hand": "right"
      },
      {
        "midi": 86,
        "time": 52.5,
        "duration": 1,
        "velocity": 0.71,
        "hand": "right"
      },
      {
        "midi": 62,
        "time": 52.75,
        "duration": 0.25,
        "velocity": 0.71,
        "hand": "right"
      },
      {
        "midi": 60,
        "time": 53,
        "duration": 0.25,
        "velocity": 0.71,
        "hand": "right"
      },
      {
        "midi": 84,
        "time": 53.5,
        "duration": 0.5,
        "velocity": 0.71,
        "hand": "right"
      },
      {
        "midi": 74,
        "time": 53.75,
        "duration": 0.25,
        "velocity": 0.71,
        "hand": "right"
      },
      {
        "midi": 84,
        "time": 54,
        "duration": 0.5,
        "velocity": 0.71,
        "hand": "right"
      },
      {
        "midi": 82,
        "time": 54.5,
        "duration": 0.5,
        "velocity": 0.71,
        "hand": "right"
      },
      {
        "midi": 79,
        "time": 55,
        "duration": 0.5,
        "velocity": 0.71,
        "hand": "right"
      },
      {
        "midi": 82,
        "time": 55.5,
        "duration": 0.5,
        "velocity": 0.71,
        "hand": "right"
      },
      {
        "midi": 67,
        "time": 55.75,
        "duration": 0.25,
        "velocity": 0.71,
        "hand": "right"
      },
      {
        "midi": 77,
        "time": 56,
        "duration": 2,
        "velocity": 0.71,
        "hand": "right"
      },
      {
        "midi": 63,
        "time": 57.5,
        "duration": 0.25,
        "velocity": 0.71,
        "hand": "right"
      },
      {
        "midi": 62,
        "time": 57.75,
        "duration": 0.25,
        "velocity": 0.71,
        "hand": "right"
      },
      {
        "midi": 77,
        "time": 58,
        "duration": 1.75,
        "velocity": 0.71,
        "hand": "right"
      },
      {
        "midi": 62,
        "time": 59.5,
        "duration": 0.25,
        "velocity": 0.71,
        "hand": "right"
      },
      {
        "midi": 75,
        "time": 59.75,
        "duration": 0.25,
        "velocity": 0.71,
        "hand": "right"
      },
      {
        "midi": 73,
        "time": 60,
        "duration": 0.5,
        "velocity": 0.71,
        "hand": "right"
      },
      {
        "midi": 82,
        "time": 61,
        "duration": 1,
        "velocity": 0.71,
        "hand": "right"
      },
      {
        "midi": 61,
        "time": 61.5,
        "duration": 0.25,
        "velocity": 0.71,
        "hand": "right"
      },
      {
        "midi": 70,
        "time": 61.75,
        "duration": 0.25,
        "velocity": 0.71,
        "hand": "right"
      },
      {
        "midi": 80,
        "time": 62,
        "duration": 0.5,
        "velocity": 0.71,
        "hand": "right"
      },
      {
        "midi": 78,
        "time": 62.5,
        "duration": 0.5,
        "velocity": 0.71,
        "hand": "right"
      },
      {
        "midi": 75,
        "time": 63,
        "duration": 0.5,
        "velocity": 0.71,
        "hand": "right"
      },
      {
        "midi": 78,
        "time": 63.5,
        "duration": 0.5,
        "velocity": 0.71,
        "hand": "right"
      },
      {
        "midi": 63,
        "time": 63.75,
        "duration": 0.25,
        "velocity": 0.71,
        "hand": "right"
      },
      {
        "midi": 73,
        "time": 64,
        "duration": 1,
        "velocity": 0.71,
        "hand": "right"
      },
      {
        "midi": 75,
        "time": 65,
        "duration": 1,
        "velocity": 0.71,
        "hand": "right"
      },
      {
        "midi": 75,
        "time": 66,
        "duration": 1.5,
        "velocity": 0.71,
        "hand": "right"
      },
      {
        "midi": 77,
        "time": 67.5,
        "duration": 0.5,
        "velocity": 0.71,
        "hand": "right"
      },
      {
        "midi": 61,
        "time": 67.75,
        "duration": 0.25,
        "velocity": 0.71,
        "hand": "right"
      },
      {
        "midi": 77,
        "time": 68,
        "duration": 0.75,
        "velocity": 0.71,
        "hand": "right"
      },
      {
        "midi": 78,
        "time": 68.75,
        "duration": 0.25,
        "velocity": 0.71,
        "hand": "right"
      },
      {
        "midi": 61,
        "time": 69.5,
        "duration": 0.25,
        "velocity": 0.71,
        "hand": "right"
      },
      {
        "midi": 70,
        "time": 69.75,
        "duration": 0.25,
        "velocity": 0.71,
        "hand": "right"
      },
      {
        "midi": 68,
        "time": 70,
        "duration": 0.25,
        "velocity": 0.71,
        "hand": "right"
      },
      {
        "midi": 66,
        "time": 70.25,
        "duration": 0.25,
        "velocity": 0.71,
        "hand": "right"
      },
      {
        "midi": 70,
        "time": 70.5,
        "duration": 0.25,
        "velocity": 0.71,
        "hand": "right"
      },
      {
        "midi": 71,
        "time": 70.75,
        "duration": 0.25,
        "velocity": 0.71,
        "hand": "right"
      },
      {
        "midi": 85,
        "time": 71,
        "duration": 0.875,
        "velocity": 0.71,
        "hand": "right"
      },
      {
        "midi": 76,
        "time": 71.25,
        "duration": 0.25,
        "velocity": 0.71,
        "hand": "right"
      },
      {
        "midi": 82,
        "time": 71.5,
        "duration": 0.25,
        "velocity": 0.71,
        "hand": "right"
      },
      {
        "midi": 80,
        "time": 71.75,
        "duration": 0.25,
        "velocity": 0.71,
        "hand": "right"
      },
      {
        "midi": 85,
        "time": 72,
        "duration": 2,
        "velocity": 0.71,
        "hand": "right"
      },
      {
        "midi": 61,
        "time": 73.5,
        "duration": 0.25,
        "velocity": 0.71,
        "hand": "right"
      },
      {
        "midi": 78,
        "time": 73.75,
        "duration": 0.25,
        "velocity": 0.71,
        "hand": "right"
      },
      {
        "midi": 68,
        "time": 74,
        "duration": 0.25,
        "velocity": 0.71,
        "hand": "right"
      },
      {
        "midi": 66,
        "time": 74.25,
        "duration": 0.25,
        "velocity": 0.71,
        "hand": "right"
      },
      {
        "midi": 70,
        "time": 74.5,
        "duration": 0.25,
        "velocity": 0.71,
        "hand": "right"
      },
      {
        "midi": 71,
        "time": 74.75,
        "duration": 0.25,
        "velocity": 0.71,
        "hand": "right"
      },
      {
        "midi": 85,
        "time": 75,
        "duration": 0.75,
        "velocity": 0.71,
        "hand": "right"
      },
      {
        "midi": 76,
        "time": 75.25,
        "duration": 0.25,
        "velocity": 0.71,
        "hand": "right"
      },
      {
        "midi": 82,
        "time": 75.5,
        "duration": 0.25,
        "velocity": 0.71,
        "hand": "right"
      },
      {
        "midi": 86,
        "time": 75.75,
        "duration": 0.25,
        "velocity": 0.71,
        "hand": "right"
      },
      {
        "midi": 87,
        "time": 76,
        "duration": 1,
        "velocity": 0.71,
        "hand": "right"
      },
      {
        "midi": 82,
        "time": 77,
        "duration": 0.5,
        "velocity": 0.71,
        "hand": "right"
      },
      {
        "midi": 67,
        "time": 77.75,
        "duration": 0.25,
        "velocity": 0.71,
        "hand": "right"
      },
      {
        "midi": 65,
        "time": 78,
        "duration": 0.25,
        "velocity": 0.71,
        "hand": "right"
      },
      {
        "midi": 63,
        "time": 78.25,
        "duration": 0.25,
        "velocity": 0.71,
        "hand": "right"
      },
      {
        "midi": 67,
        "time": 78.5,
        "duration": 0.25,
        "velocity": 0.71,
        "hand": "right"
      },
      {
        "midi": 68,
        "time": 78.75,
        "duration": 0.25,
        "velocity": 0.71,
        "hand": "right"
      },
      {
        "midi": 82,
        "time": 79,
        "duration": 0.875,
        "velocity": 0.71,
        "hand": "right"
      },
      {
        "midi": 75,
        "time": 79.25,
        "duration": 0.25,
        "velocity": 0.71,
        "hand": "right"
      },
      {
        "midi": 79,
        "time": 79.5,
        "duration": 0.25,
        "velocity": 0.71,
        "hand": "right"
      },
      {
        "midi": 77,
        "time": 79.75,
        "duration": 0.25,
        "velocity": 0.71,
        "hand": "right"
      },
      {
        "midi": 82,
        "time": 80,
        "duration": 2,
        "velocity": 0.71,
        "hand": "right"
      },
      {
        "midi": 75,
        "time": 81.75,
        "duration": 0.25,
        "velocity": 0.71,
        "hand": "right"
      },
      {
        "midi": 65,
        "time": 82,
        "duration": 0.25,
        "velocity": 0.71,
        "hand": "right"
      },
      {
        "midi": 63,
        "time": 82.25,
        "duration": 0.25,
        "velocity": 0.71,
        "hand": "right"
      },
      {
        "midi": 67,
        "time": 82.5,
        "duration": 0.25,
        "velocity": 0.71,
        "hand": "right"
      },
      {
        "midi": 68,
        "time": 82.75,
        "duration": 0.25,
        "velocity": 0.71,
        "hand": "right"
      },
      {
        "midi": 82,
        "time": 83,
        "duration": 0.75,
        "velocity": 0.71,
        "hand": "right"
      },
      {
        "midi": 75,
        "time": 83.25,
        "duration": 0.25,
        "velocity": 0.71,
        "hand": "right"
      },
      {
        "midi": 79,
        "time": 83.5,
        "duration": 0.5,
        "velocity": 0.71,
        "hand": "right"
      },
      {
        "midi": 83,
        "time": 83.75,
        "duration": 0.25,
        "velocity": 0.71,
        "hand": "right"
      },
      {
        "midi": 84,
        "time": 84.5,
        "duration": 0.5,
        "velocity": 0.71,
        "hand": "right"
      },
      {
        "midi": 60,
        "time": 84.75,
        "duration": 0.25,
        "velocity": 0.71,
        "hand": "right"
      },
      {
        "midi": 63,
        "time": 85.5,
        "duration": 0.25,
        "velocity": 0.71,
        "hand": "right"
      },
      {
        "midi": 72,
        "time": 85.75,
        "duration": 0.25,
        "velocity": 0.71,
        "hand": "right"
      },
      {
        "midi": 70,
        "time": 86,
        "duration": 0.25,
        "velocity": 0.71,
        "hand": "right"
      },
      {
        "midi": 68,
        "time": 86.25,
        "duration": 0.25,
        "velocity": 0.71,
        "hand": "right"
      },
      {
        "midi": 72,
        "time": 86.5,
        "duration": 0.25,
        "velocity": 0.71,
        "hand": "right"
      },
      {
        "midi": 73,
        "time": 86.75,
        "duration": 0.25,
        "velocity": 0.71,
        "hand": "right"
      },
      {
        "midi": 87,
        "time": 87,
        "duration": 0.875,
        "velocity": 0.71,
        "hand": "right"
      },
      {
        "midi": 78,
        "time": 87.25,
        "duration": 0.25,
        "velocity": 0.71,
        "hand": "right"
      },
      {
        "midi": 84,
        "time": 87.5,
        "duration": 0.25,
        "velocity": 0.71,
        "hand": "right"
      },
      {
        "midi": 82,
        "time": 87.75,
        "duration": 0.25,
        "velocity": 0.71,
        "hand": "right"
      },
      {
        "midi": 87,
        "time": 88,
        "duration": 2,
        "velocity": 0.71,
        "hand": "right"
      },
      {
        "midi": 60,
        "time": 88.75,
        "duration": 0.25,
        "velocity": 0.71,
        "hand": "right"
      },
      {
        "midi": 63,
        "time": 89.5,
        "duration": 0.25,
        "velocity": 0.71,
        "hand": "right"
      },
      {
        "midi": 80,
        "time": 89.75,
        "duration": 0.25,
        "velocity": 0.71,
        "hand": "right"
      },
      {
        "midi": 70,
        "time": 90,
        "duration": 0.25,
        "velocity": 0.71,
        "hand": "right"
      },
      {
        "midi": 68,
        "time": 90.25,
        "duration": 0.25,
        "velocity": 0.71,
        "hand": "right"
      },
      {
        "midi": 72,
        "time": 90.5,
        "duration": 0.25,
        "velocity": 0.71,
        "hand": "right"
      },
      {
        "midi": 73,
        "time": 90.75,
        "duration": 0.25,
        "velocity": 0.71,
        "hand": "right"
      },
      {
        "midi": 87,
        "time": 91,
        "duration": 0.75,
        "velocity": 0.71,
        "hand": "right"
      },
      {
        "midi": 78,
        "time": 91.25,
        "duration": 0.25,
        "velocity": 0.71,
        "hand": "right"
      },
      {
        "midi": 84,
        "time": 91.5,
        "duration": 0.25,
        "velocity": 0.71,
        "hand": "right"
      },
      {
        "midi": 88,
        "time": 91.75,
        "duration": 0.25,
        "velocity": 0.71,
        "hand": "right"
      },
      {
        "midi": 89,
        "time": 92,
        "duration": 1,
        "velocity": 0.71,
        "hand": "right"
      },
      {
        "midi": 84,
        "time": 93,
        "duration": 0.5,
        "velocity": 0.71,
        "hand": "right"
      },
      {
        "midi": 60,
        "time": 93.5,
        "duration": 0.25,
        "velocity": 0.71,
        "hand": "right"
      },
      {
        "midi": 69,
        "time": 93.75,
        "duration": 0.25,
        "velocity": 0.71,
        "hand": "right"
      },
      {
        "midi": 67,
        "time": 94,
        "duration": 0.25,
        "velocity": 0.71,
        "hand": "right"
      },
      {
        "midi": 65,
        "time": 94.25,
        "duration": 0.25,
        "velocity": 0.71,
        "hand": "right"
      },
      {
        "midi": 69,
        "time": 94.5,
        "duration": 0.25,
        "velocity": 0.71,
        "hand": "right"
      },
      {
        "midi": 70,
        "time": 94.75,
        "duration": 0.25,
        "velocity": 0.71,
        "hand": "right"
      },
      {
        "midi": 84,
        "time": 95,
        "duration": 0.875,
        "velocity": 0.71,
        "hand": "right"
      },
      {
        "midi": 77,
        "time": 95.25,
        "duration": 0.25,
        "velocity": 0.71,
        "hand": "right"
      },
      {
        "midi": 81,
        "time": 95.5,
        "duration": 0.25,
        "velocity": 0.71,
        "hand": "right"
      },
      {
        "midi": 79,
        "time": 95.75,
        "duration": 0.25,
        "velocity": 0.71,
        "hand": "right"
      },
      {
        "midi": 84,
        "time": 96,
        "duration": 2,
        "velocity": 0.71,
        "hand": "right"
      },
      {
        "midi": 60,
        "time": 97.5,
        "duration": 0.25,
        "velocity": 0.71,
        "hand": "right"
      },
      {
        "midi": 77,
        "time": 97.75,
        "duration": 0.25,
        "velocity": 0.71,
        "hand": "right"
      },
      {
        "midi": 67,
        "time": 98,
        "duration": 0.25,
        "velocity": 0.71,
        "hand": "right"
      },
      {
        "midi": 65,
        "time": 98.25,
        "duration": 0.25,
        "velocity": 0.71,
        "hand": "right"
      },
      {
        "midi": 69,
        "time": 98.5,
        "duration": 0.25,
        "velocity": 0.71,
        "hand": "right"
      },
      {
        "midi": 70,
        "time": 98.75,
        "duration": 0.25,
        "velocity": 0.71,
        "hand": "right"
      },
      {
        "midi": 84,
        "time": 99,
        "duration": 0.75,
        "velocity": 0.71,
        "hand": "right"
      },
      {
        "midi": 77,
        "time": 99.25,
        "duration": 0.25,
        "velocity": 0.71,
        "hand": "right"
      },
      {
        "midi": 81,
        "time": 99.5,
        "duration": 0.5,
        "velocity": 0.71,
        "hand": "right"
      },
      {
        "midi": 85,
        "time": 99.75,
        "duration": 0.25,
        "velocity": 0.71,
        "hand": "right"
      },
      {
        "midi": 61,
        "time": 101.5,
        "duration": 0.25,
        "velocity": 0.71,
        "hand": "right"
      },
      {
        "midi": 69,
        "time": 101.75,
        "duration": 0.25,
        "velocity": 0.71,
        "hand": "right"
      },
      {
        "midi": 83,
        "time": 102,
        "duration": 0.5,
        "velocity": 0.71,
        "hand": "right"
      },
      {
        "midi": 81,
        "time": 102.5,
        "duration": 0.5,
        "velocity": 0.71,
        "hand": "right"
      },
      {
        "midi": 78,
        "time": 103,
        "duration": 0.5,
        "velocity": 0.71,
        "hand": "right"
      },
      {
        "midi": 81,
        "time": 103.5,
        "duration": 0.5,
        "velocity": 0.71,
        "hand": "right"
      },
      {
        "midi": 69,
        "time": 103.75,
        "duration": 0.25,
        "velocity": 0.71,
        "hand": "right"
      },
      {
        "midi": 76,
        "time": 104,
        "duration": 2,
        "velocity": 0.71,
        "hand": "right"
      },
      {
        "midi": 62,
        "time": 105.5,
        "duration": 0.25,
        "velocity": 0.71,
        "hand": "right"
      },
      {
        "midi": 61,
        "time": 105.75,
        "duration": 0.25,
        "velocity": 0.71,
        "hand": "right"
      },
      {
        "midi": 76,
        "time": 106,
        "duration": 1.75,
        "velocity": 0.71,
        "hand": "right"
      },
      {
        "midi": 61,
        "time": 107.5,
        "duration": 0.25,
        "velocity": 0.71,
        "hand": "right"
      },
      {
        "midi": 74,
        "time": 107.75,
        "duration": 0.25,
        "velocity": 0.71,
        "hand": "right"
      },
      {
        "midi": 72,
        "time": 108.5,
        "duration": 1,
        "velocity": 0.71,
        "hand": "right"
      },
      {
        "midi": 81,
        "time": 109.5,
        "duration": 0.5,
        "velocity": 0.71,
        "hand": "right"
      },
      {
        "midi": 69,
        "time": 109.75,
        "duration": 0.25,
        "velocity": 0.71,
        "hand": "right"
      },
      {
        "midi": 79,
        "time": 110,
        "duration": 0.5,
        "velocity": 0.71,
        "hand": "right"
      },
      {
        "midi": 77,
        "time": 110.5,
        "duration": 0.5,
        "velocity": 0.71,
        "hand": "right"
      },
      {
        "midi": 74,
        "time": 111,
        "duration": 0.5,
        "velocity": 0.71,
        "hand": "right"
      },
      {
        "midi": 77,
        "time": 111.5,
        "duration": 0.5,
        "velocity": 0.71,
        "hand": "right"
      },
      {
        "midi": 62,
        "time": 111.75,
        "duration": 0.25,
        "velocity": 0.71,
        "hand": "right"
      },
      {
        "midi": 72,
        "time": 112,
        "duration": 1,
        "velocity": 0.71,
        "hand": "right"
      },
      {
        "midi": 74,
        "time": 113,
        "duration": 1,
        "velocity": 0.71,
        "hand": "right"
      },
      {
        "midi": 74,
        "time": 114,
        "duration": 1.5,
        "velocity": 0.71,
        "hand": "right"
      },
      {
        "midi": 76,
        "time": 115.5,
        "duration": 0.5,
        "velocity": 0.71,
        "hand": "right"
      },
      {
        "midi": 60,
        "time": 115.75,
        "duration": 0.25,
        "velocity": 0.71,
        "hand": "right"
      },
      {
        "midi": 76,
        "time": 116,
        "duration": 0.75,
        "velocity": 0.71,
        "hand": "right"
      },
      {
        "midi": 77,
        "time": 116.75,
        "duration": 0.25,
        "velocity": 0.71,
        "hand": "right"
      },
      {
        "midi": 60,
        "time": 117.5,
        "duration": 0.25,
        "velocity": 0.71,
        "hand": "right"
      },
      {
        "midi": 69,
        "time": 117.75,
        "duration": 0.25,
        "velocity": 0.71,
        "hand": "right"
      },
      {
        "midi": 65,
        "time": 118,
        "duration": 0.25,
        "velocity": 0.71,
        "hand": "right"
      },
      {
        "midi": 60,
        "time": 118.25,
        "duration": 0.25,
        "velocity": 0.71,
        "hand": "right"
      },
      {
        "midi": 61,
        "time": 118.75,
        "duration": 0.25,
        "velocity": 0.71,
        "hand": "right"
      },
      {
        "midi": 60,
        "time": 119,
        "duration": 0.25,
        "velocity": 0.71,
        "hand": "right"
      },
      {
        "midi": 69,
        "time": 119.75,
        "duration": 0.25,
        "velocity": 0.71,
        "hand": "right"
      },
      {
        "midi": 65,
        "time": 120,
        "duration": 0.25,
        "velocity": 0.71,
        "hand": "right"
      },
      {
        "midi": 60,
        "time": 120.25,
        "duration": 0.25,
        "velocity": 0.71,
        "hand": "right"
      },
      {
        "midi": 61,
        "time": 120.75,
        "duration": 0.25,
        "velocity": 0.71,
        "hand": "right"
      },
      {
        "midi": 60,
        "time": 121,
        "duration": 0.25,
        "velocity": 0.71,
        "hand": "right"
      },
      {
        "midi": 65,
        "time": 125,
        "duration": 1,
        "velocity": 0.71,
        "hand": "right"
      },
      {
        "midi": 60,
        "time": 125.75,
        "duration": 0.25,
        "velocity": 0.71,
        "hand": "right"
      },
      {
        "midi": 66,
        "time": 127,
        "duration": 1,
        "velocity": 0.71,
        "hand": "right"
      },
      {
        "midi": 60,
        "time": 127.5,
        "duration": 0.25,
        "velocity": 0.71,
        "hand": "right"
      },
      {
        "midi": 61,
        "time": 127.75,
        "duration": 0.25,
        "velocity": 0.71,
        "hand": "right"
      },
      {
        "midi": 67,
        "time": 129,
        "duration": 1,
        "velocity": 0.71,
        "hand": "right"
      },
      {
        "midi": 61,
        "time": 129.25,
        "duration": 0.25,
        "velocity": 0.71,
        "hand": "right"
      },
      {
        "midi": 63,
        "time": 129.5,
        "duration": 0.25,
        "velocity": 0.71,
        "hand": "right"
      },
      {
        "midi": 64,
        "time": 129.75,
        "duration": 0.25,
        "velocity": 0.71,
        "hand": "right"
      },
      {
        "midi": 68,
        "time": 131,
        "duration": 1,
        "velocity": 0.71,
        "hand": "right"
      },
      {
        "midi": 60,
        "time": 131.25,
        "duration": 0.25,
        "velocity": 0.71,
        "hand": "right"
      },
      {
        "midi": 64,
        "time": 131.5,
        "duration": 0.25,
        "velocity": 0.71,
        "hand": "right"
      },
      {
        "midi": 63,
        "time": 131.75,
        "duration": 0.25,
        "velocity": 0.71,
        "hand": "right"
      },
      {
        "midi": 61,
        "time": 132.75,
        "duration": 0.25,
        "velocity": 0.71,
        "hand": "right"
      },
      {
        "midi": 64,
        "time": 133.75,
        "duration": 0.25,
        "velocity": 0.71,
        "hand": "right"
      },
      {
        "midi": 63,
        "time": 134,
        "duration": 0.25,
        "velocity": 0.71,
        "hand": "right"
      },
      {
        "midi": 61,
        "time": 134.25,
        "duration": 0.25,
        "velocity": 0.71,
        "hand": "right"
      },
      {
        "midi": 64,
        "time": 134.5,
        "duration": 0.25,
        "velocity": 0.71,
        "hand": "right"
      },
      {
        "midi": 66,
        "time": 134.75,
        "duration": 0.25,
        "velocity": 0.71,
        "hand": "right"
      },
      {
        "midi": 80,
        "time": 135,
        "duration": 1,
        "velocity": 0.71,
        "hand": "right"
      },
      {
        "midi": 73,
        "time": 135.25,
        "duration": 0.25,
        "velocity": 0.71,
        "hand": "right"
      },
      {
        "midi": 75,
        "time": 135.5,
        "duration": 0.25,
        "velocity": 0.71,
        "hand": "right"
      },
      {
        "midi": 76,
        "time": 135.75,
        "duration": 0.25,
        "velocity": 0.71,
        "hand": "right"
      },
      {
        "midi": 80,
        "time": 136,
        "duration": 2,
        "velocity": 0.71,
        "hand": "right"
      },
      {
        "midi": 73,
        "time": 137.75,
        "duration": 0.25,
        "velocity": 0.71,
        "hand": "right"
      },
      {
        "midi": 63,
        "time": 138,
        "duration": 0.25,
        "velocity": 0.71,
        "hand": "right"
      },
      {
        "midi": 61,
        "time": 138.25,
        "duration": 0.25,
        "velocity": 0.71,
        "hand": "right"
      },
      {
        "midi": 64,
        "time": 138.5,
        "duration": 0.25,
        "velocity": 0.71,
        "hand": "right"
      },
      {
        "midi": 66,
        "time": 138.75,
        "duration": 0.25,
        "velocity": 0.71,
        "hand": "right"
      },
      {
        "midi": 80,
        "time": 139,
        "duration": 0.75,
        "velocity": 0.71,
        "hand": "right"
      },
      {
        "midi": 73,
        "time": 139.25,
        "duration": 0.25,
        "velocity": 0.71,
        "hand": "right"
      },
      {
        "midi": 76,
        "time": 139.5,
        "duration": 0.5,
        "velocity": 0.71,
        "hand": "right"
      },
      {
        "midi": 82,
        "time": 139.75,
        "duration": 0.25,
        "velocity": 0.71,
        "hand": "right"
      },
      {
        "midi": 85,
        "time": 140,
        "duration": 0.75,
        "velocity": 0.71,
        "hand": "right"
      },
      {
        "midi": 83,
        "time": 140.75,
        "duration": 0.25,
        "velocity": 0.71,
        "hand": "right"
      },
      {
        "midi": 63,
        "time": 141.75,
        "duration": 0.25,
        "velocity": 0.71,
        "hand": "right"
      },
      {
        "midi": 61,
        "time": 142,
        "duration": 0.25,
        "velocity": 0.71,
        "hand": "right"
      },
      {
        "midi": 63,
        "time": 142.5,
        "duration": 0.25,
        "velocity": 0.71,
        "hand": "right"
      },
      {
        "midi": 64,
        "time": 142.75,
        "duration": 0.25,
        "velocity": 0.71,
        "hand": "right"
      },
      {
        "midi": 78,
        "time": 143,
        "duration": 1,
        "velocity": 0.71,
        "hand": "right"
      },
      {
        "midi": 71,
        "time": 143.25,
        "duration": 0.25,
        "velocity": 0.71,
        "hand": "right"
      },
      {
        "midi": 73,
        "time": 143.5,
        "duration": 0.25,
        "velocity": 0.71,
        "hand": "right"
      },
      {
        "midi": 74,
        "time": 143.75,
        "duration": 0.25,
        "velocity": 0.71,
        "hand": "right"
      },
      {
        "midi": 78,
        "time": 144,
        "duration": 2,
        "velocity": 0.71,
        "hand": "right"
      },
      {
        "midi": 71,
        "time": 145.75,
        "duration": 0.25,
        "velocity": 0.71,
        "hand": "right"
      },
      {
        "midi": 61,
        "time": 146,
        "duration": 0.25,
        "velocity": 0.71,
        "hand": "right"
      },
      {
        "midi": 62,
        "time": 146.5,
        "duration": 0.25,
        "velocity": 0.71,
        "hand": "right"
      },
      {
        "midi": 64,
        "time": 146.75,
        "duration": 0.25,
        "velocity": 0.71,
        "hand": "right"
      },
      {
        "midi": 78,
        "time": 147,
        "duration": 0.75,
        "velocity": 0.71,
        "hand": "right"
      },
      {
        "midi": 71,
        "time": 147.25,
        "duration": 0.25,
        "velocity": 0.71,
        "hand": "right"
      },
      {
        "midi": 74,
        "time": 147.5,
        "duration": 0.5,
        "velocity": 0.71,
        "hand": "right"
      },
      {
        "midi": 80,
        "time": 147.75,
        "duration": 0.25,
        "velocity": 0.71,
        "hand": "right"
      },
      {
        "midi": 83,
        "time": 148,
        "duration": 0.5,
        "velocity": 0.71,
        "hand": "right"
      },
      {
        "midi": 81,
        "time": 148.5,
        "duration": 1,
        "velocity": 0.71,
        "hand": "right"
      },
      {
        "midi": 80,
        "time": 149.5,
        "duration": 0.5,
        "velocity": 0.71,
        "hand": "right"
      },
      {
        "midi": 61,
        "time": 149.75,
        "duration": 0.25,
        "velocity": 0.71,
        "hand": "right"
      },
      {
        "midi": 80,
        "time": 150,
        "duration": 1.75,
        "velocity": 0.71,
        "hand": "right"
      },
      {
        "midi": 61,
        "time": 150.5,
        "duration": 0.25,
        "velocity": 0.71,
        "hand": "right"
      },
      {
        "midi": 66,
        "time": 150.75,
        "duration": 0.25,
        "velocity": 0.71,
        "hand": "right"
      },
      {
        "midi": 64,
        "time": 151,
        "duration": 0.25,
        "velocity": 0.71,
        "hand": "right"
      },
      {
        "midi": 61,
        "time": 151.25,
        "duration": 0.25,
        "velocity": 0.71,
        "hand": "right"
      },
      {
        "midi": 79,
        "time": 151.75,
        "duration": 0.25,
        "velocity": 0.71,
        "hand": "right"
      },
      {
        "midi": 61,
        "time": 152,
        "duration": 0.25,
        "velocity": 0.71,
        "hand": "right"
      },
      {
        "midi": 66,
        "time": 152.75,
        "duration": 0.25,
        "velocity": 0.71,
        "hand": "right"
      },
      {
        "midi": 64,
        "time": 153,
        "duration": 0.25,
        "velocity": 0.71,
        "hand": "right"
      },
      {
        "midi": 61,
        "time": 153.25,
        "duration": 0.25,
        "velocity": 0.71,
        "hand": "right"
      },
      {
        "midi": 63,
        "time": 153.75,
        "duration": 0.25,
        "velocity": 0.71,
        "hand": "right"
      },
      {
        "midi": 61,
        "time": 154,
        "duration": 0.25,
        "velocity": 0.71,
        "hand": "right"
      },
      {
        "midi": 67,
        "time": 155,
        "duration": 1,
        "velocity": 0.71,
        "hand": "right"
      },
      {
        "midi": 73,
        "time": 155.25,
        "duration": 0.25,
        "velocity": 0.71,
        "hand": "right"
      },
      {
        "midi": 75,
        "time": 155.5,
        "duration": 0.25,
        "velocity": 0.71,
        "hand": "right"
      },
      {
        "midi": 76,
        "time": 155.75,
        "duration": 0.25,
        "velocity": 0.71,
        "hand": "right"
      },
      {
        "midi": 81,
        "time": 156,
        "duration": 2,
        "velocity": 0.71,
        "hand": "right"
      },
      {
        "midi": 73,
        "time": 156.75,
        "duration": 0.25,
        "velocity": 0.71,
        "hand": "right"
      },
      {
        "midi": 76,
        "time": 158,
        "duration": 0.25,
        "velocity": 0.71,
        "hand": "right"
      },
      {
        "midi": 81,
        "time": 158.25,
        "duration": 0.25,
        "velocity": 0.71,
        "hand": "right"
      },
      {
        "midi": 75,
        "time": 158.5,
        "duration": 0.25,
        "velocity": 0.71,
        "hand": "right"
      },
      {
        "midi": 81,
        "time": 158.75,
        "duration": 0.25,
        "velocity": 0.71,
        "hand": "right"
      },
      {
        "midi": 75,
        "time": 159,
        "duration": 0.25,
        "velocity": 0.71,
        "hand": "right"
      },
      {
        "midi": 80,
        "time": 159.25,
        "duration": 0.25,
        "velocity": 0.71,
        "hand": "right"
      },
      {
        "midi": 74,
        "time": 159.5,
        "duration": 0.25,
        "velocity": 0.71,
        "hand": "right"
      },
      {
        "midi": 80,
        "time": 159.75,
        "duration": 0.25,
        "velocity": 0.71,
        "hand": "right"
      },
      {
        "midi": 74,
        "time": 160,
        "duration": 0.25,
        "velocity": 0.71,
        "hand": "right"
      },
      {
        "midi": 79,
        "time": 160.25,
        "duration": 0.25,
        "velocity": 0.71,
        "hand": "right"
      },
      {
        "midi": 73,
        "time": 160.5,
        "duration": 0.25,
        "velocity": 0.71,
        "hand": "right"
      },
      {
        "midi": 79,
        "time": 160.75,
        "duration": 0.25,
        "velocity": 0.71,
        "hand": "right"
      },
      {
        "midi": 73,
        "time": 161,
        "duration": 0.25,
        "velocity": 0.71,
        "hand": "right"
      },
      {
        "midi": 78,
        "time": 161.25,
        "duration": 0.25,
        "velocity": 0.71,
        "hand": "right"
      },
      {
        "midi": 72,
        "time": 161.5,
        "duration": 0.25,
        "velocity": 0.71,
        "hand": "right"
      },
      {
        "midi": 78,
        "time": 161.75,
        "duration": 0.25,
        "velocity": 0.71,
        "hand": "right"
      },
      {
        "midi": 72,
        "time": 162,
        "duration": 0.25,
        "velocity": 0.71,
        "hand": "right"
      },
      {
        "midi": 77,
        "time": 162.25,
        "duration": 0.25,
        "velocity": 0.71,
        "hand": "right"
      },
      {
        "midi": 71,
        "time": 162.5,
        "duration": 0.25,
        "velocity": 0.71,
        "hand": "right"
      },
      {
        "midi": 77,
        "time": 162.75,
        "duration": 0.25,
        "velocity": 0.71,
        "hand": "right"
      },
      {
        "midi": 71,
        "time": 163,
        "duration": 0.25,
        "velocity": 0.71,
        "hand": "right"
      },
      {
        "midi": 76,
        "time": 163.25,
        "duration": 0.25,
        "velocity": 0.71,
        "hand": "right"
      },
      {
        "midi": 70,
        "time": 163.5,
        "duration": 0.25,
        "velocity": 0.71,
        "hand": "right"
      },
      {
        "midi": 76,
        "time": 163.75,
        "duration": 0.25,
        "velocity": 0.71,
        "hand": "right"
      },
      {
        "midi": 70,
        "time": 164,
        "duration": 0.25,
        "velocity": 0.71,
        "hand": "right"
      },
      {
        "midi": 75,
        "time": 164.25,
        "duration": 0.25,
        "velocity": 0.71,
        "hand": "right"
      },
      {
        "midi": 69,
        "time": 164.5,
        "duration": 0.25,
        "velocity": 0.71,
        "hand": "right"
      },
      {
        "midi": 75,
        "time": 164.75,
        "duration": 0.25,
        "velocity": 0.71,
        "hand": "right"
      },
      {
        "midi": 69,
        "time": 165,
        "duration": 0.25,
        "velocity": 0.71,
        "hand": "right"
      },
      {
        "midi": 74,
        "time": 165.25,
        "duration": 0.25,
        "velocity": 0.71,
        "hand": "right"
      },
      {
        "midi": 68,
        "time": 165.5,
        "duration": 0.25,
        "velocity": 0.71,
        "hand": "right"
      },
      {
        "midi": 74,
        "time": 165.75,
        "duration": 0.25,
        "velocity": 0.71,
        "hand": "right"
      },
      {
        "midi": 68,
        "time": 166,
        "duration": 0.25,
        "velocity": 0.71,
        "hand": "right"
      },
      {
        "midi": 73,
        "time": 166.25,
        "duration": 0.25,
        "velocity": 0.71,
        "hand": "right"
      },
      {
        "midi": 74,
        "time": 166.5,
        "duration": 0.25,
        "velocity": 0.71,
        "hand": "right"
      },
      {
        "midi": 71,
        "time": 166.75,
        "duration": 0.25,
        "velocity": 0.71,
        "hand": "right"
      },
      {
        "midi": 74,
        "time": 167,
        "duration": 0.25,
        "velocity": 0.71,
        "hand": "right"
      },
      {
        "midi": 75,
        "time": 167.25,
        "duration": 0.25,
        "velocity": 0.71,
        "hand": "right"
      },
      {
        "midi": 76,
        "time": 167.5,
        "duration": 0.25,
        "velocity": 0.71,
        "hand": "right"
      },
      {
        "midi": 73,
        "time": 167.75,
        "duration": 0.25,
        "velocity": 0.71,
        "hand": "right"
      },
      {
        "midi": 76,
        "time": 168,
        "duration": 0.25,
        "velocity": 0.71,
        "hand": "right"
      },
      {
        "midi": 77,
        "time": 168.25,
        "duration": 0.25,
        "velocity": 0.71,
        "hand": "right"
      },
      {
        "midi": 78,
        "time": 168.5,
        "duration": 0.25,
        "velocity": 0.71,
        "hand": "right"
      },
      {
        "midi": 75,
        "time": 168.75,
        "duration": 0.25,
        "velocity": 0.71,
        "hand": "right"
      },
      {
        "midi": 78,
        "time": 169,
        "duration": 0.25,
        "velocity": 0.71,
        "hand": "right"
      },
      {
        "midi": 79,
        "time": 169.25,
        "duration": 0.25,
        "velocity": 0.71,
        "hand": "right"
      },
      {
        "midi": 80,
        "time": 169.5,
        "duration": 0.25,
        "velocity": 0.71,
        "hand": "right"
      },
      {
        "midi": 77,
        "time": 169.75,
        "duration": 0.25,
        "velocity": 0.71,
        "hand": "right"
      },
      {
        "midi": 80,
        "time": 170,
        "duration": 0.25,
        "velocity": 0.71,
        "hand": "right"
      },
      {
        "midi": 81,
        "time": 170.25,
        "duration": 0.25,
        "velocity": 0.71,
        "hand": "right"
      },
      {
        "midi": 82,
        "time": 170.5,
        "duration": 0.25,
        "velocity": 0.71,
        "hand": "right"
      },
      {
        "midi": 79,
        "time": 170.75,
        "duration": 0.25,
        "velocity": 0.71,
        "hand": "right"
      },
      {
        "midi": 82,
        "time": 171,
        "duration": 0.25,
        "velocity": 0.71,
        "hand": "right"
      },
      {
        "midi": 83,
        "time": 171.25,
        "duration": 0.25,
        "velocity": 0.71,
        "hand": "right"
      },
      {
        "midi": 84,
        "time": 171.5,
        "duration": 0.25,
        "velocity": 0.71,
        "hand": "right"
      },
      {
        "midi": 81,
        "time": 171.75,
        "duration": 0.25,
        "velocity": 0.71,
        "hand": "right"
      },
      {
        "midi": 84,
        "time": 172,
        "duration": 0.25,
        "velocity": 0.71,
        "hand": "right"
      },
      {
        "midi": 85,
        "time": 172.25,
        "duration": 0.25,
        "velocity": 0.71,
        "hand": "right"
      },
      {
        "midi": 88,
        "time": 172.5,
        "duration": 0.25,
        "velocity": 0.71,
        "hand": "right"
      },
      {
        "midi": 91,
        "time": 172.75,
        "duration": 0.25,
        "velocity": 0.71,
        "hand": "right"
      },
      {
        "midi": 88,
        "time": 173,
        "duration": 0.25,
        "velocity": 0.71,
        "hand": "right"
      },
      {
        "midi": 91,
        "time": 173.25,
        "duration": 0.25,
        "velocity": 0.71,
        "hand": "right"
      },
      {
        "midi": 94,
        "time": 173.5,
        "duration": 0.25,
        "velocity": 0.71,
        "hand": "right"
      },
      {
        "midi": 100,
        "time": 173.75,
        "duration": 0.25,
        "velocity": 0.71,
        "hand": "right"
      },
      {
        "midi": 80,
        "time": 174,
        "duration": 1.25,
        "velocity": 0.71,
        "hand": "right"
      },
      {
        "midi": 64,
        "time": 175,
        "duration": 0.5,
        "velocity": 0.71,
        "hand": "right"
      },
      {
        "midi": 85,
        "time": 175.25,
        "duration": 0.25,
        "velocity": 0.71,
        "hand": "right"
      },
      {
        "midi": 83,
        "time": 175.5,
        "duration": 0.25,
        "velocity": 0.71,
        "hand": "right"
      },
      {
        "midi": 81,
        "time": 175.75,
        "duration": 0.25,
        "velocity": 0.71,
        "hand": "right"
      },
      {
        "midi": 79,
        "time": 176,
        "duration": 0.25,
        "velocity": 0.71,
        "hand": "right"
      },
      {
        "midi": 80,
        "time": 176.25,
        "duration": 0.25,
        "velocity": 0.71,
        "hand": "right"
      },
      {
        "midi": 76,
        "time": 176.5,
        "duration": 0.25,
        "velocity": 0.71,
        "hand": "right"
      },
      {
        "midi": 72,
        "time": 176.75,
        "duration": 0.25,
        "velocity": 0.71,
        "hand": "right"
      },
      {
        "midi": 75,
        "time": 177,
        "duration": 0.25,
        "velocity": 0.71,
        "hand": "right"
      },
      {
        "midi": 76,
        "time": 177.25,
        "duration": 0.25,
        "velocity": 0.71,
        "hand": "right"
      },
      {
        "midi": 73,
        "time": 177.5,
        "duration": 0.25,
        "velocity": 0.71,
        "hand": "right"
      },
      {
        "midi": 67,
        "time": 177.75,
        "duration": 0.25,
        "velocity": 0.71,
        "hand": "right"
      },
      {
        "midi": 68,
        "time": 178,
        "duration": 2,
        "velocity": 0.71,
        "hand": "right"
      },
      {
        "midi": 60,
        "time": 180,
        "duration": 2,
        "velocity": 0.71,
        "hand": "right"
      },
      {
        "midi": 61,
        "time": 182,
        "duration": 1,
        "velocity": 0.71,
        "hand": "right"
      },
      {
        "midi": 64,
        "time": 183.75,
        "duration": 0.25,
        "velocity": 0.71,
        "hand": "right"
      },
      {
        "midi": 63,
        "time": 184,
        "duration": 0.25,
        "velocity": 0.71,
        "hand": "right"
      },
      {
        "midi": 61,
        "time": 184.25,
        "duration": 0.25,
        "velocity": 0.71,
        "hand": "right"
      },
      {
        "midi": 64,
        "time": 184.5,
        "duration": 0.25,
        "velocity": 0.71,
        "hand": "right"
      },
      {
        "midi": 67,
        "time": 184.75,
        "duration": 0.25,
        "velocity": 0.71,
        "hand": "right"
      },
      {
        "midi": 81,
        "time": 185,
        "duration": 0.875,
        "velocity": 0.71,
        "hand": "right"
      },
      {
        "midi": 73,
        "time": 185.25,
        "duration": 0.25,
        "velocity": 0.71,
        "hand": "right"
      },
      {
        "midi": 78,
        "time": 185.5,
        "duration": 0.25,
        "velocity": 0.71,
        "hand": "right"
      },
      {
        "midi": 76,
        "time": 185.75,
        "duration": 0.25,
        "velocity": 0.71,
        "hand": "right"
      },
      {
        "midi": 81,
        "time": 186,
        "duration": 1,
        "velocity": 0.71,
        "hand": "right"
      },
      {
        "midi": 78,
        "time": 187,
        "duration": 1,
        "velocity": 0.71,
        "hand": "right"
      },
      {
        "midi": 66,
        "time": 187.75,
        "duration": 0.25,
        "velocity": 0.71,
        "hand": "right"
      },
      {
        "midi": 80,
        "time": 188,
        "duration": 1,
        "velocity": 0.71,
        "hand": "right"
      },
      {
        "midi": 60,
        "time": 188.75,
        "duration": 0.25,
        "velocity": 0.71,
        "hand": "right"
      },
      {
        "midi": 84,
        "time": 189,
        "duration": 0.75,
        "velocity": 0.71,
        "hand": "right"
      },
      {
        "midi": 76,
        "time": 189.25,
        "duration": 0.5,
        "velocity": 0.71,
        "hand": "right"
      },
      {
        "midi": 80,
        "time": 189.5,
        "duration": 0.25,
        "velocity": 0.71,
        "hand": "right"
      },
      {
        "midi": 84,
        "time": 189.75,
        "duration": 0.25,
        "velocity": 0.71,
        "hand": "right"
      },
      {
        "midi": 85,
        "time": 191.75,
        "duration": 0.25,
        "velocity": 0.71,
        "hand": "right"
      },
      {
        "midi": 63,
        "time": 192,
        "duration": 0.25,
        "velocity": 0.71,
        "hand": "right"
      },
      {
        "midi": 61,
        "time": 192.25,
        "duration": 0.25,
        "velocity": 0.71,
        "hand": "right"
      },
      {
        "midi": 68,
        "time": 192.5,
        "duration": 0.25,
        "velocity": 0.71,
        "hand": "right"
      },
      {
        "midi": 76,
        "time": 192.75,
        "duration": 0.25,
        "velocity": 0.71,
        "hand": "right"
      },
      {
        "midi": 75,
        "time": 193,
        "duration": 0.25,
        "velocity": 0.71,
        "hand": "right"
      },
      {
        "midi": 73,
        "time": 193.25,
        "duration": 0.25,
        "velocity": 0.71,
        "hand": "right"
      },
      {
        "midi": 76,
        "time": 193.5,
        "duration": 0.25,
        "velocity": 0.71,
        "hand": "right"
      },
      {
        "midi": 85,
        "time": 193.75,
        "duration": 0.25,
        "velocity": 0.71,
        "hand": "right"
      },
      {
        "midi": 97,
        "time": 194,
        "duration": 0.25,
        "velocity": 0.71,
        "hand": "right"
      },
      {
        "midi": 64,
        "time": 195,
        "duration": 1,
        "velocity": 0.71,
        "hand": "right"
      },
      {
        "midi": 61,
        "time": 196,
        "duration": 2,
        "velocity": 0.71,
        "hand": "right"
      }
    ],
    "medium": [
      {
        "midi": 64,
        "time": 0.5,
        "duration": 0.5,
        "velocity": 0.71,
        "hand": "right"
      },
      {
        "midi": 68,
        "time": 0.5,
        "duration": 0.5,
        "velocity": 0.71,
        "hand": "right"
      },
      {
        "midi": 73,
        "time": 0.5,
        "duration": 0.5,
        "velocity": 0.71,
        "hand": "right"
      },
      {
        "midi": 62,
        "time": 1,
        "duration": 0.5,
        "velocity": 0.71,
        "hand": "right"
      },
      {
        "midi": 66,
        "time": 1,
        "duration": 0.5,
        "velocity": 0.71,
        "hand": "right"
      },
      {
        "midi": 71,
        "time": 1,
        "duration": 0.5,
        "velocity": 0.71,
        "hand": "right"
      },
      {
        "midi": 61,
        "time": 1.5,
        "duration": 0.5,
        "velocity": 0.71,
        "hand": "right"
      },
      {
        "midi": 64,
        "time": 1.5,
        "duration": 0.5,
        "velocity": 0.71,
        "hand": "right"
      },
      {
        "midi": 69,
        "time": 1.5,
        "duration": 0.5,
        "velocity": 0.71,
        "hand": "right"
      },
      {
        "midi": 60,
        "time": 2,
        "duration": 0.5,
        "velocity": 0.71,
        "hand": "right"
      },
      {
        "midi": 63,
        "time": 2,
        "duration": 0.5,
        "velocity": 0.71,
        "hand": "right"
      },
      {
        "midi": 68,
        "time": 2,
        "duration": 0.5,
        "velocity": 0.71,
        "hand": "right"
      },
      {
        "midi": 61,
        "time": 2.5,
        "duration": 0.5,
        "velocity": 0.71,
        "hand": "right"
      },
      {
        "midi": 69,
        "time": 2.5,
        "duration": 0.5,
        "velocity": 0.71,
        "hand": "right"
      },
      {
        "midi": 71,
        "time": 2.5,
        "duration": 0.125,
        "velocity": 0.71,
        "hand": "right"
      },
      {
        "midi": 59,
        "time": 3,
        "duration": 0.5,
        "velocity": 0.71,
        "hand": "left"
      },
      {
        "midi": 62,
        "time": 3,
        "duration": 0.5,
        "velocity": 0.71,
        "hand": "right"
      },
      {
        "midi": 67,
        "time": 3,
        "duration": 0.5,
        "velocity": 0.71,
        "hand": "right"
      },
      {
        "midi": 57,
        "time": 3.5,
        "duration": 0.5,
        "velocity": 0.71,
        "hand": "left"
      },
      {
        "midi": 61,
        "time": 3.5,
        "duration": 0.5,
        "velocity": 0.71,
        "hand": "right"
      },
      {
        "midi": 66,
        "time": 3.5,
        "duration": 0.5,
        "velocity": 0.71,
        "hand": "right"
      },
      {
        "midi": 56,
        "time": 4,
        "duration": 0.5,
        "velocity": 0.71,
        "hand": "left"
      },
      {
        "midi": 59,
        "time": 4,
        "duration": 0.5,
        "velocity": 0.71,
        "hand": "left"
      },
      {
        "midi": 65,
        "time": 4,
        "duration": 0.5,
        "velocity": 0.71,
        "hand": "right"
      },
      {
        "midi": 57,
        "time": 4.5,
        "duration": 0.5,
        "velocity": 0.71,
        "hand": "left"
      },
      {
        "midi": 61,
        "time": 4.5,
        "duration": 0.5,
        "velocity": 0.71,
        "hand": "right"
      },
      {
        "midi": 66,
        "time": 4.5,
        "duration": 0.5,
        "velocity": 0.71,
        "hand": "right"
      },
      {
        "midi": 56,
        "time": 5,
        "duration": 0.5,
        "velocity": 0.71,
        "hand": "left"
      },
      {
        "midi": 59,
        "time": 5,
        "duration": 0.5,
        "velocity": 0.71,
        "hand": "left"
      },
      {
        "midi": 64,
        "time": 5,
        "duration": 0.5,
        "velocity": 0.71,
        "hand": "right"
      },
      {
        "midi": 54,
        "time": 5.5,
        "duration": 0.5,
        "velocity": 0.71,
        "hand": "left"
      },
      {
        "midi": 57,
        "time": 5.5,
        "duration": 1,
        "velocity": 0.71,
        "hand": "left"
      },
      {
        "midi": 62,
        "time": 5.5,
        "duration": 0.5,
        "velocity": 0.71,
        "hand": "right"
      },
      {
        "midi": 52,
        "time": 6,
        "duration": 1,
        "velocity": 0.71,
        "hand": "left"
      },
      {
        "midi": 61,
        "time": 6,
        "duration": 1.5,
        "velocity": 0.71,
        "hand": "right"
      },
      {
        "midi": 56,
        "time": 6.5,
        "duration": 1.5,
        "velocity": 0.71,
        "hand": "left"
      },
      {
        "midi": 51,
        "time": 7,
        "duration": 1,
        "velocity": 0.71,
        "hand": "left"
      },
      {
        "midi": 32,
        "time": 7.5,
        "duration": 0.5,
        "velocity": 0.71,
        "hand": "left"
      },
      {
        "midi": 60,
        "time": 7.5,
        "duration": 0.5,
        "velocity": 0.71,
        "hand": "right"
      },
      {
        "midi": 25,
        "time": 8,
        "duration": 0.25,
        "velocity": 0.71,
        "hand": "left"
      },
      {
        "midi": 56,
        "time": 8,
        "duration": 1,
        "velocity": 0.71,
        "hand": "left"
      },
      {
        "midi": 63,
        "time": 8,
        "duration": 0.75,
        "velocity": 0.71,
        "hand": "right"
      },
      {
        "midi": 37,
        "time": 8.25,
        "duration": 0.25,
        "velocity": 0.71,
        "hand": "left"
      },
      {
        "midi": 44,
        "time": 8.5,
        "duration": 0.25,
        "velocity": 0.71,
        "hand": "left"
      },
      {
        "midi": 52,
        "time": 8.75,
        "duration": 0.25,
        "velocity": 0.71,
        "hand": "left"
      },
      {
        "midi": 61,
        "time": 8.75,
        "duration": 0.25,
        "velocity": 0.71,
        "hand": "right"
      },
      {
        "midi": 51,
        "time": 9,
        "duration": 0.25,
        "velocity": 0.71,
        "hand": "left"
      },
      {
        "midi": 49,
        "time": 9.25,
        "duration": 0.25,
        "velocity": 0.71,
        "hand": "left"
      },
      {
        "midi": 56,
        "time": 9.5,
        "duration": 0.25,
        "velocity": 0.71,
        "hand": "left"
      },
      {
        "midi": 64,
        "time": 9.75,
        "duration": 0.25,
        "velocity": 0.71,
        "hand": "right"
      },
      {
        "midi": 63,
        "time": 10,
        "duration": 0.25,
        "velocity": 0.71,
        "hand": "right"
      },
      {
        "midi": 61,
        "time": 10.25,
        "duration": 0.25,
        "velocity": 0.71,
        "hand": "right"
      },
      {
        "midi": 64,
        "time": 10.5,
        "duration": 0.25,
        "velocity": 0.71,
        "hand": "right"
      },
      {
        "midi": 66,
        "time": 10.75,
        "duration": 0.25,
        "velocity": 0.71,
        "hand": "right"
      },
      {
        "midi": 68,
        "time": 11,
        "duration": 1,
        "velocity": 0.71,
        "hand": "right"
      },
      {
        "midi": 80,
        "time": 11,
        "duration": 1,
        "velocity": 0.71,
        "hand": "right"
      },
      {
        "midi": 73,
        "time": 11.25,
        "duration": 0.25,
        "velocity": 0.71,
        "hand": "right"
      },
      {
        "midi": 75,
        "time": 11.5,
        "duration": 0.25,
        "velocity": 0.71,
        "hand": "right"
      },
      {
        "midi": 76,
        "time": 11.75,
        "duration": 0.25,
        "velocity": 0.71,
        "hand": "right"
      },
      {
        "midi": 78,
        "time": 11.75,
        "duration": 0.125,
        "velocity": 0.71,
        "hand": "right"
      },
      {
        "midi": 68,
        "time": 12,
        "duration": 2,
        "velocity": 0.71,
        "hand": "right"
      },
      {
        "midi": 75,
        "time": 12,
        "duration": 1.75,
        "velocity": 0.71,
        "hand": "right"
      },
      {
        "midi": 80,
        "time": 12,
        "duration": 2,
        "velocity": 0.71,
        "hand": "right"
      },
      {
        "midi": 37,
        "time": 12.25,
        "duration": 0.25,
        "velocity": 0.71,
        "hand": "left"
      },
      {
        "midi": 44,
        "time": 12.5,
        "duration": 0.25,
        "velocity": 0.71,
        "hand": "left"
      },
      {
        "midi": 52,
        "time": 12.75,
        "duration": 0.25,
        "velocity": 0.71,
        "hand": "left"
      },
      {
        "midi": 51,
        "time": 13,
        "duration": 0.25,
        "velocity": 0.71,
        "hand": "left"
      },
      {
        "midi": 49,
        "time": 13.25,
        "duration": 0.25,
        "velocity": 0.71,
        "hand": "left"
      },
      {
        "midi": 56,
        "time": 13.5,
        "duration": 0.25,
        "velocity": 0.71,
        "hand": "left"
      },
      {
        "midi": 64,
        "time": 13.75,
        "duration": 0.25,
        "velocity": 0.71,
        "hand": "right"
      },
      {
        "midi": 73,
        "time": 13.75,
        "duration": 0.25,
        "velocity": 0.71,
        "hand": "right"
      },
      {
        "midi": 63,
        "time": 14,
        "duration": 0.25,
        "velocity": 0.71,
        "hand": "right"
      },
      {
        "midi": 61,
        "time": 14.25,
        "duration": 0.25,
        "velocity": 0.71,
        "hand": "right"
      },
      {
        "midi": 64,
        "time": 14.5,
        "duration": 0.25,
        "velocity": 0.71,
        "hand": "right"
      },
      {
        "midi": 66,
        "time": 14.75,
        "duration": 0.25,
        "velocity": 0.71,
        "hand": "right"
      },
      {
        "midi": 68,
        "time": 15,
        "duration": 0.75,
        "velocity": 0.71,
        "hand": "right"
      },
      {
        "midi": 80,
        "time": 15,
        "duration": 0.75,
        "velocity": 0.71,
        "hand": "right"
      },
      {
        "midi": 73,
        "time": 15.25,
        "duration": 0.25,
        "velocity": 0.71,
        "hand": "right"
      },
      {
        "midi": 76,
        "time": 15.5,
        "duration": 0.5,
        "velocity": 0.71,
        "hand": "right"
      },
      {
        "midi": 42,
        "time": 15.75,
        "duration": 0.5,
        "velocity": 0.71,
        "hand": "left"
      },
      {
        "midi": 70,
        "time": 15.75,
        "duration": 0.25,
        "velocity": 0.71,
        "hand": "right"
      },
      {
        "midi": 82,
        "time": 15.75,
        "duration": 0.25,
        "velocity": 0.71,
        "hand": "right"
      },
      {
        "midi": 70,
        "time": 16,
        "duration": 0.125,
        "velocity": 0.71,
        "hand": "right"
      },
      {
        "midi": 76,
        "time": 16,
        "duration": 0.75,
        "velocity": 0.71,
        "hand": "right"
      },
      {
        "midi": 85,
        "time": 16,
        "duration": 0.75,
        "velocity": 0.71,
        "hand": "right"
      },
      {
        "midi": 35,
        "time": 16.25,
        "duration": 0.25,
        "velocity": 0.71,
        "hand": "left"
      },
      {
        "midi": 42,
        "time": 16.5,
        "duration": 0.25,
        "velocity": 0.71,
        "hand": "left"
      },
      {
        "midi": 51,
        "time": 16.75,
        "duration": 0.25,
        "velocity": 0.71,
        "hand": "left"
      },
      {
        "midi": 75,
        "time": 16.75,
        "duration": 0.25,
        "velocity": 0.71,
        "hand": "right"
      },
      {
        "midi": 83,
        "time": 16.75,
        "duration": 0.25,
        "velocity": 0.71,
        "hand": "right"
      },
      {
        "midi": 49,
        "time": 17,
        "duration": 0.25,
        "velocity": 0.71,
        "hand": "left"
      },
      {
        "midi": 47,
        "time": 17.25,
        "duration": 0.25,
        "velocity": 0.71,
        "hand": "left"
      },
      {
        "midi": 54,
        "time": 17.5,
        "duration": 0.25,
        "velocity": 0.71,
        "hand": "left"
      },
      {
        "midi": 63,
        "time": 17.75,
        "duration": 0.25,
        "velocity": 0.71,
        "hand": "right"
      },
      {
        "midi": 61,
        "time": 18,
        "duration": 0.25,
        "velocity": 0.71,
        "hand": "right"
      },
      {
        "midi": 59,
        "time": 18.25,
        "duration": 0.25,
        "velocity": 0.71,
        "hand": "left"
      },
      {
        "midi": 63,
        "time": 18.5,
        "duration": 0.25,
        "velocity": 0.71,
        "hand": "right"
      },
      {
        "midi": 64,
        "time": 18.75,
        "duration": 0.25,
        "velocity": 0.71,
        "hand": "right"
      },
      {
        "midi": 66,
        "time": 19,
        "duration": 1,
        "velocity": 0.71,
        "hand": "right"
      },
      {
        "midi": 78,
        "time": 19,
        "duration": 1,
        "velocity": 0.71,
        "hand": "right"
      },
      {
        "midi": 71,
        "time": 19.25,
        "duration": 0.25,
        "velocity": 0.71,
        "hand": "right"
      },
      {
        "midi": 73,
        "time": 19.5,
        "duration": 0.25,
        "velocity": 0.71,
        "hand": "right"
      },
      {
        "midi": 74,
        "time": 19.75,
        "duration": 0.25,
        "velocity": 0.71,
        "hand": "right"
      },
      {
        "midi": 76,
        "time": 19.75,
        "duration": 0.125,
        "velocity": 0.71,
        "hand": "right"
      },
      {
        "midi": 66,
        "time": 20,
        "duration": 2,
        "velocity": 0.71,
        "hand": "right"
      },
      {
        "midi": 73,
        "time": 20,
        "duration": 1.75,
        "velocity": 0.71,
        "hand": "right"
      },
      {
        "midi": 78,
        "time": 20,
        "duration": 2,
        "velocity": 0.71,
        "hand": "right"
      },
      {
        "midi": 35,
        "time": 20.25,
        "duration": 0.25,
        "velocity": 0.71,
        "hand": "left"
      },
      {
        "midi": 42,
        "time": 20.5,
        "duration": 0.25,
        "velocity": 0.71,
        "hand": "left"
      },
      {
        "midi": 50,
        "time": 20.75,
        "duration": 0.25,
        "velocity": 0.71,
        "hand": "left"
      },
      {
        "midi": 49,
        "time": 21,
        "duration": 0.25,
        "velocity": 0.71,
        "hand": "left"
      },
      {
        "midi": 47,
        "time": 21.25,
        "duration": 0.25,
        "velocity": 0.71,
        "hand": "left"
      },
      {
        "midi": 54,
        "time": 21.5,
        "duration": 0.25,
        "velocity": 0.71,
        "hand": "left"
      },
      {
        "midi": 62,
        "time": 21.75,
        "duration": 0.25,
        "velocity": 0.71,
        "hand": "right"
      },
      {
        "midi": 71,
        "time": 21.75,
        "duration": 0.25,
        "velocity": 0.71,
        "hand": "right"
      },
      {
        "midi": 61,
        "time": 22,
        "duration": 0.25,
        "velocity": 0.71,
        "hand": "right"
      },
      {
        "midi": 59,
        "time": 22.25,
        "duration": 0.25,
        "velocity": 0.71,
        "hand": "left"
      },
      {
        "midi": 62,
        "time": 22.5,
        "duration": 0.25,
        "velocity": 0.71,
        "hand": "right"
      },
      {
        "midi": 64,
        "time": 22.75,
        "duration": 0.25,
        "velocity": 0.71,
        "hand": "right"
      },
      {
        "midi": 66,
        "time": 23,
        "duration": 0.75,
        "velocity": 0.71,
        "hand": "right"
      },
      {
        "midi": 78,
        "time": 23,
        "duration": 0.75,
        "velocity": 0.71,
        "hand": "right"
      },
      {
        "midi": 71,
        "time": 23.25,
        "duration": 0.25,
        "velocity": 0.71,
        "hand": "right"
      },
      {
        "midi": 74,
        "time": 23.5,
        "duration": 0.5,
        "velocity": 0.71,
        "hand": "right"
      },
      {
        "midi": 40,
        "time": 23.75,
        "duration": 0.5,
        "velocity": 0.71,
        "hand": "left"
      },
      {
        "midi": 68,
        "time": 23.75,
        "duration": 0.25,
        "velocity": 0.71,
        "hand": "right"
      },
      {
        "midi": 80,
        "time": 23.75,
        "duration": 0.25,
        "velocity": 0.71,
        "hand": "right"
      },
      {
        "midi": 68,
        "time": 24,
        "duration": 0.125,
        "velocity": 0.71,
        "hand": "right"
      },
      {
        "midi": 74,
        "time": 24,
        "duration": 0.75,
        "velocity": 0.71,
        "hand": "right"
      },
      {
        "midi": 83,
        "time": 24,
        "duration": 0.75,
        "velocity": 0.71,
        "hand": "right"
      },
      {
        "midi": 33,
        "time": 24.25,
        "duration": 0.25,
        "velocity": 0.71,
        "hand": "left"
      },
      {
        "midi": 40,
        "time": 24.5,
        "duration": 0.25,
        "velocity": 0.71,
        "hand": "left"
      },
      {
        "midi": 49,
        "time": 24.75,
        "duration": 0.25,
        "velocity": 0.71,
        "hand": "left"
      },
      {
        "midi": 73,
        "time": 24.75,
        "duration": 0.25,
        "velocity": 0.71,
        "hand": "right"
      },
      {
        "midi": 81,
        "time": 24.75,
        "duration": 0.25,
        "velocity": 0.71,
        "hand": "right"
      },
      {
        "midi": 47,
        "time": 25,
        "duration": 0.25,
        "velocity": 0.71,
        "hand": "left"
      },
      {
        "midi": 45,
        "time": 25.25,
        "duration": 0.25,
        "velocity": 0.71,
        "hand": "left"
      },
      {
        "midi": 52,
        "time": 25.5,
        "duration": 0.25,
        "velocity": 0.71,
        "hand": "left"
      },
      {
        "midi": 73,
        "time": 25.5,
        "duration": 0.5,
        "velocity": 0.71,
        "hand": "right"
      },
      {
        "midi": 81,
        "time": 25.5,
        "duration": 0.5,
        "velocity": 0.71,
        "hand": "right"
      },
      {
        "midi": 61,
        "time": 25.75,
        "duration": 0.25,
        "velocity": 0.71,
        "hand": "right"
      },
      {
        "midi": 69,
        "time": 26,
        "duration": 0.5,
        "velocity": 0.71,
        "hand": "right"
      },
      {
        "midi": 73,
        "time": 26,
        "duration": 0.5,
        "velocity": 0.71,
        "hand": "right"
      },
      {
        "midi": 81,
        "time": 26,
        "duration": 0.5,
        "velocity": 0.71,
        "hand": "right"
      },
      {
        "midi": 41,
        "time": 26.25,
        "duration": 0.25,
        "velocity": 0.71,
        "hand": "left"
      },
      {
        "midi": 49,
        "time": 26.5,
        "duration": 0.25,
        "velocity": 0.71,
        "hand": "left"
      },
      {
        "midi": 71,
        "time": 26.5,
        "duration": 0.5,
        "velocity": 0.71,
        "hand": "right"
      },
      {
        "midi": 80,
        "time": 26.5,
        "duration": 0.5,
        "velocity": 0.71,
        "hand": "right"
      },
      {
        "midi": 61,
        "time": 26.75,
        "duration": 0.25,
        "velocity": 0.71,
        "hand": "right"
      },
      {
        "midi": 66,
        "time": 27,
        "duration": 0.5,
        "velocity": 0.71,
        "hand": "right"
      },
      {
        "midi": 69,
        "time": 27,
        "duration": 0.5,
        "velocity": 0.71,
        "hand": "right"
      },
      {
        "midi": 78,
        "time": 27,
        "duration": 0.5,
        "velocity": 0.71,
        "hand": "right"
      },
      {
        "midi": 42,
        "time": 27.25,
        "duration": 0.25,
        "velocity": 0.71,
        "hand": "left"
      },
      {
        "midi": 49,
        "time": 27.5,
        "duration": 0.25,
        "velocity": 0.71,
        "hand": "left"
      },
      {
        "midi": 71,
        "time": 27.5,
        "duration": 0.5,
        "velocity": 0.71,
        "hand": "right"
      },
      {
        "midi": 80,
        "time": 27.5,
        "duration": 0.5,
        "velocity": 0.71,
        "hand": "right"
      },
      {
        "midi": 61,
        "time": 27.75,
        "duration": 0.25,
        "velocity": 0.71,
        "hand": "right"
      },
      {
        "midi": 66,
        "time": 28,
        "duration": 1.75,
        "velocity": 0.71,
        "hand": "right"
      },
      {
        "midi": 69,
        "time": 28,
        "duration": 2,
        "velocity": 0.71,
        "hand": "right"
      },
      {
        "midi": 78,
        "time": 28,
        "duration": 1.875,
        "velocity": 0.71,
        "hand": "right"
      },
      {
        "midi": 38,
        "time": 28.25,
        "duration": 0.25,
        "velocity": 0.71,
        "hand": "left"
      },
      {
        "midi": 45,
        "time": 28.5,
        "duration": 0.25,
        "velocity": 0.71,
        "hand": "left"
      },
      {
        "midi": 54,
        "time": 28.75,
        "duration": 0.25,
        "velocity": 0.71,
        "hand": "left"
      },
      {
        "midi": 52,
        "time": 29,
        "duration": 0.25,
        "velocity": 0.71,
        "hand": "left"
      },
      {
        "midi": 50,
        "time": 29.25,
        "duration": 0.25,
        "velocity": 0.71,
        "hand": "left"
      },
      {
        "midi": 57,
        "time": 29.5,
        "duration": 0.25,
        "velocity": 0.71,
        "hand": "left"
      },
      {
        "midi": 66,
        "time": 29.75,
        "duration": 0.25,
        "velocity": 0.71,
        "hand": "right"
      },
      {
        "midi": 64,
        "time": 29.875,
        "duration": 0.125,
        "velocity": 0.71,
        "hand": "right"
      },
      {
        "midi": 76,
        "time": 29.875,
        "duration": 0.125,
        "velocity": 0.71,
        "hand": "right"
      },
      {
        "midi": 64,
        "time": 30,
        "duration": 0.5,
        "velocity": 0.71,
        "hand": "right"
      },
      {
        "midi": 69,
        "time": 30,
        "duration": 1.5,
        "velocity": 0.71,
        "hand": "right"
      },
      {
        "midi": 76,
        "time": 30,
        "duration": 0.5,
        "velocity": 0.71,
        "hand": "right"
      },
      {
        "midi": 38,
        "time": 30.25,
        "duration": 0.25,
        "velocity": 0.71,
        "hand": "left"
      },
      {
        "midi": 45,
        "time": 30.5,
        "duration": 0.25,
        "velocity": 0.71,
        "hand": "left"
      },
      {
        "midi": 62,
        "time": 30.5,
        "duration": 1,
        "velocity": 0.71,
        "hand": "right"
      },
      {
        "midi": 74,
        "time": 30.5,
        "duration": 1,
        "velocity": 0.71,
        "hand": "right"
      },
      {
        "midi": 54,
        "time": 30.75,
        "duration": 0.25,
        "velocity": 0.71,
        "hand": "left"
      },
      {
        "midi": 52,
        "time": 31,
        "duration": 0.25,
        "velocity": 0.71,
        "hand": "left"
      },
      {
        "midi": 50,
        "time": 31.25,
        "duration": 0.25,
        "velocity": 0.71,
        "hand": "left"
      },
      {
        "midi": 57,
        "time": 31.5,
        "duration": 0.25,
        "velocity": 0.71,
        "hand": "left"
      },
      {
        "midi": 62,
        "time": 31.5,
        "duration": 0.5,
        "velocity": 0.71,
        "hand": "right"
      },
      {
        "midi": 69,
        "time": 31.5,
        "duration": 0.5,
        "velocity": 0.71,
        "hand": "right"
      },
      {
        "midi": 66,
        "time": 31.75,
        "duration": 0.25,
        "velocity": 0.71,
        "hand": "right"
      },
      {
        "midi": 59,
        "time": 32,
        "duration": 2,
        "velocity": 0.71,
        "hand": "left"
      },
      {
        "midi": 67,
        "time": 32,
        "duration": 2,
        "velocity": 0.71,
        "hand": "right"
      },
      {
        "midi": 71,
        "time": 32,
        "duration": 2,
        "velocity": 0.71,
        "hand": "right"
      },
      {
        "midi": 31,
        "time": 32.25,
        "duration": 0.25,
        "velocity": 0.71,
        "hand": "left"
      },
      {
        "midi": 43,
        "time": 32.5,
        "duration": 0.25,
        "velocity": 0.71,
        "hand": "left"
      },
      {
        "midi": 50,
        "time": 32.75,
        "duration": 0.25,
        "velocity": 0.71,
        "hand": "left"
      },
      {
        "midi": 52,
        "time": 33,
        "duration": 0.25,
        "velocity": 0.71,
        "hand": "left"
      },
      {
        "midi": 50,
        "time": 33.25,
        "duration": 0.25,
        "velocity": 0.71,
        "hand": "left"
      },
      {
        "midi": 55,
        "time": 33.5,
        "duration": 0.25,
        "velocity": 0.71,
        "hand": "left"
      },
      {
        "midi": 52,
        "time": 33.75,
        "duration": 0.25,
        "velocity": 0.71,
        "hand": "left"
      },
      {
        "midi": 64,
        "time": 33.75,
        "duration": 0.25,
        "velocity": 0.71,
        "hand": "right"
      },
      {
        "midi": 50,
        "time": 34,
        "duration": 0.25,
        "velocity": 0.71,
        "hand": "left"
      },
      {
        "midi": 66,
        "time": 34,
        "duration": 0.75,
        "velocity": 0.71,
        "hand": "right"
      },
      {
        "midi": 69,
        "time": 34,
        "duration": 0.75,
        "velocity": 0.71,
        "hand": "right"
      },
      {
        "midi": 45,
        "time": 34.25,
        "duration": 0.25,
        "velocity": 0.71,
        "hand": "left"
      },
      {
        "midi": 38,
        "time": 34.5,
        "duration": 0.25,
        "velocity": 0.71,
        "hand": "left"
      },
      {
        "midi": 54,
        "time": 34.75,
        "duration": 0.25,
        "velocity": 0.71,
        "hand": "left"
      },
      {
        "midi": 62,
        "time": 34.75,
        "duration": 0.25,
        "velocity": 0.71,
        "hand": "right"
      },
      {
        "midi": 66,
        "time": 34.75,
        "duration": 0.25,
        "velocity": 0.71,
        "hand": "right"
      },
      {
        "midi": 50,
        "time": 35,
        "duration": 0.25,
        "velocity": 0.71,
        "hand": "left"
      },
      {
        "midi": 66,
        "time": 35,
        "duration": 1,
        "velocity": 0.71,
        "hand": "right"
      },
      {
        "midi": 69,
        "time": 35,
        "duration": 1,
        "velocity": 0.71,
        "hand": "right"
      },
      {
        "midi": 45,
        "time": 35.25,
        "duration": 0.25,
        "velocity": 0.71,
        "hand": "left"
      },
      {
        "midi": 43,
        "time": 35.5,
        "duration": 0.25,
        "velocity": 0.71,
        "hand": "left"
      },
      {
        "midi": 42,
        "time": 35.75,
        "duration": 0.25,
        "velocity": 0.71,
        "hand": "left"
      },
      {
        "midi": 30,
        "time": 36,
        "duration": 0.25,
        "velocity": 0.71,
        "hand": "left"
      },
      {
        "midi": 66,
        "time": 36,
        "duration": 1,
        "velocity": 0.71,
        "hand": "right"
      },
      {
        "midi": 69,
        "time": 36,
        "duration": 1,
        "velocity": 0.71,
        "hand": "right"
      },
      {
        "midi": 42,
        "time": 36.25,
        "duration": 0.25,
        "velocity": 0.71,
        "hand": "left"
      },
      {
        "midi": 49,
        "time": 36.5,
        "duration": 0.25,
        "velocity": 0.71,
        "hand": "left"
      },
      {
        "midi": 57,
        "time": 36.75,
        "duration": 0.25,
        "velocity": 0.71,
        "hand": "left"
      },
      {
        "midi": 56,
        "time": 37,
        "duration": 0.25,
        "velocity": 0.71,
        "hand": "left"
      },
      {
        "midi": 54,
        "time": 37.25,
        "duration": 0.25,
        "velocity": 0.71,
        "hand": "left"
      },
      {
        "midi": 61,
        "time": 37.5,
        "duration": 0.25,
        "velocity": 0.71,
        "hand": "right"
      },
      {
        "midi": 69,
        "time": 37.75,
        "duration": 0.25,
        "velocity": 0.71,
        "hand": "right"
      },
      {
        "midi": 68,
        "time": 38,
        "duration": 0.25,
        "velocity": 0.71,
        "hand": "right"
      },
      {
        "midi": 66,
        "time": 38.25,
        "duration": 0.25,
        "velocity": 0.71,
        "hand": "right"
      },
      {
        "midi": 69,
        "time": 38.5,
        "duration": 0.25,
        "velocity": 0.71,
        "hand": "right"
      },
      {
        "midi": 71,
        "time": 38.75,
        "duration": 0.25,
        "velocity": 0.71,
        "hand": "right"
      },
      {
        "midi": 73,
        "time": 39,
        "duration": 1,
        "velocity": 0.71,
        "hand": "right"
      },
      {
        "midi": 85,
        "time": 39,
        "duration": 1,
        "velocity": 0.71,
        "hand": "right"
      },
      {
        "midi": 78,
        "time": 39.25,
        "duration": 0.25,
        "velocity": 0.71,
        "hand": "right"
      },
      {
        "midi": 80,
        "time": 39.5,
        "duration": 0.25,
        "velocity": 0.71,
        "hand": "right"
      },
      {
        "midi": 81,
        "time": 39.75,
        "duration": 0.25,
        "velocity": 0.71,
        "hand": "right"
      },
      {
        "midi": 83,
        "time": 39.75,
        "duration": 0.125,
        "velocity": 0.71,
        "hand": "right"
      },
      {
        "midi": 73,
        "time": 40,
        "duration": 2,
        "velocity": 0.71,
        "hand": "right"
      },
      {
        "midi": 80,
        "time": 40,
        "duration": 1.75,
        "velocity": 0.71,
        "hand": "right"
      },
      {
        "midi": 85,
        "time": 40,
        "duration": 2,
        "velocity": 0.71,
        "hand": "right"
      },
      {
        "midi": 42,
        "time": 40.25,
        "duration": 0.25,
        "velocity": 0.71,
        "hand": "left"
      },
      {
        "midi": 49,
        "time": 40.5,
        "duration": 0.25,
        "velocity": 0.71,
        "hand": "left"
      },
      {
        "midi": 57,
        "time": 40.75,
        "duration": 0.25,
        "velocity": 0.71,
        "hand": "left"
      },
      {
        "midi": 56,
        "time": 41,
        "duration": 0.25,
        "velocity": 0.71,
        "hand": "left"
      },
      {
        "midi": 54,
        "time": 41.25,
        "duration": 0.25,
        "velocity": 0.71,
        "hand": "left"
      },
      {
        "midi": 61,
        "time": 41.5,
        "duration": 0.25,
        "velocity": 0.71,
        "hand": "right"
      },
      {
        "midi": 69,
        "time": 41.75,
        "duration": 0.25,
        "velocity": 0.71,
        "hand": "right"
      },
      {
        "midi": 78,
        "time": 41.75,
        "duration": 0.25,
        "velocity": 0.71,
        "hand": "right"
      },
      {
        "midi": 68,
        "time": 42,
        "duration": 0.25,
        "velocity": 0.71,
        "hand": "right"
      },
      {
        "midi": 66,
        "time": 42.25,
        "duration": 0.25,
        "velocity": 0.71,
        "hand": "right"
      },
      {
        "midi": 69,
        "time": 42.5,
        "duration": 0.25,
        "velocity": 0.71,
        "hand": "right"
      },
      {
        "midi": 71,
        "time": 42.75,
        "duration": 0.25,
        "velocity": 0.71,
        "hand": "right"
      },
      {
        "midi": 73,
        "time": 43,
        "duration": 0.75,
        "velocity": 0.71,
        "hand": "right"
      },
      {
        "midi": 85,
        "time": 43,
        "duration": 0.75,
        "velocity": 0.71,
        "hand": "right"
      },
      {
        "midi": 78,
        "time": 43.25,
        "duration": 0.25,
        "velocity": 0.71,
        "hand": "right"
      },
      {
        "midi": 81,
        "time": 43.5,
        "duration": 0.5,
        "velocity": 0.71,
        "hand": "right"
      },
      {
        "midi": 47,
        "time": 43.75,
        "duration": 0.5,
        "velocity": 0.71,
        "hand": "left"
      },
      {
        "midi": 75,
        "time": 43.75,
        "duration": 0.25,
        "velocity": 0.71,
        "hand": "right"
      },
      {
        "midi": 87,
        "time": 43.75,
        "duration": 0.25,
        "velocity": 0.71,
        "hand": "right"
      },
      {
        "midi": 75,
        "time": 44,
        "duration": 0.125,
        "velocity": 0.71,
        "hand": "right"
      },
      {
        "midi": 81,
        "time": 44,
        "duration": 0.75,
        "velocity": 0.71,
        "hand": "right"
      },
      {
        "midi": 90,
        "time": 44,
        "duration": 0.75,
        "velocity": 0.71,
        "hand": "right"
      },
      {
        "midi": 40,
        "time": 44.25,
        "duration": 0.25,
        "velocity": 0.71,
        "hand": "left"
      },
      {
        "midi": 47,
        "time": 44.5,
        "duration": 0.25,
        "velocity": 0.71,
        "hand": "left"
      },
      {
        "midi": 56,
        "time": 44.75,
        "duration": 0.25,
        "velocity": 0.71,
        "hand": "left"
      },
      {
        "midi": 80,
        "time": 44.75,
        "duration": 0.25,
        "velocity": 0.71,
        "hand": "right"
      },
      {
        "midi": 88,
        "time": 44.75,
        "duration": 0.25,
        "velocity": 0.71,
        "hand": "right"
      },
      {
        "midi": 54,
        "time": 45,
        "duration": 0.25,
        "velocity": 0.71,
        "hand": "left"
      },
      {
        "midi": 52,
        "time": 45.25,
        "duration": 0.25,
        "velocity": 0.71,
        "hand": "left"
      },
      {
        "midi": 59,
        "time": 45.5,
        "duration": 0.25,
        "velocity": 0.71,
        "hand": "left"
      },
      {
        "midi": 68,
        "time": 45.75,
        "duration": 0.25,
        "velocity": 0.71,
        "hand": "right"
      },
      {
        "midi": 66,
        "time": 46,
        "duration": 0.25,
        "velocity": 0.71,
        "hand": "right"
      },
      {
        "midi": 64,
        "time": 46.25,
        "duration": 0.25,
        "velocity": 0.71,
        "hand": "right"
      },
      {
        "midi": 68,
        "time": 46.5,
        "duration": 0.25,
        "velocity": 0.71,
        "hand": "right"
      },
      {
        "midi": 69,
        "time": 46.75,
        "duration": 0.25,
        "velocity": 0.71,
        "hand": "right"
      },
      {
        "midi": 71,
        "time": 47,
        "duration": 1,
        "velocity": 0.71,
        "hand": "right"
      },
      {
        "midi": 83,
        "time": 47,
        "duration": 1,
        "velocity": 0.71,
        "hand": "right"
      },
      {
        "midi": 76,
        "time": 47.25,
        "duration": 0.25,
        "velocity": 0.71,
        "hand": "right"
      },
      {
        "midi": 78,
        "time": 47.5,
        "duration": 0.25,
        "velocity": 0.71,
        "hand": "right"
      },
      {
        "midi": 79,
        "time": 47.75,
        "duration": 0.25,
        "velocity": 0.71,
        "hand": "right"
      },
      {
        "midi": 81,
        "time": 47.75,
        "duration": 0.125,
        "velocity": 0.71,
        "hand": "right"
      },
      {
        "midi": 71,
        "time": 48,
        "duration": 2,
        "velocity": 0.71,
        "hand": "right"
      },
      {
        "midi": 78,
        "time": 48,
        "duration": 1.75,
        "velocity": 0.71,
        "hand": "right"
      },
      {
        "midi": 83,
        "time": 48,
        "duration": 2,
        "velocity": 0.71,
        "hand": "right"
      },
      {
        "midi": 40,
        "time": 48.25,
        "duration": 0.25,
        "velocity": 0.71,
        "hand": "left"
      },
      {
        "midi": 47,
        "time": 48.5,
        "duration": 0.25,
        "velocity": 0.71,
        "hand": "left"
      },
      {
        "midi": 55,
        "time": 48.75,
        "duration": 0.25,
        "velocity": 0.71,
        "hand": "left"
      },
      {
        "midi": 54,
        "time": 49,
        "duration": 0.25,
        "velocity": 0.71,
        "hand": "left"
      },
      {
        "midi": 52,
        "time": 49.25,
        "duration": 0.25,
        "velocity": 0.71,
        "hand": "left"
      },
      {
        "midi": 59,
        "time": 49.5,
        "duration": 0.25,
        "velocity": 0.71,
        "hand": "left"
      },
      {
        "midi": 67,
        "time": 49.75,
        "duration": 0.25,
        "velocity": 0.71,
        "hand": "right"
      },
      {
        "midi": 76,
        "time": 49.75,
        "duration": 0.25,
        "velocity": 0.71,
        "hand": "right"
      },
      {
        "midi": 66,
        "time": 50,
        "duration": 0.25,
        "velocity": 0.71,
        "hand": "right"
      },
      {
        "midi": 64,
        "time": 50.25,
        "duration": 0.25,
        "velocity": 0.71,
        "hand": "right"
      },
      {
        "midi": 67,
        "time": 50.5,
        "duration": 0.25,
        "velocity": 0.71,
        "hand": "right"
      },
      {
        "midi": 69,
        "time": 50.75,
        "duration": 0.25,
        "velocity": 0.71,
        "hand": "right"
      },
      {
        "midi": 71,
        "time": 51,
        "duration": 0.75,
        "velocity": 0.71,
        "hand": "right"
      },
      {
        "midi": 83,
        "time": 51,
        "duration": 0.75,
        "velocity": 0.71,
        "hand": "right"
      },
      {
        "midi": 76,
        "time": 51.25,
        "duration": 0.25,
        "velocity": 0.71,
        "hand": "right"
      },
      {
        "midi": 79,
        "time": 51.5,
        "duration": 0.25,
        "velocity": 0.71,
        "hand": "right"
      },
      {
        "midi": 45,
        "time": 51.75,
        "duration": 0.5,
        "velocity": 0.71,
        "hand": "left"
      },
      {
        "midi": 73,
        "time": 51.75,
        "duration": 0.25,
        "velocity": 0.71,
        "hand": "right"
      },
      {
        "midi": 85,
        "time": 51.75,
        "duration": 0.25,
        "velocity": 0.71,
        "hand": "right"
      },
      {
        "midi": 73,
        "time": 52,
        "duration": 0.5,
        "velocity": 0.71,
        "hand": "right"
      },
      {
        "midi": 79,
        "time": 52,
        "duration": 0.5,
        "velocity": 0.71,
        "hand": "right"
      },
      {
        "midi": 85,
        "time": 52,
        "duration": 0.5,
        "velocity": 0.71,
        "hand": "right"
      },
      {
        "midi": 46,
        "time": 52.25,
        "duration": 0.25,
        "velocity": 0.71,
        "hand": "left"
      },
      {
        "midi": 53,
        "time": 52.5,
        "duration": 0.25,
        "velocity": 0.71,
        "hand": "left"
      },
      {
        "midi": 77,
        "time": 52.5,
        "duration": 1,
        "velocity": 0.71,
        "hand": "right"
      },
      {
        "midi": 86,
        "time": 52.5,
        "duration": 1,
        "velocity": 0.71,
        "hand": "right"
      },
      {
        "midi": 62,
        "time": 52.75,
        "duration": 0.25,
        "velocity": 0.71,
        "hand": "right"
      },
      {
        "midi": 60,
        "time": 53,
        "duration": 0.25,
        "velocity": 0.71,
        "hand": "right"
      },
      {
        "midi": 58,
        "time": 53.25,
        "duration": 0.25,
        "velocity": 0.71,
        "hand": "left"
      },
      {
        "midi": 65,
        "time": 53.5,
        "duration": 0.25,
        "velocity": 0.71,
        "hand": "right"
      },
      {
        "midi": 77,
        "time": 53.5,
        "duration": 0.5,
        "velocity": 0.71,
        "hand": "right"
      },
      {
        "midi": 84,
        "time": 53.5,
        "duration": 0.5,
        "velocity": 0.71,
        "hand": "right"
      },
      {
        "midi": 74,
        "time": 53.75,
        "duration": 0.25,
        "velocity": 0.71,
        "hand": "right"
      },
      {
        "midi": 72,
        "time": 54,
        "duration": 0.5,
        "velocity": 0.71,
        "hand": "right"
      },
      {
        "midi": 75,
        "time": 54,
        "duration": 0.5,
        "velocity": 0.71,
        "hand": "right"
      },
      {
        "midi": 84,
        "time": 54,
        "duration": 0.5,
        "velocity": 0.71,
        "hand": "right"
      },
      {
        "midi": 39,
        "time": 54.25,
        "duration": 0.25,
        "velocity": 0.71,
        "hand": "left"
      },
      {
        "midi": 46,
        "time": 54.5,
        "duration": 0.25,
        "velocity": 0.71,
        "hand": "left"
      },
      {
        "midi": 79,
        "time": 54.5,
        "duration": 0.5,
        "velocity": 0.71,
        "hand": "right"
      },
      {
        "midi": 82,
        "time": 54.5,
        "duration": 0.5,
        "velocity": 0.71,
        "hand": "right"
      },
      {
        "midi": 55,
        "time": 54.75,
        "duration": 0.25,
        "velocity": 0.71,
        "hand": "left"
      },
      {
        "midi": 53,
        "time": 55,
        "duration": 0.25,
        "velocity": 0.71,
        "hand": "left"
      },
      {
        "midi": 75,
        "time": 55,
        "duration": 0.5,
        "velocity": 0.71,
        "hand": "right"
      },
      {
        "midi": 79,
        "time": 55,
        "duration": 0.5,
        "velocity": 0.71,
        "hand": "right"
      },
      {
        "midi": 51,
        "time": 55.25,
        "duration": 0.25,
        "velocity": 0.71,
        "hand": "left"
      },
      {
        "midi": 58,
        "time": 55.5,
        "duration": 0.25,
        "velocity": 0.71,
        "hand": "left"
      },
      {
        "midi": 79,
        "time": 55.5,
        "duration": 0.5,
        "velocity": 0.71,
        "hand": "right"
      },
      {
        "midi": 82,
        "time": 55.5,
        "duration": 0.5,
        "velocity": 0.71,
        "hand": "right"
      },
      {
        "midi": 67,
        "time": 55.75,
        "duration": 0.25,
        "velocity": 0.71,
        "hand": "right"
      },
      {
        "midi": 65,
        "time": 56,
        "duration": 2,
        "velocity": 0.71,
        "hand": "right"
      },
      {
        "midi": 74,
        "time": 56,
        "duration": 2,
        "velocity": 0.71,
        "hand": "right"
      },
      {
        "midi": 77,
        "time": 56,
        "duration": 2,
        "velocity": 0.71,
        "hand": "right"
      },
      {
        "midi": 41,
        "time": 56.25,
        "duration": 0.25,
        "velocity": 0.71,
        "hand": "left"
      },
      {
        "midi": 50,
        "time": 56.5,
        "duration": 0.25,
        "velocity": 0.71,
        "hand": "left"
      },
      {
        "midi": 53,
        "time": 56.75,
        "duration": 0.25,
        "velocity": 0.71,
        "hand": "left"
      },
      {
        "midi": 55,
        "time": 57,
        "duration": 0.25,
        "velocity": 0.71,
        "hand": "left"
      },
      {
        "midi": 53,
        "time": 57.25,
        "duration": 0.25,
        "velocity": 0.71,
        "hand": "left"
      },
      {
        "midi": 63,
        "time": 57.5,
        "duration": 0.25,
        "velocity": 0.71,
        "hand": "right"
      },
      {
        "midi": 62,
        "time": 57.75,
        "duration": 0.25,
        "velocity": 0.71,
        "hand": "right"
      },
      {
        "midi": 29,
        "time": 58,
        "duration": 0.25,
        "velocity": 0.71,
        "hand": "left"
      },
      {
        "midi": 69,
        "time": 58,
        "duration": 2,
        "velocity": 0.71,
        "hand": "right"
      },
      {
        "midi": 77,
        "time": 58,
        "duration": 1.75,
        "velocity": 0.71,
        "hand": "right"
      },
      {
        "midi": 41,
        "time": 58.25,
        "duration": 0.25,
        "velocity": 0.71,
        "hand": "left"
      },
      {
        "midi": 48,
        "time": 58.5,
        "duration": 0.25,
        "velocity": 0.71,
        "hand": "left"
      },
      {
        "midi": 51,
        "time": 58.75,
        "duration": 0.25,
        "velocity": 0.71,
        "hand": "left"
      },
      {
        "midi": 55,
        "time": 59,
        "duration": 0.25,
        "velocity": 0.71,
        "hand": "left"
      },
      {
        "midi": 53,
        "time": 59.25,
        "duration": 0.25,
        "velocity": 0.71,
        "hand": "left"
      },
      {
        "midi": 62,
        "time": 59.5,
        "duration": 0.25,
        "velocity": 0.71,
        "hand": "right"
      },
      {
        "midi": 60,
        "time": 59.75,
        "duration": 0.25,
        "velocity": 0.71,
        "hand": "right"
      },
      {
        "midi": 75,
        "time": 59.75,
        "duration": 0.25,
        "velocity": 0.71,
        "hand": "right"
      },
      {
        "midi": 30,
        "time": 60,
        "duration": 0.25,
        "velocity": 0.71,
        "hand": "left"
      },
      {
        "midi": 70,
        "time": 60,
        "duration": 0.5,
        "velocity": 0.71,
        "hand": "right"
      },
      {
        "midi": 73,
        "time": 60,
        "duration": 0.5,
        "velocity": 0.71,
        "hand": "right"
      },
      {
        "midi": 42,
        "time": 60.25,
        "duration": 0.25,
        "velocity": 0.71,
        "hand": "left"
      },
      {
        "midi": 49,
        "time": 60.5,
        "duration": 0.25,
        "velocity": 0.71,
        "hand": "left"
      },
      {
        "midi": 58,
        "time": 60.75,
        "duration": 0.25,
        "velocity": 0.71,
        "hand": "left"
      },
      {
        "midi": 56,
        "time": 61,
        "duration": 0.25,
        "velocity": 0.71,
        "hand": "left"
      },
      {
        "midi": 73,
        "time": 61,
        "duration": 1,
        "velocity": 0.71,
        "hand": "right"
      },
      {
        "midi": 82,
        "time": 61,
        "duration": 1,
        "velocity": 0.71,
        "hand": "right"
      },
      {
        "midi": 54,
        "time": 61.25,
        "duration": 0.25,
        "velocity": 0.71,
        "hand": "left"
      },
      {
        "midi": 61,
        "time": 61.5,
        "duration": 0.25,
        "velocity": 0.71,
        "hand": "right"
      },
      {
        "midi": 70,
        "time": 61.75,
        "duration": 0.25,
        "velocity": 0.71,
        "hand": "right"
      },
      {
        "midi": 68,
        "time": 62,
        "duration": 0.5,
        "velocity": 0.71,
        "hand": "right"
      },
      {
        "midi": 71,
        "time": 62,
        "duration": 0.5,
        "velocity": 0.71,
        "hand": "right"
      },
      {
        "midi": 80,
        "time": 62,
        "duration": 0.5,
        "velocity": 0.71,
        "hand": "right"
      },
      {
        "midi": 35,
        "time": 62.25,
        "duration": 0.25,
        "velocity": 0.71,
        "hand": "left"
      },
      {
        "midi": 42,
        "time": 62.5,
        "duration": 0.25,
        "velocity": 0.71,
        "hand": "left"
      },
      {
        "midi": 71,
        "time": 62.5,
        "duration": 0.5,
        "velocity": 0.71,
        "hand": "right"
      },
      {
        "midi": 78,
        "time": 62.5,
        "duration": 0.5,
        "velocity": 0.71,
        "hand": "right"
      },
      {
        "midi": 51,
        "time": 62.75,
        "duration": 0.25,
        "velocity": 0.71,
        "hand": "left"
      },
      {
        "midi": 49,
        "time": 63,
        "duration": 0.25,
        "velocity": 0.71,
        "hand": "left"
      },
      {
        "midi": 71,
        "time": 63,
        "duration": 0.5,
        "velocity": 0.71,
        "hand": "right"
      },
      {
        "midi": 75,
        "time": 63,
        "duration": 0.5,
        "velocity": 0.71,
        "hand": "right"
      },
      {
        "midi": 47,
        "time": 63.25,
        "duration": 0.25,
        "velocity": 0.71,
        "hand": "left"
      },
      {
        "midi": 54,
        "time": 63.5,
        "duration": 0.25,
        "velocity": 0.71,
        "hand": "left"
      },
      {
        "midi": 71,
        "time": 63.5,
        "duration": 0.5,
        "velocity": 0.71,
        "hand": "right"
      },
      {
        "midi": 78,
        "time": 63.5,
        "duration": 0.5,
        "velocity": 0.71,
        "hand": "right"
      },
      {
        "midi": 63,
        "time": 63.75,
        "duration": 0.25,
        "velocity": 0.71,
        "hand": "right"
      },
      {
        "midi": 37,
        "time": 64,
        "duration": 0.25,
        "velocity": 0.71,
        "hand": "left"
      },
      {
        "midi": 66,
        "time": 64,
        "duration": 1,
        "velocity": 0.71,
        "hand": "right"
      },
      {
        "midi": 73,
        "time": 64,
        "duration": 1,
        "velocity": 0.71,
        "hand": "right"
      },
      {
        "midi": 49,
        "time": 64.25,
        "duration": 0.25,
        "velocity": 0.71,
        "hand": "left"
      },
      {
        "midi": 54,
        "time": 64.5,
        "duration": 0.25,
        "velocity": 0.71,
        "hand": "left"
      },
      {
        "midi": 58,
        "time": 64.75,
        "duration": 0.25,
        "velocity": 0.71,
        "hand": "left"
      },
      {
        "midi": 56,
        "time": 65,
        "duration": 0.25,
        "velocity": 0.71,
        "hand": "left"
      },
      {
        "midi": 70,
        "time": 65,
        "duration": 1,
        "velocity": 0.71,
        "hand": "right"
      },
      {
        "midi": 75,
        "time": 65,
        "duration": 1,
        "velocity": 0.71,
        "hand": "right"
      },
      {
        "midi": 55,
        "time": 65.25,
        "duration": 0.25,
        "velocity": 0.71,
        "hand": "left"
      },
      {
        "midi": 59,
        "time": 65.5,
        "duration": 0.25,
        "velocity": 0.71,
        "hand": "left"
      },
      {
        "midi": 58,
        "time": 65.75,
        "duration": 0.25,
        "velocity": 0.71,
        "hand": "left"
      },
      {
        "midi": 49,
        "time": 66,
        "duration": 2,
        "velocity": 0.71,
        "hand": "left"
      },
      {
        "midi": 68,
        "time": 66,
        "duration": 1.5,
        "velocity": 0.71,
        "hand": "right"
      },
      {
        "midi": 75,
        "time": 66,
        "duration": 1.5,
        "velocity": 0.71,
        "hand": "right"
      },
      {
        "midi": 55,
        "time": 66.25,
        "duration": 0.25,
        "velocity": 0.71,
        "hand": "left"
      },
      {
        "midi": 56,
        "time": 66.5,
        "duration": 0.25,
        "velocity": 0.71,
        "hand": "left"
      },
      {
        "midi": 59,
        "time": 66.75,
        "duration": 0.25,
        "velocity": 0.71,
        "hand": "left"
      },
      {
        "midi": 58,
        "time": 67,
        "duration": 0.25,
        "velocity": 0.71,
        "hand": "left"
      },
      {
        "midi": 56,
        "time": 67.25,
        "duration": 0.25,
        "velocity": 0.71,
        "hand": "left"
      },
      {
        "midi": 63,
        "time": 67.5,
        "duration": 0.25,
        "velocity": 0.71,
        "hand": "right"
      },
      {
        "midi": 71,
        "time": 67.5,
        "duration": 0.5,
        "velocity": 0.71,
        "hand": "right"
      },
      {
        "midi": 77,
        "time": 67.5,
        "duration": 0.5,
        "velocity": 0.71,
        "hand": "right"
      },
      {
        "midi": 61,
        "time": 67.75,
        "duration": 0.25,
        "velocity": 0.71,
        "hand": "right"
      },
      {
        "midi": 30,
        "time": 68,
        "duration": 0.25,
        "velocity": 0.71,
        "hand": "left"
      },
      {
        "midi": 70,
        "time": 68,
        "duration": 1,
        "velocity": 0.71,
        "hand": "right"
      },
      {
        "midi": 77,
        "time": 68,
        "duration": 0.75,
        "velocity": 0.71,
        "hand": "right"
      },
      {
        "midi": 42,
        "time": 68.25,
        "duration": 0.25,
        "velocity": 0.71,
        "hand": "left"
      },
      {
        "midi": 49,
        "time": 68.5,
        "duration": 0.25,
        "velocity": 0.71,
        "hand": "left"
      },
      {
        "midi": 58,
        "time": 68.75,
        "duration": 0.25,
        "velocity": 0.71,
        "hand": "left"
      },
      {
        "midi": 66,
        "time": 68.75,
        "duration": 0.25,
        "velocity": 0.71,
        "hand": "right"
      },
      {
        "midi": 78,
        "time": 68.75,
        "duration": 0.25,
        "velocity": 0.71,
        "hand": "right"
      },
      {
        "midi": 56,
        "time": 69,
        "duration": 0.25,
        "velocity": 0.71,
        "hand": "left"
      },
      {
        "midi": 54,
        "time": 69.25,
        "duration": 0.25,
        "velocity": 0.71,
        "hand": "left"
      },
      {
        "midi": 61,
        "time": 69.5,
        "duration": 0.25,
        "velocity": 0.71,
        "hand": "right"
      },
      {
        "midi": 70,
        "time": 69.75,
        "duration": 0.25,
        "velocity": 0.71,
        "hand": "right"
      },
      {
        "midi": 68,
        "time": 70,
        "duration": 0.25,
        "velocity": 0.71,
        "hand": "right"
      },
      {
        "midi": 66,
        "time": 70.25,
        "duration": 0.25,
        "velocity": 0.71,
        "hand": "right"
      },
      {
        "midi": 70,
        "time": 70.5,
        "duration": 0.25,
        "velocity": 0.71,
        "hand": "right"
      },
      {
        "midi": 71,
        "time": 70.75,
        "duration": 0.25,
        "velocity": 0.71,
        "hand": "right"
      },
      {
        "midi": 73,
        "time": 71,
        "duration": 1,
        "velocity": 0.71,
        "hand": "right"
      },
      {
        "midi": 85,
        "time": 71,
        "duration": 0.875,
        "velocity": 0.71,
        "hand": "right"
      },
      {
        "midi": 76,
        "time": 71.25,
        "duration": 0.25,
        "velocity": 0.71,
        "hand": "right"
      },
      {
        "midi": 82,
        "time": 71.5,
        "duration": 0.25,
        "velocity": 0.71,
        "hand": "right"
      },
      {
        "midi": 80,
        "time": 71.75,
        "duration": 0.25,
        "velocity": 0.71,
        "hand": "right"
      },
      {
        "midi": 85,
        "time": 71.875,
        "duration": 0.125,
        "velocity": 0.71,
        "hand": "right"
      },
      {
        "midi": 30,
        "time": 72,
        "duration": 0.25,
        "velocity": 0.71,
        "hand": "left"
      },
      {
        "midi": 76,
        "time": 72,
        "duration": 2,
        "velocity": 0.71,
        "hand": "right"
      },
      {
        "midi": 85,
        "time": 72,
        "duration": 2,
        "velocity": 0.71,
        "hand": "right"
      },
      {
        "midi": 42,
        "time": 72.25,
        "duration": 0.25,
        "velocity": 0.71,
        "hand": "left"
      },
      {
        "midi": 49,
        "time": 72.5,
        "duration": 0.25,
        "velocity": 0.71,
        "hand": "left"
      },
      {
        "midi": 58,
        "time": 72.75,
        "duration": 0.25,
        "velocity": 0.71,
        "hand": "left"
      },
      {
        "midi": 56,
        "time": 73,
        "duration": 0.25,
        "velocity": 0.71,
        "hand": "left"
      },
      {
        "midi": 54,
        "time": 73.25,
        "duration": 0.25,
        "velocity": 0.71,
        "hand": "left"
      },
      {
        "midi": 61,
        "time": 73.5,
        "duration": 0.25,
        "velocity": 0.71,
        "hand": "right"
      },
      {
        "midi": 70,
        "time": 73.75,
        "duration": 0.25,
        "velocity": 0.71,
        "hand": "right"
      },
      {
        "midi": 78,
        "time": 73.75,
        "duration": 0.25,
        "velocity": 0.71,
        "hand": "right"
      },
      {
        "midi": 68,
        "time": 74,
        "duration": 0.25,
        "velocity": 0.71,
        "hand": "right"
      },
      {
        "midi": 66,
        "time": 74.25,
        "duration": 0.25,
        "velocity": 0.71,
        "hand": "right"
      },
      {
        "midi": 70,
        "time": 74.5,
        "duration": 0.25,
        "velocity": 0.71,
        "hand": "right"
      },
      {
        "midi": 71,
        "time": 74.75,
        "duration": 0.25,
        "velocity": 0.71,
        "hand": "right"
      },
      {
        "midi": 73,
        "time": 75,
        "duration": 0.75,
        "velocity": 0.71,
        "hand": "right"
      },
      {
        "midi": 85,
        "time": 75,
        "duration": 0.75,
        "velocity": 0.71,
        "hand": "right"
      },
      {
        "midi": 76,
        "time": 75.25,
        "duration": 0.25,
        "velocity": 0.71,
        "hand": "right"
      },
      {
        "midi": 82,
        "time": 75.5,
        "duration": 0.25,
        "velocity": 0.71,
        "hand": "right"
      },
      {
        "midi": 40,
        "time": 75.75,
        "duration": 0.5,
        "velocity": 0.71,
        "hand": "left"
      },
      {
        "midi": 80,
        "time": 75.75,
        "duration": 0.25,
        "velocity": 0.71,
        "hand": "right"
      },
      {
        "midi": 86,
        "time": 75.75,
        "duration": 0.25,
        "velocity": 0.71,
        "hand": "right"
      },
      {
        "midi": 75,
        "time": 76,
        "duration": 1,
        "velocity": 0.71,
        "hand": "right"
      },
      {
        "midi": 79,
        "time": 76,
        "duration": 1,
        "velocity": 0.71,
        "hand": "right"
      },
      {
        "midi": 87,
        "time": 76,
        "duration": 1,
        "velocity": 0.71,
        "hand": "right"
      },
      {
        "midi": 39,
        "time": 76.25,
        "duration": 0.25,
        "velocity": 0.71,
        "hand": "left"
      },
      {
        "midi": 46,
        "time": 76.5,
        "duration": 0.25,
        "velocity": 0.71,
        "hand": "left"
      },
      {
        "midi": 55,
        "time": 76.75,
        "duration": 0.25,
        "velocity": 0.71,
        "hand": "left"
      },
      {
        "midi": 53,
        "time": 77,
        "duration": 0.25,
        "velocity": 0.71,
        "hand": "left"
      },
      {
        "midi": 79,
        "time": 77,
        "duration": 0.5,
        "velocity": 0.71,
        "hand": "right"
      },
      {
        "midi": 82,
        "time": 77,
        "duration": 0.5,
        "velocity": 0.71,
        "hand": "right"
      },
      {
        "midi": 51,
        "time": 77.25,
        "duration": 0.25,
        "velocity": 0.71,
        "hand": "left"
      },
      {
        "midi": 58,
        "time": 77.5,
        "duration": 0.25,
        "velocity": 0.71,
        "hand": "left"
      },
      {
        "midi": 67,
        "time": 77.75,
        "duration": 0.25,
        "velocity": 0.71,
        "hand": "right"
      },
      {
        "midi": 65,
        "time": 78,
        "duration": 0.25,
        "velocity": 0.71,
        "hand": "right"
      },
      {
        "midi": 63,
        "time": 78.25,
        "duration": 0.25,
        "velocity": 0.71,
        "hand": "right"
      },
      {
        "midi": 67,
        "time": 78.5,
        "duration": 0.25,
        "velocity": 0.71,
        "hand": "right"
      },
      {
        "midi": 68,
        "time": 78.75,
        "duration": 0.25,
        "velocity": 0.71,
        "hand": "right"
      },
      {
        "midi": 70,
        "time": 79,
        "duration": 1,
        "velocity": 0.71,
        "hand": "right"
      },
      {
        "midi": 82,
        "time": 79,
        "duration": 0.875,
        "velocity": 0.71,
        "hand": "right"
      },
      {
        "midi": 75,
        "time": 79.25,
        "duration": 0.25,
        "velocity": 0.71,
        "hand": "right"
      },
      {
        "midi": 79,
        "time": 79.5,
        "duration": 0.25,
        "velocity": 0.71,
        "hand": "right"
      },
      {
        "midi": 77,
        "time": 79.75,
        "duration": 0.25,
        "velocity": 0.71,
        "hand": "right"
      },
      {
        "midi": 82,
        "time": 79.875,
        "duration": 0.125,
        "velocity": 0.71,
        "hand": "right"
      },
      {
        "midi": 27,
        "time": 80,
        "duration": 0.25,
        "velocity": 0.71,
        "hand": "left"
      },
      {
        "midi": 77,
        "time": 80,
        "duration": 1.75,
        "velocity": 0.71,
        "hand": "right"
      },
      {
        "midi": 82,
        "time": 80,
        "duration": 2,
        "velocity": 0.71,
        "hand": "right"
      },
      {
        "midi": 39,
        "time": 80.25,
        "duration": 0.25,
        "velocity": 0.71,
        "hand": "left"
      },
      {
        "midi": 46,
        "time": 80.5,
        "duration": 0.25,
        "velocity": 0.71,
        "hand": "left"
      },
      {
        "midi": 55,
        "time": 80.75,
        "duration": 0.25,
        "velocity": 0.71,
        "hand": "left"
      },
      {
        "midi": 53,
        "time": 81,
        "duration": 0.25,
        "velocity": 0.71,
        "hand": "left"
      },
      {
        "midi": 51,
        "time": 81.25,
        "duration": 0.25,
        "velocity": 0.71,
        "hand": "left"
      },
      {
        "midi": 58,
        "time": 81.5,
        "duration": 0.25,
        "velocity": 0.71,
        "hand": "left"
      },
      {
        "midi": 67,
        "time": 81.75,
        "duration": 0.25,
        "velocity": 0.71,
        "hand": "right"
      },
      {
        "midi": 75,
        "time": 81.75,
        "duration": 0.25,
        "velocity": 0.71,
        "hand": "right"
      },
      {
        "midi": 65,
        "time": 82,
        "duration": 0.25,
        "velocity": 0.71,
        "hand": "right"
      },
      {
        "midi": 63,
        "time": 82.25,
        "duration": 0.25,
        "velocity": 0.71,
        "hand": "right"
      },
      {
        "midi": 67,
        "time": 82.5,
        "duration": 0.25,
        "velocity": 0.71,
        "hand": "right"
      },
      {
        "midi": 68,
        "time": 82.75,
        "duration": 0.25,
        "velocity": 0.71,
        "hand": "right"
      },
      {
        "midi": 70,
        "time": 83,
        "duration": 0.75,
        "velocity": 0.71,
        "hand": "right"
      },
      {
        "midi": 82,
        "time": 83,
        "duration": 0.75,
        "velocity": 0.71,
        "hand": "right"
      },
      {
        "midi": 75,
        "time": 83.25,
        "duration": 0.25,
        "velocity": 0.71,
        "hand": "right"
      },
      {
        "midi": 79,
        "time": 83.5,
        "duration": 0.5,
        "velocity": 0.71,
        "hand": "right"
      },
      {
        "midi": 71,
        "time": 83.75,
        "duration": 0.25,
        "velocity": 0.71,
        "hand": "right"
      },
      {
        "midi": 83,
        "time": 83.75,
        "duration": 0.25,
        "velocity": 0.71,
        "hand": "right"
      },
      {
        "midi": 32,
        "time": 84,
        "duration": 0.25,
        "velocity": 0.71,
        "hand": "left"
      },
      {
        "midi": 75,
        "time": 84,
        "duration": 1,
        "velocity": 0.71,
        "hand": "right"
      },
      {
        "midi": 83,
        "time": 84,
        "duration": 0.5,
        "velocity": 0.71,
        "hand": "right"
      },
      {
        "midi": 44,
        "time": 84.25,
        "duration": 0.25,
        "velocity": 0.71,
        "hand": "left"
      },
      {
        "midi": 51,
        "time": 84.5,
        "duration": 0.25,
        "velocity": 0.71,
        "hand": "left"
      },
      {
        "midi": 80,
        "time": 84.5,
        "duration": 0.5,
        "velocity": 0.71,
        "hand": "right"
      },
      {
        "midi": 84,
        "time": 84.5,
        "duration": 0.5,
        "velocity": 0.71,
        "hand": "right"
      },
      {
        "midi": 60,
        "time": 84.75,
        "duration": 0.25,
        "velocity": 0.71,
        "hand": "right"
      },
      {
        "midi": 58,
        "time": 85,
        "duration": 0.25,
        "velocity": 0.71,
        "hand": "left"
      },
      {
        "midi": 56,
        "time": 85.25,
        "duration": 0.25,
        "velocity": 0.71,
        "hand": "left"
      },
      {
        "midi": 63,
        "time": 85.5,
        "duration": 0.25,
        "velocity": 0.71,
        "hand": "right"
      },
      {
        "midi": 72,
        "time": 85.75,
        "duration": 0.25,
        "velocity": 0.71,
        "hand": "right"
      },
      {
        "midi": 70,
        "time": 86,
        "duration": 0.25,
        "velocity": 0.71,
        "hand": "right"
      },
      {
        "midi": 68,
        "time": 86.25,
        "duration": 0.25,
        "velocity": 0.71,
        "hand": "right"
      },
      {
        "midi": 72,
        "time": 86.5,
        "duration": 0.25,
        "velocity": 0.71,
        "hand": "right"
      },
      {
        "midi": 73,
        "time": 86.75,
        "duration": 0.25,
        "velocity": 0.71,
        "hand": "right"
      },
      {
        "midi": 75,
        "time": 87,
        "duration": 1,
        "velocity": 0.71,
        "hand": "right"
      },
      {
        "midi": 87,
        "time": 87,
        "duration": 0.875,
        "velocity": 0.71,
        "hand": "right"
      },
      {
        "midi": 78,
        "time": 87.25,
        "duration": 0.25,
        "velocity": 0.71,
        "hand": "right"
      },
      {
        "midi": 84,
        "time": 87.5,
        "duration": 0.25,
        "velocity": 0.71,
        "hand": "right"
      },
      {
        "midi": 82,
        "time": 87.75,
        "duration": 0.25,
        "velocity": 0.71,
        "hand": "right"
      },
      {
        "midi": 87,
        "time": 87.875,
        "duration": 0.125,
        "velocity": 0.71,
        "hand": "right"
      },
      {
        "midi": 32,
        "time": 88,
        "duration": 0.25,
        "velocity": 0.71,
        "hand": "left"
      },
      {
        "midi": 78,
        "time": 88,
        "duration": 2,
        "velocity": 0.71,
        "hand": "right"
      },
      {
        "midi": 87,
        "time": 88,
        "duration": 2,
        "velocity": 0.71,
        "hand": "right"
      },
      {
        "midi": 44,
        "time": 88.25,
        "duration": 0.25,
        "velocity": 0.71,
        "hand": "left"
      },
      {
        "midi": 51,
        "time": 88.5,
        "duration": 0.25,
        "velocity": 0.71,
        "hand": "left"
      },
      {
        "midi": 60,
        "time": 88.75,
        "duration": 0.25,
        "velocity": 0.71,
        "hand": "right"
      },
      {
        "midi": 58,
        "time": 89,
        "duration": 0.25,
        "velocity": 0.71,
        "hand": "left"
      },
      {
        "midi": 56,
        "time": 89.25,
        "duration": 0.25,
        "velocity": 0.71,
        "hand": "left"
      },
      {
        "midi": 63,
        "time": 89.5,
        "duration": 0.25,
        "velocity": 0.71,
        "hand": "right"
      },
      {
        "midi": 72,
        "time": 89.75,
        "duration": 0.25,
        "velocity": 0.71,
        "hand": "right"
      },
      {
        "midi": 80,
        "time": 89.75,
        "duration": 0.25,
        "velocity": 0.71,
        "hand": "right"
      },
      {
        "midi": 70,
        "time": 90,
        "duration": 0.25,
        "velocity": 0.71,
        "hand": "right"
      },
      {
        "midi": 68,
        "time": 90.25,
        "duration": 0.25,
        "velocity": 0.71,
        "hand": "right"
      },
      {
        "midi": 72,
        "time": 90.5,
        "duration": 0.25,
        "velocity": 0.71,
        "hand": "right"
      },
      {
        "midi": 73,
        "time": 90.75,
        "duration": 0.25,
        "velocity": 0.71,
        "hand": "right"
      },
      {
        "midi": 75,
        "time": 91,
        "duration": 0.75,
        "velocity": 0.71,
        "hand": "right"
      },
      {
        "midi": 87,
        "time": 91,
        "duration": 0.75,
        "velocity": 0.71,
        "hand": "right"
      },
      {
        "midi": 78,
        "time": 91.25,
        "duration": 0.25,
        "velocity": 0.71,
        "hand": "right"
      },
      {
        "midi": 84,
        "time": 91.5,
        "duration": 0.25,
        "velocity": 0.71,
        "hand": "right"
      },
      {
        "midi": 42,
        "time": 91.75,
        "duration": 0.5,
        "velocity": 0.71,
        "hand": "left"
      },
      {
        "midi": 82,
        "time": 91.75,
        "duration": 0.25,
        "velocity": 0.71,
        "hand": "right"
      },
      {
        "midi": 88,
        "time": 91.75,
        "duration": 0.25,
        "velocity": 0.71,
        "hand": "right"
      },
      {
        "midi": 77,
        "time": 92,
        "duration": 1,
        "velocity": 0.71,
        "hand": "right"
      },
      {
        "midi": 81,
        "time": 92,
        "duration": 1,
        "velocity": 0.71,
        "hand": "right"
      },
      {
        "midi": 89,
        "time": 92,
        "duration": 1,
        "velocity": 0.71,
        "hand": "right"
      },
      {
        "midi": 41,
        "time": 92.25,
        "duration": 0.25,
        "velocity": 0.71,
        "hand": "left"
      },
      {
        "midi": 48,
        "time": 92.5,
        "duration": 0.25,
        "velocity": 0.71,
        "hand": "left"
      },
      {
        "midi": 57,
        "time": 92.75,
        "duration": 0.25,
        "velocity": 0.71,
        "hand": "left"
      },
      {
        "midi": 55,
        "time": 93,
        "duration": 0.25,
        "velocity": 0.71,
        "hand": "left"
      },
      {
        "midi": 81,
        "time": 93,
        "duration": 0.5,
        "velocity": 0.71,
        "hand": "right"
      },
      {
        "midi": 84,
        "time": 93,
        "duration": 0.5,
        "velocity": 0.71,
        "hand": "right"
      },
      {
        "midi": 53,
        "time": 93.25,
        "duration": 0.25,
        "velocity": 0.71,
        "hand": "left"
      },
      {
        "midi": 60,
        "time": 93.5,
        "duration": 0.25,
        "velocity": 0.71,
        "hand": "right"
      },
      {
        "midi": 69,
        "time": 93.75,
        "duration": 0.25,
        "velocity": 0.71,
        "hand": "right"
      },
      {
        "midi": 67,
        "time": 94,
        "duration": 0.25,
        "velocity": 0.71,
        "hand": "right"
      },
      {
        "midi": 65,
        "time": 94.25,
        "duration": 0.25,
        "velocity": 0.71,
        "hand": "right"
      },
      {
        "midi": 69,
        "time": 94.5,
        "duration": 0.25,
        "velocity": 0.71,
        "hand": "right"
      },
      {
        "midi": 70,
        "time": 94.75,
        "duration": 0.25,
        "velocity": 0.71,
        "hand": "right"
      },
      {
        "midi": 72,
        "time": 95,
        "duration": 1,
        "velocity": 0.71,
        "hand": "right"
      },
      {
        "midi": 84,
        "time": 95,
        "duration": 0.875,
        "velocity": 0.71,
        "hand": "right"
      },
      {
        "midi": 77,
        "time": 95.25,
        "duration": 0.25,
        "velocity": 0.71,
        "hand": "right"
      },
      {
        "midi": 81,
        "time": 95.5,
        "duration": 0.25,
        "velocity": 0.71,
        "hand": "right"
      },
      {
        "midi": 79,
        "time": 95.75,
        "duration": 0.25,
        "velocity": 0.71,
        "hand": "right"
      },
      {
        "midi": 84,
        "time": 95.875,
        "duration": 0.125,
        "velocity": 0.71,
        "hand": "right"
      },
      {
        "midi": 29,
        "time": 96,
        "duration": 0.25,
        "velocity": 0.71,
        "hand": "left"
      },
      {
        "midi": 79,
        "time": 96,
        "duration": 1.75,
        "velocity": 0.71,
        "hand": "right"
      },
      {
        "midi": 84,
        "time": 96,
        "duration": 2,
        "velocity": 0.71,
        "hand": "right"
      },
      {
        "midi": 41,
        "time": 96.25,
        "duration": 0.25,
        "velocity": 0.71,
        "hand": "left"
      },
      {
        "midi": 48,
        "time": 96.5,
        "duration": 0.25,
        "velocity": 0.71,
        "hand": "left"
      },
      {
        "midi": 57,
        "time": 96.75,
        "duration": 0.25,
        "velocity": 0.71,
        "hand": "left"
      },
      {
        "midi": 55,
        "time": 97,
        "duration": 0.25,
        "velocity": 0.71,
        "hand": "left"
      },
      {
        "midi": 53,
        "time": 97.25,
        "duration": 0.25,
        "velocity": 0.71,
        "hand": "left"
      },
      {
        "midi": 60,
        "time": 97.5,
        "duration": 0.25,
        "velocity": 0.71,
        "hand": "right"
      },
      {
        "midi": 69,
        "time": 97.75,
        "duration": 0.25,
        "velocity": 0.71,
        "hand": "right"
      },
      {
        "midi": 77,
        "time": 97.75,
        "duration": 0.25,
        "velocity": 0.71,
        "hand": "right"
      },
      {
        "midi": 67,
        "time": 98,
        "duration": 0.25,
        "velocity": 0.71,
        "hand": "right"
      },
      {
        "midi": 65,
        "time": 98.25,
        "duration": 0.25,
        "velocity": 0.71,
        "hand": "right"
      },
      {
        "midi": 69,
        "time": 98.5,
        "duration": 0.25,
        "velocity": 0.71,
        "hand": "right"
      },
      {
        "midi": 70,
        "time": 98.75,
        "duration": 0.25,
        "velocity": 0.71,
        "hand": "right"
      },
      {
        "midi": 72,
        "time": 99,
        "duration": 0.75,
        "velocity": 0.71,
        "hand": "right"
      },
      {
        "midi": 84,
        "time": 99,
        "duration": 0.75,
        "velocity": 0.71,
        "hand": "right"
      },
      {
        "midi": 77,
        "time": 99.25,
        "duration": 0.25,
        "velocity": 0.71,
        "hand": "right"
      },
      {
        "midi": 81,
        "time": 99.5,
        "duration": 0.5,
        "velocity": 0.71,
        "hand": "right"
      },
      {
        "midi": 73,
        "time": 99.75,
        "duration": 0.25,
        "velocity": 0.71,
        "hand": "right"
      },
      {
        "midi": 85,
        "time": 99.75,
        "duration": 0.25,
        "velocity": 0.71,
        "hand": "right"
      },
      {
        "midi": 28,
        "time": 100,
        "duration": 0.25,
        "velocity": 0.71,
        "hand": "left"
      },
      {
        "midi": 76,
        "time": 100,
        "duration": 2,
        "velocity": 0.71,
        "hand": "right"
      },
      {
        "midi": 85,
        "time": 100,
        "duration": 2,
        "velocity": 0.71,
        "hand": "right"
      },
      {
        "midi": 40,
        "time": 100.25,
        "duration": 0.25,
        "velocity": 0.71,
        "hand": "left"
      },
      {
        "midi": 45,
        "time": 100.5,
        "duration": 0.25,
        "velocity": 0.71,
        "hand": "left"
      },
      {
        "midi": 52,
        "time": 100.75,
        "duration": 0.25,
        "velocity": 0.71,
        "hand": "left"
      },
      {
        "midi": 54,
        "time": 101,
        "duration": 0.25,
        "velocity": 0.71,
        "hand": "left"
      },
      {
        "midi": 52,
        "time": 101.25,
        "duration": 0.25,
        "velocity": 0.71,
        "hand": "left"
      },
      {
        "midi": 61,
        "time": 101.5,
        "duration": 0.25,
        "velocity": 0.71,
        "hand": "right"
      },
      {
        "midi": 69,
        "time": 101.75,
        "duration": 0.25,
        "velocity": 0.71,
        "hand": "right"
      },
      {
        "midi": 71,
        "time": 102,
        "duration": 0.5,
        "velocity": 0.71,
        "hand": "right"
      },
      {
        "midi": 78,
        "time": 102,
        "duration": 1,
        "velocity": 0.71,
        "hand": "right"
      },
      {
        "midi": 83,
        "time": 102,
        "duration": 0.5,
        "velocity": 0.71,
        "hand": "right"
      },
      {
        "midi": 39,
        "time": 102.25,
        "duration": 0.25,
        "velocity": 0.71,
        "hand": "left"
      },
      {
        "midi": 47,
        "time": 102.5,
        "duration": 0.25,
        "velocity": 0.71,
        "hand": "left"
      },
      {
        "midi": 69,
        "time": 102.5,
        "duration": 0.5,
        "velocity": 0.71,
        "hand": "right"
      },
      {
        "midi": 81,
        "time": 102.5,
        "duration": 0.5,
        "velocity": 0.71,
        "hand": "right"
      },
      {
        "midi": 54,
        "time": 102.75,
        "duration": 0.25,
        "velocity": 0.71,
        "hand": "left"
      },
      {
        "midi": 61,
        "time": 103,
        "duration": 0.5,
        "velocity": 0.71,
        "hand": "right"
      },
      {
        "midi": 69,
        "time": 103,
        "duration": 0.5,
        "velocity": 0.71,
        "hand": "right"
      },
      {
        "midi": 78,
        "time": 103,
        "duration": 0.5,
        "velocity": 0.71,
        "hand": "right"
      },
      {
        "midi": 51,
        "time": 103.25,
        "duration": 0.25,
        "velocity": 0.71,
        "hand": "left"
      },
      {
        "midi": 59,
        "time": 103.5,
        "duration": 0.5,
        "velocity": 0.71,
        "hand": "left"
      },
      {
        "midi": 71,
        "time": 103.5,
        "duration": 0.5,
        "velocity": 0.71,
        "hand": "right"
      },
      {
        "midi": 81,
        "time": 103.5,
        "duration": 0.5,
        "velocity": 0.71,
        "hand": "right"
      },
      {
        "midi": 69,
        "time": 103.75,
        "duration": 0.25,
        "velocity": 0.71,
        "hand": "right"
      },
      {
        "midi": 64,
        "time": 104,
        "duration": 2,
        "velocity": 0.71,
        "hand": "right"
      },
      {
        "midi": 73,
        "time": 104,
        "duration": 2,
        "velocity": 0.71,
        "hand": "right"
      },
      {
        "midi": 76,
        "time": 104,
        "duration": 2,
        "velocity": 0.71,
        "hand": "right"
      },
      {
        "midi": 40,
        "time": 104.25,
        "duration": 0.25,
        "velocity": 0.71,
        "hand": "left"
      },
      {
        "midi": 45,
        "time": 104.5,
        "duration": 0.25,
        "velocity": 0.71,
        "hand": "left"
      },
      {
        "midi": 52,
        "time": 104.75,
        "duration": 0.25,
        "velocity": 0.71,
        "hand": "left"
      },
      {
        "midi": 54,
        "time": 105,
        "duration": 0.25,
        "velocity": 0.71,
        "hand": "left"
      },
      {
        "midi": 52,
        "time": 105.25,
        "duration": 0.25,
        "velocity": 0.71,
        "hand": "left"
      },
      {
        "midi": 62,
        "time": 105.5,
        "duration": 0.25,
        "velocity": 0.71,
        "hand": "right"
      },
      {
        "midi": 61,
        "time": 105.75,
        "duration": 0.25,
        "velocity": 0.71,
        "hand": "right"
      },
      {
        "midi": 28,
        "time": 106,
        "duration": 0.25,
        "velocity": 0.71,
        "hand": "left"
      },
      {
        "midi": 68,
        "time": 106,
        "duration": 2,
        "velocity": 0.71,
        "hand": "right"
      },
      {
        "midi": 76,
        "time": 106,
        "duration": 1.75,
        "velocity": 0.71,
        "hand": "right"
      },
      {
        "midi": 40,
        "time": 106.25,
        "duration": 0.25,
        "velocity": 0.71,
        "hand": "left"
      },
      {
        "midi": 47,
        "time": 106.5,
        "duration": 0.25,
        "velocity": 0.71,
        "hand": "left"
      },
      {
        "midi": 52,
        "time": 106.75,
        "duration": 0.25,
        "velocity": 0.71,
        "hand": "left"
      },
      {
        "midi": 54,
        "time": 107,
        "duration": 0.25,
        "velocity": 0.71,
        "hand": "left"
      },
      {
        "midi": 52,
        "time": 107.25,
        "duration": 0.25,
        "velocity": 0.71,
        "hand": "left"
      },
      {
        "midi": 61,
        "time": 107.5,
        "duration": 0.25,
        "velocity": 0.71,
        "hand": "right"
      },
      {
        "midi": 59,
        "time": 107.75,
        "duration": 0.25,
        "velocity": 0.71,
        "hand": "left"
      },
      {
        "midi": 74,
        "time": 107.75,
        "duration": 0.25,
        "velocity": 0.71,
        "hand": "right"
      },
      {
        "midi": 29,
        "time": 108,
        "duration": 0.25,
        "velocity": 0.71,
        "hand": "left"
      },
      {
        "midi": 68,
        "time": 108,
        "duration": 0.5,
        "velocity": 0.71,
        "hand": "right"
      },
      {
        "midi": 74,
        "time": 108,
        "duration": 0.5,
        "velocity": 0.71,
        "hand": "right"
      },
      {
        "midi": 41,
        "time": 108.25,
        "duration": 0.25,
        "velocity": 0.71,
        "hand": "left"
      },
      {
        "midi": 48,
        "time": 108.5,
        "duration": 0.25,
        "velocity": 0.71,
        "hand": "left"
      },
      {
        "midi": 69,
        "time": 108.5,
        "duration": 1,
        "velocity": 0.71,
        "hand": "right"
      },
      {
        "midi": 72,
        "time": 108.5,
        "duration": 1,
        "velocity": 0.71,
        "hand": "right"
      },
      {
        "midi": 57,
        "time": 108.75,
        "duration": 0.25,
        "velocity": 0.71,
        "hand": "left"
      },
      {
        "midi": 55,
        "time": 109,
        "duration": 0.25,
        "velocity": 0.71,
        "hand": "left"
      },
      {
        "midi": 53,
        "time": 109.25,
        "duration": 0.25,
        "velocity": 0.71,
        "hand": "left"
      },
      {
        "midi": 60,
        "time": 109.5,
        "duration": 0.25,
        "velocity": 0.71,
        "hand": "right"
      },
      {
        "midi": 72,
        "time": 109.5,
        "duration": 0.5,
        "velocity": 0.71,
        "hand": "right"
      },
      {
        "midi": 81,
        "time": 109.5,
        "duration": 0.5,
        "velocity": 0.71,
        "hand": "right"
      },
      {
        "midi": 69,
        "time": 109.75,
        "duration": 0.25,
        "velocity": 0.71,
        "hand": "right"
      },
      {
        "midi": 67,
        "time": 110,
        "duration": 0.5,
        "velocity": 0.71,
        "hand": "right"
      },
      {
        "midi": 74,
        "time": 110,
        "duration": 1,
        "velocity": 0.71,
        "hand": "right"
      },
      {
        "midi": 79,
        "time": 110,
        "duration": 0.5,
        "velocity": 0.71,
        "hand": "right"
      },
      {
        "midi": 34,
        "time": 110.25,
        "duration": 0.25,
        "velocity": 0.71,
        "hand": "left"
      },
      {
        "midi": 41,
        "time": 110.5,
        "duration": 0.25,
        "velocity": 0.71,
        "hand": "left"
      },
      {
        "midi": 65,
        "time": 110.5,
        "duration": 0.5,
        "velocity": 0.71,
        "hand": "right"
      },
      {
        "midi": 77,
        "time": 110.5,
        "duration": 0.5,
        "velocity": 0.71,
        "hand": "right"
      },
      {
        "midi": 50,
        "time": 110.75,
        "duration": 0.25,
        "velocity": 0.71,
        "hand": "left"
      },
      {
        "midi": 48,
        "time": 111,
        "duration": 0.25,
        "velocity": 0.71,
        "hand": "left"
      },
      {
        "midi": 70,
        "time": 111,
        "duration": 0.5,
        "velocity": 0.71,
        "hand": "right"
      },
      {
        "midi": 74,
        "time": 111,
        "duration": 0.5,
        "velocity": 0.71,
        "hand": "right"
      },
      {
        "midi": 46,
        "time": 111.25,
        "duration": 0.25,
        "velocity": 0.71,
        "hand": "left"
      },
      {
        "midi": 53,
        "time": 111.5,
        "duration": 0.25,
        "velocity": 0.71,
        "hand": "left"
      },
      {
        "midi": 74,
        "time": 111.5,
        "duration": 0.5,
        "velocity": 0.71,
        "hand": "right"
      },
      {
        "midi": 77,
        "time": 111.5,
        "duration": 0.5,
        "velocity": 0.71,
        "hand": "right"
      },
      {
        "midi": 62,
        "time": 111.75,
        "duration": 0.25,
        "velocity": 0.71,
        "hand": "right"
      },
      {
        "midi": 36,
        "time": 112,
        "duration": 0.25,
        "velocity": 0.71,
        "hand": "left"
      },
      {
        "midi": 65,
        "time": 112,
        "duration": 1,
        "velocity": 0.71,
        "hand": "right"
      },
      {
        "midi": 72,
        "time": 112,
        "duration": 1,
        "velocity": 0.71,
        "hand": "right"
      },
      {
        "midi": 48,
        "time": 112.25,
        "duration": 0.25,
        "velocity": 0.71,
        "hand": "left"
      },
      {
        "midi": 53,
        "time": 112.5,
        "duration": 0.25,
        "velocity": 0.71,
        "hand": "left"
      },
      {
        "midi": 57,
        "time": 112.75,
        "duration": 0.25,
        "velocity": 0.71,
        "hand": "left"
      },
      {
        "midi": 55,
        "time": 113,
        "duration": 0.25,
        "velocity": 0.71,
        "hand": "left"
      },
      {
        "midi": 69,
        "time": 113,
        "duration": 1,
        "velocity": 0.71,
        "hand": "right"
      },
      {
        "midi": 74,
        "time": 113,
        "duration": 1,
        "velocity": 0.71,
        "hand": "right"
      },
      {
        "midi": 54,
        "time": 113.25,
        "duration": 0.25,
        "velocity": 0.71,
        "hand": "left"
      },
      {
        "midi": 58,
        "time": 113.5,
        "duration": 0.25,
        "velocity": 0.71,
        "hand": "left"
      },
      {
        "midi": 57,
        "time": 113.75,
        "duration": 0.25,
        "velocity": 0.71,
        "hand": "left"
      },
      {
        "midi": 48,
        "time": 114,
        "duration": 2,
        "velocity": 0.71,
        "hand": "left"
      },
      {
        "midi": 67,
        "time": 114,
        "duration": 1.5,
        "velocity": 0.71,
        "hand": "right"
      },
      {
        "midi": 74,
        "time": 114,
        "duration": 1.5,
        "velocity": 0.71,
        "hand": "right"
      },
      {
        "midi": 54,
        "time": 114.25,
        "duration": 0.25,
        "velocity": 0.71,
        "hand": "left"
      },
      {
        "midi": 55,
        "time": 114.5,
        "duration": 0.25,
        "velocity": 0.71,
        "hand": "left"
      },
      {
        "midi": 58,
        "time": 114.75,
        "duration": 0.25,
        "velocity": 0.71,
        "hand": "left"
      },
      {
        "midi": 57,
        "time": 115,
        "duration": 0.25,
        "velocity": 0.71,
        "hand": "left"
      },
      {
        "midi": 55,
        "time": 115.25,
        "duration": 0.25,
        "velocity": 0.71,
        "hand": "left"
      },
      {
        "midi": 62,
        "time": 115.5,
        "duration": 0.25,
        "velocity": 0.71,
        "hand": "right"
      },
      {
        "midi": 70,
        "time": 115.5,
        "duration": 0.5,
        "velocity": 0.71,
        "hand": "right"
      },
      {
        "midi": 76,
        "time": 115.5,
        "duration": 0.5,
        "velocity": 0.71,
        "hand": "right"
      },
      {
        "midi": 60,
        "time": 115.75,
        "duration": 0.25,
        "velocity": 0.71,
        "hand": "right"
      },
      {
        "midi": 64,
        "time": 116,
        "duration": 0.75,
        "velocity": 0.71,
        "hand": "right"
      },
      {
        "midi": 72,
        "time": 116,
        "duration": 1,
        "velocity": 0.71,
        "hand": "right"
      },
      {
        "midi": 76,
        "time": 116,
        "duration": 0.75,
        "velocity": 0.71,
        "hand": "right"
      },
      {
        "midi": 41,
        "time": 116.25,
        "duration": 0.25,
        "velocity": 0.71,
        "hand": "left"
      },
      {
        "midi": 48,
        "time": 116.5,
        "duration": 0.25,
        "velocity": 0.71,
        "hand": "left"
      },
      {
        "midi": 57,
        "time": 116.75,
        "duration": 0.25,
        "velocity": 0.71,
        "hand": "left"
      },
      {
        "midi": 65,
        "time": 116.75,
        "duration": 0.25,
        "velocity": 0.71,
        "hand": "right"
      },
      {
        "midi": 77,
        "time": 116.75,
        "duration": 0.25,
        "velocity": 0.71,
        "hand": "right"
      },
      {
        "midi": 55,
        "time": 117,
        "duration": 0.25,
        "velocity": 0.71,
        "hand": "left"
      },
      {
        "midi": 53,
        "time": 117.25,
        "duration": 0.25,
        "velocity": 0.71,
        "hand": "left"
      },
      {
        "midi": 60,
        "time": 117.5,
        "duration": 0.25,
        "velocity": 0.71,
        "hand": "right"
      },
      {
        "midi": 69,
        "time": 117.75,
        "duration": 0.25,
        "velocity": 0.71,
        "hand": "right"
      },
      {
        "midi": 65,
        "time": 118,
        "duration": 0.25,
        "velocity": 0.71,
        "hand": "right"
      },
      {
        "midi": 60,
        "time": 118.25,
        "duration": 0.25,
        "velocity": 0.71,
        "hand": "right"
      },
      {
        "midi": 57,
        "time": 118.5,
        "duration": 0.25,
        "velocity": 0.71,
        "hand": "left"
      },
      {
        "midi": 61,
        "time": 118.75,
        "duration": 0.25,
        "velocity": 0.71,
        "hand": "right"
      },
      {
        "midi": 60,
        "time": 119,
        "duration": 0.25,
        "velocity": 0.71,
        "hand": "right"
      },
      {
        "midi": 57,
        "time": 119.25,
        "duration": 0.25,
        "velocity": 0.71,
        "hand": "left"
      },
      {
        "midi": 53,
        "time": 119.5,
        "duration": 0.25,
        "velocity": 0.71,
        "hand": "left"
      },
      {
        "midi": 69,
        "time": 119.75,
        "duration": 0.25,
        "velocity": 0.71,
        "hand": "right"
      },
      {
        "midi": 65,
        "time": 120,
        "duration": 0.25,
        "velocity": 0.71,
        "hand": "right"
      },
      {
        "midi": 60,
        "time": 120.25,
        "duration": 0.25,
        "velocity": 0.71,
        "hand": "right"
      },
      {
        "midi": 57,
        "time": 120.5,
        "duration": 0.25,
        "velocity": 0.71,
        "hand": "left"
      },
      {
        "midi": 61,
        "time": 120.75,
        "duration": 0.25,
        "velocity": 0.71,
        "hand": "right"
      },
      {
        "midi": 60,
        "time": 121,
        "duration": 0.25,
        "velocity": 0.71,
        "hand": "right"
      },
      {
        "midi": 57,
        "time": 121.25,
        "duration": 0.25,
        "velocity": 0.71,
        "hand": "left"
      },
      {
        "midi": 53,
        "time": 121.5,
        "duration": 0.25,
        "velocity": 0.71,
        "hand": "left"
      },
      {
        "midi": 58,
        "time": 121.75,
        "duration": 0.25,
        "velocity": 0.71,
        "hand": "left"
      },
      {
        "midi": 57,
        "time": 122,
        "duration": 0.25,
        "velocity": 0.71,
        "hand": "left"
      },
      {
        "midi": 53,
        "time": 122.25,
        "duration": 0.25,
        "velocity": 0.71,
        "hand": "left"
      },
      {
        "midi": 48,
        "time": 122.5,
        "duration": 0.25,
        "velocity": 0.71,
        "hand": "left"
      },
      {
        "midi": 54,
        "time": 122.75,
        "duration": 0.25,
        "velocity": 0.71,
        "hand": "left"
      },
      {
        "midi": 53,
        "time": 123,
        "duration": 0.25,
        "velocity": 0.71,
        "hand": "left"
      },
      {
        "midi": 48,
        "time": 123.25,
        "duration": 0.25,
        "velocity": 0.71,
        "hand": "left"
      },
      {
        "midi": 45,
        "time": 123.5,
        "duration": 0.25,
        "velocity": 0.71,
        "hand": "left"
      },
      {
        "midi": 49,
        "time": 123.75,
        "duration": 0.25,
        "velocity": 0.71,
        "hand": "left"
      },
      {
        "midi": 41,
        "time": 124,
        "duration": 0.25,
        "velocity": 0.71,
        "hand": "left"
      },
      {
        "midi": 48,
        "time": 124.25,
        "duration": 0.25,
        "velocity": 0.71,
        "hand": "left"
      },
      {
        "midi": 57,
        "time": 124.5,
        "duration": 0.25,
        "velocity": 0.71,
        "hand": "left"
      },
      {
        "midi": 53,
        "time": 124.75,
        "duration": 1.25,
        "velocity": 0.71,
        "hand": "left"
      },
      {
        "midi": 65,
        "time": 125,
        "duration": 1,
        "velocity": 0.71,
        "hand": "right"
      },
      {
        "midi": 58,
        "time": 125.25,
        "duration": 0.25,
        "velocity": 0.71,
        "hand": "left"
      },
      {
        "midi": 59,
        "time": 125.5,
        "duration": 0.25,
        "velocity": 0.71,
        "hand": "left"
      },
      {
        "midi": 60,
        "time": 125.75,
        "duration": 0.25,
        "velocity": 0.71,
        "hand": "right"
      },
      {
        "midi": 61,
        "time": 125.75,
        "duration": 0.125,
        "velocity": 0.71,
        "hand": "right"
      },
      {
        "midi": 40,
        "time": 126,
        "duration": 0.25,
        "velocity": 0.71,
        "hand": "left"
      },
      {
        "midi": 49,
        "time": 126.25,
        "duration": 0.25,
        "velocity": 0.71,
        "hand": "left"
      },
      {
        "midi": 58,
        "time": 126.5,
        "duration": 0.25,
        "velocity": 0.71,
        "hand": "left"
      },
      {
        "midi": 54,
        "time": 126.75,
        "duration": 1.25,
        "velocity": 0.71,
        "hand": "left"
      },
      {
        "midi": 66,
        "time": 127,
        "duration": 1,
        "velocity": 0.71,
        "hand": "right"
      },
      {
        "midi": 59,
        "time": 127.25,
        "duration": 0.25,
        "velocity": 0.71,
        "hand": "left"
      },
      {
        "midi": 60,
        "time": 127.5,
        "duration": 0.25,
        "velocity": 0.71,
        "hand": "right"
      },
      {
        "midi": 61,
        "time": 127.75,
        "duration": 0.25,
        "velocity": 0.71,
        "hand": "right"
      },
      {
        "midi": 63,
        "time": 127.75,
        "duration": 0.125,
        "velocity": 0.71,
        "hand": "right"
      },
      {
        "midi": 39,
        "time": 128,
        "duration": 0.25,
        "velocity": 0.71,
        "hand": "left"
      },
      {
        "midi": 49,
        "time": 128.25,
        "duration": 0.25,
        "velocity": 0.71,
        "hand": "left"
      },
      {
        "midi": 58,
        "time": 128.5,
        "duration": 0.25,
        "velocity": 0.71,
        "hand": "left"
      },
      {
        "midi": 55,
        "time": 128.75,
        "duration": 1.25,
        "velocity": 0.71,
        "hand": "left"
      },
      {
        "midi": 67,
        "time": 129,
        "duration": 1,
        "velocity": 0.71,
        "hand": "right"
      },
      {
        "midi": 61,
        "time": 129.25,
        "duration": 0.25,
        "velocity": 0.71,
        "hand": "right"
      },
      {
        "midi": 63,
        "time": 129.5,
        "duration": 0.25,
        "velocity": 0.71,
        "hand": "right"
      },
      {
        "midi": 64,
        "time": 129.75,
        "duration": 0.25,
        "velocity": 0.71,
        "hand": "right"
      },
      {
        "midi": 66,
        "time": 129.75,
        "duration": 0.125,
        "velocity": 0.71,
        "hand": "right"
      },
      {
        "midi": 32,
        "time": 130,
        "duration": 0.25,
        "velocity": 0.71,
        "hand": "left"
      },
      {
        "midi": 44,
        "time": 130.25,
        "duration": 0.25,
        "velocity": 0.71,
        "hand": "left"
      },
      {
        "midi": 54,
        "time": 130.5,
        "duration": 0.25,
        "velocity": 0.71,
        "hand": "left"
      },
      {
        "midi": 57,
        "time": 130.75,
        "duration": 0.25,
        "velocity": 0.71,
        "hand": "left"
      },
      {
        "midi": 56,
        "time": 131,
        "duration": 0.75,
        "velocity": 0.71,
        "hand": "left"
      },
      {
        "midi": 68,
        "time": 131,
        "duration": 1,
        "velocity": 0.71,
        "hand": "right"
      },
      {
        "midi": 60,
        "time": 131.25,
        "duration": 0.25,
        "velocity": 0.71,
        "hand": "right"
      },
      {
        "midi": 64,
        "time": 131.5,
        "duration": 0.25,
        "velocity": 0.71,
        "hand": "right"
      },
      {
        "midi": 54,
        "time": 131.75,
        "duration": 0.25,
        "velocity": 0.71,
        "hand": "left"
      },
      {
        "midi": 63,
        "time": 131.75,
        "duration": 0.25,
        "velocity": 0.71,
        "hand": "right"
      },
      {
        "midi": 25,
        "time": 132,
        "duration": 0.25,
        "velocity": 0.71,
        "hand": "left"
      },
      {
        "midi": 52,
        "time": 132,
        "duration": 0.75,
        "velocity": 0.71,
        "hand": "left"
      },
      {
        "midi": 63,
        "time": 132,
        "duration": 0.75,
        "velocity": 0.71,
        "hand": "right"
      },
      {
        "midi": 37,
        "time": 132.25,
        "duration": 0.25,
        "velocity": 0.71,
        "hand": "left"
      },
      {
        "midi": 44,
        "time": 132.5,
        "duration": 0.25,
        "velocity": 0.71,
        "hand": "left"
      },
      {
        "midi": 52,
        "time": 132.75,
        "duration": 0.25,
        "velocity": 0.71,
        "hand": "left"
      },
      {
        "midi": 61,
        "time": 132.75,
        "duration": 0.25,
        "velocity": 0.71,
        "hand": "right"
      },
      {
        "midi": 51,
        "time": 133,
        "duration": 0.25,
        "velocity": 0.71,
        "hand": "left"
      },
      {
        "midi": 49,
        "time": 133.25,
        "duration": 0.25,
        "velocity": 0.71,
        "hand": "left"
      },
      {
        "midi": 56,
        "time": 133.5,
        "duration": 0.25,
        "velocity": 0.71,
        "hand": "left"
      },
      {
        "midi": 64,
        "time": 133.75,
        "duration": 0.25,
        "velocity": 0.71,
        "hand": "right"
      },
      {
        "midi": 63,
        "time": 134,
        "duration": 0.25,
        "velocity": 0.71,
        "hand": "right"
      },
      {
        "midi": 61,
        "time": 134.25,
        "duration": 0.25,
        "velocity": 0.71,
        "hand": "right"
      },
      {
        "midi": 64,
        "time": 134.5,
        "duration": 0.25,
        "velocity": 0.71,
        "hand": "right"
      },
      {
        "midi": 66,
        "time": 134.75,
        "duration": 0.25,
        "velocity": 0.71,
        "hand": "right"
      },
      {
        "midi": 68,
        "time": 135,
        "duration": 1,
        "velocity": 0.71,
        "hand": "right"
      },
      {
        "midi": 80,
        "time": 135,
        "duration": 1,
        "velocity": 0.71,
        "hand": "right"
      },
      {
        "midi": 73,
        "time": 135.25,
        "duration": 0.25,
        "velocity": 0.71,
        "hand": "right"
      },
      {
        "midi": 75,
        "time": 135.5,
        "duration": 0.25,
        "velocity": 0.71,
        "hand": "right"
      },
      {
        "midi": 76,
        "time": 135.75,
        "duration": 0.25,
        "velocity": 0.71,
        "hand": "right"
      },
      {
        "midi": 78,
        "time": 135.75,
        "duration": 0.125,
        "velocity": 0.71,
        "hand": "right"
      },
      {
        "midi": 68,
        "time": 136,
        "duration": 2,
        "velocity": 0.71,
        "hand": "right"
      },
      {
        "midi": 75,
        "time": 136,
        "duration": 1.75,
        "velocity": 0.71,
        "hand": "right"
      },
      {
        "midi": 80,
        "time": 136,
        "duration": 2,
        "velocity": 0.71,
        "hand": "right"
      },
      {
        "midi": 37,
        "time": 136.25,
        "duration": 0.25,
        "velocity": 0.71,
        "hand": "left"
      },
      {
        "midi": 44,
        "time": 136.5,
        "duration": 0.25,
        "velocity": 0.71,
        "hand": "left"
      },
      {
        "midi": 52,
        "time": 136.75,
        "duration": 0.25,
        "velocity": 0.71,
        "hand": "left"
      },
      {
        "midi": 51,
        "time": 137,
        "duration": 0.25,
        "velocity": 0.71,
        "hand": "left"
      },
      {
        "midi": 49,
        "time": 137.25,
        "duration": 0.25,
        "velocity": 0.71,
        "hand": "left"
      },
      {
        "midi": 56,
        "time": 137.5,
        "duration": 0.25,
        "velocity": 0.71,
        "hand": "left"
      },
      {
        "midi": 64,
        "time": 137.75,
        "duration": 0.25,
        "velocity": 0.71,
        "hand": "right"
      },
      {
        "midi": 73,
        "time": 137.75,
        "duration": 0.25,
        "velocity": 0.71,
        "hand": "right"
      },
      {
        "midi": 63,
        "time": 138,
        "duration": 0.25,
        "velocity": 0.71,
        "hand": "right"
      },
      {
        "midi": 61,
        "time": 138.25,
        "duration": 0.25,
        "velocity": 0.71,
        "hand": "right"
      },
      {
        "midi": 64,
        "time": 138.5,
        "duration": 0.25,
        "velocity": 0.71,
        "hand": "right"
      },
      {
        "midi": 66,
        "time": 138.75,
        "duration": 0.25,
        "velocity": 0.71,
        "hand": "right"
      },
      {
        "midi": 68,
        "time": 139,
        "duration": 0.75,
        "velocity": 0.71,
        "hand": "right"
      },
      {
        "midi": 80,
        "time": 139,
        "duration": 0.75,
        "velocity": 0.71,
        "hand": "right"
      },
      {
        "midi": 73,
        "time": 139.25,
        "duration": 0.25,
        "velocity": 0.71,
        "hand": "right"
      },
      {
        "midi": 76,
        "time": 139.5,
        "duration": 0.5,
        "velocity": 0.71,
        "hand": "right"
      },
      {
        "midi": 42,
        "time": 139.75,
        "duration": 0.5,
        "velocity": 0.71,
        "hand": "left"
      },
      {
        "midi": 70,
        "time": 139.75,
        "duration": 0.25,
        "velocity": 0.71,
        "hand": "right"
      },
      {
        "midi": 82,
        "time": 139.75,
        "duration": 0.25,
        "velocity": 0.71,
        "hand": "right"
      },
      {
        "midi": 70,
        "time": 140,
        "duration": 0.125,
        "velocity": 0.71,
        "hand": "right"
      },
      {
        "midi": 76,
        "time": 140,
        "duration": 0.75,
        "velocity": 0.71,
        "hand": "right"
      },
      {
        "midi": 85,
        "time": 140,
        "duration": 0.75,
        "velocity": 0.71,
        "hand": "right"
      },
      {
        "midi": 35,
        "time": 140.25,
        "duration": 0.25,
        "velocity": 0.71,
        "hand": "left"
      },
      {
        "midi": 42,
        "time": 140.5,
        "duration": 0.25,
        "velocity": 0.71,
        "hand": "left"
      },
      {
        "midi": 51,
        "time": 140.75,
        "duration": 0.25,
        "velocity": 0.71,
        "hand": "left"
      },
      {
        "midi": 75,
        "time": 140.75,
        "duration": 0.25,
        "velocity": 0.71,
        "hand": "right"
      },
      {
        "midi": 83,
        "time": 140.75,
        "duration": 0.25,
        "velocity": 0.71,
        "hand": "right"
      },
      {
        "midi": 49,
        "time": 141,
        "duration": 0.25,
        "velocity": 0.71,
        "hand": "left"
      },
      {
        "midi": 47,
        "time": 141.25,
        "duration": 0.25,
        "velocity": 0.71,
        "hand": "left"
      },
      {
        "midi": 54,
        "time": 141.5,
        "duration": 0.25,
        "velocity": 0.71,
        "hand": "left"
      },
      {
        "midi": 63,
        "time": 141.75,
        "duration": 0.25,
        "velocity": 0.71,
        "hand": "right"
      },
      {
        "midi": 61,
        "time": 142,
        "duration": 0.25,
        "velocity": 0.71,
        "hand": "right"
      },
      {
        "midi": 59,
        "time": 142.25,
        "duration": 0.25,
        "velocity": 0.71,
        "hand": "left"
      },
      {
        "midi": 63,
        "time": 142.5,
        "duration": 0.25,
        "velocity": 0.71,
        "hand": "right"
      },
      {
        "midi": 64,
        "time": 142.75,
        "duration": 0.25,
        "velocity": 0.71,
        "hand": "right"
      },
      {
        "midi": 66,
        "time": 143,
        "duration": 1,
        "velocity": 0.71,
        "hand": "right"
      },
      {
        "midi": 78,
        "time": 143,
        "duration": 1,
        "velocity": 0.71,
        "hand": "right"
      },
      {
        "midi": 71,
        "time": 143.25,
        "duration": 0.25,
        "velocity": 0.71,
        "hand": "right"
      },
      {
        "midi": 73,
        "time": 143.5,
        "duration": 0.25,
        "velocity": 0.71,
        "hand": "right"
      },
      {
        "midi": 74,
        "time": 143.75,
        "duration": 0.25,
        "velocity": 0.71,
        "hand": "right"
      },
      {
        "midi": 76,
        "time": 143.75,
        "duration": 0.125,
        "velocity": 0.71,
        "hand": "right"
      },
      {
        "midi": 66,
        "time": 144,
        "duration": 2,
        "velocity": 0.71,
        "hand": "right"
      },
      {
        "midi": 73,
        "time": 144,
        "duration": 1.75,
        "velocity": 0.71,
        "hand": "right"
      },
      {
        "midi": 78,
        "time": 144,
        "duration": 2,
        "velocity": 0.71,
        "hand": "right"
      },
      {
        "midi": 35,
        "time": 144.25,
        "duration": 0.25,
        "velocity": 0.71,
        "hand": "left"
      },
      {
        "midi": 42,
        "time": 144.5,
        "duration": 0.25,
        "velocity": 0.71,
        "hand": "left"
      },
      {
        "midi": 50,
        "time": 144.75,
        "duration": 0.25,
        "velocity": 0.71,
        "hand": "left"
      },
      {
        "midi": 49,
        "time": 145,
        "duration": 0.25,
        "velocity": 0.71,
        "hand": "left"
      },
      {
        "midi": 47,
        "time": 145.25,
        "duration": 0.25,
        "velocity": 0.71,
        "hand": "left"
      },
      {
        "midi": 54,
        "time": 145.5,
        "duration": 0.25,
        "velocity": 0.71,
        "hand": "left"
      },
      {
        "midi": 62,
        "time": 145.75,
        "duration": 0.25,
        "velocity": 0.71,
        "hand": "right"
      },
      {
        "midi": 71,
        "time": 145.75,
        "duration": 0.25,
        "velocity": 0.71,
        "hand": "right"
      },
      {
        "midi": 61,
        "time": 146,
        "duration": 0.25,
        "velocity": 0.71,
        "hand": "right"
      },
      {
        "midi": 59,
        "time": 146.25,
        "duration": 0.25,
        "velocity": 0.71,
        "hand": "left"
      },
      {
        "midi": 62,
        "time": 146.5,
        "duration": 0.25,
        "velocity": 0.71,
        "hand": "right"
      },
      {
        "midi": 64,
        "time": 146.75,
        "duration": 0.25,
        "velocity": 0.71,
        "hand": "right"
      },
      {
        "midi": 66,
        "time": 147,
        "duration": 0.75,
        "velocity": 0.71,
        "hand": "right"
      },
      {
        "midi": 78,
        "time": 147,
        "duration": 0.75,
        "velocity": 0.71,
        "hand": "right"
      },
      {
        "midi": 71,
        "time": 147.25,
        "duration": 0.25,
        "velocity": 0.71,
        "hand": "right"
      },
      {
        "midi": 74,
        "time": 147.5,
        "duration": 0.5,
        "velocity": 0.71,
        "hand": "right"
      },
      {
        "midi": 40,
        "time": 147.75,
        "duration": 0.5,
        "velocity": 0.71,
        "hand": "left"
      },
      {
        "midi": 68,
        "time": 147.75,
        "duration": 0.25,
        "velocity": 0.71,
        "hand": "right"
      },
      {
        "midi": 80,
        "time": 147.75,
        "duration": 0.25,
        "velocity": 0.71,
        "hand": "right"
      },
      {
        "midi": 68,
        "time": 148,
        "duration": 0.5,
        "velocity": 0.71,
        "hand": "right"
      },
      {
        "midi": 74,
        "time": 148,
        "duration": 0.5,
        "velocity": 0.71,
        "hand": "right"
      },
      {
        "midi": 83,
        "time": 148,
        "duration": 0.5,
        "velocity": 0.71,
        "hand": "right"
      },
      {
        "midi": 33,
        "time": 148.25,
        "duration": 0.25,
        "velocity": 0.71,
        "hand": "left"
      },
      {
        "midi": 40,
        "time": 148.5,
        "duration": 0.25,
        "velocity": 0.71,
        "hand": "left"
      },
      {
        "midi": 73,
        "time": 148.5,
        "duration": 1,
        "velocity": 0.71,
        "hand": "right"
      },
      {
        "midi": 81,
        "time": 148.5,
        "duration": 1,
        "velocity": 0.71,
        "hand": "right"
      },
      {
        "midi": 49,
        "time": 148.75,
        "duration": 0.25,
        "velocity": 0.71,
        "hand": "left"
      },
      {
        "midi": 47,
        "time": 149,
        "duration": 0.25,
        "velocity": 0.71,
        "hand": "left"
      },
      {
        "midi": 45,
        "time": 149.25,
        "duration": 0.25,
        "velocity": 0.71,
        "hand": "left"
      },
      {
        "midi": 52,
        "time": 149.5,
        "duration": 0.25,
        "velocity": 0.71,
        "hand": "left"
      },
      {
        "midi": 73,
        "time": 149.5,
        "duration": 0.5,
        "velocity": 0.71,
        "hand": "right"
      },
      {
        "midi": 80,
        "time": 149.5,
        "duration": 0.5,
        "velocity": 0.71,
        "hand": "right"
      },
      {
        "midi": 61,
        "time": 149.75,
        "duration": 0.25,
        "velocity": 0.71,
        "hand": "right"
      },
      {
        "midi": 59,
        "time": 150,
        "duration": 0.25,
        "velocity": 0.71,
        "hand": "left"
      },
      {
        "midi": 73,
        "time": 150,
        "duration": 2,
        "velocity": 0.71,
        "hand": "right"
      },
      {
        "midi": 80,
        "time": 150,
        "duration": 1.75,
        "velocity": 0.71,
        "hand": "right"
      },
      {
        "midi": 57,
        "time": 150.25,
        "duration": 0.25,
        "velocity": 0.71,
        "hand": "left"
      },
      {
        "midi": 61,
        "time": 150.5,
        "duration": 0.25,
        "velocity": 0.71,
        "hand": "right"
      },
      {
        "midi": 66,
        "time": 150.75,
        "duration": 0.25,
        "velocity": 0.71,
        "hand": "right"
      },
      {
        "midi": 64,
        "time": 151,
        "duration": 0.25,
        "velocity": 0.71,
        "hand": "right"
      },
      {
        "midi": 61,
        "time": 151.25,
        "duration": 0.25,
        "velocity": 0.71,
        "hand": "right"
      },
      {
        "midi": 57,
        "time": 151.5,
        "duration": 0.25,
        "velocity": 0.71,
        "hand": "left"
      },
      {
        "midi": 63,
        "time": 151.75,
        "duration": 0.25,
        "velocity": 0.71,
        "hand": "right"
      },
      {
        "midi": 67,
        "time": 151.75,
        "duration": 0.25,
        "velocity": 0.71,
        "hand": "right"
      },
      {
        "midi": 79,
        "time": 151.75,
        "duration": 0.25,
        "velocity": 0.71,
        "hand": "right"
      },
      {
        "midi": 61,
        "time": 152,
        "duration": 0.25,
        "velocity": 0.71,
        "hand": "right"
      },
      {
        "midi": 57,
        "time": 152.25,
        "duration": 0.25,
        "velocity": 0.71,
        "hand": "left"
      },
      {
        "midi": 52,
        "time": 152.5,
        "duration": 0.25,
        "velocity": 0.71,
        "hand": "left"
      },
      {
        "midi": 66,
        "time": 152.75,
        "duration": 0.25,
        "velocity": 0.71,
        "hand": "right"
      },
      {
        "midi": 64,
        "time": 153,
        "duration": 0.25,
        "velocity": 0.71,
        "hand": "right"
      },
      {
        "midi": 61,
        "time": 153.25,
        "duration": 0.25,
        "velocity": 0.71,
        "hand": "right"
      },
      {
        "midi": 57,
        "time": 153.5,
        "duration": 0.25,
        "velocity": 0.71,
        "hand": "left"
      },
      {
        "midi": 63,
        "time": 153.75,
        "duration": 0.25,
        "velocity": 0.71,
        "hand": "right"
      },
      {
        "midi": 61,
        "time": 154,
        "duration": 0.25,
        "velocity": 0.71,
        "hand": "right"
      },
      {
        "midi": 57,
        "time": 154.25,
        "duration": 0.25,
        "velocity": 0.71,
        "hand": "left"
      },
      {
        "midi": 52,
        "time": 154.5,
        "duration": 0.25,
        "velocity": 0.71,
        "hand": "left"
      },
      {
        "midi": 59,
        "time": 154.75,
        "duration": 0.25,
        "velocity": 0.71,
        "hand": "left"
      },
      {
        "midi": 57,
        "time": 155,
        "duration": 0.25,
        "velocity": 0.71,
        "hand": "left"
      },
      {
        "midi": 67,
        "time": 155,
        "duration": 1,
        "velocity": 0.71,
        "hand": "right"
      },
      {
        "midi": 52,
        "time": 155.25,
        "duration": 0.25,
        "velocity": 0.71,
        "hand": "left"
      },
      {
        "midi": 73,
        "time": 155.25,
        "duration": 0.25,
        "velocity": 0.71,
        "hand": "right"
      },
      {
        "midi": 51,
        "time": 155.5,
        "duration": 0.25,
        "velocity": 0.71,
        "hand": "left"
      },
      {
        "midi": 75,
        "time": 155.5,
        "duration": 0.25,
        "velocity": 0.71,
        "hand": "right"
      },
      {
        "midi": 49,
        "time": 155.75,
        "duration": 0.25,
        "velocity": 0.71,
        "hand": "left"
      },
      {
        "midi": 76,
        "time": 155.75,
        "duration": 0.25,
        "velocity": 0.71,
        "hand": "right"
      },
      {
        "midi": 78,
        "time": 155.75,
        "duration": 0.125,
        "velocity": 0.71,
        "hand": "right"
      },
      {
        "midi": 45,
        "time": 156,
        "duration": 2,
        "velocity": 0.71,
        "hand": "left"
      },
      {
        "midi": 67,
        "time": 156,
        "duration": 2,
        "velocity": 0.71,
        "hand": "right"
      },
      {
        "midi": 81,
        "time": 156,
        "duration": 2,
        "velocity": 0.71,
        "hand": "right"
      },
      {
        "midi": 73,
        "time": 156.75,
        "duration": 0.25,
        "velocity": 0.71,
        "hand": "right"
      },
      {
        "midi": 61,
        "time": 158,
        "duration": 0.25,
        "velocity": 0.71,
        "hand": "right"
      },
      {
        "midi": 69,
        "time": 158,
        "duration": 0.25,
        "velocity": 0.71,
        "hand": "right"
      },
      {
        "midi": 76,
        "time": 158,
        "duration": 0.25,
        "velocity": 0.71,
        "hand": "right"
      },
      {
        "midi": 57,
        "time": 158.25,
        "duration": 0.25,
        "velocity": 0.71,
        "hand": "left"
      },
      {
        "midi": 73,
        "time": 158.25,
        "duration": 0.25,
        "velocity": 0.71,
        "hand": "right"
      },
      {
        "midi": 81,
        "time": 158.25,
        "duration": 0.25,
        "velocity": 0.71,
        "hand": "right"
      },
      {
        "midi": 61,
        "time": 158.5,
        "duration": 0.25,
        "velocity": 0.71,
        "hand": "right"
      },
      {
        "midi": 69,
        "time": 158.5,
        "duration": 0.25,
        "velocity": 0.71,
        "hand": "right"
      },
      {
        "midi": 75,
        "time": 158.5,
        "duration": 0.25,
        "velocity": 0.71,
        "hand": "right"
      },
      {
        "midi": 54,
        "time": 158.75,
        "duration": 0.25,
        "velocity": 0.71,
        "hand": "left"
      },
      {
        "midi": 73,
        "time": 158.75,
        "duration": 0.25,
        "velocity": 0.71,
        "hand": "right"
      },
      {
        "midi": 81,
        "time": 158.75,
        "duration": 0.25,
        "velocity": 0.71,
        "hand": "right"
      },
      {
        "midi": 60,
        "time": 159,
        "duration": 0.25,
        "velocity": 0.71,
        "hand": "right"
      },
      {
        "midi": 68,
        "time": 159,
        "duration": 0.25,
        "velocity": 0.71,
        "hand": "right"
      },
      {
        "midi": 75,
        "time": 159,
        "duration": 0.25,
        "velocity": 0.71,
        "hand": "right"
      },
      {
        "midi": 56,
        "time": 159.25,
        "duration": 0.25,
        "velocity": 0.71,
        "hand": "left"
      },
      {
        "midi": 72,
        "time": 159.25,
        "duration": 0.25,
        "velocity": 0.71,
        "hand": "right"
      },
      {
        "midi": 80,
        "time": 159.25,
        "duration": 0.25,
        "velocity": 0.71,
        "hand": "right"
      },
      {
        "midi": 60,
        "time": 159.5,
        "duration": 0.25,
        "velocity": 0.71,
        "hand": "right"
      },
      {
        "midi": 68,
        "time": 159.5,
        "duration": 0.25,
        "velocity": 0.71,
        "hand": "right"
      },
      {
        "midi": 74,
        "time": 159.5,
        "duration": 0.25,
        "velocity": 0.71,
        "hand": "right"
      },
      {
        "midi": 53,
        "time": 159.75,
        "duration": 0.25,
        "velocity": 0.71,
        "hand": "left"
      },
      {
        "midi": 72,
        "time": 159.75,
        "duration": 0.25,
        "velocity": 0.71,
        "hand": "right"
      },
      {
        "midi": 80,
        "time": 159.75,
        "duration": 0.25,
        "velocity": 0.71,
        "hand": "right"
      },
      {
        "midi": 59,
        "time": 160,
        "duration": 0.25,
        "velocity": 0.71,
        "hand": "left"
      },
      {
        "midi": 67,
        "time": 160,
        "duration": 0.25,
        "velocity": 0.71,
        "hand": "right"
      },
      {
        "midi": 74,
        "time": 160,
        "duration": 0.25,
        "velocity": 0.71,
        "hand": "right"
      },
      {
        "midi": 55,
        "time": 160.25,
        "duration": 0.25,
        "velocity": 0.71,
        "hand": "left"
      },
      {
        "midi": 71,
        "time": 160.25,
        "duration": 0.25,
        "velocity": 0.71,
        "hand": "right"
      },
      {
        "midi": 79,
        "time": 160.25,
        "duration": 0.25,
        "velocity": 0.71,
        "hand": "right"
      },
      {
        "midi": 59,
        "time": 160.5,
        "duration": 0.25,
        "velocity": 0.71,
        "hand": "left"
      },
      {
        "midi": 67,
        "time": 160.5,
        "duration": 0.25,
        "velocity": 0.71,
        "hand": "right"
      },
      {
        "midi": 73,
        "time": 160.5,
        "duration": 0.25,
        "velocity": 0.71,
        "hand": "right"
      },
      {
        "midi": 52,
        "time": 160.75,
        "duration": 0.25,
        "velocity": 0.71,
        "hand": "left"
      },
      {
        "midi": 71,
        "time": 160.75,
        "duration": 0.25,
        "velocity": 0.71,
        "hand": "right"
      },
      {
        "midi": 79,
        "time": 160.75,
        "duration": 0.25,
        "velocity": 0.71,
        "hand": "right"
      },
      {
        "midi": 58,
        "time": 161,
        "duration": 0.25,
        "velocity": 0.71,
        "hand": "left"
      },
      {
        "midi": 66,
        "time": 161,
        "duration": 0.25,
        "velocity": 0.71,
        "hand": "right"
      },
      {
        "midi": 73,
        "time": 161,
        "duration": 0.25,
        "velocity": 0.71,
        "hand": "right"
      },
      {
        "midi": 54,
        "time": 161.25,
        "duration": 0.25,
        "velocity": 0.71,
        "hand": "left"
      },
      {
        "midi": 70,
        "time": 161.25,
        "duration": 0.25,
        "velocity": 0.71,
        "hand": "right"
      },
      {
        "midi": 78,
        "time": 161.25,
        "duration": 0.25,
        "velocity": 0.71,
        "hand": "right"
      },
      {
        "midi": 58,
        "time": 161.5,
        "duration": 0.25,
        "velocity": 0.71,
        "hand": "left"
      },
      {
        "midi": 66,
        "time": 161.5,
        "duration": 0.25,
        "velocity": 0.71,
        "hand": "right"
      },
      {
        "midi": 72,
        "time": 161.5,
        "duration": 0.25,
        "velocity": 0.71,
        "hand": "right"
      },
      {
        "midi": 51,
        "time": 161.75,
        "duration": 0.25,
        "velocity": 0.71,
        "hand": "left"
      },
      {
        "midi": 70,
        "time": 161.75,
        "duration": 0.25,
        "velocity": 0.71,
        "hand": "right"
      },
      {
        "midi": 78,
        "time": 161.75,
        "duration": 0.25,
        "velocity": 0.71,
        "hand": "right"
      },
      {
        "midi": 57,
        "time": 162,
        "duration": 0.25,
        "velocity": 0.71,
        "hand": "left"
      },
      {
        "midi": 65,
        "time": 162,
        "duration": 0.25,
        "velocity": 0.71,
        "hand": "right"
      },
      {
        "midi": 72,
        "time": 162,
        "duration": 0.25,
        "velocity": 0.71,
        "hand": "right"
      },
      {
        "midi": 53,
        "time": 162.25,
        "duration": 0.25,
        "velocity": 0.71,
        "hand": "left"
      },
      {
        "midi": 69,
        "time": 162.25,
        "duration": 0.25,
        "velocity": 0.71,
        "hand": "right"
      },
      {
        "midi": 77,
        "time": 162.25,
        "duration": 0.25,
        "velocity": 0.71,
        "hand": "right"
      },
      {
        "midi": 57,
        "time": 162.5,
        "duration": 0.25,
        "velocity": 0.71,
        "hand": "left"
      },
      {
        "midi": 65,
        "time": 162.5,
        "duration": 0.25,
        "velocity": 0.71,
        "hand": "right"
      },
      {
        "midi": 71,
        "time": 162.5,
        "duration": 0.25,
        "velocity": 0.71,
        "hand": "right"
      },
      {
        "midi": 50,
        "time": 162.75,
        "duration": 0.25,
        "velocity": 0.71,
        "hand": "left"
      },
      {
        "midi": 69,
        "time": 162.75,
        "duration": 0.25,
        "velocity": 0.71,
        "hand": "right"
      },
      {
        "midi": 77,
        "time": 162.75,
        "duration": 0.25,
        "velocity": 0.71,
        "hand": "right"
      },
      {
        "midi": 56,
        "time": 163,
        "duration": 0.25,
        "velocity": 0.71,
        "hand": "left"
      },
      {
        "midi": 64,
        "time": 163,
        "duration": 0.25,
        "velocity": 0.71,
        "hand": "right"
      },
      {
        "midi": 71,
        "time": 163,
        "duration": 0.25,
        "velocity": 0.71,
        "hand": "right"
      },
      {
        "midi": 52,
        "time": 163.25,
        "duration": 0.25,
        "velocity": 0.71,
        "hand": "left"
      },
      {
        "midi": 68,
        "time": 163.25,
        "duration": 0.25,
        "velocity": 0.71,
        "hand": "right"
      },
      {
        "midi": 76,
        "time": 163.25,
        "duration": 0.25,
        "velocity": 0.71,
        "hand": "right"
      },
      {
        "midi": 56,
        "time": 163.5,
        "duration": 0.25,
        "velocity": 0.71,
        "hand": "left"
      },
      {
        "midi": 64,
        "time": 163.5,
        "duration": 0.25,
        "velocity": 0.71,
        "hand": "right"
      },
      {
        "midi": 70,
        "time": 163.5,
        "duration": 0.25,
        "velocity": 0.71,
        "hand": "right"
      },
      {
        "midi": 49,
        "time": 163.75,
        "duration": 0.25,
        "velocity": 0.71,
        "hand": "left"
      },
      {
        "midi": 68,
        "time": 163.75,
        "duration": 0.25,
        "velocity": 0.71,
        "hand": "right"
      },
      {
        "midi": 76,
        "time": 163.75,
        "duration": 0.25,
        "velocity": 0.71,
        "hand": "right"
      },
      {
        "midi": 55,
        "time": 164,
        "duration": 0.25,
        "velocity": 0.71,
        "hand": "left"
      },
      {
        "midi": 63,
        "time": 164,
        "duration": 0.25,
        "velocity": 0.71,
        "hand": "right"
      },
      {
        "midi": 70,
        "time": 164,
        "duration": 0.25,
        "velocity": 0.71,
        "hand": "right"
      },
      {
        "midi": 51,
        "time": 164.25,
        "duration": 0.25,
        "velocity": 0.71,
        "hand": "left"
      },
      {
        "midi": 67,
        "time": 164.25,
        "duration": 0.25,
        "velocity": 0.71,
        "hand": "right"
      },
      {
        "midi": 75,
        "time": 164.25,
        "duration": 0.25,
        "velocity": 0.71,
        "hand": "right"
      },
      {
        "midi": 55,
        "time": 164.5,
        "duration": 0.25,
        "velocity": 0.71,
        "hand": "left"
      },
      {
        "midi": 63,
        "time": 164.5,
        "duration": 0.25,
        "velocity": 0.71,
        "hand": "right"
      },
      {
        "midi": 69,
        "time": 164.5,
        "duration": 0.25,
        "velocity": 0.71,
        "hand": "right"
      },
      {
        "midi": 48,
        "time": 164.75,
        "duration": 0.25,
        "velocity": 0.71,
        "hand": "left"
      },
      {
        "midi": 67,
        "time": 164.75,
        "duration": 0.25,
        "velocity": 0.71,
        "hand": "right"
      },
      {
        "midi": 75,
        "time": 164.75,
        "duration": 0.25,
        "velocity": 0.71,
        "hand": "right"
      },
      {
        "midi": 54,
        "time": 165,
        "duration": 0.25,
        "velocity": 0.71,
        "hand": "left"
      },
      {
        "midi": 62,
        "time": 165,
        "duration": 0.25,
        "velocity": 0.71,
        "hand": "right"
      },
      {
        "midi": 69,
        "time": 165,
        "duration": 0.25,
        "velocity": 0.71,
        "hand": "right"
      },
      {
        "midi": 50,
        "time": 165.25,
        "duration": 0.25,
        "velocity": 0.71,
        "hand": "left"
      },
      {
        "midi": 66,
        "time": 165.25,
        "duration": 0.25,
        "velocity": 0.71,
        "hand": "right"
      },
      {
        "midi": 74,
        "time": 165.25,
        "duration": 0.25,
        "velocity": 0.71,
        "hand": "right"
      },
      {
        "midi": 54,
        "time": 165.5,
        "duration": 0.25,
        "velocity": 0.71,
        "hand": "left"
      },
      {
        "midi": 62,
        "time": 165.5,
        "duration": 0.25,
        "velocity": 0.71,
        "hand": "right"
      },
      {
        "midi": 68,
        "time": 165.5,
        "duration": 0.25,
        "velocity": 0.71,
        "hand": "right"
      },
      {
        "midi": 47,
        "time": 165.75,
        "duration": 0.25,
        "velocity": 0.71,
        "hand": "left"
      },
      {
        "midi": 66,
        "time": 165.75,
        "duration": 0.25,
        "velocity": 0.71,
        "hand": "right"
      },
      {
        "midi": 74,
        "time": 165.75,
        "duration": 0.25,
        "velocity": 0.71,
        "hand": "right"
      },
      {
        "midi": 53,
        "time": 166,
        "duration": 0.25,
        "velocity": 0.71,
        "hand": "left"
      },
      {
        "midi": 62,
        "time": 166,
        "duration": 0.25,
        "velocity": 0.71,
        "hand": "right"
      },
      {
        "midi": 68,
        "time": 166,
        "duration": 0.25,
        "velocity": 0.71,
        "hand": "right"
      },
      {
        "midi": 52,
        "time": 166.25,
        "duration": 0.25,
        "velocity": 0.71,
        "hand": "left"
      },
      {
        "midi": 67,
        "time": 166.25,
        "duration": 0.25,
        "velocity": 0.71,
        "hand": "right"
      },
      {
        "midi": 73,
        "time": 166.25,
        "duration": 0.25,
        "velocity": 0.71,
        "hand": "right"
      },
      {
        "midi": 53,
        "time": 166.5,
        "duration": 0.25,
        "velocity": 0.71,
        "hand": "left"
      },
      {
        "midi": 68,
        "time": 166.5,
        "duration": 0.25,
        "velocity": 0.71,
        "hand": "right"
      },
      {
        "midi": 74,
        "time": 166.5,
        "duration": 0.25,
        "velocity": 0.71,
        "hand": "right"
      },
      {
        "midi": 56,
        "time": 166.75,
        "duration": 0.25,
        "velocity": 0.71,
        "hand": "left"
      },
      {
        "midi": 65,
        "time": 166.75,
        "duration": 0.25,
        "velocity": 0.71,
        "hand": "right"
      },
      {
        "midi": 71,
        "time": 166.75,
        "duration": 0.25,
        "velocity": 0.71,
        "hand": "right"
      },
      {
        "midi": 53,
        "time": 167,
        "duration": 0.25,
        "velocity": 0.71,
        "hand": "left"
      },
      {
        "midi": 68,
        "time": 167,
        "duration": 0.25,
        "velocity": 0.71,
        "hand": "right"
      },
      {
        "midi": 74,
        "time": 167,
        "duration": 0.25,
        "velocity": 0.71,
        "hand": "right"
      },
      {
        "midi": 54,
        "time": 167.25,
        "duration": 0.25,
        "velocity": 0.71,
        "hand": "left"
      },
      {
        "midi": 69,
        "time": 167.25,
        "duration": 0.25,
        "velocity": 0.71,
        "hand": "right"
      },
      {
        "midi": 75,
        "time": 167.25,
        "duration": 0.25,
        "velocity": 0.71,
        "hand": "right"
      },
      {
        "midi": 55,
        "time": 167.5,
        "duration": 0.25,
        "velocity": 0.71,
        "hand": "left"
      },
      {
        "midi": 70,
        "time": 167.5,
        "duration": 0.25,
        "velocity": 0.71,
        "hand": "right"
      },
      {
        "midi": 76,
        "time": 167.5,
        "duration": 0.25,
        "velocity": 0.71,
        "hand": "right"
      },
      {
        "midi": 58,
        "time": 167.75,
        "duration": 0.25,
        "velocity": 0.71,
        "hand": "left"
      },
      {
        "midi": 67,
        "time": 167.75,
        "duration": 0.25,
        "velocity": 0.71,
        "hand": "right"
      },
      {
        "midi": 73,
        "time": 167.75,
        "duration": 0.25,
        "velocity": 0.71,
        "hand": "right"
      },
      {
        "midi": 55,
        "time": 168,
        "duration": 0.25,
        "velocity": 0.71,
        "hand": "left"
      },
      {
        "midi": 70,
        "time": 168,
        "duration": 0.25,
        "velocity": 0.71,
        "hand": "right"
      },
      {
        "midi": 76,
        "time": 168,
        "duration": 0.25,
        "velocity": 0.71,
        "hand": "right"
      },
      {
        "midi": 56,
        "time": 168.25,
        "duration": 0.25,
        "velocity": 0.71,
        "hand": "left"
      },
      {
        "midi": 71,
        "time": 168.25,
        "duration": 0.25,
        "velocity": 0.71,
        "hand": "right"
      },
      {
        "midi": 77,
        "time": 168.25,
        "duration": 0.25,
        "velocity": 0.71,
        "hand": "right"
      },
      {
        "midi": 57,
        "time": 168.5,
        "duration": 0.25,
        "velocity": 0.71,
        "hand": "left"
      },
      {
        "midi": 72,
        "time": 168.5,
        "duration": 0.25,
        "velocity": 0.71,
        "hand": "right"
      },
      {
        "midi": 78,
        "time": 168.5,
        "duration": 0.25,
        "velocity": 0.71,
        "hand": "right"
      },
      {
        "midi": 60,
        "time": 168.75,
        "duration": 0.25,
        "velocity": 0.71,
        "hand": "right"
      },
      {
        "midi": 69,
        "time": 168.75,
        "duration": 0.25,
        "velocity": 0.71,
        "hand": "right"
      },
      {
        "midi": 75,
        "time": 168.75,
        "duration": 0.25,
        "velocity": 0.71,
        "hand": "right"
      },
      {
        "midi": 57,
        "time": 169,
        "duration": 0.25,
        "velocity": 0.71,
        "hand": "left"
      },
      {
        "midi": 72,
        "time": 169,
        "duration": 0.25,
        "velocity": 0.71,
        "hand": "right"
      },
      {
        "midi": 78,
        "time": 169,
        "duration": 0.25,
        "velocity": 0.71,
        "hand": "right"
      },
      {
        "midi": 58,
        "time": 169.25,
        "duration": 0.25,
        "velocity": 0.71,
        "hand": "left"
      },
      {
        "midi": 73,
        "time": 169.25,
        "duration": 0.25,
        "velocity": 0.71,
        "hand": "right"
      },
      {
        "midi": 79,
        "time": 169.25,
        "duration": 0.25,
        "velocity": 0.71,
        "hand": "right"
      },
      {
        "midi": 59,
        "time": 169.5,
        "duration": 0.25,
        "velocity": 0.71,
        "hand": "left"
      },
      {
        "midi": 74,
        "time": 169.5,
        "duration": 0.25,
        "velocity": 0.71,
        "hand": "right"
      },
      {
        "midi": 80,
        "time": 169.5,
        "duration": 0.25,
        "velocity": 0.71,
        "hand": "right"
      },
      {
        "midi": 62,
        "time": 169.75,
        "duration": 0.25,
        "velocity": 0.71,
        "hand": "right"
      },
      {
        "midi": 71,
        "time": 169.75,
        "duration": 0.25,
        "velocity": 0.71,
        "hand": "right"
      },
      {
        "midi": 77,
        "time": 169.75,
        "duration": 0.25,
        "velocity": 0.71,
        "hand": "right"
      },
      {
        "midi": 59,
        "time": 170,
        "duration": 0.25,
        "velocity": 0.71,
        "hand": "left"
      },
      {
        "midi": 74,
        "time": 170,
        "duration": 0.25,
        "velocity": 0.71,
        "hand": "right"
      },
      {
        "midi": 80,
        "time": 170,
        "duration": 0.25,
        "velocity": 0.71,
        "hand": "right"
      },
      {
        "midi": 60,
        "time": 170.25,
        "duration": 0.25,
        "velocity": 0.71,
        "hand": "right"
      },
      {
        "midi": 75,
        "time": 170.25,
        "duration": 0.25,
        "velocity": 0.71,
        "hand": "right"
      },
      {
        "midi": 81,
        "time": 170.25,
        "duration": 0.25,
        "velocity": 0.71,
        "hand": "right"
      },
      {
        "midi": 61,
        "time": 170.5,
        "duration": 0.25,
        "velocity": 0.71,
        "hand": "right"
      },
      {
        "midi": 76,
        "time": 170.5,
        "duration": 0.25,
        "velocity": 0.71,
        "hand": "right"
      },
      {
        "midi": 82,
        "time": 170.5,
        "duration": 0.25,
        "velocity": 0.71,
        "hand": "right"
      },
      {
        "midi": 64,
        "time": 170.75,
        "duration": 0.25,
        "velocity": 0.71,
        "hand": "right"
      },
      {
        "midi": 73,
        "time": 170.75,
        "duration": 0.25,
        "velocity": 0.71,
        "hand": "right"
      },
      {
        "midi": 79,
        "time": 170.75,
        "duration": 0.25,
        "velocity": 0.71,
        "hand": "right"
      },
      {
        "midi": 61,
        "time": 171,
        "duration": 0.25,
        "velocity": 0.71,
        "hand": "right"
      },
      {
        "midi": 76,
        "time": 171,
        "duration": 0.25,
        "velocity": 0.71,
        "hand": "right"
      },
      {
        "midi": 82,
        "time": 171,
        "duration": 0.25,
        "velocity": 0.71,
        "hand": "right"
      },
      {
        "midi": 62,
        "time": 171.25,
        "duration": 0.25,
        "velocity": 0.71,
        "hand": "right"
      },
      {
        "midi": 77,
        "time": 171.25,
        "duration": 0.25,
        "velocity": 0.71,
        "hand": "right"
      },
      {
        "midi": 83,
        "time": 171.25,
        "duration": 0.25,
        "velocity": 0.71,
        "hand": "right"
      },
      {
        "midi": 63,
        "time": 171.5,
        "duration": 0.25,
        "velocity": 0.71,
        "hand": "right"
      },
      {
        "midi": 78,
        "time": 171.5,
        "duration": 0.25,
        "velocity": 0.71,
        "hand": "right"
      },
      {
        "midi": 84,
        "time": 171.5,
        "duration": 0.25,
        "velocity": 0.71,
        "hand": "right"
      },
      {
        "midi": 66,
        "time": 171.75,
        "duration": 0.25,
        "velocity": 0.71,
        "hand": "right"
      },
      {
        "midi": 75,
        "time": 171.75,
        "duration": 0.25,
        "velocity": 0.71,
        "hand": "right"
      },
      {
        "midi": 81,
        "time": 171.75,
        "duration": 0.25,
        "velocity": 0.71,
        "hand": "right"
      },
      {
        "midi": 63,
        "time": 172,
        "duration": 0.25,
        "velocity": 0.71,
        "hand": "right"
      },
      {
        "midi": 78,
        "time": 172,
        "duration": 0.25,
        "velocity": 0.71,
        "hand": "right"
      },
      {
        "midi": 84,
        "time": 172,
        "duration": 0.25,
        "velocity": 0.71,
        "hand": "right"
      },
      {
        "midi": 64,
        "time": 172.25,
        "duration": 0.25,
        "velocity": 0.71,
        "hand": "right"
      },
      {
        "midi": 79,
        "time": 172.25,
        "duration": 0.25,
        "velocity": 0.71,
        "hand": "right"
      },
      {
        "midi": 85,
        "time": 172.25,
        "duration": 0.25,
        "velocity": 0.71,
        "hand": "right"
      },
      {
        "midi": 67,
        "time": 172.5,
        "duration": 0.25,
        "velocity": 0.71,
        "hand": "right"
      },
      {
        "midi": 82,
        "time": 172.5,
        "duration": 0.25,
        "velocity": 0.71,
        "hand": "right"
      },
      {
        "midi": 88,
        "time": 172.5,
        "duration": 0.25,
        "velocity": 0.71,
        "hand": "right"
      },
      {
        "midi": 70,
        "time": 172.75,
        "duration": 0.25,
        "velocity": 0.71,
        "hand": "right"
      },
      {
        "midi": 85,
        "time": 172.75,
        "duration": 0.25,
        "velocity": 0.71,
        "hand": "right"
      },
      {
        "midi": 91,
        "time": 172.75,
        "duration": 0.25,
        "velocity": 0.71,
        "hand": "right"
      },
      {
        "midi": 67,
        "time": 173,
        "duration": 0.25,
        "velocity": 0.71,
        "hand": "right"
      },
      {
        "midi": 82,
        "time": 173,
        "duration": 0.25,
        "velocity": 0.71,
        "hand": "right"
      },
      {
        "midi": 88,
        "time": 173,
        "duration": 0.25,
        "velocity": 0.71,
        "hand": "right"
      },
      {
        "midi": 70,
        "time": 173.25,
        "duration": 0.25,
        "velocity": 0.71,
        "hand": "right"
      },
      {
        "midi": 85,
        "time": 173.25,
        "duration": 0.25,
        "velocity": 0.71,
        "hand": "right"
      },
      {
        "midi": 91,
        "time": 173.25,
        "duration": 0.25,
        "velocity": 0.71,
        "hand": "right"
      },
      {
        "midi": 73,
        "time": 173.5,
        "duration": 0.25,
        "velocity": 0.71,
        "hand": "right"
      },
      {
        "midi": 88,
        "time": 173.5,
        "duration": 0.25,
        "velocity": 0.71,
        "hand": "right"
      },
      {
        "midi": 94,
        "time": 173.5,
        "duration": 0.25,
        "velocity": 0.71,
        "hand": "right"
      },
      {
        "midi": 76,
        "time": 173.75,
        "duration": 0.25,
        "velocity": 0.71,
        "hand": "right"
      },
      {
        "midi": 91,
        "time": 173.75,
        "duration": 0.25,
        "velocity": 0.71,
        "hand": "right"
      },
      {
        "midi": 100,
        "time": 173.75,
        "duration": 0.25,
        "velocity": 0.71,
        "hand": "right"
      },
      {
        "midi": 32,
        "time": 174,
        "duration": 0.5,
        "velocity": 0.71,
        "hand": "left"
      },
      {
        "midi": 73,
        "time": 174,
        "duration": 1,
        "velocity": 0.71,
        "hand": "right"
      },
      {
        "midi": 80,
        "time": 174,
        "duration": 1.25,
        "velocity": 0.71,
        "hand": "right"
      },
      {
        "midi": 52,
        "time": 175,
        "duration": 0.5,
        "velocity": 0.71,
        "hand": "left"
      },
      {
        "midi": 61,
        "time": 175,
        "duration": 0.5,
        "velocity": 0.71,
        "hand": "right"
      },
      {
        "midi": 64,
        "time": 175,
        "duration": 0.5,
        "velocity": 0.71,
        "hand": "right"
      },
      {
        "midi": 85,
        "time": 175.25,
        "duration": 0.25,
        "velocity": 0.71,
        "hand": "right"
      },
      {
        "midi": 83,
        "time": 175.5,
        "duration": 0.25,
        "velocity": 0.71,
        "hand": "right"
      },
      {
        "midi": 81,
        "time": 175.75,
        "duration": 0.25,
        "velocity": 0.71,
        "hand": "right"
      },
      {
        "midi": 79,
        "time": 176,
        "duration": 0.25,
        "velocity": 0.71,
        "hand": "right"
      },
      {
        "midi": 80,
        "time": 176.25,
        "duration": 0.25,
        "velocity": 0.71,
        "hand": "right"
      },
      {
        "midi": 76,
        "time": 176.5,
        "duration": 0.25,
        "velocity": 0.71,
        "hand": "right"
      },
      {
        "midi": 72,
        "time": 176.75,
        "duration": 0.25,
        "velocity": 0.71,
        "hand": "right"
      },
      {
        "midi": 75,
        "time": 177,
        "duration": 0.25,
        "velocity": 0.71,
        "hand": "right"
      },
      {
        "midi": 76,
        "time": 177.25,
        "duration": 0.25,
        "velocity": 0.71,
        "hand": "right"
      },
      {
        "midi": 73,
        "time": 177.5,
        "duration": 0.25,
        "velocity": 0.71,
        "hand": "right"
      },
      {
        "midi": 67,
        "time": 177.75,
        "duration": 0.25,
        "velocity": 0.71,
        "hand": "right"
      },
      {
        "midi": 68,
        "time": 178,
        "duration": 2,
        "velocity": 0.71,
        "hand": "right"
      },
      {
        "midi": 44,
        "time": 180,
        "duration": 2,
        "velocity": 0.71,
        "hand": "left"
      },
      {
        "midi": 54,
        "time": 180,
        "duration": 2,
        "velocity": 0.71,
        "hand": "left"
      },
      {
        "midi": 60,
        "time": 180,
        "duration": 2,
        "velocity": 0.71,
        "hand": "right"
      },
      {
        "midi": 52,
        "time": 182,
        "duration": 0.75,
        "velocity": 0.71,
        "hand": "left"
      },
      {
        "midi": 61,
        "time": 182,
        "duration": 1,
        "velocity": 0.71,
        "hand": "right"
      },
      {
        "midi": 37,
        "time": 182.25,
        "duration": 0.25,
        "velocity": 0.71,
        "hand": "left"
      },
      {
        "midi": 44,
        "time": 182.5,
        "duration": 0.25,
        "velocity": 0.71,
        "hand": "left"
      },
      {
        "midi": 52,
        "time": 182.75,
        "duration": 0.25,
        "velocity": 0.71,
        "hand": "left"
      },
      {
        "midi": 51,
        "time": 183,
        "duration": 0.25,
        "velocity": 0.71,
        "hand": "left"
      },
      {
        "midi": 49,
        "time": 183.25,
        "duration": 0.25,
        "velocity": 0.71,
        "hand": "left"
      },
      {
        "midi": 57,
        "time": 183.5,
        "duration": 0.25,
        "velocity": 0.71,
        "hand": "left"
      },
      {
        "midi": 64,
        "time": 183.75,
        "duration": 0.25,
        "velocity": 0.71,
        "hand": "right"
      },
      {
        "midi": 63,
        "time": 184,
        "duration": 0.25,
        "velocity": 0.71,
        "hand": "right"
      },
      {
        "midi": 61,
        "time": 184.25,
        "duration": 0.25,
        "velocity": 0.71,
        "hand": "right"
      },
      {
        "midi": 64,
        "time": 184.5,
        "duration": 0.25,
        "velocity": 0.71,
        "hand": "right"
      },
      {
        "midi": 67,
        "time": 184.75,
        "duration": 0.25,
        "velocity": 0.71,
        "hand": "right"
      },
      {
        "midi": 69,
        "time": 185,
        "duration": 0.75,
        "velocity": 0.71,
        "hand": "right"
      },
      {
        "midi": 81,
        "time": 185,
        "duration": 0.875,
        "velocity": 0.71,
        "hand": "right"
      },
      {
        "midi": 73,
        "time": 185.25,
        "duration": 0.25,
        "velocity": 0.71,
        "hand": "right"
      },
      {
        "midi": 78,
        "time": 185.5,
        "duration": 0.25,
        "velocity": 0.71,
        "hand": "right"
      },
      {
        "midi": 67,
        "time": 185.75,
        "duration": 0.25,
        "velocity": 0.71,
        "hand": "right"
      },
      {
        "midi": 76,
        "time": 185.75,
        "duration": 0.25,
        "velocity": 0.71,
        "hand": "right"
      },
      {
        "midi": 81,
        "time": 185.875,
        "duration": 0.125,
        "velocity": 0.71,
        "hand": "right"
      },
      {
        "midi": 66,
        "time": 186,
        "duration": 1,
        "velocity": 0.71,
        "hand": "right"
      },
      {
        "midi": 74,
        "time": 186,
        "duration": 2,
        "velocity": 0.71,
        "hand": "right"
      },
      {
        "midi": 81,
        "time": 186,
        "duration": 1,
        "velocity": 0.71,
        "hand": "right"
      },
      {
        "midi": 38,
        "time": 186.25,
        "duration": 0.25,
        "velocity": 0.71,
        "hand": "left"
      },
      {
        "midi": 45,
        "time": 186.5,
        "duration": 0.25,
        "velocity": 0.71,
        "hand": "left"
      },
      {
        "midi": 54,
        "time": 186.75,
        "duration": 0.25,
        "velocity": 0.71,
        "hand": "left"
      },
      {
        "midi": 52,
        "time": 187,
        "duration": 0.25,
        "velocity": 0.71,
        "hand": "left"
      },
      {
        "midi": 69,
        "time": 187,
        "duration": 1,
        "velocity": 0.71,
        "hand": "right"
      },
      {
        "midi": 78,
        "time": 187,
        "duration": 1,
        "velocity": 0.71,
        "hand": "right"
      },
      {
        "midi": 50,
        "time": 187.25,
        "duration": 0.25,
        "velocity": 0.71,
        "hand": "left"
      },
      {
        "midi": 57,
        "time": 187.5,
        "duration": 0.25,
        "velocity": 0.71,
        "hand": "left"
      },
      {
        "midi": 66,
        "time": 187.75,
        "duration": 0.25,
        "velocity": 0.71,
        "hand": "right"
      },
      {
        "midi": 66,
        "time": 188,
        "duration": 1,
        "velocity": 0.71,
        "hand": "right"
      },
      {
        "midi": 72,
        "time": 188,
        "duration": 1,
        "velocity": 0.71,
        "hand": "right"
      },
      {
        "midi": 80,
        "time": 188,
        "duration": 1,
        "velocity": 0.71,
        "hand": "right"
      },
      {
        "midi": 44,
        "time": 188.25,
        "duration": 0.25,
        "velocity": 0.71,
        "hand": "left"
      },
      {
        "midi": 51,
        "time": 188.5,
        "duration": 0.25,
        "velocity": 0.71,
        "hand": "left"
      },
      {
        "midi": 60,
        "time": 188.75,
        "duration": 0.25,
        "velocity": 0.71,
        "hand": "right"
      },
      {
        "midi": 66,
        "time": 189,
        "duration": 0.5,
        "velocity": 0.71,
        "hand": "right"
      },
      {
        "midi": 72,
        "time": 189,
        "duration": 0.75,
        "velocity": 0.71,
        "hand": "right"
      },
      {
        "midi": 84,
        "time": 189,
        "duration": 0.75,
        "velocity": 0.71,
        "hand": "right"
      },
      {
        "midi": 76,
        "time": 189.25,
        "duration": 0.5,
        "velocity": 0.71,
        "hand": "right"
      },
      {
        "midi": 80,
        "time": 189.5,
        "duration": 0.25,
        "velocity": 0.71,
        "hand": "right"
      },
      {
        "midi": 75,
        "time": 189.75,
        "duration": 0.25,
        "velocity": 0.71,
        "hand": "right"
      },
      {
        "midi": 78,
        "time": 189.75,
        "duration": 0.25,
        "velocity": 0.71,
        "hand": "right"
      },
      {
        "midi": 84,
        "time": 189.75,
        "duration": 0.25,
        "velocity": 0.71,
        "hand": "right"
      },
      {
        "midi": 72,
        "time": 190,
        "duration": 1.75,
        "velocity": 0.71,
        "hand": "right"
      },
      {
        "midi": 76,
        "time": 190,
        "duration": 2,
        "velocity": 0.71,
        "hand": "right"
      },
      {
        "midi": 84,
        "time": 190,
        "duration": 1.75,
        "velocity": 0.71,
        "hand": "right"
      },
      {
        "midi": 37,
        "time": 190.25,
        "duration": 0.25,
        "velocity": 0.71,
        "hand": "left"
      },
      {
        "midi": 44,
        "time": 190.5,
        "duration": 0.25,
        "velocity": 0.71,
        "hand": "left"
      },
      {
        "midi": 52,
        "time": 190.75,
        "duration": 0.25,
        "velocity": 0.71,
        "hand": "left"
      },
      {
        "midi": 51,
        "time": 191,
        "duration": 0.25,
        "velocity": 0.71,
        "hand": "left"
      },
      {
        "midi": 49,
        "time": 191.25,
        "duration": 0.25,
        "velocity": 0.71,
        "hand": "left"
      },
      {
        "midi": 56,
        "time": 191.5,
        "duration": 0.25,
        "velocity": 0.71,
        "hand": "left"
      },
      {
        "midi": 64,
        "time": 191.75,
        "duration": 0.25,
        "velocity": 0.71,
        "hand": "right"
      },
      {
        "midi": 73,
        "time": 191.75,
        "duration": 0.25,
        "velocity": 0.71,
        "hand": "right"
      },
      {
        "midi": 85,
        "time": 191.75,
        "duration": 0.25,
        "velocity": 0.71,
        "hand": "right"
      },
      {
        "midi": 63,
        "time": 192,
        "duration": 0.25,
        "velocity": 0.71,
        "hand": "right"
      },
      {
        "midi": 61,
        "time": 192.25,
        "duration": 0.25,
        "velocity": 0.71,
        "hand": "right"
      },
      {
        "midi": 68,
        "time": 192.5,
        "duration": 0.25,
        "velocity": 0.71,
        "hand": "right"
      },
      {
        "midi": 76,
        "time": 192.75,
        "duration": 0.25,
        "velocity": 0.71,
        "hand": "right"
      },
      {
        "midi": 75,
        "time": 193,
        "duration": 0.25,
        "velocity": 0.71,
        "hand": "right"
      },
      {
        "midi": 73,
        "time": 193.25,
        "duration": 0.25,
        "velocity": 0.71,
        "hand": "right"
      },
      {
        "midi": 76,
        "time": 193.5,
        "duration": 0.25,
        "velocity": 0.71,
        "hand": "right"
      },
      {
        "midi": 85,
        "time": 193.75,
        "duration": 0.25,
        "velocity": 0.71,
        "hand": "right"
      },
      {
        "midi": 97,
        "time": 194,
        "duration": 0.25,
        "velocity": 0.71,
        "hand": "right"
      },
      {
        "midi": 37,
        "time": 195,
        "duration": 1,
        "velocity": 0.71,
        "hand": "left"
      },
      {
        "midi": 52,
        "time": 195,
        "duration": 1,
        "velocity": 0.71,
        "hand": "left"
      },
      {
        "midi": 64,
        "time": 195,
        "duration": 1,
        "velocity": 0.71,
        "hand": "right"
      },
      {
        "midi": 37,
        "time": 196,
        "duration": 2,
        "velocity": 0.71,
        "hand": "left"
      },
      {
        "midi": 52,
        "time": 196,
        "duration": 2,
        "velocity": 0.71,
        "hand": "left"
      },
      {
        "midi": 61,
        "time": 196,
        "duration": 2,
        "velocity": 0.71,
        "hand": "right"
      }
    ],
    "hard": [
      {
        "midi": 64,
        "time": 0.5,
        "duration": 0.5,
        "velocity": 0.71,
        "hand": "right"
      },
      {
        "midi": 68,
        "time": 0.5,
        "duration": 0.5,
        "velocity": 0.71,
        "hand": "right"
      },
      {
        "midi": 73,
        "time": 0.5,
        "duration": 0.5,
        "velocity": 0.71,
        "hand": "right"
      },
      {
        "midi": 62,
        "time": 1,
        "duration": 0.5,
        "velocity": 0.71,
        "hand": "right"
      },
      {
        "midi": 66,
        "time": 1,
        "duration": 0.5,
        "velocity": 0.71,
        "hand": "right"
      },
      {
        "midi": 71,
        "time": 1,
        "duration": 0.5,
        "velocity": 0.71,
        "hand": "right"
      },
      {
        "midi": 61,
        "time": 1.5,
        "duration": 0.5,
        "velocity": 0.71,
        "hand": "right"
      },
      {
        "midi": 64,
        "time": 1.5,
        "duration": 0.5,
        "velocity": 0.71,
        "hand": "right"
      },
      {
        "midi": 69,
        "time": 1.5,
        "duration": 0.5,
        "velocity": 0.71,
        "hand": "right"
      },
      {
        "midi": 60,
        "time": 2,
        "duration": 0.5,
        "velocity": 0.71,
        "hand": "right"
      },
      {
        "midi": 63,
        "time": 2,
        "duration": 0.5,
        "velocity": 0.71,
        "hand": "right"
      },
      {
        "midi": 68,
        "time": 2,
        "duration": 0.5,
        "velocity": 0.71,
        "hand": "right"
      },
      {
        "midi": 61,
        "time": 2.5,
        "duration": 0.5,
        "velocity": 0.71,
        "hand": "right"
      },
      {
        "midi": 64,
        "time": 2.5,
        "duration": 0.5,
        "velocity": 0.71,
        "hand": "right"
      },
      {
        "midi": 69,
        "time": 2.5,
        "duration": 0.5,
        "velocity": 0.71,
        "hand": "right"
      },
      {
        "midi": 71,
        "time": 2.5,
        "duration": 0.063,
        "velocity": 0.71,
        "hand": "right"
      },
      {
        "midi": 59,
        "time": 3,
        "duration": 0.5,
        "velocity": 0.71,
        "hand": "left"
      },
      {
        "midi": 62,
        "time": 3,
        "duration": 0.5,
        "velocity": 0.71,
        "hand": "right"
      },
      {
        "midi": 67,
        "time": 3,
        "duration": 0.5,
        "velocity": 0.71,
        "hand": "right"
      },
      {
        "midi": 57,
        "time": 3.5,
        "duration": 0.5,
        "velocity": 0.71,
        "hand": "left"
      },
      {
        "midi": 61,
        "time": 3.5,
        "duration": 0.5,
        "velocity": 0.71,
        "hand": "right"
      },
      {
        "midi": 66,
        "time": 3.5,
        "duration": 0.5,
        "velocity": 0.71,
        "hand": "right"
      },
      {
        "midi": 56,
        "time": 4,
        "duration": 0.5,
        "velocity": 0.71,
        "hand": "left"
      },
      {
        "midi": 59,
        "time": 4,
        "duration": 0.5,
        "velocity": 0.71,
        "hand": "left"
      },
      {
        "midi": 65,
        "time": 4,
        "duration": 0.5,
        "velocity": 0.71,
        "hand": "right"
      },
      {
        "midi": 57,
        "time": 4.5,
        "duration": 0.5,
        "velocity": 0.71,
        "hand": "left"
      },
      {
        "midi": 61,
        "time": 4.5,
        "duration": 0.5,
        "velocity": 0.71,
        "hand": "right"
      },
      {
        "midi": 66,
        "time": 4.5,
        "duration": 0.5,
        "velocity": 0.71,
        "hand": "right"
      },
      {
        "midi": 56,
        "time": 5,
        "duration": 0.5,
        "velocity": 0.71,
        "hand": "left"
      },
      {
        "midi": 59,
        "time": 5,
        "duration": 0.5,
        "velocity": 0.71,
        "hand": "left"
      },
      {
        "midi": 64,
        "time": 5,
        "duration": 0.5,
        "velocity": 0.71,
        "hand": "right"
      },
      {
        "midi": 54,
        "time": 5.5,
        "duration": 0.5,
        "velocity": 0.71,
        "hand": "left"
      },
      {
        "midi": 57,
        "time": 5.5,
        "duration": 1,
        "velocity": 0.71,
        "hand": "left"
      },
      {
        "midi": 62,
        "time": 5.5,
        "duration": 0.5,
        "velocity": 0.71,
        "hand": "right"
      },
      {
        "midi": 52,
        "time": 6,
        "duration": 1,
        "velocity": 0.71,
        "hand": "left"
      },
      {
        "midi": 61,
        "time": 6,
        "duration": 1.5,
        "velocity": 0.71,
        "hand": "right"
      },
      {
        "midi": 56,
        "time": 6.5,
        "duration": 1.5,
        "velocity": 0.71,
        "hand": "left"
      },
      {
        "midi": 51,
        "time": 7,
        "duration": 1,
        "velocity": 0.71,
        "hand": "left"
      },
      {
        "midi": 32,
        "time": 7.5,
        "duration": 0.5,
        "velocity": 0.71,
        "hand": "left"
      },
      {
        "midi": 60,
        "time": 7.5,
        "duration": 0.5,
        "velocity": 0.71,
        "hand": "right"
      },
      {
        "midi": 25,
        "time": 8,
        "duration": 0.25,
        "velocity": 0.71,
        "hand": "left"
      },
      {
        "midi": 52,
        "time": 8,
        "duration": 0.75,
        "velocity": 0.71,
        "hand": "left"
      },
      {
        "midi": 56,
        "time": 8,
        "duration": 1,
        "velocity": 0.71,
        "hand": "left"
      },
      {
        "midi": 63,
        "time": 8,
        "duration": 0.75,
        "velocity": 0.71,
        "hand": "right"
      },
      {
        "midi": 37,
        "time": 8.25,
        "duration": 0.25,
        "velocity": 0.71,
        "hand": "left"
      },
      {
        "midi": 44,
        "time": 8.5,
        "duration": 0.25,
        "velocity": 0.71,
        "hand": "left"
      },
      {
        "midi": 52,
        "time": 8.75,
        "duration": 0.25,
        "velocity": 0.71,
        "hand": "left"
      },
      {
        "midi": 61,
        "time": 8.75,
        "duration": 0.25,
        "velocity": 0.71,
        "hand": "right"
      },
      {
        "midi": 51,
        "time": 9,
        "duration": 0.25,
        "velocity": 0.71,
        "hand": "left"
      },
      {
        "midi": 49,
        "time": 9.25,
        "duration": 0.25,
        "velocity": 0.71,
        "hand": "left"
      },
      {
        "midi": 56,
        "time": 9.5,
        "duration": 0.25,
        "velocity": 0.71,
        "hand": "left"
      },
      {
        "midi": 64,
        "time": 9.75,
        "duration": 0.25,
        "velocity": 0.71,
        "hand": "right"
      },
      {
        "midi": 63,
        "time": 10,
        "duration": 0.25,
        "velocity": 0.71,
        "hand": "right"
      },
      {
        "midi": 61,
        "time": 10.25,
        "duration": 0.25,
        "velocity": 0.71,
        "hand": "right"
      },
      {
        "midi": 64,
        "time": 10.5,
        "duration": 0.25,
        "velocity": 0.71,
        "hand": "right"
      },
      {
        "midi": 66,
        "time": 10.75,
        "duration": 0.25,
        "velocity": 0.71,
        "hand": "right"
      },
      {
        "midi": 68,
        "time": 11,
        "duration": 1,
        "velocity": 0.71,
        "hand": "right"
      },
      {
        "midi": 80,
        "time": 11,
        "duration": 1,
        "velocity": 0.71,
        "hand": "right"
      },
      {
        "midi": 73,
        "time": 11.25,
        "duration": 0.25,
        "velocity": 0.71,
        "hand": "right"
      },
      {
        "midi": 75,
        "time": 11.5,
        "duration": 0.25,
        "velocity": 0.71,
        "hand": "right"
      },
      {
        "midi": 76,
        "time": 11.75,
        "duration": 0.25,
        "velocity": 0.71,
        "hand": "right"
      },
      {
        "midi": 78,
        "time": 11.75,
        "duration": 0.063,
        "velocity": 0.71,
        "hand": "right"
      },
      {
        "midi": 68,
        "time": 12,
        "duration": 2,
        "velocity": 0.71,
        "hand": "right"
      },
      {
        "midi": 75,
        "time": 12,
        "duration": 1.75,
        "velocity": 0.71,
        "hand": "right"
      },
      {
        "midi": 80,
        "time": 12,
        "duration": 2,
        "velocity": 0.71,
        "hand": "right"
      },
      {
        "midi": 37,
        "time": 12.25,
        "duration": 0.25,
        "velocity": 0.71,
        "hand": "left"
      },
      {
        "midi": 44,
        "time": 12.5,
        "duration": 0.25,
        "velocity": 0.71,
        "hand": "left"
      },
      {
        "midi": 52,
        "time": 12.75,
        "duration": 0.25,
        "velocity": 0.71,
        "hand": "left"
      },
      {
        "midi": 51,
        "time": 13,
        "duration": 0.25,
        "velocity": 0.71,
        "hand": "left"
      },
      {
        "midi": 49,
        "time": 13.25,
        "duration": 0.25,
        "velocity": 0.71,
        "hand": "left"
      },
      {
        "midi": 56,
        "time": 13.5,
        "duration": 0.25,
        "velocity": 0.71,
        "hand": "left"
      },
      {
        "midi": 64,
        "time": 13.75,
        "duration": 0.25,
        "velocity": 0.71,
        "hand": "right"
      },
      {
        "midi": 73,
        "time": 13.75,
        "duration": 0.25,
        "velocity": 0.71,
        "hand": "right"
      },
      {
        "midi": 63,
        "time": 14,
        "duration": 0.25,
        "velocity": 0.71,
        "hand": "right"
      },
      {
        "midi": 61,
        "time": 14.25,
        "duration": 0.25,
        "velocity": 0.71,
        "hand": "right"
      },
      {
        "midi": 64,
        "time": 14.5,
        "duration": 0.25,
        "velocity": 0.71,
        "hand": "right"
      },
      {
        "midi": 66,
        "time": 14.75,
        "duration": 0.25,
        "velocity": 0.71,
        "hand": "right"
      },
      {
        "midi": 68,
        "time": 15,
        "duration": 0.75,
        "velocity": 0.71,
        "hand": "right"
      },
      {
        "midi": 80,
        "time": 15,
        "duration": 0.75,
        "velocity": 0.71,
        "hand": "right"
      },
      {
        "midi": 73,
        "time": 15.25,
        "duration": 0.25,
        "velocity": 0.71,
        "hand": "right"
      },
      {
        "midi": 76,
        "time": 15.5,
        "duration": 0.5,
        "velocity": 0.71,
        "hand": "right"
      },
      {
        "midi": 42,
        "time": 15.75,
        "duration": 0.5,
        "velocity": 0.71,
        "hand": "left"
      },
      {
        "midi": 70,
        "time": 15.75,
        "duration": 0.25,
        "velocity": 0.71,
        "hand": "right"
      },
      {
        "midi": 82,
        "time": 15.75,
        "duration": 0.25,
        "velocity": 0.71,
        "hand": "right"
      },
      {
        "midi": 70,
        "time": 16,
        "duration": 0.063,
        "velocity": 0.71,
        "hand": "right"
      },
      {
        "midi": 70,
        "time": 16,
        "duration": 0.75,
        "velocity": 0.71,
        "hand": "right"
      },
      {
        "midi": 76,
        "time": 16,
        "duration": 0.75,
        "velocity": 0.71,
        "hand": "right"
      },
      {
        "midi": 85,
        "time": 16,
        "duration": 0.75,
        "velocity": 0.71,
        "hand": "right"
      },
      {
        "midi": 35,
        "time": 16.25,
        "duration": 0.25,
        "velocity": 0.71,
        "hand": "left"
      },
      {
        "midi": 42,
        "time": 16.5,
        "duration": 0.25,
        "velocity": 0.71,
        "hand": "left"
      },
      {
        "midi": 51,
        "time": 16.75,
        "duration": 0.25,
        "velocity": 0.71,
        "hand": "left"
      },
      {
        "midi": 71,
        "time": 16.75,
        "duration": 0.25,
        "velocity": 0.71,
        "hand": "right"
      },
      {
        "midi": 75,
        "time": 16.75,
        "duration": 0.25,
        "velocity": 0.71,
        "hand": "right"
      },
      {
        "midi": 83,
        "time": 16.75,
        "duration": 0.25,
        "velocity": 0.71,
        "hand": "right"
      },
      {
        "midi": 49,
        "time": 17,
        "duration": 0.25,
        "velocity": 0.71,
        "hand": "left"
      },
      {
        "midi": 47,
        "time": 17.25,
        "duration": 0.25,
        "velocity": 0.71,
        "hand": "left"
      },
      {
        "midi": 54,
        "time": 17.5,
        "duration": 0.25,
        "velocity": 0.71,
        "hand": "left"
      },
      {
        "midi": 63,
        "time": 17.75,
        "duration": 0.25,
        "velocity": 0.71,
        "hand": "right"
      },
      {
        "midi": 61,
        "time": 18,
        "duration": 0.25,
        "velocity": 0.71,
        "hand": "right"
      },
      {
        "midi": 59,
        "time": 18.25,
        "duration": 0.25,
        "velocity": 0.71,
        "hand": "left"
      },
      {
        "midi": 63,
        "time": 18.5,
        "duration": 0.25,
        "velocity": 0.71,
        "hand": "right"
      },
      {
        "midi": 64,
        "time": 18.75,
        "duration": 0.25,
        "velocity": 0.71,
        "hand": "right"
      },
      {
        "midi": 66,
        "time": 19,
        "duration": 1,
        "velocity": 0.71,
        "hand": "right"
      },
      {
        "midi": 78,
        "time": 19,
        "duration": 1,
        "velocity": 0.71,
        "hand": "right"
      },
      {
        "midi": 71,
        "time": 19.25,
        "duration": 0.25,
        "velocity": 0.71,
        "hand": "right"
      },
      {
        "midi": 73,
        "time": 19.5,
        "duration": 0.25,
        "velocity": 0.71,
        "hand": "right"
      },
      {
        "midi": 74,
        "time": 19.75,
        "duration": 0.25,
        "velocity": 0.71,
        "hand": "right"
      },
      {
        "midi": 76,
        "time": 19.75,
        "duration": 0.063,
        "velocity": 0.71,
        "hand": "right"
      },
      {
        "midi": 66,
        "time": 20,
        "duration": 2,
        "velocity": 0.71,
        "hand": "right"
      },
      {
        "midi": 73,
        "time": 20,
        "duration": 1.75,
        "velocity": 0.71,
        "hand": "right"
      },
      {
        "midi": 78,
        "time": 20,
        "duration": 2,
        "velocity": 0.71,
        "hand": "right"
      },
      {
        "midi": 35,
        "time": 20.25,
        "duration": 0.25,
        "velocity": 0.71,
        "hand": "left"
      },
      {
        "midi": 42,
        "time": 20.5,
        "duration": 0.25,
        "velocity": 0.71,
        "hand": "left"
      },
      {
        "midi": 50,
        "time": 20.75,
        "duration": 0.25,
        "velocity": 0.71,
        "hand": "left"
      },
      {
        "midi": 49,
        "time": 21,
        "duration": 0.25,
        "velocity": 0.71,
        "hand": "left"
      },
      {
        "midi": 47,
        "time": 21.25,
        "duration": 0.25,
        "velocity": 0.71,
        "hand": "left"
      },
      {
        "midi": 54,
        "time": 21.5,
        "duration": 0.25,
        "velocity": 0.71,
        "hand": "left"
      },
      {
        "midi": 62,
        "time": 21.75,
        "duration": 0.25,
        "velocity": 0.71,
        "hand": "right"
      },
      {
        "midi": 71,
        "time": 21.75,
        "duration": 0.25,
        "velocity": 0.71,
        "hand": "right"
      },
      {
        "midi": 61,
        "time": 22,
        "duration": 0.25,
        "velocity": 0.71,
        "hand": "right"
      },
      {
        "midi": 59,
        "time": 22.25,
        "duration": 0.25,
        "velocity": 0.71,
        "hand": "left"
      },
      {
        "midi": 62,
        "time": 22.5,
        "duration": 0.25,
        "velocity": 0.71,
        "hand": "right"
      },
      {
        "midi": 64,
        "time": 22.75,
        "duration": 0.25,
        "velocity": 0.71,
        "hand": "right"
      },
      {
        "midi": 66,
        "time": 23,
        "duration": 0.75,
        "velocity": 0.71,
        "hand": "right"
      },
      {
        "midi": 78,
        "time": 23,
        "duration": 0.75,
        "velocity": 0.71,
        "hand": "right"
      },
      {
        "midi": 71,
        "time": 23.25,
        "duration": 0.25,
        "velocity": 0.71,
        "hand": "right"
      },
      {
        "midi": 74,
        "time": 23.5,
        "duration": 0.5,
        "velocity": 0.71,
        "hand": "right"
      },
      {
        "midi": 40,
        "time": 23.75,
        "duration": 0.5,
        "velocity": 0.71,
        "hand": "left"
      },
      {
        "midi": 68,
        "time": 23.75,
        "duration": 0.25,
        "velocity": 0.71,
        "hand": "right"
      },
      {
        "midi": 80,
        "time": 23.75,
        "duration": 0.25,
        "velocity": 0.71,
        "hand": "right"
      },
      {
        "midi": 68,
        "time": 24,
        "duration": 0.063,
        "velocity": 0.71,
        "hand": "right"
      },
      {
        "midi": 68,
        "time": 24,
        "duration": 0.75,
        "velocity": 0.71,
        "hand": "right"
      },
      {
        "midi": 74,
        "time": 24,
        "duration": 0.75,
        "velocity": 0.71,
        "hand": "right"
      },
      {
        "midi": 83,
        "time": 24,
        "duration": 0.75,
        "velocity": 0.71,
        "hand": "right"
      },
      {
        "midi": 33,
        "time": 24.25,
        "duration": 0.25,
        "velocity": 0.71,
        "hand": "left"
      },
      {
        "midi": 40,
        "time": 24.5,
        "duration": 0.25,
        "velocity": 0.71,
        "hand": "left"
      },
      {
        "midi": 49,
        "time": 24.75,
        "duration": 0.25,
        "velocity": 0.71,
        "hand": "left"
      },
      {
        "midi": 69,
        "time": 24.75,
        "duration": 0.25,
        "velocity": 0.71,
        "hand": "right"
      },
      {
        "midi": 73,
        "time": 24.75,
        "duration": 0.25,
        "velocity": 0.71,
        "hand": "right"
      },
      {
        "midi": 81,
        "time": 24.75,
        "duration": 0.25,
        "velocity": 0.71,
        "hand": "right"
      },
      {
        "midi": 47,
        "time": 25,
        "duration": 0.25,
        "velocity": 0.71,
        "hand": "left"
      },
      {
        "midi": 45,
        "time": 25.25,
        "duration": 0.25,
        "velocity": 0.71,
        "hand": "left"
      },
      {
        "midi": 52,
        "time": 25.5,
        "duration": 0.25,
        "velocity": 0.71,
        "hand": "left"
      },
      {
        "midi": 69,
        "time": 25.5,
        "duration": 0.5,
        "velocity": 0.71,
        "hand": "right"
      },
      {
        "midi": 73,
        "time": 25.5,
        "duration": 0.5,
        "velocity": 0.71,
        "hand": "right"
      },
      {
        "midi": 81,
        "time": 25.5,
        "duration": 0.5,
        "velocity": 0.71,
        "hand": "right"
      },
      {
        "midi": 61,
        "time": 25.75,
        "duration": 0.25,
        "velocity": 0.71,
        "hand": "right"
      },
      {
        "midi": 69,
        "time": 26,
        "duration": 0.5,
        "velocity": 0.71,
        "hand": "right"
      },
      {
        "midi": 73,
        "time": 26,
        "duration": 0.5,
        "velocity": 0.71,
        "hand": "right"
      },
      {
        "midi": 81,
        "time": 26,
        "duration": 0.5,
        "velocity": 0.71,
        "hand": "right"
      },
      {
        "midi": 41,
        "time": 26.25,
        "duration": 0.25,
        "velocity": 0.71,
        "hand": "left"
      },
      {
        "midi": 49,
        "time": 26.5,
        "duration": 0.25,
        "velocity": 0.71,
        "hand": "left"
      },
      {
        "midi": 68,
        "time": 26.5,
        "duration": 0.5,
        "velocity": 0.71,
        "hand": "right"
      },
      {
        "midi": 71,
        "time": 26.5,
        "duration": 0.5,
        "velocity": 0.71,
        "hand": "right"
      },
      {
        "midi": 80,
        "time": 26.5,
        "duration": 0.5,
        "velocity": 0.71,
        "hand": "right"
      },
      {
        "midi": 61,
        "time": 26.75,
        "duration": 0.25,
        "velocity": 0.71,
        "hand": "right"
      },
      {
        "midi": 66,
        "time": 27,
        "duration": 0.5,
        "velocity": 0.71,
        "hand": "right"
      },
      {
        "midi": 69,
        "time": 27,
        "duration": 0.5,
        "velocity": 0.71,
        "hand": "right"
      },
      {
        "midi": 78,
        "time": 27,
        "duration": 0.5,
        "velocity": 0.71,
        "hand": "right"
      },
      {
        "midi": 42,
        "time": 27.25,
        "duration": 0.25,
        "velocity": 0.71,
        "hand": "left"
      },
      {
        "midi": 49,
        "time": 27.5,
        "duration": 0.25,
        "velocity": 0.71,
        "hand": "left"
      },
      {
        "midi": 68,
        "time": 27.5,
        "duration": 0.5,
        "velocity": 0.71,
        "hand": "right"
      },
      {
        "midi": 71,
        "time": 27.5,
        "duration": 0.5,
        "velocity": 0.71,
        "hand": "right"
      },
      {
        "midi": 80,
        "time": 27.5,
        "duration": 0.5,
        "velocity": 0.71,
        "hand": "right"
      },
      {
        "midi": 61,
        "time": 27.75,
        "duration": 0.25,
        "velocity": 0.71,
        "hand": "right"
      },
      {
        "midi": 66,
        "time": 28,
        "duration": 1.75,
        "velocity": 0.71,
        "hand": "right"
      },
      {
        "midi": 69,
        "time": 28,
        "duration": 2,
        "velocity": 0.71,
        "hand": "right"
      },
      {
        "midi": 78,
        "time": 28,
        "duration": 1.875,
        "velocity": 0.71,
        "hand": "right"
      },
      {
        "midi": 38,
        "time": 28.25,
        "duration": 0.25,
        "velocity": 0.71,
        "hand": "left"
      },
      {
        "midi": 45,
        "time": 28.5,
        "duration": 0.25,
        "velocity": 0.71,
        "hand": "left"
      },
      {
        "midi": 54,
        "time": 28.75,
        "duration": 0.25,
        "velocity": 0.71,
        "hand": "left"
      },
      {
        "midi": 52,
        "time": 29,
        "duration": 0.25,
        "velocity": 0.71,
        "hand": "left"
      },
      {
        "midi": 50,
        "time": 29.25,
        "duration": 0.25,
        "velocity": 0.71,
        "hand": "left"
      },
      {
        "midi": 57,
        "time": 29.5,
        "duration": 0.25,
        "velocity": 0.71,
        "hand": "left"
      },
      {
        "midi": 66,
        "time": 29.75,
        "duration": 0.25,
        "velocity": 0.71,
        "hand": "right"
      },
      {
        "midi": 64,
        "time": 29.875,
        "duration": 0.125,
        "velocity": 0.71,
        "hand": "right"
      },
      {
        "midi": 76,
        "time": 29.875,
        "duration": 0.125,
        "velocity": 0.71,
        "hand": "right"
      },
      {
        "midi": 64,
        "time": 30,
        "duration": 0.5,
        "velocity": 0.71,
        "hand": "right"
      },
      {
        "midi": 69,
        "time": 30,
        "duration": 1.5,
        "velocity": 0.71,
        "hand": "right"
      },
      {
        "midi": 76,
        "time": 30,
        "duration": 0.5,
        "velocity": 0.71,
        "hand": "right"
      },
      {
        "midi": 38,
        "time": 30.25,
        "duration": 0.25,
        "velocity": 0.71,
        "hand": "left"
      },
      {
        "midi": 45,
        "time": 30.5,
        "duration": 0.25,
        "velocity": 0.71,
        "hand": "left"
      },
      {
        "midi": 62,
        "time": 30.5,
        "duration": 1,
        "velocity": 0.71,
        "hand": "right"
      },
      {
        "midi": 74,
        "time": 30.5,
        "duration": 1,
        "velocity": 0.71,
        "hand": "right"
      },
      {
        "midi": 54,
        "time": 30.75,
        "duration": 0.25,
        "velocity": 0.71,
        "hand": "left"
      },
      {
        "midi": 52,
        "time": 31,
        "duration": 0.25,
        "velocity": 0.71,
        "hand": "left"
      },
      {
        "midi": 50,
        "time": 31.25,
        "duration": 0.25,
        "velocity": 0.71,
        "hand": "left"
      },
      {
        "midi": 57,
        "time": 31.5,
        "duration": 0.25,
        "velocity": 0.71,
        "hand": "left"
      },
      {
        "midi": 62,
        "time": 31.5,
        "duration": 0.5,
        "velocity": 0.71,
        "hand": "right"
      },
      {
        "midi": 69,
        "time": 31.5,
        "duration": 0.5,
        "velocity": 0.71,
        "hand": "right"
      },
      {
        "midi": 66,
        "time": 31.75,
        "duration": 0.25,
        "velocity": 0.71,
        "hand": "right"
      },
      {
        "midi": 59,
        "time": 32,
        "duration": 2,
        "velocity": 0.71,
        "hand": "left"
      },
      {
        "midi": 62,
        "time": 32,
        "duration": 1.75,
        "velocity": 0.71,
        "hand": "right"
      },
      {
        "midi": 67,
        "time": 32,
        "duration": 2,
        "velocity": 0.71,
        "hand": "right"
      },
      {
        "midi": 71,
        "time": 32,
        "duration": 2,
        "velocity": 0.71,
        "hand": "right"
      },
      {
        "midi": 31,
        "time": 32.25,
        "duration": 0.25,
        "velocity": 0.71,
        "hand": "left"
      },
      {
        "midi": 43,
        "time": 32.5,
        "duration": 0.25,
        "velocity": 0.71,
        "hand": "left"
      },
      {
        "midi": 50,
        "time": 32.75,
        "duration": 0.25,
        "velocity": 0.71,
        "hand": "left"
      },
      {
        "midi": 52,
        "time": 33,
        "duration": 0.25,
        "velocity": 0.71,
        "hand": "left"
      },
      {
        "midi": 50,
        "time": 33.25,
        "duration": 0.25,
        "velocity": 0.71,
        "hand": "left"
      },
      {
        "midi": 55,
        "time": 33.5,
        "duration": 0.25,
        "velocity": 0.71,
        "hand": "left"
      },
      {
        "midi": 52,
        "time": 33.75,
        "duration": 0.25,
        "velocity": 0.71,
        "hand": "left"
      },
      {
        "midi": 64,
        "time": 33.75,
        "duration": 0.25,
        "velocity": 0.71,
        "hand": "right"
      },
      {
        "midi": 50,
        "time": 34,
        "duration": 0.25,
        "velocity": 0.71,
        "hand": "left"
      },
      {
        "midi": 57,
        "time": 34,
        "duration": 1,
        "velocity": 0.71,
        "hand": "left"
      },
      {
        "midi": 66,
        "time": 34,
        "duration": 0.75,
        "velocity": 0.71,
        "hand": "right"
      },
      {
        "midi": 69,
        "time": 34,
        "duration": 0.75,
        "velocity": 0.71,
        "hand": "right"
      },
      {
        "midi": 45,
        "time": 34.25,
        "duration": 0.25,
        "velocity": 0.71,
        "hand": "left"
      },
      {
        "midi": 38,
        "time": 34.5,
        "duration": 0.25,
        "velocity": 0.71,
        "hand": "left"
      },
      {
        "midi": 54,
        "time": 34.75,
        "duration": 0.25,
        "velocity": 0.71,
        "hand": "left"
      },
      {
        "midi": 62,
        "time": 34.75,
        "duration": 0.25,
        "velocity": 0.71,
        "hand": "right"
      },
      {
        "midi": 66,
        "time": 34.75,
        "duration": 0.25,
        "velocity": 0.71,
        "hand": "right"
      },
      {
        "midi": 50,
        "time": 35,
        "duration": 0.25,
        "velocity": 0.71,
        "hand": "left"
      },
      {
        "midi": 57,
        "time": 35,
        "duration": 1.75,
        "velocity": 0.71,
        "hand": "left"
      },
      {
        "midi": 66,
        "time": 35,
        "duration": 1,
        "velocity": 0.71,
        "hand": "right"
      },
      {
        "midi": 69,
        "time": 35,
        "duration": 1,
        "velocity": 0.71,
        "hand": "right"
      },
      {
        "midi": 45,
        "time": 35.25,
        "duration": 0.25,
        "velocity": 0.71,
        "hand": "left"
      },
      {
        "midi": 43,
        "time": 35.5,
        "duration": 0.25,
        "velocity": 0.71,
        "hand": "left"
      },
      {
        "midi": 42,
        "time": 35.75,
        "duration": 0.25,
        "velocity": 0.71,
        "hand": "left"
      },
      {
        "midi": 30,
        "time": 36,
        "duration": 0.25,
        "velocity": 0.71,
        "hand": "left"
      },
      {
        "midi": 61,
        "time": 36,
        "duration": 1,
        "velocity": 0.71,
        "hand": "right"
      },
      {
        "midi": 66,
        "time": 36,
        "duration": 1,
        "velocity": 0.71,
        "hand": "right"
      },
      {
        "midi": 69,
        "time": 36,
        "duration": 1,
        "velocity": 0.71,
        "hand": "right"
      },
      {
        "midi": 42,
        "time": 36.25,
        "duration": 0.25,
        "velocity": 0.71,
        "hand": "left"
      },
      {
        "midi": 49,
        "time": 36.5,
        "duration": 0.25,
        "velocity": 0.71,
        "hand": "left"
      },
      {
        "midi": 57,
        "time": 36.75,
        "duration": 0.25,
        "velocity": 0.71,
        "hand": "left"
      },
      {
        "midi": 56,
        "time": 37,
        "duration": 0.25,
        "velocity": 0.71,
        "hand": "left"
      },
      {
        "midi": 54,
        "time": 37.25,
        "duration": 0.25,
        "velocity": 0.71,
        "hand": "left"
      },
      {
        "midi": 61,
        "time": 37.5,
        "duration": 0.25,
        "velocity": 0.71,
        "hand": "right"
      },
      {
        "midi": 69,
        "time": 37.75,
        "duration": 0.25,
        "velocity": 0.71,
        "hand": "right"
      },
      {
        "midi": 68,
        "time": 38,
        "duration": 0.25,
        "velocity": 0.71,
        "hand": "right"
      },
      {
        "midi": 66,
        "time": 38.25,
        "duration": 0.25,
        "velocity": 0.71,
        "hand": "right"
      },
      {
        "midi": 69,
        "time": 38.5,
        "duration": 0.25,
        "velocity": 0.71,
        "hand": "right"
      },
      {
        "midi": 71,
        "time": 38.75,
        "duration": 0.25,
        "velocity": 0.71,
        "hand": "right"
      },
      {
        "midi": 73,
        "time": 39,
        "duration": 1,
        "velocity": 0.71,
        "hand": "right"
      },
      {
        "midi": 85,
        "time": 39,
        "duration": 1,
        "velocity": 0.71,
        "hand": "right"
      },
      {
        "midi": 78,
        "time": 39.25,
        "duration": 0.25,
        "velocity": 0.71,
        "hand": "right"
      },
      {
        "midi": 80,
        "time": 39.5,
        "duration": 0.25,
        "velocity": 0.71,
        "hand": "right"
      },
      {
        "midi": 81,
        "time": 39.75,
        "duration": 0.25,
        "velocity": 0.71,
        "hand": "right"
      },
      {
        "midi": 83,
        "time": 39.75,
        "duration": 0.063,
        "velocity": 0.71,
        "hand": "right"
      },
      {
        "midi": 73,
        "time": 40,
        "duration": 2,
        "velocity": 0.71,
        "hand": "right"
      },
      {
        "midi": 80,
        "time": 40,
        "duration": 1.75,
        "velocity": 0.71,
        "hand": "right"
      },
      {
        "midi": 85,
        "time": 40,
        "duration": 2,
        "velocity": 0.71,
        "hand": "right"
      },
      {
        "midi": 42,
        "time": 40.25,
        "duration": 0.25,
        "velocity": 0.71,
        "hand": "left"
      },
      {
        "midi": 49,
        "time": 40.5,
        "duration": 0.25,
        "velocity": 0.71,
        "hand": "left"
      },
      {
        "midi": 57,
        "time": 40.75,
        "duration": 0.25,
        "velocity": 0.71,
        "hand": "left"
      },
      {
        "midi": 56,
        "time": 41,
        "duration": 0.25,
        "velocity": 0.71,
        "hand": "left"
      },
      {
        "midi": 54,
        "time": 41.25,
        "duration": 0.25,
        "velocity": 0.71,
        "hand": "left"
      },
      {
        "midi": 61,
        "time": 41.5,
        "duration": 0.25,
        "velocity": 0.71,
        "hand": "right"
      },
      {
        "midi": 69,
        "time": 41.75,
        "duration": 0.25,
        "velocity": 0.71,
        "hand": "right"
      },
      {
        "midi": 78,
        "time": 41.75,
        "duration": 0.25,
        "velocity": 0.71,
        "hand": "right"
      },
      {
        "midi": 68,
        "time": 42,
        "duration": 0.25,
        "velocity": 0.71,
        "hand": "right"
      },
      {
        "midi": 66,
        "time": 42.25,
        "duration": 0.25,
        "velocity": 0.71,
        "hand": "right"
      },
      {
        "midi": 69,
        "time": 42.5,
        "duration": 0.25,
        "velocity": 0.71,
        "hand": "right"
      },
      {
        "midi": 71,
        "time": 42.75,
        "duration": 0.25,
        "velocity": 0.71,
        "hand": "right"
      },
      {
        "midi": 73,
        "time": 43,
        "duration": 0.75,
        "velocity": 0.71,
        "hand": "right"
      },
      {
        "midi": 85,
        "time": 43,
        "duration": 0.75,
        "velocity": 0.71,
        "hand": "right"
      },
      {
        "midi": 78,
        "time": 43.25,
        "duration": 0.25,
        "velocity": 0.71,
        "hand": "right"
      },
      {
        "midi": 81,
        "time": 43.5,
        "duration": 0.5,
        "velocity": 0.71,
        "hand": "right"
      },
      {
        "midi": 47,
        "time": 43.75,
        "duration": 0.5,
        "velocity": 0.71,
        "hand": "left"
      },
      {
        "midi": 75,
        "time": 43.75,
        "duration": 0.25,
        "velocity": 0.71,
        "hand": "right"
      },
      {
        "midi": 87,
        "time": 43.75,
        "duration": 0.25,
        "velocity": 0.71,
        "hand": "right"
      },
      {
        "midi": 75,
        "time": 44,
        "duration": 0.063,
        "velocity": 0.71,
        "hand": "right"
      },
      {
        "midi": 75,
        "time": 44,
        "duration": 0.75,
        "velocity": 0.71,
        "hand": "right"
      },
      {
        "midi": 81,
        "time": 44,
        "duration": 0.75,
        "velocity": 0.71,
        "hand": "right"
      },
      {
        "midi": 90,
        "time": 44,
        "duration": 0.75,
        "velocity": 0.71,
        "hand": "right"
      },
      {
        "midi": 40,
        "time": 44.25,
        "duration": 0.25,
        "velocity": 0.71,
        "hand": "left"
      },
      {
        "midi": 47,
        "time": 44.5,
        "duration": 0.25,
        "velocity": 0.71,
        "hand": "left"
      },
      {
        "midi": 56,
        "time": 44.75,
        "duration": 0.25,
        "velocity": 0.71,
        "hand": "left"
      },
      {
        "midi": 76,
        "time": 44.75,
        "duration": 0.25,
        "velocity": 0.71,
        "hand": "right"
      },
      {
        "midi": 80,
        "time": 44.75,
        "duration": 0.25,
        "velocity": 0.71,
        "hand": "right"
      },
      {
        "midi": 88,
        "time": 44.75,
        "duration": 0.25,
        "velocity": 0.71,
        "hand": "right"
      },
      {
        "midi": 54,
        "time": 45,
        "duration": 0.25,
        "velocity": 0.71,
        "hand": "left"
      },
      {
        "midi": 52,
        "time": 45.25,
        "duration": 0.25,
        "velocity": 0.71,
        "hand": "left"
      },
      {
        "midi": 59,
        "time": 45.5,
        "duration": 0.25,
        "velocity": 0.71,
        "hand": "left"
      },
      {
        "midi": 68,
        "time": 45.75,
        "duration": 0.25,
        "velocity": 0.71,
        "hand": "right"
      },
      {
        "midi": 66,
        "time": 46,
        "duration": 0.25,
        "velocity": 0.71,
        "hand": "right"
      },
      {
        "midi": 64,
        "time": 46.25,
        "duration": 0.25,
        "velocity": 0.71,
        "hand": "right"
      },
      {
        "midi": 68,
        "time": 46.5,
        "duration": 0.25,
        "velocity": 0.71,
        "hand": "right"
      },
      {
        "midi": 69,
        "time": 46.75,
        "duration": 0.25,
        "velocity": 0.71,
        "hand": "right"
      },
      {
        "midi": 71,
        "time": 47,
        "duration": 1,
        "velocity": 0.71,
        "hand": "right"
      },
      {
        "midi": 83,
        "time": 47,
        "duration": 1,
        "velocity": 0.71,
        "hand": "right"
      },
      {
        "midi": 76,
        "time": 47.25,
        "duration": 0.25,
        "velocity": 0.71,
        "hand": "right"
      },
      {
        "midi": 78,
        "time": 47.5,
        "duration": 0.25,
        "velocity": 0.71,
        "hand": "right"
      },
      {
        "midi": 79,
        "time": 47.75,
        "duration": 0.25,
        "velocity": 0.71,
        "hand": "right"
      },
      {
        "midi": 81,
        "time": 47.75,
        "duration": 0.063,
        "velocity": 0.71,
        "hand": "right"
      },
      {
        "midi": 71,
        "time": 48,
        "duration": 2,
        "velocity": 0.71,
        "hand": "right"
      },
      {
        "midi": 78,
        "time": 48,
        "duration": 1.75,
        "velocity": 0.71,
        "hand": "right"
      },
      {
        "midi": 83,
        "time": 48,
        "duration": 2,
        "velocity": 0.71,
        "hand": "right"
      },
      {
        "midi": 40,
        "time": 48.25,
        "duration": 0.25,
        "velocity": 0.71,
        "hand": "left"
      },
      {
        "midi": 47,
        "time": 48.5,
        "duration": 0.25,
        "velocity": 0.71,
        "hand": "left"
      },
      {
        "midi": 55,
        "time": 48.75,
        "duration": 0.25,
        "velocity": 0.71,
        "hand": "left"
      },
      {
        "midi": 54,
        "time": 49,
        "duration": 0.25,
        "velocity": 0.71,
        "hand": "left"
      },
      {
        "midi": 52,
        "time": 49.25,
        "duration": 0.25,
        "velocity": 0.71,
        "hand": "left"
      },
      {
        "midi": 59,
        "time": 49.5,
        "duration": 0.25,
        "velocity": 0.71,
        "hand": "left"
      },
      {
        "midi": 67,
        "time": 49.75,
        "duration": 0.25,
        "velocity": 0.71,
        "hand": "right"
      },
      {
        "midi": 76,
        "time": 49.75,
        "duration": 0.25,
        "velocity": 0.71,
        "hand": "right"
      },
      {
        "midi": 66,
        "time": 50,
        "duration": 0.25,
        "velocity": 0.71,
        "hand": "right"
      },
      {
        "midi": 64,
        "time": 50.25,
        "duration": 0.25,
        "velocity": 0.71,
        "hand": "right"
      },
      {
        "midi": 67,
        "time": 50.5,
        "duration": 0.25,
        "velocity": 0.71,
        "hand": "right"
      },
      {
        "midi": 69,
        "time": 50.75,
        "duration": 0.25,
        "velocity": 0.71,
        "hand": "right"
      },
      {
        "midi": 71,
        "time": 51,
        "duration": 0.75,
        "velocity": 0.71,
        "hand": "right"
      },
      {
        "midi": 83,
        "time": 51,
        "duration": 0.75,
        "velocity": 0.71,
        "hand": "right"
      },
      {
        "midi": 76,
        "time": 51.25,
        "duration": 0.25,
        "velocity": 0.71,
        "hand": "right"
      },
      {
        "midi": 79,
        "time": 51.5,
        "duration": 0.25,
        "velocity": 0.71,
        "hand": "right"
      },
      {
        "midi": 45,
        "time": 51.75,
        "duration": 0.5,
        "velocity": 0.71,
        "hand": "left"
      },
      {
        "midi": 73,
        "time": 51.75,
        "duration": 0.25,
        "velocity": 0.71,
        "hand": "right"
      },
      {
        "midi": 85,
        "time": 51.75,
        "duration": 0.25,
        "velocity": 0.71,
        "hand": "right"
      },
      {
        "midi": 73,
        "time": 52,
        "duration": 0.5,
        "velocity": 0.71,
        "hand": "right"
      },
      {
        "midi": 79,
        "time": 52,
        "duration": 0.5,
        "velocity": 0.71,
        "hand": "right"
      },
      {
        "midi": 85,
        "time": 52,
        "duration": 0.5,
        "velocity": 0.71,
        "hand": "right"
      },
      {
        "midi": 46,
        "time": 52.25,
        "duration": 0.25,
        "velocity": 0.71,
        "hand": "left"
      },
      {
        "midi": 53,
        "time": 52.5,
        "duration": 0.25,
        "velocity": 0.71,
        "hand": "left"
      },
      {
        "midi": 74,
        "time": 52.5,
        "duration": 1,
        "velocity": 0.71,
        "hand": "right"
      },
      {
        "midi": 77,
        "time": 52.5,
        "duration": 1,
        "velocity": 0.71,
        "hand": "right"
      },
      {
        "midi": 86,
        "time": 52.5,
        "duration": 1,
        "velocity": 0.71,
        "hand": "right"
      },
      {
        "midi": 62,
        "time": 52.75,
        "duration": 0.25,
        "velocity": 0.71,
        "hand": "right"
      },
      {
        "midi": 60,
        "time": 53,
        "duration": 0.25,
        "velocity": 0.71,
        "hand": "right"
      },
      {
        "midi": 58,
        "time": 53.25,
        "duration": 0.25,
        "velocity": 0.71,
        "hand": "left"
      },
      {
        "midi": 65,
        "time": 53.5,
        "duration": 0.25,
        "velocity": 0.71,
        "hand": "right"
      },
      {
        "midi": 72,
        "time": 53.5,
        "duration": 0.5,
        "velocity": 0.71,
        "hand": "right"
      },
      {
        "midi": 77,
        "time": 53.5,
        "duration": 0.5,
        "velocity": 0.71,
        "hand": "right"
      },
      {
        "midi": 84,
        "time": 53.5,
        "duration": 0.5,
        "velocity": 0.71,
        "hand": "right"
      },
      {
        "midi": 74,
        "time": 53.75,
        "duration": 0.25,
        "velocity": 0.71,
        "hand": "right"
      },
      {
        "midi": 72,
        "time": 54,
        "duration": 0.5,
        "velocity": 0.71,
        "hand": "right"
      },
      {
        "midi": 75,
        "time": 54,
        "duration": 0.5,
        "velocity": 0.71,
        "hand": "right"
      },
      {
        "midi": 84,
        "time": 54,
        "duration": 0.5,
        "velocity": 0.71,
        "hand": "right"
      },
      {
        "midi": 39,
        "time": 54.25,
        "duration": 0.25,
        "velocity": 0.71,
        "hand": "left"
      },
      {
        "midi": 46,
        "time": 54.5,
        "duration": 0.25,
        "velocity": 0.71,
        "hand": "left"
      },
      {
        "midi": 70,
        "time": 54.5,
        "duration": 0.5,
        "velocity": 0.71,
        "hand": "right"
      },
      {
        "midi": 79,
        "time": 54.5,
        "duration": 0.5,
        "velocity": 0.71,
        "hand": "right"
      },
      {
        "midi": 82,
        "time": 54.5,
        "duration": 0.5,
        "velocity": 0.71,
        "hand": "right"
      },
      {
        "midi": 55,
        "time": 54.75,
        "duration": 0.25,
        "velocity": 0.71,
        "hand": "left"
      },
      {
        "midi": 53,
        "time": 55,
        "duration": 0.25,
        "velocity": 0.71,
        "hand": "left"
      },
      {
        "midi": 67,
        "time": 55,
        "duration": 0.5,
        "velocity": 0.71,
        "hand": "right"
      },
      {
        "midi": 75,
        "time": 55,
        "duration": 0.5,
        "velocity": 0.71,
        "hand": "right"
      },
      {
        "midi": 79,
        "time": 55,
        "duration": 0.5,
        "velocity": 0.71,
        "hand": "right"
      },
      {
        "midi": 51,
        "time": 55.25,
        "duration": 0.25,
        "velocity": 0.71,
        "hand": "left"
      },
      {
        "midi": 58,
        "time": 55.5,
        "duration": 0.25,
        "velocity": 0.71,
        "hand": "left"
      },
      {
        "midi": 70,
        "time": 55.5,
        "duration": 0.5,
        "velocity": 0.71,
        "hand": "right"
      },
      {
        "midi": 79,
        "time": 55.5,
        "duration": 0.5,
        "velocity": 0.71,
        "hand": "right"
      },
      {
        "midi": 82,
        "time": 55.5,
        "duration": 0.5,
        "velocity": 0.71,
        "hand": "right"
      },
      {
        "midi": 67,
        "time": 55.75,
        "duration": 0.25,
        "velocity": 0.71,
        "hand": "right"
      },
      {
        "midi": 65,
        "time": 56,
        "duration": 2,
        "velocity": 0.71,
        "hand": "right"
      },
      {
        "midi": 70,
        "time": 56,
        "duration": 2,
        "velocity": 0.71,
        "hand": "right"
      },
      {
        "midi": 74,
        "time": 56,
        "duration": 2,
        "velocity": 0.71,
        "hand": "right"
      },
      {
        "midi": 77,
        "time": 56,
        "duration": 2,
        "velocity": 0.71,
        "hand": "right"
      },
      {
        "midi": 41,
        "time": 56.25,
        "duration": 0.25,
        "velocity": 0.71,
        "hand": "left"
      },
      {
        "midi": 50,
        "time": 56.5,
        "duration": 0.25,
        "velocity": 0.71,
        "hand": "left"
      },
      {
        "midi": 53,
        "time": 56.75,
        "duration": 0.25,
        "velocity": 0.71,
        "hand": "left"
      },
      {
        "midi": 55,
        "time": 57,
        "duration": 0.25,
        "velocity": 0.71,
        "hand": "left"
      },
      {
        "midi": 53,
        "time": 57.25,
        "duration": 0.25,
        "velocity": 0.71,
        "hand": "left"
      },
      {
        "midi": 63,
        "time": 57.5,
        "duration": 0.25,
        "velocity": 0.71,
        "hand": "right"
      },
      {
        "midi": 62,
        "time": 57.75,
        "duration": 0.25,
        "velocity": 0.71,
        "hand": "right"
      },
      {
        "midi": 29,
        "time": 58,
        "duration": 0.25,
        "velocity": 0.71,
        "hand": "left"
      },
      {
        "midi": 63,
        "time": 58,
        "duration": 2,
        "velocity": 0.71,
        "hand": "right"
      },
      {
        "midi": 69,
        "time": 58,
        "duration": 2,
        "velocity": 0.71,
        "hand": "right"
      },
      {
        "midi": 74,
        "time": 58,
        "duration": 1.75,
        "velocity": 0.71,
        "hand": "right"
      },
      {
        "midi": 77,
        "time": 58,
        "duration": 1.75,
        "velocity": 0.71,
        "hand": "right"
      },
      {
        "midi": 41,
        "time": 58.25,
        "duration": 0.25,
        "velocity": 0.71,
        "hand": "left"
      },
      {
        "midi": 48,
        "time": 58.5,
        "duration": 0.25,
        "velocity": 0.71,
        "hand": "left"
      },
      {
        "midi": 51,
        "time": 58.75,
        "duration": 0.25,
        "velocity": 0.71,
        "hand": "left"
      },
      {
        "midi": 55,
        "time": 59,
        "duration": 0.25,
        "velocity": 0.71,
        "hand": "left"
      },
      {
        "midi": 53,
        "time": 59.25,
        "duration": 0.25,
        "velocity": 0.71,
        "hand": "left"
      },
      {
        "midi": 62,
        "time": 59.5,
        "duration": 0.25,
        "velocity": 0.71,
        "hand": "right"
      },
      {
        "midi": 60,
        "time": 59.75,
        "duration": 0.25,
        "velocity": 0.71,
        "hand": "right"
      },
      {
        "midi": 75,
        "time": 59.75,
        "duration": 0.25,
        "velocity": 0.71,
        "hand": "right"
      },
      {
        "midi": 30,
        "time": 60,
        "duration": 0.25,
        "velocity": 0.71,
        "hand": "left"
      },
      {
        "midi": 61,
        "time": 60,
        "duration": 0.5,
        "velocity": 0.71,
        "hand": "right"
      },
      {
        "midi": 70,
        "time": 60,
        "duration": 0.5,
        "velocity": 0.71,
        "hand": "right"
      },
      {
        "midi": 73,
        "time": 60,
        "duration": 0.5,
        "velocity": 0.71,
        "hand": "right"
      },
      {
        "midi": 42,
        "time": 60.25,
        "duration": 0.25,
        "velocity": 0.71,
        "hand": "left"
      },
      {
        "midi": 49,
        "time": 60.5,
        "duration": 0.25,
        "velocity": 0.71,
        "hand": "left"
      },
      {
        "midi": 58,
        "time": 60.75,
        "duration": 0.25,
        "velocity": 0.71,
        "hand": "left"
      },
      {
        "midi": 56,
        "time": 61,
        "duration": 0.25,
        "velocity": 0.71,
        "hand": "left"
      },
      {
        "midi": 70,
        "time": 61,
        "duration": 0.75,
        "velocity": 0.71,
        "hand": "right"
      },
      {
        "midi": 73,
        "time": 61,
        "duration": 1,
        "velocity": 0.71,
        "hand": "right"
      },
      {
        "midi": 82,
        "time": 61,
        "duration": 1,
        "velocity": 0.71,
        "hand": "right"
      },
      {
        "midi": 54,
        "time": 61.25,
        "duration": 0.25,
        "velocity": 0.71,
        "hand": "left"
      },
      {
        "midi": 61,
        "time": 61.5,
        "duration": 0.25,
        "velocity": 0.71,
        "hand": "right"
      },
      {
        "midi": 70,
        "time": 61.75,
        "duration": 0.25,
        "velocity": 0.71,
        "hand": "right"
      },
      {
        "midi": 68,
        "time": 62,
        "duration": 0.5,
        "velocity": 0.71,
        "hand": "right"
      },
      {
        "midi": 71,
        "time": 62,
        "duration": 0.5,
        "velocity": 0.71,
        "hand": "right"
      },
      {
        "midi": 80,
        "time": 62,
        "duration": 0.5,
        "velocity": 0.71,
        "hand": "right"
      },
      {
        "midi": 35,
        "time": 62.25,
        "duration": 0.25,
        "velocity": 0.71,
        "hand": "left"
      },
      {
        "midi": 42,
        "time": 62.5,
        "duration": 0.25,
        "velocity": 0.71,
        "hand": "left"
      },
      {
        "midi": 66,
        "time": 62.5,
        "duration": 0.5,
        "velocity": 0.71,
        "hand": "right"
      },
      {
        "midi": 71,
        "time": 62.5,
        "duration": 0.5,
        "velocity": 0.71,
        "hand": "right"
      },
      {
        "midi": 78,
        "time": 62.5,
        "duration": 0.5,
        "velocity": 0.71,
        "hand": "right"
      },
      {
        "midi": 51,
        "time": 62.75,
        "duration": 0.25,
        "velocity": 0.71,
        "hand": "left"
      },
      {
        "midi": 49,
        "time": 63,
        "duration": 0.25,
        "velocity": 0.71,
        "hand": "left"
      },
      {
        "midi": 63,
        "time": 63,
        "duration": 0.5,
        "velocity": 0.71,
        "hand": "right"
      },
      {
        "midi": 71,
        "time": 63,
        "duration": 0.5,
        "velocity": 0.71,
        "hand": "right"
      },
      {
        "midi": 75,
        "time": 63,
        "duration": 0.5,
        "velocity": 0.71,
        "hand": "right"
      },
      {
        "midi": 47,
        "time": 63.25,
        "duration": 0.25,
        "velocity": 0.71,
        "hand": "left"
      },
      {
        "midi": 54,
        "time": 63.5,
        "duration": 0.25,
        "velocity": 0.71,
        "hand": "left"
      },
      {
        "midi": 66,
        "time": 63.5,
        "duration": 0.5,
        "velocity": 0.71,
        "hand": "right"
      },
      {
        "midi": 71,
        "time": 63.5,
        "duration": 0.5,
        "velocity": 0.71,
        "hand": "right"
      },
      {
        "midi": 78,
        "time": 63.5,
        "duration": 0.5,
        "velocity": 0.71,
        "hand": "right"
      },
      {
        "midi": 63,
        "time": 63.75,
        "duration": 0.25,
        "velocity": 0.71,
        "hand": "right"
      },
      {
        "midi": 37,
        "time": 64,
        "duration": 0.25,
        "velocity": 0.71,
        "hand": "left"
      },
      {
        "midi": 61,
        "time": 64,
        "duration": 1,
        "velocity": 0.71,
        "hand": "right"
      },
      {
        "midi": 66,
        "time": 64,
        "duration": 1,
        "velocity": 0.71,
        "hand": "right"
      },
      {
        "midi": 70,
        "time": 64,
        "duration": 1,
        "velocity": 0.71,
        "hand": "right"
      },
      {
        "midi": 73,
        "time": 64,
        "duration": 1,
        "velocity": 0.71,
        "hand": "right"
      },
      {
        "midi": 49,
        "time": 64.25,
        "duration": 0.25,
        "velocity": 0.71,
        "hand": "left"
      },
      {
        "midi": 54,
        "time": 64.5,
        "duration": 0.25,
        "velocity": 0.71,
        "hand": "left"
      },
      {
        "midi": 58,
        "time": 64.75,
        "duration": 0.25,
        "velocity": 0.71,
        "hand": "left"
      },
      {
        "midi": 56,
        "time": 65,
        "duration": 0.25,
        "velocity": 0.71,
        "hand": "left"
      },
      {
        "midi": 63,
        "time": 65,
        "duration": 1,
        "velocity": 0.71,
        "hand": "right"
      },
      {
        "midi": 70,
        "time": 65,
        "duration": 1,
        "velocity": 0.71,
        "hand": "right"
      },
      {
        "midi": 73,
        "time": 65,
        "duration": 1,
        "velocity": 0.71,
        "hand": "right"
      },
      {
        "midi": 75,
        "time": 65,
        "duration": 1,
        "velocity": 0.71,
        "hand": "right"
      },
      {
        "midi": 55,
        "time": 65.25,
        "duration": 0.25,
        "velocity": 0.71,
        "hand": "left"
      },
      {
        "midi": 59,
        "time": 65.5,
        "duration": 0.25,
        "velocity": 0.71,
        "hand": "left"
      },
      {
        "midi": 58,
        "time": 65.75,
        "duration": 0.25,
        "velocity": 0.71,
        "hand": "left"
      },
      {
        "midi": 49,
        "time": 66,
        "duration": 2,
        "velocity": 0.71,
        "hand": "left"
      },
      {
        "midi": 63,
        "time": 66,
        "duration": 1.5,
        "velocity": 0.71,
        "hand": "right"
      },
      {
        "midi": 68,
        "time": 66,
        "duration": 1.5,
        "velocity": 0.71,
        "hand": "right"
      },
      {
        "midi": 71,
        "time": 66,
        "duration": 1.5,
        "velocity": 0.71,
        "hand": "right"
      },
      {
        "midi": 75,
        "time": 66,
        "duration": 1.5,
        "velocity": 0.71,
        "hand": "right"
      },
      {
        "midi": 55,
        "time": 66.25,
        "duration": 0.25,
        "velocity": 0.71,
        "hand": "left"
      },
      {
        "midi": 56,
        "time": 66.5,
        "duration": 0.25,
        "velocity": 0.71,
        "hand": "left"
      },
      {
        "midi": 59,
        "time": 66.75,
        "duration": 0.25,
        "velocity": 0.71,
        "hand": "left"
      },
      {
        "midi": 58,
        "time": 67,
        "duration": 0.25,
        "velocity": 0.71,
        "hand": "left"
      },
      {
        "midi": 56,
        "time": 67.25,
        "duration": 0.25,
        "velocity": 0.71,
        "hand": "left"
      },
      {
        "midi": 63,
        "time": 67.5,
        "duration": 0.25,
        "velocity": 0.71,
        "hand": "right"
      },
      {
        "midi": 65,
        "time": 67.5,
        "duration": 0.5,
        "velocity": 0.71,
        "hand": "right"
      },
      {
        "midi": 71,
        "time": 67.5,
        "duration": 0.5,
        "velocity": 0.71,
        "hand": "right"
      },
      {
        "midi": 73,
        "time": 67.5,
        "duration": 0.5,
        "velocity": 0.71,
        "hand": "right"
      },
      {
        "midi": 77,
        "time": 67.5,
        "duration": 0.5,
        "velocity": 0.71,
        "hand": "right"
      },
      {
        "midi": 61,
        "time": 67.75,
        "duration": 0.25,
        "velocity": 0.71,
        "hand": "right"
      },
      {
        "midi": 30,
        "time": 68,
        "duration": 0.25,
        "velocity": 0.71,
        "hand": "left"
      },
      {
        "midi": 65,
        "time": 68,
        "duration": 0.75,
        "velocity": 0.71,
        "hand": "right"
      },
      {
        "midi": 70,
        "time": 68,
        "duration": 1,
        "velocity": 0.71,
        "hand": "right"
      },
      {
        "midi": 73,
        "time": 68,
        "duration": 1,
        "velocity": 0.71,
        "hand": "right"
      },
      {
        "midi": 77,
        "time": 68,
        "duration": 0.75,
        "velocity": 0.71,
        "hand": "right"
      },
      {
        "midi": 42,
        "time": 68.25,
        "duration": 0.25,
        "velocity": 0.71,
        "hand": "left"
      },
      {
        "midi": 49,
        "time": 68.5,
        "duration": 0.25,
        "velocity": 0.71,
        "hand": "left"
      },
      {
        "midi": 58,
        "time": 68.75,
        "duration": 0.25,
        "velocity": 0.71,
        "hand": "left"
      },
      {
        "midi": 66,
        "time": 68.75,
        "duration": 0.25,
        "velocity": 0.71,
        "hand": "right"
      },
      {
        "midi": 78,
        "time": 68.75,
        "duration": 0.25,
        "velocity": 0.71,
        "hand": "right"
      },
      {
        "midi": 56,
        "time": 69,
        "duration": 0.25,
        "velocity": 0.71,
        "hand": "left"
      },
      {
        "midi": 54,
        "time": 69.25,
        "duration": 0.25,
        "velocity": 0.71,
        "hand": "left"
      },
      {
        "midi": 61,
        "time": 69.5,
        "duration": 0.25,
        "velocity": 0.71,
        "hand": "right"
      },
      {
        "midi": 70,
        "time": 69.75,
        "duration": 0.25,
        "velocity": 0.71,
        "hand": "right"
      },
      {
        "midi": 68,
        "time": 70,
        "duration": 0.25,
        "velocity": 0.71,
        "hand": "right"
      },
      {
        "midi": 66,
        "time": 70.25,
        "duration": 0.25,
        "velocity": 0.71,
        "hand": "right"
      },
      {
        "midi": 70,
        "time": 70.5,
        "duration": 0.25,
        "velocity": 0.71,
        "hand": "right"
      },
      {
        "midi": 71,
        "time": 70.75,
        "duration": 0.25,
        "velocity": 0.71,
        "hand": "right"
      },
      {
        "midi": 73,
        "time": 71,
        "duration": 1,
        "velocity": 0.71,
        "hand": "right"
      },
      {
        "midi": 85,
        "time": 71,
        "duration": 0.875,
        "velocity": 0.71,
        "hand": "right"
      },
      {
        "midi": 76,
        "time": 71.25,
        "duration": 0.25,
        "velocity": 0.71,
        "hand": "right"
      },
      {
        "midi": 82,
        "time": 71.5,
        "duration": 0.25,
        "velocity": 0.71,
        "hand": "right"
      },
      {
        "midi": 80,
        "time": 71.75,
        "duration": 0.25,
        "velocity": 0.71,
        "hand": "right"
      },
      {
        "midi": 85,
        "time": 71.875,
        "duration": 0.125,
        "velocity": 0.71,
        "hand": "right"
      },
      {
        "midi": 30,
        "time": 72,
        "duration": 0.25,
        "velocity": 0.71,
        "hand": "left"
      },
      {
        "midi": 73,
        "time": 72,
        "duration": 2,
        "velocity": 0.71,
        "hand": "right"
      },
      {
        "midi": 76,
        "time": 72,
        "duration": 2,
        "velocity": 0.71,
        "hand": "right"
      },
      {
        "midi": 80,
        "time": 72,
        "duration": 1.75,
        "velocity": 0.71,
        "hand": "right"
      },
      {
        "midi": 85,
        "time": 72,
        "duration": 2,
        "velocity": 0.71,
        "hand": "right"
      },
      {
        "midi": 42,
        "time": 72.25,
        "duration": 0.25,
        "velocity": 0.71,
        "hand": "left"
      },
      {
        "midi": 49,
        "time": 72.5,
        "duration": 0.25,
        "velocity": 0.71,
        "hand": "left"
      },
      {
        "midi": 58,
        "time": 72.75,
        "duration": 0.25,
        "velocity": 0.71,
        "hand": "left"
      },
      {
        "midi": 56,
        "time": 73,
        "duration": 0.25,
        "velocity": 0.71,
        "hand": "left"
      },
      {
        "midi": 54,
        "time": 73.25,
        "duration": 0.25,
        "velocity": 0.71,
        "hand": "left"
      },
      {
        "midi": 61,
        "time": 73.5,
        "duration": 0.25,
        "velocity": 0.71,
        "hand": "right"
      },
      {
        "midi": 70,
        "time": 73.75,
        "duration": 0.25,
        "velocity": 0.71,
        "hand": "right"
      },
      {
        "midi": 78,
        "time": 73.75,
        "duration": 0.25,
        "velocity": 0.71,
        "hand": "right"
      },
      {
        "midi": 68,
        "time": 74,
        "duration": 0.25,
        "velocity": 0.71,
        "hand": "right"
      },
      {
        "midi": 66,
        "time": 74.25,
        "duration": 0.25,
        "velocity": 0.71,
        "hand": "right"
      },
      {
        "midi": 70,
        "time": 74.5,
        "duration": 0.25,
        "velocity": 0.71,
        "hand": "right"
      },
      {
        "midi": 71,
        "time": 74.75,
        "duration": 0.25,
        "velocity": 0.71,
        "hand": "right"
      },
      {
        "midi": 73,
        "time": 75,
        "duration": 0.75,
        "velocity": 0.71,
        "hand": "right"
      },
      {
        "midi": 85,
        "time": 75,
        "duration": 0.75,
        "velocity": 0.71,
        "hand": "right"
      },
      {
        "midi": 76,
        "time": 75.25,
        "duration": 0.25,
        "velocity": 0.71,
        "hand": "right"
      },
      {
        "midi": 82,
        "time": 75.5,
        "duration": 0.25,
        "velocity": 0.71,
        "hand": "right"
      },
      {
        "midi": 40,
        "time": 75.75,
        "duration": 0.5,
        "velocity": 0.71,
        "hand": "left"
      },
      {
        "midi": 74,
        "time": 75.75,
        "duration": 0.25,
        "velocity": 0.71,
        "hand": "right"
      },
      {
        "midi": 80,
        "time": 75.75,
        "duration": 0.25,
        "velocity": 0.71,
        "hand": "right"
      },
      {
        "midi": 86,
        "time": 75.75,
        "duration": 0.25,
        "velocity": 0.71,
        "hand": "right"
      },
      {
        "midi": 75,
        "time": 76,
        "duration": 1,
        "velocity": 0.71,
        "hand": "right"
      },
      {
        "midi": 79,
        "time": 76,
        "duration": 1,
        "velocity": 0.71,
        "hand": "right"
      },
      {
        "midi": 87,
        "time": 76,
        "duration": 1,
        "velocity": 0.71,
        "hand": "right"
      },
      {
        "midi": 39,
        "time": 76.25,
        "duration": 0.25,
        "velocity": 0.71,
        "hand": "left"
      },
      {
        "midi": 46,
        "time": 76.5,
        "duration": 0.25,
        "velocity": 0.71,
        "hand": "left"
      },
      {
        "midi": 55,
        "time": 76.75,
        "duration": 0.25,
        "velocity": 0.71,
        "hand": "left"
      },
      {
        "midi": 53,
        "time": 77,
        "duration": 0.25,
        "velocity": 0.71,
        "hand": "left"
      },
      {
        "midi": 70,
        "time": 77,
        "duration": 0.5,
        "velocity": 0.71,
        "hand": "right"
      },
      {
        "midi": 79,
        "time": 77,
        "duration": 0.5,
        "velocity": 0.71,
        "hand": "right"
      },
      {
        "midi": 82,
        "time": 77,
        "duration": 0.5,
        "velocity": 0.71,
        "hand": "right"
      },
      {
        "midi": 51,
        "time": 77.25,
        "duration": 0.25,
        "velocity": 0.71,
        "hand": "left"
      },
      {
        "midi": 58,
        "time": 77.5,
        "duration": 0.25,
        "velocity": 0.71,
        "hand": "left"
      },
      {
        "midi": 67,
        "time": 77.75,
        "duration": 0.25,
        "velocity": 0.71,
        "hand": "right"
      },
      {
        "midi": 65,
        "time": 78,
        "duration": 0.25,
        "velocity": 0.71,
        "hand": "right"
      },
      {
        "midi": 63,
        "time": 78.25,
        "duration": 0.25,
        "velocity": 0.71,
        "hand": "right"
      },
      {
        "midi": 67,
        "time": 78.5,
        "duration": 0.25,
        "velocity": 0.71,
        "hand": "right"
      },
      {
        "midi": 68,
        "time": 78.75,
        "duration": 0.25,
        "velocity": 0.71,
        "hand": "right"
      },
      {
        "midi": 70,
        "time": 79,
        "duration": 1,
        "velocity": 0.71,
        "hand": "right"
      },
      {
        "midi": 82,
        "time": 79,
        "duration": 0.875,
        "velocity": 0.71,
        "hand": "right"
      },
      {
        "midi": 75,
        "time": 79.25,
        "duration": 0.25,
        "velocity": 0.71,
        "hand": "right"
      },
      {
        "midi": 79,
        "time": 79.5,
        "duration": 0.25,
        "velocity": 0.71,
        "hand": "right"
      },
      {
        "midi": 77,
        "time": 79.75,
        "duration": 0.25,
        "velocity": 0.71,
        "hand": "right"
      },
      {
        "midi": 82,
        "time": 79.875,
        "duration": 0.125,
        "velocity": 0.71,
        "hand": "right"
      },
      {
        "midi": 27,
        "time": 80,
        "duration": 0.25,
        "velocity": 0.71,
        "hand": "left"
      },
      {
        "midi": 70,
        "time": 80,
        "duration": 2,
        "velocity": 0.71,
        "hand": "right"
      },
      {
        "midi": 77,
        "time": 80,
        "duration": 1.75,
        "velocity": 0.71,
        "hand": "right"
      },
      {
        "midi": 79,
        "time": 80,
        "duration": 2,
        "velocity": 0.71,
        "hand": "right"
      },
      {
        "midi": 82,
        "time": 80,
        "duration": 2,
        "velocity": 0.71,
        "hand": "right"
      },
      {
        "midi": 39,
        "time": 80.25,
        "duration": 0.25,
        "velocity": 0.71,
        "hand": "left"
      },
      {
        "midi": 46,
        "time": 80.5,
        "duration": 0.25,
        "velocity": 0.71,
        "hand": "left"
      },
      {
        "midi": 55,
        "time": 80.75,
        "duration": 0.25,
        "velocity": 0.71,
        "hand": "left"
      },
      {
        "midi": 53,
        "time": 81,
        "duration": 0.25,
        "velocity": 0.71,
        "hand": "left"
      },
      {
        "midi": 51,
        "time": 81.25,
        "duration": 0.25,
        "velocity": 0.71,
        "hand": "left"
      },
      {
        "midi": 58,
        "time": 81.5,
        "duration": 0.25,
        "velocity": 0.71,
        "hand": "left"
      },
      {
        "midi": 67,
        "time": 81.75,
        "duration": 0.25,
        "velocity": 0.71,
        "hand": "right"
      },
      {
        "midi": 75,
        "time": 81.75,
        "duration": 0.25,
        "velocity": 0.71,
        "hand": "right"
      },
      {
        "midi": 65,
        "time": 82,
        "duration": 0.25,
        "velocity": 0.71,
        "hand": "right"
      },
      {
        "midi": 63,
        "time": 82.25,
        "duration": 0.25,
        "velocity": 0.71,
        "hand": "right"
      },
      {
        "midi": 67,
        "time": 82.5,
        "duration": 0.25,
        "velocity": 0.71,
        "hand": "right"
      },
      {
        "midi": 68,
        "time": 82.75,
        "duration": 0.25,
        "velocity": 0.71,
        "hand": "right"
      },
      {
        "midi": 70,
        "time": 83,
        "duration": 0.75,
        "velocity": 0.71,
        "hand": "right"
      },
      {
        "midi": 82,
        "time": 83,
        "duration": 0.75,
        "velocity": 0.71,
        "hand": "right"
      },
      {
        "midi": 75,
        "time": 83.25,
        "duration": 0.25,
        "velocity": 0.71,
        "hand": "right"
      },
      {
        "midi": 79,
        "time": 83.5,
        "duration": 0.5,
        "velocity": 0.71,
        "hand": "right"
      },
      {
        "midi": 71,
        "time": 83.75,
        "duration": 0.25,
        "velocity": 0.71,
        "hand": "right"
      },
      {
        "midi": 83,
        "time": 83.75,
        "duration": 0.25,
        "velocity": 0.71,
        "hand": "right"
      },
      {
        "midi": 32,
        "time": 84,
        "duration": 0.25,
        "velocity": 0.71,
        "hand": "left"
      },
      {
        "midi": 71,
        "time": 84,
        "duration": 0.5,
        "velocity": 0.71,
        "hand": "right"
      },
      {
        "midi": 75,
        "time": 84,
        "duration": 1,
        "velocity": 0.71,
        "hand": "right"
      },
      {
        "midi": 79,
        "time": 84,
        "duration": 0.5,
        "velocity": 0.71,
        "hand": "right"
      },
      {
        "midi": 83,
        "time": 84,
        "duration": 0.5,
        "velocity": 0.71,
        "hand": "right"
      },
      {
        "midi": 44,
        "time": 84.25,
        "duration": 0.25,
        "velocity": 0.71,
        "hand": "left"
      },
      {
        "midi": 51,
        "time": 84.5,
        "duration": 0.25,
        "velocity": 0.71,
        "hand": "left"
      },
      {
        "midi": 72,
        "time": 84.5,
        "duration": 0.5,
        "velocity": 0.71,
        "hand": "right"
      },
      {
        "midi": 80,
        "time": 84.5,
        "duration": 0.5,
        "velocity": 0.71,
        "hand": "right"
      },
      {
        "midi": 84,
        "time": 84.5,
        "duration": 0.5,
        "velocity": 0.71,
        "hand": "right"
      },
      {
        "midi": 60,
        "time": 84.75,
        "duration": 0.25,
        "velocity": 0.71,
        "hand": "right"
      },
      {
        "midi": 58,
        "time": 85,
        "duration": 0.25,
        "velocity": 0.71,
        "hand": "left"
      },
      {
        "midi": 56,
        "time": 85.25,
        "duration": 0.25,
        "velocity": 0.71,
        "hand": "left"
      },
      {
        "midi": 63,
        "time": 85.5,
        "duration": 0.25,
        "velocity": 0.71,
        "hand": "right"
      },
      {
        "midi": 72,
        "time": 85.75,
        "duration": 0.25,
        "velocity": 0.71,
        "hand": "right"
      },
      {
        "midi": 70,
        "time": 86,
        "duration": 0.25,
        "velocity": 0.71,
        "hand": "right"
      },
      {
        "midi": 68,
        "time": 86.25,
        "duration": 0.25,
        "velocity": 0.71,
        "hand": "right"
      },
      {
        "midi": 72,
        "time": 86.5,
        "duration": 0.25,
        "velocity": 0.71,
        "hand": "right"
      },
      {
        "midi": 73,
        "time": 86.75,
        "duration": 0.25,
        "velocity": 0.71,
        "hand": "right"
      },
      {
        "midi": 75,
        "time": 87,
        "duration": 1,
        "velocity": 0.71,
        "hand": "right"
      },
      {
        "midi": 87,
        "time": 87,
        "duration": 0.875,
        "velocity": 0.71,
        "hand": "right"
      },
      {
        "midi": 78,
        "time": 87.25,
        "duration": 0.25,
        "velocity": 0.71,
        "hand": "right"
      },
      {
        "midi": 84,
        "time": 87.5,
        "duration": 0.25,
        "velocity": 0.71,
        "hand": "right"
      },
      {
        "midi": 82,
        "time": 87.75,
        "duration": 0.25,
        "velocity": 0.71,
        "hand": "right"
      },
      {
        "midi": 87,
        "time": 87.875,
        "duration": 0.125,
        "velocity": 0.71,
        "hand": "right"
      },
      {
        "midi": 32,
        "time": 88,
        "duration": 0.25,
        "velocity": 0.71,
        "hand": "left"
      },
      {
        "midi": 75,
        "time": 88,
        "duration": 2,
        "velocity": 0.71,
        "hand": "right"
      },
      {
        "midi": 78,
        "time": 88,
        "duration": 2,
        "velocity": 0.71,
        "hand": "right"
      },
      {
        "midi": 82,
        "time": 88,
        "duration": 1.75,
        "velocity": 0.71,
        "hand": "right"
      },
      {
        "midi": 87,
        "time": 88,
        "duration": 2,
        "velocity": 0.71,
        "hand": "right"
      },
      {
        "midi": 44,
        "time": 88.25,
        "duration": 0.25,
        "velocity": 0.71,
        "hand": "left"
      },
      {
        "midi": 51,
        "time": 88.5,
        "duration": 0.25,
        "velocity": 0.71,
        "hand": "left"
      },
      {
        "midi": 60,
        "time": 88.75,
        "duration": 0.25,
        "velocity": 0.71,
        "hand": "right"
      },
      {
        "midi": 58,
        "time": 89,
        "duration": 0.25,
        "velocity": 0.71,
        "hand": "left"
      },
      {
        "midi": 56,
        "time": 89.25,
        "duration": 0.25,
        "velocity": 0.71,
        "hand": "left"
      },
      {
        "midi": 63,
        "time": 89.5,
        "duration": 0.25,
        "velocity": 0.71,
        "hand": "right"
      },
      {
        "midi": 72,
        "time": 89.75,
        "duration": 0.25,
        "velocity": 0.71,
        "hand": "right"
      },
      {
        "midi": 80,
        "time": 89.75,
        "duration": 0.25,
        "velocity": 0.71,
        "hand": "right"
      },
      {
        "midi": 70,
        "time": 90,
        "duration": 0.25,
        "velocity": 0.71,
        "hand": "right"
      },
      {
        "midi": 68,
        "time": 90.25,
        "duration": 0.25,
        "velocity": 0.71,
        "hand": "right"
      },
      {
        "midi": 72,
        "time": 90.5,
        "duration": 0.25,
        "velocity": 0.71,
        "hand": "right"
      },
      {
        "midi": 73,
        "time": 90.75,
        "duration": 0.25,
        "velocity": 0.71,
        "hand": "right"
      },
      {
        "midi": 75,
        "time": 91,
        "duration": 0.75,
        "velocity": 0.71,
        "hand": "right"
      },
      {
        "midi": 87,
        "time": 91,
        "duration": 0.75,
        "velocity": 0.71,
        "hand": "right"
      },
      {
        "midi": 78,
        "time": 91.25,
        "duration": 0.25,
        "velocity": 0.71,
        "hand": "right"
      },
      {
        "midi": 84,
        "time": 91.5,
        "duration": 0.25,
        "velocity": 0.71,
        "hand": "right"
      },
      {
        "midi": 42,
        "time": 91.75,
        "duration": 0.5,
        "velocity": 0.71,
        "hand": "left"
      },
      {
        "midi": 76,
        "time": 91.75,
        "duration": 0.25,
        "velocity": 0.71,
        "hand": "right"
      },
      {
        "midi": 82,
        "time": 91.75,
        "duration": 0.25,
        "velocity": 0.71,
        "hand": "right"
      },
      {
        "midi": 88,
        "time": 91.75,
        "duration": 0.25,
        "velocity": 0.71,
        "hand": "right"
      },
      {
        "midi": 77,
        "time": 92,
        "duration": 1,
        "velocity": 0.71,
        "hand": "right"
      },
      {
        "midi": 81,
        "time": 92,
        "duration": 1,
        "velocity": 0.71,
        "hand": "right"
      },
      {
        "midi": 89,
        "time": 92,
        "duration": 1,
        "velocity": 0.71,
        "hand": "right"
      },
      {
        "midi": 41,
        "time": 92.25,
        "duration": 0.25,
        "velocity": 0.71,
        "hand": "left"
      },
      {
        "midi": 48,
        "time": 92.5,
        "duration": 0.25,
        "velocity": 0.71,
        "hand": "left"
      },
      {
        "midi": 57,
        "time": 92.75,
        "duration": 0.25,
        "velocity": 0.71,
        "hand": "left"
      },
      {
        "midi": 55,
        "time": 93,
        "duration": 0.25,
        "velocity": 0.71,
        "hand": "left"
      },
      {
        "midi": 72,
        "time": 93,
        "duration": 0.5,
        "velocity": 0.71,
        "hand": "right"
      },
      {
        "midi": 81,
        "time": 93,
        "duration": 0.5,
        "velocity": 0.71,
        "hand": "right"
      },
      {
        "midi": 84,
        "time": 93,
        "duration": 0.5,
        "velocity": 0.71,
        "hand": "right"
      },
      {
        "midi": 53,
        "time": 93.25,
        "duration": 0.25,
        "velocity": 0.71,
        "hand": "left"
      },
      {
        "midi": 60,
        "time": 93.5,
        "duration": 0.25,
        "velocity": 0.71,
        "hand": "right"
      },
      {
        "midi": 69,
        "time": 93.75,
        "duration": 0.25,
        "velocity": 0.71,
        "hand": "right"
      },
      {
        "midi": 67,
        "time": 94,
        "duration": 0.25,
        "velocity": 0.71,
        "hand": "right"
      },
      {
        "midi": 65,
        "time": 94.25,
        "duration": 0.25,
        "velocity": 0.71,
        "hand": "right"
      },
      {
        "midi": 69,
        "time": 94.5,
        "duration": 0.25,
        "velocity": 0.71,
        "hand": "right"
      },
      {
        "midi": 70,
        "time": 94.75,
        "duration": 0.25,
        "velocity": 0.71,
        "hand": "right"
      },
      {
        "midi": 72,
        "time": 95,
        "duration": 1,
        "velocity": 0.71,
        "hand": "right"
      },
      {
        "midi": 84,
        "time": 95,
        "duration": 0.875,
        "velocity": 0.71,
        "hand": "right"
      },
      {
        "midi": 77,
        "time": 95.25,
        "duration": 0.25,
        "velocity": 0.71,
        "hand": "right"
      },
      {
        "midi": 81,
        "time": 95.5,
        "duration": 0.25,
        "velocity": 0.71,
        "hand": "right"
      },
      {
        "midi": 79,
        "time": 95.75,
        "duration": 0.25,
        "velocity": 0.71,
        "hand": "right"
      },
      {
        "midi": 84,
        "time": 95.875,
        "duration": 0.125,
        "velocity": 0.71,
        "hand": "right"
      },
      {
        "midi": 29,
        "time": 96,
        "duration": 0.25,
        "velocity": 0.71,
        "hand": "left"
      },
      {
        "midi": 72,
        "time": 96,
        "duration": 2,
        "velocity": 0.71,
        "hand": "right"
      },
      {
        "midi": 79,
        "time": 96,
        "duration": 1.75,
        "velocity": 0.71,
        "hand": "right"
      },
      {
        "midi": 81,
        "time": 96,
        "duration": 2,
        "velocity": 0.71,
        "hand": "right"
      },
      {
        "midi": 84,
        "time": 96,
        "duration": 2,
        "velocity": 0.71,
        "hand": "right"
      },
      {
        "midi": 41,
        "time": 96.25,
        "duration": 0.25,
        "velocity": 0.71,
        "hand": "left"
      },
      {
        "midi": 48,
        "time": 96.5,
        "duration": 0.25,
        "velocity": 0.71,
        "hand": "left"
      },
      {
        "midi": 57,
        "time": 96.75,
        "duration": 0.25,
        "velocity": 0.71,
        "hand": "left"
      },
      {
        "midi": 55,
        "time": 97,
        "duration": 0.25,
        "velocity": 0.71,
        "hand": "left"
      },
      {
        "midi": 53,
        "time": 97.25,
        "duration": 0.25,
        "velocity": 0.71,
        "hand": "left"
      },
      {
        "midi": 60,
        "time": 97.5,
        "duration": 0.25,
        "velocity": 0.71,
        "hand": "right"
      },
      {
        "midi": 69,
        "time": 97.75,
        "duration": 0.25,
        "velocity": 0.71,
        "hand": "right"
      },
      {
        "midi": 77,
        "time": 97.75,
        "duration": 0.25,
        "velocity": 0.71,
        "hand": "right"
      },
      {
        "midi": 67,
        "time": 98,
        "duration": 0.25,
        "velocity": 0.71,
        "hand": "right"
      },
      {
        "midi": 65,
        "time": 98.25,
        "duration": 0.25,
        "velocity": 0.71,
        "hand": "right"
      },
      {
        "midi": 69,
        "time": 98.5,
        "duration": 0.25,
        "velocity": 0.71,
        "hand": "right"
      },
      {
        "midi": 70,
        "time": 98.75,
        "duration": 0.25,
        "velocity": 0.71,
        "hand": "right"
      },
      {
        "midi": 72,
        "time": 99,
        "duration": 0.75,
        "velocity": 0.71,
        "hand": "right"
      },
      {
        "midi": 84,
        "time": 99,
        "duration": 0.75,
        "velocity": 0.71,
        "hand": "right"
      },
      {
        "midi": 77,
        "time": 99.25,
        "duration": 0.25,
        "velocity": 0.71,
        "hand": "right"
      },
      {
        "midi": 81,
        "time": 99.5,
        "duration": 0.5,
        "velocity": 0.71,
        "hand": "right"
      },
      {
        "midi": 73,
        "time": 99.75,
        "duration": 0.25,
        "velocity": 0.71,
        "hand": "right"
      },
      {
        "midi": 85,
        "time": 99.75,
        "duration": 0.25,
        "velocity": 0.71,
        "hand": "right"
      },
      {
        "midi": 28,
        "time": 100,
        "duration": 0.25,
        "velocity": 0.71,
        "hand": "left"
      },
      {
        "midi": 73,
        "time": 100,
        "duration": 2,
        "velocity": 0.71,
        "hand": "right"
      },
      {
        "midi": 76,
        "time": 100,
        "duration": 2,
        "velocity": 0.71,
        "hand": "right"
      },
      {
        "midi": 81,
        "time": 100,
        "duration": 2,
        "velocity": 0.71,
        "hand": "right"
      },
      {
        "midi": 85,
        "time": 100,
        "duration": 2,
        "velocity": 0.71,
        "hand": "right"
      },
      {
        "midi": 40,
        "time": 100.25,
        "duration": 0.25,
        "velocity": 0.71,
        "hand": "left"
      },
      {
        "midi": 45,
        "time": 100.5,
        "duration": 0.25,
        "velocity": 0.71,
        "hand": "left"
      },
      {
        "midi": 52,
        "time": 100.75,
        "duration": 0.25,
        "velocity": 0.71,
        "hand": "left"
      },
      {
        "midi": 54,
        "time": 101,
        "duration": 0.25,
        "velocity": 0.71,
        "hand": "left"
      },
      {
        "midi": 52,
        "time": 101.25,
        "duration": 0.25,
        "velocity": 0.71,
        "hand": "left"
      },
      {
        "midi": 61,
        "time": 101.5,
        "duration": 0.25,
        "velocity": 0.71,
        "hand": "right"
      },
      {
        "midi": 69,
        "time": 101.75,
        "duration": 0.25,
        "velocity": 0.71,
        "hand": "right"
      },
      {
        "midi": 71,
        "time": 102,
        "duration": 0.5,
        "velocity": 0.71,
        "hand": "right"
      },
      {
        "midi": 78,
        "time": 102,
        "duration": 1,
        "velocity": 0.71,
        "hand": "right"
      },
      {
        "midi": 83,
        "time": 102,
        "duration": 0.5,
        "velocity": 0.71,
        "hand": "right"
      },
      {
        "midi": 39,
        "time": 102.25,
        "duration": 0.25,
        "velocity": 0.71,
        "hand": "left"
      },
      {
        "midi": 47,
        "time": 102.5,
        "duration": 0.25,
        "velocity": 0.71,
        "hand": "left"
      },
      {
        "midi": 69,
        "time": 102.5,
        "duration": 0.5,
        "velocity": 0.71,
        "hand": "right"
      },
      {
        "midi": 81,
        "time": 102.5,
        "duration": 0.5,
        "velocity": 0.71,
        "hand": "right"
      },
      {
        "midi": 54,
        "time": 102.75,
        "duration": 0.25,
        "velocity": 0.71,
        "hand": "left"
      },
      {
        "midi": 61,
        "time": 103,
        "duration": 0.5,
        "velocity": 0.71,
        "hand": "right"
      },
      {
        "midi": 66,
        "time": 103,
        "duration": 0.5,
        "velocity": 0.71,
        "hand": "right"
      },
      {
        "midi": 69,
        "time": 103,
        "duration": 0.5,
        "velocity": 0.71,
        "hand": "right"
      },
      {
        "midi": 71,
        "time": 103,
        "duration": 0.5,
        "velocity": 0.71,
        "hand": "right"
      },
      {
        "midi": 78,
        "time": 103,
        "duration": 0.5,
        "velocity": 0.71,
        "hand": "right"
      },
      {
        "midi": 51,
        "time": 103.25,
        "duration": 0.25,
        "velocity": 0.71,
        "hand": "left"
      },
      {
        "midi": 59,
        "time": 103.5,
        "duration": 0.5,
        "velocity": 0.71,
        "hand": "left"
      },
      {
        "midi": 69,
        "time": 103.5,
        "duration": 0.25,
        "velocity": 0.71,
        "hand": "right"
      },
      {
        "midi": 71,
        "time": 103.5,
        "duration": 0.5,
        "velocity": 0.71,
        "hand": "right"
      },
      {
        "midi": 81,
        "time": 103.5,
        "duration": 0.5,
        "velocity": 0.71,
        "hand": "right"
      },
      {
        "midi": 69,
        "time": 103.75,
        "duration": 0.25,
        "velocity": 0.71,
        "hand": "right"
      },
      {
        "midi": 64,
        "time": 104,
        "duration": 2,
        "velocity": 0.71,
        "hand": "right"
      },
      {
        "midi": 69,
        "time": 104,
        "duration": 2,
        "velocity": 0.71,
        "hand": "right"
      },
      {
        "midi": 73,
        "time": 104,
        "duration": 2,
        "velocity": 0.71,
        "hand": "right"
      },
      {
        "midi": 76,
        "time": 104,
        "duration": 2,
        "velocity": 0.71,
        "hand": "right"
      },
      {
        "midi": 40,
        "time": 104.25,
        "duration": 0.25,
        "velocity": 0.71,
        "hand": "left"
      },
      {
        "midi": 45,
        "time": 104.5,
        "duration": 0.25,
        "velocity": 0.71,
        "hand": "left"
      },
      {
        "midi": 52,
        "time": 104.75,
        "duration": 0.25,
        "velocity": 0.71,
        "hand": "left"
      },
      {
        "midi": 54,
        "time": 105,
        "duration": 0.25,
        "velocity": 0.71,
        "hand": "left"
      },
      {
        "midi": 52,
        "time": 105.25,
        "duration": 0.25,
        "velocity": 0.71,
        "hand": "left"
      },
      {
        "midi": 62,
        "time": 105.5,
        "duration": 0.25,
        "velocity": 0.71,
        "hand": "right"
      },
      {
        "midi": 61,
        "time": 105.75,
        "duration": 0.25,
        "velocity": 0.71,
        "hand": "right"
      },
      {
        "midi": 28,
        "time": 106,
        "duration": 0.25,
        "velocity": 0.71,
        "hand": "left"
      },
      {
        "midi": 62,
        "time": 106,
        "duration": 2,
        "velocity": 0.71,
        "hand": "right"
      },
      {
        "midi": 64,
        "time": 106,
        "duration": 2,
        "velocity": 0.71,
        "hand": "right"
      },
      {
        "midi": 68,
        "time": 106,
        "duration": 2,
        "velocity": 0.71,
        "hand": "right"
      },
      {
        "midi": 73,
        "time": 106,
        "duration": 1.75,
        "velocity": 0.71,
        "hand": "right"
      },
      {
        "midi": 76,
        "time": 106,
        "duration": 1.75,
        "velocity": 0.71,
        "hand": "right"
      },
      {
        "midi": 40,
        "time": 106.25,
        "duration": 0.25,
        "velocity": 0.71,
        "hand": "left"
      },
      {
        "midi": 47,
        "time": 106.5,
        "duration": 0.25,
        "velocity": 0.71,
        "hand": "left"
      },
      {
        "midi": 52,
        "time": 106.75,
        "duration": 0.25,
        "velocity": 0.71,
        "hand": "left"
      },
      {
        "midi": 54,
        "time": 107,
        "duration": 0.25,
        "velocity": 0.71,
        "hand": "left"
      },
      {
        "midi": 52,
        "time": 107.25,
        "duration": 0.25,
        "velocity": 0.71,
        "hand": "left"
      },
      {
        "midi": 61,
        "time": 107.5,
        "duration": 0.25,
        "velocity": 0.71,
        "hand": "right"
      },
      {
        "midi": 59,
        "time": 107.75,
        "duration": 0.25,
        "velocity": 0.71,
        "hand": "left"
      },
      {
        "midi": 74,
        "time": 107.75,
        "duration": 0.25,
        "velocity": 0.71,
        "hand": "right"
      },
      {
        "midi": 29,
        "time": 108,
        "duration": 0.25,
        "velocity": 0.71,
        "hand": "left"
      },
      {
        "midi": 62,
        "time": 108,
        "duration": 0.5,
        "velocity": 0.71,
        "hand": "right"
      },
      {
        "midi": 68,
        "time": 108,
        "duration": 0.5,
        "velocity": 0.71,
        "hand": "right"
      },
      {
        "midi": 74,
        "time": 108,
        "duration": 0.5,
        "velocity": 0.71,
        "hand": "right"
      },
      {
        "midi": 41,
        "time": 108.25,
        "duration": 0.25,
        "velocity": 0.71,
        "hand": "left"
      },
      {
        "midi": 48,
        "time": 108.5,
        "duration": 0.25,
        "velocity": 0.71,
        "hand": "left"
      },
      {
        "midi": 60,
        "time": 108.5,
        "duration": 1,
        "velocity": 0.71,
        "hand": "right"
      },
      {
        "midi": 69,
        "time": 108.5,
        "duration": 1,
        "velocity": 0.71,
        "hand": "right"
      },
      {
        "midi": 72,
        "time": 108.5,
        "duration": 1,
        "velocity": 0.71,
        "hand": "right"
      },
      {
        "midi": 57,
        "time": 108.75,
        "duration": 0.25,
        "velocity": 0.71,
        "hand": "left"
      },
      {
        "midi": 55,
        "time": 109,
        "duration": 0.25,
        "velocity": 0.71,
        "hand": "left"
      },
      {
        "midi": 53,
        "time": 109.25,
        "duration": 0.25,
        "velocity": 0.71,
        "hand": "left"
      },
      {
        "midi": 60,
        "time": 109.5,
        "duration": 0.25,
        "velocity": 0.71,
        "hand": "right"
      },
      {
        "midi": 69,
        "time": 109.5,
        "duration": 0.25,
        "velocity": 0.71,
        "hand": "right"
      },
      {
        "midi": 72,
        "time": 109.5,
        "duration": 0.5,
        "velocity": 0.71,
        "hand": "right"
      },
      {
        "midi": 81,
        "time": 109.5,
        "duration": 0.5,
        "velocity": 0.71,
        "hand": "right"
      },
      {
        "midi": 69,
        "time": 109.75,
        "duration": 0.25,
        "velocity": 0.71,
        "hand": "right"
      },
      {
        "midi": 67,
        "time": 110,
        "duration": 0.5,
        "velocity": 0.71,
        "hand": "right"
      },
      {
        "midi": 70,
        "time": 110,
        "duration": 1,
        "velocity": 0.71,
        "hand": "right"
      },
      {
        "midi": 74,
        "time": 110,
        "duration": 1,
        "velocity": 0.71,
        "hand": "right"
      },
      {
        "midi": 79,
        "time": 110,
        "duration": 0.5,
        "velocity": 0.71,
        "hand": "right"
      },
      {
        "midi": 34,
        "time": 110.25,
        "duration": 0.25,
        "velocity": 0.71,
        "hand": "left"
      },
      {
        "midi": 41,
        "time": 110.5,
        "duration": 0.25,
        "velocity": 0.71,
        "hand": "left"
      },
      {
        "midi": 65,
        "time": 110.5,
        "duration": 0.5,
        "velocity": 0.71,
        "hand": "right"
      },
      {
        "midi": 77,
        "time": 110.5,
        "duration": 0.5,
        "velocity": 0.71,
        "hand": "right"
      },
      {
        "midi": 50,
        "time": 110.75,
        "duration": 0.25,
        "velocity": 0.71,
        "hand": "left"
      },
      {
        "midi": 48,
        "time": 111,
        "duration": 0.25,
        "velocity": 0.71,
        "hand": "left"
      },
      {
        "midi": 62,
        "time": 111,
        "duration": 0.5,
        "velocity": 0.71,
        "hand": "right"
      },
      {
        "midi": 70,
        "time": 111,
        "duration": 0.5,
        "velocity": 0.71,
        "hand": "right"
      },
      {
        "midi": 74,
        "time": 111,
        "duration": 0.5,
        "velocity": 0.71,
        "hand": "right"
      },
      {
        "midi": 46,
        "time": 111.25,
        "duration": 0.25,
        "velocity": 0.71,
        "hand": "left"
      },
      {
        "midi": 53,
        "time": 111.5,
        "duration": 0.25,
        "velocity": 0.71,
        "hand": "left"
      },
      {
        "midi": 65,
        "time": 111.5,
        "duration": 0.5,
        "velocity": 0.71,
        "hand": "right"
      },
      {
        "midi": 74,
        "time": 111.5,
        "duration": 0.5,
        "velocity": 0.71,
        "hand": "right"
      },
      {
        "midi": 77,
        "time": 111.5,
        "duration": 0.5,
        "velocity": 0.71,
        "hand": "right"
      },
      {
        "midi": 62,
        "time": 111.75,
        "duration": 0.25,
        "velocity": 0.71,
        "hand": "right"
      },
      {
        "midi": 36,
        "time": 112,
        "duration": 0.25,
        "velocity": 0.71,
        "hand": "left"
      },
      {
        "midi": 60,
        "time": 112,
        "duration": 1,
        "velocity": 0.71,
        "hand": "right"
      },
      {
        "midi": 65,
        "time": 112,
        "duration": 1,
        "velocity": 0.71,
        "hand": "right"
      },
      {
        "midi": 69,
        "time": 112,
        "duration": 1,
        "velocity": 0.71,
        "hand": "right"
      },
      {
        "midi": 72,
        "time": 112,
        "duration": 1,
        "velocity": 0.71,
        "hand": "right"
      },
      {
        "midi": 48,
        "time": 112.25,
        "duration": 0.25,
        "velocity": 0.71,
        "hand": "left"
      },
      {
        "midi": 53,
        "time": 112.5,
        "duration": 0.25,
        "velocity": 0.71,
        "hand": "left"
      },
      {
        "midi": 57,
        "time": 112.75,
        "duration": 0.25,
        "velocity": 0.71,
        "hand": "left"
      },
      {
        "midi": 55,
        "time": 113,
        "duration": 0.25,
        "velocity": 0.71,
        "hand": "left"
      },
      {
        "midi": 62,
        "time": 113,
        "duration": 1,
        "velocity": 0.71,
        "hand": "right"
      },
      {
        "midi": 69,
        "time": 113,
        "duration": 1,
        "velocity": 0.71,
        "hand": "right"
      },
      {
        "midi": 72,
        "time": 113,
        "duration": 1,
        "velocity": 0.71,
        "hand": "right"
      },
      {
        "midi": 74,
        "time": 113,
        "duration": 1,
        "velocity": 0.71,
        "hand": "right"
      },
      {
        "midi": 54,
        "time": 113.25,
        "duration": 0.25,
        "velocity": 0.71,
        "hand": "left"
      },
      {
        "midi": 58,
        "time": 113.5,
        "duration": 0.25,
        "velocity": 0.71,
        "hand": "left"
      },
      {
        "midi": 57,
        "time": 113.75,
        "duration": 0.25,
        "velocity": 0.71,
        "hand": "left"
      },
      {
        "midi": 48,
        "time": 114,
        "duration": 2,
        "velocity": 0.71,
        "hand": "left"
      },
      {
        "midi": 62,
        "time": 114,
        "duration": 1.5,
        "velocity": 0.71,
        "hand": "right"
      },
      {
        "midi": 67,
        "time": 114,
        "duration": 1.5,
        "velocity": 0.71,
        "hand": "right"
      },
      {
        "midi": 70,
        "time": 114,
        "duration": 1.5,
        "velocity": 0.71,
        "hand": "right"
      },
      {
        "midi": 74,
        "time": 114,
        "duration": 1.5,
        "velocity": 0.71,
        "hand": "right"
      },
      {
        "midi": 54,
        "time": 114.25,
        "duration": 0.25,
        "velocity": 0.71,
        "hand": "left"
      },
      {
        "midi": 55,
        "time": 114.5,
        "duration": 0.25,
        "velocity": 0.71,
        "hand": "left"
      },
      {
        "midi": 58,
        "time": 114.75,
        "duration": 0.25,
        "velocity": 0.71,
        "hand": "left"
      },
      {
        "midi": 57,
        "time": 115,
        "duration": 0.25,
        "velocity": 0.71,
        "hand": "left"
      },
      {
        "midi": 55,
        "time": 115.25,
        "duration": 0.25,
        "velocity": 0.71,
        "hand": "left"
      },
      {
        "midi": 62,
        "time": 115.5,
        "duration": 0.25,
        "velocity": 0.71,
        "hand": "right"
      },
      {
        "midi": 64,
        "time": 115.5,
        "duration": 0.5,
        "velocity": 0.71,
        "hand": "right"
      },
      {
        "midi": 70,
        "time": 115.5,
        "duration": 0.5,
        "velocity": 0.71,
        "hand": "right"
      },
      {
        "midi": 72,
        "time": 115.5,
        "duration": 0.5,
        "velocity": 0.71,
        "hand": "right"
      },
      {
        "midi": 76,
        "time": 115.5,
        "duration": 0.5,
        "velocity": 0.71,
        "hand": "right"
      },
      {
        "midi": 60,
        "time": 115.75,
        "duration": 0.25,
        "velocity": 0.71,
        "hand": "right"
      },
      {
        "midi": 64,
        "time": 116,
        "duration": 0.75,
        "velocity": 0.71,
        "hand": "right"
      },
      {
        "midi": 69,
        "time": 116,
        "duration": 1,
        "velocity": 0.71,
        "hand": "right"
      },
      {
        "midi": 72,
        "time": 116,
        "duration": 1,
        "velocity": 0.71,
        "hand": "right"
      },
      {
        "midi": 76,
        "time": 116,
        "duration": 0.75,
        "velocity": 0.71,
        "hand": "right"
      },
      {
        "midi": 41,
        "time": 116.25,
        "duration": 0.25,
        "velocity": 0.71,
        "hand": "left"
      },
      {
        "midi": 48,
        "time": 116.5,
        "duration": 0.25,
        "velocity": 0.71,
        "hand": "left"
      },
      {
        "midi": 57,
        "time": 116.75,
        "duration": 0.25,
        "velocity": 0.71,
        "hand": "left"
      },
      {
        "midi": 65,
        "time": 116.75,
        "duration": 0.25,
        "velocity": 0.71,
        "hand": "right"
      },
      {
        "midi": 77,
        "time": 116.75,
        "duration": 0.25,
        "velocity": 0.71,
        "hand": "right"
      },
      {
        "midi": 55,
        "time": 117,
        "duration": 0.25,
        "velocity": 0.71,
        "hand": "left"
      },
      {
        "midi": 53,
        "time": 117.25,
        "duration": 0.25,
        "velocity": 0.71,
        "hand": "left"
      },
      {
        "midi": 60,
        "time": 117.5,
        "duration": 0.25,
        "velocity": 0.71,
        "hand": "right"
      },
      {
        "midi": 69,
        "time": 117.75,
        "duration": 0.25,
        "velocity": 0.71,
        "hand": "right"
      },
      {
        "midi": 65,
        "time": 118,
        "duration": 0.25,
        "velocity": 0.71,
        "hand": "right"
      },
      {
        "midi": 60,
        "time": 118.25,
        "duration": 0.25,
        "velocity": 0.71,
        "hand": "right"
      },
      {
        "midi": 57,
        "time": 118.5,
        "duration": 0.25,
        "velocity": 0.71,
        "hand": "left"
      },
      {
        "midi": 61,
        "time": 118.75,
        "duration": 0.25,
        "velocity": 0.71,
        "hand": "right"
      },
      {
        "midi": 60,
        "time": 119,
        "duration": 0.25,
        "velocity": 0.71,
        "hand": "right"
      },
      {
        "midi": 57,
        "time": 119.25,
        "duration": 0.25,
        "velocity": 0.71,
        "hand": "left"
      },
      {
        "midi": 53,
        "time": 119.5,
        "duration": 0.25,
        "velocity": 0.71,
        "hand": "left"
      },
      {
        "midi": 69,
        "time": 119.75,
        "duration": 0.25,
        "velocity": 0.71,
        "hand": "right"
      },
      {
        "midi": 65,
        "time": 120,
        "duration": 0.25,
        "velocity": 0.71,
        "hand": "right"
      },
      {
        "midi": 60,
        "time": 120.25,
        "duration": 0.25,
        "velocity": 0.71,
        "hand": "right"
      },
      {
        "midi": 57,
        "time": 120.5,
        "duration": 0.25,
        "velocity": 0.71,
        "hand": "left"
      },
      {
        "midi": 61,
        "time": 120.75,
        "duration": 0.25,
        "velocity": 0.71,
        "hand": "right"
      },
      {
        "midi": 60,
        "time": 121,
        "duration": 0.25,
        "velocity": 0.71,
        "hand": "right"
      },
      {
        "midi": 57,
        "time": 121.25,
        "duration": 0.25,
        "velocity": 0.71,
        "hand": "left"
      },
      {
        "midi": 53,
        "time": 121.5,
        "duration": 0.25,
        "velocity": 0.71,
        "hand": "left"
      },
      {
        "midi": 58,
        "time": 121.75,
        "duration": 0.25,
        "velocity": 0.71,
        "hand": "left"
      },
      {
        "midi": 57,
        "time": 122,
        "duration": 0.25,
        "velocity": 0.71,
        "hand": "left"
      },
      {
        "midi": 53,
        "time": 122.25,
        "duration": 0.25,
        "velocity": 0.71,
        "hand": "left"
      },
      {
        "midi": 48,
        "time": 122.5,
        "duration": 0.25,
        "velocity": 0.71,
        "hand": "left"
      },
      {
        "midi": 54,
        "time": 122.75,
        "duration": 0.25,
        "velocity": 0.71,
        "hand": "left"
      },
      {
        "midi": 53,
        "time": 123,
        "duration": 0.25,
        "velocity": 0.71,
        "hand": "left"
      },
      {
        "midi": 48,
        "time": 123.25,
        "duration": 0.25,
        "velocity": 0.71,
        "hand": "left"
      },
      {
        "midi": 45,
        "time": 123.5,
        "duration": 0.25,
        "velocity": 0.71,
        "hand": "left"
      },
      {
        "midi": 49,
        "time": 123.75,
        "duration": 0.25,
        "velocity": 0.71,
        "hand": "left"
      },
      {
        "midi": 41,
        "time": 124,
        "duration": 0.25,
        "velocity": 0.71,
        "hand": "left"
      },
      {
        "midi": 48,
        "time": 124.25,
        "duration": 0.25,
        "velocity": 0.71,
        "hand": "left"
      },
      {
        "midi": 57,
        "time": 124.5,
        "duration": 0.25,
        "velocity": 0.71,
        "hand": "left"
      },
      {
        "midi": 53,
        "time": 124.75,
        "duration": 1.25,
        "velocity": 0.71,
        "hand": "left"
      },
      {
        "midi": 65,
        "time": 125,
        "duration": 1,
        "velocity": 0.71,
        "hand": "right"
      },
      {
        "midi": 58,
        "time": 125.25,
        "duration": 0.25,
        "velocity": 0.71,
        "hand": "left"
      },
      {
        "midi": 59,
        "time": 125.5,
        "duration": 0.25,
        "velocity": 0.71,
        "hand": "left"
      },
      {
        "midi": 60,
        "time": 125.75,
        "duration": 0.25,
        "velocity": 0.71,
        "hand": "right"
      },
      {
        "midi": 61,
        "time": 125.75,
        "duration": 0.063,
        "velocity": 0.71,
        "hand": "right"
      },
      {
        "midi": 40,
        "time": 126,
        "duration": 0.25,
        "velocity": 0.71,
        "hand": "left"
      },
      {
        "midi": 49,
        "time": 126.25,
        "duration": 0.25,
        "velocity": 0.71,
        "hand": "left"
      },
      {
        "midi": 58,
        "time": 126.5,
        "duration": 0.25,
        "velocity": 0.71,
        "hand": "left"
      },
      {
        "midi": 54,
        "time": 126.75,
        "duration": 1.25,
        "velocity": 0.71,
        "hand": "left"
      },
      {
        "midi": 66,
        "time": 127,
        "duration": 1,
        "velocity": 0.71,
        "hand": "right"
      },
      {
        "midi": 59,
        "time": 127.25,
        "duration": 0.25,
        "velocity": 0.71,
        "hand": "left"
      },
      {
        "midi": 60,
        "time": 127.5,
        "duration": 0.25,
        "velocity": 0.71,
        "hand": "right"
      },
      {
        "midi": 61,
        "time": 127.75,
        "duration": 0.25,
        "velocity": 0.71,
        "hand": "right"
      },
      {
        "midi": 63,
        "time": 127.75,
        "duration": 0.063,
        "velocity": 0.71,
        "hand": "right"
      },
      {
        "midi": 39,
        "time": 128,
        "duration": 0.25,
        "velocity": 0.71,
        "hand": "left"
      },
      {
        "midi": 49,
        "time": 128.25,
        "duration": 0.25,
        "velocity": 0.71,
        "hand": "left"
      },
      {
        "midi": 58,
        "time": 128.5,
        "duration": 0.25,
        "velocity": 0.71,
        "hand": "left"
      },
      {
        "midi": 55,
        "time": 128.75,
        "duration": 1.25,
        "velocity": 0.71,
        "hand": "left"
      },
      {
        "midi": 67,
        "time": 129,
        "duration": 1,
        "velocity": 0.71,
        "hand": "right"
      },
      {
        "midi": 61,
        "time": 129.25,
        "duration": 0.25,
        "velocity": 0.71,
        "hand": "right"
      },
      {
        "midi": 63,
        "time": 129.5,
        "duration": 0.25,
        "velocity": 0.71,
        "hand": "right"
      },
      {
        "midi": 64,
        "time": 129.75,
        "duration": 0.25,
        "velocity": 0.71,
        "hand": "right"
      },
      {
        "midi": 66,
        "time": 129.75,
        "duration": 0.063,
        "velocity": 0.71,
        "hand": "right"
      },
      {
        "midi": 32,
        "time": 130,
        "duration": 0.25,
        "velocity": 0.71,
        "hand": "left"
      },
      {
        "midi": 44,
        "time": 130.25,
        "duration": 0.25,
        "velocity": 0.71,
        "hand": "left"
      },
      {
        "midi": 54,
        "time": 130.5,
        "duration": 0.25,
        "velocity": 0.71,
        "hand": "left"
      },
      {
        "midi": 57,
        "time": 130.75,
        "duration": 0.25,
        "velocity": 0.71,
        "hand": "left"
      },
      {
        "midi": 56,
        "time": 131,
        "duration": 0.75,
        "velocity": 0.71,
        "hand": "left"
      },
      {
        "midi": 68,
        "time": 131,
        "duration": 1,
        "velocity": 0.71,
        "hand": "right"
      },
      {
        "midi": 60,
        "time": 131.25,
        "duration": 0.25,
        "velocity": 0.71,
        "hand": "right"
      },
      {
        "midi": 64,
        "time": 131.5,
        "duration": 0.25,
        "velocity": 0.71,
        "hand": "right"
      },
      {
        "midi": 54,
        "time": 131.75,
        "duration": 0.25,
        "velocity": 0.71,
        "hand": "left"
      },
      {
        "midi": 63,
        "time": 131.75,
        "duration": 0.25,
        "velocity": 0.71,
        "hand": "right"
      },
      {
        "midi": 25,
        "time": 132,
        "duration": 0.25,
        "velocity": 0.71,
        "hand": "left"
      },
      {
        "midi": 52,
        "time": 132,
        "duration": 0.75,
        "velocity": 0.71,
        "hand": "left"
      },
      {
        "midi": 63,
        "time": 132,
        "duration": 0.75,
        "velocity": 0.71,
        "hand": "right"
      },
      {
        "midi": 37,
        "time": 132.25,
        "duration": 0.25,
        "velocity": 0.71,
        "hand": "left"
      },
      {
        "midi": 44,
        "time": 132.5,
        "duration": 0.25,
        "velocity": 0.71,
        "hand": "left"
      },
      {
        "midi": 52,
        "time": 132.75,
        "duration": 0.25,
        "velocity": 0.71,
        "hand": "left"
      },
      {
        "midi": 61,
        "time": 132.75,
        "duration": 0.25,
        "velocity": 0.71,
        "hand": "right"
      },
      {
        "midi": 51,
        "time": 133,
        "duration": 0.25,
        "velocity": 0.71,
        "hand": "left"
      },
      {
        "midi": 49,
        "time": 133.25,
        "duration": 0.25,
        "velocity": 0.71,
        "hand": "left"
      },
      {
        "midi": 56,
        "time": 133.5,
        "duration": 0.25,
        "velocity": 0.71,
        "hand": "left"
      },
      {
        "midi": 64,
        "time": 133.75,
        "duration": 0.25,
        "velocity": 0.71,
        "hand": "right"
      },
      {
        "midi": 63,
        "time": 134,
        "duration": 0.25,
        "velocity": 0.71,
        "hand": "right"
      },
      {
        "midi": 61,
        "time": 134.25,
        "duration": 0.25,
        "velocity": 0.71,
        "hand": "right"
      },
      {
        "midi": 64,
        "time": 134.5,
        "duration": 0.25,
        "velocity": 0.71,
        "hand": "right"
      },
      {
        "midi": 66,
        "time": 134.75,
        "duration": 0.25,
        "velocity": 0.71,
        "hand": "right"
      },
      {
        "midi": 68,
        "time": 135,
        "duration": 1,
        "velocity": 0.71,
        "hand": "right"
      },
      {
        "midi": 80,
        "time": 135,
        "duration": 1,
        "velocity": 0.71,
        "hand": "right"
      },
      {
        "midi": 73,
        "time": 135.25,
        "duration": 0.25,
        "velocity": 0.71,
        "hand": "right"
      },
      {
        "midi": 75,
        "time": 135.5,
        "duration": 0.25,
        "velocity": 0.71,
        "hand": "right"
      },
      {
        "midi": 76,
        "time": 135.75,
        "duration": 0.25,
        "velocity": 0.71,
        "hand": "right"
      },
      {
        "midi": 78,
        "time": 135.75,
        "duration": 0.063,
        "velocity": 0.71,
        "hand": "right"
      },
      {
        "midi": 68,
        "time": 136,
        "duration": 2,
        "velocity": 0.71,
        "hand": "right"
      },
      {
        "midi": 75,
        "time": 136,
        "duration": 1.75,
        "velocity": 0.71,
        "hand": "right"
      },
      {
        "midi": 80,
        "time": 136,
        "duration": 2,
        "velocity": 0.71,
        "hand": "right"
      },
      {
        "midi": 37,
        "time": 136.25,
        "duration": 0.25,
        "velocity": 0.71,
        "hand": "left"
      },
      {
        "midi": 44,
        "time": 136.5,
        "duration": 0.25,
        "velocity": 0.71,
        "hand": "left"
      },
      {
        "midi": 52,
        "time": 136.75,
        "duration": 0.25,
        "velocity": 0.71,
        "hand": "left"
      },
      {
        "midi": 51,
        "time": 137,
        "duration": 0.25,
        "velocity": 0.71,
        "hand": "left"
      },
      {
        "midi": 49,
        "time": 137.25,
        "duration": 0.25,
        "velocity": 0.71,
        "hand": "left"
      },
      {
        "midi": 56,
        "time": 137.5,
        "duration": 0.25,
        "velocity": 0.71,
        "hand": "left"
      },
      {
        "midi": 64,
        "time": 137.75,
        "duration": 0.25,
        "velocity": 0.71,
        "hand": "right"
      },
      {
        "midi": 73,
        "time": 137.75,
        "duration": 0.25,
        "velocity": 0.71,
        "hand": "right"
      },
      {
        "midi": 63,
        "time": 138,
        "duration": 0.25,
        "velocity": 0.71,
        "hand": "right"
      },
      {
        "midi": 61,
        "time": 138.25,
        "duration": 0.25,
        "velocity": 0.71,
        "hand": "right"
      },
      {
        "midi": 64,
        "time": 138.5,
        "duration": 0.25,
        "velocity": 0.71,
        "hand": "right"
      },
      {
        "midi": 66,
        "time": 138.75,
        "duration": 0.25,
        "velocity": 0.71,
        "hand": "right"
      },
      {
        "midi": 68,
        "time": 139,
        "duration": 0.75,
        "velocity": 0.71,
        "hand": "right"
      },
      {
        "midi": 80,
        "time": 139,
        "duration": 0.75,
        "velocity": 0.71,
        "hand": "right"
      },
      {
        "midi": 73,
        "time": 139.25,
        "duration": 0.25,
        "velocity": 0.71,
        "hand": "right"
      },
      {
        "midi": 76,
        "time": 139.5,
        "duration": 0.5,
        "velocity": 0.71,
        "hand": "right"
      },
      {
        "midi": 42,
        "time": 139.75,
        "duration": 0.5,
        "velocity": 0.71,
        "hand": "left"
      },
      {
        "midi": 70,
        "time": 139.75,
        "duration": 0.25,
        "velocity": 0.71,
        "hand": "right"
      },
      {
        "midi": 82,
        "time": 139.75,
        "duration": 0.25,
        "velocity": 0.71,
        "hand": "right"
      },
      {
        "midi": 70,
        "time": 140,
        "duration": 0.063,
        "velocity": 0.71,
        "hand": "right"
      },
      {
        "midi": 70,
        "time": 140,
        "duration": 0.75,
        "velocity": 0.71,
        "hand": "right"
      },
      {
        "midi": 76,
        "time": 140,
        "duration": 0.75,
        "velocity": 0.71,
        "hand": "right"
      },
      {
        "midi": 85,
        "time": 140,
        "duration": 0.75,
        "velocity": 0.71,
        "hand": "right"
      },
      {
        "midi": 35,
        "time": 140.25,
        "duration": 0.25,
        "velocity": 0.71,
        "hand": "left"
      },
      {
        "midi": 42,
        "time": 140.5,
        "duration": 0.25,
        "velocity": 0.71,
        "hand": "left"
      },
      {
        "midi": 51,
        "time": 140.75,
        "duration": 0.25,
        "velocity": 0.71,
        "hand": "left"
      },
      {
        "midi": 71,
        "time": 140.75,
        "duration": 0.25,
        "velocity": 0.71,
        "hand": "right"
      },
      {
        "midi": 75,
        "time": 140.75,
        "duration": 0.25,
        "velocity": 0.71,
        "hand": "right"
      },
      {
        "midi": 83,
        "time": 140.75,
        "duration": 0.25,
        "velocity": 0.71,
        "hand": "right"
      },
      {
        "midi": 49,
        "time": 141,
        "duration": 0.25,
        "velocity": 0.71,
        "hand": "left"
      },
      {
        "midi": 47,
        "time": 141.25,
        "duration": 0.25,
        "velocity": 0.71,
        "hand": "left"
      },
      {
        "midi": 54,
        "time": 141.5,
        "duration": 0.25,
        "velocity": 0.71,
        "hand": "left"
      },
      {
        "midi": 63,
        "time": 141.75,
        "duration": 0.25,
        "velocity": 0.71,
        "hand": "right"
      },
      {
        "midi": 61,
        "time": 142,
        "duration": 0.25,
        "velocity": 0.71,
        "hand": "right"
      },
      {
        "midi": 59,
        "time": 142.25,
        "duration": 0.25,
        "velocity": 0.71,
        "hand": "left"
      },
      {
        "midi": 63,
        "time": 142.5,
        "duration": 0.25,
        "velocity": 0.71,
        "hand": "right"
      },
      {
        "midi": 64,
        "time": 142.75,
        "duration": 0.25,
        "velocity": 0.71,
        "hand": "right"
      },
      {
        "midi": 66,
        "time": 143,
        "duration": 1,
        "velocity": 0.71,
        "hand": "right"
      },
      {
        "midi": 78,
        "time": 143,
        "duration": 1,
        "velocity": 0.71,
        "hand": "right"
      },
      {
        "midi": 71,
        "time": 143.25,
        "duration": 0.25,
        "velocity": 0.71,
        "hand": "right"
      },
      {
        "midi": 73,
        "time": 143.5,
        "duration": 0.25,
        "velocity": 0.71,
        "hand": "right"
      },
      {
        "midi": 74,
        "time": 143.75,
        "duration": 0.25,
        "velocity": 0.71,
        "hand": "right"
      },
      {
        "midi": 76,
        "time": 143.75,
        "duration": 0.063,
        "velocity": 0.71,
        "hand": "right"
      },
      {
        "midi": 66,
        "time": 144,
        "duration": 2,
        "velocity": 0.71,
        "hand": "right"
      },
      {
        "midi": 73,
        "time": 144,
        "duration": 1.75,
        "velocity": 0.71,
        "hand": "right"
      },
      {
        "midi": 78,
        "time": 144,
        "duration": 2,
        "velocity": 0.71,
        "hand": "right"
      },
      {
        "midi": 35,
        "time": 144.25,
        "duration": 0.25,
        "velocity": 0.71,
        "hand": "left"
      },
      {
        "midi": 42,
        "time": 144.5,
        "duration": 0.25,
        "velocity": 0.71,
        "hand": "left"
      },
      {
        "midi": 50,
        "time": 144.75,
        "duration": 0.25,
        "velocity": 0.71,
        "hand": "left"
      },
      {
        "midi": 49,
        "time": 145,
        "duration": 0.25,
        "velocity": 0.71,
        "hand": "left"
      },
      {
        "midi": 47,
        "time": 145.25,
        "duration": 0.25,
        "velocity": 0.71,
        "hand": "left"
      },
      {
        "midi": 54,
        "time": 145.5,
        "duration": 0.25,
        "velocity": 0.71,
        "hand": "left"
      },
      {
        "midi": 62,
        "time": 145.75,
        "duration": 0.25,
        "velocity": 0.71,
        "hand": "right"
      },
      {
        "midi": 71,
        "time": 145.75,
        "duration": 0.25,
        "velocity": 0.71,
        "hand": "right"
      },
      {
        "midi": 61,
        "time": 146,
        "duration": 0.25,
        "velocity": 0.71,
        "hand": "right"
      },
      {
        "midi": 59,
        "time": 146.25,
        "duration": 0.25,
        "velocity": 0.71,
        "hand": "left"
      },
      {
        "midi": 62,
        "time": 146.5,
        "duration": 0.25,
        "velocity": 0.71,
        "hand": "right"
      },
      {
        "midi": 64,
        "time": 146.75,
        "duration": 0.25,
        "velocity": 0.71,
        "hand": "right"
      },
      {
        "midi": 66,
        "time": 147,
        "duration": 0.75,
        "velocity": 0.71,
        "hand": "right"
      },
      {
        "midi": 78,
        "time": 147,
        "duration": 0.75,
        "velocity": 0.71,
        "hand": "right"
      },
      {
        "midi": 71,
        "time": 147.25,
        "duration": 0.25,
        "velocity": 0.71,
        "hand": "right"
      },
      {
        "midi": 74,
        "time": 147.5,
        "duration": 0.5,
        "velocity": 0.71,
        "hand": "right"
      },
      {
        "midi": 40,
        "time": 147.75,
        "duration": 0.5,
        "velocity": 0.71,
        "hand": "left"
      },
      {
        "midi": 68,
        "time": 147.75,
        "duration": 0.25,
        "velocity": 0.71,
        "hand": "right"
      },
      {
        "midi": 80,
        "time": 147.75,
        "duration": 0.25,
        "velocity": 0.71,
        "hand": "right"
      },
      {
        "midi": 68,
        "time": 148,
        "duration": 0.5,
        "velocity": 0.71,
        "hand": "right"
      },
      {
        "midi": 74,
        "time": 148,
        "duration": 0.5,
        "velocity": 0.71,
        "hand": "right"
      },
      {
        "midi": 83,
        "time": 148,
        "duration": 0.5,
        "velocity": 0.71,
        "hand": "right"
      },
      {
        "midi": 33,
        "time": 148.25,
        "duration": 0.25,
        "velocity": 0.71,
        "hand": "left"
      },
      {
        "midi": 40,
        "time": 148.5,
        "duration": 0.25,
        "velocity": 0.71,
        "hand": "left"
      },
      {
        "midi": 69,
        "time": 148.5,
        "duration": 1,
        "velocity": 0.71,
        "hand": "right"
      },
      {
        "midi": 73,
        "time": 148.5,
        "duration": 1,
        "velocity": 0.71,
        "hand": "right"
      },
      {
        "midi": 81,
        "time": 148.5,
        "duration": 1,
        "velocity": 0.71,
        "hand": "right"
      },
      {
        "midi": 49,
        "time": 148.75,
        "duration": 0.25,
        "velocity": 0.71,
        "hand": "left"
      },
      {
        "midi": 47,
        "time": 149,
        "duration": 0.25,
        "velocity": 0.71,
        "hand": "left"
      },
      {
        "midi": 45,
        "time": 149.25,
        "duration": 0.25,
        "velocity": 0.71,
        "hand": "left"
      },
      {
        "midi": 52,
        "time": 149.5,
        "duration": 0.25,
        "velocity": 0.71,
        "hand": "left"
      },
      {
        "midi": 68,
        "time": 149.5,
        "duration": 0.5,
        "velocity": 0.71,
        "hand": "right"
      },
      {
        "midi": 73,
        "time": 149.5,
        "duration": 0.5,
        "velocity": 0.71,
        "hand": "right"
      },
      {
        "midi": 80,
        "time": 149.5,
        "duration": 0.5,
        "velocity": 0.71,
        "hand": "right"
      },
      {
        "midi": 61,
        "time": 149.75,
        "duration": 0.25,
        "velocity": 0.71,
        "hand": "right"
      },
      {
        "midi": 59,
        "time": 150,
        "duration": 0.25,
        "velocity": 0.71,
        "hand": "left"
      },
      {
        "midi": 68,
        "time": 150,
        "duration": 1.75,
        "velocity": 0.71,
        "hand": "right"
      },
      {
        "midi": 73,
        "time": 150,
        "duration": 2,
        "velocity": 0.71,
        "hand": "right"
      },
      {
        "midi": 80,
        "time": 150,
        "duration": 1.75,
        "velocity": 0.71,
        "hand": "right"
      },
      {
        "midi": 57,
        "time": 150.25,
        "duration": 0.25,
        "velocity": 0.71,
        "hand": "left"
      },
      {
        "midi": 61,
        "time": 150.5,
        "duration": 0.25,
        "velocity": 0.71,
        "hand": "right"
      },
      {
        "midi": 66,
        "time": 150.75,
        "duration": 0.25,
        "velocity": 0.71,
        "hand": "right"
      },
      {
        "midi": 64,
        "time": 151,
        "duration": 0.25,
        "velocity": 0.71,
        "hand": "right"
      },
      {
        "midi": 61,
        "time": 151.25,
        "duration": 0.25,
        "velocity": 0.71,
        "hand": "right"
      },
      {
        "midi": 57,
        "time": 151.5,
        "duration": 0.25,
        "velocity": 0.71,
        "hand": "left"
      },
      {
        "midi": 63,
        "time": 151.75,
        "duration": 0.25,
        "velocity": 0.71,
        "hand": "right"
      },
      {
        "midi": 67,
        "time": 151.75,
        "duration": 0.25,
        "velocity": 0.71,
        "hand": "right"
      },
      {
        "midi": 79,
        "time": 151.75,
        "duration": 0.25,
        "velocity": 0.71,
        "hand": "right"
      },
      {
        "midi": 61,
        "time": 152,
        "duration": 0.25,
        "velocity": 0.71,
        "hand": "right"
      },
      {
        "midi": 57,
        "time": 152.25,
        "duration": 0.25,
        "velocity": 0.71,
        "hand": "left"
      },
      {
        "midi": 52,
        "time": 152.5,
        "duration": 0.25,
        "velocity": 0.71,
        "hand": "left"
      },
      {
        "midi": 66,
        "time": 152.75,
        "duration": 0.25,
        "velocity": 0.71,
        "hand": "right"
      },
      {
        "midi": 64,
        "time": 153,
        "duration": 0.25,
        "velocity": 0.71,
        "hand": "right"
      },
      {
        "midi": 61,
        "time": 153.25,
        "duration": 0.25,
        "velocity": 0.71,
        "hand": "right"
      },
      {
        "midi": 57,
        "time": 153.5,
        "duration": 0.25,
        "velocity": 0.71,
        "hand": "left"
      },
      {
        "midi": 63,
        "time": 153.75,
        "duration": 0.25,
        "velocity": 0.71,
        "hand": "right"
      },
      {
        "midi": 61,
        "time": 154,
        "duration": 0.25,
        "velocity": 0.71,
        "hand": "right"
      },
      {
        "midi": 57,
        "time": 154.25,
        "duration": 0.25,
        "velocity": 0.71,
        "hand": "left"
      },
      {
        "midi": 52,
        "time": 154.5,
        "duration": 0.25,
        "velocity": 0.71,
        "hand": "left"
      },
      {
        "midi": 59,
        "time": 154.75,
        "duration": 0.25,
        "velocity": 0.71,
        "hand": "left"
      },
      {
        "midi": 57,
        "time": 155,
        "duration": 0.25,
        "velocity": 0.71,
        "hand": "left"
      },
      {
        "midi": 67,
        "time": 155,
        "duration": 1,
        "velocity": 0.71,
        "hand": "right"
      },
      {
        "midi": 52,
        "time": 155.25,
        "duration": 0.25,
        "velocity": 0.71,
        "hand": "left"
      },
      {
        "midi": 73,
        "time": 155.25,
        "duration": 0.25,
        "velocity": 0.71,
        "hand": "right"
      },
      {
        "midi": 51,
        "time": 155.5,
        "duration": 0.25,
        "velocity": 0.71,
        "hand": "left"
      },
      {
        "midi": 75,
        "time": 155.5,
        "duration": 0.25,
        "velocity": 0.71,
        "hand": "right"
      },
      {
        "midi": 49,
        "time": 155.75,
        "duration": 0.25,
        "velocity": 0.71,
        "hand": "left"
      },
      {
        "midi": 76,
        "time": 155.75,
        "duration": 0.25,
        "velocity": 0.71,
        "hand": "right"
      },
      {
        "midi": 78,
        "time": 155.75,
        "duration": 0.063,
        "velocity": 0.71,
        "hand": "right"
      },
      {
        "midi": 45,
        "time": 156,
        "duration": 2,
        "velocity": 0.71,
        "hand": "left"
      },
      {
        "midi": 61,
        "time": 156,
        "duration": 2,
        "velocity": 0.71,
        "hand": "right"
      },
      {
        "midi": 67,
        "time": 156,
        "duration": 2,
        "velocity": 0.71,
        "hand": "right"
      },
      {
        "midi": 75,
        "time": 156,
        "duration": 0.75,
        "velocity": 0.71,
        "hand": "right"
      },
      {
        "midi": 81,
        "time": 156,
        "duration": 2,
        "velocity": 0.71,
        "hand": "right"
      },
      {
        "midi": 73,
        "time": 156.75,
        "duration": 0.25,
        "velocity": 0.71,
        "hand": "right"
      },
      {
        "midi": 61,
        "time": 158,
        "duration": 0.25,
        "velocity": 0.71,
        "hand": "right"
      },
      {
        "midi": 67,
        "time": 158,
        "duration": 0.25,
        "velocity": 0.71,
        "hand": "right"
      },
      {
        "midi": 69,
        "time": 158,
        "duration": 0.25,
        "velocity": 0.71,
        "hand": "right"
      },
      {
        "midi": 76,
        "time": 158,
        "duration": 0.25,
        "velocity": 0.71,
        "hand": "right"
      },
      {
        "midi": 57,
        "time": 158.25,
        "duration": 0.25,
        "velocity": 0.71,
        "hand": "left"
      },
      {
        "midi": 64,
        "time": 158.25,
        "duration": 0.25,
        "velocity": 0.71,
        "hand": "right"
      },
      {
        "midi": 73,
        "time": 158.25,
        "duration": 0.25,
        "velocity": 0.71,
        "hand": "right"
      },
      {
        "midi": 81,
        "time": 158.25,
        "duration": 0.25,
        "velocity": 0.71,
        "hand": "right"
      },
      {
        "midi": 61,
        "time": 158.5,
        "duration": 0.25,
        "velocity": 0.71,
        "hand": "right"
      },
      {
        "midi": 66,
        "time": 158.5,
        "duration": 0.25,
        "velocity": 0.71,
        "hand": "right"
      },
      {
        "midi": 69,
        "time": 158.5,
        "duration": 0.25,
        "velocity": 0.71,
        "hand": "right"
      },
      {
        "midi": 75,
        "time": 158.5,
        "duration": 0.25,
        "velocity": 0.71,
        "hand": "right"
      },
      {
        "midi": 54,
        "time": 158.75,
        "duration": 0.25,
        "velocity": 0.71,
        "hand": "left"
      },
      {
        "midi": 63,
        "time": 158.75,
        "duration": 0.25,
        "velocity": 0.71,
        "hand": "right"
      },
      {
        "midi": 73,
        "time": 158.75,
        "duration": 0.25,
        "velocity": 0.71,
        "hand": "right"
      },
      {
        "midi": 81,
        "time": 158.75,
        "duration": 0.25,
        "velocity": 0.71,
        "hand": "right"
      },
      {
        "midi": 60,
        "time": 159,
        "duration": 0.25,
        "velocity": 0.71,
        "hand": "right"
      },
      {
        "midi": 66,
        "time": 159,
        "duration": 0.25,
        "velocity": 0.71,
        "hand": "right"
      },
      {
        "midi": 68,
        "time": 159,
        "duration": 0.25,
        "velocity": 0.71,
        "hand": "right"
      },
      {
        "midi": 75,
        "time": 159,
        "duration": 0.25,
        "velocity": 0.71,
        "hand": "right"
      },
      {
        "midi": 56,
        "time": 159.25,
        "duration": 0.25,
        "velocity": 0.71,
        "hand": "left"
      },
      {
        "midi": 63,
        "time": 159.25,
        "duration": 0.25,
        "velocity": 0.71,
        "hand": "right"
      },
      {
        "midi": 72,
        "time": 159.25,
        "duration": 0.25,
        "velocity": 0.71,
        "hand": "right"
      },
      {
        "midi": 80,
        "time": 159.25,
        "duration": 0.25,
        "velocity": 0.71,
        "hand": "right"
      },
      {
        "midi": 60,
        "time": 159.5,
        "duration": 0.25,
        "velocity": 0.71,
        "hand": "right"
      },
      {
        "midi": 65,
        "time": 159.5,
        "duration": 0.25,
        "velocity": 0.71,
        "hand": "right"
      },
      {
        "midi": 68,
        "time": 159.5,
        "duration": 0.25,
        "velocity": 0.71,
        "hand": "right"
      },
      {
        "midi": 74,
        "time": 159.5,
        "duration": 0.25,
        "velocity": 0.71,
        "hand": "right"
      },
      {
        "midi": 53,
        "time": 159.75,
        "duration": 0.25,
        "velocity": 0.71,
        "hand": "left"
      },
      {
        "midi": 62,
        "time": 159.75,
        "duration": 0.25,
        "velocity": 0.71,
        "hand": "right"
      },
      {
        "midi": 72,
        "time": 159.75,
        "duration": 0.25,
        "velocity": 0.71,
        "hand": "right"
      },
      {
        "midi": 80,
        "time": 159.75,
        "duration": 0.25,
        "velocity": 0.71,
        "hand": "right"
      },
      {
        "midi": 59,
        "time": 160,
        "duration": 0.25,
        "velocity": 0.71,
        "hand": "left"
      },
      {
        "midi": 65,
        "time": 160,
        "duration": 0.25,
        "velocity": 0.71,
        "hand": "right"
      },
      {
        "midi": 67,
        "time": 160,
        "duration": 0.25,
        "velocity": 0.71,
        "hand": "right"
      },
      {
        "midi": 74,
        "time": 160,
        "duration": 0.25,
        "velocity": 0.71,
        "hand": "right"
      },
      {
        "midi": 55,
        "time": 160.25,
        "duration": 0.25,
        "velocity": 0.71,
        "hand": "left"
      },
      {
        "midi": 62,
        "time": 160.25,
        "duration": 0.25,
        "velocity": 0.71,
        "hand": "right"
      },
      {
        "midi": 71,
        "time": 160.25,
        "duration": 0.25,
        "velocity": 0.71,
        "hand": "right"
      },
      {
        "midi": 79,
        "time": 160.25,
        "duration": 0.25,
        "velocity": 0.71,
        "hand": "right"
      },
      {
        "midi": 59,
        "time": 160.5,
        "duration": 0.25,
        "velocity": 0.71,
        "hand": "left"
      },
      {
        "midi": 64,
        "time": 160.5,
        "duration": 0.25,
        "velocity": 0.71,
        "hand": "right"
      },
      {
        "midi": 67,
        "time": 160.5,
        "duration": 0.25,
        "velocity": 0.71,
        "hand": "right"
      },
      {
        "midi": 73,
        "time": 160.5,
        "duration": 0.25,
        "velocity": 0.71,
        "hand": "right"
      },
      {
        "midi": 52,
        "time": 160.75,
        "duration": 0.25,
        "velocity": 0.71,
        "hand": "left"
      },
      {
        "midi": 61,
        "time": 160.75,
        "duration": 0.25,
        "velocity": 0.71,
        "hand": "right"
      },
      {
        "midi": 71,
        "time": 160.75,
        "duration": 0.25,
        "velocity": 0.71,
        "hand": "right"
      },
      {
        "midi": 79,
        "time": 160.75,
        "duration": 0.25,
        "velocity": 0.71,
        "hand": "right"
      },
      {
        "midi": 58,
        "time": 161,
        "duration": 0.25,
        "velocity": 0.71,
        "hand": "left"
      },
      {
        "midi": 64,
        "time": 161,
        "duration": 0.25,
        "velocity": 0.71,
        "hand": "right"
      },
      {
        "midi": 66,
        "time": 161,
        "duration": 0.25,
        "velocity": 0.71,
        "hand": "right"
      },
      {
        "midi": 73,
        "time": 161,
        "duration": 0.25,
        "velocity": 0.71,
        "hand": "right"
      },
      {
        "midi": 54,
        "time": 161.25,
        "duration": 0.25,
        "velocity": 0.71,
        "hand": "left"
      },
      {
        "midi": 61,
        "time": 161.25,
        "duration": 0.25,
        "velocity": 0.71,
        "hand": "right"
      },
      {
        "midi": 70,
        "time": 161.25,
        "duration": 0.25,
        "velocity": 0.71,
        "hand": "right"
      },
      {
        "midi": 78,
        "time": 161.25,
        "duration": 0.25,
        "velocity": 0.71,
        "hand": "right"
      },
      {
        "midi": 58,
        "time": 161.5,
        "duration": 0.25,
        "velocity": 0.71,
        "hand": "left"
      },
      {
        "midi": 63,
        "time": 161.5,
        "duration": 0.25,
        "velocity": 0.71,
        "hand": "right"
      },
      {
        "midi": 66,
        "time": 161.5,
        "duration": 0.25,
        "velocity": 0.71,
        "hand": "right"
      },
      {
        "midi": 72,
        "time": 161.5,
        "duration": 0.25,
        "velocity": 0.71,
        "hand": "right"
      },
      {
        "midi": 51,
        "time": 161.75,
        "duration": 0.25,
        "velocity": 0.71,
        "hand": "left"
      },
      {
        "midi": 60,
        "time": 161.75,
        "duration": 0.25,
        "velocity": 0.71,
        "hand": "right"
      },
      {
        "midi": 70,
        "time": 161.75,
        "duration": 0.25,
        "velocity": 0.71,
        "hand": "right"
      },
      {
        "midi": 78,
        "time": 161.75,
        "duration": 0.25,
        "velocity": 0.71,
        "hand": "right"
      },
      {
        "midi": 57,
        "time": 162,
        "duration": 0.25,
        "velocity": 0.71,
        "hand": "left"
      },
      {
        "midi": 63,
        "time": 162,
        "duration": 0.25,
        "velocity": 0.71,
        "hand": "right"
      },
      {
        "midi": 65,
        "time": 162,
        "duration": 0.25,
        "velocity": 0.71,
        "hand": "right"
      },
      {
        "midi": 72,
        "time": 162,
        "duration": 0.25,
        "velocity": 0.71,
        "hand": "right"
      },
      {
        "midi": 53,
        "time": 162.25,
        "duration": 0.25,
        "velocity": 0.71,
        "hand": "left"
      },
      {
        "midi": 60,
        "time": 162.25,
        "duration": 0.25,
        "velocity": 0.71,
        "hand": "right"
      },
      {
        "midi": 69,
        "time": 162.25,
        "duration": 0.25,
        "velocity": 0.71,
        "hand": "right"
      },
      {
        "midi": 77,
        "time": 162.25,
        "duration": 0.25,
        "velocity": 0.71,
        "hand": "right"
      },
      {
        "midi": 57,
        "time": 162.5,
        "duration": 0.25,
        "velocity": 0.71,
        "hand": "left"
      },
      {
        "midi": 62,
        "time": 162.5,
        "duration": 0.25,
        "velocity": 0.71,
        "hand": "right"
      },
      {
        "midi": 65,
        "time": 162.5,
        "duration": 0.25,
        "velocity": 0.71,
        "hand": "right"
      },
      {
        "midi": 71,
        "time": 162.5,
        "duration": 0.25,
        "velocity": 0.71,
        "hand": "right"
      },
      {
        "midi": 50,
        "time": 162.75,
        "duration": 0.25,
        "velocity": 0.71,
        "hand": "left"
      },
      {
        "midi": 59,
        "time": 162.75,
        "duration": 0.25,
        "velocity": 0.71,
        "hand": "left"
      },
      {
        "midi": 69,
        "time": 162.75,
        "duration": 0.25,
        "velocity": 0.71,
        "hand": "right"
      },
      {
        "midi": 77,
        "time": 162.75,
        "duration": 0.25,
        "velocity": 0.71,
        "hand": "right"
      },
      {
        "midi": 56,
        "time": 163,
        "duration": 0.25,
        "velocity": 0.71,
        "hand": "left"
      },
      {
        "midi": 62,
        "time": 163,
        "duration": 0.25,
        "velocity": 0.71,
        "hand": "right"
      },
      {
        "midi": 64,
        "time": 163,
        "duration": 0.25,
        "velocity": 0.71,
        "hand": "right"
      },
      {
        "midi": 71,
        "time": 163,
        "duration": 0.25,
        "velocity": 0.71,
        "hand": "right"
      },
      {
        "midi": 52,
        "time": 163.25,
        "duration": 0.25,
        "velocity": 0.71,
        "hand": "left"
      },
      {
        "midi": 59,
        "time": 163.25,
        "duration": 0.25,
        "velocity": 0.71,
        "hand": "left"
      },
      {
        "midi": 68,
        "time": 163.25,
        "duration": 0.25,
        "velocity": 0.71,
        "hand": "right"
      },
      {
        "midi": 76,
        "time": 163.25,
        "duration": 0.25,
        "velocity": 0.71,
        "hand": "right"
      },
      {
        "midi": 56,
        "time": 163.5,
        "duration": 0.25,
        "velocity": 0.71,
        "hand": "left"
      },
      {
        "midi": 61,
        "time": 163.5,
        "duration": 0.25,
        "velocity": 0.71,
        "hand": "right"
      },
      {
        "midi": 64,
        "time": 163.5,
        "duration": 0.25,
        "velocity": 0.71,
        "hand": "right"
      },
      {
        "midi": 70,
        "time": 163.5,
        "duration": 0.25,
        "velocity": 0.71,
        "hand": "right"
      },
      {
        "midi": 49,
        "time": 163.75,
        "duration": 0.25,
        "velocity": 0.71,
        "hand": "left"
      },
      {
        "midi": 58,
        "time": 163.75,
        "duration": 0.25,
        "velocity": 0.71,
        "hand": "left"
      },
      {
        "midi": 68,
        "time": 163.75,
        "duration": 0.25,
        "velocity": 0.71,
        "hand": "right"
      },
      {
        "midi": 76,
        "time": 163.75,
        "duration": 0.25,
        "velocity": 0.71,
        "hand": "right"
      },
      {
        "midi": 55,
        "time": 164,
        "duration": 0.25,
        "velocity": 0.71,
        "hand": "left"
      },
      {
        "midi": 61,
        "time": 164,
        "duration": 0.25,
        "velocity": 0.71,
        "hand": "right"
      },
      {
        "midi": 63,
        "time": 164,
        "duration": 0.25,
        "velocity": 0.71,
        "hand": "right"
      },
      {
        "midi": 70,
        "time": 164,
        "duration": 0.25,
        "velocity": 0.71,
        "hand": "right"
      },
      {
        "midi": 51,
        "time": 164.25,
        "duration": 0.25,
        "velocity": 0.71,
        "hand": "left"
      },
      {
        "midi": 58,
        "time": 164.25,
        "duration": 0.25,
        "velocity": 0.71,
        "hand": "left"
      },
      {
        "midi": 67,
        "time": 164.25,
        "duration": 0.25,
        "velocity": 0.71,
        "hand": "right"
      },
      {
        "midi": 75,
        "time": 164.25,
        "duration": 0.25,
        "velocity": 0.71,
        "hand": "right"
      },
      {
        "midi": 55,
        "time": 164.5,
        "duration": 0.25,
        "velocity": 0.71,
        "hand": "left"
      },
      {
        "midi": 60,
        "time": 164.5,
        "duration": 0.25,
        "velocity": 0.71,
        "hand": "right"
      },
      {
        "midi": 63,
        "time": 164.5,
        "duration": 0.25,
        "velocity": 0.71,
        "hand": "right"
      },
      {
        "midi": 69,
        "time": 164.5,
        "duration": 0.25,
        "velocity": 0.71,
        "hand": "right"
      },
      {
        "midi": 48,
        "time": 164.75,
        "duration": 0.25,
        "velocity": 0.71,
        "hand": "left"
      },
      {
        "midi": 57,
        "time": 164.75,
        "duration": 0.25,
        "velocity": 0.71,
        "hand": "left"
      },
      {
        "midi": 67,
        "time": 164.75,
        "duration": 0.25,
        "velocity": 0.71,
        "hand": "right"
      },
      {
        "midi": 75,
        "time": 164.75,
        "duration": 0.25,
        "velocity": 0.71,
        "hand": "right"
      },
      {
        "midi": 54,
        "time": 165,
        "duration": 0.25,
        "velocity": 0.71,
        "hand": "left"
      },
      {
        "midi": 60,
        "time": 165,
        "duration": 0.25,
        "velocity": 0.71,
        "hand": "right"
      },
      {
        "midi": 62,
        "time": 165,
        "duration": 0.25,
        "velocity": 0.71,
        "hand": "right"
      },
      {
        "midi": 69,
        "time": 165,
        "duration": 0.25,
        "velocity": 0.71,
        "hand": "right"
      },
      {
        "midi": 50,
        "time": 165.25,
        "duration": 0.25,
        "velocity": 0.71,
        "hand": "left"
      },
      {
        "midi": 57,
        "time": 165.25,
        "duration": 0.25,
        "velocity": 0.71,
        "hand": "left"
      },
      {
        "midi": 66,
        "time": 165.25,
        "duration": 0.25,
        "velocity": 0.71,
        "hand": "right"
      },
      {
        "midi": 74,
        "time": 165.25,
        "duration": 0.25,
        "velocity": 0.71,
        "hand": "right"
      },
      {
        "midi": 54,
        "time": 165.5,
        "duration": 0.25,
        "velocity": 0.71,
        "hand": "left"
      },
      {
        "midi": 59,
        "time": 165.5,
        "duration": 0.25,
        "velocity": 0.71,
        "hand": "left"
      },
      {
        "midi": 62,
        "time": 165.5,
        "duration": 0.25,
        "velocity": 0.71,
        "hand": "right"
      },
      {
        "midi": 68,
        "time": 165.5,
        "duration": 0.25,
        "velocity": 0.71,
        "hand": "right"
      },
      {
        "midi": 47,
        "time": 165.75,
        "duration": 0.25,
        "velocity": 0.71,
        "hand": "left"
      },
      {
        "midi": 56,
        "time": 165.75,
        "duration": 0.25,
        "velocity": 0.71,
        "hand": "left"
      },
      {
        "midi": 66,
        "time": 165.75,
        "duration": 0.25,
        "velocity": 0.71,
        "hand": "right"
      },
      {
        "midi": 74,
        "time": 165.75,
        "duration": 0.25,
        "velocity": 0.71,
        "hand": "right"
      },
      {
        "midi": 53,
        "time": 166,
        "duration": 0.25,
        "velocity": 0.71,
        "hand": "left"
      },
      {
        "midi": 59,
        "time": 166,
        "duration": 0.25,
        "velocity": 0.71,
        "hand": "left"
      },
      {
        "midi": 62,
        "time": 166,
        "duration": 0.25,
        "velocity": 0.71,
        "hand": "right"
      },
      {
        "midi": 68,
        "time": 166,
        "duration": 0.25,
        "velocity": 0.71,
        "hand": "right"
      },
      {
        "midi": 52,
        "time": 166.25,
        "duration": 0.25,
        "velocity": 0.71,
        "hand": "left"
      },
      {
        "midi": 58,
        "time": 166.25,
        "duration": 0.25,
        "velocity": 0.71,
        "hand": "left"
      },
      {
        "midi": 67,
        "time": 166.25,
        "duration": 0.25,
        "velocity": 0.71,
        "hand": "right"
      },
      {
        "midi": 73,
        "time": 166.25,
        "duration": 0.25,
        "velocity": 0.71,
        "hand": "right"
      },
      {
        "midi": 53,
        "time": 166.5,
        "duration": 0.25,
        "velocity": 0.71,
        "hand": "left"
      },
      {
        "midi": 59,
        "time": 166.5,
        "duration": 0.25,
        "velocity": 0.71,
        "hand": "left"
      },
      {
        "midi": 68,
        "time": 166.5,
        "duration": 0.25,
        "velocity": 0.71,
        "hand": "right"
      },
      {
        "midi": 74,
        "time": 166.5,
        "duration": 0.25,
        "velocity": 0.71,
        "hand": "right"
      },
      {
        "midi": 56,
        "time": 166.75,
        "duration": 0.25,
        "velocity": 0.71,
        "hand": "left"
      },
      {
        "midi": 62,
        "time": 166.75,
        "duration": 0.25,
        "velocity": 0.71,
        "hand": "right"
      },
      {
        "midi": 65,
        "time": 166.75,
        "duration": 0.25,
        "velocity": 0.71,
        "hand": "right"
      },
      {
        "midi": 71,
        "time": 166.75,
        "duration": 0.25,
        "velocity": 0.71,
        "hand": "right"
      },
      {
        "midi": 53,
        "time": 167,
        "duration": 0.25,
        "velocity": 0.71,
        "hand": "left"
      },
      {
        "midi": 59,
        "time": 167,
        "duration": 0.25,
        "velocity": 0.71,
        "hand": "left"
      },
      {
        "midi": 68,
        "time": 167,
        "duration": 0.25,
        "velocity": 0.71,
        "hand": "right"
      },
      {
        "midi": 74,
        "time": 167,
        "duration": 0.25,
        "velocity": 0.71,
        "hand": "right"
      },
      {
        "midi": 54,
        "time": 167.25,
        "duration": 0.25,
        "velocity": 0.71,
        "hand": "left"
      },
      {
        "midi": 60,
        "time": 167.25,
        "duration": 0.25,
        "velocity": 0.71,
        "hand": "right"
      },
      {
        "midi": 69,
        "time": 167.25,
        "duration": 0.25,
        "velocity": 0.71,
        "hand": "right"
      },
      {
        "midi": 75,
        "time": 167.25,
        "duration": 0.25,
        "velocity": 0.71,
        "hand": "right"
      },
      {
        "midi": 55,
        "time": 167.5,
        "duration": 0.25,
        "velocity": 0.71,
        "hand": "left"
      },
      {
        "midi": 61,
        "time": 167.5,
        "duration": 0.25,
        "velocity": 0.71,
        "hand": "right"
      },
      {
        "midi": 70,
        "time": 167.5,
        "duration": 0.25,
        "velocity": 0.71,
        "hand": "right"
      },
      {
        "midi": 76,
        "time": 167.5,
        "duration": 0.25,
        "velocity": 0.71,
        "hand": "right"
      },
      {
        "midi": 58,
        "time": 167.75,
        "duration": 0.25,
        "velocity": 0.71,
        "hand": "left"
      },
      {
        "midi": 64,
        "time": 167.75,
        "duration": 0.25,
        "velocity": 0.71,
        "hand": "right"
      },
      {
        "midi": 67,
        "time": 167.75,
        "duration": 0.25,
        "velocity": 0.71,
        "hand": "right"
      },
      {
        "midi": 73,
        "time": 167.75,
        "duration": 0.25,
        "velocity": 0.71,
        "hand": "right"
      },
      {
        "midi": 55,
        "time": 168,
        "duration": 0.25,
        "velocity": 0.71,
        "hand": "left"
      },
      {
        "midi": 61,
        "time": 168,
        "duration": 0.25,
        "velocity": 0.71,
        "hand": "right"
      },
      {
        "midi": 70,
        "time": 168,
        "duration": 0.25,
        "velocity": 0.71,
        "hand": "right"
      },
      {
        "midi": 76,
        "time": 168,
        "duration": 0.25,
        "velocity": 0.71,
        "hand": "right"
      },
      {
        "midi": 56,
        "time": 168.25,
        "duration": 0.25,
        "velocity": 0.71,
        "hand": "left"
      },
      {
        "midi": 62,
        "time": 168.25,
        "duration": 0.25,
        "velocity": 0.71,
        "hand": "right"
      },
      {
        "midi": 71,
        "time": 168.25,
        "duration": 0.25,
        "velocity": 0.71,
        "hand": "right"
      },
      {
        "midi": 77,
        "time": 168.25,
        "duration": 0.25,
        "velocity": 0.71,
        "hand": "right"
      },
      {
        "midi": 57,
        "time": 168.5,
        "duration": 0.25,
        "velocity": 0.71,
        "hand": "left"
      },
      {
        "midi": 63,
        "time": 168.5,
        "duration": 0.25,
        "velocity": 0.71,
        "hand": "right"
      },
      {
        "midi": 72,
        "time": 168.5,
        "duration": 0.25,
        "velocity": 0.71,
        "hand": "right"
      },
      {
        "midi": 78,
        "time": 168.5,
        "duration": 0.25,
        "velocity": 0.71,
        "hand": "right"
      },
      {
        "midi": 60,
        "time": 168.75,
        "duration": 0.25,
        "velocity": 0.71,
        "hand": "right"
      },
      {
        "midi": 66,
        "time": 168.75,
        "duration": 0.25,
        "velocity": 0.71,
        "hand": "right"
      },
      {
        "midi": 69,
        "time": 168.75,
        "duration": 0.25,
        "velocity": 0.71,
        "hand": "right"
      },
      {
        "midi": 75,
        "time": 168.75,
        "duration": 0.25,
        "velocity": 0.71,
        "hand": "right"
      },
      {
        "midi": 57,
        "time": 169,
        "duration": 0.25,
        "velocity": 0.71,
        "hand": "left"
      },
      {
        "midi": 63,
        "time": 169,
        "duration": 0.25,
        "velocity": 0.71,
        "hand": "right"
      },
      {
        "midi": 72,
        "time": 169,
        "duration": 0.25,
        "velocity": 0.71,
        "hand": "right"
      },
      {
        "midi": 78,
        "time": 169,
        "duration": 0.25,
        "velocity": 0.71,
        "hand": "right"
      },
      {
        "midi": 58,
        "time": 169.25,
        "duration": 0.25,
        "velocity": 0.71,
        "hand": "left"
      },
      {
        "midi": 64,
        "time": 169.25,
        "duration": 0.25,
        "velocity": 0.71,
        "hand": "right"
      },
      {
        "midi": 73,
        "time": 169.25,
        "duration": 0.25,
        "velocity": 0.71,
        "hand": "right"
      },
      {
        "midi": 79,
        "time": 169.25,
        "duration": 0.25,
        "velocity": 0.71,
        "hand": "right"
      },
      {
        "midi": 59,
        "time": 169.5,
        "duration": 0.25,
        "velocity": 0.71,
        "hand": "left"
      },
      {
        "midi": 65,
        "time": 169.5,
        "duration": 0.25,
        "velocity": 0.71,
        "hand": "right"
      },
      {
        "midi": 74,
        "time": 169.5,
        "duration": 0.25,
        "velocity": 0.71,
        "hand": "right"
      },
      {
        "midi": 80,
        "time": 169.5,
        "duration": 0.25,
        "velocity": 0.71,
        "hand": "right"
      },
      {
        "midi": 62,
        "time": 169.75,
        "duration": 0.25,
        "velocity": 0.71,
        "hand": "right"
      },
      {
        "midi": 68,
        "time": 169.75,
        "duration": 0.25,
        "velocity": 0.71,
        "hand": "right"
      },
      {
        "midi": 71,
        "time": 169.75,
        "duration": 0.25,
        "velocity": 0.71,
        "hand": "right"
      },
      {
        "midi": 77,
        "time": 169.75,
        "duration": 0.25,
        "velocity": 0.71,
        "hand": "right"
      },
      {
        "midi": 59,
        "time": 170,
        "duration": 0.25,
        "velocity": 0.71,
        "hand": "left"
      },
      {
        "midi": 65,
        "time": 170,
        "duration": 0.25,
        "velocity": 0.71,
        "hand": "right"
      },
      {
        "midi": 74,
        "time": 170,
        "duration": 0.25,
        "velocity": 0.71,
        "hand": "right"
      },
      {
        "midi": 80,
        "time": 170,
        "duration": 0.25,
        "velocity": 0.71,
        "hand": "right"
      },
      {
        "midi": 60,
        "time": 170.25,
        "duration": 0.25,
        "velocity": 0.71,
        "hand": "right"
      },
      {
        "midi": 66,
        "time": 170.25,
        "duration": 0.25,
        "velocity": 0.71,
        "hand": "right"
      },
      {
        "midi": 75,
        "time": 170.25,
        "duration": 0.25,
        "velocity": 0.71,
        "hand": "right"
      },
      {
        "midi": 81,
        "time": 170.25,
        "duration": 0.25,
        "velocity": 0.71,
        "hand": "right"
      },
      {
        "midi": 61,
        "time": 170.5,
        "duration": 0.25,
        "velocity": 0.71,
        "hand": "right"
      },
      {
        "midi": 67,
        "time": 170.5,
        "duration": 0.25,
        "velocity": 0.71,
        "hand": "right"
      },
      {
        "midi": 76,
        "time": 170.5,
        "duration": 0.25,
        "velocity": 0.71,
        "hand": "right"
      },
      {
        "midi": 82,
        "time": 170.5,
        "duration": 0.25,
        "velocity": 0.71,
        "hand": "right"
      },
      {
        "midi": 64,
        "time": 170.75,
        "duration": 0.25,
        "velocity": 0.71,
        "hand": "right"
      },
      {
        "midi": 70,
        "time": 170.75,
        "duration": 0.25,
        "velocity": 0.71,
        "hand": "right"
      },
      {
        "midi": 73,
        "time": 170.75,
        "duration": 0.25,
        "velocity": 0.71,
        "hand": "right"
      },
      {
        "midi": 79,
        "time": 170.75,
        "duration": 0.25,
        "velocity": 0.71,
        "hand": "right"
      },
      {
        "midi": 61,
        "time": 171,
        "duration": 0.25,
        "velocity": 0.71,
        "hand": "right"
      },
      {
        "midi": 67,
        "time": 171,
        "duration": 0.25,
        "velocity": 0.71,
        "hand": "right"
      },
      {
        "midi": 76,
        "time": 171,
        "duration": 0.25,
        "velocity": 0.71,
        "hand": "right"
      },
      {
        "midi": 82,
        "time": 171,
        "duration": 0.25,
        "velocity": 0.71,
        "hand": "right"
      },
      {
        "midi": 62,
        "time": 171.25,
        "duration": 0.25,
        "velocity": 0.71,
        "hand": "right"
      },
      {
        "midi": 68,
        "time": 171.25,
        "duration": 0.25,
        "velocity": 0.71,
        "hand": "right"
      },
      {
        "midi": 77,
        "time": 171.25,
        "duration": 0.25,
        "velocity": 0.71,
        "hand": "right"
      },
      {
        "midi": 83,
        "time": 171.25,
        "duration": 0.25,
        "velocity": 0.71,
        "hand": "right"
      },
      {
        "midi": 63,
        "time": 171.5,
        "duration": 0.25,
        "velocity": 0.71,
        "hand": "right"
      },
      {
        "midi": 69,
        "time": 171.5,
        "duration": 0.25,
        "velocity": 0.71,
        "hand": "right"
      },
      {
        "midi": 78,
        "time": 171.5,
        "duration": 0.25,
        "velocity": 0.71,
        "hand": "right"
      },
      {
        "midi": 84,
        "time": 171.5,
        "duration": 0.25,
        "velocity": 0.71,
        "hand": "right"
      },
      {
        "midi": 66,
        "time": 171.75,
        "duration": 0.25,
        "velocity": 0.71,
        "hand": "right"
      },
      {
        "midi": 72,
        "time": 171.75,
        "duration": 0.25,
        "velocity": 0.71,
        "hand": "right"
      },
      {
        "midi": 75,
        "time": 171.75,
        "duration": 0.25,
        "velocity": 0.71,
        "hand": "right"
      },
      {
        "midi": 81,
        "time": 171.75,
        "duration": 0.25,
        "velocity": 0.71,
        "hand": "right"
      },
      {
        "midi": 63,
        "time": 172,
        "duration": 0.25,
        "velocity": 0.71,
        "hand": "right"
      },
      {
        "midi": 69,
        "time": 172,
        "duration": 0.25,
        "velocity": 0.71,
        "hand": "right"
      },
      {
        "midi": 78,
        "time": 172,
        "duration": 0.25,
        "velocity": 0.71,
        "hand": "right"
      },
      {
        "midi": 84,
        "time": 172,
        "duration": 0.25,
        "velocity": 0.71,
        "hand": "right"
      },
      {
        "midi": 64,
        "time": 172.25,
        "duration": 0.25,
        "velocity": 0.71,
        "hand": "right"
      },
      {
        "midi": 70,
        "time": 172.25,
        "duration": 0.25,
        "velocity": 0.71,
        "hand": "right"
      },
      {
        "midi": 79,
        "time": 172.25,
        "duration": 0.25,
        "velocity": 0.71,
        "hand": "right"
      },
      {
        "midi": 85,
        "time": 172.25,
        "duration": 0.25,
        "velocity": 0.71,
        "hand": "right"
      },
      {
        "midi": 67,
        "time": 172.5,
        "duration": 0.25,
        "velocity": 0.71,
        "hand": "right"
      },
      {
        "midi": 73,
        "time": 172.5,
        "duration": 0.25,
        "velocity": 0.71,
        "hand": "right"
      },
      {
        "midi": 82,
        "time": 172.5,
        "duration": 0.25,
        "velocity": 0.71,
        "hand": "right"
      },
      {
        "midi": 88,
        "time": 172.5,
        "duration": 0.25,
        "velocity": 0.71,
        "hand": "right"
      },
      {
        "midi": 70,
        "time": 172.75,
        "duration": 0.25,
        "velocity": 0.71,
        "hand": "right"
      },
      {
        "midi": 76,
        "time": 172.75,
        "duration": 0.25,
        "velocity": 0.71,
        "hand": "right"
      },
      {
        "midi": 85,
        "time": 172.75,
        "duration": 0.25,
        "velocity": 0.71,
        "hand": "right"
      },
      {
        "midi": 91,
        "time": 172.75,
        "duration": 0.25,
        "velocity": 0.71,
        "hand": "right"
      },
      {
        "midi": 67,
        "time": 173,
        "duration": 0.25,
        "velocity": 0.71,
        "hand": "right"
      },
      {
        "midi": 73,
        "time": 173,
        "duration": 0.25,
        "velocity": 0.71,
        "hand": "right"
      },
      {
        "midi": 82,
        "time": 173,
        "duration": 0.25,
        "velocity": 0.71,
        "hand": "right"
      },
      {
        "midi": 88,
        "time": 173,
        "duration": 0.25,
        "velocity": 0.71,
        "hand": "right"
      },
      {
        "midi": 70,
        "time": 173.25,
        "duration": 0.25,
        "velocity": 0.71,
        "hand": "right"
      },
      {
        "midi": 76,
        "time": 173.25,
        "duration": 0.25,
        "velocity": 0.71,
        "hand": "right"
      },
      {
        "midi": 85,
        "time": 173.25,
        "duration": 0.25,
        "velocity": 0.71,
        "hand": "right"
      },
      {
        "midi": 91,
        "time": 173.25,
        "duration": 0.25,
        "velocity": 0.71,
        "hand": "right"
      },
      {
        "midi": 73,
        "time": 173.5,
        "duration": 0.25,
        "velocity": 0.71,
        "hand": "right"
      },
      {
        "midi": 79,
        "time": 173.5,
        "duration": 0.25,
        "velocity": 0.71,
        "hand": "right"
      },
      {
        "midi": 88,
        "time": 173.5,
        "duration": 0.25,
        "velocity": 0.71,
        "hand": "right"
      },
      {
        "midi": 94,
        "time": 173.5,
        "duration": 0.25,
        "velocity": 0.71,
        "hand": "right"
      },
      {
        "midi": 76,
        "time": 173.75,
        "duration": 0.25,
        "velocity": 0.71,
        "hand": "right"
      },
      {
        "midi": 82,
        "time": 173.75,
        "duration": 0.25,
        "velocity": 0.71,
        "hand": "right"
      },
      {
        "midi": 91,
        "time": 173.75,
        "duration": 0.25,
        "velocity": 0.71,
        "hand": "right"
      },
      {
        "midi": 100,
        "time": 173.75,
        "duration": 0.25,
        "velocity": 0.71,
        "hand": "right"
      },
      {
        "midi": 32,
        "time": 174,
        "duration": 0.5,
        "velocity": 0.71,
        "hand": "left"
      },
      {
        "midi": 68,
        "time": 174,
        "duration": 1,
        "velocity": 0.71,
        "hand": "right"
      },
      {
        "midi": 73,
        "time": 174,
        "duration": 1,
        "velocity": 0.71,
        "hand": "right"
      },
      {
        "midi": 76,
        "time": 174,
        "duration": 1,
        "velocity": 0.71,
        "hand": "right"
      },
      {
        "midi": 80,
        "time": 174,
        "duration": 1.25,
        "velocity": 0.71,
        "hand": "right"
      },
      {
        "midi": 52,
        "time": 175,
        "duration": 0.5,
        "velocity": 0.71,
        "hand": "left"
      },
      {
        "midi": 56,
        "time": 175,
        "duration": 0.5,
        "velocity": 0.71,
        "hand": "left"
      },
      {
        "midi": 61,
        "time": 175,
        "duration": 0.5,
        "velocity": 0.71,
        "hand": "right"
      },
      {
        "midi": 64,
        "time": 175,
        "duration": 0.5,
        "velocity": 0.71,
        "hand": "right"
      },
      {
        "midi": 85,
        "time": 175.25,
        "duration": 0.25,
        "velocity": 0.71,
        "hand": "right"
      },
      {
        "midi": 83,
        "time": 175.5,
        "duration": 0.25,
        "velocity": 0.71,
        "hand": "right"
      },
      {
        "midi": 81,
        "time": 175.75,
        "duration": 0.25,
        "velocity": 0.71,
        "hand": "right"
      },
      {
        "midi": 79,
        "time": 176,
        "duration": 0.25,
        "velocity": 0.71,
        "hand": "right"
      },
      {
        "midi": 80,
        "time": 176.25,
        "duration": 0.25,
        "velocity": 0.71,
        "hand": "right"
      },
      {
        "midi": 76,
        "time": 176.5,
        "duration": 0.25,
        "velocity": 0.71,
        "hand": "right"
      },
      {
        "midi": 72,
        "time": 176.75,
        "duration": 0.25,
        "velocity": 0.71,
        "hand": "right"
      },
      {
        "midi": 75,
        "time": 177,
        "duration": 0.25,
        "velocity": 0.71,
        "hand": "right"
      },
      {
        "midi": 76,
        "time": 177.25,
        "duration": 0.25,
        "velocity": 0.71,
        "hand": "right"
      },
      {
        "midi": 73,
        "time": 177.5,
        "duration": 0.25,
        "velocity": 0.71,
        "hand": "right"
      },
      {
        "midi": 67,
        "time": 177.75,
        "duration": 0.25,
        "velocity": 0.71,
        "hand": "right"
      },
      {
        "midi": 68,
        "time": 178,
        "duration": 2,
        "velocity": 0.71,
        "hand": "right"
      },
      {
        "midi": 44,
        "time": 180,
        "duration": 2,
        "velocity": 0.71,
        "hand": "left"
      },
      {
        "midi": 54,
        "time": 180,
        "duration": 2,
        "velocity": 0.71,
        "hand": "left"
      },
      {
        "midi": 60,
        "time": 180,
        "duration": 2,
        "velocity": 0.71,
        "hand": "right"
      },
      {
        "midi": 52,
        "time": 182,
        "duration": 0.75,
        "velocity": 0.71,
        "hand": "left"
      },
      {
        "midi": 61,
        "time": 182,
        "duration": 1,
        "velocity": 0.71,
        "hand": "right"
      },
      {
        "midi": 37,
        "time": 182.25,
        "duration": 0.25,
        "velocity": 0.71,
        "hand": "left"
      },
      {
        "midi": 44,
        "time": 182.5,
        "duration": 0.25,
        "velocity": 0.71,
        "hand": "left"
      },
      {
        "midi": 52,
        "time": 182.75,
        "duration": 0.25,
        "velocity": 0.71,
        "hand": "left"
      },
      {
        "midi": 51,
        "time": 183,
        "duration": 0.25,
        "velocity": 0.71,
        "hand": "left"
      },
      {
        "midi": 49,
        "time": 183.25,
        "duration": 0.25,
        "velocity": 0.71,
        "hand": "left"
      },
      {
        "midi": 57,
        "time": 183.5,
        "duration": 0.25,
        "velocity": 0.71,
        "hand": "left"
      },
      {
        "midi": 64,
        "time": 183.75,
        "duration": 0.25,
        "velocity": 0.71,
        "hand": "right"
      },
      {
        "midi": 63,
        "time": 184,
        "duration": 0.25,
        "velocity": 0.71,
        "hand": "right"
      },
      {
        "midi": 61,
        "time": 184.25,
        "duration": 0.25,
        "velocity": 0.71,
        "hand": "right"
      },
      {
        "midi": 64,
        "time": 184.5,
        "duration": 0.25,
        "velocity": 0.71,
        "hand": "right"
      },
      {
        "midi": 67,
        "time": 184.75,
        "duration": 0.25,
        "velocity": 0.71,
        "hand": "right"
      },
      {
        "midi": 69,
        "time": 185,
        "duration": 0.75,
        "velocity": 0.71,
        "hand": "right"
      },
      {
        "midi": 81,
        "time": 185,
        "duration": 0.875,
        "velocity": 0.71,
        "hand": "right"
      },
      {
        "midi": 73,
        "time": 185.25,
        "duration": 0.25,
        "velocity": 0.71,
        "hand": "right"
      },
      {
        "midi": 78,
        "time": 185.5,
        "duration": 0.25,
        "velocity": 0.71,
        "hand": "right"
      },
      {
        "midi": 67,
        "time": 185.75,
        "duration": 0.25,
        "velocity": 0.71,
        "hand": "right"
      },
      {
        "midi": 76,
        "time": 185.75,
        "duration": 0.25,
        "velocity": 0.71,
        "hand": "right"
      },
      {
        "midi": 81,
        "time": 185.875,
        "duration": 0.125,
        "velocity": 0.71,
        "hand": "right"
      },
      {
        "midi": 66,
        "time": 186,
        "duration": 1,
        "velocity": 0.71,
        "hand": "right"
      },
      {
        "midi": 74,
        "time": 186,
        "duration": 2,
        "velocity": 0.71,
        "hand": "right"
      },
      {
        "midi": 81,
        "time": 186,
        "duration": 1,
        "velocity": 0.71,
        "hand": "right"
      },
      {
        "midi": 38,
        "time": 186.25,
        "duration": 0.25,
        "velocity": 0.71,
        "hand": "left"
      },
      {
        "midi": 45,
        "time": 186.5,
        "duration": 0.25,
        "velocity": 0.71,
        "hand": "left"
      },
      {
        "midi": 54,
        "time": 186.75,
        "duration": 0.25,
        "velocity": 0.71,
        "hand": "left"
      },
      {
        "midi": 52,
        "time": 187,
        "duration": 0.25,
        "velocity": 0.71,
        "hand": "left"
      },
      {
        "midi": 69,
        "time": 187,
        "duration": 1,
        "velocity": 0.71,
        "hand": "right"
      },
      {
        "midi": 78,
        "time": 187,
        "duration": 1,
        "velocity": 0.71,
        "hand": "right"
      },
      {
        "midi": 50,
        "time": 187.25,
        "duration": 0.25,
        "velocity": 0.71,
        "hand": "left"
      },
      {
        "midi": 57,
        "time": 187.5,
        "duration": 0.25,
        "velocity": 0.71,
        "hand": "left"
      },
      {
        "midi": 66,
        "time": 187.75,
        "duration": 0.25,
        "velocity": 0.71,
        "hand": "right"
      },
      {
        "midi": 66,
        "time": 188,
        "duration": 1,
        "velocity": 0.71,
        "hand": "right"
      },
      {
        "midi": 72,
        "time": 188,
        "duration": 1,
        "velocity": 0.71,
        "hand": "right"
      },
      {
        "midi": 80,
        "time": 188,
        "duration": 1,
        "velocity": 0.71,
        "hand": "right"
      },
      {
        "midi": 44,
        "time": 188.25,
        "duration": 0.25,
        "velocity": 0.71,
        "hand": "left"
      },
      {
        "midi": 51,
        "time": 188.5,
        "duration": 0.25,
        "velocity": 0.71,
        "hand": "left"
      },
      {
        "midi": 60,
        "time": 188.75,
        "duration": 0.25,
        "velocity": 0.71,
        "hand": "right"
      },
      {
        "midi": 66,
        "time": 189,
        "duration": 0.5,
        "velocity": 0.71,
        "hand": "right"
      },
      {
        "midi": 72,
        "time": 189,
        "duration": 0.75,
        "velocity": 0.71,
        "hand": "right"
      },
      {
        "midi": 84,
        "time": 189,
        "duration": 0.75,
        "velocity": 0.71,
        "hand": "right"
      },
      {
        "midi": 76,
        "time": 189.25,
        "duration": 0.5,
        "velocity": 0.71,
        "hand": "right"
      },
      {
        "midi": 80,
        "time": 189.5,
        "duration": 0.25,
        "velocity": 0.71,
        "hand": "right"
      },
      {
        "midi": 75,
        "time": 189.75,
        "duration": 0.25,
        "velocity": 0.71,
        "hand": "right"
      },
      {
        "midi": 78,
        "time": 189.75,
        "duration": 0.25,
        "velocity": 0.71,
        "hand": "right"
      },
      {
        "midi": 84,
        "time": 189.75,
        "duration": 0.25,
        "velocity": 0.71,
        "hand": "right"
      },
      {
        "midi": 72,
        "time": 190,
        "duration": 1.75,
        "velocity": 0.71,
        "hand": "right"
      },
      {
        "midi": 76,
        "time": 190,
        "duration": 2,
        "velocity": 0.71,
        "hand": "right"
      },
      {
        "midi": 84,
        "time": 190,
        "duration": 1.75,
        "velocity": 0.71,
        "hand": "right"
      },
      {
        "midi": 37,
        "time": 190.25,
        "duration": 0.25,
        "velocity": 0.71,
        "hand": "left"
      },
      {
        "midi": 44,
        "time": 190.5,
        "duration": 0.25,
        "velocity": 0.71,
        "hand": "left"
      },
      {
        "midi": 52,
        "time": 190.75,
        "duration": 0.25,
        "velocity": 0.71,
        "hand": "left"
      },
      {
        "midi": 51,
        "time": 191,
        "duration": 0.25,
        "velocity": 0.71,
        "hand": "left"
      },
      {
        "midi": 49,
        "time": 191.25,
        "duration": 0.25,
        "velocity": 0.71,
        "hand": "left"
      },
      {
        "midi": 56,
        "time": 191.5,
        "duration": 0.25,
        "velocity": 0.71,
        "hand": "left"
      },
      {
        "midi": 64,
        "time": 191.75,
        "duration": 0.25,
        "velocity": 0.71,
        "hand": "right"
      },
      {
        "midi": 73,
        "time": 191.75,
        "duration": 0.25,
        "velocity": 0.71,
        "hand": "right"
      },
      {
        "midi": 85,
        "time": 191.75,
        "duration": 0.25,
        "velocity": 0.71,
        "hand": "right"
      },
      {
        "midi": 63,
        "time": 192,
        "duration": 0.25,
        "velocity": 0.71,
        "hand": "right"
      },
      {
        "midi": 61,
        "time": 192.25,
        "duration": 0.25,
        "velocity": 0.71,
        "hand": "right"
      },
      {
        "midi": 68,
        "time": 192.5,
        "duration": 0.25,
        "velocity": 0.71,
        "hand": "right"
      },
      {
        "midi": 76,
        "time": 192.75,
        "duration": 0.25,
        "velocity": 0.71,
        "hand": "right"
      },
      {
        "midi": 75,
        "time": 193,
        "duration": 0.25,
        "velocity": 0.71,
        "hand": "right"
      },
      {
        "midi": 73,
        "time": 193.25,
        "duration": 0.25,
        "velocity": 0.71,
        "hand": "right"
      },
      {
        "midi": 76,
        "time": 193.5,
        "duration": 0.25,
        "velocity": 0.71,
        "hand": "right"
      },
      {
        "midi": 85,
        "time": 193.75,
        "duration": 0.25,
        "velocity": 0.71,
        "hand": "right"
      },
      {
        "midi": 97,
        "time": 194,
        "duration": 0.25,
        "velocity": 0.71,
        "hand": "right"
      },
      {
        "midi": 37,
        "time": 195,
        "duration": 1,
        "velocity": 0.71,
        "hand": "left"
      },
      {
        "midi": 44,
        "time": 195,
        "duration": 1,
        "velocity": 0.71,
        "hand": "left"
      },
      {
        "midi": 52,
        "time": 195,
        "duration": 1,
        "velocity": 0.71,
        "hand": "left"
      },
      {
        "midi": 56,
        "time": 195,
        "duration": 1,
        "velocity": 0.71,
        "hand": "left"
      },
      {
        "midi": 64,
        "time": 195,
        "duration": 1,
        "velocity": 0.71,
        "hand": "right"
      },
      {
        "midi": 37,
        "time": 196,
        "duration": 2,
        "velocity": 0.71,
        "hand": "left"
      },
      {
        "midi": 44,
        "time": 196,
        "duration": 2,
        "velocity": 0.71,
        "hand": "left"
      },
      {
        "midi": 52,
        "time": 196,
        "duration": 2,
        "velocity": 0.71,
        "hand": "left"
      },
      {
        "midi": 61,
        "time": 196,
        "duration": 2,
        "velocity": 0.71,
        "hand": "right"
      }
    ]
  },
  "notes1Hand": [
    {
      "midi": 73,
      "time": 0.5,
      "duration": 0.5,
      "velocity": 0.71,
      "hand": "right"
    },
    {
      "midi": 71,
      "time": 1,
      "duration": 0.5,
      "velocity": 0.71,
      "hand": "right"
    },
    {
      "midi": 69,
      "time": 1.5,
      "duration": 0.5,
      "velocity": 0.71,
      "hand": "right"
    },
    {
      "midi": 68,
      "time": 2,
      "duration": 0.5,
      "velocity": 0.71,
      "hand": "right"
    },
    {
      "midi": 69,
      "time": 2.5,
      "duration": 0.5,
      "velocity": 0.71,
      "hand": "right"
    },
    {
      "midi": 67,
      "time": 3,
      "duration": 0.5,
      "velocity": 0.71,
      "hand": "right"
    },
    {
      "midi": 66,
      "time": 3.5,
      "duration": 0.5,
      "velocity": 0.71,
      "hand": "right"
    },
    {
      "midi": 65,
      "time": 4,
      "duration": 0.5,
      "velocity": 0.71,
      "hand": "right"
    },
    {
      "midi": 66,
      "time": 4.5,
      "duration": 0.5,
      "velocity": 0.71,
      "hand": "right"
    },
    {
      "midi": 64,
      "time": 5,
      "duration": 0.5,
      "velocity": 0.71,
      "hand": "right"
    },
    {
      "midi": 62,
      "time": 5.5,
      "duration": 0.5,
      "velocity": 0.71,
      "hand": "right"
    },
    {
      "midi": 61,
      "time": 6,
      "duration": 1.5,
      "velocity": 0.71,
      "hand": "right"
    },
    {
      "midi": 60,
      "time": 7.5,
      "duration": 0.5,
      "velocity": 0.71,
      "hand": "right"
    },
    {
      "midi": 63,
      "time": 8,
      "duration": 0.75,
      "velocity": 0.71,
      "hand": "right"
    },
    {
      "midi": 61,
      "time": 8.75,
      "duration": 0.25,
      "velocity": 0.71,
      "hand": "right"
    },
    {
      "midi": 64,
      "time": 9.75,
      "duration": 0.25,
      "velocity": 0.71,
      "hand": "right"
    },
    {
      "midi": 63,
      "time": 10,
      "duration": 0.25,
      "velocity": 0.71,
      "hand": "right"
    },
    {
      "midi": 61,
      "time": 10.25,
      "duration": 0.25,
      "velocity": 0.71,
      "hand": "right"
    },
    {
      "midi": 64,
      "time": 10.5,
      "duration": 0.25,
      "velocity": 0.71,
      "hand": "right"
    },
    {
      "midi": 66,
      "time": 10.75,
      "duration": 0.25,
      "velocity": 0.71,
      "hand": "right"
    },
    {
      "midi": 80,
      "time": 11,
      "duration": 1,
      "velocity": 0.71,
      "hand": "right"
    },
    {
      "midi": 73,
      "time": 11.25,
      "duration": 0.25,
      "velocity": 0.71,
      "hand": "right"
    },
    {
      "midi": 75,
      "time": 11.5,
      "duration": 0.25,
      "velocity": 0.71,
      "hand": "right"
    },
    {
      "midi": 76,
      "time": 11.75,
      "duration": 0.25,
      "velocity": 0.71,
      "hand": "right"
    },
    {
      "midi": 80,
      "time": 12,
      "duration": 2,
      "velocity": 0.71,
      "hand": "right"
    },
    {
      "midi": 73,
      "time": 13.75,
      "duration": 0.25,
      "velocity": 0.71,
      "hand": "right"
    },
    {
      "midi": 63,
      "time": 14,
      "duration": 0.25,
      "velocity": 0.71,
      "hand": "right"
    },
    {
      "midi": 61,
      "time": 14.25,
      "duration": 0.25,
      "velocity": 0.71,
      "hand": "right"
    },
    {
      "midi": 64,
      "time": 14.5,
      "duration": 0.25,
      "velocity": 0.71,
      "hand": "right"
    },
    {
      "midi": 66,
      "time": 14.75,
      "duration": 0.25,
      "velocity": 0.71,
      "hand": "right"
    },
    {
      "midi": 80,
      "time": 15,
      "duration": 0.75,
      "velocity": 0.71,
      "hand": "right"
    },
    {
      "midi": 73,
      "time": 15.25,
      "duration": 0.25,
      "velocity": 0.71,
      "hand": "right"
    },
    {
      "midi": 76,
      "time": 15.5,
      "duration": 0.5,
      "velocity": 0.71,
      "hand": "right"
    },
    {
      "midi": 82,
      "time": 15.75,
      "duration": 0.25,
      "velocity": 0.71,
      "hand": "right"
    },
    {
      "midi": 85,
      "time": 16,
      "duration": 0.75,
      "velocity": 0.71,
      "hand": "right"
    },
    {
      "midi": 83,
      "time": 16.75,
      "duration": 0.25,
      "velocity": 0.71,
      "hand": "right"
    },
    {
      "midi": 63,
      "time": 17.75,
      "duration": 0.25,
      "velocity": 0.71,
      "hand": "right"
    },
    {
      "midi": 61,
      "time": 18,
      "duration": 0.25,
      "velocity": 0.71,
      "hand": "right"
    },
    {
      "midi": 63,
      "time": 18.5,
      "duration": 0.25,
      "velocity": 0.71,
      "hand": "right"
    },
    {
      "midi": 64,
      "time": 18.75,
      "duration": 0.25,
      "velocity": 0.71,
      "hand": "right"
    },
    {
      "midi": 78,
      "time": 19,
      "duration": 1,
      "velocity": 0.71,
      "hand": "right"
    },
    {
      "midi": 71,
      "time": 19.25,
      "duration": 0.25,
      "velocity": 0.71,
      "hand": "right"
    },
    {
      "midi": 73,
      "time": 19.5,
      "duration": 0.25,
      "velocity": 0.71,
      "hand": "right"
    },
    {
      "midi": 74,
      "time": 19.75,
      "duration": 0.25,
      "velocity": 0.71,
      "hand": "right"
    },
    {
      "midi": 78,
      "time": 20,
      "duration": 2,
      "velocity": 0.71,
      "hand": "right"
    },
    {
      "midi": 71,
      "time": 21.75,
      "duration": 0.25,
      "velocity": 0.71,
      "hand": "right"
    },
    {
      "midi": 61,
      "time": 22,
      "duration": 0.25,
      "velocity": 0.71,
      "hand": "right"
    },
    {
      "midi": 62,
      "time": 22.5,
      "duration": 0.25,
      "velocity": 0.71,
      "hand": "right"
    },
    {
      "midi": 64,
      "time": 22.75,
      "duration": 0.25,
      "velocity": 0.71,
      "hand": "right"
    },
    {
      "midi": 78,
      "time": 23,
      "duration": 0.75,
      "velocity": 0.71,
      "hand": "right"
    },
    {
      "midi": 71,
      "time": 23.25,
      "duration": 0.25,
      "velocity": 0.71,
      "hand": "right"
    },
    {
      "midi": 74,
      "time": 23.5,
      "duration": 0.5,
      "velocity": 0.71,
      "hand": "right"
    },
    {
      "midi": 80,
      "time": 23.75,
      "duration": 0.25,
      "velocity": 0.71,
      "hand": "right"
    },
    {
      "midi": 83,
      "time": 24,
      "duration": 0.75,
      "velocity": 0.71,
      "hand": "right"
    },
    {
      "midi": 81,
      "time": 24.75,
      "duration": 0.25,
      "velocity": 0.71,
      "hand": "right"
    },
    {
      "midi": 81,
      "time": 25.5,
      "duration": 0.5,
      "velocity": 0.71,
      "hand": "right"
    },
    {
      "midi": 61,
      "time": 25.75,
      "duration": 0.25,
      "velocity": 0.71,
      "hand": "right"
    },
    {
      "midi": 81,
      "time": 26,
      "duration": 0.5,
      "velocity": 0.71,
      "hand": "right"
    },
    {
      "midi": 80,
      "time": 26.5,
      "duration": 0.5,
      "velocity": 0.71,
      "hand": "right"
    },
    {
      "midi": 61,
      "time": 26.75,
      "duration": 0.25,
      "velocity": 0.71,
      "hand": "right"
    },
    {
      "midi": 78,
      "time": 27,
      "duration": 0.5,
      "velocity": 0.71,
      "hand": "right"
    },
    {
      "midi": 80,
      "time": 27.5,
      "duration": 0.5,
      "velocity": 0.71,
      "hand": "right"
    },
    {
      "midi": 61,
      "time": 27.75,
      "duration": 0.25,
      "velocity": 0.71,
      "hand": "right"
    },
    {
      "midi": 78,
      "time": 28,
      "duration": 1.875,
      "velocity": 0.71,
      "hand": "right"
    },
    {
      "midi": 66,
      "time": 29.75,
      "duration": 0.25,
      "velocity": 0.71,
      "hand": "right"
    },
    {
      "midi": 76,
      "time": 30,
      "duration": 0.5,
      "velocity": 0.71,
      "hand": "right"
    },
    {
      "midi": 74,
      "time": 30.5,
      "duration": 1,
      "velocity": 0.71,
      "hand": "right"
    },
    {
      "midi": 69,
      "time": 31.5,
      "duration": 0.5,
      "velocity": 0.71,
      "hand": "right"
    },
    {
      "midi": 66,
      "time": 31.75,
      "duration": 0.25,
      "velocity": 0.71,
      "hand": "right"
    },
    {
      "midi": 71,
      "time": 32,
      "duration": 2,
      "velocity": 0.71,
      "hand": "right"
    },
    {
      "midi": 64,
      "time": 33.75,
      "duration": 0.25,
      "velocity": 0.71,
      "hand": "right"
    },
    {
      "midi": 69,
      "time": 34,
      "duration": 0.75,
      "velocity": 0.71,
      "hand": "right"
    },
    {
      "midi": 66,
      "time": 34.75,
      "duration": 0.25,
      "velocity": 0.71,
      "hand": "right"
    },
    {
      "midi": 69,
      "time": 35,
      "duration": 1,
      "velocity": 0.71,
      "hand": "right"
    },
    {
      "midi": 69,
      "time": 36,
      "duration": 1,
      "velocity": 0.71,
      "hand": "right"
    },
    {
      "midi": 61,
      "time": 37.5,
      "duration": 0.25,
      "velocity": 0.71,
      "hand": "right"
    },
    {
      "midi": 69,
      "time": 37.75,
      "duration": 0.25,
      "velocity": 0.71,
      "hand": "right"
    },
    {
      "midi": 68,
      "time": 38,
      "duration": 0.25,
      "velocity": 0.71,
      "hand": "right"
    },
    {
      "midi": 66,
      "time": 38.25,
      "duration": 0.25,
      "velocity": 0.71,
      "hand": "right"
    },
    {
      "midi": 69,
      "time": 38.5,
      "duration": 0.25,
      "velocity": 0.71,
      "hand": "right"
    },
    {
      "midi": 71,
      "time": 38.75,
      "duration": 0.25,
      "velocity": 0.71,
      "hand": "right"
    },
    {
      "midi": 85,
      "time": 39,
      "duration": 1,
      "velocity": 0.71,
      "hand": "right"
    },
    {
      "midi": 78,
      "time": 39.25,
      "duration": 0.25,
      "velocity": 0.71,
      "hand": "right"
    },
    {
      "midi": 80,
      "time": 39.5,
      "duration": 0.25,
      "velocity": 0.71,
      "hand": "right"
    },
    {
      "midi": 81,
      "time": 39.75,
      "duration": 0.25,
      "velocity": 0.71,
      "hand": "right"
    },
    {
      "midi": 85,
      "time": 40,
      "duration": 2,
      "velocity": 0.71,
      "hand": "right"
    },
    {
      "midi": 61,
      "time": 41.5,
      "duration": 0.25,
      "velocity": 0.71,
      "hand": "right"
    },
    {
      "midi": 78,
      "time": 41.75,
      "duration": 0.25,
      "velocity": 0.71,
      "hand": "right"
    },
    {
      "midi": 68,
      "time": 42,
      "duration": 0.25,
      "velocity": 0.71,
      "hand": "right"
    },
    {
      "midi": 66,
      "time": 42.25,
      "duration": 0.25,
      "velocity": 0.71,
      "hand": "right"
    },
    {
      "midi": 69,
      "time": 42.5,
      "duration": 0.25,
      "velocity": 0.71,
      "hand": "right"
    },
    {
      "midi": 71,
      "time": 42.75,
      "duration": 0.25,
      "velocity": 0.71,
      "hand": "right"
    },
    {
      "midi": 85,
      "time": 43,
      "duration": 0.75,
      "velocity": 0.71,
      "hand": "right"
    },
    {
      "midi": 78,
      "time": 43.25,
      "duration": 0.25,
      "velocity": 0.71,
      "hand": "right"
    },
    {
      "midi": 81,
      "time": 43.5,
      "duration": 0.5,
      "velocity": 0.71,
      "hand": "right"
    },
    {
      "midi": 87,
      "time": 43.75,
      "duration": 0.25,
      "velocity": 0.71,
      "hand": "right"
    },
    {
      "midi": 90,
      "time": 44,
      "duration": 0.75,
      "velocity": 0.71,
      "hand": "right"
    },
    {
      "midi": 88,
      "time": 44.75,
      "duration": 0.25,
      "velocity": 0.71,
      "hand": "right"
    },
    {
      "midi": 68,
      "time": 45.75,
      "duration": 0.25,
      "velocity": 0.71,
      "hand": "right"
    },
    {
      "midi": 66,
      "time": 46,
      "duration": 0.25,
      "velocity": 0.71,
      "hand": "right"
    },
    {
      "midi": 64,
      "time": 46.25,
      "duration": 0.25,
      "velocity": 0.71,
      "hand": "right"
    },
    {
      "midi": 68,
      "time": 46.5,
      "duration": 0.25,
      "velocity": 0.71,
      "hand": "right"
    },
    {
      "midi": 69,
      "time": 46.75,
      "duration": 0.25,
      "velocity": 0.71,
      "hand": "right"
    },
    {
      "midi": 83,
      "time": 47,
      "duration": 1,
      "velocity": 0.71,
      "hand": "right"
    },
    {
      "midi": 76,
      "time": 47.25,
      "duration": 0.25,
      "velocity": 0.71,
      "hand": "right"
    },
    {
      "midi": 78,
      "time": 47.5,
      "duration": 0.25,
      "velocity": 0.71,
      "hand": "right"
    },
    {
      "midi": 79,
      "time": 47.75,
      "duration": 0.25,
      "velocity": 0.71,
      "hand": "right"
    },
    {
      "midi": 83,
      "time": 48,
      "duration": 2,
      "velocity": 0.71,
      "hand": "right"
    },
    {
      "midi": 76,
      "time": 49.75,
      "duration": 0.25,
      "velocity": 0.71,
      "hand": "right"
    },
    {
      "midi": 66,
      "time": 50,
      "duration": 0.25,
      "velocity": 0.71,
      "hand": "right"
    },
    {
      "midi": 64,
      "time": 50.25,
      "duration": 0.25,
      "velocity": 0.71,
      "hand": "right"
    },
    {
      "midi": 67,
      "time": 50.5,
      "duration": 0.25,
      "velocity": 0.71,
      "hand": "right"
    },
    {
      "midi": 69,
      "time": 50.75,
      "duration": 0.25,
      "velocity": 0.71,
      "hand": "right"
    },
    {
      "midi": 83,
      "time": 51,
      "duration": 0.75,
      "velocity": 0.71,
      "hand": "right"
    },
    {
      "midi": 76,
      "time": 51.25,
      "duration": 0.25,
      "velocity": 0.71,
      "hand": "right"
    },
    {
      "midi": 79,
      "time": 51.5,
      "duration": 0.25,
      "velocity": 0.71,
      "hand": "right"
    },
    {
      "midi": 85,
      "time": 51.75,
      "duration": 0.25,
      "velocity": 0.71,
      "hand": "right"
    },
    {
      "midi": 86,
      "time": 52.5,
      "duration": 1,
      "velocity": 0.71,
      "hand": "right"
    },
    {
      "midi": 62,
      "time": 52.75,
      "duration": 0.25,
      "velocity": 0.71,
      "hand": "right"
    },
    {
      "midi": 60,
      "time": 53,
      "duration": 0.25,
      "velocity": 0.71,
      "hand": "right"
    },
    {
      "midi": 84,
      "time": 53.5,
      "duration": 0.5,
      "velocity": 0.71,
      "hand": "right"
    },
    {
      "midi": 74,
      "time": 53.75,
      "duration": 0.25,
      "velocity": 0.71,
      "hand": "right"
    },
    {
      "midi": 84,
      "time": 54,
      "duration": 0.5,
      "velocity": 0.71,
      "hand": "right"
    },
    {
      "midi": 82,
      "time": 54.5,
      "duration": 0.5,
      "velocity": 0.71,
      "hand": "right"
    },
    {
      "midi": 79,
      "time": 55,
      "duration": 0.5,
      "velocity": 0.71,
      "hand": "right"
    },
    {
      "midi": 82,
      "time": 55.5,
      "duration": 0.5,
      "velocity": 0.71,
      "hand": "right"
    },
    {
      "midi": 67,
      "time": 55.75,
      "duration": 0.25,
      "velocity": 0.71,
      "hand": "right"
    },
    {
      "midi": 77,
      "time": 56,
      "duration": 2,
      "velocity": 0.71,
      "hand": "right"
    },
    {
      "midi": 63,
      "time": 57.5,
      "duration": 0.25,
      "velocity": 0.71,
      "hand": "right"
    },
    {
      "midi": 62,
      "time": 57.75,
      "duration": 0.25,
      "velocity": 0.71,
      "hand": "right"
    },
    {
      "midi": 77,
      "time": 58,
      "duration": 1.75,
      "velocity": 0.71,
      "hand": "right"
    },
    {
      "midi": 62,
      "time": 59.5,
      "duration": 0.25,
      "velocity": 0.71,
      "hand": "right"
    },
    {
      "midi": 75,
      "time": 59.75,
      "duration": 0.25,
      "velocity": 0.71,
      "hand": "right"
    },
    {
      "midi": 73,
      "time": 60,
      "duration": 0.5,
      "velocity": 0.71,
      "hand": "right"
    },
    {
      "midi": 82,
      "time": 61,
      "duration": 1,
      "velocity": 0.71,
      "hand": "right"
    },
    {
      "midi": 61,
      "time": 61.5,
      "duration": 0.25,
      "velocity": 0.71,
      "hand": "right"
    },
    {
      "midi": 70,
      "time": 61.75,
      "duration": 0.25,
      "velocity": 0.71,
      "hand": "right"
    },
    {
      "midi": 80,
      "time": 62,
      "duration": 0.5,
      "velocity": 0.71,
      "hand": "right"
    },
    {
      "midi": 78,
      "time": 62.5,
      "duration": 0.5,
      "velocity": 0.71,
      "hand": "right"
    },
    {
      "midi": 75,
      "time": 63,
      "duration": 0.5,
      "velocity": 0.71,
      "hand": "right"
    },
    {
      "midi": 78,
      "time": 63.5,
      "duration": 0.5,
      "velocity": 0.71,
      "hand": "right"
    },
    {
      "midi": 63,
      "time": 63.75,
      "duration": 0.25,
      "velocity": 0.71,
      "hand": "right"
    },
    {
      "midi": 73,
      "time": 64,
      "duration": 1,
      "velocity": 0.71,
      "hand": "right"
    },
    {
      "midi": 75,
      "time": 65,
      "duration": 1,
      "velocity": 0.71,
      "hand": "right"
    },
    {
      "midi": 75,
      "time": 66,
      "duration": 1.5,
      "velocity": 0.71,
      "hand": "right"
    },
    {
      "midi": 77,
      "time": 67.5,
      "duration": 0.5,
      "velocity": 0.71,
      "hand": "right"
    },
    {
      "midi": 61,
      "time": 67.75,
      "duration": 0.25,
      "velocity": 0.71,
      "hand": "right"
    },
    {
      "midi": 77,
      "time": 68,
      "duration": 0.75,
      "velocity": 0.71,
      "hand": "right"
    },
    {
      "midi": 78,
      "time": 68.75,
      "duration": 0.25,
      "velocity": 0.71,
      "hand": "right"
    },
    {
      "midi": 61,
      "time": 69.5,
      "duration": 0.25,
      "velocity": 0.71,
      "hand": "right"
    },
    {
      "midi": 70,
      "time": 69.75,
      "duration": 0.25,
      "velocity": 0.71,
      "hand": "right"
    },
    {
      "midi": 68,
      "time": 70,
      "duration": 0.25,
      "velocity": 0.71,
      "hand": "right"
    },
    {
      "midi": 66,
      "time": 70.25,
      "duration": 0.25,
      "velocity": 0.71,
      "hand": "right"
    },
    {
      "midi": 70,
      "time": 70.5,
      "duration": 0.25,
      "velocity": 0.71,
      "hand": "right"
    },
    {
      "midi": 71,
      "time": 70.75,
      "duration": 0.25,
      "velocity": 0.71,
      "hand": "right"
    },
    {
      "midi": 85,
      "time": 71,
      "duration": 0.875,
      "velocity": 0.71,
      "hand": "right"
    },
    {
      "midi": 76,
      "time": 71.25,
      "duration": 0.25,
      "velocity": 0.71,
      "hand": "right"
    },
    {
      "midi": 82,
      "time": 71.5,
      "duration": 0.25,
      "velocity": 0.71,
      "hand": "right"
    },
    {
      "midi": 80,
      "time": 71.75,
      "duration": 0.25,
      "velocity": 0.71,
      "hand": "right"
    },
    {
      "midi": 85,
      "time": 72,
      "duration": 2,
      "velocity": 0.71,
      "hand": "right"
    },
    {
      "midi": 61,
      "time": 73.5,
      "duration": 0.25,
      "velocity": 0.71,
      "hand": "right"
    },
    {
      "midi": 78,
      "time": 73.75,
      "duration": 0.25,
      "velocity": 0.71,
      "hand": "right"
    },
    {
      "midi": 68,
      "time": 74,
      "duration": 0.25,
      "velocity": 0.71,
      "hand": "right"
    },
    {
      "midi": 66,
      "time": 74.25,
      "duration": 0.25,
      "velocity": 0.71,
      "hand": "right"
    },
    {
      "midi": 70,
      "time": 74.5,
      "duration": 0.25,
      "velocity": 0.71,
      "hand": "right"
    },
    {
      "midi": 71,
      "time": 74.75,
      "duration": 0.25,
      "velocity": 0.71,
      "hand": "right"
    },
    {
      "midi": 85,
      "time": 75,
      "duration": 0.75,
      "velocity": 0.71,
      "hand": "right"
    },
    {
      "midi": 76,
      "time": 75.25,
      "duration": 0.25,
      "velocity": 0.71,
      "hand": "right"
    },
    {
      "midi": 82,
      "time": 75.5,
      "duration": 0.25,
      "velocity": 0.71,
      "hand": "right"
    },
    {
      "midi": 86,
      "time": 75.75,
      "duration": 0.25,
      "velocity": 0.71,
      "hand": "right"
    },
    {
      "midi": 87,
      "time": 76,
      "duration": 1,
      "velocity": 0.71,
      "hand": "right"
    },
    {
      "midi": 82,
      "time": 77,
      "duration": 0.5,
      "velocity": 0.71,
      "hand": "right"
    },
    {
      "midi": 67,
      "time": 77.75,
      "duration": 0.25,
      "velocity": 0.71,
      "hand": "right"
    },
    {
      "midi": 65,
      "time": 78,
      "duration": 0.25,
      "velocity": 0.71,
      "hand": "right"
    },
    {
      "midi": 63,
      "time": 78.25,
      "duration": 0.25,
      "velocity": 0.71,
      "hand": "right"
    },
    {
      "midi": 67,
      "time": 78.5,
      "duration": 0.25,
      "velocity": 0.71,
      "hand": "right"
    },
    {
      "midi": 68,
      "time": 78.75,
      "duration": 0.25,
      "velocity": 0.71,
      "hand": "right"
    },
    {
      "midi": 82,
      "time": 79,
      "duration": 0.875,
      "velocity": 0.71,
      "hand": "right"
    },
    {
      "midi": 75,
      "time": 79.25,
      "duration": 0.25,
      "velocity": 0.71,
      "hand": "right"
    },
    {
      "midi": 79,
      "time": 79.5,
      "duration": 0.25,
      "velocity": 0.71,
      "hand": "right"
    },
    {
      "midi": 77,
      "time": 79.75,
      "duration": 0.25,
      "velocity": 0.71,
      "hand": "right"
    },
    {
      "midi": 82,
      "time": 80,
      "duration": 2,
      "velocity": 0.71,
      "hand": "right"
    },
    {
      "midi": 75,
      "time": 81.75,
      "duration": 0.25,
      "velocity": 0.71,
      "hand": "right"
    },
    {
      "midi": 65,
      "time": 82,
      "duration": 0.25,
      "velocity": 0.71,
      "hand": "right"
    },
    {
      "midi": 63,
      "time": 82.25,
      "duration": 0.25,
      "velocity": 0.71,
      "hand": "right"
    },
    {
      "midi": 67,
      "time": 82.5,
      "duration": 0.25,
      "velocity": 0.71,
      "hand": "right"
    },
    {
      "midi": 68,
      "time": 82.75,
      "duration": 0.25,
      "velocity": 0.71,
      "hand": "right"
    },
    {
      "midi": 82,
      "time": 83,
      "duration": 0.75,
      "velocity": 0.71,
      "hand": "right"
    },
    {
      "midi": 75,
      "time": 83.25,
      "duration": 0.25,
      "velocity": 0.71,
      "hand": "right"
    },
    {
      "midi": 79,
      "time": 83.5,
      "duration": 0.5,
      "velocity": 0.71,
      "hand": "right"
    },
    {
      "midi": 83,
      "time": 83.75,
      "duration": 0.25,
      "velocity": 0.71,
      "hand": "right"
    },
    {
      "midi": 84,
      "time": 84.5,
      "duration": 0.5,
      "velocity": 0.71,
      "hand": "right"
    },
    {
      "midi": 60,
      "time": 84.75,
      "duration": 0.25,
      "velocity": 0.71,
      "hand": "right"
    },
    {
      "midi": 63,
      "time": 85.5,
      "duration": 0.25,
      "velocity": 0.71,
      "hand": "right"
    },
    {
      "midi": 72,
      "time": 85.75,
      "duration": 0.25,
      "velocity": 0.71,
      "hand": "right"
    },
    {
      "midi": 70,
      "time": 86,
      "duration": 0.25,
      "velocity": 0.71,
      "hand": "right"
    },
    {
      "midi": 68,
      "time": 86.25,
      "duration": 0.25,
      "velocity": 0.71,
      "hand": "right"
    },
    {
      "midi": 72,
      "time": 86.5,
      "duration": 0.25,
      "velocity": 0.71,
      "hand": "right"
    },
    {
      "midi": 73,
      "time": 86.75,
      "duration": 0.25,
      "velocity": 0.71,
      "hand": "right"
    },
    {
      "midi": 87,
      "time": 87,
      "duration": 0.875,
      "velocity": 0.71,
      "hand": "right"
    },
    {
      "midi": 78,
      "time": 87.25,
      "duration": 0.25,
      "velocity": 0.71,
      "hand": "right"
    },
    {
      "midi": 84,
      "time": 87.5,
      "duration": 0.25,
      "velocity": 0.71,
      "hand": "right"
    },
    {
      "midi": 82,
      "time": 87.75,
      "duration": 0.25,
      "velocity": 0.71,
      "hand": "right"
    },
    {
      "midi": 87,
      "time": 88,
      "duration": 2,
      "velocity": 0.71,
      "hand": "right"
    },
    {
      "midi": 60,
      "time": 88.75,
      "duration": 0.25,
      "velocity": 0.71,
      "hand": "right"
    },
    {
      "midi": 63,
      "time": 89.5,
      "duration": 0.25,
      "velocity": 0.71,
      "hand": "right"
    },
    {
      "midi": 80,
      "time": 89.75,
      "duration": 0.25,
      "velocity": 0.71,
      "hand": "right"
    },
    {
      "midi": 70,
      "time": 90,
      "duration": 0.25,
      "velocity": 0.71,
      "hand": "right"
    },
    {
      "midi": 68,
      "time": 90.25,
      "duration": 0.25,
      "velocity": 0.71,
      "hand": "right"
    },
    {
      "midi": 72,
      "time": 90.5,
      "duration": 0.25,
      "velocity": 0.71,
      "hand": "right"
    },
    {
      "midi": 73,
      "time": 90.75,
      "duration": 0.25,
      "velocity": 0.71,
      "hand": "right"
    },
    {
      "midi": 87,
      "time": 91,
      "duration": 0.75,
      "velocity": 0.71,
      "hand": "right"
    },
    {
      "midi": 78,
      "time": 91.25,
      "duration": 0.25,
      "velocity": 0.71,
      "hand": "right"
    },
    {
      "midi": 84,
      "time": 91.5,
      "duration": 0.25,
      "velocity": 0.71,
      "hand": "right"
    },
    {
      "midi": 88,
      "time": 91.75,
      "duration": 0.25,
      "velocity": 0.71,
      "hand": "right"
    },
    {
      "midi": 89,
      "time": 92,
      "duration": 1,
      "velocity": 0.71,
      "hand": "right"
    },
    {
      "midi": 84,
      "time": 93,
      "duration": 0.5,
      "velocity": 0.71,
      "hand": "right"
    },
    {
      "midi": 60,
      "time": 93.5,
      "duration": 0.25,
      "velocity": 0.71,
      "hand": "right"
    },
    {
      "midi": 69,
      "time": 93.75,
      "duration": 0.25,
      "velocity": 0.71,
      "hand": "right"
    },
    {
      "midi": 67,
      "time": 94,
      "duration": 0.25,
      "velocity": 0.71,
      "hand": "right"
    },
    {
      "midi": 65,
      "time": 94.25,
      "duration": 0.25,
      "velocity": 0.71,
      "hand": "right"
    },
    {
      "midi": 69,
      "time": 94.5,
      "duration": 0.25,
      "velocity": 0.71,
      "hand": "right"
    },
    {
      "midi": 70,
      "time": 94.75,
      "duration": 0.25,
      "velocity": 0.71,
      "hand": "right"
    },
    {
      "midi": 84,
      "time": 95,
      "duration": 0.875,
      "velocity": 0.71,
      "hand": "right"
    },
    {
      "midi": 77,
      "time": 95.25,
      "duration": 0.25,
      "velocity": 0.71,
      "hand": "right"
    },
    {
      "midi": 81,
      "time": 95.5,
      "duration": 0.25,
      "velocity": 0.71,
      "hand": "right"
    },
    {
      "midi": 79,
      "time": 95.75,
      "duration": 0.25,
      "velocity": 0.71,
      "hand": "right"
    },
    {
      "midi": 84,
      "time": 96,
      "duration": 2,
      "velocity": 0.71,
      "hand": "right"
    },
    {
      "midi": 60,
      "time": 97.5,
      "duration": 0.25,
      "velocity": 0.71,
      "hand": "right"
    },
    {
      "midi": 77,
      "time": 97.75,
      "duration": 0.25,
      "velocity": 0.71,
      "hand": "right"
    },
    {
      "midi": 67,
      "time": 98,
      "duration": 0.25,
      "velocity": 0.71,
      "hand": "right"
    },
    {
      "midi": 65,
      "time": 98.25,
      "duration": 0.25,
      "velocity": 0.71,
      "hand": "right"
    },
    {
      "midi": 69,
      "time": 98.5,
      "duration": 0.25,
      "velocity": 0.71,
      "hand": "right"
    },
    {
      "midi": 70,
      "time": 98.75,
      "duration": 0.25,
      "velocity": 0.71,
      "hand": "right"
    },
    {
      "midi": 84,
      "time": 99,
      "duration": 0.75,
      "velocity": 0.71,
      "hand": "right"
    },
    {
      "midi": 77,
      "time": 99.25,
      "duration": 0.25,
      "velocity": 0.71,
      "hand": "right"
    },
    {
      "midi": 81,
      "time": 99.5,
      "duration": 0.5,
      "velocity": 0.71,
      "hand": "right"
    },
    {
      "midi": 85,
      "time": 99.75,
      "duration": 0.25,
      "velocity": 0.71,
      "hand": "right"
    },
    {
      "midi": 61,
      "time": 101.5,
      "duration": 0.25,
      "velocity": 0.71,
      "hand": "right"
    },
    {
      "midi": 69,
      "time": 101.75,
      "duration": 0.25,
      "velocity": 0.71,
      "hand": "right"
    },
    {
      "midi": 83,
      "time": 102,
      "duration": 0.5,
      "velocity": 0.71,
      "hand": "right"
    },
    {
      "midi": 81,
      "time": 102.5,
      "duration": 0.5,
      "velocity": 0.71,
      "hand": "right"
    },
    {
      "midi": 78,
      "time": 103,
      "duration": 0.5,
      "velocity": 0.71,
      "hand": "right"
    },
    {
      "midi": 81,
      "time": 103.5,
      "duration": 0.5,
      "velocity": 0.71,
      "hand": "right"
    },
    {
      "midi": 69,
      "time": 103.75,
      "duration": 0.25,
      "velocity": 0.71,
      "hand": "right"
    },
    {
      "midi": 76,
      "time": 104,
      "duration": 2,
      "velocity": 0.71,
      "hand": "right"
    },
    {
      "midi": 62,
      "time": 105.5,
      "duration": 0.25,
      "velocity": 0.71,
      "hand": "right"
    },
    {
      "midi": 61,
      "time": 105.75,
      "duration": 0.25,
      "velocity": 0.71,
      "hand": "right"
    },
    {
      "midi": 76,
      "time": 106,
      "duration": 1.75,
      "velocity": 0.71,
      "hand": "right"
    },
    {
      "midi": 61,
      "time": 107.5,
      "duration": 0.25,
      "velocity": 0.71,
      "hand": "right"
    },
    {
      "midi": 74,
      "time": 107.75,
      "duration": 0.25,
      "velocity": 0.71,
      "hand": "right"
    },
    {
      "midi": 72,
      "time": 108.5,
      "duration": 1,
      "velocity": 0.71,
      "hand": "right"
    },
    {
      "midi": 81,
      "time": 109.5,
      "duration": 0.5,
      "velocity": 0.71,
      "hand": "right"
    },
    {
      "midi": 69,
      "time": 109.75,
      "duration": 0.25,
      "velocity": 0.71,
      "hand": "right"
    },
    {
      "midi": 79,
      "time": 110,
      "duration": 0.5,
      "velocity": 0.71,
      "hand": "right"
    },
    {
      "midi": 77,
      "time": 110.5,
      "duration": 0.5,
      "velocity": 0.71,
      "hand": "right"
    },
    {
      "midi": 74,
      "time": 111,
      "duration": 0.5,
      "velocity": 0.71,
      "hand": "right"
    },
    {
      "midi": 77,
      "time": 111.5,
      "duration": 0.5,
      "velocity": 0.71,
      "hand": "right"
    },
    {
      "midi": 62,
      "time": 111.75,
      "duration": 0.25,
      "velocity": 0.71,
      "hand": "right"
    },
    {
      "midi": 72,
      "time": 112,
      "duration": 1,
      "velocity": 0.71,
      "hand": "right"
    },
    {
      "midi": 74,
      "time": 113,
      "duration": 1,
      "velocity": 0.71,
      "hand": "right"
    },
    {
      "midi": 74,
      "time": 114,
      "duration": 1.5,
      "velocity": 0.71,
      "hand": "right"
    },
    {
      "midi": 76,
      "time": 115.5,
      "duration": 0.5,
      "velocity": 0.71,
      "hand": "right"
    },
    {
      "midi": 60,
      "time": 115.75,
      "duration": 0.25,
      "velocity": 0.71,
      "hand": "right"
    },
    {
      "midi": 76,
      "time": 116,
      "duration": 0.75,
      "velocity": 0.71,
      "hand": "right"
    },
    {
      "midi": 77,
      "time": 116.75,
      "duration": 0.25,
      "velocity": 0.71,
      "hand": "right"
    },
    {
      "midi": 60,
      "time": 117.5,
      "duration": 0.25,
      "velocity": 0.71,
      "hand": "right"
    },
    {
      "midi": 69,
      "time": 117.75,
      "duration": 0.25,
      "velocity": 0.71,
      "hand": "right"
    },
    {
      "midi": 65,
      "time": 118,
      "duration": 0.25,
      "velocity": 0.71,
      "hand": "right"
    },
    {
      "midi": 60,
      "time": 118.25,
      "duration": 0.25,
      "velocity": 0.71,
      "hand": "right"
    },
    {
      "midi": 61,
      "time": 118.75,
      "duration": 0.25,
      "velocity": 0.71,
      "hand": "right"
    },
    {
      "midi": 60,
      "time": 119,
      "duration": 0.25,
      "velocity": 0.71,
      "hand": "right"
    },
    {
      "midi": 69,
      "time": 119.75,
      "duration": 0.25,
      "velocity": 0.71,
      "hand": "right"
    },
    {
      "midi": 65,
      "time": 120,
      "duration": 0.25,
      "velocity": 0.71,
      "hand": "right"
    },
    {
      "midi": 60,
      "time": 120.25,
      "duration": 0.25,
      "velocity": 0.71,
      "hand": "right"
    },
    {
      "midi": 61,
      "time": 120.75,
      "duration": 0.25,
      "velocity": 0.71,
      "hand": "right"
    },
    {
      "midi": 60,
      "time": 121,
      "duration": 0.25,
      "velocity": 0.71,
      "hand": "right"
    },
    {
      "midi": 65,
      "time": 125,
      "duration": 1,
      "velocity": 0.71,
      "hand": "right"
    },
    {
      "midi": 60,
      "time": 125.75,
      "duration": 0.25,
      "velocity": 0.71,
      "hand": "right"
    },
    {
      "midi": 66,
      "time": 127,
      "duration": 1,
      "velocity": 0.71,
      "hand": "right"
    },
    {
      "midi": 60,
      "time": 127.5,
      "duration": 0.25,
      "velocity": 0.71,
      "hand": "right"
    },
    {
      "midi": 61,
      "time": 127.75,
      "duration": 0.25,
      "velocity": 0.71,
      "hand": "right"
    },
    {
      "midi": 67,
      "time": 129,
      "duration": 1,
      "velocity": 0.71,
      "hand": "right"
    },
    {
      "midi": 61,
      "time": 129.25,
      "duration": 0.25,
      "velocity": 0.71,
      "hand": "right"
    },
    {
      "midi": 63,
      "time": 129.5,
      "duration": 0.25,
      "velocity": 0.71,
      "hand": "right"
    },
    {
      "midi": 64,
      "time": 129.75,
      "duration": 0.25,
      "velocity": 0.71,
      "hand": "right"
    },
    {
      "midi": 68,
      "time": 131,
      "duration": 1,
      "velocity": 0.71,
      "hand": "right"
    },
    {
      "midi": 60,
      "time": 131.25,
      "duration": 0.25,
      "velocity": 0.71,
      "hand": "right"
    },
    {
      "midi": 64,
      "time": 131.5,
      "duration": 0.25,
      "velocity": 0.71,
      "hand": "right"
    },
    {
      "midi": 63,
      "time": 131.75,
      "duration": 0.25,
      "velocity": 0.71,
      "hand": "right"
    },
    {
      "midi": 61,
      "time": 132.75,
      "duration": 0.25,
      "velocity": 0.71,
      "hand": "right"
    },
    {
      "midi": 64,
      "time": 133.75,
      "duration": 0.25,
      "velocity": 0.71,
      "hand": "right"
    },
    {
      "midi": 63,
      "time": 134,
      "duration": 0.25,
      "velocity": 0.71,
      "hand": "right"
    },
    {
      "midi": 61,
      "time": 134.25,
      "duration": 0.25,
      "velocity": 0.71,
      "hand": "right"
    },
    {
      "midi": 64,
      "time": 134.5,
      "duration": 0.25,
      "velocity": 0.71,
      "hand": "right"
    },
    {
      "midi": 66,
      "time": 134.75,
      "duration": 0.25,
      "velocity": 0.71,
      "hand": "right"
    },
    {
      "midi": 80,
      "time": 135,
      "duration": 1,
      "velocity": 0.71,
      "hand": "right"
    },
    {
      "midi": 73,
      "time": 135.25,
      "duration": 0.25,
      "velocity": 0.71,
      "hand": "right"
    },
    {
      "midi": 75,
      "time": 135.5,
      "duration": 0.25,
      "velocity": 0.71,
      "hand": "right"
    },
    {
      "midi": 76,
      "time": 135.75,
      "duration": 0.25,
      "velocity": 0.71,
      "hand": "right"
    },
    {
      "midi": 80,
      "time": 136,
      "duration": 2,
      "velocity": 0.71,
      "hand": "right"
    },
    {
      "midi": 73,
      "time": 137.75,
      "duration": 0.25,
      "velocity": 0.71,
      "hand": "right"
    },
    {
      "midi": 63,
      "time": 138,
      "duration": 0.25,
      "velocity": 0.71,
      "hand": "right"
    },
    {
      "midi": 61,
      "time": 138.25,
      "duration": 0.25,
      "velocity": 0.71,
      "hand": "right"
    },
    {
      "midi": 64,
      "time": 138.5,
      "duration": 0.25,
      "velocity": 0.71,
      "hand": "right"
    },
    {
      "midi": 66,
      "time": 138.75,
      "duration": 0.25,
      "velocity": 0.71,
      "hand": "right"
    },
    {
      "midi": 80,
      "time": 139,
      "duration": 0.75,
      "velocity": 0.71,
      "hand": "right"
    },
    {
      "midi": 73,
      "time": 139.25,
      "duration": 0.25,
      "velocity": 0.71,
      "hand": "right"
    },
    {
      "midi": 76,
      "time": 139.5,
      "duration": 0.5,
      "velocity": 0.71,
      "hand": "right"
    },
    {
      "midi": 82,
      "time": 139.75,
      "duration": 0.25,
      "velocity": 0.71,
      "hand": "right"
    },
    {
      "midi": 85,
      "time": 140,
      "duration": 0.75,
      "velocity": 0.71,
      "hand": "right"
    },
    {
      "midi": 83,
      "time": 140.75,
      "duration": 0.25,
      "velocity": 0.71,
      "hand": "right"
    },
    {
      "midi": 63,
      "time": 141.75,
      "duration": 0.25,
      "velocity": 0.71,
      "hand": "right"
    },
    {
      "midi": 61,
      "time": 142,
      "duration": 0.25,
      "velocity": 0.71,
      "hand": "right"
    },
    {
      "midi": 63,
      "time": 142.5,
      "duration": 0.25,
      "velocity": 0.71,
      "hand": "right"
    },
    {
      "midi": 64,
      "time": 142.75,
      "duration": 0.25,
      "velocity": 0.71,
      "hand": "right"
    },
    {
      "midi": 78,
      "time": 143,
      "duration": 1,
      "velocity": 0.71,
      "hand": "right"
    },
    {
      "midi": 71,
      "time": 143.25,
      "duration": 0.25,
      "velocity": 0.71,
      "hand": "right"
    },
    {
      "midi": 73,
      "time": 143.5,
      "duration": 0.25,
      "velocity": 0.71,
      "hand": "right"
    },
    {
      "midi": 74,
      "time": 143.75,
      "duration": 0.25,
      "velocity": 0.71,
      "hand": "right"
    },
    {
      "midi": 78,
      "time": 144,
      "duration": 2,
      "velocity": 0.71,
      "hand": "right"
    },
    {
      "midi": 71,
      "time": 145.75,
      "duration": 0.25,
      "velocity": 0.71,
      "hand": "right"
    },
    {
      "midi": 61,
      "time": 146,
      "duration": 0.25,
      "velocity": 0.71,
      "hand": "right"
    },
    {
      "midi": 62,
      "time": 146.5,
      "duration": 0.25,
      "velocity": 0.71,
      "hand": "right"
    },
    {
      "midi": 64,
      "time": 146.75,
      "duration": 0.25,
      "velocity": 0.71,
      "hand": "right"
    },
    {
      "midi": 78,
      "time": 147,
      "duration": 0.75,
      "velocity": 0.71,
      "hand": "right"
    },
    {
      "midi": 71,
      "time": 147.25,
      "duration": 0.25,
      "velocity": 0.71,
      "hand": "right"
    },
    {
      "midi": 74,
      "time": 147.5,
      "duration": 0.5,
      "velocity": 0.71,
      "hand": "right"
    },
    {
      "midi": 80,
      "time": 147.75,
      "duration": 0.25,
      "velocity": 0.71,
      "hand": "right"
    },
    {
      "midi": 83,
      "time": 148,
      "duration": 0.5,
      "velocity": 0.71,
      "hand": "right"
    },
    {
      "midi": 81,
      "time": 148.5,
      "duration": 1,
      "velocity": 0.71,
      "hand": "right"
    },
    {
      "midi": 80,
      "time": 149.5,
      "duration": 0.5,
      "velocity": 0.71,
      "hand": "right"
    },
    {
      "midi": 61,
      "time": 149.75,
      "duration": 0.25,
      "velocity": 0.71,
      "hand": "right"
    },
    {
      "midi": 80,
      "time": 150,
      "duration": 1.75,
      "velocity": 0.71,
      "hand": "right"
    },
    {
      "midi": 61,
      "time": 150.5,
      "duration": 0.25,
      "velocity": 0.71,
      "hand": "right"
    },
    {
      "midi": 66,
      "time": 150.75,
      "duration": 0.25,
      "velocity": 0.71,
      "hand": "right"
    },
    {
      "midi": 64,
      "time": 151,
      "duration": 0.25,
      "velocity": 0.71,
      "hand": "right"
    },
    {
      "midi": 61,
      "time": 151.25,
      "duration": 0.25,
      "velocity": 0.71,
      "hand": "right"
    },
    {
      "midi": 79,
      "time": 151.75,
      "duration": 0.25,
      "velocity": 0.71,
      "hand": "right"
    },
    {
      "midi": 61,
      "time": 152,
      "duration": 0.25,
      "velocity": 0.71,
      "hand": "right"
    },
    {
      "midi": 66,
      "time": 152.75,
      "duration": 0.25,
      "velocity": 0.71,
      "hand": "right"
    },
    {
      "midi": 64,
      "time": 153,
      "duration": 0.25,
      "velocity": 0.71,
      "hand": "right"
    },
    {
      "midi": 61,
      "time": 153.25,
      "duration": 0.25,
      "velocity": 0.71,
      "hand": "right"
    },
    {
      "midi": 63,
      "time": 153.75,
      "duration": 0.25,
      "velocity": 0.71,
      "hand": "right"
    },
    {
      "midi": 61,
      "time": 154,
      "duration": 0.25,
      "velocity": 0.71,
      "hand": "right"
    },
    {
      "midi": 67,
      "time": 155,
      "duration": 1,
      "velocity": 0.71,
      "hand": "right"
    },
    {
      "midi": 73,
      "time": 155.25,
      "duration": 0.25,
      "velocity": 0.71,
      "hand": "right"
    },
    {
      "midi": 75,
      "time": 155.5,
      "duration": 0.25,
      "velocity": 0.71,
      "hand": "right"
    },
    {
      "midi": 76,
      "time": 155.75,
      "duration": 0.25,
      "velocity": 0.71,
      "hand": "right"
    },
    {
      "midi": 81,
      "time": 156,
      "duration": 2,
      "velocity": 0.71,
      "hand": "right"
    },
    {
      "midi": 73,
      "time": 156.75,
      "duration": 0.25,
      "velocity": 0.71,
      "hand": "right"
    },
    {
      "midi": 76,
      "time": 158,
      "duration": 0.25,
      "velocity": 0.71,
      "hand": "right"
    },
    {
      "midi": 81,
      "time": 158.25,
      "duration": 0.25,
      "velocity": 0.71,
      "hand": "right"
    },
    {
      "midi": 75,
      "time": 158.5,
      "duration": 0.25,
      "velocity": 0.71,
      "hand": "right"
    },
    {
      "midi": 81,
      "time": 158.75,
      "duration": 0.25,
      "velocity": 0.71,
      "hand": "right"
    },
    {
      "midi": 75,
      "time": 159,
      "duration": 0.25,
      "velocity": 0.71,
      "hand": "right"
    },
    {
      "midi": 80,
      "time": 159.25,
      "duration": 0.25,
      "velocity": 0.71,
      "hand": "right"
    },
    {
      "midi": 74,
      "time": 159.5,
      "duration": 0.25,
      "velocity": 0.71,
      "hand": "right"
    },
    {
      "midi": 80,
      "time": 159.75,
      "duration": 0.25,
      "velocity": 0.71,
      "hand": "right"
    },
    {
      "midi": 74,
      "time": 160,
      "duration": 0.25,
      "velocity": 0.71,
      "hand": "right"
    },
    {
      "midi": 79,
      "time": 160.25,
      "duration": 0.25,
      "velocity": 0.71,
      "hand": "right"
    },
    {
      "midi": 73,
      "time": 160.5,
      "duration": 0.25,
      "velocity": 0.71,
      "hand": "right"
    },
    {
      "midi": 79,
      "time": 160.75,
      "duration": 0.25,
      "velocity": 0.71,
      "hand": "right"
    },
    {
      "midi": 73,
      "time": 161,
      "duration": 0.25,
      "velocity": 0.71,
      "hand": "right"
    },
    {
      "midi": 78,
      "time": 161.25,
      "duration": 0.25,
      "velocity": 0.71,
      "hand": "right"
    },
    {
      "midi": 72,
      "time": 161.5,
      "duration": 0.25,
      "velocity": 0.71,
      "hand": "right"
    },
    {
      "midi": 78,
      "time": 161.75,
      "duration": 0.25,
      "velocity": 0.71,
      "hand": "right"
    },
    {
      "midi": 72,
      "time": 162,
      "duration": 0.25,
      "velocity": 0.71,
      "hand": "right"
    },
    {
      "midi": 77,
      "time": 162.25,
      "duration": 0.25,
      "velocity": 0.71,
      "hand": "right"
    },
    {
      "midi": 71,
      "time": 162.5,
      "duration": 0.25,
      "velocity": 0.71,
      "hand": "right"
    },
    {
      "midi": 77,
      "time": 162.75,
      "duration": 0.25,
      "velocity": 0.71,
      "hand": "right"
    },
    {
      "midi": 71,
      "time": 163,
      "duration": 0.25,
      "velocity": 0.71,
      "hand": "right"
    },
    {
      "midi": 76,
      "time": 163.25,
      "duration": 0.25,
      "velocity": 0.71,
      "hand": "right"
    },
    {
      "midi": 70,
      "time": 163.5,
      "duration": 0.25,
      "velocity": 0.71,
      "hand": "right"
    },
    {
      "midi": 76,
      "time": 163.75,
      "duration": 0.25,
      "velocity": 0.71,
      "hand": "right"
    },
    {
      "midi": 70,
      "time": 164,
      "duration": 0.25,
      "velocity": 0.71,
      "hand": "right"
    },
    {
      "midi": 75,
      "time": 164.25,
      "duration": 0.25,
      "velocity": 0.71,
      "hand": "right"
    },
    {
      "midi": 69,
      "time": 164.5,
      "duration": 0.25,
      "velocity": 0.71,
      "hand": "right"
    },
    {
      "midi": 75,
      "time": 164.75,
      "duration": 0.25,
      "velocity": 0.71,
      "hand": "right"
    },
    {
      "midi": 69,
      "time": 165,
      "duration": 0.25,
      "velocity": 0.71,
      "hand": "right"
    },
    {
      "midi": 74,
      "time": 165.25,
      "duration": 0.25,
      "velocity": 0.71,
      "hand": "right"
    },
    {
      "midi": 68,
      "time": 165.5,
      "duration": 0.25,
      "velocity": 0.71,
      "hand": "right"
    },
    {
      "midi": 74,
      "time": 165.75,
      "duration": 0.25,
      "velocity": 0.71,
      "hand": "right"
    },
    {
      "midi": 68,
      "time": 166,
      "duration": 0.25,
      "velocity": 0.71,
      "hand": "right"
    },
    {
      "midi": 73,
      "time": 166.25,
      "duration": 0.25,
      "velocity": 0.71,
      "hand": "right"
    },
    {
      "midi": 74,
      "time": 166.5,
      "duration": 0.25,
      "velocity": 0.71,
      "hand": "right"
    },
    {
      "midi": 71,
      "time": 166.75,
      "duration": 0.25,
      "velocity": 0.71,
      "hand": "right"
    },
    {
      "midi": 74,
      "time": 167,
      "duration": 0.25,
      "velocity": 0.71,
      "hand": "right"
    },
    {
      "midi": 75,
      "time": 167.25,
      "duration": 0.25,
      "velocity": 0.71,
      "hand": "right"
    },
    {
      "midi": 76,
      "time": 167.5,
      "duration": 0.25,
      "velocity": 0.71,
      "hand": "right"
    },
    {
      "midi": 73,
      "time": 167.75,
      "duration": 0.25,
      "velocity": 0.71,
      "hand": "right"
    },
    {
      "midi": 76,
      "time": 168,
      "duration": 0.25,
      "velocity": 0.71,
      "hand": "right"
    },
    {
      "midi": 77,
      "time": 168.25,
      "duration": 0.25,
      "velocity": 0.71,
      "hand": "right"
    },
    {
      "midi": 78,
      "time": 168.5,
      "duration": 0.25,
      "velocity": 0.71,
      "hand": "right"
    },
    {
      "midi": 75,
      "time": 168.75,
      "duration": 0.25,
      "velocity": 0.71,
      "hand": "right"
    },
    {
      "midi": 78,
      "time": 169,
      "duration": 0.25,
      "velocity": 0.71,
      "hand": "right"
    },
    {
      "midi": 79,
      "time": 169.25,
      "duration": 0.25,
      "velocity": 0.71,
      "hand": "right"
    },
    {
      "midi": 80,
      "time": 169.5,
      "duration": 0.25,
      "velocity": 0.71,
      "hand": "right"
    },
    {
      "midi": 77,
      "time": 169.75,
      "duration": 0.25,
      "velocity": 0.71,
      "hand": "right"
    },
    {
      "midi": 80,
      "time": 170,
      "duration": 0.25,
      "velocity": 0.71,
      "hand": "right"
    },
    {
      "midi": 81,
      "time": 170.25,
      "duration": 0.25,
      "velocity": 0.71,
      "hand": "right"
    },
    {
      "midi": 82,
      "time": 170.5,
      "duration": 0.25,
      "velocity": 0.71,
      "hand": "right"
    },
    {
      "midi": 79,
      "time": 170.75,
      "duration": 0.25,
      "velocity": 0.71,
      "hand": "right"
    },
    {
      "midi": 82,
      "time": 171,
      "duration": 0.25,
      "velocity": 0.71,
      "hand": "right"
    },
    {
      "midi": 83,
      "time": 171.25,
      "duration": 0.25,
      "velocity": 0.71,
      "hand": "right"
    },
    {
      "midi": 84,
      "time": 171.5,
      "duration": 0.25,
      "velocity": 0.71,
      "hand": "right"
    },
    {
      "midi": 81,
      "time": 171.75,
      "duration": 0.25,
      "velocity": 0.71,
      "hand": "right"
    },
    {
      "midi": 84,
      "time": 172,
      "duration": 0.25,
      "velocity": 0.71,
      "hand": "right"
    },
    {
      "midi": 85,
      "time": 172.25,
      "duration": 0.25,
      "velocity": 0.71,
      "hand": "right"
    },
    {
      "midi": 88,
      "time": 172.5,
      "duration": 0.25,
      "velocity": 0.71,
      "hand": "right"
    },
    {
      "midi": 91,
      "time": 172.75,
      "duration": 0.25,
      "velocity": 0.71,
      "hand": "right"
    },
    {
      "midi": 88,
      "time": 173,
      "duration": 0.25,
      "velocity": 0.71,
      "hand": "right"
    },
    {
      "midi": 91,
      "time": 173.25,
      "duration": 0.25,
      "velocity": 0.71,
      "hand": "right"
    },
    {
      "midi": 94,
      "time": 173.5,
      "duration": 0.25,
      "velocity": 0.71,
      "hand": "right"
    },
    {
      "midi": 100,
      "time": 173.75,
      "duration": 0.25,
      "velocity": 0.71,
      "hand": "right"
    },
    {
      "midi": 80,
      "time": 174,
      "duration": 1.25,
      "velocity": 0.71,
      "hand": "right"
    },
    {
      "midi": 64,
      "time": 175,
      "duration": 0.5,
      "velocity": 0.71,
      "hand": "right"
    },
    {
      "midi": 85,
      "time": 175.25,
      "duration": 0.25,
      "velocity": 0.71,
      "hand": "right"
    },
    {
      "midi": 83,
      "time": 175.5,
      "duration": 0.25,
      "velocity": 0.71,
      "hand": "right"
    },
    {
      "midi": 81,
      "time": 175.75,
      "duration": 0.25,
      "velocity": 0.71,
      "hand": "right"
    },
    {
      "midi": 79,
      "time": 176,
      "duration": 0.25,
      "velocity": 0.71,
      "hand": "right"
    },
    {
      "midi": 80,
      "time": 176.25,
      "duration": 0.25,
      "velocity": 0.71,
      "hand": "right"
    },
    {
      "midi": 76,
      "time": 176.5,
      "duration": 0.25,
      "velocity": 0.71,
      "hand": "right"
    },
    {
      "midi": 72,
      "time": 176.75,
      "duration": 0.25,
      "velocity": 0.71,
      "hand": "right"
    },
    {
      "midi": 75,
      "time": 177,
      "duration": 0.25,
      "velocity": 0.71,
      "hand": "right"
    },
    {
      "midi": 76,
      "time": 177.25,
      "duration": 0.25,
      "velocity": 0.71,
      "hand": "right"
    },
    {
      "midi": 73,
      "time": 177.5,
      "duration": 0.25,
      "velocity": 0.71,
      "hand": "right"
    },
    {
      "midi": 67,
      "time": 177.75,
      "duration": 0.25,
      "velocity": 0.71,
      "hand": "right"
    },
    {
      "midi": 68,
      "time": 178,
      "duration": 2,
      "velocity": 0.71,
      "hand": "right"
    },
    {
      "midi": 60,
      "time": 180,
      "duration": 2,
      "velocity": 0.71,
      "hand": "right"
    },
    {
      "midi": 61,
      "time": 182,
      "duration": 1,
      "velocity": 0.71,
      "hand": "right"
    },
    {
      "midi": 64,
      "time": 183.75,
      "duration": 0.25,
      "velocity": 0.71,
      "hand": "right"
    },
    {
      "midi": 63,
      "time": 184,
      "duration": 0.25,
      "velocity": 0.71,
      "hand": "right"
    },
    {
      "midi": 61,
      "time": 184.25,
      "duration": 0.25,
      "velocity": 0.71,
      "hand": "right"
    },
    {
      "midi": 64,
      "time": 184.5,
      "duration": 0.25,
      "velocity": 0.71,
      "hand": "right"
    },
    {
      "midi": 67,
      "time": 184.75,
      "duration": 0.25,
      "velocity": 0.71,
      "hand": "right"
    },
    {
      "midi": 81,
      "time": 185,
      "duration": 0.875,
      "velocity": 0.71,
      "hand": "right"
    },
    {
      "midi": 73,
      "time": 185.25,
      "duration": 0.25,
      "velocity": 0.71,
      "hand": "right"
    },
    {
      "midi": 78,
      "time": 185.5,
      "duration": 0.25,
      "velocity": 0.71,
      "hand": "right"
    },
    {
      "midi": 76,
      "time": 185.75,
      "duration": 0.25,
      "velocity": 0.71,
      "hand": "right"
    },
    {
      "midi": 81,
      "time": 186,
      "duration": 1,
      "velocity": 0.71,
      "hand": "right"
    },
    {
      "midi": 78,
      "time": 187,
      "duration": 1,
      "velocity": 0.71,
      "hand": "right"
    },
    {
      "midi": 66,
      "time": 187.75,
      "duration": 0.25,
      "velocity": 0.71,
      "hand": "right"
    },
    {
      "midi": 80,
      "time": 188,
      "duration": 1,
      "velocity": 0.71,
      "hand": "right"
    },
    {
      "midi": 60,
      "time": 188.75,
      "duration": 0.25,
      "velocity": 0.71,
      "hand": "right"
    },
    {
      "midi": 84,
      "time": 189,
      "duration": 0.75,
      "velocity": 0.71,
      "hand": "right"
    },
    {
      "midi": 76,
      "time": 189.25,
      "duration": 0.5,
      "velocity": 0.71,
      "hand": "right"
    },
    {
      "midi": 80,
      "time": 189.5,
      "duration": 0.25,
      "velocity": 0.71,
      "hand": "right"
    },
    {
      "midi": 84,
      "time": 189.75,
      "duration": 0.25,
      "velocity": 0.71,
      "hand": "right"
    },
    {
      "midi": 85,
      "time": 191.75,
      "duration": 0.25,
      "velocity": 0.71,
      "hand": "right"
    },
    {
      "midi": 63,
      "time": 192,
      "duration": 0.25,
      "velocity": 0.71,
      "hand": "right"
    },
    {
      "midi": 61,
      "time": 192.25,
      "duration": 0.25,
      "velocity": 0.71,
      "hand": "right"
    },
    {
      "midi": 68,
      "time": 192.5,
      "duration": 0.25,
      "velocity": 0.71,
      "hand": "right"
    },
    {
      "midi": 76,
      "time": 192.75,
      "duration": 0.25,
      "velocity": 0.71,
      "hand": "right"
    },
    {
      "midi": 75,
      "time": 193,
      "duration": 0.25,
      "velocity": 0.71,
      "hand": "right"
    },
    {
      "midi": 73,
      "time": 193.25,
      "duration": 0.25,
      "velocity": 0.71,
      "hand": "right"
    },
    {
      "midi": 76,
      "time": 193.5,
      "duration": 0.25,
      "velocity": 0.71,
      "hand": "right"
    },
    {
      "midi": 85,
      "time": 193.75,
      "duration": 0.25,
      "velocity": 0.71,
      "hand": "right"
    },
    {
      "midi": 97,
      "time": 194,
      "duration": 0.25,
      "velocity": 0.71,
      "hand": "right"
    },
    {
      "midi": 64,
      "time": 195,
      "duration": 1,
      "velocity": 0.71,
      "hand": "right"
    },
    {
      "midi": 61,
      "time": 196,
      "duration": 2,
      "velocity": 0.71,
      "hand": "right"
    }
  ],
  "notes2Hands": [
    {
      "midi": 64,
      "time": 0.5,
      "duration": 0.5,
      "velocity": 0.71,
      "hand": "right"
    },
    {
      "midi": 68,
      "time": 0.5,
      "duration": 0.5,
      "velocity": 0.71,
      "hand": "right"
    },
    {
      "midi": 73,
      "time": 0.5,
      "duration": 0.5,
      "velocity": 0.71,
      "hand": "right"
    },
    {
      "midi": 62,
      "time": 1,
      "duration": 0.5,
      "velocity": 0.71,
      "hand": "right"
    },
    {
      "midi": 66,
      "time": 1,
      "duration": 0.5,
      "velocity": 0.71,
      "hand": "right"
    },
    {
      "midi": 71,
      "time": 1,
      "duration": 0.5,
      "velocity": 0.71,
      "hand": "right"
    },
    {
      "midi": 61,
      "time": 1.5,
      "duration": 0.5,
      "velocity": 0.71,
      "hand": "right"
    },
    {
      "midi": 64,
      "time": 1.5,
      "duration": 0.5,
      "velocity": 0.71,
      "hand": "right"
    },
    {
      "midi": 69,
      "time": 1.5,
      "duration": 0.5,
      "velocity": 0.71,
      "hand": "right"
    },
    {
      "midi": 60,
      "time": 2,
      "duration": 0.5,
      "velocity": 0.71,
      "hand": "right"
    },
    {
      "midi": 63,
      "time": 2,
      "duration": 0.5,
      "velocity": 0.71,
      "hand": "right"
    },
    {
      "midi": 68,
      "time": 2,
      "duration": 0.5,
      "velocity": 0.71,
      "hand": "right"
    },
    {
      "midi": 61,
      "time": 2.5,
      "duration": 0.5,
      "velocity": 0.71,
      "hand": "right"
    },
    {
      "midi": 64,
      "time": 2.5,
      "duration": 0.5,
      "velocity": 0.71,
      "hand": "right"
    },
    {
      "midi": 69,
      "time": 2.5,
      "duration": 0.5,
      "velocity": 0.71,
      "hand": "right"
    },
    {
      "midi": 71,
      "time": 2.5,
      "duration": 0.063,
      "velocity": 0.71,
      "hand": "right"
    },
    {
      "midi": 59,
      "time": 3,
      "duration": 0.5,
      "velocity": 0.71,
      "hand": "left"
    },
    {
      "midi": 62,
      "time": 3,
      "duration": 0.5,
      "velocity": 0.71,
      "hand": "right"
    },
    {
      "midi": 67,
      "time": 3,
      "duration": 0.5,
      "velocity": 0.71,
      "hand": "right"
    },
    {
      "midi": 57,
      "time": 3.5,
      "duration": 0.5,
      "velocity": 0.71,
      "hand": "left"
    },
    {
      "midi": 61,
      "time": 3.5,
      "duration": 0.5,
      "velocity": 0.71,
      "hand": "right"
    },
    {
      "midi": 66,
      "time": 3.5,
      "duration": 0.5,
      "velocity": 0.71,
      "hand": "right"
    },
    {
      "midi": 56,
      "time": 4,
      "duration": 0.5,
      "velocity": 0.71,
      "hand": "left"
    },
    {
      "midi": 59,
      "time": 4,
      "duration": 0.5,
      "velocity": 0.71,
      "hand": "left"
    },
    {
      "midi": 65,
      "time": 4,
      "duration": 0.5,
      "velocity": 0.71,
      "hand": "right"
    },
    {
      "midi": 57,
      "time": 4.5,
      "duration": 0.5,
      "velocity": 0.71,
      "hand": "left"
    },
    {
      "midi": 61,
      "time": 4.5,
      "duration": 0.5,
      "velocity": 0.71,
      "hand": "right"
    },
    {
      "midi": 66,
      "time": 4.5,
      "duration": 0.5,
      "velocity": 0.71,
      "hand": "right"
    },
    {
      "midi": 56,
      "time": 5,
      "duration": 0.5,
      "velocity": 0.71,
      "hand": "left"
    },
    {
      "midi": 59,
      "time": 5,
      "duration": 0.5,
      "velocity": 0.71,
      "hand": "left"
    },
    {
      "midi": 64,
      "time": 5,
      "duration": 0.5,
      "velocity": 0.71,
      "hand": "right"
    },
    {
      "midi": 54,
      "time": 5.5,
      "duration": 0.5,
      "velocity": 0.71,
      "hand": "left"
    },
    {
      "midi": 57,
      "time": 5.5,
      "duration": 1,
      "velocity": 0.71,
      "hand": "left"
    },
    {
      "midi": 62,
      "time": 5.5,
      "duration": 0.5,
      "velocity": 0.71,
      "hand": "right"
    },
    {
      "midi": 52,
      "time": 6,
      "duration": 1,
      "velocity": 0.71,
      "hand": "left"
    },
    {
      "midi": 61,
      "time": 6,
      "duration": 1.5,
      "velocity": 0.71,
      "hand": "right"
    },
    {
      "midi": 56,
      "time": 6.5,
      "duration": 1.5,
      "velocity": 0.71,
      "hand": "left"
    },
    {
      "midi": 51,
      "time": 7,
      "duration": 1,
      "velocity": 0.71,
      "hand": "left"
    },
    {
      "midi": 32,
      "time": 7.5,
      "duration": 0.5,
      "velocity": 0.71,
      "hand": "left"
    },
    {
      "midi": 60,
      "time": 7.5,
      "duration": 0.5,
      "velocity": 0.71,
      "hand": "right"
    },
    {
      "midi": 25,
      "time": 8,
      "duration": 0.25,
      "velocity": 0.71,
      "hand": "left"
    },
    {
      "midi": 52,
      "time": 8,
      "duration": 0.75,
      "velocity": 0.71,
      "hand": "left"
    },
    {
      "midi": 56,
      "time": 8,
      "duration": 1,
      "velocity": 0.71,
      "hand": "left"
    },
    {
      "midi": 63,
      "time": 8,
      "duration": 0.75,
      "velocity": 0.71,
      "hand": "right"
    },
    {
      "midi": 37,
      "time": 8.25,
      "duration": 0.25,
      "velocity": 0.71,
      "hand": "left"
    },
    {
      "midi": 44,
      "time": 8.5,
      "duration": 0.25,
      "velocity": 0.71,
      "hand": "left"
    },
    {
      "midi": 52,
      "time": 8.75,
      "duration": 0.25,
      "velocity": 0.71,
      "hand": "left"
    },
    {
      "midi": 61,
      "time": 8.75,
      "duration": 0.25,
      "velocity": 0.71,
      "hand": "right"
    },
    {
      "midi": 51,
      "time": 9,
      "duration": 0.25,
      "velocity": 0.71,
      "hand": "left"
    },
    {
      "midi": 49,
      "time": 9.25,
      "duration": 0.25,
      "velocity": 0.71,
      "hand": "left"
    },
    {
      "midi": 56,
      "time": 9.5,
      "duration": 0.25,
      "velocity": 0.71,
      "hand": "left"
    },
    {
      "midi": 64,
      "time": 9.75,
      "duration": 0.25,
      "velocity": 0.71,
      "hand": "right"
    },
    {
      "midi": 63,
      "time": 10,
      "duration": 0.25,
      "velocity": 0.71,
      "hand": "right"
    },
    {
      "midi": 61,
      "time": 10.25,
      "duration": 0.25,
      "velocity": 0.71,
      "hand": "right"
    },
    {
      "midi": 64,
      "time": 10.5,
      "duration": 0.25,
      "velocity": 0.71,
      "hand": "right"
    },
    {
      "midi": 66,
      "time": 10.75,
      "duration": 0.25,
      "velocity": 0.71,
      "hand": "right"
    },
    {
      "midi": 68,
      "time": 11,
      "duration": 1,
      "velocity": 0.71,
      "hand": "right"
    },
    {
      "midi": 80,
      "time": 11,
      "duration": 1,
      "velocity": 0.71,
      "hand": "right"
    },
    {
      "midi": 73,
      "time": 11.25,
      "duration": 0.25,
      "velocity": 0.71,
      "hand": "right"
    },
    {
      "midi": 75,
      "time": 11.5,
      "duration": 0.25,
      "velocity": 0.71,
      "hand": "right"
    },
    {
      "midi": 76,
      "time": 11.75,
      "duration": 0.25,
      "velocity": 0.71,
      "hand": "right"
    },
    {
      "midi": 78,
      "time": 11.75,
      "duration": 0.063,
      "velocity": 0.71,
      "hand": "right"
    },
    {
      "midi": 68,
      "time": 12,
      "duration": 2,
      "velocity": 0.71,
      "hand": "right"
    },
    {
      "midi": 75,
      "time": 12,
      "duration": 1.75,
      "velocity": 0.71,
      "hand": "right"
    },
    {
      "midi": 80,
      "time": 12,
      "duration": 2,
      "velocity": 0.71,
      "hand": "right"
    },
    {
      "midi": 37,
      "time": 12.25,
      "duration": 0.25,
      "velocity": 0.71,
      "hand": "left"
    },
    {
      "midi": 44,
      "time": 12.5,
      "duration": 0.25,
      "velocity": 0.71,
      "hand": "left"
    },
    {
      "midi": 52,
      "time": 12.75,
      "duration": 0.25,
      "velocity": 0.71,
      "hand": "left"
    },
    {
      "midi": 51,
      "time": 13,
      "duration": 0.25,
      "velocity": 0.71,
      "hand": "left"
    },
    {
      "midi": 49,
      "time": 13.25,
      "duration": 0.25,
      "velocity": 0.71,
      "hand": "left"
    },
    {
      "midi": 56,
      "time": 13.5,
      "duration": 0.25,
      "velocity": 0.71,
      "hand": "left"
    },
    {
      "midi": 64,
      "time": 13.75,
      "duration": 0.25,
      "velocity": 0.71,
      "hand": "right"
    },
    {
      "midi": 73,
      "time": 13.75,
      "duration": 0.25,
      "velocity": 0.71,
      "hand": "right"
    },
    {
      "midi": 63,
      "time": 14,
      "duration": 0.25,
      "velocity": 0.71,
      "hand": "right"
    },
    {
      "midi": 61,
      "time": 14.25,
      "duration": 0.25,
      "velocity": 0.71,
      "hand": "right"
    },
    {
      "midi": 64,
      "time": 14.5,
      "duration": 0.25,
      "velocity": 0.71,
      "hand": "right"
    },
    {
      "midi": 66,
      "time": 14.75,
      "duration": 0.25,
      "velocity": 0.71,
      "hand": "right"
    },
    {
      "midi": 68,
      "time": 15,
      "duration": 0.75,
      "velocity": 0.71,
      "hand": "right"
    },
    {
      "midi": 80,
      "time": 15,
      "duration": 0.75,
      "velocity": 0.71,
      "hand": "right"
    },
    {
      "midi": 73,
      "time": 15.25,
      "duration": 0.25,
      "velocity": 0.71,
      "hand": "right"
    },
    {
      "midi": 76,
      "time": 15.5,
      "duration": 0.5,
      "velocity": 0.71,
      "hand": "right"
    },
    {
      "midi": 42,
      "time": 15.75,
      "duration": 0.5,
      "velocity": 0.71,
      "hand": "left"
    },
    {
      "midi": 70,
      "time": 15.75,
      "duration": 0.25,
      "velocity": 0.71,
      "hand": "right"
    },
    {
      "midi": 82,
      "time": 15.75,
      "duration": 0.25,
      "velocity": 0.71,
      "hand": "right"
    },
    {
      "midi": 70,
      "time": 16,
      "duration": 0.063,
      "velocity": 0.71,
      "hand": "right"
    },
    {
      "midi": 70,
      "time": 16,
      "duration": 0.75,
      "velocity": 0.71,
      "hand": "right"
    },
    {
      "midi": 76,
      "time": 16,
      "duration": 0.75,
      "velocity": 0.71,
      "hand": "right"
    },
    {
      "midi": 85,
      "time": 16,
      "duration": 0.75,
      "velocity": 0.71,
      "hand": "right"
    },
    {
      "midi": 35,
      "time": 16.25,
      "duration": 0.25,
      "velocity": 0.71,
      "hand": "left"
    },
    {
      "midi": 42,
      "time": 16.5,
      "duration": 0.25,
      "velocity": 0.71,
      "hand": "left"
    },
    {
      "midi": 51,
      "time": 16.75,
      "duration": 0.25,
      "velocity": 0.71,
      "hand": "left"
    },
    {
      "midi": 71,
      "time": 16.75,
      "duration": 0.25,
      "velocity": 0.71,
      "hand": "right"
    },
    {
      "midi": 75,
      "time": 16.75,
      "duration": 0.25,
      "velocity": 0.71,
      "hand": "right"
    },
    {
      "midi": 83,
      "time": 16.75,
      "duration": 0.25,
      "velocity": 0.71,
      "hand": "right"
    },
    {
      "midi": 49,
      "time": 17,
      "duration": 0.25,
      "velocity": 0.71,
      "hand": "left"
    },
    {
      "midi": 47,
      "time": 17.25,
      "duration": 0.25,
      "velocity": 0.71,
      "hand": "left"
    },
    {
      "midi": 54,
      "time": 17.5,
      "duration": 0.25,
      "velocity": 0.71,
      "hand": "left"
    },
    {
      "midi": 63,
      "time": 17.75,
      "duration": 0.25,
      "velocity": 0.71,
      "hand": "right"
    },
    {
      "midi": 61,
      "time": 18,
      "duration": 0.25,
      "velocity": 0.71,
      "hand": "right"
    },
    {
      "midi": 59,
      "time": 18.25,
      "duration": 0.25,
      "velocity": 0.71,
      "hand": "left"
    },
    {
      "midi": 63,
      "time": 18.5,
      "duration": 0.25,
      "velocity": 0.71,
      "hand": "right"
    },
    {
      "midi": 64,
      "time": 18.75,
      "duration": 0.25,
      "velocity": 0.71,
      "hand": "right"
    },
    {
      "midi": 66,
      "time": 19,
      "duration": 1,
      "velocity": 0.71,
      "hand": "right"
    },
    {
      "midi": 78,
      "time": 19,
      "duration": 1,
      "velocity": 0.71,
      "hand": "right"
    },
    {
      "midi": 71,
      "time": 19.25,
      "duration": 0.25,
      "velocity": 0.71,
      "hand": "right"
    },
    {
      "midi": 73,
      "time": 19.5,
      "duration": 0.25,
      "velocity": 0.71,
      "hand": "right"
    },
    {
      "midi": 74,
      "time": 19.75,
      "duration": 0.25,
      "velocity": 0.71,
      "hand": "right"
    },
    {
      "midi": 76,
      "time": 19.75,
      "duration": 0.063,
      "velocity": 0.71,
      "hand": "right"
    },
    {
      "midi": 66,
      "time": 20,
      "duration": 2,
      "velocity": 0.71,
      "hand": "right"
    },
    {
      "midi": 73,
      "time": 20,
      "duration": 1.75,
      "velocity": 0.71,
      "hand": "right"
    },
    {
      "midi": 78,
      "time": 20,
      "duration": 2,
      "velocity": 0.71,
      "hand": "right"
    },
    {
      "midi": 35,
      "time": 20.25,
      "duration": 0.25,
      "velocity": 0.71,
      "hand": "left"
    },
    {
      "midi": 42,
      "time": 20.5,
      "duration": 0.25,
      "velocity": 0.71,
      "hand": "left"
    },
    {
      "midi": 50,
      "time": 20.75,
      "duration": 0.25,
      "velocity": 0.71,
      "hand": "left"
    },
    {
      "midi": 49,
      "time": 21,
      "duration": 0.25,
      "velocity": 0.71,
      "hand": "left"
    },
    {
      "midi": 47,
      "time": 21.25,
      "duration": 0.25,
      "velocity": 0.71,
      "hand": "left"
    },
    {
      "midi": 54,
      "time": 21.5,
      "duration": 0.25,
      "velocity": 0.71,
      "hand": "left"
    },
    {
      "midi": 62,
      "time": 21.75,
      "duration": 0.25,
      "velocity": 0.71,
      "hand": "right"
    },
    {
      "midi": 71,
      "time": 21.75,
      "duration": 0.25,
      "velocity": 0.71,
      "hand": "right"
    },
    {
      "midi": 61,
      "time": 22,
      "duration": 0.25,
      "velocity": 0.71,
      "hand": "right"
    },
    {
      "midi": 59,
      "time": 22.25,
      "duration": 0.25,
      "velocity": 0.71,
      "hand": "left"
    },
    {
      "midi": 62,
      "time": 22.5,
      "duration": 0.25,
      "velocity": 0.71,
      "hand": "right"
    },
    {
      "midi": 64,
      "time": 22.75,
      "duration": 0.25,
      "velocity": 0.71,
      "hand": "right"
    },
    {
      "midi": 66,
      "time": 23,
      "duration": 0.75,
      "velocity": 0.71,
      "hand": "right"
    },
    {
      "midi": 78,
      "time": 23,
      "duration": 0.75,
      "velocity": 0.71,
      "hand": "right"
    },
    {
      "midi": 71,
      "time": 23.25,
      "duration": 0.25,
      "velocity": 0.71,
      "hand": "right"
    },
    {
      "midi": 74,
      "time": 23.5,
      "duration": 0.5,
      "velocity": 0.71,
      "hand": "right"
    },
    {
      "midi": 40,
      "time": 23.75,
      "duration": 0.5,
      "velocity": 0.71,
      "hand": "left"
    },
    {
      "midi": 68,
      "time": 23.75,
      "duration": 0.25,
      "velocity": 0.71,
      "hand": "right"
    },
    {
      "midi": 80,
      "time": 23.75,
      "duration": 0.25,
      "velocity": 0.71,
      "hand": "right"
    },
    {
      "midi": 68,
      "time": 24,
      "duration": 0.063,
      "velocity": 0.71,
      "hand": "right"
    },
    {
      "midi": 68,
      "time": 24,
      "duration": 0.75,
      "velocity": 0.71,
      "hand": "right"
    },
    {
      "midi": 74,
      "time": 24,
      "duration": 0.75,
      "velocity": 0.71,
      "hand": "right"
    },
    {
      "midi": 83,
      "time": 24,
      "duration": 0.75,
      "velocity": 0.71,
      "hand": "right"
    },
    {
      "midi": 33,
      "time": 24.25,
      "duration": 0.25,
      "velocity": 0.71,
      "hand": "left"
    },
    {
      "midi": 40,
      "time": 24.5,
      "duration": 0.25,
      "velocity": 0.71,
      "hand": "left"
    },
    {
      "midi": 49,
      "time": 24.75,
      "duration": 0.25,
      "velocity": 0.71,
      "hand": "left"
    },
    {
      "midi": 69,
      "time": 24.75,
      "duration": 0.25,
      "velocity": 0.71,
      "hand": "right"
    },
    {
      "midi": 73,
      "time": 24.75,
      "duration": 0.25,
      "velocity": 0.71,
      "hand": "right"
    },
    {
      "midi": 81,
      "time": 24.75,
      "duration": 0.25,
      "velocity": 0.71,
      "hand": "right"
    },
    {
      "midi": 47,
      "time": 25,
      "duration": 0.25,
      "velocity": 0.71,
      "hand": "left"
    },
    {
      "midi": 45,
      "time": 25.25,
      "duration": 0.25,
      "velocity": 0.71,
      "hand": "left"
    },
    {
      "midi": 52,
      "time": 25.5,
      "duration": 0.25,
      "velocity": 0.71,
      "hand": "left"
    },
    {
      "midi": 69,
      "time": 25.5,
      "duration": 0.5,
      "velocity": 0.71,
      "hand": "right"
    },
    {
      "midi": 73,
      "time": 25.5,
      "duration": 0.5,
      "velocity": 0.71,
      "hand": "right"
    },
    {
      "midi": 81,
      "time": 25.5,
      "duration": 0.5,
      "velocity": 0.71,
      "hand": "right"
    },
    {
      "midi": 61,
      "time": 25.75,
      "duration": 0.25,
      "velocity": 0.71,
      "hand": "right"
    },
    {
      "midi": 69,
      "time": 26,
      "duration": 0.5,
      "velocity": 0.71,
      "hand": "right"
    },
    {
      "midi": 73,
      "time": 26,
      "duration": 0.5,
      "velocity": 0.71,
      "hand": "right"
    },
    {
      "midi": 81,
      "time": 26,
      "duration": 0.5,
      "velocity": 0.71,
      "hand": "right"
    },
    {
      "midi": 41,
      "time": 26.25,
      "duration": 0.25,
      "velocity": 0.71,
      "hand": "left"
    },
    {
      "midi": 49,
      "time": 26.5,
      "duration": 0.25,
      "velocity": 0.71,
      "hand": "left"
    },
    {
      "midi": 68,
      "time": 26.5,
      "duration": 0.5,
      "velocity": 0.71,
      "hand": "right"
    },
    {
      "midi": 71,
      "time": 26.5,
      "duration": 0.5,
      "velocity": 0.71,
      "hand": "right"
    },
    {
      "midi": 80,
      "time": 26.5,
      "duration": 0.5,
      "velocity": 0.71,
      "hand": "right"
    },
    {
      "midi": 61,
      "time": 26.75,
      "duration": 0.25,
      "velocity": 0.71,
      "hand": "right"
    },
    {
      "midi": 66,
      "time": 27,
      "duration": 0.5,
      "velocity": 0.71,
      "hand": "right"
    },
    {
      "midi": 69,
      "time": 27,
      "duration": 0.5,
      "velocity": 0.71,
      "hand": "right"
    },
    {
      "midi": 78,
      "time": 27,
      "duration": 0.5,
      "velocity": 0.71,
      "hand": "right"
    },
    {
      "midi": 42,
      "time": 27.25,
      "duration": 0.25,
      "velocity": 0.71,
      "hand": "left"
    },
    {
      "midi": 49,
      "time": 27.5,
      "duration": 0.25,
      "velocity": 0.71,
      "hand": "left"
    },
    {
      "midi": 68,
      "time": 27.5,
      "duration": 0.5,
      "velocity": 0.71,
      "hand": "right"
    },
    {
      "midi": 71,
      "time": 27.5,
      "duration": 0.5,
      "velocity": 0.71,
      "hand": "right"
    },
    {
      "midi": 80,
      "time": 27.5,
      "duration": 0.5,
      "velocity": 0.71,
      "hand": "right"
    },
    {
      "midi": 61,
      "time": 27.75,
      "duration": 0.25,
      "velocity": 0.71,
      "hand": "right"
    },
    {
      "midi": 66,
      "time": 28,
      "duration": 1.75,
      "velocity": 0.71,
      "hand": "right"
    },
    {
      "midi": 69,
      "time": 28,
      "duration": 2,
      "velocity": 0.71,
      "hand": "right"
    },
    {
      "midi": 78,
      "time": 28,
      "duration": 1.875,
      "velocity": 0.71,
      "hand": "right"
    },
    {
      "midi": 38,
      "time": 28.25,
      "duration": 0.25,
      "velocity": 0.71,
      "hand": "left"
    },
    {
      "midi": 45,
      "time": 28.5,
      "duration": 0.25,
      "velocity": 0.71,
      "hand": "left"
    },
    {
      "midi": 54,
      "time": 28.75,
      "duration": 0.25,
      "velocity": 0.71,
      "hand": "left"
    },
    {
      "midi": 52,
      "time": 29,
      "duration": 0.25,
      "velocity": 0.71,
      "hand": "left"
    },
    {
      "midi": 50,
      "time": 29.25,
      "duration": 0.25,
      "velocity": 0.71,
      "hand": "left"
    },
    {
      "midi": 57,
      "time": 29.5,
      "duration": 0.25,
      "velocity": 0.71,
      "hand": "left"
    },
    {
      "midi": 66,
      "time": 29.75,
      "duration": 0.25,
      "velocity": 0.71,
      "hand": "right"
    },
    {
      "midi": 64,
      "time": 29.875,
      "duration": 0.125,
      "velocity": 0.71,
      "hand": "right"
    },
    {
      "midi": 76,
      "time": 29.875,
      "duration": 0.125,
      "velocity": 0.71,
      "hand": "right"
    },
    {
      "midi": 64,
      "time": 30,
      "duration": 0.5,
      "velocity": 0.71,
      "hand": "right"
    },
    {
      "midi": 69,
      "time": 30,
      "duration": 1.5,
      "velocity": 0.71,
      "hand": "right"
    },
    {
      "midi": 76,
      "time": 30,
      "duration": 0.5,
      "velocity": 0.71,
      "hand": "right"
    },
    {
      "midi": 38,
      "time": 30.25,
      "duration": 0.25,
      "velocity": 0.71,
      "hand": "left"
    },
    {
      "midi": 45,
      "time": 30.5,
      "duration": 0.25,
      "velocity": 0.71,
      "hand": "left"
    },
    {
      "midi": 62,
      "time": 30.5,
      "duration": 1,
      "velocity": 0.71,
      "hand": "right"
    },
    {
      "midi": 74,
      "time": 30.5,
      "duration": 1,
      "velocity": 0.71,
      "hand": "right"
    },
    {
      "midi": 54,
      "time": 30.75,
      "duration": 0.25,
      "velocity": 0.71,
      "hand": "left"
    },
    {
      "midi": 52,
      "time": 31,
      "duration": 0.25,
      "velocity": 0.71,
      "hand": "left"
    },
    {
      "midi": 50,
      "time": 31.25,
      "duration": 0.25,
      "velocity": 0.71,
      "hand": "left"
    },
    {
      "midi": 57,
      "time": 31.5,
      "duration": 0.25,
      "velocity": 0.71,
      "hand": "left"
    },
    {
      "midi": 62,
      "time": 31.5,
      "duration": 0.5,
      "velocity": 0.71,
      "hand": "right"
    },
    {
      "midi": 69,
      "time": 31.5,
      "duration": 0.5,
      "velocity": 0.71,
      "hand": "right"
    },
    {
      "midi": 66,
      "time": 31.75,
      "duration": 0.25,
      "velocity": 0.71,
      "hand": "right"
    },
    {
      "midi": 59,
      "time": 32,
      "duration": 2,
      "velocity": 0.71,
      "hand": "left"
    },
    {
      "midi": 62,
      "time": 32,
      "duration": 1.75,
      "velocity": 0.71,
      "hand": "right"
    },
    {
      "midi": 67,
      "time": 32,
      "duration": 2,
      "velocity": 0.71,
      "hand": "right"
    },
    {
      "midi": 71,
      "time": 32,
      "duration": 2,
      "velocity": 0.71,
      "hand": "right"
    },
    {
      "midi": 31,
      "time": 32.25,
      "duration": 0.25,
      "velocity": 0.71,
      "hand": "left"
    },
    {
      "midi": 43,
      "time": 32.5,
      "duration": 0.25,
      "velocity": 0.71,
      "hand": "left"
    },
    {
      "midi": 50,
      "time": 32.75,
      "duration": 0.25,
      "velocity": 0.71,
      "hand": "left"
    },
    {
      "midi": 52,
      "time": 33,
      "duration": 0.25,
      "velocity": 0.71,
      "hand": "left"
    },
    {
      "midi": 50,
      "time": 33.25,
      "duration": 0.25,
      "velocity": 0.71,
      "hand": "left"
    },
    {
      "midi": 55,
      "time": 33.5,
      "duration": 0.25,
      "velocity": 0.71,
      "hand": "left"
    },
    {
      "midi": 52,
      "time": 33.75,
      "duration": 0.25,
      "velocity": 0.71,
      "hand": "left"
    },
    {
      "midi": 64,
      "time": 33.75,
      "duration": 0.25,
      "velocity": 0.71,
      "hand": "right"
    },
    {
      "midi": 50,
      "time": 34,
      "duration": 0.25,
      "velocity": 0.71,
      "hand": "left"
    },
    {
      "midi": 57,
      "time": 34,
      "duration": 1,
      "velocity": 0.71,
      "hand": "left"
    },
    {
      "midi": 66,
      "time": 34,
      "duration": 0.75,
      "velocity": 0.71,
      "hand": "right"
    },
    {
      "midi": 69,
      "time": 34,
      "duration": 0.75,
      "velocity": 0.71,
      "hand": "right"
    },
    {
      "midi": 45,
      "time": 34.25,
      "duration": 0.25,
      "velocity": 0.71,
      "hand": "left"
    },
    {
      "midi": 38,
      "time": 34.5,
      "duration": 0.25,
      "velocity": 0.71,
      "hand": "left"
    },
    {
      "midi": 54,
      "time": 34.75,
      "duration": 0.25,
      "velocity": 0.71,
      "hand": "left"
    },
    {
      "midi": 62,
      "time": 34.75,
      "duration": 0.25,
      "velocity": 0.71,
      "hand": "right"
    },
    {
      "midi": 66,
      "time": 34.75,
      "duration": 0.25,
      "velocity": 0.71,
      "hand": "right"
    },
    {
      "midi": 50,
      "time": 35,
      "duration": 0.25,
      "velocity": 0.71,
      "hand": "left"
    },
    {
      "midi": 57,
      "time": 35,
      "duration": 1.75,
      "velocity": 0.71,
      "hand": "left"
    },
    {
      "midi": 66,
      "time": 35,
      "duration": 1,
      "velocity": 0.71,
      "hand": "right"
    },
    {
      "midi": 69,
      "time": 35,
      "duration": 1,
      "velocity": 0.71,
      "hand": "right"
    },
    {
      "midi": 45,
      "time": 35.25,
      "duration": 0.25,
      "velocity": 0.71,
      "hand": "left"
    },
    {
      "midi": 43,
      "time": 35.5,
      "duration": 0.25,
      "velocity": 0.71,
      "hand": "left"
    },
    {
      "midi": 42,
      "time": 35.75,
      "duration": 0.25,
      "velocity": 0.71,
      "hand": "left"
    },
    {
      "midi": 30,
      "time": 36,
      "duration": 0.25,
      "velocity": 0.71,
      "hand": "left"
    },
    {
      "midi": 61,
      "time": 36,
      "duration": 1,
      "velocity": 0.71,
      "hand": "right"
    },
    {
      "midi": 66,
      "time": 36,
      "duration": 1,
      "velocity": 0.71,
      "hand": "right"
    },
    {
      "midi": 69,
      "time": 36,
      "duration": 1,
      "velocity": 0.71,
      "hand": "right"
    },
    {
      "midi": 42,
      "time": 36.25,
      "duration": 0.25,
      "velocity": 0.71,
      "hand": "left"
    },
    {
      "midi": 49,
      "time": 36.5,
      "duration": 0.25,
      "velocity": 0.71,
      "hand": "left"
    },
    {
      "midi": 57,
      "time": 36.75,
      "duration": 0.25,
      "velocity": 0.71,
      "hand": "left"
    },
    {
      "midi": 56,
      "time": 37,
      "duration": 0.25,
      "velocity": 0.71,
      "hand": "left"
    },
    {
      "midi": 54,
      "time": 37.25,
      "duration": 0.25,
      "velocity": 0.71,
      "hand": "left"
    },
    {
      "midi": 61,
      "time": 37.5,
      "duration": 0.25,
      "velocity": 0.71,
      "hand": "right"
    },
    {
      "midi": 69,
      "time": 37.75,
      "duration": 0.25,
      "velocity": 0.71,
      "hand": "right"
    },
    {
      "midi": 68,
      "time": 38,
      "duration": 0.25,
      "velocity": 0.71,
      "hand": "right"
    },
    {
      "midi": 66,
      "time": 38.25,
      "duration": 0.25,
      "velocity": 0.71,
      "hand": "right"
    },
    {
      "midi": 69,
      "time": 38.5,
      "duration": 0.25,
      "velocity": 0.71,
      "hand": "right"
    },
    {
      "midi": 71,
      "time": 38.75,
      "duration": 0.25,
      "velocity": 0.71,
      "hand": "right"
    },
    {
      "midi": 73,
      "time": 39,
      "duration": 1,
      "velocity": 0.71,
      "hand": "right"
    },
    {
      "midi": 85,
      "time": 39,
      "duration": 1,
      "velocity": 0.71,
      "hand": "right"
    },
    {
      "midi": 78,
      "time": 39.25,
      "duration": 0.25,
      "velocity": 0.71,
      "hand": "right"
    },
    {
      "midi": 80,
      "time": 39.5,
      "duration": 0.25,
      "velocity": 0.71,
      "hand": "right"
    },
    {
      "midi": 81,
      "time": 39.75,
      "duration": 0.25,
      "velocity": 0.71,
      "hand": "right"
    },
    {
      "midi": 83,
      "time": 39.75,
      "duration": 0.063,
      "velocity": 0.71,
      "hand": "right"
    },
    {
      "midi": 73,
      "time": 40,
      "duration": 2,
      "velocity": 0.71,
      "hand": "right"
    },
    {
      "midi": 80,
      "time": 40,
      "duration": 1.75,
      "velocity": 0.71,
      "hand": "right"
    },
    {
      "midi": 85,
      "time": 40,
      "duration": 2,
      "velocity": 0.71,
      "hand": "right"
    },
    {
      "midi": 42,
      "time": 40.25,
      "duration": 0.25,
      "velocity": 0.71,
      "hand": "left"
    },
    {
      "midi": 49,
      "time": 40.5,
      "duration": 0.25,
      "velocity": 0.71,
      "hand": "left"
    },
    {
      "midi": 57,
      "time": 40.75,
      "duration": 0.25,
      "velocity": 0.71,
      "hand": "left"
    },
    {
      "midi": 56,
      "time": 41,
      "duration": 0.25,
      "velocity": 0.71,
      "hand": "left"
    },
    {
      "midi": 54,
      "time": 41.25,
      "duration": 0.25,
      "velocity": 0.71,
      "hand": "left"
    },
    {
      "midi": 61,
      "time": 41.5,
      "duration": 0.25,
      "velocity": 0.71,
      "hand": "right"
    },
    {
      "midi": 69,
      "time": 41.75,
      "duration": 0.25,
      "velocity": 0.71,
      "hand": "right"
    },
    {
      "midi": 78,
      "time": 41.75,
      "duration": 0.25,
      "velocity": 0.71,
      "hand": "right"
    },
    {
      "midi": 68,
      "time": 42,
      "duration": 0.25,
      "velocity": 0.71,
      "hand": "right"
    },
    {
      "midi": 66,
      "time": 42.25,
      "duration": 0.25,
      "velocity": 0.71,
      "hand": "right"
    },
    {
      "midi": 69,
      "time": 42.5,
      "duration": 0.25,
      "velocity": 0.71,
      "hand": "right"
    },
    {
      "midi": 71,
      "time": 42.75,
      "duration": 0.25,
      "velocity": 0.71,
      "hand": "right"
    },
    {
      "midi": 73,
      "time": 43,
      "duration": 0.75,
      "velocity": 0.71,
      "hand": "right"
    },
    {
      "midi": 85,
      "time": 43,
      "duration": 0.75,
      "velocity": 0.71,
      "hand": "right"
    },
    {
      "midi": 78,
      "time": 43.25,
      "duration": 0.25,
      "velocity": 0.71,
      "hand": "right"
    },
    {
      "midi": 81,
      "time": 43.5,
      "duration": 0.5,
      "velocity": 0.71,
      "hand": "right"
    },
    {
      "midi": 47,
      "time": 43.75,
      "duration": 0.5,
      "velocity": 0.71,
      "hand": "left"
    },
    {
      "midi": 75,
      "time": 43.75,
      "duration": 0.25,
      "velocity": 0.71,
      "hand": "right"
    },
    {
      "midi": 87,
      "time": 43.75,
      "duration": 0.25,
      "velocity": 0.71,
      "hand": "right"
    },
    {
      "midi": 75,
      "time": 44,
      "duration": 0.063,
      "velocity": 0.71,
      "hand": "right"
    },
    {
      "midi": 75,
      "time": 44,
      "duration": 0.75,
      "velocity": 0.71,
      "hand": "right"
    },
    {
      "midi": 81,
      "time": 44,
      "duration": 0.75,
      "velocity": 0.71,
      "hand": "right"
    },
    {
      "midi": 90,
      "time": 44,
      "duration": 0.75,
      "velocity": 0.71,
      "hand": "right"
    },
    {
      "midi": 40,
      "time": 44.25,
      "duration": 0.25,
      "velocity": 0.71,
      "hand": "left"
    },
    {
      "midi": 47,
      "time": 44.5,
      "duration": 0.25,
      "velocity": 0.71,
      "hand": "left"
    },
    {
      "midi": 56,
      "time": 44.75,
      "duration": 0.25,
      "velocity": 0.71,
      "hand": "left"
    },
    {
      "midi": 76,
      "time": 44.75,
      "duration": 0.25,
      "velocity": 0.71,
      "hand": "right"
    },
    {
      "midi": 80,
      "time": 44.75,
      "duration": 0.25,
      "velocity": 0.71,
      "hand": "right"
    },
    {
      "midi": 88,
      "time": 44.75,
      "duration": 0.25,
      "velocity": 0.71,
      "hand": "right"
    },
    {
      "midi": 54,
      "time": 45,
      "duration": 0.25,
      "velocity": 0.71,
      "hand": "left"
    },
    {
      "midi": 52,
      "time": 45.25,
      "duration": 0.25,
      "velocity": 0.71,
      "hand": "left"
    },
    {
      "midi": 59,
      "time": 45.5,
      "duration": 0.25,
      "velocity": 0.71,
      "hand": "left"
    },
    {
      "midi": 68,
      "time": 45.75,
      "duration": 0.25,
      "velocity": 0.71,
      "hand": "right"
    },
    {
      "midi": 66,
      "time": 46,
      "duration": 0.25,
      "velocity": 0.71,
      "hand": "right"
    },
    {
      "midi": 64,
      "time": 46.25,
      "duration": 0.25,
      "velocity": 0.71,
      "hand": "right"
    },
    {
      "midi": 68,
      "time": 46.5,
      "duration": 0.25,
      "velocity": 0.71,
      "hand": "right"
    },
    {
      "midi": 69,
      "time": 46.75,
      "duration": 0.25,
      "velocity": 0.71,
      "hand": "right"
    },
    {
      "midi": 71,
      "time": 47,
      "duration": 1,
      "velocity": 0.71,
      "hand": "right"
    },
    {
      "midi": 83,
      "time": 47,
      "duration": 1,
      "velocity": 0.71,
      "hand": "right"
    },
    {
      "midi": 76,
      "time": 47.25,
      "duration": 0.25,
      "velocity": 0.71,
      "hand": "right"
    },
    {
      "midi": 78,
      "time": 47.5,
      "duration": 0.25,
      "velocity": 0.71,
      "hand": "right"
    },
    {
      "midi": 79,
      "time": 47.75,
      "duration": 0.25,
      "velocity": 0.71,
      "hand": "right"
    },
    {
      "midi": 81,
      "time": 47.75,
      "duration": 0.063,
      "velocity": 0.71,
      "hand": "right"
    },
    {
      "midi": 71,
      "time": 48,
      "duration": 2,
      "velocity": 0.71,
      "hand": "right"
    },
    {
      "midi": 78,
      "time": 48,
      "duration": 1.75,
      "velocity": 0.71,
      "hand": "right"
    },
    {
      "midi": 83,
      "time": 48,
      "duration": 2,
      "velocity": 0.71,
      "hand": "right"
    },
    {
      "midi": 40,
      "time": 48.25,
      "duration": 0.25,
      "velocity": 0.71,
      "hand": "left"
    },
    {
      "midi": 47,
      "time": 48.5,
      "duration": 0.25,
      "velocity": 0.71,
      "hand": "left"
    },
    {
      "midi": 55,
      "time": 48.75,
      "duration": 0.25,
      "velocity": 0.71,
      "hand": "left"
    },
    {
      "midi": 54,
      "time": 49,
      "duration": 0.25,
      "velocity": 0.71,
      "hand": "left"
    },
    {
      "midi": 52,
      "time": 49.25,
      "duration": 0.25,
      "velocity": 0.71,
      "hand": "left"
    },
    {
      "midi": 59,
      "time": 49.5,
      "duration": 0.25,
      "velocity": 0.71,
      "hand": "left"
    },
    {
      "midi": 67,
      "time": 49.75,
      "duration": 0.25,
      "velocity": 0.71,
      "hand": "right"
    },
    {
      "midi": 76,
      "time": 49.75,
      "duration": 0.25,
      "velocity": 0.71,
      "hand": "right"
    },
    {
      "midi": 66,
      "time": 50,
      "duration": 0.25,
      "velocity": 0.71,
      "hand": "right"
    },
    {
      "midi": 64,
      "time": 50.25,
      "duration": 0.25,
      "velocity": 0.71,
      "hand": "right"
    },
    {
      "midi": 67,
      "time": 50.5,
      "duration": 0.25,
      "velocity": 0.71,
      "hand": "right"
    },
    {
      "midi": 69,
      "time": 50.75,
      "duration": 0.25,
      "velocity": 0.71,
      "hand": "right"
    },
    {
      "midi": 71,
      "time": 51,
      "duration": 0.75,
      "velocity": 0.71,
      "hand": "right"
    },
    {
      "midi": 83,
      "time": 51,
      "duration": 0.75,
      "velocity": 0.71,
      "hand": "right"
    },
    {
      "midi": 76,
      "time": 51.25,
      "duration": 0.25,
      "velocity": 0.71,
      "hand": "right"
    },
    {
      "midi": 79,
      "time": 51.5,
      "duration": 0.25,
      "velocity": 0.71,
      "hand": "right"
    },
    {
      "midi": 45,
      "time": 51.75,
      "duration": 0.5,
      "velocity": 0.71,
      "hand": "left"
    },
    {
      "midi": 73,
      "time": 51.75,
      "duration": 0.25,
      "velocity": 0.71,
      "hand": "right"
    },
    {
      "midi": 85,
      "time": 51.75,
      "duration": 0.25,
      "velocity": 0.71,
      "hand": "right"
    },
    {
      "midi": 73,
      "time": 52,
      "duration": 0.5,
      "velocity": 0.71,
      "hand": "right"
    },
    {
      "midi": 79,
      "time": 52,
      "duration": 0.5,
      "velocity": 0.71,
      "hand": "right"
    },
    {
      "midi": 85,
      "time": 52,
      "duration": 0.5,
      "velocity": 0.71,
      "hand": "right"
    },
    {
      "midi": 46,
      "time": 52.25,
      "duration": 0.25,
      "velocity": 0.71,
      "hand": "left"
    },
    {
      "midi": 53,
      "time": 52.5,
      "duration": 0.25,
      "velocity": 0.71,
      "hand": "left"
    },
    {
      "midi": 74,
      "time": 52.5,
      "duration": 1,
      "velocity": 0.71,
      "hand": "right"
    },
    {
      "midi": 77,
      "time": 52.5,
      "duration": 1,
      "velocity": 0.71,
      "hand": "right"
    },
    {
      "midi": 86,
      "time": 52.5,
      "duration": 1,
      "velocity": 0.71,
      "hand": "right"
    },
    {
      "midi": 62,
      "time": 52.75,
      "duration": 0.25,
      "velocity": 0.71,
      "hand": "right"
    },
    {
      "midi": 60,
      "time": 53,
      "duration": 0.25,
      "velocity": 0.71,
      "hand": "right"
    },
    {
      "midi": 58,
      "time": 53.25,
      "duration": 0.25,
      "velocity": 0.71,
      "hand": "left"
    },
    {
      "midi": 65,
      "time": 53.5,
      "duration": 0.25,
      "velocity": 0.71,
      "hand": "right"
    },
    {
      "midi": 72,
      "time": 53.5,
      "duration": 0.5,
      "velocity": 0.71,
      "hand": "right"
    },
    {
      "midi": 77,
      "time": 53.5,
      "duration": 0.5,
      "velocity": 0.71,
      "hand": "right"
    },
    {
      "midi": 84,
      "time": 53.5,
      "duration": 0.5,
      "velocity": 0.71,
      "hand": "right"
    },
    {
      "midi": 74,
      "time": 53.75,
      "duration": 0.25,
      "velocity": 0.71,
      "hand": "right"
    },
    {
      "midi": 72,
      "time": 54,
      "duration": 0.5,
      "velocity": 0.71,
      "hand": "right"
    },
    {
      "midi": 75,
      "time": 54,
      "duration": 0.5,
      "velocity": 0.71,
      "hand": "right"
    },
    {
      "midi": 84,
      "time": 54,
      "duration": 0.5,
      "velocity": 0.71,
      "hand": "right"
    },
    {
      "midi": 39,
      "time": 54.25,
      "duration": 0.25,
      "velocity": 0.71,
      "hand": "left"
    },
    {
      "midi": 46,
      "time": 54.5,
      "duration": 0.25,
      "velocity": 0.71,
      "hand": "left"
    },
    {
      "midi": 70,
      "time": 54.5,
      "duration": 0.5,
      "velocity": 0.71,
      "hand": "right"
    },
    {
      "midi": 79,
      "time": 54.5,
      "duration": 0.5,
      "velocity": 0.71,
      "hand": "right"
    },
    {
      "midi": 82,
      "time": 54.5,
      "duration": 0.5,
      "velocity": 0.71,
      "hand": "right"
    },
    {
      "midi": 55,
      "time": 54.75,
      "duration": 0.25,
      "velocity": 0.71,
      "hand": "left"
    },
    {
      "midi": 53,
      "time": 55,
      "duration": 0.25,
      "velocity": 0.71,
      "hand": "left"
    },
    {
      "midi": 67,
      "time": 55,
      "duration": 0.5,
      "velocity": 0.71,
      "hand": "right"
    },
    {
      "midi": 75,
      "time": 55,
      "duration": 0.5,
      "velocity": 0.71,
      "hand": "right"
    },
    {
      "midi": 79,
      "time": 55,
      "duration": 0.5,
      "velocity": 0.71,
      "hand": "right"
    },
    {
      "midi": 51,
      "time": 55.25,
      "duration": 0.25,
      "velocity": 0.71,
      "hand": "left"
    },
    {
      "midi": 58,
      "time": 55.5,
      "duration": 0.25,
      "velocity": 0.71,
      "hand": "left"
    },
    {
      "midi": 70,
      "time": 55.5,
      "duration": 0.5,
      "velocity": 0.71,
      "hand": "right"
    },
    {
      "midi": 79,
      "time": 55.5,
      "duration": 0.5,
      "velocity": 0.71,
      "hand": "right"
    },
    {
      "midi": 82,
      "time": 55.5,
      "duration": 0.5,
      "velocity": 0.71,
      "hand": "right"
    },
    {
      "midi": 67,
      "time": 55.75,
      "duration": 0.25,
      "velocity": 0.71,
      "hand": "right"
    },
    {
      "midi": 65,
      "time": 56,
      "duration": 2,
      "velocity": 0.71,
      "hand": "right"
    },
    {
      "midi": 70,
      "time": 56,
      "duration": 2,
      "velocity": 0.71,
      "hand": "right"
    },
    {
      "midi": 74,
      "time": 56,
      "duration": 2,
      "velocity": 0.71,
      "hand": "right"
    },
    {
      "midi": 77,
      "time": 56,
      "duration": 2,
      "velocity": 0.71,
      "hand": "right"
    },
    {
      "midi": 41,
      "time": 56.25,
      "duration": 0.25,
      "velocity": 0.71,
      "hand": "left"
    },
    {
      "midi": 50,
      "time": 56.5,
      "duration": 0.25,
      "velocity": 0.71,
      "hand": "left"
    },
    {
      "midi": 53,
      "time": 56.75,
      "duration": 0.25,
      "velocity": 0.71,
      "hand": "left"
    },
    {
      "midi": 55,
      "time": 57,
      "duration": 0.25,
      "velocity": 0.71,
      "hand": "left"
    },
    {
      "midi": 53,
      "time": 57.25,
      "duration": 0.25,
      "velocity": 0.71,
      "hand": "left"
    },
    {
      "midi": 63,
      "time": 57.5,
      "duration": 0.25,
      "velocity": 0.71,
      "hand": "right"
    },
    {
      "midi": 62,
      "time": 57.75,
      "duration": 0.25,
      "velocity": 0.71,
      "hand": "right"
    },
    {
      "midi": 29,
      "time": 58,
      "duration": 0.25,
      "velocity": 0.71,
      "hand": "left"
    },
    {
      "midi": 63,
      "time": 58,
      "duration": 2,
      "velocity": 0.71,
      "hand": "right"
    },
    {
      "midi": 69,
      "time": 58,
      "duration": 2,
      "velocity": 0.71,
      "hand": "right"
    },
    {
      "midi": 74,
      "time": 58,
      "duration": 1.75,
      "velocity": 0.71,
      "hand": "right"
    },
    {
      "midi": 77,
      "time": 58,
      "duration": 1.75,
      "velocity": 0.71,
      "hand": "right"
    },
    {
      "midi": 41,
      "time": 58.25,
      "duration": 0.25,
      "velocity": 0.71,
      "hand": "left"
    },
    {
      "midi": 48,
      "time": 58.5,
      "duration": 0.25,
      "velocity": 0.71,
      "hand": "left"
    },
    {
      "midi": 51,
      "time": 58.75,
      "duration": 0.25,
      "velocity": 0.71,
      "hand": "left"
    },
    {
      "midi": 55,
      "time": 59,
      "duration": 0.25,
      "velocity": 0.71,
      "hand": "left"
    },
    {
      "midi": 53,
      "time": 59.25,
      "duration": 0.25,
      "velocity": 0.71,
      "hand": "left"
    },
    {
      "midi": 62,
      "time": 59.5,
      "duration": 0.25,
      "velocity": 0.71,
      "hand": "right"
    },
    {
      "midi": 60,
      "time": 59.75,
      "duration": 0.25,
      "velocity": 0.71,
      "hand": "right"
    },
    {
      "midi": 75,
      "time": 59.75,
      "duration": 0.25,
      "velocity": 0.71,
      "hand": "right"
    },
    {
      "midi": 30,
      "time": 60,
      "duration": 0.25,
      "velocity": 0.71,
      "hand": "left"
    },
    {
      "midi": 61,
      "time": 60,
      "duration": 0.5,
      "velocity": 0.71,
      "hand": "right"
    },
    {
      "midi": 70,
      "time": 60,
      "duration": 0.5,
      "velocity": 0.71,
      "hand": "right"
    },
    {
      "midi": 73,
      "time": 60,
      "duration": 0.5,
      "velocity": 0.71,
      "hand": "right"
    },
    {
      "midi": 42,
      "time": 60.25,
      "duration": 0.25,
      "velocity": 0.71,
      "hand": "left"
    },
    {
      "midi": 49,
      "time": 60.5,
      "duration": 0.25,
      "velocity": 0.71,
      "hand": "left"
    },
    {
      "midi": 58,
      "time": 60.75,
      "duration": 0.25,
      "velocity": 0.71,
      "hand": "left"
    },
    {
      "midi": 56,
      "time": 61,
      "duration": 0.25,
      "velocity": 0.71,
      "hand": "left"
    },
    {
      "midi": 70,
      "time": 61,
      "duration": 0.75,
      "velocity": 0.71,
      "hand": "right"
    },
    {
      "midi": 73,
      "time": 61,
      "duration": 1,
      "velocity": 0.71,
      "hand": "right"
    },
    {
      "midi": 82,
      "time": 61,
      "duration": 1,
      "velocity": 0.71,
      "hand": "right"
    },
    {
      "midi": 54,
      "time": 61.25,
      "duration": 0.25,
      "velocity": 0.71,
      "hand": "left"
    },
    {
      "midi": 61,
      "time": 61.5,
      "duration": 0.25,
      "velocity": 0.71,
      "hand": "right"
    },
    {
      "midi": 70,
      "time": 61.75,
      "duration": 0.25,
      "velocity": 0.71,
      "hand": "right"
    },
    {
      "midi": 68,
      "time": 62,
      "duration": 0.5,
      "velocity": 0.71,
      "hand": "right"
    },
    {
      "midi": 71,
      "time": 62,
      "duration": 0.5,
      "velocity": 0.71,
      "hand": "right"
    },
    {
      "midi": 80,
      "time": 62,
      "duration": 0.5,
      "velocity": 0.71,
      "hand": "right"
    },
    {
      "midi": 35,
      "time": 62.25,
      "duration": 0.25,
      "velocity": 0.71,
      "hand": "left"
    },
    {
      "midi": 42,
      "time": 62.5,
      "duration": 0.25,
      "velocity": 0.71,
      "hand": "left"
    },
    {
      "midi": 66,
      "time": 62.5,
      "duration": 0.5,
      "velocity": 0.71,
      "hand": "right"
    },
    {
      "midi": 71,
      "time": 62.5,
      "duration": 0.5,
      "velocity": 0.71,
      "hand": "right"
    },
    {
      "midi": 78,
      "time": 62.5,
      "duration": 0.5,
      "velocity": 0.71,
      "hand": "right"
    },
    {
      "midi": 51,
      "time": 62.75,
      "duration": 0.25,
      "velocity": 0.71,
      "hand": "left"
    },
    {
      "midi": 49,
      "time": 63,
      "duration": 0.25,
      "velocity": 0.71,
      "hand": "left"
    },
    {
      "midi": 63,
      "time": 63,
      "duration": 0.5,
      "velocity": 0.71,
      "hand": "right"
    },
    {
      "midi": 71,
      "time": 63,
      "duration": 0.5,
      "velocity": 0.71,
      "hand": "right"
    },
    {
      "midi": 75,
      "time": 63,
      "duration": 0.5,
      "velocity": 0.71,
      "hand": "right"
    },
    {
      "midi": 47,
      "time": 63.25,
      "duration": 0.25,
      "velocity": 0.71,
      "hand": "left"
    },
    {
      "midi": 54,
      "time": 63.5,
      "duration": 0.25,
      "velocity": 0.71,
      "hand": "left"
    },
    {
      "midi": 66,
      "time": 63.5,
      "duration": 0.5,
      "velocity": 0.71,
      "hand": "right"
    },
    {
      "midi": 71,
      "time": 63.5,
      "duration": 0.5,
      "velocity": 0.71,
      "hand": "right"
    },
    {
      "midi": 78,
      "time": 63.5,
      "duration": 0.5,
      "velocity": 0.71,
      "hand": "right"
    },
    {
      "midi": 63,
      "time": 63.75,
      "duration": 0.25,
      "velocity": 0.71,
      "hand": "right"
    },
    {
      "midi": 37,
      "time": 64,
      "duration": 0.25,
      "velocity": 0.71,
      "hand": "left"
    },
    {
      "midi": 61,
      "time": 64,
      "duration": 1,
      "velocity": 0.71,
      "hand": "right"
    },
    {
      "midi": 66,
      "time": 64,
      "duration": 1,
      "velocity": 0.71,
      "hand": "right"
    },
    {
      "midi": 70,
      "time": 64,
      "duration": 1,
      "velocity": 0.71,
      "hand": "right"
    },
    {
      "midi": 73,
      "time": 64,
      "duration": 1,
      "velocity": 0.71,
      "hand": "right"
    },
    {
      "midi": 49,
      "time": 64.25,
      "duration": 0.25,
      "velocity": 0.71,
      "hand": "left"
    },
    {
      "midi": 54,
      "time": 64.5,
      "duration": 0.25,
      "velocity": 0.71,
      "hand": "left"
    },
    {
      "midi": 58,
      "time": 64.75,
      "duration": 0.25,
      "velocity": 0.71,
      "hand": "left"
    },
    {
      "midi": 56,
      "time": 65,
      "duration": 0.25,
      "velocity": 0.71,
      "hand": "left"
    },
    {
      "midi": 63,
      "time": 65,
      "duration": 1,
      "velocity": 0.71,
      "hand": "right"
    },
    {
      "midi": 70,
      "time": 65,
      "duration": 1,
      "velocity": 0.71,
      "hand": "right"
    },
    {
      "midi": 73,
      "time": 65,
      "duration": 1,
      "velocity": 0.71,
      "hand": "right"
    },
    {
      "midi": 75,
      "time": 65,
      "duration": 1,
      "velocity": 0.71,
      "hand": "right"
    },
    {
      "midi": 55,
      "time": 65.25,
      "duration": 0.25,
      "velocity": 0.71,
      "hand": "left"
    },
    {
      "midi": 59,
      "time": 65.5,
      "duration": 0.25,
      "velocity": 0.71,
      "hand": "left"
    },
    {
      "midi": 58,
      "time": 65.75,
      "duration": 0.25,
      "velocity": 0.71,
      "hand": "left"
    },
    {
      "midi": 49,
      "time": 66,
      "duration": 2,
      "velocity": 0.71,
      "hand": "left"
    },
    {
      "midi": 63,
      "time": 66,
      "duration": 1.5,
      "velocity": 0.71,
      "hand": "right"
    },
    {
      "midi": 68,
      "time": 66,
      "duration": 1.5,
      "velocity": 0.71,
      "hand": "right"
    },
    {
      "midi": 71,
      "time": 66,
      "duration": 1.5,
      "velocity": 0.71,
      "hand": "right"
    },
    {
      "midi": 75,
      "time": 66,
      "duration": 1.5,
      "velocity": 0.71,
      "hand": "right"
    },
    {
      "midi": 55,
      "time": 66.25,
      "duration": 0.25,
      "velocity": 0.71,
      "hand": "left"
    },
    {
      "midi": 56,
      "time": 66.5,
      "duration": 0.25,
      "velocity": 0.71,
      "hand": "left"
    },
    {
      "midi": 59,
      "time": 66.75,
      "duration": 0.25,
      "velocity": 0.71,
      "hand": "left"
    },
    {
      "midi": 58,
      "time": 67,
      "duration": 0.25,
      "velocity": 0.71,
      "hand": "left"
    },
    {
      "midi": 56,
      "time": 67.25,
      "duration": 0.25,
      "velocity": 0.71,
      "hand": "left"
    },
    {
      "midi": 63,
      "time": 67.5,
      "duration": 0.25,
      "velocity": 0.71,
      "hand": "right"
    },
    {
      "midi": 65,
      "time": 67.5,
      "duration": 0.5,
      "velocity": 0.71,
      "hand": "right"
    },
    {
      "midi": 71,
      "time": 67.5,
      "duration": 0.5,
      "velocity": 0.71,
      "hand": "right"
    },
    {
      "midi": 73,
      "time": 67.5,
      "duration": 0.5,
      "velocity": 0.71,
      "hand": "right"
    },
    {
      "midi": 77,
      "time": 67.5,
      "duration": 0.5,
      "velocity": 0.71,
      "hand": "right"
    },
    {
      "midi": 61,
      "time": 67.75,
      "duration": 0.25,
      "velocity": 0.71,
      "hand": "right"
    },
    {
      "midi": 30,
      "time": 68,
      "duration": 0.25,
      "velocity": 0.71,
      "hand": "left"
    },
    {
      "midi": 65,
      "time": 68,
      "duration": 0.75,
      "velocity": 0.71,
      "hand": "right"
    },
    {
      "midi": 70,
      "time": 68,
      "duration": 1,
      "velocity": 0.71,
      "hand": "right"
    },
    {
      "midi": 73,
      "time": 68,
      "duration": 1,
      "velocity": 0.71,
      "hand": "right"
    },
    {
      "midi": 77,
      "time": 68,
      "duration": 0.75,
      "velocity": 0.71,
      "hand": "right"
    },
    {
      "midi": 42,
      "time": 68.25,
      "duration": 0.25,
      "velocity": 0.71,
      "hand": "left"
    },
    {
      "midi": 49,
      "time": 68.5,
      "duration": 0.25,
      "velocity": 0.71,
      "hand": "left"
    },
    {
      "midi": 58,
      "time": 68.75,
      "duration": 0.25,
      "velocity": 0.71,
      "hand": "left"
    },
    {
      "midi": 66,
      "time": 68.75,
      "duration": 0.25,
      "velocity": 0.71,
      "hand": "right"
    },
    {
      "midi": 78,
      "time": 68.75,
      "duration": 0.25,
      "velocity": 0.71,
      "hand": "right"
    },
    {
      "midi": 56,
      "time": 69,
      "duration": 0.25,
      "velocity": 0.71,
      "hand": "left"
    },
    {
      "midi": 54,
      "time": 69.25,
      "duration": 0.25,
      "velocity": 0.71,
      "hand": "left"
    },
    {
      "midi": 61,
      "time": 69.5,
      "duration": 0.25,
      "velocity": 0.71,
      "hand": "right"
    },
    {
      "midi": 70,
      "time": 69.75,
      "duration": 0.25,
      "velocity": 0.71,
      "hand": "right"
    },
    {
      "midi": 68,
      "time": 70,
      "duration": 0.25,
      "velocity": 0.71,
      "hand": "right"
    },
    {
      "midi": 66,
      "time": 70.25,
      "duration": 0.25,
      "velocity": 0.71,
      "hand": "right"
    },
    {
      "midi": 70,
      "time": 70.5,
      "duration": 0.25,
      "velocity": 0.71,
      "hand": "right"
    },
    {
      "midi": 71,
      "time": 70.75,
      "duration": 0.25,
      "velocity": 0.71,
      "hand": "right"
    },
    {
      "midi": 73,
      "time": 71,
      "duration": 1,
      "velocity": 0.71,
      "hand": "right"
    },
    {
      "midi": 85,
      "time": 71,
      "duration": 0.875,
      "velocity": 0.71,
      "hand": "right"
    },
    {
      "midi": 76,
      "time": 71.25,
      "duration": 0.25,
      "velocity": 0.71,
      "hand": "right"
    },
    {
      "midi": 82,
      "time": 71.5,
      "duration": 0.25,
      "velocity": 0.71,
      "hand": "right"
    },
    {
      "midi": 80,
      "time": 71.75,
      "duration": 0.25,
      "velocity": 0.71,
      "hand": "right"
    },
    {
      "midi": 85,
      "time": 71.875,
      "duration": 0.125,
      "velocity": 0.71,
      "hand": "right"
    },
    {
      "midi": 30,
      "time": 72,
      "duration": 0.25,
      "velocity": 0.71,
      "hand": "left"
    },
    {
      "midi": 73,
      "time": 72,
      "duration": 2,
      "velocity": 0.71,
      "hand": "right"
    },
    {
      "midi": 76,
      "time": 72,
      "duration": 2,
      "velocity": 0.71,
      "hand": "right"
    },
    {
      "midi": 80,
      "time": 72,
      "duration": 1.75,
      "velocity": 0.71,
      "hand": "right"
    },
    {
      "midi": 85,
      "time": 72,
      "duration": 2,
      "velocity": 0.71,
      "hand": "right"
    },
    {
      "midi": 42,
      "time": 72.25,
      "duration": 0.25,
      "velocity": 0.71,
      "hand": "left"
    },
    {
      "midi": 49,
      "time": 72.5,
      "duration": 0.25,
      "velocity": 0.71,
      "hand": "left"
    },
    {
      "midi": 58,
      "time": 72.75,
      "duration": 0.25,
      "velocity": 0.71,
      "hand": "left"
    },
    {
      "midi": 56,
      "time": 73,
      "duration": 0.25,
      "velocity": 0.71,
      "hand": "left"
    },
    {
      "midi": 54,
      "time": 73.25,
      "duration": 0.25,
      "velocity": 0.71,
      "hand": "left"
    },
    {
      "midi": 61,
      "time": 73.5,
      "duration": 0.25,
      "velocity": 0.71,
      "hand": "right"
    },
    {
      "midi": 70,
      "time": 73.75,
      "duration": 0.25,
      "velocity": 0.71,
      "hand": "right"
    },
    {
      "midi": 78,
      "time": 73.75,
      "duration": 0.25,
      "velocity": 0.71,
      "hand": "right"
    },
    {
      "midi": 68,
      "time": 74,
      "duration": 0.25,
      "velocity": 0.71,
      "hand": "right"
    },
    {
      "midi": 66,
      "time": 74.25,
      "duration": 0.25,
      "velocity": 0.71,
      "hand": "right"
    },
    {
      "midi": 70,
      "time": 74.5,
      "duration": 0.25,
      "velocity": 0.71,
      "hand": "right"
    },
    {
      "midi": 71,
      "time": 74.75,
      "duration": 0.25,
      "velocity": 0.71,
      "hand": "right"
    },
    {
      "midi": 73,
      "time": 75,
      "duration": 0.75,
      "velocity": 0.71,
      "hand": "right"
    },
    {
      "midi": 85,
      "time": 75,
      "duration": 0.75,
      "velocity": 0.71,
      "hand": "right"
    },
    {
      "midi": 76,
      "time": 75.25,
      "duration": 0.25,
      "velocity": 0.71,
      "hand": "right"
    },
    {
      "midi": 82,
      "time": 75.5,
      "duration": 0.25,
      "velocity": 0.71,
      "hand": "right"
    },
    {
      "midi": 40,
      "time": 75.75,
      "duration": 0.5,
      "velocity": 0.71,
      "hand": "left"
    },
    {
      "midi": 74,
      "time": 75.75,
      "duration": 0.25,
      "velocity": 0.71,
      "hand": "right"
    },
    {
      "midi": 80,
      "time": 75.75,
      "duration": 0.25,
      "velocity": 0.71,
      "hand": "right"
    },
    {
      "midi": 86,
      "time": 75.75,
      "duration": 0.25,
      "velocity": 0.71,
      "hand": "right"
    },
    {
      "midi": 75,
      "time": 76,
      "duration": 1,
      "velocity": 0.71,
      "hand": "right"
    },
    {
      "midi": 79,
      "time": 76,
      "duration": 1,
      "velocity": 0.71,
      "hand": "right"
    },
    {
      "midi": 87,
      "time": 76,
      "duration": 1,
      "velocity": 0.71,
      "hand": "right"
    },
    {
      "midi": 39,
      "time": 76.25,
      "duration": 0.25,
      "velocity": 0.71,
      "hand": "left"
    },
    {
      "midi": 46,
      "time": 76.5,
      "duration": 0.25,
      "velocity": 0.71,
      "hand": "left"
    },
    {
      "midi": 55,
      "time": 76.75,
      "duration": 0.25,
      "velocity": 0.71,
      "hand": "left"
    },
    {
      "midi": 53,
      "time": 77,
      "duration": 0.25,
      "velocity": 0.71,
      "hand": "left"
    },
    {
      "midi": 70,
      "time": 77,
      "duration": 0.5,
      "velocity": 0.71,
      "hand": "right"
    },
    {
      "midi": 79,
      "time": 77,
      "duration": 0.5,
      "velocity": 0.71,
      "hand": "right"
    },
    {
      "midi": 82,
      "time": 77,
      "duration": 0.5,
      "velocity": 0.71,
      "hand": "right"
    },
    {
      "midi": 51,
      "time": 77.25,
      "duration": 0.25,
      "velocity": 0.71,
      "hand": "left"
    },
    {
      "midi": 58,
      "time": 77.5,
      "duration": 0.25,
      "velocity": 0.71,
      "hand": "left"
    },
    {
      "midi": 67,
      "time": 77.75,
      "duration": 0.25,
      "velocity": 0.71,
      "hand": "right"
    },
    {
      "midi": 65,
      "time": 78,
      "duration": 0.25,
      "velocity": 0.71,
      "hand": "right"
    },
    {
      "midi": 63,
      "time": 78.25,
      "duration": 0.25,
      "velocity": 0.71,
      "hand": "right"
    },
    {
      "midi": 67,
      "time": 78.5,
      "duration": 0.25,
      "velocity": 0.71,
      "hand": "right"
    },
    {
      "midi": 68,
      "time": 78.75,
      "duration": 0.25,
      "velocity": 0.71,
      "hand": "right"
    },
    {
      "midi": 70,
      "time": 79,
      "duration": 1,
      "velocity": 0.71,
      "hand": "right"
    },
    {
      "midi": 82,
      "time": 79,
      "duration": 0.875,
      "velocity": 0.71,
      "hand": "right"
    },
    {
      "midi": 75,
      "time": 79.25,
      "duration": 0.25,
      "velocity": 0.71,
      "hand": "right"
    },
    {
      "midi": 79,
      "time": 79.5,
      "duration": 0.25,
      "velocity": 0.71,
      "hand": "right"
    },
    {
      "midi": 77,
      "time": 79.75,
      "duration": 0.25,
      "velocity": 0.71,
      "hand": "right"
    },
    {
      "midi": 82,
      "time": 79.875,
      "duration": 0.125,
      "velocity": 0.71,
      "hand": "right"
    },
    {
      "midi": 27,
      "time": 80,
      "duration": 0.25,
      "velocity": 0.71,
      "hand": "left"
    },
    {
      "midi": 70,
      "time": 80,
      "duration": 2,
      "velocity": 0.71,
      "hand": "right"
    },
    {
      "midi": 77,
      "time": 80,
      "duration": 1.75,
      "velocity": 0.71,
      "hand": "right"
    },
    {
      "midi": 79,
      "time": 80,
      "duration": 2,
      "velocity": 0.71,
      "hand": "right"
    },
    {
      "midi": 82,
      "time": 80,
      "duration": 2,
      "velocity": 0.71,
      "hand": "right"
    },
    {
      "midi": 39,
      "time": 80.25,
      "duration": 0.25,
      "velocity": 0.71,
      "hand": "left"
    },
    {
      "midi": 46,
      "time": 80.5,
      "duration": 0.25,
      "velocity": 0.71,
      "hand": "left"
    },
    {
      "midi": 55,
      "time": 80.75,
      "duration": 0.25,
      "velocity": 0.71,
      "hand": "left"
    },
    {
      "midi": 53,
      "time": 81,
      "duration": 0.25,
      "velocity": 0.71,
      "hand": "left"
    },
    {
      "midi": 51,
      "time": 81.25,
      "duration": 0.25,
      "velocity": 0.71,
      "hand": "left"
    },
    {
      "midi": 58,
      "time": 81.5,
      "duration": 0.25,
      "velocity": 0.71,
      "hand": "left"
    },
    {
      "midi": 67,
      "time": 81.75,
      "duration": 0.25,
      "velocity": 0.71,
      "hand": "right"
    },
    {
      "midi": 75,
      "time": 81.75,
      "duration": 0.25,
      "velocity": 0.71,
      "hand": "right"
    },
    {
      "midi": 65,
      "time": 82,
      "duration": 0.25,
      "velocity": 0.71,
      "hand": "right"
    },
    {
      "midi": 63,
      "time": 82.25,
      "duration": 0.25,
      "velocity": 0.71,
      "hand": "right"
    },
    {
      "midi": 67,
      "time": 82.5,
      "duration": 0.25,
      "velocity": 0.71,
      "hand": "right"
    },
    {
      "midi": 68,
      "time": 82.75,
      "duration": 0.25,
      "velocity": 0.71,
      "hand": "right"
    },
    {
      "midi": 70,
      "time": 83,
      "duration": 0.75,
      "velocity": 0.71,
      "hand": "right"
    },
    {
      "midi": 82,
      "time": 83,
      "duration": 0.75,
      "velocity": 0.71,
      "hand": "right"
    },
    {
      "midi": 75,
      "time": 83.25,
      "duration": 0.25,
      "velocity": 0.71,
      "hand": "right"
    },
    {
      "midi": 79,
      "time": 83.5,
      "duration": 0.5,
      "velocity": 0.71,
      "hand": "right"
    },
    {
      "midi": 71,
      "time": 83.75,
      "duration": 0.25,
      "velocity": 0.71,
      "hand": "right"
    },
    {
      "midi": 83,
      "time": 83.75,
      "duration": 0.25,
      "velocity": 0.71,
      "hand": "right"
    },
    {
      "midi": 32,
      "time": 84,
      "duration": 0.25,
      "velocity": 0.71,
      "hand": "left"
    },
    {
      "midi": 71,
      "time": 84,
      "duration": 0.5,
      "velocity": 0.71,
      "hand": "right"
    },
    {
      "midi": 75,
      "time": 84,
      "duration": 1,
      "velocity": 0.71,
      "hand": "right"
    },
    {
      "midi": 79,
      "time": 84,
      "duration": 0.5,
      "velocity": 0.71,
      "hand": "right"
    },
    {
      "midi": 83,
      "time": 84,
      "duration": 0.5,
      "velocity": 0.71,
      "hand": "right"
    },
    {
      "midi": 44,
      "time": 84.25,
      "duration": 0.25,
      "velocity": 0.71,
      "hand": "left"
    },
    {
      "midi": 51,
      "time": 84.5,
      "duration": 0.25,
      "velocity": 0.71,
      "hand": "left"
    },
    {
      "midi": 72,
      "time": 84.5,
      "duration": 0.5,
      "velocity": 0.71,
      "hand": "right"
    },
    {
      "midi": 80,
      "time": 84.5,
      "duration": 0.5,
      "velocity": 0.71,
      "hand": "right"
    },
    {
      "midi": 84,
      "time": 84.5,
      "duration": 0.5,
      "velocity": 0.71,
      "hand": "right"
    },
    {
      "midi": 60,
      "time": 84.75,
      "duration": 0.25,
      "velocity": 0.71,
      "hand": "right"
    },
    {
      "midi": 58,
      "time": 85,
      "duration": 0.25,
      "velocity": 0.71,
      "hand": "left"
    },
    {
      "midi": 56,
      "time": 85.25,
      "duration": 0.25,
      "velocity": 0.71,
      "hand": "left"
    },
    {
      "midi": 63,
      "time": 85.5,
      "duration": 0.25,
      "velocity": 0.71,
      "hand": "right"
    },
    {
      "midi": 72,
      "time": 85.75,
      "duration": 0.25,
      "velocity": 0.71,
      "hand": "right"
    },
    {
      "midi": 70,
      "time": 86,
      "duration": 0.25,
      "velocity": 0.71,
      "hand": "right"
    },
    {
      "midi": 68,
      "time": 86.25,
      "duration": 0.25,
      "velocity": 0.71,
      "hand": "right"
    },
    {
      "midi": 72,
      "time": 86.5,
      "duration": 0.25,
      "velocity": 0.71,
      "hand": "right"
    },
    {
      "midi": 73,
      "time": 86.75,
      "duration": 0.25,
      "velocity": 0.71,
      "hand": "right"
    },
    {
      "midi": 75,
      "time": 87,
      "duration": 1,
      "velocity": 0.71,
      "hand": "right"
    },
    {
      "midi": 87,
      "time": 87,
      "duration": 0.875,
      "velocity": 0.71,
      "hand": "right"
    },
    {
      "midi": 78,
      "time": 87.25,
      "duration": 0.25,
      "velocity": 0.71,
      "hand": "right"
    },
    {
      "midi": 84,
      "time": 87.5,
      "duration": 0.25,
      "velocity": 0.71,
      "hand": "right"
    },
    {
      "midi": 82,
      "time": 87.75,
      "duration": 0.25,
      "velocity": 0.71,
      "hand": "right"
    },
    {
      "midi": 87,
      "time": 87.875,
      "duration": 0.125,
      "velocity": 0.71,
      "hand": "right"
    },
    {
      "midi": 32,
      "time": 88,
      "duration": 0.25,
      "velocity": 0.71,
      "hand": "left"
    },
    {
      "midi": 75,
      "time": 88,
      "duration": 2,
      "velocity": 0.71,
      "hand": "right"
    },
    {
      "midi": 78,
      "time": 88,
      "duration": 2,
      "velocity": 0.71,
      "hand": "right"
    },
    {
      "midi": 82,
      "time": 88,
      "duration": 1.75,
      "velocity": 0.71,
      "hand": "right"
    },
    {
      "midi": 87,
      "time": 88,
      "duration": 2,
      "velocity": 0.71,
      "hand": "right"
    },
    {
      "midi": 44,
      "time": 88.25,
      "duration": 0.25,
      "velocity": 0.71,
      "hand": "left"
    },
    {
      "midi": 51,
      "time": 88.5,
      "duration": 0.25,
      "velocity": 0.71,
      "hand": "left"
    },
    {
      "midi": 60,
      "time": 88.75,
      "duration": 0.25,
      "velocity": 0.71,
      "hand": "right"
    },
    {
      "midi": 58,
      "time": 89,
      "duration": 0.25,
      "velocity": 0.71,
      "hand": "left"
    },
    {
      "midi": 56,
      "time": 89.25,
      "duration": 0.25,
      "velocity": 0.71,
      "hand": "left"
    },
    {
      "midi": 63,
      "time": 89.5,
      "duration": 0.25,
      "velocity": 0.71,
      "hand": "right"
    },
    {
      "midi": 72,
      "time": 89.75,
      "duration": 0.25,
      "velocity": 0.71,
      "hand": "right"
    },
    {
      "midi": 80,
      "time": 89.75,
      "duration": 0.25,
      "velocity": 0.71,
      "hand": "right"
    },
    {
      "midi": 70,
      "time": 90,
      "duration": 0.25,
      "velocity": 0.71,
      "hand": "right"
    },
    {
      "midi": 68,
      "time": 90.25,
      "duration": 0.25,
      "velocity": 0.71,
      "hand": "right"
    },
    {
      "midi": 72,
      "time": 90.5,
      "duration": 0.25,
      "velocity": 0.71,
      "hand": "right"
    },
    {
      "midi": 73,
      "time": 90.75,
      "duration": 0.25,
      "velocity": 0.71,
      "hand": "right"
    },
    {
      "midi": 75,
      "time": 91,
      "duration": 0.75,
      "velocity": 0.71,
      "hand": "right"
    },
    {
      "midi": 87,
      "time": 91,
      "duration": 0.75,
      "velocity": 0.71,
      "hand": "right"
    },
    {
      "midi": 78,
      "time": 91.25,
      "duration": 0.25,
      "velocity": 0.71,
      "hand": "right"
    },
    {
      "midi": 84,
      "time": 91.5,
      "duration": 0.25,
      "velocity": 0.71,
      "hand": "right"
    },
    {
      "midi": 42,
      "time": 91.75,
      "duration": 0.5,
      "velocity": 0.71,
      "hand": "left"
    },
    {
      "midi": 76,
      "time": 91.75,
      "duration": 0.25,
      "velocity": 0.71,
      "hand": "right"
    },
    {
      "midi": 82,
      "time": 91.75,
      "duration": 0.25,
      "velocity": 0.71,
      "hand": "right"
    },
    {
      "midi": 88,
      "time": 91.75,
      "duration": 0.25,
      "velocity": 0.71,
      "hand": "right"
    },
    {
      "midi": 77,
      "time": 92,
      "duration": 1,
      "velocity": 0.71,
      "hand": "right"
    },
    {
      "midi": 81,
      "time": 92,
      "duration": 1,
      "velocity": 0.71,
      "hand": "right"
    },
    {
      "midi": 89,
      "time": 92,
      "duration": 1,
      "velocity": 0.71,
      "hand": "right"
    },
    {
      "midi": 41,
      "time": 92.25,
      "duration": 0.25,
      "velocity": 0.71,
      "hand": "left"
    },
    {
      "midi": 48,
      "time": 92.5,
      "duration": 0.25,
      "velocity": 0.71,
      "hand": "left"
    },
    {
      "midi": 57,
      "time": 92.75,
      "duration": 0.25,
      "velocity": 0.71,
      "hand": "left"
    },
    {
      "midi": 55,
      "time": 93,
      "duration": 0.25,
      "velocity": 0.71,
      "hand": "left"
    },
    {
      "midi": 72,
      "time": 93,
      "duration": 0.5,
      "velocity": 0.71,
      "hand": "right"
    },
    {
      "midi": 81,
      "time": 93,
      "duration": 0.5,
      "velocity": 0.71,
      "hand": "right"
    },
    {
      "midi": 84,
      "time": 93,
      "duration": 0.5,
      "velocity": 0.71,
      "hand": "right"
    },
    {
      "midi": 53,
      "time": 93.25,
      "duration": 0.25,
      "velocity": 0.71,
      "hand": "left"
    },
    {
      "midi": 60,
      "time": 93.5,
      "duration": 0.25,
      "velocity": 0.71,
      "hand": "right"
    },
    {
      "midi": 69,
      "time": 93.75,
      "duration": 0.25,
      "velocity": 0.71,
      "hand": "right"
    },
    {
      "midi": 67,
      "time": 94,
      "duration": 0.25,
      "velocity": 0.71,
      "hand": "right"
    },
    {
      "midi": 65,
      "time": 94.25,
      "duration": 0.25,
      "velocity": 0.71,
      "hand": "right"
    },
    {
      "midi": 69,
      "time": 94.5,
      "duration": 0.25,
      "velocity": 0.71,
      "hand": "right"
    },
    {
      "midi": 70,
      "time": 94.75,
      "duration": 0.25,
      "velocity": 0.71,
      "hand": "right"
    },
    {
      "midi": 72,
      "time": 95,
      "duration": 1,
      "velocity": 0.71,
      "hand": "right"
    },
    {
      "midi": 84,
      "time": 95,
      "duration": 0.875,
      "velocity": 0.71,
      "hand": "right"
    },
    {
      "midi": 77,
      "time": 95.25,
      "duration": 0.25,
      "velocity": 0.71,
      "hand": "right"
    },
    {
      "midi": 81,
      "time": 95.5,
      "duration": 0.25,
      "velocity": 0.71,
      "hand": "right"
    },
    {
      "midi": 79,
      "time": 95.75,
      "duration": 0.25,
      "velocity": 0.71,
      "hand": "right"
    },
    {
      "midi": 84,
      "time": 95.875,
      "duration": 0.125,
      "velocity": 0.71,
      "hand": "right"
    },
    {
      "midi": 29,
      "time": 96,
      "duration": 0.25,
      "velocity": 0.71,
      "hand": "left"
    },
    {
      "midi": 72,
      "time": 96,
      "duration": 2,
      "velocity": 0.71,
      "hand": "right"
    },
    {
      "midi": 79,
      "time": 96,
      "duration": 1.75,
      "velocity": 0.71,
      "hand": "right"
    },
    {
      "midi": 81,
      "time": 96,
      "duration": 2,
      "velocity": 0.71,
      "hand": "right"
    },
    {
      "midi": 84,
      "time": 96,
      "duration": 2,
      "velocity": 0.71,
      "hand": "right"
    },
    {
      "midi": 41,
      "time": 96.25,
      "duration": 0.25,
      "velocity": 0.71,
      "hand": "left"
    },
    {
      "midi": 48,
      "time": 96.5,
      "duration": 0.25,
      "velocity": 0.71,
      "hand": "left"
    },
    {
      "midi": 57,
      "time": 96.75,
      "duration": 0.25,
      "velocity": 0.71,
      "hand": "left"
    },
    {
      "midi": 55,
      "time": 97,
      "duration": 0.25,
      "velocity": 0.71,
      "hand": "left"
    },
    {
      "midi": 53,
      "time": 97.25,
      "duration": 0.25,
      "velocity": 0.71,
      "hand": "left"
    },
    {
      "midi": 60,
      "time": 97.5,
      "duration": 0.25,
      "velocity": 0.71,
      "hand": "right"
    },
    {
      "midi": 69,
      "time": 97.75,
      "duration": 0.25,
      "velocity": 0.71,
      "hand": "right"
    },
    {
      "midi": 77,
      "time": 97.75,
      "duration": 0.25,
      "velocity": 0.71,
      "hand": "right"
    },
    {
      "midi": 67,
      "time": 98,
      "duration": 0.25,
      "velocity": 0.71,
      "hand": "right"
    },
    {
      "midi": 65,
      "time": 98.25,
      "duration": 0.25,
      "velocity": 0.71,
      "hand": "right"
    },
    {
      "midi": 69,
      "time": 98.5,
      "duration": 0.25,
      "velocity": 0.71,
      "hand": "right"
    },
    {
      "midi": 70,
      "time": 98.75,
      "duration": 0.25,
      "velocity": 0.71,
      "hand": "right"
    },
    {
      "midi": 72,
      "time": 99,
      "duration": 0.75,
      "velocity": 0.71,
      "hand": "right"
    },
    {
      "midi": 84,
      "time": 99,
      "duration": 0.75,
      "velocity": 0.71,
      "hand": "right"
    },
    {
      "midi": 77,
      "time": 99.25,
      "duration": 0.25,
      "velocity": 0.71,
      "hand": "right"
    },
    {
      "midi": 81,
      "time": 99.5,
      "duration": 0.5,
      "velocity": 0.71,
      "hand": "right"
    },
    {
      "midi": 73,
      "time": 99.75,
      "duration": 0.25,
      "velocity": 0.71,
      "hand": "right"
    },
    {
      "midi": 85,
      "time": 99.75,
      "duration": 0.25,
      "velocity": 0.71,
      "hand": "right"
    },
    {
      "midi": 28,
      "time": 100,
      "duration": 0.25,
      "velocity": 0.71,
      "hand": "left"
    },
    {
      "midi": 73,
      "time": 100,
      "duration": 2,
      "velocity": 0.71,
      "hand": "right"
    },
    {
      "midi": 76,
      "time": 100,
      "duration": 2,
      "velocity": 0.71,
      "hand": "right"
    },
    {
      "midi": 81,
      "time": 100,
      "duration": 2,
      "velocity": 0.71,
      "hand": "right"
    },
    {
      "midi": 85,
      "time": 100,
      "duration": 2,
      "velocity": 0.71,
      "hand": "right"
    },
    {
      "midi": 40,
      "time": 100.25,
      "duration": 0.25,
      "velocity": 0.71,
      "hand": "left"
    },
    {
      "midi": 45,
      "time": 100.5,
      "duration": 0.25,
      "velocity": 0.71,
      "hand": "left"
    },
    {
      "midi": 52,
      "time": 100.75,
      "duration": 0.25,
      "velocity": 0.71,
      "hand": "left"
    },
    {
      "midi": 54,
      "time": 101,
      "duration": 0.25,
      "velocity": 0.71,
      "hand": "left"
    },
    {
      "midi": 52,
      "time": 101.25,
      "duration": 0.25,
      "velocity": 0.71,
      "hand": "left"
    },
    {
      "midi": 61,
      "time": 101.5,
      "duration": 0.25,
      "velocity": 0.71,
      "hand": "right"
    },
    {
      "midi": 69,
      "time": 101.75,
      "duration": 0.25,
      "velocity": 0.71,
      "hand": "right"
    },
    {
      "midi": 71,
      "time": 102,
      "duration": 0.5,
      "velocity": 0.71,
      "hand": "right"
    },
    {
      "midi": 78,
      "time": 102,
      "duration": 1,
      "velocity": 0.71,
      "hand": "right"
    },
    {
      "midi": 83,
      "time": 102,
      "duration": 0.5,
      "velocity": 0.71,
      "hand": "right"
    },
    {
      "midi": 39,
      "time": 102.25,
      "duration": 0.25,
      "velocity": 0.71,
      "hand": "left"
    },
    {
      "midi": 47,
      "time": 102.5,
      "duration": 0.25,
      "velocity": 0.71,
      "hand": "left"
    },
    {
      "midi": 69,
      "time": 102.5,
      "duration": 0.5,
      "velocity": 0.71,
      "hand": "right"
    },
    {
      "midi": 81,
      "time": 102.5,
      "duration": 0.5,
      "velocity": 0.71,
      "hand": "right"
    },
    {
      "midi": 54,
      "time": 102.75,
      "duration": 0.25,
      "velocity": 0.71,
      "hand": "left"
    },
    {
      "midi": 61,
      "time": 103,
      "duration": 0.5,
      "velocity": 0.71,
      "hand": "right"
    },
    {
      "midi": 66,
      "time": 103,
      "duration": 0.5,
      "velocity": 0.71,
      "hand": "right"
    },
    {
      "midi": 69,
      "time": 103,
      "duration": 0.5,
      "velocity": 0.71,
      "hand": "right"
    },
    {
      "midi": 71,
      "time": 103,
      "duration": 0.5,
      "velocity": 0.71,
      "hand": "right"
    },
    {
      "midi": 78,
      "time": 103,
      "duration": 0.5,
      "velocity": 0.71,
      "hand": "right"
    },
    {
      "midi": 51,
      "time": 103.25,
      "duration": 0.25,
      "velocity": 0.71,
      "hand": "left"
    },
    {
      "midi": 59,
      "time": 103.5,
      "duration": 0.5,
      "velocity": 0.71,
      "hand": "left"
    },
    {
      "midi": 69,
      "time": 103.5,
      "duration": 0.25,
      "velocity": 0.71,
      "hand": "right"
    },
    {
      "midi": 71,
      "time": 103.5,
      "duration": 0.5,
      "velocity": 0.71,
      "hand": "right"
    },
    {
      "midi": 81,
      "time": 103.5,
      "duration": 0.5,
      "velocity": 0.71,
      "hand": "right"
    },
    {
      "midi": 69,
      "time": 103.75,
      "duration": 0.25,
      "velocity": 0.71,
      "hand": "right"
    },
    {
      "midi": 64,
      "time": 104,
      "duration": 2,
      "velocity": 0.71,
      "hand": "right"
    },
    {
      "midi": 69,
      "time": 104,
      "duration": 2,
      "velocity": 0.71,
      "hand": "right"
    },
    {
      "midi": 73,
      "time": 104,
      "duration": 2,
      "velocity": 0.71,
      "hand": "right"
    },
    {
      "midi": 76,
      "time": 104,
      "duration": 2,
      "velocity": 0.71,
      "hand": "right"
    },
    {
      "midi": 40,
      "time": 104.25,
      "duration": 0.25,
      "velocity": 0.71,
      "hand": "left"
    },
    {
      "midi": 45,
      "time": 104.5,
      "duration": 0.25,
      "velocity": 0.71,
      "hand": "left"
    },
    {
      "midi": 52,
      "time": 104.75,
      "duration": 0.25,
      "velocity": 0.71,
      "hand": "left"
    },
    {
      "midi": 54,
      "time": 105,
      "duration": 0.25,
      "velocity": 0.71,
      "hand": "left"
    },
    {
      "midi": 52,
      "time": 105.25,
      "duration": 0.25,
      "velocity": 0.71,
      "hand": "left"
    },
    {
      "midi": 62,
      "time": 105.5,
      "duration": 0.25,
      "velocity": 0.71,
      "hand": "right"
    },
    {
      "midi": 61,
      "time": 105.75,
      "duration": 0.25,
      "velocity": 0.71,
      "hand": "right"
    },
    {
      "midi": 28,
      "time": 106,
      "duration": 0.25,
      "velocity": 0.71,
      "hand": "left"
    },
    {
      "midi": 62,
      "time": 106,
      "duration": 2,
      "velocity": 0.71,
      "hand": "right"
    },
    {
      "midi": 64,
      "time": 106,
      "duration": 2,
      "velocity": 0.71,
      "hand": "right"
    },
    {
      "midi": 68,
      "time": 106,
      "duration": 2,
      "velocity": 0.71,
      "hand": "right"
    },
    {
      "midi": 73,
      "time": 106,
      "duration": 1.75,
      "velocity": 0.71,
      "hand": "right"
    },
    {
      "midi": 76,
      "time": 106,
      "duration": 1.75,
      "velocity": 0.71,
      "hand": "right"
    },
    {
      "midi": 40,
      "time": 106.25,
      "duration": 0.25,
      "velocity": 0.71,
      "hand": "left"
    },
    {
      "midi": 47,
      "time": 106.5,
      "duration": 0.25,
      "velocity": 0.71,
      "hand": "left"
    },
    {
      "midi": 52,
      "time": 106.75,
      "duration": 0.25,
      "velocity": 0.71,
      "hand": "left"
    },
    {
      "midi": 54,
      "time": 107,
      "duration": 0.25,
      "velocity": 0.71,
      "hand": "left"
    },
    {
      "midi": 52,
      "time": 107.25,
      "duration": 0.25,
      "velocity": 0.71,
      "hand": "left"
    },
    {
      "midi": 61,
      "time": 107.5,
      "duration": 0.25,
      "velocity": 0.71,
      "hand": "right"
    },
    {
      "midi": 59,
      "time": 107.75,
      "duration": 0.25,
      "velocity": 0.71,
      "hand": "left"
    },
    {
      "midi": 74,
      "time": 107.75,
      "duration": 0.25,
      "velocity": 0.71,
      "hand": "right"
    },
    {
      "midi": 29,
      "time": 108,
      "duration": 0.25,
      "velocity": 0.71,
      "hand": "left"
    },
    {
      "midi": 62,
      "time": 108,
      "duration": 0.5,
      "velocity": 0.71,
      "hand": "right"
    },
    {
      "midi": 68,
      "time": 108,
      "duration": 0.5,
      "velocity": 0.71,
      "hand": "right"
    },
    {
      "midi": 74,
      "time": 108,
      "duration": 0.5,
      "velocity": 0.71,
      "hand": "right"
    },
    {
      "midi": 41,
      "time": 108.25,
      "duration": 0.25,
      "velocity": 0.71,
      "hand": "left"
    },
    {
      "midi": 48,
      "time": 108.5,
      "duration": 0.25,
      "velocity": 0.71,
      "hand": "left"
    },
    {
      "midi": 60,
      "time": 108.5,
      "duration": 1,
      "velocity": 0.71,
      "hand": "right"
    },
    {
      "midi": 69,
      "time": 108.5,
      "duration": 1,
      "velocity": 0.71,
      "hand": "right"
    },
    {
      "midi": 72,
      "time": 108.5,
      "duration": 1,
      "velocity": 0.71,
      "hand": "right"
    },
    {
      "midi": 57,
      "time": 108.75,
      "duration": 0.25,
      "velocity": 0.71,
      "hand": "left"
    },
    {
      "midi": 55,
      "time": 109,
      "duration": 0.25,
      "velocity": 0.71,
      "hand": "left"
    },
    {
      "midi": 53,
      "time": 109.25,
      "duration": 0.25,
      "velocity": 0.71,
      "hand": "left"
    },
    {
      "midi": 60,
      "time": 109.5,
      "duration": 0.25,
      "velocity": 0.71,
      "hand": "right"
    },
    {
      "midi": 69,
      "time": 109.5,
      "duration": 0.25,
      "velocity": 0.71,
      "hand": "right"
    },
    {
      "midi": 72,
      "time": 109.5,
      "duration": 0.5,
      "velocity": 0.71,
      "hand": "right"
    },
    {
      "midi": 81,
      "time": 109.5,
      "duration": 0.5,
      "velocity": 0.71,
      "hand": "right"
    },
    {
      "midi": 69,
      "time": 109.75,
      "duration": 0.25,
      "velocity": 0.71,
      "hand": "right"
    },
    {
      "midi": 67,
      "time": 110,
      "duration": 0.5,
      "velocity": 0.71,
      "hand": "right"
    },
    {
      "midi": 70,
      "time": 110,
      "duration": 1,
      "velocity": 0.71,
      "hand": "right"
    },
    {
      "midi": 74,
      "time": 110,
      "duration": 1,
      "velocity": 0.71,
      "hand": "right"
    },
    {
      "midi": 79,
      "time": 110,
      "duration": 0.5,
      "velocity": 0.71,
      "hand": "right"
    },
    {
      "midi": 34,
      "time": 110.25,
      "duration": 0.25,
      "velocity": 0.71,
      "hand": "left"
    },
    {
      "midi": 41,
      "time": 110.5,
      "duration": 0.25,
      "velocity": 0.71,
      "hand": "left"
    },
    {
      "midi": 65,
      "time": 110.5,
      "duration": 0.5,
      "velocity": 0.71,
      "hand": "right"
    },
    {
      "midi": 77,
      "time": 110.5,
      "duration": 0.5,
      "velocity": 0.71,
      "hand": "right"
    },
    {
      "midi": 50,
      "time": 110.75,
      "duration": 0.25,
      "velocity": 0.71,
      "hand": "left"
    },
    {
      "midi": 48,
      "time": 111,
      "duration": 0.25,
      "velocity": 0.71,
      "hand": "left"
    },
    {
      "midi": 62,
      "time": 111,
      "duration": 0.5,
      "velocity": 0.71,
      "hand": "right"
    },
    {
      "midi": 70,
      "time": 111,
      "duration": 0.5,
      "velocity": 0.71,
      "hand": "right"
    },
    {
      "midi": 74,
      "time": 111,
      "duration": 0.5,
      "velocity": 0.71,
      "hand": "right"
    },
    {
      "midi": 46,
      "time": 111.25,
      "duration": 0.25,
      "velocity": 0.71,
      "hand": "left"
    },
    {
      "midi": 53,
      "time": 111.5,
      "duration": 0.25,
      "velocity": 0.71,
      "hand": "left"
    },
    {
      "midi": 65,
      "time": 111.5,
      "duration": 0.5,
      "velocity": 0.71,
      "hand": "right"
    },
    {
      "midi": 74,
      "time": 111.5,
      "duration": 0.5,
      "velocity": 0.71,
      "hand": "right"
    },
    {
      "midi": 77,
      "time": 111.5,
      "duration": 0.5,
      "velocity": 0.71,
      "hand": "right"
    },
    {
      "midi": 62,
      "time": 111.75,
      "duration": 0.25,
      "velocity": 0.71,
      "hand": "right"
    },
    {
      "midi": 36,
      "time": 112,
      "duration": 0.25,
      "velocity": 0.71,
      "hand": "left"
    },
    {
      "midi": 60,
      "time": 112,
      "duration": 1,
      "velocity": 0.71,
      "hand": "right"
    },
    {
      "midi": 65,
      "time": 112,
      "duration": 1,
      "velocity": 0.71,
      "hand": "right"
    },
    {
      "midi": 69,
      "time": 112,
      "duration": 1,
      "velocity": 0.71,
      "hand": "right"
    },
    {
      "midi": 72,
      "time": 112,
      "duration": 1,
      "velocity": 0.71,
      "hand": "right"
    },
    {
      "midi": 48,
      "time": 112.25,
      "duration": 0.25,
      "velocity": 0.71,
      "hand": "left"
    },
    {
      "midi": 53,
      "time": 112.5,
      "duration": 0.25,
      "velocity": 0.71,
      "hand": "left"
    },
    {
      "midi": 57,
      "time": 112.75,
      "duration": 0.25,
      "velocity": 0.71,
      "hand": "left"
    },
    {
      "midi": 55,
      "time": 113,
      "duration": 0.25,
      "velocity": 0.71,
      "hand": "left"
    },
    {
      "midi": 62,
      "time": 113,
      "duration": 1,
      "velocity": 0.71,
      "hand": "right"
    },
    {
      "midi": 69,
      "time": 113,
      "duration": 1,
      "velocity": 0.71,
      "hand": "right"
    },
    {
      "midi": 72,
      "time": 113,
      "duration": 1,
      "velocity": 0.71,
      "hand": "right"
    },
    {
      "midi": 74,
      "time": 113,
      "duration": 1,
      "velocity": 0.71,
      "hand": "right"
    },
    {
      "midi": 54,
      "time": 113.25,
      "duration": 0.25,
      "velocity": 0.71,
      "hand": "left"
    },
    {
      "midi": 58,
      "time": 113.5,
      "duration": 0.25,
      "velocity": 0.71,
      "hand": "left"
    },
    {
      "midi": 57,
      "time": 113.75,
      "duration": 0.25,
      "velocity": 0.71,
      "hand": "left"
    },
    {
      "midi": 48,
      "time": 114,
      "duration": 2,
      "velocity": 0.71,
      "hand": "left"
    },
    {
      "midi": 62,
      "time": 114,
      "duration": 1.5,
      "velocity": 0.71,
      "hand": "right"
    },
    {
      "midi": 67,
      "time": 114,
      "duration": 1.5,
      "velocity": 0.71,
      "hand": "right"
    },
    {
      "midi": 70,
      "time": 114,
      "duration": 1.5,
      "velocity": 0.71,
      "hand": "right"
    },
    {
      "midi": 74,
      "time": 114,
      "duration": 1.5,
      "velocity": 0.71,
      "hand": "right"
    },
    {
      "midi": 54,
      "time": 114.25,
      "duration": 0.25,
      "velocity": 0.71,
      "hand": "left"
    },
    {
      "midi": 55,
      "time": 114.5,
      "duration": 0.25,
      "velocity": 0.71,
      "hand": "left"
    },
    {
      "midi": 58,
      "time": 114.75,
      "duration": 0.25,
      "velocity": 0.71,
      "hand": "left"
    },
    {
      "midi": 57,
      "time": 115,
      "duration": 0.25,
      "velocity": 0.71,
      "hand": "left"
    },
    {
      "midi": 55,
      "time": 115.25,
      "duration": 0.25,
      "velocity": 0.71,
      "hand": "left"
    },
    {
      "midi": 62,
      "time": 115.5,
      "duration": 0.25,
      "velocity": 0.71,
      "hand": "right"
    },
    {
      "midi": 64,
      "time": 115.5,
      "duration": 0.5,
      "velocity": 0.71,
      "hand": "right"
    },
    {
      "midi": 70,
      "time": 115.5,
      "duration": 0.5,
      "velocity": 0.71,
      "hand": "right"
    },
    {
      "midi": 72,
      "time": 115.5,
      "duration": 0.5,
      "velocity": 0.71,
      "hand": "right"
    },
    {
      "midi": 76,
      "time": 115.5,
      "duration": 0.5,
      "velocity": 0.71,
      "hand": "right"
    },
    {
      "midi": 60,
      "time": 115.75,
      "duration": 0.25,
      "velocity": 0.71,
      "hand": "right"
    },
    {
      "midi": 64,
      "time": 116,
      "duration": 0.75,
      "velocity": 0.71,
      "hand": "right"
    },
    {
      "midi": 69,
      "time": 116,
      "duration": 1,
      "velocity": 0.71,
      "hand": "right"
    },
    {
      "midi": 72,
      "time": 116,
      "duration": 1,
      "velocity": 0.71,
      "hand": "right"
    },
    {
      "midi": 76,
      "time": 116,
      "duration": 0.75,
      "velocity": 0.71,
      "hand": "right"
    },
    {
      "midi": 41,
      "time": 116.25,
      "duration": 0.25,
      "velocity": 0.71,
      "hand": "left"
    },
    {
      "midi": 48,
      "time": 116.5,
      "duration": 0.25,
      "velocity": 0.71,
      "hand": "left"
    },
    {
      "midi": 57,
      "time": 116.75,
      "duration": 0.25,
      "velocity": 0.71,
      "hand": "left"
    },
    {
      "midi": 65,
      "time": 116.75,
      "duration": 0.25,
      "velocity": 0.71,
      "hand": "right"
    },
    {
      "midi": 77,
      "time": 116.75,
      "duration": 0.25,
      "velocity": 0.71,
      "hand": "right"
    },
    {
      "midi": 55,
      "time": 117,
      "duration": 0.25,
      "velocity": 0.71,
      "hand": "left"
    },
    {
      "midi": 53,
      "time": 117.25,
      "duration": 0.25,
      "velocity": 0.71,
      "hand": "left"
    },
    {
      "midi": 60,
      "time": 117.5,
      "duration": 0.25,
      "velocity": 0.71,
      "hand": "right"
    },
    {
      "midi": 69,
      "time": 117.75,
      "duration": 0.25,
      "velocity": 0.71,
      "hand": "right"
    },
    {
      "midi": 65,
      "time": 118,
      "duration": 0.25,
      "velocity": 0.71,
      "hand": "right"
    },
    {
      "midi": 60,
      "time": 118.25,
      "duration": 0.25,
      "velocity": 0.71,
      "hand": "right"
    },
    {
      "midi": 57,
      "time": 118.5,
      "duration": 0.25,
      "velocity": 0.71,
      "hand": "left"
    },
    {
      "midi": 61,
      "time": 118.75,
      "duration": 0.25,
      "velocity": 0.71,
      "hand": "right"
    },
    {
      "midi": 60,
      "time": 119,
      "duration": 0.25,
      "velocity": 0.71,
      "hand": "right"
    },
    {
      "midi": 57,
      "time": 119.25,
      "duration": 0.25,
      "velocity": 0.71,
      "hand": "left"
    },
    {
      "midi": 53,
      "time": 119.5,
      "duration": 0.25,
      "velocity": 0.71,
      "hand": "left"
    },
    {
      "midi": 69,
      "time": 119.75,
      "duration": 0.25,
      "velocity": 0.71,
      "hand": "right"
    },
    {
      "midi": 65,
      "time": 120,
      "duration": 0.25,
      "velocity": 0.71,
      "hand": "right"
    },
    {
      "midi": 60,
      "time": 120.25,
      "duration": 0.25,
      "velocity": 0.71,
      "hand": "right"
    },
    {
      "midi": 57,
      "time": 120.5,
      "duration": 0.25,
      "velocity": 0.71,
      "hand": "left"
    },
    {
      "midi": 61,
      "time": 120.75,
      "duration": 0.25,
      "velocity": 0.71,
      "hand": "right"
    },
    {
      "midi": 60,
      "time": 121,
      "duration": 0.25,
      "velocity": 0.71,
      "hand": "right"
    },
    {
      "midi": 57,
      "time": 121.25,
      "duration": 0.25,
      "velocity": 0.71,
      "hand": "left"
    },
    {
      "midi": 53,
      "time": 121.5,
      "duration": 0.25,
      "velocity": 0.71,
      "hand": "left"
    },
    {
      "midi": 58,
      "time": 121.75,
      "duration": 0.25,
      "velocity": 0.71,
      "hand": "left"
    },
    {
      "midi": 57,
      "time": 122,
      "duration": 0.25,
      "velocity": 0.71,
      "hand": "left"
    },
    {
      "midi": 53,
      "time": 122.25,
      "duration": 0.25,
      "velocity": 0.71,
      "hand": "left"
    },
    {
      "midi": 48,
      "time": 122.5,
      "duration": 0.25,
      "velocity": 0.71,
      "hand": "left"
    },
    {
      "midi": 54,
      "time": 122.75,
      "duration": 0.25,
      "velocity": 0.71,
      "hand": "left"
    },
    {
      "midi": 53,
      "time": 123,
      "duration": 0.25,
      "velocity": 0.71,
      "hand": "left"
    },
    {
      "midi": 48,
      "time": 123.25,
      "duration": 0.25,
      "velocity": 0.71,
      "hand": "left"
    },
    {
      "midi": 45,
      "time": 123.5,
      "duration": 0.25,
      "velocity": 0.71,
      "hand": "left"
    },
    {
      "midi": 49,
      "time": 123.75,
      "duration": 0.25,
      "velocity": 0.71,
      "hand": "left"
    },
    {
      "midi": 41,
      "time": 124,
      "duration": 0.25,
      "velocity": 0.71,
      "hand": "left"
    },
    {
      "midi": 48,
      "time": 124.25,
      "duration": 0.25,
      "velocity": 0.71,
      "hand": "left"
    },
    {
      "midi": 57,
      "time": 124.5,
      "duration": 0.25,
      "velocity": 0.71,
      "hand": "left"
    },
    {
      "midi": 53,
      "time": 124.75,
      "duration": 1.25,
      "velocity": 0.71,
      "hand": "left"
    },
    {
      "midi": 65,
      "time": 125,
      "duration": 1,
      "velocity": 0.71,
      "hand": "right"
    },
    {
      "midi": 58,
      "time": 125.25,
      "duration": 0.25,
      "velocity": 0.71,
      "hand": "left"
    },
    {
      "midi": 59,
      "time": 125.5,
      "duration": 0.25,
      "velocity": 0.71,
      "hand": "left"
    },
    {
      "midi": 60,
      "time": 125.75,
      "duration": 0.25,
      "velocity": 0.71,
      "hand": "right"
    },
    {
      "midi": 61,
      "time": 125.75,
      "duration": 0.063,
      "velocity": 0.71,
      "hand": "right"
    },
    {
      "midi": 40,
      "time": 126,
      "duration": 0.25,
      "velocity": 0.71,
      "hand": "left"
    },
    {
      "midi": 49,
      "time": 126.25,
      "duration": 0.25,
      "velocity": 0.71,
      "hand": "left"
    },
    {
      "midi": 58,
      "time": 126.5,
      "duration": 0.25,
      "velocity": 0.71,
      "hand": "left"
    },
    {
      "midi": 54,
      "time": 126.75,
      "duration": 1.25,
      "velocity": 0.71,
      "hand": "left"
    },
    {
      "midi": 66,
      "time": 127,
      "duration": 1,
      "velocity": 0.71,
      "hand": "right"
    },
    {
      "midi": 59,
      "time": 127.25,
      "duration": 0.25,
      "velocity": 0.71,
      "hand": "left"
    },
    {
      "midi": 60,
      "time": 127.5,
      "duration": 0.25,
      "velocity": 0.71,
      "hand": "right"
    },
    {
      "midi": 61,
      "time": 127.75,
      "duration": 0.25,
      "velocity": 0.71,
      "hand": "right"
    },
    {
      "midi": 63,
      "time": 127.75,
      "duration": 0.063,
      "velocity": 0.71,
      "hand": "right"
    },
    {
      "midi": 39,
      "time": 128,
      "duration": 0.25,
      "velocity": 0.71,
      "hand": "left"
    },
    {
      "midi": 49,
      "time": 128.25,
      "duration": 0.25,
      "velocity": 0.71,
      "hand": "left"
    },
    {
      "midi": 58,
      "time": 128.5,
      "duration": 0.25,
      "velocity": 0.71,
      "hand": "left"
    },
    {
      "midi": 55,
      "time": 128.75,
      "duration": 1.25,
      "velocity": 0.71,
      "hand": "left"
    },
    {
      "midi": 67,
      "time": 129,
      "duration": 1,
      "velocity": 0.71,
      "hand": "right"
    },
    {
      "midi": 61,
      "time": 129.25,
      "duration": 0.25,
      "velocity": 0.71,
      "hand": "right"
    },
    {
      "midi": 63,
      "time": 129.5,
      "duration": 0.25,
      "velocity": 0.71,
      "hand": "right"
    },
    {
      "midi": 64,
      "time": 129.75,
      "duration": 0.25,
      "velocity": 0.71,
      "hand": "right"
    },
    {
      "midi": 66,
      "time": 129.75,
      "duration": 0.063,
      "velocity": 0.71,
      "hand": "right"
    },
    {
      "midi": 32,
      "time": 130,
      "duration": 0.25,
      "velocity": 0.71,
      "hand": "left"
    },
    {
      "midi": 44,
      "time": 130.25,
      "duration": 0.25,
      "velocity": 0.71,
      "hand": "left"
    },
    {
      "midi": 54,
      "time": 130.5,
      "duration": 0.25,
      "velocity": 0.71,
      "hand": "left"
    },
    {
      "midi": 57,
      "time": 130.75,
      "duration": 0.25,
      "velocity": 0.71,
      "hand": "left"
    },
    {
      "midi": 56,
      "time": 131,
      "duration": 0.75,
      "velocity": 0.71,
      "hand": "left"
    },
    {
      "midi": 68,
      "time": 131,
      "duration": 1,
      "velocity": 0.71,
      "hand": "right"
    },
    {
      "midi": 60,
      "time": 131.25,
      "duration": 0.25,
      "velocity": 0.71,
      "hand": "right"
    },
    {
      "midi": 64,
      "time": 131.5,
      "duration": 0.25,
      "velocity": 0.71,
      "hand": "right"
    },
    {
      "midi": 54,
      "time": 131.75,
      "duration": 0.25,
      "velocity": 0.71,
      "hand": "left"
    },
    {
      "midi": 63,
      "time": 131.75,
      "duration": 0.25,
      "velocity": 0.71,
      "hand": "right"
    },
    {
      "midi": 25,
      "time": 132,
      "duration": 0.25,
      "velocity": 0.71,
      "hand": "left"
    },
    {
      "midi": 52,
      "time": 132,
      "duration": 0.75,
      "velocity": 0.71,
      "hand": "left"
    },
    {
      "midi": 63,
      "time": 132,
      "duration": 0.75,
      "velocity": 0.71,
      "hand": "right"
    },
    {
      "midi": 37,
      "time": 132.25,
      "duration": 0.25,
      "velocity": 0.71,
      "hand": "left"
    },
    {
      "midi": 44,
      "time": 132.5,
      "duration": 0.25,
      "velocity": 0.71,
      "hand": "left"
    },
    {
      "midi": 52,
      "time": 132.75,
      "duration": 0.25,
      "velocity": 0.71,
      "hand": "left"
    },
    {
      "midi": 61,
      "time": 132.75,
      "duration": 0.25,
      "velocity": 0.71,
      "hand": "right"
    },
    {
      "midi": 51,
      "time": 133,
      "duration": 0.25,
      "velocity": 0.71,
      "hand": "left"
    },
    {
      "midi": 49,
      "time": 133.25,
      "duration": 0.25,
      "velocity": 0.71,
      "hand": "left"
    },
    {
      "midi": 56,
      "time": 133.5,
      "duration": 0.25,
      "velocity": 0.71,
      "hand": "left"
    },
    {
      "midi": 64,
      "time": 133.75,
      "duration": 0.25,
      "velocity": 0.71,
      "hand": "right"
    },
    {
      "midi": 63,
      "time": 134,
      "duration": 0.25,
      "velocity": 0.71,
      "hand": "right"
    },
    {
      "midi": 61,
      "time": 134.25,
      "duration": 0.25,
      "velocity": 0.71,
      "hand": "right"
    },
    {
      "midi": 64,
      "time": 134.5,
      "duration": 0.25,
      "velocity": 0.71,
      "hand": "right"
    },
    {
      "midi": 66,
      "time": 134.75,
      "duration": 0.25,
      "velocity": 0.71,
      "hand": "right"
    },
    {
      "midi": 68,
      "time": 135,
      "duration": 1,
      "velocity": 0.71,
      "hand": "right"
    },
    {
      "midi": 80,
      "time": 135,
      "duration": 1,
      "velocity": 0.71,
      "hand": "right"
    },
    {
      "midi": 73,
      "time": 135.25,
      "duration": 0.25,
      "velocity": 0.71,
      "hand": "right"
    },
    {
      "midi": 75,
      "time": 135.5,
      "duration": 0.25,
      "velocity": 0.71,
      "hand": "right"
    },
    {
      "midi": 76,
      "time": 135.75,
      "duration": 0.25,
      "velocity": 0.71,
      "hand": "right"
    },
    {
      "midi": 78,
      "time": 135.75,
      "duration": 0.063,
      "velocity": 0.71,
      "hand": "right"
    },
    {
      "midi": 68,
      "time": 136,
      "duration": 2,
      "velocity": 0.71,
      "hand": "right"
    },
    {
      "midi": 75,
      "time": 136,
      "duration": 1.75,
      "velocity": 0.71,
      "hand": "right"
    },
    {
      "midi": 80,
      "time": 136,
      "duration": 2,
      "velocity": 0.71,
      "hand": "right"
    },
    {
      "midi": 37,
      "time": 136.25,
      "duration": 0.25,
      "velocity": 0.71,
      "hand": "left"
    },
    {
      "midi": 44,
      "time": 136.5,
      "duration": 0.25,
      "velocity": 0.71,
      "hand": "left"
    },
    {
      "midi": 52,
      "time": 136.75,
      "duration": 0.25,
      "velocity": 0.71,
      "hand": "left"
    },
    {
      "midi": 51,
      "time": 137,
      "duration": 0.25,
      "velocity": 0.71,
      "hand": "left"
    },
    {
      "midi": 49,
      "time": 137.25,
      "duration": 0.25,
      "velocity": 0.71,
      "hand": "left"
    },
    {
      "midi": 56,
      "time": 137.5,
      "duration": 0.25,
      "velocity": 0.71,
      "hand": "left"
    },
    {
      "midi": 64,
      "time": 137.75,
      "duration": 0.25,
      "velocity": 0.71,
      "hand": "right"
    },
    {
      "midi": 73,
      "time": 137.75,
      "duration": 0.25,
      "velocity": 0.71,
      "hand": "right"
    },
    {
      "midi": 63,
      "time": 138,
      "duration": 0.25,
      "velocity": 0.71,
      "hand": "right"
    },
    {
      "midi": 61,
      "time": 138.25,
      "duration": 0.25,
      "velocity": 0.71,
      "hand": "right"
    },
    {
      "midi": 64,
      "time": 138.5,
      "duration": 0.25,
      "velocity": 0.71,
      "hand": "right"
    },
    {
      "midi": 66,
      "time": 138.75,
      "duration": 0.25,
      "velocity": 0.71,
      "hand": "right"
    },
    {
      "midi": 68,
      "time": 139,
      "duration": 0.75,
      "velocity": 0.71,
      "hand": "right"
    },
    {
      "midi": 80,
      "time": 139,
      "duration": 0.75,
      "velocity": 0.71,
      "hand": "right"
    },
    {
      "midi": 73,
      "time": 139.25,
      "duration": 0.25,
      "velocity": 0.71,
      "hand": "right"
    },
    {
      "midi": 76,
      "time": 139.5,
      "duration": 0.5,
      "velocity": 0.71,
      "hand": "right"
    },
    {
      "midi": 42,
      "time": 139.75,
      "duration": 0.5,
      "velocity": 0.71,
      "hand": "left"
    },
    {
      "midi": 70,
      "time": 139.75,
      "duration": 0.25,
      "velocity": 0.71,
      "hand": "right"
    },
    {
      "midi": 82,
      "time": 139.75,
      "duration": 0.25,
      "velocity": 0.71,
      "hand": "right"
    },
    {
      "midi": 70,
      "time": 140,
      "duration": 0.063,
      "velocity": 0.71,
      "hand": "right"
    },
    {
      "midi": 70,
      "time": 140,
      "duration": 0.75,
      "velocity": 0.71,
      "hand": "right"
    },
    {
      "midi": 76,
      "time": 140,
      "duration": 0.75,
      "velocity": 0.71,
      "hand": "right"
    },
    {
      "midi": 85,
      "time": 140,
      "duration": 0.75,
      "velocity": 0.71,
      "hand": "right"
    },
    {
      "midi": 35,
      "time": 140.25,
      "duration": 0.25,
      "velocity": 0.71,
      "hand": "left"
    },
    {
      "midi": 42,
      "time": 140.5,
      "duration": 0.25,
      "velocity": 0.71,
      "hand": "left"
    },
    {
      "midi": 51,
      "time": 140.75,
      "duration": 0.25,
      "velocity": 0.71,
      "hand": "left"
    },
    {
      "midi": 71,
      "time": 140.75,
      "duration": 0.25,
      "velocity": 0.71,
      "hand": "right"
    },
    {
      "midi": 75,
      "time": 140.75,
      "duration": 0.25,
      "velocity": 0.71,
      "hand": "right"
    },
    {
      "midi": 83,
      "time": 140.75,
      "duration": 0.25,
      "velocity": 0.71,
      "hand": "right"
    },
    {
      "midi": 49,
      "time": 141,
      "duration": 0.25,
      "velocity": 0.71,
      "hand": "left"
    },
    {
      "midi": 47,
      "time": 141.25,
      "duration": 0.25,
      "velocity": 0.71,
      "hand": "left"
    },
    {
      "midi": 54,
      "time": 141.5,
      "duration": 0.25,
      "velocity": 0.71,
      "hand": "left"
    },
    {
      "midi": 63,
      "time": 141.75,
      "duration": 0.25,
      "velocity": 0.71,
      "hand": "right"
    },
    {
      "midi": 61,
      "time": 142,
      "duration": 0.25,
      "velocity": 0.71,
      "hand": "right"
    },
    {
      "midi": 59,
      "time": 142.25,
      "duration": 0.25,
      "velocity": 0.71,
      "hand": "left"
    },
    {
      "midi": 63,
      "time": 142.5,
      "duration": 0.25,
      "velocity": 0.71,
      "hand": "right"
    },
    {
      "midi": 64,
      "time": 142.75,
      "duration": 0.25,
      "velocity": 0.71,
      "hand": "right"
    },
    {
      "midi": 66,
      "time": 143,
      "duration": 1,
      "velocity": 0.71,
      "hand": "right"
    },
    {
      "midi": 78,
      "time": 143,
      "duration": 1,
      "velocity": 0.71,
      "hand": "right"
    },
    {
      "midi": 71,
      "time": 143.25,
      "duration": 0.25,
      "velocity": 0.71,
      "hand": "right"
    },
    {
      "midi": 73,
      "time": 143.5,
      "duration": 0.25,
      "velocity": 0.71,
      "hand": "right"
    },
    {
      "midi": 74,
      "time": 143.75,
      "duration": 0.25,
      "velocity": 0.71,
      "hand": "right"
    },
    {
      "midi": 76,
      "time": 143.75,
      "duration": 0.063,
      "velocity": 0.71,
      "hand": "right"
    },
    {
      "midi": 66,
      "time": 144,
      "duration": 2,
      "velocity": 0.71,
      "hand": "right"
    },
    {
      "midi": 73,
      "time": 144,
      "duration": 1.75,
      "velocity": 0.71,
      "hand": "right"
    },
    {
      "midi": 78,
      "time": 144,
      "duration": 2,
      "velocity": 0.71,
      "hand": "right"
    },
    {
      "midi": 35,
      "time": 144.25,
      "duration": 0.25,
      "velocity": 0.71,
      "hand": "left"
    },
    {
      "midi": 42,
      "time": 144.5,
      "duration": 0.25,
      "velocity": 0.71,
      "hand": "left"
    },
    {
      "midi": 50,
      "time": 144.75,
      "duration": 0.25,
      "velocity": 0.71,
      "hand": "left"
    },
    {
      "midi": 49,
      "time": 145,
      "duration": 0.25,
      "velocity": 0.71,
      "hand": "left"
    },
    {
      "midi": 47,
      "time": 145.25,
      "duration": 0.25,
      "velocity": 0.71,
      "hand": "left"
    },
    {
      "midi": 54,
      "time": 145.5,
      "duration": 0.25,
      "velocity": 0.71,
      "hand": "left"
    },
    {
      "midi": 62,
      "time": 145.75,
      "duration": 0.25,
      "velocity": 0.71,
      "hand": "right"
    },
    {
      "midi": 71,
      "time": 145.75,
      "duration": 0.25,
      "velocity": 0.71,
      "hand": "right"
    },
    {
      "midi": 61,
      "time": 146,
      "duration": 0.25,
      "velocity": 0.71,
      "hand": "right"
    },
    {
      "midi": 59,
      "time": 146.25,
      "duration": 0.25,
      "velocity": 0.71,
      "hand": "left"
    },
    {
      "midi": 62,
      "time": 146.5,
      "duration": 0.25,
      "velocity": 0.71,
      "hand": "right"
    },
    {
      "midi": 64,
      "time": 146.75,
      "duration": 0.25,
      "velocity": 0.71,
      "hand": "right"
    },
    {
      "midi": 66,
      "time": 147,
      "duration": 0.75,
      "velocity": 0.71,
      "hand": "right"
    },
    {
      "midi": 78,
      "time": 147,
      "duration": 0.75,
      "velocity": 0.71,
      "hand": "right"
    },
    {
      "midi": 71,
      "time": 147.25,
      "duration": 0.25,
      "velocity": 0.71,
      "hand": "right"
    },
    {
      "midi": 74,
      "time": 147.5,
      "duration": 0.5,
      "velocity": 0.71,
      "hand": "right"
    },
    {
      "midi": 40,
      "time": 147.75,
      "duration": 0.5,
      "velocity": 0.71,
      "hand": "left"
    },
    {
      "midi": 68,
      "time": 147.75,
      "duration": 0.25,
      "velocity": 0.71,
      "hand": "right"
    },
    {
      "midi": 80,
      "time": 147.75,
      "duration": 0.25,
      "velocity": 0.71,
      "hand": "right"
    },
    {
      "midi": 68,
      "time": 148,
      "duration": 0.5,
      "velocity": 0.71,
      "hand": "right"
    },
    {
      "midi": 74,
      "time": 148,
      "duration": 0.5,
      "velocity": 0.71,
      "hand": "right"
    },
    {
      "midi": 83,
      "time": 148,
      "duration": 0.5,
      "velocity": 0.71,
      "hand": "right"
    },
    {
      "midi": 33,
      "time": 148.25,
      "duration": 0.25,
      "velocity": 0.71,
      "hand": "left"
    },
    {
      "midi": 40,
      "time": 148.5,
      "duration": 0.25,
      "velocity": 0.71,
      "hand": "left"
    },
    {
      "midi": 69,
      "time": 148.5,
      "duration": 1,
      "velocity": 0.71,
      "hand": "right"
    },
    {
      "midi": 73,
      "time": 148.5,
      "duration": 1,
      "velocity": 0.71,
      "hand": "right"
    },
    {
      "midi": 81,
      "time": 148.5,
      "duration": 1,
      "velocity": 0.71,
      "hand": "right"
    },
    {
      "midi": 49,
      "time": 148.75,
      "duration": 0.25,
      "velocity": 0.71,
      "hand": "left"
    },
    {
      "midi": 47,
      "time": 149,
      "duration": 0.25,
      "velocity": 0.71,
      "hand": "left"
    },
    {
      "midi": 45,
      "time": 149.25,
      "duration": 0.25,
      "velocity": 0.71,
      "hand": "left"
    },
    {
      "midi": 52,
      "time": 149.5,
      "duration": 0.25,
      "velocity": 0.71,
      "hand": "left"
    },
    {
      "midi": 68,
      "time": 149.5,
      "duration": 0.5,
      "velocity": 0.71,
      "hand": "right"
    },
    {
      "midi": 73,
      "time": 149.5,
      "duration": 0.5,
      "velocity": 0.71,
      "hand": "right"
    },
    {
      "midi": 80,
      "time": 149.5,
      "duration": 0.5,
      "velocity": 0.71,
      "hand": "right"
    },
    {
      "midi": 61,
      "time": 149.75,
      "duration": 0.25,
      "velocity": 0.71,
      "hand": "right"
    },
    {
      "midi": 59,
      "time": 150,
      "duration": 0.25,
      "velocity": 0.71,
      "hand": "left"
    },
    {
      "midi": 68,
      "time": 150,
      "duration": 1.75,
      "velocity": 0.71,
      "hand": "right"
    },
    {
      "midi": 73,
      "time": 150,
      "duration": 2,
      "velocity": 0.71,
      "hand": "right"
    },
    {
      "midi": 80,
      "time": 150,
      "duration": 1.75,
      "velocity": 0.71,
      "hand": "right"
    },
    {
      "midi": 57,
      "time": 150.25,
      "duration": 0.25,
      "velocity": 0.71,
      "hand": "left"
    },
    {
      "midi": 61,
      "time": 150.5,
      "duration": 0.25,
      "velocity": 0.71,
      "hand": "right"
    },
    {
      "midi": 66,
      "time": 150.75,
      "duration": 0.25,
      "velocity": 0.71,
      "hand": "right"
    },
    {
      "midi": 64,
      "time": 151,
      "duration": 0.25,
      "velocity": 0.71,
      "hand": "right"
    },
    {
      "midi": 61,
      "time": 151.25,
      "duration": 0.25,
      "velocity": 0.71,
      "hand": "right"
    },
    {
      "midi": 57,
      "time": 151.5,
      "duration": 0.25,
      "velocity": 0.71,
      "hand": "left"
    },
    {
      "midi": 63,
      "time": 151.75,
      "duration": 0.25,
      "velocity": 0.71,
      "hand": "right"
    },
    {
      "midi": 67,
      "time": 151.75,
      "duration": 0.25,
      "velocity": 0.71,
      "hand": "right"
    },
    {
      "midi": 79,
      "time": 151.75,
      "duration": 0.25,
      "velocity": 0.71,
      "hand": "right"
    },
    {
      "midi": 61,
      "time": 152,
      "duration": 0.25,
      "velocity": 0.71,
      "hand": "right"
    },
    {
      "midi": 57,
      "time": 152.25,
      "duration": 0.25,
      "velocity": 0.71,
      "hand": "left"
    },
    {
      "midi": 52,
      "time": 152.5,
      "duration": 0.25,
      "velocity": 0.71,
      "hand": "left"
    },
    {
      "midi": 66,
      "time": 152.75,
      "duration": 0.25,
      "velocity": 0.71,
      "hand": "right"
    },
    {
      "midi": 64,
      "time": 153,
      "duration": 0.25,
      "velocity": 0.71,
      "hand": "right"
    },
    {
      "midi": 61,
      "time": 153.25,
      "duration": 0.25,
      "velocity": 0.71,
      "hand": "right"
    },
    {
      "midi": 57,
      "time": 153.5,
      "duration": 0.25,
      "velocity": 0.71,
      "hand": "left"
    },
    {
      "midi": 63,
      "time": 153.75,
      "duration": 0.25,
      "velocity": 0.71,
      "hand": "right"
    },
    {
      "midi": 61,
      "time": 154,
      "duration": 0.25,
      "velocity": 0.71,
      "hand": "right"
    },
    {
      "midi": 57,
      "time": 154.25,
      "duration": 0.25,
      "velocity": 0.71,
      "hand": "left"
    },
    {
      "midi": 52,
      "time": 154.5,
      "duration": 0.25,
      "velocity": 0.71,
      "hand": "left"
    },
    {
      "midi": 59,
      "time": 154.75,
      "duration": 0.25,
      "velocity": 0.71,
      "hand": "left"
    },
    {
      "midi": 57,
      "time": 155,
      "duration": 0.25,
      "velocity": 0.71,
      "hand": "left"
    },
    {
      "midi": 67,
      "time": 155,
      "duration": 1,
      "velocity": 0.71,
      "hand": "right"
    },
    {
      "midi": 52,
      "time": 155.25,
      "duration": 0.25,
      "velocity": 0.71,
      "hand": "left"
    },
    {
      "midi": 73,
      "time": 155.25,
      "duration": 0.25,
      "velocity": 0.71,
      "hand": "right"
    },
    {
      "midi": 51,
      "time": 155.5,
      "duration": 0.25,
      "velocity": 0.71,
      "hand": "left"
    },
    {
      "midi": 75,
      "time": 155.5,
      "duration": 0.25,
      "velocity": 0.71,
      "hand": "right"
    },
    {
      "midi": 49,
      "time": 155.75,
      "duration": 0.25,
      "velocity": 0.71,
      "hand": "left"
    },
    {
      "midi": 76,
      "time": 155.75,
      "duration": 0.25,
      "velocity": 0.71,
      "hand": "right"
    },
    {
      "midi": 78,
      "time": 155.75,
      "duration": 0.063,
      "velocity": 0.71,
      "hand": "right"
    },
    {
      "midi": 45,
      "time": 156,
      "duration": 2,
      "velocity": 0.71,
      "hand": "left"
    },
    {
      "midi": 61,
      "time": 156,
      "duration": 2,
      "velocity": 0.71,
      "hand": "right"
    },
    {
      "midi": 67,
      "time": 156,
      "duration": 2,
      "velocity": 0.71,
      "hand": "right"
    },
    {
      "midi": 75,
      "time": 156,
      "duration": 0.75,
      "velocity": 0.71,
      "hand": "right"
    },
    {
      "midi": 81,
      "time": 156,
      "duration": 2,
      "velocity": 0.71,
      "hand": "right"
    },
    {
      "midi": 73,
      "time": 156.75,
      "duration": 0.25,
      "velocity": 0.71,
      "hand": "right"
    },
    {
      "midi": 61,
      "time": 158,
      "duration": 0.25,
      "velocity": 0.71,
      "hand": "right"
    },
    {
      "midi": 67,
      "time": 158,
      "duration": 0.25,
      "velocity": 0.71,
      "hand": "right"
    },
    {
      "midi": 69,
      "time": 158,
      "duration": 0.25,
      "velocity": 0.71,
      "hand": "right"
    },
    {
      "midi": 76,
      "time": 158,
      "duration": 0.25,
      "velocity": 0.71,
      "hand": "right"
    },
    {
      "midi": 57,
      "time": 158.25,
      "duration": 0.25,
      "velocity": 0.71,
      "hand": "left"
    },
    {
      "midi": 64,
      "time": 158.25,
      "duration": 0.25,
      "velocity": 0.71,
      "hand": "right"
    },
    {
      "midi": 73,
      "time": 158.25,
      "duration": 0.25,
      "velocity": 0.71,
      "hand": "right"
    },
    {
      "midi": 81,
      "time": 158.25,
      "duration": 0.25,
      "velocity": 0.71,
      "hand": "right"
    },
    {
      "midi": 61,
      "time": 158.5,
      "duration": 0.25,
      "velocity": 0.71,
      "hand": "right"
    },
    {
      "midi": 66,
      "time": 158.5,
      "duration": 0.25,
      "velocity": 0.71,
      "hand": "right"
    },
    {
      "midi": 69,
      "time": 158.5,
      "duration": 0.25,
      "velocity": 0.71,
      "hand": "right"
    },
    {
      "midi": 75,
      "time": 158.5,
      "duration": 0.25,
      "velocity": 0.71,
      "hand": "right"
    },
    {
      "midi": 54,
      "time": 158.75,
      "duration": 0.25,
      "velocity": 0.71,
      "hand": "left"
    },
    {
      "midi": 63,
      "time": 158.75,
      "duration": 0.25,
      "velocity": 0.71,
      "hand": "right"
    },
    {
      "midi": 73,
      "time": 158.75,
      "duration": 0.25,
      "velocity": 0.71,
      "hand": "right"
    },
    {
      "midi": 81,
      "time": 158.75,
      "duration": 0.25,
      "velocity": 0.71,
      "hand": "right"
    },
    {
      "midi": 60,
      "time": 159,
      "duration": 0.25,
      "velocity": 0.71,
      "hand": "right"
    },
    {
      "midi": 66,
      "time": 159,
      "duration": 0.25,
      "velocity": 0.71,
      "hand": "right"
    },
    {
      "midi": 68,
      "time": 159,
      "duration": 0.25,
      "velocity": 0.71,
      "hand": "right"
    },
    {
      "midi": 75,
      "time": 159,
      "duration": 0.25,
      "velocity": 0.71,
      "hand": "right"
    },
    {
      "midi": 56,
      "time": 159.25,
      "duration": 0.25,
      "velocity": 0.71,
      "hand": "left"
    },
    {
      "midi": 63,
      "time": 159.25,
      "duration": 0.25,
      "velocity": 0.71,
      "hand": "right"
    },
    {
      "midi": 72,
      "time": 159.25,
      "duration": 0.25,
      "velocity": 0.71,
      "hand": "right"
    },
    {
      "midi": 80,
      "time": 159.25,
      "duration": 0.25,
      "velocity": 0.71,
      "hand": "right"
    },
    {
      "midi": 60,
      "time": 159.5,
      "duration": 0.25,
      "velocity": 0.71,
      "hand": "right"
    },
    {
      "midi": 65,
      "time": 159.5,
      "duration": 0.25,
      "velocity": 0.71,
      "hand": "right"
    },
    {
      "midi": 68,
      "time": 159.5,
      "duration": 0.25,
      "velocity": 0.71,
      "hand": "right"
    },
    {
      "midi": 74,
      "time": 159.5,
      "duration": 0.25,
      "velocity": 0.71,
      "hand": "right"
    },
    {
      "midi": 53,
      "time": 159.75,
      "duration": 0.25,
      "velocity": 0.71,
      "hand": "left"
    },
    {
      "midi": 62,
      "time": 159.75,
      "duration": 0.25,
      "velocity": 0.71,
      "hand": "right"
    },
    {
      "midi": 72,
      "time": 159.75,
      "duration": 0.25,
      "velocity": 0.71,
      "hand": "right"
    },
    {
      "midi": 80,
      "time": 159.75,
      "duration": 0.25,
      "velocity": 0.71,
      "hand": "right"
    },
    {
      "midi": 59,
      "time": 160,
      "duration": 0.25,
      "velocity": 0.71,
      "hand": "left"
    },
    {
      "midi": 65,
      "time": 160,
      "duration": 0.25,
      "velocity": 0.71,
      "hand": "right"
    },
    {
      "midi": 67,
      "time": 160,
      "duration": 0.25,
      "velocity": 0.71,
      "hand": "right"
    },
    {
      "midi": 74,
      "time": 160,
      "duration": 0.25,
      "velocity": 0.71,
      "hand": "right"
    },
    {
      "midi": 55,
      "time": 160.25,
      "duration": 0.25,
      "velocity": 0.71,
      "hand": "left"
    },
    {
      "midi": 62,
      "time": 160.25,
      "duration": 0.25,
      "velocity": 0.71,
      "hand": "right"
    },
    {
      "midi": 71,
      "time": 160.25,
      "duration": 0.25,
      "velocity": 0.71,
      "hand": "right"
    },
    {
      "midi": 79,
      "time": 160.25,
      "duration": 0.25,
      "velocity": 0.71,
      "hand": "right"
    },
    {
      "midi": 59,
      "time": 160.5,
      "duration": 0.25,
      "velocity": 0.71,
      "hand": "left"
    },
    {
      "midi": 64,
      "time": 160.5,
      "duration": 0.25,
      "velocity": 0.71,
      "hand": "right"
    },
    {
      "midi": 67,
      "time": 160.5,
      "duration": 0.25,
      "velocity": 0.71,
      "hand": "right"
    },
    {
      "midi": 73,
      "time": 160.5,
      "duration": 0.25,
      "velocity": 0.71,
      "hand": "right"
    },
    {
      "midi": 52,
      "time": 160.75,
      "duration": 0.25,
      "velocity": 0.71,
      "hand": "left"
    },
    {
      "midi": 61,
      "time": 160.75,
      "duration": 0.25,
      "velocity": 0.71,
      "hand": "right"
    },
    {
      "midi": 71,
      "time": 160.75,
      "duration": 0.25,
      "velocity": 0.71,
      "hand": "right"
    },
    {
      "midi": 79,
      "time": 160.75,
      "duration": 0.25,
      "velocity": 0.71,
      "hand": "right"
    },
    {
      "midi": 58,
      "time": 161,
      "duration": 0.25,
      "velocity": 0.71,
      "hand": "left"
    },
    {
      "midi": 64,
      "time": 161,
      "duration": 0.25,
      "velocity": 0.71,
      "hand": "right"
    },
    {
      "midi": 66,
      "time": 161,
      "duration": 0.25,
      "velocity": 0.71,
      "hand": "right"
    },
    {
      "midi": 73,
      "time": 161,
      "duration": 0.25,
      "velocity": 0.71,
      "hand": "right"
    },
    {
      "midi": 54,
      "time": 161.25,
      "duration": 0.25,
      "velocity": 0.71,
      "hand": "left"
    },
    {
      "midi": 61,
      "time": 161.25,
      "duration": 0.25,
      "velocity": 0.71,
      "hand": "right"
    },
    {
      "midi": 70,
      "time": 161.25,
      "duration": 0.25,
      "velocity": 0.71,
      "hand": "right"
    },
    {
      "midi": 78,
      "time": 161.25,
      "duration": 0.25,
      "velocity": 0.71,
      "hand": "right"
    },
    {
      "midi": 58,
      "time": 161.5,
      "duration": 0.25,
      "velocity": 0.71,
      "hand": "left"
    },
    {
      "midi": 63,
      "time": 161.5,
      "duration": 0.25,
      "velocity": 0.71,
      "hand": "right"
    },
    {
      "midi": 66,
      "time": 161.5,
      "duration": 0.25,
      "velocity": 0.71,
      "hand": "right"
    },
    {
      "midi": 72,
      "time": 161.5,
      "duration": 0.25,
      "velocity": 0.71,
      "hand": "right"
    },
    {
      "midi": 51,
      "time": 161.75,
      "duration": 0.25,
      "velocity": 0.71,
      "hand": "left"
    },
    {
      "midi": 60,
      "time": 161.75,
      "duration": 0.25,
      "velocity": 0.71,
      "hand": "right"
    },
    {
      "midi": 70,
      "time": 161.75,
      "duration": 0.25,
      "velocity": 0.71,
      "hand": "right"
    },
    {
      "midi": 78,
      "time": 161.75,
      "duration": 0.25,
      "velocity": 0.71,
      "hand": "right"
    },
    {
      "midi": 57,
      "time": 162,
      "duration": 0.25,
      "velocity": 0.71,
      "hand": "left"
    },
    {
      "midi": 63,
      "time": 162,
      "duration": 0.25,
      "velocity": 0.71,
      "hand": "right"
    },
    {
      "midi": 65,
      "time": 162,
      "duration": 0.25,
      "velocity": 0.71,
      "hand": "right"
    },
    {
      "midi": 72,
      "time": 162,
      "duration": 0.25,
      "velocity": 0.71,
      "hand": "right"
    },
    {
      "midi": 53,
      "time": 162.25,
      "duration": 0.25,
      "velocity": 0.71,
      "hand": "left"
    },
    {
      "midi": 60,
      "time": 162.25,
      "duration": 0.25,
      "velocity": 0.71,
      "hand": "right"
    },
    {
      "midi": 69,
      "time": 162.25,
      "duration": 0.25,
      "velocity": 0.71,
      "hand": "right"
    },
    {
      "midi": 77,
      "time": 162.25,
      "duration": 0.25,
      "velocity": 0.71,
      "hand": "right"
    },
    {
      "midi": 57,
      "time": 162.5,
      "duration": 0.25,
      "velocity": 0.71,
      "hand": "left"
    },
    {
      "midi": 62,
      "time": 162.5,
      "duration": 0.25,
      "velocity": 0.71,
      "hand": "right"
    },
    {
      "midi": 65,
      "time": 162.5,
      "duration": 0.25,
      "velocity": 0.71,
      "hand": "right"
    },
    {
      "midi": 71,
      "time": 162.5,
      "duration": 0.25,
      "velocity": 0.71,
      "hand": "right"
    },
    {
      "midi": 50,
      "time": 162.75,
      "duration": 0.25,
      "velocity": 0.71,
      "hand": "left"
    },
    {
      "midi": 59,
      "time": 162.75,
      "duration": 0.25,
      "velocity": 0.71,
      "hand": "left"
    },
    {
      "midi": 69,
      "time": 162.75,
      "duration": 0.25,
      "velocity": 0.71,
      "hand": "right"
    },
    {
      "midi": 77,
      "time": 162.75,
      "duration": 0.25,
      "velocity": 0.71,
      "hand": "right"
    },
    {
      "midi": 56,
      "time": 163,
      "duration": 0.25,
      "velocity": 0.71,
      "hand": "left"
    },
    {
      "midi": 62,
      "time": 163,
      "duration": 0.25,
      "velocity": 0.71,
      "hand": "right"
    },
    {
      "midi": 64,
      "time": 163,
      "duration": 0.25,
      "velocity": 0.71,
      "hand": "right"
    },
    {
      "midi": 71,
      "time": 163,
      "duration": 0.25,
      "velocity": 0.71,
      "hand": "right"
    },
    {
      "midi": 52,
      "time": 163.25,
      "duration": 0.25,
      "velocity": 0.71,
      "hand": "left"
    },
    {
      "midi": 59,
      "time": 163.25,
      "duration": 0.25,
      "velocity": 0.71,
      "hand": "left"
    },
    {
      "midi": 68,
      "time": 163.25,
      "duration": 0.25,
      "velocity": 0.71,
      "hand": "right"
    },
    {
      "midi": 76,
      "time": 163.25,
      "duration": 0.25,
      "velocity": 0.71,
      "hand": "right"
    },
    {
      "midi": 56,
      "time": 163.5,
      "duration": 0.25,
      "velocity": 0.71,
      "hand": "left"
    },
    {
      "midi": 61,
      "time": 163.5,
      "duration": 0.25,
      "velocity": 0.71,
      "hand": "right"
    },
    {
      "midi": 64,
      "time": 163.5,
      "duration": 0.25,
      "velocity": 0.71,
      "hand": "right"
    },
    {
      "midi": 70,
      "time": 163.5,
      "duration": 0.25,
      "velocity": 0.71,
      "hand": "right"
    },
    {
      "midi": 49,
      "time": 163.75,
      "duration": 0.25,
      "velocity": 0.71,
      "hand": "left"
    },
    {
      "midi": 58,
      "time": 163.75,
      "duration": 0.25,
      "velocity": 0.71,
      "hand": "left"
    },
    {
      "midi": 68,
      "time": 163.75,
      "duration": 0.25,
      "velocity": 0.71,
      "hand": "right"
    },
    {
      "midi": 76,
      "time": 163.75,
      "duration": 0.25,
      "velocity": 0.71,
      "hand": "right"
    },
    {
      "midi": 55,
      "time": 164,
      "duration": 0.25,
      "velocity": 0.71,
      "hand": "left"
    },
    {
      "midi": 61,
      "time": 164,
      "duration": 0.25,
      "velocity": 0.71,
      "hand": "right"
    },
    {
      "midi": 63,
      "time": 164,
      "duration": 0.25,
      "velocity": 0.71,
      "hand": "right"
    },
    {
      "midi": 70,
      "time": 164,
      "duration": 0.25,
      "velocity": 0.71,
      "hand": "right"
    },
    {
      "midi": 51,
      "time": 164.25,
      "duration": 0.25,
      "velocity": 0.71,
      "hand": "left"
    },
    {
      "midi": 58,
      "time": 164.25,
      "duration": 0.25,
      "velocity": 0.71,
      "hand": "left"
    },
    {
      "midi": 67,
      "time": 164.25,
      "duration": 0.25,
      "velocity": 0.71,
      "hand": "right"
    },
    {
      "midi": 75,
      "time": 164.25,
      "duration": 0.25,
      "velocity": 0.71,
      "hand": "right"
    },
    {
      "midi": 55,
      "time": 164.5,
      "duration": 0.25,
      "velocity": 0.71,
      "hand": "left"
    },
    {
      "midi": 60,
      "time": 164.5,
      "duration": 0.25,
      "velocity": 0.71,
      "hand": "right"
    },
    {
      "midi": 63,
      "time": 164.5,
      "duration": 0.25,
      "velocity": 0.71,
      "hand": "right"
    },
    {
      "midi": 69,
      "time": 164.5,
      "duration": 0.25,
      "velocity": 0.71,
      "hand": "right"
    },
    {
      "midi": 48,
      "time": 164.75,
      "duration": 0.25,
      "velocity": 0.71,
      "hand": "left"
    },
    {
      "midi": 57,
      "time": 164.75,
      "duration": 0.25,
      "velocity": 0.71,
      "hand": "left"
    },
    {
      "midi": 67,
      "time": 164.75,
      "duration": 0.25,
      "velocity": 0.71,
      "hand": "right"
    },
    {
      "midi": 75,
      "time": 164.75,
      "duration": 0.25,
      "velocity": 0.71,
      "hand": "right"
    },
    {
      "midi": 54,
      "time": 165,
      "duration": 0.25,
      "velocity": 0.71,
      "hand": "left"
    },
    {
      "midi": 60,
      "time": 165,
      "duration": 0.25,
      "velocity": 0.71,
      "hand": "right"
    },
    {
      "midi": 62,
      "time": 165,
      "duration": 0.25,
      "velocity": 0.71,
      "hand": "right"
    },
    {
      "midi": 69,
      "time": 165,
      "duration": 0.25,
      "velocity": 0.71,
      "hand": "right"
    },
    {
      "midi": 50,
      "time": 165.25,
      "duration": 0.25,
      "velocity": 0.71,
      "hand": "left"
    },
    {
      "midi": 57,
      "time": 165.25,
      "duration": 0.25,
      "velocity": 0.71,
      "hand": "left"
    },
    {
      "midi": 66,
      "time": 165.25,
      "duration": 0.25,
      "velocity": 0.71,
      "hand": "right"
    },
    {
      "midi": 74,
      "time": 165.25,
      "duration": 0.25,
      "velocity": 0.71,
      "hand": "right"
    },
    {
      "midi": 54,
      "time": 165.5,
      "duration": 0.25,
      "velocity": 0.71,
      "hand": "left"
    },
    {
      "midi": 59,
      "time": 165.5,
      "duration": 0.25,
      "velocity": 0.71,
      "hand": "left"
    },
    {
      "midi": 62,
      "time": 165.5,
      "duration": 0.25,
      "velocity": 0.71,
      "hand": "right"
    },
    {
      "midi": 68,
      "time": 165.5,
      "duration": 0.25,
      "velocity": 0.71,
      "hand": "right"
    },
    {
      "midi": 47,
      "time": 165.75,
      "duration": 0.25,
      "velocity": 0.71,
      "hand": "left"
    },
    {
      "midi": 56,
      "time": 165.75,
      "duration": 0.25,
      "velocity": 0.71,
      "hand": "left"
    },
    {
      "midi": 66,
      "time": 165.75,
      "duration": 0.25,
      "velocity": 0.71,
      "hand": "right"
    },
    {
      "midi": 74,
      "time": 165.75,
      "duration": 0.25,
      "velocity": 0.71,
      "hand": "right"
    },
    {
      "midi": 53,
      "time": 166,
      "duration": 0.25,
      "velocity": 0.71,
      "hand": "left"
    },
    {
      "midi": 59,
      "time": 166,
      "duration": 0.25,
      "velocity": 0.71,
      "hand": "left"
    },
    {
      "midi": 62,
      "time": 166,
      "duration": 0.25,
      "velocity": 0.71,
      "hand": "right"
    },
    {
      "midi": 68,
      "time": 166,
      "duration": 0.25,
      "velocity": 0.71,
      "hand": "right"
    },
    {
      "midi": 52,
      "time": 166.25,
      "duration": 0.25,
      "velocity": 0.71,
      "hand": "left"
    },
    {
      "midi": 58,
      "time": 166.25,
      "duration": 0.25,
      "velocity": 0.71,
      "hand": "left"
    },
    {
      "midi": 67,
      "time": 166.25,
      "duration": 0.25,
      "velocity": 0.71,
      "hand": "right"
    },
    {
      "midi": 73,
      "time": 166.25,
      "duration": 0.25,
      "velocity": 0.71,
      "hand": "right"
    },
    {
      "midi": 53,
      "time": 166.5,
      "duration": 0.25,
      "velocity": 0.71,
      "hand": "left"
    },
    {
      "midi": 59,
      "time": 166.5,
      "duration": 0.25,
      "velocity": 0.71,
      "hand": "left"
    },
    {
      "midi": 68,
      "time": 166.5,
      "duration": 0.25,
      "velocity": 0.71,
      "hand": "right"
    },
    {
      "midi": 74,
      "time": 166.5,
      "duration": 0.25,
      "velocity": 0.71,
      "hand": "right"
    },
    {
      "midi": 56,
      "time": 166.75,
      "duration": 0.25,
      "velocity": 0.71,
      "hand": "left"
    },
    {
      "midi": 62,
      "time": 166.75,
      "duration": 0.25,
      "velocity": 0.71,
      "hand": "right"
    },
    {
      "midi": 65,
      "time": 166.75,
      "duration": 0.25,
      "velocity": 0.71,
      "hand": "right"
    },
    {
      "midi": 71,
      "time": 166.75,
      "duration": 0.25,
      "velocity": 0.71,
      "hand": "right"
    },
    {
      "midi": 53,
      "time": 167,
      "duration": 0.25,
      "velocity": 0.71,
      "hand": "left"
    },
    {
      "midi": 59,
      "time": 167,
      "duration": 0.25,
      "velocity": 0.71,
      "hand": "left"
    },
    {
      "midi": 68,
      "time": 167,
      "duration": 0.25,
      "velocity": 0.71,
      "hand": "right"
    },
    {
      "midi": 74,
      "time": 167,
      "duration": 0.25,
      "velocity": 0.71,
      "hand": "right"
    },
    {
      "midi": 54,
      "time": 167.25,
      "duration": 0.25,
      "velocity": 0.71,
      "hand": "left"
    },
    {
      "midi": 60,
      "time": 167.25,
      "duration": 0.25,
      "velocity": 0.71,
      "hand": "right"
    },
    {
      "midi": 69,
      "time": 167.25,
      "duration": 0.25,
      "velocity": 0.71,
      "hand": "right"
    },
    {
      "midi": 75,
      "time": 167.25,
      "duration": 0.25,
      "velocity": 0.71,
      "hand": "right"
    },
    {
      "midi": 55,
      "time": 167.5,
      "duration": 0.25,
      "velocity": 0.71,
      "hand": "left"
    },
    {
      "midi": 61,
      "time": 167.5,
      "duration": 0.25,
      "velocity": 0.71,
      "hand": "right"
    },
    {
      "midi": 70,
      "time": 167.5,
      "duration": 0.25,
      "velocity": 0.71,
      "hand": "right"
    },
    {
      "midi": 76,
      "time": 167.5,
      "duration": 0.25,
      "velocity": 0.71,
      "hand": "right"
    },
    {
      "midi": 58,
      "time": 167.75,
      "duration": 0.25,
      "velocity": 0.71,
      "hand": "left"
    },
    {
      "midi": 64,
      "time": 167.75,
      "duration": 0.25,
      "velocity": 0.71,
      "hand": "right"
    },
    {
      "midi": 67,
      "time": 167.75,
      "duration": 0.25,
      "velocity": 0.71,
      "hand": "right"
    },
    {
      "midi": 73,
      "time": 167.75,
      "duration": 0.25,
      "velocity": 0.71,
      "hand": "right"
    },
    {
      "midi": 55,
      "time": 168,
      "duration": 0.25,
      "velocity": 0.71,
      "hand": "left"
    },
    {
      "midi": 61,
      "time": 168,
      "duration": 0.25,
      "velocity": 0.71,
      "hand": "right"
    },
    {
      "midi": 70,
      "time": 168,
      "duration": 0.25,
      "velocity": 0.71,
      "hand": "right"
    },
    {
      "midi": 76,
      "time": 168,
      "duration": 0.25,
      "velocity": 0.71,
      "hand": "right"
    },
    {
      "midi": 56,
      "time": 168.25,
      "duration": 0.25,
      "velocity": 0.71,
      "hand": "left"
    },
    {
      "midi": 62,
      "time": 168.25,
      "duration": 0.25,
      "velocity": 0.71,
      "hand": "right"
    },
    {
      "midi": 71,
      "time": 168.25,
      "duration": 0.25,
      "velocity": 0.71,
      "hand": "right"
    },
    {
      "midi": 77,
      "time": 168.25,
      "duration": 0.25,
      "velocity": 0.71,
      "hand": "right"
    },
    {
      "midi": 57,
      "time": 168.5,
      "duration": 0.25,
      "velocity": 0.71,
      "hand": "left"
    },
    {
      "midi": 63,
      "time": 168.5,
      "duration": 0.25,
      "velocity": 0.71,
      "hand": "right"
    },
    {
      "midi": 72,
      "time": 168.5,
      "duration": 0.25,
      "velocity": 0.71,
      "hand": "right"
    },
    {
      "midi": 78,
      "time": 168.5,
      "duration": 0.25,
      "velocity": 0.71,
      "hand": "right"
    },
    {
      "midi": 60,
      "time": 168.75,
      "duration": 0.25,
      "velocity": 0.71,
      "hand": "right"
    },
    {
      "midi": 66,
      "time": 168.75,
      "duration": 0.25,
      "velocity": 0.71,
      "hand": "right"
    },
    {
      "midi": 69,
      "time": 168.75,
      "duration": 0.25,
      "velocity": 0.71,
      "hand": "right"
    },
    {
      "midi": 75,
      "time": 168.75,
      "duration": 0.25,
      "velocity": 0.71,
      "hand": "right"
    },
    {
      "midi": 57,
      "time": 169,
      "duration": 0.25,
      "velocity": 0.71,
      "hand": "left"
    },
    {
      "midi": 63,
      "time": 169,
      "duration": 0.25,
      "velocity": 0.71,
      "hand": "right"
    },
    {
      "midi": 72,
      "time": 169,
      "duration": 0.25,
      "velocity": 0.71,
      "hand": "right"
    },
    {
      "midi": 78,
      "time": 169,
      "duration": 0.25,
      "velocity": 0.71,
      "hand": "right"
    },
    {
      "midi": 58,
      "time": 169.25,
      "duration": 0.25,
      "velocity": 0.71,
      "hand": "left"
    },
    {
      "midi": 64,
      "time": 169.25,
      "duration": 0.25,
      "velocity": 0.71,
      "hand": "right"
    },
    {
      "midi": 73,
      "time": 169.25,
      "duration": 0.25,
      "velocity": 0.71,
      "hand": "right"
    },
    {
      "midi": 79,
      "time": 169.25,
      "duration": 0.25,
      "velocity": 0.71,
      "hand": "right"
    },
    {
      "midi": 59,
      "time": 169.5,
      "duration": 0.25,
      "velocity": 0.71,
      "hand": "left"
    },
    {
      "midi": 65,
      "time": 169.5,
      "duration": 0.25,
      "velocity": 0.71,
      "hand": "right"
    },
    {
      "midi": 74,
      "time": 169.5,
      "duration": 0.25,
      "velocity": 0.71,
      "hand": "right"
    },
    {
      "midi": 80,
      "time": 169.5,
      "duration": 0.25,
      "velocity": 0.71,
      "hand": "right"
    },
    {
      "midi": 62,
      "time": 169.75,
      "duration": 0.25,
      "velocity": 0.71,
      "hand": "right"
    },
    {
      "midi": 68,
      "time": 169.75,
      "duration": 0.25,
      "velocity": 0.71,
      "hand": "right"
    },
    {
      "midi": 71,
      "time": 169.75,
      "duration": 0.25,
      "velocity": 0.71,
      "hand": "right"
    },
    {
      "midi": 77,
      "time": 169.75,
      "duration": 0.25,
      "velocity": 0.71,
      "hand": "right"
    },
    {
      "midi": 59,
      "time": 170,
      "duration": 0.25,
      "velocity": 0.71,
      "hand": "left"
    },
    {
      "midi": 65,
      "time": 170,
      "duration": 0.25,
      "velocity": 0.71,
      "hand": "right"
    },
    {
      "midi": 74,
      "time": 170,
      "duration": 0.25,
      "velocity": 0.71,
      "hand": "right"
    },
    {
      "midi": 80,
      "time": 170,
      "duration": 0.25,
      "velocity": 0.71,
      "hand": "right"
    },
    {
      "midi": 60,
      "time": 170.25,
      "duration": 0.25,
      "velocity": 0.71,
      "hand": "right"
    },
    {
      "midi": 66,
      "time": 170.25,
      "duration": 0.25,
      "velocity": 0.71,
      "hand": "right"
    },
    {
      "midi": 75,
      "time": 170.25,
      "duration": 0.25,
      "velocity": 0.71,
      "hand": "right"
    },
    {
      "midi": 81,
      "time": 170.25,
      "duration": 0.25,
      "velocity": 0.71,
      "hand": "right"
    },
    {
      "midi": 61,
      "time": 170.5,
      "duration": 0.25,
      "velocity": 0.71,
      "hand": "right"
    },
    {
      "midi": 67,
      "time": 170.5,
      "duration": 0.25,
      "velocity": 0.71,
      "hand": "right"
    },
    {
      "midi": 76,
      "time": 170.5,
      "duration": 0.25,
      "velocity": 0.71,
      "hand": "right"
    },
    {
      "midi": 82,
      "time": 170.5,
      "duration": 0.25,
      "velocity": 0.71,
      "hand": "right"
    },
    {
      "midi": 64,
      "time": 170.75,
      "duration": 0.25,
      "velocity": 0.71,
      "hand": "right"
    },
    {
      "midi": 70,
      "time": 170.75,
      "duration": 0.25,
      "velocity": 0.71,
      "hand": "right"
    },
    {
      "midi": 73,
      "time": 170.75,
      "duration": 0.25,
      "velocity": 0.71,
      "hand": "right"
    },
    {
      "midi": 79,
      "time": 170.75,
      "duration": 0.25,
      "velocity": 0.71,
      "hand": "right"
    },
    {
      "midi": 61,
      "time": 171,
      "duration": 0.25,
      "velocity": 0.71,
      "hand": "right"
    },
    {
      "midi": 67,
      "time": 171,
      "duration": 0.25,
      "velocity": 0.71,
      "hand": "right"
    },
    {
      "midi": 76,
      "time": 171,
      "duration": 0.25,
      "velocity": 0.71,
      "hand": "right"
    },
    {
      "midi": 82,
      "time": 171,
      "duration": 0.25,
      "velocity": 0.71,
      "hand": "right"
    },
    {
      "midi": 62,
      "time": 171.25,
      "duration": 0.25,
      "velocity": 0.71,
      "hand": "right"
    },
    {
      "midi": 68,
      "time": 171.25,
      "duration": 0.25,
      "velocity": 0.71,
      "hand": "right"
    },
    {
      "midi": 77,
      "time": 171.25,
      "duration": 0.25,
      "velocity": 0.71,
      "hand": "right"
    },
    {
      "midi": 83,
      "time": 171.25,
      "duration": 0.25,
      "velocity": 0.71,
      "hand": "right"
    },
    {
      "midi": 63,
      "time": 171.5,
      "duration": 0.25,
      "velocity": 0.71,
      "hand": "right"
    },
    {
      "midi": 69,
      "time": 171.5,
      "duration": 0.25,
      "velocity": 0.71,
      "hand": "right"
    },
    {
      "midi": 78,
      "time": 171.5,
      "duration": 0.25,
      "velocity": 0.71,
      "hand": "right"
    },
    {
      "midi": 84,
      "time": 171.5,
      "duration": 0.25,
      "velocity": 0.71,
      "hand": "right"
    },
    {
      "midi": 66,
      "time": 171.75,
      "duration": 0.25,
      "velocity": 0.71,
      "hand": "right"
    },
    {
      "midi": 72,
      "time": 171.75,
      "duration": 0.25,
      "velocity": 0.71,
      "hand": "right"
    },
    {
      "midi": 75,
      "time": 171.75,
      "duration": 0.25,
      "velocity": 0.71,
      "hand": "right"
    },
    {
      "midi": 81,
      "time": 171.75,
      "duration": 0.25,
      "velocity": 0.71,
      "hand": "right"
    },
    {
      "midi": 63,
      "time": 172,
      "duration": 0.25,
      "velocity": 0.71,
      "hand": "right"
    },
    {
      "midi": 69,
      "time": 172,
      "duration": 0.25,
      "velocity": 0.71,
      "hand": "right"
    },
    {
      "midi": 78,
      "time": 172,
      "duration": 0.25,
      "velocity": 0.71,
      "hand": "right"
    },
    {
      "midi": 84,
      "time": 172,
      "duration": 0.25,
      "velocity": 0.71,
      "hand": "right"
    },
    {
      "midi": 64,
      "time": 172.25,
      "duration": 0.25,
      "velocity": 0.71,
      "hand": "right"
    },
    {
      "midi": 70,
      "time": 172.25,
      "duration": 0.25,
      "velocity": 0.71,
      "hand": "right"
    },
    {
      "midi": 79,
      "time": 172.25,
      "duration": 0.25,
      "velocity": 0.71,
      "hand": "right"
    },
    {
      "midi": 85,
      "time": 172.25,
      "duration": 0.25,
      "velocity": 0.71,
      "hand": "right"
    },
    {
      "midi": 67,
      "time": 172.5,
      "duration": 0.25,
      "velocity": 0.71,
      "hand": "right"
    },
    {
      "midi": 73,
      "time": 172.5,
      "duration": 0.25,
      "velocity": 0.71,
      "hand": "right"
    },
    {
      "midi": 82,
      "time": 172.5,
      "duration": 0.25,
      "velocity": 0.71,
      "hand": "right"
    },
    {
      "midi": 88,
      "time": 172.5,
      "duration": 0.25,
      "velocity": 0.71,
      "hand": "right"
    },
    {
      "midi": 70,
      "time": 172.75,
      "duration": 0.25,
      "velocity": 0.71,
      "hand": "right"
    },
    {
      "midi": 76,
      "time": 172.75,
      "duration": 0.25,
      "velocity": 0.71,
      "hand": "right"
    },
    {
      "midi": 85,
      "time": 172.75,
      "duration": 0.25,
      "velocity": 0.71,
      "hand": "right"
    },
    {
      "midi": 91,
      "time": 172.75,
      "duration": 0.25,
      "velocity": 0.71,
      "hand": "right"
    },
    {
      "midi": 67,
      "time": 173,
      "duration": 0.25,
      "velocity": 0.71,
      "hand": "right"
    },
    {
      "midi": 73,
      "time": 173,
      "duration": 0.25,
      "velocity": 0.71,
      "hand": "right"
    },
    {
      "midi": 82,
      "time": 173,
      "duration": 0.25,
      "velocity": 0.71,
      "hand": "right"
    },
    {
      "midi": 88,
      "time": 173,
      "duration": 0.25,
      "velocity": 0.71,
      "hand": "right"
    },
    {
      "midi": 70,
      "time": 173.25,
      "duration": 0.25,
      "velocity": 0.71,
      "hand": "right"
    },
    {
      "midi": 76,
      "time": 173.25,
      "duration": 0.25,
      "velocity": 0.71,
      "hand": "right"
    },
    {
      "midi": 85,
      "time": 173.25,
      "duration": 0.25,
      "velocity": 0.71,
      "hand": "right"
    },
    {
      "midi": 91,
      "time": 173.25,
      "duration": 0.25,
      "velocity": 0.71,
      "hand": "right"
    },
    {
      "midi": 73,
      "time": 173.5,
      "duration": 0.25,
      "velocity": 0.71,
      "hand": "right"
    },
    {
      "midi": 79,
      "time": 173.5,
      "duration": 0.25,
      "velocity": 0.71,
      "hand": "right"
    },
    {
      "midi": 88,
      "time": 173.5,
      "duration": 0.25,
      "velocity": 0.71,
      "hand": "right"
    },
    {
      "midi": 94,
      "time": 173.5,
      "duration": 0.25,
      "velocity": 0.71,
      "hand": "right"
    },
    {
      "midi": 76,
      "time": 173.75,
      "duration": 0.25,
      "velocity": 0.71,
      "hand": "right"
    },
    {
      "midi": 82,
      "time": 173.75,
      "duration": 0.25,
      "velocity": 0.71,
      "hand": "right"
    },
    {
      "midi": 91,
      "time": 173.75,
      "duration": 0.25,
      "velocity": 0.71,
      "hand": "right"
    },
    {
      "midi": 100,
      "time": 173.75,
      "duration": 0.25,
      "velocity": 0.71,
      "hand": "right"
    },
    {
      "midi": 32,
      "time": 174,
      "duration": 0.5,
      "velocity": 0.71,
      "hand": "left"
    },
    {
      "midi": 68,
      "time": 174,
      "duration": 1,
      "velocity": 0.71,
      "hand": "right"
    },
    {
      "midi": 73,
      "time": 174,
      "duration": 1,
      "velocity": 0.71,
      "hand": "right"
    },
    {
      "midi": 76,
      "time": 174,
      "duration": 1,
      "velocity": 0.71,
      "hand": "right"
    },
    {
      "midi": 80,
      "time": 174,
      "duration": 1.25,
      "velocity": 0.71,
      "hand": "right"
    },
    {
      "midi": 52,
      "time": 175,
      "duration": 0.5,
      "velocity": 0.71,
      "hand": "left"
    },
    {
      "midi": 56,
      "time": 175,
      "duration": 0.5,
      "velocity": 0.71,
      "hand": "left"
    },
    {
      "midi": 61,
      "time": 175,
      "duration": 0.5,
      "velocity": 0.71,
      "hand": "right"
    },
    {
      "midi": 64,
      "time": 175,
      "duration": 0.5,
      "velocity": 0.71,
      "hand": "right"
    },
    {
      "midi": 85,
      "time": 175.25,
      "duration": 0.25,
      "velocity": 0.71,
      "hand": "right"
    },
    {
      "midi": 83,
      "time": 175.5,
      "duration": 0.25,
      "velocity": 0.71,
      "hand": "right"
    },
    {
      "midi": 81,
      "time": 175.75,
      "duration": 0.25,
      "velocity": 0.71,
      "hand": "right"
    },
    {
      "midi": 79,
      "time": 176,
      "duration": 0.25,
      "velocity": 0.71,
      "hand": "right"
    },
    {
      "midi": 80,
      "time": 176.25,
      "duration": 0.25,
      "velocity": 0.71,
      "hand": "right"
    },
    {
      "midi": 76,
      "time": 176.5,
      "duration": 0.25,
      "velocity": 0.71,
      "hand": "right"
    },
    {
      "midi": 72,
      "time": 176.75,
      "duration": 0.25,
      "velocity": 0.71,
      "hand": "right"
    },
    {
      "midi": 75,
      "time": 177,
      "duration": 0.25,
      "velocity": 0.71,
      "hand": "right"
    },
    {
      "midi": 76,
      "time": 177.25,
      "duration": 0.25,
      "velocity": 0.71,
      "hand": "right"
    },
    {
      "midi": 73,
      "time": 177.5,
      "duration": 0.25,
      "velocity": 0.71,
      "hand": "right"
    },
    {
      "midi": 67,
      "time": 177.75,
      "duration": 0.25,
      "velocity": 0.71,
      "hand": "right"
    },
    {
      "midi": 68,
      "time": 178,
      "duration": 2,
      "velocity": 0.71,
      "hand": "right"
    },
    {
      "midi": 44,
      "time": 180,
      "duration": 2,
      "velocity": 0.71,
      "hand": "left"
    },
    {
      "midi": 54,
      "time": 180,
      "duration": 2,
      "velocity": 0.71,
      "hand": "left"
    },
    {
      "midi": 60,
      "time": 180,
      "duration": 2,
      "velocity": 0.71,
      "hand": "right"
    },
    {
      "midi": 52,
      "time": 182,
      "duration": 0.75,
      "velocity": 0.71,
      "hand": "left"
    },
    {
      "midi": 61,
      "time": 182,
      "duration": 1,
      "velocity": 0.71,
      "hand": "right"
    },
    {
      "midi": 37,
      "time": 182.25,
      "duration": 0.25,
      "velocity": 0.71,
      "hand": "left"
    },
    {
      "midi": 44,
      "time": 182.5,
      "duration": 0.25,
      "velocity": 0.71,
      "hand": "left"
    },
    {
      "midi": 52,
      "time": 182.75,
      "duration": 0.25,
      "velocity": 0.71,
      "hand": "left"
    },
    {
      "midi": 51,
      "time": 183,
      "duration": 0.25,
      "velocity": 0.71,
      "hand": "left"
    },
    {
      "midi": 49,
      "time": 183.25,
      "duration": 0.25,
      "velocity": 0.71,
      "hand": "left"
    },
    {
      "midi": 57,
      "time": 183.5,
      "duration": 0.25,
      "velocity": 0.71,
      "hand": "left"
    },
    {
      "midi": 64,
      "time": 183.75,
      "duration": 0.25,
      "velocity": 0.71,
      "hand": "right"
    },
    {
      "midi": 63,
      "time": 184,
      "duration": 0.25,
      "velocity": 0.71,
      "hand": "right"
    },
    {
      "midi": 61,
      "time": 184.25,
      "duration": 0.25,
      "velocity": 0.71,
      "hand": "right"
    },
    {
      "midi": 64,
      "time": 184.5,
      "duration": 0.25,
      "velocity": 0.71,
      "hand": "right"
    },
    {
      "midi": 67,
      "time": 184.75,
      "duration": 0.25,
      "velocity": 0.71,
      "hand": "right"
    },
    {
      "midi": 69,
      "time": 185,
      "duration": 0.75,
      "velocity": 0.71,
      "hand": "right"
    },
    {
      "midi": 81,
      "time": 185,
      "duration": 0.875,
      "velocity": 0.71,
      "hand": "right"
    },
    {
      "midi": 73,
      "time": 185.25,
      "duration": 0.25,
      "velocity": 0.71,
      "hand": "right"
    },
    {
      "midi": 78,
      "time": 185.5,
      "duration": 0.25,
      "velocity": 0.71,
      "hand": "right"
    },
    {
      "midi": 67,
      "time": 185.75,
      "duration": 0.25,
      "velocity": 0.71,
      "hand": "right"
    },
    {
      "midi": 76,
      "time": 185.75,
      "duration": 0.25,
      "velocity": 0.71,
      "hand": "right"
    },
    {
      "midi": 81,
      "time": 185.875,
      "duration": 0.125,
      "velocity": 0.71,
      "hand": "right"
    },
    {
      "midi": 66,
      "time": 186,
      "duration": 1,
      "velocity": 0.71,
      "hand": "right"
    },
    {
      "midi": 74,
      "time": 186,
      "duration": 2,
      "velocity": 0.71,
      "hand": "right"
    },
    {
      "midi": 81,
      "time": 186,
      "duration": 1,
      "velocity": 0.71,
      "hand": "right"
    },
    {
      "midi": 38,
      "time": 186.25,
      "duration": 0.25,
      "velocity": 0.71,
      "hand": "left"
    },
    {
      "midi": 45,
      "time": 186.5,
      "duration": 0.25,
      "velocity": 0.71,
      "hand": "left"
    },
    {
      "midi": 54,
      "time": 186.75,
      "duration": 0.25,
      "velocity": 0.71,
      "hand": "left"
    },
    {
      "midi": 52,
      "time": 187,
      "duration": 0.25,
      "velocity": 0.71,
      "hand": "left"
    },
    {
      "midi": 69,
      "time": 187,
      "duration": 1,
      "velocity": 0.71,
      "hand": "right"
    },
    {
      "midi": 78,
      "time": 187,
      "duration": 1,
      "velocity": 0.71,
      "hand": "right"
    },
    {
      "midi": 50,
      "time": 187.25,
      "duration": 0.25,
      "velocity": 0.71,
      "hand": "left"
    },
    {
      "midi": 57,
      "time": 187.5,
      "duration": 0.25,
      "velocity": 0.71,
      "hand": "left"
    },
    {
      "midi": 66,
      "time": 187.75,
      "duration": 0.25,
      "velocity": 0.71,
      "hand": "right"
    },
    {
      "midi": 66,
      "time": 188,
      "duration": 1,
      "velocity": 0.71,
      "hand": "right"
    },
    {
      "midi": 72,
      "time": 188,
      "duration": 1,
      "velocity": 0.71,
      "hand": "right"
    },
    {
      "midi": 80,
      "time": 188,
      "duration": 1,
      "velocity": 0.71,
      "hand": "right"
    },
    {
      "midi": 44,
      "time": 188.25,
      "duration": 0.25,
      "velocity": 0.71,
      "hand": "left"
    },
    {
      "midi": 51,
      "time": 188.5,
      "duration": 0.25,
      "velocity": 0.71,
      "hand": "left"
    },
    {
      "midi": 60,
      "time": 188.75,
      "duration": 0.25,
      "velocity": 0.71,
      "hand": "right"
    },
    {
      "midi": 66,
      "time": 189,
      "duration": 0.5,
      "velocity": 0.71,
      "hand": "right"
    },
    {
      "midi": 72,
      "time": 189,
      "duration": 0.75,
      "velocity": 0.71,
      "hand": "right"
    },
    {
      "midi": 84,
      "time": 189,
      "duration": 0.75,
      "velocity": 0.71,
      "hand": "right"
    },
    {
      "midi": 76,
      "time": 189.25,
      "duration": 0.5,
      "velocity": 0.71,
      "hand": "right"
    },
    {
      "midi": 80,
      "time": 189.5,
      "duration": 0.25,
      "velocity": 0.71,
      "hand": "right"
    },
    {
      "midi": 75,
      "time": 189.75,
      "duration": 0.25,
      "velocity": 0.71,
      "hand": "right"
    },
    {
      "midi": 78,
      "time": 189.75,
      "duration": 0.25,
      "velocity": 0.71,
      "hand": "right"
    },
    {
      "midi": 84,
      "time": 189.75,
      "duration": 0.25,
      "velocity": 0.71,
      "hand": "right"
    },
    {
      "midi": 72,
      "time": 190,
      "duration": 1.75,
      "velocity": 0.71,
      "hand": "right"
    },
    {
      "midi": 76,
      "time": 190,
      "duration": 2,
      "velocity": 0.71,
      "hand": "right"
    },
    {
      "midi": 84,
      "time": 190,
      "duration": 1.75,
      "velocity": 0.71,
      "hand": "right"
    },
    {
      "midi": 37,
      "time": 190.25,
      "duration": 0.25,
      "velocity": 0.71,
      "hand": "left"
    },
    {
      "midi": 44,
      "time": 190.5,
      "duration": 0.25,
      "velocity": 0.71,
      "hand": "left"
    },
    {
      "midi": 52,
      "time": 190.75,
      "duration": 0.25,
      "velocity": 0.71,
      "hand": "left"
    },
    {
      "midi": 51,
      "time": 191,
      "duration": 0.25,
      "velocity": 0.71,
      "hand": "left"
    },
    {
      "midi": 49,
      "time": 191.25,
      "duration": 0.25,
      "velocity": 0.71,
      "hand": "left"
    },
    {
      "midi": 56,
      "time": 191.5,
      "duration": 0.25,
      "velocity": 0.71,
      "hand": "left"
    },
    {
      "midi": 64,
      "time": 191.75,
      "duration": 0.25,
      "velocity": 0.71,
      "hand": "right"
    },
    {
      "midi": 73,
      "time": 191.75,
      "duration": 0.25,
      "velocity": 0.71,
      "hand": "right"
    },
    {
      "midi": 85,
      "time": 191.75,
      "duration": 0.25,
      "velocity": 0.71,
      "hand": "right"
    },
    {
      "midi": 63,
      "time": 192,
      "duration": 0.25,
      "velocity": 0.71,
      "hand": "right"
    },
    {
      "midi": 61,
      "time": 192.25,
      "duration": 0.25,
      "velocity": 0.71,
      "hand": "right"
    },
    {
      "midi": 68,
      "time": 192.5,
      "duration": 0.25,
      "velocity": 0.71,
      "hand": "right"
    },
    {
      "midi": 76,
      "time": 192.75,
      "duration": 0.25,
      "velocity": 0.71,
      "hand": "right"
    },
    {
      "midi": 75,
      "time": 193,
      "duration": 0.25,
      "velocity": 0.71,
      "hand": "right"
    },
    {
      "midi": 73,
      "time": 193.25,
      "duration": 0.25,
      "velocity": 0.71,
      "hand": "right"
    },
    {
      "midi": 76,
      "time": 193.5,
      "duration": 0.25,
      "velocity": 0.71,
      "hand": "right"
    },
    {
      "midi": 85,
      "time": 193.75,
      "duration": 0.25,
      "velocity": 0.71,
      "hand": "right"
    },
    {
      "midi": 97,
      "time": 194,
      "duration": 0.25,
      "velocity": 0.71,
      "hand": "right"
    },
    {
      "midi": 37,
      "time": 195,
      "duration": 1,
      "velocity": 0.71,
      "hand": "left"
    },
    {
      "midi": 44,
      "time": 195,
      "duration": 1,
      "velocity": 0.71,
      "hand": "left"
    },
    {
      "midi": 52,
      "time": 195,
      "duration": 1,
      "velocity": 0.71,
      "hand": "left"
    },
    {
      "midi": 56,
      "time": 195,
      "duration": 1,
      "velocity": 0.71,
      "hand": "left"
    },
    {
      "midi": 64,
      "time": 195,
      "duration": 1,
      "velocity": 0.71,
      "hand": "right"
    },
    {
      "midi": 37,
      "time": 196,
      "duration": 2,
      "velocity": 0.71,
      "hand": "left"
    },
    {
      "midi": 44,
      "time": 196,
      "duration": 2,
      "velocity": 0.71,
      "hand": "left"
    },
    {
      "midi": 52,
      "time": 196,
      "duration": 2,
      "velocity": 0.71,
      "hand": "left"
    },
    {
      "midi": 61,
      "time": 196,
      "duration": 2,
      "velocity": 0.71,
      "hand": "right"
    }
  ]
}
