{
  "id": "premiere-arabesquedebussy",
  "title": "Primeira Arabesca",
  "artist": "Claude Debussy",
  "difficulty": "Difícil",
  "bpm": 144,
  "duration": 176,
  "category": "Clássicos",
  "isPremium": true,
  "coverUrl": "/images/covers/placeholder.png",
  "notes": [
    {
      "midi": 61,
      "time": 0,
      "duration": 0.104,
      "velocity": 0.71,
      "hand": "right"
    },
    {
      "midi": 64,
      "time": 0.104,
      "duration": 0.104,
      "velocity": 0.71,
      "hand": "right"
    },
    {
      "midi": 69,
      "time": 0.313,
      "duration": 0.104,
      "velocity": 0.71,
      "hand": "right"
    },
    {
      "midi": 73,
      "time": 0.417,
      "duration": 0.104,
      "velocity": 0.71,
      "hand": "right"
    },
    {
      "midi": 76,
      "time": 0.521,
      "duration": 0.104,
      "velocity": 0.71,
      "hand": "right"
    },
    {
      "midi": 78,
      "time": 0.729,
      "duration": 0.104,
      "velocity": 0.71,
      "hand": "right"
    },
    {
      "midi": 80,
      "time": 0.833,
      "duration": 0.104,
      "velocity": 0.71,
      "hand": "right"
    },
    {
      "midi": 75,
      "time": 0.938,
      "duration": 0.104,
      "velocity": 0.71,
      "hand": "right"
    },
    {
      "midi": 71,
      "time": 1.146,
      "duration": 0.104,
      "velocity": 0.71,
      "hand": "right"
    },
    {
      "midi": 68,
      "time": 1.25,
      "duration": 0.104,
      "velocity": 0.71,
      "hand": "right"
    },
    {
      "midi": 63,
      "time": 1.354,
      "duration": 0.104,
      "velocity": 0.71,
      "hand": "right"
    },
    {
      "midi": 59,
      "time": 1.563,
      "duration": 0.104,
      "velocity": 0.71,
      "hand": "left"
    },
    {
      "midi": 57,
      "time": 1.667,
      "duration": 0.104,
      "velocity": 0.71,
      "hand": "left"
    },
    {
      "midi": 61,
      "time": 1.771,
      "duration": 0.104,
      "velocity": 0.71,
      "hand": "right"
    },
    {
      "midi": 66,
      "time": 1.979,
      "duration": 0.104,
      "velocity": 0.71,
      "hand": "right"
    },
    {
      "midi": 69,
      "time": 2.083,
      "duration": 0.104,
      "velocity": 0.71,
      "hand": "right"
    },
    {
      "midi": 73,
      "time": 2.188,
      "duration": 0.104,
      "velocity": 0.71,
      "hand": "right"
    },
    {
      "midi": 75,
      "time": 2.396,
      "duration": 0.104,
      "velocity": 0.71,
      "hand": "right"
    },
    {
      "midi": 76,
      "time": 2.5,
      "duration": 0.104,
      "velocity": 0.71,
      "hand": "right"
    },
    {
      "midi": 71,
      "time": 2.604,
      "duration": 0.104,
      "velocity": 0.71,
      "hand": "right"
    },
    {
      "midi": 68,
      "time": 2.813,
      "duration": 0.104,
      "velocity": 0.71,
      "hand": "right"
    },
    {
      "midi": 64,
      "time": 2.917,
      "duration": 0.104,
      "velocity": 0.71,
      "hand": "right"
    },
    {
      "midi": 59,
      "time": 3.021,
      "duration": 0.104,
      "velocity": 0.71,
      "hand": "left"
    },
    {
      "midi": 56,
      "time": 3.229,
      "duration": 0.104,
      "velocity": 0.71,
      "hand": "left"
    },
    {
      "midi": 54,
      "time": 3.333,
      "duration": 0.833,
      "velocity": 0.71,
      "hand": "left"
    },
    {
      "midi": 57,
      "time": 3.438,
      "duration": 0.104,
      "velocity": 0.71,
      "hand": "left"
    },
    {
      "midi": 61,
      "time": 3.646,
      "duration": 0.417,
      "velocity": 0.71,
      "hand": "right"
    },
    {
      "midi": 73,
      "time": 3.75,
      "duration": 0.417,
      "velocity": 0.71,
      "hand": "right"
    },
    {
      "midi": 66,
      "time": 3.854,
      "duration": 0.104,
      "velocity": 0.71,
      "hand": "right"
    },
    {
      "midi": 69,
      "time": 4.063,
      "duration": 0.521,
      "velocity": 0.71,
      "hand": "right"
    },
    {
      "midi": 52,
      "time": 4.167,
      "duration": 0.833,
      "velocity": 0.71,
      "hand": "left"
    },
    {
      "midi": 78,
      "time": 4.167,
      "duration": 0.417,
      "velocity": 0.71,
      "hand": "right"
    },
    {
      "midi": 57,
      "time": 4.271,
      "duration": 0.104,
      "velocity": 0.71,
      "hand": "left"
    },
    {
      "midi": 61,
      "time": 4.479,
      "duration": 0.417,
      "velocity": 0.71,
      "hand": "right"
    },
    {
      "midi": 73,
      "time": 4.583,
      "duration": 0.833,
      "velocity": 0.71,
      "hand": "right"
    },
    {
      "midi": 66,
      "time": 4.688,
      "duration": 0.104,
      "velocity": 0.71,
      "hand": "right"
    },
    {
      "midi": 69,
      "time": 4.896,
      "duration": 0.521,
      "velocity": 0.71,
      "hand": "right"
    },
    {
      "midi": 51,
      "time": 5,
      "duration": 0.833,
      "velocity": 0.71,
      "hand": "left"
    },
    {
      "midi": 57,
      "time": 5.104,
      "duration": 0.104,
      "velocity": 0.71,
      "hand": "left"
    },
    {
      "midi": 61,
      "time": 5.313,
      "duration": 0.417,
      "velocity": 0.71,
      "hand": "right"
    },
    {
      "midi": 73,
      "time": 5.417,
      "duration": 0.417,
      "velocity": 0.71,
      "hand": "right"
    },
    {
      "midi": 66,
      "time": 5.521,
      "duration": 0.104,
      "velocity": 0.71,
      "hand": "right"
    },
    {
      "midi": 69,
      "time": 5.729,
      "duration": 0.521,
      "velocity": 0.71,
      "hand": "right"
    },
    {
      "midi": 49,
      "time": 5.833,
      "duration": 0.833,
      "velocity": 0.71,
      "hand": "left"
    },
    {
      "midi": 78,
      "time": 5.833,
      "duration": 0.417,
      "velocity": 0.71,
      "hand": "right"
    },
    {
      "midi": 57,
      "time": 5.938,
      "duration": 0.104,
      "velocity": 0.71,
      "hand": "left"
    },
    {
      "midi": 64,
      "time": 6.146,
      "duration": 0.417,
      "velocity": 0.71,
      "hand": "right"
    },
    {
      "midi": 81,
      "time": 6.25,
      "duration": 0.833,
      "velocity": 0.71,
      "hand": "right"
    },
    {
      "midi": 69,
      "time": 6.354,
      "duration": 0.104,
      "velocity": 0.71,
      "hand": "right"
    },
    {
      "midi": 73,
      "time": 6.563,
      "duration": 0.104,
      "velocity": 0.71,
      "hand": "right"
    },
    {
      "midi": 47,
      "time": 6.667,
      "duration": 0.104,
      "velocity": 0.71,
      "hand": "left"
    },
    {
      "midi": 54,
      "time": 6.771,
      "duration": 0.104,
      "velocity": 0.71,
      "hand": "left"
    },
    {
      "midi": 57,
      "time": 6.979,
      "duration": 0.104,
      "velocity": 0.71,
      "hand": "left"
    },
    {
      "midi": 61,
      "time": 7.083,
      "duration": 0.104,
      "velocity": 0.71,
      "hand": "right"
    },
    {
      "midi": 81,
      "time": 7.083,
      "duration": 0.938,
      "velocity": 0.71,
      "hand": "right"
    },
    {
      "midi": 63,
      "time": 7.188,
      "duration": 0.104,
      "velocity": 0.71,
      "hand": "right"
    },
    {
      "midi": 66,
      "time": 7.396,
      "duration": 0.104,
      "velocity": 0.71,
      "hand": "right"
    },
    {
      "midi": 69,
      "time": 7.5,
      "duration": 0.104,
      "velocity": 0.71,
      "hand": "right"
    },
    {
      "midi": 73,
      "time": 7.604,
      "duration": 0.104,
      "velocity": 0.71,
      "hand": "right"
    },
    {
      "midi": 75,
      "time": 7.813,
      "duration": 0.104,
      "velocity": 0.71,
      "hand": "right"
    },
    {
      "midi": 73,
      "time": 7.917,
      "duration": 0.104,
      "velocity": 0.71,
      "hand": "right"
    },
    {
      "midi": 71,
      "time": 8.021,
      "duration": 0.104,
      "velocity": 0.71,
      "hand": "right"
    },
    {
      "midi": 80,
      "time": 8.021,
      "duration": 0.104,
      "velocity": 0.71,
      "hand": "right"
    },
    {
      "midi": 69,
      "time": 8.229,
      "duration": 0.104,
      "velocity": 0.71,
      "hand": "right"
    },
    {
      "midi": 78,
      "time": 8.229,
      "duration": 0.104,
      "velocity": 0.71,
      "hand": "right"
    },
    {
      "midi": 40,
      "time": 8.333,
      "duration": 0.208,
      "velocity": 0.71,
      "hand": "left"
    },
    {
      "midi": 47,
      "time": 8.542,
      "duration": 0.208,
      "velocity": 0.71,
      "hand": "left"
    },
    {
      "midi": 52,
      "time": 8.75,
      "duration": 0.208,
      "velocity": 0.71,
      "hand": "left"
    },
    {
      "midi": 76,
      "time": 8.75,
      "duration": 0.104,
      "velocity": 0.71,
      "hand": "right"
    },
    {
      "midi": 78,
      "time": 8.854,
      "duration": 0.104,
      "velocity": 0.71,
      "hand": "right"
    },
    {
      "midi": 56,
      "time": 8.958,
      "duration": 0.208,
      "velocity": 0.71,
      "hand": "left"
    },
    {
      "midi": 73,
      "time": 9.063,
      "duration": 0.104,
      "velocity": 0.71,
      "hand": "right"
    },
    {
      "midi": 59,
      "time": 9.167,
      "duration": 0.208,
      "velocity": 0.71,
      "hand": "left"
    },
    {
      "midi": 76,
      "time": 9.167,
      "duration": 0.104,
      "velocity": 0.71,
      "hand": "right"
    },
    {
      "midi": 71,
      "time": 9.271,
      "duration": 0.104,
      "velocity": 0.71,
      "hand": "right"
    },
    {
      "midi": 56,
      "time": 9.375,
      "duration": 0.208,
      "velocity": 0.71,
      "hand": "left"
    },
    {
      "midi": 73,
      "time": 9.479,
      "duration": 0.104,
      "velocity": 0.71,
      "hand": "right"
    },
    {
      "midi": 52,
      "time": 9.583,
      "duration": 0.208,
      "velocity": 0.71,
      "hand": "left"
    },
    {
      "midi": 68,
      "time": 9.583,
      "duration": 0.104,
      "velocity": 0.71,
      "hand": "right"
    },
    {
      "midi": 71,
      "time": 9.688,
      "duration": 0.104,
      "velocity": 0.71,
      "hand": "right"
    },
    {
      "midi": 47,
      "time": 9.792,
      "duration": 0.208,
      "velocity": 0.71,
      "hand": "left"
    },
    {
      "midi": 66,
      "time": 9.896,
      "duration": 0.104,
      "velocity": 0.71,
      "hand": "right"
    },
    {
      "midi": 40,
      "time": 10,
      "duration": 0.208,
      "velocity": 0.71,
      "hand": "left"
    },
    {
      "midi": 68,
      "time": 10,
      "duration": 0.104,
      "velocity": 0.71,
      "hand": "right"
    },
    {
      "midi": 64,
      "time": 10.104,
      "duration": 0.104,
      "velocity": 0.71,
      "hand": "right"
    },
    {
      "midi": 49,
      "time": 10.208,
      "duration": 0.208,
      "velocity": 0.71,
      "hand": "left"
    },
    {
      "midi": 68,
      "time": 10.313,
      "duration": 0.104,
      "velocity": 0.71,
      "hand": "right"
    },
    {
      "midi": 52,
      "time": 10.417,
      "duration": 0.208,
      "velocity": 0.71,
      "hand": "left"
    },
    {
      "midi": 63,
      "time": 10.417,
      "duration": 0.833,
      "velocity": 0.71,
      "hand": "right"
    },
    {
      "midi": 56,
      "time": 10.625,
      "duration": 0.208,
      "velocity": 0.71,
      "hand": "left"
    },
    {
      "midi": 61,
      "time": 10.833,
      "duration": 0.208,
      "velocity": 0.71,
      "hand": "right"
    },
    {
      "midi": 56,
      "time": 11.042,
      "duration": 0.208,
      "velocity": 0.71,
      "hand": "left"
    },
    {
      "midi": 52,
      "time": 11.25,
      "duration": 0.208,
      "velocity": 0.71,
      "hand": "left"
    },
    {
      "midi": 61,
      "time": 11.25,
      "duration": 0.417,
      "velocity": 0.71,
      "hand": "right"
    },
    {
      "midi": 47,
      "time": 11.458,
      "duration": 0.208,
      "velocity": 0.71,
      "hand": "left"
    },
    {
      "midi": 40,
      "time": 11.667,
      "duration": 0.208,
      "velocity": 0.71,
      "hand": "left"
    },
    {
      "midi": 59,
      "time": 11.667,
      "duration": 0.208,
      "velocity": 0.71,
      "hand": "left"
    },
    {
      "midi": 47,
      "time": 11.875,
      "duration": 0.208,
      "velocity": 0.71,
      "hand": "left"
    },
    {
      "midi": 52,
      "time": 12.083,
      "duration": 0.208,
      "velocity": 0.71,
      "hand": "left"
    },
    {
      "midi": 76,
      "time": 12.083,
      "duration": 0.104,
      "velocity": 0.71,
      "hand": "right"
    },
    {
      "midi": 78,
      "time": 12.188,
      "duration": 0.104,
      "velocity": 0.71,
      "hand": "right"
    },
    {
      "midi": 56,
      "time": 12.292,
      "duration": 0.208,
      "velocity": 0.71,
      "hand": "left"
    },
    {
      "midi": 73,
      "time": 12.396,
      "duration": 0.104,
      "velocity": 0.71,
      "hand": "right"
    },
    {
      "midi": 59,
      "time": 12.5,
      "duration": 0.208,
      "velocity": 0.71,
      "hand": "left"
    },
    {
      "midi": 76,
      "time": 12.5,
      "duration": 0.104,
      "velocity": 0.71,
      "hand": "right"
    },
    {
      "midi": 71,
      "time": 12.604,
      "duration": 0.104,
      "velocity": 0.71,
      "hand": "right"
    },
    {
      "midi": 56,
      "time": 12.708,
      "duration": 0.208,
      "velocity": 0.71,
      "hand": "left"
    },
    {
      "midi": 73,
      "time": 12.813,
      "duration": 0.104,
      "velocity": 0.71,
      "hand": "right"
    },
    {
      "midi": 52,
      "time": 12.917,
      "duration": 0.208,
      "velocity": 0.71,
      "hand": "left"
    },
    {
      "midi": 68,
      "time": 12.917,
      "duration": 0.104,
      "velocity": 0.71,
      "hand": "right"
    },
    {
      "midi": 71,
      "time": 13.021,
      "duration": 0.104,
      "velocity": 0.71,
      "hand": "right"
    },
    {
      "midi": 47,
      "time": 13.125,
      "duration": 0.208,
      "velocity": 0.71,
      "hand": "left"
    },
    {
      "midi": 66,
      "time": 13.229,
      "duration": 0.104,
      "velocity": 0.71,
      "hand": "right"
    },
    {
      "midi": 40,
      "time": 13.333,
      "duration": 0.208,
      "velocity": 0.71,
      "hand": "left"
    },
    {
      "midi": 68,
      "time": 13.333,
      "duration": 0.104,
      "velocity": 0.71,
      "hand": "right"
    },
    {
      "midi": 64,
      "time": 13.438,
      "duration": 0.104,
      "velocity": 0.71,
      "hand": "right"
    },
    {
      "midi": 49,
      "time": 13.542,
      "duration": 0.208,
      "velocity": 0.71,
      "hand": "left"
    },
    {
      "midi": 68,
      "time": 13.646,
      "duration": 0.104,
      "velocity": 0.71,
      "hand": "right"
    },
    {
      "midi": 52,
      "time": 13.75,
      "duration": 0.208,
      "velocity": 0.71,
      "hand": "left"
    },
    {
      "midi": 63,
      "time": 13.75,
      "duration": 0.833,
      "velocity": 0.71,
      "hand": "right"
    },
    {
      "midi": 56,
      "time": 13.958,
      "duration": 0.208,
      "velocity": 0.71,
      "hand": "left"
    },
    {
      "midi": 61,
      "time": 14.167,
      "duration": 0.208,
      "velocity": 0.71,
      "hand": "right"
    },
    {
      "midi": 56,
      "time": 14.375,
      "duration": 0.208,
      "velocity": 0.71,
      "hand": "left"
    },
    {
      "midi": 52,
      "time": 14.583,
      "duration": 0.208,
      "velocity": 0.71,
      "hand": "left"
    },
    {
      "midi": 61,
      "time": 14.583,
      "duration": 0.417,
      "velocity": 0.71,
      "hand": "right"
    },
    {
      "midi": 47,
      "time": 14.792,
      "duration": 0.208,
      "velocity": 0.71,
      "hand": "left"
    },
    {
      "midi": 42,
      "time": 15,
      "duration": 0.208,
      "velocity": 0.71,
      "hand": "left"
    },
    {
      "midi": 59,
      "time": 15,
      "duration": 0.104,
      "velocity": 0.71,
      "hand": "left"
    },
    {
      "midi": 57,
      "time": 15.104,
      "duration": 0.104,
      "velocity": 0.71,
      "hand": "left"
    },
    {
      "midi": 49,
      "time": 15.208,
      "duration": 0.208,
      "velocity": 0.71,
      "hand": "left"
    },
    {
      "midi": 59,
      "time": 15.313,
      "duration": 0.104,
      "velocity": 0.71,
      "hand": "left"
    },
    {
      "midi": 52,
      "time": 15.417,
      "duration": 0.208,
      "velocity": 0.71,
      "hand": "left"
    },
    {
      "midi": 61,
      "time": 15.417,
      "duration": 0.625,
      "velocity": 0.71,
      "hand": "right"
    },
    {
      "midi": 54,
      "time": 15.625,
      "duration": 0.208,
      "velocity": 0.71,
      "hand": "left"
    },
    {
      "midi": 57,
      "time": 15.833,
      "duration": 0.208,
      "velocity": 0.71,
      "hand": "left"
    },
    {
      "midi": 54,
      "time": 16.042,
      "duration": 0.208,
      "velocity": 0.71,
      "hand": "left"
    },
    {
      "midi": 64,
      "time": 16.042,
      "duration": 0.208,
      "velocity": 0.71,
      "hand": "right"
    },
    {
      "midi": 52,
      "time": 16.25,
      "duration": 0.208,
      "velocity": 0.71,
      "hand": "left"
    },
    {
      "midi": 63,
      "time": 16.25,
      "duration": 0.208,
      "velocity": 0.71,
      "hand": "right"
    },
    {
      "midi": 49,
      "time": 16.458,
      "duration": 0.208,
      "velocity": 0.71,
      "hand": "left"
    },
    {
      "midi": 64,
      "time": 16.458,
      "duration": 0.208,
      "velocity": 0.71,
      "hand": "right"
    },
    {
      "midi": 44,
      "time": 16.667,
      "duration": 0.208,
      "velocity": 0.71,
      "hand": "left"
    },
    {
      "midi": 61,
      "time": 16.667,
      "duration": 0.417,
      "velocity": 0.71,
      "hand": "right"
    },
    {
      "midi": 49,
      "time": 16.875,
      "duration": 0.208,
      "velocity": 0.71,
      "hand": "left"
    },
    {
      "midi": 52,
      "time": 17.083,
      "duration": 0.208,
      "velocity": 0.71,
      "hand": "left"
    },
    {
      "midi": 68,
      "time": 17.083,
      "duration": 0.833,
      "velocity": 0.71,
      "hand": "right"
    },
    {
      "midi": 56,
      "time": 17.292,
      "duration": 0.208,
      "velocity": 0.71,
      "hand": "left"
    },
    {
      "midi": 59,
      "time": 17.5,
      "duration": 0.208,
      "velocity": 0.71,
      "hand": "left"
    },
    {
      "midi": 56,
      "time": 17.708,
      "duration": 0.208,
      "velocity": 0.71,
      "hand": "left"
    },
    {
      "midi": 52,
      "time": 17.917,
      "duration": 0.208,
      "velocity": 0.71,
      "hand": "left"
    },
    {
      "midi": 64,
      "time": 17.917,
      "duration": 0.417,
      "velocity": 0.71,
      "hand": "right"
    },
    {
      "midi": 49,
      "time": 18.125,
      "duration": 0.208,
      "velocity": 0.71,
      "hand": "left"
    },
    {
      "midi": 45,
      "time": 18.333,
      "duration": 0.208,
      "velocity": 0.71,
      "hand": "left"
    },
    {
      "midi": 63,
      "time": 18.333,
      "duration": 0.104,
      "velocity": 0.71,
      "hand": "right"
    },
    {
      "midi": 61,
      "time": 18.438,
      "duration": 0.104,
      "velocity": 0.71,
      "hand": "right"
    },
    {
      "midi": 52,
      "time": 18.542,
      "duration": 0.208,
      "velocity": 0.71,
      "hand": "left"
    },
    {
      "midi": 63,
      "time": 18.646,
      "duration": 0.104,
      "velocity": 0.71,
      "hand": "right"
    },
    {
      "midi": 54,
      "time": 18.75,
      "duration": 0.208,
      "velocity": 0.71,
      "hand": "left"
    },
    {
      "midi": 64,
      "time": 18.75,
      "duration": 0.625,
      "velocity": 0.71,
      "hand": "right"
    },
    {
      "midi": 57,
      "time": 18.958,
      "duration": 0.208,
      "velocity": 0.71,
      "hand": "left"
    },
    {
      "midi": 61,
      "time": 19.167,
      "duration": 0.208,
      "velocity": 0.71,
      "hand": "right"
    },
    {
      "midi": 57,
      "time": 19.375,
      "duration": 0.208,
      "velocity": 0.71,
      "hand": "left"
    },
    {
      "midi": 68,
      "time": 19.375,
      "duration": 0.208,
      "velocity": 0.71,
      "hand": "right"
    },
    {
      "midi": 54,
      "time": 19.583,
      "duration": 0.208,
      "velocity": 0.71,
      "hand": "left"
    },
    {
      "midi": 66,
      "time": 19.583,
      "duration": 0.208,
      "velocity": 0.71,
      "hand": "right"
    },
    {
      "midi": 52,
      "time": 19.792,
      "duration": 0.208,
      "velocity": 0.71,
      "hand": "left"
    },
    {
      "midi": 68,
      "time": 19.792,
      "duration": 0.208,
      "velocity": 0.71,
      "hand": "right"
    },
    {
      "midi": 46,
      "time": 20,
      "duration": 0.208,
      "velocity": 0.71,
      "hand": "left"
    },
    {
      "midi": 64,
      "time": 20,
      "duration": 0.417,
      "velocity": 0.71,
      "hand": "right"
    },
    {
      "midi": 52,
      "time": 20.208,
      "duration": 0.208,
      "velocity": 0.71,
      "hand": "left"
    },
    {
      "midi": 56,
      "time": 20.417,
      "duration": 0.208,
      "velocity": 0.71,
      "hand": "left"
    },
    {
      "midi": 73,
      "time": 20.417,
      "duration": 0.833,
      "velocity": 0.71,
      "hand": "right"
    },
    {
      "midi": 61,
      "time": 20.625,
      "duration": 0.208,
      "velocity": 0.71,
      "hand": "right"
    },
    {
      "midi": 49,
      "time": 20.833,
      "duration": 0.208,
      "velocity": 0.71,
      "hand": "left"
    },
    {
      "midi": 54,
      "time": 21.042,
      "duration": 0.208,
      "velocity": 0.71,
      "hand": "left"
    },
    {
      "midi": 58,
      "time": 21.25,
      "duration": 0.208,
      "velocity": 0.71,
      "hand": "left"
    },
    {
      "midi": 70,
      "time": 21.25,
      "duration": 0.104,
      "velocity": 0.71,
      "hand": "right"
    },
    {
      "midi": 73,
      "time": 21.354,
      "duration": 0.104,
      "velocity": 0.71,
      "hand": "right"
    },
    {
      "midi": 64,
      "time": 21.458,
      "duration": 0.208,
      "velocity": 0.71,
      "hand": "right"
    },
    {
      "midi": 70,
      "time": 21.563,
      "duration": 0.104,
      "velocity": 0.71,
      "hand": "right"
    },
    {
      "midi": 52,
      "time": 21.667,
      "duration": 0.208,
      "velocity": 0.71,
      "hand": "left"
    },
    {
      "midi": 68,
      "time": 21.667,
      "duration": 0.417,
      "velocity": 0.71,
      "hand": "right"
    },
    {
      "midi": 58,
      "time": 21.875,
      "duration": 0.208,
      "velocity": 0.71,
      "hand": "left"
    },
    {
      "midi": 61,
      "time": 22.083,
      "duration": 0.208,
      "velocity": 0.71,
      "hand": "right"
    },
    {
      "midi": 76,
      "time": 22.083,
      "duration": 0.833,
      "velocity": 0.71,
      "hand": "right"
    },
    {
      "midi": 68,
      "time": 22.292,
      "duration": 0.208,
      "velocity": 0.71,
      "hand": "right"
    },
    {
      "midi": 54,
      "time": 22.5,
      "duration": 0.208,
      "velocity": 0.71,
      "hand": "left"
    },
    {
      "midi": 61,
      "time": 22.708,
      "duration": 0.208,
      "velocity": 0.71,
      "hand": "right"
    },
    {
      "midi": 64,
      "time": 22.917,
      "duration": 0.208,
      "velocity": 0.71,
      "hand": "right"
    },
    {
      "midi": 73,
      "time": 22.917,
      "duration": 0.104,
      "velocity": 0.71,
      "hand": "right"
    },
    {
      "midi": 76,
      "time": 23.021,
      "duration": 0.104,
      "velocity": 0.71,
      "hand": "right"
    },
    {
      "midi": 70,
      "time": 23.125,
      "duration": 0.208,
      "velocity": 0.71,
      "hand": "right"
    },
    {
      "midi": 73,
      "time": 23.229,
      "duration": 0.104,
      "velocity": 0.71,
      "hand": "right"
    },
    {
      "midi": 58,
      "time": 23.333,
      "duration": 0.208,
      "velocity": 0.71,
      "hand": "left"
    },
    {
      "midi": 80,
      "time": 23.333,
      "duration": 0.625,
      "velocity": 0.71,
      "hand": "right"
    },
    {
      "midi": 64,
      "time": 23.542,
      "duration": 0.208,
      "velocity": 0.71,
      "hand": "right"
    },
    {
      "midi": 68,
      "time": 23.75,
      "duration": 0.208,
      "velocity": 0.71,
      "hand": "right"
    },
    {
      "midi": 73,
      "time": 23.958,
      "duration": 0.208,
      "velocity": 0.71,
      "hand": "right"
    },
    {
      "midi": 78,
      "time": 23.958,
      "duration": 0.208,
      "velocity": 0.71,
      "hand": "right"
    },
    {
      "midi": 61,
      "time": 24.167,
      "duration": 0.208,
      "velocity": 0.71,
      "hand": "right"
    },
    {
      "midi": 80,
      "time": 24.167,
      "duration": 0.625,
      "velocity": 0.71,
      "hand": "right"
    },
    {
      "midi": 66,
      "time": 24.375,
      "duration": 0.208,
      "velocity": 0.71,
      "hand": "right"
    },
    {
      "midi": 70,
      "time": 24.583,
      "duration": 0.208,
      "velocity": 0.71,
      "hand": "right"
    },
    {
      "midi": 76,
      "time": 24.792,
      "duration": 0.208,
      "velocity": 0.71,
      "hand": "right"
    },
    {
      "midi": 78,
      "time": 24.792,
      "duration": 0.208,
      "velocity": 0.71,
      "hand": "right"
    },
    {
      "midi": 58,
      "time": 25,
      "duration": 0.208,
      "velocity": 0.71,
      "hand": "left"
    },
    {
      "midi": 80,
      "time": 25,
      "duration": 0.625,
      "velocity": 0.71,
      "hand": "right"
    },
    {
      "midi": 64,
      "time": 25.208,
      "duration": 0.208,
      "velocity": 0.71,
      "hand": "right"
    },
    {
      "midi": 68,
      "time": 25.417,
      "duration": 0.208,
      "velocity": 0.71,
      "hand": "right"
    },
    {
      "midi": 73,
      "time": 25.625,
      "duration": 0.208,
      "velocity": 0.71,
      "hand": "right"
    },
    {
      "midi": 78,
      "time": 25.625,
      "duration": 0.208,
      "velocity": 0.71,
      "hand": "right"
    },
    {
      "midi": 61,
      "time": 25.833,
      "duration": 0.208,
      "velocity": 0.71,
      "hand": "right"
    },
    {
      "midi": 80,
      "time": 25.833,
      "duration": 0.208,
      "velocity": 0.71,
      "hand": "right"
    },
    {
      "midi": 66,
      "time": 26.042,
      "duration": 0.208,
      "velocity": 0.71,
      "hand": "right"
    },
    {
      "midi": 78,
      "time": 26.042,
      "duration": 0.417,
      "velocity": 0.71,
      "hand": "right"
    },
    {
      "midi": 70,
      "time": 26.25,
      "duration": 0.208,
      "velocity": 0.71,
      "hand": "right"
    },
    {
      "midi": 76,
      "time": 26.458,
      "duration": 0.208,
      "velocity": 0.71,
      "hand": "right"
    },
    {
      "midi": 80,
      "time": 26.458,
      "duration": 0.208,
      "velocity": 0.71,
      "hand": "right"
    },
    {
      "midi": 61,
      "time": 26.667,
      "duration": 0.104,
      "velocity": 0.71,
      "hand": "right"
    },
    {
      "midi": 81,
      "time": 26.667,
      "duration": 0.833,
      "velocity": 0.71,
      "hand": "right"
    },
    {
      "midi": 64,
      "time": 26.771,
      "duration": 0.104,
      "velocity": 0.71,
      "hand": "right"
    },
    {
      "midi": 69,
      "time": 26.979,
      "duration": 0.104,
      "velocity": 0.71,
      "hand": "right"
    },
    {
      "midi": 73,
      "time": 27.083,
      "duration": 0.104,
      "velocity": 0.71,
      "hand": "right"
    },
    {
      "midi": 76,
      "time": 27.188,
      "duration": 0.104,
      "velocity": 0.71,
      "hand": "right"
    },
    {
      "midi": 78,
      "time": 27.396,
      "duration": 0.104,
      "velocity": 0.71,
      "hand": "right"
    },
    {
      "midi": 80,
      "time": 27.5,
      "duration": 0.833,
      "velocity": 0.71,
      "hand": "right"
    },
    {
      "midi": 75,
      "time": 27.604,
      "duration": 0.104,
      "velocity": 0.71,
      "hand": "right"
    },
    {
      "midi": 71,
      "time": 27.813,
      "duration": 0.104,
      "velocity": 0.71,
      "hand": "right"
    },
    {
      "midi": 68,
      "time": 27.917,
      "duration": 0.104,
      "velocity": 0.71,
      "hand": "right"
    },
    {
      "midi": 63,
      "time": 28.021,
      "duration": 0.104,
      "velocity": 0.71,
      "hand": "right"
    },
    {
      "midi": 59,
      "time": 28.229,
      "duration": 0.104,
      "velocity": 0.71,
      "hand": "left"
    },
    {
      "midi": 57,
      "time": 28.333,
      "duration": 0.104,
      "velocity": 0.71,
      "hand": "left"
    },
    {
      "midi": 78,
      "time": 28.333,
      "duration": 0.833,
      "velocity": 0.71,
      "hand": "right"
    },
    {
      "midi": 61,
      "time": 28.438,
      "duration": 0.104,
      "velocity": 0.71,
      "hand": "right"
    },
    {
      "midi": 66,
      "time": 28.646,
      "duration": 0.104,
      "velocity": 0.71,
      "hand": "right"
    },
    {
      "midi": 69,
      "time": 28.75,
      "duration": 0.104,
      "velocity": 0.71,
      "hand": "right"
    },
    {
      "midi": 73,
      "time": 28.854,
      "duration": 0.104,
      "velocity": 0.71,
      "hand": "right"
    },
    {
      "midi": 75,
      "time": 29.063,
      "duration": 0.104,
      "velocity": 0.71,
      "hand": "right"
    },
    {
      "midi": 76,
      "time": 29.167,
      "duration": 0.833,
      "velocity": 0.71,
      "hand": "right"
    },
    {
      "midi": 71,
      "time": 29.271,
      "duration": 0.104,
      "velocity": 0.71,
      "hand": "right"
    },
    {
      "midi": 68,
      "time": 29.479,
      "duration": 0.104,
      "velocity": 0.71,
      "hand": "right"
    },
    {
      "midi": 64,
      "time": 29.583,
      "duration": 0.104,
      "velocity": 0.71,
      "hand": "right"
    },
    {
      "midi": 59,
      "time": 29.688,
      "duration": 0.104,
      "velocity": 0.71,
      "hand": "left"
    },
    {
      "midi": 56,
      "time": 29.896,
      "duration": 0.104,
      "velocity": 0.71,
      "hand": "left"
    },
    {
      "midi": 55,
      "time": 30,
      "duration": 0.104,
      "velocity": 0.71,
      "hand": "left"
    },
    {
      "midi": 75,
      "time": 30,
      "duration": 0.833,
      "velocity": 0.71,
      "hand": "right"
    },
    {
      "midi": 61,
      "time": 30.104,
      "duration": 0.104,
      "velocity": 0.71,
      "hand": "right"
    },
    {
      "midi": 63,
      "time": 30.313,
      "duration": 0.104,
      "velocity": 0.71,
      "hand": "right"
    },
    {
      "midi": 70,
      "time": 30.417,
      "duration": 0.104,
      "velocity": 0.71,
      "hand": "right"
    },
    {
      "midi": 63,
      "time": 30.521,
      "duration": 0.104,
      "velocity": 0.71,
      "hand": "right"
    },
    {
      "midi": 61,
      "time": 30.729,
      "duration": 0.104,
      "velocity": 0.71,
      "hand": "right"
    },
    {
      "midi": 56,
      "time": 30.833,
      "duration": 0.104,
      "velocity": 0.71,
      "hand": "left"
    },
    {
      "midi": 76,
      "time": 30.833,
      "duration": 0.417,
      "velocity": 0.71,
      "hand": "right"
    },
    {
      "midi": 61,
      "time": 30.938,
      "duration": 0.104,
      "velocity": 0.71,
      "hand": "right"
    },
    {
      "midi": 64,
      "time": 31.146,
      "duration": 0.104,
      "velocity": 0.71,
      "hand": "right"
    },
    {
      "midi": 71,
      "time": 31.25,
      "duration": 0.104,
      "velocity": 0.71,
      "hand": "right"
    },
    {
      "midi": 80,
      "time": 31.25,
      "duration": 0.208,
      "velocity": 0.71,
      "hand": "right"
    },
    {
      "midi": 64,
      "time": 31.354,
      "duration": 0.104,
      "velocity": 0.71,
      "hand": "right"
    },
    {
      "midi": 83,
      "time": 31.458,
      "duration": 0.208,
      "velocity": 0.71,
      "hand": "right"
    },
    {
      "midi": 61,
      "time": 31.563,
      "duration": 0.104,
      "velocity": 0.71,
      "hand": "right"
    },
    {
      "midi": 55,
      "time": 31.667,
      "duration": 0.104,
      "velocity": 0.71,
      "hand": "left"
    },
    {
      "midi": 75,
      "time": 31.667,
      "duration": 1.042,
      "velocity": 0.71,
      "hand": "right"
    },
    {
      "midi": 61,
      "time": 31.771,
      "duration": 0.104,
      "velocity": 0.71,
      "hand": "right"
    },
    {
      "midi": 63,
      "time": 31.979,
      "duration": 0.104,
      "velocity": 0.71,
      "hand": "right"
    },
    {
      "midi": 70,
      "time": 32.083,
      "duration": 0.104,
      "velocity": 0.71,
      "hand": "right"
    },
    {
      "midi": 63,
      "time": 32.188,
      "duration": 0.104,
      "velocity": 0.71,
      "hand": "right"
    },
    {
      "midi": 61,
      "time": 32.396,
      "duration": 0.104,
      "velocity": 0.71,
      "hand": "right"
    },
    {
      "midi": 52,
      "time": 32.5,
      "duration": 0.104,
      "velocity": 0.71,
      "hand": "left"
    },
    {
      "midi": 57,
      "time": 32.604,
      "duration": 0.104,
      "velocity": 0.71,
      "hand": "left"
    },
    {
      "midi": 73,
      "time": 32.708,
      "duration": 0.208,
      "velocity": 0.71,
      "hand": "right"
    },
    {
      "midi": 61,
      "time": 32.813,
      "duration": 0.104,
      "velocity": 0.71,
      "hand": "right"
    },
    {
      "midi": 68,
      "time": 32.917,
      "duration": 0.104,
      "velocity": 0.71,
      "hand": "right"
    },
    {
      "midi": 76,
      "time": 32.917,
      "duration": 0.208,
      "velocity": 0.71,
      "hand": "right"
    },
    {
      "midi": 61,
      "time": 33.021,
      "duration": 0.104,
      "velocity": 0.71,
      "hand": "right"
    },
    {
      "midi": 80,
      "time": 33.125,
      "duration": 0.208,
      "velocity": 0.71,
      "hand": "right"
    },
    {
      "midi": 57,
      "time": 33.229,
      "duration": 0.104,
      "velocity": 0.71,
      "hand": "left"
    },
    {
      "midi": 51,
      "time": 33.333,
      "duration": 0.104,
      "velocity": 0.71,
      "hand": "left"
    },
    {
      "midi": 71,
      "time": 33.333,
      "duration": 1.042,
      "velocity": 0.71,
      "hand": "right"
    },
    {
      "midi": 57,
      "time": 33.438,
      "duration": 0.104,
      "velocity": 0.71,
      "hand": "left"
    },
    {
      "midi": 59,
      "time": 33.646,
      "duration": 0.104,
      "velocity": 0.71,
      "hand": "left"
    },
    {
      "midi": 66,
      "time": 33.75,
      "duration": 0.104,
      "velocity": 0.71,
      "hand": "right"
    },
    {
      "midi": 59,
      "time": 33.854,
      "duration": 0.104,
      "velocity": 0.71,
      "hand": "left"
    },
    {
      "midi": 57,
      "time": 34.063,
      "duration": 0.104,
      "velocity": 0.71,
      "hand": "left"
    },
    {
      "midi": 49,
      "time": 34.167,
      "duration": 0.104,
      "velocity": 0.71,
      "hand": "left"
    },
    {
      "midi": 54,
      "time": 34.271,
      "duration": 0.104,
      "velocity": 0.71,
      "hand": "left"
    },
    {
      "midi": 69,
      "time": 34.375,
      "duration": 0.208,
      "velocity": 0.71,
      "hand": "right"
    },
    {
      "midi": 57,
      "time": 34.479,
      "duration": 0.104,
      "velocity": 0.71,
      "hand": "left"
    },
    {
      "midi": 64,
      "time": 34.583,
      "duration": 0.104,
      "velocity": 0.71,
      "hand": "right"
    },
    {
      "midi": 73,
      "time": 34.583,
      "duration": 0.208,
      "velocity": 0.71,
      "hand": "right"
    },
    {
      "midi": 57,
      "time": 34.688,
      "duration": 0.104,
      "velocity": 0.71,
      "hand": "left"
    },
    {
      "midi": 76,
      "time": 34.792,
      "duration": 0.208,
      "velocity": 0.71,
      "hand": "right"
    },
    {
      "midi": 54,
      "time": 34.896,
      "duration": 0.104,
      "velocity": 0.71,
      "hand": "left"
    },
    {
      "midi": 48,
      "time": 35,
      "duration": 0.104,
      "velocity": 0.71,
      "hand": "left"
    },
    {
      "midi": 68,
      "time": 35,
      "duration": 0.833,
      "velocity": 0.71,
      "hand": "right"
    },
    {
      "midi": 54,
      "time": 35.104,
      "duration": 0.104,
      "velocity": 0.71,
      "hand": "left"
    },
    {
      "midi": 56,
      "time": 35.313,
      "duration": 0.104,
      "velocity": 0.71,
      "hand": "left"
    },
    {
      "midi": 63,
      "time": 35.417,
      "duration": 0.104,
      "velocity": 0.71,
      "hand": "right"
    },
    {
      "midi": 56,
      "time": 35.521,
      "duration": 0.104,
      "velocity": 0.71,
      "hand": "left"
    },
    {
      "midi": 54,
      "time": 35.729,
      "duration": 0.104,
      "velocity": 0.71,
      "hand": "left"
    },
    {
      "midi": 49,
      "time": 35.833,
      "duration": 0.104,
      "velocity": 0.71,
      "hand": "left"
    },
    {
      "midi": 54,
      "time": 35.938,
      "duration": 0.104,
      "velocity": 0.71,
      "hand": "left"
    },
    {
      "midi": 69,
      "time": 35.938,
      "duration": 0.104,
      "velocity": 0.71,
      "hand": "right"
    },
    {
      "midi": 57,
      "time": 36.146,
      "duration": 0.104,
      "velocity": 0.71,
      "hand": "left"
    },
    {
      "midi": 73,
      "time": 36.146,
      "duration": 0.104,
      "velocity": 0.71,
      "hand": "right"
    },
    {
      "midi": 64,
      "time": 36.25,
      "duration": 0.104,
      "velocity": 0.71,
      "hand": "right"
    },
    {
      "midi": 76,
      "time": 36.25,
      "duration": 0.104,
      "velocity": 0.71,
      "hand": "right"
    },
    {
      "midi": 57,
      "time": 36.354,
      "duration": 0.104,
      "velocity": 0.71,
      "hand": "left"
    },
    {
      "midi": 80,
      "time": 36.354,
      "duration": 0.104,
      "velocity": 0.71,
      "hand": "right"
    },
    {
      "midi": 54,
      "time": 36.563,
      "duration": 0.104,
      "velocity": 0.71,
      "hand": "left"
    },
    {
      "midi": 78,
      "time": 36.563,
      "duration": 0.104,
      "velocity": 0.71,
      "hand": "right"
    },
    {
      "midi": 48,
      "time": 36.667,
      "duration": 0.104,
      "velocity": 0.71,
      "hand": "left"
    },
    {
      "midi": 75,
      "time": 36.667,
      "duration": 0.417,
      "velocity": 0.71,
      "hand": "right"
    },
    {
      "midi": 54,
      "time": 36.771,
      "duration": 0.104,
      "velocity": 0.71,
      "hand": "left"
    },
    {
      "midi": 56,
      "time": 36.979,
      "duration": 0.104,
      "velocity": 0.71,
      "hand": "left"
    },
    {
      "midi": 63,
      "time": 37.083,
      "duration": 0.104,
      "velocity": 0.71,
      "hand": "right"
    },
    {
      "midi": 68,
      "time": 37.083,
      "duration": 0.417,
      "velocity": 0.71,
      "hand": "right"
    },
    {
      "midi": 56,
      "time": 37.188,
      "duration": 0.104,
      "velocity": 0.71,
      "hand": "left"
    },
    {
      "midi": 54,
      "time": 37.396,
      "duration": 0.104,
      "velocity": 0.71,
      "hand": "left"
    },
    {
      "midi": 47,
      "time": 37.5,
      "duration": 0.104,
      "velocity": 0.71,
      "hand": "left"
    },
    {
      "midi": 54,
      "time": 37.604,
      "duration": 0.104,
      "velocity": 0.71,
      "hand": "left"
    },
    {
      "midi": 66,
      "time": 37.708,
      "duration": 0.208,
      "velocity": 0.71,
      "hand": "right"
    },
    {
      "midi": 57,
      "time": 37.813,
      "duration": 0.104,
      "velocity": 0.71,
      "hand": "left"
    },
    {
      "midi": 62,
      "time": 37.917,
      "duration": 0.104,
      "velocity": 0.71,
      "hand": "right"
    },
    {
      "midi": 69,
      "time": 37.917,
      "duration": 0.208,
      "velocity": 0.71,
      "hand": "right"
    },
    {
      "midi": 57,
      "time": 38.021,
      "duration": 0.104,
      "velocity": 0.71,
      "hand": "left"
    },
    {
      "midi": 73,
      "time": 38.125,
      "duration": 0.208,
      "velocity": 0.71,
      "hand": "right"
    },
    {
      "midi": 54,
      "time": 38.229,
      "duration": 0.104,
      "velocity": 0.71,
      "hand": "left"
    },
    {
      "midi": 47,
      "time": 38.333,
      "duration": 0.104,
      "velocity": 0.71,
      "hand": "left"
    },
    {
      "midi": 64,
      "time": 38.333,
      "duration": 0.833,
      "velocity": 0.71,
      "hand": "right"
    },
    {
      "midi": 52,
      "time": 38.438,
      "duration": 0.104,
      "velocity": 0.71,
      "hand": "left"
    },
    {
      "midi": 56,
      "time": 38.646,
      "duration": 0.104,
      "velocity": 0.71,
      "hand": "left"
    },
    {
      "midi": 62,
      "time": 38.75,
      "duration": 0.104,
      "velocity": 0.71,
      "hand": "right"
    },
    {
      "midi": 56,
      "time": 38.854,
      "duration": 0.104,
      "velocity": 0.71,
      "hand": "left"
    },
    {
      "midi": 52,
      "time": 39.063,
      "duration": 0.104,
      "velocity": 0.71,
      "hand": "left"
    },
    {
      "midi": 47,
      "time": 39.167,
      "duration": 0.104,
      "velocity": 0.71,
      "hand": "left"
    },
    {
      "midi": 54,
      "time": 39.271,
      "duration": 0.104,
      "velocity": 0.71,
      "hand": "left"
    },
    {
      "midi": 66,
      "time": 39.271,
      "duration": 0.104,
      "velocity": 0.71,
      "hand": "right"
    },
    {
      "midi": 57,
      "time": 39.479,
      "duration": 0.104,
      "velocity": 0.71,
      "hand": "left"
    },
    {
      "midi": 69,
      "time": 39.479,
      "duration": 0.104,
      "velocity": 0.71,
      "hand": "right"
    },
    {
      "midi": 62,
      "time": 39.583,
      "duration": 0.104,
      "velocity": 0.71,
      "hand": "right"
    },
    {
      "midi": 73,
      "time": 39.583,
      "duration": 0.104,
      "velocity": 0.71,
      "hand": "right"
    },
    {
      "midi": 57,
      "time": 39.688,
      "duration": 0.104,
      "velocity": 0.71,
      "hand": "left"
    },
    {
      "midi": 76,
      "time": 39.688,
      "duration": 0.104,
      "velocity": 0.71,
      "hand": "right"
    },
    {
      "midi": 54,
      "time": 39.896,
      "duration": 0.104,
      "velocity": 0.71,
      "hand": "left"
    },
    {
      "midi": 74,
      "time": 39.896,
      "duration": 0.104,
      "velocity": 0.71,
      "hand": "right"
    },
    {
      "midi": 47,
      "time": 40,
      "duration": 0.104,
      "velocity": 0.71,
      "hand": "left"
    },
    {
      "midi": 68,
      "time": 40,
      "duration": 0.417,
      "velocity": 0.71,
      "hand": "right"
    },
    {
      "midi": 52,
      "time": 40.104,
      "duration": 0.104,
      "velocity": 0.71,
      "hand": "left"
    },
    {
      "midi": 56,
      "time": 40.313,
      "duration": 0.104,
      "velocity": 0.71,
      "hand": "left"
    },
    {
      "midi": 62,
      "time": 40.417,
      "duration": 0.104,
      "velocity": 0.71,
      "hand": "right"
    },
    {
      "midi": 66,
      "time": 40.417,
      "duration": 0.833,
      "velocity": 0.71,
      "hand": "right"
    },
    {
      "midi": 56,
      "time": 40.521,
      "duration": 0.104,
      "velocity": 0.71,
      "hand": "left"
    },
    {
      "midi": 52,
      "time": 40.729,
      "duration": 0.104,
      "velocity": 0.71,
      "hand": "left"
    },
    {
      "midi": 40,
      "time": 40.833,
      "duration": 0.104,
      "velocity": 0.71,
      "hand": "left"
    },
    {
      "midi": 47,
      "time": 40.938,
      "duration": 0.104,
      "velocity": 0.71,
      "hand": "left"
    },
    {
      "midi": 52,
      "time": 41.146,
      "duration": 0.104,
      "velocity": 0.71,
      "hand": "left"
    },
    {
      "midi": 54,
      "time": 41.25,
      "duration": 0.104,
      "velocity": 0.71,
      "hand": "left"
    },
    {
      "midi": 62,
      "time": 41.25,
      "duration": 0.417,
      "velocity": 0.71,
      "hand": "right"
    },
    {
      "midi": 56,
      "time": 41.354,
      "duration": 0.104,
      "velocity": 0.71,
      "hand": "left"
    },
    {
      "midi": 59,
      "time": 41.563,
      "duration": 0.104,
      "velocity": 0.71,
      "hand": "left"
    },
    {
      "midi": 33,
      "time": 41.667,
      "duration": 0.104,
      "velocity": 0.71,
      "hand": "left"
    },
    {
      "midi": 61,
      "time": 41.667,
      "duration": 2.083,
      "velocity": 0.71,
      "hand": "right"
    },
    {
      "midi": 45,
      "time": 41.771,
      "duration": 3.229,
      "velocity": 0.71,
      "hand": "left"
    },
    {
      "midi": 52,
      "time": 41.979,
      "duration": 0.104,
      "velocity": 0.71,
      "hand": "left"
    },
    {
      "midi": 55,
      "time": 42.083,
      "duration": 0.104,
      "velocity": 0.71,
      "hand": "left"
    },
    {
      "midi": 57,
      "time": 42.188,
      "duration": 0.104,
      "velocity": 0.71,
      "hand": "left"
    },
    {
      "midi": 59,
      "time": 42.396,
      "duration": 0.104,
      "velocity": 0.71,
      "hand": "left"
    },
    {
      "midi": 57,
      "time": 42.5,
      "duration": 0.104,
      "velocity": 0.71,
      "hand": "left"
    },
    {
      "midi": 52,
      "time": 42.604,
      "duration": 0.104,
      "velocity": 0.71,
      "hand": "left"
    },
    {
      "midi": 55,
      "time": 42.813,
      "duration": 0.104,
      "velocity": 0.71,
      "hand": "left"
    },
    {
      "midi": 57,
      "time": 42.917,
      "duration": 0.104,
      "velocity": 0.71,
      "hand": "left"
    },
    {
      "midi": 59,
      "time": 43.021,
      "duration": 0.104,
      "velocity": 0.71,
      "hand": "left"
    },
    {
      "midi": 57,
      "time": 43.229,
      "duration": 0.104,
      "velocity": 0.71,
      "hand": "left"
    },
    {
      "midi": 55,
      "time": 43.333,
      "duration": 1.667,
      "velocity": 0.71,
      "hand": "left"
    },
    {
      "midi": 61,
      "time": 43.75,
      "duration": 0.417,
      "velocity": 0.71,
      "hand": "right"
    },
    {
      "midi": 64,
      "time": 44.167,
      "duration": 0.417,
      "velocity": 0.71,
      "hand": "right"
    },
    {
      "midi": 61,
      "time": 44.583,
      "duration": 0.417,
      "velocity": 0.71,
      "hand": "right"
    },
    {
      "midi": 38,
      "time": 45,
      "duration": 0.208,
      "velocity": 0.71,
      "hand": "left"
    },
    {
      "midi": 66,
      "time": 45,
      "duration": 2.083,
      "velocity": 0.71,
      "hand": "right"
    },
    {
      "midi": 45,
      "time": 45.208,
      "duration": 0.208,
      "velocity": 0.71,
      "hand": "left"
    },
    {
      "midi": 54,
      "time": 45.417,
      "duration": 1.25,
      "velocity": 0.71,
      "hand": "left"
    },
    {
      "midi": 57,
      "time": 45.417,
      "duration": 0.104,
      "velocity": 0.71,
      "hand": "left"
    },
    {
      "midi": 59,
      "time": 45.521,
      "duration": 0.104,
      "velocity": 0.71,
      "hand": "left"
    },
    {
      "midi": 61,
      "time": 45.729,
      "duration": 0.104,
      "velocity": 0.71,
      "hand": "right"
    },
    {
      "midi": 59,
      "time": 45.833,
      "duration": 0.104,
      "velocity": 0.71,
      "hand": "left"
    },
    {
      "midi": 57,
      "time": 45.938,
      "duration": 0.104,
      "velocity": 0.71,
      "hand": "left"
    },
    {
      "midi": 59,
      "time": 46.146,
      "duration": 0.104,
      "velocity": 0.71,
      "hand": "left"
    },
    {
      "midi": 61,
      "time": 46.25,
      "duration": 0.104,
      "velocity": 0.71,
      "hand": "right"
    },
    {
      "midi": 59,
      "time": 46.354,
      "duration": 0.104,
      "velocity": 0.71,
      "hand": "left"
    },
    {
      "midi": 57,
      "time": 46.563,
      "duration": 0.104,
      "velocity": 0.71,
      "hand": "left"
    },
    {
      "midi": 35,
      "time": 46.667,
      "duration": 0.208,
      "velocity": 0.71,
      "hand": "left"
    },
    {
      "midi": 61,
      "time": 46.667,
      "duration": 0.833,
      "velocity": 0.71,
      "hand": "right"
    },
    {
      "midi": 47,
      "time": 46.875,
      "duration": 0.208,
      "velocity": 0.71,
      "hand": "left"
    },
    {
      "midi": 54,
      "time": 47.083,
      "duration": 0.208,
      "velocity": 0.71,
      "hand": "left"
    },
    {
      "midi": 66,
      "time": 47.083,
      "duration": 0.417,
      "velocity": 0.71,
      "hand": "right"
    },
    {
      "midi": 57,
      "time": 47.292,
      "duration": 0.208,
      "velocity": 0.71,
      "hand": "left"
    },
    {
      "midi": 59,
      "time": 47.5,
      "duration": 0.417,
      "velocity": 0.71,
      "hand": "left"
    },
    {
      "midi": 63,
      "time": 47.5,
      "duration": 1.667,
      "velocity": 0.71,
      "hand": "right"
    },
    {
      "midi": 69,
      "time": 47.5,
      "duration": 0.417,
      "velocity": 0.71,
      "hand": "right"
    },
    {
      "midi": 66,
      "time": 47.917,
      "duration": 0.417,
      "velocity": 0.71,
      "hand": "right"
    },
    {
      "midi": 32,
      "time": 48.333,
      "duration": 0.208,
      "velocity": 0.71,
      "hand": "left"
    },
    {
      "midi": 71,
      "time": 48.333,
      "duration": 0.417,
      "velocity": 0.71,
      "hand": "right"
    },
    {
      "midi": 44,
      "time": 48.542,
      "duration": 0.208,
      "velocity": 0.71,
      "hand": "left"
    },
    {
      "midi": 52,
      "time": 48.75,
      "duration": 0.208,
      "velocity": 0.71,
      "hand": "left"
    },
    {
      "midi": 68,
      "time": 48.75,
      "duration": 0.417,
      "velocity": 0.71,
      "hand": "right"
    },
    {
      "midi": 56,
      "time": 48.958,
      "duration": 0.208,
      "velocity": 0.71,
      "hand": "left"
    },
    {
      "midi": 59,
      "time": 49.167,
      "duration": 0.417,
      "velocity": 0.71,
      "hand": "left"
    },
    {
      "midi": 64,
      "time": 49.167,
      "duration": 0.833,
      "velocity": 0.71,
      "hand": "right"
    },
    {
      "midi": 71,
      "time": 49.167,
      "duration": 0.417,
      "velocity": 0.71,
      "hand": "right"
    },
    {
      "midi": 68,
      "time": 49.583,
      "duration": 0.417,
      "velocity": 0.71,
      "hand": "right"
    },
    {
      "midi": 30,
      "time": 50,
      "duration": 0.104,
      "velocity": 0.71,
      "hand": "left"
    },
    {
      "midi": 69,
      "time": 50,
      "duration": 2.083,
      "velocity": 0.71,
      "hand": "right"
    },
    {
      "midi": 73,
      "time": 50,
      "duration": 2.083,
      "velocity": 0.71,
      "hand": "right"
    },
    {
      "midi": 42,
      "time": 50.104,
      "duration": 0.104,
      "velocity": 0.71,
      "hand": "left"
    },
    {
      "midi": 49,
      "time": 50.313,
      "duration": 0.104,
      "velocity": 0.71,
      "hand": "left"
    },
    {
      "midi": 52,
      "time": 50.417,
      "duration": 0.104,
      "velocity": 0.71,
      "hand": "left"
    },
    {
      "midi": 54,
      "time": 50.521,
      "duration": 0.104,
      "velocity": 0.71,
      "hand": "left"
    },
    {
      "midi": 57,
      "time": 50.729,
      "duration": 0.104,
      "velocity": 0.71,
      "hand": "left"
    },
    {
      "midi": 61,
      "time": 50.833,
      "duration": 0.104,
      "velocity": 0.71,
      "hand": "right"
    },
    {
      "midi": 64,
      "time": 50.938,
      "duration": 0.104,
      "velocity": 0.71,
      "hand": "right"
    },
    {
      "midi": 66,
      "time": 51.146,
      "duration": 0.104,
      "velocity": 0.71,
      "hand": "right"
    },
    {
      "midi": 68,
      "time": 51.354,
      "duration": 0.104,
      "velocity": 0.71,
      "hand": "right"
    },
    {
      "midi": 66,
      "time": 51.563,
      "duration": 0.104,
      "velocity": 0.71,
      "hand": "right"
    },
    {
      "midi": 64,
      "time": 51.667,
      "duration": 0.833,
      "velocity": 0.71,
      "hand": "right"
    },
    {
      "midi": 66,
      "time": 52.083,
      "duration": 0.417,
      "velocity": 0.71,
      "hand": "right"
    },
    {
      "midi": 69,
      "time": 52.083,
      "duration": 0.417,
      "velocity": 0.71,
      "hand": "right"
    },
    {
      "midi": 63,
      "time": 52.5,
      "duration": 0.417,
      "velocity": 0.71,
      "hand": "right"
    },
    {
      "midi": 68,
      "time": 52.5,
      "duration": 0.417,
      "velocity": 0.71,
      "hand": "right"
    },
    {
      "midi": 71,
      "time": 52.5,
      "duration": 0.417,
      "velocity": 0.71,
      "hand": "right"
    },
    {
      "midi": 61,
      "time": 52.917,
      "duration": 0.417,
      "velocity": 0.71,
      "hand": "right"
    },
    {
      "midi": 69,
      "time": 52.917,
      "duration": 0.417,
      "velocity": 0.71,
      "hand": "right"
    },
    {
      "midi": 73,
      "time": 52.917,
      "duration": 0.417,
      "velocity": 0.71,
      "hand": "right"
    },
    {
      "midi": 30,
      "time": 53.333,
      "duration": 0.104,
      "velocity": 0.71,
      "hand": "left"
    },
    {
      "midi": 69,
      "time": 53.333,
      "duration": 2.083,
      "velocity": 0.71,
      "hand": "right"
    },
    {
      "midi": 73,
      "time": 53.333,
      "duration": 2.083,
      "velocity": 0.71,
      "hand": "right"
    },
    {
      "midi": 42,
      "time": 53.438,
      "duration": 0.104,
      "velocity": 0.71,
      "hand": "left"
    },
    {
      "midi": 49,
      "time": 53.646,
      "duration": 0.104,
      "velocity": 0.71,
      "hand": "left"
    },
    {
      "midi": 52,
      "time": 53.75,
      "duration": 0.104,
      "velocity": 0.71,
      "hand": "left"
    },
    {
      "midi": 54,
      "time": 53.854,
      "duration": 0.104,
      "velocity": 0.71,
      "hand": "left"
    },
    {
      "midi": 57,
      "time": 54.063,
      "duration": 0.104,
      "velocity": 0.71,
      "hand": "left"
    },
    {
      "midi": 61,
      "time": 54.167,
      "duration": 0.104,
      "velocity": 0.71,
      "hand": "right"
    },
    {
      "midi": 64,
      "time": 54.271,
      "duration": 0.104,
      "velocity": 0.71,
      "hand": "right"
    },
    {
      "midi": 66,
      "time": 54.479,
      "duration": 0.104,
      "velocity": 0.71,
      "hand": "right"
    },
    {
      "midi": 68,
      "time": 54.688,
      "duration": 0.104,
      "velocity": 0.71,
      "hand": "right"
    },
    {
      "midi": 66,
      "time": 54.896,
      "duration": 0.104,
      "velocity": 0.71,
      "hand": "right"
    },
    {
      "midi": 64,
      "time": 55,
      "duration": 0.833,
      "velocity": 0.71,
      "hand": "right"
    },
    {
      "midi": 66,
      "time": 55.417,
      "duration": 0.104,
      "velocity": 0.71,
      "hand": "right"
    },
    {
      "midi": 69,
      "time": 55.417,
      "duration": 0.417,
      "velocity": 0.71,
      "hand": "right"
    },
    {
      "midi": 61,
      "time": 55.521,
      "duration": 0.104,
      "velocity": 0.71,
      "hand": "right"
    },
    {
      "midi": 54,
      "time": 55.833,
      "duration": 0.833,
      "velocity": 0.71,
      "hand": "left"
    },
    {
      "midi": 68,
      "time": 55.833,
      "duration": 0.104,
      "velocity": 0.71,
      "hand": "right"
    },
    {
      "midi": 71,
      "time": 55.833,
      "duration": 0.417,
      "velocity": 0.71,
      "hand": "right"
    },
    {
      "midi": 63,
      "time": 55.938,
      "duration": 0.104,
      "velocity": 0.71,
      "hand": "right"
    },
    {
      "midi": 66,
      "time": 56.146,
      "duration": 0.104,
      "velocity": 0.71,
      "hand": "right"
    },
    {
      "midi": 69,
      "time": 56.25,
      "duration": 0.104,
      "velocity": 0.71,
      "hand": "right"
    },
    {
      "midi": 73,
      "time": 56.25,
      "duration": 0.417,
      "velocity": 0.71,
      "hand": "right"
    },
    {
      "midi": 64,
      "time": 56.354,
      "duration": 0.104,
      "velocity": 0.71,
      "hand": "right"
    },
    {
      "midi": 68,
      "time": 56.563,
      "duration": 0.104,
      "velocity": 0.71,
      "hand": "right"
    },
    {
      "midi": 47,
      "time": 56.667,
      "duration": 0.417,
      "velocity": 0.71,
      "hand": "left"
    },
    {
      "midi": 71,
      "time": 56.667,
      "duration": 0.104,
      "velocity": 0.71,
      "hand": "right"
    },
    {
      "midi": 75,
      "time": 56.667,
      "duration": 0.417,
      "velocity": 0.71,
      "hand": "right"
    },
    {
      "midi": 66,
      "time": 56.771,
      "duration": 0.104,
      "velocity": 0.71,
      "hand": "right"
    },
    {
      "midi": 69,
      "time": 56.979,
      "duration": 0.104,
      "velocity": 0.71,
      "hand": "right"
    },
    {
      "midi": 54,
      "time": 57.083,
      "duration": 0.417,
      "velocity": 0.71,
      "hand": "left"
    },
    {
      "midi": 73,
      "time": 57.083,
      "duration": 0.104,
      "velocity": 0.71,
      "hand": "right"
    },
    {
      "midi": 76,
      "time": 57.083,
      "duration": 0.417,
      "velocity": 0.71,
      "hand": "right"
    },
    {
      "midi": 68,
      "time": 57.188,
      "duration": 0.104,
      "velocity": 0.71,
      "hand": "right"
    },
    {
      "midi": 71,
      "time": 57.396,
      "duration": 0.104,
      "velocity": 0.71,
      "hand": "right"
    },
    {
      "midi": 57,
      "time": 57.5,
      "duration": 0.417,
      "velocity": 0.71,
      "hand": "left"
    },
    {
      "midi": 75,
      "time": 57.5,
      "duration": 0.104,
      "velocity": 0.71,
      "hand": "right"
    },
    {
      "midi": 78,
      "time": 57.5,
      "duration": 0.417,
      "velocity": 0.71,
      "hand": "right"
    },
    {
      "midi": 69,
      "time": 57.604,
      "duration": 0.104,
      "velocity": 0.71,
      "hand": "right"
    },
    {
      "midi": 73,
      "time": 57.813,
      "duration": 0.104,
      "velocity": 0.71,
      "hand": "right"
    },
    {
      "midi": 59,
      "time": 57.917,
      "duration": 0.417,
      "velocity": 0.71,
      "hand": "left"
    },
    {
      "midi": 76,
      "time": 57.917,
      "duration": 0.104,
      "velocity": 0.71,
      "hand": "right"
    },
    {
      "midi": 80,
      "time": 57.917,
      "duration": 0.417,
      "velocity": 0.71,
      "hand": "right"
    },
    {
      "midi": 71,
      "time": 58.021,
      "duration": 0.104,
      "velocity": 0.71,
      "hand": "right"
    },
    {
      "midi": 75,
      "time": 58.229,
      "duration": 0.104,
      "velocity": 0.71,
      "hand": "right"
    },
    {
      "midi": 63,
      "time": 58.333,
      "duration": 0.417,
      "velocity": 0.71,
      "hand": "right"
    },
    {
      "midi": 78,
      "time": 58.333,
      "duration": 0.104,
      "velocity": 0.71,
      "hand": "right"
    },
    {
      "midi": 81,
      "time": 58.333,
      "duration": 0.417,
      "velocity": 0.71,
      "hand": "right"
    },
    {
      "midi": 73,
      "time": 58.438,
      "duration": 0.104,
      "velocity": 0.71,
      "hand": "right"
    },
    {
      "midi": 76,
      "time": 58.646,
      "duration": 0.104,
      "velocity": 0.71,
      "hand": "right"
    },
    {
      "midi": 66,
      "time": 58.75,
      "duration": 0.417,
      "velocity": 0.71,
      "hand": "right"
    },
    {
      "midi": 80,
      "time": 58.75,
      "duration": 0.104,
      "velocity": 0.71,
      "hand": "right"
    },
    {
      "midi": 83,
      "time": 58.75,
      "duration": 0.417,
      "velocity": 0.71,
      "hand": "right"
    },
    {
      "midi": 75,
      "time": 58.854,
      "duration": 0.104,
      "velocity": 0.71,
      "hand": "right"
    },
    {
      "midi": 78,
      "time": 59.063,
      "duration": 0.104,
      "velocity": 0.71,
      "hand": "right"
    },
    {
      "midi": 69,
      "time": 59.167,
      "duration": 0.417,
      "velocity": 0.71,
      "hand": "right"
    },
    {
      "midi": 81,
      "time": 59.167,
      "duration": 0.104,
      "velocity": 0.71,
      "hand": "right"
    },
    {
      "midi": 85,
      "time": 59.167,
      "duration": 0.417,
      "velocity": 0.71,
      "hand": "right"
    },
    {
      "midi": 76,
      "time": 59.271,
      "duration": 0.104,
      "velocity": 0.71,
      "hand": "right"
    },
    {
      "midi": 80,
      "time": 59.479,
      "duration": 0.104,
      "velocity": 0.71,
      "hand": "right"
    },
    {
      "midi": 71,
      "time": 59.583,
      "duration": 0.417,
      "velocity": 0.71,
      "hand": "right"
    },
    {
      "midi": 83,
      "time": 59.583,
      "duration": 0.104,
      "velocity": 0.71,
      "hand": "right"
    },
    {
      "midi": 87,
      "time": 59.583,
      "duration": 0.417,
      "velocity": 0.71,
      "hand": "right"
    },
    {
      "midi": 78,
      "time": 59.688,
      "duration": 0.104,
      "velocity": 0.71,
      "hand": "right"
    },
    {
      "midi": 81,
      "time": 59.896,
      "duration": 0.104,
      "velocity": 0.71,
      "hand": "right"
    },
    {
      "midi": 28,
      "time": 60,
      "duration": 0.208,
      "velocity": 0.71,
      "hand": "left"
    },
    {
      "midi": 80,
      "time": 60,
      "duration": 1.667,
      "velocity": 0.71,
      "hand": "right"
    },
    {
      "midi": 83,
      "time": 60,
      "duration": 1.667,
      "velocity": 0.71,
      "hand": "right"
    },
    {
      "midi": 90,
      "time": 60,
      "duration": 0.833,
      "velocity": 0.71,
      "hand": "right"
    },
    {
      "midi": 40,
      "time": 60.208,
      "duration": 0.208,
      "velocity": 0.71,
      "hand": "left"
    },
    {
      "midi": 47,
      "time": 60.417,
      "duration": 0.208,
      "velocity": 0.71,
      "hand": "left"
    },
    {
      "midi": 52,
      "time": 60.625,
      "duration": 0.208,
      "velocity": 0.71,
      "hand": "left"
    },
    {
      "midi": 56,
      "time": 60.833,
      "duration": 0.208,
      "velocity": 0.71,
      "hand": "left"
    },
    {
      "midi": 88,
      "time": 60.833,
      "duration": 0.833,
      "velocity": 0.71,
      "hand": "right"
    },
    {
      "midi": 59,
      "time": 61.042,
      "duration": 0.208,
      "velocity": 0.71,
      "hand": "left"
    },
    {
      "midi": 64,
      "time": 61.25,
      "duration": 0.208,
      "velocity": 0.71,
      "hand": "right"
    },
    {
      "midi": 68,
      "time": 61.458,
      "duration": 0.208,
      "velocity": 0.71,
      "hand": "right"
    },
    {
      "midi": 76,
      "time": 61.667,
      "duration": 1.771,
      "velocity": 0.71,
      "hand": "right"
    },
    {
      "midi": 64,
      "time": 62.5,
      "duration": 0.833,
      "velocity": 0.71,
      "hand": "right"
    },
    {
      "midi": 59,
      "time": 63.333,
      "duration": 0.208,
      "velocity": 0.71,
      "hand": "left"
    },
    {
      "midi": 66,
      "time": 63.333,
      "duration": 1.25,
      "velocity": 0.71,
      "hand": "right"
    },
    {
      "midi": 69,
      "time": 63.333,
      "duration": 1.25,
      "velocity": 0.71,
      "hand": "right"
    },
    {
      "midi": 74,
      "time": 63.438,
      "duration": 0.104,
      "velocity": 0.71,
      "hand": "right"
    },
    {
      "midi": 61,
      "time": 63.542,
      "duration": 0.208,
      "velocity": 0.71,
      "hand": "right"
    },
    {
      "midi": 76,
      "time": 63.646,
      "duration": 0.104,
      "velocity": 0.71,
      "hand": "right"
    },
    {
      "midi": 62,
      "time": 63.75,
      "duration": 0.833,
      "velocity": 0.71,
      "hand": "right"
    },
    {
      "midi": 73,
      "time": 63.75,
      "duration": 0.625,
      "velocity": 0.71,
      "hand": "right"
    },
    {
      "midi": 71,
      "time": 64.375,
      "duration": 0.208,
      "velocity": 0.71,
      "hand": "right"
    },
    {
      "midi": 52,
      "time": 64.583,
      "duration": 0.417,
      "velocity": 0.71,
      "hand": "left"
    },
    {
      "midi": 62,
      "time": 64.583,
      "duration": 0.417,
      "velocity": 0.71,
      "hand": "right"
    },
    {
      "midi": 68,
      "time": 64.583,
      "duration": 0.417,
      "velocity": 0.71,
      "hand": "right"
    },
    {
      "midi": 71,
      "time": 64.583,
      "duration": 0.208,
      "velocity": 0.71,
      "hand": "right"
    },
    {
      "midi": 73,
      "time": 64.792,
      "duration": 0.208,
      "velocity": 0.71,
      "hand": "right"
    },
    {
      "midi": 54,
      "time": 65,
      "duration": 0.417,
      "velocity": 0.71,
      "hand": "left"
    },
    {
      "midi": 61,
      "time": 65,
      "duration": 0.417,
      "velocity": 0.71,
      "hand": "right"
    },
    {
      "midi": 66,
      "time": 65,
      "duration": 0.417,
      "velocity": 0.71,
      "hand": "right"
    },
    {
      "midi": 69,
      "time": 65,
      "duration": 0.417,
      "velocity": 0.71,
      "hand": "right"
    },
    {
      "midi": 47,
      "time": 65.417,
      "duration": 1.25,
      "velocity": 0.71,
      "hand": "left"
    },
    {
      "midi": 57,
      "time": 65.417,
      "duration": 1.25,
      "velocity": 0.71,
      "hand": "left"
    },
    {
      "midi": 63,
      "time": 65.417,
      "duration": 1.25,
      "velocity": 0.71,
      "hand": "right"
    },
    {
      "midi": 66,
      "time": 65.417,
      "duration": 0.833,
      "velocity": 0.71,
      "hand": "right"
    },
    {
      "midi": 68,
      "time": 66.25,
      "duration": 0.417,
      "velocity": 0.71,
      "hand": "right"
    },
    {
      "midi": 40,
      "time": 66.667,
      "duration": 0.417,
      "velocity": 0.71,
      "hand": "left"
    },
    {
      "midi": 47,
      "time": 66.667,
      "duration": 0.417,
      "velocity": 0.71,
      "hand": "left"
    },
    {
      "midi": 56,
      "time": 66.667,
      "duration": 0.417,
      "velocity": 0.71,
      "hand": "left"
    },
    {
      "midi": 62,
      "time": 66.667,
      "duration": 0.417,
      "velocity": 0.71,
      "hand": "right"
    },
    {
      "midi": 66,
      "time": 66.667,
      "duration": 0.208,
      "velocity": 0.71,
      "hand": "right"
    },
    {
      "midi": 64,
      "time": 66.875,
      "duration": 0.208,
      "velocity": 0.71,
      "hand": "right"
    },
    {
      "midi": 56,
      "time": 67.083,
      "duration": 1.25,
      "velocity": 0.71,
      "hand": "left"
    },
    {
      "midi": 62,
      "time": 67.083,
      "duration": 1.25,
      "velocity": 0.71,
      "hand": "right"
    },
    {
      "midi": 66,
      "time": 67.083,
      "duration": 0.833,
      "velocity": 0.71,
      "hand": "right"
    },
    {
      "midi": 71,
      "time": 67.083,
      "duration": 1.25,
      "velocity": 0.71,
      "hand": "right"
    },
    {
      "midi": 74,
      "time": 67.083,
      "duration": 1.25,
      "velocity": 0.71,
      "hand": "right"
    },
    {
      "midi": 78,
      "time": 67.083,
      "duration": 0.833,
      "velocity": 0.71,
      "hand": "right"
    },
    {
      "midi": 64,
      "time": 67.917,
      "duration": 0.417,
      "velocity": 0.71,
      "hand": "right"
    },
    {
      "midi": 76,
      "time": 67.917,
      "duration": 0.417,
      "velocity": 0.71,
      "hand": "right"
    },
    {
      "midi": 45,
      "time": 68.333,
      "duration": 0.417,
      "velocity": 0.71,
      "hand": "left"
    },
    {
      "midi": 52,
      "time": 68.333,
      "duration": 0.417,
      "velocity": 0.71,
      "hand": "left"
    },
    {
      "midi": 57,
      "time": 68.333,
      "duration": 0.417,
      "velocity": 0.71,
      "hand": "left"
    },
    {
      "midi": 61,
      "time": 68.333,
      "duration": 0.417,
      "velocity": 0.71,
      "hand": "right"
    },
    {
      "midi": 66,
      "time": 68.333,
      "duration": 0.208,
      "velocity": 0.71,
      "hand": "right"
    },
    {
      "midi": 64,
      "time": 68.542,
      "duration": 0.208,
      "velocity": 0.71,
      "hand": "right"
    },
    {
      "midi": 52,
      "time": 68.75,
      "duration": 1.25,
      "velocity": 0.71,
      "hand": "left"
    },
    {
      "midi": 57,
      "time": 68.75,
      "duration": 1.25,
      "velocity": 0.71,
      "hand": "left"
    },
    {
      "midi": 61,
      "time": 68.75,
      "duration": 1.25,
      "velocity": 0.71,
      "hand": "right"
    },
    {
      "midi": 64,
      "time": 68.75,
      "duration": 1.25,
      "velocity": 0.71,
      "hand": "right"
    },
    {
      "midi": 69,
      "time": 68.75,
      "duration": 1.25,
      "velocity": 0.71,
      "hand": "right"
    },
    {
      "midi": 73,
      "time": 68.75,
      "duration": 1.25,
      "velocity": 0.71,
      "hand": "right"
    },
    {
      "midi": 80,
      "time": 68.75,
      "duration": 0.625,
      "velocity": 0.71,
      "hand": "right"
    },
    {
      "midi": 83,
      "time": 69.375,
      "duration": 0.208,
      "velocity": 0.71,
      "hand": "right"
    },
    {
      "midi": 81,
      "time": 69.583,
      "duration": 0.208,
      "velocity": 0.71,
      "hand": "right"
    },
    {
      "midi": 78,
      "time": 69.792,
      "duration": 0.208,
      "velocity": 0.71,
      "hand": "right"
    },
    {
      "midi": 59,
      "time": 70,
      "duration": 0.208,
      "velocity": 0.71,
      "hand": "left"
    },
    {
      "midi": 66,
      "time": 70,
      "duration": 1.25,
      "velocity": 0.71,
      "hand": "right"
    },
    {
      "midi": 69,
      "time": 70,
      "duration": 1.25,
      "velocity": 0.71,
      "hand": "right"
    },
    {
      "midi": 76,
      "time": 70,
      "duration": 0.104,
      "velocity": 0.71,
      "hand": "right"
    },
    {
      "midi": 74,
      "time": 70.104,
      "duration": 0.104,
      "velocity": 0.71,
      "hand": "right"
    },
    {
      "midi": 61,
      "time": 70.208,
      "duration": 0.208,
      "velocity": 0.71,
      "hand": "right"
    },
    {
      "midi": 76,
      "time": 70.313,
      "duration": 0.104,
      "velocity": 0.71,
      "hand": "right"
    },
    {
      "midi": 62,
      "time": 70.417,
      "duration": 1.25,
      "velocity": 0.71,
      "hand": "right"
    },
    {
      "midi": 73,
      "time": 70.417,
      "duration": 0.625,
      "velocity": 0.71,
      "hand": "right"
    },
    {
      "midi": 71,
      "time": 71.042,
      "duration": 0.208,
      "velocity": 0.71,
      "hand": "right"
    },
    {
      "midi": 65,
      "time": 71.25,
      "duration": 0.417,
      "velocity": 0.71,
      "hand": "right"
    },
    {
      "midi": 68,
      "time": 71.25,
      "duration": 0.417,
      "velocity": 0.71,
      "hand": "right"
    },
    {
      "midi": 71,
      "time": 71.25,
      "duration": 0.208,
      "velocity": 0.71,
      "hand": "right"
    },
    {
      "midi": 73,
      "time": 71.458,
      "duration": 0.208,
      "velocity": 0.71,
      "hand": "right"
    },
    {
      "midi": 54,
      "time": 71.667,
      "duration": 0.417,
      "velocity": 0.71,
      "hand": "left"
    },
    {
      "midi": 61,
      "time": 71.667,
      "duration": 0.417,
      "velocity": 0.71,
      "hand": "right"
    },
    {
      "midi": 64,
      "time": 71.667,
      "duration": 0.833,
      "velocity": 0.71,
      "hand": "right"
    },
    {
      "midi": 69,
      "time": 71.667,
      "duration": 0.417,
      "velocity": 0.71,
      "hand": "right"
    },
    {
      "midi": 47,
      "time": 72.083,
      "duration": 0.833,
      "velocity": 0.71,
      "hand": "left"
    },
    {
      "midi": 57,
      "time": 72.083,
      "duration": 0.833,
      "velocity": 0.71,
      "hand": "left"
    },
    {
      "midi": 66,
      "time": 72.083,
      "duration": 0.625,
      "velocity": 0.71,
      "hand": "right"
    },
    {
      "midi": 63,
      "time": 72.5,
      "duration": 0.417,
      "velocity": 0.71,
      "hand": "right"
    },
    {
      "midi": 66,
      "time": 72.708,
      "duration": 0.208,
      "velocity": 0.71,
      "hand": "right"
    },
    {
      "midi": 45,
      "time": 72.917,
      "duration": 0.417,
      "velocity": 0.71,
      "hand": "left"
    },
    {
      "midi": 51,
      "time": 72.917,
      "duration": 0.417,
      "velocity": 0.71,
      "hand": "left"
    },
    {
      "midi": 61,
      "time": 72.917,
      "duration": 0.417,
      "velocity": 0.71,
      "hand": "right"
    },
    {
      "midi": 66,
      "time": 72.917,
      "duration": 0.208,
      "velocity": 0.71,
      "hand": "right"
    },
    {
      "midi": 68,
      "time": 73.125,
      "duration": 0.208,
      "velocity": 0.71,
      "hand": "right"
    },
    {
      "midi": 44,
      "time": 73.333,
      "duration": 0.417,
      "velocity": 0.71,
      "hand": "left"
    },
    {
      "midi": 52,
      "time": 73.333,
      "duration": 0.417,
      "velocity": 0.71,
      "hand": "left"
    },
    {
      "midi": 59,
      "time": 73.333,
      "duration": 0.417,
      "velocity": 0.71,
      "hand": "left"
    },
    {
      "midi": 66,
      "time": 73.333,
      "duration": 0.104,
      "velocity": 0.71,
      "hand": "right"
    },
    {
      "midi": 64,
      "time": 73.438,
      "duration": 0.104,
      "velocity": 0.71,
      "hand": "right"
    },
    {
      "midi": 42,
      "time": 73.75,
      "duration": 0.833,
      "velocity": 0.71,
      "hand": "left"
    },
    {
      "midi": 52,
      "time": 73.75,
      "duration": 0.833,
      "velocity": 0.71,
      "hand": "left"
    },
    {
      "midi": 57,
      "time": 73.75,
      "duration": 0.833,
      "velocity": 0.71,
      "hand": "left"
    },
    {
      "midi": 61,
      "time": 73.75,
      "duration": 0.833,
      "velocity": 0.71,
      "hand": "right"
    },
    {
      "midi": 35,
      "time": 74.583,
      "duration": 0.417,
      "velocity": 0.71,
      "hand": "left"
    },
    {
      "midi": 47,
      "time": 74.583,
      "duration": 0.417,
      "velocity": 0.71,
      "hand": "left"
    },
    {
      "midi": 57,
      "time": 74.583,
      "duration": 0.417,
      "velocity": 0.71,
      "hand": "left"
    },
    {
      "midi": 61,
      "time": 74.583,
      "duration": 0.417,
      "velocity": 0.71,
      "hand": "right"
    },
    {
      "midi": 64,
      "time": 74.583,
      "duration": 0.417,
      "velocity": 0.71,
      "hand": "right"
    },
    {
      "midi": 40,
      "time": 75,
      "duration": 0.833,
      "velocity": 0.71,
      "hand": "left"
    },
    {
      "midi": 47,
      "time": 75,
      "duration": 0.833,
      "velocity": 0.71,
      "hand": "left"
    },
    {
      "midi": 57,
      "time": 75,
      "duration": 0.417,
      "velocity": 0.71,
      "hand": "left"
    },
    {
      "midi": 59,
      "time": 75,
      "duration": 1.25,
      "velocity": 0.71,
      "hand": "left"
    },
    {
      "midi": 64,
      "time": 75,
      "duration": 1.25,
      "velocity": 0.71,
      "hand": "right"
    },
    {
      "midi": 56,
      "time": 75.417,
      "duration": 0.833,
      "velocity": 0.71,
      "hand": "left"
    },
    {
      "midi": 40,
      "time": 75.833,
      "duration": 0.417,
      "velocity": 0.71,
      "hand": "left"
    },
    {
      "midi": 52,
      "time": 76.25,
      "duration": 0.417,
      "velocity": 0.71,
      "hand": "left"
    },
    {
      "midi": 50,
      "time": 76.667,
      "duration": 0.104,
      "velocity": 0.71,
      "hand": "left"
    },
    {
      "midi": 54,
      "time": 76.771,
      "duration": 0.104,
      "velocity": 0.71,
      "hand": "left"
    },
    {
      "midi": 57,
      "time": 76.979,
      "duration": 0.104,
      "velocity": 0.71,
      "hand": "left"
    },
    {
      "midi": 42,
      "time": 77.083,
      "duration": 0.833,
      "velocity": 0.71,
      "hand": "left"
    },
    {
      "midi": 61,
      "time": 77.083,
      "duration": 0.104,
      "velocity": 0.71,
      "hand": "right"
    },
    {
      "midi": 59,
      "time": 77.188,
      "duration": 0.104,
      "velocity": 0.71,
      "hand": "left"
    },
    {
      "midi": 57,
      "time": 77.396,
      "duration": 0.104,
      "velocity": 0.71,
      "hand": "left"
    },
    {
      "midi": 56,
      "time": 77.5,
      "duration": 0.104,
      "velocity": 0.71,
      "hand": "left"
    },
    {
      "midi": 59,
      "time": 77.604,
      "duration": 0.104,
      "velocity": 0.71,
      "hand": "left"
    },
    {
      "midi": 62,
      "time": 77.813,
      "duration": 0.104,
      "velocity": 0.71,
      "hand": "right"
    },
    {
      "midi": 40,
      "time": 77.917,
      "duration": 0.417,
      "velocity": 0.71,
      "hand": "left"
    },
    {
      "midi": 66,
      "time": 77.917,
      "duration": 0.104,
      "velocity": 0.71,
      "hand": "right"
    },
    {
      "midi": 64,
      "time": 78.021,
      "duration": 0.104,
      "velocity": 0.71,
      "hand": "right"
    },
    {
      "midi": 62,
      "time": 78.229,
      "duration": 0.104,
      "velocity": 0.71,
      "hand": "right"
    },
    {
      "midi": 61,
      "time": 78.333,
      "duration": 0.104,
      "velocity": 0.71,
      "hand": "right"
    },
    {
      "midi": 64,
      "time": 78.438,
      "duration": 0.104,
      "velocity": 0.71,
      "hand": "right"
    },
    {
      "midi": 68,
      "time": 78.646,
      "duration": 0.104,
      "velocity": 0.71,
      "hand": "right"
    },
    {
      "midi": 33,
      "time": 78.75,
      "duration": 0.833,
      "velocity": 0.71,
      "hand": "left"
    },
    {
      "midi": 45,
      "time": 78.75,
      "duration": 0.833,
      "velocity": 0.71,
      "hand": "left"
    },
    {
      "midi": 71,
      "time": 78.75,
      "duration": 0.104,
      "velocity": 0.71,
      "hand": "right"
    },
    {
      "midi": 69,
      "time": 78.854,
      "duration": 0.104,
      "velocity": 0.71,
      "hand": "right"
    },
    {
      "midi": 68,
      "time": 79.063,
      "duration": 0.104,
      "velocity": 0.71,
      "hand": "right"
    },
    {
      "midi": 66,
      "time": 79.167,
      "duration": 0.104,
      "velocity": 0.71,
      "hand": "right"
    },
    {
      "midi": 69,
      "time": 79.271,
      "duration": 0.104,
      "velocity": 0.71,
      "hand": "right"
    },
    {
      "midi": 73,
      "time": 79.479,
      "duration": 0.104,
      "velocity": 0.71,
      "hand": "right"
    },
    {
      "midi": 38,
      "time": 79.583,
      "duration": 0.417,
      "velocity": 0.71,
      "hand": "left"
    },
    {
      "midi": 50,
      "time": 79.583,
      "duration": 0.417,
      "velocity": 0.71,
      "hand": "left"
    },
    {
      "midi": 76,
      "time": 79.583,
      "duration": 0.104,
      "velocity": 0.71,
      "hand": "right"
    },
    {
      "midi": 74,
      "time": 79.688,
      "duration": 0.104,
      "velocity": 0.71,
      "hand": "right"
    },
    {
      "midi": 73,
      "time": 79.896,
      "duration": 0.104,
      "velocity": 0.71,
      "hand": "right"
    },
    {
      "midi": 71,
      "time": 80,
      "duration": 0.104,
      "velocity": 0.71,
      "hand": "right"
    },
    {
      "midi": 74,
      "time": 80.104,
      "duration": 0.104,
      "velocity": 0.71,
      "hand": "right"
    },
    {
      "midi": 78,
      "time": 80.313,
      "duration": 0.104,
      "velocity": 0.71,
      "hand": "right"
    },
    {
      "midi": 35,
      "time": 80.417,
      "duration": 0.417,
      "velocity": 0.71,
      "hand": "left"
    },
    {
      "midi": 47,
      "time": 80.417,
      "duration": 0.417,
      "velocity": 0.71,
      "hand": "left"
    },
    {
      "midi": 81,
      "time": 80.417,
      "duration": 0.625,
      "velocity": 0.71,
      "hand": "right"
    },
    {
      "midi": 54,
      "time": 80.833,
      "duration": 0.417,
      "velocity": 0.71,
      "hand": "left"
    },
    {
      "midi": 59,
      "time": 80.833,
      "duration": 0.417,
      "velocity": 0.71,
      "hand": "left"
    },
    {
      "midi": 62,
      "time": 80.833,
      "duration": 0.417,
      "velocity": 0.71,
      "hand": "right"
    },
    {
      "midi": 66,
      "time": 80.833,
      "duration": 0.417,
      "velocity": 0.71,
      "hand": "right"
    },
    {
      "midi": 71,
      "time": 80.833,
      "duration": 0.417,
      "velocity": 0.71,
      "hand": "right"
    },
    {
      "midi": 74,
      "time": 80.833,
      "duration": 0.417,
      "velocity": 0.71,
      "hand": "right"
    },
    {
      "midi": 80,
      "time": 81.042,
      "duration": 0.208,
      "velocity": 0.71,
      "hand": "right"
    },
    {
      "midi": 40,
      "time": 81.25,
      "duration": 0.417,
      "velocity": 0.71,
      "hand": "left"
    },
    {
      "midi": 52,
      "time": 81.25,
      "duration": 0.417,
      "velocity": 0.71,
      "hand": "left"
    },
    {
      "midi": 68,
      "time": 81.25,
      "duration": 0.417,
      "velocity": 0.71,
      "hand": "right"
    },
    {
      "midi": 74,
      "time": 81.25,
      "duration": 0.417,
      "velocity": 0.71,
      "hand": "right"
    },
    {
      "midi": 78,
      "time": 81.25,
      "duration": 0.208,
      "velocity": 0.71,
      "hand": "right"
    },
    {
      "midi": 76,
      "time": 81.458,
      "duration": 0.208,
      "velocity": 0.71,
      "hand": "right"
    },
    {
      "midi": 33,
      "time": 81.667,
      "duration": 0.417,
      "velocity": 0.71,
      "hand": "left"
    },
    {
      "midi": 45,
      "time": 81.667,
      "duration": 0.417,
      "velocity": 0.71,
      "hand": "left"
    },
    {
      "midi": 69,
      "time": 81.667,
      "duration": 0.833,
      "velocity": 0.71,
      "hand": "right"
    },
    {
      "midi": 73,
      "time": 81.667,
      "duration": 0.833,
      "velocity": 0.71,
      "hand": "right"
    },
    {
      "midi": 78,
      "time": 81.667,
      "duration": 0.208,
      "velocity": 0.71,
      "hand": "right"
    },
    {
      "midi": 76,
      "time": 81.875,
      "duration": 0.208,
      "velocity": 0.71,
      "hand": "right"
    },
    {
      "midi": 52,
      "time": 82.083,
      "duration": 0.417,
      "velocity": 0.71,
      "hand": "left"
    },
    {
      "midi": 74,
      "time": 82.083,
      "duration": 0.208,
      "velocity": 0.71,
      "hand": "right"
    },
    {
      "midi": 66,
      "time": 82.5,
      "duration": 0.208,
      "velocity": 0.71,
      "hand": "right"
    },
    {
      "midi": 69,
      "time": 82.5,
      "duration": 0.833,
      "velocity": 0.71,
      "hand": "right"
    },
    {
      "midi": 74,
      "time": 82.5,
      "duration": 0.208,
      "velocity": 0.71,
      "hand": "right"
    },
    {
      "midi": 64,
      "time": 82.708,
      "duration": 0.208,
      "velocity": 0.71,
      "hand": "right"
    },
    {
      "midi": 73,
      "time": 82.708,
      "duration": 0.208,
      "velocity": 0.71,
      "hand": "right"
    },
    {
      "midi": 62,
      "time": 82.917,
      "duration": 0.208,
      "velocity": 0.71,
      "hand": "right"
    },
    {
      "midi": 71,
      "time": 82.917,
      "duration": 0.208,
      "velocity": 0.71,
      "hand": "right"
    },
    {
      "midi": 61,
      "time": 83.125,
      "duration": 0.208,
      "velocity": 0.71,
      "hand": "right"
    },
    {
      "midi": 50,
      "time": 83.333,
      "duration": 0.104,
      "velocity": 0.71,
      "hand": "left"
    },
    {
      "midi": 54,
      "time": 83.438,
      "duration": 0.104,
      "velocity": 0.71,
      "hand": "left"
    },
    {
      "midi": 57,
      "time": 83.646,
      "duration": 0.104,
      "velocity": 0.71,
      "hand": "left"
    },
    {
      "midi": 42,
      "time": 83.75,
      "duration": 0.833,
      "velocity": 0.71,
      "hand": "left"
    },
    {
      "midi": 61,
      "time": 83.75,
      "duration": 0.104,
      "velocity": 0.71,
      "hand": "right"
    },
    {
      "midi": 59,
      "time": 83.854,
      "duration": 0.104,
      "velocity": 0.71,
      "hand": "left"
    },
    {
      "midi": 57,
      "time": 84.063,
      "duration": 0.104,
      "velocity": 0.71,
      "hand": "left"
    },
    {
      "midi": 56,
      "time": 84.167,
      "duration": 0.104,
      "velocity": 0.71,
      "hand": "left"
    },
    {
      "midi": 59,
      "time": 84.271,
      "duration": 0.104,
      "velocity": 0.71,
      "hand": "left"
    },
    {
      "midi": 62,
      "time": 84.479,
      "duration": 0.104,
      "velocity": 0.71,
      "hand": "right"
    },
    {
      "midi": 40,
      "time": 84.583,
      "duration": 0.417,
      "velocity": 0.71,
      "hand": "left"
    },
    {
      "midi": 66,
      "time": 84.583,
      "duration": 0.104,
      "velocity": 0.71,
      "hand": "right"
    },
    {
      "midi": 64,
      "time": 84.688,
      "duration": 0.104,
      "velocity": 0.71,
      "hand": "right"
    },
    {
      "midi": 62,
      "time": 84.896,
      "duration": 0.104,
      "velocity": 0.71,
      "hand": "right"
    },
    {
      "midi": 61,
      "time": 85,
      "duration": 0.104,
      "velocity": 0.71,
      "hand": "right"
    },
    {
      "midi": 64,
      "time": 85.104,
      "duration": 0.104,
      "velocity": 0.71,
      "hand": "right"
    },
    {
      "midi": 68,
      "time": 85.313,
      "duration": 0.104,
      "velocity": 0.71,
      "hand": "right"
    },
    {
      "midi": 33,
      "time": 85.417,
      "duration": 0.833,
      "velocity": 0.71,
      "hand": "left"
    },
    {
      "midi": 45,
      "time": 85.417,
      "duration": 0.833,
      "velocity": 0.71,
      "hand": "left"
    },
    {
      "midi": 71,
      "time": 85.417,
      "duration": 0.104,
      "velocity": 0.71,
      "hand": "right"
    },
    {
      "midi": 69,
      "time": 85.521,
      "duration": 0.104,
      "velocity": 0.71,
      "hand": "right"
    },
    {
      "midi": 68,
      "time": 85.729,
      "duration": 0.104,
      "velocity": 0.71,
      "hand": "right"
    },
    {
      "midi": 66,
      "time": 85.833,
      "duration": 0.104,
      "velocity": 0.71,
      "hand": "right"
    },
    {
      "midi": 69,
      "time": 85.938,
      "duration": 0.104,
      "velocity": 0.71,
      "hand": "right"
    },
    {
      "midi": 73,
      "time": 86.146,
      "duration": 0.104,
      "velocity": 0.71,
      "hand": "right"
    },
    {
      "midi": 38,
      "time": 86.25,
      "duration": 0.417,
      "velocity": 0.71,
      "hand": "left"
    },
    {
      "midi": 50,
      "time": 86.25,
      "duration": 0.417,
      "velocity": 0.71,
      "hand": "left"
    },
    {
      "midi": 76,
      "time": 86.25,
      "duration": 0.104,
      "velocity": 0.71,
      "hand": "right"
    },
    {
      "midi": 74,
      "time": 86.354,
      "duration": 0.104,
      "velocity": 0.71,
      "hand": "right"
    },
    {
      "midi": 73,
      "time": 86.563,
      "duration": 0.104,
      "velocity": 0.71,
      "hand": "right"
    },
    {
      "midi": 71,
      "time": 86.667,
      "duration": 0.104,
      "velocity": 0.71,
      "hand": "right"
    },
    {
      "midi": 74,
      "time": 86.771,
      "duration": 0.104,
      "velocity": 0.71,
      "hand": "right"
    },
    {
      "midi": 78,
      "time": 86.979,
      "duration": 0.104,
      "velocity": 0.71,
      "hand": "right"
    },
    {
      "midi": 35,
      "time": 87.083,
      "duration": 0.208,
      "velocity": 0.71,
      "hand": "left"
    },
    {
      "midi": 47,
      "time": 87.083,
      "duration": 0.208,
      "velocity": 0.71,
      "hand": "left"
    },
    {
      "midi": 81,
      "time": 87.083,
      "duration": 0.625,
      "velocity": 0.71,
      "hand": "right"
    },
    {
      "midi": 54,
      "time": 87.5,
      "duration": 0.833,
      "velocity": 0.71,
      "hand": "left"
    },
    {
      "midi": 59,
      "time": 87.5,
      "duration": 0.833,
      "velocity": 0.71,
      "hand": "left"
    },
    {
      "midi": 62,
      "time": 87.5,
      "duration": 0.833,
      "velocity": 0.71,
      "hand": "right"
    },
    {
      "midi": 66,
      "time": 87.5,
      "duration": 0.833,
      "velocity": 0.71,
      "hand": "right"
    },
    {
      "midi": 71,
      "time": 87.5,
      "duration": 0.833,
      "velocity": 0.71,
      "hand": "right"
    },
    {
      "midi": 74,
      "time": 87.5,
      "duration": 0.833,
      "velocity": 0.71,
      "hand": "right"
    },
    {
      "midi": 80,
      "time": 87.708,
      "duration": 0.208,
      "velocity": 0.71,
      "hand": "right"
    },
    {
      "midi": 78,
      "time": 87.917,
      "duration": 0.208,
      "velocity": 0.71,
      "hand": "right"
    },
    {
      "midi": 80,
      "time": 88.125,
      "duration": 0.208,
      "velocity": 0.71,
      "hand": "right"
    },
    {
      "midi": 71,
      "time": 88.333,
      "duration": 0.104,
      "velocity": 0.71,
      "hand": "right"
    },
    {
      "midi": 74,
      "time": 88.438,
      "duration": 0.104,
      "velocity": 0.71,
      "hand": "right"
    },
    {
      "midi": 78,
      "time": 88.646,
      "duration": 0.104,
      "velocity": 0.71,
      "hand": "right"
    },
    {
      "midi": 38,
      "time": 88.75,
      "duration": 0.208,
      "velocity": 0.71,
      "hand": "left"
    },
    {
      "midi": 50,
      "time": 88.75,
      "duration": 0.208,
      "velocity": 0.71,
      "hand": "left"
    },
    {
      "midi": 81,
      "time": 88.75,
      "duration": 0.625,
      "velocity": 0.71,
      "hand": "right"
    },
    {
      "midi": 54,
      "time": 89.167,
      "duration": 0.833,
      "velocity": 0.71,
      "hand": "left"
    },
    {
      "midi": 59,
      "time": 89.167,
      "duration": 0.833,
      "velocity": 0.71,
      "hand": "left"
    },
    {
      "midi": 62,
      "time": 89.167,
      "duration": 0.833,
      "velocity": 0.71,
      "hand": "right"
    },
    {
      "midi": 66,
      "time": 89.167,
      "duration": 0.833,
      "velocity": 0.71,
      "hand": "right"
    },
    {
      "midi": 71,
      "time": 89.167,
      "duration": 0.833,
      "velocity": 0.71,
      "hand": "right"
    },
    {
      "midi": 74,
      "time": 89.167,
      "duration": 0.833,
      "velocity": 0.71,
      "hand": "right"
    },
    {
      "midi": 80,
      "time": 89.375,
      "duration": 0.208,
      "velocity": 0.71,
      "hand": "right"
    },
    {
      "midi": 78,
      "time": 89.583,
      "duration": 0.208,
      "velocity": 0.71,
      "hand": "right"
    },
    {
      "midi": 80,
      "time": 89.792,
      "duration": 0.208,
      "velocity": 0.71,
      "hand": "right"
    },
    {
      "midi": 52,
      "time": 90,
      "duration": 0.833,
      "velocity": 0.71,
      "hand": "left"
    },
    {
      "midi": 62,
      "time": 90,
      "duration": 1.667,
      "velocity": 0.71,
      "hand": "right"
    },
    {
      "midi": 68,
      "time": 90,
      "duration": 0.833,
      "velocity": 0.71,
      "hand": "right"
    },
    {
      "midi": 76,
      "time": 90,
      "duration": 0.104,
      "velocity": 0.71,
      "hand": "right"
    },
    {
      "midi": 74,
      "time": 90.104,
      "duration": 0.104,
      "velocity": 0.71,
      "hand": "right"
    },
    {
      "midi": 76,
      "time": 90.313,
      "duration": 0.104,
      "velocity": 0.71,
      "hand": "right"
    },
    {
      "midi": 73,
      "time": 90.417,
      "duration": 0.625,
      "velocity": 0.71,
      "hand": "right"
    },
    {
      "midi": 54,
      "time": 90.833,
      "duration": 0.417,
      "velocity": 0.71,
      "hand": "left"
    },
    {
      "midi": 66,
      "time": 90.833,
      "duration": 0.417,
      "velocity": 0.71,
      "hand": "right"
    },
    {
      "midi": 71,
      "time": 91.042,
      "duration": 0.208,
      "velocity": 0.71,
      "hand": "right"
    },
    {
      "midi": 56,
      "time": 91.25,
      "duration": 0.417,
      "velocity": 0.71,
      "hand": "left"
    },
    {
      "midi": 65,
      "time": 91.25,
      "duration": 0.417,
      "velocity": 0.71,
      "hand": "right"
    },
    {
      "midi": 71,
      "time": 91.25,
      "duration": 0.208,
      "velocity": 0.71,
      "hand": "right"
    },
    {
      "midi": 73,
      "time": 91.458,
      "duration": 0.208,
      "velocity": 0.71,
      "hand": "right"
    },
    {
      "midi": 57,
      "time": 91.667,
      "duration": 0.833,
      "velocity": 0.71,
      "hand": "left"
    },
    {
      "midi": 61,
      "time": 91.667,
      "duration": 0.833,
      "velocity": 0.71,
      "hand": "right"
    },
    {
      "midi": 64,
      "time": 91.667,
      "duration": 0.833,
      "velocity": 0.71,
      "hand": "right"
    },
    {
      "midi": 69,
      "time": 91.667,
      "duration": 0.417,
      "velocity": 0.71,
      "hand": "right"
    },
    {
      "midi": 66,
      "time": 92.083,
      "duration": 0.833,
      "velocity": 0.71,
      "hand": "right"
    },
    {
      "midi": 47,
      "time": 92.5,
      "duration": 0.833,
      "velocity": 0.71,
      "hand": "left"
    },
    {
      "midi": 57,
      "time": 92.5,
      "duration": 0.833,
      "velocity": 0.71,
      "hand": "left"
    },
    {
      "midi": 63,
      "time": 92.5,
      "duration": 0.833,
      "velocity": 0.71,
      "hand": "right"
    },
    {
      "midi": 68,
      "time": 92.917,
      "duration": 0.417,
      "velocity": 0.71,
      "hand": "right"
    },
    {
      "midi": 40,
      "time": 93.333,
      "duration": 0.417,
      "velocity": 0.71,
      "hand": "left"
    },
    {
      "midi": 47,
      "time": 93.333,
      "duration": 0.417,
      "velocity": 0.71,
      "hand": "left"
    },
    {
      "midi": 56,
      "time": 93.333,
      "duration": 0.417,
      "velocity": 0.71,
      "hand": "left"
    },
    {
      "midi": 62,
      "time": 93.333,
      "duration": 0.417,
      "velocity": 0.71,
      "hand": "right"
    },
    {
      "midi": 66,
      "time": 93.333,
      "duration": 0.208,
      "velocity": 0.71,
      "hand": "right"
    },
    {
      "midi": 64,
      "time": 93.542,
      "duration": 0.208,
      "velocity": 0.71,
      "hand": "right"
    },
    {
      "midi": 56,
      "time": 93.75,
      "duration": 1.25,
      "velocity": 0.71,
      "hand": "left"
    },
    {
      "midi": 62,
      "time": 93.75,
      "duration": 1.25,
      "velocity": 0.71,
      "hand": "right"
    },
    {
      "midi": 66,
      "time": 93.75,
      "duration": 0.833,
      "velocity": 0.71,
      "hand": "right"
    },
    {
      "midi": 71,
      "time": 93.75,
      "duration": 1.25,
      "velocity": 0.71,
      "hand": "right"
    },
    {
      "midi": 74,
      "time": 93.75,
      "duration": 1.25,
      "velocity": 0.71,
      "hand": "right"
    },
    {
      "midi": 78,
      "time": 93.75,
      "duration": 0.833,
      "velocity": 0.71,
      "hand": "right"
    },
    {
      "midi": 64,
      "time": 94.583,
      "duration": 0.417,
      "velocity": 0.71,
      "hand": "right"
    },
    {
      "midi": 76,
      "time": 94.583,
      "duration": 0.417,
      "velocity": 0.71,
      "hand": "right"
    },
    {
      "midi": 45,
      "time": 95,
      "duration": 0.417,
      "velocity": 0.71,
      "hand": "left"
    },
    {
      "midi": 52,
      "time": 95,
      "duration": 0.417,
      "velocity": 0.71,
      "hand": "left"
    },
    {
      "midi": 57,
      "time": 95,
      "duration": 0.417,
      "velocity": 0.71,
      "hand": "left"
    },
    {
      "midi": 61,
      "time": 95,
      "duration": 0.417,
      "velocity": 0.71,
      "hand": "right"
    },
    {
      "midi": 66,
      "time": 95,
      "duration": 0.208,
      "velocity": 0.71,
      "hand": "right"
    },
    {
      "midi": 64,
      "time": 95.208,
      "duration": 0.208,
      "velocity": 0.71,
      "hand": "right"
    },
    {
      "midi": 52,
      "time": 95.417,
      "duration": 1.25,
      "velocity": 0.71,
      "hand": "left"
    },
    {
      "midi": 57,
      "time": 95.417,
      "duration": 1.25,
      "velocity": 0.71,
      "hand": "left"
    },
    {
      "midi": 61,
      "time": 95.417,
      "duration": 1.25,
      "velocity": 0.71,
      "hand": "right"
    },
    {
      "midi": 64,
      "time": 95.417,
      "duration": 1.25,
      "velocity": 0.71,
      "hand": "right"
    },
    {
      "midi": 69,
      "time": 95.417,
      "duration": 1.25,
      "velocity": 0.71,
      "hand": "right"
    },
    {
      "midi": 73,
      "time": 95.417,
      "duration": 1.25,
      "velocity": 0.71,
      "hand": "right"
    },
    {
      "midi": 80,
      "time": 95.417,
      "duration": 0.625,
      "velocity": 0.71,
      "hand": "right"
    },
    {
      "midi": 83,
      "time": 96.042,
      "duration": 0.208,
      "velocity": 0.71,
      "hand": "right"
    },
    {
      "midi": 81,
      "time": 96.25,
      "duration": 0.208,
      "velocity": 0.71,
      "hand": "right"
    },
    {
      "midi": 78,
      "time": 96.458,
      "duration": 0.208,
      "velocity": 0.71,
      "hand": "right"
    },
    {
      "midi": 59,
      "time": 96.667,
      "duration": 0.208,
      "velocity": 0.71,
      "hand": "left"
    },
    {
      "midi": 66,
      "time": 96.667,
      "duration": 1.25,
      "velocity": 0.71,
      "hand": "right"
    },
    {
      "midi": 69,
      "time": 96.667,
      "duration": 1.25,
      "velocity": 0.71,
      "hand": "right"
    },
    {
      "midi": 76,
      "time": 96.667,
      "duration": 0.104,
      "velocity": 0.71,
      "hand": "right"
    },
    {
      "midi": 74,
      "time": 96.771,
      "duration": 0.104,
      "velocity": 0.71,
      "hand": "right"
    },
    {
      "midi": 61,
      "time": 96.875,
      "duration": 0.208,
      "velocity": 0.71,
      "hand": "right"
    },
    {
      "midi": 76,
      "time": 96.979,
      "duration": 0.104,
      "velocity": 0.71,
      "hand": "right"
    },
    {
      "midi": 62,
      "time": 97.083,
      "duration": 1.25,
      "velocity": 0.71,
      "hand": "right"
    },
    {
      "midi": 73,
      "time": 97.083,
      "duration": 0.625,
      "velocity": 0.71,
      "hand": "right"
    },
    {
      "midi": 71,
      "time": 97.708,
      "duration": 0.208,
      "velocity": 0.71,
      "hand": "right"
    },
    {
      "midi": 65,
      "time": 97.917,
      "duration": 0.417,
      "velocity": 0.71,
      "hand": "right"
    },
    {
      "midi": 68,
      "time": 97.917,
      "duration": 0.417,
      "velocity": 0.71,
      "hand": "right"
    },
    {
      "midi": 71,
      "time": 97.917,
      "duration": 0.208,
      "velocity": 0.71,
      "hand": "right"
    },
    {
      "midi": 73,
      "time": 98.125,
      "duration": 0.208,
      "velocity": 0.71,
      "hand": "right"
    },
    {
      "midi": 54,
      "time": 98.333,
      "duration": 0.833,
      "velocity": 0.71,
      "hand": "left"
    },
    {
      "midi": 61,
      "time": 98.333,
      "duration": 0.833,
      "velocity": 0.71,
      "hand": "right"
    },
    {
      "midi": 64,
      "time": 98.333,
      "duration": 0.833,
      "velocity": 0.71,
      "hand": "right"
    },
    {
      "midi": 69,
      "time": 98.333,
      "duration": 0.417,
      "velocity": 0.71,
      "hand": "right"
    },
    {
      "midi": 68,
      "time": 98.75,
      "duration": 0.625,
      "velocity": 0.71,
      "hand": "right"
    },
    {
      "midi": 47,
      "time": 99.167,
      "duration": 0.417,
      "velocity": 0.71,
      "hand": "left"
    },
    {
      "midi": 57,
      "time": 99.167,
      "duration": 0.417,
      "velocity": 0.71,
      "hand": "left"
    },
    {
      "midi": 63,
      "time": 99.167,
      "duration": 0.417,
      "velocity": 0.71,
      "hand": "right"
    },
    {
      "midi": 66,
      "time": 99.375,
      "duration": 0.208,
      "velocity": 0.71,
      "hand": "right"
    },
    {
      "midi": 45,
      "time": 99.583,
      "duration": 0.417,
      "velocity": 0.71,
      "hand": "left"
    },
    {
      "midi": 51,
      "time": 99.583,
      "duration": 0.417,
      "velocity": 0.71,
      "hand": "left"
    },
    {
      "midi": 61,
      "time": 99.583,
      "duration": 0.417,
      "velocity": 0.71,
      "hand": "right"
    },
    {
      "midi": 66,
      "time": 99.583,
      "duration": 0.208,
      "velocity": 0.71,
      "hand": "right"
    },
    {
      "midi": 68,
      "time": 99.792,
      "duration": 0.208,
      "velocity": 0.71,
      "hand": "right"
    },
    {
      "midi": 44,
      "time": 100,
      "duration": 0.417,
      "velocity": 0.71,
      "hand": "left"
    },
    {
      "midi": 52,
      "time": 100,
      "duration": 0.417,
      "velocity": 0.71,
      "hand": "left"
    },
    {
      "midi": 59,
      "time": 100,
      "duration": 0.417,
      "velocity": 0.71,
      "hand": "left"
    },
    {
      "midi": 66,
      "time": 100,
      "duration": 0.104,
      "velocity": 0.71,
      "hand": "right"
    },
    {
      "midi": 64,
      "time": 100.104,
      "duration": 0.104,
      "velocity": 0.71,
      "hand": "right"
    },
    {
      "midi": 42,
      "time": 100.417,
      "duration": 0.833,
      "velocity": 0.71,
      "hand": "left"
    },
    {
      "midi": 52,
      "time": 100.417,
      "duration": 0.833,
      "velocity": 0.71,
      "hand": "left"
    },
    {
      "midi": 57,
      "time": 100.417,
      "duration": 0.833,
      "velocity": 0.71,
      "hand": "left"
    },
    {
      "midi": 61,
      "time": 100.417,
      "duration": 0.833,
      "velocity": 0.71,
      "hand": "right"
    },
    {
      "midi": 35,
      "time": 101.25,
      "duration": 0.417,
      "velocity": 0.71,
      "hand": "left"
    },
    {
      "midi": 47,
      "time": 101.25,
      "duration": 0.417,
      "velocity": 0.71,
      "hand": "left"
    },
    {
      "midi": 57,
      "time": 101.25,
      "duration": 0.417,
      "velocity": 0.71,
      "hand": "left"
    },
    {
      "midi": 61,
      "time": 101.25,
      "duration": 0.417,
      "velocity": 0.71,
      "hand": "right"
    },
    {
      "midi": 64,
      "time": 101.25,
      "duration": 0.417,
      "velocity": 0.71,
      "hand": "right"
    },
    {
      "midi": 40,
      "time": 101.667,
      "duration": 0.833,
      "velocity": 0.71,
      "hand": "left"
    },
    {
      "midi": 47,
      "time": 101.667,
      "duration": 0.833,
      "velocity": 0.71,
      "hand": "left"
    },
    {
      "midi": 57,
      "time": 101.667,
      "duration": 0.417,
      "velocity": 0.71,
      "hand": "left"
    },
    {
      "midi": 59,
      "time": 101.667,
      "duration": 1.25,
      "velocity": 0.71,
      "hand": "left"
    },
    {
      "midi": 64,
      "time": 101.667,
      "duration": 1.25,
      "velocity": 0.71,
      "hand": "right"
    },
    {
      "midi": 56,
      "time": 102.083,
      "duration": 0.833,
      "velocity": 0.71,
      "hand": "left"
    },
    {
      "midi": 40,
      "time": 102.5,
      "duration": 0.417,
      "velocity": 0.71,
      "hand": "left"
    },
    {
      "midi": 52,
      "time": 102.917,
      "duration": 0.417,
      "velocity": 0.71,
      "hand": "left"
    },
    {
      "midi": 40,
      "time": 103.333,
      "duration": 0.417,
      "velocity": 0.71,
      "hand": "left"
    },
    {
      "midi": 48,
      "time": 103.333,
      "duration": 0.417,
      "velocity": 0.71,
      "hand": "left"
    },
    {
      "midi": 55,
      "time": 103.333,
      "duration": 0.417,
      "velocity": 0.71,
      "hand": "left"
    },
    {
      "midi": 60,
      "time": 103.333,
      "duration": 0.417,
      "velocity": 0.71,
      "hand": "right"
    },
    {
      "midi": 67,
      "time": 103.333,
      "duration": 0.104,
      "velocity": 0.71,
      "hand": "right"
    },
    {
      "midi": 65,
      "time": 103.438,
      "duration": 0.104,
      "velocity": 0.71,
      "hand": "right"
    },
    {
      "midi": 67,
      "time": 103.646,
      "duration": 0.104,
      "velocity": 0.71,
      "hand": "right"
    },
    {
      "midi": 41,
      "time": 103.75,
      "duration": 0.833,
      "velocity": 0.71,
      "hand": "left"
    },
    {
      "midi": 48,
      "time": 103.75,
      "duration": 0.833,
      "velocity": 0.71,
      "hand": "left"
    },
    {
      "midi": 57,
      "time": 103.75,
      "duration": 0.833,
      "velocity": 0.71,
      "hand": "left"
    },
    {
      "midi": 60,
      "time": 103.75,
      "duration": 0.833,
      "velocity": 0.71,
      "hand": "right"
    },
    {
      "midi": 64,
      "time": 103.75,
      "duration": 0.833,
      "velocity": 0.71,
      "hand": "right"
    },
    {
      "midi": 43,
      "time": 104.583,
      "duration": 0.417,
      "velocity": 0.71,
      "hand": "left"
    },
    {
      "midi": 53,
      "time": 104.583,
      "duration": 0.417,
      "velocity": 0.71,
      "hand": "left"
    },
    {
      "midi": 59,
      "time": 104.583,
      "duration": 0.417,
      "velocity": 0.71,
      "hand": "left"
    },
    {
      "midi": 62,
      "time": 104.583,
      "duration": 0.417,
      "velocity": 0.71,
      "hand": "right"
    },
    {
      "midi": 45,
      "time": 105,
      "duration": 0.417,
      "velocity": 0.71,
      "hand": "left"
    },
    {
      "midi": 52,
      "time": 105,
      "duration": 0.417,
      "velocity": 0.71,
      "hand": "left"
    },
    {
      "midi": 57,
      "time": 105,
      "duration": 0.417,
      "velocity": 0.71,
      "hand": "left"
    },
    {
      "midi": 60,
      "time": 105,
      "duration": 0.417,
      "velocity": 0.71,
      "hand": "right"
    },
    {
      "midi": 47,
      "time": 105.417,
      "duration": 0.833,
      "velocity": 0.71,
      "hand": "left"
    },
    {
      "midi": 50,
      "time": 105.417,
      "duration": 0.833,
      "velocity": 0.71,
      "hand": "left"
    },
    {
      "midi": 53,
      "time": 105.417,
      "duration": 0.833,
      "velocity": 0.71,
      "hand": "left"
    },
    {
      "midi": 55,
      "time": 105.417,
      "duration": 0.833,
      "velocity": 0.71,
      "hand": "left"
    },
    {
      "midi": 45,
      "time": 106.25,
      "duration": 0.417,
      "velocity": 0.71,
      "hand": "left"
    },
    {
      "midi": 52,
      "time": 106.25,
      "duration": 0.417,
      "velocity": 0.71,
      "hand": "left"
    },
    {
      "midi": 57,
      "time": 106.25,
      "duration": 0.417,
      "velocity": 0.71,
      "hand": "left"
    },
    {
      "midi": 60,
      "time": 106.25,
      "duration": 0.417,
      "velocity": 0.71,
      "hand": "right"
    },
    {
      "midi": 43,
      "time": 106.667,
      "duration": 0.417,
      "velocity": 0.71,
      "hand": "left"
    },
    {
      "midi": 53,
      "time": 106.667,
      "duration": 0.417,
      "velocity": 0.71,
      "hand": "left"
    },
    {
      "midi": 59,
      "time": 106.667,
      "duration": 0.417,
      "velocity": 0.71,
      "hand": "left"
    },
    {
      "midi": 62,
      "time": 106.667,
      "duration": 0.417,
      "velocity": 0.71,
      "hand": "right"
    },
    {
      "midi": 41,
      "time": 107.083,
      "duration": 0.417,
      "velocity": 0.71,
      "hand": "left"
    },
    {
      "midi": 57,
      "time": 107.083,
      "duration": 0.417,
      "velocity": 0.71,
      "hand": "left"
    },
    {
      "midi": 60,
      "time": 107.083,
      "duration": 0.417,
      "velocity": 0.71,
      "hand": "right"
    },
    {
      "midi": 65,
      "time": 107.083,
      "duration": 0.417,
      "velocity": 0.71,
      "hand": "right"
    },
    {
      "midi": 40,
      "time": 107.5,
      "duration": 0.417,
      "velocity": 0.71,
      "hand": "left"
    },
    {
      "midi": 55,
      "time": 107.5,
      "duration": 0.417,
      "velocity": 0.71,
      "hand": "left"
    },
    {
      "midi": 60,
      "time": 107.5,
      "duration": 0.417,
      "velocity": 0.71,
      "hand": "right"
    },
    {
      "midi": 67,
      "time": 107.5,
      "duration": 0.417,
      "velocity": 0.71,
      "hand": "right"
    },
    {
      "midi": 38,
      "time": 107.917,
      "duration": 0.417,
      "velocity": 0.71,
      "hand": "left"
    },
    {
      "midi": 50,
      "time": 107.917,
      "duration": 0.417,
      "velocity": 0.71,
      "hand": "left"
    },
    {
      "midi": 60,
      "time": 107.917,
      "duration": 0.417,
      "velocity": 0.71,
      "hand": "right"
    },
    {
      "midi": 65,
      "time": 107.917,
      "duration": 0.417,
      "velocity": 0.71,
      "hand": "right"
    },
    {
      "midi": 69,
      "time": 107.917,
      "duration": 0.208,
      "velocity": 0.71,
      "hand": "right"
    },
    {
      "midi": 72,
      "time": 108.125,
      "duration": 0.208,
      "velocity": 0.71,
      "hand": "right"
    },
    {
      "midi": 31,
      "time": 108.333,
      "duration": 0.208,
      "velocity": 0.71,
      "hand": "left"
    },
    {
      "midi": 65,
      "time": 108.333,
      "duration": 1.667,
      "velocity": 0.71,
      "hand": "right"
    },
    {
      "midi": 71,
      "time": 108.333,
      "duration": 0.833,
      "velocity": 0.71,
      "hand": "right"
    },
    {
      "midi": 74,
      "time": 108.333,
      "duration": 0.833,
      "velocity": 0.71,
      "hand": "right"
    },
    {
      "midi": 43,
      "time": 108.542,
      "duration": 0.208,
      "velocity": 0.71,
      "hand": "left"
    },
    {
      "midi": 50,
      "time": 108.75,
      "duration": 0.208,
      "velocity": 0.71,
      "hand": "left"
    },
    {
      "midi": 53,
      "time": 108.958,
      "duration": 0.208,
      "velocity": 0.71,
      "hand": "left"
    },
    {
      "midi": 55,
      "time": 109.167,
      "duration": 0.208,
      "velocity": 0.71,
      "hand": "left"
    },
    {
      "midi": 67,
      "time": 109.167,
      "duration": 0.833,
      "velocity": 0.71,
      "hand": "right"
    },
    {
      "midi": 59,
      "time": 109.375,
      "duration": 0.208,
      "velocity": 0.71,
      "hand": "left"
    },
    {
      "midi": 62,
      "time": 109.583,
      "duration": 0.208,
      "velocity": 0.71,
      "hand": "right"
    },
    {
      "midi": 65,
      "time": 109.792,
      "duration": 0.208,
      "velocity": 0.71,
      "hand": "right"
    },
    {
      "midi": 64,
      "time": 110,
      "duration": 0.833,
      "velocity": 0.71,
      "hand": "right"
    },
    {
      "midi": 67,
      "time": 110,
      "duration": 0.833,
      "velocity": 0.71,
      "hand": "right"
    },
    {
      "midi": 72,
      "time": 110,
      "duration": 3.333,
      "velocity": 0.71,
      "hand": "right"
    },
    {
      "midi": 79,
      "time": 110,
      "duration": 0.104,
      "velocity": 0.71,
      "hand": "right"
    },
    {
      "midi": 77,
      "time": 110.104,
      "duration": 0.104,
      "velocity": 0.71,
      "hand": "right"
    },
    {
      "midi": 79,
      "time": 110.313,
      "duration": 0.104,
      "velocity": 0.71,
      "hand": "right"
    },
    {
      "midi": 76,
      "time": 110.417,
      "duration": 0.833,
      "velocity": 0.71,
      "hand": "right"
    },
    {
      "midi": 65,
      "time": 110.833,
      "duration": 0.833,
      "velocity": 0.71,
      "hand": "right"
    },
    {
      "midi": 69,
      "time": 110.833,
      "duration": 0.833,
      "velocity": 0.71,
      "hand": "right"
    },
    {
      "midi": 74,
      "time": 111.25,
      "duration": 0.417,
      "velocity": 0.71,
      "hand": "right"
    },
    {
      "midi": 67,
      "time": 111.667,
      "duration": 0.833,
      "velocity": 0.71,
      "hand": "right"
    },
    {
      "midi": 70,
      "time": 111.667,
      "duration": 0.833,
      "velocity": 0.71,
      "hand": "right"
    },
    {
      "midi": 76,
      "time": 111.667,
      "duration": 0.833,
      "velocity": 0.71,
      "hand": "right"
    },
    {
      "midi": 65,
      "time": 112.5,
      "duration": 0.833,
      "velocity": 0.71,
      "hand": "right"
    },
    {
      "midi": 69,
      "time": 112.5,
      "duration": 0.833,
      "velocity": 0.71,
      "hand": "right"
    },
    {
      "midi": 77,
      "time": 112.5,
      "duration": 0.833,
      "velocity": 0.71,
      "hand": "right"
    },
    {
      "midi": 64,
      "time": 113.333,
      "duration": 3.125,
      "velocity": 0.71,
      "hand": "right"
    },
    {
      "midi": 67,
      "time": 113.333,
      "duration": 1.667,
      "velocity": 0.71,
      "hand": "right"
    },
    {
      "midi": 72,
      "time": 113.333,
      "duration": 2.5,
      "velocity": 0.71,
      "hand": "right"
    },
    {
      "midi": 79,
      "time": 113.333,
      "duration": 0.104,
      "velocity": 0.71,
      "hand": "right"
    },
    {
      "midi": 77,
      "time": 113.438,
      "duration": 0.104,
      "velocity": 0.71,
      "hand": "right"
    },
    {
      "midi": 79,
      "time": 113.646,
      "duration": 0.104,
      "velocity": 0.71,
      "hand": "right"
    },
    {
      "midi": 76,
      "time": 113.75,
      "duration": 0.833,
      "velocity": 0.71,
      "hand": "right"
    },
    {
      "midi": 79,
      "time": 114.583,
      "duration": 0.417,
      "velocity": 0.71,
      "hand": "right"
    },
    {
      "midi": 68,
      "time": 115,
      "duration": 1.667,
      "velocity": 0.71,
      "hand": "right"
    },
    {
      "midi": 80,
      "time": 115,
      "duration": 0.104,
      "velocity": 0.71,
      "hand": "right"
    },
    {
      "midi": 78,
      "time": 115.104,
      "duration": 0.104,
      "velocity": 0.71,
      "hand": "right"
    },
    {
      "midi": 80,
      "time": 115.313,
      "duration": 0.104,
      "velocity": 0.71,
      "hand": "right"
    },
    {
      "midi": 76,
      "time": 115.417,
      "duration": 0.833,
      "velocity": 0.71,
      "hand": "right"
    },
    {
      "midi": 73,
      "time": 115.833,
      "duration": 0.833,
      "velocity": 0.71,
      "hand": "right"
    },
    {
      "midi": 80,
      "time": 116.25,
      "duration": 0.417,
      "velocity": 0.71,
      "hand": "right"
    },
    {
      "midi": 63,
      "time": 116.458,
      "duration": 0.208,
      "velocity": 0.71,
      "hand": "right"
    },
    {
      "midi": 61,
      "time": 116.667,
      "duration": 0.104,
      "velocity": 0.71,
      "hand": "right"
    },
    {
      "midi": 81,
      "time": 116.667,
      "duration": 0.833,
      "velocity": 0.71,
      "hand": "right"
    },
    {
      "midi": 64,
      "time": 116.771,
      "duration": 0.104,
      "velocity": 0.71,
      "hand": "right"
    },
    {
      "midi": 69,
      "time": 116.979,
      "duration": 0.104,
      "velocity": 0.71,
      "hand": "right"
    },
    {
      "midi": 73,
      "time": 117.083,
      "duration": 0.104,
      "velocity": 0.71,
      "hand": "right"
    },
    {
      "midi": 76,
      "time": 117.188,
      "duration": 0.104,
      "velocity": 0.71,
      "hand": "right"
    },
    {
      "midi": 78,
      "time": 117.396,
      "duration": 0.104,
      "velocity": 0.71,
      "hand": "right"
    },
    {
      "midi": 80,
      "time": 117.5,
      "duration": 0.833,
      "velocity": 0.71,
      "hand": "right"
    },
    {
      "midi": 75,
      "time": 117.604,
      "duration": 0.104,
      "velocity": 0.71,
      "hand": "right"
    },
    {
      "midi": 71,
      "time": 117.813,
      "duration": 0.104,
      "velocity": 0.71,
      "hand": "right"
    },
    {
      "midi": 68,
      "time": 117.917,
      "duration": 0.104,
      "velocity": 0.71,
      "hand": "right"
    },
    {
      "midi": 63,
      "time": 118.021,
      "duration": 0.104,
      "velocity": 0.71,
      "hand": "right"
    },
    {
      "midi": 59,
      "time": 118.229,
      "duration": 0.104,
      "velocity": 0.71,
      "hand": "left"
    },
    {
      "midi": 57,
      "time": 118.333,
      "duration": 0.104,
      "velocity": 0.71,
      "hand": "left"
    },
    {
      "midi": 78,
      "time": 118.333,
      "duration": 0.833,
      "velocity": 0.71,
      "hand": "right"
    },
    {
      "midi": 61,
      "time": 118.438,
      "duration": 0.104,
      "velocity": 0.71,
      "hand": "right"
    },
    {
      "midi": 66,
      "time": 118.646,
      "duration": 0.104,
      "velocity": 0.71,
      "hand": "right"
    },
    {
      "midi": 69,
      "time": 118.75,
      "duration": 0.104,
      "velocity": 0.71,
      "hand": "right"
    },
    {
      "midi": 73,
      "time": 118.854,
      "duration": 0.104,
      "velocity": 0.71,
      "hand": "right"
    },
    {
      "midi": 75,
      "time": 119.063,
      "duration": 0.104,
      "velocity": 0.71,
      "hand": "right"
    },
    {
      "midi": 76,
      "time": 119.167,
      "duration": 0.833,
      "velocity": 0.71,
      "hand": "right"
    },
    {
      "midi": 71,
      "time": 119.271,
      "duration": 0.104,
      "velocity": 0.71,
      "hand": "right"
    },
    {
      "midi": 68,
      "time": 119.479,
      "duration": 0.104,
      "velocity": 0.71,
      "hand": "right"
    },
    {
      "midi": 64,
      "time": 119.583,
      "duration": 0.104,
      "velocity": 0.71,
      "hand": "right"
    },
    {
      "midi": 59,
      "time": 119.688,
      "duration": 0.104,
      "velocity": 0.71,
      "hand": "left"
    },
    {
      "midi": 56,
      "time": 119.896,
      "duration": 0.104,
      "velocity": 0.71,
      "hand": "left"
    },
    {
      "midi": 54,
      "time": 120,
      "duration": 0.833,
      "velocity": 0.71,
      "hand": "left"
    },
    {
      "midi": 57,
      "time": 120.104,
      "duration": 0.104,
      "velocity": 0.71,
      "hand": "left"
    },
    {
      "midi": 61,
      "time": 120.313,
      "duration": 0.417,
      "velocity": 0.71,
      "hand": "right"
    },
    {
      "midi": 73,
      "time": 120.417,
      "duration": 0.417,
      "velocity": 0.71,
      "hand": "right"
    },
    {
      "midi": 66,
      "time": 120.521,
      "duration": 0.104,
      "velocity": 0.71,
      "hand": "right"
    },
    {
      "midi": 69,
      "time": 120.729,
      "duration": 0.521,
      "velocity": 0.71,
      "hand": "right"
    },
    {
      "midi": 52,
      "time": 120.833,
      "duration": 0.833,
      "velocity": 0.71,
      "hand": "left"
    },
    {
      "midi": 78,
      "time": 120.833,
      "duration": 0.417,
      "velocity": 0.71,
      "hand": "right"
    },
    {
      "midi": 57,
      "time": 120.938,
      "duration": 0.104,
      "velocity": 0.71,
      "hand": "left"
    },
    {
      "midi": 61,
      "time": 121.146,
      "duration": 0.417,
      "velocity": 0.71,
      "hand": "right"
    },
    {
      "midi": 73,
      "time": 121.25,
      "duration": 0.833,
      "velocity": 0.71,
      "hand": "right"
    },
    {
      "midi": 66,
      "time": 121.354,
      "duration": 0.104,
      "velocity": 0.71,
      "hand": "right"
    },
    {
      "midi": 69,
      "time": 121.563,
      "duration": 0.521,
      "velocity": 0.71,
      "hand": "right"
    },
    {
      "midi": 51,
      "time": 121.667,
      "duration": 0.833,
      "velocity": 0.71,
      "hand": "left"
    },
    {
      "midi": 57,
      "time": 121.771,
      "duration": 0.104,
      "velocity": 0.71,
      "hand": "left"
    },
    {
      "midi": 61,
      "time": 121.979,
      "duration": 0.417,
      "velocity": 0.71,
      "hand": "right"
    },
    {
      "midi": 73,
      "time": 122.083,
      "duration": 0.417,
      "velocity": 0.71,
      "hand": "right"
    },
    {
      "midi": 66,
      "time": 122.188,
      "duration": 0.104,
      "velocity": 0.71,
      "hand": "right"
    },
    {
      "midi": 69,
      "time": 122.396,
      "duration": 0.521,
      "velocity": 0.71,
      "hand": "right"
    },
    {
      "midi": 49,
      "time": 122.5,
      "duration": 0.833,
      "velocity": 0.71,
      "hand": "left"
    },
    {
      "midi": 78,
      "time": 122.5,
      "duration": 0.417,
      "velocity": 0.71,
      "hand": "right"
    },
    {
      "midi": 57,
      "time": 122.604,
      "duration": 0.104,
      "velocity": 0.71,
      "hand": "left"
    },
    {
      "midi": 64,
      "time": 122.813,
      "duration": 0.417,
      "velocity": 0.71,
      "hand": "right"
    },
    {
      "midi": 81,
      "time": 122.917,
      "duration": 0.833,
      "velocity": 0.71,
      "hand": "right"
    },
    {
      "midi": 69,
      "time": 123.021,
      "duration": 0.104,
      "velocity": 0.71,
      "hand": "right"
    },
    {
      "midi": 73,
      "time": 123.229,
      "duration": 0.104,
      "velocity": 0.71,
      "hand": "right"
    },
    {
      "midi": 47,
      "time": 123.333,
      "duration": 0.104,
      "velocity": 0.71,
      "hand": "left"
    },
    {
      "midi": 54,
      "time": 123.438,
      "duration": 0.104,
      "velocity": 0.71,
      "hand": "left"
    },
    {
      "midi": 57,
      "time": 123.646,
      "duration": 0.104,
      "velocity": 0.71,
      "hand": "left"
    },
    {
      "midi": 61,
      "time": 123.75,
      "duration": 0.104,
      "velocity": 0.71,
      "hand": "right"
    },
    {
      "midi": 81,
      "time": 123.75,
      "duration": 0.938,
      "velocity": 0.71,
      "hand": "right"
    },
    {
      "midi": 63,
      "time": 123.854,
      "duration": 0.104,
      "velocity": 0.71,
      "hand": "right"
    },
    {
      "midi": 66,
      "time": 124.063,
      "duration": 0.104,
      "velocity": 0.71,
      "hand": "right"
    },
    {
      "midi": 69,
      "time": 124.167,
      "duration": 0.104,
      "velocity": 0.71,
      "hand": "right"
    },
    {
      "midi": 73,
      "time": 124.271,
      "duration": 0.104,
      "velocity": 0.71,
      "hand": "right"
    },
    {
      "midi": 75,
      "time": 124.479,
      "duration": 0.104,
      "velocity": 0.71,
      "hand": "right"
    },
    {
      "midi": 73,
      "time": 124.583,
      "duration": 0.104,
      "velocity": 0.71,
      "hand": "right"
    },
    {
      "midi": 71,
      "time": 124.688,
      "duration": 0.104,
      "velocity": 0.71,
      "hand": "right"
    },
    {
      "midi": 80,
      "time": 124.688,
      "duration": 0.104,
      "velocity": 0.71,
      "hand": "right"
    },
    {
      "midi": 69,
      "time": 124.896,
      "duration": 0.104,
      "velocity": 0.71,
      "hand": "right"
    },
    {
      "midi": 78,
      "time": 124.896,
      "duration": 0.104,
      "velocity": 0.71,
      "hand": "right"
    },
    {
      "midi": 40,
      "time": 125,
      "duration": 0.208,
      "velocity": 0.71,
      "hand": "left"
    },
    {
      "midi": 47,
      "time": 125.208,
      "duration": 0.208,
      "velocity": 0.71,
      "hand": "left"
    },
    {
      "midi": 52,
      "time": 125.417,
      "duration": 0.208,
      "velocity": 0.71,
      "hand": "left"
    },
    {
      "midi": 76,
      "time": 125.417,
      "duration": 0.104,
      "velocity": 0.71,
      "hand": "right"
    },
    {
      "midi": 78,
      "time": 125.521,
      "duration": 0.104,
      "velocity": 0.71,
      "hand": "right"
    },
    {
      "midi": 56,
      "time": 125.625,
      "duration": 0.208,
      "velocity": 0.71,
      "hand": "left"
    },
    {
      "midi": 73,
      "time": 125.729,
      "duration": 0.104,
      "velocity": 0.71,
      "hand": "right"
    },
    {
      "midi": 59,
      "time": 125.833,
      "duration": 0.208,
      "velocity": 0.71,
      "hand": "left"
    },
    {
      "midi": 76,
      "time": 125.833,
      "duration": 0.104,
      "velocity": 0.71,
      "hand": "right"
    },
    {
      "midi": 71,
      "time": 125.938,
      "duration": 0.104,
      "velocity": 0.71,
      "hand": "right"
    },
    {
      "midi": 56,
      "time": 126.042,
      "duration": 0.208,
      "velocity": 0.71,
      "hand": "left"
    },
    {
      "midi": 73,
      "time": 126.146,
      "duration": 0.104,
      "velocity": 0.71,
      "hand": "right"
    },
    {
      "midi": 52,
      "time": 126.25,
      "duration": 0.208,
      "velocity": 0.71,
      "hand": "left"
    },
    {
      "midi": 68,
      "time": 126.25,
      "duration": 0.104,
      "velocity": 0.71,
      "hand": "right"
    },
    {
      "midi": 71,
      "time": 126.354,
      "duration": 0.104,
      "velocity": 0.71,
      "hand": "right"
    },
    {
      "midi": 47,
      "time": 126.458,
      "duration": 0.208,
      "velocity": 0.71,
      "hand": "left"
    },
    {
      "midi": 66,
      "time": 126.563,
      "duration": 0.104,
      "velocity": 0.71,
      "hand": "right"
    },
    {
      "midi": 40,
      "time": 126.667,
      "duration": 0.208,
      "velocity": 0.71,
      "hand": "left"
    },
    {
      "midi": 68,
      "time": 126.667,
      "duration": 0.104,
      "velocity": 0.71,
      "hand": "right"
    },
    {
      "midi": 64,
      "time": 126.771,
      "duration": 0.104,
      "velocity": 0.71,
      "hand": "right"
    },
    {
      "midi": 47,
      "time": 126.875,
      "duration": 0.208,
      "velocity": 0.71,
      "hand": "left"
    },
    {
      "midi": 68,
      "time": 126.979,
      "duration": 0.104,
      "velocity": 0.71,
      "hand": "right"
    },
    {
      "midi": 52,
      "time": 127.083,
      "duration": 0.208,
      "velocity": 0.71,
      "hand": "left"
    },
    {
      "midi": 63,
      "time": 127.083,
      "duration": 0.833,
      "velocity": 0.71,
      "hand": "right"
    },
    {
      "midi": 56,
      "time": 127.292,
      "duration": 0.208,
      "velocity": 0.71,
      "hand": "left"
    },
    {
      "midi": 61,
      "time": 127.5,
      "duration": 0.208,
      "velocity": 0.71,
      "hand": "right"
    },
    {
      "midi": 56,
      "time": 127.708,
      "duration": 0.208,
      "velocity": 0.71,
      "hand": "left"
    },
    {
      "midi": 52,
      "time": 127.917,
      "duration": 0.208,
      "velocity": 0.71,
      "hand": "left"
    },
    {
      "midi": 61,
      "time": 127.917,
      "duration": 0.417,
      "velocity": 0.71,
      "hand": "right"
    },
    {
      "midi": 47,
      "time": 128.125,
      "duration": 0.208,
      "velocity": 0.71,
      "hand": "left"
    },
    {
      "midi": 40,
      "time": 128.333,
      "duration": 0.208,
      "velocity": 0.71,
      "hand": "left"
    },
    {
      "midi": 59,
      "time": 128.333,
      "duration": 0.208,
      "velocity": 0.71,
      "hand": "left"
    },
    {
      "midi": 47,
      "time": 128.542,
      "duration": 0.208,
      "velocity": 0.71,
      "hand": "left"
    },
    {
      "midi": 52,
      "time": 128.75,
      "duration": 0.208,
      "velocity": 0.71,
      "hand": "left"
    },
    {
      "midi": 76,
      "time": 128.75,
      "duration": 0.104,
      "velocity": 0.71,
      "hand": "right"
    },
    {
      "midi": 78,
      "time": 128.854,
      "duration": 0.104,
      "velocity": 0.71,
      "hand": "right"
    },
    {
      "midi": 56,
      "time": 128.958,
      "duration": 0.208,
      "velocity": 0.71,
      "hand": "left"
    },
    {
      "midi": 73,
      "time": 129.063,
      "duration": 0.104,
      "velocity": 0.71,
      "hand": "right"
    },
    {
      "midi": 59,
      "time": 129.167,
      "duration": 0.208,
      "velocity": 0.71,
      "hand": "left"
    },
    {
      "midi": 76,
      "time": 129.167,
      "duration": 0.104,
      "velocity": 0.71,
      "hand": "right"
    },
    {
      "midi": 71,
      "time": 129.271,
      "duration": 0.104,
      "velocity": 0.71,
      "hand": "right"
    },
    {
      "midi": 56,
      "time": 129.375,
      "duration": 0.208,
      "velocity": 0.71,
      "hand": "left"
    },
    {
      "midi": 73,
      "time": 129.479,
      "duration": 0.104,
      "velocity": 0.71,
      "hand": "right"
    },
    {
      "midi": 52,
      "time": 129.583,
      "duration": 0.208,
      "velocity": 0.71,
      "hand": "left"
    },
    {
      "midi": 68,
      "time": 129.583,
      "duration": 0.104,
      "velocity": 0.71,
      "hand": "right"
    },
    {
      "midi": 71,
      "time": 129.688,
      "duration": 0.104,
      "velocity": 0.71,
      "hand": "right"
    },
    {
      "midi": 47,
      "time": 129.792,
      "duration": 0.208,
      "velocity": 0.71,
      "hand": "left"
    },
    {
      "midi": 66,
      "time": 129.896,
      "duration": 0.104,
      "velocity": 0.71,
      "hand": "right"
    },
    {
      "midi": 40,
      "time": 130,
      "duration": 0.208,
      "velocity": 0.71,
      "hand": "left"
    },
    {
      "midi": 68,
      "time": 130,
      "duration": 0.104,
      "velocity": 0.71,
      "hand": "right"
    },
    {
      "midi": 64,
      "time": 130.104,
      "duration": 0.104,
      "velocity": 0.71,
      "hand": "right"
    },
    {
      "midi": 47,
      "time": 130.208,
      "duration": 0.208,
      "velocity": 0.71,
      "hand": "left"
    },
    {
      "midi": 68,
      "time": 130.313,
      "duration": 0.104,
      "velocity": 0.71,
      "hand": "right"
    },
    {
      "midi": 52,
      "time": 130.417,
      "duration": 0.208,
      "velocity": 0.71,
      "hand": "left"
    },
    {
      "midi": 63,
      "time": 130.417,
      "duration": 0.833,
      "velocity": 0.71,
      "hand": "right"
    },
    {
      "midi": 56,
      "time": 130.625,
      "duration": 0.208,
      "velocity": 0.71,
      "hand": "left"
    },
    {
      "midi": 61,
      "time": 130.833,
      "duration": 0.208,
      "velocity": 0.71,
      "hand": "right"
    },
    {
      "midi": 56,
      "time": 131.042,
      "duration": 0.208,
      "velocity": 0.71,
      "hand": "left"
    },
    {
      "midi": 52,
      "time": 131.25,
      "duration": 0.208,
      "velocity": 0.71,
      "hand": "left"
    },
    {
      "midi": 61,
      "time": 131.25,
      "duration": 0.417,
      "velocity": 0.71,
      "hand": "right"
    },
    {
      "midi": 47,
      "time": 131.458,
      "duration": 0.208,
      "velocity": 0.71,
      "hand": "left"
    },
    {
      "midi": 42,
      "time": 131.667,
      "duration": 0.208,
      "velocity": 0.71,
      "hand": "left"
    },
    {
      "midi": 59,
      "time": 131.667,
      "duration": 0.104,
      "velocity": 0.71,
      "hand": "left"
    },
    {
      "midi": 57,
      "time": 131.771,
      "duration": 0.104,
      "velocity": 0.71,
      "hand": "left"
    },
    {
      "midi": 49,
      "time": 131.875,
      "duration": 0.208,
      "velocity": 0.71,
      "hand": "left"
    },
    {
      "midi": 59,
      "time": 131.979,
      "duration": 0.104,
      "velocity": 0.71,
      "hand": "left"
    },
    {
      "midi": 52,
      "time": 132.083,
      "duration": 0.208,
      "velocity": 0.71,
      "hand": "left"
    },
    {
      "midi": 61,
      "time": 132.083,
      "duration": 0.625,
      "velocity": 0.71,
      "hand": "right"
    },
    {
      "midi": 54,
      "time": 132.292,
      "duration": 0.208,
      "velocity": 0.71,
      "hand": "left"
    },
    {
      "midi": 57,
      "time": 132.5,
      "duration": 0.208,
      "velocity": 0.71,
      "hand": "left"
    },
    {
      "midi": 54,
      "time": 132.708,
      "duration": 0.208,
      "velocity": 0.71,
      "hand": "left"
    },
    {
      "midi": 64,
      "time": 132.708,
      "duration": 0.208,
      "velocity": 0.71,
      "hand": "right"
    },
    {
      "midi": 52,
      "time": 132.917,
      "duration": 0.208,
      "velocity": 0.71,
      "hand": "left"
    },
    {
      "midi": 63,
      "time": 132.917,
      "duration": 0.208,
      "velocity": 0.71,
      "hand": "right"
    },
    {
      "midi": 49,
      "time": 133.125,
      "duration": 0.208,
      "velocity": 0.71,
      "hand": "left"
    },
    {
      "midi": 64,
      "time": 133.125,
      "duration": 0.208,
      "velocity": 0.71,
      "hand": "right"
    },
    {
      "midi": 44,
      "time": 133.333,
      "duration": 0.208,
      "velocity": 0.71,
      "hand": "left"
    },
    {
      "midi": 61,
      "time": 133.333,
      "duration": 0.417,
      "velocity": 0.71,
      "hand": "right"
    },
    {
      "midi": 49,
      "time": 133.542,
      "duration": 0.208,
      "velocity": 0.71,
      "hand": "left"
    },
    {
      "midi": 52,
      "time": 133.75,
      "duration": 0.208,
      "velocity": 0.71,
      "hand": "left"
    },
    {
      "midi": 68,
      "time": 133.75,
      "duration": 0.833,
      "velocity": 0.71,
      "hand": "right"
    },
    {
      "midi": 56,
      "time": 133.958,
      "duration": 0.208,
      "velocity": 0.71,
      "hand": "left"
    },
    {
      "midi": 59,
      "time": 134.167,
      "duration": 0.208,
      "velocity": 0.71,
      "hand": "left"
    },
    {
      "midi": 56,
      "time": 134.375,
      "duration": 0.208,
      "velocity": 0.71,
      "hand": "left"
    },
    {
      "midi": 52,
      "time": 134.583,
      "duration": 0.208,
      "velocity": 0.71,
      "hand": "left"
    },
    {
      "midi": 64,
      "time": 134.583,
      "duration": 0.417,
      "velocity": 0.71,
      "hand": "right"
    },
    {
      "midi": 49,
      "time": 134.792,
      "duration": 0.208,
      "velocity": 0.71,
      "hand": "left"
    },
    {
      "midi": 45,
      "time": 135,
      "duration": 0.208,
      "velocity": 0.71,
      "hand": "left"
    },
    {
      "midi": 63,
      "time": 135,
      "duration": 0.104,
      "velocity": 0.71,
      "hand": "right"
    },
    {
      "midi": 61,
      "time": 135.104,
      "duration": 0.104,
      "velocity": 0.71,
      "hand": "right"
    },
    {
      "midi": 52,
      "time": 135.208,
      "duration": 0.208,
      "velocity": 0.71,
      "hand": "left"
    },
    {
      "midi": 63,
      "time": 135.313,
      "duration": 0.104,
      "velocity": 0.71,
      "hand": "right"
    },
    {
      "midi": 54,
      "time": 135.417,
      "duration": 0.208,
      "velocity": 0.71,
      "hand": "left"
    },
    {
      "midi": 64,
      "time": 135.417,
      "duration": 0.625,
      "velocity": 0.71,
      "hand": "right"
    },
    {
      "midi": 57,
      "time": 135.625,
      "duration": 0.208,
      "velocity": 0.71,
      "hand": "left"
    },
    {
      "midi": 61,
      "time": 135.833,
      "duration": 0.208,
      "velocity": 0.71,
      "hand": "right"
    },
    {
      "midi": 57,
      "time": 136.042,
      "duration": 0.208,
      "velocity": 0.71,
      "hand": "left"
    },
    {
      "midi": 68,
      "time": 136.042,
      "duration": 0.208,
      "velocity": 0.71,
      "hand": "right"
    },
    {
      "midi": 54,
      "time": 136.25,
      "duration": 0.208,
      "velocity": 0.71,
      "hand": "left"
    },
    {
      "midi": 66,
      "time": 136.25,
      "duration": 0.208,
      "velocity": 0.71,
      "hand": "right"
    },
    {
      "midi": 52,
      "time": 136.458,
      "duration": 0.208,
      "velocity": 0.71,
      "hand": "left"
    },
    {
      "midi": 68,
      "time": 136.458,
      "duration": 0.208,
      "velocity": 0.71,
      "hand": "right"
    },
    {
      "midi": 46,
      "time": 136.667,
      "duration": 0.208,
      "velocity": 0.71,
      "hand": "left"
    },
    {
      "midi": 64,
      "time": 136.667,
      "duration": 0.417,
      "velocity": 0.71,
      "hand": "right"
    },
    {
      "midi": 52,
      "time": 136.875,
      "duration": 0.208,
      "velocity": 0.71,
      "hand": "left"
    },
    {
      "midi": 56,
      "time": 137.083,
      "duration": 0.208,
      "velocity": 0.71,
      "hand": "left"
    },
    {
      "midi": 73,
      "time": 137.083,
      "duration": 0.833,
      "velocity": 0.71,
      "hand": "right"
    },
    {
      "midi": 61,
      "time": 137.292,
      "duration": 0.208,
      "velocity": 0.71,
      "hand": "right"
    },
    {
      "midi": 49,
      "time": 137.5,
      "duration": 0.208,
      "velocity": 0.71,
      "hand": "left"
    },
    {
      "midi": 54,
      "time": 137.708,
      "duration": 0.208,
      "velocity": 0.71,
      "hand": "left"
    },
    {
      "midi": 58,
      "time": 137.917,
      "duration": 0.208,
      "velocity": 0.71,
      "hand": "left"
    },
    {
      "midi": 70,
      "time": 137.917,
      "duration": 0.104,
      "velocity": 0.71,
      "hand": "right"
    },
    {
      "midi": 73,
      "time": 138.021,
      "duration": 0.104,
      "velocity": 0.71,
      "hand": "right"
    },
    {
      "midi": 64,
      "time": 138.125,
      "duration": 0.208,
      "velocity": 0.71,
      "hand": "right"
    },
    {
      "midi": 70,
      "time": 138.229,
      "duration": 0.104,
      "velocity": 0.71,
      "hand": "right"
    },
    {
      "midi": 52,
      "time": 138.333,
      "duration": 0.208,
      "velocity": 0.71,
      "hand": "left"
    },
    {
      "midi": 68,
      "time": 138.333,
      "duration": 0.417,
      "velocity": 0.71,
      "hand": "right"
    },
    {
      "midi": 58,
      "time": 138.542,
      "duration": 0.208,
      "velocity": 0.71,
      "hand": "left"
    },
    {
      "midi": 61,
      "time": 138.75,
      "duration": 0.208,
      "velocity": 0.71,
      "hand": "right"
    },
    {
      "midi": 76,
      "time": 138.75,
      "duration": 0.833,
      "velocity": 0.71,
      "hand": "right"
    },
    {
      "midi": 68,
      "time": 138.958,
      "duration": 0.208,
      "velocity": 0.71,
      "hand": "right"
    },
    {
      "midi": 54,
      "time": 139.167,
      "duration": 0.208,
      "velocity": 0.71,
      "hand": "left"
    },
    {
      "midi": 61,
      "time": 139.375,
      "duration": 0.208,
      "velocity": 0.71,
      "hand": "right"
    },
    {
      "midi": 64,
      "time": 139.583,
      "duration": 0.208,
      "velocity": 0.71,
      "hand": "right"
    },
    {
      "midi": 73,
      "time": 139.583,
      "duration": 0.104,
      "velocity": 0.71,
      "hand": "right"
    },
    {
      "midi": 76,
      "time": 139.688,
      "duration": 0.104,
      "velocity": 0.71,
      "hand": "right"
    },
    {
      "midi": 70,
      "time": 139.792,
      "duration": 0.208,
      "velocity": 0.71,
      "hand": "right"
    },
    {
      "midi": 73,
      "time": 139.896,
      "duration": 0.104,
      "velocity": 0.71,
      "hand": "right"
    },
    {
      "midi": 58,
      "time": 140,
      "duration": 0.208,
      "velocity": 0.71,
      "hand": "left"
    },
    {
      "midi": 80,
      "time": 140,
      "duration": 0.625,
      "velocity": 0.71,
      "hand": "right"
    },
    {
      "midi": 64,
      "time": 140.208,
      "duration": 0.208,
      "velocity": 0.71,
      "hand": "right"
    },
    {
      "midi": 68,
      "time": 140.417,
      "duration": 0.208,
      "velocity": 0.71,
      "hand": "right"
    },
    {
      "midi": 73,
      "time": 140.625,
      "duration": 0.208,
      "velocity": 0.71,
      "hand": "right"
    },
    {
      "midi": 78,
      "time": 140.625,
      "duration": 0.208,
      "velocity": 0.71,
      "hand": "right"
    },
    {
      "midi": 61,
      "time": 140.833,
      "duration": 0.208,
      "velocity": 0.71,
      "hand": "right"
    },
    {
      "midi": 80,
      "time": 140.833,
      "duration": 0.625,
      "velocity": 0.71,
      "hand": "right"
    },
    {
      "midi": 66,
      "time": 141.042,
      "duration": 0.208,
      "velocity": 0.71,
      "hand": "right"
    },
    {
      "midi": 70,
      "time": 141.25,
      "duration": 0.208,
      "velocity": 0.71,
      "hand": "right"
    },
    {
      "midi": 76,
      "time": 141.458,
      "duration": 0.208,
      "velocity": 0.71,
      "hand": "right"
    },
    {
      "midi": 78,
      "time": 141.458,
      "duration": 0.208,
      "velocity": 0.71,
      "hand": "right"
    },
    {
      "midi": 58,
      "time": 141.667,
      "duration": 0.208,
      "velocity": 0.71,
      "hand": "left"
    },
    {
      "midi": 80,
      "time": 141.667,
      "duration": 0.625,
      "velocity": 0.71,
      "hand": "right"
    },
    {
      "midi": 64,
      "time": 141.875,
      "duration": 0.208,
      "velocity": 0.71,
      "hand": "right"
    },
    {
      "midi": 68,
      "time": 142.083,
      "duration": 0.208,
      "velocity": 0.71,
      "hand": "right"
    },
    {
      "midi": 73,
      "time": 142.292,
      "duration": 0.208,
      "velocity": 0.71,
      "hand": "right"
    },
    {
      "midi": 78,
      "time": 142.292,
      "duration": 0.208,
      "velocity": 0.71,
      "hand": "right"
    },
    {
      "midi": 61,
      "time": 142.5,
      "duration": 0.208,
      "velocity": 0.71,
      "hand": "right"
    },
    {
      "midi": 80,
      "time": 142.5,
      "duration": 0.208,
      "velocity": 0.71,
      "hand": "right"
    },
    {
      "midi": 66,
      "time": 142.708,
      "duration": 0.208,
      "velocity": 0.71,
      "hand": "right"
    },
    {
      "midi": 78,
      "time": 142.708,
      "duration": 0.417,
      "velocity": 0.71,
      "hand": "right"
    },
    {
      "midi": 70,
      "time": 142.917,
      "duration": 0.208,
      "velocity": 0.71,
      "hand": "right"
    },
    {
      "midi": 76,
      "time": 143.125,
      "duration": 0.208,
      "velocity": 0.71,
      "hand": "right"
    },
    {
      "midi": 80,
      "time": 143.125,
      "duration": 0.208,
      "velocity": 0.71,
      "hand": "right"
    },
    {
      "midi": 61,
      "time": 143.333,
      "duration": 0.104,
      "velocity": 0.71,
      "hand": "right"
    },
    {
      "midi": 81,
      "time": 143.333,
      "duration": 0.833,
      "velocity": 0.71,
      "hand": "right"
    },
    {
      "midi": 64,
      "time": 143.438,
      "duration": 0.104,
      "velocity": 0.71,
      "hand": "right"
    },
    {
      "midi": 69,
      "time": 143.646,
      "duration": 0.104,
      "velocity": 0.71,
      "hand": "right"
    },
    {
      "midi": 73,
      "time": 143.75,
      "duration": 0.104,
      "velocity": 0.71,
      "hand": "right"
    },
    {
      "midi": 76,
      "time": 143.854,
      "duration": 0.104,
      "velocity": 0.71,
      "hand": "right"
    },
    {
      "midi": 78,
      "time": 144.063,
      "duration": 0.104,
      "velocity": 0.71,
      "hand": "right"
    },
    {
      "midi": 80,
      "time": 144.167,
      "duration": 0.833,
      "velocity": 0.71,
      "hand": "right"
    },
    {
      "midi": 75,
      "time": 144.271,
      "duration": 0.104,
      "velocity": 0.71,
      "hand": "right"
    },
    {
      "midi": 71,
      "time": 144.479,
      "duration": 0.104,
      "velocity": 0.71,
      "hand": "right"
    },
    {
      "midi": 68,
      "time": 144.583,
      "duration": 0.104,
      "velocity": 0.71,
      "hand": "right"
    },
    {
      "midi": 63,
      "time": 144.688,
      "duration": 0.104,
      "velocity": 0.71,
      "hand": "right"
    },
    {
      "midi": 59,
      "time": 144.896,
      "duration": 0.104,
      "velocity": 0.71,
      "hand": "left"
    },
    {
      "midi": 57,
      "time": 145,
      "duration": 0.104,
      "velocity": 0.71,
      "hand": "left"
    },
    {
      "midi": 78,
      "time": 145,
      "duration": 0.833,
      "velocity": 0.71,
      "hand": "right"
    },
    {
      "midi": 61,
      "time": 145.104,
      "duration": 0.104,
      "velocity": 0.71,
      "hand": "right"
    },
    {
      "midi": 66,
      "time": 145.313,
      "duration": 0.104,
      "velocity": 0.71,
      "hand": "right"
    },
    {
      "midi": 69,
      "time": 145.417,
      "duration": 0.104,
      "velocity": 0.71,
      "hand": "right"
    },
    {
      "midi": 73,
      "time": 145.521,
      "duration": 0.104,
      "velocity": 0.71,
      "hand": "right"
    },
    {
      "midi": 75,
      "time": 145.729,
      "duration": 0.104,
      "velocity": 0.71,
      "hand": "right"
    },
    {
      "midi": 76,
      "time": 145.833,
      "duration": 0.833,
      "velocity": 0.71,
      "hand": "right"
    },
    {
      "midi": 71,
      "time": 145.938,
      "duration": 0.104,
      "velocity": 0.71,
      "hand": "right"
    },
    {
      "midi": 68,
      "time": 146.146,
      "duration": 0.104,
      "velocity": 0.71,
      "hand": "right"
    },
    {
      "midi": 64,
      "time": 146.25,
      "duration": 0.104,
      "velocity": 0.71,
      "hand": "right"
    },
    {
      "midi": 59,
      "time": 146.354,
      "duration": 0.104,
      "velocity": 0.71,
      "hand": "left"
    },
    {
      "midi": 56,
      "time": 146.563,
      "duration": 0.104,
      "velocity": 0.71,
      "hand": "left"
    },
    {
      "midi": 61,
      "time": 146.667,
      "duration": 0.833,
      "velocity": 0.71,
      "hand": "right"
    },
    {
      "midi": 81,
      "time": 146.667,
      "duration": 0.417,
      "velocity": 0.71,
      "hand": "right"
    },
    {
      "midi": 64,
      "time": 146.771,
      "duration": 0.104,
      "velocity": 0.71,
      "hand": "right"
    },
    {
      "midi": 69,
      "time": 146.979,
      "duration": 0.104,
      "velocity": 0.71,
      "hand": "right"
    },
    {
      "midi": 73,
      "time": 147.083,
      "duration": 0.104,
      "velocity": 0.71,
      "hand": "right"
    },
    {
      "midi": 76,
      "time": 147.083,
      "duration": 0.417,
      "velocity": 0.71,
      "hand": "right"
    },
    {
      "midi": 83,
      "time": 147.083,
      "duration": 0.208,
      "velocity": 0.71,
      "hand": "right"
    },
    {
      "midi": 69,
      "time": 147.188,
      "duration": 0.104,
      "velocity": 0.71,
      "hand": "right"
    },
    {
      "midi": 85,
      "time": 147.292,
      "duration": 0.208,
      "velocity": 0.71,
      "hand": "right"
    },
    {
      "midi": 64,
      "time": 147.396,
      "duration": 0.104,
      "velocity": 0.71,
      "hand": "right"
    },
    {
      "midi": 59,
      "time": 147.5,
      "duration": 0.833,
      "velocity": 0.71,
      "hand": "left"
    },
    {
      "midi": 81,
      "time": 147.5,
      "duration": 0.208,
      "velocity": 0.71,
      "hand": "right"
    },
    {
      "midi": 63,
      "time": 147.604,
      "duration": 0.104,
      "velocity": 0.71,
      "hand": "right"
    },
    {
      "midi": 80,
      "time": 147.708,
      "duration": 0.208,
      "velocity": 0.71,
      "hand": "right"
    },
    {
      "midi": 68,
      "time": 147.813,
      "duration": 0.104,
      "velocity": 0.71,
      "hand": "right"
    },
    {
      "midi": 71,
      "time": 147.917,
      "duration": 0.104,
      "velocity": 0.71,
      "hand": "right"
    },
    {
      "midi": 75,
      "time": 147.917,
      "duration": 0.417,
      "velocity": 0.71,
      "hand": "right"
    },
    {
      "midi": 81,
      "time": 147.917,
      "duration": 0.208,
      "velocity": 0.71,
      "hand": "right"
    },
    {
      "midi": 68,
      "time": 148.021,
      "duration": 0.104,
      "velocity": 0.71,
      "hand": "right"
    },
    {
      "midi": 80,
      "time": 148.125,
      "duration": 0.625,
      "velocity": 0.71,
      "hand": "right"
    },
    {
      "midi": 63,
      "time": 148.229,
      "duration": 0.104,
      "velocity": 0.71,
      "hand": "right"
    },
    {
      "midi": 57,
      "time": 148.333,
      "duration": 0.833,
      "velocity": 0.71,
      "hand": "left"
    },
    {
      "midi": 73,
      "time": 148.333,
      "duration": 0.833,
      "velocity": 0.71,
      "hand": "right"
    },
    {
      "midi": 61,
      "time": 148.438,
      "duration": 0.104,
      "velocity": 0.71,
      "hand": "right"
    },
    {
      "midi": 66,
      "time": 148.646,
      "duration": 0.104,
      "velocity": 0.71,
      "hand": "right"
    },
    {
      "midi": 69,
      "time": 148.75,
      "duration": 0.104,
      "velocity": 0.71,
      "hand": "right"
    },
    {
      "midi": 78,
      "time": 148.75,
      "duration": 0.833,
      "velocity": 0.71,
      "hand": "right"
    },
    {
      "midi": 66,
      "time": 148.854,
      "duration": 0.104,
      "velocity": 0.71,
      "hand": "right"
    },
    {
      "midi": 61,
      "time": 149.063,
      "duration": 0.104,
      "velocity": 0.71,
      "hand": "right"
    },
    {
      "midi": 56,
      "time": 149.167,
      "duration": 0.833,
      "velocity": 0.71,
      "hand": "left"
    },
    {
      "midi": 71,
      "time": 149.167,
      "duration": 0.833,
      "velocity": 0.71,
      "hand": "right"
    },
    {
      "midi": 59,
      "time": 149.271,
      "duration": 0.104,
      "velocity": 0.71,
      "hand": "left"
    },
    {
      "midi": 64,
      "time": 149.479,
      "duration": 0.104,
      "velocity": 0.71,
      "hand": "right"
    },
    {
      "midi": 68,
      "time": 149.583,
      "duration": 0.104,
      "velocity": 0.71,
      "hand": "right"
    },
    {
      "midi": 76,
      "time": 149.583,
      "duration": 0.625,
      "velocity": 0.71,
      "hand": "right"
    },
    {
      "midi": 64,
      "time": 149.688,
      "duration": 0.104,
      "velocity": 0.71,
      "hand": "right"
    },
    {
      "midi": 59,
      "time": 149.896,
      "duration": 0.104,
      "velocity": 0.71,
      "hand": "left"
    },
    {
      "midi": 54,
      "time": 150,
      "duration": 0.833,
      "velocity": 0.71,
      "hand": "left"
    },
    {
      "midi": 57,
      "time": 150.104,
      "duration": 0.104,
      "velocity": 0.71,
      "hand": "left"
    },
    {
      "midi": 74,
      "time": 150.208,
      "duration": 0.208,
      "velocity": 0.71,
      "hand": "right"
    },
    {
      "midi": 62,
      "time": 150.313,
      "duration": 0.104,
      "velocity": 0.71,
      "hand": "right"
    },
    {
      "midi": 66,
      "time": 150.417,
      "duration": 0.104,
      "velocity": 0.71,
      "hand": "right"
    },
    {
      "midi": 69,
      "time": 150.417,
      "duration": 0.417,
      "velocity": 0.71,
      "hand": "right"
    },
    {
      "midi": 76,
      "time": 150.417,
      "duration": 0.208,
      "velocity": 0.71,
      "hand": "right"
    },
    {
      "midi": 62,
      "time": 150.521,
      "duration": 0.104,
      "velocity": 0.71,
      "hand": "right"
    },
    {
      "midi": 78,
      "time": 150.625,
      "duration": 0.208,
      "velocity": 0.71,
      "hand": "right"
    },
    {
      "midi": 57,
      "time": 150.729,
      "duration": 0.104,
      "velocity": 0.71,
      "hand": "left"
    },
    {
      "midi": 52,
      "time": 150.833,
      "duration": 0.833,
      "velocity": 0.71,
      "hand": "left"
    },
    {
      "midi": 74,
      "time": 150.833,
      "duration": 0.208,
      "velocity": 0.71,
      "hand": "right"
    },
    {
      "midi": 56,
      "time": 150.938,
      "duration": 0.104,
      "velocity": 0.71,
      "hand": "left"
    },
    {
      "midi": 73,
      "time": 151.042,
      "duration": 0.208,
      "velocity": 0.71,
      "hand": "right"
    },
    {
      "midi": 61,
      "time": 151.146,
      "duration": 0.104,
      "velocity": 0.71,
      "hand": "right"
    },
    {
      "midi": 64,
      "time": 151.25,
      "duration": 0.104,
      "velocity": 0.71,
      "hand": "right"
    },
    {
      "midi": 68,
      "time": 151.25,
      "duration": 0.417,
      "velocity": 0.71,
      "hand": "right"
    },
    {
      "midi": 74,
      "time": 151.25,
      "duration": 0.208,
      "velocity": 0.71,
      "hand": "right"
    },
    {
      "midi": 61,
      "time": 151.354,
      "duration": 0.104,
      "velocity": 0.71,
      "hand": "right"
    },
    {
      "midi": 73,
      "time": 151.458,
      "duration": 0.625,
      "velocity": 0.71,
      "hand": "right"
    },
    {
      "midi": 56,
      "time": 151.563,
      "duration": 0.104,
      "velocity": 0.71,
      "hand": "left"
    },
    {
      "midi": 50,
      "time": 151.667,
      "duration": 0.833,
      "velocity": 0.71,
      "hand": "left"
    },
    {
      "midi": 66,
      "time": 151.667,
      "duration": 0.833,
      "velocity": 0.71,
      "hand": "right"
    },
    {
      "midi": 54,
      "time": 151.771,
      "duration": 0.104,
      "velocity": 0.71,
      "hand": "left"
    },
    {
      "midi": 59,
      "time": 151.979,
      "duration": 0.104,
      "velocity": 0.71,
      "hand": "left"
    },
    {
      "midi": 62,
      "time": 152.083,
      "duration": 0.104,
      "velocity": 0.71,
      "hand": "right"
    },
    {
      "midi": 71,
      "time": 152.083,
      "duration": 0.833,
      "velocity": 0.71,
      "hand": "right"
    },
    {
      "midi": 59,
      "time": 152.188,
      "duration": 0.104,
      "velocity": 0.71,
      "hand": "left"
    },
    {
      "midi": 54,
      "time": 152.396,
      "duration": 0.104,
      "velocity": 0.71,
      "hand": "left"
    },
    {
      "midi": 49,
      "time": 152.5,
      "duration": 0.833,
      "velocity": 0.71,
      "hand": "left"
    },
    {
      "midi": 64,
      "time": 152.5,
      "duration": 0.833,
      "velocity": 0.71,
      "hand": "right"
    },
    {
      "midi": 52,
      "time": 152.604,
      "duration": 0.104,
      "velocity": 0.71,
      "hand": "left"
    },
    {
      "midi": 57,
      "time": 152.813,
      "duration": 0.104,
      "velocity": 0.71,
      "hand": "left"
    },
    {
      "midi": 61,
      "time": 152.917,
      "duration": 0.104,
      "velocity": 0.71,
      "hand": "right"
    },
    {
      "midi": 69,
      "time": 152.917,
      "duration": 0.625,
      "velocity": 0.71,
      "hand": "right"
    },
    {
      "midi": 57,
      "time": 153.021,
      "duration": 0.104,
      "velocity": 0.71,
      "hand": "left"
    },
    {
      "midi": 52,
      "time": 153.229,
      "duration": 0.104,
      "velocity": 0.71,
      "hand": "left"
    },
    {
      "midi": 47,
      "time": 153.333,
      "duration": 0.833,
      "velocity": 0.71,
      "hand": "left"
    },
    {
      "midi": 62,
      "time": 153.333,
      "duration": 0.833,
      "velocity": 0.71,
      "hand": "right"
    },
    {
      "midi": 53,
      "time": 153.438,
      "duration": 0.104,
      "velocity": 0.71,
      "hand": "left"
    },
    {
      "midi": 68,
      "time": 153.542,
      "duration": 0.208,
      "velocity": 0.71,
      "hand": "right"
    },
    {
      "midi": 56,
      "time": 153.646,
      "duration": 0.104,
      "velocity": 0.71,
      "hand": "left"
    },
    {
      "midi": 59,
      "time": 153.75,
      "duration": 0.104,
      "velocity": 0.71,
      "hand": "left"
    },
    {
      "midi": 69,
      "time": 153.75,
      "duration": 0.208,
      "velocity": 0.71,
      "hand": "right"
    },
    {
      "midi": 56,
      "time": 153.854,
      "duration": 0.104,
      "velocity": 0.71,
      "hand": "left"
    },
    {
      "midi": 68,
      "time": 153.958,
      "duration": 0.208,
      "velocity": 0.71,
      "hand": "right"
    },
    {
      "midi": 53,
      "time": 154.063,
      "duration": 0.104,
      "velocity": 0.71,
      "hand": "left"
    },
    {
      "midi": 45,
      "time": 154.167,
      "duration": 0.833,
      "velocity": 0.71,
      "hand": "left"
    },
    {
      "midi": 61,
      "time": 154.167,
      "duration": 0.833,
      "velocity": 0.71,
      "hand": "right"
    },
    {
      "midi": 73,
      "time": 154.167,
      "duration": 0.208,
      "velocity": 0.71,
      "hand": "right"
    },
    {
      "midi": 49,
      "time": 154.271,
      "duration": 0.104,
      "velocity": 0.71,
      "hand": "left"
    },
    {
      "midi": 69,
      "time": 154.375,
      "duration": 0.208,
      "velocity": 0.71,
      "hand": "right"
    },
    {
      "midi": 54,
      "time": 154.479,
      "duration": 0.104,
      "velocity": 0.71,
      "hand": "left"
    },
    {
      "midi": 57,
      "time": 154.583,
      "duration": 0.104,
      "velocity": 0.71,
      "hand": "left"
    },
    {
      "midi": 66,
      "time": 154.583,
      "duration": 0.625,
      "velocity": 0.71,
      "hand": "right"
    },
    {
      "midi": 54,
      "time": 154.688,
      "duration": 0.104,
      "velocity": 0.71,
      "hand": "left"
    },
    {
      "midi": 49,
      "time": 154.896,
      "duration": 0.104,
      "velocity": 0.71,
      "hand": "left"
    },
    {
      "midi": 44,
      "time": 155,
      "duration": 0.833,
      "velocity": 0.71,
      "hand": "left"
    },
    {
      "midi": 59,
      "time": 155,
      "duration": 0.833,
      "velocity": 0.71,
      "hand": "left"
    },
    {
      "midi": 47,
      "time": 155.104,
      "duration": 0.104,
      "velocity": 0.71,
      "hand": "left"
    },
    {
      "midi": 64,
      "time": 155.208,
      "duration": 0.208,
      "velocity": 0.71,
      "hand": "right"
    },
    {
      "midi": 52,
      "time": 155.313,
      "duration": 0.104,
      "velocity": 0.71,
      "hand": "left"
    },
    {
      "midi": 56,
      "time": 155.417,
      "duration": 0.104,
      "velocity": 0.71,
      "hand": "left"
    },
    {
      "midi": 66,
      "time": 155.417,
      "duration": 0.208,
      "velocity": 0.71,
      "hand": "right"
    },
    {
      "midi": 52,
      "time": 155.521,
      "duration": 0.104,
      "velocity": 0.71,
      "hand": "left"
    },
    {
      "midi": 64,
      "time": 155.625,
      "duration": 0.208,
      "velocity": 0.71,
      "hand": "right"
    },
    {
      "midi": 47,
      "time": 155.729,
      "duration": 0.104,
      "velocity": 0.71,
      "hand": "left"
    },
    {
      "midi": 42,
      "time": 155.833,
      "duration": 0.104,
      "velocity": 0.71,
      "hand": "left"
    },
    {
      "midi": 69,
      "time": 155.833,
      "duration": 3.333,
      "velocity": 0.71,
      "hand": "right"
    },
    {
      "midi": 49,
      "time": 155.938,
      "duration": 0.104,
      "velocity": 0.71,
      "hand": "left"
    },
    {
      "midi": 52,
      "time": 156.146,
      "duration": 0.104,
      "velocity": 0.71,
      "hand": "left"
    },
    {
      "midi": 54,
      "time": 156.25,
      "duration": 0.104,
      "velocity": 0.71,
      "hand": "left"
    },
    {
      "midi": 57,
      "time": 156.354,
      "duration": 0.104,
      "velocity": 0.71,
      "hand": "left"
    },
    {
      "midi": 59,
      "time": 156.563,
      "duration": 0.104,
      "velocity": 0.71,
      "hand": "left"
    },
    {
      "midi": 61,
      "time": 156.667,
      "duration": 0.104,
      "velocity": 0.71,
      "hand": "right"
    },
    {
      "midi": 64,
      "time": 156.771,
      "duration": 0.104,
      "velocity": 0.71,
      "hand": "right"
    },
    {
      "midi": 71,
      "time": 157.083,
      "duration": 0.104,
      "velocity": 0.71,
      "hand": "right"
    },
    {
      "midi": 73,
      "time": 157.188,
      "duration": 0.104,
      "velocity": 0.71,
      "hand": "right"
    },
    {
      "midi": 76,
      "time": 157.396,
      "duration": 0.104,
      "velocity": 0.71,
      "hand": "right"
    },
    {
      "midi": 81,
      "time": 157.5,
      "duration": 0.104,
      "velocity": 0.71,
      "hand": "right"
    },
    {
      "midi": 83,
      "time": 157.604,
      "duration": 0.104,
      "velocity": 0.71,
      "hand": "right"
    },
    {
      "midi": 85,
      "time": 157.813,
      "duration": 0.104,
      "velocity": 0.71,
      "hand": "right"
    },
    {
      "midi": 88,
      "time": 157.917,
      "duration": 0.104,
      "velocity": 0.71,
      "hand": "right"
    },
    {
      "midi": 85,
      "time": 158.021,
      "duration": 0.104,
      "velocity": 0.71,
      "hand": "right"
    },
    {
      "midi": 83,
      "time": 158.229,
      "duration": 0.104,
      "velocity": 0.71,
      "hand": "right"
    },
    {
      "midi": 81,
      "time": 158.333,
      "duration": 0.104,
      "velocity": 0.71,
      "hand": "right"
    },
    {
      "midi": 76,
      "time": 158.438,
      "duration": 0.104,
      "velocity": 0.71,
      "hand": "right"
    },
    {
      "midi": 73,
      "time": 158.646,
      "duration": 0.104,
      "velocity": 0.71,
      "hand": "right"
    },
    {
      "midi": 71,
      "time": 158.75,
      "duration": 0.104,
      "velocity": 0.71,
      "hand": "right"
    },
    {
      "midi": 64,
      "time": 159.063,
      "duration": 0.104,
      "velocity": 0.71,
      "hand": "right"
    },
    {
      "midi": 35,
      "time": 159.167,
      "duration": 0.104,
      "velocity": 0.71,
      "hand": "left"
    },
    {
      "midi": 68,
      "time": 159.167,
      "duration": 1.667,
      "velocity": 0.71,
      "hand": "right"
    },
    {
      "midi": 47,
      "time": 159.271,
      "duration": 0.104,
      "velocity": 0.71,
      "hand": "left"
    },
    {
      "midi": 51,
      "time": 159.479,
      "duration": 0.104,
      "velocity": 0.71,
      "hand": "left"
    },
    {
      "midi": 56,
      "time": 159.583,
      "duration": 0.104,
      "velocity": 0.71,
      "hand": "left"
    },
    {
      "midi": 59,
      "time": 159.688,
      "duration": 0.104,
      "velocity": 0.71,
      "hand": "left"
    },
    {
      "midi": 63,
      "time": 159.896,
      "duration": 0.104,
      "velocity": 0.71,
      "hand": "right"
    },
    {
      "midi": 71,
      "time": 160.104,
      "duration": 0.104,
      "velocity": 0.71,
      "hand": "right"
    },
    {
      "midi": 75,
      "time": 160.313,
      "duration": 0.104,
      "velocity": 0.71,
      "hand": "right"
    },
    {
      "midi": 80,
      "time": 160.417,
      "duration": 0.104,
      "velocity": 0.71,
      "hand": "right"
    },
    {
      "midi": 83,
      "time": 160.521,
      "duration": 0.104,
      "velocity": 0.71,
      "hand": "right"
    },
    {
      "midi": 71,
      "time": 160.729,
      "duration": 0.104,
      "velocity": 0.71,
      "hand": "right"
    },
    {
      "midi": 35,
      "time": 160.833,
      "duration": 0.104,
      "velocity": 0.71,
      "hand": "left"
    },
    {
      "midi": 66,
      "time": 160.833,
      "duration": 1.667,
      "velocity": 0.71,
      "hand": "right"
    },
    {
      "midi": 47,
      "time": 160.938,
      "duration": 0.104,
      "velocity": 0.71,
      "hand": "left"
    },
    {
      "midi": 51,
      "time": 161.146,
      "duration": 0.104,
      "velocity": 0.71,
      "hand": "left"
    },
    {
      "midi": 57,
      "time": 161.25,
      "duration": 0.104,
      "velocity": 0.71,
      "hand": "left"
    },
    {
      "midi": 59,
      "time": 161.354,
      "duration": 0.104,
      "velocity": 0.71,
      "hand": "left"
    },
    {
      "midi": 63,
      "time": 161.563,
      "duration": 0.104,
      "velocity": 0.71,
      "hand": "right"
    },
    {
      "midi": 69,
      "time": 161.667,
      "duration": 0.104,
      "velocity": 0.71,
      "hand": "right"
    },
    {
      "midi": 71,
      "time": 161.771,
      "duration": 0.104,
      "velocity": 0.71,
      "hand": "right"
    },
    {
      "midi": 75,
      "time": 161.979,
      "duration": 0.104,
      "velocity": 0.71,
      "hand": "right"
    },
    {
      "midi": 81,
      "time": 162.083,
      "duration": 0.104,
      "velocity": 0.71,
      "hand": "right"
    },
    {
      "midi": 83,
      "time": 162.188,
      "duration": 0.104,
      "velocity": 0.71,
      "hand": "right"
    },
    {
      "midi": 71,
      "time": 162.396,
      "duration": 0.104,
      "velocity": 0.71,
      "hand": "right"
    },
    {
      "midi": 40,
      "time": 162.5,
      "duration": 0.208,
      "velocity": 0.71,
      "hand": "left"
    },
    {
      "midi": 64,
      "time": 162.5,
      "duration": 0.417,
      "velocity": 0.71,
      "hand": "right"
    },
    {
      "midi": 47,
      "time": 162.708,
      "duration": 0.208,
      "velocity": 0.71,
      "hand": "left"
    },
    {
      "midi": 52,
      "time": 162.917,
      "duration": 0.208,
      "velocity": 0.71,
      "hand": "left"
    },
    {
      "midi": 88,
      "time": 162.917,
      "duration": 0.104,
      "velocity": 0.71,
      "hand": "right"
    },
    {
      "midi": 90,
      "time": 163.021,
      "duration": 0.104,
      "velocity": 0.71,
      "hand": "right"
    },
    {
      "midi": 56,
      "time": 163.125,
      "duration": 0.208,
      "velocity": 0.71,
      "hand": "left"
    },
    {
      "midi": 85,
      "time": 163.229,
      "duration": 0.104,
      "velocity": 0.71,
      "hand": "right"
    },
    {
      "midi": 59,
      "time": 163.333,
      "duration": 0.208,
      "velocity": 0.71,
      "hand": "left"
    },
    {
      "midi": 88,
      "time": 163.333,
      "duration": 0.104,
      "velocity": 0.71,
      "hand": "right"
    },
    {
      "midi": 83,
      "time": 163.438,
      "duration": 0.104,
      "velocity": 0.71,
      "hand": "right"
    },
    {
      "midi": 56,
      "time": 163.542,
      "duration": 0.208,
      "velocity": 0.71,
      "hand": "left"
    },
    {
      "midi": 85,
      "time": 163.646,
      "duration": 0.104,
      "velocity": 0.71,
      "hand": "right"
    },
    {
      "midi": 52,
      "time": 163.75,
      "duration": 0.208,
      "velocity": 0.71,
      "hand": "left"
    },
    {
      "midi": 80,
      "time": 163.75,
      "duration": 0.104,
      "velocity": 0.71,
      "hand": "right"
    },
    {
      "midi": 83,
      "time": 163.854,
      "duration": 0.104,
      "velocity": 0.71,
      "hand": "right"
    },
    {
      "midi": 59,
      "time": 163.958,
      "duration": 0.208,
      "velocity": 0.71,
      "hand": "left"
    },
    {
      "midi": 78,
      "time": 164.063,
      "duration": 0.104,
      "velocity": 0.71,
      "hand": "right"
    },
    {
      "midi": 40,
      "time": 164.167,
      "duration": 0.208,
      "velocity": 0.71,
      "hand": "left"
    },
    {
      "midi": 80,
      "time": 164.167,
      "duration": 0.104,
      "velocity": 0.71,
      "hand": "right"
    },
    {
      "midi": 76,
      "time": 164.271,
      "duration": 0.104,
      "velocity": 0.71,
      "hand": "right"
    },
    {
      "midi": 49,
      "time": 164.375,
      "duration": 0.208,
      "velocity": 0.71,
      "hand": "left"
    },
    {
      "midi": 80,
      "time": 164.479,
      "duration": 0.104,
      "velocity": 0.71,
      "hand": "right"
    },
    {
      "midi": 52,
      "time": 164.583,
      "duration": 0.208,
      "velocity": 0.71,
      "hand": "left"
    },
    {
      "midi": 75,
      "time": 164.583,
      "duration": 0.833,
      "velocity": 0.71,
      "hand": "right"
    },
    {
      "midi": 56,
      "time": 164.792,
      "duration": 0.208,
      "velocity": 0.71,
      "hand": "left"
    },
    {
      "midi": 61,
      "time": 165,
      "duration": 0.208,
      "velocity": 0.71,
      "hand": "right"
    },
    {
      "midi": 56,
      "time": 165.208,
      "duration": 0.208,
      "velocity": 0.71,
      "hand": "left"
    },
    {
      "midi": 52,
      "time": 165.417,
      "duration": 0.208,
      "velocity": 0.71,
      "hand": "left"
    },
    {
      "midi": 73,
      "time": 165.417,
      "duration": 0.417,
      "velocity": 0.71,
      "hand": "right"
    },
    {
      "midi": 49,
      "time": 165.625,
      "duration": 0.208,
      "velocity": 0.71,
      "hand": "left"
    },
    {
      "midi": 40,
      "time": 165.833,
      "duration": 0.208,
      "velocity": 0.71,
      "hand": "left"
    },
    {
      "midi": 71,
      "time": 165.833,
      "duration": 0.417,
      "velocity": 0.71,
      "hand": "right"
    },
    {
      "midi": 47,
      "time": 166.042,
      "duration": 0.208,
      "velocity": 0.71,
      "hand": "left"
    },
    {
      "midi": 52,
      "time": 166.25,
      "duration": 0.208,
      "velocity": 0.71,
      "hand": "left"
    },
    {
      "midi": 76,
      "time": 166.25,
      "duration": 0.104,
      "velocity": 0.71,
      "hand": "right"
    },
    {
      "midi": 78,
      "time": 166.354,
      "duration": 0.104,
      "velocity": 0.71,
      "hand": "right"
    },
    {
      "midi": 56,
      "time": 166.458,
      "duration": 0.208,
      "velocity": 0.71,
      "hand": "left"
    },
    {
      "midi": 73,
      "time": 166.563,
      "duration": 0.104,
      "velocity": 0.71,
      "hand": "right"
    },
    {
      "midi": 59,
      "time": 166.667,
      "duration": 0.208,
      "velocity": 0.71,
      "hand": "left"
    },
    {
      "midi": 76,
      "time": 166.667,
      "duration": 0.104,
      "velocity": 0.71,
      "hand": "right"
    },
    {
      "midi": 71,
      "time": 166.771,
      "duration": 0.104,
      "velocity": 0.71,
      "hand": "right"
    },
    {
      "midi": 56,
      "time": 166.875,
      "duration": 0.208,
      "velocity": 0.71,
      "hand": "left"
    },
    {
      "midi": 73,
      "time": 166.979,
      "duration": 0.104,
      "velocity": 0.71,
      "hand": "right"
    },
    {
      "midi": 52,
      "time": 167.083,
      "duration": 0.208,
      "velocity": 0.71,
      "hand": "left"
    },
    {
      "midi": 68,
      "time": 167.083,
      "duration": 0.104,
      "velocity": 0.71,
      "hand": "right"
    },
    {
      "midi": 71,
      "time": 167.188,
      "duration": 0.104,
      "velocity": 0.71,
      "hand": "right"
    },
    {
      "midi": 59,
      "time": 167.292,
      "duration": 0.208,
      "velocity": 0.71,
      "hand": "left"
    },
    {
      "midi": 66,
      "time": 167.396,
      "duration": 0.104,
      "velocity": 0.71,
      "hand": "right"
    },
    {
      "midi": 40,
      "time": 167.5,
      "duration": 0.208,
      "velocity": 0.71,
      "hand": "left"
    },
    {
      "midi": 68,
      "time": 167.5,
      "duration": 0.104,
      "velocity": 0.71,
      "hand": "right"
    },
    {
      "midi": 64,
      "time": 167.604,
      "duration": 0.104,
      "velocity": 0.71,
      "hand": "right"
    },
    {
      "midi": 49,
      "time": 167.708,
      "duration": 0.208,
      "velocity": 0.71,
      "hand": "left"
    },
    {
      "midi": 68,
      "time": 167.813,
      "duration": 0.104,
      "velocity": 0.71,
      "hand": "right"
    },
    {
      "midi": 52,
      "time": 167.917,
      "duration": 0.208,
      "velocity": 0.71,
      "hand": "left"
    },
    {
      "midi": 63,
      "time": 167.917,
      "duration": 0.833,
      "velocity": 0.71,
      "hand": "right"
    },
    {
      "midi": 56,
      "time": 168.125,
      "duration": 0.208,
      "velocity": 0.71,
      "hand": "left"
    },
    {
      "midi": 61,
      "time": 168.333,
      "duration": 0.208,
      "velocity": 0.71,
      "hand": "right"
    },
    {
      "midi": 56,
      "time": 168.542,
      "duration": 0.208,
      "velocity": 0.71,
      "hand": "left"
    },
    {
      "midi": 52,
      "time": 168.75,
      "duration": 0.208,
      "velocity": 0.71,
      "hand": "left"
    },
    {
      "midi": 61,
      "time": 168.75,
      "duration": 0.417,
      "velocity": 0.71,
      "hand": "right"
    },
    {
      "midi": 49,
      "time": 168.958,
      "duration": 0.208,
      "velocity": 0.71,
      "hand": "left"
    },
    {
      "midi": 40,
      "time": 169.167,
      "duration": 0.417,
      "velocity": 0.71,
      "hand": "left"
    },
    {
      "midi": 59,
      "time": 169.271,
      "duration": 0.104,
      "velocity": 0.71,
      "hand": "left"
    },
    {
      "midi": 52,
      "time": 169.479,
      "duration": 0.104,
      "velocity": 0.71,
      "hand": "left"
    },
    {
      "midi": 47,
      "time": 169.583,
      "duration": 0.417,
      "velocity": 0.71,
      "hand": "left"
    },
    {
      "midi": 61,
      "time": 169.688,
      "duration": 0.104,
      "velocity": 0.71,
      "hand": "right"
    },
    {
      "midi": 56,
      "time": 169.896,
      "duration": 0.104,
      "velocity": 0.71,
      "hand": "left"
    },
    {
      "midi": 52,
      "time": 170,
      "duration": 0.417,
      "velocity": 0.71,
      "hand": "left"
    },
    {
      "midi": 64,
      "time": 170.104,
      "duration": 0.104,
      "velocity": 0.71,
      "hand": "right"
    },
    {
      "midi": 59,
      "time": 170.313,
      "duration": 0.104,
      "velocity": 0.71,
      "hand": "left"
    },
    {
      "midi": 56,
      "time": 170.417,
      "duration": 0.417,
      "velocity": 0.71,
      "hand": "left"
    },
    {
      "midi": 66,
      "time": 170.521,
      "duration": 0.104,
      "velocity": 0.71,
      "hand": "right"
    },
    {
      "midi": 61,
      "time": 170.729,
      "duration": 0.104,
      "velocity": 0.71,
      "hand": "right"
    },
    {
      "midi": 52,
      "time": 170.833,
      "duration": 0.417,
      "velocity": 0.71,
      "hand": "left"
    },
    {
      "midi": 71,
      "time": 170.938,
      "duration": 0.104,
      "velocity": 0.71,
      "hand": "right"
    },
    {
      "midi": 64,
      "time": 171.146,
      "duration": 0.104,
      "velocity": 0.71,
      "hand": "right"
    },
    {
      "midi": 59,
      "time": 171.25,
      "duration": 0.417,
      "velocity": 0.71,
      "hand": "left"
    },
    {
      "midi": 73,
      "time": 171.354,
      "duration": 0.104,
      "velocity": 0.71,
      "hand": "right"
    },
    {
      "midi": 68,
      "time": 171.563,
      "duration": 0.104,
      "velocity": 0.71,
      "hand": "right"
    },
    {
      "midi": 64,
      "time": 171.667,
      "duration": 0.417,
      "velocity": 0.71,
      "hand": "right"
    },
    {
      "midi": 76,
      "time": 171.771,
      "duration": 0.104,
      "velocity": 0.71,
      "hand": "right"
    },
    {
      "midi": 71,
      "time": 171.979,
      "duration": 0.104,
      "velocity": 0.71,
      "hand": "right"
    },
    {
      "midi": 68,
      "time": 172.083,
      "duration": 0.417,
      "velocity": 0.71,
      "hand": "right"
    },
    {
      "midi": 78,
      "time": 172.188,
      "duration": 0.104,
      "velocity": 0.71,
      "hand": "right"
    },
    {
      "midi": 73,
      "time": 172.396,
      "duration": 0.104,
      "velocity": 0.71,
      "hand": "right"
    },
    {
      "midi": 64,
      "time": 172.5,
      "duration": 0.417,
      "velocity": 0.71,
      "hand": "right"
    },
    {
      "midi": 83,
      "time": 172.604,
      "duration": 0.104,
      "velocity": 0.71,
      "hand": "right"
    },
    {
      "midi": 76,
      "time": 172.813,
      "duration": 0.104,
      "velocity": 0.71,
      "hand": "right"
    },
    {
      "midi": 71,
      "time": 172.917,
      "duration": 0.417,
      "velocity": 0.71,
      "hand": "right"
    },
    {
      "midi": 85,
      "time": 173.021,
      "duration": 0.104,
      "velocity": 0.71,
      "hand": "right"
    },
    {
      "midi": 80,
      "time": 173.229,
      "duration": 0.104,
      "velocity": 0.71,
      "hand": "right"
    },
    {
      "midi": 76,
      "time": 173.333,
      "duration": 0.417,
      "velocity": 0.71,
      "hand": "right"
    },
    {
      "midi": 88,
      "time": 173.438,
      "duration": 0.104,
      "velocity": 0.71,
      "hand": "right"
    },
    {
      "midi": 83,
      "time": 173.646,
      "duration": 0.104,
      "velocity": 0.71,
      "hand": "right"
    },
    {
      "midi": 80,
      "time": 173.75,
      "duration": 0.417,
      "velocity": 0.71,
      "hand": "right"
    },
    {
      "midi": 90,
      "time": 173.854,
      "duration": 0.104,
      "velocity": 0.71,
      "hand": "right"
    },
    {
      "midi": 85,
      "time": 174.063,
      "duration": 0.104,
      "velocity": 0.71,
      "hand": "right"
    },
    {
      "midi": 76,
      "time": 174.167,
      "duration": 0.417,
      "velocity": 0.71,
      "hand": "right"
    },
    {
      "midi": 83,
      "time": 174.167,
      "duration": 0.417,
      "velocity": 0.71,
      "hand": "right"
    },
    {
      "midi": 88,
      "time": 174.167,
      "duration": 0.417,
      "velocity": 0.71,
      "hand": "right"
    },
    {
      "midi": 92,
      "time": 174.167,
      "duration": 0.417,
      "velocity": 0.71,
      "hand": "right"
    },
    {
      "midi": 76,
      "time": 174.583,
      "duration": 0.833,
      "velocity": 0.71,
      "hand": "right"
    },
    {
      "midi": 83,
      "time": 174.583,
      "duration": 0.833,
      "velocity": 0.71,
      "hand": "right"
    },
    {
      "midi": 88,
      "time": 174.583,
      "duration": 0.833,
      "velocity": 0.71,
      "hand": "right"
    },
    {
      "midi": 92,
      "time": 174.583,
      "duration": 0.833,
      "velocity": 0.71,
      "hand": "right"
    },
    {
      "midi": 76,
      "time": 175.417,
      "duration": 0.417,
      "velocity": 0.71,
      "hand": "right"
    },
    {
      "midi": 83,
      "time": 175.417,
      "duration": 0.417,
      "velocity": 0.71,
      "hand": "right"
    },
    {
      "midi": 88,
      "time": 175.417,
      "duration": 0.417,
      "velocity": 0.71,
      "hand": "right"
    },
    {
      "midi": 92,
      "time": 175.417,
      "duration": 0.417,
      "velocity": 0.71,
      "hand": "right"
    },
    {
      "midi": 40,
      "time": 175.833,
      "duration": 0.417,
      "velocity": 0.71,
      "hand": "left"
    },
    {
      "midi": 52,
      "time": 175.833,
      "duration": 0.417,
      "velocity": 0.71,
      "hand": "left"
    },
    {
      "midi": 64,
      "time": 175.833,
      "duration": 0.417,
      "velocity": 0.71,
      "hand": "right"
    }
  ],
  "arrangements": {
    "easy": [
      {
        "midi": 61,
        "time": 0,
        "duration": 0.208,
        "velocity": 0.71,
        "hand": "right"
      },
      {
        "midi": 69,
        "time": 0.313,
        "duration": 0.208,
        "velocity": 0.71,
        "hand": "right"
      },
      {
        "midi": 78,
        "time": 0.729,
        "duration": 0.208,
        "velocity": 0.71,
        "hand": "right"
      },
      {
        "midi": 75,
        "time": 0.938,
        "duration": 0.208,
        "velocity": 0.71,
        "hand": "right"
      },
      {
        "midi": 68,
        "time": 1.25,
        "duration": 0.208,
        "velocity": 0.71,
        "hand": "right"
      },
      {
        "midi": 61,
        "time": 1.771,
        "duration": 0.208,
        "velocity": 0.71,
        "hand": "right"
      },
      {
        "midi": 69,
        "time": 2.083,
        "duration": 0.208,
        "velocity": 0.71,
        "hand": "right"
      },
      {
        "midi": 75,
        "time": 2.396,
        "duration": 0.208,
        "velocity": 0.71,
        "hand": "right"
      },
      {
        "midi": 68,
        "time": 2.813,
        "duration": 0.208,
        "velocity": 0.71,
        "hand": "right"
      },
      {
        "midi": 61,
        "time": 3.646,
        "duration": 0.417,
        "velocity": 0.71,
        "hand": "right"
      },
      {
        "midi": 69,
        "time": 4.063,
        "duration": 0.521,
        "velocity": 0.71,
        "hand": "right"
      },
      {
        "midi": 61,
        "time": 4.479,
        "duration": 0.417,
        "velocity": 0.71,
        "hand": "right"
      },
      {
        "midi": 66,
        "time": 4.688,
        "duration": 0.208,
        "velocity": 0.71,
        "hand": "right"
      },
      {
        "midi": 61,
        "time": 5.313,
        "duration": 0.417,
        "velocity": 0.71,
        "hand": "right"
      },
      {
        "midi": 69,
        "time": 5.729,
        "duration": 0.521,
        "velocity": 0.71,
        "hand": "right"
      },
      {
        "midi": 64,
        "time": 6.146,
        "duration": 0.417,
        "velocity": 0.71,
        "hand": "right"
      },
      {
        "midi": 73,
        "time": 6.563,
        "duration": 0.208,
        "velocity": 0.71,
        "hand": "right"
      },
      {
        "midi": 81,
        "time": 7.083,
        "duration": 0.938,
        "velocity": 0.71,
        "hand": "right"
      },
      {
        "midi": 66,
        "time": 7.396,
        "duration": 0.208,
        "velocity": 0.71,
        "hand": "right"
      },
      {
        "midi": 75,
        "time": 7.813,
        "duration": 0.208,
        "velocity": 0.71,
        "hand": "right"
      },
      {
        "midi": 78,
        "time": 8.229,
        "duration": 0.208,
        "velocity": 0.71,
        "hand": "right"
      },
      {
        "midi": 76,
        "time": 8.75,
        "duration": 0.208,
        "velocity": 0.71,
        "hand": "right"
      },
      {
        "midi": 73,
        "time": 9.063,
        "duration": 0.208,
        "velocity": 0.71,
        "hand": "right"
      },
      {
        "midi": 73,
        "time": 9.479,
        "duration": 0.208,
        "velocity": 0.71,
        "hand": "right"
      },
      {
        "midi": 71,
        "time": 9.688,
        "duration": 0.208,
        "velocity": 0.71,
        "hand": "right"
      },
      {
        "midi": 68,
        "time": 10,
        "duration": 0.208,
        "velocity": 0.71,
        "hand": "right"
      },
      {
        "midi": 68,
        "time": 10.313,
        "duration": 0.208,
        "velocity": 0.71,
        "hand": "right"
      },
      {
        "midi": 61,
        "time": 10.833,
        "duration": 0.208,
        "velocity": 0.71,
        "hand": "right"
      },
      {
        "midi": 61,
        "time": 11.25,
        "duration": 0.417,
        "velocity": 0.71,
        "hand": "right"
      },
      {
        "midi": 76,
        "time": 12.083,
        "duration": 0.208,
        "velocity": 0.71,
        "hand": "right"
      },
      {
        "midi": 73,
        "time": 12.396,
        "duration": 0.208,
        "velocity": 0.71,
        "hand": "right"
      },
      {
        "midi": 73,
        "time": 12.813,
        "duration": 0.208,
        "velocity": 0.71,
        "hand": "right"
      },
      {
        "midi": 66,
        "time": 13.229,
        "duration": 0.208,
        "velocity": 0.71,
        "hand": "right"
      },
      {
        "midi": 64,
        "time": 13.438,
        "duration": 0.208,
        "velocity": 0.71,
        "hand": "right"
      },
      {
        "midi": 63,
        "time": 13.75,
        "duration": 0.833,
        "velocity": 0.71,
        "hand": "right"
      },
      {
        "midi": 61,
        "time": 14.167,
        "duration": 0.208,
        "velocity": 0.71,
        "hand": "right"
      },
      {
        "midi": 61,
        "time": 14.583,
        "duration": 0.417,
        "velocity": 0.71,
        "hand": "right"
      },
      {
        "midi": 61,
        "time": 15.417,
        "duration": 0.625,
        "velocity": 0.71,
        "hand": "right"
      },
      {
        "midi": 64,
        "time": 16.042,
        "duration": 0.208,
        "velocity": 0.71,
        "hand": "right"
      },
      {
        "midi": 64,
        "time": 16.458,
        "duration": 0.208,
        "velocity": 0.71,
        "hand": "right"
      },
      {
        "midi": 61,
        "time": 16.667,
        "duration": 0.417,
        "velocity": 0.71,
        "hand": "right"
      },
      {
        "midi": 68,
        "time": 17.083,
        "duration": 0.833,
        "velocity": 0.71,
        "hand": "right"
      },
      {
        "midi": 64,
        "time": 17.917,
        "duration": 0.417,
        "velocity": 0.71,
        "hand": "right"
      },
      {
        "midi": 63,
        "time": 18.333,
        "duration": 0.208,
        "velocity": 0.71,
        "hand": "right"
      },
      {
        "midi": 63,
        "time": 18.646,
        "duration": 0.208,
        "velocity": 0.71,
        "hand": "right"
      },
      {
        "midi": 61,
        "time": 19.167,
        "duration": 0.208,
        "velocity": 0.71,
        "hand": "right"
      },
      {
        "midi": 66,
        "time": 19.583,
        "duration": 0.208,
        "velocity": 0.71,
        "hand": "right"
      },
      {
        "midi": 68,
        "time": 19.792,
        "duration": 0.208,
        "velocity": 0.71,
        "hand": "right"
      },
      {
        "midi": 73,
        "time": 20.417,
        "duration": 0.833,
        "velocity": 0.71,
        "hand": "right"
      },
      {
        "midi": 70,
        "time": 21.25,
        "duration": 0.208,
        "velocity": 0.71,
        "hand": "right"
      },
      {
        "midi": 70,
        "time": 21.563,
        "duration": 0.208,
        "velocity": 0.71,
        "hand": "right"
      },
      {
        "midi": 76,
        "time": 22.083,
        "duration": 0.833,
        "velocity": 0.71,
        "hand": "right"
      },
      {
        "midi": 68,
        "time": 22.292,
        "duration": 0.208,
        "velocity": 0.71,
        "hand": "right"
      },
      {
        "midi": 61,
        "time": 22.708,
        "duration": 0.208,
        "velocity": 0.71,
        "hand": "right"
      },
      {
        "midi": 73,
        "time": 22.917,
        "duration": 0.208,
        "velocity": 0.71,
        "hand": "right"
      },
      {
        "midi": 73,
        "time": 23.229,
        "duration": 0.208,
        "velocity": 0.71,
        "hand": "right"
      },
      {
        "midi": 64,
        "time": 23.542,
        "duration": 0.208,
        "velocity": 0.71,
        "hand": "right"
      },
      {
        "midi": 78,
        "time": 23.958,
        "duration": 0.208,
        "velocity": 0.71,
        "hand": "right"
      },
      {
        "midi": 80,
        "time": 24.167,
        "duration": 0.625,
        "velocity": 0.71,
        "hand": "right"
      },
      {
        "midi": 70,
        "time": 24.583,
        "duration": 0.208,
        "velocity": 0.71,
        "hand": "right"
      },
      {
        "midi": 78,
        "time": 24.792,
        "duration": 0.208,
        "velocity": 0.71,
        "hand": "right"
      },
      {
        "midi": 64,
        "time": 25.208,
        "duration": 0.208,
        "velocity": 0.71,
        "hand": "right"
      },
      {
        "midi": 68,
        "time": 25.417,
        "duration": 0.208,
        "velocity": 0.71,
        "hand": "right"
      },
      {
        "midi": 80,
        "time": 25.833,
        "duration": 0.208,
        "velocity": 0.71,
        "hand": "right"
      },
      {
        "midi": 78,
        "time": 26.042,
        "duration": 0.417,
        "velocity": 0.71,
        "hand": "right"
      },
      {
        "midi": 80,
        "time": 26.458,
        "duration": 0.208,
        "velocity": 0.71,
        "hand": "right"
      },
      {
        "midi": 81,
        "time": 26.667,
        "duration": 0.833,
        "velocity": 0.71,
        "hand": "right"
      },
      {
        "midi": 69,
        "time": 26.979,
        "duration": 0.208,
        "velocity": 0.71,
        "hand": "right"
      },
      {
        "midi": 76,
        "time": 27.188,
        "duration": 0.208,
        "velocity": 0.71,
        "hand": "right"
      },
      {
        "midi": 80,
        "time": 27.5,
        "duration": 0.833,
        "velocity": 0.71,
        "hand": "right"
      },
      {
        "midi": 71,
        "time": 27.813,
        "duration": 0.208,
        "velocity": 0.71,
        "hand": "right"
      },
      {
        "midi": 78,
        "time": 28.333,
        "duration": 0.833,
        "velocity": 0.71,
        "hand": "right"
      },
      {
        "midi": 66,
        "time": 28.646,
        "duration": 0.208,
        "velocity": 0.71,
        "hand": "right"
      },
      {
        "midi": 75,
        "time": 29.063,
        "duration": 0.208,
        "velocity": 0.71,
        "hand": "right"
      },
      {
        "midi": 68,
        "time": 29.479,
        "duration": 0.208,
        "velocity": 0.71,
        "hand": "right"
      },
      {
        "midi": 75,
        "time": 30,
        "duration": 0.833,
        "velocity": 0.71,
        "hand": "right"
      },
      {
        "midi": 63,
        "time": 30.313,
        "duration": 0.208,
        "velocity": 0.71,
        "hand": "right"
      },
      {
        "midi": 61,
        "time": 30.729,
        "duration": 0.208,
        "velocity": 0.71,
        "hand": "right"
      },
      {
        "midi": 80,
        "time": 31.25,
        "duration": 0.208,
        "velocity": 0.71,
        "hand": "right"
      },
      {
        "midi": 61,
        "time": 31.563,
        "duration": 0.208,
        "velocity": 0.71,
        "hand": "right"
      },
      {
        "midi": 63,
        "time": 31.979,
        "duration": 0.208,
        "velocity": 0.71,
        "hand": "right"
      },
      {
        "midi": 73,
        "time": 32.708,
        "duration": 0.208,
        "velocity": 0.71,
        "hand": "right"
      },
      {
        "midi": 76,
        "time": 32.917,
        "duration": 0.208,
        "velocity": 0.71,
        "hand": "right"
      },
      {
        "midi": 71,
        "time": 33.333,
        "duration": 1.042,
        "velocity": 0.71,
        "hand": "right"
      },
      {
        "midi": 66,
        "time": 33.75,
        "duration": 0.208,
        "velocity": 0.71,
        "hand": "right"
      },
      {
        "midi": 69,
        "time": 34.375,
        "duration": 0.208,
        "velocity": 0.71,
        "hand": "right"
      },
      {
        "midi": 76,
        "time": 34.792,
        "duration": 0.208,
        "velocity": 0.71,
        "hand": "right"
      },
      {
        "midi": 63,
        "time": 35.417,
        "duration": 0.208,
        "velocity": 0.71,
        "hand": "right"
      },
      {
        "midi": 69,
        "time": 35.938,
        "duration": 0.208,
        "velocity": 0.71,
        "hand": "right"
      },
      {
        "midi": 76,
        "time": 36.25,
        "duration": 0.208,
        "velocity": 0.71,
        "hand": "right"
      },
      {
        "midi": 78,
        "time": 36.563,
        "duration": 0.208,
        "velocity": 0.71,
        "hand": "right"
      },
      {
        "midi": 68,
        "time": 37.083,
        "duration": 0.417,
        "velocity": 0.71,
        "hand": "right"
      },
      {
        "midi": 66,
        "time": 37.708,
        "duration": 0.208,
        "velocity": 0.71,
        "hand": "right"
      },
      {
        "midi": 69,
        "time": 37.917,
        "duration": 0.208,
        "velocity": 0.71,
        "hand": "right"
      },
      {
        "midi": 64,
        "time": 38.333,
        "duration": 0.833,
        "velocity": 0.71,
        "hand": "right"
      },
      {
        "midi": 62,
        "time": 38.75,
        "duration": 0.208,
        "velocity": 0.71,
        "hand": "right"
      },
      {
        "midi": 66,
        "time": 39.271,
        "duration": 0.208,
        "velocity": 0.71,
        "hand": "right"
      },
      {
        "midi": 73,
        "time": 39.583,
        "duration": 0.208,
        "velocity": 0.71,
        "hand": "right"
      },
      {
        "midi": 74,
        "time": 39.896,
        "duration": 0.208,
        "velocity": 0.71,
        "hand": "right"
      },
      {
        "midi": 66,
        "time": 40.417,
        "duration": 0.833,
        "velocity": 0.71,
        "hand": "right"
      },
      {
        "midi": 62,
        "time": 41.25,
        "duration": 0.417,
        "velocity": 0.71,
        "hand": "right"
      },
      {
        "midi": 61,
        "time": 41.667,
        "duration": 2.083,
        "velocity": 0.71,
        "hand": "right"
      },
      {
        "midi": 61,
        "time": 43.75,
        "duration": 0.417,
        "velocity": 0.71,
        "hand": "right"
      },
      {
        "midi": 64,
        "time": 44.167,
        "duration": 0.417,
        "velocity": 0.71,
        "hand": "right"
      },
      {
        "midi": 61,
        "time": 44.583,
        "duration": 0.417,
        "velocity": 0.71,
        "hand": "right"
      },
      {
        "midi": 66,
        "time": 45,
        "duration": 2.083,
        "velocity": 0.71,
        "hand": "right"
      },
      {
        "midi": 61,
        "time": 45.729,
        "duration": 0.208,
        "velocity": 0.71,
        "hand": "right"
      },
      {
        "midi": 61,
        "time": 46.25,
        "duration": 0.208,
        "velocity": 0.71,
        "hand": "right"
      },
      {
        "midi": 61,
        "time": 46.667,
        "duration": 0.833,
        "velocity": 0.71,
        "hand": "right"
      },
      {
        "midi": 66,
        "time": 47.083,
        "duration": 0.417,
        "velocity": 0.71,
        "hand": "right"
      },
      {
        "midi": 69,
        "time": 47.5,
        "duration": 0.417,
        "velocity": 0.71,
        "hand": "right"
      },
      {
        "midi": 66,
        "time": 47.917,
        "duration": 0.417,
        "velocity": 0.71,
        "hand": "right"
      },
      {
        "midi": 71,
        "time": 48.333,
        "duration": 0.417,
        "velocity": 0.71,
        "hand": "right"
      },
      {
        "midi": 68,
        "time": 48.75,
        "duration": 0.417,
        "velocity": 0.71,
        "hand": "right"
      },
      {
        "midi": 71,
        "time": 49.167,
        "duration": 0.417,
        "velocity": 0.71,
        "hand": "right"
      },
      {
        "midi": 68,
        "time": 49.583,
        "duration": 0.417,
        "velocity": 0.71,
        "hand": "right"
      },
      {
        "midi": 73,
        "time": 50,
        "duration": 2.083,
        "velocity": 0.71,
        "hand": "right"
      },
      {
        "midi": 61,
        "time": 50.833,
        "duration": 0.208,
        "velocity": 0.71,
        "hand": "right"
      },
      {
        "midi": 66,
        "time": 51.146,
        "duration": 0.208,
        "velocity": 0.71,
        "hand": "right"
      },
      {
        "midi": 66,
        "time": 51.563,
        "duration": 0.208,
        "velocity": 0.71,
        "hand": "right"
      },
      {
        "midi": 69,
        "time": 52.083,
        "duration": 0.417,
        "velocity": 0.71,
        "hand": "right"
      },
      {
        "midi": 71,
        "time": 52.5,
        "duration": 0.417,
        "velocity": 0.71,
        "hand": "right"
      },
      {
        "midi": 73,
        "time": 52.917,
        "duration": 0.417,
        "velocity": 0.71,
        "hand": "right"
      },
      {
        "midi": 73,
        "time": 53.333,
        "duration": 2.083,
        "velocity": 0.71,
        "hand": "right"
      },
      {
        "midi": 61,
        "time": 54.167,
        "duration": 0.208,
        "velocity": 0.71,
        "hand": "right"
      },
      {
        "midi": 66,
        "time": 54.479,
        "duration": 0.208,
        "velocity": 0.71,
        "hand": "right"
      },
      {
        "midi": 68,
        "time": 54.688,
        "duration": 0.208,
        "velocity": 0.71,
        "hand": "right"
      },
      {
        "midi": 64,
        "time": 55,
        "duration": 0.833,
        "velocity": 0.71,
        "hand": "right"
      },
      {
        "midi": 69,
        "time": 55.417,
        "duration": 0.417,
        "velocity": 0.71,
        "hand": "right"
      },
      {
        "midi": 71,
        "time": 55.833,
        "duration": 0.417,
        "velocity": 0.71,
        "hand": "right"
      },
      {
        "midi": 66,
        "time": 56.146,
        "duration": 0.208,
        "velocity": 0.71,
        "hand": "right"
      },
      {
        "midi": 68,
        "time": 56.563,
        "duration": 0.208,
        "velocity": 0.71,
        "hand": "right"
      },
      {
        "midi": 69,
        "time": 56.979,
        "duration": 0.208,
        "velocity": 0.71,
        "hand": "right"
      },
      {
        "midi": 68,
        "time": 57.188,
        "duration": 0.208,
        "velocity": 0.71,
        "hand": "right"
      },
      {
        "midi": 78,
        "time": 57.5,
        "duration": 0.417,
        "velocity": 0.71,
        "hand": "right"
      },
      {
        "midi": 73,
        "time": 57.813,
        "duration": 0.208,
        "velocity": 0.71,
        "hand": "right"
      },
      {
        "midi": 75,
        "time": 58.229,
        "duration": 0.208,
        "velocity": 0.71,
        "hand": "right"
      },
      {
        "midi": 73,
        "time": 58.438,
        "duration": 0.208,
        "velocity": 0.71,
        "hand": "right"
      },
      {
        "midi": 83,
        "time": 58.75,
        "duration": 0.417,
        "velocity": 0.71,
        "hand": "right"
      },
      {
        "midi": 78,
        "time": 59.063,
        "duration": 0.208,
        "velocity": 0.71,
        "hand": "right"
      },
      {
        "midi": 80,
        "time": 59.479,
        "duration": 0.208,
        "velocity": 0.71,
        "hand": "right"
      },
      {
        "midi": 78,
        "time": 59.688,
        "duration": 0.208,
        "velocity": 0.71,
        "hand": "right"
      },
      {
        "midi": 90,
        "time": 60,
        "duration": 0.833,
        "velocity": 0.71,
        "hand": "right"
      },
      {
        "midi": 88,
        "time": 60.833,
        "duration": 0.833,
        "velocity": 0.71,
        "hand": "right"
      },
      {
        "midi": 64,
        "time": 61.25,
        "duration": 0.208,
        "velocity": 0.71,
        "hand": "right"
      },
      {
        "midi": 76,
        "time": 61.667,
        "duration": 1.771,
        "velocity": 0.71,
        "hand": "right"
      },
      {
        "midi": 64,
        "time": 62.5,
        "duration": 0.833,
        "velocity": 0.71,
        "hand": "right"
      },
      {
        "midi": 69,
        "time": 63.333,
        "duration": 1.25,
        "velocity": 0.71,
        "hand": "right"
      },
      {
        "midi": 61,
        "time": 63.542,
        "duration": 0.208,
        "velocity": 0.71,
        "hand": "right"
      },
      {
        "midi": 71,
        "time": 64.375,
        "duration": 0.208,
        "velocity": 0.71,
        "hand": "right"
      },
      {
        "midi": 73,
        "time": 64.792,
        "duration": 0.208,
        "velocity": 0.71,
        "hand": "right"
      },
      {
        "midi": 66,
        "time": 65.417,
        "duration": 0.833,
        "velocity": 0.71,
        "hand": "right"
      },
      {
        "midi": 68,
        "time": 66.25,
        "duration": 0.417,
        "velocity": 0.71,
        "hand": "right"
      },
      {
        "midi": 66,
        "time": 66.667,
        "duration": 0.208,
        "velocity": 0.71,
        "hand": "right"
      },
      {
        "midi": 78,
        "time": 67.083,
        "duration": 0.833,
        "velocity": 0.71,
        "hand": "right"
      },
      {
        "midi": 76,
        "time": 67.917,
        "duration": 0.417,
        "velocity": 0.71,
        "hand": "right"
      },
      {
        "midi": 66,
        "time": 68.333,
        "duration": 0.208,
        "velocity": 0.71,
        "hand": "right"
      },
      {
        "midi": 64,
        "time": 68.542,
        "duration": 0.208,
        "velocity": 0.71,
        "hand": "right"
      },
      {
        "midi": 83,
        "time": 69.375,
        "duration": 0.208,
        "velocity": 0.71,
        "hand": "right"
      },
      {
        "midi": 78,
        "time": 69.792,
        "duration": 0.208,
        "velocity": 0.71,
        "hand": "right"
      },
      {
        "midi": 74,
        "time": 70.104,
        "duration": 0.208,
        "velocity": 0.71,
        "hand": "right"
      },
      {
        "midi": 76,
        "time": 70.313,
        "duration": 0.208,
        "velocity": 0.71,
        "hand": "right"
      },
      {
        "midi": 71,
        "time": 71.042,
        "duration": 0.208,
        "velocity": 0.71,
        "hand": "right"
      },
      {
        "midi": 73,
        "time": 71.458,
        "duration": 0.208,
        "velocity": 0.71,
        "hand": "right"
      },
      {
        "midi": 69,
        "time": 71.667,
        "duration": 0.417,
        "velocity": 0.71,
        "hand": "right"
      },
      {
        "midi": 66,
        "time": 72.083,
        "duration": 0.625,
        "velocity": 0.71,
        "hand": "right"
      },
      {
        "midi": 63,
        "time": 72.5,
        "duration": 0.417,
        "velocity": 0.71,
        "hand": "right"
      },
      {
        "midi": 66,
        "time": 72.917,
        "duration": 0.208,
        "velocity": 0.71,
        "hand": "right"
      },
      {
        "midi": 66,
        "time": 73.333,
        "duration": 0.208,
        "velocity": 0.71,
        "hand": "right"
      },
      {
        "midi": 61,
        "time": 73.75,
        "duration": 0.833,
        "velocity": 0.71,
        "hand": "right"
      },
      {
        "midi": 64,
        "time": 74.583,
        "duration": 0.417,
        "velocity": 0.71,
        "hand": "right"
      },
      {
        "midi": 64,
        "time": 75,
        "duration": 1.25,
        "velocity": 0.71,
        "hand": "right"
      },
      {
        "midi": 61,
        "time": 77.083,
        "duration": 0.208,
        "velocity": 0.71,
        "hand": "right"
      },
      {
        "midi": 62,
        "time": 77.813,
        "duration": 0.208,
        "velocity": 0.71,
        "hand": "right"
      },
      {
        "midi": 62,
        "time": 78.229,
        "duration": 0.208,
        "velocity": 0.71,
        "hand": "right"
      },
      {
        "midi": 64,
        "time": 78.438,
        "duration": 0.208,
        "velocity": 0.71,
        "hand": "right"
      },
      {
        "midi": 71,
        "time": 78.75,
        "duration": 0.208,
        "velocity": 0.71,
        "hand": "right"
      },
      {
        "midi": 68,
        "time": 79.063,
        "duration": 0.208,
        "velocity": 0.71,
        "hand": "right"
      },
      {
        "midi": 73,
        "time": 79.479,
        "duration": 0.208,
        "velocity": 0.71,
        "hand": "right"
      },
      {
        "midi": 74,
        "time": 79.688,
        "duration": 0.208,
        "velocity": 0.71,
        "hand": "right"
      },
      {
        "midi": 71,
        "time": 80,
        "duration": 0.208,
        "velocity": 0.71,
        "hand": "right"
      },
      {
        "midi": 78,
        "time": 80.313,
        "duration": 0.208,
        "velocity": 0.71,
        "hand": "right"
      },
      {
        "midi": 74,
        "time": 80.833,
        "duration": 0.417,
        "velocity": 0.71,
        "hand": "right"
      },
      {
        "midi": 80,
        "time": 81.042,
        "duration": 0.208,
        "velocity": 0.71,
        "hand": "right"
      },
      {
        "midi": 76,
        "time": 81.458,
        "duration": 0.208,
        "velocity": 0.71,
        "hand": "right"
      },
      {
        "midi": 78,
        "time": 81.667,
        "duration": 0.208,
        "velocity": 0.71,
        "hand": "right"
      },
      {
        "midi": 74,
        "time": 82.083,
        "duration": 0.208,
        "velocity": 0.71,
        "hand": "right"
      },
      {
        "midi": 74,
        "time": 82.5,
        "duration": 0.208,
        "velocity": 0.71,
        "hand": "right"
      },
      {
        "midi": 71,
        "time": 82.917,
        "duration": 0.208,
        "velocity": 0.71,
        "hand": "right"
      },
      {
        "midi": 61,
        "time": 83.75,
        "duration": 0.208,
        "velocity": 0.71,
        "hand": "right"
      },
      {
        "midi": 62,
        "time": 84.479,
        "duration": 0.208,
        "velocity": 0.71,
        "hand": "right"
      },
      {
        "midi": 64,
        "time": 84.688,
        "duration": 0.208,
        "velocity": 0.71,
        "hand": "right"
      },
      {
        "midi": 61,
        "time": 85,
        "duration": 0.208,
        "velocity": 0.71,
        "hand": "right"
      },
      {
        "midi": 68,
        "time": 85.313,
        "duration": 0.208,
        "velocity": 0.71,
        "hand": "right"
      },
      {
        "midi": 68,
        "time": 85.729,
        "duration": 0.208,
        "velocity": 0.71,
        "hand": "right"
      },
      {
        "midi": 69,
        "time": 85.938,
        "duration": 0.208,
        "velocity": 0.71,
        "hand": "right"
      },
      {
        "midi": 76,
        "time": 86.25,
        "duration": 0.208,
        "velocity": 0.71,
        "hand": "right"
      },
      {
        "midi": 73,
        "time": 86.563,
        "duration": 0.208,
        "velocity": 0.71,
        "hand": "right"
      },
      {
        "midi": 78,
        "time": 86.979,
        "duration": 0.208,
        "velocity": 0.71,
        "hand": "right"
      },
      {
        "midi": 74,
        "time": 87.5,
        "duration": 0.833,
        "velocity": 0.71,
        "hand": "right"
      },
      {
        "midi": 78,
        "time": 87.917,
        "duration": 0.208,
        "velocity": 0.71,
        "hand": "right"
      },
      {
        "midi": 71,
        "time": 88.333,
        "duration": 0.208,
        "velocity": 0.71,
        "hand": "right"
      },
      {
        "midi": 78,
        "time": 88.646,
        "duration": 0.208,
        "velocity": 0.71,
        "hand": "right"
      },
      {
        "midi": 74,
        "time": 89.167,
        "duration": 0.833,
        "velocity": 0.71,
        "hand": "right"
      },
      {
        "midi": 78,
        "time": 89.583,
        "duration": 0.208,
        "velocity": 0.71,
        "hand": "right"
      },
      {
        "midi": 80,
        "time": 89.792,
        "duration": 0.208,
        "velocity": 0.71,
        "hand": "right"
      },
      {
        "midi": 74,
        "time": 90.104,
        "duration": 0.208,
        "velocity": 0.71,
        "hand": "right"
      },
      {
        "midi": 76,
        "time": 90.313,
        "duration": 0.208,
        "velocity": 0.71,
        "hand": "right"
      },
      {
        "midi": 66,
        "time": 90.833,
        "duration": 0.417,
        "velocity": 0.71,
        "hand": "right"
      },
      {
        "midi": 71,
        "time": 91.042,
        "duration": 0.208,
        "velocity": 0.71,
        "hand": "right"
      },
      {
        "midi": 73,
        "time": 91.458,
        "duration": 0.208,
        "velocity": 0.71,
        "hand": "right"
      },
      {
        "midi": 69,
        "time": 91.667,
        "duration": 0.417,
        "velocity": 0.71,
        "hand": "right"
      },
      {
        "midi": 66,
        "time": 92.083,
        "duration": 0.833,
        "velocity": 0.71,
        "hand": "right"
      },
      {
        "midi": 63,
        "time": 92.5,
        "duration": 0.833,
        "velocity": 0.71,
        "hand": "right"
      },
      {
        "midi": 68,
        "time": 92.917,
        "duration": 0.417,
        "velocity": 0.71,
        "hand": "right"
      },
      {
        "midi": 66,
        "time": 93.333,
        "duration": 0.208,
        "velocity": 0.71,
        "hand": "right"
      },
      {
        "midi": 64,
        "time": 93.542,
        "duration": 0.208,
        "velocity": 0.71,
        "hand": "right"
      },
      {
        "midi": 76,
        "time": 94.583,
        "duration": 0.417,
        "velocity": 0.71,
        "hand": "right"
      },
      {
        "midi": 66,
        "time": 95,
        "duration": 0.208,
        "velocity": 0.71,
        "hand": "right"
      },
      {
        "midi": 80,
        "time": 95.417,
        "duration": 0.625,
        "velocity": 0.71,
        "hand": "right"
      },
      {
        "midi": 83,
        "time": 96.042,
        "duration": 0.208,
        "velocity": 0.71,
        "hand": "right"
      },
      {
        "midi": 78,
        "time": 96.458,
        "duration": 0.208,
        "velocity": 0.71,
        "hand": "right"
      },
      {
        "midi": 76,
        "time": 96.667,
        "duration": 0.208,
        "velocity": 0.71,
        "hand": "right"
      },
      {
        "midi": 76,
        "time": 96.979,
        "duration": 0.208,
        "velocity": 0.71,
        "hand": "right"
      },
      {
        "midi": 71,
        "time": 97.708,
        "duration": 0.208,
        "velocity": 0.71,
        "hand": "right"
      },
      {
        "midi": 69,
        "time": 98.333,
        "duration": 0.417,
        "velocity": 0.71,
        "hand": "right"
      },
      {
        "midi": 68,
        "time": 98.75,
        "duration": 0.625,
        "velocity": 0.71,
        "hand": "right"
      },
      {
        "midi": 63,
        "time": 99.167,
        "duration": 0.417,
        "velocity": 0.71,
        "hand": "right"
      },
      {
        "midi": 66,
        "time": 99.583,
        "duration": 0.208,
        "velocity": 0.71,
        "hand": "right"
      },
      {
        "midi": 68,
        "time": 99.792,
        "duration": 0.208,
        "velocity": 0.71,
        "hand": "right"
      },
      {
        "midi": 64,
        "time": 100.104,
        "duration": 0.208,
        "velocity": 0.71,
        "hand": "right"
      },
      {
        "midi": 61,
        "time": 100.417,
        "duration": 0.833,
        "velocity": 0.71,
        "hand": "right"
      },
      {
        "midi": 64,
        "time": 101.25,
        "duration": 0.417,
        "velocity": 0.71,
        "hand": "right"
      },
      {
        "midi": 64,
        "time": 101.667,
        "duration": 1.25,
        "velocity": 0.71,
        "hand": "right"
      },
      {
        "midi": 67,
        "time": 103.333,
        "duration": 0.208,
        "velocity": 0.71,
        "hand": "right"
      },
      {
        "midi": 67,
        "time": 103.646,
        "duration": 0.208,
        "velocity": 0.71,
        "hand": "right"
      },
      {
        "midi": 62,
        "time": 104.583,
        "duration": 0.417,
        "velocity": 0.71,
        "hand": "right"
      },
      {
        "midi": 60,
        "time": 105,
        "duration": 0.417,
        "velocity": 0.71,
        "hand": "right"
      },
      {
        "midi": 60,
        "time": 106.25,
        "duration": 0.417,
        "velocity": 0.71,
        "hand": "right"
      },
      {
        "midi": 62,
        "time": 106.667,
        "duration": 0.417,
        "velocity": 0.71,
        "hand": "right"
      },
      {
        "midi": 65,
        "time": 107.083,
        "duration": 0.417,
        "velocity": 0.71,
        "hand": "right"
      },
      {
        "midi": 67,
        "time": 107.5,
        "duration": 0.417,
        "velocity": 0.71,
        "hand": "right"
      },
      {
        "midi": 69,
        "time": 107.917,
        "duration": 0.208,
        "velocity": 0.71,
        "hand": "right"
      },
      {
        "midi": 74,
        "time": 108.333,
        "duration": 0.833,
        "velocity": 0.71,
        "hand": "right"
      },
      {
        "midi": 67,
        "time": 109.167,
        "duration": 0.833,
        "velocity": 0.71,
        "hand": "right"
      },
      {
        "midi": 62,
        "time": 109.583,
        "duration": 0.208,
        "velocity": 0.71,
        "hand": "right"
      },
      {
        "midi": 65,
        "time": 109.792,
        "duration": 0.208,
        "velocity": 0.71,
        "hand": "right"
      },
      {
        "midi": 77,
        "time": 110.104,
        "duration": 0.208,
        "velocity": 0.71,
        "hand": "right"
      },
      {
        "midi": 79,
        "time": 110.313,
        "duration": 0.208,
        "velocity": 0.71,
        "hand": "right"
      },
      {
        "midi": 69,
        "time": 110.833,
        "duration": 0.833,
        "velocity": 0.71,
        "hand": "right"
      },
      {
        "midi": 74,
        "time": 111.25,
        "duration": 0.417,
        "velocity": 0.71,
        "hand": "right"
      },
      {
        "midi": 76,
        "time": 111.667,
        "duration": 0.833,
        "velocity": 0.71,
        "hand": "right"
      },
      {
        "midi": 77,
        "time": 112.5,
        "duration": 0.833,
        "velocity": 0.71,
        "hand": "right"
      },
      {
        "midi": 79,
        "time": 113.333,
        "duration": 0.208,
        "velocity": 0.71,
        "hand": "right"
      },
      {
        "midi": 79,
        "time": 113.646,
        "duration": 0.208,
        "velocity": 0.71,
        "hand": "right"
      },
      {
        "midi": 79,
        "time": 114.583,
        "duration": 0.417,
        "velocity": 0.71,
        "hand": "right"
      },
      {
        "midi": 80,
        "time": 115,
        "duration": 0.208,
        "velocity": 0.71,
        "hand": "right"
      },
      {
        "midi": 80,
        "time": 115.313,
        "duration": 0.208,
        "velocity": 0.71,
        "hand": "right"
      },
      {
        "midi": 73,
        "time": 115.833,
        "duration": 0.833,
        "velocity": 0.71,
        "hand": "right"
      },
      {
        "midi": 80,
        "time": 116.25,
        "duration": 0.417,
        "velocity": 0.71,
        "hand": "right"
      },
      {
        "midi": 81,
        "time": 116.667,
        "duration": 0.833,
        "velocity": 0.71,
        "hand": "right"
      },
      {
        "midi": 69,
        "time": 116.979,
        "duration": 0.208,
        "velocity": 0.71,
        "hand": "right"
      },
      {
        "midi": 76,
        "time": 117.188,
        "duration": 0.208,
        "velocity": 0.71,
        "hand": "right"
      },
      {
        "midi": 80,
        "time": 117.5,
        "duration": 0.833,
        "velocity": 0.71,
        "hand": "right"
      },
      {
        "midi": 71,
        "time": 117.813,
        "duration": 0.208,
        "velocity": 0.71,
        "hand": "right"
      },
      {
        "midi": 78,
        "time": 118.333,
        "duration": 0.833,
        "velocity": 0.71,
        "hand": "right"
      },
      {
        "midi": 66,
        "time": 118.646,
        "duration": 0.208,
        "velocity": 0.71,
        "hand": "right"
      },
      {
        "midi": 75,
        "time": 119.063,
        "duration": 0.208,
        "velocity": 0.71,
        "hand": "right"
      },
      {
        "midi": 68,
        "time": 119.479,
        "duration": 0.208,
        "velocity": 0.71,
        "hand": "right"
      },
      {
        "midi": 61,
        "time": 120.313,
        "duration": 0.417,
        "velocity": 0.71,
        "hand": "right"
      },
      {
        "midi": 69,
        "time": 120.729,
        "duration": 0.521,
        "velocity": 0.71,
        "hand": "right"
      },
      {
        "midi": 61,
        "time": 121.146,
        "duration": 0.417,
        "velocity": 0.71,
        "hand": "right"
      },
      {
        "midi": 69,
        "time": 121.563,
        "duration": 0.521,
        "velocity": 0.71,
        "hand": "right"
      },
      {
        "midi": 61,
        "time": 121.979,
        "duration": 0.417,
        "velocity": 0.71,
        "hand": "right"
      },
      {
        "midi": 66,
        "time": 122.188,
        "duration": 0.208,
        "velocity": 0.71,
        "hand": "right"
      },
      {
        "midi": 78,
        "time": 122.5,
        "duration": 0.417,
        "velocity": 0.71,
        "hand": "right"
      },
      {
        "midi": 64,
        "time": 122.813,
        "duration": 0.417,
        "velocity": 0.71,
        "hand": "right"
      },
      {
        "midi": 73,
        "time": 123.229,
        "duration": 0.208,
        "velocity": 0.71,
        "hand": "right"
      },
      {
        "midi": 81,
        "time": 123.75,
        "duration": 0.938,
        "velocity": 0.71,
        "hand": "right"
      },
      {
        "midi": 66,
        "time": 124.063,
        "duration": 0.208,
        "velocity": 0.71,
        "hand": "right"
      },
      {
        "midi": 75,
        "time": 124.479,
        "duration": 0.208,
        "velocity": 0.71,
        "hand": "right"
      },
      {
        "midi": 80,
        "time": 124.688,
        "duration": 0.208,
        "velocity": 0.71,
        "hand": "right"
      },
      {
        "midi": 76,
        "time": 125.417,
        "duration": 0.208,
        "velocity": 0.71,
        "hand": "right"
      },
      {
        "midi": 73,
        "time": 125.729,
        "duration": 0.208,
        "velocity": 0.71,
        "hand": "right"
      },
      {
        "midi": 71,
        "time": 125.938,
        "duration": 0.208,
        "velocity": 0.71,
        "hand": "right"
      },
      {
        "midi": 68,
        "time": 126.25,
        "duration": 0.208,
        "velocity": 0.71,
        "hand": "right"
      },
      {
        "midi": 66,
        "time": 126.563,
        "duration": 0.208,
        "velocity": 0.71,
        "hand": "right"
      },
      {
        "midi": 68,
        "time": 126.979,
        "duration": 0.208,
        "velocity": 0.71,
        "hand": "right"
      },
      {
        "midi": 61,
        "time": 127.5,
        "duration": 0.208,
        "velocity": 0.71,
        "hand": "right"
      },
      {
        "midi": 61,
        "time": 127.917,
        "duration": 0.417,
        "velocity": 0.71,
        "hand": "right"
      },
      {
        "midi": 76,
        "time": 128.75,
        "duration": 0.208,
        "velocity": 0.71,
        "hand": "right"
      },
      {
        "midi": 73,
        "time": 129.063,
        "duration": 0.208,
        "velocity": 0.71,
        "hand": "right"
      },
      {
        "midi": 73,
        "time": 129.479,
        "duration": 0.208,
        "velocity": 0.71,
        "hand": "right"
      },
      {
        "midi": 71,
        "time": 129.688,
        "duration": 0.208,
        "velocity": 0.71,
        "hand": "right"
      },
      {
        "midi": 68,
        "time": 130,
        "duration": 0.208,
        "velocity": 0.71,
        "hand": "right"
      },
      {
        "midi": 68,
        "time": 130.313,
        "duration": 0.208,
        "velocity": 0.71,
        "hand": "right"
      },
      {
        "midi": 61,
        "time": 130.833,
        "duration": 0.208,
        "velocity": 0.71,
        "hand": "right"
      },
      {
        "midi": 61,
        "time": 131.25,
        "duration": 0.417,
        "velocity": 0.71,
        "hand": "right"
      },
      {
        "midi": 61,
        "time": 132.083,
        "duration": 0.625,
        "velocity": 0.71,
        "hand": "right"
      },
      {
        "midi": 64,
        "time": 132.708,
        "duration": 0.208,
        "velocity": 0.71,
        "hand": "right"
      },
      {
        "midi": 63,
        "time": 132.917,
        "duration": 0.208,
        "velocity": 0.71,
        "hand": "right"
      },
      {
        "midi": 61,
        "time": 133.333,
        "duration": 0.417,
        "velocity": 0.71,
        "hand": "right"
      },
      {
        "midi": 68,
        "time": 133.75,
        "duration": 0.833,
        "velocity": 0.71,
        "hand": "right"
      },
      {
        "midi": 64,
        "time": 134.583,
        "duration": 0.417,
        "velocity": 0.71,
        "hand": "right"
      },
      {
        "midi": 63,
        "time": 135,
        "duration": 0.208,
        "velocity": 0.71,
        "hand": "right"
      },
      {
        "midi": 63,
        "time": 135.313,
        "duration": 0.208,
        "velocity": 0.71,
        "hand": "right"
      },
      {
        "midi": 61,
        "time": 135.833,
        "duration": 0.208,
        "velocity": 0.71,
        "hand": "right"
      },
      {
        "midi": 68,
        "time": 136.042,
        "duration": 0.208,
        "velocity": 0.71,
        "hand": "right"
      },
      {
        "midi": 68,
        "time": 136.458,
        "duration": 0.208,
        "velocity": 0.71,
        "hand": "right"
      },
      {
        "midi": 64,
        "time": 136.667,
        "duration": 0.417,
        "velocity": 0.71,
        "hand": "right"
      },
      {
        "midi": 73,
        "time": 137.083,
        "duration": 0.833,
        "velocity": 0.71,
        "hand": "right"
      },
      {
        "midi": 61,
        "time": 137.292,
        "duration": 0.208,
        "velocity": 0.71,
        "hand": "right"
      },
      {
        "midi": 70,
        "time": 137.917,
        "duration": 0.208,
        "velocity": 0.71,
        "hand": "right"
      },
      {
        "midi": 70,
        "time": 138.229,
        "duration": 0.208,
        "velocity": 0.71,
        "hand": "right"
      },
      {
        "midi": 76,
        "time": 138.75,
        "duration": 0.833,
        "velocity": 0.71,
        "hand": "right"
      },
      {
        "midi": 61,
        "time": 139.375,
        "duration": 0.208,
        "velocity": 0.71,
        "hand": "right"
      },
      {
        "midi": 76,
        "time": 139.688,
        "duration": 0.208,
        "velocity": 0.71,
        "hand": "right"
      },
      {
        "midi": 80,
        "time": 140,
        "duration": 0.625,
        "velocity": 0.71,
        "hand": "right"
      },
      {
        "midi": 68,
        "time": 140.417,
        "duration": 0.208,
        "velocity": 0.71,
        "hand": "right"
      },
      {
        "midi": 80,
        "time": 140.833,
        "duration": 0.625,
        "velocity": 0.71,
        "hand": "right"
      },
      {
        "midi": 66,
        "time": 141.042,
        "duration": 0.208,
        "velocity": 0.71,
        "hand": "right"
      },
      {
        "midi": 78,
        "time": 141.458,
        "duration": 0.208,
        "velocity": 0.71,
        "hand": "right"
      },
      {
        "midi": 80,
        "time": 141.667,
        "duration": 0.625,
        "velocity": 0.71,
        "hand": "right"
      },
      {
        "midi": 68,
        "time": 142.083,
        "duration": 0.208,
        "velocity": 0.71,
        "hand": "right"
      },
      {
        "midi": 78,
        "time": 142.292,
        "duration": 0.208,
        "velocity": 0.71,
        "hand": "right"
      },
      {
        "midi": 78,
        "time": 142.708,
        "duration": 0.417,
        "velocity": 0.71,
        "hand": "right"
      },
      {
        "midi": 70,
        "time": 142.917,
        "duration": 0.208,
        "velocity": 0.71,
        "hand": "right"
      },
      {
        "midi": 81,
        "time": 143.333,
        "duration": 0.833,
        "velocity": 0.71,
        "hand": "right"
      },
      {
        "midi": 69,
        "time": 143.646,
        "duration": 0.208,
        "velocity": 0.71,
        "hand": "right"
      },
      {
        "midi": 78,
        "time": 144.063,
        "duration": 0.208,
        "velocity": 0.71,
        "hand": "right"
      },
      {
        "midi": 71,
        "time": 144.479,
        "duration": 0.208,
        "velocity": 0.71,
        "hand": "right"
      },
      {
        "midi": 63,
        "time": 144.688,
        "duration": 0.208,
        "velocity": 0.71,
        "hand": "right"
      },
      {
        "midi": 78,
        "time": 145,
        "duration": 0.833,
        "velocity": 0.71,
        "hand": "right"
      },
      {
        "midi": 66,
        "time": 145.313,
        "duration": 0.208,
        "velocity": 0.71,
        "hand": "right"
      },
      {
        "midi": 75,
        "time": 145.729,
        "duration": 0.208,
        "velocity": 0.71,
        "hand": "right"
      },
      {
        "midi": 71,
        "time": 145.938,
        "duration": 0.208,
        "velocity": 0.71,
        "hand": "right"
      },
      {
        "midi": 64,
        "time": 146.25,
        "duration": 0.208,
        "velocity": 0.71,
        "hand": "right"
      },
      {
        "midi": 81,
        "time": 146.667,
        "duration": 0.417,
        "velocity": 0.71,
        "hand": "right"
      },
      {
        "midi": 69,
        "time": 146.979,
        "duration": 0.208,
        "velocity": 0.71,
        "hand": "right"
      },
      {
        "midi": 81,
        "time": 147.5,
        "duration": 0.208,
        "velocity": 0.71,
        "hand": "right"
      },
      {
        "midi": 68,
        "time": 147.813,
        "duration": 0.208,
        "velocity": 0.71,
        "hand": "right"
      },
      {
        "midi": 80,
        "time": 148.125,
        "duration": 0.625,
        "velocity": 0.71,
        "hand": "right"
      },
      {
        "midi": 61,
        "time": 148.438,
        "duration": 0.208,
        "velocity": 0.71,
        "hand": "right"
      },
      {
        "midi": 78,
        "time": 148.75,
        "duration": 0.833,
        "velocity": 0.71,
        "hand": "right"
      },
      {
        "midi": 61,
        "time": 149.063,
        "duration": 0.208,
        "velocity": 0.71,
        "hand": "right"
      },
      {
        "midi": 64,
        "time": 149.479,
        "duration": 0.208,
        "velocity": 0.71,
        "hand": "right"
      },
      {
        "midi": 74,
        "time": 150.208,
        "duration": 0.208,
        "velocity": 0.71,
        "hand": "right"
      },
      {
        "midi": 76,
        "time": 150.417,
        "duration": 0.208,
        "velocity": 0.71,
        "hand": "right"
      },
      {
        "midi": 74,
        "time": 150.833,
        "duration": 0.208,
        "velocity": 0.71,
        "hand": "right"
      },
      {
        "midi": 73,
        "time": 151.042,
        "duration": 0.208,
        "velocity": 0.71,
        "hand": "right"
      },
      {
        "midi": 61,
        "time": 151.354,
        "duration": 0.208,
        "velocity": 0.71,
        "hand": "right"
      },
      {
        "midi": 66,
        "time": 151.667,
        "duration": 0.833,
        "velocity": 0.71,
        "hand": "right"
      },
      {
        "midi": 71,
        "time": 152.083,
        "duration": 0.833,
        "velocity": 0.71,
        "hand": "right"
      },
      {
        "midi": 64,
        "time": 152.5,
        "duration": 0.833,
        "velocity": 0.71,
        "hand": "right"
      },
      {
        "midi": 69,
        "time": 152.917,
        "duration": 0.625,
        "velocity": 0.71,
        "hand": "right"
      },
      {
        "midi": 62,
        "time": 153.333,
        "duration": 0.833,
        "velocity": 0.71,
        "hand": "right"
      },
      {
        "midi": 68,
        "time": 153.542,
        "duration": 0.208,
        "velocity": 0.71,
        "hand": "right"
      },
      {
        "midi": 68,
        "time": 153.958,
        "duration": 0.208,
        "velocity": 0.71,
        "hand": "right"
      },
      {
        "midi": 73,
        "time": 154.167,
        "duration": 0.208,
        "velocity": 0.71,
        "hand": "right"
      },
      {
        "midi": 66,
        "time": 154.583,
        "duration": 0.625,
        "velocity": 0.71,
        "hand": "right"
      },
      {
        "midi": 64,
        "time": 155.208,
        "duration": 0.208,
        "velocity": 0.71,
        "hand": "right"
      },
      {
        "midi": 66,
        "time": 155.417,
        "duration": 0.208,
        "velocity": 0.71,
        "hand": "right"
      },
      {
        "midi": 69,
        "time": 155.833,
        "duration": 3.333,
        "velocity": 0.71,
        "hand": "right"
      },
      {
        "midi": 61,
        "time": 156.667,
        "duration": 0.208,
        "velocity": 0.71,
        "hand": "right"
      },
      {
        "midi": 71,
        "time": 157.083,
        "duration": 0.208,
        "velocity": 0.71,
        "hand": "right"
      },
      {
        "midi": 76,
        "time": 157.396,
        "duration": 0.208,
        "velocity": 0.71,
        "hand": "right"
      },
      {
        "midi": 85,
        "time": 157.813,
        "duration": 0.208,
        "velocity": 0.71,
        "hand": "right"
      },
      {
        "midi": 83,
        "time": 158.229,
        "duration": 0.208,
        "velocity": 0.71,
        "hand": "right"
      },
      {
        "midi": 76,
        "time": 158.438,
        "duration": 0.208,
        "velocity": 0.71,
        "hand": "right"
      },
      {
        "midi": 71,
        "time": 158.75,
        "duration": 0.208,
        "velocity": 0.71,
        "hand": "right"
      },
      {
        "midi": 64,
        "time": 159.063,
        "duration": 0.208,
        "velocity": 0.71,
        "hand": "right"
      },
      {
        "midi": 63,
        "time": 159.896,
        "duration": 0.208,
        "velocity": 0.71,
        "hand": "right"
      },
      {
        "midi": 75,
        "time": 160.313,
        "duration": 0.208,
        "velocity": 0.71,
        "hand": "right"
      },
      {
        "midi": 71,
        "time": 160.729,
        "duration": 0.208,
        "velocity": 0.71,
        "hand": "right"
      },
      {
        "midi": 63,
        "time": 161.563,
        "duration": 0.208,
        "velocity": 0.71,
        "hand": "right"
      },
      {
        "midi": 75,
        "time": 161.979,
        "duration": 0.208,
        "velocity": 0.71,
        "hand": "right"
      },
      {
        "midi": 83,
        "time": 162.188,
        "duration": 0.208,
        "velocity": 0.71,
        "hand": "right"
      },
      {
        "midi": 64,
        "time": 162.5,
        "duration": 0.417,
        "velocity": 0.71,
        "hand": "right"
      },
      {
        "midi": 88,
        "time": 162.917,
        "duration": 0.208,
        "velocity": 0.71,
        "hand": "right"
      },
      {
        "midi": 85,
        "time": 163.229,
        "duration": 0.208,
        "velocity": 0.71,
        "hand": "right"
      },
      {
        "midi": 83,
        "time": 163.438,
        "duration": 0.208,
        "velocity": 0.71,
        "hand": "right"
      },
      {
        "midi": 80,
        "time": 163.75,
        "duration": 0.208,
        "velocity": 0.71,
        "hand": "right"
      },
      {
        "midi": 78,
        "time": 164.063,
        "duration": 0.208,
        "velocity": 0.71,
        "hand": "right"
      },
      {
        "midi": 80,
        "time": 164.479,
        "duration": 0.208,
        "velocity": 0.71,
        "hand": "right"
      },
      {
        "midi": 61,
        "time": 165,
        "duration": 0.208,
        "velocity": 0.71,
        "hand": "right"
      },
      {
        "midi": 73,
        "time": 165.417,
        "duration": 0.417,
        "velocity": 0.71,
        "hand": "right"
      },
      {
        "midi": 71,
        "time": 165.833,
        "duration": 0.417,
        "velocity": 0.71,
        "hand": "right"
      },
      {
        "midi": 76,
        "time": 166.25,
        "duration": 0.208,
        "velocity": 0.71,
        "hand": "right"
      },
      {
        "midi": 73,
        "time": 166.563,
        "duration": 0.208,
        "velocity": 0.71,
        "hand": "right"
      },
      {
        "midi": 73,
        "time": 166.979,
        "duration": 0.208,
        "velocity": 0.71,
        "hand": "right"
      },
      {
        "midi": 71,
        "time": 167.188,
        "duration": 0.208,
        "velocity": 0.71,
        "hand": "right"
      },
      {
        "midi": 68,
        "time": 167.5,
        "duration": 0.208,
        "velocity": 0.71,
        "hand": "right"
      },
      {
        "midi": 68,
        "time": 167.813,
        "duration": 0.208,
        "velocity": 0.71,
        "hand": "right"
      },
      {
        "midi": 61,
        "time": 168.333,
        "duration": 0.208,
        "velocity": 0.71,
        "hand": "right"
      },
      {
        "midi": 61,
        "time": 168.75,
        "duration": 0.417,
        "velocity": 0.71,
        "hand": "right"
      },
      {
        "midi": 61,
        "time": 169.688,
        "duration": 0.208,
        "velocity": 0.71,
        "hand": "right"
      },
      {
        "midi": 64,
        "time": 170.104,
        "duration": 0.208,
        "velocity": 0.71,
        "hand": "right"
      },
      {
        "midi": 66,
        "time": 170.521,
        "duration": 0.208,
        "velocity": 0.71,
        "hand": "right"
      },
      {
        "midi": 71,
        "time": 170.938,
        "duration": 0.208,
        "velocity": 0.71,
        "hand": "right"
      },
      {
        "midi": 73,
        "time": 171.354,
        "duration": 0.208,
        "velocity": 0.71,
        "hand": "right"
      },
      {
        "midi": 68,
        "time": 171.563,
        "duration": 0.208,
        "velocity": 0.71,
        "hand": "right"
      },
      {
        "midi": 71,
        "time": 171.979,
        "duration": 0.208,
        "velocity": 0.71,
        "hand": "right"
      },
      {
        "midi": 78,
        "time": 172.188,
        "duration": 0.208,
        "velocity": 0.71,
        "hand": "right"
      },
      {
        "midi": 64,
        "time": 172.5,
        "duration": 0.417,
        "velocity": 0.71,
        "hand": "right"
      },
      {
        "midi": 76,
        "time": 172.813,
        "duration": 0.208,
        "velocity": 0.71,
        "hand": "right"
      },
      {
        "midi": 80,
        "time": 173.229,
        "duration": 0.208,
        "velocity": 0.71,
        "hand": "right"
      },
      {
        "midi": 88,
        "time": 173.438,
        "duration": 0.208,
        "velocity": 0.71,
        "hand": "right"
      },
      {
        "midi": 80,
        "time": 173.75,
        "duration": 0.417,
        "velocity": 0.71,
        "hand": "right"
      },
      {
        "midi": 85,
        "time": 174.063,
        "duration": 0.208,
        "velocity": 0.71,
        "hand": "right"
      },
      {
        "midi": 92,
        "time": 174.583,
        "duration": 0.833,
        "velocity": 0.71,
        "hand": "right"
      },
      {
        "midi": 92,
        "time": 175.417,
        "duration": 0.417,
        "velocity": 0.71,
        "hand": "right"
      },
      {
        "midi": 64,
        "time": 175.833,
        "duration": 0.417,
        "velocity": 0.71,
        "hand": "right"
      }
    ],
    "medium": [
      {
        "midi": 61,
        "time": 0,
        "duration": 0.104,
        "velocity": 0.71,
        "hand": "right"
      },
      {
        "midi": 64,
        "time": 0.104,
        "duration": 0.104,
        "velocity": 0.71,
        "hand": "right"
      },
      {
        "midi": 69,
        "time": 0.313,
        "duration": 0.104,
        "velocity": 0.71,
        "hand": "right"
      },
      {
        "midi": 73,
        "time": 0.417,
        "duration": 0.104,
        "velocity": 0.71,
        "hand": "right"
      },
      {
        "midi": 76,
        "time": 0.521,
        "duration": 0.104,
        "velocity": 0.71,
        "hand": "right"
      },
      {
        "midi": 78,
        "time": 0.729,
        "duration": 0.104,
        "velocity": 0.71,
        "hand": "right"
      },
      {
        "midi": 80,
        "time": 0.833,
        "duration": 0.104,
        "velocity": 0.71,
        "hand": "right"
      },
      {
        "midi": 75,
        "time": 0.938,
        "duration": 0.104,
        "velocity": 0.71,
        "hand": "right"
      },
      {
        "midi": 71,
        "time": 1.146,
        "duration": 0.104,
        "velocity": 0.71,
        "hand": "right"
      },
      {
        "midi": 68,
        "time": 1.25,
        "duration": 0.104,
        "velocity": 0.71,
        "hand": "right"
      },
      {
        "midi": 63,
        "time": 1.354,
        "duration": 0.104,
        "velocity": 0.71,
        "hand": "right"
      },
      {
        "midi": 59,
        "time": 1.563,
        "duration": 0.104,
        "velocity": 0.71,
        "hand": "left"
      },
      {
        "midi": 57,
        "time": 1.667,
        "duration": 0.104,
        "velocity": 0.71,
        "hand": "left"
      },
      {
        "midi": 61,
        "time": 1.771,
        "duration": 0.104,
        "velocity": 0.71,
        "hand": "right"
      },
      {
        "midi": 66,
        "time": 1.979,
        "duration": 0.104,
        "velocity": 0.71,
        "hand": "right"
      },
      {
        "midi": 69,
        "time": 2.083,
        "duration": 0.104,
        "velocity": 0.71,
        "hand": "right"
      },
      {
        "midi": 73,
        "time": 2.188,
        "duration": 0.104,
        "velocity": 0.71,
        "hand": "right"
      },
      {
        "midi": 75,
        "time": 2.396,
        "duration": 0.104,
        "velocity": 0.71,
        "hand": "right"
      },
      {
        "midi": 76,
        "time": 2.5,
        "duration": 0.104,
        "velocity": 0.71,
        "hand": "right"
      },
      {
        "midi": 71,
        "time": 2.604,
        "duration": 0.104,
        "velocity": 0.71,
        "hand": "right"
      },
      {
        "midi": 68,
        "time": 2.813,
        "duration": 0.104,
        "velocity": 0.71,
        "hand": "right"
      },
      {
        "midi": 64,
        "time": 2.917,
        "duration": 0.104,
        "velocity": 0.71,
        "hand": "right"
      },
      {
        "midi": 59,
        "time": 3.021,
        "duration": 0.104,
        "velocity": 0.71,
        "hand": "left"
      },
      {
        "midi": 56,
        "time": 3.229,
        "duration": 0.104,
        "velocity": 0.71,
        "hand": "left"
      },
      {
        "midi": 54,
        "time": 3.333,
        "duration": 0.833,
        "velocity": 0.71,
        "hand": "left"
      },
      {
        "midi": 57,
        "time": 3.438,
        "duration": 0.104,
        "velocity": 0.71,
        "hand": "left"
      },
      {
        "midi": 61,
        "time": 3.646,
        "duration": 0.417,
        "velocity": 0.71,
        "hand": "right"
      },
      {
        "midi": 73,
        "time": 3.75,
        "duration": 0.417,
        "velocity": 0.71,
        "hand": "right"
      },
      {
        "midi": 66,
        "time": 3.854,
        "duration": 0.104,
        "velocity": 0.71,
        "hand": "right"
      },
      {
        "midi": 69,
        "time": 4.063,
        "duration": 0.521,
        "velocity": 0.71,
        "hand": "right"
      },
      {
        "midi": 52,
        "time": 4.167,
        "duration": 0.833,
        "velocity": 0.71,
        "hand": "left"
      },
      {
        "midi": 78,
        "time": 4.167,
        "duration": 0.417,
        "velocity": 0.71,
        "hand": "right"
      },
      {
        "midi": 57,
        "time": 4.271,
        "duration": 0.104,
        "velocity": 0.71,
        "hand": "left"
      },
      {
        "midi": 61,
        "time": 4.479,
        "duration": 0.417,
        "velocity": 0.71,
        "hand": "right"
      },
      {
        "midi": 73,
        "time": 4.583,
        "duration": 0.833,
        "velocity": 0.71,
        "hand": "right"
      },
      {
        "midi": 66,
        "time": 4.688,
        "duration": 0.104,
        "velocity": 0.71,
        "hand": "right"
      },
      {
        "midi": 69,
        "time": 4.896,
        "duration": 0.521,
        "velocity": 0.71,
        "hand": "right"
      },
      {
        "midi": 51,
        "time": 5,
        "duration": 0.833,
        "velocity": 0.71,
        "hand": "left"
      },
      {
        "midi": 57,
        "time": 5.104,
        "duration": 0.104,
        "velocity": 0.71,
        "hand": "left"
      },
      {
        "midi": 61,
        "time": 5.313,
        "duration": 0.417,
        "velocity": 0.71,
        "hand": "right"
      },
      {
        "midi": 73,
        "time": 5.417,
        "duration": 0.417,
        "velocity": 0.71,
        "hand": "right"
      },
      {
        "midi": 66,
        "time": 5.521,
        "duration": 0.104,
        "velocity": 0.71,
        "hand": "right"
      },
      {
        "midi": 69,
        "time": 5.729,
        "duration": 0.521,
        "velocity": 0.71,
        "hand": "right"
      },
      {
        "midi": 49,
        "time": 5.833,
        "duration": 0.833,
        "velocity": 0.71,
        "hand": "left"
      },
      {
        "midi": 78,
        "time": 5.833,
        "duration": 0.417,
        "velocity": 0.71,
        "hand": "right"
      },
      {
        "midi": 57,
        "time": 5.938,
        "duration": 0.104,
        "velocity": 0.71,
        "hand": "left"
      },
      {
        "midi": 64,
        "time": 6.146,
        "duration": 0.417,
        "velocity": 0.71,
        "hand": "right"
      },
      {
        "midi": 81,
        "time": 6.25,
        "duration": 0.833,
        "velocity": 0.71,
        "hand": "right"
      },
      {
        "midi": 69,
        "time": 6.354,
        "duration": 0.104,
        "velocity": 0.71,
        "hand": "right"
      },
      {
        "midi": 73,
        "time": 6.563,
        "duration": 0.104,
        "velocity": 0.71,
        "hand": "right"
      },
      {
        "midi": 47,
        "time": 6.667,
        "duration": 0.104,
        "velocity": 0.71,
        "hand": "left"
      },
      {
        "midi": 54,
        "time": 6.771,
        "duration": 0.104,
        "velocity": 0.71,
        "hand": "left"
      },
      {
        "midi": 57,
        "time": 6.979,
        "duration": 0.104,
        "velocity": 0.71,
        "hand": "left"
      },
      {
        "midi": 61,
        "time": 7.083,
        "duration": 0.104,
        "velocity": 0.71,
        "hand": "right"
      },
      {
        "midi": 81,
        "time": 7.083,
        "duration": 0.938,
        "velocity": 0.71,
        "hand": "right"
      },
      {
        "midi": 63,
        "time": 7.188,
        "duration": 0.104,
        "velocity": 0.71,
        "hand": "right"
      },
      {
        "midi": 66,
        "time": 7.396,
        "duration": 0.104,
        "velocity": 0.71,
        "hand": "right"
      },
      {
        "midi": 69,
        "time": 7.5,
        "duration": 0.104,
        "velocity": 0.71,
        "hand": "right"
      },
      {
        "midi": 73,
        "time": 7.604,
        "duration": 0.104,
        "velocity": 0.71,
        "hand": "right"
      },
      {
        "midi": 75,
        "time": 7.813,
        "duration": 0.104,
        "velocity": 0.71,
        "hand": "right"
      },
      {
        "midi": 73,
        "time": 7.917,
        "duration": 0.104,
        "velocity": 0.71,
        "hand": "right"
      },
      {
        "midi": 71,
        "time": 8.021,
        "duration": 0.104,
        "velocity": 0.71,
        "hand": "right"
      },
      {
        "midi": 80,
        "time": 8.021,
        "duration": 0.104,
        "velocity": 0.71,
        "hand": "right"
      },
      {
        "midi": 69,
        "time": 8.229,
        "duration": 0.104,
        "velocity": 0.71,
        "hand": "right"
      },
      {
        "midi": 78,
        "time": 8.229,
        "duration": 0.104,
        "velocity": 0.71,
        "hand": "right"
      },
      {
        "midi": 40,
        "time": 8.333,
        "duration": 0.208,
        "velocity": 0.71,
        "hand": "left"
      },
      {
        "midi": 47,
        "time": 8.542,
        "duration": 0.208,
        "velocity": 0.71,
        "hand": "left"
      },
      {
        "midi": 52,
        "time": 8.75,
        "duration": 0.208,
        "velocity": 0.71,
        "hand": "left"
      },
      {
        "midi": 76,
        "time": 8.75,
        "duration": 0.104,
        "velocity": 0.71,
        "hand": "right"
      },
      {
        "midi": 78,
        "time": 8.854,
        "duration": 0.104,
        "velocity": 0.71,
        "hand": "right"
      },
      {
        "midi": 56,
        "time": 8.958,
        "duration": 0.208,
        "velocity": 0.71,
        "hand": "left"
      },
      {
        "midi": 73,
        "time": 9.063,
        "duration": 0.104,
        "velocity": 0.71,
        "hand": "right"
      },
      {
        "midi": 59,
        "time": 9.167,
        "duration": 0.208,
        "velocity": 0.71,
        "hand": "left"
      },
      {
        "midi": 76,
        "time": 9.167,
        "duration": 0.104,
        "velocity": 0.71,
        "hand": "right"
      },
      {
        "midi": 71,
        "time": 9.271,
        "duration": 0.104,
        "velocity": 0.71,
        "hand": "right"
      },
      {
        "midi": 56,
        "time": 9.375,
        "duration": 0.208,
        "velocity": 0.71,
        "hand": "left"
      },
      {
        "midi": 73,
        "time": 9.479,
        "duration": 0.104,
        "velocity": 0.71,
        "hand": "right"
      },
      {
        "midi": 52,
        "time": 9.583,
        "duration": 0.208,
        "velocity": 0.71,
        "hand": "left"
      },
      {
        "midi": 68,
        "time": 9.583,
        "duration": 0.104,
        "velocity": 0.71,
        "hand": "right"
      },
      {
        "midi": 71,
        "time": 9.688,
        "duration": 0.104,
        "velocity": 0.71,
        "hand": "right"
      },
      {
        "midi": 47,
        "time": 9.792,
        "duration": 0.208,
        "velocity": 0.71,
        "hand": "left"
      },
      {
        "midi": 66,
        "time": 9.896,
        "duration": 0.104,
        "velocity": 0.71,
        "hand": "right"
      },
      {
        "midi": 40,
        "time": 10,
        "duration": 0.208,
        "velocity": 0.71,
        "hand": "left"
      },
      {
        "midi": 68,
        "time": 10,
        "duration": 0.104,
        "velocity": 0.71,
        "hand": "right"
      },
      {
        "midi": 64,
        "time": 10.104,
        "duration": 0.104,
        "velocity": 0.71,
        "hand": "right"
      },
      {
        "midi": 49,
        "time": 10.208,
        "duration": 0.208,
        "velocity": 0.71,
        "hand": "left"
      },
      {
        "midi": 68,
        "time": 10.313,
        "duration": 0.104,
        "velocity": 0.71,
        "hand": "right"
      },
      {
        "midi": 52,
        "time": 10.417,
        "duration": 0.208,
        "velocity": 0.71,
        "hand": "left"
      },
      {
        "midi": 63,
        "time": 10.417,
        "duration": 0.833,
        "velocity": 0.71,
        "hand": "right"
      },
      {
        "midi": 56,
        "time": 10.625,
        "duration": 0.208,
        "velocity": 0.71,
        "hand": "left"
      },
      {
        "midi": 61,
        "time": 10.833,
        "duration": 0.208,
        "velocity": 0.71,
        "hand": "right"
      },
      {
        "midi": 56,
        "time": 11.042,
        "duration": 0.208,
        "velocity": 0.71,
        "hand": "left"
      },
      {
        "midi": 52,
        "time": 11.25,
        "duration": 0.208,
        "velocity": 0.71,
        "hand": "left"
      },
      {
        "midi": 61,
        "time": 11.25,
        "duration": 0.417,
        "velocity": 0.71,
        "hand": "right"
      },
      {
        "midi": 47,
        "time": 11.458,
        "duration": 0.208,
        "velocity": 0.71,
        "hand": "left"
      },
      {
        "midi": 40,
        "time": 11.667,
        "duration": 0.208,
        "velocity": 0.71,
        "hand": "left"
      },
      {
        "midi": 59,
        "time": 11.667,
        "duration": 0.208,
        "velocity": 0.71,
        "hand": "left"
      },
      {
        "midi": 47,
        "time": 11.875,
        "duration": 0.208,
        "velocity": 0.71,
        "hand": "left"
      },
      {
        "midi": 52,
        "time": 12.083,
        "duration": 0.208,
        "velocity": 0.71,
        "hand": "left"
      },
      {
        "midi": 76,
        "time": 12.083,
        "duration": 0.104,
        "velocity": 0.71,
        "hand": "right"
      },
      {
        "midi": 78,
        "time": 12.188,
        "duration": 0.104,
        "velocity": 0.71,
        "hand": "right"
      },
      {
        "midi": 56,
        "time": 12.292,
        "duration": 0.208,
        "velocity": 0.71,
        "hand": "left"
      },
      {
        "midi": 73,
        "time": 12.396,
        "duration": 0.104,
        "velocity": 0.71,
        "hand": "right"
      },
      {
        "midi": 59,
        "time": 12.5,
        "duration": 0.208,
        "velocity": 0.71,
        "hand": "left"
      },
      {
        "midi": 76,
        "time": 12.5,
        "duration": 0.104,
        "velocity": 0.71,
        "hand": "right"
      },
      {
        "midi": 71,
        "time": 12.604,
        "duration": 0.104,
        "velocity": 0.71,
        "hand": "right"
      },
      {
        "midi": 56,
        "time": 12.708,
        "duration": 0.208,
        "velocity": 0.71,
        "hand": "left"
      },
      {
        "midi": 73,
        "time": 12.813,
        "duration": 0.104,
        "velocity": 0.71,
        "hand": "right"
      },
      {
        "midi": 52,
        "time": 12.917,
        "duration": 0.208,
        "velocity": 0.71,
        "hand": "left"
      },
      {
        "midi": 68,
        "time": 12.917,
        "duration": 0.104,
        "velocity": 0.71,
        "hand": "right"
      },
      {
        "midi": 71,
        "time": 13.021,
        "duration": 0.104,
        "velocity": 0.71,
        "hand": "right"
      },
      {
        "midi": 47,
        "time": 13.125,
        "duration": 0.208,
        "velocity": 0.71,
        "hand": "left"
      },
      {
        "midi": 66,
        "time": 13.229,
        "duration": 0.104,
        "velocity": 0.71,
        "hand": "right"
      },
      {
        "midi": 40,
        "time": 13.333,
        "duration": 0.208,
        "velocity": 0.71,
        "hand": "left"
      },
      {
        "midi": 68,
        "time": 13.333,
        "duration": 0.104,
        "velocity": 0.71,
        "hand": "right"
      },
      {
        "midi": 64,
        "time": 13.438,
        "duration": 0.104,
        "velocity": 0.71,
        "hand": "right"
      },
      {
        "midi": 49,
        "time": 13.542,
        "duration": 0.208,
        "velocity": 0.71,
        "hand": "left"
      },
      {
        "midi": 68,
        "time": 13.646,
        "duration": 0.104,
        "velocity": 0.71,
        "hand": "right"
      },
      {
        "midi": 52,
        "time": 13.75,
        "duration": 0.208,
        "velocity": 0.71,
        "hand": "left"
      },
      {
        "midi": 63,
        "time": 13.75,
        "duration": 0.833,
        "velocity": 0.71,
        "hand": "right"
      },
      {
        "midi": 56,
        "time": 13.958,
        "duration": 0.208,
        "velocity": 0.71,
        "hand": "left"
      },
      {
        "midi": 61,
        "time": 14.167,
        "duration": 0.208,
        "velocity": 0.71,
        "hand": "right"
      },
      {
        "midi": 56,
        "time": 14.375,
        "duration": 0.208,
        "velocity": 0.71,
        "hand": "left"
      },
      {
        "midi": 52,
        "time": 14.583,
        "duration": 0.208,
        "velocity": 0.71,
        "hand": "left"
      },
      {
        "midi": 61,
        "time": 14.583,
        "duration": 0.417,
        "velocity": 0.71,
        "hand": "right"
      },
      {
        "midi": 47,
        "time": 14.792,
        "duration": 0.208,
        "velocity": 0.71,
        "hand": "left"
      },
      {
        "midi": 42,
        "time": 15,
        "duration": 0.208,
        "velocity": 0.71,
        "hand": "left"
      },
      {
        "midi": 59,
        "time": 15,
        "duration": 0.104,
        "velocity": 0.71,
        "hand": "left"
      },
      {
        "midi": 57,
        "time": 15.104,
        "duration": 0.104,
        "velocity": 0.71,
        "hand": "left"
      },
      {
        "midi": 49,
        "time": 15.208,
        "duration": 0.208,
        "velocity": 0.71,
        "hand": "left"
      },
      {
        "midi": 59,
        "time": 15.313,
        "duration": 0.104,
        "velocity": 0.71,
        "hand": "left"
      },
      {
        "midi": 52,
        "time": 15.417,
        "duration": 0.208,
        "velocity": 0.71,
        "hand": "left"
      },
      {
        "midi": 61,
        "time": 15.417,
        "duration": 0.625,
        "velocity": 0.71,
        "hand": "right"
      },
      {
        "midi": 54,
        "time": 15.625,
        "duration": 0.208,
        "velocity": 0.71,
        "hand": "left"
      },
      {
        "midi": 57,
        "time": 15.833,
        "duration": 0.208,
        "velocity": 0.71,
        "hand": "left"
      },
      {
        "midi": 54,
        "time": 16.042,
        "duration": 0.208,
        "velocity": 0.71,
        "hand": "left"
      },
      {
        "midi": 64,
        "time": 16.042,
        "duration": 0.208,
        "velocity": 0.71,
        "hand": "right"
      },
      {
        "midi": 52,
        "time": 16.25,
        "duration": 0.208,
        "velocity": 0.71,
        "hand": "left"
      },
      {
        "midi": 63,
        "time": 16.25,
        "duration": 0.208,
        "velocity": 0.71,
        "hand": "right"
      },
      {
        "midi": 49,
        "time": 16.458,
        "duration": 0.208,
        "velocity": 0.71,
        "hand": "left"
      },
      {
        "midi": 64,
        "time": 16.458,
        "duration": 0.208,
        "velocity": 0.71,
        "hand": "right"
      },
      {
        "midi": 44,
        "time": 16.667,
        "duration": 0.208,
        "velocity": 0.71,
        "hand": "left"
      },
      {
        "midi": 61,
        "time": 16.667,
        "duration": 0.417,
        "velocity": 0.71,
        "hand": "right"
      },
      {
        "midi": 49,
        "time": 16.875,
        "duration": 0.208,
        "velocity": 0.71,
        "hand": "left"
      },
      {
        "midi": 52,
        "time": 17.083,
        "duration": 0.208,
        "velocity": 0.71,
        "hand": "left"
      },
      {
        "midi": 68,
        "time": 17.083,
        "duration": 0.833,
        "velocity": 0.71,
        "hand": "right"
      },
      {
        "midi": 56,
        "time": 17.292,
        "duration": 0.208,
        "velocity": 0.71,
        "hand": "left"
      },
      {
        "midi": 59,
        "time": 17.5,
        "duration": 0.208,
        "velocity": 0.71,
        "hand": "left"
      },
      {
        "midi": 56,
        "time": 17.708,
        "duration": 0.208,
        "velocity": 0.71,
        "hand": "left"
      },
      {
        "midi": 52,
        "time": 17.917,
        "duration": 0.208,
        "velocity": 0.71,
        "hand": "left"
      },
      {
        "midi": 64,
        "time": 17.917,
        "duration": 0.417,
        "velocity": 0.71,
        "hand": "right"
      },
      {
        "midi": 49,
        "time": 18.125,
        "duration": 0.208,
        "velocity": 0.71,
        "hand": "left"
      },
      {
        "midi": 45,
        "time": 18.333,
        "duration": 0.208,
        "velocity": 0.71,
        "hand": "left"
      },
      {
        "midi": 63,
        "time": 18.333,
        "duration": 0.104,
        "velocity": 0.71,
        "hand": "right"
      },
      {
        "midi": 61,
        "time": 18.438,
        "duration": 0.104,
        "velocity": 0.71,
        "hand": "right"
      },
      {
        "midi": 52,
        "time": 18.542,
        "duration": 0.208,
        "velocity": 0.71,
        "hand": "left"
      },
      {
        "midi": 63,
        "time": 18.646,
        "duration": 0.104,
        "velocity": 0.71,
        "hand": "right"
      },
      {
        "midi": 54,
        "time": 18.75,
        "duration": 0.208,
        "velocity": 0.71,
        "hand": "left"
      },
      {
        "midi": 64,
        "time": 18.75,
        "duration": 0.625,
        "velocity": 0.71,
        "hand": "right"
      },
      {
        "midi": 57,
        "time": 18.958,
        "duration": 0.208,
        "velocity": 0.71,
        "hand": "left"
      },
      {
        "midi": 61,
        "time": 19.167,
        "duration": 0.208,
        "velocity": 0.71,
        "hand": "right"
      },
      {
        "midi": 57,
        "time": 19.375,
        "duration": 0.208,
        "velocity": 0.71,
        "hand": "left"
      },
      {
        "midi": 68,
        "time": 19.375,
        "duration": 0.208,
        "velocity": 0.71,
        "hand": "right"
      },
      {
        "midi": 54,
        "time": 19.583,
        "duration": 0.208,
        "velocity": 0.71,
        "hand": "left"
      },
      {
        "midi": 66,
        "time": 19.583,
        "duration": 0.208,
        "velocity": 0.71,
        "hand": "right"
      },
      {
        "midi": 52,
        "time": 19.792,
        "duration": 0.208,
        "velocity": 0.71,
        "hand": "left"
      },
      {
        "midi": 68,
        "time": 19.792,
        "duration": 0.208,
        "velocity": 0.71,
        "hand": "right"
      },
      {
        "midi": 46,
        "time": 20,
        "duration": 0.208,
        "velocity": 0.71,
        "hand": "left"
      },
      {
        "midi": 64,
        "time": 20,
        "duration": 0.417,
        "velocity": 0.71,
        "hand": "right"
      },
      {
        "midi": 52,
        "time": 20.208,
        "duration": 0.208,
        "velocity": 0.71,
        "hand": "left"
      },
      {
        "midi": 56,
        "time": 20.417,
        "duration": 0.208,
        "velocity": 0.71,
        "hand": "left"
      },
      {
        "midi": 73,
        "time": 20.417,
        "duration": 0.833,
        "velocity": 0.71,
        "hand": "right"
      },
      {
        "midi": 61,
        "time": 20.625,
        "duration": 0.208,
        "velocity": 0.71,
        "hand": "right"
      },
      {
        "midi": 49,
        "time": 20.833,
        "duration": 0.208,
        "velocity": 0.71,
        "hand": "left"
      },
      {
        "midi": 54,
        "time": 21.042,
        "duration": 0.208,
        "velocity": 0.71,
        "hand": "left"
      },
      {
        "midi": 58,
        "time": 21.25,
        "duration": 0.208,
        "velocity": 0.71,
        "hand": "left"
      },
      {
        "midi": 70,
        "time": 21.25,
        "duration": 0.104,
        "velocity": 0.71,
        "hand": "right"
      },
      {
        "midi": 73,
        "time": 21.354,
        "duration": 0.104,
        "velocity": 0.71,
        "hand": "right"
      },
      {
        "midi": 64,
        "time": 21.458,
        "duration": 0.208,
        "velocity": 0.71,
        "hand": "right"
      },
      {
        "midi": 70,
        "time": 21.563,
        "duration": 0.104,
        "velocity": 0.71,
        "hand": "right"
      },
      {
        "midi": 52,
        "time": 21.667,
        "duration": 0.208,
        "velocity": 0.71,
        "hand": "left"
      },
      {
        "midi": 68,
        "time": 21.667,
        "duration": 0.417,
        "velocity": 0.71,
        "hand": "right"
      },
      {
        "midi": 58,
        "time": 21.875,
        "duration": 0.208,
        "velocity": 0.71,
        "hand": "left"
      },
      {
        "midi": 61,
        "time": 22.083,
        "duration": 0.208,
        "velocity": 0.71,
        "hand": "right"
      },
      {
        "midi": 76,
        "time": 22.083,
        "duration": 0.833,
        "velocity": 0.71,
        "hand": "right"
      },
      {
        "midi": 68,
        "time": 22.292,
        "duration": 0.208,
        "velocity": 0.71,
        "hand": "right"
      },
      {
        "midi": 54,
        "time": 22.5,
        "duration": 0.208,
        "velocity": 0.71,
        "hand": "left"
      },
      {
        "midi": 61,
        "time": 22.708,
        "duration": 0.208,
        "velocity": 0.71,
        "hand": "right"
      },
      {
        "midi": 64,
        "time": 22.917,
        "duration": 0.208,
        "velocity": 0.71,
        "hand": "right"
      },
      {
        "midi": 73,
        "time": 22.917,
        "duration": 0.104,
        "velocity": 0.71,
        "hand": "right"
      },
      {
        "midi": 76,
        "time": 23.021,
        "duration": 0.104,
        "velocity": 0.71,
        "hand": "right"
      },
      {
        "midi": 70,
        "time": 23.125,
        "duration": 0.208,
        "velocity": 0.71,
        "hand": "right"
      },
      {
        "midi": 73,
        "time": 23.229,
        "duration": 0.104,
        "velocity": 0.71,
        "hand": "right"
      },
      {
        "midi": 58,
        "time": 23.333,
        "duration": 0.208,
        "velocity": 0.71,
        "hand": "left"
      },
      {
        "midi": 80,
        "time": 23.333,
        "duration": 0.625,
        "velocity": 0.71,
        "hand": "right"
      },
      {
        "midi": 64,
        "time": 23.542,
        "duration": 0.208,
        "velocity": 0.71,
        "hand": "right"
      },
      {
        "midi": 68,
        "time": 23.75,
        "duration": 0.208,
        "velocity": 0.71,
        "hand": "right"
      },
      {
        "midi": 73,
        "time": 23.958,
        "duration": 0.208,
        "velocity": 0.71,
        "hand": "right"
      },
      {
        "midi": 78,
        "time": 23.958,
        "duration": 0.208,
        "velocity": 0.71,
        "hand": "right"
      },
      {
        "midi": 61,
        "time": 24.167,
        "duration": 0.208,
        "velocity": 0.71,
        "hand": "right"
      },
      {
        "midi": 80,
        "time": 24.167,
        "duration": 0.625,
        "velocity": 0.71,
        "hand": "right"
      },
      {
        "midi": 66,
        "time": 24.375,
        "duration": 0.208,
        "velocity": 0.71,
        "hand": "right"
      },
      {
        "midi": 70,
        "time": 24.583,
        "duration": 0.208,
        "velocity": 0.71,
        "hand": "right"
      },
      {
        "midi": 76,
        "time": 24.792,
        "duration": 0.208,
        "velocity": 0.71,
        "hand": "right"
      },
      {
        "midi": 78,
        "time": 24.792,
        "duration": 0.208,
        "velocity": 0.71,
        "hand": "right"
      },
      {
        "midi": 58,
        "time": 25,
        "duration": 0.208,
        "velocity": 0.71,
        "hand": "left"
      },
      {
        "midi": 80,
        "time": 25,
        "duration": 0.625,
        "velocity": 0.71,
        "hand": "right"
      },
      {
        "midi": 64,
        "time": 25.208,
        "duration": 0.208,
        "velocity": 0.71,
        "hand": "right"
      },
      {
        "midi": 68,
        "time": 25.417,
        "duration": 0.208,
        "velocity": 0.71,
        "hand": "right"
      },
      {
        "midi": 73,
        "time": 25.625,
        "duration": 0.208,
        "velocity": 0.71,
        "hand": "right"
      },
      {
        "midi": 78,
        "time": 25.625,
        "duration": 0.208,
        "velocity": 0.71,
        "hand": "right"
      },
      {
        "midi": 61,
        "time": 25.833,
        "duration": 0.208,
        "velocity": 0.71,
        "hand": "right"
      },
      {
        "midi": 80,
        "time": 25.833,
        "duration": 0.208,
        "velocity": 0.71,
        "hand": "right"
      },
      {
        "midi": 66,
        "time": 26.042,
        "duration": 0.208,
        "velocity": 0.71,
        "hand": "right"
      },
      {
        "midi": 78,
        "time": 26.042,
        "duration": 0.417,
        "velocity": 0.71,
        "hand": "right"
      },
      {
        "midi": 70,
        "time": 26.25,
        "duration": 0.208,
        "velocity": 0.71,
        "hand": "right"
      },
      {
        "midi": 76,
        "time": 26.458,
        "duration": 0.208,
        "velocity": 0.71,
        "hand": "right"
      },
      {
        "midi": 80,
        "time": 26.458,
        "duration": 0.208,
        "velocity": 0.71,
        "hand": "right"
      },
      {
        "midi": 61,
        "time": 26.667,
        "duration": 0.104,
        "velocity": 0.71,
        "hand": "right"
      },
      {
        "midi": 81,
        "time": 26.667,
        "duration": 0.833,
        "velocity": 0.71,
        "hand": "right"
      },
      {
        "midi": 64,
        "time": 26.771,
        "duration": 0.104,
        "velocity": 0.71,
        "hand": "right"
      },
      {
        "midi": 69,
        "time": 26.979,
        "duration": 0.104,
        "velocity": 0.71,
        "hand": "right"
      },
      {
        "midi": 73,
        "time": 27.083,
        "duration": 0.104,
        "velocity": 0.71,
        "hand": "right"
      },
      {
        "midi": 76,
        "time": 27.188,
        "duration": 0.104,
        "velocity": 0.71,
        "hand": "right"
      },
      {
        "midi": 78,
        "time": 27.396,
        "duration": 0.104,
        "velocity": 0.71,
        "hand": "right"
      },
      {
        "midi": 80,
        "time": 27.5,
        "duration": 0.833,
        "velocity": 0.71,
        "hand": "right"
      },
      {
        "midi": 75,
        "time": 27.604,
        "duration": 0.104,
        "velocity": 0.71,
        "hand": "right"
      },
      {
        "midi": 71,
        "time": 27.813,
        "duration": 0.104,
        "velocity": 0.71,
        "hand": "right"
      },
      {
        "midi": 68,
        "time": 27.917,
        "duration": 0.104,
        "velocity": 0.71,
        "hand": "right"
      },
      {
        "midi": 63,
        "time": 28.021,
        "duration": 0.104,
        "velocity": 0.71,
        "hand": "right"
      },
      {
        "midi": 59,
        "time": 28.229,
        "duration": 0.104,
        "velocity": 0.71,
        "hand": "left"
      },
      {
        "midi": 57,
        "time": 28.333,
        "duration": 0.104,
        "velocity": 0.71,
        "hand": "left"
      },
      {
        "midi": 78,
        "time": 28.333,
        "duration": 0.833,
        "velocity": 0.71,
        "hand": "right"
      },
      {
        "midi": 61,
        "time": 28.438,
        "duration": 0.104,
        "velocity": 0.71,
        "hand": "right"
      },
      {
        "midi": 66,
        "time": 28.646,
        "duration": 0.104,
        "velocity": 0.71,
        "hand": "right"
      },
      {
        "midi": 69,
        "time": 28.75,
        "duration": 0.104,
        "velocity": 0.71,
        "hand": "right"
      },
      {
        "midi": 73,
        "time": 28.854,
        "duration": 0.104,
        "velocity": 0.71,
        "hand": "right"
      },
      {
        "midi": 75,
        "time": 29.063,
        "duration": 0.104,
        "velocity": 0.71,
        "hand": "right"
      },
      {
        "midi": 76,
        "time": 29.167,
        "duration": 0.833,
        "velocity": 0.71,
        "hand": "right"
      },
      {
        "midi": 71,
        "time": 29.271,
        "duration": 0.104,
        "velocity": 0.71,
        "hand": "right"
      },
      {
        "midi": 68,
        "time": 29.479,
        "duration": 0.104,
        "velocity": 0.71,
        "hand": "right"
      },
      {
        "midi": 64,
        "time": 29.583,
        "duration": 0.104,
        "velocity": 0.71,
        "hand": "right"
      },
      {
        "midi": 59,
        "time": 29.688,
        "duration": 0.104,
        "velocity": 0.71,
        "hand": "left"
      },
      {
        "midi": 56,
        "time": 29.896,
        "duration": 0.104,
        "velocity": 0.71,
        "hand": "left"
      },
      {
        "midi": 55,
        "time": 30,
        "duration": 0.104,
        "velocity": 0.71,
        "hand": "left"
      },
      {
        "midi": 75,
        "time": 30,
        "duration": 0.833,
        "velocity": 0.71,
        "hand": "right"
      },
      {
        "midi": 61,
        "time": 30.104,
        "duration": 0.104,
        "velocity": 0.71,
        "hand": "right"
      },
      {
        "midi": 63,
        "time": 30.313,
        "duration": 0.104,
        "velocity": 0.71,
        "hand": "right"
      },
      {
        "midi": 70,
        "time": 30.417,
        "duration": 0.104,
        "velocity": 0.71,
        "hand": "right"
      },
      {
        "midi": 63,
        "time": 30.521,
        "duration": 0.104,
        "velocity": 0.71,
        "hand": "right"
      },
      {
        "midi": 61,
        "time": 30.729,
        "duration": 0.104,
        "velocity": 0.71,
        "hand": "right"
      },
      {
        "midi": 56,
        "time": 30.833,
        "duration": 0.104,
        "velocity": 0.71,
        "hand": "left"
      },
      {
        "midi": 76,
        "time": 30.833,
        "duration": 0.417,
        "velocity": 0.71,
        "hand": "right"
      },
      {
        "midi": 61,
        "time": 30.938,
        "duration": 0.104,
        "velocity": 0.71,
        "hand": "right"
      },
      {
        "midi": 64,
        "time": 31.146,
        "duration": 0.104,
        "velocity": 0.71,
        "hand": "right"
      },
      {
        "midi": 71,
        "time": 31.25,
        "duration": 0.104,
        "velocity": 0.71,
        "hand": "right"
      },
      {
        "midi": 80,
        "time": 31.25,
        "duration": 0.208,
        "velocity": 0.71,
        "hand": "right"
      },
      {
        "midi": 64,
        "time": 31.354,
        "duration": 0.104,
        "velocity": 0.71,
        "hand": "right"
      },
      {
        "midi": 83,
        "time": 31.458,
        "duration": 0.208,
        "velocity": 0.71,
        "hand": "right"
      },
      {
        "midi": 61,
        "time": 31.563,
        "duration": 0.104,
        "velocity": 0.71,
        "hand": "right"
      },
      {
        "midi": 55,
        "time": 31.667,
        "duration": 0.104,
        "velocity": 0.71,
        "hand": "left"
      },
      {
        "midi": 75,
        "time": 31.667,
        "duration": 1.042,
        "velocity": 0.71,
        "hand": "right"
      },
      {
        "midi": 61,
        "time": 31.771,
        "duration": 0.104,
        "velocity": 0.71,
        "hand": "right"
      },
      {
        "midi": 63,
        "time": 31.979,
        "duration": 0.104,
        "velocity": 0.71,
        "hand": "right"
      },
      {
        "midi": 70,
        "time": 32.083,
        "duration": 0.104,
        "velocity": 0.71,
        "hand": "right"
      },
      {
        "midi": 63,
        "time": 32.188,
        "duration": 0.104,
        "velocity": 0.71,
        "hand": "right"
      },
      {
        "midi": 61,
        "time": 32.396,
        "duration": 0.104,
        "velocity": 0.71,
        "hand": "right"
      },
      {
        "midi": 52,
        "time": 32.5,
        "duration": 0.104,
        "velocity": 0.71,
        "hand": "left"
      },
      {
        "midi": 57,
        "time": 32.604,
        "duration": 0.104,
        "velocity": 0.71,
        "hand": "left"
      },
      {
        "midi": 73,
        "time": 32.708,
        "duration": 0.208,
        "velocity": 0.71,
        "hand": "right"
      },
      {
        "midi": 61,
        "time": 32.813,
        "duration": 0.104,
        "velocity": 0.71,
        "hand": "right"
      },
      {
        "midi": 68,
        "time": 32.917,
        "duration": 0.104,
        "velocity": 0.71,
        "hand": "right"
      },
      {
        "midi": 76,
        "time": 32.917,
        "duration": 0.208,
        "velocity": 0.71,
        "hand": "right"
      },
      {
        "midi": 61,
        "time": 33.021,
        "duration": 0.104,
        "velocity": 0.71,
        "hand": "right"
      },
      {
        "midi": 80,
        "time": 33.125,
        "duration": 0.208,
        "velocity": 0.71,
        "hand": "right"
      },
      {
        "midi": 57,
        "time": 33.229,
        "duration": 0.104,
        "velocity": 0.71,
        "hand": "left"
      },
      {
        "midi": 51,
        "time": 33.333,
        "duration": 0.104,
        "velocity": 0.71,
        "hand": "left"
      },
      {
        "midi": 71,
        "time": 33.333,
        "duration": 1.042,
        "velocity": 0.71,
        "hand": "right"
      },
      {
        "midi": 57,
        "time": 33.438,
        "duration": 0.104,
        "velocity": 0.71,
        "hand": "left"
      },
      {
        "midi": 59,
        "time": 33.646,
        "duration": 0.104,
        "velocity": 0.71,
        "hand": "left"
      },
      {
        "midi": 66,
        "time": 33.75,
        "duration": 0.104,
        "velocity": 0.71,
        "hand": "right"
      },
      {
        "midi": 59,
        "time": 33.854,
        "duration": 0.104,
        "velocity": 0.71,
        "hand": "left"
      },
      {
        "midi": 57,
        "time": 34.063,
        "duration": 0.104,
        "velocity": 0.71,
        "hand": "left"
      },
      {
        "midi": 49,
        "time": 34.167,
        "duration": 0.104,
        "velocity": 0.71,
        "hand": "left"
      },
      {
        "midi": 54,
        "time": 34.271,
        "duration": 0.104,
        "velocity": 0.71,
        "hand": "left"
      },
      {
        "midi": 69,
        "time": 34.375,
        "duration": 0.208,
        "velocity": 0.71,
        "hand": "right"
      },
      {
        "midi": 57,
        "time": 34.479,
        "duration": 0.104,
        "velocity": 0.71,
        "hand": "left"
      },
      {
        "midi": 64,
        "time": 34.583,
        "duration": 0.104,
        "velocity": 0.71,
        "hand": "right"
      },
      {
        "midi": 73,
        "time": 34.583,
        "duration": 0.208,
        "velocity": 0.71,
        "hand": "right"
      },
      {
        "midi": 57,
        "time": 34.688,
        "duration": 0.104,
        "velocity": 0.71,
        "hand": "left"
      },
      {
        "midi": 76,
        "time": 34.792,
        "duration": 0.208,
        "velocity": 0.71,
        "hand": "right"
      },
      {
        "midi": 54,
        "time": 34.896,
        "duration": 0.104,
        "velocity": 0.71,
        "hand": "left"
      },
      {
        "midi": 48,
        "time": 35,
        "duration": 0.104,
        "velocity": 0.71,
        "hand": "left"
      },
      {
        "midi": 68,
        "time": 35,
        "duration": 0.833,
        "velocity": 0.71,
        "hand": "right"
      },
      {
        "midi": 54,
        "time": 35.104,
        "duration": 0.104,
        "velocity": 0.71,
        "hand": "left"
      },
      {
        "midi": 56,
        "time": 35.313,
        "duration": 0.104,
        "velocity": 0.71,
        "hand": "left"
      },
      {
        "midi": 63,
        "time": 35.417,
        "duration": 0.104,
        "velocity": 0.71,
        "hand": "right"
      },
      {
        "midi": 56,
        "time": 35.521,
        "duration": 0.104,
        "velocity": 0.71,
        "hand": "left"
      },
      {
        "midi": 54,
        "time": 35.729,
        "duration": 0.104,
        "velocity": 0.71,
        "hand": "left"
      },
      {
        "midi": 49,
        "time": 35.833,
        "duration": 0.104,
        "velocity": 0.71,
        "hand": "left"
      },
      {
        "midi": 54,
        "time": 35.938,
        "duration": 0.104,
        "velocity": 0.71,
        "hand": "left"
      },
      {
        "midi": 69,
        "time": 35.938,
        "duration": 0.104,
        "velocity": 0.71,
        "hand": "right"
      },
      {
        "midi": 57,
        "time": 36.146,
        "duration": 0.104,
        "velocity": 0.71,
        "hand": "left"
      },
      {
        "midi": 73,
        "time": 36.146,
        "duration": 0.104,
        "velocity": 0.71,
        "hand": "right"
      },
      {
        "midi": 64,
        "time": 36.25,
        "duration": 0.104,
        "velocity": 0.71,
        "hand": "right"
      },
      {
        "midi": 76,
        "time": 36.25,
        "duration": 0.104,
        "velocity": 0.71,
        "hand": "right"
      },
      {
        "midi": 57,
        "time": 36.354,
        "duration": 0.104,
        "velocity": 0.71,
        "hand": "left"
      },
      {
        "midi": 80,
        "time": 36.354,
        "duration": 0.104,
        "velocity": 0.71,
        "hand": "right"
      },
      {
        "midi": 54,
        "time": 36.563,
        "duration": 0.104,
        "velocity": 0.71,
        "hand": "left"
      },
      {
        "midi": 78,
        "time": 36.563,
        "duration": 0.104,
        "velocity": 0.71,
        "hand": "right"
      },
      {
        "midi": 48,
        "time": 36.667,
        "duration": 0.104,
        "velocity": 0.71,
        "hand": "left"
      },
      {
        "midi": 75,
        "time": 36.667,
        "duration": 0.417,
        "velocity": 0.71,
        "hand": "right"
      },
      {
        "midi": 54,
        "time": 36.771,
        "duration": 0.104,
        "velocity": 0.71,
        "hand": "left"
      },
      {
        "midi": 56,
        "time": 36.979,
        "duration": 0.104,
        "velocity": 0.71,
        "hand": "left"
      },
      {
        "midi": 63,
        "time": 37.083,
        "duration": 0.104,
        "velocity": 0.71,
        "hand": "right"
      },
      {
        "midi": 68,
        "time": 37.083,
        "duration": 0.417,
        "velocity": 0.71,
        "hand": "right"
      },
      {
        "midi": 56,
        "time": 37.188,
        "duration": 0.104,
        "velocity": 0.71,
        "hand": "left"
      },
      {
        "midi": 54,
        "time": 37.396,
        "duration": 0.104,
        "velocity": 0.71,
        "hand": "left"
      },
      {
        "midi": 47,
        "time": 37.5,
        "duration": 0.104,
        "velocity": 0.71,
        "hand": "left"
      },
      {
        "midi": 54,
        "time": 37.604,
        "duration": 0.104,
        "velocity": 0.71,
        "hand": "left"
      },
      {
        "midi": 66,
        "time": 37.708,
        "duration": 0.208,
        "velocity": 0.71,
        "hand": "right"
      },
      {
        "midi": 57,
        "time": 37.813,
        "duration": 0.104,
        "velocity": 0.71,
        "hand": "left"
      },
      {
        "midi": 62,
        "time": 37.917,
        "duration": 0.104,
        "velocity": 0.71,
        "hand": "right"
      },
      {
        "midi": 69,
        "time": 37.917,
        "duration": 0.208,
        "velocity": 0.71,
        "hand": "right"
      },
      {
        "midi": 57,
        "time": 38.021,
        "duration": 0.104,
        "velocity": 0.71,
        "hand": "left"
      },
      {
        "midi": 73,
        "time": 38.125,
        "duration": 0.208,
        "velocity": 0.71,
        "hand": "right"
      },
      {
        "midi": 54,
        "time": 38.229,
        "duration": 0.104,
        "velocity": 0.71,
        "hand": "left"
      },
      {
        "midi": 47,
        "time": 38.333,
        "duration": 0.104,
        "velocity": 0.71,
        "hand": "left"
      },
      {
        "midi": 64,
        "time": 38.333,
        "duration": 0.833,
        "velocity": 0.71,
        "hand": "right"
      },
      {
        "midi": 52,
        "time": 38.438,
        "duration": 0.104,
        "velocity": 0.71,
        "hand": "left"
      },
      {
        "midi": 56,
        "time": 38.646,
        "duration": 0.104,
        "velocity": 0.71,
        "hand": "left"
      },
      {
        "midi": 62,
        "time": 38.75,
        "duration": 0.104,
        "velocity": 0.71,
        "hand": "right"
      },
      {
        "midi": 56,
        "time": 38.854,
        "duration": 0.104,
        "velocity": 0.71,
        "hand": "left"
      },
      {
        "midi": 52,
        "time": 39.063,
        "duration": 0.104,
        "velocity": 0.71,
        "hand": "left"
      },
      {
        "midi": 47,
        "time": 39.167,
        "duration": 0.104,
        "velocity": 0.71,
        "hand": "left"
      },
      {
        "midi": 54,
        "time": 39.271,
        "duration": 0.104,
        "velocity": 0.71,
        "hand": "left"
      },
      {
        "midi": 66,
        "time": 39.271,
        "duration": 0.104,
        "velocity": 0.71,
        "hand": "right"
      },
      {
        "midi": 57,
        "time": 39.479,
        "duration": 0.104,
        "velocity": 0.71,
        "hand": "left"
      },
      {
        "midi": 69,
        "time": 39.479,
        "duration": 0.104,
        "velocity": 0.71,
        "hand": "right"
      },
      {
        "midi": 62,
        "time": 39.583,
        "duration": 0.104,
        "velocity": 0.71,
        "hand": "right"
      },
      {
        "midi": 73,
        "time": 39.583,
        "duration": 0.104,
        "velocity": 0.71,
        "hand": "right"
      },
      {
        "midi": 57,
        "time": 39.688,
        "duration": 0.104,
        "velocity": 0.71,
        "hand": "left"
      },
      {
        "midi": 76,
        "time": 39.688,
        "duration": 0.104,
        "velocity": 0.71,
        "hand": "right"
      },
      {
        "midi": 54,
        "time": 39.896,
        "duration": 0.104,
        "velocity": 0.71,
        "hand": "left"
      },
      {
        "midi": 74,
        "time": 39.896,
        "duration": 0.104,
        "velocity": 0.71,
        "hand": "right"
      },
      {
        "midi": 47,
        "time": 40,
        "duration": 0.104,
        "velocity": 0.71,
        "hand": "left"
      },
      {
        "midi": 68,
        "time": 40,
        "duration": 0.417,
        "velocity": 0.71,
        "hand": "right"
      },
      {
        "midi": 52,
        "time": 40.104,
        "duration": 0.104,
        "velocity": 0.71,
        "hand": "left"
      },
      {
        "midi": 56,
        "time": 40.313,
        "duration": 0.104,
        "velocity": 0.71,
        "hand": "left"
      },
      {
        "midi": 62,
        "time": 40.417,
        "duration": 0.104,
        "velocity": 0.71,
        "hand": "right"
      },
      {
        "midi": 66,
        "time": 40.417,
        "duration": 0.833,
        "velocity": 0.71,
        "hand": "right"
      },
      {
        "midi": 56,
        "time": 40.521,
        "duration": 0.104,
        "velocity": 0.71,
        "hand": "left"
      },
      {
        "midi": 52,
        "time": 40.729,
        "duration": 0.104,
        "velocity": 0.71,
        "hand": "left"
      },
      {
        "midi": 40,
        "time": 40.833,
        "duration": 0.104,
        "velocity": 0.71,
        "hand": "left"
      },
      {
        "midi": 47,
        "time": 40.938,
        "duration": 0.104,
        "velocity": 0.71,
        "hand": "left"
      },
      {
        "midi": 52,
        "time": 41.146,
        "duration": 0.104,
        "velocity": 0.71,
        "hand": "left"
      },
      {
        "midi": 54,
        "time": 41.25,
        "duration": 0.104,
        "velocity": 0.71,
        "hand": "left"
      },
      {
        "midi": 62,
        "time": 41.25,
        "duration": 0.417,
        "velocity": 0.71,
        "hand": "right"
      },
      {
        "midi": 56,
        "time": 41.354,
        "duration": 0.104,
        "velocity": 0.71,
        "hand": "left"
      },
      {
        "midi": 59,
        "time": 41.563,
        "duration": 0.104,
        "velocity": 0.71,
        "hand": "left"
      },
      {
        "midi": 33,
        "time": 41.667,
        "duration": 0.104,
        "velocity": 0.71,
        "hand": "left"
      },
      {
        "midi": 61,
        "time": 41.667,
        "duration": 2.083,
        "velocity": 0.71,
        "hand": "right"
      },
      {
        "midi": 45,
        "time": 41.771,
        "duration": 3.229,
        "velocity": 0.71,
        "hand": "left"
      },
      {
        "midi": 52,
        "time": 41.979,
        "duration": 0.104,
        "velocity": 0.71,
        "hand": "left"
      },
      {
        "midi": 55,
        "time": 42.083,
        "duration": 0.104,
        "velocity": 0.71,
        "hand": "left"
      },
      {
        "midi": 57,
        "time": 42.188,
        "duration": 0.104,
        "velocity": 0.71,
        "hand": "left"
      },
      {
        "midi": 59,
        "time": 42.396,
        "duration": 0.104,
        "velocity": 0.71,
        "hand": "left"
      },
      {
        "midi": 57,
        "time": 42.5,
        "duration": 0.104,
        "velocity": 0.71,
        "hand": "left"
      },
      {
        "midi": 52,
        "time": 42.604,
        "duration": 0.104,
        "velocity": 0.71,
        "hand": "left"
      },
      {
        "midi": 55,
        "time": 42.813,
        "duration": 0.104,
        "velocity": 0.71,
        "hand": "left"
      },
      {
        "midi": 57,
        "time": 42.917,
        "duration": 0.104,
        "velocity": 0.71,
        "hand": "left"
      },
      {
        "midi": 59,
        "time": 43.021,
        "duration": 0.104,
        "velocity": 0.71,
        "hand": "left"
      },
      {
        "midi": 57,
        "time": 43.229,
        "duration": 0.104,
        "velocity": 0.71,
        "hand": "left"
      },
      {
        "midi": 55,
        "time": 43.333,
        "duration": 1.667,
        "velocity": 0.71,
        "hand": "left"
      },
      {
        "midi": 61,
        "time": 43.75,
        "duration": 0.417,
        "velocity": 0.71,
        "hand": "right"
      },
      {
        "midi": 64,
        "time": 44.167,
        "duration": 0.417,
        "velocity": 0.71,
        "hand": "right"
      },
      {
        "midi": 61,
        "time": 44.583,
        "duration": 0.417,
        "velocity": 0.71,
        "hand": "right"
      },
      {
        "midi": 38,
        "time": 45,
        "duration": 0.208,
        "velocity": 0.71,
        "hand": "left"
      },
      {
        "midi": 66,
        "time": 45,
        "duration": 2.083,
        "velocity": 0.71,
        "hand": "right"
      },
      {
        "midi": 45,
        "time": 45.208,
        "duration": 0.208,
        "velocity": 0.71,
        "hand": "left"
      },
      {
        "midi": 54,
        "time": 45.417,
        "duration": 1.25,
        "velocity": 0.71,
        "hand": "left"
      },
      {
        "midi": 57,
        "time": 45.417,
        "duration": 0.104,
        "velocity": 0.71,
        "hand": "left"
      },
      {
        "midi": 59,
        "time": 45.521,
        "duration": 0.104,
        "velocity": 0.71,
        "hand": "left"
      },
      {
        "midi": 61,
        "time": 45.729,
        "duration": 0.104,
        "velocity": 0.71,
        "hand": "right"
      },
      {
        "midi": 59,
        "time": 45.833,
        "duration": 0.104,
        "velocity": 0.71,
        "hand": "left"
      },
      {
        "midi": 57,
        "time": 45.938,
        "duration": 0.104,
        "velocity": 0.71,
        "hand": "left"
      },
      {
        "midi": 59,
        "time": 46.146,
        "duration": 0.104,
        "velocity": 0.71,
        "hand": "left"
      },
      {
        "midi": 61,
        "time": 46.25,
        "duration": 0.104,
        "velocity": 0.71,
        "hand": "right"
      },
      {
        "midi": 59,
        "time": 46.354,
        "duration": 0.104,
        "velocity": 0.71,
        "hand": "left"
      },
      {
        "midi": 57,
        "time": 46.563,
        "duration": 0.104,
        "velocity": 0.71,
        "hand": "left"
      },
      {
        "midi": 35,
        "time": 46.667,
        "duration": 0.208,
        "velocity": 0.71,
        "hand": "left"
      },
      {
        "midi": 61,
        "time": 46.667,
        "duration": 0.833,
        "velocity": 0.71,
        "hand": "right"
      },
      {
        "midi": 47,
        "time": 46.875,
        "duration": 0.208,
        "velocity": 0.71,
        "hand": "left"
      },
      {
        "midi": 54,
        "time": 47.083,
        "duration": 0.208,
        "velocity": 0.71,
        "hand": "left"
      },
      {
        "midi": 66,
        "time": 47.083,
        "duration": 0.417,
        "velocity": 0.71,
        "hand": "right"
      },
      {
        "midi": 57,
        "time": 47.292,
        "duration": 0.208,
        "velocity": 0.71,
        "hand": "left"
      },
      {
        "midi": 59,
        "time": 47.5,
        "duration": 0.417,
        "velocity": 0.71,
        "hand": "left"
      },
      {
        "midi": 63,
        "time": 47.5,
        "duration": 1.667,
        "velocity": 0.71,
        "hand": "right"
      },
      {
        "midi": 69,
        "time": 47.5,
        "duration": 0.417,
        "velocity": 0.71,
        "hand": "right"
      },
      {
        "midi": 66,
        "time": 47.917,
        "duration": 0.417,
        "velocity": 0.71,
        "hand": "right"
      },
      {
        "midi": 32,
        "time": 48.333,
        "duration": 0.208,
        "velocity": 0.71,
        "hand": "left"
      },
      {
        "midi": 71,
        "time": 48.333,
        "duration": 0.417,
        "velocity": 0.71,
        "hand": "right"
      },
      {
        "midi": 44,
        "time": 48.542,
        "duration": 0.208,
        "velocity": 0.71,
        "hand": "left"
      },
      {
        "midi": 52,
        "time": 48.75,
        "duration": 0.208,
        "velocity": 0.71,
        "hand": "left"
      },
      {
        "midi": 68,
        "time": 48.75,
        "duration": 0.417,
        "velocity": 0.71,
        "hand": "right"
      },
      {
        "midi": 56,
        "time": 48.958,
        "duration": 0.208,
        "velocity": 0.71,
        "hand": "left"
      },
      {
        "midi": 59,
        "time": 49.167,
        "duration": 0.417,
        "velocity": 0.71,
        "hand": "left"
      },
      {
        "midi": 64,
        "time": 49.167,
        "duration": 0.833,
        "velocity": 0.71,
        "hand": "right"
      },
      {
        "midi": 71,
        "time": 49.167,
        "duration": 0.417,
        "velocity": 0.71,
        "hand": "right"
      },
      {
        "midi": 68,
        "time": 49.583,
        "duration": 0.417,
        "velocity": 0.71,
        "hand": "right"
      },
      {
        "midi": 30,
        "time": 50,
        "duration": 0.104,
        "velocity": 0.71,
        "hand": "left"
      },
      {
        "midi": 69,
        "time": 50,
        "duration": 2.083,
        "velocity": 0.71,
        "hand": "right"
      },
      {
        "midi": 73,
        "time": 50,
        "duration": 2.083,
        "velocity": 0.71,
        "hand": "right"
      },
      {
        "midi": 42,
        "time": 50.104,
        "duration": 0.104,
        "velocity": 0.71,
        "hand": "left"
      },
      {
        "midi": 49,
        "time": 50.313,
        "duration": 0.104,
        "velocity": 0.71,
        "hand": "left"
      },
      {
        "midi": 52,
        "time": 50.417,
        "duration": 0.104,
        "velocity": 0.71,
        "hand": "left"
      },
      {
        "midi": 54,
        "time": 50.521,
        "duration": 0.104,
        "velocity": 0.71,
        "hand": "left"
      },
      {
        "midi": 57,
        "time": 50.729,
        "duration": 0.104,
        "velocity": 0.71,
        "hand": "left"
      },
      {
        "midi": 61,
        "time": 50.833,
        "duration": 0.104,
        "velocity": 0.71,
        "hand": "right"
      },
      {
        "midi": 64,
        "time": 50.938,
        "duration": 0.104,
        "velocity": 0.71,
        "hand": "right"
      },
      {
        "midi": 66,
        "time": 51.146,
        "duration": 0.104,
        "velocity": 0.71,
        "hand": "right"
      },
      {
        "midi": 68,
        "time": 51.354,
        "duration": 0.104,
        "velocity": 0.71,
        "hand": "right"
      },
      {
        "midi": 66,
        "time": 51.563,
        "duration": 0.104,
        "velocity": 0.71,
        "hand": "right"
      },
      {
        "midi": 64,
        "time": 51.667,
        "duration": 0.833,
        "velocity": 0.71,
        "hand": "right"
      },
      {
        "midi": 66,
        "time": 52.083,
        "duration": 0.417,
        "velocity": 0.71,
        "hand": "right"
      },
      {
        "midi": 69,
        "time": 52.083,
        "duration": 0.417,
        "velocity": 0.71,
        "hand": "right"
      },
      {
        "midi": 63,
        "time": 52.5,
        "duration": 0.417,
        "velocity": 0.71,
        "hand": "right"
      },
      {
        "midi": 68,
        "time": 52.5,
        "duration": 0.417,
        "velocity": 0.71,
        "hand": "right"
      },
      {
        "midi": 71,
        "time": 52.5,
        "duration": 0.417,
        "velocity": 0.71,
        "hand": "right"
      },
      {
        "midi": 61,
        "time": 52.917,
        "duration": 0.417,
        "velocity": 0.71,
        "hand": "right"
      },
      {
        "midi": 69,
        "time": 52.917,
        "duration": 0.417,
        "velocity": 0.71,
        "hand": "right"
      },
      {
        "midi": 73,
        "time": 52.917,
        "duration": 0.417,
        "velocity": 0.71,
        "hand": "right"
      },
      {
        "midi": 30,
        "time": 53.333,
        "duration": 0.104,
        "velocity": 0.71,
        "hand": "left"
      },
      {
        "midi": 69,
        "time": 53.333,
        "duration": 2.083,
        "velocity": 0.71,
        "hand": "right"
      },
      {
        "midi": 73,
        "time": 53.333,
        "duration": 2.083,
        "velocity": 0.71,
        "hand": "right"
      },
      {
        "midi": 42,
        "time": 53.438,
        "duration": 0.104,
        "velocity": 0.71,
        "hand": "left"
      },
      {
        "midi": 49,
        "time": 53.646,
        "duration": 0.104,
        "velocity": 0.71,
        "hand": "left"
      },
      {
        "midi": 52,
        "time": 53.75,
        "duration": 0.104,
        "velocity": 0.71,
        "hand": "left"
      },
      {
        "midi": 54,
        "time": 53.854,
        "duration": 0.104,
        "velocity": 0.71,
        "hand": "left"
      },
      {
        "midi": 57,
        "time": 54.063,
        "duration": 0.104,
        "velocity": 0.71,
        "hand": "left"
      },
      {
        "midi": 61,
        "time": 54.167,
        "duration": 0.104,
        "velocity": 0.71,
        "hand": "right"
      },
      {
        "midi": 64,
        "time": 54.271,
        "duration": 0.104,
        "velocity": 0.71,
        "hand": "right"
      },
      {
        "midi": 66,
        "time": 54.479,
        "duration": 0.104,
        "velocity": 0.71,
        "hand": "right"
      },
      {
        "midi": 68,
        "time": 54.688,
        "duration": 0.104,
        "velocity": 0.71,
        "hand": "right"
      },
      {
        "midi": 66,
        "time": 54.896,
        "duration": 0.104,
        "velocity": 0.71,
        "hand": "right"
      },
      {
        "midi": 64,
        "time": 55,
        "duration": 0.833,
        "velocity": 0.71,
        "hand": "right"
      },
      {
        "midi": 66,
        "time": 55.417,
        "duration": 0.104,
        "velocity": 0.71,
        "hand": "right"
      },
      {
        "midi": 69,
        "time": 55.417,
        "duration": 0.417,
        "velocity": 0.71,
        "hand": "right"
      },
      {
        "midi": 61,
        "time": 55.521,
        "duration": 0.104,
        "velocity": 0.71,
        "hand": "right"
      },
      {
        "midi": 54,
        "time": 55.833,
        "duration": 0.833,
        "velocity": 0.71,
        "hand": "left"
      },
      {
        "midi": 68,
        "time": 55.833,
        "duration": 0.104,
        "velocity": 0.71,
        "hand": "right"
      },
      {
        "midi": 71,
        "time": 55.833,
        "duration": 0.417,
        "velocity": 0.71,
        "hand": "right"
      },
      {
        "midi": 63,
        "time": 55.938,
        "duration": 0.104,
        "velocity": 0.71,
        "hand": "right"
      },
      {
        "midi": 66,
        "time": 56.146,
        "duration": 0.104,
        "velocity": 0.71,
        "hand": "right"
      },
      {
        "midi": 69,
        "time": 56.25,
        "duration": 0.104,
        "velocity": 0.71,
        "hand": "right"
      },
      {
        "midi": 73,
        "time": 56.25,
        "duration": 0.417,
        "velocity": 0.71,
        "hand": "right"
      },
      {
        "midi": 64,
        "time": 56.354,
        "duration": 0.104,
        "velocity": 0.71,
        "hand": "right"
      },
      {
        "midi": 68,
        "time": 56.563,
        "duration": 0.104,
        "velocity": 0.71,
        "hand": "right"
      },
      {
        "midi": 47,
        "time": 56.667,
        "duration": 0.417,
        "velocity": 0.71,
        "hand": "left"
      },
      {
        "midi": 71,
        "time": 56.667,
        "duration": 0.104,
        "velocity": 0.71,
        "hand": "right"
      },
      {
        "midi": 75,
        "time": 56.667,
        "duration": 0.417,
        "velocity": 0.71,
        "hand": "right"
      },
      {
        "midi": 66,
        "time": 56.771,
        "duration": 0.104,
        "velocity": 0.71,
        "hand": "right"
      },
      {
        "midi": 69,
        "time": 56.979,
        "duration": 0.104,
        "velocity": 0.71,
        "hand": "right"
      },
      {
        "midi": 54,
        "time": 57.083,
        "duration": 0.417,
        "velocity": 0.71,
        "hand": "left"
      },
      {
        "midi": 73,
        "time": 57.083,
        "duration": 0.104,
        "velocity": 0.71,
        "hand": "right"
      },
      {
        "midi": 76,
        "time": 57.083,
        "duration": 0.417,
        "velocity": 0.71,
        "hand": "right"
      },
      {
        "midi": 68,
        "time": 57.188,
        "duration": 0.104,
        "velocity": 0.71,
        "hand": "right"
      },
      {
        "midi": 71,
        "time": 57.396,
        "duration": 0.104,
        "velocity": 0.71,
        "hand": "right"
      },
      {
        "midi": 57,
        "time": 57.5,
        "duration": 0.417,
        "velocity": 0.71,
        "hand": "left"
      },
      {
        "midi": 75,
        "time": 57.5,
        "duration": 0.104,
        "velocity": 0.71,
        "hand": "right"
      },
      {
        "midi": 78,
        "time": 57.5,
        "duration": 0.417,
        "velocity": 0.71,
        "hand": "right"
      },
      {
        "midi": 69,
        "time": 57.604,
        "duration": 0.104,
        "velocity": 0.71,
        "hand": "right"
      },
      {
        "midi": 73,
        "time": 57.813,
        "duration": 0.104,
        "velocity": 0.71,
        "hand": "right"
      },
      {
        "midi": 59,
        "time": 57.917,
        "duration": 0.417,
        "velocity": 0.71,
        "hand": "left"
      },
      {
        "midi": 76,
        "time": 57.917,
        "duration": 0.104,
        "velocity": 0.71,
        "hand": "right"
      },
      {
        "midi": 80,
        "time": 57.917,
        "duration": 0.417,
        "velocity": 0.71,
        "hand": "right"
      },
      {
        "midi": 71,
        "time": 58.021,
        "duration": 0.104,
        "velocity": 0.71,
        "hand": "right"
      },
      {
        "midi": 75,
        "time": 58.229,
        "duration": 0.104,
        "velocity": 0.71,
        "hand": "right"
      },
      {
        "midi": 63,
        "time": 58.333,
        "duration": 0.417,
        "velocity": 0.71,
        "hand": "right"
      },
      {
        "midi": 78,
        "time": 58.333,
        "duration": 0.104,
        "velocity": 0.71,
        "hand": "right"
      },
      {
        "midi": 81,
        "time": 58.333,
        "duration": 0.417,
        "velocity": 0.71,
        "hand": "right"
      },
      {
        "midi": 73,
        "time": 58.438,
        "duration": 0.104,
        "velocity": 0.71,
        "hand": "right"
      },
      {
        "midi": 76,
        "time": 58.646,
        "duration": 0.104,
        "velocity": 0.71,
        "hand": "right"
      },
      {
        "midi": 66,
        "time": 58.75,
        "duration": 0.417,
        "velocity": 0.71,
        "hand": "right"
      },
      {
        "midi": 80,
        "time": 58.75,
        "duration": 0.104,
        "velocity": 0.71,
        "hand": "right"
      },
      {
        "midi": 83,
        "time": 58.75,
        "duration": 0.417,
        "velocity": 0.71,
        "hand": "right"
      },
      {
        "midi": 75,
        "time": 58.854,
        "duration": 0.104,
        "velocity": 0.71,
        "hand": "right"
      },
      {
        "midi": 78,
        "time": 59.063,
        "duration": 0.104,
        "velocity": 0.71,
        "hand": "right"
      },
      {
        "midi": 69,
        "time": 59.167,
        "duration": 0.417,
        "velocity": 0.71,
        "hand": "right"
      },
      {
        "midi": 81,
        "time": 59.167,
        "duration": 0.104,
        "velocity": 0.71,
        "hand": "right"
      },
      {
        "midi": 85,
        "time": 59.167,
        "duration": 0.417,
        "velocity": 0.71,
        "hand": "right"
      },
      {
        "midi": 76,
        "time": 59.271,
        "duration": 0.104,
        "velocity": 0.71,
        "hand": "right"
      },
      {
        "midi": 80,
        "time": 59.479,
        "duration": 0.104,
        "velocity": 0.71,
        "hand": "right"
      },
      {
        "midi": 71,
        "time": 59.583,
        "duration": 0.417,
        "velocity": 0.71,
        "hand": "right"
      },
      {
        "midi": 83,
        "time": 59.583,
        "duration": 0.104,
        "velocity": 0.71,
        "hand": "right"
      },
      {
        "midi": 87,
        "time": 59.583,
        "duration": 0.417,
        "velocity": 0.71,
        "hand": "right"
      },
      {
        "midi": 78,
        "time": 59.688,
        "duration": 0.104,
        "velocity": 0.71,
        "hand": "right"
      },
      {
        "midi": 81,
        "time": 59.896,
        "duration": 0.104,
        "velocity": 0.71,
        "hand": "right"
      },
      {
        "midi": 28,
        "time": 60,
        "duration": 0.208,
        "velocity": 0.71,
        "hand": "left"
      },
      {
        "midi": 83,
        "time": 60,
        "duration": 1.667,
        "velocity": 0.71,
        "hand": "right"
      },
      {
        "midi": 90,
        "time": 60,
        "duration": 0.833,
        "velocity": 0.71,
        "hand": "right"
      },
      {
        "midi": 40,
        "time": 60.208,
        "duration": 0.208,
        "velocity": 0.71,
        "hand": "left"
      },
      {
        "midi": 47,
        "time": 60.417,
        "duration": 0.208,
        "velocity": 0.71,
        "hand": "left"
      },
      {
        "midi": 52,
        "time": 60.625,
        "duration": 0.208,
        "velocity": 0.71,
        "hand": "left"
      },
      {
        "midi": 56,
        "time": 60.833,
        "duration": 0.208,
        "velocity": 0.71,
        "hand": "left"
      },
      {
        "midi": 88,
        "time": 60.833,
        "duration": 0.833,
        "velocity": 0.71,
        "hand": "right"
      },
      {
        "midi": 59,
        "time": 61.042,
        "duration": 0.208,
        "velocity": 0.71,
        "hand": "left"
      },
      {
        "midi": 64,
        "time": 61.25,
        "duration": 0.208,
        "velocity": 0.71,
        "hand": "right"
      },
      {
        "midi": 68,
        "time": 61.458,
        "duration": 0.208,
        "velocity": 0.71,
        "hand": "right"
      },
      {
        "midi": 76,
        "time": 61.667,
        "duration": 1.771,
        "velocity": 0.71,
        "hand": "right"
      },
      {
        "midi": 64,
        "time": 62.5,
        "duration": 0.833,
        "velocity": 0.71,
        "hand": "right"
      },
      {
        "midi": 59,
        "time": 63.333,
        "duration": 0.208,
        "velocity": 0.71,
        "hand": "left"
      },
      {
        "midi": 66,
        "time": 63.333,
        "duration": 1.25,
        "velocity": 0.71,
        "hand": "right"
      },
      {
        "midi": 69,
        "time": 63.333,
        "duration": 1.25,
        "velocity": 0.71,
        "hand": "right"
      },
      {
        "midi": 74,
        "time": 63.438,
        "duration": 0.104,
        "velocity": 0.71,
        "hand": "right"
      },
      {
        "midi": 61,
        "time": 63.542,
        "duration": 0.208,
        "velocity": 0.71,
        "hand": "right"
      },
      {
        "midi": 76,
        "time": 63.646,
        "duration": 0.104,
        "velocity": 0.71,
        "hand": "right"
      },
      {
        "midi": 62,
        "time": 63.75,
        "duration": 0.833,
        "velocity": 0.71,
        "hand": "right"
      },
      {
        "midi": 73,
        "time": 63.75,
        "duration": 0.625,
        "velocity": 0.71,
        "hand": "right"
      },
      {
        "midi": 71,
        "time": 64.375,
        "duration": 0.208,
        "velocity": 0.71,
        "hand": "right"
      },
      {
        "midi": 52,
        "time": 64.583,
        "duration": 0.417,
        "velocity": 0.71,
        "hand": "left"
      },
      {
        "midi": 68,
        "time": 64.583,
        "duration": 0.417,
        "velocity": 0.71,
        "hand": "right"
      },
      {
        "midi": 71,
        "time": 64.583,
        "duration": 0.208,
        "velocity": 0.71,
        "hand": "right"
      },
      {
        "midi": 73,
        "time": 64.792,
        "duration": 0.208,
        "velocity": 0.71,
        "hand": "right"
      },
      {
        "midi": 54,
        "time": 65,
        "duration": 0.417,
        "velocity": 0.71,
        "hand": "left"
      },
      {
        "midi": 66,
        "time": 65,
        "duration": 0.417,
        "velocity": 0.71,
        "hand": "right"
      },
      {
        "midi": 69,
        "time": 65,
        "duration": 0.417,
        "velocity": 0.71,
        "hand": "right"
      },
      {
        "midi": 47,
        "time": 65.417,
        "duration": 1.25,
        "velocity": 0.71,
        "hand": "left"
      },
      {
        "midi": 63,
        "time": 65.417,
        "duration": 1.25,
        "velocity": 0.71,
        "hand": "right"
      },
      {
        "midi": 66,
        "time": 65.417,
        "duration": 0.833,
        "velocity": 0.71,
        "hand": "right"
      },
      {
        "midi": 68,
        "time": 66.25,
        "duration": 0.417,
        "velocity": 0.71,
        "hand": "right"
      },
      {
        "midi": 40,
        "time": 66.667,
        "duration": 0.417,
        "velocity": 0.71,
        "hand": "left"
      },
      {
        "midi": 56,
        "time": 66.667,
        "duration": 0.417,
        "velocity": 0.71,
        "hand": "left"
      },
      {
        "midi": 66,
        "time": 66.667,
        "duration": 0.208,
        "velocity": 0.71,
        "hand": "right"
      },
      {
        "midi": 64,
        "time": 66.875,
        "duration": 0.208,
        "velocity": 0.71,
        "hand": "right"
      },
      {
        "midi": 56,
        "time": 67.083,
        "duration": 1.25,
        "velocity": 0.71,
        "hand": "left"
      },
      {
        "midi": 71,
        "time": 67.083,
        "duration": 1.25,
        "velocity": 0.71,
        "hand": "right"
      },
      {
        "midi": 78,
        "time": 67.083,
        "duration": 0.833,
        "velocity": 0.71,
        "hand": "right"
      },
      {
        "midi": 64,
        "time": 67.917,
        "duration": 0.417,
        "velocity": 0.71,
        "hand": "right"
      },
      {
        "midi": 76,
        "time": 67.917,
        "duration": 0.417,
        "velocity": 0.71,
        "hand": "right"
      },
      {
        "midi": 45,
        "time": 68.333,
        "duration": 0.417,
        "velocity": 0.71,
        "hand": "left"
      },
      {
        "midi": 57,
        "time": 68.333,
        "duration": 0.417,
        "velocity": 0.71,
        "hand": "left"
      },
      {
        "midi": 66,
        "time": 68.333,
        "duration": 0.208,
        "velocity": 0.71,
        "hand": "right"
      },
      {
        "midi": 64,
        "time": 68.542,
        "duration": 0.208,
        "velocity": 0.71,
        "hand": "right"
      },
      {
        "midi": 52,
        "time": 68.75,
        "duration": 1.25,
        "velocity": 0.71,
        "hand": "left"
      },
      {
        "midi": 64,
        "time": 68.75,
        "duration": 1.25,
        "velocity": 0.71,
        "hand": "right"
      },
      {
        "midi": 80,
        "time": 68.75,
        "duration": 0.625,
        "velocity": 0.71,
        "hand": "right"
      },
      {
        "midi": 83,
        "time": 69.375,
        "duration": 0.208,
        "velocity": 0.71,
        "hand": "right"
      },
      {
        "midi": 81,
        "time": 69.583,
        "duration": 0.208,
        "velocity": 0.71,
        "hand": "right"
      },
      {
        "midi": 78,
        "time": 69.792,
        "duration": 0.208,
        "velocity": 0.71,
        "hand": "right"
      },
      {
        "midi": 59,
        "time": 70,
        "duration": 0.208,
        "velocity": 0.71,
        "hand": "left"
      },
      {
        "midi": 69,
        "time": 70,
        "duration": 1.25,
        "velocity": 0.71,
        "hand": "right"
      },
      {
        "midi": 76,
        "time": 70,
        "duration": 0.104,
        "velocity": 0.71,
        "hand": "right"
      },
      {
        "midi": 74,
        "time": 70.104,
        "duration": 0.104,
        "velocity": 0.71,
        "hand": "right"
      },
      {
        "midi": 61,
        "time": 70.208,
        "duration": 0.208,
        "velocity": 0.71,
        "hand": "right"
      },
      {
        "midi": 76,
        "time": 70.313,
        "duration": 0.104,
        "velocity": 0.71,
        "hand": "right"
      },
      {
        "midi": 62,
        "time": 70.417,
        "duration": 1.25,
        "velocity": 0.71,
        "hand": "right"
      },
      {
        "midi": 73,
        "time": 70.417,
        "duration": 0.625,
        "velocity": 0.71,
        "hand": "right"
      },
      {
        "midi": 71,
        "time": 71.042,
        "duration": 0.208,
        "velocity": 0.71,
        "hand": "right"
      },
      {
        "midi": 65,
        "time": 71.25,
        "duration": 0.417,
        "velocity": 0.71,
        "hand": "right"
      },
      {
        "midi": 68,
        "time": 71.25,
        "duration": 0.417,
        "velocity": 0.71,
        "hand": "right"
      },
      {
        "midi": 71,
        "time": 71.25,
        "duration": 0.208,
        "velocity": 0.71,
        "hand": "right"
      },
      {
        "midi": 73,
        "time": 71.458,
        "duration": 0.208,
        "velocity": 0.71,
        "hand": "right"
      },
      {
        "midi": 54,
        "time": 71.667,
        "duration": 0.417,
        "velocity": 0.71,
        "hand": "left"
      },
      {
        "midi": 64,
        "time": 71.667,
        "duration": 0.833,
        "velocity": 0.71,
        "hand": "right"
      },
      {
        "midi": 69,
        "time": 71.667,
        "duration": 0.417,
        "velocity": 0.71,
        "hand": "right"
      },
      {
        "midi": 47,
        "time": 72.083,
        "duration": 0.833,
        "velocity": 0.71,
        "hand": "left"
      },
      {
        "midi": 57,
        "time": 72.083,
        "duration": 0.833,
        "velocity": 0.71,
        "hand": "left"
      },
      {
        "midi": 66,
        "time": 72.083,
        "duration": 0.625,
        "velocity": 0.71,
        "hand": "right"
      },
      {
        "midi": 63,
        "time": 72.5,
        "duration": 0.417,
        "velocity": 0.71,
        "hand": "right"
      },
      {
        "midi": 66,
        "time": 72.708,
        "duration": 0.208,
        "velocity": 0.71,
        "hand": "right"
      },
      {
        "midi": 45,
        "time": 72.917,
        "duration": 0.417,
        "velocity": 0.71,
        "hand": "left"
      },
      {
        "midi": 61,
        "time": 72.917,
        "duration": 0.417,
        "velocity": 0.71,
        "hand": "right"
      },
      {
        "midi": 66,
        "time": 72.917,
        "duration": 0.208,
        "velocity": 0.71,
        "hand": "right"
      },
      {
        "midi": 68,
        "time": 73.125,
        "duration": 0.208,
        "velocity": 0.71,
        "hand": "right"
      },
      {
        "midi": 44,
        "time": 73.333,
        "duration": 0.417,
        "velocity": 0.71,
        "hand": "left"
      },
      {
        "midi": 59,
        "time": 73.333,
        "duration": 0.417,
        "velocity": 0.71,
        "hand": "left"
      },
      {
        "midi": 66,
        "time": 73.333,
        "duration": 0.104,
        "velocity": 0.71,
        "hand": "right"
      },
      {
        "midi": 64,
        "time": 73.438,
        "duration": 0.104,
        "velocity": 0.71,
        "hand": "right"
      },
      {
        "midi": 42,
        "time": 73.75,
        "duration": 0.833,
        "velocity": 0.71,
        "hand": "left"
      },
      {
        "midi": 57,
        "time": 73.75,
        "duration": 0.833,
        "velocity": 0.71,
        "hand": "left"
      },
      {
        "midi": 61,
        "time": 73.75,
        "duration": 0.833,
        "velocity": 0.71,
        "hand": "right"
      },
      {
        "midi": 35,
        "time": 74.583,
        "duration": 0.417,
        "velocity": 0.71,
        "hand": "left"
      },
      {
        "midi": 57,
        "time": 74.583,
        "duration": 0.417,
        "velocity": 0.71,
        "hand": "left"
      },
      {
        "midi": 64,
        "time": 74.583,
        "duration": 0.417,
        "velocity": 0.71,
        "hand": "right"
      },
      {
        "midi": 40,
        "time": 75,
        "duration": 0.833,
        "velocity": 0.71,
        "hand": "left"
      },
      {
        "midi": 57,
        "time": 75,
        "duration": 0.417,
        "velocity": 0.71,
        "hand": "left"
      },
      {
        "midi": 64,
        "time": 75,
        "duration": 1.25,
        "velocity": 0.71,
        "hand": "right"
      },
      {
        "midi": 56,
        "time": 75.417,
        "duration": 0.833,
        "velocity": 0.71,
        "hand": "left"
      },
      {
        "midi": 40,
        "time": 75.833,
        "duration": 0.417,
        "velocity": 0.71,
        "hand": "left"
      },
      {
        "midi": 52,
        "time": 76.25,
        "duration": 0.417,
        "velocity": 0.71,
        "hand": "left"
      },
      {
        "midi": 50,
        "time": 76.667,
        "duration": 0.104,
        "velocity": 0.71,
        "hand": "left"
      },
      {
        "midi": 54,
        "time": 76.771,
        "duration": 0.104,
        "velocity": 0.71,
        "hand": "left"
      },
      {
        "midi": 57,
        "time": 76.979,
        "duration": 0.104,
        "velocity": 0.71,
        "hand": "left"
      },
      {
        "midi": 42,
        "time": 77.083,
        "duration": 0.833,
        "velocity": 0.71,
        "hand": "left"
      },
      {
        "midi": 61,
        "time": 77.083,
        "duration": 0.104,
        "velocity": 0.71,
        "hand": "right"
      },
      {
        "midi": 59,
        "time": 77.188,
        "duration": 0.104,
        "velocity": 0.71,
        "hand": "left"
      },
      {
        "midi": 57,
        "time": 77.396,
        "duration": 0.104,
        "velocity": 0.71,
        "hand": "left"
      },
      {
        "midi": 56,
        "time": 77.5,
        "duration": 0.104,
        "velocity": 0.71,
        "hand": "left"
      },
      {
        "midi": 59,
        "time": 77.604,
        "duration": 0.104,
        "velocity": 0.71,
        "hand": "left"
      },
      {
        "midi": 62,
        "time": 77.813,
        "duration": 0.104,
        "velocity": 0.71,
        "hand": "right"
      },
      {
        "midi": 40,
        "time": 77.917,
        "duration": 0.417,
        "velocity": 0.71,
        "hand": "left"
      },
      {
        "midi": 66,
        "time": 77.917,
        "duration": 0.104,
        "velocity": 0.71,
        "hand": "right"
      },
      {
        "midi": 64,
        "time": 78.021,
        "duration": 0.104,
        "velocity": 0.71,
        "hand": "right"
      },
      {
        "midi": 62,
        "time": 78.229,
        "duration": 0.104,
        "velocity": 0.71,
        "hand": "right"
      },
      {
        "midi": 61,
        "time": 78.333,
        "duration": 0.104,
        "velocity": 0.71,
        "hand": "right"
      },
      {
        "midi": 64,
        "time": 78.438,
        "duration": 0.104,
        "velocity": 0.71,
        "hand": "right"
      },
      {
        "midi": 68,
        "time": 78.646,
        "duration": 0.104,
        "velocity": 0.71,
        "hand": "right"
      },
      {
        "midi": 33,
        "time": 78.75,
        "duration": 0.833,
        "velocity": 0.71,
        "hand": "left"
      },
      {
        "midi": 45,
        "time": 78.75,
        "duration": 0.833,
        "velocity": 0.71,
        "hand": "left"
      },
      {
        "midi": 71,
        "time": 78.75,
        "duration": 0.104,
        "velocity": 0.71,
        "hand": "right"
      },
      {
        "midi": 69,
        "time": 78.854,
        "duration": 0.104,
        "velocity": 0.71,
        "hand": "right"
      },
      {
        "midi": 68,
        "time": 79.063,
        "duration": 0.104,
        "velocity": 0.71,
        "hand": "right"
      },
      {
        "midi": 66,
        "time": 79.167,
        "duration": 0.104,
        "velocity": 0.71,
        "hand": "right"
      },
      {
        "midi": 69,
        "time": 79.271,
        "duration": 0.104,
        "velocity": 0.71,
        "hand": "right"
      },
      {
        "midi": 73,
        "time": 79.479,
        "duration": 0.104,
        "velocity": 0.71,
        "hand": "right"
      },
      {
        "midi": 38,
        "time": 79.583,
        "duration": 0.417,
        "velocity": 0.71,
        "hand": "left"
      },
      {
        "midi": 50,
        "time": 79.583,
        "duration": 0.417,
        "velocity": 0.71,
        "hand": "left"
      },
      {
        "midi": 76,
        "time": 79.583,
        "duration": 0.104,
        "velocity": 0.71,
        "hand": "right"
      },
      {
        "midi": 74,
        "time": 79.688,
        "duration": 0.104,
        "velocity": 0.71,
        "hand": "right"
      },
      {
        "midi": 73,
        "time": 79.896,
        "duration": 0.104,
        "velocity": 0.71,
        "hand": "right"
      },
      {
        "midi": 71,
        "time": 80,
        "duration": 0.104,
        "velocity": 0.71,
        "hand": "right"
      },
      {
        "midi": 74,
        "time": 80.104,
        "duration": 0.104,
        "velocity": 0.71,
        "hand": "right"
      },
      {
        "midi": 78,
        "time": 80.313,
        "duration": 0.104,
        "velocity": 0.71,
        "hand": "right"
      },
      {
        "midi": 35,
        "time": 80.417,
        "duration": 0.417,
        "velocity": 0.71,
        "hand": "left"
      },
      {
        "midi": 47,
        "time": 80.417,
        "duration": 0.417,
        "velocity": 0.71,
        "hand": "left"
      },
      {
        "midi": 81,
        "time": 80.417,
        "duration": 0.625,
        "velocity": 0.71,
        "hand": "right"
      },
      {
        "midi": 54,
        "time": 80.833,
        "duration": 0.417,
        "velocity": 0.71,
        "hand": "left"
      },
      {
        "midi": 66,
        "time": 80.833,
        "duration": 0.417,
        "velocity": 0.71,
        "hand": "right"
      },
      {
        "midi": 74,
        "time": 80.833,
        "duration": 0.417,
        "velocity": 0.71,
        "hand": "right"
      },
      {
        "midi": 80,
        "time": 81.042,
        "duration": 0.208,
        "velocity": 0.71,
        "hand": "right"
      },
      {
        "midi": 40,
        "time": 81.25,
        "duration": 0.417,
        "velocity": 0.71,
        "hand": "left"
      },
      {
        "midi": 68,
        "time": 81.25,
        "duration": 0.417,
        "velocity": 0.71,
        "hand": "right"
      },
      {
        "midi": 78,
        "time": 81.25,
        "duration": 0.208,
        "velocity": 0.71,
        "hand": "right"
      },
      {
        "midi": 76,
        "time": 81.458,
        "duration": 0.208,
        "velocity": 0.71,
        "hand": "right"
      },
      {
        "midi": 33,
        "time": 81.667,
        "duration": 0.417,
        "velocity": 0.71,
        "hand": "left"
      },
      {
        "midi": 69,
        "time": 81.667,
        "duration": 0.833,
        "velocity": 0.71,
        "hand": "right"
      },
      {
        "midi": 78,
        "time": 81.667,
        "duration": 0.208,
        "velocity": 0.71,
        "hand": "right"
      },
      {
        "midi": 76,
        "time": 81.875,
        "duration": 0.208,
        "velocity": 0.71,
        "hand": "right"
      },
      {
        "midi": 52,
        "time": 82.083,
        "duration": 0.417,
        "velocity": 0.71,
        "hand": "left"
      },
      {
        "midi": 74,
        "time": 82.083,
        "duration": 0.208,
        "velocity": 0.71,
        "hand": "right"
      },
      {
        "midi": 66,
        "time": 82.5,
        "duration": 0.208,
        "velocity": 0.71,
        "hand": "right"
      },
      {
        "midi": 69,
        "time": 82.5,
        "duration": 0.833,
        "velocity": 0.71,
        "hand": "right"
      },
      {
        "midi": 74,
        "time": 82.5,
        "duration": 0.208,
        "velocity": 0.71,
        "hand": "right"
      },
      {
        "midi": 64,
        "time": 82.708,
        "duration": 0.208,
        "velocity": 0.71,
        "hand": "right"
      },
      {
        "midi": 73,
        "time": 82.708,
        "duration": 0.208,
        "velocity": 0.71,
        "hand": "right"
      },
      {
        "midi": 62,
        "time": 82.917,
        "duration": 0.208,
        "velocity": 0.71,
        "hand": "right"
      },
      {
        "midi": 71,
        "time": 82.917,
        "duration": 0.208,
        "velocity": 0.71,
        "hand": "right"
      },
      {
        "midi": 61,
        "time": 83.125,
        "duration": 0.208,
        "velocity": 0.71,
        "hand": "right"
      },
      {
        "midi": 50,
        "time": 83.333,
        "duration": 0.104,
        "velocity": 0.71,
        "hand": "left"
      },
      {
        "midi": 54,
        "time": 83.438,
        "duration": 0.104,
        "velocity": 0.71,
        "hand": "left"
      },
      {
        "midi": 57,
        "time": 83.646,
        "duration": 0.104,
        "velocity": 0.71,
        "hand": "left"
      },
      {
        "midi": 42,
        "time": 83.75,
        "duration": 0.833,
        "velocity": 0.71,
        "hand": "left"
      },
      {
        "midi": 61,
        "time": 83.75,
        "duration": 0.104,
        "velocity": 0.71,
        "hand": "right"
      },
      {
        "midi": 59,
        "time": 83.854,
        "duration": 0.104,
        "velocity": 0.71,
        "hand": "left"
      },
      {
        "midi": 57,
        "time": 84.063,
        "duration": 0.104,
        "velocity": 0.71,
        "hand": "left"
      },
      {
        "midi": 56,
        "time": 84.167,
        "duration": 0.104,
        "velocity": 0.71,
        "hand": "left"
      },
      {
        "midi": 59,
        "time": 84.271,
        "duration": 0.104,
        "velocity": 0.71,
        "hand": "left"
      },
      {
        "midi": 62,
        "time": 84.479,
        "duration": 0.104,
        "velocity": 0.71,
        "hand": "right"
      },
      {
        "midi": 40,
        "time": 84.583,
        "duration": 0.417,
        "velocity": 0.71,
        "hand": "left"
      },
      {
        "midi": 66,
        "time": 84.583,
        "duration": 0.104,
        "velocity": 0.71,
        "hand": "right"
      },
      {
        "midi": 64,
        "time": 84.688,
        "duration": 0.104,
        "velocity": 0.71,
        "hand": "right"
      },
      {
        "midi": 62,
        "time": 84.896,
        "duration": 0.104,
        "velocity": 0.71,
        "hand": "right"
      },
      {
        "midi": 61,
        "time": 85,
        "duration": 0.104,
        "velocity": 0.71,
        "hand": "right"
      },
      {
        "midi": 64,
        "time": 85.104,
        "duration": 0.104,
        "velocity": 0.71,
        "hand": "right"
      },
      {
        "midi": 68,
        "time": 85.313,
        "duration": 0.104,
        "velocity": 0.71,
        "hand": "right"
      },
      {
        "midi": 33,
        "time": 85.417,
        "duration": 0.833,
        "velocity": 0.71,
        "hand": "left"
      },
      {
        "midi": 45,
        "time": 85.417,
        "duration": 0.833,
        "velocity": 0.71,
        "hand": "left"
      },
      {
        "midi": 71,
        "time": 85.417,
        "duration": 0.104,
        "velocity": 0.71,
        "hand": "right"
      },
      {
        "midi": 69,
        "time": 85.521,
        "duration": 0.104,
        "velocity": 0.71,
        "hand": "right"
      },
      {
        "midi": 68,
        "time": 85.729,
        "duration": 0.104,
        "velocity": 0.71,
        "hand": "right"
      },
      {
        "midi": 66,
        "time": 85.833,
        "duration": 0.104,
        "velocity": 0.71,
        "hand": "right"
      },
      {
        "midi": 69,
        "time": 85.938,
        "duration": 0.104,
        "velocity": 0.71,
        "hand": "right"
      },
      {
        "midi": 73,
        "time": 86.146,
        "duration": 0.104,
        "velocity": 0.71,
        "hand": "right"
      },
      {
        "midi": 38,
        "time": 86.25,
        "duration": 0.417,
        "velocity": 0.71,
        "hand": "left"
      },
      {
        "midi": 50,
        "time": 86.25,
        "duration": 0.417,
        "velocity": 0.71,
        "hand": "left"
      },
      {
        "midi": 76,
        "time": 86.25,
        "duration": 0.104,
        "velocity": 0.71,
        "hand": "right"
      },
      {
        "midi": 74,
        "time": 86.354,
        "duration": 0.104,
        "velocity": 0.71,
        "hand": "right"
      },
      {
        "midi": 73,
        "time": 86.563,
        "duration": 0.104,
        "velocity": 0.71,
        "hand": "right"
      },
      {
        "midi": 71,
        "time": 86.667,
        "duration": 0.104,
        "velocity": 0.71,
        "hand": "right"
      },
      {
        "midi": 74,
        "time": 86.771,
        "duration": 0.104,
        "velocity": 0.71,
        "hand": "right"
      },
      {
        "midi": 78,
        "time": 86.979,
        "duration": 0.104,
        "velocity": 0.71,
        "hand": "right"
      },
      {
        "midi": 35,
        "time": 87.083,
        "duration": 0.208,
        "velocity": 0.71,
        "hand": "left"
      },
      {
        "midi": 47,
        "time": 87.083,
        "duration": 0.208,
        "velocity": 0.71,
        "hand": "left"
      },
      {
        "midi": 81,
        "time": 87.083,
        "duration": 0.625,
        "velocity": 0.71,
        "hand": "right"
      },
      {
        "midi": 54,
        "time": 87.5,
        "duration": 0.833,
        "velocity": 0.71,
        "hand": "left"
      },
      {
        "midi": 66,
        "time": 87.5,
        "duration": 0.833,
        "velocity": 0.71,
        "hand": "right"
      },
      {
        "midi": 74,
        "time": 87.5,
        "duration": 0.833,
        "velocity": 0.71,
        "hand": "right"
      },
      {
        "midi": 80,
        "time": 87.708,
        "duration": 0.208,
        "velocity": 0.71,
        "hand": "right"
      },
      {
        "midi": 78,
        "time": 87.917,
        "duration": 0.208,
        "velocity": 0.71,
        "hand": "right"
      },
      {
        "midi": 80,
        "time": 88.125,
        "duration": 0.208,
        "velocity": 0.71,
        "hand": "right"
      },
      {
        "midi": 71,
        "time": 88.333,
        "duration": 0.104,
        "velocity": 0.71,
        "hand": "right"
      },
      {
        "midi": 74,
        "time": 88.438,
        "duration": 0.104,
        "velocity": 0.71,
        "hand": "right"
      },
      {
        "midi": 78,
        "time": 88.646,
        "duration": 0.104,
        "velocity": 0.71,
        "hand": "right"
      },
      {
        "midi": 38,
        "time": 88.75,
        "duration": 0.208,
        "velocity": 0.71,
        "hand": "left"
      },
      {
        "midi": 50,
        "time": 88.75,
        "duration": 0.208,
        "velocity": 0.71,
        "hand": "left"
      },
      {
        "midi": 81,
        "time": 88.75,
        "duration": 0.625,
        "velocity": 0.71,
        "hand": "right"
      },
      {
        "midi": 54,
        "time": 89.167,
        "duration": 0.833,
        "velocity": 0.71,
        "hand": "left"
      },
      {
        "midi": 66,
        "time": 89.167,
        "duration": 0.833,
        "velocity": 0.71,
        "hand": "right"
      },
      {
        "midi": 74,
        "time": 89.167,
        "duration": 0.833,
        "velocity": 0.71,
        "hand": "right"
      },
      {
        "midi": 80,
        "time": 89.375,
        "duration": 0.208,
        "velocity": 0.71,
        "hand": "right"
      },
      {
        "midi": 78,
        "time": 89.583,
        "duration": 0.208,
        "velocity": 0.71,
        "hand": "right"
      },
      {
        "midi": 80,
        "time": 89.792,
        "duration": 0.208,
        "velocity": 0.71,
        "hand": "right"
      },
      {
        "midi": 52,
        "time": 90,
        "duration": 0.833,
        "velocity": 0.71,
        "hand": "left"
      },
      {
        "midi": 68,
        "time": 90,
        "duration": 0.833,
        "velocity": 0.71,
        "hand": "right"
      },
      {
        "midi": 76,
        "time": 90,
        "duration": 0.104,
        "velocity": 0.71,
        "hand": "right"
      },
      {
        "midi": 74,
        "time": 90.104,
        "duration": 0.104,
        "velocity": 0.71,
        "hand": "right"
      },
      {
        "midi": 76,
        "time": 90.313,
        "duration": 0.104,
        "velocity": 0.71,
        "hand": "right"
      },
      {
        "midi": 73,
        "time": 90.417,
        "duration": 0.625,
        "velocity": 0.71,
        "hand": "right"
      },
      {
        "midi": 54,
        "time": 90.833,
        "duration": 0.417,
        "velocity": 0.71,
        "hand": "left"
      },
      {
        "midi": 66,
        "time": 90.833,
        "duration": 0.417,
        "velocity": 0.71,
        "hand": "right"
      },
      {
        "midi": 71,
        "time": 91.042,
        "duration": 0.208,
        "velocity": 0.71,
        "hand": "right"
      },
      {
        "midi": 56,
        "time": 91.25,
        "duration": 0.417,
        "velocity": 0.71,
        "hand": "left"
      },
      {
        "midi": 65,
        "time": 91.25,
        "duration": 0.417,
        "velocity": 0.71,
        "hand": "right"
      },
      {
        "midi": 71,
        "time": 91.25,
        "duration": 0.208,
        "velocity": 0.71,
        "hand": "right"
      },
      {
        "midi": 73,
        "time": 91.458,
        "duration": 0.208,
        "velocity": 0.71,
        "hand": "right"
      },
      {
        "midi": 57,
        "time": 91.667,
        "duration": 0.833,
        "velocity": 0.71,
        "hand": "left"
      },
      {
        "midi": 64,
        "time": 91.667,
        "duration": 0.833,
        "velocity": 0.71,
        "hand": "right"
      },
      {
        "midi": 69,
        "time": 91.667,
        "duration": 0.417,
        "velocity": 0.71,
        "hand": "right"
      },
      {
        "midi": 66,
        "time": 92.083,
        "duration": 0.833,
        "velocity": 0.71,
        "hand": "right"
      },
      {
        "midi": 47,
        "time": 92.5,
        "duration": 0.833,
        "velocity": 0.71,
        "hand": "left"
      },
      {
        "midi": 57,
        "time": 92.5,
        "duration": 0.833,
        "velocity": 0.71,
        "hand": "left"
      },
      {
        "midi": 63,
        "time": 92.5,
        "duration": 0.833,
        "velocity": 0.71,
        "hand": "right"
      },
      {
        "midi": 68,
        "time": 92.917,
        "duration": 0.417,
        "velocity": 0.71,
        "hand": "right"
      },
      {
        "midi": 40,
        "time": 93.333,
        "duration": 0.417,
        "velocity": 0.71,
        "hand": "left"
      },
      {
        "midi": 56,
        "time": 93.333,
        "duration": 0.417,
        "velocity": 0.71,
        "hand": "left"
      },
      {
        "midi": 66,
        "time": 93.333,
        "duration": 0.208,
        "velocity": 0.71,
        "hand": "right"
      },
      {
        "midi": 64,
        "time": 93.542,
        "duration": 0.208,
        "velocity": 0.71,
        "hand": "right"
      },
      {
        "midi": 56,
        "time": 93.75,
        "duration": 1.25,
        "velocity": 0.71,
        "hand": "left"
      },
      {
        "midi": 71,
        "time": 93.75,
        "duration": 1.25,
        "velocity": 0.71,
        "hand": "right"
      },
      {
        "midi": 78,
        "time": 93.75,
        "duration": 0.833,
        "velocity": 0.71,
        "hand": "right"
      },
      {
        "midi": 64,
        "time": 94.583,
        "duration": 0.417,
        "velocity": 0.71,
        "hand": "right"
      },
      {
        "midi": 76,
        "time": 94.583,
        "duration": 0.417,
        "velocity": 0.71,
        "hand": "right"
      },
      {
        "midi": 45,
        "time": 95,
        "duration": 0.417,
        "velocity": 0.71,
        "hand": "left"
      },
      {
        "midi": 57,
        "time": 95,
        "duration": 0.417,
        "velocity": 0.71,
        "hand": "left"
      },
      {
        "midi": 66,
        "time": 95,
        "duration": 0.208,
        "velocity": 0.71,
        "hand": "right"
      },
      {
        "midi": 64,
        "time": 95.208,
        "duration": 0.208,
        "velocity": 0.71,
        "hand": "right"
      },
      {
        "midi": 52,
        "time": 95.417,
        "duration": 1.25,
        "velocity": 0.71,
        "hand": "left"
      },
      {
        "midi": 64,
        "time": 95.417,
        "duration": 1.25,
        "velocity": 0.71,
        "hand": "right"
      },
      {
        "midi": 80,
        "time": 95.417,
        "duration": 0.625,
        "velocity": 0.71,
        "hand": "right"
      },
      {
        "midi": 83,
        "time": 96.042,
        "duration": 0.208,
        "velocity": 0.71,
        "hand": "right"
      },
      {
        "midi": 81,
        "time": 96.25,
        "duration": 0.208,
        "velocity": 0.71,
        "hand": "right"
      },
      {
        "midi": 78,
        "time": 96.458,
        "duration": 0.208,
        "velocity": 0.71,
        "hand": "right"
      },
      {
        "midi": 59,
        "time": 96.667,
        "duration": 0.208,
        "velocity": 0.71,
        "hand": "left"
      },
      {
        "midi": 69,
        "time": 96.667,
        "duration": 1.25,
        "velocity": 0.71,
        "hand": "right"
      },
      {
        "midi": 76,
        "time": 96.667,
        "duration": 0.104,
        "velocity": 0.71,
        "hand": "right"
      },
      {
        "midi": 74,
        "time": 96.771,
        "duration": 0.104,
        "velocity": 0.71,
        "hand": "right"
      },
      {
        "midi": 61,
        "time": 96.875,
        "duration": 0.208,
        "velocity": 0.71,
        "hand": "right"
      },
      {
        "midi": 76,
        "time": 96.979,
        "duration": 0.104,
        "velocity": 0.71,
        "hand": "right"
      },
      {
        "midi": 62,
        "time": 97.083,
        "duration": 1.25,
        "velocity": 0.71,
        "hand": "right"
      },
      {
        "midi": 73,
        "time": 97.083,
        "duration": 0.625,
        "velocity": 0.71,
        "hand": "right"
      },
      {
        "midi": 71,
        "time": 97.708,
        "duration": 0.208,
        "velocity": 0.71,
        "hand": "right"
      },
      {
        "midi": 65,
        "time": 97.917,
        "duration": 0.417,
        "velocity": 0.71,
        "hand": "right"
      },
      {
        "midi": 68,
        "time": 97.917,
        "duration": 0.417,
        "velocity": 0.71,
        "hand": "right"
      },
      {
        "midi": 71,
        "time": 97.917,
        "duration": 0.208,
        "velocity": 0.71,
        "hand": "right"
      },
      {
        "midi": 73,
        "time": 98.125,
        "duration": 0.208,
        "velocity": 0.71,
        "hand": "right"
      },
      {
        "midi": 54,
        "time": 98.333,
        "duration": 0.833,
        "velocity": 0.71,
        "hand": "left"
      },
      {
        "midi": 64,
        "time": 98.333,
        "duration": 0.833,
        "velocity": 0.71,
        "hand": "right"
      },
      {
        "midi": 69,
        "time": 98.333,
        "duration": 0.417,
        "velocity": 0.71,
        "hand": "right"
      },
      {
        "midi": 68,
        "time": 98.75,
        "duration": 0.625,
        "velocity": 0.71,
        "hand": "right"
      },
      {
        "midi": 47,
        "time": 99.167,
        "duration": 0.417,
        "velocity": 0.71,
        "hand": "left"
      },
      {
        "midi": 57,
        "time": 99.167,
        "duration": 0.417,
        "velocity": 0.71,
        "hand": "left"
      },
      {
        "midi": 63,
        "time": 99.167,
        "duration": 0.417,
        "velocity": 0.71,
        "hand": "right"
      },
      {
        "midi": 66,
        "time": 99.375,
        "duration": 0.208,
        "velocity": 0.71,
        "hand": "right"
      },
      {
        "midi": 45,
        "time": 99.583,
        "duration": 0.417,
        "velocity": 0.71,
        "hand": "left"
      },
      {
        "midi": 61,
        "time": 99.583,
        "duration": 0.417,
        "velocity": 0.71,
        "hand": "right"
      },
      {
        "midi": 66,
        "time": 99.583,
        "duration": 0.208,
        "velocity": 0.71,
        "hand": "right"
      },
      {
        "midi": 68,
        "time": 99.792,
        "duration": 0.208,
        "velocity": 0.71,
        "hand": "right"
      },
      {
        "midi": 44,
        "time": 100,
        "duration": 0.417,
        "velocity": 0.71,
        "hand": "left"
      },
      {
        "midi": 59,
        "time": 100,
        "duration": 0.417,
        "velocity": 0.71,
        "hand": "left"
      },
      {
        "midi": 66,
        "time": 100,
        "duration": 0.104,
        "velocity": 0.71,
        "hand": "right"
      },
      {
        "midi": 64,
        "time": 100.104,
        "duration": 0.104,
        "velocity": 0.71,
        "hand": "right"
      },
      {
        "midi": 42,
        "time": 100.417,
        "duration": 0.833,
        "velocity": 0.71,
        "hand": "left"
      },
      {
        "midi": 57,
        "time": 100.417,
        "duration": 0.833,
        "velocity": 0.71,
        "hand": "left"
      },
      {
        "midi": 61,
        "time": 100.417,
        "duration": 0.833,
        "velocity": 0.71,
        "hand": "right"
      },
      {
        "midi": 35,
        "time": 101.25,
        "duration": 0.417,
        "velocity": 0.71,
        "hand": "left"
      },
      {
        "midi": 57,
        "time": 101.25,
        "duration": 0.417,
        "velocity": 0.71,
        "hand": "left"
      },
      {
        "midi": 64,
        "time": 101.25,
        "duration": 0.417,
        "velocity": 0.71,
        "hand": "right"
      },
      {
        "midi": 40,
        "time": 101.667,
        "duration": 0.833,
        "velocity": 0.71,
        "hand": "left"
      },
      {
        "midi": 57,
        "time": 101.667,
        "duration": 0.417,
        "velocity": 0.71,
        "hand": "left"
      },
      {
        "midi": 64,
        "time": 101.667,
        "duration": 1.25,
        "velocity": 0.71,
        "hand": "right"
      },
      {
        "midi": 56,
        "time": 102.083,
        "duration": 0.833,
        "velocity": 0.71,
        "hand": "left"
      },
      {
        "midi": 40,
        "time": 102.5,
        "duration": 0.417,
        "velocity": 0.71,
        "hand": "left"
      },
      {
        "midi": 52,
        "time": 102.917,
        "duration": 0.417,
        "velocity": 0.71,
        "hand": "left"
      },
      {
        "midi": 40,
        "time": 103.333,
        "duration": 0.417,
        "velocity": 0.71,
        "hand": "left"
      },
      {
        "midi": 55,
        "time": 103.333,
        "duration": 0.417,
        "velocity": 0.71,
        "hand": "left"
      },
      {
        "midi": 67,
        "time": 103.333,
        "duration": 0.104,
        "velocity": 0.71,
        "hand": "right"
      },
      {
        "midi": 65,
        "time": 103.438,
        "duration": 0.104,
        "velocity": 0.71,
        "hand": "right"
      },
      {
        "midi": 67,
        "time": 103.646,
        "duration": 0.104,
        "velocity": 0.71,
        "hand": "right"
      },
      {
        "midi": 41,
        "time": 103.75,
        "duration": 0.833,
        "velocity": 0.71,
        "hand": "left"
      },
      {
        "midi": 57,
        "time": 103.75,
        "duration": 0.833,
        "velocity": 0.71,
        "hand": "left"
      },
      {
        "midi": 64,
        "time": 103.75,
        "duration": 0.833,
        "velocity": 0.71,
        "hand": "right"
      },
      {
        "midi": 43,
        "time": 104.583,
        "duration": 0.417,
        "velocity": 0.71,
        "hand": "left"
      },
      {
        "midi": 59,
        "time": 104.583,
        "duration": 0.417,
        "velocity": 0.71,
        "hand": "left"
      },
      {
        "midi": 62,
        "time": 104.583,
        "duration": 0.417,
        "velocity": 0.71,
        "hand": "right"
      },
      {
        "midi": 45,
        "time": 105,
        "duration": 0.417,
        "velocity": 0.71,
        "hand": "left"
      },
      {
        "midi": 57,
        "time": 105,
        "duration": 0.417,
        "velocity": 0.71,
        "hand": "left"
      },
      {
        "midi": 60,
        "time": 105,
        "duration": 0.417,
        "velocity": 0.71,
        "hand": "right"
      },
      {
        "midi": 47,
        "time": 105.417,
        "duration": 0.833,
        "velocity": 0.71,
        "hand": "left"
      },
      {
        "midi": 53,
        "time": 105.417,
        "duration": 0.833,
        "velocity": 0.71,
        "hand": "left"
      },
      {
        "midi": 55,
        "time": 105.417,
        "duration": 0.833,
        "velocity": 0.71,
        "hand": "left"
      },
      {
        "midi": 45,
        "time": 106.25,
        "duration": 0.417,
        "velocity": 0.71,
        "hand": "left"
      },
      {
        "midi": 57,
        "time": 106.25,
        "duration": 0.417,
        "velocity": 0.71,
        "hand": "left"
      },
      {
        "midi": 60,
        "time": 106.25,
        "duration": 0.417,
        "velocity": 0.71,
        "hand": "right"
      },
      {
        "midi": 43,
        "time": 106.667,
        "duration": 0.417,
        "velocity": 0.71,
        "hand": "left"
      },
      {
        "midi": 59,
        "time": 106.667,
        "duration": 0.417,
        "velocity": 0.71,
        "hand": "left"
      },
      {
        "midi": 62,
        "time": 106.667,
        "duration": 0.417,
        "velocity": 0.71,
        "hand": "right"
      },
      {
        "midi": 41,
        "time": 107.083,
        "duration": 0.417,
        "velocity": 0.71,
        "hand": "left"
      },
      {
        "midi": 60,
        "time": 107.083,
        "duration": 0.417,
        "velocity": 0.71,
        "hand": "right"
      },
      {
        "midi": 65,
        "time": 107.083,
        "duration": 0.417,
        "velocity": 0.71,
        "hand": "right"
      },
      {
        "midi": 40,
        "time": 107.5,
        "duration": 0.417,
        "velocity": 0.71,
        "hand": "left"
      },
      {
        "midi": 60,
        "time": 107.5,
        "duration": 0.417,
        "velocity": 0.71,
        "hand": "right"
      },
      {
        "midi": 67,
        "time": 107.5,
        "duration": 0.417,
        "velocity": 0.71,
        "hand": "right"
      },
      {
        "midi": 38,
        "time": 107.917,
        "duration": 0.417,
        "velocity": 0.71,
        "hand": "left"
      },
      {
        "midi": 60,
        "time": 107.917,
        "duration": 0.417,
        "velocity": 0.71,
        "hand": "right"
      },
      {
        "midi": 69,
        "time": 107.917,
        "duration": 0.208,
        "velocity": 0.71,
        "hand": "right"
      },
      {
        "midi": 72,
        "time": 108.125,
        "duration": 0.208,
        "velocity": 0.71,
        "hand": "right"
      },
      {
        "midi": 31,
        "time": 108.333,
        "duration": 0.208,
        "velocity": 0.71,
        "hand": "left"
      },
      {
        "midi": 71,
        "time": 108.333,
        "duration": 0.833,
        "velocity": 0.71,
        "hand": "right"
      },
      {
        "midi": 74,
        "time": 108.333,
        "duration": 0.833,
        "velocity": 0.71,
        "hand": "right"
      },
      {
        "midi": 43,
        "time": 108.542,
        "duration": 0.208,
        "velocity": 0.71,
        "hand": "left"
      },
      {
        "midi": 50,
        "time": 108.75,
        "duration": 0.208,
        "velocity": 0.71,
        "hand": "left"
      },
      {
        "midi": 53,
        "time": 108.958,
        "duration": 0.208,
        "velocity": 0.71,
        "hand": "left"
      },
      {
        "midi": 55,
        "time": 109.167,
        "duration": 0.208,
        "velocity": 0.71,
        "hand": "left"
      },
      {
        "midi": 67,
        "time": 109.167,
        "duration": 0.833,
        "velocity": 0.71,
        "hand": "right"
      },
      {
        "midi": 59,
        "time": 109.375,
        "duration": 0.208,
        "velocity": 0.71,
        "hand": "left"
      },
      {
        "midi": 62,
        "time": 109.583,
        "duration": 0.208,
        "velocity": 0.71,
        "hand": "right"
      },
      {
        "midi": 65,
        "time": 109.792,
        "duration": 0.208,
        "velocity": 0.71,
        "hand": "right"
      },
      {
        "midi": 64,
        "time": 110,
        "duration": 0.833,
        "velocity": 0.71,
        "hand": "right"
      },
      {
        "midi": 72,
        "time": 110,
        "duration": 3.333,
        "velocity": 0.71,
        "hand": "right"
      },
      {
        "midi": 79,
        "time": 110,
        "duration": 0.104,
        "velocity": 0.71,
        "hand": "right"
      },
      {
        "midi": 77,
        "time": 110.104,
        "duration": 0.104,
        "velocity": 0.71,
        "hand": "right"
      },
      {
        "midi": 79,
        "time": 110.313,
        "duration": 0.104,
        "velocity": 0.71,
        "hand": "right"
      },
      {
        "midi": 76,
        "time": 110.417,
        "duration": 0.833,
        "velocity": 0.71,
        "hand": "right"
      },
      {
        "midi": 65,
        "time": 110.833,
        "duration": 0.833,
        "velocity": 0.71,
        "hand": "right"
      },
      {
        "midi": 69,
        "time": 110.833,
        "duration": 0.833,
        "velocity": 0.71,
        "hand": "right"
      },
      {
        "midi": 74,
        "time": 111.25,
        "duration": 0.417,
        "velocity": 0.71,
        "hand": "right"
      },
      {
        "midi": 67,
        "time": 111.667,
        "duration": 0.833,
        "velocity": 0.71,
        "hand": "right"
      },
      {
        "midi": 70,
        "time": 111.667,
        "duration": 0.833,
        "velocity": 0.71,
        "hand": "right"
      },
      {
        "midi": 76,
        "time": 111.667,
        "duration": 0.833,
        "velocity": 0.71,
        "hand": "right"
      },
      {
        "midi": 65,
        "time": 112.5,
        "duration": 0.833,
        "velocity": 0.71,
        "hand": "right"
      },
      {
        "midi": 69,
        "time": 112.5,
        "duration": 0.833,
        "velocity": 0.71,
        "hand": "right"
      },
      {
        "midi": 77,
        "time": 112.5,
        "duration": 0.833,
        "velocity": 0.71,
        "hand": "right"
      },
      {
        "midi": 64,
        "time": 113.333,
        "duration": 3.125,
        "velocity": 0.71,
        "hand": "right"
      },
      {
        "midi": 72,
        "time": 113.333,
        "duration": 2.5,
        "velocity": 0.71,
        "hand": "right"
      },
      {
        "midi": 79,
        "time": 113.333,
        "duration": 0.104,
        "velocity": 0.71,
        "hand": "right"
      },
      {
        "midi": 77,
        "time": 113.438,
        "duration": 0.104,
        "velocity": 0.71,
        "hand": "right"
      },
      {
        "midi": 79,
        "time": 113.646,
        "duration": 0.104,
        "velocity": 0.71,
        "hand": "right"
      },
      {
        "midi": 76,
        "time": 113.75,
        "duration": 0.833,
        "velocity": 0.71,
        "hand": "right"
      },
      {
        "midi": 79,
        "time": 114.583,
        "duration": 0.417,
        "velocity": 0.71,
        "hand": "right"
      },
      {
        "midi": 68,
        "time": 115,
        "duration": 1.667,
        "velocity": 0.71,
        "hand": "right"
      },
      {
        "midi": 80,
        "time": 115,
        "duration": 0.104,
        "velocity": 0.71,
        "hand": "right"
      },
      {
        "midi": 78,
        "time": 115.104,
        "duration": 0.104,
        "velocity": 0.71,
        "hand": "right"
      },
      {
        "midi": 80,
        "time": 115.313,
        "duration": 0.104,
        "velocity": 0.71,
        "hand": "right"
      },
      {
        "midi": 76,
        "time": 115.417,
        "duration": 0.833,
        "velocity": 0.71,
        "hand": "right"
      },
      {
        "midi": 73,
        "time": 115.833,
        "duration": 0.833,
        "velocity": 0.71,
        "hand": "right"
      },
      {
        "midi": 80,
        "time": 116.25,
        "duration": 0.417,
        "velocity": 0.71,
        "hand": "right"
      },
      {
        "midi": 63,
        "time": 116.458,
        "duration": 0.208,
        "velocity": 0.71,
        "hand": "right"
      },
      {
        "midi": 61,
        "time": 116.667,
        "duration": 0.104,
        "velocity": 0.71,
        "hand": "right"
      },
      {
        "midi": 81,
        "time": 116.667,
        "duration": 0.833,
        "velocity": 0.71,
        "hand": "right"
      },
      {
        "midi": 64,
        "time": 116.771,
        "duration": 0.104,
        "velocity": 0.71,
        "hand": "right"
      },
      {
        "midi": 69,
        "time": 116.979,
        "duration": 0.104,
        "velocity": 0.71,
        "hand": "right"
      },
      {
        "midi": 73,
        "time": 117.083,
        "duration": 0.104,
        "velocity": 0.71,
        "hand": "right"
      },
      {
        "midi": 76,
        "time": 117.188,
        "duration": 0.104,
        "velocity": 0.71,
        "hand": "right"
      },
      {
        "midi": 78,
        "time": 117.396,
        "duration": 0.104,
        "velocity": 0.71,
        "hand": "right"
      },
      {
        "midi": 80,
        "time": 117.5,
        "duration": 0.833,
        "velocity": 0.71,
        "hand": "right"
      },
      {
        "midi": 75,
        "time": 117.604,
        "duration": 0.104,
        "velocity": 0.71,
        "hand": "right"
      },
      {
        "midi": 71,
        "time": 117.813,
        "duration": 0.104,
        "velocity": 0.71,
        "hand": "right"
      },
      {
        "midi": 68,
        "time": 117.917,
        "duration": 0.104,
        "velocity": 0.71,
        "hand": "right"
      },
      {
        "midi": 63,
        "time": 118.021,
        "duration": 0.104,
        "velocity": 0.71,
        "hand": "right"
      },
      {
        "midi": 59,
        "time": 118.229,
        "duration": 0.104,
        "velocity": 0.71,
        "hand": "left"
      },
      {
        "midi": 57,
        "time": 118.333,
        "duration": 0.104,
        "velocity": 0.71,
        "hand": "left"
      },
      {
        "midi": 78,
        "time": 118.333,
        "duration": 0.833,
        "velocity": 0.71,
        "hand": "right"
      },
      {
        "midi": 61,
        "time": 118.438,
        "duration": 0.104,
        "velocity": 0.71,
        "hand": "right"
      },
      {
        "midi": 66,
        "time": 118.646,
        "duration": 0.104,
        "velocity": 0.71,
        "hand": "right"
      },
      {
        "midi": 69,
        "time": 118.75,
        "duration": 0.104,
        "velocity": 0.71,
        "hand": "right"
      },
      {
        "midi": 73,
        "time": 118.854,
        "duration": 0.104,
        "velocity": 0.71,
        "hand": "right"
      },
      {
        "midi": 75,
        "time": 119.063,
        "duration": 0.104,
        "velocity": 0.71,
        "hand": "right"
      },
      {
        "midi": 76,
        "time": 119.167,
        "duration": 0.833,
        "velocity": 0.71,
        "hand": "right"
      },
      {
        "midi": 71,
        "time": 119.271,
        "duration": 0.104,
        "velocity": 0.71,
        "hand": "right"
      },
      {
        "midi": 68,
        "time": 119.479,
        "duration": 0.104,
        "velocity": 0.71,
        "hand": "right"
      },
      {
        "midi": 64,
        "time": 119.583,
        "duration": 0.104,
        "velocity": 0.71,
        "hand": "right"
      },
      {
        "midi": 59,
        "time": 119.688,
        "duration": 0.104,
        "velocity": 0.71,
        "hand": "left"
      },
      {
        "midi": 56,
        "time": 119.896,
        "duration": 0.104,
        "velocity": 0.71,
        "hand": "left"
      },
      {
        "midi": 54,
        "time": 120,
        "duration": 0.833,
        "velocity": 0.71,
        "hand": "left"
      },
      {
        "midi": 57,
        "time": 120.104,
        "duration": 0.104,
        "velocity": 0.71,
        "hand": "left"
      },
      {
        "midi": 61,
        "time": 120.313,
        "duration": 0.417,
        "velocity": 0.71,
        "hand": "right"
      },
      {
        "midi": 73,
        "time": 120.417,
        "duration": 0.417,
        "velocity": 0.71,
        "hand": "right"
      },
      {
        "midi": 66,
        "time": 120.521,
        "duration": 0.104,
        "velocity": 0.71,
        "hand": "right"
      },
      {
        "midi": 69,
        "time": 120.729,
        "duration": 0.521,
        "velocity": 0.71,
        "hand": "right"
      },
      {
        "midi": 52,
        "time": 120.833,
        "duration": 0.833,
        "velocity": 0.71,
        "hand": "left"
      },
      {
        "midi": 78,
        "time": 120.833,
        "duration": 0.417,
        "velocity": 0.71,
        "hand": "right"
      },
      {
        "midi": 57,
        "time": 120.938,
        "duration": 0.104,
        "velocity": 0.71,
        "hand": "left"
      },
      {
        "midi": 61,
        "time": 121.146,
        "duration": 0.417,
        "velocity": 0.71,
        "hand": "right"
      },
      {
        "midi": 73,
        "time": 121.25,
        "duration": 0.833,
        "velocity": 0.71,
        "hand": "right"
      },
      {
        "midi": 66,
        "time": 121.354,
        "duration": 0.104,
        "velocity": 0.71,
        "hand": "right"
      },
      {
        "midi": 69,
        "time": 121.563,
        "duration": 0.521,
        "velocity": 0.71,
        "hand": "right"
      },
      {
        "midi": 51,
        "time": 121.667,
        "duration": 0.833,
        "velocity": 0.71,
        "hand": "left"
      },
      {
        "midi": 57,
        "time": 121.771,
        "duration": 0.104,
        "velocity": 0.71,
        "hand": "left"
      },
      {
        "midi": 61,
        "time": 121.979,
        "duration": 0.417,
        "velocity": 0.71,
        "hand": "right"
      },
      {
        "midi": 73,
        "time": 122.083,
        "duration": 0.417,
        "velocity": 0.71,
        "hand": "right"
      },
      {
        "midi": 66,
        "time": 122.188,
        "duration": 0.104,
        "velocity": 0.71,
        "hand": "right"
      },
      {
        "midi": 69,
        "time": 122.396,
        "duration": 0.521,
        "velocity": 0.71,
        "hand": "right"
      },
      {
        "midi": 49,
        "time": 122.5,
        "duration": 0.833,
        "velocity": 0.71,
        "hand": "left"
      },
      {
        "midi": 78,
        "time": 122.5,
        "duration": 0.417,
        "velocity": 0.71,
        "hand": "right"
      },
      {
        "midi": 57,
        "time": 122.604,
        "duration": 0.104,
        "velocity": 0.71,
        "hand": "left"
      },
      {
        "midi": 64,
        "time": 122.813,
        "duration": 0.417,
        "velocity": 0.71,
        "hand": "right"
      },
      {
        "midi": 81,
        "time": 122.917,
        "duration": 0.833,
        "velocity": 0.71,
        "hand": "right"
      },
      {
        "midi": 69,
        "time": 123.021,
        "duration": 0.104,
        "velocity": 0.71,
        "hand": "right"
      },
      {
        "midi": 73,
        "time": 123.229,
        "duration": 0.104,
        "velocity": 0.71,
        "hand": "right"
      },
      {
        "midi": 47,
        "time": 123.333,
        "duration": 0.104,
        "velocity": 0.71,
        "hand": "left"
      },
      {
        "midi": 54,
        "time": 123.438,
        "duration": 0.104,
        "velocity": 0.71,
        "hand": "left"
      },
      {
        "midi": 57,
        "time": 123.646,
        "duration": 0.104,
        "velocity": 0.71,
        "hand": "left"
      },
      {
        "midi": 61,
        "time": 123.75,
        "duration": 0.104,
        "velocity": 0.71,
        "hand": "right"
      },
      {
        "midi": 81,
        "time": 123.75,
        "duration": 0.938,
        "velocity": 0.71,
        "hand": "right"
      },
      {
        "midi": 63,
        "time": 123.854,
        "duration": 0.104,
        "velocity": 0.71,
        "hand": "right"
      },
      {
        "midi": 66,
        "time": 124.063,
        "duration": 0.104,
        "velocity": 0.71,
        "hand": "right"
      },
      {
        "midi": 69,
        "time": 124.167,
        "duration": 0.104,
        "velocity": 0.71,
        "hand": "right"
      },
      {
        "midi": 73,
        "time": 124.271,
        "duration": 0.104,
        "velocity": 0.71,
        "hand": "right"
      },
      {
        "midi": 75,
        "time": 124.479,
        "duration": 0.104,
        "velocity": 0.71,
        "hand": "right"
      },
      {
        "midi": 73,
        "time": 124.583,
        "duration": 0.104,
        "velocity": 0.71,
        "hand": "right"
      },
      {
        "midi": 71,
        "time": 124.688,
        "duration": 0.104,
        "velocity": 0.71,
        "hand": "right"
      },
      {
        "midi": 80,
        "time": 124.688,
        "duration": 0.104,
        "velocity": 0.71,
        "hand": "right"
      },
      {
        "midi": 69,
        "time": 124.896,
        "duration": 0.104,
        "velocity": 0.71,
        "hand": "right"
      },
      {
        "midi": 78,
        "time": 124.896,
        "duration": 0.104,
        "velocity": 0.71,
        "hand": "right"
      },
      {
        "midi": 40,
        "time": 125,
        "duration": 0.208,
        "velocity": 0.71,
        "hand": "left"
      },
      {
        "midi": 47,
        "time": 125.208,
        "duration": 0.208,
        "velocity": 0.71,
        "hand": "left"
      },
      {
        "midi": 52,
        "time": 125.417,
        "duration": 0.208,
        "velocity": 0.71,
        "hand": "left"
      },
      {
        "midi": 76,
        "time": 125.417,
        "duration": 0.104,
        "velocity": 0.71,
        "hand": "right"
      },
      {
        "midi": 78,
        "time": 125.521,
        "duration": 0.104,
        "velocity": 0.71,
        "hand": "right"
      },
      {
        "midi": 56,
        "time": 125.625,
        "duration": 0.208,
        "velocity": 0.71,
        "hand": "left"
      },
      {
        "midi": 73,
        "time": 125.729,
        "duration": 0.104,
        "velocity": 0.71,
        "hand": "right"
      },
      {
        "midi": 59,
        "time": 125.833,
        "duration": 0.208,
        "velocity": 0.71,
        "hand": "left"
      },
      {
        "midi": 76,
        "time": 125.833,
        "duration": 0.104,
        "velocity": 0.71,
        "hand": "right"
      },
      {
        "midi": 71,
        "time": 125.938,
        "duration": 0.104,
        "velocity": 0.71,
        "hand": "right"
      },
      {
        "midi": 56,
        "time": 126.042,
        "duration": 0.208,
        "velocity": 0.71,
        "hand": "left"
      },
      {
        "midi": 73,
        "time": 126.146,
        "duration": 0.104,
        "velocity": 0.71,
        "hand": "right"
      },
      {
        "midi": 52,
        "time": 126.25,
        "duration": 0.208,
        "velocity": 0.71,
        "hand": "left"
      },
      {
        "midi": 68,
        "time": 126.25,
        "duration": 0.104,
        "velocity": 0.71,
        "hand": "right"
      },
      {
        "midi": 71,
        "time": 126.354,
        "duration": 0.104,
        "velocity": 0.71,
        "hand": "right"
      },
      {
        "midi": 47,
        "time": 126.458,
        "duration": 0.208,
        "velocity": 0.71,
        "hand": "left"
      },
      {
        "midi": 66,
        "time": 126.563,
        "duration": 0.104,
        "velocity": 0.71,
        "hand": "right"
      },
      {
        "midi": 40,
        "time": 126.667,
        "duration": 0.208,
        "velocity": 0.71,
        "hand": "left"
      },
      {
        "midi": 68,
        "time": 126.667,
        "duration": 0.104,
        "velocity": 0.71,
        "hand": "right"
      },
      {
        "midi": 64,
        "time": 126.771,
        "duration": 0.104,
        "velocity": 0.71,
        "hand": "right"
      },
      {
        "midi": 47,
        "time": 126.875,
        "duration": 0.208,
        "velocity": 0.71,
        "hand": "left"
      },
      {
        "midi": 68,
        "time": 126.979,
        "duration": 0.104,
        "velocity": 0.71,
        "hand": "right"
      },
      {
        "midi": 52,
        "time": 127.083,
        "duration": 0.208,
        "velocity": 0.71,
        "hand": "left"
      },
      {
        "midi": 63,
        "time": 127.083,
        "duration": 0.833,
        "velocity": 0.71,
        "hand": "right"
      },
      {
        "midi": 56,
        "time": 127.292,
        "duration": 0.208,
        "velocity": 0.71,
        "hand": "left"
      },
      {
        "midi": 61,
        "time": 127.5,
        "duration": 0.208,
        "velocity": 0.71,
        "hand": "right"
      },
      {
        "midi": 56,
        "time": 127.708,
        "duration": 0.208,
        "velocity": 0.71,
        "hand": "left"
      },
      {
        "midi": 52,
        "time": 127.917,
        "duration": 0.208,
        "velocity": 0.71,
        "hand": "left"
      },
      {
        "midi": 61,
        "time": 127.917,
        "duration": 0.417,
        "velocity": 0.71,
        "hand": "right"
      },
      {
        "midi": 47,
        "time": 128.125,
        "duration": 0.208,
        "velocity": 0.71,
        "hand": "left"
      },
      {
        "midi": 40,
        "time": 128.333,
        "duration": 0.208,
        "velocity": 0.71,
        "hand": "left"
      },
      {
        "midi": 59,
        "time": 128.333,
        "duration": 0.208,
        "velocity": 0.71,
        "hand": "left"
      },
      {
        "midi": 47,
        "time": 128.542,
        "duration": 0.208,
        "velocity": 0.71,
        "hand": "left"
      },
      {
        "midi": 52,
        "time": 128.75,
        "duration": 0.208,
        "velocity": 0.71,
        "hand": "left"
      },
      {
        "midi": 76,
        "time": 128.75,
        "duration": 0.104,
        "velocity": 0.71,
        "hand": "right"
      },
      {
        "midi": 78,
        "time": 128.854,
        "duration": 0.104,
        "velocity": 0.71,
        "hand": "right"
      },
      {
        "midi": 56,
        "time": 128.958,
        "duration": 0.208,
        "velocity": 0.71,
        "hand": "left"
      },
      {
        "midi": 73,
        "time": 129.063,
        "duration": 0.104,
        "velocity": 0.71,
        "hand": "right"
      },
      {
        "midi": 59,
        "time": 129.167,
        "duration": 0.208,
        "velocity": 0.71,
        "hand": "left"
      },
      {
        "midi": 76,
        "time": 129.167,
        "duration": 0.104,
        "velocity": 0.71,
        "hand": "right"
      },
      {
        "midi": 71,
        "time": 129.271,
        "duration": 0.104,
        "velocity": 0.71,
        "hand": "right"
      },
      {
        "midi": 56,
        "time": 129.375,
        "duration": 0.208,
        "velocity": 0.71,
        "hand": "left"
      },
      {
        "midi": 73,
        "time": 129.479,
        "duration": 0.104,
        "velocity": 0.71,
        "hand": "right"
      },
      {
        "midi": 52,
        "time": 129.583,
        "duration": 0.208,
        "velocity": 0.71,
        "hand": "left"
      },
      {
        "midi": 68,
        "time": 129.583,
        "duration": 0.104,
        "velocity": 0.71,
        "hand": "right"
      },
      {
        "midi": 71,
        "time": 129.688,
        "duration": 0.104,
        "velocity": 0.71,
        "hand": "right"
      },
      {
        "midi": 47,
        "time": 129.792,
        "duration": 0.208,
        "velocity": 0.71,
        "hand": "left"
      },
      {
        "midi": 66,
        "time": 129.896,
        "duration": 0.104,
        "velocity": 0.71,
        "hand": "right"
      },
      {
        "midi": 40,
        "time": 130,
        "duration": 0.208,
        "velocity": 0.71,
        "hand": "left"
      },
      {
        "midi": 68,
        "time": 130,
        "duration": 0.104,
        "velocity": 0.71,
        "hand": "right"
      },
      {
        "midi": 64,
        "time": 130.104,
        "duration": 0.104,
        "velocity": 0.71,
        "hand": "right"
      },
      {
        "midi": 47,
        "time": 130.208,
        "duration": 0.208,
        "velocity": 0.71,
        "hand": "left"
      },
      {
        "midi": 68,
        "time": 130.313,
        "duration": 0.104,
        "velocity": 0.71,
        "hand": "right"
      },
      {
        "midi": 52,
        "time": 130.417,
        "duration": 0.208,
        "velocity": 0.71,
        "hand": "left"
      },
      {
        "midi": 63,
        "time": 130.417,
        "duration": 0.833,
        "velocity": 0.71,
        "hand": "right"
      },
      {
        "midi": 56,
        "time": 130.625,
        "duration": 0.208,
        "velocity": 0.71,
        "hand": "left"
      },
      {
        "midi": 61,
        "time": 130.833,
        "duration": 0.208,
        "velocity": 0.71,
        "hand": "right"
      },
      {
        "midi": 56,
        "time": 131.042,
        "duration": 0.208,
        "velocity": 0.71,
        "hand": "left"
      },
      {
        "midi": 52,
        "time": 131.25,
        "duration": 0.208,
        "velocity": 0.71,
        "hand": "left"
      },
      {
        "midi": 61,
        "time": 131.25,
        "duration": 0.417,
        "velocity": 0.71,
        "hand": "right"
      },
      {
        "midi": 47,
        "time": 131.458,
        "duration": 0.208,
        "velocity": 0.71,
        "hand": "left"
      },
      {
        "midi": 42,
        "time": 131.667,
        "duration": 0.208,
        "velocity": 0.71,
        "hand": "left"
      },
      {
        "midi": 59,
        "time": 131.667,
        "duration": 0.104,
        "velocity": 0.71,
        "hand": "left"
      },
      {
        "midi": 57,
        "time": 131.771,
        "duration": 0.104,
        "velocity": 0.71,
        "hand": "left"
      },
      {
        "midi": 49,
        "time": 131.875,
        "duration": 0.208,
        "velocity": 0.71,
        "hand": "left"
      },
      {
        "midi": 59,
        "time": 131.979,
        "duration": 0.104,
        "velocity": 0.71,
        "hand": "left"
      },
      {
        "midi": 52,
        "time": 132.083,
        "duration": 0.208,
        "velocity": 0.71,
        "hand": "left"
      },
      {
        "midi": 61,
        "time": 132.083,
        "duration": 0.625,
        "velocity": 0.71,
        "hand": "right"
      },
      {
        "midi": 54,
        "time": 132.292,
        "duration": 0.208,
        "velocity": 0.71,
        "hand": "left"
      },
      {
        "midi": 57,
        "time": 132.5,
        "duration": 0.208,
        "velocity": 0.71,
        "hand": "left"
      },
      {
        "midi": 54,
        "time": 132.708,
        "duration": 0.208,
        "velocity": 0.71,
        "hand": "left"
      },
      {
        "midi": 64,
        "time": 132.708,
        "duration": 0.208,
        "velocity": 0.71,
        "hand": "right"
      },
      {
        "midi": 52,
        "time": 132.917,
        "duration": 0.208,
        "velocity": 0.71,
        "hand": "left"
      },
      {
        "midi": 63,
        "time": 132.917,
        "duration": 0.208,
        "velocity": 0.71,
        "hand": "right"
      },
      {
        "midi": 49,
        "time": 133.125,
        "duration": 0.208,
        "velocity": 0.71,
        "hand": "left"
      },
      {
        "midi": 64,
        "time": 133.125,
        "duration": 0.208,
        "velocity": 0.71,
        "hand": "right"
      },
      {
        "midi": 44,
        "time": 133.333,
        "duration": 0.208,
        "velocity": 0.71,
        "hand": "left"
      },
      {
        "midi": 61,
        "time": 133.333,
        "duration": 0.417,
        "velocity": 0.71,
        "hand": "right"
      },
      {
        "midi": 49,
        "time": 133.542,
        "duration": 0.208,
        "velocity": 0.71,
        "hand": "left"
      },
      {
        "midi": 52,
        "time": 133.75,
        "duration": 0.208,
        "velocity": 0.71,
        "hand": "left"
      },
      {
        "midi": 68,
        "time": 133.75,
        "duration": 0.833,
        "velocity": 0.71,
        "hand": "right"
      },
      {
        "midi": 56,
        "time": 133.958,
        "duration": 0.208,
        "velocity": 0.71,
        "hand": "left"
      },
      {
        "midi": 59,
        "time": 134.167,
        "duration": 0.208,
        "velocity": 0.71,
        "hand": "left"
      },
      {
        "midi": 56,
        "time": 134.375,
        "duration": 0.208,
        "velocity": 0.71,
        "hand": "left"
      },
      {
        "midi": 52,
        "time": 134.583,
        "duration": 0.208,
        "velocity": 0.71,
        "hand": "left"
      },
      {
        "midi": 64,
        "time": 134.583,
        "duration": 0.417,
        "velocity": 0.71,
        "hand": "right"
      },
      {
        "midi": 49,
        "time": 134.792,
        "duration": 0.208,
        "velocity": 0.71,
        "hand": "left"
      },
      {
        "midi": 45,
        "time": 135,
        "duration": 0.208,
        "velocity": 0.71,
        "hand": "left"
      },
      {
        "midi": 63,
        "time": 135,
        "duration": 0.104,
        "velocity": 0.71,
        "hand": "right"
      },
      {
        "midi": 61,
        "time": 135.104,
        "duration": 0.104,
        "velocity": 0.71,
        "hand": "right"
      },
      {
        "midi": 52,
        "time": 135.208,
        "duration": 0.208,
        "velocity": 0.71,
        "hand": "left"
      },
      {
        "midi": 63,
        "time": 135.313,
        "duration": 0.104,
        "velocity": 0.71,
        "hand": "right"
      },
      {
        "midi": 54,
        "time": 135.417,
        "duration": 0.208,
        "velocity": 0.71,
        "hand": "left"
      },
      {
        "midi": 64,
        "time": 135.417,
        "duration": 0.625,
        "velocity": 0.71,
        "hand": "right"
      },
      {
        "midi": 57,
        "time": 135.625,
        "duration": 0.208,
        "velocity": 0.71,
        "hand": "left"
      },
      {
        "midi": 61,
        "time": 135.833,
        "duration": 0.208,
        "velocity": 0.71,
        "hand": "right"
      },
      {
        "midi": 57,
        "time": 136.042,
        "duration": 0.208,
        "velocity": 0.71,
        "hand": "left"
      },
      {
        "midi": 68,
        "time": 136.042,
        "duration": 0.208,
        "velocity": 0.71,
        "hand": "right"
      },
      {
        "midi": 54,
        "time": 136.25,
        "duration": 0.208,
        "velocity": 0.71,
        "hand": "left"
      },
      {
        "midi": 66,
        "time": 136.25,
        "duration": 0.208,
        "velocity": 0.71,
        "hand": "right"
      },
      {
        "midi": 52,
        "time": 136.458,
        "duration": 0.208,
        "velocity": 0.71,
        "hand": "left"
      },
      {
        "midi": 68,
        "time": 136.458,
        "duration": 0.208,
        "velocity": 0.71,
        "hand": "right"
      },
      {
        "midi": 46,
        "time": 136.667,
        "duration": 0.208,
        "velocity": 0.71,
        "hand": "left"
      },
      {
        "midi": 64,
        "time": 136.667,
        "duration": 0.417,
        "velocity": 0.71,
        "hand": "right"
      },
      {
        "midi": 52,
        "time": 136.875,
        "duration": 0.208,
        "velocity": 0.71,
        "hand": "left"
      },
      {
        "midi": 56,
        "time": 137.083,
        "duration": 0.208,
        "velocity": 0.71,
        "hand": "left"
      },
      {
        "midi": 73,
        "time": 137.083,
        "duration": 0.833,
        "velocity": 0.71,
        "hand": "right"
      },
      {
        "midi": 61,
        "time": 137.292,
        "duration": 0.208,
        "velocity": 0.71,
        "hand": "right"
      },
      {
        "midi": 49,
        "time": 137.5,
        "duration": 0.208,
        "velocity": 0.71,
        "hand": "left"
      },
      {
        "midi": 54,
        "time": 137.708,
        "duration": 0.208,
        "velocity": 0.71,
        "hand": "left"
      },
      {
        "midi": 58,
        "time": 137.917,
        "duration": 0.208,
        "velocity": 0.71,
        "hand": "left"
      },
      {
        "midi": 70,
        "time": 137.917,
        "duration": 0.104,
        "velocity": 0.71,
        "hand": "right"
      },
      {
        "midi": 73,
        "time": 138.021,
        "duration": 0.104,
        "velocity": 0.71,
        "hand": "right"
      },
      {
        "midi": 64,
        "time": 138.125,
        "duration": 0.208,
        "velocity": 0.71,
        "hand": "right"
      },
      {
        "midi": 70,
        "time": 138.229,
        "duration": 0.104,
        "velocity": 0.71,
        "hand": "right"
      },
      {
        "midi": 52,
        "time": 138.333,
        "duration": 0.208,
        "velocity": 0.71,
        "hand": "left"
      },
      {
        "midi": 68,
        "time": 138.333,
        "duration": 0.417,
        "velocity": 0.71,
        "hand": "right"
      },
      {
        "midi": 58,
        "time": 138.542,
        "duration": 0.208,
        "velocity": 0.71,
        "hand": "left"
      },
      {
        "midi": 61,
        "time": 138.75,
        "duration": 0.208,
        "velocity": 0.71,
        "hand": "right"
      },
      {
        "midi": 76,
        "time": 138.75,
        "duration": 0.833,
        "velocity": 0.71,
        "hand": "right"
      },
      {
        "midi": 68,
        "time": 138.958,
        "duration": 0.208,
        "velocity": 0.71,
        "hand": "right"
      },
      {
        "midi": 54,
        "time": 139.167,
        "duration": 0.208,
        "velocity": 0.71,
        "hand": "left"
      },
      {
        "midi": 61,
        "time": 139.375,
        "duration": 0.208,
        "velocity": 0.71,
        "hand": "right"
      },
      {
        "midi": 64,
        "time": 139.583,
        "duration": 0.208,
        "velocity": 0.71,
        "hand": "right"
      },
      {
        "midi": 73,
        "time": 139.583,
        "duration": 0.104,
        "velocity": 0.71,
        "hand": "right"
      },
      {
        "midi": 76,
        "time": 139.688,
        "duration": 0.104,
        "velocity": 0.71,
        "hand": "right"
      },
      {
        "midi": 70,
        "time": 139.792,
        "duration": 0.208,
        "velocity": 0.71,
        "hand": "right"
      },
      {
        "midi": 73,
        "time": 139.896,
        "duration": 0.104,
        "velocity": 0.71,
        "hand": "right"
      },
      {
        "midi": 58,
        "time": 140,
        "duration": 0.208,
        "velocity": 0.71,
        "hand": "left"
      },
      {
        "midi": 80,
        "time": 140,
        "duration": 0.625,
        "velocity": 0.71,
        "hand": "right"
      },
      {
        "midi": 64,
        "time": 140.208,
        "duration": 0.208,
        "velocity": 0.71,
        "hand": "right"
      },
      {
        "midi": 68,
        "time": 140.417,
        "duration": 0.208,
        "velocity": 0.71,
        "hand": "right"
      },
      {
        "midi": 73,
        "time": 140.625,
        "duration": 0.208,
        "velocity": 0.71,
        "hand": "right"
      },
      {
        "midi": 78,
        "time": 140.625,
        "duration": 0.208,
        "velocity": 0.71,
        "hand": "right"
      },
      {
        "midi": 61,
        "time": 140.833,
        "duration": 0.208,
        "velocity": 0.71,
        "hand": "right"
      },
      {
        "midi": 80,
        "time": 140.833,
        "duration": 0.625,
        "velocity": 0.71,
        "hand": "right"
      },
      {
        "midi": 66,
        "time": 141.042,
        "duration": 0.208,
        "velocity": 0.71,
        "hand": "right"
      },
      {
        "midi": 70,
        "time": 141.25,
        "duration": 0.208,
        "velocity": 0.71,
        "hand": "right"
      },
      {
        "midi": 76,
        "time": 141.458,
        "duration": 0.208,
        "velocity": 0.71,
        "hand": "right"
      },
      {
        "midi": 78,
        "time": 141.458,
        "duration": 0.208,
        "velocity": 0.71,
        "hand": "right"
      },
      {
        "midi": 58,
        "time": 141.667,
        "duration": 0.208,
        "velocity": 0.71,
        "hand": "left"
      },
      {
        "midi": 80,
        "time": 141.667,
        "duration": 0.625,
        "velocity": 0.71,
        "hand": "right"
      },
      {
        "midi": 64,
        "time": 141.875,
        "duration": 0.208,
        "velocity": 0.71,
        "hand": "right"
      },
      {
        "midi": 68,
        "time": 142.083,
        "duration": 0.208,
        "velocity": 0.71,
        "hand": "right"
      },
      {
        "midi": 73,
        "time": 142.292,
        "duration": 0.208,
        "velocity": 0.71,
        "hand": "right"
      },
      {
        "midi": 78,
        "time": 142.292,
        "duration": 0.208,
        "velocity": 0.71,
        "hand": "right"
      },
      {
        "midi": 61,
        "time": 142.5,
        "duration": 0.208,
        "velocity": 0.71,
        "hand": "right"
      },
      {
        "midi": 80,
        "time": 142.5,
        "duration": 0.208,
        "velocity": 0.71,
        "hand": "right"
      },
      {
        "midi": 66,
        "time": 142.708,
        "duration": 0.208,
        "velocity": 0.71,
        "hand": "right"
      },
      {
        "midi": 78,
        "time": 142.708,
        "duration": 0.417,
        "velocity": 0.71,
        "hand": "right"
      },
      {
        "midi": 70,
        "time": 142.917,
        "duration": 0.208,
        "velocity": 0.71,
        "hand": "right"
      },
      {
        "midi": 76,
        "time": 143.125,
        "duration": 0.208,
        "velocity": 0.71,
        "hand": "right"
      },
      {
        "midi": 80,
        "time": 143.125,
        "duration": 0.208,
        "velocity": 0.71,
        "hand": "right"
      },
      {
        "midi": 61,
        "time": 143.333,
        "duration": 0.104,
        "velocity": 0.71,
        "hand": "right"
      },
      {
        "midi": 81,
        "time": 143.333,
        "duration": 0.833,
        "velocity": 0.71,
        "hand": "right"
      },
      {
        "midi": 64,
        "time": 143.438,
        "duration": 0.104,
        "velocity": 0.71,
        "hand": "right"
      },
      {
        "midi": 69,
        "time": 143.646,
        "duration": 0.104,
        "velocity": 0.71,
        "hand": "right"
      },
      {
        "midi": 73,
        "time": 143.75,
        "duration": 0.104,
        "velocity": 0.71,
        "hand": "right"
      },
      {
        "midi": 76,
        "time": 143.854,
        "duration": 0.104,
        "velocity": 0.71,
        "hand": "right"
      },
      {
        "midi": 78,
        "time": 144.063,
        "duration": 0.104,
        "velocity": 0.71,
        "hand": "right"
      },
      {
        "midi": 80,
        "time": 144.167,
        "duration": 0.833,
        "velocity": 0.71,
        "hand": "right"
      },
      {
        "midi": 75,
        "time": 144.271,
        "duration": 0.104,
        "velocity": 0.71,
        "hand": "right"
      },
      {
        "midi": 71,
        "time": 144.479,
        "duration": 0.104,
        "velocity": 0.71,
        "hand": "right"
      },
      {
        "midi": 68,
        "time": 144.583,
        "duration": 0.104,
        "velocity": 0.71,
        "hand": "right"
      },
      {
        "midi": 63,
        "time": 144.688,
        "duration": 0.104,
        "velocity": 0.71,
        "hand": "right"
      },
      {
        "midi": 59,
        "time": 144.896,
        "duration": 0.104,
        "velocity": 0.71,
        "hand": "left"
      },
      {
        "midi": 57,
        "time": 145,
        "duration": 0.104,
        "velocity": 0.71,
        "hand": "left"
      },
      {
        "midi": 78,
        "time": 145,
        "duration": 0.833,
        "velocity": 0.71,
        "hand": "right"
      },
      {
        "midi": 61,
        "time": 145.104,
        "duration": 0.104,
        "velocity": 0.71,
        "hand": "right"
      },
      {
        "midi": 66,
        "time": 145.313,
        "duration": 0.104,
        "velocity": 0.71,
        "hand": "right"
      },
      {
        "midi": 69,
        "time": 145.417,
        "duration": 0.104,
        "velocity": 0.71,
        "hand": "right"
      },
      {
        "midi": 73,
        "time": 145.521,
        "duration": 0.104,
        "velocity": 0.71,
        "hand": "right"
      },
      {
        "midi": 75,
        "time": 145.729,
        "duration": 0.104,
        "velocity": 0.71,
        "hand": "right"
      },
      {
        "midi": 76,
        "time": 145.833,
        "duration": 0.833,
        "velocity": 0.71,
        "hand": "right"
      },
      {
        "midi": 71,
        "time": 145.938,
        "duration": 0.104,
        "velocity": 0.71,
        "hand": "right"
      },
      {
        "midi": 68,
        "time": 146.146,
        "duration": 0.104,
        "velocity": 0.71,
        "hand": "right"
      },
      {
        "midi": 64,
        "time": 146.25,
        "duration": 0.104,
        "velocity": 0.71,
        "hand": "right"
      },
      {
        "midi": 59,
        "time": 146.354,
        "duration": 0.104,
        "velocity": 0.71,
        "hand": "left"
      },
      {
        "midi": 56,
        "time": 146.563,
        "duration": 0.104,
        "velocity": 0.71,
        "hand": "left"
      },
      {
        "midi": 61,
        "time": 146.667,
        "duration": 0.833,
        "velocity": 0.71,
        "hand": "right"
      },
      {
        "midi": 81,
        "time": 146.667,
        "duration": 0.417,
        "velocity": 0.71,
        "hand": "right"
      },
      {
        "midi": 64,
        "time": 146.771,
        "duration": 0.104,
        "velocity": 0.71,
        "hand": "right"
      },
      {
        "midi": 69,
        "time": 146.979,
        "duration": 0.104,
        "velocity": 0.71,
        "hand": "right"
      },
      {
        "midi": 73,
        "time": 147.083,
        "duration": 0.104,
        "velocity": 0.71,
        "hand": "right"
      },
      {
        "midi": 76,
        "time": 147.083,
        "duration": 0.417,
        "velocity": 0.71,
        "hand": "right"
      },
      {
        "midi": 83,
        "time": 147.083,
        "duration": 0.208,
        "velocity": 0.71,
        "hand": "right"
      },
      {
        "midi": 69,
        "time": 147.188,
        "duration": 0.104,
        "velocity": 0.71,
        "hand": "right"
      },
      {
        "midi": 85,
        "time": 147.292,
        "duration": 0.208,
        "velocity": 0.71,
        "hand": "right"
      },
      {
        "midi": 64,
        "time": 147.396,
        "duration": 0.104,
        "velocity": 0.71,
        "hand": "right"
      },
      {
        "midi": 59,
        "time": 147.5,
        "duration": 0.833,
        "velocity": 0.71,
        "hand": "left"
      },
      {
        "midi": 81,
        "time": 147.5,
        "duration": 0.208,
        "velocity": 0.71,
        "hand": "right"
      },
      {
        "midi": 63,
        "time": 147.604,
        "duration": 0.104,
        "velocity": 0.71,
        "hand": "right"
      },
      {
        "midi": 80,
        "time": 147.708,
        "duration": 0.208,
        "velocity": 0.71,
        "hand": "right"
      },
      {
        "midi": 68,
        "time": 147.813,
        "duration": 0.104,
        "velocity": 0.71,
        "hand": "right"
      },
      {
        "midi": 71,
        "time": 147.917,
        "duration": 0.104,
        "velocity": 0.71,
        "hand": "right"
      },
      {
        "midi": 75,
        "time": 147.917,
        "duration": 0.417,
        "velocity": 0.71,
        "hand": "right"
      },
      {
        "midi": 81,
        "time": 147.917,
        "duration": 0.208,
        "velocity": 0.71,
        "hand": "right"
      },
      {
        "midi": 68,
        "time": 148.021,
        "duration": 0.104,
        "velocity": 0.71,
        "hand": "right"
      },
      {
        "midi": 80,
        "time": 148.125,
        "duration": 0.625,
        "velocity": 0.71,
        "hand": "right"
      },
      {
        "midi": 63,
        "time": 148.229,
        "duration": 0.104,
        "velocity": 0.71,
        "hand": "right"
      },
      {
        "midi": 57,
        "time": 148.333,
        "duration": 0.833,
        "velocity": 0.71,
        "hand": "left"
      },
      {
        "midi": 73,
        "time": 148.333,
        "duration": 0.833,
        "velocity": 0.71,
        "hand": "right"
      },
      {
        "midi": 61,
        "time": 148.438,
        "duration": 0.104,
        "velocity": 0.71,
        "hand": "right"
      },
      {
        "midi": 66,
        "time": 148.646,
        "duration": 0.104,
        "velocity": 0.71,
        "hand": "right"
      },
      {
        "midi": 69,
        "time": 148.75,
        "duration": 0.104,
        "velocity": 0.71,
        "hand": "right"
      },
      {
        "midi": 78,
        "time": 148.75,
        "duration": 0.833,
        "velocity": 0.71,
        "hand": "right"
      },
      {
        "midi": 66,
        "time": 148.854,
        "duration": 0.104,
        "velocity": 0.71,
        "hand": "right"
      },
      {
        "midi": 61,
        "time": 149.063,
        "duration": 0.104,
        "velocity": 0.71,
        "hand": "right"
      },
      {
        "midi": 56,
        "time": 149.167,
        "duration": 0.833,
        "velocity": 0.71,
        "hand": "left"
      },
      {
        "midi": 71,
        "time": 149.167,
        "duration": 0.833,
        "velocity": 0.71,
        "hand": "right"
      },
      {
        "midi": 59,
        "time": 149.271,
        "duration": 0.104,
        "velocity": 0.71,
        "hand": "left"
      },
      {
        "midi": 64,
        "time": 149.479,
        "duration": 0.104,
        "velocity": 0.71,
        "hand": "right"
      },
      {
        "midi": 68,
        "time": 149.583,
        "duration": 0.104,
        "velocity": 0.71,
        "hand": "right"
      },
      {
        "midi": 76,
        "time": 149.583,
        "duration": 0.625,
        "velocity": 0.71,
        "hand": "right"
      },
      {
        "midi": 64,
        "time": 149.688,
        "duration": 0.104,
        "velocity": 0.71,
        "hand": "right"
      },
      {
        "midi": 59,
        "time": 149.896,
        "duration": 0.104,
        "velocity": 0.71,
        "hand": "left"
      },
      {
        "midi": 54,
        "time": 150,
        "duration": 0.833,
        "velocity": 0.71,
        "hand": "left"
      },
      {
        "midi": 57,
        "time": 150.104,
        "duration": 0.104,
        "velocity": 0.71,
        "hand": "left"
      },
      {
        "midi": 74,
        "time": 150.208,
        "duration": 0.208,
        "velocity": 0.71,
        "hand": "right"
      },
      {
        "midi": 62,
        "time": 150.313,
        "duration": 0.104,
        "velocity": 0.71,
        "hand": "right"
      },
      {
        "midi": 66,
        "time": 150.417,
        "duration": 0.104,
        "velocity": 0.71,
        "hand": "right"
      },
      {
        "midi": 69,
        "time": 150.417,
        "duration": 0.417,
        "velocity": 0.71,
        "hand": "right"
      },
      {
        "midi": 76,
        "time": 150.417,
        "duration": 0.208,
        "velocity": 0.71,
        "hand": "right"
      },
      {
        "midi": 62,
        "time": 150.521,
        "duration": 0.104,
        "velocity": 0.71,
        "hand": "right"
      },
      {
        "midi": 78,
        "time": 150.625,
        "duration": 0.208,
        "velocity": 0.71,
        "hand": "right"
      },
      {
        "midi": 57,
        "time": 150.729,
        "duration": 0.104,
        "velocity": 0.71,
        "hand": "left"
      },
      {
        "midi": 52,
        "time": 150.833,
        "duration": 0.833,
        "velocity": 0.71,
        "hand": "left"
      },
      {
        "midi": 74,
        "time": 150.833,
        "duration": 0.208,
        "velocity": 0.71,
        "hand": "right"
      },
      {
        "midi": 56,
        "time": 150.938,
        "duration": 0.104,
        "velocity": 0.71,
        "hand": "left"
      },
      {
        "midi": 73,
        "time": 151.042,
        "duration": 0.208,
        "velocity": 0.71,
        "hand": "right"
      },
      {
        "midi": 61,
        "time": 151.146,
        "duration": 0.104,
        "velocity": 0.71,
        "hand": "right"
      },
      {
        "midi": 64,
        "time": 151.25,
        "duration": 0.104,
        "velocity": 0.71,
        "hand": "right"
      },
      {
        "midi": 68,
        "time": 151.25,
        "duration": 0.417,
        "velocity": 0.71,
        "hand": "right"
      },
      {
        "midi": 74,
        "time": 151.25,
        "duration": 0.208,
        "velocity": 0.71,
        "hand": "right"
      },
      {
        "midi": 61,
        "time": 151.354,
        "duration": 0.104,
        "velocity": 0.71,
        "hand": "right"
      },
      {
        "midi": 73,
        "time": 151.458,
        "duration": 0.625,
        "velocity": 0.71,
        "hand": "right"
      },
      {
        "midi": 56,
        "time": 151.563,
        "duration": 0.104,
        "velocity": 0.71,
        "hand": "left"
      },
      {
        "midi": 50,
        "time": 151.667,
        "duration": 0.833,
        "velocity": 0.71,
        "hand": "left"
      },
      {
        "midi": 66,
        "time": 151.667,
        "duration": 0.833,
        "velocity": 0.71,
        "hand": "right"
      },
      {
        "midi": 54,
        "time": 151.771,
        "duration": 0.104,
        "velocity": 0.71,
        "hand": "left"
      },
      {
        "midi": 59,
        "time": 151.979,
        "duration": 0.104,
        "velocity": 0.71,
        "hand": "left"
      },
      {
        "midi": 62,
        "time": 152.083,
        "duration": 0.104,
        "velocity": 0.71,
        "hand": "right"
      },
      {
        "midi": 71,
        "time": 152.083,
        "duration": 0.833,
        "velocity": 0.71,
        "hand": "right"
      },
      {
        "midi": 59,
        "time": 152.188,
        "duration": 0.104,
        "velocity": 0.71,
        "hand": "left"
      },
      {
        "midi": 54,
        "time": 152.396,
        "duration": 0.104,
        "velocity": 0.71,
        "hand": "left"
      },
      {
        "midi": 49,
        "time": 152.5,
        "duration": 0.833,
        "velocity": 0.71,
        "hand": "left"
      },
      {
        "midi": 64,
        "time": 152.5,
        "duration": 0.833,
        "velocity": 0.71,
        "hand": "right"
      },
      {
        "midi": 52,
        "time": 152.604,
        "duration": 0.104,
        "velocity": 0.71,
        "hand": "left"
      },
      {
        "midi": 57,
        "time": 152.813,
        "duration": 0.104,
        "velocity": 0.71,
        "hand": "left"
      },
      {
        "midi": 61,
        "time": 152.917,
        "duration": 0.104,
        "velocity": 0.71,
        "hand": "right"
      },
      {
        "midi": 69,
        "time": 152.917,
        "duration": 0.625,
        "velocity": 0.71,
        "hand": "right"
      },
      {
        "midi": 57,
        "time": 153.021,
        "duration": 0.104,
        "velocity": 0.71,
        "hand": "left"
      },
      {
        "midi": 52,
        "time": 153.229,
        "duration": 0.104,
        "velocity": 0.71,
        "hand": "left"
      },
      {
        "midi": 47,
        "time": 153.333,
        "duration": 0.833,
        "velocity": 0.71,
        "hand": "left"
      },
      {
        "midi": 62,
        "time": 153.333,
        "duration": 0.833,
        "velocity": 0.71,
        "hand": "right"
      },
      {
        "midi": 53,
        "time": 153.438,
        "duration": 0.104,
        "velocity": 0.71,
        "hand": "left"
      },
      {
        "midi": 68,
        "time": 153.542,
        "duration": 0.208,
        "velocity": 0.71,
        "hand": "right"
      },
      {
        "midi": 56,
        "time": 153.646,
        "duration": 0.104,
        "velocity": 0.71,
        "hand": "left"
      },
      {
        "midi": 59,
        "time": 153.75,
        "duration": 0.104,
        "velocity": 0.71,
        "hand": "left"
      },
      {
        "midi": 69,
        "time": 153.75,
        "duration": 0.208,
        "velocity": 0.71,
        "hand": "right"
      },
      {
        "midi": 56,
        "time": 153.854,
        "duration": 0.104,
        "velocity": 0.71,
        "hand": "left"
      },
      {
        "midi": 68,
        "time": 153.958,
        "duration": 0.208,
        "velocity": 0.71,
        "hand": "right"
      },
      {
        "midi": 53,
        "time": 154.063,
        "duration": 0.104,
        "velocity": 0.71,
        "hand": "left"
      },
      {
        "midi": 45,
        "time": 154.167,
        "duration": 0.833,
        "velocity": 0.71,
        "hand": "left"
      },
      {
        "midi": 61,
        "time": 154.167,
        "duration": 0.833,
        "velocity": 0.71,
        "hand": "right"
      },
      {
        "midi": 73,
        "time": 154.167,
        "duration": 0.208,
        "velocity": 0.71,
        "hand": "right"
      },
      {
        "midi": 49,
        "time": 154.271,
        "duration": 0.104,
        "velocity": 0.71,
        "hand": "left"
      },
      {
        "midi": 69,
        "time": 154.375,
        "duration": 0.208,
        "velocity": 0.71,
        "hand": "right"
      },
      {
        "midi": 54,
        "time": 154.479,
        "duration": 0.104,
        "velocity": 0.71,
        "hand": "left"
      },
      {
        "midi": 57,
        "time": 154.583,
        "duration": 0.104,
        "velocity": 0.71,
        "hand": "left"
      },
      {
        "midi": 66,
        "time": 154.583,
        "duration": 0.625,
        "velocity": 0.71,
        "hand": "right"
      },
      {
        "midi": 54,
        "time": 154.688,
        "duration": 0.104,
        "velocity": 0.71,
        "hand": "left"
      },
      {
        "midi": 49,
        "time": 154.896,
        "duration": 0.104,
        "velocity": 0.71,
        "hand": "left"
      },
      {
        "midi": 44,
        "time": 155,
        "duration": 0.833,
        "velocity": 0.71,
        "hand": "left"
      },
      {
        "midi": 59,
        "time": 155,
        "duration": 0.833,
        "velocity": 0.71,
        "hand": "left"
      },
      {
        "midi": 47,
        "time": 155.104,
        "duration": 0.104,
        "velocity": 0.71,
        "hand": "left"
      },
      {
        "midi": 64,
        "time": 155.208,
        "duration": 0.208,
        "velocity": 0.71,
        "hand": "right"
      },
      {
        "midi": 52,
        "time": 155.313,
        "duration": 0.104,
        "velocity": 0.71,
        "hand": "left"
      },
      {
        "midi": 56,
        "time": 155.417,
        "duration": 0.104,
        "velocity": 0.71,
        "hand": "left"
      },
      {
        "midi": 66,
        "time": 155.417,
        "duration": 0.208,
        "velocity": 0.71,
        "hand": "right"
      },
      {
        "midi": 52,
        "time": 155.521,
        "duration": 0.104,
        "velocity": 0.71,
        "hand": "left"
      },
      {
        "midi": 64,
        "time": 155.625,
        "duration": 0.208,
        "velocity": 0.71,
        "hand": "right"
      },
      {
        "midi": 47,
        "time": 155.729,
        "duration": 0.104,
        "velocity": 0.71,
        "hand": "left"
      },
      {
        "midi": 42,
        "time": 155.833,
        "duration": 0.104,
        "velocity": 0.71,
        "hand": "left"
      },
      {
        "midi": 69,
        "time": 155.833,
        "duration": 3.333,
        "velocity": 0.71,
        "hand": "right"
      },
      {
        "midi": 49,
        "time": 155.938,
        "duration": 0.104,
        "velocity": 0.71,
        "hand": "left"
      },
      {
        "midi": 52,
        "time": 156.146,
        "duration": 0.104,
        "velocity": 0.71,
        "hand": "left"
      },
      {
        "midi": 54,
        "time": 156.25,
        "duration": 0.104,
        "velocity": 0.71,
        "hand": "left"
      },
      {
        "midi": 57,
        "time": 156.354,
        "duration": 0.104,
        "velocity": 0.71,
        "hand": "left"
      },
      {
        "midi": 59,
        "time": 156.563,
        "duration": 0.104,
        "velocity": 0.71,
        "hand": "left"
      },
      {
        "midi": 61,
        "time": 156.667,
        "duration": 0.104,
        "velocity": 0.71,
        "hand": "right"
      },
      {
        "midi": 64,
        "time": 156.771,
        "duration": 0.104,
        "velocity": 0.71,
        "hand": "right"
      },
      {
        "midi": 71,
        "time": 157.083,
        "duration": 0.104,
        "velocity": 0.71,
        "hand": "right"
      },
      {
        "midi": 73,
        "time": 157.188,
        "duration": 0.104,
        "velocity": 0.71,
        "hand": "right"
      },
      {
        "midi": 76,
        "time": 157.396,
        "duration": 0.104,
        "velocity": 0.71,
        "hand": "right"
      },
      {
        "midi": 81,
        "time": 157.5,
        "duration": 0.104,
        "velocity": 0.71,
        "hand": "right"
      },
      {
        "midi": 83,
        "time": 157.604,
        "duration": 0.104,
        "velocity": 0.71,
        "hand": "right"
      },
      {
        "midi": 85,
        "time": 157.813,
        "duration": 0.104,
        "velocity": 0.71,
        "hand": "right"
      },
      {
        "midi": 88,
        "time": 157.917,
        "duration": 0.104,
        "velocity": 0.71,
        "hand": "right"
      },
      {
        "midi": 85,
        "time": 158.021,
        "duration": 0.104,
        "velocity": 0.71,
        "hand": "right"
      },
      {
        "midi": 83,
        "time": 158.229,
        "duration": 0.104,
        "velocity": 0.71,
        "hand": "right"
      },
      {
        "midi": 81,
        "time": 158.333,
        "duration": 0.104,
        "velocity": 0.71,
        "hand": "right"
      },
      {
        "midi": 76,
        "time": 158.438,
        "duration": 0.104,
        "velocity": 0.71,
        "hand": "right"
      },
      {
        "midi": 73,
        "time": 158.646,
        "duration": 0.104,
        "velocity": 0.71,
        "hand": "right"
      },
      {
        "midi": 71,
        "time": 158.75,
        "duration": 0.104,
        "velocity": 0.71,
        "hand": "right"
      },
      {
        "midi": 64,
        "time": 159.063,
        "duration": 0.104,
        "velocity": 0.71,
        "hand": "right"
      },
      {
        "midi": 35,
        "time": 159.167,
        "duration": 0.104,
        "velocity": 0.71,
        "hand": "left"
      },
      {
        "midi": 68,
        "time": 159.167,
        "duration": 1.667,
        "velocity": 0.71,
        "hand": "right"
      },
      {
        "midi": 47,
        "time": 159.271,
        "duration": 0.104,
        "velocity": 0.71,
        "hand": "left"
      },
      {
        "midi": 51,
        "time": 159.479,
        "duration": 0.104,
        "velocity": 0.71,
        "hand": "left"
      },
      {
        "midi": 56,
        "time": 159.583,
        "duration": 0.104,
        "velocity": 0.71,
        "hand": "left"
      },
      {
        "midi": 59,
        "time": 159.688,
        "duration": 0.104,
        "velocity": 0.71,
        "hand": "left"
      },
      {
        "midi": 63,
        "time": 159.896,
        "duration": 0.104,
        "velocity": 0.71,
        "hand": "right"
      },
      {
        "midi": 71,
        "time": 160.104,
        "duration": 0.104,
        "velocity": 0.71,
        "hand": "right"
      },
      {
        "midi": 75,
        "time": 160.313,
        "duration": 0.104,
        "velocity": 0.71,
        "hand": "right"
      },
      {
        "midi": 80,
        "time": 160.417,
        "duration": 0.104,
        "velocity": 0.71,
        "hand": "right"
      },
      {
        "midi": 83,
        "time": 160.521,
        "duration": 0.104,
        "velocity": 0.71,
        "hand": "right"
      },
      {
        "midi": 71,
        "time": 160.729,
        "duration": 0.104,
        "velocity": 0.71,
        "hand": "right"
      },
      {
        "midi": 35,
        "time": 160.833,
        "duration": 0.104,
        "velocity": 0.71,
        "hand": "left"
      },
      {
        "midi": 66,
        "time": 160.833,
        "duration": 1.667,
        "velocity": 0.71,
        "hand": "right"
      },
      {
        "midi": 47,
        "time": 160.938,
        "duration": 0.104,
        "velocity": 0.71,
        "hand": "left"
      },
      {
        "midi": 51,
        "time": 161.146,
        "duration": 0.104,
        "velocity": 0.71,
        "hand": "left"
      },
      {
        "midi": 57,
        "time": 161.25,
        "duration": 0.104,
        "velocity": 0.71,
        "hand": "left"
      },
      {
        "midi": 59,
        "time": 161.354,
        "duration": 0.104,
        "velocity": 0.71,
        "hand": "left"
      },
      {
        "midi": 63,
        "time": 161.563,
        "duration": 0.104,
        "velocity": 0.71,
        "hand": "right"
      },
      {
        "midi": 69,
        "time": 161.667,
        "duration": 0.104,
        "velocity": 0.71,
        "hand": "right"
      },
      {
        "midi": 71,
        "time": 161.771,
        "duration": 0.104,
        "velocity": 0.71,
        "hand": "right"
      },
      {
        "midi": 75,
        "time": 161.979,
        "duration": 0.104,
        "velocity": 0.71,
        "hand": "right"
      },
      {
        "midi": 81,
        "time": 162.083,
        "duration": 0.104,
        "velocity": 0.71,
        "hand": "right"
      },
      {
        "midi": 83,
        "time": 162.188,
        "duration": 0.104,
        "velocity": 0.71,
        "hand": "right"
      },
      {
        "midi": 71,
        "time": 162.396,
        "duration": 0.104,
        "velocity": 0.71,
        "hand": "right"
      },
      {
        "midi": 40,
        "time": 162.5,
        "duration": 0.208,
        "velocity": 0.71,
        "hand": "left"
      },
      {
        "midi": 64,
        "time": 162.5,
        "duration": 0.417,
        "velocity": 0.71,
        "hand": "right"
      },
      {
        "midi": 47,
        "time": 162.708,
        "duration": 0.208,
        "velocity": 0.71,
        "hand": "left"
      },
      {
        "midi": 52,
        "time": 162.917,
        "duration": 0.208,
        "velocity": 0.71,
        "hand": "left"
      },
      {
        "midi": 88,
        "time": 162.917,
        "duration": 0.104,
        "velocity": 0.71,
        "hand": "right"
      },
      {
        "midi": 90,
        "time": 163.021,
        "duration": 0.104,
        "velocity": 0.71,
        "hand": "right"
      },
      {
        "midi": 56,
        "time": 163.125,
        "duration": 0.208,
        "velocity": 0.71,
        "hand": "left"
      },
      {
        "midi": 85,
        "time": 163.229,
        "duration": 0.104,
        "velocity": 0.71,
        "hand": "right"
      },
      {
        "midi": 59,
        "time": 163.333,
        "duration": 0.208,
        "velocity": 0.71,
        "hand": "left"
      },
      {
        "midi": 88,
        "time": 163.333,
        "duration": 0.104,
        "velocity": 0.71,
        "hand": "right"
      },
      {
        "midi": 83,
        "time": 163.438,
        "duration": 0.104,
        "velocity": 0.71,
        "hand": "right"
      },
      {
        "midi": 56,
        "time": 163.542,
        "duration": 0.208,
        "velocity": 0.71,
        "hand": "left"
      },
      {
        "midi": 85,
        "time": 163.646,
        "duration": 0.104,
        "velocity": 0.71,
        "hand": "right"
      },
      {
        "midi": 52,
        "time": 163.75,
        "duration": 0.208,
        "velocity": 0.71,
        "hand": "left"
      },
      {
        "midi": 80,
        "time": 163.75,
        "duration": 0.104,
        "velocity": 0.71,
        "hand": "right"
      },
      {
        "midi": 83,
        "time": 163.854,
        "duration": 0.104,
        "velocity": 0.71,
        "hand": "right"
      },
      {
        "midi": 59,
        "time": 163.958,
        "duration": 0.208,
        "velocity": 0.71,
        "hand": "left"
      },
      {
        "midi": 78,
        "time": 164.063,
        "duration": 0.104,
        "velocity": 0.71,
        "hand": "right"
      },
      {
        "midi": 40,
        "time": 164.167,
        "duration": 0.208,
        "velocity": 0.71,
        "hand": "left"
      },
      {
        "midi": 80,
        "time": 164.167,
        "duration": 0.104,
        "velocity": 0.71,
        "hand": "right"
      },
      {
        "midi": 76,
        "time": 164.271,
        "duration": 0.104,
        "velocity": 0.71,
        "hand": "right"
      },
      {
        "midi": 49,
        "time": 164.375,
        "duration": 0.208,
        "velocity": 0.71,
        "hand": "left"
      },
      {
        "midi": 80,
        "time": 164.479,
        "duration": 0.104,
        "velocity": 0.71,
        "hand": "right"
      },
      {
        "midi": 52,
        "time": 164.583,
        "duration": 0.208,
        "velocity": 0.71,
        "hand": "left"
      },
      {
        "midi": 75,
        "time": 164.583,
        "duration": 0.833,
        "velocity": 0.71,
        "hand": "right"
      },
      {
        "midi": 56,
        "time": 164.792,
        "duration": 0.208,
        "velocity": 0.71,
        "hand": "left"
      },
      {
        "midi": 61,
        "time": 165,
        "duration": 0.208,
        "velocity": 0.71,
        "hand": "right"
      },
      {
        "midi": 56,
        "time": 165.208,
        "duration": 0.208,
        "velocity": 0.71,
        "hand": "left"
      },
      {
        "midi": 52,
        "time": 165.417,
        "duration": 0.208,
        "velocity": 0.71,
        "hand": "left"
      },
      {
        "midi": 73,
        "time": 165.417,
        "duration": 0.417,
        "velocity": 0.71,
        "hand": "right"
      },
      {
        "midi": 49,
        "time": 165.625,
        "duration": 0.208,
        "velocity": 0.71,
        "hand": "left"
      },
      {
        "midi": 40,
        "time": 165.833,
        "duration": 0.208,
        "velocity": 0.71,
        "hand": "left"
      },
      {
        "midi": 71,
        "time": 165.833,
        "duration": 0.417,
        "velocity": 0.71,
        "hand": "right"
      },
      {
        "midi": 47,
        "time": 166.042,
        "duration": 0.208,
        "velocity": 0.71,
        "hand": "left"
      },
      {
        "midi": 52,
        "time": 166.25,
        "duration": 0.208,
        "velocity": 0.71,
        "hand": "left"
      },
      {
        "midi": 76,
        "time": 166.25,
        "duration": 0.104,
        "velocity": 0.71,
        "hand": "right"
      },
      {
        "midi": 78,
        "time": 166.354,
        "duration": 0.104,
        "velocity": 0.71,
        "hand": "right"
      },
      {
        "midi": 56,
        "time": 166.458,
        "duration": 0.208,
        "velocity": 0.71,
        "hand": "left"
      },
      {
        "midi": 73,
        "time": 166.563,
        "duration": 0.104,
        "velocity": 0.71,
        "hand": "right"
      },
      {
        "midi": 59,
        "time": 166.667,
        "duration": 0.208,
        "velocity": 0.71,
        "hand": "left"
      },
      {
        "midi": 76,
        "time": 166.667,
        "duration": 0.104,
        "velocity": 0.71,
        "hand": "right"
      },
      {
        "midi": 71,
        "time": 166.771,
        "duration": 0.104,
        "velocity": 0.71,
        "hand": "right"
      },
      {
        "midi": 56,
        "time": 166.875,
        "duration": 0.208,
        "velocity": 0.71,
        "hand": "left"
      },
      {
        "midi": 73,
        "time": 166.979,
        "duration": 0.104,
        "velocity": 0.71,
        "hand": "right"
      },
      {
        "midi": 52,
        "time": 167.083,
        "duration": 0.208,
        "velocity": 0.71,
        "hand": "left"
      },
      {
        "midi": 68,
        "time": 167.083,
        "duration": 0.104,
        "velocity": 0.71,
        "hand": "right"
      },
      {
        "midi": 71,
        "time": 167.188,
        "duration": 0.104,
        "velocity": 0.71,
        "hand": "right"
      },
      {
        "midi": 59,
        "time": 167.292,
        "duration": 0.208,
        "velocity": 0.71,
        "hand": "left"
      },
      {
        "midi": 66,
        "time": 167.396,
        "duration": 0.104,
        "velocity": 0.71,
        "hand": "right"
      },
      {
        "midi": 40,
        "time": 167.5,
        "duration": 0.208,
        "velocity": 0.71,
        "hand": "left"
      },
      {
        "midi": 68,
        "time": 167.5,
        "duration": 0.104,
        "velocity": 0.71,
        "hand": "right"
      },
      {
        "midi": 64,
        "time": 167.604,
        "duration": 0.104,
        "velocity": 0.71,
        "hand": "right"
      },
      {
        "midi": 49,
        "time": 167.708,
        "duration": 0.208,
        "velocity": 0.71,
        "hand": "left"
      },
      {
        "midi": 68,
        "time": 167.813,
        "duration": 0.104,
        "velocity": 0.71,
        "hand": "right"
      },
      {
        "midi": 52,
        "time": 167.917,
        "duration": 0.208,
        "velocity": 0.71,
        "hand": "left"
      },
      {
        "midi": 63,
        "time": 167.917,
        "duration": 0.833,
        "velocity": 0.71,
        "hand": "right"
      },
      {
        "midi": 56,
        "time": 168.125,
        "duration": 0.208,
        "velocity": 0.71,
        "hand": "left"
      },
      {
        "midi": 61,
        "time": 168.333,
        "duration": 0.208,
        "velocity": 0.71,
        "hand": "right"
      },
      {
        "midi": 56,
        "time": 168.542,
        "duration": 0.208,
        "velocity": 0.71,
        "hand": "left"
      },
      {
        "midi": 52,
        "time": 168.75,
        "duration": 0.208,
        "velocity": 0.71,
        "hand": "left"
      },
      {
        "midi": 61,
        "time": 168.75,
        "duration": 0.417,
        "velocity": 0.71,
        "hand": "right"
      },
      {
        "midi": 49,
        "time": 168.958,
        "duration": 0.208,
        "velocity": 0.71,
        "hand": "left"
      },
      {
        "midi": 40,
        "time": 169.167,
        "duration": 0.417,
        "velocity": 0.71,
        "hand": "left"
      },
      {
        "midi": 59,
        "time": 169.271,
        "duration": 0.104,
        "velocity": 0.71,
        "hand": "left"
      },
      {
        "midi": 52,
        "time": 169.479,
        "duration": 0.104,
        "velocity": 0.71,
        "hand": "left"
      },
      {
        "midi": 47,
        "time": 169.583,
        "duration": 0.417,
        "velocity": 0.71,
        "hand": "left"
      },
      {
        "midi": 61,
        "time": 169.688,
        "duration": 0.104,
        "velocity": 0.71,
        "hand": "right"
      },
      {
        "midi": 56,
        "time": 169.896,
        "duration": 0.104,
        "velocity": 0.71,
        "hand": "left"
      },
      {
        "midi": 52,
        "time": 170,
        "duration": 0.417,
        "velocity": 0.71,
        "hand": "left"
      },
      {
        "midi": 64,
        "time": 170.104,
        "duration": 0.104,
        "velocity": 0.71,
        "hand": "right"
      },
      {
        "midi": 59,
        "time": 170.313,
        "duration": 0.104,
        "velocity": 0.71,
        "hand": "left"
      },
      {
        "midi": 56,
        "time": 170.417,
        "duration": 0.417,
        "velocity": 0.71,
        "hand": "left"
      },
      {
        "midi": 66,
        "time": 170.521,
        "duration": 0.104,
        "velocity": 0.71,
        "hand": "right"
      },
      {
        "midi": 61,
        "time": 170.729,
        "duration": 0.104,
        "velocity": 0.71,
        "hand": "right"
      },
      {
        "midi": 52,
        "time": 170.833,
        "duration": 0.417,
        "velocity": 0.71,
        "hand": "left"
      },
      {
        "midi": 71,
        "time": 170.938,
        "duration": 0.104,
        "velocity": 0.71,
        "hand": "right"
      },
      {
        "midi": 64,
        "time": 171.146,
        "duration": 0.104,
        "velocity": 0.71,
        "hand": "right"
      },
      {
        "midi": 59,
        "time": 171.25,
        "duration": 0.417,
        "velocity": 0.71,
        "hand": "left"
      },
      {
        "midi": 73,
        "time": 171.354,
        "duration": 0.104,
        "velocity": 0.71,
        "hand": "right"
      },
      {
        "midi": 68,
        "time": 171.563,
        "duration": 0.104,
        "velocity": 0.71,
        "hand": "right"
      },
      {
        "midi": 64,
        "time": 171.667,
        "duration": 0.417,
        "velocity": 0.71,
        "hand": "right"
      },
      {
        "midi": 76,
        "time": 171.771,
        "duration": 0.104,
        "velocity": 0.71,
        "hand": "right"
      },
      {
        "midi": 71,
        "time": 171.979,
        "duration": 0.104,
        "velocity": 0.71,
        "hand": "right"
      },
      {
        "midi": 68,
        "time": 172.083,
        "duration": 0.417,
        "velocity": 0.71,
        "hand": "right"
      },
      {
        "midi": 78,
        "time": 172.188,
        "duration": 0.104,
        "velocity": 0.71,
        "hand": "right"
      },
      {
        "midi": 73,
        "time": 172.396,
        "duration": 0.104,
        "velocity": 0.71,
        "hand": "right"
      },
      {
        "midi": 64,
        "time": 172.5,
        "duration": 0.417,
        "velocity": 0.71,
        "hand": "right"
      },
      {
        "midi": 83,
        "time": 172.604,
        "duration": 0.104,
        "velocity": 0.71,
        "hand": "right"
      },
      {
        "midi": 76,
        "time": 172.813,
        "duration": 0.104,
        "velocity": 0.71,
        "hand": "right"
      },
      {
        "midi": 71,
        "time": 172.917,
        "duration": 0.417,
        "velocity": 0.71,
        "hand": "right"
      },
      {
        "midi": 85,
        "time": 173.021,
        "duration": 0.104,
        "velocity": 0.71,
        "hand": "right"
      },
      {
        "midi": 80,
        "time": 173.229,
        "duration": 0.104,
        "velocity": 0.71,
        "hand": "right"
      },
      {
        "midi": 76,
        "time": 173.333,
        "duration": 0.417,
        "velocity": 0.71,
        "hand": "right"
      },
      {
        "midi": 88,
        "time": 173.438,
        "duration": 0.104,
        "velocity": 0.71,
        "hand": "right"
      },
      {
        "midi": 83,
        "time": 173.646,
        "duration": 0.104,
        "velocity": 0.71,
        "hand": "right"
      },
      {
        "midi": 80,
        "time": 173.75,
        "duration": 0.417,
        "velocity": 0.71,
        "hand": "right"
      },
      {
        "midi": 90,
        "time": 173.854,
        "duration": 0.104,
        "velocity": 0.71,
        "hand": "right"
      },
      {
        "midi": 85,
        "time": 174.063,
        "duration": 0.104,
        "velocity": 0.71,
        "hand": "right"
      },
      {
        "midi": 76,
        "time": 174.167,
        "duration": 0.417,
        "velocity": 0.71,
        "hand": "right"
      },
      {
        "midi": 88,
        "time": 174.167,
        "duration": 0.417,
        "velocity": 0.71,
        "hand": "right"
      },
      {
        "midi": 92,
        "time": 174.167,
        "duration": 0.417,
        "velocity": 0.71,
        "hand": "right"
      },
      {
        "midi": 76,
        "time": 174.583,
        "duration": 0.833,
        "velocity": 0.71,
        "hand": "right"
      },
      {
        "midi": 88,
        "time": 174.583,
        "duration": 0.833,
        "velocity": 0.71,
        "hand": "right"
      },
      {
        "midi": 92,
        "time": 174.583,
        "duration": 0.833,
        "velocity": 0.71,
        "hand": "right"
      },
      {
        "midi": 76,
        "time": 175.417,
        "duration": 0.417,
        "velocity": 0.71,
        "hand": "right"
      },
      {
        "midi": 88,
        "time": 175.417,
        "duration": 0.417,
        "velocity": 0.71,
        "hand": "right"
      },
      {
        "midi": 92,
        "time": 175.417,
        "duration": 0.417,
        "velocity": 0.71,
        "hand": "right"
      },
      {
        "midi": 40,
        "time": 175.833,
        "duration": 0.417,
        "velocity": 0.71,
        "hand": "left"
      },
      {
        "midi": 52,
        "time": 175.833,
        "duration": 0.417,
        "velocity": 0.71,
        "hand": "left"
      },
      {
        "midi": 64,
        "time": 175.833,
        "duration": 0.417,
        "velocity": 0.71,
        "hand": "right"
      }
    ],
    "hard": [
      {
        "midi": 61,
        "time": 0,
        "duration": 0.104,
        "velocity": 0.71,
        "hand": "right"
      },
      {
        "midi": 64,
        "time": 0.104,
        "duration": 0.104,
        "velocity": 0.71,
        "hand": "right"
      },
      {
        "midi": 69,
        "time": 0.313,
        "duration": 0.104,
        "velocity": 0.71,
        "hand": "right"
      },
      {
        "midi": 73,
        "time": 0.417,
        "duration": 0.104,
        "velocity": 0.71,
        "hand": "right"
      },
      {
        "midi": 76,
        "time": 0.521,
        "duration": 0.104,
        "velocity": 0.71,
        "hand": "right"
      },
      {
        "midi": 78,
        "time": 0.729,
        "duration": 0.104,
        "velocity": 0.71,
        "hand": "right"
      },
      {
        "midi": 80,
        "time": 0.833,
        "duration": 0.104,
        "velocity": 0.71,
        "hand": "right"
      },
      {
        "midi": 75,
        "time": 0.938,
        "duration": 0.104,
        "velocity": 0.71,
        "hand": "right"
      },
      {
        "midi": 71,
        "time": 1.146,
        "duration": 0.104,
        "velocity": 0.71,
        "hand": "right"
      },
      {
        "midi": 68,
        "time": 1.25,
        "duration": 0.104,
        "velocity": 0.71,
        "hand": "right"
      },
      {
        "midi": 63,
        "time": 1.354,
        "duration": 0.104,
        "velocity": 0.71,
        "hand": "right"
      },
      {
        "midi": 59,
        "time": 1.563,
        "duration": 0.104,
        "velocity": 0.71,
        "hand": "left"
      },
      {
        "midi": 57,
        "time": 1.667,
        "duration": 0.104,
        "velocity": 0.71,
        "hand": "left"
      },
      {
        "midi": 61,
        "time": 1.771,
        "duration": 0.104,
        "velocity": 0.71,
        "hand": "right"
      },
      {
        "midi": 66,
        "time": 1.979,
        "duration": 0.104,
        "velocity": 0.71,
        "hand": "right"
      },
      {
        "midi": 69,
        "time": 2.083,
        "duration": 0.104,
        "velocity": 0.71,
        "hand": "right"
      },
      {
        "midi": 73,
        "time": 2.188,
        "duration": 0.104,
        "velocity": 0.71,
        "hand": "right"
      },
      {
        "midi": 75,
        "time": 2.396,
        "duration": 0.104,
        "velocity": 0.71,
        "hand": "right"
      },
      {
        "midi": 76,
        "time": 2.5,
        "duration": 0.104,
        "velocity": 0.71,
        "hand": "right"
      },
      {
        "midi": 71,
        "time": 2.604,
        "duration": 0.104,
        "velocity": 0.71,
        "hand": "right"
      },
      {
        "midi": 68,
        "time": 2.813,
        "duration": 0.104,
        "velocity": 0.71,
        "hand": "right"
      },
      {
        "midi": 64,
        "time": 2.917,
        "duration": 0.104,
        "velocity": 0.71,
        "hand": "right"
      },
      {
        "midi": 59,
        "time": 3.021,
        "duration": 0.104,
        "velocity": 0.71,
        "hand": "left"
      },
      {
        "midi": 56,
        "time": 3.229,
        "duration": 0.104,
        "velocity": 0.71,
        "hand": "left"
      },
      {
        "midi": 54,
        "time": 3.333,
        "duration": 0.833,
        "velocity": 0.71,
        "hand": "left"
      },
      {
        "midi": 57,
        "time": 3.438,
        "duration": 0.104,
        "velocity": 0.71,
        "hand": "left"
      },
      {
        "midi": 61,
        "time": 3.646,
        "duration": 0.417,
        "velocity": 0.71,
        "hand": "right"
      },
      {
        "midi": 73,
        "time": 3.75,
        "duration": 0.417,
        "velocity": 0.71,
        "hand": "right"
      },
      {
        "midi": 66,
        "time": 3.854,
        "duration": 0.104,
        "velocity": 0.71,
        "hand": "right"
      },
      {
        "midi": 69,
        "time": 4.063,
        "duration": 0.521,
        "velocity": 0.71,
        "hand": "right"
      },
      {
        "midi": 52,
        "time": 4.167,
        "duration": 0.833,
        "velocity": 0.71,
        "hand": "left"
      },
      {
        "midi": 78,
        "time": 4.167,
        "duration": 0.417,
        "velocity": 0.71,
        "hand": "right"
      },
      {
        "midi": 57,
        "time": 4.271,
        "duration": 0.104,
        "velocity": 0.71,
        "hand": "left"
      },
      {
        "midi": 61,
        "time": 4.479,
        "duration": 0.417,
        "velocity": 0.71,
        "hand": "right"
      },
      {
        "midi": 73,
        "time": 4.583,
        "duration": 0.833,
        "velocity": 0.71,
        "hand": "right"
      },
      {
        "midi": 66,
        "time": 4.688,
        "duration": 0.104,
        "velocity": 0.71,
        "hand": "right"
      },
      {
        "midi": 69,
        "time": 4.896,
        "duration": 0.521,
        "velocity": 0.71,
        "hand": "right"
      },
      {
        "midi": 51,
        "time": 5,
        "duration": 0.833,
        "velocity": 0.71,
        "hand": "left"
      },
      {
        "midi": 57,
        "time": 5.104,
        "duration": 0.104,
        "velocity": 0.71,
        "hand": "left"
      },
      {
        "midi": 61,
        "time": 5.313,
        "duration": 0.417,
        "velocity": 0.71,
        "hand": "right"
      },
      {
        "midi": 73,
        "time": 5.417,
        "duration": 0.417,
        "velocity": 0.71,
        "hand": "right"
      },
      {
        "midi": 66,
        "time": 5.521,
        "duration": 0.104,
        "velocity": 0.71,
        "hand": "right"
      },
      {
        "midi": 69,
        "time": 5.729,
        "duration": 0.521,
        "velocity": 0.71,
        "hand": "right"
      },
      {
        "midi": 49,
        "time": 5.833,
        "duration": 0.833,
        "velocity": 0.71,
        "hand": "left"
      },
      {
        "midi": 78,
        "time": 5.833,
        "duration": 0.417,
        "velocity": 0.71,
        "hand": "right"
      },
      {
        "midi": 57,
        "time": 5.938,
        "duration": 0.104,
        "velocity": 0.71,
        "hand": "left"
      },
      {
        "midi": 64,
        "time": 6.146,
        "duration": 0.417,
        "velocity": 0.71,
        "hand": "right"
      },
      {
        "midi": 81,
        "time": 6.25,
        "duration": 0.833,
        "velocity": 0.71,
        "hand": "right"
      },
      {
        "midi": 69,
        "time": 6.354,
        "duration": 0.104,
        "velocity": 0.71,
        "hand": "right"
      },
      {
        "midi": 73,
        "time": 6.563,
        "duration": 0.104,
        "velocity": 0.71,
        "hand": "right"
      },
      {
        "midi": 47,
        "time": 6.667,
        "duration": 0.104,
        "velocity": 0.71,
        "hand": "left"
      },
      {
        "midi": 54,
        "time": 6.771,
        "duration": 0.104,
        "velocity": 0.71,
        "hand": "left"
      },
      {
        "midi": 57,
        "time": 6.979,
        "duration": 0.104,
        "velocity": 0.71,
        "hand": "left"
      },
      {
        "midi": 61,
        "time": 7.083,
        "duration": 0.104,
        "velocity": 0.71,
        "hand": "right"
      },
      {
        "midi": 81,
        "time": 7.083,
        "duration": 0.938,
        "velocity": 0.71,
        "hand": "right"
      },
      {
        "midi": 63,
        "time": 7.188,
        "duration": 0.104,
        "velocity": 0.71,
        "hand": "right"
      },
      {
        "midi": 66,
        "time": 7.396,
        "duration": 0.104,
        "velocity": 0.71,
        "hand": "right"
      },
      {
        "midi": 69,
        "time": 7.5,
        "duration": 0.104,
        "velocity": 0.71,
        "hand": "right"
      },
      {
        "midi": 73,
        "time": 7.604,
        "duration": 0.104,
        "velocity": 0.71,
        "hand": "right"
      },
      {
        "midi": 75,
        "time": 7.813,
        "duration": 0.104,
        "velocity": 0.71,
        "hand": "right"
      },
      {
        "midi": 73,
        "time": 7.917,
        "duration": 0.104,
        "velocity": 0.71,
        "hand": "right"
      },
      {
        "midi": 71,
        "time": 8.021,
        "duration": 0.104,
        "velocity": 0.71,
        "hand": "right"
      },
      {
        "midi": 80,
        "time": 8.021,
        "duration": 0.104,
        "velocity": 0.71,
        "hand": "right"
      },
      {
        "midi": 69,
        "time": 8.229,
        "duration": 0.104,
        "velocity": 0.71,
        "hand": "right"
      },
      {
        "midi": 78,
        "time": 8.229,
        "duration": 0.104,
        "velocity": 0.71,
        "hand": "right"
      },
      {
        "midi": 40,
        "time": 8.333,
        "duration": 0.208,
        "velocity": 0.71,
        "hand": "left"
      },
      {
        "midi": 47,
        "time": 8.542,
        "duration": 0.208,
        "velocity": 0.71,
        "hand": "left"
      },
      {
        "midi": 52,
        "time": 8.75,
        "duration": 0.208,
        "velocity": 0.71,
        "hand": "left"
      },
      {
        "midi": 76,
        "time": 8.75,
        "duration": 0.104,
        "velocity": 0.71,
        "hand": "right"
      },
      {
        "midi": 78,
        "time": 8.854,
        "duration": 0.104,
        "velocity": 0.71,
        "hand": "right"
      },
      {
        "midi": 56,
        "time": 8.958,
        "duration": 0.208,
        "velocity": 0.71,
        "hand": "left"
      },
      {
        "midi": 73,
        "time": 9.063,
        "duration": 0.104,
        "velocity": 0.71,
        "hand": "right"
      },
      {
        "midi": 59,
        "time": 9.167,
        "duration": 0.208,
        "velocity": 0.71,
        "hand": "left"
      },
      {
        "midi": 76,
        "time": 9.167,
        "duration": 0.104,
        "velocity": 0.71,
        "hand": "right"
      },
      {
        "midi": 71,
        "time": 9.271,
        "duration": 0.104,
        "velocity": 0.71,
        "hand": "right"
      },
      {
        "midi": 56,
        "time": 9.375,
        "duration": 0.208,
        "velocity": 0.71,
        "hand": "left"
      },
      {
        "midi": 73,
        "time": 9.479,
        "duration": 0.104,
        "velocity": 0.71,
        "hand": "right"
      },
      {
        "midi": 52,
        "time": 9.583,
        "duration": 0.208,
        "velocity": 0.71,
        "hand": "left"
      },
      {
        "midi": 68,
        "time": 9.583,
        "duration": 0.104,
        "velocity": 0.71,
        "hand": "right"
      },
      {
        "midi": 71,
        "time": 9.688,
        "duration": 0.104,
        "velocity": 0.71,
        "hand": "right"
      },
      {
        "midi": 47,
        "time": 9.792,
        "duration": 0.208,
        "velocity": 0.71,
        "hand": "left"
      },
      {
        "midi": 66,
        "time": 9.896,
        "duration": 0.104,
        "velocity": 0.71,
        "hand": "right"
      },
      {
        "midi": 40,
        "time": 10,
        "duration": 0.208,
        "velocity": 0.71,
        "hand": "left"
      },
      {
        "midi": 68,
        "time": 10,
        "duration": 0.104,
        "velocity": 0.71,
        "hand": "right"
      },
      {
        "midi": 64,
        "time": 10.104,
        "duration": 0.104,
        "velocity": 0.71,
        "hand": "right"
      },
      {
        "midi": 49,
        "time": 10.208,
        "duration": 0.208,
        "velocity": 0.71,
        "hand": "left"
      },
      {
        "midi": 68,
        "time": 10.313,
        "duration": 0.104,
        "velocity": 0.71,
        "hand": "right"
      },
      {
        "midi": 52,
        "time": 10.417,
        "duration": 0.208,
        "velocity": 0.71,
        "hand": "left"
      },
      {
        "midi": 63,
        "time": 10.417,
        "duration": 0.833,
        "velocity": 0.71,
        "hand": "right"
      },
      {
        "midi": 56,
        "time": 10.625,
        "duration": 0.208,
        "velocity": 0.71,
        "hand": "left"
      },
      {
        "midi": 61,
        "time": 10.833,
        "duration": 0.208,
        "velocity": 0.71,
        "hand": "right"
      },
      {
        "midi": 56,
        "time": 11.042,
        "duration": 0.208,
        "velocity": 0.71,
        "hand": "left"
      },
      {
        "midi": 52,
        "time": 11.25,
        "duration": 0.208,
        "velocity": 0.71,
        "hand": "left"
      },
      {
        "midi": 61,
        "time": 11.25,
        "duration": 0.417,
        "velocity": 0.71,
        "hand": "right"
      },
      {
        "midi": 47,
        "time": 11.458,
        "duration": 0.208,
        "velocity": 0.71,
        "hand": "left"
      },
      {
        "midi": 40,
        "time": 11.667,
        "duration": 0.208,
        "velocity": 0.71,
        "hand": "left"
      },
      {
        "midi": 59,
        "time": 11.667,
        "duration": 0.208,
        "velocity": 0.71,
        "hand": "left"
      },
      {
        "midi": 47,
        "time": 11.875,
        "duration": 0.208,
        "velocity": 0.71,
        "hand": "left"
      },
      {
        "midi": 52,
        "time": 12.083,
        "duration": 0.208,
        "velocity": 0.71,
        "hand": "left"
      },
      {
        "midi": 76,
        "time": 12.083,
        "duration": 0.104,
        "velocity": 0.71,
        "hand": "right"
      },
      {
        "midi": 78,
        "time": 12.188,
        "duration": 0.104,
        "velocity": 0.71,
        "hand": "right"
      },
      {
        "midi": 56,
        "time": 12.292,
        "duration": 0.208,
        "velocity": 0.71,
        "hand": "left"
      },
      {
        "midi": 73,
        "time": 12.396,
        "duration": 0.104,
        "velocity": 0.71,
        "hand": "right"
      },
      {
        "midi": 59,
        "time": 12.5,
        "duration": 0.208,
        "velocity": 0.71,
        "hand": "left"
      },
      {
        "midi": 76,
        "time": 12.5,
        "duration": 0.104,
        "velocity": 0.71,
        "hand": "right"
      },
      {
        "midi": 71,
        "time": 12.604,
        "duration": 0.104,
        "velocity": 0.71,
        "hand": "right"
      },
      {
        "midi": 56,
        "time": 12.708,
        "duration": 0.208,
        "velocity": 0.71,
        "hand": "left"
      },
      {
        "midi": 73,
        "time": 12.813,
        "duration": 0.104,
        "velocity": 0.71,
        "hand": "right"
      },
      {
        "midi": 52,
        "time": 12.917,
        "duration": 0.208,
        "velocity": 0.71,
        "hand": "left"
      },
      {
        "midi": 68,
        "time": 12.917,
        "duration": 0.104,
        "velocity": 0.71,
        "hand": "right"
      },
      {
        "midi": 71,
        "time": 13.021,
        "duration": 0.104,
        "velocity": 0.71,
        "hand": "right"
      },
      {
        "midi": 47,
        "time": 13.125,
        "duration": 0.208,
        "velocity": 0.71,
        "hand": "left"
      },
      {
        "midi": 66,
        "time": 13.229,
        "duration": 0.104,
        "velocity": 0.71,
        "hand": "right"
      },
      {
        "midi": 40,
        "time": 13.333,
        "duration": 0.208,
        "velocity": 0.71,
        "hand": "left"
      },
      {
        "midi": 68,
        "time": 13.333,
        "duration": 0.104,
        "velocity": 0.71,
        "hand": "right"
      },
      {
        "midi": 64,
        "time": 13.438,
        "duration": 0.104,
        "velocity": 0.71,
        "hand": "right"
      },
      {
        "midi": 49,
        "time": 13.542,
        "duration": 0.208,
        "velocity": 0.71,
        "hand": "left"
      },
      {
        "midi": 68,
        "time": 13.646,
        "duration": 0.104,
        "velocity": 0.71,
        "hand": "right"
      },
      {
        "midi": 52,
        "time": 13.75,
        "duration": 0.208,
        "velocity": 0.71,
        "hand": "left"
      },
      {
        "midi": 63,
        "time": 13.75,
        "duration": 0.833,
        "velocity": 0.71,
        "hand": "right"
      },
      {
        "midi": 56,
        "time": 13.958,
        "duration": 0.208,
        "velocity": 0.71,
        "hand": "left"
      },
      {
        "midi": 61,
        "time": 14.167,
        "duration": 0.208,
        "velocity": 0.71,
        "hand": "right"
      },
      {
        "midi": 56,
        "time": 14.375,
        "duration": 0.208,
        "velocity": 0.71,
        "hand": "left"
      },
      {
        "midi": 52,
        "time": 14.583,
        "duration": 0.208,
        "velocity": 0.71,
        "hand": "left"
      },
      {
        "midi": 61,
        "time": 14.583,
        "duration": 0.417,
        "velocity": 0.71,
        "hand": "right"
      },
      {
        "midi": 47,
        "time": 14.792,
        "duration": 0.208,
        "velocity": 0.71,
        "hand": "left"
      },
      {
        "midi": 42,
        "time": 15,
        "duration": 0.208,
        "velocity": 0.71,
        "hand": "left"
      },
      {
        "midi": 59,
        "time": 15,
        "duration": 0.104,
        "velocity": 0.71,
        "hand": "left"
      },
      {
        "midi": 57,
        "time": 15.104,
        "duration": 0.104,
        "velocity": 0.71,
        "hand": "left"
      },
      {
        "midi": 49,
        "time": 15.208,
        "duration": 0.208,
        "velocity": 0.71,
        "hand": "left"
      },
      {
        "midi": 59,
        "time": 15.313,
        "duration": 0.104,
        "velocity": 0.71,
        "hand": "left"
      },
      {
        "midi": 52,
        "time": 15.417,
        "duration": 0.208,
        "velocity": 0.71,
        "hand": "left"
      },
      {
        "midi": 61,
        "time": 15.417,
        "duration": 0.625,
        "velocity": 0.71,
        "hand": "right"
      },
      {
        "midi": 54,
        "time": 15.625,
        "duration": 0.208,
        "velocity": 0.71,
        "hand": "left"
      },
      {
        "midi": 57,
        "time": 15.833,
        "duration": 0.208,
        "velocity": 0.71,
        "hand": "left"
      },
      {
        "midi": 54,
        "time": 16.042,
        "duration": 0.208,
        "velocity": 0.71,
        "hand": "left"
      },
      {
        "midi": 64,
        "time": 16.042,
        "duration": 0.208,
        "velocity": 0.71,
        "hand": "right"
      },
      {
        "midi": 52,
        "time": 16.25,
        "duration": 0.208,
        "velocity": 0.71,
        "hand": "left"
      },
      {
        "midi": 63,
        "time": 16.25,
        "duration": 0.208,
        "velocity": 0.71,
        "hand": "right"
      },
      {
        "midi": 49,
        "time": 16.458,
        "duration": 0.208,
        "velocity": 0.71,
        "hand": "left"
      },
      {
        "midi": 64,
        "time": 16.458,
        "duration": 0.208,
        "velocity": 0.71,
        "hand": "right"
      },
      {
        "midi": 44,
        "time": 16.667,
        "duration": 0.208,
        "velocity": 0.71,
        "hand": "left"
      },
      {
        "midi": 61,
        "time": 16.667,
        "duration": 0.417,
        "velocity": 0.71,
        "hand": "right"
      },
      {
        "midi": 49,
        "time": 16.875,
        "duration": 0.208,
        "velocity": 0.71,
        "hand": "left"
      },
      {
        "midi": 52,
        "time": 17.083,
        "duration": 0.208,
        "velocity": 0.71,
        "hand": "left"
      },
      {
        "midi": 68,
        "time": 17.083,
        "duration": 0.833,
        "velocity": 0.71,
        "hand": "right"
      },
      {
        "midi": 56,
        "time": 17.292,
        "duration": 0.208,
        "velocity": 0.71,
        "hand": "left"
      },
      {
        "midi": 59,
        "time": 17.5,
        "duration": 0.208,
        "velocity": 0.71,
        "hand": "left"
      },
      {
        "midi": 56,
        "time": 17.708,
        "duration": 0.208,
        "velocity": 0.71,
        "hand": "left"
      },
      {
        "midi": 52,
        "time": 17.917,
        "duration": 0.208,
        "velocity": 0.71,
        "hand": "left"
      },
      {
        "midi": 64,
        "time": 17.917,
        "duration": 0.417,
        "velocity": 0.71,
        "hand": "right"
      },
      {
        "midi": 49,
        "time": 18.125,
        "duration": 0.208,
        "velocity": 0.71,
        "hand": "left"
      },
      {
        "midi": 45,
        "time": 18.333,
        "duration": 0.208,
        "velocity": 0.71,
        "hand": "left"
      },
      {
        "midi": 63,
        "time": 18.333,
        "duration": 0.104,
        "velocity": 0.71,
        "hand": "right"
      },
      {
        "midi": 61,
        "time": 18.438,
        "duration": 0.104,
        "velocity": 0.71,
        "hand": "right"
      },
      {
        "midi": 52,
        "time": 18.542,
        "duration": 0.208,
        "velocity": 0.71,
        "hand": "left"
      },
      {
        "midi": 63,
        "time": 18.646,
        "duration": 0.104,
        "velocity": 0.71,
        "hand": "right"
      },
      {
        "midi": 54,
        "time": 18.75,
        "duration": 0.208,
        "velocity": 0.71,
        "hand": "left"
      },
      {
        "midi": 64,
        "time": 18.75,
        "duration": 0.625,
        "velocity": 0.71,
        "hand": "right"
      },
      {
        "midi": 57,
        "time": 18.958,
        "duration": 0.208,
        "velocity": 0.71,
        "hand": "left"
      },
      {
        "midi": 61,
        "time": 19.167,
        "duration": 0.208,
        "velocity": 0.71,
        "hand": "right"
      },
      {
        "midi": 57,
        "time": 19.375,
        "duration": 0.208,
        "velocity": 0.71,
        "hand": "left"
      },
      {
        "midi": 68,
        "time": 19.375,
        "duration": 0.208,
        "velocity": 0.71,
        "hand": "right"
      },
      {
        "midi": 54,
        "time": 19.583,
        "duration": 0.208,
        "velocity": 0.71,
        "hand": "left"
      },
      {
        "midi": 66,
        "time": 19.583,
        "duration": 0.208,
        "velocity": 0.71,
        "hand": "right"
      },
      {
        "midi": 52,
        "time": 19.792,
        "duration": 0.208,
        "velocity": 0.71,
        "hand": "left"
      },
      {
        "midi": 68,
        "time": 19.792,
        "duration": 0.208,
        "velocity": 0.71,
        "hand": "right"
      },
      {
        "midi": 46,
        "time": 20,
        "duration": 0.208,
        "velocity": 0.71,
        "hand": "left"
      },
      {
        "midi": 64,
        "time": 20,
        "duration": 0.417,
        "velocity": 0.71,
        "hand": "right"
      },
      {
        "midi": 52,
        "time": 20.208,
        "duration": 0.208,
        "velocity": 0.71,
        "hand": "left"
      },
      {
        "midi": 56,
        "time": 20.417,
        "duration": 0.208,
        "velocity": 0.71,
        "hand": "left"
      },
      {
        "midi": 73,
        "time": 20.417,
        "duration": 0.833,
        "velocity": 0.71,
        "hand": "right"
      },
      {
        "midi": 61,
        "time": 20.625,
        "duration": 0.208,
        "velocity": 0.71,
        "hand": "right"
      },
      {
        "midi": 49,
        "time": 20.833,
        "duration": 0.208,
        "velocity": 0.71,
        "hand": "left"
      },
      {
        "midi": 54,
        "time": 21.042,
        "duration": 0.208,
        "velocity": 0.71,
        "hand": "left"
      },
      {
        "midi": 58,
        "time": 21.25,
        "duration": 0.208,
        "velocity": 0.71,
        "hand": "left"
      },
      {
        "midi": 70,
        "time": 21.25,
        "duration": 0.104,
        "velocity": 0.71,
        "hand": "right"
      },
      {
        "midi": 73,
        "time": 21.354,
        "duration": 0.104,
        "velocity": 0.71,
        "hand": "right"
      },
      {
        "midi": 64,
        "time": 21.458,
        "duration": 0.208,
        "velocity": 0.71,
        "hand": "right"
      },
      {
        "midi": 70,
        "time": 21.563,
        "duration": 0.104,
        "velocity": 0.71,
        "hand": "right"
      },
      {
        "midi": 52,
        "time": 21.667,
        "duration": 0.208,
        "velocity": 0.71,
        "hand": "left"
      },
      {
        "midi": 68,
        "time": 21.667,
        "duration": 0.417,
        "velocity": 0.71,
        "hand": "right"
      },
      {
        "midi": 58,
        "time": 21.875,
        "duration": 0.208,
        "velocity": 0.71,
        "hand": "left"
      },
      {
        "midi": 61,
        "time": 22.083,
        "duration": 0.208,
        "velocity": 0.71,
        "hand": "right"
      },
      {
        "midi": 76,
        "time": 22.083,
        "duration": 0.833,
        "velocity": 0.71,
        "hand": "right"
      },
      {
        "midi": 68,
        "time": 22.292,
        "duration": 0.208,
        "velocity": 0.71,
        "hand": "right"
      },
      {
        "midi": 54,
        "time": 22.5,
        "duration": 0.208,
        "velocity": 0.71,
        "hand": "left"
      },
      {
        "midi": 61,
        "time": 22.708,
        "duration": 0.208,
        "velocity": 0.71,
        "hand": "right"
      },
      {
        "midi": 64,
        "time": 22.917,
        "duration": 0.208,
        "velocity": 0.71,
        "hand": "right"
      },
      {
        "midi": 73,
        "time": 22.917,
        "duration": 0.104,
        "velocity": 0.71,
        "hand": "right"
      },
      {
        "midi": 76,
        "time": 23.021,
        "duration": 0.104,
        "velocity": 0.71,
        "hand": "right"
      },
      {
        "midi": 70,
        "time": 23.125,
        "duration": 0.208,
        "velocity": 0.71,
        "hand": "right"
      },
      {
        "midi": 73,
        "time": 23.229,
        "duration": 0.104,
        "velocity": 0.71,
        "hand": "right"
      },
      {
        "midi": 58,
        "time": 23.333,
        "duration": 0.208,
        "velocity": 0.71,
        "hand": "left"
      },
      {
        "midi": 80,
        "time": 23.333,
        "duration": 0.625,
        "velocity": 0.71,
        "hand": "right"
      },
      {
        "midi": 64,
        "time": 23.542,
        "duration": 0.208,
        "velocity": 0.71,
        "hand": "right"
      },
      {
        "midi": 68,
        "time": 23.75,
        "duration": 0.208,
        "velocity": 0.71,
        "hand": "right"
      },
      {
        "midi": 73,
        "time": 23.958,
        "duration": 0.208,
        "velocity": 0.71,
        "hand": "right"
      },
      {
        "midi": 78,
        "time": 23.958,
        "duration": 0.208,
        "velocity": 0.71,
        "hand": "right"
      },
      {
        "midi": 61,
        "time": 24.167,
        "duration": 0.208,
        "velocity": 0.71,
        "hand": "right"
      },
      {
        "midi": 80,
        "time": 24.167,
        "duration": 0.625,
        "velocity": 0.71,
        "hand": "right"
      },
      {
        "midi": 66,
        "time": 24.375,
        "duration": 0.208,
        "velocity": 0.71,
        "hand": "right"
      },
      {
        "midi": 70,
        "time": 24.583,
        "duration": 0.208,
        "velocity": 0.71,
        "hand": "right"
      },
      {
        "midi": 76,
        "time": 24.792,
        "duration": 0.208,
        "velocity": 0.71,
        "hand": "right"
      },
      {
        "midi": 78,
        "time": 24.792,
        "duration": 0.208,
        "velocity": 0.71,
        "hand": "right"
      },
      {
        "midi": 58,
        "time": 25,
        "duration": 0.208,
        "velocity": 0.71,
        "hand": "left"
      },
      {
        "midi": 80,
        "time": 25,
        "duration": 0.625,
        "velocity": 0.71,
        "hand": "right"
      },
      {
        "midi": 64,
        "time": 25.208,
        "duration": 0.208,
        "velocity": 0.71,
        "hand": "right"
      },
      {
        "midi": 68,
        "time": 25.417,
        "duration": 0.208,
        "velocity": 0.71,
        "hand": "right"
      },
      {
        "midi": 73,
        "time": 25.625,
        "duration": 0.208,
        "velocity": 0.71,
        "hand": "right"
      },
      {
        "midi": 78,
        "time": 25.625,
        "duration": 0.208,
        "velocity": 0.71,
        "hand": "right"
      },
      {
        "midi": 61,
        "time": 25.833,
        "duration": 0.208,
        "velocity": 0.71,
        "hand": "right"
      },
      {
        "midi": 80,
        "time": 25.833,
        "duration": 0.208,
        "velocity": 0.71,
        "hand": "right"
      },
      {
        "midi": 66,
        "time": 26.042,
        "duration": 0.208,
        "velocity": 0.71,
        "hand": "right"
      },
      {
        "midi": 78,
        "time": 26.042,
        "duration": 0.417,
        "velocity": 0.71,
        "hand": "right"
      },
      {
        "midi": 70,
        "time": 26.25,
        "duration": 0.208,
        "velocity": 0.71,
        "hand": "right"
      },
      {
        "midi": 76,
        "time": 26.458,
        "duration": 0.208,
        "velocity": 0.71,
        "hand": "right"
      },
      {
        "midi": 80,
        "time": 26.458,
        "duration": 0.208,
        "velocity": 0.71,
        "hand": "right"
      },
      {
        "midi": 61,
        "time": 26.667,
        "duration": 0.104,
        "velocity": 0.71,
        "hand": "right"
      },
      {
        "midi": 81,
        "time": 26.667,
        "duration": 0.833,
        "velocity": 0.71,
        "hand": "right"
      },
      {
        "midi": 64,
        "time": 26.771,
        "duration": 0.104,
        "velocity": 0.71,
        "hand": "right"
      },
      {
        "midi": 69,
        "time": 26.979,
        "duration": 0.104,
        "velocity": 0.71,
        "hand": "right"
      },
      {
        "midi": 73,
        "time": 27.083,
        "duration": 0.104,
        "velocity": 0.71,
        "hand": "right"
      },
      {
        "midi": 76,
        "time": 27.188,
        "duration": 0.104,
        "velocity": 0.71,
        "hand": "right"
      },
      {
        "midi": 78,
        "time": 27.396,
        "duration": 0.104,
        "velocity": 0.71,
        "hand": "right"
      },
      {
        "midi": 80,
        "time": 27.5,
        "duration": 0.833,
        "velocity": 0.71,
        "hand": "right"
      },
      {
        "midi": 75,
        "time": 27.604,
        "duration": 0.104,
        "velocity": 0.71,
        "hand": "right"
      },
      {
        "midi": 71,
        "time": 27.813,
        "duration": 0.104,
        "velocity": 0.71,
        "hand": "right"
      },
      {
        "midi": 68,
        "time": 27.917,
        "duration": 0.104,
        "velocity": 0.71,
        "hand": "right"
      },
      {
        "midi": 63,
        "time": 28.021,
        "duration": 0.104,
        "velocity": 0.71,
        "hand": "right"
      },
      {
        "midi": 59,
        "time": 28.229,
        "duration": 0.104,
        "velocity": 0.71,
        "hand": "left"
      },
      {
        "midi": 57,
        "time": 28.333,
        "duration": 0.104,
        "velocity": 0.71,
        "hand": "left"
      },
      {
        "midi": 78,
        "time": 28.333,
        "duration": 0.833,
        "velocity": 0.71,
        "hand": "right"
      },
      {
        "midi": 61,
        "time": 28.438,
        "duration": 0.104,
        "velocity": 0.71,
        "hand": "right"
      },
      {
        "midi": 66,
        "time": 28.646,
        "duration": 0.104,
        "velocity": 0.71,
        "hand": "right"
      },
      {
        "midi": 69,
        "time": 28.75,
        "duration": 0.104,
        "velocity": 0.71,
        "hand": "right"
      },
      {
        "midi": 73,
        "time": 28.854,
        "duration": 0.104,
        "velocity": 0.71,
        "hand": "right"
      },
      {
        "midi": 75,
        "time": 29.063,
        "duration": 0.104,
        "velocity": 0.71,
        "hand": "right"
      },
      {
        "midi": 76,
        "time": 29.167,
        "duration": 0.833,
        "velocity": 0.71,
        "hand": "right"
      },
      {
        "midi": 71,
        "time": 29.271,
        "duration": 0.104,
        "velocity": 0.71,
        "hand": "right"
      },
      {
        "midi": 68,
        "time": 29.479,
        "duration": 0.104,
        "velocity": 0.71,
        "hand": "right"
      },
      {
        "midi": 64,
        "time": 29.583,
        "duration": 0.104,
        "velocity": 0.71,
        "hand": "right"
      },
      {
        "midi": 59,
        "time": 29.688,
        "duration": 0.104,
        "velocity": 0.71,
        "hand": "left"
      },
      {
        "midi": 56,
        "time": 29.896,
        "duration": 0.104,
        "velocity": 0.71,
        "hand": "left"
      },
      {
        "midi": 55,
        "time": 30,
        "duration": 0.104,
        "velocity": 0.71,
        "hand": "left"
      },
      {
        "midi": 75,
        "time": 30,
        "duration": 0.833,
        "velocity": 0.71,
        "hand": "right"
      },
      {
        "midi": 61,
        "time": 30.104,
        "duration": 0.104,
        "velocity": 0.71,
        "hand": "right"
      },
      {
        "midi": 63,
        "time": 30.313,
        "duration": 0.104,
        "velocity": 0.71,
        "hand": "right"
      },
      {
        "midi": 70,
        "time": 30.417,
        "duration": 0.104,
        "velocity": 0.71,
        "hand": "right"
      },
      {
        "midi": 63,
        "time": 30.521,
        "duration": 0.104,
        "velocity": 0.71,
        "hand": "right"
      },
      {
        "midi": 61,
        "time": 30.729,
        "duration": 0.104,
        "velocity": 0.71,
        "hand": "right"
      },
      {
        "midi": 56,
        "time": 30.833,
        "duration": 0.104,
        "velocity": 0.71,
        "hand": "left"
      },
      {
        "midi": 76,
        "time": 30.833,
        "duration": 0.417,
        "velocity": 0.71,
        "hand": "right"
      },
      {
        "midi": 61,
        "time": 30.938,
        "duration": 0.104,
        "velocity": 0.71,
        "hand": "right"
      },
      {
        "midi": 64,
        "time": 31.146,
        "duration": 0.104,
        "velocity": 0.71,
        "hand": "right"
      },
      {
        "midi": 71,
        "time": 31.25,
        "duration": 0.104,
        "velocity": 0.71,
        "hand": "right"
      },
      {
        "midi": 80,
        "time": 31.25,
        "duration": 0.208,
        "velocity": 0.71,
        "hand": "right"
      },
      {
        "midi": 64,
        "time": 31.354,
        "duration": 0.104,
        "velocity": 0.71,
        "hand": "right"
      },
      {
        "midi": 83,
        "time": 31.458,
        "duration": 0.208,
        "velocity": 0.71,
        "hand": "right"
      },
      {
        "midi": 61,
        "time": 31.563,
        "duration": 0.104,
        "velocity": 0.71,
        "hand": "right"
      },
      {
        "midi": 55,
        "time": 31.667,
        "duration": 0.104,
        "velocity": 0.71,
        "hand": "left"
      },
      {
        "midi": 75,
        "time": 31.667,
        "duration": 1.042,
        "velocity": 0.71,
        "hand": "right"
      },
      {
        "midi": 61,
        "time": 31.771,
        "duration": 0.104,
        "velocity": 0.71,
        "hand": "right"
      },
      {
        "midi": 63,
        "time": 31.979,
        "duration": 0.104,
        "velocity": 0.71,
        "hand": "right"
      },
      {
        "midi": 70,
        "time": 32.083,
        "duration": 0.104,
        "velocity": 0.71,
        "hand": "right"
      },
      {
        "midi": 63,
        "time": 32.188,
        "duration": 0.104,
        "velocity": 0.71,
        "hand": "right"
      },
      {
        "midi": 61,
        "time": 32.396,
        "duration": 0.104,
        "velocity": 0.71,
        "hand": "right"
      },
      {
        "midi": 52,
        "time": 32.5,
        "duration": 0.104,
        "velocity": 0.71,
        "hand": "left"
      },
      {
        "midi": 57,
        "time": 32.604,
        "duration": 0.104,
        "velocity": 0.71,
        "hand": "left"
      },
      {
        "midi": 73,
        "time": 32.708,
        "duration": 0.208,
        "velocity": 0.71,
        "hand": "right"
      },
      {
        "midi": 61,
        "time": 32.813,
        "duration": 0.104,
        "velocity": 0.71,
        "hand": "right"
      },
      {
        "midi": 68,
        "time": 32.917,
        "duration": 0.104,
        "velocity": 0.71,
        "hand": "right"
      },
      {
        "midi": 76,
        "time": 32.917,
        "duration": 0.208,
        "velocity": 0.71,
        "hand": "right"
      },
      {
        "midi": 61,
        "time": 33.021,
        "duration": 0.104,
        "velocity": 0.71,
        "hand": "right"
      },
      {
        "midi": 80,
        "time": 33.125,
        "duration": 0.208,
        "velocity": 0.71,
        "hand": "right"
      },
      {
        "midi": 57,
        "time": 33.229,
        "duration": 0.104,
        "velocity": 0.71,
        "hand": "left"
      },
      {
        "midi": 51,
        "time": 33.333,
        "duration": 0.104,
        "velocity": 0.71,
        "hand": "left"
      },
      {
        "midi": 71,
        "time": 33.333,
        "duration": 1.042,
        "velocity": 0.71,
        "hand": "right"
      },
      {
        "midi": 57,
        "time": 33.438,
        "duration": 0.104,
        "velocity": 0.71,
        "hand": "left"
      },
      {
        "midi": 59,
        "time": 33.646,
        "duration": 0.104,
        "velocity": 0.71,
        "hand": "left"
      },
      {
        "midi": 66,
        "time": 33.75,
        "duration": 0.104,
        "velocity": 0.71,
        "hand": "right"
      },
      {
        "midi": 59,
        "time": 33.854,
        "duration": 0.104,
        "velocity": 0.71,
        "hand": "left"
      },
      {
        "midi": 57,
        "time": 34.063,
        "duration": 0.104,
        "velocity": 0.71,
        "hand": "left"
      },
      {
        "midi": 49,
        "time": 34.167,
        "duration": 0.104,
        "velocity": 0.71,
        "hand": "left"
      },
      {
        "midi": 54,
        "time": 34.271,
        "duration": 0.104,
        "velocity": 0.71,
        "hand": "left"
      },
      {
        "midi": 69,
        "time": 34.375,
        "duration": 0.208,
        "velocity": 0.71,
        "hand": "right"
      },
      {
        "midi": 57,
        "time": 34.479,
        "duration": 0.104,
        "velocity": 0.71,
        "hand": "left"
      },
      {
        "midi": 64,
        "time": 34.583,
        "duration": 0.104,
        "velocity": 0.71,
        "hand": "right"
      },
      {
        "midi": 73,
        "time": 34.583,
        "duration": 0.208,
        "velocity": 0.71,
        "hand": "right"
      },
      {
        "midi": 57,
        "time": 34.688,
        "duration": 0.104,
        "velocity": 0.71,
        "hand": "left"
      },
      {
        "midi": 76,
        "time": 34.792,
        "duration": 0.208,
        "velocity": 0.71,
        "hand": "right"
      },
      {
        "midi": 54,
        "time": 34.896,
        "duration": 0.104,
        "velocity": 0.71,
        "hand": "left"
      },
      {
        "midi": 48,
        "time": 35,
        "duration": 0.104,
        "velocity": 0.71,
        "hand": "left"
      },
      {
        "midi": 68,
        "time": 35,
        "duration": 0.833,
        "velocity": 0.71,
        "hand": "right"
      },
      {
        "midi": 54,
        "time": 35.104,
        "duration": 0.104,
        "velocity": 0.71,
        "hand": "left"
      },
      {
        "midi": 56,
        "time": 35.313,
        "duration": 0.104,
        "velocity": 0.71,
        "hand": "left"
      },
      {
        "midi": 63,
        "time": 35.417,
        "duration": 0.104,
        "velocity": 0.71,
        "hand": "right"
      },
      {
        "midi": 56,
        "time": 35.521,
        "duration": 0.104,
        "velocity": 0.71,
        "hand": "left"
      },
      {
        "midi": 54,
        "time": 35.729,
        "duration": 0.104,
        "velocity": 0.71,
        "hand": "left"
      },
      {
        "midi": 49,
        "time": 35.833,
        "duration": 0.104,
        "velocity": 0.71,
        "hand": "left"
      },
      {
        "midi": 54,
        "time": 35.938,
        "duration": 0.104,
        "velocity": 0.71,
        "hand": "left"
      },
      {
        "midi": 69,
        "time": 35.938,
        "duration": 0.104,
        "velocity": 0.71,
        "hand": "right"
      },
      {
        "midi": 57,
        "time": 36.146,
        "duration": 0.104,
        "velocity": 0.71,
        "hand": "left"
      },
      {
        "midi": 73,
        "time": 36.146,
        "duration": 0.104,
        "velocity": 0.71,
        "hand": "right"
      },
      {
        "midi": 64,
        "time": 36.25,
        "duration": 0.104,
        "velocity": 0.71,
        "hand": "right"
      },
      {
        "midi": 76,
        "time": 36.25,
        "duration": 0.104,
        "velocity": 0.71,
        "hand": "right"
      },
      {
        "midi": 57,
        "time": 36.354,
        "duration": 0.104,
        "velocity": 0.71,
        "hand": "left"
      },
      {
        "midi": 80,
        "time": 36.354,
        "duration": 0.104,
        "velocity": 0.71,
        "hand": "right"
      },
      {
        "midi": 54,
        "time": 36.563,
        "duration": 0.104,
        "velocity": 0.71,
        "hand": "left"
      },
      {
        "midi": 78,
        "time": 36.563,
        "duration": 0.104,
        "velocity": 0.71,
        "hand": "right"
      },
      {
        "midi": 48,
        "time": 36.667,
        "duration": 0.104,
        "velocity": 0.71,
        "hand": "left"
      },
      {
        "midi": 75,
        "time": 36.667,
        "duration": 0.417,
        "velocity": 0.71,
        "hand": "right"
      },
      {
        "midi": 54,
        "time": 36.771,
        "duration": 0.104,
        "velocity": 0.71,
        "hand": "left"
      },
      {
        "midi": 56,
        "time": 36.979,
        "duration": 0.104,
        "velocity": 0.71,
        "hand": "left"
      },
      {
        "midi": 63,
        "time": 37.083,
        "duration": 0.104,
        "velocity": 0.71,
        "hand": "right"
      },
      {
        "midi": 68,
        "time": 37.083,
        "duration": 0.417,
        "velocity": 0.71,
        "hand": "right"
      },
      {
        "midi": 56,
        "time": 37.188,
        "duration": 0.104,
        "velocity": 0.71,
        "hand": "left"
      },
      {
        "midi": 54,
        "time": 37.396,
        "duration": 0.104,
        "velocity": 0.71,
        "hand": "left"
      },
      {
        "midi": 47,
        "time": 37.5,
        "duration": 0.104,
        "velocity": 0.71,
        "hand": "left"
      },
      {
        "midi": 54,
        "time": 37.604,
        "duration": 0.104,
        "velocity": 0.71,
        "hand": "left"
      },
      {
        "midi": 66,
        "time": 37.708,
        "duration": 0.208,
        "velocity": 0.71,
        "hand": "right"
      },
      {
        "midi": 57,
        "time": 37.813,
        "duration": 0.104,
        "velocity": 0.71,
        "hand": "left"
      },
      {
        "midi": 62,
        "time": 37.917,
        "duration": 0.104,
        "velocity": 0.71,
        "hand": "right"
      },
      {
        "midi": 69,
        "time": 37.917,
        "duration": 0.208,
        "velocity": 0.71,
        "hand": "right"
      },
      {
        "midi": 57,
        "time": 38.021,
        "duration": 0.104,
        "velocity": 0.71,
        "hand": "left"
      },
      {
        "midi": 73,
        "time": 38.125,
        "duration": 0.208,
        "velocity": 0.71,
        "hand": "right"
      },
      {
        "midi": 54,
        "time": 38.229,
        "duration": 0.104,
        "velocity": 0.71,
        "hand": "left"
      },
      {
        "midi": 47,
        "time": 38.333,
        "duration": 0.104,
        "velocity": 0.71,
        "hand": "left"
      },
      {
        "midi": 64,
        "time": 38.333,
        "duration": 0.833,
        "velocity": 0.71,
        "hand": "right"
      },
      {
        "midi": 52,
        "time": 38.438,
        "duration": 0.104,
        "velocity": 0.71,
        "hand": "left"
      },
      {
        "midi": 56,
        "time": 38.646,
        "duration": 0.104,
        "velocity": 0.71,
        "hand": "left"
      },
      {
        "midi": 62,
        "time": 38.75,
        "duration": 0.104,
        "velocity": 0.71,
        "hand": "right"
      },
      {
        "midi": 56,
        "time": 38.854,
        "duration": 0.104,
        "velocity": 0.71,
        "hand": "left"
      },
      {
        "midi": 52,
        "time": 39.063,
        "duration": 0.104,
        "velocity": 0.71,
        "hand": "left"
      },
      {
        "midi": 47,
        "time": 39.167,
        "duration": 0.104,
        "velocity": 0.71,
        "hand": "left"
      },
      {
        "midi": 54,
        "time": 39.271,
        "duration": 0.104,
        "velocity": 0.71,
        "hand": "left"
      },
      {
        "midi": 66,
        "time": 39.271,
        "duration": 0.104,
        "velocity": 0.71,
        "hand": "right"
      },
      {
        "midi": 57,
        "time": 39.479,
        "duration": 0.104,
        "velocity": 0.71,
        "hand": "left"
      },
      {
        "midi": 69,
        "time": 39.479,
        "duration": 0.104,
        "velocity": 0.71,
        "hand": "right"
      },
      {
        "midi": 62,
        "time": 39.583,
        "duration": 0.104,
        "velocity": 0.71,
        "hand": "right"
      },
      {
        "midi": 73,
        "time": 39.583,
        "duration": 0.104,
        "velocity": 0.71,
        "hand": "right"
      },
      {
        "midi": 57,
        "time": 39.688,
        "duration": 0.104,
        "velocity": 0.71,
        "hand": "left"
      },
      {
        "midi": 76,
        "time": 39.688,
        "duration": 0.104,
        "velocity": 0.71,
        "hand": "right"
      },
      {
        "midi": 54,
        "time": 39.896,
        "duration": 0.104,
        "velocity": 0.71,
        "hand": "left"
      },
      {
        "midi": 74,
        "time": 39.896,
        "duration": 0.104,
        "velocity": 0.71,
        "hand": "right"
      },
      {
        "midi": 47,
        "time": 40,
        "duration": 0.104,
        "velocity": 0.71,
        "hand": "left"
      },
      {
        "midi": 68,
        "time": 40,
        "duration": 0.417,
        "velocity": 0.71,
        "hand": "right"
      },
      {
        "midi": 52,
        "time": 40.104,
        "duration": 0.104,
        "velocity": 0.71,
        "hand": "left"
      },
      {
        "midi": 56,
        "time": 40.313,
        "duration": 0.104,
        "velocity": 0.71,
        "hand": "left"
      },
      {
        "midi": 62,
        "time": 40.417,
        "duration": 0.104,
        "velocity": 0.71,
        "hand": "right"
      },
      {
        "midi": 66,
        "time": 40.417,
        "duration": 0.833,
        "velocity": 0.71,
        "hand": "right"
      },
      {
        "midi": 56,
        "time": 40.521,
        "duration": 0.104,
        "velocity": 0.71,
        "hand": "left"
      },
      {
        "midi": 52,
        "time": 40.729,
        "duration": 0.104,
        "velocity": 0.71,
        "hand": "left"
      },
      {
        "midi": 40,
        "time": 40.833,
        "duration": 0.104,
        "velocity": 0.71,
        "hand": "left"
      },
      {
        "midi": 47,
        "time": 40.938,
        "duration": 0.104,
        "velocity": 0.71,
        "hand": "left"
      },
      {
        "midi": 52,
        "time": 41.146,
        "duration": 0.104,
        "velocity": 0.71,
        "hand": "left"
      },
      {
        "midi": 54,
        "time": 41.25,
        "duration": 0.104,
        "velocity": 0.71,
        "hand": "left"
      },
      {
        "midi": 62,
        "time": 41.25,
        "duration": 0.417,
        "velocity": 0.71,
        "hand": "right"
      },
      {
        "midi": 56,
        "time": 41.354,
        "duration": 0.104,
        "velocity": 0.71,
        "hand": "left"
      },
      {
        "midi": 59,
        "time": 41.563,
        "duration": 0.104,
        "velocity": 0.71,
        "hand": "left"
      },
      {
        "midi": 33,
        "time": 41.667,
        "duration": 0.104,
        "velocity": 0.71,
        "hand": "left"
      },
      {
        "midi": 61,
        "time": 41.667,
        "duration": 2.083,
        "velocity": 0.71,
        "hand": "right"
      },
      {
        "midi": 45,
        "time": 41.771,
        "duration": 3.229,
        "velocity": 0.71,
        "hand": "left"
      },
      {
        "midi": 52,
        "time": 41.979,
        "duration": 0.104,
        "velocity": 0.71,
        "hand": "left"
      },
      {
        "midi": 55,
        "time": 42.083,
        "duration": 0.104,
        "velocity": 0.71,
        "hand": "left"
      },
      {
        "midi": 57,
        "time": 42.188,
        "duration": 0.104,
        "velocity": 0.71,
        "hand": "left"
      },
      {
        "midi": 59,
        "time": 42.396,
        "duration": 0.104,
        "velocity": 0.71,
        "hand": "left"
      },
      {
        "midi": 57,
        "time": 42.5,
        "duration": 0.104,
        "velocity": 0.71,
        "hand": "left"
      },
      {
        "midi": 52,
        "time": 42.604,
        "duration": 0.104,
        "velocity": 0.71,
        "hand": "left"
      },
      {
        "midi": 55,
        "time": 42.813,
        "duration": 0.104,
        "velocity": 0.71,
        "hand": "left"
      },
      {
        "midi": 57,
        "time": 42.917,
        "duration": 0.104,
        "velocity": 0.71,
        "hand": "left"
      },
      {
        "midi": 59,
        "time": 43.021,
        "duration": 0.104,
        "velocity": 0.71,
        "hand": "left"
      },
      {
        "midi": 57,
        "time": 43.229,
        "duration": 0.104,
        "velocity": 0.71,
        "hand": "left"
      },
      {
        "midi": 55,
        "time": 43.333,
        "duration": 1.667,
        "velocity": 0.71,
        "hand": "left"
      },
      {
        "midi": 61,
        "time": 43.75,
        "duration": 0.417,
        "velocity": 0.71,
        "hand": "right"
      },
      {
        "midi": 64,
        "time": 44.167,
        "duration": 0.417,
        "velocity": 0.71,
        "hand": "right"
      },
      {
        "midi": 61,
        "time": 44.583,
        "duration": 0.417,
        "velocity": 0.71,
        "hand": "right"
      },
      {
        "midi": 38,
        "time": 45,
        "duration": 0.208,
        "velocity": 0.71,
        "hand": "left"
      },
      {
        "midi": 66,
        "time": 45,
        "duration": 2.083,
        "velocity": 0.71,
        "hand": "right"
      },
      {
        "midi": 45,
        "time": 45.208,
        "duration": 0.208,
        "velocity": 0.71,
        "hand": "left"
      },
      {
        "midi": 54,
        "time": 45.417,
        "duration": 1.25,
        "velocity": 0.71,
        "hand": "left"
      },
      {
        "midi": 57,
        "time": 45.417,
        "duration": 0.104,
        "velocity": 0.71,
        "hand": "left"
      },
      {
        "midi": 59,
        "time": 45.521,
        "duration": 0.104,
        "velocity": 0.71,
        "hand": "left"
      },
      {
        "midi": 61,
        "time": 45.729,
        "duration": 0.104,
        "velocity": 0.71,
        "hand": "right"
      },
      {
        "midi": 59,
        "time": 45.833,
        "duration": 0.104,
        "velocity": 0.71,
        "hand": "left"
      },
      {
        "midi": 57,
        "time": 45.938,
        "duration": 0.104,
        "velocity": 0.71,
        "hand": "left"
      },
      {
        "midi": 59,
        "time": 46.146,
        "duration": 0.104,
        "velocity": 0.71,
        "hand": "left"
      },
      {
        "midi": 61,
        "time": 46.25,
        "duration": 0.104,
        "velocity": 0.71,
        "hand": "right"
      },
      {
        "midi": 59,
        "time": 46.354,
        "duration": 0.104,
        "velocity": 0.71,
        "hand": "left"
      },
      {
        "midi": 57,
        "time": 46.563,
        "duration": 0.104,
        "velocity": 0.71,
        "hand": "left"
      },
      {
        "midi": 35,
        "time": 46.667,
        "duration": 0.208,
        "velocity": 0.71,
        "hand": "left"
      },
      {
        "midi": 61,
        "time": 46.667,
        "duration": 0.833,
        "velocity": 0.71,
        "hand": "right"
      },
      {
        "midi": 47,
        "time": 46.875,
        "duration": 0.208,
        "velocity": 0.71,
        "hand": "left"
      },
      {
        "midi": 54,
        "time": 47.083,
        "duration": 0.208,
        "velocity": 0.71,
        "hand": "left"
      },
      {
        "midi": 66,
        "time": 47.083,
        "duration": 0.417,
        "velocity": 0.71,
        "hand": "right"
      },
      {
        "midi": 57,
        "time": 47.292,
        "duration": 0.208,
        "velocity": 0.71,
        "hand": "left"
      },
      {
        "midi": 59,
        "time": 47.5,
        "duration": 0.417,
        "velocity": 0.71,
        "hand": "left"
      },
      {
        "midi": 63,
        "time": 47.5,
        "duration": 1.667,
        "velocity": 0.71,
        "hand": "right"
      },
      {
        "midi": 69,
        "time": 47.5,
        "duration": 0.417,
        "velocity": 0.71,
        "hand": "right"
      },
      {
        "midi": 66,
        "time": 47.917,
        "duration": 0.417,
        "velocity": 0.71,
        "hand": "right"
      },
      {
        "midi": 32,
        "time": 48.333,
        "duration": 0.208,
        "velocity": 0.71,
        "hand": "left"
      },
      {
        "midi": 71,
        "time": 48.333,
        "duration": 0.417,
        "velocity": 0.71,
        "hand": "right"
      },
      {
        "midi": 44,
        "time": 48.542,
        "duration": 0.208,
        "velocity": 0.71,
        "hand": "left"
      },
      {
        "midi": 52,
        "time": 48.75,
        "duration": 0.208,
        "velocity": 0.71,
        "hand": "left"
      },
      {
        "midi": 68,
        "time": 48.75,
        "duration": 0.417,
        "velocity": 0.71,
        "hand": "right"
      },
      {
        "midi": 56,
        "time": 48.958,
        "duration": 0.208,
        "velocity": 0.71,
        "hand": "left"
      },
      {
        "midi": 59,
        "time": 49.167,
        "duration": 0.417,
        "velocity": 0.71,
        "hand": "left"
      },
      {
        "midi": 64,
        "time": 49.167,
        "duration": 0.833,
        "velocity": 0.71,
        "hand": "right"
      },
      {
        "midi": 71,
        "time": 49.167,
        "duration": 0.417,
        "velocity": 0.71,
        "hand": "right"
      },
      {
        "midi": 68,
        "time": 49.583,
        "duration": 0.417,
        "velocity": 0.71,
        "hand": "right"
      },
      {
        "midi": 30,
        "time": 50,
        "duration": 0.104,
        "velocity": 0.71,
        "hand": "left"
      },
      {
        "midi": 69,
        "time": 50,
        "duration": 2.083,
        "velocity": 0.71,
        "hand": "right"
      },
      {
        "midi": 73,
        "time": 50,
        "duration": 2.083,
        "velocity": 0.71,
        "hand": "right"
      },
      {
        "midi": 42,
        "time": 50.104,
        "duration": 0.104,
        "velocity": 0.71,
        "hand": "left"
      },
      {
        "midi": 49,
        "time": 50.313,
        "duration": 0.104,
        "velocity": 0.71,
        "hand": "left"
      },
      {
        "midi": 52,
        "time": 50.417,
        "duration": 0.104,
        "velocity": 0.71,
        "hand": "left"
      },
      {
        "midi": 54,
        "time": 50.521,
        "duration": 0.104,
        "velocity": 0.71,
        "hand": "left"
      },
      {
        "midi": 57,
        "time": 50.729,
        "duration": 0.104,
        "velocity": 0.71,
        "hand": "left"
      },
      {
        "midi": 61,
        "time": 50.833,
        "duration": 0.104,
        "velocity": 0.71,
        "hand": "right"
      },
      {
        "midi": 64,
        "time": 50.938,
        "duration": 0.104,
        "velocity": 0.71,
        "hand": "right"
      },
      {
        "midi": 66,
        "time": 51.146,
        "duration": 0.104,
        "velocity": 0.71,
        "hand": "right"
      },
      {
        "midi": 68,
        "time": 51.354,
        "duration": 0.104,
        "velocity": 0.71,
        "hand": "right"
      },
      {
        "midi": 66,
        "time": 51.563,
        "duration": 0.104,
        "velocity": 0.71,
        "hand": "right"
      },
      {
        "midi": 64,
        "time": 51.667,
        "duration": 0.833,
        "velocity": 0.71,
        "hand": "right"
      },
      {
        "midi": 66,
        "time": 52.083,
        "duration": 0.417,
        "velocity": 0.71,
        "hand": "right"
      },
      {
        "midi": 69,
        "time": 52.083,
        "duration": 0.417,
        "velocity": 0.71,
        "hand": "right"
      },
      {
        "midi": 63,
        "time": 52.5,
        "duration": 0.417,
        "velocity": 0.71,
        "hand": "right"
      },
      {
        "midi": 68,
        "time": 52.5,
        "duration": 0.417,
        "velocity": 0.71,
        "hand": "right"
      },
      {
        "midi": 71,
        "time": 52.5,
        "duration": 0.417,
        "velocity": 0.71,
        "hand": "right"
      },
      {
        "midi": 61,
        "time": 52.917,
        "duration": 0.417,
        "velocity": 0.71,
        "hand": "right"
      },
      {
        "midi": 69,
        "time": 52.917,
        "duration": 0.417,
        "velocity": 0.71,
        "hand": "right"
      },
      {
        "midi": 73,
        "time": 52.917,
        "duration": 0.417,
        "velocity": 0.71,
        "hand": "right"
      },
      {
        "midi": 30,
        "time": 53.333,
        "duration": 0.104,
        "velocity": 0.71,
        "hand": "left"
      },
      {
        "midi": 69,
        "time": 53.333,
        "duration": 2.083,
        "velocity": 0.71,
        "hand": "right"
      },
      {
        "midi": 73,
        "time": 53.333,
        "duration": 2.083,
        "velocity": 0.71,
        "hand": "right"
      },
      {
        "midi": 42,
        "time": 53.438,
        "duration": 0.104,
        "velocity": 0.71,
        "hand": "left"
      },
      {
        "midi": 49,
        "time": 53.646,
        "duration": 0.104,
        "velocity": 0.71,
        "hand": "left"
      },
      {
        "midi": 52,
        "time": 53.75,
        "duration": 0.104,
        "velocity": 0.71,
        "hand": "left"
      },
      {
        "midi": 54,
        "time": 53.854,
        "duration": 0.104,
        "velocity": 0.71,
        "hand": "left"
      },
      {
        "midi": 57,
        "time": 54.063,
        "duration": 0.104,
        "velocity": 0.71,
        "hand": "left"
      },
      {
        "midi": 61,
        "time": 54.167,
        "duration": 0.104,
        "velocity": 0.71,
        "hand": "right"
      },
      {
        "midi": 64,
        "time": 54.271,
        "duration": 0.104,
        "velocity": 0.71,
        "hand": "right"
      },
      {
        "midi": 66,
        "time": 54.479,
        "duration": 0.104,
        "velocity": 0.71,
        "hand": "right"
      },
      {
        "midi": 68,
        "time": 54.688,
        "duration": 0.104,
        "velocity": 0.71,
        "hand": "right"
      },
      {
        "midi": 66,
        "time": 54.896,
        "duration": 0.104,
        "velocity": 0.71,
        "hand": "right"
      },
      {
        "midi": 64,
        "time": 55,
        "duration": 0.833,
        "velocity": 0.71,
        "hand": "right"
      },
      {
        "midi": 66,
        "time": 55.417,
        "duration": 0.104,
        "velocity": 0.71,
        "hand": "right"
      },
      {
        "midi": 69,
        "time": 55.417,
        "duration": 0.417,
        "velocity": 0.71,
        "hand": "right"
      },
      {
        "midi": 61,
        "time": 55.521,
        "duration": 0.104,
        "velocity": 0.71,
        "hand": "right"
      },
      {
        "midi": 54,
        "time": 55.833,
        "duration": 0.833,
        "velocity": 0.71,
        "hand": "left"
      },
      {
        "midi": 68,
        "time": 55.833,
        "duration": 0.104,
        "velocity": 0.71,
        "hand": "right"
      },
      {
        "midi": 71,
        "time": 55.833,
        "duration": 0.417,
        "velocity": 0.71,
        "hand": "right"
      },
      {
        "midi": 63,
        "time": 55.938,
        "duration": 0.104,
        "velocity": 0.71,
        "hand": "right"
      },
      {
        "midi": 66,
        "time": 56.146,
        "duration": 0.104,
        "velocity": 0.71,
        "hand": "right"
      },
      {
        "midi": 69,
        "time": 56.25,
        "duration": 0.104,
        "velocity": 0.71,
        "hand": "right"
      },
      {
        "midi": 73,
        "time": 56.25,
        "duration": 0.417,
        "velocity": 0.71,
        "hand": "right"
      },
      {
        "midi": 64,
        "time": 56.354,
        "duration": 0.104,
        "velocity": 0.71,
        "hand": "right"
      },
      {
        "midi": 68,
        "time": 56.563,
        "duration": 0.104,
        "velocity": 0.71,
        "hand": "right"
      },
      {
        "midi": 47,
        "time": 56.667,
        "duration": 0.417,
        "velocity": 0.71,
        "hand": "left"
      },
      {
        "midi": 71,
        "time": 56.667,
        "duration": 0.104,
        "velocity": 0.71,
        "hand": "right"
      },
      {
        "midi": 75,
        "time": 56.667,
        "duration": 0.417,
        "velocity": 0.71,
        "hand": "right"
      },
      {
        "midi": 66,
        "time": 56.771,
        "duration": 0.104,
        "velocity": 0.71,
        "hand": "right"
      },
      {
        "midi": 69,
        "time": 56.979,
        "duration": 0.104,
        "velocity": 0.71,
        "hand": "right"
      },
      {
        "midi": 54,
        "time": 57.083,
        "duration": 0.417,
        "velocity": 0.71,
        "hand": "left"
      },
      {
        "midi": 73,
        "time": 57.083,
        "duration": 0.104,
        "velocity": 0.71,
        "hand": "right"
      },
      {
        "midi": 76,
        "time": 57.083,
        "duration": 0.417,
        "velocity": 0.71,
        "hand": "right"
      },
      {
        "midi": 68,
        "time": 57.188,
        "duration": 0.104,
        "velocity": 0.71,
        "hand": "right"
      },
      {
        "midi": 71,
        "time": 57.396,
        "duration": 0.104,
        "velocity": 0.71,
        "hand": "right"
      },
      {
        "midi": 57,
        "time": 57.5,
        "duration": 0.417,
        "velocity": 0.71,
        "hand": "left"
      },
      {
        "midi": 75,
        "time": 57.5,
        "duration": 0.104,
        "velocity": 0.71,
        "hand": "right"
      },
      {
        "midi": 78,
        "time": 57.5,
        "duration": 0.417,
        "velocity": 0.71,
        "hand": "right"
      },
      {
        "midi": 69,
        "time": 57.604,
        "duration": 0.104,
        "velocity": 0.71,
        "hand": "right"
      },
      {
        "midi": 73,
        "time": 57.813,
        "duration": 0.104,
        "velocity": 0.71,
        "hand": "right"
      },
      {
        "midi": 59,
        "time": 57.917,
        "duration": 0.417,
        "velocity": 0.71,
        "hand": "left"
      },
      {
        "midi": 76,
        "time": 57.917,
        "duration": 0.104,
        "velocity": 0.71,
        "hand": "right"
      },
      {
        "midi": 80,
        "time": 57.917,
        "duration": 0.417,
        "velocity": 0.71,
        "hand": "right"
      },
      {
        "midi": 71,
        "time": 58.021,
        "duration": 0.104,
        "velocity": 0.71,
        "hand": "right"
      },
      {
        "midi": 75,
        "time": 58.229,
        "duration": 0.104,
        "velocity": 0.71,
        "hand": "right"
      },
      {
        "midi": 63,
        "time": 58.333,
        "duration": 0.417,
        "velocity": 0.71,
        "hand": "right"
      },
      {
        "midi": 78,
        "time": 58.333,
        "duration": 0.104,
        "velocity": 0.71,
        "hand": "right"
      },
      {
        "midi": 81,
        "time": 58.333,
        "duration": 0.417,
        "velocity": 0.71,
        "hand": "right"
      },
      {
        "midi": 73,
        "time": 58.438,
        "duration": 0.104,
        "velocity": 0.71,
        "hand": "right"
      },
      {
        "midi": 76,
        "time": 58.646,
        "duration": 0.104,
        "velocity": 0.71,
        "hand": "right"
      },
      {
        "midi": 66,
        "time": 58.75,
        "duration": 0.417,
        "velocity": 0.71,
        "hand": "right"
      },
      {
        "midi": 80,
        "time": 58.75,
        "duration": 0.104,
        "velocity": 0.71,
        "hand": "right"
      },
      {
        "midi": 83,
        "time": 58.75,
        "duration": 0.417,
        "velocity": 0.71,
        "hand": "right"
      },
      {
        "midi": 75,
        "time": 58.854,
        "duration": 0.104,
        "velocity": 0.71,
        "hand": "right"
      },
      {
        "midi": 78,
        "time": 59.063,
        "duration": 0.104,
        "velocity": 0.71,
        "hand": "right"
      },
      {
        "midi": 69,
        "time": 59.167,
        "duration": 0.417,
        "velocity": 0.71,
        "hand": "right"
      },
      {
        "midi": 81,
        "time": 59.167,
        "duration": 0.104,
        "velocity": 0.71,
        "hand": "right"
      },
      {
        "midi": 85,
        "time": 59.167,
        "duration": 0.417,
        "velocity": 0.71,
        "hand": "right"
      },
      {
        "midi": 76,
        "time": 59.271,
        "duration": 0.104,
        "velocity": 0.71,
        "hand": "right"
      },
      {
        "midi": 80,
        "time": 59.479,
        "duration": 0.104,
        "velocity": 0.71,
        "hand": "right"
      },
      {
        "midi": 71,
        "time": 59.583,
        "duration": 0.417,
        "velocity": 0.71,
        "hand": "right"
      },
      {
        "midi": 83,
        "time": 59.583,
        "duration": 0.104,
        "velocity": 0.71,
        "hand": "right"
      },
      {
        "midi": 87,
        "time": 59.583,
        "duration": 0.417,
        "velocity": 0.71,
        "hand": "right"
      },
      {
        "midi": 78,
        "time": 59.688,
        "duration": 0.104,
        "velocity": 0.71,
        "hand": "right"
      },
      {
        "midi": 81,
        "time": 59.896,
        "duration": 0.104,
        "velocity": 0.71,
        "hand": "right"
      },
      {
        "midi": 28,
        "time": 60,
        "duration": 0.208,
        "velocity": 0.71,
        "hand": "left"
      },
      {
        "midi": 80,
        "time": 60,
        "duration": 1.667,
        "velocity": 0.71,
        "hand": "right"
      },
      {
        "midi": 83,
        "time": 60,
        "duration": 1.667,
        "velocity": 0.71,
        "hand": "right"
      },
      {
        "midi": 90,
        "time": 60,
        "duration": 0.833,
        "velocity": 0.71,
        "hand": "right"
      },
      {
        "midi": 40,
        "time": 60.208,
        "duration": 0.208,
        "velocity": 0.71,
        "hand": "left"
      },
      {
        "midi": 47,
        "time": 60.417,
        "duration": 0.208,
        "velocity": 0.71,
        "hand": "left"
      },
      {
        "midi": 52,
        "time": 60.625,
        "duration": 0.208,
        "velocity": 0.71,
        "hand": "left"
      },
      {
        "midi": 56,
        "time": 60.833,
        "duration": 0.208,
        "velocity": 0.71,
        "hand": "left"
      },
      {
        "midi": 88,
        "time": 60.833,
        "duration": 0.833,
        "velocity": 0.71,
        "hand": "right"
      },
      {
        "midi": 59,
        "time": 61.042,
        "duration": 0.208,
        "velocity": 0.71,
        "hand": "left"
      },
      {
        "midi": 64,
        "time": 61.25,
        "duration": 0.208,
        "velocity": 0.71,
        "hand": "right"
      },
      {
        "midi": 68,
        "time": 61.458,
        "duration": 0.208,
        "velocity": 0.71,
        "hand": "right"
      },
      {
        "midi": 76,
        "time": 61.667,
        "duration": 1.771,
        "velocity": 0.71,
        "hand": "right"
      },
      {
        "midi": 64,
        "time": 62.5,
        "duration": 0.833,
        "velocity": 0.71,
        "hand": "right"
      },
      {
        "midi": 59,
        "time": 63.333,
        "duration": 0.208,
        "velocity": 0.71,
        "hand": "left"
      },
      {
        "midi": 66,
        "time": 63.333,
        "duration": 1.25,
        "velocity": 0.71,
        "hand": "right"
      },
      {
        "midi": 69,
        "time": 63.333,
        "duration": 1.25,
        "velocity": 0.71,
        "hand": "right"
      },
      {
        "midi": 74,
        "time": 63.438,
        "duration": 0.104,
        "velocity": 0.71,
        "hand": "right"
      },
      {
        "midi": 61,
        "time": 63.542,
        "duration": 0.208,
        "velocity": 0.71,
        "hand": "right"
      },
      {
        "midi": 76,
        "time": 63.646,
        "duration": 0.104,
        "velocity": 0.71,
        "hand": "right"
      },
      {
        "midi": 62,
        "time": 63.75,
        "duration": 0.833,
        "velocity": 0.71,
        "hand": "right"
      },
      {
        "midi": 73,
        "time": 63.75,
        "duration": 0.625,
        "velocity": 0.71,
        "hand": "right"
      },
      {
        "midi": 71,
        "time": 64.375,
        "duration": 0.208,
        "velocity": 0.71,
        "hand": "right"
      },
      {
        "midi": 52,
        "time": 64.583,
        "duration": 0.417,
        "velocity": 0.71,
        "hand": "left"
      },
      {
        "midi": 62,
        "time": 64.583,
        "duration": 0.417,
        "velocity": 0.71,
        "hand": "right"
      },
      {
        "midi": 68,
        "time": 64.583,
        "duration": 0.417,
        "velocity": 0.71,
        "hand": "right"
      },
      {
        "midi": 71,
        "time": 64.583,
        "duration": 0.208,
        "velocity": 0.71,
        "hand": "right"
      },
      {
        "midi": 73,
        "time": 64.792,
        "duration": 0.208,
        "velocity": 0.71,
        "hand": "right"
      },
      {
        "midi": 54,
        "time": 65,
        "duration": 0.417,
        "velocity": 0.71,
        "hand": "left"
      },
      {
        "midi": 61,
        "time": 65,
        "duration": 0.417,
        "velocity": 0.71,
        "hand": "right"
      },
      {
        "midi": 66,
        "time": 65,
        "duration": 0.417,
        "velocity": 0.71,
        "hand": "right"
      },
      {
        "midi": 69,
        "time": 65,
        "duration": 0.417,
        "velocity": 0.71,
        "hand": "right"
      },
      {
        "midi": 47,
        "time": 65.417,
        "duration": 1.25,
        "velocity": 0.71,
        "hand": "left"
      },
      {
        "midi": 57,
        "time": 65.417,
        "duration": 1.25,
        "velocity": 0.71,
        "hand": "left"
      },
      {
        "midi": 63,
        "time": 65.417,
        "duration": 1.25,
        "velocity": 0.71,
        "hand": "right"
      },
      {
        "midi": 66,
        "time": 65.417,
        "duration": 0.833,
        "velocity": 0.71,
        "hand": "right"
      },
      {
        "midi": 68,
        "time": 66.25,
        "duration": 0.417,
        "velocity": 0.71,
        "hand": "right"
      },
      {
        "midi": 40,
        "time": 66.667,
        "duration": 0.417,
        "velocity": 0.71,
        "hand": "left"
      },
      {
        "midi": 47,
        "time": 66.667,
        "duration": 0.417,
        "velocity": 0.71,
        "hand": "left"
      },
      {
        "midi": 56,
        "time": 66.667,
        "duration": 0.417,
        "velocity": 0.71,
        "hand": "left"
      },
      {
        "midi": 62,
        "time": 66.667,
        "duration": 0.417,
        "velocity": 0.71,
        "hand": "right"
      },
      {
        "midi": 66,
        "time": 66.667,
        "duration": 0.208,
        "velocity": 0.71,
        "hand": "right"
      },
      {
        "midi": 64,
        "time": 66.875,
        "duration": 0.208,
        "velocity": 0.71,
        "hand": "right"
      },
      {
        "midi": 56,
        "time": 67.083,
        "duration": 1.25,
        "velocity": 0.71,
        "hand": "left"
      },
      {
        "midi": 62,
        "time": 67.083,
        "duration": 1.25,
        "velocity": 0.71,
        "hand": "right"
      },
      {
        "midi": 66,
        "time": 67.083,
        "duration": 0.833,
        "velocity": 0.71,
        "hand": "right"
      },
      {
        "midi": 71,
        "time": 67.083,
        "duration": 1.25,
        "velocity": 0.71,
        "hand": "right"
      },
      {
        "midi": 74,
        "time": 67.083,
        "duration": 1.25,
        "velocity": 0.71,
        "hand": "right"
      },
      {
        "midi": 78,
        "time": 67.083,
        "duration": 0.833,
        "velocity": 0.71,
        "hand": "right"
      },
      {
        "midi": 64,
        "time": 67.917,
        "duration": 0.417,
        "velocity": 0.71,
        "hand": "right"
      },
      {
        "midi": 76,
        "time": 67.917,
        "duration": 0.417,
        "velocity": 0.71,
        "hand": "right"
      },
      {
        "midi": 45,
        "time": 68.333,
        "duration": 0.417,
        "velocity": 0.71,
        "hand": "left"
      },
      {
        "midi": 52,
        "time": 68.333,
        "duration": 0.417,
        "velocity": 0.71,
        "hand": "left"
      },
      {
        "midi": 57,
        "time": 68.333,
        "duration": 0.417,
        "velocity": 0.71,
        "hand": "left"
      },
      {
        "midi": 61,
        "time": 68.333,
        "duration": 0.417,
        "velocity": 0.71,
        "hand": "right"
      },
      {
        "midi": 66,
        "time": 68.333,
        "duration": 0.208,
        "velocity": 0.71,
        "hand": "right"
      },
      {
        "midi": 64,
        "time": 68.542,
        "duration": 0.208,
        "velocity": 0.71,
        "hand": "right"
      },
      {
        "midi": 52,
        "time": 68.75,
        "duration": 1.25,
        "velocity": 0.71,
        "hand": "left"
      },
      {
        "midi": 57,
        "time": 68.75,
        "duration": 1.25,
        "velocity": 0.71,
        "hand": "left"
      },
      {
        "midi": 61,
        "time": 68.75,
        "duration": 1.25,
        "velocity": 0.71,
        "hand": "right"
      },
      {
        "midi": 64,
        "time": 68.75,
        "duration": 1.25,
        "velocity": 0.71,
        "hand": "right"
      },
      {
        "midi": 69,
        "time": 68.75,
        "duration": 1.25,
        "velocity": 0.71,
        "hand": "right"
      },
      {
        "midi": 73,
        "time": 68.75,
        "duration": 1.25,
        "velocity": 0.71,
        "hand": "right"
      },
      {
        "midi": 80,
        "time": 68.75,
        "duration": 0.625,
        "velocity": 0.71,
        "hand": "right"
      },
      {
        "midi": 83,
        "time": 69.375,
        "duration": 0.208,
        "velocity": 0.71,
        "hand": "right"
      },
      {
        "midi": 81,
        "time": 69.583,
        "duration": 0.208,
        "velocity": 0.71,
        "hand": "right"
      },
      {
        "midi": 78,
        "time": 69.792,
        "duration": 0.208,
        "velocity": 0.71,
        "hand": "right"
      },
      {
        "midi": 59,
        "time": 70,
        "duration": 0.208,
        "velocity": 0.71,
        "hand": "left"
      },
      {
        "midi": 66,
        "time": 70,
        "duration": 1.25,
        "velocity": 0.71,
        "hand": "right"
      },
      {
        "midi": 69,
        "time": 70,
        "duration": 1.25,
        "velocity": 0.71,
        "hand": "right"
      },
      {
        "midi": 76,
        "time": 70,
        "duration": 0.104,
        "velocity": 0.71,
        "hand": "right"
      },
      {
        "midi": 74,
        "time": 70.104,
        "duration": 0.104,
        "velocity": 0.71,
        "hand": "right"
      },
      {
        "midi": 61,
        "time": 70.208,
        "duration": 0.208,
        "velocity": 0.71,
        "hand": "right"
      },
      {
        "midi": 76,
        "time": 70.313,
        "duration": 0.104,
        "velocity": 0.71,
        "hand": "right"
      },
      {
        "midi": 62,
        "time": 70.417,
        "duration": 1.25,
        "velocity": 0.71,
        "hand": "right"
      },
      {
        "midi": 73,
        "time": 70.417,
        "duration": 0.625,
        "velocity": 0.71,
        "hand": "right"
      },
      {
        "midi": 71,
        "time": 71.042,
        "duration": 0.208,
        "velocity": 0.71,
        "hand": "right"
      },
      {
        "midi": 65,
        "time": 71.25,
        "duration": 0.417,
        "velocity": 0.71,
        "hand": "right"
      },
      {
        "midi": 68,
        "time": 71.25,
        "duration": 0.417,
        "velocity": 0.71,
        "hand": "right"
      },
      {
        "midi": 71,
        "time": 71.25,
        "duration": 0.208,
        "velocity": 0.71,
        "hand": "right"
      },
      {
        "midi": 73,
        "time": 71.458,
        "duration": 0.208,
        "velocity": 0.71,
        "hand": "right"
      },
      {
        "midi": 54,
        "time": 71.667,
        "duration": 0.417,
        "velocity": 0.71,
        "hand": "left"
      },
      {
        "midi": 61,
        "time": 71.667,
        "duration": 0.417,
        "velocity": 0.71,
        "hand": "right"
      },
      {
        "midi": 64,
        "time": 71.667,
        "duration": 0.833,
        "velocity": 0.71,
        "hand": "right"
      },
      {
        "midi": 69,
        "time": 71.667,
        "duration": 0.417,
        "velocity": 0.71,
        "hand": "right"
      },
      {
        "midi": 47,
        "time": 72.083,
        "duration": 0.833,
        "velocity": 0.71,
        "hand": "left"
      },
      {
        "midi": 57,
        "time": 72.083,
        "duration": 0.833,
        "velocity": 0.71,
        "hand": "left"
      },
      {
        "midi": 66,
        "time": 72.083,
        "duration": 0.625,
        "velocity": 0.71,
        "hand": "right"
      },
      {
        "midi": 63,
        "time": 72.5,
        "duration": 0.417,
        "velocity": 0.71,
        "hand": "right"
      },
      {
        "midi": 66,
        "time": 72.708,
        "duration": 0.208,
        "velocity": 0.71,
        "hand": "right"
      },
      {
        "midi": 45,
        "time": 72.917,
        "duration": 0.417,
        "velocity": 0.71,
        "hand": "left"
      },
      {
        "midi": 51,
        "time": 72.917,
        "duration": 0.417,
        "velocity": 0.71,
        "hand": "left"
      },
      {
        "midi": 61,
        "time": 72.917,
        "duration": 0.417,
        "velocity": 0.71,
        "hand": "right"
      },
      {
        "midi": 66,
        "time": 72.917,
        "duration": 0.208,
        "velocity": 0.71,
        "hand": "right"
      },
      {
        "midi": 68,
        "time": 73.125,
        "duration": 0.208,
        "velocity": 0.71,
        "hand": "right"
      },
      {
        "midi": 44,
        "time": 73.333,
        "duration": 0.417,
        "velocity": 0.71,
        "hand": "left"
      },
      {
        "midi": 52,
        "time": 73.333,
        "duration": 0.417,
        "velocity": 0.71,
        "hand": "left"
      },
      {
        "midi": 59,
        "time": 73.333,
        "duration": 0.417,
        "velocity": 0.71,
        "hand": "left"
      },
      {
        "midi": 66,
        "time": 73.333,
        "duration": 0.104,
        "velocity": 0.71,
        "hand": "right"
      },
      {
        "midi": 64,
        "time": 73.438,
        "duration": 0.104,
        "velocity": 0.71,
        "hand": "right"
      },
      {
        "midi": 42,
        "time": 73.75,
        "duration": 0.833,
        "velocity": 0.71,
        "hand": "left"
      },
      {
        "midi": 52,
        "time": 73.75,
        "duration": 0.833,
        "velocity": 0.71,
        "hand": "left"
      },
      {
        "midi": 57,
        "time": 73.75,
        "duration": 0.833,
        "velocity": 0.71,
        "hand": "left"
      },
      {
        "midi": 61,
        "time": 73.75,
        "duration": 0.833,
        "velocity": 0.71,
        "hand": "right"
      },
      {
        "midi": 35,
        "time": 74.583,
        "duration": 0.417,
        "velocity": 0.71,
        "hand": "left"
      },
      {
        "midi": 47,
        "time": 74.583,
        "duration": 0.417,
        "velocity": 0.71,
        "hand": "left"
      },
      {
        "midi": 57,
        "time": 74.583,
        "duration": 0.417,
        "velocity": 0.71,
        "hand": "left"
      },
      {
        "midi": 61,
        "time": 74.583,
        "duration": 0.417,
        "velocity": 0.71,
        "hand": "right"
      },
      {
        "midi": 64,
        "time": 74.583,
        "duration": 0.417,
        "velocity": 0.71,
        "hand": "right"
      },
      {
        "midi": 40,
        "time": 75,
        "duration": 0.833,
        "velocity": 0.71,
        "hand": "left"
      },
      {
        "midi": 47,
        "time": 75,
        "duration": 0.833,
        "velocity": 0.71,
        "hand": "left"
      },
      {
        "midi": 57,
        "time": 75,
        "duration": 0.417,
        "velocity": 0.71,
        "hand": "left"
      },
      {
        "midi": 59,
        "time": 75,
        "duration": 1.25,
        "velocity": 0.71,
        "hand": "left"
      },
      {
        "midi": 64,
        "time": 75,
        "duration": 1.25,
        "velocity": 0.71,
        "hand": "right"
      },
      {
        "midi": 56,
        "time": 75.417,
        "duration": 0.833,
        "velocity": 0.71,
        "hand": "left"
      },
      {
        "midi": 40,
        "time": 75.833,
        "duration": 0.417,
        "velocity": 0.71,
        "hand": "left"
      },
      {
        "midi": 52,
        "time": 76.25,
        "duration": 0.417,
        "velocity": 0.71,
        "hand": "left"
      },
      {
        "midi": 50,
        "time": 76.667,
        "duration": 0.104,
        "velocity": 0.71,
        "hand": "left"
      },
      {
        "midi": 54,
        "time": 76.771,
        "duration": 0.104,
        "velocity": 0.71,
        "hand": "left"
      },
      {
        "midi": 57,
        "time": 76.979,
        "duration": 0.104,
        "velocity": 0.71,
        "hand": "left"
      },
      {
        "midi": 42,
        "time": 77.083,
        "duration": 0.833,
        "velocity": 0.71,
        "hand": "left"
      },
      {
        "midi": 61,
        "time": 77.083,
        "duration": 0.104,
        "velocity": 0.71,
        "hand": "right"
      },
      {
        "midi": 59,
        "time": 77.188,
        "duration": 0.104,
        "velocity": 0.71,
        "hand": "left"
      },
      {
        "midi": 57,
        "time": 77.396,
        "duration": 0.104,
        "velocity": 0.71,
        "hand": "left"
      },
      {
        "midi": 56,
        "time": 77.5,
        "duration": 0.104,
        "velocity": 0.71,
        "hand": "left"
      },
      {
        "midi": 59,
        "time": 77.604,
        "duration": 0.104,
        "velocity": 0.71,
        "hand": "left"
      },
      {
        "midi": 62,
        "time": 77.813,
        "duration": 0.104,
        "velocity": 0.71,
        "hand": "right"
      },
      {
        "midi": 40,
        "time": 77.917,
        "duration": 0.417,
        "velocity": 0.71,
        "hand": "left"
      },
      {
        "midi": 66,
        "time": 77.917,
        "duration": 0.104,
        "velocity": 0.71,
        "hand": "right"
      },
      {
        "midi": 64,
        "time": 78.021,
        "duration": 0.104,
        "velocity": 0.71,
        "hand": "right"
      },
      {
        "midi": 62,
        "time": 78.229,
        "duration": 0.104,
        "velocity": 0.71,
        "hand": "right"
      },
      {
        "midi": 61,
        "time": 78.333,
        "duration": 0.104,
        "velocity": 0.71,
        "hand": "right"
      },
      {
        "midi": 64,
        "time": 78.438,
        "duration": 0.104,
        "velocity": 0.71,
        "hand": "right"
      },
      {
        "midi": 68,
        "time": 78.646,
        "duration": 0.104,
        "velocity": 0.71,
        "hand": "right"
      },
      {
        "midi": 33,
        "time": 78.75,
        "duration": 0.833,
        "velocity": 0.71,
        "hand": "left"
      },
      {
        "midi": 45,
        "time": 78.75,
        "duration": 0.833,
        "velocity": 0.71,
        "hand": "left"
      },
      {
        "midi": 71,
        "time": 78.75,
        "duration": 0.104,
        "velocity": 0.71,
        "hand": "right"
      },
      {
        "midi": 69,
        "time": 78.854,
        "duration": 0.104,
        "velocity": 0.71,
        "hand": "right"
      },
      {
        "midi": 68,
        "time": 79.063,
        "duration": 0.104,
        "velocity": 0.71,
        "hand": "right"
      },
      {
        "midi": 66,
        "time": 79.167,
        "duration": 0.104,
        "velocity": 0.71,
        "hand": "right"
      },
      {
        "midi": 69,
        "time": 79.271,
        "duration": 0.104,
        "velocity": 0.71,
        "hand": "right"
      },
      {
        "midi": 73,
        "time": 79.479,
        "duration": 0.104,
        "velocity": 0.71,
        "hand": "right"
      },
      {
        "midi": 38,
        "time": 79.583,
        "duration": 0.417,
        "velocity": 0.71,
        "hand": "left"
      },
      {
        "midi": 50,
        "time": 79.583,
        "duration": 0.417,
        "velocity": 0.71,
        "hand": "left"
      },
      {
        "midi": 76,
        "time": 79.583,
        "duration": 0.104,
        "velocity": 0.71,
        "hand": "right"
      },
      {
        "midi": 74,
        "time": 79.688,
        "duration": 0.104,
        "velocity": 0.71,
        "hand": "right"
      },
      {
        "midi": 73,
        "time": 79.896,
        "duration": 0.104,
        "velocity": 0.71,
        "hand": "right"
      },
      {
        "midi": 71,
        "time": 80,
        "duration": 0.104,
        "velocity": 0.71,
        "hand": "right"
      },
      {
        "midi": 74,
        "time": 80.104,
        "duration": 0.104,
        "velocity": 0.71,
        "hand": "right"
      },
      {
        "midi": 78,
        "time": 80.313,
        "duration": 0.104,
        "velocity": 0.71,
        "hand": "right"
      },
      {
        "midi": 35,
        "time": 80.417,
        "duration": 0.417,
        "velocity": 0.71,
        "hand": "left"
      },
      {
        "midi": 47,
        "time": 80.417,
        "duration": 0.417,
        "velocity": 0.71,
        "hand": "left"
      },
      {
        "midi": 81,
        "time": 80.417,
        "duration": 0.625,
        "velocity": 0.71,
        "hand": "right"
      },
      {
        "midi": 54,
        "time": 80.833,
        "duration": 0.417,
        "velocity": 0.71,
        "hand": "left"
      },
      {
        "midi": 59,
        "time": 80.833,
        "duration": 0.417,
        "velocity": 0.71,
        "hand": "left"
      },
      {
        "midi": 62,
        "time": 80.833,
        "duration": 0.417,
        "velocity": 0.71,
        "hand": "right"
      },
      {
        "midi": 66,
        "time": 80.833,
        "duration": 0.417,
        "velocity": 0.71,
        "hand": "right"
      },
      {
        "midi": 71,
        "time": 80.833,
        "duration": 0.417,
        "velocity": 0.71,
        "hand": "right"
      },
      {
        "midi": 74,
        "time": 80.833,
        "duration": 0.417,
        "velocity": 0.71,
        "hand": "right"
      },
      {
        "midi": 80,
        "time": 81.042,
        "duration": 0.208,
        "velocity": 0.71,
        "hand": "right"
      },
      {
        "midi": 40,
        "time": 81.25,
        "duration": 0.417,
        "velocity": 0.71,
        "hand": "left"
      },
      {
        "midi": 52,
        "time": 81.25,
        "duration": 0.417,
        "velocity": 0.71,
        "hand": "left"
      },
      {
        "midi": 68,
        "time": 81.25,
        "duration": 0.417,
        "velocity": 0.71,
        "hand": "right"
      },
      {
        "midi": 74,
        "time": 81.25,
        "duration": 0.417,
        "velocity": 0.71,
        "hand": "right"
      },
      {
        "midi": 78,
        "time": 81.25,
        "duration": 0.208,
        "velocity": 0.71,
        "hand": "right"
      },
      {
        "midi": 76,
        "time": 81.458,
        "duration": 0.208,
        "velocity": 0.71,
        "hand": "right"
      },
      {
        "midi": 33,
        "time": 81.667,
        "duration": 0.417,
        "velocity": 0.71,
        "hand": "left"
      },
      {
        "midi": 45,
        "time": 81.667,
        "duration": 0.417,
        "velocity": 0.71,
        "hand": "left"
      },
      {
        "midi": 69,
        "time": 81.667,
        "duration": 0.833,
        "velocity": 0.71,
        "hand": "right"
      },
      {
        "midi": 73,
        "time": 81.667,
        "duration": 0.833,
        "velocity": 0.71,
        "hand": "right"
      },
      {
        "midi": 78,
        "time": 81.667,
        "duration": 0.208,
        "velocity": 0.71,
        "hand": "right"
      },
      {
        "midi": 76,
        "time": 81.875,
        "duration": 0.208,
        "velocity": 0.71,
        "hand": "right"
      },
      {
        "midi": 52,
        "time": 82.083,
        "duration": 0.417,
        "velocity": 0.71,
        "hand": "left"
      },
      {
        "midi": 74,
        "time": 82.083,
        "duration": 0.208,
        "velocity": 0.71,
        "hand": "right"
      },
      {
        "midi": 66,
        "time": 82.5,
        "duration": 0.208,
        "velocity": 0.71,
        "hand": "right"
      },
      {
        "midi": 69,
        "time": 82.5,
        "duration": 0.833,
        "velocity": 0.71,
        "hand": "right"
      },
      {
        "midi": 74,
        "time": 82.5,
        "duration": 0.208,
        "velocity": 0.71,
        "hand": "right"
      },
      {
        "midi": 64,
        "time": 82.708,
        "duration": 0.208,
        "velocity": 0.71,
        "hand": "right"
      },
      {
        "midi": 73,
        "time": 82.708,
        "duration": 0.208,
        "velocity": 0.71,
        "hand": "right"
      },
      {
        "midi": 62,
        "time": 82.917,
        "duration": 0.208,
        "velocity": 0.71,
        "hand": "right"
      },
      {
        "midi": 71,
        "time": 82.917,
        "duration": 0.208,
        "velocity": 0.71,
        "hand": "right"
      },
      {
        "midi": 61,
        "time": 83.125,
        "duration": 0.208,
        "velocity": 0.71,
        "hand": "right"
      },
      {
        "midi": 50,
        "time": 83.333,
        "duration": 0.104,
        "velocity": 0.71,
        "hand": "left"
      },
      {
        "midi": 54,
        "time": 83.438,
        "duration": 0.104,
        "velocity": 0.71,
        "hand": "left"
      },
      {
        "midi": 57,
        "time": 83.646,
        "duration": 0.104,
        "velocity": 0.71,
        "hand": "left"
      },
      {
        "midi": 42,
        "time": 83.75,
        "duration": 0.833,
        "velocity": 0.71,
        "hand": "left"
      },
      {
        "midi": 61,
        "time": 83.75,
        "duration": 0.104,
        "velocity": 0.71,
        "hand": "right"
      },
      {
        "midi": 59,
        "time": 83.854,
        "duration": 0.104,
        "velocity": 0.71,
        "hand": "left"
      },
      {
        "midi": 57,
        "time": 84.063,
        "duration": 0.104,
        "velocity": 0.71,
        "hand": "left"
      },
      {
        "midi": 56,
        "time": 84.167,
        "duration": 0.104,
        "velocity": 0.71,
        "hand": "left"
      },
      {
        "midi": 59,
        "time": 84.271,
        "duration": 0.104,
        "velocity": 0.71,
        "hand": "left"
      },
      {
        "midi": 62,
        "time": 84.479,
        "duration": 0.104,
        "velocity": 0.71,
        "hand": "right"
      },
      {
        "midi": 40,
        "time": 84.583,
        "duration": 0.417,
        "velocity": 0.71,
        "hand": "left"
      },
      {
        "midi": 66,
        "time": 84.583,
        "duration": 0.104,
        "velocity": 0.71,
        "hand": "right"
      },
      {
        "midi": 64,
        "time": 84.688,
        "duration": 0.104,
        "velocity": 0.71,
        "hand": "right"
      },
      {
        "midi": 62,
        "time": 84.896,
        "duration": 0.104,
        "velocity": 0.71,
        "hand": "right"
      },
      {
        "midi": 61,
        "time": 85,
        "duration": 0.104,
        "velocity": 0.71,
        "hand": "right"
      },
      {
        "midi": 64,
        "time": 85.104,
        "duration": 0.104,
        "velocity": 0.71,
        "hand": "right"
      },
      {
        "midi": 68,
        "time": 85.313,
        "duration": 0.104,
        "velocity": 0.71,
        "hand": "right"
      },
      {
        "midi": 33,
        "time": 85.417,
        "duration": 0.833,
        "velocity": 0.71,
        "hand": "left"
      },
      {
        "midi": 45,
        "time": 85.417,
        "duration": 0.833,
        "velocity": 0.71,
        "hand": "left"
      },
      {
        "midi": 71,
        "time": 85.417,
        "duration": 0.104,
        "velocity": 0.71,
        "hand": "right"
      },
      {
        "midi": 69,
        "time": 85.521,
        "duration": 0.104,
        "velocity": 0.71,
        "hand": "right"
      },
      {
        "midi": 68,
        "time": 85.729,
        "duration": 0.104,
        "velocity": 0.71,
        "hand": "right"
      },
      {
        "midi": 66,
        "time": 85.833,
        "duration": 0.104,
        "velocity": 0.71,
        "hand": "right"
      },
      {
        "midi": 69,
        "time": 85.938,
        "duration": 0.104,
        "velocity": 0.71,
        "hand": "right"
      },
      {
        "midi": 73,
        "time": 86.146,
        "duration": 0.104,
        "velocity": 0.71,
        "hand": "right"
      },
      {
        "midi": 38,
        "time": 86.25,
        "duration": 0.417,
        "velocity": 0.71,
        "hand": "left"
      },
      {
        "midi": 50,
        "time": 86.25,
        "duration": 0.417,
        "velocity": 0.71,
        "hand": "left"
      },
      {
        "midi": 76,
        "time": 86.25,
        "duration": 0.104,
        "velocity": 0.71,
        "hand": "right"
      },
      {
        "midi": 74,
        "time": 86.354,
        "duration": 0.104,
        "velocity": 0.71,
        "hand": "right"
      },
      {
        "midi": 73,
        "time": 86.563,
        "duration": 0.104,
        "velocity": 0.71,
        "hand": "right"
      },
      {
        "midi": 71,
        "time": 86.667,
        "duration": 0.104,
        "velocity": 0.71,
        "hand": "right"
      },
      {
        "midi": 74,
        "time": 86.771,
        "duration": 0.104,
        "velocity": 0.71,
        "hand": "right"
      },
      {
        "midi": 78,
        "time": 86.979,
        "duration": 0.104,
        "velocity": 0.71,
        "hand": "right"
      },
      {
        "midi": 35,
        "time": 87.083,
        "duration": 0.208,
        "velocity": 0.71,
        "hand": "left"
      },
      {
        "midi": 47,
        "time": 87.083,
        "duration": 0.208,
        "velocity": 0.71,
        "hand": "left"
      },
      {
        "midi": 81,
        "time": 87.083,
        "duration": 0.625,
        "velocity": 0.71,
        "hand": "right"
      },
      {
        "midi": 54,
        "time": 87.5,
        "duration": 0.833,
        "velocity": 0.71,
        "hand": "left"
      },
      {
        "midi": 59,
        "time": 87.5,
        "duration": 0.833,
        "velocity": 0.71,
        "hand": "left"
      },
      {
        "midi": 62,
        "time": 87.5,
        "duration": 0.833,
        "velocity": 0.71,
        "hand": "right"
      },
      {
        "midi": 66,
        "time": 87.5,
        "duration": 0.833,
        "velocity": 0.71,
        "hand": "right"
      },
      {
        "midi": 71,
        "time": 87.5,
        "duration": 0.833,
        "velocity": 0.71,
        "hand": "right"
      },
      {
        "midi": 74,
        "time": 87.5,
        "duration": 0.833,
        "velocity": 0.71,
        "hand": "right"
      },
      {
        "midi": 80,
        "time": 87.708,
        "duration": 0.208,
        "velocity": 0.71,
        "hand": "right"
      },
      {
        "midi": 78,
        "time": 87.917,
        "duration": 0.208,
        "velocity": 0.71,
        "hand": "right"
      },
      {
        "midi": 80,
        "time": 88.125,
        "duration": 0.208,
        "velocity": 0.71,
        "hand": "right"
      },
      {
        "midi": 71,
        "time": 88.333,
        "duration": 0.104,
        "velocity": 0.71,
        "hand": "right"
      },
      {
        "midi": 74,
        "time": 88.438,
        "duration": 0.104,
        "velocity": 0.71,
        "hand": "right"
      },
      {
        "midi": 78,
        "time": 88.646,
        "duration": 0.104,
        "velocity": 0.71,
        "hand": "right"
      },
      {
        "midi": 38,
        "time": 88.75,
        "duration": 0.208,
        "velocity": 0.71,
        "hand": "left"
      },
      {
        "midi": 50,
        "time": 88.75,
        "duration": 0.208,
        "velocity": 0.71,
        "hand": "left"
      },
      {
        "midi": 81,
        "time": 88.75,
        "duration": 0.625,
        "velocity": 0.71,
        "hand": "right"
      },
      {
        "midi": 54,
        "time": 89.167,
        "duration": 0.833,
        "velocity": 0.71,
        "hand": "left"
      },
      {
        "midi": 59,
        "time": 89.167,
        "duration": 0.833,
        "velocity": 0.71,
        "hand": "left"
      },
      {
        "midi": 62,
        "time": 89.167,
        "duration": 0.833,
        "velocity": 0.71,
        "hand": "right"
      },
      {
        "midi": 66,
        "time": 89.167,
        "duration": 0.833,
        "velocity": 0.71,
        "hand": "right"
      },
      {
        "midi": 71,
        "time": 89.167,
        "duration": 0.833,
        "velocity": 0.71,
        "hand": "right"
      },
      {
        "midi": 74,
        "time": 89.167,
        "duration": 0.833,
        "velocity": 0.71,
        "hand": "right"
      },
      {
        "midi": 80,
        "time": 89.375,
        "duration": 0.208,
        "velocity": 0.71,
        "hand": "right"
      },
      {
        "midi": 78,
        "time": 89.583,
        "duration": 0.208,
        "velocity": 0.71,
        "hand": "right"
      },
      {
        "midi": 80,
        "time": 89.792,
        "duration": 0.208,
        "velocity": 0.71,
        "hand": "right"
      },
      {
        "midi": 52,
        "time": 90,
        "duration": 0.833,
        "velocity": 0.71,
        "hand": "left"
      },
      {
        "midi": 62,
        "time": 90,
        "duration": 1.667,
        "velocity": 0.71,
        "hand": "right"
      },
      {
        "midi": 68,
        "time": 90,
        "duration": 0.833,
        "velocity": 0.71,
        "hand": "right"
      },
      {
        "midi": 76,
        "time": 90,
        "duration": 0.104,
        "velocity": 0.71,
        "hand": "right"
      },
      {
        "midi": 74,
        "time": 90.104,
        "duration": 0.104,
        "velocity": 0.71,
        "hand": "right"
      },
      {
        "midi": 76,
        "time": 90.313,
        "duration": 0.104,
        "velocity": 0.71,
        "hand": "right"
      },
      {
        "midi": 73,
        "time": 90.417,
        "duration": 0.625,
        "velocity": 0.71,
        "hand": "right"
      },
      {
        "midi": 54,
        "time": 90.833,
        "duration": 0.417,
        "velocity": 0.71,
        "hand": "left"
      },
      {
        "midi": 66,
        "time": 90.833,
        "duration": 0.417,
        "velocity": 0.71,
        "hand": "right"
      },
      {
        "midi": 71,
        "time": 91.042,
        "duration": 0.208,
        "velocity": 0.71,
        "hand": "right"
      },
      {
        "midi": 56,
        "time": 91.25,
        "duration": 0.417,
        "velocity": 0.71,
        "hand": "left"
      },
      {
        "midi": 65,
        "time": 91.25,
        "duration": 0.417,
        "velocity": 0.71,
        "hand": "right"
      },
      {
        "midi": 71,
        "time": 91.25,
        "duration": 0.208,
        "velocity": 0.71,
        "hand": "right"
      },
      {
        "midi": 73,
        "time": 91.458,
        "duration": 0.208,
        "velocity": 0.71,
        "hand": "right"
      },
      {
        "midi": 57,
        "time": 91.667,
        "duration": 0.833,
        "velocity": 0.71,
        "hand": "left"
      },
      {
        "midi": 61,
        "time": 91.667,
        "duration": 0.833,
        "velocity": 0.71,
        "hand": "right"
      },
      {
        "midi": 64,
        "time": 91.667,
        "duration": 0.833,
        "velocity": 0.71,
        "hand": "right"
      },
      {
        "midi": 69,
        "time": 91.667,
        "duration": 0.417,
        "velocity": 0.71,
        "hand": "right"
      },
      {
        "midi": 66,
        "time": 92.083,
        "duration": 0.833,
        "velocity": 0.71,
        "hand": "right"
      },
      {
        "midi": 47,
        "time": 92.5,
        "duration": 0.833,
        "velocity": 0.71,
        "hand": "left"
      },
      {
        "midi": 57,
        "time": 92.5,
        "duration": 0.833,
        "velocity": 0.71,
        "hand": "left"
      },
      {
        "midi": 63,
        "time": 92.5,
        "duration": 0.833,
        "velocity": 0.71,
        "hand": "right"
      },
      {
        "midi": 68,
        "time": 92.917,
        "duration": 0.417,
        "velocity": 0.71,
        "hand": "right"
      },
      {
        "midi": 40,
        "time": 93.333,
        "duration": 0.417,
        "velocity": 0.71,
        "hand": "left"
      },
      {
        "midi": 47,
        "time": 93.333,
        "duration": 0.417,
        "velocity": 0.71,
        "hand": "left"
      },
      {
        "midi": 56,
        "time": 93.333,
        "duration": 0.417,
        "velocity": 0.71,
        "hand": "left"
      },
      {
        "midi": 62,
        "time": 93.333,
        "duration": 0.417,
        "velocity": 0.71,
        "hand": "right"
      },
      {
        "midi": 66,
        "time": 93.333,
        "duration": 0.208,
        "velocity": 0.71,
        "hand": "right"
      },
      {
        "midi": 64,
        "time": 93.542,
        "duration": 0.208,
        "velocity": 0.71,
        "hand": "right"
      },
      {
        "midi": 56,
        "time": 93.75,
        "duration": 1.25,
        "velocity": 0.71,
        "hand": "left"
      },
      {
        "midi": 62,
        "time": 93.75,
        "duration": 1.25,
        "velocity": 0.71,
        "hand": "right"
      },
      {
        "midi": 66,
        "time": 93.75,
        "duration": 0.833,
        "velocity": 0.71,
        "hand": "right"
      },
      {
        "midi": 71,
        "time": 93.75,
        "duration": 1.25,
        "velocity": 0.71,
        "hand": "right"
      },
      {
        "midi": 74,
        "time": 93.75,
        "duration": 1.25,
        "velocity": 0.71,
        "hand": "right"
      },
      {
        "midi": 78,
        "time": 93.75,
        "duration": 0.833,
        "velocity": 0.71,
        "hand": "right"
      },
      {
        "midi": 64,
        "time": 94.583,
        "duration": 0.417,
        "velocity": 0.71,
        "hand": "right"
      },
      {
        "midi": 76,
        "time": 94.583,
        "duration": 0.417,
        "velocity": 0.71,
        "hand": "right"
      },
      {
        "midi": 45,
        "time": 95,
        "duration": 0.417,
        "velocity": 0.71,
        "hand": "left"
      },
      {
        "midi": 52,
        "time": 95,
        "duration": 0.417,
        "velocity": 0.71,
        "hand": "left"
      },
      {
        "midi": 57,
        "time": 95,
        "duration": 0.417,
        "velocity": 0.71,
        "hand": "left"
      },
      {
        "midi": 61,
        "time": 95,
        "duration": 0.417,
        "velocity": 0.71,
        "hand": "right"
      },
      {
        "midi": 66,
        "time": 95,
        "duration": 0.208,
        "velocity": 0.71,
        "hand": "right"
      },
      {
        "midi": 64,
        "time": 95.208,
        "duration": 0.208,
        "velocity": 0.71,
        "hand": "right"
      },
      {
        "midi": 52,
        "time": 95.417,
        "duration": 1.25,
        "velocity": 0.71,
        "hand": "left"
      },
      {
        "midi": 57,
        "time": 95.417,
        "duration": 1.25,
        "velocity": 0.71,
        "hand": "left"
      },
      {
        "midi": 61,
        "time": 95.417,
        "duration": 1.25,
        "velocity": 0.71,
        "hand": "right"
      },
      {
        "midi": 64,
        "time": 95.417,
        "duration": 1.25,
        "velocity": 0.71,
        "hand": "right"
      },
      {
        "midi": 69,
        "time": 95.417,
        "duration": 1.25,
        "velocity": 0.71,
        "hand": "right"
      },
      {
        "midi": 73,
        "time": 95.417,
        "duration": 1.25,
        "velocity": 0.71,
        "hand": "right"
      },
      {
        "midi": 80,
        "time": 95.417,
        "duration": 0.625,
        "velocity": 0.71,
        "hand": "right"
      },
      {
        "midi": 83,
        "time": 96.042,
        "duration": 0.208,
        "velocity": 0.71,
        "hand": "right"
      },
      {
        "midi": 81,
        "time": 96.25,
        "duration": 0.208,
        "velocity": 0.71,
        "hand": "right"
      },
      {
        "midi": 78,
        "time": 96.458,
        "duration": 0.208,
        "velocity": 0.71,
        "hand": "right"
      },
      {
        "midi": 59,
        "time": 96.667,
        "duration": 0.208,
        "velocity": 0.71,
        "hand": "left"
      },
      {
        "midi": 66,
        "time": 96.667,
        "duration": 1.25,
        "velocity": 0.71,
        "hand": "right"
      },
      {
        "midi": 69,
        "time": 96.667,
        "duration": 1.25,
        "velocity": 0.71,
        "hand": "right"
      },
      {
        "midi": 76,
        "time": 96.667,
        "duration": 0.104,
        "velocity": 0.71,
        "hand": "right"
      },
      {
        "midi": 74,
        "time": 96.771,
        "duration": 0.104,
        "velocity": 0.71,
        "hand": "right"
      },
      {
        "midi": 61,
        "time": 96.875,
        "duration": 0.208,
        "velocity": 0.71,
        "hand": "right"
      },
      {
        "midi": 76,
        "time": 96.979,
        "duration": 0.104,
        "velocity": 0.71,
        "hand": "right"
      },
      {
        "midi": 62,
        "time": 97.083,
        "duration": 1.25,
        "velocity": 0.71,
        "hand": "right"
      },
      {
        "midi": 73,
        "time": 97.083,
        "duration": 0.625,
        "velocity": 0.71,
        "hand": "right"
      },
      {
        "midi": 71,
        "time": 97.708,
        "duration": 0.208,
        "velocity": 0.71,
        "hand": "right"
      },
      {
        "midi": 65,
        "time": 97.917,
        "duration": 0.417,
        "velocity": 0.71,
        "hand": "right"
      },
      {
        "midi": 68,
        "time": 97.917,
        "duration": 0.417,
        "velocity": 0.71,
        "hand": "right"
      },
      {
        "midi": 71,
        "time": 97.917,
        "duration": 0.208,
        "velocity": 0.71,
        "hand": "right"
      },
      {
        "midi": 73,
        "time": 98.125,
        "duration": 0.208,
        "velocity": 0.71,
        "hand": "right"
      },
      {
        "midi": 54,
        "time": 98.333,
        "duration": 0.833,
        "velocity": 0.71,
        "hand": "left"
      },
      {
        "midi": 61,
        "time": 98.333,
        "duration": 0.833,
        "velocity": 0.71,
        "hand": "right"
      },
      {
        "midi": 64,
        "time": 98.333,
        "duration": 0.833,
        "velocity": 0.71,
        "hand": "right"
      },
      {
        "midi": 69,
        "time": 98.333,
        "duration": 0.417,
        "velocity": 0.71,
        "hand": "right"
      },
      {
        "midi": 68,
        "time": 98.75,
        "duration": 0.625,
        "velocity": 0.71,
        "hand": "right"
      },
      {
        "midi": 47,
        "time": 99.167,
        "duration": 0.417,
        "velocity": 0.71,
        "hand": "left"
      },
      {
        "midi": 57,
        "time": 99.167,
        "duration": 0.417,
        "velocity": 0.71,
        "hand": "left"
      },
      {
        "midi": 63,
        "time": 99.167,
        "duration": 0.417,
        "velocity": 0.71,
        "hand": "right"
      },
      {
        "midi": 66,
        "time": 99.375,
        "duration": 0.208,
        "velocity": 0.71,
        "hand": "right"
      },
      {
        "midi": 45,
        "time": 99.583,
        "duration": 0.417,
        "velocity": 0.71,
        "hand": "left"
      },
      {
        "midi": 51,
        "time": 99.583,
        "duration": 0.417,
        "velocity": 0.71,
        "hand": "left"
      },
      {
        "midi": 61,
        "time": 99.583,
        "duration": 0.417,
        "velocity": 0.71,
        "hand": "right"
      },
      {
        "midi": 66,
        "time": 99.583,
        "duration": 0.208,
        "velocity": 0.71,
        "hand": "right"
      },
      {
        "midi": 68,
        "time": 99.792,
        "duration": 0.208,
        "velocity": 0.71,
        "hand": "right"
      },
      {
        "midi": 44,
        "time": 100,
        "duration": 0.417,
        "velocity": 0.71,
        "hand": "left"
      },
      {
        "midi": 52,
        "time": 100,
        "duration": 0.417,
        "velocity": 0.71,
        "hand": "left"
      },
      {
        "midi": 59,
        "time": 100,
        "duration": 0.417,
        "velocity": 0.71,
        "hand": "left"
      },
      {
        "midi": 66,
        "time": 100,
        "duration": 0.104,
        "velocity": 0.71,
        "hand": "right"
      },
      {
        "midi": 64,
        "time": 100.104,
        "duration": 0.104,
        "velocity": 0.71,
        "hand": "right"
      },
      {
        "midi": 42,
        "time": 100.417,
        "duration": 0.833,
        "velocity": 0.71,
        "hand": "left"
      },
      {
        "midi": 52,
        "time": 100.417,
        "duration": 0.833,
        "velocity": 0.71,
        "hand": "left"
      },
      {
        "midi": 57,
        "time": 100.417,
        "duration": 0.833,
        "velocity": 0.71,
        "hand": "left"
      },
      {
        "midi": 61,
        "time": 100.417,
        "duration": 0.833,
        "velocity": 0.71,
        "hand": "right"
      },
      {
        "midi": 35,
        "time": 101.25,
        "duration": 0.417,
        "velocity": 0.71,
        "hand": "left"
      },
      {
        "midi": 47,
        "time": 101.25,
        "duration": 0.417,
        "velocity": 0.71,
        "hand": "left"
      },
      {
        "midi": 57,
        "time": 101.25,
        "duration": 0.417,
        "velocity": 0.71,
        "hand": "left"
      },
      {
        "midi": 61,
        "time": 101.25,
        "duration": 0.417,
        "velocity": 0.71,
        "hand": "right"
      },
      {
        "midi": 64,
        "time": 101.25,
        "duration": 0.417,
        "velocity": 0.71,
        "hand": "right"
      },
      {
        "midi": 40,
        "time": 101.667,
        "duration": 0.833,
        "velocity": 0.71,
        "hand": "left"
      },
      {
        "midi": 47,
        "time": 101.667,
        "duration": 0.833,
        "velocity": 0.71,
        "hand": "left"
      },
      {
        "midi": 57,
        "time": 101.667,
        "duration": 0.417,
        "velocity": 0.71,
        "hand": "left"
      },
      {
        "midi": 59,
        "time": 101.667,
        "duration": 1.25,
        "velocity": 0.71,
        "hand": "left"
      },
      {
        "midi": 64,
        "time": 101.667,
        "duration": 1.25,
        "velocity": 0.71,
        "hand": "right"
      },
      {
        "midi": 56,
        "time": 102.083,
        "duration": 0.833,
        "velocity": 0.71,
        "hand": "left"
      },
      {
        "midi": 40,
        "time": 102.5,
        "duration": 0.417,
        "velocity": 0.71,
        "hand": "left"
      },
      {
        "midi": 52,
        "time": 102.917,
        "duration": 0.417,
        "velocity": 0.71,
        "hand": "left"
      },
      {
        "midi": 40,
        "time": 103.333,
        "duration": 0.417,
        "velocity": 0.71,
        "hand": "left"
      },
      {
        "midi": 48,
        "time": 103.333,
        "duration": 0.417,
        "velocity": 0.71,
        "hand": "left"
      },
      {
        "midi": 55,
        "time": 103.333,
        "duration": 0.417,
        "velocity": 0.71,
        "hand": "left"
      },
      {
        "midi": 60,
        "time": 103.333,
        "duration": 0.417,
        "velocity": 0.71,
        "hand": "right"
      },
      {
        "midi": 67,
        "time": 103.333,
        "duration": 0.104,
        "velocity": 0.71,
        "hand": "right"
      },
      {
        "midi": 65,
        "time": 103.438,
        "duration": 0.104,
        "velocity": 0.71,
        "hand": "right"
      },
      {
        "midi": 67,
        "time": 103.646,
        "duration": 0.104,
        "velocity": 0.71,
        "hand": "right"
      },
      {
        "midi": 41,
        "time": 103.75,
        "duration": 0.833,
        "velocity": 0.71,
        "hand": "left"
      },
      {
        "midi": 48,
        "time": 103.75,
        "duration": 0.833,
        "velocity": 0.71,
        "hand": "left"
      },
      {
        "midi": 57,
        "time": 103.75,
        "duration": 0.833,
        "velocity": 0.71,
        "hand": "left"
      },
      {
        "midi": 60,
        "time": 103.75,
        "duration": 0.833,
        "velocity": 0.71,
        "hand": "right"
      },
      {
        "midi": 64,
        "time": 103.75,
        "duration": 0.833,
        "velocity": 0.71,
        "hand": "right"
      },
      {
        "midi": 43,
        "time": 104.583,
        "duration": 0.417,
        "velocity": 0.71,
        "hand": "left"
      },
      {
        "midi": 53,
        "time": 104.583,
        "duration": 0.417,
        "velocity": 0.71,
        "hand": "left"
      },
      {
        "midi": 59,
        "time": 104.583,
        "duration": 0.417,
        "velocity": 0.71,
        "hand": "left"
      },
      {
        "midi": 62,
        "time": 104.583,
        "duration": 0.417,
        "velocity": 0.71,
        "hand": "right"
      },
      {
        "midi": 45,
        "time": 105,
        "duration": 0.417,
        "velocity": 0.71,
        "hand": "left"
      },
      {
        "midi": 52,
        "time": 105,
        "duration": 0.417,
        "velocity": 0.71,
        "hand": "left"
      },
      {
        "midi": 57,
        "time": 105,
        "duration": 0.417,
        "velocity": 0.71,
        "hand": "left"
      },
      {
        "midi": 60,
        "time": 105,
        "duration": 0.417,
        "velocity": 0.71,
        "hand": "right"
      },
      {
        "midi": 47,
        "time": 105.417,
        "duration": 0.833,
        "velocity": 0.71,
        "hand": "left"
      },
      {
        "midi": 50,
        "time": 105.417,
        "duration": 0.833,
        "velocity": 0.71,
        "hand": "left"
      },
      {
        "midi": 53,
        "time": 105.417,
        "duration": 0.833,
        "velocity": 0.71,
        "hand": "left"
      },
      {
        "midi": 55,
        "time": 105.417,
        "duration": 0.833,
        "velocity": 0.71,
        "hand": "left"
      },
      {
        "midi": 45,
        "time": 106.25,
        "duration": 0.417,
        "velocity": 0.71,
        "hand": "left"
      },
      {
        "midi": 52,
        "time": 106.25,
        "duration": 0.417,
        "velocity": 0.71,
        "hand": "left"
      },
      {
        "midi": 57,
        "time": 106.25,
        "duration": 0.417,
        "velocity": 0.71,
        "hand": "left"
      },
      {
        "midi": 60,
        "time": 106.25,
        "duration": 0.417,
        "velocity": 0.71,
        "hand": "right"
      },
      {
        "midi": 43,
        "time": 106.667,
        "duration": 0.417,
        "velocity": 0.71,
        "hand": "left"
      },
      {
        "midi": 53,
        "time": 106.667,
        "duration": 0.417,
        "velocity": 0.71,
        "hand": "left"
      },
      {
        "midi": 59,
        "time": 106.667,
        "duration": 0.417,
        "velocity": 0.71,
        "hand": "left"
      },
      {
        "midi": 62,
        "time": 106.667,
        "duration": 0.417,
        "velocity": 0.71,
        "hand": "right"
      },
      {
        "midi": 41,
        "time": 107.083,
        "duration": 0.417,
        "velocity": 0.71,
        "hand": "left"
      },
      {
        "midi": 57,
        "time": 107.083,
        "duration": 0.417,
        "velocity": 0.71,
        "hand": "left"
      },
      {
        "midi": 60,
        "time": 107.083,
        "duration": 0.417,
        "velocity": 0.71,
        "hand": "right"
      },
      {
        "midi": 65,
        "time": 107.083,
        "duration": 0.417,
        "velocity": 0.71,
        "hand": "right"
      },
      {
        "midi": 40,
        "time": 107.5,
        "duration": 0.417,
        "velocity": 0.71,
        "hand": "left"
      },
      {
        "midi": 55,
        "time": 107.5,
        "duration": 0.417,
        "velocity": 0.71,
        "hand": "left"
      },
      {
        "midi": 60,
        "time": 107.5,
        "duration": 0.417,
        "velocity": 0.71,
        "hand": "right"
      },
      {
        "midi": 67,
        "time": 107.5,
        "duration": 0.417,
        "velocity": 0.71,
        "hand": "right"
      },
      {
        "midi": 38,
        "time": 107.917,
        "duration": 0.417,
        "velocity": 0.71,
        "hand": "left"
      },
      {
        "midi": 50,
        "time": 107.917,
        "duration": 0.417,
        "velocity": 0.71,
        "hand": "left"
      },
      {
        "midi": 60,
        "time": 107.917,
        "duration": 0.417,
        "velocity": 0.71,
        "hand": "right"
      },
      {
        "midi": 65,
        "time": 107.917,
        "duration": 0.417,
        "velocity": 0.71,
        "hand": "right"
      },
      {
        "midi": 69,
        "time": 107.917,
        "duration": 0.208,
        "velocity": 0.71,
        "hand": "right"
      },
      {
        "midi": 72,
        "time": 108.125,
        "duration": 0.208,
        "velocity": 0.71,
        "hand": "right"
      },
      {
        "midi": 31,
        "time": 108.333,
        "duration": 0.208,
        "velocity": 0.71,
        "hand": "left"
      },
      {
        "midi": 65,
        "time": 108.333,
        "duration": 1.667,
        "velocity": 0.71,
        "hand": "right"
      },
      {
        "midi": 71,
        "time": 108.333,
        "duration": 0.833,
        "velocity": 0.71,
        "hand": "right"
      },
      {
        "midi": 74,
        "time": 108.333,
        "duration": 0.833,
        "velocity": 0.71,
        "hand": "right"
      },
      {
        "midi": 43,
        "time": 108.542,
        "duration": 0.208,
        "velocity": 0.71,
        "hand": "left"
      },
      {
        "midi": 50,
        "time": 108.75,
        "duration": 0.208,
        "velocity": 0.71,
        "hand": "left"
      },
      {
        "midi": 53,
        "time": 108.958,
        "duration": 0.208,
        "velocity": 0.71,
        "hand": "left"
      },
      {
        "midi": 55,
        "time": 109.167,
        "duration": 0.208,
        "velocity": 0.71,
        "hand": "left"
      },
      {
        "midi": 67,
        "time": 109.167,
        "duration": 0.833,
        "velocity": 0.71,
        "hand": "right"
      },
      {
        "midi": 59,
        "time": 109.375,
        "duration": 0.208,
        "velocity": 0.71,
        "hand": "left"
      },
      {
        "midi": 62,
        "time": 109.583,
        "duration": 0.208,
        "velocity": 0.71,
        "hand": "right"
      },
      {
        "midi": 65,
        "time": 109.792,
        "duration": 0.208,
        "velocity": 0.71,
        "hand": "right"
      },
      {
        "midi": 64,
        "time": 110,
        "duration": 0.833,
        "velocity": 0.71,
        "hand": "right"
      },
      {
        "midi": 67,
        "time": 110,
        "duration": 0.833,
        "velocity": 0.71,
        "hand": "right"
      },
      {
        "midi": 72,
        "time": 110,
        "duration": 3.333,
        "velocity": 0.71,
        "hand": "right"
      },
      {
        "midi": 79,
        "time": 110,
        "duration": 0.104,
        "velocity": 0.71,
        "hand": "right"
      },
      {
        "midi": 77,
        "time": 110.104,
        "duration": 0.104,
        "velocity": 0.71,
        "hand": "right"
      },
      {
        "midi": 79,
        "time": 110.313,
        "duration": 0.104,
        "velocity": 0.71,
        "hand": "right"
      },
      {
        "midi": 76,
        "time": 110.417,
        "duration": 0.833,
        "velocity": 0.71,
        "hand": "right"
      },
      {
        "midi": 65,
        "time": 110.833,
        "duration": 0.833,
        "velocity": 0.71,
        "hand": "right"
      },
      {
        "midi": 69,
        "time": 110.833,
        "duration": 0.833,
        "velocity": 0.71,
        "hand": "right"
      },
      {
        "midi": 74,
        "time": 111.25,
        "duration": 0.417,
        "velocity": 0.71,
        "hand": "right"
      },
      {
        "midi": 67,
        "time": 111.667,
        "duration": 0.833,
        "velocity": 0.71,
        "hand": "right"
      },
      {
        "midi": 70,
        "time": 111.667,
        "duration": 0.833,
        "velocity": 0.71,
        "hand": "right"
      },
      {
        "midi": 76,
        "time": 111.667,
        "duration": 0.833,
        "velocity": 0.71,
        "hand": "right"
      },
      {
        "midi": 65,
        "time": 112.5,
        "duration": 0.833,
        "velocity": 0.71,
        "hand": "right"
      },
      {
        "midi": 69,
        "time": 112.5,
        "duration": 0.833,
        "velocity": 0.71,
        "hand": "right"
      },
      {
        "midi": 77,
        "time": 112.5,
        "duration": 0.833,
        "velocity": 0.71,
        "hand": "right"
      },
      {
        "midi": 64,
        "time": 113.333,
        "duration": 3.125,
        "velocity": 0.71,
        "hand": "right"
      },
      {
        "midi": 67,
        "time": 113.333,
        "duration": 1.667,
        "velocity": 0.71,
        "hand": "right"
      },
      {
        "midi": 72,
        "time": 113.333,
        "duration": 2.5,
        "velocity": 0.71,
        "hand": "right"
      },
      {
        "midi": 79,
        "time": 113.333,
        "duration": 0.104,
        "velocity": 0.71,
        "hand": "right"
      },
      {
        "midi": 77,
        "time": 113.438,
        "duration": 0.104,
        "velocity": 0.71,
        "hand": "right"
      },
      {
        "midi": 79,
        "time": 113.646,
        "duration": 0.104,
        "velocity": 0.71,
        "hand": "right"
      },
      {
        "midi": 76,
        "time": 113.75,
        "duration": 0.833,
        "velocity": 0.71,
        "hand": "right"
      },
      {
        "midi": 79,
        "time": 114.583,
        "duration": 0.417,
        "velocity": 0.71,
        "hand": "right"
      },
      {
        "midi": 68,
        "time": 115,
        "duration": 1.667,
        "velocity": 0.71,
        "hand": "right"
      },
      {
        "midi": 80,
        "time": 115,
        "duration": 0.104,
        "velocity": 0.71,
        "hand": "right"
      },
      {
        "midi": 78,
        "time": 115.104,
        "duration": 0.104,
        "velocity": 0.71,
        "hand": "right"
      },
      {
        "midi": 80,
        "time": 115.313,
        "duration": 0.104,
        "velocity": 0.71,
        "hand": "right"
      },
      {
        "midi": 76,
        "time": 115.417,
        "duration": 0.833,
        "velocity": 0.71,
        "hand": "right"
      },
      {
        "midi": 73,
        "time": 115.833,
        "duration": 0.833,
        "velocity": 0.71,
        "hand": "right"
      },
      {
        "midi": 80,
        "time": 116.25,
        "duration": 0.417,
        "velocity": 0.71,
        "hand": "right"
      },
      {
        "midi": 63,
        "time": 116.458,
        "duration": 0.208,
        "velocity": 0.71,
        "hand": "right"
      },
      {
        "midi": 61,
        "time": 116.667,
        "duration": 0.104,
        "velocity": 0.71,
        "hand": "right"
      },
      {
        "midi": 81,
        "time": 116.667,
        "duration": 0.833,
        "velocity": 0.71,
        "hand": "right"
      },
      {
        "midi": 64,
        "time": 116.771,
        "duration": 0.104,
        "velocity": 0.71,
        "hand": "right"
      },
      {
        "midi": 69,
        "time": 116.979,
        "duration": 0.104,
        "velocity": 0.71,
        "hand": "right"
      },
      {
        "midi": 73,
        "time": 117.083,
        "duration": 0.104,
        "velocity": 0.71,
        "hand": "right"
      },
      {
        "midi": 76,
        "time": 117.188,
        "duration": 0.104,
        "velocity": 0.71,
        "hand": "right"
      },
      {
        "midi": 78,
        "time": 117.396,
        "duration": 0.104,
        "velocity": 0.71,
        "hand": "right"
      },
      {
        "midi": 80,
        "time": 117.5,
        "duration": 0.833,
        "velocity": 0.71,
        "hand": "right"
      },
      {
        "midi": 75,
        "time": 117.604,
        "duration": 0.104,
        "velocity": 0.71,
        "hand": "right"
      },
      {
        "midi": 71,
        "time": 117.813,
        "duration": 0.104,
        "velocity": 0.71,
        "hand": "right"
      },
      {
        "midi": 68,
        "time": 117.917,
        "duration": 0.104,
        "velocity": 0.71,
        "hand": "right"
      },
      {
        "midi": 63,
        "time": 118.021,
        "duration": 0.104,
        "velocity": 0.71,
        "hand": "right"
      },
      {
        "midi": 59,
        "time": 118.229,
        "duration": 0.104,
        "velocity": 0.71,
        "hand": "left"
      },
      {
        "midi": 57,
        "time": 118.333,
        "duration": 0.104,
        "velocity": 0.71,
        "hand": "left"
      },
      {
        "midi": 78,
        "time": 118.333,
        "duration": 0.833,
        "velocity": 0.71,
        "hand": "right"
      },
      {
        "midi": 61,
        "time": 118.438,
        "duration": 0.104,
        "velocity": 0.71,
        "hand": "right"
      },
      {
        "midi": 66,
        "time": 118.646,
        "duration": 0.104,
        "velocity": 0.71,
        "hand": "right"
      },
      {
        "midi": 69,
        "time": 118.75,
        "duration": 0.104,
        "velocity": 0.71,
        "hand": "right"
      },
      {
        "midi": 73,
        "time": 118.854,
        "duration": 0.104,
        "velocity": 0.71,
        "hand": "right"
      },
      {
        "midi": 75,
        "time": 119.063,
        "duration": 0.104,
        "velocity": 0.71,
        "hand": "right"
      },
      {
        "midi": 76,
        "time": 119.167,
        "duration": 0.833,
        "velocity": 0.71,
        "hand": "right"
      },
      {
        "midi": 71,
        "time": 119.271,
        "duration": 0.104,
        "velocity": 0.71,
        "hand": "right"
      },
      {
        "midi": 68,
        "time": 119.479,
        "duration": 0.104,
        "velocity": 0.71,
        "hand": "right"
      },
      {
        "midi": 64,
        "time": 119.583,
        "duration": 0.104,
        "velocity": 0.71,
        "hand": "right"
      },
      {
        "midi": 59,
        "time": 119.688,
        "duration": 0.104,
        "velocity": 0.71,
        "hand": "left"
      },
      {
        "midi": 56,
        "time": 119.896,
        "duration": 0.104,
        "velocity": 0.71,
        "hand": "left"
      },
      {
        "midi": 54,
        "time": 120,
        "duration": 0.833,
        "velocity": 0.71,
        "hand": "left"
      },
      {
        "midi": 57,
        "time": 120.104,
        "duration": 0.104,
        "velocity": 0.71,
        "hand": "left"
      },
      {
        "midi": 61,
        "time": 120.313,
        "duration": 0.417,
        "velocity": 0.71,
        "hand": "right"
      },
      {
        "midi": 73,
        "time": 120.417,
        "duration": 0.417,
        "velocity": 0.71,
        "hand": "right"
      },
      {
        "midi": 66,
        "time": 120.521,
        "duration": 0.104,
        "velocity": 0.71,
        "hand": "right"
      },
      {
        "midi": 69,
        "time": 120.729,
        "duration": 0.521,
        "velocity": 0.71,
        "hand": "right"
      },
      {
        "midi": 52,
        "time": 120.833,
        "duration": 0.833,
        "velocity": 0.71,
        "hand": "left"
      },
      {
        "midi": 78,
        "time": 120.833,
        "duration": 0.417,
        "velocity": 0.71,
        "hand": "right"
      },
      {
        "midi": 57,
        "time": 120.938,
        "duration": 0.104,
        "velocity": 0.71,
        "hand": "left"
      },
      {
        "midi": 61,
        "time": 121.146,
        "duration": 0.417,
        "velocity": 0.71,
        "hand": "right"
      },
      {
        "midi": 73,
        "time": 121.25,
        "duration": 0.833,
        "velocity": 0.71,
        "hand": "right"
      },
      {
        "midi": 66,
        "time": 121.354,
        "duration": 0.104,
        "velocity": 0.71,
        "hand": "right"
      },
      {
        "midi": 69,
        "time": 121.563,
        "duration": 0.521,
        "velocity": 0.71,
        "hand": "right"
      },
      {
        "midi": 51,
        "time": 121.667,
        "duration": 0.833,
        "velocity": 0.71,
        "hand": "left"
      },
      {
        "midi": 57,
        "time": 121.771,
        "duration": 0.104,
        "velocity": 0.71,
        "hand": "left"
      },
      {
        "midi": 61,
        "time": 121.979,
        "duration": 0.417,
        "velocity": 0.71,
        "hand": "right"
      },
      {
        "midi": 73,
        "time": 122.083,
        "duration": 0.417,
        "velocity": 0.71,
        "hand": "right"
      },
      {
        "midi": 66,
        "time": 122.188,
        "duration": 0.104,
        "velocity": 0.71,
        "hand": "right"
      },
      {
        "midi": 69,
        "time": 122.396,
        "duration": 0.521,
        "velocity": 0.71,
        "hand": "right"
      },
      {
        "midi": 49,
        "time": 122.5,
        "duration": 0.833,
        "velocity": 0.71,
        "hand": "left"
      },
      {
        "midi": 78,
        "time": 122.5,
        "duration": 0.417,
        "velocity": 0.71,
        "hand": "right"
      },
      {
        "midi": 57,
        "time": 122.604,
        "duration": 0.104,
        "velocity": 0.71,
        "hand": "left"
      },
      {
        "midi": 64,
        "time": 122.813,
        "duration": 0.417,
        "velocity": 0.71,
        "hand": "right"
      },
      {
        "midi": 81,
        "time": 122.917,
        "duration": 0.833,
        "velocity": 0.71,
        "hand": "right"
      },
      {
        "midi": 69,
        "time": 123.021,
        "duration": 0.104,
        "velocity": 0.71,
        "hand": "right"
      },
      {
        "midi": 73,
        "time": 123.229,
        "duration": 0.104,
        "velocity": 0.71,
        "hand": "right"
      },
      {
        "midi": 47,
        "time": 123.333,
        "duration": 0.104,
        "velocity": 0.71,
        "hand": "left"
      },
      {
        "midi": 54,
        "time": 123.438,
        "duration": 0.104,
        "velocity": 0.71,
        "hand": "left"
      },
      {
        "midi": 57,
        "time": 123.646,
        "duration": 0.104,
        "velocity": 0.71,
        "hand": "left"
      },
      {
        "midi": 61,
        "time": 123.75,
        "duration": 0.104,
        "velocity": 0.71,
        "hand": "right"
      },
      {
        "midi": 81,
        "time": 123.75,
        "duration": 0.938,
        "velocity": 0.71,
        "hand": "right"
      },
      {
        "midi": 63,
        "time": 123.854,
        "duration": 0.104,
        "velocity": 0.71,
        "hand": "right"
      },
      {
        "midi": 66,
        "time": 124.063,
        "duration": 0.104,
        "velocity": 0.71,
        "hand": "right"
      },
      {
        "midi": 69,
        "time": 124.167,
        "duration": 0.104,
        "velocity": 0.71,
        "hand": "right"
      },
      {
        "midi": 73,
        "time": 124.271,
        "duration": 0.104,
        "velocity": 0.71,
        "hand": "right"
      },
      {
        "midi": 75,
        "time": 124.479,
        "duration": 0.104,
        "velocity": 0.71,
        "hand": "right"
      },
      {
        "midi": 73,
        "time": 124.583,
        "duration": 0.104,
        "velocity": 0.71,
        "hand": "right"
      },
      {
        "midi": 71,
        "time": 124.688,
        "duration": 0.104,
        "velocity": 0.71,
        "hand": "right"
      },
      {
        "midi": 80,
        "time": 124.688,
        "duration": 0.104,
        "velocity": 0.71,
        "hand": "right"
      },
      {
        "midi": 69,
        "time": 124.896,
        "duration": 0.104,
        "velocity": 0.71,
        "hand": "right"
      },
      {
        "midi": 78,
        "time": 124.896,
        "duration": 0.104,
        "velocity": 0.71,
        "hand": "right"
      },
      {
        "midi": 40,
        "time": 125,
        "duration": 0.208,
        "velocity": 0.71,
        "hand": "left"
      },
      {
        "midi": 47,
        "time": 125.208,
        "duration": 0.208,
        "velocity": 0.71,
        "hand": "left"
      },
      {
        "midi": 52,
        "time": 125.417,
        "duration": 0.208,
        "velocity": 0.71,
        "hand": "left"
      },
      {
        "midi": 76,
        "time": 125.417,
        "duration": 0.104,
        "velocity": 0.71,
        "hand": "right"
      },
      {
        "midi": 78,
        "time": 125.521,
        "duration": 0.104,
        "velocity": 0.71,
        "hand": "right"
      },
      {
        "midi": 56,
        "time": 125.625,
        "duration": 0.208,
        "velocity": 0.71,
        "hand": "left"
      },
      {
        "midi": 73,
        "time": 125.729,
        "duration": 0.104,
        "velocity": 0.71,
        "hand": "right"
      },
      {
        "midi": 59,
        "time": 125.833,
        "duration": 0.208,
        "velocity": 0.71,
        "hand": "left"
      },
      {
        "midi": 76,
        "time": 125.833,
        "duration": 0.104,
        "velocity": 0.71,
        "hand": "right"
      },
      {
        "midi": 71,
        "time": 125.938,
        "duration": 0.104,
        "velocity": 0.71,
        "hand": "right"
      },
      {
        "midi": 56,
        "time": 126.042,
        "duration": 0.208,
        "velocity": 0.71,
        "hand": "left"
      },
      {
        "midi": 73,
        "time": 126.146,
        "duration": 0.104,
        "velocity": 0.71,
        "hand": "right"
      },
      {
        "midi": 52,
        "time": 126.25,
        "duration": 0.208,
        "velocity": 0.71,
        "hand": "left"
      },
      {
        "midi": 68,
        "time": 126.25,
        "duration": 0.104,
        "velocity": 0.71,
        "hand": "right"
      },
      {
        "midi": 71,
        "time": 126.354,
        "duration": 0.104,
        "velocity": 0.71,
        "hand": "right"
      },
      {
        "midi": 47,
        "time": 126.458,
        "duration": 0.208,
        "velocity": 0.71,
        "hand": "left"
      },
      {
        "midi": 66,
        "time": 126.563,
        "duration": 0.104,
        "velocity": 0.71,
        "hand": "right"
      },
      {
        "midi": 40,
        "time": 126.667,
        "duration": 0.208,
        "velocity": 0.71,
        "hand": "left"
      },
      {
        "midi": 68,
        "time": 126.667,
        "duration": 0.104,
        "velocity": 0.71,
        "hand": "right"
      },
      {
        "midi": 64,
        "time": 126.771,
        "duration": 0.104,
        "velocity": 0.71,
        "hand": "right"
      },
      {
        "midi": 47,
        "time": 126.875,
        "duration": 0.208,
        "velocity": 0.71,
        "hand": "left"
      },
      {
        "midi": 68,
        "time": 126.979,
        "duration": 0.104,
        "velocity": 0.71,
        "hand": "right"
      },
      {
        "midi": 52,
        "time": 127.083,
        "duration": 0.208,
        "velocity": 0.71,
        "hand": "left"
      },
      {
        "midi": 63,
        "time": 127.083,
        "duration": 0.833,
        "velocity": 0.71,
        "hand": "right"
      },
      {
        "midi": 56,
        "time": 127.292,
        "duration": 0.208,
        "velocity": 0.71,
        "hand": "left"
      },
      {
        "midi": 61,
        "time": 127.5,
        "duration": 0.208,
        "velocity": 0.71,
        "hand": "right"
      },
      {
        "midi": 56,
        "time": 127.708,
        "duration": 0.208,
        "velocity": 0.71,
        "hand": "left"
      },
      {
        "midi": 52,
        "time": 127.917,
        "duration": 0.208,
        "velocity": 0.71,
        "hand": "left"
      },
      {
        "midi": 61,
        "time": 127.917,
        "duration": 0.417,
        "velocity": 0.71,
        "hand": "right"
      },
      {
        "midi": 47,
        "time": 128.125,
        "duration": 0.208,
        "velocity": 0.71,
        "hand": "left"
      },
      {
        "midi": 40,
        "time": 128.333,
        "duration": 0.208,
        "velocity": 0.71,
        "hand": "left"
      },
      {
        "midi": 59,
        "time": 128.333,
        "duration": 0.208,
        "velocity": 0.71,
        "hand": "left"
      },
      {
        "midi": 47,
        "time": 128.542,
        "duration": 0.208,
        "velocity": 0.71,
        "hand": "left"
      },
      {
        "midi": 52,
        "time": 128.75,
        "duration": 0.208,
        "velocity": 0.71,
        "hand": "left"
      },
      {
        "midi": 76,
        "time": 128.75,
        "duration": 0.104,
        "velocity": 0.71,
        "hand": "right"
      },
      {
        "midi": 78,
        "time": 128.854,
        "duration": 0.104,
        "velocity": 0.71,
        "hand": "right"
      },
      {
        "midi": 56,
        "time": 128.958,
        "duration": 0.208,
        "velocity": 0.71,
        "hand": "left"
      },
      {
        "midi": 73,
        "time": 129.063,
        "duration": 0.104,
        "velocity": 0.71,
        "hand": "right"
      },
      {
        "midi": 59,
        "time": 129.167,
        "duration": 0.208,
        "velocity": 0.71,
        "hand": "left"
      },
      {
        "midi": 76,
        "time": 129.167,
        "duration": 0.104,
        "velocity": 0.71,
        "hand": "right"
      },
      {
        "midi": 71,
        "time": 129.271,
        "duration": 0.104,
        "velocity": 0.71,
        "hand": "right"
      },
      {
        "midi": 56,
        "time": 129.375,
        "duration": 0.208,
        "velocity": 0.71,
        "hand": "left"
      },
      {
        "midi": 73,
        "time": 129.479,
        "duration": 0.104,
        "velocity": 0.71,
        "hand": "right"
      },
      {
        "midi": 52,
        "time": 129.583,
        "duration": 0.208,
        "velocity": 0.71,
        "hand": "left"
      },
      {
        "midi": 68,
        "time": 129.583,
        "duration": 0.104,
        "velocity": 0.71,
        "hand": "right"
      },
      {
        "midi": 71,
        "time": 129.688,
        "duration": 0.104,
        "velocity": 0.71,
        "hand": "right"
      },
      {
        "midi": 47,
        "time": 129.792,
        "duration": 0.208,
        "velocity": 0.71,
        "hand": "left"
      },
      {
        "midi": 66,
        "time": 129.896,
        "duration": 0.104,
        "velocity": 0.71,
        "hand": "right"
      },
      {
        "midi": 40,
        "time": 130,
        "duration": 0.208,
        "velocity": 0.71,
        "hand": "left"
      },
      {
        "midi": 68,
        "time": 130,
        "duration": 0.104,
        "velocity": 0.71,
        "hand": "right"
      },
      {
        "midi": 64,
        "time": 130.104,
        "duration": 0.104,
        "velocity": 0.71,
        "hand": "right"
      },
      {
        "midi": 47,
        "time": 130.208,
        "duration": 0.208,
        "velocity": 0.71,
        "hand": "left"
      },
      {
        "midi": 68,
        "time": 130.313,
        "duration": 0.104,
        "velocity": 0.71,
        "hand": "right"
      },
      {
        "midi": 52,
        "time": 130.417,
        "duration": 0.208,
        "velocity": 0.71,
        "hand": "left"
      },
      {
        "midi": 63,
        "time": 130.417,
        "duration": 0.833,
        "velocity": 0.71,
        "hand": "right"
      },
      {
        "midi": 56,
        "time": 130.625,
        "duration": 0.208,
        "velocity": 0.71,
        "hand": "left"
      },
      {
        "midi": 61,
        "time": 130.833,
        "duration": 0.208,
        "velocity": 0.71,
        "hand": "right"
      },
      {
        "midi": 56,
        "time": 131.042,
        "duration": 0.208,
        "velocity": 0.71,
        "hand": "left"
      },
      {
        "midi": 52,
        "time": 131.25,
        "duration": 0.208,
        "velocity": 0.71,
        "hand": "left"
      },
      {
        "midi": 61,
        "time": 131.25,
        "duration": 0.417,
        "velocity": 0.71,
        "hand": "right"
      },
      {
        "midi": 47,
        "time": 131.458,
        "duration": 0.208,
        "velocity": 0.71,
        "hand": "left"
      },
      {
        "midi": 42,
        "time": 131.667,
        "duration": 0.208,
        "velocity": 0.71,
        "hand": "left"
      },
      {
        "midi": 59,
        "time": 131.667,
        "duration": 0.104,
        "velocity": 0.71,
        "hand": "left"
      },
      {
        "midi": 57,
        "time": 131.771,
        "duration": 0.104,
        "velocity": 0.71,
        "hand": "left"
      },
      {
        "midi": 49,
        "time": 131.875,
        "duration": 0.208,
        "velocity": 0.71,
        "hand": "left"
      },
      {
        "midi": 59,
        "time": 131.979,
        "duration": 0.104,
        "velocity": 0.71,
        "hand": "left"
      },
      {
        "midi": 52,
        "time": 132.083,
        "duration": 0.208,
        "velocity": 0.71,
        "hand": "left"
      },
      {
        "midi": 61,
        "time": 132.083,
        "duration": 0.625,
        "velocity": 0.71,
        "hand": "right"
      },
      {
        "midi": 54,
        "time": 132.292,
        "duration": 0.208,
        "velocity": 0.71,
        "hand": "left"
      },
      {
        "midi": 57,
        "time": 132.5,
        "duration": 0.208,
        "velocity": 0.71,
        "hand": "left"
      },
      {
        "midi": 54,
        "time": 132.708,
        "duration": 0.208,
        "velocity": 0.71,
        "hand": "left"
      },
      {
        "midi": 64,
        "time": 132.708,
        "duration": 0.208,
        "velocity": 0.71,
        "hand": "right"
      },
      {
        "midi": 52,
        "time": 132.917,
        "duration": 0.208,
        "velocity": 0.71,
        "hand": "left"
      },
      {
        "midi": 63,
        "time": 132.917,
        "duration": 0.208,
        "velocity": 0.71,
        "hand": "right"
      },
      {
        "midi": 49,
        "time": 133.125,
        "duration": 0.208,
        "velocity": 0.71,
        "hand": "left"
      },
      {
        "midi": 64,
        "time": 133.125,
        "duration": 0.208,
        "velocity": 0.71,
        "hand": "right"
      },
      {
        "midi": 44,
        "time": 133.333,
        "duration": 0.208,
        "velocity": 0.71,
        "hand": "left"
      },
      {
        "midi": 61,
        "time": 133.333,
        "duration": 0.417,
        "velocity": 0.71,
        "hand": "right"
      },
      {
        "midi": 49,
        "time": 133.542,
        "duration": 0.208,
        "velocity": 0.71,
        "hand": "left"
      },
      {
        "midi": 52,
        "time": 133.75,
        "duration": 0.208,
        "velocity": 0.71,
        "hand": "left"
      },
      {
        "midi": 68,
        "time": 133.75,
        "duration": 0.833,
        "velocity": 0.71,
        "hand": "right"
      },
      {
        "midi": 56,
        "time": 133.958,
        "duration": 0.208,
        "velocity": 0.71,
        "hand": "left"
      },
      {
        "midi": 59,
        "time": 134.167,
        "duration": 0.208,
        "velocity": 0.71,
        "hand": "left"
      },
      {
        "midi": 56,
        "time": 134.375,
        "duration": 0.208,
        "velocity": 0.71,
        "hand": "left"
      },
      {
        "midi": 52,
        "time": 134.583,
        "duration": 0.208,
        "velocity": 0.71,
        "hand": "left"
      },
      {
        "midi": 64,
        "time": 134.583,
        "duration": 0.417,
        "velocity": 0.71,
        "hand": "right"
      },
      {
        "midi": 49,
        "time": 134.792,
        "duration": 0.208,
        "velocity": 0.71,
        "hand": "left"
      },
      {
        "midi": 45,
        "time": 135,
        "duration": 0.208,
        "velocity": 0.71,
        "hand": "left"
      },
      {
        "midi": 63,
        "time": 135,
        "duration": 0.104,
        "velocity": 0.71,
        "hand": "right"
      },
      {
        "midi": 61,
        "time": 135.104,
        "duration": 0.104,
        "velocity": 0.71,
        "hand": "right"
      },
      {
        "midi": 52,
        "time": 135.208,
        "duration": 0.208,
        "velocity": 0.71,
        "hand": "left"
      },
      {
        "midi": 63,
        "time": 135.313,
        "duration": 0.104,
        "velocity": 0.71,
        "hand": "right"
      },
      {
        "midi": 54,
        "time": 135.417,
        "duration": 0.208,
        "velocity": 0.71,
        "hand": "left"
      },
      {
        "midi": 64,
        "time": 135.417,
        "duration": 0.625,
        "velocity": 0.71,
        "hand": "right"
      },
      {
        "midi": 57,
        "time": 135.625,
        "duration": 0.208,
        "velocity": 0.71,
        "hand": "left"
      },
      {
        "midi": 61,
        "time": 135.833,
        "duration": 0.208,
        "velocity": 0.71,
        "hand": "right"
      },
      {
        "midi": 57,
        "time": 136.042,
        "duration": 0.208,
        "velocity": 0.71,
        "hand": "left"
      },
      {
        "midi": 68,
        "time": 136.042,
        "duration": 0.208,
        "velocity": 0.71,
        "hand": "right"
      },
      {
        "midi": 54,
        "time": 136.25,
        "duration": 0.208,
        "velocity": 0.71,
        "hand": "left"
      },
      {
        "midi": 66,
        "time": 136.25,
        "duration": 0.208,
        "velocity": 0.71,
        "hand": "right"
      },
      {
        "midi": 52,
        "time": 136.458,
        "duration": 0.208,
        "velocity": 0.71,
        "hand": "left"
      },
      {
        "midi": 68,
        "time": 136.458,
        "duration": 0.208,
        "velocity": 0.71,
        "hand": "right"
      },
      {
        "midi": 46,
        "time": 136.667,
        "duration": 0.208,
        "velocity": 0.71,
        "hand": "left"
      },
      {
        "midi": 64,
        "time": 136.667,
        "duration": 0.417,
        "velocity": 0.71,
        "hand": "right"
      },
      {
        "midi": 52,
        "time": 136.875,
        "duration": 0.208,
        "velocity": 0.71,
        "hand": "left"
      },
      {
        "midi": 56,
        "time": 137.083,
        "duration": 0.208,
        "velocity": 0.71,
        "hand": "left"
      },
      {
        "midi": 73,
        "time": 137.083,
        "duration": 0.833,
        "velocity": 0.71,
        "hand": "right"
      },
      {
        "midi": 61,
        "time": 137.292,
        "duration": 0.208,
        "velocity": 0.71,
        "hand": "right"
      },
      {
        "midi": 49,
        "time": 137.5,
        "duration": 0.208,
        "velocity": 0.71,
        "hand": "left"
      },
      {
        "midi": 54,
        "time": 137.708,
        "duration": 0.208,
        "velocity": 0.71,
        "hand": "left"
      },
      {
        "midi": 58,
        "time": 137.917,
        "duration": 0.208,
        "velocity": 0.71,
        "hand": "left"
      },
      {
        "midi": 70,
        "time": 137.917,
        "duration": 0.104,
        "velocity": 0.71,
        "hand": "right"
      },
      {
        "midi": 73,
        "time": 138.021,
        "duration": 0.104,
        "velocity": 0.71,
        "hand": "right"
      },
      {
        "midi": 64,
        "time": 138.125,
        "duration": 0.208,
        "velocity": 0.71,
        "hand": "right"
      },
      {
        "midi": 70,
        "time": 138.229,
        "duration": 0.104,
        "velocity": 0.71,
        "hand": "right"
      },
      {
        "midi": 52,
        "time": 138.333,
        "duration": 0.208,
        "velocity": 0.71,
        "hand": "left"
      },
      {
        "midi": 68,
        "time": 138.333,
        "duration": 0.417,
        "velocity": 0.71,
        "hand": "right"
      },
      {
        "midi": 58,
        "time": 138.542,
        "duration": 0.208,
        "velocity": 0.71,
        "hand": "left"
      },
      {
        "midi": 61,
        "time": 138.75,
        "duration": 0.208,
        "velocity": 0.71,
        "hand": "right"
      },
      {
        "midi": 76,
        "time": 138.75,
        "duration": 0.833,
        "velocity": 0.71,
        "hand": "right"
      },
      {
        "midi": 68,
        "time": 138.958,
        "duration": 0.208,
        "velocity": 0.71,
        "hand": "right"
      },
      {
        "midi": 54,
        "time": 139.167,
        "duration": 0.208,
        "velocity": 0.71,
        "hand": "left"
      },
      {
        "midi": 61,
        "time": 139.375,
        "duration": 0.208,
        "velocity": 0.71,
        "hand": "right"
      },
      {
        "midi": 64,
        "time": 139.583,
        "duration": 0.208,
        "velocity": 0.71,
        "hand": "right"
      },
      {
        "midi": 73,
        "time": 139.583,
        "duration": 0.104,
        "velocity": 0.71,
        "hand": "right"
      },
      {
        "midi": 76,
        "time": 139.688,
        "duration": 0.104,
        "velocity": 0.71,
        "hand": "right"
      },
      {
        "midi": 70,
        "time": 139.792,
        "duration": 0.208,
        "velocity": 0.71,
        "hand": "right"
      },
      {
        "midi": 73,
        "time": 139.896,
        "duration": 0.104,
        "velocity": 0.71,
        "hand": "right"
      },
      {
        "midi": 58,
        "time": 140,
        "duration": 0.208,
        "velocity": 0.71,
        "hand": "left"
      },
      {
        "midi": 80,
        "time": 140,
        "duration": 0.625,
        "velocity": 0.71,
        "hand": "right"
      },
      {
        "midi": 64,
        "time": 140.208,
        "duration": 0.208,
        "velocity": 0.71,
        "hand": "right"
      },
      {
        "midi": 68,
        "time": 140.417,
        "duration": 0.208,
        "velocity": 0.71,
        "hand": "right"
      },
      {
        "midi": 73,
        "time": 140.625,
        "duration": 0.208,
        "velocity": 0.71,
        "hand": "right"
      },
      {
        "midi": 78,
        "time": 140.625,
        "duration": 0.208,
        "velocity": 0.71,
        "hand": "right"
      },
      {
        "midi": 61,
        "time": 140.833,
        "duration": 0.208,
        "velocity": 0.71,
        "hand": "right"
      },
      {
        "midi": 80,
        "time": 140.833,
        "duration": 0.625,
        "velocity": 0.71,
        "hand": "right"
      },
      {
        "midi": 66,
        "time": 141.042,
        "duration": 0.208,
        "velocity": 0.71,
        "hand": "right"
      },
      {
        "midi": 70,
        "time": 141.25,
        "duration": 0.208,
        "velocity": 0.71,
        "hand": "right"
      },
      {
        "midi": 76,
        "time": 141.458,
        "duration": 0.208,
        "velocity": 0.71,
        "hand": "right"
      },
      {
        "midi": 78,
        "time": 141.458,
        "duration": 0.208,
        "velocity": 0.71,
        "hand": "right"
      },
      {
        "midi": 58,
        "time": 141.667,
        "duration": 0.208,
        "velocity": 0.71,
        "hand": "left"
      },
      {
        "midi": 80,
        "time": 141.667,
        "duration": 0.625,
        "velocity": 0.71,
        "hand": "right"
      },
      {
        "midi": 64,
        "time": 141.875,
        "duration": 0.208,
        "velocity": 0.71,
        "hand": "right"
      },
      {
        "midi": 68,
        "time": 142.083,
        "duration": 0.208,
        "velocity": 0.71,
        "hand": "right"
      },
      {
        "midi": 73,
        "time": 142.292,
        "duration": 0.208,
        "velocity": 0.71,
        "hand": "right"
      },
      {
        "midi": 78,
        "time": 142.292,
        "duration": 0.208,
        "velocity": 0.71,
        "hand": "right"
      },
      {
        "midi": 61,
        "time": 142.5,
        "duration": 0.208,
        "velocity": 0.71,
        "hand": "right"
      },
      {
        "midi": 80,
        "time": 142.5,
        "duration": 0.208,
        "velocity": 0.71,
        "hand": "right"
      },
      {
        "midi": 66,
        "time": 142.708,
        "duration": 0.208,
        "velocity": 0.71,
        "hand": "right"
      },
      {
        "midi": 78,
        "time": 142.708,
        "duration": 0.417,
        "velocity": 0.71,
        "hand": "right"
      },
      {
        "midi": 70,
        "time": 142.917,
        "duration": 0.208,
        "velocity": 0.71,
        "hand": "right"
      },
      {
        "midi": 76,
        "time": 143.125,
        "duration": 0.208,
        "velocity": 0.71,
        "hand": "right"
      },
      {
        "midi": 80,
        "time": 143.125,
        "duration": 0.208,
        "velocity": 0.71,
        "hand": "right"
      },
      {
        "midi": 61,
        "time": 143.333,
        "duration": 0.104,
        "velocity": 0.71,
        "hand": "right"
      },
      {
        "midi": 81,
        "time": 143.333,
        "duration": 0.833,
        "velocity": 0.71,
        "hand": "right"
      },
      {
        "midi": 64,
        "time": 143.438,
        "duration": 0.104,
        "velocity": 0.71,
        "hand": "right"
      },
      {
        "midi": 69,
        "time": 143.646,
        "duration": 0.104,
        "velocity": 0.71,
        "hand": "right"
      },
      {
        "midi": 73,
        "time": 143.75,
        "duration": 0.104,
        "velocity": 0.71,
        "hand": "right"
      },
      {
        "midi": 76,
        "time": 143.854,
        "duration": 0.104,
        "velocity": 0.71,
        "hand": "right"
      },
      {
        "midi": 78,
        "time": 144.063,
        "duration": 0.104,
        "velocity": 0.71,
        "hand": "right"
      },
      {
        "midi": 80,
        "time": 144.167,
        "duration": 0.833,
        "velocity": 0.71,
        "hand": "right"
      },
      {
        "midi": 75,
        "time": 144.271,
        "duration": 0.104,
        "velocity": 0.71,
        "hand": "right"
      },
      {
        "midi": 71,
        "time": 144.479,
        "duration": 0.104,
        "velocity": 0.71,
        "hand": "right"
      },
      {
        "midi": 68,
        "time": 144.583,
        "duration": 0.104,
        "velocity": 0.71,
        "hand": "right"
      },
      {
        "midi": 63,
        "time": 144.688,
        "duration": 0.104,
        "velocity": 0.71,
        "hand": "right"
      },
      {
        "midi": 59,
        "time": 144.896,
        "duration": 0.104,
        "velocity": 0.71,
        "hand": "left"
      },
      {
        "midi": 57,
        "time": 145,
        "duration": 0.104,
        "velocity": 0.71,
        "hand": "left"
      },
      {
        "midi": 78,
        "time": 145,
        "duration": 0.833,
        "velocity": 0.71,
        "hand": "right"
      },
      {
        "midi": 61,
        "time": 145.104,
        "duration": 0.104,
        "velocity": 0.71,
        "hand": "right"
      },
      {
        "midi": 66,
        "time": 145.313,
        "duration": 0.104,
        "velocity": 0.71,
        "hand": "right"
      },
      {
        "midi": 69,
        "time": 145.417,
        "duration": 0.104,
        "velocity": 0.71,
        "hand": "right"
      },
      {
        "midi": 73,
        "time": 145.521,
        "duration": 0.104,
        "velocity": 0.71,
        "hand": "right"
      },
      {
        "midi": 75,
        "time": 145.729,
        "duration": 0.104,
        "velocity": 0.71,
        "hand": "right"
      },
      {
        "midi": 76,
        "time": 145.833,
        "duration": 0.833,
        "velocity": 0.71,
        "hand": "right"
      },
      {
        "midi": 71,
        "time": 145.938,
        "duration": 0.104,
        "velocity": 0.71,
        "hand": "right"
      },
      {
        "midi": 68,
        "time": 146.146,
        "duration": 0.104,
        "velocity": 0.71,
        "hand": "right"
      },
      {
        "midi": 64,
        "time": 146.25,
        "duration": 0.104,
        "velocity": 0.71,
        "hand": "right"
      },
      {
        "midi": 59,
        "time": 146.354,
        "duration": 0.104,
        "velocity": 0.71,
        "hand": "left"
      },
      {
        "midi": 56,
        "time": 146.563,
        "duration": 0.104,
        "velocity": 0.71,
        "hand": "left"
      },
      {
        "midi": 61,
        "time": 146.667,
        "duration": 0.833,
        "velocity": 0.71,
        "hand": "right"
      },
      {
        "midi": 81,
        "time": 146.667,
        "duration": 0.417,
        "velocity": 0.71,
        "hand": "right"
      },
      {
        "midi": 64,
        "time": 146.771,
        "duration": 0.104,
        "velocity": 0.71,
        "hand": "right"
      },
      {
        "midi": 69,
        "time": 146.979,
        "duration": 0.104,
        "velocity": 0.71,
        "hand": "right"
      },
      {
        "midi": 73,
        "time": 147.083,
        "duration": 0.104,
        "velocity": 0.71,
        "hand": "right"
      },
      {
        "midi": 76,
        "time": 147.083,
        "duration": 0.417,
        "velocity": 0.71,
        "hand": "right"
      },
      {
        "midi": 83,
        "time": 147.083,
        "duration": 0.208,
        "velocity": 0.71,
        "hand": "right"
      },
      {
        "midi": 69,
        "time": 147.188,
        "duration": 0.104,
        "velocity": 0.71,
        "hand": "right"
      },
      {
        "midi": 85,
        "time": 147.292,
        "duration": 0.208,
        "velocity": 0.71,
        "hand": "right"
      },
      {
        "midi": 64,
        "time": 147.396,
        "duration": 0.104,
        "velocity": 0.71,
        "hand": "right"
      },
      {
        "midi": 59,
        "time": 147.5,
        "duration": 0.833,
        "velocity": 0.71,
        "hand": "left"
      },
      {
        "midi": 81,
        "time": 147.5,
        "duration": 0.208,
        "velocity": 0.71,
        "hand": "right"
      },
      {
        "midi": 63,
        "time": 147.604,
        "duration": 0.104,
        "velocity": 0.71,
        "hand": "right"
      },
      {
        "midi": 80,
        "time": 147.708,
        "duration": 0.208,
        "velocity": 0.71,
        "hand": "right"
      },
      {
        "midi": 68,
        "time": 147.813,
        "duration": 0.104,
        "velocity": 0.71,
        "hand": "right"
      },
      {
        "midi": 71,
        "time": 147.917,
        "duration": 0.104,
        "velocity": 0.71,
        "hand": "right"
      },
      {
        "midi": 75,
        "time": 147.917,
        "duration": 0.417,
        "velocity": 0.71,
        "hand": "right"
      },
      {
        "midi": 81,
        "time": 147.917,
        "duration": 0.208,
        "velocity": 0.71,
        "hand": "right"
      },
      {
        "midi": 68,
        "time": 148.021,
        "duration": 0.104,
        "velocity": 0.71,
        "hand": "right"
      },
      {
        "midi": 80,
        "time": 148.125,
        "duration": 0.625,
        "velocity": 0.71,
        "hand": "right"
      },
      {
        "midi": 63,
        "time": 148.229,
        "duration": 0.104,
        "velocity": 0.71,
        "hand": "right"
      },
      {
        "midi": 57,
        "time": 148.333,
        "duration": 0.833,
        "velocity": 0.71,
        "hand": "left"
      },
      {
        "midi": 73,
        "time": 148.333,
        "duration": 0.833,
        "velocity": 0.71,
        "hand": "right"
      },
      {
        "midi": 61,
        "time": 148.438,
        "duration": 0.104,
        "velocity": 0.71,
        "hand": "right"
      },
      {
        "midi": 66,
        "time": 148.646,
        "duration": 0.104,
        "velocity": 0.71,
        "hand": "right"
      },
      {
        "midi": 69,
        "time": 148.75,
        "duration": 0.104,
        "velocity": 0.71,
        "hand": "right"
      },
      {
        "midi": 78,
        "time": 148.75,
        "duration": 0.833,
        "velocity": 0.71,
        "hand": "right"
      },
      {
        "midi": 66,
        "time": 148.854,
        "duration": 0.104,
        "velocity": 0.71,
        "hand": "right"
      },
      {
        "midi": 61,
        "time": 149.063,
        "duration": 0.104,
        "velocity": 0.71,
        "hand": "right"
      },
      {
        "midi": 56,
        "time": 149.167,
        "duration": 0.833,
        "velocity": 0.71,
        "hand": "left"
      },
      {
        "midi": 71,
        "time": 149.167,
        "duration": 0.833,
        "velocity": 0.71,
        "hand": "right"
      },
      {
        "midi": 59,
        "time": 149.271,
        "duration": 0.104,
        "velocity": 0.71,
        "hand": "left"
      },
      {
        "midi": 64,
        "time": 149.479,
        "duration": 0.104,
        "velocity": 0.71,
        "hand": "right"
      },
      {
        "midi": 68,
        "time": 149.583,
        "duration": 0.104,
        "velocity": 0.71,
        "hand": "right"
      },
      {
        "midi": 76,
        "time": 149.583,
        "duration": 0.625,
        "velocity": 0.71,
        "hand": "right"
      },
      {
        "midi": 64,
        "time": 149.688,
        "duration": 0.104,
        "velocity": 0.71,
        "hand": "right"
      },
      {
        "midi": 59,
        "time": 149.896,
        "duration": 0.104,
        "velocity": 0.71,
        "hand": "left"
      },
      {
        "midi": 54,
        "time": 150,
        "duration": 0.833,
        "velocity": 0.71,
        "hand": "left"
      },
      {
        "midi": 57,
        "time": 150.104,
        "duration": 0.104,
        "velocity": 0.71,
        "hand": "left"
      },
      {
        "midi": 74,
        "time": 150.208,
        "duration": 0.208,
        "velocity": 0.71,
        "hand": "right"
      },
      {
        "midi": 62,
        "time": 150.313,
        "duration": 0.104,
        "velocity": 0.71,
        "hand": "right"
      },
      {
        "midi": 66,
        "time": 150.417,
        "duration": 0.104,
        "velocity": 0.71,
        "hand": "right"
      },
      {
        "midi": 69,
        "time": 150.417,
        "duration": 0.417,
        "velocity": 0.71,
        "hand": "right"
      },
      {
        "midi": 76,
        "time": 150.417,
        "duration": 0.208,
        "velocity": 0.71,
        "hand": "right"
      },
      {
        "midi": 62,
        "time": 150.521,
        "duration": 0.104,
        "velocity": 0.71,
        "hand": "right"
      },
      {
        "midi": 78,
        "time": 150.625,
        "duration": 0.208,
        "velocity": 0.71,
        "hand": "right"
      },
      {
        "midi": 57,
        "time": 150.729,
        "duration": 0.104,
        "velocity": 0.71,
        "hand": "left"
      },
      {
        "midi": 52,
        "time": 150.833,
        "duration": 0.833,
        "velocity": 0.71,
        "hand": "left"
      },
      {
        "midi": 74,
        "time": 150.833,
        "duration": 0.208,
        "velocity": 0.71,
        "hand": "right"
      },
      {
        "midi": 56,
        "time": 150.938,
        "duration": 0.104,
        "velocity": 0.71,
        "hand": "left"
      },
      {
        "midi": 73,
        "time": 151.042,
        "duration": 0.208,
        "velocity": 0.71,
        "hand": "right"
      },
      {
        "midi": 61,
        "time": 151.146,
        "duration": 0.104,
        "velocity": 0.71,
        "hand": "right"
      },
      {
        "midi": 64,
        "time": 151.25,
        "duration": 0.104,
        "velocity": 0.71,
        "hand": "right"
      },
      {
        "midi": 68,
        "time": 151.25,
        "duration": 0.417,
        "velocity": 0.71,
        "hand": "right"
      },
      {
        "midi": 74,
        "time": 151.25,
        "duration": 0.208,
        "velocity": 0.71,
        "hand": "right"
      },
      {
        "midi": 61,
        "time": 151.354,
        "duration": 0.104,
        "velocity": 0.71,
        "hand": "right"
      },
      {
        "midi": 73,
        "time": 151.458,
        "duration": 0.625,
        "velocity": 0.71,
        "hand": "right"
      },
      {
        "midi": 56,
        "time": 151.563,
        "duration": 0.104,
        "velocity": 0.71,
        "hand": "left"
      },
      {
        "midi": 50,
        "time": 151.667,
        "duration": 0.833,
        "velocity": 0.71,
        "hand": "left"
      },
      {
        "midi": 66,
        "time": 151.667,
        "duration": 0.833,
        "velocity": 0.71,
        "hand": "right"
      },
      {
        "midi": 54,
        "time": 151.771,
        "duration": 0.104,
        "velocity": 0.71,
        "hand": "left"
      },
      {
        "midi": 59,
        "time": 151.979,
        "duration": 0.104,
        "velocity": 0.71,
        "hand": "left"
      },
      {
        "midi": 62,
        "time": 152.083,
        "duration": 0.104,
        "velocity": 0.71,
        "hand": "right"
      },
      {
        "midi": 71,
        "time": 152.083,
        "duration": 0.833,
        "velocity": 0.71,
        "hand": "right"
      },
      {
        "midi": 59,
        "time": 152.188,
        "duration": 0.104,
        "velocity": 0.71,
        "hand": "left"
      },
      {
        "midi": 54,
        "time": 152.396,
        "duration": 0.104,
        "velocity": 0.71,
        "hand": "left"
      },
      {
        "midi": 49,
        "time": 152.5,
        "duration": 0.833,
        "velocity": 0.71,
        "hand": "left"
      },
      {
        "midi": 64,
        "time": 152.5,
        "duration": 0.833,
        "velocity": 0.71,
        "hand": "right"
      },
      {
        "midi": 52,
        "time": 152.604,
        "duration": 0.104,
        "velocity": 0.71,
        "hand": "left"
      },
      {
        "midi": 57,
        "time": 152.813,
        "duration": 0.104,
        "velocity": 0.71,
        "hand": "left"
      },
      {
        "midi": 61,
        "time": 152.917,
        "duration": 0.104,
        "velocity": 0.71,
        "hand": "right"
      },
      {
        "midi": 69,
        "time": 152.917,
        "duration": 0.625,
        "velocity": 0.71,
        "hand": "right"
      },
      {
        "midi": 57,
        "time": 153.021,
        "duration": 0.104,
        "velocity": 0.71,
        "hand": "left"
      },
      {
        "midi": 52,
        "time": 153.229,
        "duration": 0.104,
        "velocity": 0.71,
        "hand": "left"
      },
      {
        "midi": 47,
        "time": 153.333,
        "duration": 0.833,
        "velocity": 0.71,
        "hand": "left"
      },
      {
        "midi": 62,
        "time": 153.333,
        "duration": 0.833,
        "velocity": 0.71,
        "hand": "right"
      },
      {
        "midi": 53,
        "time": 153.438,
        "duration": 0.104,
        "velocity": 0.71,
        "hand": "left"
      },
      {
        "midi": 68,
        "time": 153.542,
        "duration": 0.208,
        "velocity": 0.71,
        "hand": "right"
      },
      {
        "midi": 56,
        "time": 153.646,
        "duration": 0.104,
        "velocity": 0.71,
        "hand": "left"
      },
      {
        "midi": 59,
        "time": 153.75,
        "duration": 0.104,
        "velocity": 0.71,
        "hand": "left"
      },
      {
        "midi": 69,
        "time": 153.75,
        "duration": 0.208,
        "velocity": 0.71,
        "hand": "right"
      },
      {
        "midi": 56,
        "time": 153.854,
        "duration": 0.104,
        "velocity": 0.71,
        "hand": "left"
      },
      {
        "midi": 68,
        "time": 153.958,
        "duration": 0.208,
        "velocity": 0.71,
        "hand": "right"
      },
      {
        "midi": 53,
        "time": 154.063,
        "duration": 0.104,
        "velocity": 0.71,
        "hand": "left"
      },
      {
        "midi": 45,
        "time": 154.167,
        "duration": 0.833,
        "velocity": 0.71,
        "hand": "left"
      },
      {
        "midi": 61,
        "time": 154.167,
        "duration": 0.833,
        "velocity": 0.71,
        "hand": "right"
      },
      {
        "midi": 73,
        "time": 154.167,
        "duration": 0.208,
        "velocity": 0.71,
        "hand": "right"
      },
      {
        "midi": 49,
        "time": 154.271,
        "duration": 0.104,
        "velocity": 0.71,
        "hand": "left"
      },
      {
        "midi": 69,
        "time": 154.375,
        "duration": 0.208,
        "velocity": 0.71,
        "hand": "right"
      },
      {
        "midi": 54,
        "time": 154.479,
        "duration": 0.104,
        "velocity": 0.71,
        "hand": "left"
      },
      {
        "midi": 57,
        "time": 154.583,
        "duration": 0.104,
        "velocity": 0.71,
        "hand": "left"
      },
      {
        "midi": 66,
        "time": 154.583,
        "duration": 0.625,
        "velocity": 0.71,
        "hand": "right"
      },
      {
        "midi": 54,
        "time": 154.688,
        "duration": 0.104,
        "velocity": 0.71,
        "hand": "left"
      },
      {
        "midi": 49,
        "time": 154.896,
        "duration": 0.104,
        "velocity": 0.71,
        "hand": "left"
      },
      {
        "midi": 44,
        "time": 155,
        "duration": 0.833,
        "velocity": 0.71,
        "hand": "left"
      },
      {
        "midi": 59,
        "time": 155,
        "duration": 0.833,
        "velocity": 0.71,
        "hand": "left"
      },
      {
        "midi": 47,
        "time": 155.104,
        "duration": 0.104,
        "velocity": 0.71,
        "hand": "left"
      },
      {
        "midi": 64,
        "time": 155.208,
        "duration": 0.208,
        "velocity": 0.71,
        "hand": "right"
      },
      {
        "midi": 52,
        "time": 155.313,
        "duration": 0.104,
        "velocity": 0.71,
        "hand": "left"
      },
      {
        "midi": 56,
        "time": 155.417,
        "duration": 0.104,
        "velocity": 0.71,
        "hand": "left"
      },
      {
        "midi": 66,
        "time": 155.417,
        "duration": 0.208,
        "velocity": 0.71,
        "hand": "right"
      },
      {
        "midi": 52,
        "time": 155.521,
        "duration": 0.104,
        "velocity": 0.71,
        "hand": "left"
      },
      {
        "midi": 64,
        "time": 155.625,
        "duration": 0.208,
        "velocity": 0.71,
        "hand": "right"
      },
      {
        "midi": 47,
        "time": 155.729,
        "duration": 0.104,
        "velocity": 0.71,
        "hand": "left"
      },
      {
        "midi": 42,
        "time": 155.833,
        "duration": 0.104,
        "velocity": 0.71,
        "hand": "left"
      },
      {
        "midi": 69,
        "time": 155.833,
        "duration": 3.333,
        "velocity": 0.71,
        "hand": "right"
      },
      {
        "midi": 49,
        "time": 155.938,
        "duration": 0.104,
        "velocity": 0.71,
        "hand": "left"
      },
      {
        "midi": 52,
        "time": 156.146,
        "duration": 0.104,
        "velocity": 0.71,
        "hand": "left"
      },
      {
        "midi": 54,
        "time": 156.25,
        "duration": 0.104,
        "velocity": 0.71,
        "hand": "left"
      },
      {
        "midi": 57,
        "time": 156.354,
        "duration": 0.104,
        "velocity": 0.71,
        "hand": "left"
      },
      {
        "midi": 59,
        "time": 156.563,
        "duration": 0.104,
        "velocity": 0.71,
        "hand": "left"
      },
      {
        "midi": 61,
        "time": 156.667,
        "duration": 0.104,
        "velocity": 0.71,
        "hand": "right"
      },
      {
        "midi": 64,
        "time": 156.771,
        "duration": 0.104,
        "velocity": 0.71,
        "hand": "right"
      },
      {
        "midi": 71,
        "time": 157.083,
        "duration": 0.104,
        "velocity": 0.71,
        "hand": "right"
      },
      {
        "midi": 73,
        "time": 157.188,
        "duration": 0.104,
        "velocity": 0.71,
        "hand": "right"
      },
      {
        "midi": 76,
        "time": 157.396,
        "duration": 0.104,
        "velocity": 0.71,
        "hand": "right"
      },
      {
        "midi": 81,
        "time": 157.5,
        "duration": 0.104,
        "velocity": 0.71,
        "hand": "right"
      },
      {
        "midi": 83,
        "time": 157.604,
        "duration": 0.104,
        "velocity": 0.71,
        "hand": "right"
      },
      {
        "midi": 85,
        "time": 157.813,
        "duration": 0.104,
        "velocity": 0.71,
        "hand": "right"
      },
      {
        "midi": 88,
        "time": 157.917,
        "duration": 0.104,
        "velocity": 0.71,
        "hand": "right"
      },
      {
        "midi": 85,
        "time": 158.021,
        "duration": 0.104,
        "velocity": 0.71,
        "hand": "right"
      },
      {
        "midi": 83,
        "time": 158.229,
        "duration": 0.104,
        "velocity": 0.71,
        "hand": "right"
      },
      {
        "midi": 81,
        "time": 158.333,
        "duration": 0.104,
        "velocity": 0.71,
        "hand": "right"
      },
      {
        "midi": 76,
        "time": 158.438,
        "duration": 0.104,
        "velocity": 0.71,
        "hand": "right"
      },
      {
        "midi": 73,
        "time": 158.646,
        "duration": 0.104,
        "velocity": 0.71,
        "hand": "right"
      },
      {
        "midi": 71,
        "time": 158.75,
        "duration": 0.104,
        "velocity": 0.71,
        "hand": "right"
      },
      {
        "midi": 64,
        "time": 159.063,
        "duration": 0.104,
        "velocity": 0.71,
        "hand": "right"
      },
      {
        "midi": 35,
        "time": 159.167,
        "duration": 0.104,
        "velocity": 0.71,
        "hand": "left"
      },
      {
        "midi": 68,
        "time": 159.167,
        "duration": 1.667,
        "velocity": 0.71,
        "hand": "right"
      },
      {
        "midi": 47,
        "time": 159.271,
        "duration": 0.104,
        "velocity": 0.71,
        "hand": "left"
      },
      {
        "midi": 51,
        "time": 159.479,
        "duration": 0.104,
        "velocity": 0.71,
        "hand": "left"
      },
      {
        "midi": 56,
        "time": 159.583,
        "duration": 0.104,
        "velocity": 0.71,
        "hand": "left"
      },
      {
        "midi": 59,
        "time": 159.688,
        "duration": 0.104,
        "velocity": 0.71,
        "hand": "left"
      },
      {
        "midi": 63,
        "time": 159.896,
        "duration": 0.104,
        "velocity": 0.71,
        "hand": "right"
      },
      {
        "midi": 71,
        "time": 160.104,
        "duration": 0.104,
        "velocity": 0.71,
        "hand": "right"
      },
      {
        "midi": 75,
        "time": 160.313,
        "duration": 0.104,
        "velocity": 0.71,
        "hand": "right"
      },
      {
        "midi": 80,
        "time": 160.417,
        "duration": 0.104,
        "velocity": 0.71,
        "hand": "right"
      },
      {
        "midi": 83,
        "time": 160.521,
        "duration": 0.104,
        "velocity": 0.71,
        "hand": "right"
      },
      {
        "midi": 71,
        "time": 160.729,
        "duration": 0.104,
        "velocity": 0.71,
        "hand": "right"
      },
      {
        "midi": 35,
        "time": 160.833,
        "duration": 0.104,
        "velocity": 0.71,
        "hand": "left"
      },
      {
        "midi": 66,
        "time": 160.833,
        "duration": 1.667,
        "velocity": 0.71,
        "hand": "right"
      },
      {
        "midi": 47,
        "time": 160.938,
        "duration": 0.104,
        "velocity": 0.71,
        "hand": "left"
      },
      {
        "midi": 51,
        "time": 161.146,
        "duration": 0.104,
        "velocity": 0.71,
        "hand": "left"
      },
      {
        "midi": 57,
        "time": 161.25,
        "duration": 0.104,
        "velocity": 0.71,
        "hand": "left"
      },
      {
        "midi": 59,
        "time": 161.354,
        "duration": 0.104,
        "velocity": 0.71,
        "hand": "left"
      },
      {
        "midi": 63,
        "time": 161.563,
        "duration": 0.104,
        "velocity": 0.71,
        "hand": "right"
      },
      {
        "midi": 69,
        "time": 161.667,
        "duration": 0.104,
        "velocity": 0.71,
        "hand": "right"
      },
      {
        "midi": 71,
        "time": 161.771,
        "duration": 0.104,
        "velocity": 0.71,
        "hand": "right"
      },
      {
        "midi": 75,
        "time": 161.979,
        "duration": 0.104,
        "velocity": 0.71,
        "hand": "right"
      },
      {
        "midi": 81,
        "time": 162.083,
        "duration": 0.104,
        "velocity": 0.71,
        "hand": "right"
      },
      {
        "midi": 83,
        "time": 162.188,
        "duration": 0.104,
        "velocity": 0.71,
        "hand": "right"
      },
      {
        "midi": 71,
        "time": 162.396,
        "duration": 0.104,
        "velocity": 0.71,
        "hand": "right"
      },
      {
        "midi": 40,
        "time": 162.5,
        "duration": 0.208,
        "velocity": 0.71,
        "hand": "left"
      },
      {
        "midi": 64,
        "time": 162.5,
        "duration": 0.417,
        "velocity": 0.71,
        "hand": "right"
      },
      {
        "midi": 47,
        "time": 162.708,
        "duration": 0.208,
        "velocity": 0.71,
        "hand": "left"
      },
      {
        "midi": 52,
        "time": 162.917,
        "duration": 0.208,
        "velocity": 0.71,
        "hand": "left"
      },
      {
        "midi": 88,
        "time": 162.917,
        "duration": 0.104,
        "velocity": 0.71,
        "hand": "right"
      },
      {
        "midi": 90,
        "time": 163.021,
        "duration": 0.104,
        "velocity": 0.71,
        "hand": "right"
      },
      {
        "midi": 56,
        "time": 163.125,
        "duration": 0.208,
        "velocity": 0.71,
        "hand": "left"
      },
      {
        "midi": 85,
        "time": 163.229,
        "duration": 0.104,
        "velocity": 0.71,
        "hand": "right"
      },
      {
        "midi": 59,
        "time": 163.333,
        "duration": 0.208,
        "velocity": 0.71,
        "hand": "left"
      },
      {
        "midi": 88,
        "time": 163.333,
        "duration": 0.104,
        "velocity": 0.71,
        "hand": "right"
      },
      {
        "midi": 83,
        "time": 163.438,
        "duration": 0.104,
        "velocity": 0.71,
        "hand": "right"
      },
      {
        "midi": 56,
        "time": 163.542,
        "duration": 0.208,
        "velocity": 0.71,
        "hand": "left"
      },
      {
        "midi": 85,
        "time": 163.646,
        "duration": 0.104,
        "velocity": 0.71,
        "hand": "right"
      },
      {
        "midi": 52,
        "time": 163.75,
        "duration": 0.208,
        "velocity": 0.71,
        "hand": "left"
      },
      {
        "midi": 80,
        "time": 163.75,
        "duration": 0.104,
        "velocity": 0.71,
        "hand": "right"
      },
      {
        "midi": 83,
        "time": 163.854,
        "duration": 0.104,
        "velocity": 0.71,
        "hand": "right"
      },
      {
        "midi": 59,
        "time": 163.958,
        "duration": 0.208,
        "velocity": 0.71,
        "hand": "left"
      },
      {
        "midi": 78,
        "time": 164.063,
        "duration": 0.104,
        "velocity": 0.71,
        "hand": "right"
      },
      {
        "midi": 40,
        "time": 164.167,
        "duration": 0.208,
        "velocity": 0.71,
        "hand": "left"
      },
      {
        "midi": 80,
        "time": 164.167,
        "duration": 0.104,
        "velocity": 0.71,
        "hand": "right"
      },
      {
        "midi": 76,
        "time": 164.271,
        "duration": 0.104,
        "velocity": 0.71,
        "hand": "right"
      },
      {
        "midi": 49,
        "time": 164.375,
        "duration": 0.208,
        "velocity": 0.71,
        "hand": "left"
      },
      {
        "midi": 80,
        "time": 164.479,
        "duration": 0.104,
        "velocity": 0.71,
        "hand": "right"
      },
      {
        "midi": 52,
        "time": 164.583,
        "duration": 0.208,
        "velocity": 0.71,
        "hand": "left"
      },
      {
        "midi": 75,
        "time": 164.583,
        "duration": 0.833,
        "velocity": 0.71,
        "hand": "right"
      },
      {
        "midi": 56,
        "time": 164.792,
        "duration": 0.208,
        "velocity": 0.71,
        "hand": "left"
      },
      {
        "midi": 61,
        "time": 165,
        "duration": 0.208,
        "velocity": 0.71,
        "hand": "right"
      },
      {
        "midi": 56,
        "time": 165.208,
        "duration": 0.208,
        "velocity": 0.71,
        "hand": "left"
      },
      {
        "midi": 52,
        "time": 165.417,
        "duration": 0.208,
        "velocity": 0.71,
        "hand": "left"
      },
      {
        "midi": 73,
        "time": 165.417,
        "duration": 0.417,
        "velocity": 0.71,
        "hand": "right"
      },
      {
        "midi": 49,
        "time": 165.625,
        "duration": 0.208,
        "velocity": 0.71,
        "hand": "left"
      },
      {
        "midi": 40,
        "time": 165.833,
        "duration": 0.208,
        "velocity": 0.71,
        "hand": "left"
      },
      {
        "midi": 71,
        "time": 165.833,
        "duration": 0.417,
        "velocity": 0.71,
        "hand": "right"
      },
      {
        "midi": 47,
        "time": 166.042,
        "duration": 0.208,
        "velocity": 0.71,
        "hand": "left"
      },
      {
        "midi": 52,
        "time": 166.25,
        "duration": 0.208,
        "velocity": 0.71,
        "hand": "left"
      },
      {
        "midi": 76,
        "time": 166.25,
        "duration": 0.104,
        "velocity": 0.71,
        "hand": "right"
      },
      {
        "midi": 78,
        "time": 166.354,
        "duration": 0.104,
        "velocity": 0.71,
        "hand": "right"
      },
      {
        "midi": 56,
        "time": 166.458,
        "duration": 0.208,
        "velocity": 0.71,
        "hand": "left"
      },
      {
        "midi": 73,
        "time": 166.563,
        "duration": 0.104,
        "velocity": 0.71,
        "hand": "right"
      },
      {
        "midi": 59,
        "time": 166.667,
        "duration": 0.208,
        "velocity": 0.71,
        "hand": "left"
      },
      {
        "midi": 76,
        "time": 166.667,
        "duration": 0.104,
        "velocity": 0.71,
        "hand": "right"
      },
      {
        "midi": 71,
        "time": 166.771,
        "duration": 0.104,
        "velocity": 0.71,
        "hand": "right"
      },
      {
        "midi": 56,
        "time": 166.875,
        "duration": 0.208,
        "velocity": 0.71,
        "hand": "left"
      },
      {
        "midi": 73,
        "time": 166.979,
        "duration": 0.104,
        "velocity": 0.71,
        "hand": "right"
      },
      {
        "midi": 52,
        "time": 167.083,
        "duration": 0.208,
        "velocity": 0.71,
        "hand": "left"
      },
      {
        "midi": 68,
        "time": 167.083,
        "duration": 0.104,
        "velocity": 0.71,
        "hand": "right"
      },
      {
        "midi": 71,
        "time": 167.188,
        "duration": 0.104,
        "velocity": 0.71,
        "hand": "right"
      },
      {
        "midi": 59,
        "time": 167.292,
        "duration": 0.208,
        "velocity": 0.71,
        "hand": "left"
      },
      {
        "midi": 66,
        "time": 167.396,
        "duration": 0.104,
        "velocity": 0.71,
        "hand": "right"
      },
      {
        "midi": 40,
        "time": 167.5,
        "duration": 0.208,
        "velocity": 0.71,
        "hand": "left"
      },
      {
        "midi": 68,
        "time": 167.5,
        "duration": 0.104,
        "velocity": 0.71,
        "hand": "right"
      },
      {
        "midi": 64,
        "time": 167.604,
        "duration": 0.104,
        "velocity": 0.71,
        "hand": "right"
      },
      {
        "midi": 49,
        "time": 167.708,
        "duration": 0.208,
        "velocity": 0.71,
        "hand": "left"
      },
      {
        "midi": 68,
        "time": 167.813,
        "duration": 0.104,
        "velocity": 0.71,
        "hand": "right"
      },
      {
        "midi": 52,
        "time": 167.917,
        "duration": 0.208,
        "velocity": 0.71,
        "hand": "left"
      },
      {
        "midi": 63,
        "time": 167.917,
        "duration": 0.833,
        "velocity": 0.71,
        "hand": "right"
      },
      {
        "midi": 56,
        "time": 168.125,
        "duration": 0.208,
        "velocity": 0.71,
        "hand": "left"
      },
      {
        "midi": 61,
        "time": 168.333,
        "duration": 0.208,
        "velocity": 0.71,
        "hand": "right"
      },
      {
        "midi": 56,
        "time": 168.542,
        "duration": 0.208,
        "velocity": 0.71,
        "hand": "left"
      },
      {
        "midi": 52,
        "time": 168.75,
        "duration": 0.208,
        "velocity": 0.71,
        "hand": "left"
      },
      {
        "midi": 61,
        "time": 168.75,
        "duration": 0.417,
        "velocity": 0.71,
        "hand": "right"
      },
      {
        "midi": 49,
        "time": 168.958,
        "duration": 0.208,
        "velocity": 0.71,
        "hand": "left"
      },
      {
        "midi": 40,
        "time": 169.167,
        "duration": 0.417,
        "velocity": 0.71,
        "hand": "left"
      },
      {
        "midi": 59,
        "time": 169.271,
        "duration": 0.104,
        "velocity": 0.71,
        "hand": "left"
      },
      {
        "midi": 52,
        "time": 169.479,
        "duration": 0.104,
        "velocity": 0.71,
        "hand": "left"
      },
      {
        "midi": 47,
        "time": 169.583,
        "duration": 0.417,
        "velocity": 0.71,
        "hand": "left"
      },
      {
        "midi": 61,
        "time": 169.688,
        "duration": 0.104,
        "velocity": 0.71,
        "hand": "right"
      },
      {
        "midi": 56,
        "time": 169.896,
        "duration": 0.104,
        "velocity": 0.71,
        "hand": "left"
      },
      {
        "midi": 52,
        "time": 170,
        "duration": 0.417,
        "velocity": 0.71,
        "hand": "left"
      },
      {
        "midi": 64,
        "time": 170.104,
        "duration": 0.104,
        "velocity": 0.71,
        "hand": "right"
      },
      {
        "midi": 59,
        "time": 170.313,
        "duration": 0.104,
        "velocity": 0.71,
        "hand": "left"
      },
      {
        "midi": 56,
        "time": 170.417,
        "duration": 0.417,
        "velocity": 0.71,
        "hand": "left"
      },
      {
        "midi": 66,
        "time": 170.521,
        "duration": 0.104,
        "velocity": 0.71,
        "hand": "right"
      },
      {
        "midi": 61,
        "time": 170.729,
        "duration": 0.104,
        "velocity": 0.71,
        "hand": "right"
      },
      {
        "midi": 52,
        "time": 170.833,
        "duration": 0.417,
        "velocity": 0.71,
        "hand": "left"
      },
      {
        "midi": 71,
        "time": 170.938,
        "duration": 0.104,
        "velocity": 0.71,
        "hand": "right"
      },
      {
        "midi": 64,
        "time": 171.146,
        "duration": 0.104,
        "velocity": 0.71,
        "hand": "right"
      },
      {
        "midi": 59,
        "time": 171.25,
        "duration": 0.417,
        "velocity": 0.71,
        "hand": "left"
      },
      {
        "midi": 73,
        "time": 171.354,
        "duration": 0.104,
        "velocity": 0.71,
        "hand": "right"
      },
      {
        "midi": 68,
        "time": 171.563,
        "duration": 0.104,
        "velocity": 0.71,
        "hand": "right"
      },
      {
        "midi": 64,
        "time": 171.667,
        "duration": 0.417,
        "velocity": 0.71,
        "hand": "right"
      },
      {
        "midi": 76,
        "time": 171.771,
        "duration": 0.104,
        "velocity": 0.71,
        "hand": "right"
      },
      {
        "midi": 71,
        "time": 171.979,
        "duration": 0.104,
        "velocity": 0.71,
        "hand": "right"
      },
      {
        "midi": 68,
        "time": 172.083,
        "duration": 0.417,
        "velocity": 0.71,
        "hand": "right"
      },
      {
        "midi": 78,
        "time": 172.188,
        "duration": 0.104,
        "velocity": 0.71,
        "hand": "right"
      },
      {
        "midi": 73,
        "time": 172.396,
        "duration": 0.104,
        "velocity": 0.71,
        "hand": "right"
      },
      {
        "midi": 64,
        "time": 172.5,
        "duration": 0.417,
        "velocity": 0.71,
        "hand": "right"
      },
      {
        "midi": 83,
        "time": 172.604,
        "duration": 0.104,
        "velocity": 0.71,
        "hand": "right"
      },
      {
        "midi": 76,
        "time": 172.813,
        "duration": 0.104,
        "velocity": 0.71,
        "hand": "right"
      },
      {
        "midi": 71,
        "time": 172.917,
        "duration": 0.417,
        "velocity": 0.71,
        "hand": "right"
      },
      {
        "midi": 85,
        "time": 173.021,
        "duration": 0.104,
        "velocity": 0.71,
        "hand": "right"
      },
      {
        "midi": 80,
        "time": 173.229,
        "duration": 0.104,
        "velocity": 0.71,
        "hand": "right"
      },
      {
        "midi": 76,
        "time": 173.333,
        "duration": 0.417,
        "velocity": 0.71,
        "hand": "right"
      },
      {
        "midi": 88,
        "time": 173.438,
        "duration": 0.104,
        "velocity": 0.71,
        "hand": "right"
      },
      {
        "midi": 83,
        "time": 173.646,
        "duration": 0.104,
        "velocity": 0.71,
        "hand": "right"
      },
      {
        "midi": 80,
        "time": 173.75,
        "duration": 0.417,
        "velocity": 0.71,
        "hand": "right"
      },
      {
        "midi": 90,
        "time": 173.854,
        "duration": 0.104,
        "velocity": 0.71,
        "hand": "right"
      },
      {
        "midi": 85,
        "time": 174.063,
        "duration": 0.104,
        "velocity": 0.71,
        "hand": "right"
      },
      {
        "midi": 76,
        "time": 174.167,
        "duration": 0.417,
        "velocity": 0.71,
        "hand": "right"
      },
      {
        "midi": 83,
        "time": 174.167,
        "duration": 0.417,
        "velocity": 0.71,
        "hand": "right"
      },
      {
        "midi": 88,
        "time": 174.167,
        "duration": 0.417,
        "velocity": 0.71,
        "hand": "right"
      },
      {
        "midi": 92,
        "time": 174.167,
        "duration": 0.417,
        "velocity": 0.71,
        "hand": "right"
      },
      {
        "midi": 76,
        "time": 174.583,
        "duration": 0.833,
        "velocity": 0.71,
        "hand": "right"
      },
      {
        "midi": 83,
        "time": 174.583,
        "duration": 0.833,
        "velocity": 0.71,
        "hand": "right"
      },
      {
        "midi": 88,
        "time": 174.583,
        "duration": 0.833,
        "velocity": 0.71,
        "hand": "right"
      },
      {
        "midi": 92,
        "time": 174.583,
        "duration": 0.833,
        "velocity": 0.71,
        "hand": "right"
      },
      {
        "midi": 76,
        "time": 175.417,
        "duration": 0.417,
        "velocity": 0.71,
        "hand": "right"
      },
      {
        "midi": 83,
        "time": 175.417,
        "duration": 0.417,
        "velocity": 0.71,
        "hand": "right"
      },
      {
        "midi": 88,
        "time": 175.417,
        "duration": 0.417,
        "velocity": 0.71,
        "hand": "right"
      },
      {
        "midi": 92,
        "time": 175.417,
        "duration": 0.417,
        "velocity": 0.71,
        "hand": "right"
      },
      {
        "midi": 40,
        "time": 175.833,
        "duration": 0.417,
        "velocity": 0.71,
        "hand": "left"
      },
      {
        "midi": 52,
        "time": 175.833,
        "duration": 0.417,
        "velocity": 0.71,
        "hand": "left"
      },
      {
        "midi": 64,
        "time": 175.833,
        "duration": 0.417,
        "velocity": 0.71,
        "hand": "right"
      }
    ]
  },
  "notes1Hand": [
    {
      "midi": 61,
      "time": 0,
      "duration": 0.208,
      "velocity": 0.71,
      "hand": "right"
    },
    {
      "midi": 69,
      "time": 0.313,
      "duration": 0.208,
      "velocity": 0.71,
      "hand": "right"
    },
    {
      "midi": 78,
      "time": 0.729,
      "duration": 0.208,
      "velocity": 0.71,
      "hand": "right"
    },
    {
      "midi": 75,
      "time": 0.938,
      "duration": 0.208,
      "velocity": 0.71,
      "hand": "right"
    },
    {
      "midi": 68,
      "time": 1.25,
      "duration": 0.208,
      "velocity": 0.71,
      "hand": "right"
    },
    {
      "midi": 61,
      "time": 1.771,
      "duration": 0.208,
      "velocity": 0.71,
      "hand": "right"
    },
    {
      "midi": 69,
      "time": 2.083,
      "duration": 0.208,
      "velocity": 0.71,
      "hand": "right"
    },
    {
      "midi": 75,
      "time": 2.396,
      "duration": 0.208,
      "velocity": 0.71,
      "hand": "right"
    },
    {
      "midi": 68,
      "time": 2.813,
      "duration": 0.208,
      "velocity": 0.71,
      "hand": "right"
    },
    {
      "midi": 61,
      "time": 3.646,
      "duration": 0.417,
      "velocity": 0.71,
      "hand": "right"
    },
    {
      "midi": 69,
      "time": 4.063,
      "duration": 0.521,
      "velocity": 0.71,
      "hand": "right"
    },
    {
      "midi": 61,
      "time": 4.479,
      "duration": 0.417,
      "velocity": 0.71,
      "hand": "right"
    },
    {
      "midi": 66,
      "time": 4.688,
      "duration": 0.208,
      "velocity": 0.71,
      "hand": "right"
    },
    {
      "midi": 61,
      "time": 5.313,
      "duration": 0.417,
      "velocity": 0.71,
      "hand": "right"
    },
    {
      "midi": 69,
      "time": 5.729,
      "duration": 0.521,
      "velocity": 0.71,
      "hand": "right"
    },
    {
      "midi": 64,
      "time": 6.146,
      "duration": 0.417,
      "velocity": 0.71,
      "hand": "right"
    },
    {
      "midi": 73,
      "time": 6.563,
      "duration": 0.208,
      "velocity": 0.71,
      "hand": "right"
    },
    {
      "midi": 81,
      "time": 7.083,
      "duration": 0.938,
      "velocity": 0.71,
      "hand": "right"
    },
    {
      "midi": 66,
      "time": 7.396,
      "duration": 0.208,
      "velocity": 0.71,
      "hand": "right"
    },
    {
      "midi": 75,
      "time": 7.813,
      "duration": 0.208,
      "velocity": 0.71,
      "hand": "right"
    },
    {
      "midi": 78,
      "time": 8.229,
      "duration": 0.208,
      "velocity": 0.71,
      "hand": "right"
    },
    {
      "midi": 76,
      "time": 8.75,
      "duration": 0.208,
      "velocity": 0.71,
      "hand": "right"
    },
    {
      "midi": 73,
      "time": 9.063,
      "duration": 0.208,
      "velocity": 0.71,
      "hand": "right"
    },
    {
      "midi": 73,
      "time": 9.479,
      "duration": 0.208,
      "velocity": 0.71,
      "hand": "right"
    },
    {
      "midi": 71,
      "time": 9.688,
      "duration": 0.208,
      "velocity": 0.71,
      "hand": "right"
    },
    {
      "midi": 68,
      "time": 10,
      "duration": 0.208,
      "velocity": 0.71,
      "hand": "right"
    },
    {
      "midi": 68,
      "time": 10.313,
      "duration": 0.208,
      "velocity": 0.71,
      "hand": "right"
    },
    {
      "midi": 61,
      "time": 10.833,
      "duration": 0.208,
      "velocity": 0.71,
      "hand": "right"
    },
    {
      "midi": 61,
      "time": 11.25,
      "duration": 0.417,
      "velocity": 0.71,
      "hand": "right"
    },
    {
      "midi": 76,
      "time": 12.083,
      "duration": 0.208,
      "velocity": 0.71,
      "hand": "right"
    },
    {
      "midi": 73,
      "time": 12.396,
      "duration": 0.208,
      "velocity": 0.71,
      "hand": "right"
    },
    {
      "midi": 73,
      "time": 12.813,
      "duration": 0.208,
      "velocity": 0.71,
      "hand": "right"
    },
    {
      "midi": 66,
      "time": 13.229,
      "duration": 0.208,
      "velocity": 0.71,
      "hand": "right"
    },
    {
      "midi": 64,
      "time": 13.438,
      "duration": 0.208,
      "velocity": 0.71,
      "hand": "right"
    },
    {
      "midi": 63,
      "time": 13.75,
      "duration": 0.833,
      "velocity": 0.71,
      "hand": "right"
    },
    {
      "midi": 61,
      "time": 14.167,
      "duration": 0.208,
      "velocity": 0.71,
      "hand": "right"
    },
    {
      "midi": 61,
      "time": 14.583,
      "duration": 0.417,
      "velocity": 0.71,
      "hand": "right"
    },
    {
      "midi": 61,
      "time": 15.417,
      "duration": 0.625,
      "velocity": 0.71,
      "hand": "right"
    },
    {
      "midi": 64,
      "time": 16.042,
      "duration": 0.208,
      "velocity": 0.71,
      "hand": "right"
    },
    {
      "midi": 64,
      "time": 16.458,
      "duration": 0.208,
      "velocity": 0.71,
      "hand": "right"
    },
    {
      "midi": 61,
      "time": 16.667,
      "duration": 0.417,
      "velocity": 0.71,
      "hand": "right"
    },
    {
      "midi": 68,
      "time": 17.083,
      "duration": 0.833,
      "velocity": 0.71,
      "hand": "right"
    },
    {
      "midi": 64,
      "time": 17.917,
      "duration": 0.417,
      "velocity": 0.71,
      "hand": "right"
    },
    {
      "midi": 63,
      "time": 18.333,
      "duration": 0.208,
      "velocity": 0.71,
      "hand": "right"
    },
    {
      "midi": 63,
      "time": 18.646,
      "duration": 0.208,
      "velocity": 0.71,
      "hand": "right"
    },
    {
      "midi": 61,
      "time": 19.167,
      "duration": 0.208,
      "velocity": 0.71,
      "hand": "right"
    },
    {
      "midi": 66,
      "time": 19.583,
      "duration": 0.208,
      "velocity": 0.71,
      "hand": "right"
    },
    {
      "midi": 68,
      "time": 19.792,
      "duration": 0.208,
      "velocity": 0.71,
      "hand": "right"
    },
    {
      "midi": 73,
      "time": 20.417,
      "duration": 0.833,
      "velocity": 0.71,
      "hand": "right"
    },
    {
      "midi": 70,
      "time": 21.25,
      "duration": 0.208,
      "velocity": 0.71,
      "hand": "right"
    },
    {
      "midi": 70,
      "time": 21.563,
      "duration": 0.208,
      "velocity": 0.71,
      "hand": "right"
    },
    {
      "midi": 76,
      "time": 22.083,
      "duration": 0.833,
      "velocity": 0.71,
      "hand": "right"
    },
    {
      "midi": 68,
      "time": 22.292,
      "duration": 0.208,
      "velocity": 0.71,
      "hand": "right"
    },
    {
      "midi": 61,
      "time": 22.708,
      "duration": 0.208,
      "velocity": 0.71,
      "hand": "right"
    },
    {
      "midi": 73,
      "time": 22.917,
      "duration": 0.208,
      "velocity": 0.71,
      "hand": "right"
    },
    {
      "midi": 73,
      "time": 23.229,
      "duration": 0.208,
      "velocity": 0.71,
      "hand": "right"
    },
    {
      "midi": 64,
      "time": 23.542,
      "duration": 0.208,
      "velocity": 0.71,
      "hand": "right"
    },
    {
      "midi": 78,
      "time": 23.958,
      "duration": 0.208,
      "velocity": 0.71,
      "hand": "right"
    },
    {
      "midi": 80,
      "time": 24.167,
      "duration": 0.625,
      "velocity": 0.71,
      "hand": "right"
    },
    {
      "midi": 70,
      "time": 24.583,
      "duration": 0.208,
      "velocity": 0.71,
      "hand": "right"
    },
    {
      "midi": 78,
      "time": 24.792,
      "duration": 0.208,
      "velocity": 0.71,
      "hand": "right"
    },
    {
      "midi": 64,
      "time": 25.208,
      "duration": 0.208,
      "velocity": 0.71,
      "hand": "right"
    },
    {
      "midi": 68,
      "time": 25.417,
      "duration": 0.208,
      "velocity": 0.71,
      "hand": "right"
    },
    {
      "midi": 80,
      "time": 25.833,
      "duration": 0.208,
      "velocity": 0.71,
      "hand": "right"
    },
    {
      "midi": 78,
      "time": 26.042,
      "duration": 0.417,
      "velocity": 0.71,
      "hand": "right"
    },
    {
      "midi": 80,
      "time": 26.458,
      "duration": 0.208,
      "velocity": 0.71,
      "hand": "right"
    },
    {
      "midi": 81,
      "time": 26.667,
      "duration": 0.833,
      "velocity": 0.71,
      "hand": "right"
    },
    {
      "midi": 69,
      "time": 26.979,
      "duration": 0.208,
      "velocity": 0.71,
      "hand": "right"
    },
    {
      "midi": 76,
      "time": 27.188,
      "duration": 0.208,
      "velocity": 0.71,
      "hand": "right"
    },
    {
      "midi": 80,
      "time": 27.5,
      "duration": 0.833,
      "velocity": 0.71,
      "hand": "right"
    },
    {
      "midi": 71,
      "time": 27.813,
      "duration": 0.208,
      "velocity": 0.71,
      "hand": "right"
    },
    {
      "midi": 78,
      "time": 28.333,
      "duration": 0.833,
      "velocity": 0.71,
      "hand": "right"
    },
    {
      "midi": 66,
      "time": 28.646,
      "duration": 0.208,
      "velocity": 0.71,
      "hand": "right"
    },
    {
      "midi": 75,
      "time": 29.063,
      "duration": 0.208,
      "velocity": 0.71,
      "hand": "right"
    },
    {
      "midi": 68,
      "time": 29.479,
      "duration": 0.208,
      "velocity": 0.71,
      "hand": "right"
    },
    {
      "midi": 75,
      "time": 30,
      "duration": 0.833,
      "velocity": 0.71,
      "hand": "right"
    },
    {
      "midi": 63,
      "time": 30.313,
      "duration": 0.208,
      "velocity": 0.71,
      "hand": "right"
    },
    {
      "midi": 61,
      "time": 30.729,
      "duration": 0.208,
      "velocity": 0.71,
      "hand": "right"
    },
    {
      "midi": 80,
      "time": 31.25,
      "duration": 0.208,
      "velocity": 0.71,
      "hand": "right"
    },
    {
      "midi": 61,
      "time": 31.563,
      "duration": 0.208,
      "velocity": 0.71,
      "hand": "right"
    },
    {
      "midi": 63,
      "time": 31.979,
      "duration": 0.208,
      "velocity": 0.71,
      "hand": "right"
    },
    {
      "midi": 73,
      "time": 32.708,
      "duration": 0.208,
      "velocity": 0.71,
      "hand": "right"
    },
    {
      "midi": 76,
      "time": 32.917,
      "duration": 0.208,
      "velocity": 0.71,
      "hand": "right"
    },
    {
      "midi": 71,
      "time": 33.333,
      "duration": 1.042,
      "velocity": 0.71,
      "hand": "right"
    },
    {
      "midi": 66,
      "time": 33.75,
      "duration": 0.208,
      "velocity": 0.71,
      "hand": "right"
    },
    {
      "midi": 69,
      "time": 34.375,
      "duration": 0.208,
      "velocity": 0.71,
      "hand": "right"
    },
    {
      "midi": 76,
      "time": 34.792,
      "duration": 0.208,
      "velocity": 0.71,
      "hand": "right"
    },
    {
      "midi": 63,
      "time": 35.417,
      "duration": 0.208,
      "velocity": 0.71,
      "hand": "right"
    },
    {
      "midi": 69,
      "time": 35.938,
      "duration": 0.208,
      "velocity": 0.71,
      "hand": "right"
    },
    {
      "midi": 76,
      "time": 36.25,
      "duration": 0.208,
      "velocity": 0.71,
      "hand": "right"
    },
    {
      "midi": 78,
      "time": 36.563,
      "duration": 0.208,
      "velocity": 0.71,
      "hand": "right"
    },
    {
      "midi": 68,
      "time": 37.083,
      "duration": 0.417,
      "velocity": 0.71,
      "hand": "right"
    },
    {
      "midi": 66,
      "time": 37.708,
      "duration": 0.208,
      "velocity": 0.71,
      "hand": "right"
    },
    {
      "midi": 69,
      "time": 37.917,
      "duration": 0.208,
      "velocity": 0.71,
      "hand": "right"
    },
    {
      "midi": 64,
      "time": 38.333,
      "duration": 0.833,
      "velocity": 0.71,
      "hand": "right"
    },
    {
      "midi": 62,
      "time": 38.75,
      "duration": 0.208,
      "velocity": 0.71,
      "hand": "right"
    },
    {
      "midi": 66,
      "time": 39.271,
      "duration": 0.208,
      "velocity": 0.71,
      "hand": "right"
    },
    {
      "midi": 73,
      "time": 39.583,
      "duration": 0.208,
      "velocity": 0.71,
      "hand": "right"
    },
    {
      "midi": 74,
      "time": 39.896,
      "duration": 0.208,
      "velocity": 0.71,
      "hand": "right"
    },
    {
      "midi": 66,
      "time": 40.417,
      "duration": 0.833,
      "velocity": 0.71,
      "hand": "right"
    },
    {
      "midi": 62,
      "time": 41.25,
      "duration": 0.417,
      "velocity": 0.71,
      "hand": "right"
    },
    {
      "midi": 61,
      "time": 41.667,
      "duration": 2.083,
      "velocity": 0.71,
      "hand": "right"
    },
    {
      "midi": 61,
      "time": 43.75,
      "duration": 0.417,
      "velocity": 0.71,
      "hand": "right"
    },
    {
      "midi": 64,
      "time": 44.167,
      "duration": 0.417,
      "velocity": 0.71,
      "hand": "right"
    },
    {
      "midi": 61,
      "time": 44.583,
      "duration": 0.417,
      "velocity": 0.71,
      "hand": "right"
    },
    {
      "midi": 66,
      "time": 45,
      "duration": 2.083,
      "velocity": 0.71,
      "hand": "right"
    },
    {
      "midi": 61,
      "time": 45.729,
      "duration": 0.208,
      "velocity": 0.71,
      "hand": "right"
    },
    {
      "midi": 61,
      "time": 46.25,
      "duration": 0.208,
      "velocity": 0.71,
      "hand": "right"
    },
    {
      "midi": 61,
      "time": 46.667,
      "duration": 0.833,
      "velocity": 0.71,
      "hand": "right"
    },
    {
      "midi": 66,
      "time": 47.083,
      "duration": 0.417,
      "velocity": 0.71,
      "hand": "right"
    },
    {
      "midi": 69,
      "time": 47.5,
      "duration": 0.417,
      "velocity": 0.71,
      "hand": "right"
    },
    {
      "midi": 66,
      "time": 47.917,
      "duration": 0.417,
      "velocity": 0.71,
      "hand": "right"
    },
    {
      "midi": 71,
      "time": 48.333,
      "duration": 0.417,
      "velocity": 0.71,
      "hand": "right"
    },
    {
      "midi": 68,
      "time": 48.75,
      "duration": 0.417,
      "velocity": 0.71,
      "hand": "right"
    },
    {
      "midi": 71,
      "time": 49.167,
      "duration": 0.417,
      "velocity": 0.71,
      "hand": "right"
    },
    {
      "midi": 68,
      "time": 49.583,
      "duration": 0.417,
      "velocity": 0.71,
      "hand": "right"
    },
    {
      "midi": 73,
      "time": 50,
      "duration": 2.083,
      "velocity": 0.71,
      "hand": "right"
    },
    {
      "midi": 61,
      "time": 50.833,
      "duration": 0.208,
      "velocity": 0.71,
      "hand": "right"
    },
    {
      "midi": 66,
      "time": 51.146,
      "duration": 0.208,
      "velocity": 0.71,
      "hand": "right"
    },
    {
      "midi": 66,
      "time": 51.563,
      "duration": 0.208,
      "velocity": 0.71,
      "hand": "right"
    },
    {
      "midi": 69,
      "time": 52.083,
      "duration": 0.417,
      "velocity": 0.71,
      "hand": "right"
    },
    {
      "midi": 71,
      "time": 52.5,
      "duration": 0.417,
      "velocity": 0.71,
      "hand": "right"
    },
    {
      "midi": 73,
      "time": 52.917,
      "duration": 0.417,
      "velocity": 0.71,
      "hand": "right"
    },
    {
      "midi": 73,
      "time": 53.333,
      "duration": 2.083,
      "velocity": 0.71,
      "hand": "right"
    },
    {
      "midi": 61,
      "time": 54.167,
      "duration": 0.208,
      "velocity": 0.71,
      "hand": "right"
    },
    {
      "midi": 66,
      "time": 54.479,
      "duration": 0.208,
      "velocity": 0.71,
      "hand": "right"
    },
    {
      "midi": 68,
      "time": 54.688,
      "duration": 0.208,
      "velocity": 0.71,
      "hand": "right"
    },
    {
      "midi": 64,
      "time": 55,
      "duration": 0.833,
      "velocity": 0.71,
      "hand": "right"
    },
    {
      "midi": 69,
      "time": 55.417,
      "duration": 0.417,
      "velocity": 0.71,
      "hand": "right"
    },
    {
      "midi": 71,
      "time": 55.833,
      "duration": 0.417,
      "velocity": 0.71,
      "hand": "right"
    },
    {
      "midi": 66,
      "time": 56.146,
      "duration": 0.208,
      "velocity": 0.71,
      "hand": "right"
    },
    {
      "midi": 68,
      "time": 56.563,
      "duration": 0.208,
      "velocity": 0.71,
      "hand": "right"
    },
    {
      "midi": 69,
      "time": 56.979,
      "duration": 0.208,
      "velocity": 0.71,
      "hand": "right"
    },
    {
      "midi": 68,
      "time": 57.188,
      "duration": 0.208,
      "velocity": 0.71,
      "hand": "right"
    },
    {
      "midi": 78,
      "time": 57.5,
      "duration": 0.417,
      "velocity": 0.71,
      "hand": "right"
    },
    {
      "midi": 73,
      "time": 57.813,
      "duration": 0.208,
      "velocity": 0.71,
      "hand": "right"
    },
    {
      "midi": 75,
      "time": 58.229,
      "duration": 0.208,
      "velocity": 0.71,
      "hand": "right"
    },
    {
      "midi": 73,
      "time": 58.438,
      "duration": 0.208,
      "velocity": 0.71,
      "hand": "right"
    },
    {
      "midi": 83,
      "time": 58.75,
      "duration": 0.417,
      "velocity": 0.71,
      "hand": "right"
    },
    {
      "midi": 78,
      "time": 59.063,
      "duration": 0.208,
      "velocity": 0.71,
      "hand": "right"
    },
    {
      "midi": 80,
      "time": 59.479,
      "duration": 0.208,
      "velocity": 0.71,
      "hand": "right"
    },
    {
      "midi": 78,
      "time": 59.688,
      "duration": 0.208,
      "velocity": 0.71,
      "hand": "right"
    },
    {
      "midi": 90,
      "time": 60,
      "duration": 0.833,
      "velocity": 0.71,
      "hand": "right"
    },
    {
      "midi": 88,
      "time": 60.833,
      "duration": 0.833,
      "velocity": 0.71,
      "hand": "right"
    },
    {
      "midi": 64,
      "time": 61.25,
      "duration": 0.208,
      "velocity": 0.71,
      "hand": "right"
    },
    {
      "midi": 76,
      "time": 61.667,
      "duration": 1.771,
      "velocity": 0.71,
      "hand": "right"
    },
    {
      "midi": 64,
      "time": 62.5,
      "duration": 0.833,
      "velocity": 0.71,
      "hand": "right"
    },
    {
      "midi": 69,
      "time": 63.333,
      "duration": 1.25,
      "velocity": 0.71,
      "hand": "right"
    },
    {
      "midi": 61,
      "time": 63.542,
      "duration": 0.208,
      "velocity": 0.71,
      "hand": "right"
    },
    {
      "midi": 71,
      "time": 64.375,
      "duration": 0.208,
      "velocity": 0.71,
      "hand": "right"
    },
    {
      "midi": 73,
      "time": 64.792,
      "duration": 0.208,
      "velocity": 0.71,
      "hand": "right"
    },
    {
      "midi": 66,
      "time": 65.417,
      "duration": 0.833,
      "velocity": 0.71,
      "hand": "right"
    },
    {
      "midi": 68,
      "time": 66.25,
      "duration": 0.417,
      "velocity": 0.71,
      "hand": "right"
    },
    {
      "midi": 66,
      "time": 66.667,
      "duration": 0.208,
      "velocity": 0.71,
      "hand": "right"
    },
    {
      "midi": 78,
      "time": 67.083,
      "duration": 0.833,
      "velocity": 0.71,
      "hand": "right"
    },
    {
      "midi": 76,
      "time": 67.917,
      "duration": 0.417,
      "velocity": 0.71,
      "hand": "right"
    },
    {
      "midi": 66,
      "time": 68.333,
      "duration": 0.208,
      "velocity": 0.71,
      "hand": "right"
    },
    {
      "midi": 64,
      "time": 68.542,
      "duration": 0.208,
      "velocity": 0.71,
      "hand": "right"
    },
    {
      "midi": 83,
      "time": 69.375,
      "duration": 0.208,
      "velocity": 0.71,
      "hand": "right"
    },
    {
      "midi": 78,
      "time": 69.792,
      "duration": 0.208,
      "velocity": 0.71,
      "hand": "right"
    },
    {
      "midi": 74,
      "time": 70.104,
      "duration": 0.208,
      "velocity": 0.71,
      "hand": "right"
    },
    {
      "midi": 76,
      "time": 70.313,
      "duration": 0.208,
      "velocity": 0.71,
      "hand": "right"
    },
    {
      "midi": 71,
      "time": 71.042,
      "duration": 0.208,
      "velocity": 0.71,
      "hand": "right"
    },
    {
      "midi": 73,
      "time": 71.458,
      "duration": 0.208,
      "velocity": 0.71,
      "hand": "right"
    },
    {
      "midi": 69,
      "time": 71.667,
      "duration": 0.417,
      "velocity": 0.71,
      "hand": "right"
    },
    {
      "midi": 66,
      "time": 72.083,
      "duration": 0.625,
      "velocity": 0.71,
      "hand": "right"
    },
    {
      "midi": 63,
      "time": 72.5,
      "duration": 0.417,
      "velocity": 0.71,
      "hand": "right"
    },
    {
      "midi": 66,
      "time": 72.917,
      "duration": 0.208,
      "velocity": 0.71,
      "hand": "right"
    },
    {
      "midi": 66,
      "time": 73.333,
      "duration": 0.208,
      "velocity": 0.71,
      "hand": "right"
    },
    {
      "midi": 61,
      "time": 73.75,
      "duration": 0.833,
      "velocity": 0.71,
      "hand": "right"
    },
    {
      "midi": 64,
      "time": 74.583,
      "duration": 0.417,
      "velocity": 0.71,
      "hand": "right"
    },
    {
      "midi": 64,
      "time": 75,
      "duration": 1.25,
      "velocity": 0.71,
      "hand": "right"
    },
    {
      "midi": 61,
      "time": 77.083,
      "duration": 0.208,
      "velocity": 0.71,
      "hand": "right"
    },
    {
      "midi": 62,
      "time": 77.813,
      "duration": 0.208,
      "velocity": 0.71,
      "hand": "right"
    },
    {
      "midi": 62,
      "time": 78.229,
      "duration": 0.208,
      "velocity": 0.71,
      "hand": "right"
    },
    {
      "midi": 64,
      "time": 78.438,
      "duration": 0.208,
      "velocity": 0.71,
      "hand": "right"
    },
    {
      "midi": 71,
      "time": 78.75,
      "duration": 0.208,
      "velocity": 0.71,
      "hand": "right"
    },
    {
      "midi": 68,
      "time": 79.063,
      "duration": 0.208,
      "velocity": 0.71,
      "hand": "right"
    },
    {
      "midi": 73,
      "time": 79.479,
      "duration": 0.208,
      "velocity": 0.71,
      "hand": "right"
    },
    {
      "midi": 74,
      "time": 79.688,
      "duration": 0.208,
      "velocity": 0.71,
      "hand": "right"
    },
    {
      "midi": 71,
      "time": 80,
      "duration": 0.208,
      "velocity": 0.71,
      "hand": "right"
    },
    {
      "midi": 78,
      "time": 80.313,
      "duration": 0.208,
      "velocity": 0.71,
      "hand": "right"
    },
    {
      "midi": 74,
      "time": 80.833,
      "duration": 0.417,
      "velocity": 0.71,
      "hand": "right"
    },
    {
      "midi": 80,
      "time": 81.042,
      "duration": 0.208,
      "velocity": 0.71,
      "hand": "right"
    },
    {
      "midi": 76,
      "time": 81.458,
      "duration": 0.208,
      "velocity": 0.71,
      "hand": "right"
    },
    {
      "midi": 78,
      "time": 81.667,
      "duration": 0.208,
      "velocity": 0.71,
      "hand": "right"
    },
    {
      "midi": 74,
      "time": 82.083,
      "duration": 0.208,
      "velocity": 0.71,
      "hand": "right"
    },
    {
      "midi": 74,
      "time": 82.5,
      "duration": 0.208,
      "velocity": 0.71,
      "hand": "right"
    },
    {
      "midi": 71,
      "time": 82.917,
      "duration": 0.208,
      "velocity": 0.71,
      "hand": "right"
    },
    {
      "midi": 61,
      "time": 83.75,
      "duration": 0.208,
      "velocity": 0.71,
      "hand": "right"
    },
    {
      "midi": 62,
      "time": 84.479,
      "duration": 0.208,
      "velocity": 0.71,
      "hand": "right"
    },
    {
      "midi": 64,
      "time": 84.688,
      "duration": 0.208,
      "velocity": 0.71,
      "hand": "right"
    },
    {
      "midi": 61,
      "time": 85,
      "duration": 0.208,
      "velocity": 0.71,
      "hand": "right"
    },
    {
      "midi": 68,
      "time": 85.313,
      "duration": 0.208,
      "velocity": 0.71,
      "hand": "right"
    },
    {
      "midi": 68,
      "time": 85.729,
      "duration": 0.208,
      "velocity": 0.71,
      "hand": "right"
    },
    {
      "midi": 69,
      "time": 85.938,
      "duration": 0.208,
      "velocity": 0.71,
      "hand": "right"
    },
    {
      "midi": 76,
      "time": 86.25,
      "duration": 0.208,
      "velocity": 0.71,
      "hand": "right"
    },
    {
      "midi": 73,
      "time": 86.563,
      "duration": 0.208,
      "velocity": 0.71,
      "hand": "right"
    },
    {
      "midi": 78,
      "time": 86.979,
      "duration": 0.208,
      "velocity": 0.71,
      "hand": "right"
    },
    {
      "midi": 74,
      "time": 87.5,
      "duration": 0.833,
      "velocity": 0.71,
      "hand": "right"
    },
    {
      "midi": 78,
      "time": 87.917,
      "duration": 0.208,
      "velocity": 0.71,
      "hand": "right"
    },
    {
      "midi": 71,
      "time": 88.333,
      "duration": 0.208,
      "velocity": 0.71,
      "hand": "right"
    },
    {
      "midi": 78,
      "time": 88.646,
      "duration": 0.208,
      "velocity": 0.71,
      "hand": "right"
    },
    {
      "midi": 74,
      "time": 89.167,
      "duration": 0.833,
      "velocity": 0.71,
      "hand": "right"
    },
    {
      "midi": 78,
      "time": 89.583,
      "duration": 0.208,
      "velocity": 0.71,
      "hand": "right"
    },
    {
      "midi": 80,
      "time": 89.792,
      "duration": 0.208,
      "velocity": 0.71,
      "hand": "right"
    },
    {
      "midi": 74,
      "time": 90.104,
      "duration": 0.208,
      "velocity": 0.71,
      "hand": "right"
    },
    {
      "midi": 76,
      "time": 90.313,
      "duration": 0.208,
      "velocity": 0.71,
      "hand": "right"
    },
    {
      "midi": 66,
      "time": 90.833,
      "duration": 0.417,
      "velocity": 0.71,
      "hand": "right"
    },
    {
      "midi": 71,
      "time": 91.042,
      "duration": 0.208,
      "velocity": 0.71,
      "hand": "right"
    },
    {
      "midi": 73,
      "time": 91.458,
      "duration": 0.208,
      "velocity": 0.71,
      "hand": "right"
    },
    {
      "midi": 69,
      "time": 91.667,
      "duration": 0.417,
      "velocity": 0.71,
      "hand": "right"
    },
    {
      "midi": 66,
      "time": 92.083,
      "duration": 0.833,
      "velocity": 0.71,
      "hand": "right"
    },
    {
      "midi": 63,
      "time": 92.5,
      "duration": 0.833,
      "velocity": 0.71,
      "hand": "right"
    },
    {
      "midi": 68,
      "time": 92.917,
      "duration": 0.417,
      "velocity": 0.71,
      "hand": "right"
    },
    {
      "midi": 66,
      "time": 93.333,
      "duration": 0.208,
      "velocity": 0.71,
      "hand": "right"
    },
    {
      "midi": 64,
      "time": 93.542,
      "duration": 0.208,
      "velocity": 0.71,
      "hand": "right"
    },
    {
      "midi": 76,
      "time": 94.583,
      "duration": 0.417,
      "velocity": 0.71,
      "hand": "right"
    },
    {
      "midi": 66,
      "time": 95,
      "duration": 0.208,
      "velocity": 0.71,
      "hand": "right"
    },
    {
      "midi": 80,
      "time": 95.417,
      "duration": 0.625,
      "velocity": 0.71,
      "hand": "right"
    },
    {
      "midi": 83,
      "time": 96.042,
      "duration": 0.208,
      "velocity": 0.71,
      "hand": "right"
    },
    {
      "midi": 78,
      "time": 96.458,
      "duration": 0.208,
      "velocity": 0.71,
      "hand": "right"
    },
    {
      "midi": 76,
      "time": 96.667,
      "duration": 0.208,
      "velocity": 0.71,
      "hand": "right"
    },
    {
      "midi": 76,
      "time": 96.979,
      "duration": 0.208,
      "velocity": 0.71,
      "hand": "right"
    },
    {
      "midi": 71,
      "time": 97.708,
      "duration": 0.208,
      "velocity": 0.71,
      "hand": "right"
    },
    {
      "midi": 69,
      "time": 98.333,
      "duration": 0.417,
      "velocity": 0.71,
      "hand": "right"
    },
    {
      "midi": 68,
      "time": 98.75,
      "duration": 0.625,
      "velocity": 0.71,
      "hand": "right"
    },
    {
      "midi": 63,
      "time": 99.167,
      "duration": 0.417,
      "velocity": 0.71,
      "hand": "right"
    },
    {
      "midi": 66,
      "time": 99.583,
      "duration": 0.208,
      "velocity": 0.71,
      "hand": "right"
    },
    {
      "midi": 68,
      "time": 99.792,
      "duration": 0.208,
      "velocity": 0.71,
      "hand": "right"
    },
    {
      "midi": 64,
      "time": 100.104,
      "duration": 0.208,
      "velocity": 0.71,
      "hand": "right"
    },
    {
      "midi": 61,
      "time": 100.417,
      "duration": 0.833,
      "velocity": 0.71,
      "hand": "right"
    },
    {
      "midi": 64,
      "time": 101.25,
      "duration": 0.417,
      "velocity": 0.71,
      "hand": "right"
    },
    {
      "midi": 64,
      "time": 101.667,
      "duration": 1.25,
      "velocity": 0.71,
      "hand": "right"
    },
    {
      "midi": 67,
      "time": 103.333,
      "duration": 0.208,
      "velocity": 0.71,
      "hand": "right"
    },
    {
      "midi": 67,
      "time": 103.646,
      "duration": 0.208,
      "velocity": 0.71,
      "hand": "right"
    },
    {
      "midi": 62,
      "time": 104.583,
      "duration": 0.417,
      "velocity": 0.71,
      "hand": "right"
    },
    {
      "midi": 60,
      "time": 105,
      "duration": 0.417,
      "velocity": 0.71,
      "hand": "right"
    },
    {
      "midi": 60,
      "time": 106.25,
      "duration": 0.417,
      "velocity": 0.71,
      "hand": "right"
    },
    {
      "midi": 62,
      "time": 106.667,
      "duration": 0.417,
      "velocity": 0.71,
      "hand": "right"
    },
    {
      "midi": 65,
      "time": 107.083,
      "duration": 0.417,
      "velocity": 0.71,
      "hand": "right"
    },
    {
      "midi": 67,
      "time": 107.5,
      "duration": 0.417,
      "velocity": 0.71,
      "hand": "right"
    },
    {
      "midi": 69,
      "time": 107.917,
      "duration": 0.208,
      "velocity": 0.71,
      "hand": "right"
    },
    {
      "midi": 74,
      "time": 108.333,
      "duration": 0.833,
      "velocity": 0.71,
      "hand": "right"
    },
    {
      "midi": 67,
      "time": 109.167,
      "duration": 0.833,
      "velocity": 0.71,
      "hand": "right"
    },
    {
      "midi": 62,
      "time": 109.583,
      "duration": 0.208,
      "velocity": 0.71,
      "hand": "right"
    },
    {
      "midi": 65,
      "time": 109.792,
      "duration": 0.208,
      "velocity": 0.71,
      "hand": "right"
    },
    {
      "midi": 77,
      "time": 110.104,
      "duration": 0.208,
      "velocity": 0.71,
      "hand": "right"
    },
    {
      "midi": 79,
      "time": 110.313,
      "duration": 0.208,
      "velocity": 0.71,
      "hand": "right"
    },
    {
      "midi": 69,
      "time": 110.833,
      "duration": 0.833,
      "velocity": 0.71,
      "hand": "right"
    },
    {
      "midi": 74,
      "time": 111.25,
      "duration": 0.417,
      "velocity": 0.71,
      "hand": "right"
    },
    {
      "midi": 76,
      "time": 111.667,
      "duration": 0.833,
      "velocity": 0.71,
      "hand": "right"
    },
    {
      "midi": 77,
      "time": 112.5,
      "duration": 0.833,
      "velocity": 0.71,
      "hand": "right"
    },
    {
      "midi": 79,
      "time": 113.333,
      "duration": 0.208,
      "velocity": 0.71,
      "hand": "right"
    },
    {
      "midi": 79,
      "time": 113.646,
      "duration": 0.208,
      "velocity": 0.71,
      "hand": "right"
    },
    {
      "midi": 79,
      "time": 114.583,
      "duration": 0.417,
      "velocity": 0.71,
      "hand": "right"
    },
    {
      "midi": 80,
      "time": 115,
      "duration": 0.208,
      "velocity": 0.71,
      "hand": "right"
    },
    {
      "midi": 80,
      "time": 115.313,
      "duration": 0.208,
      "velocity": 0.71,
      "hand": "right"
    },
    {
      "midi": 73,
      "time": 115.833,
      "duration": 0.833,
      "velocity": 0.71,
      "hand": "right"
    },
    {
      "midi": 80,
      "time": 116.25,
      "duration": 0.417,
      "velocity": 0.71,
      "hand": "right"
    },
    {
      "midi": 81,
      "time": 116.667,
      "duration": 0.833,
      "velocity": 0.71,
      "hand": "right"
    },
    {
      "midi": 69,
      "time": 116.979,
      "duration": 0.208,
      "velocity": 0.71,
      "hand": "right"
    },
    {
      "midi": 76,
      "time": 117.188,
      "duration": 0.208,
      "velocity": 0.71,
      "hand": "right"
    },
    {
      "midi": 80,
      "time": 117.5,
      "duration": 0.833,
      "velocity": 0.71,
      "hand": "right"
    },
    {
      "midi": 71,
      "time": 117.813,
      "duration": 0.208,
      "velocity": 0.71,
      "hand": "right"
    },
    {
      "midi": 78,
      "time": 118.333,
      "duration": 0.833,
      "velocity": 0.71,
      "hand": "right"
    },
    {
      "midi": 66,
      "time": 118.646,
      "duration": 0.208,
      "velocity": 0.71,
      "hand": "right"
    },
    {
      "midi": 75,
      "time": 119.063,
      "duration": 0.208,
      "velocity": 0.71,
      "hand": "right"
    },
    {
      "midi": 68,
      "time": 119.479,
      "duration": 0.208,
      "velocity": 0.71,
      "hand": "right"
    },
    {
      "midi": 61,
      "time": 120.313,
      "duration": 0.417,
      "velocity": 0.71,
      "hand": "right"
    },
    {
      "midi": 69,
      "time": 120.729,
      "duration": 0.521,
      "velocity": 0.71,
      "hand": "right"
    },
    {
      "midi": 61,
      "time": 121.146,
      "duration": 0.417,
      "velocity": 0.71,
      "hand": "right"
    },
    {
      "midi": 69,
      "time": 121.563,
      "duration": 0.521,
      "velocity": 0.71,
      "hand": "right"
    },
    {
      "midi": 61,
      "time": 121.979,
      "duration": 0.417,
      "velocity": 0.71,
      "hand": "right"
    },
    {
      "midi": 66,
      "time": 122.188,
      "duration": 0.208,
      "velocity": 0.71,
      "hand": "right"
    },
    {
      "midi": 78,
      "time": 122.5,
      "duration": 0.417,
      "velocity": 0.71,
      "hand": "right"
    },
    {
      "midi": 64,
      "time": 122.813,
      "duration": 0.417,
      "velocity": 0.71,
      "hand": "right"
    },
    {
      "midi": 73,
      "time": 123.229,
      "duration": 0.208,
      "velocity": 0.71,
      "hand": "right"
    },
    {
      "midi": 81,
      "time": 123.75,
      "duration": 0.938,
      "velocity": 0.71,
      "hand": "right"
    },
    {
      "midi": 66,
      "time": 124.063,
      "duration": 0.208,
      "velocity": 0.71,
      "hand": "right"
    },
    {
      "midi": 75,
      "time": 124.479,
      "duration": 0.208,
      "velocity": 0.71,
      "hand": "right"
    },
    {
      "midi": 80,
      "time": 124.688,
      "duration": 0.208,
      "velocity": 0.71,
      "hand": "right"
    },
    {
      "midi": 76,
      "time": 125.417,
      "duration": 0.208,
      "velocity": 0.71,
      "hand": "right"
    },
    {
      "midi": 73,
      "time": 125.729,
      "duration": 0.208,
      "velocity": 0.71,
      "hand": "right"
    },
    {
      "midi": 71,
      "time": 125.938,
      "duration": 0.208,
      "velocity": 0.71,
      "hand": "right"
    },
    {
      "midi": 68,
      "time": 126.25,
      "duration": 0.208,
      "velocity": 0.71,
      "hand": "right"
    },
    {
      "midi": 66,
      "time": 126.563,
      "duration": 0.208,
      "velocity": 0.71,
      "hand": "right"
    },
    {
      "midi": 68,
      "time": 126.979,
      "duration": 0.208,
      "velocity": 0.71,
      "hand": "right"
    },
    {
      "midi": 61,
      "time": 127.5,
      "duration": 0.208,
      "velocity": 0.71,
      "hand": "right"
    },
    {
      "midi": 61,
      "time": 127.917,
      "duration": 0.417,
      "velocity": 0.71,
      "hand": "right"
    },
    {
      "midi": 76,
      "time": 128.75,
      "duration": 0.208,
      "velocity": 0.71,
      "hand": "right"
    },
    {
      "midi": 73,
      "time": 129.063,
      "duration": 0.208,
      "velocity": 0.71,
      "hand": "right"
    },
    {
      "midi": 73,
      "time": 129.479,
      "duration": 0.208,
      "velocity": 0.71,
      "hand": "right"
    },
    {
      "midi": 71,
      "time": 129.688,
      "duration": 0.208,
      "velocity": 0.71,
      "hand": "right"
    },
    {
      "midi": 68,
      "time": 130,
      "duration": 0.208,
      "velocity": 0.71,
      "hand": "right"
    },
    {
      "midi": 68,
      "time": 130.313,
      "duration": 0.208,
      "velocity": 0.71,
      "hand": "right"
    },
    {
      "midi": 61,
      "time": 130.833,
      "duration": 0.208,
      "velocity": 0.71,
      "hand": "right"
    },
    {
      "midi": 61,
      "time": 131.25,
      "duration": 0.417,
      "velocity": 0.71,
      "hand": "right"
    },
    {
      "midi": 61,
      "time": 132.083,
      "duration": 0.625,
      "velocity": 0.71,
      "hand": "right"
    },
    {
      "midi": 64,
      "time": 132.708,
      "duration": 0.208,
      "velocity": 0.71,
      "hand": "right"
    },
    {
      "midi": 63,
      "time": 132.917,
      "duration": 0.208,
      "velocity": 0.71,
      "hand": "right"
    },
    {
      "midi": 61,
      "time": 133.333,
      "duration": 0.417,
      "velocity": 0.71,
      "hand": "right"
    },
    {
      "midi": 68,
      "time": 133.75,
      "duration": 0.833,
      "velocity": 0.71,
      "hand": "right"
    },
    {
      "midi": 64,
      "time": 134.583,
      "duration": 0.417,
      "velocity": 0.71,
      "hand": "right"
    },
    {
      "midi": 63,
      "time": 135,
      "duration": 0.208,
      "velocity": 0.71,
      "hand": "right"
    },
    {
      "midi": 63,
      "time": 135.313,
      "duration": 0.208,
      "velocity": 0.71,
      "hand": "right"
    },
    {
      "midi": 61,
      "time": 135.833,
      "duration": 0.208,
      "velocity": 0.71,
      "hand": "right"
    },
    {
      "midi": 68,
      "time": 136.042,
      "duration": 0.208,
      "velocity": 0.71,
      "hand": "right"
    },
    {
      "midi": 68,
      "time": 136.458,
      "duration": 0.208,
      "velocity": 0.71,
      "hand": "right"
    },
    {
      "midi": 64,
      "time": 136.667,
      "duration": 0.417,
      "velocity": 0.71,
      "hand": "right"
    },
    {
      "midi": 73,
      "time": 137.083,
      "duration": 0.833,
      "velocity": 0.71,
      "hand": "right"
    },
    {
      "midi": 61,
      "time": 137.292,
      "duration": 0.208,
      "velocity": 0.71,
      "hand": "right"
    },
    {
      "midi": 70,
      "time": 137.917,
      "duration": 0.208,
      "velocity": 0.71,
      "hand": "right"
    },
    {
      "midi": 70,
      "time": 138.229,
      "duration": 0.208,
      "velocity": 0.71,
      "hand": "right"
    },
    {
      "midi": 76,
      "time": 138.75,
      "duration": 0.833,
      "velocity": 0.71,
      "hand": "right"
    },
    {
      "midi": 61,
      "time": 139.375,
      "duration": 0.208,
      "velocity": 0.71,
      "hand": "right"
    },
    {
      "midi": 76,
      "time": 139.688,
      "duration": 0.208,
      "velocity": 0.71,
      "hand": "right"
    },
    {
      "midi": 80,
      "time": 140,
      "duration": 0.625,
      "velocity": 0.71,
      "hand": "right"
    },
    {
      "midi": 68,
      "time": 140.417,
      "duration": 0.208,
      "velocity": 0.71,
      "hand": "right"
    },
    {
      "midi": 80,
      "time": 140.833,
      "duration": 0.625,
      "velocity": 0.71,
      "hand": "right"
    },
    {
      "midi": 66,
      "time": 141.042,
      "duration": 0.208,
      "velocity": 0.71,
      "hand": "right"
    },
    {
      "midi": 78,
      "time": 141.458,
      "duration": 0.208,
      "velocity": 0.71,
      "hand": "right"
    },
    {
      "midi": 80,
      "time": 141.667,
      "duration": 0.625,
      "velocity": 0.71,
      "hand": "right"
    },
    {
      "midi": 68,
      "time": 142.083,
      "duration": 0.208,
      "velocity": 0.71,
      "hand": "right"
    },
    {
      "midi": 78,
      "time": 142.292,
      "duration": 0.208,
      "velocity": 0.71,
      "hand": "right"
    },
    {
      "midi": 78,
      "time": 142.708,
      "duration": 0.417,
      "velocity": 0.71,
      "hand": "right"
    },
    {
      "midi": 70,
      "time": 142.917,
      "duration": 0.208,
      "velocity": 0.71,
      "hand": "right"
    },
    {
      "midi": 81,
      "time": 143.333,
      "duration": 0.833,
      "velocity": 0.71,
      "hand": "right"
    },
    {
      "midi": 69,
      "time": 143.646,
      "duration": 0.208,
      "velocity": 0.71,
      "hand": "right"
    },
    {
      "midi": 78,
      "time": 144.063,
      "duration": 0.208,
      "velocity": 0.71,
      "hand": "right"
    },
    {
      "midi": 71,
      "time": 144.479,
      "duration": 0.208,
      "velocity": 0.71,
      "hand": "right"
    },
    {
      "midi": 63,
      "time": 144.688,
      "duration": 0.208,
      "velocity": 0.71,
      "hand": "right"
    },
    {
      "midi": 78,
      "time": 145,
      "duration": 0.833,
      "velocity": 0.71,
      "hand": "right"
    },
    {
      "midi": 66,
      "time": 145.313,
      "duration": 0.208,
      "velocity": 0.71,
      "hand": "right"
    },
    {
      "midi": 75,
      "time": 145.729,
      "duration": 0.208,
      "velocity": 0.71,
      "hand": "right"
    },
    {
      "midi": 71,
      "time": 145.938,
      "duration": 0.208,
      "velocity": 0.71,
      "hand": "right"
    },
    {
      "midi": 64,
      "time": 146.25,
      "duration": 0.208,
      "velocity": 0.71,
      "hand": "right"
    },
    {
      "midi": 81,
      "time": 146.667,
      "duration": 0.417,
      "velocity": 0.71,
      "hand": "right"
    },
    {
      "midi": 69,
      "time": 146.979,
      "duration": 0.208,
      "velocity": 0.71,
      "hand": "right"
    },
    {
      "midi": 81,
      "time": 147.5,
      "duration": 0.208,
      "velocity": 0.71,
      "hand": "right"
    },
    {
      "midi": 68,
      "time": 147.813,
      "duration": 0.208,
      "velocity": 0.71,
      "hand": "right"
    },
    {
      "midi": 80,
      "time": 148.125,
      "duration": 0.625,
      "velocity": 0.71,
      "hand": "right"
    },
    {
      "midi": 61,
      "time": 148.438,
      "duration": 0.208,
      "velocity": 0.71,
      "hand": "right"
    },
    {
      "midi": 78,
      "time": 148.75,
      "duration": 0.833,
      "velocity": 0.71,
      "hand": "right"
    },
    {
      "midi": 61,
      "time": 149.063,
      "duration": 0.208,
      "velocity": 0.71,
      "hand": "right"
    },
    {
      "midi": 64,
      "time": 149.479,
      "duration": 0.208,
      "velocity": 0.71,
      "hand": "right"
    },
    {
      "midi": 74,
      "time": 150.208,
      "duration": 0.208,
      "velocity": 0.71,
      "hand": "right"
    },
    {
      "midi": 76,
      "time": 150.417,
      "duration": 0.208,
      "velocity": 0.71,
      "hand": "right"
    },
    {
      "midi": 74,
      "time": 150.833,
      "duration": 0.208,
      "velocity": 0.71,
      "hand": "right"
    },
    {
      "midi": 73,
      "time": 151.042,
      "duration": 0.208,
      "velocity": 0.71,
      "hand": "right"
    },
    {
      "midi": 61,
      "time": 151.354,
      "duration": 0.208,
      "velocity": 0.71,
      "hand": "right"
    },
    {
      "midi": 66,
      "time": 151.667,
      "duration": 0.833,
      "velocity": 0.71,
      "hand": "right"
    },
    {
      "midi": 71,
      "time": 152.083,
      "duration": 0.833,
      "velocity": 0.71,
      "hand": "right"
    },
    {
      "midi": 64,
      "time": 152.5,
      "duration": 0.833,
      "velocity": 0.71,
      "hand": "right"
    },
    {
      "midi": 69,
      "time": 152.917,
      "duration": 0.625,
      "velocity": 0.71,
      "hand": "right"
    },
    {
      "midi": 62,
      "time": 153.333,
      "duration": 0.833,
      "velocity": 0.71,
      "hand": "right"
    },
    {
      "midi": 68,
      "time": 153.542,
      "duration": 0.208,
      "velocity": 0.71,
      "hand": "right"
    },
    {
      "midi": 68,
      "time": 153.958,
      "duration": 0.208,
      "velocity": 0.71,
      "hand": "right"
    },
    {
      "midi": 73,
      "time": 154.167,
      "duration": 0.208,
      "velocity": 0.71,
      "hand": "right"
    },
    {
      "midi": 66,
      "time": 154.583,
      "duration": 0.625,
      "velocity": 0.71,
      "hand": "right"
    },
    {
      "midi": 64,
      "time": 155.208,
      "duration": 0.208,
      "velocity": 0.71,
      "hand": "right"
    },
    {
      "midi": 66,
      "time": 155.417,
      "duration": 0.208,
      "velocity": 0.71,
      "hand": "right"
    },
    {
      "midi": 69,
      "time": 155.833,
      "duration": 3.333,
      "velocity": 0.71,
      "hand": "right"
    },
    {
      "midi": 61,
      "time": 156.667,
      "duration": 0.208,
      "velocity": 0.71,
      "hand": "right"
    },
    {
      "midi": 71,
      "time": 157.083,
      "duration": 0.208,
      "velocity": 0.71,
      "hand": "right"
    },
    {
      "midi": 76,
      "time": 157.396,
      "duration": 0.208,
      "velocity": 0.71,
      "hand": "right"
    },
    {
      "midi": 85,
      "time": 157.813,
      "duration": 0.208,
      "velocity": 0.71,
      "hand": "right"
    },
    {
      "midi": 83,
      "time": 158.229,
      "duration": 0.208,
      "velocity": 0.71,
      "hand": "right"
    },
    {
      "midi": 76,
      "time": 158.438,
      "duration": 0.208,
      "velocity": 0.71,
      "hand": "right"
    },
    {
      "midi": 71,
      "time": 158.75,
      "duration": 0.208,
      "velocity": 0.71,
      "hand": "right"
    },
    {
      "midi": 64,
      "time": 159.063,
      "duration": 0.208,
      "velocity": 0.71,
      "hand": "right"
    },
    {
      "midi": 63,
      "time": 159.896,
      "duration": 0.208,
      "velocity": 0.71,
      "hand": "right"
    },
    {
      "midi": 75,
      "time": 160.313,
      "duration": 0.208,
      "velocity": 0.71,
      "hand": "right"
    },
    {
      "midi": 71,
      "time": 160.729,
      "duration": 0.208,
      "velocity": 0.71,
      "hand": "right"
    },
    {
      "midi": 63,
      "time": 161.563,
      "duration": 0.208,
      "velocity": 0.71,
      "hand": "right"
    },
    {
      "midi": 75,
      "time": 161.979,
      "duration": 0.208,
      "velocity": 0.71,
      "hand": "right"
    },
    {
      "midi": 83,
      "time": 162.188,
      "duration": 0.208,
      "velocity": 0.71,
      "hand": "right"
    },
    {
      "midi": 64,
      "time": 162.5,
      "duration": 0.417,
      "velocity": 0.71,
      "hand": "right"
    },
    {
      "midi": 88,
      "time": 162.917,
      "duration": 0.208,
      "velocity": 0.71,
      "hand": "right"
    },
    {
      "midi": 85,
      "time": 163.229,
      "duration": 0.208,
      "velocity": 0.71,
      "hand": "right"
    },
    {
      "midi": 83,
      "time": 163.438,
      "duration": 0.208,
      "velocity": 0.71,
      "hand": "right"
    },
    {
      "midi": 80,
      "time": 163.75,
      "duration": 0.208,
      "velocity": 0.71,
      "hand": "right"
    },
    {
      "midi": 78,
      "time": 164.063,
      "duration": 0.208,
      "velocity": 0.71,
      "hand": "right"
    },
    {
      "midi": 80,
      "time": 164.479,
      "duration": 0.208,
      "velocity": 0.71,
      "hand": "right"
    },
    {
      "midi": 61,
      "time": 165,
      "duration": 0.208,
      "velocity": 0.71,
      "hand": "right"
    },
    {
      "midi": 73,
      "time": 165.417,
      "duration": 0.417,
      "velocity": 0.71,
      "hand": "right"
    },
    {
      "midi": 71,
      "time": 165.833,
      "duration": 0.417,
      "velocity": 0.71,
      "hand": "right"
    },
    {
      "midi": 76,
      "time": 166.25,
      "duration": 0.208,
      "velocity": 0.71,
      "hand": "right"
    },
    {
      "midi": 73,
      "time": 166.563,
      "duration": 0.208,
      "velocity": 0.71,
      "hand": "right"
    },
    {
      "midi": 73,
      "time": 166.979,
      "duration": 0.208,
      "velocity": 0.71,
      "hand": "right"
    },
    {
      "midi": 71,
      "time": 167.188,
      "duration": 0.208,
      "velocity": 0.71,
      "hand": "right"
    },
    {
      "midi": 68,
      "time": 167.5,
      "duration": 0.208,
      "velocity": 0.71,
      "hand": "right"
    },
    {
      "midi": 68,
      "time": 167.813,
      "duration": 0.208,
      "velocity": 0.71,
      "hand": "right"
    },
    {
      "midi": 61,
      "time": 168.333,
      "duration": 0.208,
      "velocity": 0.71,
      "hand": "right"
    },
    {
      "midi": 61,
      "time": 168.75,
      "duration": 0.417,
      "velocity": 0.71,
      "hand": "right"
    },
    {
      "midi": 61,
      "time": 169.688,
      "duration": 0.208,
      "velocity": 0.71,
      "hand": "right"
    },
    {
      "midi": 64,
      "time": 170.104,
      "duration": 0.208,
      "velocity": 0.71,
      "hand": "right"
    },
    {
      "midi": 66,
      "time": 170.521,
      "duration": 0.208,
      "velocity": 0.71,
      "hand": "right"
    },
    {
      "midi": 71,
      "time": 170.938,
      "duration": 0.208,
      "velocity": 0.71,
      "hand": "right"
    },
    {
      "midi": 73,
      "time": 171.354,
      "duration": 0.208,
      "velocity": 0.71,
      "hand": "right"
    },
    {
      "midi": 68,
      "time": 171.563,
      "duration": 0.208,
      "velocity": 0.71,
      "hand": "right"
    },
    {
      "midi": 71,
      "time": 171.979,
      "duration": 0.208,
      "velocity": 0.71,
      "hand": "right"
    },
    {
      "midi": 78,
      "time": 172.188,
      "duration": 0.208,
      "velocity": 0.71,
      "hand": "right"
    },
    {
      "midi": 64,
      "time": 172.5,
      "duration": 0.417,
      "velocity": 0.71,
      "hand": "right"
    },
    {
      "midi": 76,
      "time": 172.813,
      "duration": 0.208,
      "velocity": 0.71,
      "hand": "right"
    },
    {
      "midi": 80,
      "time": 173.229,
      "duration": 0.208,
      "velocity": 0.71,
      "hand": "right"
    },
    {
      "midi": 88,
      "time": 173.438,
      "duration": 0.208,
      "velocity": 0.71,
      "hand": "right"
    },
    {
      "midi": 80,
      "time": 173.75,
      "duration": 0.417,
      "velocity": 0.71,
      "hand": "right"
    },
    {
      "midi": 85,
      "time": 174.063,
      "duration": 0.208,
      "velocity": 0.71,
      "hand": "right"
    },
    {
      "midi": 92,
      "time": 174.583,
      "duration": 0.833,
      "velocity": 0.71,
      "hand": "right"
    },
    {
      "midi": 92,
      "time": 175.417,
      "duration": 0.417,
      "velocity": 0.71,
      "hand": "right"
    },
    {
      "midi": 64,
      "time": 175.833,
      "duration": 0.417,
      "velocity": 0.71,
      "hand": "right"
    }
  ],
  "notes2Hands": [
    {
      "midi": 61,
      "time": 0,
      "duration": 0.104,
      "velocity": 0.71,
      "hand": "right"
    },
    {
      "midi": 64,
      "time": 0.104,
      "duration": 0.104,
      "velocity": 0.71,
      "hand": "right"
    },
    {
      "midi": 69,
      "time": 0.313,
      "duration": 0.104,
      "velocity": 0.71,
      "hand": "right"
    },
    {
      "midi": 73,
      "time": 0.417,
      "duration": 0.104,
      "velocity": 0.71,
      "hand": "right"
    },
    {
      "midi": 76,
      "time": 0.521,
      "duration": 0.104,
      "velocity": 0.71,
      "hand": "right"
    },
    {
      "midi": 78,
      "time": 0.729,
      "duration": 0.104,
      "velocity": 0.71,
      "hand": "right"
    },
    {
      "midi": 80,
      "time": 0.833,
      "duration": 0.104,
      "velocity": 0.71,
      "hand": "right"
    },
    {
      "midi": 75,
      "time": 0.938,
      "duration": 0.104,
      "velocity": 0.71,
      "hand": "right"
    },
    {
      "midi": 71,
      "time": 1.146,
      "duration": 0.104,
      "velocity": 0.71,
      "hand": "right"
    },
    {
      "midi": 68,
      "time": 1.25,
      "duration": 0.104,
      "velocity": 0.71,
      "hand": "right"
    },
    {
      "midi": 63,
      "time": 1.354,
      "duration": 0.104,
      "velocity": 0.71,
      "hand": "right"
    },
    {
      "midi": 59,
      "time": 1.563,
      "duration": 0.104,
      "velocity": 0.71,
      "hand": "left"
    },
    {
      "midi": 57,
      "time": 1.667,
      "duration": 0.104,
      "velocity": 0.71,
      "hand": "left"
    },
    {
      "midi": 61,
      "time": 1.771,
      "duration": 0.104,
      "velocity": 0.71,
      "hand": "right"
    },
    {
      "midi": 66,
      "time": 1.979,
      "duration": 0.104,
      "velocity": 0.71,
      "hand": "right"
    },
    {
      "midi": 69,
      "time": 2.083,
      "duration": 0.104,
      "velocity": 0.71,
      "hand": "right"
    },
    {
      "midi": 73,
      "time": 2.188,
      "duration": 0.104,
      "velocity": 0.71,
      "hand": "right"
    },
    {
      "midi": 75,
      "time": 2.396,
      "duration": 0.104,
      "velocity": 0.71,
      "hand": "right"
    },
    {
      "midi": 76,
      "time": 2.5,
      "duration": 0.104,
      "velocity": 0.71,
      "hand": "right"
    },
    {
      "midi": 71,
      "time": 2.604,
      "duration": 0.104,
      "velocity": 0.71,
      "hand": "right"
    },
    {
      "midi": 68,
      "time": 2.813,
      "duration": 0.104,
      "velocity": 0.71,
      "hand": "right"
    },
    {
      "midi": 64,
      "time": 2.917,
      "duration": 0.104,
      "velocity": 0.71,
      "hand": "right"
    },
    {
      "midi": 59,
      "time": 3.021,
      "duration": 0.104,
      "velocity": 0.71,
      "hand": "left"
    },
    {
      "midi": 56,
      "time": 3.229,
      "duration": 0.104,
      "velocity": 0.71,
      "hand": "left"
    },
    {
      "midi": 54,
      "time": 3.333,
      "duration": 0.833,
      "velocity": 0.71,
      "hand": "left"
    },
    {
      "midi": 57,
      "time": 3.438,
      "duration": 0.104,
      "velocity": 0.71,
      "hand": "left"
    },
    {
      "midi": 61,
      "time": 3.646,
      "duration": 0.417,
      "velocity": 0.71,
      "hand": "right"
    },
    {
      "midi": 73,
      "time": 3.75,
      "duration": 0.417,
      "velocity": 0.71,
      "hand": "right"
    },
    {
      "midi": 66,
      "time": 3.854,
      "duration": 0.104,
      "velocity": 0.71,
      "hand": "right"
    },
    {
      "midi": 69,
      "time": 4.063,
      "duration": 0.521,
      "velocity": 0.71,
      "hand": "right"
    },
    {
      "midi": 52,
      "time": 4.167,
      "duration": 0.833,
      "velocity": 0.71,
      "hand": "left"
    },
    {
      "midi": 78,
      "time": 4.167,
      "duration": 0.417,
      "velocity": 0.71,
      "hand": "right"
    },
    {
      "midi": 57,
      "time": 4.271,
      "duration": 0.104,
      "velocity": 0.71,
      "hand": "left"
    },
    {
      "midi": 61,
      "time": 4.479,
      "duration": 0.417,
      "velocity": 0.71,
      "hand": "right"
    },
    {
      "midi": 73,
      "time": 4.583,
      "duration": 0.833,
      "velocity": 0.71,
      "hand": "right"
    },
    {
      "midi": 66,
      "time": 4.688,
      "duration": 0.104,
      "velocity": 0.71,
      "hand": "right"
    },
    {
      "midi": 69,
      "time": 4.896,
      "duration": 0.521,
      "velocity": 0.71,
      "hand": "right"
    },
    {
      "midi": 51,
      "time": 5,
      "duration": 0.833,
      "velocity": 0.71,
      "hand": "left"
    },
    {
      "midi": 57,
      "time": 5.104,
      "duration": 0.104,
      "velocity": 0.71,
      "hand": "left"
    },
    {
      "midi": 61,
      "time": 5.313,
      "duration": 0.417,
      "velocity": 0.71,
      "hand": "right"
    },
    {
      "midi": 73,
      "time": 5.417,
      "duration": 0.417,
      "velocity": 0.71,
      "hand": "right"
    },
    {
      "midi": 66,
      "time": 5.521,
      "duration": 0.104,
      "velocity": 0.71,
      "hand": "right"
    },
    {
      "midi": 69,
      "time": 5.729,
      "duration": 0.521,
      "velocity": 0.71,
      "hand": "right"
    },
    {
      "midi": 49,
      "time": 5.833,
      "duration": 0.833,
      "velocity": 0.71,
      "hand": "left"
    },
    {
      "midi": 78,
      "time": 5.833,
      "duration": 0.417,
      "velocity": 0.71,
      "hand": "right"
    },
    {
      "midi": 57,
      "time": 5.938,
      "duration": 0.104,
      "velocity": 0.71,
      "hand": "left"
    },
    {
      "midi": 64,
      "time": 6.146,
      "duration": 0.417,
      "velocity": 0.71,
      "hand": "right"
    },
    {
      "midi": 81,
      "time": 6.25,
      "duration": 0.833,
      "velocity": 0.71,
      "hand": "right"
    },
    {
      "midi": 69,
      "time": 6.354,
      "duration": 0.104,
      "velocity": 0.71,
      "hand": "right"
    },
    {
      "midi": 73,
      "time": 6.563,
      "duration": 0.104,
      "velocity": 0.71,
      "hand": "right"
    },
    {
      "midi": 47,
      "time": 6.667,
      "duration": 0.104,
      "velocity": 0.71,
      "hand": "left"
    },
    {
      "midi": 54,
      "time": 6.771,
      "duration": 0.104,
      "velocity": 0.71,
      "hand": "left"
    },
    {
      "midi": 57,
      "time": 6.979,
      "duration": 0.104,
      "velocity": 0.71,
      "hand": "left"
    },
    {
      "midi": 61,
      "time": 7.083,
      "duration": 0.104,
      "velocity": 0.71,
      "hand": "right"
    },
    {
      "midi": 81,
      "time": 7.083,
      "duration": 0.938,
      "velocity": 0.71,
      "hand": "right"
    },
    {
      "midi": 63,
      "time": 7.188,
      "duration": 0.104,
      "velocity": 0.71,
      "hand": "right"
    },
    {
      "midi": 66,
      "time": 7.396,
      "duration": 0.104,
      "velocity": 0.71,
      "hand": "right"
    },
    {
      "midi": 69,
      "time": 7.5,
      "duration": 0.104,
      "velocity": 0.71,
      "hand": "right"
    },
    {
      "midi": 73,
      "time": 7.604,
      "duration": 0.104,
      "velocity": 0.71,
      "hand": "right"
    },
    {
      "midi": 75,
      "time": 7.813,
      "duration": 0.104,
      "velocity": 0.71,
      "hand": "right"
    },
    {
      "midi": 73,
      "time": 7.917,
      "duration": 0.104,
      "velocity": 0.71,
      "hand": "right"
    },
    {
      "midi": 71,
      "time": 8.021,
      "duration": 0.104,
      "velocity": 0.71,
      "hand": "right"
    },
    {
      "midi": 80,
      "time": 8.021,
      "duration": 0.104,
      "velocity": 0.71,
      "hand": "right"
    },
    {
      "midi": 69,
      "time": 8.229,
      "duration": 0.104,
      "velocity": 0.71,
      "hand": "right"
    },
    {
      "midi": 78,
      "time": 8.229,
      "duration": 0.104,
      "velocity": 0.71,
      "hand": "right"
    },
    {
      "midi": 40,
      "time": 8.333,
      "duration": 0.208,
      "velocity": 0.71,
      "hand": "left"
    },
    {
      "midi": 47,
      "time": 8.542,
      "duration": 0.208,
      "velocity": 0.71,
      "hand": "left"
    },
    {
      "midi": 52,
      "time": 8.75,
      "duration": 0.208,
      "velocity": 0.71,
      "hand": "left"
    },
    {
      "midi": 76,
      "time": 8.75,
      "duration": 0.104,
      "velocity": 0.71,
      "hand": "right"
    },
    {
      "midi": 78,
      "time": 8.854,
      "duration": 0.104,
      "velocity": 0.71,
      "hand": "right"
    },
    {
      "midi": 56,
      "time": 8.958,
      "duration": 0.208,
      "velocity": 0.71,
      "hand": "left"
    },
    {
      "midi": 73,
      "time": 9.063,
      "duration": 0.104,
      "velocity": 0.71,
      "hand": "right"
    },
    {
      "midi": 59,
      "time": 9.167,
      "duration": 0.208,
      "velocity": 0.71,
      "hand": "left"
    },
    {
      "midi": 76,
      "time": 9.167,
      "duration": 0.104,
      "velocity": 0.71,
      "hand": "right"
    },
    {
      "midi": 71,
      "time": 9.271,
      "duration": 0.104,
      "velocity": 0.71,
      "hand": "right"
    },
    {
      "midi": 56,
      "time": 9.375,
      "duration": 0.208,
      "velocity": 0.71,
      "hand": "left"
    },
    {
      "midi": 73,
      "time": 9.479,
      "duration": 0.104,
      "velocity": 0.71,
      "hand": "right"
    },
    {
      "midi": 52,
      "time": 9.583,
      "duration": 0.208,
      "velocity": 0.71,
      "hand": "left"
    },
    {
      "midi": 68,
      "time": 9.583,
      "duration": 0.104,
      "velocity": 0.71,
      "hand": "right"
    },
    {
      "midi": 71,
      "time": 9.688,
      "duration": 0.104,
      "velocity": 0.71,
      "hand": "right"
    },
    {
      "midi": 47,
      "time": 9.792,
      "duration": 0.208,
      "velocity": 0.71,
      "hand": "left"
    },
    {
      "midi": 66,
      "time": 9.896,
      "duration": 0.104,
      "velocity": 0.71,
      "hand": "right"
    },
    {
      "midi": 40,
      "time": 10,
      "duration": 0.208,
      "velocity": 0.71,
      "hand": "left"
    },
    {
      "midi": 68,
      "time": 10,
      "duration": 0.104,
      "velocity": 0.71,
      "hand": "right"
    },
    {
      "midi": 64,
      "time": 10.104,
      "duration": 0.104,
      "velocity": 0.71,
      "hand": "right"
    },
    {
      "midi": 49,
      "time": 10.208,
      "duration": 0.208,
      "velocity": 0.71,
      "hand": "left"
    },
    {
      "midi": 68,
      "time": 10.313,
      "duration": 0.104,
      "velocity": 0.71,
      "hand": "right"
    },
    {
      "midi": 52,
      "time": 10.417,
      "duration": 0.208,
      "velocity": 0.71,
      "hand": "left"
    },
    {
      "midi": 63,
      "time": 10.417,
      "duration": 0.833,
      "velocity": 0.71,
      "hand": "right"
    },
    {
      "midi": 56,
      "time": 10.625,
      "duration": 0.208,
      "velocity": 0.71,
      "hand": "left"
    },
    {
      "midi": 61,
      "time": 10.833,
      "duration": 0.208,
      "velocity": 0.71,
      "hand": "right"
    },
    {
      "midi": 56,
      "time": 11.042,
      "duration": 0.208,
      "velocity": 0.71,
      "hand": "left"
    },
    {
      "midi": 52,
      "time": 11.25,
      "duration": 0.208,
      "velocity": 0.71,
      "hand": "left"
    },
    {
      "midi": 61,
      "time": 11.25,
      "duration": 0.417,
      "velocity": 0.71,
      "hand": "right"
    },
    {
      "midi": 47,
      "time": 11.458,
      "duration": 0.208,
      "velocity": 0.71,
      "hand": "left"
    },
    {
      "midi": 40,
      "time": 11.667,
      "duration": 0.208,
      "velocity": 0.71,
      "hand": "left"
    },
    {
      "midi": 59,
      "time": 11.667,
      "duration": 0.208,
      "velocity": 0.71,
      "hand": "left"
    },
    {
      "midi": 47,
      "time": 11.875,
      "duration": 0.208,
      "velocity": 0.71,
      "hand": "left"
    },
    {
      "midi": 52,
      "time": 12.083,
      "duration": 0.208,
      "velocity": 0.71,
      "hand": "left"
    },
    {
      "midi": 76,
      "time": 12.083,
      "duration": 0.104,
      "velocity": 0.71,
      "hand": "right"
    },
    {
      "midi": 78,
      "time": 12.188,
      "duration": 0.104,
      "velocity": 0.71,
      "hand": "right"
    },
    {
      "midi": 56,
      "time": 12.292,
      "duration": 0.208,
      "velocity": 0.71,
      "hand": "left"
    },
    {
      "midi": 73,
      "time": 12.396,
      "duration": 0.104,
      "velocity": 0.71,
      "hand": "right"
    },
    {
      "midi": 59,
      "time": 12.5,
      "duration": 0.208,
      "velocity": 0.71,
      "hand": "left"
    },
    {
      "midi": 76,
      "time": 12.5,
      "duration": 0.104,
      "velocity": 0.71,
      "hand": "right"
    },
    {
      "midi": 71,
      "time": 12.604,
      "duration": 0.104,
      "velocity": 0.71,
      "hand": "right"
    },
    {
      "midi": 56,
      "time": 12.708,
      "duration": 0.208,
      "velocity": 0.71,
      "hand": "left"
    },
    {
      "midi": 73,
      "time": 12.813,
      "duration": 0.104,
      "velocity": 0.71,
      "hand": "right"
    },
    {
      "midi": 52,
      "time": 12.917,
      "duration": 0.208,
      "velocity": 0.71,
      "hand": "left"
    },
    {
      "midi": 68,
      "time": 12.917,
      "duration": 0.104,
      "velocity": 0.71,
      "hand": "right"
    },
    {
      "midi": 71,
      "time": 13.021,
      "duration": 0.104,
      "velocity": 0.71,
      "hand": "right"
    },
    {
      "midi": 47,
      "time": 13.125,
      "duration": 0.208,
      "velocity": 0.71,
      "hand": "left"
    },
    {
      "midi": 66,
      "time": 13.229,
      "duration": 0.104,
      "velocity": 0.71,
      "hand": "right"
    },
    {
      "midi": 40,
      "time": 13.333,
      "duration": 0.208,
      "velocity": 0.71,
      "hand": "left"
    },
    {
      "midi": 68,
      "time": 13.333,
      "duration": 0.104,
      "velocity": 0.71,
      "hand": "right"
    },
    {
      "midi": 64,
      "time": 13.438,
      "duration": 0.104,
      "velocity": 0.71,
      "hand": "right"
    },
    {
      "midi": 49,
      "time": 13.542,
      "duration": 0.208,
      "velocity": 0.71,
      "hand": "left"
    },
    {
      "midi": 68,
      "time": 13.646,
      "duration": 0.104,
      "velocity": 0.71,
      "hand": "right"
    },
    {
      "midi": 52,
      "time": 13.75,
      "duration": 0.208,
      "velocity": 0.71,
      "hand": "left"
    },
    {
      "midi": 63,
      "time": 13.75,
      "duration": 0.833,
      "velocity": 0.71,
      "hand": "right"
    },
    {
      "midi": 56,
      "time": 13.958,
      "duration": 0.208,
      "velocity": 0.71,
      "hand": "left"
    },
    {
      "midi": 61,
      "time": 14.167,
      "duration": 0.208,
      "velocity": 0.71,
      "hand": "right"
    },
    {
      "midi": 56,
      "time": 14.375,
      "duration": 0.208,
      "velocity": 0.71,
      "hand": "left"
    },
    {
      "midi": 52,
      "time": 14.583,
      "duration": 0.208,
      "velocity": 0.71,
      "hand": "left"
    },
    {
      "midi": 61,
      "time": 14.583,
      "duration": 0.417,
      "velocity": 0.71,
      "hand": "right"
    },
    {
      "midi": 47,
      "time": 14.792,
      "duration": 0.208,
      "velocity": 0.71,
      "hand": "left"
    },
    {
      "midi": 42,
      "time": 15,
      "duration": 0.208,
      "velocity": 0.71,
      "hand": "left"
    },
    {
      "midi": 59,
      "time": 15,
      "duration": 0.104,
      "velocity": 0.71,
      "hand": "left"
    },
    {
      "midi": 57,
      "time": 15.104,
      "duration": 0.104,
      "velocity": 0.71,
      "hand": "left"
    },
    {
      "midi": 49,
      "time": 15.208,
      "duration": 0.208,
      "velocity": 0.71,
      "hand": "left"
    },
    {
      "midi": 59,
      "time": 15.313,
      "duration": 0.104,
      "velocity": 0.71,
      "hand": "left"
    },
    {
      "midi": 52,
      "time": 15.417,
      "duration": 0.208,
      "velocity": 0.71,
      "hand": "left"
    },
    {
      "midi": 61,
      "time": 15.417,
      "duration": 0.625,
      "velocity": 0.71,
      "hand": "right"
    },
    {
      "midi": 54,
      "time": 15.625,
      "duration": 0.208,
      "velocity": 0.71,
      "hand": "left"
    },
    {
      "midi": 57,
      "time": 15.833,
      "duration": 0.208,
      "velocity": 0.71,
      "hand": "left"
    },
    {
      "midi": 54,
      "time": 16.042,
      "duration": 0.208,
      "velocity": 0.71,
      "hand": "left"
    },
    {
      "midi": 64,
      "time": 16.042,
      "duration": 0.208,
      "velocity": 0.71,
      "hand": "right"
    },
    {
      "midi": 52,
      "time": 16.25,
      "duration": 0.208,
      "velocity": 0.71,
      "hand": "left"
    },
    {
      "midi": 63,
      "time": 16.25,
      "duration": 0.208,
      "velocity": 0.71,
      "hand": "right"
    },
    {
      "midi": 49,
      "time": 16.458,
      "duration": 0.208,
      "velocity": 0.71,
      "hand": "left"
    },
    {
      "midi": 64,
      "time": 16.458,
      "duration": 0.208,
      "velocity": 0.71,
      "hand": "right"
    },
    {
      "midi": 44,
      "time": 16.667,
      "duration": 0.208,
      "velocity": 0.71,
      "hand": "left"
    },
    {
      "midi": 61,
      "time": 16.667,
      "duration": 0.417,
      "velocity": 0.71,
      "hand": "right"
    },
    {
      "midi": 49,
      "time": 16.875,
      "duration": 0.208,
      "velocity": 0.71,
      "hand": "left"
    },
    {
      "midi": 52,
      "time": 17.083,
      "duration": 0.208,
      "velocity": 0.71,
      "hand": "left"
    },
    {
      "midi": 68,
      "time": 17.083,
      "duration": 0.833,
      "velocity": 0.71,
      "hand": "right"
    },
    {
      "midi": 56,
      "time": 17.292,
      "duration": 0.208,
      "velocity": 0.71,
      "hand": "left"
    },
    {
      "midi": 59,
      "time": 17.5,
      "duration": 0.208,
      "velocity": 0.71,
      "hand": "left"
    },
    {
      "midi": 56,
      "time": 17.708,
      "duration": 0.208,
      "velocity": 0.71,
      "hand": "left"
    },
    {
      "midi": 52,
      "time": 17.917,
      "duration": 0.208,
      "velocity": 0.71,
      "hand": "left"
    },
    {
      "midi": 64,
      "time": 17.917,
      "duration": 0.417,
      "velocity": 0.71,
      "hand": "right"
    },
    {
      "midi": 49,
      "time": 18.125,
      "duration": 0.208,
      "velocity": 0.71,
      "hand": "left"
    },
    {
      "midi": 45,
      "time": 18.333,
      "duration": 0.208,
      "velocity": 0.71,
      "hand": "left"
    },
    {
      "midi": 63,
      "time": 18.333,
      "duration": 0.104,
      "velocity": 0.71,
      "hand": "right"
    },
    {
      "midi": 61,
      "time": 18.438,
      "duration": 0.104,
      "velocity": 0.71,
      "hand": "right"
    },
    {
      "midi": 52,
      "time": 18.542,
      "duration": 0.208,
      "velocity": 0.71,
      "hand": "left"
    },
    {
      "midi": 63,
      "time": 18.646,
      "duration": 0.104,
      "velocity": 0.71,
      "hand": "right"
    },
    {
      "midi": 54,
      "time": 18.75,
      "duration": 0.208,
      "velocity": 0.71,
      "hand": "left"
    },
    {
      "midi": 64,
      "time": 18.75,
      "duration": 0.625,
      "velocity": 0.71,
      "hand": "right"
    },
    {
      "midi": 57,
      "time": 18.958,
      "duration": 0.208,
      "velocity": 0.71,
      "hand": "left"
    },
    {
      "midi": 61,
      "time": 19.167,
      "duration": 0.208,
      "velocity": 0.71,
      "hand": "right"
    },
    {
      "midi": 57,
      "time": 19.375,
      "duration": 0.208,
      "velocity": 0.71,
      "hand": "left"
    },
    {
      "midi": 68,
      "time": 19.375,
      "duration": 0.208,
      "velocity": 0.71,
      "hand": "right"
    },
    {
      "midi": 54,
      "time": 19.583,
      "duration": 0.208,
      "velocity": 0.71,
      "hand": "left"
    },
    {
      "midi": 66,
      "time": 19.583,
      "duration": 0.208,
      "velocity": 0.71,
      "hand": "right"
    },
    {
      "midi": 52,
      "time": 19.792,
      "duration": 0.208,
      "velocity": 0.71,
      "hand": "left"
    },
    {
      "midi": 68,
      "time": 19.792,
      "duration": 0.208,
      "velocity": 0.71,
      "hand": "right"
    },
    {
      "midi": 46,
      "time": 20,
      "duration": 0.208,
      "velocity": 0.71,
      "hand": "left"
    },
    {
      "midi": 64,
      "time": 20,
      "duration": 0.417,
      "velocity": 0.71,
      "hand": "right"
    },
    {
      "midi": 52,
      "time": 20.208,
      "duration": 0.208,
      "velocity": 0.71,
      "hand": "left"
    },
    {
      "midi": 56,
      "time": 20.417,
      "duration": 0.208,
      "velocity": 0.71,
      "hand": "left"
    },
    {
      "midi": 73,
      "time": 20.417,
      "duration": 0.833,
      "velocity": 0.71,
      "hand": "right"
    },
    {
      "midi": 61,
      "time": 20.625,
      "duration": 0.208,
      "velocity": 0.71,
      "hand": "right"
    },
    {
      "midi": 49,
      "time": 20.833,
      "duration": 0.208,
      "velocity": 0.71,
      "hand": "left"
    },
    {
      "midi": 54,
      "time": 21.042,
      "duration": 0.208,
      "velocity": 0.71,
      "hand": "left"
    },
    {
      "midi": 58,
      "time": 21.25,
      "duration": 0.208,
      "velocity": 0.71,
      "hand": "left"
    },
    {
      "midi": 70,
      "time": 21.25,
      "duration": 0.104,
      "velocity": 0.71,
      "hand": "right"
    },
    {
      "midi": 73,
      "time": 21.354,
      "duration": 0.104,
      "velocity": 0.71,
      "hand": "right"
    },
    {
      "midi": 64,
      "time": 21.458,
      "duration": 0.208,
      "velocity": 0.71,
      "hand": "right"
    },
    {
      "midi": 70,
      "time": 21.563,
      "duration": 0.104,
      "velocity": 0.71,
      "hand": "right"
    },
    {
      "midi": 52,
      "time": 21.667,
      "duration": 0.208,
      "velocity": 0.71,
      "hand": "left"
    },
    {
      "midi": 68,
      "time": 21.667,
      "duration": 0.417,
      "velocity": 0.71,
      "hand": "right"
    },
    {
      "midi": 58,
      "time": 21.875,
      "duration": 0.208,
      "velocity": 0.71,
      "hand": "left"
    },
    {
      "midi": 61,
      "time": 22.083,
      "duration": 0.208,
      "velocity": 0.71,
      "hand": "right"
    },
    {
      "midi": 76,
      "time": 22.083,
      "duration": 0.833,
      "velocity": 0.71,
      "hand": "right"
    },
    {
      "midi": 68,
      "time": 22.292,
      "duration": 0.208,
      "velocity": 0.71,
      "hand": "right"
    },
    {
      "midi": 54,
      "time": 22.5,
      "duration": 0.208,
      "velocity": 0.71,
      "hand": "left"
    },
    {
      "midi": 61,
      "time": 22.708,
      "duration": 0.208,
      "velocity": 0.71,
      "hand": "right"
    },
    {
      "midi": 64,
      "time": 22.917,
      "duration": 0.208,
      "velocity": 0.71,
      "hand": "right"
    },
    {
      "midi": 73,
      "time": 22.917,
      "duration": 0.104,
      "velocity": 0.71,
      "hand": "right"
    },
    {
      "midi": 76,
      "time": 23.021,
      "duration": 0.104,
      "velocity": 0.71,
      "hand": "right"
    },
    {
      "midi": 70,
      "time": 23.125,
      "duration": 0.208,
      "velocity": 0.71,
      "hand": "right"
    },
    {
      "midi": 73,
      "time": 23.229,
      "duration": 0.104,
      "velocity": 0.71,
      "hand": "right"
    },
    {
      "midi": 58,
      "time": 23.333,
      "duration": 0.208,
      "velocity": 0.71,
      "hand": "left"
    },
    {
      "midi": 80,
      "time": 23.333,
      "duration": 0.625,
      "velocity": 0.71,
      "hand": "right"
    },
    {
      "midi": 64,
      "time": 23.542,
      "duration": 0.208,
      "velocity": 0.71,
      "hand": "right"
    },
    {
      "midi": 68,
      "time": 23.75,
      "duration": 0.208,
      "velocity": 0.71,
      "hand": "right"
    },
    {
      "midi": 73,
      "time": 23.958,
      "duration": 0.208,
      "velocity": 0.71,
      "hand": "right"
    },
    {
      "midi": 78,
      "time": 23.958,
      "duration": 0.208,
      "velocity": 0.71,
      "hand": "right"
    },
    {
      "midi": 61,
      "time": 24.167,
      "duration": 0.208,
      "velocity": 0.71,
      "hand": "right"
    },
    {
      "midi": 80,
      "time": 24.167,
      "duration": 0.625,
      "velocity": 0.71,
      "hand": "right"
    },
    {
      "midi": 66,
      "time": 24.375,
      "duration": 0.208,
      "velocity": 0.71,
      "hand": "right"
    },
    {
      "midi": 70,
      "time": 24.583,
      "duration": 0.208,
      "velocity": 0.71,
      "hand": "right"
    },
    {
      "midi": 76,
      "time": 24.792,
      "duration": 0.208,
      "velocity": 0.71,
      "hand": "right"
    },
    {
      "midi": 78,
      "time": 24.792,
      "duration": 0.208,
      "velocity": 0.71,
      "hand": "right"
    },
    {
      "midi": 58,
      "time": 25,
      "duration": 0.208,
      "velocity": 0.71,
      "hand": "left"
    },
    {
      "midi": 80,
      "time": 25,
      "duration": 0.625,
      "velocity": 0.71,
      "hand": "right"
    },
    {
      "midi": 64,
      "time": 25.208,
      "duration": 0.208,
      "velocity": 0.71,
      "hand": "right"
    },
    {
      "midi": 68,
      "time": 25.417,
      "duration": 0.208,
      "velocity": 0.71,
      "hand": "right"
    },
    {
      "midi": 73,
      "time": 25.625,
      "duration": 0.208,
      "velocity": 0.71,
      "hand": "right"
    },
    {
      "midi": 78,
      "time": 25.625,
      "duration": 0.208,
      "velocity": 0.71,
      "hand": "right"
    },
    {
      "midi": 61,
      "time": 25.833,
      "duration": 0.208,
      "velocity": 0.71,
      "hand": "right"
    },
    {
      "midi": 80,
      "time": 25.833,
      "duration": 0.208,
      "velocity": 0.71,
      "hand": "right"
    },
    {
      "midi": 66,
      "time": 26.042,
      "duration": 0.208,
      "velocity": 0.71,
      "hand": "right"
    },
    {
      "midi": 78,
      "time": 26.042,
      "duration": 0.417,
      "velocity": 0.71,
      "hand": "right"
    },
    {
      "midi": 70,
      "time": 26.25,
      "duration": 0.208,
      "velocity": 0.71,
      "hand": "right"
    },
    {
      "midi": 76,
      "time": 26.458,
      "duration": 0.208,
      "velocity": 0.71,
      "hand": "right"
    },
    {
      "midi": 80,
      "time": 26.458,
      "duration": 0.208,
      "velocity": 0.71,
      "hand": "right"
    },
    {
      "midi": 61,
      "time": 26.667,
      "duration": 0.104,
      "velocity": 0.71,
      "hand": "right"
    },
    {
      "midi": 81,
      "time": 26.667,
      "duration": 0.833,
      "velocity": 0.71,
      "hand": "right"
    },
    {
      "midi": 64,
      "time": 26.771,
      "duration": 0.104,
      "velocity": 0.71,
      "hand": "right"
    },
    {
      "midi": 69,
      "time": 26.979,
      "duration": 0.104,
      "velocity": 0.71,
      "hand": "right"
    },
    {
      "midi": 73,
      "time": 27.083,
      "duration": 0.104,
      "velocity": 0.71,
      "hand": "right"
    },
    {
      "midi": 76,
      "time": 27.188,
      "duration": 0.104,
      "velocity": 0.71,
      "hand": "right"
    },
    {
      "midi": 78,
      "time": 27.396,
      "duration": 0.104,
      "velocity": 0.71,
      "hand": "right"
    },
    {
      "midi": 80,
      "time": 27.5,
      "duration": 0.833,
      "velocity": 0.71,
      "hand": "right"
    },
    {
      "midi": 75,
      "time": 27.604,
      "duration": 0.104,
      "velocity": 0.71,
      "hand": "right"
    },
    {
      "midi": 71,
      "time": 27.813,
      "duration": 0.104,
      "velocity": 0.71,
      "hand": "right"
    },
    {
      "midi": 68,
      "time": 27.917,
      "duration": 0.104,
      "velocity": 0.71,
      "hand": "right"
    },
    {
      "midi": 63,
      "time": 28.021,
      "duration": 0.104,
      "velocity": 0.71,
      "hand": "right"
    },
    {
      "midi": 59,
      "time": 28.229,
      "duration": 0.104,
      "velocity": 0.71,
      "hand": "left"
    },
    {
      "midi": 57,
      "time": 28.333,
      "duration": 0.104,
      "velocity": 0.71,
      "hand": "left"
    },
    {
      "midi": 78,
      "time": 28.333,
      "duration": 0.833,
      "velocity": 0.71,
      "hand": "right"
    },
    {
      "midi": 61,
      "time": 28.438,
      "duration": 0.104,
      "velocity": 0.71,
      "hand": "right"
    },
    {
      "midi": 66,
      "time": 28.646,
      "duration": 0.104,
      "velocity": 0.71,
      "hand": "right"
    },
    {
      "midi": 69,
      "time": 28.75,
      "duration": 0.104,
      "velocity": 0.71,
      "hand": "right"
    },
    {
      "midi": 73,
      "time": 28.854,
      "duration": 0.104,
      "velocity": 0.71,
      "hand": "right"
    },
    {
      "midi": 75,
      "time": 29.063,
      "duration": 0.104,
      "velocity": 0.71,
      "hand": "right"
    },
    {
      "midi": 76,
      "time": 29.167,
      "duration": 0.833,
      "velocity": 0.71,
      "hand": "right"
    },
    {
      "midi": 71,
      "time": 29.271,
      "duration": 0.104,
      "velocity": 0.71,
      "hand": "right"
    },
    {
      "midi": 68,
      "time": 29.479,
      "duration": 0.104,
      "velocity": 0.71,
      "hand": "right"
    },
    {
      "midi": 64,
      "time": 29.583,
      "duration": 0.104,
      "velocity": 0.71,
      "hand": "right"
    },
    {
      "midi": 59,
      "time": 29.688,
      "duration": 0.104,
      "velocity": 0.71,
      "hand": "left"
    },
    {
      "midi": 56,
      "time": 29.896,
      "duration": 0.104,
      "velocity": 0.71,
      "hand": "left"
    },
    {
      "midi": 55,
      "time": 30,
      "duration": 0.104,
      "velocity": 0.71,
      "hand": "left"
    },
    {
      "midi": 75,
      "time": 30,
      "duration": 0.833,
      "velocity": 0.71,
      "hand": "right"
    },
    {
      "midi": 61,
      "time": 30.104,
      "duration": 0.104,
      "velocity": 0.71,
      "hand": "right"
    },
    {
      "midi": 63,
      "time": 30.313,
      "duration": 0.104,
      "velocity": 0.71,
      "hand": "right"
    },
    {
      "midi": 70,
      "time": 30.417,
      "duration": 0.104,
      "velocity": 0.71,
      "hand": "right"
    },
    {
      "midi": 63,
      "time": 30.521,
      "duration": 0.104,
      "velocity": 0.71,
      "hand": "right"
    },
    {
      "midi": 61,
      "time": 30.729,
      "duration": 0.104,
      "velocity": 0.71,
      "hand": "right"
    },
    {
      "midi": 56,
      "time": 30.833,
      "duration": 0.104,
      "velocity": 0.71,
      "hand": "left"
    },
    {
      "midi": 76,
      "time": 30.833,
      "duration": 0.417,
      "velocity": 0.71,
      "hand": "right"
    },
    {
      "midi": 61,
      "time": 30.938,
      "duration": 0.104,
      "velocity": 0.71,
      "hand": "right"
    },
    {
      "midi": 64,
      "time": 31.146,
      "duration": 0.104,
      "velocity": 0.71,
      "hand": "right"
    },
    {
      "midi": 71,
      "time": 31.25,
      "duration": 0.104,
      "velocity": 0.71,
      "hand": "right"
    },
    {
      "midi": 80,
      "time": 31.25,
      "duration": 0.208,
      "velocity": 0.71,
      "hand": "right"
    },
    {
      "midi": 64,
      "time": 31.354,
      "duration": 0.104,
      "velocity": 0.71,
      "hand": "right"
    },
    {
      "midi": 83,
      "time": 31.458,
      "duration": 0.208,
      "velocity": 0.71,
      "hand": "right"
    },
    {
      "midi": 61,
      "time": 31.563,
      "duration": 0.104,
      "velocity": 0.71,
      "hand": "right"
    },
    {
      "midi": 55,
      "time": 31.667,
      "duration": 0.104,
      "velocity": 0.71,
      "hand": "left"
    },
    {
      "midi": 75,
      "time": 31.667,
      "duration": 1.042,
      "velocity": 0.71,
      "hand": "right"
    },
    {
      "midi": 61,
      "time": 31.771,
      "duration": 0.104,
      "velocity": 0.71,
      "hand": "right"
    },
    {
      "midi": 63,
      "time": 31.979,
      "duration": 0.104,
      "velocity": 0.71,
      "hand": "right"
    },
    {
      "midi": 70,
      "time": 32.083,
      "duration": 0.104,
      "velocity": 0.71,
      "hand": "right"
    },
    {
      "midi": 63,
      "time": 32.188,
      "duration": 0.104,
      "velocity": 0.71,
      "hand": "right"
    },
    {
      "midi": 61,
      "time": 32.396,
      "duration": 0.104,
      "velocity": 0.71,
      "hand": "right"
    },
    {
      "midi": 52,
      "time": 32.5,
      "duration": 0.104,
      "velocity": 0.71,
      "hand": "left"
    },
    {
      "midi": 57,
      "time": 32.604,
      "duration": 0.104,
      "velocity": 0.71,
      "hand": "left"
    },
    {
      "midi": 73,
      "time": 32.708,
      "duration": 0.208,
      "velocity": 0.71,
      "hand": "right"
    },
    {
      "midi": 61,
      "time": 32.813,
      "duration": 0.104,
      "velocity": 0.71,
      "hand": "right"
    },
    {
      "midi": 68,
      "time": 32.917,
      "duration": 0.104,
      "velocity": 0.71,
      "hand": "right"
    },
    {
      "midi": 76,
      "time": 32.917,
      "duration": 0.208,
      "velocity": 0.71,
      "hand": "right"
    },
    {
      "midi": 61,
      "time": 33.021,
      "duration": 0.104,
      "velocity": 0.71,
      "hand": "right"
    },
    {
      "midi": 80,
      "time": 33.125,
      "duration": 0.208,
      "velocity": 0.71,
      "hand": "right"
    },
    {
      "midi": 57,
      "time": 33.229,
      "duration": 0.104,
      "velocity": 0.71,
      "hand": "left"
    },
    {
      "midi": 51,
      "time": 33.333,
      "duration": 0.104,
      "velocity": 0.71,
      "hand": "left"
    },
    {
      "midi": 71,
      "time": 33.333,
      "duration": 1.042,
      "velocity": 0.71,
      "hand": "right"
    },
    {
      "midi": 57,
      "time": 33.438,
      "duration": 0.104,
      "velocity": 0.71,
      "hand": "left"
    },
    {
      "midi": 59,
      "time": 33.646,
      "duration": 0.104,
      "velocity": 0.71,
      "hand": "left"
    },
    {
      "midi": 66,
      "time": 33.75,
      "duration": 0.104,
      "velocity": 0.71,
      "hand": "right"
    },
    {
      "midi": 59,
      "time": 33.854,
      "duration": 0.104,
      "velocity": 0.71,
      "hand": "left"
    },
    {
      "midi": 57,
      "time": 34.063,
      "duration": 0.104,
      "velocity": 0.71,
      "hand": "left"
    },
    {
      "midi": 49,
      "time": 34.167,
      "duration": 0.104,
      "velocity": 0.71,
      "hand": "left"
    },
    {
      "midi": 54,
      "time": 34.271,
      "duration": 0.104,
      "velocity": 0.71,
      "hand": "left"
    },
    {
      "midi": 69,
      "time": 34.375,
      "duration": 0.208,
      "velocity": 0.71,
      "hand": "right"
    },
    {
      "midi": 57,
      "time": 34.479,
      "duration": 0.104,
      "velocity": 0.71,
      "hand": "left"
    },
    {
      "midi": 64,
      "time": 34.583,
      "duration": 0.104,
      "velocity": 0.71,
      "hand": "right"
    },
    {
      "midi": 73,
      "time": 34.583,
      "duration": 0.208,
      "velocity": 0.71,
      "hand": "right"
    },
    {
      "midi": 57,
      "time": 34.688,
      "duration": 0.104,
      "velocity": 0.71,
      "hand": "left"
    },
    {
      "midi": 76,
      "time": 34.792,
      "duration": 0.208,
      "velocity": 0.71,
      "hand": "right"
    },
    {
      "midi": 54,
      "time": 34.896,
      "duration": 0.104,
      "velocity": 0.71,
      "hand": "left"
    },
    {
      "midi": 48,
      "time": 35,
      "duration": 0.104,
      "velocity": 0.71,
      "hand": "left"
    },
    {
      "midi": 68,
      "time": 35,
      "duration": 0.833,
      "velocity": 0.71,
      "hand": "right"
    },
    {
      "midi": 54,
      "time": 35.104,
      "duration": 0.104,
      "velocity": 0.71,
      "hand": "left"
    },
    {
      "midi": 56,
      "time": 35.313,
      "duration": 0.104,
      "velocity": 0.71,
      "hand": "left"
    },
    {
      "midi": 63,
      "time": 35.417,
      "duration": 0.104,
      "velocity": 0.71,
      "hand": "right"
    },
    {
      "midi": 56,
      "time": 35.521,
      "duration": 0.104,
      "velocity": 0.71,
      "hand": "left"
    },
    {
      "midi": 54,
      "time": 35.729,
      "duration": 0.104,
      "velocity": 0.71,
      "hand": "left"
    },
    {
      "midi": 49,
      "time": 35.833,
      "duration": 0.104,
      "velocity": 0.71,
      "hand": "left"
    },
    {
      "midi": 54,
      "time": 35.938,
      "duration": 0.104,
      "velocity": 0.71,
      "hand": "left"
    },
    {
      "midi": 69,
      "time": 35.938,
      "duration": 0.104,
      "velocity": 0.71,
      "hand": "right"
    },
    {
      "midi": 57,
      "time": 36.146,
      "duration": 0.104,
      "velocity": 0.71,
      "hand": "left"
    },
    {
      "midi": 73,
      "time": 36.146,
      "duration": 0.104,
      "velocity": 0.71,
      "hand": "right"
    },
    {
      "midi": 64,
      "time": 36.25,
      "duration": 0.104,
      "velocity": 0.71,
      "hand": "right"
    },
    {
      "midi": 76,
      "time": 36.25,
      "duration": 0.104,
      "velocity": 0.71,
      "hand": "right"
    },
    {
      "midi": 57,
      "time": 36.354,
      "duration": 0.104,
      "velocity": 0.71,
      "hand": "left"
    },
    {
      "midi": 80,
      "time": 36.354,
      "duration": 0.104,
      "velocity": 0.71,
      "hand": "right"
    },
    {
      "midi": 54,
      "time": 36.563,
      "duration": 0.104,
      "velocity": 0.71,
      "hand": "left"
    },
    {
      "midi": 78,
      "time": 36.563,
      "duration": 0.104,
      "velocity": 0.71,
      "hand": "right"
    },
    {
      "midi": 48,
      "time": 36.667,
      "duration": 0.104,
      "velocity": 0.71,
      "hand": "left"
    },
    {
      "midi": 75,
      "time": 36.667,
      "duration": 0.417,
      "velocity": 0.71,
      "hand": "right"
    },
    {
      "midi": 54,
      "time": 36.771,
      "duration": 0.104,
      "velocity": 0.71,
      "hand": "left"
    },
    {
      "midi": 56,
      "time": 36.979,
      "duration": 0.104,
      "velocity": 0.71,
      "hand": "left"
    },
    {
      "midi": 63,
      "time": 37.083,
      "duration": 0.104,
      "velocity": 0.71,
      "hand": "right"
    },
    {
      "midi": 68,
      "time": 37.083,
      "duration": 0.417,
      "velocity": 0.71,
      "hand": "right"
    },
    {
      "midi": 56,
      "time": 37.188,
      "duration": 0.104,
      "velocity": 0.71,
      "hand": "left"
    },
    {
      "midi": 54,
      "time": 37.396,
      "duration": 0.104,
      "velocity": 0.71,
      "hand": "left"
    },
    {
      "midi": 47,
      "time": 37.5,
      "duration": 0.104,
      "velocity": 0.71,
      "hand": "left"
    },
    {
      "midi": 54,
      "time": 37.604,
      "duration": 0.104,
      "velocity": 0.71,
      "hand": "left"
    },
    {
      "midi": 66,
      "time": 37.708,
      "duration": 0.208,
      "velocity": 0.71,
      "hand": "right"
    },
    {
      "midi": 57,
      "time": 37.813,
      "duration": 0.104,
      "velocity": 0.71,
      "hand": "left"
    },
    {
      "midi": 62,
      "time": 37.917,
      "duration": 0.104,
      "velocity": 0.71,
      "hand": "right"
    },
    {
      "midi": 69,
      "time": 37.917,
      "duration": 0.208,
      "velocity": 0.71,
      "hand": "right"
    },
    {
      "midi": 57,
      "time": 38.021,
      "duration": 0.104,
      "velocity": 0.71,
      "hand": "left"
    },
    {
      "midi": 73,
      "time": 38.125,
      "duration": 0.208,
      "velocity": 0.71,
      "hand": "right"
    },
    {
      "midi": 54,
      "time": 38.229,
      "duration": 0.104,
      "velocity": 0.71,
      "hand": "left"
    },
    {
      "midi": 47,
      "time": 38.333,
      "duration": 0.104,
      "velocity": 0.71,
      "hand": "left"
    },
    {
      "midi": 64,
      "time": 38.333,
      "duration": 0.833,
      "velocity": 0.71,
      "hand": "right"
    },
    {
      "midi": 52,
      "time": 38.438,
      "duration": 0.104,
      "velocity": 0.71,
      "hand": "left"
    },
    {
      "midi": 56,
      "time": 38.646,
      "duration": 0.104,
      "velocity": 0.71,
      "hand": "left"
    },
    {
      "midi": 62,
      "time": 38.75,
      "duration": 0.104,
      "velocity": 0.71,
      "hand": "right"
    },
    {
      "midi": 56,
      "time": 38.854,
      "duration": 0.104,
      "velocity": 0.71,
      "hand": "left"
    },
    {
      "midi": 52,
      "time": 39.063,
      "duration": 0.104,
      "velocity": 0.71,
      "hand": "left"
    },
    {
      "midi": 47,
      "time": 39.167,
      "duration": 0.104,
      "velocity": 0.71,
      "hand": "left"
    },
    {
      "midi": 54,
      "time": 39.271,
      "duration": 0.104,
      "velocity": 0.71,
      "hand": "left"
    },
    {
      "midi": 66,
      "time": 39.271,
      "duration": 0.104,
      "velocity": 0.71,
      "hand": "right"
    },
    {
      "midi": 57,
      "time": 39.479,
      "duration": 0.104,
      "velocity": 0.71,
      "hand": "left"
    },
    {
      "midi": 69,
      "time": 39.479,
      "duration": 0.104,
      "velocity": 0.71,
      "hand": "right"
    },
    {
      "midi": 62,
      "time": 39.583,
      "duration": 0.104,
      "velocity": 0.71,
      "hand": "right"
    },
    {
      "midi": 73,
      "time": 39.583,
      "duration": 0.104,
      "velocity": 0.71,
      "hand": "right"
    },
    {
      "midi": 57,
      "time": 39.688,
      "duration": 0.104,
      "velocity": 0.71,
      "hand": "left"
    },
    {
      "midi": 76,
      "time": 39.688,
      "duration": 0.104,
      "velocity": 0.71,
      "hand": "right"
    },
    {
      "midi": 54,
      "time": 39.896,
      "duration": 0.104,
      "velocity": 0.71,
      "hand": "left"
    },
    {
      "midi": 74,
      "time": 39.896,
      "duration": 0.104,
      "velocity": 0.71,
      "hand": "right"
    },
    {
      "midi": 47,
      "time": 40,
      "duration": 0.104,
      "velocity": 0.71,
      "hand": "left"
    },
    {
      "midi": 68,
      "time": 40,
      "duration": 0.417,
      "velocity": 0.71,
      "hand": "right"
    },
    {
      "midi": 52,
      "time": 40.104,
      "duration": 0.104,
      "velocity": 0.71,
      "hand": "left"
    },
    {
      "midi": 56,
      "time": 40.313,
      "duration": 0.104,
      "velocity": 0.71,
      "hand": "left"
    },
    {
      "midi": 62,
      "time": 40.417,
      "duration": 0.104,
      "velocity": 0.71,
      "hand": "right"
    },
    {
      "midi": 66,
      "time": 40.417,
      "duration": 0.833,
      "velocity": 0.71,
      "hand": "right"
    },
    {
      "midi": 56,
      "time": 40.521,
      "duration": 0.104,
      "velocity": 0.71,
      "hand": "left"
    },
    {
      "midi": 52,
      "time": 40.729,
      "duration": 0.104,
      "velocity": 0.71,
      "hand": "left"
    },
    {
      "midi": 40,
      "time": 40.833,
      "duration": 0.104,
      "velocity": 0.71,
      "hand": "left"
    },
    {
      "midi": 47,
      "time": 40.938,
      "duration": 0.104,
      "velocity": 0.71,
      "hand": "left"
    },
    {
      "midi": 52,
      "time": 41.146,
      "duration": 0.104,
      "velocity": 0.71,
      "hand": "left"
    },
    {
      "midi": 54,
      "time": 41.25,
      "duration": 0.104,
      "velocity": 0.71,
      "hand": "left"
    },
    {
      "midi": 62,
      "time": 41.25,
      "duration": 0.417,
      "velocity": 0.71,
      "hand": "right"
    },
    {
      "midi": 56,
      "time": 41.354,
      "duration": 0.104,
      "velocity": 0.71,
      "hand": "left"
    },
    {
      "midi": 59,
      "time": 41.563,
      "duration": 0.104,
      "velocity": 0.71,
      "hand": "left"
    },
    {
      "midi": 33,
      "time": 41.667,
      "duration": 0.104,
      "velocity": 0.71,
      "hand": "left"
    },
    {
      "midi": 61,
      "time": 41.667,
      "duration": 2.083,
      "velocity": 0.71,
      "hand": "right"
    },
    {
      "midi": 45,
      "time": 41.771,
      "duration": 3.229,
      "velocity": 0.71,
      "hand": "left"
    },
    {
      "midi": 52,
      "time": 41.979,
      "duration": 0.104,
      "velocity": 0.71,
      "hand": "left"
    },
    {
      "midi": 55,
      "time": 42.083,
      "duration": 0.104,
      "velocity": 0.71,
      "hand": "left"
    },
    {
      "midi": 57,
      "time": 42.188,
      "duration": 0.104,
      "velocity": 0.71,
      "hand": "left"
    },
    {
      "midi": 59,
      "time": 42.396,
      "duration": 0.104,
      "velocity": 0.71,
      "hand": "left"
    },
    {
      "midi": 57,
      "time": 42.5,
      "duration": 0.104,
      "velocity": 0.71,
      "hand": "left"
    },
    {
      "midi": 52,
      "time": 42.604,
      "duration": 0.104,
      "velocity": 0.71,
      "hand": "left"
    },
    {
      "midi": 55,
      "time": 42.813,
      "duration": 0.104,
      "velocity": 0.71,
      "hand": "left"
    },
    {
      "midi": 57,
      "time": 42.917,
      "duration": 0.104,
      "velocity": 0.71,
      "hand": "left"
    },
    {
      "midi": 59,
      "time": 43.021,
      "duration": 0.104,
      "velocity": 0.71,
      "hand": "left"
    },
    {
      "midi": 57,
      "time": 43.229,
      "duration": 0.104,
      "velocity": 0.71,
      "hand": "left"
    },
    {
      "midi": 55,
      "time": 43.333,
      "duration": 1.667,
      "velocity": 0.71,
      "hand": "left"
    },
    {
      "midi": 61,
      "time": 43.75,
      "duration": 0.417,
      "velocity": 0.71,
      "hand": "right"
    },
    {
      "midi": 64,
      "time": 44.167,
      "duration": 0.417,
      "velocity": 0.71,
      "hand": "right"
    },
    {
      "midi": 61,
      "time": 44.583,
      "duration": 0.417,
      "velocity": 0.71,
      "hand": "right"
    },
    {
      "midi": 38,
      "time": 45,
      "duration": 0.208,
      "velocity": 0.71,
      "hand": "left"
    },
    {
      "midi": 66,
      "time": 45,
      "duration": 2.083,
      "velocity": 0.71,
      "hand": "right"
    },
    {
      "midi": 45,
      "time": 45.208,
      "duration": 0.208,
      "velocity": 0.71,
      "hand": "left"
    },
    {
      "midi": 54,
      "time": 45.417,
      "duration": 1.25,
      "velocity": 0.71,
      "hand": "left"
    },
    {
      "midi": 57,
      "time": 45.417,
      "duration": 0.104,
      "velocity": 0.71,
      "hand": "left"
    },
    {
      "midi": 59,
      "time": 45.521,
      "duration": 0.104,
      "velocity": 0.71,
      "hand": "left"
    },
    {
      "midi": 61,
      "time": 45.729,
      "duration": 0.104,
      "velocity": 0.71,
      "hand": "right"
    },
    {
      "midi": 59,
      "time": 45.833,
      "duration": 0.104,
      "velocity": 0.71,
      "hand": "left"
    },
    {
      "midi": 57,
      "time": 45.938,
      "duration": 0.104,
      "velocity": 0.71,
      "hand": "left"
    },
    {
      "midi": 59,
      "time": 46.146,
      "duration": 0.104,
      "velocity": 0.71,
      "hand": "left"
    },
    {
      "midi": 61,
      "time": 46.25,
      "duration": 0.104,
      "velocity": 0.71,
      "hand": "right"
    },
    {
      "midi": 59,
      "time": 46.354,
      "duration": 0.104,
      "velocity": 0.71,
      "hand": "left"
    },
    {
      "midi": 57,
      "time": 46.563,
      "duration": 0.104,
      "velocity": 0.71,
      "hand": "left"
    },
    {
      "midi": 35,
      "time": 46.667,
      "duration": 0.208,
      "velocity": 0.71,
      "hand": "left"
    },
    {
      "midi": 61,
      "time": 46.667,
      "duration": 0.833,
      "velocity": 0.71,
      "hand": "right"
    },
    {
      "midi": 47,
      "time": 46.875,
      "duration": 0.208,
      "velocity": 0.71,
      "hand": "left"
    },
    {
      "midi": 54,
      "time": 47.083,
      "duration": 0.208,
      "velocity": 0.71,
      "hand": "left"
    },
    {
      "midi": 66,
      "time": 47.083,
      "duration": 0.417,
      "velocity": 0.71,
      "hand": "right"
    },
    {
      "midi": 57,
      "time": 47.292,
      "duration": 0.208,
      "velocity": 0.71,
      "hand": "left"
    },
    {
      "midi": 59,
      "time": 47.5,
      "duration": 0.417,
      "velocity": 0.71,
      "hand": "left"
    },
    {
      "midi": 63,
      "time": 47.5,
      "duration": 1.667,
      "velocity": 0.71,
      "hand": "right"
    },
    {
      "midi": 69,
      "time": 47.5,
      "duration": 0.417,
      "velocity": 0.71,
      "hand": "right"
    },
    {
      "midi": 66,
      "time": 47.917,
      "duration": 0.417,
      "velocity": 0.71,
      "hand": "right"
    },
    {
      "midi": 32,
      "time": 48.333,
      "duration": 0.208,
      "velocity": 0.71,
      "hand": "left"
    },
    {
      "midi": 71,
      "time": 48.333,
      "duration": 0.417,
      "velocity": 0.71,
      "hand": "right"
    },
    {
      "midi": 44,
      "time": 48.542,
      "duration": 0.208,
      "velocity": 0.71,
      "hand": "left"
    },
    {
      "midi": 52,
      "time": 48.75,
      "duration": 0.208,
      "velocity": 0.71,
      "hand": "left"
    },
    {
      "midi": 68,
      "time": 48.75,
      "duration": 0.417,
      "velocity": 0.71,
      "hand": "right"
    },
    {
      "midi": 56,
      "time": 48.958,
      "duration": 0.208,
      "velocity": 0.71,
      "hand": "left"
    },
    {
      "midi": 59,
      "time": 49.167,
      "duration": 0.417,
      "velocity": 0.71,
      "hand": "left"
    },
    {
      "midi": 64,
      "time": 49.167,
      "duration": 0.833,
      "velocity": 0.71,
      "hand": "right"
    },
    {
      "midi": 71,
      "time": 49.167,
      "duration": 0.417,
      "velocity": 0.71,
      "hand": "right"
    },
    {
      "midi": 68,
      "time": 49.583,
      "duration": 0.417,
      "velocity": 0.71,
      "hand": "right"
    },
    {
      "midi": 30,
      "time": 50,
      "duration": 0.104,
      "velocity": 0.71,
      "hand": "left"
    },
    {
      "midi": 69,
      "time": 50,
      "duration": 2.083,
      "velocity": 0.71,
      "hand": "right"
    },
    {
      "midi": 73,
      "time": 50,
      "duration": 2.083,
      "velocity": 0.71,
      "hand": "right"
    },
    {
      "midi": 42,
      "time": 50.104,
      "duration": 0.104,
      "velocity": 0.71,
      "hand": "left"
    },
    {
      "midi": 49,
      "time": 50.313,
      "duration": 0.104,
      "velocity": 0.71,
      "hand": "left"
    },
    {
      "midi": 52,
      "time": 50.417,
      "duration": 0.104,
      "velocity": 0.71,
      "hand": "left"
    },
    {
      "midi": 54,
      "time": 50.521,
      "duration": 0.104,
      "velocity": 0.71,
      "hand": "left"
    },
    {
      "midi": 57,
      "time": 50.729,
      "duration": 0.104,
      "velocity": 0.71,
      "hand": "left"
    },
    {
      "midi": 61,
      "time": 50.833,
      "duration": 0.104,
      "velocity": 0.71,
      "hand": "right"
    },
    {
      "midi": 64,
      "time": 50.938,
      "duration": 0.104,
      "velocity": 0.71,
      "hand": "right"
    },
    {
      "midi": 66,
      "time": 51.146,
      "duration": 0.104,
      "velocity": 0.71,
      "hand": "right"
    },
    {
      "midi": 68,
      "time": 51.354,
      "duration": 0.104,
      "velocity": 0.71,
      "hand": "right"
    },
    {
      "midi": 66,
      "time": 51.563,
      "duration": 0.104,
      "velocity": 0.71,
      "hand": "right"
    },
    {
      "midi": 64,
      "time": 51.667,
      "duration": 0.833,
      "velocity": 0.71,
      "hand": "right"
    },
    {
      "midi": 66,
      "time": 52.083,
      "duration": 0.417,
      "velocity": 0.71,
      "hand": "right"
    },
    {
      "midi": 69,
      "time": 52.083,
      "duration": 0.417,
      "velocity": 0.71,
      "hand": "right"
    },
    {
      "midi": 63,
      "time": 52.5,
      "duration": 0.417,
      "velocity": 0.71,
      "hand": "right"
    },
    {
      "midi": 68,
      "time": 52.5,
      "duration": 0.417,
      "velocity": 0.71,
      "hand": "right"
    },
    {
      "midi": 71,
      "time": 52.5,
      "duration": 0.417,
      "velocity": 0.71,
      "hand": "right"
    },
    {
      "midi": 61,
      "time": 52.917,
      "duration": 0.417,
      "velocity": 0.71,
      "hand": "right"
    },
    {
      "midi": 69,
      "time": 52.917,
      "duration": 0.417,
      "velocity": 0.71,
      "hand": "right"
    },
    {
      "midi": 73,
      "time": 52.917,
      "duration": 0.417,
      "velocity": 0.71,
      "hand": "right"
    },
    {
      "midi": 30,
      "time": 53.333,
      "duration": 0.104,
      "velocity": 0.71,
      "hand": "left"
    },
    {
      "midi": 69,
      "time": 53.333,
      "duration": 2.083,
      "velocity": 0.71,
      "hand": "right"
    },
    {
      "midi": 73,
      "time": 53.333,
      "duration": 2.083,
      "velocity": 0.71,
      "hand": "right"
    },
    {
      "midi": 42,
      "time": 53.438,
      "duration": 0.104,
      "velocity": 0.71,
      "hand": "left"
    },
    {
      "midi": 49,
      "time": 53.646,
      "duration": 0.104,
      "velocity": 0.71,
      "hand": "left"
    },
    {
      "midi": 52,
      "time": 53.75,
      "duration": 0.104,
      "velocity": 0.71,
      "hand": "left"
    },
    {
      "midi": 54,
      "time": 53.854,
      "duration": 0.104,
      "velocity": 0.71,
      "hand": "left"
    },
    {
      "midi": 57,
      "time": 54.063,
      "duration": 0.104,
      "velocity": 0.71,
      "hand": "left"
    },
    {
      "midi": 61,
      "time": 54.167,
      "duration": 0.104,
      "velocity": 0.71,
      "hand": "right"
    },
    {
      "midi": 64,
      "time": 54.271,
      "duration": 0.104,
      "velocity": 0.71,
      "hand": "right"
    },
    {
      "midi": 66,
      "time": 54.479,
      "duration": 0.104,
      "velocity": 0.71,
      "hand": "right"
    },
    {
      "midi": 68,
      "time": 54.688,
      "duration": 0.104,
      "velocity": 0.71,
      "hand": "right"
    },
    {
      "midi": 66,
      "time": 54.896,
      "duration": 0.104,
      "velocity": 0.71,
      "hand": "right"
    },
    {
      "midi": 64,
      "time": 55,
      "duration": 0.833,
      "velocity": 0.71,
      "hand": "right"
    },
    {
      "midi": 66,
      "time": 55.417,
      "duration": 0.104,
      "velocity": 0.71,
      "hand": "right"
    },
    {
      "midi": 69,
      "time": 55.417,
      "duration": 0.417,
      "velocity": 0.71,
      "hand": "right"
    },
    {
      "midi": 61,
      "time": 55.521,
      "duration": 0.104,
      "velocity": 0.71,
      "hand": "right"
    },
    {
      "midi": 54,
      "time": 55.833,
      "duration": 0.833,
      "velocity": 0.71,
      "hand": "left"
    },
    {
      "midi": 68,
      "time": 55.833,
      "duration": 0.104,
      "velocity": 0.71,
      "hand": "right"
    },
    {
      "midi": 71,
      "time": 55.833,
      "duration": 0.417,
      "velocity": 0.71,
      "hand": "right"
    },
    {
      "midi": 63,
      "time": 55.938,
      "duration": 0.104,
      "velocity": 0.71,
      "hand": "right"
    },
    {
      "midi": 66,
      "time": 56.146,
      "duration": 0.104,
      "velocity": 0.71,
      "hand": "right"
    },
    {
      "midi": 69,
      "time": 56.25,
      "duration": 0.104,
      "velocity": 0.71,
      "hand": "right"
    },
    {
      "midi": 73,
      "time": 56.25,
      "duration": 0.417,
      "velocity": 0.71,
      "hand": "right"
    },
    {
      "midi": 64,
      "time": 56.354,
      "duration": 0.104,
      "velocity": 0.71,
      "hand": "right"
    },
    {
      "midi": 68,
      "time": 56.563,
      "duration": 0.104,
      "velocity": 0.71,
      "hand": "right"
    },
    {
      "midi": 47,
      "time": 56.667,
      "duration": 0.417,
      "velocity": 0.71,
      "hand": "left"
    },
    {
      "midi": 71,
      "time": 56.667,
      "duration": 0.104,
      "velocity": 0.71,
      "hand": "right"
    },
    {
      "midi": 75,
      "time": 56.667,
      "duration": 0.417,
      "velocity": 0.71,
      "hand": "right"
    },
    {
      "midi": 66,
      "time": 56.771,
      "duration": 0.104,
      "velocity": 0.71,
      "hand": "right"
    },
    {
      "midi": 69,
      "time": 56.979,
      "duration": 0.104,
      "velocity": 0.71,
      "hand": "right"
    },
    {
      "midi": 54,
      "time": 57.083,
      "duration": 0.417,
      "velocity": 0.71,
      "hand": "left"
    },
    {
      "midi": 73,
      "time": 57.083,
      "duration": 0.104,
      "velocity": 0.71,
      "hand": "right"
    },
    {
      "midi": 76,
      "time": 57.083,
      "duration": 0.417,
      "velocity": 0.71,
      "hand": "right"
    },
    {
      "midi": 68,
      "time": 57.188,
      "duration": 0.104,
      "velocity": 0.71,
      "hand": "right"
    },
    {
      "midi": 71,
      "time": 57.396,
      "duration": 0.104,
      "velocity": 0.71,
      "hand": "right"
    },
    {
      "midi": 57,
      "time": 57.5,
      "duration": 0.417,
      "velocity": 0.71,
      "hand": "left"
    },
    {
      "midi": 75,
      "time": 57.5,
      "duration": 0.104,
      "velocity": 0.71,
      "hand": "right"
    },
    {
      "midi": 78,
      "time": 57.5,
      "duration": 0.417,
      "velocity": 0.71,
      "hand": "right"
    },
    {
      "midi": 69,
      "time": 57.604,
      "duration": 0.104,
      "velocity": 0.71,
      "hand": "right"
    },
    {
      "midi": 73,
      "time": 57.813,
      "duration": 0.104,
      "velocity": 0.71,
      "hand": "right"
    },
    {
      "midi": 59,
      "time": 57.917,
      "duration": 0.417,
      "velocity": 0.71,
      "hand": "left"
    },
    {
      "midi": 76,
      "time": 57.917,
      "duration": 0.104,
      "velocity": 0.71,
      "hand": "right"
    },
    {
      "midi": 80,
      "time": 57.917,
      "duration": 0.417,
      "velocity": 0.71,
      "hand": "right"
    },
    {
      "midi": 71,
      "time": 58.021,
      "duration": 0.104,
      "velocity": 0.71,
      "hand": "right"
    },
    {
      "midi": 75,
      "time": 58.229,
      "duration": 0.104,
      "velocity": 0.71,
      "hand": "right"
    },
    {
      "midi": 63,
      "time": 58.333,
      "duration": 0.417,
      "velocity": 0.71,
      "hand": "right"
    },
    {
      "midi": 78,
      "time": 58.333,
      "duration": 0.104,
      "velocity": 0.71,
      "hand": "right"
    },
    {
      "midi": 81,
      "time": 58.333,
      "duration": 0.417,
      "velocity": 0.71,
      "hand": "right"
    },
    {
      "midi": 73,
      "time": 58.438,
      "duration": 0.104,
      "velocity": 0.71,
      "hand": "right"
    },
    {
      "midi": 76,
      "time": 58.646,
      "duration": 0.104,
      "velocity": 0.71,
      "hand": "right"
    },
    {
      "midi": 66,
      "time": 58.75,
      "duration": 0.417,
      "velocity": 0.71,
      "hand": "right"
    },
    {
      "midi": 80,
      "time": 58.75,
      "duration": 0.104,
      "velocity": 0.71,
      "hand": "right"
    },
    {
      "midi": 83,
      "time": 58.75,
      "duration": 0.417,
      "velocity": 0.71,
      "hand": "right"
    },
    {
      "midi": 75,
      "time": 58.854,
      "duration": 0.104,
      "velocity": 0.71,
      "hand": "right"
    },
    {
      "midi": 78,
      "time": 59.063,
      "duration": 0.104,
      "velocity": 0.71,
      "hand": "right"
    },
    {
      "midi": 69,
      "time": 59.167,
      "duration": 0.417,
      "velocity": 0.71,
      "hand": "right"
    },
    {
      "midi": 81,
      "time": 59.167,
      "duration": 0.104,
      "velocity": 0.71,
      "hand": "right"
    },
    {
      "midi": 85,
      "time": 59.167,
      "duration": 0.417,
      "velocity": 0.71,
      "hand": "right"
    },
    {
      "midi": 76,
      "time": 59.271,
      "duration": 0.104,
      "velocity": 0.71,
      "hand": "right"
    },
    {
      "midi": 80,
      "time": 59.479,
      "duration": 0.104,
      "velocity": 0.71,
      "hand": "right"
    },
    {
      "midi": 71,
      "time": 59.583,
      "duration": 0.417,
      "velocity": 0.71,
      "hand": "right"
    },
    {
      "midi": 83,
      "time": 59.583,
      "duration": 0.104,
      "velocity": 0.71,
      "hand": "right"
    },
    {
      "midi": 87,
      "time": 59.583,
      "duration": 0.417,
      "velocity": 0.71,
      "hand": "right"
    },
    {
      "midi": 78,
      "time": 59.688,
      "duration": 0.104,
      "velocity": 0.71,
      "hand": "right"
    },
    {
      "midi": 81,
      "time": 59.896,
      "duration": 0.104,
      "velocity": 0.71,
      "hand": "right"
    },
    {
      "midi": 28,
      "time": 60,
      "duration": 0.208,
      "velocity": 0.71,
      "hand": "left"
    },
    {
      "midi": 80,
      "time": 60,
      "duration": 1.667,
      "velocity": 0.71,
      "hand": "right"
    },
    {
      "midi": 83,
      "time": 60,
      "duration": 1.667,
      "velocity": 0.71,
      "hand": "right"
    },
    {
      "midi": 90,
      "time": 60,
      "duration": 0.833,
      "velocity": 0.71,
      "hand": "right"
    },
    {
      "midi": 40,
      "time": 60.208,
      "duration": 0.208,
      "velocity": 0.71,
      "hand": "left"
    },
    {
      "midi": 47,
      "time": 60.417,
      "duration": 0.208,
      "velocity": 0.71,
      "hand": "left"
    },
    {
      "midi": 52,
      "time": 60.625,
      "duration": 0.208,
      "velocity": 0.71,
      "hand": "left"
    },
    {
      "midi": 56,
      "time": 60.833,
      "duration": 0.208,
      "velocity": 0.71,
      "hand": "left"
    },
    {
      "midi": 88,
      "time": 60.833,
      "duration": 0.833,
      "velocity": 0.71,
      "hand": "right"
    },
    {
      "midi": 59,
      "time": 61.042,
      "duration": 0.208,
      "velocity": 0.71,
      "hand": "left"
    },
    {
      "midi": 64,
      "time": 61.25,
      "duration": 0.208,
      "velocity": 0.71,
      "hand": "right"
    },
    {
      "midi": 68,
      "time": 61.458,
      "duration": 0.208,
      "velocity": 0.71,
      "hand": "right"
    },
    {
      "midi": 76,
      "time": 61.667,
      "duration": 1.771,
      "velocity": 0.71,
      "hand": "right"
    },
    {
      "midi": 64,
      "time": 62.5,
      "duration": 0.833,
      "velocity": 0.71,
      "hand": "right"
    },
    {
      "midi": 59,
      "time": 63.333,
      "duration": 0.208,
      "velocity": 0.71,
      "hand": "left"
    },
    {
      "midi": 66,
      "time": 63.333,
      "duration": 1.25,
      "velocity": 0.71,
      "hand": "right"
    },
    {
      "midi": 69,
      "time": 63.333,
      "duration": 1.25,
      "velocity": 0.71,
      "hand": "right"
    },
    {
      "midi": 74,
      "time": 63.438,
      "duration": 0.104,
      "velocity": 0.71,
      "hand": "right"
    },
    {
      "midi": 61,
      "time": 63.542,
      "duration": 0.208,
      "velocity": 0.71,
      "hand": "right"
    },
    {
      "midi": 76,
      "time": 63.646,
      "duration": 0.104,
      "velocity": 0.71,
      "hand": "right"
    },
    {
      "midi": 62,
      "time": 63.75,
      "duration": 0.833,
      "velocity": 0.71,
      "hand": "right"
    },
    {
      "midi": 73,
      "time": 63.75,
      "duration": 0.625,
      "velocity": 0.71,
      "hand": "right"
    },
    {
      "midi": 71,
      "time": 64.375,
      "duration": 0.208,
      "velocity": 0.71,
      "hand": "right"
    },
    {
      "midi": 52,
      "time": 64.583,
      "duration": 0.417,
      "velocity": 0.71,
      "hand": "left"
    },
    {
      "midi": 62,
      "time": 64.583,
      "duration": 0.417,
      "velocity": 0.71,
      "hand": "right"
    },
    {
      "midi": 68,
      "time": 64.583,
      "duration": 0.417,
      "velocity": 0.71,
      "hand": "right"
    },
    {
      "midi": 71,
      "time": 64.583,
      "duration": 0.208,
      "velocity": 0.71,
      "hand": "right"
    },
    {
      "midi": 73,
      "time": 64.792,
      "duration": 0.208,
      "velocity": 0.71,
      "hand": "right"
    },
    {
      "midi": 54,
      "time": 65,
      "duration": 0.417,
      "velocity": 0.71,
      "hand": "left"
    },
    {
      "midi": 61,
      "time": 65,
      "duration": 0.417,
      "velocity": 0.71,
      "hand": "right"
    },
    {
      "midi": 66,
      "time": 65,
      "duration": 0.417,
      "velocity": 0.71,
      "hand": "right"
    },
    {
      "midi": 69,
      "time": 65,
      "duration": 0.417,
      "velocity": 0.71,
      "hand": "right"
    },
    {
      "midi": 47,
      "time": 65.417,
      "duration": 1.25,
      "velocity": 0.71,
      "hand": "left"
    },
    {
      "midi": 57,
      "time": 65.417,
      "duration": 1.25,
      "velocity": 0.71,
      "hand": "left"
    },
    {
      "midi": 63,
      "time": 65.417,
      "duration": 1.25,
      "velocity": 0.71,
      "hand": "right"
    },
    {
      "midi": 66,
      "time": 65.417,
      "duration": 0.833,
      "velocity": 0.71,
      "hand": "right"
    },
    {
      "midi": 68,
      "time": 66.25,
      "duration": 0.417,
      "velocity": 0.71,
      "hand": "right"
    },
    {
      "midi": 40,
      "time": 66.667,
      "duration": 0.417,
      "velocity": 0.71,
      "hand": "left"
    },
    {
      "midi": 47,
      "time": 66.667,
      "duration": 0.417,
      "velocity": 0.71,
      "hand": "left"
    },
    {
      "midi": 56,
      "time": 66.667,
      "duration": 0.417,
      "velocity": 0.71,
      "hand": "left"
    },
    {
      "midi": 62,
      "time": 66.667,
      "duration": 0.417,
      "velocity": 0.71,
      "hand": "right"
    },
    {
      "midi": 66,
      "time": 66.667,
      "duration": 0.208,
      "velocity": 0.71,
      "hand": "right"
    },
    {
      "midi": 64,
      "time": 66.875,
      "duration": 0.208,
      "velocity": 0.71,
      "hand": "right"
    },
    {
      "midi": 56,
      "time": 67.083,
      "duration": 1.25,
      "velocity": 0.71,
      "hand": "left"
    },
    {
      "midi": 62,
      "time": 67.083,
      "duration": 1.25,
      "velocity": 0.71,
      "hand": "right"
    },
    {
      "midi": 66,
      "time": 67.083,
      "duration": 0.833,
      "velocity": 0.71,
      "hand": "right"
    },
    {
      "midi": 71,
      "time": 67.083,
      "duration": 1.25,
      "velocity": 0.71,
      "hand": "right"
    },
    {
      "midi": 74,
      "time": 67.083,
      "duration": 1.25,
      "velocity": 0.71,
      "hand": "right"
    },
    {
      "midi": 78,
      "time": 67.083,
      "duration": 0.833,
      "velocity": 0.71,
      "hand": "right"
    },
    {
      "midi": 64,
      "time": 67.917,
      "duration": 0.417,
      "velocity": 0.71,
      "hand": "right"
    },
    {
      "midi": 76,
      "time": 67.917,
      "duration": 0.417,
      "velocity": 0.71,
      "hand": "right"
    },
    {
      "midi": 45,
      "time": 68.333,
      "duration": 0.417,
      "velocity": 0.71,
      "hand": "left"
    },
    {
      "midi": 52,
      "time": 68.333,
      "duration": 0.417,
      "velocity": 0.71,
      "hand": "left"
    },
    {
      "midi": 57,
      "time": 68.333,
      "duration": 0.417,
      "velocity": 0.71,
      "hand": "left"
    },
    {
      "midi": 61,
      "time": 68.333,
      "duration": 0.417,
      "velocity": 0.71,
      "hand": "right"
    },
    {
      "midi": 66,
      "time": 68.333,
      "duration": 0.208,
      "velocity": 0.71,
      "hand": "right"
    },
    {
      "midi": 64,
      "time": 68.542,
      "duration": 0.208,
      "velocity": 0.71,
      "hand": "right"
    },
    {
      "midi": 52,
      "time": 68.75,
      "duration": 1.25,
      "velocity": 0.71,
      "hand": "left"
    },
    {
      "midi": 57,
      "time": 68.75,
      "duration": 1.25,
      "velocity": 0.71,
      "hand": "left"
    },
    {
      "midi": 61,
      "time": 68.75,
      "duration": 1.25,
      "velocity": 0.71,
      "hand": "right"
    },
    {
      "midi": 64,
      "time": 68.75,
      "duration": 1.25,
      "velocity": 0.71,
      "hand": "right"
    },
    {
      "midi": 69,
      "time": 68.75,
      "duration": 1.25,
      "velocity": 0.71,
      "hand": "right"
    },
    {
      "midi": 73,
      "time": 68.75,
      "duration": 1.25,
      "velocity": 0.71,
      "hand": "right"
    },
    {
      "midi": 80,
      "time": 68.75,
      "duration": 0.625,
      "velocity": 0.71,
      "hand": "right"
    },
    {
      "midi": 83,
      "time": 69.375,
      "duration": 0.208,
      "velocity": 0.71,
      "hand": "right"
    },
    {
      "midi": 81,
      "time": 69.583,
      "duration": 0.208,
      "velocity": 0.71,
      "hand": "right"
    },
    {
      "midi": 78,
      "time": 69.792,
      "duration": 0.208,
      "velocity": 0.71,
      "hand": "right"
    },
    {
      "midi": 59,
      "time": 70,
      "duration": 0.208,
      "velocity": 0.71,
      "hand": "left"
    },
    {
      "midi": 66,
      "time": 70,
      "duration": 1.25,
      "velocity": 0.71,
      "hand": "right"
    },
    {
      "midi": 69,
      "time": 70,
      "duration": 1.25,
      "velocity": 0.71,
      "hand": "right"
    },
    {
      "midi": 76,
      "time": 70,
      "duration": 0.104,
      "velocity": 0.71,
      "hand": "right"
    },
    {
      "midi": 74,
      "time": 70.104,
      "duration": 0.104,
      "velocity": 0.71,
      "hand": "right"
    },
    {
      "midi": 61,
      "time": 70.208,
      "duration": 0.208,
      "velocity": 0.71,
      "hand": "right"
    },
    {
      "midi": 76,
      "time": 70.313,
      "duration": 0.104,
      "velocity": 0.71,
      "hand": "right"
    },
    {
      "midi": 62,
      "time": 70.417,
      "duration": 1.25,
      "velocity": 0.71,
      "hand": "right"
    },
    {
      "midi": 73,
      "time": 70.417,
      "duration": 0.625,
      "velocity": 0.71,
      "hand": "right"
    },
    {
      "midi": 71,
      "time": 71.042,
      "duration": 0.208,
      "velocity": 0.71,
      "hand": "right"
    },
    {
      "midi": 65,
      "time": 71.25,
      "duration": 0.417,
      "velocity": 0.71,
      "hand": "right"
    },
    {
      "midi": 68,
      "time": 71.25,
      "duration": 0.417,
      "velocity": 0.71,
      "hand": "right"
    },
    {
      "midi": 71,
      "time": 71.25,
      "duration": 0.208,
      "velocity": 0.71,
      "hand": "right"
    },
    {
      "midi": 73,
      "time": 71.458,
      "duration": 0.208,
      "velocity": 0.71,
      "hand": "right"
    },
    {
      "midi": 54,
      "time": 71.667,
      "duration": 0.417,
      "velocity": 0.71,
      "hand": "left"
    },
    {
      "midi": 61,
      "time": 71.667,
      "duration": 0.417,
      "velocity": 0.71,
      "hand": "right"
    },
    {
      "midi": 64,
      "time": 71.667,
      "duration": 0.833,
      "velocity": 0.71,
      "hand": "right"
    },
    {
      "midi": 69,
      "time": 71.667,
      "duration": 0.417,
      "velocity": 0.71,
      "hand": "right"
    },
    {
      "midi": 47,
      "time": 72.083,
      "duration": 0.833,
      "velocity": 0.71,
      "hand": "left"
    },
    {
      "midi": 57,
      "time": 72.083,
      "duration": 0.833,
      "velocity": 0.71,
      "hand": "left"
    },
    {
      "midi": 66,
      "time": 72.083,
      "duration": 0.625,
      "velocity": 0.71,
      "hand": "right"
    },
    {
      "midi": 63,
      "time": 72.5,
      "duration": 0.417,
      "velocity": 0.71,
      "hand": "right"
    },
    {
      "midi": 66,
      "time": 72.708,
      "duration": 0.208,
      "velocity": 0.71,
      "hand": "right"
    },
    {
      "midi": 45,
      "time": 72.917,
      "duration": 0.417,
      "velocity": 0.71,
      "hand": "left"
    },
    {
      "midi": 51,
      "time": 72.917,
      "duration": 0.417,
      "velocity": 0.71,
      "hand": "left"
    },
    {
      "midi": 61,
      "time": 72.917,
      "duration": 0.417,
      "velocity": 0.71,
      "hand": "right"
    },
    {
      "midi": 66,
      "time": 72.917,
      "duration": 0.208,
      "velocity": 0.71,
      "hand": "right"
    },
    {
      "midi": 68,
      "time": 73.125,
      "duration": 0.208,
      "velocity": 0.71,
      "hand": "right"
    },
    {
      "midi": 44,
      "time": 73.333,
      "duration": 0.417,
      "velocity": 0.71,
      "hand": "left"
    },
    {
      "midi": 52,
      "time": 73.333,
      "duration": 0.417,
      "velocity": 0.71,
      "hand": "left"
    },
    {
      "midi": 59,
      "time": 73.333,
      "duration": 0.417,
      "velocity": 0.71,
      "hand": "left"
    },
    {
      "midi": 66,
      "time": 73.333,
      "duration": 0.104,
      "velocity": 0.71,
      "hand": "right"
    },
    {
      "midi": 64,
      "time": 73.438,
      "duration": 0.104,
      "velocity": 0.71,
      "hand": "right"
    },
    {
      "midi": 42,
      "time": 73.75,
      "duration": 0.833,
      "velocity": 0.71,
      "hand": "left"
    },
    {
      "midi": 52,
      "time": 73.75,
      "duration": 0.833,
      "velocity": 0.71,
      "hand": "left"
    },
    {
      "midi": 57,
      "time": 73.75,
      "duration": 0.833,
      "velocity": 0.71,
      "hand": "left"
    },
    {
      "midi": 61,
      "time": 73.75,
      "duration": 0.833,
      "velocity": 0.71,
      "hand": "right"
    },
    {
      "midi": 35,
      "time": 74.583,
      "duration": 0.417,
      "velocity": 0.71,
      "hand": "left"
    },
    {
      "midi": 47,
      "time": 74.583,
      "duration": 0.417,
      "velocity": 0.71,
      "hand": "left"
    },
    {
      "midi": 57,
      "time": 74.583,
      "duration": 0.417,
      "velocity": 0.71,
      "hand": "left"
    },
    {
      "midi": 61,
      "time": 74.583,
      "duration": 0.417,
      "velocity": 0.71,
      "hand": "right"
    },
    {
      "midi": 64,
      "time": 74.583,
      "duration": 0.417,
      "velocity": 0.71,
      "hand": "right"
    },
    {
      "midi": 40,
      "time": 75,
      "duration": 0.833,
      "velocity": 0.71,
      "hand": "left"
    },
    {
      "midi": 47,
      "time": 75,
      "duration": 0.833,
      "velocity": 0.71,
      "hand": "left"
    },
    {
      "midi": 57,
      "time": 75,
      "duration": 0.417,
      "velocity": 0.71,
      "hand": "left"
    },
    {
      "midi": 59,
      "time": 75,
      "duration": 1.25,
      "velocity": 0.71,
      "hand": "left"
    },
    {
      "midi": 64,
      "time": 75,
      "duration": 1.25,
      "velocity": 0.71,
      "hand": "right"
    },
    {
      "midi": 56,
      "time": 75.417,
      "duration": 0.833,
      "velocity": 0.71,
      "hand": "left"
    },
    {
      "midi": 40,
      "time": 75.833,
      "duration": 0.417,
      "velocity": 0.71,
      "hand": "left"
    },
    {
      "midi": 52,
      "time": 76.25,
      "duration": 0.417,
      "velocity": 0.71,
      "hand": "left"
    },
    {
      "midi": 50,
      "time": 76.667,
      "duration": 0.104,
      "velocity": 0.71,
      "hand": "left"
    },
    {
      "midi": 54,
      "time": 76.771,
      "duration": 0.104,
      "velocity": 0.71,
      "hand": "left"
    },
    {
      "midi": 57,
      "time": 76.979,
      "duration": 0.104,
      "velocity": 0.71,
      "hand": "left"
    },
    {
      "midi": 42,
      "time": 77.083,
      "duration": 0.833,
      "velocity": 0.71,
      "hand": "left"
    },
    {
      "midi": 61,
      "time": 77.083,
      "duration": 0.104,
      "velocity": 0.71,
      "hand": "right"
    },
    {
      "midi": 59,
      "time": 77.188,
      "duration": 0.104,
      "velocity": 0.71,
      "hand": "left"
    },
    {
      "midi": 57,
      "time": 77.396,
      "duration": 0.104,
      "velocity": 0.71,
      "hand": "left"
    },
    {
      "midi": 56,
      "time": 77.5,
      "duration": 0.104,
      "velocity": 0.71,
      "hand": "left"
    },
    {
      "midi": 59,
      "time": 77.604,
      "duration": 0.104,
      "velocity": 0.71,
      "hand": "left"
    },
    {
      "midi": 62,
      "time": 77.813,
      "duration": 0.104,
      "velocity": 0.71,
      "hand": "right"
    },
    {
      "midi": 40,
      "time": 77.917,
      "duration": 0.417,
      "velocity": 0.71,
      "hand": "left"
    },
    {
      "midi": 66,
      "time": 77.917,
      "duration": 0.104,
      "velocity": 0.71,
      "hand": "right"
    },
    {
      "midi": 64,
      "time": 78.021,
      "duration": 0.104,
      "velocity": 0.71,
      "hand": "right"
    },
    {
      "midi": 62,
      "time": 78.229,
      "duration": 0.104,
      "velocity": 0.71,
      "hand": "right"
    },
    {
      "midi": 61,
      "time": 78.333,
      "duration": 0.104,
      "velocity": 0.71,
      "hand": "right"
    },
    {
      "midi": 64,
      "time": 78.438,
      "duration": 0.104,
      "velocity": 0.71,
      "hand": "right"
    },
    {
      "midi": 68,
      "time": 78.646,
      "duration": 0.104,
      "velocity": 0.71,
      "hand": "right"
    },
    {
      "midi": 33,
      "time": 78.75,
      "duration": 0.833,
      "velocity": 0.71,
      "hand": "left"
    },
    {
      "midi": 45,
      "time": 78.75,
      "duration": 0.833,
      "velocity": 0.71,
      "hand": "left"
    },
    {
      "midi": 71,
      "time": 78.75,
      "duration": 0.104,
      "velocity": 0.71,
      "hand": "right"
    },
    {
      "midi": 69,
      "time": 78.854,
      "duration": 0.104,
      "velocity": 0.71,
      "hand": "right"
    },
    {
      "midi": 68,
      "time": 79.063,
      "duration": 0.104,
      "velocity": 0.71,
      "hand": "right"
    },
    {
      "midi": 66,
      "time": 79.167,
      "duration": 0.104,
      "velocity": 0.71,
      "hand": "right"
    },
    {
      "midi": 69,
      "time": 79.271,
      "duration": 0.104,
      "velocity": 0.71,
      "hand": "right"
    },
    {
      "midi": 73,
      "time": 79.479,
      "duration": 0.104,
      "velocity": 0.71,
      "hand": "right"
    },
    {
      "midi": 38,
      "time": 79.583,
      "duration": 0.417,
      "velocity": 0.71,
      "hand": "left"
    },
    {
      "midi": 50,
      "time": 79.583,
      "duration": 0.417,
      "velocity": 0.71,
      "hand": "left"
    },
    {
      "midi": 76,
      "time": 79.583,
      "duration": 0.104,
      "velocity": 0.71,
      "hand": "right"
    },
    {
      "midi": 74,
      "time": 79.688,
      "duration": 0.104,
      "velocity": 0.71,
      "hand": "right"
    },
    {
      "midi": 73,
      "time": 79.896,
      "duration": 0.104,
      "velocity": 0.71,
      "hand": "right"
    },
    {
      "midi": 71,
      "time": 80,
      "duration": 0.104,
      "velocity": 0.71,
      "hand": "right"
    },
    {
      "midi": 74,
      "time": 80.104,
      "duration": 0.104,
      "velocity": 0.71,
      "hand": "right"
    },
    {
      "midi": 78,
      "time": 80.313,
      "duration": 0.104,
      "velocity": 0.71,
      "hand": "right"
    },
    {
      "midi": 35,
      "time": 80.417,
      "duration": 0.417,
      "velocity": 0.71,
      "hand": "left"
    },
    {
      "midi": 47,
      "time": 80.417,
      "duration": 0.417,
      "velocity": 0.71,
      "hand": "left"
    },
    {
      "midi": 81,
      "time": 80.417,
      "duration": 0.625,
      "velocity": 0.71,
      "hand": "right"
    },
    {
      "midi": 54,
      "time": 80.833,
      "duration": 0.417,
      "velocity": 0.71,
      "hand": "left"
    },
    {
      "midi": 59,
      "time": 80.833,
      "duration": 0.417,
      "velocity": 0.71,
      "hand": "left"
    },
    {
      "midi": 62,
      "time": 80.833,
      "duration": 0.417,
      "velocity": 0.71,
      "hand": "right"
    },
    {
      "midi": 66,
      "time": 80.833,
      "duration": 0.417,
      "velocity": 0.71,
      "hand": "right"
    },
    {
      "midi": 71,
      "time": 80.833,
      "duration": 0.417,
      "velocity": 0.71,
      "hand": "right"
    },
    {
      "midi": 74,
      "time": 80.833,
      "duration": 0.417,
      "velocity": 0.71,
      "hand": "right"
    },
    {
      "midi": 80,
      "time": 81.042,
      "duration": 0.208,
      "velocity": 0.71,
      "hand": "right"
    },
    {
      "midi": 40,
      "time": 81.25,
      "duration": 0.417,
      "velocity": 0.71,
      "hand": "left"
    },
    {
      "midi": 52,
      "time": 81.25,
      "duration": 0.417,
      "velocity": 0.71,
      "hand": "left"
    },
    {
      "midi": 68,
      "time": 81.25,
      "duration": 0.417,
      "velocity": 0.71,
      "hand": "right"
    },
    {
      "midi": 74,
      "time": 81.25,
      "duration": 0.417,
      "velocity": 0.71,
      "hand": "right"
    },
    {
      "midi": 78,
      "time": 81.25,
      "duration": 0.208,
      "velocity": 0.71,
      "hand": "right"
    },
    {
      "midi": 76,
      "time": 81.458,
      "duration": 0.208,
      "velocity": 0.71,
      "hand": "right"
    },
    {
      "midi": 33,
      "time": 81.667,
      "duration": 0.417,
      "velocity": 0.71,
      "hand": "left"
    },
    {
      "midi": 45,
      "time": 81.667,
      "duration": 0.417,
      "velocity": 0.71,
      "hand": "left"
    },
    {
      "midi": 69,
      "time": 81.667,
      "duration": 0.833,
      "velocity": 0.71,
      "hand": "right"
    },
    {
      "midi": 73,
      "time": 81.667,
      "duration": 0.833,
      "velocity": 0.71,
      "hand": "right"
    },
    {
      "midi": 78,
      "time": 81.667,
      "duration": 0.208,
      "velocity": 0.71,
      "hand": "right"
    },
    {
      "midi": 76,
      "time": 81.875,
      "duration": 0.208,
      "velocity": 0.71,
      "hand": "right"
    },
    {
      "midi": 52,
      "time": 82.083,
      "duration": 0.417,
      "velocity": 0.71,
      "hand": "left"
    },
    {
      "midi": 74,
      "time": 82.083,
      "duration": 0.208,
      "velocity": 0.71,
      "hand": "right"
    },
    {
      "midi": 66,
      "time": 82.5,
      "duration": 0.208,
      "velocity": 0.71,
      "hand": "right"
    },
    {
      "midi": 69,
      "time": 82.5,
      "duration": 0.833,
      "velocity": 0.71,
      "hand": "right"
    },
    {
      "midi": 74,
      "time": 82.5,
      "duration": 0.208,
      "velocity": 0.71,
      "hand": "right"
    },
    {
      "midi": 64,
      "time": 82.708,
      "duration": 0.208,
      "velocity": 0.71,
      "hand": "right"
    },
    {
      "midi": 73,
      "time": 82.708,
      "duration": 0.208,
      "velocity": 0.71,
      "hand": "right"
    },
    {
      "midi": 62,
      "time": 82.917,
      "duration": 0.208,
      "velocity": 0.71,
      "hand": "right"
    },
    {
      "midi": 71,
      "time": 82.917,
      "duration": 0.208,
      "velocity": 0.71,
      "hand": "right"
    },
    {
      "midi": 61,
      "time": 83.125,
      "duration": 0.208,
      "velocity": 0.71,
      "hand": "right"
    },
    {
      "midi": 50,
      "time": 83.333,
      "duration": 0.104,
      "velocity": 0.71,
      "hand": "left"
    },
    {
      "midi": 54,
      "time": 83.438,
      "duration": 0.104,
      "velocity": 0.71,
      "hand": "left"
    },
    {
      "midi": 57,
      "time": 83.646,
      "duration": 0.104,
      "velocity": 0.71,
      "hand": "left"
    },
    {
      "midi": 42,
      "time": 83.75,
      "duration": 0.833,
      "velocity": 0.71,
      "hand": "left"
    },
    {
      "midi": 61,
      "time": 83.75,
      "duration": 0.104,
      "velocity": 0.71,
      "hand": "right"
    },
    {
      "midi": 59,
      "time": 83.854,
      "duration": 0.104,
      "velocity": 0.71,
      "hand": "left"
    },
    {
      "midi": 57,
      "time": 84.063,
      "duration": 0.104,
      "velocity": 0.71,
      "hand": "left"
    },
    {
      "midi": 56,
      "time": 84.167,
      "duration": 0.104,
      "velocity": 0.71,
      "hand": "left"
    },
    {
      "midi": 59,
      "time": 84.271,
      "duration": 0.104,
      "velocity": 0.71,
      "hand": "left"
    },
    {
      "midi": 62,
      "time": 84.479,
      "duration": 0.104,
      "velocity": 0.71,
      "hand": "right"
    },
    {
      "midi": 40,
      "time": 84.583,
      "duration": 0.417,
      "velocity": 0.71,
      "hand": "left"
    },
    {
      "midi": 66,
      "time": 84.583,
      "duration": 0.104,
      "velocity": 0.71,
      "hand": "right"
    },
    {
      "midi": 64,
      "time": 84.688,
      "duration": 0.104,
      "velocity": 0.71,
      "hand": "right"
    },
    {
      "midi": 62,
      "time": 84.896,
      "duration": 0.104,
      "velocity": 0.71,
      "hand": "right"
    },
    {
      "midi": 61,
      "time": 85,
      "duration": 0.104,
      "velocity": 0.71,
      "hand": "right"
    },
    {
      "midi": 64,
      "time": 85.104,
      "duration": 0.104,
      "velocity": 0.71,
      "hand": "right"
    },
    {
      "midi": 68,
      "time": 85.313,
      "duration": 0.104,
      "velocity": 0.71,
      "hand": "right"
    },
    {
      "midi": 33,
      "time": 85.417,
      "duration": 0.833,
      "velocity": 0.71,
      "hand": "left"
    },
    {
      "midi": 45,
      "time": 85.417,
      "duration": 0.833,
      "velocity": 0.71,
      "hand": "left"
    },
    {
      "midi": 71,
      "time": 85.417,
      "duration": 0.104,
      "velocity": 0.71,
      "hand": "right"
    },
    {
      "midi": 69,
      "time": 85.521,
      "duration": 0.104,
      "velocity": 0.71,
      "hand": "right"
    },
    {
      "midi": 68,
      "time": 85.729,
      "duration": 0.104,
      "velocity": 0.71,
      "hand": "right"
    },
    {
      "midi": 66,
      "time": 85.833,
      "duration": 0.104,
      "velocity": 0.71,
      "hand": "right"
    },
    {
      "midi": 69,
      "time": 85.938,
      "duration": 0.104,
      "velocity": 0.71,
      "hand": "right"
    },
    {
      "midi": 73,
      "time": 86.146,
      "duration": 0.104,
      "velocity": 0.71,
      "hand": "right"
    },
    {
      "midi": 38,
      "time": 86.25,
      "duration": 0.417,
      "velocity": 0.71,
      "hand": "left"
    },
    {
      "midi": 50,
      "time": 86.25,
      "duration": 0.417,
      "velocity": 0.71,
      "hand": "left"
    },
    {
      "midi": 76,
      "time": 86.25,
      "duration": 0.104,
      "velocity": 0.71,
      "hand": "right"
    },
    {
      "midi": 74,
      "time": 86.354,
      "duration": 0.104,
      "velocity": 0.71,
      "hand": "right"
    },
    {
      "midi": 73,
      "time": 86.563,
      "duration": 0.104,
      "velocity": 0.71,
      "hand": "right"
    },
    {
      "midi": 71,
      "time": 86.667,
      "duration": 0.104,
      "velocity": 0.71,
      "hand": "right"
    },
    {
      "midi": 74,
      "time": 86.771,
      "duration": 0.104,
      "velocity": 0.71,
      "hand": "right"
    },
    {
      "midi": 78,
      "time": 86.979,
      "duration": 0.104,
      "velocity": 0.71,
      "hand": "right"
    },
    {
      "midi": 35,
      "time": 87.083,
      "duration": 0.208,
      "velocity": 0.71,
      "hand": "left"
    },
    {
      "midi": 47,
      "time": 87.083,
      "duration": 0.208,
      "velocity": 0.71,
      "hand": "left"
    },
    {
      "midi": 81,
      "time": 87.083,
      "duration": 0.625,
      "velocity": 0.71,
      "hand": "right"
    },
    {
      "midi": 54,
      "time": 87.5,
      "duration": 0.833,
      "velocity": 0.71,
      "hand": "left"
    },
    {
      "midi": 59,
      "time": 87.5,
      "duration": 0.833,
      "velocity": 0.71,
      "hand": "left"
    },
    {
      "midi": 62,
      "time": 87.5,
      "duration": 0.833,
      "velocity": 0.71,
      "hand": "right"
    },
    {
      "midi": 66,
      "time": 87.5,
      "duration": 0.833,
      "velocity": 0.71,
      "hand": "right"
    },
    {
      "midi": 71,
      "time": 87.5,
      "duration": 0.833,
      "velocity": 0.71,
      "hand": "right"
    },
    {
      "midi": 74,
      "time": 87.5,
      "duration": 0.833,
      "velocity": 0.71,
      "hand": "right"
    },
    {
      "midi": 80,
      "time": 87.708,
      "duration": 0.208,
      "velocity": 0.71,
      "hand": "right"
    },
    {
      "midi": 78,
      "time": 87.917,
      "duration": 0.208,
      "velocity": 0.71,
      "hand": "right"
    },
    {
      "midi": 80,
      "time": 88.125,
      "duration": 0.208,
      "velocity": 0.71,
      "hand": "right"
    },
    {
      "midi": 71,
      "time": 88.333,
      "duration": 0.104,
      "velocity": 0.71,
      "hand": "right"
    },
    {
      "midi": 74,
      "time": 88.438,
      "duration": 0.104,
      "velocity": 0.71,
      "hand": "right"
    },
    {
      "midi": 78,
      "time": 88.646,
      "duration": 0.104,
      "velocity": 0.71,
      "hand": "right"
    },
    {
      "midi": 38,
      "time": 88.75,
      "duration": 0.208,
      "velocity": 0.71,
      "hand": "left"
    },
    {
      "midi": 50,
      "time": 88.75,
      "duration": 0.208,
      "velocity": 0.71,
      "hand": "left"
    },
    {
      "midi": 81,
      "time": 88.75,
      "duration": 0.625,
      "velocity": 0.71,
      "hand": "right"
    },
    {
      "midi": 54,
      "time": 89.167,
      "duration": 0.833,
      "velocity": 0.71,
      "hand": "left"
    },
    {
      "midi": 59,
      "time": 89.167,
      "duration": 0.833,
      "velocity": 0.71,
      "hand": "left"
    },
    {
      "midi": 62,
      "time": 89.167,
      "duration": 0.833,
      "velocity": 0.71,
      "hand": "right"
    },
    {
      "midi": 66,
      "time": 89.167,
      "duration": 0.833,
      "velocity": 0.71,
      "hand": "right"
    },
    {
      "midi": 71,
      "time": 89.167,
      "duration": 0.833,
      "velocity": 0.71,
      "hand": "right"
    },
    {
      "midi": 74,
      "time": 89.167,
      "duration": 0.833,
      "velocity": 0.71,
      "hand": "right"
    },
    {
      "midi": 80,
      "time": 89.375,
      "duration": 0.208,
      "velocity": 0.71,
      "hand": "right"
    },
    {
      "midi": 78,
      "time": 89.583,
      "duration": 0.208,
      "velocity": 0.71,
      "hand": "right"
    },
    {
      "midi": 80,
      "time": 89.792,
      "duration": 0.208,
      "velocity": 0.71,
      "hand": "right"
    },
    {
      "midi": 52,
      "time": 90,
      "duration": 0.833,
      "velocity": 0.71,
      "hand": "left"
    },
    {
      "midi": 62,
      "time": 90,
      "duration": 1.667,
      "velocity": 0.71,
      "hand": "right"
    },
    {
      "midi": 68,
      "time": 90,
      "duration": 0.833,
      "velocity": 0.71,
      "hand": "right"
    },
    {
      "midi": 76,
      "time": 90,
      "duration": 0.104,
      "velocity": 0.71,
      "hand": "right"
    },
    {
      "midi": 74,
      "time": 90.104,
      "duration": 0.104,
      "velocity": 0.71,
      "hand": "right"
    },
    {
      "midi": 76,
      "time": 90.313,
      "duration": 0.104,
      "velocity": 0.71,
      "hand": "right"
    },
    {
      "midi": 73,
      "time": 90.417,
      "duration": 0.625,
      "velocity": 0.71,
      "hand": "right"
    },
    {
      "midi": 54,
      "time": 90.833,
      "duration": 0.417,
      "velocity": 0.71,
      "hand": "left"
    },
    {
      "midi": 66,
      "time": 90.833,
      "duration": 0.417,
      "velocity": 0.71,
      "hand": "right"
    },
    {
      "midi": 71,
      "time": 91.042,
      "duration": 0.208,
      "velocity": 0.71,
      "hand": "right"
    },
    {
      "midi": 56,
      "time": 91.25,
      "duration": 0.417,
      "velocity": 0.71,
      "hand": "left"
    },
    {
      "midi": 65,
      "time": 91.25,
      "duration": 0.417,
      "velocity": 0.71,
      "hand": "right"
    },
    {
      "midi": 71,
      "time": 91.25,
      "duration": 0.208,
      "velocity": 0.71,
      "hand": "right"
    },
    {
      "midi": 73,
      "time": 91.458,
      "duration": 0.208,
      "velocity": 0.71,
      "hand": "right"
    },
    {
      "midi": 57,
      "time": 91.667,
      "duration": 0.833,
      "velocity": 0.71,
      "hand": "left"
    },
    {
      "midi": 61,
      "time": 91.667,
      "duration": 0.833,
      "velocity": 0.71,
      "hand": "right"
    },
    {
      "midi": 64,
      "time": 91.667,
      "duration": 0.833,
      "velocity": 0.71,
      "hand": "right"
    },
    {
      "midi": 69,
      "time": 91.667,
      "duration": 0.417,
      "velocity": 0.71,
      "hand": "right"
    },
    {
      "midi": 66,
      "time": 92.083,
      "duration": 0.833,
      "velocity": 0.71,
      "hand": "right"
    },
    {
      "midi": 47,
      "time": 92.5,
      "duration": 0.833,
      "velocity": 0.71,
      "hand": "left"
    },
    {
      "midi": 57,
      "time": 92.5,
      "duration": 0.833,
      "velocity": 0.71,
      "hand": "left"
    },
    {
      "midi": 63,
      "time": 92.5,
      "duration": 0.833,
      "velocity": 0.71,
      "hand": "right"
    },
    {
      "midi": 68,
      "time": 92.917,
      "duration": 0.417,
      "velocity": 0.71,
      "hand": "right"
    },
    {
      "midi": 40,
      "time": 93.333,
      "duration": 0.417,
      "velocity": 0.71,
      "hand": "left"
    },
    {
      "midi": 47,
      "time": 93.333,
      "duration": 0.417,
      "velocity": 0.71,
      "hand": "left"
    },
    {
      "midi": 56,
      "time": 93.333,
      "duration": 0.417,
      "velocity": 0.71,
      "hand": "left"
    },
    {
      "midi": 62,
      "time": 93.333,
      "duration": 0.417,
      "velocity": 0.71,
      "hand": "right"
    },
    {
      "midi": 66,
      "time": 93.333,
      "duration": 0.208,
      "velocity": 0.71,
      "hand": "right"
    },
    {
      "midi": 64,
      "time": 93.542,
      "duration": 0.208,
      "velocity": 0.71,
      "hand": "right"
    },
    {
      "midi": 56,
      "time": 93.75,
      "duration": 1.25,
      "velocity": 0.71,
      "hand": "left"
    },
    {
      "midi": 62,
      "time": 93.75,
      "duration": 1.25,
      "velocity": 0.71,
      "hand": "right"
    },
    {
      "midi": 66,
      "time": 93.75,
      "duration": 0.833,
      "velocity": 0.71,
      "hand": "right"
    },
    {
      "midi": 71,
      "time": 93.75,
      "duration": 1.25,
      "velocity": 0.71,
      "hand": "right"
    },
    {
      "midi": 74,
      "time": 93.75,
      "duration": 1.25,
      "velocity": 0.71,
      "hand": "right"
    },
    {
      "midi": 78,
      "time": 93.75,
      "duration": 0.833,
      "velocity": 0.71,
      "hand": "right"
    },
    {
      "midi": 64,
      "time": 94.583,
      "duration": 0.417,
      "velocity": 0.71,
      "hand": "right"
    },
    {
      "midi": 76,
      "time": 94.583,
      "duration": 0.417,
      "velocity": 0.71,
      "hand": "right"
    },
    {
      "midi": 45,
      "time": 95,
      "duration": 0.417,
      "velocity": 0.71,
      "hand": "left"
    },
    {
      "midi": 52,
      "time": 95,
      "duration": 0.417,
      "velocity": 0.71,
      "hand": "left"
    },
    {
      "midi": 57,
      "time": 95,
      "duration": 0.417,
      "velocity": 0.71,
      "hand": "left"
    },
    {
      "midi": 61,
      "time": 95,
      "duration": 0.417,
      "velocity": 0.71,
      "hand": "right"
    },
    {
      "midi": 66,
      "time": 95,
      "duration": 0.208,
      "velocity": 0.71,
      "hand": "right"
    },
    {
      "midi": 64,
      "time": 95.208,
      "duration": 0.208,
      "velocity": 0.71,
      "hand": "right"
    },
    {
      "midi": 52,
      "time": 95.417,
      "duration": 1.25,
      "velocity": 0.71,
      "hand": "left"
    },
    {
      "midi": 57,
      "time": 95.417,
      "duration": 1.25,
      "velocity": 0.71,
      "hand": "left"
    },
    {
      "midi": 61,
      "time": 95.417,
      "duration": 1.25,
      "velocity": 0.71,
      "hand": "right"
    },
    {
      "midi": 64,
      "time": 95.417,
      "duration": 1.25,
      "velocity": 0.71,
      "hand": "right"
    },
    {
      "midi": 69,
      "time": 95.417,
      "duration": 1.25,
      "velocity": 0.71,
      "hand": "right"
    },
    {
      "midi": 73,
      "time": 95.417,
      "duration": 1.25,
      "velocity": 0.71,
      "hand": "right"
    },
    {
      "midi": 80,
      "time": 95.417,
      "duration": 0.625,
      "velocity": 0.71,
      "hand": "right"
    },
    {
      "midi": 83,
      "time": 96.042,
      "duration": 0.208,
      "velocity": 0.71,
      "hand": "right"
    },
    {
      "midi": 81,
      "time": 96.25,
      "duration": 0.208,
      "velocity": 0.71,
      "hand": "right"
    },
    {
      "midi": 78,
      "time": 96.458,
      "duration": 0.208,
      "velocity": 0.71,
      "hand": "right"
    },
    {
      "midi": 59,
      "time": 96.667,
      "duration": 0.208,
      "velocity": 0.71,
      "hand": "left"
    },
    {
      "midi": 66,
      "time": 96.667,
      "duration": 1.25,
      "velocity": 0.71,
      "hand": "right"
    },
    {
      "midi": 69,
      "time": 96.667,
      "duration": 1.25,
      "velocity": 0.71,
      "hand": "right"
    },
    {
      "midi": 76,
      "time": 96.667,
      "duration": 0.104,
      "velocity": 0.71,
      "hand": "right"
    },
    {
      "midi": 74,
      "time": 96.771,
      "duration": 0.104,
      "velocity": 0.71,
      "hand": "right"
    },
    {
      "midi": 61,
      "time": 96.875,
      "duration": 0.208,
      "velocity": 0.71,
      "hand": "right"
    },
    {
      "midi": 76,
      "time": 96.979,
      "duration": 0.104,
      "velocity": 0.71,
      "hand": "right"
    },
    {
      "midi": 62,
      "time": 97.083,
      "duration": 1.25,
      "velocity": 0.71,
      "hand": "right"
    },
    {
      "midi": 73,
      "time": 97.083,
      "duration": 0.625,
      "velocity": 0.71,
      "hand": "right"
    },
    {
      "midi": 71,
      "time": 97.708,
      "duration": 0.208,
      "velocity": 0.71,
      "hand": "right"
    },
    {
      "midi": 65,
      "time": 97.917,
      "duration": 0.417,
      "velocity": 0.71,
      "hand": "right"
    },
    {
      "midi": 68,
      "time": 97.917,
      "duration": 0.417,
      "velocity": 0.71,
      "hand": "right"
    },
    {
      "midi": 71,
      "time": 97.917,
      "duration": 0.208,
      "velocity": 0.71,
      "hand": "right"
    },
    {
      "midi": 73,
      "time": 98.125,
      "duration": 0.208,
      "velocity": 0.71,
      "hand": "right"
    },
    {
      "midi": 54,
      "time": 98.333,
      "duration": 0.833,
      "velocity": 0.71,
      "hand": "left"
    },
    {
      "midi": 61,
      "time": 98.333,
      "duration": 0.833,
      "velocity": 0.71,
      "hand": "right"
    },
    {
      "midi": 64,
      "time": 98.333,
      "duration": 0.833,
      "velocity": 0.71,
      "hand": "right"
    },
    {
      "midi": 69,
      "time": 98.333,
      "duration": 0.417,
      "velocity": 0.71,
      "hand": "right"
    },
    {
      "midi": 68,
      "time": 98.75,
      "duration": 0.625,
      "velocity": 0.71,
      "hand": "right"
    },
    {
      "midi": 47,
      "time": 99.167,
      "duration": 0.417,
      "velocity": 0.71,
      "hand": "left"
    },
    {
      "midi": 57,
      "time": 99.167,
      "duration": 0.417,
      "velocity": 0.71,
      "hand": "left"
    },
    {
      "midi": 63,
      "time": 99.167,
      "duration": 0.417,
      "velocity": 0.71,
      "hand": "right"
    },
    {
      "midi": 66,
      "time": 99.375,
      "duration": 0.208,
      "velocity": 0.71,
      "hand": "right"
    },
    {
      "midi": 45,
      "time": 99.583,
      "duration": 0.417,
      "velocity": 0.71,
      "hand": "left"
    },
    {
      "midi": 51,
      "time": 99.583,
      "duration": 0.417,
      "velocity": 0.71,
      "hand": "left"
    },
    {
      "midi": 61,
      "time": 99.583,
      "duration": 0.417,
      "velocity": 0.71,
      "hand": "right"
    },
    {
      "midi": 66,
      "time": 99.583,
      "duration": 0.208,
      "velocity": 0.71,
      "hand": "right"
    },
    {
      "midi": 68,
      "time": 99.792,
      "duration": 0.208,
      "velocity": 0.71,
      "hand": "right"
    },
    {
      "midi": 44,
      "time": 100,
      "duration": 0.417,
      "velocity": 0.71,
      "hand": "left"
    },
    {
      "midi": 52,
      "time": 100,
      "duration": 0.417,
      "velocity": 0.71,
      "hand": "left"
    },
    {
      "midi": 59,
      "time": 100,
      "duration": 0.417,
      "velocity": 0.71,
      "hand": "left"
    },
    {
      "midi": 66,
      "time": 100,
      "duration": 0.104,
      "velocity": 0.71,
      "hand": "right"
    },
    {
      "midi": 64,
      "time": 100.104,
      "duration": 0.104,
      "velocity": 0.71,
      "hand": "right"
    },
    {
      "midi": 42,
      "time": 100.417,
      "duration": 0.833,
      "velocity": 0.71,
      "hand": "left"
    },
    {
      "midi": 52,
      "time": 100.417,
      "duration": 0.833,
      "velocity": 0.71,
      "hand": "left"
    },
    {
      "midi": 57,
      "time": 100.417,
      "duration": 0.833,
      "velocity": 0.71,
      "hand": "left"
    },
    {
      "midi": 61,
      "time": 100.417,
      "duration": 0.833,
      "velocity": 0.71,
      "hand": "right"
    },
    {
      "midi": 35,
      "time": 101.25,
      "duration": 0.417,
      "velocity": 0.71,
      "hand": "left"
    },
    {
      "midi": 47,
      "time": 101.25,
      "duration": 0.417,
      "velocity": 0.71,
      "hand": "left"
    },
    {
      "midi": 57,
      "time": 101.25,
      "duration": 0.417,
      "velocity": 0.71,
      "hand": "left"
    },
    {
      "midi": 61,
      "time": 101.25,
      "duration": 0.417,
      "velocity": 0.71,
      "hand": "right"
    },
    {
      "midi": 64,
      "time": 101.25,
      "duration": 0.417,
      "velocity": 0.71,
      "hand": "right"
    },
    {
      "midi": 40,
      "time": 101.667,
      "duration": 0.833,
      "velocity": 0.71,
      "hand": "left"
    },
    {
      "midi": 47,
      "time": 101.667,
      "duration": 0.833,
      "velocity": 0.71,
      "hand": "left"
    },
    {
      "midi": 57,
      "time": 101.667,
      "duration": 0.417,
      "velocity": 0.71,
      "hand": "left"
    },
    {
      "midi": 59,
      "time": 101.667,
      "duration": 1.25,
      "velocity": 0.71,
      "hand": "left"
    },
    {
      "midi": 64,
      "time": 101.667,
      "duration": 1.25,
      "velocity": 0.71,
      "hand": "right"
    },
    {
      "midi": 56,
      "time": 102.083,
      "duration": 0.833,
      "velocity": 0.71,
      "hand": "left"
    },
    {
      "midi": 40,
      "time": 102.5,
      "duration": 0.417,
      "velocity": 0.71,
      "hand": "left"
    },
    {
      "midi": 52,
      "time": 102.917,
      "duration": 0.417,
      "velocity": 0.71,
      "hand": "left"
    },
    {
      "midi": 40,
      "time": 103.333,
      "duration": 0.417,
      "velocity": 0.71,
      "hand": "left"
    },
    {
      "midi": 48,
      "time": 103.333,
      "duration": 0.417,
      "velocity": 0.71,
      "hand": "left"
    },
    {
      "midi": 55,
      "time": 103.333,
      "duration": 0.417,
      "velocity": 0.71,
      "hand": "left"
    },
    {
      "midi": 60,
      "time": 103.333,
      "duration": 0.417,
      "velocity": 0.71,
      "hand": "right"
    },
    {
      "midi": 67,
      "time": 103.333,
      "duration": 0.104,
      "velocity": 0.71,
      "hand": "right"
    },
    {
      "midi": 65,
      "time": 103.438,
      "duration": 0.104,
      "velocity": 0.71,
      "hand": "right"
    },
    {
      "midi": 67,
      "time": 103.646,
      "duration": 0.104,
      "velocity": 0.71,
      "hand": "right"
    },
    {
      "midi": 41,
      "time": 103.75,
      "duration": 0.833,
      "velocity": 0.71,
      "hand": "left"
    },
    {
      "midi": 48,
      "time": 103.75,
      "duration": 0.833,
      "velocity": 0.71,
      "hand": "left"
    },
    {
      "midi": 57,
      "time": 103.75,
      "duration": 0.833,
      "velocity": 0.71,
      "hand": "left"
    },
    {
      "midi": 60,
      "time": 103.75,
      "duration": 0.833,
      "velocity": 0.71,
      "hand": "right"
    },
    {
      "midi": 64,
      "time": 103.75,
      "duration": 0.833,
      "velocity": 0.71,
      "hand": "right"
    },
    {
      "midi": 43,
      "time": 104.583,
      "duration": 0.417,
      "velocity": 0.71,
      "hand": "left"
    },
    {
      "midi": 53,
      "time": 104.583,
      "duration": 0.417,
      "velocity": 0.71,
      "hand": "left"
    },
    {
      "midi": 59,
      "time": 104.583,
      "duration": 0.417,
      "velocity": 0.71,
      "hand": "left"
    },
    {
      "midi": 62,
      "time": 104.583,
      "duration": 0.417,
      "velocity": 0.71,
      "hand": "right"
    },
    {
      "midi": 45,
      "time": 105,
      "duration": 0.417,
      "velocity": 0.71,
      "hand": "left"
    },
    {
      "midi": 52,
      "time": 105,
      "duration": 0.417,
      "velocity": 0.71,
      "hand": "left"
    },
    {
      "midi": 57,
      "time": 105,
      "duration": 0.417,
      "velocity": 0.71,
      "hand": "left"
    },
    {
      "midi": 60,
      "time": 105,
      "duration": 0.417,
      "velocity": 0.71,
      "hand": "right"
    },
    {
      "midi": 47,
      "time": 105.417,
      "duration": 0.833,
      "velocity": 0.71,
      "hand": "left"
    },
    {
      "midi": 50,
      "time": 105.417,
      "duration": 0.833,
      "velocity": 0.71,
      "hand": "left"
    },
    {
      "midi": 53,
      "time": 105.417,
      "duration": 0.833,
      "velocity": 0.71,
      "hand": "left"
    },
    {
      "midi": 55,
      "time": 105.417,
      "duration": 0.833,
      "velocity": 0.71,
      "hand": "left"
    },
    {
      "midi": 45,
      "time": 106.25,
      "duration": 0.417,
      "velocity": 0.71,
      "hand": "left"
    },
    {
      "midi": 52,
      "time": 106.25,
      "duration": 0.417,
      "velocity": 0.71,
      "hand": "left"
    },
    {
      "midi": 57,
      "time": 106.25,
      "duration": 0.417,
      "velocity": 0.71,
      "hand": "left"
    },
    {
      "midi": 60,
      "time": 106.25,
      "duration": 0.417,
      "velocity": 0.71,
      "hand": "right"
    },
    {
      "midi": 43,
      "time": 106.667,
      "duration": 0.417,
      "velocity": 0.71,
      "hand": "left"
    },
    {
      "midi": 53,
      "time": 106.667,
      "duration": 0.417,
      "velocity": 0.71,
      "hand": "left"
    },
    {
      "midi": 59,
      "time": 106.667,
      "duration": 0.417,
      "velocity": 0.71,
      "hand": "left"
    },
    {
      "midi": 62,
      "time": 106.667,
      "duration": 0.417,
      "velocity": 0.71,
      "hand": "right"
    },
    {
      "midi": 41,
      "time": 107.083,
      "duration": 0.417,
      "velocity": 0.71,
      "hand": "left"
    },
    {
      "midi": 57,
      "time": 107.083,
      "duration": 0.417,
      "velocity": 0.71,
      "hand": "left"
    },
    {
      "midi": 60,
      "time": 107.083,
      "duration": 0.417,
      "velocity": 0.71,
      "hand": "right"
    },
    {
      "midi": 65,
      "time": 107.083,
      "duration": 0.417,
      "velocity": 0.71,
      "hand": "right"
    },
    {
      "midi": 40,
      "time": 107.5,
      "duration": 0.417,
      "velocity": 0.71,
      "hand": "left"
    },
    {
      "midi": 55,
      "time": 107.5,
      "duration": 0.417,
      "velocity": 0.71,
      "hand": "left"
    },
    {
      "midi": 60,
      "time": 107.5,
      "duration": 0.417,
      "velocity": 0.71,
      "hand": "right"
    },
    {
      "midi": 67,
      "time": 107.5,
      "duration": 0.417,
      "velocity": 0.71,
      "hand": "right"
    },
    {
      "midi": 38,
      "time": 107.917,
      "duration": 0.417,
      "velocity": 0.71,
      "hand": "left"
    },
    {
      "midi": 50,
      "time": 107.917,
      "duration": 0.417,
      "velocity": 0.71,
      "hand": "left"
    },
    {
      "midi": 60,
      "time": 107.917,
      "duration": 0.417,
      "velocity": 0.71,
      "hand": "right"
    },
    {
      "midi": 65,
      "time": 107.917,
      "duration": 0.417,
      "velocity": 0.71,
      "hand": "right"
    },
    {
      "midi": 69,
      "time": 107.917,
      "duration": 0.208,
      "velocity": 0.71,
      "hand": "right"
    },
    {
      "midi": 72,
      "time": 108.125,
      "duration": 0.208,
      "velocity": 0.71,
      "hand": "right"
    },
    {
      "midi": 31,
      "time": 108.333,
      "duration": 0.208,
      "velocity": 0.71,
      "hand": "left"
    },
    {
      "midi": 65,
      "time": 108.333,
      "duration": 1.667,
      "velocity": 0.71,
      "hand": "right"
    },
    {
      "midi": 71,
      "time": 108.333,
      "duration": 0.833,
      "velocity": 0.71,
      "hand": "right"
    },
    {
      "midi": 74,
      "time": 108.333,
      "duration": 0.833,
      "velocity": 0.71,
      "hand": "right"
    },
    {
      "midi": 43,
      "time": 108.542,
      "duration": 0.208,
      "velocity": 0.71,
      "hand": "left"
    },
    {
      "midi": 50,
      "time": 108.75,
      "duration": 0.208,
      "velocity": 0.71,
      "hand": "left"
    },
    {
      "midi": 53,
      "time": 108.958,
      "duration": 0.208,
      "velocity": 0.71,
      "hand": "left"
    },
    {
      "midi": 55,
      "time": 109.167,
      "duration": 0.208,
      "velocity": 0.71,
      "hand": "left"
    },
    {
      "midi": 67,
      "time": 109.167,
      "duration": 0.833,
      "velocity": 0.71,
      "hand": "right"
    },
    {
      "midi": 59,
      "time": 109.375,
      "duration": 0.208,
      "velocity": 0.71,
      "hand": "left"
    },
    {
      "midi": 62,
      "time": 109.583,
      "duration": 0.208,
      "velocity": 0.71,
      "hand": "right"
    },
    {
      "midi": 65,
      "time": 109.792,
      "duration": 0.208,
      "velocity": 0.71,
      "hand": "right"
    },
    {
      "midi": 64,
      "time": 110,
      "duration": 0.833,
      "velocity": 0.71,
      "hand": "right"
    },
    {
      "midi": 67,
      "time": 110,
      "duration": 0.833,
      "velocity": 0.71,
      "hand": "right"
    },
    {
      "midi": 72,
      "time": 110,
      "duration": 3.333,
      "velocity": 0.71,
      "hand": "right"
    },
    {
      "midi": 79,
      "time": 110,
      "duration": 0.104,
      "velocity": 0.71,
      "hand": "right"
    },
    {
      "midi": 77,
      "time": 110.104,
      "duration": 0.104,
      "velocity": 0.71,
      "hand": "right"
    },
    {
      "midi": 79,
      "time": 110.313,
      "duration": 0.104,
      "velocity": 0.71,
      "hand": "right"
    },
    {
      "midi": 76,
      "time": 110.417,
      "duration": 0.833,
      "velocity": 0.71,
      "hand": "right"
    },
    {
      "midi": 65,
      "time": 110.833,
      "duration": 0.833,
      "velocity": 0.71,
      "hand": "right"
    },
    {
      "midi": 69,
      "time": 110.833,
      "duration": 0.833,
      "velocity": 0.71,
      "hand": "right"
    },
    {
      "midi": 74,
      "time": 111.25,
      "duration": 0.417,
      "velocity": 0.71,
      "hand": "right"
    },
    {
      "midi": 67,
      "time": 111.667,
      "duration": 0.833,
      "velocity": 0.71,
      "hand": "right"
    },
    {
      "midi": 70,
      "time": 111.667,
      "duration": 0.833,
      "velocity": 0.71,
      "hand": "right"
    },
    {
      "midi": 76,
      "time": 111.667,
      "duration": 0.833,
      "velocity": 0.71,
      "hand": "right"
    },
    {
      "midi": 65,
      "time": 112.5,
      "duration": 0.833,
      "velocity": 0.71,
      "hand": "right"
    },
    {
      "midi": 69,
      "time": 112.5,
      "duration": 0.833,
      "velocity": 0.71,
      "hand": "right"
    },
    {
      "midi": 77,
      "time": 112.5,
      "duration": 0.833,
      "velocity": 0.71,
      "hand": "right"
    },
    {
      "midi": 64,
      "time": 113.333,
      "duration": 3.125,
      "velocity": 0.71,
      "hand": "right"
    },
    {
      "midi": 67,
      "time": 113.333,
      "duration": 1.667,
      "velocity": 0.71,
      "hand": "right"
    },
    {
      "midi": 72,
      "time": 113.333,
      "duration": 2.5,
      "velocity": 0.71,
      "hand": "right"
    },
    {
      "midi": 79,
      "time": 113.333,
      "duration": 0.104,
      "velocity": 0.71,
      "hand": "right"
    },
    {
      "midi": 77,
      "time": 113.438,
      "duration": 0.104,
      "velocity": 0.71,
      "hand": "right"
    },
    {
      "midi": 79,
      "time": 113.646,
      "duration": 0.104,
      "velocity": 0.71,
      "hand": "right"
    },
    {
      "midi": 76,
      "time": 113.75,
      "duration": 0.833,
      "velocity": 0.71,
      "hand": "right"
    },
    {
      "midi": 79,
      "time": 114.583,
      "duration": 0.417,
      "velocity": 0.71,
      "hand": "right"
    },
    {
      "midi": 68,
      "time": 115,
      "duration": 1.667,
      "velocity": 0.71,
      "hand": "right"
    },
    {
      "midi": 80,
      "time": 115,
      "duration": 0.104,
      "velocity": 0.71,
      "hand": "right"
    },
    {
      "midi": 78,
      "time": 115.104,
      "duration": 0.104,
      "velocity": 0.71,
      "hand": "right"
    },
    {
      "midi": 80,
      "time": 115.313,
      "duration": 0.104,
      "velocity": 0.71,
      "hand": "right"
    },
    {
      "midi": 76,
      "time": 115.417,
      "duration": 0.833,
      "velocity": 0.71,
      "hand": "right"
    },
    {
      "midi": 73,
      "time": 115.833,
      "duration": 0.833,
      "velocity": 0.71,
      "hand": "right"
    },
    {
      "midi": 80,
      "time": 116.25,
      "duration": 0.417,
      "velocity": 0.71,
      "hand": "right"
    },
    {
      "midi": 63,
      "time": 116.458,
      "duration": 0.208,
      "velocity": 0.71,
      "hand": "right"
    },
    {
      "midi": 61,
      "time": 116.667,
      "duration": 0.104,
      "velocity": 0.71,
      "hand": "right"
    },
    {
      "midi": 81,
      "time": 116.667,
      "duration": 0.833,
      "velocity": 0.71,
      "hand": "right"
    },
    {
      "midi": 64,
      "time": 116.771,
      "duration": 0.104,
      "velocity": 0.71,
      "hand": "right"
    },
    {
      "midi": 69,
      "time": 116.979,
      "duration": 0.104,
      "velocity": 0.71,
      "hand": "right"
    },
    {
      "midi": 73,
      "time": 117.083,
      "duration": 0.104,
      "velocity": 0.71,
      "hand": "right"
    },
    {
      "midi": 76,
      "time": 117.188,
      "duration": 0.104,
      "velocity": 0.71,
      "hand": "right"
    },
    {
      "midi": 78,
      "time": 117.396,
      "duration": 0.104,
      "velocity": 0.71,
      "hand": "right"
    },
    {
      "midi": 80,
      "time": 117.5,
      "duration": 0.833,
      "velocity": 0.71,
      "hand": "right"
    },
    {
      "midi": 75,
      "time": 117.604,
      "duration": 0.104,
      "velocity": 0.71,
      "hand": "right"
    },
    {
      "midi": 71,
      "time": 117.813,
      "duration": 0.104,
      "velocity": 0.71,
      "hand": "right"
    },
    {
      "midi": 68,
      "time": 117.917,
      "duration": 0.104,
      "velocity": 0.71,
      "hand": "right"
    },
    {
      "midi": 63,
      "time": 118.021,
      "duration": 0.104,
      "velocity": 0.71,
      "hand": "right"
    },
    {
      "midi": 59,
      "time": 118.229,
      "duration": 0.104,
      "velocity": 0.71,
      "hand": "left"
    },
    {
      "midi": 57,
      "time": 118.333,
      "duration": 0.104,
      "velocity": 0.71,
      "hand": "left"
    },
    {
      "midi": 78,
      "time": 118.333,
      "duration": 0.833,
      "velocity": 0.71,
      "hand": "right"
    },
    {
      "midi": 61,
      "time": 118.438,
      "duration": 0.104,
      "velocity": 0.71,
      "hand": "right"
    },
    {
      "midi": 66,
      "time": 118.646,
      "duration": 0.104,
      "velocity": 0.71,
      "hand": "right"
    },
    {
      "midi": 69,
      "time": 118.75,
      "duration": 0.104,
      "velocity": 0.71,
      "hand": "right"
    },
    {
      "midi": 73,
      "time": 118.854,
      "duration": 0.104,
      "velocity": 0.71,
      "hand": "right"
    },
    {
      "midi": 75,
      "time": 119.063,
      "duration": 0.104,
      "velocity": 0.71,
      "hand": "right"
    },
    {
      "midi": 76,
      "time": 119.167,
      "duration": 0.833,
      "velocity": 0.71,
      "hand": "right"
    },
    {
      "midi": 71,
      "time": 119.271,
      "duration": 0.104,
      "velocity": 0.71,
      "hand": "right"
    },
    {
      "midi": 68,
      "time": 119.479,
      "duration": 0.104,
      "velocity": 0.71,
      "hand": "right"
    },
    {
      "midi": 64,
      "time": 119.583,
      "duration": 0.104,
      "velocity": 0.71,
      "hand": "right"
    },
    {
      "midi": 59,
      "time": 119.688,
      "duration": 0.104,
      "velocity": 0.71,
      "hand": "left"
    },
    {
      "midi": 56,
      "time": 119.896,
      "duration": 0.104,
      "velocity": 0.71,
      "hand": "left"
    },
    {
      "midi": 54,
      "time": 120,
      "duration": 0.833,
      "velocity": 0.71,
      "hand": "left"
    },
    {
      "midi": 57,
      "time": 120.104,
      "duration": 0.104,
      "velocity": 0.71,
      "hand": "left"
    },
    {
      "midi": 61,
      "time": 120.313,
      "duration": 0.417,
      "velocity": 0.71,
      "hand": "right"
    },
    {
      "midi": 73,
      "time": 120.417,
      "duration": 0.417,
      "velocity": 0.71,
      "hand": "right"
    },
    {
      "midi": 66,
      "time": 120.521,
      "duration": 0.104,
      "velocity": 0.71,
      "hand": "right"
    },
    {
      "midi": 69,
      "time": 120.729,
      "duration": 0.521,
      "velocity": 0.71,
      "hand": "right"
    },
    {
      "midi": 52,
      "time": 120.833,
      "duration": 0.833,
      "velocity": 0.71,
      "hand": "left"
    },
    {
      "midi": 78,
      "time": 120.833,
      "duration": 0.417,
      "velocity": 0.71,
      "hand": "right"
    },
    {
      "midi": 57,
      "time": 120.938,
      "duration": 0.104,
      "velocity": 0.71,
      "hand": "left"
    },
    {
      "midi": 61,
      "time": 121.146,
      "duration": 0.417,
      "velocity": 0.71,
      "hand": "right"
    },
    {
      "midi": 73,
      "time": 121.25,
      "duration": 0.833,
      "velocity": 0.71,
      "hand": "right"
    },
    {
      "midi": 66,
      "time": 121.354,
      "duration": 0.104,
      "velocity": 0.71,
      "hand": "right"
    },
    {
      "midi": 69,
      "time": 121.563,
      "duration": 0.521,
      "velocity": 0.71,
      "hand": "right"
    },
    {
      "midi": 51,
      "time": 121.667,
      "duration": 0.833,
      "velocity": 0.71,
      "hand": "left"
    },
    {
      "midi": 57,
      "time": 121.771,
      "duration": 0.104,
      "velocity": 0.71,
      "hand": "left"
    },
    {
      "midi": 61,
      "time": 121.979,
      "duration": 0.417,
      "velocity": 0.71,
      "hand": "right"
    },
    {
      "midi": 73,
      "time": 122.083,
      "duration": 0.417,
      "velocity": 0.71,
      "hand": "right"
    },
    {
      "midi": 66,
      "time": 122.188,
      "duration": 0.104,
      "velocity": 0.71,
      "hand": "right"
    },
    {
      "midi": 69,
      "time": 122.396,
      "duration": 0.521,
      "velocity": 0.71,
      "hand": "right"
    },
    {
      "midi": 49,
      "time": 122.5,
      "duration": 0.833,
      "velocity": 0.71,
      "hand": "left"
    },
    {
      "midi": 78,
      "time": 122.5,
      "duration": 0.417,
      "velocity": 0.71,
      "hand": "right"
    },
    {
      "midi": 57,
      "time": 122.604,
      "duration": 0.104,
      "velocity": 0.71,
      "hand": "left"
    },
    {
      "midi": 64,
      "time": 122.813,
      "duration": 0.417,
      "velocity": 0.71,
      "hand": "right"
    },
    {
      "midi": 81,
      "time": 122.917,
      "duration": 0.833,
      "velocity": 0.71,
      "hand": "right"
    },
    {
      "midi": 69,
      "time": 123.021,
      "duration": 0.104,
      "velocity": 0.71,
      "hand": "right"
    },
    {
      "midi": 73,
      "time": 123.229,
      "duration": 0.104,
      "velocity": 0.71,
      "hand": "right"
    },
    {
      "midi": 47,
      "time": 123.333,
      "duration": 0.104,
      "velocity": 0.71,
      "hand": "left"
    },
    {
      "midi": 54,
      "time": 123.438,
      "duration": 0.104,
      "velocity": 0.71,
      "hand": "left"
    },
    {
      "midi": 57,
      "time": 123.646,
      "duration": 0.104,
      "velocity": 0.71,
      "hand": "left"
    },
    {
      "midi": 61,
      "time": 123.75,
      "duration": 0.104,
      "velocity": 0.71,
      "hand": "right"
    },
    {
      "midi": 81,
      "time": 123.75,
      "duration": 0.938,
      "velocity": 0.71,
      "hand": "right"
    },
    {
      "midi": 63,
      "time": 123.854,
      "duration": 0.104,
      "velocity": 0.71,
      "hand": "right"
    },
    {
      "midi": 66,
      "time": 124.063,
      "duration": 0.104,
      "velocity": 0.71,
      "hand": "right"
    },
    {
      "midi": 69,
      "time": 124.167,
      "duration": 0.104,
      "velocity": 0.71,
      "hand": "right"
    },
    {
      "midi": 73,
      "time": 124.271,
      "duration": 0.104,
      "velocity": 0.71,
      "hand": "right"
    },
    {
      "midi": 75,
      "time": 124.479,
      "duration": 0.104,
      "velocity": 0.71,
      "hand": "right"
    },
    {
      "midi": 73,
      "time": 124.583,
      "duration": 0.104,
      "velocity": 0.71,
      "hand": "right"
    },
    {
      "midi": 71,
      "time": 124.688,
      "duration": 0.104,
      "velocity": 0.71,
      "hand": "right"
    },
    {
      "midi": 80,
      "time": 124.688,
      "duration": 0.104,
      "velocity": 0.71,
      "hand": "right"
    },
    {
      "midi": 69,
      "time": 124.896,
      "duration": 0.104,
      "velocity": 0.71,
      "hand": "right"
    },
    {
      "midi": 78,
      "time": 124.896,
      "duration": 0.104,
      "velocity": 0.71,
      "hand": "right"
    },
    {
      "midi": 40,
      "time": 125,
      "duration": 0.208,
      "velocity": 0.71,
      "hand": "left"
    },
    {
      "midi": 47,
      "time": 125.208,
      "duration": 0.208,
      "velocity": 0.71,
      "hand": "left"
    },
    {
      "midi": 52,
      "time": 125.417,
      "duration": 0.208,
      "velocity": 0.71,
      "hand": "left"
    },
    {
      "midi": 76,
      "time": 125.417,
      "duration": 0.104,
      "velocity": 0.71,
      "hand": "right"
    },
    {
      "midi": 78,
      "time": 125.521,
      "duration": 0.104,
      "velocity": 0.71,
      "hand": "right"
    },
    {
      "midi": 56,
      "time": 125.625,
      "duration": 0.208,
      "velocity": 0.71,
      "hand": "left"
    },
    {
      "midi": 73,
      "time": 125.729,
      "duration": 0.104,
      "velocity": 0.71,
      "hand": "right"
    },
    {
      "midi": 59,
      "time": 125.833,
      "duration": 0.208,
      "velocity": 0.71,
      "hand": "left"
    },
    {
      "midi": 76,
      "time": 125.833,
      "duration": 0.104,
      "velocity": 0.71,
      "hand": "right"
    },
    {
      "midi": 71,
      "time": 125.938,
      "duration": 0.104,
      "velocity": 0.71,
      "hand": "right"
    },
    {
      "midi": 56,
      "time": 126.042,
      "duration": 0.208,
      "velocity": 0.71,
      "hand": "left"
    },
    {
      "midi": 73,
      "time": 126.146,
      "duration": 0.104,
      "velocity": 0.71,
      "hand": "right"
    },
    {
      "midi": 52,
      "time": 126.25,
      "duration": 0.208,
      "velocity": 0.71,
      "hand": "left"
    },
    {
      "midi": 68,
      "time": 126.25,
      "duration": 0.104,
      "velocity": 0.71,
      "hand": "right"
    },
    {
      "midi": 71,
      "time": 126.354,
      "duration": 0.104,
      "velocity": 0.71,
      "hand": "right"
    },
    {
      "midi": 47,
      "time": 126.458,
      "duration": 0.208,
      "velocity": 0.71,
      "hand": "left"
    },
    {
      "midi": 66,
      "time": 126.563,
      "duration": 0.104,
      "velocity": 0.71,
      "hand": "right"
    },
    {
      "midi": 40,
      "time": 126.667,
      "duration": 0.208,
      "velocity": 0.71,
      "hand": "left"
    },
    {
      "midi": 68,
      "time": 126.667,
      "duration": 0.104,
      "velocity": 0.71,
      "hand": "right"
    },
    {
      "midi": 64,
      "time": 126.771,
      "duration": 0.104,
      "velocity": 0.71,
      "hand": "right"
    },
    {
      "midi": 47,
      "time": 126.875,
      "duration": 0.208,
      "velocity": 0.71,
      "hand": "left"
    },
    {
      "midi": 68,
      "time": 126.979,
      "duration": 0.104,
      "velocity": 0.71,
      "hand": "right"
    },
    {
      "midi": 52,
      "time": 127.083,
      "duration": 0.208,
      "velocity": 0.71,
      "hand": "left"
    },
    {
      "midi": 63,
      "time": 127.083,
      "duration": 0.833,
      "velocity": 0.71,
      "hand": "right"
    },
    {
      "midi": 56,
      "time": 127.292,
      "duration": 0.208,
      "velocity": 0.71,
      "hand": "left"
    },
    {
      "midi": 61,
      "time": 127.5,
      "duration": 0.208,
      "velocity": 0.71,
      "hand": "right"
    },
    {
      "midi": 56,
      "time": 127.708,
      "duration": 0.208,
      "velocity": 0.71,
      "hand": "left"
    },
    {
      "midi": 52,
      "time": 127.917,
      "duration": 0.208,
      "velocity": 0.71,
      "hand": "left"
    },
    {
      "midi": 61,
      "time": 127.917,
      "duration": 0.417,
      "velocity": 0.71,
      "hand": "right"
    },
    {
      "midi": 47,
      "time": 128.125,
      "duration": 0.208,
      "velocity": 0.71,
      "hand": "left"
    },
    {
      "midi": 40,
      "time": 128.333,
      "duration": 0.208,
      "velocity": 0.71,
      "hand": "left"
    },
    {
      "midi": 59,
      "time": 128.333,
      "duration": 0.208,
      "velocity": 0.71,
      "hand": "left"
    },
    {
      "midi": 47,
      "time": 128.542,
      "duration": 0.208,
      "velocity": 0.71,
      "hand": "left"
    },
    {
      "midi": 52,
      "time": 128.75,
      "duration": 0.208,
      "velocity": 0.71,
      "hand": "left"
    },
    {
      "midi": 76,
      "time": 128.75,
      "duration": 0.104,
      "velocity": 0.71,
      "hand": "right"
    },
    {
      "midi": 78,
      "time": 128.854,
      "duration": 0.104,
      "velocity": 0.71,
      "hand": "right"
    },
    {
      "midi": 56,
      "time": 128.958,
      "duration": 0.208,
      "velocity": 0.71,
      "hand": "left"
    },
    {
      "midi": 73,
      "time": 129.063,
      "duration": 0.104,
      "velocity": 0.71,
      "hand": "right"
    },
    {
      "midi": 59,
      "time": 129.167,
      "duration": 0.208,
      "velocity": 0.71,
      "hand": "left"
    },
    {
      "midi": 76,
      "time": 129.167,
      "duration": 0.104,
      "velocity": 0.71,
      "hand": "right"
    },
    {
      "midi": 71,
      "time": 129.271,
      "duration": 0.104,
      "velocity": 0.71,
      "hand": "right"
    },
    {
      "midi": 56,
      "time": 129.375,
      "duration": 0.208,
      "velocity": 0.71,
      "hand": "left"
    },
    {
      "midi": 73,
      "time": 129.479,
      "duration": 0.104,
      "velocity": 0.71,
      "hand": "right"
    },
    {
      "midi": 52,
      "time": 129.583,
      "duration": 0.208,
      "velocity": 0.71,
      "hand": "left"
    },
    {
      "midi": 68,
      "time": 129.583,
      "duration": 0.104,
      "velocity": 0.71,
      "hand": "right"
    },
    {
      "midi": 71,
      "time": 129.688,
      "duration": 0.104,
      "velocity": 0.71,
      "hand": "right"
    },
    {
      "midi": 47,
      "time": 129.792,
      "duration": 0.208,
      "velocity": 0.71,
      "hand": "left"
    },
    {
      "midi": 66,
      "time": 129.896,
      "duration": 0.104,
      "velocity": 0.71,
      "hand": "right"
    },
    {
      "midi": 40,
      "time": 130,
      "duration": 0.208,
      "velocity": 0.71,
      "hand": "left"
    },
    {
      "midi": 68,
      "time": 130,
      "duration": 0.104,
      "velocity": 0.71,
      "hand": "right"
    },
    {
      "midi": 64,
      "time": 130.104,
      "duration": 0.104,
      "velocity": 0.71,
      "hand": "right"
    },
    {
      "midi": 47,
      "time": 130.208,
      "duration": 0.208,
      "velocity": 0.71,
      "hand": "left"
    },
    {
      "midi": 68,
      "time": 130.313,
      "duration": 0.104,
      "velocity": 0.71,
      "hand": "right"
    },
    {
      "midi": 52,
      "time": 130.417,
      "duration": 0.208,
      "velocity": 0.71,
      "hand": "left"
    },
    {
      "midi": 63,
      "time": 130.417,
      "duration": 0.833,
      "velocity": 0.71,
      "hand": "right"
    },
    {
      "midi": 56,
      "time": 130.625,
      "duration": 0.208,
      "velocity": 0.71,
      "hand": "left"
    },
    {
      "midi": 61,
      "time": 130.833,
      "duration": 0.208,
      "velocity": 0.71,
      "hand": "right"
    },
    {
      "midi": 56,
      "time": 131.042,
      "duration": 0.208,
      "velocity": 0.71,
      "hand": "left"
    },
    {
      "midi": 52,
      "time": 131.25,
      "duration": 0.208,
      "velocity": 0.71,
      "hand": "left"
    },
    {
      "midi": 61,
      "time": 131.25,
      "duration": 0.417,
      "velocity": 0.71,
      "hand": "right"
    },
    {
      "midi": 47,
      "time": 131.458,
      "duration": 0.208,
      "velocity": 0.71,
      "hand": "left"
    },
    {
      "midi": 42,
      "time": 131.667,
      "duration": 0.208,
      "velocity": 0.71,
      "hand": "left"
    },
    {
      "midi": 59,
      "time": 131.667,
      "duration": 0.104,
      "velocity": 0.71,
      "hand": "left"
    },
    {
      "midi": 57,
      "time": 131.771,
      "duration": 0.104,
      "velocity": 0.71,
      "hand": "left"
    },
    {
      "midi": 49,
      "time": 131.875,
      "duration": 0.208,
      "velocity": 0.71,
      "hand": "left"
    },
    {
      "midi": 59,
      "time": 131.979,
      "duration": 0.104,
      "velocity": 0.71,
      "hand": "left"
    },
    {
      "midi": 52,
      "time": 132.083,
      "duration": 0.208,
      "velocity": 0.71,
      "hand": "left"
    },
    {
      "midi": 61,
      "time": 132.083,
      "duration": 0.625,
      "velocity": 0.71,
      "hand": "right"
    },
    {
      "midi": 54,
      "time": 132.292,
      "duration": 0.208,
      "velocity": 0.71,
      "hand": "left"
    },
    {
      "midi": 57,
      "time": 132.5,
      "duration": 0.208,
      "velocity": 0.71,
      "hand": "left"
    },
    {
      "midi": 54,
      "time": 132.708,
      "duration": 0.208,
      "velocity": 0.71,
      "hand": "left"
    },
    {
      "midi": 64,
      "time": 132.708,
      "duration": 0.208,
      "velocity": 0.71,
      "hand": "right"
    },
    {
      "midi": 52,
      "time": 132.917,
      "duration": 0.208,
      "velocity": 0.71,
      "hand": "left"
    },
    {
      "midi": 63,
      "time": 132.917,
      "duration": 0.208,
      "velocity": 0.71,
      "hand": "right"
    },
    {
      "midi": 49,
      "time": 133.125,
      "duration": 0.208,
      "velocity": 0.71,
      "hand": "left"
    },
    {
      "midi": 64,
      "time": 133.125,
      "duration": 0.208,
      "velocity": 0.71,
      "hand": "right"
    },
    {
      "midi": 44,
      "time": 133.333,
      "duration": 0.208,
      "velocity": 0.71,
      "hand": "left"
    },
    {
      "midi": 61,
      "time": 133.333,
      "duration": 0.417,
      "velocity": 0.71,
      "hand": "right"
    },
    {
      "midi": 49,
      "time": 133.542,
      "duration": 0.208,
      "velocity": 0.71,
      "hand": "left"
    },
    {
      "midi": 52,
      "time": 133.75,
      "duration": 0.208,
      "velocity": 0.71,
      "hand": "left"
    },
    {
      "midi": 68,
      "time": 133.75,
      "duration": 0.833,
      "velocity": 0.71,
      "hand": "right"
    },
    {
      "midi": 56,
      "time": 133.958,
      "duration": 0.208,
      "velocity": 0.71,
      "hand": "left"
    },
    {
      "midi": 59,
      "time": 134.167,
      "duration": 0.208,
      "velocity": 0.71,
      "hand": "left"
    },
    {
      "midi": 56,
      "time": 134.375,
      "duration": 0.208,
      "velocity": 0.71,
      "hand": "left"
    },
    {
      "midi": 52,
      "time": 134.583,
      "duration": 0.208,
      "velocity": 0.71,
      "hand": "left"
    },
    {
      "midi": 64,
      "time": 134.583,
      "duration": 0.417,
      "velocity": 0.71,
      "hand": "right"
    },
    {
      "midi": 49,
      "time": 134.792,
      "duration": 0.208,
      "velocity": 0.71,
      "hand": "left"
    },
    {
      "midi": 45,
      "time": 135,
      "duration": 0.208,
      "velocity": 0.71,
      "hand": "left"
    },
    {
      "midi": 63,
      "time": 135,
      "duration": 0.104,
      "velocity": 0.71,
      "hand": "right"
    },
    {
      "midi": 61,
      "time": 135.104,
      "duration": 0.104,
      "velocity": 0.71,
      "hand": "right"
    },
    {
      "midi": 52,
      "time": 135.208,
      "duration": 0.208,
      "velocity": 0.71,
      "hand": "left"
    },
    {
      "midi": 63,
      "time": 135.313,
      "duration": 0.104,
      "velocity": 0.71,
      "hand": "right"
    },
    {
      "midi": 54,
      "time": 135.417,
      "duration": 0.208,
      "velocity": 0.71,
      "hand": "left"
    },
    {
      "midi": 64,
      "time": 135.417,
      "duration": 0.625,
      "velocity": 0.71,
      "hand": "right"
    },
    {
      "midi": 57,
      "time": 135.625,
      "duration": 0.208,
      "velocity": 0.71,
      "hand": "left"
    },
    {
      "midi": 61,
      "time": 135.833,
      "duration": 0.208,
      "velocity": 0.71,
      "hand": "right"
    },
    {
      "midi": 57,
      "time": 136.042,
      "duration": 0.208,
      "velocity": 0.71,
      "hand": "left"
    },
    {
      "midi": 68,
      "time": 136.042,
      "duration": 0.208,
      "velocity": 0.71,
      "hand": "right"
    },
    {
      "midi": 54,
      "time": 136.25,
      "duration": 0.208,
      "velocity": 0.71,
      "hand": "left"
    },
    {
      "midi": 66,
      "time": 136.25,
      "duration": 0.208,
      "velocity": 0.71,
      "hand": "right"
    },
    {
      "midi": 52,
      "time": 136.458,
      "duration": 0.208,
      "velocity": 0.71,
      "hand": "left"
    },
    {
      "midi": 68,
      "time": 136.458,
      "duration": 0.208,
      "velocity": 0.71,
      "hand": "right"
    },
    {
      "midi": 46,
      "time": 136.667,
      "duration": 0.208,
      "velocity": 0.71,
      "hand": "left"
    },
    {
      "midi": 64,
      "time": 136.667,
      "duration": 0.417,
      "velocity": 0.71,
      "hand": "right"
    },
    {
      "midi": 52,
      "time": 136.875,
      "duration": 0.208,
      "velocity": 0.71,
      "hand": "left"
    },
    {
      "midi": 56,
      "time": 137.083,
      "duration": 0.208,
      "velocity": 0.71,
      "hand": "left"
    },
    {
      "midi": 73,
      "time": 137.083,
      "duration": 0.833,
      "velocity": 0.71,
      "hand": "right"
    },
    {
      "midi": 61,
      "time": 137.292,
      "duration": 0.208,
      "velocity": 0.71,
      "hand": "right"
    },
    {
      "midi": 49,
      "time": 137.5,
      "duration": 0.208,
      "velocity": 0.71,
      "hand": "left"
    },
    {
      "midi": 54,
      "time": 137.708,
      "duration": 0.208,
      "velocity": 0.71,
      "hand": "left"
    },
    {
      "midi": 58,
      "time": 137.917,
      "duration": 0.208,
      "velocity": 0.71,
      "hand": "left"
    },
    {
      "midi": 70,
      "time": 137.917,
      "duration": 0.104,
      "velocity": 0.71,
      "hand": "right"
    },
    {
      "midi": 73,
      "time": 138.021,
      "duration": 0.104,
      "velocity": 0.71,
      "hand": "right"
    },
    {
      "midi": 64,
      "time": 138.125,
      "duration": 0.208,
      "velocity": 0.71,
      "hand": "right"
    },
    {
      "midi": 70,
      "time": 138.229,
      "duration": 0.104,
      "velocity": 0.71,
      "hand": "right"
    },
    {
      "midi": 52,
      "time": 138.333,
      "duration": 0.208,
      "velocity": 0.71,
      "hand": "left"
    },
    {
      "midi": 68,
      "time": 138.333,
      "duration": 0.417,
      "velocity": 0.71,
      "hand": "right"
    },
    {
      "midi": 58,
      "time": 138.542,
      "duration": 0.208,
      "velocity": 0.71,
      "hand": "left"
    },
    {
      "midi": 61,
      "time": 138.75,
      "duration": 0.208,
      "velocity": 0.71,
      "hand": "right"
    },
    {
      "midi": 76,
      "time": 138.75,
      "duration": 0.833,
      "velocity": 0.71,
      "hand": "right"
    },
    {
      "midi": 68,
      "time": 138.958,
      "duration": 0.208,
      "velocity": 0.71,
      "hand": "right"
    },
    {
      "midi": 54,
      "time": 139.167,
      "duration": 0.208,
      "velocity": 0.71,
      "hand": "left"
    },
    {
      "midi": 61,
      "time": 139.375,
      "duration": 0.208,
      "velocity": 0.71,
      "hand": "right"
    },
    {
      "midi": 64,
      "time": 139.583,
      "duration": 0.208,
      "velocity": 0.71,
      "hand": "right"
    },
    {
      "midi": 73,
      "time": 139.583,
      "duration": 0.104,
      "velocity": 0.71,
      "hand": "right"
    },
    {
      "midi": 76,
      "time": 139.688,
      "duration": 0.104,
      "velocity": 0.71,
      "hand": "right"
    },
    {
      "midi": 70,
      "time": 139.792,
      "duration": 0.208,
      "velocity": 0.71,
      "hand": "right"
    },
    {
      "midi": 73,
      "time": 139.896,
      "duration": 0.104,
      "velocity": 0.71,
      "hand": "right"
    },
    {
      "midi": 58,
      "time": 140,
      "duration": 0.208,
      "velocity": 0.71,
      "hand": "left"
    },
    {
      "midi": 80,
      "time": 140,
      "duration": 0.625,
      "velocity": 0.71,
      "hand": "right"
    },
    {
      "midi": 64,
      "time": 140.208,
      "duration": 0.208,
      "velocity": 0.71,
      "hand": "right"
    },
    {
      "midi": 68,
      "time": 140.417,
      "duration": 0.208,
      "velocity": 0.71,
      "hand": "right"
    },
    {
      "midi": 73,
      "time": 140.625,
      "duration": 0.208,
      "velocity": 0.71,
      "hand": "right"
    },
    {
      "midi": 78,
      "time": 140.625,
      "duration": 0.208,
      "velocity": 0.71,
      "hand": "right"
    },
    {
      "midi": 61,
      "time": 140.833,
      "duration": 0.208,
      "velocity": 0.71,
      "hand": "right"
    },
    {
      "midi": 80,
      "time": 140.833,
      "duration": 0.625,
      "velocity": 0.71,
      "hand": "right"
    },
    {
      "midi": 66,
      "time": 141.042,
      "duration": 0.208,
      "velocity": 0.71,
      "hand": "right"
    },
    {
      "midi": 70,
      "time": 141.25,
      "duration": 0.208,
      "velocity": 0.71,
      "hand": "right"
    },
    {
      "midi": 76,
      "time": 141.458,
      "duration": 0.208,
      "velocity": 0.71,
      "hand": "right"
    },
    {
      "midi": 78,
      "time": 141.458,
      "duration": 0.208,
      "velocity": 0.71,
      "hand": "right"
    },
    {
      "midi": 58,
      "time": 141.667,
      "duration": 0.208,
      "velocity": 0.71,
      "hand": "left"
    },
    {
      "midi": 80,
      "time": 141.667,
      "duration": 0.625,
      "velocity": 0.71,
      "hand": "right"
    },
    {
      "midi": 64,
      "time": 141.875,
      "duration": 0.208,
      "velocity": 0.71,
      "hand": "right"
    },
    {
      "midi": 68,
      "time": 142.083,
      "duration": 0.208,
      "velocity": 0.71,
      "hand": "right"
    },
    {
      "midi": 73,
      "time": 142.292,
      "duration": 0.208,
      "velocity": 0.71,
      "hand": "right"
    },
    {
      "midi": 78,
      "time": 142.292,
      "duration": 0.208,
      "velocity": 0.71,
      "hand": "right"
    },
    {
      "midi": 61,
      "time": 142.5,
      "duration": 0.208,
      "velocity": 0.71,
      "hand": "right"
    },
    {
      "midi": 80,
      "time": 142.5,
      "duration": 0.208,
      "velocity": 0.71,
      "hand": "right"
    },
    {
      "midi": 66,
      "time": 142.708,
      "duration": 0.208,
      "velocity": 0.71,
      "hand": "right"
    },
    {
      "midi": 78,
      "time": 142.708,
      "duration": 0.417,
      "velocity": 0.71,
      "hand": "right"
    },
    {
      "midi": 70,
      "time": 142.917,
      "duration": 0.208,
      "velocity": 0.71,
      "hand": "right"
    },
    {
      "midi": 76,
      "time": 143.125,
      "duration": 0.208,
      "velocity": 0.71,
      "hand": "right"
    },
    {
      "midi": 80,
      "time": 143.125,
      "duration": 0.208,
      "velocity": 0.71,
      "hand": "right"
    },
    {
      "midi": 61,
      "time": 143.333,
      "duration": 0.104,
      "velocity": 0.71,
      "hand": "right"
    },
    {
      "midi": 81,
      "time": 143.333,
      "duration": 0.833,
      "velocity": 0.71,
      "hand": "right"
    },
    {
      "midi": 64,
      "time": 143.438,
      "duration": 0.104,
      "velocity": 0.71,
      "hand": "right"
    },
    {
      "midi": 69,
      "time": 143.646,
      "duration": 0.104,
      "velocity": 0.71,
      "hand": "right"
    },
    {
      "midi": 73,
      "time": 143.75,
      "duration": 0.104,
      "velocity": 0.71,
      "hand": "right"
    },
    {
      "midi": 76,
      "time": 143.854,
      "duration": 0.104,
      "velocity": 0.71,
      "hand": "right"
    },
    {
      "midi": 78,
      "time": 144.063,
      "duration": 0.104,
      "velocity": 0.71,
      "hand": "right"
    },
    {
      "midi": 80,
      "time": 144.167,
      "duration": 0.833,
      "velocity": 0.71,
      "hand": "right"
    },
    {
      "midi": 75,
      "time": 144.271,
      "duration": 0.104,
      "velocity": 0.71,
      "hand": "right"
    },
    {
      "midi": 71,
      "time": 144.479,
      "duration": 0.104,
      "velocity": 0.71,
      "hand": "right"
    },
    {
      "midi": 68,
      "time": 144.583,
      "duration": 0.104,
      "velocity": 0.71,
      "hand": "right"
    },
    {
      "midi": 63,
      "time": 144.688,
      "duration": 0.104,
      "velocity": 0.71,
      "hand": "right"
    },
    {
      "midi": 59,
      "time": 144.896,
      "duration": 0.104,
      "velocity": 0.71,
      "hand": "left"
    },
    {
      "midi": 57,
      "time": 145,
      "duration": 0.104,
      "velocity": 0.71,
      "hand": "left"
    },
    {
      "midi": 78,
      "time": 145,
      "duration": 0.833,
      "velocity": 0.71,
      "hand": "right"
    },
    {
      "midi": 61,
      "time": 145.104,
      "duration": 0.104,
      "velocity": 0.71,
      "hand": "right"
    },
    {
      "midi": 66,
      "time": 145.313,
      "duration": 0.104,
      "velocity": 0.71,
      "hand": "right"
    },
    {
      "midi": 69,
      "time": 145.417,
      "duration": 0.104,
      "velocity": 0.71,
      "hand": "right"
    },
    {
      "midi": 73,
      "time": 145.521,
      "duration": 0.104,
      "velocity": 0.71,
      "hand": "right"
    },
    {
      "midi": 75,
      "time": 145.729,
      "duration": 0.104,
      "velocity": 0.71,
      "hand": "right"
    },
    {
      "midi": 76,
      "time": 145.833,
      "duration": 0.833,
      "velocity": 0.71,
      "hand": "right"
    },
    {
      "midi": 71,
      "time": 145.938,
      "duration": 0.104,
      "velocity": 0.71,
      "hand": "right"
    },
    {
      "midi": 68,
      "time": 146.146,
      "duration": 0.104,
      "velocity": 0.71,
      "hand": "right"
    },
    {
      "midi": 64,
      "time": 146.25,
      "duration": 0.104,
      "velocity": 0.71,
      "hand": "right"
    },
    {
      "midi": 59,
      "time": 146.354,
      "duration": 0.104,
      "velocity": 0.71,
      "hand": "left"
    },
    {
      "midi": 56,
      "time": 146.563,
      "duration": 0.104,
      "velocity": 0.71,
      "hand": "left"
    },
    {
      "midi": 61,
      "time": 146.667,
      "duration": 0.833,
      "velocity": 0.71,
      "hand": "right"
    },
    {
      "midi": 81,
      "time": 146.667,
      "duration": 0.417,
      "velocity": 0.71,
      "hand": "right"
    },
    {
      "midi": 64,
      "time": 146.771,
      "duration": 0.104,
      "velocity": 0.71,
      "hand": "right"
    },
    {
      "midi": 69,
      "time": 146.979,
      "duration": 0.104,
      "velocity": 0.71,
      "hand": "right"
    },
    {
      "midi": 73,
      "time": 147.083,
      "duration": 0.104,
      "velocity": 0.71,
      "hand": "right"
    },
    {
      "midi": 76,
      "time": 147.083,
      "duration": 0.417,
      "velocity": 0.71,
      "hand": "right"
    },
    {
      "midi": 83,
      "time": 147.083,
      "duration": 0.208,
      "velocity": 0.71,
      "hand": "right"
    },
    {
      "midi": 69,
      "time": 147.188,
      "duration": 0.104,
      "velocity": 0.71,
      "hand": "right"
    },
    {
      "midi": 85,
      "time": 147.292,
      "duration": 0.208,
      "velocity": 0.71,
      "hand": "right"
    },
    {
      "midi": 64,
      "time": 147.396,
      "duration": 0.104,
      "velocity": 0.71,
      "hand": "right"
    },
    {
      "midi": 59,
      "time": 147.5,
      "duration": 0.833,
      "velocity": 0.71,
      "hand": "left"
    },
    {
      "midi": 81,
      "time": 147.5,
      "duration": 0.208,
      "velocity": 0.71,
      "hand": "right"
    },
    {
      "midi": 63,
      "time": 147.604,
      "duration": 0.104,
      "velocity": 0.71,
      "hand": "right"
    },
    {
      "midi": 80,
      "time": 147.708,
      "duration": 0.208,
      "velocity": 0.71,
      "hand": "right"
    },
    {
      "midi": 68,
      "time": 147.813,
      "duration": 0.104,
      "velocity": 0.71,
      "hand": "right"
    },
    {
      "midi": 71,
      "time": 147.917,
      "duration": 0.104,
      "velocity": 0.71,
      "hand": "right"
    },
    {
      "midi": 75,
      "time": 147.917,
      "duration": 0.417,
      "velocity": 0.71,
      "hand": "right"
    },
    {
      "midi": 81,
      "time": 147.917,
      "duration": 0.208,
      "velocity": 0.71,
      "hand": "right"
    },
    {
      "midi": 68,
      "time": 148.021,
      "duration": 0.104,
      "velocity": 0.71,
      "hand": "right"
    },
    {
      "midi": 80,
      "time": 148.125,
      "duration": 0.625,
      "velocity": 0.71,
      "hand": "right"
    },
    {
      "midi": 63,
      "time": 148.229,
      "duration": 0.104,
      "velocity": 0.71,
      "hand": "right"
    },
    {
      "midi": 57,
      "time": 148.333,
      "duration": 0.833,
      "velocity": 0.71,
      "hand": "left"
    },
    {
      "midi": 73,
      "time": 148.333,
      "duration": 0.833,
      "velocity": 0.71,
      "hand": "right"
    },
    {
      "midi": 61,
      "time": 148.438,
      "duration": 0.104,
      "velocity": 0.71,
      "hand": "right"
    },
    {
      "midi": 66,
      "time": 148.646,
      "duration": 0.104,
      "velocity": 0.71,
      "hand": "right"
    },
    {
      "midi": 69,
      "time": 148.75,
      "duration": 0.104,
      "velocity": 0.71,
      "hand": "right"
    },
    {
      "midi": 78,
      "time": 148.75,
      "duration": 0.833,
      "velocity": 0.71,
      "hand": "right"
    },
    {
      "midi": 66,
      "time": 148.854,
      "duration": 0.104,
      "velocity": 0.71,
      "hand": "right"
    },
    {
      "midi": 61,
      "time": 149.063,
      "duration": 0.104,
      "velocity": 0.71,
      "hand": "right"
    },
    {
      "midi": 56,
      "time": 149.167,
      "duration": 0.833,
      "velocity": 0.71,
      "hand": "left"
    },
    {
      "midi": 71,
      "time": 149.167,
      "duration": 0.833,
      "velocity": 0.71,
      "hand": "right"
    },
    {
      "midi": 59,
      "time": 149.271,
      "duration": 0.104,
      "velocity": 0.71,
      "hand": "left"
    },
    {
      "midi": 64,
      "time": 149.479,
      "duration": 0.104,
      "velocity": 0.71,
      "hand": "right"
    },
    {
      "midi": 68,
      "time": 149.583,
      "duration": 0.104,
      "velocity": 0.71,
      "hand": "right"
    },
    {
      "midi": 76,
      "time": 149.583,
      "duration": 0.625,
      "velocity": 0.71,
      "hand": "right"
    },
    {
      "midi": 64,
      "time": 149.688,
      "duration": 0.104,
      "velocity": 0.71,
      "hand": "right"
    },
    {
      "midi": 59,
      "time": 149.896,
      "duration": 0.104,
      "velocity": 0.71,
      "hand": "left"
    },
    {
      "midi": 54,
      "time": 150,
      "duration": 0.833,
      "velocity": 0.71,
      "hand": "left"
    },
    {
      "midi": 57,
      "time": 150.104,
      "duration": 0.104,
      "velocity": 0.71,
      "hand": "left"
    },
    {
      "midi": 74,
      "time": 150.208,
      "duration": 0.208,
      "velocity": 0.71,
      "hand": "right"
    },
    {
      "midi": 62,
      "time": 150.313,
      "duration": 0.104,
      "velocity": 0.71,
      "hand": "right"
    },
    {
      "midi": 66,
      "time": 150.417,
      "duration": 0.104,
      "velocity": 0.71,
      "hand": "right"
    },
    {
      "midi": 69,
      "time": 150.417,
      "duration": 0.417,
      "velocity": 0.71,
      "hand": "right"
    },
    {
      "midi": 76,
      "time": 150.417,
      "duration": 0.208,
      "velocity": 0.71,
      "hand": "right"
    },
    {
      "midi": 62,
      "time": 150.521,
      "duration": 0.104,
      "velocity": 0.71,
      "hand": "right"
    },
    {
      "midi": 78,
      "time": 150.625,
      "duration": 0.208,
      "velocity": 0.71,
      "hand": "right"
    },
    {
      "midi": 57,
      "time": 150.729,
      "duration": 0.104,
      "velocity": 0.71,
      "hand": "left"
    },
    {
      "midi": 52,
      "time": 150.833,
      "duration": 0.833,
      "velocity": 0.71,
      "hand": "left"
    },
    {
      "midi": 74,
      "time": 150.833,
      "duration": 0.208,
      "velocity": 0.71,
      "hand": "right"
    },
    {
      "midi": 56,
      "time": 150.938,
      "duration": 0.104,
      "velocity": 0.71,
      "hand": "left"
    },
    {
      "midi": 73,
      "time": 151.042,
      "duration": 0.208,
      "velocity": 0.71,
      "hand": "right"
    },
    {
      "midi": 61,
      "time": 151.146,
      "duration": 0.104,
      "velocity": 0.71,
      "hand": "right"
    },
    {
      "midi": 64,
      "time": 151.25,
      "duration": 0.104,
      "velocity": 0.71,
      "hand": "right"
    },
    {
      "midi": 68,
      "time": 151.25,
      "duration": 0.417,
      "velocity": 0.71,
      "hand": "right"
    },
    {
      "midi": 74,
      "time": 151.25,
      "duration": 0.208,
      "velocity": 0.71,
      "hand": "right"
    },
    {
      "midi": 61,
      "time": 151.354,
      "duration": 0.104,
      "velocity": 0.71,
      "hand": "right"
    },
    {
      "midi": 73,
      "time": 151.458,
      "duration": 0.625,
      "velocity": 0.71,
      "hand": "right"
    },
    {
      "midi": 56,
      "time": 151.563,
      "duration": 0.104,
      "velocity": 0.71,
      "hand": "left"
    },
    {
      "midi": 50,
      "time": 151.667,
      "duration": 0.833,
      "velocity": 0.71,
      "hand": "left"
    },
    {
      "midi": 66,
      "time": 151.667,
      "duration": 0.833,
      "velocity": 0.71,
      "hand": "right"
    },
    {
      "midi": 54,
      "time": 151.771,
      "duration": 0.104,
      "velocity": 0.71,
      "hand": "left"
    },
    {
      "midi": 59,
      "time": 151.979,
      "duration": 0.104,
      "velocity": 0.71,
      "hand": "left"
    },
    {
      "midi": 62,
      "time": 152.083,
      "duration": 0.104,
      "velocity": 0.71,
      "hand": "right"
    },
    {
      "midi": 71,
      "time": 152.083,
      "duration": 0.833,
      "velocity": 0.71,
      "hand": "right"
    },
    {
      "midi": 59,
      "time": 152.188,
      "duration": 0.104,
      "velocity": 0.71,
      "hand": "left"
    },
    {
      "midi": 54,
      "time": 152.396,
      "duration": 0.104,
      "velocity": 0.71,
      "hand": "left"
    },
    {
      "midi": 49,
      "time": 152.5,
      "duration": 0.833,
      "velocity": 0.71,
      "hand": "left"
    },
    {
      "midi": 64,
      "time": 152.5,
      "duration": 0.833,
      "velocity": 0.71,
      "hand": "right"
    },
    {
      "midi": 52,
      "time": 152.604,
      "duration": 0.104,
      "velocity": 0.71,
      "hand": "left"
    },
    {
      "midi": 57,
      "time": 152.813,
      "duration": 0.104,
      "velocity": 0.71,
      "hand": "left"
    },
    {
      "midi": 61,
      "time": 152.917,
      "duration": 0.104,
      "velocity": 0.71,
      "hand": "right"
    },
    {
      "midi": 69,
      "time": 152.917,
      "duration": 0.625,
      "velocity": 0.71,
      "hand": "right"
    },
    {
      "midi": 57,
      "time": 153.021,
      "duration": 0.104,
      "velocity": 0.71,
      "hand": "left"
    },
    {
      "midi": 52,
      "time": 153.229,
      "duration": 0.104,
      "velocity": 0.71,
      "hand": "left"
    },
    {
      "midi": 47,
      "time": 153.333,
      "duration": 0.833,
      "velocity": 0.71,
      "hand": "left"
    },
    {
      "midi": 62,
      "time": 153.333,
      "duration": 0.833,
      "velocity": 0.71,
      "hand": "right"
    },
    {
      "midi": 53,
      "time": 153.438,
      "duration": 0.104,
      "velocity": 0.71,
      "hand": "left"
    },
    {
      "midi": 68,
      "time": 153.542,
      "duration": 0.208,
      "velocity": 0.71,
      "hand": "right"
    },
    {
      "midi": 56,
      "time": 153.646,
      "duration": 0.104,
      "velocity": 0.71,
      "hand": "left"
    },
    {
      "midi": 59,
      "time": 153.75,
      "duration": 0.104,
      "velocity": 0.71,
      "hand": "left"
    },
    {
      "midi": 69,
      "time": 153.75,
      "duration": 0.208,
      "velocity": 0.71,
      "hand": "right"
    },
    {
      "midi": 56,
      "time": 153.854,
      "duration": 0.104,
      "velocity": 0.71,
      "hand": "left"
    },
    {
      "midi": 68,
      "time": 153.958,
      "duration": 0.208,
      "velocity": 0.71,
      "hand": "right"
    },
    {
      "midi": 53,
      "time": 154.063,
      "duration": 0.104,
      "velocity": 0.71,
      "hand": "left"
    },
    {
      "midi": 45,
      "time": 154.167,
      "duration": 0.833,
      "velocity": 0.71,
      "hand": "left"
    },
    {
      "midi": 61,
      "time": 154.167,
      "duration": 0.833,
      "velocity": 0.71,
      "hand": "right"
    },
    {
      "midi": 73,
      "time": 154.167,
      "duration": 0.208,
      "velocity": 0.71,
      "hand": "right"
    },
    {
      "midi": 49,
      "time": 154.271,
      "duration": 0.104,
      "velocity": 0.71,
      "hand": "left"
    },
    {
      "midi": 69,
      "time": 154.375,
      "duration": 0.208,
      "velocity": 0.71,
      "hand": "right"
    },
    {
      "midi": 54,
      "time": 154.479,
      "duration": 0.104,
      "velocity": 0.71,
      "hand": "left"
    },
    {
      "midi": 57,
      "time": 154.583,
      "duration": 0.104,
      "velocity": 0.71,
      "hand": "left"
    },
    {
      "midi": 66,
      "time": 154.583,
      "duration": 0.625,
      "velocity": 0.71,
      "hand": "right"
    },
    {
      "midi": 54,
      "time": 154.688,
      "duration": 0.104,
      "velocity": 0.71,
      "hand": "left"
    },
    {
      "midi": 49,
      "time": 154.896,
      "duration": 0.104,
      "velocity": 0.71,
      "hand": "left"
    },
    {
      "midi": 44,
      "time": 155,
      "duration": 0.833,
      "velocity": 0.71,
      "hand": "left"
    },
    {
      "midi": 59,
      "time": 155,
      "duration": 0.833,
      "velocity": 0.71,
      "hand": "left"
    },
    {
      "midi": 47,
      "time": 155.104,
      "duration": 0.104,
      "velocity": 0.71,
      "hand": "left"
    },
    {
      "midi": 64,
      "time": 155.208,
      "duration": 0.208,
      "velocity": 0.71,
      "hand": "right"
    },
    {
      "midi": 52,
      "time": 155.313,
      "duration": 0.104,
      "velocity": 0.71,
      "hand": "left"
    },
    {
      "midi": 56,
      "time": 155.417,
      "duration": 0.104,
      "velocity": 0.71,
      "hand": "left"
    },
    {
      "midi": 66,
      "time": 155.417,
      "duration": 0.208,
      "velocity": 0.71,
      "hand": "right"
    },
    {
      "midi": 52,
      "time": 155.521,
      "duration": 0.104,
      "velocity": 0.71,
      "hand": "left"
    },
    {
      "midi": 64,
      "time": 155.625,
      "duration": 0.208,
      "velocity": 0.71,
      "hand": "right"
    },
    {
      "midi": 47,
      "time": 155.729,
      "duration": 0.104,
      "velocity": 0.71,
      "hand": "left"
    },
    {
      "midi": 42,
      "time": 155.833,
      "duration": 0.104,
      "velocity": 0.71,
      "hand": "left"
    },
    {
      "midi": 69,
      "time": 155.833,
      "duration": 3.333,
      "velocity": 0.71,
      "hand": "right"
    },
    {
      "midi": 49,
      "time": 155.938,
      "duration": 0.104,
      "velocity": 0.71,
      "hand": "left"
    },
    {
      "midi": 52,
      "time": 156.146,
      "duration": 0.104,
      "velocity": 0.71,
      "hand": "left"
    },
    {
      "midi": 54,
      "time": 156.25,
      "duration": 0.104,
      "velocity": 0.71,
      "hand": "left"
    },
    {
      "midi": 57,
      "time": 156.354,
      "duration": 0.104,
      "velocity": 0.71,
      "hand": "left"
    },
    {
      "midi": 59,
      "time": 156.563,
      "duration": 0.104,
      "velocity": 0.71,
      "hand": "left"
    },
    {
      "midi": 61,
      "time": 156.667,
      "duration": 0.104,
      "velocity": 0.71,
      "hand": "right"
    },
    {
      "midi": 64,
      "time": 156.771,
      "duration": 0.104,
      "velocity": 0.71,
      "hand": "right"
    },
    {
      "midi": 71,
      "time": 157.083,
      "duration": 0.104,
      "velocity": 0.71,
      "hand": "right"
    },
    {
      "midi": 73,
      "time": 157.188,
      "duration": 0.104,
      "velocity": 0.71,
      "hand": "right"
    },
    {
      "midi": 76,
      "time": 157.396,
      "duration": 0.104,
      "velocity": 0.71,
      "hand": "right"
    },
    {
      "midi": 81,
      "time": 157.5,
      "duration": 0.104,
      "velocity": 0.71,
      "hand": "right"
    },
    {
      "midi": 83,
      "time": 157.604,
      "duration": 0.104,
      "velocity": 0.71,
      "hand": "right"
    },
    {
      "midi": 85,
      "time": 157.813,
      "duration": 0.104,
      "velocity": 0.71,
      "hand": "right"
    },
    {
      "midi": 88,
      "time": 157.917,
      "duration": 0.104,
      "velocity": 0.71,
      "hand": "right"
    },
    {
      "midi": 85,
      "time": 158.021,
      "duration": 0.104,
      "velocity": 0.71,
      "hand": "right"
    },
    {
      "midi": 83,
      "time": 158.229,
      "duration": 0.104,
      "velocity": 0.71,
      "hand": "right"
    },
    {
      "midi": 81,
      "time": 158.333,
      "duration": 0.104,
      "velocity": 0.71,
      "hand": "right"
    },
    {
      "midi": 76,
      "time": 158.438,
      "duration": 0.104,
      "velocity": 0.71,
      "hand": "right"
    },
    {
      "midi": 73,
      "time": 158.646,
      "duration": 0.104,
      "velocity": 0.71,
      "hand": "right"
    },
    {
      "midi": 71,
      "time": 158.75,
      "duration": 0.104,
      "velocity": 0.71,
      "hand": "right"
    },
    {
      "midi": 64,
      "time": 159.063,
      "duration": 0.104,
      "velocity": 0.71,
      "hand": "right"
    },
    {
      "midi": 35,
      "time": 159.167,
      "duration": 0.104,
      "velocity": 0.71,
      "hand": "left"
    },
    {
      "midi": 68,
      "time": 159.167,
      "duration": 1.667,
      "velocity": 0.71,
      "hand": "right"
    },
    {
      "midi": 47,
      "time": 159.271,
      "duration": 0.104,
      "velocity": 0.71,
      "hand": "left"
    },
    {
      "midi": 51,
      "time": 159.479,
      "duration": 0.104,
      "velocity": 0.71,
      "hand": "left"
    },
    {
      "midi": 56,
      "time": 159.583,
      "duration": 0.104,
      "velocity": 0.71,
      "hand": "left"
    },
    {
      "midi": 59,
      "time": 159.688,
      "duration": 0.104,
      "velocity": 0.71,
      "hand": "left"
    },
    {
      "midi": 63,
      "time": 159.896,
      "duration": 0.104,
      "velocity": 0.71,
      "hand": "right"
    },
    {
      "midi": 71,
      "time": 160.104,
      "duration": 0.104,
      "velocity": 0.71,
      "hand": "right"
    },
    {
      "midi": 75,
      "time": 160.313,
      "duration": 0.104,
      "velocity": 0.71,
      "hand": "right"
    },
    {
      "midi": 80,
      "time": 160.417,
      "duration": 0.104,
      "velocity": 0.71,
      "hand": "right"
    },
    {
      "midi": 83,
      "time": 160.521,
      "duration": 0.104,
      "velocity": 0.71,
      "hand": "right"
    },
    {
      "midi": 71,
      "time": 160.729,
      "duration": 0.104,
      "velocity": 0.71,
      "hand": "right"
    },
    {
      "midi": 35,
      "time": 160.833,
      "duration": 0.104,
      "velocity": 0.71,
      "hand": "left"
    },
    {
      "midi": 66,
      "time": 160.833,
      "duration": 1.667,
      "velocity": 0.71,
      "hand": "right"
    },
    {
      "midi": 47,
      "time": 160.938,
      "duration": 0.104,
      "velocity": 0.71,
      "hand": "left"
    },
    {
      "midi": 51,
      "time": 161.146,
      "duration": 0.104,
      "velocity": 0.71,
      "hand": "left"
    },
    {
      "midi": 57,
      "time": 161.25,
      "duration": 0.104,
      "velocity": 0.71,
      "hand": "left"
    },
    {
      "midi": 59,
      "time": 161.354,
      "duration": 0.104,
      "velocity": 0.71,
      "hand": "left"
    },
    {
      "midi": 63,
      "time": 161.563,
      "duration": 0.104,
      "velocity": 0.71,
      "hand": "right"
    },
    {
      "midi": 69,
      "time": 161.667,
      "duration": 0.104,
      "velocity": 0.71,
      "hand": "right"
    },
    {
      "midi": 71,
      "time": 161.771,
      "duration": 0.104,
      "velocity": 0.71,
      "hand": "right"
    },
    {
      "midi": 75,
      "time": 161.979,
      "duration": 0.104,
      "velocity": 0.71,
      "hand": "right"
    },
    {
      "midi": 81,
      "time": 162.083,
      "duration": 0.104,
      "velocity": 0.71,
      "hand": "right"
    },
    {
      "midi": 83,
      "time": 162.188,
      "duration": 0.104,
      "velocity": 0.71,
      "hand": "right"
    },
    {
      "midi": 71,
      "time": 162.396,
      "duration": 0.104,
      "velocity": 0.71,
      "hand": "right"
    },
    {
      "midi": 40,
      "time": 162.5,
      "duration": 0.208,
      "velocity": 0.71,
      "hand": "left"
    },
    {
      "midi": 64,
      "time": 162.5,
      "duration": 0.417,
      "velocity": 0.71,
      "hand": "right"
    },
    {
      "midi": 47,
      "time": 162.708,
      "duration": 0.208,
      "velocity": 0.71,
      "hand": "left"
    },
    {
      "midi": 52,
      "time": 162.917,
      "duration": 0.208,
      "velocity": 0.71,
      "hand": "left"
    },
    {
      "midi": 88,
      "time": 162.917,
      "duration": 0.104,
      "velocity": 0.71,
      "hand": "right"
    },
    {
      "midi": 90,
      "time": 163.021,
      "duration": 0.104,
      "velocity": 0.71,
      "hand": "right"
    },
    {
      "midi": 56,
      "time": 163.125,
      "duration": 0.208,
      "velocity": 0.71,
      "hand": "left"
    },
    {
      "midi": 85,
      "time": 163.229,
      "duration": 0.104,
      "velocity": 0.71,
      "hand": "right"
    },
    {
      "midi": 59,
      "time": 163.333,
      "duration": 0.208,
      "velocity": 0.71,
      "hand": "left"
    },
    {
      "midi": 88,
      "time": 163.333,
      "duration": 0.104,
      "velocity": 0.71,
      "hand": "right"
    },
    {
      "midi": 83,
      "time": 163.438,
      "duration": 0.104,
      "velocity": 0.71,
      "hand": "right"
    },
    {
      "midi": 56,
      "time": 163.542,
      "duration": 0.208,
      "velocity": 0.71,
      "hand": "left"
    },
    {
      "midi": 85,
      "time": 163.646,
      "duration": 0.104,
      "velocity": 0.71,
      "hand": "right"
    },
    {
      "midi": 52,
      "time": 163.75,
      "duration": 0.208,
      "velocity": 0.71,
      "hand": "left"
    },
    {
      "midi": 80,
      "time": 163.75,
      "duration": 0.104,
      "velocity": 0.71,
      "hand": "right"
    },
    {
      "midi": 83,
      "time": 163.854,
      "duration": 0.104,
      "velocity": 0.71,
      "hand": "right"
    },
    {
      "midi": 59,
      "time": 163.958,
      "duration": 0.208,
      "velocity": 0.71,
      "hand": "left"
    },
    {
      "midi": 78,
      "time": 164.063,
      "duration": 0.104,
      "velocity": 0.71,
      "hand": "right"
    },
    {
      "midi": 40,
      "time": 164.167,
      "duration": 0.208,
      "velocity": 0.71,
      "hand": "left"
    },
    {
      "midi": 80,
      "time": 164.167,
      "duration": 0.104,
      "velocity": 0.71,
      "hand": "right"
    },
    {
      "midi": 76,
      "time": 164.271,
      "duration": 0.104,
      "velocity": 0.71,
      "hand": "right"
    },
    {
      "midi": 49,
      "time": 164.375,
      "duration": 0.208,
      "velocity": 0.71,
      "hand": "left"
    },
    {
      "midi": 80,
      "time": 164.479,
      "duration": 0.104,
      "velocity": 0.71,
      "hand": "right"
    },
    {
      "midi": 52,
      "time": 164.583,
      "duration": 0.208,
      "velocity": 0.71,
      "hand": "left"
    },
    {
      "midi": 75,
      "time": 164.583,
      "duration": 0.833,
      "velocity": 0.71,
      "hand": "right"
    },
    {
      "midi": 56,
      "time": 164.792,
      "duration": 0.208,
      "velocity": 0.71,
      "hand": "left"
    },
    {
      "midi": 61,
      "time": 165,
      "duration": 0.208,
      "velocity": 0.71,
      "hand": "right"
    },
    {
      "midi": 56,
      "time": 165.208,
      "duration": 0.208,
      "velocity": 0.71,
      "hand": "left"
    },
    {
      "midi": 52,
      "time": 165.417,
      "duration": 0.208,
      "velocity": 0.71,
      "hand": "left"
    },
    {
      "midi": 73,
      "time": 165.417,
      "duration": 0.417,
      "velocity": 0.71,
      "hand": "right"
    },
    {
      "midi": 49,
      "time": 165.625,
      "duration": 0.208,
      "velocity": 0.71,
      "hand": "left"
    },
    {
      "midi": 40,
      "time": 165.833,
      "duration": 0.208,
      "velocity": 0.71,
      "hand": "left"
    },
    {
      "midi": 71,
      "time": 165.833,
      "duration": 0.417,
      "velocity": 0.71,
      "hand": "right"
    },
    {
      "midi": 47,
      "time": 166.042,
      "duration": 0.208,
      "velocity": 0.71,
      "hand": "left"
    },
    {
      "midi": 52,
      "time": 166.25,
      "duration": 0.208,
      "velocity": 0.71,
      "hand": "left"
    },
    {
      "midi": 76,
      "time": 166.25,
      "duration": 0.104,
      "velocity": 0.71,
      "hand": "right"
    },
    {
      "midi": 78,
      "time": 166.354,
      "duration": 0.104,
      "velocity": 0.71,
      "hand": "right"
    },
    {
      "midi": 56,
      "time": 166.458,
      "duration": 0.208,
      "velocity": 0.71,
      "hand": "left"
    },
    {
      "midi": 73,
      "time": 166.563,
      "duration": 0.104,
      "velocity": 0.71,
      "hand": "right"
    },
    {
      "midi": 59,
      "time": 166.667,
      "duration": 0.208,
      "velocity": 0.71,
      "hand": "left"
    },
    {
      "midi": 76,
      "time": 166.667,
      "duration": 0.104,
      "velocity": 0.71,
      "hand": "right"
    },
    {
      "midi": 71,
      "time": 166.771,
      "duration": 0.104,
      "velocity": 0.71,
      "hand": "right"
    },
    {
      "midi": 56,
      "time": 166.875,
      "duration": 0.208,
      "velocity": 0.71,
      "hand": "left"
    },
    {
      "midi": 73,
      "time": 166.979,
      "duration": 0.104,
      "velocity": 0.71,
      "hand": "right"
    },
    {
      "midi": 52,
      "time": 167.083,
      "duration": 0.208,
      "velocity": 0.71,
      "hand": "left"
    },
    {
      "midi": 68,
      "time": 167.083,
      "duration": 0.104,
      "velocity": 0.71,
      "hand": "right"
    },
    {
      "midi": 71,
      "time": 167.188,
      "duration": 0.104,
      "velocity": 0.71,
      "hand": "right"
    },
    {
      "midi": 59,
      "time": 167.292,
      "duration": 0.208,
      "velocity": 0.71,
      "hand": "left"
    },
    {
      "midi": 66,
      "time": 167.396,
      "duration": 0.104,
      "velocity": 0.71,
      "hand": "right"
    },
    {
      "midi": 40,
      "time": 167.5,
      "duration": 0.208,
      "velocity": 0.71,
      "hand": "left"
    },
    {
      "midi": 68,
      "time": 167.5,
      "duration": 0.104,
      "velocity": 0.71,
      "hand": "right"
    },
    {
      "midi": 64,
      "time": 167.604,
      "duration": 0.104,
      "velocity": 0.71,
      "hand": "right"
    },
    {
      "midi": 49,
      "time": 167.708,
      "duration": 0.208,
      "velocity": 0.71,
      "hand": "left"
    },
    {
      "midi": 68,
      "time": 167.813,
      "duration": 0.104,
      "velocity": 0.71,
      "hand": "right"
    },
    {
      "midi": 52,
      "time": 167.917,
      "duration": 0.208,
      "velocity": 0.71,
      "hand": "left"
    },
    {
      "midi": 63,
      "time": 167.917,
      "duration": 0.833,
      "velocity": 0.71,
      "hand": "right"
    },
    {
      "midi": 56,
      "time": 168.125,
      "duration": 0.208,
      "velocity": 0.71,
      "hand": "left"
    },
    {
      "midi": 61,
      "time": 168.333,
      "duration": 0.208,
      "velocity": 0.71,
      "hand": "right"
    },
    {
      "midi": 56,
      "time": 168.542,
      "duration": 0.208,
      "velocity": 0.71,
      "hand": "left"
    },
    {
      "midi": 52,
      "time": 168.75,
      "duration": 0.208,
      "velocity": 0.71,
      "hand": "left"
    },
    {
      "midi": 61,
      "time": 168.75,
      "duration": 0.417,
      "velocity": 0.71,
      "hand": "right"
    },
    {
      "midi": 49,
      "time": 168.958,
      "duration": 0.208,
      "velocity": 0.71,
      "hand": "left"
    },
    {
      "midi": 40,
      "time": 169.167,
      "duration": 0.417,
      "velocity": 0.71,
      "hand": "left"
    },
    {
      "midi": 59,
      "time": 169.271,
      "duration": 0.104,
      "velocity": 0.71,
      "hand": "left"
    },
    {
      "midi": 52,
      "time": 169.479,
      "duration": 0.104,
      "velocity": 0.71,
      "hand": "left"
    },
    {
      "midi": 47,
      "time": 169.583,
      "duration": 0.417,
      "velocity": 0.71,
      "hand": "left"
    },
    {
      "midi": 61,
      "time": 169.688,
      "duration": 0.104,
      "velocity": 0.71,
      "hand": "right"
    },
    {
      "midi": 56,
      "time": 169.896,
      "duration": 0.104,
      "velocity": 0.71,
      "hand": "left"
    },
    {
      "midi": 52,
      "time": 170,
      "duration": 0.417,
      "velocity": 0.71,
      "hand": "left"
    },
    {
      "midi": 64,
      "time": 170.104,
      "duration": 0.104,
      "velocity": 0.71,
      "hand": "right"
    },
    {
      "midi": 59,
      "time": 170.313,
      "duration": 0.104,
      "velocity": 0.71,
      "hand": "left"
    },
    {
      "midi": 56,
      "time": 170.417,
      "duration": 0.417,
      "velocity": 0.71,
      "hand": "left"
    },
    {
      "midi": 66,
      "time": 170.521,
      "duration": 0.104,
      "velocity": 0.71,
      "hand": "right"
    },
    {
      "midi": 61,
      "time": 170.729,
      "duration": 0.104,
      "velocity": 0.71,
      "hand": "right"
    },
    {
      "midi": 52,
      "time": 170.833,
      "duration": 0.417,
      "velocity": 0.71,
      "hand": "left"
    },
    {
      "midi": 71,
      "time": 170.938,
      "duration": 0.104,
      "velocity": 0.71,
      "hand": "right"
    },
    {
      "midi": 64,
      "time": 171.146,
      "duration": 0.104,
      "velocity": 0.71,
      "hand": "right"
    },
    {
      "midi": 59,
      "time": 171.25,
      "duration": 0.417,
      "velocity": 0.71,
      "hand": "left"
    },
    {
      "midi": 73,
      "time": 171.354,
      "duration": 0.104,
      "velocity": 0.71,
      "hand": "right"
    },
    {
      "midi": 68,
      "time": 171.563,
      "duration": 0.104,
      "velocity": 0.71,
      "hand": "right"
    },
    {
      "midi": 64,
      "time": 171.667,
      "duration": 0.417,
      "velocity": 0.71,
      "hand": "right"
    },
    {
      "midi": 76,
      "time": 171.771,
      "duration": 0.104,
      "velocity": 0.71,
      "hand": "right"
    },
    {
      "midi": 71,
      "time": 171.979,
      "duration": 0.104,
      "velocity": 0.71,
      "hand": "right"
    },
    {
      "midi": 68,
      "time": 172.083,
      "duration": 0.417,
      "velocity": 0.71,
      "hand": "right"
    },
    {
      "midi": 78,
      "time": 172.188,
      "duration": 0.104,
      "velocity": 0.71,
      "hand": "right"
    },
    {
      "midi": 73,
      "time": 172.396,
      "duration": 0.104,
      "velocity": 0.71,
      "hand": "right"
    },
    {
      "midi": 64,
      "time": 172.5,
      "duration": 0.417,
      "velocity": 0.71,
      "hand": "right"
    },
    {
      "midi": 83,
      "time": 172.604,
      "duration": 0.104,
      "velocity": 0.71,
      "hand": "right"
    },
    {
      "midi": 76,
      "time": 172.813,
      "duration": 0.104,
      "velocity": 0.71,
      "hand": "right"
    },
    {
      "midi": 71,
      "time": 172.917,
      "duration": 0.417,
      "velocity": 0.71,
      "hand": "right"
    },
    {
      "midi": 85,
      "time": 173.021,
      "duration": 0.104,
      "velocity": 0.71,
      "hand": "right"
    },
    {
      "midi": 80,
      "time": 173.229,
      "duration": 0.104,
      "velocity": 0.71,
      "hand": "right"
    },
    {
      "midi": 76,
      "time": 173.333,
      "duration": 0.417,
      "velocity": 0.71,
      "hand": "right"
    },
    {
      "midi": 88,
      "time": 173.438,
      "duration": 0.104,
      "velocity": 0.71,
      "hand": "right"
    },
    {
      "midi": 83,
      "time": 173.646,
      "duration": 0.104,
      "velocity": 0.71,
      "hand": "right"
    },
    {
      "midi": 80,
      "time": 173.75,
      "duration": 0.417,
      "velocity": 0.71,
      "hand": "right"
    },
    {
      "midi": 90,
      "time": 173.854,
      "duration": 0.104,
      "velocity": 0.71,
      "hand": "right"
    },
    {
      "midi": 85,
      "time": 174.063,
      "duration": 0.104,
      "velocity": 0.71,
      "hand": "right"
    },
    {
      "midi": 76,
      "time": 174.167,
      "duration": 0.417,
      "velocity": 0.71,
      "hand": "right"
    },
    {
      "midi": 83,
      "time": 174.167,
      "duration": 0.417,
      "velocity": 0.71,
      "hand": "right"
    },
    {
      "midi": 88,
      "time": 174.167,
      "duration": 0.417,
      "velocity": 0.71,
      "hand": "right"
    },
    {
      "midi": 92,
      "time": 174.167,
      "duration": 0.417,
      "velocity": 0.71,
      "hand": "right"
    },
    {
      "midi": 76,
      "time": 174.583,
      "duration": 0.833,
      "velocity": 0.71,
      "hand": "right"
    },
    {
      "midi": 83,
      "time": 174.583,
      "duration": 0.833,
      "velocity": 0.71,
      "hand": "right"
    },
    {
      "midi": 88,
      "time": 174.583,
      "duration": 0.833,
      "velocity": 0.71,
      "hand": "right"
    },
    {
      "midi": 92,
      "time": 174.583,
      "duration": 0.833,
      "velocity": 0.71,
      "hand": "right"
    },
    {
      "midi": 76,
      "time": 175.417,
      "duration": 0.417,
      "velocity": 0.71,
      "hand": "right"
    },
    {
      "midi": 83,
      "time": 175.417,
      "duration": 0.417,
      "velocity": 0.71,
      "hand": "right"
    },
    {
      "midi": 88,
      "time": 175.417,
      "duration": 0.417,
      "velocity": 0.71,
      "hand": "right"
    },
    {
      "midi": 92,
      "time": 175.417,
      "duration": 0.417,
      "velocity": 0.71,
      "hand": "right"
    },
    {
      "midi": 40,
      "time": 175.833,
      "duration": 0.417,
      "velocity": 0.71,
      "hand": "left"
    },
    {
      "midi": 52,
      "time": 175.833,
      "duration": 0.417,
      "velocity": 0.71,
      "hand": "left"
    },
    {
      "midi": 64,
      "time": 175.833,
      "duration": 0.417,
      "velocity": 0.71,
      "hand": "right"
    }
  ]
}
