{
  "id": "rocha-eterna",
  "title": "Rocha Eterna",
  "artist": "Augustus Toplady",
  "difficulty": "Difícil",
  "bpm": 150,
  "duration": 30,
  "category": "Religiosos",
  "isPremium": false,
  "coverUrl": "/images/covers/placeholder.png",
  "notes": [
    {
      "midi": 46,
      "time": 0,
      "duration": 0.585,
      "velocity": 0.57,
      "hand": "left"
    },
    {
      "midi": 58,
      "time": 0,
      "duration": 0.585,
      "velocity": 0.57,
      "hand": "left"
    },
    {
      "midi": 62,
      "time": 0,
      "duration": 0.6,
      "velocity": 0.54,
      "hand": "right"
    },
    {
      "midi": 65,
      "time": 0,
      "duration": 0.6,
      "velocity": 0.54,
      "hand": "right"
    },
    {
      "midi": 46,
      "time": 0.6,
      "duration": 0.185,
      "velocity": 0.57,
      "hand": "left"
    },
    {
      "midi": 58,
      "time": 0.6,
      "duration": 0.185,
      "velocity": 0.57,
      "hand": "left"
    },
    {
      "midi": 63,
      "time": 0.6,
      "duration": 0.2,
      "velocity": 0.63,
      "hand": "right"
    },
    {
      "midi": 67,
      "time": 0.6,
      "duration": 0.2,
      "velocity": 0.63,
      "hand": "right"
    },
    {
      "midi": 46,
      "time": 0.8,
      "duration": 0.785,
      "velocity": 0.58,
      "hand": "left"
    },
    {
      "midi": 58,
      "time": 0.8,
      "duration": 0.785,
      "velocity": 0.58,
      "hand": "left"
    },
    {
      "midi": 62,
      "time": 0.8,
      "duration": 0.785,
      "velocity": 0.54,
      "hand": "right"
    },
    {
      "midi": 65,
      "time": 0.8,
      "duration": 0.8,
      "velocity": 0.54,
      "hand": "right"
    },
    {
      "midi": 46,
      "time": 1.6,
      "duration": 0.8,
      "velocity": 0.57,
      "hand": "left"
    },
    {
      "midi": 53,
      "time": 1.6,
      "duration": 0.8,
      "velocity": 0.57,
      "hand": "left"
    },
    {
      "midi": 62,
      "time": 1.6,
      "duration": 0.8,
      "velocity": 0.54,
      "hand": "right"
    },
    {
      "midi": 50,
      "time": 2.4,
      "duration": 0.6,
      "velocity": 0.62,
      "hand": "left"
    },
    {
      "midi": 58,
      "time": 2.4,
      "duration": 0.585,
      "velocity": 0.62,
      "hand": "left"
    },
    {
      "midi": 65,
      "time": 2.4,
      "duration": 0.6,
      "velocity": 0.73,
      "hand": "right"
    },
    {
      "midi": 70,
      "time": 2.4,
      "duration": 0.6,
      "velocity": 0.73,
      "hand": "right"
    },
    {
      "midi": 51,
      "time": 3,
      "duration": 0.2,
      "velocity": 0.61,
      "hand": "left"
    },
    {
      "midi": 58,
      "time": 3,
      "duration": 0.185,
      "velocity": 0.61,
      "hand": "left"
    },
    {
      "midi": 63,
      "time": 3,
      "duration": 0.2,
      "velocity": 0.56,
      "hand": "right"
    },
    {
      "midi": 67,
      "time": 3,
      "duration": 0.2,
      "velocity": 0.56,
      "hand": "right"
    },
    {
      "midi": 46,
      "time": 3.2,
      "duration": 1.6,
      "velocity": 0.6,
      "hand": "left"
    },
    {
      "midi": 58,
      "time": 3.2,
      "duration": 1.585,
      "velocity": 0.6,
      "hand": "left"
    },
    {
      "midi": 62,
      "time": 3.2,
      "duration": 1.6,
      "velocity": 0.56,
      "hand": "right"
    },
    {
      "midi": 65,
      "time": 3.2,
      "duration": 1.585,
      "velocity": 0.56,
      "hand": "right"
    },
    {
      "midi": 50,
      "time": 4.8,
      "duration": 0.4,
      "velocity": 0.59,
      "hand": "left"
    },
    {
      "midi": 58,
      "time": 4.8,
      "duration": 0.4,
      "velocity": 0.59,
      "hand": "left"
    },
    {
      "midi": 65,
      "time": 4.8,
      "duration": 0.385,
      "velocity": 0.7,
      "hand": "right"
    },
    {
      "midi": 70,
      "time": 4.8,
      "duration": 0.4,
      "velocity": 0.7,
      "hand": "right"
    },
    {
      "midi": 53,
      "time": 5.2,
      "duration": 0.4,
      "velocity": 0.59,
      "hand": "left"
    },
    {
      "midi": 57,
      "time": 5.2,
      "duration": 0.4,
      "velocity": 0.59,
      "hand": "left"
    },
    {
      "midi": 65,
      "time": 5.2,
      "duration": 0.385,
      "velocity": 0.68,
      "hand": "right"
    },
    {
      "midi": 72,
      "time": 5.2,
      "duration": 0.4,
      "velocity": 0.68,
      "hand": "right"
    },
    {
      "midi": 58,
      "time": 5.6,
      "duration": 1.2,
      "velocity": 0.54,
      "hand": "left"
    },
    {
      "midi": 65,
      "time": 5.6,
      "duration": 1.2,
      "velocity": 0.66,
      "hand": "right"
    },
    {
      "midi": 74,
      "time": 5.6,
      "duration": 1.2,
      "velocity": 0.66,
      "hand": "right"
    },
    {
      "midi": 51,
      "time": 6.8,
      "duration": 0.4,
      "velocity": 0.68,
      "hand": "left"
    },
    {
      "midi": 63,
      "time": 6.8,
      "duration": 0.4,
      "velocity": 0.68,
      "hand": "right"
    },
    {
      "midi": 67,
      "time": 6.8,
      "duration": 0.4,
      "velocity": 0.56,
      "hand": "right"
    },
    {
      "midi": 72,
      "time": 6.8,
      "duration": 0.4,
      "velocity": 0.56,
      "hand": "right"
    },
    {
      "midi": 53,
      "time": 7.2,
      "duration": 0.385,
      "velocity": 0.62,
      "hand": "left"
    },
    {
      "midi": 62,
      "time": 7.2,
      "duration": 0.4,
      "velocity": 0.62,
      "hand": "right"
    },
    {
      "midi": 65,
      "time": 7.2,
      "duration": 0.4,
      "velocity": 0.54,
      "hand": "right"
    },
    {
      "midi": 70,
      "time": 7.2,
      "duration": 0.4,
      "velocity": 0.54,
      "hand": "right"
    },
    {
      "midi": 53,
      "time": 7.6,
      "duration": 0.4,
      "velocity": 0.57,
      "hand": "left"
    },
    {
      "midi": 60,
      "time": 7.6,
      "duration": 0.4,
      "velocity": 0.57,
      "hand": "right"
    },
    {
      "midi": 63,
      "time": 7.6,
      "duration": 0.4,
      "velocity": 0.54,
      "hand": "right"
    },
    {
      "midi": 69,
      "time": 7.6,
      "duration": 0.4,
      "velocity": 0.54,
      "hand": "right"
    },
    {
      "midi": 46,
      "time": 8,
      "duration": 1.6,
      "velocity": 0.57,
      "hand": "left"
    },
    {
      "midi": 58,
      "time": 8,
      "duration": 1.6,
      "velocity": 0.57,
      "hand": "left"
    },
    {
      "midi": 62,
      "time": 8,
      "duration": 1.6,
      "velocity": 0.58,
      "hand": "right"
    },
    {
      "midi": 70,
      "time": 8,
      "duration": 1.6,
      "velocity": 0.58,
      "hand": "right"
    },
    {
      "midi": 53,
      "time": 9.6,
      "duration": 0.585,
      "velocity": 0.55,
      "hand": "left"
    },
    {
      "midi": 60,
      "time": 9.6,
      "duration": 0.6,
      "velocity": 0.56,
      "hand": "right"
    },
    {
      "midi": 69,
      "time": 9.6,
      "duration": 0.6,
      "velocity": 0.56,
      "hand": "right"
    },
    {
      "midi": 53,
      "time": 10.2,
      "duration": 0.185,
      "velocity": 0.61,
      "hand": "left"
    },
    {
      "midi": 62,
      "time": 10.2,
      "duration": 0.2,
      "velocity": 0.61,
      "hand": "right"
    },
    {
      "midi": 70,
      "time": 10.2,
      "duration": 0.2,
      "velocity": 0.61,
      "hand": "right"
    },
    {
      "midi": 53,
      "time": 10.4,
      "duration": 1.185,
      "velocity": 0.61,
      "hand": "left"
    },
    {
      "midi": 63,
      "time": 10.4,
      "duration": 1.185,
      "velocity": 0.61,
      "hand": "right"
    },
    {
      "midi": 72,
      "time": 10.4,
      "duration": 1.185,
      "velocity": 0.61,
      "hand": "right"
    },
    {
      "midi": 53,
      "time": 11.6,
      "duration": 0.385,
      "velocity": 0.62,
      "hand": "left"
    },
    {
      "midi": 57,
      "time": 11.6,
      "duration": 0.4,
      "velocity": 0.62,
      "hand": "left"
    },
    {
      "midi": 63,
      "time": 11.6,
      "duration": 0.385,
      "velocity": 0.63,
      "hand": "right"
    },
    {
      "midi": 72,
      "time": 11.6,
      "duration": 0.4,
      "velocity": 0.63,
      "hand": "right"
    },
    {
      "midi": 53,
      "time": 12,
      "duration": 0.385,
      "velocity": 0.69,
      "hand": "left"
    },
    {
      "midi": 60,
      "time": 12,
      "duration": 0.4,
      "velocity": 0.69,
      "hand": "right"
    },
    {
      "midi": 63,
      "time": 12,
      "duration": 0.385,
      "velocity": 0.54,
      "hand": "right"
    },
    {
      "midi": 69,
      "time": 12,
      "duration": 0.4,
      "velocity": 0.54,
      "hand": "right"
    },
    {
      "midi": 53,
      "time": 12.4,
      "duration": 0.4,
      "velocity": 0.58,
      "hand": "left"
    },
    {
      "midi": 57,
      "time": 12.4,
      "duration": 0.4,
      "velocity": 0.58,
      "hand": "left"
    },
    {
      "midi": 63,
      "time": 12.4,
      "duration": 0.4,
      "velocity": 0.54,
      "hand": "right"
    },
    {
      "midi": 65,
      "time": 12.4,
      "duration": 0.4,
      "velocity": 0.54,
      "hand": "right"
    },
    {
      "midi": 46,
      "time": 12.8,
      "duration": 1.6,
      "velocity": 0.57,
      "hand": "left"
    },
    {
      "midi": 58,
      "time": 12.8,
      "duration": 1.6,
      "velocity": 0.57,
      "hand": "left"
    },
    {
      "midi": 62,
      "time": 12.8,
      "duration": 1.6,
      "velocity": 0.65,
      "hand": "right"
    },
    {
      "midi": 70,
      "time": 12.8,
      "duration": 1.6,
      "velocity": 0.65,
      "hand": "right"
    },
    {
      "midi": 53,
      "time": 14.4,
      "duration": 0.585,
      "velocity": 0.52,
      "hand": "left"
    },
    {
      "midi": 60,
      "time": 14.4,
      "duration": 0.6,
      "velocity": 0.57,
      "hand": "right"
    },
    {
      "midi": 69,
      "time": 14.4,
      "duration": 0.6,
      "velocity": 0.57,
      "hand": "right"
    },
    {
      "midi": 53,
      "time": 15,
      "duration": 0.185,
      "velocity": 0.62,
      "hand": "left"
    },
    {
      "midi": 58,
      "time": 15,
      "duration": 0.2,
      "velocity": 0.62,
      "hand": "left"
    },
    {
      "midi": 62,
      "time": 15,
      "duration": 0.2,
      "velocity": 0.6,
      "hand": "right"
    },
    {
      "midi": 70,
      "time": 15,
      "duration": 0.2,
      "velocity": 0.6,
      "hand": "right"
    },
    {
      "midi": 53,
      "time": 15.2,
      "duration": 1.185,
      "velocity": 0.57,
      "hand": "left"
    },
    {
      "midi": 57,
      "time": 15.2,
      "duration": 1.185,
      "velocity": 0.57,
      "hand": "left"
    },
    {
      "midi": 63,
      "time": 15.2,
      "duration": 1.185,
      "velocity": 0.64,
      "hand": "right"
    },
    {
      "midi": 72,
      "time": 15.2,
      "duration": 1.185,
      "velocity": 0.64,
      "hand": "right"
    },
    {
      "midi": 53,
      "time": 16.4,
      "duration": 0.385,
      "velocity": 0.58,
      "hand": "left"
    },
    {
      "midi": 57,
      "time": 16.4,
      "duration": 0.4,
      "velocity": 0.58,
      "hand": "left"
    },
    {
      "midi": 63,
      "time": 16.4,
      "duration": 0.385,
      "velocity": 0.64,
      "hand": "right"
    },
    {
      "midi": 72,
      "time": 16.4,
      "duration": 0.4,
      "velocity": 0.64,
      "hand": "right"
    },
    {
      "midi": 53,
      "time": 16.8,
      "duration": 0.385,
      "velocity": 0.65,
      "hand": "left"
    },
    {
      "midi": 60,
      "time": 16.8,
      "duration": 0.4,
      "velocity": 0.65,
      "hand": "right"
    },
    {
      "midi": 63,
      "time": 16.8,
      "duration": 0.385,
      "velocity": 0.54,
      "hand": "right"
    },
    {
      "midi": 69,
      "time": 16.8,
      "duration": 0.4,
      "velocity": 0.54,
      "hand": "right"
    },
    {
      "midi": 53,
      "time": 17.2,
      "duration": 0.4,
      "velocity": 0.58,
      "hand": "left"
    },
    {
      "midi": 57,
      "time": 17.2,
      "duration": 0.4,
      "velocity": 0.58,
      "hand": "left"
    },
    {
      "midi": 63,
      "time": 17.2,
      "duration": 0.4,
      "velocity": 0.54,
      "hand": "right"
    },
    {
      "midi": 65,
      "time": 17.2,
      "duration": 0.4,
      "velocity": 0.54,
      "hand": "right"
    },
    {
      "midi": 46,
      "time": 17.6,
      "duration": 1.585,
      "velocity": 0.62,
      "hand": "left"
    },
    {
      "midi": 58,
      "time": 17.6,
      "duration": 1.585,
      "velocity": 0.62,
      "hand": "left"
    },
    {
      "midi": 62,
      "time": 17.6,
      "duration": 1.585,
      "velocity": 0.65,
      "hand": "right"
    },
    {
      "midi": 70,
      "time": 17.6,
      "duration": 1.6,
      "velocity": 0.65,
      "hand": "right"
    },
    {
      "midi": 46,
      "time": 19.2,
      "duration": 0.585,
      "velocity": 0.6,
      "hand": "left"
    },
    {
      "midi": 58,
      "time": 19.2,
      "duration": 0.585,
      "velocity": 0.6,
      "hand": "left"
    },
    {
      "midi": 62,
      "time": 19.2,
      "duration": 0.6,
      "velocity": 0.52,
      "hand": "right"
    },
    {
      "midi": 65,
      "time": 19.2,
      "duration": 0.6,
      "velocity": 0.52,
      "hand": "right"
    },
    {
      "midi": 46,
      "time": 19.8,
      "duration": 0.185,
      "velocity": 0.58,
      "hand": "left"
    },
    {
      "midi": 58,
      "time": 19.8,
      "duration": 0.185,
      "velocity": 0.58,
      "hand": "left"
    },
    {
      "midi": 63,
      "time": 19.8,
      "duration": 0.2,
      "velocity": 0.68,
      "hand": "right"
    },
    {
      "midi": 67,
      "time": 19.8,
      "duration": 0.2,
      "velocity": 0.68,
      "hand": "right"
    },
    {
      "midi": 46,
      "time": 20,
      "duration": 0.785,
      "velocity": 0.57,
      "hand": "left"
    },
    {
      "midi": 58,
      "time": 20,
      "duration": 0.785,
      "velocity": 0.57,
      "hand": "left"
    },
    {
      "midi": 62,
      "time": 20,
      "duration": 0.785,
      "velocity": 0.55,
      "hand": "right"
    },
    {
      "midi": 65,
      "time": 20,
      "duration": 0.8,
      "velocity": 0.55,
      "hand": "right"
    },
    {
      "midi": 46,
      "time": 20.8,
      "duration": 0.8,
      "velocity": 0.56,
      "hand": "left"
    },
    {
      "midi": 53,
      "time": 20.8,
      "duration": 0.8,
      "velocity": 0.56,
      "hand": "left"
    },
    {
      "midi": 62,
      "time": 20.8,
      "duration": 0.8,
      "velocity": 0.54,
      "hand": "right"
    },
    {
      "midi": 50,
      "time": 21.6,
      "duration": 0.6,
      "velocity": 0.63,
      "hand": "left"
    },
    {
      "midi": 58,
      "time": 21.6,
      "duration": 0.585,
      "velocity": 0.63,
      "hand": "left"
    },
    {
      "midi": 65,
      "time": 21.6,
      "duration": 0.6,
      "velocity": 0.73,
      "hand": "right"
    },
    {
      "midi": 70,
      "time": 21.6,
      "duration": 0.6,
      "velocity": 0.73,
      "hand": "right"
    },
    {
      "midi": 51,
      "time": 22.2,
      "duration": 0.2,
      "velocity": 0.61,
      "hand": "left"
    },
    {
      "midi": 58,
      "time": 22.2,
      "duration": 0.185,
      "velocity": 0.61,
      "hand": "left"
    },
    {
      "midi": 63,
      "time": 22.2,
      "duration": 0.2,
      "velocity": 0.57,
      "hand": "right"
    },
    {
      "midi": 67,
      "time": 22.2,
      "duration": 0.2,
      "velocity": 0.57,
      "hand": "right"
    },
    {
      "midi": 46,
      "time": 22.4,
      "duration": 1.6,
      "velocity": 0.57,
      "hand": "left"
    },
    {
      "midi": 58,
      "time": 22.4,
      "duration": 1.585,
      "velocity": 0.57,
      "hand": "left"
    },
    {
      "midi": 62,
      "time": 22.4,
      "duration": 1.585,
      "velocity": 0.54,
      "hand": "right"
    },
    {
      "midi": 65,
      "time": 22.4,
      "duration": 1.6,
      "velocity": 0.54,
      "hand": "right"
    },
    {
      "midi": 55,
      "time": 24,
      "duration": 0.4,
      "velocity": 0.55,
      "hand": "left"
    },
    {
      "midi": 58,
      "time": 24,
      "duration": 0.4,
      "velocity": 0.55,
      "hand": "left"
    },
    {
      "midi": 62,
      "time": 24,
      "duration": 0.4,
      "velocity": 0.68,
      "hand": "right"
    },
    {
      "midi": 70,
      "time": 24,
      "duration": 0.4,
      "velocity": 0.68,
      "hand": "right"
    },
    {
      "midi": 53,
      "time": 24.4,
      "duration": 0.4,
      "velocity": 0.58,
      "hand": "left"
    },
    {
      "midi": 57,
      "time": 24.4,
      "duration": 0.4,
      "velocity": 0.58,
      "hand": "left"
    },
    {
      "midi": 63,
      "time": 24.4,
      "duration": 0.4,
      "velocity": 0.65,
      "hand": "right"
    },
    {
      "midi": 72,
      "time": 24.4,
      "duration": 0.4,
      "velocity": 0.65,
      "hand": "right"
    },
    {
      "midi": 58,
      "time": 24.8,
      "duration": 1.2,
      "velocity": 0.64,
      "hand": "left"
    },
    {
      "midi": 65,
      "time": 24.8,
      "duration": 1.2,
      "velocity": 0.65,
      "hand": "right"
    },
    {
      "midi": 74,
      "time": 24.8,
      "duration": 1.2,
      "velocity": 0.65,
      "hand": "right"
    },
    {
      "midi": 51,
      "time": 26,
      "duration": 0.4,
      "velocity": 0.71,
      "hand": "left"
    },
    {
      "midi": 63,
      "time": 26,
      "duration": 0.4,
      "velocity": 0.71,
      "hand": "right"
    },
    {
      "midi": 67,
      "time": 26,
      "duration": 0.4,
      "velocity": 0.54,
      "hand": "right"
    },
    {
      "midi": 72,
      "time": 26,
      "duration": 0.4,
      "velocity": 0.54,
      "hand": "right"
    },
    {
      "midi": 53,
      "time": 26.4,
      "duration": 0.385,
      "velocity": 0.57,
      "hand": "left"
    },
    {
      "midi": 62,
      "time": 26.4,
      "duration": 0.4,
      "velocity": 0.57,
      "hand": "right"
    },
    {
      "midi": 65,
      "time": 26.4,
      "duration": 0.4,
      "velocity": 0.54,
      "hand": "right"
    },
    {
      "midi": 70,
      "time": 26.4,
      "duration": 0.4,
      "velocity": 0.54,
      "hand": "right"
    },
    {
      "midi": 53,
      "time": 26.8,
      "duration": 0.4,
      "velocity": 0.57,
      "hand": "left"
    },
    {
      "midi": 60,
      "time": 26.8,
      "duration": 0.4,
      "velocity": 0.57,
      "hand": "right"
    },
    {
      "midi": 63,
      "time": 26.8,
      "duration": 0.4,
      "velocity": 0.57,
      "hand": "right"
    },
    {
      "midi": 69,
      "time": 26.8,
      "duration": 0.4,
      "velocity": 0.57,
      "hand": "right"
    },
    {
      "midi": 46,
      "time": 27.2,
      "duration": 1.6,
      "velocity": 0.57,
      "hand": "left"
    },
    {
      "midi": 58,
      "time": 27.2,
      "duration": 1.6,
      "velocity": 0.57,
      "hand": "left"
    },
    {
      "midi": 62,
      "time": 27.2,
      "duration": 1.6,
      "velocity": 0.66,
      "hand": "right"
    },
    {
      "midi": 70,
      "time": 27.2,
      "duration": 1.6,
      "velocity": 0.66,
      "hand": "right"
    }
  ],
  "arrangements": {
    "easy": [
      {
        "midi": 65,
        "time": 0,
        "duration": 0.6,
        "velocity": 0.54,
        "hand": "right"
      },
      {
        "midi": 67,
        "time": 0.6,
        "duration": 0.24,
        "velocity": 0.63,
        "hand": "right"
      },
      {
        "midi": 62,
        "time": 1.6,
        "duration": 0.8,
        "velocity": 0.54,
        "hand": "right"
      },
      {
        "midi": 70,
        "time": 2.4,
        "duration": 0.6,
        "velocity": 0.73,
        "hand": "right"
      },
      {
        "midi": 67,
        "time": 3,
        "duration": 0.24,
        "velocity": 0.56,
        "hand": "right"
      },
      {
        "midi": 70,
        "time": 4.8,
        "duration": 0.4,
        "velocity": 0.7,
        "hand": "right"
      },
      {
        "midi": 74,
        "time": 5.6,
        "duration": 1.2,
        "velocity": 0.66,
        "hand": "right"
      },
      {
        "midi": 72,
        "time": 6.8,
        "duration": 0.4,
        "velocity": 0.56,
        "hand": "right"
      },
      {
        "midi": 69,
        "time": 7.6,
        "duration": 0.4,
        "velocity": 0.54,
        "hand": "right"
      },
      {
        "midi": 69,
        "time": 9.6,
        "duration": 0.6,
        "velocity": 0.56,
        "hand": "right"
      },
      {
        "midi": 70,
        "time": 10.2,
        "duration": 0.24,
        "velocity": 0.61,
        "hand": "right"
      },
      {
        "midi": 72,
        "time": 11.6,
        "duration": 0.4,
        "velocity": 0.63,
        "hand": "right"
      },
      {
        "midi": 65,
        "time": 12.4,
        "duration": 0.4,
        "velocity": 0.54,
        "hand": "right"
      },
      {
        "midi": 69,
        "time": 14.4,
        "duration": 0.6,
        "velocity": 0.57,
        "hand": "right"
      },
      {
        "midi": 70,
        "time": 15,
        "duration": 0.24,
        "velocity": 0.6,
        "hand": "right"
      },
      {
        "midi": 72,
        "time": 16.4,
        "duration": 0.4,
        "velocity": 0.64,
        "hand": "right"
      },
      {
        "midi": 65,
        "time": 17.2,
        "duration": 0.4,
        "velocity": 0.54,
        "hand": "right"
      },
      {
        "midi": 65,
        "time": 19.2,
        "duration": 0.6,
        "velocity": 0.52,
        "hand": "right"
      },
      {
        "midi": 67,
        "time": 19.8,
        "duration": 0.24,
        "velocity": 0.68,
        "hand": "right"
      },
      {
        "midi": 62,
        "time": 20.8,
        "duration": 0.8,
        "velocity": 0.54,
        "hand": "right"
      },
      {
        "midi": 70,
        "time": 21.6,
        "duration": 0.6,
        "velocity": 0.73,
        "hand": "right"
      },
      {
        "midi": 67,
        "time": 22.2,
        "duration": 0.24,
        "velocity": 0.57,
        "hand": "right"
      },
      {
        "midi": 70,
        "time": 24,
        "duration": 0.4,
        "velocity": 0.68,
        "hand": "right"
      },
      {
        "midi": 74,
        "time": 24.8,
        "duration": 1.2,
        "velocity": 0.65,
        "hand": "right"
      },
      {
        "midi": 72,
        "time": 26,
        "duration": 0.4,
        "velocity": 0.54,
        "hand": "right"
      },
      {
        "midi": 69,
        "time": 26.8,
        "duration": 0.4,
        "velocity": 0.57,
        "hand": "right"
      }
    ],
    "medium": [
      {
        "midi": 58,
        "time": 0,
        "duration": 0.585,
        "velocity": 0.57,
        "hand": "left"
      },
      {
        "midi": 65,
        "time": 0,
        "duration": 0.6,
        "velocity": 0.54,
        "hand": "right"
      },
      {
        "midi": 58,
        "time": 0.8,
        "duration": 0.785,
        "velocity": 0.58,
        "hand": "left"
      },
      {
        "midi": 65,
        "time": 0.8,
        "duration": 0.8,
        "velocity": 0.54,
        "hand": "right"
      },
      {
        "midi": 46,
        "time": 1.6,
        "duration": 0.8,
        "velocity": 0.57,
        "hand": "left"
      },
      {
        "midi": 62,
        "time": 1.6,
        "duration": 0.8,
        "velocity": 0.54,
        "hand": "right"
      },
      {
        "midi": 70,
        "time": 2.4,
        "duration": 0.6,
        "velocity": 0.73,
        "hand": "right"
      },
      {
        "midi": 58,
        "time": 3.2,
        "duration": 1.6,
        "velocity": 0.6,
        "hand": "left"
      },
      {
        "midi": 65,
        "time": 3.2,
        "duration": 1.585,
        "velocity": 0.56,
        "hand": "right"
      },
      {
        "midi": 70,
        "time": 4.8,
        "duration": 0.4,
        "velocity": 0.7,
        "hand": "right"
      },
      {
        "midi": 58,
        "time": 5.6,
        "duration": 1.2,
        "velocity": 0.54,
        "hand": "left"
      },
      {
        "midi": 74,
        "time": 5.6,
        "duration": 1.2,
        "velocity": 0.66,
        "hand": "right"
      },
      {
        "midi": 72,
        "time": 6.8,
        "duration": 0.4,
        "velocity": 0.56,
        "hand": "right"
      },
      {
        "midi": 53,
        "time": 7.6,
        "duration": 0.4,
        "velocity": 0.57,
        "hand": "left"
      },
      {
        "midi": 69,
        "time": 7.6,
        "duration": 0.4,
        "velocity": 0.54,
        "hand": "right"
      },
      {
        "midi": 53,
        "time": 9.6,
        "duration": 0.585,
        "velocity": 0.55,
        "hand": "left"
      },
      {
        "midi": 69,
        "time": 9.6,
        "duration": 0.6,
        "velocity": 0.56,
        "hand": "right"
      },
      {
        "midi": 72,
        "time": 10.4,
        "duration": 1.185,
        "velocity": 0.61,
        "hand": "right"
      },
      {
        "midi": 72,
        "time": 11.6,
        "duration": 0.4,
        "velocity": 0.63,
        "hand": "right"
      },
      {
        "midi": 53,
        "time": 12.4,
        "duration": 0.4,
        "velocity": 0.58,
        "hand": "left"
      },
      {
        "midi": 65,
        "time": 12.4,
        "duration": 0.4,
        "velocity": 0.54,
        "hand": "right"
      },
      {
        "midi": 53,
        "time": 14.4,
        "duration": 0.585,
        "velocity": 0.52,
        "hand": "left"
      },
      {
        "midi": 69,
        "time": 14.4,
        "duration": 0.6,
        "velocity": 0.57,
        "hand": "right"
      },
      {
        "midi": 72,
        "time": 15.2,
        "duration": 1.185,
        "velocity": 0.64,
        "hand": "right"
      },
      {
        "midi": 72,
        "time": 16.4,
        "duration": 0.4,
        "velocity": 0.64,
        "hand": "right"
      },
      {
        "midi": 53,
        "time": 17.2,
        "duration": 0.4,
        "velocity": 0.58,
        "hand": "left"
      },
      {
        "midi": 65,
        "time": 17.2,
        "duration": 0.4,
        "velocity": 0.54,
        "hand": "right"
      },
      {
        "midi": 58,
        "time": 19.2,
        "duration": 0.585,
        "velocity": 0.6,
        "hand": "left"
      },
      {
        "midi": 65,
        "time": 19.2,
        "duration": 0.6,
        "velocity": 0.52,
        "hand": "right"
      },
      {
        "midi": 58,
        "time": 20,
        "duration": 0.785,
        "velocity": 0.57,
        "hand": "left"
      },
      {
        "midi": 65,
        "time": 20,
        "duration": 0.8,
        "velocity": 0.55,
        "hand": "right"
      },
      {
        "midi": 46,
        "time": 20.8,
        "duration": 0.8,
        "velocity": 0.56,
        "hand": "left"
      },
      {
        "midi": 62,
        "time": 20.8,
        "duration": 0.8,
        "velocity": 0.54,
        "hand": "right"
      },
      {
        "midi": 70,
        "time": 21.6,
        "duration": 0.6,
        "velocity": 0.73,
        "hand": "right"
      },
      {
        "midi": 58,
        "time": 22.4,
        "duration": 1.6,
        "velocity": 0.57,
        "hand": "left"
      },
      {
        "midi": 65,
        "time": 22.4,
        "duration": 1.6,
        "velocity": 0.54,
        "hand": "right"
      },
      {
        "midi": 55,
        "time": 24,
        "duration": 0.4,
        "velocity": 0.55,
        "hand": "left"
      },
      {
        "midi": 70,
        "time": 24,
        "duration": 0.4,
        "velocity": 0.68,
        "hand": "right"
      },
      {
        "midi": 58,
        "time": 24.8,
        "duration": 1.2,
        "velocity": 0.64,
        "hand": "left"
      },
      {
        "midi": 74,
        "time": 24.8,
        "duration": 1.2,
        "velocity": 0.65,
        "hand": "right"
      },
      {
        "midi": 72,
        "time": 26,
        "duration": 0.4,
        "velocity": 0.54,
        "hand": "right"
      },
      {
        "midi": 53,
        "time": 26.8,
        "duration": 0.4,
        "velocity": 0.57,
        "hand": "left"
      },
      {
        "midi": 69,
        "time": 26.8,
        "duration": 0.4,
        "velocity": 0.57,
        "hand": "right"
      }
    ],
    "hard": [
      {
        "midi": 46,
        "time": 0,
        "duration": 0.585,
        "velocity": 0.57,
        "hand": "left"
      },
      {
        "midi": 58,
        "time": 0,
        "duration": 0.585,
        "velocity": 0.57,
        "hand": "left"
      },
      {
        "midi": 62,
        "time": 0,
        "duration": 0.6,
        "velocity": 0.54,
        "hand": "right"
      },
      {
        "midi": 65,
        "time": 0,
        "duration": 0.6,
        "velocity": 0.54,
        "hand": "right"
      },
      {
        "midi": 46,
        "time": 0.6,
        "duration": 0.185,
        "velocity": 0.57,
        "hand": "left"
      },
      {
        "midi": 58,
        "time": 0.6,
        "duration": 0.185,
        "velocity": 0.57,
        "hand": "left"
      },
      {
        "midi": 63,
        "time": 0.6,
        "duration": 0.2,
        "velocity": 0.63,
        "hand": "right"
      },
      {
        "midi": 67,
        "time": 0.6,
        "duration": 0.2,
        "velocity": 0.63,
        "hand": "right"
      },
      {
        "midi": 46,
        "time": 0.8,
        "duration": 0.785,
        "velocity": 0.58,
        "hand": "left"
      },
      {
        "midi": 58,
        "time": 0.8,
        "duration": 0.785,
        "velocity": 0.58,
        "hand": "left"
      },
      {
        "midi": 62,
        "time": 0.8,
        "duration": 0.785,
        "velocity": 0.54,
        "hand": "right"
      },
      {
        "midi": 65,
        "time": 0.8,
        "duration": 0.8,
        "velocity": 0.54,
        "hand": "right"
      },
      {
        "midi": 46,
        "time": 1.6,
        "duration": 0.8,
        "velocity": 0.57,
        "hand": "left"
      },
      {
        "midi": 53,
        "time": 1.6,
        "duration": 0.8,
        "velocity": 0.57,
        "hand": "left"
      },
      {
        "midi": 62,
        "time": 1.6,
        "duration": 0.8,
        "velocity": 0.54,
        "hand": "right"
      },
      {
        "midi": 50,
        "time": 2.4,
        "duration": 0.6,
        "velocity": 0.62,
        "hand": "left"
      },
      {
        "midi": 58,
        "time": 2.4,
        "duration": 0.585,
        "velocity": 0.62,
        "hand": "left"
      },
      {
        "midi": 65,
        "time": 2.4,
        "duration": 0.6,
        "velocity": 0.73,
        "hand": "right"
      },
      {
        "midi": 70,
        "time": 2.4,
        "duration": 0.6,
        "velocity": 0.73,
        "hand": "right"
      },
      {
        "midi": 51,
        "time": 3,
        "duration": 0.2,
        "velocity": 0.61,
        "hand": "left"
      },
      {
        "midi": 58,
        "time": 3,
        "duration": 0.185,
        "velocity": 0.61,
        "hand": "left"
      },
      {
        "midi": 63,
        "time": 3,
        "duration": 0.2,
        "velocity": 0.56,
        "hand": "right"
      },
      {
        "midi": 67,
        "time": 3,
        "duration": 0.2,
        "velocity": 0.56,
        "hand": "right"
      },
      {
        "midi": 46,
        "time": 3.2,
        "duration": 1.6,
        "velocity": 0.6,
        "hand": "left"
      },
      {
        "midi": 58,
        "time": 3.2,
        "duration": 1.585,
        "velocity": 0.6,
        "hand": "left"
      },
      {
        "midi": 62,
        "time": 3.2,
        "duration": 1.6,
        "velocity": 0.56,
        "hand": "right"
      },
      {
        "midi": 65,
        "time": 3.2,
        "duration": 1.585,
        "velocity": 0.56,
        "hand": "right"
      },
      {
        "midi": 50,
        "time": 4.8,
        "duration": 0.4,
        "velocity": 0.59,
        "hand": "left"
      },
      {
        "midi": 58,
        "time": 4.8,
        "duration": 0.4,
        "velocity": 0.59,
        "hand": "left"
      },
      {
        "midi": 65,
        "time": 4.8,
        "duration": 0.385,
        "velocity": 0.7,
        "hand": "right"
      },
      {
        "midi": 70,
        "time": 4.8,
        "duration": 0.4,
        "velocity": 0.7,
        "hand": "right"
      },
      {
        "midi": 53,
        "time": 5.2,
        "duration": 0.4,
        "velocity": 0.59,
        "hand": "left"
      },
      {
        "midi": 57,
        "time": 5.2,
        "duration": 0.4,
        "velocity": 0.59,
        "hand": "left"
      },
      {
        "midi": 65,
        "time": 5.2,
        "duration": 0.385,
        "velocity": 0.68,
        "hand": "right"
      },
      {
        "midi": 72,
        "time": 5.2,
        "duration": 0.4,
        "velocity": 0.68,
        "hand": "right"
      },
      {
        "midi": 58,
        "time": 5.6,
        "duration": 1.2,
        "velocity": 0.54,
        "hand": "left"
      },
      {
        "midi": 65,
        "time": 5.6,
        "duration": 1.2,
        "velocity": 0.66,
        "hand": "right"
      },
      {
        "midi": 74,
        "time": 5.6,
        "duration": 1.2,
        "velocity": 0.66,
        "hand": "right"
      },
      {
        "midi": 51,
        "time": 6.8,
        "duration": 0.4,
        "velocity": 0.68,
        "hand": "left"
      },
      {
        "midi": 63,
        "time": 6.8,
        "duration": 0.4,
        "velocity": 0.68,
        "hand": "right"
      },
      {
        "midi": 67,
        "time": 6.8,
        "duration": 0.4,
        "velocity": 0.56,
        "hand": "right"
      },
      {
        "midi": 72,
        "time": 6.8,
        "duration": 0.4,
        "velocity": 0.56,
        "hand": "right"
      },
      {
        "midi": 53,
        "time": 7.2,
        "duration": 0.385,
        "velocity": 0.62,
        "hand": "left"
      },
      {
        "midi": 62,
        "time": 7.2,
        "duration": 0.4,
        "velocity": 0.62,
        "hand": "right"
      },
      {
        "midi": 65,
        "time": 7.2,
        "duration": 0.4,
        "velocity": 0.54,
        "hand": "right"
      },
      {
        "midi": 70,
        "time": 7.2,
        "duration": 0.4,
        "velocity": 0.54,
        "hand": "right"
      },
      {
        "midi": 53,
        "time": 7.6,
        "duration": 0.4,
        "velocity": 0.57,
        "hand": "left"
      },
      {
        "midi": 60,
        "time": 7.6,
        "duration": 0.4,
        "velocity": 0.57,
        "hand": "right"
      },
      {
        "midi": 63,
        "time": 7.6,
        "duration": 0.4,
        "velocity": 0.54,
        "hand": "right"
      },
      {
        "midi": 69,
        "time": 7.6,
        "duration": 0.4,
        "velocity": 0.54,
        "hand": "right"
      },
      {
        "midi": 46,
        "time": 8,
        "duration": 1.6,
        "velocity": 0.57,
        "hand": "left"
      },
      {
        "midi": 58,
        "time": 8,
        "duration": 1.6,
        "velocity": 0.57,
        "hand": "left"
      },
      {
        "midi": 62,
        "time": 8,
        "duration": 1.6,
        "velocity": 0.58,
        "hand": "right"
      },
      {
        "midi": 70,
        "time": 8,
        "duration": 1.6,
        "velocity": 0.58,
        "hand": "right"
      },
      {
        "midi": 53,
        "time": 9.6,
        "duration": 0.585,
        "velocity": 0.55,
        "hand": "left"
      },
      {
        "midi": 60,
        "time": 9.6,
        "duration": 0.6,
        "velocity": 0.56,
        "hand": "right"
      },
      {
        "midi": 69,
        "time": 9.6,
        "duration": 0.6,
        "velocity": 0.56,
        "hand": "right"
      },
      {
        "midi": 53,
        "time": 10.2,
        "duration": 0.185,
        "velocity": 0.61,
        "hand": "left"
      },
      {
        "midi": 62,
        "time": 10.2,
        "duration": 0.2,
        "velocity": 0.61,
        "hand": "right"
      },
      {
        "midi": 70,
        "time": 10.2,
        "duration": 0.2,
        "velocity": 0.61,
        "hand": "right"
      },
      {
        "midi": 53,
        "time": 10.4,
        "duration": 1.185,
        "velocity": 0.61,
        "hand": "left"
      },
      {
        "midi": 63,
        "time": 10.4,
        "duration": 1.185,
        "velocity": 0.61,
        "hand": "right"
      },
      {
        "midi": 72,
        "time": 10.4,
        "duration": 1.185,
        "velocity": 0.61,
        "hand": "right"
      },
      {
        "midi": 53,
        "time": 11.6,
        "duration": 0.385,
        "velocity": 0.62,
        "hand": "left"
      },
      {
        "midi": 57,
        "time": 11.6,
        "duration": 0.4,
        "velocity": 0.62,
        "hand": "left"
      },
      {
        "midi": 63,
        "time": 11.6,
        "duration": 0.385,
        "velocity": 0.63,
        "hand": "right"
      },
      {
        "midi": 72,
        "time": 11.6,
        "duration": 0.4,
        "velocity": 0.63,
        "hand": "right"
      },
      {
        "midi": 53,
        "time": 12,
        "duration": 0.385,
        "velocity": 0.69,
        "hand": "left"
      },
      {
        "midi": 60,
        "time": 12,
        "duration": 0.4,
        "velocity": 0.69,
        "hand": "right"
      },
      {
        "midi": 63,
        "time": 12,
        "duration": 0.385,
        "velocity": 0.54,
        "hand": "right"
      },
      {
        "midi": 69,
        "time": 12,
        "duration": 0.4,
        "velocity": 0.54,
        "hand": "right"
      },
      {
        "midi": 53,
        "time": 12.4,
        "duration": 0.4,
        "velocity": 0.58,
        "hand": "left"
      },
      {
        "midi": 57,
        "time": 12.4,
        "duration": 0.4,
        "velocity": 0.58,
        "hand": "left"
      },
      {
        "midi": 63,
        "time": 12.4,
        "duration": 0.4,
        "velocity": 0.54,
        "hand": "right"
      },
      {
        "midi": 65,
        "time": 12.4,
        "duration": 0.4,
        "velocity": 0.54,
        "hand": "right"
      },
      {
        "midi": 46,
        "time": 12.8,
        "duration": 1.6,
        "velocity": 0.57,
        "hand": "left"
      },
      {
        "midi": 58,
        "time": 12.8,
        "duration": 1.6,
        "velocity": 0.57,
        "hand": "left"
      },
      {
        "midi": 62,
        "time": 12.8,
        "duration": 1.6,
        "velocity": 0.65,
        "hand": "right"
      },
      {
        "midi": 70,
        "time": 12.8,
        "duration": 1.6,
        "velocity": 0.65,
        "hand": "right"
      },
      {
        "midi": 53,
        "time": 14.4,
        "duration": 0.585,
        "velocity": 0.52,
        "hand": "left"
      },
      {
        "midi": 60,
        "time": 14.4,
        "duration": 0.6,
        "velocity": 0.57,
        "hand": "right"
      },
      {
        "midi": 69,
        "time": 14.4,
        "duration": 0.6,
        "velocity": 0.57,
        "hand": "right"
      },
      {
        "midi": 53,
        "time": 15,
        "duration": 0.185,
        "velocity": 0.62,
        "hand": "left"
      },
      {
        "midi": 58,
        "time": 15,
        "duration": 0.2,
        "velocity": 0.62,
        "hand": "left"
      },
      {
        "midi": 62,
        "time": 15,
        "duration": 0.2,
        "velocity": 0.6,
        "hand": "right"
      },
      {
        "midi": 70,
        "time": 15,
        "duration": 0.2,
        "velocity": 0.6,
        "hand": "right"
      },
      {
        "midi": 53,
        "time": 15.2,
        "duration": 1.185,
        "velocity": 0.57,
        "hand": "left"
      },
      {
        "midi": 57,
        "time": 15.2,
        "duration": 1.185,
        "velocity": 0.57,
        "hand": "left"
      },
      {
        "midi": 63,
        "time": 15.2,
        "duration": 1.185,
        "velocity": 0.64,
        "hand": "right"
      },
      {
        "midi": 72,
        "time": 15.2,
        "duration": 1.185,
        "velocity": 0.64,
        "hand": "right"
      },
      {
        "midi": 53,
        "time": 16.4,
        "duration": 0.385,
        "velocity": 0.58,
        "hand": "left"
      },
      {
        "midi": 57,
        "time": 16.4,
        "duration": 0.4,
        "velocity": 0.58,
        "hand": "left"
      },
      {
        "midi": 63,
        "time": 16.4,
        "duration": 0.385,
        "velocity": 0.64,
        "hand": "right"
      },
      {
        "midi": 72,
        "time": 16.4,
        "duration": 0.4,
        "velocity": 0.64,
        "hand": "right"
      },
      {
        "midi": 53,
        "time": 16.8,
        "duration": 0.385,
        "velocity": 0.65,
        "hand": "left"
      },
      {
        "midi": 60,
        "time": 16.8,
        "duration": 0.4,
        "velocity": 0.65,
        "hand": "right"
      },
      {
        "midi": 63,
        "time": 16.8,
        "duration": 0.385,
        "velocity": 0.54,
        "hand": "right"
      },
      {
        "midi": 69,
        "time": 16.8,
        "duration": 0.4,
        "velocity": 0.54,
        "hand": "right"
      },
      {
        "midi": 53,
        "time": 17.2,
        "duration": 0.4,
        "velocity": 0.58,
        "hand": "left"
      },
      {
        "midi": 57,
        "time": 17.2,
        "duration": 0.4,
        "velocity": 0.58,
        "hand": "left"
      },
      {
        "midi": 63,
        "time": 17.2,
        "duration": 0.4,
        "velocity": 0.54,
        "hand": "right"
      },
      {
        "midi": 65,
        "time": 17.2,
        "duration": 0.4,
        "velocity": 0.54,
        "hand": "right"
      },
      {
        "midi": 46,
        "time": 17.6,
        "duration": 1.585,
        "velocity": 0.62,
        "hand": "left"
      },
      {
        "midi": 58,
        "time": 17.6,
        "duration": 1.585,
        "velocity": 0.62,
        "hand": "left"
      },
      {
        "midi": 62,
        "time": 17.6,
        "duration": 1.585,
        "velocity": 0.65,
        "hand": "right"
      },
      {
        "midi": 70,
        "time": 17.6,
        "duration": 1.6,
        "velocity": 0.65,
        "hand": "right"
      },
      {
        "midi": 46,
        "time": 19.2,
        "duration": 0.585,
        "velocity": 0.6,
        "hand": "left"
      },
      {
        "midi": 58,
        "time": 19.2,
        "duration": 0.585,
        "velocity": 0.6,
        "hand": "left"
      },
      {
        "midi": 62,
        "time": 19.2,
        "duration": 0.6,
        "velocity": 0.52,
        "hand": "right"
      },
      {
        "midi": 65,
        "time": 19.2,
        "duration": 0.6,
        "velocity": 0.52,
        "hand": "right"
      },
      {
        "midi": 46,
        "time": 19.8,
        "duration": 0.185,
        "velocity": 0.58,
        "hand": "left"
      },
      {
        "midi": 58,
        "time": 19.8,
        "duration": 0.185,
        "velocity": 0.58,
        "hand": "left"
      },
      {
        "midi": 63,
        "time": 19.8,
        "duration": 0.2,
        "velocity": 0.68,
        "hand": "right"
      },
      {
        "midi": 67,
        "time": 19.8,
        "duration": 0.2,
        "velocity": 0.68,
        "hand": "right"
      },
      {
        "midi": 46,
        "time": 20,
        "duration": 0.785,
        "velocity": 0.57,
        "hand": "left"
      },
      {
        "midi": 58,
        "time": 20,
        "duration": 0.785,
        "velocity": 0.57,
        "hand": "left"
      },
      {
        "midi": 62,
        "time": 20,
        "duration": 0.785,
        "velocity": 0.55,
        "hand": "right"
      },
      {
        "midi": 65,
        "time": 20,
        "duration": 0.8,
        "velocity": 0.55,
        "hand": "right"
      },
      {
        "midi": 46,
        "time": 20.8,
        "duration": 0.8,
        "velocity": 0.56,
        "hand": "left"
      },
      {
        "midi": 53,
        "time": 20.8,
        "duration": 0.8,
        "velocity": 0.56,
        "hand": "left"
      },
      {
        "midi": 62,
        "time": 20.8,
        "duration": 0.8,
        "velocity": 0.54,
        "hand": "right"
      },
      {
        "midi": 50,
        "time": 21.6,
        "duration": 0.6,
        "velocity": 0.63,
        "hand": "left"
      },
      {
        "midi": 58,
        "time": 21.6,
        "duration": 0.585,
        "velocity": 0.63,
        "hand": "left"
      },
      {
        "midi": 65,
        "time": 21.6,
        "duration": 0.6,
        "velocity": 0.73,
        "hand": "right"
      },
      {
        "midi": 70,
        "time": 21.6,
        "duration": 0.6,
        "velocity": 0.73,
        "hand": "right"
      },
      {
        "midi": 51,
        "time": 22.2,
        "duration": 0.2,
        "velocity": 0.61,
        "hand": "left"
      },
      {
        "midi": 58,
        "time": 22.2,
        "duration": 0.185,
        "velocity": 0.61,
        "hand": "left"
      },
      {
        "midi": 63,
        "time": 22.2,
        "duration": 0.2,
        "velocity": 0.57,
        "hand": "right"
      },
      {
        "midi": 67,
        "time": 22.2,
        "duration": 0.2,
        "velocity": 0.57,
        "hand": "right"
      },
      {
        "midi": 46,
        "time": 22.4,
        "duration": 1.6,
        "velocity": 0.57,
        "hand": "left"
      },
      {
        "midi": 58,
        "time": 22.4,
        "duration": 1.585,
        "velocity": 0.57,
        "hand": "left"
      },
      {
        "midi": 62,
        "time": 22.4,
        "duration": 1.585,
        "velocity": 0.54,
        "hand": "right"
      },
      {
        "midi": 65,
        "time": 22.4,
        "duration": 1.6,
        "velocity": 0.54,
        "hand": "right"
      },
      {
        "midi": 55,
        "time": 24,
        "duration": 0.4,
        "velocity": 0.55,
        "hand": "left"
      },
      {
        "midi": 58,
        "time": 24,
        "duration": 0.4,
        "velocity": 0.55,
        "hand": "left"
      },
      {
        "midi": 62,
        "time": 24,
        "duration": 0.4,
        "velocity": 0.68,
        "hand": "right"
      },
      {
        "midi": 70,
        "time": 24,
        "duration": 0.4,
        "velocity": 0.68,
        "hand": "right"
      },
      {
        "midi": 53,
        "time": 24.4,
        "duration": 0.4,
        "velocity": 0.58,
        "hand": "left"
      },
      {
        "midi": 57,
        "time": 24.4,
        "duration": 0.4,
        "velocity": 0.58,
        "hand": "left"
      },
      {
        "midi": 63,
        "time": 24.4,
        "duration": 0.4,
        "velocity": 0.65,
        "hand": "right"
      },
      {
        "midi": 72,
        "time": 24.4,
        "duration": 0.4,
        "velocity": 0.65,
        "hand": "right"
      },
      {
        "midi": 58,
        "time": 24.8,
        "duration": 1.2,
        "velocity": 0.64,
        "hand": "left"
      },
      {
        "midi": 65,
        "time": 24.8,
        "duration": 1.2,
        "velocity": 0.65,
        "hand": "right"
      },
      {
        "midi": 74,
        "time": 24.8,
        "duration": 1.2,
        "velocity": 0.65,
        "hand": "right"
      },
      {
        "midi": 51,
        "time": 26,
        "duration": 0.4,
        "velocity": 0.71,
        "hand": "left"
      },
      {
        "midi": 63,
        "time": 26,
        "duration": 0.4,
        "velocity": 0.71,
        "hand": "right"
      },
      {
        "midi": 67,
        "time": 26,
        "duration": 0.4,
        "velocity": 0.54,
        "hand": "right"
      },
      {
        "midi": 72,
        "time": 26,
        "duration": 0.4,
        "velocity": 0.54,
        "hand": "right"
      },
      {
        "midi": 53,
        "time": 26.4,
        "duration": 0.385,
        "velocity": 0.57,
        "hand": "left"
      },
      {
        "midi": 62,
        "time": 26.4,
        "duration": 0.4,
        "velocity": 0.57,
        "hand": "right"
      },
      {
        "midi": 65,
        "time": 26.4,
        "duration": 0.4,
        "velocity": 0.54,
        "hand": "right"
      },
      {
        "midi": 70,
        "time": 26.4,
        "duration": 0.4,
        "velocity": 0.54,
        "hand": "right"
      },
      {
        "midi": 53,
        "time": 26.8,
        "duration": 0.4,
        "velocity": 0.57,
        "hand": "left"
      },
      {
        "midi": 60,
        "time": 26.8,
        "duration": 0.4,
        "velocity": 0.57,
        "hand": "right"
      },
      {
        "midi": 63,
        "time": 26.8,
        "duration": 0.4,
        "velocity": 0.57,
        "hand": "right"
      },
      {
        "midi": 69,
        "time": 26.8,
        "duration": 0.4,
        "velocity": 0.57,
        "hand": "right"
      },
      {
        "midi": 46,
        "time": 27.2,
        "duration": 1.6,
        "velocity": 0.57,
        "hand": "left"
      },
      {
        "midi": 58,
        "time": 27.2,
        "duration": 1.6,
        "velocity": 0.57,
        "hand": "left"
      },
      {
        "midi": 62,
        "time": 27.2,
        "duration": 1.6,
        "velocity": 0.66,
        "hand": "right"
      },
      {
        "midi": 70,
        "time": 27.2,
        "duration": 1.6,
        "velocity": 0.66,
        "hand": "right"
      }
    ]
  },
  "notes1Hand": [
    {
      "midi": 65,
      "time": 0,
      "duration": 0.6,
      "velocity": 0.54,
      "hand": "right"
    },
    {
      "midi": 67,
      "time": 0.6,
      "duration": 0.24,
      "velocity": 0.63,
      "hand": "right"
    },
    {
      "midi": 62,
      "time": 1.6,
      "duration": 0.8,
      "velocity": 0.54,
      "hand": "right"
    },
    {
      "midi": 70,
      "time": 2.4,
      "duration": 0.6,
      "velocity": 0.73,
      "hand": "right"
    },
    {
      "midi": 67,
      "time": 3,
      "duration": 0.24,
      "velocity": 0.56,
      "hand": "right"
    },
    {
      "midi": 70,
      "time": 4.8,
      "duration": 0.4,
      "velocity": 0.7,
      "hand": "right"
    },
    {
      "midi": 74,
      "time": 5.6,
      "duration": 1.2,
      "velocity": 0.66,
      "hand": "right"
    },
    {
      "midi": 72,
      "time": 6.8,
      "duration": 0.4,
      "velocity": 0.56,
      "hand": "right"
    },
    {
      "midi": 69,
      "time": 7.6,
      "duration": 0.4,
      "velocity": 0.54,
      "hand": "right"
    },
    {
      "midi": 69,
      "time": 9.6,
      "duration": 0.6,
      "velocity": 0.56,
      "hand": "right"
    },
    {
      "midi": 70,
      "time": 10.2,
      "duration": 0.24,
      "velocity": 0.61,
      "hand": "right"
    },
    {
      "midi": 72,
      "time": 11.6,
      "duration": 0.4,
      "velocity": 0.63,
      "hand": "right"
    },
    {
      "midi": 65,
      "time": 12.4,
      "duration": 0.4,
      "velocity": 0.54,
      "hand": "right"
    },
    {
      "midi": 69,
      "time": 14.4,
      "duration": 0.6,
      "velocity": 0.57,
      "hand": "right"
    },
    {
      "midi": 70,
      "time": 15,
      "duration": 0.24,
      "velocity": 0.6,
      "hand": "right"
    },
    {
      "midi": 72,
      "time": 16.4,
      "duration": 0.4,
      "velocity": 0.64,
      "hand": "right"
    },
    {
      "midi": 65,
      "time": 17.2,
      "duration": 0.4,
      "velocity": 0.54,
      "hand": "right"
    },
    {
      "midi": 65,
      "time": 19.2,
      "duration": 0.6,
      "velocity": 0.52,
      "hand": "right"
    },
    {
      "midi": 67,
      "time": 19.8,
      "duration": 0.24,
      "velocity": 0.68,
      "hand": "right"
    },
    {
      "midi": 62,
      "time": 20.8,
      "duration": 0.8,
      "velocity": 0.54,
      "hand": "right"
    },
    {
      "midi": 70,
      "time": 21.6,
      "duration": 0.6,
      "velocity": 0.73,
      "hand": "right"
    },
    {
      "midi": 67,
      "time": 22.2,
      "duration": 0.24,
      "velocity": 0.57,
      "hand": "right"
    },
    {
      "midi": 70,
      "time": 24,
      "duration": 0.4,
      "velocity": 0.68,
      "hand": "right"
    },
    {
      "midi": 74,
      "time": 24.8,
      "duration": 1.2,
      "velocity": 0.65,
      "hand": "right"
    },
    {
      "midi": 72,
      "time": 26,
      "duration": 0.4,
      "velocity": 0.54,
      "hand": "right"
    },
    {
      "midi": 69,
      "time": 26.8,
      "duration": 0.4,
      "velocity": 0.57,
      "hand": "right"
    }
  ],
  "notes2Hands": [
    {
      "midi": 46,
      "time": 0,
      "duration": 0.585,
      "velocity": 0.57,
      "hand": "left"
    },
    {
      "midi": 58,
      "time": 0,
      "duration": 0.585,
      "velocity": 0.57,
      "hand": "left"
    },
    {
      "midi": 62,
      "time": 0,
      "duration": 0.6,
      "velocity": 0.54,
      "hand": "right"
    },
    {
      "midi": 65,
      "time": 0,
      "duration": 0.6,
      "velocity": 0.54,
      "hand": "right"
    },
    {
      "midi": 46,
      "time": 0.6,
      "duration": 0.185,
      "velocity": 0.57,
      "hand": "left"
    },
    {
      "midi": 58,
      "time": 0.6,
      "duration": 0.185,
      "velocity": 0.57,
      "hand": "left"
    },
    {
      "midi": 63,
      "time": 0.6,
      "duration": 0.2,
      "velocity": 0.63,
      "hand": "right"
    },
    {
      "midi": 67,
      "time": 0.6,
      "duration": 0.2,
      "velocity": 0.63,
      "hand": "right"
    },
    {
      "midi": 46,
      "time": 0.8,
      "duration": 0.785,
      "velocity": 0.58,
      "hand": "left"
    },
    {
      "midi": 58,
      "time": 0.8,
      "duration": 0.785,
      "velocity": 0.58,
      "hand": "left"
    },
    {
      "midi": 62,
      "time": 0.8,
      "duration": 0.785,
      "velocity": 0.54,
      "hand": "right"
    },
    {
      "midi": 65,
      "time": 0.8,
      "duration": 0.8,
      "velocity": 0.54,
      "hand": "right"
    },
    {
      "midi": 46,
      "time": 1.6,
      "duration": 0.8,
      "velocity": 0.57,
      "hand": "left"
    },
    {
      "midi": 53,
      "time": 1.6,
      "duration": 0.8,
      "velocity": 0.57,
      "hand": "left"
    },
    {
      "midi": 62,
      "time": 1.6,
      "duration": 0.8,
      "velocity": 0.54,
      "hand": "right"
    },
    {
      "midi": 50,
      "time": 2.4,
      "duration": 0.6,
      "velocity": 0.62,
      "hand": "left"
    },
    {
      "midi": 58,
      "time": 2.4,
      "duration": 0.585,
      "velocity": 0.62,
      "hand": "left"
    },
    {
      "midi": 65,
      "time": 2.4,
      "duration": 0.6,
      "velocity": 0.73,
      "hand": "right"
    },
    {
      "midi": 70,
      "time": 2.4,
      "duration": 0.6,
      "velocity": 0.73,
      "hand": "right"
    },
    {
      "midi": 51,
      "time": 3,
      "duration": 0.2,
      "velocity": 0.61,
      "hand": "left"
    },
    {
      "midi": 58,
      "time": 3,
      "duration": 0.185,
      "velocity": 0.61,
      "hand": "left"
    },
    {
      "midi": 63,
      "time": 3,
      "duration": 0.2,
      "velocity": 0.56,
      "hand": "right"
    },
    {
      "midi": 67,
      "time": 3,
      "duration": 0.2,
      "velocity": 0.56,
      "hand": "right"
    },
    {
      "midi": 46,
      "time": 3.2,
      "duration": 1.6,
      "velocity": 0.6,
      "hand": "left"
    },
    {
      "midi": 58,
      "time": 3.2,
      "duration": 1.585,
      "velocity": 0.6,
      "hand": "left"
    },
    {
      "midi": 62,
      "time": 3.2,
      "duration": 1.6,
      "velocity": 0.56,
      "hand": "right"
    },
    {
      "midi": 65,
      "time": 3.2,
      "duration": 1.585,
      "velocity": 0.56,
      "hand": "right"
    },
    {
      "midi": 50,
      "time": 4.8,
      "duration": 0.4,
      "velocity": 0.59,
      "hand": "left"
    },
    {
      "midi": 58,
      "time": 4.8,
      "duration": 0.4,
      "velocity": 0.59,
      "hand": "left"
    },
    {
      "midi": 65,
      "time": 4.8,
      "duration": 0.385,
      "velocity": 0.7,
      "hand": "right"
    },
    {
      "midi": 70,
      "time": 4.8,
      "duration": 0.4,
      "velocity": 0.7,
      "hand": "right"
    },
    {
      "midi": 53,
      "time": 5.2,
      "duration": 0.4,
      "velocity": 0.59,
      "hand": "left"
    },
    {
      "midi": 57,
      "time": 5.2,
      "duration": 0.4,
      "velocity": 0.59,
      "hand": "left"
    },
    {
      "midi": 65,
      "time": 5.2,
      "duration": 0.385,
      "velocity": 0.68,
      "hand": "right"
    },
    {
      "midi": 72,
      "time": 5.2,
      "duration": 0.4,
      "velocity": 0.68,
      "hand": "right"
    },
    {
      "midi": 58,
      "time": 5.6,
      "duration": 1.2,
      "velocity": 0.54,
      "hand": "left"
    },
    {
      "midi": 65,
      "time": 5.6,
      "duration": 1.2,
      "velocity": 0.66,
      "hand": "right"
    },
    {
      "midi": 74,
      "time": 5.6,
      "duration": 1.2,
      "velocity": 0.66,
      "hand": "right"
    },
    {
      "midi": 51,
      "time": 6.8,
      "duration": 0.4,
      "velocity": 0.68,
      "hand": "left"
    },
    {
      "midi": 63,
      "time": 6.8,
      "duration": 0.4,
      "velocity": 0.68,
      "hand": "right"
    },
    {
      "midi": 67,
      "time": 6.8,
      "duration": 0.4,
      "velocity": 0.56,
      "hand": "right"
    },
    {
      "midi": 72,
      "time": 6.8,
      "duration": 0.4,
      "velocity": 0.56,
      "hand": "right"
    },
    {
      "midi": 53,
      "time": 7.2,
      "duration": 0.385,
      "velocity": 0.62,
      "hand": "left"
    },
    {
      "midi": 62,
      "time": 7.2,
      "duration": 0.4,
      "velocity": 0.62,
      "hand": "right"
    },
    {
      "midi": 65,
      "time": 7.2,
      "duration": 0.4,
      "velocity": 0.54,
      "hand": "right"
    },
    {
      "midi": 70,
      "time": 7.2,
      "duration": 0.4,
      "velocity": 0.54,
      "hand": "right"
    },
    {
      "midi": 53,
      "time": 7.6,
      "duration": 0.4,
      "velocity": 0.57,
      "hand": "left"
    },
    {
      "midi": 60,
      "time": 7.6,
      "duration": 0.4,
      "velocity": 0.57,
      "hand": "right"
    },
    {
      "midi": 63,
      "time": 7.6,
      "duration": 0.4,
      "velocity": 0.54,
      "hand": "right"
    },
    {
      "midi": 69,
      "time": 7.6,
      "duration": 0.4,
      "velocity": 0.54,
      "hand": "right"
    },
    {
      "midi": 46,
      "time": 8,
      "duration": 1.6,
      "velocity": 0.57,
      "hand": "left"
    },
    {
      "midi": 58,
      "time": 8,
      "duration": 1.6,
      "velocity": 0.57,
      "hand": "left"
    },
    {
      "midi": 62,
      "time": 8,
      "duration": 1.6,
      "velocity": 0.58,
      "hand": "right"
    },
    {
      "midi": 70,
      "time": 8,
      "duration": 1.6,
      "velocity": 0.58,
      "hand": "right"
    },
    {
      "midi": 53,
      "time": 9.6,
      "duration": 0.585,
      "velocity": 0.55,
      "hand": "left"
    },
    {
      "midi": 60,
      "time": 9.6,
      "duration": 0.6,
      "velocity": 0.56,
      "hand": "right"
    },
    {
      "midi": 69,
      "time": 9.6,
      "duration": 0.6,
      "velocity": 0.56,
      "hand": "right"
    },
    {
      "midi": 53,
      "time": 10.2,
      "duration": 0.185,
      "velocity": 0.61,
      "hand": "left"
    },
    {
      "midi": 62,
      "time": 10.2,
      "duration": 0.2,
      "velocity": 0.61,
      "hand": "right"
    },
    {
      "midi": 70,
      "time": 10.2,
      "duration": 0.2,
      "velocity": 0.61,
      "hand": "right"
    },
    {
      "midi": 53,
      "time": 10.4,
      "duration": 1.185,
      "velocity": 0.61,
      "hand": "left"
    },
    {
      "midi": 63,
      "time": 10.4,
      "duration": 1.185,
      "velocity": 0.61,
      "hand": "right"
    },
    {
      "midi": 72,
      "time": 10.4,
      "duration": 1.185,
      "velocity": 0.61,
      "hand": "right"
    },
    {
      "midi": 53,
      "time": 11.6,
      "duration": 0.385,
      "velocity": 0.62,
      "hand": "left"
    },
    {
      "midi": 57,
      "time": 11.6,
      "duration": 0.4,
      "velocity": 0.62,
      "hand": "left"
    },
    {
      "midi": 63,
      "time": 11.6,
      "duration": 0.385,
      "velocity": 0.63,
      "hand": "right"
    },
    {
      "midi": 72,
      "time": 11.6,
      "duration": 0.4,
      "velocity": 0.63,
      "hand": "right"
    },
    {
      "midi": 53,
      "time": 12,
      "duration": 0.385,
      "velocity": 0.69,
      "hand": "left"
    },
    {
      "midi": 60,
      "time": 12,
      "duration": 0.4,
      "velocity": 0.69,
      "hand": "right"
    },
    {
      "midi": 63,
      "time": 12,
      "duration": 0.385,
      "velocity": 0.54,
      "hand": "right"
    },
    {
      "midi": 69,
      "time": 12,
      "duration": 0.4,
      "velocity": 0.54,
      "hand": "right"
    },
    {
      "midi": 53,
      "time": 12.4,
      "duration": 0.4,
      "velocity": 0.58,
      "hand": "left"
    },
    {
      "midi": 57,
      "time": 12.4,
      "duration": 0.4,
      "velocity": 0.58,
      "hand": "left"
    },
    {
      "midi": 63,
      "time": 12.4,
      "duration": 0.4,
      "velocity": 0.54,
      "hand": "right"
    },
    {
      "midi": 65,
      "time": 12.4,
      "duration": 0.4,
      "velocity": 0.54,
      "hand": "right"
    },
    {
      "midi": 46,
      "time": 12.8,
      "duration": 1.6,
      "velocity": 0.57,
      "hand": "left"
    },
    {
      "midi": 58,
      "time": 12.8,
      "duration": 1.6,
      "velocity": 0.57,
      "hand": "left"
    },
    {
      "midi": 62,
      "time": 12.8,
      "duration": 1.6,
      "velocity": 0.65,
      "hand": "right"
    },
    {
      "midi": 70,
      "time": 12.8,
      "duration": 1.6,
      "velocity": 0.65,
      "hand": "right"
    },
    {
      "midi": 53,
      "time": 14.4,
      "duration": 0.585,
      "velocity": 0.52,
      "hand": "left"
    },
    {
      "midi": 60,
      "time": 14.4,
      "duration": 0.6,
      "velocity": 0.57,
      "hand": "right"
    },
    {
      "midi": 69,
      "time": 14.4,
      "duration": 0.6,
      "velocity": 0.57,
      "hand": "right"
    },
    {
      "midi": 53,
      "time": 15,
      "duration": 0.185,
      "velocity": 0.62,
      "hand": "left"
    },
    {
      "midi": 58,
      "time": 15,
      "duration": 0.2,
      "velocity": 0.62,
      "hand": "left"
    },
    {
      "midi": 62,
      "time": 15,
      "duration": 0.2,
      "velocity": 0.6,
      "hand": "right"
    },
    {
      "midi": 70,
      "time": 15,
      "duration": 0.2,
      "velocity": 0.6,
      "hand": "right"
    },
    {
      "midi": 53,
      "time": 15.2,
      "duration": 1.185,
      "velocity": 0.57,
      "hand": "left"
    },
    {
      "midi": 57,
      "time": 15.2,
      "duration": 1.185,
      "velocity": 0.57,
      "hand": "left"
    },
    {
      "midi": 63,
      "time": 15.2,
      "duration": 1.185,
      "velocity": 0.64,
      "hand": "right"
    },
    {
      "midi": 72,
      "time": 15.2,
      "duration": 1.185,
      "velocity": 0.64,
      "hand": "right"
    },
    {
      "midi": 53,
      "time": 16.4,
      "duration": 0.385,
      "velocity": 0.58,
      "hand": "left"
    },
    {
      "midi": 57,
      "time": 16.4,
      "duration": 0.4,
      "velocity": 0.58,
      "hand": "left"
    },
    {
      "midi": 63,
      "time": 16.4,
      "duration": 0.385,
      "velocity": 0.64,
      "hand": "right"
    },
    {
      "midi": 72,
      "time": 16.4,
      "duration": 0.4,
      "velocity": 0.64,
      "hand": "right"
    },
    {
      "midi": 53,
      "time": 16.8,
      "duration": 0.385,
      "velocity": 0.65,
      "hand": "left"
    },
    {
      "midi": 60,
      "time": 16.8,
      "duration": 0.4,
      "velocity": 0.65,
      "hand": "right"
    },
    {
      "midi": 63,
      "time": 16.8,
      "duration": 0.385,
      "velocity": 0.54,
      "hand": "right"
    },
    {
      "midi": 69,
      "time": 16.8,
      "duration": 0.4,
      "velocity": 0.54,
      "hand": "right"
    },
    {
      "midi": 53,
      "time": 17.2,
      "duration": 0.4,
      "velocity": 0.58,
      "hand": "left"
    },
    {
      "midi": 57,
      "time": 17.2,
      "duration": 0.4,
      "velocity": 0.58,
      "hand": "left"
    },
    {
      "midi": 63,
      "time": 17.2,
      "duration": 0.4,
      "velocity": 0.54,
      "hand": "right"
    },
    {
      "midi": 65,
      "time": 17.2,
      "duration": 0.4,
      "velocity": 0.54,
      "hand": "right"
    },
    {
      "midi": 46,
      "time": 17.6,
      "duration": 1.585,
      "velocity": 0.62,
      "hand": "left"
    },
    {
      "midi": 58,
      "time": 17.6,
      "duration": 1.585,
      "velocity": 0.62,
      "hand": "left"
    },
    {
      "midi": 62,
      "time": 17.6,
      "duration": 1.585,
      "velocity": 0.65,
      "hand": "right"
    },
    {
      "midi": 70,
      "time": 17.6,
      "duration": 1.6,
      "velocity": 0.65,
      "hand": "right"
    },
    {
      "midi": 46,
      "time": 19.2,
      "duration": 0.585,
      "velocity": 0.6,
      "hand": "left"
    },
    {
      "midi": 58,
      "time": 19.2,
      "duration": 0.585,
      "velocity": 0.6,
      "hand": "left"
    },
    {
      "midi": 62,
      "time": 19.2,
      "duration": 0.6,
      "velocity": 0.52,
      "hand": "right"
    },
    {
      "midi": 65,
      "time": 19.2,
      "duration": 0.6,
      "velocity": 0.52,
      "hand": "right"
    },
    {
      "midi": 46,
      "time": 19.8,
      "duration": 0.185,
      "velocity": 0.58,
      "hand": "left"
    },
    {
      "midi": 58,
      "time": 19.8,
      "duration": 0.185,
      "velocity": 0.58,
      "hand": "left"
    },
    {
      "midi": 63,
      "time": 19.8,
      "duration": 0.2,
      "velocity": 0.68,
      "hand": "right"
    },
    {
      "midi": 67,
      "time": 19.8,
      "duration": 0.2,
      "velocity": 0.68,
      "hand": "right"
    },
    {
      "midi": 46,
      "time": 20,
      "duration": 0.785,
      "velocity": 0.57,
      "hand": "left"
    },
    {
      "midi": 58,
      "time": 20,
      "duration": 0.785,
      "velocity": 0.57,
      "hand": "left"
    },
    {
      "midi": 62,
      "time": 20,
      "duration": 0.785,
      "velocity": 0.55,
      "hand": "right"
    },
    {
      "midi": 65,
      "time": 20,
      "duration": 0.8,
      "velocity": 0.55,
      "hand": "right"
    },
    {
      "midi": 46,
      "time": 20.8,
      "duration": 0.8,
      "velocity": 0.56,
      "hand": "left"
    },
    {
      "midi": 53,
      "time": 20.8,
      "duration": 0.8,
      "velocity": 0.56,
      "hand": "left"
    },
    {
      "midi": 62,
      "time": 20.8,
      "duration": 0.8,
      "velocity": 0.54,
      "hand": "right"
    },
    {
      "midi": 50,
      "time": 21.6,
      "duration": 0.6,
      "velocity": 0.63,
      "hand": "left"
    },
    {
      "midi": 58,
      "time": 21.6,
      "duration": 0.585,
      "velocity": 0.63,
      "hand": "left"
    },
    {
      "midi": 65,
      "time": 21.6,
      "duration": 0.6,
      "velocity": 0.73,
      "hand": "right"
    },
    {
      "midi": 70,
      "time": 21.6,
      "duration": 0.6,
      "velocity": 0.73,
      "hand": "right"
    },
    {
      "midi": 51,
      "time": 22.2,
      "duration": 0.2,
      "velocity": 0.61,
      "hand": "left"
    },
    {
      "midi": 58,
      "time": 22.2,
      "duration": 0.185,
      "velocity": 0.61,
      "hand": "left"
    },
    {
      "midi": 63,
      "time": 22.2,
      "duration": 0.2,
      "velocity": 0.57,
      "hand": "right"
    },
    {
      "midi": 67,
      "time": 22.2,
      "duration": 0.2,
      "velocity": 0.57,
      "hand": "right"
    },
    {
      "midi": 46,
      "time": 22.4,
      "duration": 1.6,
      "velocity": 0.57,
      "hand": "left"
    },
    {
      "midi": 58,
      "time": 22.4,
      "duration": 1.585,
      "velocity": 0.57,
      "hand": "left"
    },
    {
      "midi": 62,
      "time": 22.4,
      "duration": 1.585,
      "velocity": 0.54,
      "hand": "right"
    },
    {
      "midi": 65,
      "time": 22.4,
      "duration": 1.6,
      "velocity": 0.54,
      "hand": "right"
    },
    {
      "midi": 55,
      "time": 24,
      "duration": 0.4,
      "velocity": 0.55,
      "hand": "left"
    },
    {
      "midi": 58,
      "time": 24,
      "duration": 0.4,
      "velocity": 0.55,
      "hand": "left"
    },
    {
      "midi": 62,
      "time": 24,
      "duration": 0.4,
      "velocity": 0.68,
      "hand": "right"
    },
    {
      "midi": 70,
      "time": 24,
      "duration": 0.4,
      "velocity": 0.68,
      "hand": "right"
    },
    {
      "midi": 53,
      "time": 24.4,
      "duration": 0.4,
      "velocity": 0.58,
      "hand": "left"
    },
    {
      "midi": 57,
      "time": 24.4,
      "duration": 0.4,
      "velocity": 0.58,
      "hand": "left"
    },
    {
      "midi": 63,
      "time": 24.4,
      "duration": 0.4,
      "velocity": 0.65,
      "hand": "right"
    },
    {
      "midi": 72,
      "time": 24.4,
      "duration": 0.4,
      "velocity": 0.65,
      "hand": "right"
    },
    {
      "midi": 58,
      "time": 24.8,
      "duration": 1.2,
      "velocity": 0.64,
      "hand": "left"
    },
    {
      "midi": 65,
      "time": 24.8,
      "duration": 1.2,
      "velocity": 0.65,
      "hand": "right"
    },
    {
      "midi": 74,
      "time": 24.8,
      "duration": 1.2,
      "velocity": 0.65,
      "hand": "right"
    },
    {
      "midi": 51,
      "time": 26,
      "duration": 0.4,
      "velocity": 0.71,
      "hand": "left"
    },
    {
      "midi": 63,
      "time": 26,
      "duration": 0.4,
      "velocity": 0.71,
      "hand": "right"
    },
    {
      "midi": 67,
      "time": 26,
      "duration": 0.4,
      "velocity": 0.54,
      "hand": "right"
    },
    {
      "midi": 72,
      "time": 26,
      "duration": 0.4,
      "velocity": 0.54,
      "hand": "right"
    },
    {
      "midi": 53,
      "time": 26.4,
      "duration": 0.385,
      "velocity": 0.57,
      "hand": "left"
    },
    {
      "midi": 62,
      "time": 26.4,
      "duration": 0.4,
      "velocity": 0.57,
      "hand": "right"
    },
    {
      "midi": 65,
      "time": 26.4,
      "duration": 0.4,
      "velocity": 0.54,
      "hand": "right"
    },
    {
      "midi": 70,
      "time": 26.4,
      "duration": 0.4,
      "velocity": 0.54,
      "hand": "right"
    },
    {
      "midi": 53,
      "time": 26.8,
      "duration": 0.4,
      "velocity": 0.57,
      "hand": "left"
    },
    {
      "midi": 60,
      "time": 26.8,
      "duration": 0.4,
      "velocity": 0.57,
      "hand": "right"
    },
    {
      "midi": 63,
      "time": 26.8,
      "duration": 0.4,
      "velocity": 0.57,
      "hand": "right"
    },
    {
      "midi": 69,
      "time": 26.8,
      "duration": 0.4,
      "velocity": 0.57,
      "hand": "right"
    },
    {
      "midi": 46,
      "time": 27.2,
      "duration": 1.6,
      "velocity": 0.57,
      "hand": "left"
    },
    {
      "midi": 58,
      "time": 27.2,
      "duration": 1.6,
      "velocity": 0.57,
      "hand": "left"
    },
    {
      "midi": 62,
      "time": 27.2,
      "duration": 1.6,
      "velocity": 0.66,
      "hand": "right"
    },
    {
      "midi": 70,
      "time": 27.2,
      "duration": 1.6,
      "velocity": 0.66,
      "hand": "right"
    }
  ]
}
