{
  "id": "samba-lele",
  "title": "Samba Lelê",
  "artist": "Tradicional",
  "difficulty": "Fácil",
  "bpm": 120,
  "duration": 66,
  "category": "Infantis",
  "isPremium": false,
  "coverUrl": "/images/covers/placeholder.png",
  "notes": [
    {
      "midi": 38,
      "time": 0,
      "duration": 1.5,
      "velocity": 0.79,
      "hand": "left"
    },
    {
      "midi": 50,
      "time": 0.125,
      "duration": 1.5,
      "velocity": 0.79,
      "hand": "left"
    },
    {
      "midi": 57,
      "time": 0.125,
      "duration": 1.375,
      "velocity": 0.79,
      "hand": "left"
    },
    {
      "midi": 57,
      "time": 0.25,
      "duration": 0.25,
      "velocity": 0.79,
      "hand": "left"
    },
    {
      "midi": 62,
      "time": 0.25,
      "duration": 1.375,
      "velocity": 0.79,
      "hand": "right"
    },
    {
      "midi": 66,
      "time": 0.25,
      "duration": 1.25,
      "velocity": 0.79,
      "hand": "right"
    },
    {
      "midi": 69,
      "time": 0.5,
      "duration": 0.25,
      "velocity": 0.79,
      "hand": "right"
    },
    {
      "midi": 69,
      "time": 0.75,
      "duration": 0.25,
      "velocity": 0.79,
      "hand": "right"
    },
    {
      "midi": 69,
      "time": 1,
      "duration": 0.25,
      "velocity": 0.79,
      "hand": "right"
    },
    {
      "midi": 61,
      "time": 1.25,
      "duration": 0.25,
      "velocity": 0.79,
      "hand": "right"
    },
    {
      "midi": 38,
      "time": 1.5,
      "duration": 0.5,
      "velocity": 0.79,
      "hand": "left"
    },
    {
      "midi": 57,
      "time": 1.5,
      "duration": 0.5,
      "velocity": 0.79,
      "hand": "left"
    },
    {
      "midi": 62,
      "time": 1.5,
      "duration": 0.5,
      "velocity": 0.79,
      "hand": "right"
    },
    {
      "midi": 66,
      "time": 1.5,
      "duration": 0.5,
      "velocity": 0.79,
      "hand": "right"
    },
    {
      "midi": 38,
      "time": 2,
      "duration": 1.5,
      "velocity": 0.79,
      "hand": "left"
    },
    {
      "midi": 50,
      "time": 2.125,
      "duration": 1.5,
      "velocity": 0.79,
      "hand": "left"
    },
    {
      "midi": 61,
      "time": 2.125,
      "duration": 1.375,
      "velocity": 0.79,
      "hand": "right"
    },
    {
      "midi": 57,
      "time": 2.25,
      "duration": 0.25,
      "velocity": 0.79,
      "hand": "left"
    },
    {
      "midi": 65,
      "time": 2.25,
      "duration": 1.375,
      "velocity": 0.79,
      "hand": "right"
    },
    {
      "midi": 69,
      "time": 2.5,
      "duration": 0.25,
      "velocity": 0.79,
      "hand": "right"
    },
    {
      "midi": 69,
      "time": 2.75,
      "duration": 0.25,
      "velocity": 0.79,
      "hand": "right"
    },
    {
      "midi": 69,
      "time": 3,
      "duration": 0.25,
      "velocity": 0.79,
      "hand": "right"
    },
    {
      "midi": 61,
      "time": 3.25,
      "duration": 0.25,
      "velocity": 0.79,
      "hand": "right"
    },
    {
      "midi": 38,
      "time": 3.5,
      "duration": 0.5,
      "velocity": 0.79,
      "hand": "left"
    },
    {
      "midi": 57,
      "time": 3.5,
      "duration": 0.5,
      "velocity": 0.79,
      "hand": "left"
    },
    {
      "midi": 61,
      "time": 3.5,
      "duration": 0.5,
      "velocity": 0.79,
      "hand": "right"
    },
    {
      "midi": 65,
      "time": 3.5,
      "duration": 0.5,
      "velocity": 0.79,
      "hand": "right"
    },
    {
      "midi": 38,
      "time": 4,
      "duration": 1.5,
      "velocity": 0.79,
      "hand": "left"
    },
    {
      "midi": 50,
      "time": 4.125,
      "duration": 1.5,
      "velocity": 0.79,
      "hand": "left"
    },
    {
      "midi": 57,
      "time": 4.125,
      "duration": 1.375,
      "velocity": 0.79,
      "hand": "left"
    },
    {
      "midi": 57,
      "time": 4.25,
      "duration": 0.25,
      "velocity": 0.79,
      "hand": "left"
    },
    {
      "midi": 62,
      "time": 4.25,
      "duration": 1.375,
      "velocity": 0.79,
      "hand": "right"
    },
    {
      "midi": 66,
      "time": 4.25,
      "duration": 1.25,
      "velocity": 0.79,
      "hand": "right"
    },
    {
      "midi": 69,
      "time": 4.5,
      "duration": 0.25,
      "velocity": 0.79,
      "hand": "right"
    },
    {
      "midi": 69,
      "time": 4.75,
      "duration": 0.25,
      "velocity": 0.79,
      "hand": "right"
    },
    {
      "midi": 69,
      "time": 5,
      "duration": 0.25,
      "velocity": 0.79,
      "hand": "right"
    },
    {
      "midi": 61,
      "time": 5.25,
      "duration": 0.25,
      "velocity": 0.79,
      "hand": "right"
    },
    {
      "midi": 38,
      "time": 5.5,
      "duration": 0.5,
      "velocity": 0.79,
      "hand": "left"
    },
    {
      "midi": 57,
      "time": 5.5,
      "duration": 0.5,
      "velocity": 0.79,
      "hand": "left"
    },
    {
      "midi": 62,
      "time": 5.5,
      "duration": 0.5,
      "velocity": 0.79,
      "hand": "right"
    },
    {
      "midi": 66,
      "time": 5.5,
      "duration": 0.5,
      "velocity": 0.79,
      "hand": "right"
    },
    {
      "midi": 38,
      "time": 6,
      "duration": 1.5,
      "velocity": 0.79,
      "hand": "left"
    },
    {
      "midi": 50,
      "time": 6.125,
      "duration": 1.5,
      "velocity": 0.79,
      "hand": "left"
    },
    {
      "midi": 61,
      "time": 6.125,
      "duration": 1.375,
      "velocity": 0.79,
      "hand": "right"
    },
    {
      "midi": 57,
      "time": 6.25,
      "duration": 0.25,
      "velocity": 0.79,
      "hand": "left"
    },
    {
      "midi": 65,
      "time": 6.25,
      "duration": 1.375,
      "velocity": 0.79,
      "hand": "right"
    },
    {
      "midi": 69,
      "time": 6.5,
      "duration": 0.25,
      "velocity": 0.79,
      "hand": "right"
    },
    {
      "midi": 69,
      "time": 6.75,
      "duration": 0.25,
      "velocity": 0.79,
      "hand": "right"
    },
    {
      "midi": 69,
      "time": 7,
      "duration": 0.25,
      "velocity": 0.79,
      "hand": "right"
    },
    {
      "midi": 61,
      "time": 7.25,
      "duration": 0.25,
      "velocity": 0.79,
      "hand": "right"
    },
    {
      "midi": 38,
      "time": 7.5,
      "duration": 0.5,
      "velocity": 0.79,
      "hand": "left"
    },
    {
      "midi": 55,
      "time": 7.5,
      "duration": 0.5,
      "velocity": 0.79,
      "hand": "left"
    },
    {
      "midi": 61,
      "time": 7.5,
      "duration": 0.5,
      "velocity": 0.79,
      "hand": "right"
    },
    {
      "midi": 64,
      "time": 7.5,
      "duration": 0.5,
      "velocity": 0.79,
      "hand": "right"
    },
    {
      "midi": 38,
      "time": 8,
      "duration": 1.5,
      "velocity": 0.79,
      "hand": "left"
    },
    {
      "midi": 50,
      "time": 8.125,
      "duration": 1.5,
      "velocity": 0.79,
      "hand": "left"
    },
    {
      "midi": 54,
      "time": 8.125,
      "duration": 1.375,
      "velocity": 0.79,
      "hand": "left"
    },
    {
      "midi": 45,
      "time": 8.25,
      "duration": 0.25,
      "velocity": 0.79,
      "hand": "left"
    },
    {
      "midi": 57,
      "time": 8.25,
      "duration": 1.375,
      "velocity": 0.79,
      "hand": "left"
    },
    {
      "midi": 62,
      "time": 8.25,
      "duration": 1.25,
      "velocity": 0.79,
      "hand": "right"
    },
    {
      "midi": 57,
      "time": 8.5,
      "duration": 0.25,
      "velocity": 0.79,
      "hand": "left"
    },
    {
      "midi": 57,
      "time": 8.75,
      "duration": 0.25,
      "velocity": 0.79,
      "hand": "left"
    },
    {
      "midi": 57,
      "time": 9,
      "duration": 1,
      "velocity": 0.79,
      "hand": "left"
    },
    {
      "midi": 38,
      "time": 10,
      "duration": 1.5,
      "velocity": 0.79,
      "hand": "left"
    },
    {
      "midi": 50,
      "time": 10.125,
      "duration": 1.5,
      "velocity": 0.79,
      "hand": "left"
    },
    {
      "midi": 57,
      "time": 10.125,
      "duration": 1.375,
      "velocity": 0.79,
      "hand": "left"
    },
    {
      "midi": 57,
      "time": 10.25,
      "duration": 0.25,
      "velocity": 0.79,
      "hand": "left"
    },
    {
      "midi": 62,
      "time": 10.25,
      "duration": 1.375,
      "velocity": 0.79,
      "hand": "right"
    },
    {
      "midi": 66,
      "time": 10.25,
      "duration": 1.25,
      "velocity": 0.79,
      "hand": "right"
    },
    {
      "midi": 69,
      "time": 10.5,
      "duration": 0.25,
      "velocity": 0.79,
      "hand": "right"
    },
    {
      "midi": 69,
      "time": 10.75,
      "duration": 0.25,
      "velocity": 0.79,
      "hand": "right"
    },
    {
      "midi": 69,
      "time": 11,
      "duration": 0.25,
      "velocity": 0.79,
      "hand": "right"
    },
    {
      "midi": 61,
      "time": 11.25,
      "duration": 0.25,
      "velocity": 0.79,
      "hand": "right"
    },
    {
      "midi": 38,
      "time": 11.5,
      "duration": 0.5,
      "velocity": 0.79,
      "hand": "left"
    },
    {
      "midi": 57,
      "time": 11.5,
      "duration": 0.5,
      "velocity": 0.79,
      "hand": "left"
    },
    {
      "midi": 62,
      "time": 11.5,
      "duration": 0.5,
      "velocity": 0.79,
      "hand": "right"
    },
    {
      "midi": 66,
      "time": 11.5,
      "duration": 0.5,
      "velocity": 0.79,
      "hand": "right"
    },
    {
      "midi": 38,
      "time": 12,
      "duration": 1.5,
      "velocity": 0.79,
      "hand": "left"
    },
    {
      "midi": 50,
      "time": 12.125,
      "duration": 1.5,
      "velocity": 0.79,
      "hand": "left"
    },
    {
      "midi": 61,
      "time": 12.125,
      "duration": 1.375,
      "velocity": 0.79,
      "hand": "right"
    },
    {
      "midi": 57,
      "time": 12.25,
      "duration": 0.25,
      "velocity": 0.79,
      "hand": "left"
    },
    {
      "midi": 65,
      "time": 12.25,
      "duration": 1.375,
      "velocity": 0.79,
      "hand": "right"
    },
    {
      "midi": 69,
      "time": 12.5,
      "duration": 0.25,
      "velocity": 0.79,
      "hand": "right"
    },
    {
      "midi": 69,
      "time": 12.75,
      "duration": 0.25,
      "velocity": 0.79,
      "hand": "right"
    },
    {
      "midi": 69,
      "time": 13,
      "duration": 0.25,
      "velocity": 0.79,
      "hand": "right"
    },
    {
      "midi": 61,
      "time": 13.25,
      "duration": 0.25,
      "velocity": 0.79,
      "hand": "right"
    },
    {
      "midi": 38,
      "time": 13.5,
      "duration": 0.5,
      "velocity": 0.79,
      "hand": "left"
    },
    {
      "midi": 57,
      "time": 13.5,
      "duration": 0.5,
      "velocity": 0.79,
      "hand": "left"
    },
    {
      "midi": 61,
      "time": 13.5,
      "duration": 0.5,
      "velocity": 0.79,
      "hand": "right"
    },
    {
      "midi": 65,
      "time": 13.5,
      "duration": 0.5,
      "velocity": 0.79,
      "hand": "right"
    },
    {
      "midi": 38,
      "time": 14,
      "duration": 1.5,
      "velocity": 0.79,
      "hand": "left"
    },
    {
      "midi": 50,
      "time": 14.125,
      "duration": 1.5,
      "velocity": 0.79,
      "hand": "left"
    },
    {
      "midi": 57,
      "time": 14.125,
      "duration": 1.375,
      "velocity": 0.79,
      "hand": "left"
    },
    {
      "midi": 57,
      "time": 14.25,
      "duration": 0.25,
      "velocity": 0.79,
      "hand": "left"
    },
    {
      "midi": 62,
      "time": 14.25,
      "duration": 1.375,
      "velocity": 0.79,
      "hand": "right"
    },
    {
      "midi": 66,
      "time": 14.25,
      "duration": 1.25,
      "velocity": 0.79,
      "hand": "right"
    },
    {
      "midi": 69,
      "time": 14.5,
      "duration": 0.25,
      "velocity": 0.79,
      "hand": "right"
    },
    {
      "midi": 69,
      "time": 14.75,
      "duration": 0.25,
      "velocity": 0.79,
      "hand": "right"
    },
    {
      "midi": 69,
      "time": 15,
      "duration": 0.25,
      "velocity": 0.79,
      "hand": "right"
    },
    {
      "midi": 61,
      "time": 15.25,
      "duration": 0.25,
      "velocity": 0.79,
      "hand": "right"
    },
    {
      "midi": 38,
      "time": 15.5,
      "duration": 0.5,
      "velocity": 0.79,
      "hand": "left"
    },
    {
      "midi": 57,
      "time": 15.5,
      "duration": 0.5,
      "velocity": 0.79,
      "hand": "left"
    },
    {
      "midi": 62,
      "time": 15.5,
      "duration": 0.5,
      "velocity": 0.79,
      "hand": "right"
    },
    {
      "midi": 66,
      "time": 15.5,
      "duration": 0.5,
      "velocity": 0.79,
      "hand": "right"
    },
    {
      "midi": 38,
      "time": 16,
      "duration": 1.5,
      "velocity": 0.79,
      "hand": "left"
    },
    {
      "midi": 50,
      "time": 16.125,
      "duration": 1.5,
      "velocity": 0.79,
      "hand": "left"
    },
    {
      "midi": 61,
      "time": 16.125,
      "duration": 1.375,
      "velocity": 0.79,
      "hand": "right"
    },
    {
      "midi": 57,
      "time": 16.25,
      "duration": 0.25,
      "velocity": 0.79,
      "hand": "left"
    },
    {
      "midi": 65,
      "time": 16.25,
      "duration": 1.375,
      "velocity": 0.79,
      "hand": "right"
    },
    {
      "midi": 69,
      "time": 16.5,
      "duration": 0.25,
      "velocity": 0.79,
      "hand": "right"
    },
    {
      "midi": 69,
      "time": 16.75,
      "duration": 0.25,
      "velocity": 0.79,
      "hand": "right"
    },
    {
      "midi": 69,
      "time": 17,
      "duration": 0.25,
      "velocity": 0.79,
      "hand": "right"
    },
    {
      "midi": 61,
      "time": 17.25,
      "duration": 0.25,
      "velocity": 0.79,
      "hand": "right"
    },
    {
      "midi": 38,
      "time": 17.5,
      "duration": 0.5,
      "velocity": 0.79,
      "hand": "left"
    },
    {
      "midi": 55,
      "time": 17.5,
      "duration": 0.5,
      "velocity": 0.79,
      "hand": "left"
    },
    {
      "midi": 61,
      "time": 17.5,
      "duration": 0.5,
      "velocity": 0.79,
      "hand": "right"
    },
    {
      "midi": 64,
      "time": 17.5,
      "duration": 0.5,
      "velocity": 0.79,
      "hand": "right"
    },
    {
      "midi": 38,
      "time": 18,
      "duration": 1.5,
      "velocity": 0.79,
      "hand": "left"
    },
    {
      "midi": 50,
      "time": 18.125,
      "duration": 1.5,
      "velocity": 0.79,
      "hand": "left"
    },
    {
      "midi": 54,
      "time": 18.125,
      "duration": 1.375,
      "velocity": 0.79,
      "hand": "left"
    },
    {
      "midi": 45,
      "time": 18.25,
      "duration": 0.25,
      "velocity": 0.79,
      "hand": "left"
    },
    {
      "midi": 57,
      "time": 18.25,
      "duration": 1.375,
      "velocity": 0.79,
      "hand": "left"
    },
    {
      "midi": 62,
      "time": 18.25,
      "duration": 1.25,
      "velocity": 0.79,
      "hand": "right"
    },
    {
      "midi": 57,
      "time": 18.5,
      "duration": 0.25,
      "velocity": 0.79,
      "hand": "left"
    },
    {
      "midi": 57,
      "time": 18.75,
      "duration": 0.25,
      "velocity": 0.79,
      "hand": "left"
    },
    {
      "midi": 57,
      "time": 19,
      "duration": 1,
      "velocity": 0.79,
      "hand": "left"
    },
    {
      "midi": 38,
      "time": 20,
      "duration": 1.5,
      "velocity": 0.79,
      "hand": "left"
    },
    {
      "midi": 62,
      "time": 20,
      "duration": 0.25,
      "velocity": 0.79,
      "hand": "right"
    },
    {
      "midi": 54,
      "time": 20.125,
      "duration": 1.5,
      "velocity": 0.79,
      "hand": "left"
    },
    {
      "midi": 57,
      "time": 20.125,
      "duration": 1.375,
      "velocity": 0.79,
      "hand": "left"
    },
    {
      "midi": 62,
      "time": 20.25,
      "duration": 0.5,
      "velocity": 0.79,
      "hand": "right"
    },
    {
      "midi": 66,
      "time": 20.75,
      "duration": 0.25,
      "velocity": 0.79,
      "hand": "right"
    },
    {
      "midi": 69,
      "time": 21,
      "duration": 0.25,
      "velocity": 0.79,
      "hand": "right"
    },
    {
      "midi": 66,
      "time": 21.25,
      "duration": 0.5,
      "velocity": 0.79,
      "hand": "right"
    },
    {
      "midi": 38,
      "time": 21.5,
      "duration": 0.5,
      "velocity": 0.79,
      "hand": "left"
    },
    {
      "midi": 54,
      "time": 21.5,
      "duration": 0.5,
      "velocity": 0.79,
      "hand": "left"
    },
    {
      "midi": 57,
      "time": 21.5,
      "duration": 0.5,
      "velocity": 0.79,
      "hand": "left"
    },
    {
      "midi": 62,
      "time": 21.75,
      "duration": 0.25,
      "velocity": 0.79,
      "hand": "right"
    },
    {
      "midi": 38,
      "time": 22,
      "duration": 1.5,
      "velocity": 0.79,
      "hand": "left"
    },
    {
      "midi": 50,
      "time": 22.125,
      "duration": 1.5,
      "velocity": 0.79,
      "hand": "left"
    },
    {
      "midi": 55,
      "time": 22.125,
      "duration": 1.375,
      "velocity": 0.79,
      "hand": "left"
    },
    {
      "midi": 57,
      "time": 22.25,
      "duration": 0.25,
      "velocity": 0.79,
      "hand": "left"
    },
    {
      "midi": 64,
      "time": 22.25,
      "duration": 1.375,
      "velocity": 0.79,
      "hand": "right"
    },
    {
      "midi": 69,
      "time": 22.5,
      "duration": 0.25,
      "velocity": 0.79,
      "hand": "right"
    },
    {
      "midi": 69,
      "time": 22.75,
      "duration": 0.25,
      "velocity": 0.79,
      "hand": "right"
    },
    {
      "midi": 69,
      "time": 23,
      "duration": 0.25,
      "velocity": 0.79,
      "hand": "right"
    },
    {
      "midi": 57,
      "time": 23.25,
      "duration": 0.25,
      "velocity": 0.79,
      "hand": "left"
    },
    {
      "midi": 38,
      "time": 23.5,
      "duration": 0.5,
      "velocity": 0.79,
      "hand": "left"
    },
    {
      "midi": 69,
      "time": 23.5,
      "duration": 0.5,
      "velocity": 0.79,
      "hand": "right"
    },
    {
      "midi": 38,
      "time": 24,
      "duration": 1.5,
      "velocity": 0.79,
      "hand": "left"
    },
    {
      "midi": 61,
      "time": 24,
      "duration": 0.25,
      "velocity": 0.79,
      "hand": "right"
    },
    {
      "midi": 55,
      "time": 24.125,
      "duration": 1.5,
      "velocity": 0.79,
      "hand": "left"
    },
    {
      "midi": 57,
      "time": 24.125,
      "duration": 1.375,
      "velocity": 0.79,
      "hand": "left"
    },
    {
      "midi": 61,
      "time": 24.25,
      "duration": 0.5,
      "velocity": 0.79,
      "hand": "right"
    },
    {
      "midi": 64,
      "time": 24.75,
      "duration": 0.25,
      "velocity": 0.79,
      "hand": "right"
    },
    {
      "midi": 67,
      "time": 25,
      "duration": 0.25,
      "velocity": 0.79,
      "hand": "right"
    },
    {
      "midi": 64,
      "time": 25.25,
      "duration": 0.5,
      "velocity": 0.79,
      "hand": "right"
    },
    {
      "midi": 38,
      "time": 25.5,
      "duration": 0.5,
      "velocity": 0.79,
      "hand": "left"
    },
    {
      "midi": 55,
      "time": 25.5,
      "duration": 0.5,
      "velocity": 0.79,
      "hand": "left"
    },
    {
      "midi": 57,
      "time": 25.5,
      "duration": 0.5,
      "velocity": 0.79,
      "hand": "left"
    },
    {
      "midi": 61,
      "time": 25.75,
      "duration": 0.25,
      "velocity": 0.79,
      "hand": "right"
    },
    {
      "midi": 38,
      "time": 26,
      "duration": 1,
      "velocity": 0.79,
      "hand": "left"
    },
    {
      "midi": 57,
      "time": 26.25,
      "duration": 0.25,
      "velocity": 0.79,
      "hand": "left"
    },
    {
      "midi": 69,
      "time": 26.5,
      "duration": 0.25,
      "velocity": 0.79,
      "hand": "right"
    },
    {
      "midi": 69,
      "time": 26.75,
      "duration": 0.25,
      "velocity": 0.79,
      "hand": "right"
    },
    {
      "midi": 69,
      "time": 27,
      "duration": 0.25,
      "velocity": 0.79,
      "hand": "right"
    },
    {
      "midi": 57,
      "time": 27.25,
      "duration": 0.25,
      "velocity": 0.79,
      "hand": "left"
    },
    {
      "midi": 69,
      "time": 27.5,
      "duration": 0.5,
      "velocity": 0.79,
      "hand": "right"
    },
    {
      "midi": 38,
      "time": 28,
      "duration": 1.5,
      "velocity": 0.79,
      "hand": "left"
    },
    {
      "midi": 62,
      "time": 28,
      "duration": 0.25,
      "velocity": 0.79,
      "hand": "right"
    },
    {
      "midi": 54,
      "time": 28.125,
      "duration": 1.5,
      "velocity": 0.79,
      "hand": "left"
    },
    {
      "midi": 57,
      "time": 28.125,
      "duration": 1.375,
      "velocity": 0.79,
      "hand": "left"
    },
    {
      "midi": 62,
      "time": 28.25,
      "duration": 0.5,
      "velocity": 0.79,
      "hand": "right"
    },
    {
      "midi": 66,
      "time": 28.75,
      "duration": 0.25,
      "velocity": 0.79,
      "hand": "right"
    },
    {
      "midi": 69,
      "time": 29,
      "duration": 0.25,
      "velocity": 0.79,
      "hand": "right"
    },
    {
      "midi": 66,
      "time": 29.25,
      "duration": 0.5,
      "velocity": 0.79,
      "hand": "right"
    },
    {
      "midi": 38,
      "time": 29.5,
      "duration": 0.5,
      "velocity": 0.79,
      "hand": "left"
    },
    {
      "midi": 54,
      "time": 29.5,
      "duration": 0.5,
      "velocity": 0.79,
      "hand": "left"
    },
    {
      "midi": 57,
      "time": 29.5,
      "duration": 0.5,
      "velocity": 0.79,
      "hand": "left"
    },
    {
      "midi": 62,
      "time": 29.75,
      "duration": 0.25,
      "velocity": 0.79,
      "hand": "right"
    },
    {
      "midi": 38,
      "time": 30,
      "duration": 1.5,
      "velocity": 0.79,
      "hand": "left"
    },
    {
      "midi": 50,
      "time": 30.125,
      "duration": 1.5,
      "velocity": 0.79,
      "hand": "left"
    },
    {
      "midi": 55,
      "time": 30.125,
      "duration": 1.375,
      "velocity": 0.79,
      "hand": "left"
    },
    {
      "midi": 57,
      "time": 30.25,
      "duration": 0.25,
      "velocity": 0.79,
      "hand": "left"
    },
    {
      "midi": 64,
      "time": 30.25,
      "duration": 1.375,
      "velocity": 0.79,
      "hand": "right"
    },
    {
      "midi": 69,
      "time": 30.5,
      "duration": 0.25,
      "velocity": 0.79,
      "hand": "right"
    },
    {
      "midi": 69,
      "time": 30.75,
      "duration": 0.25,
      "velocity": 0.79,
      "hand": "right"
    },
    {
      "midi": 69,
      "time": 31,
      "duration": 0.25,
      "velocity": 0.79,
      "hand": "right"
    },
    {
      "midi": 57,
      "time": 31.25,
      "duration": 0.25,
      "velocity": 0.79,
      "hand": "left"
    },
    {
      "midi": 38,
      "time": 31.5,
      "duration": 0.5,
      "velocity": 0.79,
      "hand": "left"
    },
    {
      "midi": 69,
      "time": 31.5,
      "duration": 0.5,
      "velocity": 0.79,
      "hand": "right"
    },
    {
      "midi": 38,
      "time": 32,
      "duration": 1.5,
      "velocity": 0.79,
      "hand": "left"
    },
    {
      "midi": 61,
      "time": 32,
      "duration": 0.25,
      "velocity": 0.79,
      "hand": "right"
    },
    {
      "midi": 55,
      "time": 32.125,
      "duration": 1.5,
      "velocity": 0.79,
      "hand": "left"
    },
    {
      "midi": 57,
      "time": 32.125,
      "duration": 1.375,
      "velocity": 0.79,
      "hand": "left"
    },
    {
      "midi": 61,
      "time": 32.25,
      "duration": 0.5,
      "velocity": 0.79,
      "hand": "right"
    },
    {
      "midi": 64,
      "time": 32.75,
      "duration": 0.25,
      "velocity": 0.79,
      "hand": "right"
    },
    {
      "midi": 67,
      "time": 33,
      "duration": 0.25,
      "velocity": 0.79,
      "hand": "right"
    },
    {
      "midi": 64,
      "time": 33.25,
      "duration": 0.5,
      "velocity": 0.79,
      "hand": "right"
    },
    {
      "midi": 38,
      "time": 33.5,
      "duration": 0.5,
      "velocity": 0.79,
      "hand": "left"
    },
    {
      "midi": 55,
      "time": 33.5,
      "duration": 0.5,
      "velocity": 0.79,
      "hand": "left"
    },
    {
      "midi": 57,
      "time": 33.5,
      "duration": 0.5,
      "velocity": 0.79,
      "hand": "left"
    },
    {
      "midi": 61,
      "time": 33.75,
      "duration": 0.25,
      "velocity": 0.79,
      "hand": "right"
    },
    {
      "midi": 38,
      "time": 34,
      "duration": 1,
      "velocity": 0.79,
      "hand": "left"
    },
    {
      "midi": 50,
      "time": 34.125,
      "duration": 1,
      "velocity": 0.79,
      "hand": "left"
    },
    {
      "midi": 57,
      "time": 34.125,
      "duration": 0.875,
      "velocity": 0.79,
      "hand": "left"
    },
    {
      "midi": 57,
      "time": 34.25,
      "duration": 0.25,
      "velocity": 0.79,
      "hand": "left"
    },
    {
      "midi": 62,
      "time": 34.25,
      "duration": 0.875,
      "velocity": 0.79,
      "hand": "right"
    },
    {
      "midi": 69,
      "time": 34.5,
      "duration": 0.25,
      "velocity": 0.79,
      "hand": "right"
    },
    {
      "midi": 69,
      "time": 34.75,
      "duration": 0.25,
      "velocity": 0.79,
      "hand": "right"
    },
    {
      "midi": 45,
      "time": 35,
      "duration": 1,
      "velocity": 0.79,
      "hand": "left"
    },
    {
      "midi": 69,
      "time": 35,
      "duration": 0.25,
      "velocity": 0.79,
      "hand": "right"
    },
    {
      "midi": 59,
      "time": 35.25,
      "duration": 0.25,
      "velocity": 0.79,
      "hand": "left"
    },
    {
      "midi": 69,
      "time": 35.5,
      "duration": 0.5,
      "velocity": 0.79,
      "hand": "right"
    },
    {
      "midi": 38,
      "time": 36,
      "duration": 1.5,
      "velocity": 0.79,
      "hand": "left"
    },
    {
      "midi": 54,
      "time": 36,
      "duration": 0.5,
      "velocity": 0.79,
      "hand": "left"
    },
    {
      "midi": 57,
      "time": 36,
      "duration": 0.5,
      "velocity": 0.79,
      "hand": "left"
    },
    {
      "midi": 62,
      "time": 36,
      "duration": 0.5,
      "velocity": 0.79,
      "hand": "right"
    },
    {
      "midi": 57,
      "time": 36.5,
      "duration": 0.5,
      "velocity": 0.79,
      "hand": "left"
    },
    {
      "midi": 62,
      "time": 36.5,
      "duration": 0.5,
      "velocity": 0.79,
      "hand": "right"
    },
    {
      "midi": 66,
      "time": 36.5,
      "duration": 0.5,
      "velocity": 0.79,
      "hand": "right"
    },
    {
      "midi": 54,
      "time": 37,
      "duration": 0.5,
      "velocity": 0.79,
      "hand": "left"
    },
    {
      "midi": 57,
      "time": 37,
      "duration": 0.5,
      "velocity": 0.79,
      "hand": "left"
    },
    {
      "midi": 62,
      "time": 37,
      "duration": 0.5,
      "velocity": 0.79,
      "hand": "right"
    },
    {
      "midi": 38,
      "time": 37.5,
      "duration": 0.5,
      "velocity": 0.79,
      "hand": "left"
    },
    {
      "midi": 57,
      "time": 37.5,
      "duration": 0.5,
      "velocity": 0.79,
      "hand": "left"
    },
    {
      "midi": 62,
      "time": 37.5,
      "duration": 0.5,
      "velocity": 0.79,
      "hand": "right"
    },
    {
      "midi": 66,
      "time": 37.5,
      "duration": 0.5,
      "velocity": 0.79,
      "hand": "right"
    },
    {
      "midi": 38,
      "time": 38,
      "duration": 1.5,
      "velocity": 0.79,
      "hand": "left"
    },
    {
      "midi": 59,
      "time": 38,
      "duration": 0.25,
      "velocity": 0.79,
      "hand": "left"
    },
    {
      "midi": 64,
      "time": 38,
      "duration": 0.25,
      "velocity": 0.79,
      "hand": "right"
    },
    {
      "midi": 64,
      "time": 38.25,
      "duration": 0.5,
      "velocity": 0.79,
      "hand": "right"
    },
    {
      "midi": 67,
      "time": 38.25,
      "duration": 0.5,
      "velocity": 0.79,
      "hand": "right"
    },
    {
      "midi": 60,
      "time": 38.75,
      "duration": 0.25,
      "velocity": 0.79,
      "hand": "right"
    },
    {
      "midi": 64,
      "time": 38.75,
      "duration": 0.25,
      "velocity": 0.79,
      "hand": "right"
    },
    {
      "midi": 67,
      "time": 38.75,
      "duration": 0.25,
      "velocity": 0.79,
      "hand": "right"
    },
    {
      "midi": 61,
      "time": 39,
      "duration": 1,
      "velocity": 0.79,
      "hand": "right"
    },
    {
      "midi": 64,
      "time": 39.125,
      "duration": 1,
      "velocity": 0.79,
      "hand": "right"
    },
    {
      "midi": 67,
      "time": 39.125,
      "duration": 0.875,
      "velocity": 0.79,
      "hand": "right"
    },
    {
      "midi": 38,
      "time": 39.5,
      "duration": 0.5,
      "velocity": 0.79,
      "hand": "left"
    },
    {
      "midi": 45,
      "time": 40,
      "duration": 1.5,
      "velocity": 0.79,
      "hand": "left"
    },
    {
      "midi": 57,
      "time": 40,
      "duration": 0.25,
      "velocity": 0.79,
      "hand": "left"
    },
    {
      "midi": 61,
      "time": 40,
      "duration": 0.25,
      "velocity": 0.79,
      "hand": "right"
    },
    {
      "midi": 52,
      "time": 40.125,
      "duration": 1.5,
      "velocity": 0.79,
      "hand": "left"
    },
    {
      "midi": 57,
      "time": 40.125,
      "duration": 1.375,
      "velocity": 0.79,
      "hand": "left"
    },
    {
      "midi": 57,
      "time": 40.25,
      "duration": 0.5,
      "velocity": 0.79,
      "hand": "left"
    },
    {
      "midi": 61,
      "time": 40.25,
      "duration": 0.5,
      "velocity": 0.79,
      "hand": "right"
    },
    {
      "midi": 57,
      "time": 40.75,
      "duration": 0.25,
      "velocity": 0.79,
      "hand": "left"
    },
    {
      "midi": 61,
      "time": 40.75,
      "duration": 0.25,
      "velocity": 0.79,
      "hand": "right"
    },
    {
      "midi": 61,
      "time": 41,
      "duration": 0.25,
      "velocity": 0.79,
      "hand": "right"
    },
    {
      "midi": 64,
      "time": 41,
      "duration": 0.25,
      "velocity": 0.79,
      "hand": "right"
    },
    {
      "midi": 59,
      "time": 41.25,
      "duration": 0.5,
      "velocity": 0.79,
      "hand": "left"
    },
    {
      "midi": 62,
      "time": 41.25,
      "duration": 0.5,
      "velocity": 0.79,
      "hand": "right"
    },
    {
      "midi": 45,
      "time": 41.5,
      "duration": 0.5,
      "velocity": 0.79,
      "hand": "left"
    },
    {
      "midi": 52,
      "time": 41.5,
      "duration": 0.5,
      "velocity": 0.79,
      "hand": "left"
    },
    {
      "midi": 57,
      "time": 41.75,
      "duration": 0.25,
      "velocity": 0.79,
      "hand": "left"
    },
    {
      "midi": 61,
      "time": 41.75,
      "duration": 0.25,
      "velocity": 0.79,
      "hand": "right"
    },
    {
      "midi": 38,
      "time": 42,
      "duration": 1,
      "velocity": 0.79,
      "hand": "left"
    },
    {
      "midi": 54,
      "time": 42,
      "duration": 0.25,
      "velocity": 0.79,
      "hand": "left"
    },
    {
      "midi": 59,
      "time": 42,
      "duration": 0.25,
      "velocity": 0.79,
      "hand": "left"
    },
    {
      "midi": 62,
      "time": 42,
      "duration": 0.25,
      "velocity": 0.79,
      "hand": "right"
    },
    {
      "midi": 59,
      "time": 42.25,
      "duration": 0.5,
      "velocity": 0.79,
      "hand": "left"
    },
    {
      "midi": 62,
      "time": 42.25,
      "duration": 0.5,
      "velocity": 0.79,
      "hand": "right"
    },
    {
      "midi": 66,
      "time": 42.25,
      "duration": 0.5,
      "velocity": 0.79,
      "hand": "right"
    },
    {
      "midi": 57,
      "time": 42.75,
      "duration": 0.25,
      "velocity": 0.79,
      "hand": "left"
    },
    {
      "midi": 62,
      "time": 42.75,
      "duration": 0.25,
      "velocity": 0.79,
      "hand": "right"
    },
    {
      "midi": 66,
      "time": 42.75,
      "duration": 0.25,
      "velocity": 0.79,
      "hand": "right"
    },
    {
      "midi": 38,
      "time": 43,
      "duration": 1,
      "velocity": 0.79,
      "hand": "left"
    },
    {
      "midi": 57,
      "time": 43,
      "duration": 1,
      "velocity": 0.79,
      "hand": "left"
    },
    {
      "midi": 62,
      "time": 43.125,
      "duration": 1,
      "velocity": 0.79,
      "hand": "right"
    },
    {
      "midi": 66,
      "time": 43.125,
      "duration": 0.875,
      "velocity": 0.79,
      "hand": "right"
    },
    {
      "midi": 38,
      "time": 44,
      "duration": 1.5,
      "velocity": 0.79,
      "hand": "left"
    },
    {
      "midi": 54,
      "time": 44,
      "duration": 0.5,
      "velocity": 0.79,
      "hand": "left"
    },
    {
      "midi": 57,
      "time": 44,
      "duration": 0.5,
      "velocity": 0.79,
      "hand": "left"
    },
    {
      "midi": 62,
      "time": 44,
      "duration": 0.5,
      "velocity": 0.79,
      "hand": "right"
    },
    {
      "midi": 57,
      "time": 44.5,
      "duration": 0.5,
      "velocity": 0.79,
      "hand": "left"
    },
    {
      "midi": 62,
      "time": 44.5,
      "duration": 0.5,
      "velocity": 0.79,
      "hand": "right"
    },
    {
      "midi": 66,
      "time": 44.5,
      "duration": 0.5,
      "velocity": 0.79,
      "hand": "right"
    },
    {
      "midi": 54,
      "time": 45,
      "duration": 0.5,
      "velocity": 0.79,
      "hand": "left"
    },
    {
      "midi": 57,
      "time": 45,
      "duration": 0.5,
      "velocity": 0.79,
      "hand": "left"
    },
    {
      "midi": 62,
      "time": 45,
      "duration": 0.5,
      "velocity": 0.79,
      "hand": "right"
    },
    {
      "midi": 38,
      "time": 45.5,
      "duration": 0.5,
      "velocity": 0.79,
      "hand": "left"
    },
    {
      "midi": 57,
      "time": 45.5,
      "duration": 0.5,
      "velocity": 0.79,
      "hand": "left"
    },
    {
      "midi": 62,
      "time": 45.5,
      "duration": 0.5,
      "velocity": 0.79,
      "hand": "right"
    },
    {
      "midi": 66,
      "time": 45.5,
      "duration": 0.5,
      "velocity": 0.79,
      "hand": "right"
    },
    {
      "midi": 38,
      "time": 46,
      "duration": 1.5,
      "velocity": 0.79,
      "hand": "left"
    },
    {
      "midi": 59,
      "time": 46,
      "duration": 0.25,
      "velocity": 0.79,
      "hand": "left"
    },
    {
      "midi": 64,
      "time": 46,
      "duration": 0.25,
      "velocity": 0.79,
      "hand": "right"
    },
    {
      "midi": 64,
      "time": 46.25,
      "duration": 0.5,
      "velocity": 0.79,
      "hand": "right"
    },
    {
      "midi": 67,
      "time": 46.25,
      "duration": 0.5,
      "velocity": 0.79,
      "hand": "right"
    },
    {
      "midi": 60,
      "time": 46.75,
      "duration": 0.25,
      "velocity": 0.79,
      "hand": "right"
    },
    {
      "midi": 64,
      "time": 46.75,
      "duration": 0.25,
      "velocity": 0.79,
      "hand": "right"
    },
    {
      "midi": 67,
      "time": 46.75,
      "duration": 0.25,
      "velocity": 0.79,
      "hand": "right"
    },
    {
      "midi": 61,
      "time": 47,
      "duration": 1,
      "velocity": 0.79,
      "hand": "right"
    },
    {
      "midi": 64,
      "time": 47.125,
      "duration": 1,
      "velocity": 0.79,
      "hand": "right"
    },
    {
      "midi": 67,
      "time": 47.125,
      "duration": 0.875,
      "velocity": 0.79,
      "hand": "right"
    },
    {
      "midi": 38,
      "time": 47.5,
      "duration": 0.5,
      "velocity": 0.79,
      "hand": "left"
    },
    {
      "midi": 45,
      "time": 48,
      "duration": 1.5,
      "velocity": 0.79,
      "hand": "left"
    },
    {
      "midi": 57,
      "time": 48,
      "duration": 0.25,
      "velocity": 0.79,
      "hand": "left"
    },
    {
      "midi": 61,
      "time": 48,
      "duration": 0.25,
      "velocity": 0.79,
      "hand": "right"
    },
    {
      "midi": 52,
      "time": 48.125,
      "duration": 1.5,
      "velocity": 0.79,
      "hand": "left"
    },
    {
      "midi": 57,
      "time": 48.125,
      "duration": 1.375,
      "velocity": 0.79,
      "hand": "left"
    },
    {
      "midi": 57,
      "time": 48.25,
      "duration": 0.5,
      "velocity": 0.79,
      "hand": "left"
    },
    {
      "midi": 61,
      "time": 48.25,
      "duration": 0.5,
      "velocity": 0.79,
      "hand": "right"
    },
    {
      "midi": 57,
      "time": 48.75,
      "duration": 0.25,
      "velocity": 0.79,
      "hand": "left"
    },
    {
      "midi": 61,
      "time": 48.75,
      "duration": 0.25,
      "velocity": 0.79,
      "hand": "right"
    },
    {
      "midi": 61,
      "time": 49,
      "duration": 0.25,
      "velocity": 0.79,
      "hand": "right"
    },
    {
      "midi": 64,
      "time": 49,
      "duration": 0.25,
      "velocity": 0.79,
      "hand": "right"
    },
    {
      "midi": 59,
      "time": 49.25,
      "duration": 0.5,
      "velocity": 0.79,
      "hand": "left"
    },
    {
      "midi": 62,
      "time": 49.25,
      "duration": 0.5,
      "velocity": 0.79,
      "hand": "right"
    },
    {
      "midi": 45,
      "time": 49.5,
      "duration": 0.5,
      "velocity": 0.79,
      "hand": "left"
    },
    {
      "midi": 52,
      "time": 49.5,
      "duration": 0.5,
      "velocity": 0.79,
      "hand": "left"
    },
    {
      "midi": 57,
      "time": 49.75,
      "duration": 0.25,
      "velocity": 0.79,
      "hand": "left"
    },
    {
      "midi": 61,
      "time": 49.75,
      "duration": 0.25,
      "velocity": 0.79,
      "hand": "right"
    },
    {
      "midi": 38,
      "time": 50,
      "duration": 2,
      "velocity": 0.79,
      "hand": "left"
    },
    {
      "midi": 54,
      "time": 50,
      "duration": 0.25,
      "velocity": 0.79,
      "hand": "left"
    },
    {
      "midi": 59,
      "time": 50,
      "duration": 0.25,
      "velocity": 0.79,
      "hand": "left"
    },
    {
      "midi": 62,
      "time": 50,
      "duration": 0.25,
      "velocity": 0.79,
      "hand": "right"
    },
    {
      "midi": 59,
      "time": 50.25,
      "duration": 0.5,
      "velocity": 0.79,
      "hand": "left"
    },
    {
      "midi": 62,
      "time": 50.25,
      "duration": 0.5,
      "velocity": 0.79,
      "hand": "right"
    },
    {
      "midi": 66,
      "time": 50.25,
      "duration": 0.5,
      "velocity": 0.79,
      "hand": "right"
    },
    {
      "midi": 57,
      "time": 50.75,
      "duration": 0.25,
      "velocity": 0.79,
      "hand": "left"
    },
    {
      "midi": 62,
      "time": 50.75,
      "duration": 0.25,
      "velocity": 0.79,
      "hand": "right"
    },
    {
      "midi": 66,
      "time": 50.75,
      "duration": 0.25,
      "velocity": 0.79,
      "hand": "right"
    },
    {
      "midi": 57,
      "time": 51,
      "duration": 1,
      "velocity": 0.79,
      "hand": "left"
    },
    {
      "midi": 62,
      "time": 51.125,
      "duration": 1,
      "velocity": 0.79,
      "hand": "right"
    },
    {
      "midi": 66,
      "time": 51.125,
      "duration": 0.875,
      "velocity": 0.79,
      "hand": "right"
    },
    {
      "midi": 38,
      "time": 52,
      "duration": 1.5,
      "velocity": 0.79,
      "hand": "left"
    },
    {
      "midi": 57,
      "time": 52.25,
      "duration": 0.25,
      "velocity": 0.79,
      "hand": "left"
    },
    {
      "midi": 69,
      "time": 52.5,
      "duration": 0.25,
      "velocity": 0.79,
      "hand": "right"
    },
    {
      "midi": 69,
      "time": 52.75,
      "duration": 0.25,
      "velocity": 0.79,
      "hand": "right"
    },
    {
      "midi": 69,
      "time": 53,
      "duration": 0.25,
      "velocity": 0.79,
      "hand": "right"
    },
    {
      "midi": 57,
      "time": 53.25,
      "duration": 0.25,
      "velocity": 0.79,
      "hand": "left"
    },
    {
      "midi": 38,
      "time": 53.5,
      "duration": 0.5,
      "velocity": 0.79,
      "hand": "left"
    },
    {
      "midi": 57,
      "time": 53.5,
      "duration": 0.5,
      "velocity": 0.79,
      "hand": "left"
    },
    {
      "midi": 62,
      "time": 53.5,
      "duration": 0.5,
      "velocity": 0.79,
      "hand": "right"
    },
    {
      "midi": 66,
      "time": 53.5,
      "duration": 0.5,
      "velocity": 0.79,
      "hand": "right"
    },
    {
      "midi": 38,
      "time": 54,
      "duration": 1.5,
      "velocity": 0.79,
      "hand": "left"
    },
    {
      "midi": 50,
      "time": 54.125,
      "duration": 1.5,
      "velocity": 0.79,
      "hand": "left"
    },
    {
      "midi": 61,
      "time": 54.125,
      "duration": 1.375,
      "velocity": 0.79,
      "hand": "right"
    },
    {
      "midi": 57,
      "time": 54.25,
      "duration": 0.25,
      "velocity": 0.79,
      "hand": "left"
    },
    {
      "midi": 65,
      "time": 54.25,
      "duration": 1.375,
      "velocity": 0.79,
      "hand": "right"
    },
    {
      "midi": 69,
      "time": 54.5,
      "duration": 0.25,
      "velocity": 0.79,
      "hand": "right"
    },
    {
      "midi": 69,
      "time": 54.75,
      "duration": 0.25,
      "velocity": 0.79,
      "hand": "right"
    },
    {
      "midi": 69,
      "time": 55,
      "duration": 0.25,
      "velocity": 0.79,
      "hand": "right"
    },
    {
      "midi": 61,
      "time": 55.25,
      "duration": 0.25,
      "velocity": 0.79,
      "hand": "right"
    },
    {
      "midi": 38,
      "time": 55.5,
      "duration": 0.5,
      "velocity": 0.79,
      "hand": "left"
    },
    {
      "midi": 57,
      "time": 55.5,
      "duration": 0.5,
      "velocity": 0.79,
      "hand": "left"
    },
    {
      "midi": 61,
      "time": 55.5,
      "duration": 0.5,
      "velocity": 0.79,
      "hand": "right"
    },
    {
      "midi": 65,
      "time": 55.5,
      "duration": 0.5,
      "velocity": 0.79,
      "hand": "right"
    },
    {
      "midi": 38,
      "time": 56,
      "duration": 1.5,
      "velocity": 0.79,
      "hand": "left"
    },
    {
      "midi": 50,
      "time": 56.125,
      "duration": 1.5,
      "velocity": 0.79,
      "hand": "left"
    },
    {
      "midi": 57,
      "time": 56.125,
      "duration": 1.375,
      "velocity": 0.79,
      "hand": "left"
    },
    {
      "midi": 57,
      "time": 56.25,
      "duration": 0.25,
      "velocity": 0.79,
      "hand": "left"
    },
    {
      "midi": 62,
      "time": 56.25,
      "duration": 1.375,
      "velocity": 0.79,
      "hand": "right"
    },
    {
      "midi": 66,
      "time": 56.25,
      "duration": 1.25,
      "velocity": 0.79,
      "hand": "right"
    },
    {
      "midi": 69,
      "time": 56.5,
      "duration": 0.25,
      "velocity": 0.79,
      "hand": "right"
    },
    {
      "midi": 69,
      "time": 56.75,
      "duration": 0.25,
      "velocity": 0.79,
      "hand": "right"
    },
    {
      "midi": 69,
      "time": 57,
      "duration": 0.25,
      "velocity": 0.79,
      "hand": "right"
    },
    {
      "midi": 61,
      "time": 57.25,
      "duration": 0.25,
      "velocity": 0.79,
      "hand": "right"
    },
    {
      "midi": 38,
      "time": 57.5,
      "duration": 0.5,
      "velocity": 0.79,
      "hand": "left"
    },
    {
      "midi": 57,
      "time": 57.5,
      "duration": 0.5,
      "velocity": 0.79,
      "hand": "left"
    },
    {
      "midi": 62,
      "time": 57.5,
      "duration": 0.5,
      "velocity": 0.79,
      "hand": "right"
    },
    {
      "midi": 66,
      "time": 57.5,
      "duration": 0.5,
      "velocity": 0.79,
      "hand": "right"
    },
    {
      "midi": 38,
      "time": 58,
      "duration": 1.5,
      "velocity": 0.79,
      "hand": "left"
    },
    {
      "midi": 50,
      "time": 58.125,
      "duration": 1.5,
      "velocity": 0.79,
      "hand": "left"
    },
    {
      "midi": 61,
      "time": 58.125,
      "duration": 1.375,
      "velocity": 0.79,
      "hand": "right"
    },
    {
      "midi": 57,
      "time": 58.25,
      "duration": 0.25,
      "velocity": 0.79,
      "hand": "left"
    },
    {
      "midi": 65,
      "time": 58.25,
      "duration": 1.375,
      "velocity": 0.79,
      "hand": "right"
    },
    {
      "midi": 69,
      "time": 58.5,
      "duration": 0.25,
      "velocity": 0.79,
      "hand": "right"
    },
    {
      "midi": 69,
      "time": 58.75,
      "duration": 0.25,
      "velocity": 0.79,
      "hand": "right"
    },
    {
      "midi": 69,
      "time": 59,
      "duration": 0.25,
      "velocity": 0.79,
      "hand": "right"
    },
    {
      "midi": 61,
      "time": 59.25,
      "duration": 0.25,
      "velocity": 0.79,
      "hand": "right"
    },
    {
      "midi": 38,
      "time": 59.5,
      "duration": 0.5,
      "velocity": 0.79,
      "hand": "left"
    },
    {
      "midi": 55,
      "time": 59.5,
      "duration": 0.5,
      "velocity": 0.79,
      "hand": "left"
    },
    {
      "midi": 61,
      "time": 59.5,
      "duration": 0.5,
      "velocity": 0.79,
      "hand": "right"
    },
    {
      "midi": 64,
      "time": 59.5,
      "duration": 0.5,
      "velocity": 0.79,
      "hand": "right"
    },
    {
      "midi": 38,
      "time": 60,
      "duration": 1.5,
      "velocity": 0.79,
      "hand": "left"
    },
    {
      "midi": 54,
      "time": 60.125,
      "duration": 1.5,
      "velocity": 0.79,
      "hand": "left"
    },
    {
      "midi": 62,
      "time": 60.125,
      "duration": 1.375,
      "velocity": 0.79,
      "hand": "right"
    },
    {
      "midi": 45,
      "time": 60.25,
      "duration": 0.25,
      "velocity": 0.79,
      "hand": "left"
    },
    {
      "midi": 57,
      "time": 60.5,
      "duration": 0.25,
      "velocity": 0.79,
      "hand": "left"
    },
    {
      "midi": 57,
      "time": 60.75,
      "duration": 0.25,
      "velocity": 0.79,
      "hand": "left"
    },
    {
      "midi": 57,
      "time": 61,
      "duration": 1,
      "velocity": 0.79,
      "hand": "left"
    },
    {
      "midi": 38,
      "time": 62,
      "duration": 1,
      "velocity": 0.79,
      "hand": "left"
    },
    {
      "midi": 54,
      "time": 62.125,
      "duration": 1,
      "velocity": 0.79,
      "hand": "left"
    },
    {
      "midi": 62,
      "time": 62.125,
      "duration": 0.875,
      "velocity": 0.79,
      "hand": "right"
    },
    {
      "midi": 45,
      "time": 62.25,
      "duration": 0.25,
      "velocity": 0.79,
      "hand": "left"
    },
    {
      "midi": 57,
      "time": 62.5,
      "duration": 0.25,
      "velocity": 0.79,
      "hand": "left"
    },
    {
      "midi": 57,
      "time": 62.75,
      "duration": 0.25,
      "velocity": 0.79,
      "hand": "left"
    },
    {
      "midi": 57,
      "time": 63,
      "duration": 1,
      "velocity": 0.79,
      "hand": "left"
    },
    {
      "midi": 62,
      "time": 63.125,
      "duration": 1,
      "velocity": 0.79,
      "hand": "right"
    },
    {
      "midi": 66,
      "time": 63.125,
      "duration": 0.875,
      "velocity": 0.79,
      "hand": "right"
    },
    {
      "midi": 69,
      "time": 63.25,
      "duration": 0.25,
      "velocity": 0.79,
      "hand": "right"
    },
    {
      "midi": 78,
      "time": 63.5,
      "duration": 0.25,
      "velocity": 0.79,
      "hand": "right"
    },
    {
      "midi": 78,
      "time": 63.75,
      "duration": 0.25,
      "velocity": 0.79,
      "hand": "right"
    },
    {
      "midi": 38,
      "time": 64,
      "duration": 2,
      "velocity": 0.79,
      "hand": "left"
    },
    {
      "midi": 71,
      "time": 64,
      "duration": 2,
      "velocity": 0.79,
      "hand": "right"
    },
    {
      "midi": 54,
      "time": 64.125,
      "duration": 2,
      "velocity": 0.79,
      "hand": "left"
    },
    {
      "midi": 62,
      "time": 64.125,
      "duration": 1.875,
      "velocity": 0.79,
      "hand": "right"
    }
  ],
  "arrangements": {
    "easy": [
      {
        "midi": 38,
        "time": 0,
        "duration": 1.5,
        "velocity": 0.79,
        "hand": "right"
      },
      {
        "midi": 57,
        "time": 0.125,
        "duration": 1.375,
        "velocity": 0.79,
        "hand": "right"
      },
      {
        "midi": 66,
        "time": 0.25,
        "duration": 1.25,
        "velocity": 0.79,
        "hand": "right"
      },
      {
        "midi": 69,
        "time": 0.5,
        "duration": 0.25,
        "velocity": 0.79,
        "hand": "right"
      },
      {
        "midi": 69,
        "time": 0.75,
        "duration": 0.25,
        "velocity": 0.79,
        "hand": "right"
      },
      {
        "midi": 69,
        "time": 1,
        "duration": 0.25,
        "velocity": 0.79,
        "hand": "right"
      },
      {
        "midi": 61,
        "time": 1.25,
        "duration": 0.25,
        "velocity": 0.79,
        "hand": "right"
      },
      {
        "midi": 66,
        "time": 1.5,
        "duration": 0.5,
        "velocity": 0.79,
        "hand": "right"
      },
      {
        "midi": 38,
        "time": 2,
        "duration": 1.5,
        "velocity": 0.79,
        "hand": "right"
      },
      {
        "midi": 61,
        "time": 2.125,
        "duration": 1.375,
        "velocity": 0.79,
        "hand": "right"
      },
      {
        "midi": 65,
        "time": 2.25,
        "duration": 1.375,
        "velocity": 0.79,
        "hand": "right"
      },
      {
        "midi": 69,
        "time": 2.5,
        "duration": 0.25,
        "velocity": 0.79,
        "hand": "right"
      },
      {
        "midi": 69,
        "time": 2.75,
        "duration": 0.25,
        "velocity": 0.79,
        "hand": "right"
      },
      {
        "midi": 69,
        "time": 3,
        "duration": 0.25,
        "velocity": 0.79,
        "hand": "right"
      },
      {
        "midi": 61,
        "time": 3.25,
        "duration": 0.25,
        "velocity": 0.79,
        "hand": "right"
      },
      {
        "midi": 65,
        "time": 3.5,
        "duration": 0.5,
        "velocity": 0.79,
        "hand": "right"
      },
      {
        "midi": 38,
        "time": 4,
        "duration": 1.5,
        "velocity": 0.79,
        "hand": "right"
      },
      {
        "midi": 57,
        "time": 4.125,
        "duration": 1.375,
        "velocity": 0.79,
        "hand": "right"
      },
      {
        "midi": 66,
        "time": 4.25,
        "duration": 1.25,
        "velocity": 0.79,
        "hand": "right"
      },
      {
        "midi": 69,
        "time": 4.5,
        "duration": 0.25,
        "velocity": 0.79,
        "hand": "right"
      },
      {
        "midi": 69,
        "time": 4.75,
        "duration": 0.25,
        "velocity": 0.79,
        "hand": "right"
      },
      {
        "midi": 69,
        "time": 5,
        "duration": 0.25,
        "velocity": 0.79,
        "hand": "right"
      },
      {
        "midi": 61,
        "time": 5.25,
        "duration": 0.25,
        "velocity": 0.79,
        "hand": "right"
      },
      {
        "midi": 66,
        "time": 5.5,
        "duration": 0.5,
        "velocity": 0.79,
        "hand": "right"
      },
      {
        "midi": 38,
        "time": 6,
        "duration": 1.5,
        "velocity": 0.79,
        "hand": "right"
      },
      {
        "midi": 61,
        "time": 6.125,
        "duration": 1.375,
        "velocity": 0.79,
        "hand": "right"
      },
      {
        "midi": 65,
        "time": 6.25,
        "duration": 1.375,
        "velocity": 0.79,
        "hand": "right"
      },
      {
        "midi": 69,
        "time": 6.5,
        "duration": 0.25,
        "velocity": 0.79,
        "hand": "right"
      },
      {
        "midi": 69,
        "time": 6.75,
        "duration": 0.25,
        "velocity": 0.79,
        "hand": "right"
      },
      {
        "midi": 69,
        "time": 7,
        "duration": 0.25,
        "velocity": 0.79,
        "hand": "right"
      },
      {
        "midi": 61,
        "time": 7.25,
        "duration": 0.25,
        "velocity": 0.79,
        "hand": "right"
      },
      {
        "midi": 64,
        "time": 7.5,
        "duration": 0.5,
        "velocity": 0.79,
        "hand": "right"
      },
      {
        "midi": 38,
        "time": 8,
        "duration": 1.5,
        "velocity": 0.79,
        "hand": "right"
      },
      {
        "midi": 54,
        "time": 8.125,
        "duration": 1.375,
        "velocity": 0.79,
        "hand": "right"
      },
      {
        "midi": 62,
        "time": 8.25,
        "duration": 1.25,
        "velocity": 0.79,
        "hand": "right"
      },
      {
        "midi": 57,
        "time": 8.5,
        "duration": 0.25,
        "velocity": 0.79,
        "hand": "right"
      },
      {
        "midi": 57,
        "time": 8.75,
        "duration": 0.25,
        "velocity": 0.79,
        "hand": "right"
      },
      {
        "midi": 57,
        "time": 9,
        "duration": 1,
        "velocity": 0.79,
        "hand": "right"
      },
      {
        "midi": 38,
        "time": 10,
        "duration": 1.5,
        "velocity": 0.79,
        "hand": "right"
      },
      {
        "midi": 57,
        "time": 10.125,
        "duration": 1.375,
        "velocity": 0.79,
        "hand": "right"
      },
      {
        "midi": 66,
        "time": 10.25,
        "duration": 1.25,
        "velocity": 0.79,
        "hand": "right"
      },
      {
        "midi": 69,
        "time": 10.5,
        "duration": 0.25,
        "velocity": 0.79,
        "hand": "right"
      },
      {
        "midi": 69,
        "time": 10.75,
        "duration": 0.25,
        "velocity": 0.79,
        "hand": "right"
      },
      {
        "midi": 69,
        "time": 11,
        "duration": 0.25,
        "velocity": 0.79,
        "hand": "right"
      },
      {
        "midi": 61,
        "time": 11.25,
        "duration": 0.25,
        "velocity": 0.79,
        "hand": "right"
      },
      {
        "midi": 66,
        "time": 11.5,
        "duration": 0.5,
        "velocity": 0.79,
        "hand": "right"
      },
      {
        "midi": 38,
        "time": 12,
        "duration": 1.5,
        "velocity": 0.79,
        "hand": "right"
      },
      {
        "midi": 61,
        "time": 12.125,
        "duration": 1.375,
        "velocity": 0.79,
        "hand": "right"
      },
      {
        "midi": 65,
        "time": 12.25,
        "duration": 1.375,
        "velocity": 0.79,
        "hand": "right"
      },
      {
        "midi": 69,
        "time": 12.5,
        "duration": 0.25,
        "velocity": 0.79,
        "hand": "right"
      },
      {
        "midi": 69,
        "time": 12.75,
        "duration": 0.25,
        "velocity": 0.79,
        "hand": "right"
      },
      {
        "midi": 69,
        "time": 13,
        "duration": 0.25,
        "velocity": 0.79,
        "hand": "right"
      },
      {
        "midi": 61,
        "time": 13.25,
        "duration": 0.25,
        "velocity": 0.79,
        "hand": "right"
      },
      {
        "midi": 65,
        "time": 13.5,
        "duration": 0.5,
        "velocity": 0.79,
        "hand": "right"
      },
      {
        "midi": 38,
        "time": 14,
        "duration": 1.5,
        "velocity": 0.79,
        "hand": "right"
      },
      {
        "midi": 57,
        "time": 14.125,
        "duration": 1.375,
        "velocity": 0.79,
        "hand": "right"
      },
      {
        "midi": 66,
        "time": 14.25,
        "duration": 1.25,
        "velocity": 0.79,
        "hand": "right"
      },
      {
        "midi": 69,
        "time": 14.5,
        "duration": 0.25,
        "velocity": 0.79,
        "hand": "right"
      },
      {
        "midi": 69,
        "time": 14.75,
        "duration": 0.25,
        "velocity": 0.79,
        "hand": "right"
      },
      {
        "midi": 69,
        "time": 15,
        "duration": 0.25,
        "velocity": 0.79,
        "hand": "right"
      },
      {
        "midi": 61,
        "time": 15.25,
        "duration": 0.25,
        "velocity": 0.79,
        "hand": "right"
      },
      {
        "midi": 66,
        "time": 15.5,
        "duration": 0.5,
        "velocity": 0.79,
        "hand": "right"
      },
      {
        "midi": 38,
        "time": 16,
        "duration": 1.5,
        "velocity": 0.79,
        "hand": "right"
      },
      {
        "midi": 61,
        "time": 16.125,
        "duration": 1.375,
        "velocity": 0.79,
        "hand": "right"
      },
      {
        "midi": 65,
        "time": 16.25,
        "duration": 1.375,
        "velocity": 0.79,
        "hand": "right"
      },
      {
        "midi": 69,
        "time": 16.5,
        "duration": 0.25,
        "velocity": 0.79,
        "hand": "right"
      },
      {
        "midi": 69,
        "time": 16.75,
        "duration": 0.25,
        "velocity": 0.79,
        "hand": "right"
      },
      {
        "midi": 69,
        "time": 17,
        "duration": 0.25,
        "velocity": 0.79,
        "hand": "right"
      },
      {
        "midi": 61,
        "time": 17.25,
        "duration": 0.25,
        "velocity": 0.79,
        "hand": "right"
      },
      {
        "midi": 64,
        "time": 17.5,
        "duration": 0.5,
        "velocity": 0.79,
        "hand": "right"
      },
      {
        "midi": 38,
        "time": 18,
        "duration": 1.5,
        "velocity": 0.79,
        "hand": "right"
      },
      {
        "midi": 54,
        "time": 18.125,
        "duration": 1.375,
        "velocity": 0.79,
        "hand": "right"
      },
      {
        "midi": 62,
        "time": 18.25,
        "duration": 1.25,
        "velocity": 0.79,
        "hand": "right"
      },
      {
        "midi": 57,
        "time": 18.5,
        "duration": 0.25,
        "velocity": 0.79,
        "hand": "right"
      },
      {
        "midi": 57,
        "time": 18.75,
        "duration": 0.25,
        "velocity": 0.79,
        "hand": "right"
      },
      {
        "midi": 57,
        "time": 19,
        "duration": 1,
        "velocity": 0.79,
        "hand": "right"
      },
      {
        "midi": 62,
        "time": 20,
        "duration": 0.25,
        "velocity": 0.79,
        "hand": "right"
      },
      {
        "midi": 57,
        "time": 20.125,
        "duration": 1.375,
        "velocity": 0.79,
        "hand": "right"
      },
      {
        "midi": 62,
        "time": 20.25,
        "duration": 0.5,
        "velocity": 0.79,
        "hand": "right"
      },
      {
        "midi": 66,
        "time": 20.75,
        "duration": 0.25,
        "velocity": 0.79,
        "hand": "right"
      },
      {
        "midi": 69,
        "time": 21,
        "duration": 0.25,
        "velocity": 0.79,
        "hand": "right"
      },
      {
        "midi": 66,
        "time": 21.25,
        "duration": 0.5,
        "velocity": 0.79,
        "hand": "right"
      },
      {
        "midi": 57,
        "time": 21.5,
        "duration": 0.5,
        "velocity": 0.79,
        "hand": "right"
      },
      {
        "midi": 62,
        "time": 21.75,
        "duration": 0.25,
        "velocity": 0.79,
        "hand": "right"
      },
      {
        "midi": 38,
        "time": 22,
        "duration": 1.5,
        "velocity": 0.79,
        "hand": "right"
      },
      {
        "midi": 55,
        "time": 22.125,
        "duration": 1.375,
        "velocity": 0.79,
        "hand": "right"
      },
      {
        "midi": 64,
        "time": 22.25,
        "duration": 1.375,
        "velocity": 0.79,
        "hand": "right"
      },
      {
        "midi": 69,
        "time": 22.5,
        "duration": 0.25,
        "velocity": 0.79,
        "hand": "right"
      },
      {
        "midi": 69,
        "time": 22.75,
        "duration": 0.25,
        "velocity": 0.79,
        "hand": "right"
      },
      {
        "midi": 69,
        "time": 23,
        "duration": 0.25,
        "velocity": 0.79,
        "hand": "right"
      },
      {
        "midi": 57,
        "time": 23.25,
        "duration": 0.25,
        "velocity": 0.79,
        "hand": "right"
      },
      {
        "midi": 69,
        "time": 23.5,
        "duration": 0.5,
        "velocity": 0.79,
        "hand": "right"
      },
      {
        "midi": 61,
        "time": 24,
        "duration": 0.25,
        "velocity": 0.79,
        "hand": "right"
      },
      {
        "midi": 57,
        "time": 24.125,
        "duration": 1.375,
        "velocity": 0.79,
        "hand": "right"
      },
      {
        "midi": 61,
        "time": 24.25,
        "duration": 0.5,
        "velocity": 0.79,
        "hand": "right"
      },
      {
        "midi": 64,
        "time": 24.75,
        "duration": 0.25,
        "velocity": 0.79,
        "hand": "right"
      },
      {
        "midi": 67,
        "time": 25,
        "duration": 0.25,
        "velocity": 0.79,
        "hand": "right"
      },
      {
        "midi": 64,
        "time": 25.25,
        "duration": 0.5,
        "velocity": 0.79,
        "hand": "right"
      },
      {
        "midi": 57,
        "time": 25.5,
        "duration": 0.5,
        "velocity": 0.79,
        "hand": "right"
      },
      {
        "midi": 61,
        "time": 25.75,
        "duration": 0.25,
        "velocity": 0.79,
        "hand": "right"
      },
      {
        "midi": 38,
        "time": 26,
        "duration": 1,
        "velocity": 0.79,
        "hand": "right"
      },
      {
        "midi": 57,
        "time": 26.25,
        "duration": 0.25,
        "velocity": 0.79,
        "hand": "right"
      },
      {
        "midi": 69,
        "time": 26.5,
        "duration": 0.25,
        "velocity": 0.79,
        "hand": "right"
      },
      {
        "midi": 69,
        "time": 26.75,
        "duration": 0.25,
        "velocity": 0.79,
        "hand": "right"
      },
      {
        "midi": 69,
        "time": 27,
        "duration": 0.25,
        "velocity": 0.79,
        "hand": "right"
      },
      {
        "midi": 57,
        "time": 27.25,
        "duration": 0.25,
        "velocity": 0.79,
        "hand": "right"
      },
      {
        "midi": 69,
        "time": 27.5,
        "duration": 0.5,
        "velocity": 0.79,
        "hand": "right"
      },
      {
        "midi": 62,
        "time": 28,
        "duration": 0.25,
        "velocity": 0.79,
        "hand": "right"
      },
      {
        "midi": 57,
        "time": 28.125,
        "duration": 1.375,
        "velocity": 0.79,
        "hand": "right"
      },
      {
        "midi": 62,
        "time": 28.25,
        "duration": 0.5,
        "velocity": 0.79,
        "hand": "right"
      },
      {
        "midi": 66,
        "time": 28.75,
        "duration": 0.25,
        "velocity": 0.79,
        "hand": "right"
      },
      {
        "midi": 69,
        "time": 29,
        "duration": 0.25,
        "velocity": 0.79,
        "hand": "right"
      },
      {
        "midi": 66,
        "time": 29.25,
        "duration": 0.5,
        "velocity": 0.79,
        "hand": "right"
      },
      {
        "midi": 57,
        "time": 29.5,
        "duration": 0.5,
        "velocity": 0.79,
        "hand": "right"
      },
      {
        "midi": 62,
        "time": 29.75,
        "duration": 0.25,
        "velocity": 0.79,
        "hand": "right"
      },
      {
        "midi": 38,
        "time": 30,
        "duration": 1.5,
        "velocity": 0.79,
        "hand": "right"
      },
      {
        "midi": 55,
        "time": 30.125,
        "duration": 1.375,
        "velocity": 0.79,
        "hand": "right"
      },
      {
        "midi": 64,
        "time": 30.25,
        "duration": 1.375,
        "velocity": 0.79,
        "hand": "right"
      },
      {
        "midi": 69,
        "time": 30.5,
        "duration": 0.25,
        "velocity": 0.79,
        "hand": "right"
      },
      {
        "midi": 69,
        "time": 30.75,
        "duration": 0.25,
        "velocity": 0.79,
        "hand": "right"
      },
      {
        "midi": 69,
        "time": 31,
        "duration": 0.25,
        "velocity": 0.79,
        "hand": "right"
      },
      {
        "midi": 57,
        "time": 31.25,
        "duration": 0.25,
        "velocity": 0.79,
        "hand": "right"
      },
      {
        "midi": 69,
        "time": 31.5,
        "duration": 0.5,
        "velocity": 0.79,
        "hand": "right"
      },
      {
        "midi": 61,
        "time": 32,
        "duration": 0.25,
        "velocity": 0.79,
        "hand": "right"
      },
      {
        "midi": 57,
        "time": 32.125,
        "duration": 1.375,
        "velocity": 0.79,
        "hand": "right"
      },
      {
        "midi": 61,
        "time": 32.25,
        "duration": 0.5,
        "velocity": 0.79,
        "hand": "right"
      },
      {
        "midi": 64,
        "time": 32.75,
        "duration": 0.25,
        "velocity": 0.79,
        "hand": "right"
      },
      {
        "midi": 67,
        "time": 33,
        "duration": 0.25,
        "velocity": 0.79,
        "hand": "right"
      },
      {
        "midi": 64,
        "time": 33.25,
        "duration": 0.5,
        "velocity": 0.79,
        "hand": "right"
      },
      {
        "midi": 57,
        "time": 33.5,
        "duration": 0.5,
        "velocity": 0.79,
        "hand": "right"
      },
      {
        "midi": 61,
        "time": 33.75,
        "duration": 0.25,
        "velocity": 0.79,
        "hand": "right"
      },
      {
        "midi": 38,
        "time": 34,
        "duration": 1,
        "velocity": 0.79,
        "hand": "right"
      },
      {
        "midi": 57,
        "time": 34.125,
        "duration": 0.875,
        "velocity": 0.79,
        "hand": "right"
      },
      {
        "midi": 62,
        "time": 34.25,
        "duration": 0.875,
        "velocity": 0.79,
        "hand": "right"
      },
      {
        "midi": 69,
        "time": 34.5,
        "duration": 0.25,
        "velocity": 0.79,
        "hand": "right"
      },
      {
        "midi": 69,
        "time": 34.75,
        "duration": 0.25,
        "velocity": 0.79,
        "hand": "right"
      },
      {
        "midi": 69,
        "time": 35,
        "duration": 0.25,
        "velocity": 0.79,
        "hand": "right"
      },
      {
        "midi": 59,
        "time": 35.25,
        "duration": 0.25,
        "velocity": 0.79,
        "hand": "right"
      },
      {
        "midi": 69,
        "time": 35.5,
        "duration": 0.5,
        "velocity": 0.79,
        "hand": "right"
      },
      {
        "midi": 62,
        "time": 36,
        "duration": 0.5,
        "velocity": 0.79,
        "hand": "right"
      },
      {
        "midi": 66,
        "time": 36.5,
        "duration": 0.5,
        "velocity": 0.79,
        "hand": "right"
      },
      {
        "midi": 62,
        "time": 37,
        "duration": 0.5,
        "velocity": 0.79,
        "hand": "right"
      },
      {
        "midi": 66,
        "time": 37.5,
        "duration": 0.5,
        "velocity": 0.79,
        "hand": "right"
      },
      {
        "midi": 64,
        "time": 38,
        "duration": 0.25,
        "velocity": 0.79,
        "hand": "right"
      },
      {
        "midi": 67,
        "time": 38.25,
        "duration": 0.5,
        "velocity": 0.79,
        "hand": "right"
      },
      {
        "midi": 67,
        "time": 38.75,
        "duration": 0.25,
        "velocity": 0.79,
        "hand": "right"
      },
      {
        "midi": 61,
        "time": 39,
        "duration": 1,
        "velocity": 0.79,
        "hand": "right"
      },
      {
        "midi": 67,
        "time": 39.125,
        "duration": 0.875,
        "velocity": 0.79,
        "hand": "right"
      },
      {
        "midi": 38,
        "time": 39.5,
        "duration": 0.5,
        "velocity": 0.79,
        "hand": "right"
      },
      {
        "midi": 61,
        "time": 40,
        "duration": 0.25,
        "velocity": 0.79,
        "hand": "right"
      },
      {
        "midi": 57,
        "time": 40.125,
        "duration": 1.375,
        "velocity": 0.79,
        "hand": "right"
      },
      {
        "midi": 61,
        "time": 40.25,
        "duration": 0.5,
        "velocity": 0.79,
        "hand": "right"
      },
      {
        "midi": 61,
        "time": 40.75,
        "duration": 0.25,
        "velocity": 0.79,
        "hand": "right"
      },
      {
        "midi": 64,
        "time": 41,
        "duration": 0.25,
        "velocity": 0.79,
        "hand": "right"
      },
      {
        "midi": 62,
        "time": 41.25,
        "duration": 0.5,
        "velocity": 0.79,
        "hand": "right"
      },
      {
        "midi": 52,
        "time": 41.5,
        "duration": 0.5,
        "velocity": 0.79,
        "hand": "right"
      },
      {
        "midi": 61,
        "time": 41.75,
        "duration": 0.25,
        "velocity": 0.79,
        "hand": "right"
      },
      {
        "midi": 62,
        "time": 42,
        "duration": 0.25,
        "velocity": 0.79,
        "hand": "right"
      },
      {
        "midi": 66,
        "time": 42.25,
        "duration": 0.5,
        "velocity": 0.79,
        "hand": "right"
      },
      {
        "midi": 66,
        "time": 42.75,
        "duration": 0.25,
        "velocity": 0.79,
        "hand": "right"
      },
      {
        "midi": 57,
        "time": 43,
        "duration": 1,
        "velocity": 0.79,
        "hand": "right"
      },
      {
        "midi": 66,
        "time": 43.125,
        "duration": 0.875,
        "velocity": 0.79,
        "hand": "right"
      },
      {
        "midi": 62,
        "time": 44,
        "duration": 0.5,
        "velocity": 0.79,
        "hand": "right"
      },
      {
        "midi": 66,
        "time": 44.5,
        "duration": 0.5,
        "velocity": 0.79,
        "hand": "right"
      },
      {
        "midi": 62,
        "time": 45,
        "duration": 0.5,
        "velocity": 0.79,
        "hand": "right"
      },
      {
        "midi": 66,
        "time": 45.5,
        "duration": 0.5,
        "velocity": 0.79,
        "hand": "right"
      },
      {
        "midi": 64,
        "time": 46,
        "duration": 0.25,
        "velocity": 0.79,
        "hand": "right"
      },
      {
        "midi": 67,
        "time": 46.25,
        "duration": 0.5,
        "velocity": 0.79,
        "hand": "right"
      },
      {
        "midi": 67,
        "time": 46.75,
        "duration": 0.25,
        "velocity": 0.79,
        "hand": "right"
      },
      {
        "midi": 61,
        "time": 47,
        "duration": 1,
        "velocity": 0.79,
        "hand": "right"
      },
      {
        "midi": 67,
        "time": 47.125,
        "duration": 0.875,
        "velocity": 0.79,
        "hand": "right"
      },
      {
        "midi": 38,
        "time": 47.5,
        "duration": 0.5,
        "velocity": 0.79,
        "hand": "right"
      },
      {
        "midi": 61,
        "time": 48,
        "duration": 0.25,
        "velocity": 0.79,
        "hand": "right"
      },
      {
        "midi": 57,
        "time": 48.125,
        "duration": 1.375,
        "velocity": 0.79,
        "hand": "right"
      },
      {
        "midi": 61,
        "time": 48.25,
        "duration": 0.5,
        "velocity": 0.79,
        "hand": "right"
      },
      {
        "midi": 61,
        "time": 48.75,
        "duration": 0.25,
        "velocity": 0.79,
        "hand": "right"
      },
      {
        "midi": 64,
        "time": 49,
        "duration": 0.25,
        "velocity": 0.79,
        "hand": "right"
      },
      {
        "midi": 62,
        "time": 49.25,
        "duration": 0.5,
        "velocity": 0.79,
        "hand": "right"
      },
      {
        "midi": 52,
        "time": 49.5,
        "duration": 0.5,
        "velocity": 0.79,
        "hand": "right"
      },
      {
        "midi": 61,
        "time": 49.75,
        "duration": 0.25,
        "velocity": 0.79,
        "hand": "right"
      },
      {
        "midi": 62,
        "time": 50,
        "duration": 0.25,
        "velocity": 0.79,
        "hand": "right"
      },
      {
        "midi": 66,
        "time": 50.25,
        "duration": 0.5,
        "velocity": 0.79,
        "hand": "right"
      },
      {
        "midi": 66,
        "time": 50.75,
        "duration": 0.25,
        "velocity": 0.79,
        "hand": "right"
      },
      {
        "midi": 57,
        "time": 51,
        "duration": 1,
        "velocity": 0.79,
        "hand": "right"
      },
      {
        "midi": 66,
        "time": 51.125,
        "duration": 0.875,
        "velocity": 0.79,
        "hand": "right"
      },
      {
        "midi": 38,
        "time": 52,
        "duration": 1.5,
        "velocity": 0.79,
        "hand": "right"
      },
      {
        "midi": 57,
        "time": 52.25,
        "duration": 0.25,
        "velocity": 0.79,
        "hand": "right"
      },
      {
        "midi": 69,
        "time": 52.5,
        "duration": 0.25,
        "velocity": 0.79,
        "hand": "right"
      },
      {
        "midi": 69,
        "time": 52.75,
        "duration": 0.25,
        "velocity": 0.79,
        "hand": "right"
      },
      {
        "midi": 69,
        "time": 53,
        "duration": 0.25,
        "velocity": 0.79,
        "hand": "right"
      },
      {
        "midi": 57,
        "time": 53.25,
        "duration": 0.25,
        "velocity": 0.79,
        "hand": "right"
      },
      {
        "midi": 66,
        "time": 53.5,
        "duration": 0.5,
        "velocity": 0.79,
        "hand": "right"
      },
      {
        "midi": 38,
        "time": 54,
        "duration": 1.5,
        "velocity": 0.79,
        "hand": "right"
      },
      {
        "midi": 61,
        "time": 54.125,
        "duration": 1.375,
        "velocity": 0.79,
        "hand": "right"
      },
      {
        "midi": 65,
        "time": 54.25,
        "duration": 1.375,
        "velocity": 0.79,
        "hand": "right"
      },
      {
        "midi": 69,
        "time": 54.5,
        "duration": 0.25,
        "velocity": 0.79,
        "hand": "right"
      },
      {
        "midi": 69,
        "time": 54.75,
        "duration": 0.25,
        "velocity": 0.79,
        "hand": "right"
      },
      {
        "midi": 69,
        "time": 55,
        "duration": 0.25,
        "velocity": 0.79,
        "hand": "right"
      },
      {
        "midi": 61,
        "time": 55.25,
        "duration": 0.25,
        "velocity": 0.79,
        "hand": "right"
      },
      {
        "midi": 65,
        "time": 55.5,
        "duration": 0.5,
        "velocity": 0.79,
        "hand": "right"
      },
      {
        "midi": 38,
        "time": 56,
        "duration": 1.5,
        "velocity": 0.79,
        "hand": "right"
      },
      {
        "midi": 57,
        "time": 56.125,
        "duration": 1.375,
        "velocity": 0.79,
        "hand": "right"
      },
      {
        "midi": 66,
        "time": 56.25,
        "duration": 1.25,
        "velocity": 0.79,
        "hand": "right"
      },
      {
        "midi": 69,
        "time": 56.5,
        "duration": 0.25,
        "velocity": 0.79,
        "hand": "right"
      },
      {
        "midi": 69,
        "time": 56.75,
        "duration": 0.25,
        "velocity": 0.79,
        "hand": "right"
      },
      {
        "midi": 69,
        "time": 57,
        "duration": 0.25,
        "velocity": 0.79,
        "hand": "right"
      },
      {
        "midi": 61,
        "time": 57.25,
        "duration": 0.25,
        "velocity": 0.79,
        "hand": "right"
      },
      {
        "midi": 66,
        "time": 57.5,
        "duration": 0.5,
        "velocity": 0.79,
        "hand": "right"
      },
      {
        "midi": 38,
        "time": 58,
        "duration": 1.5,
        "velocity": 0.79,
        "hand": "right"
      },
      {
        "midi": 61,
        "time": 58.125,
        "duration": 1.375,
        "velocity": 0.79,
        "hand": "right"
      },
      {
        "midi": 65,
        "time": 58.25,
        "duration": 1.375,
        "velocity": 0.79,
        "hand": "right"
      },
      {
        "midi": 69,
        "time": 58.5,
        "duration": 0.25,
        "velocity": 0.79,
        "hand": "right"
      },
      {
        "midi": 69,
        "time": 58.75,
        "duration": 0.25,
        "velocity": 0.79,
        "hand": "right"
      },
      {
        "midi": 69,
        "time": 59,
        "duration": 0.25,
        "velocity": 0.79,
        "hand": "right"
      },
      {
        "midi": 61,
        "time": 59.25,
        "duration": 0.25,
        "velocity": 0.79,
        "hand": "right"
      },
      {
        "midi": 64,
        "time": 59.5,
        "duration": 0.5,
        "velocity": 0.79,
        "hand": "right"
      },
      {
        "midi": 38,
        "time": 60,
        "duration": 1.5,
        "velocity": 0.79,
        "hand": "right"
      },
      {
        "midi": 62,
        "time": 60.125,
        "duration": 1.375,
        "velocity": 0.79,
        "hand": "right"
      },
      {
        "midi": 45,
        "time": 60.25,
        "duration": 0.25,
        "velocity": 0.79,
        "hand": "right"
      },
      {
        "midi": 57,
        "time": 60.5,
        "duration": 0.25,
        "velocity": 0.79,
        "hand": "right"
      },
      {
        "midi": 57,
        "time": 60.75,
        "duration": 0.25,
        "velocity": 0.79,
        "hand": "right"
      },
      {
        "midi": 57,
        "time": 61,
        "duration": 1,
        "velocity": 0.79,
        "hand": "right"
      },
      {
        "midi": 38,
        "time": 62,
        "duration": 1,
        "velocity": 0.79,
        "hand": "right"
      },
      {
        "midi": 62,
        "time": 62.125,
        "duration": 0.875,
        "velocity": 0.79,
        "hand": "right"
      },
      {
        "midi": 45,
        "time": 62.25,
        "duration": 0.25,
        "velocity": 0.79,
        "hand": "right"
      },
      {
        "midi": 57,
        "time": 62.5,
        "duration": 0.25,
        "velocity": 0.79,
        "hand": "right"
      },
      {
        "midi": 57,
        "time": 62.75,
        "duration": 0.25,
        "velocity": 0.79,
        "hand": "right"
      },
      {
        "midi": 57,
        "time": 63,
        "duration": 1,
        "velocity": 0.79,
        "hand": "right"
      },
      {
        "midi": 66,
        "time": 63.125,
        "duration": 0.875,
        "velocity": 0.79,
        "hand": "right"
      },
      {
        "midi": 69,
        "time": 63.25,
        "duration": 0.25,
        "velocity": 0.79,
        "hand": "right"
      },
      {
        "midi": 78,
        "time": 63.5,
        "duration": 0.25,
        "velocity": 0.79,
        "hand": "right"
      },
      {
        "midi": 78,
        "time": 63.75,
        "duration": 0.25,
        "velocity": 0.79,
        "hand": "right"
      },
      {
        "midi": 71,
        "time": 64,
        "duration": 2,
        "velocity": 0.79,
        "hand": "right"
      },
      {
        "midi": 62,
        "time": 64.125,
        "duration": 1.875,
        "velocity": 0.79,
        "hand": "right"
      }
    ],
    "medium": [
      {
        "midi": 38,
        "time": 0,
        "duration": 1.5,
        "velocity": 0.79,
        "hand": "left"
      },
      {
        "midi": 50,
        "time": 0.125,
        "duration": 1.5,
        "velocity": 0.79,
        "hand": "left"
      },
      {
        "midi": 57,
        "time": 0.125,
        "duration": 1.375,
        "velocity": 0.79,
        "hand": "left"
      },
      {
        "midi": 57,
        "time": 0.25,
        "duration": 0.25,
        "velocity": 0.79,
        "hand": "left"
      },
      {
        "midi": 62,
        "time": 0.25,
        "duration": 1.375,
        "velocity": 0.79,
        "hand": "right"
      },
      {
        "midi": 66,
        "time": 0.25,
        "duration": 1.25,
        "velocity": 0.79,
        "hand": "right"
      },
      {
        "midi": 69,
        "time": 0.5,
        "duration": 0.25,
        "velocity": 0.79,
        "hand": "right"
      },
      {
        "midi": 69,
        "time": 0.75,
        "duration": 0.25,
        "velocity": 0.79,
        "hand": "right"
      },
      {
        "midi": 69,
        "time": 1,
        "duration": 0.25,
        "velocity": 0.79,
        "hand": "right"
      },
      {
        "midi": 61,
        "time": 1.25,
        "duration": 0.25,
        "velocity": 0.79,
        "hand": "right"
      },
      {
        "midi": 38,
        "time": 1.5,
        "duration": 0.5,
        "velocity": 0.79,
        "hand": "left"
      },
      {
        "midi": 62,
        "time": 1.5,
        "duration": 0.5,
        "velocity": 0.79,
        "hand": "right"
      },
      {
        "midi": 66,
        "time": 1.5,
        "duration": 0.5,
        "velocity": 0.79,
        "hand": "right"
      },
      {
        "midi": 38,
        "time": 2,
        "duration": 1.5,
        "velocity": 0.79,
        "hand": "left"
      },
      {
        "midi": 50,
        "time": 2.125,
        "duration": 1.5,
        "velocity": 0.79,
        "hand": "left"
      },
      {
        "midi": 61,
        "time": 2.125,
        "duration": 1.375,
        "velocity": 0.79,
        "hand": "right"
      },
      {
        "midi": 57,
        "time": 2.25,
        "duration": 0.25,
        "velocity": 0.79,
        "hand": "left"
      },
      {
        "midi": 65,
        "time": 2.25,
        "duration": 1.375,
        "velocity": 0.79,
        "hand": "right"
      },
      {
        "midi": 69,
        "time": 2.5,
        "duration": 0.25,
        "velocity": 0.79,
        "hand": "right"
      },
      {
        "midi": 69,
        "time": 2.75,
        "duration": 0.25,
        "velocity": 0.79,
        "hand": "right"
      },
      {
        "midi": 69,
        "time": 3,
        "duration": 0.25,
        "velocity": 0.79,
        "hand": "right"
      },
      {
        "midi": 61,
        "time": 3.25,
        "duration": 0.25,
        "velocity": 0.79,
        "hand": "right"
      },
      {
        "midi": 38,
        "time": 3.5,
        "duration": 0.5,
        "velocity": 0.79,
        "hand": "left"
      },
      {
        "midi": 61,
        "time": 3.5,
        "duration": 0.5,
        "velocity": 0.79,
        "hand": "right"
      },
      {
        "midi": 65,
        "time": 3.5,
        "duration": 0.5,
        "velocity": 0.79,
        "hand": "right"
      },
      {
        "midi": 38,
        "time": 4,
        "duration": 1.5,
        "velocity": 0.79,
        "hand": "left"
      },
      {
        "midi": 50,
        "time": 4.125,
        "duration": 1.5,
        "velocity": 0.79,
        "hand": "left"
      },
      {
        "midi": 57,
        "time": 4.125,
        "duration": 1.375,
        "velocity": 0.79,
        "hand": "left"
      },
      {
        "midi": 57,
        "time": 4.25,
        "duration": 0.25,
        "velocity": 0.79,
        "hand": "left"
      },
      {
        "midi": 62,
        "time": 4.25,
        "duration": 1.375,
        "velocity": 0.79,
        "hand": "right"
      },
      {
        "midi": 66,
        "time": 4.25,
        "duration": 1.25,
        "velocity": 0.79,
        "hand": "right"
      },
      {
        "midi": 69,
        "time": 4.5,
        "duration": 0.25,
        "velocity": 0.79,
        "hand": "right"
      },
      {
        "midi": 69,
        "time": 4.75,
        "duration": 0.25,
        "velocity": 0.79,
        "hand": "right"
      },
      {
        "midi": 69,
        "time": 5,
        "duration": 0.25,
        "velocity": 0.79,
        "hand": "right"
      },
      {
        "midi": 61,
        "time": 5.25,
        "duration": 0.25,
        "velocity": 0.79,
        "hand": "right"
      },
      {
        "midi": 38,
        "time": 5.5,
        "duration": 0.5,
        "velocity": 0.79,
        "hand": "left"
      },
      {
        "midi": 62,
        "time": 5.5,
        "duration": 0.5,
        "velocity": 0.79,
        "hand": "right"
      },
      {
        "midi": 66,
        "time": 5.5,
        "duration": 0.5,
        "velocity": 0.79,
        "hand": "right"
      },
      {
        "midi": 38,
        "time": 6,
        "duration": 1.5,
        "velocity": 0.79,
        "hand": "left"
      },
      {
        "midi": 50,
        "time": 6.125,
        "duration": 1.5,
        "velocity": 0.79,
        "hand": "left"
      },
      {
        "midi": 61,
        "time": 6.125,
        "duration": 1.375,
        "velocity": 0.79,
        "hand": "right"
      },
      {
        "midi": 57,
        "time": 6.25,
        "duration": 0.25,
        "velocity": 0.79,
        "hand": "left"
      },
      {
        "midi": 65,
        "time": 6.25,
        "duration": 1.375,
        "velocity": 0.79,
        "hand": "right"
      },
      {
        "midi": 69,
        "time": 6.5,
        "duration": 0.25,
        "velocity": 0.79,
        "hand": "right"
      },
      {
        "midi": 69,
        "time": 6.75,
        "duration": 0.25,
        "velocity": 0.79,
        "hand": "right"
      },
      {
        "midi": 69,
        "time": 7,
        "duration": 0.25,
        "velocity": 0.79,
        "hand": "right"
      },
      {
        "midi": 61,
        "time": 7.25,
        "duration": 0.25,
        "velocity": 0.79,
        "hand": "right"
      },
      {
        "midi": 38,
        "time": 7.5,
        "duration": 0.5,
        "velocity": 0.79,
        "hand": "left"
      },
      {
        "midi": 61,
        "time": 7.5,
        "duration": 0.5,
        "velocity": 0.79,
        "hand": "right"
      },
      {
        "midi": 64,
        "time": 7.5,
        "duration": 0.5,
        "velocity": 0.79,
        "hand": "right"
      },
      {
        "midi": 38,
        "time": 8,
        "duration": 1.5,
        "velocity": 0.79,
        "hand": "left"
      },
      {
        "midi": 50,
        "time": 8.125,
        "duration": 1.5,
        "velocity": 0.79,
        "hand": "left"
      },
      {
        "midi": 54,
        "time": 8.125,
        "duration": 1.375,
        "velocity": 0.79,
        "hand": "left"
      },
      {
        "midi": 45,
        "time": 8.25,
        "duration": 0.25,
        "velocity": 0.79,
        "hand": "left"
      },
      {
        "midi": 57,
        "time": 8.25,
        "duration": 1.375,
        "velocity": 0.79,
        "hand": "left"
      },
      {
        "midi": 62,
        "time": 8.25,
        "duration": 1.25,
        "velocity": 0.79,
        "hand": "right"
      },
      {
        "midi": 57,
        "time": 8.5,
        "duration": 0.25,
        "velocity": 0.79,
        "hand": "left"
      },
      {
        "midi": 57,
        "time": 8.75,
        "duration": 0.25,
        "velocity": 0.79,
        "hand": "left"
      },
      {
        "midi": 57,
        "time": 9,
        "duration": 1,
        "velocity": 0.79,
        "hand": "left"
      },
      {
        "midi": 38,
        "time": 10,
        "duration": 1.5,
        "velocity": 0.79,
        "hand": "left"
      },
      {
        "midi": 50,
        "time": 10.125,
        "duration": 1.5,
        "velocity": 0.79,
        "hand": "left"
      },
      {
        "midi": 57,
        "time": 10.125,
        "duration": 1.375,
        "velocity": 0.79,
        "hand": "left"
      },
      {
        "midi": 57,
        "time": 10.25,
        "duration": 0.25,
        "velocity": 0.79,
        "hand": "left"
      },
      {
        "midi": 62,
        "time": 10.25,
        "duration": 1.375,
        "velocity": 0.79,
        "hand": "right"
      },
      {
        "midi": 66,
        "time": 10.25,
        "duration": 1.25,
        "velocity": 0.79,
        "hand": "right"
      },
      {
        "midi": 69,
        "time": 10.5,
        "duration": 0.25,
        "velocity": 0.79,
        "hand": "right"
      },
      {
        "midi": 69,
        "time": 10.75,
        "duration": 0.25,
        "velocity": 0.79,
        "hand": "right"
      },
      {
        "midi": 69,
        "time": 11,
        "duration": 0.25,
        "velocity": 0.79,
        "hand": "right"
      },
      {
        "midi": 61,
        "time": 11.25,
        "duration": 0.25,
        "velocity": 0.79,
        "hand": "right"
      },
      {
        "midi": 38,
        "time": 11.5,
        "duration": 0.5,
        "velocity": 0.79,
        "hand": "left"
      },
      {
        "midi": 62,
        "time": 11.5,
        "duration": 0.5,
        "velocity": 0.79,
        "hand": "right"
      },
      {
        "midi": 66,
        "time": 11.5,
        "duration": 0.5,
        "velocity": 0.79,
        "hand": "right"
      },
      {
        "midi": 38,
        "time": 12,
        "duration": 1.5,
        "velocity": 0.79,
        "hand": "left"
      },
      {
        "midi": 50,
        "time": 12.125,
        "duration": 1.5,
        "velocity": 0.79,
        "hand": "left"
      },
      {
        "midi": 61,
        "time": 12.125,
        "duration": 1.375,
        "velocity": 0.79,
        "hand": "right"
      },
      {
        "midi": 57,
        "time": 12.25,
        "duration": 0.25,
        "velocity": 0.79,
        "hand": "left"
      },
      {
        "midi": 65,
        "time": 12.25,
        "duration": 1.375,
        "velocity": 0.79,
        "hand": "right"
      },
      {
        "midi": 69,
        "time": 12.5,
        "duration": 0.25,
        "velocity": 0.79,
        "hand": "right"
      },
      {
        "midi": 69,
        "time": 12.75,
        "duration": 0.25,
        "velocity": 0.79,
        "hand": "right"
      },
      {
        "midi": 69,
        "time": 13,
        "duration": 0.25,
        "velocity": 0.79,
        "hand": "right"
      },
      {
        "midi": 61,
        "time": 13.25,
        "duration": 0.25,
        "velocity": 0.79,
        "hand": "right"
      },
      {
        "midi": 38,
        "time": 13.5,
        "duration": 0.5,
        "velocity": 0.79,
        "hand": "left"
      },
      {
        "midi": 61,
        "time": 13.5,
        "duration": 0.5,
        "velocity": 0.79,
        "hand": "right"
      },
      {
        "midi": 65,
        "time": 13.5,
        "duration": 0.5,
        "velocity": 0.79,
        "hand": "right"
      },
      {
        "midi": 38,
        "time": 14,
        "duration": 1.5,
        "velocity": 0.79,
        "hand": "left"
      },
      {
        "midi": 50,
        "time": 14.125,
        "duration": 1.5,
        "velocity": 0.79,
        "hand": "left"
      },
      {
        "midi": 57,
        "time": 14.125,
        "duration": 1.375,
        "velocity": 0.79,
        "hand": "left"
      },
      {
        "midi": 57,
        "time": 14.25,
        "duration": 0.25,
        "velocity": 0.79,
        "hand": "left"
      },
      {
        "midi": 62,
        "time": 14.25,
        "duration": 1.375,
        "velocity": 0.79,
        "hand": "right"
      },
      {
        "midi": 66,
        "time": 14.25,
        "duration": 1.25,
        "velocity": 0.79,
        "hand": "right"
      },
      {
        "midi": 69,
        "time": 14.5,
        "duration": 0.25,
        "velocity": 0.79,
        "hand": "right"
      },
      {
        "midi": 69,
        "time": 14.75,
        "duration": 0.25,
        "velocity": 0.79,
        "hand": "right"
      },
      {
        "midi": 69,
        "time": 15,
        "duration": 0.25,
        "velocity": 0.79,
        "hand": "right"
      },
      {
        "midi": 61,
        "time": 15.25,
        "duration": 0.25,
        "velocity": 0.79,
        "hand": "right"
      },
      {
        "midi": 38,
        "time": 15.5,
        "duration": 0.5,
        "velocity": 0.79,
        "hand": "left"
      },
      {
        "midi": 62,
        "time": 15.5,
        "duration": 0.5,
        "velocity": 0.79,
        "hand": "right"
      },
      {
        "midi": 66,
        "time": 15.5,
        "duration": 0.5,
        "velocity": 0.79,
        "hand": "right"
      },
      {
        "midi": 38,
        "time": 16,
        "duration": 1.5,
        "velocity": 0.79,
        "hand": "left"
      },
      {
        "midi": 50,
        "time": 16.125,
        "duration": 1.5,
        "velocity": 0.79,
        "hand": "left"
      },
      {
        "midi": 61,
        "time": 16.125,
        "duration": 1.375,
        "velocity": 0.79,
        "hand": "right"
      },
      {
        "midi": 57,
        "time": 16.25,
        "duration": 0.25,
        "velocity": 0.79,
        "hand": "left"
      },
      {
        "midi": 65,
        "time": 16.25,
        "duration": 1.375,
        "velocity": 0.79,
        "hand": "right"
      },
      {
        "midi": 69,
        "time": 16.5,
        "duration": 0.25,
        "velocity": 0.79,
        "hand": "right"
      },
      {
        "midi": 69,
        "time": 16.75,
        "duration": 0.25,
        "velocity": 0.79,
        "hand": "right"
      },
      {
        "midi": 69,
        "time": 17,
        "duration": 0.25,
        "velocity": 0.79,
        "hand": "right"
      },
      {
        "midi": 61,
        "time": 17.25,
        "duration": 0.25,
        "velocity": 0.79,
        "hand": "right"
      },
      {
        "midi": 38,
        "time": 17.5,
        "duration": 0.5,
        "velocity": 0.79,
        "hand": "left"
      },
      {
        "midi": 61,
        "time": 17.5,
        "duration": 0.5,
        "velocity": 0.79,
        "hand": "right"
      },
      {
        "midi": 64,
        "time": 17.5,
        "duration": 0.5,
        "velocity": 0.79,
        "hand": "right"
      },
      {
        "midi": 38,
        "time": 18,
        "duration": 1.5,
        "velocity": 0.79,
        "hand": "left"
      },
      {
        "midi": 50,
        "time": 18.125,
        "duration": 1.5,
        "velocity": 0.79,
        "hand": "left"
      },
      {
        "midi": 54,
        "time": 18.125,
        "duration": 1.375,
        "velocity": 0.79,
        "hand": "left"
      },
      {
        "midi": 45,
        "time": 18.25,
        "duration": 0.25,
        "velocity": 0.79,
        "hand": "left"
      },
      {
        "midi": 57,
        "time": 18.25,
        "duration": 1.375,
        "velocity": 0.79,
        "hand": "left"
      },
      {
        "midi": 62,
        "time": 18.25,
        "duration": 1.25,
        "velocity": 0.79,
        "hand": "right"
      },
      {
        "midi": 57,
        "time": 18.5,
        "duration": 0.25,
        "velocity": 0.79,
        "hand": "left"
      },
      {
        "midi": 57,
        "time": 18.75,
        "duration": 0.25,
        "velocity": 0.79,
        "hand": "left"
      },
      {
        "midi": 57,
        "time": 19,
        "duration": 1,
        "velocity": 0.79,
        "hand": "left"
      },
      {
        "midi": 38,
        "time": 20,
        "duration": 1.5,
        "velocity": 0.79,
        "hand": "left"
      },
      {
        "midi": 62,
        "time": 20,
        "duration": 0.25,
        "velocity": 0.79,
        "hand": "right"
      },
      {
        "midi": 54,
        "time": 20.125,
        "duration": 1.5,
        "velocity": 0.79,
        "hand": "left"
      },
      {
        "midi": 57,
        "time": 20.125,
        "duration": 1.375,
        "velocity": 0.79,
        "hand": "left"
      },
      {
        "midi": 62,
        "time": 20.25,
        "duration": 0.5,
        "velocity": 0.79,
        "hand": "right"
      },
      {
        "midi": 66,
        "time": 20.75,
        "duration": 0.25,
        "velocity": 0.79,
        "hand": "right"
      },
      {
        "midi": 69,
        "time": 21,
        "duration": 0.25,
        "velocity": 0.79,
        "hand": "right"
      },
      {
        "midi": 66,
        "time": 21.25,
        "duration": 0.5,
        "velocity": 0.79,
        "hand": "right"
      },
      {
        "midi": 38,
        "time": 21.5,
        "duration": 0.5,
        "velocity": 0.79,
        "hand": "left"
      },
      {
        "midi": 54,
        "time": 21.5,
        "duration": 0.5,
        "velocity": 0.79,
        "hand": "left"
      },
      {
        "midi": 57,
        "time": 21.5,
        "duration": 0.5,
        "velocity": 0.79,
        "hand": "left"
      },
      {
        "midi": 62,
        "time": 21.75,
        "duration": 0.25,
        "velocity": 0.79,
        "hand": "right"
      },
      {
        "midi": 38,
        "time": 22,
        "duration": 1.5,
        "velocity": 0.79,
        "hand": "left"
      },
      {
        "midi": 50,
        "time": 22.125,
        "duration": 1.5,
        "velocity": 0.79,
        "hand": "left"
      },
      {
        "midi": 55,
        "time": 22.125,
        "duration": 1.375,
        "velocity": 0.79,
        "hand": "left"
      },
      {
        "midi": 57,
        "time": 22.25,
        "duration": 0.25,
        "velocity": 0.79,
        "hand": "left"
      },
      {
        "midi": 64,
        "time": 22.25,
        "duration": 1.375,
        "velocity": 0.79,
        "hand": "right"
      },
      {
        "midi": 69,
        "time": 22.5,
        "duration": 0.25,
        "velocity": 0.79,
        "hand": "right"
      },
      {
        "midi": 69,
        "time": 22.75,
        "duration": 0.25,
        "velocity": 0.79,
        "hand": "right"
      },
      {
        "midi": 69,
        "time": 23,
        "duration": 0.25,
        "velocity": 0.79,
        "hand": "right"
      },
      {
        "midi": 57,
        "time": 23.25,
        "duration": 0.25,
        "velocity": 0.79,
        "hand": "left"
      },
      {
        "midi": 38,
        "time": 23.5,
        "duration": 0.5,
        "velocity": 0.79,
        "hand": "left"
      },
      {
        "midi": 69,
        "time": 23.5,
        "duration": 0.5,
        "velocity": 0.79,
        "hand": "right"
      },
      {
        "midi": 38,
        "time": 24,
        "duration": 1.5,
        "velocity": 0.79,
        "hand": "left"
      },
      {
        "midi": 61,
        "time": 24,
        "duration": 0.25,
        "velocity": 0.79,
        "hand": "right"
      },
      {
        "midi": 55,
        "time": 24.125,
        "duration": 1.5,
        "velocity": 0.79,
        "hand": "left"
      },
      {
        "midi": 57,
        "time": 24.125,
        "duration": 1.375,
        "velocity": 0.79,
        "hand": "left"
      },
      {
        "midi": 61,
        "time": 24.25,
        "duration": 0.5,
        "velocity": 0.79,
        "hand": "right"
      },
      {
        "midi": 64,
        "time": 24.75,
        "duration": 0.25,
        "velocity": 0.79,
        "hand": "right"
      },
      {
        "midi": 67,
        "time": 25,
        "duration": 0.25,
        "velocity": 0.79,
        "hand": "right"
      },
      {
        "midi": 64,
        "time": 25.25,
        "duration": 0.5,
        "velocity": 0.79,
        "hand": "right"
      },
      {
        "midi": 38,
        "time": 25.5,
        "duration": 0.5,
        "velocity": 0.79,
        "hand": "left"
      },
      {
        "midi": 55,
        "time": 25.5,
        "duration": 0.5,
        "velocity": 0.79,
        "hand": "left"
      },
      {
        "midi": 57,
        "time": 25.5,
        "duration": 0.5,
        "velocity": 0.79,
        "hand": "left"
      },
      {
        "midi": 61,
        "time": 25.75,
        "duration": 0.25,
        "velocity": 0.79,
        "hand": "right"
      },
      {
        "midi": 38,
        "time": 26,
        "duration": 1,
        "velocity": 0.79,
        "hand": "left"
      },
      {
        "midi": 57,
        "time": 26.25,
        "duration": 0.25,
        "velocity": 0.79,
        "hand": "left"
      },
      {
        "midi": 69,
        "time": 26.5,
        "duration": 0.25,
        "velocity": 0.79,
        "hand": "right"
      },
      {
        "midi": 69,
        "time": 26.75,
        "duration": 0.25,
        "velocity": 0.79,
        "hand": "right"
      },
      {
        "midi": 69,
        "time": 27,
        "duration": 0.25,
        "velocity": 0.79,
        "hand": "right"
      },
      {
        "midi": 57,
        "time": 27.25,
        "duration": 0.25,
        "velocity": 0.79,
        "hand": "left"
      },
      {
        "midi": 69,
        "time": 27.5,
        "duration": 0.5,
        "velocity": 0.79,
        "hand": "right"
      },
      {
        "midi": 38,
        "time": 28,
        "duration": 1.5,
        "velocity": 0.79,
        "hand": "left"
      },
      {
        "midi": 62,
        "time": 28,
        "duration": 0.25,
        "velocity": 0.79,
        "hand": "right"
      },
      {
        "midi": 54,
        "time": 28.125,
        "duration": 1.5,
        "velocity": 0.79,
        "hand": "left"
      },
      {
        "midi": 57,
        "time": 28.125,
        "duration": 1.375,
        "velocity": 0.79,
        "hand": "left"
      },
      {
        "midi": 62,
        "time": 28.25,
        "duration": 0.5,
        "velocity": 0.79,
        "hand": "right"
      },
      {
        "midi": 66,
        "time": 28.75,
        "duration": 0.25,
        "velocity": 0.79,
        "hand": "right"
      },
      {
        "midi": 69,
        "time": 29,
        "duration": 0.25,
        "velocity": 0.79,
        "hand": "right"
      },
      {
        "midi": 66,
        "time": 29.25,
        "duration": 0.5,
        "velocity": 0.79,
        "hand": "right"
      },
      {
        "midi": 38,
        "time": 29.5,
        "duration": 0.5,
        "velocity": 0.79,
        "hand": "left"
      },
      {
        "midi": 54,
        "time": 29.5,
        "duration": 0.5,
        "velocity": 0.79,
        "hand": "left"
      },
      {
        "midi": 57,
        "time": 29.5,
        "duration": 0.5,
        "velocity": 0.79,
        "hand": "left"
      },
      {
        "midi": 62,
        "time": 29.75,
        "duration": 0.25,
        "velocity": 0.79,
        "hand": "right"
      },
      {
        "midi": 38,
        "time": 30,
        "duration": 1.5,
        "velocity": 0.79,
        "hand": "left"
      },
      {
        "midi": 50,
        "time": 30.125,
        "duration": 1.5,
        "velocity": 0.79,
        "hand": "left"
      },
      {
        "midi": 55,
        "time": 30.125,
        "duration": 1.375,
        "velocity": 0.79,
        "hand": "left"
      },
      {
        "midi": 57,
        "time": 30.25,
        "duration": 0.25,
        "velocity": 0.79,
        "hand": "left"
      },
      {
        "midi": 64,
        "time": 30.25,
        "duration": 1.375,
        "velocity": 0.79,
        "hand": "right"
      },
      {
        "midi": 69,
        "time": 30.5,
        "duration": 0.25,
        "velocity": 0.79,
        "hand": "right"
      },
      {
        "midi": 69,
        "time": 30.75,
        "duration": 0.25,
        "velocity": 0.79,
        "hand": "right"
      },
      {
        "midi": 69,
        "time": 31,
        "duration": 0.25,
        "velocity": 0.79,
        "hand": "right"
      },
      {
        "midi": 57,
        "time": 31.25,
        "duration": 0.25,
        "velocity": 0.79,
        "hand": "left"
      },
      {
        "midi": 38,
        "time": 31.5,
        "duration": 0.5,
        "velocity": 0.79,
        "hand": "left"
      },
      {
        "midi": 69,
        "time": 31.5,
        "duration": 0.5,
        "velocity": 0.79,
        "hand": "right"
      },
      {
        "midi": 38,
        "time": 32,
        "duration": 1.5,
        "velocity": 0.79,
        "hand": "left"
      },
      {
        "midi": 61,
        "time": 32,
        "duration": 0.25,
        "velocity": 0.79,
        "hand": "right"
      },
      {
        "midi": 55,
        "time": 32.125,
        "duration": 1.5,
        "velocity": 0.79,
        "hand": "left"
      },
      {
        "midi": 57,
        "time": 32.125,
        "duration": 1.375,
        "velocity": 0.79,
        "hand": "left"
      },
      {
        "midi": 61,
        "time": 32.25,
        "duration": 0.5,
        "velocity": 0.79,
        "hand": "right"
      },
      {
        "midi": 64,
        "time": 32.75,
        "duration": 0.25,
        "velocity": 0.79,
        "hand": "right"
      },
      {
        "midi": 67,
        "time": 33,
        "duration": 0.25,
        "velocity": 0.79,
        "hand": "right"
      },
      {
        "midi": 64,
        "time": 33.25,
        "duration": 0.5,
        "velocity": 0.79,
        "hand": "right"
      },
      {
        "midi": 38,
        "time": 33.5,
        "duration": 0.5,
        "velocity": 0.79,
        "hand": "left"
      },
      {
        "midi": 55,
        "time": 33.5,
        "duration": 0.5,
        "velocity": 0.79,
        "hand": "left"
      },
      {
        "midi": 57,
        "time": 33.5,
        "duration": 0.5,
        "velocity": 0.79,
        "hand": "left"
      },
      {
        "midi": 61,
        "time": 33.75,
        "duration": 0.25,
        "velocity": 0.79,
        "hand": "right"
      },
      {
        "midi": 38,
        "time": 34,
        "duration": 1,
        "velocity": 0.79,
        "hand": "left"
      },
      {
        "midi": 50,
        "time": 34.125,
        "duration": 1,
        "velocity": 0.79,
        "hand": "left"
      },
      {
        "midi": 57,
        "time": 34.125,
        "duration": 0.875,
        "velocity": 0.79,
        "hand": "left"
      },
      {
        "midi": 57,
        "time": 34.25,
        "duration": 0.25,
        "velocity": 0.79,
        "hand": "left"
      },
      {
        "midi": 62,
        "time": 34.25,
        "duration": 0.875,
        "velocity": 0.79,
        "hand": "right"
      },
      {
        "midi": 69,
        "time": 34.5,
        "duration": 0.25,
        "velocity": 0.79,
        "hand": "right"
      },
      {
        "midi": 69,
        "time": 34.75,
        "duration": 0.25,
        "velocity": 0.79,
        "hand": "right"
      },
      {
        "midi": 45,
        "time": 35,
        "duration": 1,
        "velocity": 0.79,
        "hand": "left"
      },
      {
        "midi": 69,
        "time": 35,
        "duration": 0.25,
        "velocity": 0.79,
        "hand": "right"
      },
      {
        "midi": 59,
        "time": 35.25,
        "duration": 0.25,
        "velocity": 0.79,
        "hand": "left"
      },
      {
        "midi": 69,
        "time": 35.5,
        "duration": 0.5,
        "velocity": 0.79,
        "hand": "right"
      },
      {
        "midi": 38,
        "time": 36,
        "duration": 1.5,
        "velocity": 0.79,
        "hand": "left"
      },
      {
        "midi": 57,
        "time": 36,
        "duration": 0.5,
        "velocity": 0.79,
        "hand": "left"
      },
      {
        "midi": 62,
        "time": 36,
        "duration": 0.5,
        "velocity": 0.79,
        "hand": "right"
      },
      {
        "midi": 57,
        "time": 36.5,
        "duration": 0.5,
        "velocity": 0.79,
        "hand": "left"
      },
      {
        "midi": 62,
        "time": 36.5,
        "duration": 0.5,
        "velocity": 0.79,
        "hand": "right"
      },
      {
        "midi": 66,
        "time": 36.5,
        "duration": 0.5,
        "velocity": 0.79,
        "hand": "right"
      },
      {
        "midi": 54,
        "time": 37,
        "duration": 0.5,
        "velocity": 0.79,
        "hand": "left"
      },
      {
        "midi": 57,
        "time": 37,
        "duration": 0.5,
        "velocity": 0.79,
        "hand": "left"
      },
      {
        "midi": 62,
        "time": 37,
        "duration": 0.5,
        "velocity": 0.79,
        "hand": "right"
      },
      {
        "midi": 38,
        "time": 37.5,
        "duration": 0.5,
        "velocity": 0.79,
        "hand": "left"
      },
      {
        "midi": 62,
        "time": 37.5,
        "duration": 0.5,
        "velocity": 0.79,
        "hand": "right"
      },
      {
        "midi": 66,
        "time": 37.5,
        "duration": 0.5,
        "velocity": 0.79,
        "hand": "right"
      },
      {
        "midi": 38,
        "time": 38,
        "duration": 1.5,
        "velocity": 0.79,
        "hand": "left"
      },
      {
        "midi": 59,
        "time": 38,
        "duration": 0.25,
        "velocity": 0.79,
        "hand": "left"
      },
      {
        "midi": 64,
        "time": 38,
        "duration": 0.25,
        "velocity": 0.79,
        "hand": "right"
      },
      {
        "midi": 64,
        "time": 38.25,
        "duration": 0.5,
        "velocity": 0.79,
        "hand": "right"
      },
      {
        "midi": 67,
        "time": 38.25,
        "duration": 0.5,
        "velocity": 0.79,
        "hand": "right"
      },
      {
        "midi": 60,
        "time": 38.75,
        "duration": 0.25,
        "velocity": 0.79,
        "hand": "right"
      },
      {
        "midi": 64,
        "time": 38.75,
        "duration": 0.25,
        "velocity": 0.79,
        "hand": "right"
      },
      {
        "midi": 67,
        "time": 38.75,
        "duration": 0.25,
        "velocity": 0.79,
        "hand": "right"
      },
      {
        "midi": 61,
        "time": 39,
        "duration": 1,
        "velocity": 0.79,
        "hand": "right"
      },
      {
        "midi": 64,
        "time": 39.125,
        "duration": 1,
        "velocity": 0.79,
        "hand": "right"
      },
      {
        "midi": 67,
        "time": 39.125,
        "duration": 0.875,
        "velocity": 0.79,
        "hand": "right"
      },
      {
        "midi": 38,
        "time": 39.5,
        "duration": 0.5,
        "velocity": 0.79,
        "hand": "left"
      },
      {
        "midi": 45,
        "time": 40,
        "duration": 1.5,
        "velocity": 0.79,
        "hand": "left"
      },
      {
        "midi": 57,
        "time": 40,
        "duration": 0.25,
        "velocity": 0.79,
        "hand": "left"
      },
      {
        "midi": 61,
        "time": 40,
        "duration": 0.25,
        "velocity": 0.79,
        "hand": "right"
      },
      {
        "midi": 52,
        "time": 40.125,
        "duration": 1.5,
        "velocity": 0.79,
        "hand": "left"
      },
      {
        "midi": 57,
        "time": 40.125,
        "duration": 1.375,
        "velocity": 0.79,
        "hand": "left"
      },
      {
        "midi": 57,
        "time": 40.25,
        "duration": 0.5,
        "velocity": 0.79,
        "hand": "left"
      },
      {
        "midi": 61,
        "time": 40.25,
        "duration": 0.5,
        "velocity": 0.79,
        "hand": "right"
      },
      {
        "midi": 57,
        "time": 40.75,
        "duration": 0.25,
        "velocity": 0.79,
        "hand": "left"
      },
      {
        "midi": 61,
        "time": 40.75,
        "duration": 0.25,
        "velocity": 0.79,
        "hand": "right"
      },
      {
        "midi": 61,
        "time": 41,
        "duration": 0.25,
        "velocity": 0.79,
        "hand": "right"
      },
      {
        "midi": 64,
        "time": 41,
        "duration": 0.25,
        "velocity": 0.79,
        "hand": "right"
      },
      {
        "midi": 59,
        "time": 41.25,
        "duration": 0.5,
        "velocity": 0.79,
        "hand": "left"
      },
      {
        "midi": 62,
        "time": 41.25,
        "duration": 0.5,
        "velocity": 0.79,
        "hand": "right"
      },
      {
        "midi": 45,
        "time": 41.5,
        "duration": 0.5,
        "velocity": 0.79,
        "hand": "left"
      },
      {
        "midi": 52,
        "time": 41.5,
        "duration": 0.5,
        "velocity": 0.79,
        "hand": "left"
      },
      {
        "midi": 57,
        "time": 41.75,
        "duration": 0.25,
        "velocity": 0.79,
        "hand": "left"
      },
      {
        "midi": 61,
        "time": 41.75,
        "duration": 0.25,
        "velocity": 0.79,
        "hand": "right"
      },
      {
        "midi": 38,
        "time": 42,
        "duration": 1,
        "velocity": 0.79,
        "hand": "left"
      },
      {
        "midi": 59,
        "time": 42,
        "duration": 0.25,
        "velocity": 0.79,
        "hand": "left"
      },
      {
        "midi": 62,
        "time": 42,
        "duration": 0.25,
        "velocity": 0.79,
        "hand": "right"
      },
      {
        "midi": 59,
        "time": 42.25,
        "duration": 0.5,
        "velocity": 0.79,
        "hand": "left"
      },
      {
        "midi": 62,
        "time": 42.25,
        "duration": 0.5,
        "velocity": 0.79,
        "hand": "right"
      },
      {
        "midi": 66,
        "time": 42.25,
        "duration": 0.5,
        "velocity": 0.79,
        "hand": "right"
      },
      {
        "midi": 57,
        "time": 42.75,
        "duration": 0.25,
        "velocity": 0.79,
        "hand": "left"
      },
      {
        "midi": 62,
        "time": 42.75,
        "duration": 0.25,
        "velocity": 0.79,
        "hand": "right"
      },
      {
        "midi": 66,
        "time": 42.75,
        "duration": 0.25,
        "velocity": 0.79,
        "hand": "right"
      },
      {
        "midi": 38,
        "time": 43,
        "duration": 1,
        "velocity": 0.79,
        "hand": "left"
      },
      {
        "midi": 57,
        "time": 43,
        "duration": 1,
        "velocity": 0.79,
        "hand": "left"
      },
      {
        "midi": 62,
        "time": 43.125,
        "duration": 1,
        "velocity": 0.79,
        "hand": "right"
      },
      {
        "midi": 66,
        "time": 43.125,
        "duration": 0.875,
        "velocity": 0.79,
        "hand": "right"
      },
      {
        "midi": 38,
        "time": 44,
        "duration": 1.5,
        "velocity": 0.79,
        "hand": "left"
      },
      {
        "midi": 57,
        "time": 44,
        "duration": 0.5,
        "velocity": 0.79,
        "hand": "left"
      },
      {
        "midi": 62,
        "time": 44,
        "duration": 0.5,
        "velocity": 0.79,
        "hand": "right"
      },
      {
        "midi": 57,
        "time": 44.5,
        "duration": 0.5,
        "velocity": 0.79,
        "hand": "left"
      },
      {
        "midi": 62,
        "time": 44.5,
        "duration": 0.5,
        "velocity": 0.79,
        "hand": "right"
      },
      {
        "midi": 66,
        "time": 44.5,
        "duration": 0.5,
        "velocity": 0.79,
        "hand": "right"
      },
      {
        "midi": 54,
        "time": 45,
        "duration": 0.5,
        "velocity": 0.79,
        "hand": "left"
      },
      {
        "midi": 57,
        "time": 45,
        "duration": 0.5,
        "velocity": 0.79,
        "hand": "left"
      },
      {
        "midi": 62,
        "time": 45,
        "duration": 0.5,
        "velocity": 0.79,
        "hand": "right"
      },
      {
        "midi": 38,
        "time": 45.5,
        "duration": 0.5,
        "velocity": 0.79,
        "hand": "left"
      },
      {
        "midi": 62,
        "time": 45.5,
        "duration": 0.5,
        "velocity": 0.79,
        "hand": "right"
      },
      {
        "midi": 66,
        "time": 45.5,
        "duration": 0.5,
        "velocity": 0.79,
        "hand": "right"
      },
      {
        "midi": 38,
        "time": 46,
        "duration": 1.5,
        "velocity": 0.79,
        "hand": "left"
      },
      {
        "midi": 59,
        "time": 46,
        "duration": 0.25,
        "velocity": 0.79,
        "hand": "left"
      },
      {
        "midi": 64,
        "time": 46,
        "duration": 0.25,
        "velocity": 0.79,
        "hand": "right"
      },
      {
        "midi": 64,
        "time": 46.25,
        "duration": 0.5,
        "velocity": 0.79,
        "hand": "right"
      },
      {
        "midi": 67,
        "time": 46.25,
        "duration": 0.5,
        "velocity": 0.79,
        "hand": "right"
      },
      {
        "midi": 60,
        "time": 46.75,
        "duration": 0.25,
        "velocity": 0.79,
        "hand": "right"
      },
      {
        "midi": 64,
        "time": 46.75,
        "duration": 0.25,
        "velocity": 0.79,
        "hand": "right"
      },
      {
        "midi": 67,
        "time": 46.75,
        "duration": 0.25,
        "velocity": 0.79,
        "hand": "right"
      },
      {
        "midi": 61,
        "time": 47,
        "duration": 1,
        "velocity": 0.79,
        "hand": "right"
      },
      {
        "midi": 64,
        "time": 47.125,
        "duration": 1,
        "velocity": 0.79,
        "hand": "right"
      },
      {
        "midi": 67,
        "time": 47.125,
        "duration": 0.875,
        "velocity": 0.79,
        "hand": "right"
      },
      {
        "midi": 38,
        "time": 47.5,
        "duration": 0.5,
        "velocity": 0.79,
        "hand": "left"
      },
      {
        "midi": 45,
        "time": 48,
        "duration": 1.5,
        "velocity": 0.79,
        "hand": "left"
      },
      {
        "midi": 57,
        "time": 48,
        "duration": 0.25,
        "velocity": 0.79,
        "hand": "left"
      },
      {
        "midi": 61,
        "time": 48,
        "duration": 0.25,
        "velocity": 0.79,
        "hand": "right"
      },
      {
        "midi": 52,
        "time": 48.125,
        "duration": 1.5,
        "velocity": 0.79,
        "hand": "left"
      },
      {
        "midi": 57,
        "time": 48.125,
        "duration": 1.375,
        "velocity": 0.79,
        "hand": "left"
      },
      {
        "midi": 57,
        "time": 48.25,
        "duration": 0.5,
        "velocity": 0.79,
        "hand": "left"
      },
      {
        "midi": 61,
        "time": 48.25,
        "duration": 0.5,
        "velocity": 0.79,
        "hand": "right"
      },
      {
        "midi": 57,
        "time": 48.75,
        "duration": 0.25,
        "velocity": 0.79,
        "hand": "left"
      },
      {
        "midi": 61,
        "time": 48.75,
        "duration": 0.25,
        "velocity": 0.79,
        "hand": "right"
      },
      {
        "midi": 61,
        "time": 49,
        "duration": 0.25,
        "velocity": 0.79,
        "hand": "right"
      },
      {
        "midi": 64,
        "time": 49,
        "duration": 0.25,
        "velocity": 0.79,
        "hand": "right"
      },
      {
        "midi": 59,
        "time": 49.25,
        "duration": 0.5,
        "velocity": 0.79,
        "hand": "left"
      },
      {
        "midi": 62,
        "time": 49.25,
        "duration": 0.5,
        "velocity": 0.79,
        "hand": "right"
      },
      {
        "midi": 45,
        "time": 49.5,
        "duration": 0.5,
        "velocity": 0.79,
        "hand": "left"
      },
      {
        "midi": 52,
        "time": 49.5,
        "duration": 0.5,
        "velocity": 0.79,
        "hand": "left"
      },
      {
        "midi": 57,
        "time": 49.75,
        "duration": 0.25,
        "velocity": 0.79,
        "hand": "left"
      },
      {
        "midi": 61,
        "time": 49.75,
        "duration": 0.25,
        "velocity": 0.79,
        "hand": "right"
      },
      {
        "midi": 38,
        "time": 50,
        "duration": 2,
        "velocity": 0.79,
        "hand": "left"
      },
      {
        "midi": 59,
        "time": 50,
        "duration": 0.25,
        "velocity": 0.79,
        "hand": "left"
      },
      {
        "midi": 62,
        "time": 50,
        "duration": 0.25,
        "velocity": 0.79,
        "hand": "right"
      },
      {
        "midi": 59,
        "time": 50.25,
        "duration": 0.5,
        "velocity": 0.79,
        "hand": "left"
      },
      {
        "midi": 62,
        "time": 50.25,
        "duration": 0.5,
        "velocity": 0.79,
        "hand": "right"
      },
      {
        "midi": 66,
        "time": 50.25,
        "duration": 0.5,
        "velocity": 0.79,
        "hand": "right"
      },
      {
        "midi": 57,
        "time": 50.75,
        "duration": 0.25,
        "velocity": 0.79,
        "hand": "left"
      },
      {
        "midi": 62,
        "time": 50.75,
        "duration": 0.25,
        "velocity": 0.79,
        "hand": "right"
      },
      {
        "midi": 66,
        "time": 50.75,
        "duration": 0.25,
        "velocity": 0.79,
        "hand": "right"
      },
      {
        "midi": 57,
        "time": 51,
        "duration": 1,
        "velocity": 0.79,
        "hand": "left"
      },
      {
        "midi": 62,
        "time": 51.125,
        "duration": 1,
        "velocity": 0.79,
        "hand": "right"
      },
      {
        "midi": 66,
        "time": 51.125,
        "duration": 0.875,
        "velocity": 0.79,
        "hand": "right"
      },
      {
        "midi": 38,
        "time": 52,
        "duration": 1.5,
        "velocity": 0.79,
        "hand": "left"
      },
      {
        "midi": 57,
        "time": 52.25,
        "duration": 0.25,
        "velocity": 0.79,
        "hand": "left"
      },
      {
        "midi": 69,
        "time": 52.5,
        "duration": 0.25,
        "velocity": 0.79,
        "hand": "right"
      },
      {
        "midi": 69,
        "time": 52.75,
        "duration": 0.25,
        "velocity": 0.79,
        "hand": "right"
      },
      {
        "midi": 69,
        "time": 53,
        "duration": 0.25,
        "velocity": 0.79,
        "hand": "right"
      },
      {
        "midi": 57,
        "time": 53.25,
        "duration": 0.25,
        "velocity": 0.79,
        "hand": "left"
      },
      {
        "midi": 38,
        "time": 53.5,
        "duration": 0.5,
        "velocity": 0.79,
        "hand": "left"
      },
      {
        "midi": 62,
        "time": 53.5,
        "duration": 0.5,
        "velocity": 0.79,
        "hand": "right"
      },
      {
        "midi": 66,
        "time": 53.5,
        "duration": 0.5,
        "velocity": 0.79,
        "hand": "right"
      },
      {
        "midi": 38,
        "time": 54,
        "duration": 1.5,
        "velocity": 0.79,
        "hand": "left"
      },
      {
        "midi": 50,
        "time": 54.125,
        "duration": 1.5,
        "velocity": 0.79,
        "hand": "left"
      },
      {
        "midi": 61,
        "time": 54.125,
        "duration": 1.375,
        "velocity": 0.79,
        "hand": "right"
      },
      {
        "midi": 57,
        "time": 54.25,
        "duration": 0.25,
        "velocity": 0.79,
        "hand": "left"
      },
      {
        "midi": 65,
        "time": 54.25,
        "duration": 1.375,
        "velocity": 0.79,
        "hand": "right"
      },
      {
        "midi": 69,
        "time": 54.5,
        "duration": 0.25,
        "velocity": 0.79,
        "hand": "right"
      },
      {
        "midi": 69,
        "time": 54.75,
        "duration": 0.25,
        "velocity": 0.79,
        "hand": "right"
      },
      {
        "midi": 69,
        "time": 55,
        "duration": 0.25,
        "velocity": 0.79,
        "hand": "right"
      },
      {
        "midi": 61,
        "time": 55.25,
        "duration": 0.25,
        "velocity": 0.79,
        "hand": "right"
      },
      {
        "midi": 38,
        "time": 55.5,
        "duration": 0.5,
        "velocity": 0.79,
        "hand": "left"
      },
      {
        "midi": 61,
        "time": 55.5,
        "duration": 0.5,
        "velocity": 0.79,
        "hand": "right"
      },
      {
        "midi": 65,
        "time": 55.5,
        "duration": 0.5,
        "velocity": 0.79,
        "hand": "right"
      },
      {
        "midi": 38,
        "time": 56,
        "duration": 1.5,
        "velocity": 0.79,
        "hand": "left"
      },
      {
        "midi": 50,
        "time": 56.125,
        "duration": 1.5,
        "velocity": 0.79,
        "hand": "left"
      },
      {
        "midi": 57,
        "time": 56.125,
        "duration": 1.375,
        "velocity": 0.79,
        "hand": "left"
      },
      {
        "midi": 57,
        "time": 56.25,
        "duration": 0.25,
        "velocity": 0.79,
        "hand": "left"
      },
      {
        "midi": 62,
        "time": 56.25,
        "duration": 1.375,
        "velocity": 0.79,
        "hand": "right"
      },
      {
        "midi": 66,
        "time": 56.25,
        "duration": 1.25,
        "velocity": 0.79,
        "hand": "right"
      },
      {
        "midi": 69,
        "time": 56.5,
        "duration": 0.25,
        "velocity": 0.79,
        "hand": "right"
      },
      {
        "midi": 69,
        "time": 56.75,
        "duration": 0.25,
        "velocity": 0.79,
        "hand": "right"
      },
      {
        "midi": 69,
        "time": 57,
        "duration": 0.25,
        "velocity": 0.79,
        "hand": "right"
      },
      {
        "midi": 61,
        "time": 57.25,
        "duration": 0.25,
        "velocity": 0.79,
        "hand": "right"
      },
      {
        "midi": 38,
        "time": 57.5,
        "duration": 0.5,
        "velocity": 0.79,
        "hand": "left"
      },
      {
        "midi": 62,
        "time": 57.5,
        "duration": 0.5,
        "velocity": 0.79,
        "hand": "right"
      },
      {
        "midi": 66,
        "time": 57.5,
        "duration": 0.5,
        "velocity": 0.79,
        "hand": "right"
      },
      {
        "midi": 38,
        "time": 58,
        "duration": 1.5,
        "velocity": 0.79,
        "hand": "left"
      },
      {
        "midi": 50,
        "time": 58.125,
        "duration": 1.5,
        "velocity": 0.79,
        "hand": "left"
      },
      {
        "midi": 61,
        "time": 58.125,
        "duration": 1.375,
        "velocity": 0.79,
        "hand": "right"
      },
      {
        "midi": 57,
        "time": 58.25,
        "duration": 0.25,
        "velocity": 0.79,
        "hand": "left"
      },
      {
        "midi": 65,
        "time": 58.25,
        "duration": 1.375,
        "velocity": 0.79,
        "hand": "right"
      },
      {
        "midi": 69,
        "time": 58.5,
        "duration": 0.25,
        "velocity": 0.79,
        "hand": "right"
      },
      {
        "midi": 69,
        "time": 58.75,
        "duration": 0.25,
        "velocity": 0.79,
        "hand": "right"
      },
      {
        "midi": 69,
        "time": 59,
        "duration": 0.25,
        "velocity": 0.79,
        "hand": "right"
      },
      {
        "midi": 61,
        "time": 59.25,
        "duration": 0.25,
        "velocity": 0.79,
        "hand": "right"
      },
      {
        "midi": 38,
        "time": 59.5,
        "duration": 0.5,
        "velocity": 0.79,
        "hand": "left"
      },
      {
        "midi": 61,
        "time": 59.5,
        "duration": 0.5,
        "velocity": 0.79,
        "hand": "right"
      },
      {
        "midi": 64,
        "time": 59.5,
        "duration": 0.5,
        "velocity": 0.79,
        "hand": "right"
      },
      {
        "midi": 38,
        "time": 60,
        "duration": 1.5,
        "velocity": 0.79,
        "hand": "left"
      },
      {
        "midi": 54,
        "time": 60.125,
        "duration": 1.5,
        "velocity": 0.79,
        "hand": "left"
      },
      {
        "midi": 62,
        "time": 60.125,
        "duration": 1.375,
        "velocity": 0.79,
        "hand": "right"
      },
      {
        "midi": 45,
        "time": 60.25,
        "duration": 0.25,
        "velocity": 0.79,
        "hand": "left"
      },
      {
        "midi": 57,
        "time": 60.5,
        "duration": 0.25,
        "velocity": 0.79,
        "hand": "left"
      },
      {
        "midi": 57,
        "time": 60.75,
        "duration": 0.25,
        "velocity": 0.79,
        "hand": "left"
      },
      {
        "midi": 57,
        "time": 61,
        "duration": 1,
        "velocity": 0.79,
        "hand": "left"
      },
      {
        "midi": 38,
        "time": 62,
        "duration": 1,
        "velocity": 0.79,
        "hand": "left"
      },
      {
        "midi": 54,
        "time": 62.125,
        "duration": 1,
        "velocity": 0.79,
        "hand": "left"
      },
      {
        "midi": 62,
        "time": 62.125,
        "duration": 0.875,
        "velocity": 0.79,
        "hand": "right"
      },
      {
        "midi": 45,
        "time": 62.25,
        "duration": 0.25,
        "velocity": 0.79,
        "hand": "left"
      },
      {
        "midi": 57,
        "time": 62.5,
        "duration": 0.25,
        "velocity": 0.79,
        "hand": "left"
      },
      {
        "midi": 57,
        "time": 62.75,
        "duration": 0.25,
        "velocity": 0.79,
        "hand": "left"
      },
      {
        "midi": 57,
        "time": 63,
        "duration": 1,
        "velocity": 0.79,
        "hand": "left"
      },
      {
        "midi": 62,
        "time": 63.125,
        "duration": 1,
        "velocity": 0.79,
        "hand": "right"
      },
      {
        "midi": 66,
        "time": 63.125,
        "duration": 0.875,
        "velocity": 0.79,
        "hand": "right"
      },
      {
        "midi": 69,
        "time": 63.25,
        "duration": 0.25,
        "velocity": 0.79,
        "hand": "right"
      },
      {
        "midi": 78,
        "time": 63.5,
        "duration": 0.25,
        "velocity": 0.79,
        "hand": "right"
      },
      {
        "midi": 78,
        "time": 63.75,
        "duration": 0.25,
        "velocity": 0.79,
        "hand": "right"
      },
      {
        "midi": 38,
        "time": 64,
        "duration": 2,
        "velocity": 0.79,
        "hand": "left"
      },
      {
        "midi": 71,
        "time": 64,
        "duration": 2,
        "velocity": 0.79,
        "hand": "right"
      },
      {
        "midi": 54,
        "time": 64.125,
        "duration": 2,
        "velocity": 0.79,
        "hand": "left"
      },
      {
        "midi": 62,
        "time": 64.125,
        "duration": 1.875,
        "velocity": 0.79,
        "hand": "right"
      }
    ],
    "hard": [
      {
        "midi": 38,
        "time": 0,
        "duration": 1.5,
        "velocity": 0.79,
        "hand": "left"
      },
      {
        "midi": 50,
        "time": 0.125,
        "duration": 1.5,
        "velocity": 0.79,
        "hand": "left"
      },
      {
        "midi": 57,
        "time": 0.125,
        "duration": 1.375,
        "velocity": 0.79,
        "hand": "left"
      },
      {
        "midi": 57,
        "time": 0.25,
        "duration": 0.25,
        "velocity": 0.79,
        "hand": "left"
      },
      {
        "midi": 62,
        "time": 0.25,
        "duration": 1.375,
        "velocity": 0.79,
        "hand": "right"
      },
      {
        "midi": 66,
        "time": 0.25,
        "duration": 1.25,
        "velocity": 0.79,
        "hand": "right"
      },
      {
        "midi": 69,
        "time": 0.5,
        "duration": 0.25,
        "velocity": 0.79,
        "hand": "right"
      },
      {
        "midi": 69,
        "time": 0.75,
        "duration": 0.25,
        "velocity": 0.79,
        "hand": "right"
      },
      {
        "midi": 69,
        "time": 1,
        "duration": 0.25,
        "velocity": 0.79,
        "hand": "right"
      },
      {
        "midi": 61,
        "time": 1.25,
        "duration": 0.25,
        "velocity": 0.79,
        "hand": "right"
      },
      {
        "midi": 38,
        "time": 1.5,
        "duration": 0.5,
        "velocity": 0.79,
        "hand": "left"
      },
      {
        "midi": 57,
        "time": 1.5,
        "duration": 0.5,
        "velocity": 0.79,
        "hand": "left"
      },
      {
        "midi": 62,
        "time": 1.5,
        "duration": 0.5,
        "velocity": 0.79,
        "hand": "right"
      },
      {
        "midi": 66,
        "time": 1.5,
        "duration": 0.5,
        "velocity": 0.79,
        "hand": "right"
      },
      {
        "midi": 38,
        "time": 2,
        "duration": 1.5,
        "velocity": 0.79,
        "hand": "left"
      },
      {
        "midi": 50,
        "time": 2.125,
        "duration": 1.5,
        "velocity": 0.79,
        "hand": "left"
      },
      {
        "midi": 61,
        "time": 2.125,
        "duration": 1.375,
        "velocity": 0.79,
        "hand": "right"
      },
      {
        "midi": 57,
        "time": 2.25,
        "duration": 0.25,
        "velocity": 0.79,
        "hand": "left"
      },
      {
        "midi": 65,
        "time": 2.25,
        "duration": 1.375,
        "velocity": 0.79,
        "hand": "right"
      },
      {
        "midi": 69,
        "time": 2.5,
        "duration": 0.25,
        "velocity": 0.79,
        "hand": "right"
      },
      {
        "midi": 69,
        "time": 2.75,
        "duration": 0.25,
        "velocity": 0.79,
        "hand": "right"
      },
      {
        "midi": 69,
        "time": 3,
        "duration": 0.25,
        "velocity": 0.79,
        "hand": "right"
      },
      {
        "midi": 61,
        "time": 3.25,
        "duration": 0.25,
        "velocity": 0.79,
        "hand": "right"
      },
      {
        "midi": 38,
        "time": 3.5,
        "duration": 0.5,
        "velocity": 0.79,
        "hand": "left"
      },
      {
        "midi": 57,
        "time": 3.5,
        "duration": 0.5,
        "velocity": 0.79,
        "hand": "left"
      },
      {
        "midi": 61,
        "time": 3.5,
        "duration": 0.5,
        "velocity": 0.79,
        "hand": "right"
      },
      {
        "midi": 65,
        "time": 3.5,
        "duration": 0.5,
        "velocity": 0.79,
        "hand": "right"
      },
      {
        "midi": 38,
        "time": 4,
        "duration": 1.5,
        "velocity": 0.79,
        "hand": "left"
      },
      {
        "midi": 50,
        "time": 4.125,
        "duration": 1.5,
        "velocity": 0.79,
        "hand": "left"
      },
      {
        "midi": 57,
        "time": 4.125,
        "duration": 1.375,
        "velocity": 0.79,
        "hand": "left"
      },
      {
        "midi": 57,
        "time": 4.25,
        "duration": 0.25,
        "velocity": 0.79,
        "hand": "left"
      },
      {
        "midi": 62,
        "time": 4.25,
        "duration": 1.375,
        "velocity": 0.79,
        "hand": "right"
      },
      {
        "midi": 66,
        "time": 4.25,
        "duration": 1.25,
        "velocity": 0.79,
        "hand": "right"
      },
      {
        "midi": 69,
        "time": 4.5,
        "duration": 0.25,
        "velocity": 0.79,
        "hand": "right"
      },
      {
        "midi": 69,
        "time": 4.75,
        "duration": 0.25,
        "velocity": 0.79,
        "hand": "right"
      },
      {
        "midi": 69,
        "time": 5,
        "duration": 0.25,
        "velocity": 0.79,
        "hand": "right"
      },
      {
        "midi": 61,
        "time": 5.25,
        "duration": 0.25,
        "velocity": 0.79,
        "hand": "right"
      },
      {
        "midi": 38,
        "time": 5.5,
        "duration": 0.5,
        "velocity": 0.79,
        "hand": "left"
      },
      {
        "midi": 57,
        "time": 5.5,
        "duration": 0.5,
        "velocity": 0.79,
        "hand": "left"
      },
      {
        "midi": 62,
        "time": 5.5,
        "duration": 0.5,
        "velocity": 0.79,
        "hand": "right"
      },
      {
        "midi": 66,
        "time": 5.5,
        "duration": 0.5,
        "velocity": 0.79,
        "hand": "right"
      },
      {
        "midi": 38,
        "time": 6,
        "duration": 1.5,
        "velocity": 0.79,
        "hand": "left"
      },
      {
        "midi": 50,
        "time": 6.125,
        "duration": 1.5,
        "velocity": 0.79,
        "hand": "left"
      },
      {
        "midi": 61,
        "time": 6.125,
        "duration": 1.375,
        "velocity": 0.79,
        "hand": "right"
      },
      {
        "midi": 57,
        "time": 6.25,
        "duration": 0.25,
        "velocity": 0.79,
        "hand": "left"
      },
      {
        "midi": 65,
        "time": 6.25,
        "duration": 1.375,
        "velocity": 0.79,
        "hand": "right"
      },
      {
        "midi": 69,
        "time": 6.5,
        "duration": 0.25,
        "velocity": 0.79,
        "hand": "right"
      },
      {
        "midi": 69,
        "time": 6.75,
        "duration": 0.25,
        "velocity": 0.79,
        "hand": "right"
      },
      {
        "midi": 69,
        "time": 7,
        "duration": 0.25,
        "velocity": 0.79,
        "hand": "right"
      },
      {
        "midi": 61,
        "time": 7.25,
        "duration": 0.25,
        "velocity": 0.79,
        "hand": "right"
      },
      {
        "midi": 38,
        "time": 7.5,
        "duration": 0.5,
        "velocity": 0.79,
        "hand": "left"
      },
      {
        "midi": 55,
        "time": 7.5,
        "duration": 0.5,
        "velocity": 0.79,
        "hand": "left"
      },
      {
        "midi": 61,
        "time": 7.5,
        "duration": 0.5,
        "velocity": 0.79,
        "hand": "right"
      },
      {
        "midi": 64,
        "time": 7.5,
        "duration": 0.5,
        "velocity": 0.79,
        "hand": "right"
      },
      {
        "midi": 38,
        "time": 8,
        "duration": 1.5,
        "velocity": 0.79,
        "hand": "left"
      },
      {
        "midi": 50,
        "time": 8.125,
        "duration": 1.5,
        "velocity": 0.79,
        "hand": "left"
      },
      {
        "midi": 54,
        "time": 8.125,
        "duration": 1.375,
        "velocity": 0.79,
        "hand": "left"
      },
      {
        "midi": 45,
        "time": 8.25,
        "duration": 0.25,
        "velocity": 0.79,
        "hand": "left"
      },
      {
        "midi": 57,
        "time": 8.25,
        "duration": 1.375,
        "velocity": 0.79,
        "hand": "left"
      },
      {
        "midi": 62,
        "time": 8.25,
        "duration": 1.25,
        "velocity": 0.79,
        "hand": "right"
      },
      {
        "midi": 57,
        "time": 8.5,
        "duration": 0.25,
        "velocity": 0.79,
        "hand": "left"
      },
      {
        "midi": 57,
        "time": 8.75,
        "duration": 0.25,
        "velocity": 0.79,
        "hand": "left"
      },
      {
        "midi": 57,
        "time": 9,
        "duration": 1,
        "velocity": 0.79,
        "hand": "left"
      },
      {
        "midi": 38,
        "time": 10,
        "duration": 1.5,
        "velocity": 0.79,
        "hand": "left"
      },
      {
        "midi": 50,
        "time": 10.125,
        "duration": 1.5,
        "velocity": 0.79,
        "hand": "left"
      },
      {
        "midi": 57,
        "time": 10.125,
        "duration": 1.375,
        "velocity": 0.79,
        "hand": "left"
      },
      {
        "midi": 57,
        "time": 10.25,
        "duration": 0.25,
        "velocity": 0.79,
        "hand": "left"
      },
      {
        "midi": 62,
        "time": 10.25,
        "duration": 1.375,
        "velocity": 0.79,
        "hand": "right"
      },
      {
        "midi": 66,
        "time": 10.25,
        "duration": 1.25,
        "velocity": 0.79,
        "hand": "right"
      },
      {
        "midi": 69,
        "time": 10.5,
        "duration": 0.25,
        "velocity": 0.79,
        "hand": "right"
      },
      {
        "midi": 69,
        "time": 10.75,
        "duration": 0.25,
        "velocity": 0.79,
        "hand": "right"
      },
      {
        "midi": 69,
        "time": 11,
        "duration": 0.25,
        "velocity": 0.79,
        "hand": "right"
      },
      {
        "midi": 61,
        "time": 11.25,
        "duration": 0.25,
        "velocity": 0.79,
        "hand": "right"
      },
      {
        "midi": 38,
        "time": 11.5,
        "duration": 0.5,
        "velocity": 0.79,
        "hand": "left"
      },
      {
        "midi": 57,
        "time": 11.5,
        "duration": 0.5,
        "velocity": 0.79,
        "hand": "left"
      },
      {
        "midi": 62,
        "time": 11.5,
        "duration": 0.5,
        "velocity": 0.79,
        "hand": "right"
      },
      {
        "midi": 66,
        "time": 11.5,
        "duration": 0.5,
        "velocity": 0.79,
        "hand": "right"
      },
      {
        "midi": 38,
        "time": 12,
        "duration": 1.5,
        "velocity": 0.79,
        "hand": "left"
      },
      {
        "midi": 50,
        "time": 12.125,
        "duration": 1.5,
        "velocity": 0.79,
        "hand": "left"
      },
      {
        "midi": 61,
        "time": 12.125,
        "duration": 1.375,
        "velocity": 0.79,
        "hand": "right"
      },
      {
        "midi": 57,
        "time": 12.25,
        "duration": 0.25,
        "velocity": 0.79,
        "hand": "left"
      },
      {
        "midi": 65,
        "time": 12.25,
        "duration": 1.375,
        "velocity": 0.79,
        "hand": "right"
      },
      {
        "midi": 69,
        "time": 12.5,
        "duration": 0.25,
        "velocity": 0.79,
        "hand": "right"
      },
      {
        "midi": 69,
        "time": 12.75,
        "duration": 0.25,
        "velocity": 0.79,
        "hand": "right"
      },
      {
        "midi": 69,
        "time": 13,
        "duration": 0.25,
        "velocity": 0.79,
        "hand": "right"
      },
      {
        "midi": 61,
        "time": 13.25,
        "duration": 0.25,
        "velocity": 0.79,
        "hand": "right"
      },
      {
        "midi": 38,
        "time": 13.5,
        "duration": 0.5,
        "velocity": 0.79,
        "hand": "left"
      },
      {
        "midi": 57,
        "time": 13.5,
        "duration": 0.5,
        "velocity": 0.79,
        "hand": "left"
      },
      {
        "midi": 61,
        "time": 13.5,
        "duration": 0.5,
        "velocity": 0.79,
        "hand": "right"
      },
      {
        "midi": 65,
        "time": 13.5,
        "duration": 0.5,
        "velocity": 0.79,
        "hand": "right"
      },
      {
        "midi": 38,
        "time": 14,
        "duration": 1.5,
        "velocity": 0.79,
        "hand": "left"
      },
      {
        "midi": 50,
        "time": 14.125,
        "duration": 1.5,
        "velocity": 0.79,
        "hand": "left"
      },
      {
        "midi": 57,
        "time": 14.125,
        "duration": 1.375,
        "velocity": 0.79,
        "hand": "left"
      },
      {
        "midi": 57,
        "time": 14.25,
        "duration": 0.25,
        "velocity": 0.79,
        "hand": "left"
      },
      {
        "midi": 62,
        "time": 14.25,
        "duration": 1.375,
        "velocity": 0.79,
        "hand": "right"
      },
      {
        "midi": 66,
        "time": 14.25,
        "duration": 1.25,
        "velocity": 0.79,
        "hand": "right"
      },
      {
        "midi": 69,
        "time": 14.5,
        "duration": 0.25,
        "velocity": 0.79,
        "hand": "right"
      },
      {
        "midi": 69,
        "time": 14.75,
        "duration": 0.25,
        "velocity": 0.79,
        "hand": "right"
      },
      {
        "midi": 69,
        "time": 15,
        "duration": 0.25,
        "velocity": 0.79,
        "hand": "right"
      },
      {
        "midi": 61,
        "time": 15.25,
        "duration": 0.25,
        "velocity": 0.79,
        "hand": "right"
      },
      {
        "midi": 38,
        "time": 15.5,
        "duration": 0.5,
        "velocity": 0.79,
        "hand": "left"
      },
      {
        "midi": 57,
        "time": 15.5,
        "duration": 0.5,
        "velocity": 0.79,
        "hand": "left"
      },
      {
        "midi": 62,
        "time": 15.5,
        "duration": 0.5,
        "velocity": 0.79,
        "hand": "right"
      },
      {
        "midi": 66,
        "time": 15.5,
        "duration": 0.5,
        "velocity": 0.79,
        "hand": "right"
      },
      {
        "midi": 38,
        "time": 16,
        "duration": 1.5,
        "velocity": 0.79,
        "hand": "left"
      },
      {
        "midi": 50,
        "time": 16.125,
        "duration": 1.5,
        "velocity": 0.79,
        "hand": "left"
      },
      {
        "midi": 61,
        "time": 16.125,
        "duration": 1.375,
        "velocity": 0.79,
        "hand": "right"
      },
      {
        "midi": 57,
        "time": 16.25,
        "duration": 0.25,
        "velocity": 0.79,
        "hand": "left"
      },
      {
        "midi": 65,
        "time": 16.25,
        "duration": 1.375,
        "velocity": 0.79,
        "hand": "right"
      },
      {
        "midi": 69,
        "time": 16.5,
        "duration": 0.25,
        "velocity": 0.79,
        "hand": "right"
      },
      {
        "midi": 69,
        "time": 16.75,
        "duration": 0.25,
        "velocity": 0.79,
        "hand": "right"
      },
      {
        "midi": 69,
        "time": 17,
        "duration": 0.25,
        "velocity": 0.79,
        "hand": "right"
      },
      {
        "midi": 61,
        "time": 17.25,
        "duration": 0.25,
        "velocity": 0.79,
        "hand": "right"
      },
      {
        "midi": 38,
        "time": 17.5,
        "duration": 0.5,
        "velocity": 0.79,
        "hand": "left"
      },
      {
        "midi": 55,
        "time": 17.5,
        "duration": 0.5,
        "velocity": 0.79,
        "hand": "left"
      },
      {
        "midi": 61,
        "time": 17.5,
        "duration": 0.5,
        "velocity": 0.79,
        "hand": "right"
      },
      {
        "midi": 64,
        "time": 17.5,
        "duration": 0.5,
        "velocity": 0.79,
        "hand": "right"
      },
      {
        "midi": 38,
        "time": 18,
        "duration": 1.5,
        "velocity": 0.79,
        "hand": "left"
      },
      {
        "midi": 50,
        "time": 18.125,
        "duration": 1.5,
        "velocity": 0.79,
        "hand": "left"
      },
      {
        "midi": 54,
        "time": 18.125,
        "duration": 1.375,
        "velocity": 0.79,
        "hand": "left"
      },
      {
        "midi": 45,
        "time": 18.25,
        "duration": 0.25,
        "velocity": 0.79,
        "hand": "left"
      },
      {
        "midi": 57,
        "time": 18.25,
        "duration": 1.375,
        "velocity": 0.79,
        "hand": "left"
      },
      {
        "midi": 62,
        "time": 18.25,
        "duration": 1.25,
        "velocity": 0.79,
        "hand": "right"
      },
      {
        "midi": 57,
        "time": 18.5,
        "duration": 0.25,
        "velocity": 0.79,
        "hand": "left"
      },
      {
        "midi": 57,
        "time": 18.75,
        "duration": 0.25,
        "velocity": 0.79,
        "hand": "left"
      },
      {
        "midi": 57,
        "time": 19,
        "duration": 1,
        "velocity": 0.79,
        "hand": "left"
      },
      {
        "midi": 38,
        "time": 20,
        "duration": 1.5,
        "velocity": 0.79,
        "hand": "left"
      },
      {
        "midi": 62,
        "time": 20,
        "duration": 0.25,
        "velocity": 0.79,
        "hand": "right"
      },
      {
        "midi": 54,
        "time": 20.125,
        "duration": 1.5,
        "velocity": 0.79,
        "hand": "left"
      },
      {
        "midi": 57,
        "time": 20.125,
        "duration": 1.375,
        "velocity": 0.79,
        "hand": "left"
      },
      {
        "midi": 62,
        "time": 20.25,
        "duration": 0.5,
        "velocity": 0.79,
        "hand": "right"
      },
      {
        "midi": 66,
        "time": 20.75,
        "duration": 0.25,
        "velocity": 0.79,
        "hand": "right"
      },
      {
        "midi": 69,
        "time": 21,
        "duration": 0.25,
        "velocity": 0.79,
        "hand": "right"
      },
      {
        "midi": 66,
        "time": 21.25,
        "duration": 0.5,
        "velocity": 0.79,
        "hand": "right"
      },
      {
        "midi": 38,
        "time": 21.5,
        "duration": 0.5,
        "velocity": 0.79,
        "hand": "left"
      },
      {
        "midi": 54,
        "time": 21.5,
        "duration": 0.5,
        "velocity": 0.79,
        "hand": "left"
      },
      {
        "midi": 57,
        "time": 21.5,
        "duration": 0.5,
        "velocity": 0.79,
        "hand": "left"
      },
      {
        "midi": 62,
        "time": 21.75,
        "duration": 0.25,
        "velocity": 0.79,
        "hand": "right"
      },
      {
        "midi": 38,
        "time": 22,
        "duration": 1.5,
        "velocity": 0.79,
        "hand": "left"
      },
      {
        "midi": 50,
        "time": 22.125,
        "duration": 1.5,
        "velocity": 0.79,
        "hand": "left"
      },
      {
        "midi": 55,
        "time": 22.125,
        "duration": 1.375,
        "velocity": 0.79,
        "hand": "left"
      },
      {
        "midi": 57,
        "time": 22.25,
        "duration": 0.25,
        "velocity": 0.79,
        "hand": "left"
      },
      {
        "midi": 64,
        "time": 22.25,
        "duration": 1.375,
        "velocity": 0.79,
        "hand": "right"
      },
      {
        "midi": 69,
        "time": 22.5,
        "duration": 0.25,
        "velocity": 0.79,
        "hand": "right"
      },
      {
        "midi": 69,
        "time": 22.75,
        "duration": 0.25,
        "velocity": 0.79,
        "hand": "right"
      },
      {
        "midi": 69,
        "time": 23,
        "duration": 0.25,
        "velocity": 0.79,
        "hand": "right"
      },
      {
        "midi": 57,
        "time": 23.25,
        "duration": 0.25,
        "velocity": 0.79,
        "hand": "left"
      },
      {
        "midi": 38,
        "time": 23.5,
        "duration": 0.5,
        "velocity": 0.79,
        "hand": "left"
      },
      {
        "midi": 69,
        "time": 23.5,
        "duration": 0.5,
        "velocity": 0.79,
        "hand": "right"
      },
      {
        "midi": 38,
        "time": 24,
        "duration": 1.5,
        "velocity": 0.79,
        "hand": "left"
      },
      {
        "midi": 61,
        "time": 24,
        "duration": 0.25,
        "velocity": 0.79,
        "hand": "right"
      },
      {
        "midi": 55,
        "time": 24.125,
        "duration": 1.5,
        "velocity": 0.79,
        "hand": "left"
      },
      {
        "midi": 57,
        "time": 24.125,
        "duration": 1.375,
        "velocity": 0.79,
        "hand": "left"
      },
      {
        "midi": 61,
        "time": 24.25,
        "duration": 0.5,
        "velocity": 0.79,
        "hand": "right"
      },
      {
        "midi": 64,
        "time": 24.75,
        "duration": 0.25,
        "velocity": 0.79,
        "hand": "right"
      },
      {
        "midi": 67,
        "time": 25,
        "duration": 0.25,
        "velocity": 0.79,
        "hand": "right"
      },
      {
        "midi": 64,
        "time": 25.25,
        "duration": 0.5,
        "velocity": 0.79,
        "hand": "right"
      },
      {
        "midi": 38,
        "time": 25.5,
        "duration": 0.5,
        "velocity": 0.79,
        "hand": "left"
      },
      {
        "midi": 55,
        "time": 25.5,
        "duration": 0.5,
        "velocity": 0.79,
        "hand": "left"
      },
      {
        "midi": 57,
        "time": 25.5,
        "duration": 0.5,
        "velocity": 0.79,
        "hand": "left"
      },
      {
        "midi": 61,
        "time": 25.75,
        "duration": 0.25,
        "velocity": 0.79,
        "hand": "right"
      },
      {
        "midi": 38,
        "time": 26,
        "duration": 1,
        "velocity": 0.79,
        "hand": "left"
      },
      {
        "midi": 57,
        "time": 26.25,
        "duration": 0.25,
        "velocity": 0.79,
        "hand": "left"
      },
      {
        "midi": 69,
        "time": 26.5,
        "duration": 0.25,
        "velocity": 0.79,
        "hand": "right"
      },
      {
        "midi": 69,
        "time": 26.75,
        "duration": 0.25,
        "velocity": 0.79,
        "hand": "right"
      },
      {
        "midi": 69,
        "time": 27,
        "duration": 0.25,
        "velocity": 0.79,
        "hand": "right"
      },
      {
        "midi": 57,
        "time": 27.25,
        "duration": 0.25,
        "velocity": 0.79,
        "hand": "left"
      },
      {
        "midi": 69,
        "time": 27.5,
        "duration": 0.5,
        "velocity": 0.79,
        "hand": "right"
      },
      {
        "midi": 38,
        "time": 28,
        "duration": 1.5,
        "velocity": 0.79,
        "hand": "left"
      },
      {
        "midi": 62,
        "time": 28,
        "duration": 0.25,
        "velocity": 0.79,
        "hand": "right"
      },
      {
        "midi": 54,
        "time": 28.125,
        "duration": 1.5,
        "velocity": 0.79,
        "hand": "left"
      },
      {
        "midi": 57,
        "time": 28.125,
        "duration": 1.375,
        "velocity": 0.79,
        "hand": "left"
      },
      {
        "midi": 62,
        "time": 28.25,
        "duration": 0.5,
        "velocity": 0.79,
        "hand": "right"
      },
      {
        "midi": 66,
        "time": 28.75,
        "duration": 0.25,
        "velocity": 0.79,
        "hand": "right"
      },
      {
        "midi": 69,
        "time": 29,
        "duration": 0.25,
        "velocity": 0.79,
        "hand": "right"
      },
      {
        "midi": 66,
        "time": 29.25,
        "duration": 0.5,
        "velocity": 0.79,
        "hand": "right"
      },
      {
        "midi": 38,
        "time": 29.5,
        "duration": 0.5,
        "velocity": 0.79,
        "hand": "left"
      },
      {
        "midi": 54,
        "time": 29.5,
        "duration": 0.5,
        "velocity": 0.79,
        "hand": "left"
      },
      {
        "midi": 57,
        "time": 29.5,
        "duration": 0.5,
        "velocity": 0.79,
        "hand": "left"
      },
      {
        "midi": 62,
        "time": 29.75,
        "duration": 0.25,
        "velocity": 0.79,
        "hand": "right"
      },
      {
        "midi": 38,
        "time": 30,
        "duration": 1.5,
        "velocity": 0.79,
        "hand": "left"
      },
      {
        "midi": 50,
        "time": 30.125,
        "duration": 1.5,
        "velocity": 0.79,
        "hand": "left"
      },
      {
        "midi": 55,
        "time": 30.125,
        "duration": 1.375,
        "velocity": 0.79,
        "hand": "left"
      },
      {
        "midi": 57,
        "time": 30.25,
        "duration": 0.25,
        "velocity": 0.79,
        "hand": "left"
      },
      {
        "midi": 64,
        "time": 30.25,
        "duration": 1.375,
        "velocity": 0.79,
        "hand": "right"
      },
      {
        "midi": 69,
        "time": 30.5,
        "duration": 0.25,
        "velocity": 0.79,
        "hand": "right"
      },
      {
        "midi": 69,
        "time": 30.75,
        "duration": 0.25,
        "velocity": 0.79,
        "hand": "right"
      },
      {
        "midi": 69,
        "time": 31,
        "duration": 0.25,
        "velocity": 0.79,
        "hand": "right"
      },
      {
        "midi": 57,
        "time": 31.25,
        "duration": 0.25,
        "velocity": 0.79,
        "hand": "left"
      },
      {
        "midi": 38,
        "time": 31.5,
        "duration": 0.5,
        "velocity": 0.79,
        "hand": "left"
      },
      {
        "midi": 69,
        "time": 31.5,
        "duration": 0.5,
        "velocity": 0.79,
        "hand": "right"
      },
      {
        "midi": 38,
        "time": 32,
        "duration": 1.5,
        "velocity": 0.79,
        "hand": "left"
      },
      {
        "midi": 61,
        "time": 32,
        "duration": 0.25,
        "velocity": 0.79,
        "hand": "right"
      },
      {
        "midi": 55,
        "time": 32.125,
        "duration": 1.5,
        "velocity": 0.79,
        "hand": "left"
      },
      {
        "midi": 57,
        "time": 32.125,
        "duration": 1.375,
        "velocity": 0.79,
        "hand": "left"
      },
      {
        "midi": 61,
        "time": 32.25,
        "duration": 0.5,
        "velocity": 0.79,
        "hand": "right"
      },
      {
        "midi": 64,
        "time": 32.75,
        "duration": 0.25,
        "velocity": 0.79,
        "hand": "right"
      },
      {
        "midi": 67,
        "time": 33,
        "duration": 0.25,
        "velocity": 0.79,
        "hand": "right"
      },
      {
        "midi": 64,
        "time": 33.25,
        "duration": 0.5,
        "velocity": 0.79,
        "hand": "right"
      },
      {
        "midi": 38,
        "time": 33.5,
        "duration": 0.5,
        "velocity": 0.79,
        "hand": "left"
      },
      {
        "midi": 55,
        "time": 33.5,
        "duration": 0.5,
        "velocity": 0.79,
        "hand": "left"
      },
      {
        "midi": 57,
        "time": 33.5,
        "duration": 0.5,
        "velocity": 0.79,
        "hand": "left"
      },
      {
        "midi": 61,
        "time": 33.75,
        "duration": 0.25,
        "velocity": 0.79,
        "hand": "right"
      },
      {
        "midi": 38,
        "time": 34,
        "duration": 1,
        "velocity": 0.79,
        "hand": "left"
      },
      {
        "midi": 50,
        "time": 34.125,
        "duration": 1,
        "velocity": 0.79,
        "hand": "left"
      },
      {
        "midi": 57,
        "time": 34.125,
        "duration": 0.875,
        "velocity": 0.79,
        "hand": "left"
      },
      {
        "midi": 57,
        "time": 34.25,
        "duration": 0.25,
        "velocity": 0.79,
        "hand": "left"
      },
      {
        "midi": 62,
        "time": 34.25,
        "duration": 0.875,
        "velocity": 0.79,
        "hand": "right"
      },
      {
        "midi": 69,
        "time": 34.5,
        "duration": 0.25,
        "velocity": 0.79,
        "hand": "right"
      },
      {
        "midi": 69,
        "time": 34.75,
        "duration": 0.25,
        "velocity": 0.79,
        "hand": "right"
      },
      {
        "midi": 45,
        "time": 35,
        "duration": 1,
        "velocity": 0.79,
        "hand": "left"
      },
      {
        "midi": 69,
        "time": 35,
        "duration": 0.25,
        "velocity": 0.79,
        "hand": "right"
      },
      {
        "midi": 59,
        "time": 35.25,
        "duration": 0.25,
        "velocity": 0.79,
        "hand": "left"
      },
      {
        "midi": 69,
        "time": 35.5,
        "duration": 0.5,
        "velocity": 0.79,
        "hand": "right"
      },
      {
        "midi": 38,
        "time": 36,
        "duration": 1.5,
        "velocity": 0.79,
        "hand": "left"
      },
      {
        "midi": 54,
        "time": 36,
        "duration": 0.5,
        "velocity": 0.79,
        "hand": "left"
      },
      {
        "midi": 57,
        "time": 36,
        "duration": 0.5,
        "velocity": 0.79,
        "hand": "left"
      },
      {
        "midi": 62,
        "time": 36,
        "duration": 0.5,
        "velocity": 0.79,
        "hand": "right"
      },
      {
        "midi": 57,
        "time": 36.5,
        "duration": 0.5,
        "velocity": 0.79,
        "hand": "left"
      },
      {
        "midi": 62,
        "time": 36.5,
        "duration": 0.5,
        "velocity": 0.79,
        "hand": "right"
      },
      {
        "midi": 66,
        "time": 36.5,
        "duration": 0.5,
        "velocity": 0.79,
        "hand": "right"
      },
      {
        "midi": 54,
        "time": 37,
        "duration": 0.5,
        "velocity": 0.79,
        "hand": "left"
      },
      {
        "midi": 57,
        "time": 37,
        "duration": 0.5,
        "velocity": 0.79,
        "hand": "left"
      },
      {
        "midi": 62,
        "time": 37,
        "duration": 0.5,
        "velocity": 0.79,
        "hand": "right"
      },
      {
        "midi": 38,
        "time": 37.5,
        "duration": 0.5,
        "velocity": 0.79,
        "hand": "left"
      },
      {
        "midi": 57,
        "time": 37.5,
        "duration": 0.5,
        "velocity": 0.79,
        "hand": "left"
      },
      {
        "midi": 62,
        "time": 37.5,
        "duration": 0.5,
        "velocity": 0.79,
        "hand": "right"
      },
      {
        "midi": 66,
        "time": 37.5,
        "duration": 0.5,
        "velocity": 0.79,
        "hand": "right"
      },
      {
        "midi": 38,
        "time": 38,
        "duration": 1.5,
        "velocity": 0.79,
        "hand": "left"
      },
      {
        "midi": 59,
        "time": 38,
        "duration": 0.25,
        "velocity": 0.79,
        "hand": "left"
      },
      {
        "midi": 64,
        "time": 38,
        "duration": 0.25,
        "velocity": 0.79,
        "hand": "right"
      },
      {
        "midi": 64,
        "time": 38.25,
        "duration": 0.5,
        "velocity": 0.79,
        "hand": "right"
      },
      {
        "midi": 67,
        "time": 38.25,
        "duration": 0.5,
        "velocity": 0.79,
        "hand": "right"
      },
      {
        "midi": 60,
        "time": 38.75,
        "duration": 0.25,
        "velocity": 0.79,
        "hand": "right"
      },
      {
        "midi": 64,
        "time": 38.75,
        "duration": 0.25,
        "velocity": 0.79,
        "hand": "right"
      },
      {
        "midi": 67,
        "time": 38.75,
        "duration": 0.25,
        "velocity": 0.79,
        "hand": "right"
      },
      {
        "midi": 61,
        "time": 39,
        "duration": 1,
        "velocity": 0.79,
        "hand": "right"
      },
      {
        "midi": 64,
        "time": 39.125,
        "duration": 1,
        "velocity": 0.79,
        "hand": "right"
      },
      {
        "midi": 67,
        "time": 39.125,
        "duration": 0.875,
        "velocity": 0.79,
        "hand": "right"
      },
      {
        "midi": 38,
        "time": 39.5,
        "duration": 0.5,
        "velocity": 0.79,
        "hand": "left"
      },
      {
        "midi": 45,
        "time": 40,
        "duration": 1.5,
        "velocity": 0.79,
        "hand": "left"
      },
      {
        "midi": 57,
        "time": 40,
        "duration": 0.25,
        "velocity": 0.79,
        "hand": "left"
      },
      {
        "midi": 61,
        "time": 40,
        "duration": 0.25,
        "velocity": 0.79,
        "hand": "right"
      },
      {
        "midi": 52,
        "time": 40.125,
        "duration": 1.5,
        "velocity": 0.79,
        "hand": "left"
      },
      {
        "midi": 57,
        "time": 40.125,
        "duration": 1.375,
        "velocity": 0.79,
        "hand": "left"
      },
      {
        "midi": 57,
        "time": 40.25,
        "duration": 0.5,
        "velocity": 0.79,
        "hand": "left"
      },
      {
        "midi": 61,
        "time": 40.25,
        "duration": 0.5,
        "velocity": 0.79,
        "hand": "right"
      },
      {
        "midi": 57,
        "time": 40.75,
        "duration": 0.25,
        "velocity": 0.79,
        "hand": "left"
      },
      {
        "midi": 61,
        "time": 40.75,
        "duration": 0.25,
        "velocity": 0.79,
        "hand": "right"
      },
      {
        "midi": 61,
        "time": 41,
        "duration": 0.25,
        "velocity": 0.79,
        "hand": "right"
      },
      {
        "midi": 64,
        "time": 41,
        "duration": 0.25,
        "velocity": 0.79,
        "hand": "right"
      },
      {
        "midi": 59,
        "time": 41.25,
        "duration": 0.5,
        "velocity": 0.79,
        "hand": "left"
      },
      {
        "midi": 62,
        "time": 41.25,
        "duration": 0.5,
        "velocity": 0.79,
        "hand": "right"
      },
      {
        "midi": 45,
        "time": 41.5,
        "duration": 0.5,
        "velocity": 0.79,
        "hand": "left"
      },
      {
        "midi": 52,
        "time": 41.5,
        "duration": 0.5,
        "velocity": 0.79,
        "hand": "left"
      },
      {
        "midi": 57,
        "time": 41.75,
        "duration": 0.25,
        "velocity": 0.79,
        "hand": "left"
      },
      {
        "midi": 61,
        "time": 41.75,
        "duration": 0.25,
        "velocity": 0.79,
        "hand": "right"
      },
      {
        "midi": 38,
        "time": 42,
        "duration": 1,
        "velocity": 0.79,
        "hand": "left"
      },
      {
        "midi": 54,
        "time": 42,
        "duration": 0.25,
        "velocity": 0.79,
        "hand": "left"
      },
      {
        "midi": 59,
        "time": 42,
        "duration": 0.25,
        "velocity": 0.79,
        "hand": "left"
      },
      {
        "midi": 62,
        "time": 42,
        "duration": 0.25,
        "velocity": 0.79,
        "hand": "right"
      },
      {
        "midi": 59,
        "time": 42.25,
        "duration": 0.5,
        "velocity": 0.79,
        "hand": "left"
      },
      {
        "midi": 62,
        "time": 42.25,
        "duration": 0.5,
        "velocity": 0.79,
        "hand": "right"
      },
      {
        "midi": 66,
        "time": 42.25,
        "duration": 0.5,
        "velocity": 0.79,
        "hand": "right"
      },
      {
        "midi": 57,
        "time": 42.75,
        "duration": 0.25,
        "velocity": 0.79,
        "hand": "left"
      },
      {
        "midi": 62,
        "time": 42.75,
        "duration": 0.25,
        "velocity": 0.79,
        "hand": "right"
      },
      {
        "midi": 66,
        "time": 42.75,
        "duration": 0.25,
        "velocity": 0.79,
        "hand": "right"
      },
      {
        "midi": 38,
        "time": 43,
        "duration": 1,
        "velocity": 0.79,
        "hand": "left"
      },
      {
        "midi": 57,
        "time": 43,
        "duration": 1,
        "velocity": 0.79,
        "hand": "left"
      },
      {
        "midi": 62,
        "time": 43.125,
        "duration": 1,
        "velocity": 0.79,
        "hand": "right"
      },
      {
        "midi": 66,
        "time": 43.125,
        "duration": 0.875,
        "velocity": 0.79,
        "hand": "right"
      },
      {
        "midi": 38,
        "time": 44,
        "duration": 1.5,
        "velocity": 0.79,
        "hand": "left"
      },
      {
        "midi": 54,
        "time": 44,
        "duration": 0.5,
        "velocity": 0.79,
        "hand": "left"
      },
      {
        "midi": 57,
        "time": 44,
        "duration": 0.5,
        "velocity": 0.79,
        "hand": "left"
      },
      {
        "midi": 62,
        "time": 44,
        "duration": 0.5,
        "velocity": 0.79,
        "hand": "right"
      },
      {
        "midi": 57,
        "time": 44.5,
        "duration": 0.5,
        "velocity": 0.79,
        "hand": "left"
      },
      {
        "midi": 62,
        "time": 44.5,
        "duration": 0.5,
        "velocity": 0.79,
        "hand": "right"
      },
      {
        "midi": 66,
        "time": 44.5,
        "duration": 0.5,
        "velocity": 0.79,
        "hand": "right"
      },
      {
        "midi": 54,
        "time": 45,
        "duration": 0.5,
        "velocity": 0.79,
        "hand": "left"
      },
      {
        "midi": 57,
        "time": 45,
        "duration": 0.5,
        "velocity": 0.79,
        "hand": "left"
      },
      {
        "midi": 62,
        "time": 45,
        "duration": 0.5,
        "velocity": 0.79,
        "hand": "right"
      },
      {
        "midi": 38,
        "time": 45.5,
        "duration": 0.5,
        "velocity": 0.79,
        "hand": "left"
      },
      {
        "midi": 57,
        "time": 45.5,
        "duration": 0.5,
        "velocity": 0.79,
        "hand": "left"
      },
      {
        "midi": 62,
        "time": 45.5,
        "duration": 0.5,
        "velocity": 0.79,
        "hand": "right"
      },
      {
        "midi": 66,
        "time": 45.5,
        "duration": 0.5,
        "velocity": 0.79,
        "hand": "right"
      },
      {
        "midi": 38,
        "time": 46,
        "duration": 1.5,
        "velocity": 0.79,
        "hand": "left"
      },
      {
        "midi": 59,
        "time": 46,
        "duration": 0.25,
        "velocity": 0.79,
        "hand": "left"
      },
      {
        "midi": 64,
        "time": 46,
        "duration": 0.25,
        "velocity": 0.79,
        "hand": "right"
      },
      {
        "midi": 64,
        "time": 46.25,
        "duration": 0.5,
        "velocity": 0.79,
        "hand": "right"
      },
      {
        "midi": 67,
        "time": 46.25,
        "duration": 0.5,
        "velocity": 0.79,
        "hand": "right"
      },
      {
        "midi": 60,
        "time": 46.75,
        "duration": 0.25,
        "velocity": 0.79,
        "hand": "right"
      },
      {
        "midi": 64,
        "time": 46.75,
        "duration": 0.25,
        "velocity": 0.79,
        "hand": "right"
      },
      {
        "midi": 67,
        "time": 46.75,
        "duration": 0.25,
        "velocity": 0.79,
        "hand": "right"
      },
      {
        "midi": 61,
        "time": 47,
        "duration": 1,
        "velocity": 0.79,
        "hand": "right"
      },
      {
        "midi": 64,
        "time": 47.125,
        "duration": 1,
        "velocity": 0.79,
        "hand": "right"
      },
      {
        "midi": 67,
        "time": 47.125,
        "duration": 0.875,
        "velocity": 0.79,
        "hand": "right"
      },
      {
        "midi": 38,
        "time": 47.5,
        "duration": 0.5,
        "velocity": 0.79,
        "hand": "left"
      },
      {
        "midi": 45,
        "time": 48,
        "duration": 1.5,
        "velocity": 0.79,
        "hand": "left"
      },
      {
        "midi": 57,
        "time": 48,
        "duration": 0.25,
        "velocity": 0.79,
        "hand": "left"
      },
      {
        "midi": 61,
        "time": 48,
        "duration": 0.25,
        "velocity": 0.79,
        "hand": "right"
      },
      {
        "midi": 52,
        "time": 48.125,
        "duration": 1.5,
        "velocity": 0.79,
        "hand": "left"
      },
      {
        "midi": 57,
        "time": 48.125,
        "duration": 1.375,
        "velocity": 0.79,
        "hand": "left"
      },
      {
        "midi": 57,
        "time": 48.25,
        "duration": 0.5,
        "velocity": 0.79,
        "hand": "left"
      },
      {
        "midi": 61,
        "time": 48.25,
        "duration": 0.5,
        "velocity": 0.79,
        "hand": "right"
      },
      {
        "midi": 57,
        "time": 48.75,
        "duration": 0.25,
        "velocity": 0.79,
        "hand": "left"
      },
      {
        "midi": 61,
        "time": 48.75,
        "duration": 0.25,
        "velocity": 0.79,
        "hand": "right"
      },
      {
        "midi": 61,
        "time": 49,
        "duration": 0.25,
        "velocity": 0.79,
        "hand": "right"
      },
      {
        "midi": 64,
        "time": 49,
        "duration": 0.25,
        "velocity": 0.79,
        "hand": "right"
      },
      {
        "midi": 59,
        "time": 49.25,
        "duration": 0.5,
        "velocity": 0.79,
        "hand": "left"
      },
      {
        "midi": 62,
        "time": 49.25,
        "duration": 0.5,
        "velocity": 0.79,
        "hand": "right"
      },
      {
        "midi": 45,
        "time": 49.5,
        "duration": 0.5,
        "velocity": 0.79,
        "hand": "left"
      },
      {
        "midi": 52,
        "time": 49.5,
        "duration": 0.5,
        "velocity": 0.79,
        "hand": "left"
      },
      {
        "midi": 57,
        "time": 49.75,
        "duration": 0.25,
        "velocity": 0.79,
        "hand": "left"
      },
      {
        "midi": 61,
        "time": 49.75,
        "duration": 0.25,
        "velocity": 0.79,
        "hand": "right"
      },
      {
        "midi": 38,
        "time": 50,
        "duration": 2,
        "velocity": 0.79,
        "hand": "left"
      },
      {
        "midi": 54,
        "time": 50,
        "duration": 0.25,
        "velocity": 0.79,
        "hand": "left"
      },
      {
        "midi": 59,
        "time": 50,
        "duration": 0.25,
        "velocity": 0.79,
        "hand": "left"
      },
      {
        "midi": 62,
        "time": 50,
        "duration": 0.25,
        "velocity": 0.79,
        "hand": "right"
      },
      {
        "midi": 59,
        "time": 50.25,
        "duration": 0.5,
        "velocity": 0.79,
        "hand": "left"
      },
      {
        "midi": 62,
        "time": 50.25,
        "duration": 0.5,
        "velocity": 0.79,
        "hand": "right"
      },
      {
        "midi": 66,
        "time": 50.25,
        "duration": 0.5,
        "velocity": 0.79,
        "hand": "right"
      },
      {
        "midi": 57,
        "time": 50.75,
        "duration": 0.25,
        "velocity": 0.79,
        "hand": "left"
      },
      {
        "midi": 62,
        "time": 50.75,
        "duration": 0.25,
        "velocity": 0.79,
        "hand": "right"
      },
      {
        "midi": 66,
        "time": 50.75,
        "duration": 0.25,
        "velocity": 0.79,
        "hand": "right"
      },
      {
        "midi": 57,
        "time": 51,
        "duration": 1,
        "velocity": 0.79,
        "hand": "left"
      },
      {
        "midi": 62,
        "time": 51.125,
        "duration": 1,
        "velocity": 0.79,
        "hand": "right"
      },
      {
        "midi": 66,
        "time": 51.125,
        "duration": 0.875,
        "velocity": 0.79,
        "hand": "right"
      },
      {
        "midi": 38,
        "time": 52,
        "duration": 1.5,
        "velocity": 0.79,
        "hand": "left"
      },
      {
        "midi": 57,
        "time": 52.25,
        "duration": 0.25,
        "velocity": 0.79,
        "hand": "left"
      },
      {
        "midi": 69,
        "time": 52.5,
        "duration": 0.25,
        "velocity": 0.79,
        "hand": "right"
      },
      {
        "midi": 69,
        "time": 52.75,
        "duration": 0.25,
        "velocity": 0.79,
        "hand": "right"
      },
      {
        "midi": 69,
        "time": 53,
        "duration": 0.25,
        "velocity": 0.79,
        "hand": "right"
      },
      {
        "midi": 57,
        "time": 53.25,
        "duration": 0.25,
        "velocity": 0.79,
        "hand": "left"
      },
      {
        "midi": 38,
        "time": 53.5,
        "duration": 0.5,
        "velocity": 0.79,
        "hand": "left"
      },
      {
        "midi": 57,
        "time": 53.5,
        "duration": 0.5,
        "velocity": 0.79,
        "hand": "left"
      },
      {
        "midi": 62,
        "time": 53.5,
        "duration": 0.5,
        "velocity": 0.79,
        "hand": "right"
      },
      {
        "midi": 66,
        "time": 53.5,
        "duration": 0.5,
        "velocity": 0.79,
        "hand": "right"
      },
      {
        "midi": 38,
        "time": 54,
        "duration": 1.5,
        "velocity": 0.79,
        "hand": "left"
      },
      {
        "midi": 50,
        "time": 54.125,
        "duration": 1.5,
        "velocity": 0.79,
        "hand": "left"
      },
      {
        "midi": 61,
        "time": 54.125,
        "duration": 1.375,
        "velocity": 0.79,
        "hand": "right"
      },
      {
        "midi": 57,
        "time": 54.25,
        "duration": 0.25,
        "velocity": 0.79,
        "hand": "left"
      },
      {
        "midi": 65,
        "time": 54.25,
        "duration": 1.375,
        "velocity": 0.79,
        "hand": "right"
      },
      {
        "midi": 69,
        "time": 54.5,
        "duration": 0.25,
        "velocity": 0.79,
        "hand": "right"
      },
      {
        "midi": 69,
        "time": 54.75,
        "duration": 0.25,
        "velocity": 0.79,
        "hand": "right"
      },
      {
        "midi": 69,
        "time": 55,
        "duration": 0.25,
        "velocity": 0.79,
        "hand": "right"
      },
      {
        "midi": 61,
        "time": 55.25,
        "duration": 0.25,
        "velocity": 0.79,
        "hand": "right"
      },
      {
        "midi": 38,
        "time": 55.5,
        "duration": 0.5,
        "velocity": 0.79,
        "hand": "left"
      },
      {
        "midi": 57,
        "time": 55.5,
        "duration": 0.5,
        "velocity": 0.79,
        "hand": "left"
      },
      {
        "midi": 61,
        "time": 55.5,
        "duration": 0.5,
        "velocity": 0.79,
        "hand": "right"
      },
      {
        "midi": 65,
        "time": 55.5,
        "duration": 0.5,
        "velocity": 0.79,
        "hand": "right"
      },
      {
        "midi": 38,
        "time": 56,
        "duration": 1.5,
        "velocity": 0.79,
        "hand": "left"
      },
      {
        "midi": 50,
        "time": 56.125,
        "duration": 1.5,
        "velocity": 0.79,
        "hand": "left"
      },
      {
        "midi": 57,
        "time": 56.125,
        "duration": 1.375,
        "velocity": 0.79,
        "hand": "left"
      },
      {
        "midi": 57,
        "time": 56.25,
        "duration": 0.25,
        "velocity": 0.79,
        "hand": "left"
      },
      {
        "midi": 62,
        "time": 56.25,
        "duration": 1.375,
        "velocity": 0.79,
        "hand": "right"
      },
      {
        "midi": 66,
        "time": 56.25,
        "duration": 1.25,
        "velocity": 0.79,
        "hand": "right"
      },
      {
        "midi": 69,
        "time": 56.5,
        "duration": 0.25,
        "velocity": 0.79,
        "hand": "right"
      },
      {
        "midi": 69,
        "time": 56.75,
        "duration": 0.25,
        "velocity": 0.79,
        "hand": "right"
      },
      {
        "midi": 69,
        "time": 57,
        "duration": 0.25,
        "velocity": 0.79,
        "hand": "right"
      },
      {
        "midi": 61,
        "time": 57.25,
        "duration": 0.25,
        "velocity": 0.79,
        "hand": "right"
      },
      {
        "midi": 38,
        "time": 57.5,
        "duration": 0.5,
        "velocity": 0.79,
        "hand": "left"
      },
      {
        "midi": 57,
        "time": 57.5,
        "duration": 0.5,
        "velocity": 0.79,
        "hand": "left"
      },
      {
        "midi": 62,
        "time": 57.5,
        "duration": 0.5,
        "velocity": 0.79,
        "hand": "right"
      },
      {
        "midi": 66,
        "time": 57.5,
        "duration": 0.5,
        "velocity": 0.79,
        "hand": "right"
      },
      {
        "midi": 38,
        "time": 58,
        "duration": 1.5,
        "velocity": 0.79,
        "hand": "left"
      },
      {
        "midi": 50,
        "time": 58.125,
        "duration": 1.5,
        "velocity": 0.79,
        "hand": "left"
      },
      {
        "midi": 61,
        "time": 58.125,
        "duration": 1.375,
        "velocity": 0.79,
        "hand": "right"
      },
      {
        "midi": 57,
        "time": 58.25,
        "duration": 0.25,
        "velocity": 0.79,
        "hand": "left"
      },
      {
        "midi": 65,
        "time": 58.25,
        "duration": 1.375,
        "velocity": 0.79,
        "hand": "right"
      },
      {
        "midi": 69,
        "time": 58.5,
        "duration": 0.25,
        "velocity": 0.79,
        "hand": "right"
      },
      {
        "midi": 69,
        "time": 58.75,
        "duration": 0.25,
        "velocity": 0.79,
        "hand": "right"
      },
      {
        "midi": 69,
        "time": 59,
        "duration": 0.25,
        "velocity": 0.79,
        "hand": "right"
      },
      {
        "midi": 61,
        "time": 59.25,
        "duration": 0.25,
        "velocity": 0.79,
        "hand": "right"
      },
      {
        "midi": 38,
        "time": 59.5,
        "duration": 0.5,
        "velocity": 0.79,
        "hand": "left"
      },
      {
        "midi": 55,
        "time": 59.5,
        "duration": 0.5,
        "velocity": 0.79,
        "hand": "left"
      },
      {
        "midi": 61,
        "time": 59.5,
        "duration": 0.5,
        "velocity": 0.79,
        "hand": "right"
      },
      {
        "midi": 64,
        "time": 59.5,
        "duration": 0.5,
        "velocity": 0.79,
        "hand": "right"
      },
      {
        "midi": 38,
        "time": 60,
        "duration": 1.5,
        "velocity": 0.79,
        "hand": "left"
      },
      {
        "midi": 54,
        "time": 60.125,
        "duration": 1.5,
        "velocity": 0.79,
        "hand": "left"
      },
      {
        "midi": 62,
        "time": 60.125,
        "duration": 1.375,
        "velocity": 0.79,
        "hand": "right"
      },
      {
        "midi": 45,
        "time": 60.25,
        "duration": 0.25,
        "velocity": 0.79,
        "hand": "left"
      },
      {
        "midi": 57,
        "time": 60.5,
        "duration": 0.25,
        "velocity": 0.79,
        "hand": "left"
      },
      {
        "midi": 57,
        "time": 60.75,
        "duration": 0.25,
        "velocity": 0.79,
        "hand": "left"
      },
      {
        "midi": 57,
        "time": 61,
        "duration": 1,
        "velocity": 0.79,
        "hand": "left"
      },
      {
        "midi": 38,
        "time": 62,
        "duration": 1,
        "velocity": 0.79,
        "hand": "left"
      },
      {
        "midi": 54,
        "time": 62.125,
        "duration": 1,
        "velocity": 0.79,
        "hand": "left"
      },
      {
        "midi": 62,
        "time": 62.125,
        "duration": 0.875,
        "velocity": 0.79,
        "hand": "right"
      },
      {
        "midi": 45,
        "time": 62.25,
        "duration": 0.25,
        "velocity": 0.79,
        "hand": "left"
      },
      {
        "midi": 57,
        "time": 62.5,
        "duration": 0.25,
        "velocity": 0.79,
        "hand": "left"
      },
      {
        "midi": 57,
        "time": 62.75,
        "duration": 0.25,
        "velocity": 0.79,
        "hand": "left"
      },
      {
        "midi": 57,
        "time": 63,
        "duration": 1,
        "velocity": 0.79,
        "hand": "left"
      },
      {
        "midi": 62,
        "time": 63.125,
        "duration": 1,
        "velocity": 0.79,
        "hand": "right"
      },
      {
        "midi": 66,
        "time": 63.125,
        "duration": 0.875,
        "velocity": 0.79,
        "hand": "right"
      },
      {
        "midi": 69,
        "time": 63.25,
        "duration": 0.25,
        "velocity": 0.79,
        "hand": "right"
      },
      {
        "midi": 78,
        "time": 63.5,
        "duration": 0.25,
        "velocity": 0.79,
        "hand": "right"
      },
      {
        "midi": 78,
        "time": 63.75,
        "duration": 0.25,
        "velocity": 0.79,
        "hand": "right"
      },
      {
        "midi": 38,
        "time": 64,
        "duration": 2,
        "velocity": 0.79,
        "hand": "left"
      },
      {
        "midi": 71,
        "time": 64,
        "duration": 2,
        "velocity": 0.79,
        "hand": "right"
      },
      {
        "midi": 54,
        "time": 64.125,
        "duration": 2,
        "velocity": 0.79,
        "hand": "left"
      },
      {
        "midi": 62,
        "time": 64.125,
        "duration": 1.875,
        "velocity": 0.79,
        "hand": "right"
      }
    ]
  },
  "notes1Hand": [
    {
      "midi": 38,
      "time": 0,
      "duration": 1.5,
      "velocity": 0.79,
      "hand": "right"
    },
    {
      "midi": 57,
      "time": 0.125,
      "duration": 1.375,
      "velocity": 0.79,
      "hand": "right"
    },
    {
      "midi": 66,
      "time": 0.25,
      "duration": 1.25,
      "velocity": 0.79,
      "hand": "right"
    },
    {
      "midi": 69,
      "time": 0.5,
      "duration": 0.25,
      "velocity": 0.79,
      "hand": "right"
    },
    {
      "midi": 69,
      "time": 0.75,
      "duration": 0.25,
      "velocity": 0.79,
      "hand": "right"
    },
    {
      "midi": 69,
      "time": 1,
      "duration": 0.25,
      "velocity": 0.79,
      "hand": "right"
    },
    {
      "midi": 61,
      "time": 1.25,
      "duration": 0.25,
      "velocity": 0.79,
      "hand": "right"
    },
    {
      "midi": 66,
      "time": 1.5,
      "duration": 0.5,
      "velocity": 0.79,
      "hand": "right"
    },
    {
      "midi": 38,
      "time": 2,
      "duration": 1.5,
      "velocity": 0.79,
      "hand": "right"
    },
    {
      "midi": 61,
      "time": 2.125,
      "duration": 1.375,
      "velocity": 0.79,
      "hand": "right"
    },
    {
      "midi": 65,
      "time": 2.25,
      "duration": 1.375,
      "velocity": 0.79,
      "hand": "right"
    },
    {
      "midi": 69,
      "time": 2.5,
      "duration": 0.25,
      "velocity": 0.79,
      "hand": "right"
    },
    {
      "midi": 69,
      "time": 2.75,
      "duration": 0.25,
      "velocity": 0.79,
      "hand": "right"
    },
    {
      "midi": 69,
      "time": 3,
      "duration": 0.25,
      "velocity": 0.79,
      "hand": "right"
    },
    {
      "midi": 61,
      "time": 3.25,
      "duration": 0.25,
      "velocity": 0.79,
      "hand": "right"
    },
    {
      "midi": 65,
      "time": 3.5,
      "duration": 0.5,
      "velocity": 0.79,
      "hand": "right"
    },
    {
      "midi": 38,
      "time": 4,
      "duration": 1.5,
      "velocity": 0.79,
      "hand": "right"
    },
    {
      "midi": 57,
      "time": 4.125,
      "duration": 1.375,
      "velocity": 0.79,
      "hand": "right"
    },
    {
      "midi": 66,
      "time": 4.25,
      "duration": 1.25,
      "velocity": 0.79,
      "hand": "right"
    },
    {
      "midi": 69,
      "time": 4.5,
      "duration": 0.25,
      "velocity": 0.79,
      "hand": "right"
    },
    {
      "midi": 69,
      "time": 4.75,
      "duration": 0.25,
      "velocity": 0.79,
      "hand": "right"
    },
    {
      "midi": 69,
      "time": 5,
      "duration": 0.25,
      "velocity": 0.79,
      "hand": "right"
    },
    {
      "midi": 61,
      "time": 5.25,
      "duration": 0.25,
      "velocity": 0.79,
      "hand": "right"
    },
    {
      "midi": 66,
      "time": 5.5,
      "duration": 0.5,
      "velocity": 0.79,
      "hand": "right"
    },
    {
      "midi": 38,
      "time": 6,
      "duration": 1.5,
      "velocity": 0.79,
      "hand": "right"
    },
    {
      "midi": 61,
      "time": 6.125,
      "duration": 1.375,
      "velocity": 0.79,
      "hand": "right"
    },
    {
      "midi": 65,
      "time": 6.25,
      "duration": 1.375,
      "velocity": 0.79,
      "hand": "right"
    },
    {
      "midi": 69,
      "time": 6.5,
      "duration": 0.25,
      "velocity": 0.79,
      "hand": "right"
    },
    {
      "midi": 69,
      "time": 6.75,
      "duration": 0.25,
      "velocity": 0.79,
      "hand": "right"
    },
    {
      "midi": 69,
      "time": 7,
      "duration": 0.25,
      "velocity": 0.79,
      "hand": "right"
    },
    {
      "midi": 61,
      "time": 7.25,
      "duration": 0.25,
      "velocity": 0.79,
      "hand": "right"
    },
    {
      "midi": 64,
      "time": 7.5,
      "duration": 0.5,
      "velocity": 0.79,
      "hand": "right"
    },
    {
      "midi": 38,
      "time": 8,
      "duration": 1.5,
      "velocity": 0.79,
      "hand": "right"
    },
    {
      "midi": 54,
      "time": 8.125,
      "duration": 1.375,
      "velocity": 0.79,
      "hand": "right"
    },
    {
      "midi": 62,
      "time": 8.25,
      "duration": 1.25,
      "velocity": 0.79,
      "hand": "right"
    },
    {
      "midi": 57,
      "time": 8.5,
      "duration": 0.25,
      "velocity": 0.79,
      "hand": "right"
    },
    {
      "midi": 57,
      "time": 8.75,
      "duration": 0.25,
      "velocity": 0.79,
      "hand": "right"
    },
    {
      "midi": 57,
      "time": 9,
      "duration": 1,
      "velocity": 0.79,
      "hand": "right"
    },
    {
      "midi": 38,
      "time": 10,
      "duration": 1.5,
      "velocity": 0.79,
      "hand": "right"
    },
    {
      "midi": 57,
      "time": 10.125,
      "duration": 1.375,
      "velocity": 0.79,
      "hand": "right"
    },
    {
      "midi": 66,
      "time": 10.25,
      "duration": 1.25,
      "velocity": 0.79,
      "hand": "right"
    },
    {
      "midi": 69,
      "time": 10.5,
      "duration": 0.25,
      "velocity": 0.79,
      "hand": "right"
    },
    {
      "midi": 69,
      "time": 10.75,
      "duration": 0.25,
      "velocity": 0.79,
      "hand": "right"
    },
    {
      "midi": 69,
      "time": 11,
      "duration": 0.25,
      "velocity": 0.79,
      "hand": "right"
    },
    {
      "midi": 61,
      "time": 11.25,
      "duration": 0.25,
      "velocity": 0.79,
      "hand": "right"
    },
    {
      "midi": 66,
      "time": 11.5,
      "duration": 0.5,
      "velocity": 0.79,
      "hand": "right"
    },
    {
      "midi": 38,
      "time": 12,
      "duration": 1.5,
      "velocity": 0.79,
      "hand": "right"
    },
    {
      "midi": 61,
      "time": 12.125,
      "duration": 1.375,
      "velocity": 0.79,
      "hand": "right"
    },
    {
      "midi": 65,
      "time": 12.25,
      "duration": 1.375,
      "velocity": 0.79,
      "hand": "right"
    },
    {
      "midi": 69,
      "time": 12.5,
      "duration": 0.25,
      "velocity": 0.79,
      "hand": "right"
    },
    {
      "midi": 69,
      "time": 12.75,
      "duration": 0.25,
      "velocity": 0.79,
      "hand": "right"
    },
    {
      "midi": 69,
      "time": 13,
      "duration": 0.25,
      "velocity": 0.79,
      "hand": "right"
    },
    {
      "midi": 61,
      "time": 13.25,
      "duration": 0.25,
      "velocity": 0.79,
      "hand": "right"
    },
    {
      "midi": 65,
      "time": 13.5,
      "duration": 0.5,
      "velocity": 0.79,
      "hand": "right"
    },
    {
      "midi": 38,
      "time": 14,
      "duration": 1.5,
      "velocity": 0.79,
      "hand": "right"
    },
    {
      "midi": 57,
      "time": 14.125,
      "duration": 1.375,
      "velocity": 0.79,
      "hand": "right"
    },
    {
      "midi": 66,
      "time": 14.25,
      "duration": 1.25,
      "velocity": 0.79,
      "hand": "right"
    },
    {
      "midi": 69,
      "time": 14.5,
      "duration": 0.25,
      "velocity": 0.79,
      "hand": "right"
    },
    {
      "midi": 69,
      "time": 14.75,
      "duration": 0.25,
      "velocity": 0.79,
      "hand": "right"
    },
    {
      "midi": 69,
      "time": 15,
      "duration": 0.25,
      "velocity": 0.79,
      "hand": "right"
    },
    {
      "midi": 61,
      "time": 15.25,
      "duration": 0.25,
      "velocity": 0.79,
      "hand": "right"
    },
    {
      "midi": 66,
      "time": 15.5,
      "duration": 0.5,
      "velocity": 0.79,
      "hand": "right"
    },
    {
      "midi": 38,
      "time": 16,
      "duration": 1.5,
      "velocity": 0.79,
      "hand": "right"
    },
    {
      "midi": 61,
      "time": 16.125,
      "duration": 1.375,
      "velocity": 0.79,
      "hand": "right"
    },
    {
      "midi": 65,
      "time": 16.25,
      "duration": 1.375,
      "velocity": 0.79,
      "hand": "right"
    },
    {
      "midi": 69,
      "time": 16.5,
      "duration": 0.25,
      "velocity": 0.79,
      "hand": "right"
    },
    {
      "midi": 69,
      "time": 16.75,
      "duration": 0.25,
      "velocity": 0.79,
      "hand": "right"
    },
    {
      "midi": 69,
      "time": 17,
      "duration": 0.25,
      "velocity": 0.79,
      "hand": "right"
    },
    {
      "midi": 61,
      "time": 17.25,
      "duration": 0.25,
      "velocity": 0.79,
      "hand": "right"
    },
    {
      "midi": 64,
      "time": 17.5,
      "duration": 0.5,
      "velocity": 0.79,
      "hand": "right"
    },
    {
      "midi": 38,
      "time": 18,
      "duration": 1.5,
      "velocity": 0.79,
      "hand": "right"
    },
    {
      "midi": 54,
      "time": 18.125,
      "duration": 1.375,
      "velocity": 0.79,
      "hand": "right"
    },
    {
      "midi": 62,
      "time": 18.25,
      "duration": 1.25,
      "velocity": 0.79,
      "hand": "right"
    },
    {
      "midi": 57,
      "time": 18.5,
      "duration": 0.25,
      "velocity": 0.79,
      "hand": "right"
    },
    {
      "midi": 57,
      "time": 18.75,
      "duration": 0.25,
      "velocity": 0.79,
      "hand": "right"
    },
    {
      "midi": 57,
      "time": 19,
      "duration": 1,
      "velocity": 0.79,
      "hand": "right"
    },
    {
      "midi": 62,
      "time": 20,
      "duration": 0.25,
      "velocity": 0.79,
      "hand": "right"
    },
    {
      "midi": 57,
      "time": 20.125,
      "duration": 1.375,
      "velocity": 0.79,
      "hand": "right"
    },
    {
      "midi": 62,
      "time": 20.25,
      "duration": 0.5,
      "velocity": 0.79,
      "hand": "right"
    },
    {
      "midi": 66,
      "time": 20.75,
      "duration": 0.25,
      "velocity": 0.79,
      "hand": "right"
    },
    {
      "midi": 69,
      "time": 21,
      "duration": 0.25,
      "velocity": 0.79,
      "hand": "right"
    },
    {
      "midi": 66,
      "time": 21.25,
      "duration": 0.5,
      "velocity": 0.79,
      "hand": "right"
    },
    {
      "midi": 57,
      "time": 21.5,
      "duration": 0.5,
      "velocity": 0.79,
      "hand": "right"
    },
    {
      "midi": 62,
      "time": 21.75,
      "duration": 0.25,
      "velocity": 0.79,
      "hand": "right"
    },
    {
      "midi": 38,
      "time": 22,
      "duration": 1.5,
      "velocity": 0.79,
      "hand": "right"
    },
    {
      "midi": 55,
      "time": 22.125,
      "duration": 1.375,
      "velocity": 0.79,
      "hand": "right"
    },
    {
      "midi": 64,
      "time": 22.25,
      "duration": 1.375,
      "velocity": 0.79,
      "hand": "right"
    },
    {
      "midi": 69,
      "time": 22.5,
      "duration": 0.25,
      "velocity": 0.79,
      "hand": "right"
    },
    {
      "midi": 69,
      "time": 22.75,
      "duration": 0.25,
      "velocity": 0.79,
      "hand": "right"
    },
    {
      "midi": 69,
      "time": 23,
      "duration": 0.25,
      "velocity": 0.79,
      "hand": "right"
    },
    {
      "midi": 57,
      "time": 23.25,
      "duration": 0.25,
      "velocity": 0.79,
      "hand": "right"
    },
    {
      "midi": 69,
      "time": 23.5,
      "duration": 0.5,
      "velocity": 0.79,
      "hand": "right"
    },
    {
      "midi": 61,
      "time": 24,
      "duration": 0.25,
      "velocity": 0.79,
      "hand": "right"
    },
    {
      "midi": 57,
      "time": 24.125,
      "duration": 1.375,
      "velocity": 0.79,
      "hand": "right"
    },
    {
      "midi": 61,
      "time": 24.25,
      "duration": 0.5,
      "velocity": 0.79,
      "hand": "right"
    },
    {
      "midi": 64,
      "time": 24.75,
      "duration": 0.25,
      "velocity": 0.79,
      "hand": "right"
    },
    {
      "midi": 67,
      "time": 25,
      "duration": 0.25,
      "velocity": 0.79,
      "hand": "right"
    },
    {
      "midi": 64,
      "time": 25.25,
      "duration": 0.5,
      "velocity": 0.79,
      "hand": "right"
    },
    {
      "midi": 57,
      "time": 25.5,
      "duration": 0.5,
      "velocity": 0.79,
      "hand": "right"
    },
    {
      "midi": 61,
      "time": 25.75,
      "duration": 0.25,
      "velocity": 0.79,
      "hand": "right"
    },
    {
      "midi": 38,
      "time": 26,
      "duration": 1,
      "velocity": 0.79,
      "hand": "right"
    },
    {
      "midi": 57,
      "time": 26.25,
      "duration": 0.25,
      "velocity": 0.79,
      "hand": "right"
    },
    {
      "midi": 69,
      "time": 26.5,
      "duration": 0.25,
      "velocity": 0.79,
      "hand": "right"
    },
    {
      "midi": 69,
      "time": 26.75,
      "duration": 0.25,
      "velocity": 0.79,
      "hand": "right"
    },
    {
      "midi": 69,
      "time": 27,
      "duration": 0.25,
      "velocity": 0.79,
      "hand": "right"
    },
    {
      "midi": 57,
      "time": 27.25,
      "duration": 0.25,
      "velocity": 0.79,
      "hand": "right"
    },
    {
      "midi": 69,
      "time": 27.5,
      "duration": 0.5,
      "velocity": 0.79,
      "hand": "right"
    },
    {
      "midi": 62,
      "time": 28,
      "duration": 0.25,
      "velocity": 0.79,
      "hand": "right"
    },
    {
      "midi": 57,
      "time": 28.125,
      "duration": 1.375,
      "velocity": 0.79,
      "hand": "right"
    },
    {
      "midi": 62,
      "time": 28.25,
      "duration": 0.5,
      "velocity": 0.79,
      "hand": "right"
    },
    {
      "midi": 66,
      "time": 28.75,
      "duration": 0.25,
      "velocity": 0.79,
      "hand": "right"
    },
    {
      "midi": 69,
      "time": 29,
      "duration": 0.25,
      "velocity": 0.79,
      "hand": "right"
    },
    {
      "midi": 66,
      "time": 29.25,
      "duration": 0.5,
      "velocity": 0.79,
      "hand": "right"
    },
    {
      "midi": 57,
      "time": 29.5,
      "duration": 0.5,
      "velocity": 0.79,
      "hand": "right"
    },
    {
      "midi": 62,
      "time": 29.75,
      "duration": 0.25,
      "velocity": 0.79,
      "hand": "right"
    },
    {
      "midi": 38,
      "time": 30,
      "duration": 1.5,
      "velocity": 0.79,
      "hand": "right"
    },
    {
      "midi": 55,
      "time": 30.125,
      "duration": 1.375,
      "velocity": 0.79,
      "hand": "right"
    },
    {
      "midi": 64,
      "time": 30.25,
      "duration": 1.375,
      "velocity": 0.79,
      "hand": "right"
    },
    {
      "midi": 69,
      "time": 30.5,
      "duration": 0.25,
      "velocity": 0.79,
      "hand": "right"
    },
    {
      "midi": 69,
      "time": 30.75,
      "duration": 0.25,
      "velocity": 0.79,
      "hand": "right"
    },
    {
      "midi": 69,
      "time": 31,
      "duration": 0.25,
      "velocity": 0.79,
      "hand": "right"
    },
    {
      "midi": 57,
      "time": 31.25,
      "duration": 0.25,
      "velocity": 0.79,
      "hand": "right"
    },
    {
      "midi": 69,
      "time": 31.5,
      "duration": 0.5,
      "velocity": 0.79,
      "hand": "right"
    },
    {
      "midi": 61,
      "time": 32,
      "duration": 0.25,
      "velocity": 0.79,
      "hand": "right"
    },
    {
      "midi": 57,
      "time": 32.125,
      "duration": 1.375,
      "velocity": 0.79,
      "hand": "right"
    },
    {
      "midi": 61,
      "time": 32.25,
      "duration": 0.5,
      "velocity": 0.79,
      "hand": "right"
    },
    {
      "midi": 64,
      "time": 32.75,
      "duration": 0.25,
      "velocity": 0.79,
      "hand": "right"
    },
    {
      "midi": 67,
      "time": 33,
      "duration": 0.25,
      "velocity": 0.79,
      "hand": "right"
    },
    {
      "midi": 64,
      "time": 33.25,
      "duration": 0.5,
      "velocity": 0.79,
      "hand": "right"
    },
    {
      "midi": 57,
      "time": 33.5,
      "duration": 0.5,
      "velocity": 0.79,
      "hand": "right"
    },
    {
      "midi": 61,
      "time": 33.75,
      "duration": 0.25,
      "velocity": 0.79,
      "hand": "right"
    },
    {
      "midi": 38,
      "time": 34,
      "duration": 1,
      "velocity": 0.79,
      "hand": "right"
    },
    {
      "midi": 57,
      "time": 34.125,
      "duration": 0.875,
      "velocity": 0.79,
      "hand": "right"
    },
    {
      "midi": 62,
      "time": 34.25,
      "duration": 0.875,
      "velocity": 0.79,
      "hand": "right"
    },
    {
      "midi": 69,
      "time": 34.5,
      "duration": 0.25,
      "velocity": 0.79,
      "hand": "right"
    },
    {
      "midi": 69,
      "time": 34.75,
      "duration": 0.25,
      "velocity": 0.79,
      "hand": "right"
    },
    {
      "midi": 69,
      "time": 35,
      "duration": 0.25,
      "velocity": 0.79,
      "hand": "right"
    },
    {
      "midi": 59,
      "time": 35.25,
      "duration": 0.25,
      "velocity": 0.79,
      "hand": "right"
    },
    {
      "midi": 69,
      "time": 35.5,
      "duration": 0.5,
      "velocity": 0.79,
      "hand": "right"
    },
    {
      "midi": 62,
      "time": 36,
      "duration": 0.5,
      "velocity": 0.79,
      "hand": "right"
    },
    {
      "midi": 66,
      "time": 36.5,
      "duration": 0.5,
      "velocity": 0.79,
      "hand": "right"
    },
    {
      "midi": 62,
      "time": 37,
      "duration": 0.5,
      "velocity": 0.79,
      "hand": "right"
    },
    {
      "midi": 66,
      "time": 37.5,
      "duration": 0.5,
      "velocity": 0.79,
      "hand": "right"
    },
    {
      "midi": 64,
      "time": 38,
      "duration": 0.25,
      "velocity": 0.79,
      "hand": "right"
    },
    {
      "midi": 67,
      "time": 38.25,
      "duration": 0.5,
      "velocity": 0.79,
      "hand": "right"
    },
    {
      "midi": 67,
      "time": 38.75,
      "duration": 0.25,
      "velocity": 0.79,
      "hand": "right"
    },
    {
      "midi": 61,
      "time": 39,
      "duration": 1,
      "velocity": 0.79,
      "hand": "right"
    },
    {
      "midi": 67,
      "time": 39.125,
      "duration": 0.875,
      "velocity": 0.79,
      "hand": "right"
    },
    {
      "midi": 38,
      "time": 39.5,
      "duration": 0.5,
      "velocity": 0.79,
      "hand": "right"
    },
    {
      "midi": 61,
      "time": 40,
      "duration": 0.25,
      "velocity": 0.79,
      "hand": "right"
    },
    {
      "midi": 57,
      "time": 40.125,
      "duration": 1.375,
      "velocity": 0.79,
      "hand": "right"
    },
    {
      "midi": 61,
      "time": 40.25,
      "duration": 0.5,
      "velocity": 0.79,
      "hand": "right"
    },
    {
      "midi": 61,
      "time": 40.75,
      "duration": 0.25,
      "velocity": 0.79,
      "hand": "right"
    },
    {
      "midi": 64,
      "time": 41,
      "duration": 0.25,
      "velocity": 0.79,
      "hand": "right"
    },
    {
      "midi": 62,
      "time": 41.25,
      "duration": 0.5,
      "velocity": 0.79,
      "hand": "right"
    },
    {
      "midi": 52,
      "time": 41.5,
      "duration": 0.5,
      "velocity": 0.79,
      "hand": "right"
    },
    {
      "midi": 61,
      "time": 41.75,
      "duration": 0.25,
      "velocity": 0.79,
      "hand": "right"
    },
    {
      "midi": 62,
      "time": 42,
      "duration": 0.25,
      "velocity": 0.79,
      "hand": "right"
    },
    {
      "midi": 66,
      "time": 42.25,
      "duration": 0.5,
      "velocity": 0.79,
      "hand": "right"
    },
    {
      "midi": 66,
      "time": 42.75,
      "duration": 0.25,
      "velocity": 0.79,
      "hand": "right"
    },
    {
      "midi": 57,
      "time": 43,
      "duration": 1,
      "velocity": 0.79,
      "hand": "right"
    },
    {
      "midi": 66,
      "time": 43.125,
      "duration": 0.875,
      "velocity": 0.79,
      "hand": "right"
    },
    {
      "midi": 62,
      "time": 44,
      "duration": 0.5,
      "velocity": 0.79,
      "hand": "right"
    },
    {
      "midi": 66,
      "time": 44.5,
      "duration": 0.5,
      "velocity": 0.79,
      "hand": "right"
    },
    {
      "midi": 62,
      "time": 45,
      "duration": 0.5,
      "velocity": 0.79,
      "hand": "right"
    },
    {
      "midi": 66,
      "time": 45.5,
      "duration": 0.5,
      "velocity": 0.79,
      "hand": "right"
    },
    {
      "midi": 64,
      "time": 46,
      "duration": 0.25,
      "velocity": 0.79,
      "hand": "right"
    },
    {
      "midi": 67,
      "time": 46.25,
      "duration": 0.5,
      "velocity": 0.79,
      "hand": "right"
    },
    {
      "midi": 67,
      "time": 46.75,
      "duration": 0.25,
      "velocity": 0.79,
      "hand": "right"
    },
    {
      "midi": 61,
      "time": 47,
      "duration": 1,
      "velocity": 0.79,
      "hand": "right"
    },
    {
      "midi": 67,
      "time": 47.125,
      "duration": 0.875,
      "velocity": 0.79,
      "hand": "right"
    },
    {
      "midi": 38,
      "time": 47.5,
      "duration": 0.5,
      "velocity": 0.79,
      "hand": "right"
    },
    {
      "midi": 61,
      "time": 48,
      "duration": 0.25,
      "velocity": 0.79,
      "hand": "right"
    },
    {
      "midi": 57,
      "time": 48.125,
      "duration": 1.375,
      "velocity": 0.79,
      "hand": "right"
    },
    {
      "midi": 61,
      "time": 48.25,
      "duration": 0.5,
      "velocity": 0.79,
      "hand": "right"
    },
    {
      "midi": 61,
      "time": 48.75,
      "duration": 0.25,
      "velocity": 0.79,
      "hand": "right"
    },
    {
      "midi": 64,
      "time": 49,
      "duration": 0.25,
      "velocity": 0.79,
      "hand": "right"
    },
    {
      "midi": 62,
      "time": 49.25,
      "duration": 0.5,
      "velocity": 0.79,
      "hand": "right"
    },
    {
      "midi": 52,
      "time": 49.5,
      "duration": 0.5,
      "velocity": 0.79,
      "hand": "right"
    },
    {
      "midi": 61,
      "time": 49.75,
      "duration": 0.25,
      "velocity": 0.79,
      "hand": "right"
    },
    {
      "midi": 62,
      "time": 50,
      "duration": 0.25,
      "velocity": 0.79,
      "hand": "right"
    },
    {
      "midi": 66,
      "time": 50.25,
      "duration": 0.5,
      "velocity": 0.79,
      "hand": "right"
    },
    {
      "midi": 66,
      "time": 50.75,
      "duration": 0.25,
      "velocity": 0.79,
      "hand": "right"
    },
    {
      "midi": 57,
      "time": 51,
      "duration": 1,
      "velocity": 0.79,
      "hand": "right"
    },
    {
      "midi": 66,
      "time": 51.125,
      "duration": 0.875,
      "velocity": 0.79,
      "hand": "right"
    },
    {
      "midi": 38,
      "time": 52,
      "duration": 1.5,
      "velocity": 0.79,
      "hand": "right"
    },
    {
      "midi": 57,
      "time": 52.25,
      "duration": 0.25,
      "velocity": 0.79,
      "hand": "right"
    },
    {
      "midi": 69,
      "time": 52.5,
      "duration": 0.25,
      "velocity": 0.79,
      "hand": "right"
    },
    {
      "midi": 69,
      "time": 52.75,
      "duration": 0.25,
      "velocity": 0.79,
      "hand": "right"
    },
    {
      "midi": 69,
      "time": 53,
      "duration": 0.25,
      "velocity": 0.79,
      "hand": "right"
    },
    {
      "midi": 57,
      "time": 53.25,
      "duration": 0.25,
      "velocity": 0.79,
      "hand": "right"
    },
    {
      "midi": 66,
      "time": 53.5,
      "duration": 0.5,
      "velocity": 0.79,
      "hand": "right"
    },
    {
      "midi": 38,
      "time": 54,
      "duration": 1.5,
      "velocity": 0.79,
      "hand": "right"
    },
    {
      "midi": 61,
      "time": 54.125,
      "duration": 1.375,
      "velocity": 0.79,
      "hand": "right"
    },
    {
      "midi": 65,
      "time": 54.25,
      "duration": 1.375,
      "velocity": 0.79,
      "hand": "right"
    },
    {
      "midi": 69,
      "time": 54.5,
      "duration": 0.25,
      "velocity": 0.79,
      "hand": "right"
    },
    {
      "midi": 69,
      "time": 54.75,
      "duration": 0.25,
      "velocity": 0.79,
      "hand": "right"
    },
    {
      "midi": 69,
      "time": 55,
      "duration": 0.25,
      "velocity": 0.79,
      "hand": "right"
    },
    {
      "midi": 61,
      "time": 55.25,
      "duration": 0.25,
      "velocity": 0.79,
      "hand": "right"
    },
    {
      "midi": 65,
      "time": 55.5,
      "duration": 0.5,
      "velocity": 0.79,
      "hand": "right"
    },
    {
      "midi": 38,
      "time": 56,
      "duration": 1.5,
      "velocity": 0.79,
      "hand": "right"
    },
    {
      "midi": 57,
      "time": 56.125,
      "duration": 1.375,
      "velocity": 0.79,
      "hand": "right"
    },
    {
      "midi": 66,
      "time": 56.25,
      "duration": 1.25,
      "velocity": 0.79,
      "hand": "right"
    },
    {
      "midi": 69,
      "time": 56.5,
      "duration": 0.25,
      "velocity": 0.79,
      "hand": "right"
    },
    {
      "midi": 69,
      "time": 56.75,
      "duration": 0.25,
      "velocity": 0.79,
      "hand": "right"
    },
    {
      "midi": 69,
      "time": 57,
      "duration": 0.25,
      "velocity": 0.79,
      "hand": "right"
    },
    {
      "midi": 61,
      "time": 57.25,
      "duration": 0.25,
      "velocity": 0.79,
      "hand": "right"
    },
    {
      "midi": 66,
      "time": 57.5,
      "duration": 0.5,
      "velocity": 0.79,
      "hand": "right"
    },
    {
      "midi": 38,
      "time": 58,
      "duration": 1.5,
      "velocity": 0.79,
      "hand": "right"
    },
    {
      "midi": 61,
      "time": 58.125,
      "duration": 1.375,
      "velocity": 0.79,
      "hand": "right"
    },
    {
      "midi": 65,
      "time": 58.25,
      "duration": 1.375,
      "velocity": 0.79,
      "hand": "right"
    },
    {
      "midi": 69,
      "time": 58.5,
      "duration": 0.25,
      "velocity": 0.79,
      "hand": "right"
    },
    {
      "midi": 69,
      "time": 58.75,
      "duration": 0.25,
      "velocity": 0.79,
      "hand": "right"
    },
    {
      "midi": 69,
      "time": 59,
      "duration": 0.25,
      "velocity": 0.79,
      "hand": "right"
    },
    {
      "midi": 61,
      "time": 59.25,
      "duration": 0.25,
      "velocity": 0.79,
      "hand": "right"
    },
    {
      "midi": 64,
      "time": 59.5,
      "duration": 0.5,
      "velocity": 0.79,
      "hand": "right"
    },
    {
      "midi": 38,
      "time": 60,
      "duration": 1.5,
      "velocity": 0.79,
      "hand": "right"
    },
    {
      "midi": 62,
      "time": 60.125,
      "duration": 1.375,
      "velocity": 0.79,
      "hand": "right"
    },
    {
      "midi": 45,
      "time": 60.25,
      "duration": 0.25,
      "velocity": 0.79,
      "hand": "right"
    },
    {
      "midi": 57,
      "time": 60.5,
      "duration": 0.25,
      "velocity": 0.79,
      "hand": "right"
    },
    {
      "midi": 57,
      "time": 60.75,
      "duration": 0.25,
      "velocity": 0.79,
      "hand": "right"
    },
    {
      "midi": 57,
      "time": 61,
      "duration": 1,
      "velocity": 0.79,
      "hand": "right"
    },
    {
      "midi": 38,
      "time": 62,
      "duration": 1,
      "velocity": 0.79,
      "hand": "right"
    },
    {
      "midi": 62,
      "time": 62.125,
      "duration": 0.875,
      "velocity": 0.79,
      "hand": "right"
    },
    {
      "midi": 45,
      "time": 62.25,
      "duration": 0.25,
      "velocity": 0.79,
      "hand": "right"
    },
    {
      "midi": 57,
      "time": 62.5,
      "duration": 0.25,
      "velocity": 0.79,
      "hand": "right"
    },
    {
      "midi": 57,
      "time": 62.75,
      "duration": 0.25,
      "velocity": 0.79,
      "hand": "right"
    },
    {
      "midi": 57,
      "time": 63,
      "duration": 1,
      "velocity": 0.79,
      "hand": "right"
    },
    {
      "midi": 66,
      "time": 63.125,
      "duration": 0.875,
      "velocity": 0.79,
      "hand": "right"
    },
    {
      "midi": 69,
      "time": 63.25,
      "duration": 0.25,
      "velocity": 0.79,
      "hand": "right"
    },
    {
      "midi": 78,
      "time": 63.5,
      "duration": 0.25,
      "velocity": 0.79,
      "hand": "right"
    },
    {
      "midi": 78,
      "time": 63.75,
      "duration": 0.25,
      "velocity": 0.79,
      "hand": "right"
    },
    {
      "midi": 71,
      "time": 64,
      "duration": 2,
      "velocity": 0.79,
      "hand": "right"
    },
    {
      "midi": 62,
      "time": 64.125,
      "duration": 1.875,
      "velocity": 0.79,
      "hand": "right"
    }
  ],
  "notes2Hands": [
    {
      "midi": 38,
      "time": 0,
      "duration": 1.5,
      "velocity": 0.79,
      "hand": "left"
    },
    {
      "midi": 50,
      "time": 0.125,
      "duration": 1.5,
      "velocity": 0.79,
      "hand": "left"
    },
    {
      "midi": 57,
      "time": 0.125,
      "duration": 1.375,
      "velocity": 0.79,
      "hand": "left"
    },
    {
      "midi": 57,
      "time": 0.25,
      "duration": 0.25,
      "velocity": 0.79,
      "hand": "left"
    },
    {
      "midi": 62,
      "time": 0.25,
      "duration": 1.375,
      "velocity": 0.79,
      "hand": "right"
    },
    {
      "midi": 66,
      "time": 0.25,
      "duration": 1.25,
      "velocity": 0.79,
      "hand": "right"
    },
    {
      "midi": 69,
      "time": 0.5,
      "duration": 0.25,
      "velocity": 0.79,
      "hand": "right"
    },
    {
      "midi": 69,
      "time": 0.75,
      "duration": 0.25,
      "velocity": 0.79,
      "hand": "right"
    },
    {
      "midi": 69,
      "time": 1,
      "duration": 0.25,
      "velocity": 0.79,
      "hand": "right"
    },
    {
      "midi": 61,
      "time": 1.25,
      "duration": 0.25,
      "velocity": 0.79,
      "hand": "right"
    },
    {
      "midi": 38,
      "time": 1.5,
      "duration": 0.5,
      "velocity": 0.79,
      "hand": "left"
    },
    {
      "midi": 57,
      "time": 1.5,
      "duration": 0.5,
      "velocity": 0.79,
      "hand": "left"
    },
    {
      "midi": 62,
      "time": 1.5,
      "duration": 0.5,
      "velocity": 0.79,
      "hand": "right"
    },
    {
      "midi": 66,
      "time": 1.5,
      "duration": 0.5,
      "velocity": 0.79,
      "hand": "right"
    },
    {
      "midi": 38,
      "time": 2,
      "duration": 1.5,
      "velocity": 0.79,
      "hand": "left"
    },
    {
      "midi": 50,
      "time": 2.125,
      "duration": 1.5,
      "velocity": 0.79,
      "hand": "left"
    },
    {
      "midi": 61,
      "time": 2.125,
      "duration": 1.375,
      "velocity": 0.79,
      "hand": "right"
    },
    {
      "midi": 57,
      "time": 2.25,
      "duration": 0.25,
      "velocity": 0.79,
      "hand": "left"
    },
    {
      "midi": 65,
      "time": 2.25,
      "duration": 1.375,
      "velocity": 0.79,
      "hand": "right"
    },
    {
      "midi": 69,
      "time": 2.5,
      "duration": 0.25,
      "velocity": 0.79,
      "hand": "right"
    },
    {
      "midi": 69,
      "time": 2.75,
      "duration": 0.25,
      "velocity": 0.79,
      "hand": "right"
    },
    {
      "midi": 69,
      "time": 3,
      "duration": 0.25,
      "velocity": 0.79,
      "hand": "right"
    },
    {
      "midi": 61,
      "time": 3.25,
      "duration": 0.25,
      "velocity": 0.79,
      "hand": "right"
    },
    {
      "midi": 38,
      "time": 3.5,
      "duration": 0.5,
      "velocity": 0.79,
      "hand": "left"
    },
    {
      "midi": 57,
      "time": 3.5,
      "duration": 0.5,
      "velocity": 0.79,
      "hand": "left"
    },
    {
      "midi": 61,
      "time": 3.5,
      "duration": 0.5,
      "velocity": 0.79,
      "hand": "right"
    },
    {
      "midi": 65,
      "time": 3.5,
      "duration": 0.5,
      "velocity": 0.79,
      "hand": "right"
    },
    {
      "midi": 38,
      "time": 4,
      "duration": 1.5,
      "velocity": 0.79,
      "hand": "left"
    },
    {
      "midi": 50,
      "time": 4.125,
      "duration": 1.5,
      "velocity": 0.79,
      "hand": "left"
    },
    {
      "midi": 57,
      "time": 4.125,
      "duration": 1.375,
      "velocity": 0.79,
      "hand": "left"
    },
    {
      "midi": 57,
      "time": 4.25,
      "duration": 0.25,
      "velocity": 0.79,
      "hand": "left"
    },
    {
      "midi": 62,
      "time": 4.25,
      "duration": 1.375,
      "velocity": 0.79,
      "hand": "right"
    },
    {
      "midi": 66,
      "time": 4.25,
      "duration": 1.25,
      "velocity": 0.79,
      "hand": "right"
    },
    {
      "midi": 69,
      "time": 4.5,
      "duration": 0.25,
      "velocity": 0.79,
      "hand": "right"
    },
    {
      "midi": 69,
      "time": 4.75,
      "duration": 0.25,
      "velocity": 0.79,
      "hand": "right"
    },
    {
      "midi": 69,
      "time": 5,
      "duration": 0.25,
      "velocity": 0.79,
      "hand": "right"
    },
    {
      "midi": 61,
      "time": 5.25,
      "duration": 0.25,
      "velocity": 0.79,
      "hand": "right"
    },
    {
      "midi": 38,
      "time": 5.5,
      "duration": 0.5,
      "velocity": 0.79,
      "hand": "left"
    },
    {
      "midi": 57,
      "time": 5.5,
      "duration": 0.5,
      "velocity": 0.79,
      "hand": "left"
    },
    {
      "midi": 62,
      "time": 5.5,
      "duration": 0.5,
      "velocity": 0.79,
      "hand": "right"
    },
    {
      "midi": 66,
      "time": 5.5,
      "duration": 0.5,
      "velocity": 0.79,
      "hand": "right"
    },
    {
      "midi": 38,
      "time": 6,
      "duration": 1.5,
      "velocity": 0.79,
      "hand": "left"
    },
    {
      "midi": 50,
      "time": 6.125,
      "duration": 1.5,
      "velocity": 0.79,
      "hand": "left"
    },
    {
      "midi": 61,
      "time": 6.125,
      "duration": 1.375,
      "velocity": 0.79,
      "hand": "right"
    },
    {
      "midi": 57,
      "time": 6.25,
      "duration": 0.25,
      "velocity": 0.79,
      "hand": "left"
    },
    {
      "midi": 65,
      "time": 6.25,
      "duration": 1.375,
      "velocity": 0.79,
      "hand": "right"
    },
    {
      "midi": 69,
      "time": 6.5,
      "duration": 0.25,
      "velocity": 0.79,
      "hand": "right"
    },
    {
      "midi": 69,
      "time": 6.75,
      "duration": 0.25,
      "velocity": 0.79,
      "hand": "right"
    },
    {
      "midi": 69,
      "time": 7,
      "duration": 0.25,
      "velocity": 0.79,
      "hand": "right"
    },
    {
      "midi": 61,
      "time": 7.25,
      "duration": 0.25,
      "velocity": 0.79,
      "hand": "right"
    },
    {
      "midi": 38,
      "time": 7.5,
      "duration": 0.5,
      "velocity": 0.79,
      "hand": "left"
    },
    {
      "midi": 55,
      "time": 7.5,
      "duration": 0.5,
      "velocity": 0.79,
      "hand": "left"
    },
    {
      "midi": 61,
      "time": 7.5,
      "duration": 0.5,
      "velocity": 0.79,
      "hand": "right"
    },
    {
      "midi": 64,
      "time": 7.5,
      "duration": 0.5,
      "velocity": 0.79,
      "hand": "right"
    },
    {
      "midi": 38,
      "time": 8,
      "duration": 1.5,
      "velocity": 0.79,
      "hand": "left"
    },
    {
      "midi": 50,
      "time": 8.125,
      "duration": 1.5,
      "velocity": 0.79,
      "hand": "left"
    },
    {
      "midi": 54,
      "time": 8.125,
      "duration": 1.375,
      "velocity": 0.79,
      "hand": "left"
    },
    {
      "midi": 45,
      "time": 8.25,
      "duration": 0.25,
      "velocity": 0.79,
      "hand": "left"
    },
    {
      "midi": 57,
      "time": 8.25,
      "duration": 1.375,
      "velocity": 0.79,
      "hand": "left"
    },
    {
      "midi": 62,
      "time": 8.25,
      "duration": 1.25,
      "velocity": 0.79,
      "hand": "right"
    },
    {
      "midi": 57,
      "time": 8.5,
      "duration": 0.25,
      "velocity": 0.79,
      "hand": "left"
    },
    {
      "midi": 57,
      "time": 8.75,
      "duration": 0.25,
      "velocity": 0.79,
      "hand": "left"
    },
    {
      "midi": 57,
      "time": 9,
      "duration": 1,
      "velocity": 0.79,
      "hand": "left"
    },
    {
      "midi": 38,
      "time": 10,
      "duration": 1.5,
      "velocity": 0.79,
      "hand": "left"
    },
    {
      "midi": 50,
      "time": 10.125,
      "duration": 1.5,
      "velocity": 0.79,
      "hand": "left"
    },
    {
      "midi": 57,
      "time": 10.125,
      "duration": 1.375,
      "velocity": 0.79,
      "hand": "left"
    },
    {
      "midi": 57,
      "time": 10.25,
      "duration": 0.25,
      "velocity": 0.79,
      "hand": "left"
    },
    {
      "midi": 62,
      "time": 10.25,
      "duration": 1.375,
      "velocity": 0.79,
      "hand": "right"
    },
    {
      "midi": 66,
      "time": 10.25,
      "duration": 1.25,
      "velocity": 0.79,
      "hand": "right"
    },
    {
      "midi": 69,
      "time": 10.5,
      "duration": 0.25,
      "velocity": 0.79,
      "hand": "right"
    },
    {
      "midi": 69,
      "time": 10.75,
      "duration": 0.25,
      "velocity": 0.79,
      "hand": "right"
    },
    {
      "midi": 69,
      "time": 11,
      "duration": 0.25,
      "velocity": 0.79,
      "hand": "right"
    },
    {
      "midi": 61,
      "time": 11.25,
      "duration": 0.25,
      "velocity": 0.79,
      "hand": "right"
    },
    {
      "midi": 38,
      "time": 11.5,
      "duration": 0.5,
      "velocity": 0.79,
      "hand": "left"
    },
    {
      "midi": 57,
      "time": 11.5,
      "duration": 0.5,
      "velocity": 0.79,
      "hand": "left"
    },
    {
      "midi": 62,
      "time": 11.5,
      "duration": 0.5,
      "velocity": 0.79,
      "hand": "right"
    },
    {
      "midi": 66,
      "time": 11.5,
      "duration": 0.5,
      "velocity": 0.79,
      "hand": "right"
    },
    {
      "midi": 38,
      "time": 12,
      "duration": 1.5,
      "velocity": 0.79,
      "hand": "left"
    },
    {
      "midi": 50,
      "time": 12.125,
      "duration": 1.5,
      "velocity": 0.79,
      "hand": "left"
    },
    {
      "midi": 61,
      "time": 12.125,
      "duration": 1.375,
      "velocity": 0.79,
      "hand": "right"
    },
    {
      "midi": 57,
      "time": 12.25,
      "duration": 0.25,
      "velocity": 0.79,
      "hand": "left"
    },
    {
      "midi": 65,
      "time": 12.25,
      "duration": 1.375,
      "velocity": 0.79,
      "hand": "right"
    },
    {
      "midi": 69,
      "time": 12.5,
      "duration": 0.25,
      "velocity": 0.79,
      "hand": "right"
    },
    {
      "midi": 69,
      "time": 12.75,
      "duration": 0.25,
      "velocity": 0.79,
      "hand": "right"
    },
    {
      "midi": 69,
      "time": 13,
      "duration": 0.25,
      "velocity": 0.79,
      "hand": "right"
    },
    {
      "midi": 61,
      "time": 13.25,
      "duration": 0.25,
      "velocity": 0.79,
      "hand": "right"
    },
    {
      "midi": 38,
      "time": 13.5,
      "duration": 0.5,
      "velocity": 0.79,
      "hand": "left"
    },
    {
      "midi": 57,
      "time": 13.5,
      "duration": 0.5,
      "velocity": 0.79,
      "hand": "left"
    },
    {
      "midi": 61,
      "time": 13.5,
      "duration": 0.5,
      "velocity": 0.79,
      "hand": "right"
    },
    {
      "midi": 65,
      "time": 13.5,
      "duration": 0.5,
      "velocity": 0.79,
      "hand": "right"
    },
    {
      "midi": 38,
      "time": 14,
      "duration": 1.5,
      "velocity": 0.79,
      "hand": "left"
    },
    {
      "midi": 50,
      "time": 14.125,
      "duration": 1.5,
      "velocity": 0.79,
      "hand": "left"
    },
    {
      "midi": 57,
      "time": 14.125,
      "duration": 1.375,
      "velocity": 0.79,
      "hand": "left"
    },
    {
      "midi": 57,
      "time": 14.25,
      "duration": 0.25,
      "velocity": 0.79,
      "hand": "left"
    },
    {
      "midi": 62,
      "time": 14.25,
      "duration": 1.375,
      "velocity": 0.79,
      "hand": "right"
    },
    {
      "midi": 66,
      "time": 14.25,
      "duration": 1.25,
      "velocity": 0.79,
      "hand": "right"
    },
    {
      "midi": 69,
      "time": 14.5,
      "duration": 0.25,
      "velocity": 0.79,
      "hand": "right"
    },
    {
      "midi": 69,
      "time": 14.75,
      "duration": 0.25,
      "velocity": 0.79,
      "hand": "right"
    },
    {
      "midi": 69,
      "time": 15,
      "duration": 0.25,
      "velocity": 0.79,
      "hand": "right"
    },
    {
      "midi": 61,
      "time": 15.25,
      "duration": 0.25,
      "velocity": 0.79,
      "hand": "right"
    },
    {
      "midi": 38,
      "time": 15.5,
      "duration": 0.5,
      "velocity": 0.79,
      "hand": "left"
    },
    {
      "midi": 57,
      "time": 15.5,
      "duration": 0.5,
      "velocity": 0.79,
      "hand": "left"
    },
    {
      "midi": 62,
      "time": 15.5,
      "duration": 0.5,
      "velocity": 0.79,
      "hand": "right"
    },
    {
      "midi": 66,
      "time": 15.5,
      "duration": 0.5,
      "velocity": 0.79,
      "hand": "right"
    },
    {
      "midi": 38,
      "time": 16,
      "duration": 1.5,
      "velocity": 0.79,
      "hand": "left"
    },
    {
      "midi": 50,
      "time": 16.125,
      "duration": 1.5,
      "velocity": 0.79,
      "hand": "left"
    },
    {
      "midi": 61,
      "time": 16.125,
      "duration": 1.375,
      "velocity": 0.79,
      "hand": "right"
    },
    {
      "midi": 57,
      "time": 16.25,
      "duration": 0.25,
      "velocity": 0.79,
      "hand": "left"
    },
    {
      "midi": 65,
      "time": 16.25,
      "duration": 1.375,
      "velocity": 0.79,
      "hand": "right"
    },
    {
      "midi": 69,
      "time": 16.5,
      "duration": 0.25,
      "velocity": 0.79,
      "hand": "right"
    },
    {
      "midi": 69,
      "time": 16.75,
      "duration": 0.25,
      "velocity": 0.79,
      "hand": "right"
    },
    {
      "midi": 69,
      "time": 17,
      "duration": 0.25,
      "velocity": 0.79,
      "hand": "right"
    },
    {
      "midi": 61,
      "time": 17.25,
      "duration": 0.25,
      "velocity": 0.79,
      "hand": "right"
    },
    {
      "midi": 38,
      "time": 17.5,
      "duration": 0.5,
      "velocity": 0.79,
      "hand": "left"
    },
    {
      "midi": 55,
      "time": 17.5,
      "duration": 0.5,
      "velocity": 0.79,
      "hand": "left"
    },
    {
      "midi": 61,
      "time": 17.5,
      "duration": 0.5,
      "velocity": 0.79,
      "hand": "right"
    },
    {
      "midi": 64,
      "time": 17.5,
      "duration": 0.5,
      "velocity": 0.79,
      "hand": "right"
    },
    {
      "midi": 38,
      "time": 18,
      "duration": 1.5,
      "velocity": 0.79,
      "hand": "left"
    },
    {
      "midi": 50,
      "time": 18.125,
      "duration": 1.5,
      "velocity": 0.79,
      "hand": "left"
    },
    {
      "midi": 54,
      "time": 18.125,
      "duration": 1.375,
      "velocity": 0.79,
      "hand": "left"
    },
    {
      "midi": 45,
      "time": 18.25,
      "duration": 0.25,
      "velocity": 0.79,
      "hand": "left"
    },
    {
      "midi": 57,
      "time": 18.25,
      "duration": 1.375,
      "velocity": 0.79,
      "hand": "left"
    },
    {
      "midi": 62,
      "time": 18.25,
      "duration": 1.25,
      "velocity": 0.79,
      "hand": "right"
    },
    {
      "midi": 57,
      "time": 18.5,
      "duration": 0.25,
      "velocity": 0.79,
      "hand": "left"
    },
    {
      "midi": 57,
      "time": 18.75,
      "duration": 0.25,
      "velocity": 0.79,
      "hand": "left"
    },
    {
      "midi": 57,
      "time": 19,
      "duration": 1,
      "velocity": 0.79,
      "hand": "left"
    },
    {
      "midi": 38,
      "time": 20,
      "duration": 1.5,
      "velocity": 0.79,
      "hand": "left"
    },
    {
      "midi": 62,
      "time": 20,
      "duration": 0.25,
      "velocity": 0.79,
      "hand": "right"
    },
    {
      "midi": 54,
      "time": 20.125,
      "duration": 1.5,
      "velocity": 0.79,
      "hand": "left"
    },
    {
      "midi": 57,
      "time": 20.125,
      "duration": 1.375,
      "velocity": 0.79,
      "hand": "left"
    },
    {
      "midi": 62,
      "time": 20.25,
      "duration": 0.5,
      "velocity": 0.79,
      "hand": "right"
    },
    {
      "midi": 66,
      "time": 20.75,
      "duration": 0.25,
      "velocity": 0.79,
      "hand": "right"
    },
    {
      "midi": 69,
      "time": 21,
      "duration": 0.25,
      "velocity": 0.79,
      "hand": "right"
    },
    {
      "midi": 66,
      "time": 21.25,
      "duration": 0.5,
      "velocity": 0.79,
      "hand": "right"
    },
    {
      "midi": 38,
      "time": 21.5,
      "duration": 0.5,
      "velocity": 0.79,
      "hand": "left"
    },
    {
      "midi": 54,
      "time": 21.5,
      "duration": 0.5,
      "velocity": 0.79,
      "hand": "left"
    },
    {
      "midi": 57,
      "time": 21.5,
      "duration": 0.5,
      "velocity": 0.79,
      "hand": "left"
    },
    {
      "midi": 62,
      "time": 21.75,
      "duration": 0.25,
      "velocity": 0.79,
      "hand": "right"
    },
    {
      "midi": 38,
      "time": 22,
      "duration": 1.5,
      "velocity": 0.79,
      "hand": "left"
    },
    {
      "midi": 50,
      "time": 22.125,
      "duration": 1.5,
      "velocity": 0.79,
      "hand": "left"
    },
    {
      "midi": 55,
      "time": 22.125,
      "duration": 1.375,
      "velocity": 0.79,
      "hand": "left"
    },
    {
      "midi": 57,
      "time": 22.25,
      "duration": 0.25,
      "velocity": 0.79,
      "hand": "left"
    },
    {
      "midi": 64,
      "time": 22.25,
      "duration": 1.375,
      "velocity": 0.79,
      "hand": "right"
    },
    {
      "midi": 69,
      "time": 22.5,
      "duration": 0.25,
      "velocity": 0.79,
      "hand": "right"
    },
    {
      "midi": 69,
      "time": 22.75,
      "duration": 0.25,
      "velocity": 0.79,
      "hand": "right"
    },
    {
      "midi": 69,
      "time": 23,
      "duration": 0.25,
      "velocity": 0.79,
      "hand": "right"
    },
    {
      "midi": 57,
      "time": 23.25,
      "duration": 0.25,
      "velocity": 0.79,
      "hand": "left"
    },
    {
      "midi": 38,
      "time": 23.5,
      "duration": 0.5,
      "velocity": 0.79,
      "hand": "left"
    },
    {
      "midi": 69,
      "time": 23.5,
      "duration": 0.5,
      "velocity": 0.79,
      "hand": "right"
    },
    {
      "midi": 38,
      "time": 24,
      "duration": 1.5,
      "velocity": 0.79,
      "hand": "left"
    },
    {
      "midi": 61,
      "time": 24,
      "duration": 0.25,
      "velocity": 0.79,
      "hand": "right"
    },
    {
      "midi": 55,
      "time": 24.125,
      "duration": 1.5,
      "velocity": 0.79,
      "hand": "left"
    },
    {
      "midi": 57,
      "time": 24.125,
      "duration": 1.375,
      "velocity": 0.79,
      "hand": "left"
    },
    {
      "midi": 61,
      "time": 24.25,
      "duration": 0.5,
      "velocity": 0.79,
      "hand": "right"
    },
    {
      "midi": 64,
      "time": 24.75,
      "duration": 0.25,
      "velocity": 0.79,
      "hand": "right"
    },
    {
      "midi": 67,
      "time": 25,
      "duration": 0.25,
      "velocity": 0.79,
      "hand": "right"
    },
    {
      "midi": 64,
      "time": 25.25,
      "duration": 0.5,
      "velocity": 0.79,
      "hand": "right"
    },
    {
      "midi": 38,
      "time": 25.5,
      "duration": 0.5,
      "velocity": 0.79,
      "hand": "left"
    },
    {
      "midi": 55,
      "time": 25.5,
      "duration": 0.5,
      "velocity": 0.79,
      "hand": "left"
    },
    {
      "midi": 57,
      "time": 25.5,
      "duration": 0.5,
      "velocity": 0.79,
      "hand": "left"
    },
    {
      "midi": 61,
      "time": 25.75,
      "duration": 0.25,
      "velocity": 0.79,
      "hand": "right"
    },
    {
      "midi": 38,
      "time": 26,
      "duration": 1,
      "velocity": 0.79,
      "hand": "left"
    },
    {
      "midi": 57,
      "time": 26.25,
      "duration": 0.25,
      "velocity": 0.79,
      "hand": "left"
    },
    {
      "midi": 69,
      "time": 26.5,
      "duration": 0.25,
      "velocity": 0.79,
      "hand": "right"
    },
    {
      "midi": 69,
      "time": 26.75,
      "duration": 0.25,
      "velocity": 0.79,
      "hand": "right"
    },
    {
      "midi": 69,
      "time": 27,
      "duration": 0.25,
      "velocity": 0.79,
      "hand": "right"
    },
    {
      "midi": 57,
      "time": 27.25,
      "duration": 0.25,
      "velocity": 0.79,
      "hand": "left"
    },
    {
      "midi": 69,
      "time": 27.5,
      "duration": 0.5,
      "velocity": 0.79,
      "hand": "right"
    },
    {
      "midi": 38,
      "time": 28,
      "duration": 1.5,
      "velocity": 0.79,
      "hand": "left"
    },
    {
      "midi": 62,
      "time": 28,
      "duration": 0.25,
      "velocity": 0.79,
      "hand": "right"
    },
    {
      "midi": 54,
      "time": 28.125,
      "duration": 1.5,
      "velocity": 0.79,
      "hand": "left"
    },
    {
      "midi": 57,
      "time": 28.125,
      "duration": 1.375,
      "velocity": 0.79,
      "hand": "left"
    },
    {
      "midi": 62,
      "time": 28.25,
      "duration": 0.5,
      "velocity": 0.79,
      "hand": "right"
    },
    {
      "midi": 66,
      "time": 28.75,
      "duration": 0.25,
      "velocity": 0.79,
      "hand": "right"
    },
    {
      "midi": 69,
      "time": 29,
      "duration": 0.25,
      "velocity": 0.79,
      "hand": "right"
    },
    {
      "midi": 66,
      "time": 29.25,
      "duration": 0.5,
      "velocity": 0.79,
      "hand": "right"
    },
    {
      "midi": 38,
      "time": 29.5,
      "duration": 0.5,
      "velocity": 0.79,
      "hand": "left"
    },
    {
      "midi": 54,
      "time": 29.5,
      "duration": 0.5,
      "velocity": 0.79,
      "hand": "left"
    },
    {
      "midi": 57,
      "time": 29.5,
      "duration": 0.5,
      "velocity": 0.79,
      "hand": "left"
    },
    {
      "midi": 62,
      "time": 29.75,
      "duration": 0.25,
      "velocity": 0.79,
      "hand": "right"
    },
    {
      "midi": 38,
      "time": 30,
      "duration": 1.5,
      "velocity": 0.79,
      "hand": "left"
    },
    {
      "midi": 50,
      "time": 30.125,
      "duration": 1.5,
      "velocity": 0.79,
      "hand": "left"
    },
    {
      "midi": 55,
      "time": 30.125,
      "duration": 1.375,
      "velocity": 0.79,
      "hand": "left"
    },
    {
      "midi": 57,
      "time": 30.25,
      "duration": 0.25,
      "velocity": 0.79,
      "hand": "left"
    },
    {
      "midi": 64,
      "time": 30.25,
      "duration": 1.375,
      "velocity": 0.79,
      "hand": "right"
    },
    {
      "midi": 69,
      "time": 30.5,
      "duration": 0.25,
      "velocity": 0.79,
      "hand": "right"
    },
    {
      "midi": 69,
      "time": 30.75,
      "duration": 0.25,
      "velocity": 0.79,
      "hand": "right"
    },
    {
      "midi": 69,
      "time": 31,
      "duration": 0.25,
      "velocity": 0.79,
      "hand": "right"
    },
    {
      "midi": 57,
      "time": 31.25,
      "duration": 0.25,
      "velocity": 0.79,
      "hand": "left"
    },
    {
      "midi": 38,
      "time": 31.5,
      "duration": 0.5,
      "velocity": 0.79,
      "hand": "left"
    },
    {
      "midi": 69,
      "time": 31.5,
      "duration": 0.5,
      "velocity": 0.79,
      "hand": "right"
    },
    {
      "midi": 38,
      "time": 32,
      "duration": 1.5,
      "velocity": 0.79,
      "hand": "left"
    },
    {
      "midi": 61,
      "time": 32,
      "duration": 0.25,
      "velocity": 0.79,
      "hand": "right"
    },
    {
      "midi": 55,
      "time": 32.125,
      "duration": 1.5,
      "velocity": 0.79,
      "hand": "left"
    },
    {
      "midi": 57,
      "time": 32.125,
      "duration": 1.375,
      "velocity": 0.79,
      "hand": "left"
    },
    {
      "midi": 61,
      "time": 32.25,
      "duration": 0.5,
      "velocity": 0.79,
      "hand": "right"
    },
    {
      "midi": 64,
      "time": 32.75,
      "duration": 0.25,
      "velocity": 0.79,
      "hand": "right"
    },
    {
      "midi": 67,
      "time": 33,
      "duration": 0.25,
      "velocity": 0.79,
      "hand": "right"
    },
    {
      "midi": 64,
      "time": 33.25,
      "duration": 0.5,
      "velocity": 0.79,
      "hand": "right"
    },
    {
      "midi": 38,
      "time": 33.5,
      "duration": 0.5,
      "velocity": 0.79,
      "hand": "left"
    },
    {
      "midi": 55,
      "time": 33.5,
      "duration": 0.5,
      "velocity": 0.79,
      "hand": "left"
    },
    {
      "midi": 57,
      "time": 33.5,
      "duration": 0.5,
      "velocity": 0.79,
      "hand": "left"
    },
    {
      "midi": 61,
      "time": 33.75,
      "duration": 0.25,
      "velocity": 0.79,
      "hand": "right"
    },
    {
      "midi": 38,
      "time": 34,
      "duration": 1,
      "velocity": 0.79,
      "hand": "left"
    },
    {
      "midi": 50,
      "time": 34.125,
      "duration": 1,
      "velocity": 0.79,
      "hand": "left"
    },
    {
      "midi": 57,
      "time": 34.125,
      "duration": 0.875,
      "velocity": 0.79,
      "hand": "left"
    },
    {
      "midi": 57,
      "time": 34.25,
      "duration": 0.25,
      "velocity": 0.79,
      "hand": "left"
    },
    {
      "midi": 62,
      "time": 34.25,
      "duration": 0.875,
      "velocity": 0.79,
      "hand": "right"
    },
    {
      "midi": 69,
      "time": 34.5,
      "duration": 0.25,
      "velocity": 0.79,
      "hand": "right"
    },
    {
      "midi": 69,
      "time": 34.75,
      "duration": 0.25,
      "velocity": 0.79,
      "hand": "right"
    },
    {
      "midi": 45,
      "time": 35,
      "duration": 1,
      "velocity": 0.79,
      "hand": "left"
    },
    {
      "midi": 69,
      "time": 35,
      "duration": 0.25,
      "velocity": 0.79,
      "hand": "right"
    },
    {
      "midi": 59,
      "time": 35.25,
      "duration": 0.25,
      "velocity": 0.79,
      "hand": "left"
    },
    {
      "midi": 69,
      "time": 35.5,
      "duration": 0.5,
      "velocity": 0.79,
      "hand": "right"
    },
    {
      "midi": 38,
      "time": 36,
      "duration": 1.5,
      "velocity": 0.79,
      "hand": "left"
    },
    {
      "midi": 54,
      "time": 36,
      "duration": 0.5,
      "velocity": 0.79,
      "hand": "left"
    },
    {
      "midi": 57,
      "time": 36,
      "duration": 0.5,
      "velocity": 0.79,
      "hand": "left"
    },
    {
      "midi": 62,
      "time": 36,
      "duration": 0.5,
      "velocity": 0.79,
      "hand": "right"
    },
    {
      "midi": 57,
      "time": 36.5,
      "duration": 0.5,
      "velocity": 0.79,
      "hand": "left"
    },
    {
      "midi": 62,
      "time": 36.5,
      "duration": 0.5,
      "velocity": 0.79,
      "hand": "right"
    },
    {
      "midi": 66,
      "time": 36.5,
      "duration": 0.5,
      "velocity": 0.79,
      "hand": "right"
    },
    {
      "midi": 54,
      "time": 37,
      "duration": 0.5,
      "velocity": 0.79,
      "hand": "left"
    },
    {
      "midi": 57,
      "time": 37,
      "duration": 0.5,
      "velocity": 0.79,
      "hand": "left"
    },
    {
      "midi": 62,
      "time": 37,
      "duration": 0.5,
      "velocity": 0.79,
      "hand": "right"
    },
    {
      "midi": 38,
      "time": 37.5,
      "duration": 0.5,
      "velocity": 0.79,
      "hand": "left"
    },
    {
      "midi": 57,
      "time": 37.5,
      "duration": 0.5,
      "velocity": 0.79,
      "hand": "left"
    },
    {
      "midi": 62,
      "time": 37.5,
      "duration": 0.5,
      "velocity": 0.79,
      "hand": "right"
    },
    {
      "midi": 66,
      "time": 37.5,
      "duration": 0.5,
      "velocity": 0.79,
      "hand": "right"
    },
    {
      "midi": 38,
      "time": 38,
      "duration": 1.5,
      "velocity": 0.79,
      "hand": "left"
    },
    {
      "midi": 59,
      "time": 38,
      "duration": 0.25,
      "velocity": 0.79,
      "hand": "left"
    },
    {
      "midi": 64,
      "time": 38,
      "duration": 0.25,
      "velocity": 0.79,
      "hand": "right"
    },
    {
      "midi": 64,
      "time": 38.25,
      "duration": 0.5,
      "velocity": 0.79,
      "hand": "right"
    },
    {
      "midi": 67,
      "time": 38.25,
      "duration": 0.5,
      "velocity": 0.79,
      "hand": "right"
    },
    {
      "midi": 60,
      "time": 38.75,
      "duration": 0.25,
      "velocity": 0.79,
      "hand": "right"
    },
    {
      "midi": 64,
      "time": 38.75,
      "duration": 0.25,
      "velocity": 0.79,
      "hand": "right"
    },
    {
      "midi": 67,
      "time": 38.75,
      "duration": 0.25,
      "velocity": 0.79,
      "hand": "right"
    },
    {
      "midi": 61,
      "time": 39,
      "duration": 1,
      "velocity": 0.79,
      "hand": "right"
    },
    {
      "midi": 64,
      "time": 39.125,
      "duration": 1,
      "velocity": 0.79,
      "hand": "right"
    },
    {
      "midi": 67,
      "time": 39.125,
      "duration": 0.875,
      "velocity": 0.79,
      "hand": "right"
    },
    {
      "midi": 38,
      "time": 39.5,
      "duration": 0.5,
      "velocity": 0.79,
      "hand": "left"
    },
    {
      "midi": 45,
      "time": 40,
      "duration": 1.5,
      "velocity": 0.79,
      "hand": "left"
    },
    {
      "midi": 57,
      "time": 40,
      "duration": 0.25,
      "velocity": 0.79,
      "hand": "left"
    },
    {
      "midi": 61,
      "time": 40,
      "duration": 0.25,
      "velocity": 0.79,
      "hand": "right"
    },
    {
      "midi": 52,
      "time": 40.125,
      "duration": 1.5,
      "velocity": 0.79,
      "hand": "left"
    },
    {
      "midi": 57,
      "time": 40.125,
      "duration": 1.375,
      "velocity": 0.79,
      "hand": "left"
    },
    {
      "midi": 57,
      "time": 40.25,
      "duration": 0.5,
      "velocity": 0.79,
      "hand": "left"
    },
    {
      "midi": 61,
      "time": 40.25,
      "duration": 0.5,
      "velocity": 0.79,
      "hand": "right"
    },
    {
      "midi": 57,
      "time": 40.75,
      "duration": 0.25,
      "velocity": 0.79,
      "hand": "left"
    },
    {
      "midi": 61,
      "time": 40.75,
      "duration": 0.25,
      "velocity": 0.79,
      "hand": "right"
    },
    {
      "midi": 61,
      "time": 41,
      "duration": 0.25,
      "velocity": 0.79,
      "hand": "right"
    },
    {
      "midi": 64,
      "time": 41,
      "duration": 0.25,
      "velocity": 0.79,
      "hand": "right"
    },
    {
      "midi": 59,
      "time": 41.25,
      "duration": 0.5,
      "velocity": 0.79,
      "hand": "left"
    },
    {
      "midi": 62,
      "time": 41.25,
      "duration": 0.5,
      "velocity": 0.79,
      "hand": "right"
    },
    {
      "midi": 45,
      "time": 41.5,
      "duration": 0.5,
      "velocity": 0.79,
      "hand": "left"
    },
    {
      "midi": 52,
      "time": 41.5,
      "duration": 0.5,
      "velocity": 0.79,
      "hand": "left"
    },
    {
      "midi": 57,
      "time": 41.75,
      "duration": 0.25,
      "velocity": 0.79,
      "hand": "left"
    },
    {
      "midi": 61,
      "time": 41.75,
      "duration": 0.25,
      "velocity": 0.79,
      "hand": "right"
    },
    {
      "midi": 38,
      "time": 42,
      "duration": 1,
      "velocity": 0.79,
      "hand": "left"
    },
    {
      "midi": 54,
      "time": 42,
      "duration": 0.25,
      "velocity": 0.79,
      "hand": "left"
    },
    {
      "midi": 59,
      "time": 42,
      "duration": 0.25,
      "velocity": 0.79,
      "hand": "left"
    },
    {
      "midi": 62,
      "time": 42,
      "duration": 0.25,
      "velocity": 0.79,
      "hand": "right"
    },
    {
      "midi": 59,
      "time": 42.25,
      "duration": 0.5,
      "velocity": 0.79,
      "hand": "left"
    },
    {
      "midi": 62,
      "time": 42.25,
      "duration": 0.5,
      "velocity": 0.79,
      "hand": "right"
    },
    {
      "midi": 66,
      "time": 42.25,
      "duration": 0.5,
      "velocity": 0.79,
      "hand": "right"
    },
    {
      "midi": 57,
      "time": 42.75,
      "duration": 0.25,
      "velocity": 0.79,
      "hand": "left"
    },
    {
      "midi": 62,
      "time": 42.75,
      "duration": 0.25,
      "velocity": 0.79,
      "hand": "right"
    },
    {
      "midi": 66,
      "time": 42.75,
      "duration": 0.25,
      "velocity": 0.79,
      "hand": "right"
    },
    {
      "midi": 38,
      "time": 43,
      "duration": 1,
      "velocity": 0.79,
      "hand": "left"
    },
    {
      "midi": 57,
      "time": 43,
      "duration": 1,
      "velocity": 0.79,
      "hand": "left"
    },
    {
      "midi": 62,
      "time": 43.125,
      "duration": 1,
      "velocity": 0.79,
      "hand": "right"
    },
    {
      "midi": 66,
      "time": 43.125,
      "duration": 0.875,
      "velocity": 0.79,
      "hand": "right"
    },
    {
      "midi": 38,
      "time": 44,
      "duration": 1.5,
      "velocity": 0.79,
      "hand": "left"
    },
    {
      "midi": 54,
      "time": 44,
      "duration": 0.5,
      "velocity": 0.79,
      "hand": "left"
    },
    {
      "midi": 57,
      "time": 44,
      "duration": 0.5,
      "velocity": 0.79,
      "hand": "left"
    },
    {
      "midi": 62,
      "time": 44,
      "duration": 0.5,
      "velocity": 0.79,
      "hand": "right"
    },
    {
      "midi": 57,
      "time": 44.5,
      "duration": 0.5,
      "velocity": 0.79,
      "hand": "left"
    },
    {
      "midi": 62,
      "time": 44.5,
      "duration": 0.5,
      "velocity": 0.79,
      "hand": "right"
    },
    {
      "midi": 66,
      "time": 44.5,
      "duration": 0.5,
      "velocity": 0.79,
      "hand": "right"
    },
    {
      "midi": 54,
      "time": 45,
      "duration": 0.5,
      "velocity": 0.79,
      "hand": "left"
    },
    {
      "midi": 57,
      "time": 45,
      "duration": 0.5,
      "velocity": 0.79,
      "hand": "left"
    },
    {
      "midi": 62,
      "time": 45,
      "duration": 0.5,
      "velocity": 0.79,
      "hand": "right"
    },
    {
      "midi": 38,
      "time": 45.5,
      "duration": 0.5,
      "velocity": 0.79,
      "hand": "left"
    },
    {
      "midi": 57,
      "time": 45.5,
      "duration": 0.5,
      "velocity": 0.79,
      "hand": "left"
    },
    {
      "midi": 62,
      "time": 45.5,
      "duration": 0.5,
      "velocity": 0.79,
      "hand": "right"
    },
    {
      "midi": 66,
      "time": 45.5,
      "duration": 0.5,
      "velocity": 0.79,
      "hand": "right"
    },
    {
      "midi": 38,
      "time": 46,
      "duration": 1.5,
      "velocity": 0.79,
      "hand": "left"
    },
    {
      "midi": 59,
      "time": 46,
      "duration": 0.25,
      "velocity": 0.79,
      "hand": "left"
    },
    {
      "midi": 64,
      "time": 46,
      "duration": 0.25,
      "velocity": 0.79,
      "hand": "right"
    },
    {
      "midi": 64,
      "time": 46.25,
      "duration": 0.5,
      "velocity": 0.79,
      "hand": "right"
    },
    {
      "midi": 67,
      "time": 46.25,
      "duration": 0.5,
      "velocity": 0.79,
      "hand": "right"
    },
    {
      "midi": 60,
      "time": 46.75,
      "duration": 0.25,
      "velocity": 0.79,
      "hand": "right"
    },
    {
      "midi": 64,
      "time": 46.75,
      "duration": 0.25,
      "velocity": 0.79,
      "hand": "right"
    },
    {
      "midi": 67,
      "time": 46.75,
      "duration": 0.25,
      "velocity": 0.79,
      "hand": "right"
    },
    {
      "midi": 61,
      "time": 47,
      "duration": 1,
      "velocity": 0.79,
      "hand": "right"
    },
    {
      "midi": 64,
      "time": 47.125,
      "duration": 1,
      "velocity": 0.79,
      "hand": "right"
    },
    {
      "midi": 67,
      "time": 47.125,
      "duration": 0.875,
      "velocity": 0.79,
      "hand": "right"
    },
    {
      "midi": 38,
      "time": 47.5,
      "duration": 0.5,
      "velocity": 0.79,
      "hand": "left"
    },
    {
      "midi": 45,
      "time": 48,
      "duration": 1.5,
      "velocity": 0.79,
      "hand": "left"
    },
    {
      "midi": 57,
      "time": 48,
      "duration": 0.25,
      "velocity": 0.79,
      "hand": "left"
    },
    {
      "midi": 61,
      "time": 48,
      "duration": 0.25,
      "velocity": 0.79,
      "hand": "right"
    },
    {
      "midi": 52,
      "time": 48.125,
      "duration": 1.5,
      "velocity": 0.79,
      "hand": "left"
    },
    {
      "midi": 57,
      "time": 48.125,
      "duration": 1.375,
      "velocity": 0.79,
      "hand": "left"
    },
    {
      "midi": 57,
      "time": 48.25,
      "duration": 0.5,
      "velocity": 0.79,
      "hand": "left"
    },
    {
      "midi": 61,
      "time": 48.25,
      "duration": 0.5,
      "velocity": 0.79,
      "hand": "right"
    },
    {
      "midi": 57,
      "time": 48.75,
      "duration": 0.25,
      "velocity": 0.79,
      "hand": "left"
    },
    {
      "midi": 61,
      "time": 48.75,
      "duration": 0.25,
      "velocity": 0.79,
      "hand": "right"
    },
    {
      "midi": 61,
      "time": 49,
      "duration": 0.25,
      "velocity": 0.79,
      "hand": "right"
    },
    {
      "midi": 64,
      "time": 49,
      "duration": 0.25,
      "velocity": 0.79,
      "hand": "right"
    },
    {
      "midi": 59,
      "time": 49.25,
      "duration": 0.5,
      "velocity": 0.79,
      "hand": "left"
    },
    {
      "midi": 62,
      "time": 49.25,
      "duration": 0.5,
      "velocity": 0.79,
      "hand": "right"
    },
    {
      "midi": 45,
      "time": 49.5,
      "duration": 0.5,
      "velocity": 0.79,
      "hand": "left"
    },
    {
      "midi": 52,
      "time": 49.5,
      "duration": 0.5,
      "velocity": 0.79,
      "hand": "left"
    },
    {
      "midi": 57,
      "time": 49.75,
      "duration": 0.25,
      "velocity": 0.79,
      "hand": "left"
    },
    {
      "midi": 61,
      "time": 49.75,
      "duration": 0.25,
      "velocity": 0.79,
      "hand": "right"
    },
    {
      "midi": 38,
      "time": 50,
      "duration": 2,
      "velocity": 0.79,
      "hand": "left"
    },
    {
      "midi": 54,
      "time": 50,
      "duration": 0.25,
      "velocity": 0.79,
      "hand": "left"
    },
    {
      "midi": 59,
      "time": 50,
      "duration": 0.25,
      "velocity": 0.79,
      "hand": "left"
    },
    {
      "midi": 62,
      "time": 50,
      "duration": 0.25,
      "velocity": 0.79,
      "hand": "right"
    },
    {
      "midi": 59,
      "time": 50.25,
      "duration": 0.5,
      "velocity": 0.79,
      "hand": "left"
    },
    {
      "midi": 62,
      "time": 50.25,
      "duration": 0.5,
      "velocity": 0.79,
      "hand": "right"
    },
    {
      "midi": 66,
      "time": 50.25,
      "duration": 0.5,
      "velocity": 0.79,
      "hand": "right"
    },
    {
      "midi": 57,
      "time": 50.75,
      "duration": 0.25,
      "velocity": 0.79,
      "hand": "left"
    },
    {
      "midi": 62,
      "time": 50.75,
      "duration": 0.25,
      "velocity": 0.79,
      "hand": "right"
    },
    {
      "midi": 66,
      "time": 50.75,
      "duration": 0.25,
      "velocity": 0.79,
      "hand": "right"
    },
    {
      "midi": 57,
      "time": 51,
      "duration": 1,
      "velocity": 0.79,
      "hand": "left"
    },
    {
      "midi": 62,
      "time": 51.125,
      "duration": 1,
      "velocity": 0.79,
      "hand": "right"
    },
    {
      "midi": 66,
      "time": 51.125,
      "duration": 0.875,
      "velocity": 0.79,
      "hand": "right"
    },
    {
      "midi": 38,
      "time": 52,
      "duration": 1.5,
      "velocity": 0.79,
      "hand": "left"
    },
    {
      "midi": 57,
      "time": 52.25,
      "duration": 0.25,
      "velocity": 0.79,
      "hand": "left"
    },
    {
      "midi": 69,
      "time": 52.5,
      "duration": 0.25,
      "velocity": 0.79,
      "hand": "right"
    },
    {
      "midi": 69,
      "time": 52.75,
      "duration": 0.25,
      "velocity": 0.79,
      "hand": "right"
    },
    {
      "midi": 69,
      "time": 53,
      "duration": 0.25,
      "velocity": 0.79,
      "hand": "right"
    },
    {
      "midi": 57,
      "time": 53.25,
      "duration": 0.25,
      "velocity": 0.79,
      "hand": "left"
    },
    {
      "midi": 38,
      "time": 53.5,
      "duration": 0.5,
      "velocity": 0.79,
      "hand": "left"
    },
    {
      "midi": 57,
      "time": 53.5,
      "duration": 0.5,
      "velocity": 0.79,
      "hand": "left"
    },
    {
      "midi": 62,
      "time": 53.5,
      "duration": 0.5,
      "velocity": 0.79,
      "hand": "right"
    },
    {
      "midi": 66,
      "time": 53.5,
      "duration": 0.5,
      "velocity": 0.79,
      "hand": "right"
    },
    {
      "midi": 38,
      "time": 54,
      "duration": 1.5,
      "velocity": 0.79,
      "hand": "left"
    },
    {
      "midi": 50,
      "time": 54.125,
      "duration": 1.5,
      "velocity": 0.79,
      "hand": "left"
    },
    {
      "midi": 61,
      "time": 54.125,
      "duration": 1.375,
      "velocity": 0.79,
      "hand": "right"
    },
    {
      "midi": 57,
      "time": 54.25,
      "duration": 0.25,
      "velocity": 0.79,
      "hand": "left"
    },
    {
      "midi": 65,
      "time": 54.25,
      "duration": 1.375,
      "velocity": 0.79,
      "hand": "right"
    },
    {
      "midi": 69,
      "time": 54.5,
      "duration": 0.25,
      "velocity": 0.79,
      "hand": "right"
    },
    {
      "midi": 69,
      "time": 54.75,
      "duration": 0.25,
      "velocity": 0.79,
      "hand": "right"
    },
    {
      "midi": 69,
      "time": 55,
      "duration": 0.25,
      "velocity": 0.79,
      "hand": "right"
    },
    {
      "midi": 61,
      "time": 55.25,
      "duration": 0.25,
      "velocity": 0.79,
      "hand": "right"
    },
    {
      "midi": 38,
      "time": 55.5,
      "duration": 0.5,
      "velocity": 0.79,
      "hand": "left"
    },
    {
      "midi": 57,
      "time": 55.5,
      "duration": 0.5,
      "velocity": 0.79,
      "hand": "left"
    },
    {
      "midi": 61,
      "time": 55.5,
      "duration": 0.5,
      "velocity": 0.79,
      "hand": "right"
    },
    {
      "midi": 65,
      "time": 55.5,
      "duration": 0.5,
      "velocity": 0.79,
      "hand": "right"
    },
    {
      "midi": 38,
      "time": 56,
      "duration": 1.5,
      "velocity": 0.79,
      "hand": "left"
    },
    {
      "midi": 50,
      "time": 56.125,
      "duration": 1.5,
      "velocity": 0.79,
      "hand": "left"
    },
    {
      "midi": 57,
      "time": 56.125,
      "duration": 1.375,
      "velocity": 0.79,
      "hand": "left"
    },
    {
      "midi": 57,
      "time": 56.25,
      "duration": 0.25,
      "velocity": 0.79,
      "hand": "left"
    },
    {
      "midi": 62,
      "time": 56.25,
      "duration": 1.375,
      "velocity": 0.79,
      "hand": "right"
    },
    {
      "midi": 66,
      "time": 56.25,
      "duration": 1.25,
      "velocity": 0.79,
      "hand": "right"
    },
    {
      "midi": 69,
      "time": 56.5,
      "duration": 0.25,
      "velocity": 0.79,
      "hand": "right"
    },
    {
      "midi": 69,
      "time": 56.75,
      "duration": 0.25,
      "velocity": 0.79,
      "hand": "right"
    },
    {
      "midi": 69,
      "time": 57,
      "duration": 0.25,
      "velocity": 0.79,
      "hand": "right"
    },
    {
      "midi": 61,
      "time": 57.25,
      "duration": 0.25,
      "velocity": 0.79,
      "hand": "right"
    },
    {
      "midi": 38,
      "time": 57.5,
      "duration": 0.5,
      "velocity": 0.79,
      "hand": "left"
    },
    {
      "midi": 57,
      "time": 57.5,
      "duration": 0.5,
      "velocity": 0.79,
      "hand": "left"
    },
    {
      "midi": 62,
      "time": 57.5,
      "duration": 0.5,
      "velocity": 0.79,
      "hand": "right"
    },
    {
      "midi": 66,
      "time": 57.5,
      "duration": 0.5,
      "velocity": 0.79,
      "hand": "right"
    },
    {
      "midi": 38,
      "time": 58,
      "duration": 1.5,
      "velocity": 0.79,
      "hand": "left"
    },
    {
      "midi": 50,
      "time": 58.125,
      "duration": 1.5,
      "velocity": 0.79,
      "hand": "left"
    },
    {
      "midi": 61,
      "time": 58.125,
      "duration": 1.375,
      "velocity": 0.79,
      "hand": "right"
    },
    {
      "midi": 57,
      "time": 58.25,
      "duration": 0.25,
      "velocity": 0.79,
      "hand": "left"
    },
    {
      "midi": 65,
      "time": 58.25,
      "duration": 1.375,
      "velocity": 0.79,
      "hand": "right"
    },
    {
      "midi": 69,
      "time": 58.5,
      "duration": 0.25,
      "velocity": 0.79,
      "hand": "right"
    },
    {
      "midi": 69,
      "time": 58.75,
      "duration": 0.25,
      "velocity": 0.79,
      "hand": "right"
    },
    {
      "midi": 69,
      "time": 59,
      "duration": 0.25,
      "velocity": 0.79,
      "hand": "right"
    },
    {
      "midi": 61,
      "time": 59.25,
      "duration": 0.25,
      "velocity": 0.79,
      "hand": "right"
    },
    {
      "midi": 38,
      "time": 59.5,
      "duration": 0.5,
      "velocity": 0.79,
      "hand": "left"
    },
    {
      "midi": 55,
      "time": 59.5,
      "duration": 0.5,
      "velocity": 0.79,
      "hand": "left"
    },
    {
      "midi": 61,
      "time": 59.5,
      "duration": 0.5,
      "velocity": 0.79,
      "hand": "right"
    },
    {
      "midi": 64,
      "time": 59.5,
      "duration": 0.5,
      "velocity": 0.79,
      "hand": "right"
    },
    {
      "midi": 38,
      "time": 60,
      "duration": 1.5,
      "velocity": 0.79,
      "hand": "left"
    },
    {
      "midi": 54,
      "time": 60.125,
      "duration": 1.5,
      "velocity": 0.79,
      "hand": "left"
    },
    {
      "midi": 62,
      "time": 60.125,
      "duration": 1.375,
      "velocity": 0.79,
      "hand": "right"
    },
    {
      "midi": 45,
      "time": 60.25,
      "duration": 0.25,
      "velocity": 0.79,
      "hand": "left"
    },
    {
      "midi": 57,
      "time": 60.5,
      "duration": 0.25,
      "velocity": 0.79,
      "hand": "left"
    },
    {
      "midi": 57,
      "time": 60.75,
      "duration": 0.25,
      "velocity": 0.79,
      "hand": "left"
    },
    {
      "midi": 57,
      "time": 61,
      "duration": 1,
      "velocity": 0.79,
      "hand": "left"
    },
    {
      "midi": 38,
      "time": 62,
      "duration": 1,
      "velocity": 0.79,
      "hand": "left"
    },
    {
      "midi": 54,
      "time": 62.125,
      "duration": 1,
      "velocity": 0.79,
      "hand": "left"
    },
    {
      "midi": 62,
      "time": 62.125,
      "duration": 0.875,
      "velocity": 0.79,
      "hand": "right"
    },
    {
      "midi": 45,
      "time": 62.25,
      "duration": 0.25,
      "velocity": 0.79,
      "hand": "left"
    },
    {
      "midi": 57,
      "time": 62.5,
      "duration": 0.25,
      "velocity": 0.79,
      "hand": "left"
    },
    {
      "midi": 57,
      "time": 62.75,
      "duration": 0.25,
      "velocity": 0.79,
      "hand": "left"
    },
    {
      "midi": 57,
      "time": 63,
      "duration": 1,
      "velocity": 0.79,
      "hand": "left"
    },
    {
      "midi": 62,
      "time": 63.125,
      "duration": 1,
      "velocity": 0.79,
      "hand": "right"
    },
    {
      "midi": 66,
      "time": 63.125,
      "duration": 0.875,
      "velocity": 0.79,
      "hand": "right"
    },
    {
      "midi": 69,
      "time": 63.25,
      "duration": 0.25,
      "velocity": 0.79,
      "hand": "right"
    },
    {
      "midi": 78,
      "time": 63.5,
      "duration": 0.25,
      "velocity": 0.79,
      "hand": "right"
    },
    {
      "midi": 78,
      "time": 63.75,
      "duration": 0.25,
      "velocity": 0.79,
      "hand": "right"
    },
    {
      "midi": 38,
      "time": 64,
      "duration": 2,
      "velocity": 0.79,
      "hand": "left"
    },
    {
      "midi": 71,
      "time": 64,
      "duration": 2,
      "velocity": 0.79,
      "hand": "right"
    },
    {
      "midi": 54,
      "time": 64.125,
      "duration": 2,
      "velocity": 0.79,
      "hand": "left"
    },
    {
      "midi": 62,
      "time": 64.125,
      "duration": 1.875,
      "velocity": 0.79,
      "hand": "right"
    }
  ]
}
