{
  "id": "santo-santo-santo",
  "title": "Santo, Santo, Santo",
  "artist": "Reginald Heber",
  "difficulty": "Médio",
  "bpm": 90,
  "duration": 43,
  "category": "Religiosos",
  "isPremium": false,
  "coverUrl": "/images/covers/placeholder.png",
  "notes": [
    {
      "midi": 51,
      "time": 0,
      "duration": 0.667,
      "velocity": 0.56,
      "hand": "left"
    },
    {
      "midi": 55,
      "time": 0,
      "duration": 0.667,
      "velocity": 0.56,
      "hand": "left"
    },
    {
      "midi": 58,
      "time": 0,
      "duration": 0.667,
      "velocity": 0.57,
      "hand": "left"
    },
    {
      "midi": 63,
      "time": 0,
      "duration": 0.667,
      "velocity": 0.57,
      "hand": "right"
    },
    {
      "midi": 51,
      "time": 0.667,
      "duration": 0.667,
      "velocity": 0.57,
      "hand": "left"
    },
    {
      "midi": 55,
      "time": 0.667,
      "duration": 0.667,
      "velocity": 0.57,
      "hand": "left"
    },
    {
      "midi": 58,
      "time": 0.667,
      "duration": 0.667,
      "velocity": 0.57,
      "hand": "left"
    },
    {
      "midi": 63,
      "time": 0.667,
      "duration": 0.667,
      "velocity": 0.57,
      "hand": "right"
    },
    {
      "midi": 48,
      "time": 1.333,
      "duration": 0.667,
      "velocity": 0.54,
      "hand": "left"
    },
    {
      "midi": 51,
      "time": 1.333,
      "duration": 0.667,
      "velocity": 0.54,
      "hand": "left"
    },
    {
      "midi": 63,
      "time": 1.333,
      "duration": 0.667,
      "velocity": 0.66,
      "hand": "right"
    },
    {
      "midi": 67,
      "time": 1.333,
      "duration": 0.667,
      "velocity": 0.66,
      "hand": "right"
    },
    {
      "midi": 48,
      "time": 2,
      "duration": 0.667,
      "velocity": 0.57,
      "hand": "left"
    },
    {
      "midi": 51,
      "time": 2,
      "duration": 0.667,
      "velocity": 0.57,
      "hand": "left"
    },
    {
      "midi": 63,
      "time": 2,
      "duration": 0.667,
      "velocity": 0.6,
      "hand": "right"
    },
    {
      "midi": 67,
      "time": 2,
      "duration": 0.667,
      "velocity": 0.6,
      "hand": "right"
    },
    {
      "midi": 46,
      "time": 2.667,
      "duration": 1.333,
      "velocity": 0.54,
      "hand": "left"
    },
    {
      "midi": 53,
      "time": 2.667,
      "duration": 0.667,
      "velocity": 0.59,
      "hand": "left"
    },
    {
      "midi": 62,
      "time": 2.667,
      "duration": 0.667,
      "velocity": 0.54,
      "hand": "right"
    },
    {
      "midi": 70,
      "time": 2.667,
      "duration": 1.333,
      "velocity": 0.61,
      "hand": "right"
    },
    {
      "midi": 56,
      "time": 3.333,
      "duration": 0.667,
      "velocity": 0.63,
      "hand": "left"
    },
    {
      "midi": 65,
      "time": 3.333,
      "duration": 0.667,
      "velocity": 0.61,
      "hand": "right"
    },
    {
      "midi": 51,
      "time": 4,
      "duration": 1.333,
      "velocity": 0.66,
      "hand": "left"
    },
    {
      "midi": 55,
      "time": 4,
      "duration": 0.667,
      "velocity": 0.6,
      "hand": "left"
    },
    {
      "midi": 63,
      "time": 4,
      "duration": 0.667,
      "velocity": 0.54,
      "hand": "right"
    },
    {
      "midi": 70,
      "time": 4,
      "duration": 1.333,
      "velocity": 0.61,
      "hand": "right"
    },
    {
      "midi": 58,
      "time": 4.667,
      "duration": 0.667,
      "velocity": 0.62,
      "hand": "left"
    },
    {
      "midi": 62,
      "time": 4.667,
      "duration": 0.667,
      "velocity": 0.54,
      "hand": "right"
    },
    {
      "midi": 44,
      "time": 5.333,
      "duration": 1.333,
      "velocity": 0.61,
      "hand": "left"
    },
    {
      "midi": 56,
      "time": 5.333,
      "duration": 0.667,
      "velocity": 0.61,
      "hand": "left"
    },
    {
      "midi": 60,
      "time": 5.333,
      "duration": 0.667,
      "velocity": 0.61,
      "hand": "right"
    },
    {
      "midi": 72,
      "time": 5.333,
      "duration": 1.333,
      "velocity": 0.61,
      "hand": "right"
    },
    {
      "midi": 58,
      "time": 6,
      "duration": 0.667,
      "velocity": 0.61,
      "hand": "left"
    },
    {
      "midi": 62,
      "time": 6,
      "duration": 0.667,
      "velocity": 0.61,
      "hand": "right"
    },
    {
      "midi": 56,
      "time": 6.667,
      "duration": 0.667,
      "velocity": 0.63,
      "hand": "left"
    },
    {
      "midi": 60,
      "time": 6.667,
      "duration": 0.667,
      "velocity": 0.63,
      "hand": "right"
    },
    {
      "midi": 63,
      "time": 6.667,
      "duration": 0.667,
      "velocity": 0.59,
      "hand": "right"
    },
    {
      "midi": 72,
      "time": 6.667,
      "duration": 0.667,
      "velocity": 0.59,
      "hand": "right"
    },
    {
      "midi": 56,
      "time": 7.333,
      "duration": 0.667,
      "velocity": 0.63,
      "hand": "left"
    },
    {
      "midi": 62,
      "time": 7.333,
      "duration": 0.667,
      "velocity": 0.63,
      "hand": "right"
    },
    {
      "midi": 65,
      "time": 7.333,
      "duration": 0.667,
      "velocity": 0.57,
      "hand": "right"
    },
    {
      "midi": 72,
      "time": 7.333,
      "duration": 0.667,
      "velocity": 0.57,
      "hand": "right"
    },
    {
      "midi": 51,
      "time": 8,
      "duration": 1.333,
      "velocity": 0.61,
      "hand": "left"
    },
    {
      "midi": 63,
      "time": 8,
      "duration": 0.667,
      "velocity": 0.62,
      "hand": "right"
    },
    {
      "midi": 67,
      "time": 8,
      "duration": 1.333,
      "velocity": 0.6,
      "hand": "right"
    },
    {
      "midi": 70,
      "time": 8,
      "duration": 1.333,
      "velocity": 0.6,
      "hand": "right"
    },
    {
      "midi": 58,
      "time": 8.667,
      "duration": 0.667,
      "velocity": 0.57,
      "hand": "left"
    },
    {
      "midi": 51,
      "time": 9.333,
      "duration": 1.333,
      "velocity": 0.65,
      "hand": "left"
    },
    {
      "midi": 58,
      "time": 9.333,
      "duration": 1.333,
      "velocity": 0.65,
      "hand": "left"
    },
    {
      "midi": 63,
      "time": 9.333,
      "duration": 1.333,
      "velocity": 0.57,
      "hand": "right"
    },
    {
      "midi": 67,
      "time": 9.333,
      "duration": 1.333,
      "velocity": 0.57,
      "hand": "right"
    },
    {
      "midi": 50,
      "time": 10.667,
      "duration": 0.667,
      "velocity": 0.62,
      "hand": "left"
    },
    {
      "midi": 58,
      "time": 10.667,
      "duration": 0.667,
      "velocity": 0.62,
      "hand": "left"
    },
    {
      "midi": 65,
      "time": 10.667,
      "duration": 0.667,
      "velocity": 0.63,
      "hand": "right"
    },
    {
      "midi": 70,
      "time": 10.667,
      "duration": 1,
      "velocity": 0.66,
      "hand": "right"
    },
    {
      "midi": 50,
      "time": 11.333,
      "duration": 0.667,
      "velocity": 0.57,
      "hand": "left"
    },
    {
      "midi": 58,
      "time": 11.333,
      "duration": 0.667,
      "velocity": 0.57,
      "hand": "left"
    },
    {
      "midi": 65,
      "time": 11.333,
      "duration": 0.667,
      "velocity": 0.61,
      "hand": "right"
    },
    {
      "midi": 70,
      "time": 11.667,
      "duration": 0.333,
      "velocity": 0.6,
      "hand": "right"
    },
    {
      "midi": 51,
      "time": 12,
      "duration": 0.667,
      "velocity": 0.61,
      "hand": "left"
    },
    {
      "midi": 58,
      "time": 12,
      "duration": 0.667,
      "velocity": 0.61,
      "hand": "left"
    },
    {
      "midi": 67,
      "time": 12,
      "duration": 0.667,
      "velocity": 0.63,
      "hand": "right"
    },
    {
      "midi": 70,
      "time": 12,
      "duration": 0.667,
      "velocity": 0.63,
      "hand": "right"
    },
    {
      "midi": 50,
      "time": 12.667,
      "duration": 0.667,
      "velocity": 0.64,
      "hand": "left"
    },
    {
      "midi": 58,
      "time": 12.667,
      "duration": 0.667,
      "velocity": 0.64,
      "hand": "left"
    },
    {
      "midi": 65,
      "time": 12.667,
      "duration": 0.667,
      "velocity": 0.57,
      "hand": "right"
    },
    {
      "midi": 70,
      "time": 12.667,
      "duration": 0.667,
      "velocity": 0.57,
      "hand": "right"
    },
    {
      "midi": 48,
      "time": 13.333,
      "duration": 1.333,
      "velocity": 0.57,
      "hand": "left"
    },
    {
      "midi": 55,
      "time": 13.333,
      "duration": 0.667,
      "velocity": 0.57,
      "hand": "left"
    },
    {
      "midi": 63,
      "time": 13.333,
      "duration": 0.667,
      "velocity": 0.67,
      "hand": "right"
    },
    {
      "midi": 75,
      "time": 13.333,
      "duration": 1.333,
      "velocity": 0.67,
      "hand": "right"
    },
    {
      "midi": 57,
      "time": 14,
      "duration": 0.667,
      "velocity": 0.6,
      "hand": "left"
    },
    {
      "midi": 65,
      "time": 14,
      "duration": 0.667,
      "velocity": 0.61,
      "hand": "right"
    },
    {
      "midi": 50,
      "time": 14.667,
      "duration": 0.667,
      "velocity": 0.64,
      "hand": "left"
    },
    {
      "midi": 58,
      "time": 14.667,
      "duration": 0.667,
      "velocity": 0.64,
      "hand": "left"
    },
    {
      "midi": 65,
      "time": 14.667,
      "duration": 0.667,
      "velocity": 0.53,
      "hand": "right"
    },
    {
      "midi": 74,
      "time": 14.667,
      "duration": 0.667,
      "velocity": 0.53,
      "hand": "right"
    },
    {
      "midi": 51,
      "time": 15.333,
      "duration": 0.667,
      "velocity": 0.57,
      "hand": "left"
    },
    {
      "midi": 58,
      "time": 15.333,
      "duration": 0.667,
      "velocity": 0.57,
      "hand": "left"
    },
    {
      "midi": 67,
      "time": 15.333,
      "duration": 0.667,
      "velocity": 0.53,
      "hand": "right"
    },
    {
      "midi": 70,
      "time": 15.333,
      "duration": 0.667,
      "velocity": 0.53,
      "hand": "right"
    },
    {
      "midi": 53,
      "time": 16,
      "duration": 0.667,
      "velocity": 0.65,
      "hand": "left"
    },
    {
      "midi": 62,
      "time": 16,
      "duration": 0.667,
      "velocity": 0.65,
      "hand": "right"
    },
    {
      "midi": 65,
      "time": 16,
      "duration": 0.667,
      "velocity": 0.5,
      "hand": "right"
    },
    {
      "midi": 53,
      "time": 16.667,
      "duration": 0.667,
      "velocity": 0.59,
      "hand": "left"
    },
    {
      "midi": 58,
      "time": 16.667,
      "duration": 0.667,
      "velocity": 0.59,
      "hand": "left"
    },
    {
      "midi": 62,
      "time": 16.667,
      "duration": 0.667,
      "velocity": 0.65,
      "hand": "right"
    },
    {
      "midi": 70,
      "time": 16.667,
      "duration": 0.667,
      "velocity": 0.65,
      "hand": "right"
    },
    {
      "midi": 53,
      "time": 17.333,
      "duration": 1,
      "velocity": 0.59,
      "hand": "left"
    },
    {
      "midi": 57,
      "time": 17.333,
      "duration": 1,
      "velocity": 0.59,
      "hand": "left"
    },
    {
      "midi": 63,
      "time": 17.333,
      "duration": 1,
      "velocity": 0.69,
      "hand": "right"
    },
    {
      "midi": 72,
      "time": 17.333,
      "duration": 1,
      "velocity": 0.69,
      "hand": "right"
    },
    {
      "midi": 46,
      "time": 18.333,
      "duration": 0.333,
      "velocity": 0.6,
      "hand": "left"
    },
    {
      "midi": 58,
      "time": 18.333,
      "duration": 0.333,
      "velocity": 0.6,
      "hand": "left"
    },
    {
      "midi": 62,
      "time": 18.333,
      "duration": 0.333,
      "velocity": 0.5,
      "hand": "right"
    },
    {
      "midi": 70,
      "time": 18.333,
      "duration": 0.333,
      "velocity": 0.5,
      "hand": "right"
    },
    {
      "midi": 46,
      "time": 18.667,
      "duration": 2.667,
      "velocity": 0.54,
      "hand": "left"
    },
    {
      "midi": 58,
      "time": 18.667,
      "duration": 1.333,
      "velocity": 0.57,
      "hand": "left"
    },
    {
      "midi": 62,
      "time": 18.667,
      "duration": 2.667,
      "velocity": 0.59,
      "hand": "right"
    },
    {
      "midi": 70,
      "time": 18.667,
      "duration": 2.667,
      "velocity": 0.59,
      "hand": "right"
    },
    {
      "midi": 56,
      "time": 20,
      "duration": 1.333,
      "velocity": 0.58,
      "hand": "left"
    },
    {
      "midi": 51,
      "time": 21.333,
      "duration": 0.667,
      "velocity": 0.61,
      "hand": "left"
    },
    {
      "midi": 55,
      "time": 21.333,
      "duration": 0.667,
      "velocity": 0.61,
      "hand": "left"
    },
    {
      "midi": 58,
      "time": 21.333,
      "duration": 0.667,
      "velocity": 0.46,
      "hand": "left"
    },
    {
      "midi": 63,
      "time": 21.333,
      "duration": 0.667,
      "velocity": 0.46,
      "hand": "right"
    },
    {
      "midi": 51,
      "time": 22,
      "duration": 0.667,
      "velocity": 0.6,
      "hand": "left"
    },
    {
      "midi": 55,
      "time": 22,
      "duration": 0.667,
      "velocity": 0.6,
      "hand": "left"
    },
    {
      "midi": 58,
      "time": 22,
      "duration": 0.667,
      "velocity": 0.6,
      "hand": "left"
    },
    {
      "midi": 63,
      "time": 22,
      "duration": 0.667,
      "velocity": 0.6,
      "hand": "right"
    },
    {
      "midi": 48,
      "time": 22.667,
      "duration": 0.667,
      "velocity": 0.57,
      "hand": "left"
    },
    {
      "midi": 51,
      "time": 22.667,
      "duration": 0.667,
      "velocity": 0.57,
      "hand": "left"
    },
    {
      "midi": 63,
      "time": 22.667,
      "duration": 0.667,
      "velocity": 0.64,
      "hand": "right"
    },
    {
      "midi": 67,
      "time": 22.667,
      "duration": 0.667,
      "velocity": 0.64,
      "hand": "right"
    },
    {
      "midi": 48,
      "time": 23.333,
      "duration": 0.667,
      "velocity": 0.57,
      "hand": "left"
    },
    {
      "midi": 51,
      "time": 23.333,
      "duration": 0.667,
      "velocity": 0.57,
      "hand": "left"
    },
    {
      "midi": 63,
      "time": 23.333,
      "duration": 0.667,
      "velocity": 0.59,
      "hand": "right"
    },
    {
      "midi": 67,
      "time": 23.333,
      "duration": 0.667,
      "velocity": 0.59,
      "hand": "right"
    },
    {
      "midi": 46,
      "time": 24,
      "duration": 1.333,
      "velocity": 0.61,
      "hand": "left"
    },
    {
      "midi": 53,
      "time": 24,
      "duration": 0.667,
      "velocity": 0.61,
      "hand": "left"
    },
    {
      "midi": 62,
      "time": 24,
      "duration": 0.667,
      "velocity": 0.63,
      "hand": "right"
    },
    {
      "midi": 70,
      "time": 24,
      "duration": 1.333,
      "velocity": 0.63,
      "hand": "right"
    },
    {
      "midi": 56,
      "time": 24.667,
      "duration": 0.667,
      "velocity": 0.58,
      "hand": "left"
    },
    {
      "midi": 65,
      "time": 24.667,
      "duration": 0.667,
      "velocity": 0.63,
      "hand": "right"
    },
    {
      "midi": 51,
      "time": 25.333,
      "duration": 1.333,
      "velocity": 0.61,
      "hand": "left"
    },
    {
      "midi": 55,
      "time": 25.333,
      "duration": 0.667,
      "velocity": 0.59,
      "hand": "left"
    },
    {
      "midi": 63,
      "time": 25.333,
      "duration": 0.667,
      "velocity": 0.51,
      "hand": "right"
    },
    {
      "midi": 70,
      "time": 25.333,
      "duration": 1.333,
      "velocity": 0.61,
      "hand": "right"
    },
    {
      "midi": 58,
      "time": 26,
      "duration": 0.667,
      "velocity": 0.62,
      "hand": "left"
    },
    {
      "midi": 62,
      "time": 26,
      "duration": 0.667,
      "velocity": 0.53,
      "hand": "right"
    },
    {
      "midi": 44,
      "time": 26.667,
      "duration": 1,
      "velocity": 0.54,
      "hand": "left"
    },
    {
      "midi": 56,
      "time": 26.667,
      "duration": 0.667,
      "velocity": 0.59,
      "hand": "left"
    },
    {
      "midi": 60,
      "time": 26.667,
      "duration": 0.667,
      "velocity": 0.55,
      "hand": "right"
    },
    {
      "midi": 72,
      "time": 26.667,
      "duration": 1,
      "velocity": 0.64,
      "hand": "right"
    },
    {
      "midi": 58,
      "time": 27.333,
      "duration": 0.667,
      "velocity": 0.58,
      "hand": "left"
    },
    {
      "midi": 62,
      "time": 27.333,
      "duration": 0.667,
      "velocity": 0.66,
      "hand": "right"
    },
    {
      "midi": 44,
      "time": 27.667,
      "duration": 0.333,
      "velocity": 0.58,
      "hand": "left"
    },
    {
      "midi": 72,
      "time": 27.667,
      "duration": 0.333,
      "velocity": 0.62,
      "hand": "right"
    },
    {
      "midi": 56,
      "time": 28,
      "duration": 0.667,
      "velocity": 0.65,
      "hand": "left"
    },
    {
      "midi": 60,
      "time": 28,
      "duration": 0.667,
      "velocity": 0.65,
      "hand": "right"
    },
    {
      "midi": 63,
      "time": 28,
      "duration": 0.667,
      "velocity": 0.59,
      "hand": "right"
    },
    {
      "midi": 72,
      "time": 28,
      "duration": 0.667,
      "velocity": 0.59,
      "hand": "right"
    },
    {
      "midi": 56,
      "time": 28.667,
      "duration": 0.667,
      "velocity": 0.65,
      "hand": "left"
    },
    {
      "midi": 62,
      "time": 28.667,
      "duration": 0.667,
      "velocity": 0.65,
      "hand": "right"
    },
    {
      "midi": 65,
      "time": 28.667,
      "duration": 0.667,
      "velocity": 0.61,
      "hand": "right"
    },
    {
      "midi": 72,
      "time": 28.667,
      "duration": 0.667,
      "velocity": 0.61,
      "hand": "right"
    },
    {
      "midi": 51,
      "time": 29.333,
      "duration": 1.333,
      "velocity": 0.54,
      "hand": "left"
    },
    {
      "midi": 63,
      "time": 29.333,
      "duration": 0.667,
      "velocity": 0.62,
      "hand": "right"
    },
    {
      "midi": 67,
      "time": 29.333,
      "duration": 1.333,
      "velocity": 0.58,
      "hand": "right"
    },
    {
      "midi": 70,
      "time": 29.333,
      "duration": 1.333,
      "velocity": 0.58,
      "hand": "right"
    },
    {
      "midi": 58,
      "time": 30,
      "duration": 0.667,
      "velocity": 0.58,
      "hand": "left"
    },
    {
      "midi": 51,
      "time": 30.667,
      "duration": 1.333,
      "velocity": 0.61,
      "hand": "left"
    },
    {
      "midi": 58,
      "time": 30.667,
      "duration": 1.333,
      "velocity": 0.61,
      "hand": "left"
    },
    {
      "midi": 63,
      "time": 30.667,
      "duration": 1.333,
      "velocity": 0.57,
      "hand": "right"
    },
    {
      "midi": 70,
      "time": 30.667,
      "duration": 1.333,
      "velocity": 0.57,
      "hand": "right"
    },
    {
      "midi": 48,
      "time": 32,
      "duration": 1.333,
      "velocity": 0.52,
      "hand": "left"
    },
    {
      "midi": 55,
      "time": 32,
      "duration": 0.667,
      "velocity": 0.54,
      "hand": "left"
    },
    {
      "midi": 63,
      "time": 32,
      "duration": 1.333,
      "velocity": 0.65,
      "hand": "right"
    },
    {
      "midi": 75,
      "time": 32,
      "duration": 1.333,
      "velocity": 0.65,
      "hand": "right"
    },
    {
      "midi": 56,
      "time": 32.667,
      "duration": 0.667,
      "velocity": 0.63,
      "hand": "left"
    },
    {
      "midi": 43,
      "time": 33.333,
      "duration": 0.667,
      "velocity": 0.6,
      "hand": "left"
    },
    {
      "midi": 58,
      "time": 33.333,
      "duration": 0.667,
      "velocity": 0.6,
      "hand": "left"
    },
    {
      "midi": 63,
      "time": 33.333,
      "duration": 0.667,
      "velocity": 0.51,
      "hand": "right"
    },
    {
      "midi": 70,
      "time": 33.333,
      "duration": 0.667,
      "velocity": 0.51,
      "hand": "right"
    },
    {
      "midi": 43,
      "time": 34,
      "duration": 0.667,
      "velocity": 0.69,
      "hand": "left"
    },
    {
      "midi": 61,
      "time": 34,
      "duration": 0.667,
      "velocity": 0.69,
      "hand": "right"
    },
    {
      "midi": 63,
      "time": 34,
      "duration": 0.667,
      "velocity": 0.57,
      "hand": "right"
    },
    {
      "midi": 70,
      "time": 34,
      "duration": 0.667,
      "velocity": 0.57,
      "hand": "right"
    },
    {
      "midi": 44,
      "time": 34.667,
      "duration": 1.333,
      "velocity": 0.56,
      "hand": "left"
    },
    {
      "midi": 60,
      "time": 34.667,
      "duration": 1.333,
      "velocity": 0.56,
      "hand": "right"
    },
    {
      "midi": 63,
      "time": 34.667,
      "duration": 1.333,
      "velocity": 0.65,
      "hand": "right"
    },
    {
      "midi": 72,
      "time": 34.667,
      "duration": 1.333,
      "velocity": 0.65,
      "hand": "right"
    },
    {
      "midi": 51,
      "time": 36,
      "duration": 1.333,
      "velocity": 0.56,
      "hand": "left"
    },
    {
      "midi": 58,
      "time": 36,
      "duration": 1.333,
      "velocity": 0.56,
      "hand": "left"
    },
    {
      "midi": 63,
      "time": 36,
      "duration": 0.667,
      "velocity": 0.53,
      "hand": "right"
    },
    {
      "midi": 67,
      "time": 36,
      "duration": 1.333,
      "velocity": 0.54,
      "hand": "right"
    },
    {
      "midi": 61,
      "time": 36.667,
      "duration": 0.667,
      "velocity": 0.57,
      "hand": "right"
    },
    {
      "midi": 44,
      "time": 37.333,
      "duration": 0.667,
      "velocity": 0.58,
      "hand": "left"
    },
    {
      "midi": 56,
      "time": 37.333,
      "duration": 0.667,
      "velocity": 0.58,
      "hand": "left"
    },
    {
      "midi": 60,
      "time": 37.333,
      "duration": 0.667,
      "velocity": 0.62,
      "hand": "right"
    },
    {
      "midi": 68,
      "time": 37.333,
      "duration": 0.667,
      "velocity": 0.62,
      "hand": "right"
    },
    {
      "midi": 44,
      "time": 38,
      "duration": 0.667,
      "velocity": 0.6,
      "hand": "left"
    },
    {
      "midi": 56,
      "time": 38,
      "duration": 0.667,
      "velocity": 0.6,
      "hand": "left"
    },
    {
      "midi": 60,
      "time": 38,
      "duration": 0.667,
      "velocity": 0.53,
      "hand": "right"
    },
    {
      "midi": 65,
      "time": 38,
      "duration": 0.667,
      "velocity": 0.53,
      "hand": "right"
    },
    {
      "midi": 46,
      "time": 38.667,
      "duration": 1,
      "velocity": 0.6,
      "hand": "left"
    },
    {
      "midi": 56,
      "time": 38.667,
      "duration": 1,
      "velocity": 0.6,
      "hand": "left"
    },
    {
      "midi": 62,
      "time": 38.667,
      "duration": 1,
      "velocity": 0.58,
      "hand": "right"
    },
    {
      "midi": 65,
      "time": 38.667,
      "duration": 1,
      "velocity": 0.58,
      "hand": "right"
    },
    {
      "midi": 51,
      "time": 39.667,
      "duration": 0.333,
      "velocity": 0.57,
      "hand": "left"
    },
    {
      "midi": 55,
      "time": 39.667,
      "duration": 0.333,
      "velocity": 0.57,
      "hand": "left"
    },
    {
      "midi": 63,
      "time": 39.667,
      "duration": 0.333,
      "velocity": 0.54,
      "hand": "right"
    },
    {
      "midi": 51,
      "time": 40,
      "duration": 2.667,
      "velocity": 0.58,
      "hand": "left"
    },
    {
      "midi": 55,
      "time": 40,
      "duration": 2.667,
      "velocity": 0.58,
      "hand": "left"
    },
    {
      "midi": 63,
      "time": 40,
      "duration": 2.667,
      "velocity": 0.56,
      "hand": "right"
    }
  ],
  "arrangements": {
    "easy": [
      {
        "midi": 63,
        "time": 0,
        "duration": 0.667,
        "velocity": 0.57,
        "hand": "right"
      },
      {
        "midi": 63,
        "time": 0.667,
        "duration": 0.667,
        "velocity": 0.57,
        "hand": "right"
      },
      {
        "midi": 67,
        "time": 1.333,
        "duration": 0.667,
        "velocity": 0.66,
        "hand": "right"
      },
      {
        "midi": 67,
        "time": 2,
        "duration": 0.667,
        "velocity": 0.6,
        "hand": "right"
      },
      {
        "midi": 70,
        "time": 2.667,
        "duration": 1.333,
        "velocity": 0.61,
        "hand": "right"
      },
      {
        "midi": 65,
        "time": 3.333,
        "duration": 0.667,
        "velocity": 0.61,
        "hand": "right"
      },
      {
        "midi": 70,
        "time": 4,
        "duration": 1.333,
        "velocity": 0.61,
        "hand": "right"
      },
      {
        "midi": 62,
        "time": 4.667,
        "duration": 0.667,
        "velocity": 0.54,
        "hand": "right"
      },
      {
        "midi": 72,
        "time": 5.333,
        "duration": 1.333,
        "velocity": 0.61,
        "hand": "right"
      },
      {
        "midi": 62,
        "time": 6,
        "duration": 0.667,
        "velocity": 0.61,
        "hand": "right"
      },
      {
        "midi": 72,
        "time": 6.667,
        "duration": 0.667,
        "velocity": 0.59,
        "hand": "right"
      },
      {
        "midi": 72,
        "time": 7.333,
        "duration": 0.667,
        "velocity": 0.57,
        "hand": "right"
      },
      {
        "midi": 70,
        "time": 8,
        "duration": 1.333,
        "velocity": 0.6,
        "hand": "right"
      },
      {
        "midi": 58,
        "time": 8.667,
        "duration": 0.667,
        "velocity": 0.57,
        "hand": "right"
      },
      {
        "midi": 67,
        "time": 9.333,
        "duration": 1.333,
        "velocity": 0.57,
        "hand": "right"
      },
      {
        "midi": 70,
        "time": 10.667,
        "duration": 1,
        "velocity": 0.66,
        "hand": "right"
      },
      {
        "midi": 65,
        "time": 11.333,
        "duration": 0.667,
        "velocity": 0.61,
        "hand": "right"
      },
      {
        "midi": 70,
        "time": 11.667,
        "duration": 0.333,
        "velocity": 0.6,
        "hand": "right"
      },
      {
        "midi": 70,
        "time": 12,
        "duration": 0.667,
        "velocity": 0.63,
        "hand": "right"
      },
      {
        "midi": 70,
        "time": 12.667,
        "duration": 0.667,
        "velocity": 0.57,
        "hand": "right"
      },
      {
        "midi": 75,
        "time": 13.333,
        "duration": 1.333,
        "velocity": 0.67,
        "hand": "right"
      },
      {
        "midi": 65,
        "time": 14,
        "duration": 0.667,
        "velocity": 0.61,
        "hand": "right"
      },
      {
        "midi": 74,
        "time": 14.667,
        "duration": 0.667,
        "velocity": 0.53,
        "hand": "right"
      },
      {
        "midi": 70,
        "time": 15.333,
        "duration": 0.667,
        "velocity": 0.53,
        "hand": "right"
      },
      {
        "midi": 65,
        "time": 16,
        "duration": 0.667,
        "velocity": 0.5,
        "hand": "right"
      },
      {
        "midi": 70,
        "time": 16.667,
        "duration": 0.667,
        "velocity": 0.65,
        "hand": "right"
      },
      {
        "midi": 72,
        "time": 17.333,
        "duration": 1,
        "velocity": 0.69,
        "hand": "right"
      },
      {
        "midi": 70,
        "time": 18.333,
        "duration": 0.333,
        "velocity": 0.5,
        "hand": "right"
      },
      {
        "midi": 70,
        "time": 18.667,
        "duration": 2.667,
        "velocity": 0.59,
        "hand": "right"
      },
      {
        "midi": 56,
        "time": 20,
        "duration": 1.333,
        "velocity": 0.58,
        "hand": "right"
      },
      {
        "midi": 63,
        "time": 21.333,
        "duration": 0.667,
        "velocity": 0.46,
        "hand": "right"
      },
      {
        "midi": 63,
        "time": 22,
        "duration": 0.667,
        "velocity": 0.6,
        "hand": "right"
      },
      {
        "midi": 67,
        "time": 22.667,
        "duration": 0.667,
        "velocity": 0.64,
        "hand": "right"
      },
      {
        "midi": 67,
        "time": 23.333,
        "duration": 0.667,
        "velocity": 0.59,
        "hand": "right"
      },
      {
        "midi": 70,
        "time": 24,
        "duration": 1.333,
        "velocity": 0.63,
        "hand": "right"
      },
      {
        "midi": 65,
        "time": 24.667,
        "duration": 0.667,
        "velocity": 0.63,
        "hand": "right"
      },
      {
        "midi": 70,
        "time": 25.333,
        "duration": 1.333,
        "velocity": 0.61,
        "hand": "right"
      },
      {
        "midi": 62,
        "time": 26,
        "duration": 0.667,
        "velocity": 0.53,
        "hand": "right"
      },
      {
        "midi": 72,
        "time": 26.667,
        "duration": 1,
        "velocity": 0.64,
        "hand": "right"
      },
      {
        "midi": 62,
        "time": 27.333,
        "duration": 0.667,
        "velocity": 0.66,
        "hand": "right"
      },
      {
        "midi": 72,
        "time": 27.667,
        "duration": 0.333,
        "velocity": 0.62,
        "hand": "right"
      },
      {
        "midi": 72,
        "time": 28,
        "duration": 0.667,
        "velocity": 0.59,
        "hand": "right"
      },
      {
        "midi": 72,
        "time": 28.667,
        "duration": 0.667,
        "velocity": 0.61,
        "hand": "right"
      },
      {
        "midi": 70,
        "time": 29.333,
        "duration": 1.333,
        "velocity": 0.58,
        "hand": "right"
      },
      {
        "midi": 58,
        "time": 30,
        "duration": 0.667,
        "velocity": 0.58,
        "hand": "right"
      },
      {
        "midi": 70,
        "time": 30.667,
        "duration": 1.333,
        "velocity": 0.57,
        "hand": "right"
      },
      {
        "midi": 75,
        "time": 32,
        "duration": 1.333,
        "velocity": 0.65,
        "hand": "right"
      },
      {
        "midi": 56,
        "time": 32.667,
        "duration": 0.667,
        "velocity": 0.63,
        "hand": "right"
      },
      {
        "midi": 70,
        "time": 33.333,
        "duration": 0.667,
        "velocity": 0.51,
        "hand": "right"
      },
      {
        "midi": 70,
        "time": 34,
        "duration": 0.667,
        "velocity": 0.57,
        "hand": "right"
      },
      {
        "midi": 72,
        "time": 34.667,
        "duration": 1.333,
        "velocity": 0.65,
        "hand": "right"
      },
      {
        "midi": 67,
        "time": 36,
        "duration": 1.333,
        "velocity": 0.54,
        "hand": "right"
      },
      {
        "midi": 61,
        "time": 36.667,
        "duration": 0.667,
        "velocity": 0.57,
        "hand": "right"
      },
      {
        "midi": 68,
        "time": 37.333,
        "duration": 0.667,
        "velocity": 0.62,
        "hand": "right"
      },
      {
        "midi": 65,
        "time": 38,
        "duration": 0.667,
        "velocity": 0.53,
        "hand": "right"
      },
      {
        "midi": 65,
        "time": 38.667,
        "duration": 1,
        "velocity": 0.58,
        "hand": "right"
      },
      {
        "midi": 63,
        "time": 39.667,
        "duration": 0.333,
        "velocity": 0.54,
        "hand": "right"
      },
      {
        "midi": 63,
        "time": 40,
        "duration": 2.667,
        "velocity": 0.56,
        "hand": "right"
      }
    ],
    "medium": [
      {
        "midi": 51,
        "time": 0,
        "duration": 0.667,
        "velocity": 0.56,
        "hand": "left"
      },
      {
        "midi": 58,
        "time": 0,
        "duration": 0.667,
        "velocity": 0.57,
        "hand": "left"
      },
      {
        "midi": 63,
        "time": 0,
        "duration": 0.667,
        "velocity": 0.57,
        "hand": "right"
      },
      {
        "midi": 51,
        "time": 0.667,
        "duration": 0.667,
        "velocity": 0.57,
        "hand": "left"
      },
      {
        "midi": 58,
        "time": 0.667,
        "duration": 0.667,
        "velocity": 0.57,
        "hand": "left"
      },
      {
        "midi": 63,
        "time": 0.667,
        "duration": 0.667,
        "velocity": 0.57,
        "hand": "right"
      },
      {
        "midi": 48,
        "time": 1.333,
        "duration": 0.667,
        "velocity": 0.54,
        "hand": "left"
      },
      {
        "midi": 63,
        "time": 1.333,
        "duration": 0.667,
        "velocity": 0.66,
        "hand": "right"
      },
      {
        "midi": 67,
        "time": 1.333,
        "duration": 0.667,
        "velocity": 0.66,
        "hand": "right"
      },
      {
        "midi": 48,
        "time": 2,
        "duration": 0.667,
        "velocity": 0.57,
        "hand": "left"
      },
      {
        "midi": 63,
        "time": 2,
        "duration": 0.667,
        "velocity": 0.6,
        "hand": "right"
      },
      {
        "midi": 67,
        "time": 2,
        "duration": 0.667,
        "velocity": 0.6,
        "hand": "right"
      },
      {
        "midi": 46,
        "time": 2.667,
        "duration": 1.333,
        "velocity": 0.54,
        "hand": "left"
      },
      {
        "midi": 62,
        "time": 2.667,
        "duration": 0.667,
        "velocity": 0.54,
        "hand": "right"
      },
      {
        "midi": 70,
        "time": 2.667,
        "duration": 1.333,
        "velocity": 0.61,
        "hand": "right"
      },
      {
        "midi": 56,
        "time": 3.333,
        "duration": 0.667,
        "velocity": 0.63,
        "hand": "left"
      },
      {
        "midi": 65,
        "time": 3.333,
        "duration": 0.667,
        "velocity": 0.61,
        "hand": "right"
      },
      {
        "midi": 51,
        "time": 4,
        "duration": 1.333,
        "velocity": 0.66,
        "hand": "left"
      },
      {
        "midi": 63,
        "time": 4,
        "duration": 0.667,
        "velocity": 0.54,
        "hand": "right"
      },
      {
        "midi": 70,
        "time": 4,
        "duration": 1.333,
        "velocity": 0.61,
        "hand": "right"
      },
      {
        "midi": 58,
        "time": 4.667,
        "duration": 0.667,
        "velocity": 0.62,
        "hand": "left"
      },
      {
        "midi": 62,
        "time": 4.667,
        "duration": 0.667,
        "velocity": 0.54,
        "hand": "right"
      },
      {
        "midi": 44,
        "time": 5.333,
        "duration": 1.333,
        "velocity": 0.61,
        "hand": "left"
      },
      {
        "midi": 60,
        "time": 5.333,
        "duration": 0.667,
        "velocity": 0.61,
        "hand": "right"
      },
      {
        "midi": 72,
        "time": 5.333,
        "duration": 1.333,
        "velocity": 0.61,
        "hand": "right"
      },
      {
        "midi": 58,
        "time": 6,
        "duration": 0.667,
        "velocity": 0.61,
        "hand": "left"
      },
      {
        "midi": 62,
        "time": 6,
        "duration": 0.667,
        "velocity": 0.61,
        "hand": "right"
      },
      {
        "midi": 56,
        "time": 6.667,
        "duration": 0.667,
        "velocity": 0.63,
        "hand": "left"
      },
      {
        "midi": 63,
        "time": 6.667,
        "duration": 0.667,
        "velocity": 0.59,
        "hand": "right"
      },
      {
        "midi": 72,
        "time": 6.667,
        "duration": 0.667,
        "velocity": 0.59,
        "hand": "right"
      },
      {
        "midi": 56,
        "time": 7.333,
        "duration": 0.667,
        "velocity": 0.63,
        "hand": "left"
      },
      {
        "midi": 65,
        "time": 7.333,
        "duration": 0.667,
        "velocity": 0.57,
        "hand": "right"
      },
      {
        "midi": 72,
        "time": 7.333,
        "duration": 0.667,
        "velocity": 0.57,
        "hand": "right"
      },
      {
        "midi": 51,
        "time": 8,
        "duration": 1.333,
        "velocity": 0.61,
        "hand": "left"
      },
      {
        "midi": 67,
        "time": 8,
        "duration": 1.333,
        "velocity": 0.6,
        "hand": "right"
      },
      {
        "midi": 70,
        "time": 8,
        "duration": 1.333,
        "velocity": 0.6,
        "hand": "right"
      },
      {
        "midi": 58,
        "time": 8.667,
        "duration": 0.667,
        "velocity": 0.57,
        "hand": "left"
      },
      {
        "midi": 51,
        "time": 9.333,
        "duration": 1.333,
        "velocity": 0.65,
        "hand": "left"
      },
      {
        "midi": 63,
        "time": 9.333,
        "duration": 1.333,
        "velocity": 0.57,
        "hand": "right"
      },
      {
        "midi": 67,
        "time": 9.333,
        "duration": 1.333,
        "velocity": 0.57,
        "hand": "right"
      },
      {
        "midi": 50,
        "time": 10.667,
        "duration": 0.667,
        "velocity": 0.62,
        "hand": "left"
      },
      {
        "midi": 65,
        "time": 10.667,
        "duration": 0.667,
        "velocity": 0.63,
        "hand": "right"
      },
      {
        "midi": 70,
        "time": 10.667,
        "duration": 1,
        "velocity": 0.66,
        "hand": "right"
      },
      {
        "midi": 50,
        "time": 11.333,
        "duration": 0.667,
        "velocity": 0.57,
        "hand": "left"
      },
      {
        "midi": 58,
        "time": 11.333,
        "duration": 0.667,
        "velocity": 0.57,
        "hand": "left"
      },
      {
        "midi": 65,
        "time": 11.333,
        "duration": 0.667,
        "velocity": 0.61,
        "hand": "right"
      },
      {
        "midi": 70,
        "time": 11.667,
        "duration": 0.333,
        "velocity": 0.6,
        "hand": "right"
      },
      {
        "midi": 51,
        "time": 12,
        "duration": 0.667,
        "velocity": 0.61,
        "hand": "left"
      },
      {
        "midi": 67,
        "time": 12,
        "duration": 0.667,
        "velocity": 0.63,
        "hand": "right"
      },
      {
        "midi": 70,
        "time": 12,
        "duration": 0.667,
        "velocity": 0.63,
        "hand": "right"
      },
      {
        "midi": 50,
        "time": 12.667,
        "duration": 0.667,
        "velocity": 0.64,
        "hand": "left"
      },
      {
        "midi": 65,
        "time": 12.667,
        "duration": 0.667,
        "velocity": 0.57,
        "hand": "right"
      },
      {
        "midi": 70,
        "time": 12.667,
        "duration": 0.667,
        "velocity": 0.57,
        "hand": "right"
      },
      {
        "midi": 48,
        "time": 13.333,
        "duration": 1.333,
        "velocity": 0.57,
        "hand": "left"
      },
      {
        "midi": 63,
        "time": 13.333,
        "duration": 0.667,
        "velocity": 0.67,
        "hand": "right"
      },
      {
        "midi": 75,
        "time": 13.333,
        "duration": 1.333,
        "velocity": 0.67,
        "hand": "right"
      },
      {
        "midi": 57,
        "time": 14,
        "duration": 0.667,
        "velocity": 0.6,
        "hand": "left"
      },
      {
        "midi": 65,
        "time": 14,
        "duration": 0.667,
        "velocity": 0.61,
        "hand": "right"
      },
      {
        "midi": 50,
        "time": 14.667,
        "duration": 0.667,
        "velocity": 0.64,
        "hand": "left"
      },
      {
        "midi": 65,
        "time": 14.667,
        "duration": 0.667,
        "velocity": 0.53,
        "hand": "right"
      },
      {
        "midi": 74,
        "time": 14.667,
        "duration": 0.667,
        "velocity": 0.53,
        "hand": "right"
      },
      {
        "midi": 51,
        "time": 15.333,
        "duration": 0.667,
        "velocity": 0.57,
        "hand": "left"
      },
      {
        "midi": 67,
        "time": 15.333,
        "duration": 0.667,
        "velocity": 0.53,
        "hand": "right"
      },
      {
        "midi": 70,
        "time": 15.333,
        "duration": 0.667,
        "velocity": 0.53,
        "hand": "right"
      },
      {
        "midi": 53,
        "time": 16,
        "duration": 0.667,
        "velocity": 0.65,
        "hand": "left"
      },
      {
        "midi": 62,
        "time": 16,
        "duration": 0.667,
        "velocity": 0.65,
        "hand": "right"
      },
      {
        "midi": 65,
        "time": 16,
        "duration": 0.667,
        "velocity": 0.5,
        "hand": "right"
      },
      {
        "midi": 53,
        "time": 16.667,
        "duration": 0.667,
        "velocity": 0.59,
        "hand": "left"
      },
      {
        "midi": 62,
        "time": 16.667,
        "duration": 0.667,
        "velocity": 0.65,
        "hand": "right"
      },
      {
        "midi": 70,
        "time": 16.667,
        "duration": 0.667,
        "velocity": 0.65,
        "hand": "right"
      },
      {
        "midi": 53,
        "time": 17.333,
        "duration": 1,
        "velocity": 0.59,
        "hand": "left"
      },
      {
        "midi": 63,
        "time": 17.333,
        "duration": 1,
        "velocity": 0.69,
        "hand": "right"
      },
      {
        "midi": 72,
        "time": 17.333,
        "duration": 1,
        "velocity": 0.69,
        "hand": "right"
      },
      {
        "midi": 46,
        "time": 18.333,
        "duration": 0.333,
        "velocity": 0.6,
        "hand": "left"
      },
      {
        "midi": 62,
        "time": 18.333,
        "duration": 0.333,
        "velocity": 0.5,
        "hand": "right"
      },
      {
        "midi": 70,
        "time": 18.333,
        "duration": 0.333,
        "velocity": 0.5,
        "hand": "right"
      },
      {
        "midi": 46,
        "time": 18.667,
        "duration": 2.667,
        "velocity": 0.54,
        "hand": "left"
      },
      {
        "midi": 62,
        "time": 18.667,
        "duration": 2.667,
        "velocity": 0.59,
        "hand": "right"
      },
      {
        "midi": 70,
        "time": 18.667,
        "duration": 2.667,
        "velocity": 0.59,
        "hand": "right"
      },
      {
        "midi": 56,
        "time": 20,
        "duration": 1.333,
        "velocity": 0.58,
        "hand": "left"
      },
      {
        "midi": 51,
        "time": 21.333,
        "duration": 0.667,
        "velocity": 0.61,
        "hand": "left"
      },
      {
        "midi": 58,
        "time": 21.333,
        "duration": 0.667,
        "velocity": 0.46,
        "hand": "left"
      },
      {
        "midi": 63,
        "time": 21.333,
        "duration": 0.667,
        "velocity": 0.46,
        "hand": "right"
      },
      {
        "midi": 51,
        "time": 22,
        "duration": 0.667,
        "velocity": 0.6,
        "hand": "left"
      },
      {
        "midi": 58,
        "time": 22,
        "duration": 0.667,
        "velocity": 0.6,
        "hand": "left"
      },
      {
        "midi": 63,
        "time": 22,
        "duration": 0.667,
        "velocity": 0.6,
        "hand": "right"
      },
      {
        "midi": 48,
        "time": 22.667,
        "duration": 0.667,
        "velocity": 0.57,
        "hand": "left"
      },
      {
        "midi": 63,
        "time": 22.667,
        "duration": 0.667,
        "velocity": 0.64,
        "hand": "right"
      },
      {
        "midi": 67,
        "time": 22.667,
        "duration": 0.667,
        "velocity": 0.64,
        "hand": "right"
      },
      {
        "midi": 48,
        "time": 23.333,
        "duration": 0.667,
        "velocity": 0.57,
        "hand": "left"
      },
      {
        "midi": 63,
        "time": 23.333,
        "duration": 0.667,
        "velocity": 0.59,
        "hand": "right"
      },
      {
        "midi": 67,
        "time": 23.333,
        "duration": 0.667,
        "velocity": 0.59,
        "hand": "right"
      },
      {
        "midi": 46,
        "time": 24,
        "duration": 1.333,
        "velocity": 0.61,
        "hand": "left"
      },
      {
        "midi": 62,
        "time": 24,
        "duration": 0.667,
        "velocity": 0.63,
        "hand": "right"
      },
      {
        "midi": 70,
        "time": 24,
        "duration": 1.333,
        "velocity": 0.63,
        "hand": "right"
      },
      {
        "midi": 56,
        "time": 24.667,
        "duration": 0.667,
        "velocity": 0.58,
        "hand": "left"
      },
      {
        "midi": 65,
        "time": 24.667,
        "duration": 0.667,
        "velocity": 0.63,
        "hand": "right"
      },
      {
        "midi": 51,
        "time": 25.333,
        "duration": 1.333,
        "velocity": 0.61,
        "hand": "left"
      },
      {
        "midi": 63,
        "time": 25.333,
        "duration": 0.667,
        "velocity": 0.51,
        "hand": "right"
      },
      {
        "midi": 70,
        "time": 25.333,
        "duration": 1.333,
        "velocity": 0.61,
        "hand": "right"
      },
      {
        "midi": 58,
        "time": 26,
        "duration": 0.667,
        "velocity": 0.62,
        "hand": "left"
      },
      {
        "midi": 62,
        "time": 26,
        "duration": 0.667,
        "velocity": 0.53,
        "hand": "right"
      },
      {
        "midi": 44,
        "time": 26.667,
        "duration": 1,
        "velocity": 0.54,
        "hand": "left"
      },
      {
        "midi": 60,
        "time": 26.667,
        "duration": 0.667,
        "velocity": 0.55,
        "hand": "right"
      },
      {
        "midi": 72,
        "time": 26.667,
        "duration": 1,
        "velocity": 0.64,
        "hand": "right"
      },
      {
        "midi": 58,
        "time": 27.333,
        "duration": 0.667,
        "velocity": 0.58,
        "hand": "left"
      },
      {
        "midi": 62,
        "time": 27.333,
        "duration": 0.667,
        "velocity": 0.66,
        "hand": "right"
      },
      {
        "midi": 44,
        "time": 27.667,
        "duration": 0.333,
        "velocity": 0.58,
        "hand": "left"
      },
      {
        "midi": 72,
        "time": 27.667,
        "duration": 0.333,
        "velocity": 0.62,
        "hand": "right"
      },
      {
        "midi": 56,
        "time": 28,
        "duration": 0.667,
        "velocity": 0.65,
        "hand": "left"
      },
      {
        "midi": 63,
        "time": 28,
        "duration": 0.667,
        "velocity": 0.59,
        "hand": "right"
      },
      {
        "midi": 72,
        "time": 28,
        "duration": 0.667,
        "velocity": 0.59,
        "hand": "right"
      },
      {
        "midi": 56,
        "time": 28.667,
        "duration": 0.667,
        "velocity": 0.65,
        "hand": "left"
      },
      {
        "midi": 65,
        "time": 28.667,
        "duration": 0.667,
        "velocity": 0.61,
        "hand": "right"
      },
      {
        "midi": 72,
        "time": 28.667,
        "duration": 0.667,
        "velocity": 0.61,
        "hand": "right"
      },
      {
        "midi": 51,
        "time": 29.333,
        "duration": 1.333,
        "velocity": 0.54,
        "hand": "left"
      },
      {
        "midi": 67,
        "time": 29.333,
        "duration": 1.333,
        "velocity": 0.58,
        "hand": "right"
      },
      {
        "midi": 70,
        "time": 29.333,
        "duration": 1.333,
        "velocity": 0.58,
        "hand": "right"
      },
      {
        "midi": 58,
        "time": 30,
        "duration": 0.667,
        "velocity": 0.58,
        "hand": "left"
      },
      {
        "midi": 51,
        "time": 30.667,
        "duration": 1.333,
        "velocity": 0.61,
        "hand": "left"
      },
      {
        "midi": 63,
        "time": 30.667,
        "duration": 1.333,
        "velocity": 0.57,
        "hand": "right"
      },
      {
        "midi": 70,
        "time": 30.667,
        "duration": 1.333,
        "velocity": 0.57,
        "hand": "right"
      },
      {
        "midi": 48,
        "time": 32,
        "duration": 1.333,
        "velocity": 0.52,
        "hand": "left"
      },
      {
        "midi": 63,
        "time": 32,
        "duration": 1.333,
        "velocity": 0.65,
        "hand": "right"
      },
      {
        "midi": 75,
        "time": 32,
        "duration": 1.333,
        "velocity": 0.65,
        "hand": "right"
      },
      {
        "midi": 56,
        "time": 32.667,
        "duration": 0.667,
        "velocity": 0.63,
        "hand": "left"
      },
      {
        "midi": 43,
        "time": 33.333,
        "duration": 0.667,
        "velocity": 0.6,
        "hand": "left"
      },
      {
        "midi": 63,
        "time": 33.333,
        "duration": 0.667,
        "velocity": 0.51,
        "hand": "right"
      },
      {
        "midi": 70,
        "time": 33.333,
        "duration": 0.667,
        "velocity": 0.51,
        "hand": "right"
      },
      {
        "midi": 43,
        "time": 34,
        "duration": 0.667,
        "velocity": 0.69,
        "hand": "left"
      },
      {
        "midi": 63,
        "time": 34,
        "duration": 0.667,
        "velocity": 0.57,
        "hand": "right"
      },
      {
        "midi": 70,
        "time": 34,
        "duration": 0.667,
        "velocity": 0.57,
        "hand": "right"
      },
      {
        "midi": 44,
        "time": 34.667,
        "duration": 1.333,
        "velocity": 0.56,
        "hand": "left"
      },
      {
        "midi": 63,
        "time": 34.667,
        "duration": 1.333,
        "velocity": 0.65,
        "hand": "right"
      },
      {
        "midi": 72,
        "time": 34.667,
        "duration": 1.333,
        "velocity": 0.65,
        "hand": "right"
      },
      {
        "midi": 51,
        "time": 36,
        "duration": 1.333,
        "velocity": 0.56,
        "hand": "left"
      },
      {
        "midi": 63,
        "time": 36,
        "duration": 0.667,
        "velocity": 0.53,
        "hand": "right"
      },
      {
        "midi": 67,
        "time": 36,
        "duration": 1.333,
        "velocity": 0.54,
        "hand": "right"
      },
      {
        "midi": 61,
        "time": 36.667,
        "duration": 0.667,
        "velocity": 0.57,
        "hand": "right"
      },
      {
        "midi": 44,
        "time": 37.333,
        "duration": 0.667,
        "velocity": 0.58,
        "hand": "left"
      },
      {
        "midi": 60,
        "time": 37.333,
        "duration": 0.667,
        "velocity": 0.62,
        "hand": "right"
      },
      {
        "midi": 68,
        "time": 37.333,
        "duration": 0.667,
        "velocity": 0.62,
        "hand": "right"
      },
      {
        "midi": 44,
        "time": 38,
        "duration": 0.667,
        "velocity": 0.6,
        "hand": "left"
      },
      {
        "midi": 60,
        "time": 38,
        "duration": 0.667,
        "velocity": 0.53,
        "hand": "right"
      },
      {
        "midi": 65,
        "time": 38,
        "duration": 0.667,
        "velocity": 0.53,
        "hand": "right"
      },
      {
        "midi": 46,
        "time": 38.667,
        "duration": 1,
        "velocity": 0.6,
        "hand": "left"
      },
      {
        "midi": 62,
        "time": 38.667,
        "duration": 1,
        "velocity": 0.58,
        "hand": "right"
      },
      {
        "midi": 65,
        "time": 38.667,
        "duration": 1,
        "velocity": 0.58,
        "hand": "right"
      },
      {
        "midi": 51,
        "time": 39.667,
        "duration": 0.333,
        "velocity": 0.57,
        "hand": "left"
      },
      {
        "midi": 55,
        "time": 39.667,
        "duration": 0.333,
        "velocity": 0.57,
        "hand": "left"
      },
      {
        "midi": 63,
        "time": 39.667,
        "duration": 0.333,
        "velocity": 0.54,
        "hand": "right"
      },
      {
        "midi": 51,
        "time": 40,
        "duration": 2.667,
        "velocity": 0.58,
        "hand": "left"
      },
      {
        "midi": 55,
        "time": 40,
        "duration": 2.667,
        "velocity": 0.58,
        "hand": "left"
      },
      {
        "midi": 63,
        "time": 40,
        "duration": 2.667,
        "velocity": 0.56,
        "hand": "right"
      }
    ],
    "hard": [
      {
        "midi": 51,
        "time": 0,
        "duration": 0.667,
        "velocity": 0.56,
        "hand": "left"
      },
      {
        "midi": 55,
        "time": 0,
        "duration": 0.667,
        "velocity": 0.56,
        "hand": "left"
      },
      {
        "midi": 58,
        "time": 0,
        "duration": 0.667,
        "velocity": 0.57,
        "hand": "left"
      },
      {
        "midi": 63,
        "time": 0,
        "duration": 0.667,
        "velocity": 0.57,
        "hand": "right"
      },
      {
        "midi": 51,
        "time": 0.667,
        "duration": 0.667,
        "velocity": 0.57,
        "hand": "left"
      },
      {
        "midi": 55,
        "time": 0.667,
        "duration": 0.667,
        "velocity": 0.57,
        "hand": "left"
      },
      {
        "midi": 58,
        "time": 0.667,
        "duration": 0.667,
        "velocity": 0.57,
        "hand": "left"
      },
      {
        "midi": 63,
        "time": 0.667,
        "duration": 0.667,
        "velocity": 0.57,
        "hand": "right"
      },
      {
        "midi": 48,
        "time": 1.333,
        "duration": 0.667,
        "velocity": 0.54,
        "hand": "left"
      },
      {
        "midi": 51,
        "time": 1.333,
        "duration": 0.667,
        "velocity": 0.54,
        "hand": "left"
      },
      {
        "midi": 63,
        "time": 1.333,
        "duration": 0.667,
        "velocity": 0.66,
        "hand": "right"
      },
      {
        "midi": 67,
        "time": 1.333,
        "duration": 0.667,
        "velocity": 0.66,
        "hand": "right"
      },
      {
        "midi": 48,
        "time": 2,
        "duration": 0.667,
        "velocity": 0.57,
        "hand": "left"
      },
      {
        "midi": 51,
        "time": 2,
        "duration": 0.667,
        "velocity": 0.57,
        "hand": "left"
      },
      {
        "midi": 63,
        "time": 2,
        "duration": 0.667,
        "velocity": 0.6,
        "hand": "right"
      },
      {
        "midi": 67,
        "time": 2,
        "duration": 0.667,
        "velocity": 0.6,
        "hand": "right"
      },
      {
        "midi": 46,
        "time": 2.667,
        "duration": 1.333,
        "velocity": 0.54,
        "hand": "left"
      },
      {
        "midi": 53,
        "time": 2.667,
        "duration": 0.667,
        "velocity": 0.59,
        "hand": "left"
      },
      {
        "midi": 62,
        "time": 2.667,
        "duration": 0.667,
        "velocity": 0.54,
        "hand": "right"
      },
      {
        "midi": 70,
        "time": 2.667,
        "duration": 1.333,
        "velocity": 0.61,
        "hand": "right"
      },
      {
        "midi": 56,
        "time": 3.333,
        "duration": 0.667,
        "velocity": 0.63,
        "hand": "left"
      },
      {
        "midi": 65,
        "time": 3.333,
        "duration": 0.667,
        "velocity": 0.61,
        "hand": "right"
      },
      {
        "midi": 51,
        "time": 4,
        "duration": 1.333,
        "velocity": 0.66,
        "hand": "left"
      },
      {
        "midi": 55,
        "time": 4,
        "duration": 0.667,
        "velocity": 0.6,
        "hand": "left"
      },
      {
        "midi": 63,
        "time": 4,
        "duration": 0.667,
        "velocity": 0.54,
        "hand": "right"
      },
      {
        "midi": 70,
        "time": 4,
        "duration": 1.333,
        "velocity": 0.61,
        "hand": "right"
      },
      {
        "midi": 58,
        "time": 4.667,
        "duration": 0.667,
        "velocity": 0.62,
        "hand": "left"
      },
      {
        "midi": 62,
        "time": 4.667,
        "duration": 0.667,
        "velocity": 0.54,
        "hand": "right"
      },
      {
        "midi": 44,
        "time": 5.333,
        "duration": 1.333,
        "velocity": 0.61,
        "hand": "left"
      },
      {
        "midi": 56,
        "time": 5.333,
        "duration": 0.667,
        "velocity": 0.61,
        "hand": "left"
      },
      {
        "midi": 60,
        "time": 5.333,
        "duration": 0.667,
        "velocity": 0.61,
        "hand": "right"
      },
      {
        "midi": 72,
        "time": 5.333,
        "duration": 1.333,
        "velocity": 0.61,
        "hand": "right"
      },
      {
        "midi": 58,
        "time": 6,
        "duration": 0.667,
        "velocity": 0.61,
        "hand": "left"
      },
      {
        "midi": 62,
        "time": 6,
        "duration": 0.667,
        "velocity": 0.61,
        "hand": "right"
      },
      {
        "midi": 56,
        "time": 6.667,
        "duration": 0.667,
        "velocity": 0.63,
        "hand": "left"
      },
      {
        "midi": 60,
        "time": 6.667,
        "duration": 0.667,
        "velocity": 0.63,
        "hand": "right"
      },
      {
        "midi": 63,
        "time": 6.667,
        "duration": 0.667,
        "velocity": 0.59,
        "hand": "right"
      },
      {
        "midi": 72,
        "time": 6.667,
        "duration": 0.667,
        "velocity": 0.59,
        "hand": "right"
      },
      {
        "midi": 56,
        "time": 7.333,
        "duration": 0.667,
        "velocity": 0.63,
        "hand": "left"
      },
      {
        "midi": 62,
        "time": 7.333,
        "duration": 0.667,
        "velocity": 0.63,
        "hand": "right"
      },
      {
        "midi": 65,
        "time": 7.333,
        "duration": 0.667,
        "velocity": 0.57,
        "hand": "right"
      },
      {
        "midi": 72,
        "time": 7.333,
        "duration": 0.667,
        "velocity": 0.57,
        "hand": "right"
      },
      {
        "midi": 51,
        "time": 8,
        "duration": 1.333,
        "velocity": 0.61,
        "hand": "left"
      },
      {
        "midi": 63,
        "time": 8,
        "duration": 0.667,
        "velocity": 0.62,
        "hand": "right"
      },
      {
        "midi": 67,
        "time": 8,
        "duration": 1.333,
        "velocity": 0.6,
        "hand": "right"
      },
      {
        "midi": 70,
        "time": 8,
        "duration": 1.333,
        "velocity": 0.6,
        "hand": "right"
      },
      {
        "midi": 58,
        "time": 8.667,
        "duration": 0.667,
        "velocity": 0.57,
        "hand": "left"
      },
      {
        "midi": 51,
        "time": 9.333,
        "duration": 1.333,
        "velocity": 0.65,
        "hand": "left"
      },
      {
        "midi": 58,
        "time": 9.333,
        "duration": 1.333,
        "velocity": 0.65,
        "hand": "left"
      },
      {
        "midi": 63,
        "time": 9.333,
        "duration": 1.333,
        "velocity": 0.57,
        "hand": "right"
      },
      {
        "midi": 67,
        "time": 9.333,
        "duration": 1.333,
        "velocity": 0.57,
        "hand": "right"
      },
      {
        "midi": 50,
        "time": 10.667,
        "duration": 0.667,
        "velocity": 0.62,
        "hand": "left"
      },
      {
        "midi": 58,
        "time": 10.667,
        "duration": 0.667,
        "velocity": 0.62,
        "hand": "left"
      },
      {
        "midi": 65,
        "time": 10.667,
        "duration": 0.667,
        "velocity": 0.63,
        "hand": "right"
      },
      {
        "midi": 70,
        "time": 10.667,
        "duration": 1,
        "velocity": 0.66,
        "hand": "right"
      },
      {
        "midi": 50,
        "time": 11.333,
        "duration": 0.667,
        "velocity": 0.57,
        "hand": "left"
      },
      {
        "midi": 58,
        "time": 11.333,
        "duration": 0.667,
        "velocity": 0.57,
        "hand": "left"
      },
      {
        "midi": 65,
        "time": 11.333,
        "duration": 0.667,
        "velocity": 0.61,
        "hand": "right"
      },
      {
        "midi": 70,
        "time": 11.667,
        "duration": 0.333,
        "velocity": 0.6,
        "hand": "right"
      },
      {
        "midi": 51,
        "time": 12,
        "duration": 0.667,
        "velocity": 0.61,
        "hand": "left"
      },
      {
        "midi": 58,
        "time": 12,
        "duration": 0.667,
        "velocity": 0.61,
        "hand": "left"
      },
      {
        "midi": 67,
        "time": 12,
        "duration": 0.667,
        "velocity": 0.63,
        "hand": "right"
      },
      {
        "midi": 70,
        "time": 12,
        "duration": 0.667,
        "velocity": 0.63,
        "hand": "right"
      },
      {
        "midi": 50,
        "time": 12.667,
        "duration": 0.667,
        "velocity": 0.64,
        "hand": "left"
      },
      {
        "midi": 58,
        "time": 12.667,
        "duration": 0.667,
        "velocity": 0.64,
        "hand": "left"
      },
      {
        "midi": 65,
        "time": 12.667,
        "duration": 0.667,
        "velocity": 0.57,
        "hand": "right"
      },
      {
        "midi": 70,
        "time": 12.667,
        "duration": 0.667,
        "velocity": 0.57,
        "hand": "right"
      },
      {
        "midi": 48,
        "time": 13.333,
        "duration": 1.333,
        "velocity": 0.57,
        "hand": "left"
      },
      {
        "midi": 55,
        "time": 13.333,
        "duration": 0.667,
        "velocity": 0.57,
        "hand": "left"
      },
      {
        "midi": 63,
        "time": 13.333,
        "duration": 0.667,
        "velocity": 0.67,
        "hand": "right"
      },
      {
        "midi": 75,
        "time": 13.333,
        "duration": 1.333,
        "velocity": 0.67,
        "hand": "right"
      },
      {
        "midi": 57,
        "time": 14,
        "duration": 0.667,
        "velocity": 0.6,
        "hand": "left"
      },
      {
        "midi": 65,
        "time": 14,
        "duration": 0.667,
        "velocity": 0.61,
        "hand": "right"
      },
      {
        "midi": 50,
        "time": 14.667,
        "duration": 0.667,
        "velocity": 0.64,
        "hand": "left"
      },
      {
        "midi": 58,
        "time": 14.667,
        "duration": 0.667,
        "velocity": 0.64,
        "hand": "left"
      },
      {
        "midi": 65,
        "time": 14.667,
        "duration": 0.667,
        "velocity": 0.53,
        "hand": "right"
      },
      {
        "midi": 74,
        "time": 14.667,
        "duration": 0.667,
        "velocity": 0.53,
        "hand": "right"
      },
      {
        "midi": 51,
        "time": 15.333,
        "duration": 0.667,
        "velocity": 0.57,
        "hand": "left"
      },
      {
        "midi": 58,
        "time": 15.333,
        "duration": 0.667,
        "velocity": 0.57,
        "hand": "left"
      },
      {
        "midi": 67,
        "time": 15.333,
        "duration": 0.667,
        "velocity": 0.53,
        "hand": "right"
      },
      {
        "midi": 70,
        "time": 15.333,
        "duration": 0.667,
        "velocity": 0.53,
        "hand": "right"
      },
      {
        "midi": 53,
        "time": 16,
        "duration": 0.667,
        "velocity": 0.65,
        "hand": "left"
      },
      {
        "midi": 62,
        "time": 16,
        "duration": 0.667,
        "velocity": 0.65,
        "hand": "right"
      },
      {
        "midi": 65,
        "time": 16,
        "duration": 0.667,
        "velocity": 0.5,
        "hand": "right"
      },
      {
        "midi": 53,
        "time": 16.667,
        "duration": 0.667,
        "velocity": 0.59,
        "hand": "left"
      },
      {
        "midi": 58,
        "time": 16.667,
        "duration": 0.667,
        "velocity": 0.59,
        "hand": "left"
      },
      {
        "midi": 62,
        "time": 16.667,
        "duration": 0.667,
        "velocity": 0.65,
        "hand": "right"
      },
      {
        "midi": 70,
        "time": 16.667,
        "duration": 0.667,
        "velocity": 0.65,
        "hand": "right"
      },
      {
        "midi": 53,
        "time": 17.333,
        "duration": 1,
        "velocity": 0.59,
        "hand": "left"
      },
      {
        "midi": 57,
        "time": 17.333,
        "duration": 1,
        "velocity": 0.59,
        "hand": "left"
      },
      {
        "midi": 63,
        "time": 17.333,
        "duration": 1,
        "velocity": 0.69,
        "hand": "right"
      },
      {
        "midi": 72,
        "time": 17.333,
        "duration": 1,
        "velocity": 0.69,
        "hand": "right"
      },
      {
        "midi": 46,
        "time": 18.333,
        "duration": 0.333,
        "velocity": 0.6,
        "hand": "left"
      },
      {
        "midi": 58,
        "time": 18.333,
        "duration": 0.333,
        "velocity": 0.6,
        "hand": "left"
      },
      {
        "midi": 62,
        "time": 18.333,
        "duration": 0.333,
        "velocity": 0.5,
        "hand": "right"
      },
      {
        "midi": 70,
        "time": 18.333,
        "duration": 0.333,
        "velocity": 0.5,
        "hand": "right"
      },
      {
        "midi": 46,
        "time": 18.667,
        "duration": 2.667,
        "velocity": 0.54,
        "hand": "left"
      },
      {
        "midi": 58,
        "time": 18.667,
        "duration": 1.333,
        "velocity": 0.57,
        "hand": "left"
      },
      {
        "midi": 62,
        "time": 18.667,
        "duration": 2.667,
        "velocity": 0.59,
        "hand": "right"
      },
      {
        "midi": 70,
        "time": 18.667,
        "duration": 2.667,
        "velocity": 0.59,
        "hand": "right"
      },
      {
        "midi": 56,
        "time": 20,
        "duration": 1.333,
        "velocity": 0.58,
        "hand": "left"
      },
      {
        "midi": 51,
        "time": 21.333,
        "duration": 0.667,
        "velocity": 0.61,
        "hand": "left"
      },
      {
        "midi": 55,
        "time": 21.333,
        "duration": 0.667,
        "velocity": 0.61,
        "hand": "left"
      },
      {
        "midi": 58,
        "time": 21.333,
        "duration": 0.667,
        "velocity": 0.46,
        "hand": "left"
      },
      {
        "midi": 63,
        "time": 21.333,
        "duration": 0.667,
        "velocity": 0.46,
        "hand": "right"
      },
      {
        "midi": 51,
        "time": 22,
        "duration": 0.667,
        "velocity": 0.6,
        "hand": "left"
      },
      {
        "midi": 55,
        "time": 22,
        "duration": 0.667,
        "velocity": 0.6,
        "hand": "left"
      },
      {
        "midi": 58,
        "time": 22,
        "duration": 0.667,
        "velocity": 0.6,
        "hand": "left"
      },
      {
        "midi": 63,
        "time": 22,
        "duration": 0.667,
        "velocity": 0.6,
        "hand": "right"
      },
      {
        "midi": 48,
        "time": 22.667,
        "duration": 0.667,
        "velocity": 0.57,
        "hand": "left"
      },
      {
        "midi": 51,
        "time": 22.667,
        "duration": 0.667,
        "velocity": 0.57,
        "hand": "left"
      },
      {
        "midi": 63,
        "time": 22.667,
        "duration": 0.667,
        "velocity": 0.64,
        "hand": "right"
      },
      {
        "midi": 67,
        "time": 22.667,
        "duration": 0.667,
        "velocity": 0.64,
        "hand": "right"
      },
      {
        "midi": 48,
        "time": 23.333,
        "duration": 0.667,
        "velocity": 0.57,
        "hand": "left"
      },
      {
        "midi": 51,
        "time": 23.333,
        "duration": 0.667,
        "velocity": 0.57,
        "hand": "left"
      },
      {
        "midi": 63,
        "time": 23.333,
        "duration": 0.667,
        "velocity": 0.59,
        "hand": "right"
      },
      {
        "midi": 67,
        "time": 23.333,
        "duration": 0.667,
        "velocity": 0.59,
        "hand": "right"
      },
      {
        "midi": 46,
        "time": 24,
        "duration": 1.333,
        "velocity": 0.61,
        "hand": "left"
      },
      {
        "midi": 53,
        "time": 24,
        "duration": 0.667,
        "velocity": 0.61,
        "hand": "left"
      },
      {
        "midi": 62,
        "time": 24,
        "duration": 0.667,
        "velocity": 0.63,
        "hand": "right"
      },
      {
        "midi": 70,
        "time": 24,
        "duration": 1.333,
        "velocity": 0.63,
        "hand": "right"
      },
      {
        "midi": 56,
        "time": 24.667,
        "duration": 0.667,
        "velocity": 0.58,
        "hand": "left"
      },
      {
        "midi": 65,
        "time": 24.667,
        "duration": 0.667,
        "velocity": 0.63,
        "hand": "right"
      },
      {
        "midi": 51,
        "time": 25.333,
        "duration": 1.333,
        "velocity": 0.61,
        "hand": "left"
      },
      {
        "midi": 55,
        "time": 25.333,
        "duration": 0.667,
        "velocity": 0.59,
        "hand": "left"
      },
      {
        "midi": 63,
        "time": 25.333,
        "duration": 0.667,
        "velocity": 0.51,
        "hand": "right"
      },
      {
        "midi": 70,
        "time": 25.333,
        "duration": 1.333,
        "velocity": 0.61,
        "hand": "right"
      },
      {
        "midi": 58,
        "time": 26,
        "duration": 0.667,
        "velocity": 0.62,
        "hand": "left"
      },
      {
        "midi": 62,
        "time": 26,
        "duration": 0.667,
        "velocity": 0.53,
        "hand": "right"
      },
      {
        "midi": 44,
        "time": 26.667,
        "duration": 1,
        "velocity": 0.54,
        "hand": "left"
      },
      {
        "midi": 56,
        "time": 26.667,
        "duration": 0.667,
        "velocity": 0.59,
        "hand": "left"
      },
      {
        "midi": 60,
        "time": 26.667,
        "duration": 0.667,
        "velocity": 0.55,
        "hand": "right"
      },
      {
        "midi": 72,
        "time": 26.667,
        "duration": 1,
        "velocity": 0.64,
        "hand": "right"
      },
      {
        "midi": 58,
        "time": 27.333,
        "duration": 0.667,
        "velocity": 0.58,
        "hand": "left"
      },
      {
        "midi": 62,
        "time": 27.333,
        "duration": 0.667,
        "velocity": 0.66,
        "hand": "right"
      },
      {
        "midi": 44,
        "time": 27.667,
        "duration": 0.333,
        "velocity": 0.58,
        "hand": "left"
      },
      {
        "midi": 72,
        "time": 27.667,
        "duration": 0.333,
        "velocity": 0.62,
        "hand": "right"
      },
      {
        "midi": 56,
        "time": 28,
        "duration": 0.667,
        "velocity": 0.65,
        "hand": "left"
      },
      {
        "midi": 60,
        "time": 28,
        "duration": 0.667,
        "velocity": 0.65,
        "hand": "right"
      },
      {
        "midi": 63,
        "time": 28,
        "duration": 0.667,
        "velocity": 0.59,
        "hand": "right"
      },
      {
        "midi": 72,
        "time": 28,
        "duration": 0.667,
        "velocity": 0.59,
        "hand": "right"
      },
      {
        "midi": 56,
        "time": 28.667,
        "duration": 0.667,
        "velocity": 0.65,
        "hand": "left"
      },
      {
        "midi": 62,
        "time": 28.667,
        "duration": 0.667,
        "velocity": 0.65,
        "hand": "right"
      },
      {
        "midi": 65,
        "time": 28.667,
        "duration": 0.667,
        "velocity": 0.61,
        "hand": "right"
      },
      {
        "midi": 72,
        "time": 28.667,
        "duration": 0.667,
        "velocity": 0.61,
        "hand": "right"
      },
      {
        "midi": 51,
        "time": 29.333,
        "duration": 1.333,
        "velocity": 0.54,
        "hand": "left"
      },
      {
        "midi": 63,
        "time": 29.333,
        "duration": 0.667,
        "velocity": 0.62,
        "hand": "right"
      },
      {
        "midi": 67,
        "time": 29.333,
        "duration": 1.333,
        "velocity": 0.58,
        "hand": "right"
      },
      {
        "midi": 70,
        "time": 29.333,
        "duration": 1.333,
        "velocity": 0.58,
        "hand": "right"
      },
      {
        "midi": 58,
        "time": 30,
        "duration": 0.667,
        "velocity": 0.58,
        "hand": "left"
      },
      {
        "midi": 51,
        "time": 30.667,
        "duration": 1.333,
        "velocity": 0.61,
        "hand": "left"
      },
      {
        "midi": 58,
        "time": 30.667,
        "duration": 1.333,
        "velocity": 0.61,
        "hand": "left"
      },
      {
        "midi": 63,
        "time": 30.667,
        "duration": 1.333,
        "velocity": 0.57,
        "hand": "right"
      },
      {
        "midi": 70,
        "time": 30.667,
        "duration": 1.333,
        "velocity": 0.57,
        "hand": "right"
      },
      {
        "midi": 48,
        "time": 32,
        "duration": 1.333,
        "velocity": 0.52,
        "hand": "left"
      },
      {
        "midi": 55,
        "time": 32,
        "duration": 0.667,
        "velocity": 0.54,
        "hand": "left"
      },
      {
        "midi": 63,
        "time": 32,
        "duration": 1.333,
        "velocity": 0.65,
        "hand": "right"
      },
      {
        "midi": 75,
        "time": 32,
        "duration": 1.333,
        "velocity": 0.65,
        "hand": "right"
      },
      {
        "midi": 56,
        "time": 32.667,
        "duration": 0.667,
        "velocity": 0.63,
        "hand": "left"
      },
      {
        "midi": 43,
        "time": 33.333,
        "duration": 0.667,
        "velocity": 0.6,
        "hand": "left"
      },
      {
        "midi": 58,
        "time": 33.333,
        "duration": 0.667,
        "velocity": 0.6,
        "hand": "left"
      },
      {
        "midi": 63,
        "time": 33.333,
        "duration": 0.667,
        "velocity": 0.51,
        "hand": "right"
      },
      {
        "midi": 70,
        "time": 33.333,
        "duration": 0.667,
        "velocity": 0.51,
        "hand": "right"
      },
      {
        "midi": 43,
        "time": 34,
        "duration": 0.667,
        "velocity": 0.69,
        "hand": "left"
      },
      {
        "midi": 61,
        "time": 34,
        "duration": 0.667,
        "velocity": 0.69,
        "hand": "right"
      },
      {
        "midi": 63,
        "time": 34,
        "duration": 0.667,
        "velocity": 0.57,
        "hand": "right"
      },
      {
        "midi": 70,
        "time": 34,
        "duration": 0.667,
        "velocity": 0.57,
        "hand": "right"
      },
      {
        "midi": 44,
        "time": 34.667,
        "duration": 1.333,
        "velocity": 0.56,
        "hand": "left"
      },
      {
        "midi": 60,
        "time": 34.667,
        "duration": 1.333,
        "velocity": 0.56,
        "hand": "right"
      },
      {
        "midi": 63,
        "time": 34.667,
        "duration": 1.333,
        "velocity": 0.65,
        "hand": "right"
      },
      {
        "midi": 72,
        "time": 34.667,
        "duration": 1.333,
        "velocity": 0.65,
        "hand": "right"
      },
      {
        "midi": 51,
        "time": 36,
        "duration": 1.333,
        "velocity": 0.56,
        "hand": "left"
      },
      {
        "midi": 58,
        "time": 36,
        "duration": 1.333,
        "velocity": 0.56,
        "hand": "left"
      },
      {
        "midi": 63,
        "time": 36,
        "duration": 0.667,
        "velocity": 0.53,
        "hand": "right"
      },
      {
        "midi": 67,
        "time": 36,
        "duration": 1.333,
        "velocity": 0.54,
        "hand": "right"
      },
      {
        "midi": 61,
        "time": 36.667,
        "duration": 0.667,
        "velocity": 0.57,
        "hand": "right"
      },
      {
        "midi": 44,
        "time": 37.333,
        "duration": 0.667,
        "velocity": 0.58,
        "hand": "left"
      },
      {
        "midi": 56,
        "time": 37.333,
        "duration": 0.667,
        "velocity": 0.58,
        "hand": "left"
      },
      {
        "midi": 60,
        "time": 37.333,
        "duration": 0.667,
        "velocity": 0.62,
        "hand": "right"
      },
      {
        "midi": 68,
        "time": 37.333,
        "duration": 0.667,
        "velocity": 0.62,
        "hand": "right"
      },
      {
        "midi": 44,
        "time": 38,
        "duration": 0.667,
        "velocity": 0.6,
        "hand": "left"
      },
      {
        "midi": 56,
        "time": 38,
        "duration": 0.667,
        "velocity": 0.6,
        "hand": "left"
      },
      {
        "midi": 60,
        "time": 38,
        "duration": 0.667,
        "velocity": 0.53,
        "hand": "right"
      },
      {
        "midi": 65,
        "time": 38,
        "duration": 0.667,
        "velocity": 0.53,
        "hand": "right"
      },
      {
        "midi": 46,
        "time": 38.667,
        "duration": 1,
        "velocity": 0.6,
        "hand": "left"
      },
      {
        "midi": 56,
        "time": 38.667,
        "duration": 1,
        "velocity": 0.6,
        "hand": "left"
      },
      {
        "midi": 62,
        "time": 38.667,
        "duration": 1,
        "velocity": 0.58,
        "hand": "right"
      },
      {
        "midi": 65,
        "time": 38.667,
        "duration": 1,
        "velocity": 0.58,
        "hand": "right"
      },
      {
        "midi": 51,
        "time": 39.667,
        "duration": 0.333,
        "velocity": 0.57,
        "hand": "left"
      },
      {
        "midi": 55,
        "time": 39.667,
        "duration": 0.333,
        "velocity": 0.57,
        "hand": "left"
      },
      {
        "midi": 63,
        "time": 39.667,
        "duration": 0.333,
        "velocity": 0.54,
        "hand": "right"
      },
      {
        "midi": 51,
        "time": 40,
        "duration": 2.667,
        "velocity": 0.58,
        "hand": "left"
      },
      {
        "midi": 55,
        "time": 40,
        "duration": 2.667,
        "velocity": 0.58,
        "hand": "left"
      },
      {
        "midi": 63,
        "time": 40,
        "duration": 2.667,
        "velocity": 0.56,
        "hand": "right"
      }
    ]
  },
  "notes1Hand": [
    {
      "midi": 63,
      "time": 0,
      "duration": 0.667,
      "velocity": 0.57,
      "hand": "right"
    },
    {
      "midi": 63,
      "time": 0.667,
      "duration": 0.667,
      "velocity": 0.57,
      "hand": "right"
    },
    {
      "midi": 67,
      "time": 1.333,
      "duration": 0.667,
      "velocity": 0.66,
      "hand": "right"
    },
    {
      "midi": 67,
      "time": 2,
      "duration": 0.667,
      "velocity": 0.6,
      "hand": "right"
    },
    {
      "midi": 70,
      "time": 2.667,
      "duration": 1.333,
      "velocity": 0.61,
      "hand": "right"
    },
    {
      "midi": 65,
      "time": 3.333,
      "duration": 0.667,
      "velocity": 0.61,
      "hand": "right"
    },
    {
      "midi": 70,
      "time": 4,
      "duration": 1.333,
      "velocity": 0.61,
      "hand": "right"
    },
    {
      "midi": 62,
      "time": 4.667,
      "duration": 0.667,
      "velocity": 0.54,
      "hand": "right"
    },
    {
      "midi": 72,
      "time": 5.333,
      "duration": 1.333,
      "velocity": 0.61,
      "hand": "right"
    },
    {
      "midi": 62,
      "time": 6,
      "duration": 0.667,
      "velocity": 0.61,
      "hand": "right"
    },
    {
      "midi": 72,
      "time": 6.667,
      "duration": 0.667,
      "velocity": 0.59,
      "hand": "right"
    },
    {
      "midi": 72,
      "time": 7.333,
      "duration": 0.667,
      "velocity": 0.57,
      "hand": "right"
    },
    {
      "midi": 70,
      "time": 8,
      "duration": 1.333,
      "velocity": 0.6,
      "hand": "right"
    },
    {
      "midi": 58,
      "time": 8.667,
      "duration": 0.667,
      "velocity": 0.57,
      "hand": "right"
    },
    {
      "midi": 67,
      "time": 9.333,
      "duration": 1.333,
      "velocity": 0.57,
      "hand": "right"
    },
    {
      "midi": 70,
      "time": 10.667,
      "duration": 1,
      "velocity": 0.66,
      "hand": "right"
    },
    {
      "midi": 65,
      "time": 11.333,
      "duration": 0.667,
      "velocity": 0.61,
      "hand": "right"
    },
    {
      "midi": 70,
      "time": 11.667,
      "duration": 0.333,
      "velocity": 0.6,
      "hand": "right"
    },
    {
      "midi": 70,
      "time": 12,
      "duration": 0.667,
      "velocity": 0.63,
      "hand": "right"
    },
    {
      "midi": 70,
      "time": 12.667,
      "duration": 0.667,
      "velocity": 0.57,
      "hand": "right"
    },
    {
      "midi": 75,
      "time": 13.333,
      "duration": 1.333,
      "velocity": 0.67,
      "hand": "right"
    },
    {
      "midi": 65,
      "time": 14,
      "duration": 0.667,
      "velocity": 0.61,
      "hand": "right"
    },
    {
      "midi": 74,
      "time": 14.667,
      "duration": 0.667,
      "velocity": 0.53,
      "hand": "right"
    },
    {
      "midi": 70,
      "time": 15.333,
      "duration": 0.667,
      "velocity": 0.53,
      "hand": "right"
    },
    {
      "midi": 65,
      "time": 16,
      "duration": 0.667,
      "velocity": 0.5,
      "hand": "right"
    },
    {
      "midi": 70,
      "time": 16.667,
      "duration": 0.667,
      "velocity": 0.65,
      "hand": "right"
    },
    {
      "midi": 72,
      "time": 17.333,
      "duration": 1,
      "velocity": 0.69,
      "hand": "right"
    },
    {
      "midi": 70,
      "time": 18.333,
      "duration": 0.333,
      "velocity": 0.5,
      "hand": "right"
    },
    {
      "midi": 70,
      "time": 18.667,
      "duration": 2.667,
      "velocity": 0.59,
      "hand": "right"
    },
    {
      "midi": 56,
      "time": 20,
      "duration": 1.333,
      "velocity": 0.58,
      "hand": "right"
    },
    {
      "midi": 63,
      "time": 21.333,
      "duration": 0.667,
      "velocity": 0.46,
      "hand": "right"
    },
    {
      "midi": 63,
      "time": 22,
      "duration": 0.667,
      "velocity": 0.6,
      "hand": "right"
    },
    {
      "midi": 67,
      "time": 22.667,
      "duration": 0.667,
      "velocity": 0.64,
      "hand": "right"
    },
    {
      "midi": 67,
      "time": 23.333,
      "duration": 0.667,
      "velocity": 0.59,
      "hand": "right"
    },
    {
      "midi": 70,
      "time": 24,
      "duration": 1.333,
      "velocity": 0.63,
      "hand": "right"
    },
    {
      "midi": 65,
      "time": 24.667,
      "duration": 0.667,
      "velocity": 0.63,
      "hand": "right"
    },
    {
      "midi": 70,
      "time": 25.333,
      "duration": 1.333,
      "velocity": 0.61,
      "hand": "right"
    },
    {
      "midi": 62,
      "time": 26,
      "duration": 0.667,
      "velocity": 0.53,
      "hand": "right"
    },
    {
      "midi": 72,
      "time": 26.667,
      "duration": 1,
      "velocity": 0.64,
      "hand": "right"
    },
    {
      "midi": 62,
      "time": 27.333,
      "duration": 0.667,
      "velocity": 0.66,
      "hand": "right"
    },
    {
      "midi": 72,
      "time": 27.667,
      "duration": 0.333,
      "velocity": 0.62,
      "hand": "right"
    },
    {
      "midi": 72,
      "time": 28,
      "duration": 0.667,
      "velocity": 0.59,
      "hand": "right"
    },
    {
      "midi": 72,
      "time": 28.667,
      "duration": 0.667,
      "velocity": 0.61,
      "hand": "right"
    },
    {
      "midi": 70,
      "time": 29.333,
      "duration": 1.333,
      "velocity": 0.58,
      "hand": "right"
    },
    {
      "midi": 58,
      "time": 30,
      "duration": 0.667,
      "velocity": 0.58,
      "hand": "right"
    },
    {
      "midi": 70,
      "time": 30.667,
      "duration": 1.333,
      "velocity": 0.57,
      "hand": "right"
    },
    {
      "midi": 75,
      "time": 32,
      "duration": 1.333,
      "velocity": 0.65,
      "hand": "right"
    },
    {
      "midi": 56,
      "time": 32.667,
      "duration": 0.667,
      "velocity": 0.63,
      "hand": "right"
    },
    {
      "midi": 70,
      "time": 33.333,
      "duration": 0.667,
      "velocity": 0.51,
      "hand": "right"
    },
    {
      "midi": 70,
      "time": 34,
      "duration": 0.667,
      "velocity": 0.57,
      "hand": "right"
    },
    {
      "midi": 72,
      "time": 34.667,
      "duration": 1.333,
      "velocity": 0.65,
      "hand": "right"
    },
    {
      "midi": 67,
      "time": 36,
      "duration": 1.333,
      "velocity": 0.54,
      "hand": "right"
    },
    {
      "midi": 61,
      "time": 36.667,
      "duration": 0.667,
      "velocity": 0.57,
      "hand": "right"
    },
    {
      "midi": 68,
      "time": 37.333,
      "duration": 0.667,
      "velocity": 0.62,
      "hand": "right"
    },
    {
      "midi": 65,
      "time": 38,
      "duration": 0.667,
      "velocity": 0.53,
      "hand": "right"
    },
    {
      "midi": 65,
      "time": 38.667,
      "duration": 1,
      "velocity": 0.58,
      "hand": "right"
    },
    {
      "midi": 63,
      "time": 39.667,
      "duration": 0.333,
      "velocity": 0.54,
      "hand": "right"
    },
    {
      "midi": 63,
      "time": 40,
      "duration": 2.667,
      "velocity": 0.56,
      "hand": "right"
    }
  ],
  "notes2Hands": [
    {
      "midi": 51,
      "time": 0,
      "duration": 0.667,
      "velocity": 0.56,
      "hand": "left"
    },
    {
      "midi": 55,
      "time": 0,
      "duration": 0.667,
      "velocity": 0.56,
      "hand": "left"
    },
    {
      "midi": 58,
      "time": 0,
      "duration": 0.667,
      "velocity": 0.57,
      "hand": "left"
    },
    {
      "midi": 63,
      "time": 0,
      "duration": 0.667,
      "velocity": 0.57,
      "hand": "right"
    },
    {
      "midi": 51,
      "time": 0.667,
      "duration": 0.667,
      "velocity": 0.57,
      "hand": "left"
    },
    {
      "midi": 55,
      "time": 0.667,
      "duration": 0.667,
      "velocity": 0.57,
      "hand": "left"
    },
    {
      "midi": 58,
      "time": 0.667,
      "duration": 0.667,
      "velocity": 0.57,
      "hand": "left"
    },
    {
      "midi": 63,
      "time": 0.667,
      "duration": 0.667,
      "velocity": 0.57,
      "hand": "right"
    },
    {
      "midi": 48,
      "time": 1.333,
      "duration": 0.667,
      "velocity": 0.54,
      "hand": "left"
    },
    {
      "midi": 51,
      "time": 1.333,
      "duration": 0.667,
      "velocity": 0.54,
      "hand": "left"
    },
    {
      "midi": 63,
      "time": 1.333,
      "duration": 0.667,
      "velocity": 0.66,
      "hand": "right"
    },
    {
      "midi": 67,
      "time": 1.333,
      "duration": 0.667,
      "velocity": 0.66,
      "hand": "right"
    },
    {
      "midi": 48,
      "time": 2,
      "duration": 0.667,
      "velocity": 0.57,
      "hand": "left"
    },
    {
      "midi": 51,
      "time": 2,
      "duration": 0.667,
      "velocity": 0.57,
      "hand": "left"
    },
    {
      "midi": 63,
      "time": 2,
      "duration": 0.667,
      "velocity": 0.6,
      "hand": "right"
    },
    {
      "midi": 67,
      "time": 2,
      "duration": 0.667,
      "velocity": 0.6,
      "hand": "right"
    },
    {
      "midi": 46,
      "time": 2.667,
      "duration": 1.333,
      "velocity": 0.54,
      "hand": "left"
    },
    {
      "midi": 53,
      "time": 2.667,
      "duration": 0.667,
      "velocity": 0.59,
      "hand": "left"
    },
    {
      "midi": 62,
      "time": 2.667,
      "duration": 0.667,
      "velocity": 0.54,
      "hand": "right"
    },
    {
      "midi": 70,
      "time": 2.667,
      "duration": 1.333,
      "velocity": 0.61,
      "hand": "right"
    },
    {
      "midi": 56,
      "time": 3.333,
      "duration": 0.667,
      "velocity": 0.63,
      "hand": "left"
    },
    {
      "midi": 65,
      "time": 3.333,
      "duration": 0.667,
      "velocity": 0.61,
      "hand": "right"
    },
    {
      "midi": 51,
      "time": 4,
      "duration": 1.333,
      "velocity": 0.66,
      "hand": "left"
    },
    {
      "midi": 55,
      "time": 4,
      "duration": 0.667,
      "velocity": 0.6,
      "hand": "left"
    },
    {
      "midi": 63,
      "time": 4,
      "duration": 0.667,
      "velocity": 0.54,
      "hand": "right"
    },
    {
      "midi": 70,
      "time": 4,
      "duration": 1.333,
      "velocity": 0.61,
      "hand": "right"
    },
    {
      "midi": 58,
      "time": 4.667,
      "duration": 0.667,
      "velocity": 0.62,
      "hand": "left"
    },
    {
      "midi": 62,
      "time": 4.667,
      "duration": 0.667,
      "velocity": 0.54,
      "hand": "right"
    },
    {
      "midi": 44,
      "time": 5.333,
      "duration": 1.333,
      "velocity": 0.61,
      "hand": "left"
    },
    {
      "midi": 56,
      "time": 5.333,
      "duration": 0.667,
      "velocity": 0.61,
      "hand": "left"
    },
    {
      "midi": 60,
      "time": 5.333,
      "duration": 0.667,
      "velocity": 0.61,
      "hand": "right"
    },
    {
      "midi": 72,
      "time": 5.333,
      "duration": 1.333,
      "velocity": 0.61,
      "hand": "right"
    },
    {
      "midi": 58,
      "time": 6,
      "duration": 0.667,
      "velocity": 0.61,
      "hand": "left"
    },
    {
      "midi": 62,
      "time": 6,
      "duration": 0.667,
      "velocity": 0.61,
      "hand": "right"
    },
    {
      "midi": 56,
      "time": 6.667,
      "duration": 0.667,
      "velocity": 0.63,
      "hand": "left"
    },
    {
      "midi": 60,
      "time": 6.667,
      "duration": 0.667,
      "velocity": 0.63,
      "hand": "right"
    },
    {
      "midi": 63,
      "time": 6.667,
      "duration": 0.667,
      "velocity": 0.59,
      "hand": "right"
    },
    {
      "midi": 72,
      "time": 6.667,
      "duration": 0.667,
      "velocity": 0.59,
      "hand": "right"
    },
    {
      "midi": 56,
      "time": 7.333,
      "duration": 0.667,
      "velocity": 0.63,
      "hand": "left"
    },
    {
      "midi": 62,
      "time": 7.333,
      "duration": 0.667,
      "velocity": 0.63,
      "hand": "right"
    },
    {
      "midi": 65,
      "time": 7.333,
      "duration": 0.667,
      "velocity": 0.57,
      "hand": "right"
    },
    {
      "midi": 72,
      "time": 7.333,
      "duration": 0.667,
      "velocity": 0.57,
      "hand": "right"
    },
    {
      "midi": 51,
      "time": 8,
      "duration": 1.333,
      "velocity": 0.61,
      "hand": "left"
    },
    {
      "midi": 63,
      "time": 8,
      "duration": 0.667,
      "velocity": 0.62,
      "hand": "right"
    },
    {
      "midi": 67,
      "time": 8,
      "duration": 1.333,
      "velocity": 0.6,
      "hand": "right"
    },
    {
      "midi": 70,
      "time": 8,
      "duration": 1.333,
      "velocity": 0.6,
      "hand": "right"
    },
    {
      "midi": 58,
      "time": 8.667,
      "duration": 0.667,
      "velocity": 0.57,
      "hand": "left"
    },
    {
      "midi": 51,
      "time": 9.333,
      "duration": 1.333,
      "velocity": 0.65,
      "hand": "left"
    },
    {
      "midi": 58,
      "time": 9.333,
      "duration": 1.333,
      "velocity": 0.65,
      "hand": "left"
    },
    {
      "midi": 63,
      "time": 9.333,
      "duration": 1.333,
      "velocity": 0.57,
      "hand": "right"
    },
    {
      "midi": 67,
      "time": 9.333,
      "duration": 1.333,
      "velocity": 0.57,
      "hand": "right"
    },
    {
      "midi": 50,
      "time": 10.667,
      "duration": 0.667,
      "velocity": 0.62,
      "hand": "left"
    },
    {
      "midi": 58,
      "time": 10.667,
      "duration": 0.667,
      "velocity": 0.62,
      "hand": "left"
    },
    {
      "midi": 65,
      "time": 10.667,
      "duration": 0.667,
      "velocity": 0.63,
      "hand": "right"
    },
    {
      "midi": 70,
      "time": 10.667,
      "duration": 1,
      "velocity": 0.66,
      "hand": "right"
    },
    {
      "midi": 50,
      "time": 11.333,
      "duration": 0.667,
      "velocity": 0.57,
      "hand": "left"
    },
    {
      "midi": 58,
      "time": 11.333,
      "duration": 0.667,
      "velocity": 0.57,
      "hand": "left"
    },
    {
      "midi": 65,
      "time": 11.333,
      "duration": 0.667,
      "velocity": 0.61,
      "hand": "right"
    },
    {
      "midi": 70,
      "time": 11.667,
      "duration": 0.333,
      "velocity": 0.6,
      "hand": "right"
    },
    {
      "midi": 51,
      "time": 12,
      "duration": 0.667,
      "velocity": 0.61,
      "hand": "left"
    },
    {
      "midi": 58,
      "time": 12,
      "duration": 0.667,
      "velocity": 0.61,
      "hand": "left"
    },
    {
      "midi": 67,
      "time": 12,
      "duration": 0.667,
      "velocity": 0.63,
      "hand": "right"
    },
    {
      "midi": 70,
      "time": 12,
      "duration": 0.667,
      "velocity": 0.63,
      "hand": "right"
    },
    {
      "midi": 50,
      "time": 12.667,
      "duration": 0.667,
      "velocity": 0.64,
      "hand": "left"
    },
    {
      "midi": 58,
      "time": 12.667,
      "duration": 0.667,
      "velocity": 0.64,
      "hand": "left"
    },
    {
      "midi": 65,
      "time": 12.667,
      "duration": 0.667,
      "velocity": 0.57,
      "hand": "right"
    },
    {
      "midi": 70,
      "time": 12.667,
      "duration": 0.667,
      "velocity": 0.57,
      "hand": "right"
    },
    {
      "midi": 48,
      "time": 13.333,
      "duration": 1.333,
      "velocity": 0.57,
      "hand": "left"
    },
    {
      "midi": 55,
      "time": 13.333,
      "duration": 0.667,
      "velocity": 0.57,
      "hand": "left"
    },
    {
      "midi": 63,
      "time": 13.333,
      "duration": 0.667,
      "velocity": 0.67,
      "hand": "right"
    },
    {
      "midi": 75,
      "time": 13.333,
      "duration": 1.333,
      "velocity": 0.67,
      "hand": "right"
    },
    {
      "midi": 57,
      "time": 14,
      "duration": 0.667,
      "velocity": 0.6,
      "hand": "left"
    },
    {
      "midi": 65,
      "time": 14,
      "duration": 0.667,
      "velocity": 0.61,
      "hand": "right"
    },
    {
      "midi": 50,
      "time": 14.667,
      "duration": 0.667,
      "velocity": 0.64,
      "hand": "left"
    },
    {
      "midi": 58,
      "time": 14.667,
      "duration": 0.667,
      "velocity": 0.64,
      "hand": "left"
    },
    {
      "midi": 65,
      "time": 14.667,
      "duration": 0.667,
      "velocity": 0.53,
      "hand": "right"
    },
    {
      "midi": 74,
      "time": 14.667,
      "duration": 0.667,
      "velocity": 0.53,
      "hand": "right"
    },
    {
      "midi": 51,
      "time": 15.333,
      "duration": 0.667,
      "velocity": 0.57,
      "hand": "left"
    },
    {
      "midi": 58,
      "time": 15.333,
      "duration": 0.667,
      "velocity": 0.57,
      "hand": "left"
    },
    {
      "midi": 67,
      "time": 15.333,
      "duration": 0.667,
      "velocity": 0.53,
      "hand": "right"
    },
    {
      "midi": 70,
      "time": 15.333,
      "duration": 0.667,
      "velocity": 0.53,
      "hand": "right"
    },
    {
      "midi": 53,
      "time": 16,
      "duration": 0.667,
      "velocity": 0.65,
      "hand": "left"
    },
    {
      "midi": 62,
      "time": 16,
      "duration": 0.667,
      "velocity": 0.65,
      "hand": "right"
    },
    {
      "midi": 65,
      "time": 16,
      "duration": 0.667,
      "velocity": 0.5,
      "hand": "right"
    },
    {
      "midi": 53,
      "time": 16.667,
      "duration": 0.667,
      "velocity": 0.59,
      "hand": "left"
    },
    {
      "midi": 58,
      "time": 16.667,
      "duration": 0.667,
      "velocity": 0.59,
      "hand": "left"
    },
    {
      "midi": 62,
      "time": 16.667,
      "duration": 0.667,
      "velocity": 0.65,
      "hand": "right"
    },
    {
      "midi": 70,
      "time": 16.667,
      "duration": 0.667,
      "velocity": 0.65,
      "hand": "right"
    },
    {
      "midi": 53,
      "time": 17.333,
      "duration": 1,
      "velocity": 0.59,
      "hand": "left"
    },
    {
      "midi": 57,
      "time": 17.333,
      "duration": 1,
      "velocity": 0.59,
      "hand": "left"
    },
    {
      "midi": 63,
      "time": 17.333,
      "duration": 1,
      "velocity": 0.69,
      "hand": "right"
    },
    {
      "midi": 72,
      "time": 17.333,
      "duration": 1,
      "velocity": 0.69,
      "hand": "right"
    },
    {
      "midi": 46,
      "time": 18.333,
      "duration": 0.333,
      "velocity": 0.6,
      "hand": "left"
    },
    {
      "midi": 58,
      "time": 18.333,
      "duration": 0.333,
      "velocity": 0.6,
      "hand": "left"
    },
    {
      "midi": 62,
      "time": 18.333,
      "duration": 0.333,
      "velocity": 0.5,
      "hand": "right"
    },
    {
      "midi": 70,
      "time": 18.333,
      "duration": 0.333,
      "velocity": 0.5,
      "hand": "right"
    },
    {
      "midi": 46,
      "time": 18.667,
      "duration": 2.667,
      "velocity": 0.54,
      "hand": "left"
    },
    {
      "midi": 58,
      "time": 18.667,
      "duration": 1.333,
      "velocity": 0.57,
      "hand": "left"
    },
    {
      "midi": 62,
      "time": 18.667,
      "duration": 2.667,
      "velocity": 0.59,
      "hand": "right"
    },
    {
      "midi": 70,
      "time": 18.667,
      "duration": 2.667,
      "velocity": 0.59,
      "hand": "right"
    },
    {
      "midi": 56,
      "time": 20,
      "duration": 1.333,
      "velocity": 0.58,
      "hand": "left"
    },
    {
      "midi": 51,
      "time": 21.333,
      "duration": 0.667,
      "velocity": 0.61,
      "hand": "left"
    },
    {
      "midi": 55,
      "time": 21.333,
      "duration": 0.667,
      "velocity": 0.61,
      "hand": "left"
    },
    {
      "midi": 58,
      "time": 21.333,
      "duration": 0.667,
      "velocity": 0.46,
      "hand": "left"
    },
    {
      "midi": 63,
      "time": 21.333,
      "duration": 0.667,
      "velocity": 0.46,
      "hand": "right"
    },
    {
      "midi": 51,
      "time": 22,
      "duration": 0.667,
      "velocity": 0.6,
      "hand": "left"
    },
    {
      "midi": 55,
      "time": 22,
      "duration": 0.667,
      "velocity": 0.6,
      "hand": "left"
    },
    {
      "midi": 58,
      "time": 22,
      "duration": 0.667,
      "velocity": 0.6,
      "hand": "left"
    },
    {
      "midi": 63,
      "time": 22,
      "duration": 0.667,
      "velocity": 0.6,
      "hand": "right"
    },
    {
      "midi": 48,
      "time": 22.667,
      "duration": 0.667,
      "velocity": 0.57,
      "hand": "left"
    },
    {
      "midi": 51,
      "time": 22.667,
      "duration": 0.667,
      "velocity": 0.57,
      "hand": "left"
    },
    {
      "midi": 63,
      "time": 22.667,
      "duration": 0.667,
      "velocity": 0.64,
      "hand": "right"
    },
    {
      "midi": 67,
      "time": 22.667,
      "duration": 0.667,
      "velocity": 0.64,
      "hand": "right"
    },
    {
      "midi": 48,
      "time": 23.333,
      "duration": 0.667,
      "velocity": 0.57,
      "hand": "left"
    },
    {
      "midi": 51,
      "time": 23.333,
      "duration": 0.667,
      "velocity": 0.57,
      "hand": "left"
    },
    {
      "midi": 63,
      "time": 23.333,
      "duration": 0.667,
      "velocity": 0.59,
      "hand": "right"
    },
    {
      "midi": 67,
      "time": 23.333,
      "duration": 0.667,
      "velocity": 0.59,
      "hand": "right"
    },
    {
      "midi": 46,
      "time": 24,
      "duration": 1.333,
      "velocity": 0.61,
      "hand": "left"
    },
    {
      "midi": 53,
      "time": 24,
      "duration": 0.667,
      "velocity": 0.61,
      "hand": "left"
    },
    {
      "midi": 62,
      "time": 24,
      "duration": 0.667,
      "velocity": 0.63,
      "hand": "right"
    },
    {
      "midi": 70,
      "time": 24,
      "duration": 1.333,
      "velocity": 0.63,
      "hand": "right"
    },
    {
      "midi": 56,
      "time": 24.667,
      "duration": 0.667,
      "velocity": 0.58,
      "hand": "left"
    },
    {
      "midi": 65,
      "time": 24.667,
      "duration": 0.667,
      "velocity": 0.63,
      "hand": "right"
    },
    {
      "midi": 51,
      "time": 25.333,
      "duration": 1.333,
      "velocity": 0.61,
      "hand": "left"
    },
    {
      "midi": 55,
      "time": 25.333,
      "duration": 0.667,
      "velocity": 0.59,
      "hand": "left"
    },
    {
      "midi": 63,
      "time": 25.333,
      "duration": 0.667,
      "velocity": 0.51,
      "hand": "right"
    },
    {
      "midi": 70,
      "time": 25.333,
      "duration": 1.333,
      "velocity": 0.61,
      "hand": "right"
    },
    {
      "midi": 58,
      "time": 26,
      "duration": 0.667,
      "velocity": 0.62,
      "hand": "left"
    },
    {
      "midi": 62,
      "time": 26,
      "duration": 0.667,
      "velocity": 0.53,
      "hand": "right"
    },
    {
      "midi": 44,
      "time": 26.667,
      "duration": 1,
      "velocity": 0.54,
      "hand": "left"
    },
    {
      "midi": 56,
      "time": 26.667,
      "duration": 0.667,
      "velocity": 0.59,
      "hand": "left"
    },
    {
      "midi": 60,
      "time": 26.667,
      "duration": 0.667,
      "velocity": 0.55,
      "hand": "right"
    },
    {
      "midi": 72,
      "time": 26.667,
      "duration": 1,
      "velocity": 0.64,
      "hand": "right"
    },
    {
      "midi": 58,
      "time": 27.333,
      "duration": 0.667,
      "velocity": 0.58,
      "hand": "left"
    },
    {
      "midi": 62,
      "time": 27.333,
      "duration": 0.667,
      "velocity": 0.66,
      "hand": "right"
    },
    {
      "midi": 44,
      "time": 27.667,
      "duration": 0.333,
      "velocity": 0.58,
      "hand": "left"
    },
    {
      "midi": 72,
      "time": 27.667,
      "duration": 0.333,
      "velocity": 0.62,
      "hand": "right"
    },
    {
      "midi": 56,
      "time": 28,
      "duration": 0.667,
      "velocity": 0.65,
      "hand": "left"
    },
    {
      "midi": 60,
      "time": 28,
      "duration": 0.667,
      "velocity": 0.65,
      "hand": "right"
    },
    {
      "midi": 63,
      "time": 28,
      "duration": 0.667,
      "velocity": 0.59,
      "hand": "right"
    },
    {
      "midi": 72,
      "time": 28,
      "duration": 0.667,
      "velocity": 0.59,
      "hand": "right"
    },
    {
      "midi": 56,
      "time": 28.667,
      "duration": 0.667,
      "velocity": 0.65,
      "hand": "left"
    },
    {
      "midi": 62,
      "time": 28.667,
      "duration": 0.667,
      "velocity": 0.65,
      "hand": "right"
    },
    {
      "midi": 65,
      "time": 28.667,
      "duration": 0.667,
      "velocity": 0.61,
      "hand": "right"
    },
    {
      "midi": 72,
      "time": 28.667,
      "duration": 0.667,
      "velocity": 0.61,
      "hand": "right"
    },
    {
      "midi": 51,
      "time": 29.333,
      "duration": 1.333,
      "velocity": 0.54,
      "hand": "left"
    },
    {
      "midi": 63,
      "time": 29.333,
      "duration": 0.667,
      "velocity": 0.62,
      "hand": "right"
    },
    {
      "midi": 67,
      "time": 29.333,
      "duration": 1.333,
      "velocity": 0.58,
      "hand": "right"
    },
    {
      "midi": 70,
      "time": 29.333,
      "duration": 1.333,
      "velocity": 0.58,
      "hand": "right"
    },
    {
      "midi": 58,
      "time": 30,
      "duration": 0.667,
      "velocity": 0.58,
      "hand": "left"
    },
    {
      "midi": 51,
      "time": 30.667,
      "duration": 1.333,
      "velocity": 0.61,
      "hand": "left"
    },
    {
      "midi": 58,
      "time": 30.667,
      "duration": 1.333,
      "velocity": 0.61,
      "hand": "left"
    },
    {
      "midi": 63,
      "time": 30.667,
      "duration": 1.333,
      "velocity": 0.57,
      "hand": "right"
    },
    {
      "midi": 70,
      "time": 30.667,
      "duration": 1.333,
      "velocity": 0.57,
      "hand": "right"
    },
    {
      "midi": 48,
      "time": 32,
      "duration": 1.333,
      "velocity": 0.52,
      "hand": "left"
    },
    {
      "midi": 55,
      "time": 32,
      "duration": 0.667,
      "velocity": 0.54,
      "hand": "left"
    },
    {
      "midi": 63,
      "time": 32,
      "duration": 1.333,
      "velocity": 0.65,
      "hand": "right"
    },
    {
      "midi": 75,
      "time": 32,
      "duration": 1.333,
      "velocity": 0.65,
      "hand": "right"
    },
    {
      "midi": 56,
      "time": 32.667,
      "duration": 0.667,
      "velocity": 0.63,
      "hand": "left"
    },
    {
      "midi": 43,
      "time": 33.333,
      "duration": 0.667,
      "velocity": 0.6,
      "hand": "left"
    },
    {
      "midi": 58,
      "time": 33.333,
      "duration": 0.667,
      "velocity": 0.6,
      "hand": "left"
    },
    {
      "midi": 63,
      "time": 33.333,
      "duration": 0.667,
      "velocity": 0.51,
      "hand": "right"
    },
    {
      "midi": 70,
      "time": 33.333,
      "duration": 0.667,
      "velocity": 0.51,
      "hand": "right"
    },
    {
      "midi": 43,
      "time": 34,
      "duration": 0.667,
      "velocity": 0.69,
      "hand": "left"
    },
    {
      "midi": 61,
      "time": 34,
      "duration": 0.667,
      "velocity": 0.69,
      "hand": "right"
    },
    {
      "midi": 63,
      "time": 34,
      "duration": 0.667,
      "velocity": 0.57,
      "hand": "right"
    },
    {
      "midi": 70,
      "time": 34,
      "duration": 0.667,
      "velocity": 0.57,
      "hand": "right"
    },
    {
      "midi": 44,
      "time": 34.667,
      "duration": 1.333,
      "velocity": 0.56,
      "hand": "left"
    },
    {
      "midi": 60,
      "time": 34.667,
      "duration": 1.333,
      "velocity": 0.56,
      "hand": "right"
    },
    {
      "midi": 63,
      "time": 34.667,
      "duration": 1.333,
      "velocity": 0.65,
      "hand": "right"
    },
    {
      "midi": 72,
      "time": 34.667,
      "duration": 1.333,
      "velocity": 0.65,
      "hand": "right"
    },
    {
      "midi": 51,
      "time": 36,
      "duration": 1.333,
      "velocity": 0.56,
      "hand": "left"
    },
    {
      "midi": 58,
      "time": 36,
      "duration": 1.333,
      "velocity": 0.56,
      "hand": "left"
    },
    {
      "midi": 63,
      "time": 36,
      "duration": 0.667,
      "velocity": 0.53,
      "hand": "right"
    },
    {
      "midi": 67,
      "time": 36,
      "duration": 1.333,
      "velocity": 0.54,
      "hand": "right"
    },
    {
      "midi": 61,
      "time": 36.667,
      "duration": 0.667,
      "velocity": 0.57,
      "hand": "right"
    },
    {
      "midi": 44,
      "time": 37.333,
      "duration": 0.667,
      "velocity": 0.58,
      "hand": "left"
    },
    {
      "midi": 56,
      "time": 37.333,
      "duration": 0.667,
      "velocity": 0.58,
      "hand": "left"
    },
    {
      "midi": 60,
      "time": 37.333,
      "duration": 0.667,
      "velocity": 0.62,
      "hand": "right"
    },
    {
      "midi": 68,
      "time": 37.333,
      "duration": 0.667,
      "velocity": 0.62,
      "hand": "right"
    },
    {
      "midi": 44,
      "time": 38,
      "duration": 0.667,
      "velocity": 0.6,
      "hand": "left"
    },
    {
      "midi": 56,
      "time": 38,
      "duration": 0.667,
      "velocity": 0.6,
      "hand": "left"
    },
    {
      "midi": 60,
      "time": 38,
      "duration": 0.667,
      "velocity": 0.53,
      "hand": "right"
    },
    {
      "midi": 65,
      "time": 38,
      "duration": 0.667,
      "velocity": 0.53,
      "hand": "right"
    },
    {
      "midi": 46,
      "time": 38.667,
      "duration": 1,
      "velocity": 0.6,
      "hand": "left"
    },
    {
      "midi": 56,
      "time": 38.667,
      "duration": 1,
      "velocity": 0.6,
      "hand": "left"
    },
    {
      "midi": 62,
      "time": 38.667,
      "duration": 1,
      "velocity": 0.58,
      "hand": "right"
    },
    {
      "midi": 65,
      "time": 38.667,
      "duration": 1,
      "velocity": 0.58,
      "hand": "right"
    },
    {
      "midi": 51,
      "time": 39.667,
      "duration": 0.333,
      "velocity": 0.57,
      "hand": "left"
    },
    {
      "midi": 55,
      "time": 39.667,
      "duration": 0.333,
      "velocity": 0.57,
      "hand": "left"
    },
    {
      "midi": 63,
      "time": 39.667,
      "duration": 0.333,
      "velocity": 0.54,
      "hand": "right"
    },
    {
      "midi": 51,
      "time": 40,
      "duration": 2.667,
      "velocity": 0.58,
      "hand": "left"
    },
    {
      "midi": 55,
      "time": 40,
      "duration": 2.667,
      "velocity": 0.58,
      "hand": "left"
    },
    {
      "midi": 63,
      "time": 40,
      "duration": 2.667,
      "velocity": 0.56,
      "hand": "right"
    }
  ]
}
