{
  "id": "sapo-cururu",
  "title": "Sapo Cururu",
  "artist": "Tradicional",
  "difficulty": "Fácil",
  "bpm": 80,
  "duration": 36,
  "category": "Infantis",
  "isPremium": false,
  "coverUrl": "/images/covers/placeholder.png",
  "notes": [
    {
      "midi": 64,
      "time": 0,
      "duration": 0.75,
      "velocity": 0.55,
      "hand": "right"
    },
    {
      "midi": 67,
      "time": 0,
      "duration": 1.5,
      "velocity": 0.54,
      "hand": "right"
    },
    {
      "midi": 72,
      "time": 0,
      "duration": 1.5,
      "velocity": 0.52,
      "hand": "right"
    },
    {
      "midi": 79,
      "time": 0,
      "duration": 0.375,
      "velocity": 0.53,
      "hand": "right"
    },
    {
      "midi": 81,
      "time": 0.375,
      "duration": 0.375,
      "velocity": 0.65,
      "hand": "right"
    },
    {
      "midi": 62,
      "time": 0.75,
      "duration": 0.75,
      "velocity": 0.56,
      "hand": "right"
    },
    {
      "midi": 79,
      "time": 0.75,
      "duration": 0.375,
      "velocity": 0.57,
      "hand": "right"
    },
    {
      "midi": 76,
      "time": 1.125,
      "duration": 0.375,
      "velocity": 0.54,
      "hand": "right"
    },
    {
      "midi": 60,
      "time": 1.5,
      "duration": 0.75,
      "velocity": 0.51,
      "hand": "right"
    },
    {
      "midi": 69,
      "time": 1.5,
      "duration": 1.5,
      "velocity": 0.61,
      "hand": "right"
    },
    {
      "midi": 72,
      "time": 1.5,
      "duration": 1.5,
      "velocity": 0.55,
      "hand": "right"
    },
    {
      "midi": 84,
      "time": 1.5,
      "duration": 1.5,
      "velocity": 0.69,
      "hand": "right"
    },
    {
      "midi": 59,
      "time": 2.25,
      "duration": 0.75,
      "velocity": 0.56,
      "hand": "left"
    },
    {
      "midi": 60,
      "time": 3,
      "duration": 0.75,
      "velocity": 0.62,
      "hand": "right"
    },
    {
      "midi": 67,
      "time": 3,
      "duration": 0.75,
      "velocity": 0.57,
      "hand": "right"
    },
    {
      "midi": 76,
      "time": 3,
      "duration": 0.375,
      "velocity": 0.68,
      "hand": "right"
    },
    {
      "midi": 79,
      "time": 3,
      "duration": 0.375,
      "velocity": 0.54,
      "hand": "right"
    },
    {
      "midi": 74,
      "time": 3.375,
      "duration": 0.375,
      "velocity": 0.53,
      "hand": "right"
    },
    {
      "midi": 81,
      "time": 3.375,
      "duration": 0.375,
      "velocity": 0.63,
      "hand": "right"
    },
    {
      "midi": 59,
      "time": 3.75,
      "duration": 0.75,
      "velocity": 0.57,
      "hand": "left"
    },
    {
      "midi": 67,
      "time": 3.75,
      "duration": 0.75,
      "velocity": 0.6,
      "hand": "right"
    },
    {
      "midi": 72,
      "time": 3.75,
      "duration": 0.375,
      "velocity": 0.54,
      "hand": "right"
    },
    {
      "midi": 79,
      "time": 3.75,
      "duration": 0.375,
      "velocity": 0.55,
      "hand": "right"
    },
    {
      "midi": 71,
      "time": 4.125,
      "duration": 0.375,
      "velocity": 0.61,
      "hand": "right"
    },
    {
      "midi": 76,
      "time": 4.125,
      "duration": 0.375,
      "velocity": 0.54,
      "hand": "right"
    },
    {
      "midi": 57,
      "time": 4.5,
      "duration": 0.75,
      "velocity": 0.57,
      "hand": "left"
    },
    {
      "midi": 69,
      "time": 4.5,
      "duration": 1.5,
      "velocity": 0.62,
      "hand": "right"
    },
    {
      "midi": 72,
      "time": 4.5,
      "duration": 1.5,
      "velocity": 0.61,
      "hand": "right"
    },
    {
      "midi": 84,
      "time": 4.5,
      "duration": 0.75,
      "velocity": 0.69,
      "hand": "right"
    },
    {
      "midi": 59,
      "time": 5.25,
      "duration": 0.75,
      "velocity": 0.59,
      "hand": "left"
    },
    {
      "midi": 84,
      "time": 5.25,
      "duration": 0.75,
      "velocity": 0.61,
      "hand": "right"
    },
    {
      "midi": 60,
      "time": 6,
      "duration": 0.75,
      "velocity": 0.64,
      "hand": "right"
    },
    {
      "midi": 67,
      "time": 6,
      "duration": 0.75,
      "velocity": 0.55,
      "hand": "right"
    },
    {
      "midi": 76,
      "time": 6,
      "duration": 0.75,
      "velocity": 0.66,
      "hand": "right"
    },
    {
      "midi": 88,
      "time": 6,
      "duration": 0.375,
      "velocity": 0.66,
      "hand": "right"
    },
    {
      "midi": 88,
      "time": 6.375,
      "duration": 0.375,
      "velocity": 0.61,
      "hand": "right"
    },
    {
      "midi": 64,
      "time": 6.75,
      "duration": 0.75,
      "velocity": 0.63,
      "hand": "right"
    },
    {
      "midi": 72,
      "time": 6.75,
      "duration": 0.75,
      "velocity": 0.68,
      "hand": "right"
    },
    {
      "midi": 79,
      "time": 6.75,
      "duration": 0.75,
      "velocity": 0.65,
      "hand": "right"
    },
    {
      "midi": 86,
      "time": 6.75,
      "duration": 0.375,
      "velocity": 0.54,
      "hand": "right"
    },
    {
      "midi": 88,
      "time": 7.125,
      "duration": 0.375,
      "velocity": 0.58,
      "hand": "right"
    },
    {
      "midi": 62,
      "time": 7.5,
      "duration": 0.75,
      "velocity": 0.57,
      "hand": "right"
    },
    {
      "midi": 69,
      "time": 7.5,
      "duration": 0.75,
      "velocity": 0.54,
      "hand": "right"
    },
    {
      "midi": 77,
      "time": 7.5,
      "duration": 0.75,
      "velocity": 0.59,
      "hand": "right"
    },
    {
      "midi": 89,
      "time": 7.5,
      "duration": 0.188,
      "velocity": 0.66,
      "hand": "right"
    },
    {
      "midi": 86,
      "time": 7.688,
      "duration": 0.375,
      "velocity": 0.56,
      "hand": "right"
    },
    {
      "midi": 83,
      "time": 8.063,
      "duration": 0.188,
      "velocity": 0.56,
      "hand": "right"
    },
    {
      "midi": 67,
      "time": 8.25,
      "duration": 0.75,
      "velocity": 0.69,
      "hand": "right"
    },
    {
      "midi": 71,
      "time": 8.25,
      "duration": 0.75,
      "velocity": 0.61,
      "hand": "right"
    },
    {
      "midi": 74,
      "time": 8.25,
      "duration": 0.75,
      "velocity": 0.54,
      "hand": "right"
    },
    {
      "midi": 79,
      "time": 8.25,
      "duration": 0.375,
      "velocity": 0.49,
      "hand": "right"
    },
    {
      "midi": 79,
      "time": 8.625,
      "duration": 0.375,
      "velocity": 0.59,
      "hand": "right"
    },
    {
      "midi": 65,
      "time": 9,
      "duration": 0.75,
      "velocity": 0.58,
      "hand": "right"
    },
    {
      "midi": 69,
      "time": 9,
      "duration": 0.75,
      "velocity": 0.56,
      "hand": "right"
    },
    {
      "midi": 72,
      "time": 9,
      "duration": 0.75,
      "velocity": 0.59,
      "hand": "right"
    },
    {
      "midi": 81,
      "time": 9,
      "duration": 0.375,
      "velocity": 0.63,
      "hand": "right"
    },
    {
      "midi": 81,
      "time": 9.375,
      "duration": 0.375,
      "velocity": 0.6,
      "hand": "right"
    },
    {
      "midi": 59,
      "time": 9.75,
      "duration": 0.75,
      "velocity": 0.57,
      "hand": "left"
    },
    {
      "midi": 71,
      "time": 9.75,
      "duration": 0.75,
      "velocity": 0.66,
      "hand": "right"
    },
    {
      "midi": 74,
      "time": 9.75,
      "duration": 0.75,
      "velocity": 0.57,
      "hand": "right"
    },
    {
      "midi": 79,
      "time": 9.75,
      "duration": 0.375,
      "velocity": 0.53,
      "hand": "right"
    },
    {
      "midi": 77,
      "time": 10.125,
      "duration": 0.375,
      "velocity": 0.54,
      "hand": "right"
    },
    {
      "midi": 60,
      "time": 10.5,
      "duration": 1.5,
      "velocity": 0.62,
      "hand": "right"
    },
    {
      "midi": 67,
      "time": 10.5,
      "duration": 1.5,
      "velocity": 0.52,
      "hand": "right"
    },
    {
      "midi": 72,
      "time": 10.5,
      "duration": 1.5,
      "velocity": 0.57,
      "hand": "right"
    },
    {
      "midi": 76,
      "time": 10.5,
      "duration": 1.5,
      "velocity": 0.57,
      "hand": "right"
    },
    {
      "midi": 79,
      "time": 12,
      "duration": 0.375,
      "velocity": 0.66,
      "hand": "right"
    },
    {
      "midi": 81,
      "time": 12.375,
      "duration": 0.375,
      "velocity": 0.65,
      "hand": "right"
    },
    {
      "midi": 79,
      "time": 12.75,
      "duration": 0.375,
      "velocity": 0.55,
      "hand": "right"
    },
    {
      "midi": 76,
      "time": 13.125,
      "duration": 0.375,
      "velocity": 0.5,
      "hand": "right"
    },
    {
      "midi": 60,
      "time": 13.5,
      "duration": 0.375,
      "velocity": 0.52,
      "hand": "right"
    },
    {
      "midi": 67,
      "time": 13.5,
      "duration": 0.375,
      "velocity": 0.52,
      "hand": "right"
    },
    {
      "midi": 72,
      "time": 13.5,
      "duration": 0.375,
      "velocity": 0.55,
      "hand": "right"
    },
    {
      "midi": 84,
      "time": 13.5,
      "duration": 1.5,
      "velocity": 0.71,
      "hand": "right"
    },
    {
      "midi": 62,
      "time": 13.875,
      "duration": 0.375,
      "velocity": 0.61,
      "hand": "right"
    },
    {
      "midi": 69,
      "time": 13.875,
      "duration": 0.375,
      "velocity": 0.63,
      "hand": "right"
    },
    {
      "midi": 72,
      "time": 13.875,
      "duration": 0.375,
      "velocity": 0.56,
      "hand": "right"
    },
    {
      "midi": 60,
      "time": 14.25,
      "duration": 0.375,
      "velocity": 0.59,
      "hand": "right"
    },
    {
      "midi": 67,
      "time": 14.25,
      "duration": 0.375,
      "velocity": 0.55,
      "hand": "right"
    },
    {
      "midi": 71,
      "time": 14.25,
      "duration": 0.375,
      "velocity": 0.59,
      "hand": "right"
    },
    {
      "midi": 59,
      "time": 14.625,
      "duration": 0.375,
      "velocity": 0.61,
      "hand": "left"
    },
    {
      "midi": 65,
      "time": 14.625,
      "duration": 0.375,
      "velocity": 0.57,
      "hand": "right"
    },
    {
      "midi": 69,
      "time": 14.625,
      "duration": 0.375,
      "velocity": 0.54,
      "hand": "right"
    },
    {
      "midi": 60,
      "time": 15,
      "duration": 1.5,
      "velocity": 0.65,
      "hand": "right"
    },
    {
      "midi": 64,
      "time": 15,
      "duration": 1.5,
      "velocity": 0.54,
      "hand": "right"
    },
    {
      "midi": 67,
      "time": 15,
      "duration": 1.5,
      "velocity": 0.6,
      "hand": "right"
    },
    {
      "midi": 79,
      "time": 15,
      "duration": 0.375,
      "velocity": 0.55,
      "hand": "right"
    },
    {
      "midi": 81,
      "time": 15.375,
      "duration": 0.375,
      "velocity": 0.63,
      "hand": "right"
    },
    {
      "midi": 79,
      "time": 15.75,
      "duration": 0.375,
      "velocity": 0.53,
      "hand": "right"
    },
    {
      "midi": 76,
      "time": 16.125,
      "duration": 0.375,
      "velocity": 0.57,
      "hand": "right"
    },
    {
      "midi": 57,
      "time": 16.5,
      "duration": 0.375,
      "velocity": 0.59,
      "hand": "left"
    },
    {
      "midi": 69,
      "time": 16.5,
      "duration": 0.375,
      "velocity": 0.65,
      "hand": "right"
    },
    {
      "midi": 72,
      "time": 16.5,
      "duration": 0.375,
      "velocity": 0.64,
      "hand": "right"
    },
    {
      "midi": 84,
      "time": 16.5,
      "duration": 0.75,
      "velocity": 0.75,
      "hand": "right"
    },
    {
      "midi": 59,
      "time": 16.875,
      "duration": 0.375,
      "velocity": 0.6,
      "hand": "left"
    },
    {
      "midi": 71,
      "time": 16.875,
      "duration": 0.375,
      "velocity": 0.67,
      "hand": "right"
    },
    {
      "midi": 74,
      "time": 16.875,
      "duration": 0.375,
      "velocity": 0.62,
      "hand": "right"
    },
    {
      "midi": 60,
      "time": 17.25,
      "duration": 0.375,
      "velocity": 0.65,
      "hand": "right"
    },
    {
      "midi": 72,
      "time": 17.25,
      "duration": 0.375,
      "velocity": 0.58,
      "hand": "right"
    },
    {
      "midi": 76,
      "time": 17.25,
      "duration": 0.375,
      "velocity": 0.65,
      "hand": "right"
    },
    {
      "midi": 84,
      "time": 17.25,
      "duration": 0.75,
      "velocity": 0.6,
      "hand": "right"
    },
    {
      "midi": 62,
      "time": 17.625,
      "duration": 0.375,
      "velocity": 0.64,
      "hand": "right"
    },
    {
      "midi": 74,
      "time": 17.625,
      "duration": 0.375,
      "velocity": 0.65,
      "hand": "right"
    },
    {
      "midi": 77,
      "time": 17.625,
      "duration": 0.375,
      "velocity": 0.61,
      "hand": "right"
    },
    {
      "midi": 60,
      "time": 18,
      "duration": 0.375,
      "velocity": 0.56,
      "hand": "right"
    },
    {
      "midi": 76,
      "time": 18,
      "duration": 0.375,
      "velocity": 0.65,
      "hand": "right"
    },
    {
      "midi": 79,
      "time": 18,
      "duration": 0.375,
      "velocity": 0.65,
      "hand": "right"
    },
    {
      "midi": 88,
      "time": 18,
      "duration": 0.375,
      "velocity": 0.66,
      "hand": "right"
    },
    {
      "midi": 60,
      "time": 18.375,
      "duration": 0.375,
      "velocity": 0.61,
      "hand": "right"
    },
    {
      "midi": 76,
      "time": 18.375,
      "duration": 0.375,
      "velocity": 0.61,
      "hand": "right"
    },
    {
      "midi": 79,
      "time": 18.375,
      "duration": 0.375,
      "velocity": 0.58,
      "hand": "right"
    },
    {
      "midi": 88,
      "time": 18.375,
      "duration": 0.375,
      "velocity": 0.63,
      "hand": "right"
    },
    {
      "midi": 64,
      "time": 18.75,
      "duration": 0.375,
      "velocity": 0.65,
      "hand": "right"
    },
    {
      "midi": 74,
      "time": 18.75,
      "duration": 0.375,
      "velocity": 0.53,
      "hand": "right"
    },
    {
      "midi": 77,
      "time": 18.75,
      "duration": 0.375,
      "velocity": 0.55,
      "hand": "right"
    },
    {
      "midi": 86,
      "time": 18.75,
      "duration": 0.375,
      "velocity": 0.55,
      "hand": "right"
    },
    {
      "midi": 64,
      "time": 19.125,
      "duration": 0.375,
      "velocity": 0.65,
      "hand": "right"
    },
    {
      "midi": 72,
      "time": 19.125,
      "duration": 0.375,
      "velocity": 0.55,
      "hand": "right"
    },
    {
      "midi": 76,
      "time": 19.125,
      "duration": 0.375,
      "velocity": 0.6,
      "hand": "right"
    },
    {
      "midi": 88,
      "time": 19.125,
      "duration": 0.375,
      "velocity": 0.62,
      "hand": "right"
    },
    {
      "midi": 62,
      "time": 19.5,
      "duration": 0.188,
      "velocity": 0.52,
      "hand": "right"
    },
    {
      "midi": 69,
      "time": 19.5,
      "duration": 0.188,
      "velocity": 0.52,
      "hand": "right"
    },
    {
      "midi": 74,
      "time": 19.5,
      "duration": 0.188,
      "velocity": 0.57,
      "hand": "right"
    },
    {
      "midi": 89,
      "time": 19.5,
      "duration": 0.188,
      "velocity": 0.62,
      "hand": "right"
    },
    {
      "midi": 62,
      "time": 19.688,
      "duration": 0.375,
      "velocity": 0.63,
      "hand": "right"
    },
    {
      "midi": 69,
      "time": 19.688,
      "duration": 0.375,
      "velocity": 0.58,
      "hand": "right"
    },
    {
      "midi": 74,
      "time": 19.688,
      "duration": 0.375,
      "velocity": 0.58,
      "hand": "right"
    },
    {
      "midi": 86,
      "time": 19.688,
      "duration": 0.375,
      "velocity": 0.56,
      "hand": "right"
    },
    {
      "midi": 62,
      "time": 20.063,
      "duration": 0.188,
      "velocity": 0.59,
      "hand": "right"
    },
    {
      "midi": 69,
      "time": 20.063,
      "duration": 0.188,
      "velocity": 0.61,
      "hand": "right"
    },
    {
      "midi": 74,
      "time": 20.063,
      "duration": 0.188,
      "velocity": 0.57,
      "hand": "right"
    },
    {
      "midi": 83,
      "time": 20.063,
      "duration": 0.188,
      "velocity": 0.53,
      "hand": "right"
    },
    {
      "midi": 67,
      "time": 20.25,
      "duration": 0.375,
      "velocity": 0.7,
      "hand": "right"
    },
    {
      "midi": 71,
      "time": 20.25,
      "duration": 0.375,
      "velocity": 0.65,
      "hand": "right"
    },
    {
      "midi": 74,
      "time": 20.25,
      "duration": 0.375,
      "velocity": 0.63,
      "hand": "right"
    },
    {
      "midi": 79,
      "time": 20.25,
      "duration": 0.375,
      "velocity": 0.54,
      "hand": "right"
    },
    {
      "midi": 67,
      "time": 20.625,
      "duration": 0.375,
      "velocity": 0.61,
      "hand": "right"
    },
    {
      "midi": 71,
      "time": 20.625,
      "duration": 0.375,
      "velocity": 0.65,
      "hand": "right"
    },
    {
      "midi": 74,
      "time": 20.625,
      "duration": 0.375,
      "velocity": 0.6,
      "hand": "right"
    },
    {
      "midi": 79,
      "time": 20.625,
      "duration": 0.375,
      "velocity": 0.61,
      "hand": "right"
    },
    {
      "midi": 65,
      "time": 21,
      "duration": 0.375,
      "velocity": 0.53,
      "hand": "right"
    },
    {
      "midi": 69,
      "time": 21,
      "duration": 0.375,
      "velocity": 0.54,
      "hand": "right"
    },
    {
      "midi": 72,
      "time": 21,
      "duration": 0.375,
      "velocity": 0.57,
      "hand": "right"
    },
    {
      "midi": 81,
      "time": 21,
      "duration": 0.375,
      "velocity": 0.67,
      "hand": "right"
    },
    {
      "midi": 53,
      "time": 21.375,
      "duration": 0.375,
      "velocity": 0.53,
      "hand": "left"
    },
    {
      "midi": 69,
      "time": 21.375,
      "duration": 0.375,
      "velocity": 0.6,
      "hand": "right"
    },
    {
      "midi": 72,
      "time": 21.375,
      "duration": 0.375,
      "velocity": 0.57,
      "hand": "right"
    },
    {
      "midi": 81,
      "time": 21.375,
      "duration": 0.375,
      "velocity": 0.57,
      "hand": "right"
    },
    {
      "midi": 55,
      "time": 21.75,
      "duration": 0.375,
      "velocity": 0.59,
      "hand": "left"
    },
    {
      "midi": 71,
      "time": 21.75,
      "duration": 0.375,
      "velocity": 0.65,
      "hand": "right"
    },
    {
      "midi": 76,
      "time": 21.75,
      "duration": 0.375,
      "velocity": 0.65,
      "hand": "right"
    },
    {
      "midi": 79,
      "time": 21.75,
      "duration": 0.375,
      "velocity": 0.55,
      "hand": "right"
    },
    {
      "midi": 62,
      "time": 22.125,
      "duration": 0.375,
      "velocity": 0.72,
      "hand": "right"
    },
    {
      "midi": 69,
      "time": 22.125,
      "duration": 0.375,
      "velocity": 0.61,
      "hand": "right"
    },
    {
      "midi": 74,
      "time": 22.125,
      "duration": 0.375,
      "velocity": 0.56,
      "hand": "right"
    },
    {
      "midi": 77,
      "time": 22.125,
      "duration": 0.375,
      "velocity": 0.57,
      "hand": "right"
    },
    {
      "midi": 60,
      "time": 22.5,
      "duration": 1.5,
      "velocity": 0.55,
      "hand": "right"
    },
    {
      "midi": 67,
      "time": 22.5,
      "duration": 1.5,
      "velocity": 0.53,
      "hand": "right"
    },
    {
      "midi": 72,
      "time": 22.5,
      "duration": 1.5,
      "velocity": 0.53,
      "hand": "right"
    },
    {
      "midi": 76,
      "time": 22.5,
      "duration": 1.5,
      "velocity": 0.59,
      "hand": "right"
    },
    {
      "midi": 79,
      "time": 24,
      "duration": 0.375,
      "velocity": 0.62,
      "hand": "right"
    },
    {
      "midi": 81,
      "time": 24.375,
      "duration": 0.375,
      "velocity": 0.61,
      "hand": "right"
    },
    {
      "midi": 79,
      "time": 24.75,
      "duration": 0.375,
      "velocity": 0.57,
      "hand": "right"
    },
    {
      "midi": 76,
      "time": 25.125,
      "duration": 0.375,
      "velocity": 0.57,
      "hand": "right"
    },
    {
      "midi": 60,
      "time": 25.5,
      "duration": 0.375,
      "velocity": 0.51,
      "hand": "right"
    },
    {
      "midi": 67,
      "time": 25.5,
      "duration": 0.375,
      "velocity": 0.52,
      "hand": "right"
    },
    {
      "midi": 72,
      "time": 25.5,
      "duration": 0.375,
      "velocity": 0.5,
      "hand": "right"
    },
    {
      "midi": 84,
      "time": 25.5,
      "duration": 1.5,
      "velocity": 0.75,
      "hand": "right"
    },
    {
      "midi": 62,
      "time": 25.875,
      "duration": 0.375,
      "velocity": 0.6,
      "hand": "right"
    },
    {
      "midi": 69,
      "time": 25.875,
      "duration": 0.375,
      "velocity": 0.61,
      "hand": "right"
    },
    {
      "midi": 72,
      "time": 25.875,
      "duration": 0.375,
      "velocity": 0.59,
      "hand": "right"
    },
    {
      "midi": 60,
      "time": 26.25,
      "duration": 0.375,
      "velocity": 0.57,
      "hand": "right"
    },
    {
      "midi": 67,
      "time": 26.25,
      "duration": 0.375,
      "velocity": 0.54,
      "hand": "right"
    },
    {
      "midi": 71,
      "time": 26.25,
      "duration": 0.375,
      "velocity": 0.58,
      "hand": "right"
    },
    {
      "midi": 59,
      "time": 26.625,
      "duration": 0.375,
      "velocity": 0.59,
      "hand": "left"
    },
    {
      "midi": 65,
      "time": 26.625,
      "duration": 0.375,
      "velocity": 0.57,
      "hand": "right"
    },
    {
      "midi": 69,
      "time": 26.625,
      "duration": 0.375,
      "velocity": 0.59,
      "hand": "right"
    },
    {
      "midi": 60,
      "time": 27,
      "duration": 1.5,
      "velocity": 0.6,
      "hand": "right"
    },
    {
      "midi": 64,
      "time": 27,
      "duration": 1.5,
      "velocity": 0.55,
      "hand": "right"
    },
    {
      "midi": 67,
      "time": 27,
      "duration": 1.5,
      "velocity": 0.56,
      "hand": "right"
    },
    {
      "midi": 79,
      "time": 27,
      "duration": 0.375,
      "velocity": 0.56,
      "hand": "right"
    },
    {
      "midi": 81,
      "time": 27.375,
      "duration": 0.375,
      "velocity": 0.63,
      "hand": "right"
    },
    {
      "midi": 79,
      "time": 27.75,
      "duration": 0.375,
      "velocity": 0.54,
      "hand": "right"
    },
    {
      "midi": 76,
      "time": 28.125,
      "duration": 0.375,
      "velocity": 0.54,
      "hand": "right"
    },
    {
      "midi": 57,
      "time": 28.5,
      "duration": 0.375,
      "velocity": 0.55,
      "hand": "left"
    },
    {
      "midi": 69,
      "time": 28.5,
      "duration": 0.375,
      "velocity": 0.68,
      "hand": "right"
    },
    {
      "midi": 72,
      "time": 28.5,
      "duration": 0.375,
      "velocity": 0.64,
      "hand": "right"
    },
    {
      "midi": 84,
      "time": 28.5,
      "duration": 0.75,
      "velocity": 0.72,
      "hand": "right"
    },
    {
      "midi": 59,
      "time": 28.875,
      "duration": 0.375,
      "velocity": 0.61,
      "hand": "left"
    },
    {
      "midi": 71,
      "time": 28.875,
      "duration": 0.375,
      "velocity": 0.64,
      "hand": "right"
    },
    {
      "midi": 74,
      "time": 28.875,
      "duration": 0.375,
      "velocity": 0.64,
      "hand": "right"
    },
    {
      "midi": 60,
      "time": 29.25,
      "duration": 0.375,
      "velocity": 0.62,
      "hand": "right"
    },
    {
      "midi": 72,
      "time": 29.25,
      "duration": 0.375,
      "velocity": 0.64,
      "hand": "right"
    },
    {
      "midi": 76,
      "time": 29.25,
      "duration": 0.375,
      "velocity": 0.67,
      "hand": "right"
    },
    {
      "midi": 84,
      "time": 29.25,
      "duration": 0.75,
      "velocity": 0.61,
      "hand": "right"
    },
    {
      "midi": 62,
      "time": 29.625,
      "duration": 0.375,
      "velocity": 0.61,
      "hand": "right"
    },
    {
      "midi": 74,
      "time": 29.625,
      "duration": 0.375,
      "velocity": 0.62,
      "hand": "right"
    },
    {
      "midi": 77,
      "time": 29.625,
      "duration": 0.375,
      "velocity": 0.58,
      "hand": "right"
    },
    {
      "midi": 60,
      "time": 30,
      "duration": 0.375,
      "velocity": 0.57,
      "hand": "right"
    },
    {
      "midi": 76,
      "time": 30,
      "duration": 0.375,
      "velocity": 0.64,
      "hand": "right"
    },
    {
      "midi": 79,
      "time": 30,
      "duration": 0.375,
      "velocity": 0.62,
      "hand": "right"
    },
    {
      "midi": 88,
      "time": 30,
      "duration": 0.375,
      "velocity": 0.67,
      "hand": "right"
    },
    {
      "midi": 60,
      "time": 30.375,
      "duration": 0.375,
      "velocity": 0.62,
      "hand": "right"
    },
    {
      "midi": 76,
      "time": 30.375,
      "duration": 0.375,
      "velocity": 0.61,
      "hand": "right"
    },
    {
      "midi": 79,
      "time": 30.375,
      "duration": 0.375,
      "velocity": 0.64,
      "hand": "right"
    },
    {
      "midi": 88,
      "time": 30.375,
      "duration": 0.375,
      "velocity": 0.64,
      "hand": "right"
    },
    {
      "midi": 64,
      "time": 30.75,
      "duration": 0.375,
      "velocity": 0.68,
      "hand": "right"
    },
    {
      "midi": 74,
      "time": 30.75,
      "duration": 0.375,
      "velocity": 0.56,
      "hand": "right"
    },
    {
      "midi": 77,
      "time": 30.75,
      "duration": 0.375,
      "velocity": 0.54,
      "hand": "right"
    },
    {
      "midi": 86,
      "time": 30.75,
      "duration": 0.375,
      "velocity": 0.58,
      "hand": "right"
    },
    {
      "midi": 64,
      "time": 31.125,
      "duration": 0.375,
      "velocity": 0.62,
      "hand": "right"
    },
    {
      "midi": 72,
      "time": 31.125,
      "duration": 0.375,
      "velocity": 0.55,
      "hand": "right"
    },
    {
      "midi": 76,
      "time": 31.125,
      "duration": 0.375,
      "velocity": 0.57,
      "hand": "right"
    },
    {
      "midi": 88,
      "time": 31.125,
      "duration": 0.375,
      "velocity": 0.61,
      "hand": "right"
    },
    {
      "midi": 62,
      "time": 31.5,
      "duration": 0.188,
      "velocity": 0.53,
      "hand": "right"
    },
    {
      "midi": 69,
      "time": 31.5,
      "duration": 0.188,
      "velocity": 0.53,
      "hand": "right"
    },
    {
      "midi": 74,
      "time": 31.5,
      "duration": 0.188,
      "velocity": 0.53,
      "hand": "right"
    },
    {
      "midi": 89,
      "time": 31.5,
      "duration": 0.188,
      "velocity": 0.67,
      "hand": "right"
    },
    {
      "midi": 62,
      "time": 31.688,
      "duration": 0.375,
      "velocity": 0.61,
      "hand": "right"
    },
    {
      "midi": 69,
      "time": 31.688,
      "duration": 0.375,
      "velocity": 0.57,
      "hand": "right"
    },
    {
      "midi": 74,
      "time": 31.688,
      "duration": 0.375,
      "velocity": 0.58,
      "hand": "right"
    },
    {
      "midi": 86,
      "time": 31.688,
      "duration": 0.375,
      "velocity": 0.54,
      "hand": "right"
    },
    {
      "midi": 62,
      "time": 32.063,
      "duration": 0.188,
      "velocity": 0.61,
      "hand": "right"
    },
    {
      "midi": 69,
      "time": 32.063,
      "duration": 0.188,
      "velocity": 0.65,
      "hand": "right"
    },
    {
      "midi": 74,
      "time": 32.063,
      "duration": 0.188,
      "velocity": 0.59,
      "hand": "right"
    },
    {
      "midi": 83,
      "time": 32.063,
      "duration": 0.188,
      "velocity": 0.53,
      "hand": "right"
    },
    {
      "midi": 67,
      "time": 32.25,
      "duration": 0.375,
      "velocity": 0.69,
      "hand": "right"
    },
    {
      "midi": 71,
      "time": 32.25,
      "duration": 0.375,
      "velocity": 0.65,
      "hand": "right"
    },
    {
      "midi": 74,
      "time": 32.25,
      "duration": 0.375,
      "velocity": 0.63,
      "hand": "right"
    },
    {
      "midi": 79,
      "time": 32.25,
      "duration": 0.375,
      "velocity": 0.5,
      "hand": "right"
    },
    {
      "midi": 67,
      "time": 32.625,
      "duration": 0.375,
      "velocity": 0.57,
      "hand": "right"
    },
    {
      "midi": 71,
      "time": 32.625,
      "duration": 0.375,
      "velocity": 0.62,
      "hand": "right"
    },
    {
      "midi": 74,
      "time": 32.625,
      "duration": 0.375,
      "velocity": 0.6,
      "hand": "right"
    },
    {
      "midi": 79,
      "time": 32.625,
      "duration": 0.375,
      "velocity": 0.6,
      "hand": "right"
    },
    {
      "midi": 65,
      "time": 33,
      "duration": 0.375,
      "velocity": 0.53,
      "hand": "right"
    },
    {
      "midi": 69,
      "time": 33,
      "duration": 0.375,
      "velocity": 0.58,
      "hand": "right"
    },
    {
      "midi": 72,
      "time": 33,
      "duration": 0.375,
      "velocity": 0.54,
      "hand": "right"
    },
    {
      "midi": 81,
      "time": 33,
      "duration": 0.375,
      "velocity": 0.63,
      "hand": "right"
    },
    {
      "midi": 60,
      "time": 33.375,
      "duration": 0.375,
      "velocity": 0.52,
      "hand": "right"
    },
    {
      "midi": 69,
      "time": 33.375,
      "duration": 0.375,
      "velocity": 0.63,
      "hand": "right"
    },
    {
      "midi": 72,
      "time": 33.375,
      "duration": 0.375,
      "velocity": 0.59,
      "hand": "right"
    },
    {
      "midi": 81,
      "time": 33.375,
      "duration": 0.375,
      "velocity": 0.61,
      "hand": "right"
    },
    {
      "midi": 67,
      "time": 33.75,
      "duration": 0.375,
      "velocity": 0.69,
      "hand": "right"
    },
    {
      "midi": 71,
      "time": 33.75,
      "duration": 0.375,
      "velocity": 0.61,
      "hand": "right"
    },
    {
      "midi": 74,
      "time": 33.75,
      "duration": 0.375,
      "velocity": 0.61,
      "hand": "right"
    },
    {
      "midi": 83,
      "time": 33.75,
      "duration": 0.375,
      "velocity": 0.65,
      "hand": "right"
    },
    {
      "midi": 62,
      "time": 34.125,
      "duration": 0.375,
      "velocity": 0.54,
      "hand": "right"
    },
    {
      "midi": 69,
      "time": 34.125,
      "duration": 0.375,
      "velocity": 0.57,
      "hand": "right"
    },
    {
      "midi": 74,
      "time": 34.125,
      "duration": 0.375,
      "velocity": 0.64,
      "hand": "right"
    },
    {
      "midi": 83,
      "time": 34.125,
      "duration": 0.375,
      "velocity": 0.63,
      "hand": "right"
    },
    {
      "midi": 60,
      "time": 34.5,
      "duration": 1.5,
      "velocity": 0.57,
      "hand": "right"
    },
    {
      "midi": 67,
      "time": 34.5,
      "duration": 1.5,
      "velocity": 0.52,
      "hand": "right"
    },
    {
      "midi": 76,
      "time": 34.5,
      "duration": 1.5,
      "velocity": 0.6,
      "hand": "right"
    },
    {
      "midi": 84,
      "time": 34.5,
      "duration": 1.5,
      "velocity": 0.64,
      "hand": "right"
    }
  ],
  "arrangements": {
    "easy": [
      {
        "midi": 79,
        "time": 0,
        "duration": 0.375,
        "velocity": 0.53,
        "hand": "right"
      },
      {
        "midi": 81,
        "time": 0.375,
        "duration": 0.375,
        "velocity": 0.65,
        "hand": "right"
      },
      {
        "midi": 79,
        "time": 0.75,
        "duration": 0.375,
        "velocity": 0.57,
        "hand": "right"
      },
      {
        "midi": 76,
        "time": 1.125,
        "duration": 0.375,
        "velocity": 0.54,
        "hand": "right"
      },
      {
        "midi": 84,
        "time": 1.5,
        "duration": 1.5,
        "velocity": 0.69,
        "hand": "right"
      },
      {
        "midi": 59,
        "time": 2.25,
        "duration": 0.75,
        "velocity": 0.56,
        "hand": "right"
      },
      {
        "midi": 79,
        "time": 3,
        "duration": 0.375,
        "velocity": 0.54,
        "hand": "right"
      },
      {
        "midi": 81,
        "time": 3.375,
        "duration": 0.375,
        "velocity": 0.63,
        "hand": "right"
      },
      {
        "midi": 79,
        "time": 3.75,
        "duration": 0.375,
        "velocity": 0.55,
        "hand": "right"
      },
      {
        "midi": 76,
        "time": 4.125,
        "duration": 0.375,
        "velocity": 0.54,
        "hand": "right"
      },
      {
        "midi": 84,
        "time": 4.5,
        "duration": 0.75,
        "velocity": 0.69,
        "hand": "right"
      },
      {
        "midi": 84,
        "time": 5.25,
        "duration": 0.75,
        "velocity": 0.61,
        "hand": "right"
      },
      {
        "midi": 88,
        "time": 6,
        "duration": 0.375,
        "velocity": 0.66,
        "hand": "right"
      },
      {
        "midi": 88,
        "time": 6.375,
        "duration": 0.375,
        "velocity": 0.61,
        "hand": "right"
      },
      {
        "midi": 86,
        "time": 6.75,
        "duration": 0.375,
        "velocity": 0.54,
        "hand": "right"
      },
      {
        "midi": 88,
        "time": 7.125,
        "duration": 0.375,
        "velocity": 0.58,
        "hand": "right"
      },
      {
        "midi": 89,
        "time": 7.5,
        "duration": 0.25,
        "velocity": 0.66,
        "hand": "right"
      },
      {
        "midi": 86,
        "time": 7.688,
        "duration": 0.375,
        "velocity": 0.56,
        "hand": "right"
      },
      {
        "midi": 83,
        "time": 8.063,
        "duration": 0.25,
        "velocity": 0.56,
        "hand": "right"
      },
      {
        "midi": 79,
        "time": 8.25,
        "duration": 0.375,
        "velocity": 0.49,
        "hand": "right"
      },
      {
        "midi": 79,
        "time": 8.625,
        "duration": 0.375,
        "velocity": 0.59,
        "hand": "right"
      },
      {
        "midi": 81,
        "time": 9,
        "duration": 0.375,
        "velocity": 0.63,
        "hand": "right"
      },
      {
        "midi": 81,
        "time": 9.375,
        "duration": 0.375,
        "velocity": 0.6,
        "hand": "right"
      },
      {
        "midi": 79,
        "time": 9.75,
        "duration": 0.375,
        "velocity": 0.53,
        "hand": "right"
      },
      {
        "midi": 77,
        "time": 10.125,
        "duration": 0.375,
        "velocity": 0.54,
        "hand": "right"
      },
      {
        "midi": 76,
        "time": 10.5,
        "duration": 1.5,
        "velocity": 0.57,
        "hand": "right"
      },
      {
        "midi": 79,
        "time": 12,
        "duration": 0.375,
        "velocity": 0.66,
        "hand": "right"
      },
      {
        "midi": 81,
        "time": 12.375,
        "duration": 0.375,
        "velocity": 0.65,
        "hand": "right"
      },
      {
        "midi": 79,
        "time": 12.75,
        "duration": 0.375,
        "velocity": 0.55,
        "hand": "right"
      },
      {
        "midi": 76,
        "time": 13.125,
        "duration": 0.375,
        "velocity": 0.5,
        "hand": "right"
      },
      {
        "midi": 84,
        "time": 13.5,
        "duration": 1.5,
        "velocity": 0.71,
        "hand": "right"
      },
      {
        "midi": 72,
        "time": 13.875,
        "duration": 0.375,
        "velocity": 0.56,
        "hand": "right"
      },
      {
        "midi": 71,
        "time": 14.25,
        "duration": 0.375,
        "velocity": 0.59,
        "hand": "right"
      },
      {
        "midi": 69,
        "time": 14.625,
        "duration": 0.375,
        "velocity": 0.54,
        "hand": "right"
      },
      {
        "midi": 79,
        "time": 15,
        "duration": 0.375,
        "velocity": 0.55,
        "hand": "right"
      },
      {
        "midi": 81,
        "time": 15.375,
        "duration": 0.375,
        "velocity": 0.63,
        "hand": "right"
      },
      {
        "midi": 79,
        "time": 15.75,
        "duration": 0.375,
        "velocity": 0.53,
        "hand": "right"
      },
      {
        "midi": 76,
        "time": 16.125,
        "duration": 0.375,
        "velocity": 0.57,
        "hand": "right"
      },
      {
        "midi": 84,
        "time": 16.5,
        "duration": 0.75,
        "velocity": 0.75,
        "hand": "right"
      },
      {
        "midi": 74,
        "time": 16.875,
        "duration": 0.375,
        "velocity": 0.62,
        "hand": "right"
      },
      {
        "midi": 84,
        "time": 17.25,
        "duration": 0.75,
        "velocity": 0.6,
        "hand": "right"
      },
      {
        "midi": 77,
        "time": 17.625,
        "duration": 0.375,
        "velocity": 0.61,
        "hand": "right"
      },
      {
        "midi": 88,
        "time": 18,
        "duration": 0.375,
        "velocity": 0.66,
        "hand": "right"
      },
      {
        "midi": 88,
        "time": 18.375,
        "duration": 0.375,
        "velocity": 0.63,
        "hand": "right"
      },
      {
        "midi": 86,
        "time": 18.75,
        "duration": 0.375,
        "velocity": 0.55,
        "hand": "right"
      },
      {
        "midi": 88,
        "time": 19.125,
        "duration": 0.375,
        "velocity": 0.62,
        "hand": "right"
      },
      {
        "midi": 89,
        "time": 19.5,
        "duration": 0.25,
        "velocity": 0.62,
        "hand": "right"
      },
      {
        "midi": 86,
        "time": 19.688,
        "duration": 0.375,
        "velocity": 0.56,
        "hand": "right"
      },
      {
        "midi": 83,
        "time": 20.063,
        "duration": 0.25,
        "velocity": 0.53,
        "hand": "right"
      },
      {
        "midi": 79,
        "time": 20.25,
        "duration": 0.375,
        "velocity": 0.54,
        "hand": "right"
      },
      {
        "midi": 79,
        "time": 20.625,
        "duration": 0.375,
        "velocity": 0.61,
        "hand": "right"
      },
      {
        "midi": 81,
        "time": 21,
        "duration": 0.375,
        "velocity": 0.67,
        "hand": "right"
      },
      {
        "midi": 81,
        "time": 21.375,
        "duration": 0.375,
        "velocity": 0.57,
        "hand": "right"
      },
      {
        "midi": 79,
        "time": 21.75,
        "duration": 0.375,
        "velocity": 0.55,
        "hand": "right"
      },
      {
        "midi": 77,
        "time": 22.125,
        "duration": 0.375,
        "velocity": 0.57,
        "hand": "right"
      },
      {
        "midi": 76,
        "time": 22.5,
        "duration": 1.5,
        "velocity": 0.59,
        "hand": "right"
      },
      {
        "midi": 79,
        "time": 24,
        "duration": 0.375,
        "velocity": 0.62,
        "hand": "right"
      },
      {
        "midi": 81,
        "time": 24.375,
        "duration": 0.375,
        "velocity": 0.61,
        "hand": "right"
      },
      {
        "midi": 79,
        "time": 24.75,
        "duration": 0.375,
        "velocity": 0.57,
        "hand": "right"
      },
      {
        "midi": 76,
        "time": 25.125,
        "duration": 0.375,
        "velocity": 0.57,
        "hand": "right"
      },
      {
        "midi": 84,
        "time": 25.5,
        "duration": 1.5,
        "velocity": 0.75,
        "hand": "right"
      },
      {
        "midi": 72,
        "time": 25.875,
        "duration": 0.375,
        "velocity": 0.59,
        "hand": "right"
      },
      {
        "midi": 71,
        "time": 26.25,
        "duration": 0.375,
        "velocity": 0.58,
        "hand": "right"
      },
      {
        "midi": 69,
        "time": 26.625,
        "duration": 0.375,
        "velocity": 0.59,
        "hand": "right"
      },
      {
        "midi": 79,
        "time": 27,
        "duration": 0.375,
        "velocity": 0.56,
        "hand": "right"
      },
      {
        "midi": 81,
        "time": 27.375,
        "duration": 0.375,
        "velocity": 0.63,
        "hand": "right"
      },
      {
        "midi": 79,
        "time": 27.75,
        "duration": 0.375,
        "velocity": 0.54,
        "hand": "right"
      },
      {
        "midi": 76,
        "time": 28.125,
        "duration": 0.375,
        "velocity": 0.54,
        "hand": "right"
      },
      {
        "midi": 84,
        "time": 28.5,
        "duration": 0.75,
        "velocity": 0.72,
        "hand": "right"
      },
      {
        "midi": 74,
        "time": 28.875,
        "duration": 0.375,
        "velocity": 0.64,
        "hand": "right"
      },
      {
        "midi": 84,
        "time": 29.25,
        "duration": 0.75,
        "velocity": 0.61,
        "hand": "right"
      },
      {
        "midi": 77,
        "time": 29.625,
        "duration": 0.375,
        "velocity": 0.58,
        "hand": "right"
      },
      {
        "midi": 88,
        "time": 30,
        "duration": 0.375,
        "velocity": 0.67,
        "hand": "right"
      },
      {
        "midi": 88,
        "time": 30.375,
        "duration": 0.375,
        "velocity": 0.64,
        "hand": "right"
      },
      {
        "midi": 86,
        "time": 30.75,
        "duration": 0.375,
        "velocity": 0.58,
        "hand": "right"
      },
      {
        "midi": 88,
        "time": 31.125,
        "duration": 0.375,
        "velocity": 0.61,
        "hand": "right"
      },
      {
        "midi": 89,
        "time": 31.5,
        "duration": 0.25,
        "velocity": 0.67,
        "hand": "right"
      },
      {
        "midi": 86,
        "time": 31.688,
        "duration": 0.375,
        "velocity": 0.54,
        "hand": "right"
      },
      {
        "midi": 83,
        "time": 32.063,
        "duration": 0.25,
        "velocity": 0.53,
        "hand": "right"
      },
      {
        "midi": 79,
        "time": 32.25,
        "duration": 0.375,
        "velocity": 0.5,
        "hand": "right"
      },
      {
        "midi": 79,
        "time": 32.625,
        "duration": 0.375,
        "velocity": 0.6,
        "hand": "right"
      },
      {
        "midi": 81,
        "time": 33,
        "duration": 0.375,
        "velocity": 0.63,
        "hand": "right"
      },
      {
        "midi": 81,
        "time": 33.375,
        "duration": 0.375,
        "velocity": 0.61,
        "hand": "right"
      },
      {
        "midi": 83,
        "time": 33.75,
        "duration": 0.375,
        "velocity": 0.65,
        "hand": "right"
      },
      {
        "midi": 83,
        "time": 34.125,
        "duration": 0.375,
        "velocity": 0.63,
        "hand": "right"
      },
      {
        "midi": 84,
        "time": 34.5,
        "duration": 1.5,
        "velocity": 0.64,
        "hand": "right"
      }
    ],
    "medium": [
      {
        "midi": 64,
        "time": 0,
        "duration": 0.75,
        "velocity": 0.55,
        "hand": "right"
      },
      {
        "midi": 72,
        "time": 0,
        "duration": 1.5,
        "velocity": 0.52,
        "hand": "right"
      },
      {
        "midi": 79,
        "time": 0,
        "duration": 0.375,
        "velocity": 0.53,
        "hand": "right"
      },
      {
        "midi": 81,
        "time": 0.375,
        "duration": 0.375,
        "velocity": 0.65,
        "hand": "right"
      },
      {
        "midi": 62,
        "time": 0.75,
        "duration": 0.75,
        "velocity": 0.56,
        "hand": "right"
      },
      {
        "midi": 79,
        "time": 0.75,
        "duration": 0.375,
        "velocity": 0.57,
        "hand": "right"
      },
      {
        "midi": 76,
        "time": 1.125,
        "duration": 0.375,
        "velocity": 0.54,
        "hand": "right"
      },
      {
        "midi": 60,
        "time": 1.5,
        "duration": 0.75,
        "velocity": 0.51,
        "hand": "right"
      },
      {
        "midi": 72,
        "time": 1.5,
        "duration": 1.5,
        "velocity": 0.55,
        "hand": "right"
      },
      {
        "midi": 84,
        "time": 1.5,
        "duration": 1.5,
        "velocity": 0.69,
        "hand": "right"
      },
      {
        "midi": 59,
        "time": 2.25,
        "duration": 0.75,
        "velocity": 0.56,
        "hand": "left"
      },
      {
        "midi": 60,
        "time": 3,
        "duration": 0.75,
        "velocity": 0.62,
        "hand": "right"
      },
      {
        "midi": 76,
        "time": 3,
        "duration": 0.375,
        "velocity": 0.68,
        "hand": "right"
      },
      {
        "midi": 79,
        "time": 3,
        "duration": 0.375,
        "velocity": 0.54,
        "hand": "right"
      },
      {
        "midi": 74,
        "time": 3.375,
        "duration": 0.375,
        "velocity": 0.53,
        "hand": "right"
      },
      {
        "midi": 81,
        "time": 3.375,
        "duration": 0.375,
        "velocity": 0.63,
        "hand": "right"
      },
      {
        "midi": 59,
        "time": 3.75,
        "duration": 0.75,
        "velocity": 0.57,
        "hand": "left"
      },
      {
        "midi": 72,
        "time": 3.75,
        "duration": 0.375,
        "velocity": 0.54,
        "hand": "right"
      },
      {
        "midi": 79,
        "time": 3.75,
        "duration": 0.375,
        "velocity": 0.55,
        "hand": "right"
      },
      {
        "midi": 71,
        "time": 4.125,
        "duration": 0.375,
        "velocity": 0.61,
        "hand": "right"
      },
      {
        "midi": 76,
        "time": 4.125,
        "duration": 0.375,
        "velocity": 0.54,
        "hand": "right"
      },
      {
        "midi": 57,
        "time": 4.5,
        "duration": 0.75,
        "velocity": 0.57,
        "hand": "left"
      },
      {
        "midi": 72,
        "time": 4.5,
        "duration": 1.5,
        "velocity": 0.61,
        "hand": "right"
      },
      {
        "midi": 84,
        "time": 4.5,
        "duration": 0.75,
        "velocity": 0.69,
        "hand": "right"
      },
      {
        "midi": 59,
        "time": 5.25,
        "duration": 0.75,
        "velocity": 0.59,
        "hand": "left"
      },
      {
        "midi": 84,
        "time": 5.25,
        "duration": 0.75,
        "velocity": 0.61,
        "hand": "right"
      },
      {
        "midi": 60,
        "time": 6,
        "duration": 0.75,
        "velocity": 0.64,
        "hand": "right"
      },
      {
        "midi": 76,
        "time": 6,
        "duration": 0.75,
        "velocity": 0.66,
        "hand": "right"
      },
      {
        "midi": 88,
        "time": 6,
        "duration": 0.375,
        "velocity": 0.66,
        "hand": "right"
      },
      {
        "midi": 88,
        "time": 6.375,
        "duration": 0.375,
        "velocity": 0.61,
        "hand": "right"
      },
      {
        "midi": 64,
        "time": 6.75,
        "duration": 0.75,
        "velocity": 0.63,
        "hand": "right"
      },
      {
        "midi": 79,
        "time": 6.75,
        "duration": 0.75,
        "velocity": 0.65,
        "hand": "right"
      },
      {
        "midi": 86,
        "time": 6.75,
        "duration": 0.375,
        "velocity": 0.54,
        "hand": "right"
      },
      {
        "midi": 88,
        "time": 7.125,
        "duration": 0.375,
        "velocity": 0.58,
        "hand": "right"
      },
      {
        "midi": 62,
        "time": 7.5,
        "duration": 0.75,
        "velocity": 0.57,
        "hand": "right"
      },
      {
        "midi": 77,
        "time": 7.5,
        "duration": 0.75,
        "velocity": 0.59,
        "hand": "right"
      },
      {
        "midi": 89,
        "time": 7.5,
        "duration": 0.188,
        "velocity": 0.66,
        "hand": "right"
      },
      {
        "midi": 86,
        "time": 7.688,
        "duration": 0.375,
        "velocity": 0.56,
        "hand": "right"
      },
      {
        "midi": 83,
        "time": 8.063,
        "duration": 0.188,
        "velocity": 0.56,
        "hand": "right"
      },
      {
        "midi": 67,
        "time": 8.25,
        "duration": 0.75,
        "velocity": 0.69,
        "hand": "right"
      },
      {
        "midi": 74,
        "time": 8.25,
        "duration": 0.75,
        "velocity": 0.54,
        "hand": "right"
      },
      {
        "midi": 79,
        "time": 8.25,
        "duration": 0.375,
        "velocity": 0.49,
        "hand": "right"
      },
      {
        "midi": 79,
        "time": 8.625,
        "duration": 0.375,
        "velocity": 0.59,
        "hand": "right"
      },
      {
        "midi": 65,
        "time": 9,
        "duration": 0.75,
        "velocity": 0.58,
        "hand": "right"
      },
      {
        "midi": 72,
        "time": 9,
        "duration": 0.75,
        "velocity": 0.59,
        "hand": "right"
      },
      {
        "midi": 81,
        "time": 9,
        "duration": 0.375,
        "velocity": 0.63,
        "hand": "right"
      },
      {
        "midi": 81,
        "time": 9.375,
        "duration": 0.375,
        "velocity": 0.6,
        "hand": "right"
      },
      {
        "midi": 59,
        "time": 9.75,
        "duration": 0.75,
        "velocity": 0.57,
        "hand": "left"
      },
      {
        "midi": 74,
        "time": 9.75,
        "duration": 0.75,
        "velocity": 0.57,
        "hand": "right"
      },
      {
        "midi": 79,
        "time": 9.75,
        "duration": 0.375,
        "velocity": 0.53,
        "hand": "right"
      },
      {
        "midi": 77,
        "time": 10.125,
        "duration": 0.375,
        "velocity": 0.54,
        "hand": "right"
      },
      {
        "midi": 60,
        "time": 10.5,
        "duration": 1.5,
        "velocity": 0.62,
        "hand": "right"
      },
      {
        "midi": 72,
        "time": 10.5,
        "duration": 1.5,
        "velocity": 0.57,
        "hand": "right"
      },
      {
        "midi": 76,
        "time": 10.5,
        "duration": 1.5,
        "velocity": 0.57,
        "hand": "right"
      },
      {
        "midi": 79,
        "time": 12,
        "duration": 0.375,
        "velocity": 0.66,
        "hand": "right"
      },
      {
        "midi": 81,
        "time": 12.375,
        "duration": 0.375,
        "velocity": 0.65,
        "hand": "right"
      },
      {
        "midi": 79,
        "time": 12.75,
        "duration": 0.375,
        "velocity": 0.55,
        "hand": "right"
      },
      {
        "midi": 76,
        "time": 13.125,
        "duration": 0.375,
        "velocity": 0.5,
        "hand": "right"
      },
      {
        "midi": 60,
        "time": 13.5,
        "duration": 0.375,
        "velocity": 0.52,
        "hand": "right"
      },
      {
        "midi": 72,
        "time": 13.5,
        "duration": 0.375,
        "velocity": 0.55,
        "hand": "right"
      },
      {
        "midi": 84,
        "time": 13.5,
        "duration": 1.5,
        "velocity": 0.71,
        "hand": "right"
      },
      {
        "midi": 62,
        "time": 13.875,
        "duration": 0.375,
        "velocity": 0.61,
        "hand": "right"
      },
      {
        "midi": 69,
        "time": 13.875,
        "duration": 0.375,
        "velocity": 0.63,
        "hand": "right"
      },
      {
        "midi": 72,
        "time": 13.875,
        "duration": 0.375,
        "velocity": 0.56,
        "hand": "right"
      },
      {
        "midi": 60,
        "time": 14.25,
        "duration": 0.375,
        "velocity": 0.59,
        "hand": "right"
      },
      {
        "midi": 67,
        "time": 14.25,
        "duration": 0.375,
        "velocity": 0.55,
        "hand": "right"
      },
      {
        "midi": 71,
        "time": 14.25,
        "duration": 0.375,
        "velocity": 0.59,
        "hand": "right"
      },
      {
        "midi": 59,
        "time": 14.625,
        "duration": 0.375,
        "velocity": 0.61,
        "hand": "left"
      },
      {
        "midi": 65,
        "time": 14.625,
        "duration": 0.375,
        "velocity": 0.57,
        "hand": "right"
      },
      {
        "midi": 69,
        "time": 14.625,
        "duration": 0.375,
        "velocity": 0.54,
        "hand": "right"
      },
      {
        "midi": 60,
        "time": 15,
        "duration": 1.5,
        "velocity": 0.65,
        "hand": "right"
      },
      {
        "midi": 67,
        "time": 15,
        "duration": 1.5,
        "velocity": 0.6,
        "hand": "right"
      },
      {
        "midi": 79,
        "time": 15,
        "duration": 0.375,
        "velocity": 0.55,
        "hand": "right"
      },
      {
        "midi": 81,
        "time": 15.375,
        "duration": 0.375,
        "velocity": 0.63,
        "hand": "right"
      },
      {
        "midi": 79,
        "time": 15.75,
        "duration": 0.375,
        "velocity": 0.53,
        "hand": "right"
      },
      {
        "midi": 76,
        "time": 16.125,
        "duration": 0.375,
        "velocity": 0.57,
        "hand": "right"
      },
      {
        "midi": 57,
        "time": 16.5,
        "duration": 0.375,
        "velocity": 0.59,
        "hand": "left"
      },
      {
        "midi": 72,
        "time": 16.5,
        "duration": 0.375,
        "velocity": 0.64,
        "hand": "right"
      },
      {
        "midi": 84,
        "time": 16.5,
        "duration": 0.75,
        "velocity": 0.75,
        "hand": "right"
      },
      {
        "midi": 59,
        "time": 16.875,
        "duration": 0.375,
        "velocity": 0.6,
        "hand": "left"
      },
      {
        "midi": 71,
        "time": 16.875,
        "duration": 0.375,
        "velocity": 0.67,
        "hand": "right"
      },
      {
        "midi": 74,
        "time": 16.875,
        "duration": 0.375,
        "velocity": 0.62,
        "hand": "right"
      },
      {
        "midi": 60,
        "time": 17.25,
        "duration": 0.375,
        "velocity": 0.65,
        "hand": "right"
      },
      {
        "midi": 76,
        "time": 17.25,
        "duration": 0.375,
        "velocity": 0.65,
        "hand": "right"
      },
      {
        "midi": 84,
        "time": 17.25,
        "duration": 0.75,
        "velocity": 0.6,
        "hand": "right"
      },
      {
        "midi": 62,
        "time": 17.625,
        "duration": 0.375,
        "velocity": 0.64,
        "hand": "right"
      },
      {
        "midi": 74,
        "time": 17.625,
        "duration": 0.375,
        "velocity": 0.65,
        "hand": "right"
      },
      {
        "midi": 77,
        "time": 17.625,
        "duration": 0.375,
        "velocity": 0.61,
        "hand": "right"
      },
      {
        "midi": 60,
        "time": 18,
        "duration": 0.375,
        "velocity": 0.56,
        "hand": "right"
      },
      {
        "midi": 79,
        "time": 18,
        "duration": 0.375,
        "velocity": 0.65,
        "hand": "right"
      },
      {
        "midi": 88,
        "time": 18,
        "duration": 0.375,
        "velocity": 0.66,
        "hand": "right"
      },
      {
        "midi": 60,
        "time": 18.375,
        "duration": 0.375,
        "velocity": 0.61,
        "hand": "right"
      },
      {
        "midi": 79,
        "time": 18.375,
        "duration": 0.375,
        "velocity": 0.58,
        "hand": "right"
      },
      {
        "midi": 88,
        "time": 18.375,
        "duration": 0.375,
        "velocity": 0.63,
        "hand": "right"
      },
      {
        "midi": 64,
        "time": 18.75,
        "duration": 0.375,
        "velocity": 0.65,
        "hand": "right"
      },
      {
        "midi": 77,
        "time": 18.75,
        "duration": 0.375,
        "velocity": 0.55,
        "hand": "right"
      },
      {
        "midi": 86,
        "time": 18.75,
        "duration": 0.375,
        "velocity": 0.55,
        "hand": "right"
      },
      {
        "midi": 64,
        "time": 19.125,
        "duration": 0.375,
        "velocity": 0.65,
        "hand": "right"
      },
      {
        "midi": 76,
        "time": 19.125,
        "duration": 0.375,
        "velocity": 0.6,
        "hand": "right"
      },
      {
        "midi": 88,
        "time": 19.125,
        "duration": 0.375,
        "velocity": 0.62,
        "hand": "right"
      },
      {
        "midi": 62,
        "time": 19.5,
        "duration": 0.188,
        "velocity": 0.52,
        "hand": "right"
      },
      {
        "midi": 74,
        "time": 19.5,
        "duration": 0.188,
        "velocity": 0.57,
        "hand": "right"
      },
      {
        "midi": 89,
        "time": 19.5,
        "duration": 0.188,
        "velocity": 0.62,
        "hand": "right"
      },
      {
        "midi": 62,
        "time": 19.688,
        "duration": 0.375,
        "velocity": 0.63,
        "hand": "right"
      },
      {
        "midi": 74,
        "time": 19.688,
        "duration": 0.375,
        "velocity": 0.58,
        "hand": "right"
      },
      {
        "midi": 86,
        "time": 19.688,
        "duration": 0.375,
        "velocity": 0.56,
        "hand": "right"
      },
      {
        "midi": 62,
        "time": 20.063,
        "duration": 0.188,
        "velocity": 0.59,
        "hand": "right"
      },
      {
        "midi": 74,
        "time": 20.063,
        "duration": 0.188,
        "velocity": 0.57,
        "hand": "right"
      },
      {
        "midi": 83,
        "time": 20.063,
        "duration": 0.188,
        "velocity": 0.53,
        "hand": "right"
      },
      {
        "midi": 67,
        "time": 20.25,
        "duration": 0.375,
        "velocity": 0.7,
        "hand": "right"
      },
      {
        "midi": 74,
        "time": 20.25,
        "duration": 0.375,
        "velocity": 0.63,
        "hand": "right"
      },
      {
        "midi": 79,
        "time": 20.25,
        "duration": 0.375,
        "velocity": 0.54,
        "hand": "right"
      },
      {
        "midi": 67,
        "time": 20.625,
        "duration": 0.375,
        "velocity": 0.61,
        "hand": "right"
      },
      {
        "midi": 74,
        "time": 20.625,
        "duration": 0.375,
        "velocity": 0.6,
        "hand": "right"
      },
      {
        "midi": 79,
        "time": 20.625,
        "duration": 0.375,
        "velocity": 0.61,
        "hand": "right"
      },
      {
        "midi": 65,
        "time": 21,
        "duration": 0.375,
        "velocity": 0.53,
        "hand": "right"
      },
      {
        "midi": 72,
        "time": 21,
        "duration": 0.375,
        "velocity": 0.57,
        "hand": "right"
      },
      {
        "midi": 81,
        "time": 21,
        "duration": 0.375,
        "velocity": 0.67,
        "hand": "right"
      },
      {
        "midi": 53,
        "time": 21.375,
        "duration": 0.375,
        "velocity": 0.53,
        "hand": "left"
      },
      {
        "midi": 72,
        "time": 21.375,
        "duration": 0.375,
        "velocity": 0.57,
        "hand": "right"
      },
      {
        "midi": 81,
        "time": 21.375,
        "duration": 0.375,
        "velocity": 0.57,
        "hand": "right"
      },
      {
        "midi": 55,
        "time": 21.75,
        "duration": 0.375,
        "velocity": 0.59,
        "hand": "left"
      },
      {
        "midi": 76,
        "time": 21.75,
        "duration": 0.375,
        "velocity": 0.65,
        "hand": "right"
      },
      {
        "midi": 79,
        "time": 21.75,
        "duration": 0.375,
        "velocity": 0.55,
        "hand": "right"
      },
      {
        "midi": 62,
        "time": 22.125,
        "duration": 0.375,
        "velocity": 0.72,
        "hand": "right"
      },
      {
        "midi": 74,
        "time": 22.125,
        "duration": 0.375,
        "velocity": 0.56,
        "hand": "right"
      },
      {
        "midi": 77,
        "time": 22.125,
        "duration": 0.375,
        "velocity": 0.57,
        "hand": "right"
      },
      {
        "midi": 60,
        "time": 22.5,
        "duration": 1.5,
        "velocity": 0.55,
        "hand": "right"
      },
      {
        "midi": 72,
        "time": 22.5,
        "duration": 1.5,
        "velocity": 0.53,
        "hand": "right"
      },
      {
        "midi": 76,
        "time": 22.5,
        "duration": 1.5,
        "velocity": 0.59,
        "hand": "right"
      },
      {
        "midi": 79,
        "time": 24,
        "duration": 0.375,
        "velocity": 0.62,
        "hand": "right"
      },
      {
        "midi": 81,
        "time": 24.375,
        "duration": 0.375,
        "velocity": 0.61,
        "hand": "right"
      },
      {
        "midi": 79,
        "time": 24.75,
        "duration": 0.375,
        "velocity": 0.57,
        "hand": "right"
      },
      {
        "midi": 76,
        "time": 25.125,
        "duration": 0.375,
        "velocity": 0.57,
        "hand": "right"
      },
      {
        "midi": 60,
        "time": 25.5,
        "duration": 0.375,
        "velocity": 0.51,
        "hand": "right"
      },
      {
        "midi": 72,
        "time": 25.5,
        "duration": 0.375,
        "velocity": 0.5,
        "hand": "right"
      },
      {
        "midi": 84,
        "time": 25.5,
        "duration": 1.5,
        "velocity": 0.75,
        "hand": "right"
      },
      {
        "midi": 62,
        "time": 25.875,
        "duration": 0.375,
        "velocity": 0.6,
        "hand": "right"
      },
      {
        "midi": 69,
        "time": 25.875,
        "duration": 0.375,
        "velocity": 0.61,
        "hand": "right"
      },
      {
        "midi": 72,
        "time": 25.875,
        "duration": 0.375,
        "velocity": 0.59,
        "hand": "right"
      },
      {
        "midi": 60,
        "time": 26.25,
        "duration": 0.375,
        "velocity": 0.57,
        "hand": "right"
      },
      {
        "midi": 67,
        "time": 26.25,
        "duration": 0.375,
        "velocity": 0.54,
        "hand": "right"
      },
      {
        "midi": 71,
        "time": 26.25,
        "duration": 0.375,
        "velocity": 0.58,
        "hand": "right"
      },
      {
        "midi": 59,
        "time": 26.625,
        "duration": 0.375,
        "velocity": 0.59,
        "hand": "left"
      },
      {
        "midi": 65,
        "time": 26.625,
        "duration": 0.375,
        "velocity": 0.57,
        "hand": "right"
      },
      {
        "midi": 69,
        "time": 26.625,
        "duration": 0.375,
        "velocity": 0.59,
        "hand": "right"
      },
      {
        "midi": 60,
        "time": 27,
        "duration": 1.5,
        "velocity": 0.6,
        "hand": "right"
      },
      {
        "midi": 67,
        "time": 27,
        "duration": 1.5,
        "velocity": 0.56,
        "hand": "right"
      },
      {
        "midi": 79,
        "time": 27,
        "duration": 0.375,
        "velocity": 0.56,
        "hand": "right"
      },
      {
        "midi": 81,
        "time": 27.375,
        "duration": 0.375,
        "velocity": 0.63,
        "hand": "right"
      },
      {
        "midi": 79,
        "time": 27.75,
        "duration": 0.375,
        "velocity": 0.54,
        "hand": "right"
      },
      {
        "midi": 76,
        "time": 28.125,
        "duration": 0.375,
        "velocity": 0.54,
        "hand": "right"
      },
      {
        "midi": 57,
        "time": 28.5,
        "duration": 0.375,
        "velocity": 0.55,
        "hand": "left"
      },
      {
        "midi": 72,
        "time": 28.5,
        "duration": 0.375,
        "velocity": 0.64,
        "hand": "right"
      },
      {
        "midi": 84,
        "time": 28.5,
        "duration": 0.75,
        "velocity": 0.72,
        "hand": "right"
      },
      {
        "midi": 59,
        "time": 28.875,
        "duration": 0.375,
        "velocity": 0.61,
        "hand": "left"
      },
      {
        "midi": 71,
        "time": 28.875,
        "duration": 0.375,
        "velocity": 0.64,
        "hand": "right"
      },
      {
        "midi": 74,
        "time": 28.875,
        "duration": 0.375,
        "velocity": 0.64,
        "hand": "right"
      },
      {
        "midi": 60,
        "time": 29.25,
        "duration": 0.375,
        "velocity": 0.62,
        "hand": "right"
      },
      {
        "midi": 76,
        "time": 29.25,
        "duration": 0.375,
        "velocity": 0.67,
        "hand": "right"
      },
      {
        "midi": 84,
        "time": 29.25,
        "duration": 0.75,
        "velocity": 0.61,
        "hand": "right"
      },
      {
        "midi": 62,
        "time": 29.625,
        "duration": 0.375,
        "velocity": 0.61,
        "hand": "right"
      },
      {
        "midi": 74,
        "time": 29.625,
        "duration": 0.375,
        "velocity": 0.62,
        "hand": "right"
      },
      {
        "midi": 77,
        "time": 29.625,
        "duration": 0.375,
        "velocity": 0.58,
        "hand": "right"
      },
      {
        "midi": 60,
        "time": 30,
        "duration": 0.375,
        "velocity": 0.57,
        "hand": "right"
      },
      {
        "midi": 79,
        "time": 30,
        "duration": 0.375,
        "velocity": 0.62,
        "hand": "right"
      },
      {
        "midi": 88,
        "time": 30,
        "duration": 0.375,
        "velocity": 0.67,
        "hand": "right"
      },
      {
        "midi": 60,
        "time": 30.375,
        "duration": 0.375,
        "velocity": 0.62,
        "hand": "right"
      },
      {
        "midi": 79,
        "time": 30.375,
        "duration": 0.375,
        "velocity": 0.64,
        "hand": "right"
      },
      {
        "midi": 88,
        "time": 30.375,
        "duration": 0.375,
        "velocity": 0.64,
        "hand": "right"
      },
      {
        "midi": 64,
        "time": 30.75,
        "duration": 0.375,
        "velocity": 0.68,
        "hand": "right"
      },
      {
        "midi": 77,
        "time": 30.75,
        "duration": 0.375,
        "velocity": 0.54,
        "hand": "right"
      },
      {
        "midi": 86,
        "time": 30.75,
        "duration": 0.375,
        "velocity": 0.58,
        "hand": "right"
      },
      {
        "midi": 64,
        "time": 31.125,
        "duration": 0.375,
        "velocity": 0.62,
        "hand": "right"
      },
      {
        "midi": 76,
        "time": 31.125,
        "duration": 0.375,
        "velocity": 0.57,
        "hand": "right"
      },
      {
        "midi": 88,
        "time": 31.125,
        "duration": 0.375,
        "velocity": 0.61,
        "hand": "right"
      },
      {
        "midi": 62,
        "time": 31.5,
        "duration": 0.188,
        "velocity": 0.53,
        "hand": "right"
      },
      {
        "midi": 74,
        "time": 31.5,
        "duration": 0.188,
        "velocity": 0.53,
        "hand": "right"
      },
      {
        "midi": 89,
        "time": 31.5,
        "duration": 0.188,
        "velocity": 0.67,
        "hand": "right"
      },
      {
        "midi": 62,
        "time": 31.688,
        "duration": 0.375,
        "velocity": 0.61,
        "hand": "right"
      },
      {
        "midi": 74,
        "time": 31.688,
        "duration": 0.375,
        "velocity": 0.58,
        "hand": "right"
      },
      {
        "midi": 86,
        "time": 31.688,
        "duration": 0.375,
        "velocity": 0.54,
        "hand": "right"
      },
      {
        "midi": 62,
        "time": 32.063,
        "duration": 0.188,
        "velocity": 0.61,
        "hand": "right"
      },
      {
        "midi": 74,
        "time": 32.063,
        "duration": 0.188,
        "velocity": 0.59,
        "hand": "right"
      },
      {
        "midi": 83,
        "time": 32.063,
        "duration": 0.188,
        "velocity": 0.53,
        "hand": "right"
      },
      {
        "midi": 67,
        "time": 32.25,
        "duration": 0.375,
        "velocity": 0.69,
        "hand": "right"
      },
      {
        "midi": 74,
        "time": 32.25,
        "duration": 0.375,
        "velocity": 0.63,
        "hand": "right"
      },
      {
        "midi": 79,
        "time": 32.25,
        "duration": 0.375,
        "velocity": 0.5,
        "hand": "right"
      },
      {
        "midi": 67,
        "time": 32.625,
        "duration": 0.375,
        "velocity": 0.57,
        "hand": "right"
      },
      {
        "midi": 74,
        "time": 32.625,
        "duration": 0.375,
        "velocity": 0.6,
        "hand": "right"
      },
      {
        "midi": 79,
        "time": 32.625,
        "duration": 0.375,
        "velocity": 0.6,
        "hand": "right"
      },
      {
        "midi": 65,
        "time": 33,
        "duration": 0.375,
        "velocity": 0.53,
        "hand": "right"
      },
      {
        "midi": 72,
        "time": 33,
        "duration": 0.375,
        "velocity": 0.54,
        "hand": "right"
      },
      {
        "midi": 81,
        "time": 33,
        "duration": 0.375,
        "velocity": 0.63,
        "hand": "right"
      },
      {
        "midi": 60,
        "time": 33.375,
        "duration": 0.375,
        "velocity": 0.52,
        "hand": "right"
      },
      {
        "midi": 72,
        "time": 33.375,
        "duration": 0.375,
        "velocity": 0.59,
        "hand": "right"
      },
      {
        "midi": 81,
        "time": 33.375,
        "duration": 0.375,
        "velocity": 0.61,
        "hand": "right"
      },
      {
        "midi": 67,
        "time": 33.75,
        "duration": 0.375,
        "velocity": 0.69,
        "hand": "right"
      },
      {
        "midi": 74,
        "time": 33.75,
        "duration": 0.375,
        "velocity": 0.61,
        "hand": "right"
      },
      {
        "midi": 83,
        "time": 33.75,
        "duration": 0.375,
        "velocity": 0.65,
        "hand": "right"
      },
      {
        "midi": 62,
        "time": 34.125,
        "duration": 0.375,
        "velocity": 0.54,
        "hand": "right"
      },
      {
        "midi": 74,
        "time": 34.125,
        "duration": 0.375,
        "velocity": 0.64,
        "hand": "right"
      },
      {
        "midi": 83,
        "time": 34.125,
        "duration": 0.375,
        "velocity": 0.63,
        "hand": "right"
      },
      {
        "midi": 60,
        "time": 34.5,
        "duration": 1.5,
        "velocity": 0.57,
        "hand": "right"
      },
      {
        "midi": 76,
        "time": 34.5,
        "duration": 1.5,
        "velocity": 0.6,
        "hand": "right"
      },
      {
        "midi": 84,
        "time": 34.5,
        "duration": 1.5,
        "velocity": 0.64,
        "hand": "right"
      }
    ],
    "hard": [
      {
        "midi": 64,
        "time": 0,
        "duration": 0.75,
        "velocity": 0.55,
        "hand": "right"
      },
      {
        "midi": 67,
        "time": 0,
        "duration": 1.5,
        "velocity": 0.54,
        "hand": "right"
      },
      {
        "midi": 72,
        "time": 0,
        "duration": 1.5,
        "velocity": 0.52,
        "hand": "right"
      },
      {
        "midi": 79,
        "time": 0,
        "duration": 0.375,
        "velocity": 0.53,
        "hand": "right"
      },
      {
        "midi": 81,
        "time": 0.375,
        "duration": 0.375,
        "velocity": 0.65,
        "hand": "right"
      },
      {
        "midi": 62,
        "time": 0.75,
        "duration": 0.75,
        "velocity": 0.56,
        "hand": "right"
      },
      {
        "midi": 79,
        "time": 0.75,
        "duration": 0.375,
        "velocity": 0.57,
        "hand": "right"
      },
      {
        "midi": 76,
        "time": 1.125,
        "duration": 0.375,
        "velocity": 0.54,
        "hand": "right"
      },
      {
        "midi": 60,
        "time": 1.5,
        "duration": 0.75,
        "velocity": 0.51,
        "hand": "right"
      },
      {
        "midi": 69,
        "time": 1.5,
        "duration": 1.5,
        "velocity": 0.61,
        "hand": "right"
      },
      {
        "midi": 72,
        "time": 1.5,
        "duration": 1.5,
        "velocity": 0.55,
        "hand": "right"
      },
      {
        "midi": 84,
        "time": 1.5,
        "duration": 1.5,
        "velocity": 0.69,
        "hand": "right"
      },
      {
        "midi": 59,
        "time": 2.25,
        "duration": 0.75,
        "velocity": 0.56,
        "hand": "left"
      },
      {
        "midi": 60,
        "time": 3,
        "duration": 0.75,
        "velocity": 0.62,
        "hand": "right"
      },
      {
        "midi": 67,
        "time": 3,
        "duration": 0.75,
        "velocity": 0.57,
        "hand": "right"
      },
      {
        "midi": 76,
        "time": 3,
        "duration": 0.375,
        "velocity": 0.68,
        "hand": "right"
      },
      {
        "midi": 79,
        "time": 3,
        "duration": 0.375,
        "velocity": 0.54,
        "hand": "right"
      },
      {
        "midi": 74,
        "time": 3.375,
        "duration": 0.375,
        "velocity": 0.53,
        "hand": "right"
      },
      {
        "midi": 81,
        "time": 3.375,
        "duration": 0.375,
        "velocity": 0.63,
        "hand": "right"
      },
      {
        "midi": 59,
        "time": 3.75,
        "duration": 0.75,
        "velocity": 0.57,
        "hand": "left"
      },
      {
        "midi": 67,
        "time": 3.75,
        "duration": 0.75,
        "velocity": 0.6,
        "hand": "right"
      },
      {
        "midi": 72,
        "time": 3.75,
        "duration": 0.375,
        "velocity": 0.54,
        "hand": "right"
      },
      {
        "midi": 79,
        "time": 3.75,
        "duration": 0.375,
        "velocity": 0.55,
        "hand": "right"
      },
      {
        "midi": 71,
        "time": 4.125,
        "duration": 0.375,
        "velocity": 0.61,
        "hand": "right"
      },
      {
        "midi": 76,
        "time": 4.125,
        "duration": 0.375,
        "velocity": 0.54,
        "hand": "right"
      },
      {
        "midi": 57,
        "time": 4.5,
        "duration": 0.75,
        "velocity": 0.57,
        "hand": "left"
      },
      {
        "midi": 69,
        "time": 4.5,
        "duration": 1.5,
        "velocity": 0.62,
        "hand": "right"
      },
      {
        "midi": 72,
        "time": 4.5,
        "duration": 1.5,
        "velocity": 0.61,
        "hand": "right"
      },
      {
        "midi": 84,
        "time": 4.5,
        "duration": 0.75,
        "velocity": 0.69,
        "hand": "right"
      },
      {
        "midi": 59,
        "time": 5.25,
        "duration": 0.75,
        "velocity": 0.59,
        "hand": "left"
      },
      {
        "midi": 84,
        "time": 5.25,
        "duration": 0.75,
        "velocity": 0.61,
        "hand": "right"
      },
      {
        "midi": 60,
        "time": 6,
        "duration": 0.75,
        "velocity": 0.64,
        "hand": "right"
      },
      {
        "midi": 67,
        "time": 6,
        "duration": 0.75,
        "velocity": 0.55,
        "hand": "right"
      },
      {
        "midi": 76,
        "time": 6,
        "duration": 0.75,
        "velocity": 0.66,
        "hand": "right"
      },
      {
        "midi": 88,
        "time": 6,
        "duration": 0.375,
        "velocity": 0.66,
        "hand": "right"
      },
      {
        "midi": 88,
        "time": 6.375,
        "duration": 0.375,
        "velocity": 0.61,
        "hand": "right"
      },
      {
        "midi": 64,
        "time": 6.75,
        "duration": 0.75,
        "velocity": 0.63,
        "hand": "right"
      },
      {
        "midi": 72,
        "time": 6.75,
        "duration": 0.75,
        "velocity": 0.68,
        "hand": "right"
      },
      {
        "midi": 79,
        "time": 6.75,
        "duration": 0.75,
        "velocity": 0.65,
        "hand": "right"
      },
      {
        "midi": 86,
        "time": 6.75,
        "duration": 0.375,
        "velocity": 0.54,
        "hand": "right"
      },
      {
        "midi": 88,
        "time": 7.125,
        "duration": 0.375,
        "velocity": 0.58,
        "hand": "right"
      },
      {
        "midi": 62,
        "time": 7.5,
        "duration": 0.75,
        "velocity": 0.57,
        "hand": "right"
      },
      {
        "midi": 69,
        "time": 7.5,
        "duration": 0.75,
        "velocity": 0.54,
        "hand": "right"
      },
      {
        "midi": 77,
        "time": 7.5,
        "duration": 0.75,
        "velocity": 0.59,
        "hand": "right"
      },
      {
        "midi": 89,
        "time": 7.5,
        "duration": 0.188,
        "velocity": 0.66,
        "hand": "right"
      },
      {
        "midi": 86,
        "time": 7.688,
        "duration": 0.375,
        "velocity": 0.56,
        "hand": "right"
      },
      {
        "midi": 83,
        "time": 8.063,
        "duration": 0.188,
        "velocity": 0.56,
        "hand": "right"
      },
      {
        "midi": 67,
        "time": 8.25,
        "duration": 0.75,
        "velocity": 0.69,
        "hand": "right"
      },
      {
        "midi": 71,
        "time": 8.25,
        "duration": 0.75,
        "velocity": 0.61,
        "hand": "right"
      },
      {
        "midi": 74,
        "time": 8.25,
        "duration": 0.75,
        "velocity": 0.54,
        "hand": "right"
      },
      {
        "midi": 79,
        "time": 8.25,
        "duration": 0.375,
        "velocity": 0.49,
        "hand": "right"
      },
      {
        "midi": 79,
        "time": 8.625,
        "duration": 0.375,
        "velocity": 0.59,
        "hand": "right"
      },
      {
        "midi": 65,
        "time": 9,
        "duration": 0.75,
        "velocity": 0.58,
        "hand": "right"
      },
      {
        "midi": 69,
        "time": 9,
        "duration": 0.75,
        "velocity": 0.56,
        "hand": "right"
      },
      {
        "midi": 72,
        "time": 9,
        "duration": 0.75,
        "velocity": 0.59,
        "hand": "right"
      },
      {
        "midi": 81,
        "time": 9,
        "duration": 0.375,
        "velocity": 0.63,
        "hand": "right"
      },
      {
        "midi": 81,
        "time": 9.375,
        "duration": 0.375,
        "velocity": 0.6,
        "hand": "right"
      },
      {
        "midi": 59,
        "time": 9.75,
        "duration": 0.75,
        "velocity": 0.57,
        "hand": "left"
      },
      {
        "midi": 71,
        "time": 9.75,
        "duration": 0.75,
        "velocity": 0.66,
        "hand": "right"
      },
      {
        "midi": 74,
        "time": 9.75,
        "duration": 0.75,
        "velocity": 0.57,
        "hand": "right"
      },
      {
        "midi": 79,
        "time": 9.75,
        "duration": 0.375,
        "velocity": 0.53,
        "hand": "right"
      },
      {
        "midi": 77,
        "time": 10.125,
        "duration": 0.375,
        "velocity": 0.54,
        "hand": "right"
      },
      {
        "midi": 60,
        "time": 10.5,
        "duration": 1.5,
        "velocity": 0.62,
        "hand": "right"
      },
      {
        "midi": 67,
        "time": 10.5,
        "duration": 1.5,
        "velocity": 0.52,
        "hand": "right"
      },
      {
        "midi": 72,
        "time": 10.5,
        "duration": 1.5,
        "velocity": 0.57,
        "hand": "right"
      },
      {
        "midi": 76,
        "time": 10.5,
        "duration": 1.5,
        "velocity": 0.57,
        "hand": "right"
      },
      {
        "midi": 79,
        "time": 12,
        "duration": 0.375,
        "velocity": 0.66,
        "hand": "right"
      },
      {
        "midi": 81,
        "time": 12.375,
        "duration": 0.375,
        "velocity": 0.65,
        "hand": "right"
      },
      {
        "midi": 79,
        "time": 12.75,
        "duration": 0.375,
        "velocity": 0.55,
        "hand": "right"
      },
      {
        "midi": 76,
        "time": 13.125,
        "duration": 0.375,
        "velocity": 0.5,
        "hand": "right"
      },
      {
        "midi": 60,
        "time": 13.5,
        "duration": 0.375,
        "velocity": 0.52,
        "hand": "right"
      },
      {
        "midi": 67,
        "time": 13.5,
        "duration": 0.375,
        "velocity": 0.52,
        "hand": "right"
      },
      {
        "midi": 72,
        "time": 13.5,
        "duration": 0.375,
        "velocity": 0.55,
        "hand": "right"
      },
      {
        "midi": 84,
        "time": 13.5,
        "duration": 1.5,
        "velocity": 0.71,
        "hand": "right"
      },
      {
        "midi": 62,
        "time": 13.875,
        "duration": 0.375,
        "velocity": 0.61,
        "hand": "right"
      },
      {
        "midi": 69,
        "time": 13.875,
        "duration": 0.375,
        "velocity": 0.63,
        "hand": "right"
      },
      {
        "midi": 72,
        "time": 13.875,
        "duration": 0.375,
        "velocity": 0.56,
        "hand": "right"
      },
      {
        "midi": 60,
        "time": 14.25,
        "duration": 0.375,
        "velocity": 0.59,
        "hand": "right"
      },
      {
        "midi": 67,
        "time": 14.25,
        "duration": 0.375,
        "velocity": 0.55,
        "hand": "right"
      },
      {
        "midi": 71,
        "time": 14.25,
        "duration": 0.375,
        "velocity": 0.59,
        "hand": "right"
      },
      {
        "midi": 59,
        "time": 14.625,
        "duration": 0.375,
        "velocity": 0.61,
        "hand": "left"
      },
      {
        "midi": 65,
        "time": 14.625,
        "duration": 0.375,
        "velocity": 0.57,
        "hand": "right"
      },
      {
        "midi": 69,
        "time": 14.625,
        "duration": 0.375,
        "velocity": 0.54,
        "hand": "right"
      },
      {
        "midi": 60,
        "time": 15,
        "duration": 1.5,
        "velocity": 0.65,
        "hand": "right"
      },
      {
        "midi": 64,
        "time": 15,
        "duration": 1.5,
        "velocity": 0.54,
        "hand": "right"
      },
      {
        "midi": 67,
        "time": 15,
        "duration": 1.5,
        "velocity": 0.6,
        "hand": "right"
      },
      {
        "midi": 79,
        "time": 15,
        "duration": 0.375,
        "velocity": 0.55,
        "hand": "right"
      },
      {
        "midi": 81,
        "time": 15.375,
        "duration": 0.375,
        "velocity": 0.63,
        "hand": "right"
      },
      {
        "midi": 79,
        "time": 15.75,
        "duration": 0.375,
        "velocity": 0.53,
        "hand": "right"
      },
      {
        "midi": 76,
        "time": 16.125,
        "duration": 0.375,
        "velocity": 0.57,
        "hand": "right"
      },
      {
        "midi": 57,
        "time": 16.5,
        "duration": 0.375,
        "velocity": 0.59,
        "hand": "left"
      },
      {
        "midi": 69,
        "time": 16.5,
        "duration": 0.375,
        "velocity": 0.65,
        "hand": "right"
      },
      {
        "midi": 72,
        "time": 16.5,
        "duration": 0.375,
        "velocity": 0.64,
        "hand": "right"
      },
      {
        "midi": 84,
        "time": 16.5,
        "duration": 0.75,
        "velocity": 0.75,
        "hand": "right"
      },
      {
        "midi": 59,
        "time": 16.875,
        "duration": 0.375,
        "velocity": 0.6,
        "hand": "left"
      },
      {
        "midi": 71,
        "time": 16.875,
        "duration": 0.375,
        "velocity": 0.67,
        "hand": "right"
      },
      {
        "midi": 74,
        "time": 16.875,
        "duration": 0.375,
        "velocity": 0.62,
        "hand": "right"
      },
      {
        "midi": 60,
        "time": 17.25,
        "duration": 0.375,
        "velocity": 0.65,
        "hand": "right"
      },
      {
        "midi": 72,
        "time": 17.25,
        "duration": 0.375,
        "velocity": 0.58,
        "hand": "right"
      },
      {
        "midi": 76,
        "time": 17.25,
        "duration": 0.375,
        "velocity": 0.65,
        "hand": "right"
      },
      {
        "midi": 84,
        "time": 17.25,
        "duration": 0.75,
        "velocity": 0.6,
        "hand": "right"
      },
      {
        "midi": 62,
        "time": 17.625,
        "duration": 0.375,
        "velocity": 0.64,
        "hand": "right"
      },
      {
        "midi": 74,
        "time": 17.625,
        "duration": 0.375,
        "velocity": 0.65,
        "hand": "right"
      },
      {
        "midi": 77,
        "time": 17.625,
        "duration": 0.375,
        "velocity": 0.61,
        "hand": "right"
      },
      {
        "midi": 60,
        "time": 18,
        "duration": 0.375,
        "velocity": 0.56,
        "hand": "right"
      },
      {
        "midi": 76,
        "time": 18,
        "duration": 0.375,
        "velocity": 0.65,
        "hand": "right"
      },
      {
        "midi": 79,
        "time": 18,
        "duration": 0.375,
        "velocity": 0.65,
        "hand": "right"
      },
      {
        "midi": 88,
        "time": 18,
        "duration": 0.375,
        "velocity": 0.66,
        "hand": "right"
      },
      {
        "midi": 60,
        "time": 18.375,
        "duration": 0.375,
        "velocity": 0.61,
        "hand": "right"
      },
      {
        "midi": 76,
        "time": 18.375,
        "duration": 0.375,
        "velocity": 0.61,
        "hand": "right"
      },
      {
        "midi": 79,
        "time": 18.375,
        "duration": 0.375,
        "velocity": 0.58,
        "hand": "right"
      },
      {
        "midi": 88,
        "time": 18.375,
        "duration": 0.375,
        "velocity": 0.63,
        "hand": "right"
      },
      {
        "midi": 64,
        "time": 18.75,
        "duration": 0.375,
        "velocity": 0.65,
        "hand": "right"
      },
      {
        "midi": 74,
        "time": 18.75,
        "duration": 0.375,
        "velocity": 0.53,
        "hand": "right"
      },
      {
        "midi": 77,
        "time": 18.75,
        "duration": 0.375,
        "velocity": 0.55,
        "hand": "right"
      },
      {
        "midi": 86,
        "time": 18.75,
        "duration": 0.375,
        "velocity": 0.55,
        "hand": "right"
      },
      {
        "midi": 64,
        "time": 19.125,
        "duration": 0.375,
        "velocity": 0.65,
        "hand": "right"
      },
      {
        "midi": 72,
        "time": 19.125,
        "duration": 0.375,
        "velocity": 0.55,
        "hand": "right"
      },
      {
        "midi": 76,
        "time": 19.125,
        "duration": 0.375,
        "velocity": 0.6,
        "hand": "right"
      },
      {
        "midi": 88,
        "time": 19.125,
        "duration": 0.375,
        "velocity": 0.62,
        "hand": "right"
      },
      {
        "midi": 62,
        "time": 19.5,
        "duration": 0.188,
        "velocity": 0.52,
        "hand": "right"
      },
      {
        "midi": 69,
        "time": 19.5,
        "duration": 0.188,
        "velocity": 0.52,
        "hand": "right"
      },
      {
        "midi": 74,
        "time": 19.5,
        "duration": 0.188,
        "velocity": 0.57,
        "hand": "right"
      },
      {
        "midi": 89,
        "time": 19.5,
        "duration": 0.188,
        "velocity": 0.62,
        "hand": "right"
      },
      {
        "midi": 62,
        "time": 19.688,
        "duration": 0.375,
        "velocity": 0.63,
        "hand": "right"
      },
      {
        "midi": 69,
        "time": 19.688,
        "duration": 0.375,
        "velocity": 0.58,
        "hand": "right"
      },
      {
        "midi": 74,
        "time": 19.688,
        "duration": 0.375,
        "velocity": 0.58,
        "hand": "right"
      },
      {
        "midi": 86,
        "time": 19.688,
        "duration": 0.375,
        "velocity": 0.56,
        "hand": "right"
      },
      {
        "midi": 62,
        "time": 20.063,
        "duration": 0.188,
        "velocity": 0.59,
        "hand": "right"
      },
      {
        "midi": 69,
        "time": 20.063,
        "duration": 0.188,
        "velocity": 0.61,
        "hand": "right"
      },
      {
        "midi": 74,
        "time": 20.063,
        "duration": 0.188,
        "velocity": 0.57,
        "hand": "right"
      },
      {
        "midi": 83,
        "time": 20.063,
        "duration": 0.188,
        "velocity": 0.53,
        "hand": "right"
      },
      {
        "midi": 67,
        "time": 20.25,
        "duration": 0.375,
        "velocity": 0.7,
        "hand": "right"
      },
      {
        "midi": 71,
        "time": 20.25,
        "duration": 0.375,
        "velocity": 0.65,
        "hand": "right"
      },
      {
        "midi": 74,
        "time": 20.25,
        "duration": 0.375,
        "velocity": 0.63,
        "hand": "right"
      },
      {
        "midi": 79,
        "time": 20.25,
        "duration": 0.375,
        "velocity": 0.54,
        "hand": "right"
      },
      {
        "midi": 67,
        "time": 20.625,
        "duration": 0.375,
        "velocity": 0.61,
        "hand": "right"
      },
      {
        "midi": 71,
        "time": 20.625,
        "duration": 0.375,
        "velocity": 0.65,
        "hand": "right"
      },
      {
        "midi": 74,
        "time": 20.625,
        "duration": 0.375,
        "velocity": 0.6,
        "hand": "right"
      },
      {
        "midi": 79,
        "time": 20.625,
        "duration": 0.375,
        "velocity": 0.61,
        "hand": "right"
      },
      {
        "midi": 65,
        "time": 21,
        "duration": 0.375,
        "velocity": 0.53,
        "hand": "right"
      },
      {
        "midi": 69,
        "time": 21,
        "duration": 0.375,
        "velocity": 0.54,
        "hand": "right"
      },
      {
        "midi": 72,
        "time": 21,
        "duration": 0.375,
        "velocity": 0.57,
        "hand": "right"
      },
      {
        "midi": 81,
        "time": 21,
        "duration": 0.375,
        "velocity": 0.67,
        "hand": "right"
      },
      {
        "midi": 53,
        "time": 21.375,
        "duration": 0.375,
        "velocity": 0.53,
        "hand": "left"
      },
      {
        "midi": 69,
        "time": 21.375,
        "duration": 0.375,
        "velocity": 0.6,
        "hand": "right"
      },
      {
        "midi": 72,
        "time": 21.375,
        "duration": 0.375,
        "velocity": 0.57,
        "hand": "right"
      },
      {
        "midi": 81,
        "time": 21.375,
        "duration": 0.375,
        "velocity": 0.57,
        "hand": "right"
      },
      {
        "midi": 55,
        "time": 21.75,
        "duration": 0.375,
        "velocity": 0.59,
        "hand": "left"
      },
      {
        "midi": 71,
        "time": 21.75,
        "duration": 0.375,
        "velocity": 0.65,
        "hand": "right"
      },
      {
        "midi": 76,
        "time": 21.75,
        "duration": 0.375,
        "velocity": 0.65,
        "hand": "right"
      },
      {
        "midi": 79,
        "time": 21.75,
        "duration": 0.375,
        "velocity": 0.55,
        "hand": "right"
      },
      {
        "midi": 62,
        "time": 22.125,
        "duration": 0.375,
        "velocity": 0.72,
        "hand": "right"
      },
      {
        "midi": 69,
        "time": 22.125,
        "duration": 0.375,
        "velocity": 0.61,
        "hand": "right"
      },
      {
        "midi": 74,
        "time": 22.125,
        "duration": 0.375,
        "velocity": 0.56,
        "hand": "right"
      },
      {
        "midi": 77,
        "time": 22.125,
        "duration": 0.375,
        "velocity": 0.57,
        "hand": "right"
      },
      {
        "midi": 60,
        "time": 22.5,
        "duration": 1.5,
        "velocity": 0.55,
        "hand": "right"
      },
      {
        "midi": 67,
        "time": 22.5,
        "duration": 1.5,
        "velocity": 0.53,
        "hand": "right"
      },
      {
        "midi": 72,
        "time": 22.5,
        "duration": 1.5,
        "velocity": 0.53,
        "hand": "right"
      },
      {
        "midi": 76,
        "time": 22.5,
        "duration": 1.5,
        "velocity": 0.59,
        "hand": "right"
      },
      {
        "midi": 79,
        "time": 24,
        "duration": 0.375,
        "velocity": 0.62,
        "hand": "right"
      },
      {
        "midi": 81,
        "time": 24.375,
        "duration": 0.375,
        "velocity": 0.61,
        "hand": "right"
      },
      {
        "midi": 79,
        "time": 24.75,
        "duration": 0.375,
        "velocity": 0.57,
        "hand": "right"
      },
      {
        "midi": 76,
        "time": 25.125,
        "duration": 0.375,
        "velocity": 0.57,
        "hand": "right"
      },
      {
        "midi": 60,
        "time": 25.5,
        "duration": 0.375,
        "velocity": 0.51,
        "hand": "right"
      },
      {
        "midi": 67,
        "time": 25.5,
        "duration": 0.375,
        "velocity": 0.52,
        "hand": "right"
      },
      {
        "midi": 72,
        "time": 25.5,
        "duration": 0.375,
        "velocity": 0.5,
        "hand": "right"
      },
      {
        "midi": 84,
        "time": 25.5,
        "duration": 1.5,
        "velocity": 0.75,
        "hand": "right"
      },
      {
        "midi": 62,
        "time": 25.875,
        "duration": 0.375,
        "velocity": 0.6,
        "hand": "right"
      },
      {
        "midi": 69,
        "time": 25.875,
        "duration": 0.375,
        "velocity": 0.61,
        "hand": "right"
      },
      {
        "midi": 72,
        "time": 25.875,
        "duration": 0.375,
        "velocity": 0.59,
        "hand": "right"
      },
      {
        "midi": 60,
        "time": 26.25,
        "duration": 0.375,
        "velocity": 0.57,
        "hand": "right"
      },
      {
        "midi": 67,
        "time": 26.25,
        "duration": 0.375,
        "velocity": 0.54,
        "hand": "right"
      },
      {
        "midi": 71,
        "time": 26.25,
        "duration": 0.375,
        "velocity": 0.58,
        "hand": "right"
      },
      {
        "midi": 59,
        "time": 26.625,
        "duration": 0.375,
        "velocity": 0.59,
        "hand": "left"
      },
      {
        "midi": 65,
        "time": 26.625,
        "duration": 0.375,
        "velocity": 0.57,
        "hand": "right"
      },
      {
        "midi": 69,
        "time": 26.625,
        "duration": 0.375,
        "velocity": 0.59,
        "hand": "right"
      },
      {
        "midi": 60,
        "time": 27,
        "duration": 1.5,
        "velocity": 0.6,
        "hand": "right"
      },
      {
        "midi": 64,
        "time": 27,
        "duration": 1.5,
        "velocity": 0.55,
        "hand": "right"
      },
      {
        "midi": 67,
        "time": 27,
        "duration": 1.5,
        "velocity": 0.56,
        "hand": "right"
      },
      {
        "midi": 79,
        "time": 27,
        "duration": 0.375,
        "velocity": 0.56,
        "hand": "right"
      },
      {
        "midi": 81,
        "time": 27.375,
        "duration": 0.375,
        "velocity": 0.63,
        "hand": "right"
      },
      {
        "midi": 79,
        "time": 27.75,
        "duration": 0.375,
        "velocity": 0.54,
        "hand": "right"
      },
      {
        "midi": 76,
        "time": 28.125,
        "duration": 0.375,
        "velocity": 0.54,
        "hand": "right"
      },
      {
        "midi": 57,
        "time": 28.5,
        "duration": 0.375,
        "velocity": 0.55,
        "hand": "left"
      },
      {
        "midi": 69,
        "time": 28.5,
        "duration": 0.375,
        "velocity": 0.68,
        "hand": "right"
      },
      {
        "midi": 72,
        "time": 28.5,
        "duration": 0.375,
        "velocity": 0.64,
        "hand": "right"
      },
      {
        "midi": 84,
        "time": 28.5,
        "duration": 0.75,
        "velocity": 0.72,
        "hand": "right"
      },
      {
        "midi": 59,
        "time": 28.875,
        "duration": 0.375,
        "velocity": 0.61,
        "hand": "left"
      },
      {
        "midi": 71,
        "time": 28.875,
        "duration": 0.375,
        "velocity": 0.64,
        "hand": "right"
      },
      {
        "midi": 74,
        "time": 28.875,
        "duration": 0.375,
        "velocity": 0.64,
        "hand": "right"
      },
      {
        "midi": 60,
        "time": 29.25,
        "duration": 0.375,
        "velocity": 0.62,
        "hand": "right"
      },
      {
        "midi": 72,
        "time": 29.25,
        "duration": 0.375,
        "velocity": 0.64,
        "hand": "right"
      },
      {
        "midi": 76,
        "time": 29.25,
        "duration": 0.375,
        "velocity": 0.67,
        "hand": "right"
      },
      {
        "midi": 84,
        "time": 29.25,
        "duration": 0.75,
        "velocity": 0.61,
        "hand": "right"
      },
      {
        "midi": 62,
        "time": 29.625,
        "duration": 0.375,
        "velocity": 0.61,
        "hand": "right"
      },
      {
        "midi": 74,
        "time": 29.625,
        "duration": 0.375,
        "velocity": 0.62,
        "hand": "right"
      },
      {
        "midi": 77,
        "time": 29.625,
        "duration": 0.375,
        "velocity": 0.58,
        "hand": "right"
      },
      {
        "midi": 60,
        "time": 30,
        "duration": 0.375,
        "velocity": 0.57,
        "hand": "right"
      },
      {
        "midi": 76,
        "time": 30,
        "duration": 0.375,
        "velocity": 0.64,
        "hand": "right"
      },
      {
        "midi": 79,
        "time": 30,
        "duration": 0.375,
        "velocity": 0.62,
        "hand": "right"
      },
      {
        "midi": 88,
        "time": 30,
        "duration": 0.375,
        "velocity": 0.67,
        "hand": "right"
      },
      {
        "midi": 60,
        "time": 30.375,
        "duration": 0.375,
        "velocity": 0.62,
        "hand": "right"
      },
      {
        "midi": 76,
        "time": 30.375,
        "duration": 0.375,
        "velocity": 0.61,
        "hand": "right"
      },
      {
        "midi": 79,
        "time": 30.375,
        "duration": 0.375,
        "velocity": 0.64,
        "hand": "right"
      },
      {
        "midi": 88,
        "time": 30.375,
        "duration": 0.375,
        "velocity": 0.64,
        "hand": "right"
      },
      {
        "midi": 64,
        "time": 30.75,
        "duration": 0.375,
        "velocity": 0.68,
        "hand": "right"
      },
      {
        "midi": 74,
        "time": 30.75,
        "duration": 0.375,
        "velocity": 0.56,
        "hand": "right"
      },
      {
        "midi": 77,
        "time": 30.75,
        "duration": 0.375,
        "velocity": 0.54,
        "hand": "right"
      },
      {
        "midi": 86,
        "time": 30.75,
        "duration": 0.375,
        "velocity": 0.58,
        "hand": "right"
      },
      {
        "midi": 64,
        "time": 31.125,
        "duration": 0.375,
        "velocity": 0.62,
        "hand": "right"
      },
      {
        "midi": 72,
        "time": 31.125,
        "duration": 0.375,
        "velocity": 0.55,
        "hand": "right"
      },
      {
        "midi": 76,
        "time": 31.125,
        "duration": 0.375,
        "velocity": 0.57,
        "hand": "right"
      },
      {
        "midi": 88,
        "time": 31.125,
        "duration": 0.375,
        "velocity": 0.61,
        "hand": "right"
      },
      {
        "midi": 62,
        "time": 31.5,
        "duration": 0.188,
        "velocity": 0.53,
        "hand": "right"
      },
      {
        "midi": 69,
        "time": 31.5,
        "duration": 0.188,
        "velocity": 0.53,
        "hand": "right"
      },
      {
        "midi": 74,
        "time": 31.5,
        "duration": 0.188,
        "velocity": 0.53,
        "hand": "right"
      },
      {
        "midi": 89,
        "time": 31.5,
        "duration": 0.188,
        "velocity": 0.67,
        "hand": "right"
      },
      {
        "midi": 62,
        "time": 31.688,
        "duration": 0.375,
        "velocity": 0.61,
        "hand": "right"
      },
      {
        "midi": 69,
        "time": 31.688,
        "duration": 0.375,
        "velocity": 0.57,
        "hand": "right"
      },
      {
        "midi": 74,
        "time": 31.688,
        "duration": 0.375,
        "velocity": 0.58,
        "hand": "right"
      },
      {
        "midi": 86,
        "time": 31.688,
        "duration": 0.375,
        "velocity": 0.54,
        "hand": "right"
      },
      {
        "midi": 62,
        "time": 32.063,
        "duration": 0.188,
        "velocity": 0.61,
        "hand": "right"
      },
      {
        "midi": 69,
        "time": 32.063,
        "duration": 0.188,
        "velocity": 0.65,
        "hand": "right"
      },
      {
        "midi": 74,
        "time": 32.063,
        "duration": 0.188,
        "velocity": 0.59,
        "hand": "right"
      },
      {
        "midi": 83,
        "time": 32.063,
        "duration": 0.188,
        "velocity": 0.53,
        "hand": "right"
      },
      {
        "midi": 67,
        "time": 32.25,
        "duration": 0.375,
        "velocity": 0.69,
        "hand": "right"
      },
      {
        "midi": 71,
        "time": 32.25,
        "duration": 0.375,
        "velocity": 0.65,
        "hand": "right"
      },
      {
        "midi": 74,
        "time": 32.25,
        "duration": 0.375,
        "velocity": 0.63,
        "hand": "right"
      },
      {
        "midi": 79,
        "time": 32.25,
        "duration": 0.375,
        "velocity": 0.5,
        "hand": "right"
      },
      {
        "midi": 67,
        "time": 32.625,
        "duration": 0.375,
        "velocity": 0.57,
        "hand": "right"
      },
      {
        "midi": 71,
        "time": 32.625,
        "duration": 0.375,
        "velocity": 0.62,
        "hand": "right"
      },
      {
        "midi": 74,
        "time": 32.625,
        "duration": 0.375,
        "velocity": 0.6,
        "hand": "right"
      },
      {
        "midi": 79,
        "time": 32.625,
        "duration": 0.375,
        "velocity": 0.6,
        "hand": "right"
      },
      {
        "midi": 65,
        "time": 33,
        "duration": 0.375,
        "velocity": 0.53,
        "hand": "right"
      },
      {
        "midi": 69,
        "time": 33,
        "duration": 0.375,
        "velocity": 0.58,
        "hand": "right"
      },
      {
        "midi": 72,
        "time": 33,
        "duration": 0.375,
        "velocity": 0.54,
        "hand": "right"
      },
      {
        "midi": 81,
        "time": 33,
        "duration": 0.375,
        "velocity": 0.63,
        "hand": "right"
      },
      {
        "midi": 60,
        "time": 33.375,
        "duration": 0.375,
        "velocity": 0.52,
        "hand": "right"
      },
      {
        "midi": 69,
        "time": 33.375,
        "duration": 0.375,
        "velocity": 0.63,
        "hand": "right"
      },
      {
        "midi": 72,
        "time": 33.375,
        "duration": 0.375,
        "velocity": 0.59,
        "hand": "right"
      },
      {
        "midi": 81,
        "time": 33.375,
        "duration": 0.375,
        "velocity": 0.61,
        "hand": "right"
      },
      {
        "midi": 67,
        "time": 33.75,
        "duration": 0.375,
        "velocity": 0.69,
        "hand": "right"
      },
      {
        "midi": 71,
        "time": 33.75,
        "duration": 0.375,
        "velocity": 0.61,
        "hand": "right"
      },
      {
        "midi": 74,
        "time": 33.75,
        "duration": 0.375,
        "velocity": 0.61,
        "hand": "right"
      },
      {
        "midi": 83,
        "time": 33.75,
        "duration": 0.375,
        "velocity": 0.65,
        "hand": "right"
      },
      {
        "midi": 62,
        "time": 34.125,
        "duration": 0.375,
        "velocity": 0.54,
        "hand": "right"
      },
      {
        "midi": 69,
        "time": 34.125,
        "duration": 0.375,
        "velocity": 0.57,
        "hand": "right"
      },
      {
        "midi": 74,
        "time": 34.125,
        "duration": 0.375,
        "velocity": 0.64,
        "hand": "right"
      },
      {
        "midi": 83,
        "time": 34.125,
        "duration": 0.375,
        "velocity": 0.63,
        "hand": "right"
      },
      {
        "midi": 60,
        "time": 34.5,
        "duration": 1.5,
        "velocity": 0.57,
        "hand": "right"
      },
      {
        "midi": 67,
        "time": 34.5,
        "duration": 1.5,
        "velocity": 0.52,
        "hand": "right"
      },
      {
        "midi": 76,
        "time": 34.5,
        "duration": 1.5,
        "velocity": 0.6,
        "hand": "right"
      },
      {
        "midi": 84,
        "time": 34.5,
        "duration": 1.5,
        "velocity": 0.64,
        "hand": "right"
      }
    ]
  },
  "notes1Hand": [
    {
      "midi": 79,
      "time": 0,
      "duration": 0.375,
      "velocity": 0.53,
      "hand": "right"
    },
    {
      "midi": 81,
      "time": 0.375,
      "duration": 0.375,
      "velocity": 0.65,
      "hand": "right"
    },
    {
      "midi": 79,
      "time": 0.75,
      "duration": 0.375,
      "velocity": 0.57,
      "hand": "right"
    },
    {
      "midi": 76,
      "time": 1.125,
      "duration": 0.375,
      "velocity": 0.54,
      "hand": "right"
    },
    {
      "midi": 84,
      "time": 1.5,
      "duration": 1.5,
      "velocity": 0.69,
      "hand": "right"
    },
    {
      "midi": 59,
      "time": 2.25,
      "duration": 0.75,
      "velocity": 0.56,
      "hand": "right"
    },
    {
      "midi": 79,
      "time": 3,
      "duration": 0.375,
      "velocity": 0.54,
      "hand": "right"
    },
    {
      "midi": 81,
      "time": 3.375,
      "duration": 0.375,
      "velocity": 0.63,
      "hand": "right"
    },
    {
      "midi": 79,
      "time": 3.75,
      "duration": 0.375,
      "velocity": 0.55,
      "hand": "right"
    },
    {
      "midi": 76,
      "time": 4.125,
      "duration": 0.375,
      "velocity": 0.54,
      "hand": "right"
    },
    {
      "midi": 84,
      "time": 4.5,
      "duration": 0.75,
      "velocity": 0.69,
      "hand": "right"
    },
    {
      "midi": 84,
      "time": 5.25,
      "duration": 0.75,
      "velocity": 0.61,
      "hand": "right"
    },
    {
      "midi": 88,
      "time": 6,
      "duration": 0.375,
      "velocity": 0.66,
      "hand": "right"
    },
    {
      "midi": 88,
      "time": 6.375,
      "duration": 0.375,
      "velocity": 0.61,
      "hand": "right"
    },
    {
      "midi": 86,
      "time": 6.75,
      "duration": 0.375,
      "velocity": 0.54,
      "hand": "right"
    },
    {
      "midi": 88,
      "time": 7.125,
      "duration": 0.375,
      "velocity": 0.58,
      "hand": "right"
    },
    {
      "midi": 89,
      "time": 7.5,
      "duration": 0.25,
      "velocity": 0.66,
      "hand": "right"
    },
    {
      "midi": 86,
      "time": 7.688,
      "duration": 0.375,
      "velocity": 0.56,
      "hand": "right"
    },
    {
      "midi": 83,
      "time": 8.063,
      "duration": 0.25,
      "velocity": 0.56,
      "hand": "right"
    },
    {
      "midi": 79,
      "time": 8.25,
      "duration": 0.375,
      "velocity": 0.49,
      "hand": "right"
    },
    {
      "midi": 79,
      "time": 8.625,
      "duration": 0.375,
      "velocity": 0.59,
      "hand": "right"
    },
    {
      "midi": 81,
      "time": 9,
      "duration": 0.375,
      "velocity": 0.63,
      "hand": "right"
    },
    {
      "midi": 81,
      "time": 9.375,
      "duration": 0.375,
      "velocity": 0.6,
      "hand": "right"
    },
    {
      "midi": 79,
      "time": 9.75,
      "duration": 0.375,
      "velocity": 0.53,
      "hand": "right"
    },
    {
      "midi": 77,
      "time": 10.125,
      "duration": 0.375,
      "velocity": 0.54,
      "hand": "right"
    },
    {
      "midi": 76,
      "time": 10.5,
      "duration": 1.5,
      "velocity": 0.57,
      "hand": "right"
    },
    {
      "midi": 79,
      "time": 12,
      "duration": 0.375,
      "velocity": 0.66,
      "hand": "right"
    },
    {
      "midi": 81,
      "time": 12.375,
      "duration": 0.375,
      "velocity": 0.65,
      "hand": "right"
    },
    {
      "midi": 79,
      "time": 12.75,
      "duration": 0.375,
      "velocity": 0.55,
      "hand": "right"
    },
    {
      "midi": 76,
      "time": 13.125,
      "duration": 0.375,
      "velocity": 0.5,
      "hand": "right"
    },
    {
      "midi": 84,
      "time": 13.5,
      "duration": 1.5,
      "velocity": 0.71,
      "hand": "right"
    },
    {
      "midi": 72,
      "time": 13.875,
      "duration": 0.375,
      "velocity": 0.56,
      "hand": "right"
    },
    {
      "midi": 71,
      "time": 14.25,
      "duration": 0.375,
      "velocity": 0.59,
      "hand": "right"
    },
    {
      "midi": 69,
      "time": 14.625,
      "duration": 0.375,
      "velocity": 0.54,
      "hand": "right"
    },
    {
      "midi": 79,
      "time": 15,
      "duration": 0.375,
      "velocity": 0.55,
      "hand": "right"
    },
    {
      "midi": 81,
      "time": 15.375,
      "duration": 0.375,
      "velocity": 0.63,
      "hand": "right"
    },
    {
      "midi": 79,
      "time": 15.75,
      "duration": 0.375,
      "velocity": 0.53,
      "hand": "right"
    },
    {
      "midi": 76,
      "time": 16.125,
      "duration": 0.375,
      "velocity": 0.57,
      "hand": "right"
    },
    {
      "midi": 84,
      "time": 16.5,
      "duration": 0.75,
      "velocity": 0.75,
      "hand": "right"
    },
    {
      "midi": 74,
      "time": 16.875,
      "duration": 0.375,
      "velocity": 0.62,
      "hand": "right"
    },
    {
      "midi": 84,
      "time": 17.25,
      "duration": 0.75,
      "velocity": 0.6,
      "hand": "right"
    },
    {
      "midi": 77,
      "time": 17.625,
      "duration": 0.375,
      "velocity": 0.61,
      "hand": "right"
    },
    {
      "midi": 88,
      "time": 18,
      "duration": 0.375,
      "velocity": 0.66,
      "hand": "right"
    },
    {
      "midi": 88,
      "time": 18.375,
      "duration": 0.375,
      "velocity": 0.63,
      "hand": "right"
    },
    {
      "midi": 86,
      "time": 18.75,
      "duration": 0.375,
      "velocity": 0.55,
      "hand": "right"
    },
    {
      "midi": 88,
      "time": 19.125,
      "duration": 0.375,
      "velocity": 0.62,
      "hand": "right"
    },
    {
      "midi": 89,
      "time": 19.5,
      "duration": 0.25,
      "velocity": 0.62,
      "hand": "right"
    },
    {
      "midi": 86,
      "time": 19.688,
      "duration": 0.375,
      "velocity": 0.56,
      "hand": "right"
    },
    {
      "midi": 83,
      "time": 20.063,
      "duration": 0.25,
      "velocity": 0.53,
      "hand": "right"
    },
    {
      "midi": 79,
      "time": 20.25,
      "duration": 0.375,
      "velocity": 0.54,
      "hand": "right"
    },
    {
      "midi": 79,
      "time": 20.625,
      "duration": 0.375,
      "velocity": 0.61,
      "hand": "right"
    },
    {
      "midi": 81,
      "time": 21,
      "duration": 0.375,
      "velocity": 0.67,
      "hand": "right"
    },
    {
      "midi": 81,
      "time": 21.375,
      "duration": 0.375,
      "velocity": 0.57,
      "hand": "right"
    },
    {
      "midi": 79,
      "time": 21.75,
      "duration": 0.375,
      "velocity": 0.55,
      "hand": "right"
    },
    {
      "midi": 77,
      "time": 22.125,
      "duration": 0.375,
      "velocity": 0.57,
      "hand": "right"
    },
    {
      "midi": 76,
      "time": 22.5,
      "duration": 1.5,
      "velocity": 0.59,
      "hand": "right"
    },
    {
      "midi": 79,
      "time": 24,
      "duration": 0.375,
      "velocity": 0.62,
      "hand": "right"
    },
    {
      "midi": 81,
      "time": 24.375,
      "duration": 0.375,
      "velocity": 0.61,
      "hand": "right"
    },
    {
      "midi": 79,
      "time": 24.75,
      "duration": 0.375,
      "velocity": 0.57,
      "hand": "right"
    },
    {
      "midi": 76,
      "time": 25.125,
      "duration": 0.375,
      "velocity": 0.57,
      "hand": "right"
    },
    {
      "midi": 84,
      "time": 25.5,
      "duration": 1.5,
      "velocity": 0.75,
      "hand": "right"
    },
    {
      "midi": 72,
      "time": 25.875,
      "duration": 0.375,
      "velocity": 0.59,
      "hand": "right"
    },
    {
      "midi": 71,
      "time": 26.25,
      "duration": 0.375,
      "velocity": 0.58,
      "hand": "right"
    },
    {
      "midi": 69,
      "time": 26.625,
      "duration": 0.375,
      "velocity": 0.59,
      "hand": "right"
    },
    {
      "midi": 79,
      "time": 27,
      "duration": 0.375,
      "velocity": 0.56,
      "hand": "right"
    },
    {
      "midi": 81,
      "time": 27.375,
      "duration": 0.375,
      "velocity": 0.63,
      "hand": "right"
    },
    {
      "midi": 79,
      "time": 27.75,
      "duration": 0.375,
      "velocity": 0.54,
      "hand": "right"
    },
    {
      "midi": 76,
      "time": 28.125,
      "duration": 0.375,
      "velocity": 0.54,
      "hand": "right"
    },
    {
      "midi": 84,
      "time": 28.5,
      "duration": 0.75,
      "velocity": 0.72,
      "hand": "right"
    },
    {
      "midi": 74,
      "time": 28.875,
      "duration": 0.375,
      "velocity": 0.64,
      "hand": "right"
    },
    {
      "midi": 84,
      "time": 29.25,
      "duration": 0.75,
      "velocity": 0.61,
      "hand": "right"
    },
    {
      "midi": 77,
      "time": 29.625,
      "duration": 0.375,
      "velocity": 0.58,
      "hand": "right"
    },
    {
      "midi": 88,
      "time": 30,
      "duration": 0.375,
      "velocity": 0.67,
      "hand": "right"
    },
    {
      "midi": 88,
      "time": 30.375,
      "duration": 0.375,
      "velocity": 0.64,
      "hand": "right"
    },
    {
      "midi": 86,
      "time": 30.75,
      "duration": 0.375,
      "velocity": 0.58,
      "hand": "right"
    },
    {
      "midi": 88,
      "time": 31.125,
      "duration": 0.375,
      "velocity": 0.61,
      "hand": "right"
    },
    {
      "midi": 89,
      "time": 31.5,
      "duration": 0.25,
      "velocity": 0.67,
      "hand": "right"
    },
    {
      "midi": 86,
      "time": 31.688,
      "duration": 0.375,
      "velocity": 0.54,
      "hand": "right"
    },
    {
      "midi": 83,
      "time": 32.063,
      "duration": 0.25,
      "velocity": 0.53,
      "hand": "right"
    },
    {
      "midi": 79,
      "time": 32.25,
      "duration": 0.375,
      "velocity": 0.5,
      "hand": "right"
    },
    {
      "midi": 79,
      "time": 32.625,
      "duration": 0.375,
      "velocity": 0.6,
      "hand": "right"
    },
    {
      "midi": 81,
      "time": 33,
      "duration": 0.375,
      "velocity": 0.63,
      "hand": "right"
    },
    {
      "midi": 81,
      "time": 33.375,
      "duration": 0.375,
      "velocity": 0.61,
      "hand": "right"
    },
    {
      "midi": 83,
      "time": 33.75,
      "duration": 0.375,
      "velocity": 0.65,
      "hand": "right"
    },
    {
      "midi": 83,
      "time": 34.125,
      "duration": 0.375,
      "velocity": 0.63,
      "hand": "right"
    },
    {
      "midi": 84,
      "time": 34.5,
      "duration": 1.5,
      "velocity": 0.64,
      "hand": "right"
    }
  ],
  "notes2Hands": [
    {
      "midi": 64,
      "time": 0,
      "duration": 0.75,
      "velocity": 0.55,
      "hand": "right"
    },
    {
      "midi": 67,
      "time": 0,
      "duration": 1.5,
      "velocity": 0.54,
      "hand": "right"
    },
    {
      "midi": 72,
      "time": 0,
      "duration": 1.5,
      "velocity": 0.52,
      "hand": "right"
    },
    {
      "midi": 79,
      "time": 0,
      "duration": 0.375,
      "velocity": 0.53,
      "hand": "right"
    },
    {
      "midi": 81,
      "time": 0.375,
      "duration": 0.375,
      "velocity": 0.65,
      "hand": "right"
    },
    {
      "midi": 62,
      "time": 0.75,
      "duration": 0.75,
      "velocity": 0.56,
      "hand": "right"
    },
    {
      "midi": 79,
      "time": 0.75,
      "duration": 0.375,
      "velocity": 0.57,
      "hand": "right"
    },
    {
      "midi": 76,
      "time": 1.125,
      "duration": 0.375,
      "velocity": 0.54,
      "hand": "right"
    },
    {
      "midi": 60,
      "time": 1.5,
      "duration": 0.75,
      "velocity": 0.51,
      "hand": "right"
    },
    {
      "midi": 69,
      "time": 1.5,
      "duration": 1.5,
      "velocity": 0.61,
      "hand": "right"
    },
    {
      "midi": 72,
      "time": 1.5,
      "duration": 1.5,
      "velocity": 0.55,
      "hand": "right"
    },
    {
      "midi": 84,
      "time": 1.5,
      "duration": 1.5,
      "velocity": 0.69,
      "hand": "right"
    },
    {
      "midi": 59,
      "time": 2.25,
      "duration": 0.75,
      "velocity": 0.56,
      "hand": "left"
    },
    {
      "midi": 60,
      "time": 3,
      "duration": 0.75,
      "velocity": 0.62,
      "hand": "right"
    },
    {
      "midi": 67,
      "time": 3,
      "duration": 0.75,
      "velocity": 0.57,
      "hand": "right"
    },
    {
      "midi": 76,
      "time": 3,
      "duration": 0.375,
      "velocity": 0.68,
      "hand": "right"
    },
    {
      "midi": 79,
      "time": 3,
      "duration": 0.375,
      "velocity": 0.54,
      "hand": "right"
    },
    {
      "midi": 74,
      "time": 3.375,
      "duration": 0.375,
      "velocity": 0.53,
      "hand": "right"
    },
    {
      "midi": 81,
      "time": 3.375,
      "duration": 0.375,
      "velocity": 0.63,
      "hand": "right"
    },
    {
      "midi": 59,
      "time": 3.75,
      "duration": 0.75,
      "velocity": 0.57,
      "hand": "left"
    },
    {
      "midi": 67,
      "time": 3.75,
      "duration": 0.75,
      "velocity": 0.6,
      "hand": "right"
    },
    {
      "midi": 72,
      "time": 3.75,
      "duration": 0.375,
      "velocity": 0.54,
      "hand": "right"
    },
    {
      "midi": 79,
      "time": 3.75,
      "duration": 0.375,
      "velocity": 0.55,
      "hand": "right"
    },
    {
      "midi": 71,
      "time": 4.125,
      "duration": 0.375,
      "velocity": 0.61,
      "hand": "right"
    },
    {
      "midi": 76,
      "time": 4.125,
      "duration": 0.375,
      "velocity": 0.54,
      "hand": "right"
    },
    {
      "midi": 57,
      "time": 4.5,
      "duration": 0.75,
      "velocity": 0.57,
      "hand": "left"
    },
    {
      "midi": 69,
      "time": 4.5,
      "duration": 1.5,
      "velocity": 0.62,
      "hand": "right"
    },
    {
      "midi": 72,
      "time": 4.5,
      "duration": 1.5,
      "velocity": 0.61,
      "hand": "right"
    },
    {
      "midi": 84,
      "time": 4.5,
      "duration": 0.75,
      "velocity": 0.69,
      "hand": "right"
    },
    {
      "midi": 59,
      "time": 5.25,
      "duration": 0.75,
      "velocity": 0.59,
      "hand": "left"
    },
    {
      "midi": 84,
      "time": 5.25,
      "duration": 0.75,
      "velocity": 0.61,
      "hand": "right"
    },
    {
      "midi": 60,
      "time": 6,
      "duration": 0.75,
      "velocity": 0.64,
      "hand": "right"
    },
    {
      "midi": 67,
      "time": 6,
      "duration": 0.75,
      "velocity": 0.55,
      "hand": "right"
    },
    {
      "midi": 76,
      "time": 6,
      "duration": 0.75,
      "velocity": 0.66,
      "hand": "right"
    },
    {
      "midi": 88,
      "time": 6,
      "duration": 0.375,
      "velocity": 0.66,
      "hand": "right"
    },
    {
      "midi": 88,
      "time": 6.375,
      "duration": 0.375,
      "velocity": 0.61,
      "hand": "right"
    },
    {
      "midi": 64,
      "time": 6.75,
      "duration": 0.75,
      "velocity": 0.63,
      "hand": "right"
    },
    {
      "midi": 72,
      "time": 6.75,
      "duration": 0.75,
      "velocity": 0.68,
      "hand": "right"
    },
    {
      "midi": 79,
      "time": 6.75,
      "duration": 0.75,
      "velocity": 0.65,
      "hand": "right"
    },
    {
      "midi": 86,
      "time": 6.75,
      "duration": 0.375,
      "velocity": 0.54,
      "hand": "right"
    },
    {
      "midi": 88,
      "time": 7.125,
      "duration": 0.375,
      "velocity": 0.58,
      "hand": "right"
    },
    {
      "midi": 62,
      "time": 7.5,
      "duration": 0.75,
      "velocity": 0.57,
      "hand": "right"
    },
    {
      "midi": 69,
      "time": 7.5,
      "duration": 0.75,
      "velocity": 0.54,
      "hand": "right"
    },
    {
      "midi": 77,
      "time": 7.5,
      "duration": 0.75,
      "velocity": 0.59,
      "hand": "right"
    },
    {
      "midi": 89,
      "time": 7.5,
      "duration": 0.188,
      "velocity": 0.66,
      "hand": "right"
    },
    {
      "midi": 86,
      "time": 7.688,
      "duration": 0.375,
      "velocity": 0.56,
      "hand": "right"
    },
    {
      "midi": 83,
      "time": 8.063,
      "duration": 0.188,
      "velocity": 0.56,
      "hand": "right"
    },
    {
      "midi": 67,
      "time": 8.25,
      "duration": 0.75,
      "velocity": 0.69,
      "hand": "right"
    },
    {
      "midi": 71,
      "time": 8.25,
      "duration": 0.75,
      "velocity": 0.61,
      "hand": "right"
    },
    {
      "midi": 74,
      "time": 8.25,
      "duration": 0.75,
      "velocity": 0.54,
      "hand": "right"
    },
    {
      "midi": 79,
      "time": 8.25,
      "duration": 0.375,
      "velocity": 0.49,
      "hand": "right"
    },
    {
      "midi": 79,
      "time": 8.625,
      "duration": 0.375,
      "velocity": 0.59,
      "hand": "right"
    },
    {
      "midi": 65,
      "time": 9,
      "duration": 0.75,
      "velocity": 0.58,
      "hand": "right"
    },
    {
      "midi": 69,
      "time": 9,
      "duration": 0.75,
      "velocity": 0.56,
      "hand": "right"
    },
    {
      "midi": 72,
      "time": 9,
      "duration": 0.75,
      "velocity": 0.59,
      "hand": "right"
    },
    {
      "midi": 81,
      "time": 9,
      "duration": 0.375,
      "velocity": 0.63,
      "hand": "right"
    },
    {
      "midi": 81,
      "time": 9.375,
      "duration": 0.375,
      "velocity": 0.6,
      "hand": "right"
    },
    {
      "midi": 59,
      "time": 9.75,
      "duration": 0.75,
      "velocity": 0.57,
      "hand": "left"
    },
    {
      "midi": 71,
      "time": 9.75,
      "duration": 0.75,
      "velocity": 0.66,
      "hand": "right"
    },
    {
      "midi": 74,
      "time": 9.75,
      "duration": 0.75,
      "velocity": 0.57,
      "hand": "right"
    },
    {
      "midi": 79,
      "time": 9.75,
      "duration": 0.375,
      "velocity": 0.53,
      "hand": "right"
    },
    {
      "midi": 77,
      "time": 10.125,
      "duration": 0.375,
      "velocity": 0.54,
      "hand": "right"
    },
    {
      "midi": 60,
      "time": 10.5,
      "duration": 1.5,
      "velocity": 0.62,
      "hand": "right"
    },
    {
      "midi": 67,
      "time": 10.5,
      "duration": 1.5,
      "velocity": 0.52,
      "hand": "right"
    },
    {
      "midi": 72,
      "time": 10.5,
      "duration": 1.5,
      "velocity": 0.57,
      "hand": "right"
    },
    {
      "midi": 76,
      "time": 10.5,
      "duration": 1.5,
      "velocity": 0.57,
      "hand": "right"
    },
    {
      "midi": 79,
      "time": 12,
      "duration": 0.375,
      "velocity": 0.66,
      "hand": "right"
    },
    {
      "midi": 81,
      "time": 12.375,
      "duration": 0.375,
      "velocity": 0.65,
      "hand": "right"
    },
    {
      "midi": 79,
      "time": 12.75,
      "duration": 0.375,
      "velocity": 0.55,
      "hand": "right"
    },
    {
      "midi": 76,
      "time": 13.125,
      "duration": 0.375,
      "velocity": 0.5,
      "hand": "right"
    },
    {
      "midi": 60,
      "time": 13.5,
      "duration": 0.375,
      "velocity": 0.52,
      "hand": "right"
    },
    {
      "midi": 67,
      "time": 13.5,
      "duration": 0.375,
      "velocity": 0.52,
      "hand": "right"
    },
    {
      "midi": 72,
      "time": 13.5,
      "duration": 0.375,
      "velocity": 0.55,
      "hand": "right"
    },
    {
      "midi": 84,
      "time": 13.5,
      "duration": 1.5,
      "velocity": 0.71,
      "hand": "right"
    },
    {
      "midi": 62,
      "time": 13.875,
      "duration": 0.375,
      "velocity": 0.61,
      "hand": "right"
    },
    {
      "midi": 69,
      "time": 13.875,
      "duration": 0.375,
      "velocity": 0.63,
      "hand": "right"
    },
    {
      "midi": 72,
      "time": 13.875,
      "duration": 0.375,
      "velocity": 0.56,
      "hand": "right"
    },
    {
      "midi": 60,
      "time": 14.25,
      "duration": 0.375,
      "velocity": 0.59,
      "hand": "right"
    },
    {
      "midi": 67,
      "time": 14.25,
      "duration": 0.375,
      "velocity": 0.55,
      "hand": "right"
    },
    {
      "midi": 71,
      "time": 14.25,
      "duration": 0.375,
      "velocity": 0.59,
      "hand": "right"
    },
    {
      "midi": 59,
      "time": 14.625,
      "duration": 0.375,
      "velocity": 0.61,
      "hand": "left"
    },
    {
      "midi": 65,
      "time": 14.625,
      "duration": 0.375,
      "velocity": 0.57,
      "hand": "right"
    },
    {
      "midi": 69,
      "time": 14.625,
      "duration": 0.375,
      "velocity": 0.54,
      "hand": "right"
    },
    {
      "midi": 60,
      "time": 15,
      "duration": 1.5,
      "velocity": 0.65,
      "hand": "right"
    },
    {
      "midi": 64,
      "time": 15,
      "duration": 1.5,
      "velocity": 0.54,
      "hand": "right"
    },
    {
      "midi": 67,
      "time": 15,
      "duration": 1.5,
      "velocity": 0.6,
      "hand": "right"
    },
    {
      "midi": 79,
      "time": 15,
      "duration": 0.375,
      "velocity": 0.55,
      "hand": "right"
    },
    {
      "midi": 81,
      "time": 15.375,
      "duration": 0.375,
      "velocity": 0.63,
      "hand": "right"
    },
    {
      "midi": 79,
      "time": 15.75,
      "duration": 0.375,
      "velocity": 0.53,
      "hand": "right"
    },
    {
      "midi": 76,
      "time": 16.125,
      "duration": 0.375,
      "velocity": 0.57,
      "hand": "right"
    },
    {
      "midi": 57,
      "time": 16.5,
      "duration": 0.375,
      "velocity": 0.59,
      "hand": "left"
    },
    {
      "midi": 69,
      "time": 16.5,
      "duration": 0.375,
      "velocity": 0.65,
      "hand": "right"
    },
    {
      "midi": 72,
      "time": 16.5,
      "duration": 0.375,
      "velocity": 0.64,
      "hand": "right"
    },
    {
      "midi": 84,
      "time": 16.5,
      "duration": 0.75,
      "velocity": 0.75,
      "hand": "right"
    },
    {
      "midi": 59,
      "time": 16.875,
      "duration": 0.375,
      "velocity": 0.6,
      "hand": "left"
    },
    {
      "midi": 71,
      "time": 16.875,
      "duration": 0.375,
      "velocity": 0.67,
      "hand": "right"
    },
    {
      "midi": 74,
      "time": 16.875,
      "duration": 0.375,
      "velocity": 0.62,
      "hand": "right"
    },
    {
      "midi": 60,
      "time": 17.25,
      "duration": 0.375,
      "velocity": 0.65,
      "hand": "right"
    },
    {
      "midi": 72,
      "time": 17.25,
      "duration": 0.375,
      "velocity": 0.58,
      "hand": "right"
    },
    {
      "midi": 76,
      "time": 17.25,
      "duration": 0.375,
      "velocity": 0.65,
      "hand": "right"
    },
    {
      "midi": 84,
      "time": 17.25,
      "duration": 0.75,
      "velocity": 0.6,
      "hand": "right"
    },
    {
      "midi": 62,
      "time": 17.625,
      "duration": 0.375,
      "velocity": 0.64,
      "hand": "right"
    },
    {
      "midi": 74,
      "time": 17.625,
      "duration": 0.375,
      "velocity": 0.65,
      "hand": "right"
    },
    {
      "midi": 77,
      "time": 17.625,
      "duration": 0.375,
      "velocity": 0.61,
      "hand": "right"
    },
    {
      "midi": 60,
      "time": 18,
      "duration": 0.375,
      "velocity": 0.56,
      "hand": "right"
    },
    {
      "midi": 76,
      "time": 18,
      "duration": 0.375,
      "velocity": 0.65,
      "hand": "right"
    },
    {
      "midi": 79,
      "time": 18,
      "duration": 0.375,
      "velocity": 0.65,
      "hand": "right"
    },
    {
      "midi": 88,
      "time": 18,
      "duration": 0.375,
      "velocity": 0.66,
      "hand": "right"
    },
    {
      "midi": 60,
      "time": 18.375,
      "duration": 0.375,
      "velocity": 0.61,
      "hand": "right"
    },
    {
      "midi": 76,
      "time": 18.375,
      "duration": 0.375,
      "velocity": 0.61,
      "hand": "right"
    },
    {
      "midi": 79,
      "time": 18.375,
      "duration": 0.375,
      "velocity": 0.58,
      "hand": "right"
    },
    {
      "midi": 88,
      "time": 18.375,
      "duration": 0.375,
      "velocity": 0.63,
      "hand": "right"
    },
    {
      "midi": 64,
      "time": 18.75,
      "duration": 0.375,
      "velocity": 0.65,
      "hand": "right"
    },
    {
      "midi": 74,
      "time": 18.75,
      "duration": 0.375,
      "velocity": 0.53,
      "hand": "right"
    },
    {
      "midi": 77,
      "time": 18.75,
      "duration": 0.375,
      "velocity": 0.55,
      "hand": "right"
    },
    {
      "midi": 86,
      "time": 18.75,
      "duration": 0.375,
      "velocity": 0.55,
      "hand": "right"
    },
    {
      "midi": 64,
      "time": 19.125,
      "duration": 0.375,
      "velocity": 0.65,
      "hand": "right"
    },
    {
      "midi": 72,
      "time": 19.125,
      "duration": 0.375,
      "velocity": 0.55,
      "hand": "right"
    },
    {
      "midi": 76,
      "time": 19.125,
      "duration": 0.375,
      "velocity": 0.6,
      "hand": "right"
    },
    {
      "midi": 88,
      "time": 19.125,
      "duration": 0.375,
      "velocity": 0.62,
      "hand": "right"
    },
    {
      "midi": 62,
      "time": 19.5,
      "duration": 0.188,
      "velocity": 0.52,
      "hand": "right"
    },
    {
      "midi": 69,
      "time": 19.5,
      "duration": 0.188,
      "velocity": 0.52,
      "hand": "right"
    },
    {
      "midi": 74,
      "time": 19.5,
      "duration": 0.188,
      "velocity": 0.57,
      "hand": "right"
    },
    {
      "midi": 89,
      "time": 19.5,
      "duration": 0.188,
      "velocity": 0.62,
      "hand": "right"
    },
    {
      "midi": 62,
      "time": 19.688,
      "duration": 0.375,
      "velocity": 0.63,
      "hand": "right"
    },
    {
      "midi": 69,
      "time": 19.688,
      "duration": 0.375,
      "velocity": 0.58,
      "hand": "right"
    },
    {
      "midi": 74,
      "time": 19.688,
      "duration": 0.375,
      "velocity": 0.58,
      "hand": "right"
    },
    {
      "midi": 86,
      "time": 19.688,
      "duration": 0.375,
      "velocity": 0.56,
      "hand": "right"
    },
    {
      "midi": 62,
      "time": 20.063,
      "duration": 0.188,
      "velocity": 0.59,
      "hand": "right"
    },
    {
      "midi": 69,
      "time": 20.063,
      "duration": 0.188,
      "velocity": 0.61,
      "hand": "right"
    },
    {
      "midi": 74,
      "time": 20.063,
      "duration": 0.188,
      "velocity": 0.57,
      "hand": "right"
    },
    {
      "midi": 83,
      "time": 20.063,
      "duration": 0.188,
      "velocity": 0.53,
      "hand": "right"
    },
    {
      "midi": 67,
      "time": 20.25,
      "duration": 0.375,
      "velocity": 0.7,
      "hand": "right"
    },
    {
      "midi": 71,
      "time": 20.25,
      "duration": 0.375,
      "velocity": 0.65,
      "hand": "right"
    },
    {
      "midi": 74,
      "time": 20.25,
      "duration": 0.375,
      "velocity": 0.63,
      "hand": "right"
    },
    {
      "midi": 79,
      "time": 20.25,
      "duration": 0.375,
      "velocity": 0.54,
      "hand": "right"
    },
    {
      "midi": 67,
      "time": 20.625,
      "duration": 0.375,
      "velocity": 0.61,
      "hand": "right"
    },
    {
      "midi": 71,
      "time": 20.625,
      "duration": 0.375,
      "velocity": 0.65,
      "hand": "right"
    },
    {
      "midi": 74,
      "time": 20.625,
      "duration": 0.375,
      "velocity": 0.6,
      "hand": "right"
    },
    {
      "midi": 79,
      "time": 20.625,
      "duration": 0.375,
      "velocity": 0.61,
      "hand": "right"
    },
    {
      "midi": 65,
      "time": 21,
      "duration": 0.375,
      "velocity": 0.53,
      "hand": "right"
    },
    {
      "midi": 69,
      "time": 21,
      "duration": 0.375,
      "velocity": 0.54,
      "hand": "right"
    },
    {
      "midi": 72,
      "time": 21,
      "duration": 0.375,
      "velocity": 0.57,
      "hand": "right"
    },
    {
      "midi": 81,
      "time": 21,
      "duration": 0.375,
      "velocity": 0.67,
      "hand": "right"
    },
    {
      "midi": 53,
      "time": 21.375,
      "duration": 0.375,
      "velocity": 0.53,
      "hand": "left"
    },
    {
      "midi": 69,
      "time": 21.375,
      "duration": 0.375,
      "velocity": 0.6,
      "hand": "right"
    },
    {
      "midi": 72,
      "time": 21.375,
      "duration": 0.375,
      "velocity": 0.57,
      "hand": "right"
    },
    {
      "midi": 81,
      "time": 21.375,
      "duration": 0.375,
      "velocity": 0.57,
      "hand": "right"
    },
    {
      "midi": 55,
      "time": 21.75,
      "duration": 0.375,
      "velocity": 0.59,
      "hand": "left"
    },
    {
      "midi": 71,
      "time": 21.75,
      "duration": 0.375,
      "velocity": 0.65,
      "hand": "right"
    },
    {
      "midi": 76,
      "time": 21.75,
      "duration": 0.375,
      "velocity": 0.65,
      "hand": "right"
    },
    {
      "midi": 79,
      "time": 21.75,
      "duration": 0.375,
      "velocity": 0.55,
      "hand": "right"
    },
    {
      "midi": 62,
      "time": 22.125,
      "duration": 0.375,
      "velocity": 0.72,
      "hand": "right"
    },
    {
      "midi": 69,
      "time": 22.125,
      "duration": 0.375,
      "velocity": 0.61,
      "hand": "right"
    },
    {
      "midi": 74,
      "time": 22.125,
      "duration": 0.375,
      "velocity": 0.56,
      "hand": "right"
    },
    {
      "midi": 77,
      "time": 22.125,
      "duration": 0.375,
      "velocity": 0.57,
      "hand": "right"
    },
    {
      "midi": 60,
      "time": 22.5,
      "duration": 1.5,
      "velocity": 0.55,
      "hand": "right"
    },
    {
      "midi": 67,
      "time": 22.5,
      "duration": 1.5,
      "velocity": 0.53,
      "hand": "right"
    },
    {
      "midi": 72,
      "time": 22.5,
      "duration": 1.5,
      "velocity": 0.53,
      "hand": "right"
    },
    {
      "midi": 76,
      "time": 22.5,
      "duration": 1.5,
      "velocity": 0.59,
      "hand": "right"
    },
    {
      "midi": 79,
      "time": 24,
      "duration": 0.375,
      "velocity": 0.62,
      "hand": "right"
    },
    {
      "midi": 81,
      "time": 24.375,
      "duration": 0.375,
      "velocity": 0.61,
      "hand": "right"
    },
    {
      "midi": 79,
      "time": 24.75,
      "duration": 0.375,
      "velocity": 0.57,
      "hand": "right"
    },
    {
      "midi": 76,
      "time": 25.125,
      "duration": 0.375,
      "velocity": 0.57,
      "hand": "right"
    },
    {
      "midi": 60,
      "time": 25.5,
      "duration": 0.375,
      "velocity": 0.51,
      "hand": "right"
    },
    {
      "midi": 67,
      "time": 25.5,
      "duration": 0.375,
      "velocity": 0.52,
      "hand": "right"
    },
    {
      "midi": 72,
      "time": 25.5,
      "duration": 0.375,
      "velocity": 0.5,
      "hand": "right"
    },
    {
      "midi": 84,
      "time": 25.5,
      "duration": 1.5,
      "velocity": 0.75,
      "hand": "right"
    },
    {
      "midi": 62,
      "time": 25.875,
      "duration": 0.375,
      "velocity": 0.6,
      "hand": "right"
    },
    {
      "midi": 69,
      "time": 25.875,
      "duration": 0.375,
      "velocity": 0.61,
      "hand": "right"
    },
    {
      "midi": 72,
      "time": 25.875,
      "duration": 0.375,
      "velocity": 0.59,
      "hand": "right"
    },
    {
      "midi": 60,
      "time": 26.25,
      "duration": 0.375,
      "velocity": 0.57,
      "hand": "right"
    },
    {
      "midi": 67,
      "time": 26.25,
      "duration": 0.375,
      "velocity": 0.54,
      "hand": "right"
    },
    {
      "midi": 71,
      "time": 26.25,
      "duration": 0.375,
      "velocity": 0.58,
      "hand": "right"
    },
    {
      "midi": 59,
      "time": 26.625,
      "duration": 0.375,
      "velocity": 0.59,
      "hand": "left"
    },
    {
      "midi": 65,
      "time": 26.625,
      "duration": 0.375,
      "velocity": 0.57,
      "hand": "right"
    },
    {
      "midi": 69,
      "time": 26.625,
      "duration": 0.375,
      "velocity": 0.59,
      "hand": "right"
    },
    {
      "midi": 60,
      "time": 27,
      "duration": 1.5,
      "velocity": 0.6,
      "hand": "right"
    },
    {
      "midi": 64,
      "time": 27,
      "duration": 1.5,
      "velocity": 0.55,
      "hand": "right"
    },
    {
      "midi": 67,
      "time": 27,
      "duration": 1.5,
      "velocity": 0.56,
      "hand": "right"
    },
    {
      "midi": 79,
      "time": 27,
      "duration": 0.375,
      "velocity": 0.56,
      "hand": "right"
    },
    {
      "midi": 81,
      "time": 27.375,
      "duration": 0.375,
      "velocity": 0.63,
      "hand": "right"
    },
    {
      "midi": 79,
      "time": 27.75,
      "duration": 0.375,
      "velocity": 0.54,
      "hand": "right"
    },
    {
      "midi": 76,
      "time": 28.125,
      "duration": 0.375,
      "velocity": 0.54,
      "hand": "right"
    },
    {
      "midi": 57,
      "time": 28.5,
      "duration": 0.375,
      "velocity": 0.55,
      "hand": "left"
    },
    {
      "midi": 69,
      "time": 28.5,
      "duration": 0.375,
      "velocity": 0.68,
      "hand": "right"
    },
    {
      "midi": 72,
      "time": 28.5,
      "duration": 0.375,
      "velocity": 0.64,
      "hand": "right"
    },
    {
      "midi": 84,
      "time": 28.5,
      "duration": 0.75,
      "velocity": 0.72,
      "hand": "right"
    },
    {
      "midi": 59,
      "time": 28.875,
      "duration": 0.375,
      "velocity": 0.61,
      "hand": "left"
    },
    {
      "midi": 71,
      "time": 28.875,
      "duration": 0.375,
      "velocity": 0.64,
      "hand": "right"
    },
    {
      "midi": 74,
      "time": 28.875,
      "duration": 0.375,
      "velocity": 0.64,
      "hand": "right"
    },
    {
      "midi": 60,
      "time": 29.25,
      "duration": 0.375,
      "velocity": 0.62,
      "hand": "right"
    },
    {
      "midi": 72,
      "time": 29.25,
      "duration": 0.375,
      "velocity": 0.64,
      "hand": "right"
    },
    {
      "midi": 76,
      "time": 29.25,
      "duration": 0.375,
      "velocity": 0.67,
      "hand": "right"
    },
    {
      "midi": 84,
      "time": 29.25,
      "duration": 0.75,
      "velocity": 0.61,
      "hand": "right"
    },
    {
      "midi": 62,
      "time": 29.625,
      "duration": 0.375,
      "velocity": 0.61,
      "hand": "right"
    },
    {
      "midi": 74,
      "time": 29.625,
      "duration": 0.375,
      "velocity": 0.62,
      "hand": "right"
    },
    {
      "midi": 77,
      "time": 29.625,
      "duration": 0.375,
      "velocity": 0.58,
      "hand": "right"
    },
    {
      "midi": 60,
      "time": 30,
      "duration": 0.375,
      "velocity": 0.57,
      "hand": "right"
    },
    {
      "midi": 76,
      "time": 30,
      "duration": 0.375,
      "velocity": 0.64,
      "hand": "right"
    },
    {
      "midi": 79,
      "time": 30,
      "duration": 0.375,
      "velocity": 0.62,
      "hand": "right"
    },
    {
      "midi": 88,
      "time": 30,
      "duration": 0.375,
      "velocity": 0.67,
      "hand": "right"
    },
    {
      "midi": 60,
      "time": 30.375,
      "duration": 0.375,
      "velocity": 0.62,
      "hand": "right"
    },
    {
      "midi": 76,
      "time": 30.375,
      "duration": 0.375,
      "velocity": 0.61,
      "hand": "right"
    },
    {
      "midi": 79,
      "time": 30.375,
      "duration": 0.375,
      "velocity": 0.64,
      "hand": "right"
    },
    {
      "midi": 88,
      "time": 30.375,
      "duration": 0.375,
      "velocity": 0.64,
      "hand": "right"
    },
    {
      "midi": 64,
      "time": 30.75,
      "duration": 0.375,
      "velocity": 0.68,
      "hand": "right"
    },
    {
      "midi": 74,
      "time": 30.75,
      "duration": 0.375,
      "velocity": 0.56,
      "hand": "right"
    },
    {
      "midi": 77,
      "time": 30.75,
      "duration": 0.375,
      "velocity": 0.54,
      "hand": "right"
    },
    {
      "midi": 86,
      "time": 30.75,
      "duration": 0.375,
      "velocity": 0.58,
      "hand": "right"
    },
    {
      "midi": 64,
      "time": 31.125,
      "duration": 0.375,
      "velocity": 0.62,
      "hand": "right"
    },
    {
      "midi": 72,
      "time": 31.125,
      "duration": 0.375,
      "velocity": 0.55,
      "hand": "right"
    },
    {
      "midi": 76,
      "time": 31.125,
      "duration": 0.375,
      "velocity": 0.57,
      "hand": "right"
    },
    {
      "midi": 88,
      "time": 31.125,
      "duration": 0.375,
      "velocity": 0.61,
      "hand": "right"
    },
    {
      "midi": 62,
      "time": 31.5,
      "duration": 0.188,
      "velocity": 0.53,
      "hand": "right"
    },
    {
      "midi": 69,
      "time": 31.5,
      "duration": 0.188,
      "velocity": 0.53,
      "hand": "right"
    },
    {
      "midi": 74,
      "time": 31.5,
      "duration": 0.188,
      "velocity": 0.53,
      "hand": "right"
    },
    {
      "midi": 89,
      "time": 31.5,
      "duration": 0.188,
      "velocity": 0.67,
      "hand": "right"
    },
    {
      "midi": 62,
      "time": 31.688,
      "duration": 0.375,
      "velocity": 0.61,
      "hand": "right"
    },
    {
      "midi": 69,
      "time": 31.688,
      "duration": 0.375,
      "velocity": 0.57,
      "hand": "right"
    },
    {
      "midi": 74,
      "time": 31.688,
      "duration": 0.375,
      "velocity": 0.58,
      "hand": "right"
    },
    {
      "midi": 86,
      "time": 31.688,
      "duration": 0.375,
      "velocity": 0.54,
      "hand": "right"
    },
    {
      "midi": 62,
      "time": 32.063,
      "duration": 0.188,
      "velocity": 0.61,
      "hand": "right"
    },
    {
      "midi": 69,
      "time": 32.063,
      "duration": 0.188,
      "velocity": 0.65,
      "hand": "right"
    },
    {
      "midi": 74,
      "time": 32.063,
      "duration": 0.188,
      "velocity": 0.59,
      "hand": "right"
    },
    {
      "midi": 83,
      "time": 32.063,
      "duration": 0.188,
      "velocity": 0.53,
      "hand": "right"
    },
    {
      "midi": 67,
      "time": 32.25,
      "duration": 0.375,
      "velocity": 0.69,
      "hand": "right"
    },
    {
      "midi": 71,
      "time": 32.25,
      "duration": 0.375,
      "velocity": 0.65,
      "hand": "right"
    },
    {
      "midi": 74,
      "time": 32.25,
      "duration": 0.375,
      "velocity": 0.63,
      "hand": "right"
    },
    {
      "midi": 79,
      "time": 32.25,
      "duration": 0.375,
      "velocity": 0.5,
      "hand": "right"
    },
    {
      "midi": 67,
      "time": 32.625,
      "duration": 0.375,
      "velocity": 0.57,
      "hand": "right"
    },
    {
      "midi": 71,
      "time": 32.625,
      "duration": 0.375,
      "velocity": 0.62,
      "hand": "right"
    },
    {
      "midi": 74,
      "time": 32.625,
      "duration": 0.375,
      "velocity": 0.6,
      "hand": "right"
    },
    {
      "midi": 79,
      "time": 32.625,
      "duration": 0.375,
      "velocity": 0.6,
      "hand": "right"
    },
    {
      "midi": 65,
      "time": 33,
      "duration": 0.375,
      "velocity": 0.53,
      "hand": "right"
    },
    {
      "midi": 69,
      "time": 33,
      "duration": 0.375,
      "velocity": 0.58,
      "hand": "right"
    },
    {
      "midi": 72,
      "time": 33,
      "duration": 0.375,
      "velocity": 0.54,
      "hand": "right"
    },
    {
      "midi": 81,
      "time": 33,
      "duration": 0.375,
      "velocity": 0.63,
      "hand": "right"
    },
    {
      "midi": 60,
      "time": 33.375,
      "duration": 0.375,
      "velocity": 0.52,
      "hand": "right"
    },
    {
      "midi": 69,
      "time": 33.375,
      "duration": 0.375,
      "velocity": 0.63,
      "hand": "right"
    },
    {
      "midi": 72,
      "time": 33.375,
      "duration": 0.375,
      "velocity": 0.59,
      "hand": "right"
    },
    {
      "midi": 81,
      "time": 33.375,
      "duration": 0.375,
      "velocity": 0.61,
      "hand": "right"
    },
    {
      "midi": 67,
      "time": 33.75,
      "duration": 0.375,
      "velocity": 0.69,
      "hand": "right"
    },
    {
      "midi": 71,
      "time": 33.75,
      "duration": 0.375,
      "velocity": 0.61,
      "hand": "right"
    },
    {
      "midi": 74,
      "time": 33.75,
      "duration": 0.375,
      "velocity": 0.61,
      "hand": "right"
    },
    {
      "midi": 83,
      "time": 33.75,
      "duration": 0.375,
      "velocity": 0.65,
      "hand": "right"
    },
    {
      "midi": 62,
      "time": 34.125,
      "duration": 0.375,
      "velocity": 0.54,
      "hand": "right"
    },
    {
      "midi": 69,
      "time": 34.125,
      "duration": 0.375,
      "velocity": 0.57,
      "hand": "right"
    },
    {
      "midi": 74,
      "time": 34.125,
      "duration": 0.375,
      "velocity": 0.64,
      "hand": "right"
    },
    {
      "midi": 83,
      "time": 34.125,
      "duration": 0.375,
      "velocity": 0.63,
      "hand": "right"
    },
    {
      "midi": 60,
      "time": 34.5,
      "duration": 1.5,
      "velocity": 0.57,
      "hand": "right"
    },
    {
      "midi": 67,
      "time": 34.5,
      "duration": 1.5,
      "velocity": 0.52,
      "hand": "right"
    },
    {
      "midi": 76,
      "time": 34.5,
      "duration": 1.5,
      "velocity": 0.6,
      "hand": "right"
    },
    {
      "midi": 84,
      "time": 34.5,
      "duration": 1.5,
      "velocity": 0.64,
      "hand": "right"
    }
  ]
}
