{
  "id": "sonata-2bmoll-chopin",
  "title": "Sonata nº 2 em Si Bemol Menor",
  "artist": "Frédéric Chopin",
  "difficulty": "Difícil",
  "bpm": 224,
  "duration": 82,
  "category": "Clássicos",
  "isPremium": true,
  "coverUrl": "/images/covers/placeholder.png",
  "notes": [
    {
      "midi": 41,
      "time": 0,
      "duration": 0.067,
      "velocity": 1,
      "hand": "left"
    },
    {
      "midi": 53,
      "time": 0,
      "duration": 0.067,
      "velocity": 1,
      "hand": "left"
    },
    {
      "midi": 43,
      "time": 0.067,
      "duration": 0.067,
      "velocity": 1,
      "hand": "left"
    },
    {
      "midi": 55,
      "time": 0.067,
      "duration": 0.067,
      "velocity": 1,
      "hand": "left"
    },
    {
      "midi": 46,
      "time": 0.201,
      "duration": 0.067,
      "velocity": 1,
      "hand": "left"
    },
    {
      "midi": 58,
      "time": 0.201,
      "duration": 0.067,
      "velocity": 1,
      "hand": "left"
    },
    {
      "midi": 49,
      "time": 0.268,
      "duration": 0.067,
      "velocity": 1,
      "hand": "left"
    },
    {
      "midi": 61,
      "time": 0.268,
      "duration": 0.067,
      "velocity": 1,
      "hand": "right"
    },
    {
      "midi": 40,
      "time": 0.335,
      "duration": 0.067,
      "velocity": 1,
      "hand": "left"
    },
    {
      "midi": 52,
      "time": 0.335,
      "duration": 0.067,
      "velocity": 1,
      "hand": "left"
    },
    {
      "midi": 43,
      "time": 0.469,
      "duration": 0.067,
      "velocity": 1,
      "hand": "left"
    },
    {
      "midi": 55,
      "time": 0.469,
      "duration": 0.067,
      "velocity": 1,
      "hand": "left"
    },
    {
      "midi": 41,
      "time": 0.536,
      "duration": 0.067,
      "velocity": 1,
      "hand": "left"
    },
    {
      "midi": 53,
      "time": 0.536,
      "duration": 0.067,
      "velocity": 1,
      "hand": "left"
    },
    {
      "midi": 43,
      "time": 0.603,
      "duration": 0.067,
      "velocity": 1,
      "hand": "left"
    },
    {
      "midi": 55,
      "time": 0.603,
      "duration": 0.067,
      "velocity": 1,
      "hand": "left"
    },
    {
      "midi": 46,
      "time": 0.737,
      "duration": 0.067,
      "velocity": 1,
      "hand": "left"
    },
    {
      "midi": 58,
      "time": 0.737,
      "duration": 0.067,
      "velocity": 1,
      "hand": "left"
    },
    {
      "midi": 49,
      "time": 0.804,
      "duration": 0.067,
      "velocity": 1,
      "hand": "left"
    },
    {
      "midi": 61,
      "time": 0.804,
      "duration": 0.067,
      "velocity": 1,
      "hand": "right"
    },
    {
      "midi": 40,
      "time": 0.871,
      "duration": 0.067,
      "velocity": 1,
      "hand": "left"
    },
    {
      "midi": 52,
      "time": 0.871,
      "duration": 0.067,
      "velocity": 1,
      "hand": "left"
    },
    {
      "midi": 43,
      "time": 1.004,
      "duration": 0.067,
      "velocity": 1,
      "hand": "left"
    },
    {
      "midi": 55,
      "time": 1.004,
      "duration": 0.067,
      "velocity": 1,
      "hand": "left"
    },
    {
      "midi": 43,
      "time": 1.071,
      "duration": 0.067,
      "velocity": 1,
      "hand": "left"
    },
    {
      "midi": 55,
      "time": 1.071,
      "duration": 0.067,
      "velocity": 1,
      "hand": "left"
    },
    {
      "midi": 45,
      "time": 1.138,
      "duration": 0.067,
      "velocity": 1,
      "hand": "left"
    },
    {
      "midi": 57,
      "time": 1.138,
      "duration": 0.067,
      "velocity": 1,
      "hand": "left"
    },
    {
      "midi": 48,
      "time": 1.272,
      "duration": 0.067,
      "velocity": 1,
      "hand": "left"
    },
    {
      "midi": 60,
      "time": 1.272,
      "duration": 0.067,
      "velocity": 1,
      "hand": "right"
    },
    {
      "midi": 51,
      "time": 1.339,
      "duration": 0.067,
      "velocity": 1,
      "hand": "left"
    },
    {
      "midi": 63,
      "time": 1.339,
      "duration": 0.067,
      "velocity": 1,
      "hand": "right"
    },
    {
      "midi": 42,
      "time": 1.406,
      "duration": 0.067,
      "velocity": 1,
      "hand": "left"
    },
    {
      "midi": 54,
      "time": 1.406,
      "duration": 0.067,
      "velocity": 1,
      "hand": "left"
    },
    {
      "midi": 45,
      "time": 1.54,
      "duration": 0.067,
      "velocity": 1,
      "hand": "left"
    },
    {
      "midi": 57,
      "time": 1.54,
      "duration": 0.067,
      "velocity": 1,
      "hand": "left"
    },
    {
      "midi": 43,
      "time": 1.607,
      "duration": 0.067,
      "velocity": 1,
      "hand": "left"
    },
    {
      "midi": 55,
      "time": 1.607,
      "duration": 0.067,
      "velocity": 1,
      "hand": "left"
    },
    {
      "midi": 45,
      "time": 1.674,
      "duration": 0.067,
      "velocity": 1,
      "hand": "left"
    },
    {
      "midi": 57,
      "time": 1.674,
      "duration": 0.067,
      "velocity": 1,
      "hand": "left"
    },
    {
      "midi": 48,
      "time": 1.808,
      "duration": 0.067,
      "velocity": 1,
      "hand": "left"
    },
    {
      "midi": 60,
      "time": 1.808,
      "duration": 0.067,
      "velocity": 1,
      "hand": "right"
    },
    {
      "midi": 51,
      "time": 1.875,
      "duration": 0.067,
      "velocity": 1,
      "hand": "left"
    },
    {
      "midi": 63,
      "time": 1.875,
      "duration": 0.067,
      "velocity": 1,
      "hand": "right"
    },
    {
      "midi": 42,
      "time": 1.942,
      "duration": 0.067,
      "velocity": 1,
      "hand": "left"
    },
    {
      "midi": 54,
      "time": 1.942,
      "duration": 0.067,
      "velocity": 1,
      "hand": "left"
    },
    {
      "midi": 45,
      "time": 2.076,
      "duration": 0.067,
      "velocity": 1,
      "hand": "left"
    },
    {
      "midi": 57,
      "time": 2.076,
      "duration": 0.067,
      "velocity": 1,
      "hand": "left"
    },
    {
      "midi": 46,
      "time": 2.143,
      "duration": 0.067,
      "velocity": 1,
      "hand": "left"
    },
    {
      "midi": 58,
      "time": 2.143,
      "duration": 0.067,
      "velocity": 1,
      "hand": "left"
    },
    {
      "midi": 48,
      "time": 2.21,
      "duration": 0.067,
      "velocity": 1,
      "hand": "left"
    },
    {
      "midi": 60,
      "time": 2.21,
      "duration": 0.067,
      "velocity": 1,
      "hand": "right"
    },
    {
      "midi": 51,
      "time": 2.344,
      "duration": 0.067,
      "velocity": 1,
      "hand": "left"
    },
    {
      "midi": 63,
      "time": 2.344,
      "duration": 0.067,
      "velocity": 1,
      "hand": "right"
    },
    {
      "midi": 54,
      "time": 2.411,
      "duration": 0.067,
      "velocity": 1,
      "hand": "left"
    },
    {
      "midi": 66,
      "time": 2.411,
      "duration": 0.067,
      "velocity": 1,
      "hand": "right"
    },
    {
      "midi": 45,
      "time": 2.478,
      "duration": 0.067,
      "velocity": 1,
      "hand": "left"
    },
    {
      "midi": 57,
      "time": 2.478,
      "duration": 0.067,
      "velocity": 1,
      "hand": "left"
    },
    {
      "midi": 48,
      "time": 2.612,
      "duration": 0.067,
      "velocity": 1,
      "hand": "left"
    },
    {
      "midi": 60,
      "time": 2.612,
      "duration": 0.067,
      "velocity": 1,
      "hand": "right"
    },
    {
      "midi": 49,
      "time": 2.679,
      "duration": 0.067,
      "velocity": 1,
      "hand": "left"
    },
    {
      "midi": 61,
      "time": 2.679,
      "duration": 0.067,
      "velocity": 1,
      "hand": "right"
    },
    {
      "midi": 51,
      "time": 2.746,
      "duration": 0.067,
      "velocity": 1,
      "hand": "left"
    },
    {
      "midi": 63,
      "time": 2.746,
      "duration": 0.067,
      "velocity": 1,
      "hand": "right"
    },
    {
      "midi": 54,
      "time": 2.879,
      "duration": 0.067,
      "velocity": 1,
      "hand": "left"
    },
    {
      "midi": 66,
      "time": 2.879,
      "duration": 0.067,
      "velocity": 1,
      "hand": "right"
    },
    {
      "midi": 57,
      "time": 2.946,
      "duration": 0.067,
      "velocity": 1,
      "hand": "left"
    },
    {
      "midi": 69,
      "time": 2.946,
      "duration": 0.067,
      "velocity": 1,
      "hand": "right"
    },
    {
      "midi": 48,
      "time": 3.013,
      "duration": 0.067,
      "velocity": 1,
      "hand": "left"
    },
    {
      "midi": 60,
      "time": 3.013,
      "duration": 0.067,
      "velocity": 1,
      "hand": "right"
    },
    {
      "midi": 51,
      "time": 3.147,
      "duration": 0.067,
      "velocity": 1,
      "hand": "left"
    },
    {
      "midi": 63,
      "time": 3.147,
      "duration": 0.067,
      "velocity": 1,
      "hand": "right"
    },
    {
      "midi": 49,
      "time": 3.214,
      "duration": 0.067,
      "velocity": 1,
      "hand": "left"
    },
    {
      "midi": 61,
      "time": 3.214,
      "duration": 0.067,
      "velocity": 1,
      "hand": "right"
    },
    {
      "midi": 51,
      "time": 3.281,
      "duration": 0.067,
      "velocity": 1,
      "hand": "left"
    },
    {
      "midi": 63,
      "time": 3.281,
      "duration": 0.067,
      "velocity": 1,
      "hand": "right"
    },
    {
      "midi": 54,
      "time": 3.415,
      "duration": 0.067,
      "velocity": 1,
      "hand": "left"
    },
    {
      "midi": 66,
      "time": 3.415,
      "duration": 0.067,
      "velocity": 1,
      "hand": "right"
    },
    {
      "midi": 57,
      "time": 3.482,
      "duration": 0.067,
      "velocity": 1,
      "hand": "left"
    },
    {
      "midi": 69,
      "time": 3.482,
      "duration": 0.067,
      "velocity": 1,
      "hand": "right"
    },
    {
      "midi": 48,
      "time": 3.549,
      "duration": 0.067,
      "velocity": 1,
      "hand": "left"
    },
    {
      "midi": 60,
      "time": 3.549,
      "duration": 0.067,
      "velocity": 1,
      "hand": "right"
    },
    {
      "midi": 51,
      "time": 3.683,
      "duration": 0.067,
      "velocity": 1,
      "hand": "left"
    },
    {
      "midi": 63,
      "time": 3.683,
      "duration": 0.067,
      "velocity": 1,
      "hand": "right"
    },
    {
      "midi": 54,
      "time": 3.75,
      "duration": 0.067,
      "velocity": 1,
      "hand": "left"
    },
    {
      "midi": 66,
      "time": 3.75,
      "duration": 0.067,
      "velocity": 1,
      "hand": "right"
    },
    {
      "midi": 58,
      "time": 3.817,
      "duration": 0.067,
      "velocity": 1,
      "hand": "left"
    },
    {
      "midi": 70,
      "time": 3.817,
      "duration": 0.067,
      "velocity": 1,
      "hand": "right"
    },
    {
      "midi": 60,
      "time": 3.951,
      "duration": 0.067,
      "velocity": 1,
      "hand": "right"
    },
    {
      "midi": 72,
      "time": 3.951,
      "duration": 0.067,
      "velocity": 1,
      "hand": "right"
    },
    {
      "midi": 63,
      "time": 4.018,
      "duration": 0.067,
      "velocity": 1,
      "hand": "right"
    },
    {
      "midi": 75,
      "time": 4.018,
      "duration": 0.067,
      "velocity": 1,
      "hand": "right"
    },
    {
      "midi": 53,
      "time": 4.085,
      "duration": 0.067,
      "velocity": 1,
      "hand": "left"
    },
    {
      "midi": 65,
      "time": 4.085,
      "duration": 0.067,
      "velocity": 1,
      "hand": "right"
    },
    {
      "midi": 57,
      "time": 4.219,
      "duration": 0.067,
      "velocity": 1,
      "hand": "left"
    },
    {
      "midi": 69,
      "time": 4.219,
      "duration": 0.067,
      "velocity": 1,
      "hand": "right"
    },
    {
      "midi": 58,
      "time": 4.286,
      "duration": 0.067,
      "velocity": 1,
      "hand": "left"
    },
    {
      "midi": 70,
      "time": 4.286,
      "duration": 0.067,
      "velocity": 1,
      "hand": "right"
    },
    {
      "midi": 61,
      "time": 4.353,
      "duration": 0.067,
      "velocity": 1,
      "hand": "right"
    },
    {
      "midi": 73,
      "time": 4.353,
      "duration": 0.067,
      "velocity": 1,
      "hand": "right"
    },
    {
      "midi": 66,
      "time": 4.487,
      "duration": 0.067,
      "velocity": 1,
      "hand": "right"
    },
    {
      "midi": 78,
      "time": 4.487,
      "duration": 0.067,
      "velocity": 1,
      "hand": "right"
    },
    {
      "midi": 65,
      "time": 4.554,
      "duration": 0.067,
      "velocity": 1,
      "hand": "right"
    },
    {
      "midi": 77,
      "time": 4.554,
      "duration": 0.067,
      "velocity": 1,
      "hand": "right"
    },
    {
      "midi": 60,
      "time": 4.621,
      "duration": 0.067,
      "velocity": 1,
      "hand": "right"
    },
    {
      "midi": 72,
      "time": 4.621,
      "duration": 0.067,
      "velocity": 1,
      "hand": "right"
    },
    {
      "midi": 61,
      "time": 4.754,
      "duration": 0.067,
      "velocity": 1,
      "hand": "right"
    },
    {
      "midi": 73,
      "time": 4.754,
      "duration": 0.067,
      "velocity": 1,
      "hand": "right"
    },
    {
      "midi": 64,
      "time": 4.821,
      "duration": 0.067,
      "velocity": 1,
      "hand": "right"
    },
    {
      "midi": 76,
      "time": 4.821,
      "duration": 0.067,
      "velocity": 1,
      "hand": "right"
    },
    {
      "midi": 60,
      "time": 4.888,
      "duration": 0.067,
      "velocity": 1,
      "hand": "right"
    },
    {
      "midi": 72,
      "time": 4.888,
      "duration": 0.067,
      "velocity": 1,
      "hand": "right"
    },
    {
      "midi": 61,
      "time": 5.022,
      "duration": 0.067,
      "velocity": 1,
      "hand": "right"
    },
    {
      "midi": 73,
      "time": 5.022,
      "duration": 0.067,
      "velocity": 1,
      "hand": "right"
    },
    {
      "midi": 57,
      "time": 5.089,
      "duration": 0.067,
      "velocity": 1,
      "hand": "left"
    },
    {
      "midi": 69,
      "time": 5.089,
      "duration": 0.067,
      "velocity": 1,
      "hand": "right"
    },
    {
      "midi": 58,
      "time": 5.156,
      "duration": 0.067,
      "velocity": 1,
      "hand": "left"
    },
    {
      "midi": 70,
      "time": 5.156,
      "duration": 0.067,
      "velocity": 1,
      "hand": "right"
    },
    {
      "midi": 54,
      "time": 5.29,
      "duration": 0.067,
      "velocity": 1,
      "hand": "left"
    },
    {
      "midi": 66,
      "time": 5.29,
      "duration": 0.067,
      "velocity": 1,
      "hand": "right"
    },
    {
      "midi": 52,
      "time": 5.357,
      "duration": 0.067,
      "velocity": 1,
      "hand": "left"
    },
    {
      "midi": 64,
      "time": 5.357,
      "duration": 0.067,
      "velocity": 1,
      "hand": "right"
    },
    {
      "midi": 53,
      "time": 5.424,
      "duration": 0.067,
      "velocity": 1,
      "hand": "left"
    },
    {
      "midi": 65,
      "time": 5.424,
      "duration": 0.067,
      "velocity": 1,
      "hand": "right"
    },
    {
      "midi": 58,
      "time": 5.558,
      "duration": 0.067,
      "velocity": 1,
      "hand": "left"
    },
    {
      "midi": 70,
      "time": 5.558,
      "duration": 0.067,
      "velocity": 1,
      "hand": "right"
    },
    {
      "midi": 56,
      "time": 5.625,
      "duration": 0.067,
      "velocity": 1,
      "hand": "left"
    },
    {
      "midi": 68,
      "time": 5.625,
      "duration": 0.067,
      "velocity": 1,
      "hand": "right"
    },
    {
      "midi": 57,
      "time": 5.692,
      "duration": 0.067,
      "velocity": 1,
      "hand": "left"
    },
    {
      "midi": 69,
      "time": 5.692,
      "duration": 0.067,
      "velocity": 1,
      "hand": "right"
    },
    {
      "midi": 61,
      "time": 5.826,
      "duration": 0.067,
      "velocity": 1,
      "hand": "right"
    },
    {
      "midi": 73,
      "time": 5.826,
      "duration": 0.067,
      "velocity": 1,
      "hand": "right"
    },
    {
      "midi": 57,
      "time": 5.893,
      "duration": 0.067,
      "velocity": 1,
      "hand": "left"
    },
    {
      "midi": 69,
      "time": 5.893,
      "duration": 0.067,
      "velocity": 1,
      "hand": "right"
    },
    {
      "midi": 58,
      "time": 5.96,
      "duration": 0.067,
      "velocity": 1,
      "hand": "left"
    },
    {
      "midi": 70,
      "time": 5.96,
      "duration": 0.067,
      "velocity": 1,
      "hand": "right"
    },
    {
      "midi": 61,
      "time": 6.094,
      "duration": 0.067,
      "velocity": 1,
      "hand": "right"
    },
    {
      "midi": 73,
      "time": 6.094,
      "duration": 0.067,
      "velocity": 1,
      "hand": "right"
    },
    {
      "midi": 59,
      "time": 6.161,
      "duration": 0.067,
      "velocity": 1,
      "hand": "left"
    },
    {
      "midi": 71,
      "time": 6.161,
      "duration": 0.067,
      "velocity": 1,
      "hand": "right"
    },
    {
      "midi": 60,
      "time": 6.228,
      "duration": 0.067,
      "velocity": 1,
      "hand": "right"
    },
    {
      "midi": 72,
      "time": 6.228,
      "duration": 0.067,
      "velocity": 1,
      "hand": "right"
    },
    {
      "midi": 65,
      "time": 6.362,
      "duration": 0.067,
      "velocity": 1,
      "hand": "right"
    },
    {
      "midi": 77,
      "time": 6.362,
      "duration": 0.067,
      "velocity": 1,
      "hand": "right"
    },
    {
      "midi": 56,
      "time": 6.429,
      "duration": 0.067,
      "velocity": 1,
      "hand": "left"
    },
    {
      "midi": 68,
      "time": 6.429,
      "duration": 0.067,
      "velocity": 1,
      "hand": "right"
    },
    {
      "midi": 59,
      "time": 6.496,
      "duration": 0.067,
      "velocity": 1,
      "hand": "left"
    },
    {
      "midi": 71,
      "time": 6.496,
      "duration": 0.067,
      "velocity": 1,
      "hand": "right"
    },
    {
      "midi": 64,
      "time": 6.629,
      "duration": 0.067,
      "velocity": 1,
      "hand": "right"
    },
    {
      "midi": 76,
      "time": 6.629,
      "duration": 0.067,
      "velocity": 1,
      "hand": "right"
    },
    {
      "midi": 63,
      "time": 6.696,
      "duration": 0.067,
      "velocity": 1,
      "hand": "right"
    },
    {
      "midi": 75,
      "time": 6.696,
      "duration": 0.067,
      "velocity": 1,
      "hand": "right"
    },
    {
      "midi": 58,
      "time": 6.763,
      "duration": 0.067,
      "velocity": 1,
      "hand": "left"
    },
    {
      "midi": 70,
      "time": 6.763,
      "duration": 0.067,
      "velocity": 1,
      "hand": "right"
    },
    {
      "midi": 59,
      "time": 6.897,
      "duration": 0.067,
      "velocity": 1,
      "hand": "left"
    },
    {
      "midi": 71,
      "time": 6.897,
      "duration": 0.067,
      "velocity": 1,
      "hand": "right"
    },
    {
      "midi": 62,
      "time": 6.964,
      "duration": 0.067,
      "velocity": 1,
      "hand": "right"
    },
    {
      "midi": 74,
      "time": 6.964,
      "duration": 0.067,
      "velocity": 1,
      "hand": "right"
    },
    {
      "midi": 58,
      "time": 7.031,
      "duration": 0.067,
      "velocity": 1,
      "hand": "left"
    },
    {
      "midi": 70,
      "time": 7.031,
      "duration": 0.067,
      "velocity": 1,
      "hand": "right"
    },
    {
      "midi": 59,
      "time": 7.165,
      "duration": 0.067,
      "velocity": 1,
      "hand": "left"
    },
    {
      "midi": 71,
      "time": 7.165,
      "duration": 0.067,
      "velocity": 1,
      "hand": "right"
    },
    {
      "midi": 55,
      "time": 7.232,
      "duration": 0.067,
      "velocity": 1,
      "hand": "left"
    },
    {
      "midi": 67,
      "time": 7.232,
      "duration": 0.067,
      "velocity": 1,
      "hand": "right"
    },
    {
      "midi": 56,
      "time": 7.299,
      "duration": 0.067,
      "velocity": 1,
      "hand": "left"
    },
    {
      "midi": 68,
      "time": 7.299,
      "duration": 0.067,
      "velocity": 1,
      "hand": "right"
    },
    {
      "midi": 52,
      "time": 7.433,
      "duration": 0.067,
      "velocity": 1,
      "hand": "left"
    },
    {
      "midi": 64,
      "time": 7.433,
      "duration": 0.067,
      "velocity": 1,
      "hand": "right"
    },
    {
      "midi": 50,
      "time": 7.5,
      "duration": 0.067,
      "velocity": 1,
      "hand": "left"
    },
    {
      "midi": 62,
      "time": 7.5,
      "duration": 0.067,
      "velocity": 1,
      "hand": "right"
    },
    {
      "midi": 51,
      "time": 7.567,
      "duration": 0.067,
      "velocity": 1,
      "hand": "left"
    },
    {
      "midi": 63,
      "time": 7.567,
      "duration": 0.067,
      "velocity": 1,
      "hand": "right"
    },
    {
      "midi": 56,
      "time": 7.701,
      "duration": 0.067,
      "velocity": 1,
      "hand": "left"
    },
    {
      "midi": 68,
      "time": 7.701,
      "duration": 0.067,
      "velocity": 1,
      "hand": "right"
    },
    {
      "midi": 52,
      "time": 7.768,
      "duration": 0.067,
      "velocity": 1,
      "hand": "left"
    },
    {
      "midi": 64,
      "time": 7.768,
      "duration": 0.067,
      "velocity": 1,
      "hand": "right"
    },
    {
      "midi": 53,
      "time": 7.835,
      "duration": 0.067,
      "velocity": 1,
      "hand": "left"
    },
    {
      "midi": 65,
      "time": 7.835,
      "duration": 0.067,
      "velocity": 1,
      "hand": "right"
    },
    {
      "midi": 59,
      "time": 7.969,
      "duration": 0.067,
      "velocity": 1,
      "hand": "left"
    },
    {
      "midi": 71,
      "time": 7.969,
      "duration": 0.067,
      "velocity": 1,
      "hand": "right"
    },
    {
      "midi": 53,
      "time": 8.036,
      "duration": 0.067,
      "velocity": 1,
      "hand": "left"
    },
    {
      "midi": 65,
      "time": 8.036,
      "duration": 0.067,
      "velocity": 1,
      "hand": "right"
    },
    {
      "midi": 54,
      "time": 8.103,
      "duration": 0.067,
      "velocity": 1,
      "hand": "left"
    },
    {
      "midi": 66,
      "time": 8.103,
      "duration": 0.067,
      "velocity": 1,
      "hand": "right"
    },
    {
      "midi": 59,
      "time": 8.237,
      "duration": 0.067,
      "velocity": 1,
      "hand": "left"
    },
    {
      "midi": 71,
      "time": 8.237,
      "duration": 0.067,
      "velocity": 1,
      "hand": "right"
    },
    {
      "midi": 57,
      "time": 8.304,
      "duration": 0.067,
      "velocity": 1,
      "hand": "left"
    },
    {
      "midi": 69,
      "time": 8.304,
      "duration": 0.067,
      "velocity": 1,
      "hand": "right"
    },
    {
      "midi": 58,
      "time": 8.371,
      "duration": 0.067,
      "velocity": 1,
      "hand": "left"
    },
    {
      "midi": 70,
      "time": 8.371,
      "duration": 0.067,
      "velocity": 1,
      "hand": "right"
    },
    {
      "midi": 63,
      "time": 8.504,
      "duration": 0.067,
      "velocity": 1,
      "hand": "right"
    },
    {
      "midi": 75,
      "time": 8.504,
      "duration": 0.067,
      "velocity": 1,
      "hand": "right"
    },
    {
      "midi": 61,
      "time": 8.571,
      "duration": 0.067,
      "velocity": 1,
      "hand": "right"
    },
    {
      "midi": 73,
      "time": 8.571,
      "duration": 0.067,
      "velocity": 1,
      "hand": "right"
    },
    {
      "midi": 53,
      "time": 8.638,
      "duration": 0.067,
      "velocity": 1,
      "hand": "left"
    },
    {
      "midi": 65,
      "time": 8.638,
      "duration": 0.067,
      "velocity": 1,
      "hand": "right"
    },
    {
      "midi": 58,
      "time": 8.772,
      "duration": 0.067,
      "velocity": 1,
      "hand": "left"
    },
    {
      "midi": 70,
      "time": 8.772,
      "duration": 0.067,
      "velocity": 1,
      "hand": "right"
    },
    {
      "midi": 49,
      "time": 8.839,
      "duration": 0.067,
      "velocity": 1,
      "hand": "left"
    },
    {
      "midi": 61,
      "time": 8.839,
      "duration": 0.067,
      "velocity": 1,
      "hand": "right"
    },
    {
      "midi": 52,
      "time": 8.906,
      "duration": 0.067,
      "velocity": 1,
      "hand": "left"
    },
    {
      "midi": 64,
      "time": 8.906,
      "duration": 0.067,
      "velocity": 1,
      "hand": "right"
    },
    {
      "midi": 57,
      "time": 9.04,
      "duration": 0.067,
      "velocity": 1,
      "hand": "left"
    },
    {
      "midi": 69,
      "time": 9.04,
      "duration": 0.067,
      "velocity": 1,
      "hand": "right"
    },
    {
      "midi": 60,
      "time": 9.107,
      "duration": 0.067,
      "velocity": 1,
      "hand": "right"
    },
    {
      "midi": 72,
      "time": 9.107,
      "duration": 0.067,
      "velocity": 1,
      "hand": "right"
    },
    {
      "midi": 51,
      "time": 9.174,
      "duration": 0.067,
      "velocity": 1,
      "hand": "left"
    },
    {
      "midi": 63,
      "time": 9.174,
      "duration": 0.067,
      "velocity": 1,
      "hand": "right"
    },
    {
      "midi": 56,
      "time": 9.308,
      "duration": 0.067,
      "velocity": 1,
      "hand": "left"
    },
    {
      "midi": 68,
      "time": 9.308,
      "duration": 0.067,
      "velocity": 1,
      "hand": "right"
    },
    {
      "midi": 47,
      "time": 9.375,
      "duration": 0.067,
      "velocity": 1,
      "hand": "left"
    },
    {
      "midi": 59,
      "time": 9.375,
      "duration": 0.067,
      "velocity": 1,
      "hand": "left"
    },
    {
      "midi": 50,
      "time": 9.442,
      "duration": 0.067,
      "velocity": 1,
      "hand": "left"
    },
    {
      "midi": 62,
      "time": 9.442,
      "duration": 0.067,
      "velocity": 1,
      "hand": "right"
    },
    {
      "midi": 55,
      "time": 9.576,
      "duration": 0.067,
      "velocity": 1,
      "hand": "left"
    },
    {
      "midi": 67,
      "time": 9.576,
      "duration": 0.067,
      "velocity": 1,
      "hand": "right"
    },
    {
      "midi": 59,
      "time": 9.643,
      "duration": 0.067,
      "velocity": 1,
      "hand": "left"
    },
    {
      "midi": 71,
      "time": 9.643,
      "duration": 0.067,
      "velocity": 1,
      "hand": "right"
    },
    {
      "midi": 50,
      "time": 9.71,
      "duration": 0.067,
      "velocity": 1,
      "hand": "left"
    },
    {
      "midi": 62,
      "time": 9.71,
      "duration": 0.067,
      "velocity": 1,
      "hand": "right"
    },
    {
      "midi": 54,
      "time": 9.844,
      "duration": 0.067,
      "velocity": 1,
      "hand": "left"
    },
    {
      "midi": 66,
      "time": 9.844,
      "duration": 0.067,
      "velocity": 1,
      "hand": "right"
    },
    {
      "midi": 46,
      "time": 9.911,
      "duration": 0.067,
      "velocity": 1,
      "hand": "left"
    },
    {
      "midi": 58,
      "time": 9.911,
      "duration": 0.067,
      "velocity": 1,
      "hand": "left"
    },
    {
      "midi": 49,
      "time": 9.978,
      "duration": 0.067,
      "velocity": 1,
      "hand": "left"
    },
    {
      "midi": 61,
      "time": 9.978,
      "duration": 0.067,
      "velocity": 1,
      "hand": "right"
    },
    {
      "midi": 54,
      "time": 10.112,
      "duration": 0.067,
      "velocity": 1,
      "hand": "left"
    },
    {
      "midi": 66,
      "time": 10.112,
      "duration": 0.067,
      "velocity": 1,
      "hand": "right"
    },
    {
      "midi": 58,
      "time": 10.179,
      "duration": 0.067,
      "velocity": 1,
      "hand": "left"
    },
    {
      "midi": 70,
      "time": 10.179,
      "duration": 0.067,
      "velocity": 1,
      "hand": "right"
    },
    {
      "midi": 54,
      "time": 10.246,
      "duration": 0.067,
      "velocity": 1,
      "hand": "left"
    },
    {
      "midi": 66,
      "time": 10.246,
      "duration": 0.067,
      "velocity": 1,
      "hand": "right"
    },
    {
      "midi": 59,
      "time": 10.379,
      "duration": 0.067,
      "velocity": 1,
      "hand": "left"
    },
    {
      "midi": 71,
      "time": 10.379,
      "duration": 0.067,
      "velocity": 1,
      "hand": "right"
    },
    {
      "midi": 60,
      "time": 10.446,
      "duration": 0.067,
      "velocity": 1,
      "hand": "right"
    },
    {
      "midi": 72,
      "time": 10.446,
      "duration": 0.067,
      "velocity": 1,
      "hand": "right"
    },
    {
      "midi": 61,
      "time": 10.513,
      "duration": 0.067,
      "velocity": 1,
      "hand": "right"
    },
    {
      "midi": 73,
      "time": 10.513,
      "duration": 0.067,
      "velocity": 1,
      "hand": "right"
    },
    {
      "midi": 63,
      "time": 10.647,
      "duration": 0.067,
      "velocity": 1,
      "hand": "right"
    },
    {
      "midi": 75,
      "time": 10.647,
      "duration": 0.067,
      "velocity": 1,
      "hand": "right"
    },
    {
      "midi": 64,
      "time": 10.714,
      "duration": 0.067,
      "velocity": 1,
      "hand": "right"
    },
    {
      "midi": 76,
      "time": 10.714,
      "duration": 0.067,
      "velocity": 1,
      "hand": "right"
    },
    {
      "midi": 55,
      "time": 10.781,
      "duration": 0.067,
      "velocity": 1,
      "hand": "left"
    },
    {
      "midi": 67,
      "time": 10.781,
      "duration": 0.067,
      "velocity": 1,
      "hand": "right"
    },
    {
      "midi": 60,
      "time": 10.915,
      "duration": 0.067,
      "velocity": 1,
      "hand": "right"
    },
    {
      "midi": 72,
      "time": 10.915,
      "duration": 0.067,
      "velocity": 1,
      "hand": "right"
    },
    {
      "midi": 51,
      "time": 10.982,
      "duration": 0.067,
      "velocity": 1,
      "hand": "left"
    },
    {
      "midi": 63,
      "time": 10.982,
      "duration": 0.067,
      "velocity": 1,
      "hand": "right"
    },
    {
      "midi": 54,
      "time": 11.049,
      "duration": 0.067,
      "velocity": 1,
      "hand": "left"
    },
    {
      "midi": 66,
      "time": 11.049,
      "duration": 0.067,
      "velocity": 1,
      "hand": "right"
    },
    {
      "midi": 59,
      "time": 11.183,
      "duration": 0.067,
      "velocity": 1,
      "hand": "left"
    },
    {
      "midi": 71,
      "time": 11.183,
      "duration": 0.067,
      "velocity": 1,
      "hand": "right"
    },
    {
      "midi": 62,
      "time": 11.25,
      "duration": 0.067,
      "velocity": 1,
      "hand": "right"
    },
    {
      "midi": 74,
      "time": 11.25,
      "duration": 0.067,
      "velocity": 1,
      "hand": "right"
    },
    {
      "midi": 53,
      "time": 11.317,
      "duration": 0.067,
      "velocity": 1,
      "hand": "left"
    },
    {
      "midi": 65,
      "time": 11.317,
      "duration": 0.067,
      "velocity": 1,
      "hand": "right"
    },
    {
      "midi": 58,
      "time": 11.451,
      "duration": 0.067,
      "velocity": 1,
      "hand": "left"
    },
    {
      "midi": 70,
      "time": 11.451,
      "duration": 0.067,
      "velocity": 1,
      "hand": "right"
    },
    {
      "midi": 49,
      "time": 11.518,
      "duration": 0.067,
      "velocity": 1,
      "hand": "left"
    },
    {
      "midi": 61,
      "time": 11.518,
      "duration": 0.067,
      "velocity": 1,
      "hand": "right"
    },
    {
      "midi": 52,
      "time": 11.585,
      "duration": 0.067,
      "velocity": 1,
      "hand": "left"
    },
    {
      "midi": 64,
      "time": 11.585,
      "duration": 0.067,
      "velocity": 1,
      "hand": "right"
    },
    {
      "midi": 57,
      "time": 11.719,
      "duration": 0.067,
      "velocity": 1,
      "hand": "left"
    },
    {
      "midi": 69,
      "time": 11.719,
      "duration": 0.067,
      "velocity": 1,
      "hand": "right"
    },
    {
      "midi": 60,
      "time": 11.786,
      "duration": 0.067,
      "velocity": 1,
      "hand": "right"
    },
    {
      "midi": 72,
      "time": 11.786,
      "duration": 0.067,
      "velocity": 1,
      "hand": "right"
    },
    {
      "midi": 51,
      "time": 11.853,
      "duration": 0.067,
      "velocity": 1,
      "hand": "left"
    },
    {
      "midi": 63,
      "time": 11.853,
      "duration": 0.067,
      "velocity": 1,
      "hand": "right"
    },
    {
      "midi": 56,
      "time": 11.987,
      "duration": 0.067,
      "velocity": 1,
      "hand": "left"
    },
    {
      "midi": 68,
      "time": 11.987,
      "duration": 0.067,
      "velocity": 1,
      "hand": "right"
    },
    {
      "midi": 47,
      "time": 12.054,
      "duration": 0.067,
      "velocity": 1,
      "hand": "left"
    },
    {
      "midi": 59,
      "time": 12.054,
      "duration": 0.067,
      "velocity": 1,
      "hand": "left"
    },
    {
      "midi": 50,
      "time": 12.121,
      "duration": 0.067,
      "velocity": 1,
      "hand": "left"
    },
    {
      "midi": 62,
      "time": 12.121,
      "duration": 0.067,
      "velocity": 1,
      "hand": "right"
    },
    {
      "midi": 55,
      "time": 12.254,
      "duration": 0.067,
      "velocity": 1,
      "hand": "left"
    },
    {
      "midi": 67,
      "time": 12.254,
      "duration": 0.067,
      "velocity": 1,
      "hand": "right"
    },
    {
      "midi": 59,
      "time": 12.321,
      "duration": 0.067,
      "velocity": 1,
      "hand": "left"
    },
    {
      "midi": 71,
      "time": 12.321,
      "duration": 0.067,
      "velocity": 1,
      "hand": "right"
    },
    {
      "midi": 54,
      "time": 12.388,
      "duration": 0.067,
      "velocity": 1,
      "hand": "left"
    },
    {
      "midi": 66,
      "time": 12.388,
      "duration": 0.067,
      "velocity": 1,
      "hand": "right"
    },
    {
      "midi": 61,
      "time": 12.522,
      "duration": 0.067,
      "velocity": 1,
      "hand": "right"
    },
    {
      "midi": 73,
      "time": 12.522,
      "duration": 0.067,
      "velocity": 1,
      "hand": "right"
    },
    {
      "midi": 62,
      "time": 12.589,
      "duration": 0.067,
      "velocity": 1,
      "hand": "right"
    },
    {
      "midi": 74,
      "time": 12.589,
      "duration": 0.067,
      "velocity": 1,
      "hand": "right"
    },
    {
      "midi": 63,
      "time": 12.656,
      "duration": 0.067,
      "velocity": 1,
      "hand": "right"
    },
    {
      "midi": 75,
      "time": 12.656,
      "duration": 0.067,
      "velocity": 1,
      "hand": "right"
    },
    {
      "midi": 64,
      "time": 12.79,
      "duration": 0.067,
      "velocity": 1,
      "hand": "right"
    },
    {
      "midi": 76,
      "time": 12.79,
      "duration": 0.067,
      "velocity": 1,
      "hand": "right"
    },
    {
      "midi": 65,
      "time": 12.857,
      "duration": 0.067,
      "velocity": 1,
      "hand": "right"
    },
    {
      "midi": 77,
      "time": 12.857,
      "duration": 0.067,
      "velocity": 1,
      "hand": "right"
    },
    {
      "midi": 57,
      "time": 12.924,
      "duration": 0.067,
      "velocity": 1,
      "hand": "left"
    },
    {
      "midi": 69,
      "time": 12.924,
      "duration": 0.067,
      "velocity": 1,
      "hand": "right"
    },
    {
      "midi": 63,
      "time": 13.058,
      "duration": 0.067,
      "velocity": 1,
      "hand": "right"
    },
    {
      "midi": 75,
      "time": 13.058,
      "duration": 0.067,
      "velocity": 1,
      "hand": "right"
    },
    {
      "midi": 64,
      "time": 13.125,
      "duration": 0.067,
      "velocity": 1,
      "hand": "right"
    },
    {
      "midi": 76,
      "time": 13.125,
      "duration": 0.067,
      "velocity": 1,
      "hand": "right"
    },
    {
      "midi": 65,
      "time": 13.192,
      "duration": 0.067,
      "velocity": 1,
      "hand": "right"
    },
    {
      "midi": 77,
      "time": 13.192,
      "duration": 0.067,
      "velocity": 1,
      "hand": "right"
    },
    {
      "midi": 66,
      "time": 13.326,
      "duration": 0.067,
      "velocity": 1,
      "hand": "right"
    },
    {
      "midi": 78,
      "time": 13.326,
      "duration": 0.067,
      "velocity": 1,
      "hand": "right"
    },
    {
      "midi": 65,
      "time": 13.393,
      "duration": 0.067,
      "velocity": 1,
      "hand": "right"
    },
    {
      "midi": 77,
      "time": 13.393,
      "duration": 0.067,
      "velocity": 1,
      "hand": "right"
    },
    {
      "midi": 58,
      "time": 13.46,
      "duration": 0.067,
      "velocity": 1,
      "hand": "left"
    },
    {
      "midi": 70,
      "time": 13.46,
      "duration": 0.067,
      "velocity": 1,
      "hand": "right"
    },
    {
      "midi": 61,
      "time": 13.594,
      "duration": 0.067,
      "velocity": 1,
      "hand": "right"
    },
    {
      "midi": 73,
      "time": 13.594,
      "duration": 0.067,
      "velocity": 1,
      "hand": "right"
    },
    {
      "midi": 64,
      "time": 13.661,
      "duration": 0.067,
      "velocity": 1,
      "hand": "right"
    },
    {
      "midi": 76,
      "time": 13.661,
      "duration": 0.067,
      "velocity": 1,
      "hand": "right"
    },
    {
      "midi": 65,
      "time": 13.728,
      "duration": 0.067,
      "velocity": 1,
      "hand": "right"
    },
    {
      "midi": 77,
      "time": 13.728,
      "duration": 0.067,
      "velocity": 1,
      "hand": "right"
    },
    {
      "midi": 66,
      "time": 13.862,
      "duration": 0.067,
      "velocity": 1,
      "hand": "right"
    },
    {
      "midi": 78,
      "time": 13.862,
      "duration": 0.067,
      "velocity": 1,
      "hand": "right"
    },
    {
      "midi": 67,
      "time": 13.929,
      "duration": 0.067,
      "velocity": 1,
      "hand": "right"
    },
    {
      "midi": 79,
      "time": 13.929,
      "duration": 0.067,
      "velocity": 1,
      "hand": "right"
    },
    {
      "midi": 59,
      "time": 13.996,
      "duration": 0.067,
      "velocity": 1,
      "hand": "left"
    },
    {
      "midi": 71,
      "time": 13.996,
      "duration": 0.067,
      "velocity": 1,
      "hand": "right"
    },
    {
      "midi": 65,
      "time": 14.129,
      "duration": 0.067,
      "velocity": 1,
      "hand": "right"
    },
    {
      "midi": 77,
      "time": 14.129,
      "duration": 0.067,
      "velocity": 1,
      "hand": "right"
    },
    {
      "midi": 66,
      "time": 14.196,
      "duration": 0.067,
      "velocity": 1,
      "hand": "right"
    },
    {
      "midi": 78,
      "time": 14.196,
      "duration": 0.067,
      "velocity": 1,
      "hand": "right"
    },
    {
      "midi": 67,
      "time": 14.263,
      "duration": 0.067,
      "velocity": 1,
      "hand": "right"
    },
    {
      "midi": 79,
      "time": 14.263,
      "duration": 0.067,
      "velocity": 1,
      "hand": "right"
    },
    {
      "midi": 68,
      "time": 14.397,
      "duration": 0.067,
      "velocity": 1,
      "hand": "right"
    },
    {
      "midi": 80,
      "time": 14.397,
      "duration": 0.067,
      "velocity": 1,
      "hand": "right"
    },
    {
      "midi": 67,
      "time": 14.464,
      "duration": 0.067,
      "velocity": 1,
      "hand": "right"
    },
    {
      "midi": 79,
      "time": 14.464,
      "duration": 0.067,
      "velocity": 1,
      "hand": "right"
    },
    {
      "midi": 60,
      "time": 14.531,
      "duration": 0.067,
      "velocity": 1,
      "hand": "right"
    },
    {
      "midi": 72,
      "time": 14.531,
      "duration": 0.067,
      "velocity": 1,
      "hand": "right"
    },
    {
      "midi": 63,
      "time": 14.665,
      "duration": 0.067,
      "velocity": 1,
      "hand": "right"
    },
    {
      "midi": 75,
      "time": 14.665,
      "duration": 0.067,
      "velocity": 1,
      "hand": "right"
    },
    {
      "midi": 66,
      "time": 14.732,
      "duration": 0.067,
      "velocity": 1,
      "hand": "right"
    },
    {
      "midi": 78,
      "time": 14.732,
      "duration": 0.067,
      "velocity": 1,
      "hand": "right"
    },
    {
      "midi": 67,
      "time": 14.799,
      "duration": 0.067,
      "velocity": 1,
      "hand": "right"
    },
    {
      "midi": 79,
      "time": 14.799,
      "duration": 0.067,
      "velocity": 1,
      "hand": "right"
    },
    {
      "midi": 68,
      "time": 14.933,
      "duration": 0.067,
      "velocity": 1,
      "hand": "right"
    },
    {
      "midi": 80,
      "time": 14.933,
      "duration": 0.067,
      "velocity": 1,
      "hand": "right"
    },
    {
      "midi": 63,
      "time": 15,
      "duration": 0.067,
      "velocity": 1,
      "hand": "right"
    },
    {
      "midi": 75,
      "time": 15,
      "duration": 0.067,
      "velocity": 1,
      "hand": "right"
    },
    {
      "midi": 60,
      "time": 15.067,
      "duration": 0.067,
      "velocity": 1,
      "hand": "right"
    },
    {
      "midi": 72,
      "time": 15.067,
      "duration": 0.067,
      "velocity": 1,
      "hand": "right"
    },
    {
      "midi": 65,
      "time": 15.201,
      "duration": 0.067,
      "velocity": 1,
      "hand": "right"
    },
    {
      "midi": 77,
      "time": 15.201,
      "duration": 0.067,
      "velocity": 1,
      "hand": "right"
    },
    {
      "midi": 63,
      "time": 15.268,
      "duration": 0.067,
      "velocity": 1,
      "hand": "right"
    },
    {
      "midi": 75,
      "time": 15.268,
      "duration": 0.067,
      "velocity": 1,
      "hand": "right"
    },
    {
      "midi": 56,
      "time": 15.335,
      "duration": 0.067,
      "velocity": 1,
      "hand": "left"
    },
    {
      "midi": 68,
      "time": 15.335,
      "duration": 0.067,
      "velocity": 1,
      "hand": "right"
    },
    {
      "midi": 61,
      "time": 15.469,
      "duration": 0.067,
      "velocity": 1,
      "hand": "right"
    },
    {
      "midi": 73,
      "time": 15.469,
      "duration": 0.067,
      "velocity": 1,
      "hand": "right"
    },
    {
      "midi": 60,
      "time": 15.536,
      "duration": 0.067,
      "velocity": 1,
      "hand": "right"
    },
    {
      "midi": 72,
      "time": 15.536,
      "duration": 0.067,
      "velocity": 1,
      "hand": "right"
    },
    {
      "midi": 51,
      "time": 15.603,
      "duration": 0.067,
      "velocity": 1,
      "hand": "left"
    },
    {
      "midi": 63,
      "time": 15.603,
      "duration": 0.067,
      "velocity": 1,
      "hand": "right"
    },
    {
      "midi": 58,
      "time": 15.737,
      "duration": 0.067,
      "velocity": 1,
      "hand": "left"
    },
    {
      "midi": 70,
      "time": 15.737,
      "duration": 0.067,
      "velocity": 1,
      "hand": "right"
    },
    {
      "midi": 56,
      "time": 15.804,
      "duration": 0.067,
      "velocity": 1,
      "hand": "left"
    },
    {
      "midi": 68,
      "time": 15.804,
      "duration": 0.067,
      "velocity": 1,
      "hand": "right"
    },
    {
      "midi": 48,
      "time": 15.871,
      "duration": 0.067,
      "velocity": 1,
      "hand": "left"
    },
    {
      "midi": 60,
      "time": 15.871,
      "duration": 0.067,
      "velocity": 1,
      "hand": "right"
    },
    {
      "midi": 53,
      "time": 16.004,
      "duration": 0.067,
      "velocity": 1,
      "hand": "left"
    },
    {
      "midi": 65,
      "time": 16.004,
      "duration": 0.067,
      "velocity": 1,
      "hand": "right"
    },
    {
      "midi": 51,
      "time": 16.071,
      "duration": 0.067,
      "velocity": 1,
      "hand": "left"
    },
    {
      "midi": 63,
      "time": 16.071,
      "duration": 0.067,
      "velocity": 1,
      "hand": "right"
    },
    {
      "midi": 44,
      "time": 16.138,
      "duration": 0.067,
      "velocity": 1,
      "hand": "left"
    },
    {
      "midi": 56,
      "time": 16.138,
      "duration": 0.067,
      "velocity": 1,
      "hand": "left"
    },
    {
      "midi": 49,
      "time": 16.272,
      "duration": 0.067,
      "velocity": 1,
      "hand": "left"
    },
    {
      "midi": 61,
      "time": 16.272,
      "duration": 0.067,
      "velocity": 1,
      "hand": "right"
    },
    {
      "midi": 48,
      "time": 16.339,
      "duration": 0.067,
      "velocity": 1,
      "hand": "left"
    },
    {
      "midi": 60,
      "time": 16.339,
      "duration": 0.067,
      "velocity": 1,
      "hand": "right"
    },
    {
      "midi": 43,
      "time": 16.406,
      "duration": 0.067,
      "velocity": 1,
      "hand": "left"
    },
    {
      "midi": 55,
      "time": 16.406,
      "duration": 0.067,
      "velocity": 1,
      "hand": "left"
    },
    {
      "midi": 44,
      "time": 16.54,
      "duration": 0.067,
      "velocity": 1,
      "hand": "left"
    },
    {
      "midi": 56,
      "time": 16.54,
      "duration": 0.067,
      "velocity": 1,
      "hand": "left"
    },
    {
      "midi": 48,
      "time": 16.607,
      "duration": 0.067,
      "velocity": 1,
      "hand": "left"
    },
    {
      "midi": 60,
      "time": 16.607,
      "duration": 0.067,
      "velocity": 1,
      "hand": "right"
    },
    {
      "midi": 42,
      "time": 16.674,
      "duration": 0.067,
      "velocity": 1,
      "hand": "left"
    },
    {
      "midi": 54,
      "time": 16.674,
      "duration": 0.067,
      "velocity": 1,
      "hand": "left"
    },
    {
      "midi": 50,
      "time": 16.808,
      "duration": 0.067,
      "velocity": 1,
      "hand": "left"
    },
    {
      "midi": 62,
      "time": 16.808,
      "duration": 0.067,
      "velocity": 1,
      "hand": "right"
    },
    {
      "midi": 48,
      "time": 16.875,
      "duration": 0.067,
      "velocity": 1,
      "hand": "left"
    },
    {
      "midi": 60,
      "time": 16.875,
      "duration": 0.067,
      "velocity": 1,
      "hand": "right"
    },
    {
      "midi": 41,
      "time": 16.942,
      "duration": 0.067,
      "velocity": 1,
      "hand": "left"
    },
    {
      "midi": 53,
      "time": 16.942,
      "duration": 0.067,
      "velocity": 1,
      "hand": "left"
    },
    {
      "midi": 42,
      "time": 17.076,
      "duration": 0.067,
      "velocity": 1,
      "hand": "left"
    },
    {
      "midi": 54,
      "time": 17.076,
      "duration": 0.067,
      "velocity": 1,
      "hand": "left"
    },
    {
      "midi": 43,
      "time": 17.143,
      "duration": 0.067,
      "velocity": 1,
      "hand": "left"
    },
    {
      "midi": 55,
      "time": 17.143,
      "duration": 0.067,
      "velocity": 1,
      "hand": "left"
    },
    {
      "midi": 45,
      "time": 17.21,
      "duration": 0.067,
      "velocity": 1,
      "hand": "left"
    },
    {
      "midi": 57,
      "time": 17.21,
      "duration": 0.067,
      "velocity": 1,
      "hand": "left"
    },
    {
      "midi": 47,
      "time": 17.344,
      "duration": 0.067,
      "velocity": 1,
      "hand": "left"
    },
    {
      "midi": 59,
      "time": 17.344,
      "duration": 0.067,
      "velocity": 1,
      "hand": "left"
    },
    {
      "midi": 48,
      "time": 17.411,
      "duration": 0.067,
      "velocity": 1,
      "hand": "left"
    },
    {
      "midi": 60,
      "time": 17.411,
      "duration": 0.067,
      "velocity": 1,
      "hand": "right"
    },
    {
      "midi": 50,
      "time": 17.478,
      "duration": 0.067,
      "velocity": 1,
      "hand": "left"
    },
    {
      "midi": 62,
      "time": 17.478,
      "duration": 0.067,
      "velocity": 1,
      "hand": "right"
    },
    {
      "midi": 51,
      "time": 17.612,
      "duration": 0.067,
      "velocity": 1,
      "hand": "left"
    },
    {
      "midi": 63,
      "time": 17.612,
      "duration": 0.067,
      "velocity": 1,
      "hand": "right"
    },
    {
      "midi": 44,
      "time": 17.679,
      "duration": 0.067,
      "velocity": 1,
      "hand": "left"
    },
    {
      "midi": 56,
      "time": 17.679,
      "duration": 0.067,
      "velocity": 1,
      "hand": "left"
    },
    {
      "midi": 46,
      "time": 17.746,
      "duration": 0.067,
      "velocity": 1,
      "hand": "left"
    },
    {
      "midi": 58,
      "time": 17.746,
      "duration": 0.067,
      "velocity": 1,
      "hand": "left"
    },
    {
      "midi": 47,
      "time": 17.879,
      "duration": 0.067,
      "velocity": 1,
      "hand": "left"
    },
    {
      "midi": 59,
      "time": 17.879,
      "duration": 0.067,
      "velocity": 1,
      "hand": "left"
    },
    {
      "midi": 48,
      "time": 17.946,
      "duration": 0.067,
      "velocity": 1,
      "hand": "left"
    },
    {
      "midi": 60,
      "time": 17.946,
      "duration": 0.067,
      "velocity": 1,
      "hand": "right"
    },
    {
      "midi": 49,
      "time": 18.013,
      "duration": 0.067,
      "velocity": 1,
      "hand": "left"
    },
    {
      "midi": 61,
      "time": 18.013,
      "duration": 0.067,
      "velocity": 1,
      "hand": "right"
    },
    {
      "midi": 51,
      "time": 18.147,
      "duration": 0.067,
      "velocity": 1,
      "hand": "left"
    },
    {
      "midi": 63,
      "time": 18.147,
      "duration": 0.067,
      "velocity": 1,
      "hand": "right"
    },
    {
      "midi": 45,
      "time": 18.214,
      "duration": 0.067,
      "velocity": 1,
      "hand": "left"
    },
    {
      "midi": 57,
      "time": 18.214,
      "duration": 0.067,
      "velocity": 1,
      "hand": "left"
    },
    {
      "midi": 46,
      "time": 18.281,
      "duration": 0.067,
      "velocity": 1,
      "hand": "left"
    },
    {
      "midi": 58,
      "time": 18.281,
      "duration": 0.067,
      "velocity": 1,
      "hand": "left"
    },
    {
      "midi": 48,
      "time": 18.415,
      "duration": 0.067,
      "velocity": 1,
      "hand": "left"
    },
    {
      "midi": 60,
      "time": 18.415,
      "duration": 0.067,
      "velocity": 1,
      "hand": "right"
    },
    {
      "midi": 49,
      "time": 18.482,
      "duration": 0.067,
      "velocity": 1,
      "hand": "left"
    },
    {
      "midi": 61,
      "time": 18.482,
      "duration": 0.067,
      "velocity": 1,
      "hand": "right"
    },
    {
      "midi": 51,
      "time": 18.549,
      "duration": 0.067,
      "velocity": 1,
      "hand": "left"
    },
    {
      "midi": 63,
      "time": 18.549,
      "duration": 0.067,
      "velocity": 1,
      "hand": "right"
    },
    {
      "midi": 53,
      "time": 18.683,
      "duration": 0.067,
      "velocity": 1,
      "hand": "left"
    },
    {
      "midi": 65,
      "time": 18.683,
      "duration": 0.067,
      "velocity": 1,
      "hand": "right"
    },
    {
      "midi": 46,
      "time": 18.75,
      "duration": 0.067,
      "velocity": 1,
      "hand": "left"
    },
    {
      "midi": 58,
      "time": 18.75,
      "duration": 0.067,
      "velocity": 1,
      "hand": "left"
    },
    {
      "midi": 47,
      "time": 18.817,
      "duration": 0.067,
      "velocity": 1,
      "hand": "left"
    },
    {
      "midi": 59,
      "time": 18.817,
      "duration": 0.067,
      "velocity": 1,
      "hand": "left"
    },
    {
      "midi": 48,
      "time": 18.951,
      "duration": 0.067,
      "velocity": 1,
      "hand": "left"
    },
    {
      "midi": 60,
      "time": 18.951,
      "duration": 0.067,
      "velocity": 1,
      "hand": "right"
    },
    {
      "midi": 49,
      "time": 19.018,
      "duration": 0.067,
      "velocity": 1,
      "hand": "left"
    },
    {
      "midi": 61,
      "time": 19.018,
      "duration": 0.067,
      "velocity": 1,
      "hand": "right"
    },
    {
      "midi": 51,
      "time": 19.085,
      "duration": 0.067,
      "velocity": 1,
      "hand": "left"
    },
    {
      "midi": 63,
      "time": 19.085,
      "duration": 0.067,
      "velocity": 1,
      "hand": "right"
    },
    {
      "midi": 53,
      "time": 19.219,
      "duration": 0.067,
      "velocity": 1,
      "hand": "left"
    },
    {
      "midi": 65,
      "time": 19.219,
      "duration": 0.067,
      "velocity": 1,
      "hand": "right"
    },
    {
      "midi": 48,
      "time": 19.286,
      "duration": 0.067,
      "velocity": 1,
      "hand": "left"
    },
    {
      "midi": 60,
      "time": 19.286,
      "duration": 0.067,
      "velocity": 1,
      "hand": "right"
    },
    {
      "midi": 49,
      "time": 19.353,
      "duration": 0.067,
      "velocity": 1,
      "hand": "left"
    },
    {
      "midi": 61,
      "time": 19.353,
      "duration": 0.067,
      "velocity": 1,
      "hand": "right"
    },
    {
      "midi": 50,
      "time": 19.487,
      "duration": 0.067,
      "velocity": 1,
      "hand": "left"
    },
    {
      "midi": 62,
      "time": 19.487,
      "duration": 0.067,
      "velocity": 1,
      "hand": "right"
    },
    {
      "midi": 51,
      "time": 19.554,
      "duration": 0.067,
      "velocity": 1,
      "hand": "left"
    },
    {
      "midi": 63,
      "time": 19.554,
      "duration": 0.067,
      "velocity": 1,
      "hand": "right"
    },
    {
      "midi": 53,
      "time": 19.621,
      "duration": 0.067,
      "velocity": 1,
      "hand": "left"
    },
    {
      "midi": 65,
      "time": 19.621,
      "duration": 0.067,
      "velocity": 1,
      "hand": "right"
    },
    {
      "midi": 54,
      "time": 19.754,
      "duration": 0.067,
      "velocity": 1,
      "hand": "left"
    },
    {
      "midi": 66,
      "time": 19.754,
      "duration": 0.067,
      "velocity": 1,
      "hand": "right"
    },
    {
      "midi": 45,
      "time": 19.821,
      "duration": 0.067,
      "velocity": 1,
      "hand": "left"
    },
    {
      "midi": 57,
      "time": 19.821,
      "duration": 0.067,
      "velocity": 1,
      "hand": "left"
    },
    {
      "midi": 49,
      "time": 19.888,
      "duration": 0.067,
      "velocity": 1,
      "hand": "left"
    },
    {
      "midi": 61,
      "time": 19.888,
      "duration": 0.067,
      "velocity": 1,
      "hand": "right"
    },
    {
      "midi": 50,
      "time": 20.022,
      "duration": 0.067,
      "velocity": 1,
      "hand": "left"
    },
    {
      "midi": 62,
      "time": 20.022,
      "duration": 0.067,
      "velocity": 1,
      "hand": "right"
    },
    {
      "midi": 51,
      "time": 20.089,
      "duration": 0.067,
      "velocity": 1,
      "hand": "left"
    },
    {
      "midi": 63,
      "time": 20.089,
      "duration": 0.067,
      "velocity": 1,
      "hand": "right"
    },
    {
      "midi": 53,
      "time": 20.156,
      "duration": 0.067,
      "velocity": 1,
      "hand": "left"
    },
    {
      "midi": 65,
      "time": 20.156,
      "duration": 0.067,
      "velocity": 1,
      "hand": "right"
    },
    {
      "midi": 54,
      "time": 20.29,
      "duration": 0.067,
      "velocity": 1,
      "hand": "left"
    },
    {
      "midi": 66,
      "time": 20.29,
      "duration": 0.067,
      "velocity": 1,
      "hand": "right"
    },
    {
      "midi": 57,
      "time": 20.357,
      "duration": 0.067,
      "velocity": 1,
      "hand": "left"
    },
    {
      "midi": 69,
      "time": 20.357,
      "duration": 0.067,
      "velocity": 1,
      "hand": "right"
    },
    {
      "midi": 54,
      "time": 20.424,
      "duration": 0.067,
      "velocity": 1,
      "hand": "left"
    },
    {
      "midi": 66,
      "time": 20.424,
      "duration": 0.067,
      "velocity": 1,
      "hand": "right"
    },
    {
      "midi": 52,
      "time": 20.558,
      "duration": 0.067,
      "velocity": 1,
      "hand": "left"
    },
    {
      "midi": 64,
      "time": 20.558,
      "duration": 0.067,
      "velocity": 1,
      "hand": "right"
    },
    {
      "midi": 50,
      "time": 20.625,
      "duration": 0.067,
      "velocity": 1,
      "hand": "left"
    },
    {
      "midi": 62,
      "time": 20.625,
      "duration": 0.067,
      "velocity": 1,
      "hand": "right"
    },
    {
      "midi": 52,
      "time": 20.692,
      "duration": 0.067,
      "velocity": 1,
      "hand": "left"
    },
    {
      "midi": 64,
      "time": 20.692,
      "duration": 0.067,
      "velocity": 1,
      "hand": "right"
    },
    {
      "midi": 54,
      "time": 20.826,
      "duration": 0.067,
      "velocity": 1,
      "hand": "left"
    },
    {
      "midi": 66,
      "time": 20.826,
      "duration": 0.067,
      "velocity": 1,
      "hand": "right"
    },
    {
      "midi": 45,
      "time": 20.893,
      "duration": 0.067,
      "velocity": 1,
      "hand": "left"
    },
    {
      "midi": 57,
      "time": 20.893,
      "duration": 0.067,
      "velocity": 1,
      "hand": "left"
    },
    {
      "midi": 49,
      "time": 20.96,
      "duration": 0.067,
      "velocity": 1,
      "hand": "left"
    },
    {
      "midi": 61,
      "time": 20.96,
      "duration": 0.067,
      "velocity": 1,
      "hand": "right"
    },
    {
      "midi": 50,
      "time": 21.094,
      "duration": 0.067,
      "velocity": 1,
      "hand": "left"
    },
    {
      "midi": 62,
      "time": 21.094,
      "duration": 0.067,
      "velocity": 1,
      "hand": "right"
    },
    {
      "midi": 52,
      "time": 21.161,
      "duration": 0.067,
      "velocity": 1,
      "hand": "left"
    },
    {
      "midi": 64,
      "time": 21.161,
      "duration": 0.067,
      "velocity": 1,
      "hand": "right"
    },
    {
      "midi": 53,
      "time": 21.228,
      "duration": 0.067,
      "velocity": 1,
      "hand": "left"
    },
    {
      "midi": 65,
      "time": 21.228,
      "duration": 0.067,
      "velocity": 1,
      "hand": "right"
    },
    {
      "midi": 54,
      "time": 21.362,
      "duration": 0.067,
      "velocity": 1,
      "hand": "left"
    },
    {
      "midi": 66,
      "time": 21.362,
      "duration": 0.067,
      "velocity": 1,
      "hand": "right"
    },
    {
      "midi": 57,
      "time": 21.429,
      "duration": 0.067,
      "velocity": 1,
      "hand": "left"
    },
    {
      "midi": 69,
      "time": 21.429,
      "duration": 0.067,
      "velocity": 1,
      "hand": "right"
    },
    {
      "midi": 56,
      "time": 21.496,
      "duration": 0.067,
      "velocity": 1,
      "hand": "left"
    },
    {
      "midi": 68,
      "time": 21.496,
      "duration": 0.067,
      "velocity": 1,
      "hand": "right"
    },
    {
      "midi": 55,
      "time": 21.629,
      "duration": 0.067,
      "velocity": 1,
      "hand": "left"
    },
    {
      "midi": 67,
      "time": 21.629,
      "duration": 0.067,
      "velocity": 1,
      "hand": "right"
    },
    {
      "midi": 54,
      "time": 21.696,
      "duration": 0.067,
      "velocity": 1,
      "hand": "left"
    },
    {
      "midi": 66,
      "time": 21.696,
      "duration": 0.067,
      "velocity": 1,
      "hand": "right"
    },
    {
      "midi": 51,
      "time": 21.763,
      "duration": 0.067,
      "velocity": 1,
      "hand": "left"
    },
    {
      "midi": 63,
      "time": 21.763,
      "duration": 0.067,
      "velocity": 1,
      "hand": "right"
    },
    {
      "midi": 48,
      "time": 21.897,
      "duration": 0.067,
      "velocity": 1,
      "hand": "left"
    },
    {
      "midi": 60,
      "time": 21.897,
      "duration": 0.067,
      "velocity": 1,
      "hand": "right"
    },
    {
      "midi": 54,
      "time": 21.964,
      "duration": 0.067,
      "velocity": 1,
      "hand": "left"
    },
    {
      "midi": 66,
      "time": 21.964,
      "duration": 0.067,
      "velocity": 1,
      "hand": "right"
    },
    {
      "midi": 51,
      "time": 22.031,
      "duration": 0.067,
      "velocity": 1,
      "hand": "left"
    },
    {
      "midi": 63,
      "time": 22.031,
      "duration": 0.067,
      "velocity": 1,
      "hand": "right"
    },
    {
      "midi": 48,
      "time": 22.165,
      "duration": 0.067,
      "velocity": 1,
      "hand": "left"
    },
    {
      "midi": 60,
      "time": 22.165,
      "duration": 0.067,
      "velocity": 1,
      "hand": "right"
    },
    {
      "midi": 46,
      "time": 22.232,
      "duration": 0.067,
      "velocity": 1,
      "hand": "left"
    },
    {
      "midi": 58,
      "time": 22.232,
      "duration": 0.067,
      "velocity": 1,
      "hand": "left"
    },
    {
      "midi": 45,
      "time": 22.299,
      "duration": 0.067,
      "velocity": 1,
      "hand": "left"
    },
    {
      "midi": 57,
      "time": 22.299,
      "duration": 0.067,
      "velocity": 1,
      "hand": "left"
    },
    {
      "midi": 44,
      "time": 22.433,
      "duration": 0.067,
      "velocity": 1,
      "hand": "left"
    },
    {
      "midi": 56,
      "time": 22.433,
      "duration": 0.067,
      "velocity": 1,
      "hand": "left"
    },
    {
      "midi": 43,
      "time": 22.5,
      "duration": 0.067,
      "velocity": 1,
      "hand": "left"
    },
    {
      "midi": 55,
      "time": 22.5,
      "duration": 0.067,
      "velocity": 1,
      "hand": "left"
    },
    {
      "midi": 44,
      "time": 22.567,
      "duration": 0.067,
      "velocity": 1,
      "hand": "left"
    },
    {
      "midi": 56,
      "time": 22.567,
      "duration": 0.067,
      "velocity": 1,
      "hand": "left"
    },
    {
      "midi": 45,
      "time": 22.701,
      "duration": 0.067,
      "velocity": 1,
      "hand": "left"
    },
    {
      "midi": 57,
      "time": 22.701,
      "duration": 0.067,
      "velocity": 1,
      "hand": "left"
    },
    {
      "midi": 41,
      "time": 22.768,
      "duration": 0.067,
      "velocity": 1,
      "hand": "left"
    },
    {
      "midi": 53,
      "time": 22.768,
      "duration": 0.067,
      "velocity": 1,
      "hand": "left"
    },
    {
      "midi": 42,
      "time": 22.835,
      "duration": 0.067,
      "velocity": 1,
      "hand": "left"
    },
    {
      "midi": 54,
      "time": 22.835,
      "duration": 0.067,
      "velocity": 1,
      "hand": "left"
    },
    {
      "midi": 44,
      "time": 22.969,
      "duration": 0.067,
      "velocity": 1,
      "hand": "left"
    },
    {
      "midi": 56,
      "time": 22.969,
      "duration": 0.067,
      "velocity": 1,
      "hand": "left"
    },
    {
      "midi": 40,
      "time": 23.036,
      "duration": 0.067,
      "velocity": 1,
      "hand": "left"
    },
    {
      "midi": 52,
      "time": 23.036,
      "duration": 0.067,
      "velocity": 1,
      "hand": "left"
    },
    {
      "midi": 41,
      "time": 23.103,
      "duration": 0.067,
      "velocity": 1,
      "hand": "left"
    },
    {
      "midi": 53,
      "time": 23.103,
      "duration": 0.067,
      "velocity": 1,
      "hand": "left"
    },
    {
      "midi": 42,
      "time": 23.237,
      "duration": 0.067,
      "velocity": 1,
      "hand": "left"
    },
    {
      "midi": 54,
      "time": 23.237,
      "duration": 0.067,
      "velocity": 1,
      "hand": "left"
    },
    {
      "midi": 38,
      "time": 23.304,
      "duration": 0.067,
      "velocity": 1,
      "hand": "left"
    },
    {
      "midi": 50,
      "time": 23.304,
      "duration": 0.067,
      "velocity": 1,
      "hand": "left"
    },
    {
      "midi": 40,
      "time": 23.371,
      "duration": 0.067,
      "velocity": 1,
      "hand": "left"
    },
    {
      "midi": 52,
      "time": 23.371,
      "duration": 0.067,
      "velocity": 1,
      "hand": "left"
    },
    {
      "midi": 41,
      "time": 23.504,
      "duration": 0.067,
      "velocity": 1,
      "hand": "left"
    },
    {
      "midi": 53,
      "time": 23.504,
      "duration": 0.067,
      "velocity": 1,
      "hand": "left"
    },
    {
      "midi": 31,
      "time": 23.571,
      "duration": 0.067,
      "velocity": 1,
      "hand": "left"
    },
    {
      "midi": 43,
      "time": 23.571,
      "duration": 0.067,
      "velocity": 1,
      "hand": "left"
    },
    {
      "midi": 32,
      "time": 23.638,
      "duration": 0.067,
      "velocity": 1,
      "hand": "left"
    },
    {
      "midi": 44,
      "time": 23.638,
      "duration": 0.067,
      "velocity": 1,
      "hand": "left"
    },
    {
      "midi": 34,
      "time": 23.772,
      "duration": 0.067,
      "velocity": 1,
      "hand": "left"
    },
    {
      "midi": 46,
      "time": 23.772,
      "duration": 0.067,
      "velocity": 1,
      "hand": "left"
    },
    {
      "midi": 36,
      "time": 23.839,
      "duration": 0.067,
      "velocity": 1,
      "hand": "left"
    },
    {
      "midi": 48,
      "time": 23.839,
      "duration": 0.067,
      "velocity": 1,
      "hand": "left"
    },
    {
      "midi": 37,
      "time": 23.906,
      "duration": 0.067,
      "velocity": 1,
      "hand": "left"
    },
    {
      "midi": 49,
      "time": 23.906,
      "duration": 0.067,
      "velocity": 1,
      "hand": "left"
    },
    {
      "midi": 39,
      "time": 24.04,
      "duration": 0.067,
      "velocity": 1,
      "hand": "left"
    },
    {
      "midi": 51,
      "time": 24.04,
      "duration": 0.067,
      "velocity": 1,
      "hand": "left"
    },
    {
      "midi": 41,
      "time": 24.107,
      "duration": 0.067,
      "velocity": 1,
      "hand": "left"
    },
    {
      "midi": 53,
      "time": 24.107,
      "duration": 0.067,
      "velocity": 1,
      "hand": "left"
    },
    {
      "midi": 42,
      "time": 24.174,
      "duration": 0.067,
      "velocity": 1,
      "hand": "left"
    },
    {
      "midi": 54,
      "time": 24.174,
      "duration": 0.067,
      "velocity": 1,
      "hand": "left"
    },
    {
      "midi": 43,
      "time": 24.308,
      "duration": 0.067,
      "velocity": 1,
      "hand": "left"
    },
    {
      "midi": 55,
      "time": 24.308,
      "duration": 0.067,
      "velocity": 1,
      "hand": "left"
    },
    {
      "midi": 44,
      "time": 24.375,
      "duration": 0.067,
      "velocity": 1,
      "hand": "left"
    },
    {
      "midi": 56,
      "time": 24.375,
      "duration": 0.067,
      "velocity": 1,
      "hand": "left"
    },
    {
      "midi": 41,
      "time": 24.442,
      "duration": 0.067,
      "velocity": 1,
      "hand": "left"
    },
    {
      "midi": 53,
      "time": 24.442,
      "duration": 0.067,
      "velocity": 1,
      "hand": "left"
    },
    {
      "midi": 46,
      "time": 24.576,
      "duration": 0.067,
      "velocity": 1,
      "hand": "left"
    },
    {
      "midi": 58,
      "time": 24.576,
      "duration": 0.067,
      "velocity": 1,
      "hand": "left"
    },
    {
      "midi": 44,
      "time": 24.643,
      "duration": 0.067,
      "velocity": 1,
      "hand": "left"
    },
    {
      "midi": 56,
      "time": 24.643,
      "duration": 0.067,
      "velocity": 1,
      "hand": "left"
    },
    {
      "midi": 53,
      "time": 24.71,
      "duration": 0.067,
      "velocity": 1,
      "hand": "left"
    },
    {
      "midi": 65,
      "time": 24.71,
      "duration": 0.067,
      "velocity": 1,
      "hand": "right"
    },
    {
      "midi": 51,
      "time": 24.844,
      "duration": 0.067,
      "velocity": 1,
      "hand": "left"
    },
    {
      "midi": 63,
      "time": 24.844,
      "duration": 0.067,
      "velocity": 1,
      "hand": "right"
    },
    {
      "midi": 49,
      "time": 24.911,
      "duration": 0.067,
      "velocity": 1,
      "hand": "left"
    },
    {
      "midi": 61,
      "time": 24.911,
      "duration": 0.067,
      "velocity": 1,
      "hand": "right"
    },
    {
      "midi": 48,
      "time": 24.978,
      "duration": 0.067,
      "velocity": 1,
      "hand": "left"
    },
    {
      "midi": 60,
      "time": 24.978,
      "duration": 0.067,
      "velocity": 1,
      "hand": "right"
    },
    {
      "midi": 46,
      "time": 25.112,
      "duration": 0.067,
      "velocity": 1,
      "hand": "left"
    },
    {
      "midi": 58,
      "time": 25.112,
      "duration": 0.067,
      "velocity": 1,
      "hand": "left"
    },
    {
      "midi": 44,
      "time": 25.179,
      "duration": 0.067,
      "velocity": 1,
      "hand": "left"
    },
    {
      "midi": 56,
      "time": 25.179,
      "duration": 0.067,
      "velocity": 1,
      "hand": "left"
    },
    {
      "midi": 41,
      "time": 25.246,
      "duration": 0.067,
      "velocity": 1,
      "hand": "left"
    },
    {
      "midi": 53,
      "time": 25.246,
      "duration": 0.067,
      "velocity": 1,
      "hand": "left"
    },
    {
      "midi": 42,
      "time": 25.379,
      "duration": 0.067,
      "velocity": 1,
      "hand": "left"
    },
    {
      "midi": 54,
      "time": 25.379,
      "duration": 0.067,
      "velocity": 1,
      "hand": "left"
    },
    {
      "midi": 44,
      "time": 25.446,
      "duration": 0.067,
      "velocity": 1,
      "hand": "left"
    },
    {
      "midi": 56,
      "time": 25.446,
      "duration": 0.067,
      "velocity": 1,
      "hand": "left"
    },
    {
      "midi": 41,
      "time": 25.513,
      "duration": 0.067,
      "velocity": 1,
      "hand": "left"
    },
    {
      "midi": 53,
      "time": 25.513,
      "duration": 0.067,
      "velocity": 1,
      "hand": "left"
    },
    {
      "midi": 46,
      "time": 25.647,
      "duration": 0.067,
      "velocity": 1,
      "hand": "left"
    },
    {
      "midi": 58,
      "time": 25.647,
      "duration": 0.067,
      "velocity": 1,
      "hand": "left"
    },
    {
      "midi": 44,
      "time": 25.714,
      "duration": 0.067,
      "velocity": 1,
      "hand": "left"
    },
    {
      "midi": 56,
      "time": 25.714,
      "duration": 0.067,
      "velocity": 1,
      "hand": "left"
    },
    {
      "midi": 39,
      "time": 25.781,
      "duration": 0.067,
      "velocity": 1,
      "hand": "left"
    },
    {
      "midi": 51,
      "time": 25.781,
      "duration": 0.067,
      "velocity": 1,
      "hand": "left"
    },
    {
      "midi": 41,
      "time": 25.915,
      "duration": 0.067,
      "velocity": 1,
      "hand": "left"
    },
    {
      "midi": 53,
      "time": 25.915,
      "duration": 0.067,
      "velocity": 1,
      "hand": "left"
    },
    {
      "midi": 42,
      "time": 25.982,
      "duration": 0.067,
      "velocity": 1,
      "hand": "left"
    },
    {
      "midi": 54,
      "time": 25.982,
      "duration": 0.067,
      "velocity": 1,
      "hand": "left"
    },
    {
      "midi": 39,
      "time": 26.049,
      "duration": 0.067,
      "velocity": 1,
      "hand": "left"
    },
    {
      "midi": 51,
      "time": 26.049,
      "duration": 0.067,
      "velocity": 1,
      "hand": "left"
    },
    {
      "midi": 46,
      "time": 26.183,
      "duration": 0.067,
      "velocity": 1,
      "hand": "left"
    },
    {
      "midi": 58,
      "time": 26.183,
      "duration": 0.067,
      "velocity": 1,
      "hand": "left"
    },
    {
      "midi": 44,
      "time": 26.25,
      "duration": 0.067,
      "velocity": 1,
      "hand": "left"
    },
    {
      "midi": 56,
      "time": 26.25,
      "duration": 0.067,
      "velocity": 1,
      "hand": "left"
    },
    {
      "midi": 37,
      "time": 26.317,
      "duration": 0.067,
      "velocity": 1,
      "hand": "left"
    },
    {
      "midi": 49,
      "time": 26.317,
      "duration": 0.067,
      "velocity": 1,
      "hand": "left"
    },
    {
      "midi": 39,
      "time": 26.451,
      "duration": 0.067,
      "velocity": 1,
      "hand": "left"
    },
    {
      "midi": 51,
      "time": 26.451,
      "duration": 0.067,
      "velocity": 1,
      "hand": "left"
    },
    {
      "midi": 41,
      "time": 26.518,
      "duration": 0.067,
      "velocity": 1,
      "hand": "left"
    },
    {
      "midi": 53,
      "time": 26.518,
      "duration": 0.067,
      "velocity": 1,
      "hand": "left"
    },
    {
      "midi": 37,
      "time": 26.585,
      "duration": 0.067,
      "velocity": 1,
      "hand": "left"
    },
    {
      "midi": 49,
      "time": 26.585,
      "duration": 0.067,
      "velocity": 1,
      "hand": "left"
    },
    {
      "midi": 46,
      "time": 26.719,
      "duration": 0.067,
      "velocity": 1,
      "hand": "left"
    },
    {
      "midi": 58,
      "time": 26.719,
      "duration": 0.067,
      "velocity": 1,
      "hand": "left"
    },
    {
      "midi": 44,
      "time": 26.786,
      "duration": 0.067,
      "velocity": 1,
      "hand": "left"
    },
    {
      "midi": 56,
      "time": 26.786,
      "duration": 0.067,
      "velocity": 1,
      "hand": "left"
    },
    {
      "midi": 36,
      "time": 26.853,
      "duration": 0.067,
      "velocity": 1,
      "hand": "left"
    },
    {
      "midi": 48,
      "time": 26.853,
      "duration": 0.067,
      "velocity": 1,
      "hand": "left"
    },
    {
      "midi": 37,
      "time": 26.987,
      "duration": 0.067,
      "velocity": 1,
      "hand": "left"
    },
    {
      "midi": 49,
      "time": 26.987,
      "duration": 0.067,
      "velocity": 1,
      "hand": "left"
    },
    {
      "midi": 39,
      "time": 27.054,
      "duration": 0.067,
      "velocity": 1,
      "hand": "left"
    },
    {
      "midi": 51,
      "time": 27.054,
      "duration": 0.067,
      "velocity": 1,
      "hand": "left"
    },
    {
      "midi": 36,
      "time": 27.121,
      "duration": 0.067,
      "velocity": 1,
      "hand": "left"
    },
    {
      "midi": 48,
      "time": 27.121,
      "duration": 0.067,
      "velocity": 1,
      "hand": "left"
    },
    {
      "midi": 41,
      "time": 27.254,
      "duration": 0.067,
      "velocity": 1,
      "hand": "left"
    },
    {
      "midi": 53,
      "time": 27.254,
      "duration": 0.067,
      "velocity": 1,
      "hand": "left"
    },
    {
      "midi": 39,
      "time": 27.321,
      "duration": 0.067,
      "velocity": 1,
      "hand": "left"
    },
    {
      "midi": 51,
      "time": 27.321,
      "duration": 0.067,
      "velocity": 1,
      "hand": "left"
    },
    {
      "midi": 34,
      "time": 27.388,
      "duration": 0.067,
      "velocity": 1,
      "hand": "left"
    },
    {
      "midi": 46,
      "time": 27.388,
      "duration": 0.067,
      "velocity": 1,
      "hand": "left"
    },
    {
      "midi": 41,
      "time": 27.522,
      "duration": 0.067,
      "velocity": 1,
      "hand": "left"
    },
    {
      "midi": 53,
      "time": 27.522,
      "duration": 0.067,
      "velocity": 1,
      "hand": "left"
    },
    {
      "midi": 39,
      "time": 27.589,
      "duration": 0.067,
      "velocity": 1,
      "hand": "left"
    },
    {
      "midi": 51,
      "time": 27.589,
      "duration": 0.067,
      "velocity": 1,
      "hand": "left"
    },
    {
      "midi": 32,
      "time": 27.656,
      "duration": 0.067,
      "velocity": 1,
      "hand": "left"
    },
    {
      "midi": 44,
      "time": 27.656,
      "duration": 0.067,
      "velocity": 1,
      "hand": "left"
    },
    {
      "midi": 34,
      "time": 27.79,
      "duration": 0.067,
      "velocity": 1,
      "hand": "left"
    },
    {
      "midi": 46,
      "time": 27.79,
      "duration": 0.067,
      "velocity": 1,
      "hand": "left"
    },
    {
      "midi": 32,
      "time": 27.857,
      "duration": 0.067,
      "velocity": 1,
      "hand": "left"
    },
    {
      "midi": 44,
      "time": 27.857,
      "duration": 0.067,
      "velocity": 1,
      "hand": "left"
    },
    {
      "midi": 37,
      "time": 27.924,
      "duration": 0.067,
      "velocity": 1,
      "hand": "left"
    },
    {
      "midi": 49,
      "time": 27.924,
      "duration": 0.067,
      "velocity": 1,
      "hand": "left"
    },
    {
      "midi": 39,
      "time": 28.058,
      "duration": 0.067,
      "velocity": 1,
      "hand": "left"
    },
    {
      "midi": 51,
      "time": 28.058,
      "duration": 0.067,
      "velocity": 1,
      "hand": "left"
    },
    {
      "midi": 41,
      "time": 28.125,
      "duration": 0.067,
      "velocity": 1,
      "hand": "left"
    },
    {
      "midi": 53,
      "time": 28.125,
      "duration": 0.067,
      "velocity": 1,
      "hand": "left"
    },
    {
      "midi": 42,
      "time": 28.192,
      "duration": 0.067,
      "velocity": 1,
      "hand": "left"
    },
    {
      "midi": 54,
      "time": 28.192,
      "duration": 0.067,
      "velocity": 1,
      "hand": "left"
    },
    {
      "midi": 44,
      "time": 28.326,
      "duration": 0.067,
      "velocity": 1,
      "hand": "left"
    },
    {
      "midi": 56,
      "time": 28.326,
      "duration": 0.067,
      "velocity": 1,
      "hand": "left"
    },
    {
      "midi": 46,
      "time": 28.393,
      "duration": 0.067,
      "velocity": 1,
      "hand": "left"
    },
    {
      "midi": 58,
      "time": 28.393,
      "duration": 0.067,
      "velocity": 1,
      "hand": "left"
    },
    {
      "midi": 48,
      "time": 28.46,
      "duration": 0.067,
      "velocity": 1,
      "hand": "left"
    },
    {
      "midi": 60,
      "time": 28.46,
      "duration": 0.067,
      "velocity": 1,
      "hand": "right"
    },
    {
      "midi": 49,
      "time": 28.594,
      "duration": 0.067,
      "velocity": 1,
      "hand": "left"
    },
    {
      "midi": 61,
      "time": 28.594,
      "duration": 0.067,
      "velocity": 1,
      "hand": "right"
    },
    {
      "midi": 51,
      "time": 28.661,
      "duration": 0.067,
      "velocity": 1,
      "hand": "left"
    },
    {
      "midi": 63,
      "time": 28.661,
      "duration": 0.067,
      "velocity": 1,
      "hand": "right"
    },
    {
      "midi": 53,
      "time": 28.728,
      "duration": 0.067,
      "velocity": 1,
      "hand": "left"
    },
    {
      "midi": 65,
      "time": 28.728,
      "duration": 0.067,
      "velocity": 1,
      "hand": "right"
    },
    {
      "midi": 54,
      "time": 28.862,
      "duration": 0.067,
      "velocity": 1,
      "hand": "left"
    },
    {
      "midi": 66,
      "time": 28.862,
      "duration": 0.067,
      "velocity": 1,
      "hand": "right"
    },
    {
      "midi": 56,
      "time": 28.929,
      "duration": 0.067,
      "velocity": 1,
      "hand": "left"
    },
    {
      "midi": 68,
      "time": 28.929,
      "duration": 0.067,
      "velocity": 1,
      "hand": "right"
    },
    {
      "midi": 65,
      "time": 28.996,
      "duration": 0.067,
      "velocity": 1,
      "hand": "right"
    },
    {
      "midi": 77,
      "time": 28.996,
      "duration": 0.067,
      "velocity": 1,
      "hand": "right"
    },
    {
      "midi": 63,
      "time": 29.129,
      "duration": 0.067,
      "velocity": 1,
      "hand": "right"
    },
    {
      "midi": 75,
      "time": 29.129,
      "duration": 0.067,
      "velocity": 1,
      "hand": "right"
    },
    {
      "midi": 61,
      "time": 29.196,
      "duration": 0.067,
      "velocity": 1,
      "hand": "right"
    },
    {
      "midi": 73,
      "time": 29.196,
      "duration": 0.067,
      "velocity": 1,
      "hand": "right"
    },
    {
      "midi": 60,
      "time": 29.263,
      "duration": 0.067,
      "velocity": 1,
      "hand": "right"
    },
    {
      "midi": 72,
      "time": 29.263,
      "duration": 0.067,
      "velocity": 1,
      "hand": "right"
    },
    {
      "midi": 58,
      "time": 29.397,
      "duration": 0.067,
      "velocity": 1,
      "hand": "left"
    },
    {
      "midi": 70,
      "time": 29.397,
      "duration": 0.067,
      "velocity": 1,
      "hand": "right"
    },
    {
      "midi": 56,
      "time": 29.464,
      "duration": 0.067,
      "velocity": 1,
      "hand": "left"
    },
    {
      "midi": 68,
      "time": 29.464,
      "duration": 0.067,
      "velocity": 1,
      "hand": "right"
    },
    {
      "midi": 53,
      "time": 29.531,
      "duration": 0.067,
      "velocity": 1,
      "hand": "left"
    },
    {
      "midi": 65,
      "time": 29.531,
      "duration": 0.067,
      "velocity": 1,
      "hand": "right"
    },
    {
      "midi": 54,
      "time": 29.665,
      "duration": 0.067,
      "velocity": 1,
      "hand": "left"
    },
    {
      "midi": 66,
      "time": 29.665,
      "duration": 0.067,
      "velocity": 1,
      "hand": "right"
    },
    {
      "midi": 56,
      "time": 29.732,
      "duration": 0.067,
      "velocity": 1,
      "hand": "left"
    },
    {
      "midi": 68,
      "time": 29.732,
      "duration": 0.067,
      "velocity": 1,
      "hand": "right"
    },
    {
      "midi": 53,
      "time": 29.799,
      "duration": 0.067,
      "velocity": 1,
      "hand": "left"
    },
    {
      "midi": 65,
      "time": 29.799,
      "duration": 0.067,
      "velocity": 1,
      "hand": "right"
    },
    {
      "midi": 58,
      "time": 29.933,
      "duration": 0.067,
      "velocity": 1,
      "hand": "left"
    },
    {
      "midi": 70,
      "time": 29.933,
      "duration": 0.067,
      "velocity": 1,
      "hand": "right"
    },
    {
      "midi": 56,
      "time": 30,
      "duration": 0.067,
      "velocity": 1,
      "hand": "left"
    },
    {
      "midi": 68,
      "time": 30,
      "duration": 0.067,
      "velocity": 1,
      "hand": "right"
    },
    {
      "midi": 51,
      "time": 30.067,
      "duration": 0.067,
      "velocity": 1,
      "hand": "left"
    },
    {
      "midi": 63,
      "time": 30.067,
      "duration": 0.067,
      "velocity": 1,
      "hand": "right"
    },
    {
      "midi": 53,
      "time": 30.201,
      "duration": 0.067,
      "velocity": 1,
      "hand": "left"
    },
    {
      "midi": 65,
      "time": 30.201,
      "duration": 0.067,
      "velocity": 1,
      "hand": "right"
    },
    {
      "midi": 54,
      "time": 30.268,
      "duration": 0.067,
      "velocity": 1,
      "hand": "left"
    },
    {
      "midi": 66,
      "time": 30.268,
      "duration": 0.067,
      "velocity": 1,
      "hand": "right"
    },
    {
      "midi": 51,
      "time": 30.335,
      "duration": 0.067,
      "velocity": 1,
      "hand": "left"
    },
    {
      "midi": 63,
      "time": 30.335,
      "duration": 0.067,
      "velocity": 1,
      "hand": "right"
    },
    {
      "midi": 58,
      "time": 30.469,
      "duration": 0.067,
      "velocity": 1,
      "hand": "left"
    },
    {
      "midi": 70,
      "time": 30.469,
      "duration": 0.067,
      "velocity": 1,
      "hand": "right"
    },
    {
      "midi": 56,
      "time": 30.536,
      "duration": 0.067,
      "velocity": 1,
      "hand": "left"
    },
    {
      "midi": 68,
      "time": 30.536,
      "duration": 0.067,
      "velocity": 1,
      "hand": "right"
    },
    {
      "midi": 49,
      "time": 30.603,
      "duration": 0.067,
      "velocity": 1,
      "hand": "left"
    },
    {
      "midi": 61,
      "time": 30.603,
      "duration": 0.067,
      "velocity": 1,
      "hand": "right"
    },
    {
      "midi": 51,
      "time": 30.737,
      "duration": 0.067,
      "velocity": 1,
      "hand": "left"
    },
    {
      "midi": 63,
      "time": 30.737,
      "duration": 0.067,
      "velocity": 1,
      "hand": "right"
    },
    {
      "midi": 53,
      "time": 30.804,
      "duration": 0.067,
      "velocity": 1,
      "hand": "left"
    },
    {
      "midi": 65,
      "time": 30.804,
      "duration": 0.067,
      "velocity": 1,
      "hand": "right"
    },
    {
      "midi": 49,
      "time": 30.871,
      "duration": 0.067,
      "velocity": 1,
      "hand": "left"
    },
    {
      "midi": 61,
      "time": 30.871,
      "duration": 0.067,
      "velocity": 1,
      "hand": "right"
    },
    {
      "midi": 58,
      "time": 31.004,
      "duration": 0.067,
      "velocity": 1,
      "hand": "left"
    },
    {
      "midi": 70,
      "time": 31.004,
      "duration": 0.067,
      "velocity": 1,
      "hand": "right"
    },
    {
      "midi": 56,
      "time": 31.071,
      "duration": 0.067,
      "velocity": 1,
      "hand": "left"
    },
    {
      "midi": 68,
      "time": 31.071,
      "duration": 0.067,
      "velocity": 1,
      "hand": "right"
    },
    {
      "midi": 48,
      "time": 31.138,
      "duration": 0.067,
      "velocity": 1,
      "hand": "left"
    },
    {
      "midi": 60,
      "time": 31.138,
      "duration": 0.067,
      "velocity": 1,
      "hand": "right"
    },
    {
      "midi": 49,
      "time": 31.272,
      "duration": 0.067,
      "velocity": 1,
      "hand": "left"
    },
    {
      "midi": 61,
      "time": 31.272,
      "duration": 0.067,
      "velocity": 1,
      "hand": "right"
    },
    {
      "midi": 51,
      "time": 31.339,
      "duration": 0.067,
      "velocity": 1,
      "hand": "left"
    },
    {
      "midi": 63,
      "time": 31.339,
      "duration": 0.067,
      "velocity": 1,
      "hand": "right"
    },
    {
      "midi": 48,
      "time": 31.406,
      "duration": 0.067,
      "velocity": 1,
      "hand": "left"
    },
    {
      "midi": 60,
      "time": 31.406,
      "duration": 0.067,
      "velocity": 1,
      "hand": "right"
    },
    {
      "midi": 53,
      "time": 31.54,
      "duration": 0.067,
      "velocity": 1,
      "hand": "left"
    },
    {
      "midi": 65,
      "time": 31.54,
      "duration": 0.067,
      "velocity": 1,
      "hand": "right"
    },
    {
      "midi": 51,
      "time": 31.607,
      "duration": 0.067,
      "velocity": 1,
      "hand": "left"
    },
    {
      "midi": 63,
      "time": 31.607,
      "duration": 0.067,
      "velocity": 1,
      "hand": "right"
    },
    {
      "midi": 46,
      "time": 31.674,
      "duration": 0.067,
      "velocity": 1,
      "hand": "left"
    },
    {
      "midi": 58,
      "time": 31.674,
      "duration": 0.067,
      "velocity": 1,
      "hand": "left"
    },
    {
      "midi": 53,
      "time": 31.808,
      "duration": 0.067,
      "velocity": 1,
      "hand": "left"
    },
    {
      "midi": 65,
      "time": 31.808,
      "duration": 0.067,
      "velocity": 1,
      "hand": "right"
    },
    {
      "midi": 51,
      "time": 31.875,
      "duration": 0.067,
      "velocity": 1,
      "hand": "left"
    },
    {
      "midi": 63,
      "time": 31.875,
      "duration": 0.067,
      "velocity": 1,
      "hand": "right"
    },
    {
      "midi": 44,
      "time": 31.942,
      "duration": 0.067,
      "velocity": 1,
      "hand": "left"
    },
    {
      "midi": 56,
      "time": 31.942,
      "duration": 0.067,
      "velocity": 1,
      "hand": "left"
    },
    {
      "midi": 53,
      "time": 32.076,
      "duration": 0.067,
      "velocity": 1,
      "hand": "left"
    },
    {
      "midi": 65,
      "time": 32.076,
      "duration": 0.067,
      "velocity": 1,
      "hand": "right"
    },
    {
      "midi": 54,
      "time": 32.143,
      "duration": 0.067,
      "velocity": 1,
      "hand": "left"
    },
    {
      "midi": 66,
      "time": 32.143,
      "duration": 0.067,
      "velocity": 1,
      "hand": "right"
    },
    {
      "midi": 53,
      "time": 32.21,
      "duration": 0.067,
      "velocity": 1,
      "hand": "left"
    },
    {
      "midi": 65,
      "time": 32.21,
      "duration": 0.067,
      "velocity": 1,
      "hand": "right"
    },
    {
      "midi": 51,
      "time": 32.344,
      "duration": 0.067,
      "velocity": 1,
      "hand": "left"
    },
    {
      "midi": 63,
      "time": 32.344,
      "duration": 0.067,
      "velocity": 1,
      "hand": "right"
    },
    {
      "midi": 49,
      "time": 32.411,
      "duration": 0.067,
      "velocity": 1,
      "hand": "left"
    },
    {
      "midi": 61,
      "time": 32.411,
      "duration": 0.067,
      "velocity": 1,
      "hand": "right"
    },
    {
      "midi": 48,
      "time": 32.478,
      "duration": 0.067,
      "velocity": 1,
      "hand": "left"
    },
    {
      "midi": 60,
      "time": 32.478,
      "duration": 0.067,
      "velocity": 1,
      "hand": "right"
    },
    {
      "midi": 46,
      "time": 32.612,
      "duration": 0.067,
      "velocity": 1,
      "hand": "left"
    },
    {
      "midi": 58,
      "time": 32.612,
      "duration": 0.067,
      "velocity": 1,
      "hand": "left"
    },
    {
      "midi": 45,
      "time": 32.679,
      "duration": 0.067,
      "velocity": 1,
      "hand": "left"
    },
    {
      "midi": 57,
      "time": 32.679,
      "duration": 0.067,
      "velocity": 1,
      "hand": "left"
    },
    {
      "midi": 53,
      "time": 32.746,
      "duration": 0.067,
      "velocity": 1,
      "hand": "left"
    },
    {
      "midi": 65,
      "time": 32.746,
      "duration": 0.067,
      "velocity": 1,
      "hand": "right"
    },
    {
      "midi": 48,
      "time": 32.879,
      "duration": 0.067,
      "velocity": 1,
      "hand": "left"
    },
    {
      "midi": 60,
      "time": 32.879,
      "duration": 0.067,
      "velocity": 1,
      "hand": "right"
    },
    {
      "midi": 51,
      "time": 32.946,
      "duration": 0.067,
      "velocity": 1,
      "hand": "left"
    },
    {
      "midi": 63,
      "time": 32.946,
      "duration": 0.067,
      "velocity": 1,
      "hand": "right"
    },
    {
      "midi": 49,
      "time": 33.013,
      "duration": 0.067,
      "velocity": 1,
      "hand": "left"
    },
    {
      "midi": 61,
      "time": 33.013,
      "duration": 0.067,
      "velocity": 1,
      "hand": "right"
    },
    {
      "midi": 46,
      "time": 33.147,
      "duration": 0.067,
      "velocity": 1,
      "hand": "left"
    },
    {
      "midi": 58,
      "time": 33.147,
      "duration": 0.067,
      "velocity": 1,
      "hand": "left"
    },
    {
      "midi": 45,
      "time": 33.214,
      "duration": 0.067,
      "velocity": 1,
      "hand": "left"
    },
    {
      "midi": 57,
      "time": 33.214,
      "duration": 0.067,
      "velocity": 1,
      "hand": "left"
    },
    {
      "midi": 53,
      "time": 33.281,
      "duration": 0.067,
      "velocity": 1,
      "hand": "left"
    },
    {
      "midi": 65,
      "time": 33.281,
      "duration": 0.067,
      "velocity": 1,
      "hand": "right"
    },
    {
      "midi": 48,
      "time": 33.415,
      "duration": 0.067,
      "velocity": 1,
      "hand": "left"
    },
    {
      "midi": 60,
      "time": 33.415,
      "duration": 0.067,
      "velocity": 1,
      "hand": "right"
    },
    {
      "midi": 51,
      "time": 33.482,
      "duration": 0.067,
      "velocity": 1,
      "hand": "left"
    },
    {
      "midi": 63,
      "time": 33.482,
      "duration": 0.067,
      "velocity": 1,
      "hand": "right"
    },
    {
      "midi": 49,
      "time": 33.549,
      "duration": 0.067,
      "velocity": 1,
      "hand": "left"
    },
    {
      "midi": 61,
      "time": 33.549,
      "duration": 0.067,
      "velocity": 1,
      "hand": "right"
    },
    {
      "midi": 46,
      "time": 33.683,
      "duration": 0.067,
      "velocity": 1,
      "hand": "left"
    },
    {
      "midi": 58,
      "time": 33.683,
      "duration": 0.067,
      "velocity": 1,
      "hand": "left"
    },
    {
      "midi": 45,
      "time": 33.75,
      "duration": 0.067,
      "velocity": 1,
      "hand": "left"
    },
    {
      "midi": 57,
      "time": 33.75,
      "duration": 0.067,
      "velocity": 1,
      "hand": "left"
    },
    {
      "midi": 53,
      "time": 33.817,
      "duration": 0.067,
      "velocity": 1,
      "hand": "left"
    },
    {
      "midi": 65,
      "time": 33.817,
      "duration": 0.067,
      "velocity": 1,
      "hand": "right"
    },
    {
      "midi": 48,
      "time": 33.951,
      "duration": 0.067,
      "velocity": 1,
      "hand": "left"
    },
    {
      "midi": 60,
      "time": 33.951,
      "duration": 0.067,
      "velocity": 1,
      "hand": "right"
    },
    {
      "midi": 51,
      "time": 34.018,
      "duration": 0.067,
      "velocity": 1,
      "hand": "left"
    },
    {
      "midi": 63,
      "time": 34.018,
      "duration": 0.067,
      "velocity": 1,
      "hand": "right"
    },
    {
      "midi": 49,
      "time": 34.085,
      "duration": 0.067,
      "velocity": 1,
      "hand": "left"
    },
    {
      "midi": 61,
      "time": 34.085,
      "duration": 0.067,
      "velocity": 1,
      "hand": "right"
    },
    {
      "midi": 46,
      "time": 34.219,
      "duration": 0.067,
      "velocity": 1,
      "hand": "left"
    },
    {
      "midi": 58,
      "time": 34.219,
      "duration": 0.067,
      "velocity": 1,
      "hand": "left"
    },
    {
      "midi": 56,
      "time": 34.286,
      "duration": 0.067,
      "velocity": 1,
      "hand": "left"
    },
    {
      "midi": 68,
      "time": 34.286,
      "duration": 0.067,
      "velocity": 1,
      "hand": "right"
    },
    {
      "midi": 55,
      "time": 34.353,
      "duration": 0.067,
      "velocity": 1,
      "hand": "left"
    },
    {
      "midi": 67,
      "time": 34.353,
      "duration": 0.067,
      "velocity": 1,
      "hand": "right"
    },
    {
      "midi": 53,
      "time": 34.487,
      "duration": 0.067,
      "velocity": 1,
      "hand": "left"
    },
    {
      "midi": 65,
      "time": 34.487,
      "duration": 0.067,
      "velocity": 1,
      "hand": "right"
    },
    {
      "midi": 51,
      "time": 34.554,
      "duration": 0.067,
      "velocity": 1,
      "hand": "left"
    },
    {
      "midi": 63,
      "time": 34.554,
      "duration": 0.067,
      "velocity": 1,
      "hand": "right"
    },
    {
      "midi": 50,
      "time": 34.621,
      "duration": 0.067,
      "velocity": 1,
      "hand": "left"
    },
    {
      "midi": 62,
      "time": 34.621,
      "duration": 0.067,
      "velocity": 1,
      "hand": "right"
    },
    {
      "midi": 48,
      "time": 34.754,
      "duration": 0.067,
      "velocity": 1,
      "hand": "left"
    },
    {
      "midi": 60,
      "time": 34.754,
      "duration": 0.067,
      "velocity": 1,
      "hand": "right"
    },
    {
      "midi": 47,
      "time": 34.821,
      "duration": 0.067,
      "velocity": 1,
      "hand": "left"
    },
    {
      "midi": 59,
      "time": 34.821,
      "duration": 0.067,
      "velocity": 1,
      "hand": "left"
    },
    {
      "midi": 55,
      "time": 34.888,
      "duration": 0.067,
      "velocity": 1,
      "hand": "left"
    },
    {
      "midi": 67,
      "time": 34.888,
      "duration": 0.067,
      "velocity": 1,
      "hand": "right"
    },
    {
      "midi": 50,
      "time": 35.022,
      "duration": 0.067,
      "velocity": 1,
      "hand": "left"
    },
    {
      "midi": 62,
      "time": 35.022,
      "duration": 0.067,
      "velocity": 1,
      "hand": "right"
    },
    {
      "midi": 53,
      "time": 35.089,
      "duration": 0.067,
      "velocity": 1,
      "hand": "left"
    },
    {
      "midi": 65,
      "time": 35.089,
      "duration": 0.067,
      "velocity": 1,
      "hand": "right"
    },
    {
      "midi": 51,
      "time": 35.156,
      "duration": 0.067,
      "velocity": 1,
      "hand": "left"
    },
    {
      "midi": 63,
      "time": 35.156,
      "duration": 0.067,
      "velocity": 1,
      "hand": "right"
    },
    {
      "midi": 48,
      "time": 35.29,
      "duration": 0.067,
      "velocity": 1,
      "hand": "left"
    },
    {
      "midi": 60,
      "time": 35.29,
      "duration": 0.067,
      "velocity": 1,
      "hand": "right"
    },
    {
      "midi": 47,
      "time": 35.357,
      "duration": 0.067,
      "velocity": 1,
      "hand": "left"
    },
    {
      "midi": 59,
      "time": 35.357,
      "duration": 0.067,
      "velocity": 1,
      "hand": "left"
    },
    {
      "midi": 55,
      "time": 35.424,
      "duration": 0.067,
      "velocity": 1,
      "hand": "left"
    },
    {
      "midi": 67,
      "time": 35.424,
      "duration": 0.067,
      "velocity": 1,
      "hand": "right"
    },
    {
      "midi": 50,
      "time": 35.558,
      "duration": 0.067,
      "velocity": 1,
      "hand": "left"
    },
    {
      "midi": 62,
      "time": 35.558,
      "duration": 0.067,
      "velocity": 1,
      "hand": "right"
    },
    {
      "midi": 53,
      "time": 35.625,
      "duration": 0.067,
      "velocity": 1,
      "hand": "left"
    },
    {
      "midi": 65,
      "time": 35.625,
      "duration": 0.067,
      "velocity": 1,
      "hand": "right"
    },
    {
      "midi": 51,
      "time": 35.692,
      "duration": 0.067,
      "velocity": 1,
      "hand": "left"
    },
    {
      "midi": 63,
      "time": 35.692,
      "duration": 0.067,
      "velocity": 1,
      "hand": "right"
    },
    {
      "midi": 48,
      "time": 35.826,
      "duration": 0.067,
      "velocity": 1,
      "hand": "left"
    },
    {
      "midi": 60,
      "time": 35.826,
      "duration": 0.067,
      "velocity": 1,
      "hand": "right"
    },
    {
      "midi": 47,
      "time": 35.893,
      "duration": 0.067,
      "velocity": 1,
      "hand": "left"
    },
    {
      "midi": 59,
      "time": 35.893,
      "duration": 0.067,
      "velocity": 1,
      "hand": "left"
    },
    {
      "midi": 55,
      "time": 35.96,
      "duration": 0.067,
      "velocity": 1,
      "hand": "left"
    },
    {
      "midi": 67,
      "time": 35.96,
      "duration": 0.067,
      "velocity": 1,
      "hand": "right"
    },
    {
      "midi": 50,
      "time": 36.094,
      "duration": 0.067,
      "velocity": 1,
      "hand": "left"
    },
    {
      "midi": 62,
      "time": 36.094,
      "duration": 0.067,
      "velocity": 1,
      "hand": "right"
    },
    {
      "midi": 53,
      "time": 36.161,
      "duration": 0.067,
      "velocity": 1,
      "hand": "left"
    },
    {
      "midi": 65,
      "time": 36.161,
      "duration": 0.067,
      "velocity": 1,
      "hand": "right"
    },
    {
      "midi": 51,
      "time": 36.228,
      "duration": 0.067,
      "velocity": 1,
      "hand": "left"
    },
    {
      "midi": 63,
      "time": 36.228,
      "duration": 0.067,
      "velocity": 1,
      "hand": "right"
    },
    {
      "midi": 48,
      "time": 36.362,
      "duration": 0.067,
      "velocity": 1,
      "hand": "left"
    },
    {
      "midi": 60,
      "time": 36.362,
      "duration": 0.067,
      "velocity": 1,
      "hand": "right"
    },
    {
      "midi": 61,
      "time": 36.429,
      "duration": 0.067,
      "velocity": 1,
      "hand": "right"
    },
    {
      "midi": 73,
      "time": 36.429,
      "duration": 0.067,
      "velocity": 1,
      "hand": "right"
    },
    {
      "midi": 60,
      "time": 36.496,
      "duration": 0.067,
      "velocity": 1,
      "hand": "right"
    },
    {
      "midi": 72,
      "time": 36.496,
      "duration": 0.067,
      "velocity": 1,
      "hand": "right"
    },
    {
      "midi": 58,
      "time": 36.629,
      "duration": 0.067,
      "velocity": 1,
      "hand": "left"
    },
    {
      "midi": 70,
      "time": 36.629,
      "duration": 0.067,
      "velocity": 1,
      "hand": "right"
    },
    {
      "midi": 56,
      "time": 36.696,
      "duration": 0.067,
      "velocity": 1,
      "hand": "left"
    },
    {
      "midi": 68,
      "time": 36.696,
      "duration": 0.067,
      "velocity": 1,
      "hand": "right"
    },
    {
      "midi": 55,
      "time": 36.763,
      "duration": 0.067,
      "velocity": 1,
      "hand": "left"
    },
    {
      "midi": 67,
      "time": 36.763,
      "duration": 0.067,
      "velocity": 1,
      "hand": "right"
    },
    {
      "midi": 53,
      "time": 36.897,
      "duration": 0.067,
      "velocity": 1,
      "hand": "left"
    },
    {
      "midi": 65,
      "time": 36.897,
      "duration": 0.067,
      "velocity": 1,
      "hand": "right"
    },
    {
      "midi": 58,
      "time": 36.964,
      "duration": 0.067,
      "velocity": 1,
      "hand": "left"
    },
    {
      "midi": 70,
      "time": 36.964,
      "duration": 0.067,
      "velocity": 1,
      "hand": "right"
    },
    {
      "midi": 52,
      "time": 37.031,
      "duration": 0.067,
      "velocity": 1,
      "hand": "left"
    },
    {
      "midi": 64,
      "time": 37.031,
      "duration": 0.067,
      "velocity": 1,
      "hand": "right"
    },
    {
      "midi": 55,
      "time": 37.165,
      "duration": 0.067,
      "velocity": 1,
      "hand": "left"
    },
    {
      "midi": 67,
      "time": 37.165,
      "duration": 0.067,
      "velocity": 1,
      "hand": "right"
    },
    {
      "midi": 49,
      "time": 37.232,
      "duration": 0.067,
      "velocity": 1,
      "hand": "left"
    },
    {
      "midi": 61,
      "time": 37.232,
      "duration": 0.067,
      "velocity": 1,
      "hand": "right"
    },
    {
      "midi": 52,
      "time": 37.299,
      "duration": 0.067,
      "velocity": 1,
      "hand": "left"
    },
    {
      "midi": 64,
      "time": 37.299,
      "duration": 0.067,
      "velocity": 1,
      "hand": "right"
    },
    {
      "midi": 48,
      "time": 37.433,
      "duration": 0.067,
      "velocity": 1,
      "hand": "left"
    },
    {
      "midi": 60,
      "time": 37.433,
      "duration": 0.067,
      "velocity": 1,
      "hand": "right"
    },
    {
      "midi": 61,
      "time": 37.5,
      "duration": 0.067,
      "velocity": 1,
      "hand": "right"
    },
    {
      "midi": 73,
      "time": 37.5,
      "duration": 0.067,
      "velocity": 1,
      "hand": "right"
    },
    {
      "midi": 60,
      "time": 37.567,
      "duration": 0.067,
      "velocity": 1,
      "hand": "right"
    },
    {
      "midi": 72,
      "time": 37.567,
      "duration": 0.067,
      "velocity": 1,
      "hand": "right"
    },
    {
      "midi": 58,
      "time": 37.701,
      "duration": 0.067,
      "velocity": 1,
      "hand": "left"
    },
    {
      "midi": 70,
      "time": 37.701,
      "duration": 0.067,
      "velocity": 1,
      "hand": "right"
    },
    {
      "midi": 56,
      "time": 37.768,
      "duration": 0.067,
      "velocity": 1,
      "hand": "left"
    },
    {
      "midi": 68,
      "time": 37.768,
      "duration": 0.067,
      "velocity": 1,
      "hand": "right"
    },
    {
      "midi": 55,
      "time": 37.835,
      "duration": 0.067,
      "velocity": 1,
      "hand": "left"
    },
    {
      "midi": 67,
      "time": 37.835,
      "duration": 0.067,
      "velocity": 1,
      "hand": "right"
    },
    {
      "midi": 53,
      "time": 37.969,
      "duration": 0.067,
      "velocity": 1,
      "hand": "left"
    },
    {
      "midi": 65,
      "time": 37.969,
      "duration": 0.067,
      "velocity": 1,
      "hand": "right"
    },
    {
      "midi": 58,
      "time": 38.036,
      "duration": 0.067,
      "velocity": 1,
      "hand": "left"
    },
    {
      "midi": 70,
      "time": 38.036,
      "duration": 0.067,
      "velocity": 1,
      "hand": "right"
    },
    {
      "midi": 52,
      "time": 38.103,
      "duration": 0.067,
      "velocity": 1,
      "hand": "left"
    },
    {
      "midi": 64,
      "time": 38.103,
      "duration": 0.067,
      "velocity": 1,
      "hand": "right"
    },
    {
      "midi": 55,
      "time": 38.237,
      "duration": 0.067,
      "velocity": 1,
      "hand": "left"
    },
    {
      "midi": 67,
      "time": 38.237,
      "duration": 0.067,
      "velocity": 1,
      "hand": "right"
    },
    {
      "midi": 49,
      "time": 38.304,
      "duration": 0.067,
      "velocity": 1,
      "hand": "left"
    },
    {
      "midi": 61,
      "time": 38.304,
      "duration": 0.067,
      "velocity": 1,
      "hand": "right"
    },
    {
      "midi": 52,
      "time": 38.371,
      "duration": 0.067,
      "velocity": 1,
      "hand": "left"
    },
    {
      "midi": 64,
      "time": 38.371,
      "duration": 0.067,
      "velocity": 1,
      "hand": "right"
    },
    {
      "midi": 48,
      "time": 38.504,
      "duration": 0.067,
      "velocity": 1,
      "hand": "left"
    },
    {
      "midi": 60,
      "time": 38.504,
      "duration": 0.067,
      "velocity": 1,
      "hand": "right"
    },
    {
      "midi": 58,
      "time": 38.571,
      "duration": 0.067,
      "velocity": 1,
      "hand": "left"
    },
    {
      "midi": 70,
      "time": 38.571,
      "duration": 0.067,
      "velocity": 1,
      "hand": "right"
    },
    {
      "midi": 52,
      "time": 38.638,
      "duration": 0.067,
      "velocity": 1,
      "hand": "left"
    },
    {
      "midi": 64,
      "time": 38.638,
      "duration": 0.067,
      "velocity": 1,
      "hand": "right"
    },
    {
      "midi": 55,
      "time": 38.772,
      "duration": 0.067,
      "velocity": 1,
      "hand": "left"
    },
    {
      "midi": 67,
      "time": 38.772,
      "duration": 0.067,
      "velocity": 1,
      "hand": "right"
    },
    {
      "midi": 49,
      "time": 38.839,
      "duration": 0.067,
      "velocity": 1,
      "hand": "left"
    },
    {
      "midi": 61,
      "time": 38.839,
      "duration": 0.067,
      "velocity": 1,
      "hand": "right"
    },
    {
      "midi": 52,
      "time": 38.906,
      "duration": 0.067,
      "velocity": 1,
      "hand": "left"
    },
    {
      "midi": 64,
      "time": 38.906,
      "duration": 0.067,
      "velocity": 1,
      "hand": "right"
    },
    {
      "midi": 48,
      "time": 39.04,
      "duration": 0.067,
      "velocity": 1,
      "hand": "left"
    },
    {
      "midi": 60,
      "time": 39.04,
      "duration": 0.067,
      "velocity": 1,
      "hand": "right"
    },
    {
      "midi": 55,
      "time": 39.107,
      "duration": 0.067,
      "velocity": 1,
      "hand": "left"
    },
    {
      "midi": 67,
      "time": 39.107,
      "duration": 0.067,
      "velocity": 1,
      "hand": "right"
    },
    {
      "midi": 49,
      "time": 39.174,
      "duration": 0.067,
      "velocity": 1,
      "hand": "left"
    },
    {
      "midi": 61,
      "time": 39.174,
      "duration": 0.067,
      "velocity": 1,
      "hand": "right"
    },
    {
      "midi": 52,
      "time": 39.308,
      "duration": 0.067,
      "velocity": 1,
      "hand": "left"
    },
    {
      "midi": 64,
      "time": 39.308,
      "duration": 0.067,
      "velocity": 1,
      "hand": "right"
    },
    {
      "midi": 48,
      "time": 39.375,
      "duration": 0.067,
      "velocity": 1,
      "hand": "left"
    },
    {
      "midi": 60,
      "time": 39.375,
      "duration": 0.067,
      "velocity": 1,
      "hand": "right"
    },
    {
      "midi": 52,
      "time": 39.442,
      "duration": 0.067,
      "velocity": 1,
      "hand": "left"
    },
    {
      "midi": 64,
      "time": 39.442,
      "duration": 0.067,
      "velocity": 1,
      "hand": "right"
    },
    {
      "midi": 46,
      "time": 39.576,
      "duration": 0.067,
      "velocity": 1,
      "hand": "left"
    },
    {
      "midi": 58,
      "time": 39.576,
      "duration": 0.067,
      "velocity": 1,
      "hand": "left"
    },
    {
      "midi": 52,
      "time": 39.643,
      "duration": 0.067,
      "velocity": 1,
      "hand": "left"
    },
    {
      "midi": 64,
      "time": 39.643,
      "duration": 0.067,
      "velocity": 1,
      "hand": "right"
    },
    {
      "midi": 46,
      "time": 39.71,
      "duration": 0.067,
      "velocity": 1,
      "hand": "left"
    },
    {
      "midi": 58,
      "time": 39.71,
      "duration": 0.067,
      "velocity": 1,
      "hand": "left"
    },
    {
      "midi": 49,
      "time": 39.844,
      "duration": 0.067,
      "velocity": 1,
      "hand": "left"
    },
    {
      "midi": 61,
      "time": 39.844,
      "duration": 0.067,
      "velocity": 1,
      "hand": "right"
    },
    {
      "midi": 45,
      "time": 39.911,
      "duration": 0.067,
      "velocity": 1,
      "hand": "left"
    },
    {
      "midi": 57,
      "time": 39.911,
      "duration": 0.067,
      "velocity": 1,
      "hand": "left"
    },
    {
      "midi": 46,
      "time": 39.978,
      "duration": 0.067,
      "velocity": 1,
      "hand": "left"
    },
    {
      "midi": 58,
      "time": 39.978,
      "duration": 0.067,
      "velocity": 1,
      "hand": "left"
    },
    {
      "midi": 44,
      "time": 40.112,
      "duration": 0.067,
      "velocity": 1,
      "hand": "left"
    },
    {
      "midi": 56,
      "time": 40.112,
      "duration": 0.067,
      "velocity": 1,
      "hand": "left"
    },
    {
      "midi": 49,
      "time": 40.179,
      "duration": 0.067,
      "velocity": 1,
      "hand": "left"
    },
    {
      "midi": 61,
      "time": 40.179,
      "duration": 0.067,
      "velocity": 1,
      "hand": "right"
    },
    {
      "midi": 44,
      "time": 40.246,
      "duration": 0.067,
      "velocity": 1,
      "hand": "left"
    },
    {
      "midi": 56,
      "time": 40.246,
      "duration": 0.067,
      "velocity": 1,
      "hand": "left"
    },
    {
      "midi": 46,
      "time": 40.379,
      "duration": 0.067,
      "velocity": 1,
      "hand": "left"
    },
    {
      "midi": 58,
      "time": 40.379,
      "duration": 0.067,
      "velocity": 1,
      "hand": "left"
    },
    {
      "midi": 43,
      "time": 40.446,
      "duration": 0.067,
      "velocity": 1,
      "hand": "left"
    },
    {
      "midi": 55,
      "time": 40.446,
      "duration": 0.067,
      "velocity": 1,
      "hand": "left"
    },
    {
      "midi": 46,
      "time": 40.513,
      "duration": 0.067,
      "velocity": 1,
      "hand": "left"
    },
    {
      "midi": 58,
      "time": 40.513,
      "duration": 0.067,
      "velocity": 1,
      "hand": "left"
    },
    {
      "midi": 42,
      "time": 40.647,
      "duration": 0.067,
      "velocity": 1,
      "hand": "left"
    },
    {
      "midi": 54,
      "time": 40.647,
      "duration": 0.067,
      "velocity": 1,
      "hand": "left"
    },
    {
      "midi": 41,
      "time": 40.714,
      "duration": 0.067,
      "velocity": 1,
      "hand": "left"
    },
    {
      "midi": 53,
      "time": 40.714,
      "duration": 0.067,
      "velocity": 1,
      "hand": "left"
    },
    {
      "midi": 43,
      "time": 40.781,
      "duration": 0.067,
      "velocity": 1,
      "hand": "left"
    },
    {
      "midi": 55,
      "time": 40.781,
      "duration": 0.067,
      "velocity": 1,
      "hand": "left"
    },
    {
      "midi": 46,
      "time": 40.915,
      "duration": 0.067,
      "velocity": 1,
      "hand": "left"
    },
    {
      "midi": 58,
      "time": 40.915,
      "duration": 0.067,
      "velocity": 1,
      "hand": "left"
    },
    {
      "midi": 49,
      "time": 40.982,
      "duration": 0.067,
      "velocity": 1,
      "hand": "left"
    },
    {
      "midi": 61,
      "time": 40.982,
      "duration": 0.067,
      "velocity": 1,
      "hand": "right"
    },
    {
      "midi": 40,
      "time": 41.049,
      "duration": 0.067,
      "velocity": 1,
      "hand": "left"
    },
    {
      "midi": 52,
      "time": 41.049,
      "duration": 0.067,
      "velocity": 1,
      "hand": "left"
    },
    {
      "midi": 43,
      "time": 41.183,
      "duration": 0.067,
      "velocity": 1,
      "hand": "left"
    },
    {
      "midi": 55,
      "time": 41.183,
      "duration": 0.067,
      "velocity": 1,
      "hand": "left"
    },
    {
      "midi": 41,
      "time": 41.25,
      "duration": 0.067,
      "velocity": 1,
      "hand": "left"
    },
    {
      "midi": 53,
      "time": 41.25,
      "duration": 0.067,
      "velocity": 1,
      "hand": "left"
    },
    {
      "midi": 43,
      "time": 41.317,
      "duration": 0.067,
      "velocity": 1,
      "hand": "left"
    },
    {
      "midi": 55,
      "time": 41.317,
      "duration": 0.067,
      "velocity": 1,
      "hand": "left"
    },
    {
      "midi": 46,
      "time": 41.451,
      "duration": 0.067,
      "velocity": 1,
      "hand": "left"
    },
    {
      "midi": 58,
      "time": 41.451,
      "duration": 0.067,
      "velocity": 1,
      "hand": "left"
    },
    {
      "midi": 49,
      "time": 41.518,
      "duration": 0.067,
      "velocity": 1,
      "hand": "left"
    },
    {
      "midi": 61,
      "time": 41.518,
      "duration": 0.067,
      "velocity": 1,
      "hand": "right"
    },
    {
      "midi": 40,
      "time": 41.585,
      "duration": 0.067,
      "velocity": 1,
      "hand": "left"
    },
    {
      "midi": 52,
      "time": 41.585,
      "duration": 0.067,
      "velocity": 1,
      "hand": "left"
    },
    {
      "midi": 43,
      "time": 41.719,
      "duration": 0.067,
      "velocity": 1,
      "hand": "left"
    },
    {
      "midi": 55,
      "time": 41.719,
      "duration": 0.067,
      "velocity": 1,
      "hand": "left"
    },
    {
      "midi": 43,
      "time": 41.786,
      "duration": 0.067,
      "velocity": 1,
      "hand": "left"
    },
    {
      "midi": 55,
      "time": 41.786,
      "duration": 0.067,
      "velocity": 1,
      "hand": "left"
    },
    {
      "midi": 45,
      "time": 41.853,
      "duration": 0.067,
      "velocity": 1,
      "hand": "left"
    },
    {
      "midi": 57,
      "time": 41.853,
      "duration": 0.067,
      "velocity": 1,
      "hand": "left"
    },
    {
      "midi": 48,
      "time": 41.987,
      "duration": 0.067,
      "velocity": 1,
      "hand": "left"
    },
    {
      "midi": 60,
      "time": 41.987,
      "duration": 0.067,
      "velocity": 1,
      "hand": "right"
    },
    {
      "midi": 51,
      "time": 42.054,
      "duration": 0.067,
      "velocity": 1,
      "hand": "left"
    },
    {
      "midi": 63,
      "time": 42.054,
      "duration": 0.067,
      "velocity": 1,
      "hand": "right"
    },
    {
      "midi": 42,
      "time": 42.121,
      "duration": 0.067,
      "velocity": 1,
      "hand": "left"
    },
    {
      "midi": 54,
      "time": 42.121,
      "duration": 0.067,
      "velocity": 1,
      "hand": "left"
    },
    {
      "midi": 45,
      "time": 42.254,
      "duration": 0.067,
      "velocity": 1,
      "hand": "left"
    },
    {
      "midi": 57,
      "time": 42.254,
      "duration": 0.067,
      "velocity": 1,
      "hand": "left"
    },
    {
      "midi": 43,
      "time": 42.321,
      "duration": 0.067,
      "velocity": 1,
      "hand": "left"
    },
    {
      "midi": 55,
      "time": 42.321,
      "duration": 0.067,
      "velocity": 1,
      "hand": "left"
    },
    {
      "midi": 45,
      "time": 42.388,
      "duration": 0.067,
      "velocity": 1,
      "hand": "left"
    },
    {
      "midi": 57,
      "time": 42.388,
      "duration": 0.067,
      "velocity": 1,
      "hand": "left"
    },
    {
      "midi": 48,
      "time": 42.522,
      "duration": 0.067,
      "velocity": 1,
      "hand": "left"
    },
    {
      "midi": 60,
      "time": 42.522,
      "duration": 0.067,
      "velocity": 1,
      "hand": "right"
    },
    {
      "midi": 51,
      "time": 42.589,
      "duration": 0.067,
      "velocity": 1,
      "hand": "left"
    },
    {
      "midi": 63,
      "time": 42.589,
      "duration": 0.067,
      "velocity": 1,
      "hand": "right"
    },
    {
      "midi": 42,
      "time": 42.656,
      "duration": 0.067,
      "velocity": 1,
      "hand": "left"
    },
    {
      "midi": 54,
      "time": 42.656,
      "duration": 0.067,
      "velocity": 1,
      "hand": "left"
    },
    {
      "midi": 45,
      "time": 42.79,
      "duration": 0.067,
      "velocity": 1,
      "hand": "left"
    },
    {
      "midi": 57,
      "time": 42.79,
      "duration": 0.067,
      "velocity": 1,
      "hand": "left"
    },
    {
      "midi": 46,
      "time": 42.857,
      "duration": 0.067,
      "velocity": 1,
      "hand": "left"
    },
    {
      "midi": 58,
      "time": 42.857,
      "duration": 0.067,
      "velocity": 1,
      "hand": "left"
    },
    {
      "midi": 48,
      "time": 42.924,
      "duration": 0.067,
      "velocity": 1,
      "hand": "left"
    },
    {
      "midi": 60,
      "time": 42.924,
      "duration": 0.067,
      "velocity": 1,
      "hand": "right"
    },
    {
      "midi": 51,
      "time": 43.058,
      "duration": 0.067,
      "velocity": 1,
      "hand": "left"
    },
    {
      "midi": 63,
      "time": 43.058,
      "duration": 0.067,
      "velocity": 1,
      "hand": "right"
    },
    {
      "midi": 54,
      "time": 43.125,
      "duration": 0.067,
      "velocity": 1,
      "hand": "left"
    },
    {
      "midi": 66,
      "time": 43.125,
      "duration": 0.067,
      "velocity": 1,
      "hand": "right"
    },
    {
      "midi": 45,
      "time": 43.192,
      "duration": 0.067,
      "velocity": 1,
      "hand": "left"
    },
    {
      "midi": 57,
      "time": 43.192,
      "duration": 0.067,
      "velocity": 1,
      "hand": "left"
    },
    {
      "midi": 48,
      "time": 43.326,
      "duration": 0.067,
      "velocity": 1,
      "hand": "left"
    },
    {
      "midi": 60,
      "time": 43.326,
      "duration": 0.067,
      "velocity": 1,
      "hand": "right"
    },
    {
      "midi": 49,
      "time": 43.393,
      "duration": 0.067,
      "velocity": 1,
      "hand": "left"
    },
    {
      "midi": 61,
      "time": 43.393,
      "duration": 0.067,
      "velocity": 1,
      "hand": "right"
    },
    {
      "midi": 51,
      "time": 43.46,
      "duration": 0.067,
      "velocity": 1,
      "hand": "left"
    },
    {
      "midi": 63,
      "time": 43.46,
      "duration": 0.067,
      "velocity": 1,
      "hand": "right"
    },
    {
      "midi": 54,
      "time": 43.594,
      "duration": 0.067,
      "velocity": 1,
      "hand": "left"
    },
    {
      "midi": 66,
      "time": 43.594,
      "duration": 0.067,
      "velocity": 1,
      "hand": "right"
    },
    {
      "midi": 57,
      "time": 43.661,
      "duration": 0.067,
      "velocity": 1,
      "hand": "left"
    },
    {
      "midi": 69,
      "time": 43.661,
      "duration": 0.067,
      "velocity": 1,
      "hand": "right"
    },
    {
      "midi": 48,
      "time": 43.728,
      "duration": 0.067,
      "velocity": 1,
      "hand": "left"
    },
    {
      "midi": 60,
      "time": 43.728,
      "duration": 0.067,
      "velocity": 1,
      "hand": "right"
    },
    {
      "midi": 51,
      "time": 43.862,
      "duration": 0.067,
      "velocity": 1,
      "hand": "left"
    },
    {
      "midi": 63,
      "time": 43.862,
      "duration": 0.067,
      "velocity": 1,
      "hand": "right"
    },
    {
      "midi": 49,
      "time": 43.929,
      "duration": 0.067,
      "velocity": 1,
      "hand": "left"
    },
    {
      "midi": 61,
      "time": 43.929,
      "duration": 0.067,
      "velocity": 1,
      "hand": "right"
    },
    {
      "midi": 51,
      "time": 43.996,
      "duration": 0.067,
      "velocity": 1,
      "hand": "left"
    },
    {
      "midi": 63,
      "time": 43.996,
      "duration": 0.067,
      "velocity": 1,
      "hand": "right"
    },
    {
      "midi": 54,
      "time": 44.129,
      "duration": 0.067,
      "velocity": 1,
      "hand": "left"
    },
    {
      "midi": 66,
      "time": 44.129,
      "duration": 0.067,
      "velocity": 1,
      "hand": "right"
    },
    {
      "midi": 57,
      "time": 44.196,
      "duration": 0.067,
      "velocity": 1,
      "hand": "left"
    },
    {
      "midi": 69,
      "time": 44.196,
      "duration": 0.067,
      "velocity": 1,
      "hand": "right"
    },
    {
      "midi": 48,
      "time": 44.263,
      "duration": 0.067,
      "velocity": 1,
      "hand": "left"
    },
    {
      "midi": 60,
      "time": 44.263,
      "duration": 0.067,
      "velocity": 1,
      "hand": "right"
    },
    {
      "midi": 51,
      "time": 44.397,
      "duration": 0.067,
      "velocity": 1,
      "hand": "left"
    },
    {
      "midi": 63,
      "time": 44.397,
      "duration": 0.067,
      "velocity": 1,
      "hand": "right"
    },
    {
      "midi": 54,
      "time": 44.464,
      "duration": 0.067,
      "velocity": 1,
      "hand": "left"
    },
    {
      "midi": 66,
      "time": 44.464,
      "duration": 0.067,
      "velocity": 1,
      "hand": "right"
    },
    {
      "midi": 58,
      "time": 44.531,
      "duration": 0.067,
      "velocity": 1,
      "hand": "left"
    },
    {
      "midi": 70,
      "time": 44.531,
      "duration": 0.067,
      "velocity": 1,
      "hand": "right"
    },
    {
      "midi": 60,
      "time": 44.665,
      "duration": 0.067,
      "velocity": 1,
      "hand": "right"
    },
    {
      "midi": 72,
      "time": 44.665,
      "duration": 0.067,
      "velocity": 1,
      "hand": "right"
    },
    {
      "midi": 63,
      "time": 44.732,
      "duration": 0.067,
      "velocity": 1,
      "hand": "right"
    },
    {
      "midi": 75,
      "time": 44.732,
      "duration": 0.067,
      "velocity": 1,
      "hand": "right"
    },
    {
      "midi": 53,
      "time": 44.799,
      "duration": 0.067,
      "velocity": 1,
      "hand": "left"
    },
    {
      "midi": 65,
      "time": 44.799,
      "duration": 0.067,
      "velocity": 1,
      "hand": "right"
    },
    {
      "midi": 57,
      "time": 44.933,
      "duration": 0.067,
      "velocity": 1,
      "hand": "left"
    },
    {
      "midi": 69,
      "time": 44.933,
      "duration": 0.067,
      "velocity": 1,
      "hand": "right"
    },
    {
      "midi": 58,
      "time": 45,
      "duration": 0.067,
      "velocity": 1,
      "hand": "left"
    },
    {
      "midi": 70,
      "time": 45,
      "duration": 0.067,
      "velocity": 1,
      "hand": "right"
    },
    {
      "midi": 61,
      "time": 45.067,
      "duration": 0.067,
      "velocity": 1,
      "hand": "right"
    },
    {
      "midi": 73,
      "time": 45.067,
      "duration": 0.067,
      "velocity": 1,
      "hand": "right"
    },
    {
      "midi": 66,
      "time": 45.201,
      "duration": 0.067,
      "velocity": 1,
      "hand": "right"
    },
    {
      "midi": 78,
      "time": 45.201,
      "duration": 0.067,
      "velocity": 1,
      "hand": "right"
    },
    {
      "midi": 65,
      "time": 45.268,
      "duration": 0.067,
      "velocity": 1,
      "hand": "right"
    },
    {
      "midi": 77,
      "time": 45.268,
      "duration": 0.067,
      "velocity": 1,
      "hand": "right"
    },
    {
      "midi": 60,
      "time": 45.335,
      "duration": 0.067,
      "velocity": 1,
      "hand": "right"
    },
    {
      "midi": 72,
      "time": 45.335,
      "duration": 0.067,
      "velocity": 1,
      "hand": "right"
    },
    {
      "midi": 61,
      "time": 45.469,
      "duration": 0.067,
      "velocity": 1,
      "hand": "right"
    },
    {
      "midi": 73,
      "time": 45.469,
      "duration": 0.067,
      "velocity": 1,
      "hand": "right"
    },
    {
      "midi": 64,
      "time": 45.536,
      "duration": 0.067,
      "velocity": 1,
      "hand": "right"
    },
    {
      "midi": 76,
      "time": 45.536,
      "duration": 0.067,
      "velocity": 1,
      "hand": "right"
    },
    {
      "midi": 60,
      "time": 45.603,
      "duration": 0.067,
      "velocity": 1,
      "hand": "right"
    },
    {
      "midi": 72,
      "time": 45.603,
      "duration": 0.067,
      "velocity": 1,
      "hand": "right"
    },
    {
      "midi": 61,
      "time": 45.737,
      "duration": 0.067,
      "velocity": 1,
      "hand": "right"
    },
    {
      "midi": 73,
      "time": 45.737,
      "duration": 0.067,
      "velocity": 1,
      "hand": "right"
    },
    {
      "midi": 57,
      "time": 45.804,
      "duration": 0.067,
      "velocity": 1,
      "hand": "left"
    },
    {
      "midi": 69,
      "time": 45.804,
      "duration": 0.067,
      "velocity": 1,
      "hand": "right"
    },
    {
      "midi": 58,
      "time": 45.871,
      "duration": 0.067,
      "velocity": 1,
      "hand": "left"
    },
    {
      "midi": 70,
      "time": 45.871,
      "duration": 0.067,
      "velocity": 1,
      "hand": "right"
    },
    {
      "midi": 54,
      "time": 46.004,
      "duration": 0.067,
      "velocity": 1,
      "hand": "left"
    },
    {
      "midi": 66,
      "time": 46.004,
      "duration": 0.067,
      "velocity": 1,
      "hand": "right"
    },
    {
      "midi": 52,
      "time": 46.071,
      "duration": 0.067,
      "velocity": 1,
      "hand": "left"
    },
    {
      "midi": 64,
      "time": 46.071,
      "duration": 0.067,
      "velocity": 1,
      "hand": "right"
    },
    {
      "midi": 53,
      "time": 46.138,
      "duration": 0.067,
      "velocity": 1,
      "hand": "left"
    },
    {
      "midi": 65,
      "time": 46.138,
      "duration": 0.067,
      "velocity": 1,
      "hand": "right"
    },
    {
      "midi": 58,
      "time": 46.272,
      "duration": 0.067,
      "velocity": 1,
      "hand": "left"
    },
    {
      "midi": 70,
      "time": 46.272,
      "duration": 0.067,
      "velocity": 1,
      "hand": "right"
    },
    {
      "midi": 56,
      "time": 46.339,
      "duration": 0.067,
      "velocity": 1,
      "hand": "left"
    },
    {
      "midi": 68,
      "time": 46.339,
      "duration": 0.067,
      "velocity": 1,
      "hand": "right"
    },
    {
      "midi": 57,
      "time": 46.406,
      "duration": 0.067,
      "velocity": 1,
      "hand": "left"
    },
    {
      "midi": 69,
      "time": 46.406,
      "duration": 0.067,
      "velocity": 1,
      "hand": "right"
    },
    {
      "midi": 61,
      "time": 46.54,
      "duration": 0.067,
      "velocity": 1,
      "hand": "right"
    },
    {
      "midi": 73,
      "time": 46.54,
      "duration": 0.067,
      "velocity": 1,
      "hand": "right"
    },
    {
      "midi": 57,
      "time": 46.607,
      "duration": 0.067,
      "velocity": 1,
      "hand": "left"
    },
    {
      "midi": 69,
      "time": 46.607,
      "duration": 0.067,
      "velocity": 1,
      "hand": "right"
    },
    {
      "midi": 58,
      "time": 46.674,
      "duration": 0.067,
      "velocity": 1,
      "hand": "left"
    },
    {
      "midi": 70,
      "time": 46.674,
      "duration": 0.067,
      "velocity": 1,
      "hand": "right"
    },
    {
      "midi": 61,
      "time": 46.808,
      "duration": 0.067,
      "velocity": 1,
      "hand": "right"
    },
    {
      "midi": 73,
      "time": 46.808,
      "duration": 0.067,
      "velocity": 1,
      "hand": "right"
    },
    {
      "midi": 59,
      "time": 46.875,
      "duration": 0.067,
      "velocity": 1,
      "hand": "left"
    },
    {
      "midi": 71,
      "time": 46.875,
      "duration": 0.067,
      "velocity": 1,
      "hand": "right"
    },
    {
      "midi": 60,
      "time": 46.942,
      "duration": 0.067,
      "velocity": 1,
      "hand": "right"
    },
    {
      "midi": 72,
      "time": 46.942,
      "duration": 0.067,
      "velocity": 1,
      "hand": "right"
    },
    {
      "midi": 65,
      "time": 47.076,
      "duration": 0.067,
      "velocity": 1,
      "hand": "right"
    },
    {
      "midi": 77,
      "time": 47.076,
      "duration": 0.067,
      "velocity": 1,
      "hand": "right"
    },
    {
      "midi": 56,
      "time": 47.143,
      "duration": 0.067,
      "velocity": 1,
      "hand": "left"
    },
    {
      "midi": 68,
      "time": 47.143,
      "duration": 0.067,
      "velocity": 1,
      "hand": "right"
    },
    {
      "midi": 59,
      "time": 47.21,
      "duration": 0.067,
      "velocity": 1,
      "hand": "left"
    },
    {
      "midi": 71,
      "time": 47.21,
      "duration": 0.067,
      "velocity": 1,
      "hand": "right"
    },
    {
      "midi": 64,
      "time": 47.344,
      "duration": 0.067,
      "velocity": 1,
      "hand": "right"
    },
    {
      "midi": 76,
      "time": 47.344,
      "duration": 0.067,
      "velocity": 1,
      "hand": "right"
    },
    {
      "midi": 63,
      "time": 47.411,
      "duration": 0.067,
      "velocity": 1,
      "hand": "right"
    },
    {
      "midi": 75,
      "time": 47.411,
      "duration": 0.067,
      "velocity": 1,
      "hand": "right"
    },
    {
      "midi": 58,
      "time": 47.478,
      "duration": 0.067,
      "velocity": 1,
      "hand": "left"
    },
    {
      "midi": 70,
      "time": 47.478,
      "duration": 0.067,
      "velocity": 1,
      "hand": "right"
    },
    {
      "midi": 59,
      "time": 47.612,
      "duration": 0.067,
      "velocity": 1,
      "hand": "left"
    },
    {
      "midi": 71,
      "time": 47.612,
      "duration": 0.067,
      "velocity": 1,
      "hand": "right"
    },
    {
      "midi": 62,
      "time": 47.679,
      "duration": 0.067,
      "velocity": 1,
      "hand": "right"
    },
    {
      "midi": 74,
      "time": 47.679,
      "duration": 0.067,
      "velocity": 1,
      "hand": "right"
    },
    {
      "midi": 58,
      "time": 47.746,
      "duration": 0.067,
      "velocity": 1,
      "hand": "left"
    },
    {
      "midi": 70,
      "time": 47.746,
      "duration": 0.067,
      "velocity": 1,
      "hand": "right"
    },
    {
      "midi": 59,
      "time": 47.879,
      "duration": 0.067,
      "velocity": 1,
      "hand": "left"
    },
    {
      "midi": 71,
      "time": 47.879,
      "duration": 0.067,
      "velocity": 1,
      "hand": "right"
    },
    {
      "midi": 55,
      "time": 47.946,
      "duration": 0.067,
      "velocity": 1,
      "hand": "left"
    },
    {
      "midi": 67,
      "time": 47.946,
      "duration": 0.067,
      "velocity": 1,
      "hand": "right"
    },
    {
      "midi": 56,
      "time": 48.013,
      "duration": 0.067,
      "velocity": 1,
      "hand": "left"
    },
    {
      "midi": 68,
      "time": 48.013,
      "duration": 0.067,
      "velocity": 1,
      "hand": "right"
    },
    {
      "midi": 52,
      "time": 48.147,
      "duration": 0.067,
      "velocity": 1,
      "hand": "left"
    },
    {
      "midi": 64,
      "time": 48.147,
      "duration": 0.067,
      "velocity": 1,
      "hand": "right"
    },
    {
      "midi": 50,
      "time": 48.214,
      "duration": 0.067,
      "velocity": 1,
      "hand": "left"
    },
    {
      "midi": 62,
      "time": 48.214,
      "duration": 0.067,
      "velocity": 1,
      "hand": "right"
    },
    {
      "midi": 51,
      "time": 48.281,
      "duration": 0.067,
      "velocity": 1,
      "hand": "left"
    },
    {
      "midi": 63,
      "time": 48.281,
      "duration": 0.067,
      "velocity": 1,
      "hand": "right"
    },
    {
      "midi": 56,
      "time": 48.415,
      "duration": 0.067,
      "velocity": 1,
      "hand": "left"
    },
    {
      "midi": 68,
      "time": 48.415,
      "duration": 0.067,
      "velocity": 1,
      "hand": "right"
    },
    {
      "midi": 52,
      "time": 48.482,
      "duration": 0.067,
      "velocity": 1,
      "hand": "left"
    },
    {
      "midi": 64,
      "time": 48.482,
      "duration": 0.067,
      "velocity": 1,
      "hand": "right"
    },
    {
      "midi": 53,
      "time": 48.549,
      "duration": 0.067,
      "velocity": 1,
      "hand": "left"
    },
    {
      "midi": 65,
      "time": 48.549,
      "duration": 0.067,
      "velocity": 1,
      "hand": "right"
    },
    {
      "midi": 59,
      "time": 48.683,
      "duration": 0.067,
      "velocity": 1,
      "hand": "left"
    },
    {
      "midi": 71,
      "time": 48.683,
      "duration": 0.067,
      "velocity": 1,
      "hand": "right"
    },
    {
      "midi": 53,
      "time": 48.75,
      "duration": 0.067,
      "velocity": 1,
      "hand": "left"
    },
    {
      "midi": 65,
      "time": 48.75,
      "duration": 0.067,
      "velocity": 1,
      "hand": "right"
    },
    {
      "midi": 54,
      "time": 48.817,
      "duration": 0.067,
      "velocity": 1,
      "hand": "left"
    },
    {
      "midi": 66,
      "time": 48.817,
      "duration": 0.067,
      "velocity": 1,
      "hand": "right"
    },
    {
      "midi": 59,
      "time": 48.951,
      "duration": 0.067,
      "velocity": 1,
      "hand": "left"
    },
    {
      "midi": 71,
      "time": 48.951,
      "duration": 0.067,
      "velocity": 1,
      "hand": "right"
    },
    {
      "midi": 57,
      "time": 49.018,
      "duration": 0.067,
      "velocity": 1,
      "hand": "left"
    },
    {
      "midi": 69,
      "time": 49.018,
      "duration": 0.067,
      "velocity": 1,
      "hand": "right"
    },
    {
      "midi": 58,
      "time": 49.085,
      "duration": 0.067,
      "velocity": 1,
      "hand": "left"
    },
    {
      "midi": 70,
      "time": 49.085,
      "duration": 0.067,
      "velocity": 1,
      "hand": "right"
    },
    {
      "midi": 63,
      "time": 49.219,
      "duration": 0.067,
      "velocity": 1,
      "hand": "right"
    },
    {
      "midi": 75,
      "time": 49.219,
      "duration": 0.067,
      "velocity": 1,
      "hand": "right"
    },
    {
      "midi": 61,
      "time": 49.286,
      "duration": 0.067,
      "velocity": 1,
      "hand": "right"
    },
    {
      "midi": 73,
      "time": 49.286,
      "duration": 0.067,
      "velocity": 1,
      "hand": "right"
    },
    {
      "midi": 53,
      "time": 49.353,
      "duration": 0.067,
      "velocity": 1,
      "hand": "left"
    },
    {
      "midi": 65,
      "time": 49.353,
      "duration": 0.067,
      "velocity": 1,
      "hand": "right"
    },
    {
      "midi": 58,
      "time": 49.487,
      "duration": 0.067,
      "velocity": 1,
      "hand": "left"
    },
    {
      "midi": 70,
      "time": 49.487,
      "duration": 0.067,
      "velocity": 1,
      "hand": "right"
    },
    {
      "midi": 49,
      "time": 49.554,
      "duration": 0.067,
      "velocity": 1,
      "hand": "left"
    },
    {
      "midi": 61,
      "time": 49.554,
      "duration": 0.067,
      "velocity": 1,
      "hand": "right"
    },
    {
      "midi": 52,
      "time": 49.621,
      "duration": 0.067,
      "velocity": 1,
      "hand": "left"
    },
    {
      "midi": 64,
      "time": 49.621,
      "duration": 0.067,
      "velocity": 1,
      "hand": "right"
    },
    {
      "midi": 57,
      "time": 49.754,
      "duration": 0.067,
      "velocity": 1,
      "hand": "left"
    },
    {
      "midi": 69,
      "time": 49.754,
      "duration": 0.067,
      "velocity": 1,
      "hand": "right"
    },
    {
      "midi": 60,
      "time": 49.821,
      "duration": 0.067,
      "velocity": 1,
      "hand": "right"
    },
    {
      "midi": 72,
      "time": 49.821,
      "duration": 0.067,
      "velocity": 1,
      "hand": "right"
    },
    {
      "midi": 51,
      "time": 49.888,
      "duration": 0.067,
      "velocity": 1,
      "hand": "left"
    },
    {
      "midi": 63,
      "time": 49.888,
      "duration": 0.067,
      "velocity": 1,
      "hand": "right"
    },
    {
      "midi": 56,
      "time": 50.022,
      "duration": 0.067,
      "velocity": 1,
      "hand": "left"
    },
    {
      "midi": 68,
      "time": 50.022,
      "duration": 0.067,
      "velocity": 1,
      "hand": "right"
    },
    {
      "midi": 47,
      "time": 50.089,
      "duration": 0.067,
      "velocity": 1,
      "hand": "left"
    },
    {
      "midi": 59,
      "time": 50.089,
      "duration": 0.067,
      "velocity": 1,
      "hand": "left"
    },
    {
      "midi": 50,
      "time": 50.156,
      "duration": 0.067,
      "velocity": 1,
      "hand": "left"
    },
    {
      "midi": 62,
      "time": 50.156,
      "duration": 0.067,
      "velocity": 1,
      "hand": "right"
    },
    {
      "midi": 55,
      "time": 50.29,
      "duration": 0.067,
      "velocity": 1,
      "hand": "left"
    },
    {
      "midi": 67,
      "time": 50.29,
      "duration": 0.067,
      "velocity": 1,
      "hand": "right"
    },
    {
      "midi": 59,
      "time": 50.357,
      "duration": 0.067,
      "velocity": 1,
      "hand": "left"
    },
    {
      "midi": 71,
      "time": 50.357,
      "duration": 0.067,
      "velocity": 1,
      "hand": "right"
    },
    {
      "midi": 50,
      "time": 50.424,
      "duration": 0.067,
      "velocity": 1,
      "hand": "left"
    },
    {
      "midi": 62,
      "time": 50.424,
      "duration": 0.067,
      "velocity": 1,
      "hand": "right"
    },
    {
      "midi": 54,
      "time": 50.558,
      "duration": 0.067,
      "velocity": 1,
      "hand": "left"
    },
    {
      "midi": 66,
      "time": 50.558,
      "duration": 0.067,
      "velocity": 1,
      "hand": "right"
    },
    {
      "midi": 46,
      "time": 50.625,
      "duration": 0.067,
      "velocity": 1,
      "hand": "left"
    },
    {
      "midi": 58,
      "time": 50.625,
      "duration": 0.067,
      "velocity": 1,
      "hand": "left"
    },
    {
      "midi": 49,
      "time": 50.692,
      "duration": 0.067,
      "velocity": 1,
      "hand": "left"
    },
    {
      "midi": 61,
      "time": 50.692,
      "duration": 0.067,
      "velocity": 1,
      "hand": "right"
    },
    {
      "midi": 54,
      "time": 50.826,
      "duration": 0.067,
      "velocity": 1,
      "hand": "left"
    },
    {
      "midi": 66,
      "time": 50.826,
      "duration": 0.067,
      "velocity": 1,
      "hand": "right"
    },
    {
      "midi": 58,
      "time": 50.893,
      "duration": 0.067,
      "velocity": 1,
      "hand": "left"
    },
    {
      "midi": 70,
      "time": 50.893,
      "duration": 0.067,
      "velocity": 1,
      "hand": "right"
    },
    {
      "midi": 54,
      "time": 50.96,
      "duration": 0.067,
      "velocity": 1,
      "hand": "left"
    },
    {
      "midi": 66,
      "time": 50.96,
      "duration": 0.067,
      "velocity": 1,
      "hand": "right"
    },
    {
      "midi": 59,
      "time": 51.094,
      "duration": 0.067,
      "velocity": 1,
      "hand": "left"
    },
    {
      "midi": 71,
      "time": 51.094,
      "duration": 0.067,
      "velocity": 1,
      "hand": "right"
    },
    {
      "midi": 60,
      "time": 51.161,
      "duration": 0.067,
      "velocity": 1,
      "hand": "right"
    },
    {
      "midi": 72,
      "time": 51.161,
      "duration": 0.067,
      "velocity": 1,
      "hand": "right"
    },
    {
      "midi": 61,
      "time": 51.228,
      "duration": 0.067,
      "velocity": 1,
      "hand": "right"
    },
    {
      "midi": 73,
      "time": 51.228,
      "duration": 0.067,
      "velocity": 1,
      "hand": "right"
    },
    {
      "midi": 63,
      "time": 51.362,
      "duration": 0.067,
      "velocity": 1,
      "hand": "right"
    },
    {
      "midi": 75,
      "time": 51.362,
      "duration": 0.067,
      "velocity": 1,
      "hand": "right"
    },
    {
      "midi": 61,
      "time": 51.429,
      "duration": 0.067,
      "velocity": 1,
      "hand": "right"
    },
    {
      "midi": 73,
      "time": 51.429,
      "duration": 0.067,
      "velocity": 1,
      "hand": "right"
    },
    {
      "midi": 60,
      "time": 51.496,
      "duration": 0.067,
      "velocity": 1,
      "hand": "right"
    },
    {
      "midi": 72,
      "time": 51.496,
      "duration": 0.067,
      "velocity": 1,
      "hand": "right"
    },
    {
      "midi": 59,
      "time": 51.629,
      "duration": 0.067,
      "velocity": 1,
      "hand": "left"
    },
    {
      "midi": 71,
      "time": 51.629,
      "duration": 0.067,
      "velocity": 1,
      "hand": "right"
    },
    {
      "midi": 58,
      "time": 51.696,
      "duration": 0.067,
      "velocity": 1,
      "hand": "left"
    },
    {
      "midi": 70,
      "time": 51.696,
      "duration": 0.067,
      "velocity": 1,
      "hand": "right"
    },
    {
      "midi": 57,
      "time": 51.763,
      "duration": 0.067,
      "velocity": 1,
      "hand": "left"
    },
    {
      "midi": 69,
      "time": 51.763,
      "duration": 0.067,
      "velocity": 1,
      "hand": "right"
    },
    {
      "midi": 65,
      "time": 51.897,
      "duration": 0.067,
      "velocity": 1,
      "hand": "right"
    },
    {
      "midi": 77,
      "time": 51.897,
      "duration": 0.067,
      "velocity": 1,
      "hand": "right"
    },
    {
      "midi": 63,
      "time": 51.964,
      "duration": 0.067,
      "velocity": 1,
      "hand": "right"
    },
    {
      "midi": 75,
      "time": 51.964,
      "duration": 0.067,
      "velocity": 1,
      "hand": "right"
    },
    {
      "midi": 62,
      "time": 52.031,
      "duration": 0.067,
      "velocity": 1,
      "hand": "right"
    },
    {
      "midi": 74,
      "time": 52.031,
      "duration": 0.067,
      "velocity": 1,
      "hand": "right"
    },
    {
      "midi": 61,
      "time": 52.165,
      "duration": 0.067,
      "velocity": 1,
      "hand": "right"
    },
    {
      "midi": 73,
      "time": 52.165,
      "duration": 0.067,
      "velocity": 1,
      "hand": "right"
    },
    {
      "midi": 60,
      "time": 52.232,
      "duration": 0.067,
      "velocity": 1,
      "hand": "right"
    },
    {
      "midi": 72,
      "time": 52.232,
      "duration": 0.067,
      "velocity": 1,
      "hand": "right"
    },
    {
      "midi": 58,
      "time": 52.299,
      "duration": 0.067,
      "velocity": 1,
      "hand": "left"
    },
    {
      "midi": 70,
      "time": 52.299,
      "duration": 0.067,
      "velocity": 1,
      "hand": "right"
    },
    {
      "midi": 66,
      "time": 52.433,
      "duration": 0.067,
      "velocity": 1,
      "hand": "right"
    },
    {
      "midi": 78,
      "time": 52.433,
      "duration": 0.067,
      "velocity": 1,
      "hand": "right"
    },
    {
      "midi": 65,
      "time": 52.5,
      "duration": 0.067,
      "velocity": 1,
      "hand": "right"
    },
    {
      "midi": 77,
      "time": 52.5,
      "duration": 0.067,
      "velocity": 1,
      "hand": "right"
    },
    {
      "midi": 63,
      "time": 52.567,
      "duration": 0.067,
      "velocity": 1,
      "hand": "right"
    },
    {
      "midi": 75,
      "time": 52.567,
      "duration": 0.067,
      "velocity": 1,
      "hand": "right"
    },
    {
      "midi": 62,
      "time": 52.701,
      "duration": 0.067,
      "velocity": 1,
      "hand": "right"
    },
    {
      "midi": 74,
      "time": 52.701,
      "duration": 0.067,
      "velocity": 1,
      "hand": "right"
    },
    {
      "midi": 61,
      "time": 52.768,
      "duration": 0.067,
      "velocity": 1,
      "hand": "right"
    },
    {
      "midi": 73,
      "time": 52.768,
      "duration": 0.067,
      "velocity": 1,
      "hand": "right"
    },
    {
      "midi": 60,
      "time": 52.835,
      "duration": 0.067,
      "velocity": 1,
      "hand": "right"
    },
    {
      "midi": 72,
      "time": 52.835,
      "duration": 0.067,
      "velocity": 1,
      "hand": "right"
    },
    {
      "midi": 69,
      "time": 52.969,
      "duration": 0.067,
      "velocity": 1,
      "hand": "right"
    },
    {
      "midi": 81,
      "time": 52.969,
      "duration": 0.067,
      "velocity": 1,
      "hand": "right"
    },
    {
      "midi": 60,
      "time": 53.036,
      "duration": 0.067,
      "velocity": 1,
      "hand": "right"
    },
    {
      "midi": 72,
      "time": 53.036,
      "duration": 0.067,
      "velocity": 1,
      "hand": "right"
    },
    {
      "midi": 61,
      "time": 53.103,
      "duration": 0.067,
      "velocity": 1,
      "hand": "right"
    },
    {
      "midi": 73,
      "time": 53.103,
      "duration": 0.067,
      "velocity": 1,
      "hand": "right"
    },
    {
      "midi": 70,
      "time": 53.237,
      "duration": 0.067,
      "velocity": 1,
      "hand": "right"
    },
    {
      "midi": 82,
      "time": 53.237,
      "duration": 0.067,
      "velocity": 1,
      "hand": "right"
    },
    {
      "midi": 62,
      "time": 53.304,
      "duration": 0.067,
      "velocity": 1,
      "hand": "right"
    },
    {
      "midi": 74,
      "time": 53.304,
      "duration": 0.067,
      "velocity": 1,
      "hand": "right"
    },
    {
      "midi": 63,
      "time": 53.371,
      "duration": 0.067,
      "velocity": 1,
      "hand": "right"
    },
    {
      "midi": 75,
      "time": 53.371,
      "duration": 0.067,
      "velocity": 1,
      "hand": "right"
    },
    {
      "midi": 70,
      "time": 53.504,
      "duration": 0.067,
      "velocity": 1,
      "hand": "right"
    },
    {
      "midi": 82,
      "time": 53.504,
      "duration": 0.067,
      "velocity": 1,
      "hand": "right"
    },
    {
      "midi": 72,
      "time": 53.571,
      "duration": 0.067,
      "velocity": 1,
      "hand": "right"
    },
    {
      "midi": 84,
      "time": 53.571,
      "duration": 0.067,
      "velocity": 1,
      "hand": "right"
    },
    {
      "midi": 70,
      "time": 53.638,
      "duration": 0.067,
      "velocity": 1,
      "hand": "right"
    },
    {
      "midi": 82,
      "time": 53.638,
      "duration": 0.067,
      "velocity": 1,
      "hand": "right"
    },
    {
      "midi": 68,
      "time": 53.772,
      "duration": 0.067,
      "velocity": 1,
      "hand": "right"
    },
    {
      "midi": 80,
      "time": 53.772,
      "duration": 0.067,
      "velocity": 1,
      "hand": "right"
    },
    {
      "midi": 66,
      "time": 53.839,
      "duration": 0.067,
      "velocity": 1,
      "hand": "right"
    },
    {
      "midi": 78,
      "time": 53.839,
      "duration": 0.067,
      "velocity": 1,
      "hand": "right"
    },
    {
      "midi": 65,
      "time": 53.906,
      "duration": 0.067,
      "velocity": 1,
      "hand": "right"
    },
    {
      "midi": 77,
      "time": 53.906,
      "duration": 0.067,
      "velocity": 1,
      "hand": "right"
    },
    {
      "midi": 64,
      "time": 54.04,
      "duration": 0.067,
      "velocity": 1,
      "hand": "right"
    },
    {
      "midi": 76,
      "time": 54.04,
      "duration": 0.067,
      "velocity": 1,
      "hand": "right"
    },
    {
      "midi": 72,
      "time": 54.107,
      "duration": 0.067,
      "velocity": 1,
      "hand": "right"
    },
    {
      "midi": 84,
      "time": 54.107,
      "duration": 0.067,
      "velocity": 1,
      "hand": "right"
    },
    {
      "midi": 70,
      "time": 54.174,
      "duration": 0.067,
      "velocity": 1,
      "hand": "right"
    },
    {
      "midi": 82,
      "time": 54.174,
      "duration": 0.067,
      "velocity": 1,
      "hand": "right"
    },
    {
      "midi": 68,
      "time": 54.308,
      "duration": 0.067,
      "velocity": 1,
      "hand": "right"
    },
    {
      "midi": 80,
      "time": 54.308,
      "duration": 0.067,
      "velocity": 1,
      "hand": "right"
    },
    {
      "midi": 66,
      "time": 54.375,
      "duration": 0.067,
      "velocity": 1,
      "hand": "right"
    },
    {
      "midi": 78,
      "time": 54.375,
      "duration": 0.067,
      "velocity": 1,
      "hand": "right"
    },
    {
      "midi": 65,
      "time": 54.442,
      "duration": 0.067,
      "velocity": 1,
      "hand": "right"
    },
    {
      "midi": 77,
      "time": 54.442,
      "duration": 0.067,
      "velocity": 1,
      "hand": "right"
    },
    {
      "midi": 64,
      "time": 54.576,
      "duration": 0.067,
      "velocity": 1,
      "hand": "right"
    },
    {
      "midi": 76,
      "time": 54.576,
      "duration": 0.067,
      "velocity": 1,
      "hand": "right"
    },
    {
      "midi": 66,
      "time": 54.643,
      "duration": 0.067,
      "velocity": 1,
      "hand": "right"
    },
    {
      "midi": 78,
      "time": 54.643,
      "duration": 0.067,
      "velocity": 1,
      "hand": "right"
    },
    {
      "midi": 65,
      "time": 54.71,
      "duration": 0.067,
      "velocity": 1,
      "hand": "right"
    },
    {
      "midi": 77,
      "time": 54.71,
      "duration": 0.067,
      "velocity": 1,
      "hand": "right"
    },
    {
      "midi": 64,
      "time": 54.844,
      "duration": 0.067,
      "velocity": 1,
      "hand": "right"
    },
    {
      "midi": 76,
      "time": 54.844,
      "duration": 0.067,
      "velocity": 1,
      "hand": "right"
    },
    {
      "midi": 63,
      "time": 54.911,
      "duration": 0.067,
      "velocity": 1,
      "hand": "right"
    },
    {
      "midi": 75,
      "time": 54.911,
      "duration": 0.067,
      "velocity": 1,
      "hand": "right"
    },
    {
      "midi": 62,
      "time": 54.978,
      "duration": 0.067,
      "velocity": 1,
      "hand": "right"
    },
    {
      "midi": 74,
      "time": 54.978,
      "duration": 0.067,
      "velocity": 1,
      "hand": "right"
    },
    {
      "midi": 61,
      "time": 55.112,
      "duration": 0.067,
      "velocity": 1,
      "hand": "right"
    },
    {
      "midi": 73,
      "time": 55.112,
      "duration": 0.067,
      "velocity": 1,
      "hand": "right"
    },
    {
      "midi": 63,
      "time": 55.179,
      "duration": 0.067,
      "velocity": 1,
      "hand": "right"
    },
    {
      "midi": 75,
      "time": 55.179,
      "duration": 0.067,
      "velocity": 1,
      "hand": "right"
    },
    {
      "midi": 59,
      "time": 55.246,
      "duration": 0.067,
      "velocity": 1,
      "hand": "left"
    },
    {
      "midi": 71,
      "time": 55.246,
      "duration": 0.067,
      "velocity": 1,
      "hand": "right"
    },
    {
      "midi": 60,
      "time": 55.379,
      "duration": 0.067,
      "velocity": 1,
      "hand": "right"
    },
    {
      "midi": 72,
      "time": 55.379,
      "duration": 0.067,
      "velocity": 1,
      "hand": "right"
    },
    {
      "midi": 61,
      "time": 55.446,
      "duration": 0.067,
      "velocity": 1,
      "hand": "right"
    },
    {
      "midi": 73,
      "time": 55.446,
      "duration": 0.067,
      "velocity": 1,
      "hand": "right"
    },
    {
      "midi": 57,
      "time": 55.513,
      "duration": 0.067,
      "velocity": 1,
      "hand": "left"
    },
    {
      "midi": 69,
      "time": 55.513,
      "duration": 0.067,
      "velocity": 1,
      "hand": "right"
    },
    {
      "midi": 58,
      "time": 55.647,
      "duration": 0.067,
      "velocity": 1,
      "hand": "left"
    },
    {
      "midi": 70,
      "time": 55.647,
      "duration": 0.067,
      "velocity": 1,
      "hand": "right"
    },
    {
      "midi": 60,
      "time": 55.714,
      "duration": 0.067,
      "velocity": 1,
      "hand": "right"
    },
    {
      "midi": 72,
      "time": 55.714,
      "duration": 0.067,
      "velocity": 1,
      "hand": "right"
    },
    {
      "midi": 55,
      "time": 55.781,
      "duration": 0.067,
      "velocity": 1,
      "hand": "left"
    },
    {
      "midi": 67,
      "time": 55.781,
      "duration": 0.067,
      "velocity": 1,
      "hand": "right"
    },
    {
      "midi": 56,
      "time": 55.915,
      "duration": 0.067,
      "velocity": 1,
      "hand": "left"
    },
    {
      "midi": 68,
      "time": 55.915,
      "duration": 0.067,
      "velocity": 1,
      "hand": "right"
    },
    {
      "midi": 59,
      "time": 55.982,
      "duration": 0.067,
      "velocity": 1,
      "hand": "left"
    },
    {
      "midi": 71,
      "time": 55.982,
      "duration": 0.067,
      "velocity": 1,
      "hand": "right"
    },
    {
      "midi": 54,
      "time": 56.049,
      "duration": 0.067,
      "velocity": 1,
      "hand": "left"
    },
    {
      "midi": 66,
      "time": 56.049,
      "duration": 0.067,
      "velocity": 1,
      "hand": "right"
    },
    {
      "midi": 63,
      "time": 56.183,
      "duration": 0.067,
      "velocity": 1,
      "hand": "right"
    },
    {
      "midi": 75,
      "time": 56.183,
      "duration": 0.067,
      "velocity": 1,
      "hand": "right"
    },
    {
      "midi": 58,
      "time": 56.25,
      "duration": 0.067,
      "velocity": 1,
      "hand": "left"
    },
    {
      "midi": 70,
      "time": 56.25,
      "duration": 0.067,
      "velocity": 1,
      "hand": "right"
    },
    {
      "midi": 53,
      "time": 56.317,
      "duration": 0.067,
      "velocity": 1,
      "hand": "left"
    },
    {
      "midi": 65,
      "time": 56.317,
      "duration": 0.067,
      "velocity": 1,
      "hand": "right"
    },
    {
      "midi": 54,
      "time": 56.451,
      "duration": 0.067,
      "velocity": 1,
      "hand": "left"
    },
    {
      "midi": 66,
      "time": 56.451,
      "duration": 0.067,
      "velocity": 1,
      "hand": "right"
    },
    {
      "midi": 57,
      "time": 56.518,
      "duration": 0.067,
      "velocity": 1,
      "hand": "left"
    },
    {
      "midi": 69,
      "time": 56.518,
      "duration": 0.067,
      "velocity": 1,
      "hand": "right"
    },
    {
      "midi": 52,
      "time": 56.585,
      "duration": 0.067,
      "velocity": 1,
      "hand": "left"
    },
    {
      "midi": 64,
      "time": 56.585,
      "duration": 0.067,
      "velocity": 1,
      "hand": "right"
    },
    {
      "midi": 61,
      "time": 56.719,
      "duration": 0.067,
      "velocity": 1,
      "hand": "right"
    },
    {
      "midi": 73,
      "time": 56.719,
      "duration": 0.067,
      "velocity": 1,
      "hand": "right"
    },
    {
      "midi": 56,
      "time": 56.786,
      "duration": 0.067,
      "velocity": 1,
      "hand": "left"
    },
    {
      "midi": 68,
      "time": 56.786,
      "duration": 0.067,
      "velocity": 1,
      "hand": "right"
    },
    {
      "midi": 51,
      "time": 56.853,
      "duration": 0.067,
      "velocity": 1,
      "hand": "left"
    },
    {
      "midi": 63,
      "time": 56.853,
      "duration": 0.067,
      "velocity": 1,
      "hand": "right"
    },
    {
      "midi": 52,
      "time": 56.987,
      "duration": 0.067,
      "velocity": 1,
      "hand": "left"
    },
    {
      "midi": 64,
      "time": 56.987,
      "duration": 0.067,
      "velocity": 1,
      "hand": "right"
    },
    {
      "midi": 55,
      "time": 57.054,
      "duration": 0.067,
      "velocity": 1,
      "hand": "left"
    },
    {
      "midi": 67,
      "time": 57.054,
      "duration": 0.067,
      "velocity": 1,
      "hand": "right"
    },
    {
      "midi": 50,
      "time": 57.121,
      "duration": 0.067,
      "velocity": 1,
      "hand": "left"
    },
    {
      "midi": 62,
      "time": 57.121,
      "duration": 0.067,
      "velocity": 1,
      "hand": "right"
    },
    {
      "midi": 59,
      "time": 57.254,
      "duration": 0.067,
      "velocity": 1,
      "hand": "left"
    },
    {
      "midi": 71,
      "time": 57.254,
      "duration": 0.067,
      "velocity": 1,
      "hand": "right"
    },
    {
      "midi": 54,
      "time": 57.321,
      "duration": 0.067,
      "velocity": 1,
      "hand": "left"
    },
    {
      "midi": 66,
      "time": 57.321,
      "duration": 0.067,
      "velocity": 1,
      "hand": "right"
    },
    {
      "midi": 49,
      "time": 57.388,
      "duration": 0.067,
      "velocity": 1,
      "hand": "left"
    },
    {
      "midi": 61,
      "time": 57.388,
      "duration": 0.067,
      "velocity": 1,
      "hand": "right"
    },
    {
      "midi": 50,
      "time": 57.522,
      "duration": 0.067,
      "velocity": 1,
      "hand": "left"
    },
    {
      "midi": 62,
      "time": 57.522,
      "duration": 0.067,
      "velocity": 1,
      "hand": "right"
    },
    {
      "midi": 53,
      "time": 57.589,
      "duration": 0.067,
      "velocity": 1,
      "hand": "left"
    },
    {
      "midi": 65,
      "time": 57.589,
      "duration": 0.067,
      "velocity": 1,
      "hand": "right"
    },
    {
      "midi": 48,
      "time": 57.656,
      "duration": 0.067,
      "velocity": 1,
      "hand": "left"
    },
    {
      "midi": 60,
      "time": 57.656,
      "duration": 0.067,
      "velocity": 1,
      "hand": "right"
    },
    {
      "midi": 57,
      "time": 57.79,
      "duration": 0.067,
      "velocity": 1,
      "hand": "left"
    },
    {
      "midi": 69,
      "time": 57.79,
      "duration": 0.067,
      "velocity": 1,
      "hand": "right"
    },
    {
      "midi": 62,
      "time": 57.857,
      "duration": 0.067,
      "velocity": 1,
      "hand": "right"
    },
    {
      "midi": 74,
      "time": 57.857,
      "duration": 0.067,
      "velocity": 1,
      "hand": "right"
    },
    {
      "midi": 57,
      "time": 57.924,
      "duration": 0.067,
      "velocity": 1,
      "hand": "left"
    },
    {
      "midi": 69,
      "time": 57.924,
      "duration": 0.067,
      "velocity": 1,
      "hand": "right"
    },
    {
      "midi": 58,
      "time": 58.058,
      "duration": 0.067,
      "velocity": 1,
      "hand": "left"
    },
    {
      "midi": 70,
      "time": 58.058,
      "duration": 0.067,
      "velocity": 1,
      "hand": "right"
    },
    {
      "midi": 61,
      "time": 58.125,
      "duration": 0.067,
      "velocity": 1,
      "hand": "right"
    },
    {
      "midi": 73,
      "time": 58.125,
      "duration": 0.067,
      "velocity": 1,
      "hand": "right"
    },
    {
      "midi": 56,
      "time": 58.192,
      "duration": 0.067,
      "velocity": 1,
      "hand": "left"
    },
    {
      "midi": 68,
      "time": 58.192,
      "duration": 0.067,
      "velocity": 1,
      "hand": "right"
    },
    {
      "midi": 65,
      "time": 58.326,
      "duration": 0.067,
      "velocity": 1,
      "hand": "right"
    },
    {
      "midi": 77,
      "time": 58.326,
      "duration": 0.067,
      "velocity": 1,
      "hand": "right"
    },
    {
      "midi": 60,
      "time": 58.393,
      "duration": 0.067,
      "velocity": 1,
      "hand": "right"
    },
    {
      "midi": 72,
      "time": 58.393,
      "duration": 0.067,
      "velocity": 1,
      "hand": "right"
    },
    {
      "midi": 55,
      "time": 58.46,
      "duration": 0.067,
      "velocity": 1,
      "hand": "left"
    },
    {
      "midi": 67,
      "time": 58.46,
      "duration": 0.067,
      "velocity": 1,
      "hand": "right"
    },
    {
      "midi": 56,
      "time": 58.594,
      "duration": 0.067,
      "velocity": 1,
      "hand": "left"
    },
    {
      "midi": 68,
      "time": 58.594,
      "duration": 0.067,
      "velocity": 1,
      "hand": "right"
    },
    {
      "midi": 59,
      "time": 58.661,
      "duration": 0.067,
      "velocity": 1,
      "hand": "left"
    },
    {
      "midi": 71,
      "time": 58.661,
      "duration": 0.067,
      "velocity": 1,
      "hand": "right"
    },
    {
      "midi": 54,
      "time": 58.728,
      "duration": 0.067,
      "velocity": 1,
      "hand": "left"
    },
    {
      "midi": 66,
      "time": 58.728,
      "duration": 0.067,
      "velocity": 1,
      "hand": "right"
    },
    {
      "midi": 63,
      "time": 58.862,
      "duration": 0.067,
      "velocity": 1,
      "hand": "right"
    },
    {
      "midi": 75,
      "time": 58.862,
      "duration": 0.067,
      "velocity": 1,
      "hand": "right"
    },
    {
      "midi": 58,
      "time": 58.929,
      "duration": 0.067,
      "velocity": 1,
      "hand": "left"
    },
    {
      "midi": 70,
      "time": 58.929,
      "duration": 0.067,
      "velocity": 1,
      "hand": "right"
    },
    {
      "midi": 53,
      "time": 58.996,
      "duration": 0.067,
      "velocity": 1,
      "hand": "left"
    },
    {
      "midi": 65,
      "time": 58.996,
      "duration": 0.067,
      "velocity": 1,
      "hand": "right"
    },
    {
      "midi": 54,
      "time": 59.129,
      "duration": 0.067,
      "velocity": 1,
      "hand": "left"
    },
    {
      "midi": 66,
      "time": 59.129,
      "duration": 0.067,
      "velocity": 1,
      "hand": "right"
    },
    {
      "midi": 57,
      "time": 59.196,
      "duration": 0.067,
      "velocity": 1,
      "hand": "left"
    },
    {
      "midi": 69,
      "time": 59.196,
      "duration": 0.067,
      "velocity": 1,
      "hand": "right"
    },
    {
      "midi": 52,
      "time": 59.263,
      "duration": 0.067,
      "velocity": 1,
      "hand": "left"
    },
    {
      "midi": 64,
      "time": 59.263,
      "duration": 0.067,
      "velocity": 1,
      "hand": "right"
    },
    {
      "midi": 61,
      "time": 59.397,
      "duration": 0.067,
      "velocity": 1,
      "hand": "right"
    },
    {
      "midi": 73,
      "time": 59.397,
      "duration": 0.067,
      "velocity": 1,
      "hand": "right"
    },
    {
      "midi": 56,
      "time": 59.464,
      "duration": 0.067,
      "velocity": 1,
      "hand": "left"
    },
    {
      "midi": 68,
      "time": 59.464,
      "duration": 0.067,
      "velocity": 1,
      "hand": "right"
    },
    {
      "midi": 51,
      "time": 59.531,
      "duration": 0.067,
      "velocity": 1,
      "hand": "left"
    },
    {
      "midi": 63,
      "time": 59.531,
      "duration": 0.067,
      "velocity": 1,
      "hand": "right"
    },
    {
      "midi": 52,
      "time": 59.665,
      "duration": 0.067,
      "velocity": 1,
      "hand": "left"
    },
    {
      "midi": 64,
      "time": 59.665,
      "duration": 0.067,
      "velocity": 1,
      "hand": "right"
    },
    {
      "midi": 55,
      "time": 59.732,
      "duration": 0.067,
      "velocity": 1,
      "hand": "left"
    },
    {
      "midi": 67,
      "time": 59.732,
      "duration": 0.067,
      "velocity": 1,
      "hand": "right"
    },
    {
      "midi": 50,
      "time": 59.799,
      "duration": 0.067,
      "velocity": 1,
      "hand": "left"
    },
    {
      "midi": 62,
      "time": 59.799,
      "duration": 0.067,
      "velocity": 1,
      "hand": "right"
    },
    {
      "midi": 59,
      "time": 59.933,
      "duration": 0.067,
      "velocity": 1,
      "hand": "left"
    },
    {
      "midi": 71,
      "time": 59.933,
      "duration": 0.067,
      "velocity": 1,
      "hand": "right"
    },
    {
      "midi": 64,
      "time": 60,
      "duration": 0.067,
      "velocity": 1,
      "hand": "right"
    },
    {
      "midi": 76,
      "time": 60,
      "duration": 0.067,
      "velocity": 1,
      "hand": "right"
    },
    {
      "midi": 59,
      "time": 60.067,
      "duration": 0.067,
      "velocity": 1,
      "hand": "left"
    },
    {
      "midi": 71,
      "time": 60.067,
      "duration": 0.067,
      "velocity": 1,
      "hand": "right"
    },
    {
      "midi": 60,
      "time": 60.201,
      "duration": 0.067,
      "velocity": 1,
      "hand": "right"
    },
    {
      "midi": 72,
      "time": 60.201,
      "duration": 0.067,
      "velocity": 1,
      "hand": "right"
    },
    {
      "midi": 63,
      "time": 60.268,
      "duration": 0.067,
      "velocity": 1,
      "hand": "right"
    },
    {
      "midi": 75,
      "time": 60.268,
      "duration": 0.067,
      "velocity": 1,
      "hand": "right"
    },
    {
      "midi": 58,
      "time": 60.335,
      "duration": 0.067,
      "velocity": 1,
      "hand": "left"
    },
    {
      "midi": 70,
      "time": 60.335,
      "duration": 0.067,
      "velocity": 1,
      "hand": "right"
    },
    {
      "midi": 67,
      "time": 60.469,
      "duration": 0.067,
      "velocity": 1,
      "hand": "right"
    },
    {
      "midi": 79,
      "time": 60.469,
      "duration": 0.067,
      "velocity": 1,
      "hand": "right"
    },
    {
      "midi": 62,
      "time": 60.536,
      "duration": 0.067,
      "velocity": 1,
      "hand": "right"
    },
    {
      "midi": 74,
      "time": 60.536,
      "duration": 0.067,
      "velocity": 1,
      "hand": "right"
    },
    {
      "midi": 57,
      "time": 60.603,
      "duration": 0.067,
      "velocity": 1,
      "hand": "left"
    },
    {
      "midi": 69,
      "time": 60.603,
      "duration": 0.067,
      "velocity": 1,
      "hand": "right"
    },
    {
      "midi": 58,
      "time": 60.737,
      "duration": 0.067,
      "velocity": 1,
      "hand": "left"
    },
    {
      "midi": 70,
      "time": 60.737,
      "duration": 0.067,
      "velocity": 1,
      "hand": "right"
    },
    {
      "midi": 61,
      "time": 60.804,
      "duration": 0.067,
      "velocity": 1,
      "hand": "right"
    },
    {
      "midi": 73,
      "time": 60.804,
      "duration": 0.067,
      "velocity": 1,
      "hand": "right"
    },
    {
      "midi": 56,
      "time": 60.871,
      "duration": 0.067,
      "velocity": 1,
      "hand": "left"
    },
    {
      "midi": 68,
      "time": 60.871,
      "duration": 0.067,
      "velocity": 1,
      "hand": "right"
    },
    {
      "midi": 65,
      "time": 61.004,
      "duration": 0.067,
      "velocity": 1,
      "hand": "right"
    },
    {
      "midi": 77,
      "time": 61.004,
      "duration": 0.067,
      "velocity": 1,
      "hand": "right"
    },
    {
      "midi": 60,
      "time": 61.071,
      "duration": 0.067,
      "velocity": 1,
      "hand": "right"
    },
    {
      "midi": 72,
      "time": 61.071,
      "duration": 0.067,
      "velocity": 1,
      "hand": "right"
    },
    {
      "midi": 55,
      "time": 61.138,
      "duration": 0.067,
      "velocity": 1,
      "hand": "left"
    },
    {
      "midi": 67,
      "time": 61.138,
      "duration": 0.067,
      "velocity": 1,
      "hand": "right"
    },
    {
      "midi": 56,
      "time": 61.272,
      "duration": 0.067,
      "velocity": 1,
      "hand": "left"
    },
    {
      "midi": 68,
      "time": 61.272,
      "duration": 0.067,
      "velocity": 1,
      "hand": "right"
    },
    {
      "midi": 59,
      "time": 61.339,
      "duration": 0.067,
      "velocity": 1,
      "hand": "left"
    },
    {
      "midi": 71,
      "time": 61.339,
      "duration": 0.067,
      "velocity": 1,
      "hand": "right"
    },
    {
      "midi": 54,
      "time": 61.406,
      "duration": 0.067,
      "velocity": 1,
      "hand": "left"
    },
    {
      "midi": 66,
      "time": 61.406,
      "duration": 0.067,
      "velocity": 1,
      "hand": "right"
    },
    {
      "midi": 63,
      "time": 61.54,
      "duration": 0.067,
      "velocity": 1,
      "hand": "right"
    },
    {
      "midi": 75,
      "time": 61.54,
      "duration": 0.067,
      "velocity": 1,
      "hand": "right"
    },
    {
      "midi": 58,
      "time": 61.607,
      "duration": 0.067,
      "velocity": 1,
      "hand": "left"
    },
    {
      "midi": 70,
      "time": 61.607,
      "duration": 0.067,
      "velocity": 1,
      "hand": "right"
    },
    {
      "midi": 53,
      "time": 61.674,
      "duration": 0.067,
      "velocity": 1,
      "hand": "left"
    },
    {
      "midi": 65,
      "time": 61.674,
      "duration": 0.067,
      "velocity": 1,
      "hand": "right"
    },
    {
      "midi": 63,
      "time": 61.808,
      "duration": 0.067,
      "velocity": 1,
      "hand": "right"
    },
    {
      "midi": 75,
      "time": 61.808,
      "duration": 0.067,
      "velocity": 1,
      "hand": "right"
    },
    {
      "midi": 58,
      "time": 61.875,
      "duration": 0.067,
      "velocity": 1,
      "hand": "left"
    },
    {
      "midi": 70,
      "time": 61.875,
      "duration": 0.067,
      "velocity": 1,
      "hand": "right"
    },
    {
      "midi": 53,
      "time": 61.942,
      "duration": 0.067,
      "velocity": 1,
      "hand": "left"
    },
    {
      "midi": 65,
      "time": 61.942,
      "duration": 0.067,
      "velocity": 1,
      "hand": "right"
    },
    {
      "midi": 61,
      "time": 62.076,
      "duration": 0.067,
      "velocity": 1,
      "hand": "right"
    },
    {
      "midi": 73,
      "time": 62.076,
      "duration": 0.067,
      "velocity": 1,
      "hand": "right"
    },
    {
      "midi": 54,
      "time": 62.143,
      "duration": 0.067,
      "velocity": 1,
      "hand": "left"
    },
    {
      "midi": 66,
      "time": 62.143,
      "duration": 0.067,
      "velocity": 1,
      "hand": "right"
    },
    {
      "midi": 53,
      "time": 62.21,
      "duration": 0.067,
      "velocity": 1,
      "hand": "left"
    },
    {
      "midi": 65,
      "time": 62.21,
      "duration": 0.067,
      "velocity": 1,
      "hand": "right"
    },
    {
      "midi": 52,
      "time": 62.344,
      "duration": 0.067,
      "velocity": 1,
      "hand": "left"
    },
    {
      "midi": 64,
      "time": 62.344,
      "duration": 0.067,
      "velocity": 1,
      "hand": "right"
    },
    {
      "midi": 51,
      "time": 62.411,
      "duration": 0.067,
      "velocity": 1,
      "hand": "left"
    },
    {
      "midi": 63,
      "time": 62.411,
      "duration": 0.067,
      "velocity": 1,
      "hand": "right"
    },
    {
      "midi": 49,
      "time": 62.478,
      "duration": 0.067,
      "velocity": 1,
      "hand": "left"
    },
    {
      "midi": 61,
      "time": 62.478,
      "duration": 0.067,
      "velocity": 1,
      "hand": "right"
    },
    {
      "midi": 48,
      "time": 62.612,
      "duration": 0.067,
      "velocity": 1,
      "hand": "left"
    },
    {
      "midi": 60,
      "time": 62.612,
      "duration": 0.067,
      "velocity": 1,
      "hand": "right"
    },
    {
      "midi": 54,
      "time": 62.679,
      "duration": 0.067,
      "velocity": 1,
      "hand": "left"
    },
    {
      "midi": 66,
      "time": 62.679,
      "duration": 0.067,
      "velocity": 1,
      "hand": "right"
    },
    {
      "midi": 53,
      "time": 62.746,
      "duration": 0.067,
      "velocity": 1,
      "hand": "left"
    },
    {
      "midi": 65,
      "time": 62.746,
      "duration": 0.067,
      "velocity": 1,
      "hand": "right"
    },
    {
      "midi": 51,
      "time": 62.879,
      "duration": 0.067,
      "velocity": 1,
      "hand": "left"
    },
    {
      "midi": 63,
      "time": 62.879,
      "duration": 0.067,
      "velocity": 1,
      "hand": "right"
    },
    {
      "midi": 49,
      "time": 62.946,
      "duration": 0.067,
      "velocity": 1,
      "hand": "left"
    },
    {
      "midi": 61,
      "time": 62.946,
      "duration": 0.067,
      "velocity": 1,
      "hand": "right"
    },
    {
      "midi": 48,
      "time": 63.013,
      "duration": 0.067,
      "velocity": 1,
      "hand": "left"
    },
    {
      "midi": 60,
      "time": 63.013,
      "duration": 0.067,
      "velocity": 1,
      "hand": "right"
    },
    {
      "midi": 46,
      "time": 63.147,
      "duration": 0.067,
      "velocity": 1,
      "hand": "left"
    },
    {
      "midi": 58,
      "time": 63.147,
      "duration": 0.067,
      "velocity": 1,
      "hand": "left"
    },
    {
      "midi": 54,
      "time": 63.214,
      "duration": 0.067,
      "velocity": 1,
      "hand": "left"
    },
    {
      "midi": 66,
      "time": 63.214,
      "duration": 0.067,
      "velocity": 1,
      "hand": "right"
    },
    {
      "midi": 53,
      "time": 63.281,
      "duration": 0.067,
      "velocity": 1,
      "hand": "left"
    },
    {
      "midi": 65,
      "time": 63.281,
      "duration": 0.067,
      "velocity": 1,
      "hand": "right"
    },
    {
      "midi": 51,
      "time": 63.415,
      "duration": 0.067,
      "velocity": 1,
      "hand": "left"
    },
    {
      "midi": 63,
      "time": 63.415,
      "duration": 0.067,
      "velocity": 1,
      "hand": "right"
    },
    {
      "midi": 49,
      "time": 63.482,
      "duration": 0.067,
      "velocity": 1,
      "hand": "left"
    },
    {
      "midi": 61,
      "time": 63.482,
      "duration": 0.067,
      "velocity": 1,
      "hand": "right"
    },
    {
      "midi": 48,
      "time": 63.549,
      "duration": 0.067,
      "velocity": 1,
      "hand": "left"
    },
    {
      "midi": 60,
      "time": 63.549,
      "duration": 0.067,
      "velocity": 1,
      "hand": "right"
    },
    {
      "midi": 47,
      "time": 63.683,
      "duration": 0.067,
      "velocity": 1,
      "hand": "left"
    },
    {
      "midi": 59,
      "time": 63.683,
      "duration": 0.067,
      "velocity": 1,
      "hand": "left"
    },
    {
      "midi": 54,
      "time": 63.75,
      "duration": 0.067,
      "velocity": 1,
      "hand": "left"
    },
    {
      "midi": 66,
      "time": 63.75,
      "duration": 0.067,
      "velocity": 1,
      "hand": "right"
    },
    {
      "midi": 53,
      "time": 63.817,
      "duration": 0.067,
      "velocity": 1,
      "hand": "left"
    },
    {
      "midi": 65,
      "time": 63.817,
      "duration": 0.067,
      "velocity": 1,
      "hand": "right"
    },
    {
      "midi": 51,
      "time": 63.951,
      "duration": 0.067,
      "velocity": 1,
      "hand": "left"
    },
    {
      "midi": 63,
      "time": 63.951,
      "duration": 0.067,
      "velocity": 1,
      "hand": "right"
    },
    {
      "midi": 49,
      "time": 64.018,
      "duration": 0.067,
      "velocity": 1,
      "hand": "left"
    },
    {
      "midi": 61,
      "time": 64.018,
      "duration": 0.067,
      "velocity": 1,
      "hand": "right"
    },
    {
      "midi": 47,
      "time": 64.085,
      "duration": 0.067,
      "velocity": 1,
      "hand": "left"
    },
    {
      "midi": 59,
      "time": 64.085,
      "duration": 0.067,
      "velocity": 1,
      "hand": "left"
    },
    {
      "midi": 46,
      "time": 64.219,
      "duration": 0.067,
      "velocity": 1,
      "hand": "left"
    },
    {
      "midi": 58,
      "time": 64.219,
      "duration": 0.067,
      "velocity": 1,
      "hand": "left"
    },
    {
      "midi": 45,
      "time": 64.286,
      "duration": 0.067,
      "velocity": 1,
      "hand": "left"
    },
    {
      "midi": 57,
      "time": 64.286,
      "duration": 0.067,
      "velocity": 1,
      "hand": "left"
    },
    {
      "midi": 46,
      "time": 64.353,
      "duration": 0.067,
      "velocity": 1,
      "hand": "left"
    },
    {
      "midi": 58,
      "time": 64.353,
      "duration": 0.067,
      "velocity": 1,
      "hand": "left"
    },
    {
      "midi": 48,
      "time": 64.487,
      "duration": 0.067,
      "velocity": 1,
      "hand": "left"
    },
    {
      "midi": 60,
      "time": 64.487,
      "duration": 0.067,
      "velocity": 1,
      "hand": "right"
    },
    {
      "midi": 51,
      "time": 64.554,
      "duration": 0.067,
      "velocity": 1,
      "hand": "left"
    },
    {
      "midi": 63,
      "time": 64.554,
      "duration": 0.067,
      "velocity": 1,
      "hand": "right"
    },
    {
      "midi": 49,
      "time": 64.621,
      "duration": 0.067,
      "velocity": 1,
      "hand": "left"
    },
    {
      "midi": 61,
      "time": 64.621,
      "duration": 0.067,
      "velocity": 1,
      "hand": "right"
    },
    {
      "midi": 45,
      "time": 64.754,
      "duration": 0.067,
      "velocity": 1,
      "hand": "left"
    },
    {
      "midi": 57,
      "time": 64.754,
      "duration": 0.067,
      "velocity": 1,
      "hand": "left"
    },
    {
      "midi": 48,
      "time": 64.821,
      "duration": 0.067,
      "velocity": 1,
      "hand": "left"
    },
    {
      "midi": 60,
      "time": 64.821,
      "duration": 0.067,
      "velocity": 1,
      "hand": "right"
    },
    {
      "midi": 46,
      "time": 64.888,
      "duration": 0.067,
      "velocity": 1,
      "hand": "left"
    },
    {
      "midi": 58,
      "time": 64.888,
      "duration": 0.067,
      "velocity": 1,
      "hand": "left"
    },
    {
      "midi": 41,
      "time": 65.022,
      "duration": 0.067,
      "velocity": 1,
      "hand": "left"
    },
    {
      "midi": 53,
      "time": 65.022,
      "duration": 0.067,
      "velocity": 1,
      "hand": "left"
    },
    {
      "midi": 44,
      "time": 65.089,
      "duration": 0.067,
      "velocity": 1,
      "hand": "left"
    },
    {
      "midi": 56,
      "time": 65.089,
      "duration": 0.067,
      "velocity": 1,
      "hand": "left"
    },
    {
      "midi": 42,
      "time": 65.156,
      "duration": 0.067,
      "velocity": 1,
      "hand": "left"
    },
    {
      "midi": 54,
      "time": 65.156,
      "duration": 0.067,
      "velocity": 1,
      "hand": "left"
    },
    {
      "midi": 41,
      "time": 65.29,
      "duration": 0.067,
      "velocity": 1,
      "hand": "left"
    },
    {
      "midi": 53,
      "time": 65.29,
      "duration": 0.067,
      "velocity": 1,
      "hand": "left"
    },
    {
      "midi": 39,
      "time": 65.357,
      "duration": 0.067,
      "velocity": 1,
      "hand": "left"
    },
    {
      "midi": 51,
      "time": 65.357,
      "duration": 0.067,
      "velocity": 1,
      "hand": "left"
    },
    {
      "midi": 41,
      "time": 65.424,
      "duration": 0.067,
      "velocity": 1,
      "hand": "left"
    },
    {
      "midi": 53,
      "time": 65.424,
      "duration": 0.067,
      "velocity": 1,
      "hand": "left"
    },
    {
      "midi": 42,
      "time": 65.558,
      "duration": 0.067,
      "velocity": 1,
      "hand": "left"
    },
    {
      "midi": 54,
      "time": 65.558,
      "duration": 0.067,
      "velocity": 1,
      "hand": "left"
    },
    {
      "midi": 46,
      "time": 65.625,
      "duration": 0.067,
      "velocity": 1,
      "hand": "left"
    },
    {
      "midi": 58,
      "time": 65.625,
      "duration": 0.067,
      "velocity": 1,
      "hand": "left"
    },
    {
      "midi": 44,
      "time": 65.692,
      "duration": 0.067,
      "velocity": 1,
      "hand": "left"
    },
    {
      "midi": 56,
      "time": 65.692,
      "duration": 0.067,
      "velocity": 1,
      "hand": "left"
    },
    {
      "midi": 42,
      "time": 65.826,
      "duration": 0.067,
      "velocity": 1,
      "hand": "left"
    },
    {
      "midi": 54,
      "time": 65.826,
      "duration": 0.067,
      "velocity": 1,
      "hand": "left"
    },
    {
      "midi": 41,
      "time": 65.893,
      "duration": 0.067,
      "velocity": 1,
      "hand": "left"
    },
    {
      "midi": 53,
      "time": 65.893,
      "duration": 0.067,
      "velocity": 1,
      "hand": "left"
    },
    {
      "midi": 37,
      "time": 65.96,
      "duration": 0.067,
      "velocity": 1,
      "hand": "left"
    },
    {
      "midi": 49,
      "time": 65.96,
      "duration": 0.067,
      "velocity": 1,
      "hand": "left"
    },
    {
      "midi": 39,
      "time": 66.094,
      "duration": 0.067,
      "velocity": 1,
      "hand": "left"
    },
    {
      "midi": 51,
      "time": 66.094,
      "duration": 0.067,
      "velocity": 1,
      "hand": "left"
    },
    {
      "midi": 41,
      "time": 66.161,
      "duration": 0.067,
      "velocity": 1,
      "hand": "left"
    },
    {
      "midi": 53,
      "time": 66.161,
      "duration": 0.067,
      "velocity": 1,
      "hand": "left"
    },
    {
      "midi": 40,
      "time": 66.228,
      "duration": 0.067,
      "velocity": 1,
      "hand": "left"
    },
    {
      "midi": 52,
      "time": 66.228,
      "duration": 0.067,
      "velocity": 1,
      "hand": "left"
    },
    {
      "midi": 41,
      "time": 66.362,
      "duration": 0.067,
      "velocity": 1,
      "hand": "left"
    },
    {
      "midi": 53,
      "time": 66.362,
      "duration": 0.067,
      "velocity": 1,
      "hand": "left"
    },
    {
      "midi": 42,
      "time": 66.429,
      "duration": 0.067,
      "velocity": 1,
      "hand": "left"
    },
    {
      "midi": 54,
      "time": 66.429,
      "duration": 0.067,
      "velocity": 1,
      "hand": "left"
    },
    {
      "midi": 41,
      "time": 66.496,
      "duration": 0.067,
      "velocity": 1,
      "hand": "left"
    },
    {
      "midi": 53,
      "time": 66.496,
      "duration": 0.067,
      "velocity": 1,
      "hand": "left"
    },
    {
      "midi": 40,
      "time": 66.629,
      "duration": 0.067,
      "velocity": 1,
      "hand": "left"
    },
    {
      "midi": 52,
      "time": 66.629,
      "duration": 0.067,
      "velocity": 1,
      "hand": "left"
    },
    {
      "midi": 39,
      "time": 66.696,
      "duration": 0.067,
      "velocity": 1,
      "hand": "left"
    },
    {
      "midi": 51,
      "time": 66.696,
      "duration": 0.067,
      "velocity": 1,
      "hand": "left"
    },
    {
      "midi": 37,
      "time": 66.763,
      "duration": 0.067,
      "velocity": 1,
      "hand": "left"
    },
    {
      "midi": 49,
      "time": 66.763,
      "duration": 0.067,
      "velocity": 1,
      "hand": "left"
    },
    {
      "midi": 36,
      "time": 66.897,
      "duration": 0.067,
      "velocity": 1,
      "hand": "left"
    },
    {
      "midi": 48,
      "time": 66.897,
      "duration": 0.067,
      "velocity": 1,
      "hand": "left"
    },
    {
      "midi": 42,
      "time": 66.964,
      "duration": 0.067,
      "velocity": 1,
      "hand": "left"
    },
    {
      "midi": 54,
      "time": 66.964,
      "duration": 0.067,
      "velocity": 1,
      "hand": "left"
    },
    {
      "midi": 41,
      "time": 67.031,
      "duration": 0.067,
      "velocity": 1,
      "hand": "left"
    },
    {
      "midi": 53,
      "time": 67.031,
      "duration": 0.067,
      "velocity": 1,
      "hand": "left"
    },
    {
      "midi": 39,
      "time": 67.165,
      "duration": 0.067,
      "velocity": 1,
      "hand": "left"
    },
    {
      "midi": 51,
      "time": 67.165,
      "duration": 0.067,
      "velocity": 1,
      "hand": "left"
    },
    {
      "midi": 37,
      "time": 67.232,
      "duration": 0.067,
      "velocity": 1,
      "hand": "left"
    },
    {
      "midi": 49,
      "time": 67.232,
      "duration": 0.067,
      "velocity": 1,
      "hand": "left"
    },
    {
      "midi": 36,
      "time": 67.299,
      "duration": 0.067,
      "velocity": 1,
      "hand": "left"
    },
    {
      "midi": 48,
      "time": 67.299,
      "duration": 0.067,
      "velocity": 1,
      "hand": "left"
    },
    {
      "midi": 34,
      "time": 67.433,
      "duration": 0.067,
      "velocity": 1,
      "hand": "left"
    },
    {
      "midi": 46,
      "time": 67.433,
      "duration": 0.067,
      "velocity": 1,
      "hand": "left"
    },
    {
      "midi": 42,
      "time": 67.5,
      "duration": 0.067,
      "velocity": 1,
      "hand": "left"
    },
    {
      "midi": 54,
      "time": 67.5,
      "duration": 0.067,
      "velocity": 1,
      "hand": "left"
    },
    {
      "midi": 41,
      "time": 67.567,
      "duration": 0.067,
      "velocity": 1,
      "hand": "left"
    },
    {
      "midi": 53,
      "time": 67.567,
      "duration": 0.067,
      "velocity": 1,
      "hand": "left"
    },
    {
      "midi": 39,
      "time": 67.701,
      "duration": 0.067,
      "velocity": 1,
      "hand": "left"
    },
    {
      "midi": 51,
      "time": 67.701,
      "duration": 0.067,
      "velocity": 1,
      "hand": "left"
    },
    {
      "midi": 37,
      "time": 67.768,
      "duration": 0.067,
      "velocity": 1,
      "hand": "left"
    },
    {
      "midi": 49,
      "time": 67.768,
      "duration": 0.067,
      "velocity": 1,
      "hand": "left"
    },
    {
      "midi": 36,
      "time": 67.835,
      "duration": 0.067,
      "velocity": 1,
      "hand": "left"
    },
    {
      "midi": 48,
      "time": 67.835,
      "duration": 0.067,
      "velocity": 1,
      "hand": "left"
    },
    {
      "midi": 35,
      "time": 67.969,
      "duration": 0.067,
      "velocity": 1,
      "hand": "left"
    },
    {
      "midi": 47,
      "time": 67.969,
      "duration": 0.067,
      "velocity": 1,
      "hand": "left"
    },
    {
      "midi": 42,
      "time": 68.036,
      "duration": 0.067,
      "velocity": 1,
      "hand": "left"
    },
    {
      "midi": 54,
      "time": 68.036,
      "duration": 0.067,
      "velocity": 1,
      "hand": "left"
    },
    {
      "midi": 41,
      "time": 68.103,
      "duration": 0.067,
      "velocity": 1,
      "hand": "left"
    },
    {
      "midi": 53,
      "time": 68.103,
      "duration": 0.067,
      "velocity": 1,
      "hand": "left"
    },
    {
      "midi": 39,
      "time": 68.237,
      "duration": 0.067,
      "velocity": 1,
      "hand": "left"
    },
    {
      "midi": 51,
      "time": 68.237,
      "duration": 0.067,
      "velocity": 1,
      "hand": "left"
    },
    {
      "midi": 37,
      "time": 68.304,
      "duration": 0.067,
      "velocity": 1,
      "hand": "left"
    },
    {
      "midi": 49,
      "time": 68.304,
      "duration": 0.067,
      "velocity": 1,
      "hand": "left"
    },
    {
      "midi": 35,
      "time": 68.371,
      "duration": 0.067,
      "velocity": 1,
      "hand": "left"
    },
    {
      "midi": 47,
      "time": 68.371,
      "duration": 0.067,
      "velocity": 1,
      "hand": "left"
    },
    {
      "midi": 34,
      "time": 68.504,
      "duration": 0.067,
      "velocity": 1,
      "hand": "left"
    },
    {
      "midi": 46,
      "time": 68.504,
      "duration": 0.067,
      "velocity": 1,
      "hand": "left"
    },
    {
      "midi": 33,
      "time": 68.571,
      "duration": 0.067,
      "velocity": 1,
      "hand": "left"
    },
    {
      "midi": 45,
      "time": 68.571,
      "duration": 0.067,
      "velocity": 1,
      "hand": "left"
    },
    {
      "midi": 34,
      "time": 68.638,
      "duration": 0.067,
      "velocity": 1,
      "hand": "left"
    },
    {
      "midi": 46,
      "time": 68.638,
      "duration": 0.067,
      "velocity": 1,
      "hand": "left"
    },
    {
      "midi": 35,
      "time": 68.772,
      "duration": 0.067,
      "velocity": 1,
      "hand": "left"
    },
    {
      "midi": 47,
      "time": 68.772,
      "duration": 0.067,
      "velocity": 1,
      "hand": "left"
    },
    {
      "midi": 37,
      "time": 68.839,
      "duration": 0.067,
      "velocity": 1,
      "hand": "left"
    },
    {
      "midi": 49,
      "time": 68.839,
      "duration": 0.067,
      "velocity": 1,
      "hand": "left"
    },
    {
      "midi": 39,
      "time": 68.906,
      "duration": 0.067,
      "velocity": 1,
      "hand": "left"
    },
    {
      "midi": 51,
      "time": 68.906,
      "duration": 0.067,
      "velocity": 1,
      "hand": "left"
    },
    {
      "midi": 41,
      "time": 69.04,
      "duration": 0.067,
      "velocity": 1,
      "hand": "left"
    },
    {
      "midi": 53,
      "time": 69.04,
      "duration": 0.067,
      "velocity": 1,
      "hand": "left"
    },
    {
      "midi": 42,
      "time": 69.107,
      "duration": 0.067,
      "velocity": 1,
      "hand": "left"
    },
    {
      "midi": 54,
      "time": 69.107,
      "duration": 0.067,
      "velocity": 1,
      "hand": "left"
    },
    {
      "midi": 44,
      "time": 69.174,
      "duration": 0.067,
      "velocity": 1,
      "hand": "left"
    },
    {
      "midi": 56,
      "time": 69.174,
      "duration": 0.067,
      "velocity": 1,
      "hand": "left"
    },
    {
      "midi": 46,
      "time": 69.308,
      "duration": 0.067,
      "velocity": 1,
      "hand": "left"
    },
    {
      "midi": 58,
      "time": 69.308,
      "duration": 0.067,
      "velocity": 1,
      "hand": "left"
    },
    {
      "midi": 47,
      "time": 69.375,
      "duration": 0.067,
      "velocity": 1,
      "hand": "left"
    },
    {
      "midi": 59,
      "time": 69.375,
      "duration": 0.067,
      "velocity": 1,
      "hand": "left"
    },
    {
      "midi": 49,
      "time": 69.442,
      "duration": 0.067,
      "velocity": 1,
      "hand": "left"
    },
    {
      "midi": 61,
      "time": 69.442,
      "duration": 0.067,
      "velocity": 1,
      "hand": "right"
    },
    {
      "midi": 51,
      "time": 69.576,
      "duration": 0.067,
      "velocity": 1,
      "hand": "left"
    },
    {
      "midi": 63,
      "time": 69.576,
      "duration": 0.067,
      "velocity": 1,
      "hand": "right"
    },
    {
      "midi": 53,
      "time": 69.643,
      "duration": 0.067,
      "velocity": 1,
      "hand": "left"
    },
    {
      "midi": 65,
      "time": 69.643,
      "duration": 0.067,
      "velocity": 1,
      "hand": "right"
    },
    {
      "midi": 52,
      "time": 69.71,
      "duration": 0.067,
      "velocity": 1,
      "hand": "left"
    },
    {
      "midi": 64,
      "time": 69.71,
      "duration": 0.067,
      "velocity": 1,
      "hand": "right"
    },
    {
      "midi": 49,
      "time": 69.844,
      "duration": 0.067,
      "velocity": 1,
      "hand": "left"
    },
    {
      "midi": 61,
      "time": 69.844,
      "duration": 0.067,
      "velocity": 1,
      "hand": "right"
    },
    {
      "midi": 48,
      "time": 69.911,
      "duration": 0.067,
      "velocity": 1,
      "hand": "left"
    },
    {
      "midi": 60,
      "time": 69.911,
      "duration": 0.067,
      "velocity": 1,
      "hand": "right"
    },
    {
      "midi": 46,
      "time": 69.978,
      "duration": 0.067,
      "velocity": 1,
      "hand": "left"
    },
    {
      "midi": 58,
      "time": 69.978,
      "duration": 0.067,
      "velocity": 1,
      "hand": "left"
    },
    {
      "midi": 42,
      "time": 70.112,
      "duration": 0.067,
      "velocity": 1,
      "hand": "left"
    },
    {
      "midi": 54,
      "time": 70.112,
      "duration": 0.067,
      "velocity": 1,
      "hand": "left"
    },
    {
      "midi": 41,
      "time": 70.179,
      "duration": 0.067,
      "velocity": 1,
      "hand": "left"
    },
    {
      "midi": 53,
      "time": 70.179,
      "duration": 0.067,
      "velocity": 1,
      "hand": "left"
    },
    {
      "midi": 40,
      "time": 70.246,
      "duration": 0.067,
      "velocity": 1,
      "hand": "left"
    },
    {
      "midi": 52,
      "time": 70.246,
      "duration": 0.067,
      "velocity": 1,
      "hand": "left"
    },
    {
      "midi": 37,
      "time": 70.379,
      "duration": 0.067,
      "velocity": 1,
      "hand": "left"
    },
    {
      "midi": 49,
      "time": 70.379,
      "duration": 0.067,
      "velocity": 1,
      "hand": "left"
    },
    {
      "midi": 36,
      "time": 70.446,
      "duration": 0.067,
      "velocity": 1,
      "hand": "left"
    },
    {
      "midi": 48,
      "time": 70.446,
      "duration": 0.067,
      "velocity": 1,
      "hand": "left"
    },
    {
      "midi": 34,
      "time": 70.513,
      "duration": 0.067,
      "velocity": 1,
      "hand": "left"
    },
    {
      "midi": 46,
      "time": 70.513,
      "duration": 0.067,
      "velocity": 1,
      "hand": "left"
    },
    {
      "midi": 30,
      "time": 70.647,
      "duration": 0.067,
      "velocity": 1,
      "hand": "left"
    },
    {
      "midi": 42,
      "time": 70.647,
      "duration": 0.067,
      "velocity": 1,
      "hand": "left"
    },
    {
      "midi": 29,
      "time": 70.714,
      "duration": 0.067,
      "velocity": 1,
      "hand": "left"
    },
    {
      "midi": 41,
      "time": 70.714,
      "duration": 0.067,
      "velocity": 1,
      "hand": "left"
    },
    {
      "midi": 34,
      "time": 70.781,
      "duration": 0.067,
      "velocity": 1,
      "hand": "left"
    },
    {
      "midi": 46,
      "time": 70.781,
      "duration": 0.067,
      "velocity": 1,
      "hand": "left"
    },
    {
      "midi": 32,
      "time": 70.915,
      "duration": 0.067,
      "velocity": 1,
      "hand": "left"
    },
    {
      "midi": 44,
      "time": 70.915,
      "duration": 0.067,
      "velocity": 1,
      "hand": "left"
    },
    {
      "midi": 33,
      "time": 70.982,
      "duration": 0.067,
      "velocity": 1,
      "hand": "left"
    },
    {
      "midi": 45,
      "time": 70.982,
      "duration": 0.067,
      "velocity": 1,
      "hand": "left"
    },
    {
      "midi": 37,
      "time": 71.049,
      "duration": 0.067,
      "velocity": 1,
      "hand": "left"
    },
    {
      "midi": 49,
      "time": 71.049,
      "duration": 0.067,
      "velocity": 1,
      "hand": "left"
    },
    {
      "midi": 33,
      "time": 71.183,
      "duration": 0.067,
      "velocity": 1,
      "hand": "left"
    },
    {
      "midi": 45,
      "time": 71.183,
      "duration": 0.067,
      "velocity": 1,
      "hand": "left"
    },
    {
      "midi": 34,
      "time": 71.25,
      "duration": 0.067,
      "velocity": 1,
      "hand": "left"
    },
    {
      "midi": 46,
      "time": 71.25,
      "duration": 0.067,
      "velocity": 1,
      "hand": "left"
    },
    {
      "midi": 39,
      "time": 71.317,
      "duration": 0.067,
      "velocity": 1,
      "hand": "left"
    },
    {
      "midi": 51,
      "time": 71.317,
      "duration": 0.067,
      "velocity": 1,
      "hand": "left"
    },
    {
      "midi": 35,
      "time": 71.451,
      "duration": 0.067,
      "velocity": 1,
      "hand": "left"
    },
    {
      "midi": 47,
      "time": 71.451,
      "duration": 0.067,
      "velocity": 1,
      "hand": "left"
    },
    {
      "midi": 36,
      "time": 71.518,
      "duration": 0.067,
      "velocity": 1,
      "hand": "left"
    },
    {
      "midi": 48,
      "time": 71.518,
      "duration": 0.067,
      "velocity": 1,
      "hand": "left"
    },
    {
      "midi": 41,
      "time": 71.585,
      "duration": 0.067,
      "velocity": 1,
      "hand": "left"
    },
    {
      "midi": 53,
      "time": 71.585,
      "duration": 0.067,
      "velocity": 1,
      "hand": "left"
    },
    {
      "midi": 36,
      "time": 71.719,
      "duration": 0.067,
      "velocity": 1,
      "hand": "left"
    },
    {
      "midi": 48,
      "time": 71.719,
      "duration": 0.067,
      "velocity": 1,
      "hand": "left"
    },
    {
      "midi": 37,
      "time": 71.786,
      "duration": 0.067,
      "velocity": 1,
      "hand": "left"
    },
    {
      "midi": 49,
      "time": 71.786,
      "duration": 0.067,
      "velocity": 1,
      "hand": "left"
    },
    {
      "midi": 42,
      "time": 71.853,
      "duration": 0.067,
      "velocity": 1,
      "hand": "left"
    },
    {
      "midi": 54,
      "time": 71.853,
      "duration": 0.067,
      "velocity": 1,
      "hand": "left"
    },
    {
      "midi": 38,
      "time": 71.987,
      "duration": 0.067,
      "velocity": 1,
      "hand": "left"
    },
    {
      "midi": 50,
      "time": 71.987,
      "duration": 0.067,
      "velocity": 1,
      "hand": "left"
    },
    {
      "midi": 39,
      "time": 72.054,
      "duration": 0.067,
      "velocity": 1,
      "hand": "left"
    },
    {
      "midi": 51,
      "time": 72.054,
      "duration": 0.067,
      "velocity": 1,
      "hand": "left"
    },
    {
      "midi": 45,
      "time": 72.121,
      "duration": 0.067,
      "velocity": 1,
      "hand": "left"
    },
    {
      "midi": 57,
      "time": 72.121,
      "duration": 0.067,
      "velocity": 1,
      "hand": "left"
    },
    {
      "midi": 41,
      "time": 72.254,
      "duration": 0.067,
      "velocity": 1,
      "hand": "left"
    },
    {
      "midi": 53,
      "time": 72.254,
      "duration": 0.067,
      "velocity": 1,
      "hand": "left"
    },
    {
      "midi": 42,
      "time": 72.321,
      "duration": 0.067,
      "velocity": 1,
      "hand": "left"
    },
    {
      "midi": 54,
      "time": 72.321,
      "duration": 0.067,
      "velocity": 1,
      "hand": "left"
    },
    {
      "midi": 49,
      "time": 72.388,
      "duration": 0.067,
      "velocity": 1,
      "hand": "left"
    },
    {
      "midi": 61,
      "time": 72.388,
      "duration": 0.067,
      "velocity": 1,
      "hand": "right"
    },
    {
      "midi": 45,
      "time": 72.522,
      "duration": 0.067,
      "velocity": 1,
      "hand": "left"
    },
    {
      "midi": 57,
      "time": 72.522,
      "duration": 0.067,
      "velocity": 1,
      "hand": "left"
    },
    {
      "midi": 48,
      "time": 72.589,
      "duration": 0.067,
      "velocity": 1,
      "hand": "left"
    },
    {
      "midi": 60,
      "time": 72.589,
      "duration": 0.067,
      "velocity": 1,
      "hand": "right"
    },
    {
      "midi": 54,
      "time": 72.656,
      "duration": 0.067,
      "velocity": 1,
      "hand": "left"
    },
    {
      "midi": 66,
      "time": 72.656,
      "duration": 0.067,
      "velocity": 1,
      "hand": "right"
    },
    {
      "midi": 53,
      "time": 72.79,
      "duration": 0.067,
      "velocity": 1,
      "hand": "left"
    },
    {
      "midi": 65,
      "time": 72.79,
      "duration": 0.067,
      "velocity": 1,
      "hand": "right"
    },
    {
      "midi": 45,
      "time": 72.857,
      "duration": 0.067,
      "velocity": 1,
      "hand": "left"
    },
    {
      "midi": 57,
      "time": 72.857,
      "duration": 0.067,
      "velocity": 1,
      "hand": "left"
    },
    {
      "midi": 49,
      "time": 72.924,
      "duration": 0.067,
      "velocity": 1,
      "hand": "left"
    },
    {
      "midi": 61,
      "time": 72.924,
      "duration": 0.067,
      "velocity": 1,
      "hand": "right"
    },
    {
      "midi": 45,
      "time": 73.058,
      "duration": 0.067,
      "velocity": 1,
      "hand": "left"
    },
    {
      "midi": 57,
      "time": 73.058,
      "duration": 0.067,
      "velocity": 1,
      "hand": "left"
    },
    {
      "midi": 48,
      "time": 73.125,
      "duration": 0.067,
      "velocity": 1,
      "hand": "left"
    },
    {
      "midi": 60,
      "time": 73.125,
      "duration": 0.067,
      "velocity": 1,
      "hand": "right"
    },
    {
      "midi": 54,
      "time": 73.192,
      "duration": 0.067,
      "velocity": 1,
      "hand": "left"
    },
    {
      "midi": 66,
      "time": 73.192,
      "duration": 0.067,
      "velocity": 1,
      "hand": "right"
    },
    {
      "midi": 53,
      "time": 73.326,
      "duration": 0.067,
      "velocity": 1,
      "hand": "left"
    },
    {
      "midi": 65,
      "time": 73.326,
      "duration": 0.067,
      "velocity": 1,
      "hand": "right"
    },
    {
      "midi": 45,
      "time": 73.393,
      "duration": 0.067,
      "velocity": 1,
      "hand": "left"
    },
    {
      "midi": 57,
      "time": 73.393,
      "duration": 0.067,
      "velocity": 1,
      "hand": "left"
    },
    {
      "midi": 49,
      "time": 73.46,
      "duration": 0.067,
      "velocity": 1,
      "hand": "left"
    },
    {
      "midi": 61,
      "time": 73.46,
      "duration": 0.067,
      "velocity": 1,
      "hand": "right"
    },
    {
      "midi": 45,
      "time": 73.594,
      "duration": 0.067,
      "velocity": 1,
      "hand": "left"
    },
    {
      "midi": 57,
      "time": 73.594,
      "duration": 0.067,
      "velocity": 1,
      "hand": "left"
    },
    {
      "midi": 48,
      "time": 73.661,
      "duration": 0.067,
      "velocity": 1,
      "hand": "left"
    },
    {
      "midi": 60,
      "time": 73.661,
      "duration": 0.067,
      "velocity": 1,
      "hand": "right"
    },
    {
      "midi": 54,
      "time": 73.728,
      "duration": 0.067,
      "velocity": 1,
      "hand": "left"
    },
    {
      "midi": 66,
      "time": 73.728,
      "duration": 0.067,
      "velocity": 1,
      "hand": "right"
    },
    {
      "midi": 53,
      "time": 73.862,
      "duration": 0.067,
      "velocity": 1,
      "hand": "left"
    },
    {
      "midi": 65,
      "time": 73.862,
      "duration": 0.067,
      "velocity": 1,
      "hand": "right"
    },
    {
      "midi": 48,
      "time": 73.929,
      "duration": 0.067,
      "velocity": 1,
      "hand": "left"
    },
    {
      "midi": 60,
      "time": 73.929,
      "duration": 0.067,
      "velocity": 1,
      "hand": "right"
    },
    {
      "midi": 54,
      "time": 73.996,
      "duration": 0.067,
      "velocity": 1,
      "hand": "left"
    },
    {
      "midi": 66,
      "time": 73.996,
      "duration": 0.067,
      "velocity": 1,
      "hand": "right"
    },
    {
      "midi": 53,
      "time": 74.129,
      "duration": 0.067,
      "velocity": 1,
      "hand": "left"
    },
    {
      "midi": 65,
      "time": 74.129,
      "duration": 0.067,
      "velocity": 1,
      "hand": "right"
    },
    {
      "midi": 48,
      "time": 74.196,
      "duration": 0.067,
      "velocity": 1,
      "hand": "left"
    },
    {
      "midi": 60,
      "time": 74.196,
      "duration": 0.067,
      "velocity": 1,
      "hand": "right"
    },
    {
      "midi": 54,
      "time": 74.263,
      "duration": 0.067,
      "velocity": 1,
      "hand": "left"
    },
    {
      "midi": 66,
      "time": 74.263,
      "duration": 0.067,
      "velocity": 1,
      "hand": "right"
    },
    {
      "midi": 53,
      "time": 74.397,
      "duration": 0.067,
      "velocity": 1,
      "hand": "left"
    },
    {
      "midi": 65,
      "time": 74.397,
      "duration": 0.067,
      "velocity": 1,
      "hand": "right"
    },
    {
      "midi": 48,
      "time": 74.464,
      "duration": 0.067,
      "velocity": 1,
      "hand": "left"
    },
    {
      "midi": 60,
      "time": 74.464,
      "duration": 0.067,
      "velocity": 1,
      "hand": "right"
    },
    {
      "midi": 54,
      "time": 74.531,
      "duration": 0.067,
      "velocity": 1,
      "hand": "left"
    },
    {
      "midi": 66,
      "time": 74.531,
      "duration": 0.067,
      "velocity": 1,
      "hand": "right"
    },
    {
      "midi": 53,
      "time": 74.665,
      "duration": 0.067,
      "velocity": 1,
      "hand": "left"
    },
    {
      "midi": 65,
      "time": 74.665,
      "duration": 0.067,
      "velocity": 1,
      "hand": "right"
    },
    {
      "midi": 46,
      "time": 74.732,
      "duration": 0.067,
      "velocity": 1,
      "hand": "left"
    },
    {
      "midi": 58,
      "time": 74.732,
      "duration": 0.067,
      "velocity": 1,
      "hand": "left"
    },
    {
      "midi": 54,
      "time": 74.799,
      "duration": 0.067,
      "velocity": 1,
      "hand": "left"
    },
    {
      "midi": 66,
      "time": 74.799,
      "duration": 0.067,
      "velocity": 1,
      "hand": "right"
    },
    {
      "midi": 53,
      "time": 74.933,
      "duration": 0.067,
      "velocity": 1,
      "hand": "left"
    },
    {
      "midi": 65,
      "time": 74.933,
      "duration": 0.067,
      "velocity": 1,
      "hand": "right"
    },
    {
      "midi": 49,
      "time": 75,
      "duration": 0.067,
      "velocity": 1,
      "hand": "left"
    },
    {
      "midi": 61,
      "time": 75,
      "duration": 0.067,
      "velocity": 1,
      "hand": "right"
    },
    {
      "midi": 41,
      "time": 75.067,
      "duration": 0.067,
      "velocity": 1,
      "hand": "left"
    },
    {
      "midi": 53,
      "time": 75.067,
      "duration": 0.067,
      "velocity": 1,
      "hand": "left"
    },
    {
      "midi": 51,
      "time": 75.201,
      "duration": 0.067,
      "velocity": 1,
      "hand": "left"
    },
    {
      "midi": 63,
      "time": 75.201,
      "duration": 0.067,
      "velocity": 1,
      "hand": "right"
    },
    {
      "midi": 53,
      "time": 75.268,
      "duration": 0.067,
      "velocity": 1,
      "hand": "left"
    },
    {
      "midi": 65,
      "time": 75.268,
      "duration": 0.067,
      "velocity": 1,
      "hand": "right"
    },
    {
      "midi": 51,
      "time": 75.335,
      "duration": 0.067,
      "velocity": 1,
      "hand": "left"
    },
    {
      "midi": 63,
      "time": 75.335,
      "duration": 0.067,
      "velocity": 1,
      "hand": "right"
    },
    {
      "midi": 49,
      "time": 75.469,
      "duration": 0.067,
      "velocity": 1,
      "hand": "left"
    },
    {
      "midi": 61,
      "time": 75.469,
      "duration": 0.067,
      "velocity": 1,
      "hand": "right"
    },
    {
      "midi": 46,
      "time": 75.536,
      "duration": 0.067,
      "velocity": 1,
      "hand": "left"
    },
    {
      "midi": 58,
      "time": 75.536,
      "duration": 0.067,
      "velocity": 1,
      "hand": "left"
    },
    {
      "midi": 41,
      "time": 75.603,
      "duration": 0.067,
      "velocity": 1,
      "hand": "left"
    },
    {
      "midi": 53,
      "time": 75.603,
      "duration": 0.067,
      "velocity": 1,
      "hand": "left"
    },
    {
      "midi": 48,
      "time": 75.737,
      "duration": 0.067,
      "velocity": 1,
      "hand": "left"
    },
    {
      "midi": 60,
      "time": 75.737,
      "duration": 0.067,
      "velocity": 1,
      "hand": "right"
    },
    {
      "midi": 49,
      "time": 75.804,
      "duration": 0.067,
      "velocity": 1,
      "hand": "left"
    },
    {
      "midi": 61,
      "time": 75.804,
      "duration": 0.067,
      "velocity": 1,
      "hand": "right"
    },
    {
      "midi": 48,
      "time": 75.871,
      "duration": 0.067,
      "velocity": 1,
      "hand": "left"
    },
    {
      "midi": 60,
      "time": 75.871,
      "duration": 0.067,
      "velocity": 1,
      "hand": "right"
    },
    {
      "midi": 46,
      "time": 76.004,
      "duration": 0.067,
      "velocity": 1,
      "hand": "left"
    },
    {
      "midi": 58,
      "time": 76.004,
      "duration": 0.067,
      "velocity": 1,
      "hand": "left"
    },
    {
      "midi": 49,
      "time": 76.071,
      "duration": 0.067,
      "velocity": 1,
      "hand": "left"
    },
    {
      "midi": 61,
      "time": 76.071,
      "duration": 0.067,
      "velocity": 1,
      "hand": "right"
    },
    {
      "midi": 41,
      "time": 76.138,
      "duration": 0.067,
      "velocity": 1,
      "hand": "left"
    },
    {
      "midi": 53,
      "time": 76.138,
      "duration": 0.067,
      "velocity": 1,
      "hand": "left"
    },
    {
      "midi": 51,
      "time": 76.272,
      "duration": 0.067,
      "velocity": 1,
      "hand": "left"
    },
    {
      "midi": 63,
      "time": 76.272,
      "duration": 0.067,
      "velocity": 1,
      "hand": "right"
    },
    {
      "midi": 53,
      "time": 76.339,
      "duration": 0.067,
      "velocity": 1,
      "hand": "left"
    },
    {
      "midi": 65,
      "time": 76.339,
      "duration": 0.067,
      "velocity": 1,
      "hand": "right"
    },
    {
      "midi": 51,
      "time": 76.406,
      "duration": 0.067,
      "velocity": 1,
      "hand": "left"
    },
    {
      "midi": 63,
      "time": 76.406,
      "duration": 0.067,
      "velocity": 1,
      "hand": "right"
    },
    {
      "midi": 49,
      "time": 76.54,
      "duration": 0.067,
      "velocity": 1,
      "hand": "left"
    },
    {
      "midi": 61,
      "time": 76.54,
      "duration": 0.067,
      "velocity": 1,
      "hand": "right"
    },
    {
      "midi": 46,
      "time": 76.607,
      "duration": 0.067,
      "velocity": 1,
      "hand": "left"
    },
    {
      "midi": 58,
      "time": 76.607,
      "duration": 0.067,
      "velocity": 1,
      "hand": "left"
    },
    {
      "midi": 41,
      "time": 76.674,
      "duration": 0.067,
      "velocity": 1,
      "hand": "left"
    },
    {
      "midi": 53,
      "time": 76.674,
      "duration": 0.067,
      "velocity": 1,
      "hand": "left"
    },
    {
      "midi": 48,
      "time": 76.808,
      "duration": 0.067,
      "velocity": 1,
      "hand": "left"
    },
    {
      "midi": 60,
      "time": 76.808,
      "duration": 0.067,
      "velocity": 1,
      "hand": "right"
    },
    {
      "midi": 49,
      "time": 76.875,
      "duration": 0.067,
      "velocity": 1,
      "hand": "left"
    },
    {
      "midi": 61,
      "time": 76.875,
      "duration": 0.067,
      "velocity": 1,
      "hand": "right"
    },
    {
      "midi": 48,
      "time": 76.942,
      "duration": 0.067,
      "velocity": 1,
      "hand": "left"
    },
    {
      "midi": 60,
      "time": 76.942,
      "duration": 0.067,
      "velocity": 1,
      "hand": "right"
    },
    {
      "midi": 46,
      "time": 77.076,
      "duration": 0.067,
      "velocity": 1,
      "hand": "left"
    },
    {
      "midi": 58,
      "time": 77.076,
      "duration": 0.067,
      "velocity": 1,
      "hand": "left"
    },
    {
      "midi": 39,
      "time": 77.143,
      "duration": 0.067,
      "velocity": 1,
      "hand": "left"
    },
    {
      "midi": 51,
      "time": 77.143,
      "duration": 0.067,
      "velocity": 1,
      "hand": "left"
    },
    {
      "midi": 41,
      "time": 77.21,
      "duration": 0.067,
      "velocity": 1,
      "hand": "left"
    },
    {
      "midi": 53,
      "time": 77.21,
      "duration": 0.067,
      "velocity": 1,
      "hand": "left"
    },
    {
      "midi": 46,
      "time": 77.344,
      "duration": 0.067,
      "velocity": 1,
      "hand": "left"
    },
    {
      "midi": 58,
      "time": 77.344,
      "duration": 0.067,
      "velocity": 1,
      "hand": "left"
    },
    {
      "midi": 49,
      "time": 77.411,
      "duration": 0.067,
      "velocity": 1,
      "hand": "left"
    },
    {
      "midi": 61,
      "time": 77.411,
      "duration": 0.067,
      "velocity": 1,
      "hand": "right"
    },
    {
      "midi": 37,
      "time": 77.478,
      "duration": 0.067,
      "velocity": 1,
      "hand": "left"
    },
    {
      "midi": 49,
      "time": 77.478,
      "duration": 0.067,
      "velocity": 1,
      "hand": "left"
    },
    {
      "midi": 41,
      "time": 77.612,
      "duration": 0.067,
      "velocity": 1,
      "hand": "left"
    },
    {
      "midi": 53,
      "time": 77.612,
      "duration": 0.067,
      "velocity": 1,
      "hand": "left"
    },
    {
      "midi": 39,
      "time": 77.679,
      "duration": 0.067,
      "velocity": 1,
      "hand": "left"
    },
    {
      "midi": 51,
      "time": 77.679,
      "duration": 0.067,
      "velocity": 1,
      "hand": "left"
    },
    {
      "midi": 41,
      "time": 77.746,
      "duration": 0.067,
      "velocity": 1,
      "hand": "left"
    },
    {
      "midi": 53,
      "time": 77.746,
      "duration": 0.067,
      "velocity": 1,
      "hand": "left"
    },
    {
      "midi": 46,
      "time": 77.879,
      "duration": 0.067,
      "velocity": 1,
      "hand": "left"
    },
    {
      "midi": 58,
      "time": 77.879,
      "duration": 0.067,
      "velocity": 1,
      "hand": "left"
    },
    {
      "midi": 49,
      "time": 77.946,
      "duration": 0.067,
      "velocity": 1,
      "hand": "left"
    },
    {
      "midi": 61,
      "time": 77.946,
      "duration": 0.067,
      "velocity": 1,
      "hand": "right"
    },
    {
      "midi": 37,
      "time": 78.013,
      "duration": 0.067,
      "velocity": 1,
      "hand": "left"
    },
    {
      "midi": 49,
      "time": 78.013,
      "duration": 0.067,
      "velocity": 1,
      "hand": "left"
    },
    {
      "midi": 41,
      "time": 78.147,
      "duration": 0.067,
      "velocity": 1,
      "hand": "left"
    },
    {
      "midi": 53,
      "time": 78.147,
      "duration": 0.067,
      "velocity": 1,
      "hand": "left"
    },
    {
      "midi": 36,
      "time": 78.214,
      "duration": 0.067,
      "velocity": 1,
      "hand": "left"
    },
    {
      "midi": 48,
      "time": 78.214,
      "duration": 0.067,
      "velocity": 1,
      "hand": "left"
    },
    {
      "midi": 37,
      "time": 78.281,
      "duration": 0.067,
      "velocity": 1,
      "hand": "left"
    },
    {
      "midi": 49,
      "time": 78.281,
      "duration": 0.067,
      "velocity": 1,
      "hand": "left"
    },
    {
      "midi": 41,
      "time": 78.415,
      "duration": 0.067,
      "velocity": 1,
      "hand": "left"
    },
    {
      "midi": 53,
      "time": 78.415,
      "duration": 0.067,
      "velocity": 1,
      "hand": "left"
    },
    {
      "midi": 46,
      "time": 78.482,
      "duration": 0.067,
      "velocity": 1,
      "hand": "left"
    },
    {
      "midi": 58,
      "time": 78.482,
      "duration": 0.067,
      "velocity": 1,
      "hand": "left"
    },
    {
      "midi": 34,
      "time": 78.549,
      "duration": 0.067,
      "velocity": 1,
      "hand": "left"
    },
    {
      "midi": 46,
      "time": 78.549,
      "duration": 0.067,
      "velocity": 1,
      "hand": "left"
    },
    {
      "midi": 37,
      "time": 78.683,
      "duration": 0.067,
      "velocity": 1,
      "hand": "left"
    },
    {
      "midi": 49,
      "time": 78.683,
      "duration": 0.067,
      "velocity": 1,
      "hand": "left"
    },
    {
      "midi": 36,
      "time": 78.75,
      "duration": 0.067,
      "velocity": 1,
      "hand": "left"
    },
    {
      "midi": 48,
      "time": 78.75,
      "duration": 0.067,
      "velocity": 1,
      "hand": "left"
    },
    {
      "midi": 37,
      "time": 78.817,
      "duration": 0.067,
      "velocity": 1,
      "hand": "left"
    },
    {
      "midi": 49,
      "time": 78.817,
      "duration": 0.067,
      "velocity": 1,
      "hand": "left"
    },
    {
      "midi": 41,
      "time": 78.951,
      "duration": 0.067,
      "velocity": 1,
      "hand": "left"
    },
    {
      "midi": 53,
      "time": 78.951,
      "duration": 0.067,
      "velocity": 1,
      "hand": "left"
    },
    {
      "midi": 46,
      "time": 79.018,
      "duration": 0.067,
      "velocity": 1,
      "hand": "left"
    },
    {
      "midi": 58,
      "time": 79.018,
      "duration": 0.067,
      "velocity": 1,
      "hand": "left"
    },
    {
      "midi": 34,
      "time": 79.085,
      "duration": 0.067,
      "velocity": 1,
      "hand": "left"
    },
    {
      "midi": 46,
      "time": 79.085,
      "duration": 0.067,
      "velocity": 1,
      "hand": "left"
    },
    {
      "midi": 37,
      "time": 79.219,
      "duration": 0.067,
      "velocity": 1,
      "hand": "left"
    },
    {
      "midi": 49,
      "time": 79.219,
      "duration": 0.067,
      "velocity": 1,
      "hand": "left"
    },
    {
      "midi": 36,
      "time": 79.821,
      "duration": 0.067,
      "velocity": 1,
      "hand": "left"
    },
    {
      "midi": 48,
      "time": 79.821,
      "duration": 0.067,
      "velocity": 1,
      "hand": "left"
    },
    {
      "midi": 37,
      "time": 79.888,
      "duration": 0.067,
      "velocity": 1,
      "hand": "left"
    },
    {
      "midi": 49,
      "time": 79.888,
      "duration": 0.067,
      "velocity": 1,
      "hand": "left"
    },
    {
      "midi": 41,
      "time": 80.022,
      "duration": 0.067,
      "velocity": 1,
      "hand": "left"
    },
    {
      "midi": 53,
      "time": 80.022,
      "duration": 0.067,
      "velocity": 1,
      "hand": "left"
    },
    {
      "midi": 46,
      "time": 80.089,
      "duration": 0.067,
      "velocity": 1,
      "hand": "left"
    },
    {
      "midi": 58,
      "time": 80.089,
      "duration": 0.067,
      "velocity": 1,
      "hand": "left"
    },
    {
      "midi": 34,
      "time": 80.156,
      "duration": 0.067,
      "velocity": 1,
      "hand": "left"
    },
    {
      "midi": 46,
      "time": 80.156,
      "duration": 0.067,
      "velocity": 1,
      "hand": "left"
    },
    {
      "midi": 37,
      "time": 80.29,
      "duration": 0.067,
      "velocity": 1,
      "hand": "left"
    },
    {
      "midi": 49,
      "time": 80.29,
      "duration": 0.067,
      "velocity": 1,
      "hand": "left"
    },
    {
      "midi": 36,
      "time": 80.893,
      "duration": 0.067,
      "velocity": 1,
      "hand": "left"
    },
    {
      "midi": 48,
      "time": 80.893,
      "duration": 0.067,
      "velocity": 1,
      "hand": "left"
    },
    {
      "midi": 37,
      "time": 80.96,
      "duration": 0.067,
      "velocity": 1,
      "hand": "left"
    },
    {
      "midi": 49,
      "time": 80.96,
      "duration": 0.067,
      "velocity": 1,
      "hand": "left"
    },
    {
      "midi": 41,
      "time": 81.094,
      "duration": 0.067,
      "velocity": 1,
      "hand": "left"
    },
    {
      "midi": 53,
      "time": 81.094,
      "duration": 0.067,
      "velocity": 1,
      "hand": "left"
    },
    {
      "midi": 46,
      "time": 81.161,
      "duration": 0.067,
      "velocity": 1,
      "hand": "left"
    },
    {
      "midi": 58,
      "time": 81.161,
      "duration": 0.067,
      "velocity": 1,
      "hand": "left"
    },
    {
      "midi": 34,
      "time": 81.228,
      "duration": 0.067,
      "velocity": 1,
      "hand": "left"
    },
    {
      "midi": 46,
      "time": 81.228,
      "duration": 0.067,
      "velocity": 1,
      "hand": "left"
    },
    {
      "midi": 37,
      "time": 81.362,
      "duration": 0.067,
      "velocity": 1,
      "hand": "left"
    },
    {
      "midi": 49,
      "time": 81.362,
      "duration": 0.067,
      "velocity": 1,
      "hand": "left"
    },
    {
      "midi": 34,
      "time": 81.429,
      "duration": 0.268,
      "velocity": 1,
      "hand": "left"
    },
    {
      "midi": 46,
      "time": 81.429,
      "duration": 0.268,
      "velocity": 1,
      "hand": "left"
    },
    {
      "midi": 53,
      "time": 81.964,
      "duration": 0.536,
      "velocity": 1,
      "hand": "left"
    },
    {
      "midi": 58,
      "time": 81.964,
      "duration": 0.536,
      "velocity": 1,
      "hand": "left"
    },
    {
      "midi": 61,
      "time": 81.964,
      "duration": 0.536,
      "velocity": 1,
      "hand": "right"
    },
    {
      "midi": 65,
      "time": 81.964,
      "duration": 0.536,
      "velocity": 1,
      "hand": "right"
    },
    {
      "midi": 82,
      "time": 81.964,
      "duration": 0.536,
      "velocity": 1,
      "hand": "right"
    },
    {
      "midi": 94,
      "time": 81.964,
      "duration": 0.536,
      "velocity": 1,
      "hand": "right"
    }
  ],
  "arrangements": {
    "easy": [
      {
        "midi": 61,
        "time": 0.268,
        "duration": 0.134,
        "velocity": 1,
        "hand": "right"
      },
      {
        "midi": 61,
        "time": 0.804,
        "duration": 0.134,
        "velocity": 1,
        "hand": "right"
      },
      {
        "midi": 63,
        "time": 1.339,
        "duration": 0.134,
        "velocity": 1,
        "hand": "right"
      },
      {
        "midi": 63,
        "time": 1.875,
        "duration": 0.134,
        "velocity": 1,
        "hand": "right"
      },
      {
        "midi": 60,
        "time": 2.21,
        "duration": 0.134,
        "velocity": 1,
        "hand": "right"
      },
      {
        "midi": 66,
        "time": 2.411,
        "duration": 0.134,
        "velocity": 1,
        "hand": "right"
      },
      {
        "midi": 61,
        "time": 2.679,
        "duration": 0.134,
        "velocity": 1,
        "hand": "right"
      },
      {
        "midi": 69,
        "time": 2.946,
        "duration": 0.134,
        "velocity": 1,
        "hand": "right"
      },
      {
        "midi": 63,
        "time": 3.147,
        "duration": 0.134,
        "velocity": 1,
        "hand": "right"
      },
      {
        "midi": 69,
        "time": 3.482,
        "duration": 0.134,
        "velocity": 1,
        "hand": "right"
      },
      {
        "midi": 66,
        "time": 3.75,
        "duration": 0.134,
        "velocity": 1,
        "hand": "right"
      },
      {
        "midi": 75,
        "time": 4.018,
        "duration": 0.134,
        "velocity": 1,
        "hand": "right"
      },
      {
        "midi": 70,
        "time": 4.286,
        "duration": 0.134,
        "velocity": 1,
        "hand": "right"
      },
      {
        "midi": 78,
        "time": 4.487,
        "duration": 0.134,
        "velocity": 1,
        "hand": "right"
      },
      {
        "midi": 72,
        "time": 4.621,
        "duration": 0.134,
        "velocity": 1,
        "hand": "right"
      },
      {
        "midi": 76,
        "time": 4.821,
        "duration": 0.134,
        "velocity": 1,
        "hand": "right"
      },
      {
        "midi": 73,
        "time": 5.022,
        "duration": 0.134,
        "velocity": 1,
        "hand": "right"
      },
      {
        "midi": 70,
        "time": 5.156,
        "duration": 0.134,
        "velocity": 1,
        "hand": "right"
      },
      {
        "midi": 66,
        "time": 5.29,
        "duration": 0.134,
        "velocity": 1,
        "hand": "right"
      },
      {
        "midi": 65,
        "time": 5.424,
        "duration": 0.134,
        "velocity": 1,
        "hand": "right"
      },
      {
        "midi": 70,
        "time": 5.558,
        "duration": 0.134,
        "velocity": 1,
        "hand": "right"
      },
      {
        "midi": 69,
        "time": 5.692,
        "duration": 0.134,
        "velocity": 1,
        "hand": "right"
      },
      {
        "midi": 73,
        "time": 5.826,
        "duration": 0.134,
        "velocity": 1,
        "hand": "right"
      },
      {
        "midi": 70,
        "time": 5.96,
        "duration": 0.134,
        "velocity": 1,
        "hand": "right"
      },
      {
        "midi": 73,
        "time": 6.094,
        "duration": 0.134,
        "velocity": 1,
        "hand": "right"
      },
      {
        "midi": 72,
        "time": 6.228,
        "duration": 0.134,
        "velocity": 1,
        "hand": "right"
      },
      {
        "midi": 77,
        "time": 6.362,
        "duration": 0.134,
        "velocity": 1,
        "hand": "right"
      },
      {
        "midi": 71,
        "time": 6.496,
        "duration": 0.134,
        "velocity": 1,
        "hand": "right"
      },
      {
        "midi": 70,
        "time": 6.763,
        "duration": 0.134,
        "velocity": 1,
        "hand": "right"
      },
      {
        "midi": 74,
        "time": 6.964,
        "duration": 0.134,
        "velocity": 1,
        "hand": "right"
      },
      {
        "midi": 71,
        "time": 7.165,
        "duration": 0.134,
        "velocity": 1,
        "hand": "right"
      },
      {
        "midi": 68,
        "time": 7.299,
        "duration": 0.134,
        "velocity": 1,
        "hand": "right"
      },
      {
        "midi": 64,
        "time": 7.433,
        "duration": 0.134,
        "velocity": 1,
        "hand": "right"
      },
      {
        "midi": 63,
        "time": 7.567,
        "duration": 0.134,
        "velocity": 1,
        "hand": "right"
      },
      {
        "midi": 68,
        "time": 7.701,
        "duration": 0.134,
        "velocity": 1,
        "hand": "right"
      },
      {
        "midi": 65,
        "time": 7.835,
        "duration": 0.134,
        "velocity": 1,
        "hand": "right"
      },
      {
        "midi": 71,
        "time": 7.969,
        "duration": 0.134,
        "velocity": 1,
        "hand": "right"
      },
      {
        "midi": 66,
        "time": 8.103,
        "duration": 0.134,
        "velocity": 1,
        "hand": "right"
      },
      {
        "midi": 71,
        "time": 8.237,
        "duration": 0.134,
        "velocity": 1,
        "hand": "right"
      },
      {
        "midi": 70,
        "time": 8.371,
        "duration": 0.134,
        "velocity": 1,
        "hand": "right"
      },
      {
        "midi": 65,
        "time": 8.638,
        "duration": 0.134,
        "velocity": 1,
        "hand": "right"
      },
      {
        "midi": 70,
        "time": 8.772,
        "duration": 0.134,
        "velocity": 1,
        "hand": "right"
      },
      {
        "midi": 64,
        "time": 8.906,
        "duration": 0.134,
        "velocity": 1,
        "hand": "right"
      },
      {
        "midi": 72,
        "time": 9.107,
        "duration": 0.134,
        "velocity": 1,
        "hand": "right"
      },
      {
        "midi": 68,
        "time": 9.308,
        "duration": 0.134,
        "velocity": 1,
        "hand": "right"
      },
      {
        "midi": 62,
        "time": 9.442,
        "duration": 0.134,
        "velocity": 1,
        "hand": "right"
      },
      {
        "midi": 71,
        "time": 9.643,
        "duration": 0.134,
        "velocity": 1,
        "hand": "right"
      },
      {
        "midi": 66,
        "time": 9.844,
        "duration": 0.134,
        "velocity": 1,
        "hand": "right"
      },
      {
        "midi": 61,
        "time": 9.978,
        "duration": 0.134,
        "velocity": 1,
        "hand": "right"
      },
      {
        "midi": 70,
        "time": 10.179,
        "duration": 0.134,
        "velocity": 1,
        "hand": "right"
      },
      {
        "midi": 72,
        "time": 10.446,
        "duration": 0.134,
        "velocity": 1,
        "hand": "right"
      },
      {
        "midi": 76,
        "time": 10.714,
        "duration": 0.134,
        "velocity": 1,
        "hand": "right"
      },
      {
        "midi": 72,
        "time": 10.915,
        "duration": 0.134,
        "velocity": 1,
        "hand": "right"
      },
      {
        "midi": 66,
        "time": 11.049,
        "duration": 0.134,
        "velocity": 1,
        "hand": "right"
      },
      {
        "midi": 74,
        "time": 11.25,
        "duration": 0.134,
        "velocity": 1,
        "hand": "right"
      },
      {
        "midi": 70,
        "time": 11.451,
        "duration": 0.134,
        "velocity": 1,
        "hand": "right"
      },
      {
        "midi": 64,
        "time": 11.585,
        "duration": 0.134,
        "velocity": 1,
        "hand": "right"
      },
      {
        "midi": 72,
        "time": 11.786,
        "duration": 0.134,
        "velocity": 1,
        "hand": "right"
      },
      {
        "midi": 68,
        "time": 11.987,
        "duration": 0.134,
        "velocity": 1,
        "hand": "right"
      },
      {
        "midi": 62,
        "time": 12.121,
        "duration": 0.134,
        "velocity": 1,
        "hand": "right"
      },
      {
        "midi": 71,
        "time": 12.321,
        "duration": 0.134,
        "velocity": 1,
        "hand": "right"
      },
      {
        "midi": 74,
        "time": 12.589,
        "duration": 0.134,
        "velocity": 1,
        "hand": "right"
      },
      {
        "midi": 77,
        "time": 12.857,
        "duration": 0.134,
        "velocity": 1,
        "hand": "right"
      },
      {
        "midi": 76,
        "time": 13.125,
        "duration": 0.134,
        "velocity": 1,
        "hand": "right"
      },
      {
        "midi": 78,
        "time": 13.326,
        "duration": 0.134,
        "velocity": 1,
        "hand": "right"
      },
      {
        "midi": 70,
        "time": 13.46,
        "duration": 0.134,
        "velocity": 1,
        "hand": "right"
      },
      {
        "midi": 76,
        "time": 13.661,
        "duration": 0.134,
        "velocity": 1,
        "hand": "right"
      },
      {
        "midi": 79,
        "time": 13.929,
        "duration": 0.134,
        "velocity": 1,
        "hand": "right"
      },
      {
        "midi": 78,
        "time": 14.196,
        "duration": 0.134,
        "velocity": 1,
        "hand": "right"
      },
      {
        "midi": 80,
        "time": 14.397,
        "duration": 0.134,
        "velocity": 1,
        "hand": "right"
      },
      {
        "midi": 72,
        "time": 14.531,
        "duration": 0.134,
        "velocity": 1,
        "hand": "right"
      },
      {
        "midi": 78,
        "time": 14.732,
        "duration": 0.134,
        "velocity": 1,
        "hand": "right"
      },
      {
        "midi": 80,
        "time": 14.933,
        "duration": 0.134,
        "velocity": 1,
        "hand": "right"
      },
      {
        "midi": 72,
        "time": 15.067,
        "duration": 0.134,
        "velocity": 1,
        "hand": "right"
      },
      {
        "midi": 77,
        "time": 15.201,
        "duration": 0.134,
        "velocity": 1,
        "hand": "right"
      },
      {
        "midi": 68,
        "time": 15.335,
        "duration": 0.134,
        "velocity": 1,
        "hand": "right"
      },
      {
        "midi": 73,
        "time": 15.469,
        "duration": 0.134,
        "velocity": 1,
        "hand": "right"
      },
      {
        "midi": 63,
        "time": 15.603,
        "duration": 0.134,
        "velocity": 1,
        "hand": "right"
      },
      {
        "midi": 70,
        "time": 15.737,
        "duration": 0.134,
        "velocity": 1,
        "hand": "right"
      },
      {
        "midi": 60,
        "time": 15.871,
        "duration": 0.134,
        "velocity": 1,
        "hand": "right"
      },
      {
        "midi": 61,
        "time": 16.272,
        "duration": 0.134,
        "velocity": 1,
        "hand": "right"
      },
      {
        "midi": 60,
        "time": 16.607,
        "duration": 0.134,
        "velocity": 1,
        "hand": "right"
      },
      {
        "midi": 62,
        "time": 16.808,
        "duration": 0.134,
        "velocity": 1,
        "hand": "right"
      },
      {
        "midi": 60,
        "time": 17.411,
        "duration": 0.134,
        "velocity": 1,
        "hand": "right"
      },
      {
        "midi": 63,
        "time": 17.612,
        "duration": 0.134,
        "velocity": 1,
        "hand": "right"
      },
      {
        "midi": 60,
        "time": 17.946,
        "duration": 0.134,
        "velocity": 1,
        "hand": "right"
      },
      {
        "midi": 63,
        "time": 18.147,
        "duration": 0.134,
        "velocity": 1,
        "hand": "right"
      },
      {
        "midi": 61,
        "time": 18.482,
        "duration": 0.134,
        "velocity": 1,
        "hand": "right"
      },
      {
        "midi": 65,
        "time": 18.683,
        "duration": 0.134,
        "velocity": 1,
        "hand": "right"
      },
      {
        "midi": 61,
        "time": 19.018,
        "duration": 0.134,
        "velocity": 1,
        "hand": "right"
      },
      {
        "midi": 65,
        "time": 19.219,
        "duration": 0.134,
        "velocity": 1,
        "hand": "right"
      },
      {
        "midi": 61,
        "time": 19.353,
        "duration": 0.134,
        "velocity": 1,
        "hand": "right"
      },
      {
        "midi": 63,
        "time": 19.554,
        "duration": 0.134,
        "velocity": 1,
        "hand": "right"
      },
      {
        "midi": 66,
        "time": 19.754,
        "duration": 0.134,
        "velocity": 1,
        "hand": "right"
      },
      {
        "midi": 61,
        "time": 19.888,
        "duration": 0.134,
        "velocity": 1,
        "hand": "right"
      },
      {
        "midi": 63,
        "time": 20.089,
        "duration": 0.134,
        "velocity": 1,
        "hand": "right"
      },
      {
        "midi": 69,
        "time": 20.357,
        "duration": 0.134,
        "velocity": 1,
        "hand": "right"
      },
      {
        "midi": 64,
        "time": 20.558,
        "duration": 0.134,
        "velocity": 1,
        "hand": "right"
      },
      {
        "midi": 66,
        "time": 20.826,
        "duration": 0.134,
        "velocity": 1,
        "hand": "right"
      },
      {
        "midi": 61,
        "time": 20.96,
        "duration": 0.134,
        "velocity": 1,
        "hand": "right"
      },
      {
        "midi": 64,
        "time": 21.161,
        "duration": 0.134,
        "velocity": 1,
        "hand": "right"
      },
      {
        "midi": 69,
        "time": 21.429,
        "duration": 0.134,
        "velocity": 1,
        "hand": "right"
      },
      {
        "midi": 67,
        "time": 21.629,
        "duration": 0.134,
        "velocity": 1,
        "hand": "right"
      },
      {
        "midi": 63,
        "time": 21.763,
        "duration": 0.134,
        "velocity": 1,
        "hand": "right"
      },
      {
        "midi": 66,
        "time": 21.964,
        "duration": 0.134,
        "velocity": 1,
        "hand": "right"
      },
      {
        "midi": 60,
        "time": 22.165,
        "duration": 0.134,
        "velocity": 1,
        "hand": "right"
      },
      {
        "midi": 65,
        "time": 24.71,
        "duration": 0.134,
        "velocity": 1,
        "hand": "right"
      },
      {
        "midi": 63,
        "time": 24.844,
        "duration": 0.134,
        "velocity": 1,
        "hand": "right"
      },
      {
        "midi": 60,
        "time": 24.978,
        "duration": 0.134,
        "velocity": 1,
        "hand": "right"
      },
      {
        "midi": 60,
        "time": 28.46,
        "duration": 0.134,
        "velocity": 1,
        "hand": "right"
      },
      {
        "midi": 63,
        "time": 28.661,
        "duration": 0.134,
        "velocity": 1,
        "hand": "right"
      },
      {
        "midi": 68,
        "time": 28.929,
        "duration": 0.134,
        "velocity": 1,
        "hand": "right"
      },
      {
        "midi": 75,
        "time": 29.129,
        "duration": 0.134,
        "velocity": 1,
        "hand": "right"
      },
      {
        "midi": 72,
        "time": 29.263,
        "duration": 0.134,
        "velocity": 1,
        "hand": "right"
      },
      {
        "midi": 70,
        "time": 29.397,
        "duration": 0.134,
        "velocity": 1,
        "hand": "right"
      },
      {
        "midi": 65,
        "time": 29.531,
        "duration": 0.134,
        "velocity": 1,
        "hand": "right"
      },
      {
        "midi": 68,
        "time": 29.732,
        "duration": 0.134,
        "velocity": 1,
        "hand": "right"
      },
      {
        "midi": 70,
        "time": 29.933,
        "duration": 0.134,
        "velocity": 1,
        "hand": "right"
      },
      {
        "midi": 63,
        "time": 30.067,
        "duration": 0.134,
        "velocity": 1,
        "hand": "right"
      },
      {
        "midi": 66,
        "time": 30.268,
        "duration": 0.134,
        "velocity": 1,
        "hand": "right"
      },
      {
        "midi": 70,
        "time": 30.469,
        "duration": 0.134,
        "velocity": 1,
        "hand": "right"
      },
      {
        "midi": 61,
        "time": 30.603,
        "duration": 0.134,
        "velocity": 1,
        "hand": "right"
      },
      {
        "midi": 65,
        "time": 30.804,
        "duration": 0.134,
        "velocity": 1,
        "hand": "right"
      },
      {
        "midi": 70,
        "time": 31.004,
        "duration": 0.134,
        "velocity": 1,
        "hand": "right"
      },
      {
        "midi": 60,
        "time": 31.138,
        "duration": 0.134,
        "velocity": 1,
        "hand": "right"
      },
      {
        "midi": 63,
        "time": 31.339,
        "duration": 0.134,
        "velocity": 1,
        "hand": "right"
      },
      {
        "midi": 65,
        "time": 31.54,
        "duration": 0.134,
        "velocity": 1,
        "hand": "right"
      },
      {
        "midi": 65,
        "time": 31.808,
        "duration": 0.134,
        "velocity": 1,
        "hand": "right"
      },
      {
        "midi": 66,
        "time": 32.143,
        "duration": 0.134,
        "velocity": 1,
        "hand": "right"
      },
      {
        "midi": 63,
        "time": 32.344,
        "duration": 0.134,
        "velocity": 1,
        "hand": "right"
      },
      {
        "midi": 60,
        "time": 32.478,
        "duration": 0.134,
        "velocity": 1,
        "hand": "right"
      },
      {
        "midi": 65,
        "time": 32.746,
        "duration": 0.134,
        "velocity": 1,
        "hand": "right"
      },
      {
        "midi": 63,
        "time": 32.946,
        "duration": 0.134,
        "velocity": 1,
        "hand": "right"
      },
      {
        "midi": 65,
        "time": 33.281,
        "duration": 0.134,
        "velocity": 1,
        "hand": "right"
      },
      {
        "midi": 63,
        "time": 33.482,
        "duration": 0.134,
        "velocity": 1,
        "hand": "right"
      },
      {
        "midi": 65,
        "time": 33.817,
        "duration": 0.134,
        "velocity": 1,
        "hand": "right"
      },
      {
        "midi": 63,
        "time": 34.018,
        "duration": 0.134,
        "velocity": 1,
        "hand": "right"
      },
      {
        "midi": 68,
        "time": 34.286,
        "duration": 0.134,
        "velocity": 1,
        "hand": "right"
      },
      {
        "midi": 65,
        "time": 34.487,
        "duration": 0.134,
        "velocity": 1,
        "hand": "right"
      },
      {
        "midi": 62,
        "time": 34.621,
        "duration": 0.134,
        "velocity": 1,
        "hand": "right"
      },
      {
        "midi": 67,
        "time": 34.888,
        "duration": 0.134,
        "velocity": 1,
        "hand": "right"
      },
      {
        "midi": 65,
        "time": 35.089,
        "duration": 0.134,
        "velocity": 1,
        "hand": "right"
      },
      {
        "midi": 60,
        "time": 35.29,
        "duration": 0.134,
        "velocity": 1,
        "hand": "right"
      },
      {
        "midi": 67,
        "time": 35.424,
        "duration": 0.134,
        "velocity": 1,
        "hand": "right"
      },
      {
        "midi": 65,
        "time": 35.625,
        "duration": 0.134,
        "velocity": 1,
        "hand": "right"
      },
      {
        "midi": 60,
        "time": 35.826,
        "duration": 0.134,
        "velocity": 1,
        "hand": "right"
      },
      {
        "midi": 67,
        "time": 35.96,
        "duration": 0.134,
        "velocity": 1,
        "hand": "right"
      },
      {
        "midi": 65,
        "time": 36.161,
        "duration": 0.134,
        "velocity": 1,
        "hand": "right"
      },
      {
        "midi": 73,
        "time": 36.429,
        "duration": 0.134,
        "velocity": 1,
        "hand": "right"
      },
      {
        "midi": 70,
        "time": 36.629,
        "duration": 0.134,
        "velocity": 1,
        "hand": "right"
      },
      {
        "midi": 67,
        "time": 36.763,
        "duration": 0.134,
        "velocity": 1,
        "hand": "right"
      },
      {
        "midi": 70,
        "time": 36.964,
        "duration": 0.134,
        "velocity": 1,
        "hand": "right"
      },
      {
        "midi": 67,
        "time": 37.165,
        "duration": 0.134,
        "velocity": 1,
        "hand": "right"
      },
      {
        "midi": 64,
        "time": 37.299,
        "duration": 0.134,
        "velocity": 1,
        "hand": "right"
      },
      {
        "midi": 73,
        "time": 37.5,
        "duration": 0.134,
        "velocity": 1,
        "hand": "right"
      },
      {
        "midi": 70,
        "time": 37.701,
        "duration": 0.134,
        "velocity": 1,
        "hand": "right"
      },
      {
        "midi": 67,
        "time": 37.835,
        "duration": 0.134,
        "velocity": 1,
        "hand": "right"
      },
      {
        "midi": 70,
        "time": 38.036,
        "duration": 0.134,
        "velocity": 1,
        "hand": "right"
      },
      {
        "midi": 67,
        "time": 38.237,
        "duration": 0.134,
        "velocity": 1,
        "hand": "right"
      },
      {
        "midi": 64,
        "time": 38.371,
        "duration": 0.134,
        "velocity": 1,
        "hand": "right"
      },
      {
        "midi": 70,
        "time": 38.571,
        "duration": 0.134,
        "velocity": 1,
        "hand": "right"
      },
      {
        "midi": 67,
        "time": 38.772,
        "duration": 0.134,
        "velocity": 1,
        "hand": "right"
      },
      {
        "midi": 64,
        "time": 38.906,
        "duration": 0.134,
        "velocity": 1,
        "hand": "right"
      },
      {
        "midi": 67,
        "time": 39.107,
        "duration": 0.134,
        "velocity": 1,
        "hand": "right"
      },
      {
        "midi": 64,
        "time": 39.308,
        "duration": 0.134,
        "velocity": 1,
        "hand": "right"
      },
      {
        "midi": 64,
        "time": 39.643,
        "duration": 0.134,
        "velocity": 1,
        "hand": "right"
      },
      {
        "midi": 61,
        "time": 39.844,
        "duration": 0.134,
        "velocity": 1,
        "hand": "right"
      },
      {
        "midi": 61,
        "time": 40.179,
        "duration": 0.134,
        "velocity": 1,
        "hand": "right"
      },
      {
        "midi": 61,
        "time": 40.982,
        "duration": 0.134,
        "velocity": 1,
        "hand": "right"
      },
      {
        "midi": 61,
        "time": 41.518,
        "duration": 0.134,
        "velocity": 1,
        "hand": "right"
      },
      {
        "midi": 63,
        "time": 42.054,
        "duration": 0.134,
        "velocity": 1,
        "hand": "right"
      },
      {
        "midi": 63,
        "time": 42.589,
        "duration": 0.134,
        "velocity": 1,
        "hand": "right"
      },
      {
        "midi": 60,
        "time": 42.924,
        "duration": 0.134,
        "velocity": 1,
        "hand": "right"
      },
      {
        "midi": 66,
        "time": 43.125,
        "duration": 0.134,
        "velocity": 1,
        "hand": "right"
      },
      {
        "midi": 61,
        "time": 43.393,
        "duration": 0.134,
        "velocity": 1,
        "hand": "right"
      },
      {
        "midi": 69,
        "time": 43.661,
        "duration": 0.134,
        "velocity": 1,
        "hand": "right"
      },
      {
        "midi": 63,
        "time": 43.862,
        "duration": 0.134,
        "velocity": 1,
        "hand": "right"
      },
      {
        "midi": 69,
        "time": 44.196,
        "duration": 0.134,
        "velocity": 1,
        "hand": "right"
      },
      {
        "midi": 66,
        "time": 44.464,
        "duration": 0.134,
        "velocity": 1,
        "hand": "right"
      },
      {
        "midi": 75,
        "time": 44.732,
        "duration": 0.134,
        "velocity": 1,
        "hand": "right"
      },
      {
        "midi": 70,
        "time": 45,
        "duration": 0.134,
        "velocity": 1,
        "hand": "right"
      },
      {
        "midi": 78,
        "time": 45.201,
        "duration": 0.134,
        "velocity": 1,
        "hand": "right"
      },
      {
        "midi": 72,
        "time": 45.335,
        "duration": 0.134,
        "velocity": 1,
        "hand": "right"
      },
      {
        "midi": 76,
        "time": 45.536,
        "duration": 0.134,
        "velocity": 1,
        "hand": "right"
      },
      {
        "midi": 73,
        "time": 45.737,
        "duration": 0.134,
        "velocity": 1,
        "hand": "right"
      },
      {
        "midi": 70,
        "time": 45.871,
        "duration": 0.134,
        "velocity": 1,
        "hand": "right"
      },
      {
        "midi": 65,
        "time": 46.138,
        "duration": 0.134,
        "velocity": 1,
        "hand": "right"
      },
      {
        "midi": 70,
        "time": 46.272,
        "duration": 0.134,
        "velocity": 1,
        "hand": "right"
      },
      {
        "midi": 69,
        "time": 46.406,
        "duration": 0.134,
        "velocity": 1,
        "hand": "right"
      },
      {
        "midi": 73,
        "time": 46.54,
        "duration": 0.134,
        "velocity": 1,
        "hand": "right"
      },
      {
        "midi": 70,
        "time": 46.674,
        "duration": 0.134,
        "velocity": 1,
        "hand": "right"
      },
      {
        "midi": 73,
        "time": 46.808,
        "duration": 0.134,
        "velocity": 1,
        "hand": "right"
      },
      {
        "midi": 72,
        "time": 46.942,
        "duration": 0.134,
        "velocity": 1,
        "hand": "right"
      },
      {
        "midi": 77,
        "time": 47.076,
        "duration": 0.134,
        "velocity": 1,
        "hand": "right"
      },
      {
        "midi": 71,
        "time": 47.21,
        "duration": 0.134,
        "velocity": 1,
        "hand": "right"
      },
      {
        "midi": 76,
        "time": 47.344,
        "duration": 0.134,
        "velocity": 1,
        "hand": "right"
      },
      {
        "midi": 70,
        "time": 47.478,
        "duration": 0.134,
        "velocity": 1,
        "hand": "right"
      },
      {
        "midi": 74,
        "time": 47.679,
        "duration": 0.134,
        "velocity": 1,
        "hand": "right"
      },
      {
        "midi": 71,
        "time": 47.879,
        "duration": 0.134,
        "velocity": 1,
        "hand": "right"
      },
      {
        "midi": 68,
        "time": 48.013,
        "duration": 0.134,
        "velocity": 1,
        "hand": "right"
      },
      {
        "midi": 64,
        "time": 48.147,
        "duration": 0.134,
        "velocity": 1,
        "hand": "right"
      },
      {
        "midi": 63,
        "time": 48.281,
        "duration": 0.134,
        "velocity": 1,
        "hand": "right"
      },
      {
        "midi": 68,
        "time": 48.415,
        "duration": 0.134,
        "velocity": 1,
        "hand": "right"
      },
      {
        "midi": 65,
        "time": 48.549,
        "duration": 0.134,
        "velocity": 1,
        "hand": "right"
      },
      {
        "midi": 71,
        "time": 48.683,
        "duration": 0.134,
        "velocity": 1,
        "hand": "right"
      },
      {
        "midi": 66,
        "time": 48.817,
        "duration": 0.134,
        "velocity": 1,
        "hand": "right"
      },
      {
        "midi": 71,
        "time": 48.951,
        "duration": 0.134,
        "velocity": 1,
        "hand": "right"
      },
      {
        "midi": 70,
        "time": 49.085,
        "duration": 0.134,
        "velocity": 1,
        "hand": "right"
      },
      {
        "midi": 75,
        "time": 49.219,
        "duration": 0.134,
        "velocity": 1,
        "hand": "right"
      },
      {
        "midi": 65,
        "time": 49.353,
        "duration": 0.134,
        "velocity": 1,
        "hand": "right"
      },
      {
        "midi": 70,
        "time": 49.487,
        "duration": 0.134,
        "velocity": 1,
        "hand": "right"
      },
      {
        "midi": 64,
        "time": 49.621,
        "duration": 0.134,
        "velocity": 1,
        "hand": "right"
      },
      {
        "midi": 72,
        "time": 49.821,
        "duration": 0.134,
        "velocity": 1,
        "hand": "right"
      },
      {
        "midi": 68,
        "time": 50.022,
        "duration": 0.134,
        "velocity": 1,
        "hand": "right"
      },
      {
        "midi": 62,
        "time": 50.156,
        "duration": 0.134,
        "velocity": 1,
        "hand": "right"
      },
      {
        "midi": 71,
        "time": 50.357,
        "duration": 0.134,
        "velocity": 1,
        "hand": "right"
      },
      {
        "midi": 66,
        "time": 50.558,
        "duration": 0.134,
        "velocity": 1,
        "hand": "right"
      },
      {
        "midi": 61,
        "time": 50.692,
        "duration": 0.134,
        "velocity": 1,
        "hand": "right"
      },
      {
        "midi": 70,
        "time": 50.893,
        "duration": 0.134,
        "velocity": 1,
        "hand": "right"
      },
      {
        "midi": 72,
        "time": 51.161,
        "duration": 0.134,
        "velocity": 1,
        "hand": "right"
      },
      {
        "midi": 75,
        "time": 51.362,
        "duration": 0.134,
        "velocity": 1,
        "hand": "right"
      },
      {
        "midi": 72,
        "time": 51.496,
        "duration": 0.134,
        "velocity": 1,
        "hand": "right"
      },
      {
        "midi": 69,
        "time": 51.763,
        "duration": 0.134,
        "velocity": 1,
        "hand": "right"
      },
      {
        "midi": 77,
        "time": 51.897,
        "duration": 0.134,
        "velocity": 1,
        "hand": "right"
      },
      {
        "midi": 74,
        "time": 52.031,
        "duration": 0.134,
        "velocity": 1,
        "hand": "right"
      },
      {
        "midi": 73,
        "time": 52.165,
        "duration": 0.134,
        "velocity": 1,
        "hand": "right"
      },
      {
        "midi": 70,
        "time": 52.299,
        "duration": 0.134,
        "velocity": 1,
        "hand": "right"
      },
      {
        "midi": 78,
        "time": 52.433,
        "duration": 0.134,
        "velocity": 1,
        "hand": "right"
      },
      {
        "midi": 75,
        "time": 52.567,
        "duration": 0.134,
        "velocity": 1,
        "hand": "right"
      },
      {
        "midi": 74,
        "time": 52.701,
        "duration": 0.134,
        "velocity": 1,
        "hand": "right"
      },
      {
        "midi": 72,
        "time": 52.835,
        "duration": 0.134,
        "velocity": 1,
        "hand": "right"
      },
      {
        "midi": 81,
        "time": 52.969,
        "duration": 0.134,
        "velocity": 1,
        "hand": "right"
      },
      {
        "midi": 73,
        "time": 53.103,
        "duration": 0.134,
        "velocity": 1,
        "hand": "right"
      },
      {
        "midi": 82,
        "time": 53.237,
        "duration": 0.134,
        "velocity": 1,
        "hand": "right"
      },
      {
        "midi": 75,
        "time": 53.371,
        "duration": 0.134,
        "velocity": 1,
        "hand": "right"
      },
      {
        "midi": 84,
        "time": 53.571,
        "duration": 0.134,
        "velocity": 1,
        "hand": "right"
      },
      {
        "midi": 80,
        "time": 53.772,
        "duration": 0.134,
        "velocity": 1,
        "hand": "right"
      },
      {
        "midi": 77,
        "time": 53.906,
        "duration": 0.134,
        "velocity": 1,
        "hand": "right"
      },
      {
        "midi": 84,
        "time": 54.107,
        "duration": 0.134,
        "velocity": 1,
        "hand": "right"
      },
      {
        "midi": 80,
        "time": 54.308,
        "duration": 0.134,
        "velocity": 1,
        "hand": "right"
      },
      {
        "midi": 77,
        "time": 54.442,
        "duration": 0.134,
        "velocity": 1,
        "hand": "right"
      },
      {
        "midi": 78,
        "time": 54.643,
        "duration": 0.134,
        "velocity": 1,
        "hand": "right"
      },
      {
        "midi": 76,
        "time": 54.844,
        "duration": 0.134,
        "velocity": 1,
        "hand": "right"
      },
      {
        "midi": 74,
        "time": 54.978,
        "duration": 0.134,
        "velocity": 1,
        "hand": "right"
      },
      {
        "midi": 75,
        "time": 55.179,
        "duration": 0.134,
        "velocity": 1,
        "hand": "right"
      },
      {
        "midi": 73,
        "time": 55.446,
        "duration": 0.134,
        "velocity": 1,
        "hand": "right"
      },
      {
        "midi": 72,
        "time": 55.714,
        "duration": 0.134,
        "velocity": 1,
        "hand": "right"
      },
      {
        "midi": 71,
        "time": 55.982,
        "duration": 0.134,
        "velocity": 1,
        "hand": "right"
      },
      {
        "midi": 75,
        "time": 56.183,
        "duration": 0.134,
        "velocity": 1,
        "hand": "right"
      },
      {
        "midi": 65,
        "time": 56.317,
        "duration": 0.134,
        "velocity": 1,
        "hand": "right"
      },
      {
        "midi": 69,
        "time": 56.518,
        "duration": 0.134,
        "velocity": 1,
        "hand": "right"
      },
      {
        "midi": 73,
        "time": 56.719,
        "duration": 0.134,
        "velocity": 1,
        "hand": "right"
      },
      {
        "midi": 63,
        "time": 56.853,
        "duration": 0.134,
        "velocity": 1,
        "hand": "right"
      },
      {
        "midi": 67,
        "time": 57.054,
        "duration": 0.134,
        "velocity": 1,
        "hand": "right"
      },
      {
        "midi": 71,
        "time": 57.254,
        "duration": 0.134,
        "velocity": 1,
        "hand": "right"
      },
      {
        "midi": 61,
        "time": 57.388,
        "duration": 0.134,
        "velocity": 1,
        "hand": "right"
      },
      {
        "midi": 65,
        "time": 57.589,
        "duration": 0.134,
        "velocity": 1,
        "hand": "right"
      },
      {
        "midi": 74,
        "time": 57.857,
        "duration": 0.134,
        "velocity": 1,
        "hand": "right"
      },
      {
        "midi": 73,
        "time": 58.125,
        "duration": 0.134,
        "velocity": 1,
        "hand": "right"
      },
      {
        "midi": 77,
        "time": 58.326,
        "duration": 0.134,
        "velocity": 1,
        "hand": "right"
      },
      {
        "midi": 67,
        "time": 58.46,
        "duration": 0.134,
        "velocity": 1,
        "hand": "right"
      },
      {
        "midi": 71,
        "time": 58.661,
        "duration": 0.134,
        "velocity": 1,
        "hand": "right"
      },
      {
        "midi": 75,
        "time": 58.862,
        "duration": 0.134,
        "velocity": 1,
        "hand": "right"
      },
      {
        "midi": 65,
        "time": 58.996,
        "duration": 0.134,
        "velocity": 1,
        "hand": "right"
      },
      {
        "midi": 69,
        "time": 59.196,
        "duration": 0.134,
        "velocity": 1,
        "hand": "right"
      },
      {
        "midi": 73,
        "time": 59.397,
        "duration": 0.134,
        "velocity": 1,
        "hand": "right"
      },
      {
        "midi": 63,
        "time": 59.531,
        "duration": 0.134,
        "velocity": 1,
        "hand": "right"
      },
      {
        "midi": 67,
        "time": 59.732,
        "duration": 0.134,
        "velocity": 1,
        "hand": "right"
      },
      {
        "midi": 76,
        "time": 60,
        "duration": 0.134,
        "velocity": 1,
        "hand": "right"
      },
      {
        "midi": 75,
        "time": 60.268,
        "duration": 0.134,
        "velocity": 1,
        "hand": "right"
      },
      {
        "midi": 79,
        "time": 60.469,
        "duration": 0.134,
        "velocity": 1,
        "hand": "right"
      },
      {
        "midi": 69,
        "time": 60.603,
        "duration": 0.134,
        "velocity": 1,
        "hand": "right"
      },
      {
        "midi": 73,
        "time": 60.804,
        "duration": 0.134,
        "velocity": 1,
        "hand": "right"
      },
      {
        "midi": 77,
        "time": 61.004,
        "duration": 0.134,
        "velocity": 1,
        "hand": "right"
      },
      {
        "midi": 67,
        "time": 61.138,
        "duration": 0.134,
        "velocity": 1,
        "hand": "right"
      },
      {
        "midi": 71,
        "time": 61.339,
        "duration": 0.134,
        "velocity": 1,
        "hand": "right"
      },
      {
        "midi": 75,
        "time": 61.54,
        "duration": 0.134,
        "velocity": 1,
        "hand": "right"
      },
      {
        "midi": 65,
        "time": 61.674,
        "duration": 0.134,
        "velocity": 1,
        "hand": "right"
      },
      {
        "midi": 75,
        "time": 61.808,
        "duration": 0.134,
        "velocity": 1,
        "hand": "right"
      },
      {
        "midi": 65,
        "time": 61.942,
        "duration": 0.134,
        "velocity": 1,
        "hand": "right"
      },
      {
        "midi": 73,
        "time": 62.076,
        "duration": 0.134,
        "velocity": 1,
        "hand": "right"
      },
      {
        "midi": 65,
        "time": 62.21,
        "duration": 0.134,
        "velocity": 1,
        "hand": "right"
      },
      {
        "midi": 64,
        "time": 62.344,
        "duration": 0.134,
        "velocity": 1,
        "hand": "right"
      },
      {
        "midi": 61,
        "time": 62.478,
        "duration": 0.134,
        "velocity": 1,
        "hand": "right"
      },
      {
        "midi": 66,
        "time": 62.679,
        "duration": 0.134,
        "velocity": 1,
        "hand": "right"
      },
      {
        "midi": 63,
        "time": 62.879,
        "duration": 0.134,
        "velocity": 1,
        "hand": "right"
      },
      {
        "midi": 60,
        "time": 63.013,
        "duration": 0.134,
        "velocity": 1,
        "hand": "right"
      },
      {
        "midi": 66,
        "time": 63.214,
        "duration": 0.134,
        "velocity": 1,
        "hand": "right"
      },
      {
        "midi": 63,
        "time": 63.415,
        "duration": 0.134,
        "velocity": 1,
        "hand": "right"
      },
      {
        "midi": 60,
        "time": 63.549,
        "duration": 0.134,
        "velocity": 1,
        "hand": "right"
      },
      {
        "midi": 66,
        "time": 63.75,
        "duration": 0.134,
        "velocity": 1,
        "hand": "right"
      },
      {
        "midi": 63,
        "time": 63.951,
        "duration": 0.134,
        "velocity": 1,
        "hand": "right"
      },
      {
        "midi": 63,
        "time": 64.554,
        "duration": 0.134,
        "velocity": 1,
        "hand": "right"
      },
      {
        "midi": 60,
        "time": 64.821,
        "duration": 0.134,
        "velocity": 1,
        "hand": "right"
      },
      {
        "midi": 61,
        "time": 69.442,
        "duration": 0.134,
        "velocity": 1,
        "hand": "right"
      },
      {
        "midi": 65,
        "time": 69.643,
        "duration": 0.134,
        "velocity": 1,
        "hand": "right"
      },
      {
        "midi": 61,
        "time": 69.844,
        "duration": 0.134,
        "velocity": 1,
        "hand": "right"
      },
      {
        "midi": 61,
        "time": 72.388,
        "duration": 0.134,
        "velocity": 1,
        "hand": "right"
      },
      {
        "midi": 60,
        "time": 72.589,
        "duration": 0.134,
        "velocity": 1,
        "hand": "right"
      },
      {
        "midi": 65,
        "time": 72.79,
        "duration": 0.134,
        "velocity": 1,
        "hand": "right"
      },
      {
        "midi": 61,
        "time": 72.924,
        "duration": 0.134,
        "velocity": 1,
        "hand": "right"
      },
      {
        "midi": 60,
        "time": 73.125,
        "duration": 0.134,
        "velocity": 1,
        "hand": "right"
      },
      {
        "midi": 65,
        "time": 73.326,
        "duration": 0.134,
        "velocity": 1,
        "hand": "right"
      },
      {
        "midi": 61,
        "time": 73.46,
        "duration": 0.134,
        "velocity": 1,
        "hand": "right"
      },
      {
        "midi": 60,
        "time": 73.661,
        "duration": 0.134,
        "velocity": 1,
        "hand": "right"
      },
      {
        "midi": 65,
        "time": 73.862,
        "duration": 0.134,
        "velocity": 1,
        "hand": "right"
      },
      {
        "midi": 66,
        "time": 73.996,
        "duration": 0.134,
        "velocity": 1,
        "hand": "right"
      },
      {
        "midi": 66,
        "time": 74.263,
        "duration": 0.134,
        "velocity": 1,
        "hand": "right"
      },
      {
        "midi": 65,
        "time": 74.397,
        "duration": 0.134,
        "velocity": 1,
        "hand": "right"
      },
      {
        "midi": 66,
        "time": 74.531,
        "duration": 0.134,
        "velocity": 1,
        "hand": "right"
      },
      {
        "midi": 65,
        "time": 74.665,
        "duration": 0.134,
        "velocity": 1,
        "hand": "right"
      },
      {
        "midi": 66,
        "time": 74.799,
        "duration": 0.134,
        "velocity": 1,
        "hand": "right"
      },
      {
        "midi": 65,
        "time": 74.933,
        "duration": 0.134,
        "velocity": 1,
        "hand": "right"
      },
      {
        "midi": 65,
        "time": 75.268,
        "duration": 0.134,
        "velocity": 1,
        "hand": "right"
      },
      {
        "midi": 61,
        "time": 75.469,
        "duration": 0.134,
        "velocity": 1,
        "hand": "right"
      },
      {
        "midi": 61,
        "time": 75.804,
        "duration": 0.134,
        "velocity": 1,
        "hand": "right"
      },
      {
        "midi": 61,
        "time": 76.071,
        "duration": 0.134,
        "velocity": 1,
        "hand": "right"
      },
      {
        "midi": 65,
        "time": 76.339,
        "duration": 0.134,
        "velocity": 1,
        "hand": "right"
      },
      {
        "midi": 61,
        "time": 76.54,
        "duration": 0.134,
        "velocity": 1,
        "hand": "right"
      },
      {
        "midi": 61,
        "time": 76.875,
        "duration": 0.134,
        "velocity": 1,
        "hand": "right"
      },
      {
        "midi": 61,
        "time": 77.411,
        "duration": 0.134,
        "velocity": 1,
        "hand": "right"
      },
      {
        "midi": 61,
        "time": 77.946,
        "duration": 0.134,
        "velocity": 1,
        "hand": "right"
      },
      {
        "midi": 94,
        "time": 81.964,
        "duration": 0.536,
        "velocity": 1,
        "hand": "right"
      }
    ],
    "medium": [
      {
        "midi": 41,
        "time": 0,
        "duration": 0.067,
        "velocity": 1,
        "hand": "left"
      },
      {
        "midi": 53,
        "time": 0,
        "duration": 0.067,
        "velocity": 1,
        "hand": "left"
      },
      {
        "midi": 55,
        "time": 0.067,
        "duration": 0.067,
        "velocity": 1,
        "hand": "left"
      },
      {
        "midi": 46,
        "time": 0.201,
        "duration": 0.067,
        "velocity": 1,
        "hand": "left"
      },
      {
        "midi": 58,
        "time": 0.201,
        "duration": 0.067,
        "velocity": 1,
        "hand": "left"
      },
      {
        "midi": 61,
        "time": 0.268,
        "duration": 0.067,
        "velocity": 1,
        "hand": "right"
      },
      {
        "midi": 40,
        "time": 0.335,
        "duration": 0.067,
        "velocity": 1,
        "hand": "left"
      },
      {
        "midi": 52,
        "time": 0.335,
        "duration": 0.067,
        "velocity": 1,
        "hand": "left"
      },
      {
        "midi": 41,
        "time": 0.536,
        "duration": 0.067,
        "velocity": 1,
        "hand": "left"
      },
      {
        "midi": 53,
        "time": 0.536,
        "duration": 0.067,
        "velocity": 1,
        "hand": "left"
      },
      {
        "midi": 55,
        "time": 0.469,
        "duration": 0.067,
        "velocity": 1,
        "hand": "left"
      },
      {
        "midi": 43,
        "time": 0.603,
        "duration": 0.067,
        "velocity": 1,
        "hand": "left"
      },
      {
        "midi": 55,
        "time": 0.603,
        "duration": 0.067,
        "velocity": 1,
        "hand": "left"
      },
      {
        "midi": 46,
        "time": 0.737,
        "duration": 0.067,
        "velocity": 1,
        "hand": "left"
      },
      {
        "midi": 58,
        "time": 0.737,
        "duration": 0.067,
        "velocity": 1,
        "hand": "left"
      },
      {
        "midi": 61,
        "time": 0.804,
        "duration": 0.067,
        "velocity": 1,
        "hand": "right"
      },
      {
        "midi": 40,
        "time": 0.871,
        "duration": 0.067,
        "velocity": 1,
        "hand": "left"
      },
      {
        "midi": 52,
        "time": 0.871,
        "duration": 0.067,
        "velocity": 1,
        "hand": "left"
      },
      {
        "midi": 43,
        "time": 1.004,
        "duration": 0.067,
        "velocity": 1,
        "hand": "left"
      },
      {
        "midi": 55,
        "time": 1.071,
        "duration": 0.067,
        "velocity": 1,
        "hand": "left"
      },
      {
        "midi": 45,
        "time": 1.138,
        "duration": 0.067,
        "velocity": 1,
        "hand": "left"
      },
      {
        "midi": 57,
        "time": 1.138,
        "duration": 0.067,
        "velocity": 1,
        "hand": "left"
      },
      {
        "midi": 48,
        "time": 1.272,
        "duration": 0.067,
        "velocity": 1,
        "hand": "left"
      },
      {
        "midi": 60,
        "time": 1.272,
        "duration": 0.067,
        "velocity": 1,
        "hand": "right"
      },
      {
        "midi": 63,
        "time": 1.339,
        "duration": 0.067,
        "velocity": 1,
        "hand": "right"
      },
      {
        "midi": 42,
        "time": 1.406,
        "duration": 0.067,
        "velocity": 1,
        "hand": "left"
      },
      {
        "midi": 54,
        "time": 1.406,
        "duration": 0.067,
        "velocity": 1,
        "hand": "left"
      },
      {
        "midi": 43,
        "time": 1.607,
        "duration": 0.067,
        "velocity": 1,
        "hand": "left"
      },
      {
        "midi": 55,
        "time": 1.607,
        "duration": 0.067,
        "velocity": 1,
        "hand": "left"
      },
      {
        "midi": 57,
        "time": 1.54,
        "duration": 0.067,
        "velocity": 1,
        "hand": "left"
      },
      {
        "midi": 45,
        "time": 1.674,
        "duration": 0.067,
        "velocity": 1,
        "hand": "left"
      },
      {
        "midi": 57,
        "time": 1.674,
        "duration": 0.067,
        "velocity": 1,
        "hand": "left"
      },
      {
        "midi": 48,
        "time": 1.808,
        "duration": 0.067,
        "velocity": 1,
        "hand": "left"
      },
      {
        "midi": 60,
        "time": 1.808,
        "duration": 0.067,
        "velocity": 1,
        "hand": "right"
      },
      {
        "midi": 63,
        "time": 1.875,
        "duration": 0.067,
        "velocity": 1,
        "hand": "right"
      },
      {
        "midi": 42,
        "time": 1.942,
        "duration": 0.067,
        "velocity": 1,
        "hand": "left"
      },
      {
        "midi": 54,
        "time": 1.942,
        "duration": 0.067,
        "velocity": 1,
        "hand": "left"
      },
      {
        "midi": 45,
        "time": 2.076,
        "duration": 0.067,
        "velocity": 1,
        "hand": "left"
      },
      {
        "midi": 57,
        "time": 2.076,
        "duration": 0.067,
        "velocity": 1,
        "hand": "left"
      },
      {
        "midi": 58,
        "time": 2.143,
        "duration": 0.067,
        "velocity": 1,
        "hand": "left"
      },
      {
        "midi": 48,
        "time": 2.21,
        "duration": 0.067,
        "velocity": 1,
        "hand": "left"
      },
      {
        "midi": 60,
        "time": 2.21,
        "duration": 0.067,
        "velocity": 1,
        "hand": "right"
      },
      {
        "midi": 51,
        "time": 2.344,
        "duration": 0.067,
        "velocity": 1,
        "hand": "left"
      },
      {
        "midi": 63,
        "time": 2.344,
        "duration": 0.067,
        "velocity": 1,
        "hand": "right"
      },
      {
        "midi": 66,
        "time": 2.411,
        "duration": 0.067,
        "velocity": 1,
        "hand": "right"
      },
      {
        "midi": 45,
        "time": 2.478,
        "duration": 0.067,
        "velocity": 1,
        "hand": "left"
      },
      {
        "midi": 57,
        "time": 2.478,
        "duration": 0.067,
        "velocity": 1,
        "hand": "left"
      },
      {
        "midi": 48,
        "time": 2.612,
        "duration": 0.067,
        "velocity": 1,
        "hand": "left"
      },
      {
        "midi": 60,
        "time": 2.612,
        "duration": 0.067,
        "velocity": 1,
        "hand": "right"
      },
      {
        "midi": 61,
        "time": 2.679,
        "duration": 0.067,
        "velocity": 1,
        "hand": "right"
      },
      {
        "midi": 51,
        "time": 2.746,
        "duration": 0.067,
        "velocity": 1,
        "hand": "left"
      },
      {
        "midi": 63,
        "time": 2.746,
        "duration": 0.067,
        "velocity": 1,
        "hand": "right"
      },
      {
        "midi": 54,
        "time": 2.879,
        "duration": 0.067,
        "velocity": 1,
        "hand": "left"
      },
      {
        "midi": 66,
        "time": 2.879,
        "duration": 0.067,
        "velocity": 1,
        "hand": "right"
      },
      {
        "midi": 69,
        "time": 2.946,
        "duration": 0.067,
        "velocity": 1,
        "hand": "right"
      },
      {
        "midi": 48,
        "time": 3.013,
        "duration": 0.067,
        "velocity": 1,
        "hand": "left"
      },
      {
        "midi": 60,
        "time": 3.013,
        "duration": 0.067,
        "velocity": 1,
        "hand": "right"
      },
      {
        "midi": 49,
        "time": 3.214,
        "duration": 0.067,
        "velocity": 1,
        "hand": "left"
      },
      {
        "midi": 61,
        "time": 3.214,
        "duration": 0.067,
        "velocity": 1,
        "hand": "right"
      },
      {
        "midi": 63,
        "time": 3.147,
        "duration": 0.067,
        "velocity": 1,
        "hand": "right"
      },
      {
        "midi": 51,
        "time": 3.281,
        "duration": 0.067,
        "velocity": 1,
        "hand": "left"
      },
      {
        "midi": 63,
        "time": 3.281,
        "duration": 0.067,
        "velocity": 1,
        "hand": "right"
      },
      {
        "midi": 54,
        "time": 3.415,
        "duration": 0.067,
        "velocity": 1,
        "hand": "left"
      },
      {
        "midi": 66,
        "time": 3.415,
        "duration": 0.067,
        "velocity": 1,
        "hand": "right"
      },
      {
        "midi": 69,
        "time": 3.482,
        "duration": 0.067,
        "velocity": 1,
        "hand": "right"
      },
      {
        "midi": 48,
        "time": 3.549,
        "duration": 0.067,
        "velocity": 1,
        "hand": "left"
      },
      {
        "midi": 60,
        "time": 3.549,
        "duration": 0.067,
        "velocity": 1,
        "hand": "right"
      },
      {
        "midi": 51,
        "time": 3.683,
        "duration": 0.067,
        "velocity": 1,
        "hand": "left"
      },
      {
        "midi": 63,
        "time": 3.683,
        "duration": 0.067,
        "velocity": 1,
        "hand": "right"
      },
      {
        "midi": 66,
        "time": 3.75,
        "duration": 0.067,
        "velocity": 1,
        "hand": "right"
      },
      {
        "midi": 58,
        "time": 3.817,
        "duration": 0.067,
        "velocity": 1,
        "hand": "left"
      },
      {
        "midi": 70,
        "time": 3.817,
        "duration": 0.067,
        "velocity": 1,
        "hand": "right"
      },
      {
        "midi": 60,
        "time": 3.951,
        "duration": 0.067,
        "velocity": 1,
        "hand": "right"
      },
      {
        "midi": 72,
        "time": 3.951,
        "duration": 0.067,
        "velocity": 1,
        "hand": "right"
      },
      {
        "midi": 75,
        "time": 4.018,
        "duration": 0.067,
        "velocity": 1,
        "hand": "right"
      },
      {
        "midi": 53,
        "time": 4.085,
        "duration": 0.067,
        "velocity": 1,
        "hand": "left"
      },
      {
        "midi": 65,
        "time": 4.085,
        "duration": 0.067,
        "velocity": 1,
        "hand": "right"
      },
      {
        "midi": 57,
        "time": 4.219,
        "duration": 0.067,
        "velocity": 1,
        "hand": "left"
      },
      {
        "midi": 69,
        "time": 4.219,
        "duration": 0.067,
        "velocity": 1,
        "hand": "right"
      },
      {
        "midi": 70,
        "time": 4.286,
        "duration": 0.067,
        "velocity": 1,
        "hand": "right"
      },
      {
        "midi": 61,
        "time": 4.353,
        "duration": 0.067,
        "velocity": 1,
        "hand": "right"
      },
      {
        "midi": 73,
        "time": 4.353,
        "duration": 0.067,
        "velocity": 1,
        "hand": "right"
      },
      {
        "midi": 65,
        "time": 4.554,
        "duration": 0.067,
        "velocity": 1,
        "hand": "right"
      },
      {
        "midi": 77,
        "time": 4.554,
        "duration": 0.067,
        "velocity": 1,
        "hand": "right"
      },
      {
        "midi": 78,
        "time": 4.487,
        "duration": 0.067,
        "velocity": 1,
        "hand": "right"
      },
      {
        "midi": 60,
        "time": 4.621,
        "duration": 0.067,
        "velocity": 1,
        "hand": "right"
      },
      {
        "midi": 72,
        "time": 4.621,
        "duration": 0.067,
        "velocity": 1,
        "hand": "right"
      },
      {
        "midi": 61,
        "time": 4.754,
        "duration": 0.067,
        "velocity": 1,
        "hand": "right"
      },
      {
        "midi": 73,
        "time": 4.754,
        "duration": 0.067,
        "velocity": 1,
        "hand": "right"
      },
      {
        "midi": 76,
        "time": 4.821,
        "duration": 0.067,
        "velocity": 1,
        "hand": "right"
      },
      {
        "midi": 60,
        "time": 4.888,
        "duration": 0.067,
        "velocity": 1,
        "hand": "right"
      },
      {
        "midi": 72,
        "time": 4.888,
        "duration": 0.067,
        "velocity": 1,
        "hand": "right"
      },
      {
        "midi": 57,
        "time": 5.089,
        "duration": 0.067,
        "velocity": 1,
        "hand": "left"
      },
      {
        "midi": 69,
        "time": 5.089,
        "duration": 0.067,
        "velocity": 1,
        "hand": "right"
      },
      {
        "midi": 73,
        "time": 5.022,
        "duration": 0.067,
        "velocity": 1,
        "hand": "right"
      },
      {
        "midi": 58,
        "time": 5.156,
        "duration": 0.067,
        "velocity": 1,
        "hand": "left"
      },
      {
        "midi": 70,
        "time": 5.156,
        "duration": 0.067,
        "velocity": 1,
        "hand": "right"
      },
      {
        "midi": 52,
        "time": 5.357,
        "duration": 0.067,
        "velocity": 1,
        "hand": "left"
      },
      {
        "midi": 64,
        "time": 5.357,
        "duration": 0.067,
        "velocity": 1,
        "hand": "right"
      },
      {
        "midi": 66,
        "time": 5.29,
        "duration": 0.067,
        "velocity": 1,
        "hand": "right"
      },
      {
        "midi": 53,
        "time": 5.424,
        "duration": 0.067,
        "velocity": 1,
        "hand": "left"
      },
      {
        "midi": 65,
        "time": 5.424,
        "duration": 0.067,
        "velocity": 1,
        "hand": "right"
      },
      {
        "midi": 56,
        "time": 5.625,
        "duration": 0.067,
        "velocity": 1,
        "hand": "left"
      },
      {
        "midi": 68,
        "time": 5.625,
        "duration": 0.067,
        "velocity": 1,
        "hand": "right"
      },
      {
        "midi": 70,
        "time": 5.558,
        "duration": 0.067,
        "velocity": 1,
        "hand": "right"
      },
      {
        "midi": 57,
        "time": 5.692,
        "duration": 0.067,
        "velocity": 1,
        "hand": "left"
      },
      {
        "midi": 69,
        "time": 5.692,
        "duration": 0.067,
        "velocity": 1,
        "hand": "right"
      },
      {
        "midi": 57,
        "time": 5.893,
        "duration": 0.067,
        "velocity": 1,
        "hand": "left"
      },
      {
        "midi": 69,
        "time": 5.893,
        "duration": 0.067,
        "velocity": 1,
        "hand": "right"
      },
      {
        "midi": 73,
        "time": 5.826,
        "duration": 0.067,
        "velocity": 1,
        "hand": "right"
      },
      {
        "midi": 58,
        "time": 5.96,
        "duration": 0.067,
        "velocity": 1,
        "hand": "left"
      },
      {
        "midi": 70,
        "time": 5.96,
        "duration": 0.067,
        "velocity": 1,
        "hand": "right"
      },
      {
        "midi": 59,
        "time": 6.161,
        "duration": 0.067,
        "velocity": 1,
        "hand": "left"
      },
      {
        "midi": 71,
        "time": 6.161,
        "duration": 0.067,
        "velocity": 1,
        "hand": "right"
      },
      {
        "midi": 73,
        "time": 6.094,
        "duration": 0.067,
        "velocity": 1,
        "hand": "right"
      },
      {
        "midi": 60,
        "time": 6.228,
        "duration": 0.067,
        "velocity": 1,
        "hand": "right"
      },
      {
        "midi": 72,
        "time": 6.228,
        "duration": 0.067,
        "velocity": 1,
        "hand": "right"
      },
      {
        "midi": 56,
        "time": 6.429,
        "duration": 0.067,
        "velocity": 1,
        "hand": "left"
      },
      {
        "midi": 68,
        "time": 6.429,
        "duration": 0.067,
        "velocity": 1,
        "hand": "right"
      },
      {
        "midi": 77,
        "time": 6.362,
        "duration": 0.067,
        "velocity": 1,
        "hand": "right"
      },
      {
        "midi": 59,
        "time": 6.496,
        "duration": 0.067,
        "velocity": 1,
        "hand": "left"
      },
      {
        "midi": 71,
        "time": 6.496,
        "duration": 0.067,
        "velocity": 1,
        "hand": "right"
      },
      {
        "midi": 63,
        "time": 6.696,
        "duration": 0.067,
        "velocity": 1,
        "hand": "right"
      },
      {
        "midi": 75,
        "time": 6.696,
        "duration": 0.067,
        "velocity": 1,
        "hand": "right"
      },
      {
        "midi": 76,
        "time": 6.629,
        "duration": 0.067,
        "velocity": 1,
        "hand": "right"
      },
      {
        "midi": 58,
        "time": 6.763,
        "duration": 0.067,
        "velocity": 1,
        "hand": "left"
      },
      {
        "midi": 70,
        "time": 6.763,
        "duration": 0.067,
        "velocity": 1,
        "hand": "right"
      },
      {
        "midi": 59,
        "time": 6.897,
        "duration": 0.067,
        "velocity": 1,
        "hand": "left"
      },
      {
        "midi": 71,
        "time": 6.897,
        "duration": 0.067,
        "velocity": 1,
        "hand": "right"
      },
      {
        "midi": 74,
        "time": 6.964,
        "duration": 0.067,
        "velocity": 1,
        "hand": "right"
      },
      {
        "midi": 58,
        "time": 7.031,
        "duration": 0.067,
        "velocity": 1,
        "hand": "left"
      },
      {
        "midi": 70,
        "time": 7.031,
        "duration": 0.067,
        "velocity": 1,
        "hand": "right"
      },
      {
        "midi": 55,
        "time": 7.232,
        "duration": 0.067,
        "velocity": 1,
        "hand": "left"
      },
      {
        "midi": 67,
        "time": 7.232,
        "duration": 0.067,
        "velocity": 1,
        "hand": "right"
      },
      {
        "midi": 71,
        "time": 7.165,
        "duration": 0.067,
        "velocity": 1,
        "hand": "right"
      },
      {
        "midi": 56,
        "time": 7.299,
        "duration": 0.067,
        "velocity": 1,
        "hand": "left"
      },
      {
        "midi": 68,
        "time": 7.299,
        "duration": 0.067,
        "velocity": 1,
        "hand": "right"
      },
      {
        "midi": 50,
        "time": 7.5,
        "duration": 0.067,
        "velocity": 1,
        "hand": "left"
      },
      {
        "midi": 62,
        "time": 7.5,
        "duration": 0.067,
        "velocity": 1,
        "hand": "right"
      },
      {
        "midi": 64,
        "time": 7.433,
        "duration": 0.067,
        "velocity": 1,
        "hand": "right"
      },
      {
        "midi": 51,
        "time": 7.567,
        "duration": 0.067,
        "velocity": 1,
        "hand": "left"
      },
      {
        "midi": 63,
        "time": 7.567,
        "duration": 0.067,
        "velocity": 1,
        "hand": "right"
      },
      {
        "midi": 52,
        "time": 7.768,
        "duration": 0.067,
        "velocity": 1,
        "hand": "left"
      },
      {
        "midi": 64,
        "time": 7.768,
        "duration": 0.067,
        "velocity": 1,
        "hand": "right"
      },
      {
        "midi": 68,
        "time": 7.701,
        "duration": 0.067,
        "velocity": 1,
        "hand": "right"
      },
      {
        "midi": 53,
        "time": 7.835,
        "duration": 0.067,
        "velocity": 1,
        "hand": "left"
      },
      {
        "midi": 65,
        "time": 7.835,
        "duration": 0.067,
        "velocity": 1,
        "hand": "right"
      },
      {
        "midi": 53,
        "time": 8.036,
        "duration": 0.067,
        "velocity": 1,
        "hand": "left"
      },
      {
        "midi": 65,
        "time": 8.036,
        "duration": 0.067,
        "velocity": 1,
        "hand": "right"
      },
      {
        "midi": 71,
        "time": 7.969,
        "duration": 0.067,
        "velocity": 1,
        "hand": "right"
      },
      {
        "midi": 54,
        "time": 8.103,
        "duration": 0.067,
        "velocity": 1,
        "hand": "left"
      },
      {
        "midi": 66,
        "time": 8.103,
        "duration": 0.067,
        "velocity": 1,
        "hand": "right"
      },
      {
        "midi": 57,
        "time": 8.304,
        "duration": 0.067,
        "velocity": 1,
        "hand": "left"
      },
      {
        "midi": 69,
        "time": 8.304,
        "duration": 0.067,
        "velocity": 1,
        "hand": "right"
      },
      {
        "midi": 71,
        "time": 8.237,
        "duration": 0.067,
        "velocity": 1,
        "hand": "right"
      },
      {
        "midi": 58,
        "time": 8.371,
        "duration": 0.067,
        "velocity": 1,
        "hand": "left"
      },
      {
        "midi": 70,
        "time": 8.371,
        "duration": 0.067,
        "velocity": 1,
        "hand": "right"
      },
      {
        "midi": 61,
        "time": 8.571,
        "duration": 0.067,
        "velocity": 1,
        "hand": "right"
      },
      {
        "midi": 73,
        "time": 8.571,
        "duration": 0.067,
        "velocity": 1,
        "hand": "right"
      },
      {
        "midi": 75,
        "time": 8.504,
        "duration": 0.067,
        "velocity": 1,
        "hand": "right"
      },
      {
        "midi": 53,
        "time": 8.638,
        "duration": 0.067,
        "velocity": 1,
        "hand": "left"
      },
      {
        "midi": 65,
        "time": 8.638,
        "duration": 0.067,
        "velocity": 1,
        "hand": "right"
      },
      {
        "midi": 49,
        "time": 8.839,
        "duration": 0.067,
        "velocity": 1,
        "hand": "left"
      },
      {
        "midi": 61,
        "time": 8.839,
        "duration": 0.067,
        "velocity": 1,
        "hand": "right"
      },
      {
        "midi": 70,
        "time": 8.772,
        "duration": 0.067,
        "velocity": 1,
        "hand": "right"
      },
      {
        "midi": 52,
        "time": 8.906,
        "duration": 0.067,
        "velocity": 1,
        "hand": "left"
      },
      {
        "midi": 64,
        "time": 8.906,
        "duration": 0.067,
        "velocity": 1,
        "hand": "right"
      },
      {
        "midi": 57,
        "time": 9.04,
        "duration": 0.067,
        "velocity": 1,
        "hand": "left"
      },
      {
        "midi": 69,
        "time": 9.04,
        "duration": 0.067,
        "velocity": 1,
        "hand": "right"
      },
      {
        "midi": 72,
        "time": 9.107,
        "duration": 0.067,
        "velocity": 1,
        "hand": "right"
      },
      {
        "midi": 51,
        "time": 9.174,
        "duration": 0.067,
        "velocity": 1,
        "hand": "left"
      },
      {
        "midi": 63,
        "time": 9.174,
        "duration": 0.067,
        "velocity": 1,
        "hand": "right"
      },
      {
        "midi": 47,
        "time": 9.375,
        "duration": 0.067,
        "velocity": 1,
        "hand": "left"
      },
      {
        "midi": 59,
        "time": 9.375,
        "duration": 0.067,
        "velocity": 1,
        "hand": "left"
      },
      {
        "midi": 68,
        "time": 9.308,
        "duration": 0.067,
        "velocity": 1,
        "hand": "right"
      },
      {
        "midi": 50,
        "time": 9.442,
        "duration": 0.067,
        "velocity": 1,
        "hand": "left"
      },
      {
        "midi": 62,
        "time": 9.442,
        "duration": 0.067,
        "velocity": 1,
        "hand": "right"
      },
      {
        "midi": 55,
        "time": 9.576,
        "duration": 0.067,
        "velocity": 1,
        "hand": "left"
      },
      {
        "midi": 67,
        "time": 9.576,
        "duration": 0.067,
        "velocity": 1,
        "hand": "right"
      },
      {
        "midi": 71,
        "time": 9.643,
        "duration": 0.067,
        "velocity": 1,
        "hand": "right"
      },
      {
        "midi": 50,
        "time": 9.71,
        "duration": 0.067,
        "velocity": 1,
        "hand": "left"
      },
      {
        "midi": 62,
        "time": 9.71,
        "duration": 0.067,
        "velocity": 1,
        "hand": "right"
      },
      {
        "midi": 46,
        "time": 9.911,
        "duration": 0.067,
        "velocity": 1,
        "hand": "left"
      },
      {
        "midi": 58,
        "time": 9.911,
        "duration": 0.067,
        "velocity": 1,
        "hand": "left"
      },
      {
        "midi": 66,
        "time": 9.844,
        "duration": 0.067,
        "velocity": 1,
        "hand": "right"
      },
      {
        "midi": 49,
        "time": 9.978,
        "duration": 0.067,
        "velocity": 1,
        "hand": "left"
      },
      {
        "midi": 61,
        "time": 9.978,
        "duration": 0.067,
        "velocity": 1,
        "hand": "right"
      },
      {
        "midi": 54,
        "time": 10.112,
        "duration": 0.067,
        "velocity": 1,
        "hand": "left"
      },
      {
        "midi": 66,
        "time": 10.112,
        "duration": 0.067,
        "velocity": 1,
        "hand": "right"
      },
      {
        "midi": 70,
        "time": 10.179,
        "duration": 0.067,
        "velocity": 1,
        "hand": "right"
      },
      {
        "midi": 54,
        "time": 10.246,
        "duration": 0.067,
        "velocity": 1,
        "hand": "left"
      },
      {
        "midi": 66,
        "time": 10.246,
        "duration": 0.067,
        "velocity": 1,
        "hand": "right"
      },
      {
        "midi": 59,
        "time": 10.379,
        "duration": 0.067,
        "velocity": 1,
        "hand": "left"
      },
      {
        "midi": 71,
        "time": 10.379,
        "duration": 0.067,
        "velocity": 1,
        "hand": "right"
      },
      {
        "midi": 72,
        "time": 10.446,
        "duration": 0.067,
        "velocity": 1,
        "hand": "right"
      },
      {
        "midi": 61,
        "time": 10.513,
        "duration": 0.067,
        "velocity": 1,
        "hand": "right"
      },
      {
        "midi": 73,
        "time": 10.513,
        "duration": 0.067,
        "velocity": 1,
        "hand": "right"
      },
      {
        "midi": 63,
        "time": 10.647,
        "duration": 0.067,
        "velocity": 1,
        "hand": "right"
      },
      {
        "midi": 75,
        "time": 10.647,
        "duration": 0.067,
        "velocity": 1,
        "hand": "right"
      },
      {
        "midi": 76,
        "time": 10.714,
        "duration": 0.067,
        "velocity": 1,
        "hand": "right"
      },
      {
        "midi": 55,
        "time": 10.781,
        "duration": 0.067,
        "velocity": 1,
        "hand": "left"
      },
      {
        "midi": 67,
        "time": 10.781,
        "duration": 0.067,
        "velocity": 1,
        "hand": "right"
      },
      {
        "midi": 51,
        "time": 10.982,
        "duration": 0.067,
        "velocity": 1,
        "hand": "left"
      },
      {
        "midi": 63,
        "time": 10.982,
        "duration": 0.067,
        "velocity": 1,
        "hand": "right"
      },
      {
        "midi": 72,
        "time": 10.915,
        "duration": 0.067,
        "velocity": 1,
        "hand": "right"
      },
      {
        "midi": 54,
        "time": 11.049,
        "duration": 0.067,
        "velocity": 1,
        "hand": "left"
      },
      {
        "midi": 66,
        "time": 11.049,
        "duration": 0.067,
        "velocity": 1,
        "hand": "right"
      },
      {
        "midi": 59,
        "time": 11.183,
        "duration": 0.067,
        "velocity": 1,
        "hand": "left"
      },
      {
        "midi": 71,
        "time": 11.183,
        "duration": 0.067,
        "velocity": 1,
        "hand": "right"
      },
      {
        "midi": 74,
        "time": 11.25,
        "duration": 0.067,
        "velocity": 1,
        "hand": "right"
      },
      {
        "midi": 53,
        "time": 11.317,
        "duration": 0.067,
        "velocity": 1,
        "hand": "left"
      },
      {
        "midi": 65,
        "time": 11.317,
        "duration": 0.067,
        "velocity": 1,
        "hand": "right"
      },
      {
        "midi": 49,
        "time": 11.518,
        "duration": 0.067,
        "velocity": 1,
        "hand": "left"
      },
      {
        "midi": 61,
        "time": 11.518,
        "duration": 0.067,
        "velocity": 1,
        "hand": "right"
      },
      {
        "midi": 70,
        "time": 11.451,
        "duration": 0.067,
        "velocity": 1,
        "hand": "right"
      },
      {
        "midi": 52,
        "time": 11.585,
        "duration": 0.067,
        "velocity": 1,
        "hand": "left"
      },
      {
        "midi": 64,
        "time": 11.585,
        "duration": 0.067,
        "velocity": 1,
        "hand": "right"
      },
      {
        "midi": 57,
        "time": 11.719,
        "duration": 0.067,
        "velocity": 1,
        "hand": "left"
      },
      {
        "midi": 69,
        "time": 11.719,
        "duration": 0.067,
        "velocity": 1,
        "hand": "right"
      },
      {
        "midi": 72,
        "time": 11.786,
        "duration": 0.067,
        "velocity": 1,
        "hand": "right"
      },
      {
        "midi": 51,
        "time": 11.853,
        "duration": 0.067,
        "velocity": 1,
        "hand": "left"
      },
      {
        "midi": 63,
        "time": 11.853,
        "duration": 0.067,
        "velocity": 1,
        "hand": "right"
      },
      {
        "midi": 47,
        "time": 12.054,
        "duration": 0.067,
        "velocity": 1,
        "hand": "left"
      },
      {
        "midi": 59,
        "time": 12.054,
        "duration": 0.067,
        "velocity": 1,
        "hand": "left"
      },
      {
        "midi": 68,
        "time": 11.987,
        "duration": 0.067,
        "velocity": 1,
        "hand": "right"
      },
      {
        "midi": 50,
        "time": 12.121,
        "duration": 0.067,
        "velocity": 1,
        "hand": "left"
      },
      {
        "midi": 62,
        "time": 12.121,
        "duration": 0.067,
        "velocity": 1,
        "hand": "right"
      },
      {
        "midi": 55,
        "time": 12.254,
        "duration": 0.067,
        "velocity": 1,
        "hand": "left"
      },
      {
        "midi": 67,
        "time": 12.254,
        "duration": 0.067,
        "velocity": 1,
        "hand": "right"
      },
      {
        "midi": 71,
        "time": 12.321,
        "duration": 0.067,
        "velocity": 1,
        "hand": "right"
      },
      {
        "midi": 54,
        "time": 12.388,
        "duration": 0.067,
        "velocity": 1,
        "hand": "left"
      },
      {
        "midi": 66,
        "time": 12.388,
        "duration": 0.067,
        "velocity": 1,
        "hand": "right"
      },
      {
        "midi": 61,
        "time": 12.522,
        "duration": 0.067,
        "velocity": 1,
        "hand": "right"
      },
      {
        "midi": 73,
        "time": 12.522,
        "duration": 0.067,
        "velocity": 1,
        "hand": "right"
      },
      {
        "midi": 74,
        "time": 12.589,
        "duration": 0.067,
        "velocity": 1,
        "hand": "right"
      },
      {
        "midi": 63,
        "time": 12.656,
        "duration": 0.067,
        "velocity": 1,
        "hand": "right"
      },
      {
        "midi": 75,
        "time": 12.656,
        "duration": 0.067,
        "velocity": 1,
        "hand": "right"
      },
      {
        "midi": 64,
        "time": 12.79,
        "duration": 0.067,
        "velocity": 1,
        "hand": "right"
      },
      {
        "midi": 76,
        "time": 12.79,
        "duration": 0.067,
        "velocity": 1,
        "hand": "right"
      },
      {
        "midi": 77,
        "time": 12.857,
        "duration": 0.067,
        "velocity": 1,
        "hand": "right"
      },
      {
        "midi": 57,
        "time": 12.924,
        "duration": 0.067,
        "velocity": 1,
        "hand": "left"
      },
      {
        "midi": 69,
        "time": 12.924,
        "duration": 0.067,
        "velocity": 1,
        "hand": "right"
      },
      {
        "midi": 63,
        "time": 13.058,
        "duration": 0.067,
        "velocity": 1,
        "hand": "right"
      },
      {
        "midi": 75,
        "time": 13.058,
        "duration": 0.067,
        "velocity": 1,
        "hand": "right"
      },
      {
        "midi": 76,
        "time": 13.125,
        "duration": 0.067,
        "velocity": 1,
        "hand": "right"
      },
      {
        "midi": 65,
        "time": 13.192,
        "duration": 0.067,
        "velocity": 1,
        "hand": "right"
      },
      {
        "midi": 77,
        "time": 13.192,
        "duration": 0.067,
        "velocity": 1,
        "hand": "right"
      },
      {
        "midi": 65,
        "time": 13.393,
        "duration": 0.067,
        "velocity": 1,
        "hand": "right"
      },
      {
        "midi": 77,
        "time": 13.393,
        "duration": 0.067,
        "velocity": 1,
        "hand": "right"
      },
      {
        "midi": 78,
        "time": 13.326,
        "duration": 0.067,
        "velocity": 1,
        "hand": "right"
      },
      {
        "midi": 58,
        "time": 13.46,
        "duration": 0.067,
        "velocity": 1,
        "hand": "left"
      },
      {
        "midi": 70,
        "time": 13.46,
        "duration": 0.067,
        "velocity": 1,
        "hand": "right"
      },
      {
        "midi": 61,
        "time": 13.594,
        "duration": 0.067,
        "velocity": 1,
        "hand": "right"
      },
      {
        "midi": 73,
        "time": 13.594,
        "duration": 0.067,
        "velocity": 1,
        "hand": "right"
      },
      {
        "midi": 76,
        "time": 13.661,
        "duration": 0.067,
        "velocity": 1,
        "hand": "right"
      },
      {
        "midi": 65,
        "time": 13.728,
        "duration": 0.067,
        "velocity": 1,
        "hand": "right"
      },
      {
        "midi": 77,
        "time": 13.728,
        "duration": 0.067,
        "velocity": 1,
        "hand": "right"
      },
      {
        "midi": 66,
        "time": 13.862,
        "duration": 0.067,
        "velocity": 1,
        "hand": "right"
      },
      {
        "midi": 78,
        "time": 13.862,
        "duration": 0.067,
        "velocity": 1,
        "hand": "right"
      },
      {
        "midi": 79,
        "time": 13.929,
        "duration": 0.067,
        "velocity": 1,
        "hand": "right"
      },
      {
        "midi": 59,
        "time": 13.996,
        "duration": 0.067,
        "velocity": 1,
        "hand": "left"
      },
      {
        "midi": 71,
        "time": 13.996,
        "duration": 0.067,
        "velocity": 1,
        "hand": "right"
      },
      {
        "midi": 65,
        "time": 14.129,
        "duration": 0.067,
        "velocity": 1,
        "hand": "right"
      },
      {
        "midi": 77,
        "time": 14.129,
        "duration": 0.067,
        "velocity": 1,
        "hand": "right"
      },
      {
        "midi": 78,
        "time": 14.196,
        "duration": 0.067,
        "velocity": 1,
        "hand": "right"
      },
      {
        "midi": 67,
        "time": 14.263,
        "duration": 0.067,
        "velocity": 1,
        "hand": "right"
      },
      {
        "midi": 79,
        "time": 14.263,
        "duration": 0.067,
        "velocity": 1,
        "hand": "right"
      },
      {
        "midi": 67,
        "time": 14.464,
        "duration": 0.067,
        "velocity": 1,
        "hand": "right"
      },
      {
        "midi": 79,
        "time": 14.464,
        "duration": 0.067,
        "velocity": 1,
        "hand": "right"
      },
      {
        "midi": 80,
        "time": 14.397,
        "duration": 0.067,
        "velocity": 1,
        "hand": "right"
      },
      {
        "midi": 60,
        "time": 14.531,
        "duration": 0.067,
        "velocity": 1,
        "hand": "right"
      },
      {
        "midi": 72,
        "time": 14.531,
        "duration": 0.067,
        "velocity": 1,
        "hand": "right"
      },
      {
        "midi": 63,
        "time": 14.665,
        "duration": 0.067,
        "velocity": 1,
        "hand": "right"
      },
      {
        "midi": 75,
        "time": 14.665,
        "duration": 0.067,
        "velocity": 1,
        "hand": "right"
      },
      {
        "midi": 78,
        "time": 14.732,
        "duration": 0.067,
        "velocity": 1,
        "hand": "right"
      },
      {
        "midi": 67,
        "time": 14.799,
        "duration": 0.067,
        "velocity": 1,
        "hand": "right"
      },
      {
        "midi": 79,
        "time": 14.799,
        "duration": 0.067,
        "velocity": 1,
        "hand": "right"
      },
      {
        "midi": 63,
        "time": 15,
        "duration": 0.067,
        "velocity": 1,
        "hand": "right"
      },
      {
        "midi": 75,
        "time": 15,
        "duration": 0.067,
        "velocity": 1,
        "hand": "right"
      },
      {
        "midi": 80,
        "time": 14.933,
        "duration": 0.067,
        "velocity": 1,
        "hand": "right"
      },
      {
        "midi": 60,
        "time": 15.067,
        "duration": 0.067,
        "velocity": 1,
        "hand": "right"
      },
      {
        "midi": 72,
        "time": 15.067,
        "duration": 0.067,
        "velocity": 1,
        "hand": "right"
      },
      {
        "midi": 63,
        "time": 15.268,
        "duration": 0.067,
        "velocity": 1,
        "hand": "right"
      },
      {
        "midi": 75,
        "time": 15.268,
        "duration": 0.067,
        "velocity": 1,
        "hand": "right"
      },
      {
        "midi": 77,
        "time": 15.201,
        "duration": 0.067,
        "velocity": 1,
        "hand": "right"
      },
      {
        "midi": 56,
        "time": 15.335,
        "duration": 0.067,
        "velocity": 1,
        "hand": "left"
      },
      {
        "midi": 68,
        "time": 15.335,
        "duration": 0.067,
        "velocity": 1,
        "hand": "right"
      },
      {
        "midi": 60,
        "time": 15.536,
        "duration": 0.067,
        "velocity": 1,
        "hand": "right"
      },
      {
        "midi": 72,
        "time": 15.536,
        "duration": 0.067,
        "velocity": 1,
        "hand": "right"
      },
      {
        "midi": 73,
        "time": 15.469,
        "duration": 0.067,
        "velocity": 1,
        "hand": "right"
      },
      {
        "midi": 51,
        "time": 15.603,
        "duration": 0.067,
        "velocity": 1,
        "hand": "left"
      },
      {
        "midi": 63,
        "time": 15.603,
        "duration": 0.067,
        "velocity": 1,
        "hand": "right"
      },
      {
        "midi": 56,
        "time": 15.804,
        "duration": 0.067,
        "velocity": 1,
        "hand": "left"
      },
      {
        "midi": 68,
        "time": 15.804,
        "duration": 0.067,
        "velocity": 1,
        "hand": "right"
      },
      {
        "midi": 70,
        "time": 15.737,
        "duration": 0.067,
        "velocity": 1,
        "hand": "right"
      },
      {
        "midi": 48,
        "time": 15.871,
        "duration": 0.067,
        "velocity": 1,
        "hand": "left"
      },
      {
        "midi": 60,
        "time": 15.871,
        "duration": 0.067,
        "velocity": 1,
        "hand": "right"
      },
      {
        "midi": 51,
        "time": 16.071,
        "duration": 0.067,
        "velocity": 1,
        "hand": "left"
      },
      {
        "midi": 63,
        "time": 16.071,
        "duration": 0.067,
        "velocity": 1,
        "hand": "right"
      },
      {
        "midi": 65,
        "time": 16.004,
        "duration": 0.067,
        "velocity": 1,
        "hand": "right"
      },
      {
        "midi": 44,
        "time": 16.138,
        "duration": 0.067,
        "velocity": 1,
        "hand": "left"
      },
      {
        "midi": 56,
        "time": 16.138,
        "duration": 0.067,
        "velocity": 1,
        "hand": "left"
      },
      {
        "midi": 48,
        "time": 16.339,
        "duration": 0.067,
        "velocity": 1,
        "hand": "left"
      },
      {
        "midi": 60,
        "time": 16.339,
        "duration": 0.067,
        "velocity": 1,
        "hand": "right"
      },
      {
        "midi": 61,
        "time": 16.272,
        "duration": 0.067,
        "velocity": 1,
        "hand": "right"
      },
      {
        "midi": 43,
        "time": 16.406,
        "duration": 0.067,
        "velocity": 1,
        "hand": "left"
      },
      {
        "midi": 55,
        "time": 16.406,
        "duration": 0.067,
        "velocity": 1,
        "hand": "left"
      },
      {
        "midi": 44,
        "time": 16.54,
        "duration": 0.067,
        "velocity": 1,
        "hand": "left"
      },
      {
        "midi": 56,
        "time": 16.54,
        "duration": 0.067,
        "velocity": 1,
        "hand": "left"
      },
      {
        "midi": 60,
        "time": 16.607,
        "duration": 0.067,
        "velocity": 1,
        "hand": "right"
      },
      {
        "midi": 42,
        "time": 16.674,
        "duration": 0.067,
        "velocity": 1,
        "hand": "left"
      },
      {
        "midi": 54,
        "time": 16.674,
        "duration": 0.067,
        "velocity": 1,
        "hand": "left"
      },
      {
        "midi": 48,
        "time": 16.875,
        "duration": 0.067,
        "velocity": 1,
        "hand": "left"
      },
      {
        "midi": 60,
        "time": 16.875,
        "duration": 0.067,
        "velocity": 1,
        "hand": "right"
      },
      {
        "midi": 62,
        "time": 16.808,
        "duration": 0.067,
        "velocity": 1,
        "hand": "right"
      },
      {
        "midi": 41,
        "time": 16.942,
        "duration": 0.067,
        "velocity": 1,
        "hand": "left"
      },
      {
        "midi": 53,
        "time": 16.942,
        "duration": 0.067,
        "velocity": 1,
        "hand": "left"
      },
      {
        "midi": 42,
        "time": 17.076,
        "duration": 0.067,
        "velocity": 1,
        "hand": "left"
      },
      {
        "midi": 54,
        "time": 17.076,
        "duration": 0.067,
        "velocity": 1,
        "hand": "left"
      },
      {
        "midi": 55,
        "time": 17.143,
        "duration": 0.067,
        "velocity": 1,
        "hand": "left"
      },
      {
        "midi": 45,
        "time": 17.21,
        "duration": 0.067,
        "velocity": 1,
        "hand": "left"
      },
      {
        "midi": 57,
        "time": 17.21,
        "duration": 0.067,
        "velocity": 1,
        "hand": "left"
      },
      {
        "midi": 47,
        "time": 17.344,
        "duration": 0.067,
        "velocity": 1,
        "hand": "left"
      },
      {
        "midi": 59,
        "time": 17.344,
        "duration": 0.067,
        "velocity": 1,
        "hand": "left"
      },
      {
        "midi": 60,
        "time": 17.411,
        "duration": 0.067,
        "velocity": 1,
        "hand": "right"
      },
      {
        "midi": 50,
        "time": 17.478,
        "duration": 0.067,
        "velocity": 1,
        "hand": "left"
      },
      {
        "midi": 62,
        "time": 17.478,
        "duration": 0.067,
        "velocity": 1,
        "hand": "right"
      },
      {
        "midi": 44,
        "time": 17.679,
        "duration": 0.067,
        "velocity": 1,
        "hand": "left"
      },
      {
        "midi": 56,
        "time": 17.679,
        "duration": 0.067,
        "velocity": 1,
        "hand": "left"
      },
      {
        "midi": 63,
        "time": 17.612,
        "duration": 0.067,
        "velocity": 1,
        "hand": "right"
      },
      {
        "midi": 46,
        "time": 17.746,
        "duration": 0.067,
        "velocity": 1,
        "hand": "left"
      },
      {
        "midi": 58,
        "time": 17.746,
        "duration": 0.067,
        "velocity": 1,
        "hand": "left"
      },
      {
        "midi": 47,
        "time": 17.879,
        "duration": 0.067,
        "velocity": 1,
        "hand": "left"
      },
      {
        "midi": 59,
        "time": 17.879,
        "duration": 0.067,
        "velocity": 1,
        "hand": "left"
      },
      {
        "midi": 60,
        "time": 17.946,
        "duration": 0.067,
        "velocity": 1,
        "hand": "right"
      },
      {
        "midi": 49,
        "time": 18.013,
        "duration": 0.067,
        "velocity": 1,
        "hand": "left"
      },
      {
        "midi": 61,
        "time": 18.013,
        "duration": 0.067,
        "velocity": 1,
        "hand": "right"
      },
      {
        "midi": 45,
        "time": 18.214,
        "duration": 0.067,
        "velocity": 1,
        "hand": "left"
      },
      {
        "midi": 57,
        "time": 18.214,
        "duration": 0.067,
        "velocity": 1,
        "hand": "left"
      },
      {
        "midi": 63,
        "time": 18.147,
        "duration": 0.067,
        "velocity": 1,
        "hand": "right"
      },
      {
        "midi": 46,
        "time": 18.281,
        "duration": 0.067,
        "velocity": 1,
        "hand": "left"
      },
      {
        "midi": 58,
        "time": 18.281,
        "duration": 0.067,
        "velocity": 1,
        "hand": "left"
      },
      {
        "midi": 48,
        "time": 18.415,
        "duration": 0.067,
        "velocity": 1,
        "hand": "left"
      },
      {
        "midi": 60,
        "time": 18.415,
        "duration": 0.067,
        "velocity": 1,
        "hand": "right"
      },
      {
        "midi": 61,
        "time": 18.482,
        "duration": 0.067,
        "velocity": 1,
        "hand": "right"
      },
      {
        "midi": 51,
        "time": 18.549,
        "duration": 0.067,
        "velocity": 1,
        "hand": "left"
      },
      {
        "midi": 63,
        "time": 18.549,
        "duration": 0.067,
        "velocity": 1,
        "hand": "right"
      },
      {
        "midi": 46,
        "time": 18.75,
        "duration": 0.067,
        "velocity": 1,
        "hand": "left"
      },
      {
        "midi": 58,
        "time": 18.75,
        "duration": 0.067,
        "velocity": 1,
        "hand": "left"
      },
      {
        "midi": 65,
        "time": 18.683,
        "duration": 0.067,
        "velocity": 1,
        "hand": "right"
      },
      {
        "midi": 47,
        "time": 18.817,
        "duration": 0.067,
        "velocity": 1,
        "hand": "left"
      },
      {
        "midi": 59,
        "time": 18.817,
        "duration": 0.067,
        "velocity": 1,
        "hand": "left"
      },
      {
        "midi": 48,
        "time": 18.951,
        "duration": 0.067,
        "velocity": 1,
        "hand": "left"
      },
      {
        "midi": 60,
        "time": 18.951,
        "duration": 0.067,
        "velocity": 1,
        "hand": "right"
      },
      {
        "midi": 61,
        "time": 19.018,
        "duration": 0.067,
        "velocity": 1,
        "hand": "right"
      },
      {
        "midi": 51,
        "time": 19.085,
        "duration": 0.067,
        "velocity": 1,
        "hand": "left"
      },
      {
        "midi": 63,
        "time": 19.085,
        "duration": 0.067,
        "velocity": 1,
        "hand": "right"
      },
      {
        "midi": 48,
        "time": 19.286,
        "duration": 0.067,
        "velocity": 1,
        "hand": "left"
      },
      {
        "midi": 60,
        "time": 19.286,
        "duration": 0.067,
        "velocity": 1,
        "hand": "right"
      },
      {
        "midi": 65,
        "time": 19.219,
        "duration": 0.067,
        "velocity": 1,
        "hand": "right"
      },
      {
        "midi": 49,
        "time": 19.353,
        "duration": 0.067,
        "velocity": 1,
        "hand": "left"
      },
      {
        "midi": 61,
        "time": 19.353,
        "duration": 0.067,
        "velocity": 1,
        "hand": "right"
      },
      {
        "midi": 50,
        "time": 19.487,
        "duration": 0.067,
        "velocity": 1,
        "hand": "left"
      },
      {
        "midi": 62,
        "time": 19.487,
        "duration": 0.067,
        "velocity": 1,
        "hand": "right"
      },
      {
        "midi": 63,
        "time": 19.554,
        "duration": 0.067,
        "velocity": 1,
        "hand": "right"
      },
      {
        "midi": 53,
        "time": 19.621,
        "duration": 0.067,
        "velocity": 1,
        "hand": "left"
      },
      {
        "midi": 65,
        "time": 19.621,
        "duration": 0.067,
        "velocity": 1,
        "hand": "right"
      },
      {
        "midi": 45,
        "time": 19.821,
        "duration": 0.067,
        "velocity": 1,
        "hand": "left"
      },
      {
        "midi": 57,
        "time": 19.821,
        "duration": 0.067,
        "velocity": 1,
        "hand": "left"
      },
      {
        "midi": 66,
        "time": 19.754,
        "duration": 0.067,
        "velocity": 1,
        "hand": "right"
      },
      {
        "midi": 49,
        "time": 19.888,
        "duration": 0.067,
        "velocity": 1,
        "hand": "left"
      },
      {
        "midi": 61,
        "time": 19.888,
        "duration": 0.067,
        "velocity": 1,
        "hand": "right"
      },
      {
        "midi": 50,
        "time": 20.022,
        "duration": 0.067,
        "velocity": 1,
        "hand": "left"
      },
      {
        "midi": 62,
        "time": 20.022,
        "duration": 0.067,
        "velocity": 1,
        "hand": "right"
      },
      {
        "midi": 63,
        "time": 20.089,
        "duration": 0.067,
        "velocity": 1,
        "hand": "right"
      },
      {
        "midi": 53,
        "time": 20.156,
        "duration": 0.067,
        "velocity": 1,
        "hand": "left"
      },
      {
        "midi": 65,
        "time": 20.156,
        "duration": 0.067,
        "velocity": 1,
        "hand": "right"
      },
      {
        "midi": 54,
        "time": 20.29,
        "duration": 0.067,
        "velocity": 1,
        "hand": "left"
      },
      {
        "midi": 66,
        "time": 20.29,
        "duration": 0.067,
        "velocity": 1,
        "hand": "right"
      },
      {
        "midi": 69,
        "time": 20.357,
        "duration": 0.067,
        "velocity": 1,
        "hand": "right"
      },
      {
        "midi": 54,
        "time": 20.424,
        "duration": 0.067,
        "velocity": 1,
        "hand": "left"
      },
      {
        "midi": 66,
        "time": 20.424,
        "duration": 0.067,
        "velocity": 1,
        "hand": "right"
      },
      {
        "midi": 50,
        "time": 20.625,
        "duration": 0.067,
        "velocity": 1,
        "hand": "left"
      },
      {
        "midi": 62,
        "time": 20.625,
        "duration": 0.067,
        "velocity": 1,
        "hand": "right"
      },
      {
        "midi": 64,
        "time": 20.558,
        "duration": 0.067,
        "velocity": 1,
        "hand": "right"
      },
      {
        "midi": 52,
        "time": 20.692,
        "duration": 0.067,
        "velocity": 1,
        "hand": "left"
      },
      {
        "midi": 64,
        "time": 20.692,
        "duration": 0.067,
        "velocity": 1,
        "hand": "right"
      },
      {
        "midi": 45,
        "time": 20.893,
        "duration": 0.067,
        "velocity": 1,
        "hand": "left"
      },
      {
        "midi": 57,
        "time": 20.893,
        "duration": 0.067,
        "velocity": 1,
        "hand": "left"
      },
      {
        "midi": 66,
        "time": 20.826,
        "duration": 0.067,
        "velocity": 1,
        "hand": "right"
      },
      {
        "midi": 49,
        "time": 20.96,
        "duration": 0.067,
        "velocity": 1,
        "hand": "left"
      },
      {
        "midi": 61,
        "time": 20.96,
        "duration": 0.067,
        "velocity": 1,
        "hand": "right"
      },
      {
        "midi": 50,
        "time": 21.094,
        "duration": 0.067,
        "velocity": 1,
        "hand": "left"
      },
      {
        "midi": 62,
        "time": 21.094,
        "duration": 0.067,
        "velocity": 1,
        "hand": "right"
      },
      {
        "midi": 64,
        "time": 21.161,
        "duration": 0.067,
        "velocity": 1,
        "hand": "right"
      },
      {
        "midi": 53,
        "time": 21.228,
        "duration": 0.067,
        "velocity": 1,
        "hand": "left"
      },
      {
        "midi": 65,
        "time": 21.228,
        "duration": 0.067,
        "velocity": 1,
        "hand": "right"
      },
      {
        "midi": 54,
        "time": 21.362,
        "duration": 0.067,
        "velocity": 1,
        "hand": "left"
      },
      {
        "midi": 66,
        "time": 21.362,
        "duration": 0.067,
        "velocity": 1,
        "hand": "right"
      },
      {
        "midi": 69,
        "time": 21.429,
        "duration": 0.067,
        "velocity": 1,
        "hand": "right"
      },
      {
        "midi": 56,
        "time": 21.496,
        "duration": 0.067,
        "velocity": 1,
        "hand": "left"
      },
      {
        "midi": 68,
        "time": 21.496,
        "duration": 0.067,
        "velocity": 1,
        "hand": "right"
      },
      {
        "midi": 54,
        "time": 21.696,
        "duration": 0.067,
        "velocity": 1,
        "hand": "left"
      },
      {
        "midi": 66,
        "time": 21.696,
        "duration": 0.067,
        "velocity": 1,
        "hand": "right"
      },
      {
        "midi": 67,
        "time": 21.629,
        "duration": 0.067,
        "velocity": 1,
        "hand": "right"
      },
      {
        "midi": 51,
        "time": 21.763,
        "duration": 0.067,
        "velocity": 1,
        "hand": "left"
      },
      {
        "midi": 63,
        "time": 21.763,
        "duration": 0.067,
        "velocity": 1,
        "hand": "right"
      },
      {
        "midi": 48,
        "time": 21.897,
        "duration": 0.067,
        "velocity": 1,
        "hand": "left"
      },
      {
        "midi": 60,
        "time": 21.897,
        "duration": 0.067,
        "velocity": 1,
        "hand": "right"
      },
      {
        "midi": 66,
        "time": 21.964,
        "duration": 0.067,
        "velocity": 1,
        "hand": "right"
      },
      {
        "midi": 51,
        "time": 22.031,
        "duration": 0.067,
        "velocity": 1,
        "hand": "left"
      },
      {
        "midi": 63,
        "time": 22.031,
        "duration": 0.067,
        "velocity": 1,
        "hand": "right"
      },
      {
        "midi": 46,
        "time": 22.232,
        "duration": 0.067,
        "velocity": 1,
        "hand": "left"
      },
      {
        "midi": 58,
        "time": 22.232,
        "duration": 0.067,
        "velocity": 1,
        "hand": "left"
      },
      {
        "midi": 60,
        "time": 22.165,
        "duration": 0.067,
        "velocity": 1,
        "hand": "right"
      },
      {
        "midi": 45,
        "time": 22.299,
        "duration": 0.067,
        "velocity": 1,
        "hand": "left"
      },
      {
        "midi": 57,
        "time": 22.299,
        "duration": 0.067,
        "velocity": 1,
        "hand": "left"
      },
      {
        "midi": 43,
        "time": 22.5,
        "duration": 0.067,
        "velocity": 1,
        "hand": "left"
      },
      {
        "midi": 55,
        "time": 22.5,
        "duration": 0.067,
        "velocity": 1,
        "hand": "left"
      },
      {
        "midi": 56,
        "time": 22.433,
        "duration": 0.067,
        "velocity": 1,
        "hand": "left"
      },
      {
        "midi": 44,
        "time": 22.567,
        "duration": 0.067,
        "velocity": 1,
        "hand": "left"
      },
      {
        "midi": 56,
        "time": 22.567,
        "duration": 0.067,
        "velocity": 1,
        "hand": "left"
      },
      {
        "midi": 41,
        "time": 22.768,
        "duration": 0.067,
        "velocity": 1,
        "hand": "left"
      },
      {
        "midi": 53,
        "time": 22.768,
        "duration": 0.067,
        "velocity": 1,
        "hand": "left"
      },
      {
        "midi": 57,
        "time": 22.701,
        "duration": 0.067,
        "velocity": 1,
        "hand": "left"
      },
      {
        "midi": 42,
        "time": 22.835,
        "duration": 0.067,
        "velocity": 1,
        "hand": "left"
      },
      {
        "midi": 54,
        "time": 22.835,
        "duration": 0.067,
        "velocity": 1,
        "hand": "left"
      },
      {
        "midi": 40,
        "time": 23.036,
        "duration": 0.067,
        "velocity": 1,
        "hand": "left"
      },
      {
        "midi": 52,
        "time": 23.036,
        "duration": 0.067,
        "velocity": 1,
        "hand": "left"
      },
      {
        "midi": 56,
        "time": 22.969,
        "duration": 0.067,
        "velocity": 1,
        "hand": "left"
      },
      {
        "midi": 41,
        "time": 23.103,
        "duration": 0.067,
        "velocity": 1,
        "hand": "left"
      },
      {
        "midi": 53,
        "time": 23.103,
        "duration": 0.067,
        "velocity": 1,
        "hand": "left"
      },
      {
        "midi": 38,
        "time": 23.304,
        "duration": 0.067,
        "velocity": 1,
        "hand": "left"
      },
      {
        "midi": 50,
        "time": 23.304,
        "duration": 0.067,
        "velocity": 1,
        "hand": "left"
      },
      {
        "midi": 54,
        "time": 23.237,
        "duration": 0.067,
        "velocity": 1,
        "hand": "left"
      },
      {
        "midi": 40,
        "time": 23.371,
        "duration": 0.067,
        "velocity": 1,
        "hand": "left"
      },
      {
        "midi": 52,
        "time": 23.371,
        "duration": 0.067,
        "velocity": 1,
        "hand": "left"
      },
      {
        "midi": 31,
        "time": 23.571,
        "duration": 0.067,
        "velocity": 1,
        "hand": "left"
      },
      {
        "midi": 43,
        "time": 23.571,
        "duration": 0.067,
        "velocity": 1,
        "hand": "left"
      },
      {
        "midi": 53,
        "time": 23.504,
        "duration": 0.067,
        "velocity": 1,
        "hand": "left"
      },
      {
        "midi": 32,
        "time": 23.638,
        "duration": 0.067,
        "velocity": 1,
        "hand": "left"
      },
      {
        "midi": 44,
        "time": 23.638,
        "duration": 0.067,
        "velocity": 1,
        "hand": "left"
      },
      {
        "midi": 34,
        "time": 23.772,
        "duration": 0.067,
        "velocity": 1,
        "hand": "left"
      },
      {
        "midi": 46,
        "time": 23.772,
        "duration": 0.067,
        "velocity": 1,
        "hand": "left"
      },
      {
        "midi": 48,
        "time": 23.839,
        "duration": 0.067,
        "velocity": 1,
        "hand": "left"
      },
      {
        "midi": 37,
        "time": 23.906,
        "duration": 0.067,
        "velocity": 1,
        "hand": "left"
      },
      {
        "midi": 49,
        "time": 23.906,
        "duration": 0.067,
        "velocity": 1,
        "hand": "left"
      },
      {
        "midi": 39,
        "time": 24.04,
        "duration": 0.067,
        "velocity": 1,
        "hand": "left"
      },
      {
        "midi": 51,
        "time": 24.04,
        "duration": 0.067,
        "velocity": 1,
        "hand": "left"
      },
      {
        "midi": 53,
        "time": 24.107,
        "duration": 0.067,
        "velocity": 1,
        "hand": "left"
      },
      {
        "midi": 42,
        "time": 24.174,
        "duration": 0.067,
        "velocity": 1,
        "hand": "left"
      },
      {
        "midi": 54,
        "time": 24.174,
        "duration": 0.067,
        "velocity": 1,
        "hand": "left"
      },
      {
        "midi": 43,
        "time": 24.308,
        "duration": 0.067,
        "velocity": 1,
        "hand": "left"
      },
      {
        "midi": 55,
        "time": 24.308,
        "duration": 0.067,
        "velocity": 1,
        "hand": "left"
      },
      {
        "midi": 56,
        "time": 24.375,
        "duration": 0.067,
        "velocity": 1,
        "hand": "left"
      },
      {
        "midi": 41,
        "time": 24.442,
        "duration": 0.067,
        "velocity": 1,
        "hand": "left"
      },
      {
        "midi": 53,
        "time": 24.442,
        "duration": 0.067,
        "velocity": 1,
        "hand": "left"
      },
      {
        "midi": 44,
        "time": 24.643,
        "duration": 0.067,
        "velocity": 1,
        "hand": "left"
      },
      {
        "midi": 56,
        "time": 24.643,
        "duration": 0.067,
        "velocity": 1,
        "hand": "left"
      },
      {
        "midi": 58,
        "time": 24.576,
        "duration": 0.067,
        "velocity": 1,
        "hand": "left"
      },
      {
        "midi": 53,
        "time": 24.71,
        "duration": 0.067,
        "velocity": 1,
        "hand": "left"
      },
      {
        "midi": 65,
        "time": 24.71,
        "duration": 0.067,
        "velocity": 1,
        "hand": "right"
      },
      {
        "midi": 49,
        "time": 24.911,
        "duration": 0.067,
        "velocity": 1,
        "hand": "left"
      },
      {
        "midi": 61,
        "time": 24.911,
        "duration": 0.067,
        "velocity": 1,
        "hand": "right"
      },
      {
        "midi": 63,
        "time": 24.844,
        "duration": 0.067,
        "velocity": 1,
        "hand": "right"
      },
      {
        "midi": 48,
        "time": 24.978,
        "duration": 0.067,
        "velocity": 1,
        "hand": "left"
      },
      {
        "midi": 60,
        "time": 24.978,
        "duration": 0.067,
        "velocity": 1,
        "hand": "right"
      },
      {
        "midi": 44,
        "time": 25.179,
        "duration": 0.067,
        "velocity": 1,
        "hand": "left"
      },
      {
        "midi": 56,
        "time": 25.179,
        "duration": 0.067,
        "velocity": 1,
        "hand": "left"
      },
      {
        "midi": 58,
        "time": 25.112,
        "duration": 0.067,
        "velocity": 1,
        "hand": "left"
      },
      {
        "midi": 41,
        "time": 25.246,
        "duration": 0.067,
        "velocity": 1,
        "hand": "left"
      },
      {
        "midi": 53,
        "time": 25.246,
        "duration": 0.067,
        "velocity": 1,
        "hand": "left"
      },
      {
        "midi": 42,
        "time": 25.379,
        "duration": 0.067,
        "velocity": 1,
        "hand": "left"
      },
      {
        "midi": 54,
        "time": 25.379,
        "duration": 0.067,
        "velocity": 1,
        "hand": "left"
      },
      {
        "midi": 56,
        "time": 25.446,
        "duration": 0.067,
        "velocity": 1,
        "hand": "left"
      },
      {
        "midi": 41,
        "time": 25.513,
        "duration": 0.067,
        "velocity": 1,
        "hand": "left"
      },
      {
        "midi": 53,
        "time": 25.513,
        "duration": 0.067,
        "velocity": 1,
        "hand": "left"
      },
      {
        "midi": 44,
        "time": 25.714,
        "duration": 0.067,
        "velocity": 1,
        "hand": "left"
      },
      {
        "midi": 56,
        "time": 25.714,
        "duration": 0.067,
        "velocity": 1,
        "hand": "left"
      },
      {
        "midi": 58,
        "time": 25.647,
        "duration": 0.067,
        "velocity": 1,
        "hand": "left"
      },
      {
        "midi": 39,
        "time": 25.781,
        "duration": 0.067,
        "velocity": 1,
        "hand": "left"
      },
      {
        "midi": 51,
        "time": 25.781,
        "duration": 0.067,
        "velocity": 1,
        "hand": "left"
      },
      {
        "midi": 41,
        "time": 25.915,
        "duration": 0.067,
        "velocity": 1,
        "hand": "left"
      },
      {
        "midi": 53,
        "time": 25.915,
        "duration": 0.067,
        "velocity": 1,
        "hand": "left"
      },
      {
        "midi": 54,
        "time": 25.982,
        "duration": 0.067,
        "velocity": 1,
        "hand": "left"
      },
      {
        "midi": 39,
        "time": 26.049,
        "duration": 0.067,
        "velocity": 1,
        "hand": "left"
      },
      {
        "midi": 51,
        "time": 26.049,
        "duration": 0.067,
        "velocity": 1,
        "hand": "left"
      },
      {
        "midi": 44,
        "time": 26.25,
        "duration": 0.067,
        "velocity": 1,
        "hand": "left"
      },
      {
        "midi": 56,
        "time": 26.25,
        "duration": 0.067,
        "velocity": 1,
        "hand": "left"
      },
      {
        "midi": 58,
        "time": 26.183,
        "duration": 0.067,
        "velocity": 1,
        "hand": "left"
      },
      {
        "midi": 37,
        "time": 26.317,
        "duration": 0.067,
        "velocity": 1,
        "hand": "left"
      },
      {
        "midi": 49,
        "time": 26.317,
        "duration": 0.067,
        "velocity": 1,
        "hand": "left"
      },
      {
        "midi": 39,
        "time": 26.451,
        "duration": 0.067,
        "velocity": 1,
        "hand": "left"
      },
      {
        "midi": 51,
        "time": 26.451,
        "duration": 0.067,
        "velocity": 1,
        "hand": "left"
      },
      {
        "midi": 53,
        "time": 26.518,
        "duration": 0.067,
        "velocity": 1,
        "hand": "left"
      },
      {
        "midi": 37,
        "time": 26.585,
        "duration": 0.067,
        "velocity": 1,
        "hand": "left"
      },
      {
        "midi": 49,
        "time": 26.585,
        "duration": 0.067,
        "velocity": 1,
        "hand": "left"
      },
      {
        "midi": 44,
        "time": 26.786,
        "duration": 0.067,
        "velocity": 1,
        "hand": "left"
      },
      {
        "midi": 56,
        "time": 26.786,
        "duration": 0.067,
        "velocity": 1,
        "hand": "left"
      },
      {
        "midi": 58,
        "time": 26.719,
        "duration": 0.067,
        "velocity": 1,
        "hand": "left"
      },
      {
        "midi": 36,
        "time": 26.853,
        "duration": 0.067,
        "velocity": 1,
        "hand": "left"
      },
      {
        "midi": 48,
        "time": 26.853,
        "duration": 0.067,
        "velocity": 1,
        "hand": "left"
      },
      {
        "midi": 37,
        "time": 26.987,
        "duration": 0.067,
        "velocity": 1,
        "hand": "left"
      },
      {
        "midi": 49,
        "time": 26.987,
        "duration": 0.067,
        "velocity": 1,
        "hand": "left"
      },
      {
        "midi": 51,
        "time": 27.054,
        "duration": 0.067,
        "velocity": 1,
        "hand": "left"
      },
      {
        "midi": 36,
        "time": 27.121,
        "duration": 0.067,
        "velocity": 1,
        "hand": "left"
      },
      {
        "midi": 48,
        "time": 27.121,
        "duration": 0.067,
        "velocity": 1,
        "hand": "left"
      },
      {
        "midi": 39,
        "time": 27.321,
        "duration": 0.067,
        "velocity": 1,
        "hand": "left"
      },
      {
        "midi": 51,
        "time": 27.321,
        "duration": 0.067,
        "velocity": 1,
        "hand": "left"
      },
      {
        "midi": 53,
        "time": 27.254,
        "duration": 0.067,
        "velocity": 1,
        "hand": "left"
      },
      {
        "midi": 34,
        "time": 27.388,
        "duration": 0.067,
        "velocity": 1,
        "hand": "left"
      },
      {
        "midi": 46,
        "time": 27.388,
        "duration": 0.067,
        "velocity": 1,
        "hand": "left"
      },
      {
        "midi": 39,
        "time": 27.589,
        "duration": 0.067,
        "velocity": 1,
        "hand": "left"
      },
      {
        "midi": 51,
        "time": 27.589,
        "duration": 0.067,
        "velocity": 1,
        "hand": "left"
      },
      {
        "midi": 53,
        "time": 27.522,
        "duration": 0.067,
        "velocity": 1,
        "hand": "left"
      },
      {
        "midi": 32,
        "time": 27.656,
        "duration": 0.067,
        "velocity": 1,
        "hand": "left"
      },
      {
        "midi": 44,
        "time": 27.656,
        "duration": 0.067,
        "velocity": 1,
        "hand": "left"
      },
      {
        "midi": 32,
        "time": 27.857,
        "duration": 0.067,
        "velocity": 1,
        "hand": "left"
      },
      {
        "midi": 44,
        "time": 27.857,
        "duration": 0.067,
        "velocity": 1,
        "hand": "left"
      },
      {
        "midi": 46,
        "time": 27.79,
        "duration": 0.067,
        "velocity": 1,
        "hand": "left"
      },
      {
        "midi": 37,
        "time": 27.924,
        "duration": 0.067,
        "velocity": 1,
        "hand": "left"
      },
      {
        "midi": 49,
        "time": 27.924,
        "duration": 0.067,
        "velocity": 1,
        "hand": "left"
      },
      {
        "midi": 39,
        "time": 28.058,
        "duration": 0.067,
        "velocity": 1,
        "hand": "left"
      },
      {
        "midi": 51,
        "time": 28.058,
        "duration": 0.067,
        "velocity": 1,
        "hand": "left"
      },
      {
        "midi": 53,
        "time": 28.125,
        "duration": 0.067,
        "velocity": 1,
        "hand": "left"
      },
      {
        "midi": 42,
        "time": 28.192,
        "duration": 0.067,
        "velocity": 1,
        "hand": "left"
      },
      {
        "midi": 54,
        "time": 28.192,
        "duration": 0.067,
        "velocity": 1,
        "hand": "left"
      },
      {
        "midi": 44,
        "time": 28.326,
        "duration": 0.067,
        "velocity": 1,
        "hand": "left"
      },
      {
        "midi": 56,
        "time": 28.326,
        "duration": 0.067,
        "velocity": 1,
        "hand": "left"
      },
      {
        "midi": 58,
        "time": 28.393,
        "duration": 0.067,
        "velocity": 1,
        "hand": "left"
      },
      {
        "midi": 48,
        "time": 28.46,
        "duration": 0.067,
        "velocity": 1,
        "hand": "left"
      },
      {
        "midi": 60,
        "time": 28.46,
        "duration": 0.067,
        "velocity": 1,
        "hand": "right"
      },
      {
        "midi": 49,
        "time": 28.594,
        "duration": 0.067,
        "velocity": 1,
        "hand": "left"
      },
      {
        "midi": 61,
        "time": 28.594,
        "duration": 0.067,
        "velocity": 1,
        "hand": "right"
      },
      {
        "midi": 63,
        "time": 28.661,
        "duration": 0.067,
        "velocity": 1,
        "hand": "right"
      },
      {
        "midi": 53,
        "time": 28.728,
        "duration": 0.067,
        "velocity": 1,
        "hand": "left"
      },
      {
        "midi": 65,
        "time": 28.728,
        "duration": 0.067,
        "velocity": 1,
        "hand": "right"
      },
      {
        "midi": 54,
        "time": 28.862,
        "duration": 0.067,
        "velocity": 1,
        "hand": "left"
      },
      {
        "midi": 66,
        "time": 28.862,
        "duration": 0.067,
        "velocity": 1,
        "hand": "right"
      },
      {
        "midi": 68,
        "time": 28.929,
        "duration": 0.067,
        "velocity": 1,
        "hand": "right"
      },
      {
        "midi": 65,
        "time": 28.996,
        "duration": 0.067,
        "velocity": 1,
        "hand": "right"
      },
      {
        "midi": 77,
        "time": 28.996,
        "duration": 0.067,
        "velocity": 1,
        "hand": "right"
      },
      {
        "midi": 61,
        "time": 29.196,
        "duration": 0.067,
        "velocity": 1,
        "hand": "right"
      },
      {
        "midi": 73,
        "time": 29.196,
        "duration": 0.067,
        "velocity": 1,
        "hand": "right"
      },
      {
        "midi": 75,
        "time": 29.129,
        "duration": 0.067,
        "velocity": 1,
        "hand": "right"
      },
      {
        "midi": 60,
        "time": 29.263,
        "duration": 0.067,
        "velocity": 1,
        "hand": "right"
      },
      {
        "midi": 72,
        "time": 29.263,
        "duration": 0.067,
        "velocity": 1,
        "hand": "right"
      },
      {
        "midi": 56,
        "time": 29.464,
        "duration": 0.067,
        "velocity": 1,
        "hand": "left"
      },
      {
        "midi": 68,
        "time": 29.464,
        "duration": 0.067,
        "velocity": 1,
        "hand": "right"
      },
      {
        "midi": 70,
        "time": 29.397,
        "duration": 0.067,
        "velocity": 1,
        "hand": "right"
      },
      {
        "midi": 53,
        "time": 29.531,
        "duration": 0.067,
        "velocity": 1,
        "hand": "left"
      },
      {
        "midi": 65,
        "time": 29.531,
        "duration": 0.067,
        "velocity": 1,
        "hand": "right"
      },
      {
        "midi": 54,
        "time": 29.665,
        "duration": 0.067,
        "velocity": 1,
        "hand": "left"
      },
      {
        "midi": 66,
        "time": 29.665,
        "duration": 0.067,
        "velocity": 1,
        "hand": "right"
      },
      {
        "midi": 68,
        "time": 29.732,
        "duration": 0.067,
        "velocity": 1,
        "hand": "right"
      },
      {
        "midi": 53,
        "time": 29.799,
        "duration": 0.067,
        "velocity": 1,
        "hand": "left"
      },
      {
        "midi": 65,
        "time": 29.799,
        "duration": 0.067,
        "velocity": 1,
        "hand": "right"
      },
      {
        "midi": 56,
        "time": 30,
        "duration": 0.067,
        "velocity": 1,
        "hand": "left"
      },
      {
        "midi": 68,
        "time": 30,
        "duration": 0.067,
        "velocity": 1,
        "hand": "right"
      },
      {
        "midi": 70,
        "time": 29.933,
        "duration": 0.067,
        "velocity": 1,
        "hand": "right"
      },
      {
        "midi": 51,
        "time": 30.067,
        "duration": 0.067,
        "velocity": 1,
        "hand": "left"
      },
      {
        "midi": 63,
        "time": 30.067,
        "duration": 0.067,
        "velocity": 1,
        "hand": "right"
      },
      {
        "midi": 53,
        "time": 30.201,
        "duration": 0.067,
        "velocity": 1,
        "hand": "left"
      },
      {
        "midi": 65,
        "time": 30.201,
        "duration": 0.067,
        "velocity": 1,
        "hand": "right"
      },
      {
        "midi": 66,
        "time": 30.268,
        "duration": 0.067,
        "velocity": 1,
        "hand": "right"
      },
      {
        "midi": 51,
        "time": 30.335,
        "duration": 0.067,
        "velocity": 1,
        "hand": "left"
      },
      {
        "midi": 63,
        "time": 30.335,
        "duration": 0.067,
        "velocity": 1,
        "hand": "right"
      },
      {
        "midi": 56,
        "time": 30.536,
        "duration": 0.067,
        "velocity": 1,
        "hand": "left"
      },
      {
        "midi": 68,
        "time": 30.536,
        "duration": 0.067,
        "velocity": 1,
        "hand": "right"
      },
      {
        "midi": 70,
        "time": 30.469,
        "duration": 0.067,
        "velocity": 1,
        "hand": "right"
      },
      {
        "midi": 49,
        "time": 30.603,
        "duration": 0.067,
        "velocity": 1,
        "hand": "left"
      },
      {
        "midi": 61,
        "time": 30.603,
        "duration": 0.067,
        "velocity": 1,
        "hand": "right"
      },
      {
        "midi": 51,
        "time": 30.737,
        "duration": 0.067,
        "velocity": 1,
        "hand": "left"
      },
      {
        "midi": 63,
        "time": 30.737,
        "duration": 0.067,
        "velocity": 1,
        "hand": "right"
      },
      {
        "midi": 65,
        "time": 30.804,
        "duration": 0.067,
        "velocity": 1,
        "hand": "right"
      },
      {
        "midi": 49,
        "time": 30.871,
        "duration": 0.067,
        "velocity": 1,
        "hand": "left"
      },
      {
        "midi": 61,
        "time": 30.871,
        "duration": 0.067,
        "velocity": 1,
        "hand": "right"
      },
      {
        "midi": 56,
        "time": 31.071,
        "duration": 0.067,
        "velocity": 1,
        "hand": "left"
      },
      {
        "midi": 68,
        "time": 31.071,
        "duration": 0.067,
        "velocity": 1,
        "hand": "right"
      },
      {
        "midi": 70,
        "time": 31.004,
        "duration": 0.067,
        "velocity": 1,
        "hand": "right"
      },
      {
        "midi": 48,
        "time": 31.138,
        "duration": 0.067,
        "velocity": 1,
        "hand": "left"
      },
      {
        "midi": 60,
        "time": 31.138,
        "duration": 0.067,
        "velocity": 1,
        "hand": "right"
      },
      {
        "midi": 49,
        "time": 31.272,
        "duration": 0.067,
        "velocity": 1,
        "hand": "left"
      },
      {
        "midi": 61,
        "time": 31.272,
        "duration": 0.067,
        "velocity": 1,
        "hand": "right"
      },
      {
        "midi": 63,
        "time": 31.339,
        "duration": 0.067,
        "velocity": 1,
        "hand": "right"
      },
      {
        "midi": 48,
        "time": 31.406,
        "duration": 0.067,
        "velocity": 1,
        "hand": "left"
      },
      {
        "midi": 60,
        "time": 31.406,
        "duration": 0.067,
        "velocity": 1,
        "hand": "right"
      },
      {
        "midi": 51,
        "time": 31.607,
        "duration": 0.067,
        "velocity": 1,
        "hand": "left"
      },
      {
        "midi": 63,
        "time": 31.607,
        "duration": 0.067,
        "velocity": 1,
        "hand": "right"
      },
      {
        "midi": 65,
        "time": 31.54,
        "duration": 0.067,
        "velocity": 1,
        "hand": "right"
      },
      {
        "midi": 46,
        "time": 31.674,
        "duration": 0.067,
        "velocity": 1,
        "hand": "left"
      },
      {
        "midi": 58,
        "time": 31.674,
        "duration": 0.067,
        "velocity": 1,
        "hand": "left"
      },
      {
        "midi": 51,
        "time": 31.875,
        "duration": 0.067,
        "velocity": 1,
        "hand": "left"
      },
      {
        "midi": 63,
        "time": 31.875,
        "duration": 0.067,
        "velocity": 1,
        "hand": "right"
      },
      {
        "midi": 65,
        "time": 31.808,
        "duration": 0.067,
        "velocity": 1,
        "hand": "right"
      },
      {
        "midi": 44,
        "time": 31.942,
        "duration": 0.067,
        "velocity": 1,
        "hand": "left"
      },
      {
        "midi": 56,
        "time": 31.942,
        "duration": 0.067,
        "velocity": 1,
        "hand": "left"
      },
      {
        "midi": 53,
        "time": 32.076,
        "duration": 0.067,
        "velocity": 1,
        "hand": "left"
      },
      {
        "midi": 65,
        "time": 32.076,
        "duration": 0.067,
        "velocity": 1,
        "hand": "right"
      },
      {
        "midi": 66,
        "time": 32.143,
        "duration": 0.067,
        "velocity": 1,
        "hand": "right"
      },
      {
        "midi": 53,
        "time": 32.21,
        "duration": 0.067,
        "velocity": 1,
        "hand": "left"
      },
      {
        "midi": 65,
        "time": 32.21,
        "duration": 0.067,
        "velocity": 1,
        "hand": "right"
      },
      {
        "midi": 49,
        "time": 32.411,
        "duration": 0.067,
        "velocity": 1,
        "hand": "left"
      },
      {
        "midi": 61,
        "time": 32.411,
        "duration": 0.067,
        "velocity": 1,
        "hand": "right"
      },
      {
        "midi": 63,
        "time": 32.344,
        "duration": 0.067,
        "velocity": 1,
        "hand": "right"
      },
      {
        "midi": 48,
        "time": 32.478,
        "duration": 0.067,
        "velocity": 1,
        "hand": "left"
      },
      {
        "midi": 60,
        "time": 32.478,
        "duration": 0.067,
        "velocity": 1,
        "hand": "right"
      },
      {
        "midi": 45,
        "time": 32.679,
        "duration": 0.067,
        "velocity": 1,
        "hand": "left"
      },
      {
        "midi": 57,
        "time": 32.679,
        "duration": 0.067,
        "velocity": 1,
        "hand": "left"
      },
      {
        "midi": 58,
        "time": 32.612,
        "duration": 0.067,
        "velocity": 1,
        "hand": "left"
      },
      {
        "midi": 53,
        "time": 32.746,
        "duration": 0.067,
        "velocity": 1,
        "hand": "left"
      },
      {
        "midi": 65,
        "time": 32.746,
        "duration": 0.067,
        "velocity": 1,
        "hand": "right"
      },
      {
        "midi": 48,
        "time": 32.879,
        "duration": 0.067,
        "velocity": 1,
        "hand": "left"
      },
      {
        "midi": 60,
        "time": 32.879,
        "duration": 0.067,
        "velocity": 1,
        "hand": "right"
      },
      {
        "midi": 63,
        "time": 32.946,
        "duration": 0.067,
        "velocity": 1,
        "hand": "right"
      },
      {
        "midi": 49,
        "time": 33.013,
        "duration": 0.067,
        "velocity": 1,
        "hand": "left"
      },
      {
        "midi": 61,
        "time": 33.013,
        "duration": 0.067,
        "velocity": 1,
        "hand": "right"
      },
      {
        "midi": 45,
        "time": 33.214,
        "duration": 0.067,
        "velocity": 1,
        "hand": "left"
      },
      {
        "midi": 57,
        "time": 33.214,
        "duration": 0.067,
        "velocity": 1,
        "hand": "left"
      },
      {
        "midi": 58,
        "time": 33.147,
        "duration": 0.067,
        "velocity": 1,
        "hand": "left"
      },
      {
        "midi": 53,
        "time": 33.281,
        "duration": 0.067,
        "velocity": 1,
        "hand": "left"
      },
      {
        "midi": 65,
        "time": 33.281,
        "duration": 0.067,
        "velocity": 1,
        "hand": "right"
      },
      {
        "midi": 48,
        "time": 33.415,
        "duration": 0.067,
        "velocity": 1,
        "hand": "left"
      },
      {
        "midi": 60,
        "time": 33.415,
        "duration": 0.067,
        "velocity": 1,
        "hand": "right"
      },
      {
        "midi": 63,
        "time": 33.482,
        "duration": 0.067,
        "velocity": 1,
        "hand": "right"
      },
      {
        "midi": 49,
        "time": 33.549,
        "duration": 0.067,
        "velocity": 1,
        "hand": "left"
      },
      {
        "midi": 61,
        "time": 33.549,
        "duration": 0.067,
        "velocity": 1,
        "hand": "right"
      },
      {
        "midi": 45,
        "time": 33.75,
        "duration": 0.067,
        "velocity": 1,
        "hand": "left"
      },
      {
        "midi": 57,
        "time": 33.75,
        "duration": 0.067,
        "velocity": 1,
        "hand": "left"
      },
      {
        "midi": 58,
        "time": 33.683,
        "duration": 0.067,
        "velocity": 1,
        "hand": "left"
      },
      {
        "midi": 53,
        "time": 33.817,
        "duration": 0.067,
        "velocity": 1,
        "hand": "left"
      },
      {
        "midi": 65,
        "time": 33.817,
        "duration": 0.067,
        "velocity": 1,
        "hand": "right"
      },
      {
        "midi": 48,
        "time": 33.951,
        "duration": 0.067,
        "velocity": 1,
        "hand": "left"
      },
      {
        "midi": 60,
        "time": 33.951,
        "duration": 0.067,
        "velocity": 1,
        "hand": "right"
      },
      {
        "midi": 63,
        "time": 34.018,
        "duration": 0.067,
        "velocity": 1,
        "hand": "right"
      },
      {
        "midi": 49,
        "time": 34.085,
        "duration": 0.067,
        "velocity": 1,
        "hand": "left"
      },
      {
        "midi": 61,
        "time": 34.085,
        "duration": 0.067,
        "velocity": 1,
        "hand": "right"
      },
      {
        "midi": 46,
        "time": 34.219,
        "duration": 0.067,
        "velocity": 1,
        "hand": "left"
      },
      {
        "midi": 58,
        "time": 34.219,
        "duration": 0.067,
        "velocity": 1,
        "hand": "left"
      },
      {
        "midi": 68,
        "time": 34.286,
        "duration": 0.067,
        "velocity": 1,
        "hand": "right"
      },
      {
        "midi": 55,
        "time": 34.353,
        "duration": 0.067,
        "velocity": 1,
        "hand": "left"
      },
      {
        "midi": 67,
        "time": 34.353,
        "duration": 0.067,
        "velocity": 1,
        "hand": "right"
      },
      {
        "midi": 51,
        "time": 34.554,
        "duration": 0.067,
        "velocity": 1,
        "hand": "left"
      },
      {
        "midi": 63,
        "time": 34.554,
        "duration": 0.067,
        "velocity": 1,
        "hand": "right"
      },
      {
        "midi": 65,
        "time": 34.487,
        "duration": 0.067,
        "velocity": 1,
        "hand": "right"
      },
      {
        "midi": 50,
        "time": 34.621,
        "duration": 0.067,
        "velocity": 1,
        "hand": "left"
      },
      {
        "midi": 62,
        "time": 34.621,
        "duration": 0.067,
        "velocity": 1,
        "hand": "right"
      },
      {
        "midi": 47,
        "time": 34.821,
        "duration": 0.067,
        "velocity": 1,
        "hand": "left"
      },
      {
        "midi": 59,
        "time": 34.821,
        "duration": 0.067,
        "velocity": 1,
        "hand": "left"
      },
      {
        "midi": 60,
        "time": 34.754,
        "duration": 0.067,
        "velocity": 1,
        "hand": "right"
      },
      {
        "midi": 55,
        "time": 34.888,
        "duration": 0.067,
        "velocity": 1,
        "hand": "left"
      },
      {
        "midi": 67,
        "time": 34.888,
        "duration": 0.067,
        "velocity": 1,
        "hand": "right"
      },
      {
        "midi": 50,
        "time": 35.022,
        "duration": 0.067,
        "velocity": 1,
        "hand": "left"
      },
      {
        "midi": 62,
        "time": 35.022,
        "duration": 0.067,
        "velocity": 1,
        "hand": "right"
      },
      {
        "midi": 65,
        "time": 35.089,
        "duration": 0.067,
        "velocity": 1,
        "hand": "right"
      },
      {
        "midi": 51,
        "time": 35.156,
        "duration": 0.067,
        "velocity": 1,
        "hand": "left"
      },
      {
        "midi": 63,
        "time": 35.156,
        "duration": 0.067,
        "velocity": 1,
        "hand": "right"
      },
      {
        "midi": 47,
        "time": 35.357,
        "duration": 0.067,
        "velocity": 1,
        "hand": "left"
      },
      {
        "midi": 59,
        "time": 35.357,
        "duration": 0.067,
        "velocity": 1,
        "hand": "left"
      },
      {
        "midi": 60,
        "time": 35.29,
        "duration": 0.067,
        "velocity": 1,
        "hand": "right"
      },
      {
        "midi": 55,
        "time": 35.424,
        "duration": 0.067,
        "velocity": 1,
        "hand": "left"
      },
      {
        "midi": 67,
        "time": 35.424,
        "duration": 0.067,
        "velocity": 1,
        "hand": "right"
      },
      {
        "midi": 50,
        "time": 35.558,
        "duration": 0.067,
        "velocity": 1,
        "hand": "left"
      },
      {
        "midi": 62,
        "time": 35.558,
        "duration": 0.067,
        "velocity": 1,
        "hand": "right"
      },
      {
        "midi": 65,
        "time": 35.625,
        "duration": 0.067,
        "velocity": 1,
        "hand": "right"
      },
      {
        "midi": 51,
        "time": 35.692,
        "duration": 0.067,
        "velocity": 1,
        "hand": "left"
      },
      {
        "midi": 63,
        "time": 35.692,
        "duration": 0.067,
        "velocity": 1,
        "hand": "right"
      },
      {
        "midi": 47,
        "time": 35.893,
        "duration": 0.067,
        "velocity": 1,
        "hand": "left"
      },
      {
        "midi": 59,
        "time": 35.893,
        "duration": 0.067,
        "velocity": 1,
        "hand": "left"
      },
      {
        "midi": 60,
        "time": 35.826,
        "duration": 0.067,
        "velocity": 1,
        "hand": "right"
      },
      {
        "midi": 55,
        "time": 35.96,
        "duration": 0.067,
        "velocity": 1,
        "hand": "left"
      },
      {
        "midi": 67,
        "time": 35.96,
        "duration": 0.067,
        "velocity": 1,
        "hand": "right"
      },
      {
        "midi": 50,
        "time": 36.094,
        "duration": 0.067,
        "velocity": 1,
        "hand": "left"
      },
      {
        "midi": 62,
        "time": 36.094,
        "duration": 0.067,
        "velocity": 1,
        "hand": "right"
      },
      {
        "midi": 65,
        "time": 36.161,
        "duration": 0.067,
        "velocity": 1,
        "hand": "right"
      },
      {
        "midi": 51,
        "time": 36.228,
        "duration": 0.067,
        "velocity": 1,
        "hand": "left"
      },
      {
        "midi": 63,
        "time": 36.228,
        "duration": 0.067,
        "velocity": 1,
        "hand": "right"
      },
      {
        "midi": 48,
        "time": 36.362,
        "duration": 0.067,
        "velocity": 1,
        "hand": "left"
      },
      {
        "midi": 61,
        "time": 36.429,
        "duration": 0.067,
        "velocity": 1,
        "hand": "right"
      },
      {
        "midi": 73,
        "time": 36.429,
        "duration": 0.067,
        "velocity": 1,
        "hand": "right"
      },
      {
        "midi": 60,
        "time": 36.496,
        "duration": 0.067,
        "velocity": 1,
        "hand": "right"
      },
      {
        "midi": 72,
        "time": 36.496,
        "duration": 0.067,
        "velocity": 1,
        "hand": "right"
      },
      {
        "midi": 56,
        "time": 36.696,
        "duration": 0.067,
        "velocity": 1,
        "hand": "left"
      },
      {
        "midi": 68,
        "time": 36.696,
        "duration": 0.067,
        "velocity": 1,
        "hand": "right"
      },
      {
        "midi": 70,
        "time": 36.629,
        "duration": 0.067,
        "velocity": 1,
        "hand": "right"
      },
      {
        "midi": 55,
        "time": 36.763,
        "duration": 0.067,
        "velocity": 1,
        "hand": "left"
      },
      {
        "midi": 67,
        "time": 36.763,
        "duration": 0.067,
        "velocity": 1,
        "hand": "right"
      },
      {
        "midi": 53,
        "time": 36.897,
        "duration": 0.067,
        "velocity": 1,
        "hand": "left"
      },
      {
        "midi": 65,
        "time": 36.897,
        "duration": 0.067,
        "velocity": 1,
        "hand": "right"
      },
      {
        "midi": 70,
        "time": 36.964,
        "duration": 0.067,
        "velocity": 1,
        "hand": "right"
      },
      {
        "midi": 52,
        "time": 37.031,
        "duration": 0.067,
        "velocity": 1,
        "hand": "left"
      },
      {
        "midi": 64,
        "time": 37.031,
        "duration": 0.067,
        "velocity": 1,
        "hand": "right"
      },
      {
        "midi": 49,
        "time": 37.232,
        "duration": 0.067,
        "velocity": 1,
        "hand": "left"
      },
      {
        "midi": 61,
        "time": 37.232,
        "duration": 0.067,
        "velocity": 1,
        "hand": "right"
      },
      {
        "midi": 67,
        "time": 37.165,
        "duration": 0.067,
        "velocity": 1,
        "hand": "right"
      },
      {
        "midi": 52,
        "time": 37.299,
        "duration": 0.067,
        "velocity": 1,
        "hand": "left"
      },
      {
        "midi": 64,
        "time": 37.299,
        "duration": 0.067,
        "velocity": 1,
        "hand": "right"
      },
      {
        "midi": 48,
        "time": 37.433,
        "duration": 0.067,
        "velocity": 1,
        "hand": "left"
      },
      {
        "midi": 61,
        "time": 37.5,
        "duration": 0.067,
        "velocity": 1,
        "hand": "right"
      },
      {
        "midi": 73,
        "time": 37.5,
        "duration": 0.067,
        "velocity": 1,
        "hand": "right"
      },
      {
        "midi": 60,
        "time": 37.567,
        "duration": 0.067,
        "velocity": 1,
        "hand": "right"
      },
      {
        "midi": 72,
        "time": 37.567,
        "duration": 0.067,
        "velocity": 1,
        "hand": "right"
      },
      {
        "midi": 56,
        "time": 37.768,
        "duration": 0.067,
        "velocity": 1,
        "hand": "left"
      },
      {
        "midi": 68,
        "time": 37.768,
        "duration": 0.067,
        "velocity": 1,
        "hand": "right"
      },
      {
        "midi": 70,
        "time": 37.701,
        "duration": 0.067,
        "velocity": 1,
        "hand": "right"
      },
      {
        "midi": 55,
        "time": 37.835,
        "duration": 0.067,
        "velocity": 1,
        "hand": "left"
      },
      {
        "midi": 67,
        "time": 37.835,
        "duration": 0.067,
        "velocity": 1,
        "hand": "right"
      },
      {
        "midi": 53,
        "time": 37.969,
        "duration": 0.067,
        "velocity": 1,
        "hand": "left"
      },
      {
        "midi": 65,
        "time": 37.969,
        "duration": 0.067,
        "velocity": 1,
        "hand": "right"
      },
      {
        "midi": 70,
        "time": 38.036,
        "duration": 0.067,
        "velocity": 1,
        "hand": "right"
      },
      {
        "midi": 52,
        "time": 38.103,
        "duration": 0.067,
        "velocity": 1,
        "hand": "left"
      },
      {
        "midi": 64,
        "time": 38.103,
        "duration": 0.067,
        "velocity": 1,
        "hand": "right"
      },
      {
        "midi": 49,
        "time": 38.304,
        "duration": 0.067,
        "velocity": 1,
        "hand": "left"
      },
      {
        "midi": 61,
        "time": 38.304,
        "duration": 0.067,
        "velocity": 1,
        "hand": "right"
      },
      {
        "midi": 67,
        "time": 38.237,
        "duration": 0.067,
        "velocity": 1,
        "hand": "right"
      },
      {
        "midi": 52,
        "time": 38.371,
        "duration": 0.067,
        "velocity": 1,
        "hand": "left"
      },
      {
        "midi": 64,
        "time": 38.371,
        "duration": 0.067,
        "velocity": 1,
        "hand": "right"
      },
      {
        "midi": 48,
        "time": 38.504,
        "duration": 0.067,
        "velocity": 1,
        "hand": "left"
      },
      {
        "midi": 60,
        "time": 38.504,
        "duration": 0.067,
        "velocity": 1,
        "hand": "right"
      },
      {
        "midi": 70,
        "time": 38.571,
        "duration": 0.067,
        "velocity": 1,
        "hand": "right"
      },
      {
        "midi": 52,
        "time": 38.638,
        "duration": 0.067,
        "velocity": 1,
        "hand": "left"
      },
      {
        "midi": 64,
        "time": 38.638,
        "duration": 0.067,
        "velocity": 1,
        "hand": "right"
      },
      {
        "midi": 49,
        "time": 38.839,
        "duration": 0.067,
        "velocity": 1,
        "hand": "left"
      },
      {
        "midi": 61,
        "time": 38.839,
        "duration": 0.067,
        "velocity": 1,
        "hand": "right"
      },
      {
        "midi": 67,
        "time": 38.772,
        "duration": 0.067,
        "velocity": 1,
        "hand": "right"
      },
      {
        "midi": 52,
        "time": 38.906,
        "duration": 0.067,
        "velocity": 1,
        "hand": "left"
      },
      {
        "midi": 64,
        "time": 38.906,
        "duration": 0.067,
        "velocity": 1,
        "hand": "right"
      },
      {
        "midi": 48,
        "time": 39.04,
        "duration": 0.067,
        "velocity": 1,
        "hand": "left"
      },
      {
        "midi": 60,
        "time": 39.04,
        "duration": 0.067,
        "velocity": 1,
        "hand": "right"
      },
      {
        "midi": 67,
        "time": 39.107,
        "duration": 0.067,
        "velocity": 1,
        "hand": "right"
      },
      {
        "midi": 49,
        "time": 39.174,
        "duration": 0.067,
        "velocity": 1,
        "hand": "left"
      },
      {
        "midi": 61,
        "time": 39.174,
        "duration": 0.067,
        "velocity": 1,
        "hand": "right"
      },
      {
        "midi": 48,
        "time": 39.375,
        "duration": 0.067,
        "velocity": 1,
        "hand": "left"
      },
      {
        "midi": 60,
        "time": 39.375,
        "duration": 0.067,
        "velocity": 1,
        "hand": "right"
      },
      {
        "midi": 64,
        "time": 39.308,
        "duration": 0.067,
        "velocity": 1,
        "hand": "right"
      },
      {
        "midi": 52,
        "time": 39.442,
        "duration": 0.067,
        "velocity": 1,
        "hand": "left"
      },
      {
        "midi": 64,
        "time": 39.442,
        "duration": 0.067,
        "velocity": 1,
        "hand": "right"
      },
      {
        "midi": 46,
        "time": 39.576,
        "duration": 0.067,
        "velocity": 1,
        "hand": "left"
      },
      {
        "midi": 58,
        "time": 39.576,
        "duration": 0.067,
        "velocity": 1,
        "hand": "left"
      },
      {
        "midi": 64,
        "time": 39.643,
        "duration": 0.067,
        "velocity": 1,
        "hand": "right"
      },
      {
        "midi": 46,
        "time": 39.71,
        "duration": 0.067,
        "velocity": 1,
        "hand": "left"
      },
      {
        "midi": 58,
        "time": 39.71,
        "duration": 0.067,
        "velocity": 1,
        "hand": "left"
      },
      {
        "midi": 45,
        "time": 39.911,
        "duration": 0.067,
        "velocity": 1,
        "hand": "left"
      },
      {
        "midi": 57,
        "time": 39.911,
        "duration": 0.067,
        "velocity": 1,
        "hand": "left"
      },
      {
        "midi": 61,
        "time": 39.844,
        "duration": 0.067,
        "velocity": 1,
        "hand": "right"
      },
      {
        "midi": 46,
        "time": 39.978,
        "duration": 0.067,
        "velocity": 1,
        "hand": "left"
      },
      {
        "midi": 58,
        "time": 39.978,
        "duration": 0.067,
        "velocity": 1,
        "hand": "left"
      },
      {
        "midi": 44,
        "time": 40.112,
        "duration": 0.067,
        "velocity": 1,
        "hand": "left"
      },
      {
        "midi": 56,
        "time": 40.112,
        "duration": 0.067,
        "velocity": 1,
        "hand": "left"
      },
      {
        "midi": 61,
        "time": 40.179,
        "duration": 0.067,
        "velocity": 1,
        "hand": "right"
      },
      {
        "midi": 44,
        "time": 40.246,
        "duration": 0.067,
        "velocity": 1,
        "hand": "left"
      },
      {
        "midi": 56,
        "time": 40.246,
        "duration": 0.067,
        "velocity": 1,
        "hand": "left"
      },
      {
        "midi": 43,
        "time": 40.446,
        "duration": 0.067,
        "velocity": 1,
        "hand": "left"
      },
      {
        "midi": 55,
        "time": 40.446,
        "duration": 0.067,
        "velocity": 1,
        "hand": "left"
      },
      {
        "midi": 58,
        "time": 40.379,
        "duration": 0.067,
        "velocity": 1,
        "hand": "left"
      },
      {
        "midi": 46,
        "time": 40.513,
        "duration": 0.067,
        "velocity": 1,
        "hand": "left"
      },
      {
        "midi": 58,
        "time": 40.513,
        "duration": 0.067,
        "velocity": 1,
        "hand": "left"
      },
      {
        "midi": 41,
        "time": 40.714,
        "duration": 0.067,
        "velocity": 1,
        "hand": "left"
      },
      {
        "midi": 53,
        "time": 40.714,
        "duration": 0.067,
        "velocity": 1,
        "hand": "left"
      },
      {
        "midi": 54,
        "time": 40.647,
        "duration": 0.067,
        "velocity": 1,
        "hand": "left"
      },
      {
        "midi": 43,
        "time": 40.781,
        "duration": 0.067,
        "velocity": 1,
        "hand": "left"
      },
      {
        "midi": 55,
        "time": 40.781,
        "duration": 0.067,
        "velocity": 1,
        "hand": "left"
      },
      {
        "midi": 46,
        "time": 40.915,
        "duration": 0.067,
        "velocity": 1,
        "hand": "left"
      },
      {
        "midi": 58,
        "time": 40.915,
        "duration": 0.067,
        "velocity": 1,
        "hand": "left"
      },
      {
        "midi": 61,
        "time": 40.982,
        "duration": 0.067,
        "velocity": 1,
        "hand": "right"
      },
      {
        "midi": 40,
        "time": 41.049,
        "duration": 0.067,
        "velocity": 1,
        "hand": "left"
      },
      {
        "midi": 52,
        "time": 41.049,
        "duration": 0.067,
        "velocity": 1,
        "hand": "left"
      },
      {
        "midi": 41,
        "time": 41.25,
        "duration": 0.067,
        "velocity": 1,
        "hand": "left"
      },
      {
        "midi": 53,
        "time": 41.25,
        "duration": 0.067,
        "velocity": 1,
        "hand": "left"
      },
      {
        "midi": 55,
        "time": 41.183,
        "duration": 0.067,
        "velocity": 1,
        "hand": "left"
      },
      {
        "midi": 43,
        "time": 41.317,
        "duration": 0.067,
        "velocity": 1,
        "hand": "left"
      },
      {
        "midi": 55,
        "time": 41.317,
        "duration": 0.067,
        "velocity": 1,
        "hand": "left"
      },
      {
        "midi": 46,
        "time": 41.451,
        "duration": 0.067,
        "velocity": 1,
        "hand": "left"
      },
      {
        "midi": 58,
        "time": 41.451,
        "duration": 0.067,
        "velocity": 1,
        "hand": "left"
      },
      {
        "midi": 61,
        "time": 41.518,
        "duration": 0.067,
        "velocity": 1,
        "hand": "right"
      },
      {
        "midi": 40,
        "time": 41.585,
        "duration": 0.067,
        "velocity": 1,
        "hand": "left"
      },
      {
        "midi": 52,
        "time": 41.585,
        "duration": 0.067,
        "velocity": 1,
        "hand": "left"
      },
      {
        "midi": 43,
        "time": 41.719,
        "duration": 0.067,
        "velocity": 1,
        "hand": "left"
      },
      {
        "midi": 55,
        "time": 41.786,
        "duration": 0.067,
        "velocity": 1,
        "hand": "left"
      },
      {
        "midi": 45,
        "time": 41.853,
        "duration": 0.067,
        "velocity": 1,
        "hand": "left"
      },
      {
        "midi": 57,
        "time": 41.853,
        "duration": 0.067,
        "velocity": 1,
        "hand": "left"
      },
      {
        "midi": 48,
        "time": 41.987,
        "duration": 0.067,
        "velocity": 1,
        "hand": "left"
      },
      {
        "midi": 60,
        "time": 41.987,
        "duration": 0.067,
        "velocity": 1,
        "hand": "right"
      },
      {
        "midi": 63,
        "time": 42.054,
        "duration": 0.067,
        "velocity": 1,
        "hand": "right"
      },
      {
        "midi": 42,
        "time": 42.121,
        "duration": 0.067,
        "velocity": 1,
        "hand": "left"
      },
      {
        "midi": 54,
        "time": 42.121,
        "duration": 0.067,
        "velocity": 1,
        "hand": "left"
      },
      {
        "midi": 43,
        "time": 42.321,
        "duration": 0.067,
        "velocity": 1,
        "hand": "left"
      },
      {
        "midi": 55,
        "time": 42.321,
        "duration": 0.067,
        "velocity": 1,
        "hand": "left"
      },
      {
        "midi": 57,
        "time": 42.254,
        "duration": 0.067,
        "velocity": 1,
        "hand": "left"
      },
      {
        "midi": 45,
        "time": 42.388,
        "duration": 0.067,
        "velocity": 1,
        "hand": "left"
      },
      {
        "midi": 57,
        "time": 42.388,
        "duration": 0.067,
        "velocity": 1,
        "hand": "left"
      },
      {
        "midi": 48,
        "time": 42.522,
        "duration": 0.067,
        "velocity": 1,
        "hand": "left"
      },
      {
        "midi": 60,
        "time": 42.522,
        "duration": 0.067,
        "velocity": 1,
        "hand": "right"
      },
      {
        "midi": 63,
        "time": 42.589,
        "duration": 0.067,
        "velocity": 1,
        "hand": "right"
      },
      {
        "midi": 42,
        "time": 42.656,
        "duration": 0.067,
        "velocity": 1,
        "hand": "left"
      },
      {
        "midi": 54,
        "time": 42.656,
        "duration": 0.067,
        "velocity": 1,
        "hand": "left"
      },
      {
        "midi": 45,
        "time": 42.79,
        "duration": 0.067,
        "velocity": 1,
        "hand": "left"
      },
      {
        "midi": 57,
        "time": 42.79,
        "duration": 0.067,
        "velocity": 1,
        "hand": "left"
      },
      {
        "midi": 58,
        "time": 42.857,
        "duration": 0.067,
        "velocity": 1,
        "hand": "left"
      },
      {
        "midi": 48,
        "time": 42.924,
        "duration": 0.067,
        "velocity": 1,
        "hand": "left"
      },
      {
        "midi": 60,
        "time": 42.924,
        "duration": 0.067,
        "velocity": 1,
        "hand": "right"
      },
      {
        "midi": 51,
        "time": 43.058,
        "duration": 0.067,
        "velocity": 1,
        "hand": "left"
      },
      {
        "midi": 63,
        "time": 43.058,
        "duration": 0.067,
        "velocity": 1,
        "hand": "right"
      },
      {
        "midi": 66,
        "time": 43.125,
        "duration": 0.067,
        "velocity": 1,
        "hand": "right"
      },
      {
        "midi": 45,
        "time": 43.192,
        "duration": 0.067,
        "velocity": 1,
        "hand": "left"
      },
      {
        "midi": 57,
        "time": 43.192,
        "duration": 0.067,
        "velocity": 1,
        "hand": "left"
      },
      {
        "midi": 48,
        "time": 43.326,
        "duration": 0.067,
        "velocity": 1,
        "hand": "left"
      },
      {
        "midi": 60,
        "time": 43.326,
        "duration": 0.067,
        "velocity": 1,
        "hand": "right"
      },
      {
        "midi": 61,
        "time": 43.393,
        "duration": 0.067,
        "velocity": 1,
        "hand": "right"
      },
      {
        "midi": 51,
        "time": 43.46,
        "duration": 0.067,
        "velocity": 1,
        "hand": "left"
      },
      {
        "midi": 63,
        "time": 43.46,
        "duration": 0.067,
        "velocity": 1,
        "hand": "right"
      },
      {
        "midi": 54,
        "time": 43.594,
        "duration": 0.067,
        "velocity": 1,
        "hand": "left"
      },
      {
        "midi": 66,
        "time": 43.594,
        "duration": 0.067,
        "velocity": 1,
        "hand": "right"
      },
      {
        "midi": 69,
        "time": 43.661,
        "duration": 0.067,
        "velocity": 1,
        "hand": "right"
      },
      {
        "midi": 48,
        "time": 43.728,
        "duration": 0.067,
        "velocity": 1,
        "hand": "left"
      },
      {
        "midi": 60,
        "time": 43.728,
        "duration": 0.067,
        "velocity": 1,
        "hand": "right"
      },
      {
        "midi": 49,
        "time": 43.929,
        "duration": 0.067,
        "velocity": 1,
        "hand": "left"
      },
      {
        "midi": 61,
        "time": 43.929,
        "duration": 0.067,
        "velocity": 1,
        "hand": "right"
      },
      {
        "midi": 63,
        "time": 43.862,
        "duration": 0.067,
        "velocity": 1,
        "hand": "right"
      },
      {
        "midi": 51,
        "time": 43.996,
        "duration": 0.067,
        "velocity": 1,
        "hand": "left"
      },
      {
        "midi": 63,
        "time": 43.996,
        "duration": 0.067,
        "velocity": 1,
        "hand": "right"
      },
      {
        "midi": 54,
        "time": 44.129,
        "duration": 0.067,
        "velocity": 1,
        "hand": "left"
      },
      {
        "midi": 66,
        "time": 44.129,
        "duration": 0.067,
        "velocity": 1,
        "hand": "right"
      },
      {
        "midi": 69,
        "time": 44.196,
        "duration": 0.067,
        "velocity": 1,
        "hand": "right"
      },
      {
        "midi": 48,
        "time": 44.263,
        "duration": 0.067,
        "velocity": 1,
        "hand": "left"
      },
      {
        "midi": 60,
        "time": 44.263,
        "duration": 0.067,
        "velocity": 1,
        "hand": "right"
      },
      {
        "midi": 51,
        "time": 44.397,
        "duration": 0.067,
        "velocity": 1,
        "hand": "left"
      },
      {
        "midi": 63,
        "time": 44.397,
        "duration": 0.067,
        "velocity": 1,
        "hand": "right"
      },
      {
        "midi": 66,
        "time": 44.464,
        "duration": 0.067,
        "velocity": 1,
        "hand": "right"
      },
      {
        "midi": 58,
        "time": 44.531,
        "duration": 0.067,
        "velocity": 1,
        "hand": "left"
      },
      {
        "midi": 70,
        "time": 44.531,
        "duration": 0.067,
        "velocity": 1,
        "hand": "right"
      },
      {
        "midi": 60,
        "time": 44.665,
        "duration": 0.067,
        "velocity": 1,
        "hand": "right"
      },
      {
        "midi": 72,
        "time": 44.665,
        "duration": 0.067,
        "velocity": 1,
        "hand": "right"
      },
      {
        "midi": 75,
        "time": 44.732,
        "duration": 0.067,
        "velocity": 1,
        "hand": "right"
      },
      {
        "midi": 53,
        "time": 44.799,
        "duration": 0.067,
        "velocity": 1,
        "hand": "left"
      },
      {
        "midi": 65,
        "time": 44.799,
        "duration": 0.067,
        "velocity": 1,
        "hand": "right"
      },
      {
        "midi": 57,
        "time": 44.933,
        "duration": 0.067,
        "velocity": 1,
        "hand": "left"
      },
      {
        "midi": 69,
        "time": 44.933,
        "duration": 0.067,
        "velocity": 1,
        "hand": "right"
      },
      {
        "midi": 70,
        "time": 45,
        "duration": 0.067,
        "velocity": 1,
        "hand": "right"
      },
      {
        "midi": 61,
        "time": 45.067,
        "duration": 0.067,
        "velocity": 1,
        "hand": "right"
      },
      {
        "midi": 73,
        "time": 45.067,
        "duration": 0.067,
        "velocity": 1,
        "hand": "right"
      },
      {
        "midi": 65,
        "time": 45.268,
        "duration": 0.067,
        "velocity": 1,
        "hand": "right"
      },
      {
        "midi": 77,
        "time": 45.268,
        "duration": 0.067,
        "velocity": 1,
        "hand": "right"
      },
      {
        "midi": 78,
        "time": 45.201,
        "duration": 0.067,
        "velocity": 1,
        "hand": "right"
      },
      {
        "midi": 60,
        "time": 45.335,
        "duration": 0.067,
        "velocity": 1,
        "hand": "right"
      },
      {
        "midi": 72,
        "time": 45.335,
        "duration": 0.067,
        "velocity": 1,
        "hand": "right"
      },
      {
        "midi": 61,
        "time": 45.469,
        "duration": 0.067,
        "velocity": 1,
        "hand": "right"
      },
      {
        "midi": 73,
        "time": 45.469,
        "duration": 0.067,
        "velocity": 1,
        "hand": "right"
      },
      {
        "midi": 76,
        "time": 45.536,
        "duration": 0.067,
        "velocity": 1,
        "hand": "right"
      },
      {
        "midi": 60,
        "time": 45.603,
        "duration": 0.067,
        "velocity": 1,
        "hand": "right"
      },
      {
        "midi": 72,
        "time": 45.603,
        "duration": 0.067,
        "velocity": 1,
        "hand": "right"
      },
      {
        "midi": 57,
        "time": 45.804,
        "duration": 0.067,
        "velocity": 1,
        "hand": "left"
      },
      {
        "midi": 69,
        "time": 45.804,
        "duration": 0.067,
        "velocity": 1,
        "hand": "right"
      },
      {
        "midi": 73,
        "time": 45.737,
        "duration": 0.067,
        "velocity": 1,
        "hand": "right"
      },
      {
        "midi": 58,
        "time": 45.871,
        "duration": 0.067,
        "velocity": 1,
        "hand": "left"
      },
      {
        "midi": 70,
        "time": 45.871,
        "duration": 0.067,
        "velocity": 1,
        "hand": "right"
      },
      {
        "midi": 52,
        "time": 46.071,
        "duration": 0.067,
        "velocity": 1,
        "hand": "left"
      },
      {
        "midi": 64,
        "time": 46.071,
        "duration": 0.067,
        "velocity": 1,
        "hand": "right"
      },
      {
        "midi": 66,
        "time": 46.004,
        "duration": 0.067,
        "velocity": 1,
        "hand": "right"
      },
      {
        "midi": 53,
        "time": 46.138,
        "duration": 0.067,
        "velocity": 1,
        "hand": "left"
      },
      {
        "midi": 65,
        "time": 46.138,
        "duration": 0.067,
        "velocity": 1,
        "hand": "right"
      },
      {
        "midi": 56,
        "time": 46.339,
        "duration": 0.067,
        "velocity": 1,
        "hand": "left"
      },
      {
        "midi": 68,
        "time": 46.339,
        "duration": 0.067,
        "velocity": 1,
        "hand": "right"
      },
      {
        "midi": 70,
        "time": 46.272,
        "duration": 0.067,
        "velocity": 1,
        "hand": "right"
      },
      {
        "midi": 57,
        "time": 46.406,
        "duration": 0.067,
        "velocity": 1,
        "hand": "left"
      },
      {
        "midi": 69,
        "time": 46.406,
        "duration": 0.067,
        "velocity": 1,
        "hand": "right"
      },
      {
        "midi": 57,
        "time": 46.607,
        "duration": 0.067,
        "velocity": 1,
        "hand": "left"
      },
      {
        "midi": 69,
        "time": 46.607,
        "duration": 0.067,
        "velocity": 1,
        "hand": "right"
      },
      {
        "midi": 73,
        "time": 46.54,
        "duration": 0.067,
        "velocity": 1,
        "hand": "right"
      },
      {
        "midi": 58,
        "time": 46.674,
        "duration": 0.067,
        "velocity": 1,
        "hand": "left"
      },
      {
        "midi": 70,
        "time": 46.674,
        "duration": 0.067,
        "velocity": 1,
        "hand": "right"
      },
      {
        "midi": 59,
        "time": 46.875,
        "duration": 0.067,
        "velocity": 1,
        "hand": "left"
      },
      {
        "midi": 71,
        "time": 46.875,
        "duration": 0.067,
        "velocity": 1,
        "hand": "right"
      },
      {
        "midi": 73,
        "time": 46.808,
        "duration": 0.067,
        "velocity": 1,
        "hand": "right"
      },
      {
        "midi": 60,
        "time": 46.942,
        "duration": 0.067,
        "velocity": 1,
        "hand": "right"
      },
      {
        "midi": 72,
        "time": 46.942,
        "duration": 0.067,
        "velocity": 1,
        "hand": "right"
      },
      {
        "midi": 56,
        "time": 47.143,
        "duration": 0.067,
        "velocity": 1,
        "hand": "left"
      },
      {
        "midi": 68,
        "time": 47.143,
        "duration": 0.067,
        "velocity": 1,
        "hand": "right"
      },
      {
        "midi": 77,
        "time": 47.076,
        "duration": 0.067,
        "velocity": 1,
        "hand": "right"
      },
      {
        "midi": 59,
        "time": 47.21,
        "duration": 0.067,
        "velocity": 1,
        "hand": "left"
      },
      {
        "midi": 71,
        "time": 47.21,
        "duration": 0.067,
        "velocity": 1,
        "hand": "right"
      },
      {
        "midi": 63,
        "time": 47.411,
        "duration": 0.067,
        "velocity": 1,
        "hand": "right"
      },
      {
        "midi": 75,
        "time": 47.411,
        "duration": 0.067,
        "velocity": 1,
        "hand": "right"
      },
      {
        "midi": 76,
        "time": 47.344,
        "duration": 0.067,
        "velocity": 1,
        "hand": "right"
      },
      {
        "midi": 58,
        "time": 47.478,
        "duration": 0.067,
        "velocity": 1,
        "hand": "left"
      },
      {
        "midi": 70,
        "time": 47.478,
        "duration": 0.067,
        "velocity": 1,
        "hand": "right"
      },
      {
        "midi": 59,
        "time": 47.612,
        "duration": 0.067,
        "velocity": 1,
        "hand": "left"
      },
      {
        "midi": 71,
        "time": 47.612,
        "duration": 0.067,
        "velocity": 1,
        "hand": "right"
      },
      {
        "midi": 74,
        "time": 47.679,
        "duration": 0.067,
        "velocity": 1,
        "hand": "right"
      },
      {
        "midi": 58,
        "time": 47.746,
        "duration": 0.067,
        "velocity": 1,
        "hand": "left"
      },
      {
        "midi": 70,
        "time": 47.746,
        "duration": 0.067,
        "velocity": 1,
        "hand": "right"
      },
      {
        "midi": 55,
        "time": 47.946,
        "duration": 0.067,
        "velocity": 1,
        "hand": "left"
      },
      {
        "midi": 67,
        "time": 47.946,
        "duration": 0.067,
        "velocity": 1,
        "hand": "right"
      },
      {
        "midi": 71,
        "time": 47.879,
        "duration": 0.067,
        "velocity": 1,
        "hand": "right"
      },
      {
        "midi": 56,
        "time": 48.013,
        "duration": 0.067,
        "velocity": 1,
        "hand": "left"
      },
      {
        "midi": 68,
        "time": 48.013,
        "duration": 0.067,
        "velocity": 1,
        "hand": "right"
      },
      {
        "midi": 50,
        "time": 48.214,
        "duration": 0.067,
        "velocity": 1,
        "hand": "left"
      },
      {
        "midi": 62,
        "time": 48.214,
        "duration": 0.067,
        "velocity": 1,
        "hand": "right"
      },
      {
        "midi": 64,
        "time": 48.147,
        "duration": 0.067,
        "velocity": 1,
        "hand": "right"
      },
      {
        "midi": 51,
        "time": 48.281,
        "duration": 0.067,
        "velocity": 1,
        "hand": "left"
      },
      {
        "midi": 63,
        "time": 48.281,
        "duration": 0.067,
        "velocity": 1,
        "hand": "right"
      },
      {
        "midi": 52,
        "time": 48.482,
        "duration": 0.067,
        "velocity": 1,
        "hand": "left"
      },
      {
        "midi": 64,
        "time": 48.482,
        "duration": 0.067,
        "velocity": 1,
        "hand": "right"
      },
      {
        "midi": 68,
        "time": 48.415,
        "duration": 0.067,
        "velocity": 1,
        "hand": "right"
      },
      {
        "midi": 53,
        "time": 48.549,
        "duration": 0.067,
        "velocity": 1,
        "hand": "left"
      },
      {
        "midi": 65,
        "time": 48.549,
        "duration": 0.067,
        "velocity": 1,
        "hand": "right"
      },
      {
        "midi": 53,
        "time": 48.75,
        "duration": 0.067,
        "velocity": 1,
        "hand": "left"
      },
      {
        "midi": 65,
        "time": 48.75,
        "duration": 0.067,
        "velocity": 1,
        "hand": "right"
      },
      {
        "midi": 71,
        "time": 48.683,
        "duration": 0.067,
        "velocity": 1,
        "hand": "right"
      },
      {
        "midi": 54,
        "time": 48.817,
        "duration": 0.067,
        "velocity": 1,
        "hand": "left"
      },
      {
        "midi": 66,
        "time": 48.817,
        "duration": 0.067,
        "velocity": 1,
        "hand": "right"
      },
      {
        "midi": 57,
        "time": 49.018,
        "duration": 0.067,
        "velocity": 1,
        "hand": "left"
      },
      {
        "midi": 69,
        "time": 49.018,
        "duration": 0.067,
        "velocity": 1,
        "hand": "right"
      },
      {
        "midi": 71,
        "time": 48.951,
        "duration": 0.067,
        "velocity": 1,
        "hand": "right"
      },
      {
        "midi": 58,
        "time": 49.085,
        "duration": 0.067,
        "velocity": 1,
        "hand": "left"
      },
      {
        "midi": 70,
        "time": 49.085,
        "duration": 0.067,
        "velocity": 1,
        "hand": "right"
      },
      {
        "midi": 61,
        "time": 49.286,
        "duration": 0.067,
        "velocity": 1,
        "hand": "right"
      },
      {
        "midi": 73,
        "time": 49.286,
        "duration": 0.067,
        "velocity": 1,
        "hand": "right"
      },
      {
        "midi": 75,
        "time": 49.219,
        "duration": 0.067,
        "velocity": 1,
        "hand": "right"
      },
      {
        "midi": 53,
        "time": 49.353,
        "duration": 0.067,
        "velocity": 1,
        "hand": "left"
      },
      {
        "midi": 65,
        "time": 49.353,
        "duration": 0.067,
        "velocity": 1,
        "hand": "right"
      },
      {
        "midi": 49,
        "time": 49.554,
        "duration": 0.067,
        "velocity": 1,
        "hand": "left"
      },
      {
        "midi": 61,
        "time": 49.554,
        "duration": 0.067,
        "velocity": 1,
        "hand": "right"
      },
      {
        "midi": 70,
        "time": 49.487,
        "duration": 0.067,
        "velocity": 1,
        "hand": "right"
      },
      {
        "midi": 52,
        "time": 49.621,
        "duration": 0.067,
        "velocity": 1,
        "hand": "left"
      },
      {
        "midi": 64,
        "time": 49.621,
        "duration": 0.067,
        "velocity": 1,
        "hand": "right"
      },
      {
        "midi": 57,
        "time": 49.754,
        "duration": 0.067,
        "velocity": 1,
        "hand": "left"
      },
      {
        "midi": 69,
        "time": 49.754,
        "duration": 0.067,
        "velocity": 1,
        "hand": "right"
      },
      {
        "midi": 72,
        "time": 49.821,
        "duration": 0.067,
        "velocity": 1,
        "hand": "right"
      },
      {
        "midi": 51,
        "time": 49.888,
        "duration": 0.067,
        "velocity": 1,
        "hand": "left"
      },
      {
        "midi": 63,
        "time": 49.888,
        "duration": 0.067,
        "velocity": 1,
        "hand": "right"
      },
      {
        "midi": 47,
        "time": 50.089,
        "duration": 0.067,
        "velocity": 1,
        "hand": "left"
      },
      {
        "midi": 59,
        "time": 50.089,
        "duration": 0.067,
        "velocity": 1,
        "hand": "left"
      },
      {
        "midi": 68,
        "time": 50.022,
        "duration": 0.067,
        "velocity": 1,
        "hand": "right"
      },
      {
        "midi": 50,
        "time": 50.156,
        "duration": 0.067,
        "velocity": 1,
        "hand": "left"
      },
      {
        "midi": 62,
        "time": 50.156,
        "duration": 0.067,
        "velocity": 1,
        "hand": "right"
      },
      {
        "midi": 55,
        "time": 50.29,
        "duration": 0.067,
        "velocity": 1,
        "hand": "left"
      },
      {
        "midi": 67,
        "time": 50.29,
        "duration": 0.067,
        "velocity": 1,
        "hand": "right"
      },
      {
        "midi": 71,
        "time": 50.357,
        "duration": 0.067,
        "velocity": 1,
        "hand": "right"
      },
      {
        "midi": 50,
        "time": 50.424,
        "duration": 0.067,
        "velocity": 1,
        "hand": "left"
      },
      {
        "midi": 62,
        "time": 50.424,
        "duration": 0.067,
        "velocity": 1,
        "hand": "right"
      },
      {
        "midi": 46,
        "time": 50.625,
        "duration": 0.067,
        "velocity": 1,
        "hand": "left"
      },
      {
        "midi": 58,
        "time": 50.625,
        "duration": 0.067,
        "velocity": 1,
        "hand": "left"
      },
      {
        "midi": 66,
        "time": 50.558,
        "duration": 0.067,
        "velocity": 1,
        "hand": "right"
      },
      {
        "midi": 49,
        "time": 50.692,
        "duration": 0.067,
        "velocity": 1,
        "hand": "left"
      },
      {
        "midi": 61,
        "time": 50.692,
        "duration": 0.067,
        "velocity": 1,
        "hand": "right"
      },
      {
        "midi": 54,
        "time": 50.826,
        "duration": 0.067,
        "velocity": 1,
        "hand": "left"
      },
      {
        "midi": 66,
        "time": 50.826,
        "duration": 0.067,
        "velocity": 1,
        "hand": "right"
      },
      {
        "midi": 70,
        "time": 50.893,
        "duration": 0.067,
        "velocity": 1,
        "hand": "right"
      },
      {
        "midi": 54,
        "time": 50.96,
        "duration": 0.067,
        "velocity": 1,
        "hand": "left"
      },
      {
        "midi": 66,
        "time": 50.96,
        "duration": 0.067,
        "velocity": 1,
        "hand": "right"
      },
      {
        "midi": 59,
        "time": 51.094,
        "duration": 0.067,
        "velocity": 1,
        "hand": "left"
      },
      {
        "midi": 71,
        "time": 51.094,
        "duration": 0.067,
        "velocity": 1,
        "hand": "right"
      },
      {
        "midi": 72,
        "time": 51.161,
        "duration": 0.067,
        "velocity": 1,
        "hand": "right"
      },
      {
        "midi": 61,
        "time": 51.228,
        "duration": 0.067,
        "velocity": 1,
        "hand": "right"
      },
      {
        "midi": 73,
        "time": 51.228,
        "duration": 0.067,
        "velocity": 1,
        "hand": "right"
      },
      {
        "midi": 61,
        "time": 51.429,
        "duration": 0.067,
        "velocity": 1,
        "hand": "right"
      },
      {
        "midi": 73,
        "time": 51.429,
        "duration": 0.067,
        "velocity": 1,
        "hand": "right"
      },
      {
        "midi": 75,
        "time": 51.362,
        "duration": 0.067,
        "velocity": 1,
        "hand": "right"
      },
      {
        "midi": 60,
        "time": 51.496,
        "duration": 0.067,
        "velocity": 1,
        "hand": "right"
      },
      {
        "midi": 72,
        "time": 51.496,
        "duration": 0.067,
        "velocity": 1,
        "hand": "right"
      },
      {
        "midi": 58,
        "time": 51.696,
        "duration": 0.067,
        "velocity": 1,
        "hand": "left"
      },
      {
        "midi": 70,
        "time": 51.696,
        "duration": 0.067,
        "velocity": 1,
        "hand": "right"
      },
      {
        "midi": 71,
        "time": 51.629,
        "duration": 0.067,
        "velocity": 1,
        "hand": "right"
      },
      {
        "midi": 57,
        "time": 51.763,
        "duration": 0.067,
        "velocity": 1,
        "hand": "left"
      },
      {
        "midi": 69,
        "time": 51.763,
        "duration": 0.067,
        "velocity": 1,
        "hand": "right"
      },
      {
        "midi": 63,
        "time": 51.964,
        "duration": 0.067,
        "velocity": 1,
        "hand": "right"
      },
      {
        "midi": 75,
        "time": 51.964,
        "duration": 0.067,
        "velocity": 1,
        "hand": "right"
      },
      {
        "midi": 77,
        "time": 51.897,
        "duration": 0.067,
        "velocity": 1,
        "hand": "right"
      },
      {
        "midi": 62,
        "time": 52.031,
        "duration": 0.067,
        "velocity": 1,
        "hand": "right"
      },
      {
        "midi": 74,
        "time": 52.031,
        "duration": 0.067,
        "velocity": 1,
        "hand": "right"
      },
      {
        "midi": 60,
        "time": 52.232,
        "duration": 0.067,
        "velocity": 1,
        "hand": "right"
      },
      {
        "midi": 72,
        "time": 52.232,
        "duration": 0.067,
        "velocity": 1,
        "hand": "right"
      },
      {
        "midi": 73,
        "time": 52.165,
        "duration": 0.067,
        "velocity": 1,
        "hand": "right"
      },
      {
        "midi": 58,
        "time": 52.299,
        "duration": 0.067,
        "velocity": 1,
        "hand": "left"
      },
      {
        "midi": 70,
        "time": 52.299,
        "duration": 0.067,
        "velocity": 1,
        "hand": "right"
      },
      {
        "midi": 65,
        "time": 52.5,
        "duration": 0.067,
        "velocity": 1,
        "hand": "right"
      },
      {
        "midi": 77,
        "time": 52.5,
        "duration": 0.067,
        "velocity": 1,
        "hand": "right"
      },
      {
        "midi": 78,
        "time": 52.433,
        "duration": 0.067,
        "velocity": 1,
        "hand": "right"
      },
      {
        "midi": 63,
        "time": 52.567,
        "duration": 0.067,
        "velocity": 1,
        "hand": "right"
      },
      {
        "midi": 75,
        "time": 52.567,
        "duration": 0.067,
        "velocity": 1,
        "hand": "right"
      },
      {
        "midi": 61,
        "time": 52.768,
        "duration": 0.067,
        "velocity": 1,
        "hand": "right"
      },
      {
        "midi": 73,
        "time": 52.768,
        "duration": 0.067,
        "velocity": 1,
        "hand": "right"
      },
      {
        "midi": 74,
        "time": 52.701,
        "duration": 0.067,
        "velocity": 1,
        "hand": "right"
      },
      {
        "midi": 60,
        "time": 52.835,
        "duration": 0.067,
        "velocity": 1,
        "hand": "right"
      },
      {
        "midi": 72,
        "time": 52.835,
        "duration": 0.067,
        "velocity": 1,
        "hand": "right"
      },
      {
        "midi": 60,
        "time": 53.036,
        "duration": 0.067,
        "velocity": 1,
        "hand": "right"
      },
      {
        "midi": 72,
        "time": 53.036,
        "duration": 0.067,
        "velocity": 1,
        "hand": "right"
      },
      {
        "midi": 81,
        "time": 52.969,
        "duration": 0.067,
        "velocity": 1,
        "hand": "right"
      },
      {
        "midi": 61,
        "time": 53.103,
        "duration": 0.067,
        "velocity": 1,
        "hand": "right"
      },
      {
        "midi": 73,
        "time": 53.103,
        "duration": 0.067,
        "velocity": 1,
        "hand": "right"
      },
      {
        "midi": 62,
        "time": 53.304,
        "duration": 0.067,
        "velocity": 1,
        "hand": "right"
      },
      {
        "midi": 74,
        "time": 53.304,
        "duration": 0.067,
        "velocity": 1,
        "hand": "right"
      },
      {
        "midi": 82,
        "time": 53.237,
        "duration": 0.067,
        "velocity": 1,
        "hand": "right"
      },
      {
        "midi": 63,
        "time": 53.371,
        "duration": 0.067,
        "velocity": 1,
        "hand": "right"
      },
      {
        "midi": 75,
        "time": 53.371,
        "duration": 0.067,
        "velocity": 1,
        "hand": "right"
      },
      {
        "midi": 70,
        "time": 53.504,
        "duration": 0.067,
        "velocity": 1,
        "hand": "right"
      },
      {
        "midi": 82,
        "time": 53.504,
        "duration": 0.067,
        "velocity": 1,
        "hand": "right"
      },
      {
        "midi": 84,
        "time": 53.571,
        "duration": 0.067,
        "velocity": 1,
        "hand": "right"
      },
      {
        "midi": 70,
        "time": 53.638,
        "duration": 0.067,
        "velocity": 1,
        "hand": "right"
      },
      {
        "midi": 82,
        "time": 53.638,
        "duration": 0.067,
        "velocity": 1,
        "hand": "right"
      },
      {
        "midi": 66,
        "time": 53.839,
        "duration": 0.067,
        "velocity": 1,
        "hand": "right"
      },
      {
        "midi": 78,
        "time": 53.839,
        "duration": 0.067,
        "velocity": 1,
        "hand": "right"
      },
      {
        "midi": 80,
        "time": 53.772,
        "duration": 0.067,
        "velocity": 1,
        "hand": "right"
      },
      {
        "midi": 65,
        "time": 53.906,
        "duration": 0.067,
        "velocity": 1,
        "hand": "right"
      },
      {
        "midi": 77,
        "time": 53.906,
        "duration": 0.067,
        "velocity": 1,
        "hand": "right"
      },
      {
        "midi": 64,
        "time": 54.04,
        "duration": 0.067,
        "velocity": 1,
        "hand": "right"
      },
      {
        "midi": 76,
        "time": 54.04,
        "duration": 0.067,
        "velocity": 1,
        "hand": "right"
      },
      {
        "midi": 84,
        "time": 54.107,
        "duration": 0.067,
        "velocity": 1,
        "hand": "right"
      },
      {
        "midi": 70,
        "time": 54.174,
        "duration": 0.067,
        "velocity": 1,
        "hand": "right"
      },
      {
        "midi": 82,
        "time": 54.174,
        "duration": 0.067,
        "velocity": 1,
        "hand": "right"
      },
      {
        "midi": 66,
        "time": 54.375,
        "duration": 0.067,
        "velocity": 1,
        "hand": "right"
      },
      {
        "midi": 78,
        "time": 54.375,
        "duration": 0.067,
        "velocity": 1,
        "hand": "right"
      },
      {
        "midi": 80,
        "time": 54.308,
        "duration": 0.067,
        "velocity": 1,
        "hand": "right"
      },
      {
        "midi": 65,
        "time": 54.442,
        "duration": 0.067,
        "velocity": 1,
        "hand": "right"
      },
      {
        "midi": 77,
        "time": 54.442,
        "duration": 0.067,
        "velocity": 1,
        "hand": "right"
      },
      {
        "midi": 64,
        "time": 54.576,
        "duration": 0.067,
        "velocity": 1,
        "hand": "right"
      },
      {
        "midi": 76,
        "time": 54.576,
        "duration": 0.067,
        "velocity": 1,
        "hand": "right"
      },
      {
        "midi": 78,
        "time": 54.643,
        "duration": 0.067,
        "velocity": 1,
        "hand": "right"
      },
      {
        "midi": 65,
        "time": 54.71,
        "duration": 0.067,
        "velocity": 1,
        "hand": "right"
      },
      {
        "midi": 77,
        "time": 54.71,
        "duration": 0.067,
        "velocity": 1,
        "hand": "right"
      },
      {
        "midi": 63,
        "time": 54.911,
        "duration": 0.067,
        "velocity": 1,
        "hand": "right"
      },
      {
        "midi": 75,
        "time": 54.911,
        "duration": 0.067,
        "velocity": 1,
        "hand": "right"
      },
      {
        "midi": 76,
        "time": 54.844,
        "duration": 0.067,
        "velocity": 1,
        "hand": "right"
      },
      {
        "midi": 62,
        "time": 54.978,
        "duration": 0.067,
        "velocity": 1,
        "hand": "right"
      },
      {
        "midi": 74,
        "time": 54.978,
        "duration": 0.067,
        "velocity": 1,
        "hand": "right"
      },
      {
        "midi": 61,
        "time": 55.112,
        "duration": 0.067,
        "velocity": 1,
        "hand": "right"
      },
      {
        "midi": 73,
        "time": 55.112,
        "duration": 0.067,
        "velocity": 1,
        "hand": "right"
      },
      {
        "midi": 75,
        "time": 55.179,
        "duration": 0.067,
        "velocity": 1,
        "hand": "right"
      },
      {
        "midi": 59,
        "time": 55.246,
        "duration": 0.067,
        "velocity": 1,
        "hand": "left"
      },
      {
        "midi": 71,
        "time": 55.246,
        "duration": 0.067,
        "velocity": 1,
        "hand": "right"
      },
      {
        "midi": 60,
        "time": 55.379,
        "duration": 0.067,
        "velocity": 1,
        "hand": "right"
      },
      {
        "midi": 72,
        "time": 55.379,
        "duration": 0.067,
        "velocity": 1,
        "hand": "right"
      },
      {
        "midi": 73,
        "time": 55.446,
        "duration": 0.067,
        "velocity": 1,
        "hand": "right"
      },
      {
        "midi": 57,
        "time": 55.513,
        "duration": 0.067,
        "velocity": 1,
        "hand": "left"
      },
      {
        "midi": 69,
        "time": 55.513,
        "duration": 0.067,
        "velocity": 1,
        "hand": "right"
      },
      {
        "midi": 58,
        "time": 55.647,
        "duration": 0.067,
        "velocity": 1,
        "hand": "left"
      },
      {
        "midi": 70,
        "time": 55.647,
        "duration": 0.067,
        "velocity": 1,
        "hand": "right"
      },
      {
        "midi": 72,
        "time": 55.714,
        "duration": 0.067,
        "velocity": 1,
        "hand": "right"
      },
      {
        "midi": 55,
        "time": 55.781,
        "duration": 0.067,
        "velocity": 1,
        "hand": "left"
      },
      {
        "midi": 67,
        "time": 55.781,
        "duration": 0.067,
        "velocity": 1,
        "hand": "right"
      },
      {
        "midi": 56,
        "time": 55.915,
        "duration": 0.067,
        "velocity": 1,
        "hand": "left"
      },
      {
        "midi": 68,
        "time": 55.915,
        "duration": 0.067,
        "velocity": 1,
        "hand": "right"
      },
      {
        "midi": 71,
        "time": 55.982,
        "duration": 0.067,
        "velocity": 1,
        "hand": "right"
      },
      {
        "midi": 54,
        "time": 56.049,
        "duration": 0.067,
        "velocity": 1,
        "hand": "left"
      },
      {
        "midi": 66,
        "time": 56.049,
        "duration": 0.067,
        "velocity": 1,
        "hand": "right"
      },
      {
        "midi": 58,
        "time": 56.25,
        "duration": 0.067,
        "velocity": 1,
        "hand": "left"
      },
      {
        "midi": 70,
        "time": 56.25,
        "duration": 0.067,
        "velocity": 1,
        "hand": "right"
      },
      {
        "midi": 75,
        "time": 56.183,
        "duration": 0.067,
        "velocity": 1,
        "hand": "right"
      },
      {
        "midi": 53,
        "time": 56.317,
        "duration": 0.067,
        "velocity": 1,
        "hand": "left"
      },
      {
        "midi": 65,
        "time": 56.317,
        "duration": 0.067,
        "velocity": 1,
        "hand": "right"
      },
      {
        "midi": 54,
        "time": 56.451,
        "duration": 0.067,
        "velocity": 1,
        "hand": "left"
      },
      {
        "midi": 66,
        "time": 56.451,
        "duration": 0.067,
        "velocity": 1,
        "hand": "right"
      },
      {
        "midi": 69,
        "time": 56.518,
        "duration": 0.067,
        "velocity": 1,
        "hand": "right"
      },
      {
        "midi": 52,
        "time": 56.585,
        "duration": 0.067,
        "velocity": 1,
        "hand": "left"
      },
      {
        "midi": 64,
        "time": 56.585,
        "duration": 0.067,
        "velocity": 1,
        "hand": "right"
      },
      {
        "midi": 56,
        "time": 56.786,
        "duration": 0.067,
        "velocity": 1,
        "hand": "left"
      },
      {
        "midi": 68,
        "time": 56.786,
        "duration": 0.067,
        "velocity": 1,
        "hand": "right"
      },
      {
        "midi": 73,
        "time": 56.719,
        "duration": 0.067,
        "velocity": 1,
        "hand": "right"
      },
      {
        "midi": 51,
        "time": 56.853,
        "duration": 0.067,
        "velocity": 1,
        "hand": "left"
      },
      {
        "midi": 63,
        "time": 56.853,
        "duration": 0.067,
        "velocity": 1,
        "hand": "right"
      },
      {
        "midi": 52,
        "time": 56.987,
        "duration": 0.067,
        "velocity": 1,
        "hand": "left"
      },
      {
        "midi": 64,
        "time": 56.987,
        "duration": 0.067,
        "velocity": 1,
        "hand": "right"
      },
      {
        "midi": 67,
        "time": 57.054,
        "duration": 0.067,
        "velocity": 1,
        "hand": "right"
      },
      {
        "midi": 50,
        "time": 57.121,
        "duration": 0.067,
        "velocity": 1,
        "hand": "left"
      },
      {
        "midi": 62,
        "time": 57.121,
        "duration": 0.067,
        "velocity": 1,
        "hand": "right"
      },
      {
        "midi": 54,
        "time": 57.321,
        "duration": 0.067,
        "velocity": 1,
        "hand": "left"
      },
      {
        "midi": 66,
        "time": 57.321,
        "duration": 0.067,
        "velocity": 1,
        "hand": "right"
      },
      {
        "midi": 71,
        "time": 57.254,
        "duration": 0.067,
        "velocity": 1,
        "hand": "right"
      },
      {
        "midi": 49,
        "time": 57.388,
        "duration": 0.067,
        "velocity": 1,
        "hand": "left"
      },
      {
        "midi": 61,
        "time": 57.388,
        "duration": 0.067,
        "velocity": 1,
        "hand": "right"
      },
      {
        "midi": 50,
        "time": 57.522,
        "duration": 0.067,
        "velocity": 1,
        "hand": "left"
      },
      {
        "midi": 62,
        "time": 57.522,
        "duration": 0.067,
        "velocity": 1,
        "hand": "right"
      },
      {
        "midi": 65,
        "time": 57.589,
        "duration": 0.067,
        "velocity": 1,
        "hand": "right"
      },
      {
        "midi": 48,
        "time": 57.656,
        "duration": 0.067,
        "velocity": 1,
        "hand": "left"
      },
      {
        "midi": 60,
        "time": 57.656,
        "duration": 0.067,
        "velocity": 1,
        "hand": "right"
      },
      {
        "midi": 57,
        "time": 57.79,
        "duration": 0.067,
        "velocity": 1,
        "hand": "left"
      },
      {
        "midi": 69,
        "time": 57.79,
        "duration": 0.067,
        "velocity": 1,
        "hand": "right"
      },
      {
        "midi": 74,
        "time": 57.857,
        "duration": 0.067,
        "velocity": 1,
        "hand": "right"
      },
      {
        "midi": 57,
        "time": 57.924,
        "duration": 0.067,
        "velocity": 1,
        "hand": "left"
      },
      {
        "midi": 69,
        "time": 57.924,
        "duration": 0.067,
        "velocity": 1,
        "hand": "right"
      },
      {
        "midi": 58,
        "time": 58.058,
        "duration": 0.067,
        "velocity": 1,
        "hand": "left"
      },
      {
        "midi": 70,
        "time": 58.058,
        "duration": 0.067,
        "velocity": 1,
        "hand": "right"
      },
      {
        "midi": 73,
        "time": 58.125,
        "duration": 0.067,
        "velocity": 1,
        "hand": "right"
      },
      {
        "midi": 56,
        "time": 58.192,
        "duration": 0.067,
        "velocity": 1,
        "hand": "left"
      },
      {
        "midi": 68,
        "time": 58.192,
        "duration": 0.067,
        "velocity": 1,
        "hand": "right"
      },
      {
        "midi": 60,
        "time": 58.393,
        "duration": 0.067,
        "velocity": 1,
        "hand": "right"
      },
      {
        "midi": 72,
        "time": 58.393,
        "duration": 0.067,
        "velocity": 1,
        "hand": "right"
      },
      {
        "midi": 77,
        "time": 58.326,
        "duration": 0.067,
        "velocity": 1,
        "hand": "right"
      },
      {
        "midi": 55,
        "time": 58.46,
        "duration": 0.067,
        "velocity": 1,
        "hand": "left"
      },
      {
        "midi": 67,
        "time": 58.46,
        "duration": 0.067,
        "velocity": 1,
        "hand": "right"
      },
      {
        "midi": 56,
        "time": 58.594,
        "duration": 0.067,
        "velocity": 1,
        "hand": "left"
      },
      {
        "midi": 68,
        "time": 58.594,
        "duration": 0.067,
        "velocity": 1,
        "hand": "right"
      },
      {
        "midi": 71,
        "time": 58.661,
        "duration": 0.067,
        "velocity": 1,
        "hand": "right"
      },
      {
        "midi": 54,
        "time": 58.728,
        "duration": 0.067,
        "velocity": 1,
        "hand": "left"
      },
      {
        "midi": 66,
        "time": 58.728,
        "duration": 0.067,
        "velocity": 1,
        "hand": "right"
      },
      {
        "midi": 58,
        "time": 58.929,
        "duration": 0.067,
        "velocity": 1,
        "hand": "left"
      },
      {
        "midi": 70,
        "time": 58.929,
        "duration": 0.067,
        "velocity": 1,
        "hand": "right"
      },
      {
        "midi": 75,
        "time": 58.862,
        "duration": 0.067,
        "velocity": 1,
        "hand": "right"
      },
      {
        "midi": 53,
        "time": 58.996,
        "duration": 0.067,
        "velocity": 1,
        "hand": "left"
      },
      {
        "midi": 65,
        "time": 58.996,
        "duration": 0.067,
        "velocity": 1,
        "hand": "right"
      },
      {
        "midi": 54,
        "time": 59.129,
        "duration": 0.067,
        "velocity": 1,
        "hand": "left"
      },
      {
        "midi": 66,
        "time": 59.129,
        "duration": 0.067,
        "velocity": 1,
        "hand": "right"
      },
      {
        "midi": 69,
        "time": 59.196,
        "duration": 0.067,
        "velocity": 1,
        "hand": "right"
      },
      {
        "midi": 52,
        "time": 59.263,
        "duration": 0.067,
        "velocity": 1,
        "hand": "left"
      },
      {
        "midi": 64,
        "time": 59.263,
        "duration": 0.067,
        "velocity": 1,
        "hand": "right"
      },
      {
        "midi": 56,
        "time": 59.464,
        "duration": 0.067,
        "velocity": 1,
        "hand": "left"
      },
      {
        "midi": 68,
        "time": 59.464,
        "duration": 0.067,
        "velocity": 1,
        "hand": "right"
      },
      {
        "midi": 73,
        "time": 59.397,
        "duration": 0.067,
        "velocity": 1,
        "hand": "right"
      },
      {
        "midi": 51,
        "time": 59.531,
        "duration": 0.067,
        "velocity": 1,
        "hand": "left"
      },
      {
        "midi": 63,
        "time": 59.531,
        "duration": 0.067,
        "velocity": 1,
        "hand": "right"
      },
      {
        "midi": 52,
        "time": 59.665,
        "duration": 0.067,
        "velocity": 1,
        "hand": "left"
      },
      {
        "midi": 64,
        "time": 59.665,
        "duration": 0.067,
        "velocity": 1,
        "hand": "right"
      },
      {
        "midi": 67,
        "time": 59.732,
        "duration": 0.067,
        "velocity": 1,
        "hand": "right"
      },
      {
        "midi": 50,
        "time": 59.799,
        "duration": 0.067,
        "velocity": 1,
        "hand": "left"
      },
      {
        "midi": 62,
        "time": 59.799,
        "duration": 0.067,
        "velocity": 1,
        "hand": "right"
      },
      {
        "midi": 59,
        "time": 59.933,
        "duration": 0.067,
        "velocity": 1,
        "hand": "left"
      },
      {
        "midi": 71,
        "time": 59.933,
        "duration": 0.067,
        "velocity": 1,
        "hand": "right"
      },
      {
        "midi": 76,
        "time": 60,
        "duration": 0.067,
        "velocity": 1,
        "hand": "right"
      },
      {
        "midi": 59,
        "time": 60.067,
        "duration": 0.067,
        "velocity": 1,
        "hand": "left"
      },
      {
        "midi": 71,
        "time": 60.067,
        "duration": 0.067,
        "velocity": 1,
        "hand": "right"
      },
      {
        "midi": 60,
        "time": 60.201,
        "duration": 0.067,
        "velocity": 1,
        "hand": "right"
      },
      {
        "midi": 72,
        "time": 60.201,
        "duration": 0.067,
        "velocity": 1,
        "hand": "right"
      },
      {
        "midi": 75,
        "time": 60.268,
        "duration": 0.067,
        "velocity": 1,
        "hand": "right"
      },
      {
        "midi": 58,
        "time": 60.335,
        "duration": 0.067,
        "velocity": 1,
        "hand": "left"
      },
      {
        "midi": 70,
        "time": 60.335,
        "duration": 0.067,
        "velocity": 1,
        "hand": "right"
      },
      {
        "midi": 62,
        "time": 60.536,
        "duration": 0.067,
        "velocity": 1,
        "hand": "right"
      },
      {
        "midi": 74,
        "time": 60.536,
        "duration": 0.067,
        "velocity": 1,
        "hand": "right"
      },
      {
        "midi": 79,
        "time": 60.469,
        "duration": 0.067,
        "velocity": 1,
        "hand": "right"
      },
      {
        "midi": 57,
        "time": 60.603,
        "duration": 0.067,
        "velocity": 1,
        "hand": "left"
      },
      {
        "midi": 69,
        "time": 60.603,
        "duration": 0.067,
        "velocity": 1,
        "hand": "right"
      },
      {
        "midi": 58,
        "time": 60.737,
        "duration": 0.067,
        "velocity": 1,
        "hand": "left"
      },
      {
        "midi": 70,
        "time": 60.737,
        "duration": 0.067,
        "velocity": 1,
        "hand": "right"
      },
      {
        "midi": 73,
        "time": 60.804,
        "duration": 0.067,
        "velocity": 1,
        "hand": "right"
      },
      {
        "midi": 56,
        "time": 60.871,
        "duration": 0.067,
        "velocity": 1,
        "hand": "left"
      },
      {
        "midi": 68,
        "time": 60.871,
        "duration": 0.067,
        "velocity": 1,
        "hand": "right"
      },
      {
        "midi": 60,
        "time": 61.071,
        "duration": 0.067,
        "velocity": 1,
        "hand": "right"
      },
      {
        "midi": 72,
        "time": 61.071,
        "duration": 0.067,
        "velocity": 1,
        "hand": "right"
      },
      {
        "midi": 77,
        "time": 61.004,
        "duration": 0.067,
        "velocity": 1,
        "hand": "right"
      },
      {
        "midi": 55,
        "time": 61.138,
        "duration": 0.067,
        "velocity": 1,
        "hand": "left"
      },
      {
        "midi": 67,
        "time": 61.138,
        "duration": 0.067,
        "velocity": 1,
        "hand": "right"
      },
      {
        "midi": 56,
        "time": 61.272,
        "duration": 0.067,
        "velocity": 1,
        "hand": "left"
      },
      {
        "midi": 68,
        "time": 61.272,
        "duration": 0.067,
        "velocity": 1,
        "hand": "right"
      },
      {
        "midi": 71,
        "time": 61.339,
        "duration": 0.067,
        "velocity": 1,
        "hand": "right"
      },
      {
        "midi": 54,
        "time": 61.406,
        "duration": 0.067,
        "velocity": 1,
        "hand": "left"
      },
      {
        "midi": 66,
        "time": 61.406,
        "duration": 0.067,
        "velocity": 1,
        "hand": "right"
      },
      {
        "midi": 58,
        "time": 61.607,
        "duration": 0.067,
        "velocity": 1,
        "hand": "left"
      },
      {
        "midi": 70,
        "time": 61.607,
        "duration": 0.067,
        "velocity": 1,
        "hand": "right"
      },
      {
        "midi": 75,
        "time": 61.54,
        "duration": 0.067,
        "velocity": 1,
        "hand": "right"
      },
      {
        "midi": 53,
        "time": 61.674,
        "duration": 0.067,
        "velocity": 1,
        "hand": "left"
      },
      {
        "midi": 65,
        "time": 61.674,
        "duration": 0.067,
        "velocity": 1,
        "hand": "right"
      },
      {
        "midi": 58,
        "time": 61.875,
        "duration": 0.067,
        "velocity": 1,
        "hand": "left"
      },
      {
        "midi": 70,
        "time": 61.875,
        "duration": 0.067,
        "velocity": 1,
        "hand": "right"
      },
      {
        "midi": 75,
        "time": 61.808,
        "duration": 0.067,
        "velocity": 1,
        "hand": "right"
      },
      {
        "midi": 53,
        "time": 61.942,
        "duration": 0.067,
        "velocity": 1,
        "hand": "left"
      },
      {
        "midi": 65,
        "time": 61.942,
        "duration": 0.067,
        "velocity": 1,
        "hand": "right"
      },
      {
        "midi": 54,
        "time": 62.143,
        "duration": 0.067,
        "velocity": 1,
        "hand": "left"
      },
      {
        "midi": 66,
        "time": 62.143,
        "duration": 0.067,
        "velocity": 1,
        "hand": "right"
      },
      {
        "midi": 73,
        "time": 62.076,
        "duration": 0.067,
        "velocity": 1,
        "hand": "right"
      },
      {
        "midi": 53,
        "time": 62.21,
        "duration": 0.067,
        "velocity": 1,
        "hand": "left"
      },
      {
        "midi": 65,
        "time": 62.21,
        "duration": 0.067,
        "velocity": 1,
        "hand": "right"
      },
      {
        "midi": 51,
        "time": 62.411,
        "duration": 0.067,
        "velocity": 1,
        "hand": "left"
      },
      {
        "midi": 63,
        "time": 62.411,
        "duration": 0.067,
        "velocity": 1,
        "hand": "right"
      },
      {
        "midi": 64,
        "time": 62.344,
        "duration": 0.067,
        "velocity": 1,
        "hand": "right"
      },
      {
        "midi": 49,
        "time": 62.478,
        "duration": 0.067,
        "velocity": 1,
        "hand": "left"
      },
      {
        "midi": 61,
        "time": 62.478,
        "duration": 0.067,
        "velocity": 1,
        "hand": "right"
      },
      {
        "midi": 48,
        "time": 62.612,
        "duration": 0.067,
        "velocity": 1,
        "hand": "left"
      },
      {
        "midi": 60,
        "time": 62.612,
        "duration": 0.067,
        "velocity": 1,
        "hand": "right"
      },
      {
        "midi": 66,
        "time": 62.679,
        "duration": 0.067,
        "velocity": 1,
        "hand": "right"
      },
      {
        "midi": 53,
        "time": 62.746,
        "duration": 0.067,
        "velocity": 1,
        "hand": "left"
      },
      {
        "midi": 65,
        "time": 62.746,
        "duration": 0.067,
        "velocity": 1,
        "hand": "right"
      },
      {
        "midi": 49,
        "time": 62.946,
        "duration": 0.067,
        "velocity": 1,
        "hand": "left"
      },
      {
        "midi": 61,
        "time": 62.946,
        "duration": 0.067,
        "velocity": 1,
        "hand": "right"
      },
      {
        "midi": 63,
        "time": 62.879,
        "duration": 0.067,
        "velocity": 1,
        "hand": "right"
      },
      {
        "midi": 48,
        "time": 63.013,
        "duration": 0.067,
        "velocity": 1,
        "hand": "left"
      },
      {
        "midi": 60,
        "time": 63.013,
        "duration": 0.067,
        "velocity": 1,
        "hand": "right"
      },
      {
        "midi": 46,
        "time": 63.147,
        "duration": 0.067,
        "velocity": 1,
        "hand": "left"
      },
      {
        "midi": 58,
        "time": 63.147,
        "duration": 0.067,
        "velocity": 1,
        "hand": "left"
      },
      {
        "midi": 66,
        "time": 63.214,
        "duration": 0.067,
        "velocity": 1,
        "hand": "right"
      },
      {
        "midi": 53,
        "time": 63.281,
        "duration": 0.067,
        "velocity": 1,
        "hand": "left"
      },
      {
        "midi": 65,
        "time": 63.281,
        "duration": 0.067,
        "velocity": 1,
        "hand": "right"
      },
      {
        "midi": 49,
        "time": 63.482,
        "duration": 0.067,
        "velocity": 1,
        "hand": "left"
      },
      {
        "midi": 61,
        "time": 63.482,
        "duration": 0.067,
        "velocity": 1,
        "hand": "right"
      },
      {
        "midi": 63,
        "time": 63.415,
        "duration": 0.067,
        "velocity": 1,
        "hand": "right"
      },
      {
        "midi": 48,
        "time": 63.549,
        "duration": 0.067,
        "velocity": 1,
        "hand": "left"
      },
      {
        "midi": 60,
        "time": 63.549,
        "duration": 0.067,
        "velocity": 1,
        "hand": "right"
      },
      {
        "midi": 47,
        "time": 63.683,
        "duration": 0.067,
        "velocity": 1,
        "hand": "left"
      },
      {
        "midi": 59,
        "time": 63.683,
        "duration": 0.067,
        "velocity": 1,
        "hand": "left"
      },
      {
        "midi": 66,
        "time": 63.75,
        "duration": 0.067,
        "velocity": 1,
        "hand": "right"
      },
      {
        "midi": 53,
        "time": 63.817,
        "duration": 0.067,
        "velocity": 1,
        "hand": "left"
      },
      {
        "midi": 65,
        "time": 63.817,
        "duration": 0.067,
        "velocity": 1,
        "hand": "right"
      },
      {
        "midi": 49,
        "time": 64.018,
        "duration": 0.067,
        "velocity": 1,
        "hand": "left"
      },
      {
        "midi": 61,
        "time": 64.018,
        "duration": 0.067,
        "velocity": 1,
        "hand": "right"
      },
      {
        "midi": 63,
        "time": 63.951,
        "duration": 0.067,
        "velocity": 1,
        "hand": "right"
      },
      {
        "midi": 47,
        "time": 64.085,
        "duration": 0.067,
        "velocity": 1,
        "hand": "left"
      },
      {
        "midi": 59,
        "time": 64.085,
        "duration": 0.067,
        "velocity": 1,
        "hand": "left"
      },
      {
        "midi": 45,
        "time": 64.286,
        "duration": 0.067,
        "velocity": 1,
        "hand": "left"
      },
      {
        "midi": 57,
        "time": 64.286,
        "duration": 0.067,
        "velocity": 1,
        "hand": "left"
      },
      {
        "midi": 58,
        "time": 64.219,
        "duration": 0.067,
        "velocity": 1,
        "hand": "left"
      },
      {
        "midi": 46,
        "time": 64.353,
        "duration": 0.067,
        "velocity": 1,
        "hand": "left"
      },
      {
        "midi": 58,
        "time": 64.353,
        "duration": 0.067,
        "velocity": 1,
        "hand": "left"
      },
      {
        "midi": 48,
        "time": 64.487,
        "duration": 0.067,
        "velocity": 1,
        "hand": "left"
      },
      {
        "midi": 60,
        "time": 64.487,
        "duration": 0.067,
        "velocity": 1,
        "hand": "right"
      },
      {
        "midi": 63,
        "time": 64.554,
        "duration": 0.067,
        "velocity": 1,
        "hand": "right"
      },
      {
        "midi": 49,
        "time": 64.621,
        "duration": 0.067,
        "velocity": 1,
        "hand": "left"
      },
      {
        "midi": 61,
        "time": 64.621,
        "duration": 0.067,
        "velocity": 1,
        "hand": "right"
      },
      {
        "midi": 45,
        "time": 64.754,
        "duration": 0.067,
        "velocity": 1,
        "hand": "left"
      },
      {
        "midi": 57,
        "time": 64.754,
        "duration": 0.067,
        "velocity": 1,
        "hand": "left"
      },
      {
        "midi": 60,
        "time": 64.821,
        "duration": 0.067,
        "velocity": 1,
        "hand": "right"
      },
      {
        "midi": 46,
        "time": 64.888,
        "duration": 0.067,
        "velocity": 1,
        "hand": "left"
      },
      {
        "midi": 58,
        "time": 64.888,
        "duration": 0.067,
        "velocity": 1,
        "hand": "left"
      },
      {
        "midi": 41,
        "time": 65.022,
        "duration": 0.067,
        "velocity": 1,
        "hand": "left"
      },
      {
        "midi": 53,
        "time": 65.022,
        "duration": 0.067,
        "velocity": 1,
        "hand": "left"
      },
      {
        "midi": 56,
        "time": 65.089,
        "duration": 0.067,
        "velocity": 1,
        "hand": "left"
      },
      {
        "midi": 42,
        "time": 65.156,
        "duration": 0.067,
        "velocity": 1,
        "hand": "left"
      },
      {
        "midi": 54,
        "time": 65.156,
        "duration": 0.067,
        "velocity": 1,
        "hand": "left"
      },
      {
        "midi": 39,
        "time": 65.357,
        "duration": 0.067,
        "velocity": 1,
        "hand": "left"
      },
      {
        "midi": 51,
        "time": 65.357,
        "duration": 0.067,
        "velocity": 1,
        "hand": "left"
      },
      {
        "midi": 53,
        "time": 65.29,
        "duration": 0.067,
        "velocity": 1,
        "hand": "left"
      },
      {
        "midi": 41,
        "time": 65.424,
        "duration": 0.067,
        "velocity": 1,
        "hand": "left"
      },
      {
        "midi": 53,
        "time": 65.424,
        "duration": 0.067,
        "velocity": 1,
        "hand": "left"
      },
      {
        "midi": 42,
        "time": 65.558,
        "duration": 0.067,
        "velocity": 1,
        "hand": "left"
      },
      {
        "midi": 54,
        "time": 65.558,
        "duration": 0.067,
        "velocity": 1,
        "hand": "left"
      },
      {
        "midi": 58,
        "time": 65.625,
        "duration": 0.067,
        "velocity": 1,
        "hand": "left"
      },
      {
        "midi": 44,
        "time": 65.692,
        "duration": 0.067,
        "velocity": 1,
        "hand": "left"
      },
      {
        "midi": 56,
        "time": 65.692,
        "duration": 0.067,
        "velocity": 1,
        "hand": "left"
      },
      {
        "midi": 41,
        "time": 65.893,
        "duration": 0.067,
        "velocity": 1,
        "hand": "left"
      },
      {
        "midi": 53,
        "time": 65.893,
        "duration": 0.067,
        "velocity": 1,
        "hand": "left"
      },
      {
        "midi": 54,
        "time": 65.826,
        "duration": 0.067,
        "velocity": 1,
        "hand": "left"
      },
      {
        "midi": 37,
        "time": 65.96,
        "duration": 0.067,
        "velocity": 1,
        "hand": "left"
      },
      {
        "midi": 49,
        "time": 65.96,
        "duration": 0.067,
        "velocity": 1,
        "hand": "left"
      },
      {
        "midi": 39,
        "time": 66.094,
        "duration": 0.067,
        "velocity": 1,
        "hand": "left"
      },
      {
        "midi": 51,
        "time": 66.094,
        "duration": 0.067,
        "velocity": 1,
        "hand": "left"
      },
      {
        "midi": 53,
        "time": 66.161,
        "duration": 0.067,
        "velocity": 1,
        "hand": "left"
      },
      {
        "midi": 40,
        "time": 66.228,
        "duration": 0.067,
        "velocity": 1,
        "hand": "left"
      },
      {
        "midi": 52,
        "time": 66.228,
        "duration": 0.067,
        "velocity": 1,
        "hand": "left"
      },
      {
        "midi": 41,
        "time": 66.362,
        "duration": 0.067,
        "velocity": 1,
        "hand": "left"
      },
      {
        "midi": 53,
        "time": 66.362,
        "duration": 0.067,
        "velocity": 1,
        "hand": "left"
      },
      {
        "midi": 54,
        "time": 66.429,
        "duration": 0.067,
        "velocity": 1,
        "hand": "left"
      },
      {
        "midi": 41,
        "time": 66.496,
        "duration": 0.067,
        "velocity": 1,
        "hand": "left"
      },
      {
        "midi": 53,
        "time": 66.496,
        "duration": 0.067,
        "velocity": 1,
        "hand": "left"
      },
      {
        "midi": 39,
        "time": 66.696,
        "duration": 0.067,
        "velocity": 1,
        "hand": "left"
      },
      {
        "midi": 51,
        "time": 66.696,
        "duration": 0.067,
        "velocity": 1,
        "hand": "left"
      },
      {
        "midi": 52,
        "time": 66.629,
        "duration": 0.067,
        "velocity": 1,
        "hand": "left"
      },
      {
        "midi": 37,
        "time": 66.763,
        "duration": 0.067,
        "velocity": 1,
        "hand": "left"
      },
      {
        "midi": 49,
        "time": 66.763,
        "duration": 0.067,
        "velocity": 1,
        "hand": "left"
      },
      {
        "midi": 36,
        "time": 66.897,
        "duration": 0.067,
        "velocity": 1,
        "hand": "left"
      },
      {
        "midi": 48,
        "time": 66.897,
        "duration": 0.067,
        "velocity": 1,
        "hand": "left"
      },
      {
        "midi": 54,
        "time": 66.964,
        "duration": 0.067,
        "velocity": 1,
        "hand": "left"
      },
      {
        "midi": 41,
        "time": 67.031,
        "duration": 0.067,
        "velocity": 1,
        "hand": "left"
      },
      {
        "midi": 53,
        "time": 67.031,
        "duration": 0.067,
        "velocity": 1,
        "hand": "left"
      },
      {
        "midi": 37,
        "time": 67.232,
        "duration": 0.067,
        "velocity": 1,
        "hand": "left"
      },
      {
        "midi": 49,
        "time": 67.232,
        "duration": 0.067,
        "velocity": 1,
        "hand": "left"
      },
      {
        "midi": 51,
        "time": 67.165,
        "duration": 0.067,
        "velocity": 1,
        "hand": "left"
      },
      {
        "midi": 36,
        "time": 67.299,
        "duration": 0.067,
        "velocity": 1,
        "hand": "left"
      },
      {
        "midi": 48,
        "time": 67.299,
        "duration": 0.067,
        "velocity": 1,
        "hand": "left"
      },
      {
        "midi": 34,
        "time": 67.433,
        "duration": 0.067,
        "velocity": 1,
        "hand": "left"
      },
      {
        "midi": 46,
        "time": 67.433,
        "duration": 0.067,
        "velocity": 1,
        "hand": "left"
      },
      {
        "midi": 54,
        "time": 67.5,
        "duration": 0.067,
        "velocity": 1,
        "hand": "left"
      },
      {
        "midi": 41,
        "time": 67.567,
        "duration": 0.067,
        "velocity": 1,
        "hand": "left"
      },
      {
        "midi": 53,
        "time": 67.567,
        "duration": 0.067,
        "velocity": 1,
        "hand": "left"
      },
      {
        "midi": 37,
        "time": 67.768,
        "duration": 0.067,
        "velocity": 1,
        "hand": "left"
      },
      {
        "midi": 49,
        "time": 67.768,
        "duration": 0.067,
        "velocity": 1,
        "hand": "left"
      },
      {
        "midi": 51,
        "time": 67.701,
        "duration": 0.067,
        "velocity": 1,
        "hand": "left"
      },
      {
        "midi": 36,
        "time": 67.835,
        "duration": 0.067,
        "velocity": 1,
        "hand": "left"
      },
      {
        "midi": 48,
        "time": 67.835,
        "duration": 0.067,
        "velocity": 1,
        "hand": "left"
      },
      {
        "midi": 35,
        "time": 67.969,
        "duration": 0.067,
        "velocity": 1,
        "hand": "left"
      },
      {
        "midi": 47,
        "time": 67.969,
        "duration": 0.067,
        "velocity": 1,
        "hand": "left"
      },
      {
        "midi": 54,
        "time": 68.036,
        "duration": 0.067,
        "velocity": 1,
        "hand": "left"
      },
      {
        "midi": 41,
        "time": 68.103,
        "duration": 0.067,
        "velocity": 1,
        "hand": "left"
      },
      {
        "midi": 53,
        "time": 68.103,
        "duration": 0.067,
        "velocity": 1,
        "hand": "left"
      },
      {
        "midi": 37,
        "time": 68.304,
        "duration": 0.067,
        "velocity": 1,
        "hand": "left"
      },
      {
        "midi": 49,
        "time": 68.304,
        "duration": 0.067,
        "velocity": 1,
        "hand": "left"
      },
      {
        "midi": 51,
        "time": 68.237,
        "duration": 0.067,
        "velocity": 1,
        "hand": "left"
      },
      {
        "midi": 35,
        "time": 68.371,
        "duration": 0.067,
        "velocity": 1,
        "hand": "left"
      },
      {
        "midi": 47,
        "time": 68.371,
        "duration": 0.067,
        "velocity": 1,
        "hand": "left"
      },
      {
        "midi": 33,
        "time": 68.571,
        "duration": 0.067,
        "velocity": 1,
        "hand": "left"
      },
      {
        "midi": 45,
        "time": 68.571,
        "duration": 0.067,
        "velocity": 1,
        "hand": "left"
      },
      {
        "midi": 46,
        "time": 68.504,
        "duration": 0.067,
        "velocity": 1,
        "hand": "left"
      },
      {
        "midi": 34,
        "time": 68.638,
        "duration": 0.067,
        "velocity": 1,
        "hand": "left"
      },
      {
        "midi": 46,
        "time": 68.638,
        "duration": 0.067,
        "velocity": 1,
        "hand": "left"
      },
      {
        "midi": 35,
        "time": 68.772,
        "duration": 0.067,
        "velocity": 1,
        "hand": "left"
      },
      {
        "midi": 47,
        "time": 68.772,
        "duration": 0.067,
        "velocity": 1,
        "hand": "left"
      },
      {
        "midi": 49,
        "time": 68.839,
        "duration": 0.067,
        "velocity": 1,
        "hand": "left"
      },
      {
        "midi": 39,
        "time": 68.906,
        "duration": 0.067,
        "velocity": 1,
        "hand": "left"
      },
      {
        "midi": 51,
        "time": 68.906,
        "duration": 0.067,
        "velocity": 1,
        "hand": "left"
      },
      {
        "midi": 41,
        "time": 69.04,
        "duration": 0.067,
        "velocity": 1,
        "hand": "left"
      },
      {
        "midi": 53,
        "time": 69.04,
        "duration": 0.067,
        "velocity": 1,
        "hand": "left"
      },
      {
        "midi": 54,
        "time": 69.107,
        "duration": 0.067,
        "velocity": 1,
        "hand": "left"
      },
      {
        "midi": 44,
        "time": 69.174,
        "duration": 0.067,
        "velocity": 1,
        "hand": "left"
      },
      {
        "midi": 56,
        "time": 69.174,
        "duration": 0.067,
        "velocity": 1,
        "hand": "left"
      },
      {
        "midi": 46,
        "time": 69.308,
        "duration": 0.067,
        "velocity": 1,
        "hand": "left"
      },
      {
        "midi": 58,
        "time": 69.308,
        "duration": 0.067,
        "velocity": 1,
        "hand": "left"
      },
      {
        "midi": 59,
        "time": 69.375,
        "duration": 0.067,
        "velocity": 1,
        "hand": "left"
      },
      {
        "midi": 49,
        "time": 69.442,
        "duration": 0.067,
        "velocity": 1,
        "hand": "left"
      },
      {
        "midi": 61,
        "time": 69.442,
        "duration": 0.067,
        "velocity": 1,
        "hand": "right"
      },
      {
        "midi": 51,
        "time": 69.576,
        "duration": 0.067,
        "velocity": 1,
        "hand": "left"
      },
      {
        "midi": 63,
        "time": 69.576,
        "duration": 0.067,
        "velocity": 1,
        "hand": "right"
      },
      {
        "midi": 65,
        "time": 69.643,
        "duration": 0.067,
        "velocity": 1,
        "hand": "right"
      },
      {
        "midi": 52,
        "time": 69.71,
        "duration": 0.067,
        "velocity": 1,
        "hand": "left"
      },
      {
        "midi": 64,
        "time": 69.71,
        "duration": 0.067,
        "velocity": 1,
        "hand": "right"
      },
      {
        "midi": 48,
        "time": 69.911,
        "duration": 0.067,
        "velocity": 1,
        "hand": "left"
      },
      {
        "midi": 60,
        "time": 69.911,
        "duration": 0.067,
        "velocity": 1,
        "hand": "right"
      },
      {
        "midi": 61,
        "time": 69.844,
        "duration": 0.067,
        "velocity": 1,
        "hand": "right"
      },
      {
        "midi": 46,
        "time": 69.978,
        "duration": 0.067,
        "velocity": 1,
        "hand": "left"
      },
      {
        "midi": 58,
        "time": 69.978,
        "duration": 0.067,
        "velocity": 1,
        "hand": "left"
      },
      {
        "midi": 41,
        "time": 70.179,
        "duration": 0.067,
        "velocity": 1,
        "hand": "left"
      },
      {
        "midi": 53,
        "time": 70.179,
        "duration": 0.067,
        "velocity": 1,
        "hand": "left"
      },
      {
        "midi": 54,
        "time": 70.112,
        "duration": 0.067,
        "velocity": 1,
        "hand": "left"
      },
      {
        "midi": 40,
        "time": 70.246,
        "duration": 0.067,
        "velocity": 1,
        "hand": "left"
      },
      {
        "midi": 52,
        "time": 70.246,
        "duration": 0.067,
        "velocity": 1,
        "hand": "left"
      },
      {
        "midi": 36,
        "time": 70.446,
        "duration": 0.067,
        "velocity": 1,
        "hand": "left"
      },
      {
        "midi": 48,
        "time": 70.446,
        "duration": 0.067,
        "velocity": 1,
        "hand": "left"
      },
      {
        "midi": 49,
        "time": 70.379,
        "duration": 0.067,
        "velocity": 1,
        "hand": "left"
      },
      {
        "midi": 34,
        "time": 70.513,
        "duration": 0.067,
        "velocity": 1,
        "hand": "left"
      },
      {
        "midi": 46,
        "time": 70.513,
        "duration": 0.067,
        "velocity": 1,
        "hand": "left"
      },
      {
        "midi": 29,
        "time": 70.714,
        "duration": 0.067,
        "velocity": 1,
        "hand": "left"
      },
      {
        "midi": 41,
        "time": 70.714,
        "duration": 0.067,
        "velocity": 1,
        "hand": "left"
      },
      {
        "midi": 42,
        "time": 70.647,
        "duration": 0.067,
        "velocity": 1,
        "hand": "left"
      },
      {
        "midi": 34,
        "time": 70.781,
        "duration": 0.067,
        "velocity": 1,
        "hand": "left"
      },
      {
        "midi": 46,
        "time": 70.781,
        "duration": 0.067,
        "velocity": 1,
        "hand": "left"
      },
      {
        "midi": 32,
        "time": 70.915,
        "duration": 0.067,
        "velocity": 1,
        "hand": "left"
      },
      {
        "midi": 44,
        "time": 70.915,
        "duration": 0.067,
        "velocity": 1,
        "hand": "left"
      },
      {
        "midi": 45,
        "time": 70.982,
        "duration": 0.067,
        "velocity": 1,
        "hand": "left"
      },
      {
        "midi": 37,
        "time": 71.049,
        "duration": 0.067,
        "velocity": 1,
        "hand": "left"
      },
      {
        "midi": 49,
        "time": 71.049,
        "duration": 0.067,
        "velocity": 1,
        "hand": "left"
      },
      {
        "midi": 33,
        "time": 71.183,
        "duration": 0.067,
        "velocity": 1,
        "hand": "left"
      },
      {
        "midi": 45,
        "time": 71.183,
        "duration": 0.067,
        "velocity": 1,
        "hand": "left"
      },
      {
        "midi": 46,
        "time": 71.25,
        "duration": 0.067,
        "velocity": 1,
        "hand": "left"
      },
      {
        "midi": 39,
        "time": 71.317,
        "duration": 0.067,
        "velocity": 1,
        "hand": "left"
      },
      {
        "midi": 51,
        "time": 71.317,
        "duration": 0.067,
        "velocity": 1,
        "hand": "left"
      },
      {
        "midi": 35,
        "time": 71.451,
        "duration": 0.067,
        "velocity": 1,
        "hand": "left"
      },
      {
        "midi": 47,
        "time": 71.451,
        "duration": 0.067,
        "velocity": 1,
        "hand": "left"
      },
      {
        "midi": 48,
        "time": 71.518,
        "duration": 0.067,
        "velocity": 1,
        "hand": "left"
      },
      {
        "midi": 41,
        "time": 71.585,
        "duration": 0.067,
        "velocity": 1,
        "hand": "left"
      },
      {
        "midi": 53,
        "time": 71.585,
        "duration": 0.067,
        "velocity": 1,
        "hand": "left"
      },
      {
        "midi": 36,
        "time": 71.719,
        "duration": 0.067,
        "velocity": 1,
        "hand": "left"
      },
      {
        "midi": 48,
        "time": 71.719,
        "duration": 0.067,
        "velocity": 1,
        "hand": "left"
      },
      {
        "midi": 49,
        "time": 71.786,
        "duration": 0.067,
        "velocity": 1,
        "hand": "left"
      },
      {
        "midi": 42,
        "time": 71.853,
        "duration": 0.067,
        "velocity": 1,
        "hand": "left"
      },
      {
        "midi": 54,
        "time": 71.853,
        "duration": 0.067,
        "velocity": 1,
        "hand": "left"
      },
      {
        "midi": 38,
        "time": 71.987,
        "duration": 0.067,
        "velocity": 1,
        "hand": "left"
      },
      {
        "midi": 50,
        "time": 71.987,
        "duration": 0.067,
        "velocity": 1,
        "hand": "left"
      },
      {
        "midi": 51,
        "time": 72.054,
        "duration": 0.067,
        "velocity": 1,
        "hand": "left"
      },
      {
        "midi": 45,
        "time": 72.121,
        "duration": 0.067,
        "velocity": 1,
        "hand": "left"
      },
      {
        "midi": 57,
        "time": 72.121,
        "duration": 0.067,
        "velocity": 1,
        "hand": "left"
      },
      {
        "midi": 41,
        "time": 72.254,
        "duration": 0.067,
        "velocity": 1,
        "hand": "left"
      },
      {
        "midi": 53,
        "time": 72.254,
        "duration": 0.067,
        "velocity": 1,
        "hand": "left"
      },
      {
        "midi": 54,
        "time": 72.321,
        "duration": 0.067,
        "velocity": 1,
        "hand": "left"
      },
      {
        "midi": 49,
        "time": 72.388,
        "duration": 0.067,
        "velocity": 1,
        "hand": "left"
      },
      {
        "midi": 61,
        "time": 72.388,
        "duration": 0.067,
        "velocity": 1,
        "hand": "right"
      },
      {
        "midi": 45,
        "time": 72.522,
        "duration": 0.067,
        "velocity": 1,
        "hand": "left"
      },
      {
        "midi": 57,
        "time": 72.522,
        "duration": 0.067,
        "velocity": 1,
        "hand": "left"
      },
      {
        "midi": 60,
        "time": 72.589,
        "duration": 0.067,
        "velocity": 1,
        "hand": "right"
      },
      {
        "midi": 54,
        "time": 72.656,
        "duration": 0.067,
        "velocity": 1,
        "hand": "left"
      },
      {
        "midi": 66,
        "time": 72.656,
        "duration": 0.067,
        "velocity": 1,
        "hand": "right"
      },
      {
        "midi": 45,
        "time": 72.857,
        "duration": 0.067,
        "velocity": 1,
        "hand": "left"
      },
      {
        "midi": 57,
        "time": 72.857,
        "duration": 0.067,
        "velocity": 1,
        "hand": "left"
      },
      {
        "midi": 65,
        "time": 72.79,
        "duration": 0.067,
        "velocity": 1,
        "hand": "right"
      },
      {
        "midi": 49,
        "time": 72.924,
        "duration": 0.067,
        "velocity": 1,
        "hand": "left"
      },
      {
        "midi": 61,
        "time": 72.924,
        "duration": 0.067,
        "velocity": 1,
        "hand": "right"
      },
      {
        "midi": 45,
        "time": 73.058,
        "duration": 0.067,
        "velocity": 1,
        "hand": "left"
      },
      {
        "midi": 57,
        "time": 73.058,
        "duration": 0.067,
        "velocity": 1,
        "hand": "left"
      },
      {
        "midi": 60,
        "time": 73.125,
        "duration": 0.067,
        "velocity": 1,
        "hand": "right"
      },
      {
        "midi": 54,
        "time": 73.192,
        "duration": 0.067,
        "velocity": 1,
        "hand": "left"
      },
      {
        "midi": 66,
        "time": 73.192,
        "duration": 0.067,
        "velocity": 1,
        "hand": "right"
      },
      {
        "midi": 45,
        "time": 73.393,
        "duration": 0.067,
        "velocity": 1,
        "hand": "left"
      },
      {
        "midi": 57,
        "time": 73.393,
        "duration": 0.067,
        "velocity": 1,
        "hand": "left"
      },
      {
        "midi": 65,
        "time": 73.326,
        "duration": 0.067,
        "velocity": 1,
        "hand": "right"
      },
      {
        "midi": 49,
        "time": 73.46,
        "duration": 0.067,
        "velocity": 1,
        "hand": "left"
      },
      {
        "midi": 61,
        "time": 73.46,
        "duration": 0.067,
        "velocity": 1,
        "hand": "right"
      },
      {
        "midi": 45,
        "time": 73.594,
        "duration": 0.067,
        "velocity": 1,
        "hand": "left"
      },
      {
        "midi": 57,
        "time": 73.594,
        "duration": 0.067,
        "velocity": 1,
        "hand": "left"
      },
      {
        "midi": 60,
        "time": 73.661,
        "duration": 0.067,
        "velocity": 1,
        "hand": "right"
      },
      {
        "midi": 54,
        "time": 73.728,
        "duration": 0.067,
        "velocity": 1,
        "hand": "left"
      },
      {
        "midi": 66,
        "time": 73.728,
        "duration": 0.067,
        "velocity": 1,
        "hand": "right"
      },
      {
        "midi": 48,
        "time": 73.929,
        "duration": 0.067,
        "velocity": 1,
        "hand": "left"
      },
      {
        "midi": 60,
        "time": 73.929,
        "duration": 0.067,
        "velocity": 1,
        "hand": "right"
      },
      {
        "midi": 65,
        "time": 73.862,
        "duration": 0.067,
        "velocity": 1,
        "hand": "right"
      },
      {
        "midi": 54,
        "time": 73.996,
        "duration": 0.067,
        "velocity": 1,
        "hand": "left"
      },
      {
        "midi": 66,
        "time": 73.996,
        "duration": 0.067,
        "velocity": 1,
        "hand": "right"
      },
      {
        "midi": 48,
        "time": 74.196,
        "duration": 0.067,
        "velocity": 1,
        "hand": "left"
      },
      {
        "midi": 60,
        "time": 74.196,
        "duration": 0.067,
        "velocity": 1,
        "hand": "right"
      },
      {
        "midi": 65,
        "time": 74.129,
        "duration": 0.067,
        "velocity": 1,
        "hand": "right"
      },
      {
        "midi": 54,
        "time": 74.263,
        "duration": 0.067,
        "velocity": 1,
        "hand": "left"
      },
      {
        "midi": 66,
        "time": 74.263,
        "duration": 0.067,
        "velocity": 1,
        "hand": "right"
      },
      {
        "midi": 48,
        "time": 74.464,
        "duration": 0.067,
        "velocity": 1,
        "hand": "left"
      },
      {
        "midi": 60,
        "time": 74.464,
        "duration": 0.067,
        "velocity": 1,
        "hand": "right"
      },
      {
        "midi": 65,
        "time": 74.397,
        "duration": 0.067,
        "velocity": 1,
        "hand": "right"
      },
      {
        "midi": 54,
        "time": 74.531,
        "duration": 0.067,
        "velocity": 1,
        "hand": "left"
      },
      {
        "midi": 66,
        "time": 74.531,
        "duration": 0.067,
        "velocity": 1,
        "hand": "right"
      },
      {
        "midi": 46,
        "time": 74.732,
        "duration": 0.067,
        "velocity": 1,
        "hand": "left"
      },
      {
        "midi": 58,
        "time": 74.732,
        "duration": 0.067,
        "velocity": 1,
        "hand": "left"
      },
      {
        "midi": 65,
        "time": 74.665,
        "duration": 0.067,
        "velocity": 1,
        "hand": "right"
      },
      {
        "midi": 54,
        "time": 74.799,
        "duration": 0.067,
        "velocity": 1,
        "hand": "left"
      },
      {
        "midi": 66,
        "time": 74.799,
        "duration": 0.067,
        "velocity": 1,
        "hand": "right"
      },
      {
        "midi": 49,
        "time": 75,
        "duration": 0.067,
        "velocity": 1,
        "hand": "left"
      },
      {
        "midi": 61,
        "time": 75,
        "duration": 0.067,
        "velocity": 1,
        "hand": "right"
      },
      {
        "midi": 65,
        "time": 74.933,
        "duration": 0.067,
        "velocity": 1,
        "hand": "right"
      },
      {
        "midi": 41,
        "time": 75.067,
        "duration": 0.067,
        "velocity": 1,
        "hand": "left"
      },
      {
        "midi": 53,
        "time": 75.067,
        "duration": 0.067,
        "velocity": 1,
        "hand": "left"
      },
      {
        "midi": 51,
        "time": 75.201,
        "duration": 0.067,
        "velocity": 1,
        "hand": "left"
      },
      {
        "midi": 63,
        "time": 75.201,
        "duration": 0.067,
        "velocity": 1,
        "hand": "right"
      },
      {
        "midi": 65,
        "time": 75.268,
        "duration": 0.067,
        "velocity": 1,
        "hand": "right"
      },
      {
        "midi": 51,
        "time": 75.335,
        "duration": 0.067,
        "velocity": 1,
        "hand": "left"
      },
      {
        "midi": 63,
        "time": 75.335,
        "duration": 0.067,
        "velocity": 1,
        "hand": "right"
      },
      {
        "midi": 46,
        "time": 75.536,
        "duration": 0.067,
        "velocity": 1,
        "hand": "left"
      },
      {
        "midi": 58,
        "time": 75.536,
        "duration": 0.067,
        "velocity": 1,
        "hand": "left"
      },
      {
        "midi": 61,
        "time": 75.469,
        "duration": 0.067,
        "velocity": 1,
        "hand": "right"
      },
      {
        "midi": 41,
        "time": 75.603,
        "duration": 0.067,
        "velocity": 1,
        "hand": "left"
      },
      {
        "midi": 53,
        "time": 75.603,
        "duration": 0.067,
        "velocity": 1,
        "hand": "left"
      },
      {
        "midi": 48,
        "time": 75.737,
        "duration": 0.067,
        "velocity": 1,
        "hand": "left"
      },
      {
        "midi": 60,
        "time": 75.737,
        "duration": 0.067,
        "velocity": 1,
        "hand": "right"
      },
      {
        "midi": 61,
        "time": 75.804,
        "duration": 0.067,
        "velocity": 1,
        "hand": "right"
      },
      {
        "midi": 48,
        "time": 75.871,
        "duration": 0.067,
        "velocity": 1,
        "hand": "left"
      },
      {
        "midi": 60,
        "time": 75.871,
        "duration": 0.067,
        "velocity": 1,
        "hand": "right"
      },
      {
        "midi": 46,
        "time": 76.004,
        "duration": 0.067,
        "velocity": 1,
        "hand": "left"
      },
      {
        "midi": 58,
        "time": 76.004,
        "duration": 0.067,
        "velocity": 1,
        "hand": "left"
      },
      {
        "midi": 61,
        "time": 76.071,
        "duration": 0.067,
        "velocity": 1,
        "hand": "right"
      },
      {
        "midi": 41,
        "time": 76.138,
        "duration": 0.067,
        "velocity": 1,
        "hand": "left"
      },
      {
        "midi": 53,
        "time": 76.138,
        "duration": 0.067,
        "velocity": 1,
        "hand": "left"
      },
      {
        "midi": 51,
        "time": 76.272,
        "duration": 0.067,
        "velocity": 1,
        "hand": "left"
      },
      {
        "midi": 63,
        "time": 76.272,
        "duration": 0.067,
        "velocity": 1,
        "hand": "right"
      },
      {
        "midi": 65,
        "time": 76.339,
        "duration": 0.067,
        "velocity": 1,
        "hand": "right"
      },
      {
        "midi": 51,
        "time": 76.406,
        "duration": 0.067,
        "velocity": 1,
        "hand": "left"
      },
      {
        "midi": 63,
        "time": 76.406,
        "duration": 0.067,
        "velocity": 1,
        "hand": "right"
      },
      {
        "midi": 46,
        "time": 76.607,
        "duration": 0.067,
        "velocity": 1,
        "hand": "left"
      },
      {
        "midi": 58,
        "time": 76.607,
        "duration": 0.067,
        "velocity": 1,
        "hand": "left"
      },
      {
        "midi": 61,
        "time": 76.54,
        "duration": 0.067,
        "velocity": 1,
        "hand": "right"
      },
      {
        "midi": 41,
        "time": 76.674,
        "duration": 0.067,
        "velocity": 1,
        "hand": "left"
      },
      {
        "midi": 53,
        "time": 76.674,
        "duration": 0.067,
        "velocity": 1,
        "hand": "left"
      },
      {
        "midi": 48,
        "time": 76.808,
        "duration": 0.067,
        "velocity": 1,
        "hand": "left"
      },
      {
        "midi": 60,
        "time": 76.808,
        "duration": 0.067,
        "velocity": 1,
        "hand": "right"
      },
      {
        "midi": 61,
        "time": 76.875,
        "duration": 0.067,
        "velocity": 1,
        "hand": "right"
      },
      {
        "midi": 48,
        "time": 76.942,
        "duration": 0.067,
        "velocity": 1,
        "hand": "left"
      },
      {
        "midi": 60,
        "time": 76.942,
        "duration": 0.067,
        "velocity": 1,
        "hand": "right"
      },
      {
        "midi": 39,
        "time": 77.143,
        "duration": 0.067,
        "velocity": 1,
        "hand": "left"
      },
      {
        "midi": 51,
        "time": 77.143,
        "duration": 0.067,
        "velocity": 1,
        "hand": "left"
      },
      {
        "midi": 58,
        "time": 77.076,
        "duration": 0.067,
        "velocity": 1,
        "hand": "left"
      },
      {
        "midi": 41,
        "time": 77.21,
        "duration": 0.067,
        "velocity": 1,
        "hand": "left"
      },
      {
        "midi": 53,
        "time": 77.21,
        "duration": 0.067,
        "velocity": 1,
        "hand": "left"
      },
      {
        "midi": 46,
        "time": 77.344,
        "duration": 0.067,
        "velocity": 1,
        "hand": "left"
      },
      {
        "midi": 58,
        "time": 77.344,
        "duration": 0.067,
        "velocity": 1,
        "hand": "left"
      },
      {
        "midi": 61,
        "time": 77.411,
        "duration": 0.067,
        "velocity": 1,
        "hand": "right"
      },
      {
        "midi": 37,
        "time": 77.478,
        "duration": 0.067,
        "velocity": 1,
        "hand": "left"
      },
      {
        "midi": 49,
        "time": 77.478,
        "duration": 0.067,
        "velocity": 1,
        "hand": "left"
      },
      {
        "midi": 39,
        "time": 77.679,
        "duration": 0.067,
        "velocity": 1,
        "hand": "left"
      },
      {
        "midi": 51,
        "time": 77.679,
        "duration": 0.067,
        "velocity": 1,
        "hand": "left"
      },
      {
        "midi": 53,
        "time": 77.612,
        "duration": 0.067,
        "velocity": 1,
        "hand": "left"
      },
      {
        "midi": 41,
        "time": 77.746,
        "duration": 0.067,
        "velocity": 1,
        "hand": "left"
      },
      {
        "midi": 53,
        "time": 77.746,
        "duration": 0.067,
        "velocity": 1,
        "hand": "left"
      },
      {
        "midi": 46,
        "time": 77.879,
        "duration": 0.067,
        "velocity": 1,
        "hand": "left"
      },
      {
        "midi": 58,
        "time": 77.879,
        "duration": 0.067,
        "velocity": 1,
        "hand": "left"
      },
      {
        "midi": 61,
        "time": 77.946,
        "duration": 0.067,
        "velocity": 1,
        "hand": "right"
      },
      {
        "midi": 37,
        "time": 78.013,
        "duration": 0.067,
        "velocity": 1,
        "hand": "left"
      },
      {
        "midi": 49,
        "time": 78.013,
        "duration": 0.067,
        "velocity": 1,
        "hand": "left"
      },
      {
        "midi": 36,
        "time": 78.214,
        "duration": 0.067,
        "velocity": 1,
        "hand": "left"
      },
      {
        "midi": 48,
        "time": 78.214,
        "duration": 0.067,
        "velocity": 1,
        "hand": "left"
      },
      {
        "midi": 53,
        "time": 78.147,
        "duration": 0.067,
        "velocity": 1,
        "hand": "left"
      },
      {
        "midi": 37,
        "time": 78.281,
        "duration": 0.067,
        "velocity": 1,
        "hand": "left"
      },
      {
        "midi": 49,
        "time": 78.281,
        "duration": 0.067,
        "velocity": 1,
        "hand": "left"
      },
      {
        "midi": 41,
        "time": 78.415,
        "duration": 0.067,
        "velocity": 1,
        "hand": "left"
      },
      {
        "midi": 53,
        "time": 78.415,
        "duration": 0.067,
        "velocity": 1,
        "hand": "left"
      },
      {
        "midi": 58,
        "time": 78.482,
        "duration": 0.067,
        "velocity": 1,
        "hand": "left"
      },
      {
        "midi": 34,
        "time": 78.549,
        "duration": 0.067,
        "velocity": 1,
        "hand": "left"
      },
      {
        "midi": 46,
        "time": 78.549,
        "duration": 0.067,
        "velocity": 1,
        "hand": "left"
      },
      {
        "midi": 36,
        "time": 78.75,
        "duration": 0.067,
        "velocity": 1,
        "hand": "left"
      },
      {
        "midi": 48,
        "time": 78.75,
        "duration": 0.067,
        "velocity": 1,
        "hand": "left"
      },
      {
        "midi": 49,
        "time": 78.683,
        "duration": 0.067,
        "velocity": 1,
        "hand": "left"
      },
      {
        "midi": 37,
        "time": 78.817,
        "duration": 0.067,
        "velocity": 1,
        "hand": "left"
      },
      {
        "midi": 49,
        "time": 78.817,
        "duration": 0.067,
        "velocity": 1,
        "hand": "left"
      },
      {
        "midi": 41,
        "time": 78.951,
        "duration": 0.067,
        "velocity": 1,
        "hand": "left"
      },
      {
        "midi": 53,
        "time": 78.951,
        "duration": 0.067,
        "velocity": 1,
        "hand": "left"
      },
      {
        "midi": 58,
        "time": 79.018,
        "duration": 0.067,
        "velocity": 1,
        "hand": "left"
      },
      {
        "midi": 34,
        "time": 79.085,
        "duration": 0.067,
        "velocity": 1,
        "hand": "left"
      },
      {
        "midi": 46,
        "time": 79.085,
        "duration": 0.067,
        "velocity": 1,
        "hand": "left"
      },
      {
        "midi": 37,
        "time": 79.219,
        "duration": 0.067,
        "velocity": 1,
        "hand": "left"
      },
      {
        "midi": 49,
        "time": 79.219,
        "duration": 0.067,
        "velocity": 1,
        "hand": "left"
      },
      {
        "midi": 36,
        "time": 79.821,
        "duration": 0.067,
        "velocity": 1,
        "hand": "left"
      },
      {
        "midi": 48,
        "time": 79.821,
        "duration": 0.067,
        "velocity": 1,
        "hand": "left"
      },
      {
        "midi": 49,
        "time": 79.888,
        "duration": 0.067,
        "velocity": 1,
        "hand": "left"
      },
      {
        "midi": 41,
        "time": 80.022,
        "duration": 0.067,
        "velocity": 1,
        "hand": "left"
      },
      {
        "midi": 53,
        "time": 80.022,
        "duration": 0.067,
        "velocity": 1,
        "hand": "left"
      },
      {
        "midi": 58,
        "time": 80.089,
        "duration": 0.067,
        "velocity": 1,
        "hand": "left"
      },
      {
        "midi": 34,
        "time": 80.156,
        "duration": 0.067,
        "velocity": 1,
        "hand": "left"
      },
      {
        "midi": 46,
        "time": 80.156,
        "duration": 0.067,
        "velocity": 1,
        "hand": "left"
      },
      {
        "midi": 37,
        "time": 80.29,
        "duration": 0.067,
        "velocity": 1,
        "hand": "left"
      },
      {
        "midi": 49,
        "time": 80.29,
        "duration": 0.067,
        "velocity": 1,
        "hand": "left"
      },
      {
        "midi": 36,
        "time": 80.893,
        "duration": 0.067,
        "velocity": 1,
        "hand": "left"
      },
      {
        "midi": 48,
        "time": 80.893,
        "duration": 0.067,
        "velocity": 1,
        "hand": "left"
      },
      {
        "midi": 49,
        "time": 80.96,
        "duration": 0.067,
        "velocity": 1,
        "hand": "left"
      },
      {
        "midi": 41,
        "time": 81.094,
        "duration": 0.067,
        "velocity": 1,
        "hand": "left"
      },
      {
        "midi": 53,
        "time": 81.094,
        "duration": 0.067,
        "velocity": 1,
        "hand": "left"
      },
      {
        "midi": 58,
        "time": 81.161,
        "duration": 0.067,
        "velocity": 1,
        "hand": "left"
      },
      {
        "midi": 34,
        "time": 81.228,
        "duration": 0.067,
        "velocity": 1,
        "hand": "left"
      },
      {
        "midi": 46,
        "time": 81.228,
        "duration": 0.067,
        "velocity": 1,
        "hand": "left"
      },
      {
        "midi": 34,
        "time": 81.429,
        "duration": 0.268,
        "velocity": 1,
        "hand": "left"
      },
      {
        "midi": 46,
        "time": 81.429,
        "duration": 0.268,
        "velocity": 1,
        "hand": "left"
      },
      {
        "midi": 49,
        "time": 81.362,
        "duration": 0.067,
        "velocity": 1,
        "hand": "left"
      },
      {
        "midi": 53,
        "time": 81.964,
        "duration": 0.536,
        "velocity": 1,
        "hand": "left"
      },
      {
        "midi": 65,
        "time": 81.964,
        "duration": 0.536,
        "velocity": 1,
        "hand": "right"
      },
      {
        "midi": 94,
        "time": 81.964,
        "duration": 0.536,
        "velocity": 1,
        "hand": "right"
      }
    ],
    "hard": [
      {
        "midi": 41,
        "time": 0,
        "duration": 0.067,
        "velocity": 1,
        "hand": "left"
      },
      {
        "midi": 53,
        "time": 0,
        "duration": 0.067,
        "velocity": 1,
        "hand": "left"
      },
      {
        "midi": 43,
        "time": 0.067,
        "duration": 0.067,
        "velocity": 1,
        "hand": "left"
      },
      {
        "midi": 55,
        "time": 0.067,
        "duration": 0.067,
        "velocity": 1,
        "hand": "left"
      },
      {
        "midi": 46,
        "time": 0.201,
        "duration": 0.067,
        "velocity": 1,
        "hand": "left"
      },
      {
        "midi": 58,
        "time": 0.201,
        "duration": 0.067,
        "velocity": 1,
        "hand": "left"
      },
      {
        "midi": 49,
        "time": 0.268,
        "duration": 0.067,
        "velocity": 1,
        "hand": "left"
      },
      {
        "midi": 61,
        "time": 0.268,
        "duration": 0.067,
        "velocity": 1,
        "hand": "right"
      },
      {
        "midi": 40,
        "time": 0.335,
        "duration": 0.067,
        "velocity": 1,
        "hand": "left"
      },
      {
        "midi": 52,
        "time": 0.335,
        "duration": 0.067,
        "velocity": 1,
        "hand": "left"
      },
      {
        "midi": 43,
        "time": 0.469,
        "duration": 0.067,
        "velocity": 1,
        "hand": "left"
      },
      {
        "midi": 55,
        "time": 0.469,
        "duration": 0.067,
        "velocity": 1,
        "hand": "left"
      },
      {
        "midi": 41,
        "time": 0.536,
        "duration": 0.067,
        "velocity": 1,
        "hand": "left"
      },
      {
        "midi": 53,
        "time": 0.536,
        "duration": 0.067,
        "velocity": 1,
        "hand": "left"
      },
      {
        "midi": 43,
        "time": 0.603,
        "duration": 0.067,
        "velocity": 1,
        "hand": "left"
      },
      {
        "midi": 55,
        "time": 0.603,
        "duration": 0.067,
        "velocity": 1,
        "hand": "left"
      },
      {
        "midi": 46,
        "time": 0.737,
        "duration": 0.067,
        "velocity": 1,
        "hand": "left"
      },
      {
        "midi": 58,
        "time": 0.737,
        "duration": 0.067,
        "velocity": 1,
        "hand": "left"
      },
      {
        "midi": 49,
        "time": 0.804,
        "duration": 0.067,
        "velocity": 1,
        "hand": "left"
      },
      {
        "midi": 61,
        "time": 0.804,
        "duration": 0.067,
        "velocity": 1,
        "hand": "right"
      },
      {
        "midi": 40,
        "time": 0.871,
        "duration": 0.067,
        "velocity": 1,
        "hand": "left"
      },
      {
        "midi": 52,
        "time": 0.871,
        "duration": 0.067,
        "velocity": 1,
        "hand": "left"
      },
      {
        "midi": 43,
        "time": 1.004,
        "duration": 0.067,
        "velocity": 1,
        "hand": "left"
      },
      {
        "midi": 55,
        "time": 1.004,
        "duration": 0.067,
        "velocity": 1,
        "hand": "left"
      },
      {
        "midi": 43,
        "time": 1.071,
        "duration": 0.067,
        "velocity": 1,
        "hand": "left"
      },
      {
        "midi": 55,
        "time": 1.071,
        "duration": 0.067,
        "velocity": 1,
        "hand": "left"
      },
      {
        "midi": 45,
        "time": 1.138,
        "duration": 0.067,
        "velocity": 1,
        "hand": "left"
      },
      {
        "midi": 57,
        "time": 1.138,
        "duration": 0.067,
        "velocity": 1,
        "hand": "left"
      },
      {
        "midi": 48,
        "time": 1.272,
        "duration": 0.067,
        "velocity": 1,
        "hand": "left"
      },
      {
        "midi": 60,
        "time": 1.272,
        "duration": 0.067,
        "velocity": 1,
        "hand": "right"
      },
      {
        "midi": 51,
        "time": 1.339,
        "duration": 0.067,
        "velocity": 1,
        "hand": "left"
      },
      {
        "midi": 63,
        "time": 1.339,
        "duration": 0.067,
        "velocity": 1,
        "hand": "right"
      },
      {
        "midi": 42,
        "time": 1.406,
        "duration": 0.067,
        "velocity": 1,
        "hand": "left"
      },
      {
        "midi": 54,
        "time": 1.406,
        "duration": 0.067,
        "velocity": 1,
        "hand": "left"
      },
      {
        "midi": 45,
        "time": 1.54,
        "duration": 0.067,
        "velocity": 1,
        "hand": "left"
      },
      {
        "midi": 57,
        "time": 1.54,
        "duration": 0.067,
        "velocity": 1,
        "hand": "left"
      },
      {
        "midi": 43,
        "time": 1.607,
        "duration": 0.067,
        "velocity": 1,
        "hand": "left"
      },
      {
        "midi": 55,
        "time": 1.607,
        "duration": 0.067,
        "velocity": 1,
        "hand": "left"
      },
      {
        "midi": 45,
        "time": 1.674,
        "duration": 0.067,
        "velocity": 1,
        "hand": "left"
      },
      {
        "midi": 57,
        "time": 1.674,
        "duration": 0.067,
        "velocity": 1,
        "hand": "left"
      },
      {
        "midi": 48,
        "time": 1.808,
        "duration": 0.067,
        "velocity": 1,
        "hand": "left"
      },
      {
        "midi": 60,
        "time": 1.808,
        "duration": 0.067,
        "velocity": 1,
        "hand": "right"
      },
      {
        "midi": 51,
        "time": 1.875,
        "duration": 0.067,
        "velocity": 1,
        "hand": "left"
      },
      {
        "midi": 63,
        "time": 1.875,
        "duration": 0.067,
        "velocity": 1,
        "hand": "right"
      },
      {
        "midi": 42,
        "time": 1.942,
        "duration": 0.067,
        "velocity": 1,
        "hand": "left"
      },
      {
        "midi": 54,
        "time": 1.942,
        "duration": 0.067,
        "velocity": 1,
        "hand": "left"
      },
      {
        "midi": 45,
        "time": 2.076,
        "duration": 0.067,
        "velocity": 1,
        "hand": "left"
      },
      {
        "midi": 57,
        "time": 2.076,
        "duration": 0.067,
        "velocity": 1,
        "hand": "left"
      },
      {
        "midi": 46,
        "time": 2.143,
        "duration": 0.067,
        "velocity": 1,
        "hand": "left"
      },
      {
        "midi": 58,
        "time": 2.143,
        "duration": 0.067,
        "velocity": 1,
        "hand": "left"
      },
      {
        "midi": 48,
        "time": 2.21,
        "duration": 0.067,
        "velocity": 1,
        "hand": "left"
      },
      {
        "midi": 60,
        "time": 2.21,
        "duration": 0.067,
        "velocity": 1,
        "hand": "right"
      },
      {
        "midi": 51,
        "time": 2.344,
        "duration": 0.067,
        "velocity": 1,
        "hand": "left"
      },
      {
        "midi": 63,
        "time": 2.344,
        "duration": 0.067,
        "velocity": 1,
        "hand": "right"
      },
      {
        "midi": 54,
        "time": 2.411,
        "duration": 0.067,
        "velocity": 1,
        "hand": "left"
      },
      {
        "midi": 66,
        "time": 2.411,
        "duration": 0.067,
        "velocity": 1,
        "hand": "right"
      },
      {
        "midi": 45,
        "time": 2.478,
        "duration": 0.067,
        "velocity": 1,
        "hand": "left"
      },
      {
        "midi": 57,
        "time": 2.478,
        "duration": 0.067,
        "velocity": 1,
        "hand": "left"
      },
      {
        "midi": 48,
        "time": 2.612,
        "duration": 0.067,
        "velocity": 1,
        "hand": "left"
      },
      {
        "midi": 60,
        "time": 2.612,
        "duration": 0.067,
        "velocity": 1,
        "hand": "right"
      },
      {
        "midi": 49,
        "time": 2.679,
        "duration": 0.067,
        "velocity": 1,
        "hand": "left"
      },
      {
        "midi": 61,
        "time": 2.679,
        "duration": 0.067,
        "velocity": 1,
        "hand": "right"
      },
      {
        "midi": 51,
        "time": 2.746,
        "duration": 0.067,
        "velocity": 1,
        "hand": "left"
      },
      {
        "midi": 63,
        "time": 2.746,
        "duration": 0.067,
        "velocity": 1,
        "hand": "right"
      },
      {
        "midi": 54,
        "time": 2.879,
        "duration": 0.067,
        "velocity": 1,
        "hand": "left"
      },
      {
        "midi": 66,
        "time": 2.879,
        "duration": 0.067,
        "velocity": 1,
        "hand": "right"
      },
      {
        "midi": 57,
        "time": 2.946,
        "duration": 0.067,
        "velocity": 1,
        "hand": "left"
      },
      {
        "midi": 69,
        "time": 2.946,
        "duration": 0.067,
        "velocity": 1,
        "hand": "right"
      },
      {
        "midi": 48,
        "time": 3.013,
        "duration": 0.067,
        "velocity": 1,
        "hand": "left"
      },
      {
        "midi": 60,
        "time": 3.013,
        "duration": 0.067,
        "velocity": 1,
        "hand": "right"
      },
      {
        "midi": 51,
        "time": 3.147,
        "duration": 0.067,
        "velocity": 1,
        "hand": "left"
      },
      {
        "midi": 63,
        "time": 3.147,
        "duration": 0.067,
        "velocity": 1,
        "hand": "right"
      },
      {
        "midi": 49,
        "time": 3.214,
        "duration": 0.067,
        "velocity": 1,
        "hand": "left"
      },
      {
        "midi": 61,
        "time": 3.214,
        "duration": 0.067,
        "velocity": 1,
        "hand": "right"
      },
      {
        "midi": 51,
        "time": 3.281,
        "duration": 0.067,
        "velocity": 1,
        "hand": "left"
      },
      {
        "midi": 63,
        "time": 3.281,
        "duration": 0.067,
        "velocity": 1,
        "hand": "right"
      },
      {
        "midi": 54,
        "time": 3.415,
        "duration": 0.067,
        "velocity": 1,
        "hand": "left"
      },
      {
        "midi": 66,
        "time": 3.415,
        "duration": 0.067,
        "velocity": 1,
        "hand": "right"
      },
      {
        "midi": 57,
        "time": 3.482,
        "duration": 0.067,
        "velocity": 1,
        "hand": "left"
      },
      {
        "midi": 69,
        "time": 3.482,
        "duration": 0.067,
        "velocity": 1,
        "hand": "right"
      },
      {
        "midi": 48,
        "time": 3.549,
        "duration": 0.067,
        "velocity": 1,
        "hand": "left"
      },
      {
        "midi": 60,
        "time": 3.549,
        "duration": 0.067,
        "velocity": 1,
        "hand": "right"
      },
      {
        "midi": 51,
        "time": 3.683,
        "duration": 0.067,
        "velocity": 1,
        "hand": "left"
      },
      {
        "midi": 63,
        "time": 3.683,
        "duration": 0.067,
        "velocity": 1,
        "hand": "right"
      },
      {
        "midi": 54,
        "time": 3.75,
        "duration": 0.067,
        "velocity": 1,
        "hand": "left"
      },
      {
        "midi": 66,
        "time": 3.75,
        "duration": 0.067,
        "velocity": 1,
        "hand": "right"
      },
      {
        "midi": 58,
        "time": 3.817,
        "duration": 0.067,
        "velocity": 1,
        "hand": "left"
      },
      {
        "midi": 70,
        "time": 3.817,
        "duration": 0.067,
        "velocity": 1,
        "hand": "right"
      },
      {
        "midi": 60,
        "time": 3.951,
        "duration": 0.067,
        "velocity": 1,
        "hand": "right"
      },
      {
        "midi": 72,
        "time": 3.951,
        "duration": 0.067,
        "velocity": 1,
        "hand": "right"
      },
      {
        "midi": 63,
        "time": 4.018,
        "duration": 0.067,
        "velocity": 1,
        "hand": "right"
      },
      {
        "midi": 75,
        "time": 4.018,
        "duration": 0.067,
        "velocity": 1,
        "hand": "right"
      },
      {
        "midi": 53,
        "time": 4.085,
        "duration": 0.067,
        "velocity": 1,
        "hand": "left"
      },
      {
        "midi": 65,
        "time": 4.085,
        "duration": 0.067,
        "velocity": 1,
        "hand": "right"
      },
      {
        "midi": 57,
        "time": 4.219,
        "duration": 0.067,
        "velocity": 1,
        "hand": "left"
      },
      {
        "midi": 69,
        "time": 4.219,
        "duration": 0.067,
        "velocity": 1,
        "hand": "right"
      },
      {
        "midi": 58,
        "time": 4.286,
        "duration": 0.067,
        "velocity": 1,
        "hand": "left"
      },
      {
        "midi": 70,
        "time": 4.286,
        "duration": 0.067,
        "velocity": 1,
        "hand": "right"
      },
      {
        "midi": 61,
        "time": 4.353,
        "duration": 0.067,
        "velocity": 1,
        "hand": "right"
      },
      {
        "midi": 73,
        "time": 4.353,
        "duration": 0.067,
        "velocity": 1,
        "hand": "right"
      },
      {
        "midi": 66,
        "time": 4.487,
        "duration": 0.067,
        "velocity": 1,
        "hand": "right"
      },
      {
        "midi": 78,
        "time": 4.487,
        "duration": 0.067,
        "velocity": 1,
        "hand": "right"
      },
      {
        "midi": 65,
        "time": 4.554,
        "duration": 0.067,
        "velocity": 1,
        "hand": "right"
      },
      {
        "midi": 77,
        "time": 4.554,
        "duration": 0.067,
        "velocity": 1,
        "hand": "right"
      },
      {
        "midi": 60,
        "time": 4.621,
        "duration": 0.067,
        "velocity": 1,
        "hand": "right"
      },
      {
        "midi": 72,
        "time": 4.621,
        "duration": 0.067,
        "velocity": 1,
        "hand": "right"
      },
      {
        "midi": 61,
        "time": 4.754,
        "duration": 0.067,
        "velocity": 1,
        "hand": "right"
      },
      {
        "midi": 73,
        "time": 4.754,
        "duration": 0.067,
        "velocity": 1,
        "hand": "right"
      },
      {
        "midi": 64,
        "time": 4.821,
        "duration": 0.067,
        "velocity": 1,
        "hand": "right"
      },
      {
        "midi": 76,
        "time": 4.821,
        "duration": 0.067,
        "velocity": 1,
        "hand": "right"
      },
      {
        "midi": 60,
        "time": 4.888,
        "duration": 0.067,
        "velocity": 1,
        "hand": "right"
      },
      {
        "midi": 72,
        "time": 4.888,
        "duration": 0.067,
        "velocity": 1,
        "hand": "right"
      },
      {
        "midi": 61,
        "time": 5.022,
        "duration": 0.067,
        "velocity": 1,
        "hand": "right"
      },
      {
        "midi": 73,
        "time": 5.022,
        "duration": 0.067,
        "velocity": 1,
        "hand": "right"
      },
      {
        "midi": 57,
        "time": 5.089,
        "duration": 0.067,
        "velocity": 1,
        "hand": "left"
      },
      {
        "midi": 69,
        "time": 5.089,
        "duration": 0.067,
        "velocity": 1,
        "hand": "right"
      },
      {
        "midi": 58,
        "time": 5.156,
        "duration": 0.067,
        "velocity": 1,
        "hand": "left"
      },
      {
        "midi": 70,
        "time": 5.156,
        "duration": 0.067,
        "velocity": 1,
        "hand": "right"
      },
      {
        "midi": 54,
        "time": 5.29,
        "duration": 0.067,
        "velocity": 1,
        "hand": "left"
      },
      {
        "midi": 66,
        "time": 5.29,
        "duration": 0.067,
        "velocity": 1,
        "hand": "right"
      },
      {
        "midi": 52,
        "time": 5.357,
        "duration": 0.067,
        "velocity": 1,
        "hand": "left"
      },
      {
        "midi": 64,
        "time": 5.357,
        "duration": 0.067,
        "velocity": 1,
        "hand": "right"
      },
      {
        "midi": 53,
        "time": 5.424,
        "duration": 0.067,
        "velocity": 1,
        "hand": "left"
      },
      {
        "midi": 65,
        "time": 5.424,
        "duration": 0.067,
        "velocity": 1,
        "hand": "right"
      },
      {
        "midi": 58,
        "time": 5.558,
        "duration": 0.067,
        "velocity": 1,
        "hand": "left"
      },
      {
        "midi": 70,
        "time": 5.558,
        "duration": 0.067,
        "velocity": 1,
        "hand": "right"
      },
      {
        "midi": 56,
        "time": 5.625,
        "duration": 0.067,
        "velocity": 1,
        "hand": "left"
      },
      {
        "midi": 68,
        "time": 5.625,
        "duration": 0.067,
        "velocity": 1,
        "hand": "right"
      },
      {
        "midi": 57,
        "time": 5.692,
        "duration": 0.067,
        "velocity": 1,
        "hand": "left"
      },
      {
        "midi": 69,
        "time": 5.692,
        "duration": 0.067,
        "velocity": 1,
        "hand": "right"
      },
      {
        "midi": 61,
        "time": 5.826,
        "duration": 0.067,
        "velocity": 1,
        "hand": "right"
      },
      {
        "midi": 73,
        "time": 5.826,
        "duration": 0.067,
        "velocity": 1,
        "hand": "right"
      },
      {
        "midi": 57,
        "time": 5.893,
        "duration": 0.067,
        "velocity": 1,
        "hand": "left"
      },
      {
        "midi": 69,
        "time": 5.893,
        "duration": 0.067,
        "velocity": 1,
        "hand": "right"
      },
      {
        "midi": 58,
        "time": 5.96,
        "duration": 0.067,
        "velocity": 1,
        "hand": "left"
      },
      {
        "midi": 70,
        "time": 5.96,
        "duration": 0.067,
        "velocity": 1,
        "hand": "right"
      },
      {
        "midi": 61,
        "time": 6.094,
        "duration": 0.067,
        "velocity": 1,
        "hand": "right"
      },
      {
        "midi": 73,
        "time": 6.094,
        "duration": 0.067,
        "velocity": 1,
        "hand": "right"
      },
      {
        "midi": 59,
        "time": 6.161,
        "duration": 0.067,
        "velocity": 1,
        "hand": "left"
      },
      {
        "midi": 71,
        "time": 6.161,
        "duration": 0.067,
        "velocity": 1,
        "hand": "right"
      },
      {
        "midi": 60,
        "time": 6.228,
        "duration": 0.067,
        "velocity": 1,
        "hand": "right"
      },
      {
        "midi": 72,
        "time": 6.228,
        "duration": 0.067,
        "velocity": 1,
        "hand": "right"
      },
      {
        "midi": 65,
        "time": 6.362,
        "duration": 0.067,
        "velocity": 1,
        "hand": "right"
      },
      {
        "midi": 77,
        "time": 6.362,
        "duration": 0.067,
        "velocity": 1,
        "hand": "right"
      },
      {
        "midi": 56,
        "time": 6.429,
        "duration": 0.067,
        "velocity": 1,
        "hand": "left"
      },
      {
        "midi": 68,
        "time": 6.429,
        "duration": 0.067,
        "velocity": 1,
        "hand": "right"
      },
      {
        "midi": 59,
        "time": 6.496,
        "duration": 0.067,
        "velocity": 1,
        "hand": "left"
      },
      {
        "midi": 71,
        "time": 6.496,
        "duration": 0.067,
        "velocity": 1,
        "hand": "right"
      },
      {
        "midi": 64,
        "time": 6.629,
        "duration": 0.067,
        "velocity": 1,
        "hand": "right"
      },
      {
        "midi": 76,
        "time": 6.629,
        "duration": 0.067,
        "velocity": 1,
        "hand": "right"
      },
      {
        "midi": 63,
        "time": 6.696,
        "duration": 0.067,
        "velocity": 1,
        "hand": "right"
      },
      {
        "midi": 75,
        "time": 6.696,
        "duration": 0.067,
        "velocity": 1,
        "hand": "right"
      },
      {
        "midi": 58,
        "time": 6.763,
        "duration": 0.067,
        "velocity": 1,
        "hand": "left"
      },
      {
        "midi": 70,
        "time": 6.763,
        "duration": 0.067,
        "velocity": 1,
        "hand": "right"
      },
      {
        "midi": 59,
        "time": 6.897,
        "duration": 0.067,
        "velocity": 1,
        "hand": "left"
      },
      {
        "midi": 71,
        "time": 6.897,
        "duration": 0.067,
        "velocity": 1,
        "hand": "right"
      },
      {
        "midi": 62,
        "time": 6.964,
        "duration": 0.067,
        "velocity": 1,
        "hand": "right"
      },
      {
        "midi": 74,
        "time": 6.964,
        "duration": 0.067,
        "velocity": 1,
        "hand": "right"
      },
      {
        "midi": 58,
        "time": 7.031,
        "duration": 0.067,
        "velocity": 1,
        "hand": "left"
      },
      {
        "midi": 70,
        "time": 7.031,
        "duration": 0.067,
        "velocity": 1,
        "hand": "right"
      },
      {
        "midi": 59,
        "time": 7.165,
        "duration": 0.067,
        "velocity": 1,
        "hand": "left"
      },
      {
        "midi": 71,
        "time": 7.165,
        "duration": 0.067,
        "velocity": 1,
        "hand": "right"
      },
      {
        "midi": 55,
        "time": 7.232,
        "duration": 0.067,
        "velocity": 1,
        "hand": "left"
      },
      {
        "midi": 67,
        "time": 7.232,
        "duration": 0.067,
        "velocity": 1,
        "hand": "right"
      },
      {
        "midi": 56,
        "time": 7.299,
        "duration": 0.067,
        "velocity": 1,
        "hand": "left"
      },
      {
        "midi": 68,
        "time": 7.299,
        "duration": 0.067,
        "velocity": 1,
        "hand": "right"
      },
      {
        "midi": 52,
        "time": 7.433,
        "duration": 0.067,
        "velocity": 1,
        "hand": "left"
      },
      {
        "midi": 64,
        "time": 7.433,
        "duration": 0.067,
        "velocity": 1,
        "hand": "right"
      },
      {
        "midi": 50,
        "time": 7.5,
        "duration": 0.067,
        "velocity": 1,
        "hand": "left"
      },
      {
        "midi": 62,
        "time": 7.5,
        "duration": 0.067,
        "velocity": 1,
        "hand": "right"
      },
      {
        "midi": 51,
        "time": 7.567,
        "duration": 0.067,
        "velocity": 1,
        "hand": "left"
      },
      {
        "midi": 63,
        "time": 7.567,
        "duration": 0.067,
        "velocity": 1,
        "hand": "right"
      },
      {
        "midi": 56,
        "time": 7.701,
        "duration": 0.067,
        "velocity": 1,
        "hand": "left"
      },
      {
        "midi": 68,
        "time": 7.701,
        "duration": 0.067,
        "velocity": 1,
        "hand": "right"
      },
      {
        "midi": 52,
        "time": 7.768,
        "duration": 0.067,
        "velocity": 1,
        "hand": "left"
      },
      {
        "midi": 64,
        "time": 7.768,
        "duration": 0.067,
        "velocity": 1,
        "hand": "right"
      },
      {
        "midi": 53,
        "time": 7.835,
        "duration": 0.067,
        "velocity": 1,
        "hand": "left"
      },
      {
        "midi": 65,
        "time": 7.835,
        "duration": 0.067,
        "velocity": 1,
        "hand": "right"
      },
      {
        "midi": 59,
        "time": 7.969,
        "duration": 0.067,
        "velocity": 1,
        "hand": "left"
      },
      {
        "midi": 71,
        "time": 7.969,
        "duration": 0.067,
        "velocity": 1,
        "hand": "right"
      },
      {
        "midi": 53,
        "time": 8.036,
        "duration": 0.067,
        "velocity": 1,
        "hand": "left"
      },
      {
        "midi": 65,
        "time": 8.036,
        "duration": 0.067,
        "velocity": 1,
        "hand": "right"
      },
      {
        "midi": 54,
        "time": 8.103,
        "duration": 0.067,
        "velocity": 1,
        "hand": "left"
      },
      {
        "midi": 66,
        "time": 8.103,
        "duration": 0.067,
        "velocity": 1,
        "hand": "right"
      },
      {
        "midi": 59,
        "time": 8.237,
        "duration": 0.067,
        "velocity": 1,
        "hand": "left"
      },
      {
        "midi": 71,
        "time": 8.237,
        "duration": 0.067,
        "velocity": 1,
        "hand": "right"
      },
      {
        "midi": 57,
        "time": 8.304,
        "duration": 0.067,
        "velocity": 1,
        "hand": "left"
      },
      {
        "midi": 69,
        "time": 8.304,
        "duration": 0.067,
        "velocity": 1,
        "hand": "right"
      },
      {
        "midi": 58,
        "time": 8.371,
        "duration": 0.067,
        "velocity": 1,
        "hand": "left"
      },
      {
        "midi": 70,
        "time": 8.371,
        "duration": 0.067,
        "velocity": 1,
        "hand": "right"
      },
      {
        "midi": 63,
        "time": 8.504,
        "duration": 0.067,
        "velocity": 1,
        "hand": "right"
      },
      {
        "midi": 75,
        "time": 8.504,
        "duration": 0.067,
        "velocity": 1,
        "hand": "right"
      },
      {
        "midi": 61,
        "time": 8.571,
        "duration": 0.067,
        "velocity": 1,
        "hand": "right"
      },
      {
        "midi": 73,
        "time": 8.571,
        "duration": 0.067,
        "velocity": 1,
        "hand": "right"
      },
      {
        "midi": 53,
        "time": 8.638,
        "duration": 0.067,
        "velocity": 1,
        "hand": "left"
      },
      {
        "midi": 65,
        "time": 8.638,
        "duration": 0.067,
        "velocity": 1,
        "hand": "right"
      },
      {
        "midi": 58,
        "time": 8.772,
        "duration": 0.067,
        "velocity": 1,
        "hand": "left"
      },
      {
        "midi": 70,
        "time": 8.772,
        "duration": 0.067,
        "velocity": 1,
        "hand": "right"
      },
      {
        "midi": 49,
        "time": 8.839,
        "duration": 0.067,
        "velocity": 1,
        "hand": "left"
      },
      {
        "midi": 61,
        "time": 8.839,
        "duration": 0.067,
        "velocity": 1,
        "hand": "right"
      },
      {
        "midi": 52,
        "time": 8.906,
        "duration": 0.067,
        "velocity": 1,
        "hand": "left"
      },
      {
        "midi": 64,
        "time": 8.906,
        "duration": 0.067,
        "velocity": 1,
        "hand": "right"
      },
      {
        "midi": 57,
        "time": 9.04,
        "duration": 0.067,
        "velocity": 1,
        "hand": "left"
      },
      {
        "midi": 69,
        "time": 9.04,
        "duration": 0.067,
        "velocity": 1,
        "hand": "right"
      },
      {
        "midi": 60,
        "time": 9.107,
        "duration": 0.067,
        "velocity": 1,
        "hand": "right"
      },
      {
        "midi": 72,
        "time": 9.107,
        "duration": 0.067,
        "velocity": 1,
        "hand": "right"
      },
      {
        "midi": 51,
        "time": 9.174,
        "duration": 0.067,
        "velocity": 1,
        "hand": "left"
      },
      {
        "midi": 63,
        "time": 9.174,
        "duration": 0.067,
        "velocity": 1,
        "hand": "right"
      },
      {
        "midi": 56,
        "time": 9.308,
        "duration": 0.067,
        "velocity": 1,
        "hand": "left"
      },
      {
        "midi": 68,
        "time": 9.308,
        "duration": 0.067,
        "velocity": 1,
        "hand": "right"
      },
      {
        "midi": 47,
        "time": 9.375,
        "duration": 0.067,
        "velocity": 1,
        "hand": "left"
      },
      {
        "midi": 59,
        "time": 9.375,
        "duration": 0.067,
        "velocity": 1,
        "hand": "left"
      },
      {
        "midi": 50,
        "time": 9.442,
        "duration": 0.067,
        "velocity": 1,
        "hand": "left"
      },
      {
        "midi": 62,
        "time": 9.442,
        "duration": 0.067,
        "velocity": 1,
        "hand": "right"
      },
      {
        "midi": 55,
        "time": 9.576,
        "duration": 0.067,
        "velocity": 1,
        "hand": "left"
      },
      {
        "midi": 67,
        "time": 9.576,
        "duration": 0.067,
        "velocity": 1,
        "hand": "right"
      },
      {
        "midi": 59,
        "time": 9.643,
        "duration": 0.067,
        "velocity": 1,
        "hand": "left"
      },
      {
        "midi": 71,
        "time": 9.643,
        "duration": 0.067,
        "velocity": 1,
        "hand": "right"
      },
      {
        "midi": 50,
        "time": 9.71,
        "duration": 0.067,
        "velocity": 1,
        "hand": "left"
      },
      {
        "midi": 62,
        "time": 9.71,
        "duration": 0.067,
        "velocity": 1,
        "hand": "right"
      },
      {
        "midi": 54,
        "time": 9.844,
        "duration": 0.067,
        "velocity": 1,
        "hand": "left"
      },
      {
        "midi": 66,
        "time": 9.844,
        "duration": 0.067,
        "velocity": 1,
        "hand": "right"
      },
      {
        "midi": 46,
        "time": 9.911,
        "duration": 0.067,
        "velocity": 1,
        "hand": "left"
      },
      {
        "midi": 58,
        "time": 9.911,
        "duration": 0.067,
        "velocity": 1,
        "hand": "left"
      },
      {
        "midi": 49,
        "time": 9.978,
        "duration": 0.067,
        "velocity": 1,
        "hand": "left"
      },
      {
        "midi": 61,
        "time": 9.978,
        "duration": 0.067,
        "velocity": 1,
        "hand": "right"
      },
      {
        "midi": 54,
        "time": 10.112,
        "duration": 0.067,
        "velocity": 1,
        "hand": "left"
      },
      {
        "midi": 66,
        "time": 10.112,
        "duration": 0.067,
        "velocity": 1,
        "hand": "right"
      },
      {
        "midi": 58,
        "time": 10.179,
        "duration": 0.067,
        "velocity": 1,
        "hand": "left"
      },
      {
        "midi": 70,
        "time": 10.179,
        "duration": 0.067,
        "velocity": 1,
        "hand": "right"
      },
      {
        "midi": 54,
        "time": 10.246,
        "duration": 0.067,
        "velocity": 1,
        "hand": "left"
      },
      {
        "midi": 66,
        "time": 10.246,
        "duration": 0.067,
        "velocity": 1,
        "hand": "right"
      },
      {
        "midi": 59,
        "time": 10.379,
        "duration": 0.067,
        "velocity": 1,
        "hand": "left"
      },
      {
        "midi": 71,
        "time": 10.379,
        "duration": 0.067,
        "velocity": 1,
        "hand": "right"
      },
      {
        "midi": 60,
        "time": 10.446,
        "duration": 0.067,
        "velocity": 1,
        "hand": "right"
      },
      {
        "midi": 72,
        "time": 10.446,
        "duration": 0.067,
        "velocity": 1,
        "hand": "right"
      },
      {
        "midi": 61,
        "time": 10.513,
        "duration": 0.067,
        "velocity": 1,
        "hand": "right"
      },
      {
        "midi": 73,
        "time": 10.513,
        "duration": 0.067,
        "velocity": 1,
        "hand": "right"
      },
      {
        "midi": 63,
        "time": 10.647,
        "duration": 0.067,
        "velocity": 1,
        "hand": "right"
      },
      {
        "midi": 75,
        "time": 10.647,
        "duration": 0.067,
        "velocity": 1,
        "hand": "right"
      },
      {
        "midi": 64,
        "time": 10.714,
        "duration": 0.067,
        "velocity": 1,
        "hand": "right"
      },
      {
        "midi": 76,
        "time": 10.714,
        "duration": 0.067,
        "velocity": 1,
        "hand": "right"
      },
      {
        "midi": 55,
        "time": 10.781,
        "duration": 0.067,
        "velocity": 1,
        "hand": "left"
      },
      {
        "midi": 67,
        "time": 10.781,
        "duration": 0.067,
        "velocity": 1,
        "hand": "right"
      },
      {
        "midi": 60,
        "time": 10.915,
        "duration": 0.067,
        "velocity": 1,
        "hand": "right"
      },
      {
        "midi": 72,
        "time": 10.915,
        "duration": 0.067,
        "velocity": 1,
        "hand": "right"
      },
      {
        "midi": 51,
        "time": 10.982,
        "duration": 0.067,
        "velocity": 1,
        "hand": "left"
      },
      {
        "midi": 63,
        "time": 10.982,
        "duration": 0.067,
        "velocity": 1,
        "hand": "right"
      },
      {
        "midi": 54,
        "time": 11.049,
        "duration": 0.067,
        "velocity": 1,
        "hand": "left"
      },
      {
        "midi": 66,
        "time": 11.049,
        "duration": 0.067,
        "velocity": 1,
        "hand": "right"
      },
      {
        "midi": 59,
        "time": 11.183,
        "duration": 0.067,
        "velocity": 1,
        "hand": "left"
      },
      {
        "midi": 71,
        "time": 11.183,
        "duration": 0.067,
        "velocity": 1,
        "hand": "right"
      },
      {
        "midi": 62,
        "time": 11.25,
        "duration": 0.067,
        "velocity": 1,
        "hand": "right"
      },
      {
        "midi": 74,
        "time": 11.25,
        "duration": 0.067,
        "velocity": 1,
        "hand": "right"
      },
      {
        "midi": 53,
        "time": 11.317,
        "duration": 0.067,
        "velocity": 1,
        "hand": "left"
      },
      {
        "midi": 65,
        "time": 11.317,
        "duration": 0.067,
        "velocity": 1,
        "hand": "right"
      },
      {
        "midi": 58,
        "time": 11.451,
        "duration": 0.067,
        "velocity": 1,
        "hand": "left"
      },
      {
        "midi": 70,
        "time": 11.451,
        "duration": 0.067,
        "velocity": 1,
        "hand": "right"
      },
      {
        "midi": 49,
        "time": 11.518,
        "duration": 0.067,
        "velocity": 1,
        "hand": "left"
      },
      {
        "midi": 61,
        "time": 11.518,
        "duration": 0.067,
        "velocity": 1,
        "hand": "right"
      },
      {
        "midi": 52,
        "time": 11.585,
        "duration": 0.067,
        "velocity": 1,
        "hand": "left"
      },
      {
        "midi": 64,
        "time": 11.585,
        "duration": 0.067,
        "velocity": 1,
        "hand": "right"
      },
      {
        "midi": 57,
        "time": 11.719,
        "duration": 0.067,
        "velocity": 1,
        "hand": "left"
      },
      {
        "midi": 69,
        "time": 11.719,
        "duration": 0.067,
        "velocity": 1,
        "hand": "right"
      },
      {
        "midi": 60,
        "time": 11.786,
        "duration": 0.067,
        "velocity": 1,
        "hand": "right"
      },
      {
        "midi": 72,
        "time": 11.786,
        "duration": 0.067,
        "velocity": 1,
        "hand": "right"
      },
      {
        "midi": 51,
        "time": 11.853,
        "duration": 0.067,
        "velocity": 1,
        "hand": "left"
      },
      {
        "midi": 63,
        "time": 11.853,
        "duration": 0.067,
        "velocity": 1,
        "hand": "right"
      },
      {
        "midi": 56,
        "time": 11.987,
        "duration": 0.067,
        "velocity": 1,
        "hand": "left"
      },
      {
        "midi": 68,
        "time": 11.987,
        "duration": 0.067,
        "velocity": 1,
        "hand": "right"
      },
      {
        "midi": 47,
        "time": 12.054,
        "duration": 0.067,
        "velocity": 1,
        "hand": "left"
      },
      {
        "midi": 59,
        "time": 12.054,
        "duration": 0.067,
        "velocity": 1,
        "hand": "left"
      },
      {
        "midi": 50,
        "time": 12.121,
        "duration": 0.067,
        "velocity": 1,
        "hand": "left"
      },
      {
        "midi": 62,
        "time": 12.121,
        "duration": 0.067,
        "velocity": 1,
        "hand": "right"
      },
      {
        "midi": 55,
        "time": 12.254,
        "duration": 0.067,
        "velocity": 1,
        "hand": "left"
      },
      {
        "midi": 67,
        "time": 12.254,
        "duration": 0.067,
        "velocity": 1,
        "hand": "right"
      },
      {
        "midi": 59,
        "time": 12.321,
        "duration": 0.067,
        "velocity": 1,
        "hand": "left"
      },
      {
        "midi": 71,
        "time": 12.321,
        "duration": 0.067,
        "velocity": 1,
        "hand": "right"
      },
      {
        "midi": 54,
        "time": 12.388,
        "duration": 0.067,
        "velocity": 1,
        "hand": "left"
      },
      {
        "midi": 66,
        "time": 12.388,
        "duration": 0.067,
        "velocity": 1,
        "hand": "right"
      },
      {
        "midi": 61,
        "time": 12.522,
        "duration": 0.067,
        "velocity": 1,
        "hand": "right"
      },
      {
        "midi": 73,
        "time": 12.522,
        "duration": 0.067,
        "velocity": 1,
        "hand": "right"
      },
      {
        "midi": 62,
        "time": 12.589,
        "duration": 0.067,
        "velocity": 1,
        "hand": "right"
      },
      {
        "midi": 74,
        "time": 12.589,
        "duration": 0.067,
        "velocity": 1,
        "hand": "right"
      },
      {
        "midi": 63,
        "time": 12.656,
        "duration": 0.067,
        "velocity": 1,
        "hand": "right"
      },
      {
        "midi": 75,
        "time": 12.656,
        "duration": 0.067,
        "velocity": 1,
        "hand": "right"
      },
      {
        "midi": 64,
        "time": 12.79,
        "duration": 0.067,
        "velocity": 1,
        "hand": "right"
      },
      {
        "midi": 76,
        "time": 12.79,
        "duration": 0.067,
        "velocity": 1,
        "hand": "right"
      },
      {
        "midi": 65,
        "time": 12.857,
        "duration": 0.067,
        "velocity": 1,
        "hand": "right"
      },
      {
        "midi": 77,
        "time": 12.857,
        "duration": 0.067,
        "velocity": 1,
        "hand": "right"
      },
      {
        "midi": 57,
        "time": 12.924,
        "duration": 0.067,
        "velocity": 1,
        "hand": "left"
      },
      {
        "midi": 69,
        "time": 12.924,
        "duration": 0.067,
        "velocity": 1,
        "hand": "right"
      },
      {
        "midi": 63,
        "time": 13.058,
        "duration": 0.067,
        "velocity": 1,
        "hand": "right"
      },
      {
        "midi": 75,
        "time": 13.058,
        "duration": 0.067,
        "velocity": 1,
        "hand": "right"
      },
      {
        "midi": 64,
        "time": 13.125,
        "duration": 0.067,
        "velocity": 1,
        "hand": "right"
      },
      {
        "midi": 76,
        "time": 13.125,
        "duration": 0.067,
        "velocity": 1,
        "hand": "right"
      },
      {
        "midi": 65,
        "time": 13.192,
        "duration": 0.067,
        "velocity": 1,
        "hand": "right"
      },
      {
        "midi": 77,
        "time": 13.192,
        "duration": 0.067,
        "velocity": 1,
        "hand": "right"
      },
      {
        "midi": 66,
        "time": 13.326,
        "duration": 0.067,
        "velocity": 1,
        "hand": "right"
      },
      {
        "midi": 78,
        "time": 13.326,
        "duration": 0.067,
        "velocity": 1,
        "hand": "right"
      },
      {
        "midi": 65,
        "time": 13.393,
        "duration": 0.067,
        "velocity": 1,
        "hand": "right"
      },
      {
        "midi": 77,
        "time": 13.393,
        "duration": 0.067,
        "velocity": 1,
        "hand": "right"
      },
      {
        "midi": 58,
        "time": 13.46,
        "duration": 0.067,
        "velocity": 1,
        "hand": "left"
      },
      {
        "midi": 70,
        "time": 13.46,
        "duration": 0.067,
        "velocity": 1,
        "hand": "right"
      },
      {
        "midi": 61,
        "time": 13.594,
        "duration": 0.067,
        "velocity": 1,
        "hand": "right"
      },
      {
        "midi": 73,
        "time": 13.594,
        "duration": 0.067,
        "velocity": 1,
        "hand": "right"
      },
      {
        "midi": 64,
        "time": 13.661,
        "duration": 0.067,
        "velocity": 1,
        "hand": "right"
      },
      {
        "midi": 76,
        "time": 13.661,
        "duration": 0.067,
        "velocity": 1,
        "hand": "right"
      },
      {
        "midi": 65,
        "time": 13.728,
        "duration": 0.067,
        "velocity": 1,
        "hand": "right"
      },
      {
        "midi": 77,
        "time": 13.728,
        "duration": 0.067,
        "velocity": 1,
        "hand": "right"
      },
      {
        "midi": 66,
        "time": 13.862,
        "duration": 0.067,
        "velocity": 1,
        "hand": "right"
      },
      {
        "midi": 78,
        "time": 13.862,
        "duration": 0.067,
        "velocity": 1,
        "hand": "right"
      },
      {
        "midi": 67,
        "time": 13.929,
        "duration": 0.067,
        "velocity": 1,
        "hand": "right"
      },
      {
        "midi": 79,
        "time": 13.929,
        "duration": 0.067,
        "velocity": 1,
        "hand": "right"
      },
      {
        "midi": 59,
        "time": 13.996,
        "duration": 0.067,
        "velocity": 1,
        "hand": "left"
      },
      {
        "midi": 71,
        "time": 13.996,
        "duration": 0.067,
        "velocity": 1,
        "hand": "right"
      },
      {
        "midi": 65,
        "time": 14.129,
        "duration": 0.067,
        "velocity": 1,
        "hand": "right"
      },
      {
        "midi": 77,
        "time": 14.129,
        "duration": 0.067,
        "velocity": 1,
        "hand": "right"
      },
      {
        "midi": 66,
        "time": 14.196,
        "duration": 0.067,
        "velocity": 1,
        "hand": "right"
      },
      {
        "midi": 78,
        "time": 14.196,
        "duration": 0.067,
        "velocity": 1,
        "hand": "right"
      },
      {
        "midi": 67,
        "time": 14.263,
        "duration": 0.067,
        "velocity": 1,
        "hand": "right"
      },
      {
        "midi": 79,
        "time": 14.263,
        "duration": 0.067,
        "velocity": 1,
        "hand": "right"
      },
      {
        "midi": 68,
        "time": 14.397,
        "duration": 0.067,
        "velocity": 1,
        "hand": "right"
      },
      {
        "midi": 80,
        "time": 14.397,
        "duration": 0.067,
        "velocity": 1,
        "hand": "right"
      },
      {
        "midi": 67,
        "time": 14.464,
        "duration": 0.067,
        "velocity": 1,
        "hand": "right"
      },
      {
        "midi": 79,
        "time": 14.464,
        "duration": 0.067,
        "velocity": 1,
        "hand": "right"
      },
      {
        "midi": 60,
        "time": 14.531,
        "duration": 0.067,
        "velocity": 1,
        "hand": "right"
      },
      {
        "midi": 72,
        "time": 14.531,
        "duration": 0.067,
        "velocity": 1,
        "hand": "right"
      },
      {
        "midi": 63,
        "time": 14.665,
        "duration": 0.067,
        "velocity": 1,
        "hand": "right"
      },
      {
        "midi": 75,
        "time": 14.665,
        "duration": 0.067,
        "velocity": 1,
        "hand": "right"
      },
      {
        "midi": 66,
        "time": 14.732,
        "duration": 0.067,
        "velocity": 1,
        "hand": "right"
      },
      {
        "midi": 78,
        "time": 14.732,
        "duration": 0.067,
        "velocity": 1,
        "hand": "right"
      },
      {
        "midi": 67,
        "time": 14.799,
        "duration": 0.067,
        "velocity": 1,
        "hand": "right"
      },
      {
        "midi": 79,
        "time": 14.799,
        "duration": 0.067,
        "velocity": 1,
        "hand": "right"
      },
      {
        "midi": 68,
        "time": 14.933,
        "duration": 0.067,
        "velocity": 1,
        "hand": "right"
      },
      {
        "midi": 80,
        "time": 14.933,
        "duration": 0.067,
        "velocity": 1,
        "hand": "right"
      },
      {
        "midi": 63,
        "time": 15,
        "duration": 0.067,
        "velocity": 1,
        "hand": "right"
      },
      {
        "midi": 75,
        "time": 15,
        "duration": 0.067,
        "velocity": 1,
        "hand": "right"
      },
      {
        "midi": 60,
        "time": 15.067,
        "duration": 0.067,
        "velocity": 1,
        "hand": "right"
      },
      {
        "midi": 72,
        "time": 15.067,
        "duration": 0.067,
        "velocity": 1,
        "hand": "right"
      },
      {
        "midi": 65,
        "time": 15.201,
        "duration": 0.067,
        "velocity": 1,
        "hand": "right"
      },
      {
        "midi": 77,
        "time": 15.201,
        "duration": 0.067,
        "velocity": 1,
        "hand": "right"
      },
      {
        "midi": 63,
        "time": 15.268,
        "duration": 0.067,
        "velocity": 1,
        "hand": "right"
      },
      {
        "midi": 75,
        "time": 15.268,
        "duration": 0.067,
        "velocity": 1,
        "hand": "right"
      },
      {
        "midi": 56,
        "time": 15.335,
        "duration": 0.067,
        "velocity": 1,
        "hand": "left"
      },
      {
        "midi": 68,
        "time": 15.335,
        "duration": 0.067,
        "velocity": 1,
        "hand": "right"
      },
      {
        "midi": 61,
        "time": 15.469,
        "duration": 0.067,
        "velocity": 1,
        "hand": "right"
      },
      {
        "midi": 73,
        "time": 15.469,
        "duration": 0.067,
        "velocity": 1,
        "hand": "right"
      },
      {
        "midi": 60,
        "time": 15.536,
        "duration": 0.067,
        "velocity": 1,
        "hand": "right"
      },
      {
        "midi": 72,
        "time": 15.536,
        "duration": 0.067,
        "velocity": 1,
        "hand": "right"
      },
      {
        "midi": 51,
        "time": 15.603,
        "duration": 0.067,
        "velocity": 1,
        "hand": "left"
      },
      {
        "midi": 63,
        "time": 15.603,
        "duration": 0.067,
        "velocity": 1,
        "hand": "right"
      },
      {
        "midi": 58,
        "time": 15.737,
        "duration": 0.067,
        "velocity": 1,
        "hand": "left"
      },
      {
        "midi": 70,
        "time": 15.737,
        "duration": 0.067,
        "velocity": 1,
        "hand": "right"
      },
      {
        "midi": 56,
        "time": 15.804,
        "duration": 0.067,
        "velocity": 1,
        "hand": "left"
      },
      {
        "midi": 68,
        "time": 15.804,
        "duration": 0.067,
        "velocity": 1,
        "hand": "right"
      },
      {
        "midi": 48,
        "time": 15.871,
        "duration": 0.067,
        "velocity": 1,
        "hand": "left"
      },
      {
        "midi": 60,
        "time": 15.871,
        "duration": 0.067,
        "velocity": 1,
        "hand": "right"
      },
      {
        "midi": 53,
        "time": 16.004,
        "duration": 0.067,
        "velocity": 1,
        "hand": "left"
      },
      {
        "midi": 65,
        "time": 16.004,
        "duration": 0.067,
        "velocity": 1,
        "hand": "right"
      },
      {
        "midi": 51,
        "time": 16.071,
        "duration": 0.067,
        "velocity": 1,
        "hand": "left"
      },
      {
        "midi": 63,
        "time": 16.071,
        "duration": 0.067,
        "velocity": 1,
        "hand": "right"
      },
      {
        "midi": 44,
        "time": 16.138,
        "duration": 0.067,
        "velocity": 1,
        "hand": "left"
      },
      {
        "midi": 56,
        "time": 16.138,
        "duration": 0.067,
        "velocity": 1,
        "hand": "left"
      },
      {
        "midi": 49,
        "time": 16.272,
        "duration": 0.067,
        "velocity": 1,
        "hand": "left"
      },
      {
        "midi": 61,
        "time": 16.272,
        "duration": 0.067,
        "velocity": 1,
        "hand": "right"
      },
      {
        "midi": 48,
        "time": 16.339,
        "duration": 0.067,
        "velocity": 1,
        "hand": "left"
      },
      {
        "midi": 60,
        "time": 16.339,
        "duration": 0.067,
        "velocity": 1,
        "hand": "right"
      },
      {
        "midi": 43,
        "time": 16.406,
        "duration": 0.067,
        "velocity": 1,
        "hand": "left"
      },
      {
        "midi": 55,
        "time": 16.406,
        "duration": 0.067,
        "velocity": 1,
        "hand": "left"
      },
      {
        "midi": 44,
        "time": 16.54,
        "duration": 0.067,
        "velocity": 1,
        "hand": "left"
      },
      {
        "midi": 56,
        "time": 16.54,
        "duration": 0.067,
        "velocity": 1,
        "hand": "left"
      },
      {
        "midi": 48,
        "time": 16.607,
        "duration": 0.067,
        "velocity": 1,
        "hand": "left"
      },
      {
        "midi": 60,
        "time": 16.607,
        "duration": 0.067,
        "velocity": 1,
        "hand": "right"
      },
      {
        "midi": 42,
        "time": 16.674,
        "duration": 0.067,
        "velocity": 1,
        "hand": "left"
      },
      {
        "midi": 54,
        "time": 16.674,
        "duration": 0.067,
        "velocity": 1,
        "hand": "left"
      },
      {
        "midi": 50,
        "time": 16.808,
        "duration": 0.067,
        "velocity": 1,
        "hand": "left"
      },
      {
        "midi": 62,
        "time": 16.808,
        "duration": 0.067,
        "velocity": 1,
        "hand": "right"
      },
      {
        "midi": 48,
        "time": 16.875,
        "duration": 0.067,
        "velocity": 1,
        "hand": "left"
      },
      {
        "midi": 60,
        "time": 16.875,
        "duration": 0.067,
        "velocity": 1,
        "hand": "right"
      },
      {
        "midi": 41,
        "time": 16.942,
        "duration": 0.067,
        "velocity": 1,
        "hand": "left"
      },
      {
        "midi": 53,
        "time": 16.942,
        "duration": 0.067,
        "velocity": 1,
        "hand": "left"
      },
      {
        "midi": 42,
        "time": 17.076,
        "duration": 0.067,
        "velocity": 1,
        "hand": "left"
      },
      {
        "midi": 54,
        "time": 17.076,
        "duration": 0.067,
        "velocity": 1,
        "hand": "left"
      },
      {
        "midi": 43,
        "time": 17.143,
        "duration": 0.067,
        "velocity": 1,
        "hand": "left"
      },
      {
        "midi": 55,
        "time": 17.143,
        "duration": 0.067,
        "velocity": 1,
        "hand": "left"
      },
      {
        "midi": 45,
        "time": 17.21,
        "duration": 0.067,
        "velocity": 1,
        "hand": "left"
      },
      {
        "midi": 57,
        "time": 17.21,
        "duration": 0.067,
        "velocity": 1,
        "hand": "left"
      },
      {
        "midi": 47,
        "time": 17.344,
        "duration": 0.067,
        "velocity": 1,
        "hand": "left"
      },
      {
        "midi": 59,
        "time": 17.344,
        "duration": 0.067,
        "velocity": 1,
        "hand": "left"
      },
      {
        "midi": 48,
        "time": 17.411,
        "duration": 0.067,
        "velocity": 1,
        "hand": "left"
      },
      {
        "midi": 60,
        "time": 17.411,
        "duration": 0.067,
        "velocity": 1,
        "hand": "right"
      },
      {
        "midi": 50,
        "time": 17.478,
        "duration": 0.067,
        "velocity": 1,
        "hand": "left"
      },
      {
        "midi": 62,
        "time": 17.478,
        "duration": 0.067,
        "velocity": 1,
        "hand": "right"
      },
      {
        "midi": 51,
        "time": 17.612,
        "duration": 0.067,
        "velocity": 1,
        "hand": "left"
      },
      {
        "midi": 63,
        "time": 17.612,
        "duration": 0.067,
        "velocity": 1,
        "hand": "right"
      },
      {
        "midi": 44,
        "time": 17.679,
        "duration": 0.067,
        "velocity": 1,
        "hand": "left"
      },
      {
        "midi": 56,
        "time": 17.679,
        "duration": 0.067,
        "velocity": 1,
        "hand": "left"
      },
      {
        "midi": 46,
        "time": 17.746,
        "duration": 0.067,
        "velocity": 1,
        "hand": "left"
      },
      {
        "midi": 58,
        "time": 17.746,
        "duration": 0.067,
        "velocity": 1,
        "hand": "left"
      },
      {
        "midi": 47,
        "time": 17.879,
        "duration": 0.067,
        "velocity": 1,
        "hand": "left"
      },
      {
        "midi": 59,
        "time": 17.879,
        "duration": 0.067,
        "velocity": 1,
        "hand": "left"
      },
      {
        "midi": 48,
        "time": 17.946,
        "duration": 0.067,
        "velocity": 1,
        "hand": "left"
      },
      {
        "midi": 60,
        "time": 17.946,
        "duration": 0.067,
        "velocity": 1,
        "hand": "right"
      },
      {
        "midi": 49,
        "time": 18.013,
        "duration": 0.067,
        "velocity": 1,
        "hand": "left"
      },
      {
        "midi": 61,
        "time": 18.013,
        "duration": 0.067,
        "velocity": 1,
        "hand": "right"
      },
      {
        "midi": 51,
        "time": 18.147,
        "duration": 0.067,
        "velocity": 1,
        "hand": "left"
      },
      {
        "midi": 63,
        "time": 18.147,
        "duration": 0.067,
        "velocity": 1,
        "hand": "right"
      },
      {
        "midi": 45,
        "time": 18.214,
        "duration": 0.067,
        "velocity": 1,
        "hand": "left"
      },
      {
        "midi": 57,
        "time": 18.214,
        "duration": 0.067,
        "velocity": 1,
        "hand": "left"
      },
      {
        "midi": 46,
        "time": 18.281,
        "duration": 0.067,
        "velocity": 1,
        "hand": "left"
      },
      {
        "midi": 58,
        "time": 18.281,
        "duration": 0.067,
        "velocity": 1,
        "hand": "left"
      },
      {
        "midi": 48,
        "time": 18.415,
        "duration": 0.067,
        "velocity": 1,
        "hand": "left"
      },
      {
        "midi": 60,
        "time": 18.415,
        "duration": 0.067,
        "velocity": 1,
        "hand": "right"
      },
      {
        "midi": 49,
        "time": 18.482,
        "duration": 0.067,
        "velocity": 1,
        "hand": "left"
      },
      {
        "midi": 61,
        "time": 18.482,
        "duration": 0.067,
        "velocity": 1,
        "hand": "right"
      },
      {
        "midi": 51,
        "time": 18.549,
        "duration": 0.067,
        "velocity": 1,
        "hand": "left"
      },
      {
        "midi": 63,
        "time": 18.549,
        "duration": 0.067,
        "velocity": 1,
        "hand": "right"
      },
      {
        "midi": 53,
        "time": 18.683,
        "duration": 0.067,
        "velocity": 1,
        "hand": "left"
      },
      {
        "midi": 65,
        "time": 18.683,
        "duration": 0.067,
        "velocity": 1,
        "hand": "right"
      },
      {
        "midi": 46,
        "time": 18.75,
        "duration": 0.067,
        "velocity": 1,
        "hand": "left"
      },
      {
        "midi": 58,
        "time": 18.75,
        "duration": 0.067,
        "velocity": 1,
        "hand": "left"
      },
      {
        "midi": 47,
        "time": 18.817,
        "duration": 0.067,
        "velocity": 1,
        "hand": "left"
      },
      {
        "midi": 59,
        "time": 18.817,
        "duration": 0.067,
        "velocity": 1,
        "hand": "left"
      },
      {
        "midi": 48,
        "time": 18.951,
        "duration": 0.067,
        "velocity": 1,
        "hand": "left"
      },
      {
        "midi": 60,
        "time": 18.951,
        "duration": 0.067,
        "velocity": 1,
        "hand": "right"
      },
      {
        "midi": 49,
        "time": 19.018,
        "duration": 0.067,
        "velocity": 1,
        "hand": "left"
      },
      {
        "midi": 61,
        "time": 19.018,
        "duration": 0.067,
        "velocity": 1,
        "hand": "right"
      },
      {
        "midi": 51,
        "time": 19.085,
        "duration": 0.067,
        "velocity": 1,
        "hand": "left"
      },
      {
        "midi": 63,
        "time": 19.085,
        "duration": 0.067,
        "velocity": 1,
        "hand": "right"
      },
      {
        "midi": 53,
        "time": 19.219,
        "duration": 0.067,
        "velocity": 1,
        "hand": "left"
      },
      {
        "midi": 65,
        "time": 19.219,
        "duration": 0.067,
        "velocity": 1,
        "hand": "right"
      },
      {
        "midi": 48,
        "time": 19.286,
        "duration": 0.067,
        "velocity": 1,
        "hand": "left"
      },
      {
        "midi": 60,
        "time": 19.286,
        "duration": 0.067,
        "velocity": 1,
        "hand": "right"
      },
      {
        "midi": 49,
        "time": 19.353,
        "duration": 0.067,
        "velocity": 1,
        "hand": "left"
      },
      {
        "midi": 61,
        "time": 19.353,
        "duration": 0.067,
        "velocity": 1,
        "hand": "right"
      },
      {
        "midi": 50,
        "time": 19.487,
        "duration": 0.067,
        "velocity": 1,
        "hand": "left"
      },
      {
        "midi": 62,
        "time": 19.487,
        "duration": 0.067,
        "velocity": 1,
        "hand": "right"
      },
      {
        "midi": 51,
        "time": 19.554,
        "duration": 0.067,
        "velocity": 1,
        "hand": "left"
      },
      {
        "midi": 63,
        "time": 19.554,
        "duration": 0.067,
        "velocity": 1,
        "hand": "right"
      },
      {
        "midi": 53,
        "time": 19.621,
        "duration": 0.067,
        "velocity": 1,
        "hand": "left"
      },
      {
        "midi": 65,
        "time": 19.621,
        "duration": 0.067,
        "velocity": 1,
        "hand": "right"
      },
      {
        "midi": 54,
        "time": 19.754,
        "duration": 0.067,
        "velocity": 1,
        "hand": "left"
      },
      {
        "midi": 66,
        "time": 19.754,
        "duration": 0.067,
        "velocity": 1,
        "hand": "right"
      },
      {
        "midi": 45,
        "time": 19.821,
        "duration": 0.067,
        "velocity": 1,
        "hand": "left"
      },
      {
        "midi": 57,
        "time": 19.821,
        "duration": 0.067,
        "velocity": 1,
        "hand": "left"
      },
      {
        "midi": 49,
        "time": 19.888,
        "duration": 0.067,
        "velocity": 1,
        "hand": "left"
      },
      {
        "midi": 61,
        "time": 19.888,
        "duration": 0.067,
        "velocity": 1,
        "hand": "right"
      },
      {
        "midi": 50,
        "time": 20.022,
        "duration": 0.067,
        "velocity": 1,
        "hand": "left"
      },
      {
        "midi": 62,
        "time": 20.022,
        "duration": 0.067,
        "velocity": 1,
        "hand": "right"
      },
      {
        "midi": 51,
        "time": 20.089,
        "duration": 0.067,
        "velocity": 1,
        "hand": "left"
      },
      {
        "midi": 63,
        "time": 20.089,
        "duration": 0.067,
        "velocity": 1,
        "hand": "right"
      },
      {
        "midi": 53,
        "time": 20.156,
        "duration": 0.067,
        "velocity": 1,
        "hand": "left"
      },
      {
        "midi": 65,
        "time": 20.156,
        "duration": 0.067,
        "velocity": 1,
        "hand": "right"
      },
      {
        "midi": 54,
        "time": 20.29,
        "duration": 0.067,
        "velocity": 1,
        "hand": "left"
      },
      {
        "midi": 66,
        "time": 20.29,
        "duration": 0.067,
        "velocity": 1,
        "hand": "right"
      },
      {
        "midi": 57,
        "time": 20.357,
        "duration": 0.067,
        "velocity": 1,
        "hand": "left"
      },
      {
        "midi": 69,
        "time": 20.357,
        "duration": 0.067,
        "velocity": 1,
        "hand": "right"
      },
      {
        "midi": 54,
        "time": 20.424,
        "duration": 0.067,
        "velocity": 1,
        "hand": "left"
      },
      {
        "midi": 66,
        "time": 20.424,
        "duration": 0.067,
        "velocity": 1,
        "hand": "right"
      },
      {
        "midi": 52,
        "time": 20.558,
        "duration": 0.067,
        "velocity": 1,
        "hand": "left"
      },
      {
        "midi": 64,
        "time": 20.558,
        "duration": 0.067,
        "velocity": 1,
        "hand": "right"
      },
      {
        "midi": 50,
        "time": 20.625,
        "duration": 0.067,
        "velocity": 1,
        "hand": "left"
      },
      {
        "midi": 62,
        "time": 20.625,
        "duration": 0.067,
        "velocity": 1,
        "hand": "right"
      },
      {
        "midi": 52,
        "time": 20.692,
        "duration": 0.067,
        "velocity": 1,
        "hand": "left"
      },
      {
        "midi": 64,
        "time": 20.692,
        "duration": 0.067,
        "velocity": 1,
        "hand": "right"
      },
      {
        "midi": 54,
        "time": 20.826,
        "duration": 0.067,
        "velocity": 1,
        "hand": "left"
      },
      {
        "midi": 66,
        "time": 20.826,
        "duration": 0.067,
        "velocity": 1,
        "hand": "right"
      },
      {
        "midi": 45,
        "time": 20.893,
        "duration": 0.067,
        "velocity": 1,
        "hand": "left"
      },
      {
        "midi": 57,
        "time": 20.893,
        "duration": 0.067,
        "velocity": 1,
        "hand": "left"
      },
      {
        "midi": 49,
        "time": 20.96,
        "duration": 0.067,
        "velocity": 1,
        "hand": "left"
      },
      {
        "midi": 61,
        "time": 20.96,
        "duration": 0.067,
        "velocity": 1,
        "hand": "right"
      },
      {
        "midi": 50,
        "time": 21.094,
        "duration": 0.067,
        "velocity": 1,
        "hand": "left"
      },
      {
        "midi": 62,
        "time": 21.094,
        "duration": 0.067,
        "velocity": 1,
        "hand": "right"
      },
      {
        "midi": 52,
        "time": 21.161,
        "duration": 0.067,
        "velocity": 1,
        "hand": "left"
      },
      {
        "midi": 64,
        "time": 21.161,
        "duration": 0.067,
        "velocity": 1,
        "hand": "right"
      },
      {
        "midi": 53,
        "time": 21.228,
        "duration": 0.067,
        "velocity": 1,
        "hand": "left"
      },
      {
        "midi": 65,
        "time": 21.228,
        "duration": 0.067,
        "velocity": 1,
        "hand": "right"
      },
      {
        "midi": 54,
        "time": 21.362,
        "duration": 0.067,
        "velocity": 1,
        "hand": "left"
      },
      {
        "midi": 66,
        "time": 21.362,
        "duration": 0.067,
        "velocity": 1,
        "hand": "right"
      },
      {
        "midi": 57,
        "time": 21.429,
        "duration": 0.067,
        "velocity": 1,
        "hand": "left"
      },
      {
        "midi": 69,
        "time": 21.429,
        "duration": 0.067,
        "velocity": 1,
        "hand": "right"
      },
      {
        "midi": 56,
        "time": 21.496,
        "duration": 0.067,
        "velocity": 1,
        "hand": "left"
      },
      {
        "midi": 68,
        "time": 21.496,
        "duration": 0.067,
        "velocity": 1,
        "hand": "right"
      },
      {
        "midi": 55,
        "time": 21.629,
        "duration": 0.067,
        "velocity": 1,
        "hand": "left"
      },
      {
        "midi": 67,
        "time": 21.629,
        "duration": 0.067,
        "velocity": 1,
        "hand": "right"
      },
      {
        "midi": 54,
        "time": 21.696,
        "duration": 0.067,
        "velocity": 1,
        "hand": "left"
      },
      {
        "midi": 66,
        "time": 21.696,
        "duration": 0.067,
        "velocity": 1,
        "hand": "right"
      },
      {
        "midi": 51,
        "time": 21.763,
        "duration": 0.067,
        "velocity": 1,
        "hand": "left"
      },
      {
        "midi": 63,
        "time": 21.763,
        "duration": 0.067,
        "velocity": 1,
        "hand": "right"
      },
      {
        "midi": 48,
        "time": 21.897,
        "duration": 0.067,
        "velocity": 1,
        "hand": "left"
      },
      {
        "midi": 60,
        "time": 21.897,
        "duration": 0.067,
        "velocity": 1,
        "hand": "right"
      },
      {
        "midi": 54,
        "time": 21.964,
        "duration": 0.067,
        "velocity": 1,
        "hand": "left"
      },
      {
        "midi": 66,
        "time": 21.964,
        "duration": 0.067,
        "velocity": 1,
        "hand": "right"
      },
      {
        "midi": 51,
        "time": 22.031,
        "duration": 0.067,
        "velocity": 1,
        "hand": "left"
      },
      {
        "midi": 63,
        "time": 22.031,
        "duration": 0.067,
        "velocity": 1,
        "hand": "right"
      },
      {
        "midi": 48,
        "time": 22.165,
        "duration": 0.067,
        "velocity": 1,
        "hand": "left"
      },
      {
        "midi": 60,
        "time": 22.165,
        "duration": 0.067,
        "velocity": 1,
        "hand": "right"
      },
      {
        "midi": 46,
        "time": 22.232,
        "duration": 0.067,
        "velocity": 1,
        "hand": "left"
      },
      {
        "midi": 58,
        "time": 22.232,
        "duration": 0.067,
        "velocity": 1,
        "hand": "left"
      },
      {
        "midi": 45,
        "time": 22.299,
        "duration": 0.067,
        "velocity": 1,
        "hand": "left"
      },
      {
        "midi": 57,
        "time": 22.299,
        "duration": 0.067,
        "velocity": 1,
        "hand": "left"
      },
      {
        "midi": 44,
        "time": 22.433,
        "duration": 0.067,
        "velocity": 1,
        "hand": "left"
      },
      {
        "midi": 56,
        "time": 22.433,
        "duration": 0.067,
        "velocity": 1,
        "hand": "left"
      },
      {
        "midi": 43,
        "time": 22.5,
        "duration": 0.067,
        "velocity": 1,
        "hand": "left"
      },
      {
        "midi": 55,
        "time": 22.5,
        "duration": 0.067,
        "velocity": 1,
        "hand": "left"
      },
      {
        "midi": 44,
        "time": 22.567,
        "duration": 0.067,
        "velocity": 1,
        "hand": "left"
      },
      {
        "midi": 56,
        "time": 22.567,
        "duration": 0.067,
        "velocity": 1,
        "hand": "left"
      },
      {
        "midi": 45,
        "time": 22.701,
        "duration": 0.067,
        "velocity": 1,
        "hand": "left"
      },
      {
        "midi": 57,
        "time": 22.701,
        "duration": 0.067,
        "velocity": 1,
        "hand": "left"
      },
      {
        "midi": 41,
        "time": 22.768,
        "duration": 0.067,
        "velocity": 1,
        "hand": "left"
      },
      {
        "midi": 53,
        "time": 22.768,
        "duration": 0.067,
        "velocity": 1,
        "hand": "left"
      },
      {
        "midi": 42,
        "time": 22.835,
        "duration": 0.067,
        "velocity": 1,
        "hand": "left"
      },
      {
        "midi": 54,
        "time": 22.835,
        "duration": 0.067,
        "velocity": 1,
        "hand": "left"
      },
      {
        "midi": 44,
        "time": 22.969,
        "duration": 0.067,
        "velocity": 1,
        "hand": "left"
      },
      {
        "midi": 56,
        "time": 22.969,
        "duration": 0.067,
        "velocity": 1,
        "hand": "left"
      },
      {
        "midi": 40,
        "time": 23.036,
        "duration": 0.067,
        "velocity": 1,
        "hand": "left"
      },
      {
        "midi": 52,
        "time": 23.036,
        "duration": 0.067,
        "velocity": 1,
        "hand": "left"
      },
      {
        "midi": 41,
        "time": 23.103,
        "duration": 0.067,
        "velocity": 1,
        "hand": "left"
      },
      {
        "midi": 53,
        "time": 23.103,
        "duration": 0.067,
        "velocity": 1,
        "hand": "left"
      },
      {
        "midi": 42,
        "time": 23.237,
        "duration": 0.067,
        "velocity": 1,
        "hand": "left"
      },
      {
        "midi": 54,
        "time": 23.237,
        "duration": 0.067,
        "velocity": 1,
        "hand": "left"
      },
      {
        "midi": 38,
        "time": 23.304,
        "duration": 0.067,
        "velocity": 1,
        "hand": "left"
      },
      {
        "midi": 50,
        "time": 23.304,
        "duration": 0.067,
        "velocity": 1,
        "hand": "left"
      },
      {
        "midi": 40,
        "time": 23.371,
        "duration": 0.067,
        "velocity": 1,
        "hand": "left"
      },
      {
        "midi": 52,
        "time": 23.371,
        "duration": 0.067,
        "velocity": 1,
        "hand": "left"
      },
      {
        "midi": 41,
        "time": 23.504,
        "duration": 0.067,
        "velocity": 1,
        "hand": "left"
      },
      {
        "midi": 53,
        "time": 23.504,
        "duration": 0.067,
        "velocity": 1,
        "hand": "left"
      },
      {
        "midi": 31,
        "time": 23.571,
        "duration": 0.067,
        "velocity": 1,
        "hand": "left"
      },
      {
        "midi": 43,
        "time": 23.571,
        "duration": 0.067,
        "velocity": 1,
        "hand": "left"
      },
      {
        "midi": 32,
        "time": 23.638,
        "duration": 0.067,
        "velocity": 1,
        "hand": "left"
      },
      {
        "midi": 44,
        "time": 23.638,
        "duration": 0.067,
        "velocity": 1,
        "hand": "left"
      },
      {
        "midi": 34,
        "time": 23.772,
        "duration": 0.067,
        "velocity": 1,
        "hand": "left"
      },
      {
        "midi": 46,
        "time": 23.772,
        "duration": 0.067,
        "velocity": 1,
        "hand": "left"
      },
      {
        "midi": 36,
        "time": 23.839,
        "duration": 0.067,
        "velocity": 1,
        "hand": "left"
      },
      {
        "midi": 48,
        "time": 23.839,
        "duration": 0.067,
        "velocity": 1,
        "hand": "left"
      },
      {
        "midi": 37,
        "time": 23.906,
        "duration": 0.067,
        "velocity": 1,
        "hand": "left"
      },
      {
        "midi": 49,
        "time": 23.906,
        "duration": 0.067,
        "velocity": 1,
        "hand": "left"
      },
      {
        "midi": 39,
        "time": 24.04,
        "duration": 0.067,
        "velocity": 1,
        "hand": "left"
      },
      {
        "midi": 51,
        "time": 24.04,
        "duration": 0.067,
        "velocity": 1,
        "hand": "left"
      },
      {
        "midi": 41,
        "time": 24.107,
        "duration": 0.067,
        "velocity": 1,
        "hand": "left"
      },
      {
        "midi": 53,
        "time": 24.107,
        "duration": 0.067,
        "velocity": 1,
        "hand": "left"
      },
      {
        "midi": 42,
        "time": 24.174,
        "duration": 0.067,
        "velocity": 1,
        "hand": "left"
      },
      {
        "midi": 54,
        "time": 24.174,
        "duration": 0.067,
        "velocity": 1,
        "hand": "left"
      },
      {
        "midi": 43,
        "time": 24.308,
        "duration": 0.067,
        "velocity": 1,
        "hand": "left"
      },
      {
        "midi": 55,
        "time": 24.308,
        "duration": 0.067,
        "velocity": 1,
        "hand": "left"
      },
      {
        "midi": 44,
        "time": 24.375,
        "duration": 0.067,
        "velocity": 1,
        "hand": "left"
      },
      {
        "midi": 56,
        "time": 24.375,
        "duration": 0.067,
        "velocity": 1,
        "hand": "left"
      },
      {
        "midi": 41,
        "time": 24.442,
        "duration": 0.067,
        "velocity": 1,
        "hand": "left"
      },
      {
        "midi": 53,
        "time": 24.442,
        "duration": 0.067,
        "velocity": 1,
        "hand": "left"
      },
      {
        "midi": 46,
        "time": 24.576,
        "duration": 0.067,
        "velocity": 1,
        "hand": "left"
      },
      {
        "midi": 58,
        "time": 24.576,
        "duration": 0.067,
        "velocity": 1,
        "hand": "left"
      },
      {
        "midi": 44,
        "time": 24.643,
        "duration": 0.067,
        "velocity": 1,
        "hand": "left"
      },
      {
        "midi": 56,
        "time": 24.643,
        "duration": 0.067,
        "velocity": 1,
        "hand": "left"
      },
      {
        "midi": 53,
        "time": 24.71,
        "duration": 0.067,
        "velocity": 1,
        "hand": "left"
      },
      {
        "midi": 65,
        "time": 24.71,
        "duration": 0.067,
        "velocity": 1,
        "hand": "right"
      },
      {
        "midi": 51,
        "time": 24.844,
        "duration": 0.067,
        "velocity": 1,
        "hand": "left"
      },
      {
        "midi": 63,
        "time": 24.844,
        "duration": 0.067,
        "velocity": 1,
        "hand": "right"
      },
      {
        "midi": 49,
        "time": 24.911,
        "duration": 0.067,
        "velocity": 1,
        "hand": "left"
      },
      {
        "midi": 61,
        "time": 24.911,
        "duration": 0.067,
        "velocity": 1,
        "hand": "right"
      },
      {
        "midi": 48,
        "time": 24.978,
        "duration": 0.067,
        "velocity": 1,
        "hand": "left"
      },
      {
        "midi": 60,
        "time": 24.978,
        "duration": 0.067,
        "velocity": 1,
        "hand": "right"
      },
      {
        "midi": 46,
        "time": 25.112,
        "duration": 0.067,
        "velocity": 1,
        "hand": "left"
      },
      {
        "midi": 58,
        "time": 25.112,
        "duration": 0.067,
        "velocity": 1,
        "hand": "left"
      },
      {
        "midi": 44,
        "time": 25.179,
        "duration": 0.067,
        "velocity": 1,
        "hand": "left"
      },
      {
        "midi": 56,
        "time": 25.179,
        "duration": 0.067,
        "velocity": 1,
        "hand": "left"
      },
      {
        "midi": 41,
        "time": 25.246,
        "duration": 0.067,
        "velocity": 1,
        "hand": "left"
      },
      {
        "midi": 53,
        "time": 25.246,
        "duration": 0.067,
        "velocity": 1,
        "hand": "left"
      },
      {
        "midi": 42,
        "time": 25.379,
        "duration": 0.067,
        "velocity": 1,
        "hand": "left"
      },
      {
        "midi": 54,
        "time": 25.379,
        "duration": 0.067,
        "velocity": 1,
        "hand": "left"
      },
      {
        "midi": 44,
        "time": 25.446,
        "duration": 0.067,
        "velocity": 1,
        "hand": "left"
      },
      {
        "midi": 56,
        "time": 25.446,
        "duration": 0.067,
        "velocity": 1,
        "hand": "left"
      },
      {
        "midi": 41,
        "time": 25.513,
        "duration": 0.067,
        "velocity": 1,
        "hand": "left"
      },
      {
        "midi": 53,
        "time": 25.513,
        "duration": 0.067,
        "velocity": 1,
        "hand": "left"
      },
      {
        "midi": 46,
        "time": 25.647,
        "duration": 0.067,
        "velocity": 1,
        "hand": "left"
      },
      {
        "midi": 58,
        "time": 25.647,
        "duration": 0.067,
        "velocity": 1,
        "hand": "left"
      },
      {
        "midi": 44,
        "time": 25.714,
        "duration": 0.067,
        "velocity": 1,
        "hand": "left"
      },
      {
        "midi": 56,
        "time": 25.714,
        "duration": 0.067,
        "velocity": 1,
        "hand": "left"
      },
      {
        "midi": 39,
        "time": 25.781,
        "duration": 0.067,
        "velocity": 1,
        "hand": "left"
      },
      {
        "midi": 51,
        "time": 25.781,
        "duration": 0.067,
        "velocity": 1,
        "hand": "left"
      },
      {
        "midi": 41,
        "time": 25.915,
        "duration": 0.067,
        "velocity": 1,
        "hand": "left"
      },
      {
        "midi": 53,
        "time": 25.915,
        "duration": 0.067,
        "velocity": 1,
        "hand": "left"
      },
      {
        "midi": 42,
        "time": 25.982,
        "duration": 0.067,
        "velocity": 1,
        "hand": "left"
      },
      {
        "midi": 54,
        "time": 25.982,
        "duration": 0.067,
        "velocity": 1,
        "hand": "left"
      },
      {
        "midi": 39,
        "time": 26.049,
        "duration": 0.067,
        "velocity": 1,
        "hand": "left"
      },
      {
        "midi": 51,
        "time": 26.049,
        "duration": 0.067,
        "velocity": 1,
        "hand": "left"
      },
      {
        "midi": 46,
        "time": 26.183,
        "duration": 0.067,
        "velocity": 1,
        "hand": "left"
      },
      {
        "midi": 58,
        "time": 26.183,
        "duration": 0.067,
        "velocity": 1,
        "hand": "left"
      },
      {
        "midi": 44,
        "time": 26.25,
        "duration": 0.067,
        "velocity": 1,
        "hand": "left"
      },
      {
        "midi": 56,
        "time": 26.25,
        "duration": 0.067,
        "velocity": 1,
        "hand": "left"
      },
      {
        "midi": 37,
        "time": 26.317,
        "duration": 0.067,
        "velocity": 1,
        "hand": "left"
      },
      {
        "midi": 49,
        "time": 26.317,
        "duration": 0.067,
        "velocity": 1,
        "hand": "left"
      },
      {
        "midi": 39,
        "time": 26.451,
        "duration": 0.067,
        "velocity": 1,
        "hand": "left"
      },
      {
        "midi": 51,
        "time": 26.451,
        "duration": 0.067,
        "velocity": 1,
        "hand": "left"
      },
      {
        "midi": 41,
        "time": 26.518,
        "duration": 0.067,
        "velocity": 1,
        "hand": "left"
      },
      {
        "midi": 53,
        "time": 26.518,
        "duration": 0.067,
        "velocity": 1,
        "hand": "left"
      },
      {
        "midi": 37,
        "time": 26.585,
        "duration": 0.067,
        "velocity": 1,
        "hand": "left"
      },
      {
        "midi": 49,
        "time": 26.585,
        "duration": 0.067,
        "velocity": 1,
        "hand": "left"
      },
      {
        "midi": 46,
        "time": 26.719,
        "duration": 0.067,
        "velocity": 1,
        "hand": "left"
      },
      {
        "midi": 58,
        "time": 26.719,
        "duration": 0.067,
        "velocity": 1,
        "hand": "left"
      },
      {
        "midi": 44,
        "time": 26.786,
        "duration": 0.067,
        "velocity": 1,
        "hand": "left"
      },
      {
        "midi": 56,
        "time": 26.786,
        "duration": 0.067,
        "velocity": 1,
        "hand": "left"
      },
      {
        "midi": 36,
        "time": 26.853,
        "duration": 0.067,
        "velocity": 1,
        "hand": "left"
      },
      {
        "midi": 48,
        "time": 26.853,
        "duration": 0.067,
        "velocity": 1,
        "hand": "left"
      },
      {
        "midi": 37,
        "time": 26.987,
        "duration": 0.067,
        "velocity": 1,
        "hand": "left"
      },
      {
        "midi": 49,
        "time": 26.987,
        "duration": 0.067,
        "velocity": 1,
        "hand": "left"
      },
      {
        "midi": 39,
        "time": 27.054,
        "duration": 0.067,
        "velocity": 1,
        "hand": "left"
      },
      {
        "midi": 51,
        "time": 27.054,
        "duration": 0.067,
        "velocity": 1,
        "hand": "left"
      },
      {
        "midi": 36,
        "time": 27.121,
        "duration": 0.067,
        "velocity": 1,
        "hand": "left"
      },
      {
        "midi": 48,
        "time": 27.121,
        "duration": 0.067,
        "velocity": 1,
        "hand": "left"
      },
      {
        "midi": 41,
        "time": 27.254,
        "duration": 0.067,
        "velocity": 1,
        "hand": "left"
      },
      {
        "midi": 53,
        "time": 27.254,
        "duration": 0.067,
        "velocity": 1,
        "hand": "left"
      },
      {
        "midi": 39,
        "time": 27.321,
        "duration": 0.067,
        "velocity": 1,
        "hand": "left"
      },
      {
        "midi": 51,
        "time": 27.321,
        "duration": 0.067,
        "velocity": 1,
        "hand": "left"
      },
      {
        "midi": 34,
        "time": 27.388,
        "duration": 0.067,
        "velocity": 1,
        "hand": "left"
      },
      {
        "midi": 46,
        "time": 27.388,
        "duration": 0.067,
        "velocity": 1,
        "hand": "left"
      },
      {
        "midi": 41,
        "time": 27.522,
        "duration": 0.067,
        "velocity": 1,
        "hand": "left"
      },
      {
        "midi": 53,
        "time": 27.522,
        "duration": 0.067,
        "velocity": 1,
        "hand": "left"
      },
      {
        "midi": 39,
        "time": 27.589,
        "duration": 0.067,
        "velocity": 1,
        "hand": "left"
      },
      {
        "midi": 51,
        "time": 27.589,
        "duration": 0.067,
        "velocity": 1,
        "hand": "left"
      },
      {
        "midi": 32,
        "time": 27.656,
        "duration": 0.067,
        "velocity": 1,
        "hand": "left"
      },
      {
        "midi": 44,
        "time": 27.656,
        "duration": 0.067,
        "velocity": 1,
        "hand": "left"
      },
      {
        "midi": 34,
        "time": 27.79,
        "duration": 0.067,
        "velocity": 1,
        "hand": "left"
      },
      {
        "midi": 46,
        "time": 27.79,
        "duration": 0.067,
        "velocity": 1,
        "hand": "left"
      },
      {
        "midi": 32,
        "time": 27.857,
        "duration": 0.067,
        "velocity": 1,
        "hand": "left"
      },
      {
        "midi": 44,
        "time": 27.857,
        "duration": 0.067,
        "velocity": 1,
        "hand": "left"
      },
      {
        "midi": 37,
        "time": 27.924,
        "duration": 0.067,
        "velocity": 1,
        "hand": "left"
      },
      {
        "midi": 49,
        "time": 27.924,
        "duration": 0.067,
        "velocity": 1,
        "hand": "left"
      },
      {
        "midi": 39,
        "time": 28.058,
        "duration": 0.067,
        "velocity": 1,
        "hand": "left"
      },
      {
        "midi": 51,
        "time": 28.058,
        "duration": 0.067,
        "velocity": 1,
        "hand": "left"
      },
      {
        "midi": 41,
        "time": 28.125,
        "duration": 0.067,
        "velocity": 1,
        "hand": "left"
      },
      {
        "midi": 53,
        "time": 28.125,
        "duration": 0.067,
        "velocity": 1,
        "hand": "left"
      },
      {
        "midi": 42,
        "time": 28.192,
        "duration": 0.067,
        "velocity": 1,
        "hand": "left"
      },
      {
        "midi": 54,
        "time": 28.192,
        "duration": 0.067,
        "velocity": 1,
        "hand": "left"
      },
      {
        "midi": 44,
        "time": 28.326,
        "duration": 0.067,
        "velocity": 1,
        "hand": "left"
      },
      {
        "midi": 56,
        "time": 28.326,
        "duration": 0.067,
        "velocity": 1,
        "hand": "left"
      },
      {
        "midi": 46,
        "time": 28.393,
        "duration": 0.067,
        "velocity": 1,
        "hand": "left"
      },
      {
        "midi": 58,
        "time": 28.393,
        "duration": 0.067,
        "velocity": 1,
        "hand": "left"
      },
      {
        "midi": 48,
        "time": 28.46,
        "duration": 0.067,
        "velocity": 1,
        "hand": "left"
      },
      {
        "midi": 60,
        "time": 28.46,
        "duration": 0.067,
        "velocity": 1,
        "hand": "right"
      },
      {
        "midi": 49,
        "time": 28.594,
        "duration": 0.067,
        "velocity": 1,
        "hand": "left"
      },
      {
        "midi": 61,
        "time": 28.594,
        "duration": 0.067,
        "velocity": 1,
        "hand": "right"
      },
      {
        "midi": 51,
        "time": 28.661,
        "duration": 0.067,
        "velocity": 1,
        "hand": "left"
      },
      {
        "midi": 63,
        "time": 28.661,
        "duration": 0.067,
        "velocity": 1,
        "hand": "right"
      },
      {
        "midi": 53,
        "time": 28.728,
        "duration": 0.067,
        "velocity": 1,
        "hand": "left"
      },
      {
        "midi": 65,
        "time": 28.728,
        "duration": 0.067,
        "velocity": 1,
        "hand": "right"
      },
      {
        "midi": 54,
        "time": 28.862,
        "duration": 0.067,
        "velocity": 1,
        "hand": "left"
      },
      {
        "midi": 66,
        "time": 28.862,
        "duration": 0.067,
        "velocity": 1,
        "hand": "right"
      },
      {
        "midi": 56,
        "time": 28.929,
        "duration": 0.067,
        "velocity": 1,
        "hand": "left"
      },
      {
        "midi": 68,
        "time": 28.929,
        "duration": 0.067,
        "velocity": 1,
        "hand": "right"
      },
      {
        "midi": 65,
        "time": 28.996,
        "duration": 0.067,
        "velocity": 1,
        "hand": "right"
      },
      {
        "midi": 77,
        "time": 28.996,
        "duration": 0.067,
        "velocity": 1,
        "hand": "right"
      },
      {
        "midi": 63,
        "time": 29.129,
        "duration": 0.067,
        "velocity": 1,
        "hand": "right"
      },
      {
        "midi": 75,
        "time": 29.129,
        "duration": 0.067,
        "velocity": 1,
        "hand": "right"
      },
      {
        "midi": 61,
        "time": 29.196,
        "duration": 0.067,
        "velocity": 1,
        "hand": "right"
      },
      {
        "midi": 73,
        "time": 29.196,
        "duration": 0.067,
        "velocity": 1,
        "hand": "right"
      },
      {
        "midi": 60,
        "time": 29.263,
        "duration": 0.067,
        "velocity": 1,
        "hand": "right"
      },
      {
        "midi": 72,
        "time": 29.263,
        "duration": 0.067,
        "velocity": 1,
        "hand": "right"
      },
      {
        "midi": 58,
        "time": 29.397,
        "duration": 0.067,
        "velocity": 1,
        "hand": "left"
      },
      {
        "midi": 70,
        "time": 29.397,
        "duration": 0.067,
        "velocity": 1,
        "hand": "right"
      },
      {
        "midi": 56,
        "time": 29.464,
        "duration": 0.067,
        "velocity": 1,
        "hand": "left"
      },
      {
        "midi": 68,
        "time": 29.464,
        "duration": 0.067,
        "velocity": 1,
        "hand": "right"
      },
      {
        "midi": 53,
        "time": 29.531,
        "duration": 0.067,
        "velocity": 1,
        "hand": "left"
      },
      {
        "midi": 65,
        "time": 29.531,
        "duration": 0.067,
        "velocity": 1,
        "hand": "right"
      },
      {
        "midi": 54,
        "time": 29.665,
        "duration": 0.067,
        "velocity": 1,
        "hand": "left"
      },
      {
        "midi": 66,
        "time": 29.665,
        "duration": 0.067,
        "velocity": 1,
        "hand": "right"
      },
      {
        "midi": 56,
        "time": 29.732,
        "duration": 0.067,
        "velocity": 1,
        "hand": "left"
      },
      {
        "midi": 68,
        "time": 29.732,
        "duration": 0.067,
        "velocity": 1,
        "hand": "right"
      },
      {
        "midi": 53,
        "time": 29.799,
        "duration": 0.067,
        "velocity": 1,
        "hand": "left"
      },
      {
        "midi": 65,
        "time": 29.799,
        "duration": 0.067,
        "velocity": 1,
        "hand": "right"
      },
      {
        "midi": 58,
        "time": 29.933,
        "duration": 0.067,
        "velocity": 1,
        "hand": "left"
      },
      {
        "midi": 70,
        "time": 29.933,
        "duration": 0.067,
        "velocity": 1,
        "hand": "right"
      },
      {
        "midi": 56,
        "time": 30,
        "duration": 0.067,
        "velocity": 1,
        "hand": "left"
      },
      {
        "midi": 68,
        "time": 30,
        "duration": 0.067,
        "velocity": 1,
        "hand": "right"
      },
      {
        "midi": 51,
        "time": 30.067,
        "duration": 0.067,
        "velocity": 1,
        "hand": "left"
      },
      {
        "midi": 63,
        "time": 30.067,
        "duration": 0.067,
        "velocity": 1,
        "hand": "right"
      },
      {
        "midi": 53,
        "time": 30.201,
        "duration": 0.067,
        "velocity": 1,
        "hand": "left"
      },
      {
        "midi": 65,
        "time": 30.201,
        "duration": 0.067,
        "velocity": 1,
        "hand": "right"
      },
      {
        "midi": 54,
        "time": 30.268,
        "duration": 0.067,
        "velocity": 1,
        "hand": "left"
      },
      {
        "midi": 66,
        "time": 30.268,
        "duration": 0.067,
        "velocity": 1,
        "hand": "right"
      },
      {
        "midi": 51,
        "time": 30.335,
        "duration": 0.067,
        "velocity": 1,
        "hand": "left"
      },
      {
        "midi": 63,
        "time": 30.335,
        "duration": 0.067,
        "velocity": 1,
        "hand": "right"
      },
      {
        "midi": 58,
        "time": 30.469,
        "duration": 0.067,
        "velocity": 1,
        "hand": "left"
      },
      {
        "midi": 70,
        "time": 30.469,
        "duration": 0.067,
        "velocity": 1,
        "hand": "right"
      },
      {
        "midi": 56,
        "time": 30.536,
        "duration": 0.067,
        "velocity": 1,
        "hand": "left"
      },
      {
        "midi": 68,
        "time": 30.536,
        "duration": 0.067,
        "velocity": 1,
        "hand": "right"
      },
      {
        "midi": 49,
        "time": 30.603,
        "duration": 0.067,
        "velocity": 1,
        "hand": "left"
      },
      {
        "midi": 61,
        "time": 30.603,
        "duration": 0.067,
        "velocity": 1,
        "hand": "right"
      },
      {
        "midi": 51,
        "time": 30.737,
        "duration": 0.067,
        "velocity": 1,
        "hand": "left"
      },
      {
        "midi": 63,
        "time": 30.737,
        "duration": 0.067,
        "velocity": 1,
        "hand": "right"
      },
      {
        "midi": 53,
        "time": 30.804,
        "duration": 0.067,
        "velocity": 1,
        "hand": "left"
      },
      {
        "midi": 65,
        "time": 30.804,
        "duration": 0.067,
        "velocity": 1,
        "hand": "right"
      },
      {
        "midi": 49,
        "time": 30.871,
        "duration": 0.067,
        "velocity": 1,
        "hand": "left"
      },
      {
        "midi": 61,
        "time": 30.871,
        "duration": 0.067,
        "velocity": 1,
        "hand": "right"
      },
      {
        "midi": 58,
        "time": 31.004,
        "duration": 0.067,
        "velocity": 1,
        "hand": "left"
      },
      {
        "midi": 70,
        "time": 31.004,
        "duration": 0.067,
        "velocity": 1,
        "hand": "right"
      },
      {
        "midi": 56,
        "time": 31.071,
        "duration": 0.067,
        "velocity": 1,
        "hand": "left"
      },
      {
        "midi": 68,
        "time": 31.071,
        "duration": 0.067,
        "velocity": 1,
        "hand": "right"
      },
      {
        "midi": 48,
        "time": 31.138,
        "duration": 0.067,
        "velocity": 1,
        "hand": "left"
      },
      {
        "midi": 60,
        "time": 31.138,
        "duration": 0.067,
        "velocity": 1,
        "hand": "right"
      },
      {
        "midi": 49,
        "time": 31.272,
        "duration": 0.067,
        "velocity": 1,
        "hand": "left"
      },
      {
        "midi": 61,
        "time": 31.272,
        "duration": 0.067,
        "velocity": 1,
        "hand": "right"
      },
      {
        "midi": 51,
        "time": 31.339,
        "duration": 0.067,
        "velocity": 1,
        "hand": "left"
      },
      {
        "midi": 63,
        "time": 31.339,
        "duration": 0.067,
        "velocity": 1,
        "hand": "right"
      },
      {
        "midi": 48,
        "time": 31.406,
        "duration": 0.067,
        "velocity": 1,
        "hand": "left"
      },
      {
        "midi": 60,
        "time": 31.406,
        "duration": 0.067,
        "velocity": 1,
        "hand": "right"
      },
      {
        "midi": 53,
        "time": 31.54,
        "duration": 0.067,
        "velocity": 1,
        "hand": "left"
      },
      {
        "midi": 65,
        "time": 31.54,
        "duration": 0.067,
        "velocity": 1,
        "hand": "right"
      },
      {
        "midi": 51,
        "time": 31.607,
        "duration": 0.067,
        "velocity": 1,
        "hand": "left"
      },
      {
        "midi": 63,
        "time": 31.607,
        "duration": 0.067,
        "velocity": 1,
        "hand": "right"
      },
      {
        "midi": 46,
        "time": 31.674,
        "duration": 0.067,
        "velocity": 1,
        "hand": "left"
      },
      {
        "midi": 58,
        "time": 31.674,
        "duration": 0.067,
        "velocity": 1,
        "hand": "left"
      },
      {
        "midi": 53,
        "time": 31.808,
        "duration": 0.067,
        "velocity": 1,
        "hand": "left"
      },
      {
        "midi": 65,
        "time": 31.808,
        "duration": 0.067,
        "velocity": 1,
        "hand": "right"
      },
      {
        "midi": 51,
        "time": 31.875,
        "duration": 0.067,
        "velocity": 1,
        "hand": "left"
      },
      {
        "midi": 63,
        "time": 31.875,
        "duration": 0.067,
        "velocity": 1,
        "hand": "right"
      },
      {
        "midi": 44,
        "time": 31.942,
        "duration": 0.067,
        "velocity": 1,
        "hand": "left"
      },
      {
        "midi": 56,
        "time": 31.942,
        "duration": 0.067,
        "velocity": 1,
        "hand": "left"
      },
      {
        "midi": 53,
        "time": 32.076,
        "duration": 0.067,
        "velocity": 1,
        "hand": "left"
      },
      {
        "midi": 65,
        "time": 32.076,
        "duration": 0.067,
        "velocity": 1,
        "hand": "right"
      },
      {
        "midi": 54,
        "time": 32.143,
        "duration": 0.067,
        "velocity": 1,
        "hand": "left"
      },
      {
        "midi": 66,
        "time": 32.143,
        "duration": 0.067,
        "velocity": 1,
        "hand": "right"
      },
      {
        "midi": 53,
        "time": 32.21,
        "duration": 0.067,
        "velocity": 1,
        "hand": "left"
      },
      {
        "midi": 65,
        "time": 32.21,
        "duration": 0.067,
        "velocity": 1,
        "hand": "right"
      },
      {
        "midi": 51,
        "time": 32.344,
        "duration": 0.067,
        "velocity": 1,
        "hand": "left"
      },
      {
        "midi": 63,
        "time": 32.344,
        "duration": 0.067,
        "velocity": 1,
        "hand": "right"
      },
      {
        "midi": 49,
        "time": 32.411,
        "duration": 0.067,
        "velocity": 1,
        "hand": "left"
      },
      {
        "midi": 61,
        "time": 32.411,
        "duration": 0.067,
        "velocity": 1,
        "hand": "right"
      },
      {
        "midi": 48,
        "time": 32.478,
        "duration": 0.067,
        "velocity": 1,
        "hand": "left"
      },
      {
        "midi": 60,
        "time": 32.478,
        "duration": 0.067,
        "velocity": 1,
        "hand": "right"
      },
      {
        "midi": 46,
        "time": 32.612,
        "duration": 0.067,
        "velocity": 1,
        "hand": "left"
      },
      {
        "midi": 58,
        "time": 32.612,
        "duration": 0.067,
        "velocity": 1,
        "hand": "left"
      },
      {
        "midi": 45,
        "time": 32.679,
        "duration": 0.067,
        "velocity": 1,
        "hand": "left"
      },
      {
        "midi": 57,
        "time": 32.679,
        "duration": 0.067,
        "velocity": 1,
        "hand": "left"
      },
      {
        "midi": 53,
        "time": 32.746,
        "duration": 0.067,
        "velocity": 1,
        "hand": "left"
      },
      {
        "midi": 65,
        "time": 32.746,
        "duration": 0.067,
        "velocity": 1,
        "hand": "right"
      },
      {
        "midi": 48,
        "time": 32.879,
        "duration": 0.067,
        "velocity": 1,
        "hand": "left"
      },
      {
        "midi": 60,
        "time": 32.879,
        "duration": 0.067,
        "velocity": 1,
        "hand": "right"
      },
      {
        "midi": 51,
        "time": 32.946,
        "duration": 0.067,
        "velocity": 1,
        "hand": "left"
      },
      {
        "midi": 63,
        "time": 32.946,
        "duration": 0.067,
        "velocity": 1,
        "hand": "right"
      },
      {
        "midi": 49,
        "time": 33.013,
        "duration": 0.067,
        "velocity": 1,
        "hand": "left"
      },
      {
        "midi": 61,
        "time": 33.013,
        "duration": 0.067,
        "velocity": 1,
        "hand": "right"
      },
      {
        "midi": 46,
        "time": 33.147,
        "duration": 0.067,
        "velocity": 1,
        "hand": "left"
      },
      {
        "midi": 58,
        "time": 33.147,
        "duration": 0.067,
        "velocity": 1,
        "hand": "left"
      },
      {
        "midi": 45,
        "time": 33.214,
        "duration": 0.067,
        "velocity": 1,
        "hand": "left"
      },
      {
        "midi": 57,
        "time": 33.214,
        "duration": 0.067,
        "velocity": 1,
        "hand": "left"
      },
      {
        "midi": 53,
        "time": 33.281,
        "duration": 0.067,
        "velocity": 1,
        "hand": "left"
      },
      {
        "midi": 65,
        "time": 33.281,
        "duration": 0.067,
        "velocity": 1,
        "hand": "right"
      },
      {
        "midi": 48,
        "time": 33.415,
        "duration": 0.067,
        "velocity": 1,
        "hand": "left"
      },
      {
        "midi": 60,
        "time": 33.415,
        "duration": 0.067,
        "velocity": 1,
        "hand": "right"
      },
      {
        "midi": 51,
        "time": 33.482,
        "duration": 0.067,
        "velocity": 1,
        "hand": "left"
      },
      {
        "midi": 63,
        "time": 33.482,
        "duration": 0.067,
        "velocity": 1,
        "hand": "right"
      },
      {
        "midi": 49,
        "time": 33.549,
        "duration": 0.067,
        "velocity": 1,
        "hand": "left"
      },
      {
        "midi": 61,
        "time": 33.549,
        "duration": 0.067,
        "velocity": 1,
        "hand": "right"
      },
      {
        "midi": 46,
        "time": 33.683,
        "duration": 0.067,
        "velocity": 1,
        "hand": "left"
      },
      {
        "midi": 58,
        "time": 33.683,
        "duration": 0.067,
        "velocity": 1,
        "hand": "left"
      },
      {
        "midi": 45,
        "time": 33.75,
        "duration": 0.067,
        "velocity": 1,
        "hand": "left"
      },
      {
        "midi": 57,
        "time": 33.75,
        "duration": 0.067,
        "velocity": 1,
        "hand": "left"
      },
      {
        "midi": 53,
        "time": 33.817,
        "duration": 0.067,
        "velocity": 1,
        "hand": "left"
      },
      {
        "midi": 65,
        "time": 33.817,
        "duration": 0.067,
        "velocity": 1,
        "hand": "right"
      },
      {
        "midi": 48,
        "time": 33.951,
        "duration": 0.067,
        "velocity": 1,
        "hand": "left"
      },
      {
        "midi": 60,
        "time": 33.951,
        "duration": 0.067,
        "velocity": 1,
        "hand": "right"
      },
      {
        "midi": 51,
        "time": 34.018,
        "duration": 0.067,
        "velocity": 1,
        "hand": "left"
      },
      {
        "midi": 63,
        "time": 34.018,
        "duration": 0.067,
        "velocity": 1,
        "hand": "right"
      },
      {
        "midi": 49,
        "time": 34.085,
        "duration": 0.067,
        "velocity": 1,
        "hand": "left"
      },
      {
        "midi": 61,
        "time": 34.085,
        "duration": 0.067,
        "velocity": 1,
        "hand": "right"
      },
      {
        "midi": 46,
        "time": 34.219,
        "duration": 0.067,
        "velocity": 1,
        "hand": "left"
      },
      {
        "midi": 58,
        "time": 34.219,
        "duration": 0.067,
        "velocity": 1,
        "hand": "left"
      },
      {
        "midi": 56,
        "time": 34.286,
        "duration": 0.067,
        "velocity": 1,
        "hand": "left"
      },
      {
        "midi": 68,
        "time": 34.286,
        "duration": 0.067,
        "velocity": 1,
        "hand": "right"
      },
      {
        "midi": 55,
        "time": 34.353,
        "duration": 0.067,
        "velocity": 1,
        "hand": "left"
      },
      {
        "midi": 67,
        "time": 34.353,
        "duration": 0.067,
        "velocity": 1,
        "hand": "right"
      },
      {
        "midi": 53,
        "time": 34.487,
        "duration": 0.067,
        "velocity": 1,
        "hand": "left"
      },
      {
        "midi": 65,
        "time": 34.487,
        "duration": 0.067,
        "velocity": 1,
        "hand": "right"
      },
      {
        "midi": 51,
        "time": 34.554,
        "duration": 0.067,
        "velocity": 1,
        "hand": "left"
      },
      {
        "midi": 63,
        "time": 34.554,
        "duration": 0.067,
        "velocity": 1,
        "hand": "right"
      },
      {
        "midi": 50,
        "time": 34.621,
        "duration": 0.067,
        "velocity": 1,
        "hand": "left"
      },
      {
        "midi": 62,
        "time": 34.621,
        "duration": 0.067,
        "velocity": 1,
        "hand": "right"
      },
      {
        "midi": 48,
        "time": 34.754,
        "duration": 0.067,
        "velocity": 1,
        "hand": "left"
      },
      {
        "midi": 60,
        "time": 34.754,
        "duration": 0.067,
        "velocity": 1,
        "hand": "right"
      },
      {
        "midi": 47,
        "time": 34.821,
        "duration": 0.067,
        "velocity": 1,
        "hand": "left"
      },
      {
        "midi": 59,
        "time": 34.821,
        "duration": 0.067,
        "velocity": 1,
        "hand": "left"
      },
      {
        "midi": 55,
        "time": 34.888,
        "duration": 0.067,
        "velocity": 1,
        "hand": "left"
      },
      {
        "midi": 67,
        "time": 34.888,
        "duration": 0.067,
        "velocity": 1,
        "hand": "right"
      },
      {
        "midi": 50,
        "time": 35.022,
        "duration": 0.067,
        "velocity": 1,
        "hand": "left"
      },
      {
        "midi": 62,
        "time": 35.022,
        "duration": 0.067,
        "velocity": 1,
        "hand": "right"
      },
      {
        "midi": 53,
        "time": 35.089,
        "duration": 0.067,
        "velocity": 1,
        "hand": "left"
      },
      {
        "midi": 65,
        "time": 35.089,
        "duration": 0.067,
        "velocity": 1,
        "hand": "right"
      },
      {
        "midi": 51,
        "time": 35.156,
        "duration": 0.067,
        "velocity": 1,
        "hand": "left"
      },
      {
        "midi": 63,
        "time": 35.156,
        "duration": 0.067,
        "velocity": 1,
        "hand": "right"
      },
      {
        "midi": 48,
        "time": 35.29,
        "duration": 0.067,
        "velocity": 1,
        "hand": "left"
      },
      {
        "midi": 60,
        "time": 35.29,
        "duration": 0.067,
        "velocity": 1,
        "hand": "right"
      },
      {
        "midi": 47,
        "time": 35.357,
        "duration": 0.067,
        "velocity": 1,
        "hand": "left"
      },
      {
        "midi": 59,
        "time": 35.357,
        "duration": 0.067,
        "velocity": 1,
        "hand": "left"
      },
      {
        "midi": 55,
        "time": 35.424,
        "duration": 0.067,
        "velocity": 1,
        "hand": "left"
      },
      {
        "midi": 67,
        "time": 35.424,
        "duration": 0.067,
        "velocity": 1,
        "hand": "right"
      },
      {
        "midi": 50,
        "time": 35.558,
        "duration": 0.067,
        "velocity": 1,
        "hand": "left"
      },
      {
        "midi": 62,
        "time": 35.558,
        "duration": 0.067,
        "velocity": 1,
        "hand": "right"
      },
      {
        "midi": 53,
        "time": 35.625,
        "duration": 0.067,
        "velocity": 1,
        "hand": "left"
      },
      {
        "midi": 65,
        "time": 35.625,
        "duration": 0.067,
        "velocity": 1,
        "hand": "right"
      },
      {
        "midi": 51,
        "time": 35.692,
        "duration": 0.067,
        "velocity": 1,
        "hand": "left"
      },
      {
        "midi": 63,
        "time": 35.692,
        "duration": 0.067,
        "velocity": 1,
        "hand": "right"
      },
      {
        "midi": 48,
        "time": 35.826,
        "duration": 0.067,
        "velocity": 1,
        "hand": "left"
      },
      {
        "midi": 60,
        "time": 35.826,
        "duration": 0.067,
        "velocity": 1,
        "hand": "right"
      },
      {
        "midi": 47,
        "time": 35.893,
        "duration": 0.067,
        "velocity": 1,
        "hand": "left"
      },
      {
        "midi": 59,
        "time": 35.893,
        "duration": 0.067,
        "velocity": 1,
        "hand": "left"
      },
      {
        "midi": 55,
        "time": 35.96,
        "duration": 0.067,
        "velocity": 1,
        "hand": "left"
      },
      {
        "midi": 67,
        "time": 35.96,
        "duration": 0.067,
        "velocity": 1,
        "hand": "right"
      },
      {
        "midi": 50,
        "time": 36.094,
        "duration": 0.067,
        "velocity": 1,
        "hand": "left"
      },
      {
        "midi": 62,
        "time": 36.094,
        "duration": 0.067,
        "velocity": 1,
        "hand": "right"
      },
      {
        "midi": 53,
        "time": 36.161,
        "duration": 0.067,
        "velocity": 1,
        "hand": "left"
      },
      {
        "midi": 65,
        "time": 36.161,
        "duration": 0.067,
        "velocity": 1,
        "hand": "right"
      },
      {
        "midi": 51,
        "time": 36.228,
        "duration": 0.067,
        "velocity": 1,
        "hand": "left"
      },
      {
        "midi": 63,
        "time": 36.228,
        "duration": 0.067,
        "velocity": 1,
        "hand": "right"
      },
      {
        "midi": 48,
        "time": 36.362,
        "duration": 0.067,
        "velocity": 1,
        "hand": "left"
      },
      {
        "midi": 60,
        "time": 36.362,
        "duration": 0.067,
        "velocity": 1,
        "hand": "right"
      },
      {
        "midi": 61,
        "time": 36.429,
        "duration": 0.067,
        "velocity": 1,
        "hand": "right"
      },
      {
        "midi": 73,
        "time": 36.429,
        "duration": 0.067,
        "velocity": 1,
        "hand": "right"
      },
      {
        "midi": 60,
        "time": 36.496,
        "duration": 0.067,
        "velocity": 1,
        "hand": "right"
      },
      {
        "midi": 72,
        "time": 36.496,
        "duration": 0.067,
        "velocity": 1,
        "hand": "right"
      },
      {
        "midi": 58,
        "time": 36.629,
        "duration": 0.067,
        "velocity": 1,
        "hand": "left"
      },
      {
        "midi": 70,
        "time": 36.629,
        "duration": 0.067,
        "velocity": 1,
        "hand": "right"
      },
      {
        "midi": 56,
        "time": 36.696,
        "duration": 0.067,
        "velocity": 1,
        "hand": "left"
      },
      {
        "midi": 68,
        "time": 36.696,
        "duration": 0.067,
        "velocity": 1,
        "hand": "right"
      },
      {
        "midi": 55,
        "time": 36.763,
        "duration": 0.067,
        "velocity": 1,
        "hand": "left"
      },
      {
        "midi": 67,
        "time": 36.763,
        "duration": 0.067,
        "velocity": 1,
        "hand": "right"
      },
      {
        "midi": 53,
        "time": 36.897,
        "duration": 0.067,
        "velocity": 1,
        "hand": "left"
      },
      {
        "midi": 65,
        "time": 36.897,
        "duration": 0.067,
        "velocity": 1,
        "hand": "right"
      },
      {
        "midi": 58,
        "time": 36.964,
        "duration": 0.067,
        "velocity": 1,
        "hand": "left"
      },
      {
        "midi": 70,
        "time": 36.964,
        "duration": 0.067,
        "velocity": 1,
        "hand": "right"
      },
      {
        "midi": 52,
        "time": 37.031,
        "duration": 0.067,
        "velocity": 1,
        "hand": "left"
      },
      {
        "midi": 64,
        "time": 37.031,
        "duration": 0.067,
        "velocity": 1,
        "hand": "right"
      },
      {
        "midi": 55,
        "time": 37.165,
        "duration": 0.067,
        "velocity": 1,
        "hand": "left"
      },
      {
        "midi": 67,
        "time": 37.165,
        "duration": 0.067,
        "velocity": 1,
        "hand": "right"
      },
      {
        "midi": 49,
        "time": 37.232,
        "duration": 0.067,
        "velocity": 1,
        "hand": "left"
      },
      {
        "midi": 61,
        "time": 37.232,
        "duration": 0.067,
        "velocity": 1,
        "hand": "right"
      },
      {
        "midi": 52,
        "time": 37.299,
        "duration": 0.067,
        "velocity": 1,
        "hand": "left"
      },
      {
        "midi": 64,
        "time": 37.299,
        "duration": 0.067,
        "velocity": 1,
        "hand": "right"
      },
      {
        "midi": 48,
        "time": 37.433,
        "duration": 0.067,
        "velocity": 1,
        "hand": "left"
      },
      {
        "midi": 60,
        "time": 37.433,
        "duration": 0.067,
        "velocity": 1,
        "hand": "right"
      },
      {
        "midi": 61,
        "time": 37.5,
        "duration": 0.067,
        "velocity": 1,
        "hand": "right"
      },
      {
        "midi": 73,
        "time": 37.5,
        "duration": 0.067,
        "velocity": 1,
        "hand": "right"
      },
      {
        "midi": 60,
        "time": 37.567,
        "duration": 0.067,
        "velocity": 1,
        "hand": "right"
      },
      {
        "midi": 72,
        "time": 37.567,
        "duration": 0.067,
        "velocity": 1,
        "hand": "right"
      },
      {
        "midi": 58,
        "time": 37.701,
        "duration": 0.067,
        "velocity": 1,
        "hand": "left"
      },
      {
        "midi": 70,
        "time": 37.701,
        "duration": 0.067,
        "velocity": 1,
        "hand": "right"
      },
      {
        "midi": 56,
        "time": 37.768,
        "duration": 0.067,
        "velocity": 1,
        "hand": "left"
      },
      {
        "midi": 68,
        "time": 37.768,
        "duration": 0.067,
        "velocity": 1,
        "hand": "right"
      },
      {
        "midi": 55,
        "time": 37.835,
        "duration": 0.067,
        "velocity": 1,
        "hand": "left"
      },
      {
        "midi": 67,
        "time": 37.835,
        "duration": 0.067,
        "velocity": 1,
        "hand": "right"
      },
      {
        "midi": 53,
        "time": 37.969,
        "duration": 0.067,
        "velocity": 1,
        "hand": "left"
      },
      {
        "midi": 65,
        "time": 37.969,
        "duration": 0.067,
        "velocity": 1,
        "hand": "right"
      },
      {
        "midi": 58,
        "time": 38.036,
        "duration": 0.067,
        "velocity": 1,
        "hand": "left"
      },
      {
        "midi": 70,
        "time": 38.036,
        "duration": 0.067,
        "velocity": 1,
        "hand": "right"
      },
      {
        "midi": 52,
        "time": 38.103,
        "duration": 0.067,
        "velocity": 1,
        "hand": "left"
      },
      {
        "midi": 64,
        "time": 38.103,
        "duration": 0.067,
        "velocity": 1,
        "hand": "right"
      },
      {
        "midi": 55,
        "time": 38.237,
        "duration": 0.067,
        "velocity": 1,
        "hand": "left"
      },
      {
        "midi": 67,
        "time": 38.237,
        "duration": 0.067,
        "velocity": 1,
        "hand": "right"
      },
      {
        "midi": 49,
        "time": 38.304,
        "duration": 0.067,
        "velocity": 1,
        "hand": "left"
      },
      {
        "midi": 61,
        "time": 38.304,
        "duration": 0.067,
        "velocity": 1,
        "hand": "right"
      },
      {
        "midi": 52,
        "time": 38.371,
        "duration": 0.067,
        "velocity": 1,
        "hand": "left"
      },
      {
        "midi": 64,
        "time": 38.371,
        "duration": 0.067,
        "velocity": 1,
        "hand": "right"
      },
      {
        "midi": 48,
        "time": 38.504,
        "duration": 0.067,
        "velocity": 1,
        "hand": "left"
      },
      {
        "midi": 60,
        "time": 38.504,
        "duration": 0.067,
        "velocity": 1,
        "hand": "right"
      },
      {
        "midi": 58,
        "time": 38.571,
        "duration": 0.067,
        "velocity": 1,
        "hand": "left"
      },
      {
        "midi": 70,
        "time": 38.571,
        "duration": 0.067,
        "velocity": 1,
        "hand": "right"
      },
      {
        "midi": 52,
        "time": 38.638,
        "duration": 0.067,
        "velocity": 1,
        "hand": "left"
      },
      {
        "midi": 64,
        "time": 38.638,
        "duration": 0.067,
        "velocity": 1,
        "hand": "right"
      },
      {
        "midi": 55,
        "time": 38.772,
        "duration": 0.067,
        "velocity": 1,
        "hand": "left"
      },
      {
        "midi": 67,
        "time": 38.772,
        "duration": 0.067,
        "velocity": 1,
        "hand": "right"
      },
      {
        "midi": 49,
        "time": 38.839,
        "duration": 0.067,
        "velocity": 1,
        "hand": "left"
      },
      {
        "midi": 61,
        "time": 38.839,
        "duration": 0.067,
        "velocity": 1,
        "hand": "right"
      },
      {
        "midi": 52,
        "time": 38.906,
        "duration": 0.067,
        "velocity": 1,
        "hand": "left"
      },
      {
        "midi": 64,
        "time": 38.906,
        "duration": 0.067,
        "velocity": 1,
        "hand": "right"
      },
      {
        "midi": 48,
        "time": 39.04,
        "duration": 0.067,
        "velocity": 1,
        "hand": "left"
      },
      {
        "midi": 60,
        "time": 39.04,
        "duration": 0.067,
        "velocity": 1,
        "hand": "right"
      },
      {
        "midi": 55,
        "time": 39.107,
        "duration": 0.067,
        "velocity": 1,
        "hand": "left"
      },
      {
        "midi": 67,
        "time": 39.107,
        "duration": 0.067,
        "velocity": 1,
        "hand": "right"
      },
      {
        "midi": 49,
        "time": 39.174,
        "duration": 0.067,
        "velocity": 1,
        "hand": "left"
      },
      {
        "midi": 61,
        "time": 39.174,
        "duration": 0.067,
        "velocity": 1,
        "hand": "right"
      },
      {
        "midi": 52,
        "time": 39.308,
        "duration": 0.067,
        "velocity": 1,
        "hand": "left"
      },
      {
        "midi": 64,
        "time": 39.308,
        "duration": 0.067,
        "velocity": 1,
        "hand": "right"
      },
      {
        "midi": 48,
        "time": 39.375,
        "duration": 0.067,
        "velocity": 1,
        "hand": "left"
      },
      {
        "midi": 60,
        "time": 39.375,
        "duration": 0.067,
        "velocity": 1,
        "hand": "right"
      },
      {
        "midi": 52,
        "time": 39.442,
        "duration": 0.067,
        "velocity": 1,
        "hand": "left"
      },
      {
        "midi": 64,
        "time": 39.442,
        "duration": 0.067,
        "velocity": 1,
        "hand": "right"
      },
      {
        "midi": 46,
        "time": 39.576,
        "duration": 0.067,
        "velocity": 1,
        "hand": "left"
      },
      {
        "midi": 58,
        "time": 39.576,
        "duration": 0.067,
        "velocity": 1,
        "hand": "left"
      },
      {
        "midi": 52,
        "time": 39.643,
        "duration": 0.067,
        "velocity": 1,
        "hand": "left"
      },
      {
        "midi": 64,
        "time": 39.643,
        "duration": 0.067,
        "velocity": 1,
        "hand": "right"
      },
      {
        "midi": 46,
        "time": 39.71,
        "duration": 0.067,
        "velocity": 1,
        "hand": "left"
      },
      {
        "midi": 58,
        "time": 39.71,
        "duration": 0.067,
        "velocity": 1,
        "hand": "left"
      },
      {
        "midi": 49,
        "time": 39.844,
        "duration": 0.067,
        "velocity": 1,
        "hand": "left"
      },
      {
        "midi": 61,
        "time": 39.844,
        "duration": 0.067,
        "velocity": 1,
        "hand": "right"
      },
      {
        "midi": 45,
        "time": 39.911,
        "duration": 0.067,
        "velocity": 1,
        "hand": "left"
      },
      {
        "midi": 57,
        "time": 39.911,
        "duration": 0.067,
        "velocity": 1,
        "hand": "left"
      },
      {
        "midi": 46,
        "time": 39.978,
        "duration": 0.067,
        "velocity": 1,
        "hand": "left"
      },
      {
        "midi": 58,
        "time": 39.978,
        "duration": 0.067,
        "velocity": 1,
        "hand": "left"
      },
      {
        "midi": 44,
        "time": 40.112,
        "duration": 0.067,
        "velocity": 1,
        "hand": "left"
      },
      {
        "midi": 56,
        "time": 40.112,
        "duration": 0.067,
        "velocity": 1,
        "hand": "left"
      },
      {
        "midi": 49,
        "time": 40.179,
        "duration": 0.067,
        "velocity": 1,
        "hand": "left"
      },
      {
        "midi": 61,
        "time": 40.179,
        "duration": 0.067,
        "velocity": 1,
        "hand": "right"
      },
      {
        "midi": 44,
        "time": 40.246,
        "duration": 0.067,
        "velocity": 1,
        "hand": "left"
      },
      {
        "midi": 56,
        "time": 40.246,
        "duration": 0.067,
        "velocity": 1,
        "hand": "left"
      },
      {
        "midi": 46,
        "time": 40.379,
        "duration": 0.067,
        "velocity": 1,
        "hand": "left"
      },
      {
        "midi": 58,
        "time": 40.379,
        "duration": 0.067,
        "velocity": 1,
        "hand": "left"
      },
      {
        "midi": 43,
        "time": 40.446,
        "duration": 0.067,
        "velocity": 1,
        "hand": "left"
      },
      {
        "midi": 55,
        "time": 40.446,
        "duration": 0.067,
        "velocity": 1,
        "hand": "left"
      },
      {
        "midi": 46,
        "time": 40.513,
        "duration": 0.067,
        "velocity": 1,
        "hand": "left"
      },
      {
        "midi": 58,
        "time": 40.513,
        "duration": 0.067,
        "velocity": 1,
        "hand": "left"
      },
      {
        "midi": 42,
        "time": 40.647,
        "duration": 0.067,
        "velocity": 1,
        "hand": "left"
      },
      {
        "midi": 54,
        "time": 40.647,
        "duration": 0.067,
        "velocity": 1,
        "hand": "left"
      },
      {
        "midi": 41,
        "time": 40.714,
        "duration": 0.067,
        "velocity": 1,
        "hand": "left"
      },
      {
        "midi": 53,
        "time": 40.714,
        "duration": 0.067,
        "velocity": 1,
        "hand": "left"
      },
      {
        "midi": 43,
        "time": 40.781,
        "duration": 0.067,
        "velocity": 1,
        "hand": "left"
      },
      {
        "midi": 55,
        "time": 40.781,
        "duration": 0.067,
        "velocity": 1,
        "hand": "left"
      },
      {
        "midi": 46,
        "time": 40.915,
        "duration": 0.067,
        "velocity": 1,
        "hand": "left"
      },
      {
        "midi": 58,
        "time": 40.915,
        "duration": 0.067,
        "velocity": 1,
        "hand": "left"
      },
      {
        "midi": 49,
        "time": 40.982,
        "duration": 0.067,
        "velocity": 1,
        "hand": "left"
      },
      {
        "midi": 61,
        "time": 40.982,
        "duration": 0.067,
        "velocity": 1,
        "hand": "right"
      },
      {
        "midi": 40,
        "time": 41.049,
        "duration": 0.067,
        "velocity": 1,
        "hand": "left"
      },
      {
        "midi": 52,
        "time": 41.049,
        "duration": 0.067,
        "velocity": 1,
        "hand": "left"
      },
      {
        "midi": 43,
        "time": 41.183,
        "duration": 0.067,
        "velocity": 1,
        "hand": "left"
      },
      {
        "midi": 55,
        "time": 41.183,
        "duration": 0.067,
        "velocity": 1,
        "hand": "left"
      },
      {
        "midi": 41,
        "time": 41.25,
        "duration": 0.067,
        "velocity": 1,
        "hand": "left"
      },
      {
        "midi": 53,
        "time": 41.25,
        "duration": 0.067,
        "velocity": 1,
        "hand": "left"
      },
      {
        "midi": 43,
        "time": 41.317,
        "duration": 0.067,
        "velocity": 1,
        "hand": "left"
      },
      {
        "midi": 55,
        "time": 41.317,
        "duration": 0.067,
        "velocity": 1,
        "hand": "left"
      },
      {
        "midi": 46,
        "time": 41.451,
        "duration": 0.067,
        "velocity": 1,
        "hand": "left"
      },
      {
        "midi": 58,
        "time": 41.451,
        "duration": 0.067,
        "velocity": 1,
        "hand": "left"
      },
      {
        "midi": 49,
        "time": 41.518,
        "duration": 0.067,
        "velocity": 1,
        "hand": "left"
      },
      {
        "midi": 61,
        "time": 41.518,
        "duration": 0.067,
        "velocity": 1,
        "hand": "right"
      },
      {
        "midi": 40,
        "time": 41.585,
        "duration": 0.067,
        "velocity": 1,
        "hand": "left"
      },
      {
        "midi": 52,
        "time": 41.585,
        "duration": 0.067,
        "velocity": 1,
        "hand": "left"
      },
      {
        "midi": 43,
        "time": 41.719,
        "duration": 0.067,
        "velocity": 1,
        "hand": "left"
      },
      {
        "midi": 55,
        "time": 41.719,
        "duration": 0.067,
        "velocity": 1,
        "hand": "left"
      },
      {
        "midi": 43,
        "time": 41.786,
        "duration": 0.067,
        "velocity": 1,
        "hand": "left"
      },
      {
        "midi": 55,
        "time": 41.786,
        "duration": 0.067,
        "velocity": 1,
        "hand": "left"
      },
      {
        "midi": 45,
        "time": 41.853,
        "duration": 0.067,
        "velocity": 1,
        "hand": "left"
      },
      {
        "midi": 57,
        "time": 41.853,
        "duration": 0.067,
        "velocity": 1,
        "hand": "left"
      },
      {
        "midi": 48,
        "time": 41.987,
        "duration": 0.067,
        "velocity": 1,
        "hand": "left"
      },
      {
        "midi": 60,
        "time": 41.987,
        "duration": 0.067,
        "velocity": 1,
        "hand": "right"
      },
      {
        "midi": 51,
        "time": 42.054,
        "duration": 0.067,
        "velocity": 1,
        "hand": "left"
      },
      {
        "midi": 63,
        "time": 42.054,
        "duration": 0.067,
        "velocity": 1,
        "hand": "right"
      },
      {
        "midi": 42,
        "time": 42.121,
        "duration": 0.067,
        "velocity": 1,
        "hand": "left"
      },
      {
        "midi": 54,
        "time": 42.121,
        "duration": 0.067,
        "velocity": 1,
        "hand": "left"
      },
      {
        "midi": 45,
        "time": 42.254,
        "duration": 0.067,
        "velocity": 1,
        "hand": "left"
      },
      {
        "midi": 57,
        "time": 42.254,
        "duration": 0.067,
        "velocity": 1,
        "hand": "left"
      },
      {
        "midi": 43,
        "time": 42.321,
        "duration": 0.067,
        "velocity": 1,
        "hand": "left"
      },
      {
        "midi": 55,
        "time": 42.321,
        "duration": 0.067,
        "velocity": 1,
        "hand": "left"
      },
      {
        "midi": 45,
        "time": 42.388,
        "duration": 0.067,
        "velocity": 1,
        "hand": "left"
      },
      {
        "midi": 57,
        "time": 42.388,
        "duration": 0.067,
        "velocity": 1,
        "hand": "left"
      },
      {
        "midi": 48,
        "time": 42.522,
        "duration": 0.067,
        "velocity": 1,
        "hand": "left"
      },
      {
        "midi": 60,
        "time": 42.522,
        "duration": 0.067,
        "velocity": 1,
        "hand": "right"
      },
      {
        "midi": 51,
        "time": 42.589,
        "duration": 0.067,
        "velocity": 1,
        "hand": "left"
      },
      {
        "midi": 63,
        "time": 42.589,
        "duration": 0.067,
        "velocity": 1,
        "hand": "right"
      },
      {
        "midi": 42,
        "time": 42.656,
        "duration": 0.067,
        "velocity": 1,
        "hand": "left"
      },
      {
        "midi": 54,
        "time": 42.656,
        "duration": 0.067,
        "velocity": 1,
        "hand": "left"
      },
      {
        "midi": 45,
        "time": 42.79,
        "duration": 0.067,
        "velocity": 1,
        "hand": "left"
      },
      {
        "midi": 57,
        "time": 42.79,
        "duration": 0.067,
        "velocity": 1,
        "hand": "left"
      },
      {
        "midi": 46,
        "time": 42.857,
        "duration": 0.067,
        "velocity": 1,
        "hand": "left"
      },
      {
        "midi": 58,
        "time": 42.857,
        "duration": 0.067,
        "velocity": 1,
        "hand": "left"
      },
      {
        "midi": 48,
        "time": 42.924,
        "duration": 0.067,
        "velocity": 1,
        "hand": "left"
      },
      {
        "midi": 60,
        "time": 42.924,
        "duration": 0.067,
        "velocity": 1,
        "hand": "right"
      },
      {
        "midi": 51,
        "time": 43.058,
        "duration": 0.067,
        "velocity": 1,
        "hand": "left"
      },
      {
        "midi": 63,
        "time": 43.058,
        "duration": 0.067,
        "velocity": 1,
        "hand": "right"
      },
      {
        "midi": 54,
        "time": 43.125,
        "duration": 0.067,
        "velocity": 1,
        "hand": "left"
      },
      {
        "midi": 66,
        "time": 43.125,
        "duration": 0.067,
        "velocity": 1,
        "hand": "right"
      },
      {
        "midi": 45,
        "time": 43.192,
        "duration": 0.067,
        "velocity": 1,
        "hand": "left"
      },
      {
        "midi": 57,
        "time": 43.192,
        "duration": 0.067,
        "velocity": 1,
        "hand": "left"
      },
      {
        "midi": 48,
        "time": 43.326,
        "duration": 0.067,
        "velocity": 1,
        "hand": "left"
      },
      {
        "midi": 60,
        "time": 43.326,
        "duration": 0.067,
        "velocity": 1,
        "hand": "right"
      },
      {
        "midi": 49,
        "time": 43.393,
        "duration": 0.067,
        "velocity": 1,
        "hand": "left"
      },
      {
        "midi": 61,
        "time": 43.393,
        "duration": 0.067,
        "velocity": 1,
        "hand": "right"
      },
      {
        "midi": 51,
        "time": 43.46,
        "duration": 0.067,
        "velocity": 1,
        "hand": "left"
      },
      {
        "midi": 63,
        "time": 43.46,
        "duration": 0.067,
        "velocity": 1,
        "hand": "right"
      },
      {
        "midi": 54,
        "time": 43.594,
        "duration": 0.067,
        "velocity": 1,
        "hand": "left"
      },
      {
        "midi": 66,
        "time": 43.594,
        "duration": 0.067,
        "velocity": 1,
        "hand": "right"
      },
      {
        "midi": 57,
        "time": 43.661,
        "duration": 0.067,
        "velocity": 1,
        "hand": "left"
      },
      {
        "midi": 69,
        "time": 43.661,
        "duration": 0.067,
        "velocity": 1,
        "hand": "right"
      },
      {
        "midi": 48,
        "time": 43.728,
        "duration": 0.067,
        "velocity": 1,
        "hand": "left"
      },
      {
        "midi": 60,
        "time": 43.728,
        "duration": 0.067,
        "velocity": 1,
        "hand": "right"
      },
      {
        "midi": 51,
        "time": 43.862,
        "duration": 0.067,
        "velocity": 1,
        "hand": "left"
      },
      {
        "midi": 63,
        "time": 43.862,
        "duration": 0.067,
        "velocity": 1,
        "hand": "right"
      },
      {
        "midi": 49,
        "time": 43.929,
        "duration": 0.067,
        "velocity": 1,
        "hand": "left"
      },
      {
        "midi": 61,
        "time": 43.929,
        "duration": 0.067,
        "velocity": 1,
        "hand": "right"
      },
      {
        "midi": 51,
        "time": 43.996,
        "duration": 0.067,
        "velocity": 1,
        "hand": "left"
      },
      {
        "midi": 63,
        "time": 43.996,
        "duration": 0.067,
        "velocity": 1,
        "hand": "right"
      },
      {
        "midi": 54,
        "time": 44.129,
        "duration": 0.067,
        "velocity": 1,
        "hand": "left"
      },
      {
        "midi": 66,
        "time": 44.129,
        "duration": 0.067,
        "velocity": 1,
        "hand": "right"
      },
      {
        "midi": 57,
        "time": 44.196,
        "duration": 0.067,
        "velocity": 1,
        "hand": "left"
      },
      {
        "midi": 69,
        "time": 44.196,
        "duration": 0.067,
        "velocity": 1,
        "hand": "right"
      },
      {
        "midi": 48,
        "time": 44.263,
        "duration": 0.067,
        "velocity": 1,
        "hand": "left"
      },
      {
        "midi": 60,
        "time": 44.263,
        "duration": 0.067,
        "velocity": 1,
        "hand": "right"
      },
      {
        "midi": 51,
        "time": 44.397,
        "duration": 0.067,
        "velocity": 1,
        "hand": "left"
      },
      {
        "midi": 63,
        "time": 44.397,
        "duration": 0.067,
        "velocity": 1,
        "hand": "right"
      },
      {
        "midi": 54,
        "time": 44.464,
        "duration": 0.067,
        "velocity": 1,
        "hand": "left"
      },
      {
        "midi": 66,
        "time": 44.464,
        "duration": 0.067,
        "velocity": 1,
        "hand": "right"
      },
      {
        "midi": 58,
        "time": 44.531,
        "duration": 0.067,
        "velocity": 1,
        "hand": "left"
      },
      {
        "midi": 70,
        "time": 44.531,
        "duration": 0.067,
        "velocity": 1,
        "hand": "right"
      },
      {
        "midi": 60,
        "time": 44.665,
        "duration": 0.067,
        "velocity": 1,
        "hand": "right"
      },
      {
        "midi": 72,
        "time": 44.665,
        "duration": 0.067,
        "velocity": 1,
        "hand": "right"
      },
      {
        "midi": 63,
        "time": 44.732,
        "duration": 0.067,
        "velocity": 1,
        "hand": "right"
      },
      {
        "midi": 75,
        "time": 44.732,
        "duration": 0.067,
        "velocity": 1,
        "hand": "right"
      },
      {
        "midi": 53,
        "time": 44.799,
        "duration": 0.067,
        "velocity": 1,
        "hand": "left"
      },
      {
        "midi": 65,
        "time": 44.799,
        "duration": 0.067,
        "velocity": 1,
        "hand": "right"
      },
      {
        "midi": 57,
        "time": 44.933,
        "duration": 0.067,
        "velocity": 1,
        "hand": "left"
      },
      {
        "midi": 69,
        "time": 44.933,
        "duration": 0.067,
        "velocity": 1,
        "hand": "right"
      },
      {
        "midi": 58,
        "time": 45,
        "duration": 0.067,
        "velocity": 1,
        "hand": "left"
      },
      {
        "midi": 70,
        "time": 45,
        "duration": 0.067,
        "velocity": 1,
        "hand": "right"
      },
      {
        "midi": 61,
        "time": 45.067,
        "duration": 0.067,
        "velocity": 1,
        "hand": "right"
      },
      {
        "midi": 73,
        "time": 45.067,
        "duration": 0.067,
        "velocity": 1,
        "hand": "right"
      },
      {
        "midi": 66,
        "time": 45.201,
        "duration": 0.067,
        "velocity": 1,
        "hand": "right"
      },
      {
        "midi": 78,
        "time": 45.201,
        "duration": 0.067,
        "velocity": 1,
        "hand": "right"
      },
      {
        "midi": 65,
        "time": 45.268,
        "duration": 0.067,
        "velocity": 1,
        "hand": "right"
      },
      {
        "midi": 77,
        "time": 45.268,
        "duration": 0.067,
        "velocity": 1,
        "hand": "right"
      },
      {
        "midi": 60,
        "time": 45.335,
        "duration": 0.067,
        "velocity": 1,
        "hand": "right"
      },
      {
        "midi": 72,
        "time": 45.335,
        "duration": 0.067,
        "velocity": 1,
        "hand": "right"
      },
      {
        "midi": 61,
        "time": 45.469,
        "duration": 0.067,
        "velocity": 1,
        "hand": "right"
      },
      {
        "midi": 73,
        "time": 45.469,
        "duration": 0.067,
        "velocity": 1,
        "hand": "right"
      },
      {
        "midi": 64,
        "time": 45.536,
        "duration": 0.067,
        "velocity": 1,
        "hand": "right"
      },
      {
        "midi": 76,
        "time": 45.536,
        "duration": 0.067,
        "velocity": 1,
        "hand": "right"
      },
      {
        "midi": 60,
        "time": 45.603,
        "duration": 0.067,
        "velocity": 1,
        "hand": "right"
      },
      {
        "midi": 72,
        "time": 45.603,
        "duration": 0.067,
        "velocity": 1,
        "hand": "right"
      },
      {
        "midi": 61,
        "time": 45.737,
        "duration": 0.067,
        "velocity": 1,
        "hand": "right"
      },
      {
        "midi": 73,
        "time": 45.737,
        "duration": 0.067,
        "velocity": 1,
        "hand": "right"
      },
      {
        "midi": 57,
        "time": 45.804,
        "duration": 0.067,
        "velocity": 1,
        "hand": "left"
      },
      {
        "midi": 69,
        "time": 45.804,
        "duration": 0.067,
        "velocity": 1,
        "hand": "right"
      },
      {
        "midi": 58,
        "time": 45.871,
        "duration": 0.067,
        "velocity": 1,
        "hand": "left"
      },
      {
        "midi": 70,
        "time": 45.871,
        "duration": 0.067,
        "velocity": 1,
        "hand": "right"
      },
      {
        "midi": 54,
        "time": 46.004,
        "duration": 0.067,
        "velocity": 1,
        "hand": "left"
      },
      {
        "midi": 66,
        "time": 46.004,
        "duration": 0.067,
        "velocity": 1,
        "hand": "right"
      },
      {
        "midi": 52,
        "time": 46.071,
        "duration": 0.067,
        "velocity": 1,
        "hand": "left"
      },
      {
        "midi": 64,
        "time": 46.071,
        "duration": 0.067,
        "velocity": 1,
        "hand": "right"
      },
      {
        "midi": 53,
        "time": 46.138,
        "duration": 0.067,
        "velocity": 1,
        "hand": "left"
      },
      {
        "midi": 65,
        "time": 46.138,
        "duration": 0.067,
        "velocity": 1,
        "hand": "right"
      },
      {
        "midi": 58,
        "time": 46.272,
        "duration": 0.067,
        "velocity": 1,
        "hand": "left"
      },
      {
        "midi": 70,
        "time": 46.272,
        "duration": 0.067,
        "velocity": 1,
        "hand": "right"
      },
      {
        "midi": 56,
        "time": 46.339,
        "duration": 0.067,
        "velocity": 1,
        "hand": "left"
      },
      {
        "midi": 68,
        "time": 46.339,
        "duration": 0.067,
        "velocity": 1,
        "hand": "right"
      },
      {
        "midi": 57,
        "time": 46.406,
        "duration": 0.067,
        "velocity": 1,
        "hand": "left"
      },
      {
        "midi": 69,
        "time": 46.406,
        "duration": 0.067,
        "velocity": 1,
        "hand": "right"
      },
      {
        "midi": 61,
        "time": 46.54,
        "duration": 0.067,
        "velocity": 1,
        "hand": "right"
      },
      {
        "midi": 73,
        "time": 46.54,
        "duration": 0.067,
        "velocity": 1,
        "hand": "right"
      },
      {
        "midi": 57,
        "time": 46.607,
        "duration": 0.067,
        "velocity": 1,
        "hand": "left"
      },
      {
        "midi": 69,
        "time": 46.607,
        "duration": 0.067,
        "velocity": 1,
        "hand": "right"
      },
      {
        "midi": 58,
        "time": 46.674,
        "duration": 0.067,
        "velocity": 1,
        "hand": "left"
      },
      {
        "midi": 70,
        "time": 46.674,
        "duration": 0.067,
        "velocity": 1,
        "hand": "right"
      },
      {
        "midi": 61,
        "time": 46.808,
        "duration": 0.067,
        "velocity": 1,
        "hand": "right"
      },
      {
        "midi": 73,
        "time": 46.808,
        "duration": 0.067,
        "velocity": 1,
        "hand": "right"
      },
      {
        "midi": 59,
        "time": 46.875,
        "duration": 0.067,
        "velocity": 1,
        "hand": "left"
      },
      {
        "midi": 71,
        "time": 46.875,
        "duration": 0.067,
        "velocity": 1,
        "hand": "right"
      },
      {
        "midi": 60,
        "time": 46.942,
        "duration": 0.067,
        "velocity": 1,
        "hand": "right"
      },
      {
        "midi": 72,
        "time": 46.942,
        "duration": 0.067,
        "velocity": 1,
        "hand": "right"
      },
      {
        "midi": 65,
        "time": 47.076,
        "duration": 0.067,
        "velocity": 1,
        "hand": "right"
      },
      {
        "midi": 77,
        "time": 47.076,
        "duration": 0.067,
        "velocity": 1,
        "hand": "right"
      },
      {
        "midi": 56,
        "time": 47.143,
        "duration": 0.067,
        "velocity": 1,
        "hand": "left"
      },
      {
        "midi": 68,
        "time": 47.143,
        "duration": 0.067,
        "velocity": 1,
        "hand": "right"
      },
      {
        "midi": 59,
        "time": 47.21,
        "duration": 0.067,
        "velocity": 1,
        "hand": "left"
      },
      {
        "midi": 71,
        "time": 47.21,
        "duration": 0.067,
        "velocity": 1,
        "hand": "right"
      },
      {
        "midi": 64,
        "time": 47.344,
        "duration": 0.067,
        "velocity": 1,
        "hand": "right"
      },
      {
        "midi": 76,
        "time": 47.344,
        "duration": 0.067,
        "velocity": 1,
        "hand": "right"
      },
      {
        "midi": 63,
        "time": 47.411,
        "duration": 0.067,
        "velocity": 1,
        "hand": "right"
      },
      {
        "midi": 75,
        "time": 47.411,
        "duration": 0.067,
        "velocity": 1,
        "hand": "right"
      },
      {
        "midi": 58,
        "time": 47.478,
        "duration": 0.067,
        "velocity": 1,
        "hand": "left"
      },
      {
        "midi": 70,
        "time": 47.478,
        "duration": 0.067,
        "velocity": 1,
        "hand": "right"
      },
      {
        "midi": 59,
        "time": 47.612,
        "duration": 0.067,
        "velocity": 1,
        "hand": "left"
      },
      {
        "midi": 71,
        "time": 47.612,
        "duration": 0.067,
        "velocity": 1,
        "hand": "right"
      },
      {
        "midi": 62,
        "time": 47.679,
        "duration": 0.067,
        "velocity": 1,
        "hand": "right"
      },
      {
        "midi": 74,
        "time": 47.679,
        "duration": 0.067,
        "velocity": 1,
        "hand": "right"
      },
      {
        "midi": 58,
        "time": 47.746,
        "duration": 0.067,
        "velocity": 1,
        "hand": "left"
      },
      {
        "midi": 70,
        "time": 47.746,
        "duration": 0.067,
        "velocity": 1,
        "hand": "right"
      },
      {
        "midi": 59,
        "time": 47.879,
        "duration": 0.067,
        "velocity": 1,
        "hand": "left"
      },
      {
        "midi": 71,
        "time": 47.879,
        "duration": 0.067,
        "velocity": 1,
        "hand": "right"
      },
      {
        "midi": 55,
        "time": 47.946,
        "duration": 0.067,
        "velocity": 1,
        "hand": "left"
      },
      {
        "midi": 67,
        "time": 47.946,
        "duration": 0.067,
        "velocity": 1,
        "hand": "right"
      },
      {
        "midi": 56,
        "time": 48.013,
        "duration": 0.067,
        "velocity": 1,
        "hand": "left"
      },
      {
        "midi": 68,
        "time": 48.013,
        "duration": 0.067,
        "velocity": 1,
        "hand": "right"
      },
      {
        "midi": 52,
        "time": 48.147,
        "duration": 0.067,
        "velocity": 1,
        "hand": "left"
      },
      {
        "midi": 64,
        "time": 48.147,
        "duration": 0.067,
        "velocity": 1,
        "hand": "right"
      },
      {
        "midi": 50,
        "time": 48.214,
        "duration": 0.067,
        "velocity": 1,
        "hand": "left"
      },
      {
        "midi": 62,
        "time": 48.214,
        "duration": 0.067,
        "velocity": 1,
        "hand": "right"
      },
      {
        "midi": 51,
        "time": 48.281,
        "duration": 0.067,
        "velocity": 1,
        "hand": "left"
      },
      {
        "midi": 63,
        "time": 48.281,
        "duration": 0.067,
        "velocity": 1,
        "hand": "right"
      },
      {
        "midi": 56,
        "time": 48.415,
        "duration": 0.067,
        "velocity": 1,
        "hand": "left"
      },
      {
        "midi": 68,
        "time": 48.415,
        "duration": 0.067,
        "velocity": 1,
        "hand": "right"
      },
      {
        "midi": 52,
        "time": 48.482,
        "duration": 0.067,
        "velocity": 1,
        "hand": "left"
      },
      {
        "midi": 64,
        "time": 48.482,
        "duration": 0.067,
        "velocity": 1,
        "hand": "right"
      },
      {
        "midi": 53,
        "time": 48.549,
        "duration": 0.067,
        "velocity": 1,
        "hand": "left"
      },
      {
        "midi": 65,
        "time": 48.549,
        "duration": 0.067,
        "velocity": 1,
        "hand": "right"
      },
      {
        "midi": 59,
        "time": 48.683,
        "duration": 0.067,
        "velocity": 1,
        "hand": "left"
      },
      {
        "midi": 71,
        "time": 48.683,
        "duration": 0.067,
        "velocity": 1,
        "hand": "right"
      },
      {
        "midi": 53,
        "time": 48.75,
        "duration": 0.067,
        "velocity": 1,
        "hand": "left"
      },
      {
        "midi": 65,
        "time": 48.75,
        "duration": 0.067,
        "velocity": 1,
        "hand": "right"
      },
      {
        "midi": 54,
        "time": 48.817,
        "duration": 0.067,
        "velocity": 1,
        "hand": "left"
      },
      {
        "midi": 66,
        "time": 48.817,
        "duration": 0.067,
        "velocity": 1,
        "hand": "right"
      },
      {
        "midi": 59,
        "time": 48.951,
        "duration": 0.067,
        "velocity": 1,
        "hand": "left"
      },
      {
        "midi": 71,
        "time": 48.951,
        "duration": 0.067,
        "velocity": 1,
        "hand": "right"
      },
      {
        "midi": 57,
        "time": 49.018,
        "duration": 0.067,
        "velocity": 1,
        "hand": "left"
      },
      {
        "midi": 69,
        "time": 49.018,
        "duration": 0.067,
        "velocity": 1,
        "hand": "right"
      },
      {
        "midi": 58,
        "time": 49.085,
        "duration": 0.067,
        "velocity": 1,
        "hand": "left"
      },
      {
        "midi": 70,
        "time": 49.085,
        "duration": 0.067,
        "velocity": 1,
        "hand": "right"
      },
      {
        "midi": 63,
        "time": 49.219,
        "duration": 0.067,
        "velocity": 1,
        "hand": "right"
      },
      {
        "midi": 75,
        "time": 49.219,
        "duration": 0.067,
        "velocity": 1,
        "hand": "right"
      },
      {
        "midi": 61,
        "time": 49.286,
        "duration": 0.067,
        "velocity": 1,
        "hand": "right"
      },
      {
        "midi": 73,
        "time": 49.286,
        "duration": 0.067,
        "velocity": 1,
        "hand": "right"
      },
      {
        "midi": 53,
        "time": 49.353,
        "duration": 0.067,
        "velocity": 1,
        "hand": "left"
      },
      {
        "midi": 65,
        "time": 49.353,
        "duration": 0.067,
        "velocity": 1,
        "hand": "right"
      },
      {
        "midi": 58,
        "time": 49.487,
        "duration": 0.067,
        "velocity": 1,
        "hand": "left"
      },
      {
        "midi": 70,
        "time": 49.487,
        "duration": 0.067,
        "velocity": 1,
        "hand": "right"
      },
      {
        "midi": 49,
        "time": 49.554,
        "duration": 0.067,
        "velocity": 1,
        "hand": "left"
      },
      {
        "midi": 61,
        "time": 49.554,
        "duration": 0.067,
        "velocity": 1,
        "hand": "right"
      },
      {
        "midi": 52,
        "time": 49.621,
        "duration": 0.067,
        "velocity": 1,
        "hand": "left"
      },
      {
        "midi": 64,
        "time": 49.621,
        "duration": 0.067,
        "velocity": 1,
        "hand": "right"
      },
      {
        "midi": 57,
        "time": 49.754,
        "duration": 0.067,
        "velocity": 1,
        "hand": "left"
      },
      {
        "midi": 69,
        "time": 49.754,
        "duration": 0.067,
        "velocity": 1,
        "hand": "right"
      },
      {
        "midi": 60,
        "time": 49.821,
        "duration": 0.067,
        "velocity": 1,
        "hand": "right"
      },
      {
        "midi": 72,
        "time": 49.821,
        "duration": 0.067,
        "velocity": 1,
        "hand": "right"
      },
      {
        "midi": 51,
        "time": 49.888,
        "duration": 0.067,
        "velocity": 1,
        "hand": "left"
      },
      {
        "midi": 63,
        "time": 49.888,
        "duration": 0.067,
        "velocity": 1,
        "hand": "right"
      },
      {
        "midi": 56,
        "time": 50.022,
        "duration": 0.067,
        "velocity": 1,
        "hand": "left"
      },
      {
        "midi": 68,
        "time": 50.022,
        "duration": 0.067,
        "velocity": 1,
        "hand": "right"
      },
      {
        "midi": 47,
        "time": 50.089,
        "duration": 0.067,
        "velocity": 1,
        "hand": "left"
      },
      {
        "midi": 59,
        "time": 50.089,
        "duration": 0.067,
        "velocity": 1,
        "hand": "left"
      },
      {
        "midi": 50,
        "time": 50.156,
        "duration": 0.067,
        "velocity": 1,
        "hand": "left"
      },
      {
        "midi": 62,
        "time": 50.156,
        "duration": 0.067,
        "velocity": 1,
        "hand": "right"
      },
      {
        "midi": 55,
        "time": 50.29,
        "duration": 0.067,
        "velocity": 1,
        "hand": "left"
      },
      {
        "midi": 67,
        "time": 50.29,
        "duration": 0.067,
        "velocity": 1,
        "hand": "right"
      },
      {
        "midi": 59,
        "time": 50.357,
        "duration": 0.067,
        "velocity": 1,
        "hand": "left"
      },
      {
        "midi": 71,
        "time": 50.357,
        "duration": 0.067,
        "velocity": 1,
        "hand": "right"
      },
      {
        "midi": 50,
        "time": 50.424,
        "duration": 0.067,
        "velocity": 1,
        "hand": "left"
      },
      {
        "midi": 62,
        "time": 50.424,
        "duration": 0.067,
        "velocity": 1,
        "hand": "right"
      },
      {
        "midi": 54,
        "time": 50.558,
        "duration": 0.067,
        "velocity": 1,
        "hand": "left"
      },
      {
        "midi": 66,
        "time": 50.558,
        "duration": 0.067,
        "velocity": 1,
        "hand": "right"
      },
      {
        "midi": 46,
        "time": 50.625,
        "duration": 0.067,
        "velocity": 1,
        "hand": "left"
      },
      {
        "midi": 58,
        "time": 50.625,
        "duration": 0.067,
        "velocity": 1,
        "hand": "left"
      },
      {
        "midi": 49,
        "time": 50.692,
        "duration": 0.067,
        "velocity": 1,
        "hand": "left"
      },
      {
        "midi": 61,
        "time": 50.692,
        "duration": 0.067,
        "velocity": 1,
        "hand": "right"
      },
      {
        "midi": 54,
        "time": 50.826,
        "duration": 0.067,
        "velocity": 1,
        "hand": "left"
      },
      {
        "midi": 66,
        "time": 50.826,
        "duration": 0.067,
        "velocity": 1,
        "hand": "right"
      },
      {
        "midi": 58,
        "time": 50.893,
        "duration": 0.067,
        "velocity": 1,
        "hand": "left"
      },
      {
        "midi": 70,
        "time": 50.893,
        "duration": 0.067,
        "velocity": 1,
        "hand": "right"
      },
      {
        "midi": 54,
        "time": 50.96,
        "duration": 0.067,
        "velocity": 1,
        "hand": "left"
      },
      {
        "midi": 66,
        "time": 50.96,
        "duration": 0.067,
        "velocity": 1,
        "hand": "right"
      },
      {
        "midi": 59,
        "time": 51.094,
        "duration": 0.067,
        "velocity": 1,
        "hand": "left"
      },
      {
        "midi": 71,
        "time": 51.094,
        "duration": 0.067,
        "velocity": 1,
        "hand": "right"
      },
      {
        "midi": 60,
        "time": 51.161,
        "duration": 0.067,
        "velocity": 1,
        "hand": "right"
      },
      {
        "midi": 72,
        "time": 51.161,
        "duration": 0.067,
        "velocity": 1,
        "hand": "right"
      },
      {
        "midi": 61,
        "time": 51.228,
        "duration": 0.067,
        "velocity": 1,
        "hand": "right"
      },
      {
        "midi": 73,
        "time": 51.228,
        "duration": 0.067,
        "velocity": 1,
        "hand": "right"
      },
      {
        "midi": 63,
        "time": 51.362,
        "duration": 0.067,
        "velocity": 1,
        "hand": "right"
      },
      {
        "midi": 75,
        "time": 51.362,
        "duration": 0.067,
        "velocity": 1,
        "hand": "right"
      },
      {
        "midi": 61,
        "time": 51.429,
        "duration": 0.067,
        "velocity": 1,
        "hand": "right"
      },
      {
        "midi": 73,
        "time": 51.429,
        "duration": 0.067,
        "velocity": 1,
        "hand": "right"
      },
      {
        "midi": 60,
        "time": 51.496,
        "duration": 0.067,
        "velocity": 1,
        "hand": "right"
      },
      {
        "midi": 72,
        "time": 51.496,
        "duration": 0.067,
        "velocity": 1,
        "hand": "right"
      },
      {
        "midi": 59,
        "time": 51.629,
        "duration": 0.067,
        "velocity": 1,
        "hand": "left"
      },
      {
        "midi": 71,
        "time": 51.629,
        "duration": 0.067,
        "velocity": 1,
        "hand": "right"
      },
      {
        "midi": 58,
        "time": 51.696,
        "duration": 0.067,
        "velocity": 1,
        "hand": "left"
      },
      {
        "midi": 70,
        "time": 51.696,
        "duration": 0.067,
        "velocity": 1,
        "hand": "right"
      },
      {
        "midi": 57,
        "time": 51.763,
        "duration": 0.067,
        "velocity": 1,
        "hand": "left"
      },
      {
        "midi": 69,
        "time": 51.763,
        "duration": 0.067,
        "velocity": 1,
        "hand": "right"
      },
      {
        "midi": 65,
        "time": 51.897,
        "duration": 0.067,
        "velocity": 1,
        "hand": "right"
      },
      {
        "midi": 77,
        "time": 51.897,
        "duration": 0.067,
        "velocity": 1,
        "hand": "right"
      },
      {
        "midi": 63,
        "time": 51.964,
        "duration": 0.067,
        "velocity": 1,
        "hand": "right"
      },
      {
        "midi": 75,
        "time": 51.964,
        "duration": 0.067,
        "velocity": 1,
        "hand": "right"
      },
      {
        "midi": 62,
        "time": 52.031,
        "duration": 0.067,
        "velocity": 1,
        "hand": "right"
      },
      {
        "midi": 74,
        "time": 52.031,
        "duration": 0.067,
        "velocity": 1,
        "hand": "right"
      },
      {
        "midi": 61,
        "time": 52.165,
        "duration": 0.067,
        "velocity": 1,
        "hand": "right"
      },
      {
        "midi": 73,
        "time": 52.165,
        "duration": 0.067,
        "velocity": 1,
        "hand": "right"
      },
      {
        "midi": 60,
        "time": 52.232,
        "duration": 0.067,
        "velocity": 1,
        "hand": "right"
      },
      {
        "midi": 72,
        "time": 52.232,
        "duration": 0.067,
        "velocity": 1,
        "hand": "right"
      },
      {
        "midi": 58,
        "time": 52.299,
        "duration": 0.067,
        "velocity": 1,
        "hand": "left"
      },
      {
        "midi": 70,
        "time": 52.299,
        "duration": 0.067,
        "velocity": 1,
        "hand": "right"
      },
      {
        "midi": 66,
        "time": 52.433,
        "duration": 0.067,
        "velocity": 1,
        "hand": "right"
      },
      {
        "midi": 78,
        "time": 52.433,
        "duration": 0.067,
        "velocity": 1,
        "hand": "right"
      },
      {
        "midi": 65,
        "time": 52.5,
        "duration": 0.067,
        "velocity": 1,
        "hand": "right"
      },
      {
        "midi": 77,
        "time": 52.5,
        "duration": 0.067,
        "velocity": 1,
        "hand": "right"
      },
      {
        "midi": 63,
        "time": 52.567,
        "duration": 0.067,
        "velocity": 1,
        "hand": "right"
      },
      {
        "midi": 75,
        "time": 52.567,
        "duration": 0.067,
        "velocity": 1,
        "hand": "right"
      },
      {
        "midi": 62,
        "time": 52.701,
        "duration": 0.067,
        "velocity": 1,
        "hand": "right"
      },
      {
        "midi": 74,
        "time": 52.701,
        "duration": 0.067,
        "velocity": 1,
        "hand": "right"
      },
      {
        "midi": 61,
        "time": 52.768,
        "duration": 0.067,
        "velocity": 1,
        "hand": "right"
      },
      {
        "midi": 73,
        "time": 52.768,
        "duration": 0.067,
        "velocity": 1,
        "hand": "right"
      },
      {
        "midi": 60,
        "time": 52.835,
        "duration": 0.067,
        "velocity": 1,
        "hand": "right"
      },
      {
        "midi": 72,
        "time": 52.835,
        "duration": 0.067,
        "velocity": 1,
        "hand": "right"
      },
      {
        "midi": 69,
        "time": 52.969,
        "duration": 0.067,
        "velocity": 1,
        "hand": "right"
      },
      {
        "midi": 81,
        "time": 52.969,
        "duration": 0.067,
        "velocity": 1,
        "hand": "right"
      },
      {
        "midi": 60,
        "time": 53.036,
        "duration": 0.067,
        "velocity": 1,
        "hand": "right"
      },
      {
        "midi": 72,
        "time": 53.036,
        "duration": 0.067,
        "velocity": 1,
        "hand": "right"
      },
      {
        "midi": 61,
        "time": 53.103,
        "duration": 0.067,
        "velocity": 1,
        "hand": "right"
      },
      {
        "midi": 73,
        "time": 53.103,
        "duration": 0.067,
        "velocity": 1,
        "hand": "right"
      },
      {
        "midi": 70,
        "time": 53.237,
        "duration": 0.067,
        "velocity": 1,
        "hand": "right"
      },
      {
        "midi": 82,
        "time": 53.237,
        "duration": 0.067,
        "velocity": 1,
        "hand": "right"
      },
      {
        "midi": 62,
        "time": 53.304,
        "duration": 0.067,
        "velocity": 1,
        "hand": "right"
      },
      {
        "midi": 74,
        "time": 53.304,
        "duration": 0.067,
        "velocity": 1,
        "hand": "right"
      },
      {
        "midi": 63,
        "time": 53.371,
        "duration": 0.067,
        "velocity": 1,
        "hand": "right"
      },
      {
        "midi": 75,
        "time": 53.371,
        "duration": 0.067,
        "velocity": 1,
        "hand": "right"
      },
      {
        "midi": 70,
        "time": 53.504,
        "duration": 0.067,
        "velocity": 1,
        "hand": "right"
      },
      {
        "midi": 82,
        "time": 53.504,
        "duration": 0.067,
        "velocity": 1,
        "hand": "right"
      },
      {
        "midi": 72,
        "time": 53.571,
        "duration": 0.067,
        "velocity": 1,
        "hand": "right"
      },
      {
        "midi": 84,
        "time": 53.571,
        "duration": 0.067,
        "velocity": 1,
        "hand": "right"
      },
      {
        "midi": 70,
        "time": 53.638,
        "duration": 0.067,
        "velocity": 1,
        "hand": "right"
      },
      {
        "midi": 82,
        "time": 53.638,
        "duration": 0.067,
        "velocity": 1,
        "hand": "right"
      },
      {
        "midi": 68,
        "time": 53.772,
        "duration": 0.067,
        "velocity": 1,
        "hand": "right"
      },
      {
        "midi": 80,
        "time": 53.772,
        "duration": 0.067,
        "velocity": 1,
        "hand": "right"
      },
      {
        "midi": 66,
        "time": 53.839,
        "duration": 0.067,
        "velocity": 1,
        "hand": "right"
      },
      {
        "midi": 78,
        "time": 53.839,
        "duration": 0.067,
        "velocity": 1,
        "hand": "right"
      },
      {
        "midi": 65,
        "time": 53.906,
        "duration": 0.067,
        "velocity": 1,
        "hand": "right"
      },
      {
        "midi": 77,
        "time": 53.906,
        "duration": 0.067,
        "velocity": 1,
        "hand": "right"
      },
      {
        "midi": 64,
        "time": 54.04,
        "duration": 0.067,
        "velocity": 1,
        "hand": "right"
      },
      {
        "midi": 76,
        "time": 54.04,
        "duration": 0.067,
        "velocity": 1,
        "hand": "right"
      },
      {
        "midi": 72,
        "time": 54.107,
        "duration": 0.067,
        "velocity": 1,
        "hand": "right"
      },
      {
        "midi": 84,
        "time": 54.107,
        "duration": 0.067,
        "velocity": 1,
        "hand": "right"
      },
      {
        "midi": 70,
        "time": 54.174,
        "duration": 0.067,
        "velocity": 1,
        "hand": "right"
      },
      {
        "midi": 82,
        "time": 54.174,
        "duration": 0.067,
        "velocity": 1,
        "hand": "right"
      },
      {
        "midi": 68,
        "time": 54.308,
        "duration": 0.067,
        "velocity": 1,
        "hand": "right"
      },
      {
        "midi": 80,
        "time": 54.308,
        "duration": 0.067,
        "velocity": 1,
        "hand": "right"
      },
      {
        "midi": 66,
        "time": 54.375,
        "duration": 0.067,
        "velocity": 1,
        "hand": "right"
      },
      {
        "midi": 78,
        "time": 54.375,
        "duration": 0.067,
        "velocity": 1,
        "hand": "right"
      },
      {
        "midi": 65,
        "time": 54.442,
        "duration": 0.067,
        "velocity": 1,
        "hand": "right"
      },
      {
        "midi": 77,
        "time": 54.442,
        "duration": 0.067,
        "velocity": 1,
        "hand": "right"
      },
      {
        "midi": 64,
        "time": 54.576,
        "duration": 0.067,
        "velocity": 1,
        "hand": "right"
      },
      {
        "midi": 76,
        "time": 54.576,
        "duration": 0.067,
        "velocity": 1,
        "hand": "right"
      },
      {
        "midi": 66,
        "time": 54.643,
        "duration": 0.067,
        "velocity": 1,
        "hand": "right"
      },
      {
        "midi": 78,
        "time": 54.643,
        "duration": 0.067,
        "velocity": 1,
        "hand": "right"
      },
      {
        "midi": 65,
        "time": 54.71,
        "duration": 0.067,
        "velocity": 1,
        "hand": "right"
      },
      {
        "midi": 77,
        "time": 54.71,
        "duration": 0.067,
        "velocity": 1,
        "hand": "right"
      },
      {
        "midi": 64,
        "time": 54.844,
        "duration": 0.067,
        "velocity": 1,
        "hand": "right"
      },
      {
        "midi": 76,
        "time": 54.844,
        "duration": 0.067,
        "velocity": 1,
        "hand": "right"
      },
      {
        "midi": 63,
        "time": 54.911,
        "duration": 0.067,
        "velocity": 1,
        "hand": "right"
      },
      {
        "midi": 75,
        "time": 54.911,
        "duration": 0.067,
        "velocity": 1,
        "hand": "right"
      },
      {
        "midi": 62,
        "time": 54.978,
        "duration": 0.067,
        "velocity": 1,
        "hand": "right"
      },
      {
        "midi": 74,
        "time": 54.978,
        "duration": 0.067,
        "velocity": 1,
        "hand": "right"
      },
      {
        "midi": 61,
        "time": 55.112,
        "duration": 0.067,
        "velocity": 1,
        "hand": "right"
      },
      {
        "midi": 73,
        "time": 55.112,
        "duration": 0.067,
        "velocity": 1,
        "hand": "right"
      },
      {
        "midi": 63,
        "time": 55.179,
        "duration": 0.067,
        "velocity": 1,
        "hand": "right"
      },
      {
        "midi": 75,
        "time": 55.179,
        "duration": 0.067,
        "velocity": 1,
        "hand": "right"
      },
      {
        "midi": 59,
        "time": 55.246,
        "duration": 0.067,
        "velocity": 1,
        "hand": "left"
      },
      {
        "midi": 71,
        "time": 55.246,
        "duration": 0.067,
        "velocity": 1,
        "hand": "right"
      },
      {
        "midi": 60,
        "time": 55.379,
        "duration": 0.067,
        "velocity": 1,
        "hand": "right"
      },
      {
        "midi": 72,
        "time": 55.379,
        "duration": 0.067,
        "velocity": 1,
        "hand": "right"
      },
      {
        "midi": 61,
        "time": 55.446,
        "duration": 0.067,
        "velocity": 1,
        "hand": "right"
      },
      {
        "midi": 73,
        "time": 55.446,
        "duration": 0.067,
        "velocity": 1,
        "hand": "right"
      },
      {
        "midi": 57,
        "time": 55.513,
        "duration": 0.067,
        "velocity": 1,
        "hand": "left"
      },
      {
        "midi": 69,
        "time": 55.513,
        "duration": 0.067,
        "velocity": 1,
        "hand": "right"
      },
      {
        "midi": 58,
        "time": 55.647,
        "duration": 0.067,
        "velocity": 1,
        "hand": "left"
      },
      {
        "midi": 70,
        "time": 55.647,
        "duration": 0.067,
        "velocity": 1,
        "hand": "right"
      },
      {
        "midi": 60,
        "time": 55.714,
        "duration": 0.067,
        "velocity": 1,
        "hand": "right"
      },
      {
        "midi": 72,
        "time": 55.714,
        "duration": 0.067,
        "velocity": 1,
        "hand": "right"
      },
      {
        "midi": 55,
        "time": 55.781,
        "duration": 0.067,
        "velocity": 1,
        "hand": "left"
      },
      {
        "midi": 67,
        "time": 55.781,
        "duration": 0.067,
        "velocity": 1,
        "hand": "right"
      },
      {
        "midi": 56,
        "time": 55.915,
        "duration": 0.067,
        "velocity": 1,
        "hand": "left"
      },
      {
        "midi": 68,
        "time": 55.915,
        "duration": 0.067,
        "velocity": 1,
        "hand": "right"
      },
      {
        "midi": 59,
        "time": 55.982,
        "duration": 0.067,
        "velocity": 1,
        "hand": "left"
      },
      {
        "midi": 71,
        "time": 55.982,
        "duration": 0.067,
        "velocity": 1,
        "hand": "right"
      },
      {
        "midi": 54,
        "time": 56.049,
        "duration": 0.067,
        "velocity": 1,
        "hand": "left"
      },
      {
        "midi": 66,
        "time": 56.049,
        "duration": 0.067,
        "velocity": 1,
        "hand": "right"
      },
      {
        "midi": 63,
        "time": 56.183,
        "duration": 0.067,
        "velocity": 1,
        "hand": "right"
      },
      {
        "midi": 75,
        "time": 56.183,
        "duration": 0.067,
        "velocity": 1,
        "hand": "right"
      },
      {
        "midi": 58,
        "time": 56.25,
        "duration": 0.067,
        "velocity": 1,
        "hand": "left"
      },
      {
        "midi": 70,
        "time": 56.25,
        "duration": 0.067,
        "velocity": 1,
        "hand": "right"
      },
      {
        "midi": 53,
        "time": 56.317,
        "duration": 0.067,
        "velocity": 1,
        "hand": "left"
      },
      {
        "midi": 65,
        "time": 56.317,
        "duration": 0.067,
        "velocity": 1,
        "hand": "right"
      },
      {
        "midi": 54,
        "time": 56.451,
        "duration": 0.067,
        "velocity": 1,
        "hand": "left"
      },
      {
        "midi": 66,
        "time": 56.451,
        "duration": 0.067,
        "velocity": 1,
        "hand": "right"
      },
      {
        "midi": 57,
        "time": 56.518,
        "duration": 0.067,
        "velocity": 1,
        "hand": "left"
      },
      {
        "midi": 69,
        "time": 56.518,
        "duration": 0.067,
        "velocity": 1,
        "hand": "right"
      },
      {
        "midi": 52,
        "time": 56.585,
        "duration": 0.067,
        "velocity": 1,
        "hand": "left"
      },
      {
        "midi": 64,
        "time": 56.585,
        "duration": 0.067,
        "velocity": 1,
        "hand": "right"
      },
      {
        "midi": 61,
        "time": 56.719,
        "duration": 0.067,
        "velocity": 1,
        "hand": "right"
      },
      {
        "midi": 73,
        "time": 56.719,
        "duration": 0.067,
        "velocity": 1,
        "hand": "right"
      },
      {
        "midi": 56,
        "time": 56.786,
        "duration": 0.067,
        "velocity": 1,
        "hand": "left"
      },
      {
        "midi": 68,
        "time": 56.786,
        "duration": 0.067,
        "velocity": 1,
        "hand": "right"
      },
      {
        "midi": 51,
        "time": 56.853,
        "duration": 0.067,
        "velocity": 1,
        "hand": "left"
      },
      {
        "midi": 63,
        "time": 56.853,
        "duration": 0.067,
        "velocity": 1,
        "hand": "right"
      },
      {
        "midi": 52,
        "time": 56.987,
        "duration": 0.067,
        "velocity": 1,
        "hand": "left"
      },
      {
        "midi": 64,
        "time": 56.987,
        "duration": 0.067,
        "velocity": 1,
        "hand": "right"
      },
      {
        "midi": 55,
        "time": 57.054,
        "duration": 0.067,
        "velocity": 1,
        "hand": "left"
      },
      {
        "midi": 67,
        "time": 57.054,
        "duration": 0.067,
        "velocity": 1,
        "hand": "right"
      },
      {
        "midi": 50,
        "time": 57.121,
        "duration": 0.067,
        "velocity": 1,
        "hand": "left"
      },
      {
        "midi": 62,
        "time": 57.121,
        "duration": 0.067,
        "velocity": 1,
        "hand": "right"
      },
      {
        "midi": 59,
        "time": 57.254,
        "duration": 0.067,
        "velocity": 1,
        "hand": "left"
      },
      {
        "midi": 71,
        "time": 57.254,
        "duration": 0.067,
        "velocity": 1,
        "hand": "right"
      },
      {
        "midi": 54,
        "time": 57.321,
        "duration": 0.067,
        "velocity": 1,
        "hand": "left"
      },
      {
        "midi": 66,
        "time": 57.321,
        "duration": 0.067,
        "velocity": 1,
        "hand": "right"
      },
      {
        "midi": 49,
        "time": 57.388,
        "duration": 0.067,
        "velocity": 1,
        "hand": "left"
      },
      {
        "midi": 61,
        "time": 57.388,
        "duration": 0.067,
        "velocity": 1,
        "hand": "right"
      },
      {
        "midi": 50,
        "time": 57.522,
        "duration": 0.067,
        "velocity": 1,
        "hand": "left"
      },
      {
        "midi": 62,
        "time": 57.522,
        "duration": 0.067,
        "velocity": 1,
        "hand": "right"
      },
      {
        "midi": 53,
        "time": 57.589,
        "duration": 0.067,
        "velocity": 1,
        "hand": "left"
      },
      {
        "midi": 65,
        "time": 57.589,
        "duration": 0.067,
        "velocity": 1,
        "hand": "right"
      },
      {
        "midi": 48,
        "time": 57.656,
        "duration": 0.067,
        "velocity": 1,
        "hand": "left"
      },
      {
        "midi": 60,
        "time": 57.656,
        "duration": 0.067,
        "velocity": 1,
        "hand": "right"
      },
      {
        "midi": 57,
        "time": 57.79,
        "duration": 0.067,
        "velocity": 1,
        "hand": "left"
      },
      {
        "midi": 69,
        "time": 57.79,
        "duration": 0.067,
        "velocity": 1,
        "hand": "right"
      },
      {
        "midi": 62,
        "time": 57.857,
        "duration": 0.067,
        "velocity": 1,
        "hand": "right"
      },
      {
        "midi": 74,
        "time": 57.857,
        "duration": 0.067,
        "velocity": 1,
        "hand": "right"
      },
      {
        "midi": 57,
        "time": 57.924,
        "duration": 0.067,
        "velocity": 1,
        "hand": "left"
      },
      {
        "midi": 69,
        "time": 57.924,
        "duration": 0.067,
        "velocity": 1,
        "hand": "right"
      },
      {
        "midi": 58,
        "time": 58.058,
        "duration": 0.067,
        "velocity": 1,
        "hand": "left"
      },
      {
        "midi": 70,
        "time": 58.058,
        "duration": 0.067,
        "velocity": 1,
        "hand": "right"
      },
      {
        "midi": 61,
        "time": 58.125,
        "duration": 0.067,
        "velocity": 1,
        "hand": "right"
      },
      {
        "midi": 73,
        "time": 58.125,
        "duration": 0.067,
        "velocity": 1,
        "hand": "right"
      },
      {
        "midi": 56,
        "time": 58.192,
        "duration": 0.067,
        "velocity": 1,
        "hand": "left"
      },
      {
        "midi": 68,
        "time": 58.192,
        "duration": 0.067,
        "velocity": 1,
        "hand": "right"
      },
      {
        "midi": 65,
        "time": 58.326,
        "duration": 0.067,
        "velocity": 1,
        "hand": "right"
      },
      {
        "midi": 77,
        "time": 58.326,
        "duration": 0.067,
        "velocity": 1,
        "hand": "right"
      },
      {
        "midi": 60,
        "time": 58.393,
        "duration": 0.067,
        "velocity": 1,
        "hand": "right"
      },
      {
        "midi": 72,
        "time": 58.393,
        "duration": 0.067,
        "velocity": 1,
        "hand": "right"
      },
      {
        "midi": 55,
        "time": 58.46,
        "duration": 0.067,
        "velocity": 1,
        "hand": "left"
      },
      {
        "midi": 67,
        "time": 58.46,
        "duration": 0.067,
        "velocity": 1,
        "hand": "right"
      },
      {
        "midi": 56,
        "time": 58.594,
        "duration": 0.067,
        "velocity": 1,
        "hand": "left"
      },
      {
        "midi": 68,
        "time": 58.594,
        "duration": 0.067,
        "velocity": 1,
        "hand": "right"
      },
      {
        "midi": 59,
        "time": 58.661,
        "duration": 0.067,
        "velocity": 1,
        "hand": "left"
      },
      {
        "midi": 71,
        "time": 58.661,
        "duration": 0.067,
        "velocity": 1,
        "hand": "right"
      },
      {
        "midi": 54,
        "time": 58.728,
        "duration": 0.067,
        "velocity": 1,
        "hand": "left"
      },
      {
        "midi": 66,
        "time": 58.728,
        "duration": 0.067,
        "velocity": 1,
        "hand": "right"
      },
      {
        "midi": 63,
        "time": 58.862,
        "duration": 0.067,
        "velocity": 1,
        "hand": "right"
      },
      {
        "midi": 75,
        "time": 58.862,
        "duration": 0.067,
        "velocity": 1,
        "hand": "right"
      },
      {
        "midi": 58,
        "time": 58.929,
        "duration": 0.067,
        "velocity": 1,
        "hand": "left"
      },
      {
        "midi": 70,
        "time": 58.929,
        "duration": 0.067,
        "velocity": 1,
        "hand": "right"
      },
      {
        "midi": 53,
        "time": 58.996,
        "duration": 0.067,
        "velocity": 1,
        "hand": "left"
      },
      {
        "midi": 65,
        "time": 58.996,
        "duration": 0.067,
        "velocity": 1,
        "hand": "right"
      },
      {
        "midi": 54,
        "time": 59.129,
        "duration": 0.067,
        "velocity": 1,
        "hand": "left"
      },
      {
        "midi": 66,
        "time": 59.129,
        "duration": 0.067,
        "velocity": 1,
        "hand": "right"
      },
      {
        "midi": 57,
        "time": 59.196,
        "duration": 0.067,
        "velocity": 1,
        "hand": "left"
      },
      {
        "midi": 69,
        "time": 59.196,
        "duration": 0.067,
        "velocity": 1,
        "hand": "right"
      },
      {
        "midi": 52,
        "time": 59.263,
        "duration": 0.067,
        "velocity": 1,
        "hand": "left"
      },
      {
        "midi": 64,
        "time": 59.263,
        "duration": 0.067,
        "velocity": 1,
        "hand": "right"
      },
      {
        "midi": 61,
        "time": 59.397,
        "duration": 0.067,
        "velocity": 1,
        "hand": "right"
      },
      {
        "midi": 73,
        "time": 59.397,
        "duration": 0.067,
        "velocity": 1,
        "hand": "right"
      },
      {
        "midi": 56,
        "time": 59.464,
        "duration": 0.067,
        "velocity": 1,
        "hand": "left"
      },
      {
        "midi": 68,
        "time": 59.464,
        "duration": 0.067,
        "velocity": 1,
        "hand": "right"
      },
      {
        "midi": 51,
        "time": 59.531,
        "duration": 0.067,
        "velocity": 1,
        "hand": "left"
      },
      {
        "midi": 63,
        "time": 59.531,
        "duration": 0.067,
        "velocity": 1,
        "hand": "right"
      },
      {
        "midi": 52,
        "time": 59.665,
        "duration": 0.067,
        "velocity": 1,
        "hand": "left"
      },
      {
        "midi": 64,
        "time": 59.665,
        "duration": 0.067,
        "velocity": 1,
        "hand": "right"
      },
      {
        "midi": 55,
        "time": 59.732,
        "duration": 0.067,
        "velocity": 1,
        "hand": "left"
      },
      {
        "midi": 67,
        "time": 59.732,
        "duration": 0.067,
        "velocity": 1,
        "hand": "right"
      },
      {
        "midi": 50,
        "time": 59.799,
        "duration": 0.067,
        "velocity": 1,
        "hand": "left"
      },
      {
        "midi": 62,
        "time": 59.799,
        "duration": 0.067,
        "velocity": 1,
        "hand": "right"
      },
      {
        "midi": 59,
        "time": 59.933,
        "duration": 0.067,
        "velocity": 1,
        "hand": "left"
      },
      {
        "midi": 71,
        "time": 59.933,
        "duration": 0.067,
        "velocity": 1,
        "hand": "right"
      },
      {
        "midi": 64,
        "time": 60,
        "duration": 0.067,
        "velocity": 1,
        "hand": "right"
      },
      {
        "midi": 76,
        "time": 60,
        "duration": 0.067,
        "velocity": 1,
        "hand": "right"
      },
      {
        "midi": 59,
        "time": 60.067,
        "duration": 0.067,
        "velocity": 1,
        "hand": "left"
      },
      {
        "midi": 71,
        "time": 60.067,
        "duration": 0.067,
        "velocity": 1,
        "hand": "right"
      },
      {
        "midi": 60,
        "time": 60.201,
        "duration": 0.067,
        "velocity": 1,
        "hand": "right"
      },
      {
        "midi": 72,
        "time": 60.201,
        "duration": 0.067,
        "velocity": 1,
        "hand": "right"
      },
      {
        "midi": 63,
        "time": 60.268,
        "duration": 0.067,
        "velocity": 1,
        "hand": "right"
      },
      {
        "midi": 75,
        "time": 60.268,
        "duration": 0.067,
        "velocity": 1,
        "hand": "right"
      },
      {
        "midi": 58,
        "time": 60.335,
        "duration": 0.067,
        "velocity": 1,
        "hand": "left"
      },
      {
        "midi": 70,
        "time": 60.335,
        "duration": 0.067,
        "velocity": 1,
        "hand": "right"
      },
      {
        "midi": 67,
        "time": 60.469,
        "duration": 0.067,
        "velocity": 1,
        "hand": "right"
      },
      {
        "midi": 79,
        "time": 60.469,
        "duration": 0.067,
        "velocity": 1,
        "hand": "right"
      },
      {
        "midi": 62,
        "time": 60.536,
        "duration": 0.067,
        "velocity": 1,
        "hand": "right"
      },
      {
        "midi": 74,
        "time": 60.536,
        "duration": 0.067,
        "velocity": 1,
        "hand": "right"
      },
      {
        "midi": 57,
        "time": 60.603,
        "duration": 0.067,
        "velocity": 1,
        "hand": "left"
      },
      {
        "midi": 69,
        "time": 60.603,
        "duration": 0.067,
        "velocity": 1,
        "hand": "right"
      },
      {
        "midi": 58,
        "time": 60.737,
        "duration": 0.067,
        "velocity": 1,
        "hand": "left"
      },
      {
        "midi": 70,
        "time": 60.737,
        "duration": 0.067,
        "velocity": 1,
        "hand": "right"
      },
      {
        "midi": 61,
        "time": 60.804,
        "duration": 0.067,
        "velocity": 1,
        "hand": "right"
      },
      {
        "midi": 73,
        "time": 60.804,
        "duration": 0.067,
        "velocity": 1,
        "hand": "right"
      },
      {
        "midi": 56,
        "time": 60.871,
        "duration": 0.067,
        "velocity": 1,
        "hand": "left"
      },
      {
        "midi": 68,
        "time": 60.871,
        "duration": 0.067,
        "velocity": 1,
        "hand": "right"
      },
      {
        "midi": 65,
        "time": 61.004,
        "duration": 0.067,
        "velocity": 1,
        "hand": "right"
      },
      {
        "midi": 77,
        "time": 61.004,
        "duration": 0.067,
        "velocity": 1,
        "hand": "right"
      },
      {
        "midi": 60,
        "time": 61.071,
        "duration": 0.067,
        "velocity": 1,
        "hand": "right"
      },
      {
        "midi": 72,
        "time": 61.071,
        "duration": 0.067,
        "velocity": 1,
        "hand": "right"
      },
      {
        "midi": 55,
        "time": 61.138,
        "duration": 0.067,
        "velocity": 1,
        "hand": "left"
      },
      {
        "midi": 67,
        "time": 61.138,
        "duration": 0.067,
        "velocity": 1,
        "hand": "right"
      },
      {
        "midi": 56,
        "time": 61.272,
        "duration": 0.067,
        "velocity": 1,
        "hand": "left"
      },
      {
        "midi": 68,
        "time": 61.272,
        "duration": 0.067,
        "velocity": 1,
        "hand": "right"
      },
      {
        "midi": 59,
        "time": 61.339,
        "duration": 0.067,
        "velocity": 1,
        "hand": "left"
      },
      {
        "midi": 71,
        "time": 61.339,
        "duration": 0.067,
        "velocity": 1,
        "hand": "right"
      },
      {
        "midi": 54,
        "time": 61.406,
        "duration": 0.067,
        "velocity": 1,
        "hand": "left"
      },
      {
        "midi": 66,
        "time": 61.406,
        "duration": 0.067,
        "velocity": 1,
        "hand": "right"
      },
      {
        "midi": 63,
        "time": 61.54,
        "duration": 0.067,
        "velocity": 1,
        "hand": "right"
      },
      {
        "midi": 75,
        "time": 61.54,
        "duration": 0.067,
        "velocity": 1,
        "hand": "right"
      },
      {
        "midi": 58,
        "time": 61.607,
        "duration": 0.067,
        "velocity": 1,
        "hand": "left"
      },
      {
        "midi": 70,
        "time": 61.607,
        "duration": 0.067,
        "velocity": 1,
        "hand": "right"
      },
      {
        "midi": 53,
        "time": 61.674,
        "duration": 0.067,
        "velocity": 1,
        "hand": "left"
      },
      {
        "midi": 65,
        "time": 61.674,
        "duration": 0.067,
        "velocity": 1,
        "hand": "right"
      },
      {
        "midi": 63,
        "time": 61.808,
        "duration": 0.067,
        "velocity": 1,
        "hand": "right"
      },
      {
        "midi": 75,
        "time": 61.808,
        "duration": 0.067,
        "velocity": 1,
        "hand": "right"
      },
      {
        "midi": 58,
        "time": 61.875,
        "duration": 0.067,
        "velocity": 1,
        "hand": "left"
      },
      {
        "midi": 70,
        "time": 61.875,
        "duration": 0.067,
        "velocity": 1,
        "hand": "right"
      },
      {
        "midi": 53,
        "time": 61.942,
        "duration": 0.067,
        "velocity": 1,
        "hand": "left"
      },
      {
        "midi": 65,
        "time": 61.942,
        "duration": 0.067,
        "velocity": 1,
        "hand": "right"
      },
      {
        "midi": 61,
        "time": 62.076,
        "duration": 0.067,
        "velocity": 1,
        "hand": "right"
      },
      {
        "midi": 73,
        "time": 62.076,
        "duration": 0.067,
        "velocity": 1,
        "hand": "right"
      },
      {
        "midi": 54,
        "time": 62.143,
        "duration": 0.067,
        "velocity": 1,
        "hand": "left"
      },
      {
        "midi": 66,
        "time": 62.143,
        "duration": 0.067,
        "velocity": 1,
        "hand": "right"
      },
      {
        "midi": 53,
        "time": 62.21,
        "duration": 0.067,
        "velocity": 1,
        "hand": "left"
      },
      {
        "midi": 65,
        "time": 62.21,
        "duration": 0.067,
        "velocity": 1,
        "hand": "right"
      },
      {
        "midi": 52,
        "time": 62.344,
        "duration": 0.067,
        "velocity": 1,
        "hand": "left"
      },
      {
        "midi": 64,
        "time": 62.344,
        "duration": 0.067,
        "velocity": 1,
        "hand": "right"
      },
      {
        "midi": 51,
        "time": 62.411,
        "duration": 0.067,
        "velocity": 1,
        "hand": "left"
      },
      {
        "midi": 63,
        "time": 62.411,
        "duration": 0.067,
        "velocity": 1,
        "hand": "right"
      },
      {
        "midi": 49,
        "time": 62.478,
        "duration": 0.067,
        "velocity": 1,
        "hand": "left"
      },
      {
        "midi": 61,
        "time": 62.478,
        "duration": 0.067,
        "velocity": 1,
        "hand": "right"
      },
      {
        "midi": 48,
        "time": 62.612,
        "duration": 0.067,
        "velocity": 1,
        "hand": "left"
      },
      {
        "midi": 60,
        "time": 62.612,
        "duration": 0.067,
        "velocity": 1,
        "hand": "right"
      },
      {
        "midi": 54,
        "time": 62.679,
        "duration": 0.067,
        "velocity": 1,
        "hand": "left"
      },
      {
        "midi": 66,
        "time": 62.679,
        "duration": 0.067,
        "velocity": 1,
        "hand": "right"
      },
      {
        "midi": 53,
        "time": 62.746,
        "duration": 0.067,
        "velocity": 1,
        "hand": "left"
      },
      {
        "midi": 65,
        "time": 62.746,
        "duration": 0.067,
        "velocity": 1,
        "hand": "right"
      },
      {
        "midi": 51,
        "time": 62.879,
        "duration": 0.067,
        "velocity": 1,
        "hand": "left"
      },
      {
        "midi": 63,
        "time": 62.879,
        "duration": 0.067,
        "velocity": 1,
        "hand": "right"
      },
      {
        "midi": 49,
        "time": 62.946,
        "duration": 0.067,
        "velocity": 1,
        "hand": "left"
      },
      {
        "midi": 61,
        "time": 62.946,
        "duration": 0.067,
        "velocity": 1,
        "hand": "right"
      },
      {
        "midi": 48,
        "time": 63.013,
        "duration": 0.067,
        "velocity": 1,
        "hand": "left"
      },
      {
        "midi": 60,
        "time": 63.013,
        "duration": 0.067,
        "velocity": 1,
        "hand": "right"
      },
      {
        "midi": 46,
        "time": 63.147,
        "duration": 0.067,
        "velocity": 1,
        "hand": "left"
      },
      {
        "midi": 58,
        "time": 63.147,
        "duration": 0.067,
        "velocity": 1,
        "hand": "left"
      },
      {
        "midi": 54,
        "time": 63.214,
        "duration": 0.067,
        "velocity": 1,
        "hand": "left"
      },
      {
        "midi": 66,
        "time": 63.214,
        "duration": 0.067,
        "velocity": 1,
        "hand": "right"
      },
      {
        "midi": 53,
        "time": 63.281,
        "duration": 0.067,
        "velocity": 1,
        "hand": "left"
      },
      {
        "midi": 65,
        "time": 63.281,
        "duration": 0.067,
        "velocity": 1,
        "hand": "right"
      },
      {
        "midi": 51,
        "time": 63.415,
        "duration": 0.067,
        "velocity": 1,
        "hand": "left"
      },
      {
        "midi": 63,
        "time": 63.415,
        "duration": 0.067,
        "velocity": 1,
        "hand": "right"
      },
      {
        "midi": 49,
        "time": 63.482,
        "duration": 0.067,
        "velocity": 1,
        "hand": "left"
      },
      {
        "midi": 61,
        "time": 63.482,
        "duration": 0.067,
        "velocity": 1,
        "hand": "right"
      },
      {
        "midi": 48,
        "time": 63.549,
        "duration": 0.067,
        "velocity": 1,
        "hand": "left"
      },
      {
        "midi": 60,
        "time": 63.549,
        "duration": 0.067,
        "velocity": 1,
        "hand": "right"
      },
      {
        "midi": 47,
        "time": 63.683,
        "duration": 0.067,
        "velocity": 1,
        "hand": "left"
      },
      {
        "midi": 59,
        "time": 63.683,
        "duration": 0.067,
        "velocity": 1,
        "hand": "left"
      },
      {
        "midi": 54,
        "time": 63.75,
        "duration": 0.067,
        "velocity": 1,
        "hand": "left"
      },
      {
        "midi": 66,
        "time": 63.75,
        "duration": 0.067,
        "velocity": 1,
        "hand": "right"
      },
      {
        "midi": 53,
        "time": 63.817,
        "duration": 0.067,
        "velocity": 1,
        "hand": "left"
      },
      {
        "midi": 65,
        "time": 63.817,
        "duration": 0.067,
        "velocity": 1,
        "hand": "right"
      },
      {
        "midi": 51,
        "time": 63.951,
        "duration": 0.067,
        "velocity": 1,
        "hand": "left"
      },
      {
        "midi": 63,
        "time": 63.951,
        "duration": 0.067,
        "velocity": 1,
        "hand": "right"
      },
      {
        "midi": 49,
        "time": 64.018,
        "duration": 0.067,
        "velocity": 1,
        "hand": "left"
      },
      {
        "midi": 61,
        "time": 64.018,
        "duration": 0.067,
        "velocity": 1,
        "hand": "right"
      },
      {
        "midi": 47,
        "time": 64.085,
        "duration": 0.067,
        "velocity": 1,
        "hand": "left"
      },
      {
        "midi": 59,
        "time": 64.085,
        "duration": 0.067,
        "velocity": 1,
        "hand": "left"
      },
      {
        "midi": 46,
        "time": 64.219,
        "duration": 0.067,
        "velocity": 1,
        "hand": "left"
      },
      {
        "midi": 58,
        "time": 64.219,
        "duration": 0.067,
        "velocity": 1,
        "hand": "left"
      },
      {
        "midi": 45,
        "time": 64.286,
        "duration": 0.067,
        "velocity": 1,
        "hand": "left"
      },
      {
        "midi": 57,
        "time": 64.286,
        "duration": 0.067,
        "velocity": 1,
        "hand": "left"
      },
      {
        "midi": 46,
        "time": 64.353,
        "duration": 0.067,
        "velocity": 1,
        "hand": "left"
      },
      {
        "midi": 58,
        "time": 64.353,
        "duration": 0.067,
        "velocity": 1,
        "hand": "left"
      },
      {
        "midi": 48,
        "time": 64.487,
        "duration": 0.067,
        "velocity": 1,
        "hand": "left"
      },
      {
        "midi": 60,
        "time": 64.487,
        "duration": 0.067,
        "velocity": 1,
        "hand": "right"
      },
      {
        "midi": 51,
        "time": 64.554,
        "duration": 0.067,
        "velocity": 1,
        "hand": "left"
      },
      {
        "midi": 63,
        "time": 64.554,
        "duration": 0.067,
        "velocity": 1,
        "hand": "right"
      },
      {
        "midi": 49,
        "time": 64.621,
        "duration": 0.067,
        "velocity": 1,
        "hand": "left"
      },
      {
        "midi": 61,
        "time": 64.621,
        "duration": 0.067,
        "velocity": 1,
        "hand": "right"
      },
      {
        "midi": 45,
        "time": 64.754,
        "duration": 0.067,
        "velocity": 1,
        "hand": "left"
      },
      {
        "midi": 57,
        "time": 64.754,
        "duration": 0.067,
        "velocity": 1,
        "hand": "left"
      },
      {
        "midi": 48,
        "time": 64.821,
        "duration": 0.067,
        "velocity": 1,
        "hand": "left"
      },
      {
        "midi": 60,
        "time": 64.821,
        "duration": 0.067,
        "velocity": 1,
        "hand": "right"
      },
      {
        "midi": 46,
        "time": 64.888,
        "duration": 0.067,
        "velocity": 1,
        "hand": "left"
      },
      {
        "midi": 58,
        "time": 64.888,
        "duration": 0.067,
        "velocity": 1,
        "hand": "left"
      },
      {
        "midi": 41,
        "time": 65.022,
        "duration": 0.067,
        "velocity": 1,
        "hand": "left"
      },
      {
        "midi": 53,
        "time": 65.022,
        "duration": 0.067,
        "velocity": 1,
        "hand": "left"
      },
      {
        "midi": 44,
        "time": 65.089,
        "duration": 0.067,
        "velocity": 1,
        "hand": "left"
      },
      {
        "midi": 56,
        "time": 65.089,
        "duration": 0.067,
        "velocity": 1,
        "hand": "left"
      },
      {
        "midi": 42,
        "time": 65.156,
        "duration": 0.067,
        "velocity": 1,
        "hand": "left"
      },
      {
        "midi": 54,
        "time": 65.156,
        "duration": 0.067,
        "velocity": 1,
        "hand": "left"
      },
      {
        "midi": 41,
        "time": 65.29,
        "duration": 0.067,
        "velocity": 1,
        "hand": "left"
      },
      {
        "midi": 53,
        "time": 65.29,
        "duration": 0.067,
        "velocity": 1,
        "hand": "left"
      },
      {
        "midi": 39,
        "time": 65.357,
        "duration": 0.067,
        "velocity": 1,
        "hand": "left"
      },
      {
        "midi": 51,
        "time": 65.357,
        "duration": 0.067,
        "velocity": 1,
        "hand": "left"
      },
      {
        "midi": 41,
        "time": 65.424,
        "duration": 0.067,
        "velocity": 1,
        "hand": "left"
      },
      {
        "midi": 53,
        "time": 65.424,
        "duration": 0.067,
        "velocity": 1,
        "hand": "left"
      },
      {
        "midi": 42,
        "time": 65.558,
        "duration": 0.067,
        "velocity": 1,
        "hand": "left"
      },
      {
        "midi": 54,
        "time": 65.558,
        "duration": 0.067,
        "velocity": 1,
        "hand": "left"
      },
      {
        "midi": 46,
        "time": 65.625,
        "duration": 0.067,
        "velocity": 1,
        "hand": "left"
      },
      {
        "midi": 58,
        "time": 65.625,
        "duration": 0.067,
        "velocity": 1,
        "hand": "left"
      },
      {
        "midi": 44,
        "time": 65.692,
        "duration": 0.067,
        "velocity": 1,
        "hand": "left"
      },
      {
        "midi": 56,
        "time": 65.692,
        "duration": 0.067,
        "velocity": 1,
        "hand": "left"
      },
      {
        "midi": 42,
        "time": 65.826,
        "duration": 0.067,
        "velocity": 1,
        "hand": "left"
      },
      {
        "midi": 54,
        "time": 65.826,
        "duration": 0.067,
        "velocity": 1,
        "hand": "left"
      },
      {
        "midi": 41,
        "time": 65.893,
        "duration": 0.067,
        "velocity": 1,
        "hand": "left"
      },
      {
        "midi": 53,
        "time": 65.893,
        "duration": 0.067,
        "velocity": 1,
        "hand": "left"
      },
      {
        "midi": 37,
        "time": 65.96,
        "duration": 0.067,
        "velocity": 1,
        "hand": "left"
      },
      {
        "midi": 49,
        "time": 65.96,
        "duration": 0.067,
        "velocity": 1,
        "hand": "left"
      },
      {
        "midi": 39,
        "time": 66.094,
        "duration": 0.067,
        "velocity": 1,
        "hand": "left"
      },
      {
        "midi": 51,
        "time": 66.094,
        "duration": 0.067,
        "velocity": 1,
        "hand": "left"
      },
      {
        "midi": 41,
        "time": 66.161,
        "duration": 0.067,
        "velocity": 1,
        "hand": "left"
      },
      {
        "midi": 53,
        "time": 66.161,
        "duration": 0.067,
        "velocity": 1,
        "hand": "left"
      },
      {
        "midi": 40,
        "time": 66.228,
        "duration": 0.067,
        "velocity": 1,
        "hand": "left"
      },
      {
        "midi": 52,
        "time": 66.228,
        "duration": 0.067,
        "velocity": 1,
        "hand": "left"
      },
      {
        "midi": 41,
        "time": 66.362,
        "duration": 0.067,
        "velocity": 1,
        "hand": "left"
      },
      {
        "midi": 53,
        "time": 66.362,
        "duration": 0.067,
        "velocity": 1,
        "hand": "left"
      },
      {
        "midi": 42,
        "time": 66.429,
        "duration": 0.067,
        "velocity": 1,
        "hand": "left"
      },
      {
        "midi": 54,
        "time": 66.429,
        "duration": 0.067,
        "velocity": 1,
        "hand": "left"
      },
      {
        "midi": 41,
        "time": 66.496,
        "duration": 0.067,
        "velocity": 1,
        "hand": "left"
      },
      {
        "midi": 53,
        "time": 66.496,
        "duration": 0.067,
        "velocity": 1,
        "hand": "left"
      },
      {
        "midi": 40,
        "time": 66.629,
        "duration": 0.067,
        "velocity": 1,
        "hand": "left"
      },
      {
        "midi": 52,
        "time": 66.629,
        "duration": 0.067,
        "velocity": 1,
        "hand": "left"
      },
      {
        "midi": 39,
        "time": 66.696,
        "duration": 0.067,
        "velocity": 1,
        "hand": "left"
      },
      {
        "midi": 51,
        "time": 66.696,
        "duration": 0.067,
        "velocity": 1,
        "hand": "left"
      },
      {
        "midi": 37,
        "time": 66.763,
        "duration": 0.067,
        "velocity": 1,
        "hand": "left"
      },
      {
        "midi": 49,
        "time": 66.763,
        "duration": 0.067,
        "velocity": 1,
        "hand": "left"
      },
      {
        "midi": 36,
        "time": 66.897,
        "duration": 0.067,
        "velocity": 1,
        "hand": "left"
      },
      {
        "midi": 48,
        "time": 66.897,
        "duration": 0.067,
        "velocity": 1,
        "hand": "left"
      },
      {
        "midi": 42,
        "time": 66.964,
        "duration": 0.067,
        "velocity": 1,
        "hand": "left"
      },
      {
        "midi": 54,
        "time": 66.964,
        "duration": 0.067,
        "velocity": 1,
        "hand": "left"
      },
      {
        "midi": 41,
        "time": 67.031,
        "duration": 0.067,
        "velocity": 1,
        "hand": "left"
      },
      {
        "midi": 53,
        "time": 67.031,
        "duration": 0.067,
        "velocity": 1,
        "hand": "left"
      },
      {
        "midi": 39,
        "time": 67.165,
        "duration": 0.067,
        "velocity": 1,
        "hand": "left"
      },
      {
        "midi": 51,
        "time": 67.165,
        "duration": 0.067,
        "velocity": 1,
        "hand": "left"
      },
      {
        "midi": 37,
        "time": 67.232,
        "duration": 0.067,
        "velocity": 1,
        "hand": "left"
      },
      {
        "midi": 49,
        "time": 67.232,
        "duration": 0.067,
        "velocity": 1,
        "hand": "left"
      },
      {
        "midi": 36,
        "time": 67.299,
        "duration": 0.067,
        "velocity": 1,
        "hand": "left"
      },
      {
        "midi": 48,
        "time": 67.299,
        "duration": 0.067,
        "velocity": 1,
        "hand": "left"
      },
      {
        "midi": 34,
        "time": 67.433,
        "duration": 0.067,
        "velocity": 1,
        "hand": "left"
      },
      {
        "midi": 46,
        "time": 67.433,
        "duration": 0.067,
        "velocity": 1,
        "hand": "left"
      },
      {
        "midi": 42,
        "time": 67.5,
        "duration": 0.067,
        "velocity": 1,
        "hand": "left"
      },
      {
        "midi": 54,
        "time": 67.5,
        "duration": 0.067,
        "velocity": 1,
        "hand": "left"
      },
      {
        "midi": 41,
        "time": 67.567,
        "duration": 0.067,
        "velocity": 1,
        "hand": "left"
      },
      {
        "midi": 53,
        "time": 67.567,
        "duration": 0.067,
        "velocity": 1,
        "hand": "left"
      },
      {
        "midi": 39,
        "time": 67.701,
        "duration": 0.067,
        "velocity": 1,
        "hand": "left"
      },
      {
        "midi": 51,
        "time": 67.701,
        "duration": 0.067,
        "velocity": 1,
        "hand": "left"
      },
      {
        "midi": 37,
        "time": 67.768,
        "duration": 0.067,
        "velocity": 1,
        "hand": "left"
      },
      {
        "midi": 49,
        "time": 67.768,
        "duration": 0.067,
        "velocity": 1,
        "hand": "left"
      },
      {
        "midi": 36,
        "time": 67.835,
        "duration": 0.067,
        "velocity": 1,
        "hand": "left"
      },
      {
        "midi": 48,
        "time": 67.835,
        "duration": 0.067,
        "velocity": 1,
        "hand": "left"
      },
      {
        "midi": 35,
        "time": 67.969,
        "duration": 0.067,
        "velocity": 1,
        "hand": "left"
      },
      {
        "midi": 47,
        "time": 67.969,
        "duration": 0.067,
        "velocity": 1,
        "hand": "left"
      },
      {
        "midi": 42,
        "time": 68.036,
        "duration": 0.067,
        "velocity": 1,
        "hand": "left"
      },
      {
        "midi": 54,
        "time": 68.036,
        "duration": 0.067,
        "velocity": 1,
        "hand": "left"
      },
      {
        "midi": 41,
        "time": 68.103,
        "duration": 0.067,
        "velocity": 1,
        "hand": "left"
      },
      {
        "midi": 53,
        "time": 68.103,
        "duration": 0.067,
        "velocity": 1,
        "hand": "left"
      },
      {
        "midi": 39,
        "time": 68.237,
        "duration": 0.067,
        "velocity": 1,
        "hand": "left"
      },
      {
        "midi": 51,
        "time": 68.237,
        "duration": 0.067,
        "velocity": 1,
        "hand": "left"
      },
      {
        "midi": 37,
        "time": 68.304,
        "duration": 0.067,
        "velocity": 1,
        "hand": "left"
      },
      {
        "midi": 49,
        "time": 68.304,
        "duration": 0.067,
        "velocity": 1,
        "hand": "left"
      },
      {
        "midi": 35,
        "time": 68.371,
        "duration": 0.067,
        "velocity": 1,
        "hand": "left"
      },
      {
        "midi": 47,
        "time": 68.371,
        "duration": 0.067,
        "velocity": 1,
        "hand": "left"
      },
      {
        "midi": 34,
        "time": 68.504,
        "duration": 0.067,
        "velocity": 1,
        "hand": "left"
      },
      {
        "midi": 46,
        "time": 68.504,
        "duration": 0.067,
        "velocity": 1,
        "hand": "left"
      },
      {
        "midi": 33,
        "time": 68.571,
        "duration": 0.067,
        "velocity": 1,
        "hand": "left"
      },
      {
        "midi": 45,
        "time": 68.571,
        "duration": 0.067,
        "velocity": 1,
        "hand": "left"
      },
      {
        "midi": 34,
        "time": 68.638,
        "duration": 0.067,
        "velocity": 1,
        "hand": "left"
      },
      {
        "midi": 46,
        "time": 68.638,
        "duration": 0.067,
        "velocity": 1,
        "hand": "left"
      },
      {
        "midi": 35,
        "time": 68.772,
        "duration": 0.067,
        "velocity": 1,
        "hand": "left"
      },
      {
        "midi": 47,
        "time": 68.772,
        "duration": 0.067,
        "velocity": 1,
        "hand": "left"
      },
      {
        "midi": 37,
        "time": 68.839,
        "duration": 0.067,
        "velocity": 1,
        "hand": "left"
      },
      {
        "midi": 49,
        "time": 68.839,
        "duration": 0.067,
        "velocity": 1,
        "hand": "left"
      },
      {
        "midi": 39,
        "time": 68.906,
        "duration": 0.067,
        "velocity": 1,
        "hand": "left"
      },
      {
        "midi": 51,
        "time": 68.906,
        "duration": 0.067,
        "velocity": 1,
        "hand": "left"
      },
      {
        "midi": 41,
        "time": 69.04,
        "duration": 0.067,
        "velocity": 1,
        "hand": "left"
      },
      {
        "midi": 53,
        "time": 69.04,
        "duration": 0.067,
        "velocity": 1,
        "hand": "left"
      },
      {
        "midi": 42,
        "time": 69.107,
        "duration": 0.067,
        "velocity": 1,
        "hand": "left"
      },
      {
        "midi": 54,
        "time": 69.107,
        "duration": 0.067,
        "velocity": 1,
        "hand": "left"
      },
      {
        "midi": 44,
        "time": 69.174,
        "duration": 0.067,
        "velocity": 1,
        "hand": "left"
      },
      {
        "midi": 56,
        "time": 69.174,
        "duration": 0.067,
        "velocity": 1,
        "hand": "left"
      },
      {
        "midi": 46,
        "time": 69.308,
        "duration": 0.067,
        "velocity": 1,
        "hand": "left"
      },
      {
        "midi": 58,
        "time": 69.308,
        "duration": 0.067,
        "velocity": 1,
        "hand": "left"
      },
      {
        "midi": 47,
        "time": 69.375,
        "duration": 0.067,
        "velocity": 1,
        "hand": "left"
      },
      {
        "midi": 59,
        "time": 69.375,
        "duration": 0.067,
        "velocity": 1,
        "hand": "left"
      },
      {
        "midi": 49,
        "time": 69.442,
        "duration": 0.067,
        "velocity": 1,
        "hand": "left"
      },
      {
        "midi": 61,
        "time": 69.442,
        "duration": 0.067,
        "velocity": 1,
        "hand": "right"
      },
      {
        "midi": 51,
        "time": 69.576,
        "duration": 0.067,
        "velocity": 1,
        "hand": "left"
      },
      {
        "midi": 63,
        "time": 69.576,
        "duration": 0.067,
        "velocity": 1,
        "hand": "right"
      },
      {
        "midi": 53,
        "time": 69.643,
        "duration": 0.067,
        "velocity": 1,
        "hand": "left"
      },
      {
        "midi": 65,
        "time": 69.643,
        "duration": 0.067,
        "velocity": 1,
        "hand": "right"
      },
      {
        "midi": 52,
        "time": 69.71,
        "duration": 0.067,
        "velocity": 1,
        "hand": "left"
      },
      {
        "midi": 64,
        "time": 69.71,
        "duration": 0.067,
        "velocity": 1,
        "hand": "right"
      },
      {
        "midi": 49,
        "time": 69.844,
        "duration": 0.067,
        "velocity": 1,
        "hand": "left"
      },
      {
        "midi": 61,
        "time": 69.844,
        "duration": 0.067,
        "velocity": 1,
        "hand": "right"
      },
      {
        "midi": 48,
        "time": 69.911,
        "duration": 0.067,
        "velocity": 1,
        "hand": "left"
      },
      {
        "midi": 60,
        "time": 69.911,
        "duration": 0.067,
        "velocity": 1,
        "hand": "right"
      },
      {
        "midi": 46,
        "time": 69.978,
        "duration": 0.067,
        "velocity": 1,
        "hand": "left"
      },
      {
        "midi": 58,
        "time": 69.978,
        "duration": 0.067,
        "velocity": 1,
        "hand": "left"
      },
      {
        "midi": 42,
        "time": 70.112,
        "duration": 0.067,
        "velocity": 1,
        "hand": "left"
      },
      {
        "midi": 54,
        "time": 70.112,
        "duration": 0.067,
        "velocity": 1,
        "hand": "left"
      },
      {
        "midi": 41,
        "time": 70.179,
        "duration": 0.067,
        "velocity": 1,
        "hand": "left"
      },
      {
        "midi": 53,
        "time": 70.179,
        "duration": 0.067,
        "velocity": 1,
        "hand": "left"
      },
      {
        "midi": 40,
        "time": 70.246,
        "duration": 0.067,
        "velocity": 1,
        "hand": "left"
      },
      {
        "midi": 52,
        "time": 70.246,
        "duration": 0.067,
        "velocity": 1,
        "hand": "left"
      },
      {
        "midi": 37,
        "time": 70.379,
        "duration": 0.067,
        "velocity": 1,
        "hand": "left"
      },
      {
        "midi": 49,
        "time": 70.379,
        "duration": 0.067,
        "velocity": 1,
        "hand": "left"
      },
      {
        "midi": 36,
        "time": 70.446,
        "duration": 0.067,
        "velocity": 1,
        "hand": "left"
      },
      {
        "midi": 48,
        "time": 70.446,
        "duration": 0.067,
        "velocity": 1,
        "hand": "left"
      },
      {
        "midi": 34,
        "time": 70.513,
        "duration": 0.067,
        "velocity": 1,
        "hand": "left"
      },
      {
        "midi": 46,
        "time": 70.513,
        "duration": 0.067,
        "velocity": 1,
        "hand": "left"
      },
      {
        "midi": 30,
        "time": 70.647,
        "duration": 0.067,
        "velocity": 1,
        "hand": "left"
      },
      {
        "midi": 42,
        "time": 70.647,
        "duration": 0.067,
        "velocity": 1,
        "hand": "left"
      },
      {
        "midi": 29,
        "time": 70.714,
        "duration": 0.067,
        "velocity": 1,
        "hand": "left"
      },
      {
        "midi": 41,
        "time": 70.714,
        "duration": 0.067,
        "velocity": 1,
        "hand": "left"
      },
      {
        "midi": 34,
        "time": 70.781,
        "duration": 0.067,
        "velocity": 1,
        "hand": "left"
      },
      {
        "midi": 46,
        "time": 70.781,
        "duration": 0.067,
        "velocity": 1,
        "hand": "left"
      },
      {
        "midi": 32,
        "time": 70.915,
        "duration": 0.067,
        "velocity": 1,
        "hand": "left"
      },
      {
        "midi": 44,
        "time": 70.915,
        "duration": 0.067,
        "velocity": 1,
        "hand": "left"
      },
      {
        "midi": 33,
        "time": 70.982,
        "duration": 0.067,
        "velocity": 1,
        "hand": "left"
      },
      {
        "midi": 45,
        "time": 70.982,
        "duration": 0.067,
        "velocity": 1,
        "hand": "left"
      },
      {
        "midi": 37,
        "time": 71.049,
        "duration": 0.067,
        "velocity": 1,
        "hand": "left"
      },
      {
        "midi": 49,
        "time": 71.049,
        "duration": 0.067,
        "velocity": 1,
        "hand": "left"
      },
      {
        "midi": 33,
        "time": 71.183,
        "duration": 0.067,
        "velocity": 1,
        "hand": "left"
      },
      {
        "midi": 45,
        "time": 71.183,
        "duration": 0.067,
        "velocity": 1,
        "hand": "left"
      },
      {
        "midi": 34,
        "time": 71.25,
        "duration": 0.067,
        "velocity": 1,
        "hand": "left"
      },
      {
        "midi": 46,
        "time": 71.25,
        "duration": 0.067,
        "velocity": 1,
        "hand": "left"
      },
      {
        "midi": 39,
        "time": 71.317,
        "duration": 0.067,
        "velocity": 1,
        "hand": "left"
      },
      {
        "midi": 51,
        "time": 71.317,
        "duration": 0.067,
        "velocity": 1,
        "hand": "left"
      },
      {
        "midi": 35,
        "time": 71.451,
        "duration": 0.067,
        "velocity": 1,
        "hand": "left"
      },
      {
        "midi": 47,
        "time": 71.451,
        "duration": 0.067,
        "velocity": 1,
        "hand": "left"
      },
      {
        "midi": 36,
        "time": 71.518,
        "duration": 0.067,
        "velocity": 1,
        "hand": "left"
      },
      {
        "midi": 48,
        "time": 71.518,
        "duration": 0.067,
        "velocity": 1,
        "hand": "left"
      },
      {
        "midi": 41,
        "time": 71.585,
        "duration": 0.067,
        "velocity": 1,
        "hand": "left"
      },
      {
        "midi": 53,
        "time": 71.585,
        "duration": 0.067,
        "velocity": 1,
        "hand": "left"
      },
      {
        "midi": 36,
        "time": 71.719,
        "duration": 0.067,
        "velocity": 1,
        "hand": "left"
      },
      {
        "midi": 48,
        "time": 71.719,
        "duration": 0.067,
        "velocity": 1,
        "hand": "left"
      },
      {
        "midi": 37,
        "time": 71.786,
        "duration": 0.067,
        "velocity": 1,
        "hand": "left"
      },
      {
        "midi": 49,
        "time": 71.786,
        "duration": 0.067,
        "velocity": 1,
        "hand": "left"
      },
      {
        "midi": 42,
        "time": 71.853,
        "duration": 0.067,
        "velocity": 1,
        "hand": "left"
      },
      {
        "midi": 54,
        "time": 71.853,
        "duration": 0.067,
        "velocity": 1,
        "hand": "left"
      },
      {
        "midi": 38,
        "time": 71.987,
        "duration": 0.067,
        "velocity": 1,
        "hand": "left"
      },
      {
        "midi": 50,
        "time": 71.987,
        "duration": 0.067,
        "velocity": 1,
        "hand": "left"
      },
      {
        "midi": 39,
        "time": 72.054,
        "duration": 0.067,
        "velocity": 1,
        "hand": "left"
      },
      {
        "midi": 51,
        "time": 72.054,
        "duration": 0.067,
        "velocity": 1,
        "hand": "left"
      },
      {
        "midi": 45,
        "time": 72.121,
        "duration": 0.067,
        "velocity": 1,
        "hand": "left"
      },
      {
        "midi": 57,
        "time": 72.121,
        "duration": 0.067,
        "velocity": 1,
        "hand": "left"
      },
      {
        "midi": 41,
        "time": 72.254,
        "duration": 0.067,
        "velocity": 1,
        "hand": "left"
      },
      {
        "midi": 53,
        "time": 72.254,
        "duration": 0.067,
        "velocity": 1,
        "hand": "left"
      },
      {
        "midi": 42,
        "time": 72.321,
        "duration": 0.067,
        "velocity": 1,
        "hand": "left"
      },
      {
        "midi": 54,
        "time": 72.321,
        "duration": 0.067,
        "velocity": 1,
        "hand": "left"
      },
      {
        "midi": 49,
        "time": 72.388,
        "duration": 0.067,
        "velocity": 1,
        "hand": "left"
      },
      {
        "midi": 61,
        "time": 72.388,
        "duration": 0.067,
        "velocity": 1,
        "hand": "right"
      },
      {
        "midi": 45,
        "time": 72.522,
        "duration": 0.067,
        "velocity": 1,
        "hand": "left"
      },
      {
        "midi": 57,
        "time": 72.522,
        "duration": 0.067,
        "velocity": 1,
        "hand": "left"
      },
      {
        "midi": 48,
        "time": 72.589,
        "duration": 0.067,
        "velocity": 1,
        "hand": "left"
      },
      {
        "midi": 60,
        "time": 72.589,
        "duration": 0.067,
        "velocity": 1,
        "hand": "right"
      },
      {
        "midi": 54,
        "time": 72.656,
        "duration": 0.067,
        "velocity": 1,
        "hand": "left"
      },
      {
        "midi": 66,
        "time": 72.656,
        "duration": 0.067,
        "velocity": 1,
        "hand": "right"
      },
      {
        "midi": 53,
        "time": 72.79,
        "duration": 0.067,
        "velocity": 1,
        "hand": "left"
      },
      {
        "midi": 65,
        "time": 72.79,
        "duration": 0.067,
        "velocity": 1,
        "hand": "right"
      },
      {
        "midi": 45,
        "time": 72.857,
        "duration": 0.067,
        "velocity": 1,
        "hand": "left"
      },
      {
        "midi": 57,
        "time": 72.857,
        "duration": 0.067,
        "velocity": 1,
        "hand": "left"
      },
      {
        "midi": 49,
        "time": 72.924,
        "duration": 0.067,
        "velocity": 1,
        "hand": "left"
      },
      {
        "midi": 61,
        "time": 72.924,
        "duration": 0.067,
        "velocity": 1,
        "hand": "right"
      },
      {
        "midi": 45,
        "time": 73.058,
        "duration": 0.067,
        "velocity": 1,
        "hand": "left"
      },
      {
        "midi": 57,
        "time": 73.058,
        "duration": 0.067,
        "velocity": 1,
        "hand": "left"
      },
      {
        "midi": 48,
        "time": 73.125,
        "duration": 0.067,
        "velocity": 1,
        "hand": "left"
      },
      {
        "midi": 60,
        "time": 73.125,
        "duration": 0.067,
        "velocity": 1,
        "hand": "right"
      },
      {
        "midi": 54,
        "time": 73.192,
        "duration": 0.067,
        "velocity": 1,
        "hand": "left"
      },
      {
        "midi": 66,
        "time": 73.192,
        "duration": 0.067,
        "velocity": 1,
        "hand": "right"
      },
      {
        "midi": 53,
        "time": 73.326,
        "duration": 0.067,
        "velocity": 1,
        "hand": "left"
      },
      {
        "midi": 65,
        "time": 73.326,
        "duration": 0.067,
        "velocity": 1,
        "hand": "right"
      },
      {
        "midi": 45,
        "time": 73.393,
        "duration": 0.067,
        "velocity": 1,
        "hand": "left"
      },
      {
        "midi": 57,
        "time": 73.393,
        "duration": 0.067,
        "velocity": 1,
        "hand": "left"
      },
      {
        "midi": 49,
        "time": 73.46,
        "duration": 0.067,
        "velocity": 1,
        "hand": "left"
      },
      {
        "midi": 61,
        "time": 73.46,
        "duration": 0.067,
        "velocity": 1,
        "hand": "right"
      },
      {
        "midi": 45,
        "time": 73.594,
        "duration": 0.067,
        "velocity": 1,
        "hand": "left"
      },
      {
        "midi": 57,
        "time": 73.594,
        "duration": 0.067,
        "velocity": 1,
        "hand": "left"
      },
      {
        "midi": 48,
        "time": 73.661,
        "duration": 0.067,
        "velocity": 1,
        "hand": "left"
      },
      {
        "midi": 60,
        "time": 73.661,
        "duration": 0.067,
        "velocity": 1,
        "hand": "right"
      },
      {
        "midi": 54,
        "time": 73.728,
        "duration": 0.067,
        "velocity": 1,
        "hand": "left"
      },
      {
        "midi": 66,
        "time": 73.728,
        "duration": 0.067,
        "velocity": 1,
        "hand": "right"
      },
      {
        "midi": 53,
        "time": 73.862,
        "duration": 0.067,
        "velocity": 1,
        "hand": "left"
      },
      {
        "midi": 65,
        "time": 73.862,
        "duration": 0.067,
        "velocity": 1,
        "hand": "right"
      },
      {
        "midi": 48,
        "time": 73.929,
        "duration": 0.067,
        "velocity": 1,
        "hand": "left"
      },
      {
        "midi": 60,
        "time": 73.929,
        "duration": 0.067,
        "velocity": 1,
        "hand": "right"
      },
      {
        "midi": 54,
        "time": 73.996,
        "duration": 0.067,
        "velocity": 1,
        "hand": "left"
      },
      {
        "midi": 66,
        "time": 73.996,
        "duration": 0.067,
        "velocity": 1,
        "hand": "right"
      },
      {
        "midi": 53,
        "time": 74.129,
        "duration": 0.067,
        "velocity": 1,
        "hand": "left"
      },
      {
        "midi": 65,
        "time": 74.129,
        "duration": 0.067,
        "velocity": 1,
        "hand": "right"
      },
      {
        "midi": 48,
        "time": 74.196,
        "duration": 0.067,
        "velocity": 1,
        "hand": "left"
      },
      {
        "midi": 60,
        "time": 74.196,
        "duration": 0.067,
        "velocity": 1,
        "hand": "right"
      },
      {
        "midi": 54,
        "time": 74.263,
        "duration": 0.067,
        "velocity": 1,
        "hand": "left"
      },
      {
        "midi": 66,
        "time": 74.263,
        "duration": 0.067,
        "velocity": 1,
        "hand": "right"
      },
      {
        "midi": 53,
        "time": 74.397,
        "duration": 0.067,
        "velocity": 1,
        "hand": "left"
      },
      {
        "midi": 65,
        "time": 74.397,
        "duration": 0.067,
        "velocity": 1,
        "hand": "right"
      },
      {
        "midi": 48,
        "time": 74.464,
        "duration": 0.067,
        "velocity": 1,
        "hand": "left"
      },
      {
        "midi": 60,
        "time": 74.464,
        "duration": 0.067,
        "velocity": 1,
        "hand": "right"
      },
      {
        "midi": 54,
        "time": 74.531,
        "duration": 0.067,
        "velocity": 1,
        "hand": "left"
      },
      {
        "midi": 66,
        "time": 74.531,
        "duration": 0.067,
        "velocity": 1,
        "hand": "right"
      },
      {
        "midi": 53,
        "time": 74.665,
        "duration": 0.067,
        "velocity": 1,
        "hand": "left"
      },
      {
        "midi": 65,
        "time": 74.665,
        "duration": 0.067,
        "velocity": 1,
        "hand": "right"
      },
      {
        "midi": 46,
        "time": 74.732,
        "duration": 0.067,
        "velocity": 1,
        "hand": "left"
      },
      {
        "midi": 58,
        "time": 74.732,
        "duration": 0.067,
        "velocity": 1,
        "hand": "left"
      },
      {
        "midi": 54,
        "time": 74.799,
        "duration": 0.067,
        "velocity": 1,
        "hand": "left"
      },
      {
        "midi": 66,
        "time": 74.799,
        "duration": 0.067,
        "velocity": 1,
        "hand": "right"
      },
      {
        "midi": 53,
        "time": 74.933,
        "duration": 0.067,
        "velocity": 1,
        "hand": "left"
      },
      {
        "midi": 65,
        "time": 74.933,
        "duration": 0.067,
        "velocity": 1,
        "hand": "right"
      },
      {
        "midi": 49,
        "time": 75,
        "duration": 0.067,
        "velocity": 1,
        "hand": "left"
      },
      {
        "midi": 61,
        "time": 75,
        "duration": 0.067,
        "velocity": 1,
        "hand": "right"
      },
      {
        "midi": 41,
        "time": 75.067,
        "duration": 0.067,
        "velocity": 1,
        "hand": "left"
      },
      {
        "midi": 53,
        "time": 75.067,
        "duration": 0.067,
        "velocity": 1,
        "hand": "left"
      },
      {
        "midi": 51,
        "time": 75.201,
        "duration": 0.067,
        "velocity": 1,
        "hand": "left"
      },
      {
        "midi": 63,
        "time": 75.201,
        "duration": 0.067,
        "velocity": 1,
        "hand": "right"
      },
      {
        "midi": 53,
        "time": 75.268,
        "duration": 0.067,
        "velocity": 1,
        "hand": "left"
      },
      {
        "midi": 65,
        "time": 75.268,
        "duration": 0.067,
        "velocity": 1,
        "hand": "right"
      },
      {
        "midi": 51,
        "time": 75.335,
        "duration": 0.067,
        "velocity": 1,
        "hand": "left"
      },
      {
        "midi": 63,
        "time": 75.335,
        "duration": 0.067,
        "velocity": 1,
        "hand": "right"
      },
      {
        "midi": 49,
        "time": 75.469,
        "duration": 0.067,
        "velocity": 1,
        "hand": "left"
      },
      {
        "midi": 61,
        "time": 75.469,
        "duration": 0.067,
        "velocity": 1,
        "hand": "right"
      },
      {
        "midi": 46,
        "time": 75.536,
        "duration": 0.067,
        "velocity": 1,
        "hand": "left"
      },
      {
        "midi": 58,
        "time": 75.536,
        "duration": 0.067,
        "velocity": 1,
        "hand": "left"
      },
      {
        "midi": 41,
        "time": 75.603,
        "duration": 0.067,
        "velocity": 1,
        "hand": "left"
      },
      {
        "midi": 53,
        "time": 75.603,
        "duration": 0.067,
        "velocity": 1,
        "hand": "left"
      },
      {
        "midi": 48,
        "time": 75.737,
        "duration": 0.067,
        "velocity": 1,
        "hand": "left"
      },
      {
        "midi": 60,
        "time": 75.737,
        "duration": 0.067,
        "velocity": 1,
        "hand": "right"
      },
      {
        "midi": 49,
        "time": 75.804,
        "duration": 0.067,
        "velocity": 1,
        "hand": "left"
      },
      {
        "midi": 61,
        "time": 75.804,
        "duration": 0.067,
        "velocity": 1,
        "hand": "right"
      },
      {
        "midi": 48,
        "time": 75.871,
        "duration": 0.067,
        "velocity": 1,
        "hand": "left"
      },
      {
        "midi": 60,
        "time": 75.871,
        "duration": 0.067,
        "velocity": 1,
        "hand": "right"
      },
      {
        "midi": 46,
        "time": 76.004,
        "duration": 0.067,
        "velocity": 1,
        "hand": "left"
      },
      {
        "midi": 58,
        "time": 76.004,
        "duration": 0.067,
        "velocity": 1,
        "hand": "left"
      },
      {
        "midi": 49,
        "time": 76.071,
        "duration": 0.067,
        "velocity": 1,
        "hand": "left"
      },
      {
        "midi": 61,
        "time": 76.071,
        "duration": 0.067,
        "velocity": 1,
        "hand": "right"
      },
      {
        "midi": 41,
        "time": 76.138,
        "duration": 0.067,
        "velocity": 1,
        "hand": "left"
      },
      {
        "midi": 53,
        "time": 76.138,
        "duration": 0.067,
        "velocity": 1,
        "hand": "left"
      },
      {
        "midi": 51,
        "time": 76.272,
        "duration": 0.067,
        "velocity": 1,
        "hand": "left"
      },
      {
        "midi": 63,
        "time": 76.272,
        "duration": 0.067,
        "velocity": 1,
        "hand": "right"
      },
      {
        "midi": 53,
        "time": 76.339,
        "duration": 0.067,
        "velocity": 1,
        "hand": "left"
      },
      {
        "midi": 65,
        "time": 76.339,
        "duration": 0.067,
        "velocity": 1,
        "hand": "right"
      },
      {
        "midi": 51,
        "time": 76.406,
        "duration": 0.067,
        "velocity": 1,
        "hand": "left"
      },
      {
        "midi": 63,
        "time": 76.406,
        "duration": 0.067,
        "velocity": 1,
        "hand": "right"
      },
      {
        "midi": 49,
        "time": 76.54,
        "duration": 0.067,
        "velocity": 1,
        "hand": "left"
      },
      {
        "midi": 61,
        "time": 76.54,
        "duration": 0.067,
        "velocity": 1,
        "hand": "right"
      },
      {
        "midi": 46,
        "time": 76.607,
        "duration": 0.067,
        "velocity": 1,
        "hand": "left"
      },
      {
        "midi": 58,
        "time": 76.607,
        "duration": 0.067,
        "velocity": 1,
        "hand": "left"
      },
      {
        "midi": 41,
        "time": 76.674,
        "duration": 0.067,
        "velocity": 1,
        "hand": "left"
      },
      {
        "midi": 53,
        "time": 76.674,
        "duration": 0.067,
        "velocity": 1,
        "hand": "left"
      },
      {
        "midi": 48,
        "time": 76.808,
        "duration": 0.067,
        "velocity": 1,
        "hand": "left"
      },
      {
        "midi": 60,
        "time": 76.808,
        "duration": 0.067,
        "velocity": 1,
        "hand": "right"
      },
      {
        "midi": 49,
        "time": 76.875,
        "duration": 0.067,
        "velocity": 1,
        "hand": "left"
      },
      {
        "midi": 61,
        "time": 76.875,
        "duration": 0.067,
        "velocity": 1,
        "hand": "right"
      },
      {
        "midi": 48,
        "time": 76.942,
        "duration": 0.067,
        "velocity": 1,
        "hand": "left"
      },
      {
        "midi": 60,
        "time": 76.942,
        "duration": 0.067,
        "velocity": 1,
        "hand": "right"
      },
      {
        "midi": 46,
        "time": 77.076,
        "duration": 0.067,
        "velocity": 1,
        "hand": "left"
      },
      {
        "midi": 58,
        "time": 77.076,
        "duration": 0.067,
        "velocity": 1,
        "hand": "left"
      },
      {
        "midi": 39,
        "time": 77.143,
        "duration": 0.067,
        "velocity": 1,
        "hand": "left"
      },
      {
        "midi": 51,
        "time": 77.143,
        "duration": 0.067,
        "velocity": 1,
        "hand": "left"
      },
      {
        "midi": 41,
        "time": 77.21,
        "duration": 0.067,
        "velocity": 1,
        "hand": "left"
      },
      {
        "midi": 53,
        "time": 77.21,
        "duration": 0.067,
        "velocity": 1,
        "hand": "left"
      },
      {
        "midi": 46,
        "time": 77.344,
        "duration": 0.067,
        "velocity": 1,
        "hand": "left"
      },
      {
        "midi": 58,
        "time": 77.344,
        "duration": 0.067,
        "velocity": 1,
        "hand": "left"
      },
      {
        "midi": 49,
        "time": 77.411,
        "duration": 0.067,
        "velocity": 1,
        "hand": "left"
      },
      {
        "midi": 61,
        "time": 77.411,
        "duration": 0.067,
        "velocity": 1,
        "hand": "right"
      },
      {
        "midi": 37,
        "time": 77.478,
        "duration": 0.067,
        "velocity": 1,
        "hand": "left"
      },
      {
        "midi": 49,
        "time": 77.478,
        "duration": 0.067,
        "velocity": 1,
        "hand": "left"
      },
      {
        "midi": 41,
        "time": 77.612,
        "duration": 0.067,
        "velocity": 1,
        "hand": "left"
      },
      {
        "midi": 53,
        "time": 77.612,
        "duration": 0.067,
        "velocity": 1,
        "hand": "left"
      },
      {
        "midi": 39,
        "time": 77.679,
        "duration": 0.067,
        "velocity": 1,
        "hand": "left"
      },
      {
        "midi": 51,
        "time": 77.679,
        "duration": 0.067,
        "velocity": 1,
        "hand": "left"
      },
      {
        "midi": 41,
        "time": 77.746,
        "duration": 0.067,
        "velocity": 1,
        "hand": "left"
      },
      {
        "midi": 53,
        "time": 77.746,
        "duration": 0.067,
        "velocity": 1,
        "hand": "left"
      },
      {
        "midi": 46,
        "time": 77.879,
        "duration": 0.067,
        "velocity": 1,
        "hand": "left"
      },
      {
        "midi": 58,
        "time": 77.879,
        "duration": 0.067,
        "velocity": 1,
        "hand": "left"
      },
      {
        "midi": 49,
        "time": 77.946,
        "duration": 0.067,
        "velocity": 1,
        "hand": "left"
      },
      {
        "midi": 61,
        "time": 77.946,
        "duration": 0.067,
        "velocity": 1,
        "hand": "right"
      },
      {
        "midi": 37,
        "time": 78.013,
        "duration": 0.067,
        "velocity": 1,
        "hand": "left"
      },
      {
        "midi": 49,
        "time": 78.013,
        "duration": 0.067,
        "velocity": 1,
        "hand": "left"
      },
      {
        "midi": 41,
        "time": 78.147,
        "duration": 0.067,
        "velocity": 1,
        "hand": "left"
      },
      {
        "midi": 53,
        "time": 78.147,
        "duration": 0.067,
        "velocity": 1,
        "hand": "left"
      },
      {
        "midi": 36,
        "time": 78.214,
        "duration": 0.067,
        "velocity": 1,
        "hand": "left"
      },
      {
        "midi": 48,
        "time": 78.214,
        "duration": 0.067,
        "velocity": 1,
        "hand": "left"
      },
      {
        "midi": 37,
        "time": 78.281,
        "duration": 0.067,
        "velocity": 1,
        "hand": "left"
      },
      {
        "midi": 49,
        "time": 78.281,
        "duration": 0.067,
        "velocity": 1,
        "hand": "left"
      },
      {
        "midi": 41,
        "time": 78.415,
        "duration": 0.067,
        "velocity": 1,
        "hand": "left"
      },
      {
        "midi": 53,
        "time": 78.415,
        "duration": 0.067,
        "velocity": 1,
        "hand": "left"
      },
      {
        "midi": 46,
        "time": 78.482,
        "duration": 0.067,
        "velocity": 1,
        "hand": "left"
      },
      {
        "midi": 58,
        "time": 78.482,
        "duration": 0.067,
        "velocity": 1,
        "hand": "left"
      },
      {
        "midi": 34,
        "time": 78.549,
        "duration": 0.067,
        "velocity": 1,
        "hand": "left"
      },
      {
        "midi": 46,
        "time": 78.549,
        "duration": 0.067,
        "velocity": 1,
        "hand": "left"
      },
      {
        "midi": 37,
        "time": 78.683,
        "duration": 0.067,
        "velocity": 1,
        "hand": "left"
      },
      {
        "midi": 49,
        "time": 78.683,
        "duration": 0.067,
        "velocity": 1,
        "hand": "left"
      },
      {
        "midi": 36,
        "time": 78.75,
        "duration": 0.067,
        "velocity": 1,
        "hand": "left"
      },
      {
        "midi": 48,
        "time": 78.75,
        "duration": 0.067,
        "velocity": 1,
        "hand": "left"
      },
      {
        "midi": 37,
        "time": 78.817,
        "duration": 0.067,
        "velocity": 1,
        "hand": "left"
      },
      {
        "midi": 49,
        "time": 78.817,
        "duration": 0.067,
        "velocity": 1,
        "hand": "left"
      },
      {
        "midi": 41,
        "time": 78.951,
        "duration": 0.067,
        "velocity": 1,
        "hand": "left"
      },
      {
        "midi": 53,
        "time": 78.951,
        "duration": 0.067,
        "velocity": 1,
        "hand": "left"
      },
      {
        "midi": 46,
        "time": 79.018,
        "duration": 0.067,
        "velocity": 1,
        "hand": "left"
      },
      {
        "midi": 58,
        "time": 79.018,
        "duration": 0.067,
        "velocity": 1,
        "hand": "left"
      },
      {
        "midi": 34,
        "time": 79.085,
        "duration": 0.067,
        "velocity": 1,
        "hand": "left"
      },
      {
        "midi": 46,
        "time": 79.085,
        "duration": 0.067,
        "velocity": 1,
        "hand": "left"
      },
      {
        "midi": 37,
        "time": 79.219,
        "duration": 0.067,
        "velocity": 1,
        "hand": "left"
      },
      {
        "midi": 49,
        "time": 79.219,
        "duration": 0.067,
        "velocity": 1,
        "hand": "left"
      },
      {
        "midi": 36,
        "time": 79.821,
        "duration": 0.067,
        "velocity": 1,
        "hand": "left"
      },
      {
        "midi": 48,
        "time": 79.821,
        "duration": 0.067,
        "velocity": 1,
        "hand": "left"
      },
      {
        "midi": 37,
        "time": 79.888,
        "duration": 0.067,
        "velocity": 1,
        "hand": "left"
      },
      {
        "midi": 49,
        "time": 79.888,
        "duration": 0.067,
        "velocity": 1,
        "hand": "left"
      },
      {
        "midi": 41,
        "time": 80.022,
        "duration": 0.067,
        "velocity": 1,
        "hand": "left"
      },
      {
        "midi": 53,
        "time": 80.022,
        "duration": 0.067,
        "velocity": 1,
        "hand": "left"
      },
      {
        "midi": 46,
        "time": 80.089,
        "duration": 0.067,
        "velocity": 1,
        "hand": "left"
      },
      {
        "midi": 58,
        "time": 80.089,
        "duration": 0.067,
        "velocity": 1,
        "hand": "left"
      },
      {
        "midi": 34,
        "time": 80.156,
        "duration": 0.067,
        "velocity": 1,
        "hand": "left"
      },
      {
        "midi": 46,
        "time": 80.156,
        "duration": 0.067,
        "velocity": 1,
        "hand": "left"
      },
      {
        "midi": 37,
        "time": 80.29,
        "duration": 0.067,
        "velocity": 1,
        "hand": "left"
      },
      {
        "midi": 49,
        "time": 80.29,
        "duration": 0.067,
        "velocity": 1,
        "hand": "left"
      },
      {
        "midi": 36,
        "time": 80.893,
        "duration": 0.067,
        "velocity": 1,
        "hand": "left"
      },
      {
        "midi": 48,
        "time": 80.893,
        "duration": 0.067,
        "velocity": 1,
        "hand": "left"
      },
      {
        "midi": 37,
        "time": 80.96,
        "duration": 0.067,
        "velocity": 1,
        "hand": "left"
      },
      {
        "midi": 49,
        "time": 80.96,
        "duration": 0.067,
        "velocity": 1,
        "hand": "left"
      },
      {
        "midi": 41,
        "time": 81.094,
        "duration": 0.067,
        "velocity": 1,
        "hand": "left"
      },
      {
        "midi": 53,
        "time": 81.094,
        "duration": 0.067,
        "velocity": 1,
        "hand": "left"
      },
      {
        "midi": 46,
        "time": 81.161,
        "duration": 0.067,
        "velocity": 1,
        "hand": "left"
      },
      {
        "midi": 58,
        "time": 81.161,
        "duration": 0.067,
        "velocity": 1,
        "hand": "left"
      },
      {
        "midi": 34,
        "time": 81.228,
        "duration": 0.067,
        "velocity": 1,
        "hand": "left"
      },
      {
        "midi": 46,
        "time": 81.228,
        "duration": 0.067,
        "velocity": 1,
        "hand": "left"
      },
      {
        "midi": 37,
        "time": 81.362,
        "duration": 0.067,
        "velocity": 1,
        "hand": "left"
      },
      {
        "midi": 49,
        "time": 81.362,
        "duration": 0.067,
        "velocity": 1,
        "hand": "left"
      },
      {
        "midi": 34,
        "time": 81.429,
        "duration": 0.268,
        "velocity": 1,
        "hand": "left"
      },
      {
        "midi": 46,
        "time": 81.429,
        "duration": 0.268,
        "velocity": 1,
        "hand": "left"
      },
      {
        "midi": 53,
        "time": 81.964,
        "duration": 0.536,
        "velocity": 1,
        "hand": "left"
      },
      {
        "midi": 58,
        "time": 81.964,
        "duration": 0.536,
        "velocity": 1,
        "hand": "left"
      },
      {
        "midi": 61,
        "time": 81.964,
        "duration": 0.536,
        "velocity": 1,
        "hand": "right"
      },
      {
        "midi": 65,
        "time": 81.964,
        "duration": 0.536,
        "velocity": 1,
        "hand": "right"
      },
      {
        "midi": 82,
        "time": 81.964,
        "duration": 0.536,
        "velocity": 1,
        "hand": "right"
      },
      {
        "midi": 94,
        "time": 81.964,
        "duration": 0.536,
        "velocity": 1,
        "hand": "right"
      }
    ]
  },
  "notes1Hand": [
    {
      "midi": 61,
      "time": 0.268,
      "duration": 0.134,
      "velocity": 1,
      "hand": "right"
    },
    {
      "midi": 61,
      "time": 0.804,
      "duration": 0.134,
      "velocity": 1,
      "hand": "right"
    },
    {
      "midi": 63,
      "time": 1.339,
      "duration": 0.134,
      "velocity": 1,
      "hand": "right"
    },
    {
      "midi": 63,
      "time": 1.875,
      "duration": 0.134,
      "velocity": 1,
      "hand": "right"
    },
    {
      "midi": 60,
      "time": 2.21,
      "duration": 0.134,
      "velocity": 1,
      "hand": "right"
    },
    {
      "midi": 66,
      "time": 2.411,
      "duration": 0.134,
      "velocity": 1,
      "hand": "right"
    },
    {
      "midi": 61,
      "time": 2.679,
      "duration": 0.134,
      "velocity": 1,
      "hand": "right"
    },
    {
      "midi": 69,
      "time": 2.946,
      "duration": 0.134,
      "velocity": 1,
      "hand": "right"
    },
    {
      "midi": 63,
      "time": 3.147,
      "duration": 0.134,
      "velocity": 1,
      "hand": "right"
    },
    {
      "midi": 69,
      "time": 3.482,
      "duration": 0.134,
      "velocity": 1,
      "hand": "right"
    },
    {
      "midi": 66,
      "time": 3.75,
      "duration": 0.134,
      "velocity": 1,
      "hand": "right"
    },
    {
      "midi": 75,
      "time": 4.018,
      "duration": 0.134,
      "velocity": 1,
      "hand": "right"
    },
    {
      "midi": 70,
      "time": 4.286,
      "duration": 0.134,
      "velocity": 1,
      "hand": "right"
    },
    {
      "midi": 78,
      "time": 4.487,
      "duration": 0.134,
      "velocity": 1,
      "hand": "right"
    },
    {
      "midi": 72,
      "time": 4.621,
      "duration": 0.134,
      "velocity": 1,
      "hand": "right"
    },
    {
      "midi": 76,
      "time": 4.821,
      "duration": 0.134,
      "velocity": 1,
      "hand": "right"
    },
    {
      "midi": 73,
      "time": 5.022,
      "duration": 0.134,
      "velocity": 1,
      "hand": "right"
    },
    {
      "midi": 70,
      "time": 5.156,
      "duration": 0.134,
      "velocity": 1,
      "hand": "right"
    },
    {
      "midi": 66,
      "time": 5.29,
      "duration": 0.134,
      "velocity": 1,
      "hand": "right"
    },
    {
      "midi": 65,
      "time": 5.424,
      "duration": 0.134,
      "velocity": 1,
      "hand": "right"
    },
    {
      "midi": 70,
      "time": 5.558,
      "duration": 0.134,
      "velocity": 1,
      "hand": "right"
    },
    {
      "midi": 69,
      "time": 5.692,
      "duration": 0.134,
      "velocity": 1,
      "hand": "right"
    },
    {
      "midi": 73,
      "time": 5.826,
      "duration": 0.134,
      "velocity": 1,
      "hand": "right"
    },
    {
      "midi": 70,
      "time": 5.96,
      "duration": 0.134,
      "velocity": 1,
      "hand": "right"
    },
    {
      "midi": 73,
      "time": 6.094,
      "duration": 0.134,
      "velocity": 1,
      "hand": "right"
    },
    {
      "midi": 72,
      "time": 6.228,
      "duration": 0.134,
      "velocity": 1,
      "hand": "right"
    },
    {
      "midi": 77,
      "time": 6.362,
      "duration": 0.134,
      "velocity": 1,
      "hand": "right"
    },
    {
      "midi": 71,
      "time": 6.496,
      "duration": 0.134,
      "velocity": 1,
      "hand": "right"
    },
    {
      "midi": 70,
      "time": 6.763,
      "duration": 0.134,
      "velocity": 1,
      "hand": "right"
    },
    {
      "midi": 74,
      "time": 6.964,
      "duration": 0.134,
      "velocity": 1,
      "hand": "right"
    },
    {
      "midi": 71,
      "time": 7.165,
      "duration": 0.134,
      "velocity": 1,
      "hand": "right"
    },
    {
      "midi": 68,
      "time": 7.299,
      "duration": 0.134,
      "velocity": 1,
      "hand": "right"
    },
    {
      "midi": 64,
      "time": 7.433,
      "duration": 0.134,
      "velocity": 1,
      "hand": "right"
    },
    {
      "midi": 63,
      "time": 7.567,
      "duration": 0.134,
      "velocity": 1,
      "hand": "right"
    },
    {
      "midi": 68,
      "time": 7.701,
      "duration": 0.134,
      "velocity": 1,
      "hand": "right"
    },
    {
      "midi": 65,
      "time": 7.835,
      "duration": 0.134,
      "velocity": 1,
      "hand": "right"
    },
    {
      "midi": 71,
      "time": 7.969,
      "duration": 0.134,
      "velocity": 1,
      "hand": "right"
    },
    {
      "midi": 66,
      "time": 8.103,
      "duration": 0.134,
      "velocity": 1,
      "hand": "right"
    },
    {
      "midi": 71,
      "time": 8.237,
      "duration": 0.134,
      "velocity": 1,
      "hand": "right"
    },
    {
      "midi": 70,
      "time": 8.371,
      "duration": 0.134,
      "velocity": 1,
      "hand": "right"
    },
    {
      "midi": 65,
      "time": 8.638,
      "duration": 0.134,
      "velocity": 1,
      "hand": "right"
    },
    {
      "midi": 70,
      "time": 8.772,
      "duration": 0.134,
      "velocity": 1,
      "hand": "right"
    },
    {
      "midi": 64,
      "time": 8.906,
      "duration": 0.134,
      "velocity": 1,
      "hand": "right"
    },
    {
      "midi": 72,
      "time": 9.107,
      "duration": 0.134,
      "velocity": 1,
      "hand": "right"
    },
    {
      "midi": 68,
      "time": 9.308,
      "duration": 0.134,
      "velocity": 1,
      "hand": "right"
    },
    {
      "midi": 62,
      "time": 9.442,
      "duration": 0.134,
      "velocity": 1,
      "hand": "right"
    },
    {
      "midi": 71,
      "time": 9.643,
      "duration": 0.134,
      "velocity": 1,
      "hand": "right"
    },
    {
      "midi": 66,
      "time": 9.844,
      "duration": 0.134,
      "velocity": 1,
      "hand": "right"
    },
    {
      "midi": 61,
      "time": 9.978,
      "duration": 0.134,
      "velocity": 1,
      "hand": "right"
    },
    {
      "midi": 70,
      "time": 10.179,
      "duration": 0.134,
      "velocity": 1,
      "hand": "right"
    },
    {
      "midi": 72,
      "time": 10.446,
      "duration": 0.134,
      "velocity": 1,
      "hand": "right"
    },
    {
      "midi": 76,
      "time": 10.714,
      "duration": 0.134,
      "velocity": 1,
      "hand": "right"
    },
    {
      "midi": 72,
      "time": 10.915,
      "duration": 0.134,
      "velocity": 1,
      "hand": "right"
    },
    {
      "midi": 66,
      "time": 11.049,
      "duration": 0.134,
      "velocity": 1,
      "hand": "right"
    },
    {
      "midi": 74,
      "time": 11.25,
      "duration": 0.134,
      "velocity": 1,
      "hand": "right"
    },
    {
      "midi": 70,
      "time": 11.451,
      "duration": 0.134,
      "velocity": 1,
      "hand": "right"
    },
    {
      "midi": 64,
      "time": 11.585,
      "duration": 0.134,
      "velocity": 1,
      "hand": "right"
    },
    {
      "midi": 72,
      "time": 11.786,
      "duration": 0.134,
      "velocity": 1,
      "hand": "right"
    },
    {
      "midi": 68,
      "time": 11.987,
      "duration": 0.134,
      "velocity": 1,
      "hand": "right"
    },
    {
      "midi": 62,
      "time": 12.121,
      "duration": 0.134,
      "velocity": 1,
      "hand": "right"
    },
    {
      "midi": 71,
      "time": 12.321,
      "duration": 0.134,
      "velocity": 1,
      "hand": "right"
    },
    {
      "midi": 74,
      "time": 12.589,
      "duration": 0.134,
      "velocity": 1,
      "hand": "right"
    },
    {
      "midi": 77,
      "time": 12.857,
      "duration": 0.134,
      "velocity": 1,
      "hand": "right"
    },
    {
      "midi": 76,
      "time": 13.125,
      "duration": 0.134,
      "velocity": 1,
      "hand": "right"
    },
    {
      "midi": 78,
      "time": 13.326,
      "duration": 0.134,
      "velocity": 1,
      "hand": "right"
    },
    {
      "midi": 70,
      "time": 13.46,
      "duration": 0.134,
      "velocity": 1,
      "hand": "right"
    },
    {
      "midi": 76,
      "time": 13.661,
      "duration": 0.134,
      "velocity": 1,
      "hand": "right"
    },
    {
      "midi": 79,
      "time": 13.929,
      "duration": 0.134,
      "velocity": 1,
      "hand": "right"
    },
    {
      "midi": 78,
      "time": 14.196,
      "duration": 0.134,
      "velocity": 1,
      "hand": "right"
    },
    {
      "midi": 80,
      "time": 14.397,
      "duration": 0.134,
      "velocity": 1,
      "hand": "right"
    },
    {
      "midi": 72,
      "time": 14.531,
      "duration": 0.134,
      "velocity": 1,
      "hand": "right"
    },
    {
      "midi": 78,
      "time": 14.732,
      "duration": 0.134,
      "velocity": 1,
      "hand": "right"
    },
    {
      "midi": 80,
      "time": 14.933,
      "duration": 0.134,
      "velocity": 1,
      "hand": "right"
    },
    {
      "midi": 72,
      "time": 15.067,
      "duration": 0.134,
      "velocity": 1,
      "hand": "right"
    },
    {
      "midi": 77,
      "time": 15.201,
      "duration": 0.134,
      "velocity": 1,
      "hand": "right"
    },
    {
      "midi": 68,
      "time": 15.335,
      "duration": 0.134,
      "velocity": 1,
      "hand": "right"
    },
    {
      "midi": 73,
      "time": 15.469,
      "duration": 0.134,
      "velocity": 1,
      "hand": "right"
    },
    {
      "midi": 63,
      "time": 15.603,
      "duration": 0.134,
      "velocity": 1,
      "hand": "right"
    },
    {
      "midi": 70,
      "time": 15.737,
      "duration": 0.134,
      "velocity": 1,
      "hand": "right"
    },
    {
      "midi": 60,
      "time": 15.871,
      "duration": 0.134,
      "velocity": 1,
      "hand": "right"
    },
    {
      "midi": 61,
      "time": 16.272,
      "duration": 0.134,
      "velocity": 1,
      "hand": "right"
    },
    {
      "midi": 60,
      "time": 16.607,
      "duration": 0.134,
      "velocity": 1,
      "hand": "right"
    },
    {
      "midi": 62,
      "time": 16.808,
      "duration": 0.134,
      "velocity": 1,
      "hand": "right"
    },
    {
      "midi": 60,
      "time": 17.411,
      "duration": 0.134,
      "velocity": 1,
      "hand": "right"
    },
    {
      "midi": 63,
      "time": 17.612,
      "duration": 0.134,
      "velocity": 1,
      "hand": "right"
    },
    {
      "midi": 60,
      "time": 17.946,
      "duration": 0.134,
      "velocity": 1,
      "hand": "right"
    },
    {
      "midi": 63,
      "time": 18.147,
      "duration": 0.134,
      "velocity": 1,
      "hand": "right"
    },
    {
      "midi": 61,
      "time": 18.482,
      "duration": 0.134,
      "velocity": 1,
      "hand": "right"
    },
    {
      "midi": 65,
      "time": 18.683,
      "duration": 0.134,
      "velocity": 1,
      "hand": "right"
    },
    {
      "midi": 61,
      "time": 19.018,
      "duration": 0.134,
      "velocity": 1,
      "hand": "right"
    },
    {
      "midi": 65,
      "time": 19.219,
      "duration": 0.134,
      "velocity": 1,
      "hand": "right"
    },
    {
      "midi": 61,
      "time": 19.353,
      "duration": 0.134,
      "velocity": 1,
      "hand": "right"
    },
    {
      "midi": 63,
      "time": 19.554,
      "duration": 0.134,
      "velocity": 1,
      "hand": "right"
    },
    {
      "midi": 66,
      "time": 19.754,
      "duration": 0.134,
      "velocity": 1,
      "hand": "right"
    },
    {
      "midi": 61,
      "time": 19.888,
      "duration": 0.134,
      "velocity": 1,
      "hand": "right"
    },
    {
      "midi": 63,
      "time": 20.089,
      "duration": 0.134,
      "velocity": 1,
      "hand": "right"
    },
    {
      "midi": 69,
      "time": 20.357,
      "duration": 0.134,
      "velocity": 1,
      "hand": "right"
    },
    {
      "midi": 64,
      "time": 20.558,
      "duration": 0.134,
      "velocity": 1,
      "hand": "right"
    },
    {
      "midi": 66,
      "time": 20.826,
      "duration": 0.134,
      "velocity": 1,
      "hand": "right"
    },
    {
      "midi": 61,
      "time": 20.96,
      "duration": 0.134,
      "velocity": 1,
      "hand": "right"
    },
    {
      "midi": 64,
      "time": 21.161,
      "duration": 0.134,
      "velocity": 1,
      "hand": "right"
    },
    {
      "midi": 69,
      "time": 21.429,
      "duration": 0.134,
      "velocity": 1,
      "hand": "right"
    },
    {
      "midi": 67,
      "time": 21.629,
      "duration": 0.134,
      "velocity": 1,
      "hand": "right"
    },
    {
      "midi": 63,
      "time": 21.763,
      "duration": 0.134,
      "velocity": 1,
      "hand": "right"
    },
    {
      "midi": 66,
      "time": 21.964,
      "duration": 0.134,
      "velocity": 1,
      "hand": "right"
    },
    {
      "midi": 60,
      "time": 22.165,
      "duration": 0.134,
      "velocity": 1,
      "hand": "right"
    },
    {
      "midi": 65,
      "time": 24.71,
      "duration": 0.134,
      "velocity": 1,
      "hand": "right"
    },
    {
      "midi": 63,
      "time": 24.844,
      "duration": 0.134,
      "velocity": 1,
      "hand": "right"
    },
    {
      "midi": 60,
      "time": 24.978,
      "duration": 0.134,
      "velocity": 1,
      "hand": "right"
    },
    {
      "midi": 60,
      "time": 28.46,
      "duration": 0.134,
      "velocity": 1,
      "hand": "right"
    },
    {
      "midi": 63,
      "time": 28.661,
      "duration": 0.134,
      "velocity": 1,
      "hand": "right"
    },
    {
      "midi": 68,
      "time": 28.929,
      "duration": 0.134,
      "velocity": 1,
      "hand": "right"
    },
    {
      "midi": 75,
      "time": 29.129,
      "duration": 0.134,
      "velocity": 1,
      "hand": "right"
    },
    {
      "midi": 72,
      "time": 29.263,
      "duration": 0.134,
      "velocity": 1,
      "hand": "right"
    },
    {
      "midi": 70,
      "time": 29.397,
      "duration": 0.134,
      "velocity": 1,
      "hand": "right"
    },
    {
      "midi": 65,
      "time": 29.531,
      "duration": 0.134,
      "velocity": 1,
      "hand": "right"
    },
    {
      "midi": 68,
      "time": 29.732,
      "duration": 0.134,
      "velocity": 1,
      "hand": "right"
    },
    {
      "midi": 70,
      "time": 29.933,
      "duration": 0.134,
      "velocity": 1,
      "hand": "right"
    },
    {
      "midi": 63,
      "time": 30.067,
      "duration": 0.134,
      "velocity": 1,
      "hand": "right"
    },
    {
      "midi": 66,
      "time": 30.268,
      "duration": 0.134,
      "velocity": 1,
      "hand": "right"
    },
    {
      "midi": 70,
      "time": 30.469,
      "duration": 0.134,
      "velocity": 1,
      "hand": "right"
    },
    {
      "midi": 61,
      "time": 30.603,
      "duration": 0.134,
      "velocity": 1,
      "hand": "right"
    },
    {
      "midi": 65,
      "time": 30.804,
      "duration": 0.134,
      "velocity": 1,
      "hand": "right"
    },
    {
      "midi": 70,
      "time": 31.004,
      "duration": 0.134,
      "velocity": 1,
      "hand": "right"
    },
    {
      "midi": 60,
      "time": 31.138,
      "duration": 0.134,
      "velocity": 1,
      "hand": "right"
    },
    {
      "midi": 63,
      "time": 31.339,
      "duration": 0.134,
      "velocity": 1,
      "hand": "right"
    },
    {
      "midi": 65,
      "time": 31.54,
      "duration": 0.134,
      "velocity": 1,
      "hand": "right"
    },
    {
      "midi": 65,
      "time": 31.808,
      "duration": 0.134,
      "velocity": 1,
      "hand": "right"
    },
    {
      "midi": 66,
      "time": 32.143,
      "duration": 0.134,
      "velocity": 1,
      "hand": "right"
    },
    {
      "midi": 63,
      "time": 32.344,
      "duration": 0.134,
      "velocity": 1,
      "hand": "right"
    },
    {
      "midi": 60,
      "time": 32.478,
      "duration": 0.134,
      "velocity": 1,
      "hand": "right"
    },
    {
      "midi": 65,
      "time": 32.746,
      "duration": 0.134,
      "velocity": 1,
      "hand": "right"
    },
    {
      "midi": 63,
      "time": 32.946,
      "duration": 0.134,
      "velocity": 1,
      "hand": "right"
    },
    {
      "midi": 65,
      "time": 33.281,
      "duration": 0.134,
      "velocity": 1,
      "hand": "right"
    },
    {
      "midi": 63,
      "time": 33.482,
      "duration": 0.134,
      "velocity": 1,
      "hand": "right"
    },
    {
      "midi": 65,
      "time": 33.817,
      "duration": 0.134,
      "velocity": 1,
      "hand": "right"
    },
    {
      "midi": 63,
      "time": 34.018,
      "duration": 0.134,
      "velocity": 1,
      "hand": "right"
    },
    {
      "midi": 68,
      "time": 34.286,
      "duration": 0.134,
      "velocity": 1,
      "hand": "right"
    },
    {
      "midi": 65,
      "time": 34.487,
      "duration": 0.134,
      "velocity": 1,
      "hand": "right"
    },
    {
      "midi": 62,
      "time": 34.621,
      "duration": 0.134,
      "velocity": 1,
      "hand": "right"
    },
    {
      "midi": 67,
      "time": 34.888,
      "duration": 0.134,
      "velocity": 1,
      "hand": "right"
    },
    {
      "midi": 65,
      "time": 35.089,
      "duration": 0.134,
      "velocity": 1,
      "hand": "right"
    },
    {
      "midi": 60,
      "time": 35.29,
      "duration": 0.134,
      "velocity": 1,
      "hand": "right"
    },
    {
      "midi": 67,
      "time": 35.424,
      "duration": 0.134,
      "velocity": 1,
      "hand": "right"
    },
    {
      "midi": 65,
      "time": 35.625,
      "duration": 0.134,
      "velocity": 1,
      "hand": "right"
    },
    {
      "midi": 60,
      "time": 35.826,
      "duration": 0.134,
      "velocity": 1,
      "hand": "right"
    },
    {
      "midi": 67,
      "time": 35.96,
      "duration": 0.134,
      "velocity": 1,
      "hand": "right"
    },
    {
      "midi": 65,
      "time": 36.161,
      "duration": 0.134,
      "velocity": 1,
      "hand": "right"
    },
    {
      "midi": 73,
      "time": 36.429,
      "duration": 0.134,
      "velocity": 1,
      "hand": "right"
    },
    {
      "midi": 70,
      "time": 36.629,
      "duration": 0.134,
      "velocity": 1,
      "hand": "right"
    },
    {
      "midi": 67,
      "time": 36.763,
      "duration": 0.134,
      "velocity": 1,
      "hand": "right"
    },
    {
      "midi": 70,
      "time": 36.964,
      "duration": 0.134,
      "velocity": 1,
      "hand": "right"
    },
    {
      "midi": 67,
      "time": 37.165,
      "duration": 0.134,
      "velocity": 1,
      "hand": "right"
    },
    {
      "midi": 64,
      "time": 37.299,
      "duration": 0.134,
      "velocity": 1,
      "hand": "right"
    },
    {
      "midi": 73,
      "time": 37.5,
      "duration": 0.134,
      "velocity": 1,
      "hand": "right"
    },
    {
      "midi": 70,
      "time": 37.701,
      "duration": 0.134,
      "velocity": 1,
      "hand": "right"
    },
    {
      "midi": 67,
      "time": 37.835,
      "duration": 0.134,
      "velocity": 1,
      "hand": "right"
    },
    {
      "midi": 70,
      "time": 38.036,
      "duration": 0.134,
      "velocity": 1,
      "hand": "right"
    },
    {
      "midi": 67,
      "time": 38.237,
      "duration": 0.134,
      "velocity": 1,
      "hand": "right"
    },
    {
      "midi": 64,
      "time": 38.371,
      "duration": 0.134,
      "velocity": 1,
      "hand": "right"
    },
    {
      "midi": 70,
      "time": 38.571,
      "duration": 0.134,
      "velocity": 1,
      "hand": "right"
    },
    {
      "midi": 67,
      "time": 38.772,
      "duration": 0.134,
      "velocity": 1,
      "hand": "right"
    },
    {
      "midi": 64,
      "time": 38.906,
      "duration": 0.134,
      "velocity": 1,
      "hand": "right"
    },
    {
      "midi": 67,
      "time": 39.107,
      "duration": 0.134,
      "velocity": 1,
      "hand": "right"
    },
    {
      "midi": 64,
      "time": 39.308,
      "duration": 0.134,
      "velocity": 1,
      "hand": "right"
    },
    {
      "midi": 64,
      "time": 39.643,
      "duration": 0.134,
      "velocity": 1,
      "hand": "right"
    },
    {
      "midi": 61,
      "time": 39.844,
      "duration": 0.134,
      "velocity": 1,
      "hand": "right"
    },
    {
      "midi": 61,
      "time": 40.179,
      "duration": 0.134,
      "velocity": 1,
      "hand": "right"
    },
    {
      "midi": 61,
      "time": 40.982,
      "duration": 0.134,
      "velocity": 1,
      "hand": "right"
    },
    {
      "midi": 61,
      "time": 41.518,
      "duration": 0.134,
      "velocity": 1,
      "hand": "right"
    },
    {
      "midi": 63,
      "time": 42.054,
      "duration": 0.134,
      "velocity": 1,
      "hand": "right"
    },
    {
      "midi": 63,
      "time": 42.589,
      "duration": 0.134,
      "velocity": 1,
      "hand": "right"
    },
    {
      "midi": 60,
      "time": 42.924,
      "duration": 0.134,
      "velocity": 1,
      "hand": "right"
    },
    {
      "midi": 66,
      "time": 43.125,
      "duration": 0.134,
      "velocity": 1,
      "hand": "right"
    },
    {
      "midi": 61,
      "time": 43.393,
      "duration": 0.134,
      "velocity": 1,
      "hand": "right"
    },
    {
      "midi": 69,
      "time": 43.661,
      "duration": 0.134,
      "velocity": 1,
      "hand": "right"
    },
    {
      "midi": 63,
      "time": 43.862,
      "duration": 0.134,
      "velocity": 1,
      "hand": "right"
    },
    {
      "midi": 69,
      "time": 44.196,
      "duration": 0.134,
      "velocity": 1,
      "hand": "right"
    },
    {
      "midi": 66,
      "time": 44.464,
      "duration": 0.134,
      "velocity": 1,
      "hand": "right"
    },
    {
      "midi": 75,
      "time": 44.732,
      "duration": 0.134,
      "velocity": 1,
      "hand": "right"
    },
    {
      "midi": 70,
      "time": 45,
      "duration": 0.134,
      "velocity": 1,
      "hand": "right"
    },
    {
      "midi": 78,
      "time": 45.201,
      "duration": 0.134,
      "velocity": 1,
      "hand": "right"
    },
    {
      "midi": 72,
      "time": 45.335,
      "duration": 0.134,
      "velocity": 1,
      "hand": "right"
    },
    {
      "midi": 76,
      "time": 45.536,
      "duration": 0.134,
      "velocity": 1,
      "hand": "right"
    },
    {
      "midi": 73,
      "time": 45.737,
      "duration": 0.134,
      "velocity": 1,
      "hand": "right"
    },
    {
      "midi": 70,
      "time": 45.871,
      "duration": 0.134,
      "velocity": 1,
      "hand": "right"
    },
    {
      "midi": 65,
      "time": 46.138,
      "duration": 0.134,
      "velocity": 1,
      "hand": "right"
    },
    {
      "midi": 70,
      "time": 46.272,
      "duration": 0.134,
      "velocity": 1,
      "hand": "right"
    },
    {
      "midi": 69,
      "time": 46.406,
      "duration": 0.134,
      "velocity": 1,
      "hand": "right"
    },
    {
      "midi": 73,
      "time": 46.54,
      "duration": 0.134,
      "velocity": 1,
      "hand": "right"
    },
    {
      "midi": 70,
      "time": 46.674,
      "duration": 0.134,
      "velocity": 1,
      "hand": "right"
    },
    {
      "midi": 73,
      "time": 46.808,
      "duration": 0.134,
      "velocity": 1,
      "hand": "right"
    },
    {
      "midi": 72,
      "time": 46.942,
      "duration": 0.134,
      "velocity": 1,
      "hand": "right"
    },
    {
      "midi": 77,
      "time": 47.076,
      "duration": 0.134,
      "velocity": 1,
      "hand": "right"
    },
    {
      "midi": 71,
      "time": 47.21,
      "duration": 0.134,
      "velocity": 1,
      "hand": "right"
    },
    {
      "midi": 76,
      "time": 47.344,
      "duration": 0.134,
      "velocity": 1,
      "hand": "right"
    },
    {
      "midi": 70,
      "time": 47.478,
      "duration": 0.134,
      "velocity": 1,
      "hand": "right"
    },
    {
      "midi": 74,
      "time": 47.679,
      "duration": 0.134,
      "velocity": 1,
      "hand": "right"
    },
    {
      "midi": 71,
      "time": 47.879,
      "duration": 0.134,
      "velocity": 1,
      "hand": "right"
    },
    {
      "midi": 68,
      "time": 48.013,
      "duration": 0.134,
      "velocity": 1,
      "hand": "right"
    },
    {
      "midi": 64,
      "time": 48.147,
      "duration": 0.134,
      "velocity": 1,
      "hand": "right"
    },
    {
      "midi": 63,
      "time": 48.281,
      "duration": 0.134,
      "velocity": 1,
      "hand": "right"
    },
    {
      "midi": 68,
      "time": 48.415,
      "duration": 0.134,
      "velocity": 1,
      "hand": "right"
    },
    {
      "midi": 65,
      "time": 48.549,
      "duration": 0.134,
      "velocity": 1,
      "hand": "right"
    },
    {
      "midi": 71,
      "time": 48.683,
      "duration": 0.134,
      "velocity": 1,
      "hand": "right"
    },
    {
      "midi": 66,
      "time": 48.817,
      "duration": 0.134,
      "velocity": 1,
      "hand": "right"
    },
    {
      "midi": 71,
      "time": 48.951,
      "duration": 0.134,
      "velocity": 1,
      "hand": "right"
    },
    {
      "midi": 70,
      "time": 49.085,
      "duration": 0.134,
      "velocity": 1,
      "hand": "right"
    },
    {
      "midi": 75,
      "time": 49.219,
      "duration": 0.134,
      "velocity": 1,
      "hand": "right"
    },
    {
      "midi": 65,
      "time": 49.353,
      "duration": 0.134,
      "velocity": 1,
      "hand": "right"
    },
    {
      "midi": 70,
      "time": 49.487,
      "duration": 0.134,
      "velocity": 1,
      "hand": "right"
    },
    {
      "midi": 64,
      "time": 49.621,
      "duration": 0.134,
      "velocity": 1,
      "hand": "right"
    },
    {
      "midi": 72,
      "time": 49.821,
      "duration": 0.134,
      "velocity": 1,
      "hand": "right"
    },
    {
      "midi": 68,
      "time": 50.022,
      "duration": 0.134,
      "velocity": 1,
      "hand": "right"
    },
    {
      "midi": 62,
      "time": 50.156,
      "duration": 0.134,
      "velocity": 1,
      "hand": "right"
    },
    {
      "midi": 71,
      "time": 50.357,
      "duration": 0.134,
      "velocity": 1,
      "hand": "right"
    },
    {
      "midi": 66,
      "time": 50.558,
      "duration": 0.134,
      "velocity": 1,
      "hand": "right"
    },
    {
      "midi": 61,
      "time": 50.692,
      "duration": 0.134,
      "velocity": 1,
      "hand": "right"
    },
    {
      "midi": 70,
      "time": 50.893,
      "duration": 0.134,
      "velocity": 1,
      "hand": "right"
    },
    {
      "midi": 72,
      "time": 51.161,
      "duration": 0.134,
      "velocity": 1,
      "hand": "right"
    },
    {
      "midi": 75,
      "time": 51.362,
      "duration": 0.134,
      "velocity": 1,
      "hand": "right"
    },
    {
      "midi": 72,
      "time": 51.496,
      "duration": 0.134,
      "velocity": 1,
      "hand": "right"
    },
    {
      "midi": 69,
      "time": 51.763,
      "duration": 0.134,
      "velocity": 1,
      "hand": "right"
    },
    {
      "midi": 77,
      "time": 51.897,
      "duration": 0.134,
      "velocity": 1,
      "hand": "right"
    },
    {
      "midi": 74,
      "time": 52.031,
      "duration": 0.134,
      "velocity": 1,
      "hand": "right"
    },
    {
      "midi": 73,
      "time": 52.165,
      "duration": 0.134,
      "velocity": 1,
      "hand": "right"
    },
    {
      "midi": 70,
      "time": 52.299,
      "duration": 0.134,
      "velocity": 1,
      "hand": "right"
    },
    {
      "midi": 78,
      "time": 52.433,
      "duration": 0.134,
      "velocity": 1,
      "hand": "right"
    },
    {
      "midi": 75,
      "time": 52.567,
      "duration": 0.134,
      "velocity": 1,
      "hand": "right"
    },
    {
      "midi": 74,
      "time": 52.701,
      "duration": 0.134,
      "velocity": 1,
      "hand": "right"
    },
    {
      "midi": 72,
      "time": 52.835,
      "duration": 0.134,
      "velocity": 1,
      "hand": "right"
    },
    {
      "midi": 81,
      "time": 52.969,
      "duration": 0.134,
      "velocity": 1,
      "hand": "right"
    },
    {
      "midi": 73,
      "time": 53.103,
      "duration": 0.134,
      "velocity": 1,
      "hand": "right"
    },
    {
      "midi": 82,
      "time": 53.237,
      "duration": 0.134,
      "velocity": 1,
      "hand": "right"
    },
    {
      "midi": 75,
      "time": 53.371,
      "duration": 0.134,
      "velocity": 1,
      "hand": "right"
    },
    {
      "midi": 84,
      "time": 53.571,
      "duration": 0.134,
      "velocity": 1,
      "hand": "right"
    },
    {
      "midi": 80,
      "time": 53.772,
      "duration": 0.134,
      "velocity": 1,
      "hand": "right"
    },
    {
      "midi": 77,
      "time": 53.906,
      "duration": 0.134,
      "velocity": 1,
      "hand": "right"
    },
    {
      "midi": 84,
      "time": 54.107,
      "duration": 0.134,
      "velocity": 1,
      "hand": "right"
    },
    {
      "midi": 80,
      "time": 54.308,
      "duration": 0.134,
      "velocity": 1,
      "hand": "right"
    },
    {
      "midi": 77,
      "time": 54.442,
      "duration": 0.134,
      "velocity": 1,
      "hand": "right"
    },
    {
      "midi": 78,
      "time": 54.643,
      "duration": 0.134,
      "velocity": 1,
      "hand": "right"
    },
    {
      "midi": 76,
      "time": 54.844,
      "duration": 0.134,
      "velocity": 1,
      "hand": "right"
    },
    {
      "midi": 74,
      "time": 54.978,
      "duration": 0.134,
      "velocity": 1,
      "hand": "right"
    },
    {
      "midi": 75,
      "time": 55.179,
      "duration": 0.134,
      "velocity": 1,
      "hand": "right"
    },
    {
      "midi": 73,
      "time": 55.446,
      "duration": 0.134,
      "velocity": 1,
      "hand": "right"
    },
    {
      "midi": 72,
      "time": 55.714,
      "duration": 0.134,
      "velocity": 1,
      "hand": "right"
    },
    {
      "midi": 71,
      "time": 55.982,
      "duration": 0.134,
      "velocity": 1,
      "hand": "right"
    },
    {
      "midi": 75,
      "time": 56.183,
      "duration": 0.134,
      "velocity": 1,
      "hand": "right"
    },
    {
      "midi": 65,
      "time": 56.317,
      "duration": 0.134,
      "velocity": 1,
      "hand": "right"
    },
    {
      "midi": 69,
      "time": 56.518,
      "duration": 0.134,
      "velocity": 1,
      "hand": "right"
    },
    {
      "midi": 73,
      "time": 56.719,
      "duration": 0.134,
      "velocity": 1,
      "hand": "right"
    },
    {
      "midi": 63,
      "time": 56.853,
      "duration": 0.134,
      "velocity": 1,
      "hand": "right"
    },
    {
      "midi": 67,
      "time": 57.054,
      "duration": 0.134,
      "velocity": 1,
      "hand": "right"
    },
    {
      "midi": 71,
      "time": 57.254,
      "duration": 0.134,
      "velocity": 1,
      "hand": "right"
    },
    {
      "midi": 61,
      "time": 57.388,
      "duration": 0.134,
      "velocity": 1,
      "hand": "right"
    },
    {
      "midi": 65,
      "time": 57.589,
      "duration": 0.134,
      "velocity": 1,
      "hand": "right"
    },
    {
      "midi": 74,
      "time": 57.857,
      "duration": 0.134,
      "velocity": 1,
      "hand": "right"
    },
    {
      "midi": 73,
      "time": 58.125,
      "duration": 0.134,
      "velocity": 1,
      "hand": "right"
    },
    {
      "midi": 77,
      "time": 58.326,
      "duration": 0.134,
      "velocity": 1,
      "hand": "right"
    },
    {
      "midi": 67,
      "time": 58.46,
      "duration": 0.134,
      "velocity": 1,
      "hand": "right"
    },
    {
      "midi": 71,
      "time": 58.661,
      "duration": 0.134,
      "velocity": 1,
      "hand": "right"
    },
    {
      "midi": 75,
      "time": 58.862,
      "duration": 0.134,
      "velocity": 1,
      "hand": "right"
    },
    {
      "midi": 65,
      "time": 58.996,
      "duration": 0.134,
      "velocity": 1,
      "hand": "right"
    },
    {
      "midi": 69,
      "time": 59.196,
      "duration": 0.134,
      "velocity": 1,
      "hand": "right"
    },
    {
      "midi": 73,
      "time": 59.397,
      "duration": 0.134,
      "velocity": 1,
      "hand": "right"
    },
    {
      "midi": 63,
      "time": 59.531,
      "duration": 0.134,
      "velocity": 1,
      "hand": "right"
    },
    {
      "midi": 67,
      "time": 59.732,
      "duration": 0.134,
      "velocity": 1,
      "hand": "right"
    },
    {
      "midi": 76,
      "time": 60,
      "duration": 0.134,
      "velocity": 1,
      "hand": "right"
    },
    {
      "midi": 75,
      "time": 60.268,
      "duration": 0.134,
      "velocity": 1,
      "hand": "right"
    },
    {
      "midi": 79,
      "time": 60.469,
      "duration": 0.134,
      "velocity": 1,
      "hand": "right"
    },
    {
      "midi": 69,
      "time": 60.603,
      "duration": 0.134,
      "velocity": 1,
      "hand": "right"
    },
    {
      "midi": 73,
      "time": 60.804,
      "duration": 0.134,
      "velocity": 1,
      "hand": "right"
    },
    {
      "midi": 77,
      "time": 61.004,
      "duration": 0.134,
      "velocity": 1,
      "hand": "right"
    },
    {
      "midi": 67,
      "time": 61.138,
      "duration": 0.134,
      "velocity": 1,
      "hand": "right"
    },
    {
      "midi": 71,
      "time": 61.339,
      "duration": 0.134,
      "velocity": 1,
      "hand": "right"
    },
    {
      "midi": 75,
      "time": 61.54,
      "duration": 0.134,
      "velocity": 1,
      "hand": "right"
    },
    {
      "midi": 65,
      "time": 61.674,
      "duration": 0.134,
      "velocity": 1,
      "hand": "right"
    },
    {
      "midi": 75,
      "time": 61.808,
      "duration": 0.134,
      "velocity": 1,
      "hand": "right"
    },
    {
      "midi": 65,
      "time": 61.942,
      "duration": 0.134,
      "velocity": 1,
      "hand": "right"
    },
    {
      "midi": 73,
      "time": 62.076,
      "duration": 0.134,
      "velocity": 1,
      "hand": "right"
    },
    {
      "midi": 65,
      "time": 62.21,
      "duration": 0.134,
      "velocity": 1,
      "hand": "right"
    },
    {
      "midi": 64,
      "time": 62.344,
      "duration": 0.134,
      "velocity": 1,
      "hand": "right"
    },
    {
      "midi": 61,
      "time": 62.478,
      "duration": 0.134,
      "velocity": 1,
      "hand": "right"
    },
    {
      "midi": 66,
      "time": 62.679,
      "duration": 0.134,
      "velocity": 1,
      "hand": "right"
    },
    {
      "midi": 63,
      "time": 62.879,
      "duration": 0.134,
      "velocity": 1,
      "hand": "right"
    },
    {
      "midi": 60,
      "time": 63.013,
      "duration": 0.134,
      "velocity": 1,
      "hand": "right"
    },
    {
      "midi": 66,
      "time": 63.214,
      "duration": 0.134,
      "velocity": 1,
      "hand": "right"
    },
    {
      "midi": 63,
      "time": 63.415,
      "duration": 0.134,
      "velocity": 1,
      "hand": "right"
    },
    {
      "midi": 60,
      "time": 63.549,
      "duration": 0.134,
      "velocity": 1,
      "hand": "right"
    },
    {
      "midi": 66,
      "time": 63.75,
      "duration": 0.134,
      "velocity": 1,
      "hand": "right"
    },
    {
      "midi": 63,
      "time": 63.951,
      "duration": 0.134,
      "velocity": 1,
      "hand": "right"
    },
    {
      "midi": 63,
      "time": 64.554,
      "duration": 0.134,
      "velocity": 1,
      "hand": "right"
    },
    {
      "midi": 60,
      "time": 64.821,
      "duration": 0.134,
      "velocity": 1,
      "hand": "right"
    },
    {
      "midi": 61,
      "time": 69.442,
      "duration": 0.134,
      "velocity": 1,
      "hand": "right"
    },
    {
      "midi": 65,
      "time": 69.643,
      "duration": 0.134,
      "velocity": 1,
      "hand": "right"
    },
    {
      "midi": 61,
      "time": 69.844,
      "duration": 0.134,
      "velocity": 1,
      "hand": "right"
    },
    {
      "midi": 61,
      "time": 72.388,
      "duration": 0.134,
      "velocity": 1,
      "hand": "right"
    },
    {
      "midi": 60,
      "time": 72.589,
      "duration": 0.134,
      "velocity": 1,
      "hand": "right"
    },
    {
      "midi": 65,
      "time": 72.79,
      "duration": 0.134,
      "velocity": 1,
      "hand": "right"
    },
    {
      "midi": 61,
      "time": 72.924,
      "duration": 0.134,
      "velocity": 1,
      "hand": "right"
    },
    {
      "midi": 60,
      "time": 73.125,
      "duration": 0.134,
      "velocity": 1,
      "hand": "right"
    },
    {
      "midi": 65,
      "time": 73.326,
      "duration": 0.134,
      "velocity": 1,
      "hand": "right"
    },
    {
      "midi": 61,
      "time": 73.46,
      "duration": 0.134,
      "velocity": 1,
      "hand": "right"
    },
    {
      "midi": 60,
      "time": 73.661,
      "duration": 0.134,
      "velocity": 1,
      "hand": "right"
    },
    {
      "midi": 65,
      "time": 73.862,
      "duration": 0.134,
      "velocity": 1,
      "hand": "right"
    },
    {
      "midi": 66,
      "time": 73.996,
      "duration": 0.134,
      "velocity": 1,
      "hand": "right"
    },
    {
      "midi": 66,
      "time": 74.263,
      "duration": 0.134,
      "velocity": 1,
      "hand": "right"
    },
    {
      "midi": 65,
      "time": 74.397,
      "duration": 0.134,
      "velocity": 1,
      "hand": "right"
    },
    {
      "midi": 66,
      "time": 74.531,
      "duration": 0.134,
      "velocity": 1,
      "hand": "right"
    },
    {
      "midi": 65,
      "time": 74.665,
      "duration": 0.134,
      "velocity": 1,
      "hand": "right"
    },
    {
      "midi": 66,
      "time": 74.799,
      "duration": 0.134,
      "velocity": 1,
      "hand": "right"
    },
    {
      "midi": 65,
      "time": 74.933,
      "duration": 0.134,
      "velocity": 1,
      "hand": "right"
    },
    {
      "midi": 65,
      "time": 75.268,
      "duration": 0.134,
      "velocity": 1,
      "hand": "right"
    },
    {
      "midi": 61,
      "time": 75.469,
      "duration": 0.134,
      "velocity": 1,
      "hand": "right"
    },
    {
      "midi": 61,
      "time": 75.804,
      "duration": 0.134,
      "velocity": 1,
      "hand": "right"
    },
    {
      "midi": 61,
      "time": 76.071,
      "duration": 0.134,
      "velocity": 1,
      "hand": "right"
    },
    {
      "midi": 65,
      "time": 76.339,
      "duration": 0.134,
      "velocity": 1,
      "hand": "right"
    },
    {
      "midi": 61,
      "time": 76.54,
      "duration": 0.134,
      "velocity": 1,
      "hand": "right"
    },
    {
      "midi": 61,
      "time": 76.875,
      "duration": 0.134,
      "velocity": 1,
      "hand": "right"
    },
    {
      "midi": 61,
      "time": 77.411,
      "duration": 0.134,
      "velocity": 1,
      "hand": "right"
    },
    {
      "midi": 61,
      "time": 77.946,
      "duration": 0.134,
      "velocity": 1,
      "hand": "right"
    },
    {
      "midi": 94,
      "time": 81.964,
      "duration": 0.536,
      "velocity": 1,
      "hand": "right"
    }
  ],
  "notes2Hands": [
    {
      "midi": 41,
      "time": 0,
      "duration": 0.067,
      "velocity": 1,
      "hand": "left"
    },
    {
      "midi": 53,
      "time": 0,
      "duration": 0.067,
      "velocity": 1,
      "hand": "left"
    },
    {
      "midi": 43,
      "time": 0.067,
      "duration": 0.067,
      "velocity": 1,
      "hand": "left"
    },
    {
      "midi": 55,
      "time": 0.067,
      "duration": 0.067,
      "velocity": 1,
      "hand": "left"
    },
    {
      "midi": 46,
      "time": 0.201,
      "duration": 0.067,
      "velocity": 1,
      "hand": "left"
    },
    {
      "midi": 58,
      "time": 0.201,
      "duration": 0.067,
      "velocity": 1,
      "hand": "left"
    },
    {
      "midi": 49,
      "time": 0.268,
      "duration": 0.067,
      "velocity": 1,
      "hand": "left"
    },
    {
      "midi": 61,
      "time": 0.268,
      "duration": 0.067,
      "velocity": 1,
      "hand": "right"
    },
    {
      "midi": 40,
      "time": 0.335,
      "duration": 0.067,
      "velocity": 1,
      "hand": "left"
    },
    {
      "midi": 52,
      "time": 0.335,
      "duration": 0.067,
      "velocity": 1,
      "hand": "left"
    },
    {
      "midi": 43,
      "time": 0.469,
      "duration": 0.067,
      "velocity": 1,
      "hand": "left"
    },
    {
      "midi": 55,
      "time": 0.469,
      "duration": 0.067,
      "velocity": 1,
      "hand": "left"
    },
    {
      "midi": 41,
      "time": 0.536,
      "duration": 0.067,
      "velocity": 1,
      "hand": "left"
    },
    {
      "midi": 53,
      "time": 0.536,
      "duration": 0.067,
      "velocity": 1,
      "hand": "left"
    },
    {
      "midi": 43,
      "time": 0.603,
      "duration": 0.067,
      "velocity": 1,
      "hand": "left"
    },
    {
      "midi": 55,
      "time": 0.603,
      "duration": 0.067,
      "velocity": 1,
      "hand": "left"
    },
    {
      "midi": 46,
      "time": 0.737,
      "duration": 0.067,
      "velocity": 1,
      "hand": "left"
    },
    {
      "midi": 58,
      "time": 0.737,
      "duration": 0.067,
      "velocity": 1,
      "hand": "left"
    },
    {
      "midi": 49,
      "time": 0.804,
      "duration": 0.067,
      "velocity": 1,
      "hand": "left"
    },
    {
      "midi": 61,
      "time": 0.804,
      "duration": 0.067,
      "velocity": 1,
      "hand": "right"
    },
    {
      "midi": 40,
      "time": 0.871,
      "duration": 0.067,
      "velocity": 1,
      "hand": "left"
    },
    {
      "midi": 52,
      "time": 0.871,
      "duration": 0.067,
      "velocity": 1,
      "hand": "left"
    },
    {
      "midi": 43,
      "time": 1.004,
      "duration": 0.067,
      "velocity": 1,
      "hand": "left"
    },
    {
      "midi": 55,
      "time": 1.004,
      "duration": 0.067,
      "velocity": 1,
      "hand": "left"
    },
    {
      "midi": 43,
      "time": 1.071,
      "duration": 0.067,
      "velocity": 1,
      "hand": "left"
    },
    {
      "midi": 55,
      "time": 1.071,
      "duration": 0.067,
      "velocity": 1,
      "hand": "left"
    },
    {
      "midi": 45,
      "time": 1.138,
      "duration": 0.067,
      "velocity": 1,
      "hand": "left"
    },
    {
      "midi": 57,
      "time": 1.138,
      "duration": 0.067,
      "velocity": 1,
      "hand": "left"
    },
    {
      "midi": 48,
      "time": 1.272,
      "duration": 0.067,
      "velocity": 1,
      "hand": "left"
    },
    {
      "midi": 60,
      "time": 1.272,
      "duration": 0.067,
      "velocity": 1,
      "hand": "right"
    },
    {
      "midi": 51,
      "time": 1.339,
      "duration": 0.067,
      "velocity": 1,
      "hand": "left"
    },
    {
      "midi": 63,
      "time": 1.339,
      "duration": 0.067,
      "velocity": 1,
      "hand": "right"
    },
    {
      "midi": 42,
      "time": 1.406,
      "duration": 0.067,
      "velocity": 1,
      "hand": "left"
    },
    {
      "midi": 54,
      "time": 1.406,
      "duration": 0.067,
      "velocity": 1,
      "hand": "left"
    },
    {
      "midi": 45,
      "time": 1.54,
      "duration": 0.067,
      "velocity": 1,
      "hand": "left"
    },
    {
      "midi": 57,
      "time": 1.54,
      "duration": 0.067,
      "velocity": 1,
      "hand": "left"
    },
    {
      "midi": 43,
      "time": 1.607,
      "duration": 0.067,
      "velocity": 1,
      "hand": "left"
    },
    {
      "midi": 55,
      "time": 1.607,
      "duration": 0.067,
      "velocity": 1,
      "hand": "left"
    },
    {
      "midi": 45,
      "time": 1.674,
      "duration": 0.067,
      "velocity": 1,
      "hand": "left"
    },
    {
      "midi": 57,
      "time": 1.674,
      "duration": 0.067,
      "velocity": 1,
      "hand": "left"
    },
    {
      "midi": 48,
      "time": 1.808,
      "duration": 0.067,
      "velocity": 1,
      "hand": "left"
    },
    {
      "midi": 60,
      "time": 1.808,
      "duration": 0.067,
      "velocity": 1,
      "hand": "right"
    },
    {
      "midi": 51,
      "time": 1.875,
      "duration": 0.067,
      "velocity": 1,
      "hand": "left"
    },
    {
      "midi": 63,
      "time": 1.875,
      "duration": 0.067,
      "velocity": 1,
      "hand": "right"
    },
    {
      "midi": 42,
      "time": 1.942,
      "duration": 0.067,
      "velocity": 1,
      "hand": "left"
    },
    {
      "midi": 54,
      "time": 1.942,
      "duration": 0.067,
      "velocity": 1,
      "hand": "left"
    },
    {
      "midi": 45,
      "time": 2.076,
      "duration": 0.067,
      "velocity": 1,
      "hand": "left"
    },
    {
      "midi": 57,
      "time": 2.076,
      "duration": 0.067,
      "velocity": 1,
      "hand": "left"
    },
    {
      "midi": 46,
      "time": 2.143,
      "duration": 0.067,
      "velocity": 1,
      "hand": "left"
    },
    {
      "midi": 58,
      "time": 2.143,
      "duration": 0.067,
      "velocity": 1,
      "hand": "left"
    },
    {
      "midi": 48,
      "time": 2.21,
      "duration": 0.067,
      "velocity": 1,
      "hand": "left"
    },
    {
      "midi": 60,
      "time": 2.21,
      "duration": 0.067,
      "velocity": 1,
      "hand": "right"
    },
    {
      "midi": 51,
      "time": 2.344,
      "duration": 0.067,
      "velocity": 1,
      "hand": "left"
    },
    {
      "midi": 63,
      "time": 2.344,
      "duration": 0.067,
      "velocity": 1,
      "hand": "right"
    },
    {
      "midi": 54,
      "time": 2.411,
      "duration": 0.067,
      "velocity": 1,
      "hand": "left"
    },
    {
      "midi": 66,
      "time": 2.411,
      "duration": 0.067,
      "velocity": 1,
      "hand": "right"
    },
    {
      "midi": 45,
      "time": 2.478,
      "duration": 0.067,
      "velocity": 1,
      "hand": "left"
    },
    {
      "midi": 57,
      "time": 2.478,
      "duration": 0.067,
      "velocity": 1,
      "hand": "left"
    },
    {
      "midi": 48,
      "time": 2.612,
      "duration": 0.067,
      "velocity": 1,
      "hand": "left"
    },
    {
      "midi": 60,
      "time": 2.612,
      "duration": 0.067,
      "velocity": 1,
      "hand": "right"
    },
    {
      "midi": 49,
      "time": 2.679,
      "duration": 0.067,
      "velocity": 1,
      "hand": "left"
    },
    {
      "midi": 61,
      "time": 2.679,
      "duration": 0.067,
      "velocity": 1,
      "hand": "right"
    },
    {
      "midi": 51,
      "time": 2.746,
      "duration": 0.067,
      "velocity": 1,
      "hand": "left"
    },
    {
      "midi": 63,
      "time": 2.746,
      "duration": 0.067,
      "velocity": 1,
      "hand": "right"
    },
    {
      "midi": 54,
      "time": 2.879,
      "duration": 0.067,
      "velocity": 1,
      "hand": "left"
    },
    {
      "midi": 66,
      "time": 2.879,
      "duration": 0.067,
      "velocity": 1,
      "hand": "right"
    },
    {
      "midi": 57,
      "time": 2.946,
      "duration": 0.067,
      "velocity": 1,
      "hand": "left"
    },
    {
      "midi": 69,
      "time": 2.946,
      "duration": 0.067,
      "velocity": 1,
      "hand": "right"
    },
    {
      "midi": 48,
      "time": 3.013,
      "duration": 0.067,
      "velocity": 1,
      "hand": "left"
    },
    {
      "midi": 60,
      "time": 3.013,
      "duration": 0.067,
      "velocity": 1,
      "hand": "right"
    },
    {
      "midi": 51,
      "time": 3.147,
      "duration": 0.067,
      "velocity": 1,
      "hand": "left"
    },
    {
      "midi": 63,
      "time": 3.147,
      "duration": 0.067,
      "velocity": 1,
      "hand": "right"
    },
    {
      "midi": 49,
      "time": 3.214,
      "duration": 0.067,
      "velocity": 1,
      "hand": "left"
    },
    {
      "midi": 61,
      "time": 3.214,
      "duration": 0.067,
      "velocity": 1,
      "hand": "right"
    },
    {
      "midi": 51,
      "time": 3.281,
      "duration": 0.067,
      "velocity": 1,
      "hand": "left"
    },
    {
      "midi": 63,
      "time": 3.281,
      "duration": 0.067,
      "velocity": 1,
      "hand": "right"
    },
    {
      "midi": 54,
      "time": 3.415,
      "duration": 0.067,
      "velocity": 1,
      "hand": "left"
    },
    {
      "midi": 66,
      "time": 3.415,
      "duration": 0.067,
      "velocity": 1,
      "hand": "right"
    },
    {
      "midi": 57,
      "time": 3.482,
      "duration": 0.067,
      "velocity": 1,
      "hand": "left"
    },
    {
      "midi": 69,
      "time": 3.482,
      "duration": 0.067,
      "velocity": 1,
      "hand": "right"
    },
    {
      "midi": 48,
      "time": 3.549,
      "duration": 0.067,
      "velocity": 1,
      "hand": "left"
    },
    {
      "midi": 60,
      "time": 3.549,
      "duration": 0.067,
      "velocity": 1,
      "hand": "right"
    },
    {
      "midi": 51,
      "time": 3.683,
      "duration": 0.067,
      "velocity": 1,
      "hand": "left"
    },
    {
      "midi": 63,
      "time": 3.683,
      "duration": 0.067,
      "velocity": 1,
      "hand": "right"
    },
    {
      "midi": 54,
      "time": 3.75,
      "duration": 0.067,
      "velocity": 1,
      "hand": "left"
    },
    {
      "midi": 66,
      "time": 3.75,
      "duration": 0.067,
      "velocity": 1,
      "hand": "right"
    },
    {
      "midi": 58,
      "time": 3.817,
      "duration": 0.067,
      "velocity": 1,
      "hand": "left"
    },
    {
      "midi": 70,
      "time": 3.817,
      "duration": 0.067,
      "velocity": 1,
      "hand": "right"
    },
    {
      "midi": 60,
      "time": 3.951,
      "duration": 0.067,
      "velocity": 1,
      "hand": "right"
    },
    {
      "midi": 72,
      "time": 3.951,
      "duration": 0.067,
      "velocity": 1,
      "hand": "right"
    },
    {
      "midi": 63,
      "time": 4.018,
      "duration": 0.067,
      "velocity": 1,
      "hand": "right"
    },
    {
      "midi": 75,
      "time": 4.018,
      "duration": 0.067,
      "velocity": 1,
      "hand": "right"
    },
    {
      "midi": 53,
      "time": 4.085,
      "duration": 0.067,
      "velocity": 1,
      "hand": "left"
    },
    {
      "midi": 65,
      "time": 4.085,
      "duration": 0.067,
      "velocity": 1,
      "hand": "right"
    },
    {
      "midi": 57,
      "time": 4.219,
      "duration": 0.067,
      "velocity": 1,
      "hand": "left"
    },
    {
      "midi": 69,
      "time": 4.219,
      "duration": 0.067,
      "velocity": 1,
      "hand": "right"
    },
    {
      "midi": 58,
      "time": 4.286,
      "duration": 0.067,
      "velocity": 1,
      "hand": "left"
    },
    {
      "midi": 70,
      "time": 4.286,
      "duration": 0.067,
      "velocity": 1,
      "hand": "right"
    },
    {
      "midi": 61,
      "time": 4.353,
      "duration": 0.067,
      "velocity": 1,
      "hand": "right"
    },
    {
      "midi": 73,
      "time": 4.353,
      "duration": 0.067,
      "velocity": 1,
      "hand": "right"
    },
    {
      "midi": 66,
      "time": 4.487,
      "duration": 0.067,
      "velocity": 1,
      "hand": "right"
    },
    {
      "midi": 78,
      "time": 4.487,
      "duration": 0.067,
      "velocity": 1,
      "hand": "right"
    },
    {
      "midi": 65,
      "time": 4.554,
      "duration": 0.067,
      "velocity": 1,
      "hand": "right"
    },
    {
      "midi": 77,
      "time": 4.554,
      "duration": 0.067,
      "velocity": 1,
      "hand": "right"
    },
    {
      "midi": 60,
      "time": 4.621,
      "duration": 0.067,
      "velocity": 1,
      "hand": "right"
    },
    {
      "midi": 72,
      "time": 4.621,
      "duration": 0.067,
      "velocity": 1,
      "hand": "right"
    },
    {
      "midi": 61,
      "time": 4.754,
      "duration": 0.067,
      "velocity": 1,
      "hand": "right"
    },
    {
      "midi": 73,
      "time": 4.754,
      "duration": 0.067,
      "velocity": 1,
      "hand": "right"
    },
    {
      "midi": 64,
      "time": 4.821,
      "duration": 0.067,
      "velocity": 1,
      "hand": "right"
    },
    {
      "midi": 76,
      "time": 4.821,
      "duration": 0.067,
      "velocity": 1,
      "hand": "right"
    },
    {
      "midi": 60,
      "time": 4.888,
      "duration": 0.067,
      "velocity": 1,
      "hand": "right"
    },
    {
      "midi": 72,
      "time": 4.888,
      "duration": 0.067,
      "velocity": 1,
      "hand": "right"
    },
    {
      "midi": 61,
      "time": 5.022,
      "duration": 0.067,
      "velocity": 1,
      "hand": "right"
    },
    {
      "midi": 73,
      "time": 5.022,
      "duration": 0.067,
      "velocity": 1,
      "hand": "right"
    },
    {
      "midi": 57,
      "time": 5.089,
      "duration": 0.067,
      "velocity": 1,
      "hand": "left"
    },
    {
      "midi": 69,
      "time": 5.089,
      "duration": 0.067,
      "velocity": 1,
      "hand": "right"
    },
    {
      "midi": 58,
      "time": 5.156,
      "duration": 0.067,
      "velocity": 1,
      "hand": "left"
    },
    {
      "midi": 70,
      "time": 5.156,
      "duration": 0.067,
      "velocity": 1,
      "hand": "right"
    },
    {
      "midi": 54,
      "time": 5.29,
      "duration": 0.067,
      "velocity": 1,
      "hand": "left"
    },
    {
      "midi": 66,
      "time": 5.29,
      "duration": 0.067,
      "velocity": 1,
      "hand": "right"
    },
    {
      "midi": 52,
      "time": 5.357,
      "duration": 0.067,
      "velocity": 1,
      "hand": "left"
    },
    {
      "midi": 64,
      "time": 5.357,
      "duration": 0.067,
      "velocity": 1,
      "hand": "right"
    },
    {
      "midi": 53,
      "time": 5.424,
      "duration": 0.067,
      "velocity": 1,
      "hand": "left"
    },
    {
      "midi": 65,
      "time": 5.424,
      "duration": 0.067,
      "velocity": 1,
      "hand": "right"
    },
    {
      "midi": 58,
      "time": 5.558,
      "duration": 0.067,
      "velocity": 1,
      "hand": "left"
    },
    {
      "midi": 70,
      "time": 5.558,
      "duration": 0.067,
      "velocity": 1,
      "hand": "right"
    },
    {
      "midi": 56,
      "time": 5.625,
      "duration": 0.067,
      "velocity": 1,
      "hand": "left"
    },
    {
      "midi": 68,
      "time": 5.625,
      "duration": 0.067,
      "velocity": 1,
      "hand": "right"
    },
    {
      "midi": 57,
      "time": 5.692,
      "duration": 0.067,
      "velocity": 1,
      "hand": "left"
    },
    {
      "midi": 69,
      "time": 5.692,
      "duration": 0.067,
      "velocity": 1,
      "hand": "right"
    },
    {
      "midi": 61,
      "time": 5.826,
      "duration": 0.067,
      "velocity": 1,
      "hand": "right"
    },
    {
      "midi": 73,
      "time": 5.826,
      "duration": 0.067,
      "velocity": 1,
      "hand": "right"
    },
    {
      "midi": 57,
      "time": 5.893,
      "duration": 0.067,
      "velocity": 1,
      "hand": "left"
    },
    {
      "midi": 69,
      "time": 5.893,
      "duration": 0.067,
      "velocity": 1,
      "hand": "right"
    },
    {
      "midi": 58,
      "time": 5.96,
      "duration": 0.067,
      "velocity": 1,
      "hand": "left"
    },
    {
      "midi": 70,
      "time": 5.96,
      "duration": 0.067,
      "velocity": 1,
      "hand": "right"
    },
    {
      "midi": 61,
      "time": 6.094,
      "duration": 0.067,
      "velocity": 1,
      "hand": "right"
    },
    {
      "midi": 73,
      "time": 6.094,
      "duration": 0.067,
      "velocity": 1,
      "hand": "right"
    },
    {
      "midi": 59,
      "time": 6.161,
      "duration": 0.067,
      "velocity": 1,
      "hand": "left"
    },
    {
      "midi": 71,
      "time": 6.161,
      "duration": 0.067,
      "velocity": 1,
      "hand": "right"
    },
    {
      "midi": 60,
      "time": 6.228,
      "duration": 0.067,
      "velocity": 1,
      "hand": "right"
    },
    {
      "midi": 72,
      "time": 6.228,
      "duration": 0.067,
      "velocity": 1,
      "hand": "right"
    },
    {
      "midi": 65,
      "time": 6.362,
      "duration": 0.067,
      "velocity": 1,
      "hand": "right"
    },
    {
      "midi": 77,
      "time": 6.362,
      "duration": 0.067,
      "velocity": 1,
      "hand": "right"
    },
    {
      "midi": 56,
      "time": 6.429,
      "duration": 0.067,
      "velocity": 1,
      "hand": "left"
    },
    {
      "midi": 68,
      "time": 6.429,
      "duration": 0.067,
      "velocity": 1,
      "hand": "right"
    },
    {
      "midi": 59,
      "time": 6.496,
      "duration": 0.067,
      "velocity": 1,
      "hand": "left"
    },
    {
      "midi": 71,
      "time": 6.496,
      "duration": 0.067,
      "velocity": 1,
      "hand": "right"
    },
    {
      "midi": 64,
      "time": 6.629,
      "duration": 0.067,
      "velocity": 1,
      "hand": "right"
    },
    {
      "midi": 76,
      "time": 6.629,
      "duration": 0.067,
      "velocity": 1,
      "hand": "right"
    },
    {
      "midi": 63,
      "time": 6.696,
      "duration": 0.067,
      "velocity": 1,
      "hand": "right"
    },
    {
      "midi": 75,
      "time": 6.696,
      "duration": 0.067,
      "velocity": 1,
      "hand": "right"
    },
    {
      "midi": 58,
      "time": 6.763,
      "duration": 0.067,
      "velocity": 1,
      "hand": "left"
    },
    {
      "midi": 70,
      "time": 6.763,
      "duration": 0.067,
      "velocity": 1,
      "hand": "right"
    },
    {
      "midi": 59,
      "time": 6.897,
      "duration": 0.067,
      "velocity": 1,
      "hand": "left"
    },
    {
      "midi": 71,
      "time": 6.897,
      "duration": 0.067,
      "velocity": 1,
      "hand": "right"
    },
    {
      "midi": 62,
      "time": 6.964,
      "duration": 0.067,
      "velocity": 1,
      "hand": "right"
    },
    {
      "midi": 74,
      "time": 6.964,
      "duration": 0.067,
      "velocity": 1,
      "hand": "right"
    },
    {
      "midi": 58,
      "time": 7.031,
      "duration": 0.067,
      "velocity": 1,
      "hand": "left"
    },
    {
      "midi": 70,
      "time": 7.031,
      "duration": 0.067,
      "velocity": 1,
      "hand": "right"
    },
    {
      "midi": 59,
      "time": 7.165,
      "duration": 0.067,
      "velocity": 1,
      "hand": "left"
    },
    {
      "midi": 71,
      "time": 7.165,
      "duration": 0.067,
      "velocity": 1,
      "hand": "right"
    },
    {
      "midi": 55,
      "time": 7.232,
      "duration": 0.067,
      "velocity": 1,
      "hand": "left"
    },
    {
      "midi": 67,
      "time": 7.232,
      "duration": 0.067,
      "velocity": 1,
      "hand": "right"
    },
    {
      "midi": 56,
      "time": 7.299,
      "duration": 0.067,
      "velocity": 1,
      "hand": "left"
    },
    {
      "midi": 68,
      "time": 7.299,
      "duration": 0.067,
      "velocity": 1,
      "hand": "right"
    },
    {
      "midi": 52,
      "time": 7.433,
      "duration": 0.067,
      "velocity": 1,
      "hand": "left"
    },
    {
      "midi": 64,
      "time": 7.433,
      "duration": 0.067,
      "velocity": 1,
      "hand": "right"
    },
    {
      "midi": 50,
      "time": 7.5,
      "duration": 0.067,
      "velocity": 1,
      "hand": "left"
    },
    {
      "midi": 62,
      "time": 7.5,
      "duration": 0.067,
      "velocity": 1,
      "hand": "right"
    },
    {
      "midi": 51,
      "time": 7.567,
      "duration": 0.067,
      "velocity": 1,
      "hand": "left"
    },
    {
      "midi": 63,
      "time": 7.567,
      "duration": 0.067,
      "velocity": 1,
      "hand": "right"
    },
    {
      "midi": 56,
      "time": 7.701,
      "duration": 0.067,
      "velocity": 1,
      "hand": "left"
    },
    {
      "midi": 68,
      "time": 7.701,
      "duration": 0.067,
      "velocity": 1,
      "hand": "right"
    },
    {
      "midi": 52,
      "time": 7.768,
      "duration": 0.067,
      "velocity": 1,
      "hand": "left"
    },
    {
      "midi": 64,
      "time": 7.768,
      "duration": 0.067,
      "velocity": 1,
      "hand": "right"
    },
    {
      "midi": 53,
      "time": 7.835,
      "duration": 0.067,
      "velocity": 1,
      "hand": "left"
    },
    {
      "midi": 65,
      "time": 7.835,
      "duration": 0.067,
      "velocity": 1,
      "hand": "right"
    },
    {
      "midi": 59,
      "time": 7.969,
      "duration": 0.067,
      "velocity": 1,
      "hand": "left"
    },
    {
      "midi": 71,
      "time": 7.969,
      "duration": 0.067,
      "velocity": 1,
      "hand": "right"
    },
    {
      "midi": 53,
      "time": 8.036,
      "duration": 0.067,
      "velocity": 1,
      "hand": "left"
    },
    {
      "midi": 65,
      "time": 8.036,
      "duration": 0.067,
      "velocity": 1,
      "hand": "right"
    },
    {
      "midi": 54,
      "time": 8.103,
      "duration": 0.067,
      "velocity": 1,
      "hand": "left"
    },
    {
      "midi": 66,
      "time": 8.103,
      "duration": 0.067,
      "velocity": 1,
      "hand": "right"
    },
    {
      "midi": 59,
      "time": 8.237,
      "duration": 0.067,
      "velocity": 1,
      "hand": "left"
    },
    {
      "midi": 71,
      "time": 8.237,
      "duration": 0.067,
      "velocity": 1,
      "hand": "right"
    },
    {
      "midi": 57,
      "time": 8.304,
      "duration": 0.067,
      "velocity": 1,
      "hand": "left"
    },
    {
      "midi": 69,
      "time": 8.304,
      "duration": 0.067,
      "velocity": 1,
      "hand": "right"
    },
    {
      "midi": 58,
      "time": 8.371,
      "duration": 0.067,
      "velocity": 1,
      "hand": "left"
    },
    {
      "midi": 70,
      "time": 8.371,
      "duration": 0.067,
      "velocity": 1,
      "hand": "right"
    },
    {
      "midi": 63,
      "time": 8.504,
      "duration": 0.067,
      "velocity": 1,
      "hand": "right"
    },
    {
      "midi": 75,
      "time": 8.504,
      "duration": 0.067,
      "velocity": 1,
      "hand": "right"
    },
    {
      "midi": 61,
      "time": 8.571,
      "duration": 0.067,
      "velocity": 1,
      "hand": "right"
    },
    {
      "midi": 73,
      "time": 8.571,
      "duration": 0.067,
      "velocity": 1,
      "hand": "right"
    },
    {
      "midi": 53,
      "time": 8.638,
      "duration": 0.067,
      "velocity": 1,
      "hand": "left"
    },
    {
      "midi": 65,
      "time": 8.638,
      "duration": 0.067,
      "velocity": 1,
      "hand": "right"
    },
    {
      "midi": 58,
      "time": 8.772,
      "duration": 0.067,
      "velocity": 1,
      "hand": "left"
    },
    {
      "midi": 70,
      "time": 8.772,
      "duration": 0.067,
      "velocity": 1,
      "hand": "right"
    },
    {
      "midi": 49,
      "time": 8.839,
      "duration": 0.067,
      "velocity": 1,
      "hand": "left"
    },
    {
      "midi": 61,
      "time": 8.839,
      "duration": 0.067,
      "velocity": 1,
      "hand": "right"
    },
    {
      "midi": 52,
      "time": 8.906,
      "duration": 0.067,
      "velocity": 1,
      "hand": "left"
    },
    {
      "midi": 64,
      "time": 8.906,
      "duration": 0.067,
      "velocity": 1,
      "hand": "right"
    },
    {
      "midi": 57,
      "time": 9.04,
      "duration": 0.067,
      "velocity": 1,
      "hand": "left"
    },
    {
      "midi": 69,
      "time": 9.04,
      "duration": 0.067,
      "velocity": 1,
      "hand": "right"
    },
    {
      "midi": 60,
      "time": 9.107,
      "duration": 0.067,
      "velocity": 1,
      "hand": "right"
    },
    {
      "midi": 72,
      "time": 9.107,
      "duration": 0.067,
      "velocity": 1,
      "hand": "right"
    },
    {
      "midi": 51,
      "time": 9.174,
      "duration": 0.067,
      "velocity": 1,
      "hand": "left"
    },
    {
      "midi": 63,
      "time": 9.174,
      "duration": 0.067,
      "velocity": 1,
      "hand": "right"
    },
    {
      "midi": 56,
      "time": 9.308,
      "duration": 0.067,
      "velocity": 1,
      "hand": "left"
    },
    {
      "midi": 68,
      "time": 9.308,
      "duration": 0.067,
      "velocity": 1,
      "hand": "right"
    },
    {
      "midi": 47,
      "time": 9.375,
      "duration": 0.067,
      "velocity": 1,
      "hand": "left"
    },
    {
      "midi": 59,
      "time": 9.375,
      "duration": 0.067,
      "velocity": 1,
      "hand": "left"
    },
    {
      "midi": 50,
      "time": 9.442,
      "duration": 0.067,
      "velocity": 1,
      "hand": "left"
    },
    {
      "midi": 62,
      "time": 9.442,
      "duration": 0.067,
      "velocity": 1,
      "hand": "right"
    },
    {
      "midi": 55,
      "time": 9.576,
      "duration": 0.067,
      "velocity": 1,
      "hand": "left"
    },
    {
      "midi": 67,
      "time": 9.576,
      "duration": 0.067,
      "velocity": 1,
      "hand": "right"
    },
    {
      "midi": 59,
      "time": 9.643,
      "duration": 0.067,
      "velocity": 1,
      "hand": "left"
    },
    {
      "midi": 71,
      "time": 9.643,
      "duration": 0.067,
      "velocity": 1,
      "hand": "right"
    },
    {
      "midi": 50,
      "time": 9.71,
      "duration": 0.067,
      "velocity": 1,
      "hand": "left"
    },
    {
      "midi": 62,
      "time": 9.71,
      "duration": 0.067,
      "velocity": 1,
      "hand": "right"
    },
    {
      "midi": 54,
      "time": 9.844,
      "duration": 0.067,
      "velocity": 1,
      "hand": "left"
    },
    {
      "midi": 66,
      "time": 9.844,
      "duration": 0.067,
      "velocity": 1,
      "hand": "right"
    },
    {
      "midi": 46,
      "time": 9.911,
      "duration": 0.067,
      "velocity": 1,
      "hand": "left"
    },
    {
      "midi": 58,
      "time": 9.911,
      "duration": 0.067,
      "velocity": 1,
      "hand": "left"
    },
    {
      "midi": 49,
      "time": 9.978,
      "duration": 0.067,
      "velocity": 1,
      "hand": "left"
    },
    {
      "midi": 61,
      "time": 9.978,
      "duration": 0.067,
      "velocity": 1,
      "hand": "right"
    },
    {
      "midi": 54,
      "time": 10.112,
      "duration": 0.067,
      "velocity": 1,
      "hand": "left"
    },
    {
      "midi": 66,
      "time": 10.112,
      "duration": 0.067,
      "velocity": 1,
      "hand": "right"
    },
    {
      "midi": 58,
      "time": 10.179,
      "duration": 0.067,
      "velocity": 1,
      "hand": "left"
    },
    {
      "midi": 70,
      "time": 10.179,
      "duration": 0.067,
      "velocity": 1,
      "hand": "right"
    },
    {
      "midi": 54,
      "time": 10.246,
      "duration": 0.067,
      "velocity": 1,
      "hand": "left"
    },
    {
      "midi": 66,
      "time": 10.246,
      "duration": 0.067,
      "velocity": 1,
      "hand": "right"
    },
    {
      "midi": 59,
      "time": 10.379,
      "duration": 0.067,
      "velocity": 1,
      "hand": "left"
    },
    {
      "midi": 71,
      "time": 10.379,
      "duration": 0.067,
      "velocity": 1,
      "hand": "right"
    },
    {
      "midi": 60,
      "time": 10.446,
      "duration": 0.067,
      "velocity": 1,
      "hand": "right"
    },
    {
      "midi": 72,
      "time": 10.446,
      "duration": 0.067,
      "velocity": 1,
      "hand": "right"
    },
    {
      "midi": 61,
      "time": 10.513,
      "duration": 0.067,
      "velocity": 1,
      "hand": "right"
    },
    {
      "midi": 73,
      "time": 10.513,
      "duration": 0.067,
      "velocity": 1,
      "hand": "right"
    },
    {
      "midi": 63,
      "time": 10.647,
      "duration": 0.067,
      "velocity": 1,
      "hand": "right"
    },
    {
      "midi": 75,
      "time": 10.647,
      "duration": 0.067,
      "velocity": 1,
      "hand": "right"
    },
    {
      "midi": 64,
      "time": 10.714,
      "duration": 0.067,
      "velocity": 1,
      "hand": "right"
    },
    {
      "midi": 76,
      "time": 10.714,
      "duration": 0.067,
      "velocity": 1,
      "hand": "right"
    },
    {
      "midi": 55,
      "time": 10.781,
      "duration": 0.067,
      "velocity": 1,
      "hand": "left"
    },
    {
      "midi": 67,
      "time": 10.781,
      "duration": 0.067,
      "velocity": 1,
      "hand": "right"
    },
    {
      "midi": 60,
      "time": 10.915,
      "duration": 0.067,
      "velocity": 1,
      "hand": "right"
    },
    {
      "midi": 72,
      "time": 10.915,
      "duration": 0.067,
      "velocity": 1,
      "hand": "right"
    },
    {
      "midi": 51,
      "time": 10.982,
      "duration": 0.067,
      "velocity": 1,
      "hand": "left"
    },
    {
      "midi": 63,
      "time": 10.982,
      "duration": 0.067,
      "velocity": 1,
      "hand": "right"
    },
    {
      "midi": 54,
      "time": 11.049,
      "duration": 0.067,
      "velocity": 1,
      "hand": "left"
    },
    {
      "midi": 66,
      "time": 11.049,
      "duration": 0.067,
      "velocity": 1,
      "hand": "right"
    },
    {
      "midi": 59,
      "time": 11.183,
      "duration": 0.067,
      "velocity": 1,
      "hand": "left"
    },
    {
      "midi": 71,
      "time": 11.183,
      "duration": 0.067,
      "velocity": 1,
      "hand": "right"
    },
    {
      "midi": 62,
      "time": 11.25,
      "duration": 0.067,
      "velocity": 1,
      "hand": "right"
    },
    {
      "midi": 74,
      "time": 11.25,
      "duration": 0.067,
      "velocity": 1,
      "hand": "right"
    },
    {
      "midi": 53,
      "time": 11.317,
      "duration": 0.067,
      "velocity": 1,
      "hand": "left"
    },
    {
      "midi": 65,
      "time": 11.317,
      "duration": 0.067,
      "velocity": 1,
      "hand": "right"
    },
    {
      "midi": 58,
      "time": 11.451,
      "duration": 0.067,
      "velocity": 1,
      "hand": "left"
    },
    {
      "midi": 70,
      "time": 11.451,
      "duration": 0.067,
      "velocity": 1,
      "hand": "right"
    },
    {
      "midi": 49,
      "time": 11.518,
      "duration": 0.067,
      "velocity": 1,
      "hand": "left"
    },
    {
      "midi": 61,
      "time": 11.518,
      "duration": 0.067,
      "velocity": 1,
      "hand": "right"
    },
    {
      "midi": 52,
      "time": 11.585,
      "duration": 0.067,
      "velocity": 1,
      "hand": "left"
    },
    {
      "midi": 64,
      "time": 11.585,
      "duration": 0.067,
      "velocity": 1,
      "hand": "right"
    },
    {
      "midi": 57,
      "time": 11.719,
      "duration": 0.067,
      "velocity": 1,
      "hand": "left"
    },
    {
      "midi": 69,
      "time": 11.719,
      "duration": 0.067,
      "velocity": 1,
      "hand": "right"
    },
    {
      "midi": 60,
      "time": 11.786,
      "duration": 0.067,
      "velocity": 1,
      "hand": "right"
    },
    {
      "midi": 72,
      "time": 11.786,
      "duration": 0.067,
      "velocity": 1,
      "hand": "right"
    },
    {
      "midi": 51,
      "time": 11.853,
      "duration": 0.067,
      "velocity": 1,
      "hand": "left"
    },
    {
      "midi": 63,
      "time": 11.853,
      "duration": 0.067,
      "velocity": 1,
      "hand": "right"
    },
    {
      "midi": 56,
      "time": 11.987,
      "duration": 0.067,
      "velocity": 1,
      "hand": "left"
    },
    {
      "midi": 68,
      "time": 11.987,
      "duration": 0.067,
      "velocity": 1,
      "hand": "right"
    },
    {
      "midi": 47,
      "time": 12.054,
      "duration": 0.067,
      "velocity": 1,
      "hand": "left"
    },
    {
      "midi": 59,
      "time": 12.054,
      "duration": 0.067,
      "velocity": 1,
      "hand": "left"
    },
    {
      "midi": 50,
      "time": 12.121,
      "duration": 0.067,
      "velocity": 1,
      "hand": "left"
    },
    {
      "midi": 62,
      "time": 12.121,
      "duration": 0.067,
      "velocity": 1,
      "hand": "right"
    },
    {
      "midi": 55,
      "time": 12.254,
      "duration": 0.067,
      "velocity": 1,
      "hand": "left"
    },
    {
      "midi": 67,
      "time": 12.254,
      "duration": 0.067,
      "velocity": 1,
      "hand": "right"
    },
    {
      "midi": 59,
      "time": 12.321,
      "duration": 0.067,
      "velocity": 1,
      "hand": "left"
    },
    {
      "midi": 71,
      "time": 12.321,
      "duration": 0.067,
      "velocity": 1,
      "hand": "right"
    },
    {
      "midi": 54,
      "time": 12.388,
      "duration": 0.067,
      "velocity": 1,
      "hand": "left"
    },
    {
      "midi": 66,
      "time": 12.388,
      "duration": 0.067,
      "velocity": 1,
      "hand": "right"
    },
    {
      "midi": 61,
      "time": 12.522,
      "duration": 0.067,
      "velocity": 1,
      "hand": "right"
    },
    {
      "midi": 73,
      "time": 12.522,
      "duration": 0.067,
      "velocity": 1,
      "hand": "right"
    },
    {
      "midi": 62,
      "time": 12.589,
      "duration": 0.067,
      "velocity": 1,
      "hand": "right"
    },
    {
      "midi": 74,
      "time": 12.589,
      "duration": 0.067,
      "velocity": 1,
      "hand": "right"
    },
    {
      "midi": 63,
      "time": 12.656,
      "duration": 0.067,
      "velocity": 1,
      "hand": "right"
    },
    {
      "midi": 75,
      "time": 12.656,
      "duration": 0.067,
      "velocity": 1,
      "hand": "right"
    },
    {
      "midi": 64,
      "time": 12.79,
      "duration": 0.067,
      "velocity": 1,
      "hand": "right"
    },
    {
      "midi": 76,
      "time": 12.79,
      "duration": 0.067,
      "velocity": 1,
      "hand": "right"
    },
    {
      "midi": 65,
      "time": 12.857,
      "duration": 0.067,
      "velocity": 1,
      "hand": "right"
    },
    {
      "midi": 77,
      "time": 12.857,
      "duration": 0.067,
      "velocity": 1,
      "hand": "right"
    },
    {
      "midi": 57,
      "time": 12.924,
      "duration": 0.067,
      "velocity": 1,
      "hand": "left"
    },
    {
      "midi": 69,
      "time": 12.924,
      "duration": 0.067,
      "velocity": 1,
      "hand": "right"
    },
    {
      "midi": 63,
      "time": 13.058,
      "duration": 0.067,
      "velocity": 1,
      "hand": "right"
    },
    {
      "midi": 75,
      "time": 13.058,
      "duration": 0.067,
      "velocity": 1,
      "hand": "right"
    },
    {
      "midi": 64,
      "time": 13.125,
      "duration": 0.067,
      "velocity": 1,
      "hand": "right"
    },
    {
      "midi": 76,
      "time": 13.125,
      "duration": 0.067,
      "velocity": 1,
      "hand": "right"
    },
    {
      "midi": 65,
      "time": 13.192,
      "duration": 0.067,
      "velocity": 1,
      "hand": "right"
    },
    {
      "midi": 77,
      "time": 13.192,
      "duration": 0.067,
      "velocity": 1,
      "hand": "right"
    },
    {
      "midi": 66,
      "time": 13.326,
      "duration": 0.067,
      "velocity": 1,
      "hand": "right"
    },
    {
      "midi": 78,
      "time": 13.326,
      "duration": 0.067,
      "velocity": 1,
      "hand": "right"
    },
    {
      "midi": 65,
      "time": 13.393,
      "duration": 0.067,
      "velocity": 1,
      "hand": "right"
    },
    {
      "midi": 77,
      "time": 13.393,
      "duration": 0.067,
      "velocity": 1,
      "hand": "right"
    },
    {
      "midi": 58,
      "time": 13.46,
      "duration": 0.067,
      "velocity": 1,
      "hand": "left"
    },
    {
      "midi": 70,
      "time": 13.46,
      "duration": 0.067,
      "velocity": 1,
      "hand": "right"
    },
    {
      "midi": 61,
      "time": 13.594,
      "duration": 0.067,
      "velocity": 1,
      "hand": "right"
    },
    {
      "midi": 73,
      "time": 13.594,
      "duration": 0.067,
      "velocity": 1,
      "hand": "right"
    },
    {
      "midi": 64,
      "time": 13.661,
      "duration": 0.067,
      "velocity": 1,
      "hand": "right"
    },
    {
      "midi": 76,
      "time": 13.661,
      "duration": 0.067,
      "velocity": 1,
      "hand": "right"
    },
    {
      "midi": 65,
      "time": 13.728,
      "duration": 0.067,
      "velocity": 1,
      "hand": "right"
    },
    {
      "midi": 77,
      "time": 13.728,
      "duration": 0.067,
      "velocity": 1,
      "hand": "right"
    },
    {
      "midi": 66,
      "time": 13.862,
      "duration": 0.067,
      "velocity": 1,
      "hand": "right"
    },
    {
      "midi": 78,
      "time": 13.862,
      "duration": 0.067,
      "velocity": 1,
      "hand": "right"
    },
    {
      "midi": 67,
      "time": 13.929,
      "duration": 0.067,
      "velocity": 1,
      "hand": "right"
    },
    {
      "midi": 79,
      "time": 13.929,
      "duration": 0.067,
      "velocity": 1,
      "hand": "right"
    },
    {
      "midi": 59,
      "time": 13.996,
      "duration": 0.067,
      "velocity": 1,
      "hand": "left"
    },
    {
      "midi": 71,
      "time": 13.996,
      "duration": 0.067,
      "velocity": 1,
      "hand": "right"
    },
    {
      "midi": 65,
      "time": 14.129,
      "duration": 0.067,
      "velocity": 1,
      "hand": "right"
    },
    {
      "midi": 77,
      "time": 14.129,
      "duration": 0.067,
      "velocity": 1,
      "hand": "right"
    },
    {
      "midi": 66,
      "time": 14.196,
      "duration": 0.067,
      "velocity": 1,
      "hand": "right"
    },
    {
      "midi": 78,
      "time": 14.196,
      "duration": 0.067,
      "velocity": 1,
      "hand": "right"
    },
    {
      "midi": 67,
      "time": 14.263,
      "duration": 0.067,
      "velocity": 1,
      "hand": "right"
    },
    {
      "midi": 79,
      "time": 14.263,
      "duration": 0.067,
      "velocity": 1,
      "hand": "right"
    },
    {
      "midi": 68,
      "time": 14.397,
      "duration": 0.067,
      "velocity": 1,
      "hand": "right"
    },
    {
      "midi": 80,
      "time": 14.397,
      "duration": 0.067,
      "velocity": 1,
      "hand": "right"
    },
    {
      "midi": 67,
      "time": 14.464,
      "duration": 0.067,
      "velocity": 1,
      "hand": "right"
    },
    {
      "midi": 79,
      "time": 14.464,
      "duration": 0.067,
      "velocity": 1,
      "hand": "right"
    },
    {
      "midi": 60,
      "time": 14.531,
      "duration": 0.067,
      "velocity": 1,
      "hand": "right"
    },
    {
      "midi": 72,
      "time": 14.531,
      "duration": 0.067,
      "velocity": 1,
      "hand": "right"
    },
    {
      "midi": 63,
      "time": 14.665,
      "duration": 0.067,
      "velocity": 1,
      "hand": "right"
    },
    {
      "midi": 75,
      "time": 14.665,
      "duration": 0.067,
      "velocity": 1,
      "hand": "right"
    },
    {
      "midi": 66,
      "time": 14.732,
      "duration": 0.067,
      "velocity": 1,
      "hand": "right"
    },
    {
      "midi": 78,
      "time": 14.732,
      "duration": 0.067,
      "velocity": 1,
      "hand": "right"
    },
    {
      "midi": 67,
      "time": 14.799,
      "duration": 0.067,
      "velocity": 1,
      "hand": "right"
    },
    {
      "midi": 79,
      "time": 14.799,
      "duration": 0.067,
      "velocity": 1,
      "hand": "right"
    },
    {
      "midi": 68,
      "time": 14.933,
      "duration": 0.067,
      "velocity": 1,
      "hand": "right"
    },
    {
      "midi": 80,
      "time": 14.933,
      "duration": 0.067,
      "velocity": 1,
      "hand": "right"
    },
    {
      "midi": 63,
      "time": 15,
      "duration": 0.067,
      "velocity": 1,
      "hand": "right"
    },
    {
      "midi": 75,
      "time": 15,
      "duration": 0.067,
      "velocity": 1,
      "hand": "right"
    },
    {
      "midi": 60,
      "time": 15.067,
      "duration": 0.067,
      "velocity": 1,
      "hand": "right"
    },
    {
      "midi": 72,
      "time": 15.067,
      "duration": 0.067,
      "velocity": 1,
      "hand": "right"
    },
    {
      "midi": 65,
      "time": 15.201,
      "duration": 0.067,
      "velocity": 1,
      "hand": "right"
    },
    {
      "midi": 77,
      "time": 15.201,
      "duration": 0.067,
      "velocity": 1,
      "hand": "right"
    },
    {
      "midi": 63,
      "time": 15.268,
      "duration": 0.067,
      "velocity": 1,
      "hand": "right"
    },
    {
      "midi": 75,
      "time": 15.268,
      "duration": 0.067,
      "velocity": 1,
      "hand": "right"
    },
    {
      "midi": 56,
      "time": 15.335,
      "duration": 0.067,
      "velocity": 1,
      "hand": "left"
    },
    {
      "midi": 68,
      "time": 15.335,
      "duration": 0.067,
      "velocity": 1,
      "hand": "right"
    },
    {
      "midi": 61,
      "time": 15.469,
      "duration": 0.067,
      "velocity": 1,
      "hand": "right"
    },
    {
      "midi": 73,
      "time": 15.469,
      "duration": 0.067,
      "velocity": 1,
      "hand": "right"
    },
    {
      "midi": 60,
      "time": 15.536,
      "duration": 0.067,
      "velocity": 1,
      "hand": "right"
    },
    {
      "midi": 72,
      "time": 15.536,
      "duration": 0.067,
      "velocity": 1,
      "hand": "right"
    },
    {
      "midi": 51,
      "time": 15.603,
      "duration": 0.067,
      "velocity": 1,
      "hand": "left"
    },
    {
      "midi": 63,
      "time": 15.603,
      "duration": 0.067,
      "velocity": 1,
      "hand": "right"
    },
    {
      "midi": 58,
      "time": 15.737,
      "duration": 0.067,
      "velocity": 1,
      "hand": "left"
    },
    {
      "midi": 70,
      "time": 15.737,
      "duration": 0.067,
      "velocity": 1,
      "hand": "right"
    },
    {
      "midi": 56,
      "time": 15.804,
      "duration": 0.067,
      "velocity": 1,
      "hand": "left"
    },
    {
      "midi": 68,
      "time": 15.804,
      "duration": 0.067,
      "velocity": 1,
      "hand": "right"
    },
    {
      "midi": 48,
      "time": 15.871,
      "duration": 0.067,
      "velocity": 1,
      "hand": "left"
    },
    {
      "midi": 60,
      "time": 15.871,
      "duration": 0.067,
      "velocity": 1,
      "hand": "right"
    },
    {
      "midi": 53,
      "time": 16.004,
      "duration": 0.067,
      "velocity": 1,
      "hand": "left"
    },
    {
      "midi": 65,
      "time": 16.004,
      "duration": 0.067,
      "velocity": 1,
      "hand": "right"
    },
    {
      "midi": 51,
      "time": 16.071,
      "duration": 0.067,
      "velocity": 1,
      "hand": "left"
    },
    {
      "midi": 63,
      "time": 16.071,
      "duration": 0.067,
      "velocity": 1,
      "hand": "right"
    },
    {
      "midi": 44,
      "time": 16.138,
      "duration": 0.067,
      "velocity": 1,
      "hand": "left"
    },
    {
      "midi": 56,
      "time": 16.138,
      "duration": 0.067,
      "velocity": 1,
      "hand": "left"
    },
    {
      "midi": 49,
      "time": 16.272,
      "duration": 0.067,
      "velocity": 1,
      "hand": "left"
    },
    {
      "midi": 61,
      "time": 16.272,
      "duration": 0.067,
      "velocity": 1,
      "hand": "right"
    },
    {
      "midi": 48,
      "time": 16.339,
      "duration": 0.067,
      "velocity": 1,
      "hand": "left"
    },
    {
      "midi": 60,
      "time": 16.339,
      "duration": 0.067,
      "velocity": 1,
      "hand": "right"
    },
    {
      "midi": 43,
      "time": 16.406,
      "duration": 0.067,
      "velocity": 1,
      "hand": "left"
    },
    {
      "midi": 55,
      "time": 16.406,
      "duration": 0.067,
      "velocity": 1,
      "hand": "left"
    },
    {
      "midi": 44,
      "time": 16.54,
      "duration": 0.067,
      "velocity": 1,
      "hand": "left"
    },
    {
      "midi": 56,
      "time": 16.54,
      "duration": 0.067,
      "velocity": 1,
      "hand": "left"
    },
    {
      "midi": 48,
      "time": 16.607,
      "duration": 0.067,
      "velocity": 1,
      "hand": "left"
    },
    {
      "midi": 60,
      "time": 16.607,
      "duration": 0.067,
      "velocity": 1,
      "hand": "right"
    },
    {
      "midi": 42,
      "time": 16.674,
      "duration": 0.067,
      "velocity": 1,
      "hand": "left"
    },
    {
      "midi": 54,
      "time": 16.674,
      "duration": 0.067,
      "velocity": 1,
      "hand": "left"
    },
    {
      "midi": 50,
      "time": 16.808,
      "duration": 0.067,
      "velocity": 1,
      "hand": "left"
    },
    {
      "midi": 62,
      "time": 16.808,
      "duration": 0.067,
      "velocity": 1,
      "hand": "right"
    },
    {
      "midi": 48,
      "time": 16.875,
      "duration": 0.067,
      "velocity": 1,
      "hand": "left"
    },
    {
      "midi": 60,
      "time": 16.875,
      "duration": 0.067,
      "velocity": 1,
      "hand": "right"
    },
    {
      "midi": 41,
      "time": 16.942,
      "duration": 0.067,
      "velocity": 1,
      "hand": "left"
    },
    {
      "midi": 53,
      "time": 16.942,
      "duration": 0.067,
      "velocity": 1,
      "hand": "left"
    },
    {
      "midi": 42,
      "time": 17.076,
      "duration": 0.067,
      "velocity": 1,
      "hand": "left"
    },
    {
      "midi": 54,
      "time": 17.076,
      "duration": 0.067,
      "velocity": 1,
      "hand": "left"
    },
    {
      "midi": 43,
      "time": 17.143,
      "duration": 0.067,
      "velocity": 1,
      "hand": "left"
    },
    {
      "midi": 55,
      "time": 17.143,
      "duration": 0.067,
      "velocity": 1,
      "hand": "left"
    },
    {
      "midi": 45,
      "time": 17.21,
      "duration": 0.067,
      "velocity": 1,
      "hand": "left"
    },
    {
      "midi": 57,
      "time": 17.21,
      "duration": 0.067,
      "velocity": 1,
      "hand": "left"
    },
    {
      "midi": 47,
      "time": 17.344,
      "duration": 0.067,
      "velocity": 1,
      "hand": "left"
    },
    {
      "midi": 59,
      "time": 17.344,
      "duration": 0.067,
      "velocity": 1,
      "hand": "left"
    },
    {
      "midi": 48,
      "time": 17.411,
      "duration": 0.067,
      "velocity": 1,
      "hand": "left"
    },
    {
      "midi": 60,
      "time": 17.411,
      "duration": 0.067,
      "velocity": 1,
      "hand": "right"
    },
    {
      "midi": 50,
      "time": 17.478,
      "duration": 0.067,
      "velocity": 1,
      "hand": "left"
    },
    {
      "midi": 62,
      "time": 17.478,
      "duration": 0.067,
      "velocity": 1,
      "hand": "right"
    },
    {
      "midi": 51,
      "time": 17.612,
      "duration": 0.067,
      "velocity": 1,
      "hand": "left"
    },
    {
      "midi": 63,
      "time": 17.612,
      "duration": 0.067,
      "velocity": 1,
      "hand": "right"
    },
    {
      "midi": 44,
      "time": 17.679,
      "duration": 0.067,
      "velocity": 1,
      "hand": "left"
    },
    {
      "midi": 56,
      "time": 17.679,
      "duration": 0.067,
      "velocity": 1,
      "hand": "left"
    },
    {
      "midi": 46,
      "time": 17.746,
      "duration": 0.067,
      "velocity": 1,
      "hand": "left"
    },
    {
      "midi": 58,
      "time": 17.746,
      "duration": 0.067,
      "velocity": 1,
      "hand": "left"
    },
    {
      "midi": 47,
      "time": 17.879,
      "duration": 0.067,
      "velocity": 1,
      "hand": "left"
    },
    {
      "midi": 59,
      "time": 17.879,
      "duration": 0.067,
      "velocity": 1,
      "hand": "left"
    },
    {
      "midi": 48,
      "time": 17.946,
      "duration": 0.067,
      "velocity": 1,
      "hand": "left"
    },
    {
      "midi": 60,
      "time": 17.946,
      "duration": 0.067,
      "velocity": 1,
      "hand": "right"
    },
    {
      "midi": 49,
      "time": 18.013,
      "duration": 0.067,
      "velocity": 1,
      "hand": "left"
    },
    {
      "midi": 61,
      "time": 18.013,
      "duration": 0.067,
      "velocity": 1,
      "hand": "right"
    },
    {
      "midi": 51,
      "time": 18.147,
      "duration": 0.067,
      "velocity": 1,
      "hand": "left"
    },
    {
      "midi": 63,
      "time": 18.147,
      "duration": 0.067,
      "velocity": 1,
      "hand": "right"
    },
    {
      "midi": 45,
      "time": 18.214,
      "duration": 0.067,
      "velocity": 1,
      "hand": "left"
    },
    {
      "midi": 57,
      "time": 18.214,
      "duration": 0.067,
      "velocity": 1,
      "hand": "left"
    },
    {
      "midi": 46,
      "time": 18.281,
      "duration": 0.067,
      "velocity": 1,
      "hand": "left"
    },
    {
      "midi": 58,
      "time": 18.281,
      "duration": 0.067,
      "velocity": 1,
      "hand": "left"
    },
    {
      "midi": 48,
      "time": 18.415,
      "duration": 0.067,
      "velocity": 1,
      "hand": "left"
    },
    {
      "midi": 60,
      "time": 18.415,
      "duration": 0.067,
      "velocity": 1,
      "hand": "right"
    },
    {
      "midi": 49,
      "time": 18.482,
      "duration": 0.067,
      "velocity": 1,
      "hand": "left"
    },
    {
      "midi": 61,
      "time": 18.482,
      "duration": 0.067,
      "velocity": 1,
      "hand": "right"
    },
    {
      "midi": 51,
      "time": 18.549,
      "duration": 0.067,
      "velocity": 1,
      "hand": "left"
    },
    {
      "midi": 63,
      "time": 18.549,
      "duration": 0.067,
      "velocity": 1,
      "hand": "right"
    },
    {
      "midi": 53,
      "time": 18.683,
      "duration": 0.067,
      "velocity": 1,
      "hand": "left"
    },
    {
      "midi": 65,
      "time": 18.683,
      "duration": 0.067,
      "velocity": 1,
      "hand": "right"
    },
    {
      "midi": 46,
      "time": 18.75,
      "duration": 0.067,
      "velocity": 1,
      "hand": "left"
    },
    {
      "midi": 58,
      "time": 18.75,
      "duration": 0.067,
      "velocity": 1,
      "hand": "left"
    },
    {
      "midi": 47,
      "time": 18.817,
      "duration": 0.067,
      "velocity": 1,
      "hand": "left"
    },
    {
      "midi": 59,
      "time": 18.817,
      "duration": 0.067,
      "velocity": 1,
      "hand": "left"
    },
    {
      "midi": 48,
      "time": 18.951,
      "duration": 0.067,
      "velocity": 1,
      "hand": "left"
    },
    {
      "midi": 60,
      "time": 18.951,
      "duration": 0.067,
      "velocity": 1,
      "hand": "right"
    },
    {
      "midi": 49,
      "time": 19.018,
      "duration": 0.067,
      "velocity": 1,
      "hand": "left"
    },
    {
      "midi": 61,
      "time": 19.018,
      "duration": 0.067,
      "velocity": 1,
      "hand": "right"
    },
    {
      "midi": 51,
      "time": 19.085,
      "duration": 0.067,
      "velocity": 1,
      "hand": "left"
    },
    {
      "midi": 63,
      "time": 19.085,
      "duration": 0.067,
      "velocity": 1,
      "hand": "right"
    },
    {
      "midi": 53,
      "time": 19.219,
      "duration": 0.067,
      "velocity": 1,
      "hand": "left"
    },
    {
      "midi": 65,
      "time": 19.219,
      "duration": 0.067,
      "velocity": 1,
      "hand": "right"
    },
    {
      "midi": 48,
      "time": 19.286,
      "duration": 0.067,
      "velocity": 1,
      "hand": "left"
    },
    {
      "midi": 60,
      "time": 19.286,
      "duration": 0.067,
      "velocity": 1,
      "hand": "right"
    },
    {
      "midi": 49,
      "time": 19.353,
      "duration": 0.067,
      "velocity": 1,
      "hand": "left"
    },
    {
      "midi": 61,
      "time": 19.353,
      "duration": 0.067,
      "velocity": 1,
      "hand": "right"
    },
    {
      "midi": 50,
      "time": 19.487,
      "duration": 0.067,
      "velocity": 1,
      "hand": "left"
    },
    {
      "midi": 62,
      "time": 19.487,
      "duration": 0.067,
      "velocity": 1,
      "hand": "right"
    },
    {
      "midi": 51,
      "time": 19.554,
      "duration": 0.067,
      "velocity": 1,
      "hand": "left"
    },
    {
      "midi": 63,
      "time": 19.554,
      "duration": 0.067,
      "velocity": 1,
      "hand": "right"
    },
    {
      "midi": 53,
      "time": 19.621,
      "duration": 0.067,
      "velocity": 1,
      "hand": "left"
    },
    {
      "midi": 65,
      "time": 19.621,
      "duration": 0.067,
      "velocity": 1,
      "hand": "right"
    },
    {
      "midi": 54,
      "time": 19.754,
      "duration": 0.067,
      "velocity": 1,
      "hand": "left"
    },
    {
      "midi": 66,
      "time": 19.754,
      "duration": 0.067,
      "velocity": 1,
      "hand": "right"
    },
    {
      "midi": 45,
      "time": 19.821,
      "duration": 0.067,
      "velocity": 1,
      "hand": "left"
    },
    {
      "midi": 57,
      "time": 19.821,
      "duration": 0.067,
      "velocity": 1,
      "hand": "left"
    },
    {
      "midi": 49,
      "time": 19.888,
      "duration": 0.067,
      "velocity": 1,
      "hand": "left"
    },
    {
      "midi": 61,
      "time": 19.888,
      "duration": 0.067,
      "velocity": 1,
      "hand": "right"
    },
    {
      "midi": 50,
      "time": 20.022,
      "duration": 0.067,
      "velocity": 1,
      "hand": "left"
    },
    {
      "midi": 62,
      "time": 20.022,
      "duration": 0.067,
      "velocity": 1,
      "hand": "right"
    },
    {
      "midi": 51,
      "time": 20.089,
      "duration": 0.067,
      "velocity": 1,
      "hand": "left"
    },
    {
      "midi": 63,
      "time": 20.089,
      "duration": 0.067,
      "velocity": 1,
      "hand": "right"
    },
    {
      "midi": 53,
      "time": 20.156,
      "duration": 0.067,
      "velocity": 1,
      "hand": "left"
    },
    {
      "midi": 65,
      "time": 20.156,
      "duration": 0.067,
      "velocity": 1,
      "hand": "right"
    },
    {
      "midi": 54,
      "time": 20.29,
      "duration": 0.067,
      "velocity": 1,
      "hand": "left"
    },
    {
      "midi": 66,
      "time": 20.29,
      "duration": 0.067,
      "velocity": 1,
      "hand": "right"
    },
    {
      "midi": 57,
      "time": 20.357,
      "duration": 0.067,
      "velocity": 1,
      "hand": "left"
    },
    {
      "midi": 69,
      "time": 20.357,
      "duration": 0.067,
      "velocity": 1,
      "hand": "right"
    },
    {
      "midi": 54,
      "time": 20.424,
      "duration": 0.067,
      "velocity": 1,
      "hand": "left"
    },
    {
      "midi": 66,
      "time": 20.424,
      "duration": 0.067,
      "velocity": 1,
      "hand": "right"
    },
    {
      "midi": 52,
      "time": 20.558,
      "duration": 0.067,
      "velocity": 1,
      "hand": "left"
    },
    {
      "midi": 64,
      "time": 20.558,
      "duration": 0.067,
      "velocity": 1,
      "hand": "right"
    },
    {
      "midi": 50,
      "time": 20.625,
      "duration": 0.067,
      "velocity": 1,
      "hand": "left"
    },
    {
      "midi": 62,
      "time": 20.625,
      "duration": 0.067,
      "velocity": 1,
      "hand": "right"
    },
    {
      "midi": 52,
      "time": 20.692,
      "duration": 0.067,
      "velocity": 1,
      "hand": "left"
    },
    {
      "midi": 64,
      "time": 20.692,
      "duration": 0.067,
      "velocity": 1,
      "hand": "right"
    },
    {
      "midi": 54,
      "time": 20.826,
      "duration": 0.067,
      "velocity": 1,
      "hand": "left"
    },
    {
      "midi": 66,
      "time": 20.826,
      "duration": 0.067,
      "velocity": 1,
      "hand": "right"
    },
    {
      "midi": 45,
      "time": 20.893,
      "duration": 0.067,
      "velocity": 1,
      "hand": "left"
    },
    {
      "midi": 57,
      "time": 20.893,
      "duration": 0.067,
      "velocity": 1,
      "hand": "left"
    },
    {
      "midi": 49,
      "time": 20.96,
      "duration": 0.067,
      "velocity": 1,
      "hand": "left"
    },
    {
      "midi": 61,
      "time": 20.96,
      "duration": 0.067,
      "velocity": 1,
      "hand": "right"
    },
    {
      "midi": 50,
      "time": 21.094,
      "duration": 0.067,
      "velocity": 1,
      "hand": "left"
    },
    {
      "midi": 62,
      "time": 21.094,
      "duration": 0.067,
      "velocity": 1,
      "hand": "right"
    },
    {
      "midi": 52,
      "time": 21.161,
      "duration": 0.067,
      "velocity": 1,
      "hand": "left"
    },
    {
      "midi": 64,
      "time": 21.161,
      "duration": 0.067,
      "velocity": 1,
      "hand": "right"
    },
    {
      "midi": 53,
      "time": 21.228,
      "duration": 0.067,
      "velocity": 1,
      "hand": "left"
    },
    {
      "midi": 65,
      "time": 21.228,
      "duration": 0.067,
      "velocity": 1,
      "hand": "right"
    },
    {
      "midi": 54,
      "time": 21.362,
      "duration": 0.067,
      "velocity": 1,
      "hand": "left"
    },
    {
      "midi": 66,
      "time": 21.362,
      "duration": 0.067,
      "velocity": 1,
      "hand": "right"
    },
    {
      "midi": 57,
      "time": 21.429,
      "duration": 0.067,
      "velocity": 1,
      "hand": "left"
    },
    {
      "midi": 69,
      "time": 21.429,
      "duration": 0.067,
      "velocity": 1,
      "hand": "right"
    },
    {
      "midi": 56,
      "time": 21.496,
      "duration": 0.067,
      "velocity": 1,
      "hand": "left"
    },
    {
      "midi": 68,
      "time": 21.496,
      "duration": 0.067,
      "velocity": 1,
      "hand": "right"
    },
    {
      "midi": 55,
      "time": 21.629,
      "duration": 0.067,
      "velocity": 1,
      "hand": "left"
    },
    {
      "midi": 67,
      "time": 21.629,
      "duration": 0.067,
      "velocity": 1,
      "hand": "right"
    },
    {
      "midi": 54,
      "time": 21.696,
      "duration": 0.067,
      "velocity": 1,
      "hand": "left"
    },
    {
      "midi": 66,
      "time": 21.696,
      "duration": 0.067,
      "velocity": 1,
      "hand": "right"
    },
    {
      "midi": 51,
      "time": 21.763,
      "duration": 0.067,
      "velocity": 1,
      "hand": "left"
    },
    {
      "midi": 63,
      "time": 21.763,
      "duration": 0.067,
      "velocity": 1,
      "hand": "right"
    },
    {
      "midi": 48,
      "time": 21.897,
      "duration": 0.067,
      "velocity": 1,
      "hand": "left"
    },
    {
      "midi": 60,
      "time": 21.897,
      "duration": 0.067,
      "velocity": 1,
      "hand": "right"
    },
    {
      "midi": 54,
      "time": 21.964,
      "duration": 0.067,
      "velocity": 1,
      "hand": "left"
    },
    {
      "midi": 66,
      "time": 21.964,
      "duration": 0.067,
      "velocity": 1,
      "hand": "right"
    },
    {
      "midi": 51,
      "time": 22.031,
      "duration": 0.067,
      "velocity": 1,
      "hand": "left"
    },
    {
      "midi": 63,
      "time": 22.031,
      "duration": 0.067,
      "velocity": 1,
      "hand": "right"
    },
    {
      "midi": 48,
      "time": 22.165,
      "duration": 0.067,
      "velocity": 1,
      "hand": "left"
    },
    {
      "midi": 60,
      "time": 22.165,
      "duration": 0.067,
      "velocity": 1,
      "hand": "right"
    },
    {
      "midi": 46,
      "time": 22.232,
      "duration": 0.067,
      "velocity": 1,
      "hand": "left"
    },
    {
      "midi": 58,
      "time": 22.232,
      "duration": 0.067,
      "velocity": 1,
      "hand": "left"
    },
    {
      "midi": 45,
      "time": 22.299,
      "duration": 0.067,
      "velocity": 1,
      "hand": "left"
    },
    {
      "midi": 57,
      "time": 22.299,
      "duration": 0.067,
      "velocity": 1,
      "hand": "left"
    },
    {
      "midi": 44,
      "time": 22.433,
      "duration": 0.067,
      "velocity": 1,
      "hand": "left"
    },
    {
      "midi": 56,
      "time": 22.433,
      "duration": 0.067,
      "velocity": 1,
      "hand": "left"
    },
    {
      "midi": 43,
      "time": 22.5,
      "duration": 0.067,
      "velocity": 1,
      "hand": "left"
    },
    {
      "midi": 55,
      "time": 22.5,
      "duration": 0.067,
      "velocity": 1,
      "hand": "left"
    },
    {
      "midi": 44,
      "time": 22.567,
      "duration": 0.067,
      "velocity": 1,
      "hand": "left"
    },
    {
      "midi": 56,
      "time": 22.567,
      "duration": 0.067,
      "velocity": 1,
      "hand": "left"
    },
    {
      "midi": 45,
      "time": 22.701,
      "duration": 0.067,
      "velocity": 1,
      "hand": "left"
    },
    {
      "midi": 57,
      "time": 22.701,
      "duration": 0.067,
      "velocity": 1,
      "hand": "left"
    },
    {
      "midi": 41,
      "time": 22.768,
      "duration": 0.067,
      "velocity": 1,
      "hand": "left"
    },
    {
      "midi": 53,
      "time": 22.768,
      "duration": 0.067,
      "velocity": 1,
      "hand": "left"
    },
    {
      "midi": 42,
      "time": 22.835,
      "duration": 0.067,
      "velocity": 1,
      "hand": "left"
    },
    {
      "midi": 54,
      "time": 22.835,
      "duration": 0.067,
      "velocity": 1,
      "hand": "left"
    },
    {
      "midi": 44,
      "time": 22.969,
      "duration": 0.067,
      "velocity": 1,
      "hand": "left"
    },
    {
      "midi": 56,
      "time": 22.969,
      "duration": 0.067,
      "velocity": 1,
      "hand": "left"
    },
    {
      "midi": 40,
      "time": 23.036,
      "duration": 0.067,
      "velocity": 1,
      "hand": "left"
    },
    {
      "midi": 52,
      "time": 23.036,
      "duration": 0.067,
      "velocity": 1,
      "hand": "left"
    },
    {
      "midi": 41,
      "time": 23.103,
      "duration": 0.067,
      "velocity": 1,
      "hand": "left"
    },
    {
      "midi": 53,
      "time": 23.103,
      "duration": 0.067,
      "velocity": 1,
      "hand": "left"
    },
    {
      "midi": 42,
      "time": 23.237,
      "duration": 0.067,
      "velocity": 1,
      "hand": "left"
    },
    {
      "midi": 54,
      "time": 23.237,
      "duration": 0.067,
      "velocity": 1,
      "hand": "left"
    },
    {
      "midi": 38,
      "time": 23.304,
      "duration": 0.067,
      "velocity": 1,
      "hand": "left"
    },
    {
      "midi": 50,
      "time": 23.304,
      "duration": 0.067,
      "velocity": 1,
      "hand": "left"
    },
    {
      "midi": 40,
      "time": 23.371,
      "duration": 0.067,
      "velocity": 1,
      "hand": "left"
    },
    {
      "midi": 52,
      "time": 23.371,
      "duration": 0.067,
      "velocity": 1,
      "hand": "left"
    },
    {
      "midi": 41,
      "time": 23.504,
      "duration": 0.067,
      "velocity": 1,
      "hand": "left"
    },
    {
      "midi": 53,
      "time": 23.504,
      "duration": 0.067,
      "velocity": 1,
      "hand": "left"
    },
    {
      "midi": 31,
      "time": 23.571,
      "duration": 0.067,
      "velocity": 1,
      "hand": "left"
    },
    {
      "midi": 43,
      "time": 23.571,
      "duration": 0.067,
      "velocity": 1,
      "hand": "left"
    },
    {
      "midi": 32,
      "time": 23.638,
      "duration": 0.067,
      "velocity": 1,
      "hand": "left"
    },
    {
      "midi": 44,
      "time": 23.638,
      "duration": 0.067,
      "velocity": 1,
      "hand": "left"
    },
    {
      "midi": 34,
      "time": 23.772,
      "duration": 0.067,
      "velocity": 1,
      "hand": "left"
    },
    {
      "midi": 46,
      "time": 23.772,
      "duration": 0.067,
      "velocity": 1,
      "hand": "left"
    },
    {
      "midi": 36,
      "time": 23.839,
      "duration": 0.067,
      "velocity": 1,
      "hand": "left"
    },
    {
      "midi": 48,
      "time": 23.839,
      "duration": 0.067,
      "velocity": 1,
      "hand": "left"
    },
    {
      "midi": 37,
      "time": 23.906,
      "duration": 0.067,
      "velocity": 1,
      "hand": "left"
    },
    {
      "midi": 49,
      "time": 23.906,
      "duration": 0.067,
      "velocity": 1,
      "hand": "left"
    },
    {
      "midi": 39,
      "time": 24.04,
      "duration": 0.067,
      "velocity": 1,
      "hand": "left"
    },
    {
      "midi": 51,
      "time": 24.04,
      "duration": 0.067,
      "velocity": 1,
      "hand": "left"
    },
    {
      "midi": 41,
      "time": 24.107,
      "duration": 0.067,
      "velocity": 1,
      "hand": "left"
    },
    {
      "midi": 53,
      "time": 24.107,
      "duration": 0.067,
      "velocity": 1,
      "hand": "left"
    },
    {
      "midi": 42,
      "time": 24.174,
      "duration": 0.067,
      "velocity": 1,
      "hand": "left"
    },
    {
      "midi": 54,
      "time": 24.174,
      "duration": 0.067,
      "velocity": 1,
      "hand": "left"
    },
    {
      "midi": 43,
      "time": 24.308,
      "duration": 0.067,
      "velocity": 1,
      "hand": "left"
    },
    {
      "midi": 55,
      "time": 24.308,
      "duration": 0.067,
      "velocity": 1,
      "hand": "left"
    },
    {
      "midi": 44,
      "time": 24.375,
      "duration": 0.067,
      "velocity": 1,
      "hand": "left"
    },
    {
      "midi": 56,
      "time": 24.375,
      "duration": 0.067,
      "velocity": 1,
      "hand": "left"
    },
    {
      "midi": 41,
      "time": 24.442,
      "duration": 0.067,
      "velocity": 1,
      "hand": "left"
    },
    {
      "midi": 53,
      "time": 24.442,
      "duration": 0.067,
      "velocity": 1,
      "hand": "left"
    },
    {
      "midi": 46,
      "time": 24.576,
      "duration": 0.067,
      "velocity": 1,
      "hand": "left"
    },
    {
      "midi": 58,
      "time": 24.576,
      "duration": 0.067,
      "velocity": 1,
      "hand": "left"
    },
    {
      "midi": 44,
      "time": 24.643,
      "duration": 0.067,
      "velocity": 1,
      "hand": "left"
    },
    {
      "midi": 56,
      "time": 24.643,
      "duration": 0.067,
      "velocity": 1,
      "hand": "left"
    },
    {
      "midi": 53,
      "time": 24.71,
      "duration": 0.067,
      "velocity": 1,
      "hand": "left"
    },
    {
      "midi": 65,
      "time": 24.71,
      "duration": 0.067,
      "velocity": 1,
      "hand": "right"
    },
    {
      "midi": 51,
      "time": 24.844,
      "duration": 0.067,
      "velocity": 1,
      "hand": "left"
    },
    {
      "midi": 63,
      "time": 24.844,
      "duration": 0.067,
      "velocity": 1,
      "hand": "right"
    },
    {
      "midi": 49,
      "time": 24.911,
      "duration": 0.067,
      "velocity": 1,
      "hand": "left"
    },
    {
      "midi": 61,
      "time": 24.911,
      "duration": 0.067,
      "velocity": 1,
      "hand": "right"
    },
    {
      "midi": 48,
      "time": 24.978,
      "duration": 0.067,
      "velocity": 1,
      "hand": "left"
    },
    {
      "midi": 60,
      "time": 24.978,
      "duration": 0.067,
      "velocity": 1,
      "hand": "right"
    },
    {
      "midi": 46,
      "time": 25.112,
      "duration": 0.067,
      "velocity": 1,
      "hand": "left"
    },
    {
      "midi": 58,
      "time": 25.112,
      "duration": 0.067,
      "velocity": 1,
      "hand": "left"
    },
    {
      "midi": 44,
      "time": 25.179,
      "duration": 0.067,
      "velocity": 1,
      "hand": "left"
    },
    {
      "midi": 56,
      "time": 25.179,
      "duration": 0.067,
      "velocity": 1,
      "hand": "left"
    },
    {
      "midi": 41,
      "time": 25.246,
      "duration": 0.067,
      "velocity": 1,
      "hand": "left"
    },
    {
      "midi": 53,
      "time": 25.246,
      "duration": 0.067,
      "velocity": 1,
      "hand": "left"
    },
    {
      "midi": 42,
      "time": 25.379,
      "duration": 0.067,
      "velocity": 1,
      "hand": "left"
    },
    {
      "midi": 54,
      "time": 25.379,
      "duration": 0.067,
      "velocity": 1,
      "hand": "left"
    },
    {
      "midi": 44,
      "time": 25.446,
      "duration": 0.067,
      "velocity": 1,
      "hand": "left"
    },
    {
      "midi": 56,
      "time": 25.446,
      "duration": 0.067,
      "velocity": 1,
      "hand": "left"
    },
    {
      "midi": 41,
      "time": 25.513,
      "duration": 0.067,
      "velocity": 1,
      "hand": "left"
    },
    {
      "midi": 53,
      "time": 25.513,
      "duration": 0.067,
      "velocity": 1,
      "hand": "left"
    },
    {
      "midi": 46,
      "time": 25.647,
      "duration": 0.067,
      "velocity": 1,
      "hand": "left"
    },
    {
      "midi": 58,
      "time": 25.647,
      "duration": 0.067,
      "velocity": 1,
      "hand": "left"
    },
    {
      "midi": 44,
      "time": 25.714,
      "duration": 0.067,
      "velocity": 1,
      "hand": "left"
    },
    {
      "midi": 56,
      "time": 25.714,
      "duration": 0.067,
      "velocity": 1,
      "hand": "left"
    },
    {
      "midi": 39,
      "time": 25.781,
      "duration": 0.067,
      "velocity": 1,
      "hand": "left"
    },
    {
      "midi": 51,
      "time": 25.781,
      "duration": 0.067,
      "velocity": 1,
      "hand": "left"
    },
    {
      "midi": 41,
      "time": 25.915,
      "duration": 0.067,
      "velocity": 1,
      "hand": "left"
    },
    {
      "midi": 53,
      "time": 25.915,
      "duration": 0.067,
      "velocity": 1,
      "hand": "left"
    },
    {
      "midi": 42,
      "time": 25.982,
      "duration": 0.067,
      "velocity": 1,
      "hand": "left"
    },
    {
      "midi": 54,
      "time": 25.982,
      "duration": 0.067,
      "velocity": 1,
      "hand": "left"
    },
    {
      "midi": 39,
      "time": 26.049,
      "duration": 0.067,
      "velocity": 1,
      "hand": "left"
    },
    {
      "midi": 51,
      "time": 26.049,
      "duration": 0.067,
      "velocity": 1,
      "hand": "left"
    },
    {
      "midi": 46,
      "time": 26.183,
      "duration": 0.067,
      "velocity": 1,
      "hand": "left"
    },
    {
      "midi": 58,
      "time": 26.183,
      "duration": 0.067,
      "velocity": 1,
      "hand": "left"
    },
    {
      "midi": 44,
      "time": 26.25,
      "duration": 0.067,
      "velocity": 1,
      "hand": "left"
    },
    {
      "midi": 56,
      "time": 26.25,
      "duration": 0.067,
      "velocity": 1,
      "hand": "left"
    },
    {
      "midi": 37,
      "time": 26.317,
      "duration": 0.067,
      "velocity": 1,
      "hand": "left"
    },
    {
      "midi": 49,
      "time": 26.317,
      "duration": 0.067,
      "velocity": 1,
      "hand": "left"
    },
    {
      "midi": 39,
      "time": 26.451,
      "duration": 0.067,
      "velocity": 1,
      "hand": "left"
    },
    {
      "midi": 51,
      "time": 26.451,
      "duration": 0.067,
      "velocity": 1,
      "hand": "left"
    },
    {
      "midi": 41,
      "time": 26.518,
      "duration": 0.067,
      "velocity": 1,
      "hand": "left"
    },
    {
      "midi": 53,
      "time": 26.518,
      "duration": 0.067,
      "velocity": 1,
      "hand": "left"
    },
    {
      "midi": 37,
      "time": 26.585,
      "duration": 0.067,
      "velocity": 1,
      "hand": "left"
    },
    {
      "midi": 49,
      "time": 26.585,
      "duration": 0.067,
      "velocity": 1,
      "hand": "left"
    },
    {
      "midi": 46,
      "time": 26.719,
      "duration": 0.067,
      "velocity": 1,
      "hand": "left"
    },
    {
      "midi": 58,
      "time": 26.719,
      "duration": 0.067,
      "velocity": 1,
      "hand": "left"
    },
    {
      "midi": 44,
      "time": 26.786,
      "duration": 0.067,
      "velocity": 1,
      "hand": "left"
    },
    {
      "midi": 56,
      "time": 26.786,
      "duration": 0.067,
      "velocity": 1,
      "hand": "left"
    },
    {
      "midi": 36,
      "time": 26.853,
      "duration": 0.067,
      "velocity": 1,
      "hand": "left"
    },
    {
      "midi": 48,
      "time": 26.853,
      "duration": 0.067,
      "velocity": 1,
      "hand": "left"
    },
    {
      "midi": 37,
      "time": 26.987,
      "duration": 0.067,
      "velocity": 1,
      "hand": "left"
    },
    {
      "midi": 49,
      "time": 26.987,
      "duration": 0.067,
      "velocity": 1,
      "hand": "left"
    },
    {
      "midi": 39,
      "time": 27.054,
      "duration": 0.067,
      "velocity": 1,
      "hand": "left"
    },
    {
      "midi": 51,
      "time": 27.054,
      "duration": 0.067,
      "velocity": 1,
      "hand": "left"
    },
    {
      "midi": 36,
      "time": 27.121,
      "duration": 0.067,
      "velocity": 1,
      "hand": "left"
    },
    {
      "midi": 48,
      "time": 27.121,
      "duration": 0.067,
      "velocity": 1,
      "hand": "left"
    },
    {
      "midi": 41,
      "time": 27.254,
      "duration": 0.067,
      "velocity": 1,
      "hand": "left"
    },
    {
      "midi": 53,
      "time": 27.254,
      "duration": 0.067,
      "velocity": 1,
      "hand": "left"
    },
    {
      "midi": 39,
      "time": 27.321,
      "duration": 0.067,
      "velocity": 1,
      "hand": "left"
    },
    {
      "midi": 51,
      "time": 27.321,
      "duration": 0.067,
      "velocity": 1,
      "hand": "left"
    },
    {
      "midi": 34,
      "time": 27.388,
      "duration": 0.067,
      "velocity": 1,
      "hand": "left"
    },
    {
      "midi": 46,
      "time": 27.388,
      "duration": 0.067,
      "velocity": 1,
      "hand": "left"
    },
    {
      "midi": 41,
      "time": 27.522,
      "duration": 0.067,
      "velocity": 1,
      "hand": "left"
    },
    {
      "midi": 53,
      "time": 27.522,
      "duration": 0.067,
      "velocity": 1,
      "hand": "left"
    },
    {
      "midi": 39,
      "time": 27.589,
      "duration": 0.067,
      "velocity": 1,
      "hand": "left"
    },
    {
      "midi": 51,
      "time": 27.589,
      "duration": 0.067,
      "velocity": 1,
      "hand": "left"
    },
    {
      "midi": 32,
      "time": 27.656,
      "duration": 0.067,
      "velocity": 1,
      "hand": "left"
    },
    {
      "midi": 44,
      "time": 27.656,
      "duration": 0.067,
      "velocity": 1,
      "hand": "left"
    },
    {
      "midi": 34,
      "time": 27.79,
      "duration": 0.067,
      "velocity": 1,
      "hand": "left"
    },
    {
      "midi": 46,
      "time": 27.79,
      "duration": 0.067,
      "velocity": 1,
      "hand": "left"
    },
    {
      "midi": 32,
      "time": 27.857,
      "duration": 0.067,
      "velocity": 1,
      "hand": "left"
    },
    {
      "midi": 44,
      "time": 27.857,
      "duration": 0.067,
      "velocity": 1,
      "hand": "left"
    },
    {
      "midi": 37,
      "time": 27.924,
      "duration": 0.067,
      "velocity": 1,
      "hand": "left"
    },
    {
      "midi": 49,
      "time": 27.924,
      "duration": 0.067,
      "velocity": 1,
      "hand": "left"
    },
    {
      "midi": 39,
      "time": 28.058,
      "duration": 0.067,
      "velocity": 1,
      "hand": "left"
    },
    {
      "midi": 51,
      "time": 28.058,
      "duration": 0.067,
      "velocity": 1,
      "hand": "left"
    },
    {
      "midi": 41,
      "time": 28.125,
      "duration": 0.067,
      "velocity": 1,
      "hand": "left"
    },
    {
      "midi": 53,
      "time": 28.125,
      "duration": 0.067,
      "velocity": 1,
      "hand": "left"
    },
    {
      "midi": 42,
      "time": 28.192,
      "duration": 0.067,
      "velocity": 1,
      "hand": "left"
    },
    {
      "midi": 54,
      "time": 28.192,
      "duration": 0.067,
      "velocity": 1,
      "hand": "left"
    },
    {
      "midi": 44,
      "time": 28.326,
      "duration": 0.067,
      "velocity": 1,
      "hand": "left"
    },
    {
      "midi": 56,
      "time": 28.326,
      "duration": 0.067,
      "velocity": 1,
      "hand": "left"
    },
    {
      "midi": 46,
      "time": 28.393,
      "duration": 0.067,
      "velocity": 1,
      "hand": "left"
    },
    {
      "midi": 58,
      "time": 28.393,
      "duration": 0.067,
      "velocity": 1,
      "hand": "left"
    },
    {
      "midi": 48,
      "time": 28.46,
      "duration": 0.067,
      "velocity": 1,
      "hand": "left"
    },
    {
      "midi": 60,
      "time": 28.46,
      "duration": 0.067,
      "velocity": 1,
      "hand": "right"
    },
    {
      "midi": 49,
      "time": 28.594,
      "duration": 0.067,
      "velocity": 1,
      "hand": "left"
    },
    {
      "midi": 61,
      "time": 28.594,
      "duration": 0.067,
      "velocity": 1,
      "hand": "right"
    },
    {
      "midi": 51,
      "time": 28.661,
      "duration": 0.067,
      "velocity": 1,
      "hand": "left"
    },
    {
      "midi": 63,
      "time": 28.661,
      "duration": 0.067,
      "velocity": 1,
      "hand": "right"
    },
    {
      "midi": 53,
      "time": 28.728,
      "duration": 0.067,
      "velocity": 1,
      "hand": "left"
    },
    {
      "midi": 65,
      "time": 28.728,
      "duration": 0.067,
      "velocity": 1,
      "hand": "right"
    },
    {
      "midi": 54,
      "time": 28.862,
      "duration": 0.067,
      "velocity": 1,
      "hand": "left"
    },
    {
      "midi": 66,
      "time": 28.862,
      "duration": 0.067,
      "velocity": 1,
      "hand": "right"
    },
    {
      "midi": 56,
      "time": 28.929,
      "duration": 0.067,
      "velocity": 1,
      "hand": "left"
    },
    {
      "midi": 68,
      "time": 28.929,
      "duration": 0.067,
      "velocity": 1,
      "hand": "right"
    },
    {
      "midi": 65,
      "time": 28.996,
      "duration": 0.067,
      "velocity": 1,
      "hand": "right"
    },
    {
      "midi": 77,
      "time": 28.996,
      "duration": 0.067,
      "velocity": 1,
      "hand": "right"
    },
    {
      "midi": 63,
      "time": 29.129,
      "duration": 0.067,
      "velocity": 1,
      "hand": "right"
    },
    {
      "midi": 75,
      "time": 29.129,
      "duration": 0.067,
      "velocity": 1,
      "hand": "right"
    },
    {
      "midi": 61,
      "time": 29.196,
      "duration": 0.067,
      "velocity": 1,
      "hand": "right"
    },
    {
      "midi": 73,
      "time": 29.196,
      "duration": 0.067,
      "velocity": 1,
      "hand": "right"
    },
    {
      "midi": 60,
      "time": 29.263,
      "duration": 0.067,
      "velocity": 1,
      "hand": "right"
    },
    {
      "midi": 72,
      "time": 29.263,
      "duration": 0.067,
      "velocity": 1,
      "hand": "right"
    },
    {
      "midi": 58,
      "time": 29.397,
      "duration": 0.067,
      "velocity": 1,
      "hand": "left"
    },
    {
      "midi": 70,
      "time": 29.397,
      "duration": 0.067,
      "velocity": 1,
      "hand": "right"
    },
    {
      "midi": 56,
      "time": 29.464,
      "duration": 0.067,
      "velocity": 1,
      "hand": "left"
    },
    {
      "midi": 68,
      "time": 29.464,
      "duration": 0.067,
      "velocity": 1,
      "hand": "right"
    },
    {
      "midi": 53,
      "time": 29.531,
      "duration": 0.067,
      "velocity": 1,
      "hand": "left"
    },
    {
      "midi": 65,
      "time": 29.531,
      "duration": 0.067,
      "velocity": 1,
      "hand": "right"
    },
    {
      "midi": 54,
      "time": 29.665,
      "duration": 0.067,
      "velocity": 1,
      "hand": "left"
    },
    {
      "midi": 66,
      "time": 29.665,
      "duration": 0.067,
      "velocity": 1,
      "hand": "right"
    },
    {
      "midi": 56,
      "time": 29.732,
      "duration": 0.067,
      "velocity": 1,
      "hand": "left"
    },
    {
      "midi": 68,
      "time": 29.732,
      "duration": 0.067,
      "velocity": 1,
      "hand": "right"
    },
    {
      "midi": 53,
      "time": 29.799,
      "duration": 0.067,
      "velocity": 1,
      "hand": "left"
    },
    {
      "midi": 65,
      "time": 29.799,
      "duration": 0.067,
      "velocity": 1,
      "hand": "right"
    },
    {
      "midi": 58,
      "time": 29.933,
      "duration": 0.067,
      "velocity": 1,
      "hand": "left"
    },
    {
      "midi": 70,
      "time": 29.933,
      "duration": 0.067,
      "velocity": 1,
      "hand": "right"
    },
    {
      "midi": 56,
      "time": 30,
      "duration": 0.067,
      "velocity": 1,
      "hand": "left"
    },
    {
      "midi": 68,
      "time": 30,
      "duration": 0.067,
      "velocity": 1,
      "hand": "right"
    },
    {
      "midi": 51,
      "time": 30.067,
      "duration": 0.067,
      "velocity": 1,
      "hand": "left"
    },
    {
      "midi": 63,
      "time": 30.067,
      "duration": 0.067,
      "velocity": 1,
      "hand": "right"
    },
    {
      "midi": 53,
      "time": 30.201,
      "duration": 0.067,
      "velocity": 1,
      "hand": "left"
    },
    {
      "midi": 65,
      "time": 30.201,
      "duration": 0.067,
      "velocity": 1,
      "hand": "right"
    },
    {
      "midi": 54,
      "time": 30.268,
      "duration": 0.067,
      "velocity": 1,
      "hand": "left"
    },
    {
      "midi": 66,
      "time": 30.268,
      "duration": 0.067,
      "velocity": 1,
      "hand": "right"
    },
    {
      "midi": 51,
      "time": 30.335,
      "duration": 0.067,
      "velocity": 1,
      "hand": "left"
    },
    {
      "midi": 63,
      "time": 30.335,
      "duration": 0.067,
      "velocity": 1,
      "hand": "right"
    },
    {
      "midi": 58,
      "time": 30.469,
      "duration": 0.067,
      "velocity": 1,
      "hand": "left"
    },
    {
      "midi": 70,
      "time": 30.469,
      "duration": 0.067,
      "velocity": 1,
      "hand": "right"
    },
    {
      "midi": 56,
      "time": 30.536,
      "duration": 0.067,
      "velocity": 1,
      "hand": "left"
    },
    {
      "midi": 68,
      "time": 30.536,
      "duration": 0.067,
      "velocity": 1,
      "hand": "right"
    },
    {
      "midi": 49,
      "time": 30.603,
      "duration": 0.067,
      "velocity": 1,
      "hand": "left"
    },
    {
      "midi": 61,
      "time": 30.603,
      "duration": 0.067,
      "velocity": 1,
      "hand": "right"
    },
    {
      "midi": 51,
      "time": 30.737,
      "duration": 0.067,
      "velocity": 1,
      "hand": "left"
    },
    {
      "midi": 63,
      "time": 30.737,
      "duration": 0.067,
      "velocity": 1,
      "hand": "right"
    },
    {
      "midi": 53,
      "time": 30.804,
      "duration": 0.067,
      "velocity": 1,
      "hand": "left"
    },
    {
      "midi": 65,
      "time": 30.804,
      "duration": 0.067,
      "velocity": 1,
      "hand": "right"
    },
    {
      "midi": 49,
      "time": 30.871,
      "duration": 0.067,
      "velocity": 1,
      "hand": "left"
    },
    {
      "midi": 61,
      "time": 30.871,
      "duration": 0.067,
      "velocity": 1,
      "hand": "right"
    },
    {
      "midi": 58,
      "time": 31.004,
      "duration": 0.067,
      "velocity": 1,
      "hand": "left"
    },
    {
      "midi": 70,
      "time": 31.004,
      "duration": 0.067,
      "velocity": 1,
      "hand": "right"
    },
    {
      "midi": 56,
      "time": 31.071,
      "duration": 0.067,
      "velocity": 1,
      "hand": "left"
    },
    {
      "midi": 68,
      "time": 31.071,
      "duration": 0.067,
      "velocity": 1,
      "hand": "right"
    },
    {
      "midi": 48,
      "time": 31.138,
      "duration": 0.067,
      "velocity": 1,
      "hand": "left"
    },
    {
      "midi": 60,
      "time": 31.138,
      "duration": 0.067,
      "velocity": 1,
      "hand": "right"
    },
    {
      "midi": 49,
      "time": 31.272,
      "duration": 0.067,
      "velocity": 1,
      "hand": "left"
    },
    {
      "midi": 61,
      "time": 31.272,
      "duration": 0.067,
      "velocity": 1,
      "hand": "right"
    },
    {
      "midi": 51,
      "time": 31.339,
      "duration": 0.067,
      "velocity": 1,
      "hand": "left"
    },
    {
      "midi": 63,
      "time": 31.339,
      "duration": 0.067,
      "velocity": 1,
      "hand": "right"
    },
    {
      "midi": 48,
      "time": 31.406,
      "duration": 0.067,
      "velocity": 1,
      "hand": "left"
    },
    {
      "midi": 60,
      "time": 31.406,
      "duration": 0.067,
      "velocity": 1,
      "hand": "right"
    },
    {
      "midi": 53,
      "time": 31.54,
      "duration": 0.067,
      "velocity": 1,
      "hand": "left"
    },
    {
      "midi": 65,
      "time": 31.54,
      "duration": 0.067,
      "velocity": 1,
      "hand": "right"
    },
    {
      "midi": 51,
      "time": 31.607,
      "duration": 0.067,
      "velocity": 1,
      "hand": "left"
    },
    {
      "midi": 63,
      "time": 31.607,
      "duration": 0.067,
      "velocity": 1,
      "hand": "right"
    },
    {
      "midi": 46,
      "time": 31.674,
      "duration": 0.067,
      "velocity": 1,
      "hand": "left"
    },
    {
      "midi": 58,
      "time": 31.674,
      "duration": 0.067,
      "velocity": 1,
      "hand": "left"
    },
    {
      "midi": 53,
      "time": 31.808,
      "duration": 0.067,
      "velocity": 1,
      "hand": "left"
    },
    {
      "midi": 65,
      "time": 31.808,
      "duration": 0.067,
      "velocity": 1,
      "hand": "right"
    },
    {
      "midi": 51,
      "time": 31.875,
      "duration": 0.067,
      "velocity": 1,
      "hand": "left"
    },
    {
      "midi": 63,
      "time": 31.875,
      "duration": 0.067,
      "velocity": 1,
      "hand": "right"
    },
    {
      "midi": 44,
      "time": 31.942,
      "duration": 0.067,
      "velocity": 1,
      "hand": "left"
    },
    {
      "midi": 56,
      "time": 31.942,
      "duration": 0.067,
      "velocity": 1,
      "hand": "left"
    },
    {
      "midi": 53,
      "time": 32.076,
      "duration": 0.067,
      "velocity": 1,
      "hand": "left"
    },
    {
      "midi": 65,
      "time": 32.076,
      "duration": 0.067,
      "velocity": 1,
      "hand": "right"
    },
    {
      "midi": 54,
      "time": 32.143,
      "duration": 0.067,
      "velocity": 1,
      "hand": "left"
    },
    {
      "midi": 66,
      "time": 32.143,
      "duration": 0.067,
      "velocity": 1,
      "hand": "right"
    },
    {
      "midi": 53,
      "time": 32.21,
      "duration": 0.067,
      "velocity": 1,
      "hand": "left"
    },
    {
      "midi": 65,
      "time": 32.21,
      "duration": 0.067,
      "velocity": 1,
      "hand": "right"
    },
    {
      "midi": 51,
      "time": 32.344,
      "duration": 0.067,
      "velocity": 1,
      "hand": "left"
    },
    {
      "midi": 63,
      "time": 32.344,
      "duration": 0.067,
      "velocity": 1,
      "hand": "right"
    },
    {
      "midi": 49,
      "time": 32.411,
      "duration": 0.067,
      "velocity": 1,
      "hand": "left"
    },
    {
      "midi": 61,
      "time": 32.411,
      "duration": 0.067,
      "velocity": 1,
      "hand": "right"
    },
    {
      "midi": 48,
      "time": 32.478,
      "duration": 0.067,
      "velocity": 1,
      "hand": "left"
    },
    {
      "midi": 60,
      "time": 32.478,
      "duration": 0.067,
      "velocity": 1,
      "hand": "right"
    },
    {
      "midi": 46,
      "time": 32.612,
      "duration": 0.067,
      "velocity": 1,
      "hand": "left"
    },
    {
      "midi": 58,
      "time": 32.612,
      "duration": 0.067,
      "velocity": 1,
      "hand": "left"
    },
    {
      "midi": 45,
      "time": 32.679,
      "duration": 0.067,
      "velocity": 1,
      "hand": "left"
    },
    {
      "midi": 57,
      "time": 32.679,
      "duration": 0.067,
      "velocity": 1,
      "hand": "left"
    },
    {
      "midi": 53,
      "time": 32.746,
      "duration": 0.067,
      "velocity": 1,
      "hand": "left"
    },
    {
      "midi": 65,
      "time": 32.746,
      "duration": 0.067,
      "velocity": 1,
      "hand": "right"
    },
    {
      "midi": 48,
      "time": 32.879,
      "duration": 0.067,
      "velocity": 1,
      "hand": "left"
    },
    {
      "midi": 60,
      "time": 32.879,
      "duration": 0.067,
      "velocity": 1,
      "hand": "right"
    },
    {
      "midi": 51,
      "time": 32.946,
      "duration": 0.067,
      "velocity": 1,
      "hand": "left"
    },
    {
      "midi": 63,
      "time": 32.946,
      "duration": 0.067,
      "velocity": 1,
      "hand": "right"
    },
    {
      "midi": 49,
      "time": 33.013,
      "duration": 0.067,
      "velocity": 1,
      "hand": "left"
    },
    {
      "midi": 61,
      "time": 33.013,
      "duration": 0.067,
      "velocity": 1,
      "hand": "right"
    },
    {
      "midi": 46,
      "time": 33.147,
      "duration": 0.067,
      "velocity": 1,
      "hand": "left"
    },
    {
      "midi": 58,
      "time": 33.147,
      "duration": 0.067,
      "velocity": 1,
      "hand": "left"
    },
    {
      "midi": 45,
      "time": 33.214,
      "duration": 0.067,
      "velocity": 1,
      "hand": "left"
    },
    {
      "midi": 57,
      "time": 33.214,
      "duration": 0.067,
      "velocity": 1,
      "hand": "left"
    },
    {
      "midi": 53,
      "time": 33.281,
      "duration": 0.067,
      "velocity": 1,
      "hand": "left"
    },
    {
      "midi": 65,
      "time": 33.281,
      "duration": 0.067,
      "velocity": 1,
      "hand": "right"
    },
    {
      "midi": 48,
      "time": 33.415,
      "duration": 0.067,
      "velocity": 1,
      "hand": "left"
    },
    {
      "midi": 60,
      "time": 33.415,
      "duration": 0.067,
      "velocity": 1,
      "hand": "right"
    },
    {
      "midi": 51,
      "time": 33.482,
      "duration": 0.067,
      "velocity": 1,
      "hand": "left"
    },
    {
      "midi": 63,
      "time": 33.482,
      "duration": 0.067,
      "velocity": 1,
      "hand": "right"
    },
    {
      "midi": 49,
      "time": 33.549,
      "duration": 0.067,
      "velocity": 1,
      "hand": "left"
    },
    {
      "midi": 61,
      "time": 33.549,
      "duration": 0.067,
      "velocity": 1,
      "hand": "right"
    },
    {
      "midi": 46,
      "time": 33.683,
      "duration": 0.067,
      "velocity": 1,
      "hand": "left"
    },
    {
      "midi": 58,
      "time": 33.683,
      "duration": 0.067,
      "velocity": 1,
      "hand": "left"
    },
    {
      "midi": 45,
      "time": 33.75,
      "duration": 0.067,
      "velocity": 1,
      "hand": "left"
    },
    {
      "midi": 57,
      "time": 33.75,
      "duration": 0.067,
      "velocity": 1,
      "hand": "left"
    },
    {
      "midi": 53,
      "time": 33.817,
      "duration": 0.067,
      "velocity": 1,
      "hand": "left"
    },
    {
      "midi": 65,
      "time": 33.817,
      "duration": 0.067,
      "velocity": 1,
      "hand": "right"
    },
    {
      "midi": 48,
      "time": 33.951,
      "duration": 0.067,
      "velocity": 1,
      "hand": "left"
    },
    {
      "midi": 60,
      "time": 33.951,
      "duration": 0.067,
      "velocity": 1,
      "hand": "right"
    },
    {
      "midi": 51,
      "time": 34.018,
      "duration": 0.067,
      "velocity": 1,
      "hand": "left"
    },
    {
      "midi": 63,
      "time": 34.018,
      "duration": 0.067,
      "velocity": 1,
      "hand": "right"
    },
    {
      "midi": 49,
      "time": 34.085,
      "duration": 0.067,
      "velocity": 1,
      "hand": "left"
    },
    {
      "midi": 61,
      "time": 34.085,
      "duration": 0.067,
      "velocity": 1,
      "hand": "right"
    },
    {
      "midi": 46,
      "time": 34.219,
      "duration": 0.067,
      "velocity": 1,
      "hand": "left"
    },
    {
      "midi": 58,
      "time": 34.219,
      "duration": 0.067,
      "velocity": 1,
      "hand": "left"
    },
    {
      "midi": 56,
      "time": 34.286,
      "duration": 0.067,
      "velocity": 1,
      "hand": "left"
    },
    {
      "midi": 68,
      "time": 34.286,
      "duration": 0.067,
      "velocity": 1,
      "hand": "right"
    },
    {
      "midi": 55,
      "time": 34.353,
      "duration": 0.067,
      "velocity": 1,
      "hand": "left"
    },
    {
      "midi": 67,
      "time": 34.353,
      "duration": 0.067,
      "velocity": 1,
      "hand": "right"
    },
    {
      "midi": 53,
      "time": 34.487,
      "duration": 0.067,
      "velocity": 1,
      "hand": "left"
    },
    {
      "midi": 65,
      "time": 34.487,
      "duration": 0.067,
      "velocity": 1,
      "hand": "right"
    },
    {
      "midi": 51,
      "time": 34.554,
      "duration": 0.067,
      "velocity": 1,
      "hand": "left"
    },
    {
      "midi": 63,
      "time": 34.554,
      "duration": 0.067,
      "velocity": 1,
      "hand": "right"
    },
    {
      "midi": 50,
      "time": 34.621,
      "duration": 0.067,
      "velocity": 1,
      "hand": "left"
    },
    {
      "midi": 62,
      "time": 34.621,
      "duration": 0.067,
      "velocity": 1,
      "hand": "right"
    },
    {
      "midi": 48,
      "time": 34.754,
      "duration": 0.067,
      "velocity": 1,
      "hand": "left"
    },
    {
      "midi": 60,
      "time": 34.754,
      "duration": 0.067,
      "velocity": 1,
      "hand": "right"
    },
    {
      "midi": 47,
      "time": 34.821,
      "duration": 0.067,
      "velocity": 1,
      "hand": "left"
    },
    {
      "midi": 59,
      "time": 34.821,
      "duration": 0.067,
      "velocity": 1,
      "hand": "left"
    },
    {
      "midi": 55,
      "time": 34.888,
      "duration": 0.067,
      "velocity": 1,
      "hand": "left"
    },
    {
      "midi": 67,
      "time": 34.888,
      "duration": 0.067,
      "velocity": 1,
      "hand": "right"
    },
    {
      "midi": 50,
      "time": 35.022,
      "duration": 0.067,
      "velocity": 1,
      "hand": "left"
    },
    {
      "midi": 62,
      "time": 35.022,
      "duration": 0.067,
      "velocity": 1,
      "hand": "right"
    },
    {
      "midi": 53,
      "time": 35.089,
      "duration": 0.067,
      "velocity": 1,
      "hand": "left"
    },
    {
      "midi": 65,
      "time": 35.089,
      "duration": 0.067,
      "velocity": 1,
      "hand": "right"
    },
    {
      "midi": 51,
      "time": 35.156,
      "duration": 0.067,
      "velocity": 1,
      "hand": "left"
    },
    {
      "midi": 63,
      "time": 35.156,
      "duration": 0.067,
      "velocity": 1,
      "hand": "right"
    },
    {
      "midi": 48,
      "time": 35.29,
      "duration": 0.067,
      "velocity": 1,
      "hand": "left"
    },
    {
      "midi": 60,
      "time": 35.29,
      "duration": 0.067,
      "velocity": 1,
      "hand": "right"
    },
    {
      "midi": 47,
      "time": 35.357,
      "duration": 0.067,
      "velocity": 1,
      "hand": "left"
    },
    {
      "midi": 59,
      "time": 35.357,
      "duration": 0.067,
      "velocity": 1,
      "hand": "left"
    },
    {
      "midi": 55,
      "time": 35.424,
      "duration": 0.067,
      "velocity": 1,
      "hand": "left"
    },
    {
      "midi": 67,
      "time": 35.424,
      "duration": 0.067,
      "velocity": 1,
      "hand": "right"
    },
    {
      "midi": 50,
      "time": 35.558,
      "duration": 0.067,
      "velocity": 1,
      "hand": "left"
    },
    {
      "midi": 62,
      "time": 35.558,
      "duration": 0.067,
      "velocity": 1,
      "hand": "right"
    },
    {
      "midi": 53,
      "time": 35.625,
      "duration": 0.067,
      "velocity": 1,
      "hand": "left"
    },
    {
      "midi": 65,
      "time": 35.625,
      "duration": 0.067,
      "velocity": 1,
      "hand": "right"
    },
    {
      "midi": 51,
      "time": 35.692,
      "duration": 0.067,
      "velocity": 1,
      "hand": "left"
    },
    {
      "midi": 63,
      "time": 35.692,
      "duration": 0.067,
      "velocity": 1,
      "hand": "right"
    },
    {
      "midi": 48,
      "time": 35.826,
      "duration": 0.067,
      "velocity": 1,
      "hand": "left"
    },
    {
      "midi": 60,
      "time": 35.826,
      "duration": 0.067,
      "velocity": 1,
      "hand": "right"
    },
    {
      "midi": 47,
      "time": 35.893,
      "duration": 0.067,
      "velocity": 1,
      "hand": "left"
    },
    {
      "midi": 59,
      "time": 35.893,
      "duration": 0.067,
      "velocity": 1,
      "hand": "left"
    },
    {
      "midi": 55,
      "time": 35.96,
      "duration": 0.067,
      "velocity": 1,
      "hand": "left"
    },
    {
      "midi": 67,
      "time": 35.96,
      "duration": 0.067,
      "velocity": 1,
      "hand": "right"
    },
    {
      "midi": 50,
      "time": 36.094,
      "duration": 0.067,
      "velocity": 1,
      "hand": "left"
    },
    {
      "midi": 62,
      "time": 36.094,
      "duration": 0.067,
      "velocity": 1,
      "hand": "right"
    },
    {
      "midi": 53,
      "time": 36.161,
      "duration": 0.067,
      "velocity": 1,
      "hand": "left"
    },
    {
      "midi": 65,
      "time": 36.161,
      "duration": 0.067,
      "velocity": 1,
      "hand": "right"
    },
    {
      "midi": 51,
      "time": 36.228,
      "duration": 0.067,
      "velocity": 1,
      "hand": "left"
    },
    {
      "midi": 63,
      "time": 36.228,
      "duration": 0.067,
      "velocity": 1,
      "hand": "right"
    },
    {
      "midi": 48,
      "time": 36.362,
      "duration": 0.067,
      "velocity": 1,
      "hand": "left"
    },
    {
      "midi": 60,
      "time": 36.362,
      "duration": 0.067,
      "velocity": 1,
      "hand": "right"
    },
    {
      "midi": 61,
      "time": 36.429,
      "duration": 0.067,
      "velocity": 1,
      "hand": "right"
    },
    {
      "midi": 73,
      "time": 36.429,
      "duration": 0.067,
      "velocity": 1,
      "hand": "right"
    },
    {
      "midi": 60,
      "time": 36.496,
      "duration": 0.067,
      "velocity": 1,
      "hand": "right"
    },
    {
      "midi": 72,
      "time": 36.496,
      "duration": 0.067,
      "velocity": 1,
      "hand": "right"
    },
    {
      "midi": 58,
      "time": 36.629,
      "duration": 0.067,
      "velocity": 1,
      "hand": "left"
    },
    {
      "midi": 70,
      "time": 36.629,
      "duration": 0.067,
      "velocity": 1,
      "hand": "right"
    },
    {
      "midi": 56,
      "time": 36.696,
      "duration": 0.067,
      "velocity": 1,
      "hand": "left"
    },
    {
      "midi": 68,
      "time": 36.696,
      "duration": 0.067,
      "velocity": 1,
      "hand": "right"
    },
    {
      "midi": 55,
      "time": 36.763,
      "duration": 0.067,
      "velocity": 1,
      "hand": "left"
    },
    {
      "midi": 67,
      "time": 36.763,
      "duration": 0.067,
      "velocity": 1,
      "hand": "right"
    },
    {
      "midi": 53,
      "time": 36.897,
      "duration": 0.067,
      "velocity": 1,
      "hand": "left"
    },
    {
      "midi": 65,
      "time": 36.897,
      "duration": 0.067,
      "velocity": 1,
      "hand": "right"
    },
    {
      "midi": 58,
      "time": 36.964,
      "duration": 0.067,
      "velocity": 1,
      "hand": "left"
    },
    {
      "midi": 70,
      "time": 36.964,
      "duration": 0.067,
      "velocity": 1,
      "hand": "right"
    },
    {
      "midi": 52,
      "time": 37.031,
      "duration": 0.067,
      "velocity": 1,
      "hand": "left"
    },
    {
      "midi": 64,
      "time": 37.031,
      "duration": 0.067,
      "velocity": 1,
      "hand": "right"
    },
    {
      "midi": 55,
      "time": 37.165,
      "duration": 0.067,
      "velocity": 1,
      "hand": "left"
    },
    {
      "midi": 67,
      "time": 37.165,
      "duration": 0.067,
      "velocity": 1,
      "hand": "right"
    },
    {
      "midi": 49,
      "time": 37.232,
      "duration": 0.067,
      "velocity": 1,
      "hand": "left"
    },
    {
      "midi": 61,
      "time": 37.232,
      "duration": 0.067,
      "velocity": 1,
      "hand": "right"
    },
    {
      "midi": 52,
      "time": 37.299,
      "duration": 0.067,
      "velocity": 1,
      "hand": "left"
    },
    {
      "midi": 64,
      "time": 37.299,
      "duration": 0.067,
      "velocity": 1,
      "hand": "right"
    },
    {
      "midi": 48,
      "time": 37.433,
      "duration": 0.067,
      "velocity": 1,
      "hand": "left"
    },
    {
      "midi": 60,
      "time": 37.433,
      "duration": 0.067,
      "velocity": 1,
      "hand": "right"
    },
    {
      "midi": 61,
      "time": 37.5,
      "duration": 0.067,
      "velocity": 1,
      "hand": "right"
    },
    {
      "midi": 73,
      "time": 37.5,
      "duration": 0.067,
      "velocity": 1,
      "hand": "right"
    },
    {
      "midi": 60,
      "time": 37.567,
      "duration": 0.067,
      "velocity": 1,
      "hand": "right"
    },
    {
      "midi": 72,
      "time": 37.567,
      "duration": 0.067,
      "velocity": 1,
      "hand": "right"
    },
    {
      "midi": 58,
      "time": 37.701,
      "duration": 0.067,
      "velocity": 1,
      "hand": "left"
    },
    {
      "midi": 70,
      "time": 37.701,
      "duration": 0.067,
      "velocity": 1,
      "hand": "right"
    },
    {
      "midi": 56,
      "time": 37.768,
      "duration": 0.067,
      "velocity": 1,
      "hand": "left"
    },
    {
      "midi": 68,
      "time": 37.768,
      "duration": 0.067,
      "velocity": 1,
      "hand": "right"
    },
    {
      "midi": 55,
      "time": 37.835,
      "duration": 0.067,
      "velocity": 1,
      "hand": "left"
    },
    {
      "midi": 67,
      "time": 37.835,
      "duration": 0.067,
      "velocity": 1,
      "hand": "right"
    },
    {
      "midi": 53,
      "time": 37.969,
      "duration": 0.067,
      "velocity": 1,
      "hand": "left"
    },
    {
      "midi": 65,
      "time": 37.969,
      "duration": 0.067,
      "velocity": 1,
      "hand": "right"
    },
    {
      "midi": 58,
      "time": 38.036,
      "duration": 0.067,
      "velocity": 1,
      "hand": "left"
    },
    {
      "midi": 70,
      "time": 38.036,
      "duration": 0.067,
      "velocity": 1,
      "hand": "right"
    },
    {
      "midi": 52,
      "time": 38.103,
      "duration": 0.067,
      "velocity": 1,
      "hand": "left"
    },
    {
      "midi": 64,
      "time": 38.103,
      "duration": 0.067,
      "velocity": 1,
      "hand": "right"
    },
    {
      "midi": 55,
      "time": 38.237,
      "duration": 0.067,
      "velocity": 1,
      "hand": "left"
    },
    {
      "midi": 67,
      "time": 38.237,
      "duration": 0.067,
      "velocity": 1,
      "hand": "right"
    },
    {
      "midi": 49,
      "time": 38.304,
      "duration": 0.067,
      "velocity": 1,
      "hand": "left"
    },
    {
      "midi": 61,
      "time": 38.304,
      "duration": 0.067,
      "velocity": 1,
      "hand": "right"
    },
    {
      "midi": 52,
      "time": 38.371,
      "duration": 0.067,
      "velocity": 1,
      "hand": "left"
    },
    {
      "midi": 64,
      "time": 38.371,
      "duration": 0.067,
      "velocity": 1,
      "hand": "right"
    },
    {
      "midi": 48,
      "time": 38.504,
      "duration": 0.067,
      "velocity": 1,
      "hand": "left"
    },
    {
      "midi": 60,
      "time": 38.504,
      "duration": 0.067,
      "velocity": 1,
      "hand": "right"
    },
    {
      "midi": 58,
      "time": 38.571,
      "duration": 0.067,
      "velocity": 1,
      "hand": "left"
    },
    {
      "midi": 70,
      "time": 38.571,
      "duration": 0.067,
      "velocity": 1,
      "hand": "right"
    },
    {
      "midi": 52,
      "time": 38.638,
      "duration": 0.067,
      "velocity": 1,
      "hand": "left"
    },
    {
      "midi": 64,
      "time": 38.638,
      "duration": 0.067,
      "velocity": 1,
      "hand": "right"
    },
    {
      "midi": 55,
      "time": 38.772,
      "duration": 0.067,
      "velocity": 1,
      "hand": "left"
    },
    {
      "midi": 67,
      "time": 38.772,
      "duration": 0.067,
      "velocity": 1,
      "hand": "right"
    },
    {
      "midi": 49,
      "time": 38.839,
      "duration": 0.067,
      "velocity": 1,
      "hand": "left"
    },
    {
      "midi": 61,
      "time": 38.839,
      "duration": 0.067,
      "velocity": 1,
      "hand": "right"
    },
    {
      "midi": 52,
      "time": 38.906,
      "duration": 0.067,
      "velocity": 1,
      "hand": "left"
    },
    {
      "midi": 64,
      "time": 38.906,
      "duration": 0.067,
      "velocity": 1,
      "hand": "right"
    },
    {
      "midi": 48,
      "time": 39.04,
      "duration": 0.067,
      "velocity": 1,
      "hand": "left"
    },
    {
      "midi": 60,
      "time": 39.04,
      "duration": 0.067,
      "velocity": 1,
      "hand": "right"
    },
    {
      "midi": 55,
      "time": 39.107,
      "duration": 0.067,
      "velocity": 1,
      "hand": "left"
    },
    {
      "midi": 67,
      "time": 39.107,
      "duration": 0.067,
      "velocity": 1,
      "hand": "right"
    },
    {
      "midi": 49,
      "time": 39.174,
      "duration": 0.067,
      "velocity": 1,
      "hand": "left"
    },
    {
      "midi": 61,
      "time": 39.174,
      "duration": 0.067,
      "velocity": 1,
      "hand": "right"
    },
    {
      "midi": 52,
      "time": 39.308,
      "duration": 0.067,
      "velocity": 1,
      "hand": "left"
    },
    {
      "midi": 64,
      "time": 39.308,
      "duration": 0.067,
      "velocity": 1,
      "hand": "right"
    },
    {
      "midi": 48,
      "time": 39.375,
      "duration": 0.067,
      "velocity": 1,
      "hand": "left"
    },
    {
      "midi": 60,
      "time": 39.375,
      "duration": 0.067,
      "velocity": 1,
      "hand": "right"
    },
    {
      "midi": 52,
      "time": 39.442,
      "duration": 0.067,
      "velocity": 1,
      "hand": "left"
    },
    {
      "midi": 64,
      "time": 39.442,
      "duration": 0.067,
      "velocity": 1,
      "hand": "right"
    },
    {
      "midi": 46,
      "time": 39.576,
      "duration": 0.067,
      "velocity": 1,
      "hand": "left"
    },
    {
      "midi": 58,
      "time": 39.576,
      "duration": 0.067,
      "velocity": 1,
      "hand": "left"
    },
    {
      "midi": 52,
      "time": 39.643,
      "duration": 0.067,
      "velocity": 1,
      "hand": "left"
    },
    {
      "midi": 64,
      "time": 39.643,
      "duration": 0.067,
      "velocity": 1,
      "hand": "right"
    },
    {
      "midi": 46,
      "time": 39.71,
      "duration": 0.067,
      "velocity": 1,
      "hand": "left"
    },
    {
      "midi": 58,
      "time": 39.71,
      "duration": 0.067,
      "velocity": 1,
      "hand": "left"
    },
    {
      "midi": 49,
      "time": 39.844,
      "duration": 0.067,
      "velocity": 1,
      "hand": "left"
    },
    {
      "midi": 61,
      "time": 39.844,
      "duration": 0.067,
      "velocity": 1,
      "hand": "right"
    },
    {
      "midi": 45,
      "time": 39.911,
      "duration": 0.067,
      "velocity": 1,
      "hand": "left"
    },
    {
      "midi": 57,
      "time": 39.911,
      "duration": 0.067,
      "velocity": 1,
      "hand": "left"
    },
    {
      "midi": 46,
      "time": 39.978,
      "duration": 0.067,
      "velocity": 1,
      "hand": "left"
    },
    {
      "midi": 58,
      "time": 39.978,
      "duration": 0.067,
      "velocity": 1,
      "hand": "left"
    },
    {
      "midi": 44,
      "time": 40.112,
      "duration": 0.067,
      "velocity": 1,
      "hand": "left"
    },
    {
      "midi": 56,
      "time": 40.112,
      "duration": 0.067,
      "velocity": 1,
      "hand": "left"
    },
    {
      "midi": 49,
      "time": 40.179,
      "duration": 0.067,
      "velocity": 1,
      "hand": "left"
    },
    {
      "midi": 61,
      "time": 40.179,
      "duration": 0.067,
      "velocity": 1,
      "hand": "right"
    },
    {
      "midi": 44,
      "time": 40.246,
      "duration": 0.067,
      "velocity": 1,
      "hand": "left"
    },
    {
      "midi": 56,
      "time": 40.246,
      "duration": 0.067,
      "velocity": 1,
      "hand": "left"
    },
    {
      "midi": 46,
      "time": 40.379,
      "duration": 0.067,
      "velocity": 1,
      "hand": "left"
    },
    {
      "midi": 58,
      "time": 40.379,
      "duration": 0.067,
      "velocity": 1,
      "hand": "left"
    },
    {
      "midi": 43,
      "time": 40.446,
      "duration": 0.067,
      "velocity": 1,
      "hand": "left"
    },
    {
      "midi": 55,
      "time": 40.446,
      "duration": 0.067,
      "velocity": 1,
      "hand": "left"
    },
    {
      "midi": 46,
      "time": 40.513,
      "duration": 0.067,
      "velocity": 1,
      "hand": "left"
    },
    {
      "midi": 58,
      "time": 40.513,
      "duration": 0.067,
      "velocity": 1,
      "hand": "left"
    },
    {
      "midi": 42,
      "time": 40.647,
      "duration": 0.067,
      "velocity": 1,
      "hand": "left"
    },
    {
      "midi": 54,
      "time": 40.647,
      "duration": 0.067,
      "velocity": 1,
      "hand": "left"
    },
    {
      "midi": 41,
      "time": 40.714,
      "duration": 0.067,
      "velocity": 1,
      "hand": "left"
    },
    {
      "midi": 53,
      "time": 40.714,
      "duration": 0.067,
      "velocity": 1,
      "hand": "left"
    },
    {
      "midi": 43,
      "time": 40.781,
      "duration": 0.067,
      "velocity": 1,
      "hand": "left"
    },
    {
      "midi": 55,
      "time": 40.781,
      "duration": 0.067,
      "velocity": 1,
      "hand": "left"
    },
    {
      "midi": 46,
      "time": 40.915,
      "duration": 0.067,
      "velocity": 1,
      "hand": "left"
    },
    {
      "midi": 58,
      "time": 40.915,
      "duration": 0.067,
      "velocity": 1,
      "hand": "left"
    },
    {
      "midi": 49,
      "time": 40.982,
      "duration": 0.067,
      "velocity": 1,
      "hand": "left"
    },
    {
      "midi": 61,
      "time": 40.982,
      "duration": 0.067,
      "velocity": 1,
      "hand": "right"
    },
    {
      "midi": 40,
      "time": 41.049,
      "duration": 0.067,
      "velocity": 1,
      "hand": "left"
    },
    {
      "midi": 52,
      "time": 41.049,
      "duration": 0.067,
      "velocity": 1,
      "hand": "left"
    },
    {
      "midi": 43,
      "time": 41.183,
      "duration": 0.067,
      "velocity": 1,
      "hand": "left"
    },
    {
      "midi": 55,
      "time": 41.183,
      "duration": 0.067,
      "velocity": 1,
      "hand": "left"
    },
    {
      "midi": 41,
      "time": 41.25,
      "duration": 0.067,
      "velocity": 1,
      "hand": "left"
    },
    {
      "midi": 53,
      "time": 41.25,
      "duration": 0.067,
      "velocity": 1,
      "hand": "left"
    },
    {
      "midi": 43,
      "time": 41.317,
      "duration": 0.067,
      "velocity": 1,
      "hand": "left"
    },
    {
      "midi": 55,
      "time": 41.317,
      "duration": 0.067,
      "velocity": 1,
      "hand": "left"
    },
    {
      "midi": 46,
      "time": 41.451,
      "duration": 0.067,
      "velocity": 1,
      "hand": "left"
    },
    {
      "midi": 58,
      "time": 41.451,
      "duration": 0.067,
      "velocity": 1,
      "hand": "left"
    },
    {
      "midi": 49,
      "time": 41.518,
      "duration": 0.067,
      "velocity": 1,
      "hand": "left"
    },
    {
      "midi": 61,
      "time": 41.518,
      "duration": 0.067,
      "velocity": 1,
      "hand": "right"
    },
    {
      "midi": 40,
      "time": 41.585,
      "duration": 0.067,
      "velocity": 1,
      "hand": "left"
    },
    {
      "midi": 52,
      "time": 41.585,
      "duration": 0.067,
      "velocity": 1,
      "hand": "left"
    },
    {
      "midi": 43,
      "time": 41.719,
      "duration": 0.067,
      "velocity": 1,
      "hand": "left"
    },
    {
      "midi": 55,
      "time": 41.719,
      "duration": 0.067,
      "velocity": 1,
      "hand": "left"
    },
    {
      "midi": 43,
      "time": 41.786,
      "duration": 0.067,
      "velocity": 1,
      "hand": "left"
    },
    {
      "midi": 55,
      "time": 41.786,
      "duration": 0.067,
      "velocity": 1,
      "hand": "left"
    },
    {
      "midi": 45,
      "time": 41.853,
      "duration": 0.067,
      "velocity": 1,
      "hand": "left"
    },
    {
      "midi": 57,
      "time": 41.853,
      "duration": 0.067,
      "velocity": 1,
      "hand": "left"
    },
    {
      "midi": 48,
      "time": 41.987,
      "duration": 0.067,
      "velocity": 1,
      "hand": "left"
    },
    {
      "midi": 60,
      "time": 41.987,
      "duration": 0.067,
      "velocity": 1,
      "hand": "right"
    },
    {
      "midi": 51,
      "time": 42.054,
      "duration": 0.067,
      "velocity": 1,
      "hand": "left"
    },
    {
      "midi": 63,
      "time": 42.054,
      "duration": 0.067,
      "velocity": 1,
      "hand": "right"
    },
    {
      "midi": 42,
      "time": 42.121,
      "duration": 0.067,
      "velocity": 1,
      "hand": "left"
    },
    {
      "midi": 54,
      "time": 42.121,
      "duration": 0.067,
      "velocity": 1,
      "hand": "left"
    },
    {
      "midi": 45,
      "time": 42.254,
      "duration": 0.067,
      "velocity": 1,
      "hand": "left"
    },
    {
      "midi": 57,
      "time": 42.254,
      "duration": 0.067,
      "velocity": 1,
      "hand": "left"
    },
    {
      "midi": 43,
      "time": 42.321,
      "duration": 0.067,
      "velocity": 1,
      "hand": "left"
    },
    {
      "midi": 55,
      "time": 42.321,
      "duration": 0.067,
      "velocity": 1,
      "hand": "left"
    },
    {
      "midi": 45,
      "time": 42.388,
      "duration": 0.067,
      "velocity": 1,
      "hand": "left"
    },
    {
      "midi": 57,
      "time": 42.388,
      "duration": 0.067,
      "velocity": 1,
      "hand": "left"
    },
    {
      "midi": 48,
      "time": 42.522,
      "duration": 0.067,
      "velocity": 1,
      "hand": "left"
    },
    {
      "midi": 60,
      "time": 42.522,
      "duration": 0.067,
      "velocity": 1,
      "hand": "right"
    },
    {
      "midi": 51,
      "time": 42.589,
      "duration": 0.067,
      "velocity": 1,
      "hand": "left"
    },
    {
      "midi": 63,
      "time": 42.589,
      "duration": 0.067,
      "velocity": 1,
      "hand": "right"
    },
    {
      "midi": 42,
      "time": 42.656,
      "duration": 0.067,
      "velocity": 1,
      "hand": "left"
    },
    {
      "midi": 54,
      "time": 42.656,
      "duration": 0.067,
      "velocity": 1,
      "hand": "left"
    },
    {
      "midi": 45,
      "time": 42.79,
      "duration": 0.067,
      "velocity": 1,
      "hand": "left"
    },
    {
      "midi": 57,
      "time": 42.79,
      "duration": 0.067,
      "velocity": 1,
      "hand": "left"
    },
    {
      "midi": 46,
      "time": 42.857,
      "duration": 0.067,
      "velocity": 1,
      "hand": "left"
    },
    {
      "midi": 58,
      "time": 42.857,
      "duration": 0.067,
      "velocity": 1,
      "hand": "left"
    },
    {
      "midi": 48,
      "time": 42.924,
      "duration": 0.067,
      "velocity": 1,
      "hand": "left"
    },
    {
      "midi": 60,
      "time": 42.924,
      "duration": 0.067,
      "velocity": 1,
      "hand": "right"
    },
    {
      "midi": 51,
      "time": 43.058,
      "duration": 0.067,
      "velocity": 1,
      "hand": "left"
    },
    {
      "midi": 63,
      "time": 43.058,
      "duration": 0.067,
      "velocity": 1,
      "hand": "right"
    },
    {
      "midi": 54,
      "time": 43.125,
      "duration": 0.067,
      "velocity": 1,
      "hand": "left"
    },
    {
      "midi": 66,
      "time": 43.125,
      "duration": 0.067,
      "velocity": 1,
      "hand": "right"
    },
    {
      "midi": 45,
      "time": 43.192,
      "duration": 0.067,
      "velocity": 1,
      "hand": "left"
    },
    {
      "midi": 57,
      "time": 43.192,
      "duration": 0.067,
      "velocity": 1,
      "hand": "left"
    },
    {
      "midi": 48,
      "time": 43.326,
      "duration": 0.067,
      "velocity": 1,
      "hand": "left"
    },
    {
      "midi": 60,
      "time": 43.326,
      "duration": 0.067,
      "velocity": 1,
      "hand": "right"
    },
    {
      "midi": 49,
      "time": 43.393,
      "duration": 0.067,
      "velocity": 1,
      "hand": "left"
    },
    {
      "midi": 61,
      "time": 43.393,
      "duration": 0.067,
      "velocity": 1,
      "hand": "right"
    },
    {
      "midi": 51,
      "time": 43.46,
      "duration": 0.067,
      "velocity": 1,
      "hand": "left"
    },
    {
      "midi": 63,
      "time": 43.46,
      "duration": 0.067,
      "velocity": 1,
      "hand": "right"
    },
    {
      "midi": 54,
      "time": 43.594,
      "duration": 0.067,
      "velocity": 1,
      "hand": "left"
    },
    {
      "midi": 66,
      "time": 43.594,
      "duration": 0.067,
      "velocity": 1,
      "hand": "right"
    },
    {
      "midi": 57,
      "time": 43.661,
      "duration": 0.067,
      "velocity": 1,
      "hand": "left"
    },
    {
      "midi": 69,
      "time": 43.661,
      "duration": 0.067,
      "velocity": 1,
      "hand": "right"
    },
    {
      "midi": 48,
      "time": 43.728,
      "duration": 0.067,
      "velocity": 1,
      "hand": "left"
    },
    {
      "midi": 60,
      "time": 43.728,
      "duration": 0.067,
      "velocity": 1,
      "hand": "right"
    },
    {
      "midi": 51,
      "time": 43.862,
      "duration": 0.067,
      "velocity": 1,
      "hand": "left"
    },
    {
      "midi": 63,
      "time": 43.862,
      "duration": 0.067,
      "velocity": 1,
      "hand": "right"
    },
    {
      "midi": 49,
      "time": 43.929,
      "duration": 0.067,
      "velocity": 1,
      "hand": "left"
    },
    {
      "midi": 61,
      "time": 43.929,
      "duration": 0.067,
      "velocity": 1,
      "hand": "right"
    },
    {
      "midi": 51,
      "time": 43.996,
      "duration": 0.067,
      "velocity": 1,
      "hand": "left"
    },
    {
      "midi": 63,
      "time": 43.996,
      "duration": 0.067,
      "velocity": 1,
      "hand": "right"
    },
    {
      "midi": 54,
      "time": 44.129,
      "duration": 0.067,
      "velocity": 1,
      "hand": "left"
    },
    {
      "midi": 66,
      "time": 44.129,
      "duration": 0.067,
      "velocity": 1,
      "hand": "right"
    },
    {
      "midi": 57,
      "time": 44.196,
      "duration": 0.067,
      "velocity": 1,
      "hand": "left"
    },
    {
      "midi": 69,
      "time": 44.196,
      "duration": 0.067,
      "velocity": 1,
      "hand": "right"
    },
    {
      "midi": 48,
      "time": 44.263,
      "duration": 0.067,
      "velocity": 1,
      "hand": "left"
    },
    {
      "midi": 60,
      "time": 44.263,
      "duration": 0.067,
      "velocity": 1,
      "hand": "right"
    },
    {
      "midi": 51,
      "time": 44.397,
      "duration": 0.067,
      "velocity": 1,
      "hand": "left"
    },
    {
      "midi": 63,
      "time": 44.397,
      "duration": 0.067,
      "velocity": 1,
      "hand": "right"
    },
    {
      "midi": 54,
      "time": 44.464,
      "duration": 0.067,
      "velocity": 1,
      "hand": "left"
    },
    {
      "midi": 66,
      "time": 44.464,
      "duration": 0.067,
      "velocity": 1,
      "hand": "right"
    },
    {
      "midi": 58,
      "time": 44.531,
      "duration": 0.067,
      "velocity": 1,
      "hand": "left"
    },
    {
      "midi": 70,
      "time": 44.531,
      "duration": 0.067,
      "velocity": 1,
      "hand": "right"
    },
    {
      "midi": 60,
      "time": 44.665,
      "duration": 0.067,
      "velocity": 1,
      "hand": "right"
    },
    {
      "midi": 72,
      "time": 44.665,
      "duration": 0.067,
      "velocity": 1,
      "hand": "right"
    },
    {
      "midi": 63,
      "time": 44.732,
      "duration": 0.067,
      "velocity": 1,
      "hand": "right"
    },
    {
      "midi": 75,
      "time": 44.732,
      "duration": 0.067,
      "velocity": 1,
      "hand": "right"
    },
    {
      "midi": 53,
      "time": 44.799,
      "duration": 0.067,
      "velocity": 1,
      "hand": "left"
    },
    {
      "midi": 65,
      "time": 44.799,
      "duration": 0.067,
      "velocity": 1,
      "hand": "right"
    },
    {
      "midi": 57,
      "time": 44.933,
      "duration": 0.067,
      "velocity": 1,
      "hand": "left"
    },
    {
      "midi": 69,
      "time": 44.933,
      "duration": 0.067,
      "velocity": 1,
      "hand": "right"
    },
    {
      "midi": 58,
      "time": 45,
      "duration": 0.067,
      "velocity": 1,
      "hand": "left"
    },
    {
      "midi": 70,
      "time": 45,
      "duration": 0.067,
      "velocity": 1,
      "hand": "right"
    },
    {
      "midi": 61,
      "time": 45.067,
      "duration": 0.067,
      "velocity": 1,
      "hand": "right"
    },
    {
      "midi": 73,
      "time": 45.067,
      "duration": 0.067,
      "velocity": 1,
      "hand": "right"
    },
    {
      "midi": 66,
      "time": 45.201,
      "duration": 0.067,
      "velocity": 1,
      "hand": "right"
    },
    {
      "midi": 78,
      "time": 45.201,
      "duration": 0.067,
      "velocity": 1,
      "hand": "right"
    },
    {
      "midi": 65,
      "time": 45.268,
      "duration": 0.067,
      "velocity": 1,
      "hand": "right"
    },
    {
      "midi": 77,
      "time": 45.268,
      "duration": 0.067,
      "velocity": 1,
      "hand": "right"
    },
    {
      "midi": 60,
      "time": 45.335,
      "duration": 0.067,
      "velocity": 1,
      "hand": "right"
    },
    {
      "midi": 72,
      "time": 45.335,
      "duration": 0.067,
      "velocity": 1,
      "hand": "right"
    },
    {
      "midi": 61,
      "time": 45.469,
      "duration": 0.067,
      "velocity": 1,
      "hand": "right"
    },
    {
      "midi": 73,
      "time": 45.469,
      "duration": 0.067,
      "velocity": 1,
      "hand": "right"
    },
    {
      "midi": 64,
      "time": 45.536,
      "duration": 0.067,
      "velocity": 1,
      "hand": "right"
    },
    {
      "midi": 76,
      "time": 45.536,
      "duration": 0.067,
      "velocity": 1,
      "hand": "right"
    },
    {
      "midi": 60,
      "time": 45.603,
      "duration": 0.067,
      "velocity": 1,
      "hand": "right"
    },
    {
      "midi": 72,
      "time": 45.603,
      "duration": 0.067,
      "velocity": 1,
      "hand": "right"
    },
    {
      "midi": 61,
      "time": 45.737,
      "duration": 0.067,
      "velocity": 1,
      "hand": "right"
    },
    {
      "midi": 73,
      "time": 45.737,
      "duration": 0.067,
      "velocity": 1,
      "hand": "right"
    },
    {
      "midi": 57,
      "time": 45.804,
      "duration": 0.067,
      "velocity": 1,
      "hand": "left"
    },
    {
      "midi": 69,
      "time": 45.804,
      "duration": 0.067,
      "velocity": 1,
      "hand": "right"
    },
    {
      "midi": 58,
      "time": 45.871,
      "duration": 0.067,
      "velocity": 1,
      "hand": "left"
    },
    {
      "midi": 70,
      "time": 45.871,
      "duration": 0.067,
      "velocity": 1,
      "hand": "right"
    },
    {
      "midi": 54,
      "time": 46.004,
      "duration": 0.067,
      "velocity": 1,
      "hand": "left"
    },
    {
      "midi": 66,
      "time": 46.004,
      "duration": 0.067,
      "velocity": 1,
      "hand": "right"
    },
    {
      "midi": 52,
      "time": 46.071,
      "duration": 0.067,
      "velocity": 1,
      "hand": "left"
    },
    {
      "midi": 64,
      "time": 46.071,
      "duration": 0.067,
      "velocity": 1,
      "hand": "right"
    },
    {
      "midi": 53,
      "time": 46.138,
      "duration": 0.067,
      "velocity": 1,
      "hand": "left"
    },
    {
      "midi": 65,
      "time": 46.138,
      "duration": 0.067,
      "velocity": 1,
      "hand": "right"
    },
    {
      "midi": 58,
      "time": 46.272,
      "duration": 0.067,
      "velocity": 1,
      "hand": "left"
    },
    {
      "midi": 70,
      "time": 46.272,
      "duration": 0.067,
      "velocity": 1,
      "hand": "right"
    },
    {
      "midi": 56,
      "time": 46.339,
      "duration": 0.067,
      "velocity": 1,
      "hand": "left"
    },
    {
      "midi": 68,
      "time": 46.339,
      "duration": 0.067,
      "velocity": 1,
      "hand": "right"
    },
    {
      "midi": 57,
      "time": 46.406,
      "duration": 0.067,
      "velocity": 1,
      "hand": "left"
    },
    {
      "midi": 69,
      "time": 46.406,
      "duration": 0.067,
      "velocity": 1,
      "hand": "right"
    },
    {
      "midi": 61,
      "time": 46.54,
      "duration": 0.067,
      "velocity": 1,
      "hand": "right"
    },
    {
      "midi": 73,
      "time": 46.54,
      "duration": 0.067,
      "velocity": 1,
      "hand": "right"
    },
    {
      "midi": 57,
      "time": 46.607,
      "duration": 0.067,
      "velocity": 1,
      "hand": "left"
    },
    {
      "midi": 69,
      "time": 46.607,
      "duration": 0.067,
      "velocity": 1,
      "hand": "right"
    },
    {
      "midi": 58,
      "time": 46.674,
      "duration": 0.067,
      "velocity": 1,
      "hand": "left"
    },
    {
      "midi": 70,
      "time": 46.674,
      "duration": 0.067,
      "velocity": 1,
      "hand": "right"
    },
    {
      "midi": 61,
      "time": 46.808,
      "duration": 0.067,
      "velocity": 1,
      "hand": "right"
    },
    {
      "midi": 73,
      "time": 46.808,
      "duration": 0.067,
      "velocity": 1,
      "hand": "right"
    },
    {
      "midi": 59,
      "time": 46.875,
      "duration": 0.067,
      "velocity": 1,
      "hand": "left"
    },
    {
      "midi": 71,
      "time": 46.875,
      "duration": 0.067,
      "velocity": 1,
      "hand": "right"
    },
    {
      "midi": 60,
      "time": 46.942,
      "duration": 0.067,
      "velocity": 1,
      "hand": "right"
    },
    {
      "midi": 72,
      "time": 46.942,
      "duration": 0.067,
      "velocity": 1,
      "hand": "right"
    },
    {
      "midi": 65,
      "time": 47.076,
      "duration": 0.067,
      "velocity": 1,
      "hand": "right"
    },
    {
      "midi": 77,
      "time": 47.076,
      "duration": 0.067,
      "velocity": 1,
      "hand": "right"
    },
    {
      "midi": 56,
      "time": 47.143,
      "duration": 0.067,
      "velocity": 1,
      "hand": "left"
    },
    {
      "midi": 68,
      "time": 47.143,
      "duration": 0.067,
      "velocity": 1,
      "hand": "right"
    },
    {
      "midi": 59,
      "time": 47.21,
      "duration": 0.067,
      "velocity": 1,
      "hand": "left"
    },
    {
      "midi": 71,
      "time": 47.21,
      "duration": 0.067,
      "velocity": 1,
      "hand": "right"
    },
    {
      "midi": 64,
      "time": 47.344,
      "duration": 0.067,
      "velocity": 1,
      "hand": "right"
    },
    {
      "midi": 76,
      "time": 47.344,
      "duration": 0.067,
      "velocity": 1,
      "hand": "right"
    },
    {
      "midi": 63,
      "time": 47.411,
      "duration": 0.067,
      "velocity": 1,
      "hand": "right"
    },
    {
      "midi": 75,
      "time": 47.411,
      "duration": 0.067,
      "velocity": 1,
      "hand": "right"
    },
    {
      "midi": 58,
      "time": 47.478,
      "duration": 0.067,
      "velocity": 1,
      "hand": "left"
    },
    {
      "midi": 70,
      "time": 47.478,
      "duration": 0.067,
      "velocity": 1,
      "hand": "right"
    },
    {
      "midi": 59,
      "time": 47.612,
      "duration": 0.067,
      "velocity": 1,
      "hand": "left"
    },
    {
      "midi": 71,
      "time": 47.612,
      "duration": 0.067,
      "velocity": 1,
      "hand": "right"
    },
    {
      "midi": 62,
      "time": 47.679,
      "duration": 0.067,
      "velocity": 1,
      "hand": "right"
    },
    {
      "midi": 74,
      "time": 47.679,
      "duration": 0.067,
      "velocity": 1,
      "hand": "right"
    },
    {
      "midi": 58,
      "time": 47.746,
      "duration": 0.067,
      "velocity": 1,
      "hand": "left"
    },
    {
      "midi": 70,
      "time": 47.746,
      "duration": 0.067,
      "velocity": 1,
      "hand": "right"
    },
    {
      "midi": 59,
      "time": 47.879,
      "duration": 0.067,
      "velocity": 1,
      "hand": "left"
    },
    {
      "midi": 71,
      "time": 47.879,
      "duration": 0.067,
      "velocity": 1,
      "hand": "right"
    },
    {
      "midi": 55,
      "time": 47.946,
      "duration": 0.067,
      "velocity": 1,
      "hand": "left"
    },
    {
      "midi": 67,
      "time": 47.946,
      "duration": 0.067,
      "velocity": 1,
      "hand": "right"
    },
    {
      "midi": 56,
      "time": 48.013,
      "duration": 0.067,
      "velocity": 1,
      "hand": "left"
    },
    {
      "midi": 68,
      "time": 48.013,
      "duration": 0.067,
      "velocity": 1,
      "hand": "right"
    },
    {
      "midi": 52,
      "time": 48.147,
      "duration": 0.067,
      "velocity": 1,
      "hand": "left"
    },
    {
      "midi": 64,
      "time": 48.147,
      "duration": 0.067,
      "velocity": 1,
      "hand": "right"
    },
    {
      "midi": 50,
      "time": 48.214,
      "duration": 0.067,
      "velocity": 1,
      "hand": "left"
    },
    {
      "midi": 62,
      "time": 48.214,
      "duration": 0.067,
      "velocity": 1,
      "hand": "right"
    },
    {
      "midi": 51,
      "time": 48.281,
      "duration": 0.067,
      "velocity": 1,
      "hand": "left"
    },
    {
      "midi": 63,
      "time": 48.281,
      "duration": 0.067,
      "velocity": 1,
      "hand": "right"
    },
    {
      "midi": 56,
      "time": 48.415,
      "duration": 0.067,
      "velocity": 1,
      "hand": "left"
    },
    {
      "midi": 68,
      "time": 48.415,
      "duration": 0.067,
      "velocity": 1,
      "hand": "right"
    },
    {
      "midi": 52,
      "time": 48.482,
      "duration": 0.067,
      "velocity": 1,
      "hand": "left"
    },
    {
      "midi": 64,
      "time": 48.482,
      "duration": 0.067,
      "velocity": 1,
      "hand": "right"
    },
    {
      "midi": 53,
      "time": 48.549,
      "duration": 0.067,
      "velocity": 1,
      "hand": "left"
    },
    {
      "midi": 65,
      "time": 48.549,
      "duration": 0.067,
      "velocity": 1,
      "hand": "right"
    },
    {
      "midi": 59,
      "time": 48.683,
      "duration": 0.067,
      "velocity": 1,
      "hand": "left"
    },
    {
      "midi": 71,
      "time": 48.683,
      "duration": 0.067,
      "velocity": 1,
      "hand": "right"
    },
    {
      "midi": 53,
      "time": 48.75,
      "duration": 0.067,
      "velocity": 1,
      "hand": "left"
    },
    {
      "midi": 65,
      "time": 48.75,
      "duration": 0.067,
      "velocity": 1,
      "hand": "right"
    },
    {
      "midi": 54,
      "time": 48.817,
      "duration": 0.067,
      "velocity": 1,
      "hand": "left"
    },
    {
      "midi": 66,
      "time": 48.817,
      "duration": 0.067,
      "velocity": 1,
      "hand": "right"
    },
    {
      "midi": 59,
      "time": 48.951,
      "duration": 0.067,
      "velocity": 1,
      "hand": "left"
    },
    {
      "midi": 71,
      "time": 48.951,
      "duration": 0.067,
      "velocity": 1,
      "hand": "right"
    },
    {
      "midi": 57,
      "time": 49.018,
      "duration": 0.067,
      "velocity": 1,
      "hand": "left"
    },
    {
      "midi": 69,
      "time": 49.018,
      "duration": 0.067,
      "velocity": 1,
      "hand": "right"
    },
    {
      "midi": 58,
      "time": 49.085,
      "duration": 0.067,
      "velocity": 1,
      "hand": "left"
    },
    {
      "midi": 70,
      "time": 49.085,
      "duration": 0.067,
      "velocity": 1,
      "hand": "right"
    },
    {
      "midi": 63,
      "time": 49.219,
      "duration": 0.067,
      "velocity": 1,
      "hand": "right"
    },
    {
      "midi": 75,
      "time": 49.219,
      "duration": 0.067,
      "velocity": 1,
      "hand": "right"
    },
    {
      "midi": 61,
      "time": 49.286,
      "duration": 0.067,
      "velocity": 1,
      "hand": "right"
    },
    {
      "midi": 73,
      "time": 49.286,
      "duration": 0.067,
      "velocity": 1,
      "hand": "right"
    },
    {
      "midi": 53,
      "time": 49.353,
      "duration": 0.067,
      "velocity": 1,
      "hand": "left"
    },
    {
      "midi": 65,
      "time": 49.353,
      "duration": 0.067,
      "velocity": 1,
      "hand": "right"
    },
    {
      "midi": 58,
      "time": 49.487,
      "duration": 0.067,
      "velocity": 1,
      "hand": "left"
    },
    {
      "midi": 70,
      "time": 49.487,
      "duration": 0.067,
      "velocity": 1,
      "hand": "right"
    },
    {
      "midi": 49,
      "time": 49.554,
      "duration": 0.067,
      "velocity": 1,
      "hand": "left"
    },
    {
      "midi": 61,
      "time": 49.554,
      "duration": 0.067,
      "velocity": 1,
      "hand": "right"
    },
    {
      "midi": 52,
      "time": 49.621,
      "duration": 0.067,
      "velocity": 1,
      "hand": "left"
    },
    {
      "midi": 64,
      "time": 49.621,
      "duration": 0.067,
      "velocity": 1,
      "hand": "right"
    },
    {
      "midi": 57,
      "time": 49.754,
      "duration": 0.067,
      "velocity": 1,
      "hand": "left"
    },
    {
      "midi": 69,
      "time": 49.754,
      "duration": 0.067,
      "velocity": 1,
      "hand": "right"
    },
    {
      "midi": 60,
      "time": 49.821,
      "duration": 0.067,
      "velocity": 1,
      "hand": "right"
    },
    {
      "midi": 72,
      "time": 49.821,
      "duration": 0.067,
      "velocity": 1,
      "hand": "right"
    },
    {
      "midi": 51,
      "time": 49.888,
      "duration": 0.067,
      "velocity": 1,
      "hand": "left"
    },
    {
      "midi": 63,
      "time": 49.888,
      "duration": 0.067,
      "velocity": 1,
      "hand": "right"
    },
    {
      "midi": 56,
      "time": 50.022,
      "duration": 0.067,
      "velocity": 1,
      "hand": "left"
    },
    {
      "midi": 68,
      "time": 50.022,
      "duration": 0.067,
      "velocity": 1,
      "hand": "right"
    },
    {
      "midi": 47,
      "time": 50.089,
      "duration": 0.067,
      "velocity": 1,
      "hand": "left"
    },
    {
      "midi": 59,
      "time": 50.089,
      "duration": 0.067,
      "velocity": 1,
      "hand": "left"
    },
    {
      "midi": 50,
      "time": 50.156,
      "duration": 0.067,
      "velocity": 1,
      "hand": "left"
    },
    {
      "midi": 62,
      "time": 50.156,
      "duration": 0.067,
      "velocity": 1,
      "hand": "right"
    },
    {
      "midi": 55,
      "time": 50.29,
      "duration": 0.067,
      "velocity": 1,
      "hand": "left"
    },
    {
      "midi": 67,
      "time": 50.29,
      "duration": 0.067,
      "velocity": 1,
      "hand": "right"
    },
    {
      "midi": 59,
      "time": 50.357,
      "duration": 0.067,
      "velocity": 1,
      "hand": "left"
    },
    {
      "midi": 71,
      "time": 50.357,
      "duration": 0.067,
      "velocity": 1,
      "hand": "right"
    },
    {
      "midi": 50,
      "time": 50.424,
      "duration": 0.067,
      "velocity": 1,
      "hand": "left"
    },
    {
      "midi": 62,
      "time": 50.424,
      "duration": 0.067,
      "velocity": 1,
      "hand": "right"
    },
    {
      "midi": 54,
      "time": 50.558,
      "duration": 0.067,
      "velocity": 1,
      "hand": "left"
    },
    {
      "midi": 66,
      "time": 50.558,
      "duration": 0.067,
      "velocity": 1,
      "hand": "right"
    },
    {
      "midi": 46,
      "time": 50.625,
      "duration": 0.067,
      "velocity": 1,
      "hand": "left"
    },
    {
      "midi": 58,
      "time": 50.625,
      "duration": 0.067,
      "velocity": 1,
      "hand": "left"
    },
    {
      "midi": 49,
      "time": 50.692,
      "duration": 0.067,
      "velocity": 1,
      "hand": "left"
    },
    {
      "midi": 61,
      "time": 50.692,
      "duration": 0.067,
      "velocity": 1,
      "hand": "right"
    },
    {
      "midi": 54,
      "time": 50.826,
      "duration": 0.067,
      "velocity": 1,
      "hand": "left"
    },
    {
      "midi": 66,
      "time": 50.826,
      "duration": 0.067,
      "velocity": 1,
      "hand": "right"
    },
    {
      "midi": 58,
      "time": 50.893,
      "duration": 0.067,
      "velocity": 1,
      "hand": "left"
    },
    {
      "midi": 70,
      "time": 50.893,
      "duration": 0.067,
      "velocity": 1,
      "hand": "right"
    },
    {
      "midi": 54,
      "time": 50.96,
      "duration": 0.067,
      "velocity": 1,
      "hand": "left"
    },
    {
      "midi": 66,
      "time": 50.96,
      "duration": 0.067,
      "velocity": 1,
      "hand": "right"
    },
    {
      "midi": 59,
      "time": 51.094,
      "duration": 0.067,
      "velocity": 1,
      "hand": "left"
    },
    {
      "midi": 71,
      "time": 51.094,
      "duration": 0.067,
      "velocity": 1,
      "hand": "right"
    },
    {
      "midi": 60,
      "time": 51.161,
      "duration": 0.067,
      "velocity": 1,
      "hand": "right"
    },
    {
      "midi": 72,
      "time": 51.161,
      "duration": 0.067,
      "velocity": 1,
      "hand": "right"
    },
    {
      "midi": 61,
      "time": 51.228,
      "duration": 0.067,
      "velocity": 1,
      "hand": "right"
    },
    {
      "midi": 73,
      "time": 51.228,
      "duration": 0.067,
      "velocity": 1,
      "hand": "right"
    },
    {
      "midi": 63,
      "time": 51.362,
      "duration": 0.067,
      "velocity": 1,
      "hand": "right"
    },
    {
      "midi": 75,
      "time": 51.362,
      "duration": 0.067,
      "velocity": 1,
      "hand": "right"
    },
    {
      "midi": 61,
      "time": 51.429,
      "duration": 0.067,
      "velocity": 1,
      "hand": "right"
    },
    {
      "midi": 73,
      "time": 51.429,
      "duration": 0.067,
      "velocity": 1,
      "hand": "right"
    },
    {
      "midi": 60,
      "time": 51.496,
      "duration": 0.067,
      "velocity": 1,
      "hand": "right"
    },
    {
      "midi": 72,
      "time": 51.496,
      "duration": 0.067,
      "velocity": 1,
      "hand": "right"
    },
    {
      "midi": 59,
      "time": 51.629,
      "duration": 0.067,
      "velocity": 1,
      "hand": "left"
    },
    {
      "midi": 71,
      "time": 51.629,
      "duration": 0.067,
      "velocity": 1,
      "hand": "right"
    },
    {
      "midi": 58,
      "time": 51.696,
      "duration": 0.067,
      "velocity": 1,
      "hand": "left"
    },
    {
      "midi": 70,
      "time": 51.696,
      "duration": 0.067,
      "velocity": 1,
      "hand": "right"
    },
    {
      "midi": 57,
      "time": 51.763,
      "duration": 0.067,
      "velocity": 1,
      "hand": "left"
    },
    {
      "midi": 69,
      "time": 51.763,
      "duration": 0.067,
      "velocity": 1,
      "hand": "right"
    },
    {
      "midi": 65,
      "time": 51.897,
      "duration": 0.067,
      "velocity": 1,
      "hand": "right"
    },
    {
      "midi": 77,
      "time": 51.897,
      "duration": 0.067,
      "velocity": 1,
      "hand": "right"
    },
    {
      "midi": 63,
      "time": 51.964,
      "duration": 0.067,
      "velocity": 1,
      "hand": "right"
    },
    {
      "midi": 75,
      "time": 51.964,
      "duration": 0.067,
      "velocity": 1,
      "hand": "right"
    },
    {
      "midi": 62,
      "time": 52.031,
      "duration": 0.067,
      "velocity": 1,
      "hand": "right"
    },
    {
      "midi": 74,
      "time": 52.031,
      "duration": 0.067,
      "velocity": 1,
      "hand": "right"
    },
    {
      "midi": 61,
      "time": 52.165,
      "duration": 0.067,
      "velocity": 1,
      "hand": "right"
    },
    {
      "midi": 73,
      "time": 52.165,
      "duration": 0.067,
      "velocity": 1,
      "hand": "right"
    },
    {
      "midi": 60,
      "time": 52.232,
      "duration": 0.067,
      "velocity": 1,
      "hand": "right"
    },
    {
      "midi": 72,
      "time": 52.232,
      "duration": 0.067,
      "velocity": 1,
      "hand": "right"
    },
    {
      "midi": 58,
      "time": 52.299,
      "duration": 0.067,
      "velocity": 1,
      "hand": "left"
    },
    {
      "midi": 70,
      "time": 52.299,
      "duration": 0.067,
      "velocity": 1,
      "hand": "right"
    },
    {
      "midi": 66,
      "time": 52.433,
      "duration": 0.067,
      "velocity": 1,
      "hand": "right"
    },
    {
      "midi": 78,
      "time": 52.433,
      "duration": 0.067,
      "velocity": 1,
      "hand": "right"
    },
    {
      "midi": 65,
      "time": 52.5,
      "duration": 0.067,
      "velocity": 1,
      "hand": "right"
    },
    {
      "midi": 77,
      "time": 52.5,
      "duration": 0.067,
      "velocity": 1,
      "hand": "right"
    },
    {
      "midi": 63,
      "time": 52.567,
      "duration": 0.067,
      "velocity": 1,
      "hand": "right"
    },
    {
      "midi": 75,
      "time": 52.567,
      "duration": 0.067,
      "velocity": 1,
      "hand": "right"
    },
    {
      "midi": 62,
      "time": 52.701,
      "duration": 0.067,
      "velocity": 1,
      "hand": "right"
    },
    {
      "midi": 74,
      "time": 52.701,
      "duration": 0.067,
      "velocity": 1,
      "hand": "right"
    },
    {
      "midi": 61,
      "time": 52.768,
      "duration": 0.067,
      "velocity": 1,
      "hand": "right"
    },
    {
      "midi": 73,
      "time": 52.768,
      "duration": 0.067,
      "velocity": 1,
      "hand": "right"
    },
    {
      "midi": 60,
      "time": 52.835,
      "duration": 0.067,
      "velocity": 1,
      "hand": "right"
    },
    {
      "midi": 72,
      "time": 52.835,
      "duration": 0.067,
      "velocity": 1,
      "hand": "right"
    },
    {
      "midi": 69,
      "time": 52.969,
      "duration": 0.067,
      "velocity": 1,
      "hand": "right"
    },
    {
      "midi": 81,
      "time": 52.969,
      "duration": 0.067,
      "velocity": 1,
      "hand": "right"
    },
    {
      "midi": 60,
      "time": 53.036,
      "duration": 0.067,
      "velocity": 1,
      "hand": "right"
    },
    {
      "midi": 72,
      "time": 53.036,
      "duration": 0.067,
      "velocity": 1,
      "hand": "right"
    },
    {
      "midi": 61,
      "time": 53.103,
      "duration": 0.067,
      "velocity": 1,
      "hand": "right"
    },
    {
      "midi": 73,
      "time": 53.103,
      "duration": 0.067,
      "velocity": 1,
      "hand": "right"
    },
    {
      "midi": 70,
      "time": 53.237,
      "duration": 0.067,
      "velocity": 1,
      "hand": "right"
    },
    {
      "midi": 82,
      "time": 53.237,
      "duration": 0.067,
      "velocity": 1,
      "hand": "right"
    },
    {
      "midi": 62,
      "time": 53.304,
      "duration": 0.067,
      "velocity": 1,
      "hand": "right"
    },
    {
      "midi": 74,
      "time": 53.304,
      "duration": 0.067,
      "velocity": 1,
      "hand": "right"
    },
    {
      "midi": 63,
      "time": 53.371,
      "duration": 0.067,
      "velocity": 1,
      "hand": "right"
    },
    {
      "midi": 75,
      "time": 53.371,
      "duration": 0.067,
      "velocity": 1,
      "hand": "right"
    },
    {
      "midi": 70,
      "time": 53.504,
      "duration": 0.067,
      "velocity": 1,
      "hand": "right"
    },
    {
      "midi": 82,
      "time": 53.504,
      "duration": 0.067,
      "velocity": 1,
      "hand": "right"
    },
    {
      "midi": 72,
      "time": 53.571,
      "duration": 0.067,
      "velocity": 1,
      "hand": "right"
    },
    {
      "midi": 84,
      "time": 53.571,
      "duration": 0.067,
      "velocity": 1,
      "hand": "right"
    },
    {
      "midi": 70,
      "time": 53.638,
      "duration": 0.067,
      "velocity": 1,
      "hand": "right"
    },
    {
      "midi": 82,
      "time": 53.638,
      "duration": 0.067,
      "velocity": 1,
      "hand": "right"
    },
    {
      "midi": 68,
      "time": 53.772,
      "duration": 0.067,
      "velocity": 1,
      "hand": "right"
    },
    {
      "midi": 80,
      "time": 53.772,
      "duration": 0.067,
      "velocity": 1,
      "hand": "right"
    },
    {
      "midi": 66,
      "time": 53.839,
      "duration": 0.067,
      "velocity": 1,
      "hand": "right"
    },
    {
      "midi": 78,
      "time": 53.839,
      "duration": 0.067,
      "velocity": 1,
      "hand": "right"
    },
    {
      "midi": 65,
      "time": 53.906,
      "duration": 0.067,
      "velocity": 1,
      "hand": "right"
    },
    {
      "midi": 77,
      "time": 53.906,
      "duration": 0.067,
      "velocity": 1,
      "hand": "right"
    },
    {
      "midi": 64,
      "time": 54.04,
      "duration": 0.067,
      "velocity": 1,
      "hand": "right"
    },
    {
      "midi": 76,
      "time": 54.04,
      "duration": 0.067,
      "velocity": 1,
      "hand": "right"
    },
    {
      "midi": 72,
      "time": 54.107,
      "duration": 0.067,
      "velocity": 1,
      "hand": "right"
    },
    {
      "midi": 84,
      "time": 54.107,
      "duration": 0.067,
      "velocity": 1,
      "hand": "right"
    },
    {
      "midi": 70,
      "time": 54.174,
      "duration": 0.067,
      "velocity": 1,
      "hand": "right"
    },
    {
      "midi": 82,
      "time": 54.174,
      "duration": 0.067,
      "velocity": 1,
      "hand": "right"
    },
    {
      "midi": 68,
      "time": 54.308,
      "duration": 0.067,
      "velocity": 1,
      "hand": "right"
    },
    {
      "midi": 80,
      "time": 54.308,
      "duration": 0.067,
      "velocity": 1,
      "hand": "right"
    },
    {
      "midi": 66,
      "time": 54.375,
      "duration": 0.067,
      "velocity": 1,
      "hand": "right"
    },
    {
      "midi": 78,
      "time": 54.375,
      "duration": 0.067,
      "velocity": 1,
      "hand": "right"
    },
    {
      "midi": 65,
      "time": 54.442,
      "duration": 0.067,
      "velocity": 1,
      "hand": "right"
    },
    {
      "midi": 77,
      "time": 54.442,
      "duration": 0.067,
      "velocity": 1,
      "hand": "right"
    },
    {
      "midi": 64,
      "time": 54.576,
      "duration": 0.067,
      "velocity": 1,
      "hand": "right"
    },
    {
      "midi": 76,
      "time": 54.576,
      "duration": 0.067,
      "velocity": 1,
      "hand": "right"
    },
    {
      "midi": 66,
      "time": 54.643,
      "duration": 0.067,
      "velocity": 1,
      "hand": "right"
    },
    {
      "midi": 78,
      "time": 54.643,
      "duration": 0.067,
      "velocity": 1,
      "hand": "right"
    },
    {
      "midi": 65,
      "time": 54.71,
      "duration": 0.067,
      "velocity": 1,
      "hand": "right"
    },
    {
      "midi": 77,
      "time": 54.71,
      "duration": 0.067,
      "velocity": 1,
      "hand": "right"
    },
    {
      "midi": 64,
      "time": 54.844,
      "duration": 0.067,
      "velocity": 1,
      "hand": "right"
    },
    {
      "midi": 76,
      "time": 54.844,
      "duration": 0.067,
      "velocity": 1,
      "hand": "right"
    },
    {
      "midi": 63,
      "time": 54.911,
      "duration": 0.067,
      "velocity": 1,
      "hand": "right"
    },
    {
      "midi": 75,
      "time": 54.911,
      "duration": 0.067,
      "velocity": 1,
      "hand": "right"
    },
    {
      "midi": 62,
      "time": 54.978,
      "duration": 0.067,
      "velocity": 1,
      "hand": "right"
    },
    {
      "midi": 74,
      "time": 54.978,
      "duration": 0.067,
      "velocity": 1,
      "hand": "right"
    },
    {
      "midi": 61,
      "time": 55.112,
      "duration": 0.067,
      "velocity": 1,
      "hand": "right"
    },
    {
      "midi": 73,
      "time": 55.112,
      "duration": 0.067,
      "velocity": 1,
      "hand": "right"
    },
    {
      "midi": 63,
      "time": 55.179,
      "duration": 0.067,
      "velocity": 1,
      "hand": "right"
    },
    {
      "midi": 75,
      "time": 55.179,
      "duration": 0.067,
      "velocity": 1,
      "hand": "right"
    },
    {
      "midi": 59,
      "time": 55.246,
      "duration": 0.067,
      "velocity": 1,
      "hand": "left"
    },
    {
      "midi": 71,
      "time": 55.246,
      "duration": 0.067,
      "velocity": 1,
      "hand": "right"
    },
    {
      "midi": 60,
      "time": 55.379,
      "duration": 0.067,
      "velocity": 1,
      "hand": "right"
    },
    {
      "midi": 72,
      "time": 55.379,
      "duration": 0.067,
      "velocity": 1,
      "hand": "right"
    },
    {
      "midi": 61,
      "time": 55.446,
      "duration": 0.067,
      "velocity": 1,
      "hand": "right"
    },
    {
      "midi": 73,
      "time": 55.446,
      "duration": 0.067,
      "velocity": 1,
      "hand": "right"
    },
    {
      "midi": 57,
      "time": 55.513,
      "duration": 0.067,
      "velocity": 1,
      "hand": "left"
    },
    {
      "midi": 69,
      "time": 55.513,
      "duration": 0.067,
      "velocity": 1,
      "hand": "right"
    },
    {
      "midi": 58,
      "time": 55.647,
      "duration": 0.067,
      "velocity": 1,
      "hand": "left"
    },
    {
      "midi": 70,
      "time": 55.647,
      "duration": 0.067,
      "velocity": 1,
      "hand": "right"
    },
    {
      "midi": 60,
      "time": 55.714,
      "duration": 0.067,
      "velocity": 1,
      "hand": "right"
    },
    {
      "midi": 72,
      "time": 55.714,
      "duration": 0.067,
      "velocity": 1,
      "hand": "right"
    },
    {
      "midi": 55,
      "time": 55.781,
      "duration": 0.067,
      "velocity": 1,
      "hand": "left"
    },
    {
      "midi": 67,
      "time": 55.781,
      "duration": 0.067,
      "velocity": 1,
      "hand": "right"
    },
    {
      "midi": 56,
      "time": 55.915,
      "duration": 0.067,
      "velocity": 1,
      "hand": "left"
    },
    {
      "midi": 68,
      "time": 55.915,
      "duration": 0.067,
      "velocity": 1,
      "hand": "right"
    },
    {
      "midi": 59,
      "time": 55.982,
      "duration": 0.067,
      "velocity": 1,
      "hand": "left"
    },
    {
      "midi": 71,
      "time": 55.982,
      "duration": 0.067,
      "velocity": 1,
      "hand": "right"
    },
    {
      "midi": 54,
      "time": 56.049,
      "duration": 0.067,
      "velocity": 1,
      "hand": "left"
    },
    {
      "midi": 66,
      "time": 56.049,
      "duration": 0.067,
      "velocity": 1,
      "hand": "right"
    },
    {
      "midi": 63,
      "time": 56.183,
      "duration": 0.067,
      "velocity": 1,
      "hand": "right"
    },
    {
      "midi": 75,
      "time": 56.183,
      "duration": 0.067,
      "velocity": 1,
      "hand": "right"
    },
    {
      "midi": 58,
      "time": 56.25,
      "duration": 0.067,
      "velocity": 1,
      "hand": "left"
    },
    {
      "midi": 70,
      "time": 56.25,
      "duration": 0.067,
      "velocity": 1,
      "hand": "right"
    },
    {
      "midi": 53,
      "time": 56.317,
      "duration": 0.067,
      "velocity": 1,
      "hand": "left"
    },
    {
      "midi": 65,
      "time": 56.317,
      "duration": 0.067,
      "velocity": 1,
      "hand": "right"
    },
    {
      "midi": 54,
      "time": 56.451,
      "duration": 0.067,
      "velocity": 1,
      "hand": "left"
    },
    {
      "midi": 66,
      "time": 56.451,
      "duration": 0.067,
      "velocity": 1,
      "hand": "right"
    },
    {
      "midi": 57,
      "time": 56.518,
      "duration": 0.067,
      "velocity": 1,
      "hand": "left"
    },
    {
      "midi": 69,
      "time": 56.518,
      "duration": 0.067,
      "velocity": 1,
      "hand": "right"
    },
    {
      "midi": 52,
      "time": 56.585,
      "duration": 0.067,
      "velocity": 1,
      "hand": "left"
    },
    {
      "midi": 64,
      "time": 56.585,
      "duration": 0.067,
      "velocity": 1,
      "hand": "right"
    },
    {
      "midi": 61,
      "time": 56.719,
      "duration": 0.067,
      "velocity": 1,
      "hand": "right"
    },
    {
      "midi": 73,
      "time": 56.719,
      "duration": 0.067,
      "velocity": 1,
      "hand": "right"
    },
    {
      "midi": 56,
      "time": 56.786,
      "duration": 0.067,
      "velocity": 1,
      "hand": "left"
    },
    {
      "midi": 68,
      "time": 56.786,
      "duration": 0.067,
      "velocity": 1,
      "hand": "right"
    },
    {
      "midi": 51,
      "time": 56.853,
      "duration": 0.067,
      "velocity": 1,
      "hand": "left"
    },
    {
      "midi": 63,
      "time": 56.853,
      "duration": 0.067,
      "velocity": 1,
      "hand": "right"
    },
    {
      "midi": 52,
      "time": 56.987,
      "duration": 0.067,
      "velocity": 1,
      "hand": "left"
    },
    {
      "midi": 64,
      "time": 56.987,
      "duration": 0.067,
      "velocity": 1,
      "hand": "right"
    },
    {
      "midi": 55,
      "time": 57.054,
      "duration": 0.067,
      "velocity": 1,
      "hand": "left"
    },
    {
      "midi": 67,
      "time": 57.054,
      "duration": 0.067,
      "velocity": 1,
      "hand": "right"
    },
    {
      "midi": 50,
      "time": 57.121,
      "duration": 0.067,
      "velocity": 1,
      "hand": "left"
    },
    {
      "midi": 62,
      "time": 57.121,
      "duration": 0.067,
      "velocity": 1,
      "hand": "right"
    },
    {
      "midi": 59,
      "time": 57.254,
      "duration": 0.067,
      "velocity": 1,
      "hand": "left"
    },
    {
      "midi": 71,
      "time": 57.254,
      "duration": 0.067,
      "velocity": 1,
      "hand": "right"
    },
    {
      "midi": 54,
      "time": 57.321,
      "duration": 0.067,
      "velocity": 1,
      "hand": "left"
    },
    {
      "midi": 66,
      "time": 57.321,
      "duration": 0.067,
      "velocity": 1,
      "hand": "right"
    },
    {
      "midi": 49,
      "time": 57.388,
      "duration": 0.067,
      "velocity": 1,
      "hand": "left"
    },
    {
      "midi": 61,
      "time": 57.388,
      "duration": 0.067,
      "velocity": 1,
      "hand": "right"
    },
    {
      "midi": 50,
      "time": 57.522,
      "duration": 0.067,
      "velocity": 1,
      "hand": "left"
    },
    {
      "midi": 62,
      "time": 57.522,
      "duration": 0.067,
      "velocity": 1,
      "hand": "right"
    },
    {
      "midi": 53,
      "time": 57.589,
      "duration": 0.067,
      "velocity": 1,
      "hand": "left"
    },
    {
      "midi": 65,
      "time": 57.589,
      "duration": 0.067,
      "velocity": 1,
      "hand": "right"
    },
    {
      "midi": 48,
      "time": 57.656,
      "duration": 0.067,
      "velocity": 1,
      "hand": "left"
    },
    {
      "midi": 60,
      "time": 57.656,
      "duration": 0.067,
      "velocity": 1,
      "hand": "right"
    },
    {
      "midi": 57,
      "time": 57.79,
      "duration": 0.067,
      "velocity": 1,
      "hand": "left"
    },
    {
      "midi": 69,
      "time": 57.79,
      "duration": 0.067,
      "velocity": 1,
      "hand": "right"
    },
    {
      "midi": 62,
      "time": 57.857,
      "duration": 0.067,
      "velocity": 1,
      "hand": "right"
    },
    {
      "midi": 74,
      "time": 57.857,
      "duration": 0.067,
      "velocity": 1,
      "hand": "right"
    },
    {
      "midi": 57,
      "time": 57.924,
      "duration": 0.067,
      "velocity": 1,
      "hand": "left"
    },
    {
      "midi": 69,
      "time": 57.924,
      "duration": 0.067,
      "velocity": 1,
      "hand": "right"
    },
    {
      "midi": 58,
      "time": 58.058,
      "duration": 0.067,
      "velocity": 1,
      "hand": "left"
    },
    {
      "midi": 70,
      "time": 58.058,
      "duration": 0.067,
      "velocity": 1,
      "hand": "right"
    },
    {
      "midi": 61,
      "time": 58.125,
      "duration": 0.067,
      "velocity": 1,
      "hand": "right"
    },
    {
      "midi": 73,
      "time": 58.125,
      "duration": 0.067,
      "velocity": 1,
      "hand": "right"
    },
    {
      "midi": 56,
      "time": 58.192,
      "duration": 0.067,
      "velocity": 1,
      "hand": "left"
    },
    {
      "midi": 68,
      "time": 58.192,
      "duration": 0.067,
      "velocity": 1,
      "hand": "right"
    },
    {
      "midi": 65,
      "time": 58.326,
      "duration": 0.067,
      "velocity": 1,
      "hand": "right"
    },
    {
      "midi": 77,
      "time": 58.326,
      "duration": 0.067,
      "velocity": 1,
      "hand": "right"
    },
    {
      "midi": 60,
      "time": 58.393,
      "duration": 0.067,
      "velocity": 1,
      "hand": "right"
    },
    {
      "midi": 72,
      "time": 58.393,
      "duration": 0.067,
      "velocity": 1,
      "hand": "right"
    },
    {
      "midi": 55,
      "time": 58.46,
      "duration": 0.067,
      "velocity": 1,
      "hand": "left"
    },
    {
      "midi": 67,
      "time": 58.46,
      "duration": 0.067,
      "velocity": 1,
      "hand": "right"
    },
    {
      "midi": 56,
      "time": 58.594,
      "duration": 0.067,
      "velocity": 1,
      "hand": "left"
    },
    {
      "midi": 68,
      "time": 58.594,
      "duration": 0.067,
      "velocity": 1,
      "hand": "right"
    },
    {
      "midi": 59,
      "time": 58.661,
      "duration": 0.067,
      "velocity": 1,
      "hand": "left"
    },
    {
      "midi": 71,
      "time": 58.661,
      "duration": 0.067,
      "velocity": 1,
      "hand": "right"
    },
    {
      "midi": 54,
      "time": 58.728,
      "duration": 0.067,
      "velocity": 1,
      "hand": "left"
    },
    {
      "midi": 66,
      "time": 58.728,
      "duration": 0.067,
      "velocity": 1,
      "hand": "right"
    },
    {
      "midi": 63,
      "time": 58.862,
      "duration": 0.067,
      "velocity": 1,
      "hand": "right"
    },
    {
      "midi": 75,
      "time": 58.862,
      "duration": 0.067,
      "velocity": 1,
      "hand": "right"
    },
    {
      "midi": 58,
      "time": 58.929,
      "duration": 0.067,
      "velocity": 1,
      "hand": "left"
    },
    {
      "midi": 70,
      "time": 58.929,
      "duration": 0.067,
      "velocity": 1,
      "hand": "right"
    },
    {
      "midi": 53,
      "time": 58.996,
      "duration": 0.067,
      "velocity": 1,
      "hand": "left"
    },
    {
      "midi": 65,
      "time": 58.996,
      "duration": 0.067,
      "velocity": 1,
      "hand": "right"
    },
    {
      "midi": 54,
      "time": 59.129,
      "duration": 0.067,
      "velocity": 1,
      "hand": "left"
    },
    {
      "midi": 66,
      "time": 59.129,
      "duration": 0.067,
      "velocity": 1,
      "hand": "right"
    },
    {
      "midi": 57,
      "time": 59.196,
      "duration": 0.067,
      "velocity": 1,
      "hand": "left"
    },
    {
      "midi": 69,
      "time": 59.196,
      "duration": 0.067,
      "velocity": 1,
      "hand": "right"
    },
    {
      "midi": 52,
      "time": 59.263,
      "duration": 0.067,
      "velocity": 1,
      "hand": "left"
    },
    {
      "midi": 64,
      "time": 59.263,
      "duration": 0.067,
      "velocity": 1,
      "hand": "right"
    },
    {
      "midi": 61,
      "time": 59.397,
      "duration": 0.067,
      "velocity": 1,
      "hand": "right"
    },
    {
      "midi": 73,
      "time": 59.397,
      "duration": 0.067,
      "velocity": 1,
      "hand": "right"
    },
    {
      "midi": 56,
      "time": 59.464,
      "duration": 0.067,
      "velocity": 1,
      "hand": "left"
    },
    {
      "midi": 68,
      "time": 59.464,
      "duration": 0.067,
      "velocity": 1,
      "hand": "right"
    },
    {
      "midi": 51,
      "time": 59.531,
      "duration": 0.067,
      "velocity": 1,
      "hand": "left"
    },
    {
      "midi": 63,
      "time": 59.531,
      "duration": 0.067,
      "velocity": 1,
      "hand": "right"
    },
    {
      "midi": 52,
      "time": 59.665,
      "duration": 0.067,
      "velocity": 1,
      "hand": "left"
    },
    {
      "midi": 64,
      "time": 59.665,
      "duration": 0.067,
      "velocity": 1,
      "hand": "right"
    },
    {
      "midi": 55,
      "time": 59.732,
      "duration": 0.067,
      "velocity": 1,
      "hand": "left"
    },
    {
      "midi": 67,
      "time": 59.732,
      "duration": 0.067,
      "velocity": 1,
      "hand": "right"
    },
    {
      "midi": 50,
      "time": 59.799,
      "duration": 0.067,
      "velocity": 1,
      "hand": "left"
    },
    {
      "midi": 62,
      "time": 59.799,
      "duration": 0.067,
      "velocity": 1,
      "hand": "right"
    },
    {
      "midi": 59,
      "time": 59.933,
      "duration": 0.067,
      "velocity": 1,
      "hand": "left"
    },
    {
      "midi": 71,
      "time": 59.933,
      "duration": 0.067,
      "velocity": 1,
      "hand": "right"
    },
    {
      "midi": 64,
      "time": 60,
      "duration": 0.067,
      "velocity": 1,
      "hand": "right"
    },
    {
      "midi": 76,
      "time": 60,
      "duration": 0.067,
      "velocity": 1,
      "hand": "right"
    },
    {
      "midi": 59,
      "time": 60.067,
      "duration": 0.067,
      "velocity": 1,
      "hand": "left"
    },
    {
      "midi": 71,
      "time": 60.067,
      "duration": 0.067,
      "velocity": 1,
      "hand": "right"
    },
    {
      "midi": 60,
      "time": 60.201,
      "duration": 0.067,
      "velocity": 1,
      "hand": "right"
    },
    {
      "midi": 72,
      "time": 60.201,
      "duration": 0.067,
      "velocity": 1,
      "hand": "right"
    },
    {
      "midi": 63,
      "time": 60.268,
      "duration": 0.067,
      "velocity": 1,
      "hand": "right"
    },
    {
      "midi": 75,
      "time": 60.268,
      "duration": 0.067,
      "velocity": 1,
      "hand": "right"
    },
    {
      "midi": 58,
      "time": 60.335,
      "duration": 0.067,
      "velocity": 1,
      "hand": "left"
    },
    {
      "midi": 70,
      "time": 60.335,
      "duration": 0.067,
      "velocity": 1,
      "hand": "right"
    },
    {
      "midi": 67,
      "time": 60.469,
      "duration": 0.067,
      "velocity": 1,
      "hand": "right"
    },
    {
      "midi": 79,
      "time": 60.469,
      "duration": 0.067,
      "velocity": 1,
      "hand": "right"
    },
    {
      "midi": 62,
      "time": 60.536,
      "duration": 0.067,
      "velocity": 1,
      "hand": "right"
    },
    {
      "midi": 74,
      "time": 60.536,
      "duration": 0.067,
      "velocity": 1,
      "hand": "right"
    },
    {
      "midi": 57,
      "time": 60.603,
      "duration": 0.067,
      "velocity": 1,
      "hand": "left"
    },
    {
      "midi": 69,
      "time": 60.603,
      "duration": 0.067,
      "velocity": 1,
      "hand": "right"
    },
    {
      "midi": 58,
      "time": 60.737,
      "duration": 0.067,
      "velocity": 1,
      "hand": "left"
    },
    {
      "midi": 70,
      "time": 60.737,
      "duration": 0.067,
      "velocity": 1,
      "hand": "right"
    },
    {
      "midi": 61,
      "time": 60.804,
      "duration": 0.067,
      "velocity": 1,
      "hand": "right"
    },
    {
      "midi": 73,
      "time": 60.804,
      "duration": 0.067,
      "velocity": 1,
      "hand": "right"
    },
    {
      "midi": 56,
      "time": 60.871,
      "duration": 0.067,
      "velocity": 1,
      "hand": "left"
    },
    {
      "midi": 68,
      "time": 60.871,
      "duration": 0.067,
      "velocity": 1,
      "hand": "right"
    },
    {
      "midi": 65,
      "time": 61.004,
      "duration": 0.067,
      "velocity": 1,
      "hand": "right"
    },
    {
      "midi": 77,
      "time": 61.004,
      "duration": 0.067,
      "velocity": 1,
      "hand": "right"
    },
    {
      "midi": 60,
      "time": 61.071,
      "duration": 0.067,
      "velocity": 1,
      "hand": "right"
    },
    {
      "midi": 72,
      "time": 61.071,
      "duration": 0.067,
      "velocity": 1,
      "hand": "right"
    },
    {
      "midi": 55,
      "time": 61.138,
      "duration": 0.067,
      "velocity": 1,
      "hand": "left"
    },
    {
      "midi": 67,
      "time": 61.138,
      "duration": 0.067,
      "velocity": 1,
      "hand": "right"
    },
    {
      "midi": 56,
      "time": 61.272,
      "duration": 0.067,
      "velocity": 1,
      "hand": "left"
    },
    {
      "midi": 68,
      "time": 61.272,
      "duration": 0.067,
      "velocity": 1,
      "hand": "right"
    },
    {
      "midi": 59,
      "time": 61.339,
      "duration": 0.067,
      "velocity": 1,
      "hand": "left"
    },
    {
      "midi": 71,
      "time": 61.339,
      "duration": 0.067,
      "velocity": 1,
      "hand": "right"
    },
    {
      "midi": 54,
      "time": 61.406,
      "duration": 0.067,
      "velocity": 1,
      "hand": "left"
    },
    {
      "midi": 66,
      "time": 61.406,
      "duration": 0.067,
      "velocity": 1,
      "hand": "right"
    },
    {
      "midi": 63,
      "time": 61.54,
      "duration": 0.067,
      "velocity": 1,
      "hand": "right"
    },
    {
      "midi": 75,
      "time": 61.54,
      "duration": 0.067,
      "velocity": 1,
      "hand": "right"
    },
    {
      "midi": 58,
      "time": 61.607,
      "duration": 0.067,
      "velocity": 1,
      "hand": "left"
    },
    {
      "midi": 70,
      "time": 61.607,
      "duration": 0.067,
      "velocity": 1,
      "hand": "right"
    },
    {
      "midi": 53,
      "time": 61.674,
      "duration": 0.067,
      "velocity": 1,
      "hand": "left"
    },
    {
      "midi": 65,
      "time": 61.674,
      "duration": 0.067,
      "velocity": 1,
      "hand": "right"
    },
    {
      "midi": 63,
      "time": 61.808,
      "duration": 0.067,
      "velocity": 1,
      "hand": "right"
    },
    {
      "midi": 75,
      "time": 61.808,
      "duration": 0.067,
      "velocity": 1,
      "hand": "right"
    },
    {
      "midi": 58,
      "time": 61.875,
      "duration": 0.067,
      "velocity": 1,
      "hand": "left"
    },
    {
      "midi": 70,
      "time": 61.875,
      "duration": 0.067,
      "velocity": 1,
      "hand": "right"
    },
    {
      "midi": 53,
      "time": 61.942,
      "duration": 0.067,
      "velocity": 1,
      "hand": "left"
    },
    {
      "midi": 65,
      "time": 61.942,
      "duration": 0.067,
      "velocity": 1,
      "hand": "right"
    },
    {
      "midi": 61,
      "time": 62.076,
      "duration": 0.067,
      "velocity": 1,
      "hand": "right"
    },
    {
      "midi": 73,
      "time": 62.076,
      "duration": 0.067,
      "velocity": 1,
      "hand": "right"
    },
    {
      "midi": 54,
      "time": 62.143,
      "duration": 0.067,
      "velocity": 1,
      "hand": "left"
    },
    {
      "midi": 66,
      "time": 62.143,
      "duration": 0.067,
      "velocity": 1,
      "hand": "right"
    },
    {
      "midi": 53,
      "time": 62.21,
      "duration": 0.067,
      "velocity": 1,
      "hand": "left"
    },
    {
      "midi": 65,
      "time": 62.21,
      "duration": 0.067,
      "velocity": 1,
      "hand": "right"
    },
    {
      "midi": 52,
      "time": 62.344,
      "duration": 0.067,
      "velocity": 1,
      "hand": "left"
    },
    {
      "midi": 64,
      "time": 62.344,
      "duration": 0.067,
      "velocity": 1,
      "hand": "right"
    },
    {
      "midi": 51,
      "time": 62.411,
      "duration": 0.067,
      "velocity": 1,
      "hand": "left"
    },
    {
      "midi": 63,
      "time": 62.411,
      "duration": 0.067,
      "velocity": 1,
      "hand": "right"
    },
    {
      "midi": 49,
      "time": 62.478,
      "duration": 0.067,
      "velocity": 1,
      "hand": "left"
    },
    {
      "midi": 61,
      "time": 62.478,
      "duration": 0.067,
      "velocity": 1,
      "hand": "right"
    },
    {
      "midi": 48,
      "time": 62.612,
      "duration": 0.067,
      "velocity": 1,
      "hand": "left"
    },
    {
      "midi": 60,
      "time": 62.612,
      "duration": 0.067,
      "velocity": 1,
      "hand": "right"
    },
    {
      "midi": 54,
      "time": 62.679,
      "duration": 0.067,
      "velocity": 1,
      "hand": "left"
    },
    {
      "midi": 66,
      "time": 62.679,
      "duration": 0.067,
      "velocity": 1,
      "hand": "right"
    },
    {
      "midi": 53,
      "time": 62.746,
      "duration": 0.067,
      "velocity": 1,
      "hand": "left"
    },
    {
      "midi": 65,
      "time": 62.746,
      "duration": 0.067,
      "velocity": 1,
      "hand": "right"
    },
    {
      "midi": 51,
      "time": 62.879,
      "duration": 0.067,
      "velocity": 1,
      "hand": "left"
    },
    {
      "midi": 63,
      "time": 62.879,
      "duration": 0.067,
      "velocity": 1,
      "hand": "right"
    },
    {
      "midi": 49,
      "time": 62.946,
      "duration": 0.067,
      "velocity": 1,
      "hand": "left"
    },
    {
      "midi": 61,
      "time": 62.946,
      "duration": 0.067,
      "velocity": 1,
      "hand": "right"
    },
    {
      "midi": 48,
      "time": 63.013,
      "duration": 0.067,
      "velocity": 1,
      "hand": "left"
    },
    {
      "midi": 60,
      "time": 63.013,
      "duration": 0.067,
      "velocity": 1,
      "hand": "right"
    },
    {
      "midi": 46,
      "time": 63.147,
      "duration": 0.067,
      "velocity": 1,
      "hand": "left"
    },
    {
      "midi": 58,
      "time": 63.147,
      "duration": 0.067,
      "velocity": 1,
      "hand": "left"
    },
    {
      "midi": 54,
      "time": 63.214,
      "duration": 0.067,
      "velocity": 1,
      "hand": "left"
    },
    {
      "midi": 66,
      "time": 63.214,
      "duration": 0.067,
      "velocity": 1,
      "hand": "right"
    },
    {
      "midi": 53,
      "time": 63.281,
      "duration": 0.067,
      "velocity": 1,
      "hand": "left"
    },
    {
      "midi": 65,
      "time": 63.281,
      "duration": 0.067,
      "velocity": 1,
      "hand": "right"
    },
    {
      "midi": 51,
      "time": 63.415,
      "duration": 0.067,
      "velocity": 1,
      "hand": "left"
    },
    {
      "midi": 63,
      "time": 63.415,
      "duration": 0.067,
      "velocity": 1,
      "hand": "right"
    },
    {
      "midi": 49,
      "time": 63.482,
      "duration": 0.067,
      "velocity": 1,
      "hand": "left"
    },
    {
      "midi": 61,
      "time": 63.482,
      "duration": 0.067,
      "velocity": 1,
      "hand": "right"
    },
    {
      "midi": 48,
      "time": 63.549,
      "duration": 0.067,
      "velocity": 1,
      "hand": "left"
    },
    {
      "midi": 60,
      "time": 63.549,
      "duration": 0.067,
      "velocity": 1,
      "hand": "right"
    },
    {
      "midi": 47,
      "time": 63.683,
      "duration": 0.067,
      "velocity": 1,
      "hand": "left"
    },
    {
      "midi": 59,
      "time": 63.683,
      "duration": 0.067,
      "velocity": 1,
      "hand": "left"
    },
    {
      "midi": 54,
      "time": 63.75,
      "duration": 0.067,
      "velocity": 1,
      "hand": "left"
    },
    {
      "midi": 66,
      "time": 63.75,
      "duration": 0.067,
      "velocity": 1,
      "hand": "right"
    },
    {
      "midi": 53,
      "time": 63.817,
      "duration": 0.067,
      "velocity": 1,
      "hand": "left"
    },
    {
      "midi": 65,
      "time": 63.817,
      "duration": 0.067,
      "velocity": 1,
      "hand": "right"
    },
    {
      "midi": 51,
      "time": 63.951,
      "duration": 0.067,
      "velocity": 1,
      "hand": "left"
    },
    {
      "midi": 63,
      "time": 63.951,
      "duration": 0.067,
      "velocity": 1,
      "hand": "right"
    },
    {
      "midi": 49,
      "time": 64.018,
      "duration": 0.067,
      "velocity": 1,
      "hand": "left"
    },
    {
      "midi": 61,
      "time": 64.018,
      "duration": 0.067,
      "velocity": 1,
      "hand": "right"
    },
    {
      "midi": 47,
      "time": 64.085,
      "duration": 0.067,
      "velocity": 1,
      "hand": "left"
    },
    {
      "midi": 59,
      "time": 64.085,
      "duration": 0.067,
      "velocity": 1,
      "hand": "left"
    },
    {
      "midi": 46,
      "time": 64.219,
      "duration": 0.067,
      "velocity": 1,
      "hand": "left"
    },
    {
      "midi": 58,
      "time": 64.219,
      "duration": 0.067,
      "velocity": 1,
      "hand": "left"
    },
    {
      "midi": 45,
      "time": 64.286,
      "duration": 0.067,
      "velocity": 1,
      "hand": "left"
    },
    {
      "midi": 57,
      "time": 64.286,
      "duration": 0.067,
      "velocity": 1,
      "hand": "left"
    },
    {
      "midi": 46,
      "time": 64.353,
      "duration": 0.067,
      "velocity": 1,
      "hand": "left"
    },
    {
      "midi": 58,
      "time": 64.353,
      "duration": 0.067,
      "velocity": 1,
      "hand": "left"
    },
    {
      "midi": 48,
      "time": 64.487,
      "duration": 0.067,
      "velocity": 1,
      "hand": "left"
    },
    {
      "midi": 60,
      "time": 64.487,
      "duration": 0.067,
      "velocity": 1,
      "hand": "right"
    },
    {
      "midi": 51,
      "time": 64.554,
      "duration": 0.067,
      "velocity": 1,
      "hand": "left"
    },
    {
      "midi": 63,
      "time": 64.554,
      "duration": 0.067,
      "velocity": 1,
      "hand": "right"
    },
    {
      "midi": 49,
      "time": 64.621,
      "duration": 0.067,
      "velocity": 1,
      "hand": "left"
    },
    {
      "midi": 61,
      "time": 64.621,
      "duration": 0.067,
      "velocity": 1,
      "hand": "right"
    },
    {
      "midi": 45,
      "time": 64.754,
      "duration": 0.067,
      "velocity": 1,
      "hand": "left"
    },
    {
      "midi": 57,
      "time": 64.754,
      "duration": 0.067,
      "velocity": 1,
      "hand": "left"
    },
    {
      "midi": 48,
      "time": 64.821,
      "duration": 0.067,
      "velocity": 1,
      "hand": "left"
    },
    {
      "midi": 60,
      "time": 64.821,
      "duration": 0.067,
      "velocity": 1,
      "hand": "right"
    },
    {
      "midi": 46,
      "time": 64.888,
      "duration": 0.067,
      "velocity": 1,
      "hand": "left"
    },
    {
      "midi": 58,
      "time": 64.888,
      "duration": 0.067,
      "velocity": 1,
      "hand": "left"
    },
    {
      "midi": 41,
      "time": 65.022,
      "duration": 0.067,
      "velocity": 1,
      "hand": "left"
    },
    {
      "midi": 53,
      "time": 65.022,
      "duration": 0.067,
      "velocity": 1,
      "hand": "left"
    },
    {
      "midi": 44,
      "time": 65.089,
      "duration": 0.067,
      "velocity": 1,
      "hand": "left"
    },
    {
      "midi": 56,
      "time": 65.089,
      "duration": 0.067,
      "velocity": 1,
      "hand": "left"
    },
    {
      "midi": 42,
      "time": 65.156,
      "duration": 0.067,
      "velocity": 1,
      "hand": "left"
    },
    {
      "midi": 54,
      "time": 65.156,
      "duration": 0.067,
      "velocity": 1,
      "hand": "left"
    },
    {
      "midi": 41,
      "time": 65.29,
      "duration": 0.067,
      "velocity": 1,
      "hand": "left"
    },
    {
      "midi": 53,
      "time": 65.29,
      "duration": 0.067,
      "velocity": 1,
      "hand": "left"
    },
    {
      "midi": 39,
      "time": 65.357,
      "duration": 0.067,
      "velocity": 1,
      "hand": "left"
    },
    {
      "midi": 51,
      "time": 65.357,
      "duration": 0.067,
      "velocity": 1,
      "hand": "left"
    },
    {
      "midi": 41,
      "time": 65.424,
      "duration": 0.067,
      "velocity": 1,
      "hand": "left"
    },
    {
      "midi": 53,
      "time": 65.424,
      "duration": 0.067,
      "velocity": 1,
      "hand": "left"
    },
    {
      "midi": 42,
      "time": 65.558,
      "duration": 0.067,
      "velocity": 1,
      "hand": "left"
    },
    {
      "midi": 54,
      "time": 65.558,
      "duration": 0.067,
      "velocity": 1,
      "hand": "left"
    },
    {
      "midi": 46,
      "time": 65.625,
      "duration": 0.067,
      "velocity": 1,
      "hand": "left"
    },
    {
      "midi": 58,
      "time": 65.625,
      "duration": 0.067,
      "velocity": 1,
      "hand": "left"
    },
    {
      "midi": 44,
      "time": 65.692,
      "duration": 0.067,
      "velocity": 1,
      "hand": "left"
    },
    {
      "midi": 56,
      "time": 65.692,
      "duration": 0.067,
      "velocity": 1,
      "hand": "left"
    },
    {
      "midi": 42,
      "time": 65.826,
      "duration": 0.067,
      "velocity": 1,
      "hand": "left"
    },
    {
      "midi": 54,
      "time": 65.826,
      "duration": 0.067,
      "velocity": 1,
      "hand": "left"
    },
    {
      "midi": 41,
      "time": 65.893,
      "duration": 0.067,
      "velocity": 1,
      "hand": "left"
    },
    {
      "midi": 53,
      "time": 65.893,
      "duration": 0.067,
      "velocity": 1,
      "hand": "left"
    },
    {
      "midi": 37,
      "time": 65.96,
      "duration": 0.067,
      "velocity": 1,
      "hand": "left"
    },
    {
      "midi": 49,
      "time": 65.96,
      "duration": 0.067,
      "velocity": 1,
      "hand": "left"
    },
    {
      "midi": 39,
      "time": 66.094,
      "duration": 0.067,
      "velocity": 1,
      "hand": "left"
    },
    {
      "midi": 51,
      "time": 66.094,
      "duration": 0.067,
      "velocity": 1,
      "hand": "left"
    },
    {
      "midi": 41,
      "time": 66.161,
      "duration": 0.067,
      "velocity": 1,
      "hand": "left"
    },
    {
      "midi": 53,
      "time": 66.161,
      "duration": 0.067,
      "velocity": 1,
      "hand": "left"
    },
    {
      "midi": 40,
      "time": 66.228,
      "duration": 0.067,
      "velocity": 1,
      "hand": "left"
    },
    {
      "midi": 52,
      "time": 66.228,
      "duration": 0.067,
      "velocity": 1,
      "hand": "left"
    },
    {
      "midi": 41,
      "time": 66.362,
      "duration": 0.067,
      "velocity": 1,
      "hand": "left"
    },
    {
      "midi": 53,
      "time": 66.362,
      "duration": 0.067,
      "velocity": 1,
      "hand": "left"
    },
    {
      "midi": 42,
      "time": 66.429,
      "duration": 0.067,
      "velocity": 1,
      "hand": "left"
    },
    {
      "midi": 54,
      "time": 66.429,
      "duration": 0.067,
      "velocity": 1,
      "hand": "left"
    },
    {
      "midi": 41,
      "time": 66.496,
      "duration": 0.067,
      "velocity": 1,
      "hand": "left"
    },
    {
      "midi": 53,
      "time": 66.496,
      "duration": 0.067,
      "velocity": 1,
      "hand": "left"
    },
    {
      "midi": 40,
      "time": 66.629,
      "duration": 0.067,
      "velocity": 1,
      "hand": "left"
    },
    {
      "midi": 52,
      "time": 66.629,
      "duration": 0.067,
      "velocity": 1,
      "hand": "left"
    },
    {
      "midi": 39,
      "time": 66.696,
      "duration": 0.067,
      "velocity": 1,
      "hand": "left"
    },
    {
      "midi": 51,
      "time": 66.696,
      "duration": 0.067,
      "velocity": 1,
      "hand": "left"
    },
    {
      "midi": 37,
      "time": 66.763,
      "duration": 0.067,
      "velocity": 1,
      "hand": "left"
    },
    {
      "midi": 49,
      "time": 66.763,
      "duration": 0.067,
      "velocity": 1,
      "hand": "left"
    },
    {
      "midi": 36,
      "time": 66.897,
      "duration": 0.067,
      "velocity": 1,
      "hand": "left"
    },
    {
      "midi": 48,
      "time": 66.897,
      "duration": 0.067,
      "velocity": 1,
      "hand": "left"
    },
    {
      "midi": 42,
      "time": 66.964,
      "duration": 0.067,
      "velocity": 1,
      "hand": "left"
    },
    {
      "midi": 54,
      "time": 66.964,
      "duration": 0.067,
      "velocity": 1,
      "hand": "left"
    },
    {
      "midi": 41,
      "time": 67.031,
      "duration": 0.067,
      "velocity": 1,
      "hand": "left"
    },
    {
      "midi": 53,
      "time": 67.031,
      "duration": 0.067,
      "velocity": 1,
      "hand": "left"
    },
    {
      "midi": 39,
      "time": 67.165,
      "duration": 0.067,
      "velocity": 1,
      "hand": "left"
    },
    {
      "midi": 51,
      "time": 67.165,
      "duration": 0.067,
      "velocity": 1,
      "hand": "left"
    },
    {
      "midi": 37,
      "time": 67.232,
      "duration": 0.067,
      "velocity": 1,
      "hand": "left"
    },
    {
      "midi": 49,
      "time": 67.232,
      "duration": 0.067,
      "velocity": 1,
      "hand": "left"
    },
    {
      "midi": 36,
      "time": 67.299,
      "duration": 0.067,
      "velocity": 1,
      "hand": "left"
    },
    {
      "midi": 48,
      "time": 67.299,
      "duration": 0.067,
      "velocity": 1,
      "hand": "left"
    },
    {
      "midi": 34,
      "time": 67.433,
      "duration": 0.067,
      "velocity": 1,
      "hand": "left"
    },
    {
      "midi": 46,
      "time": 67.433,
      "duration": 0.067,
      "velocity": 1,
      "hand": "left"
    },
    {
      "midi": 42,
      "time": 67.5,
      "duration": 0.067,
      "velocity": 1,
      "hand": "left"
    },
    {
      "midi": 54,
      "time": 67.5,
      "duration": 0.067,
      "velocity": 1,
      "hand": "left"
    },
    {
      "midi": 41,
      "time": 67.567,
      "duration": 0.067,
      "velocity": 1,
      "hand": "left"
    },
    {
      "midi": 53,
      "time": 67.567,
      "duration": 0.067,
      "velocity": 1,
      "hand": "left"
    },
    {
      "midi": 39,
      "time": 67.701,
      "duration": 0.067,
      "velocity": 1,
      "hand": "left"
    },
    {
      "midi": 51,
      "time": 67.701,
      "duration": 0.067,
      "velocity": 1,
      "hand": "left"
    },
    {
      "midi": 37,
      "time": 67.768,
      "duration": 0.067,
      "velocity": 1,
      "hand": "left"
    },
    {
      "midi": 49,
      "time": 67.768,
      "duration": 0.067,
      "velocity": 1,
      "hand": "left"
    },
    {
      "midi": 36,
      "time": 67.835,
      "duration": 0.067,
      "velocity": 1,
      "hand": "left"
    },
    {
      "midi": 48,
      "time": 67.835,
      "duration": 0.067,
      "velocity": 1,
      "hand": "left"
    },
    {
      "midi": 35,
      "time": 67.969,
      "duration": 0.067,
      "velocity": 1,
      "hand": "left"
    },
    {
      "midi": 47,
      "time": 67.969,
      "duration": 0.067,
      "velocity": 1,
      "hand": "left"
    },
    {
      "midi": 42,
      "time": 68.036,
      "duration": 0.067,
      "velocity": 1,
      "hand": "left"
    },
    {
      "midi": 54,
      "time": 68.036,
      "duration": 0.067,
      "velocity": 1,
      "hand": "left"
    },
    {
      "midi": 41,
      "time": 68.103,
      "duration": 0.067,
      "velocity": 1,
      "hand": "left"
    },
    {
      "midi": 53,
      "time": 68.103,
      "duration": 0.067,
      "velocity": 1,
      "hand": "left"
    },
    {
      "midi": 39,
      "time": 68.237,
      "duration": 0.067,
      "velocity": 1,
      "hand": "left"
    },
    {
      "midi": 51,
      "time": 68.237,
      "duration": 0.067,
      "velocity": 1,
      "hand": "left"
    },
    {
      "midi": 37,
      "time": 68.304,
      "duration": 0.067,
      "velocity": 1,
      "hand": "left"
    },
    {
      "midi": 49,
      "time": 68.304,
      "duration": 0.067,
      "velocity": 1,
      "hand": "left"
    },
    {
      "midi": 35,
      "time": 68.371,
      "duration": 0.067,
      "velocity": 1,
      "hand": "left"
    },
    {
      "midi": 47,
      "time": 68.371,
      "duration": 0.067,
      "velocity": 1,
      "hand": "left"
    },
    {
      "midi": 34,
      "time": 68.504,
      "duration": 0.067,
      "velocity": 1,
      "hand": "left"
    },
    {
      "midi": 46,
      "time": 68.504,
      "duration": 0.067,
      "velocity": 1,
      "hand": "left"
    },
    {
      "midi": 33,
      "time": 68.571,
      "duration": 0.067,
      "velocity": 1,
      "hand": "left"
    },
    {
      "midi": 45,
      "time": 68.571,
      "duration": 0.067,
      "velocity": 1,
      "hand": "left"
    },
    {
      "midi": 34,
      "time": 68.638,
      "duration": 0.067,
      "velocity": 1,
      "hand": "left"
    },
    {
      "midi": 46,
      "time": 68.638,
      "duration": 0.067,
      "velocity": 1,
      "hand": "left"
    },
    {
      "midi": 35,
      "time": 68.772,
      "duration": 0.067,
      "velocity": 1,
      "hand": "left"
    },
    {
      "midi": 47,
      "time": 68.772,
      "duration": 0.067,
      "velocity": 1,
      "hand": "left"
    },
    {
      "midi": 37,
      "time": 68.839,
      "duration": 0.067,
      "velocity": 1,
      "hand": "left"
    },
    {
      "midi": 49,
      "time": 68.839,
      "duration": 0.067,
      "velocity": 1,
      "hand": "left"
    },
    {
      "midi": 39,
      "time": 68.906,
      "duration": 0.067,
      "velocity": 1,
      "hand": "left"
    },
    {
      "midi": 51,
      "time": 68.906,
      "duration": 0.067,
      "velocity": 1,
      "hand": "left"
    },
    {
      "midi": 41,
      "time": 69.04,
      "duration": 0.067,
      "velocity": 1,
      "hand": "left"
    },
    {
      "midi": 53,
      "time": 69.04,
      "duration": 0.067,
      "velocity": 1,
      "hand": "left"
    },
    {
      "midi": 42,
      "time": 69.107,
      "duration": 0.067,
      "velocity": 1,
      "hand": "left"
    },
    {
      "midi": 54,
      "time": 69.107,
      "duration": 0.067,
      "velocity": 1,
      "hand": "left"
    },
    {
      "midi": 44,
      "time": 69.174,
      "duration": 0.067,
      "velocity": 1,
      "hand": "left"
    },
    {
      "midi": 56,
      "time": 69.174,
      "duration": 0.067,
      "velocity": 1,
      "hand": "left"
    },
    {
      "midi": 46,
      "time": 69.308,
      "duration": 0.067,
      "velocity": 1,
      "hand": "left"
    },
    {
      "midi": 58,
      "time": 69.308,
      "duration": 0.067,
      "velocity": 1,
      "hand": "left"
    },
    {
      "midi": 47,
      "time": 69.375,
      "duration": 0.067,
      "velocity": 1,
      "hand": "left"
    },
    {
      "midi": 59,
      "time": 69.375,
      "duration": 0.067,
      "velocity": 1,
      "hand": "left"
    },
    {
      "midi": 49,
      "time": 69.442,
      "duration": 0.067,
      "velocity": 1,
      "hand": "left"
    },
    {
      "midi": 61,
      "time": 69.442,
      "duration": 0.067,
      "velocity": 1,
      "hand": "right"
    },
    {
      "midi": 51,
      "time": 69.576,
      "duration": 0.067,
      "velocity": 1,
      "hand": "left"
    },
    {
      "midi": 63,
      "time": 69.576,
      "duration": 0.067,
      "velocity": 1,
      "hand": "right"
    },
    {
      "midi": 53,
      "time": 69.643,
      "duration": 0.067,
      "velocity": 1,
      "hand": "left"
    },
    {
      "midi": 65,
      "time": 69.643,
      "duration": 0.067,
      "velocity": 1,
      "hand": "right"
    },
    {
      "midi": 52,
      "time": 69.71,
      "duration": 0.067,
      "velocity": 1,
      "hand": "left"
    },
    {
      "midi": 64,
      "time": 69.71,
      "duration": 0.067,
      "velocity": 1,
      "hand": "right"
    },
    {
      "midi": 49,
      "time": 69.844,
      "duration": 0.067,
      "velocity": 1,
      "hand": "left"
    },
    {
      "midi": 61,
      "time": 69.844,
      "duration": 0.067,
      "velocity": 1,
      "hand": "right"
    },
    {
      "midi": 48,
      "time": 69.911,
      "duration": 0.067,
      "velocity": 1,
      "hand": "left"
    },
    {
      "midi": 60,
      "time": 69.911,
      "duration": 0.067,
      "velocity": 1,
      "hand": "right"
    },
    {
      "midi": 46,
      "time": 69.978,
      "duration": 0.067,
      "velocity": 1,
      "hand": "left"
    },
    {
      "midi": 58,
      "time": 69.978,
      "duration": 0.067,
      "velocity": 1,
      "hand": "left"
    },
    {
      "midi": 42,
      "time": 70.112,
      "duration": 0.067,
      "velocity": 1,
      "hand": "left"
    },
    {
      "midi": 54,
      "time": 70.112,
      "duration": 0.067,
      "velocity": 1,
      "hand": "left"
    },
    {
      "midi": 41,
      "time": 70.179,
      "duration": 0.067,
      "velocity": 1,
      "hand": "left"
    },
    {
      "midi": 53,
      "time": 70.179,
      "duration": 0.067,
      "velocity": 1,
      "hand": "left"
    },
    {
      "midi": 40,
      "time": 70.246,
      "duration": 0.067,
      "velocity": 1,
      "hand": "left"
    },
    {
      "midi": 52,
      "time": 70.246,
      "duration": 0.067,
      "velocity": 1,
      "hand": "left"
    },
    {
      "midi": 37,
      "time": 70.379,
      "duration": 0.067,
      "velocity": 1,
      "hand": "left"
    },
    {
      "midi": 49,
      "time": 70.379,
      "duration": 0.067,
      "velocity": 1,
      "hand": "left"
    },
    {
      "midi": 36,
      "time": 70.446,
      "duration": 0.067,
      "velocity": 1,
      "hand": "left"
    },
    {
      "midi": 48,
      "time": 70.446,
      "duration": 0.067,
      "velocity": 1,
      "hand": "left"
    },
    {
      "midi": 34,
      "time": 70.513,
      "duration": 0.067,
      "velocity": 1,
      "hand": "left"
    },
    {
      "midi": 46,
      "time": 70.513,
      "duration": 0.067,
      "velocity": 1,
      "hand": "left"
    },
    {
      "midi": 30,
      "time": 70.647,
      "duration": 0.067,
      "velocity": 1,
      "hand": "left"
    },
    {
      "midi": 42,
      "time": 70.647,
      "duration": 0.067,
      "velocity": 1,
      "hand": "left"
    },
    {
      "midi": 29,
      "time": 70.714,
      "duration": 0.067,
      "velocity": 1,
      "hand": "left"
    },
    {
      "midi": 41,
      "time": 70.714,
      "duration": 0.067,
      "velocity": 1,
      "hand": "left"
    },
    {
      "midi": 34,
      "time": 70.781,
      "duration": 0.067,
      "velocity": 1,
      "hand": "left"
    },
    {
      "midi": 46,
      "time": 70.781,
      "duration": 0.067,
      "velocity": 1,
      "hand": "left"
    },
    {
      "midi": 32,
      "time": 70.915,
      "duration": 0.067,
      "velocity": 1,
      "hand": "left"
    },
    {
      "midi": 44,
      "time": 70.915,
      "duration": 0.067,
      "velocity": 1,
      "hand": "left"
    },
    {
      "midi": 33,
      "time": 70.982,
      "duration": 0.067,
      "velocity": 1,
      "hand": "left"
    },
    {
      "midi": 45,
      "time": 70.982,
      "duration": 0.067,
      "velocity": 1,
      "hand": "left"
    },
    {
      "midi": 37,
      "time": 71.049,
      "duration": 0.067,
      "velocity": 1,
      "hand": "left"
    },
    {
      "midi": 49,
      "time": 71.049,
      "duration": 0.067,
      "velocity": 1,
      "hand": "left"
    },
    {
      "midi": 33,
      "time": 71.183,
      "duration": 0.067,
      "velocity": 1,
      "hand": "left"
    },
    {
      "midi": 45,
      "time": 71.183,
      "duration": 0.067,
      "velocity": 1,
      "hand": "left"
    },
    {
      "midi": 34,
      "time": 71.25,
      "duration": 0.067,
      "velocity": 1,
      "hand": "left"
    },
    {
      "midi": 46,
      "time": 71.25,
      "duration": 0.067,
      "velocity": 1,
      "hand": "left"
    },
    {
      "midi": 39,
      "time": 71.317,
      "duration": 0.067,
      "velocity": 1,
      "hand": "left"
    },
    {
      "midi": 51,
      "time": 71.317,
      "duration": 0.067,
      "velocity": 1,
      "hand": "left"
    },
    {
      "midi": 35,
      "time": 71.451,
      "duration": 0.067,
      "velocity": 1,
      "hand": "left"
    },
    {
      "midi": 47,
      "time": 71.451,
      "duration": 0.067,
      "velocity": 1,
      "hand": "left"
    },
    {
      "midi": 36,
      "time": 71.518,
      "duration": 0.067,
      "velocity": 1,
      "hand": "left"
    },
    {
      "midi": 48,
      "time": 71.518,
      "duration": 0.067,
      "velocity": 1,
      "hand": "left"
    },
    {
      "midi": 41,
      "time": 71.585,
      "duration": 0.067,
      "velocity": 1,
      "hand": "left"
    },
    {
      "midi": 53,
      "time": 71.585,
      "duration": 0.067,
      "velocity": 1,
      "hand": "left"
    },
    {
      "midi": 36,
      "time": 71.719,
      "duration": 0.067,
      "velocity": 1,
      "hand": "left"
    },
    {
      "midi": 48,
      "time": 71.719,
      "duration": 0.067,
      "velocity": 1,
      "hand": "left"
    },
    {
      "midi": 37,
      "time": 71.786,
      "duration": 0.067,
      "velocity": 1,
      "hand": "left"
    },
    {
      "midi": 49,
      "time": 71.786,
      "duration": 0.067,
      "velocity": 1,
      "hand": "left"
    },
    {
      "midi": 42,
      "time": 71.853,
      "duration": 0.067,
      "velocity": 1,
      "hand": "left"
    },
    {
      "midi": 54,
      "time": 71.853,
      "duration": 0.067,
      "velocity": 1,
      "hand": "left"
    },
    {
      "midi": 38,
      "time": 71.987,
      "duration": 0.067,
      "velocity": 1,
      "hand": "left"
    },
    {
      "midi": 50,
      "time": 71.987,
      "duration": 0.067,
      "velocity": 1,
      "hand": "left"
    },
    {
      "midi": 39,
      "time": 72.054,
      "duration": 0.067,
      "velocity": 1,
      "hand": "left"
    },
    {
      "midi": 51,
      "time": 72.054,
      "duration": 0.067,
      "velocity": 1,
      "hand": "left"
    },
    {
      "midi": 45,
      "time": 72.121,
      "duration": 0.067,
      "velocity": 1,
      "hand": "left"
    },
    {
      "midi": 57,
      "time": 72.121,
      "duration": 0.067,
      "velocity": 1,
      "hand": "left"
    },
    {
      "midi": 41,
      "time": 72.254,
      "duration": 0.067,
      "velocity": 1,
      "hand": "left"
    },
    {
      "midi": 53,
      "time": 72.254,
      "duration": 0.067,
      "velocity": 1,
      "hand": "left"
    },
    {
      "midi": 42,
      "time": 72.321,
      "duration": 0.067,
      "velocity": 1,
      "hand": "left"
    },
    {
      "midi": 54,
      "time": 72.321,
      "duration": 0.067,
      "velocity": 1,
      "hand": "left"
    },
    {
      "midi": 49,
      "time": 72.388,
      "duration": 0.067,
      "velocity": 1,
      "hand": "left"
    },
    {
      "midi": 61,
      "time": 72.388,
      "duration": 0.067,
      "velocity": 1,
      "hand": "right"
    },
    {
      "midi": 45,
      "time": 72.522,
      "duration": 0.067,
      "velocity": 1,
      "hand": "left"
    },
    {
      "midi": 57,
      "time": 72.522,
      "duration": 0.067,
      "velocity": 1,
      "hand": "left"
    },
    {
      "midi": 48,
      "time": 72.589,
      "duration": 0.067,
      "velocity": 1,
      "hand": "left"
    },
    {
      "midi": 60,
      "time": 72.589,
      "duration": 0.067,
      "velocity": 1,
      "hand": "right"
    },
    {
      "midi": 54,
      "time": 72.656,
      "duration": 0.067,
      "velocity": 1,
      "hand": "left"
    },
    {
      "midi": 66,
      "time": 72.656,
      "duration": 0.067,
      "velocity": 1,
      "hand": "right"
    },
    {
      "midi": 53,
      "time": 72.79,
      "duration": 0.067,
      "velocity": 1,
      "hand": "left"
    },
    {
      "midi": 65,
      "time": 72.79,
      "duration": 0.067,
      "velocity": 1,
      "hand": "right"
    },
    {
      "midi": 45,
      "time": 72.857,
      "duration": 0.067,
      "velocity": 1,
      "hand": "left"
    },
    {
      "midi": 57,
      "time": 72.857,
      "duration": 0.067,
      "velocity": 1,
      "hand": "left"
    },
    {
      "midi": 49,
      "time": 72.924,
      "duration": 0.067,
      "velocity": 1,
      "hand": "left"
    },
    {
      "midi": 61,
      "time": 72.924,
      "duration": 0.067,
      "velocity": 1,
      "hand": "right"
    },
    {
      "midi": 45,
      "time": 73.058,
      "duration": 0.067,
      "velocity": 1,
      "hand": "left"
    },
    {
      "midi": 57,
      "time": 73.058,
      "duration": 0.067,
      "velocity": 1,
      "hand": "left"
    },
    {
      "midi": 48,
      "time": 73.125,
      "duration": 0.067,
      "velocity": 1,
      "hand": "left"
    },
    {
      "midi": 60,
      "time": 73.125,
      "duration": 0.067,
      "velocity": 1,
      "hand": "right"
    },
    {
      "midi": 54,
      "time": 73.192,
      "duration": 0.067,
      "velocity": 1,
      "hand": "left"
    },
    {
      "midi": 66,
      "time": 73.192,
      "duration": 0.067,
      "velocity": 1,
      "hand": "right"
    },
    {
      "midi": 53,
      "time": 73.326,
      "duration": 0.067,
      "velocity": 1,
      "hand": "left"
    },
    {
      "midi": 65,
      "time": 73.326,
      "duration": 0.067,
      "velocity": 1,
      "hand": "right"
    },
    {
      "midi": 45,
      "time": 73.393,
      "duration": 0.067,
      "velocity": 1,
      "hand": "left"
    },
    {
      "midi": 57,
      "time": 73.393,
      "duration": 0.067,
      "velocity": 1,
      "hand": "left"
    },
    {
      "midi": 49,
      "time": 73.46,
      "duration": 0.067,
      "velocity": 1,
      "hand": "left"
    },
    {
      "midi": 61,
      "time": 73.46,
      "duration": 0.067,
      "velocity": 1,
      "hand": "right"
    },
    {
      "midi": 45,
      "time": 73.594,
      "duration": 0.067,
      "velocity": 1,
      "hand": "left"
    },
    {
      "midi": 57,
      "time": 73.594,
      "duration": 0.067,
      "velocity": 1,
      "hand": "left"
    },
    {
      "midi": 48,
      "time": 73.661,
      "duration": 0.067,
      "velocity": 1,
      "hand": "left"
    },
    {
      "midi": 60,
      "time": 73.661,
      "duration": 0.067,
      "velocity": 1,
      "hand": "right"
    },
    {
      "midi": 54,
      "time": 73.728,
      "duration": 0.067,
      "velocity": 1,
      "hand": "left"
    },
    {
      "midi": 66,
      "time": 73.728,
      "duration": 0.067,
      "velocity": 1,
      "hand": "right"
    },
    {
      "midi": 53,
      "time": 73.862,
      "duration": 0.067,
      "velocity": 1,
      "hand": "left"
    },
    {
      "midi": 65,
      "time": 73.862,
      "duration": 0.067,
      "velocity": 1,
      "hand": "right"
    },
    {
      "midi": 48,
      "time": 73.929,
      "duration": 0.067,
      "velocity": 1,
      "hand": "left"
    },
    {
      "midi": 60,
      "time": 73.929,
      "duration": 0.067,
      "velocity": 1,
      "hand": "right"
    },
    {
      "midi": 54,
      "time": 73.996,
      "duration": 0.067,
      "velocity": 1,
      "hand": "left"
    },
    {
      "midi": 66,
      "time": 73.996,
      "duration": 0.067,
      "velocity": 1,
      "hand": "right"
    },
    {
      "midi": 53,
      "time": 74.129,
      "duration": 0.067,
      "velocity": 1,
      "hand": "left"
    },
    {
      "midi": 65,
      "time": 74.129,
      "duration": 0.067,
      "velocity": 1,
      "hand": "right"
    },
    {
      "midi": 48,
      "time": 74.196,
      "duration": 0.067,
      "velocity": 1,
      "hand": "left"
    },
    {
      "midi": 60,
      "time": 74.196,
      "duration": 0.067,
      "velocity": 1,
      "hand": "right"
    },
    {
      "midi": 54,
      "time": 74.263,
      "duration": 0.067,
      "velocity": 1,
      "hand": "left"
    },
    {
      "midi": 66,
      "time": 74.263,
      "duration": 0.067,
      "velocity": 1,
      "hand": "right"
    },
    {
      "midi": 53,
      "time": 74.397,
      "duration": 0.067,
      "velocity": 1,
      "hand": "left"
    },
    {
      "midi": 65,
      "time": 74.397,
      "duration": 0.067,
      "velocity": 1,
      "hand": "right"
    },
    {
      "midi": 48,
      "time": 74.464,
      "duration": 0.067,
      "velocity": 1,
      "hand": "left"
    },
    {
      "midi": 60,
      "time": 74.464,
      "duration": 0.067,
      "velocity": 1,
      "hand": "right"
    },
    {
      "midi": 54,
      "time": 74.531,
      "duration": 0.067,
      "velocity": 1,
      "hand": "left"
    },
    {
      "midi": 66,
      "time": 74.531,
      "duration": 0.067,
      "velocity": 1,
      "hand": "right"
    },
    {
      "midi": 53,
      "time": 74.665,
      "duration": 0.067,
      "velocity": 1,
      "hand": "left"
    },
    {
      "midi": 65,
      "time": 74.665,
      "duration": 0.067,
      "velocity": 1,
      "hand": "right"
    },
    {
      "midi": 46,
      "time": 74.732,
      "duration": 0.067,
      "velocity": 1,
      "hand": "left"
    },
    {
      "midi": 58,
      "time": 74.732,
      "duration": 0.067,
      "velocity": 1,
      "hand": "left"
    },
    {
      "midi": 54,
      "time": 74.799,
      "duration": 0.067,
      "velocity": 1,
      "hand": "left"
    },
    {
      "midi": 66,
      "time": 74.799,
      "duration": 0.067,
      "velocity": 1,
      "hand": "right"
    },
    {
      "midi": 53,
      "time": 74.933,
      "duration": 0.067,
      "velocity": 1,
      "hand": "left"
    },
    {
      "midi": 65,
      "time": 74.933,
      "duration": 0.067,
      "velocity": 1,
      "hand": "right"
    },
    {
      "midi": 49,
      "time": 75,
      "duration": 0.067,
      "velocity": 1,
      "hand": "left"
    },
    {
      "midi": 61,
      "time": 75,
      "duration": 0.067,
      "velocity": 1,
      "hand": "right"
    },
    {
      "midi": 41,
      "time": 75.067,
      "duration": 0.067,
      "velocity": 1,
      "hand": "left"
    },
    {
      "midi": 53,
      "time": 75.067,
      "duration": 0.067,
      "velocity": 1,
      "hand": "left"
    },
    {
      "midi": 51,
      "time": 75.201,
      "duration": 0.067,
      "velocity": 1,
      "hand": "left"
    },
    {
      "midi": 63,
      "time": 75.201,
      "duration": 0.067,
      "velocity": 1,
      "hand": "right"
    },
    {
      "midi": 53,
      "time": 75.268,
      "duration": 0.067,
      "velocity": 1,
      "hand": "left"
    },
    {
      "midi": 65,
      "time": 75.268,
      "duration": 0.067,
      "velocity": 1,
      "hand": "right"
    },
    {
      "midi": 51,
      "time": 75.335,
      "duration": 0.067,
      "velocity": 1,
      "hand": "left"
    },
    {
      "midi": 63,
      "time": 75.335,
      "duration": 0.067,
      "velocity": 1,
      "hand": "right"
    },
    {
      "midi": 49,
      "time": 75.469,
      "duration": 0.067,
      "velocity": 1,
      "hand": "left"
    },
    {
      "midi": 61,
      "time": 75.469,
      "duration": 0.067,
      "velocity": 1,
      "hand": "right"
    },
    {
      "midi": 46,
      "time": 75.536,
      "duration": 0.067,
      "velocity": 1,
      "hand": "left"
    },
    {
      "midi": 58,
      "time": 75.536,
      "duration": 0.067,
      "velocity": 1,
      "hand": "left"
    },
    {
      "midi": 41,
      "time": 75.603,
      "duration": 0.067,
      "velocity": 1,
      "hand": "left"
    },
    {
      "midi": 53,
      "time": 75.603,
      "duration": 0.067,
      "velocity": 1,
      "hand": "left"
    },
    {
      "midi": 48,
      "time": 75.737,
      "duration": 0.067,
      "velocity": 1,
      "hand": "left"
    },
    {
      "midi": 60,
      "time": 75.737,
      "duration": 0.067,
      "velocity": 1,
      "hand": "right"
    },
    {
      "midi": 49,
      "time": 75.804,
      "duration": 0.067,
      "velocity": 1,
      "hand": "left"
    },
    {
      "midi": 61,
      "time": 75.804,
      "duration": 0.067,
      "velocity": 1,
      "hand": "right"
    },
    {
      "midi": 48,
      "time": 75.871,
      "duration": 0.067,
      "velocity": 1,
      "hand": "left"
    },
    {
      "midi": 60,
      "time": 75.871,
      "duration": 0.067,
      "velocity": 1,
      "hand": "right"
    },
    {
      "midi": 46,
      "time": 76.004,
      "duration": 0.067,
      "velocity": 1,
      "hand": "left"
    },
    {
      "midi": 58,
      "time": 76.004,
      "duration": 0.067,
      "velocity": 1,
      "hand": "left"
    },
    {
      "midi": 49,
      "time": 76.071,
      "duration": 0.067,
      "velocity": 1,
      "hand": "left"
    },
    {
      "midi": 61,
      "time": 76.071,
      "duration": 0.067,
      "velocity": 1,
      "hand": "right"
    },
    {
      "midi": 41,
      "time": 76.138,
      "duration": 0.067,
      "velocity": 1,
      "hand": "left"
    },
    {
      "midi": 53,
      "time": 76.138,
      "duration": 0.067,
      "velocity": 1,
      "hand": "left"
    },
    {
      "midi": 51,
      "time": 76.272,
      "duration": 0.067,
      "velocity": 1,
      "hand": "left"
    },
    {
      "midi": 63,
      "time": 76.272,
      "duration": 0.067,
      "velocity": 1,
      "hand": "right"
    },
    {
      "midi": 53,
      "time": 76.339,
      "duration": 0.067,
      "velocity": 1,
      "hand": "left"
    },
    {
      "midi": 65,
      "time": 76.339,
      "duration": 0.067,
      "velocity": 1,
      "hand": "right"
    },
    {
      "midi": 51,
      "time": 76.406,
      "duration": 0.067,
      "velocity": 1,
      "hand": "left"
    },
    {
      "midi": 63,
      "time": 76.406,
      "duration": 0.067,
      "velocity": 1,
      "hand": "right"
    },
    {
      "midi": 49,
      "time": 76.54,
      "duration": 0.067,
      "velocity": 1,
      "hand": "left"
    },
    {
      "midi": 61,
      "time": 76.54,
      "duration": 0.067,
      "velocity": 1,
      "hand": "right"
    },
    {
      "midi": 46,
      "time": 76.607,
      "duration": 0.067,
      "velocity": 1,
      "hand": "left"
    },
    {
      "midi": 58,
      "time": 76.607,
      "duration": 0.067,
      "velocity": 1,
      "hand": "left"
    },
    {
      "midi": 41,
      "time": 76.674,
      "duration": 0.067,
      "velocity": 1,
      "hand": "left"
    },
    {
      "midi": 53,
      "time": 76.674,
      "duration": 0.067,
      "velocity": 1,
      "hand": "left"
    },
    {
      "midi": 48,
      "time": 76.808,
      "duration": 0.067,
      "velocity": 1,
      "hand": "left"
    },
    {
      "midi": 60,
      "time": 76.808,
      "duration": 0.067,
      "velocity": 1,
      "hand": "right"
    },
    {
      "midi": 49,
      "time": 76.875,
      "duration": 0.067,
      "velocity": 1,
      "hand": "left"
    },
    {
      "midi": 61,
      "time": 76.875,
      "duration": 0.067,
      "velocity": 1,
      "hand": "right"
    },
    {
      "midi": 48,
      "time": 76.942,
      "duration": 0.067,
      "velocity": 1,
      "hand": "left"
    },
    {
      "midi": 60,
      "time": 76.942,
      "duration": 0.067,
      "velocity": 1,
      "hand": "right"
    },
    {
      "midi": 46,
      "time": 77.076,
      "duration": 0.067,
      "velocity": 1,
      "hand": "left"
    },
    {
      "midi": 58,
      "time": 77.076,
      "duration": 0.067,
      "velocity": 1,
      "hand": "left"
    },
    {
      "midi": 39,
      "time": 77.143,
      "duration": 0.067,
      "velocity": 1,
      "hand": "left"
    },
    {
      "midi": 51,
      "time": 77.143,
      "duration": 0.067,
      "velocity": 1,
      "hand": "left"
    },
    {
      "midi": 41,
      "time": 77.21,
      "duration": 0.067,
      "velocity": 1,
      "hand": "left"
    },
    {
      "midi": 53,
      "time": 77.21,
      "duration": 0.067,
      "velocity": 1,
      "hand": "left"
    },
    {
      "midi": 46,
      "time": 77.344,
      "duration": 0.067,
      "velocity": 1,
      "hand": "left"
    },
    {
      "midi": 58,
      "time": 77.344,
      "duration": 0.067,
      "velocity": 1,
      "hand": "left"
    },
    {
      "midi": 49,
      "time": 77.411,
      "duration": 0.067,
      "velocity": 1,
      "hand": "left"
    },
    {
      "midi": 61,
      "time": 77.411,
      "duration": 0.067,
      "velocity": 1,
      "hand": "right"
    },
    {
      "midi": 37,
      "time": 77.478,
      "duration": 0.067,
      "velocity": 1,
      "hand": "left"
    },
    {
      "midi": 49,
      "time": 77.478,
      "duration": 0.067,
      "velocity": 1,
      "hand": "left"
    },
    {
      "midi": 41,
      "time": 77.612,
      "duration": 0.067,
      "velocity": 1,
      "hand": "left"
    },
    {
      "midi": 53,
      "time": 77.612,
      "duration": 0.067,
      "velocity": 1,
      "hand": "left"
    },
    {
      "midi": 39,
      "time": 77.679,
      "duration": 0.067,
      "velocity": 1,
      "hand": "left"
    },
    {
      "midi": 51,
      "time": 77.679,
      "duration": 0.067,
      "velocity": 1,
      "hand": "left"
    },
    {
      "midi": 41,
      "time": 77.746,
      "duration": 0.067,
      "velocity": 1,
      "hand": "left"
    },
    {
      "midi": 53,
      "time": 77.746,
      "duration": 0.067,
      "velocity": 1,
      "hand": "left"
    },
    {
      "midi": 46,
      "time": 77.879,
      "duration": 0.067,
      "velocity": 1,
      "hand": "left"
    },
    {
      "midi": 58,
      "time": 77.879,
      "duration": 0.067,
      "velocity": 1,
      "hand": "left"
    },
    {
      "midi": 49,
      "time": 77.946,
      "duration": 0.067,
      "velocity": 1,
      "hand": "left"
    },
    {
      "midi": 61,
      "time": 77.946,
      "duration": 0.067,
      "velocity": 1,
      "hand": "right"
    },
    {
      "midi": 37,
      "time": 78.013,
      "duration": 0.067,
      "velocity": 1,
      "hand": "left"
    },
    {
      "midi": 49,
      "time": 78.013,
      "duration": 0.067,
      "velocity": 1,
      "hand": "left"
    },
    {
      "midi": 41,
      "time": 78.147,
      "duration": 0.067,
      "velocity": 1,
      "hand": "left"
    },
    {
      "midi": 53,
      "time": 78.147,
      "duration": 0.067,
      "velocity": 1,
      "hand": "left"
    },
    {
      "midi": 36,
      "time": 78.214,
      "duration": 0.067,
      "velocity": 1,
      "hand": "left"
    },
    {
      "midi": 48,
      "time": 78.214,
      "duration": 0.067,
      "velocity": 1,
      "hand": "left"
    },
    {
      "midi": 37,
      "time": 78.281,
      "duration": 0.067,
      "velocity": 1,
      "hand": "left"
    },
    {
      "midi": 49,
      "time": 78.281,
      "duration": 0.067,
      "velocity": 1,
      "hand": "left"
    },
    {
      "midi": 41,
      "time": 78.415,
      "duration": 0.067,
      "velocity": 1,
      "hand": "left"
    },
    {
      "midi": 53,
      "time": 78.415,
      "duration": 0.067,
      "velocity": 1,
      "hand": "left"
    },
    {
      "midi": 46,
      "time": 78.482,
      "duration": 0.067,
      "velocity": 1,
      "hand": "left"
    },
    {
      "midi": 58,
      "time": 78.482,
      "duration": 0.067,
      "velocity": 1,
      "hand": "left"
    },
    {
      "midi": 34,
      "time": 78.549,
      "duration": 0.067,
      "velocity": 1,
      "hand": "left"
    },
    {
      "midi": 46,
      "time": 78.549,
      "duration": 0.067,
      "velocity": 1,
      "hand": "left"
    },
    {
      "midi": 37,
      "time": 78.683,
      "duration": 0.067,
      "velocity": 1,
      "hand": "left"
    },
    {
      "midi": 49,
      "time": 78.683,
      "duration": 0.067,
      "velocity": 1,
      "hand": "left"
    },
    {
      "midi": 36,
      "time": 78.75,
      "duration": 0.067,
      "velocity": 1,
      "hand": "left"
    },
    {
      "midi": 48,
      "time": 78.75,
      "duration": 0.067,
      "velocity": 1,
      "hand": "left"
    },
    {
      "midi": 37,
      "time": 78.817,
      "duration": 0.067,
      "velocity": 1,
      "hand": "left"
    },
    {
      "midi": 49,
      "time": 78.817,
      "duration": 0.067,
      "velocity": 1,
      "hand": "left"
    },
    {
      "midi": 41,
      "time": 78.951,
      "duration": 0.067,
      "velocity": 1,
      "hand": "left"
    },
    {
      "midi": 53,
      "time": 78.951,
      "duration": 0.067,
      "velocity": 1,
      "hand": "left"
    },
    {
      "midi": 46,
      "time": 79.018,
      "duration": 0.067,
      "velocity": 1,
      "hand": "left"
    },
    {
      "midi": 58,
      "time": 79.018,
      "duration": 0.067,
      "velocity": 1,
      "hand": "left"
    },
    {
      "midi": 34,
      "time": 79.085,
      "duration": 0.067,
      "velocity": 1,
      "hand": "left"
    },
    {
      "midi": 46,
      "time": 79.085,
      "duration": 0.067,
      "velocity": 1,
      "hand": "left"
    },
    {
      "midi": 37,
      "time": 79.219,
      "duration": 0.067,
      "velocity": 1,
      "hand": "left"
    },
    {
      "midi": 49,
      "time": 79.219,
      "duration": 0.067,
      "velocity": 1,
      "hand": "left"
    },
    {
      "midi": 36,
      "time": 79.821,
      "duration": 0.067,
      "velocity": 1,
      "hand": "left"
    },
    {
      "midi": 48,
      "time": 79.821,
      "duration": 0.067,
      "velocity": 1,
      "hand": "left"
    },
    {
      "midi": 37,
      "time": 79.888,
      "duration": 0.067,
      "velocity": 1,
      "hand": "left"
    },
    {
      "midi": 49,
      "time": 79.888,
      "duration": 0.067,
      "velocity": 1,
      "hand": "left"
    },
    {
      "midi": 41,
      "time": 80.022,
      "duration": 0.067,
      "velocity": 1,
      "hand": "left"
    },
    {
      "midi": 53,
      "time": 80.022,
      "duration": 0.067,
      "velocity": 1,
      "hand": "left"
    },
    {
      "midi": 46,
      "time": 80.089,
      "duration": 0.067,
      "velocity": 1,
      "hand": "left"
    },
    {
      "midi": 58,
      "time": 80.089,
      "duration": 0.067,
      "velocity": 1,
      "hand": "left"
    },
    {
      "midi": 34,
      "time": 80.156,
      "duration": 0.067,
      "velocity": 1,
      "hand": "left"
    },
    {
      "midi": 46,
      "time": 80.156,
      "duration": 0.067,
      "velocity": 1,
      "hand": "left"
    },
    {
      "midi": 37,
      "time": 80.29,
      "duration": 0.067,
      "velocity": 1,
      "hand": "left"
    },
    {
      "midi": 49,
      "time": 80.29,
      "duration": 0.067,
      "velocity": 1,
      "hand": "left"
    },
    {
      "midi": 36,
      "time": 80.893,
      "duration": 0.067,
      "velocity": 1,
      "hand": "left"
    },
    {
      "midi": 48,
      "time": 80.893,
      "duration": 0.067,
      "velocity": 1,
      "hand": "left"
    },
    {
      "midi": 37,
      "time": 80.96,
      "duration": 0.067,
      "velocity": 1,
      "hand": "left"
    },
    {
      "midi": 49,
      "time": 80.96,
      "duration": 0.067,
      "velocity": 1,
      "hand": "left"
    },
    {
      "midi": 41,
      "time": 81.094,
      "duration": 0.067,
      "velocity": 1,
      "hand": "left"
    },
    {
      "midi": 53,
      "time": 81.094,
      "duration": 0.067,
      "velocity": 1,
      "hand": "left"
    },
    {
      "midi": 46,
      "time": 81.161,
      "duration": 0.067,
      "velocity": 1,
      "hand": "left"
    },
    {
      "midi": 58,
      "time": 81.161,
      "duration": 0.067,
      "velocity": 1,
      "hand": "left"
    },
    {
      "midi": 34,
      "time": 81.228,
      "duration": 0.067,
      "velocity": 1,
      "hand": "left"
    },
    {
      "midi": 46,
      "time": 81.228,
      "duration": 0.067,
      "velocity": 1,
      "hand": "left"
    },
    {
      "midi": 37,
      "time": 81.362,
      "duration": 0.067,
      "velocity": 1,
      "hand": "left"
    },
    {
      "midi": 49,
      "time": 81.362,
      "duration": 0.067,
      "velocity": 1,
      "hand": "left"
    },
    {
      "midi": 34,
      "time": 81.429,
      "duration": 0.268,
      "velocity": 1,
      "hand": "left"
    },
    {
      "midi": 46,
      "time": 81.429,
      "duration": 0.268,
      "velocity": 1,
      "hand": "left"
    },
    {
      "midi": 53,
      "time": 81.964,
      "duration": 0.536,
      "velocity": 1,
      "hand": "left"
    },
    {
      "midi": 58,
      "time": 81.964,
      "duration": 0.536,
      "velocity": 1,
      "hand": "left"
    },
    {
      "midi": 61,
      "time": 81.964,
      "duration": 0.536,
      "velocity": 1,
      "hand": "right"
    },
    {
      "midi": 65,
      "time": 81.964,
      "duration": 0.536,
      "velocity": 1,
      "hand": "right"
    },
    {
      "midi": 82,
      "time": 81.964,
      "duration": 0.536,
      "velocity": 1,
      "hand": "right"
    },
    {
      "midi": 94,
      "time": 81.964,
      "duration": 0.536,
      "velocity": 1,
      "hand": "right"
    }
  ]
}
