{
  "id": "sou-feliz-com-jesus",
  "title": "Sou Feliz com Jesus",
  "artist": "Horatio Spafford",
  "difficulty": "Difícil",
  "bpm": 90,
  "duration": 58,
  "category": "Religiosos",
  "isPremium": false,
  "coverUrl": "/images/covers/placeholder.png",
  "notes": [
    {
      "midi": 49,
      "time": 0,
      "duration": 0.652,
      "velocity": 0.54,
      "hand": "left"
    },
    {
      "midi": 61,
      "time": 0,
      "duration": 0.652,
      "velocity": 0.54,
      "hand": "right"
    },
    {
      "midi": 65,
      "time": 0,
      "duration": 0.652,
      "velocity": 0.56,
      "hand": "right"
    },
    {
      "midi": 68,
      "time": 0,
      "duration": 0.652,
      "velocity": 0.56,
      "hand": "right"
    },
    {
      "midi": 49,
      "time": 0.667,
      "duration": 1.333,
      "velocity": 0.58,
      "hand": "left"
    },
    {
      "midi": 61,
      "time": 0.667,
      "duration": 1.333,
      "velocity": 0.58,
      "hand": "right"
    },
    {
      "midi": 65,
      "time": 0.667,
      "duration": 1.333,
      "velocity": 0.6,
      "hand": "right"
    },
    {
      "midi": 68,
      "time": 0.667,
      "duration": 1.333,
      "velocity": 0.6,
      "hand": "right"
    },
    {
      "midi": 48,
      "time": 2,
      "duration": 0.667,
      "velocity": 0.57,
      "hand": "left"
    },
    {
      "midi": 56,
      "time": 2,
      "duration": 0.652,
      "velocity": 0.57,
      "hand": "left"
    },
    {
      "midi": 63,
      "time": 2,
      "duration": 0.667,
      "velocity": 0.57,
      "hand": "right"
    },
    {
      "midi": 66,
      "time": 2,
      "duration": 0.667,
      "velocity": 0.57,
      "hand": "right"
    },
    {
      "midi": 49,
      "time": 2.667,
      "duration": 0.333,
      "velocity": 0.54,
      "hand": "left"
    },
    {
      "midi": 56,
      "time": 2.667,
      "duration": 0.651,
      "velocity": 0.61,
      "hand": "left"
    },
    {
      "midi": 61,
      "time": 2.667,
      "duration": 0.651,
      "velocity": 0.54,
      "hand": "right"
    },
    {
      "midi": 65,
      "time": 2.667,
      "duration": 0.651,
      "velocity": 0.54,
      "hand": "right"
    },
    {
      "midi": 53,
      "time": 3,
      "duration": 0.333,
      "velocity": 0.59,
      "hand": "left"
    },
    {
      "midi": 56,
      "time": 3.333,
      "duration": 1.319,
      "velocity": 0.57,
      "hand": "left"
    },
    {
      "midi": 61,
      "time": 3.333,
      "duration": 1.333,
      "velocity": 0.59,
      "hand": "right"
    },
    {
      "midi": 65,
      "time": 3.333,
      "duration": 1.333,
      "velocity": 0.59,
      "hand": "right"
    },
    {
      "midi": 54,
      "time": 4.667,
      "duration": 0.667,
      "velocity": 0.6,
      "hand": "left"
    },
    {
      "midi": 56,
      "time": 4.667,
      "duration": 0.651,
      "velocity": 0.6,
      "hand": "left"
    },
    {
      "midi": 60,
      "time": 4.667,
      "duration": 0.667,
      "velocity": 0.58,
      "hand": "right"
    },
    {
      "midi": 63,
      "time": 4.667,
      "duration": 0.667,
      "velocity": 0.58,
      "hand": "right"
    },
    {
      "midi": 53,
      "time": 5.333,
      "duration": 0.667,
      "velocity": 0.57,
      "hand": "left"
    },
    {
      "midi": 56,
      "time": 5.333,
      "duration": 0.652,
      "velocity": 0.57,
      "hand": "left"
    },
    {
      "midi": 61,
      "time": 5.333,
      "duration": 0.667,
      "velocity": 0.63,
      "hand": "right"
    },
    {
      "midi": 65,
      "time": 5.333,
      "duration": 0.667,
      "velocity": 0.63,
      "hand": "right"
    },
    {
      "midi": 51,
      "time": 6,
      "duration": 1.333,
      "velocity": 0.57,
      "hand": "left"
    },
    {
      "midi": 56,
      "time": 6,
      "duration": 1.318,
      "velocity": 0.57,
      "hand": "left"
    },
    {
      "midi": 60,
      "time": 6,
      "duration": 1.318,
      "velocity": 0.56,
      "hand": "right"
    },
    {
      "midi": 66,
      "time": 6,
      "duration": 0.667,
      "velocity": 0.64,
      "hand": "right"
    },
    {
      "midi": 70,
      "time": 6.667,
      "duration": 0.667,
      "velocity": 0.67,
      "hand": "right"
    },
    {
      "midi": 44,
      "time": 7.333,
      "duration": 0.652,
      "velocity": 0.58,
      "hand": "left"
    },
    {
      "midi": 56,
      "time": 7.333,
      "duration": 0.652,
      "velocity": 0.58,
      "hand": "left"
    },
    {
      "midi": 60,
      "time": 7.333,
      "duration": 0.667,
      "velocity": 0.58,
      "hand": "right"
    },
    {
      "midi": 68,
      "time": 7.333,
      "duration": 0.667,
      "velocity": 0.58,
      "hand": "right"
    },
    {
      "midi": 44,
      "time": 8,
      "duration": 0.667,
      "velocity": 0.6,
      "hand": "left"
    },
    {
      "midi": 56,
      "time": 8,
      "duration": 0.652,
      "velocity": 0.6,
      "hand": "left"
    },
    {
      "midi": 63,
      "time": 8,
      "duration": 0.667,
      "velocity": 0.55,
      "hand": "right"
    },
    {
      "midi": 66,
      "time": 8,
      "duration": 0.667,
      "velocity": 0.55,
      "hand": "right"
    },
    {
      "midi": 49,
      "time": 8.667,
      "duration": 1.985,
      "velocity": 0.61,
      "hand": "left"
    },
    {
      "midi": 56,
      "time": 8.667,
      "duration": 1.985,
      "velocity": 0.61,
      "hand": "left"
    },
    {
      "midi": 61,
      "time": 8.667,
      "duration": 2,
      "velocity": 0.57,
      "hand": "right"
    },
    {
      "midi": 65,
      "time": 8.667,
      "duration": 1.985,
      "velocity": 0.57,
      "hand": "right"
    },
    {
      "midi": 49,
      "time": 10.667,
      "duration": 0.667,
      "velocity": 0.57,
      "hand": "left"
    },
    {
      "midi": 56,
      "time": 10.667,
      "duration": 0.667,
      "velocity": 0.57,
      "hand": "left"
    },
    {
      "midi": 65,
      "time": 10.667,
      "duration": 0.651,
      "velocity": 0.65,
      "hand": "right"
    },
    {
      "midi": 68,
      "time": 10.667,
      "duration": 0.667,
      "velocity": 0.65,
      "hand": "right"
    },
    {
      "midi": 46,
      "time": 11.333,
      "duration": 1.333,
      "velocity": 0.62,
      "hand": "left"
    },
    {
      "midi": 58,
      "time": 11.333,
      "duration": 1.333,
      "velocity": 0.62,
      "hand": "left"
    },
    {
      "midi": 65,
      "time": 11.333,
      "duration": 1.333,
      "velocity": 0.72,
      "hand": "right"
    },
    {
      "midi": 73,
      "time": 11.333,
      "duration": 1.333,
      "velocity": 0.72,
      "hand": "right"
    },
    {
      "midi": 48,
      "time": 12.667,
      "duration": 0.667,
      "velocity": 0.57,
      "hand": "left"
    },
    {
      "midi": 57,
      "time": 12.667,
      "duration": 0.667,
      "velocity": 0.57,
      "hand": "left"
    },
    {
      "midi": 63,
      "time": 12.667,
      "duration": 0.667,
      "velocity": 0.57,
      "hand": "right"
    },
    {
      "midi": 72,
      "time": 12.667,
      "duration": 0.667,
      "velocity": 0.57,
      "hand": "right"
    },
    {
      "midi": 49,
      "time": 13.333,
      "duration": 0.652,
      "velocity": 0.58,
      "hand": "left"
    },
    {
      "midi": 58,
      "time": 13.333,
      "duration": 0.667,
      "velocity": 0.58,
      "hand": "left"
    },
    {
      "midi": 61,
      "time": 13.333,
      "duration": 0.652,
      "velocity": 0.57,
      "hand": "right"
    },
    {
      "midi": 70,
      "time": 13.333,
      "duration": 0.652,
      "velocity": 0.57,
      "hand": "right"
    },
    {
      "midi": 49,
      "time": 14,
      "duration": 1.333,
      "velocity": 0.64,
      "hand": "left"
    },
    {
      "midi": 61,
      "time": 14,
      "duration": 1.333,
      "velocity": 0.64,
      "hand": "right"
    },
    {
      "midi": 65,
      "time": 14,
      "duration": 1.333,
      "velocity": 0.58,
      "hand": "right"
    },
    {
      "midi": 70,
      "time": 14,
      "duration": 1.333,
      "velocity": 0.58,
      "hand": "right"
    },
    {
      "midi": 51,
      "time": 15.333,
      "duration": 0.652,
      "velocity": 0.6,
      "hand": "left"
    },
    {
      "midi": 60,
      "time": 15.333,
      "duration": 0.667,
      "velocity": 0.6,
      "hand": "right"
    },
    {
      "midi": 63,
      "time": 15.333,
      "duration": 0.652,
      "velocity": 0.57,
      "hand": "right"
    },
    {
      "midi": 68,
      "time": 15.333,
      "duration": 0.667,
      "velocity": 0.57,
      "hand": "right"
    },
    {
      "midi": 51,
      "time": 16,
      "duration": 0.667,
      "velocity": 0.59,
      "hand": "left"
    },
    {
      "midi": 58,
      "time": 16,
      "duration": 0.667,
      "velocity": 0.59,
      "hand": "left"
    },
    {
      "midi": 63,
      "time": 16,
      "duration": 0.652,
      "velocity": 0.55,
      "hand": "right"
    },
    {
      "midi": 67,
      "time": 16,
      "duration": 0.667,
      "velocity": 0.55,
      "hand": "right"
    },
    {
      "midi": 44,
      "time": 16.667,
      "duration": 2,
      "velocity": 0.65,
      "hand": "left"
    },
    {
      "midi": 60,
      "time": 16.667,
      "duration": 1.985,
      "velocity": 0.65,
      "hand": "right"
    },
    {
      "midi": 63,
      "time": 16.667,
      "duration": 2,
      "velocity": 0.63,
      "hand": "right"
    },
    {
      "midi": 68,
      "time": 16.667,
      "duration": 1.985,
      "velocity": 0.63,
      "hand": "right"
    },
    {
      "midi": 56,
      "time": 18.667,
      "duration": 0.667,
      "velocity": 0.59,
      "hand": "left"
    },
    {
      "midi": 60,
      "time": 18.667,
      "duration": 0.667,
      "velocity": 0.59,
      "hand": "right"
    },
    {
      "midi": 66,
      "time": 18.667,
      "duration": 0.667,
      "velocity": 0.59,
      "hand": "right"
    },
    {
      "midi": 68,
      "time": 18.667,
      "duration": 0.667,
      "velocity": 0.59,
      "hand": "right"
    },
    {
      "midi": 49,
      "time": 19.333,
      "duration": 1.319,
      "velocity": 0.63,
      "hand": "left"
    },
    {
      "midi": 61,
      "time": 19.333,
      "duration": 1.319,
      "velocity": 0.63,
      "hand": "right"
    },
    {
      "midi": 65,
      "time": 19.333,
      "duration": 1.319,
      "velocity": 0.66,
      "hand": "right"
    },
    {
      "midi": 73,
      "time": 19.333,
      "duration": 1.319,
      "velocity": 0.66,
      "hand": "right"
    },
    {
      "midi": 49,
      "time": 20.667,
      "duration": 0.667,
      "velocity": 0.62,
      "hand": "left"
    },
    {
      "midi": 61,
      "time": 20.667,
      "duration": 0.651,
      "velocity": 0.62,
      "hand": "right"
    },
    {
      "midi": 65,
      "time": 20.667,
      "duration": 0.667,
      "velocity": 0.61,
      "hand": "right"
    },
    {
      "midi": 73,
      "time": 20.667,
      "duration": 0.667,
      "velocity": 0.61,
      "hand": "right"
    },
    {
      "midi": 53,
      "time": 21.333,
      "duration": 0.667,
      "velocity": 0.56,
      "hand": "left"
    },
    {
      "midi": 61,
      "time": 21.333,
      "duration": 0.652,
      "velocity": 0.56,
      "hand": "right"
    },
    {
      "midi": 68,
      "time": 21.333,
      "duration": 0.667,
      "velocity": 0.57,
      "hand": "right"
    },
    {
      "midi": 72,
      "time": 21.333,
      "duration": 0.667,
      "velocity": 0.57,
      "hand": "right"
    },
    {
      "midi": 54,
      "time": 22,
      "duration": 1.318,
      "velocity": 0.61,
      "hand": "left"
    },
    {
      "midi": 61,
      "time": 22,
      "duration": 1.318,
      "velocity": 0.61,
      "hand": "right"
    },
    {
      "midi": 66,
      "time": 22,
      "duration": 1.333,
      "velocity": 0.57,
      "hand": "right"
    },
    {
      "midi": 70,
      "time": 22,
      "duration": 1.318,
      "velocity": 0.57,
      "hand": "right"
    },
    {
      "midi": 54,
      "time": 23.333,
      "duration": 0.667,
      "velocity": 0.6,
      "hand": "left"
    },
    {
      "midi": 61,
      "time": 23.333,
      "duration": 0.667,
      "velocity": 0.6,
      "hand": "right"
    },
    {
      "midi": 70,
      "time": 23.333,
      "duration": 0.652,
      "velocity": 0.6,
      "hand": "right"
    },
    {
      "midi": 53,
      "time": 24,
      "duration": 0.667,
      "velocity": 0.64,
      "hand": "left"
    },
    {
      "midi": 62,
      "time": 24,
      "duration": 0.667,
      "velocity": 0.64,
      "hand": "right"
    },
    {
      "midi": 68,
      "time": 24,
      "duration": 0.667,
      "velocity": 0.61,
      "hand": "right"
    },
    {
      "midi": 70,
      "time": 24,
      "duration": 0.667,
      "velocity": 0.61,
      "hand": "right"
    },
    {
      "midi": 51,
      "time": 24.667,
      "duration": 1.318,
      "velocity": 0.58,
      "hand": "left"
    },
    {
      "midi": 63,
      "time": 24.667,
      "duration": 1.318,
      "velocity": 0.58,
      "hand": "right"
    },
    {
      "midi": 66,
      "time": 24.667,
      "duration": 1.318,
      "velocity": 0.69,
      "hand": "right"
    },
    {
      "midi": 75,
      "time": 24.667,
      "duration": 1.318,
      "velocity": 0.69,
      "hand": "right"
    },
    {
      "midi": 51,
      "time": 26,
      "duration": 0.652,
      "velocity": 0.59,
      "hand": "left"
    },
    {
      "midi": 63,
      "time": 26,
      "duration": 0.652,
      "velocity": 0.59,
      "hand": "right"
    },
    {
      "midi": 66,
      "time": 26,
      "duration": 0.667,
      "velocity": 0.63,
      "hand": "right"
    },
    {
      "midi": 75,
      "time": 26,
      "duration": 0.667,
      "velocity": 0.63,
      "hand": "right"
    },
    {
      "midi": 51,
      "time": 26.667,
      "duration": 0.667,
      "velocity": 0.57,
      "hand": "left"
    },
    {
      "midi": 63,
      "time": 26.667,
      "duration": 0.651,
      "velocity": 0.57,
      "hand": "right"
    },
    {
      "midi": 67,
      "time": 26.667,
      "duration": 0.667,
      "velocity": 0.56,
      "hand": "right"
    },
    {
      "midi": 73,
      "time": 26.667,
      "duration": 0.667,
      "velocity": 0.56,
      "hand": "right"
    },
    {
      "midi": 56,
      "time": 27.333,
      "duration": 1.319,
      "velocity": 0.61,
      "hand": "left"
    },
    {
      "midi": 63,
      "time": 27.333,
      "duration": 1.333,
      "velocity": 0.61,
      "hand": "right"
    },
    {
      "midi": 68,
      "time": 27.333,
      "duration": 1.319,
      "velocity": 0.59,
      "hand": "right"
    },
    {
      "midi": 72,
      "time": 27.333,
      "duration": 1.333,
      "velocity": 0.59,
      "hand": "right"
    },
    {
      "midi": 56,
      "time": 28.667,
      "duration": 0.651,
      "velocity": 0.56,
      "hand": "left"
    },
    {
      "midi": 61,
      "time": 28.667,
      "duration": 0.667,
      "velocity": 0.56,
      "hand": "right"
    },
    {
      "midi": 68,
      "time": 28.667,
      "duration": 0.651,
      "velocity": 0.56,
      "hand": "right"
    },
    {
      "midi": 70,
      "time": 28.667,
      "duration": 0.667,
      "velocity": 0.56,
      "hand": "right"
    },
    {
      "midi": 56,
      "time": 29.333,
      "duration": 0.667,
      "velocity": 0.56,
      "hand": "left"
    },
    {
      "midi": 60,
      "time": 29.333,
      "duration": 0.667,
      "velocity": 0.56,
      "hand": "right"
    },
    {
      "midi": 68,
      "time": 29.333,
      "duration": 0.652,
      "velocity": 0.55,
      "hand": "right"
    },
    {
      "midi": 53,
      "time": 30,
      "duration": 1.318,
      "velocity": 0.67,
      "hand": "left"
    },
    {
      "midi": 61,
      "time": 30,
      "duration": 1.318,
      "velocity": 0.67,
      "hand": "right"
    },
    {
      "midi": 68,
      "time": 30,
      "duration": 1.333,
      "velocity": 0.67,
      "hand": "right"
    },
    {
      "midi": 73,
      "time": 30,
      "duration": 1.318,
      "velocity": 0.67,
      "hand": "right"
    },
    {
      "midi": 53,
      "time": 31.333,
      "duration": 0.667,
      "velocity": 0.55,
      "hand": "left"
    },
    {
      "midi": 56,
      "time": 31.333,
      "duration": 0.667,
      "velocity": 0.55,
      "hand": "left"
    },
    {
      "midi": 61,
      "time": 31.333,
      "duration": 0.667,
      "velocity": 0.6,
      "hand": "right"
    },
    {
      "midi": 73,
      "time": 31.333,
      "duration": 0.652,
      "velocity": 0.6,
      "hand": "right"
    },
    {
      "midi": 54,
      "time": 32,
      "duration": 0.667,
      "velocity": 0.59,
      "hand": "left"
    },
    {
      "midi": 58,
      "time": 32,
      "duration": 0.667,
      "velocity": 0.59,
      "hand": "left"
    },
    {
      "midi": 63,
      "time": 32,
      "duration": 0.667,
      "velocity": 0.59,
      "hand": "right"
    },
    {
      "midi": 73,
      "time": 32,
      "duration": 0.652,
      "velocity": 0.59,
      "hand": "right"
    },
    {
      "midi": 56,
      "time": 32.667,
      "duration": 1.318,
      "velocity": 0.58,
      "hand": "left"
    },
    {
      "midi": 65,
      "time": 32.667,
      "duration": 1.333,
      "velocity": 0.56,
      "hand": "right"
    },
    {
      "midi": 73,
      "time": 32.667,
      "duration": 1.333,
      "velocity": 0.56,
      "hand": "right"
    },
    {
      "midi": 44,
      "time": 34,
      "duration": 0.985,
      "velocity": 0.56,
      "hand": "left"
    },
    {
      "midi": 56,
      "time": 34,
      "duration": 0.985,
      "velocity": 0.56,
      "hand": "left"
    },
    {
      "midi": 63,
      "time": 34,
      "duration": 1,
      "velocity": 0.56,
      "hand": "right"
    },
    {
      "midi": 72,
      "time": 34,
      "duration": 1,
      "velocity": 0.56,
      "hand": "right"
    },
    {
      "midi": 44,
      "time": 35,
      "duration": 0.333,
      "velocity": 0.62,
      "hand": "left"
    },
    {
      "midi": 56,
      "time": 35,
      "duration": 0.318,
      "velocity": 0.62,
      "hand": "left"
    },
    {
      "midi": 65,
      "time": 35,
      "duration": 0.318,
      "velocity": 0.61,
      "hand": "right"
    },
    {
      "midi": 73,
      "time": 35,
      "duration": 0.318,
      "velocity": 0.61,
      "hand": "right"
    },
    {
      "midi": 49,
      "time": 35.333,
      "duration": 2.333,
      "velocity": 0.59,
      "hand": "left"
    },
    {
      "midi": 56,
      "time": 35.333,
      "duration": 2.333,
      "velocity": 0.59,
      "hand": "left"
    },
    {
      "midi": 65,
      "time": 35.333,
      "duration": 2.333,
      "velocity": 0.6,
      "hand": "right"
    },
    {
      "midi": 73,
      "time": 35.333,
      "duration": 2.333,
      "velocity": 0.6,
      "hand": "right"
    },
    {
      "midi": 68,
      "time": 37.667,
      "duration": 0.651,
      "velocity": 0.54,
      "hand": "right"
    },
    {
      "midi": 68,
      "time": 38.333,
      "duration": 0.652,
      "velocity": 0.56,
      "hand": "right"
    },
    {
      "midi": 68,
      "time": 39,
      "duration": 3.985,
      "velocity": 0.59,
      "hand": "right"
    },
    {
      "midi": 49,
      "time": 40.333,
      "duration": 0.667,
      "velocity": 0.54,
      "hand": "left"
    },
    {
      "midi": 56,
      "time": 40.333,
      "duration": 0.667,
      "velocity": 0.54,
      "hand": "left"
    },
    {
      "midi": 65,
      "time": 40.333,
      "duration": 0.652,
      "velocity": 0.54,
      "hand": "right"
    },
    {
      "midi": 53,
      "time": 41,
      "duration": 0.667,
      "velocity": 0.69,
      "hand": "left"
    },
    {
      "midi": 61,
      "time": 41,
      "duration": 0.667,
      "velocity": 0.69,
      "hand": "right"
    },
    {
      "midi": 65,
      "time": 41,
      "duration": 0.667,
      "velocity": 0.57,
      "hand": "right"
    },
    {
      "midi": 56,
      "time": 41.667,
      "duration": 1.333,
      "velocity": 0.58,
      "hand": "left"
    },
    {
      "midi": 60,
      "time": 41.667,
      "duration": 1.333,
      "velocity": 0.58,
      "hand": "right"
    },
    {
      "midi": 63,
      "time": 41.667,
      "duration": 1.333,
      "velocity": 0.56,
      "hand": "right"
    },
    {
      "midi": 68,
      "time": 43,
      "duration": 0.652,
      "velocity": 0.6,
      "hand": "right"
    },
    {
      "midi": 68,
      "time": 43.667,
      "duration": 0.651,
      "velocity": 0.58,
      "hand": "right"
    },
    {
      "midi": 68,
      "time": 44.333,
      "duration": 4,
      "velocity": 0.58,
      "hand": "right"
    },
    {
      "midi": 44,
      "time": 45.667,
      "duration": 0.667,
      "velocity": 0.51,
      "hand": "left"
    },
    {
      "midi": 60,
      "time": 45.667,
      "duration": 0.667,
      "velocity": 0.51,
      "hand": "right"
    },
    {
      "midi": 63,
      "time": 45.667,
      "duration": 0.651,
      "velocity": 0.52,
      "hand": "right"
    },
    {
      "midi": 48,
      "time": 46.333,
      "duration": 0.667,
      "velocity": 0.64,
      "hand": "left"
    },
    {
      "midi": 63,
      "time": 46.333,
      "duration": 0.667,
      "velocity": 0.64,
      "hand": "right"
    },
    {
      "midi": 66,
      "time": 46.333,
      "duration": 0.667,
      "velocity": 0.65,
      "hand": "right"
    },
    {
      "midi": 49,
      "time": 47,
      "duration": 1.318,
      "velocity": 0.56,
      "hand": "left"
    },
    {
      "midi": 61,
      "time": 47,
      "duration": 1.318,
      "velocity": 0.56,
      "hand": "right"
    },
    {
      "midi": 65,
      "time": 47,
      "duration": 1.318,
      "velocity": 0.55,
      "hand": "right"
    },
    {
      "midi": 49,
      "time": 48.333,
      "duration": 0.652,
      "velocity": 0.55,
      "hand": "left"
    },
    {
      "midi": 56,
      "time": 48.333,
      "duration": 0.667,
      "velocity": 0.55,
      "hand": "left"
    },
    {
      "midi": 61,
      "time": 48.333,
      "duration": 0.652,
      "velocity": 0.54,
      "hand": "right"
    },
    {
      "midi": 65,
      "time": 48.333,
      "duration": 0.652,
      "velocity": 0.54,
      "hand": "right"
    },
    {
      "midi": 49,
      "time": 49,
      "duration": 0.667,
      "velocity": 0.66,
      "hand": "left"
    },
    {
      "midi": 61,
      "time": 49,
      "duration": 0.652,
      "velocity": 0.66,
      "hand": "right"
    },
    {
      "midi": 65,
      "time": 49,
      "duration": 0.667,
      "velocity": 0.61,
      "hand": "right"
    },
    {
      "midi": 68,
      "time": 49,
      "duration": 0.667,
      "velocity": 0.61,
      "hand": "right"
    },
    {
      "midi": 54,
      "time": 49.667,
      "duration": 1.318,
      "velocity": 0.63,
      "hand": "left"
    },
    {
      "midi": 61,
      "time": 49.667,
      "duration": 1.318,
      "velocity": 0.63,
      "hand": "right"
    },
    {
      "midi": 66,
      "time": 49.667,
      "duration": 1.318,
      "velocity": 0.65,
      "hand": "right"
    },
    {
      "midi": 70,
      "time": 49.667,
      "duration": 1.318,
      "velocity": 0.65,
      "hand": "right"
    },
    {
      "midi": 54,
      "time": 51,
      "duration": 0.652,
      "velocity": 0.62,
      "hand": "left"
    },
    {
      "midi": 61,
      "time": 51,
      "duration": 0.667,
      "velocity": 0.62,
      "hand": "right"
    },
    {
      "midi": 66,
      "time": 51,
      "duration": 0.652,
      "velocity": 0.63,
      "hand": "right"
    },
    {
      "midi": 70,
      "time": 51,
      "duration": 0.667,
      "velocity": 0.63,
      "hand": "right"
    },
    {
      "midi": 54,
      "time": 51.667,
      "duration": 0.667,
      "velocity": 0.57,
      "hand": "left"
    },
    {
      "midi": 58,
      "time": 51.667,
      "duration": 0.667,
      "velocity": 0.57,
      "hand": "left"
    },
    {
      "midi": 66,
      "time": 51.667,
      "duration": 0.667,
      "velocity": 0.66,
      "hand": "right"
    },
    {
      "midi": 73,
      "time": 51.667,
      "duration": 0.651,
      "velocity": 0.66,
      "hand": "right"
    },
    {
      "midi": 56,
      "time": 52.333,
      "duration": 1.319,
      "velocity": 0.62,
      "hand": "left"
    },
    {
      "midi": 65,
      "time": 52.333,
      "duration": 1.333,
      "velocity": 0.62,
      "hand": "right"
    },
    {
      "midi": 73,
      "time": 52.333,
      "duration": 1.333,
      "velocity": 0.62,
      "hand": "right"
    },
    {
      "midi": 44,
      "time": 53.667,
      "duration": 0.985,
      "velocity": 0.61,
      "hand": "left"
    },
    {
      "midi": 56,
      "time": 53.667,
      "duration": 0.985,
      "velocity": 0.61,
      "hand": "left"
    },
    {
      "midi": 63,
      "time": 53.667,
      "duration": 1,
      "velocity": 0.58,
      "hand": "right"
    },
    {
      "midi": 72,
      "time": 53.667,
      "duration": 1,
      "velocity": 0.58,
      "hand": "right"
    },
    {
      "midi": 44,
      "time": 54.667,
      "duration": 0.333,
      "velocity": 0.63,
      "hand": "left"
    },
    {
      "midi": 56,
      "time": 54.667,
      "duration": 0.318,
      "velocity": 0.63,
      "hand": "left"
    },
    {
      "midi": 65,
      "time": 54.667,
      "duration": 0.318,
      "velocity": 0.61,
      "hand": "right"
    },
    {
      "midi": 73,
      "time": 54.667,
      "duration": 0.318,
      "velocity": 0.61,
      "hand": "right"
    },
    {
      "midi": 49,
      "time": 55,
      "duration": 2,
      "velocity": 0.64,
      "hand": "left"
    },
    {
      "midi": 56,
      "time": 55,
      "duration": 2,
      "velocity": 0.64,
      "hand": "left"
    },
    {
      "midi": 65,
      "time": 55,
      "duration": 2,
      "velocity": 0.58,
      "hand": "right"
    },
    {
      "midi": 73,
      "time": 55,
      "duration": 2,
      "velocity": 0.58,
      "hand": "right"
    }
  ],
  "arrangements": {
    "easy": [
      {
        "midi": 68,
        "time": 0,
        "duration": 0.652,
        "velocity": 0.56,
        "hand": "right"
      },
      {
        "midi": 68,
        "time": 0.667,
        "duration": 1.333,
        "velocity": 0.6,
        "hand": "right"
      },
      {
        "midi": 66,
        "time": 2,
        "duration": 0.667,
        "velocity": 0.57,
        "hand": "right"
      },
      {
        "midi": 65,
        "time": 2.667,
        "duration": 0.651,
        "velocity": 0.54,
        "hand": "right"
      },
      {
        "midi": 65,
        "time": 3.333,
        "duration": 1.333,
        "velocity": 0.59,
        "hand": "right"
      },
      {
        "midi": 63,
        "time": 4.667,
        "duration": 0.667,
        "velocity": 0.58,
        "hand": "right"
      },
      {
        "midi": 65,
        "time": 5.333,
        "duration": 0.667,
        "velocity": 0.63,
        "hand": "right"
      },
      {
        "midi": 66,
        "time": 6,
        "duration": 0.667,
        "velocity": 0.64,
        "hand": "right"
      },
      {
        "midi": 70,
        "time": 6.667,
        "duration": 0.667,
        "velocity": 0.67,
        "hand": "right"
      },
      {
        "midi": 68,
        "time": 7.333,
        "duration": 0.667,
        "velocity": 0.58,
        "hand": "right"
      },
      {
        "midi": 66,
        "time": 8,
        "duration": 0.667,
        "velocity": 0.55,
        "hand": "right"
      },
      {
        "midi": 65,
        "time": 8.667,
        "duration": 1.985,
        "velocity": 0.57,
        "hand": "right"
      },
      {
        "midi": 68,
        "time": 10.667,
        "duration": 0.667,
        "velocity": 0.65,
        "hand": "right"
      },
      {
        "midi": 73,
        "time": 11.333,
        "duration": 1.333,
        "velocity": 0.72,
        "hand": "right"
      },
      {
        "midi": 72,
        "time": 12.667,
        "duration": 0.667,
        "velocity": 0.57,
        "hand": "right"
      },
      {
        "midi": 70,
        "time": 13.333,
        "duration": 0.652,
        "velocity": 0.57,
        "hand": "right"
      },
      {
        "midi": 70,
        "time": 14,
        "duration": 1.333,
        "velocity": 0.58,
        "hand": "right"
      },
      {
        "midi": 68,
        "time": 15.333,
        "duration": 0.667,
        "velocity": 0.57,
        "hand": "right"
      },
      {
        "midi": 67,
        "time": 16,
        "duration": 0.667,
        "velocity": 0.55,
        "hand": "right"
      },
      {
        "midi": 68,
        "time": 16.667,
        "duration": 1.985,
        "velocity": 0.63,
        "hand": "right"
      },
      {
        "midi": 68,
        "time": 18.667,
        "duration": 0.667,
        "velocity": 0.59,
        "hand": "right"
      },
      {
        "midi": 73,
        "time": 19.333,
        "duration": 1.319,
        "velocity": 0.66,
        "hand": "right"
      },
      {
        "midi": 73,
        "time": 20.667,
        "duration": 0.667,
        "velocity": 0.61,
        "hand": "right"
      },
      {
        "midi": 72,
        "time": 21.333,
        "duration": 0.667,
        "velocity": 0.57,
        "hand": "right"
      },
      {
        "midi": 70,
        "time": 22,
        "duration": 1.318,
        "velocity": 0.57,
        "hand": "right"
      },
      {
        "midi": 70,
        "time": 23.333,
        "duration": 0.652,
        "velocity": 0.6,
        "hand": "right"
      },
      {
        "midi": 70,
        "time": 24,
        "duration": 0.667,
        "velocity": 0.61,
        "hand": "right"
      },
      {
        "midi": 75,
        "time": 24.667,
        "duration": 1.318,
        "velocity": 0.69,
        "hand": "right"
      },
      {
        "midi": 75,
        "time": 26,
        "duration": 0.667,
        "velocity": 0.63,
        "hand": "right"
      },
      {
        "midi": 73,
        "time": 26.667,
        "duration": 0.667,
        "velocity": 0.56,
        "hand": "right"
      },
      {
        "midi": 72,
        "time": 27.333,
        "duration": 1.333,
        "velocity": 0.59,
        "hand": "right"
      },
      {
        "midi": 70,
        "time": 28.667,
        "duration": 0.667,
        "velocity": 0.56,
        "hand": "right"
      },
      {
        "midi": 68,
        "time": 29.333,
        "duration": 0.652,
        "velocity": 0.55,
        "hand": "right"
      },
      {
        "midi": 73,
        "time": 30,
        "duration": 1.318,
        "velocity": 0.67,
        "hand": "right"
      },
      {
        "midi": 73,
        "time": 31.333,
        "duration": 0.652,
        "velocity": 0.6,
        "hand": "right"
      },
      {
        "midi": 73,
        "time": 32,
        "duration": 0.652,
        "velocity": 0.59,
        "hand": "right"
      },
      {
        "midi": 73,
        "time": 32.667,
        "duration": 1.333,
        "velocity": 0.56,
        "hand": "right"
      },
      {
        "midi": 72,
        "time": 34,
        "duration": 1,
        "velocity": 0.56,
        "hand": "right"
      },
      {
        "midi": 73,
        "time": 35,
        "duration": 0.4,
        "velocity": 0.61,
        "hand": "right"
      },
      {
        "midi": 68,
        "time": 37.667,
        "duration": 0.651,
        "velocity": 0.54,
        "hand": "right"
      },
      {
        "midi": 68,
        "time": 38.333,
        "duration": 0.652,
        "velocity": 0.56,
        "hand": "right"
      },
      {
        "midi": 68,
        "time": 39,
        "duration": 2.4,
        "velocity": 0.59,
        "hand": "right"
      },
      {
        "midi": 65,
        "time": 40.333,
        "duration": 0.652,
        "velocity": 0.54,
        "hand": "right"
      },
      {
        "midi": 65,
        "time": 41,
        "duration": 0.667,
        "velocity": 0.57,
        "hand": "right"
      },
      {
        "midi": 63,
        "time": 41.667,
        "duration": 1.333,
        "velocity": 0.56,
        "hand": "right"
      },
      {
        "midi": 68,
        "time": 43,
        "duration": 0.652,
        "velocity": 0.6,
        "hand": "right"
      },
      {
        "midi": 68,
        "time": 43.667,
        "duration": 0.651,
        "velocity": 0.58,
        "hand": "right"
      },
      {
        "midi": 68,
        "time": 44.333,
        "duration": 2.4,
        "velocity": 0.58,
        "hand": "right"
      },
      {
        "midi": 63,
        "time": 45.667,
        "duration": 0.651,
        "velocity": 0.52,
        "hand": "right"
      },
      {
        "midi": 66,
        "time": 46.333,
        "duration": 0.667,
        "velocity": 0.65,
        "hand": "right"
      },
      {
        "midi": 65,
        "time": 47,
        "duration": 1.318,
        "velocity": 0.55,
        "hand": "right"
      },
      {
        "midi": 65,
        "time": 48.333,
        "duration": 0.652,
        "velocity": 0.54,
        "hand": "right"
      },
      {
        "midi": 68,
        "time": 49,
        "duration": 0.667,
        "velocity": 0.61,
        "hand": "right"
      },
      {
        "midi": 70,
        "time": 49.667,
        "duration": 1.318,
        "velocity": 0.65,
        "hand": "right"
      },
      {
        "midi": 70,
        "time": 51,
        "duration": 0.667,
        "velocity": 0.63,
        "hand": "right"
      },
      {
        "midi": 73,
        "time": 51.667,
        "duration": 0.651,
        "velocity": 0.66,
        "hand": "right"
      },
      {
        "midi": 73,
        "time": 52.333,
        "duration": 1.333,
        "velocity": 0.62,
        "hand": "right"
      },
      {
        "midi": 72,
        "time": 53.667,
        "duration": 1,
        "velocity": 0.58,
        "hand": "right"
      },
      {
        "midi": 73,
        "time": 54.667,
        "duration": 0.4,
        "velocity": 0.61,
        "hand": "right"
      }
    ],
    "medium": [
      {
        "midi": 68,
        "time": 0,
        "duration": 0.652,
        "velocity": 0.56,
        "hand": "right"
      },
      {
        "midi": 66,
        "time": 2,
        "duration": 0.667,
        "velocity": 0.57,
        "hand": "right"
      },
      {
        "midi": 53,
        "time": 3,
        "duration": 0.333,
        "velocity": 0.59,
        "hand": "left"
      },
      {
        "midi": 54,
        "time": 4.667,
        "duration": 0.667,
        "velocity": 0.6,
        "hand": "left"
      },
      {
        "midi": 63,
        "time": 4.667,
        "duration": 0.667,
        "velocity": 0.58,
        "hand": "right"
      },
      {
        "midi": 51,
        "time": 6,
        "duration": 1.333,
        "velocity": 0.57,
        "hand": "left"
      },
      {
        "midi": 66,
        "time": 6,
        "duration": 0.667,
        "velocity": 0.64,
        "hand": "right"
      },
      {
        "midi": 56,
        "time": 7.333,
        "duration": 0.652,
        "velocity": 0.58,
        "hand": "left"
      },
      {
        "midi": 68,
        "time": 7.333,
        "duration": 0.667,
        "velocity": 0.58,
        "hand": "right"
      },
      {
        "midi": 49,
        "time": 8.667,
        "duration": 1.985,
        "velocity": 0.61,
        "hand": "left"
      },
      {
        "midi": 65,
        "time": 8.667,
        "duration": 1.985,
        "velocity": 0.57,
        "hand": "right"
      },
      {
        "midi": 68,
        "time": 10.667,
        "duration": 0.667,
        "velocity": 0.65,
        "hand": "right"
      },
      {
        "midi": 72,
        "time": 12.667,
        "duration": 0.667,
        "velocity": 0.57,
        "hand": "right"
      },
      {
        "midi": 70,
        "time": 14,
        "duration": 1.333,
        "velocity": 0.58,
        "hand": "right"
      },
      {
        "midi": 68,
        "time": 15.333,
        "duration": 0.667,
        "velocity": 0.57,
        "hand": "right"
      },
      {
        "midi": 56,
        "time": 16.667,
        "duration": 1.985,
        "velocity": 0.65,
        "hand": "left"
      },
      {
        "midi": 68,
        "time": 16.667,
        "duration": 1.985,
        "velocity": 0.63,
        "hand": "right"
      },
      {
        "midi": 56,
        "time": 18.667,
        "duration": 0.667,
        "velocity": 0.59,
        "hand": "left"
      },
      {
        "midi": 68,
        "time": 18.667,
        "duration": 0.667,
        "velocity": 0.59,
        "hand": "right"
      },
      {
        "midi": 73,
        "time": 20.667,
        "duration": 0.667,
        "velocity": 0.61,
        "hand": "right"
      },
      {
        "midi": 54,
        "time": 22,
        "duration": 1.318,
        "velocity": 0.61,
        "hand": "left"
      },
      {
        "midi": 70,
        "time": 22,
        "duration": 1.318,
        "velocity": 0.57,
        "hand": "right"
      },
      {
        "midi": 54,
        "time": 23.333,
        "duration": 0.667,
        "velocity": 0.6,
        "hand": "left"
      },
      {
        "midi": 70,
        "time": 23.333,
        "duration": 0.652,
        "velocity": 0.6,
        "hand": "right"
      },
      {
        "midi": 75,
        "time": 24.667,
        "duration": 1.318,
        "velocity": 0.69,
        "hand": "right"
      },
      {
        "midi": 75,
        "time": 26,
        "duration": 0.667,
        "velocity": 0.63,
        "hand": "right"
      },
      {
        "midi": 56,
        "time": 27.333,
        "duration": 1.319,
        "velocity": 0.61,
        "hand": "left"
      },
      {
        "midi": 72,
        "time": 27.333,
        "duration": 1.333,
        "velocity": 0.59,
        "hand": "right"
      },
      {
        "midi": 56,
        "time": 28.667,
        "duration": 0.651,
        "velocity": 0.56,
        "hand": "left"
      },
      {
        "midi": 70,
        "time": 28.667,
        "duration": 0.667,
        "velocity": 0.56,
        "hand": "right"
      },
      {
        "midi": 73,
        "time": 30,
        "duration": 1.318,
        "velocity": 0.67,
        "hand": "right"
      },
      {
        "midi": 73,
        "time": 31.333,
        "duration": 0.652,
        "velocity": 0.6,
        "hand": "right"
      },
      {
        "midi": 73,
        "time": 32.667,
        "duration": 1.333,
        "velocity": 0.56,
        "hand": "right"
      },
      {
        "midi": 56,
        "time": 34,
        "duration": 0.985,
        "velocity": 0.56,
        "hand": "left"
      },
      {
        "midi": 72,
        "time": 34,
        "duration": 1,
        "velocity": 0.56,
        "hand": "right"
      },
      {
        "midi": 73,
        "time": 35,
        "duration": 0.318,
        "velocity": 0.61,
        "hand": "right"
      },
      {
        "midi": 68,
        "time": 37.667,
        "duration": 0.651,
        "velocity": 0.54,
        "hand": "right"
      },
      {
        "midi": 68,
        "time": 39,
        "duration": 3.5,
        "velocity": 0.59,
        "hand": "right"
      },
      {
        "midi": 49,
        "time": 40.333,
        "duration": 0.667,
        "velocity": 0.54,
        "hand": "left"
      },
      {
        "midi": 65,
        "time": 40.333,
        "duration": 0.652,
        "velocity": 0.54,
        "hand": "right"
      },
      {
        "midi": 56,
        "time": 41.667,
        "duration": 1.333,
        "velocity": 0.58,
        "hand": "left"
      },
      {
        "midi": 63,
        "time": 41.667,
        "duration": 1.333,
        "velocity": 0.56,
        "hand": "right"
      },
      {
        "midi": 68,
        "time": 43,
        "duration": 0.652,
        "velocity": 0.6,
        "hand": "right"
      },
      {
        "midi": 68,
        "time": 44.333,
        "duration": 3.5,
        "velocity": 0.58,
        "hand": "right"
      },
      {
        "midi": 56,
        "time": 45.667,
        "duration": 0.667,
        "velocity": 0.51,
        "hand": "left"
      },
      {
        "midi": 63,
        "time": 45.667,
        "duration": 0.651,
        "velocity": 0.52,
        "hand": "right"
      },
      {
        "midi": 49,
        "time": 47,
        "duration": 1.318,
        "velocity": 0.56,
        "hand": "left"
      },
      {
        "midi": 65,
        "time": 47,
        "duration": 1.318,
        "velocity": 0.55,
        "hand": "right"
      },
      {
        "midi": 49,
        "time": 48.333,
        "duration": 0.652,
        "velocity": 0.55,
        "hand": "left"
      },
      {
        "midi": 65,
        "time": 48.333,
        "duration": 0.652,
        "velocity": 0.54,
        "hand": "right"
      },
      {
        "midi": 54,
        "time": 49.667,
        "duration": 1.318,
        "velocity": 0.63,
        "hand": "left"
      },
      {
        "midi": 70,
        "time": 49.667,
        "duration": 1.318,
        "velocity": 0.65,
        "hand": "right"
      },
      {
        "midi": 54,
        "time": 51,
        "duration": 0.652,
        "velocity": 0.62,
        "hand": "left"
      },
      {
        "midi": 70,
        "time": 51,
        "duration": 0.667,
        "velocity": 0.63,
        "hand": "right"
      },
      {
        "midi": 73,
        "time": 52.333,
        "duration": 1.333,
        "velocity": 0.62,
        "hand": "right"
      },
      {
        "midi": 56,
        "time": 53.667,
        "duration": 0.985,
        "velocity": 0.61,
        "hand": "left"
      },
      {
        "midi": 72,
        "time": 53.667,
        "duration": 1,
        "velocity": 0.58,
        "hand": "right"
      },
      {
        "midi": 73,
        "time": 54.667,
        "duration": 0.318,
        "velocity": 0.61,
        "hand": "right"
      }
    ],
    "hard": [
      {
        "midi": 49,
        "time": 0,
        "duration": 0.652,
        "velocity": 0.54,
        "hand": "left"
      },
      {
        "midi": 61,
        "time": 0,
        "duration": 0.652,
        "velocity": 0.54,
        "hand": "right"
      },
      {
        "midi": 65,
        "time": 0,
        "duration": 0.652,
        "velocity": 0.56,
        "hand": "right"
      },
      {
        "midi": 68,
        "time": 0,
        "duration": 0.652,
        "velocity": 0.56,
        "hand": "right"
      },
      {
        "midi": 49,
        "time": 0.667,
        "duration": 1.333,
        "velocity": 0.58,
        "hand": "left"
      },
      {
        "midi": 61,
        "time": 0.667,
        "duration": 1.333,
        "velocity": 0.58,
        "hand": "right"
      },
      {
        "midi": 65,
        "time": 0.667,
        "duration": 1.333,
        "velocity": 0.6,
        "hand": "right"
      },
      {
        "midi": 68,
        "time": 0.667,
        "duration": 1.333,
        "velocity": 0.6,
        "hand": "right"
      },
      {
        "midi": 48,
        "time": 2,
        "duration": 0.667,
        "velocity": 0.57,
        "hand": "left"
      },
      {
        "midi": 56,
        "time": 2,
        "duration": 0.652,
        "velocity": 0.57,
        "hand": "left"
      },
      {
        "midi": 63,
        "time": 2,
        "duration": 0.667,
        "velocity": 0.57,
        "hand": "right"
      },
      {
        "midi": 66,
        "time": 2,
        "duration": 0.667,
        "velocity": 0.57,
        "hand": "right"
      },
      {
        "midi": 49,
        "time": 2.667,
        "duration": 0.333,
        "velocity": 0.54,
        "hand": "left"
      },
      {
        "midi": 56,
        "time": 2.667,
        "duration": 0.651,
        "velocity": 0.61,
        "hand": "left"
      },
      {
        "midi": 61,
        "time": 2.667,
        "duration": 0.651,
        "velocity": 0.54,
        "hand": "right"
      },
      {
        "midi": 65,
        "time": 2.667,
        "duration": 0.651,
        "velocity": 0.54,
        "hand": "right"
      },
      {
        "midi": 53,
        "time": 3,
        "duration": 0.333,
        "velocity": 0.59,
        "hand": "left"
      },
      {
        "midi": 56,
        "time": 3.333,
        "duration": 1.319,
        "velocity": 0.57,
        "hand": "left"
      },
      {
        "midi": 61,
        "time": 3.333,
        "duration": 1.333,
        "velocity": 0.59,
        "hand": "right"
      },
      {
        "midi": 65,
        "time": 3.333,
        "duration": 1.333,
        "velocity": 0.59,
        "hand": "right"
      },
      {
        "midi": 54,
        "time": 4.667,
        "duration": 0.667,
        "velocity": 0.6,
        "hand": "left"
      },
      {
        "midi": 56,
        "time": 4.667,
        "duration": 0.651,
        "velocity": 0.6,
        "hand": "left"
      },
      {
        "midi": 60,
        "time": 4.667,
        "duration": 0.667,
        "velocity": 0.58,
        "hand": "right"
      },
      {
        "midi": 63,
        "time": 4.667,
        "duration": 0.667,
        "velocity": 0.58,
        "hand": "right"
      },
      {
        "midi": 53,
        "time": 5.333,
        "duration": 0.667,
        "velocity": 0.57,
        "hand": "left"
      },
      {
        "midi": 56,
        "time": 5.333,
        "duration": 0.652,
        "velocity": 0.57,
        "hand": "left"
      },
      {
        "midi": 61,
        "time": 5.333,
        "duration": 0.667,
        "velocity": 0.63,
        "hand": "right"
      },
      {
        "midi": 65,
        "time": 5.333,
        "duration": 0.667,
        "velocity": 0.63,
        "hand": "right"
      },
      {
        "midi": 51,
        "time": 6,
        "duration": 1.333,
        "velocity": 0.57,
        "hand": "left"
      },
      {
        "midi": 56,
        "time": 6,
        "duration": 1.318,
        "velocity": 0.57,
        "hand": "left"
      },
      {
        "midi": 60,
        "time": 6,
        "duration": 1.318,
        "velocity": 0.56,
        "hand": "right"
      },
      {
        "midi": 66,
        "time": 6,
        "duration": 0.667,
        "velocity": 0.64,
        "hand": "right"
      },
      {
        "midi": 70,
        "time": 6.667,
        "duration": 0.667,
        "velocity": 0.67,
        "hand": "right"
      },
      {
        "midi": 44,
        "time": 7.333,
        "duration": 0.652,
        "velocity": 0.58,
        "hand": "left"
      },
      {
        "midi": 56,
        "time": 7.333,
        "duration": 0.652,
        "velocity": 0.58,
        "hand": "left"
      },
      {
        "midi": 60,
        "time": 7.333,
        "duration": 0.667,
        "velocity": 0.58,
        "hand": "right"
      },
      {
        "midi": 68,
        "time": 7.333,
        "duration": 0.667,
        "velocity": 0.58,
        "hand": "right"
      },
      {
        "midi": 44,
        "time": 8,
        "duration": 0.667,
        "velocity": 0.6,
        "hand": "left"
      },
      {
        "midi": 56,
        "time": 8,
        "duration": 0.652,
        "velocity": 0.6,
        "hand": "left"
      },
      {
        "midi": 63,
        "time": 8,
        "duration": 0.667,
        "velocity": 0.55,
        "hand": "right"
      },
      {
        "midi": 66,
        "time": 8,
        "duration": 0.667,
        "velocity": 0.55,
        "hand": "right"
      },
      {
        "midi": 49,
        "time": 8.667,
        "duration": 1.985,
        "velocity": 0.61,
        "hand": "left"
      },
      {
        "midi": 56,
        "time": 8.667,
        "duration": 1.985,
        "velocity": 0.61,
        "hand": "left"
      },
      {
        "midi": 61,
        "time": 8.667,
        "duration": 2,
        "velocity": 0.57,
        "hand": "right"
      },
      {
        "midi": 65,
        "time": 8.667,
        "duration": 1.985,
        "velocity": 0.57,
        "hand": "right"
      },
      {
        "midi": 49,
        "time": 10.667,
        "duration": 0.667,
        "velocity": 0.57,
        "hand": "left"
      },
      {
        "midi": 56,
        "time": 10.667,
        "duration": 0.667,
        "velocity": 0.57,
        "hand": "left"
      },
      {
        "midi": 65,
        "time": 10.667,
        "duration": 0.651,
        "velocity": 0.65,
        "hand": "right"
      },
      {
        "midi": 68,
        "time": 10.667,
        "duration": 0.667,
        "velocity": 0.65,
        "hand": "right"
      },
      {
        "midi": 46,
        "time": 11.333,
        "duration": 1.333,
        "velocity": 0.62,
        "hand": "left"
      },
      {
        "midi": 58,
        "time": 11.333,
        "duration": 1.333,
        "velocity": 0.62,
        "hand": "left"
      },
      {
        "midi": 65,
        "time": 11.333,
        "duration": 1.333,
        "velocity": 0.72,
        "hand": "right"
      },
      {
        "midi": 73,
        "time": 11.333,
        "duration": 1.333,
        "velocity": 0.72,
        "hand": "right"
      },
      {
        "midi": 48,
        "time": 12.667,
        "duration": 0.667,
        "velocity": 0.57,
        "hand": "left"
      },
      {
        "midi": 57,
        "time": 12.667,
        "duration": 0.667,
        "velocity": 0.57,
        "hand": "left"
      },
      {
        "midi": 63,
        "time": 12.667,
        "duration": 0.667,
        "velocity": 0.57,
        "hand": "right"
      },
      {
        "midi": 72,
        "time": 12.667,
        "duration": 0.667,
        "velocity": 0.57,
        "hand": "right"
      },
      {
        "midi": 49,
        "time": 13.333,
        "duration": 0.652,
        "velocity": 0.58,
        "hand": "left"
      },
      {
        "midi": 58,
        "time": 13.333,
        "duration": 0.667,
        "velocity": 0.58,
        "hand": "left"
      },
      {
        "midi": 61,
        "time": 13.333,
        "duration": 0.652,
        "velocity": 0.57,
        "hand": "right"
      },
      {
        "midi": 70,
        "time": 13.333,
        "duration": 0.652,
        "velocity": 0.57,
        "hand": "right"
      },
      {
        "midi": 49,
        "time": 14,
        "duration": 1.333,
        "velocity": 0.64,
        "hand": "left"
      },
      {
        "midi": 61,
        "time": 14,
        "duration": 1.333,
        "velocity": 0.64,
        "hand": "right"
      },
      {
        "midi": 65,
        "time": 14,
        "duration": 1.333,
        "velocity": 0.58,
        "hand": "right"
      },
      {
        "midi": 70,
        "time": 14,
        "duration": 1.333,
        "velocity": 0.58,
        "hand": "right"
      },
      {
        "midi": 51,
        "time": 15.333,
        "duration": 0.652,
        "velocity": 0.6,
        "hand": "left"
      },
      {
        "midi": 60,
        "time": 15.333,
        "duration": 0.667,
        "velocity": 0.6,
        "hand": "right"
      },
      {
        "midi": 63,
        "time": 15.333,
        "duration": 0.652,
        "velocity": 0.57,
        "hand": "right"
      },
      {
        "midi": 68,
        "time": 15.333,
        "duration": 0.667,
        "velocity": 0.57,
        "hand": "right"
      },
      {
        "midi": 51,
        "time": 16,
        "duration": 0.667,
        "velocity": 0.59,
        "hand": "left"
      },
      {
        "midi": 58,
        "time": 16,
        "duration": 0.667,
        "velocity": 0.59,
        "hand": "left"
      },
      {
        "midi": 63,
        "time": 16,
        "duration": 0.652,
        "velocity": 0.55,
        "hand": "right"
      },
      {
        "midi": 67,
        "time": 16,
        "duration": 0.667,
        "velocity": 0.55,
        "hand": "right"
      },
      {
        "midi": 44,
        "time": 16.667,
        "duration": 2,
        "velocity": 0.65,
        "hand": "left"
      },
      {
        "midi": 60,
        "time": 16.667,
        "duration": 1.985,
        "velocity": 0.65,
        "hand": "right"
      },
      {
        "midi": 63,
        "time": 16.667,
        "duration": 2,
        "velocity": 0.63,
        "hand": "right"
      },
      {
        "midi": 68,
        "time": 16.667,
        "duration": 1.985,
        "velocity": 0.63,
        "hand": "right"
      },
      {
        "midi": 56,
        "time": 18.667,
        "duration": 0.667,
        "velocity": 0.59,
        "hand": "left"
      },
      {
        "midi": 60,
        "time": 18.667,
        "duration": 0.667,
        "velocity": 0.59,
        "hand": "right"
      },
      {
        "midi": 66,
        "time": 18.667,
        "duration": 0.667,
        "velocity": 0.59,
        "hand": "right"
      },
      {
        "midi": 68,
        "time": 18.667,
        "duration": 0.667,
        "velocity": 0.59,
        "hand": "right"
      },
      {
        "midi": 49,
        "time": 19.333,
        "duration": 1.319,
        "velocity": 0.63,
        "hand": "left"
      },
      {
        "midi": 61,
        "time": 19.333,
        "duration": 1.319,
        "velocity": 0.63,
        "hand": "right"
      },
      {
        "midi": 65,
        "time": 19.333,
        "duration": 1.319,
        "velocity": 0.66,
        "hand": "right"
      },
      {
        "midi": 73,
        "time": 19.333,
        "duration": 1.319,
        "velocity": 0.66,
        "hand": "right"
      },
      {
        "midi": 49,
        "time": 20.667,
        "duration": 0.667,
        "velocity": 0.62,
        "hand": "left"
      },
      {
        "midi": 61,
        "time": 20.667,
        "duration": 0.651,
        "velocity": 0.62,
        "hand": "right"
      },
      {
        "midi": 65,
        "time": 20.667,
        "duration": 0.667,
        "velocity": 0.61,
        "hand": "right"
      },
      {
        "midi": 73,
        "time": 20.667,
        "duration": 0.667,
        "velocity": 0.61,
        "hand": "right"
      },
      {
        "midi": 53,
        "time": 21.333,
        "duration": 0.667,
        "velocity": 0.56,
        "hand": "left"
      },
      {
        "midi": 61,
        "time": 21.333,
        "duration": 0.652,
        "velocity": 0.56,
        "hand": "right"
      },
      {
        "midi": 68,
        "time": 21.333,
        "duration": 0.667,
        "velocity": 0.57,
        "hand": "right"
      },
      {
        "midi": 72,
        "time": 21.333,
        "duration": 0.667,
        "velocity": 0.57,
        "hand": "right"
      },
      {
        "midi": 54,
        "time": 22,
        "duration": 1.318,
        "velocity": 0.61,
        "hand": "left"
      },
      {
        "midi": 61,
        "time": 22,
        "duration": 1.318,
        "velocity": 0.61,
        "hand": "right"
      },
      {
        "midi": 66,
        "time": 22,
        "duration": 1.333,
        "velocity": 0.57,
        "hand": "right"
      },
      {
        "midi": 70,
        "time": 22,
        "duration": 1.318,
        "velocity": 0.57,
        "hand": "right"
      },
      {
        "midi": 54,
        "time": 23.333,
        "duration": 0.667,
        "velocity": 0.6,
        "hand": "left"
      },
      {
        "midi": 61,
        "time": 23.333,
        "duration": 0.667,
        "velocity": 0.6,
        "hand": "right"
      },
      {
        "midi": 70,
        "time": 23.333,
        "duration": 0.652,
        "velocity": 0.6,
        "hand": "right"
      },
      {
        "midi": 53,
        "time": 24,
        "duration": 0.667,
        "velocity": 0.64,
        "hand": "left"
      },
      {
        "midi": 62,
        "time": 24,
        "duration": 0.667,
        "velocity": 0.64,
        "hand": "right"
      },
      {
        "midi": 68,
        "time": 24,
        "duration": 0.667,
        "velocity": 0.61,
        "hand": "right"
      },
      {
        "midi": 70,
        "time": 24,
        "duration": 0.667,
        "velocity": 0.61,
        "hand": "right"
      },
      {
        "midi": 51,
        "time": 24.667,
        "duration": 1.318,
        "velocity": 0.58,
        "hand": "left"
      },
      {
        "midi": 63,
        "time": 24.667,
        "duration": 1.318,
        "velocity": 0.58,
        "hand": "right"
      },
      {
        "midi": 66,
        "time": 24.667,
        "duration": 1.318,
        "velocity": 0.69,
        "hand": "right"
      },
      {
        "midi": 75,
        "time": 24.667,
        "duration": 1.318,
        "velocity": 0.69,
        "hand": "right"
      },
      {
        "midi": 51,
        "time": 26,
        "duration": 0.652,
        "velocity": 0.59,
        "hand": "left"
      },
      {
        "midi": 63,
        "time": 26,
        "duration": 0.652,
        "velocity": 0.59,
        "hand": "right"
      },
      {
        "midi": 66,
        "time": 26,
        "duration": 0.667,
        "velocity": 0.63,
        "hand": "right"
      },
      {
        "midi": 75,
        "time": 26,
        "duration": 0.667,
        "velocity": 0.63,
        "hand": "right"
      },
      {
        "midi": 51,
        "time": 26.667,
        "duration": 0.667,
        "velocity": 0.57,
        "hand": "left"
      },
      {
        "midi": 63,
        "time": 26.667,
        "duration": 0.651,
        "velocity": 0.57,
        "hand": "right"
      },
      {
        "midi": 67,
        "time": 26.667,
        "duration": 0.667,
        "velocity": 0.56,
        "hand": "right"
      },
      {
        "midi": 73,
        "time": 26.667,
        "duration": 0.667,
        "velocity": 0.56,
        "hand": "right"
      },
      {
        "midi": 56,
        "time": 27.333,
        "duration": 1.319,
        "velocity": 0.61,
        "hand": "left"
      },
      {
        "midi": 63,
        "time": 27.333,
        "duration": 1.333,
        "velocity": 0.61,
        "hand": "right"
      },
      {
        "midi": 68,
        "time": 27.333,
        "duration": 1.319,
        "velocity": 0.59,
        "hand": "right"
      },
      {
        "midi": 72,
        "time": 27.333,
        "duration": 1.333,
        "velocity": 0.59,
        "hand": "right"
      },
      {
        "midi": 56,
        "time": 28.667,
        "duration": 0.651,
        "velocity": 0.56,
        "hand": "left"
      },
      {
        "midi": 61,
        "time": 28.667,
        "duration": 0.667,
        "velocity": 0.56,
        "hand": "right"
      },
      {
        "midi": 68,
        "time": 28.667,
        "duration": 0.651,
        "velocity": 0.56,
        "hand": "right"
      },
      {
        "midi": 70,
        "time": 28.667,
        "duration": 0.667,
        "velocity": 0.56,
        "hand": "right"
      },
      {
        "midi": 56,
        "time": 29.333,
        "duration": 0.667,
        "velocity": 0.56,
        "hand": "left"
      },
      {
        "midi": 60,
        "time": 29.333,
        "duration": 0.667,
        "velocity": 0.56,
        "hand": "right"
      },
      {
        "midi": 68,
        "time": 29.333,
        "duration": 0.652,
        "velocity": 0.55,
        "hand": "right"
      },
      {
        "midi": 53,
        "time": 30,
        "duration": 1.318,
        "velocity": 0.67,
        "hand": "left"
      },
      {
        "midi": 61,
        "time": 30,
        "duration": 1.318,
        "velocity": 0.67,
        "hand": "right"
      },
      {
        "midi": 68,
        "time": 30,
        "duration": 1.333,
        "velocity": 0.67,
        "hand": "right"
      },
      {
        "midi": 73,
        "time": 30,
        "duration": 1.318,
        "velocity": 0.67,
        "hand": "right"
      },
      {
        "midi": 53,
        "time": 31.333,
        "duration": 0.667,
        "velocity": 0.55,
        "hand": "left"
      },
      {
        "midi": 56,
        "time": 31.333,
        "duration": 0.667,
        "velocity": 0.55,
        "hand": "left"
      },
      {
        "midi": 61,
        "time": 31.333,
        "duration": 0.667,
        "velocity": 0.6,
        "hand": "right"
      },
      {
        "midi": 73,
        "time": 31.333,
        "duration": 0.652,
        "velocity": 0.6,
        "hand": "right"
      },
      {
        "midi": 54,
        "time": 32,
        "duration": 0.667,
        "velocity": 0.59,
        "hand": "left"
      },
      {
        "midi": 58,
        "time": 32,
        "duration": 0.667,
        "velocity": 0.59,
        "hand": "left"
      },
      {
        "midi": 63,
        "time": 32,
        "duration": 0.667,
        "velocity": 0.59,
        "hand": "right"
      },
      {
        "midi": 73,
        "time": 32,
        "duration": 0.652,
        "velocity": 0.59,
        "hand": "right"
      },
      {
        "midi": 56,
        "time": 32.667,
        "duration": 1.318,
        "velocity": 0.58,
        "hand": "left"
      },
      {
        "midi": 65,
        "time": 32.667,
        "duration": 1.333,
        "velocity": 0.56,
        "hand": "right"
      },
      {
        "midi": 73,
        "time": 32.667,
        "duration": 1.333,
        "velocity": 0.56,
        "hand": "right"
      },
      {
        "midi": 44,
        "time": 34,
        "duration": 0.985,
        "velocity": 0.56,
        "hand": "left"
      },
      {
        "midi": 56,
        "time": 34,
        "duration": 0.985,
        "velocity": 0.56,
        "hand": "left"
      },
      {
        "midi": 63,
        "time": 34,
        "duration": 1,
        "velocity": 0.56,
        "hand": "right"
      },
      {
        "midi": 72,
        "time": 34,
        "duration": 1,
        "velocity": 0.56,
        "hand": "right"
      },
      {
        "midi": 44,
        "time": 35,
        "duration": 0.333,
        "velocity": 0.62,
        "hand": "left"
      },
      {
        "midi": 56,
        "time": 35,
        "duration": 0.318,
        "velocity": 0.62,
        "hand": "left"
      },
      {
        "midi": 65,
        "time": 35,
        "duration": 0.318,
        "velocity": 0.61,
        "hand": "right"
      },
      {
        "midi": 73,
        "time": 35,
        "duration": 0.318,
        "velocity": 0.61,
        "hand": "right"
      },
      {
        "midi": 49,
        "time": 35.333,
        "duration": 2.333,
        "velocity": 0.59,
        "hand": "left"
      },
      {
        "midi": 56,
        "time": 35.333,
        "duration": 2.333,
        "velocity": 0.59,
        "hand": "left"
      },
      {
        "midi": 65,
        "time": 35.333,
        "duration": 2.333,
        "velocity": 0.6,
        "hand": "right"
      },
      {
        "midi": 73,
        "time": 35.333,
        "duration": 2.333,
        "velocity": 0.6,
        "hand": "right"
      },
      {
        "midi": 68,
        "time": 37.667,
        "duration": 0.651,
        "velocity": 0.54,
        "hand": "right"
      },
      {
        "midi": 68,
        "time": 38.333,
        "duration": 0.652,
        "velocity": 0.56,
        "hand": "right"
      },
      {
        "midi": 68,
        "time": 39,
        "duration": 3.985,
        "velocity": 0.59,
        "hand": "right"
      },
      {
        "midi": 49,
        "time": 40.333,
        "duration": 0.667,
        "velocity": 0.54,
        "hand": "left"
      },
      {
        "midi": 56,
        "time": 40.333,
        "duration": 0.667,
        "velocity": 0.54,
        "hand": "left"
      },
      {
        "midi": 65,
        "time": 40.333,
        "duration": 0.652,
        "velocity": 0.54,
        "hand": "right"
      },
      {
        "midi": 53,
        "time": 41,
        "duration": 0.667,
        "velocity": 0.69,
        "hand": "left"
      },
      {
        "midi": 61,
        "time": 41,
        "duration": 0.667,
        "velocity": 0.69,
        "hand": "right"
      },
      {
        "midi": 65,
        "time": 41,
        "duration": 0.667,
        "velocity": 0.57,
        "hand": "right"
      },
      {
        "midi": 56,
        "time": 41.667,
        "duration": 1.333,
        "velocity": 0.58,
        "hand": "left"
      },
      {
        "midi": 60,
        "time": 41.667,
        "duration": 1.333,
        "velocity": 0.58,
        "hand": "right"
      },
      {
        "midi": 63,
        "time": 41.667,
        "duration": 1.333,
        "velocity": 0.56,
        "hand": "right"
      },
      {
        "midi": 68,
        "time": 43,
        "duration": 0.652,
        "velocity": 0.6,
        "hand": "right"
      },
      {
        "midi": 68,
        "time": 43.667,
        "duration": 0.651,
        "velocity": 0.58,
        "hand": "right"
      },
      {
        "midi": 68,
        "time": 44.333,
        "duration": 4,
        "velocity": 0.58,
        "hand": "right"
      },
      {
        "midi": 44,
        "time": 45.667,
        "duration": 0.667,
        "velocity": 0.51,
        "hand": "left"
      },
      {
        "midi": 60,
        "time": 45.667,
        "duration": 0.667,
        "velocity": 0.51,
        "hand": "right"
      },
      {
        "midi": 63,
        "time": 45.667,
        "duration": 0.651,
        "velocity": 0.52,
        "hand": "right"
      },
      {
        "midi": 48,
        "time": 46.333,
        "duration": 0.667,
        "velocity": 0.64,
        "hand": "left"
      },
      {
        "midi": 63,
        "time": 46.333,
        "duration": 0.667,
        "velocity": 0.64,
        "hand": "right"
      },
      {
        "midi": 66,
        "time": 46.333,
        "duration": 0.667,
        "velocity": 0.65,
        "hand": "right"
      },
      {
        "midi": 49,
        "time": 47,
        "duration": 1.318,
        "velocity": 0.56,
        "hand": "left"
      },
      {
        "midi": 61,
        "time": 47,
        "duration": 1.318,
        "velocity": 0.56,
        "hand": "right"
      },
      {
        "midi": 65,
        "time": 47,
        "duration": 1.318,
        "velocity": 0.55,
        "hand": "right"
      },
      {
        "midi": 49,
        "time": 48.333,
        "duration": 0.652,
        "velocity": 0.55,
        "hand": "left"
      },
      {
        "midi": 56,
        "time": 48.333,
        "duration": 0.667,
        "velocity": 0.55,
        "hand": "left"
      },
      {
        "midi": 61,
        "time": 48.333,
        "duration": 0.652,
        "velocity": 0.54,
        "hand": "right"
      },
      {
        "midi": 65,
        "time": 48.333,
        "duration": 0.652,
        "velocity": 0.54,
        "hand": "right"
      },
      {
        "midi": 49,
        "time": 49,
        "duration": 0.667,
        "velocity": 0.66,
        "hand": "left"
      },
      {
        "midi": 61,
        "time": 49,
        "duration": 0.652,
        "velocity": 0.66,
        "hand": "right"
      },
      {
        "midi": 65,
        "time": 49,
        "duration": 0.667,
        "velocity": 0.61,
        "hand": "right"
      },
      {
        "midi": 68,
        "time": 49,
        "duration": 0.667,
        "velocity": 0.61,
        "hand": "right"
      },
      {
        "midi": 54,
        "time": 49.667,
        "duration": 1.318,
        "velocity": 0.63,
        "hand": "left"
      },
      {
        "midi": 61,
        "time": 49.667,
        "duration": 1.318,
        "velocity": 0.63,
        "hand": "right"
      },
      {
        "midi": 66,
        "time": 49.667,
        "duration": 1.318,
        "velocity": 0.65,
        "hand": "right"
      },
      {
        "midi": 70,
        "time": 49.667,
        "duration": 1.318,
        "velocity": 0.65,
        "hand": "right"
      },
      {
        "midi": 54,
        "time": 51,
        "duration": 0.652,
        "velocity": 0.62,
        "hand": "left"
      },
      {
        "midi": 61,
        "time": 51,
        "duration": 0.667,
        "velocity": 0.62,
        "hand": "right"
      },
      {
        "midi": 66,
        "time": 51,
        "duration": 0.652,
        "velocity": 0.63,
        "hand": "right"
      },
      {
        "midi": 70,
        "time": 51,
        "duration": 0.667,
        "velocity": 0.63,
        "hand": "right"
      },
      {
        "midi": 54,
        "time": 51.667,
        "duration": 0.667,
        "velocity": 0.57,
        "hand": "left"
      },
      {
        "midi": 58,
        "time": 51.667,
        "duration": 0.667,
        "velocity": 0.57,
        "hand": "left"
      },
      {
        "midi": 66,
        "time": 51.667,
        "duration": 0.667,
        "velocity": 0.66,
        "hand": "right"
      },
      {
        "midi": 73,
        "time": 51.667,
        "duration": 0.651,
        "velocity": 0.66,
        "hand": "right"
      },
      {
        "midi": 56,
        "time": 52.333,
        "duration": 1.319,
        "velocity": 0.62,
        "hand": "left"
      },
      {
        "midi": 65,
        "time": 52.333,
        "duration": 1.333,
        "velocity": 0.62,
        "hand": "right"
      },
      {
        "midi": 73,
        "time": 52.333,
        "duration": 1.333,
        "velocity": 0.62,
        "hand": "right"
      },
      {
        "midi": 44,
        "time": 53.667,
        "duration": 0.985,
        "velocity": 0.61,
        "hand": "left"
      },
      {
        "midi": 56,
        "time": 53.667,
        "duration": 0.985,
        "velocity": 0.61,
        "hand": "left"
      },
      {
        "midi": 63,
        "time": 53.667,
        "duration": 1,
        "velocity": 0.58,
        "hand": "right"
      },
      {
        "midi": 72,
        "time": 53.667,
        "duration": 1,
        "velocity": 0.58,
        "hand": "right"
      },
      {
        "midi": 44,
        "time": 54.667,
        "duration": 0.333,
        "velocity": 0.63,
        "hand": "left"
      },
      {
        "midi": 56,
        "time": 54.667,
        "duration": 0.318,
        "velocity": 0.63,
        "hand": "left"
      },
      {
        "midi": 65,
        "time": 54.667,
        "duration": 0.318,
        "velocity": 0.61,
        "hand": "right"
      },
      {
        "midi": 73,
        "time": 54.667,
        "duration": 0.318,
        "velocity": 0.61,
        "hand": "right"
      },
      {
        "midi": 49,
        "time": 55,
        "duration": 2,
        "velocity": 0.64,
        "hand": "left"
      },
      {
        "midi": 56,
        "time": 55,
        "duration": 2,
        "velocity": 0.64,
        "hand": "left"
      },
      {
        "midi": 65,
        "time": 55,
        "duration": 2,
        "velocity": 0.58,
        "hand": "right"
      },
      {
        "midi": 73,
        "time": 55,
        "duration": 2,
        "velocity": 0.58,
        "hand": "right"
      }
    ]
  },
  "notes1Hand": [
    {
      "midi": 68,
      "time": 0,
      "duration": 0.652,
      "velocity": 0.56,
      "hand": "right"
    },
    {
      "midi": 68,
      "time": 0.667,
      "duration": 1.333,
      "velocity": 0.6,
      "hand": "right"
    },
    {
      "midi": 66,
      "time": 2,
      "duration": 0.667,
      "velocity": 0.57,
      "hand": "right"
    },
    {
      "midi": 65,
      "time": 2.667,
      "duration": 0.651,
      "velocity": 0.54,
      "hand": "right"
    },
    {
      "midi": 65,
      "time": 3.333,
      "duration": 1.333,
      "velocity": 0.59,
      "hand": "right"
    },
    {
      "midi": 63,
      "time": 4.667,
      "duration": 0.667,
      "velocity": 0.58,
      "hand": "right"
    },
    {
      "midi": 65,
      "time": 5.333,
      "duration": 0.667,
      "velocity": 0.63,
      "hand": "right"
    },
    {
      "midi": 66,
      "time": 6,
      "duration": 0.667,
      "velocity": 0.64,
      "hand": "right"
    },
    {
      "midi": 70,
      "time": 6.667,
      "duration": 0.667,
      "velocity": 0.67,
      "hand": "right"
    },
    {
      "midi": 68,
      "time": 7.333,
      "duration": 0.667,
      "velocity": 0.58,
      "hand": "right"
    },
    {
      "midi": 66,
      "time": 8,
      "duration": 0.667,
      "velocity": 0.55,
      "hand": "right"
    },
    {
      "midi": 65,
      "time": 8.667,
      "duration": 1.985,
      "velocity": 0.57,
      "hand": "right"
    },
    {
      "midi": 68,
      "time": 10.667,
      "duration": 0.667,
      "velocity": 0.65,
      "hand": "right"
    },
    {
      "midi": 73,
      "time": 11.333,
      "duration": 1.333,
      "velocity": 0.72,
      "hand": "right"
    },
    {
      "midi": 72,
      "time": 12.667,
      "duration": 0.667,
      "velocity": 0.57,
      "hand": "right"
    },
    {
      "midi": 70,
      "time": 13.333,
      "duration": 0.652,
      "velocity": 0.57,
      "hand": "right"
    },
    {
      "midi": 70,
      "time": 14,
      "duration": 1.333,
      "velocity": 0.58,
      "hand": "right"
    },
    {
      "midi": 68,
      "time": 15.333,
      "duration": 0.667,
      "velocity": 0.57,
      "hand": "right"
    },
    {
      "midi": 67,
      "time": 16,
      "duration": 0.667,
      "velocity": 0.55,
      "hand": "right"
    },
    {
      "midi": 68,
      "time": 16.667,
      "duration": 1.985,
      "velocity": 0.63,
      "hand": "right"
    },
    {
      "midi": 68,
      "time": 18.667,
      "duration": 0.667,
      "velocity": 0.59,
      "hand": "right"
    },
    {
      "midi": 73,
      "time": 19.333,
      "duration": 1.319,
      "velocity": 0.66,
      "hand": "right"
    },
    {
      "midi": 73,
      "time": 20.667,
      "duration": 0.667,
      "velocity": 0.61,
      "hand": "right"
    },
    {
      "midi": 72,
      "time": 21.333,
      "duration": 0.667,
      "velocity": 0.57,
      "hand": "right"
    },
    {
      "midi": 70,
      "time": 22,
      "duration": 1.318,
      "velocity": 0.57,
      "hand": "right"
    },
    {
      "midi": 70,
      "time": 23.333,
      "duration": 0.652,
      "velocity": 0.6,
      "hand": "right"
    },
    {
      "midi": 70,
      "time": 24,
      "duration": 0.667,
      "velocity": 0.61,
      "hand": "right"
    },
    {
      "midi": 75,
      "time": 24.667,
      "duration": 1.318,
      "velocity": 0.69,
      "hand": "right"
    },
    {
      "midi": 75,
      "time": 26,
      "duration": 0.667,
      "velocity": 0.63,
      "hand": "right"
    },
    {
      "midi": 73,
      "time": 26.667,
      "duration": 0.667,
      "velocity": 0.56,
      "hand": "right"
    },
    {
      "midi": 72,
      "time": 27.333,
      "duration": 1.333,
      "velocity": 0.59,
      "hand": "right"
    },
    {
      "midi": 70,
      "time": 28.667,
      "duration": 0.667,
      "velocity": 0.56,
      "hand": "right"
    },
    {
      "midi": 68,
      "time": 29.333,
      "duration": 0.652,
      "velocity": 0.55,
      "hand": "right"
    },
    {
      "midi": 73,
      "time": 30,
      "duration": 1.318,
      "velocity": 0.67,
      "hand": "right"
    },
    {
      "midi": 73,
      "time": 31.333,
      "duration": 0.652,
      "velocity": 0.6,
      "hand": "right"
    },
    {
      "midi": 73,
      "time": 32,
      "duration": 0.652,
      "velocity": 0.59,
      "hand": "right"
    },
    {
      "midi": 73,
      "time": 32.667,
      "duration": 1.333,
      "velocity": 0.56,
      "hand": "right"
    },
    {
      "midi": 72,
      "time": 34,
      "duration": 1,
      "velocity": 0.56,
      "hand": "right"
    },
    {
      "midi": 73,
      "time": 35,
      "duration": 0.4,
      "velocity": 0.61,
      "hand": "right"
    },
    {
      "midi": 68,
      "time": 37.667,
      "duration": 0.651,
      "velocity": 0.54,
      "hand": "right"
    },
    {
      "midi": 68,
      "time": 38.333,
      "duration": 0.652,
      "velocity": 0.56,
      "hand": "right"
    },
    {
      "midi": 68,
      "time": 39,
      "duration": 2.4,
      "velocity": 0.59,
      "hand": "right"
    },
    {
      "midi": 65,
      "time": 40.333,
      "duration": 0.652,
      "velocity": 0.54,
      "hand": "right"
    },
    {
      "midi": 65,
      "time": 41,
      "duration": 0.667,
      "velocity": 0.57,
      "hand": "right"
    },
    {
      "midi": 63,
      "time": 41.667,
      "duration": 1.333,
      "velocity": 0.56,
      "hand": "right"
    },
    {
      "midi": 68,
      "time": 43,
      "duration": 0.652,
      "velocity": 0.6,
      "hand": "right"
    },
    {
      "midi": 68,
      "time": 43.667,
      "duration": 0.651,
      "velocity": 0.58,
      "hand": "right"
    },
    {
      "midi": 68,
      "time": 44.333,
      "duration": 2.4,
      "velocity": 0.58,
      "hand": "right"
    },
    {
      "midi": 63,
      "time": 45.667,
      "duration": 0.651,
      "velocity": 0.52,
      "hand": "right"
    },
    {
      "midi": 66,
      "time": 46.333,
      "duration": 0.667,
      "velocity": 0.65,
      "hand": "right"
    },
    {
      "midi": 65,
      "time": 47,
      "duration": 1.318,
      "velocity": 0.55,
      "hand": "right"
    },
    {
      "midi": 65,
      "time": 48.333,
      "duration": 0.652,
      "velocity": 0.54,
      "hand": "right"
    },
    {
      "midi": 68,
      "time": 49,
      "duration": 0.667,
      "velocity": 0.61,
      "hand": "right"
    },
    {
      "midi": 70,
      "time": 49.667,
      "duration": 1.318,
      "velocity": 0.65,
      "hand": "right"
    },
    {
      "midi": 70,
      "time": 51,
      "duration": 0.667,
      "velocity": 0.63,
      "hand": "right"
    },
    {
      "midi": 73,
      "time": 51.667,
      "duration": 0.651,
      "velocity": 0.66,
      "hand": "right"
    },
    {
      "midi": 73,
      "time": 52.333,
      "duration": 1.333,
      "velocity": 0.62,
      "hand": "right"
    },
    {
      "midi": 72,
      "time": 53.667,
      "duration": 1,
      "velocity": 0.58,
      "hand": "right"
    },
    {
      "midi": 73,
      "time": 54.667,
      "duration": 0.4,
      "velocity": 0.61,
      "hand": "right"
    }
  ],
  "notes2Hands": [
    {
      "midi": 49,
      "time": 0,
      "duration": 0.652,
      "velocity": 0.54,
      "hand": "left"
    },
    {
      "midi": 61,
      "time": 0,
      "duration": 0.652,
      "velocity": 0.54,
      "hand": "right"
    },
    {
      "midi": 65,
      "time": 0,
      "duration": 0.652,
      "velocity": 0.56,
      "hand": "right"
    },
    {
      "midi": 68,
      "time": 0,
      "duration": 0.652,
      "velocity": 0.56,
      "hand": "right"
    },
    {
      "midi": 49,
      "time": 0.667,
      "duration": 1.333,
      "velocity": 0.58,
      "hand": "left"
    },
    {
      "midi": 61,
      "time": 0.667,
      "duration": 1.333,
      "velocity": 0.58,
      "hand": "right"
    },
    {
      "midi": 65,
      "time": 0.667,
      "duration": 1.333,
      "velocity": 0.6,
      "hand": "right"
    },
    {
      "midi": 68,
      "time": 0.667,
      "duration": 1.333,
      "velocity": 0.6,
      "hand": "right"
    },
    {
      "midi": 48,
      "time": 2,
      "duration": 0.667,
      "velocity": 0.57,
      "hand": "left"
    },
    {
      "midi": 56,
      "time": 2,
      "duration": 0.652,
      "velocity": 0.57,
      "hand": "left"
    },
    {
      "midi": 63,
      "time": 2,
      "duration": 0.667,
      "velocity": 0.57,
      "hand": "right"
    },
    {
      "midi": 66,
      "time": 2,
      "duration": 0.667,
      "velocity": 0.57,
      "hand": "right"
    },
    {
      "midi": 49,
      "time": 2.667,
      "duration": 0.333,
      "velocity": 0.54,
      "hand": "left"
    },
    {
      "midi": 56,
      "time": 2.667,
      "duration": 0.651,
      "velocity": 0.61,
      "hand": "left"
    },
    {
      "midi": 61,
      "time": 2.667,
      "duration": 0.651,
      "velocity": 0.54,
      "hand": "right"
    },
    {
      "midi": 65,
      "time": 2.667,
      "duration": 0.651,
      "velocity": 0.54,
      "hand": "right"
    },
    {
      "midi": 53,
      "time": 3,
      "duration": 0.333,
      "velocity": 0.59,
      "hand": "left"
    },
    {
      "midi": 56,
      "time": 3.333,
      "duration": 1.319,
      "velocity": 0.57,
      "hand": "left"
    },
    {
      "midi": 61,
      "time": 3.333,
      "duration": 1.333,
      "velocity": 0.59,
      "hand": "right"
    },
    {
      "midi": 65,
      "time": 3.333,
      "duration": 1.333,
      "velocity": 0.59,
      "hand": "right"
    },
    {
      "midi": 54,
      "time": 4.667,
      "duration": 0.667,
      "velocity": 0.6,
      "hand": "left"
    },
    {
      "midi": 56,
      "time": 4.667,
      "duration": 0.651,
      "velocity": 0.6,
      "hand": "left"
    },
    {
      "midi": 60,
      "time": 4.667,
      "duration": 0.667,
      "velocity": 0.58,
      "hand": "right"
    },
    {
      "midi": 63,
      "time": 4.667,
      "duration": 0.667,
      "velocity": 0.58,
      "hand": "right"
    },
    {
      "midi": 53,
      "time": 5.333,
      "duration": 0.667,
      "velocity": 0.57,
      "hand": "left"
    },
    {
      "midi": 56,
      "time": 5.333,
      "duration": 0.652,
      "velocity": 0.57,
      "hand": "left"
    },
    {
      "midi": 61,
      "time": 5.333,
      "duration": 0.667,
      "velocity": 0.63,
      "hand": "right"
    },
    {
      "midi": 65,
      "time": 5.333,
      "duration": 0.667,
      "velocity": 0.63,
      "hand": "right"
    },
    {
      "midi": 51,
      "time": 6,
      "duration": 1.333,
      "velocity": 0.57,
      "hand": "left"
    },
    {
      "midi": 56,
      "time": 6,
      "duration": 1.318,
      "velocity": 0.57,
      "hand": "left"
    },
    {
      "midi": 60,
      "time": 6,
      "duration": 1.318,
      "velocity": 0.56,
      "hand": "right"
    },
    {
      "midi": 66,
      "time": 6,
      "duration": 0.667,
      "velocity": 0.64,
      "hand": "right"
    },
    {
      "midi": 70,
      "time": 6.667,
      "duration": 0.667,
      "velocity": 0.67,
      "hand": "right"
    },
    {
      "midi": 44,
      "time": 7.333,
      "duration": 0.652,
      "velocity": 0.58,
      "hand": "left"
    },
    {
      "midi": 56,
      "time": 7.333,
      "duration": 0.652,
      "velocity": 0.58,
      "hand": "left"
    },
    {
      "midi": 60,
      "time": 7.333,
      "duration": 0.667,
      "velocity": 0.58,
      "hand": "right"
    },
    {
      "midi": 68,
      "time": 7.333,
      "duration": 0.667,
      "velocity": 0.58,
      "hand": "right"
    },
    {
      "midi": 44,
      "time": 8,
      "duration": 0.667,
      "velocity": 0.6,
      "hand": "left"
    },
    {
      "midi": 56,
      "time": 8,
      "duration": 0.652,
      "velocity": 0.6,
      "hand": "left"
    },
    {
      "midi": 63,
      "time": 8,
      "duration": 0.667,
      "velocity": 0.55,
      "hand": "right"
    },
    {
      "midi": 66,
      "time": 8,
      "duration": 0.667,
      "velocity": 0.55,
      "hand": "right"
    },
    {
      "midi": 49,
      "time": 8.667,
      "duration": 1.985,
      "velocity": 0.61,
      "hand": "left"
    },
    {
      "midi": 56,
      "time": 8.667,
      "duration": 1.985,
      "velocity": 0.61,
      "hand": "left"
    },
    {
      "midi": 61,
      "time": 8.667,
      "duration": 2,
      "velocity": 0.57,
      "hand": "right"
    },
    {
      "midi": 65,
      "time": 8.667,
      "duration": 1.985,
      "velocity": 0.57,
      "hand": "right"
    },
    {
      "midi": 49,
      "time": 10.667,
      "duration": 0.667,
      "velocity": 0.57,
      "hand": "left"
    },
    {
      "midi": 56,
      "time": 10.667,
      "duration": 0.667,
      "velocity": 0.57,
      "hand": "left"
    },
    {
      "midi": 65,
      "time": 10.667,
      "duration": 0.651,
      "velocity": 0.65,
      "hand": "right"
    },
    {
      "midi": 68,
      "time": 10.667,
      "duration": 0.667,
      "velocity": 0.65,
      "hand": "right"
    },
    {
      "midi": 46,
      "time": 11.333,
      "duration": 1.333,
      "velocity": 0.62,
      "hand": "left"
    },
    {
      "midi": 58,
      "time": 11.333,
      "duration": 1.333,
      "velocity": 0.62,
      "hand": "left"
    },
    {
      "midi": 65,
      "time": 11.333,
      "duration": 1.333,
      "velocity": 0.72,
      "hand": "right"
    },
    {
      "midi": 73,
      "time": 11.333,
      "duration": 1.333,
      "velocity": 0.72,
      "hand": "right"
    },
    {
      "midi": 48,
      "time": 12.667,
      "duration": 0.667,
      "velocity": 0.57,
      "hand": "left"
    },
    {
      "midi": 57,
      "time": 12.667,
      "duration": 0.667,
      "velocity": 0.57,
      "hand": "left"
    },
    {
      "midi": 63,
      "time": 12.667,
      "duration": 0.667,
      "velocity": 0.57,
      "hand": "right"
    },
    {
      "midi": 72,
      "time": 12.667,
      "duration": 0.667,
      "velocity": 0.57,
      "hand": "right"
    },
    {
      "midi": 49,
      "time": 13.333,
      "duration": 0.652,
      "velocity": 0.58,
      "hand": "left"
    },
    {
      "midi": 58,
      "time": 13.333,
      "duration": 0.667,
      "velocity": 0.58,
      "hand": "left"
    },
    {
      "midi": 61,
      "time": 13.333,
      "duration": 0.652,
      "velocity": 0.57,
      "hand": "right"
    },
    {
      "midi": 70,
      "time": 13.333,
      "duration": 0.652,
      "velocity": 0.57,
      "hand": "right"
    },
    {
      "midi": 49,
      "time": 14,
      "duration": 1.333,
      "velocity": 0.64,
      "hand": "left"
    },
    {
      "midi": 61,
      "time": 14,
      "duration": 1.333,
      "velocity": 0.64,
      "hand": "right"
    },
    {
      "midi": 65,
      "time": 14,
      "duration": 1.333,
      "velocity": 0.58,
      "hand": "right"
    },
    {
      "midi": 70,
      "time": 14,
      "duration": 1.333,
      "velocity": 0.58,
      "hand": "right"
    },
    {
      "midi": 51,
      "time": 15.333,
      "duration": 0.652,
      "velocity": 0.6,
      "hand": "left"
    },
    {
      "midi": 60,
      "time": 15.333,
      "duration": 0.667,
      "velocity": 0.6,
      "hand": "right"
    },
    {
      "midi": 63,
      "time": 15.333,
      "duration": 0.652,
      "velocity": 0.57,
      "hand": "right"
    },
    {
      "midi": 68,
      "time": 15.333,
      "duration": 0.667,
      "velocity": 0.57,
      "hand": "right"
    },
    {
      "midi": 51,
      "time": 16,
      "duration": 0.667,
      "velocity": 0.59,
      "hand": "left"
    },
    {
      "midi": 58,
      "time": 16,
      "duration": 0.667,
      "velocity": 0.59,
      "hand": "left"
    },
    {
      "midi": 63,
      "time": 16,
      "duration": 0.652,
      "velocity": 0.55,
      "hand": "right"
    },
    {
      "midi": 67,
      "time": 16,
      "duration": 0.667,
      "velocity": 0.55,
      "hand": "right"
    },
    {
      "midi": 44,
      "time": 16.667,
      "duration": 2,
      "velocity": 0.65,
      "hand": "left"
    },
    {
      "midi": 60,
      "time": 16.667,
      "duration": 1.985,
      "velocity": 0.65,
      "hand": "right"
    },
    {
      "midi": 63,
      "time": 16.667,
      "duration": 2,
      "velocity": 0.63,
      "hand": "right"
    },
    {
      "midi": 68,
      "time": 16.667,
      "duration": 1.985,
      "velocity": 0.63,
      "hand": "right"
    },
    {
      "midi": 56,
      "time": 18.667,
      "duration": 0.667,
      "velocity": 0.59,
      "hand": "left"
    },
    {
      "midi": 60,
      "time": 18.667,
      "duration": 0.667,
      "velocity": 0.59,
      "hand": "right"
    },
    {
      "midi": 66,
      "time": 18.667,
      "duration": 0.667,
      "velocity": 0.59,
      "hand": "right"
    },
    {
      "midi": 68,
      "time": 18.667,
      "duration": 0.667,
      "velocity": 0.59,
      "hand": "right"
    },
    {
      "midi": 49,
      "time": 19.333,
      "duration": 1.319,
      "velocity": 0.63,
      "hand": "left"
    },
    {
      "midi": 61,
      "time": 19.333,
      "duration": 1.319,
      "velocity": 0.63,
      "hand": "right"
    },
    {
      "midi": 65,
      "time": 19.333,
      "duration": 1.319,
      "velocity": 0.66,
      "hand": "right"
    },
    {
      "midi": 73,
      "time": 19.333,
      "duration": 1.319,
      "velocity": 0.66,
      "hand": "right"
    },
    {
      "midi": 49,
      "time": 20.667,
      "duration": 0.667,
      "velocity": 0.62,
      "hand": "left"
    },
    {
      "midi": 61,
      "time": 20.667,
      "duration": 0.651,
      "velocity": 0.62,
      "hand": "right"
    },
    {
      "midi": 65,
      "time": 20.667,
      "duration": 0.667,
      "velocity": 0.61,
      "hand": "right"
    },
    {
      "midi": 73,
      "time": 20.667,
      "duration": 0.667,
      "velocity": 0.61,
      "hand": "right"
    },
    {
      "midi": 53,
      "time": 21.333,
      "duration": 0.667,
      "velocity": 0.56,
      "hand": "left"
    },
    {
      "midi": 61,
      "time": 21.333,
      "duration": 0.652,
      "velocity": 0.56,
      "hand": "right"
    },
    {
      "midi": 68,
      "time": 21.333,
      "duration": 0.667,
      "velocity": 0.57,
      "hand": "right"
    },
    {
      "midi": 72,
      "time": 21.333,
      "duration": 0.667,
      "velocity": 0.57,
      "hand": "right"
    },
    {
      "midi": 54,
      "time": 22,
      "duration": 1.318,
      "velocity": 0.61,
      "hand": "left"
    },
    {
      "midi": 61,
      "time": 22,
      "duration": 1.318,
      "velocity": 0.61,
      "hand": "right"
    },
    {
      "midi": 66,
      "time": 22,
      "duration": 1.333,
      "velocity": 0.57,
      "hand": "right"
    },
    {
      "midi": 70,
      "time": 22,
      "duration": 1.318,
      "velocity": 0.57,
      "hand": "right"
    },
    {
      "midi": 54,
      "time": 23.333,
      "duration": 0.667,
      "velocity": 0.6,
      "hand": "left"
    },
    {
      "midi": 61,
      "time": 23.333,
      "duration": 0.667,
      "velocity": 0.6,
      "hand": "right"
    },
    {
      "midi": 70,
      "time": 23.333,
      "duration": 0.652,
      "velocity": 0.6,
      "hand": "right"
    },
    {
      "midi": 53,
      "time": 24,
      "duration": 0.667,
      "velocity": 0.64,
      "hand": "left"
    },
    {
      "midi": 62,
      "time": 24,
      "duration": 0.667,
      "velocity": 0.64,
      "hand": "right"
    },
    {
      "midi": 68,
      "time": 24,
      "duration": 0.667,
      "velocity": 0.61,
      "hand": "right"
    },
    {
      "midi": 70,
      "time": 24,
      "duration": 0.667,
      "velocity": 0.61,
      "hand": "right"
    },
    {
      "midi": 51,
      "time": 24.667,
      "duration": 1.318,
      "velocity": 0.58,
      "hand": "left"
    },
    {
      "midi": 63,
      "time": 24.667,
      "duration": 1.318,
      "velocity": 0.58,
      "hand": "right"
    },
    {
      "midi": 66,
      "time": 24.667,
      "duration": 1.318,
      "velocity": 0.69,
      "hand": "right"
    },
    {
      "midi": 75,
      "time": 24.667,
      "duration": 1.318,
      "velocity": 0.69,
      "hand": "right"
    },
    {
      "midi": 51,
      "time": 26,
      "duration": 0.652,
      "velocity": 0.59,
      "hand": "left"
    },
    {
      "midi": 63,
      "time": 26,
      "duration": 0.652,
      "velocity": 0.59,
      "hand": "right"
    },
    {
      "midi": 66,
      "time": 26,
      "duration": 0.667,
      "velocity": 0.63,
      "hand": "right"
    },
    {
      "midi": 75,
      "time": 26,
      "duration": 0.667,
      "velocity": 0.63,
      "hand": "right"
    },
    {
      "midi": 51,
      "time": 26.667,
      "duration": 0.667,
      "velocity": 0.57,
      "hand": "left"
    },
    {
      "midi": 63,
      "time": 26.667,
      "duration": 0.651,
      "velocity": 0.57,
      "hand": "right"
    },
    {
      "midi": 67,
      "time": 26.667,
      "duration": 0.667,
      "velocity": 0.56,
      "hand": "right"
    },
    {
      "midi": 73,
      "time": 26.667,
      "duration": 0.667,
      "velocity": 0.56,
      "hand": "right"
    },
    {
      "midi": 56,
      "time": 27.333,
      "duration": 1.319,
      "velocity": 0.61,
      "hand": "left"
    },
    {
      "midi": 63,
      "time": 27.333,
      "duration": 1.333,
      "velocity": 0.61,
      "hand": "right"
    },
    {
      "midi": 68,
      "time": 27.333,
      "duration": 1.319,
      "velocity": 0.59,
      "hand": "right"
    },
    {
      "midi": 72,
      "time": 27.333,
      "duration": 1.333,
      "velocity": 0.59,
      "hand": "right"
    },
    {
      "midi": 56,
      "time": 28.667,
      "duration": 0.651,
      "velocity": 0.56,
      "hand": "left"
    },
    {
      "midi": 61,
      "time": 28.667,
      "duration": 0.667,
      "velocity": 0.56,
      "hand": "right"
    },
    {
      "midi": 68,
      "time": 28.667,
      "duration": 0.651,
      "velocity": 0.56,
      "hand": "right"
    },
    {
      "midi": 70,
      "time": 28.667,
      "duration": 0.667,
      "velocity": 0.56,
      "hand": "right"
    },
    {
      "midi": 56,
      "time": 29.333,
      "duration": 0.667,
      "velocity": 0.56,
      "hand": "left"
    },
    {
      "midi": 60,
      "time": 29.333,
      "duration": 0.667,
      "velocity": 0.56,
      "hand": "right"
    },
    {
      "midi": 68,
      "time": 29.333,
      "duration": 0.652,
      "velocity": 0.55,
      "hand": "right"
    },
    {
      "midi": 53,
      "time": 30,
      "duration": 1.318,
      "velocity": 0.67,
      "hand": "left"
    },
    {
      "midi": 61,
      "time": 30,
      "duration": 1.318,
      "velocity": 0.67,
      "hand": "right"
    },
    {
      "midi": 68,
      "time": 30,
      "duration": 1.333,
      "velocity": 0.67,
      "hand": "right"
    },
    {
      "midi": 73,
      "time": 30,
      "duration": 1.318,
      "velocity": 0.67,
      "hand": "right"
    },
    {
      "midi": 53,
      "time": 31.333,
      "duration": 0.667,
      "velocity": 0.55,
      "hand": "left"
    },
    {
      "midi": 56,
      "time": 31.333,
      "duration": 0.667,
      "velocity": 0.55,
      "hand": "left"
    },
    {
      "midi": 61,
      "time": 31.333,
      "duration": 0.667,
      "velocity": 0.6,
      "hand": "right"
    },
    {
      "midi": 73,
      "time": 31.333,
      "duration": 0.652,
      "velocity": 0.6,
      "hand": "right"
    },
    {
      "midi": 54,
      "time": 32,
      "duration": 0.667,
      "velocity": 0.59,
      "hand": "left"
    },
    {
      "midi": 58,
      "time": 32,
      "duration": 0.667,
      "velocity": 0.59,
      "hand": "left"
    },
    {
      "midi": 63,
      "time": 32,
      "duration": 0.667,
      "velocity": 0.59,
      "hand": "right"
    },
    {
      "midi": 73,
      "time": 32,
      "duration": 0.652,
      "velocity": 0.59,
      "hand": "right"
    },
    {
      "midi": 56,
      "time": 32.667,
      "duration": 1.318,
      "velocity": 0.58,
      "hand": "left"
    },
    {
      "midi": 65,
      "time": 32.667,
      "duration": 1.333,
      "velocity": 0.56,
      "hand": "right"
    },
    {
      "midi": 73,
      "time": 32.667,
      "duration": 1.333,
      "velocity": 0.56,
      "hand": "right"
    },
    {
      "midi": 44,
      "time": 34,
      "duration": 0.985,
      "velocity": 0.56,
      "hand": "left"
    },
    {
      "midi": 56,
      "time": 34,
      "duration": 0.985,
      "velocity": 0.56,
      "hand": "left"
    },
    {
      "midi": 63,
      "time": 34,
      "duration": 1,
      "velocity": 0.56,
      "hand": "right"
    },
    {
      "midi": 72,
      "time": 34,
      "duration": 1,
      "velocity": 0.56,
      "hand": "right"
    },
    {
      "midi": 44,
      "time": 35,
      "duration": 0.333,
      "velocity": 0.62,
      "hand": "left"
    },
    {
      "midi": 56,
      "time": 35,
      "duration": 0.318,
      "velocity": 0.62,
      "hand": "left"
    },
    {
      "midi": 65,
      "time": 35,
      "duration": 0.318,
      "velocity": 0.61,
      "hand": "right"
    },
    {
      "midi": 73,
      "time": 35,
      "duration": 0.318,
      "velocity": 0.61,
      "hand": "right"
    },
    {
      "midi": 49,
      "time": 35.333,
      "duration": 2.333,
      "velocity": 0.59,
      "hand": "left"
    },
    {
      "midi": 56,
      "time": 35.333,
      "duration": 2.333,
      "velocity": 0.59,
      "hand": "left"
    },
    {
      "midi": 65,
      "time": 35.333,
      "duration": 2.333,
      "velocity": 0.6,
      "hand": "right"
    },
    {
      "midi": 73,
      "time": 35.333,
      "duration": 2.333,
      "velocity": 0.6,
      "hand": "right"
    },
    {
      "midi": 68,
      "time": 37.667,
      "duration": 0.651,
      "velocity": 0.54,
      "hand": "right"
    },
    {
      "midi": 68,
      "time": 38.333,
      "duration": 0.652,
      "velocity": 0.56,
      "hand": "right"
    },
    {
      "midi": 68,
      "time": 39,
      "duration": 3.985,
      "velocity": 0.59,
      "hand": "right"
    },
    {
      "midi": 49,
      "time": 40.333,
      "duration": 0.667,
      "velocity": 0.54,
      "hand": "left"
    },
    {
      "midi": 56,
      "time": 40.333,
      "duration": 0.667,
      "velocity": 0.54,
      "hand": "left"
    },
    {
      "midi": 65,
      "time": 40.333,
      "duration": 0.652,
      "velocity": 0.54,
      "hand": "right"
    },
    {
      "midi": 53,
      "time": 41,
      "duration": 0.667,
      "velocity": 0.69,
      "hand": "left"
    },
    {
      "midi": 61,
      "time": 41,
      "duration": 0.667,
      "velocity": 0.69,
      "hand": "right"
    },
    {
      "midi": 65,
      "time": 41,
      "duration": 0.667,
      "velocity": 0.57,
      "hand": "right"
    },
    {
      "midi": 56,
      "time": 41.667,
      "duration": 1.333,
      "velocity": 0.58,
      "hand": "left"
    },
    {
      "midi": 60,
      "time": 41.667,
      "duration": 1.333,
      "velocity": 0.58,
      "hand": "right"
    },
    {
      "midi": 63,
      "time": 41.667,
      "duration": 1.333,
      "velocity": 0.56,
      "hand": "right"
    },
    {
      "midi": 68,
      "time": 43,
      "duration": 0.652,
      "velocity": 0.6,
      "hand": "right"
    },
    {
      "midi": 68,
      "time": 43.667,
      "duration": 0.651,
      "velocity": 0.58,
      "hand": "right"
    },
    {
      "midi": 68,
      "time": 44.333,
      "duration": 4,
      "velocity": 0.58,
      "hand": "right"
    },
    {
      "midi": 44,
      "time": 45.667,
      "duration": 0.667,
      "velocity": 0.51,
      "hand": "left"
    },
    {
      "midi": 60,
      "time": 45.667,
      "duration": 0.667,
      "velocity": 0.51,
      "hand": "right"
    },
    {
      "midi": 63,
      "time": 45.667,
      "duration": 0.651,
      "velocity": 0.52,
      "hand": "right"
    },
    {
      "midi": 48,
      "time": 46.333,
      "duration": 0.667,
      "velocity": 0.64,
      "hand": "left"
    },
    {
      "midi": 63,
      "time": 46.333,
      "duration": 0.667,
      "velocity": 0.64,
      "hand": "right"
    },
    {
      "midi": 66,
      "time": 46.333,
      "duration": 0.667,
      "velocity": 0.65,
      "hand": "right"
    },
    {
      "midi": 49,
      "time": 47,
      "duration": 1.318,
      "velocity": 0.56,
      "hand": "left"
    },
    {
      "midi": 61,
      "time": 47,
      "duration": 1.318,
      "velocity": 0.56,
      "hand": "right"
    },
    {
      "midi": 65,
      "time": 47,
      "duration": 1.318,
      "velocity": 0.55,
      "hand": "right"
    },
    {
      "midi": 49,
      "time": 48.333,
      "duration": 0.652,
      "velocity": 0.55,
      "hand": "left"
    },
    {
      "midi": 56,
      "time": 48.333,
      "duration": 0.667,
      "velocity": 0.55,
      "hand": "left"
    },
    {
      "midi": 61,
      "time": 48.333,
      "duration": 0.652,
      "velocity": 0.54,
      "hand": "right"
    },
    {
      "midi": 65,
      "time": 48.333,
      "duration": 0.652,
      "velocity": 0.54,
      "hand": "right"
    },
    {
      "midi": 49,
      "time": 49,
      "duration": 0.667,
      "velocity": 0.66,
      "hand": "left"
    },
    {
      "midi": 61,
      "time": 49,
      "duration": 0.652,
      "velocity": 0.66,
      "hand": "right"
    },
    {
      "midi": 65,
      "time": 49,
      "duration": 0.667,
      "velocity": 0.61,
      "hand": "right"
    },
    {
      "midi": 68,
      "time": 49,
      "duration": 0.667,
      "velocity": 0.61,
      "hand": "right"
    },
    {
      "midi": 54,
      "time": 49.667,
      "duration": 1.318,
      "velocity": 0.63,
      "hand": "left"
    },
    {
      "midi": 61,
      "time": 49.667,
      "duration": 1.318,
      "velocity": 0.63,
      "hand": "right"
    },
    {
      "midi": 66,
      "time": 49.667,
      "duration": 1.318,
      "velocity": 0.65,
      "hand": "right"
    },
    {
      "midi": 70,
      "time": 49.667,
      "duration": 1.318,
      "velocity": 0.65,
      "hand": "right"
    },
    {
      "midi": 54,
      "time": 51,
      "duration": 0.652,
      "velocity": 0.62,
      "hand": "left"
    },
    {
      "midi": 61,
      "time": 51,
      "duration": 0.667,
      "velocity": 0.62,
      "hand": "right"
    },
    {
      "midi": 66,
      "time": 51,
      "duration": 0.652,
      "velocity": 0.63,
      "hand": "right"
    },
    {
      "midi": 70,
      "time": 51,
      "duration": 0.667,
      "velocity": 0.63,
      "hand": "right"
    },
    {
      "midi": 54,
      "time": 51.667,
      "duration": 0.667,
      "velocity": 0.57,
      "hand": "left"
    },
    {
      "midi": 58,
      "time": 51.667,
      "duration": 0.667,
      "velocity": 0.57,
      "hand": "left"
    },
    {
      "midi": 66,
      "time": 51.667,
      "duration": 0.667,
      "velocity": 0.66,
      "hand": "right"
    },
    {
      "midi": 73,
      "time": 51.667,
      "duration": 0.651,
      "velocity": 0.66,
      "hand": "right"
    },
    {
      "midi": 56,
      "time": 52.333,
      "duration": 1.319,
      "velocity": 0.62,
      "hand": "left"
    },
    {
      "midi": 65,
      "time": 52.333,
      "duration": 1.333,
      "velocity": 0.62,
      "hand": "right"
    },
    {
      "midi": 73,
      "time": 52.333,
      "duration": 1.333,
      "velocity": 0.62,
      "hand": "right"
    },
    {
      "midi": 44,
      "time": 53.667,
      "duration": 0.985,
      "velocity": 0.61,
      "hand": "left"
    },
    {
      "midi": 56,
      "time": 53.667,
      "duration": 0.985,
      "velocity": 0.61,
      "hand": "left"
    },
    {
      "midi": 63,
      "time": 53.667,
      "duration": 1,
      "velocity": 0.58,
      "hand": "right"
    },
    {
      "midi": 72,
      "time": 53.667,
      "duration": 1,
      "velocity": 0.58,
      "hand": "right"
    },
    {
      "midi": 44,
      "time": 54.667,
      "duration": 0.333,
      "velocity": 0.63,
      "hand": "left"
    },
    {
      "midi": 56,
      "time": 54.667,
      "duration": 0.318,
      "velocity": 0.63,
      "hand": "left"
    },
    {
      "midi": 65,
      "time": 54.667,
      "duration": 0.318,
      "velocity": 0.61,
      "hand": "right"
    },
    {
      "midi": 73,
      "time": 54.667,
      "duration": 0.318,
      "velocity": 0.61,
      "hand": "right"
    },
    {
      "midi": 49,
      "time": 55,
      "duration": 2,
      "velocity": 0.64,
      "hand": "left"
    },
    {
      "midi": 56,
      "time": 55,
      "duration": 2,
      "velocity": 0.64,
      "hand": "left"
    },
    {
      "midi": 65,
      "time": 55,
      "duration": 2,
      "velocity": 0.58,
      "hand": "right"
    },
    {
      "midi": 73,
      "time": 55,
      "duration": 2,
      "velocity": 0.58,
      "hand": "right"
    }
  ]
}
