{
  "id": "suite-bergamasque-clair-de-lunedebussy",
  "title": "Clair de Lune",
  "artist": "Claude Debussy",
  "difficulty": "Difícil",
  "bpm": 60,
  "duration": 323,
  "category": "Clássicos",
  "isPremium": true,
  "coverUrl": "/images/covers/placeholder.png",
  "notes": [
    {
      "midi": 65,
      "time": 0,
      "duration": 4,
      "velocity": 0.71,
      "hand": "right"
    },
    {
      "midi": 68,
      "time": 0,
      "duration": 4,
      "velocity": 0.71,
      "hand": "right"
    },
    {
      "midi": 77,
      "time": 0.5,
      "duration": 1.985,
      "velocity": 0.71,
      "hand": "right"
    },
    {
      "midi": 80,
      "time": 0.5,
      "duration": 2,
      "velocity": 0.71,
      "hand": "right"
    },
    {
      "midi": 73,
      "time": 2.5,
      "duration": 2,
      "velocity": 0.71,
      "hand": "right"
    },
    {
      "midi": 77,
      "time": 2.5,
      "duration": 2,
      "velocity": 0.71,
      "hand": "right"
    },
    {
      "midi": 66,
      "time": 4,
      "duration": 4.5,
      "velocity": 0.71,
      "hand": "right"
    },
    {
      "midi": 69,
      "time": 4,
      "duration": 4.5,
      "velocity": 0.71,
      "hand": "right"
    },
    {
      "midi": 72,
      "time": 4.5,
      "duration": 0.5,
      "velocity": 0.71,
      "hand": "right"
    },
    {
      "midi": 75,
      "time": 4.5,
      "duration": 0.5,
      "velocity": 0.71,
      "hand": "right"
    },
    {
      "midi": 73,
      "time": 5,
      "duration": 0.5,
      "velocity": 0.71,
      "hand": "right"
    },
    {
      "midi": 77,
      "time": 5,
      "duration": 0.5,
      "velocity": 0.71,
      "hand": "right"
    },
    {
      "midi": 72,
      "time": 5.5,
      "duration": 3.5,
      "velocity": 0.71,
      "hand": "right"
    },
    {
      "midi": 75,
      "time": 5.5,
      "duration": 3.5,
      "velocity": 0.71,
      "hand": "right"
    },
    {
      "midi": 65,
      "time": 8.5,
      "duration": 4.5,
      "velocity": 0.71,
      "hand": "right"
    },
    {
      "midi": 68,
      "time": 8.5,
      "duration": 4.5,
      "velocity": 0.71,
      "hand": "right"
    },
    {
      "midi": 70,
      "time": 9,
      "duration": 0.5,
      "velocity": 0.71,
      "hand": "right"
    },
    {
      "midi": 73,
      "time": 9,
      "duration": 0.5,
      "velocity": 0.71,
      "hand": "right"
    },
    {
      "midi": 72,
      "time": 9.5,
      "duration": 0.5,
      "velocity": 0.71,
      "hand": "right"
    },
    {
      "midi": 75,
      "time": 9.5,
      "duration": 0.5,
      "velocity": 0.71,
      "hand": "right"
    },
    {
      "midi": 70,
      "time": 10,
      "duration": 3.5,
      "velocity": 0.71,
      "hand": "right"
    },
    {
      "midi": 73,
      "time": 10,
      "duration": 0.75,
      "velocity": 0.71,
      "hand": "right"
    },
    {
      "midi": 77,
      "time": 10.75,
      "duration": 1.5,
      "velocity": 0.71,
      "hand": "right"
    },
    {
      "midi": 73,
      "time": 12.25,
      "duration": 1.25,
      "velocity": 0.71,
      "hand": "right"
    },
    {
      "midi": 63,
      "time": 13,
      "duration": 4.485,
      "velocity": 0.71,
      "hand": "right"
    },
    {
      "midi": 66,
      "time": 13,
      "duration": 4.485,
      "velocity": 0.71,
      "hand": "right"
    },
    {
      "midi": 68,
      "time": 13.5,
      "duration": 0.5,
      "velocity": 0.71,
      "hand": "right"
    },
    {
      "midi": 72,
      "time": 13.5,
      "duration": 0.5,
      "velocity": 0.71,
      "hand": "right"
    },
    {
      "midi": 70,
      "time": 14,
      "duration": 0.5,
      "velocity": 0.71,
      "hand": "right"
    },
    {
      "midi": 73,
      "time": 14,
      "duration": 0.5,
      "velocity": 0.71,
      "hand": "right"
    },
    {
      "midi": 68,
      "time": 14.5,
      "duration": 3,
      "velocity": 0.71,
      "hand": "right"
    },
    {
      "midi": 72,
      "time": 14.5,
      "duration": 3.5,
      "velocity": 0.71,
      "hand": "right"
    },
    {
      "midi": 61,
      "time": 17.5,
      "duration": 3,
      "velocity": 0.71,
      "hand": "right"
    },
    {
      "midi": 63,
      "time": 17.5,
      "duration": 2.985,
      "velocity": 0.71,
      "hand": "right"
    },
    {
      "midi": 66,
      "time": 17.5,
      "duration": 2.985,
      "velocity": 0.71,
      "hand": "right"
    },
    {
      "midi": 70,
      "time": 18,
      "duration": 0.5,
      "velocity": 0.71,
      "hand": "right"
    },
    {
      "midi": 72,
      "time": 18.5,
      "duration": 0.5,
      "velocity": 0.71,
      "hand": "right"
    },
    {
      "midi": 70,
      "time": 19,
      "duration": 0.5,
      "velocity": 0.71,
      "hand": "right"
    },
    {
      "midi": 75,
      "time": 19.5,
      "duration": 0.5,
      "velocity": 0.71,
      "hand": "right"
    },
    {
      "midi": 70,
      "time": 20,
      "duration": 0.5,
      "velocity": 0.71,
      "hand": "right"
    },
    {
      "midi": 60,
      "time": 20.5,
      "duration": 1.5,
      "velocity": 0.71,
      "hand": "right"
    },
    {
      "midi": 63,
      "time": 20.5,
      "duration": 1.485,
      "velocity": 0.71,
      "hand": "right"
    },
    {
      "midi": 66,
      "time": 20.5,
      "duration": 1.5,
      "velocity": 0.71,
      "hand": "right"
    },
    {
      "midi": 68,
      "time": 20.5,
      "duration": 0.5,
      "velocity": 0.71,
      "hand": "right"
    },
    {
      "midi": 70,
      "time": 21,
      "duration": 0.5,
      "velocity": 0.71,
      "hand": "right"
    },
    {
      "midi": 68,
      "time": 21.5,
      "duration": 1,
      "velocity": 0.71,
      "hand": "right"
    },
    {
      "midi": 58,
      "time": 22,
      "duration": 3,
      "velocity": 0.71,
      "hand": "left"
    },
    {
      "midi": 61,
      "time": 22,
      "duration": 3,
      "velocity": 0.71,
      "hand": "right"
    },
    {
      "midi": 63,
      "time": 22,
      "duration": 2.985,
      "velocity": 0.71,
      "hand": "right"
    },
    {
      "midi": 66,
      "time": 22.5,
      "duration": 0.5,
      "velocity": 0.71,
      "hand": "right"
    },
    {
      "midi": 68,
      "time": 23,
      "duration": 0.5,
      "velocity": 0.71,
      "hand": "right"
    },
    {
      "midi": 66,
      "time": 23.5,
      "duration": 1.5,
      "velocity": 0.71,
      "hand": "right"
    },
    {
      "midi": 57,
      "time": 25,
      "duration": 1.5,
      "velocity": 0.71,
      "hand": "left"
    },
    {
      "midi": 60,
      "time": 25,
      "duration": 1.5,
      "velocity": 0.71,
      "hand": "right"
    },
    {
      "midi": 63,
      "time": 25,
      "duration": 1.5,
      "velocity": 0.71,
      "hand": "right"
    },
    {
      "midi": 65,
      "time": 25,
      "duration": 1.985,
      "velocity": 0.71,
      "hand": "right"
    },
    {
      "midi": 56,
      "time": 26.5,
      "duration": 3,
      "velocity": 0.71,
      "hand": "left"
    },
    {
      "midi": 58,
      "time": 26.5,
      "duration": 4.485,
      "velocity": 0.71,
      "hand": "left"
    },
    {
      "midi": 61,
      "time": 26.5,
      "duration": 4.5,
      "velocity": 0.71,
      "hand": "right"
    },
    {
      "midi": 65,
      "time": 27,
      "duration": 0.5,
      "velocity": 0.71,
      "hand": "right"
    },
    {
      "midi": 66,
      "time": 27.5,
      "duration": 0.5,
      "velocity": 0.71,
      "hand": "right"
    },
    {
      "midi": 65,
      "time": 28,
      "duration": 0.5,
      "velocity": 0.71,
      "hand": "right"
    },
    {
      "midi": 70,
      "time": 28.5,
      "duration": 0.5,
      "velocity": 0.71,
      "hand": "right"
    },
    {
      "midi": 65,
      "time": 29,
      "duration": 0.5,
      "velocity": 0.71,
      "hand": "right"
    },
    {
      "midi": 54,
      "time": 29.5,
      "duration": 1.5,
      "velocity": 0.71,
      "hand": "left"
    },
    {
      "midi": 63,
      "time": 29.5,
      "duration": 0.5,
      "velocity": 0.71,
      "hand": "right"
    },
    {
      "midi": 65,
      "time": 30,
      "duration": 0.5,
      "velocity": 0.71,
      "hand": "right"
    },
    {
      "midi": 63,
      "time": 30.5,
      "duration": 1,
      "velocity": 0.71,
      "hand": "right"
    },
    {
      "midi": 53,
      "time": 31,
      "duration": 3,
      "velocity": 0.71,
      "hand": "left"
    },
    {
      "midi": 56,
      "time": 31,
      "duration": 2.985,
      "velocity": 0.71,
      "hand": "left"
    },
    {
      "midi": 61,
      "time": 31.5,
      "duration": 0.5,
      "velocity": 0.71,
      "hand": "right"
    },
    {
      "midi": 63,
      "time": 32,
      "duration": 0.5,
      "velocity": 0.71,
      "hand": "right"
    },
    {
      "midi": 61,
      "time": 32.5,
      "duration": 1.5,
      "velocity": 0.71,
      "hand": "right"
    },
    {
      "midi": 51,
      "time": 34,
      "duration": 0.75,
      "velocity": 0.71,
      "hand": "left"
    },
    {
      "midi": 54,
      "time": 34,
      "duration": 1.5,
      "velocity": 0.71,
      "hand": "left"
    },
    {
      "midi": 60,
      "time": 34,
      "duration": 1.5,
      "velocity": 0.71,
      "hand": "right"
    },
    {
      "midi": 44,
      "time": 34.75,
      "duration": 1.25,
      "velocity": 0.71,
      "hand": "left"
    },
    {
      "midi": 37,
      "time": 35.5,
      "duration": 0.5,
      "velocity": 0.71,
      "hand": "left"
    },
    {
      "midi": 53,
      "time": 36,
      "duration": 1,
      "velocity": 0.71,
      "hand": "left"
    },
    {
      "midi": 56,
      "time": 36,
      "duration": 1,
      "velocity": 0.71,
      "hand": "left"
    },
    {
      "midi": 65,
      "time": 36.5,
      "duration": 3.5,
      "velocity": 0.71,
      "hand": "right"
    },
    {
      "midi": 68,
      "time": 36.5,
      "duration": 3.5,
      "velocity": 0.71,
      "hand": "right"
    },
    {
      "midi": 77,
      "time": 37,
      "duration": 1.485,
      "velocity": 0.71,
      "hand": "right"
    },
    {
      "midi": 80,
      "time": 37,
      "duration": 1.5,
      "velocity": 0.71,
      "hand": "right"
    },
    {
      "midi": 73,
      "time": 38.5,
      "duration": 2,
      "velocity": 0.71,
      "hand": "right"
    },
    {
      "midi": 77,
      "time": 38.5,
      "duration": 2,
      "velocity": 0.71,
      "hand": "right"
    },
    {
      "midi": 42,
      "time": 40,
      "duration": 3,
      "velocity": 0.71,
      "hand": "left"
    },
    {
      "midi": 49,
      "time": 40,
      "duration": 4.485,
      "velocity": 0.71,
      "hand": "left"
    },
    {
      "midi": 54,
      "time": 40.5,
      "duration": 4,
      "velocity": 0.71,
      "hand": "left"
    },
    {
      "midi": 58,
      "time": 40.5,
      "duration": 4,
      "velocity": 0.71,
      "hand": "left"
    },
    {
      "midi": 61,
      "time": 40.5,
      "duration": 4,
      "velocity": 0.71,
      "hand": "right"
    },
    {
      "midi": 66,
      "time": 40.5,
      "duration": 4,
      "velocity": 0.71,
      "hand": "right"
    },
    {
      "midi": 70,
      "time": 40.5,
      "duration": 4,
      "velocity": 0.71,
      "hand": "right"
    },
    {
      "midi": 75,
      "time": 40.5,
      "duration": 0.5,
      "velocity": 0.71,
      "hand": "right"
    },
    {
      "midi": 77,
      "time": 41,
      "duration": 0.5,
      "velocity": 0.71,
      "hand": "right"
    },
    {
      "midi": 75,
      "time": 41.5,
      "duration": 3.5,
      "velocity": 0.71,
      "hand": "right"
    },
    {
      "midi": 41,
      "time": 44.5,
      "duration": 3,
      "velocity": 0.71,
      "hand": "left"
    },
    {
      "midi": 49,
      "time": 44.5,
      "duration": 3,
      "velocity": 0.71,
      "hand": "left"
    },
    {
      "midi": 53,
      "time": 45,
      "duration": 1,
      "velocity": 0.71,
      "hand": "left"
    },
    {
      "midi": 56,
      "time": 45,
      "duration": 1,
      "velocity": 0.71,
      "hand": "left"
    },
    {
      "midi": 61,
      "time": 45,
      "duration": 0.5,
      "velocity": 0.71,
      "hand": "right"
    },
    {
      "midi": 68,
      "time": 45,
      "duration": 0.985,
      "velocity": 0.71,
      "hand": "right"
    },
    {
      "midi": 73,
      "time": 45,
      "duration": 0.5,
      "velocity": 0.71,
      "hand": "right"
    },
    {
      "midi": 63,
      "time": 45.5,
      "duration": 0.5,
      "velocity": 0.71,
      "hand": "right"
    },
    {
      "midi": 75,
      "time": 45.5,
      "duration": 0.5,
      "velocity": 0.71,
      "hand": "right"
    },
    {
      "midi": 65,
      "time": 46,
      "duration": 1.485,
      "velocity": 0.71,
      "hand": "right"
    },
    {
      "midi": 68,
      "time": 46,
      "duration": 1.5,
      "velocity": 0.71,
      "hand": "right"
    },
    {
      "midi": 73,
      "time": 46,
      "duration": 1.485,
      "velocity": 0.71,
      "hand": "right"
    },
    {
      "midi": 80,
      "time": 46,
      "duration": 1.5,
      "velocity": 0.71,
      "hand": "right"
    },
    {
      "midi": 56,
      "time": 47.5,
      "duration": 1.5,
      "velocity": 0.71,
      "hand": "left"
    },
    {
      "midi": 61,
      "time": 47.5,
      "duration": 1.5,
      "velocity": 0.71,
      "hand": "right"
    },
    {
      "midi": 65,
      "time": 47.5,
      "duration": 1.5,
      "velocity": 0.71,
      "hand": "right"
    },
    {
      "midi": 73,
      "time": 47.5,
      "duration": 1.5,
      "velocity": 0.71,
      "hand": "right"
    },
    {
      "midi": 77,
      "time": 47.5,
      "duration": 2,
      "velocity": 0.71,
      "hand": "right"
    },
    {
      "midi": 42,
      "time": 49,
      "duration": 3,
      "velocity": 0.71,
      "hand": "left"
    },
    {
      "midi": 49,
      "time": 49,
      "duration": 4.5,
      "velocity": 0.71,
      "hand": "left"
    },
    {
      "midi": 54,
      "time": 49.5,
      "duration": 4,
      "velocity": 0.71,
      "hand": "left"
    },
    {
      "midi": 58,
      "time": 49.5,
      "duration": 4,
      "velocity": 0.71,
      "hand": "left"
    },
    {
      "midi": 61,
      "time": 49.5,
      "duration": 4,
      "velocity": 0.71,
      "hand": "right"
    },
    {
      "midi": 66,
      "time": 49.5,
      "duration": 4,
      "velocity": 0.71,
      "hand": "right"
    },
    {
      "midi": 70,
      "time": 49.5,
      "duration": 4,
      "velocity": 0.71,
      "hand": "right"
    },
    {
      "midi": 75,
      "time": 49.5,
      "duration": 0.5,
      "velocity": 0.71,
      "hand": "right"
    },
    {
      "midi": 77,
      "time": 50,
      "duration": 0.5,
      "velocity": 0.71,
      "hand": "right"
    },
    {
      "midi": 75,
      "time": 50.5,
      "duration": 1.5,
      "velocity": 0.71,
      "hand": "right"
    },
    {
      "midi": 73,
      "time": 52,
      "duration": 1.985,
      "velocity": 0.71,
      "hand": "right"
    },
    {
      "midi": 44,
      "time": 53.5,
      "duration": 4.5,
      "velocity": 0.71,
      "hand": "left"
    },
    {
      "midi": 53,
      "time": 54,
      "duration": 1,
      "velocity": 0.71,
      "hand": "left"
    },
    {
      "midi": 59,
      "time": 54,
      "duration": 0.985,
      "velocity": 0.71,
      "hand": "left"
    },
    {
      "midi": 61,
      "time": 54,
      "duration": 0.5,
      "velocity": 0.71,
      "hand": "right"
    },
    {
      "midi": 68,
      "time": 54,
      "duration": 1,
      "velocity": 0.71,
      "hand": "right"
    },
    {
      "midi": 73,
      "time": 54,
      "duration": 0.5,
      "velocity": 0.71,
      "hand": "right"
    },
    {
      "midi": 63,
      "time": 54.5,
      "duration": 0.5,
      "velocity": 0.71,
      "hand": "right"
    },
    {
      "midi": 75,
      "time": 54.5,
      "duration": 0.5,
      "velocity": 0.71,
      "hand": "right"
    },
    {
      "midi": 59,
      "time": 55,
      "duration": 2,
      "velocity": 0.71,
      "hand": "left"
    },
    {
      "midi": 65,
      "time": 55,
      "duration": 2,
      "velocity": 0.71,
      "hand": "right"
    },
    {
      "midi": 70,
      "time": 55,
      "duration": 0.75,
      "velocity": 0.71,
      "hand": "right"
    },
    {
      "midi": 77,
      "time": 55,
      "duration": 2.985,
      "velocity": 0.71,
      "hand": "right"
    },
    {
      "midi": 82,
      "time": 55,
      "duration": 0.75,
      "velocity": 0.71,
      "hand": "right"
    },
    {
      "midi": 68,
      "time": 55.75,
      "duration": 1.5,
      "velocity": 0.71,
      "hand": "right"
    },
    {
      "midi": 80,
      "time": 55.75,
      "duration": 1.5,
      "velocity": 0.71,
      "hand": "right"
    },
    {
      "midi": 65,
      "time": 57.25,
      "duration": 0.75,
      "velocity": 0.71,
      "hand": "right"
    },
    {
      "midi": 46,
      "time": 58,
      "duration": 3,
      "velocity": 0.71,
      "hand": "left"
    },
    {
      "midi": 77,
      "time": 58,
      "duration": 0.5,
      "velocity": 0.71,
      "hand": "right"
    },
    {
      "midi": 53,
      "time": 58.5,
      "duration": 4,
      "velocity": 0.71,
      "hand": "left"
    },
    {
      "midi": 58,
      "time": 58.5,
      "duration": 4,
      "velocity": 0.71,
      "hand": "left"
    },
    {
      "midi": 63,
      "time": 58.5,
      "duration": 1.75,
      "velocity": 0.71,
      "hand": "right"
    },
    {
      "midi": 65,
      "time": 58.5,
      "duration": 4,
      "velocity": 0.71,
      "hand": "right"
    },
    {
      "midi": 70,
      "time": 58.5,
      "duration": 4,
      "velocity": 0.71,
      "hand": "right"
    },
    {
      "midi": 75,
      "time": 58.5,
      "duration": 0.5,
      "velocity": 0.71,
      "hand": "right"
    },
    {
      "midi": 77,
      "time": 59,
      "duration": 0.5,
      "velocity": 0.71,
      "hand": "right"
    },
    {
      "midi": 75,
      "time": 59.5,
      "duration": 0.75,
      "velocity": 0.71,
      "hand": "right"
    },
    {
      "midi": 61,
      "time": 60.25,
      "duration": 2.25,
      "velocity": 0.71,
      "hand": "right"
    },
    {
      "midi": 73,
      "time": 60.25,
      "duration": 1.5,
      "velocity": 0.71,
      "hand": "right"
    },
    {
      "midi": 39,
      "time": 62.5,
      "duration": 3,
      "velocity": 0.71,
      "hand": "left"
    },
    {
      "midi": 66,
      "time": 63.25,
      "duration": 1.235,
      "velocity": 0.71,
      "hand": "right"
    },
    {
      "midi": 70,
      "time": 63.25,
      "duration": 1.235,
      "velocity": 0.71,
      "hand": "right"
    },
    {
      "midi": 77,
      "time": 63.25,
      "duration": 1.25,
      "velocity": 0.71,
      "hand": "right"
    },
    {
      "midi": 82,
      "time": 63.25,
      "duration": 1.235,
      "velocity": 0.71,
      "hand": "right"
    },
    {
      "midi": 66,
      "time": 64.5,
      "duration": 0.485,
      "velocity": 0.71,
      "hand": "right"
    },
    {
      "midi": 70,
      "time": 64.5,
      "duration": 0.485,
      "velocity": 0.71,
      "hand": "right"
    },
    {
      "midi": 75,
      "time": 64.5,
      "duration": 0.485,
      "velocity": 0.71,
      "hand": "right"
    },
    {
      "midi": 82,
      "time": 64.5,
      "duration": 0.485,
      "velocity": 0.71,
      "hand": "right"
    },
    {
      "midi": 66,
      "time": 65,
      "duration": 0.485,
      "velocity": 0.71,
      "hand": "right"
    },
    {
      "midi": 70,
      "time": 65,
      "duration": 0.485,
      "velocity": 0.71,
      "hand": "right"
    },
    {
      "midi": 75,
      "time": 65,
      "duration": 0.485,
      "velocity": 0.71,
      "hand": "right"
    },
    {
      "midi": 82,
      "time": 65,
      "duration": 0.485,
      "velocity": 0.71,
      "hand": "right"
    },
    {
      "midi": 66,
      "time": 65.5,
      "duration": 0.485,
      "velocity": 0.71,
      "hand": "right"
    },
    {
      "midi": 70,
      "time": 65.5,
      "duration": 0.485,
      "velocity": 0.71,
      "hand": "right"
    },
    {
      "midi": 75,
      "time": 65.5,
      "duration": 0.5,
      "velocity": 0.71,
      "hand": "right"
    },
    {
      "midi": 82,
      "time": 65.5,
      "duration": 0.485,
      "velocity": 0.71,
      "hand": "right"
    },
    {
      "midi": 66,
      "time": 66,
      "duration": 0.485,
      "velocity": 0.71,
      "hand": "right"
    },
    {
      "midi": 70,
      "time": 66,
      "duration": 0.485,
      "velocity": 0.71,
      "hand": "right"
    },
    {
      "midi": 73,
      "time": 66,
      "duration": 0.485,
      "velocity": 0.71,
      "hand": "right"
    },
    {
      "midi": 82,
      "time": 66,
      "duration": 0.485,
      "velocity": 0.71,
      "hand": "right"
    },
    {
      "midi": 66,
      "time": 66.5,
      "duration": 0.485,
      "velocity": 0.71,
      "hand": "right"
    },
    {
      "midi": 70,
      "time": 66.5,
      "duration": 0.485,
      "velocity": 0.71,
      "hand": "right"
    },
    {
      "midi": 73,
      "time": 66.5,
      "duration": 0.485,
      "velocity": 0.71,
      "hand": "right"
    },
    {
      "midi": 82,
      "time": 66.5,
      "duration": 0.485,
      "velocity": 0.71,
      "hand": "right"
    },
    {
      "midi": 66,
      "time": 67,
      "duration": 0.485,
      "velocity": 0.71,
      "hand": "right"
    },
    {
      "midi": 70,
      "time": 67,
      "duration": 0.485,
      "velocity": 0.71,
      "hand": "right"
    },
    {
      "midi": 73,
      "time": 67,
      "duration": 0.5,
      "velocity": 0.71,
      "hand": "right"
    },
    {
      "midi": 82,
      "time": 67,
      "duration": 0.485,
      "velocity": 0.71,
      "hand": "right"
    },
    {
      "midi": 72,
      "time": 67.5,
      "duration": 0.485,
      "velocity": 0.71,
      "hand": "right"
    },
    {
      "midi": 78,
      "time": 67.5,
      "duration": 0.485,
      "velocity": 0.71,
      "hand": "right"
    },
    {
      "midi": 82,
      "time": 67.5,
      "duration": 0.485,
      "velocity": 0.71,
      "hand": "right"
    },
    {
      "midi": 84,
      "time": 67.5,
      "duration": 0.485,
      "velocity": 0.71,
      "hand": "right"
    },
    {
      "midi": 72,
      "time": 68,
      "duration": 0.485,
      "velocity": 0.71,
      "hand": "right"
    },
    {
      "midi": 78,
      "time": 68,
      "duration": 0.485,
      "velocity": 0.71,
      "hand": "right"
    },
    {
      "midi": 82,
      "time": 68,
      "duration": 0.485,
      "velocity": 0.71,
      "hand": "right"
    },
    {
      "midi": 84,
      "time": 68,
      "duration": 0.485,
      "velocity": 0.71,
      "hand": "right"
    },
    {
      "midi": 72,
      "time": 68.5,
      "duration": 0.75,
      "velocity": 0.71,
      "hand": "right"
    },
    {
      "midi": 78,
      "time": 68.5,
      "duration": 0.75,
      "velocity": 0.71,
      "hand": "right"
    },
    {
      "midi": 82,
      "time": 68.5,
      "duration": 0.735,
      "velocity": 0.71,
      "hand": "right"
    },
    {
      "midi": 84,
      "time": 68.5,
      "duration": 0.75,
      "velocity": 0.71,
      "hand": "right"
    },
    {
      "midi": 66,
      "time": 69.25,
      "duration": 0.735,
      "velocity": 0.71,
      "hand": "right"
    },
    {
      "midi": 70,
      "time": 69.25,
      "duration": 0.735,
      "velocity": 0.71,
      "hand": "right"
    },
    {
      "midi": 73,
      "time": 69.25,
      "duration": 0.75,
      "velocity": 0.71,
      "hand": "right"
    },
    {
      "midi": 82,
      "time": 69.25,
      "duration": 0.735,
      "velocity": 0.71,
      "hand": "right"
    },
    {
      "midi": 58,
      "time": 70,
      "duration": 1.5,
      "velocity": 0.71,
      "hand": "left"
    },
    {
      "midi": 66,
      "time": 70,
      "duration": 1.5,
      "velocity": 0.71,
      "hand": "right"
    },
    {
      "midi": 70,
      "time": 70,
      "duration": 1.5,
      "velocity": 0.71,
      "hand": "right"
    },
    {
      "midi": 78,
      "time": 70,
      "duration": 1.5,
      "velocity": 0.71,
      "hand": "right"
    },
    {
      "midi": 82,
      "time": 70,
      "duration": 1.5,
      "velocity": 0.71,
      "hand": "right"
    },
    {
      "midi": 39,
      "time": 71.5,
      "duration": 3,
      "velocity": 0.71,
      "hand": "left"
    },
    {
      "midi": 46,
      "time": 71.5,
      "duration": 3,
      "velocity": 0.71,
      "hand": "left"
    },
    {
      "midi": 66,
      "time": 72.25,
      "duration": 1.235,
      "velocity": 0.71,
      "hand": "right"
    },
    {
      "midi": 70,
      "time": 72.25,
      "duration": 1.235,
      "velocity": 0.71,
      "hand": "right"
    },
    {
      "midi": 77,
      "time": 72.25,
      "duration": 1.25,
      "velocity": 0.71,
      "hand": "right"
    },
    {
      "midi": 82,
      "time": 72.25,
      "duration": 1.235,
      "velocity": 0.71,
      "hand": "right"
    },
    {
      "midi": 70,
      "time": 73.5,
      "duration": 0.485,
      "velocity": 0.71,
      "hand": "right"
    },
    {
      "midi": 75,
      "time": 73.5,
      "duration": 0.5,
      "velocity": 0.71,
      "hand": "right"
    },
    {
      "midi": 78,
      "time": 73.5,
      "duration": 0.5,
      "velocity": 0.71,
      "hand": "right"
    },
    {
      "midi": 82,
      "time": 73.5,
      "duration": 0.485,
      "velocity": 0.71,
      "hand": "right"
    },
    {
      "midi": 66,
      "time": 74,
      "duration": 0.485,
      "velocity": 0.71,
      "hand": "right"
    },
    {
      "midi": 70,
      "time": 74,
      "duration": 0.485,
      "velocity": 0.71,
      "hand": "right"
    },
    {
      "midi": 77,
      "time": 74,
      "duration": 0.5,
      "velocity": 0.71,
      "hand": "right"
    },
    {
      "midi": 82,
      "time": 74,
      "duration": 0.485,
      "velocity": 0.71,
      "hand": "right"
    },
    {
      "midi": 66,
      "time": 74.5,
      "duration": 0.485,
      "velocity": 0.71,
      "hand": "right"
    },
    {
      "midi": 70,
      "time": 74.5,
      "duration": 0.485,
      "velocity": 0.71,
      "hand": "right"
    },
    {
      "midi": 75,
      "time": 74.5,
      "duration": 0.5,
      "velocity": 0.71,
      "hand": "right"
    },
    {
      "midi": 82,
      "time": 74.5,
      "duration": 0.485,
      "velocity": 0.71,
      "hand": "right"
    },
    {
      "midi": 66,
      "time": 75,
      "duration": 0.485,
      "velocity": 0.71,
      "hand": "right"
    },
    {
      "midi": 70,
      "time": 75,
      "duration": 0.485,
      "velocity": 0.71,
      "hand": "right"
    },
    {
      "midi": 77,
      "time": 75,
      "duration": 0.5,
      "velocity": 0.71,
      "hand": "right"
    },
    {
      "midi": 82,
      "time": 75,
      "duration": 0.485,
      "velocity": 0.71,
      "hand": "right"
    },
    {
      "midi": 66,
      "time": 75.5,
      "duration": 0.485,
      "velocity": 0.71,
      "hand": "right"
    },
    {
      "midi": 70,
      "time": 75.5,
      "duration": 0.485,
      "velocity": 0.71,
      "hand": "right"
    },
    {
      "midi": 75,
      "time": 75.5,
      "duration": 0.5,
      "velocity": 0.71,
      "hand": "right"
    },
    {
      "midi": 82,
      "time": 75.5,
      "duration": 0.485,
      "velocity": 0.71,
      "hand": "right"
    },
    {
      "midi": 66,
      "time": 76,
      "duration": 0.485,
      "velocity": 0.71,
      "hand": "right"
    },
    {
      "midi": 70,
      "time": 76,
      "duration": 0.485,
      "velocity": 0.71,
      "hand": "right"
    },
    {
      "midi": 73,
      "time": 76,
      "duration": 0.5,
      "velocity": 0.71,
      "hand": "right"
    },
    {
      "midi": 82,
      "time": 76,
      "duration": 0.485,
      "velocity": 0.71,
      "hand": "right"
    },
    {
      "midi": 66,
      "time": 76.5,
      "duration": 0.485,
      "velocity": 0.71,
      "hand": "right"
    },
    {
      "midi": 70,
      "time": 76.5,
      "duration": 0.485,
      "velocity": 0.71,
      "hand": "right"
    },
    {
      "midi": 75,
      "time": 76.5,
      "duration": 0.5,
      "velocity": 0.71,
      "hand": "right"
    },
    {
      "midi": 82,
      "time": 76.5,
      "duration": 0.485,
      "velocity": 0.71,
      "hand": "right"
    },
    {
      "midi": 66,
      "time": 77,
      "duration": 0.485,
      "velocity": 0.71,
      "hand": "right"
    },
    {
      "midi": 70,
      "time": 77,
      "duration": 0.485,
      "velocity": 0.71,
      "hand": "right"
    },
    {
      "midi": 73,
      "time": 77,
      "duration": 0.5,
      "velocity": 0.71,
      "hand": "right"
    },
    {
      "midi": 82,
      "time": 77,
      "duration": 0.485,
      "velocity": 0.71,
      "hand": "right"
    },
    {
      "midi": 66,
      "time": 77.5,
      "duration": 0.735,
      "velocity": 0.71,
      "hand": "right"
    },
    {
      "midi": 70,
      "time": 77.5,
      "duration": 0.735,
      "velocity": 0.71,
      "hand": "right"
    },
    {
      "midi": 82,
      "time": 77.5,
      "duration": 0.5,
      "velocity": 0.71,
      "hand": "right"
    },
    {
      "midi": 84,
      "time": 77.5,
      "duration": 0.5,
      "velocity": 0.71,
      "hand": "right"
    },
    {
      "midi": 75,
      "time": 78,
      "duration": 0.25,
      "velocity": 0.71,
      "hand": "right"
    },
    {
      "midi": 66,
      "time": 78.25,
      "duration": 0.735,
      "velocity": 0.71,
      "hand": "right"
    },
    {
      "midi": 70,
      "time": 78.25,
      "duration": 0.735,
      "velocity": 0.71,
      "hand": "right"
    },
    {
      "midi": 73,
      "time": 78.25,
      "duration": 0.75,
      "velocity": 0.71,
      "hand": "right"
    },
    {
      "midi": 82,
      "time": 78.25,
      "duration": 0.735,
      "velocity": 0.71,
      "hand": "right"
    },
    {
      "midi": 58,
      "time": 79,
      "duration": 1.5,
      "velocity": 0.71,
      "hand": "left"
    },
    {
      "midi": 66,
      "time": 79,
      "duration": 1.5,
      "velocity": 0.71,
      "hand": "right"
    },
    {
      "midi": 70,
      "time": 79,
      "duration": 2.25,
      "velocity": 0.71,
      "hand": "right"
    },
    {
      "midi": 78,
      "time": 79,
      "duration": 2.235,
      "velocity": 0.71,
      "hand": "right"
    },
    {
      "midi": 82,
      "time": 79,
      "duration": 2.25,
      "velocity": 0.71,
      "hand": "right"
    },
    {
      "midi": 44,
      "time": 80.5,
      "duration": 3,
      "velocity": 0.71,
      "hand": "left"
    },
    {
      "midi": 54,
      "time": 81.25,
      "duration": 0.75,
      "velocity": 0.71,
      "hand": "left"
    },
    {
      "midi": 66,
      "time": 81.25,
      "duration": 0.75,
      "velocity": 0.71,
      "hand": "right"
    },
    {
      "midi": 78,
      "time": 81.25,
      "duration": 0.75,
      "velocity": 0.71,
      "hand": "right"
    },
    {
      "midi": 56,
      "time": 82,
      "duration": 0.75,
      "velocity": 0.71,
      "hand": "left"
    },
    {
      "midi": 63,
      "time": 82,
      "duration": 1.485,
      "velocity": 0.71,
      "hand": "right"
    },
    {
      "midi": 68,
      "time": 82,
      "duration": 0.75,
      "velocity": 0.71,
      "hand": "right"
    },
    {
      "midi": 75,
      "time": 82,
      "duration": 0.75,
      "velocity": 0.71,
      "hand": "right"
    },
    {
      "midi": 80,
      "time": 82,
      "duration": 0.75,
      "velocity": 0.71,
      "hand": "right"
    },
    {
      "midi": 72,
      "time": 82.75,
      "duration": 0.75,
      "velocity": 0.71,
      "hand": "right"
    },
    {
      "midi": 84,
      "time": 82.75,
      "duration": 0.75,
      "velocity": 0.71,
      "hand": "right"
    },
    {
      "midi": 58,
      "time": 83.5,
      "duration": 0.75,
      "velocity": 0.71,
      "hand": "left"
    },
    {
      "midi": 66,
      "time": 83.5,
      "duration": 0.735,
      "velocity": 0.71,
      "hand": "right"
    },
    {
      "midi": 70,
      "time": 83.5,
      "duration": 0.75,
      "velocity": 0.71,
      "hand": "right"
    },
    {
      "midi": 78,
      "time": 83.5,
      "duration": 0.735,
      "velocity": 0.71,
      "hand": "right"
    },
    {
      "midi": 82,
      "time": 83.5,
      "duration": 0.75,
      "velocity": 0.71,
      "hand": "right"
    },
    {
      "midi": 54,
      "time": 84.25,
      "duration": 0.75,
      "velocity": 0.71,
      "hand": "left"
    },
    {
      "midi": 66,
      "time": 84.25,
      "duration": 0.75,
      "velocity": 0.71,
      "hand": "right"
    },
    {
      "midi": 78,
      "time": 84.25,
      "duration": 0.75,
      "velocity": 0.71,
      "hand": "right"
    },
    {
      "midi": 45,
      "time": 85,
      "duration": 3,
      "velocity": 0.71,
      "hand": "left"
    },
    {
      "midi": 54,
      "time": 85.5,
      "duration": 0.485,
      "velocity": 0.71,
      "hand": "left"
    },
    {
      "midi": 66,
      "time": 85.5,
      "duration": 0.485,
      "velocity": 0.71,
      "hand": "right"
    },
    {
      "midi": 72,
      "time": 85.5,
      "duration": 0.485,
      "velocity": 0.71,
      "hand": "right"
    },
    {
      "midi": 75,
      "time": 85.5,
      "duration": 0.485,
      "velocity": 0.71,
      "hand": "right"
    },
    {
      "midi": 78,
      "time": 85.5,
      "duration": 0.485,
      "velocity": 0.71,
      "hand": "right"
    },
    {
      "midi": 54,
      "time": 86,
      "duration": 0.485,
      "velocity": 0.71,
      "hand": "left"
    },
    {
      "midi": 66,
      "time": 86,
      "duration": 0.485,
      "velocity": 0.71,
      "hand": "right"
    },
    {
      "midi": 72,
      "time": 86,
      "duration": 0.485,
      "velocity": 0.71,
      "hand": "right"
    },
    {
      "midi": 75,
      "time": 86,
      "duration": 0.485,
      "velocity": 0.71,
      "hand": "right"
    },
    {
      "midi": 78,
      "time": 86,
      "duration": 0.485,
      "velocity": 0.71,
      "hand": "right"
    },
    {
      "midi": 54,
      "time": 86.5,
      "duration": 0.485,
      "velocity": 0.71,
      "hand": "left"
    },
    {
      "midi": 66,
      "time": 86.5,
      "duration": 0.485,
      "velocity": 0.71,
      "hand": "right"
    },
    {
      "midi": 72,
      "time": 86.5,
      "duration": 0.485,
      "velocity": 0.71,
      "hand": "right"
    },
    {
      "midi": 75,
      "time": 86.5,
      "duration": 0.485,
      "velocity": 0.71,
      "hand": "right"
    },
    {
      "midi": 78,
      "time": 86.5,
      "duration": 0.485,
      "velocity": 0.71,
      "hand": "right"
    },
    {
      "midi": 54,
      "time": 87,
      "duration": 0.5,
      "velocity": 0.71,
      "hand": "left"
    },
    {
      "midi": 66,
      "time": 87,
      "duration": 0.5,
      "velocity": 0.71,
      "hand": "right"
    },
    {
      "midi": 72,
      "time": 87,
      "duration": 0.485,
      "velocity": 0.71,
      "hand": "right"
    },
    {
      "midi": 75,
      "time": 87,
      "duration": 0.485,
      "velocity": 0.71,
      "hand": "right"
    },
    {
      "midi": 78,
      "time": 87,
      "duration": 0.5,
      "velocity": 0.71,
      "hand": "right"
    },
    {
      "midi": 56,
      "time": 87.5,
      "duration": 0.5,
      "velocity": 0.71,
      "hand": "left"
    },
    {
      "midi": 68,
      "time": 87.5,
      "duration": 0.5,
      "velocity": 0.71,
      "hand": "right"
    },
    {
      "midi": 72,
      "time": 87.5,
      "duration": 0.485,
      "velocity": 0.71,
      "hand": "right"
    },
    {
      "midi": 75,
      "time": 87.5,
      "duration": 0.485,
      "velocity": 0.71,
      "hand": "right"
    },
    {
      "midi": 80,
      "time": 87.5,
      "duration": 0.5,
      "velocity": 0.71,
      "hand": "right"
    },
    {
      "midi": 54,
      "time": 88,
      "duration": 1.5,
      "velocity": 0.71,
      "hand": "left"
    },
    {
      "midi": 66,
      "time": 88,
      "duration": 1.5,
      "velocity": 0.71,
      "hand": "right"
    },
    {
      "midi": 72,
      "time": 88,
      "duration": 1.5,
      "velocity": 0.71,
      "hand": "right"
    },
    {
      "midi": 75,
      "time": 88,
      "duration": 1.5,
      "velocity": 0.71,
      "hand": "right"
    },
    {
      "midi": 78,
      "time": 88,
      "duration": 1.5,
      "velocity": 0.71,
      "hand": "right"
    },
    {
      "midi": 46,
      "time": 89.5,
      "duration": 3,
      "velocity": 0.71,
      "hand": "left"
    },
    {
      "midi": 54,
      "time": 90.25,
      "duration": 0.75,
      "velocity": 0.71,
      "hand": "left"
    },
    {
      "midi": 58,
      "time": 90.25,
      "duration": 1.5,
      "velocity": 0.71,
      "hand": "left"
    },
    {
      "midi": 61,
      "time": 90.25,
      "duration": 1.485,
      "velocity": 0.71,
      "hand": "right"
    },
    {
      "midi": 66,
      "time": 90.25,
      "duration": 0.75,
      "velocity": 0.71,
      "hand": "right"
    },
    {
      "midi": 73,
      "time": 90.25,
      "duration": 1.485,
      "velocity": 0.71,
      "hand": "right"
    },
    {
      "midi": 78,
      "time": 90.25,
      "duration": 0.75,
      "velocity": 0.71,
      "hand": "right"
    },
    {
      "midi": 56,
      "time": 91,
      "duration": 0.75,
      "velocity": 0.71,
      "hand": "left"
    },
    {
      "midi": 68,
      "time": 91,
      "duration": 0.75,
      "velocity": 0.71,
      "hand": "right"
    },
    {
      "midi": 80,
      "time": 91,
      "duration": 0.75,
      "velocity": 0.71,
      "hand": "right"
    },
    {
      "midi": 61,
      "time": 91.75,
      "duration": 0.735,
      "velocity": 0.71,
      "hand": "right"
    },
    {
      "midi": 73,
      "time": 91.75,
      "duration": 0.75,
      "velocity": 0.71,
      "hand": "right"
    },
    {
      "midi": 58,
      "time": 92.5,
      "duration": 0.75,
      "velocity": 0.71,
      "hand": "left"
    },
    {
      "midi": 66,
      "time": 92.5,
      "duration": 0.735,
      "velocity": 0.71,
      "hand": "right"
    },
    {
      "midi": 70,
      "time": 92.5,
      "duration": 0.75,
      "velocity": 0.71,
      "hand": "right"
    },
    {
      "midi": 78,
      "time": 92.5,
      "duration": 1.5,
      "velocity": 0.71,
      "hand": "right"
    },
    {
      "midi": 82,
      "time": 92.5,
      "duration": 0.75,
      "velocity": 0.71,
      "hand": "right"
    },
    {
      "midi": 54,
      "time": 93.25,
      "duration": 0.75,
      "velocity": 0.71,
      "hand": "left"
    },
    {
      "midi": 66,
      "time": 93.25,
      "duration": 0.75,
      "velocity": 0.71,
      "hand": "right"
    },
    {
      "midi": 44,
      "time": 94,
      "duration": 3,
      "velocity": 0.71,
      "hand": "left"
    },
    {
      "midi": 54,
      "time": 94.5,
      "duration": 0.485,
      "velocity": 0.71,
      "hand": "left"
    },
    {
      "midi": 58,
      "time": 94.5,
      "duration": 0.485,
      "velocity": 0.71,
      "hand": "left"
    },
    {
      "midi": 66,
      "time": 94.5,
      "duration": 0.485,
      "velocity": 0.71,
      "hand": "right"
    },
    {
      "midi": 70,
      "time": 94.5,
      "duration": 0.485,
      "velocity": 0.71,
      "hand": "right"
    },
    {
      "midi": 75,
      "time": 94.5,
      "duration": 0.485,
      "velocity": 0.71,
      "hand": "right"
    },
    {
      "midi": 78,
      "time": 94.5,
      "duration": 0.485,
      "velocity": 0.71,
      "hand": "right"
    },
    {
      "midi": 54,
      "time": 95,
      "duration": 0.485,
      "velocity": 0.71,
      "hand": "left"
    },
    {
      "midi": 58,
      "time": 95,
      "duration": 0.485,
      "velocity": 0.71,
      "hand": "left"
    },
    {
      "midi": 66,
      "time": 95,
      "duration": 0.485,
      "velocity": 0.71,
      "hand": "right"
    },
    {
      "midi": 70,
      "time": 95,
      "duration": 0.485,
      "velocity": 0.71,
      "hand": "right"
    },
    {
      "midi": 75,
      "time": 95,
      "duration": 0.485,
      "velocity": 0.71,
      "hand": "right"
    },
    {
      "midi": 78,
      "time": 95,
      "duration": 0.485,
      "velocity": 0.71,
      "hand": "right"
    },
    {
      "midi": 54,
      "time": 95.5,
      "duration": 0.485,
      "velocity": 0.71,
      "hand": "left"
    },
    {
      "midi": 58,
      "time": 95.5,
      "duration": 0.485,
      "velocity": 0.71,
      "hand": "left"
    },
    {
      "midi": 66,
      "time": 95.5,
      "duration": 0.485,
      "velocity": 0.71,
      "hand": "right"
    },
    {
      "midi": 70,
      "time": 95.5,
      "duration": 0.485,
      "velocity": 0.71,
      "hand": "right"
    },
    {
      "midi": 75,
      "time": 95.5,
      "duration": 0.485,
      "velocity": 0.71,
      "hand": "right"
    },
    {
      "midi": 78,
      "time": 95.5,
      "duration": 0.485,
      "velocity": 0.71,
      "hand": "right"
    },
    {
      "midi": 54,
      "time": 96,
      "duration": 0.5,
      "velocity": 0.71,
      "hand": "left"
    },
    {
      "midi": 58,
      "time": 96,
      "duration": 0.5,
      "velocity": 0.71,
      "hand": "left"
    },
    {
      "midi": 66,
      "time": 96,
      "duration": 0.5,
      "velocity": 0.71,
      "hand": "right"
    },
    {
      "midi": 70,
      "time": 96,
      "duration": 0.5,
      "velocity": 0.71,
      "hand": "right"
    },
    {
      "midi": 75,
      "time": 96,
      "duration": 0.5,
      "velocity": 0.71,
      "hand": "right"
    },
    {
      "midi": 78,
      "time": 96,
      "duration": 0.5,
      "velocity": 0.71,
      "hand": "right"
    },
    {
      "midi": 56,
      "time": 96.5,
      "duration": 0.5,
      "velocity": 0.71,
      "hand": "left"
    },
    {
      "midi": 68,
      "time": 96.5,
      "duration": 0.5,
      "velocity": 0.71,
      "hand": "right"
    },
    {
      "midi": 72,
      "time": 96.5,
      "duration": 0.5,
      "velocity": 0.71,
      "hand": "right"
    },
    {
      "midi": 77,
      "time": 96.5,
      "duration": 0.5,
      "velocity": 0.71,
      "hand": "right"
    },
    {
      "midi": 80,
      "time": 96.5,
      "duration": 0.5,
      "velocity": 0.71,
      "hand": "right"
    },
    {
      "midi": 54,
      "time": 97,
      "duration": 1.5,
      "velocity": 0.71,
      "hand": "left"
    },
    {
      "midi": 58,
      "time": 97,
      "duration": 1.5,
      "velocity": 0.71,
      "hand": "left"
    },
    {
      "midi": 66,
      "time": 97,
      "duration": 1.5,
      "velocity": 0.71,
      "hand": "right"
    },
    {
      "midi": 70,
      "time": 97,
      "duration": 1.5,
      "velocity": 0.71,
      "hand": "right"
    },
    {
      "midi": 75,
      "time": 97,
      "duration": 1.5,
      "velocity": 0.71,
      "hand": "right"
    },
    {
      "midi": 78,
      "time": 97,
      "duration": 1.5,
      "velocity": 0.71,
      "hand": "right"
    },
    {
      "midi": 37,
      "time": 98.5,
      "duration": 3,
      "velocity": 0.71,
      "hand": "left"
    },
    {
      "midi": 49,
      "time": 98.5,
      "duration": 3,
      "velocity": 0.71,
      "hand": "left"
    },
    {
      "midi": 54,
      "time": 99.25,
      "duration": 0.75,
      "velocity": 0.71,
      "hand": "left"
    },
    {
      "midi": 58,
      "time": 99.25,
      "duration": 2.25,
      "velocity": 0.71,
      "hand": "left"
    },
    {
      "midi": 66,
      "time": 99.25,
      "duration": 0.75,
      "velocity": 0.71,
      "hand": "right"
    },
    {
      "midi": 70,
      "time": 99.25,
      "duration": 2.235,
      "velocity": 0.71,
      "hand": "right"
    },
    {
      "midi": 73,
      "time": 99.25,
      "duration": 2.235,
      "velocity": 0.71,
      "hand": "right"
    },
    {
      "midi": 78,
      "time": 99.25,
      "duration": 0.75,
      "velocity": 0.71,
      "hand": "right"
    },
    {
      "midi": 56,
      "time": 100,
      "duration": 0.75,
      "velocity": 0.71,
      "hand": "left"
    },
    {
      "midi": 68,
      "time": 100,
      "duration": 0.75,
      "velocity": 0.71,
      "hand": "right"
    },
    {
      "midi": 80,
      "time": 100,
      "duration": 0.75,
      "velocity": 0.71,
      "hand": "right"
    },
    {
      "midi": 63,
      "time": 100.75,
      "duration": 0.75,
      "velocity": 0.71,
      "hand": "right"
    },
    {
      "midi": 75,
      "time": 100.75,
      "duration": 0.75,
      "velocity": 0.71,
      "hand": "right"
    },
    {
      "midi": 70,
      "time": 101.5,
      "duration": 0.735,
      "velocity": 0.71,
      "hand": "right"
    },
    {
      "midi": 73,
      "time": 101.5,
      "duration": 0.75,
      "velocity": 0.71,
      "hand": "right"
    },
    {
      "midi": 78,
      "time": 101.5,
      "duration": 1.5,
      "velocity": 0.71,
      "hand": "right"
    },
    {
      "midi": 82,
      "time": 101.5,
      "duration": 1.5,
      "velocity": 0.71,
      "hand": "right"
    },
    {
      "midi": 58,
      "time": 102.25,
      "duration": 0.75,
      "velocity": 0.71,
      "hand": "left"
    },
    {
      "midi": 70,
      "time": 102.25,
      "duration": 0.75,
      "velocity": 0.71,
      "hand": "right"
    },
    {
      "midi": 39,
      "time": 103,
      "duration": 3,
      "velocity": 0.71,
      "hand": "left"
    },
    {
      "midi": 51,
      "time": 103,
      "duration": 3,
      "velocity": 0.71,
      "hand": "left"
    },
    {
      "midi": 58,
      "time": 103.5,
      "duration": 0.485,
      "velocity": 0.71,
      "hand": "left"
    },
    {
      "midi": 66,
      "time": 103.5,
      "duration": 0.485,
      "velocity": 0.71,
      "hand": "right"
    },
    {
      "midi": 70,
      "time": 103.5,
      "duration": 0.485,
      "velocity": 0.71,
      "hand": "right"
    },
    {
      "midi": 78,
      "time": 103.5,
      "duration": 0.485,
      "velocity": 0.71,
      "hand": "right"
    },
    {
      "midi": 82,
      "time": 103.5,
      "duration": 0.485,
      "velocity": 0.71,
      "hand": "right"
    },
    {
      "midi": 58,
      "time": 104,
      "duration": 0.485,
      "velocity": 0.71,
      "hand": "left"
    },
    {
      "midi": 66,
      "time": 104,
      "duration": 0.485,
      "velocity": 0.71,
      "hand": "right"
    },
    {
      "midi": 70,
      "time": 104,
      "duration": 0.485,
      "velocity": 0.71,
      "hand": "right"
    },
    {
      "midi": 78,
      "time": 104,
      "duration": 0.485,
      "velocity": 0.71,
      "hand": "right"
    },
    {
      "midi": 82,
      "time": 104,
      "duration": 0.485,
      "velocity": 0.71,
      "hand": "right"
    },
    {
      "midi": 58,
      "time": 104.5,
      "duration": 0.485,
      "velocity": 0.71,
      "hand": "left"
    },
    {
      "midi": 66,
      "time": 104.5,
      "duration": 0.485,
      "velocity": 0.71,
      "hand": "right"
    },
    {
      "midi": 70,
      "time": 104.5,
      "duration": 0.485,
      "velocity": 0.71,
      "hand": "right"
    },
    {
      "midi": 78,
      "time": 104.5,
      "duration": 0.485,
      "velocity": 0.71,
      "hand": "right"
    },
    {
      "midi": 82,
      "time": 104.5,
      "duration": 0.485,
      "velocity": 0.71,
      "hand": "right"
    },
    {
      "midi": 58,
      "time": 105,
      "duration": 0.5,
      "velocity": 0.71,
      "hand": "left"
    },
    {
      "midi": 66,
      "time": 105,
      "duration": 0.5,
      "velocity": 0.71,
      "hand": "right"
    },
    {
      "midi": 70,
      "time": 105,
      "duration": 0.5,
      "velocity": 0.71,
      "hand": "right"
    },
    {
      "midi": 78,
      "time": 105,
      "duration": 0.5,
      "velocity": 0.71,
      "hand": "right"
    },
    {
      "midi": 82,
      "time": 105,
      "duration": 0.5,
      "velocity": 0.71,
      "hand": "right"
    },
    {
      "midi": 68,
      "time": 105.5,
      "duration": 0.5,
      "velocity": 0.71,
      "hand": "right"
    },
    {
      "midi": 72,
      "time": 105.5,
      "duration": 0.5,
      "velocity": 0.71,
      "hand": "right"
    },
    {
      "midi": 80,
      "time": 105.5,
      "duration": 0.5,
      "velocity": 0.71,
      "hand": "right"
    },
    {
      "midi": 84,
      "time": 105.5,
      "duration": 0.5,
      "velocity": 0.71,
      "hand": "right"
    },
    {
      "midi": 58,
      "time": 106,
      "duration": 0.5,
      "velocity": 0.71,
      "hand": "left"
    },
    {
      "midi": 66,
      "time": 106,
      "duration": 0.485,
      "velocity": 0.71,
      "hand": "right"
    },
    {
      "midi": 70,
      "time": 106,
      "duration": 0.485,
      "velocity": 0.71,
      "hand": "right"
    },
    {
      "midi": 78,
      "time": 106,
      "duration": 0.5,
      "velocity": 0.71,
      "hand": "right"
    },
    {
      "midi": 82,
      "time": 106,
      "duration": 0.485,
      "velocity": 0.71,
      "hand": "right"
    },
    {
      "midi": 66,
      "time": 106.5,
      "duration": 0.485,
      "velocity": 0.71,
      "hand": "right"
    },
    {
      "midi": 70,
      "time": 106.5,
      "duration": 0.485,
      "velocity": 0.71,
      "hand": "right"
    },
    {
      "midi": 73,
      "time": 106.5,
      "duration": 0.5,
      "velocity": 0.71,
      "hand": "right"
    },
    {
      "midi": 82,
      "time": 106.5,
      "duration": 0.485,
      "velocity": 0.71,
      "hand": "right"
    },
    {
      "midi": 66,
      "time": 107,
      "duration": 0.5,
      "velocity": 0.71,
      "hand": "right"
    },
    {
      "midi": 70,
      "time": 107,
      "duration": 0.5,
      "velocity": 0.71,
      "hand": "right"
    },
    {
      "midi": 75,
      "time": 107,
      "duration": 0.5,
      "velocity": 0.71,
      "hand": "right"
    },
    {
      "midi": 82,
      "time": 107,
      "duration": 0.5,
      "velocity": 0.71,
      "hand": "right"
    },
    {
      "midi": 68,
      "time": 107.5,
      "duration": 2.985,
      "velocity": 0.71,
      "hand": "right"
    },
    {
      "midi": 73,
      "time": 107.5,
      "duration": 2.985,
      "velocity": 0.71,
      "hand": "right"
    },
    {
      "midi": 77,
      "time": 107.5,
      "duration": 3,
      "velocity": 0.71,
      "hand": "right"
    },
    {
      "midi": 80,
      "time": 107.5,
      "duration": 2.985,
      "velocity": 0.71,
      "hand": "right"
    },
    {
      "midi": 70,
      "time": 110.5,
      "duration": 1.5,
      "velocity": 0.71,
      "hand": "right"
    },
    {
      "midi": 73,
      "time": 110.5,
      "duration": 1.485,
      "velocity": 0.71,
      "hand": "right"
    },
    {
      "midi": 76,
      "time": 110.5,
      "duration": 1.5,
      "velocity": 0.71,
      "hand": "right"
    },
    {
      "midi": 80,
      "time": 110.5,
      "duration": 1.485,
      "velocity": 0.71,
      "hand": "right"
    },
    {
      "midi": 68,
      "time": 112,
      "duration": 2.985,
      "velocity": 0.71,
      "hand": "right"
    },
    {
      "midi": 73,
      "time": 112,
      "duration": 3,
      "velocity": 0.71,
      "hand": "right"
    },
    {
      "midi": 75,
      "time": 112,
      "duration": 2.985,
      "velocity": 0.71,
      "hand": "right"
    },
    {
      "midi": 80,
      "time": 112,
      "duration": 2.985,
      "velocity": 0.71,
      "hand": "right"
    },
    {
      "midi": 56,
      "time": 115,
      "duration": 1.5,
      "velocity": 0.71,
      "hand": "left"
    },
    {
      "midi": 68,
      "time": 115,
      "duration": 1.485,
      "velocity": 0.71,
      "hand": "right"
    },
    {
      "midi": 72,
      "time": 115,
      "duration": 1.5,
      "velocity": 0.71,
      "hand": "right"
    },
    {
      "midi": 75,
      "time": 115,
      "duration": 1.5,
      "velocity": 0.71,
      "hand": "right"
    },
    {
      "midi": 80,
      "time": 115,
      "duration": 1.5,
      "velocity": 0.71,
      "hand": "right"
    },
    {
      "midi": 37,
      "time": 116.5,
      "duration": 1.5,
      "velocity": 0.71,
      "hand": "left"
    },
    {
      "midi": 65,
      "time": 116.5,
      "duration": 3,
      "velocity": 0.71,
      "hand": "right"
    },
    {
      "midi": 68,
      "time": 116.5,
      "duration": 2.985,
      "velocity": 0.71,
      "hand": "right"
    },
    {
      "midi": 44,
      "time": 116.75,
      "duration": 0.25,
      "velocity": 0.71,
      "hand": "left"
    },
    {
      "midi": 49,
      "time": 117,
      "duration": 0.25,
      "velocity": 0.71,
      "hand": "left"
    },
    {
      "midi": 53,
      "time": 117.25,
      "duration": 0.25,
      "velocity": 0.71,
      "hand": "left"
    },
    {
      "midi": 56,
      "time": 117.5,
      "duration": 0.25,
      "velocity": 0.71,
      "hand": "left"
    },
    {
      "midi": 61,
      "time": 117.75,
      "duration": 0.25,
      "velocity": 0.71,
      "hand": "right"
    },
    {
      "midi": 41,
      "time": 118,
      "duration": 1.5,
      "velocity": 0.71,
      "hand": "left"
    },
    {
      "midi": 48,
      "time": 118.25,
      "duration": 0.25,
      "velocity": 0.71,
      "hand": "left"
    },
    {
      "midi": 53,
      "time": 118.5,
      "duration": 0.25,
      "velocity": 0.71,
      "hand": "left"
    },
    {
      "midi": 56,
      "time": 118.75,
      "duration": 0.25,
      "velocity": 0.71,
      "hand": "left"
    },
    {
      "midi": 60,
      "time": 119,
      "duration": 0.25,
      "velocity": 0.71,
      "hand": "right"
    },
    {
      "midi": 44,
      "time": 119.5,
      "duration": 1.5,
      "velocity": 0.71,
      "hand": "left"
    },
    {
      "midi": 68,
      "time": 119.5,
      "duration": 1,
      "velocity": 0.71,
      "hand": "right"
    },
    {
      "midi": 71,
      "time": 119.5,
      "duration": 1,
      "velocity": 0.71,
      "hand": "right"
    },
    {
      "midi": 52,
      "time": 119.75,
      "duration": 0.25,
      "velocity": 0.71,
      "hand": "left"
    },
    {
      "midi": 56,
      "time": 120,
      "duration": 0.25,
      "velocity": 0.71,
      "hand": "left"
    },
    {
      "midi": 59,
      "time": 120.25,
      "duration": 0.25,
      "velocity": 0.71,
      "hand": "left"
    },
    {
      "midi": 64,
      "time": 120.5,
      "duration": 0.25,
      "velocity": 0.71,
      "hand": "right"
    },
    {
      "midi": 73,
      "time": 120.5,
      "duration": 0.5,
      "velocity": 0.71,
      "hand": "right"
    },
    {
      "midi": 68,
      "time": 120.75,
      "duration": 0.235,
      "velocity": 0.71,
      "hand": "right"
    },
    {
      "midi": 37,
      "time": 121,
      "duration": 1.5,
      "velocity": 0.71,
      "hand": "left"
    },
    {
      "midi": 65,
      "time": 121,
      "duration": 3,
      "velocity": 0.71,
      "hand": "right"
    },
    {
      "midi": 68,
      "time": 121,
      "duration": 2.985,
      "velocity": 0.71,
      "hand": "right"
    },
    {
      "midi": 44,
      "time": 121.25,
      "duration": 0.25,
      "velocity": 0.71,
      "hand": "left"
    },
    {
      "midi": 49,
      "time": 121.5,
      "duration": 0.25,
      "velocity": 0.71,
      "hand": "left"
    },
    {
      "midi": 53,
      "time": 121.75,
      "duration": 0.25,
      "velocity": 0.71,
      "hand": "left"
    },
    {
      "midi": 56,
      "time": 122,
      "duration": 0.25,
      "velocity": 0.71,
      "hand": "left"
    },
    {
      "midi": 61,
      "time": 122.25,
      "duration": 0.25,
      "velocity": 0.71,
      "hand": "right"
    },
    {
      "midi": 41,
      "time": 122.5,
      "duration": 1.5,
      "velocity": 0.71,
      "hand": "left"
    },
    {
      "midi": 48,
      "time": 122.75,
      "duration": 0.25,
      "velocity": 0.71,
      "hand": "left"
    },
    {
      "midi": 53,
      "time": 123,
      "duration": 0.25,
      "velocity": 0.71,
      "hand": "left"
    },
    {
      "midi": 56,
      "time": 123.25,
      "duration": 0.25,
      "velocity": 0.71,
      "hand": "left"
    },
    {
      "midi": 60,
      "time": 123.5,
      "duration": 0.25,
      "velocity": 0.71,
      "hand": "right"
    },
    {
      "midi": 44,
      "time": 124,
      "duration": 1.5,
      "velocity": 0.71,
      "hand": "left"
    },
    {
      "midi": 68,
      "time": 124,
      "duration": 0.985,
      "velocity": 0.71,
      "hand": "right"
    },
    {
      "midi": 71,
      "time": 124,
      "duration": 1,
      "velocity": 0.71,
      "hand": "right"
    },
    {
      "midi": 52,
      "time": 124.25,
      "duration": 0.25,
      "velocity": 0.71,
      "hand": "left"
    },
    {
      "midi": 56,
      "time": 124.5,
      "duration": 0.25,
      "velocity": 0.71,
      "hand": "left"
    },
    {
      "midi": 59,
      "time": 124.75,
      "duration": 0.25,
      "velocity": 0.71,
      "hand": "left"
    },
    {
      "midi": 68,
      "time": 125,
      "duration": 0.5,
      "velocity": 0.71,
      "hand": "right"
    },
    {
      "midi": 64,
      "time": 125.25,
      "duration": 0.25,
      "velocity": 0.71,
      "hand": "right"
    },
    {
      "midi": 37,
      "time": 125.5,
      "duration": 0.25,
      "velocity": 0.71,
      "hand": "left"
    },
    {
      "midi": 65,
      "time": 125.5,
      "duration": 1,
      "velocity": 0.71,
      "hand": "right"
    },
    {
      "midi": 73,
      "time": 125.5,
      "duration": 1,
      "velocity": 0.71,
      "hand": "right"
    },
    {
      "midi": 44,
      "time": 125.75,
      "duration": 0.25,
      "velocity": 0.71,
      "hand": "left"
    },
    {
      "midi": 49,
      "time": 126,
      "duration": 0.25,
      "velocity": 0.71,
      "hand": "left"
    },
    {
      "midi": 53,
      "time": 126.25,
      "duration": 0.25,
      "velocity": 0.71,
      "hand": "left"
    },
    {
      "midi": 56,
      "time": 126.5,
      "duration": 0.25,
      "velocity": 0.71,
      "hand": "left"
    },
    {
      "midi": 68,
      "time": 126.5,
      "duration": 0.5,
      "velocity": 0.71,
      "hand": "right"
    },
    {
      "midi": 75,
      "time": 126.5,
      "duration": 0.5,
      "velocity": 0.71,
      "hand": "right"
    },
    {
      "midi": 61,
      "time": 126.75,
      "duration": 0.25,
      "velocity": 0.71,
      "hand": "right"
    },
    {
      "midi": 65,
      "time": 127,
      "duration": 0.25,
      "velocity": 0.71,
      "hand": "right"
    },
    {
      "midi": 73,
      "time": 127,
      "duration": 1.485,
      "velocity": 0.71,
      "hand": "right"
    },
    {
      "midi": 77,
      "time": 127,
      "duration": 1.5,
      "velocity": 0.71,
      "hand": "right"
    },
    {
      "midi": 68,
      "time": 127.25,
      "duration": 0.25,
      "velocity": 0.71,
      "hand": "right"
    },
    {
      "midi": 65,
      "time": 127.5,
      "duration": 0.25,
      "velocity": 0.71,
      "hand": "right"
    },
    {
      "midi": 61,
      "time": 127.75,
      "duration": 0.25,
      "velocity": 0.71,
      "hand": "right"
    },
    {
      "midi": 56,
      "time": 128,
      "duration": 0.25,
      "velocity": 0.71,
      "hand": "left"
    },
    {
      "midi": 53,
      "time": 128.25,
      "duration": 0.25,
      "velocity": 0.71,
      "hand": "left"
    },
    {
      "midi": 56,
      "time": 128.5,
      "duration": 0.25,
      "velocity": 0.71,
      "hand": "left"
    },
    {
      "midi": 65,
      "time": 128.5,
      "duration": 1,
      "velocity": 0.71,
      "hand": "right"
    },
    {
      "midi": 73,
      "time": 128.5,
      "duration": 0.985,
      "velocity": 0.71,
      "hand": "right"
    },
    {
      "midi": 53,
      "time": 128.75,
      "duration": 0.25,
      "velocity": 0.71,
      "hand": "left"
    },
    {
      "midi": 49,
      "time": 129,
      "duration": 0.25,
      "velocity": 0.71,
      "hand": "left"
    },
    {
      "midi": 44,
      "time": 129.25,
      "duration": 0.25,
      "velocity": 0.71,
      "hand": "left"
    },
    {
      "midi": 49,
      "time": 129.5,
      "duration": 0.25,
      "velocity": 0.71,
      "hand": "left"
    },
    {
      "midi": 73,
      "time": 129.5,
      "duration": 0.5,
      "velocity": 0.71,
      "hand": "right"
    },
    {
      "midi": 77,
      "time": 129.5,
      "duration": 0.5,
      "velocity": 0.71,
      "hand": "right"
    },
    {
      "midi": 44,
      "time": 129.75,
      "duration": 0.25,
      "velocity": 0.71,
      "hand": "left"
    },
    {
      "midi": 39,
      "time": 130,
      "duration": 0.25,
      "velocity": 0.71,
      "hand": "left"
    },
    {
      "midi": 75,
      "time": 130,
      "duration": 0.5,
      "velocity": 0.71,
      "hand": "right"
    },
    {
      "midi": 79,
      "time": 130,
      "duration": 0.5,
      "velocity": 0.71,
      "hand": "right"
    },
    {
      "midi": 46,
      "time": 130.25,
      "duration": 0.25,
      "velocity": 0.71,
      "hand": "left"
    },
    {
      "midi": 51,
      "time": 130.5,
      "duration": 0.25,
      "velocity": 0.71,
      "hand": "left"
    },
    {
      "midi": 73,
      "time": 130.5,
      "duration": 0.485,
      "velocity": 0.71,
      "hand": "right"
    },
    {
      "midi": 77,
      "time": 130.5,
      "duration": 0.5,
      "velocity": 0.71,
      "hand": "right"
    },
    {
      "midi": 55,
      "time": 130.75,
      "duration": 0.25,
      "velocity": 0.71,
      "hand": "left"
    },
    {
      "midi": 58,
      "time": 131,
      "duration": 0.25,
      "velocity": 0.71,
      "hand": "left"
    },
    {
      "midi": 70,
      "time": 131,
      "duration": 0.485,
      "velocity": 0.71,
      "hand": "right"
    },
    {
      "midi": 73,
      "time": 131,
      "duration": 0.485,
      "velocity": 0.71,
      "hand": "right"
    },
    {
      "midi": 63,
      "time": 131.25,
      "duration": 0.25,
      "velocity": 0.71,
      "hand": "right"
    },
    {
      "midi": 67,
      "time": 131.5,
      "duration": 0.5,
      "velocity": 0.71,
      "hand": "right"
    },
    {
      "midi": 70,
      "time": 131.5,
      "duration": 1.5,
      "velocity": 0.71,
      "hand": "right"
    },
    {
      "midi": 73,
      "time": 131.5,
      "duration": 1.5,
      "velocity": 0.71,
      "hand": "right"
    },
    {
      "midi": 63,
      "time": 131.75,
      "duration": 0.25,
      "velocity": 0.71,
      "hand": "right"
    },
    {
      "midi": 58,
      "time": 132,
      "duration": 0.25,
      "velocity": 0.71,
      "hand": "left"
    },
    {
      "midi": 65,
      "time": 132,
      "duration": 0.5,
      "velocity": 0.71,
      "hand": "right"
    },
    {
      "midi": 55,
      "time": 132.25,
      "duration": 0.25,
      "velocity": 0.71,
      "hand": "left"
    },
    {
      "midi": 51,
      "time": 132.5,
      "duration": 0.25,
      "velocity": 0.71,
      "hand": "left"
    },
    {
      "midi": 61,
      "time": 132.5,
      "duration": 0.485,
      "velocity": 0.71,
      "hand": "right"
    },
    {
      "midi": 46,
      "time": 132.75,
      "duration": 0.25,
      "velocity": 0.71,
      "hand": "left"
    },
    {
      "midi": 39,
      "time": 133,
      "duration": 0.25,
      "velocity": 0.71,
      "hand": "left"
    },
    {
      "midi": 61,
      "time": 133,
      "duration": 0.75,
      "velocity": 0.71,
      "hand": "right"
    },
    {
      "midi": 46,
      "time": 133.25,
      "duration": 0.25,
      "velocity": 0.71,
      "hand": "left"
    },
    {
      "midi": 51,
      "time": 133.5,
      "duration": 0.25,
      "velocity": 0.71,
      "hand": "left"
    },
    {
      "midi": 55,
      "time": 133.75,
      "duration": 0.25,
      "velocity": 0.71,
      "hand": "left"
    },
    {
      "midi": 58,
      "time": 133.75,
      "duration": 0.75,
      "velocity": 0.71,
      "hand": "left"
    },
    {
      "midi": 51,
      "time": 134,
      "duration": 0.25,
      "velocity": 0.71,
      "hand": "left"
    },
    {
      "midi": 46,
      "time": 134.25,
      "duration": 0.25,
      "velocity": 0.71,
      "hand": "left"
    },
    {
      "midi": 44,
      "time": 134.5,
      "duration": 1.5,
      "velocity": 0.71,
      "hand": "left"
    },
    {
      "midi": 70,
      "time": 134.5,
      "duration": 3,
      "velocity": 0.71,
      "hand": "right"
    },
    {
      "midi": 51,
      "time": 134.75,
      "duration": 0.25,
      "velocity": 0.71,
      "hand": "left"
    },
    {
      "midi": 54,
      "time": 135,
      "duration": 0.25,
      "velocity": 0.71,
      "hand": "left"
    },
    {
      "midi": 58,
      "time": 135.25,
      "duration": 0.25,
      "velocity": 0.71,
      "hand": "left"
    },
    {
      "midi": 60,
      "time": 135.5,
      "duration": 0.25,
      "velocity": 0.71,
      "hand": "right"
    },
    {
      "midi": 66,
      "time": 135.75,
      "duration": 0.25,
      "velocity": 0.71,
      "hand": "right"
    },
    {
      "midi": 42,
      "time": 136,
      "duration": 1.5,
      "velocity": 0.71,
      "hand": "left"
    },
    {
      "midi": 49,
      "time": 136.25,
      "duration": 0.25,
      "velocity": 0.71,
      "hand": "left"
    },
    {
      "midi": 54,
      "time": 136.5,
      "duration": 0.25,
      "velocity": 0.71,
      "hand": "left"
    },
    {
      "midi": 58,
      "time": 136.75,
      "duration": 0.25,
      "velocity": 0.71,
      "hand": "left"
    },
    {
      "midi": 61,
      "time": 137,
      "duration": 0.25,
      "velocity": 0.71,
      "hand": "right"
    },
    {
      "midi": 66,
      "time": 137.25,
      "duration": 0.25,
      "velocity": 0.71,
      "hand": "right"
    },
    {
      "midi": 41,
      "time": 137.5,
      "duration": 1.5,
      "velocity": 0.71,
      "hand": "left"
    },
    {
      "midi": 72,
      "time": 137.5,
      "duration": 1,
      "velocity": 0.71,
      "hand": "right"
    },
    {
      "midi": 48,
      "time": 137.75,
      "duration": 0.25,
      "velocity": 0.71,
      "hand": "left"
    },
    {
      "midi": 53,
      "time": 138,
      "duration": 0.25,
      "velocity": 0.71,
      "hand": "left"
    },
    {
      "midi": 56,
      "time": 138.25,
      "duration": 0.25,
      "velocity": 0.71,
      "hand": "left"
    },
    {
      "midi": 60,
      "time": 138.5,
      "duration": 0.5,
      "velocity": 0.71,
      "hand": "right"
    },
    {
      "midi": 68,
      "time": 138.5,
      "duration": 0.25,
      "velocity": 0.71,
      "hand": "right"
    },
    {
      "midi": 77,
      "time": 138.5,
      "duration": 0.5,
      "velocity": 0.71,
      "hand": "right"
    },
    {
      "midi": 65,
      "time": 138.75,
      "duration": 0.25,
      "velocity": 0.71,
      "hand": "right"
    },
    {
      "midi": 44,
      "time": 139,
      "duration": 1.5,
      "velocity": 0.71,
      "hand": "left"
    },
    {
      "midi": 70,
      "time": 139,
      "duration": 3,
      "velocity": 0.71,
      "hand": "right"
    },
    {
      "midi": 51,
      "time": 139.25,
      "duration": 0.25,
      "velocity": 0.71,
      "hand": "left"
    },
    {
      "midi": 54,
      "time": 139.5,
      "duration": 0.25,
      "velocity": 0.71,
      "hand": "left"
    },
    {
      "midi": 58,
      "time": 139.75,
      "duration": 0.25,
      "velocity": 0.71,
      "hand": "left"
    },
    {
      "midi": 60,
      "time": 140,
      "duration": 0.25,
      "velocity": 0.71,
      "hand": "right"
    },
    {
      "midi": 66,
      "time": 140.25,
      "duration": 0.25,
      "velocity": 0.71,
      "hand": "right"
    },
    {
      "midi": 42,
      "time": 140.5,
      "duration": 1.5,
      "velocity": 0.71,
      "hand": "left"
    },
    {
      "midi": 49,
      "time": 140.75,
      "duration": 0.25,
      "velocity": 0.71,
      "hand": "left"
    },
    {
      "midi": 54,
      "time": 141,
      "duration": 0.25,
      "velocity": 0.71,
      "hand": "left"
    },
    {
      "midi": 58,
      "time": 141.25,
      "duration": 0.25,
      "velocity": 0.71,
      "hand": "left"
    },
    {
      "midi": 61,
      "time": 141.5,
      "duration": 0.25,
      "velocity": 0.71,
      "hand": "right"
    },
    {
      "midi": 66,
      "time": 141.75,
      "duration": 0.25,
      "velocity": 0.71,
      "hand": "right"
    },
    {
      "midi": 41,
      "time": 142,
      "duration": 1.5,
      "velocity": 0.71,
      "hand": "left"
    },
    {
      "midi": 72,
      "time": 142,
      "duration": 1,
      "velocity": 0.71,
      "hand": "right"
    },
    {
      "midi": 48,
      "time": 142.25,
      "duration": 0.25,
      "velocity": 0.71,
      "hand": "left"
    },
    {
      "midi": 53,
      "time": 142.5,
      "duration": 0.25,
      "velocity": 0.71,
      "hand": "left"
    },
    {
      "midi": 56,
      "time": 142.75,
      "duration": 0.25,
      "velocity": 0.71,
      "hand": "left"
    },
    {
      "midi": 60,
      "time": 143,
      "duration": 0.5,
      "velocity": 0.71,
      "hand": "right"
    },
    {
      "midi": 68,
      "time": 143,
      "duration": 0.25,
      "velocity": 0.71,
      "hand": "right"
    },
    {
      "midi": 77,
      "time": 143,
      "duration": 0.5,
      "velocity": 0.71,
      "hand": "right"
    },
    {
      "midi": 65,
      "time": 143.25,
      "duration": 0.25,
      "velocity": 0.71,
      "hand": "right"
    },
    {
      "midi": 39,
      "time": 143.5,
      "duration": 1.5,
      "velocity": 0.71,
      "hand": "left"
    },
    {
      "midi": 78,
      "time": 143.5,
      "duration": 2.25,
      "velocity": 0.71,
      "hand": "right"
    },
    {
      "midi": 46,
      "time": 143.75,
      "duration": 0.25,
      "velocity": 0.71,
      "hand": "left"
    },
    {
      "midi": 51,
      "time": 144,
      "duration": 0.25,
      "velocity": 0.71,
      "hand": "left"
    },
    {
      "midi": 54,
      "time": 144.25,
      "duration": 0.25,
      "velocity": 0.71,
      "hand": "left"
    },
    {
      "midi": 58,
      "time": 144.5,
      "duration": 0.25,
      "velocity": 0.71,
      "hand": "left"
    },
    {
      "midi": 63,
      "time": 144.75,
      "duration": 0.25,
      "velocity": 0.71,
      "hand": "right"
    },
    {
      "midi": 66,
      "time": 145,
      "duration": 0.235,
      "velocity": 0.71,
      "hand": "right"
    },
    {
      "midi": 66,
      "time": 145.25,
      "duration": 0.25,
      "velocity": 0.71,
      "hand": "right"
    },
    {
      "midi": 70,
      "time": 145.5,
      "duration": 0.25,
      "velocity": 0.71,
      "hand": "right"
    },
    {
      "midi": 65,
      "time": 145.75,
      "duration": 0.75,
      "velocity": 0.71,
      "hand": "right"
    },
    {
      "midi": 77,
      "time": 145.75,
      "duration": 0.75,
      "velocity": 0.71,
      "hand": "right"
    },
    {
      "midi": 66,
      "time": 146,
      "duration": 0.25,
      "velocity": 0.71,
      "hand": "right"
    },
    {
      "midi": 70,
      "time": 146.25,
      "duration": 0.25,
      "velocity": 0.71,
      "hand": "right"
    },
    {
      "midi": 62,
      "time": 146.5,
      "duration": 0.75,
      "velocity": 0.71,
      "hand": "right"
    },
    {
      "midi": 74,
      "time": 146.5,
      "duration": 0.75,
      "velocity": 0.71,
      "hand": "right"
    },
    {
      "midi": 66,
      "time": 146.75,
      "duration": 0.25,
      "velocity": 0.71,
      "hand": "right"
    },
    {
      "midi": 70,
      "time": 147,
      "duration": 0.25,
      "velocity": 0.71,
      "hand": "right"
    },
    {
      "midi": 63,
      "time": 147.25,
      "duration": 0.75,
      "velocity": 0.71,
      "hand": "right"
    },
    {
      "midi": 75,
      "time": 147.25,
      "duration": 0.75,
      "velocity": 0.71,
      "hand": "right"
    },
    {
      "midi": 66,
      "time": 147.5,
      "duration": 0.25,
      "velocity": 0.71,
      "hand": "right"
    },
    {
      "midi": 70,
      "time": 147.75,
      "duration": 0.25,
      "velocity": 0.71,
      "hand": "right"
    },
    {
      "midi": 62,
      "time": 148,
      "duration": 1.5,
      "velocity": 0.71,
      "hand": "right"
    },
    {
      "midi": 82,
      "time": 148,
      "duration": 3,
      "velocity": 0.71,
      "hand": "right"
    },
    {
      "midi": 66,
      "time": 148.25,
      "duration": 0.25,
      "velocity": 0.71,
      "hand": "right"
    },
    {
      "midi": 70,
      "time": 148.5,
      "duration": 0.235,
      "velocity": 0.71,
      "hand": "right"
    },
    {
      "midi": 70,
      "time": 148.75,
      "duration": 0.25,
      "velocity": 0.71,
      "hand": "right"
    },
    {
      "midi": 78,
      "time": 149,
      "duration": 0.25,
      "velocity": 0.71,
      "hand": "right"
    },
    {
      "midi": 63,
      "time": 149.5,
      "duration": 1.5,
      "velocity": 0.71,
      "hand": "right"
    },
    {
      "midi": 66,
      "time": 149.75,
      "duration": 0.25,
      "velocity": 0.71,
      "hand": "right"
    },
    {
      "midi": 70,
      "time": 150,
      "duration": 0.235,
      "velocity": 0.71,
      "hand": "right"
    },
    {
      "midi": 70,
      "time": 150.25,
      "duration": 0.25,
      "velocity": 0.71,
      "hand": "right"
    },
    {
      "midi": 78,
      "time": 150.5,
      "duration": 0.25,
      "velocity": 0.71,
      "hand": "right"
    },
    {
      "midi": 56,
      "time": 151,
      "duration": 1.5,
      "velocity": 0.71,
      "hand": "left"
    },
    {
      "midi": 60,
      "time": 151,
      "duration": 0.25,
      "velocity": 0.71,
      "hand": "right"
    },
    {
      "midi": 80,
      "time": 151,
      "duration": 1.485,
      "velocity": 0.71,
      "hand": "right"
    },
    {
      "midi": 64,
      "time": 151.25,
      "duration": 0.25,
      "velocity": 0.71,
      "hand": "right"
    },
    {
      "midi": 68,
      "time": 151.5,
      "duration": 0.25,
      "velocity": 0.71,
      "hand": "right"
    },
    {
      "midi": 72,
      "time": 151.75,
      "duration": 0.25,
      "velocity": 0.71,
      "hand": "right"
    },
    {
      "midi": 76,
      "time": 152,
      "duration": 0.25,
      "velocity": 0.71,
      "hand": "right"
    },
    {
      "midi": 49,
      "time": 152.5,
      "duration": 1.5,
      "velocity": 0.71,
      "hand": "left"
    },
    {
      "midi": 77,
      "time": 152.5,
      "duration": 3,
      "velocity": 0.71,
      "hand": "right"
    },
    {
      "midi": 80,
      "time": 152.5,
      "duration": 2.985,
      "velocity": 0.71,
      "hand": "right"
    },
    {
      "midi": 56,
      "time": 152.75,
      "duration": 0.25,
      "velocity": 0.71,
      "hand": "left"
    },
    {
      "midi": 61,
      "time": 153,
      "duration": 0.25,
      "velocity": 0.71,
      "hand": "right"
    },
    {
      "midi": 65,
      "time": 153.25,
      "duration": 0.25,
      "velocity": 0.71,
      "hand": "right"
    },
    {
      "midi": 68,
      "time": 153.5,
      "duration": 0.25,
      "velocity": 0.71,
      "hand": "right"
    },
    {
      "midi": 73,
      "time": 153.75,
      "duration": 0.25,
      "velocity": 0.71,
      "hand": "right"
    },
    {
      "midi": 53,
      "time": 154,
      "duration": 1.5,
      "velocity": 0.71,
      "hand": "left"
    },
    {
      "midi": 56,
      "time": 154,
      "duration": 0.25,
      "velocity": 0.71,
      "hand": "left"
    },
    {
      "midi": 60,
      "time": 154.25,
      "duration": 0.25,
      "velocity": 0.71,
      "hand": "right"
    },
    {
      "midi": 65,
      "time": 154.5,
      "duration": 0.25,
      "velocity": 0.71,
      "hand": "right"
    },
    {
      "midi": 68,
      "time": 154.75,
      "duration": 0.25,
      "velocity": 0.71,
      "hand": "right"
    },
    {
      "midi": 72,
      "time": 155,
      "duration": 0.25,
      "velocity": 0.71,
      "hand": "right"
    },
    {
      "midi": 56,
      "time": 155.5,
      "duration": 1.5,
      "velocity": 0.71,
      "hand": "left"
    },
    {
      "midi": 59,
      "time": 155.5,
      "duration": 0.25,
      "velocity": 0.71,
      "hand": "left"
    },
    {
      "midi": 80,
      "time": 155.5,
      "duration": 1,
      "velocity": 0.71,
      "hand": "right"
    },
    {
      "midi": 83,
      "time": 155.5,
      "duration": 1,
      "velocity": 0.71,
      "hand": "right"
    },
    {
      "midi": 64,
      "time": 155.75,
      "duration": 0.25,
      "velocity": 0.71,
      "hand": "right"
    },
    {
      "midi": 68,
      "time": 156,
      "duration": 0.25,
      "velocity": 0.71,
      "hand": "right"
    },
    {
      "midi": 71,
      "time": 156.25,
      "duration": 0.25,
      "velocity": 0.71,
      "hand": "right"
    },
    {
      "midi": 73,
      "time": 156.5,
      "duration": 0.5,
      "velocity": 0.71,
      "hand": "right"
    },
    {
      "midi": 76,
      "time": 156.5,
      "duration": 0.25,
      "velocity": 0.71,
      "hand": "right"
    },
    {
      "midi": 80,
      "time": 156.75,
      "duration": 0.235,
      "velocity": 0.71,
      "hand": "right"
    },
    {
      "midi": 49,
      "time": 157,
      "duration": 1.5,
      "velocity": 0.71,
      "hand": "left"
    },
    {
      "midi": 77,
      "time": 157,
      "duration": 3,
      "velocity": 0.71,
      "hand": "right"
    },
    {
      "midi": 80,
      "time": 157,
      "duration": 2.985,
      "velocity": 0.71,
      "hand": "right"
    },
    {
      "midi": 56,
      "time": 157.25,
      "duration": 0.25,
      "velocity": 0.71,
      "hand": "left"
    },
    {
      "midi": 61,
      "time": 157.5,
      "duration": 0.25,
      "velocity": 0.71,
      "hand": "right"
    },
    {
      "midi": 65,
      "time": 157.75,
      "duration": 0.25,
      "velocity": 0.71,
      "hand": "right"
    },
    {
      "midi": 68,
      "time": 158,
      "duration": 0.25,
      "velocity": 0.71,
      "hand": "right"
    },
    {
      "midi": 73,
      "time": 158.25,
      "duration": 0.25,
      "velocity": 0.71,
      "hand": "right"
    },
    {
      "midi": 53,
      "time": 158.5,
      "duration": 1.5,
      "velocity": 0.71,
      "hand": "left"
    },
    {
      "midi": 56,
      "time": 158.5,
      "duration": 0.25,
      "velocity": 0.71,
      "hand": "left"
    },
    {
      "midi": 60,
      "time": 158.75,
      "duration": 0.25,
      "velocity": 0.71,
      "hand": "right"
    },
    {
      "midi": 65,
      "time": 159,
      "duration": 0.25,
      "velocity": 0.71,
      "hand": "right"
    },
    {
      "midi": 68,
      "time": 159.25,
      "duration": 0.25,
      "velocity": 0.71,
      "hand": "right"
    },
    {
      "midi": 72,
      "time": 159.5,
      "duration": 0.25,
      "velocity": 0.71,
      "hand": "right"
    },
    {
      "midi": 56,
      "time": 160,
      "duration": 1.5,
      "velocity": 0.71,
      "hand": "left"
    },
    {
      "midi": 59,
      "time": 160,
      "duration": 0.25,
      "velocity": 0.71,
      "hand": "left"
    },
    {
      "midi": 80,
      "time": 160,
      "duration": 0.985,
      "velocity": 0.71,
      "hand": "right"
    },
    {
      "midi": 83,
      "time": 160,
      "duration": 1,
      "velocity": 0.71,
      "hand": "right"
    },
    {
      "midi": 64,
      "time": 160.25,
      "duration": 0.25,
      "velocity": 0.71,
      "hand": "right"
    },
    {
      "midi": 68,
      "time": 160.5,
      "duration": 0.25,
      "velocity": 0.71,
      "hand": "right"
    },
    {
      "midi": 71,
      "time": 160.75,
      "duration": 0.25,
      "velocity": 0.71,
      "hand": "right"
    },
    {
      "midi": 80,
      "time": 161,
      "duration": 0.5,
      "velocity": 0.71,
      "hand": "right"
    },
    {
      "midi": 76,
      "time": 161.25,
      "duration": 0.25,
      "velocity": 0.71,
      "hand": "right"
    },
    {
      "midi": 59,
      "time": 161.5,
      "duration": 1.5,
      "velocity": 0.71,
      "hand": "left"
    },
    {
      "midi": 61,
      "time": 161.5,
      "duration": 0.25,
      "velocity": 0.71,
      "hand": "right"
    },
    {
      "midi": 73,
      "time": 161.5,
      "duration": 0.735,
      "velocity": 0.71,
      "hand": "right"
    },
    {
      "midi": 64,
      "time": 161.75,
      "duration": 0.25,
      "velocity": 0.71,
      "hand": "right"
    },
    {
      "midi": 68,
      "time": 162,
      "duration": 0.25,
      "velocity": 0.71,
      "hand": "right"
    },
    {
      "midi": 71,
      "time": 162.25,
      "duration": 0.75,
      "velocity": 0.71,
      "hand": "right"
    },
    {
      "midi": 73,
      "time": 162.25,
      "duration": 0.25,
      "velocity": 0.71,
      "hand": "right"
    },
    {
      "midi": 80,
      "time": 162.5,
      "duration": 0.5,
      "velocity": 0.71,
      "hand": "right"
    },
    {
      "midi": 76,
      "time": 162.75,
      "duration": 0.235,
      "velocity": 0.71,
      "hand": "right"
    },
    {
      "midi": 61,
      "time": 163,
      "duration": 1.5,
      "velocity": 0.71,
      "hand": "right"
    },
    {
      "midi": 64,
      "time": 163,
      "duration": 0.25,
      "velocity": 0.71,
      "hand": "right"
    },
    {
      "midi": 76,
      "time": 163,
      "duration": 0.735,
      "velocity": 0.71,
      "hand": "right"
    },
    {
      "midi": 68,
      "time": 163.25,
      "duration": 0.25,
      "velocity": 0.71,
      "hand": "right"
    },
    {
      "midi": 71,
      "time": 163.5,
      "duration": 0.25,
      "velocity": 0.71,
      "hand": "right"
    },
    {
      "midi": 73,
      "time": 163.75,
      "duration": 0.235,
      "velocity": 0.71,
      "hand": "right"
    },
    {
      "midi": 76,
      "time": 163.75,
      "duration": 0.25,
      "velocity": 0.71,
      "hand": "right"
    },
    {
      "midi": 73,
      "time": 164,
      "duration": 0.5,
      "velocity": 0.71,
      "hand": "right"
    },
    {
      "midi": 80,
      "time": 164.25,
      "duration": 0.235,
      "velocity": 0.71,
      "hand": "right"
    },
    {
      "midi": 64,
      "time": 164.5,
      "duration": 1.5,
      "velocity": 0.71,
      "hand": "right"
    },
    {
      "midi": 68,
      "time": 164.5,
      "duration": 0.25,
      "velocity": 0.71,
      "hand": "right"
    },
    {
      "midi": 80,
      "time": 164.5,
      "duration": 0.735,
      "velocity": 0.71,
      "hand": "right"
    },
    {
      "midi": 71,
      "time": 164.75,
      "duration": 0.25,
      "velocity": 0.71,
      "hand": "right"
    },
    {
      "midi": 73,
      "time": 165,
      "duration": 0.25,
      "velocity": 0.71,
      "hand": "right"
    },
    {
      "midi": 76,
      "time": 165.25,
      "duration": 0.235,
      "velocity": 0.71,
      "hand": "right"
    },
    {
      "midi": 80,
      "time": 165.25,
      "duration": 0.25,
      "velocity": 0.71,
      "hand": "right"
    },
    {
      "midi": 76,
      "time": 165.5,
      "duration": 0.5,
      "velocity": 0.71,
      "hand": "right"
    },
    {
      "midi": 83,
      "time": 165.75,
      "duration": 0.25,
      "velocity": 0.71,
      "hand": "right"
    },
    {
      "midi": 68,
      "time": 166,
      "duration": 1.5,
      "velocity": 0.71,
      "hand": "right"
    },
    {
      "midi": 80,
      "time": 166,
      "duration": 0.735,
      "velocity": 0.71,
      "hand": "right"
    },
    {
      "midi": 69,
      "time": 166.25,
      "duration": 0.25,
      "velocity": 0.71,
      "hand": "right"
    },
    {
      "midi": 73,
      "time": 166.5,
      "duration": 0.25,
      "velocity": 0.71,
      "hand": "right"
    },
    {
      "midi": 80,
      "time": 166.75,
      "duration": 0.25,
      "velocity": 0.71,
      "hand": "right"
    },
    {
      "midi": 73,
      "time": 167,
      "duration": 0.25,
      "velocity": 0.71,
      "hand": "right"
    },
    {
      "midi": 81,
      "time": 167.25,
      "duration": 0.25,
      "velocity": 0.71,
      "hand": "right"
    },
    {
      "midi": 66,
      "time": 167.5,
      "duration": 1.485,
      "velocity": 0.71,
      "hand": "right"
    },
    {
      "midi": 78,
      "time": 167.5,
      "duration": 0.735,
      "velocity": 0.71,
      "hand": "right"
    },
    {
      "midi": 69,
      "time": 167.75,
      "duration": 0.25,
      "velocity": 0.71,
      "hand": "right"
    },
    {
      "midi": 73,
      "time": 168,
      "duration": 0.25,
      "velocity": 0.71,
      "hand": "right"
    },
    {
      "midi": 78,
      "time": 168.25,
      "duration": 0.25,
      "velocity": 0.71,
      "hand": "right"
    },
    {
      "midi": 73,
      "time": 168.5,
      "duration": 0.25,
      "velocity": 0.71,
      "hand": "right"
    },
    {
      "midi": 81,
      "time": 168.75,
      "duration": 0.25,
      "velocity": 0.71,
      "hand": "right"
    },
    {
      "midi": 66,
      "time": 169,
      "duration": 0.25,
      "velocity": 0.71,
      "hand": "right"
    },
    {
      "midi": 69,
      "time": 169.25,
      "duration": 0.25,
      "velocity": 0.71,
      "hand": "right"
    },
    {
      "midi": 73,
      "time": 169.5,
      "duration": 0.25,
      "velocity": 0.71,
      "hand": "right"
    },
    {
      "midi": 78,
      "time": 169.75,
      "duration": 0.25,
      "velocity": 0.71,
      "hand": "right"
    },
    {
      "midi": 73,
      "time": 170,
      "duration": 0.25,
      "velocity": 0.71,
      "hand": "right"
    },
    {
      "midi": 81,
      "time": 170.25,
      "duration": 0.25,
      "velocity": 0.71,
      "hand": "right"
    },
    {
      "midi": 64,
      "time": 170.5,
      "duration": 1.5,
      "velocity": 0.71,
      "hand": "right"
    },
    {
      "midi": 66,
      "time": 170.5,
      "duration": 0.25,
      "velocity": 0.71,
      "hand": "right"
    },
    {
      "midi": 78,
      "time": 170.5,
      "duration": 0.735,
      "velocity": 0.71,
      "hand": "right"
    },
    {
      "midi": 69,
      "time": 170.75,
      "duration": 0.25,
      "velocity": 0.71,
      "hand": "right"
    },
    {
      "midi": 73,
      "time": 171,
      "duration": 0.25,
      "velocity": 0.71,
      "hand": "right"
    },
    {
      "midi": 78,
      "time": 171.25,
      "duration": 0.25,
      "velocity": 0.71,
      "hand": "right"
    },
    {
      "midi": 73,
      "time": 171.5,
      "duration": 0.25,
      "velocity": 0.71,
      "hand": "right"
    },
    {
      "midi": 81,
      "time": 171.75,
      "duration": 0.25,
      "velocity": 0.71,
      "hand": "right"
    },
    {
      "midi": 63,
      "time": 172,
      "duration": 1.5,
      "velocity": 0.71,
      "hand": "right"
    },
    {
      "midi": 66,
      "time": 172,
      "duration": 0.25,
      "velocity": 0.71,
      "hand": "right"
    },
    {
      "midi": 69,
      "time": 172.25,
      "duration": 0.25,
      "velocity": 0.71,
      "hand": "right"
    },
    {
      "midi": 73,
      "time": 172.5,
      "duration": 0.25,
      "velocity": 0.71,
      "hand": "right"
    },
    {
      "midi": 78,
      "time": 172.75,
      "duration": 0.25,
      "velocity": 0.71,
      "hand": "right"
    },
    {
      "midi": 73,
      "time": 173,
      "duration": 0.25,
      "velocity": 0.71,
      "hand": "right"
    },
    {
      "midi": 81,
      "time": 173.25,
      "duration": 0.235,
      "velocity": 0.71,
      "hand": "right"
    },
    {
      "midi": 61,
      "time": 173.5,
      "duration": 1.5,
      "velocity": 0.71,
      "hand": "right"
    },
    {
      "midi": 64,
      "time": 173.5,
      "duration": 0.25,
      "velocity": 0.71,
      "hand": "right"
    },
    {
      "midi": 81,
      "time": 173.5,
      "duration": 1,
      "velocity": 0.71,
      "hand": "right"
    },
    {
      "midi": 69,
      "time": 173.75,
      "duration": 0.25,
      "velocity": 0.71,
      "hand": "right"
    },
    {
      "midi": 73,
      "time": 174,
      "duration": 0.25,
      "velocity": 0.71,
      "hand": "right"
    },
    {
      "midi": 76,
      "time": 174.25,
      "duration": 0.25,
      "velocity": 0.71,
      "hand": "right"
    },
    {
      "midi": 73,
      "time": 174.5,
      "duration": 0.235,
      "velocity": 0.71,
      "hand": "right"
    },
    {
      "midi": 73,
      "time": 174.75,
      "duration": 0.25,
      "velocity": 0.71,
      "hand": "right"
    },
    {
      "midi": 59,
      "time": 175,
      "duration": 1.5,
      "velocity": 0.71,
      "hand": "left"
    },
    {
      "midi": 78,
      "time": 175,
      "duration": 3,
      "velocity": 0.71,
      "hand": "right"
    },
    {
      "midi": 63,
      "time": 175.25,
      "duration": 0.25,
      "velocity": 0.71,
      "hand": "right"
    },
    {
      "midi": 66,
      "time": 175.5,
      "duration": 0.235,
      "velocity": 0.71,
      "hand": "right"
    },
    {
      "midi": 66,
      "time": 175.75,
      "duration": 0.25,
      "velocity": 0.71,
      "hand": "right"
    },
    {
      "midi": 73,
      "time": 176,
      "duration": 0.25,
      "velocity": 0.71,
      "hand": "right"
    },
    {
      "midi": 69,
      "time": 176.25,
      "duration": 0.25,
      "velocity": 0.71,
      "hand": "right"
    },
    {
      "midi": 57,
      "time": 176.5,
      "duration": 1.5,
      "velocity": 0.71,
      "hand": "left"
    },
    {
      "midi": 61,
      "time": 176.75,
      "duration": 0.25,
      "velocity": 0.71,
      "hand": "right"
    },
    {
      "midi": 64,
      "time": 177,
      "duration": 0.25,
      "velocity": 0.71,
      "hand": "right"
    },
    {
      "midi": 66,
      "time": 177.25,
      "duration": 0.25,
      "velocity": 0.71,
      "hand": "right"
    },
    {
      "midi": 73,
      "time": 177.5,
      "duration": 0.25,
      "velocity": 0.71,
      "hand": "right"
    },
    {
      "midi": 69,
      "time": 177.75,
      "duration": 0.25,
      "velocity": 0.71,
      "hand": "right"
    },
    {
      "midi": 56,
      "time": 178,
      "duration": 1.5,
      "velocity": 0.71,
      "hand": "left"
    },
    {
      "midi": 81,
      "time": 178,
      "duration": 1,
      "velocity": 0.71,
      "hand": "right"
    },
    {
      "midi": 61,
      "time": 178.25,
      "duration": 0.25,
      "velocity": 0.71,
      "hand": "right"
    },
    {
      "midi": 64,
      "time": 178.5,
      "duration": 0.25,
      "velocity": 0.71,
      "hand": "right"
    },
    {
      "midi": 69,
      "time": 178.75,
      "duration": 0.25,
      "velocity": 0.71,
      "hand": "right"
    },
    {
      "midi": 73,
      "time": 179,
      "duration": 0.485,
      "velocity": 0.71,
      "hand": "right"
    },
    {
      "midi": 76,
      "time": 179,
      "duration": 0.25,
      "velocity": 0.71,
      "hand": "right"
    },
    {
      "midi": 81,
      "time": 179.25,
      "duration": 0.25,
      "velocity": 0.71,
      "hand": "right"
    },
    {
      "midi": 54,
      "time": 179.5,
      "duration": 4.5,
      "velocity": 0.71,
      "hand": "left"
    },
    {
      "midi": 73,
      "time": 179.5,
      "duration": 0.5,
      "velocity": 0.71,
      "hand": "right"
    },
    {
      "midi": 76,
      "time": 179.5,
      "duration": 0.5,
      "velocity": 0.71,
      "hand": "right"
    },
    {
      "midi": 61,
      "time": 179.75,
      "duration": 0.25,
      "velocity": 0.71,
      "hand": "right"
    },
    {
      "midi": 64,
      "time": 180,
      "duration": 0.25,
      "velocity": 0.71,
      "hand": "right"
    },
    {
      "midi": 75,
      "time": 180,
      "duration": 0.5,
      "velocity": 0.71,
      "hand": "right"
    },
    {
      "midi": 83,
      "time": 180,
      "duration": 0.5,
      "velocity": 0.71,
      "hand": "right"
    },
    {
      "midi": 66,
      "time": 180.25,
      "duration": 0.25,
      "velocity": 0.71,
      "hand": "right"
    },
    {
      "midi": 69,
      "time": 180.5,
      "duration": 0.25,
      "velocity": 0.71,
      "hand": "right"
    },
    {
      "midi": 73,
      "time": 180.5,
      "duration": 0.235,
      "velocity": 0.71,
      "hand": "right"
    },
    {
      "midi": 81,
      "time": 180.5,
      "duration": 0.5,
      "velocity": 0.71,
      "hand": "right"
    },
    {
      "midi": 73,
      "time": 180.75,
      "duration": 0.25,
      "velocity": 0.71,
      "hand": "right"
    },
    {
      "midi": 76,
      "time": 181,
      "duration": 0.25,
      "velocity": 0.71,
      "hand": "right"
    },
    {
      "midi": 80,
      "time": 181,
      "duration": 0.75,
      "velocity": 0.71,
      "hand": "right"
    },
    {
      "midi": 83,
      "time": 181,
      "duration": 0.75,
      "velocity": 0.71,
      "hand": "right"
    },
    {
      "midi": 78,
      "time": 181.25,
      "duration": 0.25,
      "velocity": 0.71,
      "hand": "right"
    },
    {
      "midi": 76,
      "time": 181.5,
      "duration": 0.25,
      "velocity": 0.71,
      "hand": "right"
    },
    {
      "midi": 73,
      "time": 181.75,
      "duration": 0.25,
      "velocity": 0.71,
      "hand": "right"
    },
    {
      "midi": 78,
      "time": 181.75,
      "duration": 1.25,
      "velocity": 0.71,
      "hand": "right"
    },
    {
      "midi": 81,
      "time": 181.75,
      "duration": 1.25,
      "velocity": 0.71,
      "hand": "right"
    },
    {
      "midi": 69,
      "time": 182,
      "duration": 0.25,
      "velocity": 0.71,
      "hand": "right"
    },
    {
      "midi": 66,
      "time": 182.25,
      "duration": 0.25,
      "velocity": 0.71,
      "hand": "right"
    },
    {
      "midi": 64,
      "time": 182.5,
      "duration": 0.25,
      "velocity": 0.71,
      "hand": "right"
    },
    {
      "midi": 66,
      "time": 182.75,
      "duration": 0.25,
      "velocity": 0.71,
      "hand": "right"
    },
    {
      "midi": 64,
      "time": 183,
      "duration": 0.25,
      "velocity": 0.71,
      "hand": "right"
    },
    {
      "midi": 76,
      "time": 183,
      "duration": 0.5,
      "velocity": 0.71,
      "hand": "right"
    },
    {
      "midi": 80,
      "time": 183,
      "duration": 0.5,
      "velocity": 0.71,
      "hand": "right"
    },
    {
      "midi": 61,
      "time": 183.25,
      "duration": 0.25,
      "velocity": 0.71,
      "hand": "right"
    },
    {
      "midi": 57,
      "time": 183.5,
      "duration": 0.25,
      "velocity": 0.71,
      "hand": "left"
    },
    {
      "midi": 75,
      "time": 183.5,
      "duration": 0.5,
      "velocity": 0.71,
      "hand": "right"
    },
    {
      "midi": 78,
      "time": 183.5,
      "duration": 0.5,
      "velocity": 0.71,
      "hand": "right"
    },
    {
      "midi": 42,
      "time": 184,
      "duration": 0.25,
      "velocity": 0.71,
      "hand": "left"
    },
    {
      "midi": 73,
      "time": 184,
      "duration": 0.5,
      "velocity": 0.71,
      "hand": "right"
    },
    {
      "midi": 76,
      "time": 184,
      "duration": 0.5,
      "velocity": 0.71,
      "hand": "right"
    },
    {
      "midi": 49,
      "time": 184.25,
      "duration": 0.25,
      "velocity": 0.71,
      "hand": "left"
    },
    {
      "midi": 52,
      "time": 184.5,
      "duration": 0.25,
      "velocity": 0.71,
      "hand": "left"
    },
    {
      "midi": 71,
      "time": 184.5,
      "duration": 0.5,
      "velocity": 0.71,
      "hand": "right"
    },
    {
      "midi": 75,
      "time": 184.5,
      "duration": 0.5,
      "velocity": 0.71,
      "hand": "right"
    },
    {
      "midi": 54,
      "time": 184.75,
      "duration": 0.25,
      "velocity": 0.71,
      "hand": "left"
    },
    {
      "midi": 57,
      "time": 185,
      "duration": 0.25,
      "velocity": 0.71,
      "hand": "left"
    },
    {
      "midi": 69,
      "time": 185,
      "duration": 0.5,
      "velocity": 0.71,
      "hand": "right"
    },
    {
      "midi": 73,
      "time": 185,
      "duration": 0.5,
      "velocity": 0.71,
      "hand": "right"
    },
    {
      "midi": 61,
      "time": 185.25,
      "duration": 0.25,
      "velocity": 0.71,
      "hand": "right"
    },
    {
      "midi": 64,
      "time": 185.5,
      "duration": 0.25,
      "velocity": 0.71,
      "hand": "right"
    },
    {
      "midi": 68,
      "time": 185.5,
      "duration": 0.5,
      "velocity": 0.71,
      "hand": "right"
    },
    {
      "midi": 71,
      "time": 185.5,
      "duration": 0.5,
      "velocity": 0.71,
      "hand": "right"
    },
    {
      "midi": 61,
      "time": 185.75,
      "duration": 0.25,
      "velocity": 0.71,
      "hand": "right"
    },
    {
      "midi": 57,
      "time": 186,
      "duration": 0.25,
      "velocity": 0.71,
      "hand": "left"
    },
    {
      "midi": 66,
      "time": 186,
      "duration": 0.5,
      "velocity": 0.71,
      "hand": "right"
    },
    {
      "midi": 69,
      "time": 186,
      "duration": 0.5,
      "velocity": 0.71,
      "hand": "right"
    },
    {
      "midi": 54,
      "time": 186.25,
      "duration": 0.25,
      "velocity": 0.71,
      "hand": "left"
    },
    {
      "midi": 52,
      "time": 186.5,
      "duration": 0.25,
      "velocity": 0.71,
      "hand": "left"
    },
    {
      "midi": 64,
      "time": 186.5,
      "duration": 1,
      "velocity": 0.71,
      "hand": "right"
    },
    {
      "midi": 68,
      "time": 186.5,
      "duration": 1,
      "velocity": 0.71,
      "hand": "right"
    },
    {
      "midi": 49,
      "time": 186.75,
      "duration": 0.25,
      "velocity": 0.71,
      "hand": "left"
    },
    {
      "midi": 42,
      "time": 187,
      "duration": 0.25,
      "velocity": 0.71,
      "hand": "left"
    },
    {
      "midi": 57,
      "time": 187,
      "duration": 1.5,
      "velocity": 0.71,
      "hand": "left"
    },
    {
      "midi": 49,
      "time": 187.25,
      "duration": 0.25,
      "velocity": 0.71,
      "hand": "left"
    },
    {
      "midi": 42,
      "time": 187.5,
      "duration": 0.25,
      "velocity": 0.71,
      "hand": "left"
    },
    {
      "midi": 63,
      "time": 187.5,
      "duration": 0.5,
      "velocity": 0.71,
      "hand": "right"
    },
    {
      "midi": 66,
      "time": 187.5,
      "duration": 0.5,
      "velocity": 0.71,
      "hand": "right"
    },
    {
      "midi": 49,
      "time": 187.75,
      "duration": 0.25,
      "velocity": 0.71,
      "hand": "left"
    },
    {
      "midi": 42,
      "time": 188,
      "duration": 0.25,
      "velocity": 0.71,
      "hand": "left"
    },
    {
      "midi": 61,
      "time": 188,
      "duration": 0.485,
      "velocity": 0.71,
      "hand": "right"
    },
    {
      "midi": 64,
      "time": 188,
      "duration": 0.5,
      "velocity": 0.71,
      "hand": "right"
    },
    {
      "midi": 49,
      "time": 188.25,
      "duration": 0.25,
      "velocity": 0.71,
      "hand": "left"
    },
    {
      "midi": 44,
      "time": 188.5,
      "duration": 0.25,
      "velocity": 0.71,
      "hand": "left"
    },
    {
      "midi": 54,
      "time": 188.5,
      "duration": 1,
      "velocity": 0.71,
      "hand": "left"
    },
    {
      "midi": 61,
      "time": 188.5,
      "duration": 3,
      "velocity": 0.71,
      "hand": "right"
    },
    {
      "midi": 63,
      "time": 188.5,
      "duration": 2.985,
      "velocity": 0.71,
      "hand": "right"
    },
    {
      "midi": 51,
      "time": 188.75,
      "duration": 0.25,
      "velocity": 0.71,
      "hand": "left"
    },
    {
      "midi": 44,
      "time": 189,
      "duration": 0.25,
      "velocity": 0.71,
      "hand": "left"
    },
    {
      "midi": 51,
      "time": 189.25,
      "duration": 0.25,
      "velocity": 0.71,
      "hand": "left"
    },
    {
      "midi": 44,
      "time": 189.5,
      "duration": 0.25,
      "velocity": 0.71,
      "hand": "left"
    },
    {
      "midi": 56,
      "time": 189.5,
      "duration": 0.5,
      "velocity": 0.71,
      "hand": "left"
    },
    {
      "midi": 51,
      "time": 189.75,
      "duration": 0.25,
      "velocity": 0.71,
      "hand": "left"
    },
    {
      "midi": 44,
      "time": 190,
      "duration": 0.25,
      "velocity": 0.71,
      "hand": "left"
    },
    {
      "midi": 58,
      "time": 190,
      "duration": 1,
      "velocity": 0.71,
      "hand": "left"
    },
    {
      "midi": 51,
      "time": 190.25,
      "duration": 0.25,
      "velocity": 0.71,
      "hand": "left"
    },
    {
      "midi": 44,
      "time": 190.5,
      "duration": 0.25,
      "velocity": 0.71,
      "hand": "left"
    },
    {
      "midi": 51,
      "time": 190.75,
      "duration": 0.25,
      "velocity": 0.71,
      "hand": "left"
    },
    {
      "midi": 44,
      "time": 191,
      "duration": 0.25,
      "velocity": 0.71,
      "hand": "left"
    },
    {
      "midi": 51,
      "time": 191.25,
      "duration": 0.25,
      "velocity": 0.71,
      "hand": "left"
    },
    {
      "midi": 44,
      "time": 191.5,
      "duration": 0.25,
      "velocity": 0.71,
      "hand": "left"
    },
    {
      "midi": 60,
      "time": 191.5,
      "duration": 1.5,
      "velocity": 0.71,
      "hand": "right"
    },
    {
      "midi": 63,
      "time": 191.5,
      "duration": 0.985,
      "velocity": 0.71,
      "hand": "right"
    },
    {
      "midi": 66,
      "time": 191.5,
      "duration": 0.985,
      "velocity": 0.71,
      "hand": "right"
    },
    {
      "midi": 51,
      "time": 191.75,
      "duration": 0.25,
      "velocity": 0.71,
      "hand": "left"
    },
    {
      "midi": 44,
      "time": 192,
      "duration": 0.25,
      "velocity": 0.71,
      "hand": "left"
    },
    {
      "midi": 51,
      "time": 192.25,
      "duration": 0.25,
      "velocity": 0.71,
      "hand": "left"
    },
    {
      "midi": 44,
      "time": 192.5,
      "duration": 0.25,
      "velocity": 0.71,
      "hand": "left"
    },
    {
      "midi": 63,
      "time": 192.5,
      "duration": 0.485,
      "velocity": 0.71,
      "hand": "right"
    },
    {
      "midi": 66,
      "time": 192.5,
      "duration": 0.5,
      "velocity": 0.71,
      "hand": "right"
    },
    {
      "midi": 70,
      "time": 192.5,
      "duration": 0.5,
      "velocity": 0.71,
      "hand": "right"
    },
    {
      "midi": 51,
      "time": 192.75,
      "duration": 0.25,
      "velocity": 0.71,
      "hand": "left"
    },
    {
      "midi": 44,
      "time": 193,
      "duration": 0.25,
      "velocity": 0.71,
      "hand": "left"
    },
    {
      "midi": 54,
      "time": 193,
      "duration": 1,
      "velocity": 0.71,
      "hand": "left"
    },
    {
      "midi": 61,
      "time": 193,
      "duration": 3,
      "velocity": 0.71,
      "hand": "right"
    },
    {
      "midi": 63,
      "time": 193,
      "duration": 2.985,
      "velocity": 0.71,
      "hand": "right"
    },
    {
      "midi": 51,
      "time": 193.25,
      "duration": 0.25,
      "velocity": 0.71,
      "hand": "left"
    },
    {
      "midi": 44,
      "time": 193.5,
      "duration": 0.25,
      "velocity": 0.71,
      "hand": "left"
    },
    {
      "midi": 51,
      "time": 193.75,
      "duration": 0.25,
      "velocity": 0.71,
      "hand": "left"
    },
    {
      "midi": 44,
      "time": 194,
      "duration": 0.25,
      "velocity": 0.71,
      "hand": "left"
    },
    {
      "midi": 56,
      "time": 194,
      "duration": 0.5,
      "velocity": 0.71,
      "hand": "left"
    },
    {
      "midi": 51,
      "time": 194.25,
      "duration": 0.25,
      "velocity": 0.71,
      "hand": "left"
    },
    {
      "midi": 44,
      "time": 194.5,
      "duration": 0.25,
      "velocity": 0.71,
      "hand": "left"
    },
    {
      "midi": 58,
      "time": 194.5,
      "duration": 1,
      "velocity": 0.71,
      "hand": "left"
    },
    {
      "midi": 51,
      "time": 194.75,
      "duration": 0.25,
      "velocity": 0.71,
      "hand": "left"
    },
    {
      "midi": 44,
      "time": 195,
      "duration": 0.25,
      "velocity": 0.71,
      "hand": "left"
    },
    {
      "midi": 51,
      "time": 195.25,
      "duration": 0.25,
      "velocity": 0.71,
      "hand": "left"
    },
    {
      "midi": 44,
      "time": 195.5,
      "duration": 0.25,
      "velocity": 0.71,
      "hand": "left"
    },
    {
      "midi": 51,
      "time": 195.75,
      "duration": 0.25,
      "velocity": 0.71,
      "hand": "left"
    },
    {
      "midi": 44,
      "time": 196,
      "duration": 0.25,
      "velocity": 0.71,
      "hand": "left"
    },
    {
      "midi": 60,
      "time": 196,
      "duration": 1.5,
      "velocity": 0.71,
      "hand": "right"
    },
    {
      "midi": 63,
      "time": 196,
      "duration": 0.985,
      "velocity": 0.71,
      "hand": "right"
    },
    {
      "midi": 66,
      "time": 196,
      "duration": 0.985,
      "velocity": 0.71,
      "hand": "right"
    },
    {
      "midi": 51,
      "time": 196.25,
      "duration": 0.25,
      "velocity": 0.71,
      "hand": "left"
    },
    {
      "midi": 44,
      "time": 196.5,
      "duration": 0.25,
      "velocity": 0.71,
      "hand": "left"
    },
    {
      "midi": 51,
      "time": 196.75,
      "duration": 0.25,
      "velocity": 0.71,
      "hand": "left"
    },
    {
      "midi": 44,
      "time": 197,
      "duration": 0.25,
      "velocity": 0.71,
      "hand": "left"
    },
    {
      "midi": 63,
      "time": 197,
      "duration": 0.5,
      "velocity": 0.71,
      "hand": "right"
    },
    {
      "midi": 66,
      "time": 197,
      "duration": 1,
      "velocity": 0.71,
      "hand": "right"
    },
    {
      "midi": 70,
      "time": 197,
      "duration": 1,
      "velocity": 0.71,
      "hand": "right"
    },
    {
      "midi": 51,
      "time": 197.25,
      "duration": 0.25,
      "velocity": 0.71,
      "hand": "left"
    },
    {
      "midi": 44,
      "time": 197.5,
      "duration": 0.25,
      "velocity": 0.71,
      "hand": "left"
    },
    {
      "midi": 61,
      "time": 197.5,
      "duration": 0.5,
      "velocity": 0.71,
      "hand": "right"
    },
    {
      "midi": 39,
      "time": 197.75,
      "duration": 0.25,
      "velocity": 0.71,
      "hand": "left"
    },
    {
      "midi": 44,
      "time": 198,
      "duration": 0.25,
      "velocity": 0.71,
      "hand": "left"
    },
    {
      "midi": 68,
      "time": 198,
      "duration": 0.5,
      "velocity": 0.71,
      "hand": "right"
    },
    {
      "midi": 72,
      "time": 198,
      "duration": 0.5,
      "velocity": 0.71,
      "hand": "right"
    },
    {
      "midi": 77,
      "time": 198,
      "duration": 0.5,
      "velocity": 0.71,
      "hand": "right"
    },
    {
      "midi": 51,
      "time": 198.25,
      "duration": 0.25,
      "velocity": 0.71,
      "hand": "left"
    },
    {
      "midi": 44,
      "time": 198.5,
      "duration": 0.25,
      "velocity": 0.71,
      "hand": "left"
    },
    {
      "midi": 66,
      "time": 198.5,
      "duration": 0.485,
      "velocity": 0.71,
      "hand": "right"
    },
    {
      "midi": 70,
      "time": 198.5,
      "duration": 0.485,
      "velocity": 0.71,
      "hand": "right"
    },
    {
      "midi": 75,
      "time": 198.5,
      "duration": 0.5,
      "velocity": 0.71,
      "hand": "right"
    },
    {
      "midi": 51,
      "time": 198.75,
      "duration": 0.25,
      "velocity": 0.71,
      "hand": "left"
    },
    {
      "midi": 56,
      "time": 199,
      "duration": 0.25,
      "velocity": 0.71,
      "hand": "left"
    },
    {
      "midi": 61,
      "time": 199,
      "duration": 0.5,
      "velocity": 0.71,
      "hand": "right"
    },
    {
      "midi": 66,
      "time": 199,
      "duration": 1.485,
      "velocity": 0.71,
      "hand": "right"
    },
    {
      "midi": 70,
      "time": 199,
      "duration": 1.5,
      "velocity": 0.71,
      "hand": "right"
    },
    {
      "midi": 51,
      "time": 199.25,
      "duration": 0.25,
      "velocity": 0.71,
      "hand": "left"
    },
    {
      "midi": 56,
      "time": 199.5,
      "duration": 0.25,
      "velocity": 0.71,
      "hand": "left"
    },
    {
      "midi": 58,
      "time": 199.5,
      "duration": 0.5,
      "velocity": 0.71,
      "hand": "left"
    },
    {
      "midi": 63,
      "time": 199.75,
      "duration": 0.25,
      "velocity": 0.71,
      "hand": "right"
    },
    {
      "midi": 56,
      "time": 200,
      "duration": 0.25,
      "velocity": 0.71,
      "hand": "left"
    },
    {
      "midi": 61,
      "time": 200,
      "duration": 0.5,
      "velocity": 0.71,
      "hand": "right"
    },
    {
      "midi": 51,
      "time": 200.25,
      "duration": 0.25,
      "velocity": 0.71,
      "hand": "left"
    },
    {
      "midi": 56,
      "time": 200.5,
      "duration": 0.25,
      "velocity": 0.71,
      "hand": "left"
    },
    {
      "midi": 58,
      "time": 200.5,
      "duration": 0.5,
      "velocity": 0.71,
      "hand": "left"
    },
    {
      "midi": 66,
      "time": 200.5,
      "duration": 1.485,
      "velocity": 0.71,
      "hand": "right"
    },
    {
      "midi": 68,
      "time": 200.5,
      "duration": 1.5,
      "velocity": 0.71,
      "hand": "right"
    },
    {
      "midi": 51,
      "time": 200.75,
      "duration": 0.25,
      "velocity": 0.71,
      "hand": "left"
    },
    {
      "midi": 44,
      "time": 201,
      "duration": 0.25,
      "velocity": 0.71,
      "hand": "left"
    },
    {
      "midi": 60,
      "time": 201,
      "duration": 0.5,
      "velocity": 0.71,
      "hand": "right"
    },
    {
      "midi": 51,
      "time": 201.25,
      "duration": 0.25,
      "velocity": 0.71,
      "hand": "left"
    },
    {
      "midi": 44,
      "time": 201.5,
      "duration": 0.25,
      "velocity": 0.71,
      "hand": "left"
    },
    {
      "midi": 63,
      "time": 201.5,
      "duration": 0.5,
      "velocity": 0.71,
      "hand": "right"
    },
    {
      "midi": 39,
      "time": 201.75,
      "duration": 0.25,
      "velocity": 0.71,
      "hand": "left"
    },
    {
      "midi": 44,
      "time": 202,
      "duration": 0.25,
      "velocity": 0.71,
      "hand": "left"
    },
    {
      "midi": 61,
      "time": 202,
      "duration": 0.5,
      "velocity": 0.71,
      "hand": "right"
    },
    {
      "midi": 66,
      "time": 202,
      "duration": 0.5,
      "velocity": 0.71,
      "hand": "right"
    },
    {
      "midi": 70,
      "time": 202,
      "duration": 0.5,
      "velocity": 0.71,
      "hand": "right"
    },
    {
      "midi": 39,
      "time": 202.25,
      "duration": 0.25,
      "velocity": 0.71,
      "hand": "left"
    },
    {
      "midi": 44,
      "time": 202.5,
      "duration": 0.25,
      "velocity": 0.71,
      "hand": "left"
    },
    {
      "midi": 68,
      "time": 202.5,
      "duration": 0.5,
      "velocity": 0.71,
      "hand": "right"
    },
    {
      "midi": 72,
      "time": 202.5,
      "duration": 0.5,
      "velocity": 0.71,
      "hand": "right"
    },
    {
      "midi": 77,
      "time": 202.5,
      "duration": 0.5,
      "velocity": 0.71,
      "hand": "right"
    },
    {
      "midi": 51,
      "time": 202.75,
      "duration": 0.25,
      "velocity": 0.71,
      "hand": "left"
    },
    {
      "midi": 44,
      "time": 203,
      "duration": 0.25,
      "velocity": 0.71,
      "hand": "left"
    },
    {
      "midi": 66,
      "time": 203,
      "duration": 0.485,
      "velocity": 0.71,
      "hand": "right"
    },
    {
      "midi": 70,
      "time": 203,
      "duration": 0.485,
      "velocity": 0.71,
      "hand": "right"
    },
    {
      "midi": 75,
      "time": 203,
      "duration": 0.5,
      "velocity": 0.71,
      "hand": "right"
    },
    {
      "midi": 51,
      "time": 203.25,
      "duration": 0.25,
      "velocity": 0.71,
      "hand": "left"
    },
    {
      "midi": 56,
      "time": 203.5,
      "duration": 0.25,
      "velocity": 0.71,
      "hand": "left"
    },
    {
      "midi": 61,
      "time": 203.5,
      "duration": 0.5,
      "velocity": 0.71,
      "hand": "right"
    },
    {
      "midi": 66,
      "time": 203.5,
      "duration": 1.485,
      "velocity": 0.71,
      "hand": "right"
    },
    {
      "midi": 70,
      "time": 203.5,
      "duration": 1.5,
      "velocity": 0.71,
      "hand": "right"
    },
    {
      "midi": 51,
      "time": 203.75,
      "duration": 0.25,
      "velocity": 0.71,
      "hand": "left"
    },
    {
      "midi": 56,
      "time": 204,
      "duration": 0.25,
      "velocity": 0.71,
      "hand": "left"
    },
    {
      "midi": 58,
      "time": 204,
      "duration": 0.5,
      "velocity": 0.71,
      "hand": "left"
    },
    {
      "midi": 63,
      "time": 204.25,
      "duration": 0.25,
      "velocity": 0.71,
      "hand": "right"
    },
    {
      "midi": 56,
      "time": 204.5,
      "duration": 0.25,
      "velocity": 0.71,
      "hand": "left"
    },
    {
      "midi": 61,
      "time": 204.5,
      "duration": 0.5,
      "velocity": 0.71,
      "hand": "right"
    },
    {
      "midi": 51,
      "time": 204.75,
      "duration": 0.25,
      "velocity": 0.71,
      "hand": "left"
    },
    {
      "midi": 56,
      "time": 205,
      "duration": 0.25,
      "velocity": 0.71,
      "hand": "left"
    },
    {
      "midi": 58,
      "time": 205,
      "duration": 0.5,
      "velocity": 0.71,
      "hand": "left"
    },
    {
      "midi": 66,
      "time": 205,
      "duration": 1.5,
      "velocity": 0.71,
      "hand": "right"
    },
    {
      "midi": 68,
      "time": 205,
      "duration": 1.5,
      "velocity": 0.71,
      "hand": "right"
    },
    {
      "midi": 51,
      "time": 205.25,
      "duration": 0.25,
      "velocity": 0.71,
      "hand": "left"
    },
    {
      "midi": 56,
      "time": 205.5,
      "duration": 0.25,
      "velocity": 0.71,
      "hand": "left"
    },
    {
      "midi": 60,
      "time": 205.5,
      "duration": 0.5,
      "velocity": 0.71,
      "hand": "right"
    },
    {
      "midi": 51,
      "time": 205.75,
      "duration": 0.25,
      "velocity": 0.71,
      "hand": "left"
    },
    {
      "midi": 56,
      "time": 206,
      "duration": 0.25,
      "velocity": 0.71,
      "hand": "left"
    },
    {
      "midi": 63,
      "time": 206,
      "duration": 0.5,
      "velocity": 0.71,
      "hand": "right"
    },
    {
      "midi": 51,
      "time": 206.25,
      "duration": 0.25,
      "velocity": 0.71,
      "hand": "left"
    },
    {
      "midi": 54,
      "time": 206.5,
      "duration": 1,
      "velocity": 0.71,
      "hand": "left"
    },
    {
      "midi": 61,
      "time": 206.5,
      "duration": 3,
      "velocity": 0.71,
      "hand": "right"
    },
    {
      "midi": 75,
      "time": 206.5,
      "duration": 3,
      "velocity": 0.71,
      "hand": "right"
    },
    {
      "midi": 63,
      "time": 206.75,
      "duration": 0.25,
      "velocity": 0.71,
      "hand": "right"
    },
    {
      "midi": 66,
      "time": 207,
      "duration": 0.25,
      "velocity": 0.71,
      "hand": "right"
    },
    {
      "midi": 70,
      "time": 207.25,
      "duration": 0.25,
      "velocity": 0.71,
      "hand": "right"
    },
    {
      "midi": 56,
      "time": 207.5,
      "duration": 0.5,
      "velocity": 0.71,
      "hand": "left"
    },
    {
      "midi": 66,
      "time": 207.5,
      "duration": 0.25,
      "velocity": 0.71,
      "hand": "right"
    },
    {
      "midi": 63,
      "time": 207.75,
      "duration": 0.25,
      "velocity": 0.71,
      "hand": "right"
    },
    {
      "midi": 58,
      "time": 208,
      "duration": 1,
      "velocity": 0.71,
      "hand": "left"
    },
    {
      "midi": 63,
      "time": 208.25,
      "duration": 0.25,
      "velocity": 0.71,
      "hand": "right"
    },
    {
      "midi": 66,
      "time": 208.5,
      "duration": 0.25,
      "velocity": 0.71,
      "hand": "right"
    },
    {
      "midi": 70,
      "time": 208.75,
      "duration": 0.25,
      "velocity": 0.71,
      "hand": "right"
    },
    {
      "midi": 66,
      "time": 209,
      "duration": 0.25,
      "velocity": 0.71,
      "hand": "right"
    },
    {
      "midi": 63,
      "time": 209.25,
      "duration": 0.25,
      "velocity": 0.71,
      "hand": "right"
    },
    {
      "midi": 60,
      "time": 209.5,
      "duration": 1.5,
      "velocity": 0.71,
      "hand": "right"
    },
    {
      "midi": 78,
      "time": 209.5,
      "duration": 1,
      "velocity": 0.71,
      "hand": "right"
    },
    {
      "midi": 63,
      "time": 209.75,
      "duration": 0.25,
      "velocity": 0.71,
      "hand": "right"
    },
    {
      "midi": 66,
      "time": 210,
      "duration": 0.25,
      "velocity": 0.71,
      "hand": "right"
    },
    {
      "midi": 70,
      "time": 210.25,
      "duration": 0.25,
      "velocity": 0.71,
      "hand": "right"
    },
    {
      "midi": 72,
      "time": 210.5,
      "duration": 0.25,
      "velocity": 0.71,
      "hand": "right"
    },
    {
      "midi": 82,
      "time": 210.5,
      "duration": 0.5,
      "velocity": 0.71,
      "hand": "right"
    },
    {
      "midi": 75,
      "time": 210.75,
      "duration": 0.235,
      "velocity": 0.71,
      "hand": "right"
    },
    {
      "midi": 54,
      "time": 211,
      "duration": 1,
      "velocity": 0.71,
      "hand": "left"
    },
    {
      "midi": 61,
      "time": 211,
      "duration": 3,
      "velocity": 0.71,
      "hand": "right"
    },
    {
      "midi": 75,
      "time": 211,
      "duration": 3,
      "velocity": 0.71,
      "hand": "right"
    },
    {
      "midi": 63,
      "time": 211.25,
      "duration": 0.25,
      "velocity": 0.71,
      "hand": "right"
    },
    {
      "midi": 66,
      "time": 211.5,
      "duration": 0.25,
      "velocity": 0.71,
      "hand": "right"
    },
    {
      "midi": 70,
      "time": 211.75,
      "duration": 0.25,
      "velocity": 0.71,
      "hand": "right"
    },
    {
      "midi": 56,
      "time": 212,
      "duration": 0.5,
      "velocity": 0.71,
      "hand": "left"
    },
    {
      "midi": 66,
      "time": 212,
      "duration": 0.25,
      "velocity": 0.71,
      "hand": "right"
    },
    {
      "midi": 63,
      "time": 212.25,
      "duration": 0.25,
      "velocity": 0.71,
      "hand": "right"
    },
    {
      "midi": 58,
      "time": 212.5,
      "duration": 1,
      "velocity": 0.71,
      "hand": "left"
    },
    {
      "midi": 63,
      "time": 212.75,
      "duration": 0.25,
      "velocity": 0.71,
      "hand": "right"
    },
    {
      "midi": 66,
      "time": 213,
      "duration": 0.25,
      "velocity": 0.71,
      "hand": "right"
    },
    {
      "midi": 70,
      "time": 213.25,
      "duration": 0.25,
      "velocity": 0.71,
      "hand": "right"
    },
    {
      "midi": 66,
      "time": 213.5,
      "duration": 0.25,
      "velocity": 0.71,
      "hand": "right"
    },
    {
      "midi": 63,
      "time": 213.75,
      "duration": 0.25,
      "velocity": 0.71,
      "hand": "right"
    },
    {
      "midi": 60,
      "time": 214,
      "duration": 1.5,
      "velocity": 0.71,
      "hand": "right"
    },
    {
      "midi": 78,
      "time": 214,
      "duration": 1,
      "velocity": 0.71,
      "hand": "right"
    },
    {
      "midi": 63,
      "time": 214.25,
      "duration": 0.25,
      "velocity": 0.71,
      "hand": "right"
    },
    {
      "midi": 66,
      "time": 214.5,
      "duration": 0.25,
      "velocity": 0.71,
      "hand": "right"
    },
    {
      "midi": 70,
      "time": 214.75,
      "duration": 0.25,
      "velocity": 0.71,
      "hand": "right"
    },
    {
      "midi": 72,
      "time": 215,
      "duration": 0.25,
      "velocity": 0.71,
      "hand": "right"
    },
    {
      "midi": 82,
      "time": 215,
      "duration": 0.5,
      "velocity": 0.71,
      "hand": "right"
    },
    {
      "midi": 75,
      "time": 215.25,
      "duration": 0.235,
      "velocity": 0.71,
      "hand": "right"
    },
    {
      "midi": 66,
      "time": 215.5,
      "duration": 4.485,
      "velocity": 0.71,
      "hand": "right"
    },
    {
      "midi": 75,
      "time": 215.5,
      "duration": 0.735,
      "velocity": 0.71,
      "hand": "right"
    },
    {
      "midi": 70,
      "time": 215.75,
      "duration": 0.25,
      "velocity": 0.71,
      "hand": "right"
    },
    {
      "midi": 73,
      "time": 216,
      "duration": 0.25,
      "velocity": 0.71,
      "hand": "right"
    },
    {
      "midi": 75,
      "time": 216.25,
      "duration": 0.25,
      "velocity": 0.71,
      "hand": "right"
    },
    {
      "midi": 78,
      "time": 216.5,
      "duration": 0.25,
      "velocity": 0.71,
      "hand": "right"
    },
    {
      "midi": 82,
      "time": 216.75,
      "duration": 0.25,
      "velocity": 0.71,
      "hand": "right"
    },
    {
      "midi": 70,
      "time": 217.25,
      "duration": 0.25,
      "velocity": 0.71,
      "hand": "right"
    },
    {
      "midi": 73,
      "time": 217.5,
      "duration": 0.25,
      "velocity": 0.71,
      "hand": "right"
    },
    {
      "midi": 75,
      "time": 217.75,
      "duration": 0.25,
      "velocity": 0.71,
      "hand": "right"
    },
    {
      "midi": 78,
      "time": 218,
      "duration": 0.25,
      "velocity": 0.71,
      "hand": "right"
    },
    {
      "midi": 84,
      "time": 218.25,
      "duration": 0.25,
      "velocity": 0.71,
      "hand": "right"
    },
    {
      "midi": 70,
      "time": 218.75,
      "duration": 0.25,
      "velocity": 0.71,
      "hand": "right"
    },
    {
      "midi": 73,
      "time": 219,
      "duration": 0.25,
      "velocity": 0.71,
      "hand": "right"
    },
    {
      "midi": 75,
      "time": 219.25,
      "duration": 0.25,
      "velocity": 0.71,
      "hand": "right"
    },
    {
      "midi": 78,
      "time": 219.5,
      "duration": 0.25,
      "velocity": 0.71,
      "hand": "right"
    },
    {
      "midi": 82,
      "time": 219.75,
      "duration": 0.25,
      "velocity": 0.71,
      "hand": "right"
    },
    {
      "midi": 66,
      "time": 220,
      "duration": 4.5,
      "velocity": 0.71,
      "hand": "right"
    },
    {
      "midi": 69,
      "time": 220.25,
      "duration": 0.25,
      "velocity": 0.71,
      "hand": "right"
    },
    {
      "midi": 73,
      "time": 220.5,
      "duration": 0.25,
      "velocity": 0.71,
      "hand": "right"
    },
    {
      "midi": 75,
      "time": 220.75,
      "duration": 0.25,
      "velocity": 0.71,
      "hand": "right"
    },
    {
      "midi": 78,
      "time": 221,
      "duration": 0.25,
      "velocity": 0.71,
      "hand": "right"
    },
    {
      "midi": 81,
      "time": 221.25,
      "duration": 0.25,
      "velocity": 0.71,
      "hand": "right"
    },
    {
      "midi": 73,
      "time": 221.5,
      "duration": 0.485,
      "velocity": 0.71,
      "hand": "right"
    },
    {
      "midi": 69,
      "time": 221.75,
      "duration": 0.25,
      "velocity": 0.71,
      "hand": "right"
    },
    {
      "midi": 73,
      "time": 222,
      "duration": 0.25,
      "velocity": 0.71,
      "hand": "right"
    },
    {
      "midi": 75,
      "time": 222.25,
      "duration": 0.25,
      "velocity": 0.71,
      "hand": "right"
    },
    {
      "midi": 78,
      "time": 222.5,
      "duration": 0.25,
      "velocity": 0.71,
      "hand": "right"
    },
    {
      "midi": 83,
      "time": 222.75,
      "duration": 0.25,
      "velocity": 0.71,
      "hand": "right"
    },
    {
      "midi": 75,
      "time": 223,
      "duration": 0.735,
      "velocity": 0.71,
      "hand": "right"
    },
    {
      "midi": 69,
      "time": 223.25,
      "duration": 0.25,
      "velocity": 0.71,
      "hand": "right"
    },
    {
      "midi": 73,
      "time": 223.5,
      "duration": 0.25,
      "velocity": 0.71,
      "hand": "right"
    },
    {
      "midi": 75,
      "time": 223.75,
      "duration": 0.25,
      "velocity": 0.71,
      "hand": "right"
    },
    {
      "midi": 78,
      "time": 224,
      "duration": 0.25,
      "velocity": 0.71,
      "hand": "right"
    },
    {
      "midi": 81,
      "time": 224.25,
      "duration": 0.25,
      "velocity": 0.71,
      "hand": "right"
    },
    {
      "midi": 65,
      "time": 224.5,
      "duration": 2.985,
      "velocity": 0.71,
      "hand": "right"
    },
    {
      "midi": 68,
      "time": 224.75,
      "duration": 0.25,
      "velocity": 0.71,
      "hand": "right"
    },
    {
      "midi": 72,
      "time": 225,
      "duration": 0.25,
      "velocity": 0.71,
      "hand": "right"
    },
    {
      "midi": 77,
      "time": 225.25,
      "duration": 0.25,
      "velocity": 0.71,
      "hand": "right"
    },
    {
      "midi": 80,
      "time": 225.5,
      "duration": 0.25,
      "velocity": 0.71,
      "hand": "right"
    },
    {
      "midi": 84,
      "time": 225.75,
      "duration": 0.25,
      "velocity": 0.71,
      "hand": "right"
    },
    {
      "midi": 77,
      "time": 226,
      "duration": 1.485,
      "velocity": 0.71,
      "hand": "right"
    },
    {
      "midi": 80,
      "time": 226,
      "duration": 1.5,
      "velocity": 0.71,
      "hand": "right"
    },
    {
      "midi": 65,
      "time": 227.5,
      "duration": 1.485,
      "velocity": 0.71,
      "hand": "right"
    },
    {
      "midi": 77,
      "time": 227.5,
      "duration": 2,
      "velocity": 0.71,
      "hand": "right"
    },
    {
      "midi": 65,
      "time": 229,
      "duration": 2.985,
      "velocity": 0.71,
      "hand": "right"
    },
    {
      "midi": 69,
      "time": 229.25,
      "duration": 0.25,
      "velocity": 0.71,
      "hand": "right"
    },
    {
      "midi": 72,
      "time": 229.5,
      "duration": 0.25,
      "velocity": 0.71,
      "hand": "right"
    },
    {
      "midi": 75,
      "time": 229.5,
      "duration": 0.235,
      "velocity": 0.71,
      "hand": "right"
    },
    {
      "midi": 84,
      "time": 229.5,
      "duration": 0.5,
      "velocity": 0.71,
      "hand": "right"
    },
    {
      "midi": 75,
      "time": 229.75,
      "duration": 0.25,
      "velocity": 0.71,
      "hand": "right"
    },
    {
      "midi": 73,
      "time": 230,
      "duration": 0.5,
      "velocity": 0.71,
      "hand": "right"
    },
    {
      "midi": 77,
      "time": 230,
      "duration": 0.5,
      "velocity": 0.71,
      "hand": "right"
    },
    {
      "midi": 81,
      "time": 230.25,
      "duration": 0.25,
      "velocity": 0.71,
      "hand": "right"
    },
    {
      "midi": 75,
      "time": 230.5,
      "duration": 3.5,
      "velocity": 0.71,
      "hand": "right"
    },
    {
      "midi": 84,
      "time": 230.5,
      "duration": 3.5,
      "velocity": 0.71,
      "hand": "right"
    },
    {
      "midi": 65,
      "time": 232,
      "duration": 1.485,
      "velocity": 0.71,
      "hand": "right"
    },
    {
      "midi": 65,
      "time": 233.5,
      "duration": 2.985,
      "velocity": 0.71,
      "hand": "right"
    },
    {
      "midi": 68,
      "time": 233.75,
      "duration": 0.25,
      "velocity": 0.71,
      "hand": "right"
    },
    {
      "midi": 70,
      "time": 234,
      "duration": 0.25,
      "velocity": 0.71,
      "hand": "right"
    },
    {
      "midi": 73,
      "time": 234,
      "duration": 0.235,
      "velocity": 0.71,
      "hand": "right"
    },
    {
      "midi": 82,
      "time": 234,
      "duration": 0.5,
      "velocity": 0.71,
      "hand": "right"
    },
    {
      "midi": 73,
      "time": 234.25,
      "duration": 0.25,
      "velocity": 0.71,
      "hand": "right"
    },
    {
      "midi": 75,
      "time": 234.5,
      "duration": 0.5,
      "velocity": 0.71,
      "hand": "right"
    },
    {
      "midi": 77,
      "time": 234.5,
      "duration": 0.25,
      "velocity": 0.71,
      "hand": "right"
    },
    {
      "midi": 84,
      "time": 234.5,
      "duration": 0.5,
      "velocity": 0.71,
      "hand": "right"
    },
    {
      "midi": 80,
      "time": 234.75,
      "duration": 0.25,
      "velocity": 0.71,
      "hand": "right"
    },
    {
      "midi": 73,
      "time": 235,
      "duration": 0.735,
      "velocity": 0.71,
      "hand": "right"
    },
    {
      "midi": 82,
      "time": 235,
      "duration": 3.5,
      "velocity": 0.71,
      "hand": "right"
    },
    {
      "midi": 73,
      "time": 235.75,
      "duration": 1.485,
      "velocity": 0.71,
      "hand": "right"
    },
    {
      "midi": 77,
      "time": 235.75,
      "duration": 1.5,
      "velocity": 0.71,
      "hand": "right"
    },
    {
      "midi": 65,
      "time": 236.5,
      "duration": 1.5,
      "velocity": 0.71,
      "hand": "right"
    },
    {
      "midi": 73,
      "time": 237.25,
      "duration": 1.25,
      "velocity": 0.71,
      "hand": "right"
    },
    {
      "midi": 63,
      "time": 238,
      "duration": 2.985,
      "velocity": 0.71,
      "hand": "right"
    },
    {
      "midi": 66,
      "time": 238.25,
      "duration": 0.25,
      "velocity": 0.71,
      "hand": "right"
    },
    {
      "midi": 68,
      "time": 238.5,
      "duration": 0.25,
      "velocity": 0.71,
      "hand": "right"
    },
    {
      "midi": 80,
      "time": 238.5,
      "duration": 0.5,
      "velocity": 0.71,
      "hand": "right"
    },
    {
      "midi": 84,
      "time": 238.5,
      "duration": 0.5,
      "velocity": 0.71,
      "hand": "right"
    },
    {
      "midi": 72,
      "time": 238.75,
      "duration": 0.25,
      "velocity": 0.71,
      "hand": "right"
    },
    {
      "midi": 73,
      "time": 239,
      "duration": 0.5,
      "velocity": 0.71,
      "hand": "right"
    },
    {
      "midi": 75,
      "time": 239,
      "duration": 0.25,
      "velocity": 0.71,
      "hand": "right"
    },
    {
      "midi": 82,
      "time": 239,
      "duration": 0.5,
      "velocity": 0.71,
      "hand": "right"
    },
    {
      "midi": 78,
      "time": 239.25,
      "duration": 0.25,
      "velocity": 0.71,
      "hand": "right"
    },
    {
      "midi": 80,
      "time": 239.5,
      "duration": 3,
      "velocity": 0.71,
      "hand": "right"
    },
    {
      "midi": 84,
      "time": 239.5,
      "duration": 3,
      "velocity": 0.71,
      "hand": "right"
    },
    {
      "midi": 63,
      "time": 241,
      "duration": 1.5,
      "velocity": 0.71,
      "hand": "right"
    },
    {
      "midi": 61,
      "time": 242.5,
      "duration": 3,
      "velocity": 0.71,
      "hand": "right"
    },
    {
      "midi": 63,
      "time": 242.75,
      "duration": 0.25,
      "velocity": 0.71,
      "hand": "right"
    },
    {
      "midi": 66,
      "time": 243,
      "duration": 0.25,
      "velocity": 0.71,
      "hand": "right"
    },
    {
      "midi": 78,
      "time": 243,
      "duration": 0.5,
      "velocity": 0.71,
      "hand": "right"
    },
    {
      "midi": 82,
      "time": 243,
      "duration": 0.5,
      "velocity": 0.71,
      "hand": "right"
    },
    {
      "midi": 70,
      "time": 243.25,
      "duration": 0.25,
      "velocity": 0.71,
      "hand": "right"
    },
    {
      "midi": 73,
      "time": 243.5,
      "duration": 0.25,
      "velocity": 0.71,
      "hand": "right"
    },
    {
      "midi": 80,
      "time": 243.5,
      "duration": 0.5,
      "velocity": 0.71,
      "hand": "right"
    },
    {
      "midi": 84,
      "time": 243.5,
      "duration": 0.5,
      "velocity": 0.71,
      "hand": "right"
    },
    {
      "midi": 75,
      "time": 243.75,
      "duration": 0.25,
      "velocity": 0.71,
      "hand": "right"
    },
    {
      "midi": 78,
      "time": 244,
      "duration": 1.5,
      "velocity": 0.71,
      "hand": "right"
    },
    {
      "midi": 82,
      "time": 244,
      "duration": 0.5,
      "velocity": 0.71,
      "hand": "right"
    },
    {
      "midi": 75,
      "time": 244.5,
      "duration": 0.5,
      "velocity": 0.71,
      "hand": "right"
    },
    {
      "midi": 82,
      "time": 245,
      "duration": 0.5,
      "velocity": 0.71,
      "hand": "right"
    },
    {
      "midi": 68,
      "time": 245.5,
      "duration": 1.5,
      "velocity": 0.71,
      "hand": "right"
    },
    {
      "midi": 72,
      "time": 245.5,
      "duration": 1.5,
      "velocity": 0.71,
      "hand": "right"
    },
    {
      "midi": 77,
      "time": 245.5,
      "duration": 2,
      "velocity": 0.71,
      "hand": "right"
    },
    {
      "midi": 80,
      "time": 245.5,
      "duration": 0.5,
      "velocity": 0.71,
      "hand": "right"
    },
    {
      "midi": 82,
      "time": 246,
      "duration": 0.5,
      "velocity": 0.71,
      "hand": "right"
    },
    {
      "midi": 80,
      "time": 246.5,
      "duration": 1,
      "velocity": 0.71,
      "hand": "right"
    },
    {
      "midi": 48,
      "time": 247,
      "duration": 3,
      "velocity": 0.71,
      "hand": "left"
    },
    {
      "midi": 54,
      "time": 247.25,
      "duration": 0.25,
      "velocity": 0.71,
      "hand": "left"
    },
    {
      "midi": 58,
      "time": 247.5,
      "duration": 0.25,
      "velocity": 0.71,
      "hand": "left"
    },
    {
      "midi": 75,
      "time": 247.5,
      "duration": 0.5,
      "velocity": 0.71,
      "hand": "right"
    },
    {
      "midi": 78,
      "time": 247.5,
      "duration": 0.5,
      "velocity": 0.71,
      "hand": "right"
    },
    {
      "midi": 60,
      "time": 247.75,
      "duration": 0.25,
      "velocity": 0.71,
      "hand": "right"
    },
    {
      "midi": 63,
      "time": 248,
      "duration": 0.25,
      "velocity": 0.71,
      "hand": "right"
    },
    {
      "midi": 77,
      "time": 248,
      "duration": 0.5,
      "velocity": 0.71,
      "hand": "right"
    },
    {
      "midi": 80,
      "time": 248,
      "duration": 0.5,
      "velocity": 0.71,
      "hand": "right"
    },
    {
      "midi": 66,
      "time": 248.25,
      "duration": 0.25,
      "velocity": 0.71,
      "hand": "right"
    },
    {
      "midi": 70,
      "time": 248.5,
      "duration": 1.5,
      "velocity": 0.71,
      "hand": "right"
    },
    {
      "midi": 75,
      "time": 248.5,
      "duration": 1.5,
      "velocity": 0.71,
      "hand": "right"
    },
    {
      "midi": 78,
      "time": 248.5,
      "duration": 1.5,
      "velocity": 0.71,
      "hand": "right"
    },
    {
      "midi": 53,
      "time": 250,
      "duration": 1.5,
      "velocity": 0.71,
      "hand": "left"
    },
    {
      "midi": 60,
      "time": 250,
      "duration": 1.5,
      "velocity": 0.71,
      "hand": "right"
    },
    {
      "midi": 63,
      "time": 250,
      "duration": 1.5,
      "velocity": 0.71,
      "hand": "right"
    },
    {
      "midi": 69,
      "time": 250,
      "duration": 1.5,
      "velocity": 0.71,
      "hand": "right"
    },
    {
      "midi": 77,
      "time": 250,
      "duration": 1.985,
      "velocity": 0.71,
      "hand": "right"
    },
    {
      "midi": 56,
      "time": 251.5,
      "duration": 3,
      "velocity": 0.71,
      "hand": "left"
    },
    {
      "midi": 58,
      "time": 251.75,
      "duration": 0.25,
      "velocity": 0.71,
      "hand": "left"
    },
    {
      "midi": 61,
      "time": 252,
      "duration": 0.25,
      "velocity": 0.71,
      "hand": "right"
    },
    {
      "midi": 73,
      "time": 252,
      "duration": 0.5,
      "velocity": 0.71,
      "hand": "right"
    },
    {
      "midi": 77,
      "time": 252,
      "duration": 0.5,
      "velocity": 0.71,
      "hand": "right"
    },
    {
      "midi": 65,
      "time": 252.25,
      "duration": 0.25,
      "velocity": 0.71,
      "hand": "right"
    },
    {
      "midi": 68,
      "time": 252.5,
      "duration": 0.25,
      "velocity": 0.71,
      "hand": "right"
    },
    {
      "midi": 75,
      "time": 252.5,
      "duration": 0.5,
      "velocity": 0.71,
      "hand": "right"
    },
    {
      "midi": 78,
      "time": 252.5,
      "duration": 0.5,
      "velocity": 0.71,
      "hand": "right"
    },
    {
      "midi": 70,
      "time": 252.75,
      "duration": 0.25,
      "velocity": 0.71,
      "hand": "right"
    },
    {
      "midi": 73,
      "time": 253,
      "duration": 1.485,
      "velocity": 0.71,
      "hand": "right"
    },
    {
      "midi": 77,
      "time": 253,
      "duration": 0.5,
      "velocity": 0.71,
      "hand": "right"
    },
    {
      "midi": 82,
      "time": 253.5,
      "duration": 0.5,
      "velocity": 0.71,
      "hand": "right"
    },
    {
      "midi": 77,
      "time": 254,
      "duration": 0.5,
      "velocity": 0.71,
      "hand": "right"
    },
    {
      "midi": 54,
      "time": 254.5,
      "duration": 1.5,
      "velocity": 0.71,
      "hand": "left"
    },
    {
      "midi": 58,
      "time": 254.5,
      "duration": 1.5,
      "velocity": 0.71,
      "hand": "left"
    },
    {
      "midi": 61,
      "time": 254.5,
      "duration": 1.5,
      "velocity": 0.71,
      "hand": "right"
    },
    {
      "midi": 63,
      "time": 254.5,
      "duration": 1.5,
      "velocity": 0.71,
      "hand": "right"
    },
    {
      "midi": 73,
      "time": 254.5,
      "duration": 1.5,
      "velocity": 0.71,
      "hand": "right"
    },
    {
      "midi": 75,
      "time": 254.5,
      "duration": 0.5,
      "velocity": 0.71,
      "hand": "right"
    },
    {
      "midi": 77,
      "time": 255,
      "duration": 0.5,
      "velocity": 0.71,
      "hand": "right"
    },
    {
      "midi": 75,
      "time": 255.5,
      "duration": 1,
      "velocity": 0.71,
      "hand": "right"
    },
    {
      "midi": 53,
      "time": 256,
      "duration": 3,
      "velocity": 0.71,
      "hand": "left"
    },
    {
      "midi": 56,
      "time": 256.25,
      "duration": 0.25,
      "velocity": 0.71,
      "hand": "left"
    },
    {
      "midi": 58,
      "time": 256.5,
      "duration": 0.25,
      "velocity": 0.71,
      "hand": "left"
    },
    {
      "midi": 70,
      "time": 256.5,
      "duration": 0.5,
      "velocity": 0.71,
      "hand": "right"
    },
    {
      "midi": 73,
      "time": 256.5,
      "duration": 0.5,
      "velocity": 0.71,
      "hand": "right"
    },
    {
      "midi": 61,
      "time": 256.75,
      "duration": 0.25,
      "velocity": 0.71,
      "hand": "right"
    },
    {
      "midi": 65,
      "time": 257,
      "duration": 0.25,
      "velocity": 0.71,
      "hand": "right"
    },
    {
      "midi": 72,
      "time": 257,
      "duration": 0.5,
      "velocity": 0.71,
      "hand": "right"
    },
    {
      "midi": 75,
      "time": 257,
      "duration": 0.5,
      "velocity": 0.71,
      "hand": "right"
    },
    {
      "midi": 68,
      "time": 257.25,
      "duration": 0.25,
      "velocity": 0.71,
      "hand": "right"
    },
    {
      "midi": 70,
      "time": 257.5,
      "duration": 1.5,
      "velocity": 0.71,
      "hand": "right"
    },
    {
      "midi": 73,
      "time": 257.5,
      "duration": 1.5,
      "velocity": 0.71,
      "hand": "right"
    },
    {
      "midi": 51,
      "time": 259,
      "duration": 0.75,
      "velocity": 0.71,
      "hand": "left"
    },
    {
      "midi": 54,
      "time": 259,
      "duration": 1.5,
      "velocity": 0.71,
      "hand": "left"
    },
    {
      "midi": 60,
      "time": 259,
      "duration": 1.5,
      "velocity": 0.71,
      "hand": "right"
    },
    {
      "midi": 68,
      "time": 259,
      "duration": 1.5,
      "velocity": 0.71,
      "hand": "right"
    },
    {
      "midi": 72,
      "time": 259,
      "duration": 1.5,
      "velocity": 0.71,
      "hand": "right"
    },
    {
      "midi": 44,
      "time": 259.75,
      "duration": 0.735,
      "velocity": 0.71,
      "hand": "left"
    },
    {
      "midi": 37,
      "time": 260.5,
      "duration": 0.5,
      "velocity": 0.71,
      "hand": "left"
    },
    {
      "midi": 44,
      "time": 260.5,
      "duration": 0.5,
      "velocity": 0.71,
      "hand": "left"
    },
    {
      "midi": 53,
      "time": 261,
      "duration": 1,
      "velocity": 0.71,
      "hand": "left"
    },
    {
      "midi": 56,
      "time": 261,
      "duration": 1,
      "velocity": 0.71,
      "hand": "left"
    },
    {
      "midi": 65,
      "time": 261.5,
      "duration": 3.5,
      "velocity": 0.71,
      "hand": "right"
    },
    {
      "midi": 68,
      "time": 261.5,
      "duration": 3.5,
      "velocity": 0.71,
      "hand": "right"
    },
    {
      "midi": 59,
      "time": 262,
      "duration": 3,
      "velocity": 0.71,
      "hand": "left"
    },
    {
      "midi": 77,
      "time": 262,
      "duration": 1.485,
      "velocity": 0.71,
      "hand": "right"
    },
    {
      "midi": 80,
      "time": 262,
      "duration": 1.5,
      "velocity": 0.71,
      "hand": "right"
    },
    {
      "midi": 73,
      "time": 263.5,
      "duration": 2,
      "velocity": 0.71,
      "hand": "right"
    },
    {
      "midi": 77,
      "time": 263.5,
      "duration": 2,
      "velocity": 0.71,
      "hand": "right"
    },
    {
      "midi": 42,
      "time": 265,
      "duration": 3,
      "velocity": 0.71,
      "hand": "left"
    },
    {
      "midi": 49,
      "time": 265,
      "duration": 4.5,
      "velocity": 0.71,
      "hand": "left"
    },
    {
      "midi": 54,
      "time": 265.5,
      "duration": 4,
      "velocity": 0.71,
      "hand": "left"
    },
    {
      "midi": 58,
      "time": 265.5,
      "duration": 4,
      "velocity": 0.71,
      "hand": "left"
    },
    {
      "midi": 61,
      "time": 265.5,
      "duration": 4,
      "velocity": 0.71,
      "hand": "right"
    },
    {
      "midi": 66,
      "time": 265.5,
      "duration": 4,
      "velocity": 0.71,
      "hand": "right"
    },
    {
      "midi": 70,
      "time": 265.5,
      "duration": 4,
      "velocity": 0.71,
      "hand": "right"
    },
    {
      "midi": 75,
      "time": 265.5,
      "duration": 0.5,
      "velocity": 0.71,
      "hand": "right"
    },
    {
      "midi": 77,
      "time": 266,
      "duration": 0.5,
      "velocity": 0.71,
      "hand": "right"
    },
    {
      "midi": 75,
      "time": 266.5,
      "duration": 3.5,
      "velocity": 0.71,
      "hand": "right"
    },
    {
      "midi": 44,
      "time": 269.5,
      "duration": 3,
      "velocity": 0.71,
      "hand": "left"
    },
    {
      "midi": 53,
      "time": 270,
      "duration": 1,
      "velocity": 0.71,
      "hand": "left"
    },
    {
      "midi": 56,
      "time": 270,
      "duration": 1,
      "velocity": 0.71,
      "hand": "left"
    },
    {
      "midi": 61,
      "time": 270,
      "duration": 0.5,
      "velocity": 0.71,
      "hand": "right"
    },
    {
      "midi": 68,
      "time": 270,
      "duration": 0.985,
      "velocity": 0.71,
      "hand": "right"
    },
    {
      "midi": 73,
      "time": 270,
      "duration": 0.5,
      "velocity": 0.71,
      "hand": "right"
    },
    {
      "midi": 63,
      "time": 270.5,
      "duration": 0.5,
      "velocity": 0.71,
      "hand": "right"
    },
    {
      "midi": 75,
      "time": 270.5,
      "duration": 0.5,
      "velocity": 0.71,
      "hand": "right"
    },
    {
      "midi": 59,
      "time": 271,
      "duration": 3,
      "velocity": 0.71,
      "hand": "left"
    },
    {
      "midi": 65,
      "time": 271,
      "duration": 1.485,
      "velocity": 0.71,
      "hand": "right"
    },
    {
      "midi": 68,
      "time": 271,
      "duration": 1.5,
      "velocity": 0.71,
      "hand": "right"
    },
    {
      "midi": 77,
      "time": 271,
      "duration": 1.485,
      "velocity": 0.71,
      "hand": "right"
    },
    {
      "midi": 80,
      "time": 271,
      "duration": 1.5,
      "velocity": 0.71,
      "hand": "right"
    },
    {
      "midi": 61,
      "time": 272.5,
      "duration": 1.5,
      "velocity": 0.71,
      "hand": "right"
    },
    {
      "midi": 65,
      "time": 272.5,
      "duration": 1.5,
      "velocity": 0.71,
      "hand": "right"
    },
    {
      "midi": 73,
      "time": 272.5,
      "duration": 1.5,
      "velocity": 0.71,
      "hand": "right"
    },
    {
      "midi": 77,
      "time": 272.5,
      "duration": 2,
      "velocity": 0.71,
      "hand": "right"
    },
    {
      "midi": 46,
      "time": 274,
      "duration": 3,
      "velocity": 0.71,
      "hand": "left"
    },
    {
      "midi": 53,
      "time": 274.5,
      "duration": 4,
      "velocity": 0.71,
      "hand": "left"
    },
    {
      "midi": 58,
      "time": 274.5,
      "duration": 4,
      "velocity": 0.71,
      "hand": "left"
    },
    {
      "midi": 63,
      "time": 274.5,
      "duration": 2.5,
      "velocity": 0.71,
      "hand": "right"
    },
    {
      "midi": 65,
      "time": 274.5,
      "duration": 4,
      "velocity": 0.71,
      "hand": "right"
    },
    {
      "midi": 70,
      "time": 274.5,
      "duration": 4,
      "velocity": 0.71,
      "hand": "right"
    },
    {
      "midi": 75,
      "time": 274.5,
      "duration": 0.5,
      "velocity": 0.71,
      "hand": "right"
    },
    {
      "midi": 77,
      "time": 275,
      "duration": 0.5,
      "velocity": 0.71,
      "hand": "right"
    },
    {
      "midi": 75,
      "time": 275.5,
      "duration": 1.5,
      "velocity": 0.71,
      "hand": "right"
    },
    {
      "midi": 61,
      "time": 277,
      "duration": 1.5,
      "velocity": 0.71,
      "hand": "right"
    },
    {
      "midi": 73,
      "time": 277,
      "duration": 1.5,
      "velocity": 0.71,
      "hand": "right"
    },
    {
      "midi": 41,
      "time": 278.5,
      "duration": 4.5,
      "velocity": 0.71,
      "hand": "left"
    },
    {
      "midi": 56,
      "time": 279,
      "duration": 1,
      "velocity": 0.71,
      "hand": "left"
    },
    {
      "midi": 61,
      "time": 279,
      "duration": 0.5,
      "velocity": 0.71,
      "hand": "right"
    },
    {
      "midi": 63,
      "time": 279.5,
      "duration": 0.5,
      "velocity": 0.71,
      "hand": "right"
    },
    {
      "midi": 61,
      "time": 280,
      "duration": 1.485,
      "velocity": 0.71,
      "hand": "right"
    },
    {
      "midi": 65,
      "time": 280,
      "duration": 1.485,
      "velocity": 0.71,
      "hand": "right"
    },
    {
      "midi": 70,
      "time": 280,
      "duration": 1.5,
      "velocity": 0.71,
      "hand": "right"
    },
    {
      "midi": 56,
      "time": 281.5,
      "duration": 1.5,
      "velocity": 0.71,
      "hand": "left"
    },
    {
      "midi": 61,
      "time": 281.5,
      "duration": 1.5,
      "velocity": 0.71,
      "hand": "right"
    },
    {
      "midi": 65,
      "time": 281.5,
      "duration": 1.5,
      "velocity": 0.71,
      "hand": "right"
    },
    {
      "midi": 39,
      "time": 283,
      "duration": 1.5,
      "velocity": 0.71,
      "hand": "left"
    },
    {
      "midi": 58,
      "time": 283.5,
      "duration": 1,
      "velocity": 0.71,
      "hand": "left"
    },
    {
      "midi": 61,
      "time": 283.5,
      "duration": 1,
      "velocity": 0.71,
      "hand": "right"
    },
    {
      "midi": 66,
      "time": 283.5,
      "duration": 0.5,
      "velocity": 0.71,
      "hand": "right"
    },
    {
      "midi": 68,
      "time": 284,
      "duration": 0.5,
      "velocity": 0.71,
      "hand": "right"
    },
    {
      "midi": 51,
      "time": 284.5,
      "duration": 1.5,
      "velocity": 0.71,
      "hand": "left"
    },
    {
      "midi": 66,
      "time": 284.5,
      "duration": 1.485,
      "velocity": 0.71,
      "hand": "right"
    },
    {
      "midi": 70,
      "time": 284.5,
      "duration": 1.485,
      "velocity": 0.71,
      "hand": "right"
    },
    {
      "midi": 73,
      "time": 284.5,
      "duration": 1.5,
      "velocity": 0.71,
      "hand": "right"
    },
    {
      "midi": 61,
      "time": 286,
      "duration": 1.5,
      "velocity": 0.71,
      "hand": "right"
    },
    {
      "midi": 63,
      "time": 286,
      "duration": 1.5,
      "velocity": 0.71,
      "hand": "right"
    },
    {
      "midi": 66,
      "time": 286,
      "duration": 1.5,
      "velocity": 0.71,
      "hand": "right"
    },
    {
      "midi": 70,
      "time": 286,
      "duration": 1.5,
      "velocity": 0.71,
      "hand": "right"
    },
    {
      "midi": 44,
      "time": 287.5,
      "duration": 3,
      "velocity": 0.71,
      "hand": "left"
    },
    {
      "midi": 60,
      "time": 288,
      "duration": 1,
      "velocity": 0.71,
      "hand": "right"
    },
    {
      "midi": 66,
      "time": 288,
      "duration": 1,
      "velocity": 0.71,
      "hand": "right"
    },
    {
      "midi": 70,
      "time": 288,
      "duration": 0.5,
      "velocity": 0.71,
      "hand": "right"
    },
    {
      "midi": 51,
      "time": 288.25,
      "duration": 0.75,
      "velocity": 0.71,
      "hand": "left"
    },
    {
      "midi": 72,
      "time": 288.5,
      "duration": 0.485,
      "velocity": 0.71,
      "hand": "right"
    },
    {
      "midi": 68,
      "time": 289,
      "duration": 1.485,
      "velocity": 0.71,
      "hand": "right"
    },
    {
      "midi": 72,
      "time": 289,
      "duration": 1.5,
      "velocity": 0.71,
      "hand": "right"
    },
    {
      "midi": 77,
      "time": 289,
      "duration": 1.5,
      "velocity": 0.71,
      "hand": "right"
    },
    {
      "midi": 80,
      "time": 289,
      "duration": 1.5,
      "velocity": 0.71,
      "hand": "right"
    },
    {
      "midi": 56,
      "time": 290.5,
      "duration": 1.5,
      "velocity": 0.71,
      "hand": "left"
    },
    {
      "midi": 60,
      "time": 290.5,
      "duration": 1.5,
      "velocity": 0.71,
      "hand": "right"
    },
    {
      "midi": 66,
      "time": 290.5,
      "duration": 1.5,
      "velocity": 0.71,
      "hand": "right"
    },
    {
      "midi": 68,
      "time": 290.5,
      "duration": 1.5,
      "velocity": 0.71,
      "hand": "right"
    },
    {
      "midi": 37,
      "time": 292,
      "duration": 1.5,
      "velocity": 0.71,
      "hand": "left"
    },
    {
      "midi": 44,
      "time": 292.25,
      "duration": 0.25,
      "velocity": 0.71,
      "hand": "left"
    },
    {
      "midi": 49,
      "time": 292.5,
      "duration": 0.25,
      "velocity": 0.71,
      "hand": "left"
    },
    {
      "midi": 53,
      "time": 292.75,
      "duration": 0.25,
      "velocity": 0.71,
      "hand": "left"
    },
    {
      "midi": 56,
      "time": 293,
      "duration": 0.25,
      "velocity": 0.71,
      "hand": "left"
    },
    {
      "midi": 61,
      "time": 293.25,
      "duration": 0.25,
      "velocity": 0.71,
      "hand": "right"
    },
    {
      "midi": 41,
      "time": 293.5,
      "duration": 1.5,
      "velocity": 0.71,
      "hand": "left"
    },
    {
      "midi": 48,
      "time": 293.75,
      "duration": 0.25,
      "velocity": 0.71,
      "hand": "left"
    },
    {
      "midi": 53,
      "time": 294,
      "duration": 0.25,
      "velocity": 0.71,
      "hand": "left"
    },
    {
      "midi": 56,
      "time": 294.25,
      "duration": 0.25,
      "velocity": 0.71,
      "hand": "left"
    },
    {
      "midi": 60,
      "time": 294.5,
      "duration": 0.25,
      "velocity": 0.71,
      "hand": "right"
    },
    {
      "midi": 65,
      "time": 294.75,
      "duration": 0.25,
      "velocity": 0.71,
      "hand": "right"
    },
    {
      "midi": 37,
      "time": 295,
      "duration": 1.5,
      "velocity": 0.71,
      "hand": "left"
    },
    {
      "midi": 44,
      "time": 295.25,
      "duration": 0.25,
      "velocity": 0.71,
      "hand": "left"
    },
    {
      "midi": 49,
      "time": 295.5,
      "duration": 0.25,
      "velocity": 0.71,
      "hand": "left"
    },
    {
      "midi": 53,
      "time": 295.75,
      "duration": 0.25,
      "velocity": 0.71,
      "hand": "left"
    },
    {
      "midi": 56,
      "time": 296,
      "duration": 0.25,
      "velocity": 0.71,
      "hand": "left"
    },
    {
      "midi": 61,
      "time": 296.25,
      "duration": 0.25,
      "velocity": 0.71,
      "hand": "right"
    },
    {
      "midi": 41,
      "time": 296.5,
      "duration": 1.5,
      "velocity": 0.71,
      "hand": "left"
    },
    {
      "midi": 48,
      "time": 296.75,
      "duration": 0.25,
      "velocity": 0.71,
      "hand": "left"
    },
    {
      "midi": 53,
      "time": 297,
      "duration": 0.25,
      "velocity": 0.71,
      "hand": "left"
    },
    {
      "midi": 56,
      "time": 297.25,
      "duration": 0.25,
      "velocity": 0.71,
      "hand": "left"
    },
    {
      "midi": 60,
      "time": 297.5,
      "duration": 0.25,
      "velocity": 0.71,
      "hand": "right"
    },
    {
      "midi": 65,
      "time": 297.75,
      "duration": 0.25,
      "velocity": 0.71,
      "hand": "right"
    },
    {
      "midi": 44,
      "time": 298,
      "duration": 3,
      "velocity": 0.71,
      "hand": "left"
    },
    {
      "midi": 68,
      "time": 298,
      "duration": 1.485,
      "velocity": 0.71,
      "hand": "right"
    },
    {
      "midi": 71,
      "time": 298,
      "duration": 1.5,
      "velocity": 0.71,
      "hand": "right"
    },
    {
      "midi": 52,
      "time": 298.25,
      "duration": 0.25,
      "velocity": 0.71,
      "hand": "left"
    },
    {
      "midi": 56,
      "time": 298.5,
      "duration": 0.25,
      "velocity": 0.71,
      "hand": "left"
    },
    {
      "midi": 59,
      "time": 298.75,
      "duration": 0.25,
      "velocity": 0.71,
      "hand": "left"
    },
    {
      "midi": 64,
      "time": 299,
      "duration": 0.25,
      "velocity": 0.71,
      "hand": "right"
    },
    {
      "midi": 66,
      "time": 299.25,
      "duration": 0.25,
      "velocity": 0.71,
      "hand": "right"
    },
    {
      "midi": 64,
      "time": 299.5,
      "duration": 1.5,
      "velocity": 0.71,
      "hand": "right"
    },
    {
      "midi": 68,
      "time": 299.5,
      "duration": 1.5,
      "velocity": 0.71,
      "hand": "right"
    },
    {
      "midi": 73,
      "time": 299.5,
      "duration": 1.5,
      "velocity": 0.71,
      "hand": "right"
    },
    {
      "midi": 49,
      "time": 301,
      "duration": 1.5,
      "velocity": 0.71,
      "hand": "left"
    },
    {
      "midi": 56,
      "time": 301.25,
      "duration": 0.25,
      "velocity": 0.71,
      "hand": "left"
    },
    {
      "midi": 61,
      "time": 301.5,
      "duration": 0.25,
      "velocity": 0.71,
      "hand": "right"
    },
    {
      "midi": 65,
      "time": 301.75,
      "duration": 0.25,
      "velocity": 0.71,
      "hand": "right"
    },
    {
      "midi": 68,
      "time": 302,
      "duration": 0.25,
      "velocity": 0.71,
      "hand": "right"
    },
    {
      "midi": 73,
      "time": 302.25,
      "duration": 0.25,
      "velocity": 0.71,
      "hand": "right"
    },
    {
      "midi": 53,
      "time": 302.5,
      "duration": 1.5,
      "velocity": 0.71,
      "hand": "left"
    },
    {
      "midi": 60,
      "time": 302.75,
      "duration": 0.25,
      "velocity": 0.71,
      "hand": "right"
    },
    {
      "midi": 65,
      "time": 303,
      "duration": 0.25,
      "velocity": 0.71,
      "hand": "right"
    },
    {
      "midi": 68,
      "time": 303.25,
      "duration": 0.25,
      "velocity": 0.71,
      "hand": "right"
    },
    {
      "midi": 72,
      "time": 303.5,
      "duration": 0.25,
      "velocity": 0.71,
      "hand": "right"
    },
    {
      "midi": 77,
      "time": 303.75,
      "duration": 0.25,
      "velocity": 0.71,
      "hand": "right"
    },
    {
      "midi": 49,
      "time": 304,
      "duration": 1.5,
      "velocity": 0.71,
      "hand": "left"
    },
    {
      "midi": 56,
      "time": 304.25,
      "duration": 0.25,
      "velocity": 0.71,
      "hand": "left"
    },
    {
      "midi": 61,
      "time": 304.5,
      "duration": 0.25,
      "velocity": 0.71,
      "hand": "right"
    },
    {
      "midi": 65,
      "time": 304.75,
      "duration": 0.25,
      "velocity": 0.71,
      "hand": "right"
    },
    {
      "midi": 68,
      "time": 305,
      "duration": 0.25,
      "velocity": 0.71,
      "hand": "right"
    },
    {
      "midi": 73,
      "time": 305.25,
      "duration": 0.25,
      "velocity": 0.71,
      "hand": "right"
    },
    {
      "midi": 53,
      "time": 305.5,
      "duration": 1.5,
      "velocity": 0.71,
      "hand": "left"
    },
    {
      "midi": 60,
      "time": 305.75,
      "duration": 0.25,
      "velocity": 0.71,
      "hand": "right"
    },
    {
      "midi": 65,
      "time": 306,
      "duration": 0.25,
      "velocity": 0.71,
      "hand": "right"
    },
    {
      "midi": 68,
      "time": 306.25,
      "duration": 0.25,
      "velocity": 0.71,
      "hand": "right"
    },
    {
      "midi": 72,
      "time": 306.5,
      "duration": 0.25,
      "velocity": 0.71,
      "hand": "right"
    },
    {
      "midi": 77,
      "time": 306.75,
      "duration": 0.25,
      "velocity": 0.71,
      "hand": "right"
    },
    {
      "midi": 56,
      "time": 307,
      "duration": 2.985,
      "velocity": 0.71,
      "hand": "left"
    },
    {
      "midi": 80,
      "time": 307,
      "duration": 2.985,
      "velocity": 0.71,
      "hand": "right"
    },
    {
      "midi": 83,
      "time": 307,
      "duration": 1.5,
      "velocity": 0.71,
      "hand": "right"
    },
    {
      "midi": 59,
      "time": 307.25,
      "duration": 0.25,
      "velocity": 0.71,
      "hand": "left"
    },
    {
      "midi": 64,
      "time": 307.5,
      "duration": 0.25,
      "velocity": 0.71,
      "hand": "right"
    },
    {
      "midi": 68,
      "time": 307.75,
      "duration": 0.25,
      "velocity": 0.71,
      "hand": "right"
    },
    {
      "midi": 71,
      "time": 308,
      "duration": 0.25,
      "velocity": 0.71,
      "hand": "right"
    },
    {
      "midi": 76,
      "time": 308.25,
      "duration": 1.75,
      "velocity": 0.71,
      "hand": "right"
    },
    {
      "midi": 73,
      "time": 308.5,
      "duration": 1.5,
      "velocity": 0.71,
      "hand": "right"
    },
    {
      "midi": 56,
      "time": 310,
      "duration": 3,
      "velocity": 0.71,
      "hand": "left"
    },
    {
      "midi": 80,
      "time": 310,
      "duration": 3,
      "velocity": 0.71,
      "hand": "right"
    },
    {
      "midi": 83,
      "time": 310,
      "duration": 1.5,
      "velocity": 0.71,
      "hand": "right"
    },
    {
      "midi": 59,
      "time": 310.25,
      "duration": 0.25,
      "velocity": 0.71,
      "hand": "left"
    },
    {
      "midi": 64,
      "time": 310.5,
      "duration": 0.25,
      "velocity": 0.71,
      "hand": "right"
    },
    {
      "midi": 68,
      "time": 310.75,
      "duration": 0.25,
      "velocity": 0.71,
      "hand": "right"
    },
    {
      "midi": 71,
      "time": 311,
      "duration": 0.25,
      "velocity": 0.71,
      "hand": "right"
    },
    {
      "midi": 76,
      "time": 311.25,
      "duration": 1.735,
      "velocity": 0.71,
      "hand": "right"
    },
    {
      "midi": 73,
      "time": 311.5,
      "duration": 1.5,
      "velocity": 0.71,
      "hand": "right"
    },
    {
      "midi": 44,
      "time": 313,
      "duration": 1.5,
      "velocity": 0.71,
      "hand": "left"
    },
    {
      "midi": 76,
      "time": 313,
      "duration": 1.5,
      "velocity": 0.71,
      "hand": "right"
    },
    {
      "midi": 37,
      "time": 314.5,
      "duration": 3,
      "velocity": 0.71,
      "hand": "left"
    },
    {
      "midi": 77,
      "time": 314.5,
      "duration": 2.985,
      "velocity": 0.71,
      "hand": "right"
    },
    {
      "midi": 80,
      "time": 314.5,
      "duration": 3.485,
      "velocity": 0.71,
      "hand": "right"
    },
    {
      "midi": 44,
      "time": 314.75,
      "duration": 0.25,
      "velocity": 0.71,
      "hand": "left"
    },
    {
      "midi": 49,
      "time": 315,
      "duration": 0.25,
      "velocity": 0.71,
      "hand": "left"
    },
    {
      "midi": 53,
      "time": 315.25,
      "duration": 0.25,
      "velocity": 0.71,
      "hand": "left"
    },
    {
      "midi": 56,
      "time": 315.5,
      "duration": 0.25,
      "velocity": 0.71,
      "hand": "left"
    },
    {
      "midi": 61,
      "time": 315.75,
      "duration": 0.25,
      "velocity": 0.71,
      "hand": "right"
    },
    {
      "midi": 65,
      "time": 316,
      "duration": 0.5,
      "velocity": 0.71,
      "hand": "right"
    },
    {
      "midi": 68,
      "time": 316.5,
      "duration": 0.5,
      "velocity": 0.71,
      "hand": "right"
    },
    {
      "midi": 73,
      "time": 317,
      "duration": 0.5,
      "velocity": 0.71,
      "hand": "right"
    },
    {
      "midi": 77,
      "time": 317.5,
      "duration": 0.5,
      "velocity": 0.71,
      "hand": "right"
    },
    {
      "midi": 80,
      "time": 318,
      "duration": 0.5,
      "velocity": 0.71,
      "hand": "right"
    },
    {
      "midi": 73,
      "time": 318.5,
      "duration": 0.485,
      "velocity": 0.71,
      "hand": "right"
    },
    {
      "midi": 68,
      "time": 319,
      "duration": 3,
      "velocity": 0.71,
      "hand": "right"
    },
    {
      "midi": 73,
      "time": 319,
      "duration": 3,
      "velocity": 0.71,
      "hand": "right"
    },
    {
      "midi": 77,
      "time": 319,
      "duration": 3,
      "velocity": 0.71,
      "hand": "right"
    },
    {
      "midi": 80,
      "time": 319,
      "duration": 3,
      "velocity": 0.71,
      "hand": "right"
    }
  ],
  "arrangements": {
    "easy": [
      {
        "midi": 68,
        "time": 0,
        "duration": 2.4,
        "velocity": 0.71,
        "hand": "right"
      },
      {
        "midi": 77,
        "time": 2.5,
        "duration": 2,
        "velocity": 0.71,
        "hand": "right"
      },
      {
        "midi": 69,
        "time": 4,
        "duration": 2.4,
        "velocity": 0.71,
        "hand": "right"
      },
      {
        "midi": 77,
        "time": 5,
        "duration": 0.6,
        "velocity": 0.71,
        "hand": "right"
      },
      {
        "midi": 68,
        "time": 8.5,
        "duration": 2.4,
        "velocity": 0.71,
        "hand": "right"
      },
      {
        "midi": 75,
        "time": 9.5,
        "duration": 0.6,
        "velocity": 0.71,
        "hand": "right"
      },
      {
        "midi": 77,
        "time": 10.75,
        "duration": 1.5,
        "velocity": 0.71,
        "hand": "right"
      },
      {
        "midi": 73,
        "time": 12.25,
        "duration": 1.25,
        "velocity": 0.71,
        "hand": "right"
      },
      {
        "midi": 72,
        "time": 13.5,
        "duration": 0.6,
        "velocity": 0.71,
        "hand": "right"
      },
      {
        "midi": 72,
        "time": 14.5,
        "duration": 2.4,
        "velocity": 0.71,
        "hand": "right"
      },
      {
        "midi": 66,
        "time": 17.5,
        "duration": 2.4,
        "velocity": 0.71,
        "hand": "right"
      },
      {
        "midi": 72,
        "time": 18.5,
        "duration": 0.6,
        "velocity": 0.71,
        "hand": "right"
      },
      {
        "midi": 75,
        "time": 19.5,
        "duration": 0.6,
        "velocity": 0.71,
        "hand": "right"
      },
      {
        "midi": 68,
        "time": 20.5,
        "duration": 0.6,
        "velocity": 0.71,
        "hand": "right"
      },
      {
        "midi": 68,
        "time": 21.5,
        "duration": 1,
        "velocity": 0.71,
        "hand": "right"
      },
      {
        "midi": 66,
        "time": 22.5,
        "duration": 0.6,
        "velocity": 0.71,
        "hand": "right"
      },
      {
        "midi": 66,
        "time": 23.5,
        "duration": 1.5,
        "velocity": 0.71,
        "hand": "right"
      },
      {
        "midi": 65,
        "time": 25,
        "duration": 1.985,
        "velocity": 0.71,
        "hand": "right"
      },
      {
        "midi": 61,
        "time": 26.5,
        "duration": 2.4,
        "velocity": 0.71,
        "hand": "right"
      },
      {
        "midi": 66,
        "time": 27.5,
        "duration": 0.6,
        "velocity": 0.71,
        "hand": "right"
      },
      {
        "midi": 70,
        "time": 28.5,
        "duration": 0.6,
        "velocity": 0.71,
        "hand": "right"
      },
      {
        "midi": 63,
        "time": 29.5,
        "duration": 0.6,
        "velocity": 0.71,
        "hand": "right"
      },
      {
        "midi": 63,
        "time": 30.5,
        "duration": 1,
        "velocity": 0.71,
        "hand": "right"
      },
      {
        "midi": 61,
        "time": 31.5,
        "duration": 0.6,
        "velocity": 0.71,
        "hand": "right"
      },
      {
        "midi": 61,
        "time": 32.5,
        "duration": 1.5,
        "velocity": 0.71,
        "hand": "right"
      },
      {
        "midi": 60,
        "time": 34,
        "duration": 1.5,
        "velocity": 0.71,
        "hand": "right"
      },
      {
        "midi": 61,
        "time": 35.5,
        "duration": 0.6,
        "velocity": 0.71,
        "hand": "right"
      },
      {
        "midi": 68,
        "time": 36.5,
        "duration": 2.4,
        "velocity": 0.71,
        "hand": "right"
      },
      {
        "midi": 77,
        "time": 38.5,
        "duration": 2,
        "velocity": 0.71,
        "hand": "right"
      },
      {
        "midi": 61,
        "time": 40,
        "duration": 2.4,
        "velocity": 0.71,
        "hand": "right"
      },
      {
        "midi": 77,
        "time": 41,
        "duration": 0.6,
        "velocity": 0.71,
        "hand": "right"
      },
      {
        "midi": 61,
        "time": 44.5,
        "duration": 2.4,
        "velocity": 0.71,
        "hand": "right"
      },
      {
        "midi": 75,
        "time": 45.5,
        "duration": 0.6,
        "velocity": 0.71,
        "hand": "right"
      },
      {
        "midi": 77,
        "time": 47.5,
        "duration": 2,
        "velocity": 0.71,
        "hand": "right"
      },
      {
        "midi": 61,
        "time": 49,
        "duration": 2.4,
        "velocity": 0.71,
        "hand": "right"
      },
      {
        "midi": 77,
        "time": 50,
        "duration": 0.6,
        "velocity": 0.71,
        "hand": "right"
      },
      {
        "midi": 73,
        "time": 52,
        "duration": 1.985,
        "velocity": 0.71,
        "hand": "right"
      },
      {
        "midi": 56,
        "time": 53.5,
        "duration": 2.4,
        "velocity": 0.71,
        "hand": "right"
      },
      {
        "midi": 75,
        "time": 54.5,
        "duration": 0.6,
        "velocity": 0.71,
        "hand": "right"
      },
      {
        "midi": 80,
        "time": 55.75,
        "duration": 1.5,
        "velocity": 0.71,
        "hand": "right"
      },
      {
        "midi": 65,
        "time": 57.25,
        "duration": 0.75,
        "velocity": 0.71,
        "hand": "right"
      },
      {
        "midi": 75,
        "time": 58.5,
        "duration": 0.6,
        "velocity": 0.71,
        "hand": "right"
      },
      {
        "midi": 75,
        "time": 59.5,
        "duration": 0.75,
        "velocity": 0.71,
        "hand": "right"
      },
      {
        "midi": 63,
        "time": 62.5,
        "duration": 2.4,
        "velocity": 0.71,
        "hand": "right"
      },
      {
        "midi": 82,
        "time": 64.5,
        "duration": 0.6,
        "velocity": 0.71,
        "hand": "right"
      },
      {
        "midi": 82,
        "time": 65.5,
        "duration": 0.6,
        "velocity": 0.71,
        "hand": "right"
      },
      {
        "midi": 82,
        "time": 66.5,
        "duration": 0.6,
        "velocity": 0.71,
        "hand": "right"
      },
      {
        "midi": 84,
        "time": 67.5,
        "duration": 0.6,
        "velocity": 0.71,
        "hand": "right"
      },
      {
        "midi": 84,
        "time": 68.5,
        "duration": 0.75,
        "velocity": 0.71,
        "hand": "right"
      },
      {
        "midi": 82,
        "time": 70,
        "duration": 1.5,
        "velocity": 0.71,
        "hand": "right"
      },
      {
        "midi": 58,
        "time": 71.5,
        "duration": 2.4,
        "velocity": 0.71,
        "hand": "right"
      },
      {
        "midi": 82,
        "time": 73.5,
        "duration": 0.6,
        "velocity": 0.71,
        "hand": "right"
      },
      {
        "midi": 82,
        "time": 74.5,
        "duration": 0.6,
        "velocity": 0.71,
        "hand": "right"
      },
      {
        "midi": 82,
        "time": 75.5,
        "duration": 0.6,
        "velocity": 0.71,
        "hand": "right"
      },
      {
        "midi": 82,
        "time": 76.5,
        "duration": 0.6,
        "velocity": 0.71,
        "hand": "right"
      },
      {
        "midi": 84,
        "time": 77.5,
        "duration": 0.6,
        "velocity": 0.71,
        "hand": "right"
      },
      {
        "midi": 82,
        "time": 79,
        "duration": 2.25,
        "velocity": 0.71,
        "hand": "right"
      },
      {
        "midi": 56,
        "time": 80.5,
        "duration": 2.4,
        "velocity": 0.71,
        "hand": "right"
      },
      {
        "midi": 80,
        "time": 82,
        "duration": 0.75,
        "velocity": 0.71,
        "hand": "right"
      },
      {
        "midi": 82,
        "time": 83.5,
        "duration": 0.75,
        "velocity": 0.71,
        "hand": "right"
      },
      {
        "midi": 57,
        "time": 85,
        "duration": 2.4,
        "velocity": 0.71,
        "hand": "right"
      },
      {
        "midi": 78,
        "time": 86,
        "duration": 0.6,
        "velocity": 0.71,
        "hand": "right"
      },
      {
        "midi": 78,
        "time": 87,
        "duration": 0.6,
        "velocity": 0.71,
        "hand": "right"
      },
      {
        "midi": 78,
        "time": 88,
        "duration": 1.5,
        "velocity": 0.71,
        "hand": "right"
      },
      {
        "midi": 58,
        "time": 89.5,
        "duration": 2.4,
        "velocity": 0.71,
        "hand": "right"
      },
      {
        "midi": 80,
        "time": 91,
        "duration": 0.75,
        "velocity": 0.71,
        "hand": "right"
      },
      {
        "midi": 82,
        "time": 92.5,
        "duration": 0.75,
        "velocity": 0.71,
        "hand": "right"
      },
      {
        "midi": 56,
        "time": 94,
        "duration": 2.4,
        "velocity": 0.71,
        "hand": "right"
      },
      {
        "midi": 78,
        "time": 95,
        "duration": 0.6,
        "velocity": 0.71,
        "hand": "right"
      },
      {
        "midi": 78,
        "time": 96,
        "duration": 0.6,
        "velocity": 0.71,
        "hand": "right"
      },
      {
        "midi": 78,
        "time": 97,
        "duration": 1.5,
        "velocity": 0.71,
        "hand": "right"
      },
      {
        "midi": 61,
        "time": 98.5,
        "duration": 2.4,
        "velocity": 0.71,
        "hand": "right"
      },
      {
        "midi": 80,
        "time": 100,
        "duration": 0.75,
        "velocity": 0.71,
        "hand": "right"
      },
      {
        "midi": 82,
        "time": 101.5,
        "duration": 1.5,
        "velocity": 0.71,
        "hand": "right"
      },
      {
        "midi": 63,
        "time": 103,
        "duration": 2.4,
        "velocity": 0.71,
        "hand": "right"
      },
      {
        "midi": 82,
        "time": 104,
        "duration": 0.6,
        "velocity": 0.71,
        "hand": "right"
      },
      {
        "midi": 82,
        "time": 105,
        "duration": 0.6,
        "velocity": 0.71,
        "hand": "right"
      },
      {
        "midi": 82,
        "time": 106,
        "duration": 0.6,
        "velocity": 0.71,
        "hand": "right"
      },
      {
        "midi": 82,
        "time": 107,
        "duration": 0.6,
        "velocity": 0.71,
        "hand": "right"
      },
      {
        "midi": 80,
        "time": 110.5,
        "duration": 1.485,
        "velocity": 0.71,
        "hand": "right"
      },
      {
        "midi": 80,
        "time": 112,
        "duration": 2.4,
        "velocity": 0.71,
        "hand": "right"
      },
      {
        "midi": 80,
        "time": 115,
        "duration": 1.5,
        "velocity": 0.71,
        "hand": "right"
      },
      {
        "midi": 68,
        "time": 116.5,
        "duration": 2.4,
        "velocity": 0.71,
        "hand": "right"
      },
      {
        "midi": 56,
        "time": 117.5,
        "duration": 0.6,
        "velocity": 0.71,
        "hand": "right"
      },
      {
        "midi": 65,
        "time": 118.5,
        "duration": 0.6,
        "velocity": 0.71,
        "hand": "right"
      },
      {
        "midi": 71,
        "time": 119.5,
        "duration": 1,
        "velocity": 0.71,
        "hand": "right"
      },
      {
        "midi": 73,
        "time": 120.5,
        "duration": 0.6,
        "velocity": 0.71,
        "hand": "right"
      },
      {
        "midi": 61,
        "time": 121.5,
        "duration": 0.6,
        "velocity": 0.71,
        "hand": "right"
      },
      {
        "midi": 65,
        "time": 122.5,
        "duration": 1.5,
        "velocity": 0.71,
        "hand": "right"
      },
      {
        "midi": 60,
        "time": 123.5,
        "duration": 0.6,
        "velocity": 0.71,
        "hand": "right"
      },
      {
        "midi": 56,
        "time": 124.5,
        "duration": 0.6,
        "velocity": 0.71,
        "hand": "right"
      },
      {
        "midi": 73,
        "time": 125.5,
        "duration": 1,
        "velocity": 0.71,
        "hand": "right"
      },
      {
        "midi": 75,
        "time": 126.5,
        "duration": 0.6,
        "velocity": 0.71,
        "hand": "right"
      },
      {
        "midi": 65,
        "time": 127.5,
        "duration": 0.6,
        "velocity": 0.71,
        "hand": "right"
      },
      {
        "midi": 73,
        "time": 128.5,
        "duration": 0.985,
        "velocity": 0.71,
        "hand": "right"
      },
      {
        "midi": 77,
        "time": 129.5,
        "duration": 0.6,
        "velocity": 0.71,
        "hand": "right"
      },
      {
        "midi": 77,
        "time": 130.5,
        "duration": 0.6,
        "velocity": 0.71,
        "hand": "right"
      },
      {
        "midi": 73,
        "time": 131.5,
        "duration": 1.5,
        "velocity": 0.71,
        "hand": "right"
      },
      {
        "midi": 61,
        "time": 132.5,
        "duration": 0.6,
        "velocity": 0.71,
        "hand": "right"
      },
      {
        "midi": 63,
        "time": 133.5,
        "duration": 0.6,
        "velocity": 0.71,
        "hand": "right"
      },
      {
        "midi": 70,
        "time": 134.5,
        "duration": 2.4,
        "velocity": 0.71,
        "hand": "right"
      },
      {
        "midi": 60,
        "time": 135.5,
        "duration": 0.6,
        "velocity": 0.71,
        "hand": "right"
      },
      {
        "midi": 66,
        "time": 136.5,
        "duration": 0.6,
        "velocity": 0.71,
        "hand": "right"
      },
      {
        "midi": 72,
        "time": 137.5,
        "duration": 1,
        "velocity": 0.71,
        "hand": "right"
      },
      {
        "midi": 77,
        "time": 138.5,
        "duration": 0.6,
        "velocity": 0.71,
        "hand": "right"
      },
      {
        "midi": 66,
        "time": 139.5,
        "duration": 0.6,
        "velocity": 0.71,
        "hand": "right"
      },
      {
        "midi": 66,
        "time": 140.5,
        "duration": 1.5,
        "velocity": 0.71,
        "hand": "right"
      },
      {
        "midi": 61,
        "time": 141.5,
        "duration": 0.6,
        "velocity": 0.71,
        "hand": "right"
      },
      {
        "midi": 65,
        "time": 142.5,
        "duration": 0.6,
        "velocity": 0.71,
        "hand": "right"
      },
      {
        "midi": 78,
        "time": 143.5,
        "duration": 2.25,
        "velocity": 0.71,
        "hand": "right"
      },
      {
        "midi": 58,
        "time": 144.5,
        "duration": 0.6,
        "velocity": 0.71,
        "hand": "right"
      },
      {
        "midi": 70,
        "time": 145.5,
        "duration": 0.6,
        "velocity": 0.71,
        "hand": "right"
      },
      {
        "midi": 74,
        "time": 146.5,
        "duration": 0.75,
        "velocity": 0.71,
        "hand": "right"
      },
      {
        "midi": 66,
        "time": 147.5,
        "duration": 0.6,
        "velocity": 0.71,
        "hand": "right"
      },
      {
        "midi": 70,
        "time": 148.5,
        "duration": 0.6,
        "velocity": 0.71,
        "hand": "right"
      },
      {
        "midi": 63,
        "time": 149.5,
        "duration": 1.5,
        "velocity": 0.71,
        "hand": "right"
      },
      {
        "midi": 78,
        "time": 150.5,
        "duration": 0.6,
        "velocity": 0.71,
        "hand": "right"
      },
      {
        "midi": 68,
        "time": 151.5,
        "duration": 0.6,
        "velocity": 0.71,
        "hand": "right"
      },
      {
        "midi": 80,
        "time": 152.5,
        "duration": 2.4,
        "velocity": 0.71,
        "hand": "right"
      },
      {
        "midi": 68,
        "time": 153.5,
        "duration": 0.6,
        "velocity": 0.71,
        "hand": "right"
      },
      {
        "midi": 65,
        "time": 154.5,
        "duration": 0.6,
        "velocity": 0.71,
        "hand": "right"
      },
      {
        "midi": 83,
        "time": 155.5,
        "duration": 1,
        "velocity": 0.71,
        "hand": "right"
      },
      {
        "midi": 76,
        "time": 156.5,
        "duration": 0.6,
        "velocity": 0.71,
        "hand": "right"
      },
      {
        "midi": 61,
        "time": 157.5,
        "duration": 0.6,
        "velocity": 0.71,
        "hand": "right"
      },
      {
        "midi": 56,
        "time": 158.5,
        "duration": 0.6,
        "velocity": 0.71,
        "hand": "right"
      },
      {
        "midi": 72,
        "time": 159.5,
        "duration": 0.6,
        "velocity": 0.71,
        "hand": "right"
      },
      {
        "midi": 68,
        "time": 160.5,
        "duration": 0.6,
        "velocity": 0.71,
        "hand": "right"
      },
      {
        "midi": 73,
        "time": 161.5,
        "duration": 0.735,
        "velocity": 0.71,
        "hand": "right"
      },
      {
        "midi": 80,
        "time": 162.5,
        "duration": 0.6,
        "velocity": 0.71,
        "hand": "right"
      },
      {
        "midi": 71,
        "time": 163.5,
        "duration": 0.6,
        "velocity": 0.71,
        "hand": "right"
      },
      {
        "midi": 80,
        "time": 164.5,
        "duration": 0.735,
        "velocity": 0.71,
        "hand": "right"
      },
      {
        "midi": 76,
        "time": 165.5,
        "duration": 0.6,
        "velocity": 0.71,
        "hand": "right"
      },
      {
        "midi": 73,
        "time": 166.5,
        "duration": 0.6,
        "velocity": 0.71,
        "hand": "right"
      },
      {
        "midi": 78,
        "time": 167.5,
        "duration": 0.735,
        "velocity": 0.71,
        "hand": "right"
      },
      {
        "midi": 73,
        "time": 168.5,
        "duration": 0.6,
        "velocity": 0.71,
        "hand": "right"
      },
      {
        "midi": 73,
        "time": 169.5,
        "duration": 0.6,
        "velocity": 0.71,
        "hand": "right"
      },
      {
        "midi": 78,
        "time": 170.5,
        "duration": 0.735,
        "velocity": 0.71,
        "hand": "right"
      },
      {
        "midi": 73,
        "time": 171.5,
        "duration": 0.6,
        "velocity": 0.71,
        "hand": "right"
      },
      {
        "midi": 73,
        "time": 172.5,
        "duration": 0.6,
        "velocity": 0.71,
        "hand": "right"
      },
      {
        "midi": 81,
        "time": 173.5,
        "duration": 1,
        "velocity": 0.71,
        "hand": "right"
      },
      {
        "midi": 73,
        "time": 174.5,
        "duration": 0.6,
        "velocity": 0.71,
        "hand": "right"
      },
      {
        "midi": 66,
        "time": 175.5,
        "duration": 0.6,
        "velocity": 0.71,
        "hand": "right"
      },
      {
        "midi": 57,
        "time": 176.5,
        "duration": 1.5,
        "velocity": 0.71,
        "hand": "right"
      },
      {
        "midi": 73,
        "time": 177.5,
        "duration": 0.6,
        "velocity": 0.71,
        "hand": "right"
      },
      {
        "midi": 64,
        "time": 178.5,
        "duration": 0.6,
        "velocity": 0.71,
        "hand": "right"
      },
      {
        "midi": 76,
        "time": 179.5,
        "duration": 0.6,
        "velocity": 0.71,
        "hand": "right"
      },
      {
        "midi": 81,
        "time": 180.5,
        "duration": 0.6,
        "velocity": 0.71,
        "hand": "right"
      },
      {
        "midi": 76,
        "time": 181.5,
        "duration": 0.6,
        "velocity": 0.71,
        "hand": "right"
      },
      {
        "midi": 64,
        "time": 182.5,
        "duration": 0.6,
        "velocity": 0.71,
        "hand": "right"
      },
      {
        "midi": 78,
        "time": 183.5,
        "duration": 0.6,
        "velocity": 0.71,
        "hand": "right"
      },
      {
        "midi": 75,
        "time": 184.5,
        "duration": 0.6,
        "velocity": 0.71,
        "hand": "right"
      },
      {
        "midi": 71,
        "time": 185.5,
        "duration": 0.6,
        "velocity": 0.71,
        "hand": "right"
      },
      {
        "midi": 68,
        "time": 186.5,
        "duration": 1,
        "velocity": 0.71,
        "hand": "right"
      },
      {
        "midi": 66,
        "time": 187.5,
        "duration": 0.6,
        "velocity": 0.71,
        "hand": "right"
      },
      {
        "midi": 63,
        "time": 188.5,
        "duration": 2.4,
        "velocity": 0.71,
        "hand": "right"
      },
      {
        "midi": 56,
        "time": 189.5,
        "duration": 0.6,
        "velocity": 0.71,
        "hand": "right"
      },
      {
        "midi": 56,
        "time": 190.5,
        "duration": 0.6,
        "velocity": 0.71,
        "hand": "right"
      },
      {
        "midi": 66,
        "time": 191.5,
        "duration": 0.985,
        "velocity": 0.71,
        "hand": "right"
      },
      {
        "midi": 70,
        "time": 192.5,
        "duration": 0.6,
        "velocity": 0.71,
        "hand": "right"
      },
      {
        "midi": 56,
        "time": 193.5,
        "duration": 0.6,
        "velocity": 0.71,
        "hand": "right"
      },
      {
        "midi": 58,
        "time": 194.5,
        "duration": 1,
        "velocity": 0.71,
        "hand": "right"
      },
      {
        "midi": 56,
        "time": 195.5,
        "duration": 0.6,
        "velocity": 0.71,
        "hand": "right"
      },
      {
        "midi": 56,
        "time": 196.5,
        "duration": 0.6,
        "velocity": 0.71,
        "hand": "right"
      },
      {
        "midi": 61,
        "time": 197.5,
        "duration": 0.6,
        "velocity": 0.71,
        "hand": "right"
      },
      {
        "midi": 75,
        "time": 198.5,
        "duration": 0.6,
        "velocity": 0.71,
        "hand": "right"
      },
      {
        "midi": 58,
        "time": 199.5,
        "duration": 0.6,
        "velocity": 0.71,
        "hand": "right"
      },
      {
        "midi": 68,
        "time": 200.5,
        "duration": 1.5,
        "velocity": 0.71,
        "hand": "right"
      },
      {
        "midi": 63,
        "time": 201.5,
        "duration": 0.6,
        "velocity": 0.71,
        "hand": "right"
      },
      {
        "midi": 77,
        "time": 202.5,
        "duration": 0.6,
        "velocity": 0.71,
        "hand": "right"
      },
      {
        "midi": 70,
        "time": 203.5,
        "duration": 1.5,
        "velocity": 0.71,
        "hand": "right"
      },
      {
        "midi": 61,
        "time": 204.5,
        "duration": 0.6,
        "velocity": 0.71,
        "hand": "right"
      },
      {
        "midi": 60,
        "time": 205.5,
        "duration": 0.6,
        "velocity": 0.71,
        "hand": "right"
      },
      {
        "midi": 75,
        "time": 206.5,
        "duration": 2.4,
        "velocity": 0.71,
        "hand": "right"
      },
      {
        "midi": 66,
        "time": 207.5,
        "duration": 0.6,
        "velocity": 0.71,
        "hand": "right"
      },
      {
        "midi": 66,
        "time": 208.5,
        "duration": 0.6,
        "velocity": 0.71,
        "hand": "right"
      },
      {
        "midi": 78,
        "time": 209.5,
        "duration": 1,
        "velocity": 0.71,
        "hand": "right"
      },
      {
        "midi": 82,
        "time": 210.5,
        "duration": 0.6,
        "velocity": 0.71,
        "hand": "right"
      },
      {
        "midi": 66,
        "time": 211.5,
        "duration": 0.6,
        "velocity": 0.71,
        "hand": "right"
      },
      {
        "midi": 58,
        "time": 212.5,
        "duration": 1,
        "velocity": 0.71,
        "hand": "right"
      },
      {
        "midi": 66,
        "time": 213.5,
        "duration": 0.6,
        "velocity": 0.71,
        "hand": "right"
      },
      {
        "midi": 66,
        "time": 214.5,
        "duration": 0.6,
        "velocity": 0.71,
        "hand": "right"
      },
      {
        "midi": 75,
        "time": 215.5,
        "duration": 0.735,
        "velocity": 0.71,
        "hand": "right"
      },
      {
        "midi": 78,
        "time": 216.5,
        "duration": 0.6,
        "velocity": 0.71,
        "hand": "right"
      },
      {
        "midi": 73,
        "time": 217.5,
        "duration": 0.6,
        "velocity": 0.71,
        "hand": "right"
      },
      {
        "midi": 70,
        "time": 218.75,
        "duration": 0.6,
        "velocity": 0.71,
        "hand": "right"
      },
      {
        "midi": 82,
        "time": 219.75,
        "duration": 0.6,
        "velocity": 0.71,
        "hand": "right"
      },
      {
        "midi": 75,
        "time": 220.75,
        "duration": 0.6,
        "velocity": 0.71,
        "hand": "right"
      },
      {
        "midi": 69,
        "time": 221.75,
        "duration": 0.6,
        "velocity": 0.71,
        "hand": "right"
      },
      {
        "midi": 83,
        "time": 222.75,
        "duration": 0.6,
        "velocity": 0.71,
        "hand": "right"
      },
      {
        "midi": 75,
        "time": 223.75,
        "duration": 0.6,
        "velocity": 0.71,
        "hand": "right"
      },
      {
        "midi": 68,
        "time": 224.75,
        "duration": 0.6,
        "velocity": 0.71,
        "hand": "right"
      },
      {
        "midi": 84,
        "time": 225.75,
        "duration": 0.6,
        "velocity": 0.71,
        "hand": "right"
      },
      {
        "midi": 77,
        "time": 227.5,
        "duration": 2,
        "velocity": 0.71,
        "hand": "right"
      },
      {
        "midi": 65,
        "time": 229,
        "duration": 2.4,
        "velocity": 0.71,
        "hand": "right"
      },
      {
        "midi": 77,
        "time": 230,
        "duration": 0.6,
        "velocity": 0.71,
        "hand": "right"
      },
      {
        "midi": 65,
        "time": 232,
        "duration": 1.485,
        "velocity": 0.71,
        "hand": "right"
      },
      {
        "midi": 65,
        "time": 233.5,
        "duration": 2.4,
        "velocity": 0.71,
        "hand": "right"
      },
      {
        "midi": 84,
        "time": 234.5,
        "duration": 0.6,
        "velocity": 0.71,
        "hand": "right"
      },
      {
        "midi": 77,
        "time": 235.75,
        "duration": 1.5,
        "velocity": 0.71,
        "hand": "right"
      },
      {
        "midi": 73,
        "time": 237.25,
        "duration": 1.25,
        "velocity": 0.71,
        "hand": "right"
      },
      {
        "midi": 66,
        "time": 238.25,
        "duration": 0.6,
        "velocity": 0.71,
        "hand": "right"
      },
      {
        "midi": 78,
        "time": 239.25,
        "duration": 0.6,
        "velocity": 0.71,
        "hand": "right"
      },
      {
        "midi": 63,
        "time": 241,
        "duration": 1.5,
        "velocity": 0.71,
        "hand": "right"
      },
      {
        "midi": 61,
        "time": 242.5,
        "duration": 2.4,
        "velocity": 0.71,
        "hand": "right"
      },
      {
        "midi": 84,
        "time": 243.5,
        "duration": 0.6,
        "velocity": 0.71,
        "hand": "right"
      },
      {
        "midi": 75,
        "time": 244.5,
        "duration": 0.6,
        "velocity": 0.71,
        "hand": "right"
      },
      {
        "midi": 80,
        "time": 245.5,
        "duration": 0.6,
        "velocity": 0.71,
        "hand": "right"
      },
      {
        "midi": 80,
        "time": 246.5,
        "duration": 1,
        "velocity": 0.71,
        "hand": "right"
      },
      {
        "midi": 78,
        "time": 247.5,
        "duration": 0.6,
        "velocity": 0.71,
        "hand": "right"
      },
      {
        "midi": 78,
        "time": 248.5,
        "duration": 1.5,
        "velocity": 0.71,
        "hand": "right"
      },
      {
        "midi": 77,
        "time": 250,
        "duration": 1.985,
        "velocity": 0.71,
        "hand": "right"
      },
      {
        "midi": 56,
        "time": 251.5,
        "duration": 2.4,
        "velocity": 0.71,
        "hand": "right"
      },
      {
        "midi": 78,
        "time": 252.5,
        "duration": 0.6,
        "velocity": 0.71,
        "hand": "right"
      },
      {
        "midi": 82,
        "time": 253.5,
        "duration": 0.6,
        "velocity": 0.71,
        "hand": "right"
      },
      {
        "midi": 75,
        "time": 254.5,
        "duration": 0.6,
        "velocity": 0.71,
        "hand": "right"
      },
      {
        "midi": 75,
        "time": 255.5,
        "duration": 1,
        "velocity": 0.71,
        "hand": "right"
      },
      {
        "midi": 73,
        "time": 256.5,
        "duration": 0.6,
        "velocity": 0.71,
        "hand": "right"
      },
      {
        "midi": 73,
        "time": 257.5,
        "duration": 1.5,
        "velocity": 0.71,
        "hand": "right"
      },
      {
        "midi": 72,
        "time": 259,
        "duration": 1.5,
        "velocity": 0.71,
        "hand": "right"
      },
      {
        "midi": 56,
        "time": 260.5,
        "duration": 0.6,
        "velocity": 0.71,
        "hand": "right"
      },
      {
        "midi": 68,
        "time": 261.5,
        "duration": 2.4,
        "velocity": 0.71,
        "hand": "right"
      },
      {
        "midi": 77,
        "time": 263.5,
        "duration": 2,
        "velocity": 0.71,
        "hand": "right"
      },
      {
        "midi": 61,
        "time": 265,
        "duration": 2.4,
        "velocity": 0.71,
        "hand": "right"
      },
      {
        "midi": 77,
        "time": 266,
        "duration": 0.6,
        "velocity": 0.71,
        "hand": "right"
      },
      {
        "midi": 56,
        "time": 269.5,
        "duration": 2.4,
        "velocity": 0.71,
        "hand": "right"
      },
      {
        "midi": 75,
        "time": 270.5,
        "duration": 0.6,
        "velocity": 0.71,
        "hand": "right"
      },
      {
        "midi": 77,
        "time": 272.5,
        "duration": 2,
        "velocity": 0.71,
        "hand": "right"
      },
      {
        "midi": 58,
        "time": 274,
        "duration": 2.4,
        "velocity": 0.71,
        "hand": "right"
      },
      {
        "midi": 77,
        "time": 275,
        "duration": 0.6,
        "velocity": 0.71,
        "hand": "right"
      },
      {
        "midi": 73,
        "time": 277,
        "duration": 1.5,
        "velocity": 0.71,
        "hand": "right"
      },
      {
        "midi": 65,
        "time": 278.5,
        "duration": 2.4,
        "velocity": 0.71,
        "hand": "right"
      },
      {
        "midi": 63,
        "time": 279.5,
        "duration": 0.6,
        "velocity": 0.71,
        "hand": "right"
      },
      {
        "midi": 65,
        "time": 281.5,
        "duration": 1.5,
        "velocity": 0.71,
        "hand": "right"
      },
      {
        "midi": 63,
        "time": 283,
        "duration": 1.5,
        "velocity": 0.71,
        "hand": "right"
      },
      {
        "midi": 68,
        "time": 284,
        "duration": 0.6,
        "velocity": 0.71,
        "hand": "right"
      },
      {
        "midi": 70,
        "time": 286,
        "duration": 1.5,
        "velocity": 0.71,
        "hand": "right"
      },
      {
        "midi": 56,
        "time": 287.5,
        "duration": 2.4,
        "velocity": 0.71,
        "hand": "right"
      },
      {
        "midi": 72,
        "time": 288.5,
        "duration": 0.6,
        "velocity": 0.71,
        "hand": "right"
      },
      {
        "midi": 68,
        "time": 290.5,
        "duration": 1.5,
        "velocity": 0.71,
        "hand": "right"
      },
      {
        "midi": 61,
        "time": 292,
        "duration": 1.5,
        "velocity": 0.71,
        "hand": "right"
      },
      {
        "midi": 56,
        "time": 293,
        "duration": 0.6,
        "velocity": 0.71,
        "hand": "right"
      },
      {
        "midi": 65,
        "time": 294,
        "duration": 0.6,
        "velocity": 0.71,
        "hand": "right"
      },
      {
        "midi": 61,
        "time": 295,
        "duration": 1.5,
        "velocity": 0.71,
        "hand": "right"
      },
      {
        "midi": 56,
        "time": 296,
        "duration": 0.6,
        "velocity": 0.71,
        "hand": "right"
      },
      {
        "midi": 65,
        "time": 297,
        "duration": 0.6,
        "velocity": 0.71,
        "hand": "right"
      },
      {
        "midi": 71,
        "time": 298,
        "duration": 1.5,
        "velocity": 0.71,
        "hand": "right"
      },
      {
        "midi": 64,
        "time": 299,
        "duration": 0.6,
        "velocity": 0.71,
        "hand": "right"
      },
      {
        "midi": 61,
        "time": 301,
        "duration": 1.5,
        "velocity": 0.71,
        "hand": "right"
      },
      {
        "midi": 68,
        "time": 302,
        "duration": 0.6,
        "velocity": 0.71,
        "hand": "right"
      },
      {
        "midi": 65,
        "time": 303,
        "duration": 0.6,
        "velocity": 0.71,
        "hand": "right"
      },
      {
        "midi": 61,
        "time": 304,
        "duration": 1.5,
        "velocity": 0.71,
        "hand": "right"
      },
      {
        "midi": 68,
        "time": 305,
        "duration": 0.6,
        "velocity": 0.71,
        "hand": "right"
      },
      {
        "midi": 65,
        "time": 306,
        "duration": 0.6,
        "velocity": 0.71,
        "hand": "right"
      },
      {
        "midi": 83,
        "time": 307,
        "duration": 1.5,
        "velocity": 0.71,
        "hand": "right"
      },
      {
        "midi": 71,
        "time": 308,
        "duration": 0.6,
        "velocity": 0.71,
        "hand": "right"
      },
      {
        "midi": 83,
        "time": 310,
        "duration": 1.5,
        "velocity": 0.71,
        "hand": "right"
      },
      {
        "midi": 71,
        "time": 311,
        "duration": 0.6,
        "velocity": 0.71,
        "hand": "right"
      },
      {
        "midi": 76,
        "time": 313,
        "duration": 1.5,
        "velocity": 0.71,
        "hand": "right"
      },
      {
        "midi": 80,
        "time": 314.5,
        "duration": 2.4,
        "velocity": 0.71,
        "hand": "right"
      },
      {
        "midi": 56,
        "time": 315.5,
        "duration": 0.6,
        "velocity": 0.71,
        "hand": "right"
      },
      {
        "midi": 68,
        "time": 316.5,
        "duration": 0.6,
        "velocity": 0.71,
        "hand": "right"
      },
      {
        "midi": 77,
        "time": 317.5,
        "duration": 0.6,
        "velocity": 0.71,
        "hand": "right"
      },
      {
        "midi": 73,
        "time": 318.5,
        "duration": 0.6,
        "velocity": 0.71,
        "hand": "right"
      }
    ],
    "medium": [
      {
        "midi": 65,
        "time": 0,
        "duration": 3.5,
        "velocity": 0.71,
        "hand": "right"
      },
      {
        "midi": 68,
        "time": 0,
        "duration": 3.5,
        "velocity": 0.71,
        "hand": "right"
      },
      {
        "midi": 73,
        "time": 2.5,
        "duration": 2,
        "velocity": 0.71,
        "hand": "right"
      },
      {
        "midi": 77,
        "time": 2.5,
        "duration": 2,
        "velocity": 0.71,
        "hand": "right"
      },
      {
        "midi": 66,
        "time": 4,
        "duration": 3.5,
        "velocity": 0.71,
        "hand": "right"
      },
      {
        "midi": 69,
        "time": 4,
        "duration": 3.5,
        "velocity": 0.71,
        "hand": "right"
      },
      {
        "midi": 73,
        "time": 5,
        "duration": 0.5,
        "velocity": 0.71,
        "hand": "right"
      },
      {
        "midi": 77,
        "time": 5,
        "duration": 0.5,
        "velocity": 0.71,
        "hand": "right"
      },
      {
        "midi": 65,
        "time": 8.5,
        "duration": 3.5,
        "velocity": 0.71,
        "hand": "right"
      },
      {
        "midi": 68,
        "time": 8.5,
        "duration": 3.5,
        "velocity": 0.71,
        "hand": "right"
      },
      {
        "midi": 72,
        "time": 9.5,
        "duration": 0.5,
        "velocity": 0.71,
        "hand": "right"
      },
      {
        "midi": 75,
        "time": 9.5,
        "duration": 0.5,
        "velocity": 0.71,
        "hand": "right"
      },
      {
        "midi": 77,
        "time": 10.75,
        "duration": 1.5,
        "velocity": 0.71,
        "hand": "right"
      },
      {
        "midi": 73,
        "time": 12.25,
        "duration": 1.25,
        "velocity": 0.71,
        "hand": "right"
      },
      {
        "midi": 63,
        "time": 13,
        "duration": 3.5,
        "velocity": 0.71,
        "hand": "right"
      },
      {
        "midi": 66,
        "time": 13,
        "duration": 3.5,
        "velocity": 0.71,
        "hand": "right"
      },
      {
        "midi": 70,
        "time": 14,
        "duration": 0.5,
        "velocity": 0.71,
        "hand": "right"
      },
      {
        "midi": 73,
        "time": 14,
        "duration": 0.5,
        "velocity": 0.71,
        "hand": "right"
      },
      {
        "midi": 61,
        "time": 17.5,
        "duration": 3,
        "velocity": 0.71,
        "hand": "right"
      },
      {
        "midi": 66,
        "time": 17.5,
        "duration": 2.985,
        "velocity": 0.71,
        "hand": "right"
      },
      {
        "midi": 72,
        "time": 18.5,
        "duration": 0.5,
        "velocity": 0.71,
        "hand": "right"
      },
      {
        "midi": 75,
        "time": 19.5,
        "duration": 0.5,
        "velocity": 0.71,
        "hand": "right"
      },
      {
        "midi": 60,
        "time": 20.5,
        "duration": 1.5,
        "velocity": 0.71,
        "hand": "right"
      },
      {
        "midi": 68,
        "time": 20.5,
        "duration": 0.5,
        "velocity": 0.71,
        "hand": "right"
      },
      {
        "midi": 68,
        "time": 21.5,
        "duration": 1,
        "velocity": 0.71,
        "hand": "right"
      },
      {
        "midi": 66,
        "time": 22.5,
        "duration": 0.5,
        "velocity": 0.71,
        "hand": "right"
      },
      {
        "midi": 66,
        "time": 23.5,
        "duration": 1.5,
        "velocity": 0.71,
        "hand": "right"
      },
      {
        "midi": 57,
        "time": 25,
        "duration": 1.5,
        "velocity": 0.71,
        "hand": "left"
      },
      {
        "midi": 65,
        "time": 25,
        "duration": 1.985,
        "velocity": 0.71,
        "hand": "right"
      },
      {
        "midi": 56,
        "time": 26.5,
        "duration": 3,
        "velocity": 0.71,
        "hand": "left"
      },
      {
        "midi": 61,
        "time": 26.5,
        "duration": 3.5,
        "velocity": 0.71,
        "hand": "right"
      },
      {
        "midi": 66,
        "time": 27.5,
        "duration": 0.5,
        "velocity": 0.71,
        "hand": "right"
      },
      {
        "midi": 70,
        "time": 28.5,
        "duration": 0.5,
        "velocity": 0.71,
        "hand": "right"
      },
      {
        "midi": 54,
        "time": 29.5,
        "duration": 1.5,
        "velocity": 0.71,
        "hand": "left"
      },
      {
        "midi": 63,
        "time": 29.5,
        "duration": 0.5,
        "velocity": 0.71,
        "hand": "right"
      },
      {
        "midi": 63,
        "time": 30.5,
        "duration": 1,
        "velocity": 0.71,
        "hand": "right"
      },
      {
        "midi": 61,
        "time": 31.5,
        "duration": 0.5,
        "velocity": 0.71,
        "hand": "right"
      },
      {
        "midi": 61,
        "time": 32.5,
        "duration": 1.5,
        "velocity": 0.71,
        "hand": "right"
      },
      {
        "midi": 51,
        "time": 34,
        "duration": 0.75,
        "velocity": 0.71,
        "hand": "left"
      },
      {
        "midi": 60,
        "time": 34,
        "duration": 1.5,
        "velocity": 0.71,
        "hand": "right"
      },
      {
        "midi": 44,
        "time": 34.75,
        "duration": 1.25,
        "velocity": 0.71,
        "hand": "left"
      },
      {
        "midi": 37,
        "time": 35.5,
        "duration": 0.5,
        "velocity": 0.71,
        "hand": "left"
      },
      {
        "midi": 65,
        "time": 36.5,
        "duration": 3.5,
        "velocity": 0.71,
        "hand": "right"
      },
      {
        "midi": 68,
        "time": 36.5,
        "duration": 3.5,
        "velocity": 0.71,
        "hand": "right"
      },
      {
        "midi": 73,
        "time": 38.5,
        "duration": 2,
        "velocity": 0.71,
        "hand": "right"
      },
      {
        "midi": 77,
        "time": 38.5,
        "duration": 2,
        "velocity": 0.71,
        "hand": "right"
      },
      {
        "midi": 42,
        "time": 40,
        "duration": 3,
        "velocity": 0.71,
        "hand": "left"
      },
      {
        "midi": 49,
        "time": 40,
        "duration": 3.5,
        "velocity": 0.71,
        "hand": "left"
      },
      {
        "midi": 77,
        "time": 41,
        "duration": 0.5,
        "velocity": 0.71,
        "hand": "right"
      },
      {
        "midi": 41,
        "time": 44.5,
        "duration": 3,
        "velocity": 0.71,
        "hand": "left"
      },
      {
        "midi": 49,
        "time": 44.5,
        "duration": 3,
        "velocity": 0.71,
        "hand": "left"
      },
      {
        "midi": 63,
        "time": 45.5,
        "duration": 0.5,
        "velocity": 0.71,
        "hand": "right"
      },
      {
        "midi": 75,
        "time": 45.5,
        "duration": 0.5,
        "velocity": 0.71,
        "hand": "right"
      },
      {
        "midi": 77,
        "time": 47.5,
        "duration": 2,
        "velocity": 0.71,
        "hand": "right"
      },
      {
        "midi": 42,
        "time": 49,
        "duration": 3,
        "velocity": 0.71,
        "hand": "left"
      },
      {
        "midi": 49,
        "time": 49,
        "duration": 3.5,
        "velocity": 0.71,
        "hand": "left"
      },
      {
        "midi": 77,
        "time": 50,
        "duration": 0.5,
        "velocity": 0.71,
        "hand": "right"
      },
      {
        "midi": 73,
        "time": 52,
        "duration": 1.985,
        "velocity": 0.71,
        "hand": "right"
      },
      {
        "midi": 44,
        "time": 53.5,
        "duration": 3.5,
        "velocity": 0.71,
        "hand": "left"
      },
      {
        "midi": 63,
        "time": 54.5,
        "duration": 0.5,
        "velocity": 0.71,
        "hand": "right"
      },
      {
        "midi": 75,
        "time": 54.5,
        "duration": 0.5,
        "velocity": 0.71,
        "hand": "right"
      },
      {
        "midi": 68,
        "time": 55.75,
        "duration": 1.5,
        "velocity": 0.71,
        "hand": "right"
      },
      {
        "midi": 80,
        "time": 55.75,
        "duration": 1.5,
        "velocity": 0.71,
        "hand": "right"
      },
      {
        "midi": 65,
        "time": 57.25,
        "duration": 0.75,
        "velocity": 0.71,
        "hand": "right"
      },
      {
        "midi": 77,
        "time": 58,
        "duration": 0.5,
        "velocity": 0.71,
        "hand": "right"
      },
      {
        "midi": 77,
        "time": 59,
        "duration": 0.5,
        "velocity": 0.71,
        "hand": "right"
      },
      {
        "midi": 61,
        "time": 60.25,
        "duration": 2.25,
        "velocity": 0.71,
        "hand": "right"
      },
      {
        "midi": 73,
        "time": 60.25,
        "duration": 1.5,
        "velocity": 0.71,
        "hand": "right"
      },
      {
        "midi": 39,
        "time": 62.5,
        "duration": 3,
        "velocity": 0.71,
        "hand": "left"
      },
      {
        "midi": 66,
        "time": 63.25,
        "duration": 1.235,
        "velocity": 0.71,
        "hand": "right"
      },
      {
        "midi": 82,
        "time": 63.25,
        "duration": 1.235,
        "velocity": 0.71,
        "hand": "right"
      },
      {
        "midi": 66,
        "time": 64.5,
        "duration": 0.485,
        "velocity": 0.71,
        "hand": "right"
      },
      {
        "midi": 82,
        "time": 64.5,
        "duration": 0.485,
        "velocity": 0.71,
        "hand": "right"
      },
      {
        "midi": 66,
        "time": 65.5,
        "duration": 0.485,
        "velocity": 0.71,
        "hand": "right"
      },
      {
        "midi": 82,
        "time": 65.5,
        "duration": 0.485,
        "velocity": 0.71,
        "hand": "right"
      },
      {
        "midi": 66,
        "time": 66.5,
        "duration": 0.485,
        "velocity": 0.71,
        "hand": "right"
      },
      {
        "midi": 82,
        "time": 66.5,
        "duration": 0.485,
        "velocity": 0.71,
        "hand": "right"
      },
      {
        "midi": 72,
        "time": 67.5,
        "duration": 0.485,
        "velocity": 0.71,
        "hand": "right"
      },
      {
        "midi": 84,
        "time": 67.5,
        "duration": 0.485,
        "velocity": 0.71,
        "hand": "right"
      },
      {
        "midi": 72,
        "time": 68.5,
        "duration": 0.75,
        "velocity": 0.71,
        "hand": "right"
      },
      {
        "midi": 84,
        "time": 68.5,
        "duration": 0.75,
        "velocity": 0.71,
        "hand": "right"
      },
      {
        "midi": 66,
        "time": 69.25,
        "duration": 0.735,
        "velocity": 0.71,
        "hand": "right"
      },
      {
        "midi": 82,
        "time": 69.25,
        "duration": 0.735,
        "velocity": 0.71,
        "hand": "right"
      },
      {
        "midi": 82,
        "time": 70,
        "duration": 1.5,
        "velocity": 0.71,
        "hand": "right"
      },
      {
        "midi": 39,
        "time": 71.5,
        "duration": 3,
        "velocity": 0.71,
        "hand": "left"
      },
      {
        "midi": 46,
        "time": 71.5,
        "duration": 3,
        "velocity": 0.71,
        "hand": "left"
      },
      {
        "midi": 66,
        "time": 72.25,
        "duration": 1.235,
        "velocity": 0.71,
        "hand": "right"
      },
      {
        "midi": 82,
        "time": 72.25,
        "duration": 1.235,
        "velocity": 0.71,
        "hand": "right"
      },
      {
        "midi": 70,
        "time": 73.5,
        "duration": 0.485,
        "velocity": 0.71,
        "hand": "right"
      },
      {
        "midi": 82,
        "time": 73.5,
        "duration": 0.485,
        "velocity": 0.71,
        "hand": "right"
      },
      {
        "midi": 66,
        "time": 74.5,
        "duration": 0.485,
        "velocity": 0.71,
        "hand": "right"
      },
      {
        "midi": 82,
        "time": 74.5,
        "duration": 0.485,
        "velocity": 0.71,
        "hand": "right"
      },
      {
        "midi": 66,
        "time": 75.5,
        "duration": 0.485,
        "velocity": 0.71,
        "hand": "right"
      },
      {
        "midi": 82,
        "time": 75.5,
        "duration": 0.485,
        "velocity": 0.71,
        "hand": "right"
      },
      {
        "midi": 66,
        "time": 76.5,
        "duration": 0.485,
        "velocity": 0.71,
        "hand": "right"
      },
      {
        "midi": 82,
        "time": 76.5,
        "duration": 0.485,
        "velocity": 0.71,
        "hand": "right"
      },
      {
        "midi": 84,
        "time": 77.5,
        "duration": 0.5,
        "velocity": 0.71,
        "hand": "right"
      },
      {
        "midi": 66,
        "time": 78.25,
        "duration": 0.735,
        "velocity": 0.71,
        "hand": "right"
      },
      {
        "midi": 82,
        "time": 78.25,
        "duration": 0.735,
        "velocity": 0.71,
        "hand": "right"
      },
      {
        "midi": 82,
        "time": 79,
        "duration": 2.25,
        "velocity": 0.71,
        "hand": "right"
      },
      {
        "midi": 44,
        "time": 80.5,
        "duration": 3,
        "velocity": 0.71,
        "hand": "left"
      },
      {
        "midi": 78,
        "time": 81.25,
        "duration": 0.75,
        "velocity": 0.71,
        "hand": "right"
      },
      {
        "midi": 80,
        "time": 82,
        "duration": 0.75,
        "velocity": 0.71,
        "hand": "right"
      },
      {
        "midi": 72,
        "time": 82.75,
        "duration": 0.75,
        "velocity": 0.71,
        "hand": "right"
      },
      {
        "midi": 84,
        "time": 82.75,
        "duration": 0.75,
        "velocity": 0.71,
        "hand": "right"
      },
      {
        "midi": 82,
        "time": 83.5,
        "duration": 0.75,
        "velocity": 0.71,
        "hand": "right"
      },
      {
        "midi": 78,
        "time": 84.25,
        "duration": 0.75,
        "velocity": 0.71,
        "hand": "right"
      },
      {
        "midi": 45,
        "time": 85,
        "duration": 3,
        "velocity": 0.71,
        "hand": "left"
      },
      {
        "midi": 78,
        "time": 86,
        "duration": 0.485,
        "velocity": 0.71,
        "hand": "right"
      },
      {
        "midi": 78,
        "time": 87,
        "duration": 0.5,
        "velocity": 0.71,
        "hand": "right"
      },
      {
        "midi": 78,
        "time": 88,
        "duration": 1.5,
        "velocity": 0.71,
        "hand": "right"
      },
      {
        "midi": 46,
        "time": 89.5,
        "duration": 3,
        "velocity": 0.71,
        "hand": "left"
      },
      {
        "midi": 78,
        "time": 90.25,
        "duration": 0.75,
        "velocity": 0.71,
        "hand": "right"
      },
      {
        "midi": 80,
        "time": 91,
        "duration": 0.75,
        "velocity": 0.71,
        "hand": "right"
      },
      {
        "midi": 61,
        "time": 91.75,
        "duration": 0.735,
        "velocity": 0.71,
        "hand": "right"
      },
      {
        "midi": 73,
        "time": 91.75,
        "duration": 0.75,
        "velocity": 0.71,
        "hand": "right"
      },
      {
        "midi": 82,
        "time": 92.5,
        "duration": 0.75,
        "velocity": 0.71,
        "hand": "right"
      },
      {
        "midi": 54,
        "time": 93.25,
        "duration": 0.75,
        "velocity": 0.71,
        "hand": "left"
      },
      {
        "midi": 66,
        "time": 93.25,
        "duration": 0.75,
        "velocity": 0.71,
        "hand": "right"
      },
      {
        "midi": 44,
        "time": 94,
        "duration": 3,
        "velocity": 0.71,
        "hand": "left"
      },
      {
        "midi": 78,
        "time": 95,
        "duration": 0.485,
        "velocity": 0.71,
        "hand": "right"
      },
      {
        "midi": 78,
        "time": 96,
        "duration": 0.5,
        "velocity": 0.71,
        "hand": "right"
      },
      {
        "midi": 78,
        "time": 97,
        "duration": 1.5,
        "velocity": 0.71,
        "hand": "right"
      },
      {
        "midi": 37,
        "time": 98.5,
        "duration": 3,
        "velocity": 0.71,
        "hand": "left"
      },
      {
        "midi": 49,
        "time": 98.5,
        "duration": 3,
        "velocity": 0.71,
        "hand": "left"
      },
      {
        "midi": 78,
        "time": 99.25,
        "duration": 0.75,
        "velocity": 0.71,
        "hand": "right"
      },
      {
        "midi": 80,
        "time": 100,
        "duration": 0.75,
        "velocity": 0.71,
        "hand": "right"
      },
      {
        "midi": 63,
        "time": 100.75,
        "duration": 0.75,
        "velocity": 0.71,
        "hand": "right"
      },
      {
        "midi": 75,
        "time": 100.75,
        "duration": 0.75,
        "velocity": 0.71,
        "hand": "right"
      },
      {
        "midi": 70,
        "time": 101.5,
        "duration": 0.735,
        "velocity": 0.71,
        "hand": "right"
      },
      {
        "midi": 82,
        "time": 101.5,
        "duration": 1.5,
        "velocity": 0.71,
        "hand": "right"
      },
      {
        "midi": 58,
        "time": 102.25,
        "duration": 0.75,
        "velocity": 0.71,
        "hand": "left"
      },
      {
        "midi": 70,
        "time": 102.25,
        "duration": 0.75,
        "velocity": 0.71,
        "hand": "right"
      },
      {
        "midi": 39,
        "time": 103,
        "duration": 3,
        "velocity": 0.71,
        "hand": "left"
      },
      {
        "midi": 51,
        "time": 103,
        "duration": 3,
        "velocity": 0.71,
        "hand": "left"
      },
      {
        "midi": 82,
        "time": 104,
        "duration": 0.485,
        "velocity": 0.71,
        "hand": "right"
      },
      {
        "midi": 82,
        "time": 105,
        "duration": 0.5,
        "velocity": 0.71,
        "hand": "right"
      },
      {
        "midi": 82,
        "time": 106,
        "duration": 0.485,
        "velocity": 0.71,
        "hand": "right"
      },
      {
        "midi": 66,
        "time": 107,
        "duration": 0.5,
        "velocity": 0.71,
        "hand": "right"
      },
      {
        "midi": 82,
        "time": 107,
        "duration": 0.5,
        "velocity": 0.71,
        "hand": "right"
      },
      {
        "midi": 70,
        "time": 110.5,
        "duration": 1.5,
        "velocity": 0.71,
        "hand": "right"
      },
      {
        "midi": 80,
        "time": 110.5,
        "duration": 1.485,
        "velocity": 0.71,
        "hand": "right"
      },
      {
        "midi": 68,
        "time": 112,
        "duration": 2.985,
        "velocity": 0.71,
        "hand": "right"
      },
      {
        "midi": 80,
        "time": 112,
        "duration": 2.985,
        "velocity": 0.71,
        "hand": "right"
      },
      {
        "midi": 80,
        "time": 115,
        "duration": 1.5,
        "velocity": 0.71,
        "hand": "right"
      },
      {
        "midi": 68,
        "time": 116.5,
        "duration": 2.985,
        "velocity": 0.71,
        "hand": "right"
      },
      {
        "midi": 53,
        "time": 117.25,
        "duration": 0.35,
        "velocity": 0.71,
        "hand": "left"
      },
      {
        "midi": 41,
        "time": 118,
        "duration": 1.5,
        "velocity": 0.71,
        "hand": "left"
      },
      {
        "midi": 56,
        "time": 118.75,
        "duration": 0.35,
        "velocity": 0.71,
        "hand": "left"
      },
      {
        "midi": 56,
        "time": 119.5,
        "duration": 1.5,
        "velocity": 0.71,
        "hand": "left"
      },
      {
        "midi": 71,
        "time": 119.5,
        "duration": 1,
        "velocity": 0.71,
        "hand": "right"
      },
      {
        "midi": 59,
        "time": 120.25,
        "duration": 0.35,
        "velocity": 0.71,
        "hand": "left"
      },
      {
        "midi": 68,
        "time": 121,
        "duration": 2.985,
        "velocity": 0.71,
        "hand": "right"
      },
      {
        "midi": 53,
        "time": 121.75,
        "duration": 0.35,
        "velocity": 0.71,
        "hand": "left"
      },
      {
        "midi": 41,
        "time": 122.5,
        "duration": 1.5,
        "velocity": 0.71,
        "hand": "left"
      },
      {
        "midi": 56,
        "time": 123.25,
        "duration": 0.35,
        "velocity": 0.71,
        "hand": "left"
      },
      {
        "midi": 56,
        "time": 124,
        "duration": 1.5,
        "velocity": 0.71,
        "hand": "left"
      },
      {
        "midi": 71,
        "time": 124,
        "duration": 1,
        "velocity": 0.71,
        "hand": "right"
      },
      {
        "midi": 59,
        "time": 124.75,
        "duration": 0.35,
        "velocity": 0.71,
        "hand": "left"
      },
      {
        "midi": 73,
        "time": 125.5,
        "duration": 1,
        "velocity": 0.71,
        "hand": "right"
      },
      {
        "midi": 53,
        "time": 126.25,
        "duration": 0.35,
        "velocity": 0.71,
        "hand": "left"
      },
      {
        "midi": 65,
        "time": 127,
        "duration": 0.35,
        "velocity": 0.71,
        "hand": "right"
      },
      {
        "midi": 77,
        "time": 127,
        "duration": 1.5,
        "velocity": 0.71,
        "hand": "right"
      },
      {
        "midi": 61,
        "time": 127.75,
        "duration": 0.35,
        "velocity": 0.71,
        "hand": "right"
      },
      {
        "midi": 73,
        "time": 128.5,
        "duration": 0.985,
        "velocity": 0.71,
        "hand": "right"
      },
      {
        "midi": 44,
        "time": 129.25,
        "duration": 0.35,
        "velocity": 0.71,
        "hand": "left"
      },
      {
        "midi": 79,
        "time": 130,
        "duration": 0.5,
        "velocity": 0.71,
        "hand": "right"
      },
      {
        "midi": 55,
        "time": 130.75,
        "duration": 0.35,
        "velocity": 0.71,
        "hand": "left"
      },
      {
        "midi": 67,
        "time": 131.5,
        "duration": 0.5,
        "velocity": 0.71,
        "hand": "right"
      },
      {
        "midi": 73,
        "time": 131.5,
        "duration": 1.5,
        "velocity": 0.71,
        "hand": "right"
      },
      {
        "midi": 55,
        "time": 132.25,
        "duration": 0.35,
        "velocity": 0.71,
        "hand": "left"
      },
      {
        "midi": 51,
        "time": 133,
        "duration": 0.35,
        "velocity": 0.71,
        "hand": "left"
      },
      {
        "midi": 61,
        "time": 133,
        "duration": 0.75,
        "velocity": 0.71,
        "hand": "right"
      },
      {
        "midi": 55,
        "time": 133.75,
        "duration": 0.35,
        "velocity": 0.71,
        "hand": "left"
      },
      {
        "midi": 58,
        "time": 133.75,
        "duration": 0.75,
        "velocity": 0.71,
        "hand": "left"
      },
      {
        "midi": 56,
        "time": 134.5,
        "duration": 1.5,
        "velocity": 0.71,
        "hand": "left"
      },
      {
        "midi": 70,
        "time": 134.5,
        "duration": 3,
        "velocity": 0.71,
        "hand": "right"
      },
      {
        "midi": 58,
        "time": 135.25,
        "duration": 0.35,
        "velocity": 0.71,
        "hand": "left"
      },
      {
        "midi": 42,
        "time": 136,
        "duration": 1.5,
        "velocity": 0.71,
        "hand": "left"
      },
      {
        "midi": 58,
        "time": 136.75,
        "duration": 0.35,
        "velocity": 0.71,
        "hand": "left"
      },
      {
        "midi": 72,
        "time": 137.5,
        "duration": 1,
        "velocity": 0.71,
        "hand": "right"
      },
      {
        "midi": 56,
        "time": 138.25,
        "duration": 0.35,
        "velocity": 0.71,
        "hand": "left"
      },
      {
        "midi": 56,
        "time": 139,
        "duration": 1.5,
        "velocity": 0.71,
        "hand": "left"
      },
      {
        "midi": 70,
        "time": 139,
        "duration": 3,
        "velocity": 0.71,
        "hand": "right"
      },
      {
        "midi": 58,
        "time": 139.75,
        "duration": 0.35,
        "velocity": 0.71,
        "hand": "left"
      },
      {
        "midi": 42,
        "time": 140.5,
        "duration": 1.5,
        "velocity": 0.71,
        "hand": "left"
      },
      {
        "midi": 58,
        "time": 141.25,
        "duration": 0.35,
        "velocity": 0.71,
        "hand": "left"
      },
      {
        "midi": 72,
        "time": 142,
        "duration": 1,
        "velocity": 0.71,
        "hand": "right"
      },
      {
        "midi": 56,
        "time": 142.75,
        "duration": 0.35,
        "velocity": 0.71,
        "hand": "left"
      },
      {
        "midi": 78,
        "time": 143.5,
        "duration": 2.25,
        "velocity": 0.71,
        "hand": "right"
      },
      {
        "midi": 54,
        "time": 144.25,
        "duration": 0.35,
        "velocity": 0.71,
        "hand": "left"
      },
      {
        "midi": 66,
        "time": 145,
        "duration": 0.35,
        "velocity": 0.71,
        "hand": "right"
      },
      {
        "midi": 65,
        "time": 145.75,
        "duration": 0.75,
        "velocity": 0.71,
        "hand": "right"
      },
      {
        "midi": 77,
        "time": 145.75,
        "duration": 0.75,
        "velocity": 0.71,
        "hand": "right"
      },
      {
        "midi": 62,
        "time": 146.5,
        "duration": 0.75,
        "velocity": 0.71,
        "hand": "right"
      },
      {
        "midi": 74,
        "time": 146.5,
        "duration": 0.75,
        "velocity": 0.71,
        "hand": "right"
      },
      {
        "midi": 63,
        "time": 147.25,
        "duration": 0.75,
        "velocity": 0.71,
        "hand": "right"
      },
      {
        "midi": 75,
        "time": 147.25,
        "duration": 0.75,
        "velocity": 0.71,
        "hand": "right"
      },
      {
        "midi": 82,
        "time": 148,
        "duration": 3,
        "velocity": 0.71,
        "hand": "right"
      },
      {
        "midi": 70,
        "time": 148.75,
        "duration": 0.35,
        "velocity": 0.71,
        "hand": "right"
      },
      {
        "midi": 63,
        "time": 149.5,
        "duration": 1.5,
        "velocity": 0.71,
        "hand": "right"
      },
      {
        "midi": 70,
        "time": 150.25,
        "duration": 0.35,
        "velocity": 0.71,
        "hand": "right"
      },
      {
        "midi": 80,
        "time": 151,
        "duration": 1.485,
        "velocity": 0.71,
        "hand": "right"
      },
      {
        "midi": 72,
        "time": 151.75,
        "duration": 0.35,
        "velocity": 0.71,
        "hand": "right"
      },
      {
        "midi": 80,
        "time": 152.5,
        "duration": 2.985,
        "velocity": 0.71,
        "hand": "right"
      },
      {
        "midi": 65,
        "time": 153.25,
        "duration": 0.35,
        "velocity": 0.71,
        "hand": "right"
      },
      {
        "midi": 53,
        "time": 154,
        "duration": 1.5,
        "velocity": 0.71,
        "hand": "left"
      },
      {
        "midi": 56,
        "time": 154,
        "duration": 0.35,
        "velocity": 0.71,
        "hand": "left"
      },
      {
        "midi": 68,
        "time": 154.75,
        "duration": 0.35,
        "velocity": 0.71,
        "hand": "right"
      },
      {
        "midi": 83,
        "time": 155.5,
        "duration": 1,
        "velocity": 0.71,
        "hand": "right"
      },
      {
        "midi": 71,
        "time": 156.25,
        "duration": 0.35,
        "velocity": 0.71,
        "hand": "right"
      },
      {
        "midi": 80,
        "time": 157,
        "duration": 2.985,
        "velocity": 0.71,
        "hand": "right"
      },
      {
        "midi": 65,
        "time": 157.75,
        "duration": 0.35,
        "velocity": 0.71,
        "hand": "right"
      },
      {
        "midi": 53,
        "time": 158.5,
        "duration": 1.5,
        "velocity": 0.71,
        "hand": "left"
      },
      {
        "midi": 56,
        "time": 158.5,
        "duration": 0.35,
        "velocity": 0.71,
        "hand": "left"
      },
      {
        "midi": 68,
        "time": 159.25,
        "duration": 0.35,
        "velocity": 0.71,
        "hand": "right"
      },
      {
        "midi": 83,
        "time": 160,
        "duration": 1,
        "velocity": 0.71,
        "hand": "right"
      },
      {
        "midi": 71,
        "time": 160.75,
        "duration": 0.35,
        "velocity": 0.71,
        "hand": "right"
      },
      {
        "midi": 59,
        "time": 161.5,
        "duration": 1.5,
        "velocity": 0.71,
        "hand": "left"
      },
      {
        "midi": 73,
        "time": 161.5,
        "duration": 0.735,
        "velocity": 0.71,
        "hand": "right"
      },
      {
        "midi": 71,
        "time": 162.25,
        "duration": 0.75,
        "velocity": 0.71,
        "hand": "right"
      },
      {
        "midi": 73,
        "time": 162.25,
        "duration": 0.35,
        "velocity": 0.71,
        "hand": "right"
      },
      {
        "midi": 61,
        "time": 163,
        "duration": 1.5,
        "velocity": 0.71,
        "hand": "right"
      },
      {
        "midi": 76,
        "time": 163,
        "duration": 0.735,
        "velocity": 0.71,
        "hand": "right"
      },
      {
        "midi": 73,
        "time": 163.75,
        "duration": 0.35,
        "velocity": 0.71,
        "hand": "right"
      },
      {
        "midi": 76,
        "time": 163.75,
        "duration": 0.35,
        "velocity": 0.71,
        "hand": "right"
      },
      {
        "midi": 64,
        "time": 164.5,
        "duration": 1.5,
        "velocity": 0.71,
        "hand": "right"
      },
      {
        "midi": 80,
        "time": 164.5,
        "duration": 0.735,
        "velocity": 0.71,
        "hand": "right"
      },
      {
        "midi": 76,
        "time": 165.25,
        "duration": 0.35,
        "velocity": 0.71,
        "hand": "right"
      },
      {
        "midi": 80,
        "time": 165.25,
        "duration": 0.35,
        "velocity": 0.71,
        "hand": "right"
      },
      {
        "midi": 68,
        "time": 166,
        "duration": 1.5,
        "velocity": 0.71,
        "hand": "right"
      },
      {
        "midi": 80,
        "time": 166,
        "duration": 0.735,
        "velocity": 0.71,
        "hand": "right"
      },
      {
        "midi": 80,
        "time": 166.75,
        "duration": 0.35,
        "velocity": 0.71,
        "hand": "right"
      },
      {
        "midi": 66,
        "time": 167.5,
        "duration": 1.485,
        "velocity": 0.71,
        "hand": "right"
      },
      {
        "midi": 78,
        "time": 167.5,
        "duration": 0.735,
        "velocity": 0.71,
        "hand": "right"
      },
      {
        "midi": 78,
        "time": 168.25,
        "duration": 0.35,
        "velocity": 0.71,
        "hand": "right"
      },
      {
        "midi": 66,
        "time": 169,
        "duration": 0.35,
        "velocity": 0.71,
        "hand": "right"
      },
      {
        "midi": 78,
        "time": 169.75,
        "duration": 0.35,
        "velocity": 0.71,
        "hand": "right"
      },
      {
        "midi": 64,
        "time": 170.5,
        "duration": 1.5,
        "velocity": 0.71,
        "hand": "right"
      },
      {
        "midi": 78,
        "time": 170.5,
        "duration": 0.735,
        "velocity": 0.71,
        "hand": "right"
      },
      {
        "midi": 78,
        "time": 171.25,
        "duration": 0.35,
        "velocity": 0.71,
        "hand": "right"
      },
      {
        "midi": 63,
        "time": 172,
        "duration": 1.5,
        "velocity": 0.71,
        "hand": "right"
      },
      {
        "midi": 66,
        "time": 172,
        "duration": 0.35,
        "velocity": 0.71,
        "hand": "right"
      },
      {
        "midi": 78,
        "time": 172.75,
        "duration": 0.35,
        "velocity": 0.71,
        "hand": "right"
      },
      {
        "midi": 81,
        "time": 173.5,
        "duration": 1,
        "velocity": 0.71,
        "hand": "right"
      },
      {
        "midi": 76,
        "time": 174.25,
        "duration": 0.35,
        "velocity": 0.71,
        "hand": "right"
      },
      {
        "midi": 78,
        "time": 175,
        "duration": 3,
        "velocity": 0.71,
        "hand": "right"
      },
      {
        "midi": 66,
        "time": 175.75,
        "duration": 0.35,
        "velocity": 0.71,
        "hand": "right"
      },
      {
        "midi": 57,
        "time": 176.5,
        "duration": 1.5,
        "velocity": 0.71,
        "hand": "left"
      },
      {
        "midi": 66,
        "time": 177.25,
        "duration": 0.35,
        "velocity": 0.71,
        "hand": "right"
      },
      {
        "midi": 81,
        "time": 178,
        "duration": 1,
        "velocity": 0.71,
        "hand": "right"
      },
      {
        "midi": 69,
        "time": 178.75,
        "duration": 0.35,
        "velocity": 0.71,
        "hand": "right"
      },
      {
        "midi": 76,
        "time": 179.5,
        "duration": 0.5,
        "velocity": 0.71,
        "hand": "right"
      },
      {
        "midi": 66,
        "time": 180.25,
        "duration": 0.35,
        "velocity": 0.71,
        "hand": "right"
      },
      {
        "midi": 76,
        "time": 181,
        "duration": 0.35,
        "velocity": 0.71,
        "hand": "right"
      },
      {
        "midi": 83,
        "time": 181,
        "duration": 0.75,
        "velocity": 0.71,
        "hand": "right"
      },
      {
        "midi": 73,
        "time": 181.75,
        "duration": 0.35,
        "velocity": 0.71,
        "hand": "right"
      },
      {
        "midi": 81,
        "time": 181.75,
        "duration": 1.25,
        "velocity": 0.71,
        "hand": "right"
      },
      {
        "midi": 64,
        "time": 182.5,
        "duration": 0.35,
        "velocity": 0.71,
        "hand": "right"
      },
      {
        "midi": 61,
        "time": 183.25,
        "duration": 0.35,
        "velocity": 0.71,
        "hand": "right"
      },
      {
        "midi": 76,
        "time": 184,
        "duration": 0.5,
        "velocity": 0.71,
        "hand": "right"
      },
      {
        "midi": 54,
        "time": 184.75,
        "duration": 0.35,
        "velocity": 0.71,
        "hand": "left"
      },
      {
        "midi": 64,
        "time": 185.5,
        "duration": 0.35,
        "velocity": 0.71,
        "hand": "right"
      },
      {
        "midi": 71,
        "time": 185.5,
        "duration": 0.5,
        "velocity": 0.71,
        "hand": "right"
      },
      {
        "midi": 54,
        "time": 186.25,
        "duration": 0.35,
        "velocity": 0.71,
        "hand": "left"
      },
      {
        "midi": 42,
        "time": 187,
        "duration": 0.35,
        "velocity": 0.71,
        "hand": "left"
      },
      {
        "midi": 57,
        "time": 187,
        "duration": 1.5,
        "velocity": 0.71,
        "hand": "left"
      },
      {
        "midi": 49,
        "time": 187.75,
        "duration": 0.35,
        "velocity": 0.71,
        "hand": "left"
      },
      {
        "midi": 56,
        "time": 188.5,
        "duration": 0.35,
        "velocity": 0.71,
        "hand": "left"
      },
      {
        "midi": 63,
        "time": 188.5,
        "duration": 2.985,
        "velocity": 0.71,
        "hand": "right"
      },
      {
        "midi": 51,
        "time": 189.25,
        "duration": 0.35,
        "velocity": 0.71,
        "hand": "left"
      },
      {
        "midi": 44,
        "time": 190,
        "duration": 0.35,
        "velocity": 0.71,
        "hand": "left"
      },
      {
        "midi": 58,
        "time": 190,
        "duration": 1,
        "velocity": 0.71,
        "hand": "left"
      },
      {
        "midi": 51,
        "time": 190.75,
        "duration": 0.35,
        "velocity": 0.71,
        "hand": "left"
      },
      {
        "midi": 56,
        "time": 191.5,
        "duration": 0.35,
        "velocity": 0.71,
        "hand": "left"
      },
      {
        "midi": 66,
        "time": 191.5,
        "duration": 0.985,
        "velocity": 0.71,
        "hand": "right"
      },
      {
        "midi": 51,
        "time": 192.25,
        "duration": 0.35,
        "velocity": 0.71,
        "hand": "left"
      },
      {
        "midi": 56,
        "time": 193,
        "duration": 0.35,
        "velocity": 0.71,
        "hand": "left"
      },
      {
        "midi": 63,
        "time": 193,
        "duration": 2.985,
        "velocity": 0.71,
        "hand": "right"
      },
      {
        "midi": 51,
        "time": 193.75,
        "duration": 0.35,
        "velocity": 0.71,
        "hand": "left"
      },
      {
        "midi": 44,
        "time": 194.5,
        "duration": 0.35,
        "velocity": 0.71,
        "hand": "left"
      },
      {
        "midi": 58,
        "time": 194.5,
        "duration": 1,
        "velocity": 0.71,
        "hand": "left"
      },
      {
        "midi": 51,
        "time": 195.25,
        "duration": 0.35,
        "velocity": 0.71,
        "hand": "left"
      },
      {
        "midi": 56,
        "time": 196,
        "duration": 0.35,
        "velocity": 0.71,
        "hand": "left"
      },
      {
        "midi": 66,
        "time": 196,
        "duration": 0.985,
        "velocity": 0.71,
        "hand": "right"
      },
      {
        "midi": 51,
        "time": 196.75,
        "duration": 0.35,
        "velocity": 0.71,
        "hand": "left"
      },
      {
        "midi": 56,
        "time": 197.5,
        "duration": 0.35,
        "velocity": 0.71,
        "hand": "left"
      },
      {
        "midi": 61,
        "time": 197.5,
        "duration": 0.5,
        "velocity": 0.71,
        "hand": "right"
      },
      {
        "midi": 51,
        "time": 198.25,
        "duration": 0.35,
        "velocity": 0.71,
        "hand": "left"
      },
      {
        "midi": 56,
        "time": 199,
        "duration": 0.35,
        "velocity": 0.71,
        "hand": "left"
      },
      {
        "midi": 70,
        "time": 199,
        "duration": 1.5,
        "velocity": 0.71,
        "hand": "right"
      },
      {
        "midi": 63,
        "time": 199.75,
        "duration": 0.35,
        "velocity": 0.71,
        "hand": "right"
      },
      {
        "midi": 56,
        "time": 200.5,
        "duration": 0.35,
        "velocity": 0.71,
        "hand": "left"
      },
      {
        "midi": 68,
        "time": 200.5,
        "duration": 1.5,
        "velocity": 0.71,
        "hand": "right"
      },
      {
        "midi": 51,
        "time": 201.25,
        "duration": 0.35,
        "velocity": 0.71,
        "hand": "left"
      },
      {
        "midi": 56,
        "time": 202,
        "duration": 0.35,
        "velocity": 0.71,
        "hand": "left"
      },
      {
        "midi": 70,
        "time": 202,
        "duration": 0.5,
        "velocity": 0.71,
        "hand": "right"
      },
      {
        "midi": 51,
        "time": 202.75,
        "duration": 0.35,
        "velocity": 0.71,
        "hand": "left"
      },
      {
        "midi": 56,
        "time": 203.5,
        "duration": 0.35,
        "velocity": 0.71,
        "hand": "left"
      },
      {
        "midi": 70,
        "time": 203.5,
        "duration": 1.5,
        "velocity": 0.71,
        "hand": "right"
      },
      {
        "midi": 63,
        "time": 204.25,
        "duration": 0.35,
        "velocity": 0.71,
        "hand": "right"
      },
      {
        "midi": 56,
        "time": 205,
        "duration": 0.35,
        "velocity": 0.71,
        "hand": "left"
      },
      {
        "midi": 68,
        "time": 205,
        "duration": 1.5,
        "velocity": 0.71,
        "hand": "right"
      },
      {
        "midi": 51,
        "time": 205.75,
        "duration": 0.35,
        "velocity": 0.71,
        "hand": "left"
      },
      {
        "midi": 75,
        "time": 206.5,
        "duration": 3,
        "velocity": 0.71,
        "hand": "right"
      },
      {
        "midi": 70,
        "time": 207.25,
        "duration": 0.35,
        "velocity": 0.71,
        "hand": "right"
      },
      {
        "midi": 58,
        "time": 208,
        "duration": 1,
        "velocity": 0.71,
        "hand": "left"
      },
      {
        "midi": 70,
        "time": 208.75,
        "duration": 0.35,
        "velocity": 0.71,
        "hand": "right"
      },
      {
        "midi": 78,
        "time": 209.5,
        "duration": 1,
        "velocity": 0.71,
        "hand": "right"
      },
      {
        "midi": 70,
        "time": 210.25,
        "duration": 0.35,
        "velocity": 0.71,
        "hand": "right"
      },
      {
        "midi": 75,
        "time": 211,
        "duration": 3,
        "velocity": 0.71,
        "hand": "right"
      },
      {
        "midi": 70,
        "time": 211.75,
        "duration": 0.35,
        "velocity": 0.71,
        "hand": "right"
      },
      {
        "midi": 58,
        "time": 212.5,
        "duration": 1,
        "velocity": 0.71,
        "hand": "left"
      },
      {
        "midi": 70,
        "time": 213.25,
        "duration": 0.35,
        "velocity": 0.71,
        "hand": "right"
      },
      {
        "midi": 78,
        "time": 214,
        "duration": 1,
        "velocity": 0.71,
        "hand": "right"
      },
      {
        "midi": 70,
        "time": 214.75,
        "duration": 0.35,
        "velocity": 0.71,
        "hand": "right"
      },
      {
        "midi": 66,
        "time": 215.5,
        "duration": 3.5,
        "velocity": 0.71,
        "hand": "right"
      },
      {
        "midi": 75,
        "time": 215.5,
        "duration": 0.735,
        "velocity": 0.71,
        "hand": "right"
      },
      {
        "midi": 75,
        "time": 216.25,
        "duration": 0.35,
        "velocity": 0.71,
        "hand": "right"
      },
      {
        "midi": 70,
        "time": 217.25,
        "duration": 0.35,
        "velocity": 0.71,
        "hand": "right"
      },
      {
        "midi": 78,
        "time": 218,
        "duration": 0.35,
        "velocity": 0.71,
        "hand": "right"
      },
      {
        "midi": 70,
        "time": 218.75,
        "duration": 0.35,
        "velocity": 0.71,
        "hand": "right"
      },
      {
        "midi": 78,
        "time": 219.5,
        "duration": 0.35,
        "velocity": 0.71,
        "hand": "right"
      },
      {
        "midi": 69,
        "time": 220.25,
        "duration": 0.35,
        "velocity": 0.71,
        "hand": "right"
      },
      {
        "midi": 78,
        "time": 221,
        "duration": 0.35,
        "velocity": 0.71,
        "hand": "right"
      },
      {
        "midi": 69,
        "time": 221.75,
        "duration": 0.35,
        "velocity": 0.71,
        "hand": "right"
      },
      {
        "midi": 78,
        "time": 222.5,
        "duration": 0.35,
        "velocity": 0.71,
        "hand": "right"
      },
      {
        "midi": 69,
        "time": 223.25,
        "duration": 0.35,
        "velocity": 0.71,
        "hand": "right"
      },
      {
        "midi": 78,
        "time": 224,
        "duration": 0.35,
        "velocity": 0.71,
        "hand": "right"
      },
      {
        "midi": 68,
        "time": 224.75,
        "duration": 0.35,
        "velocity": 0.71,
        "hand": "right"
      },
      {
        "midi": 80,
        "time": 225.5,
        "duration": 0.35,
        "velocity": 0.71,
        "hand": "right"
      },
      {
        "midi": 65,
        "time": 227.5,
        "duration": 1.485,
        "velocity": 0.71,
        "hand": "right"
      },
      {
        "midi": 77,
        "time": 227.5,
        "duration": 2,
        "velocity": 0.71,
        "hand": "right"
      },
      {
        "midi": 65,
        "time": 229,
        "duration": 2.985,
        "velocity": 0.71,
        "hand": "right"
      },
      {
        "midi": 75,
        "time": 229.75,
        "duration": 0.35,
        "velocity": 0.71,
        "hand": "right"
      },
      {
        "midi": 75,
        "time": 230.5,
        "duration": 3.5,
        "velocity": 0.71,
        "hand": "right"
      },
      {
        "midi": 84,
        "time": 230.5,
        "duration": 3.5,
        "velocity": 0.71,
        "hand": "right"
      },
      {
        "midi": 65,
        "time": 232,
        "duration": 1.485,
        "velocity": 0.71,
        "hand": "right"
      },
      {
        "midi": 65,
        "time": 233.5,
        "duration": 2.985,
        "velocity": 0.71,
        "hand": "right"
      },
      {
        "midi": 73,
        "time": 234.25,
        "duration": 0.35,
        "velocity": 0.71,
        "hand": "right"
      },
      {
        "midi": 73,
        "time": 235,
        "duration": 0.735,
        "velocity": 0.71,
        "hand": "right"
      },
      {
        "midi": 82,
        "time": 235,
        "duration": 3.5,
        "velocity": 0.71,
        "hand": "right"
      },
      {
        "midi": 73,
        "time": 235.75,
        "duration": 1.485,
        "velocity": 0.71,
        "hand": "right"
      },
      {
        "midi": 77,
        "time": 235.75,
        "duration": 1.5,
        "velocity": 0.71,
        "hand": "right"
      },
      {
        "midi": 65,
        "time": 236.5,
        "duration": 1.5,
        "velocity": 0.71,
        "hand": "right"
      },
      {
        "midi": 73,
        "time": 237.25,
        "duration": 1.25,
        "velocity": 0.71,
        "hand": "right"
      },
      {
        "midi": 63,
        "time": 238,
        "duration": 2.985,
        "velocity": 0.71,
        "hand": "right"
      },
      {
        "midi": 72,
        "time": 238.75,
        "duration": 0.35,
        "velocity": 0.71,
        "hand": "right"
      },
      {
        "midi": 80,
        "time": 239.5,
        "duration": 3,
        "velocity": 0.71,
        "hand": "right"
      },
      {
        "midi": 84,
        "time": 239.5,
        "duration": 3,
        "velocity": 0.71,
        "hand": "right"
      },
      {
        "midi": 63,
        "time": 241,
        "duration": 1.5,
        "velocity": 0.71,
        "hand": "right"
      },
      {
        "midi": 61,
        "time": 242.5,
        "duration": 3,
        "velocity": 0.71,
        "hand": "right"
      },
      {
        "midi": 70,
        "time": 243.25,
        "duration": 0.35,
        "velocity": 0.71,
        "hand": "right"
      },
      {
        "midi": 78,
        "time": 244,
        "duration": 1.5,
        "velocity": 0.71,
        "hand": "right"
      },
      {
        "midi": 82,
        "time": 244,
        "duration": 0.5,
        "velocity": 0.71,
        "hand": "right"
      },
      {
        "midi": 82,
        "time": 245,
        "duration": 0.5,
        "velocity": 0.71,
        "hand": "right"
      },
      {
        "midi": 82,
        "time": 246,
        "duration": 0.5,
        "velocity": 0.71,
        "hand": "right"
      },
      {
        "midi": 48,
        "time": 247,
        "duration": 3,
        "velocity": 0.71,
        "hand": "left"
      },
      {
        "midi": 60,
        "time": 247.75,
        "duration": 0.35,
        "velocity": 0.71,
        "hand": "right"
      },
      {
        "midi": 70,
        "time": 248.5,
        "duration": 1.5,
        "velocity": 0.71,
        "hand": "right"
      },
      {
        "midi": 78,
        "time": 248.5,
        "duration": 1.5,
        "velocity": 0.71,
        "hand": "right"
      },
      {
        "midi": 77,
        "time": 250,
        "duration": 1.985,
        "velocity": 0.71,
        "hand": "right"
      },
      {
        "midi": 56,
        "time": 251.5,
        "duration": 3,
        "velocity": 0.71,
        "hand": "left"
      },
      {
        "midi": 65,
        "time": 252.25,
        "duration": 0.35,
        "velocity": 0.71,
        "hand": "right"
      },
      {
        "midi": 73,
        "time": 253,
        "duration": 1.485,
        "velocity": 0.71,
        "hand": "right"
      },
      {
        "midi": 77,
        "time": 253,
        "duration": 0.5,
        "velocity": 0.71,
        "hand": "right"
      },
      {
        "midi": 77,
        "time": 254,
        "duration": 0.5,
        "velocity": 0.71,
        "hand": "right"
      },
      {
        "midi": 77,
        "time": 255,
        "duration": 0.5,
        "velocity": 0.71,
        "hand": "right"
      },
      {
        "midi": 53,
        "time": 256,
        "duration": 3,
        "velocity": 0.71,
        "hand": "left"
      },
      {
        "midi": 61,
        "time": 256.75,
        "duration": 0.35,
        "velocity": 0.71,
        "hand": "right"
      },
      {
        "midi": 70,
        "time": 257.5,
        "duration": 1.5,
        "velocity": 0.71,
        "hand": "right"
      },
      {
        "midi": 73,
        "time": 257.5,
        "duration": 1.5,
        "velocity": 0.71,
        "hand": "right"
      },
      {
        "midi": 72,
        "time": 259,
        "duration": 1.5,
        "velocity": 0.71,
        "hand": "right"
      },
      {
        "midi": 44,
        "time": 259.75,
        "duration": 0.735,
        "velocity": 0.71,
        "hand": "left"
      },
      {
        "midi": 37,
        "time": 260.5,
        "duration": 0.5,
        "velocity": 0.71,
        "hand": "left"
      },
      {
        "midi": 44,
        "time": 260.5,
        "duration": 0.5,
        "velocity": 0.71,
        "hand": "left"
      },
      {
        "midi": 65,
        "time": 261.5,
        "duration": 3.5,
        "velocity": 0.71,
        "hand": "right"
      },
      {
        "midi": 68,
        "time": 261.5,
        "duration": 3.5,
        "velocity": 0.71,
        "hand": "right"
      },
      {
        "midi": 73,
        "time": 263.5,
        "duration": 2,
        "velocity": 0.71,
        "hand": "right"
      },
      {
        "midi": 77,
        "time": 263.5,
        "duration": 2,
        "velocity": 0.71,
        "hand": "right"
      },
      {
        "midi": 42,
        "time": 265,
        "duration": 3,
        "velocity": 0.71,
        "hand": "left"
      },
      {
        "midi": 49,
        "time": 265,
        "duration": 3.5,
        "velocity": 0.71,
        "hand": "left"
      },
      {
        "midi": 77,
        "time": 266,
        "duration": 0.5,
        "velocity": 0.71,
        "hand": "right"
      },
      {
        "midi": 44,
        "time": 269.5,
        "duration": 3,
        "velocity": 0.71,
        "hand": "left"
      },
      {
        "midi": 63,
        "time": 270.5,
        "duration": 0.5,
        "velocity": 0.71,
        "hand": "right"
      },
      {
        "midi": 75,
        "time": 270.5,
        "duration": 0.5,
        "velocity": 0.71,
        "hand": "right"
      },
      {
        "midi": 61,
        "time": 272.5,
        "duration": 1.5,
        "velocity": 0.71,
        "hand": "right"
      },
      {
        "midi": 77,
        "time": 272.5,
        "duration": 2,
        "velocity": 0.71,
        "hand": "right"
      },
      {
        "midi": 46,
        "time": 274,
        "duration": 3,
        "velocity": 0.71,
        "hand": "left"
      },
      {
        "midi": 77,
        "time": 275,
        "duration": 0.5,
        "velocity": 0.71,
        "hand": "right"
      },
      {
        "midi": 61,
        "time": 277,
        "duration": 1.5,
        "velocity": 0.71,
        "hand": "right"
      },
      {
        "midi": 73,
        "time": 277,
        "duration": 1.5,
        "velocity": 0.71,
        "hand": "right"
      },
      {
        "midi": 41,
        "time": 278.5,
        "duration": 3.5,
        "velocity": 0.71,
        "hand": "left"
      },
      {
        "midi": 63,
        "time": 279.5,
        "duration": 0.5,
        "velocity": 0.71,
        "hand": "right"
      },
      {
        "midi": 56,
        "time": 281.5,
        "duration": 1.5,
        "velocity": 0.71,
        "hand": "left"
      },
      {
        "midi": 65,
        "time": 281.5,
        "duration": 1.5,
        "velocity": 0.71,
        "hand": "right"
      },
      {
        "midi": 39,
        "time": 283,
        "duration": 1.5,
        "velocity": 0.71,
        "hand": "left"
      },
      {
        "midi": 68,
        "time": 284,
        "duration": 0.5,
        "velocity": 0.71,
        "hand": "right"
      },
      {
        "midi": 61,
        "time": 286,
        "duration": 1.5,
        "velocity": 0.71,
        "hand": "right"
      },
      {
        "midi": 70,
        "time": 286,
        "duration": 1.5,
        "velocity": 0.71,
        "hand": "right"
      },
      {
        "midi": 44,
        "time": 287.5,
        "duration": 3,
        "velocity": 0.71,
        "hand": "left"
      },
      {
        "midi": 51,
        "time": 288.25,
        "duration": 0.75,
        "velocity": 0.71,
        "hand": "left"
      },
      {
        "midi": 68,
        "time": 289,
        "duration": 1.485,
        "velocity": 0.71,
        "hand": "right"
      },
      {
        "midi": 80,
        "time": 289,
        "duration": 1.5,
        "velocity": 0.71,
        "hand": "right"
      },
      {
        "midi": 56,
        "time": 290.5,
        "duration": 1.5,
        "velocity": 0.71,
        "hand": "left"
      },
      {
        "midi": 68,
        "time": 290.5,
        "duration": 1.5,
        "velocity": 0.71,
        "hand": "right"
      },
      {
        "midi": 37,
        "time": 292,
        "duration": 1.5,
        "velocity": 0.71,
        "hand": "left"
      },
      {
        "midi": 53,
        "time": 292.75,
        "duration": 0.35,
        "velocity": 0.71,
        "hand": "left"
      },
      {
        "midi": 41,
        "time": 293.5,
        "duration": 1.5,
        "velocity": 0.71,
        "hand": "left"
      },
      {
        "midi": 56,
        "time": 294.25,
        "duration": 0.35,
        "velocity": 0.71,
        "hand": "left"
      },
      {
        "midi": 37,
        "time": 295,
        "duration": 1.5,
        "velocity": 0.71,
        "hand": "left"
      },
      {
        "midi": 53,
        "time": 295.75,
        "duration": 0.35,
        "velocity": 0.71,
        "hand": "left"
      },
      {
        "midi": 41,
        "time": 296.5,
        "duration": 1.5,
        "velocity": 0.71,
        "hand": "left"
      },
      {
        "midi": 56,
        "time": 297.25,
        "duration": 0.35,
        "velocity": 0.71,
        "hand": "left"
      },
      {
        "midi": 56,
        "time": 298,
        "duration": 3,
        "velocity": 0.71,
        "hand": "left"
      },
      {
        "midi": 71,
        "time": 298,
        "duration": 1.5,
        "velocity": 0.71,
        "hand": "right"
      },
      {
        "midi": 59,
        "time": 298.75,
        "duration": 0.35,
        "velocity": 0.71,
        "hand": "left"
      },
      {
        "midi": 64,
        "time": 299.5,
        "duration": 1.5,
        "velocity": 0.71,
        "hand": "right"
      },
      {
        "midi": 73,
        "time": 299.5,
        "duration": 1.5,
        "velocity": 0.71,
        "hand": "right"
      },
      {
        "midi": 49,
        "time": 301,
        "duration": 1.5,
        "velocity": 0.71,
        "hand": "left"
      },
      {
        "midi": 65,
        "time": 301.75,
        "duration": 0.35,
        "velocity": 0.71,
        "hand": "right"
      },
      {
        "midi": 53,
        "time": 302.5,
        "duration": 1.5,
        "velocity": 0.71,
        "hand": "left"
      },
      {
        "midi": 68,
        "time": 303.25,
        "duration": 0.35,
        "velocity": 0.71,
        "hand": "right"
      },
      {
        "midi": 49,
        "time": 304,
        "duration": 1.5,
        "velocity": 0.71,
        "hand": "left"
      },
      {
        "midi": 65,
        "time": 304.75,
        "duration": 0.35,
        "velocity": 0.71,
        "hand": "right"
      },
      {
        "midi": 53,
        "time": 305.5,
        "duration": 1.5,
        "velocity": 0.71,
        "hand": "left"
      },
      {
        "midi": 68,
        "time": 306.25,
        "duration": 0.35,
        "velocity": 0.71,
        "hand": "right"
      },
      {
        "midi": 83,
        "time": 307,
        "duration": 1.5,
        "velocity": 0.71,
        "hand": "right"
      },
      {
        "midi": 68,
        "time": 307.75,
        "duration": 0.35,
        "velocity": 0.71,
        "hand": "right"
      },
      {
        "midi": 73,
        "time": 308.5,
        "duration": 1.5,
        "velocity": 0.71,
        "hand": "right"
      },
      {
        "midi": 83,
        "time": 310,
        "duration": 1.5,
        "velocity": 0.71,
        "hand": "right"
      },
      {
        "midi": 68,
        "time": 310.75,
        "duration": 0.35,
        "velocity": 0.71,
        "hand": "right"
      },
      {
        "midi": 73,
        "time": 311.5,
        "duration": 1.5,
        "velocity": 0.71,
        "hand": "right"
      },
      {
        "midi": 76,
        "time": 313,
        "duration": 1.5,
        "velocity": 0.71,
        "hand": "right"
      },
      {
        "midi": 80,
        "time": 314.5,
        "duration": 3.485,
        "velocity": 0.71,
        "hand": "right"
      },
      {
        "midi": 53,
        "time": 315.25,
        "duration": 0.35,
        "velocity": 0.71,
        "hand": "left"
      },
      {
        "midi": 65,
        "time": 316,
        "duration": 0.5,
        "velocity": 0.71,
        "hand": "right"
      },
      {
        "midi": 73,
        "time": 317,
        "duration": 0.5,
        "velocity": 0.71,
        "hand": "right"
      },
      {
        "midi": 80,
        "time": 318,
        "duration": 0.5,
        "velocity": 0.71,
        "hand": "right"
      },
      {
        "midi": 68,
        "time": 319,
        "duration": 3,
        "velocity": 0.71,
        "hand": "right"
      },
      {
        "midi": 80,
        "time": 319,
        "duration": 3,
        "velocity": 0.71,
        "hand": "right"
      }
    ],
    "hard": [
      {
        "midi": 65,
        "time": 0,
        "duration": 4,
        "velocity": 0.71,
        "hand": "right"
      },
      {
        "midi": 68,
        "time": 0,
        "duration": 4,
        "velocity": 0.71,
        "hand": "right"
      },
      {
        "midi": 77,
        "time": 0.5,
        "duration": 1.985,
        "velocity": 0.71,
        "hand": "right"
      },
      {
        "midi": 80,
        "time": 0.5,
        "duration": 2,
        "velocity": 0.71,
        "hand": "right"
      },
      {
        "midi": 73,
        "time": 2.5,
        "duration": 2,
        "velocity": 0.71,
        "hand": "right"
      },
      {
        "midi": 77,
        "time": 2.5,
        "duration": 2,
        "velocity": 0.71,
        "hand": "right"
      },
      {
        "midi": 66,
        "time": 4,
        "duration": 4.5,
        "velocity": 0.71,
        "hand": "right"
      },
      {
        "midi": 69,
        "time": 4,
        "duration": 4.5,
        "velocity": 0.71,
        "hand": "right"
      },
      {
        "midi": 72,
        "time": 4.5,
        "duration": 0.5,
        "velocity": 0.71,
        "hand": "right"
      },
      {
        "midi": 75,
        "time": 4.5,
        "duration": 0.5,
        "velocity": 0.71,
        "hand": "right"
      },
      {
        "midi": 73,
        "time": 5,
        "duration": 0.5,
        "velocity": 0.71,
        "hand": "right"
      },
      {
        "midi": 77,
        "time": 5,
        "duration": 0.5,
        "velocity": 0.71,
        "hand": "right"
      },
      {
        "midi": 72,
        "time": 5.5,
        "duration": 3.5,
        "velocity": 0.71,
        "hand": "right"
      },
      {
        "midi": 75,
        "time": 5.5,
        "duration": 3.5,
        "velocity": 0.71,
        "hand": "right"
      },
      {
        "midi": 65,
        "time": 8.5,
        "duration": 4.5,
        "velocity": 0.71,
        "hand": "right"
      },
      {
        "midi": 68,
        "time": 8.5,
        "duration": 4.5,
        "velocity": 0.71,
        "hand": "right"
      },
      {
        "midi": 70,
        "time": 9,
        "duration": 0.5,
        "velocity": 0.71,
        "hand": "right"
      },
      {
        "midi": 73,
        "time": 9,
        "duration": 0.5,
        "velocity": 0.71,
        "hand": "right"
      },
      {
        "midi": 72,
        "time": 9.5,
        "duration": 0.5,
        "velocity": 0.71,
        "hand": "right"
      },
      {
        "midi": 75,
        "time": 9.5,
        "duration": 0.5,
        "velocity": 0.71,
        "hand": "right"
      },
      {
        "midi": 70,
        "time": 10,
        "duration": 3.5,
        "velocity": 0.71,
        "hand": "right"
      },
      {
        "midi": 73,
        "time": 10,
        "duration": 0.75,
        "velocity": 0.71,
        "hand": "right"
      },
      {
        "midi": 77,
        "time": 10.75,
        "duration": 1.5,
        "velocity": 0.71,
        "hand": "right"
      },
      {
        "midi": 73,
        "time": 12.25,
        "duration": 1.25,
        "velocity": 0.71,
        "hand": "right"
      },
      {
        "midi": 63,
        "time": 13,
        "duration": 4.485,
        "velocity": 0.71,
        "hand": "right"
      },
      {
        "midi": 66,
        "time": 13,
        "duration": 4.485,
        "velocity": 0.71,
        "hand": "right"
      },
      {
        "midi": 68,
        "time": 13.5,
        "duration": 0.5,
        "velocity": 0.71,
        "hand": "right"
      },
      {
        "midi": 72,
        "time": 13.5,
        "duration": 0.5,
        "velocity": 0.71,
        "hand": "right"
      },
      {
        "midi": 70,
        "time": 14,
        "duration": 0.5,
        "velocity": 0.71,
        "hand": "right"
      },
      {
        "midi": 73,
        "time": 14,
        "duration": 0.5,
        "velocity": 0.71,
        "hand": "right"
      },
      {
        "midi": 68,
        "time": 14.5,
        "duration": 3,
        "velocity": 0.71,
        "hand": "right"
      },
      {
        "midi": 72,
        "time": 14.5,
        "duration": 3.5,
        "velocity": 0.71,
        "hand": "right"
      },
      {
        "midi": 61,
        "time": 17.5,
        "duration": 3,
        "velocity": 0.71,
        "hand": "right"
      },
      {
        "midi": 63,
        "time": 17.5,
        "duration": 2.985,
        "velocity": 0.71,
        "hand": "right"
      },
      {
        "midi": 66,
        "time": 17.5,
        "duration": 2.985,
        "velocity": 0.71,
        "hand": "right"
      },
      {
        "midi": 70,
        "time": 18,
        "duration": 0.5,
        "velocity": 0.71,
        "hand": "right"
      },
      {
        "midi": 72,
        "time": 18.5,
        "duration": 0.5,
        "velocity": 0.71,
        "hand": "right"
      },
      {
        "midi": 70,
        "time": 19,
        "duration": 0.5,
        "velocity": 0.71,
        "hand": "right"
      },
      {
        "midi": 75,
        "time": 19.5,
        "duration": 0.5,
        "velocity": 0.71,
        "hand": "right"
      },
      {
        "midi": 70,
        "time": 20,
        "duration": 0.5,
        "velocity": 0.71,
        "hand": "right"
      },
      {
        "midi": 60,
        "time": 20.5,
        "duration": 1.5,
        "velocity": 0.71,
        "hand": "right"
      },
      {
        "midi": 63,
        "time": 20.5,
        "duration": 1.485,
        "velocity": 0.71,
        "hand": "right"
      },
      {
        "midi": 66,
        "time": 20.5,
        "duration": 1.5,
        "velocity": 0.71,
        "hand": "right"
      },
      {
        "midi": 68,
        "time": 20.5,
        "duration": 0.5,
        "velocity": 0.71,
        "hand": "right"
      },
      {
        "midi": 70,
        "time": 21,
        "duration": 0.5,
        "velocity": 0.71,
        "hand": "right"
      },
      {
        "midi": 68,
        "time": 21.5,
        "duration": 1,
        "velocity": 0.71,
        "hand": "right"
      },
      {
        "midi": 58,
        "time": 22,
        "duration": 3,
        "velocity": 0.71,
        "hand": "left"
      },
      {
        "midi": 61,
        "time": 22,
        "duration": 3,
        "velocity": 0.71,
        "hand": "right"
      },
      {
        "midi": 63,
        "time": 22,
        "duration": 2.985,
        "velocity": 0.71,
        "hand": "right"
      },
      {
        "midi": 66,
        "time": 22.5,
        "duration": 0.5,
        "velocity": 0.71,
        "hand": "right"
      },
      {
        "midi": 68,
        "time": 23,
        "duration": 0.5,
        "velocity": 0.71,
        "hand": "right"
      },
      {
        "midi": 66,
        "time": 23.5,
        "duration": 1.5,
        "velocity": 0.71,
        "hand": "right"
      },
      {
        "midi": 57,
        "time": 25,
        "duration": 1.5,
        "velocity": 0.71,
        "hand": "left"
      },
      {
        "midi": 60,
        "time": 25,
        "duration": 1.5,
        "velocity": 0.71,
        "hand": "right"
      },
      {
        "midi": 63,
        "time": 25,
        "duration": 1.5,
        "velocity": 0.71,
        "hand": "right"
      },
      {
        "midi": 65,
        "time": 25,
        "duration": 1.985,
        "velocity": 0.71,
        "hand": "right"
      },
      {
        "midi": 56,
        "time": 26.5,
        "duration": 3,
        "velocity": 0.71,
        "hand": "left"
      },
      {
        "midi": 58,
        "time": 26.5,
        "duration": 4.485,
        "velocity": 0.71,
        "hand": "left"
      },
      {
        "midi": 61,
        "time": 26.5,
        "duration": 4.5,
        "velocity": 0.71,
        "hand": "right"
      },
      {
        "midi": 65,
        "time": 27,
        "duration": 0.5,
        "velocity": 0.71,
        "hand": "right"
      },
      {
        "midi": 66,
        "time": 27.5,
        "duration": 0.5,
        "velocity": 0.71,
        "hand": "right"
      },
      {
        "midi": 65,
        "time": 28,
        "duration": 0.5,
        "velocity": 0.71,
        "hand": "right"
      },
      {
        "midi": 70,
        "time": 28.5,
        "duration": 0.5,
        "velocity": 0.71,
        "hand": "right"
      },
      {
        "midi": 65,
        "time": 29,
        "duration": 0.5,
        "velocity": 0.71,
        "hand": "right"
      },
      {
        "midi": 54,
        "time": 29.5,
        "duration": 1.5,
        "velocity": 0.71,
        "hand": "left"
      },
      {
        "midi": 63,
        "time": 29.5,
        "duration": 0.5,
        "velocity": 0.71,
        "hand": "right"
      },
      {
        "midi": 65,
        "time": 30,
        "duration": 0.5,
        "velocity": 0.71,
        "hand": "right"
      },
      {
        "midi": 63,
        "time": 30.5,
        "duration": 1,
        "velocity": 0.71,
        "hand": "right"
      },
      {
        "midi": 53,
        "time": 31,
        "duration": 3,
        "velocity": 0.71,
        "hand": "left"
      },
      {
        "midi": 56,
        "time": 31,
        "duration": 2.985,
        "velocity": 0.71,
        "hand": "left"
      },
      {
        "midi": 61,
        "time": 31.5,
        "duration": 0.5,
        "velocity": 0.71,
        "hand": "right"
      },
      {
        "midi": 63,
        "time": 32,
        "duration": 0.5,
        "velocity": 0.71,
        "hand": "right"
      },
      {
        "midi": 61,
        "time": 32.5,
        "duration": 1.5,
        "velocity": 0.71,
        "hand": "right"
      },
      {
        "midi": 51,
        "time": 34,
        "duration": 0.75,
        "velocity": 0.71,
        "hand": "left"
      },
      {
        "midi": 54,
        "time": 34,
        "duration": 1.5,
        "velocity": 0.71,
        "hand": "left"
      },
      {
        "midi": 60,
        "time": 34,
        "duration": 1.5,
        "velocity": 0.71,
        "hand": "right"
      },
      {
        "midi": 44,
        "time": 34.75,
        "duration": 1.25,
        "velocity": 0.71,
        "hand": "left"
      },
      {
        "midi": 37,
        "time": 35.5,
        "duration": 0.5,
        "velocity": 0.71,
        "hand": "left"
      },
      {
        "midi": 53,
        "time": 36,
        "duration": 1,
        "velocity": 0.71,
        "hand": "left"
      },
      {
        "midi": 56,
        "time": 36,
        "duration": 1,
        "velocity": 0.71,
        "hand": "left"
      },
      {
        "midi": 65,
        "time": 36.5,
        "duration": 3.5,
        "velocity": 0.71,
        "hand": "right"
      },
      {
        "midi": 68,
        "time": 36.5,
        "duration": 3.5,
        "velocity": 0.71,
        "hand": "right"
      },
      {
        "midi": 77,
        "time": 37,
        "duration": 1.485,
        "velocity": 0.71,
        "hand": "right"
      },
      {
        "midi": 80,
        "time": 37,
        "duration": 1.5,
        "velocity": 0.71,
        "hand": "right"
      },
      {
        "midi": 73,
        "time": 38.5,
        "duration": 2,
        "velocity": 0.71,
        "hand": "right"
      },
      {
        "midi": 77,
        "time": 38.5,
        "duration": 2,
        "velocity": 0.71,
        "hand": "right"
      },
      {
        "midi": 42,
        "time": 40,
        "duration": 3,
        "velocity": 0.71,
        "hand": "left"
      },
      {
        "midi": 49,
        "time": 40,
        "duration": 4.485,
        "velocity": 0.71,
        "hand": "left"
      },
      {
        "midi": 54,
        "time": 40.5,
        "duration": 4,
        "velocity": 0.71,
        "hand": "left"
      },
      {
        "midi": 58,
        "time": 40.5,
        "duration": 4,
        "velocity": 0.71,
        "hand": "left"
      },
      {
        "midi": 61,
        "time": 40.5,
        "duration": 4,
        "velocity": 0.71,
        "hand": "right"
      },
      {
        "midi": 66,
        "time": 40.5,
        "duration": 4,
        "velocity": 0.71,
        "hand": "right"
      },
      {
        "midi": 70,
        "time": 40.5,
        "duration": 4,
        "velocity": 0.71,
        "hand": "right"
      },
      {
        "midi": 75,
        "time": 40.5,
        "duration": 0.5,
        "velocity": 0.71,
        "hand": "right"
      },
      {
        "midi": 77,
        "time": 41,
        "duration": 0.5,
        "velocity": 0.71,
        "hand": "right"
      },
      {
        "midi": 75,
        "time": 41.5,
        "duration": 3.5,
        "velocity": 0.71,
        "hand": "right"
      },
      {
        "midi": 41,
        "time": 44.5,
        "duration": 3,
        "velocity": 0.71,
        "hand": "left"
      },
      {
        "midi": 49,
        "time": 44.5,
        "duration": 3,
        "velocity": 0.71,
        "hand": "left"
      },
      {
        "midi": 53,
        "time": 45,
        "duration": 1,
        "velocity": 0.71,
        "hand": "left"
      },
      {
        "midi": 56,
        "time": 45,
        "duration": 1,
        "velocity": 0.71,
        "hand": "left"
      },
      {
        "midi": 61,
        "time": 45,
        "duration": 0.5,
        "velocity": 0.71,
        "hand": "right"
      },
      {
        "midi": 68,
        "time": 45,
        "duration": 0.985,
        "velocity": 0.71,
        "hand": "right"
      },
      {
        "midi": 73,
        "time": 45,
        "duration": 0.5,
        "velocity": 0.71,
        "hand": "right"
      },
      {
        "midi": 63,
        "time": 45.5,
        "duration": 0.5,
        "velocity": 0.71,
        "hand": "right"
      },
      {
        "midi": 75,
        "time": 45.5,
        "duration": 0.5,
        "velocity": 0.71,
        "hand": "right"
      },
      {
        "midi": 65,
        "time": 46,
        "duration": 1.485,
        "velocity": 0.71,
        "hand": "right"
      },
      {
        "midi": 68,
        "time": 46,
        "duration": 1.5,
        "velocity": 0.71,
        "hand": "right"
      },
      {
        "midi": 73,
        "time": 46,
        "duration": 1.485,
        "velocity": 0.71,
        "hand": "right"
      },
      {
        "midi": 80,
        "time": 46,
        "duration": 1.5,
        "velocity": 0.71,
        "hand": "right"
      },
      {
        "midi": 56,
        "time": 47.5,
        "duration": 1.5,
        "velocity": 0.71,
        "hand": "left"
      },
      {
        "midi": 61,
        "time": 47.5,
        "duration": 1.5,
        "velocity": 0.71,
        "hand": "right"
      },
      {
        "midi": 65,
        "time": 47.5,
        "duration": 1.5,
        "velocity": 0.71,
        "hand": "right"
      },
      {
        "midi": 73,
        "time": 47.5,
        "duration": 1.5,
        "velocity": 0.71,
        "hand": "right"
      },
      {
        "midi": 77,
        "time": 47.5,
        "duration": 2,
        "velocity": 0.71,
        "hand": "right"
      },
      {
        "midi": 42,
        "time": 49,
        "duration": 3,
        "velocity": 0.71,
        "hand": "left"
      },
      {
        "midi": 49,
        "time": 49,
        "duration": 4.5,
        "velocity": 0.71,
        "hand": "left"
      },
      {
        "midi": 54,
        "time": 49.5,
        "duration": 4,
        "velocity": 0.71,
        "hand": "left"
      },
      {
        "midi": 58,
        "time": 49.5,
        "duration": 4,
        "velocity": 0.71,
        "hand": "left"
      },
      {
        "midi": 61,
        "time": 49.5,
        "duration": 4,
        "velocity": 0.71,
        "hand": "right"
      },
      {
        "midi": 66,
        "time": 49.5,
        "duration": 4,
        "velocity": 0.71,
        "hand": "right"
      },
      {
        "midi": 70,
        "time": 49.5,
        "duration": 4,
        "velocity": 0.71,
        "hand": "right"
      },
      {
        "midi": 75,
        "time": 49.5,
        "duration": 0.5,
        "velocity": 0.71,
        "hand": "right"
      },
      {
        "midi": 77,
        "time": 50,
        "duration": 0.5,
        "velocity": 0.71,
        "hand": "right"
      },
      {
        "midi": 75,
        "time": 50.5,
        "duration": 1.5,
        "velocity": 0.71,
        "hand": "right"
      },
      {
        "midi": 73,
        "time": 52,
        "duration": 1.985,
        "velocity": 0.71,
        "hand": "right"
      },
      {
        "midi": 44,
        "time": 53.5,
        "duration": 4.5,
        "velocity": 0.71,
        "hand": "left"
      },
      {
        "midi": 53,
        "time": 54,
        "duration": 1,
        "velocity": 0.71,
        "hand": "left"
      },
      {
        "midi": 59,
        "time": 54,
        "duration": 0.985,
        "velocity": 0.71,
        "hand": "left"
      },
      {
        "midi": 61,
        "time": 54,
        "duration": 0.5,
        "velocity": 0.71,
        "hand": "right"
      },
      {
        "midi": 68,
        "time": 54,
        "duration": 1,
        "velocity": 0.71,
        "hand": "right"
      },
      {
        "midi": 73,
        "time": 54,
        "duration": 0.5,
        "velocity": 0.71,
        "hand": "right"
      },
      {
        "midi": 63,
        "time": 54.5,
        "duration": 0.5,
        "velocity": 0.71,
        "hand": "right"
      },
      {
        "midi": 75,
        "time": 54.5,
        "duration": 0.5,
        "velocity": 0.71,
        "hand": "right"
      },
      {
        "midi": 59,
        "time": 55,
        "duration": 2,
        "velocity": 0.71,
        "hand": "left"
      },
      {
        "midi": 65,
        "time": 55,
        "duration": 2,
        "velocity": 0.71,
        "hand": "right"
      },
      {
        "midi": 70,
        "time": 55,
        "duration": 0.75,
        "velocity": 0.71,
        "hand": "right"
      },
      {
        "midi": 77,
        "time": 55,
        "duration": 2.985,
        "velocity": 0.71,
        "hand": "right"
      },
      {
        "midi": 82,
        "time": 55,
        "duration": 0.75,
        "velocity": 0.71,
        "hand": "right"
      },
      {
        "midi": 68,
        "time": 55.75,
        "duration": 1.5,
        "velocity": 0.71,
        "hand": "right"
      },
      {
        "midi": 80,
        "time": 55.75,
        "duration": 1.5,
        "velocity": 0.71,
        "hand": "right"
      },
      {
        "midi": 65,
        "time": 57.25,
        "duration": 0.75,
        "velocity": 0.71,
        "hand": "right"
      },
      {
        "midi": 46,
        "time": 58,
        "duration": 3,
        "velocity": 0.71,
        "hand": "left"
      },
      {
        "midi": 77,
        "time": 58,
        "duration": 0.5,
        "velocity": 0.71,
        "hand": "right"
      },
      {
        "midi": 53,
        "time": 58.5,
        "duration": 4,
        "velocity": 0.71,
        "hand": "left"
      },
      {
        "midi": 58,
        "time": 58.5,
        "duration": 4,
        "velocity": 0.71,
        "hand": "left"
      },
      {
        "midi": 63,
        "time": 58.5,
        "duration": 1.75,
        "velocity": 0.71,
        "hand": "right"
      },
      {
        "midi": 65,
        "time": 58.5,
        "duration": 4,
        "velocity": 0.71,
        "hand": "right"
      },
      {
        "midi": 70,
        "time": 58.5,
        "duration": 4,
        "velocity": 0.71,
        "hand": "right"
      },
      {
        "midi": 75,
        "time": 58.5,
        "duration": 0.5,
        "velocity": 0.71,
        "hand": "right"
      },
      {
        "midi": 77,
        "time": 59,
        "duration": 0.5,
        "velocity": 0.71,
        "hand": "right"
      },
      {
        "midi": 75,
        "time": 59.5,
        "duration": 0.75,
        "velocity": 0.71,
        "hand": "right"
      },
      {
        "midi": 61,
        "time": 60.25,
        "duration": 2.25,
        "velocity": 0.71,
        "hand": "right"
      },
      {
        "midi": 73,
        "time": 60.25,
        "duration": 1.5,
        "velocity": 0.71,
        "hand": "right"
      },
      {
        "midi": 39,
        "time": 62.5,
        "duration": 3,
        "velocity": 0.71,
        "hand": "left"
      },
      {
        "midi": 66,
        "time": 63.25,
        "duration": 1.235,
        "velocity": 0.71,
        "hand": "right"
      },
      {
        "midi": 70,
        "time": 63.25,
        "duration": 1.235,
        "velocity": 0.71,
        "hand": "right"
      },
      {
        "midi": 77,
        "time": 63.25,
        "duration": 1.25,
        "velocity": 0.71,
        "hand": "right"
      },
      {
        "midi": 82,
        "time": 63.25,
        "duration": 1.235,
        "velocity": 0.71,
        "hand": "right"
      },
      {
        "midi": 66,
        "time": 64.5,
        "duration": 0.485,
        "velocity": 0.71,
        "hand": "right"
      },
      {
        "midi": 70,
        "time": 64.5,
        "duration": 0.485,
        "velocity": 0.71,
        "hand": "right"
      },
      {
        "midi": 75,
        "time": 64.5,
        "duration": 0.485,
        "velocity": 0.71,
        "hand": "right"
      },
      {
        "midi": 82,
        "time": 64.5,
        "duration": 0.485,
        "velocity": 0.71,
        "hand": "right"
      },
      {
        "midi": 66,
        "time": 65,
        "duration": 0.485,
        "velocity": 0.71,
        "hand": "right"
      },
      {
        "midi": 70,
        "time": 65,
        "duration": 0.485,
        "velocity": 0.71,
        "hand": "right"
      },
      {
        "midi": 75,
        "time": 65,
        "duration": 0.485,
        "velocity": 0.71,
        "hand": "right"
      },
      {
        "midi": 82,
        "time": 65,
        "duration": 0.485,
        "velocity": 0.71,
        "hand": "right"
      },
      {
        "midi": 66,
        "time": 65.5,
        "duration": 0.485,
        "velocity": 0.71,
        "hand": "right"
      },
      {
        "midi": 70,
        "time": 65.5,
        "duration": 0.485,
        "velocity": 0.71,
        "hand": "right"
      },
      {
        "midi": 75,
        "time": 65.5,
        "duration": 0.5,
        "velocity": 0.71,
        "hand": "right"
      },
      {
        "midi": 82,
        "time": 65.5,
        "duration": 0.485,
        "velocity": 0.71,
        "hand": "right"
      },
      {
        "midi": 66,
        "time": 66,
        "duration": 0.485,
        "velocity": 0.71,
        "hand": "right"
      },
      {
        "midi": 70,
        "time": 66,
        "duration": 0.485,
        "velocity": 0.71,
        "hand": "right"
      },
      {
        "midi": 73,
        "time": 66,
        "duration": 0.485,
        "velocity": 0.71,
        "hand": "right"
      },
      {
        "midi": 82,
        "time": 66,
        "duration": 0.485,
        "velocity": 0.71,
        "hand": "right"
      },
      {
        "midi": 66,
        "time": 66.5,
        "duration": 0.485,
        "velocity": 0.71,
        "hand": "right"
      },
      {
        "midi": 70,
        "time": 66.5,
        "duration": 0.485,
        "velocity": 0.71,
        "hand": "right"
      },
      {
        "midi": 73,
        "time": 66.5,
        "duration": 0.485,
        "velocity": 0.71,
        "hand": "right"
      },
      {
        "midi": 82,
        "time": 66.5,
        "duration": 0.485,
        "velocity": 0.71,
        "hand": "right"
      },
      {
        "midi": 66,
        "time": 67,
        "duration": 0.485,
        "velocity": 0.71,
        "hand": "right"
      },
      {
        "midi": 70,
        "time": 67,
        "duration": 0.485,
        "velocity": 0.71,
        "hand": "right"
      },
      {
        "midi": 73,
        "time": 67,
        "duration": 0.5,
        "velocity": 0.71,
        "hand": "right"
      },
      {
        "midi": 82,
        "time": 67,
        "duration": 0.485,
        "velocity": 0.71,
        "hand": "right"
      },
      {
        "midi": 72,
        "time": 67.5,
        "duration": 0.485,
        "velocity": 0.71,
        "hand": "right"
      },
      {
        "midi": 78,
        "time": 67.5,
        "duration": 0.485,
        "velocity": 0.71,
        "hand": "right"
      },
      {
        "midi": 82,
        "time": 67.5,
        "duration": 0.485,
        "velocity": 0.71,
        "hand": "right"
      },
      {
        "midi": 84,
        "time": 67.5,
        "duration": 0.485,
        "velocity": 0.71,
        "hand": "right"
      },
      {
        "midi": 72,
        "time": 68,
        "duration": 0.485,
        "velocity": 0.71,
        "hand": "right"
      },
      {
        "midi": 78,
        "time": 68,
        "duration": 0.485,
        "velocity": 0.71,
        "hand": "right"
      },
      {
        "midi": 82,
        "time": 68,
        "duration": 0.485,
        "velocity": 0.71,
        "hand": "right"
      },
      {
        "midi": 84,
        "time": 68,
        "duration": 0.485,
        "velocity": 0.71,
        "hand": "right"
      },
      {
        "midi": 72,
        "time": 68.5,
        "duration": 0.75,
        "velocity": 0.71,
        "hand": "right"
      },
      {
        "midi": 78,
        "time": 68.5,
        "duration": 0.75,
        "velocity": 0.71,
        "hand": "right"
      },
      {
        "midi": 82,
        "time": 68.5,
        "duration": 0.735,
        "velocity": 0.71,
        "hand": "right"
      },
      {
        "midi": 84,
        "time": 68.5,
        "duration": 0.75,
        "velocity": 0.71,
        "hand": "right"
      },
      {
        "midi": 66,
        "time": 69.25,
        "duration": 0.735,
        "velocity": 0.71,
        "hand": "right"
      },
      {
        "midi": 70,
        "time": 69.25,
        "duration": 0.735,
        "velocity": 0.71,
        "hand": "right"
      },
      {
        "midi": 73,
        "time": 69.25,
        "duration": 0.75,
        "velocity": 0.71,
        "hand": "right"
      },
      {
        "midi": 82,
        "time": 69.25,
        "duration": 0.735,
        "velocity": 0.71,
        "hand": "right"
      },
      {
        "midi": 58,
        "time": 70,
        "duration": 1.5,
        "velocity": 0.71,
        "hand": "left"
      },
      {
        "midi": 66,
        "time": 70,
        "duration": 1.5,
        "velocity": 0.71,
        "hand": "right"
      },
      {
        "midi": 70,
        "time": 70,
        "duration": 1.5,
        "velocity": 0.71,
        "hand": "right"
      },
      {
        "midi": 78,
        "time": 70,
        "duration": 1.5,
        "velocity": 0.71,
        "hand": "right"
      },
      {
        "midi": 82,
        "time": 70,
        "duration": 1.5,
        "velocity": 0.71,
        "hand": "right"
      },
      {
        "midi": 39,
        "time": 71.5,
        "duration": 3,
        "velocity": 0.71,
        "hand": "left"
      },
      {
        "midi": 46,
        "time": 71.5,
        "duration": 3,
        "velocity": 0.71,
        "hand": "left"
      },
      {
        "midi": 66,
        "time": 72.25,
        "duration": 1.235,
        "velocity": 0.71,
        "hand": "right"
      },
      {
        "midi": 70,
        "time": 72.25,
        "duration": 1.235,
        "velocity": 0.71,
        "hand": "right"
      },
      {
        "midi": 77,
        "time": 72.25,
        "duration": 1.25,
        "velocity": 0.71,
        "hand": "right"
      },
      {
        "midi": 82,
        "time": 72.25,
        "duration": 1.235,
        "velocity": 0.71,
        "hand": "right"
      },
      {
        "midi": 70,
        "time": 73.5,
        "duration": 0.485,
        "velocity": 0.71,
        "hand": "right"
      },
      {
        "midi": 75,
        "time": 73.5,
        "duration": 0.5,
        "velocity": 0.71,
        "hand": "right"
      },
      {
        "midi": 78,
        "time": 73.5,
        "duration": 0.5,
        "velocity": 0.71,
        "hand": "right"
      },
      {
        "midi": 82,
        "time": 73.5,
        "duration": 0.485,
        "velocity": 0.71,
        "hand": "right"
      },
      {
        "midi": 66,
        "time": 74,
        "duration": 0.485,
        "velocity": 0.71,
        "hand": "right"
      },
      {
        "midi": 70,
        "time": 74,
        "duration": 0.485,
        "velocity": 0.71,
        "hand": "right"
      },
      {
        "midi": 77,
        "time": 74,
        "duration": 0.5,
        "velocity": 0.71,
        "hand": "right"
      },
      {
        "midi": 82,
        "time": 74,
        "duration": 0.485,
        "velocity": 0.71,
        "hand": "right"
      },
      {
        "midi": 66,
        "time": 74.5,
        "duration": 0.485,
        "velocity": 0.71,
        "hand": "right"
      },
      {
        "midi": 70,
        "time": 74.5,
        "duration": 0.485,
        "velocity": 0.71,
        "hand": "right"
      },
      {
        "midi": 75,
        "time": 74.5,
        "duration": 0.5,
        "velocity": 0.71,
        "hand": "right"
      },
      {
        "midi": 82,
        "time": 74.5,
        "duration": 0.485,
        "velocity": 0.71,
        "hand": "right"
      },
      {
        "midi": 66,
        "time": 75,
        "duration": 0.485,
        "velocity": 0.71,
        "hand": "right"
      },
      {
        "midi": 70,
        "time": 75,
        "duration": 0.485,
        "velocity": 0.71,
        "hand": "right"
      },
      {
        "midi": 77,
        "time": 75,
        "duration": 0.5,
        "velocity": 0.71,
        "hand": "right"
      },
      {
        "midi": 82,
        "time": 75,
        "duration": 0.485,
        "velocity": 0.71,
        "hand": "right"
      },
      {
        "midi": 66,
        "time": 75.5,
        "duration": 0.485,
        "velocity": 0.71,
        "hand": "right"
      },
      {
        "midi": 70,
        "time": 75.5,
        "duration": 0.485,
        "velocity": 0.71,
        "hand": "right"
      },
      {
        "midi": 75,
        "time": 75.5,
        "duration": 0.5,
        "velocity": 0.71,
        "hand": "right"
      },
      {
        "midi": 82,
        "time": 75.5,
        "duration": 0.485,
        "velocity": 0.71,
        "hand": "right"
      },
      {
        "midi": 66,
        "time": 76,
        "duration": 0.485,
        "velocity": 0.71,
        "hand": "right"
      },
      {
        "midi": 70,
        "time": 76,
        "duration": 0.485,
        "velocity": 0.71,
        "hand": "right"
      },
      {
        "midi": 73,
        "time": 76,
        "duration": 0.5,
        "velocity": 0.71,
        "hand": "right"
      },
      {
        "midi": 82,
        "time": 76,
        "duration": 0.485,
        "velocity": 0.71,
        "hand": "right"
      },
      {
        "midi": 66,
        "time": 76.5,
        "duration": 0.485,
        "velocity": 0.71,
        "hand": "right"
      },
      {
        "midi": 70,
        "time": 76.5,
        "duration": 0.485,
        "velocity": 0.71,
        "hand": "right"
      },
      {
        "midi": 75,
        "time": 76.5,
        "duration": 0.5,
        "velocity": 0.71,
        "hand": "right"
      },
      {
        "midi": 82,
        "time": 76.5,
        "duration": 0.485,
        "velocity": 0.71,
        "hand": "right"
      },
      {
        "midi": 66,
        "time": 77,
        "duration": 0.485,
        "velocity": 0.71,
        "hand": "right"
      },
      {
        "midi": 70,
        "time": 77,
        "duration": 0.485,
        "velocity": 0.71,
        "hand": "right"
      },
      {
        "midi": 73,
        "time": 77,
        "duration": 0.5,
        "velocity": 0.71,
        "hand": "right"
      },
      {
        "midi": 82,
        "time": 77,
        "duration": 0.485,
        "velocity": 0.71,
        "hand": "right"
      },
      {
        "midi": 66,
        "time": 77.5,
        "duration": 0.735,
        "velocity": 0.71,
        "hand": "right"
      },
      {
        "midi": 70,
        "time": 77.5,
        "duration": 0.735,
        "velocity": 0.71,
        "hand": "right"
      },
      {
        "midi": 82,
        "time": 77.5,
        "duration": 0.5,
        "velocity": 0.71,
        "hand": "right"
      },
      {
        "midi": 84,
        "time": 77.5,
        "duration": 0.5,
        "velocity": 0.71,
        "hand": "right"
      },
      {
        "midi": 75,
        "time": 78,
        "duration": 0.25,
        "velocity": 0.71,
        "hand": "right"
      },
      {
        "midi": 66,
        "time": 78.25,
        "duration": 0.735,
        "velocity": 0.71,
        "hand": "right"
      },
      {
        "midi": 70,
        "time": 78.25,
        "duration": 0.735,
        "velocity": 0.71,
        "hand": "right"
      },
      {
        "midi": 73,
        "time": 78.25,
        "duration": 0.75,
        "velocity": 0.71,
        "hand": "right"
      },
      {
        "midi": 82,
        "time": 78.25,
        "duration": 0.735,
        "velocity": 0.71,
        "hand": "right"
      },
      {
        "midi": 58,
        "time": 79,
        "duration": 1.5,
        "velocity": 0.71,
        "hand": "left"
      },
      {
        "midi": 66,
        "time": 79,
        "duration": 1.5,
        "velocity": 0.71,
        "hand": "right"
      },
      {
        "midi": 70,
        "time": 79,
        "duration": 2.25,
        "velocity": 0.71,
        "hand": "right"
      },
      {
        "midi": 78,
        "time": 79,
        "duration": 2.235,
        "velocity": 0.71,
        "hand": "right"
      },
      {
        "midi": 82,
        "time": 79,
        "duration": 2.25,
        "velocity": 0.71,
        "hand": "right"
      },
      {
        "midi": 44,
        "time": 80.5,
        "duration": 3,
        "velocity": 0.71,
        "hand": "left"
      },
      {
        "midi": 54,
        "time": 81.25,
        "duration": 0.75,
        "velocity": 0.71,
        "hand": "left"
      },
      {
        "midi": 66,
        "time": 81.25,
        "duration": 0.75,
        "velocity": 0.71,
        "hand": "right"
      },
      {
        "midi": 78,
        "time": 81.25,
        "duration": 0.75,
        "velocity": 0.71,
        "hand": "right"
      },
      {
        "midi": 56,
        "time": 82,
        "duration": 0.75,
        "velocity": 0.71,
        "hand": "left"
      },
      {
        "midi": 63,
        "time": 82,
        "duration": 1.485,
        "velocity": 0.71,
        "hand": "right"
      },
      {
        "midi": 68,
        "time": 82,
        "duration": 0.75,
        "velocity": 0.71,
        "hand": "right"
      },
      {
        "midi": 75,
        "time": 82,
        "duration": 0.75,
        "velocity": 0.71,
        "hand": "right"
      },
      {
        "midi": 80,
        "time": 82,
        "duration": 0.75,
        "velocity": 0.71,
        "hand": "right"
      },
      {
        "midi": 72,
        "time": 82.75,
        "duration": 0.75,
        "velocity": 0.71,
        "hand": "right"
      },
      {
        "midi": 84,
        "time": 82.75,
        "duration": 0.75,
        "velocity": 0.71,
        "hand": "right"
      },
      {
        "midi": 58,
        "time": 83.5,
        "duration": 0.75,
        "velocity": 0.71,
        "hand": "left"
      },
      {
        "midi": 66,
        "time": 83.5,
        "duration": 0.735,
        "velocity": 0.71,
        "hand": "right"
      },
      {
        "midi": 70,
        "time": 83.5,
        "duration": 0.75,
        "velocity": 0.71,
        "hand": "right"
      },
      {
        "midi": 78,
        "time": 83.5,
        "duration": 0.735,
        "velocity": 0.71,
        "hand": "right"
      },
      {
        "midi": 82,
        "time": 83.5,
        "duration": 0.75,
        "velocity": 0.71,
        "hand": "right"
      },
      {
        "midi": 54,
        "time": 84.25,
        "duration": 0.75,
        "velocity": 0.71,
        "hand": "left"
      },
      {
        "midi": 66,
        "time": 84.25,
        "duration": 0.75,
        "velocity": 0.71,
        "hand": "right"
      },
      {
        "midi": 78,
        "time": 84.25,
        "duration": 0.75,
        "velocity": 0.71,
        "hand": "right"
      },
      {
        "midi": 45,
        "time": 85,
        "duration": 3,
        "velocity": 0.71,
        "hand": "left"
      },
      {
        "midi": 54,
        "time": 85.5,
        "duration": 0.485,
        "velocity": 0.71,
        "hand": "left"
      },
      {
        "midi": 66,
        "time": 85.5,
        "duration": 0.485,
        "velocity": 0.71,
        "hand": "right"
      },
      {
        "midi": 72,
        "time": 85.5,
        "duration": 0.485,
        "velocity": 0.71,
        "hand": "right"
      },
      {
        "midi": 75,
        "time": 85.5,
        "duration": 0.485,
        "velocity": 0.71,
        "hand": "right"
      },
      {
        "midi": 78,
        "time": 85.5,
        "duration": 0.485,
        "velocity": 0.71,
        "hand": "right"
      },
      {
        "midi": 54,
        "time": 86,
        "duration": 0.485,
        "velocity": 0.71,
        "hand": "left"
      },
      {
        "midi": 66,
        "time": 86,
        "duration": 0.485,
        "velocity": 0.71,
        "hand": "right"
      },
      {
        "midi": 72,
        "time": 86,
        "duration": 0.485,
        "velocity": 0.71,
        "hand": "right"
      },
      {
        "midi": 75,
        "time": 86,
        "duration": 0.485,
        "velocity": 0.71,
        "hand": "right"
      },
      {
        "midi": 78,
        "time": 86,
        "duration": 0.485,
        "velocity": 0.71,
        "hand": "right"
      },
      {
        "midi": 54,
        "time": 86.5,
        "duration": 0.485,
        "velocity": 0.71,
        "hand": "left"
      },
      {
        "midi": 66,
        "time": 86.5,
        "duration": 0.485,
        "velocity": 0.71,
        "hand": "right"
      },
      {
        "midi": 72,
        "time": 86.5,
        "duration": 0.485,
        "velocity": 0.71,
        "hand": "right"
      },
      {
        "midi": 75,
        "time": 86.5,
        "duration": 0.485,
        "velocity": 0.71,
        "hand": "right"
      },
      {
        "midi": 78,
        "time": 86.5,
        "duration": 0.485,
        "velocity": 0.71,
        "hand": "right"
      },
      {
        "midi": 54,
        "time": 87,
        "duration": 0.5,
        "velocity": 0.71,
        "hand": "left"
      },
      {
        "midi": 66,
        "time": 87,
        "duration": 0.5,
        "velocity": 0.71,
        "hand": "right"
      },
      {
        "midi": 72,
        "time": 87,
        "duration": 0.485,
        "velocity": 0.71,
        "hand": "right"
      },
      {
        "midi": 75,
        "time": 87,
        "duration": 0.485,
        "velocity": 0.71,
        "hand": "right"
      },
      {
        "midi": 78,
        "time": 87,
        "duration": 0.5,
        "velocity": 0.71,
        "hand": "right"
      },
      {
        "midi": 56,
        "time": 87.5,
        "duration": 0.5,
        "velocity": 0.71,
        "hand": "left"
      },
      {
        "midi": 68,
        "time": 87.5,
        "duration": 0.5,
        "velocity": 0.71,
        "hand": "right"
      },
      {
        "midi": 72,
        "time": 87.5,
        "duration": 0.485,
        "velocity": 0.71,
        "hand": "right"
      },
      {
        "midi": 75,
        "time": 87.5,
        "duration": 0.485,
        "velocity": 0.71,
        "hand": "right"
      },
      {
        "midi": 80,
        "time": 87.5,
        "duration": 0.5,
        "velocity": 0.71,
        "hand": "right"
      },
      {
        "midi": 54,
        "time": 88,
        "duration": 1.5,
        "velocity": 0.71,
        "hand": "left"
      },
      {
        "midi": 66,
        "time": 88,
        "duration": 1.5,
        "velocity": 0.71,
        "hand": "right"
      },
      {
        "midi": 72,
        "time": 88,
        "duration": 1.5,
        "velocity": 0.71,
        "hand": "right"
      },
      {
        "midi": 75,
        "time": 88,
        "duration": 1.5,
        "velocity": 0.71,
        "hand": "right"
      },
      {
        "midi": 78,
        "time": 88,
        "duration": 1.5,
        "velocity": 0.71,
        "hand": "right"
      },
      {
        "midi": 46,
        "time": 89.5,
        "duration": 3,
        "velocity": 0.71,
        "hand": "left"
      },
      {
        "midi": 54,
        "time": 90.25,
        "duration": 0.75,
        "velocity": 0.71,
        "hand": "left"
      },
      {
        "midi": 58,
        "time": 90.25,
        "duration": 1.5,
        "velocity": 0.71,
        "hand": "left"
      },
      {
        "midi": 61,
        "time": 90.25,
        "duration": 1.485,
        "velocity": 0.71,
        "hand": "right"
      },
      {
        "midi": 66,
        "time": 90.25,
        "duration": 0.75,
        "velocity": 0.71,
        "hand": "right"
      },
      {
        "midi": 73,
        "time": 90.25,
        "duration": 1.485,
        "velocity": 0.71,
        "hand": "right"
      },
      {
        "midi": 78,
        "time": 90.25,
        "duration": 0.75,
        "velocity": 0.71,
        "hand": "right"
      },
      {
        "midi": 56,
        "time": 91,
        "duration": 0.75,
        "velocity": 0.71,
        "hand": "left"
      },
      {
        "midi": 68,
        "time": 91,
        "duration": 0.75,
        "velocity": 0.71,
        "hand": "right"
      },
      {
        "midi": 80,
        "time": 91,
        "duration": 0.75,
        "velocity": 0.71,
        "hand": "right"
      },
      {
        "midi": 61,
        "time": 91.75,
        "duration": 0.735,
        "velocity": 0.71,
        "hand": "right"
      },
      {
        "midi": 73,
        "time": 91.75,
        "duration": 0.75,
        "velocity": 0.71,
        "hand": "right"
      },
      {
        "midi": 58,
        "time": 92.5,
        "duration": 0.75,
        "velocity": 0.71,
        "hand": "left"
      },
      {
        "midi": 66,
        "time": 92.5,
        "duration": 0.735,
        "velocity": 0.71,
        "hand": "right"
      },
      {
        "midi": 70,
        "time": 92.5,
        "duration": 0.75,
        "velocity": 0.71,
        "hand": "right"
      },
      {
        "midi": 78,
        "time": 92.5,
        "duration": 1.5,
        "velocity": 0.71,
        "hand": "right"
      },
      {
        "midi": 82,
        "time": 92.5,
        "duration": 0.75,
        "velocity": 0.71,
        "hand": "right"
      },
      {
        "midi": 54,
        "time": 93.25,
        "duration": 0.75,
        "velocity": 0.71,
        "hand": "left"
      },
      {
        "midi": 66,
        "time": 93.25,
        "duration": 0.75,
        "velocity": 0.71,
        "hand": "right"
      },
      {
        "midi": 44,
        "time": 94,
        "duration": 3,
        "velocity": 0.71,
        "hand": "left"
      },
      {
        "midi": 54,
        "time": 94.5,
        "duration": 0.485,
        "velocity": 0.71,
        "hand": "left"
      },
      {
        "midi": 58,
        "time": 94.5,
        "duration": 0.485,
        "velocity": 0.71,
        "hand": "left"
      },
      {
        "midi": 66,
        "time": 94.5,
        "duration": 0.485,
        "velocity": 0.71,
        "hand": "right"
      },
      {
        "midi": 70,
        "time": 94.5,
        "duration": 0.485,
        "velocity": 0.71,
        "hand": "right"
      },
      {
        "midi": 75,
        "time": 94.5,
        "duration": 0.485,
        "velocity": 0.71,
        "hand": "right"
      },
      {
        "midi": 78,
        "time": 94.5,
        "duration": 0.485,
        "velocity": 0.71,
        "hand": "right"
      },
      {
        "midi": 54,
        "time": 95,
        "duration": 0.485,
        "velocity": 0.71,
        "hand": "left"
      },
      {
        "midi": 58,
        "time": 95,
        "duration": 0.485,
        "velocity": 0.71,
        "hand": "left"
      },
      {
        "midi": 66,
        "time": 95,
        "duration": 0.485,
        "velocity": 0.71,
        "hand": "right"
      },
      {
        "midi": 70,
        "time": 95,
        "duration": 0.485,
        "velocity": 0.71,
        "hand": "right"
      },
      {
        "midi": 75,
        "time": 95,
        "duration": 0.485,
        "velocity": 0.71,
        "hand": "right"
      },
      {
        "midi": 78,
        "time": 95,
        "duration": 0.485,
        "velocity": 0.71,
        "hand": "right"
      },
      {
        "midi": 54,
        "time": 95.5,
        "duration": 0.485,
        "velocity": 0.71,
        "hand": "left"
      },
      {
        "midi": 58,
        "time": 95.5,
        "duration": 0.485,
        "velocity": 0.71,
        "hand": "left"
      },
      {
        "midi": 66,
        "time": 95.5,
        "duration": 0.485,
        "velocity": 0.71,
        "hand": "right"
      },
      {
        "midi": 70,
        "time": 95.5,
        "duration": 0.485,
        "velocity": 0.71,
        "hand": "right"
      },
      {
        "midi": 75,
        "time": 95.5,
        "duration": 0.485,
        "velocity": 0.71,
        "hand": "right"
      },
      {
        "midi": 78,
        "time": 95.5,
        "duration": 0.485,
        "velocity": 0.71,
        "hand": "right"
      },
      {
        "midi": 54,
        "time": 96,
        "duration": 0.5,
        "velocity": 0.71,
        "hand": "left"
      },
      {
        "midi": 58,
        "time": 96,
        "duration": 0.5,
        "velocity": 0.71,
        "hand": "left"
      },
      {
        "midi": 66,
        "time": 96,
        "duration": 0.5,
        "velocity": 0.71,
        "hand": "right"
      },
      {
        "midi": 70,
        "time": 96,
        "duration": 0.5,
        "velocity": 0.71,
        "hand": "right"
      },
      {
        "midi": 75,
        "time": 96,
        "duration": 0.5,
        "velocity": 0.71,
        "hand": "right"
      },
      {
        "midi": 78,
        "time": 96,
        "duration": 0.5,
        "velocity": 0.71,
        "hand": "right"
      },
      {
        "midi": 56,
        "time": 96.5,
        "duration": 0.5,
        "velocity": 0.71,
        "hand": "left"
      },
      {
        "midi": 68,
        "time": 96.5,
        "duration": 0.5,
        "velocity": 0.71,
        "hand": "right"
      },
      {
        "midi": 72,
        "time": 96.5,
        "duration": 0.5,
        "velocity": 0.71,
        "hand": "right"
      },
      {
        "midi": 77,
        "time": 96.5,
        "duration": 0.5,
        "velocity": 0.71,
        "hand": "right"
      },
      {
        "midi": 80,
        "time": 96.5,
        "duration": 0.5,
        "velocity": 0.71,
        "hand": "right"
      },
      {
        "midi": 54,
        "time": 97,
        "duration": 1.5,
        "velocity": 0.71,
        "hand": "left"
      },
      {
        "midi": 58,
        "time": 97,
        "duration": 1.5,
        "velocity": 0.71,
        "hand": "left"
      },
      {
        "midi": 66,
        "time": 97,
        "duration": 1.5,
        "velocity": 0.71,
        "hand": "right"
      },
      {
        "midi": 70,
        "time": 97,
        "duration": 1.5,
        "velocity": 0.71,
        "hand": "right"
      },
      {
        "midi": 75,
        "time": 97,
        "duration": 1.5,
        "velocity": 0.71,
        "hand": "right"
      },
      {
        "midi": 78,
        "time": 97,
        "duration": 1.5,
        "velocity": 0.71,
        "hand": "right"
      },
      {
        "midi": 37,
        "time": 98.5,
        "duration": 3,
        "velocity": 0.71,
        "hand": "left"
      },
      {
        "midi": 49,
        "time": 98.5,
        "duration": 3,
        "velocity": 0.71,
        "hand": "left"
      },
      {
        "midi": 54,
        "time": 99.25,
        "duration": 0.75,
        "velocity": 0.71,
        "hand": "left"
      },
      {
        "midi": 58,
        "time": 99.25,
        "duration": 2.25,
        "velocity": 0.71,
        "hand": "left"
      },
      {
        "midi": 66,
        "time": 99.25,
        "duration": 0.75,
        "velocity": 0.71,
        "hand": "right"
      },
      {
        "midi": 70,
        "time": 99.25,
        "duration": 2.235,
        "velocity": 0.71,
        "hand": "right"
      },
      {
        "midi": 73,
        "time": 99.25,
        "duration": 2.235,
        "velocity": 0.71,
        "hand": "right"
      },
      {
        "midi": 78,
        "time": 99.25,
        "duration": 0.75,
        "velocity": 0.71,
        "hand": "right"
      },
      {
        "midi": 56,
        "time": 100,
        "duration": 0.75,
        "velocity": 0.71,
        "hand": "left"
      },
      {
        "midi": 68,
        "time": 100,
        "duration": 0.75,
        "velocity": 0.71,
        "hand": "right"
      },
      {
        "midi": 80,
        "time": 100,
        "duration": 0.75,
        "velocity": 0.71,
        "hand": "right"
      },
      {
        "midi": 63,
        "time": 100.75,
        "duration": 0.75,
        "velocity": 0.71,
        "hand": "right"
      },
      {
        "midi": 75,
        "time": 100.75,
        "duration": 0.75,
        "velocity": 0.71,
        "hand": "right"
      },
      {
        "midi": 70,
        "time": 101.5,
        "duration": 0.735,
        "velocity": 0.71,
        "hand": "right"
      },
      {
        "midi": 73,
        "time": 101.5,
        "duration": 0.75,
        "velocity": 0.71,
        "hand": "right"
      },
      {
        "midi": 78,
        "time": 101.5,
        "duration": 1.5,
        "velocity": 0.71,
        "hand": "right"
      },
      {
        "midi": 82,
        "time": 101.5,
        "duration": 1.5,
        "velocity": 0.71,
        "hand": "right"
      },
      {
        "midi": 58,
        "time": 102.25,
        "duration": 0.75,
        "velocity": 0.71,
        "hand": "left"
      },
      {
        "midi": 70,
        "time": 102.25,
        "duration": 0.75,
        "velocity": 0.71,
        "hand": "right"
      },
      {
        "midi": 39,
        "time": 103,
        "duration": 3,
        "velocity": 0.71,
        "hand": "left"
      },
      {
        "midi": 51,
        "time": 103,
        "duration": 3,
        "velocity": 0.71,
        "hand": "left"
      },
      {
        "midi": 58,
        "time": 103.5,
        "duration": 0.485,
        "velocity": 0.71,
        "hand": "left"
      },
      {
        "midi": 66,
        "time": 103.5,
        "duration": 0.485,
        "velocity": 0.71,
        "hand": "right"
      },
      {
        "midi": 70,
        "time": 103.5,
        "duration": 0.485,
        "velocity": 0.71,
        "hand": "right"
      },
      {
        "midi": 78,
        "time": 103.5,
        "duration": 0.485,
        "velocity": 0.71,
        "hand": "right"
      },
      {
        "midi": 82,
        "time": 103.5,
        "duration": 0.485,
        "velocity": 0.71,
        "hand": "right"
      },
      {
        "midi": 58,
        "time": 104,
        "duration": 0.485,
        "velocity": 0.71,
        "hand": "left"
      },
      {
        "midi": 66,
        "time": 104,
        "duration": 0.485,
        "velocity": 0.71,
        "hand": "right"
      },
      {
        "midi": 70,
        "time": 104,
        "duration": 0.485,
        "velocity": 0.71,
        "hand": "right"
      },
      {
        "midi": 78,
        "time": 104,
        "duration": 0.485,
        "velocity": 0.71,
        "hand": "right"
      },
      {
        "midi": 82,
        "time": 104,
        "duration": 0.485,
        "velocity": 0.71,
        "hand": "right"
      },
      {
        "midi": 58,
        "time": 104.5,
        "duration": 0.485,
        "velocity": 0.71,
        "hand": "left"
      },
      {
        "midi": 66,
        "time": 104.5,
        "duration": 0.485,
        "velocity": 0.71,
        "hand": "right"
      },
      {
        "midi": 70,
        "time": 104.5,
        "duration": 0.485,
        "velocity": 0.71,
        "hand": "right"
      },
      {
        "midi": 78,
        "time": 104.5,
        "duration": 0.485,
        "velocity": 0.71,
        "hand": "right"
      },
      {
        "midi": 82,
        "time": 104.5,
        "duration": 0.485,
        "velocity": 0.71,
        "hand": "right"
      },
      {
        "midi": 58,
        "time": 105,
        "duration": 0.5,
        "velocity": 0.71,
        "hand": "left"
      },
      {
        "midi": 66,
        "time": 105,
        "duration": 0.5,
        "velocity": 0.71,
        "hand": "right"
      },
      {
        "midi": 70,
        "time": 105,
        "duration": 0.5,
        "velocity": 0.71,
        "hand": "right"
      },
      {
        "midi": 78,
        "time": 105,
        "duration": 0.5,
        "velocity": 0.71,
        "hand": "right"
      },
      {
        "midi": 82,
        "time": 105,
        "duration": 0.5,
        "velocity": 0.71,
        "hand": "right"
      },
      {
        "midi": 68,
        "time": 105.5,
        "duration": 0.5,
        "velocity": 0.71,
        "hand": "right"
      },
      {
        "midi": 72,
        "time": 105.5,
        "duration": 0.5,
        "velocity": 0.71,
        "hand": "right"
      },
      {
        "midi": 80,
        "time": 105.5,
        "duration": 0.5,
        "velocity": 0.71,
        "hand": "right"
      },
      {
        "midi": 84,
        "time": 105.5,
        "duration": 0.5,
        "velocity": 0.71,
        "hand": "right"
      },
      {
        "midi": 58,
        "time": 106,
        "duration": 0.5,
        "velocity": 0.71,
        "hand": "left"
      },
      {
        "midi": 66,
        "time": 106,
        "duration": 0.485,
        "velocity": 0.71,
        "hand": "right"
      },
      {
        "midi": 70,
        "time": 106,
        "duration": 0.485,
        "velocity": 0.71,
        "hand": "right"
      },
      {
        "midi": 78,
        "time": 106,
        "duration": 0.5,
        "velocity": 0.71,
        "hand": "right"
      },
      {
        "midi": 82,
        "time": 106,
        "duration": 0.485,
        "velocity": 0.71,
        "hand": "right"
      },
      {
        "midi": 66,
        "time": 106.5,
        "duration": 0.485,
        "velocity": 0.71,
        "hand": "right"
      },
      {
        "midi": 70,
        "time": 106.5,
        "duration": 0.485,
        "velocity": 0.71,
        "hand": "right"
      },
      {
        "midi": 73,
        "time": 106.5,
        "duration": 0.5,
        "velocity": 0.71,
        "hand": "right"
      },
      {
        "midi": 82,
        "time": 106.5,
        "duration": 0.485,
        "velocity": 0.71,
        "hand": "right"
      },
      {
        "midi": 66,
        "time": 107,
        "duration": 0.5,
        "velocity": 0.71,
        "hand": "right"
      },
      {
        "midi": 70,
        "time": 107,
        "duration": 0.5,
        "velocity": 0.71,
        "hand": "right"
      },
      {
        "midi": 75,
        "time": 107,
        "duration": 0.5,
        "velocity": 0.71,
        "hand": "right"
      },
      {
        "midi": 82,
        "time": 107,
        "duration": 0.5,
        "velocity": 0.71,
        "hand": "right"
      },
      {
        "midi": 68,
        "time": 107.5,
        "duration": 2.985,
        "velocity": 0.71,
        "hand": "right"
      },
      {
        "midi": 73,
        "time": 107.5,
        "duration": 2.985,
        "velocity": 0.71,
        "hand": "right"
      },
      {
        "midi": 77,
        "time": 107.5,
        "duration": 3,
        "velocity": 0.71,
        "hand": "right"
      },
      {
        "midi": 80,
        "time": 107.5,
        "duration": 2.985,
        "velocity": 0.71,
        "hand": "right"
      },
      {
        "midi": 70,
        "time": 110.5,
        "duration": 1.5,
        "velocity": 0.71,
        "hand": "right"
      },
      {
        "midi": 73,
        "time": 110.5,
        "duration": 1.485,
        "velocity": 0.71,
        "hand": "right"
      },
      {
        "midi": 76,
        "time": 110.5,
        "duration": 1.5,
        "velocity": 0.71,
        "hand": "right"
      },
      {
        "midi": 80,
        "time": 110.5,
        "duration": 1.485,
        "velocity": 0.71,
        "hand": "right"
      },
      {
        "midi": 68,
        "time": 112,
        "duration": 2.985,
        "velocity": 0.71,
        "hand": "right"
      },
      {
        "midi": 73,
        "time": 112,
        "duration": 3,
        "velocity": 0.71,
        "hand": "right"
      },
      {
        "midi": 75,
        "time": 112,
        "duration": 2.985,
        "velocity": 0.71,
        "hand": "right"
      },
      {
        "midi": 80,
        "time": 112,
        "duration": 2.985,
        "velocity": 0.71,
        "hand": "right"
      },
      {
        "midi": 56,
        "time": 115,
        "duration": 1.5,
        "velocity": 0.71,
        "hand": "left"
      },
      {
        "midi": 68,
        "time": 115,
        "duration": 1.485,
        "velocity": 0.71,
        "hand": "right"
      },
      {
        "midi": 72,
        "time": 115,
        "duration": 1.5,
        "velocity": 0.71,
        "hand": "right"
      },
      {
        "midi": 75,
        "time": 115,
        "duration": 1.5,
        "velocity": 0.71,
        "hand": "right"
      },
      {
        "midi": 80,
        "time": 115,
        "duration": 1.5,
        "velocity": 0.71,
        "hand": "right"
      },
      {
        "midi": 37,
        "time": 116.5,
        "duration": 1.5,
        "velocity": 0.71,
        "hand": "left"
      },
      {
        "midi": 65,
        "time": 116.5,
        "duration": 3,
        "velocity": 0.71,
        "hand": "right"
      },
      {
        "midi": 68,
        "time": 116.5,
        "duration": 2.985,
        "velocity": 0.71,
        "hand": "right"
      },
      {
        "midi": 44,
        "time": 116.75,
        "duration": 0.25,
        "velocity": 0.71,
        "hand": "left"
      },
      {
        "midi": 49,
        "time": 117,
        "duration": 0.25,
        "velocity": 0.71,
        "hand": "left"
      },
      {
        "midi": 53,
        "time": 117.25,
        "duration": 0.25,
        "velocity": 0.71,
        "hand": "left"
      },
      {
        "midi": 56,
        "time": 117.5,
        "duration": 0.25,
        "velocity": 0.71,
        "hand": "left"
      },
      {
        "midi": 61,
        "time": 117.75,
        "duration": 0.25,
        "velocity": 0.71,
        "hand": "right"
      },
      {
        "midi": 41,
        "time": 118,
        "duration": 1.5,
        "velocity": 0.71,
        "hand": "left"
      },
      {
        "midi": 48,
        "time": 118.25,
        "duration": 0.25,
        "velocity": 0.71,
        "hand": "left"
      },
      {
        "midi": 53,
        "time": 118.5,
        "duration": 0.25,
        "velocity": 0.71,
        "hand": "left"
      },
      {
        "midi": 56,
        "time": 118.75,
        "duration": 0.25,
        "velocity": 0.71,
        "hand": "left"
      },
      {
        "midi": 60,
        "time": 119,
        "duration": 0.25,
        "velocity": 0.71,
        "hand": "right"
      },
      {
        "midi": 44,
        "time": 119.5,
        "duration": 1.5,
        "velocity": 0.71,
        "hand": "left"
      },
      {
        "midi": 68,
        "time": 119.5,
        "duration": 1,
        "velocity": 0.71,
        "hand": "right"
      },
      {
        "midi": 71,
        "time": 119.5,
        "duration": 1,
        "velocity": 0.71,
        "hand": "right"
      },
      {
        "midi": 52,
        "time": 119.75,
        "duration": 0.25,
        "velocity": 0.71,
        "hand": "left"
      },
      {
        "midi": 56,
        "time": 120,
        "duration": 0.25,
        "velocity": 0.71,
        "hand": "left"
      },
      {
        "midi": 59,
        "time": 120.25,
        "duration": 0.25,
        "velocity": 0.71,
        "hand": "left"
      },
      {
        "midi": 64,
        "time": 120.5,
        "duration": 0.25,
        "velocity": 0.71,
        "hand": "right"
      },
      {
        "midi": 73,
        "time": 120.5,
        "duration": 0.5,
        "velocity": 0.71,
        "hand": "right"
      },
      {
        "midi": 68,
        "time": 120.75,
        "duration": 0.235,
        "velocity": 0.71,
        "hand": "right"
      },
      {
        "midi": 37,
        "time": 121,
        "duration": 1.5,
        "velocity": 0.71,
        "hand": "left"
      },
      {
        "midi": 65,
        "time": 121,
        "duration": 3,
        "velocity": 0.71,
        "hand": "right"
      },
      {
        "midi": 68,
        "time": 121,
        "duration": 2.985,
        "velocity": 0.71,
        "hand": "right"
      },
      {
        "midi": 44,
        "time": 121.25,
        "duration": 0.25,
        "velocity": 0.71,
        "hand": "left"
      },
      {
        "midi": 49,
        "time": 121.5,
        "duration": 0.25,
        "velocity": 0.71,
        "hand": "left"
      },
      {
        "midi": 53,
        "time": 121.75,
        "duration": 0.25,
        "velocity": 0.71,
        "hand": "left"
      },
      {
        "midi": 56,
        "time": 122,
        "duration": 0.25,
        "velocity": 0.71,
        "hand": "left"
      },
      {
        "midi": 61,
        "time": 122.25,
        "duration": 0.25,
        "velocity": 0.71,
        "hand": "right"
      },
      {
        "midi": 41,
        "time": 122.5,
        "duration": 1.5,
        "velocity": 0.71,
        "hand": "left"
      },
      {
        "midi": 48,
        "time": 122.75,
        "duration": 0.25,
        "velocity": 0.71,
        "hand": "left"
      },
      {
        "midi": 53,
        "time": 123,
        "duration": 0.25,
        "velocity": 0.71,
        "hand": "left"
      },
      {
        "midi": 56,
        "time": 123.25,
        "duration": 0.25,
        "velocity": 0.71,
        "hand": "left"
      },
      {
        "midi": 60,
        "time": 123.5,
        "duration": 0.25,
        "velocity": 0.71,
        "hand": "right"
      },
      {
        "midi": 44,
        "time": 124,
        "duration": 1.5,
        "velocity": 0.71,
        "hand": "left"
      },
      {
        "midi": 68,
        "time": 124,
        "duration": 0.985,
        "velocity": 0.71,
        "hand": "right"
      },
      {
        "midi": 71,
        "time": 124,
        "duration": 1,
        "velocity": 0.71,
        "hand": "right"
      },
      {
        "midi": 52,
        "time": 124.25,
        "duration": 0.25,
        "velocity": 0.71,
        "hand": "left"
      },
      {
        "midi": 56,
        "time": 124.5,
        "duration": 0.25,
        "velocity": 0.71,
        "hand": "left"
      },
      {
        "midi": 59,
        "time": 124.75,
        "duration": 0.25,
        "velocity": 0.71,
        "hand": "left"
      },
      {
        "midi": 68,
        "time": 125,
        "duration": 0.5,
        "velocity": 0.71,
        "hand": "right"
      },
      {
        "midi": 64,
        "time": 125.25,
        "duration": 0.25,
        "velocity": 0.71,
        "hand": "right"
      },
      {
        "midi": 37,
        "time": 125.5,
        "duration": 0.25,
        "velocity": 0.71,
        "hand": "left"
      },
      {
        "midi": 65,
        "time": 125.5,
        "duration": 1,
        "velocity": 0.71,
        "hand": "right"
      },
      {
        "midi": 73,
        "time": 125.5,
        "duration": 1,
        "velocity": 0.71,
        "hand": "right"
      },
      {
        "midi": 44,
        "time": 125.75,
        "duration": 0.25,
        "velocity": 0.71,
        "hand": "left"
      },
      {
        "midi": 49,
        "time": 126,
        "duration": 0.25,
        "velocity": 0.71,
        "hand": "left"
      },
      {
        "midi": 53,
        "time": 126.25,
        "duration": 0.25,
        "velocity": 0.71,
        "hand": "left"
      },
      {
        "midi": 56,
        "time": 126.5,
        "duration": 0.25,
        "velocity": 0.71,
        "hand": "left"
      },
      {
        "midi": 68,
        "time": 126.5,
        "duration": 0.5,
        "velocity": 0.71,
        "hand": "right"
      },
      {
        "midi": 75,
        "time": 126.5,
        "duration": 0.5,
        "velocity": 0.71,
        "hand": "right"
      },
      {
        "midi": 61,
        "time": 126.75,
        "duration": 0.25,
        "velocity": 0.71,
        "hand": "right"
      },
      {
        "midi": 65,
        "time": 127,
        "duration": 0.25,
        "velocity": 0.71,
        "hand": "right"
      },
      {
        "midi": 73,
        "time": 127,
        "duration": 1.485,
        "velocity": 0.71,
        "hand": "right"
      },
      {
        "midi": 77,
        "time": 127,
        "duration": 1.5,
        "velocity": 0.71,
        "hand": "right"
      },
      {
        "midi": 68,
        "time": 127.25,
        "duration": 0.25,
        "velocity": 0.71,
        "hand": "right"
      },
      {
        "midi": 65,
        "time": 127.5,
        "duration": 0.25,
        "velocity": 0.71,
        "hand": "right"
      },
      {
        "midi": 61,
        "time": 127.75,
        "duration": 0.25,
        "velocity": 0.71,
        "hand": "right"
      },
      {
        "midi": 56,
        "time": 128,
        "duration": 0.25,
        "velocity": 0.71,
        "hand": "left"
      },
      {
        "midi": 53,
        "time": 128.25,
        "duration": 0.25,
        "velocity": 0.71,
        "hand": "left"
      },
      {
        "midi": 56,
        "time": 128.5,
        "duration": 0.25,
        "velocity": 0.71,
        "hand": "left"
      },
      {
        "midi": 65,
        "time": 128.5,
        "duration": 1,
        "velocity": 0.71,
        "hand": "right"
      },
      {
        "midi": 73,
        "time": 128.5,
        "duration": 0.985,
        "velocity": 0.71,
        "hand": "right"
      },
      {
        "midi": 53,
        "time": 128.75,
        "duration": 0.25,
        "velocity": 0.71,
        "hand": "left"
      },
      {
        "midi": 49,
        "time": 129,
        "duration": 0.25,
        "velocity": 0.71,
        "hand": "left"
      },
      {
        "midi": 44,
        "time": 129.25,
        "duration": 0.25,
        "velocity": 0.71,
        "hand": "left"
      },
      {
        "midi": 49,
        "time": 129.5,
        "duration": 0.25,
        "velocity": 0.71,
        "hand": "left"
      },
      {
        "midi": 73,
        "time": 129.5,
        "duration": 0.5,
        "velocity": 0.71,
        "hand": "right"
      },
      {
        "midi": 77,
        "time": 129.5,
        "duration": 0.5,
        "velocity": 0.71,
        "hand": "right"
      },
      {
        "midi": 44,
        "time": 129.75,
        "duration": 0.25,
        "velocity": 0.71,
        "hand": "left"
      },
      {
        "midi": 39,
        "time": 130,
        "duration": 0.25,
        "velocity": 0.71,
        "hand": "left"
      },
      {
        "midi": 75,
        "time": 130,
        "duration": 0.5,
        "velocity": 0.71,
        "hand": "right"
      },
      {
        "midi": 79,
        "time": 130,
        "duration": 0.5,
        "velocity": 0.71,
        "hand": "right"
      },
      {
        "midi": 46,
        "time": 130.25,
        "duration": 0.25,
        "velocity": 0.71,
        "hand": "left"
      },
      {
        "midi": 51,
        "time": 130.5,
        "duration": 0.25,
        "velocity": 0.71,
        "hand": "left"
      },
      {
        "midi": 73,
        "time": 130.5,
        "duration": 0.485,
        "velocity": 0.71,
        "hand": "right"
      },
      {
        "midi": 77,
        "time": 130.5,
        "duration": 0.5,
        "velocity": 0.71,
        "hand": "right"
      },
      {
        "midi": 55,
        "time": 130.75,
        "duration": 0.25,
        "velocity": 0.71,
        "hand": "left"
      },
      {
        "midi": 58,
        "time": 131,
        "duration": 0.25,
        "velocity": 0.71,
        "hand": "left"
      },
      {
        "midi": 70,
        "time": 131,
        "duration": 0.485,
        "velocity": 0.71,
        "hand": "right"
      },
      {
        "midi": 73,
        "time": 131,
        "duration": 0.485,
        "velocity": 0.71,
        "hand": "right"
      },
      {
        "midi": 63,
        "time": 131.25,
        "duration": 0.25,
        "velocity": 0.71,
        "hand": "right"
      },
      {
        "midi": 67,
        "time": 131.5,
        "duration": 0.5,
        "velocity": 0.71,
        "hand": "right"
      },
      {
        "midi": 70,
        "time": 131.5,
        "duration": 1.5,
        "velocity": 0.71,
        "hand": "right"
      },
      {
        "midi": 73,
        "time": 131.5,
        "duration": 1.5,
        "velocity": 0.71,
        "hand": "right"
      },
      {
        "midi": 63,
        "time": 131.75,
        "duration": 0.25,
        "velocity": 0.71,
        "hand": "right"
      },
      {
        "midi": 58,
        "time": 132,
        "duration": 0.25,
        "velocity": 0.71,
        "hand": "left"
      },
      {
        "midi": 65,
        "time": 132,
        "duration": 0.5,
        "velocity": 0.71,
        "hand": "right"
      },
      {
        "midi": 55,
        "time": 132.25,
        "duration": 0.25,
        "velocity": 0.71,
        "hand": "left"
      },
      {
        "midi": 51,
        "time": 132.5,
        "duration": 0.25,
        "velocity": 0.71,
        "hand": "left"
      },
      {
        "midi": 61,
        "time": 132.5,
        "duration": 0.485,
        "velocity": 0.71,
        "hand": "right"
      },
      {
        "midi": 46,
        "time": 132.75,
        "duration": 0.25,
        "velocity": 0.71,
        "hand": "left"
      },
      {
        "midi": 39,
        "time": 133,
        "duration": 0.25,
        "velocity": 0.71,
        "hand": "left"
      },
      {
        "midi": 61,
        "time": 133,
        "duration": 0.75,
        "velocity": 0.71,
        "hand": "right"
      },
      {
        "midi": 46,
        "time": 133.25,
        "duration": 0.25,
        "velocity": 0.71,
        "hand": "left"
      },
      {
        "midi": 51,
        "time": 133.5,
        "duration": 0.25,
        "velocity": 0.71,
        "hand": "left"
      },
      {
        "midi": 55,
        "time": 133.75,
        "duration": 0.25,
        "velocity": 0.71,
        "hand": "left"
      },
      {
        "midi": 58,
        "time": 133.75,
        "duration": 0.75,
        "velocity": 0.71,
        "hand": "left"
      },
      {
        "midi": 51,
        "time": 134,
        "duration": 0.25,
        "velocity": 0.71,
        "hand": "left"
      },
      {
        "midi": 46,
        "time": 134.25,
        "duration": 0.25,
        "velocity": 0.71,
        "hand": "left"
      },
      {
        "midi": 44,
        "time": 134.5,
        "duration": 1.5,
        "velocity": 0.71,
        "hand": "left"
      },
      {
        "midi": 70,
        "time": 134.5,
        "duration": 3,
        "velocity": 0.71,
        "hand": "right"
      },
      {
        "midi": 51,
        "time": 134.75,
        "duration": 0.25,
        "velocity": 0.71,
        "hand": "left"
      },
      {
        "midi": 54,
        "time": 135,
        "duration": 0.25,
        "velocity": 0.71,
        "hand": "left"
      },
      {
        "midi": 58,
        "time": 135.25,
        "duration": 0.25,
        "velocity": 0.71,
        "hand": "left"
      },
      {
        "midi": 60,
        "time": 135.5,
        "duration": 0.25,
        "velocity": 0.71,
        "hand": "right"
      },
      {
        "midi": 66,
        "time": 135.75,
        "duration": 0.25,
        "velocity": 0.71,
        "hand": "right"
      },
      {
        "midi": 42,
        "time": 136,
        "duration": 1.5,
        "velocity": 0.71,
        "hand": "left"
      },
      {
        "midi": 49,
        "time": 136.25,
        "duration": 0.25,
        "velocity": 0.71,
        "hand": "left"
      },
      {
        "midi": 54,
        "time": 136.5,
        "duration": 0.25,
        "velocity": 0.71,
        "hand": "left"
      },
      {
        "midi": 58,
        "time": 136.75,
        "duration": 0.25,
        "velocity": 0.71,
        "hand": "left"
      },
      {
        "midi": 61,
        "time": 137,
        "duration": 0.25,
        "velocity": 0.71,
        "hand": "right"
      },
      {
        "midi": 66,
        "time": 137.25,
        "duration": 0.25,
        "velocity": 0.71,
        "hand": "right"
      },
      {
        "midi": 41,
        "time": 137.5,
        "duration": 1.5,
        "velocity": 0.71,
        "hand": "left"
      },
      {
        "midi": 72,
        "time": 137.5,
        "duration": 1,
        "velocity": 0.71,
        "hand": "right"
      },
      {
        "midi": 48,
        "time": 137.75,
        "duration": 0.25,
        "velocity": 0.71,
        "hand": "left"
      },
      {
        "midi": 53,
        "time": 138,
        "duration": 0.25,
        "velocity": 0.71,
        "hand": "left"
      },
      {
        "midi": 56,
        "time": 138.25,
        "duration": 0.25,
        "velocity": 0.71,
        "hand": "left"
      },
      {
        "midi": 60,
        "time": 138.5,
        "duration": 0.5,
        "velocity": 0.71,
        "hand": "right"
      },
      {
        "midi": 68,
        "time": 138.5,
        "duration": 0.25,
        "velocity": 0.71,
        "hand": "right"
      },
      {
        "midi": 77,
        "time": 138.5,
        "duration": 0.5,
        "velocity": 0.71,
        "hand": "right"
      },
      {
        "midi": 65,
        "time": 138.75,
        "duration": 0.25,
        "velocity": 0.71,
        "hand": "right"
      },
      {
        "midi": 44,
        "time": 139,
        "duration": 1.5,
        "velocity": 0.71,
        "hand": "left"
      },
      {
        "midi": 70,
        "time": 139,
        "duration": 3,
        "velocity": 0.71,
        "hand": "right"
      },
      {
        "midi": 51,
        "time": 139.25,
        "duration": 0.25,
        "velocity": 0.71,
        "hand": "left"
      },
      {
        "midi": 54,
        "time": 139.5,
        "duration": 0.25,
        "velocity": 0.71,
        "hand": "left"
      },
      {
        "midi": 58,
        "time": 139.75,
        "duration": 0.25,
        "velocity": 0.71,
        "hand": "left"
      },
      {
        "midi": 60,
        "time": 140,
        "duration": 0.25,
        "velocity": 0.71,
        "hand": "right"
      },
      {
        "midi": 66,
        "time": 140.25,
        "duration": 0.25,
        "velocity": 0.71,
        "hand": "right"
      },
      {
        "midi": 42,
        "time": 140.5,
        "duration": 1.5,
        "velocity": 0.71,
        "hand": "left"
      },
      {
        "midi": 49,
        "time": 140.75,
        "duration": 0.25,
        "velocity": 0.71,
        "hand": "left"
      },
      {
        "midi": 54,
        "time": 141,
        "duration": 0.25,
        "velocity": 0.71,
        "hand": "left"
      },
      {
        "midi": 58,
        "time": 141.25,
        "duration": 0.25,
        "velocity": 0.71,
        "hand": "left"
      },
      {
        "midi": 61,
        "time": 141.5,
        "duration": 0.25,
        "velocity": 0.71,
        "hand": "right"
      },
      {
        "midi": 66,
        "time": 141.75,
        "duration": 0.25,
        "velocity": 0.71,
        "hand": "right"
      },
      {
        "midi": 41,
        "time": 142,
        "duration": 1.5,
        "velocity": 0.71,
        "hand": "left"
      },
      {
        "midi": 72,
        "time": 142,
        "duration": 1,
        "velocity": 0.71,
        "hand": "right"
      },
      {
        "midi": 48,
        "time": 142.25,
        "duration": 0.25,
        "velocity": 0.71,
        "hand": "left"
      },
      {
        "midi": 53,
        "time": 142.5,
        "duration": 0.25,
        "velocity": 0.71,
        "hand": "left"
      },
      {
        "midi": 56,
        "time": 142.75,
        "duration": 0.25,
        "velocity": 0.71,
        "hand": "left"
      },
      {
        "midi": 60,
        "time": 143,
        "duration": 0.5,
        "velocity": 0.71,
        "hand": "right"
      },
      {
        "midi": 68,
        "time": 143,
        "duration": 0.25,
        "velocity": 0.71,
        "hand": "right"
      },
      {
        "midi": 77,
        "time": 143,
        "duration": 0.5,
        "velocity": 0.71,
        "hand": "right"
      },
      {
        "midi": 65,
        "time": 143.25,
        "duration": 0.25,
        "velocity": 0.71,
        "hand": "right"
      },
      {
        "midi": 39,
        "time": 143.5,
        "duration": 1.5,
        "velocity": 0.71,
        "hand": "left"
      },
      {
        "midi": 78,
        "time": 143.5,
        "duration": 2.25,
        "velocity": 0.71,
        "hand": "right"
      },
      {
        "midi": 46,
        "time": 143.75,
        "duration": 0.25,
        "velocity": 0.71,
        "hand": "left"
      },
      {
        "midi": 51,
        "time": 144,
        "duration": 0.25,
        "velocity": 0.71,
        "hand": "left"
      },
      {
        "midi": 54,
        "time": 144.25,
        "duration": 0.25,
        "velocity": 0.71,
        "hand": "left"
      },
      {
        "midi": 58,
        "time": 144.5,
        "duration": 0.25,
        "velocity": 0.71,
        "hand": "left"
      },
      {
        "midi": 63,
        "time": 144.75,
        "duration": 0.25,
        "velocity": 0.71,
        "hand": "right"
      },
      {
        "midi": 66,
        "time": 145,
        "duration": 0.235,
        "velocity": 0.71,
        "hand": "right"
      },
      {
        "midi": 66,
        "time": 145.25,
        "duration": 0.25,
        "velocity": 0.71,
        "hand": "right"
      },
      {
        "midi": 70,
        "time": 145.5,
        "duration": 0.25,
        "velocity": 0.71,
        "hand": "right"
      },
      {
        "midi": 65,
        "time": 145.75,
        "duration": 0.75,
        "velocity": 0.71,
        "hand": "right"
      },
      {
        "midi": 77,
        "time": 145.75,
        "duration": 0.75,
        "velocity": 0.71,
        "hand": "right"
      },
      {
        "midi": 66,
        "time": 146,
        "duration": 0.25,
        "velocity": 0.71,
        "hand": "right"
      },
      {
        "midi": 70,
        "time": 146.25,
        "duration": 0.25,
        "velocity": 0.71,
        "hand": "right"
      },
      {
        "midi": 62,
        "time": 146.5,
        "duration": 0.75,
        "velocity": 0.71,
        "hand": "right"
      },
      {
        "midi": 74,
        "time": 146.5,
        "duration": 0.75,
        "velocity": 0.71,
        "hand": "right"
      },
      {
        "midi": 66,
        "time": 146.75,
        "duration": 0.25,
        "velocity": 0.71,
        "hand": "right"
      },
      {
        "midi": 70,
        "time": 147,
        "duration": 0.25,
        "velocity": 0.71,
        "hand": "right"
      },
      {
        "midi": 63,
        "time": 147.25,
        "duration": 0.75,
        "velocity": 0.71,
        "hand": "right"
      },
      {
        "midi": 75,
        "time": 147.25,
        "duration": 0.75,
        "velocity": 0.71,
        "hand": "right"
      },
      {
        "midi": 66,
        "time": 147.5,
        "duration": 0.25,
        "velocity": 0.71,
        "hand": "right"
      },
      {
        "midi": 70,
        "time": 147.75,
        "duration": 0.25,
        "velocity": 0.71,
        "hand": "right"
      },
      {
        "midi": 62,
        "time": 148,
        "duration": 1.5,
        "velocity": 0.71,
        "hand": "right"
      },
      {
        "midi": 82,
        "time": 148,
        "duration": 3,
        "velocity": 0.71,
        "hand": "right"
      },
      {
        "midi": 66,
        "time": 148.25,
        "duration": 0.25,
        "velocity": 0.71,
        "hand": "right"
      },
      {
        "midi": 70,
        "time": 148.5,
        "duration": 0.235,
        "velocity": 0.71,
        "hand": "right"
      },
      {
        "midi": 70,
        "time": 148.75,
        "duration": 0.25,
        "velocity": 0.71,
        "hand": "right"
      },
      {
        "midi": 78,
        "time": 149,
        "duration": 0.25,
        "velocity": 0.71,
        "hand": "right"
      },
      {
        "midi": 63,
        "time": 149.5,
        "duration": 1.5,
        "velocity": 0.71,
        "hand": "right"
      },
      {
        "midi": 66,
        "time": 149.75,
        "duration": 0.25,
        "velocity": 0.71,
        "hand": "right"
      },
      {
        "midi": 70,
        "time": 150,
        "duration": 0.235,
        "velocity": 0.71,
        "hand": "right"
      },
      {
        "midi": 70,
        "time": 150.25,
        "duration": 0.25,
        "velocity": 0.71,
        "hand": "right"
      },
      {
        "midi": 78,
        "time": 150.5,
        "duration": 0.25,
        "velocity": 0.71,
        "hand": "right"
      },
      {
        "midi": 56,
        "time": 151,
        "duration": 1.5,
        "velocity": 0.71,
        "hand": "left"
      },
      {
        "midi": 60,
        "time": 151,
        "duration": 0.25,
        "velocity": 0.71,
        "hand": "right"
      },
      {
        "midi": 80,
        "time": 151,
        "duration": 1.485,
        "velocity": 0.71,
        "hand": "right"
      },
      {
        "midi": 64,
        "time": 151.25,
        "duration": 0.25,
        "velocity": 0.71,
        "hand": "right"
      },
      {
        "midi": 68,
        "time": 151.5,
        "duration": 0.25,
        "velocity": 0.71,
        "hand": "right"
      },
      {
        "midi": 72,
        "time": 151.75,
        "duration": 0.25,
        "velocity": 0.71,
        "hand": "right"
      },
      {
        "midi": 76,
        "time": 152,
        "duration": 0.25,
        "velocity": 0.71,
        "hand": "right"
      },
      {
        "midi": 49,
        "time": 152.5,
        "duration": 1.5,
        "velocity": 0.71,
        "hand": "left"
      },
      {
        "midi": 77,
        "time": 152.5,
        "duration": 3,
        "velocity": 0.71,
        "hand": "right"
      },
      {
        "midi": 80,
        "time": 152.5,
        "duration": 2.985,
        "velocity": 0.71,
        "hand": "right"
      },
      {
        "midi": 56,
        "time": 152.75,
        "duration": 0.25,
        "velocity": 0.71,
        "hand": "left"
      },
      {
        "midi": 61,
        "time": 153,
        "duration": 0.25,
        "velocity": 0.71,
        "hand": "right"
      },
      {
        "midi": 65,
        "time": 153.25,
        "duration": 0.25,
        "velocity": 0.71,
        "hand": "right"
      },
      {
        "midi": 68,
        "time": 153.5,
        "duration": 0.25,
        "velocity": 0.71,
        "hand": "right"
      },
      {
        "midi": 73,
        "time": 153.75,
        "duration": 0.25,
        "velocity": 0.71,
        "hand": "right"
      },
      {
        "midi": 53,
        "time": 154,
        "duration": 1.5,
        "velocity": 0.71,
        "hand": "left"
      },
      {
        "midi": 56,
        "time": 154,
        "duration": 0.25,
        "velocity": 0.71,
        "hand": "left"
      },
      {
        "midi": 60,
        "time": 154.25,
        "duration": 0.25,
        "velocity": 0.71,
        "hand": "right"
      },
      {
        "midi": 65,
        "time": 154.5,
        "duration": 0.25,
        "velocity": 0.71,
        "hand": "right"
      },
      {
        "midi": 68,
        "time": 154.75,
        "duration": 0.25,
        "velocity": 0.71,
        "hand": "right"
      },
      {
        "midi": 72,
        "time": 155,
        "duration": 0.25,
        "velocity": 0.71,
        "hand": "right"
      },
      {
        "midi": 56,
        "time": 155.5,
        "duration": 1.5,
        "velocity": 0.71,
        "hand": "left"
      },
      {
        "midi": 59,
        "time": 155.5,
        "duration": 0.25,
        "velocity": 0.71,
        "hand": "left"
      },
      {
        "midi": 80,
        "time": 155.5,
        "duration": 1,
        "velocity": 0.71,
        "hand": "right"
      },
      {
        "midi": 83,
        "time": 155.5,
        "duration": 1,
        "velocity": 0.71,
        "hand": "right"
      },
      {
        "midi": 64,
        "time": 155.75,
        "duration": 0.25,
        "velocity": 0.71,
        "hand": "right"
      },
      {
        "midi": 68,
        "time": 156,
        "duration": 0.25,
        "velocity": 0.71,
        "hand": "right"
      },
      {
        "midi": 71,
        "time": 156.25,
        "duration": 0.25,
        "velocity": 0.71,
        "hand": "right"
      },
      {
        "midi": 73,
        "time": 156.5,
        "duration": 0.5,
        "velocity": 0.71,
        "hand": "right"
      },
      {
        "midi": 76,
        "time": 156.5,
        "duration": 0.25,
        "velocity": 0.71,
        "hand": "right"
      },
      {
        "midi": 80,
        "time": 156.75,
        "duration": 0.235,
        "velocity": 0.71,
        "hand": "right"
      },
      {
        "midi": 49,
        "time": 157,
        "duration": 1.5,
        "velocity": 0.71,
        "hand": "left"
      },
      {
        "midi": 77,
        "time": 157,
        "duration": 3,
        "velocity": 0.71,
        "hand": "right"
      },
      {
        "midi": 80,
        "time": 157,
        "duration": 2.985,
        "velocity": 0.71,
        "hand": "right"
      },
      {
        "midi": 56,
        "time": 157.25,
        "duration": 0.25,
        "velocity": 0.71,
        "hand": "left"
      },
      {
        "midi": 61,
        "time": 157.5,
        "duration": 0.25,
        "velocity": 0.71,
        "hand": "right"
      },
      {
        "midi": 65,
        "time": 157.75,
        "duration": 0.25,
        "velocity": 0.71,
        "hand": "right"
      },
      {
        "midi": 68,
        "time": 158,
        "duration": 0.25,
        "velocity": 0.71,
        "hand": "right"
      },
      {
        "midi": 73,
        "time": 158.25,
        "duration": 0.25,
        "velocity": 0.71,
        "hand": "right"
      },
      {
        "midi": 53,
        "time": 158.5,
        "duration": 1.5,
        "velocity": 0.71,
        "hand": "left"
      },
      {
        "midi": 56,
        "time": 158.5,
        "duration": 0.25,
        "velocity": 0.71,
        "hand": "left"
      },
      {
        "midi": 60,
        "time": 158.75,
        "duration": 0.25,
        "velocity": 0.71,
        "hand": "right"
      },
      {
        "midi": 65,
        "time": 159,
        "duration": 0.25,
        "velocity": 0.71,
        "hand": "right"
      },
      {
        "midi": 68,
        "time": 159.25,
        "duration": 0.25,
        "velocity": 0.71,
        "hand": "right"
      },
      {
        "midi": 72,
        "time": 159.5,
        "duration": 0.25,
        "velocity": 0.71,
        "hand": "right"
      },
      {
        "midi": 56,
        "time": 160,
        "duration": 1.5,
        "velocity": 0.71,
        "hand": "left"
      },
      {
        "midi": 59,
        "time": 160,
        "duration": 0.25,
        "velocity": 0.71,
        "hand": "left"
      },
      {
        "midi": 80,
        "time": 160,
        "duration": 0.985,
        "velocity": 0.71,
        "hand": "right"
      },
      {
        "midi": 83,
        "time": 160,
        "duration": 1,
        "velocity": 0.71,
        "hand": "right"
      },
      {
        "midi": 64,
        "time": 160.25,
        "duration": 0.25,
        "velocity": 0.71,
        "hand": "right"
      },
      {
        "midi": 68,
        "time": 160.5,
        "duration": 0.25,
        "velocity": 0.71,
        "hand": "right"
      },
      {
        "midi": 71,
        "time": 160.75,
        "duration": 0.25,
        "velocity": 0.71,
        "hand": "right"
      },
      {
        "midi": 80,
        "time": 161,
        "duration": 0.5,
        "velocity": 0.71,
        "hand": "right"
      },
      {
        "midi": 76,
        "time": 161.25,
        "duration": 0.25,
        "velocity": 0.71,
        "hand": "right"
      },
      {
        "midi": 59,
        "time": 161.5,
        "duration": 1.5,
        "velocity": 0.71,
        "hand": "left"
      },
      {
        "midi": 61,
        "time": 161.5,
        "duration": 0.25,
        "velocity": 0.71,
        "hand": "right"
      },
      {
        "midi": 73,
        "time": 161.5,
        "duration": 0.735,
        "velocity": 0.71,
        "hand": "right"
      },
      {
        "midi": 64,
        "time": 161.75,
        "duration": 0.25,
        "velocity": 0.71,
        "hand": "right"
      },
      {
        "midi": 68,
        "time": 162,
        "duration": 0.25,
        "velocity": 0.71,
        "hand": "right"
      },
      {
        "midi": 71,
        "time": 162.25,
        "duration": 0.75,
        "velocity": 0.71,
        "hand": "right"
      },
      {
        "midi": 73,
        "time": 162.25,
        "duration": 0.25,
        "velocity": 0.71,
        "hand": "right"
      },
      {
        "midi": 80,
        "time": 162.5,
        "duration": 0.5,
        "velocity": 0.71,
        "hand": "right"
      },
      {
        "midi": 76,
        "time": 162.75,
        "duration": 0.235,
        "velocity": 0.71,
        "hand": "right"
      },
      {
        "midi": 61,
        "time": 163,
        "duration": 1.5,
        "velocity": 0.71,
        "hand": "right"
      },
      {
        "midi": 64,
        "time": 163,
        "duration": 0.25,
        "velocity": 0.71,
        "hand": "right"
      },
      {
        "midi": 76,
        "time": 163,
        "duration": 0.735,
        "velocity": 0.71,
        "hand": "right"
      },
      {
        "midi": 68,
        "time": 163.25,
        "duration": 0.25,
        "velocity": 0.71,
        "hand": "right"
      },
      {
        "midi": 71,
        "time": 163.5,
        "duration": 0.25,
        "velocity": 0.71,
        "hand": "right"
      },
      {
        "midi": 73,
        "time": 163.75,
        "duration": 0.235,
        "velocity": 0.71,
        "hand": "right"
      },
      {
        "midi": 76,
        "time": 163.75,
        "duration": 0.25,
        "velocity": 0.71,
        "hand": "right"
      },
      {
        "midi": 73,
        "time": 164,
        "duration": 0.5,
        "velocity": 0.71,
        "hand": "right"
      },
      {
        "midi": 80,
        "time": 164.25,
        "duration": 0.235,
        "velocity": 0.71,
        "hand": "right"
      },
      {
        "midi": 64,
        "time": 164.5,
        "duration": 1.5,
        "velocity": 0.71,
        "hand": "right"
      },
      {
        "midi": 68,
        "time": 164.5,
        "duration": 0.25,
        "velocity": 0.71,
        "hand": "right"
      },
      {
        "midi": 80,
        "time": 164.5,
        "duration": 0.735,
        "velocity": 0.71,
        "hand": "right"
      },
      {
        "midi": 71,
        "time": 164.75,
        "duration": 0.25,
        "velocity": 0.71,
        "hand": "right"
      },
      {
        "midi": 73,
        "time": 165,
        "duration": 0.25,
        "velocity": 0.71,
        "hand": "right"
      },
      {
        "midi": 76,
        "time": 165.25,
        "duration": 0.235,
        "velocity": 0.71,
        "hand": "right"
      },
      {
        "midi": 80,
        "time": 165.25,
        "duration": 0.25,
        "velocity": 0.71,
        "hand": "right"
      },
      {
        "midi": 76,
        "time": 165.5,
        "duration": 0.5,
        "velocity": 0.71,
        "hand": "right"
      },
      {
        "midi": 83,
        "time": 165.75,
        "duration": 0.25,
        "velocity": 0.71,
        "hand": "right"
      },
      {
        "midi": 68,
        "time": 166,
        "duration": 1.5,
        "velocity": 0.71,
        "hand": "right"
      },
      {
        "midi": 80,
        "time": 166,
        "duration": 0.735,
        "velocity": 0.71,
        "hand": "right"
      },
      {
        "midi": 69,
        "time": 166.25,
        "duration": 0.25,
        "velocity": 0.71,
        "hand": "right"
      },
      {
        "midi": 73,
        "time": 166.5,
        "duration": 0.25,
        "velocity": 0.71,
        "hand": "right"
      },
      {
        "midi": 80,
        "time": 166.75,
        "duration": 0.25,
        "velocity": 0.71,
        "hand": "right"
      },
      {
        "midi": 73,
        "time": 167,
        "duration": 0.25,
        "velocity": 0.71,
        "hand": "right"
      },
      {
        "midi": 81,
        "time": 167.25,
        "duration": 0.25,
        "velocity": 0.71,
        "hand": "right"
      },
      {
        "midi": 66,
        "time": 167.5,
        "duration": 1.485,
        "velocity": 0.71,
        "hand": "right"
      },
      {
        "midi": 78,
        "time": 167.5,
        "duration": 0.735,
        "velocity": 0.71,
        "hand": "right"
      },
      {
        "midi": 69,
        "time": 167.75,
        "duration": 0.25,
        "velocity": 0.71,
        "hand": "right"
      },
      {
        "midi": 73,
        "time": 168,
        "duration": 0.25,
        "velocity": 0.71,
        "hand": "right"
      },
      {
        "midi": 78,
        "time": 168.25,
        "duration": 0.25,
        "velocity": 0.71,
        "hand": "right"
      },
      {
        "midi": 73,
        "time": 168.5,
        "duration": 0.25,
        "velocity": 0.71,
        "hand": "right"
      },
      {
        "midi": 81,
        "time": 168.75,
        "duration": 0.25,
        "velocity": 0.71,
        "hand": "right"
      },
      {
        "midi": 66,
        "time": 169,
        "duration": 0.25,
        "velocity": 0.71,
        "hand": "right"
      },
      {
        "midi": 69,
        "time": 169.25,
        "duration": 0.25,
        "velocity": 0.71,
        "hand": "right"
      },
      {
        "midi": 73,
        "time": 169.5,
        "duration": 0.25,
        "velocity": 0.71,
        "hand": "right"
      },
      {
        "midi": 78,
        "time": 169.75,
        "duration": 0.25,
        "velocity": 0.71,
        "hand": "right"
      },
      {
        "midi": 73,
        "time": 170,
        "duration": 0.25,
        "velocity": 0.71,
        "hand": "right"
      },
      {
        "midi": 81,
        "time": 170.25,
        "duration": 0.25,
        "velocity": 0.71,
        "hand": "right"
      },
      {
        "midi": 64,
        "time": 170.5,
        "duration": 1.5,
        "velocity": 0.71,
        "hand": "right"
      },
      {
        "midi": 66,
        "time": 170.5,
        "duration": 0.25,
        "velocity": 0.71,
        "hand": "right"
      },
      {
        "midi": 78,
        "time": 170.5,
        "duration": 0.735,
        "velocity": 0.71,
        "hand": "right"
      },
      {
        "midi": 69,
        "time": 170.75,
        "duration": 0.25,
        "velocity": 0.71,
        "hand": "right"
      },
      {
        "midi": 73,
        "time": 171,
        "duration": 0.25,
        "velocity": 0.71,
        "hand": "right"
      },
      {
        "midi": 78,
        "time": 171.25,
        "duration": 0.25,
        "velocity": 0.71,
        "hand": "right"
      },
      {
        "midi": 73,
        "time": 171.5,
        "duration": 0.25,
        "velocity": 0.71,
        "hand": "right"
      },
      {
        "midi": 81,
        "time": 171.75,
        "duration": 0.25,
        "velocity": 0.71,
        "hand": "right"
      },
      {
        "midi": 63,
        "time": 172,
        "duration": 1.5,
        "velocity": 0.71,
        "hand": "right"
      },
      {
        "midi": 66,
        "time": 172,
        "duration": 0.25,
        "velocity": 0.71,
        "hand": "right"
      },
      {
        "midi": 69,
        "time": 172.25,
        "duration": 0.25,
        "velocity": 0.71,
        "hand": "right"
      },
      {
        "midi": 73,
        "time": 172.5,
        "duration": 0.25,
        "velocity": 0.71,
        "hand": "right"
      },
      {
        "midi": 78,
        "time": 172.75,
        "duration": 0.25,
        "velocity": 0.71,
        "hand": "right"
      },
      {
        "midi": 73,
        "time": 173,
        "duration": 0.25,
        "velocity": 0.71,
        "hand": "right"
      },
      {
        "midi": 81,
        "time": 173.25,
        "duration": 0.235,
        "velocity": 0.71,
        "hand": "right"
      },
      {
        "midi": 61,
        "time": 173.5,
        "duration": 1.5,
        "velocity": 0.71,
        "hand": "right"
      },
      {
        "midi": 64,
        "time": 173.5,
        "duration": 0.25,
        "velocity": 0.71,
        "hand": "right"
      },
      {
        "midi": 81,
        "time": 173.5,
        "duration": 1,
        "velocity": 0.71,
        "hand": "right"
      },
      {
        "midi": 69,
        "time": 173.75,
        "duration": 0.25,
        "velocity": 0.71,
        "hand": "right"
      },
      {
        "midi": 73,
        "time": 174,
        "duration": 0.25,
        "velocity": 0.71,
        "hand": "right"
      },
      {
        "midi": 76,
        "time": 174.25,
        "duration": 0.25,
        "velocity": 0.71,
        "hand": "right"
      },
      {
        "midi": 73,
        "time": 174.5,
        "duration": 0.235,
        "velocity": 0.71,
        "hand": "right"
      },
      {
        "midi": 73,
        "time": 174.75,
        "duration": 0.25,
        "velocity": 0.71,
        "hand": "right"
      },
      {
        "midi": 59,
        "time": 175,
        "duration": 1.5,
        "velocity": 0.71,
        "hand": "left"
      },
      {
        "midi": 78,
        "time": 175,
        "duration": 3,
        "velocity": 0.71,
        "hand": "right"
      },
      {
        "midi": 63,
        "time": 175.25,
        "duration": 0.25,
        "velocity": 0.71,
        "hand": "right"
      },
      {
        "midi": 66,
        "time": 175.5,
        "duration": 0.235,
        "velocity": 0.71,
        "hand": "right"
      },
      {
        "midi": 66,
        "time": 175.75,
        "duration": 0.25,
        "velocity": 0.71,
        "hand": "right"
      },
      {
        "midi": 73,
        "time": 176,
        "duration": 0.25,
        "velocity": 0.71,
        "hand": "right"
      },
      {
        "midi": 69,
        "time": 176.25,
        "duration": 0.25,
        "velocity": 0.71,
        "hand": "right"
      },
      {
        "midi": 57,
        "time": 176.5,
        "duration": 1.5,
        "velocity": 0.71,
        "hand": "left"
      },
      {
        "midi": 61,
        "time": 176.75,
        "duration": 0.25,
        "velocity": 0.71,
        "hand": "right"
      },
      {
        "midi": 64,
        "time": 177,
        "duration": 0.25,
        "velocity": 0.71,
        "hand": "right"
      },
      {
        "midi": 66,
        "time": 177.25,
        "duration": 0.25,
        "velocity": 0.71,
        "hand": "right"
      },
      {
        "midi": 73,
        "time": 177.5,
        "duration": 0.25,
        "velocity": 0.71,
        "hand": "right"
      },
      {
        "midi": 69,
        "time": 177.75,
        "duration": 0.25,
        "velocity": 0.71,
        "hand": "right"
      },
      {
        "midi": 56,
        "time": 178,
        "duration": 1.5,
        "velocity": 0.71,
        "hand": "left"
      },
      {
        "midi": 81,
        "time": 178,
        "duration": 1,
        "velocity": 0.71,
        "hand": "right"
      },
      {
        "midi": 61,
        "time": 178.25,
        "duration": 0.25,
        "velocity": 0.71,
        "hand": "right"
      },
      {
        "midi": 64,
        "time": 178.5,
        "duration": 0.25,
        "velocity": 0.71,
        "hand": "right"
      },
      {
        "midi": 69,
        "time": 178.75,
        "duration": 0.25,
        "velocity": 0.71,
        "hand": "right"
      },
      {
        "midi": 73,
        "time": 179,
        "duration": 0.485,
        "velocity": 0.71,
        "hand": "right"
      },
      {
        "midi": 76,
        "time": 179,
        "duration": 0.25,
        "velocity": 0.71,
        "hand": "right"
      },
      {
        "midi": 81,
        "time": 179.25,
        "duration": 0.25,
        "velocity": 0.71,
        "hand": "right"
      },
      {
        "midi": 54,
        "time": 179.5,
        "duration": 4.5,
        "velocity": 0.71,
        "hand": "left"
      },
      {
        "midi": 73,
        "time": 179.5,
        "duration": 0.5,
        "velocity": 0.71,
        "hand": "right"
      },
      {
        "midi": 76,
        "time": 179.5,
        "duration": 0.5,
        "velocity": 0.71,
        "hand": "right"
      },
      {
        "midi": 61,
        "time": 179.75,
        "duration": 0.25,
        "velocity": 0.71,
        "hand": "right"
      },
      {
        "midi": 64,
        "time": 180,
        "duration": 0.25,
        "velocity": 0.71,
        "hand": "right"
      },
      {
        "midi": 75,
        "time": 180,
        "duration": 0.5,
        "velocity": 0.71,
        "hand": "right"
      },
      {
        "midi": 83,
        "time": 180,
        "duration": 0.5,
        "velocity": 0.71,
        "hand": "right"
      },
      {
        "midi": 66,
        "time": 180.25,
        "duration": 0.25,
        "velocity": 0.71,
        "hand": "right"
      },
      {
        "midi": 69,
        "time": 180.5,
        "duration": 0.25,
        "velocity": 0.71,
        "hand": "right"
      },
      {
        "midi": 73,
        "time": 180.5,
        "duration": 0.235,
        "velocity": 0.71,
        "hand": "right"
      },
      {
        "midi": 81,
        "time": 180.5,
        "duration": 0.5,
        "velocity": 0.71,
        "hand": "right"
      },
      {
        "midi": 73,
        "time": 180.75,
        "duration": 0.25,
        "velocity": 0.71,
        "hand": "right"
      },
      {
        "midi": 76,
        "time": 181,
        "duration": 0.25,
        "velocity": 0.71,
        "hand": "right"
      },
      {
        "midi": 80,
        "time": 181,
        "duration": 0.75,
        "velocity": 0.71,
        "hand": "right"
      },
      {
        "midi": 83,
        "time": 181,
        "duration": 0.75,
        "velocity": 0.71,
        "hand": "right"
      },
      {
        "midi": 78,
        "time": 181.25,
        "duration": 0.25,
        "velocity": 0.71,
        "hand": "right"
      },
      {
        "midi": 76,
        "time": 181.5,
        "duration": 0.25,
        "velocity": 0.71,
        "hand": "right"
      },
      {
        "midi": 73,
        "time": 181.75,
        "duration": 0.25,
        "velocity": 0.71,
        "hand": "right"
      },
      {
        "midi": 78,
        "time": 181.75,
        "duration": 1.25,
        "velocity": 0.71,
        "hand": "right"
      },
      {
        "midi": 81,
        "time": 181.75,
        "duration": 1.25,
        "velocity": 0.71,
        "hand": "right"
      },
      {
        "midi": 69,
        "time": 182,
        "duration": 0.25,
        "velocity": 0.71,
        "hand": "right"
      },
      {
        "midi": 66,
        "time": 182.25,
        "duration": 0.25,
        "velocity": 0.71,
        "hand": "right"
      },
      {
        "midi": 64,
        "time": 182.5,
        "duration": 0.25,
        "velocity": 0.71,
        "hand": "right"
      },
      {
        "midi": 66,
        "time": 182.75,
        "duration": 0.25,
        "velocity": 0.71,
        "hand": "right"
      },
      {
        "midi": 64,
        "time": 183,
        "duration": 0.25,
        "velocity": 0.71,
        "hand": "right"
      },
      {
        "midi": 76,
        "time": 183,
        "duration": 0.5,
        "velocity": 0.71,
        "hand": "right"
      },
      {
        "midi": 80,
        "time": 183,
        "duration": 0.5,
        "velocity": 0.71,
        "hand": "right"
      },
      {
        "midi": 61,
        "time": 183.25,
        "duration": 0.25,
        "velocity": 0.71,
        "hand": "right"
      },
      {
        "midi": 57,
        "time": 183.5,
        "duration": 0.25,
        "velocity": 0.71,
        "hand": "left"
      },
      {
        "midi": 75,
        "time": 183.5,
        "duration": 0.5,
        "velocity": 0.71,
        "hand": "right"
      },
      {
        "midi": 78,
        "time": 183.5,
        "duration": 0.5,
        "velocity": 0.71,
        "hand": "right"
      },
      {
        "midi": 42,
        "time": 184,
        "duration": 0.25,
        "velocity": 0.71,
        "hand": "left"
      },
      {
        "midi": 73,
        "time": 184,
        "duration": 0.5,
        "velocity": 0.71,
        "hand": "right"
      },
      {
        "midi": 76,
        "time": 184,
        "duration": 0.5,
        "velocity": 0.71,
        "hand": "right"
      },
      {
        "midi": 49,
        "time": 184.25,
        "duration": 0.25,
        "velocity": 0.71,
        "hand": "left"
      },
      {
        "midi": 52,
        "time": 184.5,
        "duration": 0.25,
        "velocity": 0.71,
        "hand": "left"
      },
      {
        "midi": 71,
        "time": 184.5,
        "duration": 0.5,
        "velocity": 0.71,
        "hand": "right"
      },
      {
        "midi": 75,
        "time": 184.5,
        "duration": 0.5,
        "velocity": 0.71,
        "hand": "right"
      },
      {
        "midi": 54,
        "time": 184.75,
        "duration": 0.25,
        "velocity": 0.71,
        "hand": "left"
      },
      {
        "midi": 57,
        "time": 185,
        "duration": 0.25,
        "velocity": 0.71,
        "hand": "left"
      },
      {
        "midi": 69,
        "time": 185,
        "duration": 0.5,
        "velocity": 0.71,
        "hand": "right"
      },
      {
        "midi": 73,
        "time": 185,
        "duration": 0.5,
        "velocity": 0.71,
        "hand": "right"
      },
      {
        "midi": 61,
        "time": 185.25,
        "duration": 0.25,
        "velocity": 0.71,
        "hand": "right"
      },
      {
        "midi": 64,
        "time": 185.5,
        "duration": 0.25,
        "velocity": 0.71,
        "hand": "right"
      },
      {
        "midi": 68,
        "time": 185.5,
        "duration": 0.5,
        "velocity": 0.71,
        "hand": "right"
      },
      {
        "midi": 71,
        "time": 185.5,
        "duration": 0.5,
        "velocity": 0.71,
        "hand": "right"
      },
      {
        "midi": 61,
        "time": 185.75,
        "duration": 0.25,
        "velocity": 0.71,
        "hand": "right"
      },
      {
        "midi": 57,
        "time": 186,
        "duration": 0.25,
        "velocity": 0.71,
        "hand": "left"
      },
      {
        "midi": 66,
        "time": 186,
        "duration": 0.5,
        "velocity": 0.71,
        "hand": "right"
      },
      {
        "midi": 69,
        "time": 186,
        "duration": 0.5,
        "velocity": 0.71,
        "hand": "right"
      },
      {
        "midi": 54,
        "time": 186.25,
        "duration": 0.25,
        "velocity": 0.71,
        "hand": "left"
      },
      {
        "midi": 52,
        "time": 186.5,
        "duration": 0.25,
        "velocity": 0.71,
        "hand": "left"
      },
      {
        "midi": 64,
        "time": 186.5,
        "duration": 1,
        "velocity": 0.71,
        "hand": "right"
      },
      {
        "midi": 68,
        "time": 186.5,
        "duration": 1,
        "velocity": 0.71,
        "hand": "right"
      },
      {
        "midi": 49,
        "time": 186.75,
        "duration": 0.25,
        "velocity": 0.71,
        "hand": "left"
      },
      {
        "midi": 42,
        "time": 187,
        "duration": 0.25,
        "velocity": 0.71,
        "hand": "left"
      },
      {
        "midi": 57,
        "time": 187,
        "duration": 1.5,
        "velocity": 0.71,
        "hand": "left"
      },
      {
        "midi": 49,
        "time": 187.25,
        "duration": 0.25,
        "velocity": 0.71,
        "hand": "left"
      },
      {
        "midi": 42,
        "time": 187.5,
        "duration": 0.25,
        "velocity": 0.71,
        "hand": "left"
      },
      {
        "midi": 63,
        "time": 187.5,
        "duration": 0.5,
        "velocity": 0.71,
        "hand": "right"
      },
      {
        "midi": 66,
        "time": 187.5,
        "duration": 0.5,
        "velocity": 0.71,
        "hand": "right"
      },
      {
        "midi": 49,
        "time": 187.75,
        "duration": 0.25,
        "velocity": 0.71,
        "hand": "left"
      },
      {
        "midi": 42,
        "time": 188,
        "duration": 0.25,
        "velocity": 0.71,
        "hand": "left"
      },
      {
        "midi": 61,
        "time": 188,
        "duration": 0.485,
        "velocity": 0.71,
        "hand": "right"
      },
      {
        "midi": 64,
        "time": 188,
        "duration": 0.5,
        "velocity": 0.71,
        "hand": "right"
      },
      {
        "midi": 49,
        "time": 188.25,
        "duration": 0.25,
        "velocity": 0.71,
        "hand": "left"
      },
      {
        "midi": 44,
        "time": 188.5,
        "duration": 0.25,
        "velocity": 0.71,
        "hand": "left"
      },
      {
        "midi": 54,
        "time": 188.5,
        "duration": 1,
        "velocity": 0.71,
        "hand": "left"
      },
      {
        "midi": 61,
        "time": 188.5,
        "duration": 3,
        "velocity": 0.71,
        "hand": "right"
      },
      {
        "midi": 63,
        "time": 188.5,
        "duration": 2.985,
        "velocity": 0.71,
        "hand": "right"
      },
      {
        "midi": 51,
        "time": 188.75,
        "duration": 0.25,
        "velocity": 0.71,
        "hand": "left"
      },
      {
        "midi": 44,
        "time": 189,
        "duration": 0.25,
        "velocity": 0.71,
        "hand": "left"
      },
      {
        "midi": 51,
        "time": 189.25,
        "duration": 0.25,
        "velocity": 0.71,
        "hand": "left"
      },
      {
        "midi": 44,
        "time": 189.5,
        "duration": 0.25,
        "velocity": 0.71,
        "hand": "left"
      },
      {
        "midi": 56,
        "time": 189.5,
        "duration": 0.5,
        "velocity": 0.71,
        "hand": "left"
      },
      {
        "midi": 51,
        "time": 189.75,
        "duration": 0.25,
        "velocity": 0.71,
        "hand": "left"
      },
      {
        "midi": 44,
        "time": 190,
        "duration": 0.25,
        "velocity": 0.71,
        "hand": "left"
      },
      {
        "midi": 58,
        "time": 190,
        "duration": 1,
        "velocity": 0.71,
        "hand": "left"
      },
      {
        "midi": 51,
        "time": 190.25,
        "duration": 0.25,
        "velocity": 0.71,
        "hand": "left"
      },
      {
        "midi": 44,
        "time": 190.5,
        "duration": 0.25,
        "velocity": 0.71,
        "hand": "left"
      },
      {
        "midi": 51,
        "time": 190.75,
        "duration": 0.25,
        "velocity": 0.71,
        "hand": "left"
      },
      {
        "midi": 44,
        "time": 191,
        "duration": 0.25,
        "velocity": 0.71,
        "hand": "left"
      },
      {
        "midi": 51,
        "time": 191.25,
        "duration": 0.25,
        "velocity": 0.71,
        "hand": "left"
      },
      {
        "midi": 44,
        "time": 191.5,
        "duration": 0.25,
        "velocity": 0.71,
        "hand": "left"
      },
      {
        "midi": 60,
        "time": 191.5,
        "duration": 1.5,
        "velocity": 0.71,
        "hand": "right"
      },
      {
        "midi": 63,
        "time": 191.5,
        "duration": 0.985,
        "velocity": 0.71,
        "hand": "right"
      },
      {
        "midi": 66,
        "time": 191.5,
        "duration": 0.985,
        "velocity": 0.71,
        "hand": "right"
      },
      {
        "midi": 51,
        "time": 191.75,
        "duration": 0.25,
        "velocity": 0.71,
        "hand": "left"
      },
      {
        "midi": 44,
        "time": 192,
        "duration": 0.25,
        "velocity": 0.71,
        "hand": "left"
      },
      {
        "midi": 51,
        "time": 192.25,
        "duration": 0.25,
        "velocity": 0.71,
        "hand": "left"
      },
      {
        "midi": 44,
        "time": 192.5,
        "duration": 0.25,
        "velocity": 0.71,
        "hand": "left"
      },
      {
        "midi": 63,
        "time": 192.5,
        "duration": 0.485,
        "velocity": 0.71,
        "hand": "right"
      },
      {
        "midi": 66,
        "time": 192.5,
        "duration": 0.5,
        "velocity": 0.71,
        "hand": "right"
      },
      {
        "midi": 70,
        "time": 192.5,
        "duration": 0.5,
        "velocity": 0.71,
        "hand": "right"
      },
      {
        "midi": 51,
        "time": 192.75,
        "duration": 0.25,
        "velocity": 0.71,
        "hand": "left"
      },
      {
        "midi": 44,
        "time": 193,
        "duration": 0.25,
        "velocity": 0.71,
        "hand": "left"
      },
      {
        "midi": 54,
        "time": 193,
        "duration": 1,
        "velocity": 0.71,
        "hand": "left"
      },
      {
        "midi": 61,
        "time": 193,
        "duration": 3,
        "velocity": 0.71,
        "hand": "right"
      },
      {
        "midi": 63,
        "time": 193,
        "duration": 2.985,
        "velocity": 0.71,
        "hand": "right"
      },
      {
        "midi": 51,
        "time": 193.25,
        "duration": 0.25,
        "velocity": 0.71,
        "hand": "left"
      },
      {
        "midi": 44,
        "time": 193.5,
        "duration": 0.25,
        "velocity": 0.71,
        "hand": "left"
      },
      {
        "midi": 51,
        "time": 193.75,
        "duration": 0.25,
        "velocity": 0.71,
        "hand": "left"
      },
      {
        "midi": 44,
        "time": 194,
        "duration": 0.25,
        "velocity": 0.71,
        "hand": "left"
      },
      {
        "midi": 56,
        "time": 194,
        "duration": 0.5,
        "velocity": 0.71,
        "hand": "left"
      },
      {
        "midi": 51,
        "time": 194.25,
        "duration": 0.25,
        "velocity": 0.71,
        "hand": "left"
      },
      {
        "midi": 44,
        "time": 194.5,
        "duration": 0.25,
        "velocity": 0.71,
        "hand": "left"
      },
      {
        "midi": 58,
        "time": 194.5,
        "duration": 1,
        "velocity": 0.71,
        "hand": "left"
      },
      {
        "midi": 51,
        "time": 194.75,
        "duration": 0.25,
        "velocity": 0.71,
        "hand": "left"
      },
      {
        "midi": 44,
        "time": 195,
        "duration": 0.25,
        "velocity": 0.71,
        "hand": "left"
      },
      {
        "midi": 51,
        "time": 195.25,
        "duration": 0.25,
        "velocity": 0.71,
        "hand": "left"
      },
      {
        "midi": 44,
        "time": 195.5,
        "duration": 0.25,
        "velocity": 0.71,
        "hand": "left"
      },
      {
        "midi": 51,
        "time": 195.75,
        "duration": 0.25,
        "velocity": 0.71,
        "hand": "left"
      },
      {
        "midi": 44,
        "time": 196,
        "duration": 0.25,
        "velocity": 0.71,
        "hand": "left"
      },
      {
        "midi": 60,
        "time": 196,
        "duration": 1.5,
        "velocity": 0.71,
        "hand": "right"
      },
      {
        "midi": 63,
        "time": 196,
        "duration": 0.985,
        "velocity": 0.71,
        "hand": "right"
      },
      {
        "midi": 66,
        "time": 196,
        "duration": 0.985,
        "velocity": 0.71,
        "hand": "right"
      },
      {
        "midi": 51,
        "time": 196.25,
        "duration": 0.25,
        "velocity": 0.71,
        "hand": "left"
      },
      {
        "midi": 44,
        "time": 196.5,
        "duration": 0.25,
        "velocity": 0.71,
        "hand": "left"
      },
      {
        "midi": 51,
        "time": 196.75,
        "duration": 0.25,
        "velocity": 0.71,
        "hand": "left"
      },
      {
        "midi": 44,
        "time": 197,
        "duration": 0.25,
        "velocity": 0.71,
        "hand": "left"
      },
      {
        "midi": 63,
        "time": 197,
        "duration": 0.5,
        "velocity": 0.71,
        "hand": "right"
      },
      {
        "midi": 66,
        "time": 197,
        "duration": 1,
        "velocity": 0.71,
        "hand": "right"
      },
      {
        "midi": 70,
        "time": 197,
        "duration": 1,
        "velocity": 0.71,
        "hand": "right"
      },
      {
        "midi": 51,
        "time": 197.25,
        "duration": 0.25,
        "velocity": 0.71,
        "hand": "left"
      },
      {
        "midi": 44,
        "time": 197.5,
        "duration": 0.25,
        "velocity": 0.71,
        "hand": "left"
      },
      {
        "midi": 61,
        "time": 197.5,
        "duration": 0.5,
        "velocity": 0.71,
        "hand": "right"
      },
      {
        "midi": 39,
        "time": 197.75,
        "duration": 0.25,
        "velocity": 0.71,
        "hand": "left"
      },
      {
        "midi": 44,
        "time": 198,
        "duration": 0.25,
        "velocity": 0.71,
        "hand": "left"
      },
      {
        "midi": 68,
        "time": 198,
        "duration": 0.5,
        "velocity": 0.71,
        "hand": "right"
      },
      {
        "midi": 72,
        "time": 198,
        "duration": 0.5,
        "velocity": 0.71,
        "hand": "right"
      },
      {
        "midi": 77,
        "time": 198,
        "duration": 0.5,
        "velocity": 0.71,
        "hand": "right"
      },
      {
        "midi": 51,
        "time": 198.25,
        "duration": 0.25,
        "velocity": 0.71,
        "hand": "left"
      },
      {
        "midi": 44,
        "time": 198.5,
        "duration": 0.25,
        "velocity": 0.71,
        "hand": "left"
      },
      {
        "midi": 66,
        "time": 198.5,
        "duration": 0.485,
        "velocity": 0.71,
        "hand": "right"
      },
      {
        "midi": 70,
        "time": 198.5,
        "duration": 0.485,
        "velocity": 0.71,
        "hand": "right"
      },
      {
        "midi": 75,
        "time": 198.5,
        "duration": 0.5,
        "velocity": 0.71,
        "hand": "right"
      },
      {
        "midi": 51,
        "time": 198.75,
        "duration": 0.25,
        "velocity": 0.71,
        "hand": "left"
      },
      {
        "midi": 56,
        "time": 199,
        "duration": 0.25,
        "velocity": 0.71,
        "hand": "left"
      },
      {
        "midi": 61,
        "time": 199,
        "duration": 0.5,
        "velocity": 0.71,
        "hand": "right"
      },
      {
        "midi": 66,
        "time": 199,
        "duration": 1.485,
        "velocity": 0.71,
        "hand": "right"
      },
      {
        "midi": 70,
        "time": 199,
        "duration": 1.5,
        "velocity": 0.71,
        "hand": "right"
      },
      {
        "midi": 51,
        "time": 199.25,
        "duration": 0.25,
        "velocity": 0.71,
        "hand": "left"
      },
      {
        "midi": 56,
        "time": 199.5,
        "duration": 0.25,
        "velocity": 0.71,
        "hand": "left"
      },
      {
        "midi": 58,
        "time": 199.5,
        "duration": 0.5,
        "velocity": 0.71,
        "hand": "left"
      },
      {
        "midi": 63,
        "time": 199.75,
        "duration": 0.25,
        "velocity": 0.71,
        "hand": "right"
      },
      {
        "midi": 56,
        "time": 200,
        "duration": 0.25,
        "velocity": 0.71,
        "hand": "left"
      },
      {
        "midi": 61,
        "time": 200,
        "duration": 0.5,
        "velocity": 0.71,
        "hand": "right"
      },
      {
        "midi": 51,
        "time": 200.25,
        "duration": 0.25,
        "velocity": 0.71,
        "hand": "left"
      },
      {
        "midi": 56,
        "time": 200.5,
        "duration": 0.25,
        "velocity": 0.71,
        "hand": "left"
      },
      {
        "midi": 58,
        "time": 200.5,
        "duration": 0.5,
        "velocity": 0.71,
        "hand": "left"
      },
      {
        "midi": 66,
        "time": 200.5,
        "duration": 1.485,
        "velocity": 0.71,
        "hand": "right"
      },
      {
        "midi": 68,
        "time": 200.5,
        "duration": 1.5,
        "velocity": 0.71,
        "hand": "right"
      },
      {
        "midi": 51,
        "time": 200.75,
        "duration": 0.25,
        "velocity": 0.71,
        "hand": "left"
      },
      {
        "midi": 44,
        "time": 201,
        "duration": 0.25,
        "velocity": 0.71,
        "hand": "left"
      },
      {
        "midi": 60,
        "time": 201,
        "duration": 0.5,
        "velocity": 0.71,
        "hand": "right"
      },
      {
        "midi": 51,
        "time": 201.25,
        "duration": 0.25,
        "velocity": 0.71,
        "hand": "left"
      },
      {
        "midi": 44,
        "time": 201.5,
        "duration": 0.25,
        "velocity": 0.71,
        "hand": "left"
      },
      {
        "midi": 63,
        "time": 201.5,
        "duration": 0.5,
        "velocity": 0.71,
        "hand": "right"
      },
      {
        "midi": 39,
        "time": 201.75,
        "duration": 0.25,
        "velocity": 0.71,
        "hand": "left"
      },
      {
        "midi": 44,
        "time": 202,
        "duration": 0.25,
        "velocity": 0.71,
        "hand": "left"
      },
      {
        "midi": 61,
        "time": 202,
        "duration": 0.5,
        "velocity": 0.71,
        "hand": "right"
      },
      {
        "midi": 66,
        "time": 202,
        "duration": 0.5,
        "velocity": 0.71,
        "hand": "right"
      },
      {
        "midi": 70,
        "time": 202,
        "duration": 0.5,
        "velocity": 0.71,
        "hand": "right"
      },
      {
        "midi": 39,
        "time": 202.25,
        "duration": 0.25,
        "velocity": 0.71,
        "hand": "left"
      },
      {
        "midi": 44,
        "time": 202.5,
        "duration": 0.25,
        "velocity": 0.71,
        "hand": "left"
      },
      {
        "midi": 68,
        "time": 202.5,
        "duration": 0.5,
        "velocity": 0.71,
        "hand": "right"
      },
      {
        "midi": 72,
        "time": 202.5,
        "duration": 0.5,
        "velocity": 0.71,
        "hand": "right"
      },
      {
        "midi": 77,
        "time": 202.5,
        "duration": 0.5,
        "velocity": 0.71,
        "hand": "right"
      },
      {
        "midi": 51,
        "time": 202.75,
        "duration": 0.25,
        "velocity": 0.71,
        "hand": "left"
      },
      {
        "midi": 44,
        "time": 203,
        "duration": 0.25,
        "velocity": 0.71,
        "hand": "left"
      },
      {
        "midi": 66,
        "time": 203,
        "duration": 0.485,
        "velocity": 0.71,
        "hand": "right"
      },
      {
        "midi": 70,
        "time": 203,
        "duration": 0.485,
        "velocity": 0.71,
        "hand": "right"
      },
      {
        "midi": 75,
        "time": 203,
        "duration": 0.5,
        "velocity": 0.71,
        "hand": "right"
      },
      {
        "midi": 51,
        "time": 203.25,
        "duration": 0.25,
        "velocity": 0.71,
        "hand": "left"
      },
      {
        "midi": 56,
        "time": 203.5,
        "duration": 0.25,
        "velocity": 0.71,
        "hand": "left"
      },
      {
        "midi": 61,
        "time": 203.5,
        "duration": 0.5,
        "velocity": 0.71,
        "hand": "right"
      },
      {
        "midi": 66,
        "time": 203.5,
        "duration": 1.485,
        "velocity": 0.71,
        "hand": "right"
      },
      {
        "midi": 70,
        "time": 203.5,
        "duration": 1.5,
        "velocity": 0.71,
        "hand": "right"
      },
      {
        "midi": 51,
        "time": 203.75,
        "duration": 0.25,
        "velocity": 0.71,
        "hand": "left"
      },
      {
        "midi": 56,
        "time": 204,
        "duration": 0.25,
        "velocity": 0.71,
        "hand": "left"
      },
      {
        "midi": 58,
        "time": 204,
        "duration": 0.5,
        "velocity": 0.71,
        "hand": "left"
      },
      {
        "midi": 63,
        "time": 204.25,
        "duration": 0.25,
        "velocity": 0.71,
        "hand": "right"
      },
      {
        "midi": 56,
        "time": 204.5,
        "duration": 0.25,
        "velocity": 0.71,
        "hand": "left"
      },
      {
        "midi": 61,
        "time": 204.5,
        "duration": 0.5,
        "velocity": 0.71,
        "hand": "right"
      },
      {
        "midi": 51,
        "time": 204.75,
        "duration": 0.25,
        "velocity": 0.71,
        "hand": "left"
      },
      {
        "midi": 56,
        "time": 205,
        "duration": 0.25,
        "velocity": 0.71,
        "hand": "left"
      },
      {
        "midi": 58,
        "time": 205,
        "duration": 0.5,
        "velocity": 0.71,
        "hand": "left"
      },
      {
        "midi": 66,
        "time": 205,
        "duration": 1.5,
        "velocity": 0.71,
        "hand": "right"
      },
      {
        "midi": 68,
        "time": 205,
        "duration": 1.5,
        "velocity": 0.71,
        "hand": "right"
      },
      {
        "midi": 51,
        "time": 205.25,
        "duration": 0.25,
        "velocity": 0.71,
        "hand": "left"
      },
      {
        "midi": 56,
        "time": 205.5,
        "duration": 0.25,
        "velocity": 0.71,
        "hand": "left"
      },
      {
        "midi": 60,
        "time": 205.5,
        "duration": 0.5,
        "velocity": 0.71,
        "hand": "right"
      },
      {
        "midi": 51,
        "time": 205.75,
        "duration": 0.25,
        "velocity": 0.71,
        "hand": "left"
      },
      {
        "midi": 56,
        "time": 206,
        "duration": 0.25,
        "velocity": 0.71,
        "hand": "left"
      },
      {
        "midi": 63,
        "time": 206,
        "duration": 0.5,
        "velocity": 0.71,
        "hand": "right"
      },
      {
        "midi": 51,
        "time": 206.25,
        "duration": 0.25,
        "velocity": 0.71,
        "hand": "left"
      },
      {
        "midi": 54,
        "time": 206.5,
        "duration": 1,
        "velocity": 0.71,
        "hand": "left"
      },
      {
        "midi": 61,
        "time": 206.5,
        "duration": 3,
        "velocity": 0.71,
        "hand": "right"
      },
      {
        "midi": 75,
        "time": 206.5,
        "duration": 3,
        "velocity": 0.71,
        "hand": "right"
      },
      {
        "midi": 63,
        "time": 206.75,
        "duration": 0.25,
        "velocity": 0.71,
        "hand": "right"
      },
      {
        "midi": 66,
        "time": 207,
        "duration": 0.25,
        "velocity": 0.71,
        "hand": "right"
      },
      {
        "midi": 70,
        "time": 207.25,
        "duration": 0.25,
        "velocity": 0.71,
        "hand": "right"
      },
      {
        "midi": 56,
        "time": 207.5,
        "duration": 0.5,
        "velocity": 0.71,
        "hand": "left"
      },
      {
        "midi": 66,
        "time": 207.5,
        "duration": 0.25,
        "velocity": 0.71,
        "hand": "right"
      },
      {
        "midi": 63,
        "time": 207.75,
        "duration": 0.25,
        "velocity": 0.71,
        "hand": "right"
      },
      {
        "midi": 58,
        "time": 208,
        "duration": 1,
        "velocity": 0.71,
        "hand": "left"
      },
      {
        "midi": 63,
        "time": 208.25,
        "duration": 0.25,
        "velocity": 0.71,
        "hand": "right"
      },
      {
        "midi": 66,
        "time": 208.5,
        "duration": 0.25,
        "velocity": 0.71,
        "hand": "right"
      },
      {
        "midi": 70,
        "time": 208.75,
        "duration": 0.25,
        "velocity": 0.71,
        "hand": "right"
      },
      {
        "midi": 66,
        "time": 209,
        "duration": 0.25,
        "velocity": 0.71,
        "hand": "right"
      },
      {
        "midi": 63,
        "time": 209.25,
        "duration": 0.25,
        "velocity": 0.71,
        "hand": "right"
      },
      {
        "midi": 60,
        "time": 209.5,
        "duration": 1.5,
        "velocity": 0.71,
        "hand": "right"
      },
      {
        "midi": 78,
        "time": 209.5,
        "duration": 1,
        "velocity": 0.71,
        "hand": "right"
      },
      {
        "midi": 63,
        "time": 209.75,
        "duration": 0.25,
        "velocity": 0.71,
        "hand": "right"
      },
      {
        "midi": 66,
        "time": 210,
        "duration": 0.25,
        "velocity": 0.71,
        "hand": "right"
      },
      {
        "midi": 70,
        "time": 210.25,
        "duration": 0.25,
        "velocity": 0.71,
        "hand": "right"
      },
      {
        "midi": 72,
        "time": 210.5,
        "duration": 0.25,
        "velocity": 0.71,
        "hand": "right"
      },
      {
        "midi": 82,
        "time": 210.5,
        "duration": 0.5,
        "velocity": 0.71,
        "hand": "right"
      },
      {
        "midi": 75,
        "time": 210.75,
        "duration": 0.235,
        "velocity": 0.71,
        "hand": "right"
      },
      {
        "midi": 54,
        "time": 211,
        "duration": 1,
        "velocity": 0.71,
        "hand": "left"
      },
      {
        "midi": 61,
        "time": 211,
        "duration": 3,
        "velocity": 0.71,
        "hand": "right"
      },
      {
        "midi": 75,
        "time": 211,
        "duration": 3,
        "velocity": 0.71,
        "hand": "right"
      },
      {
        "midi": 63,
        "time": 211.25,
        "duration": 0.25,
        "velocity": 0.71,
        "hand": "right"
      },
      {
        "midi": 66,
        "time": 211.5,
        "duration": 0.25,
        "velocity": 0.71,
        "hand": "right"
      },
      {
        "midi": 70,
        "time": 211.75,
        "duration": 0.25,
        "velocity": 0.71,
        "hand": "right"
      },
      {
        "midi": 56,
        "time": 212,
        "duration": 0.5,
        "velocity": 0.71,
        "hand": "left"
      },
      {
        "midi": 66,
        "time": 212,
        "duration": 0.25,
        "velocity": 0.71,
        "hand": "right"
      },
      {
        "midi": 63,
        "time": 212.25,
        "duration": 0.25,
        "velocity": 0.71,
        "hand": "right"
      },
      {
        "midi": 58,
        "time": 212.5,
        "duration": 1,
        "velocity": 0.71,
        "hand": "left"
      },
      {
        "midi": 63,
        "time": 212.75,
        "duration": 0.25,
        "velocity": 0.71,
        "hand": "right"
      },
      {
        "midi": 66,
        "time": 213,
        "duration": 0.25,
        "velocity": 0.71,
        "hand": "right"
      },
      {
        "midi": 70,
        "time": 213.25,
        "duration": 0.25,
        "velocity": 0.71,
        "hand": "right"
      },
      {
        "midi": 66,
        "time": 213.5,
        "duration": 0.25,
        "velocity": 0.71,
        "hand": "right"
      },
      {
        "midi": 63,
        "time": 213.75,
        "duration": 0.25,
        "velocity": 0.71,
        "hand": "right"
      },
      {
        "midi": 60,
        "time": 214,
        "duration": 1.5,
        "velocity": 0.71,
        "hand": "right"
      },
      {
        "midi": 78,
        "time": 214,
        "duration": 1,
        "velocity": 0.71,
        "hand": "right"
      },
      {
        "midi": 63,
        "time": 214.25,
        "duration": 0.25,
        "velocity": 0.71,
        "hand": "right"
      },
      {
        "midi": 66,
        "time": 214.5,
        "duration": 0.25,
        "velocity": 0.71,
        "hand": "right"
      },
      {
        "midi": 70,
        "time": 214.75,
        "duration": 0.25,
        "velocity": 0.71,
        "hand": "right"
      },
      {
        "midi": 72,
        "time": 215,
        "duration": 0.25,
        "velocity": 0.71,
        "hand": "right"
      },
      {
        "midi": 82,
        "time": 215,
        "duration": 0.5,
        "velocity": 0.71,
        "hand": "right"
      },
      {
        "midi": 75,
        "time": 215.25,
        "duration": 0.235,
        "velocity": 0.71,
        "hand": "right"
      },
      {
        "midi": 66,
        "time": 215.5,
        "duration": 4.485,
        "velocity": 0.71,
        "hand": "right"
      },
      {
        "midi": 75,
        "time": 215.5,
        "duration": 0.735,
        "velocity": 0.71,
        "hand": "right"
      },
      {
        "midi": 70,
        "time": 215.75,
        "duration": 0.25,
        "velocity": 0.71,
        "hand": "right"
      },
      {
        "midi": 73,
        "time": 216,
        "duration": 0.25,
        "velocity": 0.71,
        "hand": "right"
      },
      {
        "midi": 75,
        "time": 216.25,
        "duration": 0.25,
        "velocity": 0.71,
        "hand": "right"
      },
      {
        "midi": 78,
        "time": 216.5,
        "duration": 0.25,
        "velocity": 0.71,
        "hand": "right"
      },
      {
        "midi": 82,
        "time": 216.75,
        "duration": 0.25,
        "velocity": 0.71,
        "hand": "right"
      },
      {
        "midi": 70,
        "time": 217.25,
        "duration": 0.25,
        "velocity": 0.71,
        "hand": "right"
      },
      {
        "midi": 73,
        "time": 217.5,
        "duration": 0.25,
        "velocity": 0.71,
        "hand": "right"
      },
      {
        "midi": 75,
        "time": 217.75,
        "duration": 0.25,
        "velocity": 0.71,
        "hand": "right"
      },
      {
        "midi": 78,
        "time": 218,
        "duration": 0.25,
        "velocity": 0.71,
        "hand": "right"
      },
      {
        "midi": 84,
        "time": 218.25,
        "duration": 0.25,
        "velocity": 0.71,
        "hand": "right"
      },
      {
        "midi": 70,
        "time": 218.75,
        "duration": 0.25,
        "velocity": 0.71,
        "hand": "right"
      },
      {
        "midi": 73,
        "time": 219,
        "duration": 0.25,
        "velocity": 0.71,
        "hand": "right"
      },
      {
        "midi": 75,
        "time": 219.25,
        "duration": 0.25,
        "velocity": 0.71,
        "hand": "right"
      },
      {
        "midi": 78,
        "time": 219.5,
        "duration": 0.25,
        "velocity": 0.71,
        "hand": "right"
      },
      {
        "midi": 82,
        "time": 219.75,
        "duration": 0.25,
        "velocity": 0.71,
        "hand": "right"
      },
      {
        "midi": 66,
        "time": 220,
        "duration": 4.5,
        "velocity": 0.71,
        "hand": "right"
      },
      {
        "midi": 69,
        "time": 220.25,
        "duration": 0.25,
        "velocity": 0.71,
        "hand": "right"
      },
      {
        "midi": 73,
        "time": 220.5,
        "duration": 0.25,
        "velocity": 0.71,
        "hand": "right"
      },
      {
        "midi": 75,
        "time": 220.75,
        "duration": 0.25,
        "velocity": 0.71,
        "hand": "right"
      },
      {
        "midi": 78,
        "time": 221,
        "duration": 0.25,
        "velocity": 0.71,
        "hand": "right"
      },
      {
        "midi": 81,
        "time": 221.25,
        "duration": 0.25,
        "velocity": 0.71,
        "hand": "right"
      },
      {
        "midi": 73,
        "time": 221.5,
        "duration": 0.485,
        "velocity": 0.71,
        "hand": "right"
      },
      {
        "midi": 69,
        "time": 221.75,
        "duration": 0.25,
        "velocity": 0.71,
        "hand": "right"
      },
      {
        "midi": 73,
        "time": 222,
        "duration": 0.25,
        "velocity": 0.71,
        "hand": "right"
      },
      {
        "midi": 75,
        "time": 222.25,
        "duration": 0.25,
        "velocity": 0.71,
        "hand": "right"
      },
      {
        "midi": 78,
        "time": 222.5,
        "duration": 0.25,
        "velocity": 0.71,
        "hand": "right"
      },
      {
        "midi": 83,
        "time": 222.75,
        "duration": 0.25,
        "velocity": 0.71,
        "hand": "right"
      },
      {
        "midi": 75,
        "time": 223,
        "duration": 0.735,
        "velocity": 0.71,
        "hand": "right"
      },
      {
        "midi": 69,
        "time": 223.25,
        "duration": 0.25,
        "velocity": 0.71,
        "hand": "right"
      },
      {
        "midi": 73,
        "time": 223.5,
        "duration": 0.25,
        "velocity": 0.71,
        "hand": "right"
      },
      {
        "midi": 75,
        "time": 223.75,
        "duration": 0.25,
        "velocity": 0.71,
        "hand": "right"
      },
      {
        "midi": 78,
        "time": 224,
        "duration": 0.25,
        "velocity": 0.71,
        "hand": "right"
      },
      {
        "midi": 81,
        "time": 224.25,
        "duration": 0.25,
        "velocity": 0.71,
        "hand": "right"
      },
      {
        "midi": 65,
        "time": 224.5,
        "duration": 2.985,
        "velocity": 0.71,
        "hand": "right"
      },
      {
        "midi": 68,
        "time": 224.75,
        "duration": 0.25,
        "velocity": 0.71,
        "hand": "right"
      },
      {
        "midi": 72,
        "time": 225,
        "duration": 0.25,
        "velocity": 0.71,
        "hand": "right"
      },
      {
        "midi": 77,
        "time": 225.25,
        "duration": 0.25,
        "velocity": 0.71,
        "hand": "right"
      },
      {
        "midi": 80,
        "time": 225.5,
        "duration": 0.25,
        "velocity": 0.71,
        "hand": "right"
      },
      {
        "midi": 84,
        "time": 225.75,
        "duration": 0.25,
        "velocity": 0.71,
        "hand": "right"
      },
      {
        "midi": 77,
        "time": 226,
        "duration": 1.485,
        "velocity": 0.71,
        "hand": "right"
      },
      {
        "midi": 80,
        "time": 226,
        "duration": 1.5,
        "velocity": 0.71,
        "hand": "right"
      },
      {
        "midi": 65,
        "time": 227.5,
        "duration": 1.485,
        "velocity": 0.71,
        "hand": "right"
      },
      {
        "midi": 77,
        "time": 227.5,
        "duration": 2,
        "velocity": 0.71,
        "hand": "right"
      },
      {
        "midi": 65,
        "time": 229,
        "duration": 2.985,
        "velocity": 0.71,
        "hand": "right"
      },
      {
        "midi": 69,
        "time": 229.25,
        "duration": 0.25,
        "velocity": 0.71,
        "hand": "right"
      },
      {
        "midi": 72,
        "time": 229.5,
        "duration": 0.25,
        "velocity": 0.71,
        "hand": "right"
      },
      {
        "midi": 75,
        "time": 229.5,
        "duration": 0.235,
        "velocity": 0.71,
        "hand": "right"
      },
      {
        "midi": 84,
        "time": 229.5,
        "duration": 0.5,
        "velocity": 0.71,
        "hand": "right"
      },
      {
        "midi": 75,
        "time": 229.75,
        "duration": 0.25,
        "velocity": 0.71,
        "hand": "right"
      },
      {
        "midi": 73,
        "time": 230,
        "duration": 0.5,
        "velocity": 0.71,
        "hand": "right"
      },
      {
        "midi": 77,
        "time": 230,
        "duration": 0.5,
        "velocity": 0.71,
        "hand": "right"
      },
      {
        "midi": 81,
        "time": 230.25,
        "duration": 0.25,
        "velocity": 0.71,
        "hand": "right"
      },
      {
        "midi": 75,
        "time": 230.5,
        "duration": 3.5,
        "velocity": 0.71,
        "hand": "right"
      },
      {
        "midi": 84,
        "time": 230.5,
        "duration": 3.5,
        "velocity": 0.71,
        "hand": "right"
      },
      {
        "midi": 65,
        "time": 232,
        "duration": 1.485,
        "velocity": 0.71,
        "hand": "right"
      },
      {
        "midi": 65,
        "time": 233.5,
        "duration": 2.985,
        "velocity": 0.71,
        "hand": "right"
      },
      {
        "midi": 68,
        "time": 233.75,
        "duration": 0.25,
        "velocity": 0.71,
        "hand": "right"
      },
      {
        "midi": 70,
        "time": 234,
        "duration": 0.25,
        "velocity": 0.71,
        "hand": "right"
      },
      {
        "midi": 73,
        "time": 234,
        "duration": 0.235,
        "velocity": 0.71,
        "hand": "right"
      },
      {
        "midi": 82,
        "time": 234,
        "duration": 0.5,
        "velocity": 0.71,
        "hand": "right"
      },
      {
        "midi": 73,
        "time": 234.25,
        "duration": 0.25,
        "velocity": 0.71,
        "hand": "right"
      },
      {
        "midi": 75,
        "time": 234.5,
        "duration": 0.5,
        "velocity": 0.71,
        "hand": "right"
      },
      {
        "midi": 77,
        "time": 234.5,
        "duration": 0.25,
        "velocity": 0.71,
        "hand": "right"
      },
      {
        "midi": 84,
        "time": 234.5,
        "duration": 0.5,
        "velocity": 0.71,
        "hand": "right"
      },
      {
        "midi": 80,
        "time": 234.75,
        "duration": 0.25,
        "velocity": 0.71,
        "hand": "right"
      },
      {
        "midi": 73,
        "time": 235,
        "duration": 0.735,
        "velocity": 0.71,
        "hand": "right"
      },
      {
        "midi": 82,
        "time": 235,
        "duration": 3.5,
        "velocity": 0.71,
        "hand": "right"
      },
      {
        "midi": 73,
        "time": 235.75,
        "duration": 1.485,
        "velocity": 0.71,
        "hand": "right"
      },
      {
        "midi": 77,
        "time": 235.75,
        "duration": 1.5,
        "velocity": 0.71,
        "hand": "right"
      },
      {
        "midi": 65,
        "time": 236.5,
        "duration": 1.5,
        "velocity": 0.71,
        "hand": "right"
      },
      {
        "midi": 73,
        "time": 237.25,
        "duration": 1.25,
        "velocity": 0.71,
        "hand": "right"
      },
      {
        "midi": 63,
        "time": 238,
        "duration": 2.985,
        "velocity": 0.71,
        "hand": "right"
      },
      {
        "midi": 66,
        "time": 238.25,
        "duration": 0.25,
        "velocity": 0.71,
        "hand": "right"
      },
      {
        "midi": 68,
        "time": 238.5,
        "duration": 0.25,
        "velocity": 0.71,
        "hand": "right"
      },
      {
        "midi": 80,
        "time": 238.5,
        "duration": 0.5,
        "velocity": 0.71,
        "hand": "right"
      },
      {
        "midi": 84,
        "time": 238.5,
        "duration": 0.5,
        "velocity": 0.71,
        "hand": "right"
      },
      {
        "midi": 72,
        "time": 238.75,
        "duration": 0.25,
        "velocity": 0.71,
        "hand": "right"
      },
      {
        "midi": 73,
        "time": 239,
        "duration": 0.5,
        "velocity": 0.71,
        "hand": "right"
      },
      {
        "midi": 75,
        "time": 239,
        "duration": 0.25,
        "velocity": 0.71,
        "hand": "right"
      },
      {
        "midi": 82,
        "time": 239,
        "duration": 0.5,
        "velocity": 0.71,
        "hand": "right"
      },
      {
        "midi": 78,
        "time": 239.25,
        "duration": 0.25,
        "velocity": 0.71,
        "hand": "right"
      },
      {
        "midi": 80,
        "time": 239.5,
        "duration": 3,
        "velocity": 0.71,
        "hand": "right"
      },
      {
        "midi": 84,
        "time": 239.5,
        "duration": 3,
        "velocity": 0.71,
        "hand": "right"
      },
      {
        "midi": 63,
        "time": 241,
        "duration": 1.5,
        "velocity": 0.71,
        "hand": "right"
      },
      {
        "midi": 61,
        "time": 242.5,
        "duration": 3,
        "velocity": 0.71,
        "hand": "right"
      },
      {
        "midi": 63,
        "time": 242.75,
        "duration": 0.25,
        "velocity": 0.71,
        "hand": "right"
      },
      {
        "midi": 66,
        "time": 243,
        "duration": 0.25,
        "velocity": 0.71,
        "hand": "right"
      },
      {
        "midi": 78,
        "time": 243,
        "duration": 0.5,
        "velocity": 0.71,
        "hand": "right"
      },
      {
        "midi": 82,
        "time": 243,
        "duration": 0.5,
        "velocity": 0.71,
        "hand": "right"
      },
      {
        "midi": 70,
        "time": 243.25,
        "duration": 0.25,
        "velocity": 0.71,
        "hand": "right"
      },
      {
        "midi": 73,
        "time": 243.5,
        "duration": 0.25,
        "velocity": 0.71,
        "hand": "right"
      },
      {
        "midi": 80,
        "time": 243.5,
        "duration": 0.5,
        "velocity": 0.71,
        "hand": "right"
      },
      {
        "midi": 84,
        "time": 243.5,
        "duration": 0.5,
        "velocity": 0.71,
        "hand": "right"
      },
      {
        "midi": 75,
        "time": 243.75,
        "duration": 0.25,
        "velocity": 0.71,
        "hand": "right"
      },
      {
        "midi": 78,
        "time": 244,
        "duration": 1.5,
        "velocity": 0.71,
        "hand": "right"
      },
      {
        "midi": 82,
        "time": 244,
        "duration": 0.5,
        "velocity": 0.71,
        "hand": "right"
      },
      {
        "midi": 75,
        "time": 244.5,
        "duration": 0.5,
        "velocity": 0.71,
        "hand": "right"
      },
      {
        "midi": 82,
        "time": 245,
        "duration": 0.5,
        "velocity": 0.71,
        "hand": "right"
      },
      {
        "midi": 68,
        "time": 245.5,
        "duration": 1.5,
        "velocity": 0.71,
        "hand": "right"
      },
      {
        "midi": 72,
        "time": 245.5,
        "duration": 1.5,
        "velocity": 0.71,
        "hand": "right"
      },
      {
        "midi": 77,
        "time": 245.5,
        "duration": 2,
        "velocity": 0.71,
        "hand": "right"
      },
      {
        "midi": 80,
        "time": 245.5,
        "duration": 0.5,
        "velocity": 0.71,
        "hand": "right"
      },
      {
        "midi": 82,
        "time": 246,
        "duration": 0.5,
        "velocity": 0.71,
        "hand": "right"
      },
      {
        "midi": 80,
        "time": 246.5,
        "duration": 1,
        "velocity": 0.71,
        "hand": "right"
      },
      {
        "midi": 48,
        "time": 247,
        "duration": 3,
        "velocity": 0.71,
        "hand": "left"
      },
      {
        "midi": 54,
        "time": 247.25,
        "duration": 0.25,
        "velocity": 0.71,
        "hand": "left"
      },
      {
        "midi": 58,
        "time": 247.5,
        "duration": 0.25,
        "velocity": 0.71,
        "hand": "left"
      },
      {
        "midi": 75,
        "time": 247.5,
        "duration": 0.5,
        "velocity": 0.71,
        "hand": "right"
      },
      {
        "midi": 78,
        "time": 247.5,
        "duration": 0.5,
        "velocity": 0.71,
        "hand": "right"
      },
      {
        "midi": 60,
        "time": 247.75,
        "duration": 0.25,
        "velocity": 0.71,
        "hand": "right"
      },
      {
        "midi": 63,
        "time": 248,
        "duration": 0.25,
        "velocity": 0.71,
        "hand": "right"
      },
      {
        "midi": 77,
        "time": 248,
        "duration": 0.5,
        "velocity": 0.71,
        "hand": "right"
      },
      {
        "midi": 80,
        "time": 248,
        "duration": 0.5,
        "velocity": 0.71,
        "hand": "right"
      },
      {
        "midi": 66,
        "time": 248.25,
        "duration": 0.25,
        "velocity": 0.71,
        "hand": "right"
      },
      {
        "midi": 70,
        "time": 248.5,
        "duration": 1.5,
        "velocity": 0.71,
        "hand": "right"
      },
      {
        "midi": 75,
        "time": 248.5,
        "duration": 1.5,
        "velocity": 0.71,
        "hand": "right"
      },
      {
        "midi": 78,
        "time": 248.5,
        "duration": 1.5,
        "velocity": 0.71,
        "hand": "right"
      },
      {
        "midi": 53,
        "time": 250,
        "duration": 1.5,
        "velocity": 0.71,
        "hand": "left"
      },
      {
        "midi": 60,
        "time": 250,
        "duration": 1.5,
        "velocity": 0.71,
        "hand": "right"
      },
      {
        "midi": 63,
        "time": 250,
        "duration": 1.5,
        "velocity": 0.71,
        "hand": "right"
      },
      {
        "midi": 69,
        "time": 250,
        "duration": 1.5,
        "velocity": 0.71,
        "hand": "right"
      },
      {
        "midi": 77,
        "time": 250,
        "duration": 1.985,
        "velocity": 0.71,
        "hand": "right"
      },
      {
        "midi": 56,
        "time": 251.5,
        "duration": 3,
        "velocity": 0.71,
        "hand": "left"
      },
      {
        "midi": 58,
        "time": 251.75,
        "duration": 0.25,
        "velocity": 0.71,
        "hand": "left"
      },
      {
        "midi": 61,
        "time": 252,
        "duration": 0.25,
        "velocity": 0.71,
        "hand": "right"
      },
      {
        "midi": 73,
        "time": 252,
        "duration": 0.5,
        "velocity": 0.71,
        "hand": "right"
      },
      {
        "midi": 77,
        "time": 252,
        "duration": 0.5,
        "velocity": 0.71,
        "hand": "right"
      },
      {
        "midi": 65,
        "time": 252.25,
        "duration": 0.25,
        "velocity": 0.71,
        "hand": "right"
      },
      {
        "midi": 68,
        "time": 252.5,
        "duration": 0.25,
        "velocity": 0.71,
        "hand": "right"
      },
      {
        "midi": 75,
        "time": 252.5,
        "duration": 0.5,
        "velocity": 0.71,
        "hand": "right"
      },
      {
        "midi": 78,
        "time": 252.5,
        "duration": 0.5,
        "velocity": 0.71,
        "hand": "right"
      },
      {
        "midi": 70,
        "time": 252.75,
        "duration": 0.25,
        "velocity": 0.71,
        "hand": "right"
      },
      {
        "midi": 73,
        "time": 253,
        "duration": 1.485,
        "velocity": 0.71,
        "hand": "right"
      },
      {
        "midi": 77,
        "time": 253,
        "duration": 0.5,
        "velocity": 0.71,
        "hand": "right"
      },
      {
        "midi": 82,
        "time": 253.5,
        "duration": 0.5,
        "velocity": 0.71,
        "hand": "right"
      },
      {
        "midi": 77,
        "time": 254,
        "duration": 0.5,
        "velocity": 0.71,
        "hand": "right"
      },
      {
        "midi": 54,
        "time": 254.5,
        "duration": 1.5,
        "velocity": 0.71,
        "hand": "left"
      },
      {
        "midi": 58,
        "time": 254.5,
        "duration": 1.5,
        "velocity": 0.71,
        "hand": "left"
      },
      {
        "midi": 61,
        "time": 254.5,
        "duration": 1.5,
        "velocity": 0.71,
        "hand": "right"
      },
      {
        "midi": 63,
        "time": 254.5,
        "duration": 1.5,
        "velocity": 0.71,
        "hand": "right"
      },
      {
        "midi": 73,
        "time": 254.5,
        "duration": 1.5,
        "velocity": 0.71,
        "hand": "right"
      },
      {
        "midi": 75,
        "time": 254.5,
        "duration": 0.5,
        "velocity": 0.71,
        "hand": "right"
      },
      {
        "midi": 77,
        "time": 255,
        "duration": 0.5,
        "velocity": 0.71,
        "hand": "right"
      },
      {
        "midi": 75,
        "time": 255.5,
        "duration": 1,
        "velocity": 0.71,
        "hand": "right"
      },
      {
        "midi": 53,
        "time": 256,
        "duration": 3,
        "velocity": 0.71,
        "hand": "left"
      },
      {
        "midi": 56,
        "time": 256.25,
        "duration": 0.25,
        "velocity": 0.71,
        "hand": "left"
      },
      {
        "midi": 58,
        "time": 256.5,
        "duration": 0.25,
        "velocity": 0.71,
        "hand": "left"
      },
      {
        "midi": 70,
        "time": 256.5,
        "duration": 0.5,
        "velocity": 0.71,
        "hand": "right"
      },
      {
        "midi": 73,
        "time": 256.5,
        "duration": 0.5,
        "velocity": 0.71,
        "hand": "right"
      },
      {
        "midi": 61,
        "time": 256.75,
        "duration": 0.25,
        "velocity": 0.71,
        "hand": "right"
      },
      {
        "midi": 65,
        "time": 257,
        "duration": 0.25,
        "velocity": 0.71,
        "hand": "right"
      },
      {
        "midi": 72,
        "time": 257,
        "duration": 0.5,
        "velocity": 0.71,
        "hand": "right"
      },
      {
        "midi": 75,
        "time": 257,
        "duration": 0.5,
        "velocity": 0.71,
        "hand": "right"
      },
      {
        "midi": 68,
        "time": 257.25,
        "duration": 0.25,
        "velocity": 0.71,
        "hand": "right"
      },
      {
        "midi": 70,
        "time": 257.5,
        "duration": 1.5,
        "velocity": 0.71,
        "hand": "right"
      },
      {
        "midi": 73,
        "time": 257.5,
        "duration": 1.5,
        "velocity": 0.71,
        "hand": "right"
      },
      {
        "midi": 51,
        "time": 259,
        "duration": 0.75,
        "velocity": 0.71,
        "hand": "left"
      },
      {
        "midi": 54,
        "time": 259,
        "duration": 1.5,
        "velocity": 0.71,
        "hand": "left"
      },
      {
        "midi": 60,
        "time": 259,
        "duration": 1.5,
        "velocity": 0.71,
        "hand": "right"
      },
      {
        "midi": 68,
        "time": 259,
        "duration": 1.5,
        "velocity": 0.71,
        "hand": "right"
      },
      {
        "midi": 72,
        "time": 259,
        "duration": 1.5,
        "velocity": 0.71,
        "hand": "right"
      },
      {
        "midi": 44,
        "time": 259.75,
        "duration": 0.735,
        "velocity": 0.71,
        "hand": "left"
      },
      {
        "midi": 37,
        "time": 260.5,
        "duration": 0.5,
        "velocity": 0.71,
        "hand": "left"
      },
      {
        "midi": 44,
        "time": 260.5,
        "duration": 0.5,
        "velocity": 0.71,
        "hand": "left"
      },
      {
        "midi": 53,
        "time": 261,
        "duration": 1,
        "velocity": 0.71,
        "hand": "left"
      },
      {
        "midi": 56,
        "time": 261,
        "duration": 1,
        "velocity": 0.71,
        "hand": "left"
      },
      {
        "midi": 65,
        "time": 261.5,
        "duration": 3.5,
        "velocity": 0.71,
        "hand": "right"
      },
      {
        "midi": 68,
        "time": 261.5,
        "duration": 3.5,
        "velocity": 0.71,
        "hand": "right"
      },
      {
        "midi": 59,
        "time": 262,
        "duration": 3,
        "velocity": 0.71,
        "hand": "left"
      },
      {
        "midi": 77,
        "time": 262,
        "duration": 1.485,
        "velocity": 0.71,
        "hand": "right"
      },
      {
        "midi": 80,
        "time": 262,
        "duration": 1.5,
        "velocity": 0.71,
        "hand": "right"
      },
      {
        "midi": 73,
        "time": 263.5,
        "duration": 2,
        "velocity": 0.71,
        "hand": "right"
      },
      {
        "midi": 77,
        "time": 263.5,
        "duration": 2,
        "velocity": 0.71,
        "hand": "right"
      },
      {
        "midi": 42,
        "time": 265,
        "duration": 3,
        "velocity": 0.71,
        "hand": "left"
      },
      {
        "midi": 49,
        "time": 265,
        "duration": 4.5,
        "velocity": 0.71,
        "hand": "left"
      },
      {
        "midi": 54,
        "time": 265.5,
        "duration": 4,
        "velocity": 0.71,
        "hand": "left"
      },
      {
        "midi": 58,
        "time": 265.5,
        "duration": 4,
        "velocity": 0.71,
        "hand": "left"
      },
      {
        "midi": 61,
        "time": 265.5,
        "duration": 4,
        "velocity": 0.71,
        "hand": "right"
      },
      {
        "midi": 66,
        "time": 265.5,
        "duration": 4,
        "velocity": 0.71,
        "hand": "right"
      },
      {
        "midi": 70,
        "time": 265.5,
        "duration": 4,
        "velocity": 0.71,
        "hand": "right"
      },
      {
        "midi": 75,
        "time": 265.5,
        "duration": 0.5,
        "velocity": 0.71,
        "hand": "right"
      },
      {
        "midi": 77,
        "time": 266,
        "duration": 0.5,
        "velocity": 0.71,
        "hand": "right"
      },
      {
        "midi": 75,
        "time": 266.5,
        "duration": 3.5,
        "velocity": 0.71,
        "hand": "right"
      },
      {
        "midi": 44,
        "time": 269.5,
        "duration": 3,
        "velocity": 0.71,
        "hand": "left"
      },
      {
        "midi": 53,
        "time": 270,
        "duration": 1,
        "velocity": 0.71,
        "hand": "left"
      },
      {
        "midi": 56,
        "time": 270,
        "duration": 1,
        "velocity": 0.71,
        "hand": "left"
      },
      {
        "midi": 61,
        "time": 270,
        "duration": 0.5,
        "velocity": 0.71,
        "hand": "right"
      },
      {
        "midi": 68,
        "time": 270,
        "duration": 0.985,
        "velocity": 0.71,
        "hand": "right"
      },
      {
        "midi": 73,
        "time": 270,
        "duration": 0.5,
        "velocity": 0.71,
        "hand": "right"
      },
      {
        "midi": 63,
        "time": 270.5,
        "duration": 0.5,
        "velocity": 0.71,
        "hand": "right"
      },
      {
        "midi": 75,
        "time": 270.5,
        "duration": 0.5,
        "velocity": 0.71,
        "hand": "right"
      },
      {
        "midi": 59,
        "time": 271,
        "duration": 3,
        "velocity": 0.71,
        "hand": "left"
      },
      {
        "midi": 65,
        "time": 271,
        "duration": 1.485,
        "velocity": 0.71,
        "hand": "right"
      },
      {
        "midi": 68,
        "time": 271,
        "duration": 1.5,
        "velocity": 0.71,
        "hand": "right"
      },
      {
        "midi": 77,
        "time": 271,
        "duration": 1.485,
        "velocity": 0.71,
        "hand": "right"
      },
      {
        "midi": 80,
        "time": 271,
        "duration": 1.5,
        "velocity": 0.71,
        "hand": "right"
      },
      {
        "midi": 61,
        "time": 272.5,
        "duration": 1.5,
        "velocity": 0.71,
        "hand": "right"
      },
      {
        "midi": 65,
        "time": 272.5,
        "duration": 1.5,
        "velocity": 0.71,
        "hand": "right"
      },
      {
        "midi": 73,
        "time": 272.5,
        "duration": 1.5,
        "velocity": 0.71,
        "hand": "right"
      },
      {
        "midi": 77,
        "time": 272.5,
        "duration": 2,
        "velocity": 0.71,
        "hand": "right"
      },
      {
        "midi": 46,
        "time": 274,
        "duration": 3,
        "velocity": 0.71,
        "hand": "left"
      },
      {
        "midi": 53,
        "time": 274.5,
        "duration": 4,
        "velocity": 0.71,
        "hand": "left"
      },
      {
        "midi": 58,
        "time": 274.5,
        "duration": 4,
        "velocity": 0.71,
        "hand": "left"
      },
      {
        "midi": 63,
        "time": 274.5,
        "duration": 2.5,
        "velocity": 0.71,
        "hand": "right"
      },
      {
        "midi": 65,
        "time": 274.5,
        "duration": 4,
        "velocity": 0.71,
        "hand": "right"
      },
      {
        "midi": 70,
        "time": 274.5,
        "duration": 4,
        "velocity": 0.71,
        "hand": "right"
      },
      {
        "midi": 75,
        "time": 274.5,
        "duration": 0.5,
        "velocity": 0.71,
        "hand": "right"
      },
      {
        "midi": 77,
        "time": 275,
        "duration": 0.5,
        "velocity": 0.71,
        "hand": "right"
      },
      {
        "midi": 75,
        "time": 275.5,
        "duration": 1.5,
        "velocity": 0.71,
        "hand": "right"
      },
      {
        "midi": 61,
        "time": 277,
        "duration": 1.5,
        "velocity": 0.71,
        "hand": "right"
      },
      {
        "midi": 73,
        "time": 277,
        "duration": 1.5,
        "velocity": 0.71,
        "hand": "right"
      },
      {
        "midi": 41,
        "time": 278.5,
        "duration": 4.5,
        "velocity": 0.71,
        "hand": "left"
      },
      {
        "midi": 56,
        "time": 279,
        "duration": 1,
        "velocity": 0.71,
        "hand": "left"
      },
      {
        "midi": 61,
        "time": 279,
        "duration": 0.5,
        "velocity": 0.71,
        "hand": "right"
      },
      {
        "midi": 63,
        "time": 279.5,
        "duration": 0.5,
        "velocity": 0.71,
        "hand": "right"
      },
      {
        "midi": 61,
        "time": 280,
        "duration": 1.485,
        "velocity": 0.71,
        "hand": "right"
      },
      {
        "midi": 65,
        "time": 280,
        "duration": 1.485,
        "velocity": 0.71,
        "hand": "right"
      },
      {
        "midi": 70,
        "time": 280,
        "duration": 1.5,
        "velocity": 0.71,
        "hand": "right"
      },
      {
        "midi": 56,
        "time": 281.5,
        "duration": 1.5,
        "velocity": 0.71,
        "hand": "left"
      },
      {
        "midi": 61,
        "time": 281.5,
        "duration": 1.5,
        "velocity": 0.71,
        "hand": "right"
      },
      {
        "midi": 65,
        "time": 281.5,
        "duration": 1.5,
        "velocity": 0.71,
        "hand": "right"
      },
      {
        "midi": 39,
        "time": 283,
        "duration": 1.5,
        "velocity": 0.71,
        "hand": "left"
      },
      {
        "midi": 58,
        "time": 283.5,
        "duration": 1,
        "velocity": 0.71,
        "hand": "left"
      },
      {
        "midi": 61,
        "time": 283.5,
        "duration": 1,
        "velocity": 0.71,
        "hand": "right"
      },
      {
        "midi": 66,
        "time": 283.5,
        "duration": 0.5,
        "velocity": 0.71,
        "hand": "right"
      },
      {
        "midi": 68,
        "time": 284,
        "duration": 0.5,
        "velocity": 0.71,
        "hand": "right"
      },
      {
        "midi": 51,
        "time": 284.5,
        "duration": 1.5,
        "velocity": 0.71,
        "hand": "left"
      },
      {
        "midi": 66,
        "time": 284.5,
        "duration": 1.485,
        "velocity": 0.71,
        "hand": "right"
      },
      {
        "midi": 70,
        "time": 284.5,
        "duration": 1.485,
        "velocity": 0.71,
        "hand": "right"
      },
      {
        "midi": 73,
        "time": 284.5,
        "duration": 1.5,
        "velocity": 0.71,
        "hand": "right"
      },
      {
        "midi": 61,
        "time": 286,
        "duration": 1.5,
        "velocity": 0.71,
        "hand": "right"
      },
      {
        "midi": 63,
        "time": 286,
        "duration": 1.5,
        "velocity": 0.71,
        "hand": "right"
      },
      {
        "midi": 66,
        "time": 286,
        "duration": 1.5,
        "velocity": 0.71,
        "hand": "right"
      },
      {
        "midi": 70,
        "time": 286,
        "duration": 1.5,
        "velocity": 0.71,
        "hand": "right"
      },
      {
        "midi": 44,
        "time": 287.5,
        "duration": 3,
        "velocity": 0.71,
        "hand": "left"
      },
      {
        "midi": 60,
        "time": 288,
        "duration": 1,
        "velocity": 0.71,
        "hand": "right"
      },
      {
        "midi": 66,
        "time": 288,
        "duration": 1,
        "velocity": 0.71,
        "hand": "right"
      },
      {
        "midi": 70,
        "time": 288,
        "duration": 0.5,
        "velocity": 0.71,
        "hand": "right"
      },
      {
        "midi": 51,
        "time": 288.25,
        "duration": 0.75,
        "velocity": 0.71,
        "hand": "left"
      },
      {
        "midi": 72,
        "time": 288.5,
        "duration": 0.485,
        "velocity": 0.71,
        "hand": "right"
      },
      {
        "midi": 68,
        "time": 289,
        "duration": 1.485,
        "velocity": 0.71,
        "hand": "right"
      },
      {
        "midi": 72,
        "time": 289,
        "duration": 1.5,
        "velocity": 0.71,
        "hand": "right"
      },
      {
        "midi": 77,
        "time": 289,
        "duration": 1.5,
        "velocity": 0.71,
        "hand": "right"
      },
      {
        "midi": 80,
        "time": 289,
        "duration": 1.5,
        "velocity": 0.71,
        "hand": "right"
      },
      {
        "midi": 56,
        "time": 290.5,
        "duration": 1.5,
        "velocity": 0.71,
        "hand": "left"
      },
      {
        "midi": 60,
        "time": 290.5,
        "duration": 1.5,
        "velocity": 0.71,
        "hand": "right"
      },
      {
        "midi": 66,
        "time": 290.5,
        "duration": 1.5,
        "velocity": 0.71,
        "hand": "right"
      },
      {
        "midi": 68,
        "time": 290.5,
        "duration": 1.5,
        "velocity": 0.71,
        "hand": "right"
      },
      {
        "midi": 37,
        "time": 292,
        "duration": 1.5,
        "velocity": 0.71,
        "hand": "left"
      },
      {
        "midi": 44,
        "time": 292.25,
        "duration": 0.25,
        "velocity": 0.71,
        "hand": "left"
      },
      {
        "midi": 49,
        "time": 292.5,
        "duration": 0.25,
        "velocity": 0.71,
        "hand": "left"
      },
      {
        "midi": 53,
        "time": 292.75,
        "duration": 0.25,
        "velocity": 0.71,
        "hand": "left"
      },
      {
        "midi": 56,
        "time": 293,
        "duration": 0.25,
        "velocity": 0.71,
        "hand": "left"
      },
      {
        "midi": 61,
        "time": 293.25,
        "duration": 0.25,
        "velocity": 0.71,
        "hand": "right"
      },
      {
        "midi": 41,
        "time": 293.5,
        "duration": 1.5,
        "velocity": 0.71,
        "hand": "left"
      },
      {
        "midi": 48,
        "time": 293.75,
        "duration": 0.25,
        "velocity": 0.71,
        "hand": "left"
      },
      {
        "midi": 53,
        "time": 294,
        "duration": 0.25,
        "velocity": 0.71,
        "hand": "left"
      },
      {
        "midi": 56,
        "time": 294.25,
        "duration": 0.25,
        "velocity": 0.71,
        "hand": "left"
      },
      {
        "midi": 60,
        "time": 294.5,
        "duration": 0.25,
        "velocity": 0.71,
        "hand": "right"
      },
      {
        "midi": 65,
        "time": 294.75,
        "duration": 0.25,
        "velocity": 0.71,
        "hand": "right"
      },
      {
        "midi": 37,
        "time": 295,
        "duration": 1.5,
        "velocity": 0.71,
        "hand": "left"
      },
      {
        "midi": 44,
        "time": 295.25,
        "duration": 0.25,
        "velocity": 0.71,
        "hand": "left"
      },
      {
        "midi": 49,
        "time": 295.5,
        "duration": 0.25,
        "velocity": 0.71,
        "hand": "left"
      },
      {
        "midi": 53,
        "time": 295.75,
        "duration": 0.25,
        "velocity": 0.71,
        "hand": "left"
      },
      {
        "midi": 56,
        "time": 296,
        "duration": 0.25,
        "velocity": 0.71,
        "hand": "left"
      },
      {
        "midi": 61,
        "time": 296.25,
        "duration": 0.25,
        "velocity": 0.71,
        "hand": "right"
      },
      {
        "midi": 41,
        "time": 296.5,
        "duration": 1.5,
        "velocity": 0.71,
        "hand": "left"
      },
      {
        "midi": 48,
        "time": 296.75,
        "duration": 0.25,
        "velocity": 0.71,
        "hand": "left"
      },
      {
        "midi": 53,
        "time": 297,
        "duration": 0.25,
        "velocity": 0.71,
        "hand": "left"
      },
      {
        "midi": 56,
        "time": 297.25,
        "duration": 0.25,
        "velocity": 0.71,
        "hand": "left"
      },
      {
        "midi": 60,
        "time": 297.5,
        "duration": 0.25,
        "velocity": 0.71,
        "hand": "right"
      },
      {
        "midi": 65,
        "time": 297.75,
        "duration": 0.25,
        "velocity": 0.71,
        "hand": "right"
      },
      {
        "midi": 44,
        "time": 298,
        "duration": 3,
        "velocity": 0.71,
        "hand": "left"
      },
      {
        "midi": 68,
        "time": 298,
        "duration": 1.485,
        "velocity": 0.71,
        "hand": "right"
      },
      {
        "midi": 71,
        "time": 298,
        "duration": 1.5,
        "velocity": 0.71,
        "hand": "right"
      },
      {
        "midi": 52,
        "time": 298.25,
        "duration": 0.25,
        "velocity": 0.71,
        "hand": "left"
      },
      {
        "midi": 56,
        "time": 298.5,
        "duration": 0.25,
        "velocity": 0.71,
        "hand": "left"
      },
      {
        "midi": 59,
        "time": 298.75,
        "duration": 0.25,
        "velocity": 0.71,
        "hand": "left"
      },
      {
        "midi": 64,
        "time": 299,
        "duration": 0.25,
        "velocity": 0.71,
        "hand": "right"
      },
      {
        "midi": 66,
        "time": 299.25,
        "duration": 0.25,
        "velocity": 0.71,
        "hand": "right"
      },
      {
        "midi": 64,
        "time": 299.5,
        "duration": 1.5,
        "velocity": 0.71,
        "hand": "right"
      },
      {
        "midi": 68,
        "time": 299.5,
        "duration": 1.5,
        "velocity": 0.71,
        "hand": "right"
      },
      {
        "midi": 73,
        "time": 299.5,
        "duration": 1.5,
        "velocity": 0.71,
        "hand": "right"
      },
      {
        "midi": 49,
        "time": 301,
        "duration": 1.5,
        "velocity": 0.71,
        "hand": "left"
      },
      {
        "midi": 56,
        "time": 301.25,
        "duration": 0.25,
        "velocity": 0.71,
        "hand": "left"
      },
      {
        "midi": 61,
        "time": 301.5,
        "duration": 0.25,
        "velocity": 0.71,
        "hand": "right"
      },
      {
        "midi": 65,
        "time": 301.75,
        "duration": 0.25,
        "velocity": 0.71,
        "hand": "right"
      },
      {
        "midi": 68,
        "time": 302,
        "duration": 0.25,
        "velocity": 0.71,
        "hand": "right"
      },
      {
        "midi": 73,
        "time": 302.25,
        "duration": 0.25,
        "velocity": 0.71,
        "hand": "right"
      },
      {
        "midi": 53,
        "time": 302.5,
        "duration": 1.5,
        "velocity": 0.71,
        "hand": "left"
      },
      {
        "midi": 60,
        "time": 302.75,
        "duration": 0.25,
        "velocity": 0.71,
        "hand": "right"
      },
      {
        "midi": 65,
        "time": 303,
        "duration": 0.25,
        "velocity": 0.71,
        "hand": "right"
      },
      {
        "midi": 68,
        "time": 303.25,
        "duration": 0.25,
        "velocity": 0.71,
        "hand": "right"
      },
      {
        "midi": 72,
        "time": 303.5,
        "duration": 0.25,
        "velocity": 0.71,
        "hand": "right"
      },
      {
        "midi": 77,
        "time": 303.75,
        "duration": 0.25,
        "velocity": 0.71,
        "hand": "right"
      },
      {
        "midi": 49,
        "time": 304,
        "duration": 1.5,
        "velocity": 0.71,
        "hand": "left"
      },
      {
        "midi": 56,
        "time": 304.25,
        "duration": 0.25,
        "velocity": 0.71,
        "hand": "left"
      },
      {
        "midi": 61,
        "time": 304.5,
        "duration": 0.25,
        "velocity": 0.71,
        "hand": "right"
      },
      {
        "midi": 65,
        "time": 304.75,
        "duration": 0.25,
        "velocity": 0.71,
        "hand": "right"
      },
      {
        "midi": 68,
        "time": 305,
        "duration": 0.25,
        "velocity": 0.71,
        "hand": "right"
      },
      {
        "midi": 73,
        "time": 305.25,
        "duration": 0.25,
        "velocity": 0.71,
        "hand": "right"
      },
      {
        "midi": 53,
        "time": 305.5,
        "duration": 1.5,
        "velocity": 0.71,
        "hand": "left"
      },
      {
        "midi": 60,
        "time": 305.75,
        "duration": 0.25,
        "velocity": 0.71,
        "hand": "right"
      },
      {
        "midi": 65,
        "time": 306,
        "duration": 0.25,
        "velocity": 0.71,
        "hand": "right"
      },
      {
        "midi": 68,
        "time": 306.25,
        "duration": 0.25,
        "velocity": 0.71,
        "hand": "right"
      },
      {
        "midi": 72,
        "time": 306.5,
        "duration": 0.25,
        "velocity": 0.71,
        "hand": "right"
      },
      {
        "midi": 77,
        "time": 306.75,
        "duration": 0.25,
        "velocity": 0.71,
        "hand": "right"
      },
      {
        "midi": 56,
        "time": 307,
        "duration": 2.985,
        "velocity": 0.71,
        "hand": "left"
      },
      {
        "midi": 80,
        "time": 307,
        "duration": 2.985,
        "velocity": 0.71,
        "hand": "right"
      },
      {
        "midi": 83,
        "time": 307,
        "duration": 1.5,
        "velocity": 0.71,
        "hand": "right"
      },
      {
        "midi": 59,
        "time": 307.25,
        "duration": 0.25,
        "velocity": 0.71,
        "hand": "left"
      },
      {
        "midi": 64,
        "time": 307.5,
        "duration": 0.25,
        "velocity": 0.71,
        "hand": "right"
      },
      {
        "midi": 68,
        "time": 307.75,
        "duration": 0.25,
        "velocity": 0.71,
        "hand": "right"
      },
      {
        "midi": 71,
        "time": 308,
        "duration": 0.25,
        "velocity": 0.71,
        "hand": "right"
      },
      {
        "midi": 76,
        "time": 308.25,
        "duration": 1.75,
        "velocity": 0.71,
        "hand": "right"
      },
      {
        "midi": 73,
        "time": 308.5,
        "duration": 1.5,
        "velocity": 0.71,
        "hand": "right"
      },
      {
        "midi": 56,
        "time": 310,
        "duration": 3,
        "velocity": 0.71,
        "hand": "left"
      },
      {
        "midi": 80,
        "time": 310,
        "duration": 3,
        "velocity": 0.71,
        "hand": "right"
      },
      {
        "midi": 83,
        "time": 310,
        "duration": 1.5,
        "velocity": 0.71,
        "hand": "right"
      },
      {
        "midi": 59,
        "time": 310.25,
        "duration": 0.25,
        "velocity": 0.71,
        "hand": "left"
      },
      {
        "midi": 64,
        "time": 310.5,
        "duration": 0.25,
        "velocity": 0.71,
        "hand": "right"
      },
      {
        "midi": 68,
        "time": 310.75,
        "duration": 0.25,
        "velocity": 0.71,
        "hand": "right"
      },
      {
        "midi": 71,
        "time": 311,
        "duration": 0.25,
        "velocity": 0.71,
        "hand": "right"
      },
      {
        "midi": 76,
        "time": 311.25,
        "duration": 1.735,
        "velocity": 0.71,
        "hand": "right"
      },
      {
        "midi": 73,
        "time": 311.5,
        "duration": 1.5,
        "velocity": 0.71,
        "hand": "right"
      },
      {
        "midi": 44,
        "time": 313,
        "duration": 1.5,
        "velocity": 0.71,
        "hand": "left"
      },
      {
        "midi": 76,
        "time": 313,
        "duration": 1.5,
        "velocity": 0.71,
        "hand": "right"
      },
      {
        "midi": 37,
        "time": 314.5,
        "duration": 3,
        "velocity": 0.71,
        "hand": "left"
      },
      {
        "midi": 77,
        "time": 314.5,
        "duration": 2.985,
        "velocity": 0.71,
        "hand": "right"
      },
      {
        "midi": 80,
        "time": 314.5,
        "duration": 3.485,
        "velocity": 0.71,
        "hand": "right"
      },
      {
        "midi": 44,
        "time": 314.75,
        "duration": 0.25,
        "velocity": 0.71,
        "hand": "left"
      },
      {
        "midi": 49,
        "time": 315,
        "duration": 0.25,
        "velocity": 0.71,
        "hand": "left"
      },
      {
        "midi": 53,
        "time": 315.25,
        "duration": 0.25,
        "velocity": 0.71,
        "hand": "left"
      },
      {
        "midi": 56,
        "time": 315.5,
        "duration": 0.25,
        "velocity": 0.71,
        "hand": "left"
      },
      {
        "midi": 61,
        "time": 315.75,
        "duration": 0.25,
        "velocity": 0.71,
        "hand": "right"
      },
      {
        "midi": 65,
        "time": 316,
        "duration": 0.5,
        "velocity": 0.71,
        "hand": "right"
      },
      {
        "midi": 68,
        "time": 316.5,
        "duration": 0.5,
        "velocity": 0.71,
        "hand": "right"
      },
      {
        "midi": 73,
        "time": 317,
        "duration": 0.5,
        "velocity": 0.71,
        "hand": "right"
      },
      {
        "midi": 77,
        "time": 317.5,
        "duration": 0.5,
        "velocity": 0.71,
        "hand": "right"
      },
      {
        "midi": 80,
        "time": 318,
        "duration": 0.5,
        "velocity": 0.71,
        "hand": "right"
      },
      {
        "midi": 73,
        "time": 318.5,
        "duration": 0.485,
        "velocity": 0.71,
        "hand": "right"
      },
      {
        "midi": 68,
        "time": 319,
        "duration": 3,
        "velocity": 0.71,
        "hand": "right"
      },
      {
        "midi": 73,
        "time": 319,
        "duration": 3,
        "velocity": 0.71,
        "hand": "right"
      },
      {
        "midi": 77,
        "time": 319,
        "duration": 3,
        "velocity": 0.71,
        "hand": "right"
      },
      {
        "midi": 80,
        "time": 319,
        "duration": 3,
        "velocity": 0.71,
        "hand": "right"
      }
    ]
  },
  "notes1Hand": [
    {
      "midi": 68,
      "time": 0,
      "duration": 2.4,
      "velocity": 0.71,
      "hand": "right"
    },
    {
      "midi": 77,
      "time": 2.5,
      "duration": 2,
      "velocity": 0.71,
      "hand": "right"
    },
    {
      "midi": 69,
      "time": 4,
      "duration": 2.4,
      "velocity": 0.71,
      "hand": "right"
    },
    {
      "midi": 77,
      "time": 5,
      "duration": 0.6,
      "velocity": 0.71,
      "hand": "right"
    },
    {
      "midi": 68,
      "time": 8.5,
      "duration": 2.4,
      "velocity": 0.71,
      "hand": "right"
    },
    {
      "midi": 75,
      "time": 9.5,
      "duration": 0.6,
      "velocity": 0.71,
      "hand": "right"
    },
    {
      "midi": 77,
      "time": 10.75,
      "duration": 1.5,
      "velocity": 0.71,
      "hand": "right"
    },
    {
      "midi": 73,
      "time": 12.25,
      "duration": 1.25,
      "velocity": 0.71,
      "hand": "right"
    },
    {
      "midi": 72,
      "time": 13.5,
      "duration": 0.6,
      "velocity": 0.71,
      "hand": "right"
    },
    {
      "midi": 72,
      "time": 14.5,
      "duration": 2.4,
      "velocity": 0.71,
      "hand": "right"
    },
    {
      "midi": 66,
      "time": 17.5,
      "duration": 2.4,
      "velocity": 0.71,
      "hand": "right"
    },
    {
      "midi": 72,
      "time": 18.5,
      "duration": 0.6,
      "velocity": 0.71,
      "hand": "right"
    },
    {
      "midi": 75,
      "time": 19.5,
      "duration": 0.6,
      "velocity": 0.71,
      "hand": "right"
    },
    {
      "midi": 68,
      "time": 20.5,
      "duration": 0.6,
      "velocity": 0.71,
      "hand": "right"
    },
    {
      "midi": 68,
      "time": 21.5,
      "duration": 1,
      "velocity": 0.71,
      "hand": "right"
    },
    {
      "midi": 66,
      "time": 22.5,
      "duration": 0.6,
      "velocity": 0.71,
      "hand": "right"
    },
    {
      "midi": 66,
      "time": 23.5,
      "duration": 1.5,
      "velocity": 0.71,
      "hand": "right"
    },
    {
      "midi": 65,
      "time": 25,
      "duration": 1.985,
      "velocity": 0.71,
      "hand": "right"
    },
    {
      "midi": 61,
      "time": 26.5,
      "duration": 2.4,
      "velocity": 0.71,
      "hand": "right"
    },
    {
      "midi": 66,
      "time": 27.5,
      "duration": 0.6,
      "velocity": 0.71,
      "hand": "right"
    },
    {
      "midi": 70,
      "time": 28.5,
      "duration": 0.6,
      "velocity": 0.71,
      "hand": "right"
    },
    {
      "midi": 63,
      "time": 29.5,
      "duration": 0.6,
      "velocity": 0.71,
      "hand": "right"
    },
    {
      "midi": 63,
      "time": 30.5,
      "duration": 1,
      "velocity": 0.71,
      "hand": "right"
    },
    {
      "midi": 61,
      "time": 31.5,
      "duration": 0.6,
      "velocity": 0.71,
      "hand": "right"
    },
    {
      "midi": 61,
      "time": 32.5,
      "duration": 1.5,
      "velocity": 0.71,
      "hand": "right"
    },
    {
      "midi": 60,
      "time": 34,
      "duration": 1.5,
      "velocity": 0.71,
      "hand": "right"
    },
    {
      "midi": 61,
      "time": 35.5,
      "duration": 0.6,
      "velocity": 0.71,
      "hand": "right"
    },
    {
      "midi": 68,
      "time": 36.5,
      "duration": 2.4,
      "velocity": 0.71,
      "hand": "right"
    },
    {
      "midi": 77,
      "time": 38.5,
      "duration": 2,
      "velocity": 0.71,
      "hand": "right"
    },
    {
      "midi": 61,
      "time": 40,
      "duration": 2.4,
      "velocity": 0.71,
      "hand": "right"
    },
    {
      "midi": 77,
      "time": 41,
      "duration": 0.6,
      "velocity": 0.71,
      "hand": "right"
    },
    {
      "midi": 61,
      "time": 44.5,
      "duration": 2.4,
      "velocity": 0.71,
      "hand": "right"
    },
    {
      "midi": 75,
      "time": 45.5,
      "duration": 0.6,
      "velocity": 0.71,
      "hand": "right"
    },
    {
      "midi": 77,
      "time": 47.5,
      "duration": 2,
      "velocity": 0.71,
      "hand": "right"
    },
    {
      "midi": 61,
      "time": 49,
      "duration": 2.4,
      "velocity": 0.71,
      "hand": "right"
    },
    {
      "midi": 77,
      "time": 50,
      "duration": 0.6,
      "velocity": 0.71,
      "hand": "right"
    },
    {
      "midi": 73,
      "time": 52,
      "duration": 1.985,
      "velocity": 0.71,
      "hand": "right"
    },
    {
      "midi": 56,
      "time": 53.5,
      "duration": 2.4,
      "velocity": 0.71,
      "hand": "right"
    },
    {
      "midi": 75,
      "time": 54.5,
      "duration": 0.6,
      "velocity": 0.71,
      "hand": "right"
    },
    {
      "midi": 80,
      "time": 55.75,
      "duration": 1.5,
      "velocity": 0.71,
      "hand": "right"
    },
    {
      "midi": 65,
      "time": 57.25,
      "duration": 0.75,
      "velocity": 0.71,
      "hand": "right"
    },
    {
      "midi": 75,
      "time": 58.5,
      "duration": 0.6,
      "velocity": 0.71,
      "hand": "right"
    },
    {
      "midi": 75,
      "time": 59.5,
      "duration": 0.75,
      "velocity": 0.71,
      "hand": "right"
    },
    {
      "midi": 63,
      "time": 62.5,
      "duration": 2.4,
      "velocity": 0.71,
      "hand": "right"
    },
    {
      "midi": 82,
      "time": 64.5,
      "duration": 0.6,
      "velocity": 0.71,
      "hand": "right"
    },
    {
      "midi": 82,
      "time": 65.5,
      "duration": 0.6,
      "velocity": 0.71,
      "hand": "right"
    },
    {
      "midi": 82,
      "time": 66.5,
      "duration": 0.6,
      "velocity": 0.71,
      "hand": "right"
    },
    {
      "midi": 84,
      "time": 67.5,
      "duration": 0.6,
      "velocity": 0.71,
      "hand": "right"
    },
    {
      "midi": 84,
      "time": 68.5,
      "duration": 0.75,
      "velocity": 0.71,
      "hand": "right"
    },
    {
      "midi": 82,
      "time": 70,
      "duration": 1.5,
      "velocity": 0.71,
      "hand": "right"
    },
    {
      "midi": 58,
      "time": 71.5,
      "duration": 2.4,
      "velocity": 0.71,
      "hand": "right"
    },
    {
      "midi": 82,
      "time": 73.5,
      "duration": 0.6,
      "velocity": 0.71,
      "hand": "right"
    },
    {
      "midi": 82,
      "time": 74.5,
      "duration": 0.6,
      "velocity": 0.71,
      "hand": "right"
    },
    {
      "midi": 82,
      "time": 75.5,
      "duration": 0.6,
      "velocity": 0.71,
      "hand": "right"
    },
    {
      "midi": 82,
      "time": 76.5,
      "duration": 0.6,
      "velocity": 0.71,
      "hand": "right"
    },
    {
      "midi": 84,
      "time": 77.5,
      "duration": 0.6,
      "velocity": 0.71,
      "hand": "right"
    },
    {
      "midi": 82,
      "time": 79,
      "duration": 2.25,
      "velocity": 0.71,
      "hand": "right"
    },
    {
      "midi": 56,
      "time": 80.5,
      "duration": 2.4,
      "velocity": 0.71,
      "hand": "right"
    },
    {
      "midi": 80,
      "time": 82,
      "duration": 0.75,
      "velocity": 0.71,
      "hand": "right"
    },
    {
      "midi": 82,
      "time": 83.5,
      "duration": 0.75,
      "velocity": 0.71,
      "hand": "right"
    },
    {
      "midi": 57,
      "time": 85,
      "duration": 2.4,
      "velocity": 0.71,
      "hand": "right"
    },
    {
      "midi": 78,
      "time": 86,
      "duration": 0.6,
      "velocity": 0.71,
      "hand": "right"
    },
    {
      "midi": 78,
      "time": 87,
      "duration": 0.6,
      "velocity": 0.71,
      "hand": "right"
    },
    {
      "midi": 78,
      "time": 88,
      "duration": 1.5,
      "velocity": 0.71,
      "hand": "right"
    },
    {
      "midi": 58,
      "time": 89.5,
      "duration": 2.4,
      "velocity": 0.71,
      "hand": "right"
    },
    {
      "midi": 80,
      "time": 91,
      "duration": 0.75,
      "velocity": 0.71,
      "hand": "right"
    },
    {
      "midi": 82,
      "time": 92.5,
      "duration": 0.75,
      "velocity": 0.71,
      "hand": "right"
    },
    {
      "midi": 56,
      "time": 94,
      "duration": 2.4,
      "velocity": 0.71,
      "hand": "right"
    },
    {
      "midi": 78,
      "time": 95,
      "duration": 0.6,
      "velocity": 0.71,
      "hand": "right"
    },
    {
      "midi": 78,
      "time": 96,
      "duration": 0.6,
      "velocity": 0.71,
      "hand": "right"
    },
    {
      "midi": 78,
      "time": 97,
      "duration": 1.5,
      "velocity": 0.71,
      "hand": "right"
    },
    {
      "midi": 61,
      "time": 98.5,
      "duration": 2.4,
      "velocity": 0.71,
      "hand": "right"
    },
    {
      "midi": 80,
      "time": 100,
      "duration": 0.75,
      "velocity": 0.71,
      "hand": "right"
    },
    {
      "midi": 82,
      "time": 101.5,
      "duration": 1.5,
      "velocity": 0.71,
      "hand": "right"
    },
    {
      "midi": 63,
      "time": 103,
      "duration": 2.4,
      "velocity": 0.71,
      "hand": "right"
    },
    {
      "midi": 82,
      "time": 104,
      "duration": 0.6,
      "velocity": 0.71,
      "hand": "right"
    },
    {
      "midi": 82,
      "time": 105,
      "duration": 0.6,
      "velocity": 0.71,
      "hand": "right"
    },
    {
      "midi": 82,
      "time": 106,
      "duration": 0.6,
      "velocity": 0.71,
      "hand": "right"
    },
    {
      "midi": 82,
      "time": 107,
      "duration": 0.6,
      "velocity": 0.71,
      "hand": "right"
    },
    {
      "midi": 80,
      "time": 110.5,
      "duration": 1.485,
      "velocity": 0.71,
      "hand": "right"
    },
    {
      "midi": 80,
      "time": 112,
      "duration": 2.4,
      "velocity": 0.71,
      "hand": "right"
    },
    {
      "midi": 80,
      "time": 115,
      "duration": 1.5,
      "velocity": 0.71,
      "hand": "right"
    },
    {
      "midi": 68,
      "time": 116.5,
      "duration": 2.4,
      "velocity": 0.71,
      "hand": "right"
    },
    {
      "midi": 56,
      "time": 117.5,
      "duration": 0.6,
      "velocity": 0.71,
      "hand": "right"
    },
    {
      "midi": 65,
      "time": 118.5,
      "duration": 0.6,
      "velocity": 0.71,
      "hand": "right"
    },
    {
      "midi": 71,
      "time": 119.5,
      "duration": 1,
      "velocity": 0.71,
      "hand": "right"
    },
    {
      "midi": 73,
      "time": 120.5,
      "duration": 0.6,
      "velocity": 0.71,
      "hand": "right"
    },
    {
      "midi": 61,
      "time": 121.5,
      "duration": 0.6,
      "velocity": 0.71,
      "hand": "right"
    },
    {
      "midi": 65,
      "time": 122.5,
      "duration": 1.5,
      "velocity": 0.71,
      "hand": "right"
    },
    {
      "midi": 60,
      "time": 123.5,
      "duration": 0.6,
      "velocity": 0.71,
      "hand": "right"
    },
    {
      "midi": 56,
      "time": 124.5,
      "duration": 0.6,
      "velocity": 0.71,
      "hand": "right"
    },
    {
      "midi": 73,
      "time": 125.5,
      "duration": 1,
      "velocity": 0.71,
      "hand": "right"
    },
    {
      "midi": 75,
      "time": 126.5,
      "duration": 0.6,
      "velocity": 0.71,
      "hand": "right"
    },
    {
      "midi": 65,
      "time": 127.5,
      "duration": 0.6,
      "velocity": 0.71,
      "hand": "right"
    },
    {
      "midi": 73,
      "time": 128.5,
      "duration": 0.985,
      "velocity": 0.71,
      "hand": "right"
    },
    {
      "midi": 77,
      "time": 129.5,
      "duration": 0.6,
      "velocity": 0.71,
      "hand": "right"
    },
    {
      "midi": 77,
      "time": 130.5,
      "duration": 0.6,
      "velocity": 0.71,
      "hand": "right"
    },
    {
      "midi": 73,
      "time": 131.5,
      "duration": 1.5,
      "velocity": 0.71,
      "hand": "right"
    },
    {
      "midi": 61,
      "time": 132.5,
      "duration": 0.6,
      "velocity": 0.71,
      "hand": "right"
    },
    {
      "midi": 63,
      "time": 133.5,
      "duration": 0.6,
      "velocity": 0.71,
      "hand": "right"
    },
    {
      "midi": 70,
      "time": 134.5,
      "duration": 2.4,
      "velocity": 0.71,
      "hand": "right"
    },
    {
      "midi": 60,
      "time": 135.5,
      "duration": 0.6,
      "velocity": 0.71,
      "hand": "right"
    },
    {
      "midi": 66,
      "time": 136.5,
      "duration": 0.6,
      "velocity": 0.71,
      "hand": "right"
    },
    {
      "midi": 72,
      "time": 137.5,
      "duration": 1,
      "velocity": 0.71,
      "hand": "right"
    },
    {
      "midi": 77,
      "time": 138.5,
      "duration": 0.6,
      "velocity": 0.71,
      "hand": "right"
    },
    {
      "midi": 66,
      "time": 139.5,
      "duration": 0.6,
      "velocity": 0.71,
      "hand": "right"
    },
    {
      "midi": 66,
      "time": 140.5,
      "duration": 1.5,
      "velocity": 0.71,
      "hand": "right"
    },
    {
      "midi": 61,
      "time": 141.5,
      "duration": 0.6,
      "velocity": 0.71,
      "hand": "right"
    },
    {
      "midi": 65,
      "time": 142.5,
      "duration": 0.6,
      "velocity": 0.71,
      "hand": "right"
    },
    {
      "midi": 78,
      "time": 143.5,
      "duration": 2.25,
      "velocity": 0.71,
      "hand": "right"
    },
    {
      "midi": 58,
      "time": 144.5,
      "duration": 0.6,
      "velocity": 0.71,
      "hand": "right"
    },
    {
      "midi": 70,
      "time": 145.5,
      "duration": 0.6,
      "velocity": 0.71,
      "hand": "right"
    },
    {
      "midi": 74,
      "time": 146.5,
      "duration": 0.75,
      "velocity": 0.71,
      "hand": "right"
    },
    {
      "midi": 66,
      "time": 147.5,
      "duration": 0.6,
      "velocity": 0.71,
      "hand": "right"
    },
    {
      "midi": 70,
      "time": 148.5,
      "duration": 0.6,
      "velocity": 0.71,
      "hand": "right"
    },
    {
      "midi": 63,
      "time": 149.5,
      "duration": 1.5,
      "velocity": 0.71,
      "hand": "right"
    },
    {
      "midi": 78,
      "time": 150.5,
      "duration": 0.6,
      "velocity": 0.71,
      "hand": "right"
    },
    {
      "midi": 68,
      "time": 151.5,
      "duration": 0.6,
      "velocity": 0.71,
      "hand": "right"
    },
    {
      "midi": 80,
      "time": 152.5,
      "duration": 2.4,
      "velocity": 0.71,
      "hand": "right"
    },
    {
      "midi": 68,
      "time": 153.5,
      "duration": 0.6,
      "velocity": 0.71,
      "hand": "right"
    },
    {
      "midi": 65,
      "time": 154.5,
      "duration": 0.6,
      "velocity": 0.71,
      "hand": "right"
    },
    {
      "midi": 83,
      "time": 155.5,
      "duration": 1,
      "velocity": 0.71,
      "hand": "right"
    },
    {
      "midi": 76,
      "time": 156.5,
      "duration": 0.6,
      "velocity": 0.71,
      "hand": "right"
    },
    {
      "midi": 61,
      "time": 157.5,
      "duration": 0.6,
      "velocity": 0.71,
      "hand": "right"
    },
    {
      "midi": 56,
      "time": 158.5,
      "duration": 0.6,
      "velocity": 0.71,
      "hand": "right"
    },
    {
      "midi": 72,
      "time": 159.5,
      "duration": 0.6,
      "velocity": 0.71,
      "hand": "right"
    },
    {
      "midi": 68,
      "time": 160.5,
      "duration": 0.6,
      "velocity": 0.71,
      "hand": "right"
    },
    {
      "midi": 73,
      "time": 161.5,
      "duration": 0.735,
      "velocity": 0.71,
      "hand": "right"
    },
    {
      "midi": 80,
      "time": 162.5,
      "duration": 0.6,
      "velocity": 0.71,
      "hand": "right"
    },
    {
      "midi": 71,
      "time": 163.5,
      "duration": 0.6,
      "velocity": 0.71,
      "hand": "right"
    },
    {
      "midi": 80,
      "time": 164.5,
      "duration": 0.735,
      "velocity": 0.71,
      "hand": "right"
    },
    {
      "midi": 76,
      "time": 165.5,
      "duration": 0.6,
      "velocity": 0.71,
      "hand": "right"
    },
    {
      "midi": 73,
      "time": 166.5,
      "duration": 0.6,
      "velocity": 0.71,
      "hand": "right"
    },
    {
      "midi": 78,
      "time": 167.5,
      "duration": 0.735,
      "velocity": 0.71,
      "hand": "right"
    },
    {
      "midi": 73,
      "time": 168.5,
      "duration": 0.6,
      "velocity": 0.71,
      "hand": "right"
    },
    {
      "midi": 73,
      "time": 169.5,
      "duration": 0.6,
      "velocity": 0.71,
      "hand": "right"
    },
    {
      "midi": 78,
      "time": 170.5,
      "duration": 0.735,
      "velocity": 0.71,
      "hand": "right"
    },
    {
      "midi": 73,
      "time": 171.5,
      "duration": 0.6,
      "velocity": 0.71,
      "hand": "right"
    },
    {
      "midi": 73,
      "time": 172.5,
      "duration": 0.6,
      "velocity": 0.71,
      "hand": "right"
    },
    {
      "midi": 81,
      "time": 173.5,
      "duration": 1,
      "velocity": 0.71,
      "hand": "right"
    },
    {
      "midi": 73,
      "time": 174.5,
      "duration": 0.6,
      "velocity": 0.71,
      "hand": "right"
    },
    {
      "midi": 66,
      "time": 175.5,
      "duration": 0.6,
      "velocity": 0.71,
      "hand": "right"
    },
    {
      "midi": 57,
      "time": 176.5,
      "duration": 1.5,
      "velocity": 0.71,
      "hand": "right"
    },
    {
      "midi": 73,
      "time": 177.5,
      "duration": 0.6,
      "velocity": 0.71,
      "hand": "right"
    },
    {
      "midi": 64,
      "time": 178.5,
      "duration": 0.6,
      "velocity": 0.71,
      "hand": "right"
    },
    {
      "midi": 76,
      "time": 179.5,
      "duration": 0.6,
      "velocity": 0.71,
      "hand": "right"
    },
    {
      "midi": 81,
      "time": 180.5,
      "duration": 0.6,
      "velocity": 0.71,
      "hand": "right"
    },
    {
      "midi": 76,
      "time": 181.5,
      "duration": 0.6,
      "velocity": 0.71,
      "hand": "right"
    },
    {
      "midi": 64,
      "time": 182.5,
      "duration": 0.6,
      "velocity": 0.71,
      "hand": "right"
    },
    {
      "midi": 78,
      "time": 183.5,
      "duration": 0.6,
      "velocity": 0.71,
      "hand": "right"
    },
    {
      "midi": 75,
      "time": 184.5,
      "duration": 0.6,
      "velocity": 0.71,
      "hand": "right"
    },
    {
      "midi": 71,
      "time": 185.5,
      "duration": 0.6,
      "velocity": 0.71,
      "hand": "right"
    },
    {
      "midi": 68,
      "time": 186.5,
      "duration": 1,
      "velocity": 0.71,
      "hand": "right"
    },
    {
      "midi": 66,
      "time": 187.5,
      "duration": 0.6,
      "velocity": 0.71,
      "hand": "right"
    },
    {
      "midi": 63,
      "time": 188.5,
      "duration": 2.4,
      "velocity": 0.71,
      "hand": "right"
    },
    {
      "midi": 56,
      "time": 189.5,
      "duration": 0.6,
      "velocity": 0.71,
      "hand": "right"
    },
    {
      "midi": 56,
      "time": 190.5,
      "duration": 0.6,
      "velocity": 0.71,
      "hand": "right"
    },
    {
      "midi": 66,
      "time": 191.5,
      "duration": 0.985,
      "velocity": 0.71,
      "hand": "right"
    },
    {
      "midi": 70,
      "time": 192.5,
      "duration": 0.6,
      "velocity": 0.71,
      "hand": "right"
    },
    {
      "midi": 56,
      "time": 193.5,
      "duration": 0.6,
      "velocity": 0.71,
      "hand": "right"
    },
    {
      "midi": 58,
      "time": 194.5,
      "duration": 1,
      "velocity": 0.71,
      "hand": "right"
    },
    {
      "midi": 56,
      "time": 195.5,
      "duration": 0.6,
      "velocity": 0.71,
      "hand": "right"
    },
    {
      "midi": 56,
      "time": 196.5,
      "duration": 0.6,
      "velocity": 0.71,
      "hand": "right"
    },
    {
      "midi": 61,
      "time": 197.5,
      "duration": 0.6,
      "velocity": 0.71,
      "hand": "right"
    },
    {
      "midi": 75,
      "time": 198.5,
      "duration": 0.6,
      "velocity": 0.71,
      "hand": "right"
    },
    {
      "midi": 58,
      "time": 199.5,
      "duration": 0.6,
      "velocity": 0.71,
      "hand": "right"
    },
    {
      "midi": 68,
      "time": 200.5,
      "duration": 1.5,
      "velocity": 0.71,
      "hand": "right"
    },
    {
      "midi": 63,
      "time": 201.5,
      "duration": 0.6,
      "velocity": 0.71,
      "hand": "right"
    },
    {
      "midi": 77,
      "time": 202.5,
      "duration": 0.6,
      "velocity": 0.71,
      "hand": "right"
    },
    {
      "midi": 70,
      "time": 203.5,
      "duration": 1.5,
      "velocity": 0.71,
      "hand": "right"
    },
    {
      "midi": 61,
      "time": 204.5,
      "duration": 0.6,
      "velocity": 0.71,
      "hand": "right"
    },
    {
      "midi": 60,
      "time": 205.5,
      "duration": 0.6,
      "velocity": 0.71,
      "hand": "right"
    },
    {
      "midi": 75,
      "time": 206.5,
      "duration": 2.4,
      "velocity": 0.71,
      "hand": "right"
    },
    {
      "midi": 66,
      "time": 207.5,
      "duration": 0.6,
      "velocity": 0.71,
      "hand": "right"
    },
    {
      "midi": 66,
      "time": 208.5,
      "duration": 0.6,
      "velocity": 0.71,
      "hand": "right"
    },
    {
      "midi": 78,
      "time": 209.5,
      "duration": 1,
      "velocity": 0.71,
      "hand": "right"
    },
    {
      "midi": 82,
      "time": 210.5,
      "duration": 0.6,
      "velocity": 0.71,
      "hand": "right"
    },
    {
      "midi": 66,
      "time": 211.5,
      "duration": 0.6,
      "velocity": 0.71,
      "hand": "right"
    },
    {
      "midi": 58,
      "time": 212.5,
      "duration": 1,
      "velocity": 0.71,
      "hand": "right"
    },
    {
      "midi": 66,
      "time": 213.5,
      "duration": 0.6,
      "velocity": 0.71,
      "hand": "right"
    },
    {
      "midi": 66,
      "time": 214.5,
      "duration": 0.6,
      "velocity": 0.71,
      "hand": "right"
    },
    {
      "midi": 75,
      "time": 215.5,
      "duration": 0.735,
      "velocity": 0.71,
      "hand": "right"
    },
    {
      "midi": 78,
      "time": 216.5,
      "duration": 0.6,
      "velocity": 0.71,
      "hand": "right"
    },
    {
      "midi": 73,
      "time": 217.5,
      "duration": 0.6,
      "velocity": 0.71,
      "hand": "right"
    },
    {
      "midi": 70,
      "time": 218.75,
      "duration": 0.6,
      "velocity": 0.71,
      "hand": "right"
    },
    {
      "midi": 82,
      "time": 219.75,
      "duration": 0.6,
      "velocity": 0.71,
      "hand": "right"
    },
    {
      "midi": 75,
      "time": 220.75,
      "duration": 0.6,
      "velocity": 0.71,
      "hand": "right"
    },
    {
      "midi": 69,
      "time": 221.75,
      "duration": 0.6,
      "velocity": 0.71,
      "hand": "right"
    },
    {
      "midi": 83,
      "time": 222.75,
      "duration": 0.6,
      "velocity": 0.71,
      "hand": "right"
    },
    {
      "midi": 75,
      "time": 223.75,
      "duration": 0.6,
      "velocity": 0.71,
      "hand": "right"
    },
    {
      "midi": 68,
      "time": 224.75,
      "duration": 0.6,
      "velocity": 0.71,
      "hand": "right"
    },
    {
      "midi": 84,
      "time": 225.75,
      "duration": 0.6,
      "velocity": 0.71,
      "hand": "right"
    },
    {
      "midi": 77,
      "time": 227.5,
      "duration": 2,
      "velocity": 0.71,
      "hand": "right"
    },
    {
      "midi": 65,
      "time": 229,
      "duration": 2.4,
      "velocity": 0.71,
      "hand": "right"
    },
    {
      "midi": 77,
      "time": 230,
      "duration": 0.6,
      "velocity": 0.71,
      "hand": "right"
    },
    {
      "midi": 65,
      "time": 232,
      "duration": 1.485,
      "velocity": 0.71,
      "hand": "right"
    },
    {
      "midi": 65,
      "time": 233.5,
      "duration": 2.4,
      "velocity": 0.71,
      "hand": "right"
    },
    {
      "midi": 84,
      "time": 234.5,
      "duration": 0.6,
      "velocity": 0.71,
      "hand": "right"
    },
    {
      "midi": 77,
      "time": 235.75,
      "duration": 1.5,
      "velocity": 0.71,
      "hand": "right"
    },
    {
      "midi": 73,
      "time": 237.25,
      "duration": 1.25,
      "velocity": 0.71,
      "hand": "right"
    },
    {
      "midi": 66,
      "time": 238.25,
      "duration": 0.6,
      "velocity": 0.71,
      "hand": "right"
    },
    {
      "midi": 78,
      "time": 239.25,
      "duration": 0.6,
      "velocity": 0.71,
      "hand": "right"
    },
    {
      "midi": 63,
      "time": 241,
      "duration": 1.5,
      "velocity": 0.71,
      "hand": "right"
    },
    {
      "midi": 61,
      "time": 242.5,
      "duration": 2.4,
      "velocity": 0.71,
      "hand": "right"
    },
    {
      "midi": 84,
      "time": 243.5,
      "duration": 0.6,
      "velocity": 0.71,
      "hand": "right"
    },
    {
      "midi": 75,
      "time": 244.5,
      "duration": 0.6,
      "velocity": 0.71,
      "hand": "right"
    },
    {
      "midi": 80,
      "time": 245.5,
      "duration": 0.6,
      "velocity": 0.71,
      "hand": "right"
    },
    {
      "midi": 80,
      "time": 246.5,
      "duration": 1,
      "velocity": 0.71,
      "hand": "right"
    },
    {
      "midi": 78,
      "time": 247.5,
      "duration": 0.6,
      "velocity": 0.71,
      "hand": "right"
    },
    {
      "midi": 78,
      "time": 248.5,
      "duration": 1.5,
      "velocity": 0.71,
      "hand": "right"
    },
    {
      "midi": 77,
      "time": 250,
      "duration": 1.985,
      "velocity": 0.71,
      "hand": "right"
    },
    {
      "midi": 56,
      "time": 251.5,
      "duration": 2.4,
      "velocity": 0.71,
      "hand": "right"
    },
    {
      "midi": 78,
      "time": 252.5,
      "duration": 0.6,
      "velocity": 0.71,
      "hand": "right"
    },
    {
      "midi": 82,
      "time": 253.5,
      "duration": 0.6,
      "velocity": 0.71,
      "hand": "right"
    },
    {
      "midi": 75,
      "time": 254.5,
      "duration": 0.6,
      "velocity": 0.71,
      "hand": "right"
    },
    {
      "midi": 75,
      "time": 255.5,
      "duration": 1,
      "velocity": 0.71,
      "hand": "right"
    },
    {
      "midi": 73,
      "time": 256.5,
      "duration": 0.6,
      "velocity": 0.71,
      "hand": "right"
    },
    {
      "midi": 73,
      "time": 257.5,
      "duration": 1.5,
      "velocity": 0.71,
      "hand": "right"
    },
    {
      "midi": 72,
      "time": 259,
      "duration": 1.5,
      "velocity": 0.71,
      "hand": "right"
    },
    {
      "midi": 56,
      "time": 260.5,
      "duration": 0.6,
      "velocity": 0.71,
      "hand": "right"
    },
    {
      "midi": 68,
      "time": 261.5,
      "duration": 2.4,
      "velocity": 0.71,
      "hand": "right"
    },
    {
      "midi": 77,
      "time": 263.5,
      "duration": 2,
      "velocity": 0.71,
      "hand": "right"
    },
    {
      "midi": 61,
      "time": 265,
      "duration": 2.4,
      "velocity": 0.71,
      "hand": "right"
    },
    {
      "midi": 77,
      "time": 266,
      "duration": 0.6,
      "velocity": 0.71,
      "hand": "right"
    },
    {
      "midi": 56,
      "time": 269.5,
      "duration": 2.4,
      "velocity": 0.71,
      "hand": "right"
    },
    {
      "midi": 75,
      "time": 270.5,
      "duration": 0.6,
      "velocity": 0.71,
      "hand": "right"
    },
    {
      "midi": 77,
      "time": 272.5,
      "duration": 2,
      "velocity": 0.71,
      "hand": "right"
    },
    {
      "midi": 58,
      "time": 274,
      "duration": 2.4,
      "velocity": 0.71,
      "hand": "right"
    },
    {
      "midi": 77,
      "time": 275,
      "duration": 0.6,
      "velocity": 0.71,
      "hand": "right"
    },
    {
      "midi": 73,
      "time": 277,
      "duration": 1.5,
      "velocity": 0.71,
      "hand": "right"
    },
    {
      "midi": 65,
      "time": 278.5,
      "duration": 2.4,
      "velocity": 0.71,
      "hand": "right"
    },
    {
      "midi": 63,
      "time": 279.5,
      "duration": 0.6,
      "velocity": 0.71,
      "hand": "right"
    },
    {
      "midi": 65,
      "time": 281.5,
      "duration": 1.5,
      "velocity": 0.71,
      "hand": "right"
    },
    {
      "midi": 63,
      "time": 283,
      "duration": 1.5,
      "velocity": 0.71,
      "hand": "right"
    },
    {
      "midi": 68,
      "time": 284,
      "duration": 0.6,
      "velocity": 0.71,
      "hand": "right"
    },
    {
      "midi": 70,
      "time": 286,
      "duration": 1.5,
      "velocity": 0.71,
      "hand": "right"
    },
    {
      "midi": 56,
      "time": 287.5,
      "duration": 2.4,
      "velocity": 0.71,
      "hand": "right"
    },
    {
      "midi": 72,
      "time": 288.5,
      "duration": 0.6,
      "velocity": 0.71,
      "hand": "right"
    },
    {
      "midi": 68,
      "time": 290.5,
      "duration": 1.5,
      "velocity": 0.71,
      "hand": "right"
    },
    {
      "midi": 61,
      "time": 292,
      "duration": 1.5,
      "velocity": 0.71,
      "hand": "right"
    },
    {
      "midi": 56,
      "time": 293,
      "duration": 0.6,
      "velocity": 0.71,
      "hand": "right"
    },
    {
      "midi": 65,
      "time": 294,
      "duration": 0.6,
      "velocity": 0.71,
      "hand": "right"
    },
    {
      "midi": 61,
      "time": 295,
      "duration": 1.5,
      "velocity": 0.71,
      "hand": "right"
    },
    {
      "midi": 56,
      "time": 296,
      "duration": 0.6,
      "velocity": 0.71,
      "hand": "right"
    },
    {
      "midi": 65,
      "time": 297,
      "duration": 0.6,
      "velocity": 0.71,
      "hand": "right"
    },
    {
      "midi": 71,
      "time": 298,
      "duration": 1.5,
      "velocity": 0.71,
      "hand": "right"
    },
    {
      "midi": 64,
      "time": 299,
      "duration": 0.6,
      "velocity": 0.71,
      "hand": "right"
    },
    {
      "midi": 61,
      "time": 301,
      "duration": 1.5,
      "velocity": 0.71,
      "hand": "right"
    },
    {
      "midi": 68,
      "time": 302,
      "duration": 0.6,
      "velocity": 0.71,
      "hand": "right"
    },
    {
      "midi": 65,
      "time": 303,
      "duration": 0.6,
      "velocity": 0.71,
      "hand": "right"
    },
    {
      "midi": 61,
      "time": 304,
      "duration": 1.5,
      "velocity": 0.71,
      "hand": "right"
    },
    {
      "midi": 68,
      "time": 305,
      "duration": 0.6,
      "velocity": 0.71,
      "hand": "right"
    },
    {
      "midi": 65,
      "time": 306,
      "duration": 0.6,
      "velocity": 0.71,
      "hand": "right"
    },
    {
      "midi": 83,
      "time": 307,
      "duration": 1.5,
      "velocity": 0.71,
      "hand": "right"
    },
    {
      "midi": 71,
      "time": 308,
      "duration": 0.6,
      "velocity": 0.71,
      "hand": "right"
    },
    {
      "midi": 83,
      "time": 310,
      "duration": 1.5,
      "velocity": 0.71,
      "hand": "right"
    },
    {
      "midi": 71,
      "time": 311,
      "duration": 0.6,
      "velocity": 0.71,
      "hand": "right"
    },
    {
      "midi": 76,
      "time": 313,
      "duration": 1.5,
      "velocity": 0.71,
      "hand": "right"
    },
    {
      "midi": 80,
      "time": 314.5,
      "duration": 2.4,
      "velocity": 0.71,
      "hand": "right"
    },
    {
      "midi": 56,
      "time": 315.5,
      "duration": 0.6,
      "velocity": 0.71,
      "hand": "right"
    },
    {
      "midi": 68,
      "time": 316.5,
      "duration": 0.6,
      "velocity": 0.71,
      "hand": "right"
    },
    {
      "midi": 77,
      "time": 317.5,
      "duration": 0.6,
      "velocity": 0.71,
      "hand": "right"
    },
    {
      "midi": 73,
      "time": 318.5,
      "duration": 0.6,
      "velocity": 0.71,
      "hand": "right"
    }
  ],
  "notes2Hands": [
    {
      "midi": 65,
      "time": 0,
      "duration": 4,
      "velocity": 0.71,
      "hand": "right"
    },
    {
      "midi": 68,
      "time": 0,
      "duration": 4,
      "velocity": 0.71,
      "hand": "right"
    },
    {
      "midi": 77,
      "time": 0.5,
      "duration": 1.985,
      "velocity": 0.71,
      "hand": "right"
    },
    {
      "midi": 80,
      "time": 0.5,
      "duration": 2,
      "velocity": 0.71,
      "hand": "right"
    },
    {
      "midi": 73,
      "time": 2.5,
      "duration": 2,
      "velocity": 0.71,
      "hand": "right"
    },
    {
      "midi": 77,
      "time": 2.5,
      "duration": 2,
      "velocity": 0.71,
      "hand": "right"
    },
    {
      "midi": 66,
      "time": 4,
      "duration": 4.5,
      "velocity": 0.71,
      "hand": "right"
    },
    {
      "midi": 69,
      "time": 4,
      "duration": 4.5,
      "velocity": 0.71,
      "hand": "right"
    },
    {
      "midi": 72,
      "time": 4.5,
      "duration": 0.5,
      "velocity": 0.71,
      "hand": "right"
    },
    {
      "midi": 75,
      "time": 4.5,
      "duration": 0.5,
      "velocity": 0.71,
      "hand": "right"
    },
    {
      "midi": 73,
      "time": 5,
      "duration": 0.5,
      "velocity": 0.71,
      "hand": "right"
    },
    {
      "midi": 77,
      "time": 5,
      "duration": 0.5,
      "velocity": 0.71,
      "hand": "right"
    },
    {
      "midi": 72,
      "time": 5.5,
      "duration": 3.5,
      "velocity": 0.71,
      "hand": "right"
    },
    {
      "midi": 75,
      "time": 5.5,
      "duration": 3.5,
      "velocity": 0.71,
      "hand": "right"
    },
    {
      "midi": 65,
      "time": 8.5,
      "duration": 4.5,
      "velocity": 0.71,
      "hand": "right"
    },
    {
      "midi": 68,
      "time": 8.5,
      "duration": 4.5,
      "velocity": 0.71,
      "hand": "right"
    },
    {
      "midi": 70,
      "time": 9,
      "duration": 0.5,
      "velocity": 0.71,
      "hand": "right"
    },
    {
      "midi": 73,
      "time": 9,
      "duration": 0.5,
      "velocity": 0.71,
      "hand": "right"
    },
    {
      "midi": 72,
      "time": 9.5,
      "duration": 0.5,
      "velocity": 0.71,
      "hand": "right"
    },
    {
      "midi": 75,
      "time": 9.5,
      "duration": 0.5,
      "velocity": 0.71,
      "hand": "right"
    },
    {
      "midi": 70,
      "time": 10,
      "duration": 3.5,
      "velocity": 0.71,
      "hand": "right"
    },
    {
      "midi": 73,
      "time": 10,
      "duration": 0.75,
      "velocity": 0.71,
      "hand": "right"
    },
    {
      "midi": 77,
      "time": 10.75,
      "duration": 1.5,
      "velocity": 0.71,
      "hand": "right"
    },
    {
      "midi": 73,
      "time": 12.25,
      "duration": 1.25,
      "velocity": 0.71,
      "hand": "right"
    },
    {
      "midi": 63,
      "time": 13,
      "duration": 4.485,
      "velocity": 0.71,
      "hand": "right"
    },
    {
      "midi": 66,
      "time": 13,
      "duration": 4.485,
      "velocity": 0.71,
      "hand": "right"
    },
    {
      "midi": 68,
      "time": 13.5,
      "duration": 0.5,
      "velocity": 0.71,
      "hand": "right"
    },
    {
      "midi": 72,
      "time": 13.5,
      "duration": 0.5,
      "velocity": 0.71,
      "hand": "right"
    },
    {
      "midi": 70,
      "time": 14,
      "duration": 0.5,
      "velocity": 0.71,
      "hand": "right"
    },
    {
      "midi": 73,
      "time": 14,
      "duration": 0.5,
      "velocity": 0.71,
      "hand": "right"
    },
    {
      "midi": 68,
      "time": 14.5,
      "duration": 3,
      "velocity": 0.71,
      "hand": "right"
    },
    {
      "midi": 72,
      "time": 14.5,
      "duration": 3.5,
      "velocity": 0.71,
      "hand": "right"
    },
    {
      "midi": 61,
      "time": 17.5,
      "duration": 3,
      "velocity": 0.71,
      "hand": "right"
    },
    {
      "midi": 63,
      "time": 17.5,
      "duration": 2.985,
      "velocity": 0.71,
      "hand": "right"
    },
    {
      "midi": 66,
      "time": 17.5,
      "duration": 2.985,
      "velocity": 0.71,
      "hand": "right"
    },
    {
      "midi": 70,
      "time": 18,
      "duration": 0.5,
      "velocity": 0.71,
      "hand": "right"
    },
    {
      "midi": 72,
      "time": 18.5,
      "duration": 0.5,
      "velocity": 0.71,
      "hand": "right"
    },
    {
      "midi": 70,
      "time": 19,
      "duration": 0.5,
      "velocity": 0.71,
      "hand": "right"
    },
    {
      "midi": 75,
      "time": 19.5,
      "duration": 0.5,
      "velocity": 0.71,
      "hand": "right"
    },
    {
      "midi": 70,
      "time": 20,
      "duration": 0.5,
      "velocity": 0.71,
      "hand": "right"
    },
    {
      "midi": 60,
      "time": 20.5,
      "duration": 1.5,
      "velocity": 0.71,
      "hand": "right"
    },
    {
      "midi": 63,
      "time": 20.5,
      "duration": 1.485,
      "velocity": 0.71,
      "hand": "right"
    },
    {
      "midi": 66,
      "time": 20.5,
      "duration": 1.5,
      "velocity": 0.71,
      "hand": "right"
    },
    {
      "midi": 68,
      "time": 20.5,
      "duration": 0.5,
      "velocity": 0.71,
      "hand": "right"
    },
    {
      "midi": 70,
      "time": 21,
      "duration": 0.5,
      "velocity": 0.71,
      "hand": "right"
    },
    {
      "midi": 68,
      "time": 21.5,
      "duration": 1,
      "velocity": 0.71,
      "hand": "right"
    },
    {
      "midi": 58,
      "time": 22,
      "duration": 3,
      "velocity": 0.71,
      "hand": "left"
    },
    {
      "midi": 61,
      "time": 22,
      "duration": 3,
      "velocity": 0.71,
      "hand": "right"
    },
    {
      "midi": 63,
      "time": 22,
      "duration": 2.985,
      "velocity": 0.71,
      "hand": "right"
    },
    {
      "midi": 66,
      "time": 22.5,
      "duration": 0.5,
      "velocity": 0.71,
      "hand": "right"
    },
    {
      "midi": 68,
      "time": 23,
      "duration": 0.5,
      "velocity": 0.71,
      "hand": "right"
    },
    {
      "midi": 66,
      "time": 23.5,
      "duration": 1.5,
      "velocity": 0.71,
      "hand": "right"
    },
    {
      "midi": 57,
      "time": 25,
      "duration": 1.5,
      "velocity": 0.71,
      "hand": "left"
    },
    {
      "midi": 60,
      "time": 25,
      "duration": 1.5,
      "velocity": 0.71,
      "hand": "right"
    },
    {
      "midi": 63,
      "time": 25,
      "duration": 1.5,
      "velocity": 0.71,
      "hand": "right"
    },
    {
      "midi": 65,
      "time": 25,
      "duration": 1.985,
      "velocity": 0.71,
      "hand": "right"
    },
    {
      "midi": 56,
      "time": 26.5,
      "duration": 3,
      "velocity": 0.71,
      "hand": "left"
    },
    {
      "midi": 58,
      "time": 26.5,
      "duration": 4.485,
      "velocity": 0.71,
      "hand": "left"
    },
    {
      "midi": 61,
      "time": 26.5,
      "duration": 4.5,
      "velocity": 0.71,
      "hand": "right"
    },
    {
      "midi": 65,
      "time": 27,
      "duration": 0.5,
      "velocity": 0.71,
      "hand": "right"
    },
    {
      "midi": 66,
      "time": 27.5,
      "duration": 0.5,
      "velocity": 0.71,
      "hand": "right"
    },
    {
      "midi": 65,
      "time": 28,
      "duration": 0.5,
      "velocity": 0.71,
      "hand": "right"
    },
    {
      "midi": 70,
      "time": 28.5,
      "duration": 0.5,
      "velocity": 0.71,
      "hand": "right"
    },
    {
      "midi": 65,
      "time": 29,
      "duration": 0.5,
      "velocity": 0.71,
      "hand": "right"
    },
    {
      "midi": 54,
      "time": 29.5,
      "duration": 1.5,
      "velocity": 0.71,
      "hand": "left"
    },
    {
      "midi": 63,
      "time": 29.5,
      "duration": 0.5,
      "velocity": 0.71,
      "hand": "right"
    },
    {
      "midi": 65,
      "time": 30,
      "duration": 0.5,
      "velocity": 0.71,
      "hand": "right"
    },
    {
      "midi": 63,
      "time": 30.5,
      "duration": 1,
      "velocity": 0.71,
      "hand": "right"
    },
    {
      "midi": 53,
      "time": 31,
      "duration": 3,
      "velocity": 0.71,
      "hand": "left"
    },
    {
      "midi": 56,
      "time": 31,
      "duration": 2.985,
      "velocity": 0.71,
      "hand": "left"
    },
    {
      "midi": 61,
      "time": 31.5,
      "duration": 0.5,
      "velocity": 0.71,
      "hand": "right"
    },
    {
      "midi": 63,
      "time": 32,
      "duration": 0.5,
      "velocity": 0.71,
      "hand": "right"
    },
    {
      "midi": 61,
      "time": 32.5,
      "duration": 1.5,
      "velocity": 0.71,
      "hand": "right"
    },
    {
      "midi": 51,
      "time": 34,
      "duration": 0.75,
      "velocity": 0.71,
      "hand": "left"
    },
    {
      "midi": 54,
      "time": 34,
      "duration": 1.5,
      "velocity": 0.71,
      "hand": "left"
    },
    {
      "midi": 60,
      "time": 34,
      "duration": 1.5,
      "velocity": 0.71,
      "hand": "right"
    },
    {
      "midi": 44,
      "time": 34.75,
      "duration": 1.25,
      "velocity": 0.71,
      "hand": "left"
    },
    {
      "midi": 37,
      "time": 35.5,
      "duration": 0.5,
      "velocity": 0.71,
      "hand": "left"
    },
    {
      "midi": 53,
      "time": 36,
      "duration": 1,
      "velocity": 0.71,
      "hand": "left"
    },
    {
      "midi": 56,
      "time": 36,
      "duration": 1,
      "velocity": 0.71,
      "hand": "left"
    },
    {
      "midi": 65,
      "time": 36.5,
      "duration": 3.5,
      "velocity": 0.71,
      "hand": "right"
    },
    {
      "midi": 68,
      "time": 36.5,
      "duration": 3.5,
      "velocity": 0.71,
      "hand": "right"
    },
    {
      "midi": 77,
      "time": 37,
      "duration": 1.485,
      "velocity": 0.71,
      "hand": "right"
    },
    {
      "midi": 80,
      "time": 37,
      "duration": 1.5,
      "velocity": 0.71,
      "hand": "right"
    },
    {
      "midi": 73,
      "time": 38.5,
      "duration": 2,
      "velocity": 0.71,
      "hand": "right"
    },
    {
      "midi": 77,
      "time": 38.5,
      "duration": 2,
      "velocity": 0.71,
      "hand": "right"
    },
    {
      "midi": 42,
      "time": 40,
      "duration": 3,
      "velocity": 0.71,
      "hand": "left"
    },
    {
      "midi": 49,
      "time": 40,
      "duration": 4.485,
      "velocity": 0.71,
      "hand": "left"
    },
    {
      "midi": 54,
      "time": 40.5,
      "duration": 4,
      "velocity": 0.71,
      "hand": "left"
    },
    {
      "midi": 58,
      "time": 40.5,
      "duration": 4,
      "velocity": 0.71,
      "hand": "left"
    },
    {
      "midi": 61,
      "time": 40.5,
      "duration": 4,
      "velocity": 0.71,
      "hand": "right"
    },
    {
      "midi": 66,
      "time": 40.5,
      "duration": 4,
      "velocity": 0.71,
      "hand": "right"
    },
    {
      "midi": 70,
      "time": 40.5,
      "duration": 4,
      "velocity": 0.71,
      "hand": "right"
    },
    {
      "midi": 75,
      "time": 40.5,
      "duration": 0.5,
      "velocity": 0.71,
      "hand": "right"
    },
    {
      "midi": 77,
      "time": 41,
      "duration": 0.5,
      "velocity": 0.71,
      "hand": "right"
    },
    {
      "midi": 75,
      "time": 41.5,
      "duration": 3.5,
      "velocity": 0.71,
      "hand": "right"
    },
    {
      "midi": 41,
      "time": 44.5,
      "duration": 3,
      "velocity": 0.71,
      "hand": "left"
    },
    {
      "midi": 49,
      "time": 44.5,
      "duration": 3,
      "velocity": 0.71,
      "hand": "left"
    },
    {
      "midi": 53,
      "time": 45,
      "duration": 1,
      "velocity": 0.71,
      "hand": "left"
    },
    {
      "midi": 56,
      "time": 45,
      "duration": 1,
      "velocity": 0.71,
      "hand": "left"
    },
    {
      "midi": 61,
      "time": 45,
      "duration": 0.5,
      "velocity": 0.71,
      "hand": "right"
    },
    {
      "midi": 68,
      "time": 45,
      "duration": 0.985,
      "velocity": 0.71,
      "hand": "right"
    },
    {
      "midi": 73,
      "time": 45,
      "duration": 0.5,
      "velocity": 0.71,
      "hand": "right"
    },
    {
      "midi": 63,
      "time": 45.5,
      "duration": 0.5,
      "velocity": 0.71,
      "hand": "right"
    },
    {
      "midi": 75,
      "time": 45.5,
      "duration": 0.5,
      "velocity": 0.71,
      "hand": "right"
    },
    {
      "midi": 65,
      "time": 46,
      "duration": 1.485,
      "velocity": 0.71,
      "hand": "right"
    },
    {
      "midi": 68,
      "time": 46,
      "duration": 1.5,
      "velocity": 0.71,
      "hand": "right"
    },
    {
      "midi": 73,
      "time": 46,
      "duration": 1.485,
      "velocity": 0.71,
      "hand": "right"
    },
    {
      "midi": 80,
      "time": 46,
      "duration": 1.5,
      "velocity": 0.71,
      "hand": "right"
    },
    {
      "midi": 56,
      "time": 47.5,
      "duration": 1.5,
      "velocity": 0.71,
      "hand": "left"
    },
    {
      "midi": 61,
      "time": 47.5,
      "duration": 1.5,
      "velocity": 0.71,
      "hand": "right"
    },
    {
      "midi": 65,
      "time": 47.5,
      "duration": 1.5,
      "velocity": 0.71,
      "hand": "right"
    },
    {
      "midi": 73,
      "time": 47.5,
      "duration": 1.5,
      "velocity": 0.71,
      "hand": "right"
    },
    {
      "midi": 77,
      "time": 47.5,
      "duration": 2,
      "velocity": 0.71,
      "hand": "right"
    },
    {
      "midi": 42,
      "time": 49,
      "duration": 3,
      "velocity": 0.71,
      "hand": "left"
    },
    {
      "midi": 49,
      "time": 49,
      "duration": 4.5,
      "velocity": 0.71,
      "hand": "left"
    },
    {
      "midi": 54,
      "time": 49.5,
      "duration": 4,
      "velocity": 0.71,
      "hand": "left"
    },
    {
      "midi": 58,
      "time": 49.5,
      "duration": 4,
      "velocity": 0.71,
      "hand": "left"
    },
    {
      "midi": 61,
      "time": 49.5,
      "duration": 4,
      "velocity": 0.71,
      "hand": "right"
    },
    {
      "midi": 66,
      "time": 49.5,
      "duration": 4,
      "velocity": 0.71,
      "hand": "right"
    },
    {
      "midi": 70,
      "time": 49.5,
      "duration": 4,
      "velocity": 0.71,
      "hand": "right"
    },
    {
      "midi": 75,
      "time": 49.5,
      "duration": 0.5,
      "velocity": 0.71,
      "hand": "right"
    },
    {
      "midi": 77,
      "time": 50,
      "duration": 0.5,
      "velocity": 0.71,
      "hand": "right"
    },
    {
      "midi": 75,
      "time": 50.5,
      "duration": 1.5,
      "velocity": 0.71,
      "hand": "right"
    },
    {
      "midi": 73,
      "time": 52,
      "duration": 1.985,
      "velocity": 0.71,
      "hand": "right"
    },
    {
      "midi": 44,
      "time": 53.5,
      "duration": 4.5,
      "velocity": 0.71,
      "hand": "left"
    },
    {
      "midi": 53,
      "time": 54,
      "duration": 1,
      "velocity": 0.71,
      "hand": "left"
    },
    {
      "midi": 59,
      "time": 54,
      "duration": 0.985,
      "velocity": 0.71,
      "hand": "left"
    },
    {
      "midi": 61,
      "time": 54,
      "duration": 0.5,
      "velocity": 0.71,
      "hand": "right"
    },
    {
      "midi": 68,
      "time": 54,
      "duration": 1,
      "velocity": 0.71,
      "hand": "right"
    },
    {
      "midi": 73,
      "time": 54,
      "duration": 0.5,
      "velocity": 0.71,
      "hand": "right"
    },
    {
      "midi": 63,
      "time": 54.5,
      "duration": 0.5,
      "velocity": 0.71,
      "hand": "right"
    },
    {
      "midi": 75,
      "time": 54.5,
      "duration": 0.5,
      "velocity": 0.71,
      "hand": "right"
    },
    {
      "midi": 59,
      "time": 55,
      "duration": 2,
      "velocity": 0.71,
      "hand": "left"
    },
    {
      "midi": 65,
      "time": 55,
      "duration": 2,
      "velocity": 0.71,
      "hand": "right"
    },
    {
      "midi": 70,
      "time": 55,
      "duration": 0.75,
      "velocity": 0.71,
      "hand": "right"
    },
    {
      "midi": 77,
      "time": 55,
      "duration": 2.985,
      "velocity": 0.71,
      "hand": "right"
    },
    {
      "midi": 82,
      "time": 55,
      "duration": 0.75,
      "velocity": 0.71,
      "hand": "right"
    },
    {
      "midi": 68,
      "time": 55.75,
      "duration": 1.5,
      "velocity": 0.71,
      "hand": "right"
    },
    {
      "midi": 80,
      "time": 55.75,
      "duration": 1.5,
      "velocity": 0.71,
      "hand": "right"
    },
    {
      "midi": 65,
      "time": 57.25,
      "duration": 0.75,
      "velocity": 0.71,
      "hand": "right"
    },
    {
      "midi": 46,
      "time": 58,
      "duration": 3,
      "velocity": 0.71,
      "hand": "left"
    },
    {
      "midi": 77,
      "time": 58,
      "duration": 0.5,
      "velocity": 0.71,
      "hand": "right"
    },
    {
      "midi": 53,
      "time": 58.5,
      "duration": 4,
      "velocity": 0.71,
      "hand": "left"
    },
    {
      "midi": 58,
      "time": 58.5,
      "duration": 4,
      "velocity": 0.71,
      "hand": "left"
    },
    {
      "midi": 63,
      "time": 58.5,
      "duration": 1.75,
      "velocity": 0.71,
      "hand": "right"
    },
    {
      "midi": 65,
      "time": 58.5,
      "duration": 4,
      "velocity": 0.71,
      "hand": "right"
    },
    {
      "midi": 70,
      "time": 58.5,
      "duration": 4,
      "velocity": 0.71,
      "hand": "right"
    },
    {
      "midi": 75,
      "time": 58.5,
      "duration": 0.5,
      "velocity": 0.71,
      "hand": "right"
    },
    {
      "midi": 77,
      "time": 59,
      "duration": 0.5,
      "velocity": 0.71,
      "hand": "right"
    },
    {
      "midi": 75,
      "time": 59.5,
      "duration": 0.75,
      "velocity": 0.71,
      "hand": "right"
    },
    {
      "midi": 61,
      "time": 60.25,
      "duration": 2.25,
      "velocity": 0.71,
      "hand": "right"
    },
    {
      "midi": 73,
      "time": 60.25,
      "duration": 1.5,
      "velocity": 0.71,
      "hand": "right"
    },
    {
      "midi": 39,
      "time": 62.5,
      "duration": 3,
      "velocity": 0.71,
      "hand": "left"
    },
    {
      "midi": 66,
      "time": 63.25,
      "duration": 1.235,
      "velocity": 0.71,
      "hand": "right"
    },
    {
      "midi": 70,
      "time": 63.25,
      "duration": 1.235,
      "velocity": 0.71,
      "hand": "right"
    },
    {
      "midi": 77,
      "time": 63.25,
      "duration": 1.25,
      "velocity": 0.71,
      "hand": "right"
    },
    {
      "midi": 82,
      "time": 63.25,
      "duration": 1.235,
      "velocity": 0.71,
      "hand": "right"
    },
    {
      "midi": 66,
      "time": 64.5,
      "duration": 0.485,
      "velocity": 0.71,
      "hand": "right"
    },
    {
      "midi": 70,
      "time": 64.5,
      "duration": 0.485,
      "velocity": 0.71,
      "hand": "right"
    },
    {
      "midi": 75,
      "time": 64.5,
      "duration": 0.485,
      "velocity": 0.71,
      "hand": "right"
    },
    {
      "midi": 82,
      "time": 64.5,
      "duration": 0.485,
      "velocity": 0.71,
      "hand": "right"
    },
    {
      "midi": 66,
      "time": 65,
      "duration": 0.485,
      "velocity": 0.71,
      "hand": "right"
    },
    {
      "midi": 70,
      "time": 65,
      "duration": 0.485,
      "velocity": 0.71,
      "hand": "right"
    },
    {
      "midi": 75,
      "time": 65,
      "duration": 0.485,
      "velocity": 0.71,
      "hand": "right"
    },
    {
      "midi": 82,
      "time": 65,
      "duration": 0.485,
      "velocity": 0.71,
      "hand": "right"
    },
    {
      "midi": 66,
      "time": 65.5,
      "duration": 0.485,
      "velocity": 0.71,
      "hand": "right"
    },
    {
      "midi": 70,
      "time": 65.5,
      "duration": 0.485,
      "velocity": 0.71,
      "hand": "right"
    },
    {
      "midi": 75,
      "time": 65.5,
      "duration": 0.5,
      "velocity": 0.71,
      "hand": "right"
    },
    {
      "midi": 82,
      "time": 65.5,
      "duration": 0.485,
      "velocity": 0.71,
      "hand": "right"
    },
    {
      "midi": 66,
      "time": 66,
      "duration": 0.485,
      "velocity": 0.71,
      "hand": "right"
    },
    {
      "midi": 70,
      "time": 66,
      "duration": 0.485,
      "velocity": 0.71,
      "hand": "right"
    },
    {
      "midi": 73,
      "time": 66,
      "duration": 0.485,
      "velocity": 0.71,
      "hand": "right"
    },
    {
      "midi": 82,
      "time": 66,
      "duration": 0.485,
      "velocity": 0.71,
      "hand": "right"
    },
    {
      "midi": 66,
      "time": 66.5,
      "duration": 0.485,
      "velocity": 0.71,
      "hand": "right"
    },
    {
      "midi": 70,
      "time": 66.5,
      "duration": 0.485,
      "velocity": 0.71,
      "hand": "right"
    },
    {
      "midi": 73,
      "time": 66.5,
      "duration": 0.485,
      "velocity": 0.71,
      "hand": "right"
    },
    {
      "midi": 82,
      "time": 66.5,
      "duration": 0.485,
      "velocity": 0.71,
      "hand": "right"
    },
    {
      "midi": 66,
      "time": 67,
      "duration": 0.485,
      "velocity": 0.71,
      "hand": "right"
    },
    {
      "midi": 70,
      "time": 67,
      "duration": 0.485,
      "velocity": 0.71,
      "hand": "right"
    },
    {
      "midi": 73,
      "time": 67,
      "duration": 0.5,
      "velocity": 0.71,
      "hand": "right"
    },
    {
      "midi": 82,
      "time": 67,
      "duration": 0.485,
      "velocity": 0.71,
      "hand": "right"
    },
    {
      "midi": 72,
      "time": 67.5,
      "duration": 0.485,
      "velocity": 0.71,
      "hand": "right"
    },
    {
      "midi": 78,
      "time": 67.5,
      "duration": 0.485,
      "velocity": 0.71,
      "hand": "right"
    },
    {
      "midi": 82,
      "time": 67.5,
      "duration": 0.485,
      "velocity": 0.71,
      "hand": "right"
    },
    {
      "midi": 84,
      "time": 67.5,
      "duration": 0.485,
      "velocity": 0.71,
      "hand": "right"
    },
    {
      "midi": 72,
      "time": 68,
      "duration": 0.485,
      "velocity": 0.71,
      "hand": "right"
    },
    {
      "midi": 78,
      "time": 68,
      "duration": 0.485,
      "velocity": 0.71,
      "hand": "right"
    },
    {
      "midi": 82,
      "time": 68,
      "duration": 0.485,
      "velocity": 0.71,
      "hand": "right"
    },
    {
      "midi": 84,
      "time": 68,
      "duration": 0.485,
      "velocity": 0.71,
      "hand": "right"
    },
    {
      "midi": 72,
      "time": 68.5,
      "duration": 0.75,
      "velocity": 0.71,
      "hand": "right"
    },
    {
      "midi": 78,
      "time": 68.5,
      "duration": 0.75,
      "velocity": 0.71,
      "hand": "right"
    },
    {
      "midi": 82,
      "time": 68.5,
      "duration": 0.735,
      "velocity": 0.71,
      "hand": "right"
    },
    {
      "midi": 84,
      "time": 68.5,
      "duration": 0.75,
      "velocity": 0.71,
      "hand": "right"
    },
    {
      "midi": 66,
      "time": 69.25,
      "duration": 0.735,
      "velocity": 0.71,
      "hand": "right"
    },
    {
      "midi": 70,
      "time": 69.25,
      "duration": 0.735,
      "velocity": 0.71,
      "hand": "right"
    },
    {
      "midi": 73,
      "time": 69.25,
      "duration": 0.75,
      "velocity": 0.71,
      "hand": "right"
    },
    {
      "midi": 82,
      "time": 69.25,
      "duration": 0.735,
      "velocity": 0.71,
      "hand": "right"
    },
    {
      "midi": 58,
      "time": 70,
      "duration": 1.5,
      "velocity": 0.71,
      "hand": "left"
    },
    {
      "midi": 66,
      "time": 70,
      "duration": 1.5,
      "velocity": 0.71,
      "hand": "right"
    },
    {
      "midi": 70,
      "time": 70,
      "duration": 1.5,
      "velocity": 0.71,
      "hand": "right"
    },
    {
      "midi": 78,
      "time": 70,
      "duration": 1.5,
      "velocity": 0.71,
      "hand": "right"
    },
    {
      "midi": 82,
      "time": 70,
      "duration": 1.5,
      "velocity": 0.71,
      "hand": "right"
    },
    {
      "midi": 39,
      "time": 71.5,
      "duration": 3,
      "velocity": 0.71,
      "hand": "left"
    },
    {
      "midi": 46,
      "time": 71.5,
      "duration": 3,
      "velocity": 0.71,
      "hand": "left"
    },
    {
      "midi": 66,
      "time": 72.25,
      "duration": 1.235,
      "velocity": 0.71,
      "hand": "right"
    },
    {
      "midi": 70,
      "time": 72.25,
      "duration": 1.235,
      "velocity": 0.71,
      "hand": "right"
    },
    {
      "midi": 77,
      "time": 72.25,
      "duration": 1.25,
      "velocity": 0.71,
      "hand": "right"
    },
    {
      "midi": 82,
      "time": 72.25,
      "duration": 1.235,
      "velocity": 0.71,
      "hand": "right"
    },
    {
      "midi": 70,
      "time": 73.5,
      "duration": 0.485,
      "velocity": 0.71,
      "hand": "right"
    },
    {
      "midi": 75,
      "time": 73.5,
      "duration": 0.5,
      "velocity": 0.71,
      "hand": "right"
    },
    {
      "midi": 78,
      "time": 73.5,
      "duration": 0.5,
      "velocity": 0.71,
      "hand": "right"
    },
    {
      "midi": 82,
      "time": 73.5,
      "duration": 0.485,
      "velocity": 0.71,
      "hand": "right"
    },
    {
      "midi": 66,
      "time": 74,
      "duration": 0.485,
      "velocity": 0.71,
      "hand": "right"
    },
    {
      "midi": 70,
      "time": 74,
      "duration": 0.485,
      "velocity": 0.71,
      "hand": "right"
    },
    {
      "midi": 77,
      "time": 74,
      "duration": 0.5,
      "velocity": 0.71,
      "hand": "right"
    },
    {
      "midi": 82,
      "time": 74,
      "duration": 0.485,
      "velocity": 0.71,
      "hand": "right"
    },
    {
      "midi": 66,
      "time": 74.5,
      "duration": 0.485,
      "velocity": 0.71,
      "hand": "right"
    },
    {
      "midi": 70,
      "time": 74.5,
      "duration": 0.485,
      "velocity": 0.71,
      "hand": "right"
    },
    {
      "midi": 75,
      "time": 74.5,
      "duration": 0.5,
      "velocity": 0.71,
      "hand": "right"
    },
    {
      "midi": 82,
      "time": 74.5,
      "duration": 0.485,
      "velocity": 0.71,
      "hand": "right"
    },
    {
      "midi": 66,
      "time": 75,
      "duration": 0.485,
      "velocity": 0.71,
      "hand": "right"
    },
    {
      "midi": 70,
      "time": 75,
      "duration": 0.485,
      "velocity": 0.71,
      "hand": "right"
    },
    {
      "midi": 77,
      "time": 75,
      "duration": 0.5,
      "velocity": 0.71,
      "hand": "right"
    },
    {
      "midi": 82,
      "time": 75,
      "duration": 0.485,
      "velocity": 0.71,
      "hand": "right"
    },
    {
      "midi": 66,
      "time": 75.5,
      "duration": 0.485,
      "velocity": 0.71,
      "hand": "right"
    },
    {
      "midi": 70,
      "time": 75.5,
      "duration": 0.485,
      "velocity": 0.71,
      "hand": "right"
    },
    {
      "midi": 75,
      "time": 75.5,
      "duration": 0.5,
      "velocity": 0.71,
      "hand": "right"
    },
    {
      "midi": 82,
      "time": 75.5,
      "duration": 0.485,
      "velocity": 0.71,
      "hand": "right"
    },
    {
      "midi": 66,
      "time": 76,
      "duration": 0.485,
      "velocity": 0.71,
      "hand": "right"
    },
    {
      "midi": 70,
      "time": 76,
      "duration": 0.485,
      "velocity": 0.71,
      "hand": "right"
    },
    {
      "midi": 73,
      "time": 76,
      "duration": 0.5,
      "velocity": 0.71,
      "hand": "right"
    },
    {
      "midi": 82,
      "time": 76,
      "duration": 0.485,
      "velocity": 0.71,
      "hand": "right"
    },
    {
      "midi": 66,
      "time": 76.5,
      "duration": 0.485,
      "velocity": 0.71,
      "hand": "right"
    },
    {
      "midi": 70,
      "time": 76.5,
      "duration": 0.485,
      "velocity": 0.71,
      "hand": "right"
    },
    {
      "midi": 75,
      "time": 76.5,
      "duration": 0.5,
      "velocity": 0.71,
      "hand": "right"
    },
    {
      "midi": 82,
      "time": 76.5,
      "duration": 0.485,
      "velocity": 0.71,
      "hand": "right"
    },
    {
      "midi": 66,
      "time": 77,
      "duration": 0.485,
      "velocity": 0.71,
      "hand": "right"
    },
    {
      "midi": 70,
      "time": 77,
      "duration": 0.485,
      "velocity": 0.71,
      "hand": "right"
    },
    {
      "midi": 73,
      "time": 77,
      "duration": 0.5,
      "velocity": 0.71,
      "hand": "right"
    },
    {
      "midi": 82,
      "time": 77,
      "duration": 0.485,
      "velocity": 0.71,
      "hand": "right"
    },
    {
      "midi": 66,
      "time": 77.5,
      "duration": 0.735,
      "velocity": 0.71,
      "hand": "right"
    },
    {
      "midi": 70,
      "time": 77.5,
      "duration": 0.735,
      "velocity": 0.71,
      "hand": "right"
    },
    {
      "midi": 82,
      "time": 77.5,
      "duration": 0.5,
      "velocity": 0.71,
      "hand": "right"
    },
    {
      "midi": 84,
      "time": 77.5,
      "duration": 0.5,
      "velocity": 0.71,
      "hand": "right"
    },
    {
      "midi": 75,
      "time": 78,
      "duration": 0.25,
      "velocity": 0.71,
      "hand": "right"
    },
    {
      "midi": 66,
      "time": 78.25,
      "duration": 0.735,
      "velocity": 0.71,
      "hand": "right"
    },
    {
      "midi": 70,
      "time": 78.25,
      "duration": 0.735,
      "velocity": 0.71,
      "hand": "right"
    },
    {
      "midi": 73,
      "time": 78.25,
      "duration": 0.75,
      "velocity": 0.71,
      "hand": "right"
    },
    {
      "midi": 82,
      "time": 78.25,
      "duration": 0.735,
      "velocity": 0.71,
      "hand": "right"
    },
    {
      "midi": 58,
      "time": 79,
      "duration": 1.5,
      "velocity": 0.71,
      "hand": "left"
    },
    {
      "midi": 66,
      "time": 79,
      "duration": 1.5,
      "velocity": 0.71,
      "hand": "right"
    },
    {
      "midi": 70,
      "time": 79,
      "duration": 2.25,
      "velocity": 0.71,
      "hand": "right"
    },
    {
      "midi": 78,
      "time": 79,
      "duration": 2.235,
      "velocity": 0.71,
      "hand": "right"
    },
    {
      "midi": 82,
      "time": 79,
      "duration": 2.25,
      "velocity": 0.71,
      "hand": "right"
    },
    {
      "midi": 44,
      "time": 80.5,
      "duration": 3,
      "velocity": 0.71,
      "hand": "left"
    },
    {
      "midi": 54,
      "time": 81.25,
      "duration": 0.75,
      "velocity": 0.71,
      "hand": "left"
    },
    {
      "midi": 66,
      "time": 81.25,
      "duration": 0.75,
      "velocity": 0.71,
      "hand": "right"
    },
    {
      "midi": 78,
      "time": 81.25,
      "duration": 0.75,
      "velocity": 0.71,
      "hand": "right"
    },
    {
      "midi": 56,
      "time": 82,
      "duration": 0.75,
      "velocity": 0.71,
      "hand": "left"
    },
    {
      "midi": 63,
      "time": 82,
      "duration": 1.485,
      "velocity": 0.71,
      "hand": "right"
    },
    {
      "midi": 68,
      "time": 82,
      "duration": 0.75,
      "velocity": 0.71,
      "hand": "right"
    },
    {
      "midi": 75,
      "time": 82,
      "duration": 0.75,
      "velocity": 0.71,
      "hand": "right"
    },
    {
      "midi": 80,
      "time": 82,
      "duration": 0.75,
      "velocity": 0.71,
      "hand": "right"
    },
    {
      "midi": 72,
      "time": 82.75,
      "duration": 0.75,
      "velocity": 0.71,
      "hand": "right"
    },
    {
      "midi": 84,
      "time": 82.75,
      "duration": 0.75,
      "velocity": 0.71,
      "hand": "right"
    },
    {
      "midi": 58,
      "time": 83.5,
      "duration": 0.75,
      "velocity": 0.71,
      "hand": "left"
    },
    {
      "midi": 66,
      "time": 83.5,
      "duration": 0.735,
      "velocity": 0.71,
      "hand": "right"
    },
    {
      "midi": 70,
      "time": 83.5,
      "duration": 0.75,
      "velocity": 0.71,
      "hand": "right"
    },
    {
      "midi": 78,
      "time": 83.5,
      "duration": 0.735,
      "velocity": 0.71,
      "hand": "right"
    },
    {
      "midi": 82,
      "time": 83.5,
      "duration": 0.75,
      "velocity": 0.71,
      "hand": "right"
    },
    {
      "midi": 54,
      "time": 84.25,
      "duration": 0.75,
      "velocity": 0.71,
      "hand": "left"
    },
    {
      "midi": 66,
      "time": 84.25,
      "duration": 0.75,
      "velocity": 0.71,
      "hand": "right"
    },
    {
      "midi": 78,
      "time": 84.25,
      "duration": 0.75,
      "velocity": 0.71,
      "hand": "right"
    },
    {
      "midi": 45,
      "time": 85,
      "duration": 3,
      "velocity": 0.71,
      "hand": "left"
    },
    {
      "midi": 54,
      "time": 85.5,
      "duration": 0.485,
      "velocity": 0.71,
      "hand": "left"
    },
    {
      "midi": 66,
      "time": 85.5,
      "duration": 0.485,
      "velocity": 0.71,
      "hand": "right"
    },
    {
      "midi": 72,
      "time": 85.5,
      "duration": 0.485,
      "velocity": 0.71,
      "hand": "right"
    },
    {
      "midi": 75,
      "time": 85.5,
      "duration": 0.485,
      "velocity": 0.71,
      "hand": "right"
    },
    {
      "midi": 78,
      "time": 85.5,
      "duration": 0.485,
      "velocity": 0.71,
      "hand": "right"
    },
    {
      "midi": 54,
      "time": 86,
      "duration": 0.485,
      "velocity": 0.71,
      "hand": "left"
    },
    {
      "midi": 66,
      "time": 86,
      "duration": 0.485,
      "velocity": 0.71,
      "hand": "right"
    },
    {
      "midi": 72,
      "time": 86,
      "duration": 0.485,
      "velocity": 0.71,
      "hand": "right"
    },
    {
      "midi": 75,
      "time": 86,
      "duration": 0.485,
      "velocity": 0.71,
      "hand": "right"
    },
    {
      "midi": 78,
      "time": 86,
      "duration": 0.485,
      "velocity": 0.71,
      "hand": "right"
    },
    {
      "midi": 54,
      "time": 86.5,
      "duration": 0.485,
      "velocity": 0.71,
      "hand": "left"
    },
    {
      "midi": 66,
      "time": 86.5,
      "duration": 0.485,
      "velocity": 0.71,
      "hand": "right"
    },
    {
      "midi": 72,
      "time": 86.5,
      "duration": 0.485,
      "velocity": 0.71,
      "hand": "right"
    },
    {
      "midi": 75,
      "time": 86.5,
      "duration": 0.485,
      "velocity": 0.71,
      "hand": "right"
    },
    {
      "midi": 78,
      "time": 86.5,
      "duration": 0.485,
      "velocity": 0.71,
      "hand": "right"
    },
    {
      "midi": 54,
      "time": 87,
      "duration": 0.5,
      "velocity": 0.71,
      "hand": "left"
    },
    {
      "midi": 66,
      "time": 87,
      "duration": 0.5,
      "velocity": 0.71,
      "hand": "right"
    },
    {
      "midi": 72,
      "time": 87,
      "duration": 0.485,
      "velocity": 0.71,
      "hand": "right"
    },
    {
      "midi": 75,
      "time": 87,
      "duration": 0.485,
      "velocity": 0.71,
      "hand": "right"
    },
    {
      "midi": 78,
      "time": 87,
      "duration": 0.5,
      "velocity": 0.71,
      "hand": "right"
    },
    {
      "midi": 56,
      "time": 87.5,
      "duration": 0.5,
      "velocity": 0.71,
      "hand": "left"
    },
    {
      "midi": 68,
      "time": 87.5,
      "duration": 0.5,
      "velocity": 0.71,
      "hand": "right"
    },
    {
      "midi": 72,
      "time": 87.5,
      "duration": 0.485,
      "velocity": 0.71,
      "hand": "right"
    },
    {
      "midi": 75,
      "time": 87.5,
      "duration": 0.485,
      "velocity": 0.71,
      "hand": "right"
    },
    {
      "midi": 80,
      "time": 87.5,
      "duration": 0.5,
      "velocity": 0.71,
      "hand": "right"
    },
    {
      "midi": 54,
      "time": 88,
      "duration": 1.5,
      "velocity": 0.71,
      "hand": "left"
    },
    {
      "midi": 66,
      "time": 88,
      "duration": 1.5,
      "velocity": 0.71,
      "hand": "right"
    },
    {
      "midi": 72,
      "time": 88,
      "duration": 1.5,
      "velocity": 0.71,
      "hand": "right"
    },
    {
      "midi": 75,
      "time": 88,
      "duration": 1.5,
      "velocity": 0.71,
      "hand": "right"
    },
    {
      "midi": 78,
      "time": 88,
      "duration": 1.5,
      "velocity": 0.71,
      "hand": "right"
    },
    {
      "midi": 46,
      "time": 89.5,
      "duration": 3,
      "velocity": 0.71,
      "hand": "left"
    },
    {
      "midi": 54,
      "time": 90.25,
      "duration": 0.75,
      "velocity": 0.71,
      "hand": "left"
    },
    {
      "midi": 58,
      "time": 90.25,
      "duration": 1.5,
      "velocity": 0.71,
      "hand": "left"
    },
    {
      "midi": 61,
      "time": 90.25,
      "duration": 1.485,
      "velocity": 0.71,
      "hand": "right"
    },
    {
      "midi": 66,
      "time": 90.25,
      "duration": 0.75,
      "velocity": 0.71,
      "hand": "right"
    },
    {
      "midi": 73,
      "time": 90.25,
      "duration": 1.485,
      "velocity": 0.71,
      "hand": "right"
    },
    {
      "midi": 78,
      "time": 90.25,
      "duration": 0.75,
      "velocity": 0.71,
      "hand": "right"
    },
    {
      "midi": 56,
      "time": 91,
      "duration": 0.75,
      "velocity": 0.71,
      "hand": "left"
    },
    {
      "midi": 68,
      "time": 91,
      "duration": 0.75,
      "velocity": 0.71,
      "hand": "right"
    },
    {
      "midi": 80,
      "time": 91,
      "duration": 0.75,
      "velocity": 0.71,
      "hand": "right"
    },
    {
      "midi": 61,
      "time": 91.75,
      "duration": 0.735,
      "velocity": 0.71,
      "hand": "right"
    },
    {
      "midi": 73,
      "time": 91.75,
      "duration": 0.75,
      "velocity": 0.71,
      "hand": "right"
    },
    {
      "midi": 58,
      "time": 92.5,
      "duration": 0.75,
      "velocity": 0.71,
      "hand": "left"
    },
    {
      "midi": 66,
      "time": 92.5,
      "duration": 0.735,
      "velocity": 0.71,
      "hand": "right"
    },
    {
      "midi": 70,
      "time": 92.5,
      "duration": 0.75,
      "velocity": 0.71,
      "hand": "right"
    },
    {
      "midi": 78,
      "time": 92.5,
      "duration": 1.5,
      "velocity": 0.71,
      "hand": "right"
    },
    {
      "midi": 82,
      "time": 92.5,
      "duration": 0.75,
      "velocity": 0.71,
      "hand": "right"
    },
    {
      "midi": 54,
      "time": 93.25,
      "duration": 0.75,
      "velocity": 0.71,
      "hand": "left"
    },
    {
      "midi": 66,
      "time": 93.25,
      "duration": 0.75,
      "velocity": 0.71,
      "hand": "right"
    },
    {
      "midi": 44,
      "time": 94,
      "duration": 3,
      "velocity": 0.71,
      "hand": "left"
    },
    {
      "midi": 54,
      "time": 94.5,
      "duration": 0.485,
      "velocity": 0.71,
      "hand": "left"
    },
    {
      "midi": 58,
      "time": 94.5,
      "duration": 0.485,
      "velocity": 0.71,
      "hand": "left"
    },
    {
      "midi": 66,
      "time": 94.5,
      "duration": 0.485,
      "velocity": 0.71,
      "hand": "right"
    },
    {
      "midi": 70,
      "time": 94.5,
      "duration": 0.485,
      "velocity": 0.71,
      "hand": "right"
    },
    {
      "midi": 75,
      "time": 94.5,
      "duration": 0.485,
      "velocity": 0.71,
      "hand": "right"
    },
    {
      "midi": 78,
      "time": 94.5,
      "duration": 0.485,
      "velocity": 0.71,
      "hand": "right"
    },
    {
      "midi": 54,
      "time": 95,
      "duration": 0.485,
      "velocity": 0.71,
      "hand": "left"
    },
    {
      "midi": 58,
      "time": 95,
      "duration": 0.485,
      "velocity": 0.71,
      "hand": "left"
    },
    {
      "midi": 66,
      "time": 95,
      "duration": 0.485,
      "velocity": 0.71,
      "hand": "right"
    },
    {
      "midi": 70,
      "time": 95,
      "duration": 0.485,
      "velocity": 0.71,
      "hand": "right"
    },
    {
      "midi": 75,
      "time": 95,
      "duration": 0.485,
      "velocity": 0.71,
      "hand": "right"
    },
    {
      "midi": 78,
      "time": 95,
      "duration": 0.485,
      "velocity": 0.71,
      "hand": "right"
    },
    {
      "midi": 54,
      "time": 95.5,
      "duration": 0.485,
      "velocity": 0.71,
      "hand": "left"
    },
    {
      "midi": 58,
      "time": 95.5,
      "duration": 0.485,
      "velocity": 0.71,
      "hand": "left"
    },
    {
      "midi": 66,
      "time": 95.5,
      "duration": 0.485,
      "velocity": 0.71,
      "hand": "right"
    },
    {
      "midi": 70,
      "time": 95.5,
      "duration": 0.485,
      "velocity": 0.71,
      "hand": "right"
    },
    {
      "midi": 75,
      "time": 95.5,
      "duration": 0.485,
      "velocity": 0.71,
      "hand": "right"
    },
    {
      "midi": 78,
      "time": 95.5,
      "duration": 0.485,
      "velocity": 0.71,
      "hand": "right"
    },
    {
      "midi": 54,
      "time": 96,
      "duration": 0.5,
      "velocity": 0.71,
      "hand": "left"
    },
    {
      "midi": 58,
      "time": 96,
      "duration": 0.5,
      "velocity": 0.71,
      "hand": "left"
    },
    {
      "midi": 66,
      "time": 96,
      "duration": 0.5,
      "velocity": 0.71,
      "hand": "right"
    },
    {
      "midi": 70,
      "time": 96,
      "duration": 0.5,
      "velocity": 0.71,
      "hand": "right"
    },
    {
      "midi": 75,
      "time": 96,
      "duration": 0.5,
      "velocity": 0.71,
      "hand": "right"
    },
    {
      "midi": 78,
      "time": 96,
      "duration": 0.5,
      "velocity": 0.71,
      "hand": "right"
    },
    {
      "midi": 56,
      "time": 96.5,
      "duration": 0.5,
      "velocity": 0.71,
      "hand": "left"
    },
    {
      "midi": 68,
      "time": 96.5,
      "duration": 0.5,
      "velocity": 0.71,
      "hand": "right"
    },
    {
      "midi": 72,
      "time": 96.5,
      "duration": 0.5,
      "velocity": 0.71,
      "hand": "right"
    },
    {
      "midi": 77,
      "time": 96.5,
      "duration": 0.5,
      "velocity": 0.71,
      "hand": "right"
    },
    {
      "midi": 80,
      "time": 96.5,
      "duration": 0.5,
      "velocity": 0.71,
      "hand": "right"
    },
    {
      "midi": 54,
      "time": 97,
      "duration": 1.5,
      "velocity": 0.71,
      "hand": "left"
    },
    {
      "midi": 58,
      "time": 97,
      "duration": 1.5,
      "velocity": 0.71,
      "hand": "left"
    },
    {
      "midi": 66,
      "time": 97,
      "duration": 1.5,
      "velocity": 0.71,
      "hand": "right"
    },
    {
      "midi": 70,
      "time": 97,
      "duration": 1.5,
      "velocity": 0.71,
      "hand": "right"
    },
    {
      "midi": 75,
      "time": 97,
      "duration": 1.5,
      "velocity": 0.71,
      "hand": "right"
    },
    {
      "midi": 78,
      "time": 97,
      "duration": 1.5,
      "velocity": 0.71,
      "hand": "right"
    },
    {
      "midi": 37,
      "time": 98.5,
      "duration": 3,
      "velocity": 0.71,
      "hand": "left"
    },
    {
      "midi": 49,
      "time": 98.5,
      "duration": 3,
      "velocity": 0.71,
      "hand": "left"
    },
    {
      "midi": 54,
      "time": 99.25,
      "duration": 0.75,
      "velocity": 0.71,
      "hand": "left"
    },
    {
      "midi": 58,
      "time": 99.25,
      "duration": 2.25,
      "velocity": 0.71,
      "hand": "left"
    },
    {
      "midi": 66,
      "time": 99.25,
      "duration": 0.75,
      "velocity": 0.71,
      "hand": "right"
    },
    {
      "midi": 70,
      "time": 99.25,
      "duration": 2.235,
      "velocity": 0.71,
      "hand": "right"
    },
    {
      "midi": 73,
      "time": 99.25,
      "duration": 2.235,
      "velocity": 0.71,
      "hand": "right"
    },
    {
      "midi": 78,
      "time": 99.25,
      "duration": 0.75,
      "velocity": 0.71,
      "hand": "right"
    },
    {
      "midi": 56,
      "time": 100,
      "duration": 0.75,
      "velocity": 0.71,
      "hand": "left"
    },
    {
      "midi": 68,
      "time": 100,
      "duration": 0.75,
      "velocity": 0.71,
      "hand": "right"
    },
    {
      "midi": 80,
      "time": 100,
      "duration": 0.75,
      "velocity": 0.71,
      "hand": "right"
    },
    {
      "midi": 63,
      "time": 100.75,
      "duration": 0.75,
      "velocity": 0.71,
      "hand": "right"
    },
    {
      "midi": 75,
      "time": 100.75,
      "duration": 0.75,
      "velocity": 0.71,
      "hand": "right"
    },
    {
      "midi": 70,
      "time": 101.5,
      "duration": 0.735,
      "velocity": 0.71,
      "hand": "right"
    },
    {
      "midi": 73,
      "time": 101.5,
      "duration": 0.75,
      "velocity": 0.71,
      "hand": "right"
    },
    {
      "midi": 78,
      "time": 101.5,
      "duration": 1.5,
      "velocity": 0.71,
      "hand": "right"
    },
    {
      "midi": 82,
      "time": 101.5,
      "duration": 1.5,
      "velocity": 0.71,
      "hand": "right"
    },
    {
      "midi": 58,
      "time": 102.25,
      "duration": 0.75,
      "velocity": 0.71,
      "hand": "left"
    },
    {
      "midi": 70,
      "time": 102.25,
      "duration": 0.75,
      "velocity": 0.71,
      "hand": "right"
    },
    {
      "midi": 39,
      "time": 103,
      "duration": 3,
      "velocity": 0.71,
      "hand": "left"
    },
    {
      "midi": 51,
      "time": 103,
      "duration": 3,
      "velocity": 0.71,
      "hand": "left"
    },
    {
      "midi": 58,
      "time": 103.5,
      "duration": 0.485,
      "velocity": 0.71,
      "hand": "left"
    },
    {
      "midi": 66,
      "time": 103.5,
      "duration": 0.485,
      "velocity": 0.71,
      "hand": "right"
    },
    {
      "midi": 70,
      "time": 103.5,
      "duration": 0.485,
      "velocity": 0.71,
      "hand": "right"
    },
    {
      "midi": 78,
      "time": 103.5,
      "duration": 0.485,
      "velocity": 0.71,
      "hand": "right"
    },
    {
      "midi": 82,
      "time": 103.5,
      "duration": 0.485,
      "velocity": 0.71,
      "hand": "right"
    },
    {
      "midi": 58,
      "time": 104,
      "duration": 0.485,
      "velocity": 0.71,
      "hand": "left"
    },
    {
      "midi": 66,
      "time": 104,
      "duration": 0.485,
      "velocity": 0.71,
      "hand": "right"
    },
    {
      "midi": 70,
      "time": 104,
      "duration": 0.485,
      "velocity": 0.71,
      "hand": "right"
    },
    {
      "midi": 78,
      "time": 104,
      "duration": 0.485,
      "velocity": 0.71,
      "hand": "right"
    },
    {
      "midi": 82,
      "time": 104,
      "duration": 0.485,
      "velocity": 0.71,
      "hand": "right"
    },
    {
      "midi": 58,
      "time": 104.5,
      "duration": 0.485,
      "velocity": 0.71,
      "hand": "left"
    },
    {
      "midi": 66,
      "time": 104.5,
      "duration": 0.485,
      "velocity": 0.71,
      "hand": "right"
    },
    {
      "midi": 70,
      "time": 104.5,
      "duration": 0.485,
      "velocity": 0.71,
      "hand": "right"
    },
    {
      "midi": 78,
      "time": 104.5,
      "duration": 0.485,
      "velocity": 0.71,
      "hand": "right"
    },
    {
      "midi": 82,
      "time": 104.5,
      "duration": 0.485,
      "velocity": 0.71,
      "hand": "right"
    },
    {
      "midi": 58,
      "time": 105,
      "duration": 0.5,
      "velocity": 0.71,
      "hand": "left"
    },
    {
      "midi": 66,
      "time": 105,
      "duration": 0.5,
      "velocity": 0.71,
      "hand": "right"
    },
    {
      "midi": 70,
      "time": 105,
      "duration": 0.5,
      "velocity": 0.71,
      "hand": "right"
    },
    {
      "midi": 78,
      "time": 105,
      "duration": 0.5,
      "velocity": 0.71,
      "hand": "right"
    },
    {
      "midi": 82,
      "time": 105,
      "duration": 0.5,
      "velocity": 0.71,
      "hand": "right"
    },
    {
      "midi": 68,
      "time": 105.5,
      "duration": 0.5,
      "velocity": 0.71,
      "hand": "right"
    },
    {
      "midi": 72,
      "time": 105.5,
      "duration": 0.5,
      "velocity": 0.71,
      "hand": "right"
    },
    {
      "midi": 80,
      "time": 105.5,
      "duration": 0.5,
      "velocity": 0.71,
      "hand": "right"
    },
    {
      "midi": 84,
      "time": 105.5,
      "duration": 0.5,
      "velocity": 0.71,
      "hand": "right"
    },
    {
      "midi": 58,
      "time": 106,
      "duration": 0.5,
      "velocity": 0.71,
      "hand": "left"
    },
    {
      "midi": 66,
      "time": 106,
      "duration": 0.485,
      "velocity": 0.71,
      "hand": "right"
    },
    {
      "midi": 70,
      "time": 106,
      "duration": 0.485,
      "velocity": 0.71,
      "hand": "right"
    },
    {
      "midi": 78,
      "time": 106,
      "duration": 0.5,
      "velocity": 0.71,
      "hand": "right"
    },
    {
      "midi": 82,
      "time": 106,
      "duration": 0.485,
      "velocity": 0.71,
      "hand": "right"
    },
    {
      "midi": 66,
      "time": 106.5,
      "duration": 0.485,
      "velocity": 0.71,
      "hand": "right"
    },
    {
      "midi": 70,
      "time": 106.5,
      "duration": 0.485,
      "velocity": 0.71,
      "hand": "right"
    },
    {
      "midi": 73,
      "time": 106.5,
      "duration": 0.5,
      "velocity": 0.71,
      "hand": "right"
    },
    {
      "midi": 82,
      "time": 106.5,
      "duration": 0.485,
      "velocity": 0.71,
      "hand": "right"
    },
    {
      "midi": 66,
      "time": 107,
      "duration": 0.5,
      "velocity": 0.71,
      "hand": "right"
    },
    {
      "midi": 70,
      "time": 107,
      "duration": 0.5,
      "velocity": 0.71,
      "hand": "right"
    },
    {
      "midi": 75,
      "time": 107,
      "duration": 0.5,
      "velocity": 0.71,
      "hand": "right"
    },
    {
      "midi": 82,
      "time": 107,
      "duration": 0.5,
      "velocity": 0.71,
      "hand": "right"
    },
    {
      "midi": 68,
      "time": 107.5,
      "duration": 2.985,
      "velocity": 0.71,
      "hand": "right"
    },
    {
      "midi": 73,
      "time": 107.5,
      "duration": 2.985,
      "velocity": 0.71,
      "hand": "right"
    },
    {
      "midi": 77,
      "time": 107.5,
      "duration": 3,
      "velocity": 0.71,
      "hand": "right"
    },
    {
      "midi": 80,
      "time": 107.5,
      "duration": 2.985,
      "velocity": 0.71,
      "hand": "right"
    },
    {
      "midi": 70,
      "time": 110.5,
      "duration": 1.5,
      "velocity": 0.71,
      "hand": "right"
    },
    {
      "midi": 73,
      "time": 110.5,
      "duration": 1.485,
      "velocity": 0.71,
      "hand": "right"
    },
    {
      "midi": 76,
      "time": 110.5,
      "duration": 1.5,
      "velocity": 0.71,
      "hand": "right"
    },
    {
      "midi": 80,
      "time": 110.5,
      "duration": 1.485,
      "velocity": 0.71,
      "hand": "right"
    },
    {
      "midi": 68,
      "time": 112,
      "duration": 2.985,
      "velocity": 0.71,
      "hand": "right"
    },
    {
      "midi": 73,
      "time": 112,
      "duration": 3,
      "velocity": 0.71,
      "hand": "right"
    },
    {
      "midi": 75,
      "time": 112,
      "duration": 2.985,
      "velocity": 0.71,
      "hand": "right"
    },
    {
      "midi": 80,
      "time": 112,
      "duration": 2.985,
      "velocity": 0.71,
      "hand": "right"
    },
    {
      "midi": 56,
      "time": 115,
      "duration": 1.5,
      "velocity": 0.71,
      "hand": "left"
    },
    {
      "midi": 68,
      "time": 115,
      "duration": 1.485,
      "velocity": 0.71,
      "hand": "right"
    },
    {
      "midi": 72,
      "time": 115,
      "duration": 1.5,
      "velocity": 0.71,
      "hand": "right"
    },
    {
      "midi": 75,
      "time": 115,
      "duration": 1.5,
      "velocity": 0.71,
      "hand": "right"
    },
    {
      "midi": 80,
      "time": 115,
      "duration": 1.5,
      "velocity": 0.71,
      "hand": "right"
    },
    {
      "midi": 37,
      "time": 116.5,
      "duration": 1.5,
      "velocity": 0.71,
      "hand": "left"
    },
    {
      "midi": 65,
      "time": 116.5,
      "duration": 3,
      "velocity": 0.71,
      "hand": "right"
    },
    {
      "midi": 68,
      "time": 116.5,
      "duration": 2.985,
      "velocity": 0.71,
      "hand": "right"
    },
    {
      "midi": 44,
      "time": 116.75,
      "duration": 0.25,
      "velocity": 0.71,
      "hand": "left"
    },
    {
      "midi": 49,
      "time": 117,
      "duration": 0.25,
      "velocity": 0.71,
      "hand": "left"
    },
    {
      "midi": 53,
      "time": 117.25,
      "duration": 0.25,
      "velocity": 0.71,
      "hand": "left"
    },
    {
      "midi": 56,
      "time": 117.5,
      "duration": 0.25,
      "velocity": 0.71,
      "hand": "left"
    },
    {
      "midi": 61,
      "time": 117.75,
      "duration": 0.25,
      "velocity": 0.71,
      "hand": "right"
    },
    {
      "midi": 41,
      "time": 118,
      "duration": 1.5,
      "velocity": 0.71,
      "hand": "left"
    },
    {
      "midi": 48,
      "time": 118.25,
      "duration": 0.25,
      "velocity": 0.71,
      "hand": "left"
    },
    {
      "midi": 53,
      "time": 118.5,
      "duration": 0.25,
      "velocity": 0.71,
      "hand": "left"
    },
    {
      "midi": 56,
      "time": 118.75,
      "duration": 0.25,
      "velocity": 0.71,
      "hand": "left"
    },
    {
      "midi": 60,
      "time": 119,
      "duration": 0.25,
      "velocity": 0.71,
      "hand": "right"
    },
    {
      "midi": 44,
      "time": 119.5,
      "duration": 1.5,
      "velocity": 0.71,
      "hand": "left"
    },
    {
      "midi": 68,
      "time": 119.5,
      "duration": 1,
      "velocity": 0.71,
      "hand": "right"
    },
    {
      "midi": 71,
      "time": 119.5,
      "duration": 1,
      "velocity": 0.71,
      "hand": "right"
    },
    {
      "midi": 52,
      "time": 119.75,
      "duration": 0.25,
      "velocity": 0.71,
      "hand": "left"
    },
    {
      "midi": 56,
      "time": 120,
      "duration": 0.25,
      "velocity": 0.71,
      "hand": "left"
    },
    {
      "midi": 59,
      "time": 120.25,
      "duration": 0.25,
      "velocity": 0.71,
      "hand": "left"
    },
    {
      "midi": 64,
      "time": 120.5,
      "duration": 0.25,
      "velocity": 0.71,
      "hand": "right"
    },
    {
      "midi": 73,
      "time": 120.5,
      "duration": 0.5,
      "velocity": 0.71,
      "hand": "right"
    },
    {
      "midi": 68,
      "time": 120.75,
      "duration": 0.235,
      "velocity": 0.71,
      "hand": "right"
    },
    {
      "midi": 37,
      "time": 121,
      "duration": 1.5,
      "velocity": 0.71,
      "hand": "left"
    },
    {
      "midi": 65,
      "time": 121,
      "duration": 3,
      "velocity": 0.71,
      "hand": "right"
    },
    {
      "midi": 68,
      "time": 121,
      "duration": 2.985,
      "velocity": 0.71,
      "hand": "right"
    },
    {
      "midi": 44,
      "time": 121.25,
      "duration": 0.25,
      "velocity": 0.71,
      "hand": "left"
    },
    {
      "midi": 49,
      "time": 121.5,
      "duration": 0.25,
      "velocity": 0.71,
      "hand": "left"
    },
    {
      "midi": 53,
      "time": 121.75,
      "duration": 0.25,
      "velocity": 0.71,
      "hand": "left"
    },
    {
      "midi": 56,
      "time": 122,
      "duration": 0.25,
      "velocity": 0.71,
      "hand": "left"
    },
    {
      "midi": 61,
      "time": 122.25,
      "duration": 0.25,
      "velocity": 0.71,
      "hand": "right"
    },
    {
      "midi": 41,
      "time": 122.5,
      "duration": 1.5,
      "velocity": 0.71,
      "hand": "left"
    },
    {
      "midi": 48,
      "time": 122.75,
      "duration": 0.25,
      "velocity": 0.71,
      "hand": "left"
    },
    {
      "midi": 53,
      "time": 123,
      "duration": 0.25,
      "velocity": 0.71,
      "hand": "left"
    },
    {
      "midi": 56,
      "time": 123.25,
      "duration": 0.25,
      "velocity": 0.71,
      "hand": "left"
    },
    {
      "midi": 60,
      "time": 123.5,
      "duration": 0.25,
      "velocity": 0.71,
      "hand": "right"
    },
    {
      "midi": 44,
      "time": 124,
      "duration": 1.5,
      "velocity": 0.71,
      "hand": "left"
    },
    {
      "midi": 68,
      "time": 124,
      "duration": 0.985,
      "velocity": 0.71,
      "hand": "right"
    },
    {
      "midi": 71,
      "time": 124,
      "duration": 1,
      "velocity": 0.71,
      "hand": "right"
    },
    {
      "midi": 52,
      "time": 124.25,
      "duration": 0.25,
      "velocity": 0.71,
      "hand": "left"
    },
    {
      "midi": 56,
      "time": 124.5,
      "duration": 0.25,
      "velocity": 0.71,
      "hand": "left"
    },
    {
      "midi": 59,
      "time": 124.75,
      "duration": 0.25,
      "velocity": 0.71,
      "hand": "left"
    },
    {
      "midi": 68,
      "time": 125,
      "duration": 0.5,
      "velocity": 0.71,
      "hand": "right"
    },
    {
      "midi": 64,
      "time": 125.25,
      "duration": 0.25,
      "velocity": 0.71,
      "hand": "right"
    },
    {
      "midi": 37,
      "time": 125.5,
      "duration": 0.25,
      "velocity": 0.71,
      "hand": "left"
    },
    {
      "midi": 65,
      "time": 125.5,
      "duration": 1,
      "velocity": 0.71,
      "hand": "right"
    },
    {
      "midi": 73,
      "time": 125.5,
      "duration": 1,
      "velocity": 0.71,
      "hand": "right"
    },
    {
      "midi": 44,
      "time": 125.75,
      "duration": 0.25,
      "velocity": 0.71,
      "hand": "left"
    },
    {
      "midi": 49,
      "time": 126,
      "duration": 0.25,
      "velocity": 0.71,
      "hand": "left"
    },
    {
      "midi": 53,
      "time": 126.25,
      "duration": 0.25,
      "velocity": 0.71,
      "hand": "left"
    },
    {
      "midi": 56,
      "time": 126.5,
      "duration": 0.25,
      "velocity": 0.71,
      "hand": "left"
    },
    {
      "midi": 68,
      "time": 126.5,
      "duration": 0.5,
      "velocity": 0.71,
      "hand": "right"
    },
    {
      "midi": 75,
      "time": 126.5,
      "duration": 0.5,
      "velocity": 0.71,
      "hand": "right"
    },
    {
      "midi": 61,
      "time": 126.75,
      "duration": 0.25,
      "velocity": 0.71,
      "hand": "right"
    },
    {
      "midi": 65,
      "time": 127,
      "duration": 0.25,
      "velocity": 0.71,
      "hand": "right"
    },
    {
      "midi": 73,
      "time": 127,
      "duration": 1.485,
      "velocity": 0.71,
      "hand": "right"
    },
    {
      "midi": 77,
      "time": 127,
      "duration": 1.5,
      "velocity": 0.71,
      "hand": "right"
    },
    {
      "midi": 68,
      "time": 127.25,
      "duration": 0.25,
      "velocity": 0.71,
      "hand": "right"
    },
    {
      "midi": 65,
      "time": 127.5,
      "duration": 0.25,
      "velocity": 0.71,
      "hand": "right"
    },
    {
      "midi": 61,
      "time": 127.75,
      "duration": 0.25,
      "velocity": 0.71,
      "hand": "right"
    },
    {
      "midi": 56,
      "time": 128,
      "duration": 0.25,
      "velocity": 0.71,
      "hand": "left"
    },
    {
      "midi": 53,
      "time": 128.25,
      "duration": 0.25,
      "velocity": 0.71,
      "hand": "left"
    },
    {
      "midi": 56,
      "time": 128.5,
      "duration": 0.25,
      "velocity": 0.71,
      "hand": "left"
    },
    {
      "midi": 65,
      "time": 128.5,
      "duration": 1,
      "velocity": 0.71,
      "hand": "right"
    },
    {
      "midi": 73,
      "time": 128.5,
      "duration": 0.985,
      "velocity": 0.71,
      "hand": "right"
    },
    {
      "midi": 53,
      "time": 128.75,
      "duration": 0.25,
      "velocity": 0.71,
      "hand": "left"
    },
    {
      "midi": 49,
      "time": 129,
      "duration": 0.25,
      "velocity": 0.71,
      "hand": "left"
    },
    {
      "midi": 44,
      "time": 129.25,
      "duration": 0.25,
      "velocity": 0.71,
      "hand": "left"
    },
    {
      "midi": 49,
      "time": 129.5,
      "duration": 0.25,
      "velocity": 0.71,
      "hand": "left"
    },
    {
      "midi": 73,
      "time": 129.5,
      "duration": 0.5,
      "velocity": 0.71,
      "hand": "right"
    },
    {
      "midi": 77,
      "time": 129.5,
      "duration": 0.5,
      "velocity": 0.71,
      "hand": "right"
    },
    {
      "midi": 44,
      "time": 129.75,
      "duration": 0.25,
      "velocity": 0.71,
      "hand": "left"
    },
    {
      "midi": 39,
      "time": 130,
      "duration": 0.25,
      "velocity": 0.71,
      "hand": "left"
    },
    {
      "midi": 75,
      "time": 130,
      "duration": 0.5,
      "velocity": 0.71,
      "hand": "right"
    },
    {
      "midi": 79,
      "time": 130,
      "duration": 0.5,
      "velocity": 0.71,
      "hand": "right"
    },
    {
      "midi": 46,
      "time": 130.25,
      "duration": 0.25,
      "velocity": 0.71,
      "hand": "left"
    },
    {
      "midi": 51,
      "time": 130.5,
      "duration": 0.25,
      "velocity": 0.71,
      "hand": "left"
    },
    {
      "midi": 73,
      "time": 130.5,
      "duration": 0.485,
      "velocity": 0.71,
      "hand": "right"
    },
    {
      "midi": 77,
      "time": 130.5,
      "duration": 0.5,
      "velocity": 0.71,
      "hand": "right"
    },
    {
      "midi": 55,
      "time": 130.75,
      "duration": 0.25,
      "velocity": 0.71,
      "hand": "left"
    },
    {
      "midi": 58,
      "time": 131,
      "duration": 0.25,
      "velocity": 0.71,
      "hand": "left"
    },
    {
      "midi": 70,
      "time": 131,
      "duration": 0.485,
      "velocity": 0.71,
      "hand": "right"
    },
    {
      "midi": 73,
      "time": 131,
      "duration": 0.485,
      "velocity": 0.71,
      "hand": "right"
    },
    {
      "midi": 63,
      "time": 131.25,
      "duration": 0.25,
      "velocity": 0.71,
      "hand": "right"
    },
    {
      "midi": 67,
      "time": 131.5,
      "duration": 0.5,
      "velocity": 0.71,
      "hand": "right"
    },
    {
      "midi": 70,
      "time": 131.5,
      "duration": 1.5,
      "velocity": 0.71,
      "hand": "right"
    },
    {
      "midi": 73,
      "time": 131.5,
      "duration": 1.5,
      "velocity": 0.71,
      "hand": "right"
    },
    {
      "midi": 63,
      "time": 131.75,
      "duration": 0.25,
      "velocity": 0.71,
      "hand": "right"
    },
    {
      "midi": 58,
      "time": 132,
      "duration": 0.25,
      "velocity": 0.71,
      "hand": "left"
    },
    {
      "midi": 65,
      "time": 132,
      "duration": 0.5,
      "velocity": 0.71,
      "hand": "right"
    },
    {
      "midi": 55,
      "time": 132.25,
      "duration": 0.25,
      "velocity": 0.71,
      "hand": "left"
    },
    {
      "midi": 51,
      "time": 132.5,
      "duration": 0.25,
      "velocity": 0.71,
      "hand": "left"
    },
    {
      "midi": 61,
      "time": 132.5,
      "duration": 0.485,
      "velocity": 0.71,
      "hand": "right"
    },
    {
      "midi": 46,
      "time": 132.75,
      "duration": 0.25,
      "velocity": 0.71,
      "hand": "left"
    },
    {
      "midi": 39,
      "time": 133,
      "duration": 0.25,
      "velocity": 0.71,
      "hand": "left"
    },
    {
      "midi": 61,
      "time": 133,
      "duration": 0.75,
      "velocity": 0.71,
      "hand": "right"
    },
    {
      "midi": 46,
      "time": 133.25,
      "duration": 0.25,
      "velocity": 0.71,
      "hand": "left"
    },
    {
      "midi": 51,
      "time": 133.5,
      "duration": 0.25,
      "velocity": 0.71,
      "hand": "left"
    },
    {
      "midi": 55,
      "time": 133.75,
      "duration": 0.25,
      "velocity": 0.71,
      "hand": "left"
    },
    {
      "midi": 58,
      "time": 133.75,
      "duration": 0.75,
      "velocity": 0.71,
      "hand": "left"
    },
    {
      "midi": 51,
      "time": 134,
      "duration": 0.25,
      "velocity": 0.71,
      "hand": "left"
    },
    {
      "midi": 46,
      "time": 134.25,
      "duration": 0.25,
      "velocity": 0.71,
      "hand": "left"
    },
    {
      "midi": 44,
      "time": 134.5,
      "duration": 1.5,
      "velocity": 0.71,
      "hand": "left"
    },
    {
      "midi": 70,
      "time": 134.5,
      "duration": 3,
      "velocity": 0.71,
      "hand": "right"
    },
    {
      "midi": 51,
      "time": 134.75,
      "duration": 0.25,
      "velocity": 0.71,
      "hand": "left"
    },
    {
      "midi": 54,
      "time": 135,
      "duration": 0.25,
      "velocity": 0.71,
      "hand": "left"
    },
    {
      "midi": 58,
      "time": 135.25,
      "duration": 0.25,
      "velocity": 0.71,
      "hand": "left"
    },
    {
      "midi": 60,
      "time": 135.5,
      "duration": 0.25,
      "velocity": 0.71,
      "hand": "right"
    },
    {
      "midi": 66,
      "time": 135.75,
      "duration": 0.25,
      "velocity": 0.71,
      "hand": "right"
    },
    {
      "midi": 42,
      "time": 136,
      "duration": 1.5,
      "velocity": 0.71,
      "hand": "left"
    },
    {
      "midi": 49,
      "time": 136.25,
      "duration": 0.25,
      "velocity": 0.71,
      "hand": "left"
    },
    {
      "midi": 54,
      "time": 136.5,
      "duration": 0.25,
      "velocity": 0.71,
      "hand": "left"
    },
    {
      "midi": 58,
      "time": 136.75,
      "duration": 0.25,
      "velocity": 0.71,
      "hand": "left"
    },
    {
      "midi": 61,
      "time": 137,
      "duration": 0.25,
      "velocity": 0.71,
      "hand": "right"
    },
    {
      "midi": 66,
      "time": 137.25,
      "duration": 0.25,
      "velocity": 0.71,
      "hand": "right"
    },
    {
      "midi": 41,
      "time": 137.5,
      "duration": 1.5,
      "velocity": 0.71,
      "hand": "left"
    },
    {
      "midi": 72,
      "time": 137.5,
      "duration": 1,
      "velocity": 0.71,
      "hand": "right"
    },
    {
      "midi": 48,
      "time": 137.75,
      "duration": 0.25,
      "velocity": 0.71,
      "hand": "left"
    },
    {
      "midi": 53,
      "time": 138,
      "duration": 0.25,
      "velocity": 0.71,
      "hand": "left"
    },
    {
      "midi": 56,
      "time": 138.25,
      "duration": 0.25,
      "velocity": 0.71,
      "hand": "left"
    },
    {
      "midi": 60,
      "time": 138.5,
      "duration": 0.5,
      "velocity": 0.71,
      "hand": "right"
    },
    {
      "midi": 68,
      "time": 138.5,
      "duration": 0.25,
      "velocity": 0.71,
      "hand": "right"
    },
    {
      "midi": 77,
      "time": 138.5,
      "duration": 0.5,
      "velocity": 0.71,
      "hand": "right"
    },
    {
      "midi": 65,
      "time": 138.75,
      "duration": 0.25,
      "velocity": 0.71,
      "hand": "right"
    },
    {
      "midi": 44,
      "time": 139,
      "duration": 1.5,
      "velocity": 0.71,
      "hand": "left"
    },
    {
      "midi": 70,
      "time": 139,
      "duration": 3,
      "velocity": 0.71,
      "hand": "right"
    },
    {
      "midi": 51,
      "time": 139.25,
      "duration": 0.25,
      "velocity": 0.71,
      "hand": "left"
    },
    {
      "midi": 54,
      "time": 139.5,
      "duration": 0.25,
      "velocity": 0.71,
      "hand": "left"
    },
    {
      "midi": 58,
      "time": 139.75,
      "duration": 0.25,
      "velocity": 0.71,
      "hand": "left"
    },
    {
      "midi": 60,
      "time": 140,
      "duration": 0.25,
      "velocity": 0.71,
      "hand": "right"
    },
    {
      "midi": 66,
      "time": 140.25,
      "duration": 0.25,
      "velocity": 0.71,
      "hand": "right"
    },
    {
      "midi": 42,
      "time": 140.5,
      "duration": 1.5,
      "velocity": 0.71,
      "hand": "left"
    },
    {
      "midi": 49,
      "time": 140.75,
      "duration": 0.25,
      "velocity": 0.71,
      "hand": "left"
    },
    {
      "midi": 54,
      "time": 141,
      "duration": 0.25,
      "velocity": 0.71,
      "hand": "left"
    },
    {
      "midi": 58,
      "time": 141.25,
      "duration": 0.25,
      "velocity": 0.71,
      "hand": "left"
    },
    {
      "midi": 61,
      "time": 141.5,
      "duration": 0.25,
      "velocity": 0.71,
      "hand": "right"
    },
    {
      "midi": 66,
      "time": 141.75,
      "duration": 0.25,
      "velocity": 0.71,
      "hand": "right"
    },
    {
      "midi": 41,
      "time": 142,
      "duration": 1.5,
      "velocity": 0.71,
      "hand": "left"
    },
    {
      "midi": 72,
      "time": 142,
      "duration": 1,
      "velocity": 0.71,
      "hand": "right"
    },
    {
      "midi": 48,
      "time": 142.25,
      "duration": 0.25,
      "velocity": 0.71,
      "hand": "left"
    },
    {
      "midi": 53,
      "time": 142.5,
      "duration": 0.25,
      "velocity": 0.71,
      "hand": "left"
    },
    {
      "midi": 56,
      "time": 142.75,
      "duration": 0.25,
      "velocity": 0.71,
      "hand": "left"
    },
    {
      "midi": 60,
      "time": 143,
      "duration": 0.5,
      "velocity": 0.71,
      "hand": "right"
    },
    {
      "midi": 68,
      "time": 143,
      "duration": 0.25,
      "velocity": 0.71,
      "hand": "right"
    },
    {
      "midi": 77,
      "time": 143,
      "duration": 0.5,
      "velocity": 0.71,
      "hand": "right"
    },
    {
      "midi": 65,
      "time": 143.25,
      "duration": 0.25,
      "velocity": 0.71,
      "hand": "right"
    },
    {
      "midi": 39,
      "time": 143.5,
      "duration": 1.5,
      "velocity": 0.71,
      "hand": "left"
    },
    {
      "midi": 78,
      "time": 143.5,
      "duration": 2.25,
      "velocity": 0.71,
      "hand": "right"
    },
    {
      "midi": 46,
      "time": 143.75,
      "duration": 0.25,
      "velocity": 0.71,
      "hand": "left"
    },
    {
      "midi": 51,
      "time": 144,
      "duration": 0.25,
      "velocity": 0.71,
      "hand": "left"
    },
    {
      "midi": 54,
      "time": 144.25,
      "duration": 0.25,
      "velocity": 0.71,
      "hand": "left"
    },
    {
      "midi": 58,
      "time": 144.5,
      "duration": 0.25,
      "velocity": 0.71,
      "hand": "left"
    },
    {
      "midi": 63,
      "time": 144.75,
      "duration": 0.25,
      "velocity": 0.71,
      "hand": "right"
    },
    {
      "midi": 66,
      "time": 145,
      "duration": 0.235,
      "velocity": 0.71,
      "hand": "right"
    },
    {
      "midi": 66,
      "time": 145.25,
      "duration": 0.25,
      "velocity": 0.71,
      "hand": "right"
    },
    {
      "midi": 70,
      "time": 145.5,
      "duration": 0.25,
      "velocity": 0.71,
      "hand": "right"
    },
    {
      "midi": 65,
      "time": 145.75,
      "duration": 0.75,
      "velocity": 0.71,
      "hand": "right"
    },
    {
      "midi": 77,
      "time": 145.75,
      "duration": 0.75,
      "velocity": 0.71,
      "hand": "right"
    },
    {
      "midi": 66,
      "time": 146,
      "duration": 0.25,
      "velocity": 0.71,
      "hand": "right"
    },
    {
      "midi": 70,
      "time": 146.25,
      "duration": 0.25,
      "velocity": 0.71,
      "hand": "right"
    },
    {
      "midi": 62,
      "time": 146.5,
      "duration": 0.75,
      "velocity": 0.71,
      "hand": "right"
    },
    {
      "midi": 74,
      "time": 146.5,
      "duration": 0.75,
      "velocity": 0.71,
      "hand": "right"
    },
    {
      "midi": 66,
      "time": 146.75,
      "duration": 0.25,
      "velocity": 0.71,
      "hand": "right"
    },
    {
      "midi": 70,
      "time": 147,
      "duration": 0.25,
      "velocity": 0.71,
      "hand": "right"
    },
    {
      "midi": 63,
      "time": 147.25,
      "duration": 0.75,
      "velocity": 0.71,
      "hand": "right"
    },
    {
      "midi": 75,
      "time": 147.25,
      "duration": 0.75,
      "velocity": 0.71,
      "hand": "right"
    },
    {
      "midi": 66,
      "time": 147.5,
      "duration": 0.25,
      "velocity": 0.71,
      "hand": "right"
    },
    {
      "midi": 70,
      "time": 147.75,
      "duration": 0.25,
      "velocity": 0.71,
      "hand": "right"
    },
    {
      "midi": 62,
      "time": 148,
      "duration": 1.5,
      "velocity": 0.71,
      "hand": "right"
    },
    {
      "midi": 82,
      "time": 148,
      "duration": 3,
      "velocity": 0.71,
      "hand": "right"
    },
    {
      "midi": 66,
      "time": 148.25,
      "duration": 0.25,
      "velocity": 0.71,
      "hand": "right"
    },
    {
      "midi": 70,
      "time": 148.5,
      "duration": 0.235,
      "velocity": 0.71,
      "hand": "right"
    },
    {
      "midi": 70,
      "time": 148.75,
      "duration": 0.25,
      "velocity": 0.71,
      "hand": "right"
    },
    {
      "midi": 78,
      "time": 149,
      "duration": 0.25,
      "velocity": 0.71,
      "hand": "right"
    },
    {
      "midi": 63,
      "time": 149.5,
      "duration": 1.5,
      "velocity": 0.71,
      "hand": "right"
    },
    {
      "midi": 66,
      "time": 149.75,
      "duration": 0.25,
      "velocity": 0.71,
      "hand": "right"
    },
    {
      "midi": 70,
      "time": 150,
      "duration": 0.235,
      "velocity": 0.71,
      "hand": "right"
    },
    {
      "midi": 70,
      "time": 150.25,
      "duration": 0.25,
      "velocity": 0.71,
      "hand": "right"
    },
    {
      "midi": 78,
      "time": 150.5,
      "duration": 0.25,
      "velocity": 0.71,
      "hand": "right"
    },
    {
      "midi": 56,
      "time": 151,
      "duration": 1.5,
      "velocity": 0.71,
      "hand": "left"
    },
    {
      "midi": 60,
      "time": 151,
      "duration": 0.25,
      "velocity": 0.71,
      "hand": "right"
    },
    {
      "midi": 80,
      "time": 151,
      "duration": 1.485,
      "velocity": 0.71,
      "hand": "right"
    },
    {
      "midi": 64,
      "time": 151.25,
      "duration": 0.25,
      "velocity": 0.71,
      "hand": "right"
    },
    {
      "midi": 68,
      "time": 151.5,
      "duration": 0.25,
      "velocity": 0.71,
      "hand": "right"
    },
    {
      "midi": 72,
      "time": 151.75,
      "duration": 0.25,
      "velocity": 0.71,
      "hand": "right"
    },
    {
      "midi": 76,
      "time": 152,
      "duration": 0.25,
      "velocity": 0.71,
      "hand": "right"
    },
    {
      "midi": 49,
      "time": 152.5,
      "duration": 1.5,
      "velocity": 0.71,
      "hand": "left"
    },
    {
      "midi": 77,
      "time": 152.5,
      "duration": 3,
      "velocity": 0.71,
      "hand": "right"
    },
    {
      "midi": 80,
      "time": 152.5,
      "duration": 2.985,
      "velocity": 0.71,
      "hand": "right"
    },
    {
      "midi": 56,
      "time": 152.75,
      "duration": 0.25,
      "velocity": 0.71,
      "hand": "left"
    },
    {
      "midi": 61,
      "time": 153,
      "duration": 0.25,
      "velocity": 0.71,
      "hand": "right"
    },
    {
      "midi": 65,
      "time": 153.25,
      "duration": 0.25,
      "velocity": 0.71,
      "hand": "right"
    },
    {
      "midi": 68,
      "time": 153.5,
      "duration": 0.25,
      "velocity": 0.71,
      "hand": "right"
    },
    {
      "midi": 73,
      "time": 153.75,
      "duration": 0.25,
      "velocity": 0.71,
      "hand": "right"
    },
    {
      "midi": 53,
      "time": 154,
      "duration": 1.5,
      "velocity": 0.71,
      "hand": "left"
    },
    {
      "midi": 56,
      "time": 154,
      "duration": 0.25,
      "velocity": 0.71,
      "hand": "left"
    },
    {
      "midi": 60,
      "time": 154.25,
      "duration": 0.25,
      "velocity": 0.71,
      "hand": "right"
    },
    {
      "midi": 65,
      "time": 154.5,
      "duration": 0.25,
      "velocity": 0.71,
      "hand": "right"
    },
    {
      "midi": 68,
      "time": 154.75,
      "duration": 0.25,
      "velocity": 0.71,
      "hand": "right"
    },
    {
      "midi": 72,
      "time": 155,
      "duration": 0.25,
      "velocity": 0.71,
      "hand": "right"
    },
    {
      "midi": 56,
      "time": 155.5,
      "duration": 1.5,
      "velocity": 0.71,
      "hand": "left"
    },
    {
      "midi": 59,
      "time": 155.5,
      "duration": 0.25,
      "velocity": 0.71,
      "hand": "left"
    },
    {
      "midi": 80,
      "time": 155.5,
      "duration": 1,
      "velocity": 0.71,
      "hand": "right"
    },
    {
      "midi": 83,
      "time": 155.5,
      "duration": 1,
      "velocity": 0.71,
      "hand": "right"
    },
    {
      "midi": 64,
      "time": 155.75,
      "duration": 0.25,
      "velocity": 0.71,
      "hand": "right"
    },
    {
      "midi": 68,
      "time": 156,
      "duration": 0.25,
      "velocity": 0.71,
      "hand": "right"
    },
    {
      "midi": 71,
      "time": 156.25,
      "duration": 0.25,
      "velocity": 0.71,
      "hand": "right"
    },
    {
      "midi": 73,
      "time": 156.5,
      "duration": 0.5,
      "velocity": 0.71,
      "hand": "right"
    },
    {
      "midi": 76,
      "time": 156.5,
      "duration": 0.25,
      "velocity": 0.71,
      "hand": "right"
    },
    {
      "midi": 80,
      "time": 156.75,
      "duration": 0.235,
      "velocity": 0.71,
      "hand": "right"
    },
    {
      "midi": 49,
      "time": 157,
      "duration": 1.5,
      "velocity": 0.71,
      "hand": "left"
    },
    {
      "midi": 77,
      "time": 157,
      "duration": 3,
      "velocity": 0.71,
      "hand": "right"
    },
    {
      "midi": 80,
      "time": 157,
      "duration": 2.985,
      "velocity": 0.71,
      "hand": "right"
    },
    {
      "midi": 56,
      "time": 157.25,
      "duration": 0.25,
      "velocity": 0.71,
      "hand": "left"
    },
    {
      "midi": 61,
      "time": 157.5,
      "duration": 0.25,
      "velocity": 0.71,
      "hand": "right"
    },
    {
      "midi": 65,
      "time": 157.75,
      "duration": 0.25,
      "velocity": 0.71,
      "hand": "right"
    },
    {
      "midi": 68,
      "time": 158,
      "duration": 0.25,
      "velocity": 0.71,
      "hand": "right"
    },
    {
      "midi": 73,
      "time": 158.25,
      "duration": 0.25,
      "velocity": 0.71,
      "hand": "right"
    },
    {
      "midi": 53,
      "time": 158.5,
      "duration": 1.5,
      "velocity": 0.71,
      "hand": "left"
    },
    {
      "midi": 56,
      "time": 158.5,
      "duration": 0.25,
      "velocity": 0.71,
      "hand": "left"
    },
    {
      "midi": 60,
      "time": 158.75,
      "duration": 0.25,
      "velocity": 0.71,
      "hand": "right"
    },
    {
      "midi": 65,
      "time": 159,
      "duration": 0.25,
      "velocity": 0.71,
      "hand": "right"
    },
    {
      "midi": 68,
      "time": 159.25,
      "duration": 0.25,
      "velocity": 0.71,
      "hand": "right"
    },
    {
      "midi": 72,
      "time": 159.5,
      "duration": 0.25,
      "velocity": 0.71,
      "hand": "right"
    },
    {
      "midi": 56,
      "time": 160,
      "duration": 1.5,
      "velocity": 0.71,
      "hand": "left"
    },
    {
      "midi": 59,
      "time": 160,
      "duration": 0.25,
      "velocity": 0.71,
      "hand": "left"
    },
    {
      "midi": 80,
      "time": 160,
      "duration": 0.985,
      "velocity": 0.71,
      "hand": "right"
    },
    {
      "midi": 83,
      "time": 160,
      "duration": 1,
      "velocity": 0.71,
      "hand": "right"
    },
    {
      "midi": 64,
      "time": 160.25,
      "duration": 0.25,
      "velocity": 0.71,
      "hand": "right"
    },
    {
      "midi": 68,
      "time": 160.5,
      "duration": 0.25,
      "velocity": 0.71,
      "hand": "right"
    },
    {
      "midi": 71,
      "time": 160.75,
      "duration": 0.25,
      "velocity": 0.71,
      "hand": "right"
    },
    {
      "midi": 80,
      "time": 161,
      "duration": 0.5,
      "velocity": 0.71,
      "hand": "right"
    },
    {
      "midi": 76,
      "time": 161.25,
      "duration": 0.25,
      "velocity": 0.71,
      "hand": "right"
    },
    {
      "midi": 59,
      "time": 161.5,
      "duration": 1.5,
      "velocity": 0.71,
      "hand": "left"
    },
    {
      "midi": 61,
      "time": 161.5,
      "duration": 0.25,
      "velocity": 0.71,
      "hand": "right"
    },
    {
      "midi": 73,
      "time": 161.5,
      "duration": 0.735,
      "velocity": 0.71,
      "hand": "right"
    },
    {
      "midi": 64,
      "time": 161.75,
      "duration": 0.25,
      "velocity": 0.71,
      "hand": "right"
    },
    {
      "midi": 68,
      "time": 162,
      "duration": 0.25,
      "velocity": 0.71,
      "hand": "right"
    },
    {
      "midi": 71,
      "time": 162.25,
      "duration": 0.75,
      "velocity": 0.71,
      "hand": "right"
    },
    {
      "midi": 73,
      "time": 162.25,
      "duration": 0.25,
      "velocity": 0.71,
      "hand": "right"
    },
    {
      "midi": 80,
      "time": 162.5,
      "duration": 0.5,
      "velocity": 0.71,
      "hand": "right"
    },
    {
      "midi": 76,
      "time": 162.75,
      "duration": 0.235,
      "velocity": 0.71,
      "hand": "right"
    },
    {
      "midi": 61,
      "time": 163,
      "duration": 1.5,
      "velocity": 0.71,
      "hand": "right"
    },
    {
      "midi": 64,
      "time": 163,
      "duration": 0.25,
      "velocity": 0.71,
      "hand": "right"
    },
    {
      "midi": 76,
      "time": 163,
      "duration": 0.735,
      "velocity": 0.71,
      "hand": "right"
    },
    {
      "midi": 68,
      "time": 163.25,
      "duration": 0.25,
      "velocity": 0.71,
      "hand": "right"
    },
    {
      "midi": 71,
      "time": 163.5,
      "duration": 0.25,
      "velocity": 0.71,
      "hand": "right"
    },
    {
      "midi": 73,
      "time": 163.75,
      "duration": 0.235,
      "velocity": 0.71,
      "hand": "right"
    },
    {
      "midi": 76,
      "time": 163.75,
      "duration": 0.25,
      "velocity": 0.71,
      "hand": "right"
    },
    {
      "midi": 73,
      "time": 164,
      "duration": 0.5,
      "velocity": 0.71,
      "hand": "right"
    },
    {
      "midi": 80,
      "time": 164.25,
      "duration": 0.235,
      "velocity": 0.71,
      "hand": "right"
    },
    {
      "midi": 64,
      "time": 164.5,
      "duration": 1.5,
      "velocity": 0.71,
      "hand": "right"
    },
    {
      "midi": 68,
      "time": 164.5,
      "duration": 0.25,
      "velocity": 0.71,
      "hand": "right"
    },
    {
      "midi": 80,
      "time": 164.5,
      "duration": 0.735,
      "velocity": 0.71,
      "hand": "right"
    },
    {
      "midi": 71,
      "time": 164.75,
      "duration": 0.25,
      "velocity": 0.71,
      "hand": "right"
    },
    {
      "midi": 73,
      "time": 165,
      "duration": 0.25,
      "velocity": 0.71,
      "hand": "right"
    },
    {
      "midi": 76,
      "time": 165.25,
      "duration": 0.235,
      "velocity": 0.71,
      "hand": "right"
    },
    {
      "midi": 80,
      "time": 165.25,
      "duration": 0.25,
      "velocity": 0.71,
      "hand": "right"
    },
    {
      "midi": 76,
      "time": 165.5,
      "duration": 0.5,
      "velocity": 0.71,
      "hand": "right"
    },
    {
      "midi": 83,
      "time": 165.75,
      "duration": 0.25,
      "velocity": 0.71,
      "hand": "right"
    },
    {
      "midi": 68,
      "time": 166,
      "duration": 1.5,
      "velocity": 0.71,
      "hand": "right"
    },
    {
      "midi": 80,
      "time": 166,
      "duration": 0.735,
      "velocity": 0.71,
      "hand": "right"
    },
    {
      "midi": 69,
      "time": 166.25,
      "duration": 0.25,
      "velocity": 0.71,
      "hand": "right"
    },
    {
      "midi": 73,
      "time": 166.5,
      "duration": 0.25,
      "velocity": 0.71,
      "hand": "right"
    },
    {
      "midi": 80,
      "time": 166.75,
      "duration": 0.25,
      "velocity": 0.71,
      "hand": "right"
    },
    {
      "midi": 73,
      "time": 167,
      "duration": 0.25,
      "velocity": 0.71,
      "hand": "right"
    },
    {
      "midi": 81,
      "time": 167.25,
      "duration": 0.25,
      "velocity": 0.71,
      "hand": "right"
    },
    {
      "midi": 66,
      "time": 167.5,
      "duration": 1.485,
      "velocity": 0.71,
      "hand": "right"
    },
    {
      "midi": 78,
      "time": 167.5,
      "duration": 0.735,
      "velocity": 0.71,
      "hand": "right"
    },
    {
      "midi": 69,
      "time": 167.75,
      "duration": 0.25,
      "velocity": 0.71,
      "hand": "right"
    },
    {
      "midi": 73,
      "time": 168,
      "duration": 0.25,
      "velocity": 0.71,
      "hand": "right"
    },
    {
      "midi": 78,
      "time": 168.25,
      "duration": 0.25,
      "velocity": 0.71,
      "hand": "right"
    },
    {
      "midi": 73,
      "time": 168.5,
      "duration": 0.25,
      "velocity": 0.71,
      "hand": "right"
    },
    {
      "midi": 81,
      "time": 168.75,
      "duration": 0.25,
      "velocity": 0.71,
      "hand": "right"
    },
    {
      "midi": 66,
      "time": 169,
      "duration": 0.25,
      "velocity": 0.71,
      "hand": "right"
    },
    {
      "midi": 69,
      "time": 169.25,
      "duration": 0.25,
      "velocity": 0.71,
      "hand": "right"
    },
    {
      "midi": 73,
      "time": 169.5,
      "duration": 0.25,
      "velocity": 0.71,
      "hand": "right"
    },
    {
      "midi": 78,
      "time": 169.75,
      "duration": 0.25,
      "velocity": 0.71,
      "hand": "right"
    },
    {
      "midi": 73,
      "time": 170,
      "duration": 0.25,
      "velocity": 0.71,
      "hand": "right"
    },
    {
      "midi": 81,
      "time": 170.25,
      "duration": 0.25,
      "velocity": 0.71,
      "hand": "right"
    },
    {
      "midi": 64,
      "time": 170.5,
      "duration": 1.5,
      "velocity": 0.71,
      "hand": "right"
    },
    {
      "midi": 66,
      "time": 170.5,
      "duration": 0.25,
      "velocity": 0.71,
      "hand": "right"
    },
    {
      "midi": 78,
      "time": 170.5,
      "duration": 0.735,
      "velocity": 0.71,
      "hand": "right"
    },
    {
      "midi": 69,
      "time": 170.75,
      "duration": 0.25,
      "velocity": 0.71,
      "hand": "right"
    },
    {
      "midi": 73,
      "time": 171,
      "duration": 0.25,
      "velocity": 0.71,
      "hand": "right"
    },
    {
      "midi": 78,
      "time": 171.25,
      "duration": 0.25,
      "velocity": 0.71,
      "hand": "right"
    },
    {
      "midi": 73,
      "time": 171.5,
      "duration": 0.25,
      "velocity": 0.71,
      "hand": "right"
    },
    {
      "midi": 81,
      "time": 171.75,
      "duration": 0.25,
      "velocity": 0.71,
      "hand": "right"
    },
    {
      "midi": 63,
      "time": 172,
      "duration": 1.5,
      "velocity": 0.71,
      "hand": "right"
    },
    {
      "midi": 66,
      "time": 172,
      "duration": 0.25,
      "velocity": 0.71,
      "hand": "right"
    },
    {
      "midi": 69,
      "time": 172.25,
      "duration": 0.25,
      "velocity": 0.71,
      "hand": "right"
    },
    {
      "midi": 73,
      "time": 172.5,
      "duration": 0.25,
      "velocity": 0.71,
      "hand": "right"
    },
    {
      "midi": 78,
      "time": 172.75,
      "duration": 0.25,
      "velocity": 0.71,
      "hand": "right"
    },
    {
      "midi": 73,
      "time": 173,
      "duration": 0.25,
      "velocity": 0.71,
      "hand": "right"
    },
    {
      "midi": 81,
      "time": 173.25,
      "duration": 0.235,
      "velocity": 0.71,
      "hand": "right"
    },
    {
      "midi": 61,
      "time": 173.5,
      "duration": 1.5,
      "velocity": 0.71,
      "hand": "right"
    },
    {
      "midi": 64,
      "time": 173.5,
      "duration": 0.25,
      "velocity": 0.71,
      "hand": "right"
    },
    {
      "midi": 81,
      "time": 173.5,
      "duration": 1,
      "velocity": 0.71,
      "hand": "right"
    },
    {
      "midi": 69,
      "time": 173.75,
      "duration": 0.25,
      "velocity": 0.71,
      "hand": "right"
    },
    {
      "midi": 73,
      "time": 174,
      "duration": 0.25,
      "velocity": 0.71,
      "hand": "right"
    },
    {
      "midi": 76,
      "time": 174.25,
      "duration": 0.25,
      "velocity": 0.71,
      "hand": "right"
    },
    {
      "midi": 73,
      "time": 174.5,
      "duration": 0.235,
      "velocity": 0.71,
      "hand": "right"
    },
    {
      "midi": 73,
      "time": 174.75,
      "duration": 0.25,
      "velocity": 0.71,
      "hand": "right"
    },
    {
      "midi": 59,
      "time": 175,
      "duration": 1.5,
      "velocity": 0.71,
      "hand": "left"
    },
    {
      "midi": 78,
      "time": 175,
      "duration": 3,
      "velocity": 0.71,
      "hand": "right"
    },
    {
      "midi": 63,
      "time": 175.25,
      "duration": 0.25,
      "velocity": 0.71,
      "hand": "right"
    },
    {
      "midi": 66,
      "time": 175.5,
      "duration": 0.235,
      "velocity": 0.71,
      "hand": "right"
    },
    {
      "midi": 66,
      "time": 175.75,
      "duration": 0.25,
      "velocity": 0.71,
      "hand": "right"
    },
    {
      "midi": 73,
      "time": 176,
      "duration": 0.25,
      "velocity": 0.71,
      "hand": "right"
    },
    {
      "midi": 69,
      "time": 176.25,
      "duration": 0.25,
      "velocity": 0.71,
      "hand": "right"
    },
    {
      "midi": 57,
      "time": 176.5,
      "duration": 1.5,
      "velocity": 0.71,
      "hand": "left"
    },
    {
      "midi": 61,
      "time": 176.75,
      "duration": 0.25,
      "velocity": 0.71,
      "hand": "right"
    },
    {
      "midi": 64,
      "time": 177,
      "duration": 0.25,
      "velocity": 0.71,
      "hand": "right"
    },
    {
      "midi": 66,
      "time": 177.25,
      "duration": 0.25,
      "velocity": 0.71,
      "hand": "right"
    },
    {
      "midi": 73,
      "time": 177.5,
      "duration": 0.25,
      "velocity": 0.71,
      "hand": "right"
    },
    {
      "midi": 69,
      "time": 177.75,
      "duration": 0.25,
      "velocity": 0.71,
      "hand": "right"
    },
    {
      "midi": 56,
      "time": 178,
      "duration": 1.5,
      "velocity": 0.71,
      "hand": "left"
    },
    {
      "midi": 81,
      "time": 178,
      "duration": 1,
      "velocity": 0.71,
      "hand": "right"
    },
    {
      "midi": 61,
      "time": 178.25,
      "duration": 0.25,
      "velocity": 0.71,
      "hand": "right"
    },
    {
      "midi": 64,
      "time": 178.5,
      "duration": 0.25,
      "velocity": 0.71,
      "hand": "right"
    },
    {
      "midi": 69,
      "time": 178.75,
      "duration": 0.25,
      "velocity": 0.71,
      "hand": "right"
    },
    {
      "midi": 73,
      "time": 179,
      "duration": 0.485,
      "velocity": 0.71,
      "hand": "right"
    },
    {
      "midi": 76,
      "time": 179,
      "duration": 0.25,
      "velocity": 0.71,
      "hand": "right"
    },
    {
      "midi": 81,
      "time": 179.25,
      "duration": 0.25,
      "velocity": 0.71,
      "hand": "right"
    },
    {
      "midi": 54,
      "time": 179.5,
      "duration": 4.5,
      "velocity": 0.71,
      "hand": "left"
    },
    {
      "midi": 73,
      "time": 179.5,
      "duration": 0.5,
      "velocity": 0.71,
      "hand": "right"
    },
    {
      "midi": 76,
      "time": 179.5,
      "duration": 0.5,
      "velocity": 0.71,
      "hand": "right"
    },
    {
      "midi": 61,
      "time": 179.75,
      "duration": 0.25,
      "velocity": 0.71,
      "hand": "right"
    },
    {
      "midi": 64,
      "time": 180,
      "duration": 0.25,
      "velocity": 0.71,
      "hand": "right"
    },
    {
      "midi": 75,
      "time": 180,
      "duration": 0.5,
      "velocity": 0.71,
      "hand": "right"
    },
    {
      "midi": 83,
      "time": 180,
      "duration": 0.5,
      "velocity": 0.71,
      "hand": "right"
    },
    {
      "midi": 66,
      "time": 180.25,
      "duration": 0.25,
      "velocity": 0.71,
      "hand": "right"
    },
    {
      "midi": 69,
      "time": 180.5,
      "duration": 0.25,
      "velocity": 0.71,
      "hand": "right"
    },
    {
      "midi": 73,
      "time": 180.5,
      "duration": 0.235,
      "velocity": 0.71,
      "hand": "right"
    },
    {
      "midi": 81,
      "time": 180.5,
      "duration": 0.5,
      "velocity": 0.71,
      "hand": "right"
    },
    {
      "midi": 73,
      "time": 180.75,
      "duration": 0.25,
      "velocity": 0.71,
      "hand": "right"
    },
    {
      "midi": 76,
      "time": 181,
      "duration": 0.25,
      "velocity": 0.71,
      "hand": "right"
    },
    {
      "midi": 80,
      "time": 181,
      "duration": 0.75,
      "velocity": 0.71,
      "hand": "right"
    },
    {
      "midi": 83,
      "time": 181,
      "duration": 0.75,
      "velocity": 0.71,
      "hand": "right"
    },
    {
      "midi": 78,
      "time": 181.25,
      "duration": 0.25,
      "velocity": 0.71,
      "hand": "right"
    },
    {
      "midi": 76,
      "time": 181.5,
      "duration": 0.25,
      "velocity": 0.71,
      "hand": "right"
    },
    {
      "midi": 73,
      "time": 181.75,
      "duration": 0.25,
      "velocity": 0.71,
      "hand": "right"
    },
    {
      "midi": 78,
      "time": 181.75,
      "duration": 1.25,
      "velocity": 0.71,
      "hand": "right"
    },
    {
      "midi": 81,
      "time": 181.75,
      "duration": 1.25,
      "velocity": 0.71,
      "hand": "right"
    },
    {
      "midi": 69,
      "time": 182,
      "duration": 0.25,
      "velocity": 0.71,
      "hand": "right"
    },
    {
      "midi": 66,
      "time": 182.25,
      "duration": 0.25,
      "velocity": 0.71,
      "hand": "right"
    },
    {
      "midi": 64,
      "time": 182.5,
      "duration": 0.25,
      "velocity": 0.71,
      "hand": "right"
    },
    {
      "midi": 66,
      "time": 182.75,
      "duration": 0.25,
      "velocity": 0.71,
      "hand": "right"
    },
    {
      "midi": 64,
      "time": 183,
      "duration": 0.25,
      "velocity": 0.71,
      "hand": "right"
    },
    {
      "midi": 76,
      "time": 183,
      "duration": 0.5,
      "velocity": 0.71,
      "hand": "right"
    },
    {
      "midi": 80,
      "time": 183,
      "duration": 0.5,
      "velocity": 0.71,
      "hand": "right"
    },
    {
      "midi": 61,
      "time": 183.25,
      "duration": 0.25,
      "velocity": 0.71,
      "hand": "right"
    },
    {
      "midi": 57,
      "time": 183.5,
      "duration": 0.25,
      "velocity": 0.71,
      "hand": "left"
    },
    {
      "midi": 75,
      "time": 183.5,
      "duration": 0.5,
      "velocity": 0.71,
      "hand": "right"
    },
    {
      "midi": 78,
      "time": 183.5,
      "duration": 0.5,
      "velocity": 0.71,
      "hand": "right"
    },
    {
      "midi": 42,
      "time": 184,
      "duration": 0.25,
      "velocity": 0.71,
      "hand": "left"
    },
    {
      "midi": 73,
      "time": 184,
      "duration": 0.5,
      "velocity": 0.71,
      "hand": "right"
    },
    {
      "midi": 76,
      "time": 184,
      "duration": 0.5,
      "velocity": 0.71,
      "hand": "right"
    },
    {
      "midi": 49,
      "time": 184.25,
      "duration": 0.25,
      "velocity": 0.71,
      "hand": "left"
    },
    {
      "midi": 52,
      "time": 184.5,
      "duration": 0.25,
      "velocity": 0.71,
      "hand": "left"
    },
    {
      "midi": 71,
      "time": 184.5,
      "duration": 0.5,
      "velocity": 0.71,
      "hand": "right"
    },
    {
      "midi": 75,
      "time": 184.5,
      "duration": 0.5,
      "velocity": 0.71,
      "hand": "right"
    },
    {
      "midi": 54,
      "time": 184.75,
      "duration": 0.25,
      "velocity": 0.71,
      "hand": "left"
    },
    {
      "midi": 57,
      "time": 185,
      "duration": 0.25,
      "velocity": 0.71,
      "hand": "left"
    },
    {
      "midi": 69,
      "time": 185,
      "duration": 0.5,
      "velocity": 0.71,
      "hand": "right"
    },
    {
      "midi": 73,
      "time": 185,
      "duration": 0.5,
      "velocity": 0.71,
      "hand": "right"
    },
    {
      "midi": 61,
      "time": 185.25,
      "duration": 0.25,
      "velocity": 0.71,
      "hand": "right"
    },
    {
      "midi": 64,
      "time": 185.5,
      "duration": 0.25,
      "velocity": 0.71,
      "hand": "right"
    },
    {
      "midi": 68,
      "time": 185.5,
      "duration": 0.5,
      "velocity": 0.71,
      "hand": "right"
    },
    {
      "midi": 71,
      "time": 185.5,
      "duration": 0.5,
      "velocity": 0.71,
      "hand": "right"
    },
    {
      "midi": 61,
      "time": 185.75,
      "duration": 0.25,
      "velocity": 0.71,
      "hand": "right"
    },
    {
      "midi": 57,
      "time": 186,
      "duration": 0.25,
      "velocity": 0.71,
      "hand": "left"
    },
    {
      "midi": 66,
      "time": 186,
      "duration": 0.5,
      "velocity": 0.71,
      "hand": "right"
    },
    {
      "midi": 69,
      "time": 186,
      "duration": 0.5,
      "velocity": 0.71,
      "hand": "right"
    },
    {
      "midi": 54,
      "time": 186.25,
      "duration": 0.25,
      "velocity": 0.71,
      "hand": "left"
    },
    {
      "midi": 52,
      "time": 186.5,
      "duration": 0.25,
      "velocity": 0.71,
      "hand": "left"
    },
    {
      "midi": 64,
      "time": 186.5,
      "duration": 1,
      "velocity": 0.71,
      "hand": "right"
    },
    {
      "midi": 68,
      "time": 186.5,
      "duration": 1,
      "velocity": 0.71,
      "hand": "right"
    },
    {
      "midi": 49,
      "time": 186.75,
      "duration": 0.25,
      "velocity": 0.71,
      "hand": "left"
    },
    {
      "midi": 42,
      "time": 187,
      "duration": 0.25,
      "velocity": 0.71,
      "hand": "left"
    },
    {
      "midi": 57,
      "time": 187,
      "duration": 1.5,
      "velocity": 0.71,
      "hand": "left"
    },
    {
      "midi": 49,
      "time": 187.25,
      "duration": 0.25,
      "velocity": 0.71,
      "hand": "left"
    },
    {
      "midi": 42,
      "time": 187.5,
      "duration": 0.25,
      "velocity": 0.71,
      "hand": "left"
    },
    {
      "midi": 63,
      "time": 187.5,
      "duration": 0.5,
      "velocity": 0.71,
      "hand": "right"
    },
    {
      "midi": 66,
      "time": 187.5,
      "duration": 0.5,
      "velocity": 0.71,
      "hand": "right"
    },
    {
      "midi": 49,
      "time": 187.75,
      "duration": 0.25,
      "velocity": 0.71,
      "hand": "left"
    },
    {
      "midi": 42,
      "time": 188,
      "duration": 0.25,
      "velocity": 0.71,
      "hand": "left"
    },
    {
      "midi": 61,
      "time": 188,
      "duration": 0.485,
      "velocity": 0.71,
      "hand": "right"
    },
    {
      "midi": 64,
      "time": 188,
      "duration": 0.5,
      "velocity": 0.71,
      "hand": "right"
    },
    {
      "midi": 49,
      "time": 188.25,
      "duration": 0.25,
      "velocity": 0.71,
      "hand": "left"
    },
    {
      "midi": 44,
      "time": 188.5,
      "duration": 0.25,
      "velocity": 0.71,
      "hand": "left"
    },
    {
      "midi": 54,
      "time": 188.5,
      "duration": 1,
      "velocity": 0.71,
      "hand": "left"
    },
    {
      "midi": 61,
      "time": 188.5,
      "duration": 3,
      "velocity": 0.71,
      "hand": "right"
    },
    {
      "midi": 63,
      "time": 188.5,
      "duration": 2.985,
      "velocity": 0.71,
      "hand": "right"
    },
    {
      "midi": 51,
      "time": 188.75,
      "duration": 0.25,
      "velocity": 0.71,
      "hand": "left"
    },
    {
      "midi": 44,
      "time": 189,
      "duration": 0.25,
      "velocity": 0.71,
      "hand": "left"
    },
    {
      "midi": 51,
      "time": 189.25,
      "duration": 0.25,
      "velocity": 0.71,
      "hand": "left"
    },
    {
      "midi": 44,
      "time": 189.5,
      "duration": 0.25,
      "velocity": 0.71,
      "hand": "left"
    },
    {
      "midi": 56,
      "time": 189.5,
      "duration": 0.5,
      "velocity": 0.71,
      "hand": "left"
    },
    {
      "midi": 51,
      "time": 189.75,
      "duration": 0.25,
      "velocity": 0.71,
      "hand": "left"
    },
    {
      "midi": 44,
      "time": 190,
      "duration": 0.25,
      "velocity": 0.71,
      "hand": "left"
    },
    {
      "midi": 58,
      "time": 190,
      "duration": 1,
      "velocity": 0.71,
      "hand": "left"
    },
    {
      "midi": 51,
      "time": 190.25,
      "duration": 0.25,
      "velocity": 0.71,
      "hand": "left"
    },
    {
      "midi": 44,
      "time": 190.5,
      "duration": 0.25,
      "velocity": 0.71,
      "hand": "left"
    },
    {
      "midi": 51,
      "time": 190.75,
      "duration": 0.25,
      "velocity": 0.71,
      "hand": "left"
    },
    {
      "midi": 44,
      "time": 191,
      "duration": 0.25,
      "velocity": 0.71,
      "hand": "left"
    },
    {
      "midi": 51,
      "time": 191.25,
      "duration": 0.25,
      "velocity": 0.71,
      "hand": "left"
    },
    {
      "midi": 44,
      "time": 191.5,
      "duration": 0.25,
      "velocity": 0.71,
      "hand": "left"
    },
    {
      "midi": 60,
      "time": 191.5,
      "duration": 1.5,
      "velocity": 0.71,
      "hand": "right"
    },
    {
      "midi": 63,
      "time": 191.5,
      "duration": 0.985,
      "velocity": 0.71,
      "hand": "right"
    },
    {
      "midi": 66,
      "time": 191.5,
      "duration": 0.985,
      "velocity": 0.71,
      "hand": "right"
    },
    {
      "midi": 51,
      "time": 191.75,
      "duration": 0.25,
      "velocity": 0.71,
      "hand": "left"
    },
    {
      "midi": 44,
      "time": 192,
      "duration": 0.25,
      "velocity": 0.71,
      "hand": "left"
    },
    {
      "midi": 51,
      "time": 192.25,
      "duration": 0.25,
      "velocity": 0.71,
      "hand": "left"
    },
    {
      "midi": 44,
      "time": 192.5,
      "duration": 0.25,
      "velocity": 0.71,
      "hand": "left"
    },
    {
      "midi": 63,
      "time": 192.5,
      "duration": 0.485,
      "velocity": 0.71,
      "hand": "right"
    },
    {
      "midi": 66,
      "time": 192.5,
      "duration": 0.5,
      "velocity": 0.71,
      "hand": "right"
    },
    {
      "midi": 70,
      "time": 192.5,
      "duration": 0.5,
      "velocity": 0.71,
      "hand": "right"
    },
    {
      "midi": 51,
      "time": 192.75,
      "duration": 0.25,
      "velocity": 0.71,
      "hand": "left"
    },
    {
      "midi": 44,
      "time": 193,
      "duration": 0.25,
      "velocity": 0.71,
      "hand": "left"
    },
    {
      "midi": 54,
      "time": 193,
      "duration": 1,
      "velocity": 0.71,
      "hand": "left"
    },
    {
      "midi": 61,
      "time": 193,
      "duration": 3,
      "velocity": 0.71,
      "hand": "right"
    },
    {
      "midi": 63,
      "time": 193,
      "duration": 2.985,
      "velocity": 0.71,
      "hand": "right"
    },
    {
      "midi": 51,
      "time": 193.25,
      "duration": 0.25,
      "velocity": 0.71,
      "hand": "left"
    },
    {
      "midi": 44,
      "time": 193.5,
      "duration": 0.25,
      "velocity": 0.71,
      "hand": "left"
    },
    {
      "midi": 51,
      "time": 193.75,
      "duration": 0.25,
      "velocity": 0.71,
      "hand": "left"
    },
    {
      "midi": 44,
      "time": 194,
      "duration": 0.25,
      "velocity": 0.71,
      "hand": "left"
    },
    {
      "midi": 56,
      "time": 194,
      "duration": 0.5,
      "velocity": 0.71,
      "hand": "left"
    },
    {
      "midi": 51,
      "time": 194.25,
      "duration": 0.25,
      "velocity": 0.71,
      "hand": "left"
    },
    {
      "midi": 44,
      "time": 194.5,
      "duration": 0.25,
      "velocity": 0.71,
      "hand": "left"
    },
    {
      "midi": 58,
      "time": 194.5,
      "duration": 1,
      "velocity": 0.71,
      "hand": "left"
    },
    {
      "midi": 51,
      "time": 194.75,
      "duration": 0.25,
      "velocity": 0.71,
      "hand": "left"
    },
    {
      "midi": 44,
      "time": 195,
      "duration": 0.25,
      "velocity": 0.71,
      "hand": "left"
    },
    {
      "midi": 51,
      "time": 195.25,
      "duration": 0.25,
      "velocity": 0.71,
      "hand": "left"
    },
    {
      "midi": 44,
      "time": 195.5,
      "duration": 0.25,
      "velocity": 0.71,
      "hand": "left"
    },
    {
      "midi": 51,
      "time": 195.75,
      "duration": 0.25,
      "velocity": 0.71,
      "hand": "left"
    },
    {
      "midi": 44,
      "time": 196,
      "duration": 0.25,
      "velocity": 0.71,
      "hand": "left"
    },
    {
      "midi": 60,
      "time": 196,
      "duration": 1.5,
      "velocity": 0.71,
      "hand": "right"
    },
    {
      "midi": 63,
      "time": 196,
      "duration": 0.985,
      "velocity": 0.71,
      "hand": "right"
    },
    {
      "midi": 66,
      "time": 196,
      "duration": 0.985,
      "velocity": 0.71,
      "hand": "right"
    },
    {
      "midi": 51,
      "time": 196.25,
      "duration": 0.25,
      "velocity": 0.71,
      "hand": "left"
    },
    {
      "midi": 44,
      "time": 196.5,
      "duration": 0.25,
      "velocity": 0.71,
      "hand": "left"
    },
    {
      "midi": 51,
      "time": 196.75,
      "duration": 0.25,
      "velocity": 0.71,
      "hand": "left"
    },
    {
      "midi": 44,
      "time": 197,
      "duration": 0.25,
      "velocity": 0.71,
      "hand": "left"
    },
    {
      "midi": 63,
      "time": 197,
      "duration": 0.5,
      "velocity": 0.71,
      "hand": "right"
    },
    {
      "midi": 66,
      "time": 197,
      "duration": 1,
      "velocity": 0.71,
      "hand": "right"
    },
    {
      "midi": 70,
      "time": 197,
      "duration": 1,
      "velocity": 0.71,
      "hand": "right"
    },
    {
      "midi": 51,
      "time": 197.25,
      "duration": 0.25,
      "velocity": 0.71,
      "hand": "left"
    },
    {
      "midi": 44,
      "time": 197.5,
      "duration": 0.25,
      "velocity": 0.71,
      "hand": "left"
    },
    {
      "midi": 61,
      "time": 197.5,
      "duration": 0.5,
      "velocity": 0.71,
      "hand": "right"
    },
    {
      "midi": 39,
      "time": 197.75,
      "duration": 0.25,
      "velocity": 0.71,
      "hand": "left"
    },
    {
      "midi": 44,
      "time": 198,
      "duration": 0.25,
      "velocity": 0.71,
      "hand": "left"
    },
    {
      "midi": 68,
      "time": 198,
      "duration": 0.5,
      "velocity": 0.71,
      "hand": "right"
    },
    {
      "midi": 72,
      "time": 198,
      "duration": 0.5,
      "velocity": 0.71,
      "hand": "right"
    },
    {
      "midi": 77,
      "time": 198,
      "duration": 0.5,
      "velocity": 0.71,
      "hand": "right"
    },
    {
      "midi": 51,
      "time": 198.25,
      "duration": 0.25,
      "velocity": 0.71,
      "hand": "left"
    },
    {
      "midi": 44,
      "time": 198.5,
      "duration": 0.25,
      "velocity": 0.71,
      "hand": "left"
    },
    {
      "midi": 66,
      "time": 198.5,
      "duration": 0.485,
      "velocity": 0.71,
      "hand": "right"
    },
    {
      "midi": 70,
      "time": 198.5,
      "duration": 0.485,
      "velocity": 0.71,
      "hand": "right"
    },
    {
      "midi": 75,
      "time": 198.5,
      "duration": 0.5,
      "velocity": 0.71,
      "hand": "right"
    },
    {
      "midi": 51,
      "time": 198.75,
      "duration": 0.25,
      "velocity": 0.71,
      "hand": "left"
    },
    {
      "midi": 56,
      "time": 199,
      "duration": 0.25,
      "velocity": 0.71,
      "hand": "left"
    },
    {
      "midi": 61,
      "time": 199,
      "duration": 0.5,
      "velocity": 0.71,
      "hand": "right"
    },
    {
      "midi": 66,
      "time": 199,
      "duration": 1.485,
      "velocity": 0.71,
      "hand": "right"
    },
    {
      "midi": 70,
      "time": 199,
      "duration": 1.5,
      "velocity": 0.71,
      "hand": "right"
    },
    {
      "midi": 51,
      "time": 199.25,
      "duration": 0.25,
      "velocity": 0.71,
      "hand": "left"
    },
    {
      "midi": 56,
      "time": 199.5,
      "duration": 0.25,
      "velocity": 0.71,
      "hand": "left"
    },
    {
      "midi": 58,
      "time": 199.5,
      "duration": 0.5,
      "velocity": 0.71,
      "hand": "left"
    },
    {
      "midi": 63,
      "time": 199.75,
      "duration": 0.25,
      "velocity": 0.71,
      "hand": "right"
    },
    {
      "midi": 56,
      "time": 200,
      "duration": 0.25,
      "velocity": 0.71,
      "hand": "left"
    },
    {
      "midi": 61,
      "time": 200,
      "duration": 0.5,
      "velocity": 0.71,
      "hand": "right"
    },
    {
      "midi": 51,
      "time": 200.25,
      "duration": 0.25,
      "velocity": 0.71,
      "hand": "left"
    },
    {
      "midi": 56,
      "time": 200.5,
      "duration": 0.25,
      "velocity": 0.71,
      "hand": "left"
    },
    {
      "midi": 58,
      "time": 200.5,
      "duration": 0.5,
      "velocity": 0.71,
      "hand": "left"
    },
    {
      "midi": 66,
      "time": 200.5,
      "duration": 1.485,
      "velocity": 0.71,
      "hand": "right"
    },
    {
      "midi": 68,
      "time": 200.5,
      "duration": 1.5,
      "velocity": 0.71,
      "hand": "right"
    },
    {
      "midi": 51,
      "time": 200.75,
      "duration": 0.25,
      "velocity": 0.71,
      "hand": "left"
    },
    {
      "midi": 44,
      "time": 201,
      "duration": 0.25,
      "velocity": 0.71,
      "hand": "left"
    },
    {
      "midi": 60,
      "time": 201,
      "duration": 0.5,
      "velocity": 0.71,
      "hand": "right"
    },
    {
      "midi": 51,
      "time": 201.25,
      "duration": 0.25,
      "velocity": 0.71,
      "hand": "left"
    },
    {
      "midi": 44,
      "time": 201.5,
      "duration": 0.25,
      "velocity": 0.71,
      "hand": "left"
    },
    {
      "midi": 63,
      "time": 201.5,
      "duration": 0.5,
      "velocity": 0.71,
      "hand": "right"
    },
    {
      "midi": 39,
      "time": 201.75,
      "duration": 0.25,
      "velocity": 0.71,
      "hand": "left"
    },
    {
      "midi": 44,
      "time": 202,
      "duration": 0.25,
      "velocity": 0.71,
      "hand": "left"
    },
    {
      "midi": 61,
      "time": 202,
      "duration": 0.5,
      "velocity": 0.71,
      "hand": "right"
    },
    {
      "midi": 66,
      "time": 202,
      "duration": 0.5,
      "velocity": 0.71,
      "hand": "right"
    },
    {
      "midi": 70,
      "time": 202,
      "duration": 0.5,
      "velocity": 0.71,
      "hand": "right"
    },
    {
      "midi": 39,
      "time": 202.25,
      "duration": 0.25,
      "velocity": 0.71,
      "hand": "left"
    },
    {
      "midi": 44,
      "time": 202.5,
      "duration": 0.25,
      "velocity": 0.71,
      "hand": "left"
    },
    {
      "midi": 68,
      "time": 202.5,
      "duration": 0.5,
      "velocity": 0.71,
      "hand": "right"
    },
    {
      "midi": 72,
      "time": 202.5,
      "duration": 0.5,
      "velocity": 0.71,
      "hand": "right"
    },
    {
      "midi": 77,
      "time": 202.5,
      "duration": 0.5,
      "velocity": 0.71,
      "hand": "right"
    },
    {
      "midi": 51,
      "time": 202.75,
      "duration": 0.25,
      "velocity": 0.71,
      "hand": "left"
    },
    {
      "midi": 44,
      "time": 203,
      "duration": 0.25,
      "velocity": 0.71,
      "hand": "left"
    },
    {
      "midi": 66,
      "time": 203,
      "duration": 0.485,
      "velocity": 0.71,
      "hand": "right"
    },
    {
      "midi": 70,
      "time": 203,
      "duration": 0.485,
      "velocity": 0.71,
      "hand": "right"
    },
    {
      "midi": 75,
      "time": 203,
      "duration": 0.5,
      "velocity": 0.71,
      "hand": "right"
    },
    {
      "midi": 51,
      "time": 203.25,
      "duration": 0.25,
      "velocity": 0.71,
      "hand": "left"
    },
    {
      "midi": 56,
      "time": 203.5,
      "duration": 0.25,
      "velocity": 0.71,
      "hand": "left"
    },
    {
      "midi": 61,
      "time": 203.5,
      "duration": 0.5,
      "velocity": 0.71,
      "hand": "right"
    },
    {
      "midi": 66,
      "time": 203.5,
      "duration": 1.485,
      "velocity": 0.71,
      "hand": "right"
    },
    {
      "midi": 70,
      "time": 203.5,
      "duration": 1.5,
      "velocity": 0.71,
      "hand": "right"
    },
    {
      "midi": 51,
      "time": 203.75,
      "duration": 0.25,
      "velocity": 0.71,
      "hand": "left"
    },
    {
      "midi": 56,
      "time": 204,
      "duration": 0.25,
      "velocity": 0.71,
      "hand": "left"
    },
    {
      "midi": 58,
      "time": 204,
      "duration": 0.5,
      "velocity": 0.71,
      "hand": "left"
    },
    {
      "midi": 63,
      "time": 204.25,
      "duration": 0.25,
      "velocity": 0.71,
      "hand": "right"
    },
    {
      "midi": 56,
      "time": 204.5,
      "duration": 0.25,
      "velocity": 0.71,
      "hand": "left"
    },
    {
      "midi": 61,
      "time": 204.5,
      "duration": 0.5,
      "velocity": 0.71,
      "hand": "right"
    },
    {
      "midi": 51,
      "time": 204.75,
      "duration": 0.25,
      "velocity": 0.71,
      "hand": "left"
    },
    {
      "midi": 56,
      "time": 205,
      "duration": 0.25,
      "velocity": 0.71,
      "hand": "left"
    },
    {
      "midi": 58,
      "time": 205,
      "duration": 0.5,
      "velocity": 0.71,
      "hand": "left"
    },
    {
      "midi": 66,
      "time": 205,
      "duration": 1.5,
      "velocity": 0.71,
      "hand": "right"
    },
    {
      "midi": 68,
      "time": 205,
      "duration": 1.5,
      "velocity": 0.71,
      "hand": "right"
    },
    {
      "midi": 51,
      "time": 205.25,
      "duration": 0.25,
      "velocity": 0.71,
      "hand": "left"
    },
    {
      "midi": 56,
      "time": 205.5,
      "duration": 0.25,
      "velocity": 0.71,
      "hand": "left"
    },
    {
      "midi": 60,
      "time": 205.5,
      "duration": 0.5,
      "velocity": 0.71,
      "hand": "right"
    },
    {
      "midi": 51,
      "time": 205.75,
      "duration": 0.25,
      "velocity": 0.71,
      "hand": "left"
    },
    {
      "midi": 56,
      "time": 206,
      "duration": 0.25,
      "velocity": 0.71,
      "hand": "left"
    },
    {
      "midi": 63,
      "time": 206,
      "duration": 0.5,
      "velocity": 0.71,
      "hand": "right"
    },
    {
      "midi": 51,
      "time": 206.25,
      "duration": 0.25,
      "velocity": 0.71,
      "hand": "left"
    },
    {
      "midi": 54,
      "time": 206.5,
      "duration": 1,
      "velocity": 0.71,
      "hand": "left"
    },
    {
      "midi": 61,
      "time": 206.5,
      "duration": 3,
      "velocity": 0.71,
      "hand": "right"
    },
    {
      "midi": 75,
      "time": 206.5,
      "duration": 3,
      "velocity": 0.71,
      "hand": "right"
    },
    {
      "midi": 63,
      "time": 206.75,
      "duration": 0.25,
      "velocity": 0.71,
      "hand": "right"
    },
    {
      "midi": 66,
      "time": 207,
      "duration": 0.25,
      "velocity": 0.71,
      "hand": "right"
    },
    {
      "midi": 70,
      "time": 207.25,
      "duration": 0.25,
      "velocity": 0.71,
      "hand": "right"
    },
    {
      "midi": 56,
      "time": 207.5,
      "duration": 0.5,
      "velocity": 0.71,
      "hand": "left"
    },
    {
      "midi": 66,
      "time": 207.5,
      "duration": 0.25,
      "velocity": 0.71,
      "hand": "right"
    },
    {
      "midi": 63,
      "time": 207.75,
      "duration": 0.25,
      "velocity": 0.71,
      "hand": "right"
    },
    {
      "midi": 58,
      "time": 208,
      "duration": 1,
      "velocity": 0.71,
      "hand": "left"
    },
    {
      "midi": 63,
      "time": 208.25,
      "duration": 0.25,
      "velocity": 0.71,
      "hand": "right"
    },
    {
      "midi": 66,
      "time": 208.5,
      "duration": 0.25,
      "velocity": 0.71,
      "hand": "right"
    },
    {
      "midi": 70,
      "time": 208.75,
      "duration": 0.25,
      "velocity": 0.71,
      "hand": "right"
    },
    {
      "midi": 66,
      "time": 209,
      "duration": 0.25,
      "velocity": 0.71,
      "hand": "right"
    },
    {
      "midi": 63,
      "time": 209.25,
      "duration": 0.25,
      "velocity": 0.71,
      "hand": "right"
    },
    {
      "midi": 60,
      "time": 209.5,
      "duration": 1.5,
      "velocity": 0.71,
      "hand": "right"
    },
    {
      "midi": 78,
      "time": 209.5,
      "duration": 1,
      "velocity": 0.71,
      "hand": "right"
    },
    {
      "midi": 63,
      "time": 209.75,
      "duration": 0.25,
      "velocity": 0.71,
      "hand": "right"
    },
    {
      "midi": 66,
      "time": 210,
      "duration": 0.25,
      "velocity": 0.71,
      "hand": "right"
    },
    {
      "midi": 70,
      "time": 210.25,
      "duration": 0.25,
      "velocity": 0.71,
      "hand": "right"
    },
    {
      "midi": 72,
      "time": 210.5,
      "duration": 0.25,
      "velocity": 0.71,
      "hand": "right"
    },
    {
      "midi": 82,
      "time": 210.5,
      "duration": 0.5,
      "velocity": 0.71,
      "hand": "right"
    },
    {
      "midi": 75,
      "time": 210.75,
      "duration": 0.235,
      "velocity": 0.71,
      "hand": "right"
    },
    {
      "midi": 54,
      "time": 211,
      "duration": 1,
      "velocity": 0.71,
      "hand": "left"
    },
    {
      "midi": 61,
      "time": 211,
      "duration": 3,
      "velocity": 0.71,
      "hand": "right"
    },
    {
      "midi": 75,
      "time": 211,
      "duration": 3,
      "velocity": 0.71,
      "hand": "right"
    },
    {
      "midi": 63,
      "time": 211.25,
      "duration": 0.25,
      "velocity": 0.71,
      "hand": "right"
    },
    {
      "midi": 66,
      "time": 211.5,
      "duration": 0.25,
      "velocity": 0.71,
      "hand": "right"
    },
    {
      "midi": 70,
      "time": 211.75,
      "duration": 0.25,
      "velocity": 0.71,
      "hand": "right"
    },
    {
      "midi": 56,
      "time": 212,
      "duration": 0.5,
      "velocity": 0.71,
      "hand": "left"
    },
    {
      "midi": 66,
      "time": 212,
      "duration": 0.25,
      "velocity": 0.71,
      "hand": "right"
    },
    {
      "midi": 63,
      "time": 212.25,
      "duration": 0.25,
      "velocity": 0.71,
      "hand": "right"
    },
    {
      "midi": 58,
      "time": 212.5,
      "duration": 1,
      "velocity": 0.71,
      "hand": "left"
    },
    {
      "midi": 63,
      "time": 212.75,
      "duration": 0.25,
      "velocity": 0.71,
      "hand": "right"
    },
    {
      "midi": 66,
      "time": 213,
      "duration": 0.25,
      "velocity": 0.71,
      "hand": "right"
    },
    {
      "midi": 70,
      "time": 213.25,
      "duration": 0.25,
      "velocity": 0.71,
      "hand": "right"
    },
    {
      "midi": 66,
      "time": 213.5,
      "duration": 0.25,
      "velocity": 0.71,
      "hand": "right"
    },
    {
      "midi": 63,
      "time": 213.75,
      "duration": 0.25,
      "velocity": 0.71,
      "hand": "right"
    },
    {
      "midi": 60,
      "time": 214,
      "duration": 1.5,
      "velocity": 0.71,
      "hand": "right"
    },
    {
      "midi": 78,
      "time": 214,
      "duration": 1,
      "velocity": 0.71,
      "hand": "right"
    },
    {
      "midi": 63,
      "time": 214.25,
      "duration": 0.25,
      "velocity": 0.71,
      "hand": "right"
    },
    {
      "midi": 66,
      "time": 214.5,
      "duration": 0.25,
      "velocity": 0.71,
      "hand": "right"
    },
    {
      "midi": 70,
      "time": 214.75,
      "duration": 0.25,
      "velocity": 0.71,
      "hand": "right"
    },
    {
      "midi": 72,
      "time": 215,
      "duration": 0.25,
      "velocity": 0.71,
      "hand": "right"
    },
    {
      "midi": 82,
      "time": 215,
      "duration": 0.5,
      "velocity": 0.71,
      "hand": "right"
    },
    {
      "midi": 75,
      "time": 215.25,
      "duration": 0.235,
      "velocity": 0.71,
      "hand": "right"
    },
    {
      "midi": 66,
      "time": 215.5,
      "duration": 4.485,
      "velocity": 0.71,
      "hand": "right"
    },
    {
      "midi": 75,
      "time": 215.5,
      "duration": 0.735,
      "velocity": 0.71,
      "hand": "right"
    },
    {
      "midi": 70,
      "time": 215.75,
      "duration": 0.25,
      "velocity": 0.71,
      "hand": "right"
    },
    {
      "midi": 73,
      "time": 216,
      "duration": 0.25,
      "velocity": 0.71,
      "hand": "right"
    },
    {
      "midi": 75,
      "time": 216.25,
      "duration": 0.25,
      "velocity": 0.71,
      "hand": "right"
    },
    {
      "midi": 78,
      "time": 216.5,
      "duration": 0.25,
      "velocity": 0.71,
      "hand": "right"
    },
    {
      "midi": 82,
      "time": 216.75,
      "duration": 0.25,
      "velocity": 0.71,
      "hand": "right"
    },
    {
      "midi": 70,
      "time": 217.25,
      "duration": 0.25,
      "velocity": 0.71,
      "hand": "right"
    },
    {
      "midi": 73,
      "time": 217.5,
      "duration": 0.25,
      "velocity": 0.71,
      "hand": "right"
    },
    {
      "midi": 75,
      "time": 217.75,
      "duration": 0.25,
      "velocity": 0.71,
      "hand": "right"
    },
    {
      "midi": 78,
      "time": 218,
      "duration": 0.25,
      "velocity": 0.71,
      "hand": "right"
    },
    {
      "midi": 84,
      "time": 218.25,
      "duration": 0.25,
      "velocity": 0.71,
      "hand": "right"
    },
    {
      "midi": 70,
      "time": 218.75,
      "duration": 0.25,
      "velocity": 0.71,
      "hand": "right"
    },
    {
      "midi": 73,
      "time": 219,
      "duration": 0.25,
      "velocity": 0.71,
      "hand": "right"
    },
    {
      "midi": 75,
      "time": 219.25,
      "duration": 0.25,
      "velocity": 0.71,
      "hand": "right"
    },
    {
      "midi": 78,
      "time": 219.5,
      "duration": 0.25,
      "velocity": 0.71,
      "hand": "right"
    },
    {
      "midi": 82,
      "time": 219.75,
      "duration": 0.25,
      "velocity": 0.71,
      "hand": "right"
    },
    {
      "midi": 66,
      "time": 220,
      "duration": 4.5,
      "velocity": 0.71,
      "hand": "right"
    },
    {
      "midi": 69,
      "time": 220.25,
      "duration": 0.25,
      "velocity": 0.71,
      "hand": "right"
    },
    {
      "midi": 73,
      "time": 220.5,
      "duration": 0.25,
      "velocity": 0.71,
      "hand": "right"
    },
    {
      "midi": 75,
      "time": 220.75,
      "duration": 0.25,
      "velocity": 0.71,
      "hand": "right"
    },
    {
      "midi": 78,
      "time": 221,
      "duration": 0.25,
      "velocity": 0.71,
      "hand": "right"
    },
    {
      "midi": 81,
      "time": 221.25,
      "duration": 0.25,
      "velocity": 0.71,
      "hand": "right"
    },
    {
      "midi": 73,
      "time": 221.5,
      "duration": 0.485,
      "velocity": 0.71,
      "hand": "right"
    },
    {
      "midi": 69,
      "time": 221.75,
      "duration": 0.25,
      "velocity": 0.71,
      "hand": "right"
    },
    {
      "midi": 73,
      "time": 222,
      "duration": 0.25,
      "velocity": 0.71,
      "hand": "right"
    },
    {
      "midi": 75,
      "time": 222.25,
      "duration": 0.25,
      "velocity": 0.71,
      "hand": "right"
    },
    {
      "midi": 78,
      "time": 222.5,
      "duration": 0.25,
      "velocity": 0.71,
      "hand": "right"
    },
    {
      "midi": 83,
      "time": 222.75,
      "duration": 0.25,
      "velocity": 0.71,
      "hand": "right"
    },
    {
      "midi": 75,
      "time": 223,
      "duration": 0.735,
      "velocity": 0.71,
      "hand": "right"
    },
    {
      "midi": 69,
      "time": 223.25,
      "duration": 0.25,
      "velocity": 0.71,
      "hand": "right"
    },
    {
      "midi": 73,
      "time": 223.5,
      "duration": 0.25,
      "velocity": 0.71,
      "hand": "right"
    },
    {
      "midi": 75,
      "time": 223.75,
      "duration": 0.25,
      "velocity": 0.71,
      "hand": "right"
    },
    {
      "midi": 78,
      "time": 224,
      "duration": 0.25,
      "velocity": 0.71,
      "hand": "right"
    },
    {
      "midi": 81,
      "time": 224.25,
      "duration": 0.25,
      "velocity": 0.71,
      "hand": "right"
    },
    {
      "midi": 65,
      "time": 224.5,
      "duration": 2.985,
      "velocity": 0.71,
      "hand": "right"
    },
    {
      "midi": 68,
      "time": 224.75,
      "duration": 0.25,
      "velocity": 0.71,
      "hand": "right"
    },
    {
      "midi": 72,
      "time": 225,
      "duration": 0.25,
      "velocity": 0.71,
      "hand": "right"
    },
    {
      "midi": 77,
      "time": 225.25,
      "duration": 0.25,
      "velocity": 0.71,
      "hand": "right"
    },
    {
      "midi": 80,
      "time": 225.5,
      "duration": 0.25,
      "velocity": 0.71,
      "hand": "right"
    },
    {
      "midi": 84,
      "time": 225.75,
      "duration": 0.25,
      "velocity": 0.71,
      "hand": "right"
    },
    {
      "midi": 77,
      "time": 226,
      "duration": 1.485,
      "velocity": 0.71,
      "hand": "right"
    },
    {
      "midi": 80,
      "time": 226,
      "duration": 1.5,
      "velocity": 0.71,
      "hand": "right"
    },
    {
      "midi": 65,
      "time": 227.5,
      "duration": 1.485,
      "velocity": 0.71,
      "hand": "right"
    },
    {
      "midi": 77,
      "time": 227.5,
      "duration": 2,
      "velocity": 0.71,
      "hand": "right"
    },
    {
      "midi": 65,
      "time": 229,
      "duration": 2.985,
      "velocity": 0.71,
      "hand": "right"
    },
    {
      "midi": 69,
      "time": 229.25,
      "duration": 0.25,
      "velocity": 0.71,
      "hand": "right"
    },
    {
      "midi": 72,
      "time": 229.5,
      "duration": 0.25,
      "velocity": 0.71,
      "hand": "right"
    },
    {
      "midi": 75,
      "time": 229.5,
      "duration": 0.235,
      "velocity": 0.71,
      "hand": "right"
    },
    {
      "midi": 84,
      "time": 229.5,
      "duration": 0.5,
      "velocity": 0.71,
      "hand": "right"
    },
    {
      "midi": 75,
      "time": 229.75,
      "duration": 0.25,
      "velocity": 0.71,
      "hand": "right"
    },
    {
      "midi": 73,
      "time": 230,
      "duration": 0.5,
      "velocity": 0.71,
      "hand": "right"
    },
    {
      "midi": 77,
      "time": 230,
      "duration": 0.5,
      "velocity": 0.71,
      "hand": "right"
    },
    {
      "midi": 81,
      "time": 230.25,
      "duration": 0.25,
      "velocity": 0.71,
      "hand": "right"
    },
    {
      "midi": 75,
      "time": 230.5,
      "duration": 3.5,
      "velocity": 0.71,
      "hand": "right"
    },
    {
      "midi": 84,
      "time": 230.5,
      "duration": 3.5,
      "velocity": 0.71,
      "hand": "right"
    },
    {
      "midi": 65,
      "time": 232,
      "duration": 1.485,
      "velocity": 0.71,
      "hand": "right"
    },
    {
      "midi": 65,
      "time": 233.5,
      "duration": 2.985,
      "velocity": 0.71,
      "hand": "right"
    },
    {
      "midi": 68,
      "time": 233.75,
      "duration": 0.25,
      "velocity": 0.71,
      "hand": "right"
    },
    {
      "midi": 70,
      "time": 234,
      "duration": 0.25,
      "velocity": 0.71,
      "hand": "right"
    },
    {
      "midi": 73,
      "time": 234,
      "duration": 0.235,
      "velocity": 0.71,
      "hand": "right"
    },
    {
      "midi": 82,
      "time": 234,
      "duration": 0.5,
      "velocity": 0.71,
      "hand": "right"
    },
    {
      "midi": 73,
      "time": 234.25,
      "duration": 0.25,
      "velocity": 0.71,
      "hand": "right"
    },
    {
      "midi": 75,
      "time": 234.5,
      "duration": 0.5,
      "velocity": 0.71,
      "hand": "right"
    },
    {
      "midi": 77,
      "time": 234.5,
      "duration": 0.25,
      "velocity": 0.71,
      "hand": "right"
    },
    {
      "midi": 84,
      "time": 234.5,
      "duration": 0.5,
      "velocity": 0.71,
      "hand": "right"
    },
    {
      "midi": 80,
      "time": 234.75,
      "duration": 0.25,
      "velocity": 0.71,
      "hand": "right"
    },
    {
      "midi": 73,
      "time": 235,
      "duration": 0.735,
      "velocity": 0.71,
      "hand": "right"
    },
    {
      "midi": 82,
      "time": 235,
      "duration": 3.5,
      "velocity": 0.71,
      "hand": "right"
    },
    {
      "midi": 73,
      "time": 235.75,
      "duration": 1.485,
      "velocity": 0.71,
      "hand": "right"
    },
    {
      "midi": 77,
      "time": 235.75,
      "duration": 1.5,
      "velocity": 0.71,
      "hand": "right"
    },
    {
      "midi": 65,
      "time": 236.5,
      "duration": 1.5,
      "velocity": 0.71,
      "hand": "right"
    },
    {
      "midi": 73,
      "time": 237.25,
      "duration": 1.25,
      "velocity": 0.71,
      "hand": "right"
    },
    {
      "midi": 63,
      "time": 238,
      "duration": 2.985,
      "velocity": 0.71,
      "hand": "right"
    },
    {
      "midi": 66,
      "time": 238.25,
      "duration": 0.25,
      "velocity": 0.71,
      "hand": "right"
    },
    {
      "midi": 68,
      "time": 238.5,
      "duration": 0.25,
      "velocity": 0.71,
      "hand": "right"
    },
    {
      "midi": 80,
      "time": 238.5,
      "duration": 0.5,
      "velocity": 0.71,
      "hand": "right"
    },
    {
      "midi": 84,
      "time": 238.5,
      "duration": 0.5,
      "velocity": 0.71,
      "hand": "right"
    },
    {
      "midi": 72,
      "time": 238.75,
      "duration": 0.25,
      "velocity": 0.71,
      "hand": "right"
    },
    {
      "midi": 73,
      "time": 239,
      "duration": 0.5,
      "velocity": 0.71,
      "hand": "right"
    },
    {
      "midi": 75,
      "time": 239,
      "duration": 0.25,
      "velocity": 0.71,
      "hand": "right"
    },
    {
      "midi": 82,
      "time": 239,
      "duration": 0.5,
      "velocity": 0.71,
      "hand": "right"
    },
    {
      "midi": 78,
      "time": 239.25,
      "duration": 0.25,
      "velocity": 0.71,
      "hand": "right"
    },
    {
      "midi": 80,
      "time": 239.5,
      "duration": 3,
      "velocity": 0.71,
      "hand": "right"
    },
    {
      "midi": 84,
      "time": 239.5,
      "duration": 3,
      "velocity": 0.71,
      "hand": "right"
    },
    {
      "midi": 63,
      "time": 241,
      "duration": 1.5,
      "velocity": 0.71,
      "hand": "right"
    },
    {
      "midi": 61,
      "time": 242.5,
      "duration": 3,
      "velocity": 0.71,
      "hand": "right"
    },
    {
      "midi": 63,
      "time": 242.75,
      "duration": 0.25,
      "velocity": 0.71,
      "hand": "right"
    },
    {
      "midi": 66,
      "time": 243,
      "duration": 0.25,
      "velocity": 0.71,
      "hand": "right"
    },
    {
      "midi": 78,
      "time": 243,
      "duration": 0.5,
      "velocity": 0.71,
      "hand": "right"
    },
    {
      "midi": 82,
      "time": 243,
      "duration": 0.5,
      "velocity": 0.71,
      "hand": "right"
    },
    {
      "midi": 70,
      "time": 243.25,
      "duration": 0.25,
      "velocity": 0.71,
      "hand": "right"
    },
    {
      "midi": 73,
      "time": 243.5,
      "duration": 0.25,
      "velocity": 0.71,
      "hand": "right"
    },
    {
      "midi": 80,
      "time": 243.5,
      "duration": 0.5,
      "velocity": 0.71,
      "hand": "right"
    },
    {
      "midi": 84,
      "time": 243.5,
      "duration": 0.5,
      "velocity": 0.71,
      "hand": "right"
    },
    {
      "midi": 75,
      "time": 243.75,
      "duration": 0.25,
      "velocity": 0.71,
      "hand": "right"
    },
    {
      "midi": 78,
      "time": 244,
      "duration": 1.5,
      "velocity": 0.71,
      "hand": "right"
    },
    {
      "midi": 82,
      "time": 244,
      "duration": 0.5,
      "velocity": 0.71,
      "hand": "right"
    },
    {
      "midi": 75,
      "time": 244.5,
      "duration": 0.5,
      "velocity": 0.71,
      "hand": "right"
    },
    {
      "midi": 82,
      "time": 245,
      "duration": 0.5,
      "velocity": 0.71,
      "hand": "right"
    },
    {
      "midi": 68,
      "time": 245.5,
      "duration": 1.5,
      "velocity": 0.71,
      "hand": "right"
    },
    {
      "midi": 72,
      "time": 245.5,
      "duration": 1.5,
      "velocity": 0.71,
      "hand": "right"
    },
    {
      "midi": 77,
      "time": 245.5,
      "duration": 2,
      "velocity": 0.71,
      "hand": "right"
    },
    {
      "midi": 80,
      "time": 245.5,
      "duration": 0.5,
      "velocity": 0.71,
      "hand": "right"
    },
    {
      "midi": 82,
      "time": 246,
      "duration": 0.5,
      "velocity": 0.71,
      "hand": "right"
    },
    {
      "midi": 80,
      "time": 246.5,
      "duration": 1,
      "velocity": 0.71,
      "hand": "right"
    },
    {
      "midi": 48,
      "time": 247,
      "duration": 3,
      "velocity": 0.71,
      "hand": "left"
    },
    {
      "midi": 54,
      "time": 247.25,
      "duration": 0.25,
      "velocity": 0.71,
      "hand": "left"
    },
    {
      "midi": 58,
      "time": 247.5,
      "duration": 0.25,
      "velocity": 0.71,
      "hand": "left"
    },
    {
      "midi": 75,
      "time": 247.5,
      "duration": 0.5,
      "velocity": 0.71,
      "hand": "right"
    },
    {
      "midi": 78,
      "time": 247.5,
      "duration": 0.5,
      "velocity": 0.71,
      "hand": "right"
    },
    {
      "midi": 60,
      "time": 247.75,
      "duration": 0.25,
      "velocity": 0.71,
      "hand": "right"
    },
    {
      "midi": 63,
      "time": 248,
      "duration": 0.25,
      "velocity": 0.71,
      "hand": "right"
    },
    {
      "midi": 77,
      "time": 248,
      "duration": 0.5,
      "velocity": 0.71,
      "hand": "right"
    },
    {
      "midi": 80,
      "time": 248,
      "duration": 0.5,
      "velocity": 0.71,
      "hand": "right"
    },
    {
      "midi": 66,
      "time": 248.25,
      "duration": 0.25,
      "velocity": 0.71,
      "hand": "right"
    },
    {
      "midi": 70,
      "time": 248.5,
      "duration": 1.5,
      "velocity": 0.71,
      "hand": "right"
    },
    {
      "midi": 75,
      "time": 248.5,
      "duration": 1.5,
      "velocity": 0.71,
      "hand": "right"
    },
    {
      "midi": 78,
      "time": 248.5,
      "duration": 1.5,
      "velocity": 0.71,
      "hand": "right"
    },
    {
      "midi": 53,
      "time": 250,
      "duration": 1.5,
      "velocity": 0.71,
      "hand": "left"
    },
    {
      "midi": 60,
      "time": 250,
      "duration": 1.5,
      "velocity": 0.71,
      "hand": "right"
    },
    {
      "midi": 63,
      "time": 250,
      "duration": 1.5,
      "velocity": 0.71,
      "hand": "right"
    },
    {
      "midi": 69,
      "time": 250,
      "duration": 1.5,
      "velocity": 0.71,
      "hand": "right"
    },
    {
      "midi": 77,
      "time": 250,
      "duration": 1.985,
      "velocity": 0.71,
      "hand": "right"
    },
    {
      "midi": 56,
      "time": 251.5,
      "duration": 3,
      "velocity": 0.71,
      "hand": "left"
    },
    {
      "midi": 58,
      "time": 251.75,
      "duration": 0.25,
      "velocity": 0.71,
      "hand": "left"
    },
    {
      "midi": 61,
      "time": 252,
      "duration": 0.25,
      "velocity": 0.71,
      "hand": "right"
    },
    {
      "midi": 73,
      "time": 252,
      "duration": 0.5,
      "velocity": 0.71,
      "hand": "right"
    },
    {
      "midi": 77,
      "time": 252,
      "duration": 0.5,
      "velocity": 0.71,
      "hand": "right"
    },
    {
      "midi": 65,
      "time": 252.25,
      "duration": 0.25,
      "velocity": 0.71,
      "hand": "right"
    },
    {
      "midi": 68,
      "time": 252.5,
      "duration": 0.25,
      "velocity": 0.71,
      "hand": "right"
    },
    {
      "midi": 75,
      "time": 252.5,
      "duration": 0.5,
      "velocity": 0.71,
      "hand": "right"
    },
    {
      "midi": 78,
      "time": 252.5,
      "duration": 0.5,
      "velocity": 0.71,
      "hand": "right"
    },
    {
      "midi": 70,
      "time": 252.75,
      "duration": 0.25,
      "velocity": 0.71,
      "hand": "right"
    },
    {
      "midi": 73,
      "time": 253,
      "duration": 1.485,
      "velocity": 0.71,
      "hand": "right"
    },
    {
      "midi": 77,
      "time": 253,
      "duration": 0.5,
      "velocity": 0.71,
      "hand": "right"
    },
    {
      "midi": 82,
      "time": 253.5,
      "duration": 0.5,
      "velocity": 0.71,
      "hand": "right"
    },
    {
      "midi": 77,
      "time": 254,
      "duration": 0.5,
      "velocity": 0.71,
      "hand": "right"
    },
    {
      "midi": 54,
      "time": 254.5,
      "duration": 1.5,
      "velocity": 0.71,
      "hand": "left"
    },
    {
      "midi": 58,
      "time": 254.5,
      "duration": 1.5,
      "velocity": 0.71,
      "hand": "left"
    },
    {
      "midi": 61,
      "time": 254.5,
      "duration": 1.5,
      "velocity": 0.71,
      "hand": "right"
    },
    {
      "midi": 63,
      "time": 254.5,
      "duration": 1.5,
      "velocity": 0.71,
      "hand": "right"
    },
    {
      "midi": 73,
      "time": 254.5,
      "duration": 1.5,
      "velocity": 0.71,
      "hand": "right"
    },
    {
      "midi": 75,
      "time": 254.5,
      "duration": 0.5,
      "velocity": 0.71,
      "hand": "right"
    },
    {
      "midi": 77,
      "time": 255,
      "duration": 0.5,
      "velocity": 0.71,
      "hand": "right"
    },
    {
      "midi": 75,
      "time": 255.5,
      "duration": 1,
      "velocity": 0.71,
      "hand": "right"
    },
    {
      "midi": 53,
      "time": 256,
      "duration": 3,
      "velocity": 0.71,
      "hand": "left"
    },
    {
      "midi": 56,
      "time": 256.25,
      "duration": 0.25,
      "velocity": 0.71,
      "hand": "left"
    },
    {
      "midi": 58,
      "time": 256.5,
      "duration": 0.25,
      "velocity": 0.71,
      "hand": "left"
    },
    {
      "midi": 70,
      "time": 256.5,
      "duration": 0.5,
      "velocity": 0.71,
      "hand": "right"
    },
    {
      "midi": 73,
      "time": 256.5,
      "duration": 0.5,
      "velocity": 0.71,
      "hand": "right"
    },
    {
      "midi": 61,
      "time": 256.75,
      "duration": 0.25,
      "velocity": 0.71,
      "hand": "right"
    },
    {
      "midi": 65,
      "time": 257,
      "duration": 0.25,
      "velocity": 0.71,
      "hand": "right"
    },
    {
      "midi": 72,
      "time": 257,
      "duration": 0.5,
      "velocity": 0.71,
      "hand": "right"
    },
    {
      "midi": 75,
      "time": 257,
      "duration": 0.5,
      "velocity": 0.71,
      "hand": "right"
    },
    {
      "midi": 68,
      "time": 257.25,
      "duration": 0.25,
      "velocity": 0.71,
      "hand": "right"
    },
    {
      "midi": 70,
      "time": 257.5,
      "duration": 1.5,
      "velocity": 0.71,
      "hand": "right"
    },
    {
      "midi": 73,
      "time": 257.5,
      "duration": 1.5,
      "velocity": 0.71,
      "hand": "right"
    },
    {
      "midi": 51,
      "time": 259,
      "duration": 0.75,
      "velocity": 0.71,
      "hand": "left"
    },
    {
      "midi": 54,
      "time": 259,
      "duration": 1.5,
      "velocity": 0.71,
      "hand": "left"
    },
    {
      "midi": 60,
      "time": 259,
      "duration": 1.5,
      "velocity": 0.71,
      "hand": "right"
    },
    {
      "midi": 68,
      "time": 259,
      "duration": 1.5,
      "velocity": 0.71,
      "hand": "right"
    },
    {
      "midi": 72,
      "time": 259,
      "duration": 1.5,
      "velocity": 0.71,
      "hand": "right"
    },
    {
      "midi": 44,
      "time": 259.75,
      "duration": 0.735,
      "velocity": 0.71,
      "hand": "left"
    },
    {
      "midi": 37,
      "time": 260.5,
      "duration": 0.5,
      "velocity": 0.71,
      "hand": "left"
    },
    {
      "midi": 44,
      "time": 260.5,
      "duration": 0.5,
      "velocity": 0.71,
      "hand": "left"
    },
    {
      "midi": 53,
      "time": 261,
      "duration": 1,
      "velocity": 0.71,
      "hand": "left"
    },
    {
      "midi": 56,
      "time": 261,
      "duration": 1,
      "velocity": 0.71,
      "hand": "left"
    },
    {
      "midi": 65,
      "time": 261.5,
      "duration": 3.5,
      "velocity": 0.71,
      "hand": "right"
    },
    {
      "midi": 68,
      "time": 261.5,
      "duration": 3.5,
      "velocity": 0.71,
      "hand": "right"
    },
    {
      "midi": 59,
      "time": 262,
      "duration": 3,
      "velocity": 0.71,
      "hand": "left"
    },
    {
      "midi": 77,
      "time": 262,
      "duration": 1.485,
      "velocity": 0.71,
      "hand": "right"
    },
    {
      "midi": 80,
      "time": 262,
      "duration": 1.5,
      "velocity": 0.71,
      "hand": "right"
    },
    {
      "midi": 73,
      "time": 263.5,
      "duration": 2,
      "velocity": 0.71,
      "hand": "right"
    },
    {
      "midi": 77,
      "time": 263.5,
      "duration": 2,
      "velocity": 0.71,
      "hand": "right"
    },
    {
      "midi": 42,
      "time": 265,
      "duration": 3,
      "velocity": 0.71,
      "hand": "left"
    },
    {
      "midi": 49,
      "time": 265,
      "duration": 4.5,
      "velocity": 0.71,
      "hand": "left"
    },
    {
      "midi": 54,
      "time": 265.5,
      "duration": 4,
      "velocity": 0.71,
      "hand": "left"
    },
    {
      "midi": 58,
      "time": 265.5,
      "duration": 4,
      "velocity": 0.71,
      "hand": "left"
    },
    {
      "midi": 61,
      "time": 265.5,
      "duration": 4,
      "velocity": 0.71,
      "hand": "right"
    },
    {
      "midi": 66,
      "time": 265.5,
      "duration": 4,
      "velocity": 0.71,
      "hand": "right"
    },
    {
      "midi": 70,
      "time": 265.5,
      "duration": 4,
      "velocity": 0.71,
      "hand": "right"
    },
    {
      "midi": 75,
      "time": 265.5,
      "duration": 0.5,
      "velocity": 0.71,
      "hand": "right"
    },
    {
      "midi": 77,
      "time": 266,
      "duration": 0.5,
      "velocity": 0.71,
      "hand": "right"
    },
    {
      "midi": 75,
      "time": 266.5,
      "duration": 3.5,
      "velocity": 0.71,
      "hand": "right"
    },
    {
      "midi": 44,
      "time": 269.5,
      "duration": 3,
      "velocity": 0.71,
      "hand": "left"
    },
    {
      "midi": 53,
      "time": 270,
      "duration": 1,
      "velocity": 0.71,
      "hand": "left"
    },
    {
      "midi": 56,
      "time": 270,
      "duration": 1,
      "velocity": 0.71,
      "hand": "left"
    },
    {
      "midi": 61,
      "time": 270,
      "duration": 0.5,
      "velocity": 0.71,
      "hand": "right"
    },
    {
      "midi": 68,
      "time": 270,
      "duration": 0.985,
      "velocity": 0.71,
      "hand": "right"
    },
    {
      "midi": 73,
      "time": 270,
      "duration": 0.5,
      "velocity": 0.71,
      "hand": "right"
    },
    {
      "midi": 63,
      "time": 270.5,
      "duration": 0.5,
      "velocity": 0.71,
      "hand": "right"
    },
    {
      "midi": 75,
      "time": 270.5,
      "duration": 0.5,
      "velocity": 0.71,
      "hand": "right"
    },
    {
      "midi": 59,
      "time": 271,
      "duration": 3,
      "velocity": 0.71,
      "hand": "left"
    },
    {
      "midi": 65,
      "time": 271,
      "duration": 1.485,
      "velocity": 0.71,
      "hand": "right"
    },
    {
      "midi": 68,
      "time": 271,
      "duration": 1.5,
      "velocity": 0.71,
      "hand": "right"
    },
    {
      "midi": 77,
      "time": 271,
      "duration": 1.485,
      "velocity": 0.71,
      "hand": "right"
    },
    {
      "midi": 80,
      "time": 271,
      "duration": 1.5,
      "velocity": 0.71,
      "hand": "right"
    },
    {
      "midi": 61,
      "time": 272.5,
      "duration": 1.5,
      "velocity": 0.71,
      "hand": "right"
    },
    {
      "midi": 65,
      "time": 272.5,
      "duration": 1.5,
      "velocity": 0.71,
      "hand": "right"
    },
    {
      "midi": 73,
      "time": 272.5,
      "duration": 1.5,
      "velocity": 0.71,
      "hand": "right"
    },
    {
      "midi": 77,
      "time": 272.5,
      "duration": 2,
      "velocity": 0.71,
      "hand": "right"
    },
    {
      "midi": 46,
      "time": 274,
      "duration": 3,
      "velocity": 0.71,
      "hand": "left"
    },
    {
      "midi": 53,
      "time": 274.5,
      "duration": 4,
      "velocity": 0.71,
      "hand": "left"
    },
    {
      "midi": 58,
      "time": 274.5,
      "duration": 4,
      "velocity": 0.71,
      "hand": "left"
    },
    {
      "midi": 63,
      "time": 274.5,
      "duration": 2.5,
      "velocity": 0.71,
      "hand": "right"
    },
    {
      "midi": 65,
      "time": 274.5,
      "duration": 4,
      "velocity": 0.71,
      "hand": "right"
    },
    {
      "midi": 70,
      "time": 274.5,
      "duration": 4,
      "velocity": 0.71,
      "hand": "right"
    },
    {
      "midi": 75,
      "time": 274.5,
      "duration": 0.5,
      "velocity": 0.71,
      "hand": "right"
    },
    {
      "midi": 77,
      "time": 275,
      "duration": 0.5,
      "velocity": 0.71,
      "hand": "right"
    },
    {
      "midi": 75,
      "time": 275.5,
      "duration": 1.5,
      "velocity": 0.71,
      "hand": "right"
    },
    {
      "midi": 61,
      "time": 277,
      "duration": 1.5,
      "velocity": 0.71,
      "hand": "right"
    },
    {
      "midi": 73,
      "time": 277,
      "duration": 1.5,
      "velocity": 0.71,
      "hand": "right"
    },
    {
      "midi": 41,
      "time": 278.5,
      "duration": 4.5,
      "velocity": 0.71,
      "hand": "left"
    },
    {
      "midi": 56,
      "time": 279,
      "duration": 1,
      "velocity": 0.71,
      "hand": "left"
    },
    {
      "midi": 61,
      "time": 279,
      "duration": 0.5,
      "velocity": 0.71,
      "hand": "right"
    },
    {
      "midi": 63,
      "time": 279.5,
      "duration": 0.5,
      "velocity": 0.71,
      "hand": "right"
    },
    {
      "midi": 61,
      "time": 280,
      "duration": 1.485,
      "velocity": 0.71,
      "hand": "right"
    },
    {
      "midi": 65,
      "time": 280,
      "duration": 1.485,
      "velocity": 0.71,
      "hand": "right"
    },
    {
      "midi": 70,
      "time": 280,
      "duration": 1.5,
      "velocity": 0.71,
      "hand": "right"
    },
    {
      "midi": 56,
      "time": 281.5,
      "duration": 1.5,
      "velocity": 0.71,
      "hand": "left"
    },
    {
      "midi": 61,
      "time": 281.5,
      "duration": 1.5,
      "velocity": 0.71,
      "hand": "right"
    },
    {
      "midi": 65,
      "time": 281.5,
      "duration": 1.5,
      "velocity": 0.71,
      "hand": "right"
    },
    {
      "midi": 39,
      "time": 283,
      "duration": 1.5,
      "velocity": 0.71,
      "hand": "left"
    },
    {
      "midi": 58,
      "time": 283.5,
      "duration": 1,
      "velocity": 0.71,
      "hand": "left"
    },
    {
      "midi": 61,
      "time": 283.5,
      "duration": 1,
      "velocity": 0.71,
      "hand": "right"
    },
    {
      "midi": 66,
      "time": 283.5,
      "duration": 0.5,
      "velocity": 0.71,
      "hand": "right"
    },
    {
      "midi": 68,
      "time": 284,
      "duration": 0.5,
      "velocity": 0.71,
      "hand": "right"
    },
    {
      "midi": 51,
      "time": 284.5,
      "duration": 1.5,
      "velocity": 0.71,
      "hand": "left"
    },
    {
      "midi": 66,
      "time": 284.5,
      "duration": 1.485,
      "velocity": 0.71,
      "hand": "right"
    },
    {
      "midi": 70,
      "time": 284.5,
      "duration": 1.485,
      "velocity": 0.71,
      "hand": "right"
    },
    {
      "midi": 73,
      "time": 284.5,
      "duration": 1.5,
      "velocity": 0.71,
      "hand": "right"
    },
    {
      "midi": 61,
      "time": 286,
      "duration": 1.5,
      "velocity": 0.71,
      "hand": "right"
    },
    {
      "midi": 63,
      "time": 286,
      "duration": 1.5,
      "velocity": 0.71,
      "hand": "right"
    },
    {
      "midi": 66,
      "time": 286,
      "duration": 1.5,
      "velocity": 0.71,
      "hand": "right"
    },
    {
      "midi": 70,
      "time": 286,
      "duration": 1.5,
      "velocity": 0.71,
      "hand": "right"
    },
    {
      "midi": 44,
      "time": 287.5,
      "duration": 3,
      "velocity": 0.71,
      "hand": "left"
    },
    {
      "midi": 60,
      "time": 288,
      "duration": 1,
      "velocity": 0.71,
      "hand": "right"
    },
    {
      "midi": 66,
      "time": 288,
      "duration": 1,
      "velocity": 0.71,
      "hand": "right"
    },
    {
      "midi": 70,
      "time": 288,
      "duration": 0.5,
      "velocity": 0.71,
      "hand": "right"
    },
    {
      "midi": 51,
      "time": 288.25,
      "duration": 0.75,
      "velocity": 0.71,
      "hand": "left"
    },
    {
      "midi": 72,
      "time": 288.5,
      "duration": 0.485,
      "velocity": 0.71,
      "hand": "right"
    },
    {
      "midi": 68,
      "time": 289,
      "duration": 1.485,
      "velocity": 0.71,
      "hand": "right"
    },
    {
      "midi": 72,
      "time": 289,
      "duration": 1.5,
      "velocity": 0.71,
      "hand": "right"
    },
    {
      "midi": 77,
      "time": 289,
      "duration": 1.5,
      "velocity": 0.71,
      "hand": "right"
    },
    {
      "midi": 80,
      "time": 289,
      "duration": 1.5,
      "velocity": 0.71,
      "hand": "right"
    },
    {
      "midi": 56,
      "time": 290.5,
      "duration": 1.5,
      "velocity": 0.71,
      "hand": "left"
    },
    {
      "midi": 60,
      "time": 290.5,
      "duration": 1.5,
      "velocity": 0.71,
      "hand": "right"
    },
    {
      "midi": 66,
      "time": 290.5,
      "duration": 1.5,
      "velocity": 0.71,
      "hand": "right"
    },
    {
      "midi": 68,
      "time": 290.5,
      "duration": 1.5,
      "velocity": 0.71,
      "hand": "right"
    },
    {
      "midi": 37,
      "time": 292,
      "duration": 1.5,
      "velocity": 0.71,
      "hand": "left"
    },
    {
      "midi": 44,
      "time": 292.25,
      "duration": 0.25,
      "velocity": 0.71,
      "hand": "left"
    },
    {
      "midi": 49,
      "time": 292.5,
      "duration": 0.25,
      "velocity": 0.71,
      "hand": "left"
    },
    {
      "midi": 53,
      "time": 292.75,
      "duration": 0.25,
      "velocity": 0.71,
      "hand": "left"
    },
    {
      "midi": 56,
      "time": 293,
      "duration": 0.25,
      "velocity": 0.71,
      "hand": "left"
    },
    {
      "midi": 61,
      "time": 293.25,
      "duration": 0.25,
      "velocity": 0.71,
      "hand": "right"
    },
    {
      "midi": 41,
      "time": 293.5,
      "duration": 1.5,
      "velocity": 0.71,
      "hand": "left"
    },
    {
      "midi": 48,
      "time": 293.75,
      "duration": 0.25,
      "velocity": 0.71,
      "hand": "left"
    },
    {
      "midi": 53,
      "time": 294,
      "duration": 0.25,
      "velocity": 0.71,
      "hand": "left"
    },
    {
      "midi": 56,
      "time": 294.25,
      "duration": 0.25,
      "velocity": 0.71,
      "hand": "left"
    },
    {
      "midi": 60,
      "time": 294.5,
      "duration": 0.25,
      "velocity": 0.71,
      "hand": "right"
    },
    {
      "midi": 65,
      "time": 294.75,
      "duration": 0.25,
      "velocity": 0.71,
      "hand": "right"
    },
    {
      "midi": 37,
      "time": 295,
      "duration": 1.5,
      "velocity": 0.71,
      "hand": "left"
    },
    {
      "midi": 44,
      "time": 295.25,
      "duration": 0.25,
      "velocity": 0.71,
      "hand": "left"
    },
    {
      "midi": 49,
      "time": 295.5,
      "duration": 0.25,
      "velocity": 0.71,
      "hand": "left"
    },
    {
      "midi": 53,
      "time": 295.75,
      "duration": 0.25,
      "velocity": 0.71,
      "hand": "left"
    },
    {
      "midi": 56,
      "time": 296,
      "duration": 0.25,
      "velocity": 0.71,
      "hand": "left"
    },
    {
      "midi": 61,
      "time": 296.25,
      "duration": 0.25,
      "velocity": 0.71,
      "hand": "right"
    },
    {
      "midi": 41,
      "time": 296.5,
      "duration": 1.5,
      "velocity": 0.71,
      "hand": "left"
    },
    {
      "midi": 48,
      "time": 296.75,
      "duration": 0.25,
      "velocity": 0.71,
      "hand": "left"
    },
    {
      "midi": 53,
      "time": 297,
      "duration": 0.25,
      "velocity": 0.71,
      "hand": "left"
    },
    {
      "midi": 56,
      "time": 297.25,
      "duration": 0.25,
      "velocity": 0.71,
      "hand": "left"
    },
    {
      "midi": 60,
      "time": 297.5,
      "duration": 0.25,
      "velocity": 0.71,
      "hand": "right"
    },
    {
      "midi": 65,
      "time": 297.75,
      "duration": 0.25,
      "velocity": 0.71,
      "hand": "right"
    },
    {
      "midi": 44,
      "time": 298,
      "duration": 3,
      "velocity": 0.71,
      "hand": "left"
    },
    {
      "midi": 68,
      "time": 298,
      "duration": 1.485,
      "velocity": 0.71,
      "hand": "right"
    },
    {
      "midi": 71,
      "time": 298,
      "duration": 1.5,
      "velocity": 0.71,
      "hand": "right"
    },
    {
      "midi": 52,
      "time": 298.25,
      "duration": 0.25,
      "velocity": 0.71,
      "hand": "left"
    },
    {
      "midi": 56,
      "time": 298.5,
      "duration": 0.25,
      "velocity": 0.71,
      "hand": "left"
    },
    {
      "midi": 59,
      "time": 298.75,
      "duration": 0.25,
      "velocity": 0.71,
      "hand": "left"
    },
    {
      "midi": 64,
      "time": 299,
      "duration": 0.25,
      "velocity": 0.71,
      "hand": "right"
    },
    {
      "midi": 66,
      "time": 299.25,
      "duration": 0.25,
      "velocity": 0.71,
      "hand": "right"
    },
    {
      "midi": 64,
      "time": 299.5,
      "duration": 1.5,
      "velocity": 0.71,
      "hand": "right"
    },
    {
      "midi": 68,
      "time": 299.5,
      "duration": 1.5,
      "velocity": 0.71,
      "hand": "right"
    },
    {
      "midi": 73,
      "time": 299.5,
      "duration": 1.5,
      "velocity": 0.71,
      "hand": "right"
    },
    {
      "midi": 49,
      "time": 301,
      "duration": 1.5,
      "velocity": 0.71,
      "hand": "left"
    },
    {
      "midi": 56,
      "time": 301.25,
      "duration": 0.25,
      "velocity": 0.71,
      "hand": "left"
    },
    {
      "midi": 61,
      "time": 301.5,
      "duration": 0.25,
      "velocity": 0.71,
      "hand": "right"
    },
    {
      "midi": 65,
      "time": 301.75,
      "duration": 0.25,
      "velocity": 0.71,
      "hand": "right"
    },
    {
      "midi": 68,
      "time": 302,
      "duration": 0.25,
      "velocity": 0.71,
      "hand": "right"
    },
    {
      "midi": 73,
      "time": 302.25,
      "duration": 0.25,
      "velocity": 0.71,
      "hand": "right"
    },
    {
      "midi": 53,
      "time": 302.5,
      "duration": 1.5,
      "velocity": 0.71,
      "hand": "left"
    },
    {
      "midi": 60,
      "time": 302.75,
      "duration": 0.25,
      "velocity": 0.71,
      "hand": "right"
    },
    {
      "midi": 65,
      "time": 303,
      "duration": 0.25,
      "velocity": 0.71,
      "hand": "right"
    },
    {
      "midi": 68,
      "time": 303.25,
      "duration": 0.25,
      "velocity": 0.71,
      "hand": "right"
    },
    {
      "midi": 72,
      "time": 303.5,
      "duration": 0.25,
      "velocity": 0.71,
      "hand": "right"
    },
    {
      "midi": 77,
      "time": 303.75,
      "duration": 0.25,
      "velocity": 0.71,
      "hand": "right"
    },
    {
      "midi": 49,
      "time": 304,
      "duration": 1.5,
      "velocity": 0.71,
      "hand": "left"
    },
    {
      "midi": 56,
      "time": 304.25,
      "duration": 0.25,
      "velocity": 0.71,
      "hand": "left"
    },
    {
      "midi": 61,
      "time": 304.5,
      "duration": 0.25,
      "velocity": 0.71,
      "hand": "right"
    },
    {
      "midi": 65,
      "time": 304.75,
      "duration": 0.25,
      "velocity": 0.71,
      "hand": "right"
    },
    {
      "midi": 68,
      "time": 305,
      "duration": 0.25,
      "velocity": 0.71,
      "hand": "right"
    },
    {
      "midi": 73,
      "time": 305.25,
      "duration": 0.25,
      "velocity": 0.71,
      "hand": "right"
    },
    {
      "midi": 53,
      "time": 305.5,
      "duration": 1.5,
      "velocity": 0.71,
      "hand": "left"
    },
    {
      "midi": 60,
      "time": 305.75,
      "duration": 0.25,
      "velocity": 0.71,
      "hand": "right"
    },
    {
      "midi": 65,
      "time": 306,
      "duration": 0.25,
      "velocity": 0.71,
      "hand": "right"
    },
    {
      "midi": 68,
      "time": 306.25,
      "duration": 0.25,
      "velocity": 0.71,
      "hand": "right"
    },
    {
      "midi": 72,
      "time": 306.5,
      "duration": 0.25,
      "velocity": 0.71,
      "hand": "right"
    },
    {
      "midi": 77,
      "time": 306.75,
      "duration": 0.25,
      "velocity": 0.71,
      "hand": "right"
    },
    {
      "midi": 56,
      "time": 307,
      "duration": 2.985,
      "velocity": 0.71,
      "hand": "left"
    },
    {
      "midi": 80,
      "time": 307,
      "duration": 2.985,
      "velocity": 0.71,
      "hand": "right"
    },
    {
      "midi": 83,
      "time": 307,
      "duration": 1.5,
      "velocity": 0.71,
      "hand": "right"
    },
    {
      "midi": 59,
      "time": 307.25,
      "duration": 0.25,
      "velocity": 0.71,
      "hand": "left"
    },
    {
      "midi": 64,
      "time": 307.5,
      "duration": 0.25,
      "velocity": 0.71,
      "hand": "right"
    },
    {
      "midi": 68,
      "time": 307.75,
      "duration": 0.25,
      "velocity": 0.71,
      "hand": "right"
    },
    {
      "midi": 71,
      "time": 308,
      "duration": 0.25,
      "velocity": 0.71,
      "hand": "right"
    },
    {
      "midi": 76,
      "time": 308.25,
      "duration": 1.75,
      "velocity": 0.71,
      "hand": "right"
    },
    {
      "midi": 73,
      "time": 308.5,
      "duration": 1.5,
      "velocity": 0.71,
      "hand": "right"
    },
    {
      "midi": 56,
      "time": 310,
      "duration": 3,
      "velocity": 0.71,
      "hand": "left"
    },
    {
      "midi": 80,
      "time": 310,
      "duration": 3,
      "velocity": 0.71,
      "hand": "right"
    },
    {
      "midi": 83,
      "time": 310,
      "duration": 1.5,
      "velocity": 0.71,
      "hand": "right"
    },
    {
      "midi": 59,
      "time": 310.25,
      "duration": 0.25,
      "velocity": 0.71,
      "hand": "left"
    },
    {
      "midi": 64,
      "time": 310.5,
      "duration": 0.25,
      "velocity": 0.71,
      "hand": "right"
    },
    {
      "midi": 68,
      "time": 310.75,
      "duration": 0.25,
      "velocity": 0.71,
      "hand": "right"
    },
    {
      "midi": 71,
      "time": 311,
      "duration": 0.25,
      "velocity": 0.71,
      "hand": "right"
    },
    {
      "midi": 76,
      "time": 311.25,
      "duration": 1.735,
      "velocity": 0.71,
      "hand": "right"
    },
    {
      "midi": 73,
      "time": 311.5,
      "duration": 1.5,
      "velocity": 0.71,
      "hand": "right"
    },
    {
      "midi": 44,
      "time": 313,
      "duration": 1.5,
      "velocity": 0.71,
      "hand": "left"
    },
    {
      "midi": 76,
      "time": 313,
      "duration": 1.5,
      "velocity": 0.71,
      "hand": "right"
    },
    {
      "midi": 37,
      "time": 314.5,
      "duration": 3,
      "velocity": 0.71,
      "hand": "left"
    },
    {
      "midi": 77,
      "time": 314.5,
      "duration": 2.985,
      "velocity": 0.71,
      "hand": "right"
    },
    {
      "midi": 80,
      "time": 314.5,
      "duration": 3.485,
      "velocity": 0.71,
      "hand": "right"
    },
    {
      "midi": 44,
      "time": 314.75,
      "duration": 0.25,
      "velocity": 0.71,
      "hand": "left"
    },
    {
      "midi": 49,
      "time": 315,
      "duration": 0.25,
      "velocity": 0.71,
      "hand": "left"
    },
    {
      "midi": 53,
      "time": 315.25,
      "duration": 0.25,
      "velocity": 0.71,
      "hand": "left"
    },
    {
      "midi": 56,
      "time": 315.5,
      "duration": 0.25,
      "velocity": 0.71,
      "hand": "left"
    },
    {
      "midi": 61,
      "time": 315.75,
      "duration": 0.25,
      "velocity": 0.71,
      "hand": "right"
    },
    {
      "midi": 65,
      "time": 316,
      "duration": 0.5,
      "velocity": 0.71,
      "hand": "right"
    },
    {
      "midi": 68,
      "time": 316.5,
      "duration": 0.5,
      "velocity": 0.71,
      "hand": "right"
    },
    {
      "midi": 73,
      "time": 317,
      "duration": 0.5,
      "velocity": 0.71,
      "hand": "right"
    },
    {
      "midi": 77,
      "time": 317.5,
      "duration": 0.5,
      "velocity": 0.71,
      "hand": "right"
    },
    {
      "midi": 80,
      "time": 318,
      "duration": 0.5,
      "velocity": 0.71,
      "hand": "right"
    },
    {
      "midi": 73,
      "time": 318.5,
      "duration": 0.485,
      "velocity": 0.71,
      "hand": "right"
    },
    {
      "midi": 68,
      "time": 319,
      "duration": 3,
      "velocity": 0.71,
      "hand": "right"
    },
    {
      "midi": 73,
      "time": 319,
      "duration": 3,
      "velocity": 0.71,
      "hand": "right"
    },
    {
      "midi": 77,
      "time": 319,
      "duration": 3,
      "velocity": 0.71,
      "hand": "right"
    },
    {
      "midi": 80,
      "time": 319,
      "duration": 3,
      "velocity": 0.71,
      "hand": "right"
    }
  ]
}
