{
  "id": "swan-lake-napolitan-dance",
  "title": "Lago dos Cisnes: Dança Napolitana",
  "artist": "Piotr Ilitch Tchaikovsky",
  "difficulty": "Médio",
  "bpm": 72,
  "duration": 89,
  "category": "Intro de Filmes",
  "isPremium": true,
  "coverUrl": "/images/covers/placeholder.png",
  "notes": [
    {
      "midi": 51,
      "time": 0,
      "duration": 0.833,
      "velocity": 1,
      "hand": "left"
    },
    {
      "midi": 55,
      "time": 0.417,
      "duration": 0.208,
      "velocity": 1,
      "hand": "left"
    },
    {
      "midi": 58,
      "time": 0.417,
      "duration": 0.208,
      "velocity": 1,
      "hand": "left"
    },
    {
      "midi": 60,
      "time": 0.417,
      "duration": 0.208,
      "velocity": 1,
      "hand": "right"
    },
    {
      "midi": 63,
      "time": 0.417,
      "duration": 0.208,
      "velocity": 1,
      "hand": "right"
    },
    {
      "midi": 55,
      "time": 0.625,
      "duration": 0.208,
      "velocity": 1,
      "hand": "left"
    },
    {
      "midi": 58,
      "time": 0.625,
      "duration": 0.208,
      "velocity": 1,
      "hand": "left"
    },
    {
      "midi": 60,
      "time": 0.625,
      "duration": 0.208,
      "velocity": 1,
      "hand": "right"
    },
    {
      "midi": 63,
      "time": 0.625,
      "duration": 0.208,
      "velocity": 1,
      "hand": "right"
    },
    {
      "midi": 55,
      "time": 0.833,
      "duration": 0.417,
      "velocity": 1,
      "hand": "left"
    },
    {
      "midi": 58,
      "time": 0.833,
      "duration": 0.417,
      "velocity": 1,
      "hand": "left"
    },
    {
      "midi": 60,
      "time": 0.833,
      "duration": 0.417,
      "velocity": 1,
      "hand": "right"
    },
    {
      "midi": 63,
      "time": 0.833,
      "duration": 0.417,
      "velocity": 1,
      "hand": "right"
    },
    {
      "midi": 55,
      "time": 1.25,
      "duration": 0.417,
      "velocity": 1,
      "hand": "left"
    },
    {
      "midi": 58,
      "time": 1.25,
      "duration": 0.417,
      "velocity": 1,
      "hand": "left"
    },
    {
      "midi": 60,
      "time": 1.25,
      "duration": 0.417,
      "velocity": 1,
      "hand": "right"
    },
    {
      "midi": 63,
      "time": 1.25,
      "duration": 0.417,
      "velocity": 1,
      "hand": "right"
    },
    {
      "midi": 46,
      "time": 1.667,
      "duration": 0.833,
      "velocity": 1,
      "hand": "left"
    },
    {
      "midi": 55,
      "time": 2.083,
      "duration": 0.208,
      "velocity": 1,
      "hand": "left"
    },
    {
      "midi": 58,
      "time": 2.083,
      "duration": 0.208,
      "velocity": 1,
      "hand": "left"
    },
    {
      "midi": 60,
      "time": 2.083,
      "duration": 0.208,
      "velocity": 1,
      "hand": "right"
    },
    {
      "midi": 63,
      "time": 2.083,
      "duration": 0.208,
      "velocity": 1,
      "hand": "right"
    },
    {
      "midi": 72,
      "time": 2.083,
      "duration": 0.208,
      "velocity": 1,
      "hand": "right"
    },
    {
      "midi": 55,
      "time": 2.292,
      "duration": 0.208,
      "velocity": 1,
      "hand": "left"
    },
    {
      "midi": 58,
      "time": 2.292,
      "duration": 0.208,
      "velocity": 1,
      "hand": "left"
    },
    {
      "midi": 60,
      "time": 2.292,
      "duration": 0.208,
      "velocity": 1,
      "hand": "right"
    },
    {
      "midi": 63,
      "time": 2.292,
      "duration": 0.208,
      "velocity": 1,
      "hand": "right"
    },
    {
      "midi": 74,
      "time": 2.292,
      "duration": 0.208,
      "velocity": 1,
      "hand": "right"
    },
    {
      "midi": 55,
      "time": 2.5,
      "duration": 0.417,
      "velocity": 1,
      "hand": "left"
    },
    {
      "midi": 58,
      "time": 2.5,
      "duration": 0.417,
      "velocity": 1,
      "hand": "left"
    },
    {
      "midi": 60,
      "time": 2.5,
      "duration": 0.417,
      "velocity": 1,
      "hand": "right"
    },
    {
      "midi": 63,
      "time": 2.5,
      "duration": 0.417,
      "velocity": 1,
      "hand": "right"
    },
    {
      "midi": 77,
      "time": 2.5,
      "duration": 0.208,
      "velocity": 1,
      "hand": "right"
    },
    {
      "midi": 76,
      "time": 2.708,
      "duration": 0.208,
      "velocity": 1,
      "hand": "right"
    },
    {
      "midi": 55,
      "time": 2.917,
      "duration": 0.417,
      "velocity": 1,
      "hand": "left"
    },
    {
      "midi": 58,
      "time": 2.917,
      "duration": 0.417,
      "velocity": 1,
      "hand": "left"
    },
    {
      "midi": 60,
      "time": 2.917,
      "duration": 0.417,
      "velocity": 1,
      "hand": "right"
    },
    {
      "midi": 63,
      "time": 2.917,
      "duration": 0.417,
      "velocity": 1,
      "hand": "right"
    },
    {
      "midi": 74,
      "time": 2.917,
      "duration": 0.208,
      "velocity": 1,
      "hand": "right"
    },
    {
      "midi": 72,
      "time": 3.125,
      "duration": 0.208,
      "velocity": 1,
      "hand": "right"
    },
    {
      "midi": 53,
      "time": 3.333,
      "duration": 0.833,
      "velocity": 1,
      "hand": "left"
    },
    {
      "midi": 76,
      "time": 3.333,
      "duration": 0.417,
      "velocity": 1,
      "hand": "right"
    },
    {
      "midi": 56,
      "time": 3.75,
      "duration": 0.208,
      "velocity": 1,
      "hand": "left"
    },
    {
      "midi": 58,
      "time": 3.75,
      "duration": 0.208,
      "velocity": 1,
      "hand": "left"
    },
    {
      "midi": 60,
      "time": 3.75,
      "duration": 0.417,
      "velocity": 1,
      "hand": "right"
    },
    {
      "midi": 62,
      "time": 3.75,
      "duration": 0.208,
      "velocity": 1,
      "hand": "right"
    },
    {
      "midi": 56,
      "time": 3.958,
      "duration": 0.208,
      "velocity": 1,
      "hand": "left"
    },
    {
      "midi": 58,
      "time": 3.958,
      "duration": 0.208,
      "velocity": 1,
      "hand": "left"
    },
    {
      "midi": 62,
      "time": 3.958,
      "duration": 0.208,
      "velocity": 1,
      "hand": "right"
    },
    {
      "midi": 56,
      "time": 4.167,
      "duration": 0.417,
      "velocity": 1,
      "hand": "left"
    },
    {
      "midi": 58,
      "time": 4.167,
      "duration": 0.417,
      "velocity": 1,
      "hand": "left"
    },
    {
      "midi": 62,
      "time": 4.167,
      "duration": 0.417,
      "velocity": 1,
      "hand": "right"
    },
    {
      "midi": 76,
      "time": 4.167,
      "duration": 0.833,
      "velocity": 1,
      "hand": "right"
    },
    {
      "midi": 56,
      "time": 4.583,
      "duration": 0.417,
      "velocity": 1,
      "hand": "left"
    },
    {
      "midi": 58,
      "time": 4.583,
      "duration": 0.417,
      "velocity": 1,
      "hand": "left"
    },
    {
      "midi": 60,
      "time": 4.583,
      "duration": 0.417,
      "velocity": 1,
      "hand": "right"
    },
    {
      "midi": 62,
      "time": 4.583,
      "duration": 0.417,
      "velocity": 1,
      "hand": "right"
    },
    {
      "midi": 46,
      "time": 5,
      "duration": 0.833,
      "velocity": 1,
      "hand": "left"
    },
    {
      "midi": 76,
      "time": 5,
      "duration": 0.417,
      "velocity": 1,
      "hand": "right"
    },
    {
      "midi": 56,
      "time": 5.417,
      "duration": 0.208,
      "velocity": 1,
      "hand": "left"
    },
    {
      "midi": 58,
      "time": 5.417,
      "duration": 0.208,
      "velocity": 1,
      "hand": "left"
    },
    {
      "midi": 60,
      "time": 5.417,
      "duration": 0.208,
      "velocity": 1,
      "hand": "right"
    },
    {
      "midi": 62,
      "time": 5.417,
      "duration": 0.208,
      "velocity": 1,
      "hand": "right"
    },
    {
      "midi": 74,
      "time": 5.417,
      "duration": 0.208,
      "velocity": 1,
      "hand": "right"
    },
    {
      "midi": 56,
      "time": 5.625,
      "duration": 0.208,
      "velocity": 1,
      "hand": "left"
    },
    {
      "midi": 58,
      "time": 5.625,
      "duration": 0.208,
      "velocity": 1,
      "hand": "left"
    },
    {
      "midi": 60,
      "time": 5.625,
      "duration": 0.208,
      "velocity": 1,
      "hand": "right"
    },
    {
      "midi": 62,
      "time": 5.625,
      "duration": 0.208,
      "velocity": 1,
      "hand": "right"
    },
    {
      "midi": 76,
      "time": 5.625,
      "duration": 0.208,
      "velocity": 1,
      "hand": "right"
    },
    {
      "midi": 56,
      "time": 5.833,
      "duration": 0.417,
      "velocity": 1,
      "hand": "left"
    },
    {
      "midi": 58,
      "time": 5.833,
      "duration": 0.417,
      "velocity": 1,
      "hand": "left"
    },
    {
      "midi": 60,
      "time": 5.833,
      "duration": 0.417,
      "velocity": 1,
      "hand": "right"
    },
    {
      "midi": 62,
      "time": 5.833,
      "duration": 0.417,
      "velocity": 1,
      "hand": "right"
    },
    {
      "midi": 77,
      "time": 5.833,
      "duration": 0.208,
      "velocity": 1,
      "hand": "right"
    },
    {
      "midi": 76,
      "time": 6.042,
      "duration": 0.208,
      "velocity": 1,
      "hand": "right"
    },
    {
      "midi": 56,
      "time": 6.25,
      "duration": 0.417,
      "velocity": 1,
      "hand": "left"
    },
    {
      "midi": 58,
      "time": 6.25,
      "duration": 0.417,
      "velocity": 1,
      "hand": "left"
    },
    {
      "midi": 60,
      "time": 6.25,
      "duration": 0.417,
      "velocity": 1,
      "hand": "right"
    },
    {
      "midi": 62,
      "time": 6.25,
      "duration": 0.417,
      "velocity": 1,
      "hand": "right"
    },
    {
      "midi": 74,
      "time": 6.25,
      "duration": 0.208,
      "velocity": 1,
      "hand": "right"
    },
    {
      "midi": 76,
      "time": 6.458,
      "duration": 0.208,
      "velocity": 1,
      "hand": "right"
    },
    {
      "midi": 51,
      "time": 6.667,
      "duration": 0.833,
      "velocity": 1,
      "hand": "left"
    },
    {
      "midi": 74,
      "time": 6.667,
      "duration": 0.417,
      "velocity": 1,
      "hand": "right"
    },
    {
      "midi": 55,
      "time": 7.083,
      "duration": 0.208,
      "velocity": 1,
      "hand": "left"
    },
    {
      "midi": 58,
      "time": 7.083,
      "duration": 0.208,
      "velocity": 1,
      "hand": "left"
    },
    {
      "midi": 60,
      "time": 7.083,
      "duration": 0.417,
      "velocity": 1,
      "hand": "right"
    },
    {
      "midi": 63,
      "time": 7.083,
      "duration": 0.208,
      "velocity": 1,
      "hand": "right"
    },
    {
      "midi": 55,
      "time": 7.292,
      "duration": 0.208,
      "velocity": 1,
      "hand": "left"
    },
    {
      "midi": 58,
      "time": 7.292,
      "duration": 0.208,
      "velocity": 1,
      "hand": "left"
    },
    {
      "midi": 63,
      "time": 7.292,
      "duration": 0.208,
      "velocity": 1,
      "hand": "right"
    },
    {
      "midi": 55,
      "time": 7.5,
      "duration": 0.417,
      "velocity": 1,
      "hand": "left"
    },
    {
      "midi": 58,
      "time": 7.5,
      "duration": 0.417,
      "velocity": 1,
      "hand": "left"
    },
    {
      "midi": 63,
      "time": 7.5,
      "duration": 0.417,
      "velocity": 1,
      "hand": "right"
    },
    {
      "midi": 72,
      "time": 7.5,
      "duration": 0.833,
      "velocity": 1,
      "hand": "right"
    },
    {
      "midi": 55,
      "time": 7.917,
      "duration": 0.417,
      "velocity": 1,
      "hand": "left"
    },
    {
      "midi": 58,
      "time": 7.917,
      "duration": 0.417,
      "velocity": 1,
      "hand": "left"
    },
    {
      "midi": 60,
      "time": 7.917,
      "duration": 0.417,
      "velocity": 1,
      "hand": "right"
    },
    {
      "midi": 63,
      "time": 7.917,
      "duration": 0.417,
      "velocity": 1,
      "hand": "right"
    },
    {
      "midi": 46,
      "time": 8.333,
      "duration": 0.833,
      "velocity": 1,
      "hand": "left"
    },
    {
      "midi": 72,
      "time": 8.333,
      "duration": 0.417,
      "velocity": 1,
      "hand": "right"
    },
    {
      "midi": 55,
      "time": 8.75,
      "duration": 0.208,
      "velocity": 1,
      "hand": "left"
    },
    {
      "midi": 58,
      "time": 8.75,
      "duration": 0.208,
      "velocity": 1,
      "hand": "left"
    },
    {
      "midi": 60,
      "time": 8.75,
      "duration": 0.208,
      "velocity": 1,
      "hand": "right"
    },
    {
      "midi": 63,
      "time": 8.75,
      "duration": 0.208,
      "velocity": 1,
      "hand": "right"
    },
    {
      "midi": 72,
      "time": 8.75,
      "duration": 0.208,
      "velocity": 1,
      "hand": "right"
    },
    {
      "midi": 55,
      "time": 8.958,
      "duration": 0.208,
      "velocity": 1,
      "hand": "left"
    },
    {
      "midi": 58,
      "time": 8.958,
      "duration": 0.208,
      "velocity": 1,
      "hand": "left"
    },
    {
      "midi": 60,
      "time": 8.958,
      "duration": 0.208,
      "velocity": 1,
      "hand": "right"
    },
    {
      "midi": 63,
      "time": 8.958,
      "duration": 0.208,
      "velocity": 1,
      "hand": "right"
    },
    {
      "midi": 72,
      "time": 8.958,
      "duration": 0.208,
      "velocity": 1,
      "hand": "right"
    },
    {
      "midi": 55,
      "time": 9.167,
      "duration": 0.417,
      "velocity": 1,
      "hand": "left"
    },
    {
      "midi": 58,
      "time": 9.167,
      "duration": 0.417,
      "velocity": 1,
      "hand": "left"
    },
    {
      "midi": 60,
      "time": 9.167,
      "duration": 0.417,
      "velocity": 1,
      "hand": "right"
    },
    {
      "midi": 63,
      "time": 9.167,
      "duration": 0.417,
      "velocity": 1,
      "hand": "right"
    },
    {
      "midi": 74,
      "time": 9.167,
      "duration": 0.208,
      "velocity": 1,
      "hand": "right"
    },
    {
      "midi": 72,
      "time": 9.375,
      "duration": 0.208,
      "velocity": 1,
      "hand": "right"
    },
    {
      "midi": 55,
      "time": 9.583,
      "duration": 0.417,
      "velocity": 1,
      "hand": "left"
    },
    {
      "midi": 58,
      "time": 9.583,
      "duration": 0.417,
      "velocity": 1,
      "hand": "left"
    },
    {
      "midi": 60,
      "time": 9.583,
      "duration": 0.417,
      "velocity": 1,
      "hand": "right"
    },
    {
      "midi": 63,
      "time": 9.583,
      "duration": 0.417,
      "velocity": 1,
      "hand": "right"
    },
    {
      "midi": 70,
      "time": 9.583,
      "duration": 0.208,
      "velocity": 1,
      "hand": "right"
    },
    {
      "midi": 69,
      "time": 9.792,
      "duration": 0.208,
      "velocity": 1,
      "hand": "right"
    },
    {
      "midi": 53,
      "time": 10,
      "duration": 0.833,
      "velocity": 1,
      "hand": "left"
    },
    {
      "midi": 72,
      "time": 10,
      "duration": 0.417,
      "velocity": 1,
      "hand": "right"
    },
    {
      "midi": 56,
      "time": 10.417,
      "duration": 0.208,
      "velocity": 1,
      "hand": "left"
    },
    {
      "midi": 58,
      "time": 10.417,
      "duration": 0.208,
      "velocity": 1,
      "hand": "left"
    },
    {
      "midi": 60,
      "time": 10.417,
      "duration": 0.417,
      "velocity": 1,
      "hand": "right"
    },
    {
      "midi": 62,
      "time": 10.417,
      "duration": 0.208,
      "velocity": 1,
      "hand": "right"
    },
    {
      "midi": 56,
      "time": 10.625,
      "duration": 0.208,
      "velocity": 1,
      "hand": "left"
    },
    {
      "midi": 58,
      "time": 10.625,
      "duration": 0.208,
      "velocity": 1,
      "hand": "left"
    },
    {
      "midi": 62,
      "time": 10.625,
      "duration": 0.208,
      "velocity": 1,
      "hand": "right"
    },
    {
      "midi": 56,
      "time": 10.833,
      "duration": 0.417,
      "velocity": 1,
      "hand": "left"
    },
    {
      "midi": 58,
      "time": 10.833,
      "duration": 0.417,
      "velocity": 1,
      "hand": "left"
    },
    {
      "midi": 62,
      "time": 10.833,
      "duration": 0.417,
      "velocity": 1,
      "hand": "right"
    },
    {
      "midi": 70,
      "time": 10.833,
      "duration": 0.833,
      "velocity": 1,
      "hand": "right"
    },
    {
      "midi": 56,
      "time": 11.25,
      "duration": 0.417,
      "velocity": 1,
      "hand": "left"
    },
    {
      "midi": 58,
      "time": 11.25,
      "duration": 0.417,
      "velocity": 1,
      "hand": "left"
    },
    {
      "midi": 60,
      "time": 11.25,
      "duration": 0.417,
      "velocity": 1,
      "hand": "right"
    },
    {
      "midi": 62,
      "time": 11.25,
      "duration": 0.417,
      "velocity": 1,
      "hand": "right"
    },
    {
      "midi": 46,
      "time": 11.667,
      "duration": 0.833,
      "velocity": 1,
      "hand": "left"
    },
    {
      "midi": 70,
      "time": 11.667,
      "duration": 0.417,
      "velocity": 1,
      "hand": "right"
    },
    {
      "midi": 56,
      "time": 12.083,
      "duration": 0.208,
      "velocity": 1,
      "hand": "left"
    },
    {
      "midi": 58,
      "time": 12.083,
      "duration": 0.208,
      "velocity": 1,
      "hand": "left"
    },
    {
      "midi": 60,
      "time": 12.083,
      "duration": 0.208,
      "velocity": 1,
      "hand": "right"
    },
    {
      "midi": 62,
      "time": 12.083,
      "duration": 0.208,
      "velocity": 1,
      "hand": "right"
    },
    {
      "midi": 70,
      "time": 12.083,
      "duration": 0.208,
      "velocity": 1,
      "hand": "right"
    },
    {
      "midi": 56,
      "time": 12.292,
      "duration": 0.208,
      "velocity": 1,
      "hand": "left"
    },
    {
      "midi": 58,
      "time": 12.292,
      "duration": 0.208,
      "velocity": 1,
      "hand": "left"
    },
    {
      "midi": 60,
      "time": 12.292,
      "duration": 0.208,
      "velocity": 1,
      "hand": "right"
    },
    {
      "midi": 62,
      "time": 12.292,
      "duration": 0.208,
      "velocity": 1,
      "hand": "right"
    },
    {
      "midi": 70,
      "time": 12.292,
      "duration": 0.208,
      "velocity": 1,
      "hand": "right"
    },
    {
      "midi": 56,
      "time": 12.5,
      "duration": 0.417,
      "velocity": 1,
      "hand": "left"
    },
    {
      "midi": 58,
      "time": 12.5,
      "duration": 0.417,
      "velocity": 1,
      "hand": "left"
    },
    {
      "midi": 60,
      "time": 12.5,
      "duration": 0.417,
      "velocity": 1,
      "hand": "right"
    },
    {
      "midi": 62,
      "time": 12.5,
      "duration": 0.417,
      "velocity": 1,
      "hand": "right"
    },
    {
      "midi": 72,
      "time": 12.5,
      "duration": 0.208,
      "velocity": 1,
      "hand": "right"
    },
    {
      "midi": 70,
      "time": 12.708,
      "duration": 0.208,
      "velocity": 1,
      "hand": "right"
    },
    {
      "midi": 56,
      "time": 12.917,
      "duration": 0.417,
      "velocity": 1,
      "hand": "left"
    },
    {
      "midi": 58,
      "time": 12.917,
      "duration": 0.417,
      "velocity": 1,
      "hand": "left"
    },
    {
      "midi": 60,
      "time": 12.917,
      "duration": 0.417,
      "velocity": 1,
      "hand": "right"
    },
    {
      "midi": 62,
      "time": 12.917,
      "duration": 0.417,
      "velocity": 1,
      "hand": "right"
    },
    {
      "midi": 69,
      "time": 12.917,
      "duration": 0.208,
      "velocity": 1,
      "hand": "right"
    },
    {
      "midi": 67,
      "time": 13.125,
      "duration": 0.208,
      "velocity": 1,
      "hand": "right"
    },
    {
      "midi": 51,
      "time": 13.333,
      "duration": 0.833,
      "velocity": 1,
      "hand": "left"
    },
    {
      "midi": 69,
      "time": 13.333,
      "duration": 0.417,
      "velocity": 1,
      "hand": "right"
    },
    {
      "midi": 55,
      "time": 13.75,
      "duration": 0.208,
      "velocity": 1,
      "hand": "left"
    },
    {
      "midi": 58,
      "time": 13.75,
      "duration": 0.208,
      "velocity": 1,
      "hand": "left"
    },
    {
      "midi": 60,
      "time": 13.75,
      "duration": 0.417,
      "velocity": 1,
      "hand": "right"
    },
    {
      "midi": 55,
      "time": 13.958,
      "duration": 0.208,
      "velocity": 1,
      "hand": "left"
    },
    {
      "midi": 58,
      "time": 13.958,
      "duration": 0.208,
      "velocity": 1,
      "hand": "left"
    },
    {
      "midi": 55,
      "time": 14.167,
      "duration": 0.417,
      "velocity": 1,
      "hand": "left"
    },
    {
      "midi": 58,
      "time": 14.167,
      "duration": 0.417,
      "velocity": 1,
      "hand": "left"
    },
    {
      "midi": 65,
      "time": 14.167,
      "duration": 0.833,
      "velocity": 1,
      "hand": "right"
    },
    {
      "midi": 55,
      "time": 14.583,
      "duration": 0.417,
      "velocity": 1,
      "hand": "left"
    },
    {
      "midi": 58,
      "time": 14.583,
      "duration": 0.417,
      "velocity": 1,
      "hand": "left"
    },
    {
      "midi": 60,
      "time": 14.583,
      "duration": 0.417,
      "velocity": 1,
      "hand": "right"
    },
    {
      "midi": 46,
      "time": 15,
      "duration": 0.833,
      "velocity": 1,
      "hand": "left"
    },
    {
      "midi": 65,
      "time": 15,
      "duration": 1.667,
      "velocity": 1,
      "hand": "right"
    },
    {
      "midi": 55,
      "time": 15.417,
      "duration": 0.208,
      "velocity": 1,
      "hand": "left"
    },
    {
      "midi": 58,
      "time": 15.417,
      "duration": 0.208,
      "velocity": 1,
      "hand": "left"
    },
    {
      "midi": 60,
      "time": 15.417,
      "duration": 0.208,
      "velocity": 1,
      "hand": "right"
    },
    {
      "midi": 55,
      "time": 15.625,
      "duration": 0.208,
      "velocity": 1,
      "hand": "left"
    },
    {
      "midi": 58,
      "time": 15.625,
      "duration": 0.208,
      "velocity": 1,
      "hand": "left"
    },
    {
      "midi": 60,
      "time": 15.625,
      "duration": 0.208,
      "velocity": 1,
      "hand": "right"
    },
    {
      "midi": 55,
      "time": 15.833,
      "duration": 0.417,
      "velocity": 1,
      "hand": "left"
    },
    {
      "midi": 58,
      "time": 15.833,
      "duration": 0.417,
      "velocity": 1,
      "hand": "left"
    },
    {
      "midi": 60,
      "time": 15.833,
      "duration": 0.417,
      "velocity": 1,
      "hand": "right"
    },
    {
      "midi": 55,
      "time": 16.25,
      "duration": 0.417,
      "velocity": 1,
      "hand": "left"
    },
    {
      "midi": 58,
      "time": 16.25,
      "duration": 0.417,
      "velocity": 1,
      "hand": "left"
    },
    {
      "midi": 60,
      "time": 16.25,
      "duration": 0.417,
      "velocity": 1,
      "hand": "right"
    },
    {
      "midi": 51,
      "time": 16.667,
      "duration": 0.833,
      "velocity": 1,
      "hand": "left"
    },
    {
      "midi": 65,
      "time": 16.667,
      "duration": 0.417,
      "velocity": 1,
      "hand": "right"
    },
    {
      "midi": 55,
      "time": 17.083,
      "duration": 0.208,
      "velocity": 1,
      "hand": "left"
    },
    {
      "midi": 58,
      "time": 17.083,
      "duration": 0.208,
      "velocity": 1,
      "hand": "left"
    },
    {
      "midi": 60,
      "time": 17.083,
      "duration": 0.208,
      "velocity": 1,
      "hand": "right"
    },
    {
      "midi": 63,
      "time": 17.083,
      "duration": 0.208,
      "velocity": 1,
      "hand": "right"
    },
    {
      "midi": 55,
      "time": 17.292,
      "duration": 0.208,
      "velocity": 1,
      "hand": "left"
    },
    {
      "midi": 58,
      "time": 17.292,
      "duration": 0.208,
      "velocity": 1,
      "hand": "left"
    },
    {
      "midi": 60,
      "time": 17.292,
      "duration": 0.208,
      "velocity": 1,
      "hand": "right"
    },
    {
      "midi": 63,
      "time": 17.292,
      "duration": 0.208,
      "velocity": 1,
      "hand": "right"
    },
    {
      "midi": 55,
      "time": 17.5,
      "duration": 0.417,
      "velocity": 1,
      "hand": "left"
    },
    {
      "midi": 58,
      "time": 17.5,
      "duration": 0.417,
      "velocity": 1,
      "hand": "left"
    },
    {
      "midi": 60,
      "time": 17.5,
      "duration": 0.417,
      "velocity": 1,
      "hand": "right"
    },
    {
      "midi": 63,
      "time": 17.5,
      "duration": 0.417,
      "velocity": 1,
      "hand": "right"
    },
    {
      "midi": 55,
      "time": 17.917,
      "duration": 0.417,
      "velocity": 1,
      "hand": "left"
    },
    {
      "midi": 58,
      "time": 17.917,
      "duration": 0.417,
      "velocity": 1,
      "hand": "left"
    },
    {
      "midi": 60,
      "time": 17.917,
      "duration": 0.417,
      "velocity": 1,
      "hand": "right"
    },
    {
      "midi": 63,
      "time": 17.917,
      "duration": 0.417,
      "velocity": 1,
      "hand": "right"
    },
    {
      "midi": 46,
      "time": 18.333,
      "duration": 0.833,
      "velocity": 1,
      "hand": "left"
    },
    {
      "midi": 55,
      "time": 18.75,
      "duration": 0.208,
      "velocity": 1,
      "hand": "left"
    },
    {
      "midi": 58,
      "time": 18.75,
      "duration": 0.208,
      "velocity": 1,
      "hand": "left"
    },
    {
      "midi": 60,
      "time": 18.75,
      "duration": 0.208,
      "velocity": 1,
      "hand": "right"
    },
    {
      "midi": 63,
      "time": 18.75,
      "duration": 0.208,
      "velocity": 1,
      "hand": "right"
    },
    {
      "midi": 72,
      "time": 18.75,
      "duration": 0.208,
      "velocity": 1,
      "hand": "right"
    },
    {
      "midi": 55,
      "time": 18.958,
      "duration": 0.208,
      "velocity": 1,
      "hand": "left"
    },
    {
      "midi": 58,
      "time": 18.958,
      "duration": 0.208,
      "velocity": 1,
      "hand": "left"
    },
    {
      "midi": 60,
      "time": 18.958,
      "duration": 0.208,
      "velocity": 1,
      "hand": "right"
    },
    {
      "midi": 63,
      "time": 18.958,
      "duration": 0.208,
      "velocity": 1,
      "hand": "right"
    },
    {
      "midi": 74,
      "time": 18.958,
      "duration": 0.208,
      "velocity": 1,
      "hand": "right"
    },
    {
      "midi": 55,
      "time": 19.167,
      "duration": 0.417,
      "velocity": 1,
      "hand": "left"
    },
    {
      "midi": 58,
      "time": 19.167,
      "duration": 0.417,
      "velocity": 1,
      "hand": "left"
    },
    {
      "midi": 60,
      "time": 19.167,
      "duration": 0.417,
      "velocity": 1,
      "hand": "right"
    },
    {
      "midi": 63,
      "time": 19.167,
      "duration": 0.417,
      "velocity": 1,
      "hand": "right"
    },
    {
      "midi": 77,
      "time": 19.167,
      "duration": 0.208,
      "velocity": 1,
      "hand": "right"
    },
    {
      "midi": 76,
      "time": 19.375,
      "duration": 0.208,
      "velocity": 1,
      "hand": "right"
    },
    {
      "midi": 55,
      "time": 19.583,
      "duration": 0.417,
      "velocity": 1,
      "hand": "left"
    },
    {
      "midi": 58,
      "time": 19.583,
      "duration": 0.417,
      "velocity": 1,
      "hand": "left"
    },
    {
      "midi": 60,
      "time": 19.583,
      "duration": 0.417,
      "velocity": 1,
      "hand": "right"
    },
    {
      "midi": 63,
      "time": 19.583,
      "duration": 0.417,
      "velocity": 1,
      "hand": "right"
    },
    {
      "midi": 74,
      "time": 19.583,
      "duration": 0.208,
      "velocity": 1,
      "hand": "right"
    },
    {
      "midi": 72,
      "time": 19.792,
      "duration": 0.208,
      "velocity": 1,
      "hand": "right"
    },
    {
      "midi": 53,
      "time": 20,
      "duration": 0.833,
      "velocity": 1,
      "hand": "left"
    },
    {
      "midi": 76,
      "time": 20,
      "duration": 0.417,
      "velocity": 1,
      "hand": "right"
    },
    {
      "midi": 56,
      "time": 20.417,
      "duration": 0.208,
      "velocity": 1,
      "hand": "left"
    },
    {
      "midi": 58,
      "time": 20.417,
      "duration": 0.208,
      "velocity": 1,
      "hand": "left"
    },
    {
      "midi": 60,
      "time": 20.417,
      "duration": 0.417,
      "velocity": 1,
      "hand": "right"
    },
    {
      "midi": 62,
      "time": 20.417,
      "duration": 0.208,
      "velocity": 1,
      "hand": "right"
    },
    {
      "midi": 56,
      "time": 20.625,
      "duration": 0.208,
      "velocity": 1,
      "hand": "left"
    },
    {
      "midi": 58,
      "time": 20.625,
      "duration": 0.208,
      "velocity": 1,
      "hand": "left"
    },
    {
      "midi": 62,
      "time": 20.625,
      "duration": 0.208,
      "velocity": 1,
      "hand": "right"
    },
    {
      "midi": 56,
      "time": 20.833,
      "duration": 0.417,
      "velocity": 1,
      "hand": "left"
    },
    {
      "midi": 58,
      "time": 20.833,
      "duration": 0.417,
      "velocity": 1,
      "hand": "left"
    },
    {
      "midi": 62,
      "time": 20.833,
      "duration": 0.417,
      "velocity": 1,
      "hand": "right"
    },
    {
      "midi": 76,
      "time": 20.833,
      "duration": 0.833,
      "velocity": 1,
      "hand": "right"
    },
    {
      "midi": 56,
      "time": 21.25,
      "duration": 0.417,
      "velocity": 1,
      "hand": "left"
    },
    {
      "midi": 58,
      "time": 21.25,
      "duration": 0.417,
      "velocity": 1,
      "hand": "left"
    },
    {
      "midi": 60,
      "time": 21.25,
      "duration": 0.417,
      "velocity": 1,
      "hand": "right"
    },
    {
      "midi": 62,
      "time": 21.25,
      "duration": 0.417,
      "velocity": 1,
      "hand": "right"
    },
    {
      "midi": 46,
      "time": 21.667,
      "duration": 0.833,
      "velocity": 1,
      "hand": "left"
    },
    {
      "midi": 76,
      "time": 21.667,
      "duration": 0.417,
      "velocity": 1,
      "hand": "right"
    },
    {
      "midi": 56,
      "time": 22.083,
      "duration": 0.208,
      "velocity": 1,
      "hand": "left"
    },
    {
      "midi": 58,
      "time": 22.083,
      "duration": 0.208,
      "velocity": 1,
      "hand": "left"
    },
    {
      "midi": 60,
      "time": 22.083,
      "duration": 0.208,
      "velocity": 1,
      "hand": "right"
    },
    {
      "midi": 62,
      "time": 22.083,
      "duration": 0.208,
      "velocity": 1,
      "hand": "right"
    },
    {
      "midi": 74,
      "time": 22.083,
      "duration": 0.208,
      "velocity": 1,
      "hand": "right"
    },
    {
      "midi": 56,
      "time": 22.292,
      "duration": 0.208,
      "velocity": 1,
      "hand": "left"
    },
    {
      "midi": 58,
      "time": 22.292,
      "duration": 0.208,
      "velocity": 1,
      "hand": "left"
    },
    {
      "midi": 60,
      "time": 22.292,
      "duration": 0.208,
      "velocity": 1,
      "hand": "right"
    },
    {
      "midi": 62,
      "time": 22.292,
      "duration": 0.208,
      "velocity": 1,
      "hand": "right"
    },
    {
      "midi": 76,
      "time": 22.292,
      "duration": 0.208,
      "velocity": 1,
      "hand": "right"
    },
    {
      "midi": 56,
      "time": 22.5,
      "duration": 0.417,
      "velocity": 1,
      "hand": "left"
    },
    {
      "midi": 58,
      "time": 22.5,
      "duration": 0.417,
      "velocity": 1,
      "hand": "left"
    },
    {
      "midi": 60,
      "time": 22.5,
      "duration": 0.417,
      "velocity": 1,
      "hand": "right"
    },
    {
      "midi": 62,
      "time": 22.5,
      "duration": 0.417,
      "velocity": 1,
      "hand": "right"
    },
    {
      "midi": 77,
      "time": 22.5,
      "duration": 0.208,
      "velocity": 1,
      "hand": "right"
    },
    {
      "midi": 76,
      "time": 22.708,
      "duration": 0.208,
      "velocity": 1,
      "hand": "right"
    },
    {
      "midi": 56,
      "time": 22.917,
      "duration": 0.417,
      "velocity": 1,
      "hand": "left"
    },
    {
      "midi": 58,
      "time": 22.917,
      "duration": 0.417,
      "velocity": 1,
      "hand": "left"
    },
    {
      "midi": 60,
      "time": 22.917,
      "duration": 0.417,
      "velocity": 1,
      "hand": "right"
    },
    {
      "midi": 62,
      "time": 22.917,
      "duration": 0.417,
      "velocity": 1,
      "hand": "right"
    },
    {
      "midi": 74,
      "time": 22.917,
      "duration": 0.208,
      "velocity": 1,
      "hand": "right"
    },
    {
      "midi": 76,
      "time": 23.125,
      "duration": 0.208,
      "velocity": 1,
      "hand": "right"
    },
    {
      "midi": 51,
      "time": 23.333,
      "duration": 0.833,
      "velocity": 1,
      "hand": "left"
    },
    {
      "midi": 74,
      "time": 23.333,
      "duration": 0.417,
      "velocity": 1,
      "hand": "right"
    },
    {
      "midi": 55,
      "time": 23.75,
      "duration": 0.208,
      "velocity": 1,
      "hand": "left"
    },
    {
      "midi": 58,
      "time": 23.75,
      "duration": 0.208,
      "velocity": 1,
      "hand": "left"
    },
    {
      "midi": 60,
      "time": 23.75,
      "duration": 0.417,
      "velocity": 1,
      "hand": "right"
    },
    {
      "midi": 63,
      "time": 23.75,
      "duration": 0.208,
      "velocity": 1,
      "hand": "right"
    },
    {
      "midi": 55,
      "time": 23.958,
      "duration": 0.208,
      "velocity": 1,
      "hand": "left"
    },
    {
      "midi": 58,
      "time": 23.958,
      "duration": 0.208,
      "velocity": 1,
      "hand": "left"
    },
    {
      "midi": 63,
      "time": 23.958,
      "duration": 0.208,
      "velocity": 1,
      "hand": "right"
    },
    {
      "midi": 55,
      "time": 24.167,
      "duration": 0.417,
      "velocity": 1,
      "hand": "left"
    },
    {
      "midi": 58,
      "time": 24.167,
      "duration": 0.417,
      "velocity": 1,
      "hand": "left"
    },
    {
      "midi": 63,
      "time": 24.167,
      "duration": 0.417,
      "velocity": 1,
      "hand": "right"
    },
    {
      "midi": 72,
      "time": 24.167,
      "duration": 0.833,
      "velocity": 1,
      "hand": "right"
    },
    {
      "midi": 55,
      "time": 24.583,
      "duration": 0.417,
      "velocity": 1,
      "hand": "left"
    },
    {
      "midi": 58,
      "time": 24.583,
      "duration": 0.417,
      "velocity": 1,
      "hand": "left"
    },
    {
      "midi": 60,
      "time": 24.583,
      "duration": 0.417,
      "velocity": 1,
      "hand": "right"
    },
    {
      "midi": 63,
      "time": 24.583,
      "duration": 0.417,
      "velocity": 1,
      "hand": "right"
    },
    {
      "midi": 46,
      "time": 25,
      "duration": 0.833,
      "velocity": 1,
      "hand": "left"
    },
    {
      "midi": 72,
      "time": 25,
      "duration": 0.417,
      "velocity": 1,
      "hand": "right"
    },
    {
      "midi": 55,
      "time": 25.417,
      "duration": 0.208,
      "velocity": 1,
      "hand": "left"
    },
    {
      "midi": 58,
      "time": 25.417,
      "duration": 0.208,
      "velocity": 1,
      "hand": "left"
    },
    {
      "midi": 60,
      "time": 25.417,
      "duration": 0.208,
      "velocity": 1,
      "hand": "right"
    },
    {
      "midi": 63,
      "time": 25.417,
      "duration": 0.208,
      "velocity": 1,
      "hand": "right"
    },
    {
      "midi": 72,
      "time": 25.417,
      "duration": 0.208,
      "velocity": 1,
      "hand": "right"
    },
    {
      "midi": 55,
      "time": 25.625,
      "duration": 0.208,
      "velocity": 1,
      "hand": "left"
    },
    {
      "midi": 58,
      "time": 25.625,
      "duration": 0.208,
      "velocity": 1,
      "hand": "left"
    },
    {
      "midi": 60,
      "time": 25.625,
      "duration": 0.208,
      "velocity": 1,
      "hand": "right"
    },
    {
      "midi": 63,
      "time": 25.625,
      "duration": 0.208,
      "velocity": 1,
      "hand": "right"
    },
    {
      "midi": 72,
      "time": 25.625,
      "duration": 0.208,
      "velocity": 1,
      "hand": "right"
    },
    {
      "midi": 55,
      "time": 25.833,
      "duration": 0.417,
      "velocity": 1,
      "hand": "left"
    },
    {
      "midi": 58,
      "time": 25.833,
      "duration": 0.417,
      "velocity": 1,
      "hand": "left"
    },
    {
      "midi": 60,
      "time": 25.833,
      "duration": 0.417,
      "velocity": 1,
      "hand": "right"
    },
    {
      "midi": 63,
      "time": 25.833,
      "duration": 0.417,
      "velocity": 1,
      "hand": "right"
    },
    {
      "midi": 74,
      "time": 25.833,
      "duration": 0.208,
      "velocity": 1,
      "hand": "right"
    },
    {
      "midi": 72,
      "time": 26.042,
      "duration": 0.208,
      "velocity": 1,
      "hand": "right"
    },
    {
      "midi": 55,
      "time": 26.25,
      "duration": 0.417,
      "velocity": 1,
      "hand": "left"
    },
    {
      "midi": 58,
      "time": 26.25,
      "duration": 0.417,
      "velocity": 1,
      "hand": "left"
    },
    {
      "midi": 60,
      "time": 26.25,
      "duration": 0.417,
      "velocity": 1,
      "hand": "right"
    },
    {
      "midi": 63,
      "time": 26.25,
      "duration": 0.417,
      "velocity": 1,
      "hand": "right"
    },
    {
      "midi": 70,
      "time": 26.25,
      "duration": 0.208,
      "velocity": 1,
      "hand": "right"
    },
    {
      "midi": 69,
      "time": 26.458,
      "duration": 0.208,
      "velocity": 1,
      "hand": "right"
    },
    {
      "midi": 53,
      "time": 26.667,
      "duration": 0.833,
      "velocity": 1,
      "hand": "left"
    },
    {
      "midi": 72,
      "time": 26.667,
      "duration": 0.417,
      "velocity": 1,
      "hand": "right"
    },
    {
      "midi": 56,
      "time": 27.083,
      "duration": 0.208,
      "velocity": 1,
      "hand": "left"
    },
    {
      "midi": 58,
      "time": 27.083,
      "duration": 0.208,
      "velocity": 1,
      "hand": "left"
    },
    {
      "midi": 60,
      "time": 27.083,
      "duration": 0.417,
      "velocity": 1,
      "hand": "right"
    },
    {
      "midi": 62,
      "time": 27.083,
      "duration": 0.208,
      "velocity": 1,
      "hand": "right"
    },
    {
      "midi": 56,
      "time": 27.292,
      "duration": 0.208,
      "velocity": 1,
      "hand": "left"
    },
    {
      "midi": 58,
      "time": 27.292,
      "duration": 0.208,
      "velocity": 1,
      "hand": "left"
    },
    {
      "midi": 62,
      "time": 27.292,
      "duration": 0.208,
      "velocity": 1,
      "hand": "right"
    },
    {
      "midi": 56,
      "time": 27.5,
      "duration": 0.417,
      "velocity": 1,
      "hand": "left"
    },
    {
      "midi": 58,
      "time": 27.5,
      "duration": 0.417,
      "velocity": 1,
      "hand": "left"
    },
    {
      "midi": 62,
      "time": 27.5,
      "duration": 0.417,
      "velocity": 1,
      "hand": "right"
    },
    {
      "midi": 70,
      "time": 27.5,
      "duration": 0.833,
      "velocity": 1,
      "hand": "right"
    },
    {
      "midi": 56,
      "time": 27.917,
      "duration": 0.417,
      "velocity": 1,
      "hand": "left"
    },
    {
      "midi": 58,
      "time": 27.917,
      "duration": 0.417,
      "velocity": 1,
      "hand": "left"
    },
    {
      "midi": 60,
      "time": 27.917,
      "duration": 0.417,
      "velocity": 1,
      "hand": "right"
    },
    {
      "midi": 62,
      "time": 27.917,
      "duration": 0.417,
      "velocity": 1,
      "hand": "right"
    },
    {
      "midi": 46,
      "time": 28.333,
      "duration": 0.833,
      "velocity": 1,
      "hand": "left"
    },
    {
      "midi": 70,
      "time": 28.333,
      "duration": 0.417,
      "velocity": 1,
      "hand": "right"
    },
    {
      "midi": 56,
      "time": 28.75,
      "duration": 0.208,
      "velocity": 1,
      "hand": "left"
    },
    {
      "midi": 58,
      "time": 28.75,
      "duration": 0.208,
      "velocity": 1,
      "hand": "left"
    },
    {
      "midi": 60,
      "time": 28.75,
      "duration": 0.208,
      "velocity": 1,
      "hand": "right"
    },
    {
      "midi": 62,
      "time": 28.75,
      "duration": 0.208,
      "velocity": 1,
      "hand": "right"
    },
    {
      "midi": 70,
      "time": 28.75,
      "duration": 0.208,
      "velocity": 1,
      "hand": "right"
    },
    {
      "midi": 56,
      "time": 28.958,
      "duration": 0.208,
      "velocity": 1,
      "hand": "left"
    },
    {
      "midi": 58,
      "time": 28.958,
      "duration": 0.208,
      "velocity": 1,
      "hand": "left"
    },
    {
      "midi": 60,
      "time": 28.958,
      "duration": 0.208,
      "velocity": 1,
      "hand": "right"
    },
    {
      "midi": 62,
      "time": 28.958,
      "duration": 0.208,
      "velocity": 1,
      "hand": "right"
    },
    {
      "midi": 70,
      "time": 28.958,
      "duration": 0.208,
      "velocity": 1,
      "hand": "right"
    },
    {
      "midi": 56,
      "time": 29.167,
      "duration": 0.417,
      "velocity": 1,
      "hand": "left"
    },
    {
      "midi": 58,
      "time": 29.167,
      "duration": 0.417,
      "velocity": 1,
      "hand": "left"
    },
    {
      "midi": 60,
      "time": 29.167,
      "duration": 0.417,
      "velocity": 1,
      "hand": "right"
    },
    {
      "midi": 62,
      "time": 29.167,
      "duration": 0.417,
      "velocity": 1,
      "hand": "right"
    },
    {
      "midi": 72,
      "time": 29.167,
      "duration": 0.208,
      "velocity": 1,
      "hand": "right"
    },
    {
      "midi": 70,
      "time": 29.375,
      "duration": 0.208,
      "velocity": 1,
      "hand": "right"
    },
    {
      "midi": 56,
      "time": 29.583,
      "duration": 0.417,
      "velocity": 1,
      "hand": "left"
    },
    {
      "midi": 58,
      "time": 29.583,
      "duration": 0.417,
      "velocity": 1,
      "hand": "left"
    },
    {
      "midi": 60,
      "time": 29.583,
      "duration": 0.417,
      "velocity": 1,
      "hand": "right"
    },
    {
      "midi": 62,
      "time": 29.583,
      "duration": 0.417,
      "velocity": 1,
      "hand": "right"
    },
    {
      "midi": 69,
      "time": 29.583,
      "duration": 0.208,
      "velocity": 1,
      "hand": "right"
    },
    {
      "midi": 67,
      "time": 29.792,
      "duration": 0.208,
      "velocity": 1,
      "hand": "right"
    },
    {
      "midi": 51,
      "time": 30,
      "duration": 0.833,
      "velocity": 1,
      "hand": "left"
    },
    {
      "midi": 60,
      "time": 30,
      "duration": 0.833,
      "velocity": 1,
      "hand": "right"
    },
    {
      "midi": 65,
      "time": 30,
      "duration": 1.667,
      "velocity": 1,
      "hand": "right"
    },
    {
      "midi": 55,
      "time": 30.417,
      "duration": 0.208,
      "velocity": 1,
      "hand": "left"
    },
    {
      "midi": 58,
      "time": 30.417,
      "duration": 0.208,
      "velocity": 1,
      "hand": "left"
    },
    {
      "midi": 55,
      "time": 30.625,
      "duration": 0.208,
      "velocity": 1,
      "hand": "left"
    },
    {
      "midi": 58,
      "time": 30.625,
      "duration": 0.208,
      "velocity": 1,
      "hand": "left"
    },
    {
      "midi": 55,
      "time": 30.833,
      "duration": 0.417,
      "velocity": 1,
      "hand": "left"
    },
    {
      "midi": 58,
      "time": 30.833,
      "duration": 0.417,
      "velocity": 1,
      "hand": "left"
    },
    {
      "midi": 55,
      "time": 31.25,
      "duration": 0.417,
      "velocity": 1,
      "hand": "left"
    },
    {
      "midi": 58,
      "time": 31.25,
      "duration": 0.417,
      "velocity": 1,
      "hand": "left"
    },
    {
      "midi": 55,
      "time": 31.667,
      "duration": 0.833,
      "velocity": 1,
      "hand": "left"
    },
    {
      "midi": 58,
      "time": 31.667,
      "duration": 0.833,
      "velocity": 1,
      "hand": "left"
    },
    {
      "midi": 65,
      "time": 31.667,
      "duration": 0.833,
      "velocity": 1,
      "hand": "right"
    },
    {
      "midi": 65,
      "time": 32.5,
      "duration": 0.625,
      "velocity": 1,
      "hand": "right"
    },
    {
      "midi": 65,
      "time": 33.125,
      "duration": 0.208,
      "velocity": 1,
      "hand": "right"
    },
    {
      "midi": 56,
      "time": 33.333,
      "duration": 0.833,
      "velocity": 1,
      "hand": "left"
    },
    {
      "midi": 74,
      "time": 33.333,
      "duration": 0.417,
      "velocity": 1,
      "hand": "right"
    },
    {
      "midi": 60,
      "time": 33.75,
      "duration": 0.417,
      "velocity": 1,
      "hand": "right"
    },
    {
      "midi": 60,
      "time": 33.75,
      "duration": 0.208,
      "velocity": 1,
      "hand": "right"
    },
    {
      "midi": 63,
      "time": 33.75,
      "duration": 0.208,
      "velocity": 1,
      "hand": "right"
    },
    {
      "midi": 60,
      "time": 33.958,
      "duration": 0.208,
      "velocity": 1,
      "hand": "right"
    },
    {
      "midi": 63,
      "time": 33.958,
      "duration": 0.208,
      "velocity": 1,
      "hand": "right"
    },
    {
      "midi": 60,
      "time": 34.167,
      "duration": 0.417,
      "velocity": 1,
      "hand": "right"
    },
    {
      "midi": 63,
      "time": 34.167,
      "duration": 0.417,
      "velocity": 1,
      "hand": "right"
    },
    {
      "midi": 74,
      "time": 34.167,
      "duration": 0.833,
      "velocity": 1,
      "hand": "right"
    },
    {
      "midi": 60,
      "time": 34.583,
      "duration": 0.417,
      "velocity": 1,
      "hand": "right"
    },
    {
      "midi": 63,
      "time": 34.583,
      "duration": 0.417,
      "velocity": 1,
      "hand": "right"
    },
    {
      "midi": 56,
      "time": 35,
      "duration": 0.833,
      "velocity": 1,
      "hand": "left"
    },
    {
      "midi": 60,
      "time": 35,
      "duration": 0.833,
      "velocity": 1,
      "hand": "right"
    },
    {
      "midi": 74,
      "time": 35,
      "duration": 0.417,
      "velocity": 1,
      "hand": "right"
    },
    {
      "midi": 60,
      "time": 35.417,
      "duration": 0.208,
      "velocity": 1,
      "hand": "right"
    },
    {
      "midi": 63,
      "time": 35.417,
      "duration": 0.208,
      "velocity": 1,
      "hand": "right"
    },
    {
      "midi": 76,
      "time": 35.417,
      "duration": 0.208,
      "velocity": 1,
      "hand": "right"
    },
    {
      "midi": 60,
      "time": 35.625,
      "duration": 0.208,
      "velocity": 1,
      "hand": "right"
    },
    {
      "midi": 63,
      "time": 35.625,
      "duration": 0.208,
      "velocity": 1,
      "hand": "right"
    },
    {
      "midi": 77,
      "time": 35.625,
      "duration": 0.208,
      "velocity": 1,
      "hand": "right"
    },
    {
      "midi": 60,
      "time": 35.833,
      "duration": 0.417,
      "velocity": 1,
      "hand": "right"
    },
    {
      "midi": 63,
      "time": 35.833,
      "duration": 0.417,
      "velocity": 1,
      "hand": "right"
    },
    {
      "midi": 79,
      "time": 35.833,
      "duration": 0.208,
      "velocity": 1,
      "hand": "right"
    },
    {
      "midi": 77,
      "time": 36.042,
      "duration": 0.208,
      "velocity": 1,
      "hand": "right"
    },
    {
      "midi": 60,
      "time": 36.25,
      "duration": 0.417,
      "velocity": 1,
      "hand": "right"
    },
    {
      "midi": 63,
      "time": 36.25,
      "duration": 0.417,
      "velocity": 1,
      "hand": "right"
    },
    {
      "midi": 76,
      "time": 36.25,
      "duration": 0.208,
      "velocity": 1,
      "hand": "right"
    },
    {
      "midi": 74,
      "time": 36.458,
      "duration": 0.208,
      "velocity": 1,
      "hand": "right"
    },
    {
      "midi": 51,
      "time": 36.667,
      "duration": 0.833,
      "velocity": 1,
      "hand": "left"
    },
    {
      "midi": 74,
      "time": 36.667,
      "duration": 0.417,
      "velocity": 1,
      "hand": "right"
    },
    {
      "midi": 55,
      "time": 37.083,
      "duration": 0.208,
      "velocity": 1,
      "hand": "left"
    },
    {
      "midi": 58,
      "time": 37.083,
      "duration": 0.208,
      "velocity": 1,
      "hand": "left"
    },
    {
      "midi": 60,
      "time": 37.083,
      "duration": 0.417,
      "velocity": 1,
      "hand": "right"
    },
    {
      "midi": 63,
      "time": 37.083,
      "duration": 0.208,
      "velocity": 1,
      "hand": "right"
    },
    {
      "midi": 55,
      "time": 37.292,
      "duration": 0.208,
      "velocity": 1,
      "hand": "left"
    },
    {
      "midi": 58,
      "time": 37.292,
      "duration": 0.208,
      "velocity": 1,
      "hand": "left"
    },
    {
      "midi": 63,
      "time": 37.292,
      "duration": 0.208,
      "velocity": 1,
      "hand": "right"
    },
    {
      "midi": 55,
      "time": 37.5,
      "duration": 0.417,
      "velocity": 1,
      "hand": "left"
    },
    {
      "midi": 58,
      "time": 37.5,
      "duration": 0.417,
      "velocity": 1,
      "hand": "left"
    },
    {
      "midi": 63,
      "time": 37.5,
      "duration": 0.417,
      "velocity": 1,
      "hand": "right"
    },
    {
      "midi": 72,
      "time": 37.5,
      "duration": 0.833,
      "velocity": 1,
      "hand": "right"
    },
    {
      "midi": 55,
      "time": 37.917,
      "duration": 0.417,
      "velocity": 1,
      "hand": "left"
    },
    {
      "midi": 58,
      "time": 37.917,
      "duration": 0.417,
      "velocity": 1,
      "hand": "left"
    },
    {
      "midi": 60,
      "time": 37.917,
      "duration": 0.417,
      "velocity": 1,
      "hand": "right"
    },
    {
      "midi": 63,
      "time": 37.917,
      "duration": 0.417,
      "velocity": 1,
      "hand": "right"
    },
    {
      "midi": 51,
      "time": 38.333,
      "duration": 0.833,
      "velocity": 1,
      "hand": "left"
    },
    {
      "midi": 60,
      "time": 38.333,
      "duration": 0.833,
      "velocity": 1,
      "hand": "right"
    },
    {
      "midi": 72,
      "time": 38.333,
      "duration": 0.417,
      "velocity": 1,
      "hand": "right"
    },
    {
      "midi": 55,
      "time": 38.75,
      "duration": 0.208,
      "velocity": 1,
      "hand": "left"
    },
    {
      "midi": 58,
      "time": 38.75,
      "duration": 0.208,
      "velocity": 1,
      "hand": "left"
    },
    {
      "midi": 63,
      "time": 38.75,
      "duration": 0.208,
      "velocity": 1,
      "hand": "right"
    },
    {
      "midi": 71,
      "time": 38.75,
      "duration": 0.208,
      "velocity": 1,
      "hand": "right"
    },
    {
      "midi": 55,
      "time": 38.958,
      "duration": 0.208,
      "velocity": 1,
      "hand": "left"
    },
    {
      "midi": 58,
      "time": 38.958,
      "duration": 0.208,
      "velocity": 1,
      "hand": "left"
    },
    {
      "midi": 63,
      "time": 38.958,
      "duration": 0.208,
      "velocity": 1,
      "hand": "right"
    },
    {
      "midi": 72,
      "time": 38.958,
      "duration": 0.208,
      "velocity": 1,
      "hand": "right"
    },
    {
      "midi": 55,
      "time": 39.167,
      "duration": 0.417,
      "velocity": 1,
      "hand": "left"
    },
    {
      "midi": 58,
      "time": 39.167,
      "duration": 0.417,
      "velocity": 1,
      "hand": "left"
    },
    {
      "midi": 63,
      "time": 39.167,
      "duration": 0.417,
      "velocity": 1,
      "hand": "right"
    },
    {
      "midi": 71,
      "time": 39.167,
      "duration": 0.208,
      "velocity": 1,
      "hand": "right"
    },
    {
      "midi": 72,
      "time": 39.375,
      "duration": 0.208,
      "velocity": 1,
      "hand": "right"
    },
    {
      "midi": 55,
      "time": 39.583,
      "duration": 0.417,
      "velocity": 1,
      "hand": "left"
    },
    {
      "midi": 58,
      "time": 39.583,
      "duration": 0.417,
      "velocity": 1,
      "hand": "left"
    },
    {
      "midi": 63,
      "time": 39.583,
      "duration": 0.417,
      "velocity": 1,
      "hand": "right"
    },
    {
      "midi": 76,
      "time": 39.583,
      "duration": 0.208,
      "velocity": 1,
      "hand": "right"
    },
    {
      "midi": 74,
      "time": 39.792,
      "duration": 0.208,
      "velocity": 1,
      "hand": "right"
    },
    {
      "midi": 46,
      "time": 40,
      "duration": 0.833,
      "velocity": 1,
      "hand": "left"
    },
    {
      "midi": 72,
      "time": 40,
      "duration": 0.417,
      "velocity": 1,
      "hand": "right"
    },
    {
      "midi": 53,
      "time": 40.417,
      "duration": 0.208,
      "velocity": 1,
      "hand": "left"
    },
    {
      "midi": 58,
      "time": 40.417,
      "duration": 0.208,
      "velocity": 1,
      "hand": "left"
    },
    {
      "midi": 60,
      "time": 40.417,
      "duration": 0.417,
      "velocity": 1,
      "hand": "right"
    },
    {
      "midi": 62,
      "time": 40.417,
      "duration": 0.208,
      "velocity": 1,
      "hand": "right"
    },
    {
      "midi": 53,
      "time": 40.625,
      "duration": 0.208,
      "velocity": 1,
      "hand": "left"
    },
    {
      "midi": 58,
      "time": 40.625,
      "duration": 0.208,
      "velocity": 1,
      "hand": "left"
    },
    {
      "midi": 62,
      "time": 40.625,
      "duration": 0.208,
      "velocity": 1,
      "hand": "right"
    },
    {
      "midi": 53,
      "time": 40.833,
      "duration": 0.417,
      "velocity": 1,
      "hand": "left"
    },
    {
      "midi": 58,
      "time": 40.833,
      "duration": 0.417,
      "velocity": 1,
      "hand": "left"
    },
    {
      "midi": 62,
      "time": 40.833,
      "duration": 0.417,
      "velocity": 1,
      "hand": "right"
    },
    {
      "midi": 70,
      "time": 40.833,
      "duration": 0.833,
      "velocity": 1,
      "hand": "right"
    },
    {
      "midi": 53,
      "time": 41.25,
      "duration": 0.417,
      "velocity": 1,
      "hand": "left"
    },
    {
      "midi": 58,
      "time": 41.25,
      "duration": 0.417,
      "velocity": 1,
      "hand": "left"
    },
    {
      "midi": 60,
      "time": 41.25,
      "duration": 0.417,
      "velocity": 1,
      "hand": "right"
    },
    {
      "midi": 62,
      "time": 41.25,
      "duration": 0.417,
      "velocity": 1,
      "hand": "right"
    },
    {
      "midi": 46,
      "time": 41.667,
      "duration": 0.833,
      "velocity": 1,
      "hand": "left"
    },
    {
      "midi": 60,
      "time": 41.667,
      "duration": 0.833,
      "velocity": 1,
      "hand": "right"
    },
    {
      "midi": 70,
      "time": 41.667,
      "duration": 0.417,
      "velocity": 1,
      "hand": "right"
    },
    {
      "midi": 53,
      "time": 42.083,
      "duration": 0.208,
      "velocity": 1,
      "hand": "left"
    },
    {
      "midi": 58,
      "time": 42.083,
      "duration": 0.208,
      "velocity": 1,
      "hand": "left"
    },
    {
      "midi": 62,
      "time": 42.083,
      "duration": 0.208,
      "velocity": 1,
      "hand": "right"
    },
    {
      "midi": 69,
      "time": 42.083,
      "duration": 0.208,
      "velocity": 1,
      "hand": "right"
    },
    {
      "midi": 53,
      "time": 42.292,
      "duration": 0.208,
      "velocity": 1,
      "hand": "left"
    },
    {
      "midi": 58,
      "time": 42.292,
      "duration": 0.208,
      "velocity": 1,
      "hand": "left"
    },
    {
      "midi": 62,
      "time": 42.292,
      "duration": 0.208,
      "velocity": 1,
      "hand": "right"
    },
    {
      "midi": 70,
      "time": 42.292,
      "duration": 0.208,
      "velocity": 1,
      "hand": "right"
    },
    {
      "midi": 53,
      "time": 42.5,
      "duration": 0.417,
      "velocity": 1,
      "hand": "left"
    },
    {
      "midi": 58,
      "time": 42.5,
      "duration": 0.417,
      "velocity": 1,
      "hand": "left"
    },
    {
      "midi": 62,
      "time": 42.5,
      "duration": 0.417,
      "velocity": 1,
      "hand": "right"
    },
    {
      "midi": 69,
      "time": 42.5,
      "duration": 0.208,
      "velocity": 1,
      "hand": "right"
    },
    {
      "midi": 70,
      "time": 42.708,
      "duration": 0.208,
      "velocity": 1,
      "hand": "right"
    },
    {
      "midi": 53,
      "time": 42.917,
      "duration": 0.417,
      "velocity": 1,
      "hand": "left"
    },
    {
      "midi": 58,
      "time": 42.917,
      "duration": 0.417,
      "velocity": 1,
      "hand": "left"
    },
    {
      "midi": 62,
      "time": 42.917,
      "duration": 0.417,
      "velocity": 1,
      "hand": "right"
    },
    {
      "midi": 74,
      "time": 42.917,
      "duration": 0.208,
      "velocity": 1,
      "hand": "right"
    },
    {
      "midi": 72,
      "time": 43.125,
      "duration": 0.208,
      "velocity": 1,
      "hand": "right"
    },
    {
      "midi": 51,
      "time": 43.333,
      "duration": 0.833,
      "velocity": 1,
      "hand": "left"
    },
    {
      "midi": 65,
      "time": 43.333,
      "duration": 1.667,
      "velocity": 1,
      "hand": "right"
    },
    {
      "midi": 55,
      "time": 43.75,
      "duration": 0.208,
      "velocity": 1,
      "hand": "left"
    },
    {
      "midi": 58,
      "time": 43.75,
      "duration": 0.208,
      "velocity": 1,
      "hand": "left"
    },
    {
      "midi": 55,
      "time": 43.958,
      "duration": 0.208,
      "velocity": 1,
      "hand": "left"
    },
    {
      "midi": 58,
      "time": 43.958,
      "duration": 0.208,
      "velocity": 1,
      "hand": "left"
    },
    {
      "midi": 55,
      "time": 44.167,
      "duration": 0.417,
      "velocity": 1,
      "hand": "left"
    },
    {
      "midi": 58,
      "time": 44.167,
      "duration": 0.417,
      "velocity": 1,
      "hand": "left"
    },
    {
      "midi": 55,
      "time": 44.583,
      "duration": 0.417,
      "velocity": 1,
      "hand": "left"
    },
    {
      "midi": 58,
      "time": 44.583,
      "duration": 0.417,
      "velocity": 1,
      "hand": "left"
    },
    {
      "midi": 51,
      "time": 45,
      "duration": 0.833,
      "velocity": 1,
      "hand": "left"
    },
    {
      "midi": 65,
      "time": 45,
      "duration": 0.833,
      "velocity": 1,
      "hand": "right"
    },
    {
      "midi": 55,
      "time": 45.417,
      "duration": 0.208,
      "velocity": 1,
      "hand": "left"
    },
    {
      "midi": 58,
      "time": 45.417,
      "duration": 0.208,
      "velocity": 1,
      "hand": "left"
    },
    {
      "midi": 55,
      "time": 45.625,
      "duration": 0.208,
      "velocity": 1,
      "hand": "left"
    },
    {
      "midi": 58,
      "time": 45.625,
      "duration": 0.208,
      "velocity": 1,
      "hand": "left"
    },
    {
      "midi": 55,
      "time": 45.833,
      "duration": 0.417,
      "velocity": 1,
      "hand": "left"
    },
    {
      "midi": 58,
      "time": 45.833,
      "duration": 0.417,
      "velocity": 1,
      "hand": "left"
    },
    {
      "midi": 65,
      "time": 45.833,
      "duration": 0.625,
      "velocity": 1,
      "hand": "right"
    },
    {
      "midi": 55,
      "time": 46.25,
      "duration": 0.417,
      "velocity": 1,
      "hand": "left"
    },
    {
      "midi": 58,
      "time": 46.25,
      "duration": 0.417,
      "velocity": 1,
      "hand": "left"
    },
    {
      "midi": 65,
      "time": 46.458,
      "duration": 0.208,
      "velocity": 1,
      "hand": "right"
    },
    {
      "midi": 56,
      "time": 46.667,
      "duration": 0.833,
      "velocity": 1,
      "hand": "left"
    },
    {
      "midi": 74,
      "time": 46.667,
      "duration": 0.417,
      "velocity": 1,
      "hand": "right"
    },
    {
      "midi": 60,
      "time": 47.083,
      "duration": 0.417,
      "velocity": 1,
      "hand": "right"
    },
    {
      "midi": 60,
      "time": 47.083,
      "duration": 0.208,
      "velocity": 1,
      "hand": "right"
    },
    {
      "midi": 63,
      "time": 47.083,
      "duration": 0.208,
      "velocity": 1,
      "hand": "right"
    },
    {
      "midi": 60,
      "time": 47.292,
      "duration": 0.208,
      "velocity": 1,
      "hand": "right"
    },
    {
      "midi": 63,
      "time": 47.292,
      "duration": 0.208,
      "velocity": 1,
      "hand": "right"
    },
    {
      "midi": 60,
      "time": 47.5,
      "duration": 0.417,
      "velocity": 1,
      "hand": "right"
    },
    {
      "midi": 63,
      "time": 47.5,
      "duration": 0.417,
      "velocity": 1,
      "hand": "right"
    },
    {
      "midi": 74,
      "time": 47.5,
      "duration": 0.833,
      "velocity": 1,
      "hand": "right"
    },
    {
      "midi": 60,
      "time": 47.917,
      "duration": 0.417,
      "velocity": 1,
      "hand": "right"
    },
    {
      "midi": 63,
      "time": 47.917,
      "duration": 0.417,
      "velocity": 1,
      "hand": "right"
    },
    {
      "midi": 56,
      "time": 48.333,
      "duration": 0.833,
      "velocity": 1,
      "hand": "left"
    },
    {
      "midi": 60,
      "time": 48.333,
      "duration": 0.833,
      "velocity": 1,
      "hand": "right"
    },
    {
      "midi": 74,
      "time": 48.333,
      "duration": 0.417,
      "velocity": 1,
      "hand": "right"
    },
    {
      "midi": 60,
      "time": 48.75,
      "duration": 0.208,
      "velocity": 1,
      "hand": "right"
    },
    {
      "midi": 63,
      "time": 48.75,
      "duration": 0.208,
      "velocity": 1,
      "hand": "right"
    },
    {
      "midi": 76,
      "time": 48.75,
      "duration": 0.208,
      "velocity": 1,
      "hand": "right"
    },
    {
      "midi": 60,
      "time": 48.958,
      "duration": 0.208,
      "velocity": 1,
      "hand": "right"
    },
    {
      "midi": 63,
      "time": 48.958,
      "duration": 0.208,
      "velocity": 1,
      "hand": "right"
    },
    {
      "midi": 77,
      "time": 48.958,
      "duration": 0.208,
      "velocity": 1,
      "hand": "right"
    },
    {
      "midi": 60,
      "time": 49.167,
      "duration": 0.417,
      "velocity": 1,
      "hand": "right"
    },
    {
      "midi": 63,
      "time": 49.167,
      "duration": 0.417,
      "velocity": 1,
      "hand": "right"
    },
    {
      "midi": 79,
      "time": 49.167,
      "duration": 0.208,
      "velocity": 1,
      "hand": "right"
    },
    {
      "midi": 77,
      "time": 49.375,
      "duration": 0.208,
      "velocity": 1,
      "hand": "right"
    },
    {
      "midi": 60,
      "time": 49.583,
      "duration": 0.417,
      "velocity": 1,
      "hand": "right"
    },
    {
      "midi": 63,
      "time": 49.583,
      "duration": 0.417,
      "velocity": 1,
      "hand": "right"
    },
    {
      "midi": 76,
      "time": 49.583,
      "duration": 0.208,
      "velocity": 1,
      "hand": "right"
    },
    {
      "midi": 74,
      "time": 49.792,
      "duration": 0.208,
      "velocity": 1,
      "hand": "right"
    },
    {
      "midi": 51,
      "time": 50,
      "duration": 0.833,
      "velocity": 1,
      "hand": "left"
    },
    {
      "midi": 74,
      "time": 50,
      "duration": 0.417,
      "velocity": 1,
      "hand": "right"
    },
    {
      "midi": 55,
      "time": 50.417,
      "duration": 0.208,
      "velocity": 1,
      "hand": "left"
    },
    {
      "midi": 58,
      "time": 50.417,
      "duration": 0.208,
      "velocity": 1,
      "hand": "left"
    },
    {
      "midi": 60,
      "time": 50.417,
      "duration": 0.417,
      "velocity": 1,
      "hand": "right"
    },
    {
      "midi": 63,
      "time": 50.417,
      "duration": 0.208,
      "velocity": 1,
      "hand": "right"
    },
    {
      "midi": 55,
      "time": 50.625,
      "duration": 0.208,
      "velocity": 1,
      "hand": "left"
    },
    {
      "midi": 58,
      "time": 50.625,
      "duration": 0.208,
      "velocity": 1,
      "hand": "left"
    },
    {
      "midi": 63,
      "time": 50.625,
      "duration": 0.208,
      "velocity": 1,
      "hand": "right"
    },
    {
      "midi": 55,
      "time": 50.833,
      "duration": 0.417,
      "velocity": 1,
      "hand": "left"
    },
    {
      "midi": 58,
      "time": 50.833,
      "duration": 0.417,
      "velocity": 1,
      "hand": "left"
    },
    {
      "midi": 63,
      "time": 50.833,
      "duration": 0.417,
      "velocity": 1,
      "hand": "right"
    },
    {
      "midi": 72,
      "time": 50.833,
      "duration": 0.833,
      "velocity": 1,
      "hand": "right"
    },
    {
      "midi": 55,
      "time": 51.25,
      "duration": 0.417,
      "velocity": 1,
      "hand": "left"
    },
    {
      "midi": 58,
      "time": 51.25,
      "duration": 0.417,
      "velocity": 1,
      "hand": "left"
    },
    {
      "midi": 60,
      "time": 51.25,
      "duration": 0.417,
      "velocity": 1,
      "hand": "right"
    },
    {
      "midi": 63,
      "time": 51.25,
      "duration": 0.417,
      "velocity": 1,
      "hand": "right"
    },
    {
      "midi": 51,
      "time": 51.667,
      "duration": 0.833,
      "velocity": 1,
      "hand": "left"
    },
    {
      "midi": 60,
      "time": 51.667,
      "duration": 0.833,
      "velocity": 1,
      "hand": "right"
    },
    {
      "midi": 72,
      "time": 51.667,
      "duration": 0.417,
      "velocity": 1,
      "hand": "right"
    },
    {
      "midi": 55,
      "time": 52.083,
      "duration": 0.208,
      "velocity": 1,
      "hand": "left"
    },
    {
      "midi": 58,
      "time": 52.083,
      "duration": 0.208,
      "velocity": 1,
      "hand": "left"
    },
    {
      "midi": 63,
      "time": 52.083,
      "duration": 0.208,
      "velocity": 1,
      "hand": "right"
    },
    {
      "midi": 71,
      "time": 52.083,
      "duration": 0.208,
      "velocity": 1,
      "hand": "right"
    },
    {
      "midi": 55,
      "time": 52.292,
      "duration": 0.208,
      "velocity": 1,
      "hand": "left"
    },
    {
      "midi": 58,
      "time": 52.292,
      "duration": 0.208,
      "velocity": 1,
      "hand": "left"
    },
    {
      "midi": 63,
      "time": 52.292,
      "duration": 0.208,
      "velocity": 1,
      "hand": "right"
    },
    {
      "midi": 72,
      "time": 52.292,
      "duration": 0.208,
      "velocity": 1,
      "hand": "right"
    },
    {
      "midi": 55,
      "time": 52.5,
      "duration": 0.417,
      "velocity": 1,
      "hand": "left"
    },
    {
      "midi": 58,
      "time": 52.5,
      "duration": 0.417,
      "velocity": 1,
      "hand": "left"
    },
    {
      "midi": 63,
      "time": 52.5,
      "duration": 0.417,
      "velocity": 1,
      "hand": "right"
    },
    {
      "midi": 71,
      "time": 52.5,
      "duration": 0.208,
      "velocity": 1,
      "hand": "right"
    },
    {
      "midi": 72,
      "time": 52.708,
      "duration": 0.208,
      "velocity": 1,
      "hand": "right"
    },
    {
      "midi": 55,
      "time": 52.917,
      "duration": 0.417,
      "velocity": 1,
      "hand": "left"
    },
    {
      "midi": 58,
      "time": 52.917,
      "duration": 0.417,
      "velocity": 1,
      "hand": "left"
    },
    {
      "midi": 63,
      "time": 52.917,
      "duration": 0.417,
      "velocity": 1,
      "hand": "right"
    },
    {
      "midi": 76,
      "time": 52.917,
      "duration": 0.208,
      "velocity": 1,
      "hand": "right"
    },
    {
      "midi": 74,
      "time": 53.125,
      "duration": 0.208,
      "velocity": 1,
      "hand": "right"
    },
    {
      "midi": 46,
      "time": 53.333,
      "duration": 0.833,
      "velocity": 1,
      "hand": "left"
    },
    {
      "midi": 72,
      "time": 53.333,
      "duration": 0.417,
      "velocity": 1,
      "hand": "right"
    },
    {
      "midi": 53,
      "time": 53.75,
      "duration": 0.208,
      "velocity": 1,
      "hand": "left"
    },
    {
      "midi": 58,
      "time": 53.75,
      "duration": 0.208,
      "velocity": 1,
      "hand": "left"
    },
    {
      "midi": 60,
      "time": 53.75,
      "duration": 0.417,
      "velocity": 1,
      "hand": "right"
    },
    {
      "midi": 62,
      "time": 53.75,
      "duration": 0.208,
      "velocity": 1,
      "hand": "right"
    },
    {
      "midi": 53,
      "time": 53.958,
      "duration": 0.208,
      "velocity": 1,
      "hand": "left"
    },
    {
      "midi": 58,
      "time": 53.958,
      "duration": 0.208,
      "velocity": 1,
      "hand": "left"
    },
    {
      "midi": 62,
      "time": 53.958,
      "duration": 0.208,
      "velocity": 1,
      "hand": "right"
    },
    {
      "midi": 53,
      "time": 54.167,
      "duration": 0.417,
      "velocity": 1,
      "hand": "left"
    },
    {
      "midi": 58,
      "time": 54.167,
      "duration": 0.417,
      "velocity": 1,
      "hand": "left"
    },
    {
      "midi": 62,
      "time": 54.167,
      "duration": 0.417,
      "velocity": 1,
      "hand": "right"
    },
    {
      "midi": 70,
      "time": 54.167,
      "duration": 0.833,
      "velocity": 1,
      "hand": "right"
    },
    {
      "midi": 53,
      "time": 54.583,
      "duration": 0.417,
      "velocity": 1,
      "hand": "left"
    },
    {
      "midi": 58,
      "time": 54.583,
      "duration": 0.417,
      "velocity": 1,
      "hand": "left"
    },
    {
      "midi": 60,
      "time": 54.583,
      "duration": 0.417,
      "velocity": 1,
      "hand": "right"
    },
    {
      "midi": 62,
      "time": 54.583,
      "duration": 0.417,
      "velocity": 1,
      "hand": "right"
    },
    {
      "midi": 46,
      "time": 55,
      "duration": 0.833,
      "velocity": 1,
      "hand": "left"
    },
    {
      "midi": 60,
      "time": 55,
      "duration": 0.833,
      "velocity": 1,
      "hand": "right"
    },
    {
      "midi": 70,
      "time": 55,
      "duration": 0.417,
      "velocity": 1,
      "hand": "right"
    },
    {
      "midi": 53,
      "time": 55.417,
      "duration": 0.208,
      "velocity": 1,
      "hand": "left"
    },
    {
      "midi": 58,
      "time": 55.417,
      "duration": 0.208,
      "velocity": 1,
      "hand": "left"
    },
    {
      "midi": 62,
      "time": 55.417,
      "duration": 0.208,
      "velocity": 1,
      "hand": "right"
    },
    {
      "midi": 69,
      "time": 55.417,
      "duration": 0.208,
      "velocity": 1,
      "hand": "right"
    },
    {
      "midi": 53,
      "time": 55.625,
      "duration": 0.208,
      "velocity": 1,
      "hand": "left"
    },
    {
      "midi": 58,
      "time": 55.625,
      "duration": 0.208,
      "velocity": 1,
      "hand": "left"
    },
    {
      "midi": 62,
      "time": 55.625,
      "duration": 0.208,
      "velocity": 1,
      "hand": "right"
    },
    {
      "midi": 70,
      "time": 55.625,
      "duration": 0.208,
      "velocity": 1,
      "hand": "right"
    },
    {
      "midi": 53,
      "time": 55.833,
      "duration": 0.417,
      "velocity": 1,
      "hand": "left"
    },
    {
      "midi": 58,
      "time": 55.833,
      "duration": 0.417,
      "velocity": 1,
      "hand": "left"
    },
    {
      "midi": 62,
      "time": 55.833,
      "duration": 0.417,
      "velocity": 1,
      "hand": "right"
    },
    {
      "midi": 69,
      "time": 55.833,
      "duration": 0.208,
      "velocity": 1,
      "hand": "right"
    },
    {
      "midi": 70,
      "time": 56.042,
      "duration": 0.208,
      "velocity": 1,
      "hand": "right"
    },
    {
      "midi": 53,
      "time": 56.25,
      "duration": 0.417,
      "velocity": 1,
      "hand": "left"
    },
    {
      "midi": 58,
      "time": 56.25,
      "duration": 0.417,
      "velocity": 1,
      "hand": "left"
    },
    {
      "midi": 62,
      "time": 56.25,
      "duration": 0.417,
      "velocity": 1,
      "hand": "right"
    },
    {
      "midi": 74,
      "time": 56.25,
      "duration": 0.208,
      "velocity": 1,
      "hand": "right"
    },
    {
      "midi": 72,
      "time": 56.458,
      "duration": 0.208,
      "velocity": 1,
      "hand": "right"
    },
    {
      "midi": 51,
      "time": 56.667,
      "duration": 0.833,
      "velocity": 1,
      "hand": "left"
    },
    {
      "midi": 65,
      "time": 56.667,
      "duration": 1.667,
      "velocity": 1,
      "hand": "right"
    },
    {
      "midi": 55,
      "time": 57.083,
      "duration": 0.208,
      "velocity": 1,
      "hand": "left"
    },
    {
      "midi": 58,
      "time": 57.083,
      "duration": 0.208,
      "velocity": 1,
      "hand": "left"
    },
    {
      "midi": 55,
      "time": 57.292,
      "duration": 0.208,
      "velocity": 1,
      "hand": "left"
    },
    {
      "midi": 58,
      "time": 57.292,
      "duration": 0.208,
      "velocity": 1,
      "hand": "left"
    },
    {
      "midi": 55,
      "time": 57.5,
      "duration": 0.417,
      "velocity": 1,
      "hand": "left"
    },
    {
      "midi": 58,
      "time": 57.5,
      "duration": 0.417,
      "velocity": 1,
      "hand": "left"
    },
    {
      "midi": 55,
      "time": 57.917,
      "duration": 0.417,
      "velocity": 1,
      "hand": "left"
    },
    {
      "midi": 58,
      "time": 57.917,
      "duration": 0.417,
      "velocity": 1,
      "hand": "left"
    },
    {
      "midi": 51,
      "time": 58.333,
      "duration": 0.833,
      "velocity": 1,
      "hand": "left"
    },
    {
      "midi": 65,
      "time": 58.333,
      "duration": 1.25,
      "velocity": 1,
      "hand": "right"
    },
    {
      "midi": 55,
      "time": 58.75,
      "duration": 0.417,
      "velocity": 1,
      "hand": "left"
    },
    {
      "midi": 58,
      "time": 58.75,
      "duration": 0.417,
      "velocity": 1,
      "hand": "left"
    },
    {
      "midi": 77,
      "time": 59.583,
      "duration": 0.417,
      "velocity": 1,
      "hand": "right"
    },
    {
      "midi": 56,
      "time": 60,
      "duration": 0.417,
      "velocity": 1,
      "hand": "left"
    },
    {
      "midi": 60,
      "time": 60,
      "duration": 0.833,
      "velocity": 1,
      "hand": "right"
    },
    {
      "midi": 74,
      "time": 60,
      "duration": 0.417,
      "velocity": 1,
      "hand": "right"
    },
    {
      "midi": 60,
      "time": 60.417,
      "duration": 0.417,
      "velocity": 1,
      "hand": "right"
    },
    {
      "midi": 63,
      "time": 60.417,
      "duration": 0.417,
      "velocity": 1,
      "hand": "right"
    },
    {
      "midi": 77,
      "time": 60.417,
      "duration": 0.417,
      "velocity": 1,
      "hand": "right"
    },
    {
      "midi": 56,
      "time": 60.833,
      "duration": 0.417,
      "velocity": 1,
      "hand": "left"
    },
    {
      "midi": 60,
      "time": 60.833,
      "duration": 0.833,
      "velocity": 1,
      "hand": "right"
    },
    {
      "midi": 74,
      "time": 60.833,
      "duration": 0.417,
      "velocity": 1,
      "hand": "right"
    },
    {
      "midi": 60,
      "time": 61.25,
      "duration": 0.417,
      "velocity": 1,
      "hand": "right"
    },
    {
      "midi": 63,
      "time": 61.25,
      "duration": 0.417,
      "velocity": 1,
      "hand": "right"
    },
    {
      "midi": 77,
      "time": 61.25,
      "duration": 0.417,
      "velocity": 1,
      "hand": "right"
    },
    {
      "midi": 56,
      "time": 61.667,
      "duration": 0.417,
      "velocity": 1,
      "hand": "left"
    },
    {
      "midi": 60,
      "time": 61.667,
      "duration": 0.833,
      "velocity": 1,
      "hand": "right"
    },
    {
      "midi": 74,
      "time": 61.667,
      "duration": 0.417,
      "velocity": 1,
      "hand": "right"
    },
    {
      "midi": 60,
      "time": 62.083,
      "duration": 0.417,
      "velocity": 1,
      "hand": "right"
    },
    {
      "midi": 63,
      "time": 62.083,
      "duration": 0.417,
      "velocity": 1,
      "hand": "right"
    },
    {
      "midi": 77,
      "time": 62.083,
      "duration": 0.417,
      "velocity": 1,
      "hand": "right"
    },
    {
      "midi": 56,
      "time": 62.5,
      "duration": 0.417,
      "velocity": 1,
      "hand": "left"
    },
    {
      "midi": 60,
      "time": 62.5,
      "duration": 0.833,
      "velocity": 1,
      "hand": "right"
    },
    {
      "midi": 79,
      "time": 62.5,
      "duration": 0.208,
      "velocity": 1,
      "hand": "right"
    },
    {
      "midi": 77,
      "time": 62.708,
      "duration": 0.208,
      "velocity": 1,
      "hand": "right"
    },
    {
      "midi": 60,
      "time": 62.917,
      "duration": 0.417,
      "velocity": 1,
      "hand": "right"
    },
    {
      "midi": 63,
      "time": 62.917,
      "duration": 0.417,
      "velocity": 1,
      "hand": "right"
    },
    {
      "midi": 76,
      "time": 62.917,
      "duration": 0.208,
      "velocity": 1,
      "hand": "right"
    },
    {
      "midi": 74,
      "time": 63.125,
      "duration": 0.208,
      "velocity": 1,
      "hand": "right"
    },
    {
      "midi": 51,
      "time": 63.333,
      "duration": 0.417,
      "velocity": 1,
      "hand": "left"
    },
    {
      "midi": 60,
      "time": 63.333,
      "duration": 0.833,
      "velocity": 1,
      "hand": "right"
    },
    {
      "midi": 74,
      "time": 63.333,
      "duration": 0.208,
      "velocity": 1,
      "hand": "right"
    },
    {
      "midi": 72,
      "time": 63.542,
      "duration": 0.208,
      "velocity": 1,
      "hand": "right"
    },
    {
      "midi": 55,
      "time": 63.75,
      "duration": 0.417,
      "velocity": 1,
      "hand": "left"
    },
    {
      "midi": 58,
      "time": 63.75,
      "duration": 0.417,
      "velocity": 1,
      "hand": "left"
    },
    {
      "midi": 63,
      "time": 63.75,
      "duration": 0.417,
      "velocity": 1,
      "hand": "right"
    },
    {
      "midi": 72,
      "time": 63.75,
      "duration": 0.208,
      "velocity": 1,
      "hand": "right"
    },
    {
      "midi": 72,
      "time": 63.958,
      "duration": 0.208,
      "velocity": 1,
      "hand": "right"
    },
    {
      "midi": 51,
      "time": 64.167,
      "duration": 0.417,
      "velocity": 1,
      "hand": "left"
    },
    {
      "midi": 60,
      "time": 64.167,
      "duration": 0.833,
      "velocity": 1,
      "hand": "right"
    },
    {
      "midi": 74,
      "time": 64.167,
      "duration": 0.208,
      "velocity": 1,
      "hand": "right"
    },
    {
      "midi": 72,
      "time": 64.375,
      "duration": 0.208,
      "velocity": 1,
      "hand": "right"
    },
    {
      "midi": 55,
      "time": 64.583,
      "duration": 0.417,
      "velocity": 1,
      "hand": "left"
    },
    {
      "midi": 58,
      "time": 64.583,
      "duration": 0.417,
      "velocity": 1,
      "hand": "left"
    },
    {
      "midi": 63,
      "time": 64.583,
      "duration": 0.417,
      "velocity": 1,
      "hand": "right"
    },
    {
      "midi": 72,
      "time": 64.583,
      "duration": 0.208,
      "velocity": 1,
      "hand": "right"
    },
    {
      "midi": 72,
      "time": 64.792,
      "duration": 0.208,
      "velocity": 1,
      "hand": "right"
    },
    {
      "midi": 51,
      "time": 65,
      "duration": 0.417,
      "velocity": 1,
      "hand": "left"
    },
    {
      "midi": 60,
      "time": 65,
      "duration": 0.833,
      "velocity": 1,
      "hand": "right"
    },
    {
      "midi": 74,
      "time": 65,
      "duration": 0.208,
      "velocity": 1,
      "hand": "right"
    },
    {
      "midi": 72,
      "time": 65.208,
      "duration": 0.208,
      "velocity": 1,
      "hand": "right"
    },
    {
      "midi": 55,
      "time": 65.417,
      "duration": 0.417,
      "velocity": 1,
      "hand": "left"
    },
    {
      "midi": 58,
      "time": 65.417,
      "duration": 0.417,
      "velocity": 1,
      "hand": "left"
    },
    {
      "midi": 63,
      "time": 65.417,
      "duration": 0.417,
      "velocity": 1,
      "hand": "right"
    },
    {
      "midi": 72,
      "time": 65.417,
      "duration": 0.208,
      "velocity": 1,
      "hand": "right"
    },
    {
      "midi": 72,
      "time": 65.625,
      "duration": 0.208,
      "velocity": 1,
      "hand": "right"
    },
    {
      "midi": 51,
      "time": 65.833,
      "duration": 0.417,
      "velocity": 1,
      "hand": "left"
    },
    {
      "midi": 60,
      "time": 65.833,
      "duration": 0.833,
      "velocity": 1,
      "hand": "right"
    },
    {
      "midi": 74,
      "time": 65.833,
      "duration": 0.208,
      "velocity": 1,
      "hand": "right"
    },
    {
      "midi": 72,
      "time": 66.042,
      "duration": 0.208,
      "velocity": 1,
      "hand": "right"
    },
    {
      "midi": 55,
      "time": 66.25,
      "duration": 0.417,
      "velocity": 1,
      "hand": "left"
    },
    {
      "midi": 58,
      "time": 66.25,
      "duration": 0.417,
      "velocity": 1,
      "hand": "left"
    },
    {
      "midi": 63,
      "time": 66.25,
      "duration": 0.417,
      "velocity": 1,
      "hand": "right"
    },
    {
      "midi": 70,
      "time": 66.25,
      "duration": 0.208,
      "velocity": 1,
      "hand": "right"
    },
    {
      "midi": 69,
      "time": 66.458,
      "duration": 0.208,
      "velocity": 1,
      "hand": "right"
    },
    {
      "midi": 46,
      "time": 66.667,
      "duration": 0.417,
      "velocity": 1,
      "hand": "left"
    },
    {
      "midi": 60,
      "time": 66.667,
      "duration": 0.833,
      "velocity": 1,
      "hand": "right"
    },
    {
      "midi": 72,
      "time": 66.667,
      "duration": 0.208,
      "velocity": 1,
      "hand": "right"
    },
    {
      "midi": 70,
      "time": 66.875,
      "duration": 0.208,
      "velocity": 1,
      "hand": "right"
    },
    {
      "midi": 53,
      "time": 67.083,
      "duration": 0.417,
      "velocity": 1,
      "hand": "left"
    },
    {
      "midi": 58,
      "time": 67.083,
      "duration": 0.417,
      "velocity": 1,
      "hand": "left"
    },
    {
      "midi": 62,
      "time": 67.083,
      "duration": 0.417,
      "velocity": 1,
      "hand": "right"
    },
    {
      "midi": 70,
      "time": 67.083,
      "duration": 0.208,
      "velocity": 1,
      "hand": "right"
    },
    {
      "midi": 70,
      "time": 67.292,
      "duration": 0.208,
      "velocity": 1,
      "hand": "right"
    },
    {
      "midi": 46,
      "time": 67.5,
      "duration": 0.417,
      "velocity": 1,
      "hand": "left"
    },
    {
      "midi": 60,
      "time": 67.5,
      "duration": 0.833,
      "velocity": 1,
      "hand": "right"
    },
    {
      "midi": 72,
      "time": 67.5,
      "duration": 0.208,
      "velocity": 1,
      "hand": "right"
    },
    {
      "midi": 70,
      "time": 67.708,
      "duration": 0.208,
      "velocity": 1,
      "hand": "right"
    },
    {
      "midi": 53,
      "time": 67.917,
      "duration": 0.417,
      "velocity": 1,
      "hand": "left"
    },
    {
      "midi": 58,
      "time": 67.917,
      "duration": 0.417,
      "velocity": 1,
      "hand": "left"
    },
    {
      "midi": 62,
      "time": 67.917,
      "duration": 0.417,
      "velocity": 1,
      "hand": "right"
    },
    {
      "midi": 70,
      "time": 67.917,
      "duration": 0.208,
      "velocity": 1,
      "hand": "right"
    },
    {
      "midi": 70,
      "time": 68.125,
      "duration": 0.208,
      "velocity": 1,
      "hand": "right"
    },
    {
      "midi": 46,
      "time": 68.333,
      "duration": 0.417,
      "velocity": 1,
      "hand": "left"
    },
    {
      "midi": 60,
      "time": 68.333,
      "duration": 0.833,
      "velocity": 1,
      "hand": "right"
    },
    {
      "midi": 72,
      "time": 68.333,
      "duration": 0.208,
      "velocity": 1,
      "hand": "right"
    },
    {
      "midi": 70,
      "time": 68.542,
      "duration": 0.208,
      "velocity": 1,
      "hand": "right"
    },
    {
      "midi": 53,
      "time": 68.75,
      "duration": 0.417,
      "velocity": 1,
      "hand": "left"
    },
    {
      "midi": 58,
      "time": 68.75,
      "duration": 0.417,
      "velocity": 1,
      "hand": "left"
    },
    {
      "midi": 62,
      "time": 68.75,
      "duration": 0.417,
      "velocity": 1,
      "hand": "right"
    },
    {
      "midi": 70,
      "time": 68.75,
      "duration": 0.208,
      "velocity": 1,
      "hand": "right"
    },
    {
      "midi": 70,
      "time": 68.958,
      "duration": 0.208,
      "velocity": 1,
      "hand": "right"
    },
    {
      "midi": 46,
      "time": 69.167,
      "duration": 0.417,
      "velocity": 1,
      "hand": "left"
    },
    {
      "midi": 60,
      "time": 69.167,
      "duration": 0.833,
      "velocity": 1,
      "hand": "right"
    },
    {
      "midi": 72,
      "time": 69.167,
      "duration": 0.208,
      "velocity": 1,
      "hand": "right"
    },
    {
      "midi": 70,
      "time": 69.375,
      "duration": 0.208,
      "velocity": 1,
      "hand": "right"
    },
    {
      "midi": 53,
      "time": 69.583,
      "duration": 0.417,
      "velocity": 1,
      "hand": "left"
    },
    {
      "midi": 58,
      "time": 69.583,
      "duration": 0.417,
      "velocity": 1,
      "hand": "left"
    },
    {
      "midi": 62,
      "time": 69.583,
      "duration": 0.417,
      "velocity": 1,
      "hand": "right"
    },
    {
      "midi": 69,
      "time": 69.583,
      "duration": 0.208,
      "velocity": 1,
      "hand": "right"
    },
    {
      "midi": 67,
      "time": 69.792,
      "duration": 0.208,
      "velocity": 1,
      "hand": "right"
    },
    {
      "midi": 51,
      "time": 70,
      "duration": 0.417,
      "velocity": 1,
      "hand": "left"
    },
    {
      "midi": 60,
      "time": 70,
      "duration": 0.833,
      "velocity": 1,
      "hand": "right"
    },
    {
      "midi": 65,
      "time": 70,
      "duration": 0.208,
      "velocity": 1,
      "hand": "right"
    },
    {
      "midi": 65,
      "time": 70.208,
      "duration": 0.208,
      "velocity": 1,
      "hand": "right"
    },
    {
      "midi": 55,
      "time": 70.417,
      "duration": 0.417,
      "velocity": 1,
      "hand": "left"
    },
    {
      "midi": 58,
      "time": 70.417,
      "duration": 0.417,
      "velocity": 1,
      "hand": "left"
    },
    {
      "midi": 67,
      "time": 70.417,
      "duration": 0.208,
      "velocity": 1,
      "hand": "right"
    },
    {
      "midi": 69,
      "time": 70.625,
      "duration": 0.208,
      "velocity": 1,
      "hand": "right"
    },
    {
      "midi": 70,
      "time": 70.833,
      "duration": 0.208,
      "velocity": 1,
      "hand": "right"
    },
    {
      "midi": 72,
      "time": 71.042,
      "duration": 0.208,
      "velocity": 1,
      "hand": "right"
    },
    {
      "midi": 74,
      "time": 71.25,
      "duration": 0.208,
      "velocity": 1,
      "hand": "right"
    },
    {
      "midi": 76,
      "time": 71.458,
      "duration": 0.208,
      "velocity": 1,
      "hand": "right"
    },
    {
      "midi": 60,
      "time": 71.667,
      "duration": 0.417,
      "velocity": 1,
      "hand": "right"
    },
    {
      "midi": 77,
      "time": 71.667,
      "duration": 0.417,
      "velocity": 1,
      "hand": "right"
    },
    {
      "midi": 51,
      "time": 72.083,
      "duration": 0.417,
      "velocity": 1,
      "hand": "left"
    },
    {
      "midi": 55,
      "time": 72.083,
      "duration": 0.417,
      "velocity": 1,
      "hand": "left"
    },
    {
      "midi": 58,
      "time": 72.083,
      "duration": 0.417,
      "velocity": 1,
      "hand": "left"
    },
    {
      "midi": 60,
      "time": 72.083,
      "duration": 0.417,
      "velocity": 1,
      "hand": "right"
    },
    {
      "midi": 55,
      "time": 72.5,
      "duration": 0.417,
      "velocity": 1,
      "hand": "left"
    },
    {
      "midi": 58,
      "time": 72.5,
      "duration": 0.417,
      "velocity": 1,
      "hand": "left"
    },
    {
      "midi": 60,
      "time": 72.5,
      "duration": 0.417,
      "velocity": 1,
      "hand": "right"
    },
    {
      "midi": 63,
      "time": 72.5,
      "duration": 0.417,
      "velocity": 1,
      "hand": "right"
    },
    {
      "midi": 51,
      "time": 72.917,
      "duration": 0.417,
      "velocity": 1,
      "hand": "left"
    },
    {
      "midi": 55,
      "time": 72.917,
      "duration": 0.417,
      "velocity": 1,
      "hand": "left"
    },
    {
      "midi": 58,
      "time": 72.917,
      "duration": 0.417,
      "velocity": 1,
      "hand": "left"
    },
    {
      "midi": 77,
      "time": 72.917,
      "duration": 0.417,
      "velocity": 1,
      "hand": "right"
    },
    {
      "midi": 56,
      "time": 73.333,
      "duration": 0.417,
      "velocity": 1,
      "hand": "left"
    },
    {
      "midi": 60,
      "time": 73.333,
      "duration": 0.833,
      "velocity": 1,
      "hand": "right"
    },
    {
      "midi": 74,
      "time": 73.333,
      "duration": 0.417,
      "velocity": 1,
      "hand": "right"
    },
    {
      "midi": 60,
      "time": 73.75,
      "duration": 0.417,
      "velocity": 1,
      "hand": "right"
    },
    {
      "midi": 63,
      "time": 73.75,
      "duration": 0.417,
      "velocity": 1,
      "hand": "right"
    },
    {
      "midi": 77,
      "time": 73.75,
      "duration": 0.417,
      "velocity": 1,
      "hand": "right"
    },
    {
      "midi": 56,
      "time": 74.167,
      "duration": 0.417,
      "velocity": 1,
      "hand": "left"
    },
    {
      "midi": 60,
      "time": 74.167,
      "duration": 0.833,
      "velocity": 1,
      "hand": "right"
    },
    {
      "midi": 74,
      "time": 74.167,
      "duration": 0.417,
      "velocity": 1,
      "hand": "right"
    },
    {
      "midi": 60,
      "time": 74.583,
      "duration": 0.417,
      "velocity": 1,
      "hand": "right"
    },
    {
      "midi": 63,
      "time": 74.583,
      "duration": 0.417,
      "velocity": 1,
      "hand": "right"
    },
    {
      "midi": 77,
      "time": 74.583,
      "duration": 0.417,
      "velocity": 1,
      "hand": "right"
    },
    {
      "midi": 56,
      "time": 75,
      "duration": 0.417,
      "velocity": 1,
      "hand": "left"
    },
    {
      "midi": 60,
      "time": 75,
      "duration": 0.833,
      "velocity": 1,
      "hand": "right"
    },
    {
      "midi": 74,
      "time": 75,
      "duration": 0.417,
      "velocity": 1,
      "hand": "right"
    },
    {
      "midi": 60,
      "time": 75.417,
      "duration": 0.417,
      "velocity": 1,
      "hand": "right"
    },
    {
      "midi": 63,
      "time": 75.417,
      "duration": 0.417,
      "velocity": 1,
      "hand": "right"
    },
    {
      "midi": 77,
      "time": 75.417,
      "duration": 0.417,
      "velocity": 1,
      "hand": "right"
    },
    {
      "midi": 56,
      "time": 75.833,
      "duration": 0.417,
      "velocity": 1,
      "hand": "left"
    },
    {
      "midi": 60,
      "time": 75.833,
      "duration": 0.833,
      "velocity": 1,
      "hand": "right"
    },
    {
      "midi": 79,
      "time": 75.833,
      "duration": 0.208,
      "velocity": 1,
      "hand": "right"
    },
    {
      "midi": 77,
      "time": 76.042,
      "duration": 0.208,
      "velocity": 1,
      "hand": "right"
    },
    {
      "midi": 60,
      "time": 76.25,
      "duration": 0.417,
      "velocity": 1,
      "hand": "right"
    },
    {
      "midi": 63,
      "time": 76.25,
      "duration": 0.417,
      "velocity": 1,
      "hand": "right"
    },
    {
      "midi": 76,
      "time": 76.25,
      "duration": 0.208,
      "velocity": 1,
      "hand": "right"
    },
    {
      "midi": 74,
      "time": 76.458,
      "duration": 0.208,
      "velocity": 1,
      "hand": "right"
    },
    {
      "midi": 51,
      "time": 76.667,
      "duration": 0.417,
      "velocity": 1,
      "hand": "left"
    },
    {
      "midi": 60,
      "time": 76.667,
      "duration": 0.833,
      "velocity": 1,
      "hand": "right"
    },
    {
      "midi": 74,
      "time": 76.667,
      "duration": 0.208,
      "velocity": 1,
      "hand": "right"
    },
    {
      "midi": 72,
      "time": 76.875,
      "duration": 0.208,
      "velocity": 1,
      "hand": "right"
    },
    {
      "midi": 55,
      "time": 77.083,
      "duration": 0.417,
      "velocity": 1,
      "hand": "left"
    },
    {
      "midi": 58,
      "time": 77.083,
      "duration": 0.417,
      "velocity": 1,
      "hand": "left"
    },
    {
      "midi": 63,
      "time": 77.083,
      "duration": 0.417,
      "velocity": 1,
      "hand": "right"
    },
    {
      "midi": 72,
      "time": 77.083,
      "duration": 0.208,
      "velocity": 1,
      "hand": "right"
    },
    {
      "midi": 72,
      "time": 77.292,
      "duration": 0.208,
      "velocity": 1,
      "hand": "right"
    },
    {
      "midi": 51,
      "time": 77.5,
      "duration": 0.417,
      "velocity": 1,
      "hand": "left"
    },
    {
      "midi": 60,
      "time": 77.5,
      "duration": 0.833,
      "velocity": 1,
      "hand": "right"
    },
    {
      "midi": 74,
      "time": 77.5,
      "duration": 0.208,
      "velocity": 1,
      "hand": "right"
    },
    {
      "midi": 72,
      "time": 77.708,
      "duration": 0.208,
      "velocity": 1,
      "hand": "right"
    },
    {
      "midi": 55,
      "time": 77.917,
      "duration": 0.417,
      "velocity": 1,
      "hand": "left"
    },
    {
      "midi": 58,
      "time": 77.917,
      "duration": 0.417,
      "velocity": 1,
      "hand": "left"
    },
    {
      "midi": 63,
      "time": 77.917,
      "duration": 0.417,
      "velocity": 1,
      "hand": "right"
    },
    {
      "midi": 72,
      "time": 77.917,
      "duration": 0.208,
      "velocity": 1,
      "hand": "right"
    },
    {
      "midi": 72,
      "time": 78.125,
      "duration": 0.208,
      "velocity": 1,
      "hand": "right"
    },
    {
      "midi": 51,
      "time": 78.333,
      "duration": 0.417,
      "velocity": 1,
      "hand": "left"
    },
    {
      "midi": 60,
      "time": 78.333,
      "duration": 0.833,
      "velocity": 1,
      "hand": "right"
    },
    {
      "midi": 74,
      "time": 78.333,
      "duration": 0.208,
      "velocity": 1,
      "hand": "right"
    },
    {
      "midi": 72,
      "time": 78.542,
      "duration": 0.208,
      "velocity": 1,
      "hand": "right"
    },
    {
      "midi": 55,
      "time": 78.75,
      "duration": 0.417,
      "velocity": 1,
      "hand": "left"
    },
    {
      "midi": 58,
      "time": 78.75,
      "duration": 0.417,
      "velocity": 1,
      "hand": "left"
    },
    {
      "midi": 63,
      "time": 78.75,
      "duration": 0.417,
      "velocity": 1,
      "hand": "right"
    },
    {
      "midi": 72,
      "time": 78.75,
      "duration": 0.208,
      "velocity": 1,
      "hand": "right"
    },
    {
      "midi": 72,
      "time": 78.958,
      "duration": 0.208,
      "velocity": 1,
      "hand": "right"
    },
    {
      "midi": 51,
      "time": 79.167,
      "duration": 0.417,
      "velocity": 1,
      "hand": "left"
    },
    {
      "midi": 60,
      "time": 79.167,
      "duration": 0.833,
      "velocity": 1,
      "hand": "right"
    },
    {
      "midi": 74,
      "time": 79.167,
      "duration": 0.208,
      "velocity": 1,
      "hand": "right"
    },
    {
      "midi": 72,
      "time": 79.375,
      "duration": 0.208,
      "velocity": 1,
      "hand": "right"
    },
    {
      "midi": 55,
      "time": 79.583,
      "duration": 0.417,
      "velocity": 1,
      "hand": "left"
    },
    {
      "midi": 58,
      "time": 79.583,
      "duration": 0.417,
      "velocity": 1,
      "hand": "left"
    },
    {
      "midi": 63,
      "time": 79.583,
      "duration": 0.417,
      "velocity": 1,
      "hand": "right"
    },
    {
      "midi": 70,
      "time": 79.583,
      "duration": 0.208,
      "velocity": 1,
      "hand": "right"
    },
    {
      "midi": 69,
      "time": 79.792,
      "duration": 0.208,
      "velocity": 1,
      "hand": "right"
    },
    {
      "midi": 46,
      "time": 80,
      "duration": 0.417,
      "velocity": 1,
      "hand": "left"
    },
    {
      "midi": 60,
      "time": 80,
      "duration": 0.833,
      "velocity": 1,
      "hand": "right"
    },
    {
      "midi": 72,
      "time": 80,
      "duration": 0.208,
      "velocity": 1,
      "hand": "right"
    },
    {
      "midi": 70,
      "time": 80.208,
      "duration": 0.208,
      "velocity": 1,
      "hand": "right"
    },
    {
      "midi": 53,
      "time": 80.417,
      "duration": 0.417,
      "velocity": 1,
      "hand": "left"
    },
    {
      "midi": 58,
      "time": 80.417,
      "duration": 0.417,
      "velocity": 1,
      "hand": "left"
    },
    {
      "midi": 62,
      "time": 80.417,
      "duration": 0.417,
      "velocity": 1,
      "hand": "right"
    },
    {
      "midi": 70,
      "time": 80.417,
      "duration": 0.208,
      "velocity": 1,
      "hand": "right"
    },
    {
      "midi": 70,
      "time": 80.625,
      "duration": 0.208,
      "velocity": 1,
      "hand": "right"
    },
    {
      "midi": 46,
      "time": 80.833,
      "duration": 0.417,
      "velocity": 1,
      "hand": "left"
    },
    {
      "midi": 60,
      "time": 80.833,
      "duration": 0.833,
      "velocity": 1,
      "hand": "right"
    },
    {
      "midi": 72,
      "time": 80.833,
      "duration": 0.208,
      "velocity": 1,
      "hand": "right"
    },
    {
      "midi": 70,
      "time": 81.042,
      "duration": 0.208,
      "velocity": 1,
      "hand": "right"
    },
    {
      "midi": 53,
      "time": 81.25,
      "duration": 0.417,
      "velocity": 1,
      "hand": "left"
    },
    {
      "midi": 58,
      "time": 81.25,
      "duration": 0.417,
      "velocity": 1,
      "hand": "left"
    },
    {
      "midi": 62,
      "time": 81.25,
      "duration": 0.417,
      "velocity": 1,
      "hand": "right"
    },
    {
      "midi": 70,
      "time": 81.25,
      "duration": 0.208,
      "velocity": 1,
      "hand": "right"
    },
    {
      "midi": 70,
      "time": 81.458,
      "duration": 0.208,
      "velocity": 1,
      "hand": "right"
    },
    {
      "midi": 46,
      "time": 81.667,
      "duration": 0.417,
      "velocity": 1,
      "hand": "left"
    },
    {
      "midi": 60,
      "time": 81.667,
      "duration": 0.833,
      "velocity": 1,
      "hand": "right"
    },
    {
      "midi": 72,
      "time": 81.667,
      "duration": 0.208,
      "velocity": 1,
      "hand": "right"
    },
    {
      "midi": 70,
      "time": 81.875,
      "duration": 0.208,
      "velocity": 1,
      "hand": "right"
    },
    {
      "midi": 53,
      "time": 82.083,
      "duration": 0.417,
      "velocity": 1,
      "hand": "left"
    },
    {
      "midi": 58,
      "time": 82.083,
      "duration": 0.417,
      "velocity": 1,
      "hand": "left"
    },
    {
      "midi": 62,
      "time": 82.083,
      "duration": 0.417,
      "velocity": 1,
      "hand": "right"
    },
    {
      "midi": 70,
      "time": 82.083,
      "duration": 0.208,
      "velocity": 1,
      "hand": "right"
    },
    {
      "midi": 70,
      "time": 82.292,
      "duration": 0.208,
      "velocity": 1,
      "hand": "right"
    },
    {
      "midi": 46,
      "time": 82.5,
      "duration": 0.417,
      "velocity": 1,
      "hand": "left"
    },
    {
      "midi": 60,
      "time": 82.5,
      "duration": 0.833,
      "velocity": 1,
      "hand": "right"
    },
    {
      "midi": 72,
      "time": 82.5,
      "duration": 0.208,
      "velocity": 1,
      "hand": "right"
    },
    {
      "midi": 70,
      "time": 82.708,
      "duration": 0.208,
      "velocity": 1,
      "hand": "right"
    },
    {
      "midi": 53,
      "time": 82.917,
      "duration": 0.417,
      "velocity": 1,
      "hand": "left"
    },
    {
      "midi": 58,
      "time": 82.917,
      "duration": 0.417,
      "velocity": 1,
      "hand": "left"
    },
    {
      "midi": 62,
      "time": 82.917,
      "duration": 0.417,
      "velocity": 1,
      "hand": "right"
    },
    {
      "midi": 69,
      "time": 82.917,
      "duration": 0.208,
      "velocity": 1,
      "hand": "right"
    },
    {
      "midi": 67,
      "time": 83.125,
      "duration": 0.208,
      "velocity": 1,
      "hand": "right"
    },
    {
      "midi": 51,
      "time": 83.333,
      "duration": 0.417,
      "velocity": 1,
      "hand": "left"
    },
    {
      "midi": 55,
      "time": 83.333,
      "duration": 0.417,
      "velocity": 1,
      "hand": "left"
    },
    {
      "midi": 58,
      "time": 83.333,
      "duration": 0.417,
      "velocity": 1,
      "hand": "left"
    },
    {
      "midi": 60,
      "time": 83.333,
      "duration": 0.833,
      "velocity": 1,
      "hand": "right"
    },
    {
      "midi": 65,
      "time": 83.333,
      "duration": 0.208,
      "velocity": 1,
      "hand": "right"
    },
    {
      "midi": 65,
      "time": 83.542,
      "duration": 0.208,
      "velocity": 1,
      "hand": "right"
    },
    {
      "midi": 67,
      "time": 83.75,
      "duration": 0.208,
      "velocity": 1,
      "hand": "right"
    },
    {
      "midi": 69,
      "time": 83.958,
      "duration": 0.208,
      "velocity": 1,
      "hand": "right"
    },
    {
      "midi": 58,
      "time": 84.167,
      "duration": 0.417,
      "velocity": 1,
      "hand": "left"
    },
    {
      "midi": 62,
      "time": 84.167,
      "duration": 0.417,
      "velocity": 1,
      "hand": "right"
    },
    {
      "midi": 65,
      "time": 84.167,
      "duration": 0.417,
      "velocity": 1,
      "hand": "right"
    },
    {
      "midi": 70,
      "time": 84.167,
      "duration": 0.208,
      "velocity": 1,
      "hand": "right"
    },
    {
      "midi": 72,
      "time": 84.375,
      "duration": 0.208,
      "velocity": 1,
      "hand": "right"
    },
    {
      "midi": 74,
      "time": 84.583,
      "duration": 0.208,
      "velocity": 1,
      "hand": "right"
    },
    {
      "midi": 76,
      "time": 84.792,
      "duration": 0.208,
      "velocity": 1,
      "hand": "right"
    },
    {
      "midi": 60,
      "time": 85,
      "duration": 0.833,
      "velocity": 1,
      "hand": "right"
    },
    {
      "midi": 63,
      "time": 85,
      "duration": 0.417,
      "velocity": 1,
      "hand": "right"
    },
    {
      "midi": 67,
      "time": 85,
      "duration": 0.417,
      "velocity": 1,
      "hand": "right"
    },
    {
      "midi": 77,
      "time": 85,
      "duration": 0.208,
      "velocity": 1,
      "hand": "right"
    },
    {
      "midi": 65,
      "time": 85.208,
      "duration": 0.208,
      "velocity": 1,
      "hand": "right"
    },
    {
      "midi": 67,
      "time": 85.417,
      "duration": 0.208,
      "velocity": 1,
      "hand": "right"
    },
    {
      "midi": 69,
      "time": 85.625,
      "duration": 0.208,
      "velocity": 1,
      "hand": "right"
    },
    {
      "midi": 58,
      "time": 85.833,
      "duration": 0.417,
      "velocity": 1,
      "hand": "left"
    },
    {
      "midi": 62,
      "time": 85.833,
      "duration": 0.417,
      "velocity": 1,
      "hand": "right"
    },
    {
      "midi": 65,
      "time": 85.833,
      "duration": 0.417,
      "velocity": 1,
      "hand": "right"
    },
    {
      "midi": 70,
      "time": 85.833,
      "duration": 0.208,
      "velocity": 1,
      "hand": "right"
    },
    {
      "midi": 72,
      "time": 86.042,
      "duration": 0.208,
      "velocity": 1,
      "hand": "right"
    },
    {
      "midi": 74,
      "time": 86.25,
      "duration": 0.208,
      "velocity": 1,
      "hand": "right"
    },
    {
      "midi": 76,
      "time": 86.458,
      "duration": 0.208,
      "velocity": 1,
      "hand": "right"
    },
    {
      "midi": 60,
      "time": 86.667,
      "duration": 0.833,
      "velocity": 1,
      "hand": "right"
    },
    {
      "midi": 63,
      "time": 86.667,
      "duration": 0.417,
      "velocity": 1,
      "hand": "right"
    },
    {
      "midi": 67,
      "time": 86.667,
      "duration": 0.417,
      "velocity": 1,
      "hand": "right"
    },
    {
      "midi": 77,
      "time": 86.667,
      "duration": 0.417,
      "velocity": 1,
      "hand": "right"
    },
    {
      "midi": 51,
      "time": 87.5,
      "duration": 0.417,
      "velocity": 1,
      "hand": "left"
    },
    {
      "midi": 58,
      "time": 87.5,
      "duration": 0.417,
      "velocity": 1,
      "hand": "left"
    },
    {
      "midi": 60,
      "time": 87.5,
      "duration": 0.833,
      "velocity": 1,
      "hand": "right"
    },
    {
      "midi": 67,
      "time": 87.5,
      "duration": 0.417,
      "velocity": 1,
      "hand": "right"
    },
    {
      "midi": 77,
      "time": 87.5,
      "duration": 0.417,
      "velocity": 1,
      "hand": "right"
    },
    {
      "midi": 51,
      "time": 88.333,
      "duration": 0.417,
      "velocity": 1,
      "hand": "left"
    },
    {
      "midi": 55,
      "time": 88.333,
      "duration": 0.417,
      "velocity": 1,
      "hand": "left"
    },
    {
      "midi": 58,
      "time": 88.333,
      "duration": 0.417,
      "velocity": 1,
      "hand": "left"
    },
    {
      "midi": 60,
      "time": 88.333,
      "duration": 0.833,
      "velocity": 1,
      "hand": "right"
    },
    {
      "midi": 63,
      "time": 88.333,
      "duration": 0.417,
      "velocity": 1,
      "hand": "right"
    },
    {
      "midi": 65,
      "time": 88.333,
      "duration": 0.417,
      "velocity": 1,
      "hand": "right"
    }
  ],
  "arrangements": {
    "easy": [
      {
        "midi": 63,
        "time": 0.833,
        "duration": 0.556,
        "velocity": 1,
        "hand": "right"
      },
      {
        "midi": 63,
        "time": 2.5,
        "duration": 0.556,
        "velocity": 1,
        "hand": "right"
      },
      {
        "midi": 76,
        "time": 4.167,
        "duration": 0.833,
        "velocity": 1,
        "hand": "right"
      },
      {
        "midi": 62,
        "time": 5.833,
        "duration": 0.556,
        "velocity": 1,
        "hand": "right"
      },
      {
        "midi": 74,
        "time": 6.667,
        "duration": 0.556,
        "velocity": 1,
        "hand": "right"
      },
      {
        "midi": 63,
        "time": 7.917,
        "duration": 0.556,
        "velocity": 1,
        "hand": "right"
      },
      {
        "midi": 63,
        "time": 9.167,
        "duration": 0.556,
        "velocity": 1,
        "hand": "right"
      },
      {
        "midi": 70,
        "time": 10.833,
        "duration": 0.833,
        "velocity": 1,
        "hand": "right"
      },
      {
        "midi": 70,
        "time": 11.667,
        "duration": 0.556,
        "velocity": 1,
        "hand": "right"
      },
      {
        "midi": 62,
        "time": 12.917,
        "duration": 0.556,
        "velocity": 1,
        "hand": "right"
      },
      {
        "midi": 65,
        "time": 14.167,
        "duration": 0.833,
        "velocity": 1,
        "hand": "right"
      },
      {
        "midi": 65,
        "time": 16.667,
        "duration": 0.556,
        "velocity": 1,
        "hand": "right"
      },
      {
        "midi": 63,
        "time": 17.917,
        "duration": 0.556,
        "velocity": 1,
        "hand": "right"
      },
      {
        "midi": 63,
        "time": 19.167,
        "duration": 0.556,
        "velocity": 1,
        "hand": "right"
      },
      {
        "midi": 76,
        "time": 20.833,
        "duration": 0.833,
        "velocity": 1,
        "hand": "right"
      },
      {
        "midi": 76,
        "time": 21.667,
        "duration": 0.556,
        "velocity": 1,
        "hand": "right"
      },
      {
        "midi": 62,
        "time": 22.917,
        "duration": 0.556,
        "velocity": 1,
        "hand": "right"
      },
      {
        "midi": 72,
        "time": 24.167,
        "duration": 0.833,
        "velocity": 1,
        "hand": "right"
      },
      {
        "midi": 63,
        "time": 25.833,
        "duration": 0.556,
        "velocity": 1,
        "hand": "right"
      },
      {
        "midi": 72,
        "time": 26.667,
        "duration": 0.556,
        "velocity": 1,
        "hand": "right"
      },
      {
        "midi": 62,
        "time": 27.917,
        "duration": 0.556,
        "velocity": 1,
        "hand": "right"
      },
      {
        "midi": 62,
        "time": 29.167,
        "duration": 0.556,
        "velocity": 1,
        "hand": "right"
      },
      {
        "midi": 65,
        "time": 31.667,
        "duration": 0.833,
        "velocity": 1,
        "hand": "right"
      },
      {
        "midi": 74,
        "time": 33.333,
        "duration": 0.556,
        "velocity": 1,
        "hand": "right"
      },
      {
        "midi": 74,
        "time": 34.167,
        "duration": 0.833,
        "velocity": 1,
        "hand": "right"
      },
      {
        "midi": 63,
        "time": 35.833,
        "duration": 0.556,
        "velocity": 1,
        "hand": "right"
      },
      {
        "midi": 74,
        "time": 36.667,
        "duration": 0.556,
        "velocity": 1,
        "hand": "right"
      },
      {
        "midi": 63,
        "time": 37.917,
        "duration": 0.556,
        "velocity": 1,
        "hand": "right"
      },
      {
        "midi": 63,
        "time": 39.167,
        "duration": 0.556,
        "velocity": 1,
        "hand": "right"
      },
      {
        "midi": 70,
        "time": 40.833,
        "duration": 0.833,
        "velocity": 1,
        "hand": "right"
      },
      {
        "midi": 70,
        "time": 41.667,
        "duration": 0.556,
        "velocity": 1,
        "hand": "right"
      },
      {
        "midi": 62,
        "time": 42.917,
        "duration": 0.556,
        "velocity": 1,
        "hand": "right"
      },
      {
        "midi": 65,
        "time": 45,
        "duration": 0.833,
        "velocity": 1,
        "hand": "right"
      },
      {
        "midi": 74,
        "time": 46.667,
        "duration": 0.556,
        "velocity": 1,
        "hand": "right"
      },
      {
        "midi": 63,
        "time": 47.917,
        "duration": 0.556,
        "velocity": 1,
        "hand": "right"
      },
      {
        "midi": 63,
        "time": 49.167,
        "duration": 0.556,
        "velocity": 1,
        "hand": "right"
      },
      {
        "midi": 72,
        "time": 50.833,
        "duration": 0.833,
        "velocity": 1,
        "hand": "right"
      },
      {
        "midi": 72,
        "time": 51.667,
        "duration": 0.556,
        "velocity": 1,
        "hand": "right"
      },
      {
        "midi": 63,
        "time": 52.917,
        "duration": 0.556,
        "velocity": 1,
        "hand": "right"
      },
      {
        "midi": 70,
        "time": 54.167,
        "duration": 0.833,
        "velocity": 1,
        "hand": "right"
      },
      {
        "midi": 62,
        "time": 55.833,
        "duration": 0.556,
        "velocity": 1,
        "hand": "right"
      },
      {
        "midi": 65,
        "time": 56.667,
        "duration": 1.667,
        "velocity": 1,
        "hand": "right"
      },
      {
        "midi": 65,
        "time": 58.333,
        "duration": 1.25,
        "velocity": 1,
        "hand": "right"
      },
      {
        "midi": 77,
        "time": 59.583,
        "duration": 0.556,
        "velocity": 1,
        "hand": "right"
      },
      {
        "midi": 77,
        "time": 60.417,
        "duration": 0.556,
        "velocity": 1,
        "hand": "right"
      },
      {
        "midi": 74,
        "time": 61.667,
        "duration": 0.556,
        "velocity": 1,
        "hand": "right"
      },
      {
        "midi": 63,
        "time": 62.917,
        "duration": 0.556,
        "velocity": 1,
        "hand": "right"
      },
      {
        "midi": 63,
        "time": 64.583,
        "duration": 0.556,
        "velocity": 1,
        "hand": "right"
      },
      {
        "midi": 63,
        "time": 65.417,
        "duration": 0.556,
        "velocity": 1,
        "hand": "right"
      },
      {
        "midi": 62,
        "time": 67.083,
        "duration": 0.556,
        "velocity": 1,
        "hand": "right"
      },
      {
        "midi": 62,
        "time": 67.917,
        "duration": 0.556,
        "velocity": 1,
        "hand": "right"
      },
      {
        "midi": 62,
        "time": 69.583,
        "duration": 0.556,
        "velocity": 1,
        "hand": "right"
      },
      {
        "midi": 77,
        "time": 71.667,
        "duration": 0.556,
        "velocity": 1,
        "hand": "right"
      },
      {
        "midi": 77,
        "time": 72.917,
        "duration": 0.556,
        "velocity": 1,
        "hand": "right"
      },
      {
        "midi": 74,
        "time": 74.167,
        "duration": 0.556,
        "velocity": 1,
        "hand": "right"
      },
      {
        "midi": 77,
        "time": 75.417,
        "duration": 0.556,
        "velocity": 1,
        "hand": "right"
      },
      {
        "midi": 63,
        "time": 77.083,
        "duration": 0.556,
        "velocity": 1,
        "hand": "right"
      },
      {
        "midi": 63,
        "time": 77.917,
        "duration": 0.556,
        "velocity": 1,
        "hand": "right"
      },
      {
        "midi": 63,
        "time": 79.583,
        "duration": 0.556,
        "velocity": 1,
        "hand": "right"
      },
      {
        "midi": 62,
        "time": 80.417,
        "duration": 0.556,
        "velocity": 1,
        "hand": "right"
      },
      {
        "midi": 62,
        "time": 82.083,
        "duration": 0.556,
        "velocity": 1,
        "hand": "right"
      },
      {
        "midi": 62,
        "time": 82.917,
        "duration": 0.556,
        "velocity": 1,
        "hand": "right"
      },
      {
        "midi": 65,
        "time": 84.167,
        "duration": 0.556,
        "velocity": 1,
        "hand": "right"
      },
      {
        "midi": 65,
        "time": 85.833,
        "duration": 0.556,
        "velocity": 1,
        "hand": "right"
      },
      {
        "midi": 77,
        "time": 86.667,
        "duration": 0.556,
        "velocity": 1,
        "hand": "right"
      },
      {
        "midi": 65,
        "time": 88.333,
        "duration": 0.556,
        "velocity": 1,
        "hand": "right"
      }
    ],
    "medium": [
      {
        "midi": 51,
        "time": 0,
        "duration": 0.833,
        "velocity": 1,
        "hand": "left"
      },
      {
        "midi": 55,
        "time": 0.417,
        "duration": 0.208,
        "velocity": 1,
        "hand": "left"
      },
      {
        "midi": 60,
        "time": 0.417,
        "duration": 0.208,
        "velocity": 1,
        "hand": "right"
      },
      {
        "midi": 63,
        "time": 0.417,
        "duration": 0.208,
        "velocity": 1,
        "hand": "right"
      },
      {
        "midi": 55,
        "time": 0.625,
        "duration": 0.208,
        "velocity": 1,
        "hand": "left"
      },
      {
        "midi": 60,
        "time": 0.625,
        "duration": 0.208,
        "velocity": 1,
        "hand": "right"
      },
      {
        "midi": 63,
        "time": 0.625,
        "duration": 0.208,
        "velocity": 1,
        "hand": "right"
      },
      {
        "midi": 55,
        "time": 0.833,
        "duration": 0.417,
        "velocity": 1,
        "hand": "left"
      },
      {
        "midi": 60,
        "time": 0.833,
        "duration": 0.417,
        "velocity": 1,
        "hand": "right"
      },
      {
        "midi": 63,
        "time": 0.833,
        "duration": 0.417,
        "velocity": 1,
        "hand": "right"
      },
      {
        "midi": 55,
        "time": 1.25,
        "duration": 0.417,
        "velocity": 1,
        "hand": "left"
      },
      {
        "midi": 60,
        "time": 1.25,
        "duration": 0.417,
        "velocity": 1,
        "hand": "right"
      },
      {
        "midi": 63,
        "time": 1.25,
        "duration": 0.417,
        "velocity": 1,
        "hand": "right"
      },
      {
        "midi": 46,
        "time": 1.667,
        "duration": 0.833,
        "velocity": 1,
        "hand": "left"
      },
      {
        "midi": 55,
        "time": 2.083,
        "duration": 0.208,
        "velocity": 1,
        "hand": "left"
      },
      {
        "midi": 60,
        "time": 2.083,
        "duration": 0.208,
        "velocity": 1,
        "hand": "right"
      },
      {
        "midi": 72,
        "time": 2.083,
        "duration": 0.208,
        "velocity": 1,
        "hand": "right"
      },
      {
        "midi": 55,
        "time": 2.292,
        "duration": 0.208,
        "velocity": 1,
        "hand": "left"
      },
      {
        "midi": 60,
        "time": 2.292,
        "duration": 0.208,
        "velocity": 1,
        "hand": "right"
      },
      {
        "midi": 74,
        "time": 2.292,
        "duration": 0.208,
        "velocity": 1,
        "hand": "right"
      },
      {
        "midi": 55,
        "time": 2.5,
        "duration": 0.417,
        "velocity": 1,
        "hand": "left"
      },
      {
        "midi": 60,
        "time": 2.5,
        "duration": 0.417,
        "velocity": 1,
        "hand": "right"
      },
      {
        "midi": 77,
        "time": 2.5,
        "duration": 0.208,
        "velocity": 1,
        "hand": "right"
      },
      {
        "midi": 76,
        "time": 2.708,
        "duration": 0.208,
        "velocity": 1,
        "hand": "right"
      },
      {
        "midi": 55,
        "time": 2.917,
        "duration": 0.417,
        "velocity": 1,
        "hand": "left"
      },
      {
        "midi": 60,
        "time": 2.917,
        "duration": 0.417,
        "velocity": 1,
        "hand": "right"
      },
      {
        "midi": 74,
        "time": 2.917,
        "duration": 0.208,
        "velocity": 1,
        "hand": "right"
      },
      {
        "midi": 72,
        "time": 3.125,
        "duration": 0.208,
        "velocity": 1,
        "hand": "right"
      },
      {
        "midi": 53,
        "time": 3.333,
        "duration": 0.833,
        "velocity": 1,
        "hand": "left"
      },
      {
        "midi": 76,
        "time": 3.333,
        "duration": 0.417,
        "velocity": 1,
        "hand": "right"
      },
      {
        "midi": 56,
        "time": 3.75,
        "duration": 0.208,
        "velocity": 1,
        "hand": "left"
      },
      {
        "midi": 60,
        "time": 3.75,
        "duration": 0.417,
        "velocity": 1,
        "hand": "right"
      },
      {
        "midi": 62,
        "time": 3.75,
        "duration": 0.208,
        "velocity": 1,
        "hand": "right"
      },
      {
        "midi": 56,
        "time": 3.958,
        "duration": 0.208,
        "velocity": 1,
        "hand": "left"
      },
      {
        "midi": 58,
        "time": 3.958,
        "duration": 0.208,
        "velocity": 1,
        "hand": "left"
      },
      {
        "midi": 62,
        "time": 3.958,
        "duration": 0.208,
        "velocity": 1,
        "hand": "right"
      },
      {
        "midi": 56,
        "time": 4.167,
        "duration": 0.417,
        "velocity": 1,
        "hand": "left"
      },
      {
        "midi": 62,
        "time": 4.167,
        "duration": 0.417,
        "velocity": 1,
        "hand": "right"
      },
      {
        "midi": 76,
        "time": 4.167,
        "duration": 0.833,
        "velocity": 1,
        "hand": "right"
      },
      {
        "midi": 56,
        "time": 4.583,
        "duration": 0.417,
        "velocity": 1,
        "hand": "left"
      },
      {
        "midi": 60,
        "time": 4.583,
        "duration": 0.417,
        "velocity": 1,
        "hand": "right"
      },
      {
        "midi": 62,
        "time": 4.583,
        "duration": 0.417,
        "velocity": 1,
        "hand": "right"
      },
      {
        "midi": 46,
        "time": 5,
        "duration": 0.833,
        "velocity": 1,
        "hand": "left"
      },
      {
        "midi": 76,
        "time": 5,
        "duration": 0.417,
        "velocity": 1,
        "hand": "right"
      },
      {
        "midi": 56,
        "time": 5.417,
        "duration": 0.208,
        "velocity": 1,
        "hand": "left"
      },
      {
        "midi": 60,
        "time": 5.417,
        "duration": 0.208,
        "velocity": 1,
        "hand": "right"
      },
      {
        "midi": 74,
        "time": 5.417,
        "duration": 0.208,
        "velocity": 1,
        "hand": "right"
      },
      {
        "midi": 56,
        "time": 5.625,
        "duration": 0.208,
        "velocity": 1,
        "hand": "left"
      },
      {
        "midi": 60,
        "time": 5.625,
        "duration": 0.208,
        "velocity": 1,
        "hand": "right"
      },
      {
        "midi": 76,
        "time": 5.625,
        "duration": 0.208,
        "velocity": 1,
        "hand": "right"
      },
      {
        "midi": 56,
        "time": 5.833,
        "duration": 0.417,
        "velocity": 1,
        "hand": "left"
      },
      {
        "midi": 60,
        "time": 5.833,
        "duration": 0.417,
        "velocity": 1,
        "hand": "right"
      },
      {
        "midi": 77,
        "time": 5.833,
        "duration": 0.208,
        "velocity": 1,
        "hand": "right"
      },
      {
        "midi": 76,
        "time": 6.042,
        "duration": 0.208,
        "velocity": 1,
        "hand": "right"
      },
      {
        "midi": 56,
        "time": 6.25,
        "duration": 0.417,
        "velocity": 1,
        "hand": "left"
      },
      {
        "midi": 60,
        "time": 6.25,
        "duration": 0.417,
        "velocity": 1,
        "hand": "right"
      },
      {
        "midi": 74,
        "time": 6.25,
        "duration": 0.208,
        "velocity": 1,
        "hand": "right"
      },
      {
        "midi": 76,
        "time": 6.458,
        "duration": 0.208,
        "velocity": 1,
        "hand": "right"
      },
      {
        "midi": 51,
        "time": 6.667,
        "duration": 0.833,
        "velocity": 1,
        "hand": "left"
      },
      {
        "midi": 74,
        "time": 6.667,
        "duration": 0.417,
        "velocity": 1,
        "hand": "right"
      },
      {
        "midi": 55,
        "time": 7.083,
        "duration": 0.208,
        "velocity": 1,
        "hand": "left"
      },
      {
        "midi": 60,
        "time": 7.083,
        "duration": 0.417,
        "velocity": 1,
        "hand": "right"
      },
      {
        "midi": 63,
        "time": 7.083,
        "duration": 0.208,
        "velocity": 1,
        "hand": "right"
      },
      {
        "midi": 55,
        "time": 7.292,
        "duration": 0.208,
        "velocity": 1,
        "hand": "left"
      },
      {
        "midi": 58,
        "time": 7.292,
        "duration": 0.208,
        "velocity": 1,
        "hand": "left"
      },
      {
        "midi": 63,
        "time": 7.292,
        "duration": 0.208,
        "velocity": 1,
        "hand": "right"
      },
      {
        "midi": 55,
        "time": 7.5,
        "duration": 0.417,
        "velocity": 1,
        "hand": "left"
      },
      {
        "midi": 63,
        "time": 7.5,
        "duration": 0.417,
        "velocity": 1,
        "hand": "right"
      },
      {
        "midi": 72,
        "time": 7.5,
        "duration": 0.833,
        "velocity": 1,
        "hand": "right"
      },
      {
        "midi": 55,
        "time": 7.917,
        "duration": 0.417,
        "velocity": 1,
        "hand": "left"
      },
      {
        "midi": 60,
        "time": 7.917,
        "duration": 0.417,
        "velocity": 1,
        "hand": "right"
      },
      {
        "midi": 63,
        "time": 7.917,
        "duration": 0.417,
        "velocity": 1,
        "hand": "right"
      },
      {
        "midi": 46,
        "time": 8.333,
        "duration": 0.833,
        "velocity": 1,
        "hand": "left"
      },
      {
        "midi": 72,
        "time": 8.333,
        "duration": 0.417,
        "velocity": 1,
        "hand": "right"
      },
      {
        "midi": 55,
        "time": 8.75,
        "duration": 0.208,
        "velocity": 1,
        "hand": "left"
      },
      {
        "midi": 60,
        "time": 8.75,
        "duration": 0.208,
        "velocity": 1,
        "hand": "right"
      },
      {
        "midi": 72,
        "time": 8.75,
        "duration": 0.208,
        "velocity": 1,
        "hand": "right"
      },
      {
        "midi": 55,
        "time": 8.958,
        "duration": 0.208,
        "velocity": 1,
        "hand": "left"
      },
      {
        "midi": 60,
        "time": 8.958,
        "duration": 0.208,
        "velocity": 1,
        "hand": "right"
      },
      {
        "midi": 72,
        "time": 8.958,
        "duration": 0.208,
        "velocity": 1,
        "hand": "right"
      },
      {
        "midi": 55,
        "time": 9.167,
        "duration": 0.417,
        "velocity": 1,
        "hand": "left"
      },
      {
        "midi": 60,
        "time": 9.167,
        "duration": 0.417,
        "velocity": 1,
        "hand": "right"
      },
      {
        "midi": 74,
        "time": 9.167,
        "duration": 0.208,
        "velocity": 1,
        "hand": "right"
      },
      {
        "midi": 72,
        "time": 9.375,
        "duration": 0.208,
        "velocity": 1,
        "hand": "right"
      },
      {
        "midi": 55,
        "time": 9.583,
        "duration": 0.417,
        "velocity": 1,
        "hand": "left"
      },
      {
        "midi": 60,
        "time": 9.583,
        "duration": 0.417,
        "velocity": 1,
        "hand": "right"
      },
      {
        "midi": 70,
        "time": 9.583,
        "duration": 0.208,
        "velocity": 1,
        "hand": "right"
      },
      {
        "midi": 69,
        "time": 9.792,
        "duration": 0.208,
        "velocity": 1,
        "hand": "right"
      },
      {
        "midi": 53,
        "time": 10,
        "duration": 0.833,
        "velocity": 1,
        "hand": "left"
      },
      {
        "midi": 72,
        "time": 10,
        "duration": 0.417,
        "velocity": 1,
        "hand": "right"
      },
      {
        "midi": 56,
        "time": 10.417,
        "duration": 0.208,
        "velocity": 1,
        "hand": "left"
      },
      {
        "midi": 60,
        "time": 10.417,
        "duration": 0.417,
        "velocity": 1,
        "hand": "right"
      },
      {
        "midi": 62,
        "time": 10.417,
        "duration": 0.208,
        "velocity": 1,
        "hand": "right"
      },
      {
        "midi": 56,
        "time": 10.625,
        "duration": 0.208,
        "velocity": 1,
        "hand": "left"
      },
      {
        "midi": 58,
        "time": 10.625,
        "duration": 0.208,
        "velocity": 1,
        "hand": "left"
      },
      {
        "midi": 62,
        "time": 10.625,
        "duration": 0.208,
        "velocity": 1,
        "hand": "right"
      },
      {
        "midi": 56,
        "time": 10.833,
        "duration": 0.417,
        "velocity": 1,
        "hand": "left"
      },
      {
        "midi": 62,
        "time": 10.833,
        "duration": 0.417,
        "velocity": 1,
        "hand": "right"
      },
      {
        "midi": 70,
        "time": 10.833,
        "duration": 0.833,
        "velocity": 1,
        "hand": "right"
      },
      {
        "midi": 56,
        "time": 11.25,
        "duration": 0.417,
        "velocity": 1,
        "hand": "left"
      },
      {
        "midi": 60,
        "time": 11.25,
        "duration": 0.417,
        "velocity": 1,
        "hand": "right"
      },
      {
        "midi": 62,
        "time": 11.25,
        "duration": 0.417,
        "velocity": 1,
        "hand": "right"
      },
      {
        "midi": 46,
        "time": 11.667,
        "duration": 0.833,
        "velocity": 1,
        "hand": "left"
      },
      {
        "midi": 70,
        "time": 11.667,
        "duration": 0.417,
        "velocity": 1,
        "hand": "right"
      },
      {
        "midi": 56,
        "time": 12.083,
        "duration": 0.208,
        "velocity": 1,
        "hand": "left"
      },
      {
        "midi": 60,
        "time": 12.083,
        "duration": 0.208,
        "velocity": 1,
        "hand": "right"
      },
      {
        "midi": 70,
        "time": 12.083,
        "duration": 0.208,
        "velocity": 1,
        "hand": "right"
      },
      {
        "midi": 56,
        "time": 12.292,
        "duration": 0.208,
        "velocity": 1,
        "hand": "left"
      },
      {
        "midi": 60,
        "time": 12.292,
        "duration": 0.208,
        "velocity": 1,
        "hand": "right"
      },
      {
        "midi": 70,
        "time": 12.292,
        "duration": 0.208,
        "velocity": 1,
        "hand": "right"
      },
      {
        "midi": 56,
        "time": 12.5,
        "duration": 0.417,
        "velocity": 1,
        "hand": "left"
      },
      {
        "midi": 60,
        "time": 12.5,
        "duration": 0.417,
        "velocity": 1,
        "hand": "right"
      },
      {
        "midi": 72,
        "time": 12.5,
        "duration": 0.208,
        "velocity": 1,
        "hand": "right"
      },
      {
        "midi": 70,
        "time": 12.708,
        "duration": 0.208,
        "velocity": 1,
        "hand": "right"
      },
      {
        "midi": 56,
        "time": 12.917,
        "duration": 0.417,
        "velocity": 1,
        "hand": "left"
      },
      {
        "midi": 60,
        "time": 12.917,
        "duration": 0.417,
        "velocity": 1,
        "hand": "right"
      },
      {
        "midi": 69,
        "time": 12.917,
        "duration": 0.208,
        "velocity": 1,
        "hand": "right"
      },
      {
        "midi": 67,
        "time": 13.125,
        "duration": 0.208,
        "velocity": 1,
        "hand": "right"
      },
      {
        "midi": 51,
        "time": 13.333,
        "duration": 0.833,
        "velocity": 1,
        "hand": "left"
      },
      {
        "midi": 69,
        "time": 13.333,
        "duration": 0.417,
        "velocity": 1,
        "hand": "right"
      },
      {
        "midi": 55,
        "time": 13.75,
        "duration": 0.208,
        "velocity": 1,
        "hand": "left"
      },
      {
        "midi": 58,
        "time": 13.75,
        "duration": 0.208,
        "velocity": 1,
        "hand": "left"
      },
      {
        "midi": 60,
        "time": 13.75,
        "duration": 0.417,
        "velocity": 1,
        "hand": "right"
      },
      {
        "midi": 55,
        "time": 13.958,
        "duration": 0.208,
        "velocity": 1,
        "hand": "left"
      },
      {
        "midi": 58,
        "time": 13.958,
        "duration": 0.208,
        "velocity": 1,
        "hand": "left"
      },
      {
        "midi": 55,
        "time": 14.167,
        "duration": 0.417,
        "velocity": 1,
        "hand": "left"
      },
      {
        "midi": 58,
        "time": 14.167,
        "duration": 0.417,
        "velocity": 1,
        "hand": "left"
      },
      {
        "midi": 65,
        "time": 14.167,
        "duration": 0.833,
        "velocity": 1,
        "hand": "right"
      },
      {
        "midi": 55,
        "time": 14.583,
        "duration": 0.417,
        "velocity": 1,
        "hand": "left"
      },
      {
        "midi": 58,
        "time": 14.583,
        "duration": 0.417,
        "velocity": 1,
        "hand": "left"
      },
      {
        "midi": 60,
        "time": 14.583,
        "duration": 0.417,
        "velocity": 1,
        "hand": "right"
      },
      {
        "midi": 46,
        "time": 15,
        "duration": 0.833,
        "velocity": 1,
        "hand": "left"
      },
      {
        "midi": 65,
        "time": 15,
        "duration": 1.667,
        "velocity": 1,
        "hand": "right"
      },
      {
        "midi": 55,
        "time": 15.417,
        "duration": 0.208,
        "velocity": 1,
        "hand": "left"
      },
      {
        "midi": 58,
        "time": 15.417,
        "duration": 0.208,
        "velocity": 1,
        "hand": "left"
      },
      {
        "midi": 60,
        "time": 15.417,
        "duration": 0.208,
        "velocity": 1,
        "hand": "right"
      },
      {
        "midi": 55,
        "time": 15.625,
        "duration": 0.208,
        "velocity": 1,
        "hand": "left"
      },
      {
        "midi": 58,
        "time": 15.625,
        "duration": 0.208,
        "velocity": 1,
        "hand": "left"
      },
      {
        "midi": 60,
        "time": 15.625,
        "duration": 0.208,
        "velocity": 1,
        "hand": "right"
      },
      {
        "midi": 55,
        "time": 15.833,
        "duration": 0.417,
        "velocity": 1,
        "hand": "left"
      },
      {
        "midi": 58,
        "time": 15.833,
        "duration": 0.417,
        "velocity": 1,
        "hand": "left"
      },
      {
        "midi": 60,
        "time": 15.833,
        "duration": 0.417,
        "velocity": 1,
        "hand": "right"
      },
      {
        "midi": 55,
        "time": 16.25,
        "duration": 0.417,
        "velocity": 1,
        "hand": "left"
      },
      {
        "midi": 58,
        "time": 16.25,
        "duration": 0.417,
        "velocity": 1,
        "hand": "left"
      },
      {
        "midi": 60,
        "time": 16.25,
        "duration": 0.417,
        "velocity": 1,
        "hand": "right"
      },
      {
        "midi": 51,
        "time": 16.667,
        "duration": 0.833,
        "velocity": 1,
        "hand": "left"
      },
      {
        "midi": 65,
        "time": 16.667,
        "duration": 0.417,
        "velocity": 1,
        "hand": "right"
      },
      {
        "midi": 55,
        "time": 17.083,
        "duration": 0.208,
        "velocity": 1,
        "hand": "left"
      },
      {
        "midi": 60,
        "time": 17.083,
        "duration": 0.208,
        "velocity": 1,
        "hand": "right"
      },
      {
        "midi": 63,
        "time": 17.083,
        "duration": 0.208,
        "velocity": 1,
        "hand": "right"
      },
      {
        "midi": 55,
        "time": 17.292,
        "duration": 0.208,
        "velocity": 1,
        "hand": "left"
      },
      {
        "midi": 60,
        "time": 17.292,
        "duration": 0.208,
        "velocity": 1,
        "hand": "right"
      },
      {
        "midi": 63,
        "time": 17.292,
        "duration": 0.208,
        "velocity": 1,
        "hand": "right"
      },
      {
        "midi": 55,
        "time": 17.5,
        "duration": 0.417,
        "velocity": 1,
        "hand": "left"
      },
      {
        "midi": 60,
        "time": 17.5,
        "duration": 0.417,
        "velocity": 1,
        "hand": "right"
      },
      {
        "midi": 63,
        "time": 17.5,
        "duration": 0.417,
        "velocity": 1,
        "hand": "right"
      },
      {
        "midi": 55,
        "time": 17.917,
        "duration": 0.417,
        "velocity": 1,
        "hand": "left"
      },
      {
        "midi": 60,
        "time": 17.917,
        "duration": 0.417,
        "velocity": 1,
        "hand": "right"
      },
      {
        "midi": 63,
        "time": 17.917,
        "duration": 0.417,
        "velocity": 1,
        "hand": "right"
      },
      {
        "midi": 46,
        "time": 18.333,
        "duration": 0.833,
        "velocity": 1,
        "hand": "left"
      },
      {
        "midi": 55,
        "time": 18.75,
        "duration": 0.208,
        "velocity": 1,
        "hand": "left"
      },
      {
        "midi": 60,
        "time": 18.75,
        "duration": 0.208,
        "velocity": 1,
        "hand": "right"
      },
      {
        "midi": 72,
        "time": 18.75,
        "duration": 0.208,
        "velocity": 1,
        "hand": "right"
      },
      {
        "midi": 55,
        "time": 18.958,
        "duration": 0.208,
        "velocity": 1,
        "hand": "left"
      },
      {
        "midi": 60,
        "time": 18.958,
        "duration": 0.208,
        "velocity": 1,
        "hand": "right"
      },
      {
        "midi": 74,
        "time": 18.958,
        "duration": 0.208,
        "velocity": 1,
        "hand": "right"
      },
      {
        "midi": 55,
        "time": 19.167,
        "duration": 0.417,
        "velocity": 1,
        "hand": "left"
      },
      {
        "midi": 60,
        "time": 19.167,
        "duration": 0.417,
        "velocity": 1,
        "hand": "right"
      },
      {
        "midi": 77,
        "time": 19.167,
        "duration": 0.208,
        "velocity": 1,
        "hand": "right"
      },
      {
        "midi": 76,
        "time": 19.375,
        "duration": 0.208,
        "velocity": 1,
        "hand": "right"
      },
      {
        "midi": 55,
        "time": 19.583,
        "duration": 0.417,
        "velocity": 1,
        "hand": "left"
      },
      {
        "midi": 60,
        "time": 19.583,
        "duration": 0.417,
        "velocity": 1,
        "hand": "right"
      },
      {
        "midi": 74,
        "time": 19.583,
        "duration": 0.208,
        "velocity": 1,
        "hand": "right"
      },
      {
        "midi": 72,
        "time": 19.792,
        "duration": 0.208,
        "velocity": 1,
        "hand": "right"
      },
      {
        "midi": 53,
        "time": 20,
        "duration": 0.833,
        "velocity": 1,
        "hand": "left"
      },
      {
        "midi": 76,
        "time": 20,
        "duration": 0.417,
        "velocity": 1,
        "hand": "right"
      },
      {
        "midi": 56,
        "time": 20.417,
        "duration": 0.208,
        "velocity": 1,
        "hand": "left"
      },
      {
        "midi": 60,
        "time": 20.417,
        "duration": 0.417,
        "velocity": 1,
        "hand": "right"
      },
      {
        "midi": 62,
        "time": 20.417,
        "duration": 0.208,
        "velocity": 1,
        "hand": "right"
      },
      {
        "midi": 56,
        "time": 20.625,
        "duration": 0.208,
        "velocity": 1,
        "hand": "left"
      },
      {
        "midi": 58,
        "time": 20.625,
        "duration": 0.208,
        "velocity": 1,
        "hand": "left"
      },
      {
        "midi": 62,
        "time": 20.625,
        "duration": 0.208,
        "velocity": 1,
        "hand": "right"
      },
      {
        "midi": 56,
        "time": 20.833,
        "duration": 0.417,
        "velocity": 1,
        "hand": "left"
      },
      {
        "midi": 62,
        "time": 20.833,
        "duration": 0.417,
        "velocity": 1,
        "hand": "right"
      },
      {
        "midi": 76,
        "time": 20.833,
        "duration": 0.833,
        "velocity": 1,
        "hand": "right"
      },
      {
        "midi": 56,
        "time": 21.25,
        "duration": 0.417,
        "velocity": 1,
        "hand": "left"
      },
      {
        "midi": 60,
        "time": 21.25,
        "duration": 0.417,
        "velocity": 1,
        "hand": "right"
      },
      {
        "midi": 62,
        "time": 21.25,
        "duration": 0.417,
        "velocity": 1,
        "hand": "right"
      },
      {
        "midi": 46,
        "time": 21.667,
        "duration": 0.833,
        "velocity": 1,
        "hand": "left"
      },
      {
        "midi": 76,
        "time": 21.667,
        "duration": 0.417,
        "velocity": 1,
        "hand": "right"
      },
      {
        "midi": 56,
        "time": 22.083,
        "duration": 0.208,
        "velocity": 1,
        "hand": "left"
      },
      {
        "midi": 60,
        "time": 22.083,
        "duration": 0.208,
        "velocity": 1,
        "hand": "right"
      },
      {
        "midi": 74,
        "time": 22.083,
        "duration": 0.208,
        "velocity": 1,
        "hand": "right"
      },
      {
        "midi": 56,
        "time": 22.292,
        "duration": 0.208,
        "velocity": 1,
        "hand": "left"
      },
      {
        "midi": 60,
        "time": 22.292,
        "duration": 0.208,
        "velocity": 1,
        "hand": "right"
      },
      {
        "midi": 76,
        "time": 22.292,
        "duration": 0.208,
        "velocity": 1,
        "hand": "right"
      },
      {
        "midi": 56,
        "time": 22.5,
        "duration": 0.417,
        "velocity": 1,
        "hand": "left"
      },
      {
        "midi": 60,
        "time": 22.5,
        "duration": 0.417,
        "velocity": 1,
        "hand": "right"
      },
      {
        "midi": 77,
        "time": 22.5,
        "duration": 0.208,
        "velocity": 1,
        "hand": "right"
      },
      {
        "midi": 76,
        "time": 22.708,
        "duration": 0.208,
        "velocity": 1,
        "hand": "right"
      },
      {
        "midi": 56,
        "time": 22.917,
        "duration": 0.417,
        "velocity": 1,
        "hand": "left"
      },
      {
        "midi": 60,
        "time": 22.917,
        "duration": 0.417,
        "velocity": 1,
        "hand": "right"
      },
      {
        "midi": 74,
        "time": 22.917,
        "duration": 0.208,
        "velocity": 1,
        "hand": "right"
      },
      {
        "midi": 76,
        "time": 23.125,
        "duration": 0.208,
        "velocity": 1,
        "hand": "right"
      },
      {
        "midi": 51,
        "time": 23.333,
        "duration": 0.833,
        "velocity": 1,
        "hand": "left"
      },
      {
        "midi": 74,
        "time": 23.333,
        "duration": 0.417,
        "velocity": 1,
        "hand": "right"
      },
      {
        "midi": 55,
        "time": 23.75,
        "duration": 0.208,
        "velocity": 1,
        "hand": "left"
      },
      {
        "midi": 60,
        "time": 23.75,
        "duration": 0.417,
        "velocity": 1,
        "hand": "right"
      },
      {
        "midi": 63,
        "time": 23.75,
        "duration": 0.208,
        "velocity": 1,
        "hand": "right"
      },
      {
        "midi": 55,
        "time": 23.958,
        "duration": 0.208,
        "velocity": 1,
        "hand": "left"
      },
      {
        "midi": 58,
        "time": 23.958,
        "duration": 0.208,
        "velocity": 1,
        "hand": "left"
      },
      {
        "midi": 63,
        "time": 23.958,
        "duration": 0.208,
        "velocity": 1,
        "hand": "right"
      },
      {
        "midi": 55,
        "time": 24.167,
        "duration": 0.417,
        "velocity": 1,
        "hand": "left"
      },
      {
        "midi": 63,
        "time": 24.167,
        "duration": 0.417,
        "velocity": 1,
        "hand": "right"
      },
      {
        "midi": 72,
        "time": 24.167,
        "duration": 0.833,
        "velocity": 1,
        "hand": "right"
      },
      {
        "midi": 55,
        "time": 24.583,
        "duration": 0.417,
        "velocity": 1,
        "hand": "left"
      },
      {
        "midi": 60,
        "time": 24.583,
        "duration": 0.417,
        "velocity": 1,
        "hand": "right"
      },
      {
        "midi": 63,
        "time": 24.583,
        "duration": 0.417,
        "velocity": 1,
        "hand": "right"
      },
      {
        "midi": 46,
        "time": 25,
        "duration": 0.833,
        "velocity": 1,
        "hand": "left"
      },
      {
        "midi": 72,
        "time": 25,
        "duration": 0.417,
        "velocity": 1,
        "hand": "right"
      },
      {
        "midi": 55,
        "time": 25.417,
        "duration": 0.208,
        "velocity": 1,
        "hand": "left"
      },
      {
        "midi": 60,
        "time": 25.417,
        "duration": 0.208,
        "velocity": 1,
        "hand": "right"
      },
      {
        "midi": 72,
        "time": 25.417,
        "duration": 0.208,
        "velocity": 1,
        "hand": "right"
      },
      {
        "midi": 55,
        "time": 25.625,
        "duration": 0.208,
        "velocity": 1,
        "hand": "left"
      },
      {
        "midi": 60,
        "time": 25.625,
        "duration": 0.208,
        "velocity": 1,
        "hand": "right"
      },
      {
        "midi": 72,
        "time": 25.625,
        "duration": 0.208,
        "velocity": 1,
        "hand": "right"
      },
      {
        "midi": 55,
        "time": 25.833,
        "duration": 0.417,
        "velocity": 1,
        "hand": "left"
      },
      {
        "midi": 60,
        "time": 25.833,
        "duration": 0.417,
        "velocity": 1,
        "hand": "right"
      },
      {
        "midi": 74,
        "time": 25.833,
        "duration": 0.208,
        "velocity": 1,
        "hand": "right"
      },
      {
        "midi": 72,
        "time": 26.042,
        "duration": 0.208,
        "velocity": 1,
        "hand": "right"
      },
      {
        "midi": 55,
        "time": 26.25,
        "duration": 0.417,
        "velocity": 1,
        "hand": "left"
      },
      {
        "midi": 60,
        "time": 26.25,
        "duration": 0.417,
        "velocity": 1,
        "hand": "right"
      },
      {
        "midi": 70,
        "time": 26.25,
        "duration": 0.208,
        "velocity": 1,
        "hand": "right"
      },
      {
        "midi": 69,
        "time": 26.458,
        "duration": 0.208,
        "velocity": 1,
        "hand": "right"
      },
      {
        "midi": 53,
        "time": 26.667,
        "duration": 0.833,
        "velocity": 1,
        "hand": "left"
      },
      {
        "midi": 72,
        "time": 26.667,
        "duration": 0.417,
        "velocity": 1,
        "hand": "right"
      },
      {
        "midi": 56,
        "time": 27.083,
        "duration": 0.208,
        "velocity": 1,
        "hand": "left"
      },
      {
        "midi": 60,
        "time": 27.083,
        "duration": 0.417,
        "velocity": 1,
        "hand": "right"
      },
      {
        "midi": 62,
        "time": 27.083,
        "duration": 0.208,
        "velocity": 1,
        "hand": "right"
      },
      {
        "midi": 56,
        "time": 27.292,
        "duration": 0.208,
        "velocity": 1,
        "hand": "left"
      },
      {
        "midi": 58,
        "time": 27.292,
        "duration": 0.208,
        "velocity": 1,
        "hand": "left"
      },
      {
        "midi": 62,
        "time": 27.292,
        "duration": 0.208,
        "velocity": 1,
        "hand": "right"
      },
      {
        "midi": 56,
        "time": 27.5,
        "duration": 0.417,
        "velocity": 1,
        "hand": "left"
      },
      {
        "midi": 62,
        "time": 27.5,
        "duration": 0.417,
        "velocity": 1,
        "hand": "right"
      },
      {
        "midi": 70,
        "time": 27.5,
        "duration": 0.833,
        "velocity": 1,
        "hand": "right"
      },
      {
        "midi": 56,
        "time": 27.917,
        "duration": 0.417,
        "velocity": 1,
        "hand": "left"
      },
      {
        "midi": 60,
        "time": 27.917,
        "duration": 0.417,
        "velocity": 1,
        "hand": "right"
      },
      {
        "midi": 62,
        "time": 27.917,
        "duration": 0.417,
        "velocity": 1,
        "hand": "right"
      },
      {
        "midi": 46,
        "time": 28.333,
        "duration": 0.833,
        "velocity": 1,
        "hand": "left"
      },
      {
        "midi": 70,
        "time": 28.333,
        "duration": 0.417,
        "velocity": 1,
        "hand": "right"
      },
      {
        "midi": 56,
        "time": 28.75,
        "duration": 0.208,
        "velocity": 1,
        "hand": "left"
      },
      {
        "midi": 60,
        "time": 28.75,
        "duration": 0.208,
        "velocity": 1,
        "hand": "right"
      },
      {
        "midi": 70,
        "time": 28.75,
        "duration": 0.208,
        "velocity": 1,
        "hand": "right"
      },
      {
        "midi": 56,
        "time": 28.958,
        "duration": 0.208,
        "velocity": 1,
        "hand": "left"
      },
      {
        "midi": 60,
        "time": 28.958,
        "duration": 0.208,
        "velocity": 1,
        "hand": "right"
      },
      {
        "midi": 70,
        "time": 28.958,
        "duration": 0.208,
        "velocity": 1,
        "hand": "right"
      },
      {
        "midi": 56,
        "time": 29.167,
        "duration": 0.417,
        "velocity": 1,
        "hand": "left"
      },
      {
        "midi": 60,
        "time": 29.167,
        "duration": 0.417,
        "velocity": 1,
        "hand": "right"
      },
      {
        "midi": 72,
        "time": 29.167,
        "duration": 0.208,
        "velocity": 1,
        "hand": "right"
      },
      {
        "midi": 70,
        "time": 29.375,
        "duration": 0.208,
        "velocity": 1,
        "hand": "right"
      },
      {
        "midi": 56,
        "time": 29.583,
        "duration": 0.417,
        "velocity": 1,
        "hand": "left"
      },
      {
        "midi": 60,
        "time": 29.583,
        "duration": 0.417,
        "velocity": 1,
        "hand": "right"
      },
      {
        "midi": 69,
        "time": 29.583,
        "duration": 0.208,
        "velocity": 1,
        "hand": "right"
      },
      {
        "midi": 67,
        "time": 29.792,
        "duration": 0.208,
        "velocity": 1,
        "hand": "right"
      },
      {
        "midi": 51,
        "time": 30,
        "duration": 0.833,
        "velocity": 1,
        "hand": "left"
      },
      {
        "midi": 60,
        "time": 30,
        "duration": 0.833,
        "velocity": 1,
        "hand": "right"
      },
      {
        "midi": 65,
        "time": 30,
        "duration": 1.667,
        "velocity": 1,
        "hand": "right"
      },
      {
        "midi": 55,
        "time": 30.417,
        "duration": 0.208,
        "velocity": 1,
        "hand": "left"
      },
      {
        "midi": 58,
        "time": 30.417,
        "duration": 0.208,
        "velocity": 1,
        "hand": "left"
      },
      {
        "midi": 55,
        "time": 30.625,
        "duration": 0.208,
        "velocity": 1,
        "hand": "left"
      },
      {
        "midi": 58,
        "time": 30.625,
        "duration": 0.208,
        "velocity": 1,
        "hand": "left"
      },
      {
        "midi": 55,
        "time": 30.833,
        "duration": 0.417,
        "velocity": 1,
        "hand": "left"
      },
      {
        "midi": 58,
        "time": 30.833,
        "duration": 0.417,
        "velocity": 1,
        "hand": "left"
      },
      {
        "midi": 55,
        "time": 31.25,
        "duration": 0.417,
        "velocity": 1,
        "hand": "left"
      },
      {
        "midi": 58,
        "time": 31.25,
        "duration": 0.417,
        "velocity": 1,
        "hand": "left"
      },
      {
        "midi": 55,
        "time": 31.667,
        "duration": 0.833,
        "velocity": 1,
        "hand": "left"
      },
      {
        "midi": 58,
        "time": 31.667,
        "duration": 0.833,
        "velocity": 1,
        "hand": "left"
      },
      {
        "midi": 65,
        "time": 31.667,
        "duration": 0.833,
        "velocity": 1,
        "hand": "right"
      },
      {
        "midi": 65,
        "time": 32.5,
        "duration": 0.625,
        "velocity": 1,
        "hand": "right"
      },
      {
        "midi": 65,
        "time": 33.125,
        "duration": 0.208,
        "velocity": 1,
        "hand": "right"
      },
      {
        "midi": 56,
        "time": 33.333,
        "duration": 0.833,
        "velocity": 1,
        "hand": "left"
      },
      {
        "midi": 74,
        "time": 33.333,
        "duration": 0.417,
        "velocity": 1,
        "hand": "right"
      },
      {
        "midi": 60,
        "time": 33.75,
        "duration": 0.417,
        "velocity": 1,
        "hand": "right"
      },
      {
        "midi": 63,
        "time": 33.75,
        "duration": 0.208,
        "velocity": 1,
        "hand": "right"
      },
      {
        "midi": 60,
        "time": 33.958,
        "duration": 0.208,
        "velocity": 1,
        "hand": "right"
      },
      {
        "midi": 63,
        "time": 33.958,
        "duration": 0.208,
        "velocity": 1,
        "hand": "right"
      },
      {
        "midi": 60,
        "time": 34.167,
        "duration": 0.417,
        "velocity": 1,
        "hand": "right"
      },
      {
        "midi": 63,
        "time": 34.167,
        "duration": 0.417,
        "velocity": 1,
        "hand": "right"
      },
      {
        "midi": 74,
        "time": 34.167,
        "duration": 0.833,
        "velocity": 1,
        "hand": "right"
      },
      {
        "midi": 60,
        "time": 34.583,
        "duration": 0.417,
        "velocity": 1,
        "hand": "right"
      },
      {
        "midi": 63,
        "time": 34.583,
        "duration": 0.417,
        "velocity": 1,
        "hand": "right"
      },
      {
        "midi": 56,
        "time": 35,
        "duration": 0.833,
        "velocity": 1,
        "hand": "left"
      },
      {
        "midi": 60,
        "time": 35,
        "duration": 0.833,
        "velocity": 1,
        "hand": "right"
      },
      {
        "midi": 74,
        "time": 35,
        "duration": 0.417,
        "velocity": 1,
        "hand": "right"
      },
      {
        "midi": 60,
        "time": 35.417,
        "duration": 0.208,
        "velocity": 1,
        "hand": "right"
      },
      {
        "midi": 63,
        "time": 35.417,
        "duration": 0.208,
        "velocity": 1,
        "hand": "right"
      },
      {
        "midi": 76,
        "time": 35.417,
        "duration": 0.208,
        "velocity": 1,
        "hand": "right"
      },
      {
        "midi": 60,
        "time": 35.625,
        "duration": 0.208,
        "velocity": 1,
        "hand": "right"
      },
      {
        "midi": 63,
        "time": 35.625,
        "duration": 0.208,
        "velocity": 1,
        "hand": "right"
      },
      {
        "midi": 77,
        "time": 35.625,
        "duration": 0.208,
        "velocity": 1,
        "hand": "right"
      },
      {
        "midi": 60,
        "time": 35.833,
        "duration": 0.417,
        "velocity": 1,
        "hand": "right"
      },
      {
        "midi": 63,
        "time": 35.833,
        "duration": 0.417,
        "velocity": 1,
        "hand": "right"
      },
      {
        "midi": 79,
        "time": 35.833,
        "duration": 0.208,
        "velocity": 1,
        "hand": "right"
      },
      {
        "midi": 77,
        "time": 36.042,
        "duration": 0.208,
        "velocity": 1,
        "hand": "right"
      },
      {
        "midi": 60,
        "time": 36.25,
        "duration": 0.417,
        "velocity": 1,
        "hand": "right"
      },
      {
        "midi": 63,
        "time": 36.25,
        "duration": 0.417,
        "velocity": 1,
        "hand": "right"
      },
      {
        "midi": 76,
        "time": 36.25,
        "duration": 0.208,
        "velocity": 1,
        "hand": "right"
      },
      {
        "midi": 74,
        "time": 36.458,
        "duration": 0.208,
        "velocity": 1,
        "hand": "right"
      },
      {
        "midi": 51,
        "time": 36.667,
        "duration": 0.833,
        "velocity": 1,
        "hand": "left"
      },
      {
        "midi": 74,
        "time": 36.667,
        "duration": 0.417,
        "velocity": 1,
        "hand": "right"
      },
      {
        "midi": 55,
        "time": 37.083,
        "duration": 0.208,
        "velocity": 1,
        "hand": "left"
      },
      {
        "midi": 60,
        "time": 37.083,
        "duration": 0.417,
        "velocity": 1,
        "hand": "right"
      },
      {
        "midi": 63,
        "time": 37.083,
        "duration": 0.208,
        "velocity": 1,
        "hand": "right"
      },
      {
        "midi": 55,
        "time": 37.292,
        "duration": 0.208,
        "velocity": 1,
        "hand": "left"
      },
      {
        "midi": 58,
        "time": 37.292,
        "duration": 0.208,
        "velocity": 1,
        "hand": "left"
      },
      {
        "midi": 63,
        "time": 37.292,
        "duration": 0.208,
        "velocity": 1,
        "hand": "right"
      },
      {
        "midi": 55,
        "time": 37.5,
        "duration": 0.417,
        "velocity": 1,
        "hand": "left"
      },
      {
        "midi": 63,
        "time": 37.5,
        "duration": 0.417,
        "velocity": 1,
        "hand": "right"
      },
      {
        "midi": 72,
        "time": 37.5,
        "duration": 0.833,
        "velocity": 1,
        "hand": "right"
      },
      {
        "midi": 55,
        "time": 37.917,
        "duration": 0.417,
        "velocity": 1,
        "hand": "left"
      },
      {
        "midi": 60,
        "time": 37.917,
        "duration": 0.417,
        "velocity": 1,
        "hand": "right"
      },
      {
        "midi": 63,
        "time": 37.917,
        "duration": 0.417,
        "velocity": 1,
        "hand": "right"
      },
      {
        "midi": 51,
        "time": 38.333,
        "duration": 0.833,
        "velocity": 1,
        "hand": "left"
      },
      {
        "midi": 60,
        "time": 38.333,
        "duration": 0.833,
        "velocity": 1,
        "hand": "right"
      },
      {
        "midi": 72,
        "time": 38.333,
        "duration": 0.417,
        "velocity": 1,
        "hand": "right"
      },
      {
        "midi": 55,
        "time": 38.75,
        "duration": 0.208,
        "velocity": 1,
        "hand": "left"
      },
      {
        "midi": 63,
        "time": 38.75,
        "duration": 0.208,
        "velocity": 1,
        "hand": "right"
      },
      {
        "midi": 71,
        "time": 38.75,
        "duration": 0.208,
        "velocity": 1,
        "hand": "right"
      },
      {
        "midi": 55,
        "time": 38.958,
        "duration": 0.208,
        "velocity": 1,
        "hand": "left"
      },
      {
        "midi": 63,
        "time": 38.958,
        "duration": 0.208,
        "velocity": 1,
        "hand": "right"
      },
      {
        "midi": 72,
        "time": 38.958,
        "duration": 0.208,
        "velocity": 1,
        "hand": "right"
      },
      {
        "midi": 55,
        "time": 39.167,
        "duration": 0.417,
        "velocity": 1,
        "hand": "left"
      },
      {
        "midi": 63,
        "time": 39.167,
        "duration": 0.417,
        "velocity": 1,
        "hand": "right"
      },
      {
        "midi": 71,
        "time": 39.167,
        "duration": 0.208,
        "velocity": 1,
        "hand": "right"
      },
      {
        "midi": 72,
        "time": 39.375,
        "duration": 0.208,
        "velocity": 1,
        "hand": "right"
      },
      {
        "midi": 55,
        "time": 39.583,
        "duration": 0.417,
        "velocity": 1,
        "hand": "left"
      },
      {
        "midi": 63,
        "time": 39.583,
        "duration": 0.417,
        "velocity": 1,
        "hand": "right"
      },
      {
        "midi": 76,
        "time": 39.583,
        "duration": 0.208,
        "velocity": 1,
        "hand": "right"
      },
      {
        "midi": 74,
        "time": 39.792,
        "duration": 0.208,
        "velocity": 1,
        "hand": "right"
      },
      {
        "midi": 46,
        "time": 40,
        "duration": 0.833,
        "velocity": 1,
        "hand": "left"
      },
      {
        "midi": 72,
        "time": 40,
        "duration": 0.417,
        "velocity": 1,
        "hand": "right"
      },
      {
        "midi": 53,
        "time": 40.417,
        "duration": 0.208,
        "velocity": 1,
        "hand": "left"
      },
      {
        "midi": 60,
        "time": 40.417,
        "duration": 0.417,
        "velocity": 1,
        "hand": "right"
      },
      {
        "midi": 62,
        "time": 40.417,
        "duration": 0.208,
        "velocity": 1,
        "hand": "right"
      },
      {
        "midi": 53,
        "time": 40.625,
        "duration": 0.208,
        "velocity": 1,
        "hand": "left"
      },
      {
        "midi": 58,
        "time": 40.625,
        "duration": 0.208,
        "velocity": 1,
        "hand": "left"
      },
      {
        "midi": 62,
        "time": 40.625,
        "duration": 0.208,
        "velocity": 1,
        "hand": "right"
      },
      {
        "midi": 53,
        "time": 40.833,
        "duration": 0.417,
        "velocity": 1,
        "hand": "left"
      },
      {
        "midi": 62,
        "time": 40.833,
        "duration": 0.417,
        "velocity": 1,
        "hand": "right"
      },
      {
        "midi": 70,
        "time": 40.833,
        "duration": 0.833,
        "velocity": 1,
        "hand": "right"
      },
      {
        "midi": 53,
        "time": 41.25,
        "duration": 0.417,
        "velocity": 1,
        "hand": "left"
      },
      {
        "midi": 60,
        "time": 41.25,
        "duration": 0.417,
        "velocity": 1,
        "hand": "right"
      },
      {
        "midi": 62,
        "time": 41.25,
        "duration": 0.417,
        "velocity": 1,
        "hand": "right"
      },
      {
        "midi": 46,
        "time": 41.667,
        "duration": 0.833,
        "velocity": 1,
        "hand": "left"
      },
      {
        "midi": 60,
        "time": 41.667,
        "duration": 0.833,
        "velocity": 1,
        "hand": "right"
      },
      {
        "midi": 70,
        "time": 41.667,
        "duration": 0.417,
        "velocity": 1,
        "hand": "right"
      },
      {
        "midi": 53,
        "time": 42.083,
        "duration": 0.208,
        "velocity": 1,
        "hand": "left"
      },
      {
        "midi": 62,
        "time": 42.083,
        "duration": 0.208,
        "velocity": 1,
        "hand": "right"
      },
      {
        "midi": 69,
        "time": 42.083,
        "duration": 0.208,
        "velocity": 1,
        "hand": "right"
      },
      {
        "midi": 53,
        "time": 42.292,
        "duration": 0.208,
        "velocity": 1,
        "hand": "left"
      },
      {
        "midi": 62,
        "time": 42.292,
        "duration": 0.208,
        "velocity": 1,
        "hand": "right"
      },
      {
        "midi": 70,
        "time": 42.292,
        "duration": 0.208,
        "velocity": 1,
        "hand": "right"
      },
      {
        "midi": 53,
        "time": 42.5,
        "duration": 0.417,
        "velocity": 1,
        "hand": "left"
      },
      {
        "midi": 62,
        "time": 42.5,
        "duration": 0.417,
        "velocity": 1,
        "hand": "right"
      },
      {
        "midi": 69,
        "time": 42.5,
        "duration": 0.208,
        "velocity": 1,
        "hand": "right"
      },
      {
        "midi": 70,
        "time": 42.708,
        "duration": 0.208,
        "velocity": 1,
        "hand": "right"
      },
      {
        "midi": 53,
        "time": 42.917,
        "duration": 0.417,
        "velocity": 1,
        "hand": "left"
      },
      {
        "midi": 62,
        "time": 42.917,
        "duration": 0.417,
        "velocity": 1,
        "hand": "right"
      },
      {
        "midi": 74,
        "time": 42.917,
        "duration": 0.208,
        "velocity": 1,
        "hand": "right"
      },
      {
        "midi": 72,
        "time": 43.125,
        "duration": 0.208,
        "velocity": 1,
        "hand": "right"
      },
      {
        "midi": 51,
        "time": 43.333,
        "duration": 0.833,
        "velocity": 1,
        "hand": "left"
      },
      {
        "midi": 65,
        "time": 43.333,
        "duration": 1.667,
        "velocity": 1,
        "hand": "right"
      },
      {
        "midi": 55,
        "time": 43.75,
        "duration": 0.208,
        "velocity": 1,
        "hand": "left"
      },
      {
        "midi": 58,
        "time": 43.75,
        "duration": 0.208,
        "velocity": 1,
        "hand": "left"
      },
      {
        "midi": 55,
        "time": 43.958,
        "duration": 0.208,
        "velocity": 1,
        "hand": "left"
      },
      {
        "midi": 58,
        "time": 43.958,
        "duration": 0.208,
        "velocity": 1,
        "hand": "left"
      },
      {
        "midi": 55,
        "time": 44.167,
        "duration": 0.417,
        "velocity": 1,
        "hand": "left"
      },
      {
        "midi": 58,
        "time": 44.167,
        "duration": 0.417,
        "velocity": 1,
        "hand": "left"
      },
      {
        "midi": 55,
        "time": 44.583,
        "duration": 0.417,
        "velocity": 1,
        "hand": "left"
      },
      {
        "midi": 58,
        "time": 44.583,
        "duration": 0.417,
        "velocity": 1,
        "hand": "left"
      },
      {
        "midi": 51,
        "time": 45,
        "duration": 0.833,
        "velocity": 1,
        "hand": "left"
      },
      {
        "midi": 65,
        "time": 45,
        "duration": 0.833,
        "velocity": 1,
        "hand": "right"
      },
      {
        "midi": 55,
        "time": 45.417,
        "duration": 0.208,
        "velocity": 1,
        "hand": "left"
      },
      {
        "midi": 58,
        "time": 45.417,
        "duration": 0.208,
        "velocity": 1,
        "hand": "left"
      },
      {
        "midi": 55,
        "time": 45.625,
        "duration": 0.208,
        "velocity": 1,
        "hand": "left"
      },
      {
        "midi": 58,
        "time": 45.625,
        "duration": 0.208,
        "velocity": 1,
        "hand": "left"
      },
      {
        "midi": 55,
        "time": 45.833,
        "duration": 0.417,
        "velocity": 1,
        "hand": "left"
      },
      {
        "midi": 58,
        "time": 45.833,
        "duration": 0.417,
        "velocity": 1,
        "hand": "left"
      },
      {
        "midi": 65,
        "time": 45.833,
        "duration": 0.625,
        "velocity": 1,
        "hand": "right"
      },
      {
        "midi": 55,
        "time": 46.25,
        "duration": 0.417,
        "velocity": 1,
        "hand": "left"
      },
      {
        "midi": 58,
        "time": 46.25,
        "duration": 0.417,
        "velocity": 1,
        "hand": "left"
      },
      {
        "midi": 65,
        "time": 46.458,
        "duration": 0.208,
        "velocity": 1,
        "hand": "right"
      },
      {
        "midi": 56,
        "time": 46.667,
        "duration": 0.833,
        "velocity": 1,
        "hand": "left"
      },
      {
        "midi": 74,
        "time": 46.667,
        "duration": 0.417,
        "velocity": 1,
        "hand": "right"
      },
      {
        "midi": 60,
        "time": 47.083,
        "duration": 0.417,
        "velocity": 1,
        "hand": "right"
      },
      {
        "midi": 63,
        "time": 47.083,
        "duration": 0.208,
        "velocity": 1,
        "hand": "right"
      },
      {
        "midi": 60,
        "time": 47.292,
        "duration": 0.208,
        "velocity": 1,
        "hand": "right"
      },
      {
        "midi": 63,
        "time": 47.292,
        "duration": 0.208,
        "velocity": 1,
        "hand": "right"
      },
      {
        "midi": 60,
        "time": 47.5,
        "duration": 0.417,
        "velocity": 1,
        "hand": "right"
      },
      {
        "midi": 63,
        "time": 47.5,
        "duration": 0.417,
        "velocity": 1,
        "hand": "right"
      },
      {
        "midi": 74,
        "time": 47.5,
        "duration": 0.833,
        "velocity": 1,
        "hand": "right"
      },
      {
        "midi": 60,
        "time": 47.917,
        "duration": 0.417,
        "velocity": 1,
        "hand": "right"
      },
      {
        "midi": 63,
        "time": 47.917,
        "duration": 0.417,
        "velocity": 1,
        "hand": "right"
      },
      {
        "midi": 56,
        "time": 48.333,
        "duration": 0.833,
        "velocity": 1,
        "hand": "left"
      },
      {
        "midi": 60,
        "time": 48.333,
        "duration": 0.833,
        "velocity": 1,
        "hand": "right"
      },
      {
        "midi": 74,
        "time": 48.333,
        "duration": 0.417,
        "velocity": 1,
        "hand": "right"
      },
      {
        "midi": 60,
        "time": 48.75,
        "duration": 0.208,
        "velocity": 1,
        "hand": "right"
      },
      {
        "midi": 63,
        "time": 48.75,
        "duration": 0.208,
        "velocity": 1,
        "hand": "right"
      },
      {
        "midi": 76,
        "time": 48.75,
        "duration": 0.208,
        "velocity": 1,
        "hand": "right"
      },
      {
        "midi": 60,
        "time": 48.958,
        "duration": 0.208,
        "velocity": 1,
        "hand": "right"
      },
      {
        "midi": 63,
        "time": 48.958,
        "duration": 0.208,
        "velocity": 1,
        "hand": "right"
      },
      {
        "midi": 77,
        "time": 48.958,
        "duration": 0.208,
        "velocity": 1,
        "hand": "right"
      },
      {
        "midi": 60,
        "time": 49.167,
        "duration": 0.417,
        "velocity": 1,
        "hand": "right"
      },
      {
        "midi": 63,
        "time": 49.167,
        "duration": 0.417,
        "velocity": 1,
        "hand": "right"
      },
      {
        "midi": 79,
        "time": 49.167,
        "duration": 0.208,
        "velocity": 1,
        "hand": "right"
      },
      {
        "midi": 77,
        "time": 49.375,
        "duration": 0.208,
        "velocity": 1,
        "hand": "right"
      },
      {
        "midi": 60,
        "time": 49.583,
        "duration": 0.417,
        "velocity": 1,
        "hand": "right"
      },
      {
        "midi": 63,
        "time": 49.583,
        "duration": 0.417,
        "velocity": 1,
        "hand": "right"
      },
      {
        "midi": 76,
        "time": 49.583,
        "duration": 0.208,
        "velocity": 1,
        "hand": "right"
      },
      {
        "midi": 74,
        "time": 49.792,
        "duration": 0.208,
        "velocity": 1,
        "hand": "right"
      },
      {
        "midi": 51,
        "time": 50,
        "duration": 0.833,
        "velocity": 1,
        "hand": "left"
      },
      {
        "midi": 74,
        "time": 50,
        "duration": 0.417,
        "velocity": 1,
        "hand": "right"
      },
      {
        "midi": 55,
        "time": 50.417,
        "duration": 0.208,
        "velocity": 1,
        "hand": "left"
      },
      {
        "midi": 60,
        "time": 50.417,
        "duration": 0.417,
        "velocity": 1,
        "hand": "right"
      },
      {
        "midi": 63,
        "time": 50.417,
        "duration": 0.208,
        "velocity": 1,
        "hand": "right"
      },
      {
        "midi": 55,
        "time": 50.625,
        "duration": 0.208,
        "velocity": 1,
        "hand": "left"
      },
      {
        "midi": 58,
        "time": 50.625,
        "duration": 0.208,
        "velocity": 1,
        "hand": "left"
      },
      {
        "midi": 63,
        "time": 50.625,
        "duration": 0.208,
        "velocity": 1,
        "hand": "right"
      },
      {
        "midi": 55,
        "time": 50.833,
        "duration": 0.417,
        "velocity": 1,
        "hand": "left"
      },
      {
        "midi": 63,
        "time": 50.833,
        "duration": 0.417,
        "velocity": 1,
        "hand": "right"
      },
      {
        "midi": 72,
        "time": 50.833,
        "duration": 0.833,
        "velocity": 1,
        "hand": "right"
      },
      {
        "midi": 55,
        "time": 51.25,
        "duration": 0.417,
        "velocity": 1,
        "hand": "left"
      },
      {
        "midi": 60,
        "time": 51.25,
        "duration": 0.417,
        "velocity": 1,
        "hand": "right"
      },
      {
        "midi": 63,
        "time": 51.25,
        "duration": 0.417,
        "velocity": 1,
        "hand": "right"
      },
      {
        "midi": 51,
        "time": 51.667,
        "duration": 0.833,
        "velocity": 1,
        "hand": "left"
      },
      {
        "midi": 60,
        "time": 51.667,
        "duration": 0.833,
        "velocity": 1,
        "hand": "right"
      },
      {
        "midi": 72,
        "time": 51.667,
        "duration": 0.417,
        "velocity": 1,
        "hand": "right"
      },
      {
        "midi": 55,
        "time": 52.083,
        "duration": 0.208,
        "velocity": 1,
        "hand": "left"
      },
      {
        "midi": 63,
        "time": 52.083,
        "duration": 0.208,
        "velocity": 1,
        "hand": "right"
      },
      {
        "midi": 71,
        "time": 52.083,
        "duration": 0.208,
        "velocity": 1,
        "hand": "right"
      },
      {
        "midi": 55,
        "time": 52.292,
        "duration": 0.208,
        "velocity": 1,
        "hand": "left"
      },
      {
        "midi": 63,
        "time": 52.292,
        "duration": 0.208,
        "velocity": 1,
        "hand": "right"
      },
      {
        "midi": 72,
        "time": 52.292,
        "duration": 0.208,
        "velocity": 1,
        "hand": "right"
      },
      {
        "midi": 55,
        "time": 52.5,
        "duration": 0.417,
        "velocity": 1,
        "hand": "left"
      },
      {
        "midi": 63,
        "time": 52.5,
        "duration": 0.417,
        "velocity": 1,
        "hand": "right"
      },
      {
        "midi": 71,
        "time": 52.5,
        "duration": 0.208,
        "velocity": 1,
        "hand": "right"
      },
      {
        "midi": 72,
        "time": 52.708,
        "duration": 0.208,
        "velocity": 1,
        "hand": "right"
      },
      {
        "midi": 55,
        "time": 52.917,
        "duration": 0.417,
        "velocity": 1,
        "hand": "left"
      },
      {
        "midi": 63,
        "time": 52.917,
        "duration": 0.417,
        "velocity": 1,
        "hand": "right"
      },
      {
        "midi": 76,
        "time": 52.917,
        "duration": 0.208,
        "velocity": 1,
        "hand": "right"
      },
      {
        "midi": 74,
        "time": 53.125,
        "duration": 0.208,
        "velocity": 1,
        "hand": "right"
      },
      {
        "midi": 46,
        "time": 53.333,
        "duration": 0.833,
        "velocity": 1,
        "hand": "left"
      },
      {
        "midi": 72,
        "time": 53.333,
        "duration": 0.417,
        "velocity": 1,
        "hand": "right"
      },
      {
        "midi": 53,
        "time": 53.75,
        "duration": 0.208,
        "velocity": 1,
        "hand": "left"
      },
      {
        "midi": 60,
        "time": 53.75,
        "duration": 0.417,
        "velocity": 1,
        "hand": "right"
      },
      {
        "midi": 62,
        "time": 53.75,
        "duration": 0.208,
        "velocity": 1,
        "hand": "right"
      },
      {
        "midi": 53,
        "time": 53.958,
        "duration": 0.208,
        "velocity": 1,
        "hand": "left"
      },
      {
        "midi": 58,
        "time": 53.958,
        "duration": 0.208,
        "velocity": 1,
        "hand": "left"
      },
      {
        "midi": 62,
        "time": 53.958,
        "duration": 0.208,
        "velocity": 1,
        "hand": "right"
      },
      {
        "midi": 53,
        "time": 54.167,
        "duration": 0.417,
        "velocity": 1,
        "hand": "left"
      },
      {
        "midi": 62,
        "time": 54.167,
        "duration": 0.417,
        "velocity": 1,
        "hand": "right"
      },
      {
        "midi": 70,
        "time": 54.167,
        "duration": 0.833,
        "velocity": 1,
        "hand": "right"
      },
      {
        "midi": 53,
        "time": 54.583,
        "duration": 0.417,
        "velocity": 1,
        "hand": "left"
      },
      {
        "midi": 60,
        "time": 54.583,
        "duration": 0.417,
        "velocity": 1,
        "hand": "right"
      },
      {
        "midi": 62,
        "time": 54.583,
        "duration": 0.417,
        "velocity": 1,
        "hand": "right"
      },
      {
        "midi": 46,
        "time": 55,
        "duration": 0.833,
        "velocity": 1,
        "hand": "left"
      },
      {
        "midi": 60,
        "time": 55,
        "duration": 0.833,
        "velocity": 1,
        "hand": "right"
      },
      {
        "midi": 70,
        "time": 55,
        "duration": 0.417,
        "velocity": 1,
        "hand": "right"
      },
      {
        "midi": 53,
        "time": 55.417,
        "duration": 0.208,
        "velocity": 1,
        "hand": "left"
      },
      {
        "midi": 62,
        "time": 55.417,
        "duration": 0.208,
        "velocity": 1,
        "hand": "right"
      },
      {
        "midi": 69,
        "time": 55.417,
        "duration": 0.208,
        "velocity": 1,
        "hand": "right"
      },
      {
        "midi": 53,
        "time": 55.625,
        "duration": 0.208,
        "velocity": 1,
        "hand": "left"
      },
      {
        "midi": 62,
        "time": 55.625,
        "duration": 0.208,
        "velocity": 1,
        "hand": "right"
      },
      {
        "midi": 70,
        "time": 55.625,
        "duration": 0.208,
        "velocity": 1,
        "hand": "right"
      },
      {
        "midi": 53,
        "time": 55.833,
        "duration": 0.417,
        "velocity": 1,
        "hand": "left"
      },
      {
        "midi": 62,
        "time": 55.833,
        "duration": 0.417,
        "velocity": 1,
        "hand": "right"
      },
      {
        "midi": 69,
        "time": 55.833,
        "duration": 0.208,
        "velocity": 1,
        "hand": "right"
      },
      {
        "midi": 70,
        "time": 56.042,
        "duration": 0.208,
        "velocity": 1,
        "hand": "right"
      },
      {
        "midi": 53,
        "time": 56.25,
        "duration": 0.417,
        "velocity": 1,
        "hand": "left"
      },
      {
        "midi": 62,
        "time": 56.25,
        "duration": 0.417,
        "velocity": 1,
        "hand": "right"
      },
      {
        "midi": 74,
        "time": 56.25,
        "duration": 0.208,
        "velocity": 1,
        "hand": "right"
      },
      {
        "midi": 72,
        "time": 56.458,
        "duration": 0.208,
        "velocity": 1,
        "hand": "right"
      },
      {
        "midi": 51,
        "time": 56.667,
        "duration": 0.833,
        "velocity": 1,
        "hand": "left"
      },
      {
        "midi": 65,
        "time": 56.667,
        "duration": 1.667,
        "velocity": 1,
        "hand": "right"
      },
      {
        "midi": 55,
        "time": 57.083,
        "duration": 0.208,
        "velocity": 1,
        "hand": "left"
      },
      {
        "midi": 58,
        "time": 57.083,
        "duration": 0.208,
        "velocity": 1,
        "hand": "left"
      },
      {
        "midi": 55,
        "time": 57.292,
        "duration": 0.208,
        "velocity": 1,
        "hand": "left"
      },
      {
        "midi": 58,
        "time": 57.292,
        "duration": 0.208,
        "velocity": 1,
        "hand": "left"
      },
      {
        "midi": 55,
        "time": 57.5,
        "duration": 0.417,
        "velocity": 1,
        "hand": "left"
      },
      {
        "midi": 58,
        "time": 57.5,
        "duration": 0.417,
        "velocity": 1,
        "hand": "left"
      },
      {
        "midi": 55,
        "time": 57.917,
        "duration": 0.417,
        "velocity": 1,
        "hand": "left"
      },
      {
        "midi": 58,
        "time": 57.917,
        "duration": 0.417,
        "velocity": 1,
        "hand": "left"
      },
      {
        "midi": 51,
        "time": 58.333,
        "duration": 0.833,
        "velocity": 1,
        "hand": "left"
      },
      {
        "midi": 65,
        "time": 58.333,
        "duration": 1.25,
        "velocity": 1,
        "hand": "right"
      },
      {
        "midi": 55,
        "time": 58.75,
        "duration": 0.417,
        "velocity": 1,
        "hand": "left"
      },
      {
        "midi": 58,
        "time": 58.75,
        "duration": 0.417,
        "velocity": 1,
        "hand": "left"
      },
      {
        "midi": 77,
        "time": 59.583,
        "duration": 0.417,
        "velocity": 1,
        "hand": "right"
      },
      {
        "midi": 56,
        "time": 60,
        "duration": 0.417,
        "velocity": 1,
        "hand": "left"
      },
      {
        "midi": 60,
        "time": 60,
        "duration": 0.833,
        "velocity": 1,
        "hand": "right"
      },
      {
        "midi": 74,
        "time": 60,
        "duration": 0.417,
        "velocity": 1,
        "hand": "right"
      },
      {
        "midi": 60,
        "time": 60.417,
        "duration": 0.417,
        "velocity": 1,
        "hand": "right"
      },
      {
        "midi": 63,
        "time": 60.417,
        "duration": 0.417,
        "velocity": 1,
        "hand": "right"
      },
      {
        "midi": 77,
        "time": 60.417,
        "duration": 0.417,
        "velocity": 1,
        "hand": "right"
      },
      {
        "midi": 56,
        "time": 60.833,
        "duration": 0.417,
        "velocity": 1,
        "hand": "left"
      },
      {
        "midi": 60,
        "time": 60.833,
        "duration": 0.833,
        "velocity": 1,
        "hand": "right"
      },
      {
        "midi": 74,
        "time": 60.833,
        "duration": 0.417,
        "velocity": 1,
        "hand": "right"
      },
      {
        "midi": 60,
        "time": 61.25,
        "duration": 0.417,
        "velocity": 1,
        "hand": "right"
      },
      {
        "midi": 63,
        "time": 61.25,
        "duration": 0.417,
        "velocity": 1,
        "hand": "right"
      },
      {
        "midi": 77,
        "time": 61.25,
        "duration": 0.417,
        "velocity": 1,
        "hand": "right"
      },
      {
        "midi": 56,
        "time": 61.667,
        "duration": 0.417,
        "velocity": 1,
        "hand": "left"
      },
      {
        "midi": 60,
        "time": 61.667,
        "duration": 0.833,
        "velocity": 1,
        "hand": "right"
      },
      {
        "midi": 74,
        "time": 61.667,
        "duration": 0.417,
        "velocity": 1,
        "hand": "right"
      },
      {
        "midi": 60,
        "time": 62.083,
        "duration": 0.417,
        "velocity": 1,
        "hand": "right"
      },
      {
        "midi": 63,
        "time": 62.083,
        "duration": 0.417,
        "velocity": 1,
        "hand": "right"
      },
      {
        "midi": 77,
        "time": 62.083,
        "duration": 0.417,
        "velocity": 1,
        "hand": "right"
      },
      {
        "midi": 56,
        "time": 62.5,
        "duration": 0.417,
        "velocity": 1,
        "hand": "left"
      },
      {
        "midi": 60,
        "time": 62.5,
        "duration": 0.833,
        "velocity": 1,
        "hand": "right"
      },
      {
        "midi": 79,
        "time": 62.5,
        "duration": 0.208,
        "velocity": 1,
        "hand": "right"
      },
      {
        "midi": 77,
        "time": 62.708,
        "duration": 0.208,
        "velocity": 1,
        "hand": "right"
      },
      {
        "midi": 60,
        "time": 62.917,
        "duration": 0.417,
        "velocity": 1,
        "hand": "right"
      },
      {
        "midi": 63,
        "time": 62.917,
        "duration": 0.417,
        "velocity": 1,
        "hand": "right"
      },
      {
        "midi": 76,
        "time": 62.917,
        "duration": 0.208,
        "velocity": 1,
        "hand": "right"
      },
      {
        "midi": 74,
        "time": 63.125,
        "duration": 0.208,
        "velocity": 1,
        "hand": "right"
      },
      {
        "midi": 51,
        "time": 63.333,
        "duration": 0.417,
        "velocity": 1,
        "hand": "left"
      },
      {
        "midi": 60,
        "time": 63.333,
        "duration": 0.833,
        "velocity": 1,
        "hand": "right"
      },
      {
        "midi": 74,
        "time": 63.333,
        "duration": 0.208,
        "velocity": 1,
        "hand": "right"
      },
      {
        "midi": 72,
        "time": 63.542,
        "duration": 0.208,
        "velocity": 1,
        "hand": "right"
      },
      {
        "midi": 55,
        "time": 63.75,
        "duration": 0.417,
        "velocity": 1,
        "hand": "left"
      },
      {
        "midi": 63,
        "time": 63.75,
        "duration": 0.417,
        "velocity": 1,
        "hand": "right"
      },
      {
        "midi": 72,
        "time": 63.75,
        "duration": 0.208,
        "velocity": 1,
        "hand": "right"
      },
      {
        "midi": 72,
        "time": 63.958,
        "duration": 0.208,
        "velocity": 1,
        "hand": "right"
      },
      {
        "midi": 51,
        "time": 64.167,
        "duration": 0.417,
        "velocity": 1,
        "hand": "left"
      },
      {
        "midi": 60,
        "time": 64.167,
        "duration": 0.833,
        "velocity": 1,
        "hand": "right"
      },
      {
        "midi": 74,
        "time": 64.167,
        "duration": 0.208,
        "velocity": 1,
        "hand": "right"
      },
      {
        "midi": 72,
        "time": 64.375,
        "duration": 0.208,
        "velocity": 1,
        "hand": "right"
      },
      {
        "midi": 55,
        "time": 64.583,
        "duration": 0.417,
        "velocity": 1,
        "hand": "left"
      },
      {
        "midi": 63,
        "time": 64.583,
        "duration": 0.417,
        "velocity": 1,
        "hand": "right"
      },
      {
        "midi": 72,
        "time": 64.583,
        "duration": 0.208,
        "velocity": 1,
        "hand": "right"
      },
      {
        "midi": 72,
        "time": 64.792,
        "duration": 0.208,
        "velocity": 1,
        "hand": "right"
      },
      {
        "midi": 51,
        "time": 65,
        "duration": 0.417,
        "velocity": 1,
        "hand": "left"
      },
      {
        "midi": 60,
        "time": 65,
        "duration": 0.833,
        "velocity": 1,
        "hand": "right"
      },
      {
        "midi": 74,
        "time": 65,
        "duration": 0.208,
        "velocity": 1,
        "hand": "right"
      },
      {
        "midi": 72,
        "time": 65.208,
        "duration": 0.208,
        "velocity": 1,
        "hand": "right"
      },
      {
        "midi": 55,
        "time": 65.417,
        "duration": 0.417,
        "velocity": 1,
        "hand": "left"
      },
      {
        "midi": 63,
        "time": 65.417,
        "duration": 0.417,
        "velocity": 1,
        "hand": "right"
      },
      {
        "midi": 72,
        "time": 65.417,
        "duration": 0.208,
        "velocity": 1,
        "hand": "right"
      },
      {
        "midi": 72,
        "time": 65.625,
        "duration": 0.208,
        "velocity": 1,
        "hand": "right"
      },
      {
        "midi": 51,
        "time": 65.833,
        "duration": 0.417,
        "velocity": 1,
        "hand": "left"
      },
      {
        "midi": 60,
        "time": 65.833,
        "duration": 0.833,
        "velocity": 1,
        "hand": "right"
      },
      {
        "midi": 74,
        "time": 65.833,
        "duration": 0.208,
        "velocity": 1,
        "hand": "right"
      },
      {
        "midi": 72,
        "time": 66.042,
        "duration": 0.208,
        "velocity": 1,
        "hand": "right"
      },
      {
        "midi": 55,
        "time": 66.25,
        "duration": 0.417,
        "velocity": 1,
        "hand": "left"
      },
      {
        "midi": 63,
        "time": 66.25,
        "duration": 0.417,
        "velocity": 1,
        "hand": "right"
      },
      {
        "midi": 70,
        "time": 66.25,
        "duration": 0.208,
        "velocity": 1,
        "hand": "right"
      },
      {
        "midi": 69,
        "time": 66.458,
        "duration": 0.208,
        "velocity": 1,
        "hand": "right"
      },
      {
        "midi": 46,
        "time": 66.667,
        "duration": 0.417,
        "velocity": 1,
        "hand": "left"
      },
      {
        "midi": 60,
        "time": 66.667,
        "duration": 0.833,
        "velocity": 1,
        "hand": "right"
      },
      {
        "midi": 72,
        "time": 66.667,
        "duration": 0.208,
        "velocity": 1,
        "hand": "right"
      },
      {
        "midi": 70,
        "time": 66.875,
        "duration": 0.208,
        "velocity": 1,
        "hand": "right"
      },
      {
        "midi": 53,
        "time": 67.083,
        "duration": 0.417,
        "velocity": 1,
        "hand": "left"
      },
      {
        "midi": 62,
        "time": 67.083,
        "duration": 0.417,
        "velocity": 1,
        "hand": "right"
      },
      {
        "midi": 70,
        "time": 67.083,
        "duration": 0.208,
        "velocity": 1,
        "hand": "right"
      },
      {
        "midi": 70,
        "time": 67.292,
        "duration": 0.208,
        "velocity": 1,
        "hand": "right"
      },
      {
        "midi": 46,
        "time": 67.5,
        "duration": 0.417,
        "velocity": 1,
        "hand": "left"
      },
      {
        "midi": 60,
        "time": 67.5,
        "duration": 0.833,
        "velocity": 1,
        "hand": "right"
      },
      {
        "midi": 72,
        "time": 67.5,
        "duration": 0.208,
        "velocity": 1,
        "hand": "right"
      },
      {
        "midi": 70,
        "time": 67.708,
        "duration": 0.208,
        "velocity": 1,
        "hand": "right"
      },
      {
        "midi": 53,
        "time": 67.917,
        "duration": 0.417,
        "velocity": 1,
        "hand": "left"
      },
      {
        "midi": 62,
        "time": 67.917,
        "duration": 0.417,
        "velocity": 1,
        "hand": "right"
      },
      {
        "midi": 70,
        "time": 67.917,
        "duration": 0.208,
        "velocity": 1,
        "hand": "right"
      },
      {
        "midi": 70,
        "time": 68.125,
        "duration": 0.208,
        "velocity": 1,
        "hand": "right"
      },
      {
        "midi": 46,
        "time": 68.333,
        "duration": 0.417,
        "velocity": 1,
        "hand": "left"
      },
      {
        "midi": 60,
        "time": 68.333,
        "duration": 0.833,
        "velocity": 1,
        "hand": "right"
      },
      {
        "midi": 72,
        "time": 68.333,
        "duration": 0.208,
        "velocity": 1,
        "hand": "right"
      },
      {
        "midi": 70,
        "time": 68.542,
        "duration": 0.208,
        "velocity": 1,
        "hand": "right"
      },
      {
        "midi": 53,
        "time": 68.75,
        "duration": 0.417,
        "velocity": 1,
        "hand": "left"
      },
      {
        "midi": 62,
        "time": 68.75,
        "duration": 0.417,
        "velocity": 1,
        "hand": "right"
      },
      {
        "midi": 70,
        "time": 68.75,
        "duration": 0.208,
        "velocity": 1,
        "hand": "right"
      },
      {
        "midi": 70,
        "time": 68.958,
        "duration": 0.208,
        "velocity": 1,
        "hand": "right"
      },
      {
        "midi": 46,
        "time": 69.167,
        "duration": 0.417,
        "velocity": 1,
        "hand": "left"
      },
      {
        "midi": 60,
        "time": 69.167,
        "duration": 0.833,
        "velocity": 1,
        "hand": "right"
      },
      {
        "midi": 72,
        "time": 69.167,
        "duration": 0.208,
        "velocity": 1,
        "hand": "right"
      },
      {
        "midi": 70,
        "time": 69.375,
        "duration": 0.208,
        "velocity": 1,
        "hand": "right"
      },
      {
        "midi": 53,
        "time": 69.583,
        "duration": 0.417,
        "velocity": 1,
        "hand": "left"
      },
      {
        "midi": 62,
        "time": 69.583,
        "duration": 0.417,
        "velocity": 1,
        "hand": "right"
      },
      {
        "midi": 69,
        "time": 69.583,
        "duration": 0.208,
        "velocity": 1,
        "hand": "right"
      },
      {
        "midi": 67,
        "time": 69.792,
        "duration": 0.208,
        "velocity": 1,
        "hand": "right"
      },
      {
        "midi": 51,
        "time": 70,
        "duration": 0.417,
        "velocity": 1,
        "hand": "left"
      },
      {
        "midi": 60,
        "time": 70,
        "duration": 0.833,
        "velocity": 1,
        "hand": "right"
      },
      {
        "midi": 65,
        "time": 70,
        "duration": 0.208,
        "velocity": 1,
        "hand": "right"
      },
      {
        "midi": 65,
        "time": 70.208,
        "duration": 0.208,
        "velocity": 1,
        "hand": "right"
      },
      {
        "midi": 55,
        "time": 70.417,
        "duration": 0.417,
        "velocity": 1,
        "hand": "left"
      },
      {
        "midi": 58,
        "time": 70.417,
        "duration": 0.417,
        "velocity": 1,
        "hand": "left"
      },
      {
        "midi": 67,
        "time": 70.417,
        "duration": 0.208,
        "velocity": 1,
        "hand": "right"
      },
      {
        "midi": 69,
        "time": 70.625,
        "duration": 0.208,
        "velocity": 1,
        "hand": "right"
      },
      {
        "midi": 70,
        "time": 70.833,
        "duration": 0.208,
        "velocity": 1,
        "hand": "right"
      },
      {
        "midi": 72,
        "time": 71.042,
        "duration": 0.208,
        "velocity": 1,
        "hand": "right"
      },
      {
        "midi": 74,
        "time": 71.25,
        "duration": 0.208,
        "velocity": 1,
        "hand": "right"
      },
      {
        "midi": 76,
        "time": 71.458,
        "duration": 0.208,
        "velocity": 1,
        "hand": "right"
      },
      {
        "midi": 60,
        "time": 71.667,
        "duration": 0.417,
        "velocity": 1,
        "hand": "right"
      },
      {
        "midi": 77,
        "time": 71.667,
        "duration": 0.417,
        "velocity": 1,
        "hand": "right"
      },
      {
        "midi": 51,
        "time": 72.083,
        "duration": 0.417,
        "velocity": 1,
        "hand": "left"
      },
      {
        "midi": 58,
        "time": 72.083,
        "duration": 0.417,
        "velocity": 1,
        "hand": "left"
      },
      {
        "midi": 60,
        "time": 72.083,
        "duration": 0.417,
        "velocity": 1,
        "hand": "right"
      },
      {
        "midi": 55,
        "time": 72.5,
        "duration": 0.417,
        "velocity": 1,
        "hand": "left"
      },
      {
        "midi": 60,
        "time": 72.5,
        "duration": 0.417,
        "velocity": 1,
        "hand": "right"
      },
      {
        "midi": 63,
        "time": 72.5,
        "duration": 0.417,
        "velocity": 1,
        "hand": "right"
      },
      {
        "midi": 51,
        "time": 72.917,
        "duration": 0.417,
        "velocity": 1,
        "hand": "left"
      },
      {
        "midi": 58,
        "time": 72.917,
        "duration": 0.417,
        "velocity": 1,
        "hand": "left"
      },
      {
        "midi": 77,
        "time": 72.917,
        "duration": 0.417,
        "velocity": 1,
        "hand": "right"
      },
      {
        "midi": 56,
        "time": 73.333,
        "duration": 0.417,
        "velocity": 1,
        "hand": "left"
      },
      {
        "midi": 60,
        "time": 73.333,
        "duration": 0.833,
        "velocity": 1,
        "hand": "right"
      },
      {
        "midi": 74,
        "time": 73.333,
        "duration": 0.417,
        "velocity": 1,
        "hand": "right"
      },
      {
        "midi": 60,
        "time": 73.75,
        "duration": 0.417,
        "velocity": 1,
        "hand": "right"
      },
      {
        "midi": 63,
        "time": 73.75,
        "duration": 0.417,
        "velocity": 1,
        "hand": "right"
      },
      {
        "midi": 77,
        "time": 73.75,
        "duration": 0.417,
        "velocity": 1,
        "hand": "right"
      },
      {
        "midi": 56,
        "time": 74.167,
        "duration": 0.417,
        "velocity": 1,
        "hand": "left"
      },
      {
        "midi": 60,
        "time": 74.167,
        "duration": 0.833,
        "velocity": 1,
        "hand": "right"
      },
      {
        "midi": 74,
        "time": 74.167,
        "duration": 0.417,
        "velocity": 1,
        "hand": "right"
      },
      {
        "midi": 60,
        "time": 74.583,
        "duration": 0.417,
        "velocity": 1,
        "hand": "right"
      },
      {
        "midi": 63,
        "time": 74.583,
        "duration": 0.417,
        "velocity": 1,
        "hand": "right"
      },
      {
        "midi": 77,
        "time": 74.583,
        "duration": 0.417,
        "velocity": 1,
        "hand": "right"
      },
      {
        "midi": 56,
        "time": 75,
        "duration": 0.417,
        "velocity": 1,
        "hand": "left"
      },
      {
        "midi": 60,
        "time": 75,
        "duration": 0.833,
        "velocity": 1,
        "hand": "right"
      },
      {
        "midi": 74,
        "time": 75,
        "duration": 0.417,
        "velocity": 1,
        "hand": "right"
      },
      {
        "midi": 60,
        "time": 75.417,
        "duration": 0.417,
        "velocity": 1,
        "hand": "right"
      },
      {
        "midi": 63,
        "time": 75.417,
        "duration": 0.417,
        "velocity": 1,
        "hand": "right"
      },
      {
        "midi": 77,
        "time": 75.417,
        "duration": 0.417,
        "velocity": 1,
        "hand": "right"
      },
      {
        "midi": 56,
        "time": 75.833,
        "duration": 0.417,
        "velocity": 1,
        "hand": "left"
      },
      {
        "midi": 60,
        "time": 75.833,
        "duration": 0.833,
        "velocity": 1,
        "hand": "right"
      },
      {
        "midi": 79,
        "time": 75.833,
        "duration": 0.208,
        "velocity": 1,
        "hand": "right"
      },
      {
        "midi": 77,
        "time": 76.042,
        "duration": 0.208,
        "velocity": 1,
        "hand": "right"
      },
      {
        "midi": 60,
        "time": 76.25,
        "duration": 0.417,
        "velocity": 1,
        "hand": "right"
      },
      {
        "midi": 63,
        "time": 76.25,
        "duration": 0.417,
        "velocity": 1,
        "hand": "right"
      },
      {
        "midi": 76,
        "time": 76.25,
        "duration": 0.208,
        "velocity": 1,
        "hand": "right"
      },
      {
        "midi": 74,
        "time": 76.458,
        "duration": 0.208,
        "velocity": 1,
        "hand": "right"
      },
      {
        "midi": 51,
        "time": 76.667,
        "duration": 0.417,
        "velocity": 1,
        "hand": "left"
      },
      {
        "midi": 60,
        "time": 76.667,
        "duration": 0.833,
        "velocity": 1,
        "hand": "right"
      },
      {
        "midi": 74,
        "time": 76.667,
        "duration": 0.208,
        "velocity": 1,
        "hand": "right"
      },
      {
        "midi": 72,
        "time": 76.875,
        "duration": 0.208,
        "velocity": 1,
        "hand": "right"
      },
      {
        "midi": 55,
        "time": 77.083,
        "duration": 0.417,
        "velocity": 1,
        "hand": "left"
      },
      {
        "midi": 63,
        "time": 77.083,
        "duration": 0.417,
        "velocity": 1,
        "hand": "right"
      },
      {
        "midi": 72,
        "time": 77.083,
        "duration": 0.208,
        "velocity": 1,
        "hand": "right"
      },
      {
        "midi": 72,
        "time": 77.292,
        "duration": 0.208,
        "velocity": 1,
        "hand": "right"
      },
      {
        "midi": 51,
        "time": 77.5,
        "duration": 0.417,
        "velocity": 1,
        "hand": "left"
      },
      {
        "midi": 60,
        "time": 77.5,
        "duration": 0.833,
        "velocity": 1,
        "hand": "right"
      },
      {
        "midi": 74,
        "time": 77.5,
        "duration": 0.208,
        "velocity": 1,
        "hand": "right"
      },
      {
        "midi": 72,
        "time": 77.708,
        "duration": 0.208,
        "velocity": 1,
        "hand": "right"
      },
      {
        "midi": 55,
        "time": 77.917,
        "duration": 0.417,
        "velocity": 1,
        "hand": "left"
      },
      {
        "midi": 63,
        "time": 77.917,
        "duration": 0.417,
        "velocity": 1,
        "hand": "right"
      },
      {
        "midi": 72,
        "time": 77.917,
        "duration": 0.208,
        "velocity": 1,
        "hand": "right"
      },
      {
        "midi": 72,
        "time": 78.125,
        "duration": 0.208,
        "velocity": 1,
        "hand": "right"
      },
      {
        "midi": 51,
        "time": 78.333,
        "duration": 0.417,
        "velocity": 1,
        "hand": "left"
      },
      {
        "midi": 60,
        "time": 78.333,
        "duration": 0.833,
        "velocity": 1,
        "hand": "right"
      },
      {
        "midi": 74,
        "time": 78.333,
        "duration": 0.208,
        "velocity": 1,
        "hand": "right"
      },
      {
        "midi": 72,
        "time": 78.542,
        "duration": 0.208,
        "velocity": 1,
        "hand": "right"
      },
      {
        "midi": 55,
        "time": 78.75,
        "duration": 0.417,
        "velocity": 1,
        "hand": "left"
      },
      {
        "midi": 63,
        "time": 78.75,
        "duration": 0.417,
        "velocity": 1,
        "hand": "right"
      },
      {
        "midi": 72,
        "time": 78.75,
        "duration": 0.208,
        "velocity": 1,
        "hand": "right"
      },
      {
        "midi": 72,
        "time": 78.958,
        "duration": 0.208,
        "velocity": 1,
        "hand": "right"
      },
      {
        "midi": 51,
        "time": 79.167,
        "duration": 0.417,
        "velocity": 1,
        "hand": "left"
      },
      {
        "midi": 60,
        "time": 79.167,
        "duration": 0.833,
        "velocity": 1,
        "hand": "right"
      },
      {
        "midi": 74,
        "time": 79.167,
        "duration": 0.208,
        "velocity": 1,
        "hand": "right"
      },
      {
        "midi": 72,
        "time": 79.375,
        "duration": 0.208,
        "velocity": 1,
        "hand": "right"
      },
      {
        "midi": 55,
        "time": 79.583,
        "duration": 0.417,
        "velocity": 1,
        "hand": "left"
      },
      {
        "midi": 63,
        "time": 79.583,
        "duration": 0.417,
        "velocity": 1,
        "hand": "right"
      },
      {
        "midi": 70,
        "time": 79.583,
        "duration": 0.208,
        "velocity": 1,
        "hand": "right"
      },
      {
        "midi": 69,
        "time": 79.792,
        "duration": 0.208,
        "velocity": 1,
        "hand": "right"
      },
      {
        "midi": 46,
        "time": 80,
        "duration": 0.417,
        "velocity": 1,
        "hand": "left"
      },
      {
        "midi": 60,
        "time": 80,
        "duration": 0.833,
        "velocity": 1,
        "hand": "right"
      },
      {
        "midi": 72,
        "time": 80,
        "duration": 0.208,
        "velocity": 1,
        "hand": "right"
      },
      {
        "midi": 70,
        "time": 80.208,
        "duration": 0.208,
        "velocity": 1,
        "hand": "right"
      },
      {
        "midi": 53,
        "time": 80.417,
        "duration": 0.417,
        "velocity": 1,
        "hand": "left"
      },
      {
        "midi": 62,
        "time": 80.417,
        "duration": 0.417,
        "velocity": 1,
        "hand": "right"
      },
      {
        "midi": 70,
        "time": 80.417,
        "duration": 0.208,
        "velocity": 1,
        "hand": "right"
      },
      {
        "midi": 70,
        "time": 80.625,
        "duration": 0.208,
        "velocity": 1,
        "hand": "right"
      },
      {
        "midi": 46,
        "time": 80.833,
        "duration": 0.417,
        "velocity": 1,
        "hand": "left"
      },
      {
        "midi": 60,
        "time": 80.833,
        "duration": 0.833,
        "velocity": 1,
        "hand": "right"
      },
      {
        "midi": 72,
        "time": 80.833,
        "duration": 0.208,
        "velocity": 1,
        "hand": "right"
      },
      {
        "midi": 70,
        "time": 81.042,
        "duration": 0.208,
        "velocity": 1,
        "hand": "right"
      },
      {
        "midi": 53,
        "time": 81.25,
        "duration": 0.417,
        "velocity": 1,
        "hand": "left"
      },
      {
        "midi": 62,
        "time": 81.25,
        "duration": 0.417,
        "velocity": 1,
        "hand": "right"
      },
      {
        "midi": 70,
        "time": 81.25,
        "duration": 0.208,
        "velocity": 1,
        "hand": "right"
      },
      {
        "midi": 70,
        "time": 81.458,
        "duration": 0.208,
        "velocity": 1,
        "hand": "right"
      },
      {
        "midi": 46,
        "time": 81.667,
        "duration": 0.417,
        "velocity": 1,
        "hand": "left"
      },
      {
        "midi": 60,
        "time": 81.667,
        "duration": 0.833,
        "velocity": 1,
        "hand": "right"
      },
      {
        "midi": 72,
        "time": 81.667,
        "duration": 0.208,
        "velocity": 1,
        "hand": "right"
      },
      {
        "midi": 70,
        "time": 81.875,
        "duration": 0.208,
        "velocity": 1,
        "hand": "right"
      },
      {
        "midi": 53,
        "time": 82.083,
        "duration": 0.417,
        "velocity": 1,
        "hand": "left"
      },
      {
        "midi": 62,
        "time": 82.083,
        "duration": 0.417,
        "velocity": 1,
        "hand": "right"
      },
      {
        "midi": 70,
        "time": 82.083,
        "duration": 0.208,
        "velocity": 1,
        "hand": "right"
      },
      {
        "midi": 70,
        "time": 82.292,
        "duration": 0.208,
        "velocity": 1,
        "hand": "right"
      },
      {
        "midi": 46,
        "time": 82.5,
        "duration": 0.417,
        "velocity": 1,
        "hand": "left"
      },
      {
        "midi": 60,
        "time": 82.5,
        "duration": 0.833,
        "velocity": 1,
        "hand": "right"
      },
      {
        "midi": 72,
        "time": 82.5,
        "duration": 0.208,
        "velocity": 1,
        "hand": "right"
      },
      {
        "midi": 70,
        "time": 82.708,
        "duration": 0.208,
        "velocity": 1,
        "hand": "right"
      },
      {
        "midi": 53,
        "time": 82.917,
        "duration": 0.417,
        "velocity": 1,
        "hand": "left"
      },
      {
        "midi": 62,
        "time": 82.917,
        "duration": 0.417,
        "velocity": 1,
        "hand": "right"
      },
      {
        "midi": 69,
        "time": 82.917,
        "duration": 0.208,
        "velocity": 1,
        "hand": "right"
      },
      {
        "midi": 67,
        "time": 83.125,
        "duration": 0.208,
        "velocity": 1,
        "hand": "right"
      },
      {
        "midi": 51,
        "time": 83.333,
        "duration": 0.417,
        "velocity": 1,
        "hand": "left"
      },
      {
        "midi": 58,
        "time": 83.333,
        "duration": 0.417,
        "velocity": 1,
        "hand": "left"
      },
      {
        "midi": 65,
        "time": 83.333,
        "duration": 0.208,
        "velocity": 1,
        "hand": "right"
      },
      {
        "midi": 65,
        "time": 83.542,
        "duration": 0.208,
        "velocity": 1,
        "hand": "right"
      },
      {
        "midi": 67,
        "time": 83.75,
        "duration": 0.208,
        "velocity": 1,
        "hand": "right"
      },
      {
        "midi": 69,
        "time": 83.958,
        "duration": 0.208,
        "velocity": 1,
        "hand": "right"
      },
      {
        "midi": 58,
        "time": 84.167,
        "duration": 0.417,
        "velocity": 1,
        "hand": "left"
      },
      {
        "midi": 65,
        "time": 84.167,
        "duration": 0.417,
        "velocity": 1,
        "hand": "right"
      },
      {
        "midi": 70,
        "time": 84.167,
        "duration": 0.208,
        "velocity": 1,
        "hand": "right"
      },
      {
        "midi": 72,
        "time": 84.375,
        "duration": 0.208,
        "velocity": 1,
        "hand": "right"
      },
      {
        "midi": 74,
        "time": 84.583,
        "duration": 0.208,
        "velocity": 1,
        "hand": "right"
      },
      {
        "midi": 76,
        "time": 84.792,
        "duration": 0.208,
        "velocity": 1,
        "hand": "right"
      },
      {
        "midi": 60,
        "time": 85,
        "duration": 0.833,
        "velocity": 1,
        "hand": "right"
      },
      {
        "midi": 67,
        "time": 85,
        "duration": 0.417,
        "velocity": 1,
        "hand": "right"
      },
      {
        "midi": 77,
        "time": 85,
        "duration": 0.208,
        "velocity": 1,
        "hand": "right"
      },
      {
        "midi": 65,
        "time": 85.208,
        "duration": 0.208,
        "velocity": 1,
        "hand": "right"
      },
      {
        "midi": 67,
        "time": 85.417,
        "duration": 0.208,
        "velocity": 1,
        "hand": "right"
      },
      {
        "midi": 69,
        "time": 85.625,
        "duration": 0.208,
        "velocity": 1,
        "hand": "right"
      },
      {
        "midi": 58,
        "time": 85.833,
        "duration": 0.417,
        "velocity": 1,
        "hand": "left"
      },
      {
        "midi": 65,
        "time": 85.833,
        "duration": 0.417,
        "velocity": 1,
        "hand": "right"
      },
      {
        "midi": 70,
        "time": 85.833,
        "duration": 0.208,
        "velocity": 1,
        "hand": "right"
      },
      {
        "midi": 72,
        "time": 86.042,
        "duration": 0.208,
        "velocity": 1,
        "hand": "right"
      },
      {
        "midi": 74,
        "time": 86.25,
        "duration": 0.208,
        "velocity": 1,
        "hand": "right"
      },
      {
        "midi": 76,
        "time": 86.458,
        "duration": 0.208,
        "velocity": 1,
        "hand": "right"
      },
      {
        "midi": 60,
        "time": 86.667,
        "duration": 0.833,
        "velocity": 1,
        "hand": "right"
      },
      {
        "midi": 67,
        "time": 86.667,
        "duration": 0.417,
        "velocity": 1,
        "hand": "right"
      },
      {
        "midi": 77,
        "time": 86.667,
        "duration": 0.417,
        "velocity": 1,
        "hand": "right"
      },
      {
        "midi": 51,
        "time": 87.5,
        "duration": 0.417,
        "velocity": 1,
        "hand": "left"
      },
      {
        "midi": 60,
        "time": 87.5,
        "duration": 0.833,
        "velocity": 1,
        "hand": "right"
      },
      {
        "midi": 77,
        "time": 87.5,
        "duration": 0.417,
        "velocity": 1,
        "hand": "right"
      },
      {
        "midi": 51,
        "time": 88.333,
        "duration": 0.417,
        "velocity": 1,
        "hand": "left"
      },
      {
        "midi": 60,
        "time": 88.333,
        "duration": 0.833,
        "velocity": 1,
        "hand": "right"
      },
      {
        "midi": 65,
        "time": 88.333,
        "duration": 0.417,
        "velocity": 1,
        "hand": "right"
      }
    ],
    "hard": [
      {
        "midi": 51,
        "time": 0,
        "duration": 0.833,
        "velocity": 1,
        "hand": "left"
      },
      {
        "midi": 55,
        "time": 0.417,
        "duration": 0.208,
        "velocity": 1,
        "hand": "left"
      },
      {
        "midi": 58,
        "time": 0.417,
        "duration": 0.208,
        "velocity": 1,
        "hand": "left"
      },
      {
        "midi": 60,
        "time": 0.417,
        "duration": 0.208,
        "velocity": 1,
        "hand": "right"
      },
      {
        "midi": 63,
        "time": 0.417,
        "duration": 0.208,
        "velocity": 1,
        "hand": "right"
      },
      {
        "midi": 55,
        "time": 0.625,
        "duration": 0.208,
        "velocity": 1,
        "hand": "left"
      },
      {
        "midi": 58,
        "time": 0.625,
        "duration": 0.208,
        "velocity": 1,
        "hand": "left"
      },
      {
        "midi": 60,
        "time": 0.625,
        "duration": 0.208,
        "velocity": 1,
        "hand": "right"
      },
      {
        "midi": 63,
        "time": 0.625,
        "duration": 0.208,
        "velocity": 1,
        "hand": "right"
      },
      {
        "midi": 55,
        "time": 0.833,
        "duration": 0.417,
        "velocity": 1,
        "hand": "left"
      },
      {
        "midi": 58,
        "time": 0.833,
        "duration": 0.417,
        "velocity": 1,
        "hand": "left"
      },
      {
        "midi": 60,
        "time": 0.833,
        "duration": 0.417,
        "velocity": 1,
        "hand": "right"
      },
      {
        "midi": 63,
        "time": 0.833,
        "duration": 0.417,
        "velocity": 1,
        "hand": "right"
      },
      {
        "midi": 55,
        "time": 1.25,
        "duration": 0.417,
        "velocity": 1,
        "hand": "left"
      },
      {
        "midi": 58,
        "time": 1.25,
        "duration": 0.417,
        "velocity": 1,
        "hand": "left"
      },
      {
        "midi": 60,
        "time": 1.25,
        "duration": 0.417,
        "velocity": 1,
        "hand": "right"
      },
      {
        "midi": 63,
        "time": 1.25,
        "duration": 0.417,
        "velocity": 1,
        "hand": "right"
      },
      {
        "midi": 46,
        "time": 1.667,
        "duration": 0.833,
        "velocity": 1,
        "hand": "left"
      },
      {
        "midi": 55,
        "time": 2.083,
        "duration": 0.208,
        "velocity": 1,
        "hand": "left"
      },
      {
        "midi": 58,
        "time": 2.083,
        "duration": 0.208,
        "velocity": 1,
        "hand": "left"
      },
      {
        "midi": 60,
        "time": 2.083,
        "duration": 0.208,
        "velocity": 1,
        "hand": "right"
      },
      {
        "midi": 63,
        "time": 2.083,
        "duration": 0.208,
        "velocity": 1,
        "hand": "right"
      },
      {
        "midi": 72,
        "time": 2.083,
        "duration": 0.208,
        "velocity": 1,
        "hand": "right"
      },
      {
        "midi": 55,
        "time": 2.292,
        "duration": 0.208,
        "velocity": 1,
        "hand": "left"
      },
      {
        "midi": 58,
        "time": 2.292,
        "duration": 0.208,
        "velocity": 1,
        "hand": "left"
      },
      {
        "midi": 60,
        "time": 2.292,
        "duration": 0.208,
        "velocity": 1,
        "hand": "right"
      },
      {
        "midi": 63,
        "time": 2.292,
        "duration": 0.208,
        "velocity": 1,
        "hand": "right"
      },
      {
        "midi": 74,
        "time": 2.292,
        "duration": 0.208,
        "velocity": 1,
        "hand": "right"
      },
      {
        "midi": 55,
        "time": 2.5,
        "duration": 0.417,
        "velocity": 1,
        "hand": "left"
      },
      {
        "midi": 58,
        "time": 2.5,
        "duration": 0.417,
        "velocity": 1,
        "hand": "left"
      },
      {
        "midi": 60,
        "time": 2.5,
        "duration": 0.417,
        "velocity": 1,
        "hand": "right"
      },
      {
        "midi": 63,
        "time": 2.5,
        "duration": 0.417,
        "velocity": 1,
        "hand": "right"
      },
      {
        "midi": 77,
        "time": 2.5,
        "duration": 0.208,
        "velocity": 1,
        "hand": "right"
      },
      {
        "midi": 76,
        "time": 2.708,
        "duration": 0.208,
        "velocity": 1,
        "hand": "right"
      },
      {
        "midi": 55,
        "time": 2.917,
        "duration": 0.417,
        "velocity": 1,
        "hand": "left"
      },
      {
        "midi": 58,
        "time": 2.917,
        "duration": 0.417,
        "velocity": 1,
        "hand": "left"
      },
      {
        "midi": 60,
        "time": 2.917,
        "duration": 0.417,
        "velocity": 1,
        "hand": "right"
      },
      {
        "midi": 63,
        "time": 2.917,
        "duration": 0.417,
        "velocity": 1,
        "hand": "right"
      },
      {
        "midi": 74,
        "time": 2.917,
        "duration": 0.208,
        "velocity": 1,
        "hand": "right"
      },
      {
        "midi": 72,
        "time": 3.125,
        "duration": 0.208,
        "velocity": 1,
        "hand": "right"
      },
      {
        "midi": 53,
        "time": 3.333,
        "duration": 0.833,
        "velocity": 1,
        "hand": "left"
      },
      {
        "midi": 76,
        "time": 3.333,
        "duration": 0.417,
        "velocity": 1,
        "hand": "right"
      },
      {
        "midi": 56,
        "time": 3.75,
        "duration": 0.208,
        "velocity": 1,
        "hand": "left"
      },
      {
        "midi": 58,
        "time": 3.75,
        "duration": 0.208,
        "velocity": 1,
        "hand": "left"
      },
      {
        "midi": 60,
        "time": 3.75,
        "duration": 0.417,
        "velocity": 1,
        "hand": "right"
      },
      {
        "midi": 62,
        "time": 3.75,
        "duration": 0.208,
        "velocity": 1,
        "hand": "right"
      },
      {
        "midi": 56,
        "time": 3.958,
        "duration": 0.208,
        "velocity": 1,
        "hand": "left"
      },
      {
        "midi": 58,
        "time": 3.958,
        "duration": 0.208,
        "velocity": 1,
        "hand": "left"
      },
      {
        "midi": 62,
        "time": 3.958,
        "duration": 0.208,
        "velocity": 1,
        "hand": "right"
      },
      {
        "midi": 56,
        "time": 4.167,
        "duration": 0.417,
        "velocity": 1,
        "hand": "left"
      },
      {
        "midi": 58,
        "time": 4.167,
        "duration": 0.417,
        "velocity": 1,
        "hand": "left"
      },
      {
        "midi": 62,
        "time": 4.167,
        "duration": 0.417,
        "velocity": 1,
        "hand": "right"
      },
      {
        "midi": 76,
        "time": 4.167,
        "duration": 0.833,
        "velocity": 1,
        "hand": "right"
      },
      {
        "midi": 56,
        "time": 4.583,
        "duration": 0.417,
        "velocity": 1,
        "hand": "left"
      },
      {
        "midi": 58,
        "time": 4.583,
        "duration": 0.417,
        "velocity": 1,
        "hand": "left"
      },
      {
        "midi": 60,
        "time": 4.583,
        "duration": 0.417,
        "velocity": 1,
        "hand": "right"
      },
      {
        "midi": 62,
        "time": 4.583,
        "duration": 0.417,
        "velocity": 1,
        "hand": "right"
      },
      {
        "midi": 46,
        "time": 5,
        "duration": 0.833,
        "velocity": 1,
        "hand": "left"
      },
      {
        "midi": 76,
        "time": 5,
        "duration": 0.417,
        "velocity": 1,
        "hand": "right"
      },
      {
        "midi": 56,
        "time": 5.417,
        "duration": 0.208,
        "velocity": 1,
        "hand": "left"
      },
      {
        "midi": 58,
        "time": 5.417,
        "duration": 0.208,
        "velocity": 1,
        "hand": "left"
      },
      {
        "midi": 60,
        "time": 5.417,
        "duration": 0.208,
        "velocity": 1,
        "hand": "right"
      },
      {
        "midi": 62,
        "time": 5.417,
        "duration": 0.208,
        "velocity": 1,
        "hand": "right"
      },
      {
        "midi": 74,
        "time": 5.417,
        "duration": 0.208,
        "velocity": 1,
        "hand": "right"
      },
      {
        "midi": 56,
        "time": 5.625,
        "duration": 0.208,
        "velocity": 1,
        "hand": "left"
      },
      {
        "midi": 58,
        "time": 5.625,
        "duration": 0.208,
        "velocity": 1,
        "hand": "left"
      },
      {
        "midi": 60,
        "time": 5.625,
        "duration": 0.208,
        "velocity": 1,
        "hand": "right"
      },
      {
        "midi": 62,
        "time": 5.625,
        "duration": 0.208,
        "velocity": 1,
        "hand": "right"
      },
      {
        "midi": 76,
        "time": 5.625,
        "duration": 0.208,
        "velocity": 1,
        "hand": "right"
      },
      {
        "midi": 56,
        "time": 5.833,
        "duration": 0.417,
        "velocity": 1,
        "hand": "left"
      },
      {
        "midi": 58,
        "time": 5.833,
        "duration": 0.417,
        "velocity": 1,
        "hand": "left"
      },
      {
        "midi": 60,
        "time": 5.833,
        "duration": 0.417,
        "velocity": 1,
        "hand": "right"
      },
      {
        "midi": 62,
        "time": 5.833,
        "duration": 0.417,
        "velocity": 1,
        "hand": "right"
      },
      {
        "midi": 77,
        "time": 5.833,
        "duration": 0.208,
        "velocity": 1,
        "hand": "right"
      },
      {
        "midi": 76,
        "time": 6.042,
        "duration": 0.208,
        "velocity": 1,
        "hand": "right"
      },
      {
        "midi": 56,
        "time": 6.25,
        "duration": 0.417,
        "velocity": 1,
        "hand": "left"
      },
      {
        "midi": 58,
        "time": 6.25,
        "duration": 0.417,
        "velocity": 1,
        "hand": "left"
      },
      {
        "midi": 60,
        "time": 6.25,
        "duration": 0.417,
        "velocity": 1,
        "hand": "right"
      },
      {
        "midi": 62,
        "time": 6.25,
        "duration": 0.417,
        "velocity": 1,
        "hand": "right"
      },
      {
        "midi": 74,
        "time": 6.25,
        "duration": 0.208,
        "velocity": 1,
        "hand": "right"
      },
      {
        "midi": 76,
        "time": 6.458,
        "duration": 0.208,
        "velocity": 1,
        "hand": "right"
      },
      {
        "midi": 51,
        "time": 6.667,
        "duration": 0.833,
        "velocity": 1,
        "hand": "left"
      },
      {
        "midi": 74,
        "time": 6.667,
        "duration": 0.417,
        "velocity": 1,
        "hand": "right"
      },
      {
        "midi": 55,
        "time": 7.083,
        "duration": 0.208,
        "velocity": 1,
        "hand": "left"
      },
      {
        "midi": 58,
        "time": 7.083,
        "duration": 0.208,
        "velocity": 1,
        "hand": "left"
      },
      {
        "midi": 60,
        "time": 7.083,
        "duration": 0.417,
        "velocity": 1,
        "hand": "right"
      },
      {
        "midi": 63,
        "time": 7.083,
        "duration": 0.208,
        "velocity": 1,
        "hand": "right"
      },
      {
        "midi": 55,
        "time": 7.292,
        "duration": 0.208,
        "velocity": 1,
        "hand": "left"
      },
      {
        "midi": 58,
        "time": 7.292,
        "duration": 0.208,
        "velocity": 1,
        "hand": "left"
      },
      {
        "midi": 63,
        "time": 7.292,
        "duration": 0.208,
        "velocity": 1,
        "hand": "right"
      },
      {
        "midi": 55,
        "time": 7.5,
        "duration": 0.417,
        "velocity": 1,
        "hand": "left"
      },
      {
        "midi": 58,
        "time": 7.5,
        "duration": 0.417,
        "velocity": 1,
        "hand": "left"
      },
      {
        "midi": 63,
        "time": 7.5,
        "duration": 0.417,
        "velocity": 1,
        "hand": "right"
      },
      {
        "midi": 72,
        "time": 7.5,
        "duration": 0.833,
        "velocity": 1,
        "hand": "right"
      },
      {
        "midi": 55,
        "time": 7.917,
        "duration": 0.417,
        "velocity": 1,
        "hand": "left"
      },
      {
        "midi": 58,
        "time": 7.917,
        "duration": 0.417,
        "velocity": 1,
        "hand": "left"
      },
      {
        "midi": 60,
        "time": 7.917,
        "duration": 0.417,
        "velocity": 1,
        "hand": "right"
      },
      {
        "midi": 63,
        "time": 7.917,
        "duration": 0.417,
        "velocity": 1,
        "hand": "right"
      },
      {
        "midi": 46,
        "time": 8.333,
        "duration": 0.833,
        "velocity": 1,
        "hand": "left"
      },
      {
        "midi": 72,
        "time": 8.333,
        "duration": 0.417,
        "velocity": 1,
        "hand": "right"
      },
      {
        "midi": 55,
        "time": 8.75,
        "duration": 0.208,
        "velocity": 1,
        "hand": "left"
      },
      {
        "midi": 58,
        "time": 8.75,
        "duration": 0.208,
        "velocity": 1,
        "hand": "left"
      },
      {
        "midi": 60,
        "time": 8.75,
        "duration": 0.208,
        "velocity": 1,
        "hand": "right"
      },
      {
        "midi": 63,
        "time": 8.75,
        "duration": 0.208,
        "velocity": 1,
        "hand": "right"
      },
      {
        "midi": 72,
        "time": 8.75,
        "duration": 0.208,
        "velocity": 1,
        "hand": "right"
      },
      {
        "midi": 55,
        "time": 8.958,
        "duration": 0.208,
        "velocity": 1,
        "hand": "left"
      },
      {
        "midi": 58,
        "time": 8.958,
        "duration": 0.208,
        "velocity": 1,
        "hand": "left"
      },
      {
        "midi": 60,
        "time": 8.958,
        "duration": 0.208,
        "velocity": 1,
        "hand": "right"
      },
      {
        "midi": 63,
        "time": 8.958,
        "duration": 0.208,
        "velocity": 1,
        "hand": "right"
      },
      {
        "midi": 72,
        "time": 8.958,
        "duration": 0.208,
        "velocity": 1,
        "hand": "right"
      },
      {
        "midi": 55,
        "time": 9.167,
        "duration": 0.417,
        "velocity": 1,
        "hand": "left"
      },
      {
        "midi": 58,
        "time": 9.167,
        "duration": 0.417,
        "velocity": 1,
        "hand": "left"
      },
      {
        "midi": 60,
        "time": 9.167,
        "duration": 0.417,
        "velocity": 1,
        "hand": "right"
      },
      {
        "midi": 63,
        "time": 9.167,
        "duration": 0.417,
        "velocity": 1,
        "hand": "right"
      },
      {
        "midi": 74,
        "time": 9.167,
        "duration": 0.208,
        "velocity": 1,
        "hand": "right"
      },
      {
        "midi": 72,
        "time": 9.375,
        "duration": 0.208,
        "velocity": 1,
        "hand": "right"
      },
      {
        "midi": 55,
        "time": 9.583,
        "duration": 0.417,
        "velocity": 1,
        "hand": "left"
      },
      {
        "midi": 58,
        "time": 9.583,
        "duration": 0.417,
        "velocity": 1,
        "hand": "left"
      },
      {
        "midi": 60,
        "time": 9.583,
        "duration": 0.417,
        "velocity": 1,
        "hand": "right"
      },
      {
        "midi": 63,
        "time": 9.583,
        "duration": 0.417,
        "velocity": 1,
        "hand": "right"
      },
      {
        "midi": 70,
        "time": 9.583,
        "duration": 0.208,
        "velocity": 1,
        "hand": "right"
      },
      {
        "midi": 69,
        "time": 9.792,
        "duration": 0.208,
        "velocity": 1,
        "hand": "right"
      },
      {
        "midi": 53,
        "time": 10,
        "duration": 0.833,
        "velocity": 1,
        "hand": "left"
      },
      {
        "midi": 72,
        "time": 10,
        "duration": 0.417,
        "velocity": 1,
        "hand": "right"
      },
      {
        "midi": 56,
        "time": 10.417,
        "duration": 0.208,
        "velocity": 1,
        "hand": "left"
      },
      {
        "midi": 58,
        "time": 10.417,
        "duration": 0.208,
        "velocity": 1,
        "hand": "left"
      },
      {
        "midi": 60,
        "time": 10.417,
        "duration": 0.417,
        "velocity": 1,
        "hand": "right"
      },
      {
        "midi": 62,
        "time": 10.417,
        "duration": 0.208,
        "velocity": 1,
        "hand": "right"
      },
      {
        "midi": 56,
        "time": 10.625,
        "duration": 0.208,
        "velocity": 1,
        "hand": "left"
      },
      {
        "midi": 58,
        "time": 10.625,
        "duration": 0.208,
        "velocity": 1,
        "hand": "left"
      },
      {
        "midi": 62,
        "time": 10.625,
        "duration": 0.208,
        "velocity": 1,
        "hand": "right"
      },
      {
        "midi": 56,
        "time": 10.833,
        "duration": 0.417,
        "velocity": 1,
        "hand": "left"
      },
      {
        "midi": 58,
        "time": 10.833,
        "duration": 0.417,
        "velocity": 1,
        "hand": "left"
      },
      {
        "midi": 62,
        "time": 10.833,
        "duration": 0.417,
        "velocity": 1,
        "hand": "right"
      },
      {
        "midi": 70,
        "time": 10.833,
        "duration": 0.833,
        "velocity": 1,
        "hand": "right"
      },
      {
        "midi": 56,
        "time": 11.25,
        "duration": 0.417,
        "velocity": 1,
        "hand": "left"
      },
      {
        "midi": 58,
        "time": 11.25,
        "duration": 0.417,
        "velocity": 1,
        "hand": "left"
      },
      {
        "midi": 60,
        "time": 11.25,
        "duration": 0.417,
        "velocity": 1,
        "hand": "right"
      },
      {
        "midi": 62,
        "time": 11.25,
        "duration": 0.417,
        "velocity": 1,
        "hand": "right"
      },
      {
        "midi": 46,
        "time": 11.667,
        "duration": 0.833,
        "velocity": 1,
        "hand": "left"
      },
      {
        "midi": 70,
        "time": 11.667,
        "duration": 0.417,
        "velocity": 1,
        "hand": "right"
      },
      {
        "midi": 56,
        "time": 12.083,
        "duration": 0.208,
        "velocity": 1,
        "hand": "left"
      },
      {
        "midi": 58,
        "time": 12.083,
        "duration": 0.208,
        "velocity": 1,
        "hand": "left"
      },
      {
        "midi": 60,
        "time": 12.083,
        "duration": 0.208,
        "velocity": 1,
        "hand": "right"
      },
      {
        "midi": 62,
        "time": 12.083,
        "duration": 0.208,
        "velocity": 1,
        "hand": "right"
      },
      {
        "midi": 70,
        "time": 12.083,
        "duration": 0.208,
        "velocity": 1,
        "hand": "right"
      },
      {
        "midi": 56,
        "time": 12.292,
        "duration": 0.208,
        "velocity": 1,
        "hand": "left"
      },
      {
        "midi": 58,
        "time": 12.292,
        "duration": 0.208,
        "velocity": 1,
        "hand": "left"
      },
      {
        "midi": 60,
        "time": 12.292,
        "duration": 0.208,
        "velocity": 1,
        "hand": "right"
      },
      {
        "midi": 62,
        "time": 12.292,
        "duration": 0.208,
        "velocity": 1,
        "hand": "right"
      },
      {
        "midi": 70,
        "time": 12.292,
        "duration": 0.208,
        "velocity": 1,
        "hand": "right"
      },
      {
        "midi": 56,
        "time": 12.5,
        "duration": 0.417,
        "velocity": 1,
        "hand": "left"
      },
      {
        "midi": 58,
        "time": 12.5,
        "duration": 0.417,
        "velocity": 1,
        "hand": "left"
      },
      {
        "midi": 60,
        "time": 12.5,
        "duration": 0.417,
        "velocity": 1,
        "hand": "right"
      },
      {
        "midi": 62,
        "time": 12.5,
        "duration": 0.417,
        "velocity": 1,
        "hand": "right"
      },
      {
        "midi": 72,
        "time": 12.5,
        "duration": 0.208,
        "velocity": 1,
        "hand": "right"
      },
      {
        "midi": 70,
        "time": 12.708,
        "duration": 0.208,
        "velocity": 1,
        "hand": "right"
      },
      {
        "midi": 56,
        "time": 12.917,
        "duration": 0.417,
        "velocity": 1,
        "hand": "left"
      },
      {
        "midi": 58,
        "time": 12.917,
        "duration": 0.417,
        "velocity": 1,
        "hand": "left"
      },
      {
        "midi": 60,
        "time": 12.917,
        "duration": 0.417,
        "velocity": 1,
        "hand": "right"
      },
      {
        "midi": 62,
        "time": 12.917,
        "duration": 0.417,
        "velocity": 1,
        "hand": "right"
      },
      {
        "midi": 69,
        "time": 12.917,
        "duration": 0.208,
        "velocity": 1,
        "hand": "right"
      },
      {
        "midi": 67,
        "time": 13.125,
        "duration": 0.208,
        "velocity": 1,
        "hand": "right"
      },
      {
        "midi": 51,
        "time": 13.333,
        "duration": 0.833,
        "velocity": 1,
        "hand": "left"
      },
      {
        "midi": 69,
        "time": 13.333,
        "duration": 0.417,
        "velocity": 1,
        "hand": "right"
      },
      {
        "midi": 55,
        "time": 13.75,
        "duration": 0.208,
        "velocity": 1,
        "hand": "left"
      },
      {
        "midi": 58,
        "time": 13.75,
        "duration": 0.208,
        "velocity": 1,
        "hand": "left"
      },
      {
        "midi": 60,
        "time": 13.75,
        "duration": 0.417,
        "velocity": 1,
        "hand": "right"
      },
      {
        "midi": 55,
        "time": 13.958,
        "duration": 0.208,
        "velocity": 1,
        "hand": "left"
      },
      {
        "midi": 58,
        "time": 13.958,
        "duration": 0.208,
        "velocity": 1,
        "hand": "left"
      },
      {
        "midi": 55,
        "time": 14.167,
        "duration": 0.417,
        "velocity": 1,
        "hand": "left"
      },
      {
        "midi": 58,
        "time": 14.167,
        "duration": 0.417,
        "velocity": 1,
        "hand": "left"
      },
      {
        "midi": 65,
        "time": 14.167,
        "duration": 0.833,
        "velocity": 1,
        "hand": "right"
      },
      {
        "midi": 55,
        "time": 14.583,
        "duration": 0.417,
        "velocity": 1,
        "hand": "left"
      },
      {
        "midi": 58,
        "time": 14.583,
        "duration": 0.417,
        "velocity": 1,
        "hand": "left"
      },
      {
        "midi": 60,
        "time": 14.583,
        "duration": 0.417,
        "velocity": 1,
        "hand": "right"
      },
      {
        "midi": 46,
        "time": 15,
        "duration": 0.833,
        "velocity": 1,
        "hand": "left"
      },
      {
        "midi": 65,
        "time": 15,
        "duration": 1.667,
        "velocity": 1,
        "hand": "right"
      },
      {
        "midi": 55,
        "time": 15.417,
        "duration": 0.208,
        "velocity": 1,
        "hand": "left"
      },
      {
        "midi": 58,
        "time": 15.417,
        "duration": 0.208,
        "velocity": 1,
        "hand": "left"
      },
      {
        "midi": 60,
        "time": 15.417,
        "duration": 0.208,
        "velocity": 1,
        "hand": "right"
      },
      {
        "midi": 55,
        "time": 15.625,
        "duration": 0.208,
        "velocity": 1,
        "hand": "left"
      },
      {
        "midi": 58,
        "time": 15.625,
        "duration": 0.208,
        "velocity": 1,
        "hand": "left"
      },
      {
        "midi": 60,
        "time": 15.625,
        "duration": 0.208,
        "velocity": 1,
        "hand": "right"
      },
      {
        "midi": 55,
        "time": 15.833,
        "duration": 0.417,
        "velocity": 1,
        "hand": "left"
      },
      {
        "midi": 58,
        "time": 15.833,
        "duration": 0.417,
        "velocity": 1,
        "hand": "left"
      },
      {
        "midi": 60,
        "time": 15.833,
        "duration": 0.417,
        "velocity": 1,
        "hand": "right"
      },
      {
        "midi": 55,
        "time": 16.25,
        "duration": 0.417,
        "velocity": 1,
        "hand": "left"
      },
      {
        "midi": 58,
        "time": 16.25,
        "duration": 0.417,
        "velocity": 1,
        "hand": "left"
      },
      {
        "midi": 60,
        "time": 16.25,
        "duration": 0.417,
        "velocity": 1,
        "hand": "right"
      },
      {
        "midi": 51,
        "time": 16.667,
        "duration": 0.833,
        "velocity": 1,
        "hand": "left"
      },
      {
        "midi": 65,
        "time": 16.667,
        "duration": 0.417,
        "velocity": 1,
        "hand": "right"
      },
      {
        "midi": 55,
        "time": 17.083,
        "duration": 0.208,
        "velocity": 1,
        "hand": "left"
      },
      {
        "midi": 58,
        "time": 17.083,
        "duration": 0.208,
        "velocity": 1,
        "hand": "left"
      },
      {
        "midi": 60,
        "time": 17.083,
        "duration": 0.208,
        "velocity": 1,
        "hand": "right"
      },
      {
        "midi": 63,
        "time": 17.083,
        "duration": 0.208,
        "velocity": 1,
        "hand": "right"
      },
      {
        "midi": 55,
        "time": 17.292,
        "duration": 0.208,
        "velocity": 1,
        "hand": "left"
      },
      {
        "midi": 58,
        "time": 17.292,
        "duration": 0.208,
        "velocity": 1,
        "hand": "left"
      },
      {
        "midi": 60,
        "time": 17.292,
        "duration": 0.208,
        "velocity": 1,
        "hand": "right"
      },
      {
        "midi": 63,
        "time": 17.292,
        "duration": 0.208,
        "velocity": 1,
        "hand": "right"
      },
      {
        "midi": 55,
        "time": 17.5,
        "duration": 0.417,
        "velocity": 1,
        "hand": "left"
      },
      {
        "midi": 58,
        "time": 17.5,
        "duration": 0.417,
        "velocity": 1,
        "hand": "left"
      },
      {
        "midi": 60,
        "time": 17.5,
        "duration": 0.417,
        "velocity": 1,
        "hand": "right"
      },
      {
        "midi": 63,
        "time": 17.5,
        "duration": 0.417,
        "velocity": 1,
        "hand": "right"
      },
      {
        "midi": 55,
        "time": 17.917,
        "duration": 0.417,
        "velocity": 1,
        "hand": "left"
      },
      {
        "midi": 58,
        "time": 17.917,
        "duration": 0.417,
        "velocity": 1,
        "hand": "left"
      },
      {
        "midi": 60,
        "time": 17.917,
        "duration": 0.417,
        "velocity": 1,
        "hand": "right"
      },
      {
        "midi": 63,
        "time": 17.917,
        "duration": 0.417,
        "velocity": 1,
        "hand": "right"
      },
      {
        "midi": 46,
        "time": 18.333,
        "duration": 0.833,
        "velocity": 1,
        "hand": "left"
      },
      {
        "midi": 55,
        "time": 18.75,
        "duration": 0.208,
        "velocity": 1,
        "hand": "left"
      },
      {
        "midi": 58,
        "time": 18.75,
        "duration": 0.208,
        "velocity": 1,
        "hand": "left"
      },
      {
        "midi": 60,
        "time": 18.75,
        "duration": 0.208,
        "velocity": 1,
        "hand": "right"
      },
      {
        "midi": 63,
        "time": 18.75,
        "duration": 0.208,
        "velocity": 1,
        "hand": "right"
      },
      {
        "midi": 72,
        "time": 18.75,
        "duration": 0.208,
        "velocity": 1,
        "hand": "right"
      },
      {
        "midi": 55,
        "time": 18.958,
        "duration": 0.208,
        "velocity": 1,
        "hand": "left"
      },
      {
        "midi": 58,
        "time": 18.958,
        "duration": 0.208,
        "velocity": 1,
        "hand": "left"
      },
      {
        "midi": 60,
        "time": 18.958,
        "duration": 0.208,
        "velocity": 1,
        "hand": "right"
      },
      {
        "midi": 63,
        "time": 18.958,
        "duration": 0.208,
        "velocity": 1,
        "hand": "right"
      },
      {
        "midi": 74,
        "time": 18.958,
        "duration": 0.208,
        "velocity": 1,
        "hand": "right"
      },
      {
        "midi": 55,
        "time": 19.167,
        "duration": 0.417,
        "velocity": 1,
        "hand": "left"
      },
      {
        "midi": 58,
        "time": 19.167,
        "duration": 0.417,
        "velocity": 1,
        "hand": "left"
      },
      {
        "midi": 60,
        "time": 19.167,
        "duration": 0.417,
        "velocity": 1,
        "hand": "right"
      },
      {
        "midi": 63,
        "time": 19.167,
        "duration": 0.417,
        "velocity": 1,
        "hand": "right"
      },
      {
        "midi": 77,
        "time": 19.167,
        "duration": 0.208,
        "velocity": 1,
        "hand": "right"
      },
      {
        "midi": 76,
        "time": 19.375,
        "duration": 0.208,
        "velocity": 1,
        "hand": "right"
      },
      {
        "midi": 55,
        "time": 19.583,
        "duration": 0.417,
        "velocity": 1,
        "hand": "left"
      },
      {
        "midi": 58,
        "time": 19.583,
        "duration": 0.417,
        "velocity": 1,
        "hand": "left"
      },
      {
        "midi": 60,
        "time": 19.583,
        "duration": 0.417,
        "velocity": 1,
        "hand": "right"
      },
      {
        "midi": 63,
        "time": 19.583,
        "duration": 0.417,
        "velocity": 1,
        "hand": "right"
      },
      {
        "midi": 74,
        "time": 19.583,
        "duration": 0.208,
        "velocity": 1,
        "hand": "right"
      },
      {
        "midi": 72,
        "time": 19.792,
        "duration": 0.208,
        "velocity": 1,
        "hand": "right"
      },
      {
        "midi": 53,
        "time": 20,
        "duration": 0.833,
        "velocity": 1,
        "hand": "left"
      },
      {
        "midi": 76,
        "time": 20,
        "duration": 0.417,
        "velocity": 1,
        "hand": "right"
      },
      {
        "midi": 56,
        "time": 20.417,
        "duration": 0.208,
        "velocity": 1,
        "hand": "left"
      },
      {
        "midi": 58,
        "time": 20.417,
        "duration": 0.208,
        "velocity": 1,
        "hand": "left"
      },
      {
        "midi": 60,
        "time": 20.417,
        "duration": 0.417,
        "velocity": 1,
        "hand": "right"
      },
      {
        "midi": 62,
        "time": 20.417,
        "duration": 0.208,
        "velocity": 1,
        "hand": "right"
      },
      {
        "midi": 56,
        "time": 20.625,
        "duration": 0.208,
        "velocity": 1,
        "hand": "left"
      },
      {
        "midi": 58,
        "time": 20.625,
        "duration": 0.208,
        "velocity": 1,
        "hand": "left"
      },
      {
        "midi": 62,
        "time": 20.625,
        "duration": 0.208,
        "velocity": 1,
        "hand": "right"
      },
      {
        "midi": 56,
        "time": 20.833,
        "duration": 0.417,
        "velocity": 1,
        "hand": "left"
      },
      {
        "midi": 58,
        "time": 20.833,
        "duration": 0.417,
        "velocity": 1,
        "hand": "left"
      },
      {
        "midi": 62,
        "time": 20.833,
        "duration": 0.417,
        "velocity": 1,
        "hand": "right"
      },
      {
        "midi": 76,
        "time": 20.833,
        "duration": 0.833,
        "velocity": 1,
        "hand": "right"
      },
      {
        "midi": 56,
        "time": 21.25,
        "duration": 0.417,
        "velocity": 1,
        "hand": "left"
      },
      {
        "midi": 58,
        "time": 21.25,
        "duration": 0.417,
        "velocity": 1,
        "hand": "left"
      },
      {
        "midi": 60,
        "time": 21.25,
        "duration": 0.417,
        "velocity": 1,
        "hand": "right"
      },
      {
        "midi": 62,
        "time": 21.25,
        "duration": 0.417,
        "velocity": 1,
        "hand": "right"
      },
      {
        "midi": 46,
        "time": 21.667,
        "duration": 0.833,
        "velocity": 1,
        "hand": "left"
      },
      {
        "midi": 76,
        "time": 21.667,
        "duration": 0.417,
        "velocity": 1,
        "hand": "right"
      },
      {
        "midi": 56,
        "time": 22.083,
        "duration": 0.208,
        "velocity": 1,
        "hand": "left"
      },
      {
        "midi": 58,
        "time": 22.083,
        "duration": 0.208,
        "velocity": 1,
        "hand": "left"
      },
      {
        "midi": 60,
        "time": 22.083,
        "duration": 0.208,
        "velocity": 1,
        "hand": "right"
      },
      {
        "midi": 62,
        "time": 22.083,
        "duration": 0.208,
        "velocity": 1,
        "hand": "right"
      },
      {
        "midi": 74,
        "time": 22.083,
        "duration": 0.208,
        "velocity": 1,
        "hand": "right"
      },
      {
        "midi": 56,
        "time": 22.292,
        "duration": 0.208,
        "velocity": 1,
        "hand": "left"
      },
      {
        "midi": 58,
        "time": 22.292,
        "duration": 0.208,
        "velocity": 1,
        "hand": "left"
      },
      {
        "midi": 60,
        "time": 22.292,
        "duration": 0.208,
        "velocity": 1,
        "hand": "right"
      },
      {
        "midi": 62,
        "time": 22.292,
        "duration": 0.208,
        "velocity": 1,
        "hand": "right"
      },
      {
        "midi": 76,
        "time": 22.292,
        "duration": 0.208,
        "velocity": 1,
        "hand": "right"
      },
      {
        "midi": 56,
        "time": 22.5,
        "duration": 0.417,
        "velocity": 1,
        "hand": "left"
      },
      {
        "midi": 58,
        "time": 22.5,
        "duration": 0.417,
        "velocity": 1,
        "hand": "left"
      },
      {
        "midi": 60,
        "time": 22.5,
        "duration": 0.417,
        "velocity": 1,
        "hand": "right"
      },
      {
        "midi": 62,
        "time": 22.5,
        "duration": 0.417,
        "velocity": 1,
        "hand": "right"
      },
      {
        "midi": 77,
        "time": 22.5,
        "duration": 0.208,
        "velocity": 1,
        "hand": "right"
      },
      {
        "midi": 76,
        "time": 22.708,
        "duration": 0.208,
        "velocity": 1,
        "hand": "right"
      },
      {
        "midi": 56,
        "time": 22.917,
        "duration": 0.417,
        "velocity": 1,
        "hand": "left"
      },
      {
        "midi": 58,
        "time": 22.917,
        "duration": 0.417,
        "velocity": 1,
        "hand": "left"
      },
      {
        "midi": 60,
        "time": 22.917,
        "duration": 0.417,
        "velocity": 1,
        "hand": "right"
      },
      {
        "midi": 62,
        "time": 22.917,
        "duration": 0.417,
        "velocity": 1,
        "hand": "right"
      },
      {
        "midi": 74,
        "time": 22.917,
        "duration": 0.208,
        "velocity": 1,
        "hand": "right"
      },
      {
        "midi": 76,
        "time": 23.125,
        "duration": 0.208,
        "velocity": 1,
        "hand": "right"
      },
      {
        "midi": 51,
        "time": 23.333,
        "duration": 0.833,
        "velocity": 1,
        "hand": "left"
      },
      {
        "midi": 74,
        "time": 23.333,
        "duration": 0.417,
        "velocity": 1,
        "hand": "right"
      },
      {
        "midi": 55,
        "time": 23.75,
        "duration": 0.208,
        "velocity": 1,
        "hand": "left"
      },
      {
        "midi": 58,
        "time": 23.75,
        "duration": 0.208,
        "velocity": 1,
        "hand": "left"
      },
      {
        "midi": 60,
        "time": 23.75,
        "duration": 0.417,
        "velocity": 1,
        "hand": "right"
      },
      {
        "midi": 63,
        "time": 23.75,
        "duration": 0.208,
        "velocity": 1,
        "hand": "right"
      },
      {
        "midi": 55,
        "time": 23.958,
        "duration": 0.208,
        "velocity": 1,
        "hand": "left"
      },
      {
        "midi": 58,
        "time": 23.958,
        "duration": 0.208,
        "velocity": 1,
        "hand": "left"
      },
      {
        "midi": 63,
        "time": 23.958,
        "duration": 0.208,
        "velocity": 1,
        "hand": "right"
      },
      {
        "midi": 55,
        "time": 24.167,
        "duration": 0.417,
        "velocity": 1,
        "hand": "left"
      },
      {
        "midi": 58,
        "time": 24.167,
        "duration": 0.417,
        "velocity": 1,
        "hand": "left"
      },
      {
        "midi": 63,
        "time": 24.167,
        "duration": 0.417,
        "velocity": 1,
        "hand": "right"
      },
      {
        "midi": 72,
        "time": 24.167,
        "duration": 0.833,
        "velocity": 1,
        "hand": "right"
      },
      {
        "midi": 55,
        "time": 24.583,
        "duration": 0.417,
        "velocity": 1,
        "hand": "left"
      },
      {
        "midi": 58,
        "time": 24.583,
        "duration": 0.417,
        "velocity": 1,
        "hand": "left"
      },
      {
        "midi": 60,
        "time": 24.583,
        "duration": 0.417,
        "velocity": 1,
        "hand": "right"
      },
      {
        "midi": 63,
        "time": 24.583,
        "duration": 0.417,
        "velocity": 1,
        "hand": "right"
      },
      {
        "midi": 46,
        "time": 25,
        "duration": 0.833,
        "velocity": 1,
        "hand": "left"
      },
      {
        "midi": 72,
        "time": 25,
        "duration": 0.417,
        "velocity": 1,
        "hand": "right"
      },
      {
        "midi": 55,
        "time": 25.417,
        "duration": 0.208,
        "velocity": 1,
        "hand": "left"
      },
      {
        "midi": 58,
        "time": 25.417,
        "duration": 0.208,
        "velocity": 1,
        "hand": "left"
      },
      {
        "midi": 60,
        "time": 25.417,
        "duration": 0.208,
        "velocity": 1,
        "hand": "right"
      },
      {
        "midi": 63,
        "time": 25.417,
        "duration": 0.208,
        "velocity": 1,
        "hand": "right"
      },
      {
        "midi": 72,
        "time": 25.417,
        "duration": 0.208,
        "velocity": 1,
        "hand": "right"
      },
      {
        "midi": 55,
        "time": 25.625,
        "duration": 0.208,
        "velocity": 1,
        "hand": "left"
      },
      {
        "midi": 58,
        "time": 25.625,
        "duration": 0.208,
        "velocity": 1,
        "hand": "left"
      },
      {
        "midi": 60,
        "time": 25.625,
        "duration": 0.208,
        "velocity": 1,
        "hand": "right"
      },
      {
        "midi": 63,
        "time": 25.625,
        "duration": 0.208,
        "velocity": 1,
        "hand": "right"
      },
      {
        "midi": 72,
        "time": 25.625,
        "duration": 0.208,
        "velocity": 1,
        "hand": "right"
      },
      {
        "midi": 55,
        "time": 25.833,
        "duration": 0.417,
        "velocity": 1,
        "hand": "left"
      },
      {
        "midi": 58,
        "time": 25.833,
        "duration": 0.417,
        "velocity": 1,
        "hand": "left"
      },
      {
        "midi": 60,
        "time": 25.833,
        "duration": 0.417,
        "velocity": 1,
        "hand": "right"
      },
      {
        "midi": 63,
        "time": 25.833,
        "duration": 0.417,
        "velocity": 1,
        "hand": "right"
      },
      {
        "midi": 74,
        "time": 25.833,
        "duration": 0.208,
        "velocity": 1,
        "hand": "right"
      },
      {
        "midi": 72,
        "time": 26.042,
        "duration": 0.208,
        "velocity": 1,
        "hand": "right"
      },
      {
        "midi": 55,
        "time": 26.25,
        "duration": 0.417,
        "velocity": 1,
        "hand": "left"
      },
      {
        "midi": 58,
        "time": 26.25,
        "duration": 0.417,
        "velocity": 1,
        "hand": "left"
      },
      {
        "midi": 60,
        "time": 26.25,
        "duration": 0.417,
        "velocity": 1,
        "hand": "right"
      },
      {
        "midi": 63,
        "time": 26.25,
        "duration": 0.417,
        "velocity": 1,
        "hand": "right"
      },
      {
        "midi": 70,
        "time": 26.25,
        "duration": 0.208,
        "velocity": 1,
        "hand": "right"
      },
      {
        "midi": 69,
        "time": 26.458,
        "duration": 0.208,
        "velocity": 1,
        "hand": "right"
      },
      {
        "midi": 53,
        "time": 26.667,
        "duration": 0.833,
        "velocity": 1,
        "hand": "left"
      },
      {
        "midi": 72,
        "time": 26.667,
        "duration": 0.417,
        "velocity": 1,
        "hand": "right"
      },
      {
        "midi": 56,
        "time": 27.083,
        "duration": 0.208,
        "velocity": 1,
        "hand": "left"
      },
      {
        "midi": 58,
        "time": 27.083,
        "duration": 0.208,
        "velocity": 1,
        "hand": "left"
      },
      {
        "midi": 60,
        "time": 27.083,
        "duration": 0.417,
        "velocity": 1,
        "hand": "right"
      },
      {
        "midi": 62,
        "time": 27.083,
        "duration": 0.208,
        "velocity": 1,
        "hand": "right"
      },
      {
        "midi": 56,
        "time": 27.292,
        "duration": 0.208,
        "velocity": 1,
        "hand": "left"
      },
      {
        "midi": 58,
        "time": 27.292,
        "duration": 0.208,
        "velocity": 1,
        "hand": "left"
      },
      {
        "midi": 62,
        "time": 27.292,
        "duration": 0.208,
        "velocity": 1,
        "hand": "right"
      },
      {
        "midi": 56,
        "time": 27.5,
        "duration": 0.417,
        "velocity": 1,
        "hand": "left"
      },
      {
        "midi": 58,
        "time": 27.5,
        "duration": 0.417,
        "velocity": 1,
        "hand": "left"
      },
      {
        "midi": 62,
        "time": 27.5,
        "duration": 0.417,
        "velocity": 1,
        "hand": "right"
      },
      {
        "midi": 70,
        "time": 27.5,
        "duration": 0.833,
        "velocity": 1,
        "hand": "right"
      },
      {
        "midi": 56,
        "time": 27.917,
        "duration": 0.417,
        "velocity": 1,
        "hand": "left"
      },
      {
        "midi": 58,
        "time": 27.917,
        "duration": 0.417,
        "velocity": 1,
        "hand": "left"
      },
      {
        "midi": 60,
        "time": 27.917,
        "duration": 0.417,
        "velocity": 1,
        "hand": "right"
      },
      {
        "midi": 62,
        "time": 27.917,
        "duration": 0.417,
        "velocity": 1,
        "hand": "right"
      },
      {
        "midi": 46,
        "time": 28.333,
        "duration": 0.833,
        "velocity": 1,
        "hand": "left"
      },
      {
        "midi": 70,
        "time": 28.333,
        "duration": 0.417,
        "velocity": 1,
        "hand": "right"
      },
      {
        "midi": 56,
        "time": 28.75,
        "duration": 0.208,
        "velocity": 1,
        "hand": "left"
      },
      {
        "midi": 58,
        "time": 28.75,
        "duration": 0.208,
        "velocity": 1,
        "hand": "left"
      },
      {
        "midi": 60,
        "time": 28.75,
        "duration": 0.208,
        "velocity": 1,
        "hand": "right"
      },
      {
        "midi": 62,
        "time": 28.75,
        "duration": 0.208,
        "velocity": 1,
        "hand": "right"
      },
      {
        "midi": 70,
        "time": 28.75,
        "duration": 0.208,
        "velocity": 1,
        "hand": "right"
      },
      {
        "midi": 56,
        "time": 28.958,
        "duration": 0.208,
        "velocity": 1,
        "hand": "left"
      },
      {
        "midi": 58,
        "time": 28.958,
        "duration": 0.208,
        "velocity": 1,
        "hand": "left"
      },
      {
        "midi": 60,
        "time": 28.958,
        "duration": 0.208,
        "velocity": 1,
        "hand": "right"
      },
      {
        "midi": 62,
        "time": 28.958,
        "duration": 0.208,
        "velocity": 1,
        "hand": "right"
      },
      {
        "midi": 70,
        "time": 28.958,
        "duration": 0.208,
        "velocity": 1,
        "hand": "right"
      },
      {
        "midi": 56,
        "time": 29.167,
        "duration": 0.417,
        "velocity": 1,
        "hand": "left"
      },
      {
        "midi": 58,
        "time": 29.167,
        "duration": 0.417,
        "velocity": 1,
        "hand": "left"
      },
      {
        "midi": 60,
        "time": 29.167,
        "duration": 0.417,
        "velocity": 1,
        "hand": "right"
      },
      {
        "midi": 62,
        "time": 29.167,
        "duration": 0.417,
        "velocity": 1,
        "hand": "right"
      },
      {
        "midi": 72,
        "time": 29.167,
        "duration": 0.208,
        "velocity": 1,
        "hand": "right"
      },
      {
        "midi": 70,
        "time": 29.375,
        "duration": 0.208,
        "velocity": 1,
        "hand": "right"
      },
      {
        "midi": 56,
        "time": 29.583,
        "duration": 0.417,
        "velocity": 1,
        "hand": "left"
      },
      {
        "midi": 58,
        "time": 29.583,
        "duration": 0.417,
        "velocity": 1,
        "hand": "left"
      },
      {
        "midi": 60,
        "time": 29.583,
        "duration": 0.417,
        "velocity": 1,
        "hand": "right"
      },
      {
        "midi": 62,
        "time": 29.583,
        "duration": 0.417,
        "velocity": 1,
        "hand": "right"
      },
      {
        "midi": 69,
        "time": 29.583,
        "duration": 0.208,
        "velocity": 1,
        "hand": "right"
      },
      {
        "midi": 67,
        "time": 29.792,
        "duration": 0.208,
        "velocity": 1,
        "hand": "right"
      },
      {
        "midi": 51,
        "time": 30,
        "duration": 0.833,
        "velocity": 1,
        "hand": "left"
      },
      {
        "midi": 60,
        "time": 30,
        "duration": 0.833,
        "velocity": 1,
        "hand": "right"
      },
      {
        "midi": 65,
        "time": 30,
        "duration": 1.667,
        "velocity": 1,
        "hand": "right"
      },
      {
        "midi": 55,
        "time": 30.417,
        "duration": 0.208,
        "velocity": 1,
        "hand": "left"
      },
      {
        "midi": 58,
        "time": 30.417,
        "duration": 0.208,
        "velocity": 1,
        "hand": "left"
      },
      {
        "midi": 55,
        "time": 30.625,
        "duration": 0.208,
        "velocity": 1,
        "hand": "left"
      },
      {
        "midi": 58,
        "time": 30.625,
        "duration": 0.208,
        "velocity": 1,
        "hand": "left"
      },
      {
        "midi": 55,
        "time": 30.833,
        "duration": 0.417,
        "velocity": 1,
        "hand": "left"
      },
      {
        "midi": 58,
        "time": 30.833,
        "duration": 0.417,
        "velocity": 1,
        "hand": "left"
      },
      {
        "midi": 55,
        "time": 31.25,
        "duration": 0.417,
        "velocity": 1,
        "hand": "left"
      },
      {
        "midi": 58,
        "time": 31.25,
        "duration": 0.417,
        "velocity": 1,
        "hand": "left"
      },
      {
        "midi": 55,
        "time": 31.667,
        "duration": 0.833,
        "velocity": 1,
        "hand": "left"
      },
      {
        "midi": 58,
        "time": 31.667,
        "duration": 0.833,
        "velocity": 1,
        "hand": "left"
      },
      {
        "midi": 65,
        "time": 31.667,
        "duration": 0.833,
        "velocity": 1,
        "hand": "right"
      },
      {
        "midi": 65,
        "time": 32.5,
        "duration": 0.625,
        "velocity": 1,
        "hand": "right"
      },
      {
        "midi": 65,
        "time": 33.125,
        "duration": 0.208,
        "velocity": 1,
        "hand": "right"
      },
      {
        "midi": 56,
        "time": 33.333,
        "duration": 0.833,
        "velocity": 1,
        "hand": "left"
      },
      {
        "midi": 74,
        "time": 33.333,
        "duration": 0.417,
        "velocity": 1,
        "hand": "right"
      },
      {
        "midi": 60,
        "time": 33.75,
        "duration": 0.417,
        "velocity": 1,
        "hand": "right"
      },
      {
        "midi": 60,
        "time": 33.75,
        "duration": 0.208,
        "velocity": 1,
        "hand": "right"
      },
      {
        "midi": 63,
        "time": 33.75,
        "duration": 0.208,
        "velocity": 1,
        "hand": "right"
      },
      {
        "midi": 60,
        "time": 33.958,
        "duration": 0.208,
        "velocity": 1,
        "hand": "right"
      },
      {
        "midi": 63,
        "time": 33.958,
        "duration": 0.208,
        "velocity": 1,
        "hand": "right"
      },
      {
        "midi": 60,
        "time": 34.167,
        "duration": 0.417,
        "velocity": 1,
        "hand": "right"
      },
      {
        "midi": 63,
        "time": 34.167,
        "duration": 0.417,
        "velocity": 1,
        "hand": "right"
      },
      {
        "midi": 74,
        "time": 34.167,
        "duration": 0.833,
        "velocity": 1,
        "hand": "right"
      },
      {
        "midi": 60,
        "time": 34.583,
        "duration": 0.417,
        "velocity": 1,
        "hand": "right"
      },
      {
        "midi": 63,
        "time": 34.583,
        "duration": 0.417,
        "velocity": 1,
        "hand": "right"
      },
      {
        "midi": 56,
        "time": 35,
        "duration": 0.833,
        "velocity": 1,
        "hand": "left"
      },
      {
        "midi": 60,
        "time": 35,
        "duration": 0.833,
        "velocity": 1,
        "hand": "right"
      },
      {
        "midi": 74,
        "time": 35,
        "duration": 0.417,
        "velocity": 1,
        "hand": "right"
      },
      {
        "midi": 60,
        "time": 35.417,
        "duration": 0.208,
        "velocity": 1,
        "hand": "right"
      },
      {
        "midi": 63,
        "time": 35.417,
        "duration": 0.208,
        "velocity": 1,
        "hand": "right"
      },
      {
        "midi": 76,
        "time": 35.417,
        "duration": 0.208,
        "velocity": 1,
        "hand": "right"
      },
      {
        "midi": 60,
        "time": 35.625,
        "duration": 0.208,
        "velocity": 1,
        "hand": "right"
      },
      {
        "midi": 63,
        "time": 35.625,
        "duration": 0.208,
        "velocity": 1,
        "hand": "right"
      },
      {
        "midi": 77,
        "time": 35.625,
        "duration": 0.208,
        "velocity": 1,
        "hand": "right"
      },
      {
        "midi": 60,
        "time": 35.833,
        "duration": 0.417,
        "velocity": 1,
        "hand": "right"
      },
      {
        "midi": 63,
        "time": 35.833,
        "duration": 0.417,
        "velocity": 1,
        "hand": "right"
      },
      {
        "midi": 79,
        "time": 35.833,
        "duration": 0.208,
        "velocity": 1,
        "hand": "right"
      },
      {
        "midi": 77,
        "time": 36.042,
        "duration": 0.208,
        "velocity": 1,
        "hand": "right"
      },
      {
        "midi": 60,
        "time": 36.25,
        "duration": 0.417,
        "velocity": 1,
        "hand": "right"
      },
      {
        "midi": 63,
        "time": 36.25,
        "duration": 0.417,
        "velocity": 1,
        "hand": "right"
      },
      {
        "midi": 76,
        "time": 36.25,
        "duration": 0.208,
        "velocity": 1,
        "hand": "right"
      },
      {
        "midi": 74,
        "time": 36.458,
        "duration": 0.208,
        "velocity": 1,
        "hand": "right"
      },
      {
        "midi": 51,
        "time": 36.667,
        "duration": 0.833,
        "velocity": 1,
        "hand": "left"
      },
      {
        "midi": 74,
        "time": 36.667,
        "duration": 0.417,
        "velocity": 1,
        "hand": "right"
      },
      {
        "midi": 55,
        "time": 37.083,
        "duration": 0.208,
        "velocity": 1,
        "hand": "left"
      },
      {
        "midi": 58,
        "time": 37.083,
        "duration": 0.208,
        "velocity": 1,
        "hand": "left"
      },
      {
        "midi": 60,
        "time": 37.083,
        "duration": 0.417,
        "velocity": 1,
        "hand": "right"
      },
      {
        "midi": 63,
        "time": 37.083,
        "duration": 0.208,
        "velocity": 1,
        "hand": "right"
      },
      {
        "midi": 55,
        "time": 37.292,
        "duration": 0.208,
        "velocity": 1,
        "hand": "left"
      },
      {
        "midi": 58,
        "time": 37.292,
        "duration": 0.208,
        "velocity": 1,
        "hand": "left"
      },
      {
        "midi": 63,
        "time": 37.292,
        "duration": 0.208,
        "velocity": 1,
        "hand": "right"
      },
      {
        "midi": 55,
        "time": 37.5,
        "duration": 0.417,
        "velocity": 1,
        "hand": "left"
      },
      {
        "midi": 58,
        "time": 37.5,
        "duration": 0.417,
        "velocity": 1,
        "hand": "left"
      },
      {
        "midi": 63,
        "time": 37.5,
        "duration": 0.417,
        "velocity": 1,
        "hand": "right"
      },
      {
        "midi": 72,
        "time": 37.5,
        "duration": 0.833,
        "velocity": 1,
        "hand": "right"
      },
      {
        "midi": 55,
        "time": 37.917,
        "duration": 0.417,
        "velocity": 1,
        "hand": "left"
      },
      {
        "midi": 58,
        "time": 37.917,
        "duration": 0.417,
        "velocity": 1,
        "hand": "left"
      },
      {
        "midi": 60,
        "time": 37.917,
        "duration": 0.417,
        "velocity": 1,
        "hand": "right"
      },
      {
        "midi": 63,
        "time": 37.917,
        "duration": 0.417,
        "velocity": 1,
        "hand": "right"
      },
      {
        "midi": 51,
        "time": 38.333,
        "duration": 0.833,
        "velocity": 1,
        "hand": "left"
      },
      {
        "midi": 60,
        "time": 38.333,
        "duration": 0.833,
        "velocity": 1,
        "hand": "right"
      },
      {
        "midi": 72,
        "time": 38.333,
        "duration": 0.417,
        "velocity": 1,
        "hand": "right"
      },
      {
        "midi": 55,
        "time": 38.75,
        "duration": 0.208,
        "velocity": 1,
        "hand": "left"
      },
      {
        "midi": 58,
        "time": 38.75,
        "duration": 0.208,
        "velocity": 1,
        "hand": "left"
      },
      {
        "midi": 63,
        "time": 38.75,
        "duration": 0.208,
        "velocity": 1,
        "hand": "right"
      },
      {
        "midi": 71,
        "time": 38.75,
        "duration": 0.208,
        "velocity": 1,
        "hand": "right"
      },
      {
        "midi": 55,
        "time": 38.958,
        "duration": 0.208,
        "velocity": 1,
        "hand": "left"
      },
      {
        "midi": 58,
        "time": 38.958,
        "duration": 0.208,
        "velocity": 1,
        "hand": "left"
      },
      {
        "midi": 63,
        "time": 38.958,
        "duration": 0.208,
        "velocity": 1,
        "hand": "right"
      },
      {
        "midi": 72,
        "time": 38.958,
        "duration": 0.208,
        "velocity": 1,
        "hand": "right"
      },
      {
        "midi": 55,
        "time": 39.167,
        "duration": 0.417,
        "velocity": 1,
        "hand": "left"
      },
      {
        "midi": 58,
        "time": 39.167,
        "duration": 0.417,
        "velocity": 1,
        "hand": "left"
      },
      {
        "midi": 63,
        "time": 39.167,
        "duration": 0.417,
        "velocity": 1,
        "hand": "right"
      },
      {
        "midi": 71,
        "time": 39.167,
        "duration": 0.208,
        "velocity": 1,
        "hand": "right"
      },
      {
        "midi": 72,
        "time": 39.375,
        "duration": 0.208,
        "velocity": 1,
        "hand": "right"
      },
      {
        "midi": 55,
        "time": 39.583,
        "duration": 0.417,
        "velocity": 1,
        "hand": "left"
      },
      {
        "midi": 58,
        "time": 39.583,
        "duration": 0.417,
        "velocity": 1,
        "hand": "left"
      },
      {
        "midi": 63,
        "time": 39.583,
        "duration": 0.417,
        "velocity": 1,
        "hand": "right"
      },
      {
        "midi": 76,
        "time": 39.583,
        "duration": 0.208,
        "velocity": 1,
        "hand": "right"
      },
      {
        "midi": 74,
        "time": 39.792,
        "duration": 0.208,
        "velocity": 1,
        "hand": "right"
      },
      {
        "midi": 46,
        "time": 40,
        "duration": 0.833,
        "velocity": 1,
        "hand": "left"
      },
      {
        "midi": 72,
        "time": 40,
        "duration": 0.417,
        "velocity": 1,
        "hand": "right"
      },
      {
        "midi": 53,
        "time": 40.417,
        "duration": 0.208,
        "velocity": 1,
        "hand": "left"
      },
      {
        "midi": 58,
        "time": 40.417,
        "duration": 0.208,
        "velocity": 1,
        "hand": "left"
      },
      {
        "midi": 60,
        "time": 40.417,
        "duration": 0.417,
        "velocity": 1,
        "hand": "right"
      },
      {
        "midi": 62,
        "time": 40.417,
        "duration": 0.208,
        "velocity": 1,
        "hand": "right"
      },
      {
        "midi": 53,
        "time": 40.625,
        "duration": 0.208,
        "velocity": 1,
        "hand": "left"
      },
      {
        "midi": 58,
        "time": 40.625,
        "duration": 0.208,
        "velocity": 1,
        "hand": "left"
      },
      {
        "midi": 62,
        "time": 40.625,
        "duration": 0.208,
        "velocity": 1,
        "hand": "right"
      },
      {
        "midi": 53,
        "time": 40.833,
        "duration": 0.417,
        "velocity": 1,
        "hand": "left"
      },
      {
        "midi": 58,
        "time": 40.833,
        "duration": 0.417,
        "velocity": 1,
        "hand": "left"
      },
      {
        "midi": 62,
        "time": 40.833,
        "duration": 0.417,
        "velocity": 1,
        "hand": "right"
      },
      {
        "midi": 70,
        "time": 40.833,
        "duration": 0.833,
        "velocity": 1,
        "hand": "right"
      },
      {
        "midi": 53,
        "time": 41.25,
        "duration": 0.417,
        "velocity": 1,
        "hand": "left"
      },
      {
        "midi": 58,
        "time": 41.25,
        "duration": 0.417,
        "velocity": 1,
        "hand": "left"
      },
      {
        "midi": 60,
        "time": 41.25,
        "duration": 0.417,
        "velocity": 1,
        "hand": "right"
      },
      {
        "midi": 62,
        "time": 41.25,
        "duration": 0.417,
        "velocity": 1,
        "hand": "right"
      },
      {
        "midi": 46,
        "time": 41.667,
        "duration": 0.833,
        "velocity": 1,
        "hand": "left"
      },
      {
        "midi": 60,
        "time": 41.667,
        "duration": 0.833,
        "velocity": 1,
        "hand": "right"
      },
      {
        "midi": 70,
        "time": 41.667,
        "duration": 0.417,
        "velocity": 1,
        "hand": "right"
      },
      {
        "midi": 53,
        "time": 42.083,
        "duration": 0.208,
        "velocity": 1,
        "hand": "left"
      },
      {
        "midi": 58,
        "time": 42.083,
        "duration": 0.208,
        "velocity": 1,
        "hand": "left"
      },
      {
        "midi": 62,
        "time": 42.083,
        "duration": 0.208,
        "velocity": 1,
        "hand": "right"
      },
      {
        "midi": 69,
        "time": 42.083,
        "duration": 0.208,
        "velocity": 1,
        "hand": "right"
      },
      {
        "midi": 53,
        "time": 42.292,
        "duration": 0.208,
        "velocity": 1,
        "hand": "left"
      },
      {
        "midi": 58,
        "time": 42.292,
        "duration": 0.208,
        "velocity": 1,
        "hand": "left"
      },
      {
        "midi": 62,
        "time": 42.292,
        "duration": 0.208,
        "velocity": 1,
        "hand": "right"
      },
      {
        "midi": 70,
        "time": 42.292,
        "duration": 0.208,
        "velocity": 1,
        "hand": "right"
      },
      {
        "midi": 53,
        "time": 42.5,
        "duration": 0.417,
        "velocity": 1,
        "hand": "left"
      },
      {
        "midi": 58,
        "time": 42.5,
        "duration": 0.417,
        "velocity": 1,
        "hand": "left"
      },
      {
        "midi": 62,
        "time": 42.5,
        "duration": 0.417,
        "velocity": 1,
        "hand": "right"
      },
      {
        "midi": 69,
        "time": 42.5,
        "duration": 0.208,
        "velocity": 1,
        "hand": "right"
      },
      {
        "midi": 70,
        "time": 42.708,
        "duration": 0.208,
        "velocity": 1,
        "hand": "right"
      },
      {
        "midi": 53,
        "time": 42.917,
        "duration": 0.417,
        "velocity": 1,
        "hand": "left"
      },
      {
        "midi": 58,
        "time": 42.917,
        "duration": 0.417,
        "velocity": 1,
        "hand": "left"
      },
      {
        "midi": 62,
        "time": 42.917,
        "duration": 0.417,
        "velocity": 1,
        "hand": "right"
      },
      {
        "midi": 74,
        "time": 42.917,
        "duration": 0.208,
        "velocity": 1,
        "hand": "right"
      },
      {
        "midi": 72,
        "time": 43.125,
        "duration": 0.208,
        "velocity": 1,
        "hand": "right"
      },
      {
        "midi": 51,
        "time": 43.333,
        "duration": 0.833,
        "velocity": 1,
        "hand": "left"
      },
      {
        "midi": 65,
        "time": 43.333,
        "duration": 1.667,
        "velocity": 1,
        "hand": "right"
      },
      {
        "midi": 55,
        "time": 43.75,
        "duration": 0.208,
        "velocity": 1,
        "hand": "left"
      },
      {
        "midi": 58,
        "time": 43.75,
        "duration": 0.208,
        "velocity": 1,
        "hand": "left"
      },
      {
        "midi": 55,
        "time": 43.958,
        "duration": 0.208,
        "velocity": 1,
        "hand": "left"
      },
      {
        "midi": 58,
        "time": 43.958,
        "duration": 0.208,
        "velocity": 1,
        "hand": "left"
      },
      {
        "midi": 55,
        "time": 44.167,
        "duration": 0.417,
        "velocity": 1,
        "hand": "left"
      },
      {
        "midi": 58,
        "time": 44.167,
        "duration": 0.417,
        "velocity": 1,
        "hand": "left"
      },
      {
        "midi": 55,
        "time": 44.583,
        "duration": 0.417,
        "velocity": 1,
        "hand": "left"
      },
      {
        "midi": 58,
        "time": 44.583,
        "duration": 0.417,
        "velocity": 1,
        "hand": "left"
      },
      {
        "midi": 51,
        "time": 45,
        "duration": 0.833,
        "velocity": 1,
        "hand": "left"
      },
      {
        "midi": 65,
        "time": 45,
        "duration": 0.833,
        "velocity": 1,
        "hand": "right"
      },
      {
        "midi": 55,
        "time": 45.417,
        "duration": 0.208,
        "velocity": 1,
        "hand": "left"
      },
      {
        "midi": 58,
        "time": 45.417,
        "duration": 0.208,
        "velocity": 1,
        "hand": "left"
      },
      {
        "midi": 55,
        "time": 45.625,
        "duration": 0.208,
        "velocity": 1,
        "hand": "left"
      },
      {
        "midi": 58,
        "time": 45.625,
        "duration": 0.208,
        "velocity": 1,
        "hand": "left"
      },
      {
        "midi": 55,
        "time": 45.833,
        "duration": 0.417,
        "velocity": 1,
        "hand": "left"
      },
      {
        "midi": 58,
        "time": 45.833,
        "duration": 0.417,
        "velocity": 1,
        "hand": "left"
      },
      {
        "midi": 65,
        "time": 45.833,
        "duration": 0.625,
        "velocity": 1,
        "hand": "right"
      },
      {
        "midi": 55,
        "time": 46.25,
        "duration": 0.417,
        "velocity": 1,
        "hand": "left"
      },
      {
        "midi": 58,
        "time": 46.25,
        "duration": 0.417,
        "velocity": 1,
        "hand": "left"
      },
      {
        "midi": 65,
        "time": 46.458,
        "duration": 0.208,
        "velocity": 1,
        "hand": "right"
      },
      {
        "midi": 56,
        "time": 46.667,
        "duration": 0.833,
        "velocity": 1,
        "hand": "left"
      },
      {
        "midi": 74,
        "time": 46.667,
        "duration": 0.417,
        "velocity": 1,
        "hand": "right"
      },
      {
        "midi": 60,
        "time": 47.083,
        "duration": 0.417,
        "velocity": 1,
        "hand": "right"
      },
      {
        "midi": 60,
        "time": 47.083,
        "duration": 0.208,
        "velocity": 1,
        "hand": "right"
      },
      {
        "midi": 63,
        "time": 47.083,
        "duration": 0.208,
        "velocity": 1,
        "hand": "right"
      },
      {
        "midi": 60,
        "time": 47.292,
        "duration": 0.208,
        "velocity": 1,
        "hand": "right"
      },
      {
        "midi": 63,
        "time": 47.292,
        "duration": 0.208,
        "velocity": 1,
        "hand": "right"
      },
      {
        "midi": 60,
        "time": 47.5,
        "duration": 0.417,
        "velocity": 1,
        "hand": "right"
      },
      {
        "midi": 63,
        "time": 47.5,
        "duration": 0.417,
        "velocity": 1,
        "hand": "right"
      },
      {
        "midi": 74,
        "time": 47.5,
        "duration": 0.833,
        "velocity": 1,
        "hand": "right"
      },
      {
        "midi": 60,
        "time": 47.917,
        "duration": 0.417,
        "velocity": 1,
        "hand": "right"
      },
      {
        "midi": 63,
        "time": 47.917,
        "duration": 0.417,
        "velocity": 1,
        "hand": "right"
      },
      {
        "midi": 56,
        "time": 48.333,
        "duration": 0.833,
        "velocity": 1,
        "hand": "left"
      },
      {
        "midi": 60,
        "time": 48.333,
        "duration": 0.833,
        "velocity": 1,
        "hand": "right"
      },
      {
        "midi": 74,
        "time": 48.333,
        "duration": 0.417,
        "velocity": 1,
        "hand": "right"
      },
      {
        "midi": 60,
        "time": 48.75,
        "duration": 0.208,
        "velocity": 1,
        "hand": "right"
      },
      {
        "midi": 63,
        "time": 48.75,
        "duration": 0.208,
        "velocity": 1,
        "hand": "right"
      },
      {
        "midi": 76,
        "time": 48.75,
        "duration": 0.208,
        "velocity": 1,
        "hand": "right"
      },
      {
        "midi": 60,
        "time": 48.958,
        "duration": 0.208,
        "velocity": 1,
        "hand": "right"
      },
      {
        "midi": 63,
        "time": 48.958,
        "duration": 0.208,
        "velocity": 1,
        "hand": "right"
      },
      {
        "midi": 77,
        "time": 48.958,
        "duration": 0.208,
        "velocity": 1,
        "hand": "right"
      },
      {
        "midi": 60,
        "time": 49.167,
        "duration": 0.417,
        "velocity": 1,
        "hand": "right"
      },
      {
        "midi": 63,
        "time": 49.167,
        "duration": 0.417,
        "velocity": 1,
        "hand": "right"
      },
      {
        "midi": 79,
        "time": 49.167,
        "duration": 0.208,
        "velocity": 1,
        "hand": "right"
      },
      {
        "midi": 77,
        "time": 49.375,
        "duration": 0.208,
        "velocity": 1,
        "hand": "right"
      },
      {
        "midi": 60,
        "time": 49.583,
        "duration": 0.417,
        "velocity": 1,
        "hand": "right"
      },
      {
        "midi": 63,
        "time": 49.583,
        "duration": 0.417,
        "velocity": 1,
        "hand": "right"
      },
      {
        "midi": 76,
        "time": 49.583,
        "duration": 0.208,
        "velocity": 1,
        "hand": "right"
      },
      {
        "midi": 74,
        "time": 49.792,
        "duration": 0.208,
        "velocity": 1,
        "hand": "right"
      },
      {
        "midi": 51,
        "time": 50,
        "duration": 0.833,
        "velocity": 1,
        "hand": "left"
      },
      {
        "midi": 74,
        "time": 50,
        "duration": 0.417,
        "velocity": 1,
        "hand": "right"
      },
      {
        "midi": 55,
        "time": 50.417,
        "duration": 0.208,
        "velocity": 1,
        "hand": "left"
      },
      {
        "midi": 58,
        "time": 50.417,
        "duration": 0.208,
        "velocity": 1,
        "hand": "left"
      },
      {
        "midi": 60,
        "time": 50.417,
        "duration": 0.417,
        "velocity": 1,
        "hand": "right"
      },
      {
        "midi": 63,
        "time": 50.417,
        "duration": 0.208,
        "velocity": 1,
        "hand": "right"
      },
      {
        "midi": 55,
        "time": 50.625,
        "duration": 0.208,
        "velocity": 1,
        "hand": "left"
      },
      {
        "midi": 58,
        "time": 50.625,
        "duration": 0.208,
        "velocity": 1,
        "hand": "left"
      },
      {
        "midi": 63,
        "time": 50.625,
        "duration": 0.208,
        "velocity": 1,
        "hand": "right"
      },
      {
        "midi": 55,
        "time": 50.833,
        "duration": 0.417,
        "velocity": 1,
        "hand": "left"
      },
      {
        "midi": 58,
        "time": 50.833,
        "duration": 0.417,
        "velocity": 1,
        "hand": "left"
      },
      {
        "midi": 63,
        "time": 50.833,
        "duration": 0.417,
        "velocity": 1,
        "hand": "right"
      },
      {
        "midi": 72,
        "time": 50.833,
        "duration": 0.833,
        "velocity": 1,
        "hand": "right"
      },
      {
        "midi": 55,
        "time": 51.25,
        "duration": 0.417,
        "velocity": 1,
        "hand": "left"
      },
      {
        "midi": 58,
        "time": 51.25,
        "duration": 0.417,
        "velocity": 1,
        "hand": "left"
      },
      {
        "midi": 60,
        "time": 51.25,
        "duration": 0.417,
        "velocity": 1,
        "hand": "right"
      },
      {
        "midi": 63,
        "time": 51.25,
        "duration": 0.417,
        "velocity": 1,
        "hand": "right"
      },
      {
        "midi": 51,
        "time": 51.667,
        "duration": 0.833,
        "velocity": 1,
        "hand": "left"
      },
      {
        "midi": 60,
        "time": 51.667,
        "duration": 0.833,
        "velocity": 1,
        "hand": "right"
      },
      {
        "midi": 72,
        "time": 51.667,
        "duration": 0.417,
        "velocity": 1,
        "hand": "right"
      },
      {
        "midi": 55,
        "time": 52.083,
        "duration": 0.208,
        "velocity": 1,
        "hand": "left"
      },
      {
        "midi": 58,
        "time": 52.083,
        "duration": 0.208,
        "velocity": 1,
        "hand": "left"
      },
      {
        "midi": 63,
        "time": 52.083,
        "duration": 0.208,
        "velocity": 1,
        "hand": "right"
      },
      {
        "midi": 71,
        "time": 52.083,
        "duration": 0.208,
        "velocity": 1,
        "hand": "right"
      },
      {
        "midi": 55,
        "time": 52.292,
        "duration": 0.208,
        "velocity": 1,
        "hand": "left"
      },
      {
        "midi": 58,
        "time": 52.292,
        "duration": 0.208,
        "velocity": 1,
        "hand": "left"
      },
      {
        "midi": 63,
        "time": 52.292,
        "duration": 0.208,
        "velocity": 1,
        "hand": "right"
      },
      {
        "midi": 72,
        "time": 52.292,
        "duration": 0.208,
        "velocity": 1,
        "hand": "right"
      },
      {
        "midi": 55,
        "time": 52.5,
        "duration": 0.417,
        "velocity": 1,
        "hand": "left"
      },
      {
        "midi": 58,
        "time": 52.5,
        "duration": 0.417,
        "velocity": 1,
        "hand": "left"
      },
      {
        "midi": 63,
        "time": 52.5,
        "duration": 0.417,
        "velocity": 1,
        "hand": "right"
      },
      {
        "midi": 71,
        "time": 52.5,
        "duration": 0.208,
        "velocity": 1,
        "hand": "right"
      },
      {
        "midi": 72,
        "time": 52.708,
        "duration": 0.208,
        "velocity": 1,
        "hand": "right"
      },
      {
        "midi": 55,
        "time": 52.917,
        "duration": 0.417,
        "velocity": 1,
        "hand": "left"
      },
      {
        "midi": 58,
        "time": 52.917,
        "duration": 0.417,
        "velocity": 1,
        "hand": "left"
      },
      {
        "midi": 63,
        "time": 52.917,
        "duration": 0.417,
        "velocity": 1,
        "hand": "right"
      },
      {
        "midi": 76,
        "time": 52.917,
        "duration": 0.208,
        "velocity": 1,
        "hand": "right"
      },
      {
        "midi": 74,
        "time": 53.125,
        "duration": 0.208,
        "velocity": 1,
        "hand": "right"
      },
      {
        "midi": 46,
        "time": 53.333,
        "duration": 0.833,
        "velocity": 1,
        "hand": "left"
      },
      {
        "midi": 72,
        "time": 53.333,
        "duration": 0.417,
        "velocity": 1,
        "hand": "right"
      },
      {
        "midi": 53,
        "time": 53.75,
        "duration": 0.208,
        "velocity": 1,
        "hand": "left"
      },
      {
        "midi": 58,
        "time": 53.75,
        "duration": 0.208,
        "velocity": 1,
        "hand": "left"
      },
      {
        "midi": 60,
        "time": 53.75,
        "duration": 0.417,
        "velocity": 1,
        "hand": "right"
      },
      {
        "midi": 62,
        "time": 53.75,
        "duration": 0.208,
        "velocity": 1,
        "hand": "right"
      },
      {
        "midi": 53,
        "time": 53.958,
        "duration": 0.208,
        "velocity": 1,
        "hand": "left"
      },
      {
        "midi": 58,
        "time": 53.958,
        "duration": 0.208,
        "velocity": 1,
        "hand": "left"
      },
      {
        "midi": 62,
        "time": 53.958,
        "duration": 0.208,
        "velocity": 1,
        "hand": "right"
      },
      {
        "midi": 53,
        "time": 54.167,
        "duration": 0.417,
        "velocity": 1,
        "hand": "left"
      },
      {
        "midi": 58,
        "time": 54.167,
        "duration": 0.417,
        "velocity": 1,
        "hand": "left"
      },
      {
        "midi": 62,
        "time": 54.167,
        "duration": 0.417,
        "velocity": 1,
        "hand": "right"
      },
      {
        "midi": 70,
        "time": 54.167,
        "duration": 0.833,
        "velocity": 1,
        "hand": "right"
      },
      {
        "midi": 53,
        "time": 54.583,
        "duration": 0.417,
        "velocity": 1,
        "hand": "left"
      },
      {
        "midi": 58,
        "time": 54.583,
        "duration": 0.417,
        "velocity": 1,
        "hand": "left"
      },
      {
        "midi": 60,
        "time": 54.583,
        "duration": 0.417,
        "velocity": 1,
        "hand": "right"
      },
      {
        "midi": 62,
        "time": 54.583,
        "duration": 0.417,
        "velocity": 1,
        "hand": "right"
      },
      {
        "midi": 46,
        "time": 55,
        "duration": 0.833,
        "velocity": 1,
        "hand": "left"
      },
      {
        "midi": 60,
        "time": 55,
        "duration": 0.833,
        "velocity": 1,
        "hand": "right"
      },
      {
        "midi": 70,
        "time": 55,
        "duration": 0.417,
        "velocity": 1,
        "hand": "right"
      },
      {
        "midi": 53,
        "time": 55.417,
        "duration": 0.208,
        "velocity": 1,
        "hand": "left"
      },
      {
        "midi": 58,
        "time": 55.417,
        "duration": 0.208,
        "velocity": 1,
        "hand": "left"
      },
      {
        "midi": 62,
        "time": 55.417,
        "duration": 0.208,
        "velocity": 1,
        "hand": "right"
      },
      {
        "midi": 69,
        "time": 55.417,
        "duration": 0.208,
        "velocity": 1,
        "hand": "right"
      },
      {
        "midi": 53,
        "time": 55.625,
        "duration": 0.208,
        "velocity": 1,
        "hand": "left"
      },
      {
        "midi": 58,
        "time": 55.625,
        "duration": 0.208,
        "velocity": 1,
        "hand": "left"
      },
      {
        "midi": 62,
        "time": 55.625,
        "duration": 0.208,
        "velocity": 1,
        "hand": "right"
      },
      {
        "midi": 70,
        "time": 55.625,
        "duration": 0.208,
        "velocity": 1,
        "hand": "right"
      },
      {
        "midi": 53,
        "time": 55.833,
        "duration": 0.417,
        "velocity": 1,
        "hand": "left"
      },
      {
        "midi": 58,
        "time": 55.833,
        "duration": 0.417,
        "velocity": 1,
        "hand": "left"
      },
      {
        "midi": 62,
        "time": 55.833,
        "duration": 0.417,
        "velocity": 1,
        "hand": "right"
      },
      {
        "midi": 69,
        "time": 55.833,
        "duration": 0.208,
        "velocity": 1,
        "hand": "right"
      },
      {
        "midi": 70,
        "time": 56.042,
        "duration": 0.208,
        "velocity": 1,
        "hand": "right"
      },
      {
        "midi": 53,
        "time": 56.25,
        "duration": 0.417,
        "velocity": 1,
        "hand": "left"
      },
      {
        "midi": 58,
        "time": 56.25,
        "duration": 0.417,
        "velocity": 1,
        "hand": "left"
      },
      {
        "midi": 62,
        "time": 56.25,
        "duration": 0.417,
        "velocity": 1,
        "hand": "right"
      },
      {
        "midi": 74,
        "time": 56.25,
        "duration": 0.208,
        "velocity": 1,
        "hand": "right"
      },
      {
        "midi": 72,
        "time": 56.458,
        "duration": 0.208,
        "velocity": 1,
        "hand": "right"
      },
      {
        "midi": 51,
        "time": 56.667,
        "duration": 0.833,
        "velocity": 1,
        "hand": "left"
      },
      {
        "midi": 65,
        "time": 56.667,
        "duration": 1.667,
        "velocity": 1,
        "hand": "right"
      },
      {
        "midi": 55,
        "time": 57.083,
        "duration": 0.208,
        "velocity": 1,
        "hand": "left"
      },
      {
        "midi": 58,
        "time": 57.083,
        "duration": 0.208,
        "velocity": 1,
        "hand": "left"
      },
      {
        "midi": 55,
        "time": 57.292,
        "duration": 0.208,
        "velocity": 1,
        "hand": "left"
      },
      {
        "midi": 58,
        "time": 57.292,
        "duration": 0.208,
        "velocity": 1,
        "hand": "left"
      },
      {
        "midi": 55,
        "time": 57.5,
        "duration": 0.417,
        "velocity": 1,
        "hand": "left"
      },
      {
        "midi": 58,
        "time": 57.5,
        "duration": 0.417,
        "velocity": 1,
        "hand": "left"
      },
      {
        "midi": 55,
        "time": 57.917,
        "duration": 0.417,
        "velocity": 1,
        "hand": "left"
      },
      {
        "midi": 58,
        "time": 57.917,
        "duration": 0.417,
        "velocity": 1,
        "hand": "left"
      },
      {
        "midi": 51,
        "time": 58.333,
        "duration": 0.833,
        "velocity": 1,
        "hand": "left"
      },
      {
        "midi": 65,
        "time": 58.333,
        "duration": 1.25,
        "velocity": 1,
        "hand": "right"
      },
      {
        "midi": 55,
        "time": 58.75,
        "duration": 0.417,
        "velocity": 1,
        "hand": "left"
      },
      {
        "midi": 58,
        "time": 58.75,
        "duration": 0.417,
        "velocity": 1,
        "hand": "left"
      },
      {
        "midi": 77,
        "time": 59.583,
        "duration": 0.417,
        "velocity": 1,
        "hand": "right"
      },
      {
        "midi": 56,
        "time": 60,
        "duration": 0.417,
        "velocity": 1,
        "hand": "left"
      },
      {
        "midi": 60,
        "time": 60,
        "duration": 0.833,
        "velocity": 1,
        "hand": "right"
      },
      {
        "midi": 74,
        "time": 60,
        "duration": 0.417,
        "velocity": 1,
        "hand": "right"
      },
      {
        "midi": 60,
        "time": 60.417,
        "duration": 0.417,
        "velocity": 1,
        "hand": "right"
      },
      {
        "midi": 63,
        "time": 60.417,
        "duration": 0.417,
        "velocity": 1,
        "hand": "right"
      },
      {
        "midi": 77,
        "time": 60.417,
        "duration": 0.417,
        "velocity": 1,
        "hand": "right"
      },
      {
        "midi": 56,
        "time": 60.833,
        "duration": 0.417,
        "velocity": 1,
        "hand": "left"
      },
      {
        "midi": 60,
        "time": 60.833,
        "duration": 0.833,
        "velocity": 1,
        "hand": "right"
      },
      {
        "midi": 74,
        "time": 60.833,
        "duration": 0.417,
        "velocity": 1,
        "hand": "right"
      },
      {
        "midi": 60,
        "time": 61.25,
        "duration": 0.417,
        "velocity": 1,
        "hand": "right"
      },
      {
        "midi": 63,
        "time": 61.25,
        "duration": 0.417,
        "velocity": 1,
        "hand": "right"
      },
      {
        "midi": 77,
        "time": 61.25,
        "duration": 0.417,
        "velocity": 1,
        "hand": "right"
      },
      {
        "midi": 56,
        "time": 61.667,
        "duration": 0.417,
        "velocity": 1,
        "hand": "left"
      },
      {
        "midi": 60,
        "time": 61.667,
        "duration": 0.833,
        "velocity": 1,
        "hand": "right"
      },
      {
        "midi": 74,
        "time": 61.667,
        "duration": 0.417,
        "velocity": 1,
        "hand": "right"
      },
      {
        "midi": 60,
        "time": 62.083,
        "duration": 0.417,
        "velocity": 1,
        "hand": "right"
      },
      {
        "midi": 63,
        "time": 62.083,
        "duration": 0.417,
        "velocity": 1,
        "hand": "right"
      },
      {
        "midi": 77,
        "time": 62.083,
        "duration": 0.417,
        "velocity": 1,
        "hand": "right"
      },
      {
        "midi": 56,
        "time": 62.5,
        "duration": 0.417,
        "velocity": 1,
        "hand": "left"
      },
      {
        "midi": 60,
        "time": 62.5,
        "duration": 0.833,
        "velocity": 1,
        "hand": "right"
      },
      {
        "midi": 79,
        "time": 62.5,
        "duration": 0.208,
        "velocity": 1,
        "hand": "right"
      },
      {
        "midi": 77,
        "time": 62.708,
        "duration": 0.208,
        "velocity": 1,
        "hand": "right"
      },
      {
        "midi": 60,
        "time": 62.917,
        "duration": 0.417,
        "velocity": 1,
        "hand": "right"
      },
      {
        "midi": 63,
        "time": 62.917,
        "duration": 0.417,
        "velocity": 1,
        "hand": "right"
      },
      {
        "midi": 76,
        "time": 62.917,
        "duration": 0.208,
        "velocity": 1,
        "hand": "right"
      },
      {
        "midi": 74,
        "time": 63.125,
        "duration": 0.208,
        "velocity": 1,
        "hand": "right"
      },
      {
        "midi": 51,
        "time": 63.333,
        "duration": 0.417,
        "velocity": 1,
        "hand": "left"
      },
      {
        "midi": 60,
        "time": 63.333,
        "duration": 0.833,
        "velocity": 1,
        "hand": "right"
      },
      {
        "midi": 74,
        "time": 63.333,
        "duration": 0.208,
        "velocity": 1,
        "hand": "right"
      },
      {
        "midi": 72,
        "time": 63.542,
        "duration": 0.208,
        "velocity": 1,
        "hand": "right"
      },
      {
        "midi": 55,
        "time": 63.75,
        "duration": 0.417,
        "velocity": 1,
        "hand": "left"
      },
      {
        "midi": 58,
        "time": 63.75,
        "duration": 0.417,
        "velocity": 1,
        "hand": "left"
      },
      {
        "midi": 63,
        "time": 63.75,
        "duration": 0.417,
        "velocity": 1,
        "hand": "right"
      },
      {
        "midi": 72,
        "time": 63.75,
        "duration": 0.208,
        "velocity": 1,
        "hand": "right"
      },
      {
        "midi": 72,
        "time": 63.958,
        "duration": 0.208,
        "velocity": 1,
        "hand": "right"
      },
      {
        "midi": 51,
        "time": 64.167,
        "duration": 0.417,
        "velocity": 1,
        "hand": "left"
      },
      {
        "midi": 60,
        "time": 64.167,
        "duration": 0.833,
        "velocity": 1,
        "hand": "right"
      },
      {
        "midi": 74,
        "time": 64.167,
        "duration": 0.208,
        "velocity": 1,
        "hand": "right"
      },
      {
        "midi": 72,
        "time": 64.375,
        "duration": 0.208,
        "velocity": 1,
        "hand": "right"
      },
      {
        "midi": 55,
        "time": 64.583,
        "duration": 0.417,
        "velocity": 1,
        "hand": "left"
      },
      {
        "midi": 58,
        "time": 64.583,
        "duration": 0.417,
        "velocity": 1,
        "hand": "left"
      },
      {
        "midi": 63,
        "time": 64.583,
        "duration": 0.417,
        "velocity": 1,
        "hand": "right"
      },
      {
        "midi": 72,
        "time": 64.583,
        "duration": 0.208,
        "velocity": 1,
        "hand": "right"
      },
      {
        "midi": 72,
        "time": 64.792,
        "duration": 0.208,
        "velocity": 1,
        "hand": "right"
      },
      {
        "midi": 51,
        "time": 65,
        "duration": 0.417,
        "velocity": 1,
        "hand": "left"
      },
      {
        "midi": 60,
        "time": 65,
        "duration": 0.833,
        "velocity": 1,
        "hand": "right"
      },
      {
        "midi": 74,
        "time": 65,
        "duration": 0.208,
        "velocity": 1,
        "hand": "right"
      },
      {
        "midi": 72,
        "time": 65.208,
        "duration": 0.208,
        "velocity": 1,
        "hand": "right"
      },
      {
        "midi": 55,
        "time": 65.417,
        "duration": 0.417,
        "velocity": 1,
        "hand": "left"
      },
      {
        "midi": 58,
        "time": 65.417,
        "duration": 0.417,
        "velocity": 1,
        "hand": "left"
      },
      {
        "midi": 63,
        "time": 65.417,
        "duration": 0.417,
        "velocity": 1,
        "hand": "right"
      },
      {
        "midi": 72,
        "time": 65.417,
        "duration": 0.208,
        "velocity": 1,
        "hand": "right"
      },
      {
        "midi": 72,
        "time": 65.625,
        "duration": 0.208,
        "velocity": 1,
        "hand": "right"
      },
      {
        "midi": 51,
        "time": 65.833,
        "duration": 0.417,
        "velocity": 1,
        "hand": "left"
      },
      {
        "midi": 60,
        "time": 65.833,
        "duration": 0.833,
        "velocity": 1,
        "hand": "right"
      },
      {
        "midi": 74,
        "time": 65.833,
        "duration": 0.208,
        "velocity": 1,
        "hand": "right"
      },
      {
        "midi": 72,
        "time": 66.042,
        "duration": 0.208,
        "velocity": 1,
        "hand": "right"
      },
      {
        "midi": 55,
        "time": 66.25,
        "duration": 0.417,
        "velocity": 1,
        "hand": "left"
      },
      {
        "midi": 58,
        "time": 66.25,
        "duration": 0.417,
        "velocity": 1,
        "hand": "left"
      },
      {
        "midi": 63,
        "time": 66.25,
        "duration": 0.417,
        "velocity": 1,
        "hand": "right"
      },
      {
        "midi": 70,
        "time": 66.25,
        "duration": 0.208,
        "velocity": 1,
        "hand": "right"
      },
      {
        "midi": 69,
        "time": 66.458,
        "duration": 0.208,
        "velocity": 1,
        "hand": "right"
      },
      {
        "midi": 46,
        "time": 66.667,
        "duration": 0.417,
        "velocity": 1,
        "hand": "left"
      },
      {
        "midi": 60,
        "time": 66.667,
        "duration": 0.833,
        "velocity": 1,
        "hand": "right"
      },
      {
        "midi": 72,
        "time": 66.667,
        "duration": 0.208,
        "velocity": 1,
        "hand": "right"
      },
      {
        "midi": 70,
        "time": 66.875,
        "duration": 0.208,
        "velocity": 1,
        "hand": "right"
      },
      {
        "midi": 53,
        "time": 67.083,
        "duration": 0.417,
        "velocity": 1,
        "hand": "left"
      },
      {
        "midi": 58,
        "time": 67.083,
        "duration": 0.417,
        "velocity": 1,
        "hand": "left"
      },
      {
        "midi": 62,
        "time": 67.083,
        "duration": 0.417,
        "velocity": 1,
        "hand": "right"
      },
      {
        "midi": 70,
        "time": 67.083,
        "duration": 0.208,
        "velocity": 1,
        "hand": "right"
      },
      {
        "midi": 70,
        "time": 67.292,
        "duration": 0.208,
        "velocity": 1,
        "hand": "right"
      },
      {
        "midi": 46,
        "time": 67.5,
        "duration": 0.417,
        "velocity": 1,
        "hand": "left"
      },
      {
        "midi": 60,
        "time": 67.5,
        "duration": 0.833,
        "velocity": 1,
        "hand": "right"
      },
      {
        "midi": 72,
        "time": 67.5,
        "duration": 0.208,
        "velocity": 1,
        "hand": "right"
      },
      {
        "midi": 70,
        "time": 67.708,
        "duration": 0.208,
        "velocity": 1,
        "hand": "right"
      },
      {
        "midi": 53,
        "time": 67.917,
        "duration": 0.417,
        "velocity": 1,
        "hand": "left"
      },
      {
        "midi": 58,
        "time": 67.917,
        "duration": 0.417,
        "velocity": 1,
        "hand": "left"
      },
      {
        "midi": 62,
        "time": 67.917,
        "duration": 0.417,
        "velocity": 1,
        "hand": "right"
      },
      {
        "midi": 70,
        "time": 67.917,
        "duration": 0.208,
        "velocity": 1,
        "hand": "right"
      },
      {
        "midi": 70,
        "time": 68.125,
        "duration": 0.208,
        "velocity": 1,
        "hand": "right"
      },
      {
        "midi": 46,
        "time": 68.333,
        "duration": 0.417,
        "velocity": 1,
        "hand": "left"
      },
      {
        "midi": 60,
        "time": 68.333,
        "duration": 0.833,
        "velocity": 1,
        "hand": "right"
      },
      {
        "midi": 72,
        "time": 68.333,
        "duration": 0.208,
        "velocity": 1,
        "hand": "right"
      },
      {
        "midi": 70,
        "time": 68.542,
        "duration": 0.208,
        "velocity": 1,
        "hand": "right"
      },
      {
        "midi": 53,
        "time": 68.75,
        "duration": 0.417,
        "velocity": 1,
        "hand": "left"
      },
      {
        "midi": 58,
        "time": 68.75,
        "duration": 0.417,
        "velocity": 1,
        "hand": "left"
      },
      {
        "midi": 62,
        "time": 68.75,
        "duration": 0.417,
        "velocity": 1,
        "hand": "right"
      },
      {
        "midi": 70,
        "time": 68.75,
        "duration": 0.208,
        "velocity": 1,
        "hand": "right"
      },
      {
        "midi": 70,
        "time": 68.958,
        "duration": 0.208,
        "velocity": 1,
        "hand": "right"
      },
      {
        "midi": 46,
        "time": 69.167,
        "duration": 0.417,
        "velocity": 1,
        "hand": "left"
      },
      {
        "midi": 60,
        "time": 69.167,
        "duration": 0.833,
        "velocity": 1,
        "hand": "right"
      },
      {
        "midi": 72,
        "time": 69.167,
        "duration": 0.208,
        "velocity": 1,
        "hand": "right"
      },
      {
        "midi": 70,
        "time": 69.375,
        "duration": 0.208,
        "velocity": 1,
        "hand": "right"
      },
      {
        "midi": 53,
        "time": 69.583,
        "duration": 0.417,
        "velocity": 1,
        "hand": "left"
      },
      {
        "midi": 58,
        "time": 69.583,
        "duration": 0.417,
        "velocity": 1,
        "hand": "left"
      },
      {
        "midi": 62,
        "time": 69.583,
        "duration": 0.417,
        "velocity": 1,
        "hand": "right"
      },
      {
        "midi": 69,
        "time": 69.583,
        "duration": 0.208,
        "velocity": 1,
        "hand": "right"
      },
      {
        "midi": 67,
        "time": 69.792,
        "duration": 0.208,
        "velocity": 1,
        "hand": "right"
      },
      {
        "midi": 51,
        "time": 70,
        "duration": 0.417,
        "velocity": 1,
        "hand": "left"
      },
      {
        "midi": 60,
        "time": 70,
        "duration": 0.833,
        "velocity": 1,
        "hand": "right"
      },
      {
        "midi": 65,
        "time": 70,
        "duration": 0.208,
        "velocity": 1,
        "hand": "right"
      },
      {
        "midi": 65,
        "time": 70.208,
        "duration": 0.208,
        "velocity": 1,
        "hand": "right"
      },
      {
        "midi": 55,
        "time": 70.417,
        "duration": 0.417,
        "velocity": 1,
        "hand": "left"
      },
      {
        "midi": 58,
        "time": 70.417,
        "duration": 0.417,
        "velocity": 1,
        "hand": "left"
      },
      {
        "midi": 67,
        "time": 70.417,
        "duration": 0.208,
        "velocity": 1,
        "hand": "right"
      },
      {
        "midi": 69,
        "time": 70.625,
        "duration": 0.208,
        "velocity": 1,
        "hand": "right"
      },
      {
        "midi": 70,
        "time": 70.833,
        "duration": 0.208,
        "velocity": 1,
        "hand": "right"
      },
      {
        "midi": 72,
        "time": 71.042,
        "duration": 0.208,
        "velocity": 1,
        "hand": "right"
      },
      {
        "midi": 74,
        "time": 71.25,
        "duration": 0.208,
        "velocity": 1,
        "hand": "right"
      },
      {
        "midi": 76,
        "time": 71.458,
        "duration": 0.208,
        "velocity": 1,
        "hand": "right"
      },
      {
        "midi": 60,
        "time": 71.667,
        "duration": 0.417,
        "velocity": 1,
        "hand": "right"
      },
      {
        "midi": 77,
        "time": 71.667,
        "duration": 0.417,
        "velocity": 1,
        "hand": "right"
      },
      {
        "midi": 51,
        "time": 72.083,
        "duration": 0.417,
        "velocity": 1,
        "hand": "left"
      },
      {
        "midi": 55,
        "time": 72.083,
        "duration": 0.417,
        "velocity": 1,
        "hand": "left"
      },
      {
        "midi": 58,
        "time": 72.083,
        "duration": 0.417,
        "velocity": 1,
        "hand": "left"
      },
      {
        "midi": 60,
        "time": 72.083,
        "duration": 0.417,
        "velocity": 1,
        "hand": "right"
      },
      {
        "midi": 55,
        "time": 72.5,
        "duration": 0.417,
        "velocity": 1,
        "hand": "left"
      },
      {
        "midi": 58,
        "time": 72.5,
        "duration": 0.417,
        "velocity": 1,
        "hand": "left"
      },
      {
        "midi": 60,
        "time": 72.5,
        "duration": 0.417,
        "velocity": 1,
        "hand": "right"
      },
      {
        "midi": 63,
        "time": 72.5,
        "duration": 0.417,
        "velocity": 1,
        "hand": "right"
      },
      {
        "midi": 51,
        "time": 72.917,
        "duration": 0.417,
        "velocity": 1,
        "hand": "left"
      },
      {
        "midi": 55,
        "time": 72.917,
        "duration": 0.417,
        "velocity": 1,
        "hand": "left"
      },
      {
        "midi": 58,
        "time": 72.917,
        "duration": 0.417,
        "velocity": 1,
        "hand": "left"
      },
      {
        "midi": 77,
        "time": 72.917,
        "duration": 0.417,
        "velocity": 1,
        "hand": "right"
      },
      {
        "midi": 56,
        "time": 73.333,
        "duration": 0.417,
        "velocity": 1,
        "hand": "left"
      },
      {
        "midi": 60,
        "time": 73.333,
        "duration": 0.833,
        "velocity": 1,
        "hand": "right"
      },
      {
        "midi": 74,
        "time": 73.333,
        "duration": 0.417,
        "velocity": 1,
        "hand": "right"
      },
      {
        "midi": 60,
        "time": 73.75,
        "duration": 0.417,
        "velocity": 1,
        "hand": "right"
      },
      {
        "midi": 63,
        "time": 73.75,
        "duration": 0.417,
        "velocity": 1,
        "hand": "right"
      },
      {
        "midi": 77,
        "time": 73.75,
        "duration": 0.417,
        "velocity": 1,
        "hand": "right"
      },
      {
        "midi": 56,
        "time": 74.167,
        "duration": 0.417,
        "velocity": 1,
        "hand": "left"
      },
      {
        "midi": 60,
        "time": 74.167,
        "duration": 0.833,
        "velocity": 1,
        "hand": "right"
      },
      {
        "midi": 74,
        "time": 74.167,
        "duration": 0.417,
        "velocity": 1,
        "hand": "right"
      },
      {
        "midi": 60,
        "time": 74.583,
        "duration": 0.417,
        "velocity": 1,
        "hand": "right"
      },
      {
        "midi": 63,
        "time": 74.583,
        "duration": 0.417,
        "velocity": 1,
        "hand": "right"
      },
      {
        "midi": 77,
        "time": 74.583,
        "duration": 0.417,
        "velocity": 1,
        "hand": "right"
      },
      {
        "midi": 56,
        "time": 75,
        "duration": 0.417,
        "velocity": 1,
        "hand": "left"
      },
      {
        "midi": 60,
        "time": 75,
        "duration": 0.833,
        "velocity": 1,
        "hand": "right"
      },
      {
        "midi": 74,
        "time": 75,
        "duration": 0.417,
        "velocity": 1,
        "hand": "right"
      },
      {
        "midi": 60,
        "time": 75.417,
        "duration": 0.417,
        "velocity": 1,
        "hand": "right"
      },
      {
        "midi": 63,
        "time": 75.417,
        "duration": 0.417,
        "velocity": 1,
        "hand": "right"
      },
      {
        "midi": 77,
        "time": 75.417,
        "duration": 0.417,
        "velocity": 1,
        "hand": "right"
      },
      {
        "midi": 56,
        "time": 75.833,
        "duration": 0.417,
        "velocity": 1,
        "hand": "left"
      },
      {
        "midi": 60,
        "time": 75.833,
        "duration": 0.833,
        "velocity": 1,
        "hand": "right"
      },
      {
        "midi": 79,
        "time": 75.833,
        "duration": 0.208,
        "velocity": 1,
        "hand": "right"
      },
      {
        "midi": 77,
        "time": 76.042,
        "duration": 0.208,
        "velocity": 1,
        "hand": "right"
      },
      {
        "midi": 60,
        "time": 76.25,
        "duration": 0.417,
        "velocity": 1,
        "hand": "right"
      },
      {
        "midi": 63,
        "time": 76.25,
        "duration": 0.417,
        "velocity": 1,
        "hand": "right"
      },
      {
        "midi": 76,
        "time": 76.25,
        "duration": 0.208,
        "velocity": 1,
        "hand": "right"
      },
      {
        "midi": 74,
        "time": 76.458,
        "duration": 0.208,
        "velocity": 1,
        "hand": "right"
      },
      {
        "midi": 51,
        "time": 76.667,
        "duration": 0.417,
        "velocity": 1,
        "hand": "left"
      },
      {
        "midi": 60,
        "time": 76.667,
        "duration": 0.833,
        "velocity": 1,
        "hand": "right"
      },
      {
        "midi": 74,
        "time": 76.667,
        "duration": 0.208,
        "velocity": 1,
        "hand": "right"
      },
      {
        "midi": 72,
        "time": 76.875,
        "duration": 0.208,
        "velocity": 1,
        "hand": "right"
      },
      {
        "midi": 55,
        "time": 77.083,
        "duration": 0.417,
        "velocity": 1,
        "hand": "left"
      },
      {
        "midi": 58,
        "time": 77.083,
        "duration": 0.417,
        "velocity": 1,
        "hand": "left"
      },
      {
        "midi": 63,
        "time": 77.083,
        "duration": 0.417,
        "velocity": 1,
        "hand": "right"
      },
      {
        "midi": 72,
        "time": 77.083,
        "duration": 0.208,
        "velocity": 1,
        "hand": "right"
      },
      {
        "midi": 72,
        "time": 77.292,
        "duration": 0.208,
        "velocity": 1,
        "hand": "right"
      },
      {
        "midi": 51,
        "time": 77.5,
        "duration": 0.417,
        "velocity": 1,
        "hand": "left"
      },
      {
        "midi": 60,
        "time": 77.5,
        "duration": 0.833,
        "velocity": 1,
        "hand": "right"
      },
      {
        "midi": 74,
        "time": 77.5,
        "duration": 0.208,
        "velocity": 1,
        "hand": "right"
      },
      {
        "midi": 72,
        "time": 77.708,
        "duration": 0.208,
        "velocity": 1,
        "hand": "right"
      },
      {
        "midi": 55,
        "time": 77.917,
        "duration": 0.417,
        "velocity": 1,
        "hand": "left"
      },
      {
        "midi": 58,
        "time": 77.917,
        "duration": 0.417,
        "velocity": 1,
        "hand": "left"
      },
      {
        "midi": 63,
        "time": 77.917,
        "duration": 0.417,
        "velocity": 1,
        "hand": "right"
      },
      {
        "midi": 72,
        "time": 77.917,
        "duration": 0.208,
        "velocity": 1,
        "hand": "right"
      },
      {
        "midi": 72,
        "time": 78.125,
        "duration": 0.208,
        "velocity": 1,
        "hand": "right"
      },
      {
        "midi": 51,
        "time": 78.333,
        "duration": 0.417,
        "velocity": 1,
        "hand": "left"
      },
      {
        "midi": 60,
        "time": 78.333,
        "duration": 0.833,
        "velocity": 1,
        "hand": "right"
      },
      {
        "midi": 74,
        "time": 78.333,
        "duration": 0.208,
        "velocity": 1,
        "hand": "right"
      },
      {
        "midi": 72,
        "time": 78.542,
        "duration": 0.208,
        "velocity": 1,
        "hand": "right"
      },
      {
        "midi": 55,
        "time": 78.75,
        "duration": 0.417,
        "velocity": 1,
        "hand": "left"
      },
      {
        "midi": 58,
        "time": 78.75,
        "duration": 0.417,
        "velocity": 1,
        "hand": "left"
      },
      {
        "midi": 63,
        "time": 78.75,
        "duration": 0.417,
        "velocity": 1,
        "hand": "right"
      },
      {
        "midi": 72,
        "time": 78.75,
        "duration": 0.208,
        "velocity": 1,
        "hand": "right"
      },
      {
        "midi": 72,
        "time": 78.958,
        "duration": 0.208,
        "velocity": 1,
        "hand": "right"
      },
      {
        "midi": 51,
        "time": 79.167,
        "duration": 0.417,
        "velocity": 1,
        "hand": "left"
      },
      {
        "midi": 60,
        "time": 79.167,
        "duration": 0.833,
        "velocity": 1,
        "hand": "right"
      },
      {
        "midi": 74,
        "time": 79.167,
        "duration": 0.208,
        "velocity": 1,
        "hand": "right"
      },
      {
        "midi": 72,
        "time": 79.375,
        "duration": 0.208,
        "velocity": 1,
        "hand": "right"
      },
      {
        "midi": 55,
        "time": 79.583,
        "duration": 0.417,
        "velocity": 1,
        "hand": "left"
      },
      {
        "midi": 58,
        "time": 79.583,
        "duration": 0.417,
        "velocity": 1,
        "hand": "left"
      },
      {
        "midi": 63,
        "time": 79.583,
        "duration": 0.417,
        "velocity": 1,
        "hand": "right"
      },
      {
        "midi": 70,
        "time": 79.583,
        "duration": 0.208,
        "velocity": 1,
        "hand": "right"
      },
      {
        "midi": 69,
        "time": 79.792,
        "duration": 0.208,
        "velocity": 1,
        "hand": "right"
      },
      {
        "midi": 46,
        "time": 80,
        "duration": 0.417,
        "velocity": 1,
        "hand": "left"
      },
      {
        "midi": 60,
        "time": 80,
        "duration": 0.833,
        "velocity": 1,
        "hand": "right"
      },
      {
        "midi": 72,
        "time": 80,
        "duration": 0.208,
        "velocity": 1,
        "hand": "right"
      },
      {
        "midi": 70,
        "time": 80.208,
        "duration": 0.208,
        "velocity": 1,
        "hand": "right"
      },
      {
        "midi": 53,
        "time": 80.417,
        "duration": 0.417,
        "velocity": 1,
        "hand": "left"
      },
      {
        "midi": 58,
        "time": 80.417,
        "duration": 0.417,
        "velocity": 1,
        "hand": "left"
      },
      {
        "midi": 62,
        "time": 80.417,
        "duration": 0.417,
        "velocity": 1,
        "hand": "right"
      },
      {
        "midi": 70,
        "time": 80.417,
        "duration": 0.208,
        "velocity": 1,
        "hand": "right"
      },
      {
        "midi": 70,
        "time": 80.625,
        "duration": 0.208,
        "velocity": 1,
        "hand": "right"
      },
      {
        "midi": 46,
        "time": 80.833,
        "duration": 0.417,
        "velocity": 1,
        "hand": "left"
      },
      {
        "midi": 60,
        "time": 80.833,
        "duration": 0.833,
        "velocity": 1,
        "hand": "right"
      },
      {
        "midi": 72,
        "time": 80.833,
        "duration": 0.208,
        "velocity": 1,
        "hand": "right"
      },
      {
        "midi": 70,
        "time": 81.042,
        "duration": 0.208,
        "velocity": 1,
        "hand": "right"
      },
      {
        "midi": 53,
        "time": 81.25,
        "duration": 0.417,
        "velocity": 1,
        "hand": "left"
      },
      {
        "midi": 58,
        "time": 81.25,
        "duration": 0.417,
        "velocity": 1,
        "hand": "left"
      },
      {
        "midi": 62,
        "time": 81.25,
        "duration": 0.417,
        "velocity": 1,
        "hand": "right"
      },
      {
        "midi": 70,
        "time": 81.25,
        "duration": 0.208,
        "velocity": 1,
        "hand": "right"
      },
      {
        "midi": 70,
        "time": 81.458,
        "duration": 0.208,
        "velocity": 1,
        "hand": "right"
      },
      {
        "midi": 46,
        "time": 81.667,
        "duration": 0.417,
        "velocity": 1,
        "hand": "left"
      },
      {
        "midi": 60,
        "time": 81.667,
        "duration": 0.833,
        "velocity": 1,
        "hand": "right"
      },
      {
        "midi": 72,
        "time": 81.667,
        "duration": 0.208,
        "velocity": 1,
        "hand": "right"
      },
      {
        "midi": 70,
        "time": 81.875,
        "duration": 0.208,
        "velocity": 1,
        "hand": "right"
      },
      {
        "midi": 53,
        "time": 82.083,
        "duration": 0.417,
        "velocity": 1,
        "hand": "left"
      },
      {
        "midi": 58,
        "time": 82.083,
        "duration": 0.417,
        "velocity": 1,
        "hand": "left"
      },
      {
        "midi": 62,
        "time": 82.083,
        "duration": 0.417,
        "velocity": 1,
        "hand": "right"
      },
      {
        "midi": 70,
        "time": 82.083,
        "duration": 0.208,
        "velocity": 1,
        "hand": "right"
      },
      {
        "midi": 70,
        "time": 82.292,
        "duration": 0.208,
        "velocity": 1,
        "hand": "right"
      },
      {
        "midi": 46,
        "time": 82.5,
        "duration": 0.417,
        "velocity": 1,
        "hand": "left"
      },
      {
        "midi": 60,
        "time": 82.5,
        "duration": 0.833,
        "velocity": 1,
        "hand": "right"
      },
      {
        "midi": 72,
        "time": 82.5,
        "duration": 0.208,
        "velocity": 1,
        "hand": "right"
      },
      {
        "midi": 70,
        "time": 82.708,
        "duration": 0.208,
        "velocity": 1,
        "hand": "right"
      },
      {
        "midi": 53,
        "time": 82.917,
        "duration": 0.417,
        "velocity": 1,
        "hand": "left"
      },
      {
        "midi": 58,
        "time": 82.917,
        "duration": 0.417,
        "velocity": 1,
        "hand": "left"
      },
      {
        "midi": 62,
        "time": 82.917,
        "duration": 0.417,
        "velocity": 1,
        "hand": "right"
      },
      {
        "midi": 69,
        "time": 82.917,
        "duration": 0.208,
        "velocity": 1,
        "hand": "right"
      },
      {
        "midi": 67,
        "time": 83.125,
        "duration": 0.208,
        "velocity": 1,
        "hand": "right"
      },
      {
        "midi": 51,
        "time": 83.333,
        "duration": 0.417,
        "velocity": 1,
        "hand": "left"
      },
      {
        "midi": 55,
        "time": 83.333,
        "duration": 0.417,
        "velocity": 1,
        "hand": "left"
      },
      {
        "midi": 58,
        "time": 83.333,
        "duration": 0.417,
        "velocity": 1,
        "hand": "left"
      },
      {
        "midi": 60,
        "time": 83.333,
        "duration": 0.833,
        "velocity": 1,
        "hand": "right"
      },
      {
        "midi": 65,
        "time": 83.333,
        "duration": 0.208,
        "velocity": 1,
        "hand": "right"
      },
      {
        "midi": 65,
        "time": 83.542,
        "duration": 0.208,
        "velocity": 1,
        "hand": "right"
      },
      {
        "midi": 67,
        "time": 83.75,
        "duration": 0.208,
        "velocity": 1,
        "hand": "right"
      },
      {
        "midi": 69,
        "time": 83.958,
        "duration": 0.208,
        "velocity": 1,
        "hand": "right"
      },
      {
        "midi": 58,
        "time": 84.167,
        "duration": 0.417,
        "velocity": 1,
        "hand": "left"
      },
      {
        "midi": 62,
        "time": 84.167,
        "duration": 0.417,
        "velocity": 1,
        "hand": "right"
      },
      {
        "midi": 65,
        "time": 84.167,
        "duration": 0.417,
        "velocity": 1,
        "hand": "right"
      },
      {
        "midi": 70,
        "time": 84.167,
        "duration": 0.208,
        "velocity": 1,
        "hand": "right"
      },
      {
        "midi": 72,
        "time": 84.375,
        "duration": 0.208,
        "velocity": 1,
        "hand": "right"
      },
      {
        "midi": 74,
        "time": 84.583,
        "duration": 0.208,
        "velocity": 1,
        "hand": "right"
      },
      {
        "midi": 76,
        "time": 84.792,
        "duration": 0.208,
        "velocity": 1,
        "hand": "right"
      },
      {
        "midi": 60,
        "time": 85,
        "duration": 0.833,
        "velocity": 1,
        "hand": "right"
      },
      {
        "midi": 63,
        "time": 85,
        "duration": 0.417,
        "velocity": 1,
        "hand": "right"
      },
      {
        "midi": 67,
        "time": 85,
        "duration": 0.417,
        "velocity": 1,
        "hand": "right"
      },
      {
        "midi": 77,
        "time": 85,
        "duration": 0.208,
        "velocity": 1,
        "hand": "right"
      },
      {
        "midi": 65,
        "time": 85.208,
        "duration": 0.208,
        "velocity": 1,
        "hand": "right"
      },
      {
        "midi": 67,
        "time": 85.417,
        "duration": 0.208,
        "velocity": 1,
        "hand": "right"
      },
      {
        "midi": 69,
        "time": 85.625,
        "duration": 0.208,
        "velocity": 1,
        "hand": "right"
      },
      {
        "midi": 58,
        "time": 85.833,
        "duration": 0.417,
        "velocity": 1,
        "hand": "left"
      },
      {
        "midi": 62,
        "time": 85.833,
        "duration": 0.417,
        "velocity": 1,
        "hand": "right"
      },
      {
        "midi": 65,
        "time": 85.833,
        "duration": 0.417,
        "velocity": 1,
        "hand": "right"
      },
      {
        "midi": 70,
        "time": 85.833,
        "duration": 0.208,
        "velocity": 1,
        "hand": "right"
      },
      {
        "midi": 72,
        "time": 86.042,
        "duration": 0.208,
        "velocity": 1,
        "hand": "right"
      },
      {
        "midi": 74,
        "time": 86.25,
        "duration": 0.208,
        "velocity": 1,
        "hand": "right"
      },
      {
        "midi": 76,
        "time": 86.458,
        "duration": 0.208,
        "velocity": 1,
        "hand": "right"
      },
      {
        "midi": 60,
        "time": 86.667,
        "duration": 0.833,
        "velocity": 1,
        "hand": "right"
      },
      {
        "midi": 63,
        "time": 86.667,
        "duration": 0.417,
        "velocity": 1,
        "hand": "right"
      },
      {
        "midi": 67,
        "time": 86.667,
        "duration": 0.417,
        "velocity": 1,
        "hand": "right"
      },
      {
        "midi": 77,
        "time": 86.667,
        "duration": 0.417,
        "velocity": 1,
        "hand": "right"
      },
      {
        "midi": 51,
        "time": 87.5,
        "duration": 0.417,
        "velocity": 1,
        "hand": "left"
      },
      {
        "midi": 58,
        "time": 87.5,
        "duration": 0.417,
        "velocity": 1,
        "hand": "left"
      },
      {
        "midi": 60,
        "time": 87.5,
        "duration": 0.833,
        "velocity": 1,
        "hand": "right"
      },
      {
        "midi": 67,
        "time": 87.5,
        "duration": 0.417,
        "velocity": 1,
        "hand": "right"
      },
      {
        "midi": 77,
        "time": 87.5,
        "duration": 0.417,
        "velocity": 1,
        "hand": "right"
      },
      {
        "midi": 51,
        "time": 88.333,
        "duration": 0.417,
        "velocity": 1,
        "hand": "left"
      },
      {
        "midi": 55,
        "time": 88.333,
        "duration": 0.417,
        "velocity": 1,
        "hand": "left"
      },
      {
        "midi": 58,
        "time": 88.333,
        "duration": 0.417,
        "velocity": 1,
        "hand": "left"
      },
      {
        "midi": 60,
        "time": 88.333,
        "duration": 0.833,
        "velocity": 1,
        "hand": "right"
      },
      {
        "midi": 63,
        "time": 88.333,
        "duration": 0.417,
        "velocity": 1,
        "hand": "right"
      },
      {
        "midi": 65,
        "time": 88.333,
        "duration": 0.417,
        "velocity": 1,
        "hand": "right"
      }
    ]
  },
  "notes1Hand": [
    {
      "midi": 63,
      "time": 0.833,
      "duration": 0.556,
      "velocity": 1,
      "hand": "right"
    },
    {
      "midi": 63,
      "time": 2.5,
      "duration": 0.556,
      "velocity": 1,
      "hand": "right"
    },
    {
      "midi": 76,
      "time": 4.167,
      "duration": 0.833,
      "velocity": 1,
      "hand": "right"
    },
    {
      "midi": 62,
      "time": 5.833,
      "duration": 0.556,
      "velocity": 1,
      "hand": "right"
    },
    {
      "midi": 74,
      "time": 6.667,
      "duration": 0.556,
      "velocity": 1,
      "hand": "right"
    },
    {
      "midi": 63,
      "time": 7.917,
      "duration": 0.556,
      "velocity": 1,
      "hand": "right"
    },
    {
      "midi": 63,
      "time": 9.167,
      "duration": 0.556,
      "velocity": 1,
      "hand": "right"
    },
    {
      "midi": 70,
      "time": 10.833,
      "duration": 0.833,
      "velocity": 1,
      "hand": "right"
    },
    {
      "midi": 70,
      "time": 11.667,
      "duration": 0.556,
      "velocity": 1,
      "hand": "right"
    },
    {
      "midi": 62,
      "time": 12.917,
      "duration": 0.556,
      "velocity": 1,
      "hand": "right"
    },
    {
      "midi": 65,
      "time": 14.167,
      "duration": 0.833,
      "velocity": 1,
      "hand": "right"
    },
    {
      "midi": 65,
      "time": 16.667,
      "duration": 0.556,
      "velocity": 1,
      "hand": "right"
    },
    {
      "midi": 63,
      "time": 17.917,
      "duration": 0.556,
      "velocity": 1,
      "hand": "right"
    },
    {
      "midi": 63,
      "time": 19.167,
      "duration": 0.556,
      "velocity": 1,
      "hand": "right"
    },
    {
      "midi": 76,
      "time": 20.833,
      "duration": 0.833,
      "velocity": 1,
      "hand": "right"
    },
    {
      "midi": 76,
      "time": 21.667,
      "duration": 0.556,
      "velocity": 1,
      "hand": "right"
    },
    {
      "midi": 62,
      "time": 22.917,
      "duration": 0.556,
      "velocity": 1,
      "hand": "right"
    },
    {
      "midi": 72,
      "time": 24.167,
      "duration": 0.833,
      "velocity": 1,
      "hand": "right"
    },
    {
      "midi": 63,
      "time": 25.833,
      "duration": 0.556,
      "velocity": 1,
      "hand": "right"
    },
    {
      "midi": 72,
      "time": 26.667,
      "duration": 0.556,
      "velocity": 1,
      "hand": "right"
    },
    {
      "midi": 62,
      "time": 27.917,
      "duration": 0.556,
      "velocity": 1,
      "hand": "right"
    },
    {
      "midi": 62,
      "time": 29.167,
      "duration": 0.556,
      "velocity": 1,
      "hand": "right"
    },
    {
      "midi": 65,
      "time": 31.667,
      "duration": 0.833,
      "velocity": 1,
      "hand": "right"
    },
    {
      "midi": 74,
      "time": 33.333,
      "duration": 0.556,
      "velocity": 1,
      "hand": "right"
    },
    {
      "midi": 74,
      "time": 34.167,
      "duration": 0.833,
      "velocity": 1,
      "hand": "right"
    },
    {
      "midi": 63,
      "time": 35.833,
      "duration": 0.556,
      "velocity": 1,
      "hand": "right"
    },
    {
      "midi": 74,
      "time": 36.667,
      "duration": 0.556,
      "velocity": 1,
      "hand": "right"
    },
    {
      "midi": 63,
      "time": 37.917,
      "duration": 0.556,
      "velocity": 1,
      "hand": "right"
    },
    {
      "midi": 63,
      "time": 39.167,
      "duration": 0.556,
      "velocity": 1,
      "hand": "right"
    },
    {
      "midi": 70,
      "time": 40.833,
      "duration": 0.833,
      "velocity": 1,
      "hand": "right"
    },
    {
      "midi": 70,
      "time": 41.667,
      "duration": 0.556,
      "velocity": 1,
      "hand": "right"
    },
    {
      "midi": 62,
      "time": 42.917,
      "duration": 0.556,
      "velocity": 1,
      "hand": "right"
    },
    {
      "midi": 65,
      "time": 45,
      "duration": 0.833,
      "velocity": 1,
      "hand": "right"
    },
    {
      "midi": 74,
      "time": 46.667,
      "duration": 0.556,
      "velocity": 1,
      "hand": "right"
    },
    {
      "midi": 63,
      "time": 47.917,
      "duration": 0.556,
      "velocity": 1,
      "hand": "right"
    },
    {
      "midi": 63,
      "time": 49.167,
      "duration": 0.556,
      "velocity": 1,
      "hand": "right"
    },
    {
      "midi": 72,
      "time": 50.833,
      "duration": 0.833,
      "velocity": 1,
      "hand": "right"
    },
    {
      "midi": 72,
      "time": 51.667,
      "duration": 0.556,
      "velocity": 1,
      "hand": "right"
    },
    {
      "midi": 63,
      "time": 52.917,
      "duration": 0.556,
      "velocity": 1,
      "hand": "right"
    },
    {
      "midi": 70,
      "time": 54.167,
      "duration": 0.833,
      "velocity": 1,
      "hand": "right"
    },
    {
      "midi": 62,
      "time": 55.833,
      "duration": 0.556,
      "velocity": 1,
      "hand": "right"
    },
    {
      "midi": 65,
      "time": 56.667,
      "duration": 1.667,
      "velocity": 1,
      "hand": "right"
    },
    {
      "midi": 65,
      "time": 58.333,
      "duration": 1.25,
      "velocity": 1,
      "hand": "right"
    },
    {
      "midi": 77,
      "time": 59.583,
      "duration": 0.556,
      "velocity": 1,
      "hand": "right"
    },
    {
      "midi": 77,
      "time": 60.417,
      "duration": 0.556,
      "velocity": 1,
      "hand": "right"
    },
    {
      "midi": 74,
      "time": 61.667,
      "duration": 0.556,
      "velocity": 1,
      "hand": "right"
    },
    {
      "midi": 63,
      "time": 62.917,
      "duration": 0.556,
      "velocity": 1,
      "hand": "right"
    },
    {
      "midi": 63,
      "time": 64.583,
      "duration": 0.556,
      "velocity": 1,
      "hand": "right"
    },
    {
      "midi": 63,
      "time": 65.417,
      "duration": 0.556,
      "velocity": 1,
      "hand": "right"
    },
    {
      "midi": 62,
      "time": 67.083,
      "duration": 0.556,
      "velocity": 1,
      "hand": "right"
    },
    {
      "midi": 62,
      "time": 67.917,
      "duration": 0.556,
      "velocity": 1,
      "hand": "right"
    },
    {
      "midi": 62,
      "time": 69.583,
      "duration": 0.556,
      "velocity": 1,
      "hand": "right"
    },
    {
      "midi": 77,
      "time": 71.667,
      "duration": 0.556,
      "velocity": 1,
      "hand": "right"
    },
    {
      "midi": 77,
      "time": 72.917,
      "duration": 0.556,
      "velocity": 1,
      "hand": "right"
    },
    {
      "midi": 74,
      "time": 74.167,
      "duration": 0.556,
      "velocity": 1,
      "hand": "right"
    },
    {
      "midi": 77,
      "time": 75.417,
      "duration": 0.556,
      "velocity": 1,
      "hand": "right"
    },
    {
      "midi": 63,
      "time": 77.083,
      "duration": 0.556,
      "velocity": 1,
      "hand": "right"
    },
    {
      "midi": 63,
      "time": 77.917,
      "duration": 0.556,
      "velocity": 1,
      "hand": "right"
    },
    {
      "midi": 63,
      "time": 79.583,
      "duration": 0.556,
      "velocity": 1,
      "hand": "right"
    },
    {
      "midi": 62,
      "time": 80.417,
      "duration": 0.556,
      "velocity": 1,
      "hand": "right"
    },
    {
      "midi": 62,
      "time": 82.083,
      "duration": 0.556,
      "velocity": 1,
      "hand": "right"
    },
    {
      "midi": 62,
      "time": 82.917,
      "duration": 0.556,
      "velocity": 1,
      "hand": "right"
    },
    {
      "midi": 65,
      "time": 84.167,
      "duration": 0.556,
      "velocity": 1,
      "hand": "right"
    },
    {
      "midi": 65,
      "time": 85.833,
      "duration": 0.556,
      "velocity": 1,
      "hand": "right"
    },
    {
      "midi": 77,
      "time": 86.667,
      "duration": 0.556,
      "velocity": 1,
      "hand": "right"
    },
    {
      "midi": 65,
      "time": 88.333,
      "duration": 0.556,
      "velocity": 1,
      "hand": "right"
    }
  ],
  "notes2Hands": [
    {
      "midi": 51,
      "time": 0,
      "duration": 0.833,
      "velocity": 1,
      "hand": "left"
    },
    {
      "midi": 55,
      "time": 0.417,
      "duration": 0.208,
      "velocity": 1,
      "hand": "left"
    },
    {
      "midi": 58,
      "time": 0.417,
      "duration": 0.208,
      "velocity": 1,
      "hand": "left"
    },
    {
      "midi": 60,
      "time": 0.417,
      "duration": 0.208,
      "velocity": 1,
      "hand": "right"
    },
    {
      "midi": 63,
      "time": 0.417,
      "duration": 0.208,
      "velocity": 1,
      "hand": "right"
    },
    {
      "midi": 55,
      "time": 0.625,
      "duration": 0.208,
      "velocity": 1,
      "hand": "left"
    },
    {
      "midi": 58,
      "time": 0.625,
      "duration": 0.208,
      "velocity": 1,
      "hand": "left"
    },
    {
      "midi": 60,
      "time": 0.625,
      "duration": 0.208,
      "velocity": 1,
      "hand": "right"
    },
    {
      "midi": 63,
      "time": 0.625,
      "duration": 0.208,
      "velocity": 1,
      "hand": "right"
    },
    {
      "midi": 55,
      "time": 0.833,
      "duration": 0.417,
      "velocity": 1,
      "hand": "left"
    },
    {
      "midi": 58,
      "time": 0.833,
      "duration": 0.417,
      "velocity": 1,
      "hand": "left"
    },
    {
      "midi": 60,
      "time": 0.833,
      "duration": 0.417,
      "velocity": 1,
      "hand": "right"
    },
    {
      "midi": 63,
      "time": 0.833,
      "duration": 0.417,
      "velocity": 1,
      "hand": "right"
    },
    {
      "midi": 55,
      "time": 1.25,
      "duration": 0.417,
      "velocity": 1,
      "hand": "left"
    },
    {
      "midi": 58,
      "time": 1.25,
      "duration": 0.417,
      "velocity": 1,
      "hand": "left"
    },
    {
      "midi": 60,
      "time": 1.25,
      "duration": 0.417,
      "velocity": 1,
      "hand": "right"
    },
    {
      "midi": 63,
      "time": 1.25,
      "duration": 0.417,
      "velocity": 1,
      "hand": "right"
    },
    {
      "midi": 46,
      "time": 1.667,
      "duration": 0.833,
      "velocity": 1,
      "hand": "left"
    },
    {
      "midi": 55,
      "time": 2.083,
      "duration": 0.208,
      "velocity": 1,
      "hand": "left"
    },
    {
      "midi": 58,
      "time": 2.083,
      "duration": 0.208,
      "velocity": 1,
      "hand": "left"
    },
    {
      "midi": 60,
      "time": 2.083,
      "duration": 0.208,
      "velocity": 1,
      "hand": "right"
    },
    {
      "midi": 63,
      "time": 2.083,
      "duration": 0.208,
      "velocity": 1,
      "hand": "right"
    },
    {
      "midi": 72,
      "time": 2.083,
      "duration": 0.208,
      "velocity": 1,
      "hand": "right"
    },
    {
      "midi": 55,
      "time": 2.292,
      "duration": 0.208,
      "velocity": 1,
      "hand": "left"
    },
    {
      "midi": 58,
      "time": 2.292,
      "duration": 0.208,
      "velocity": 1,
      "hand": "left"
    },
    {
      "midi": 60,
      "time": 2.292,
      "duration": 0.208,
      "velocity": 1,
      "hand": "right"
    },
    {
      "midi": 63,
      "time": 2.292,
      "duration": 0.208,
      "velocity": 1,
      "hand": "right"
    },
    {
      "midi": 74,
      "time": 2.292,
      "duration": 0.208,
      "velocity": 1,
      "hand": "right"
    },
    {
      "midi": 55,
      "time": 2.5,
      "duration": 0.417,
      "velocity": 1,
      "hand": "left"
    },
    {
      "midi": 58,
      "time": 2.5,
      "duration": 0.417,
      "velocity": 1,
      "hand": "left"
    },
    {
      "midi": 60,
      "time": 2.5,
      "duration": 0.417,
      "velocity": 1,
      "hand": "right"
    },
    {
      "midi": 63,
      "time": 2.5,
      "duration": 0.417,
      "velocity": 1,
      "hand": "right"
    },
    {
      "midi": 77,
      "time": 2.5,
      "duration": 0.208,
      "velocity": 1,
      "hand": "right"
    },
    {
      "midi": 76,
      "time": 2.708,
      "duration": 0.208,
      "velocity": 1,
      "hand": "right"
    },
    {
      "midi": 55,
      "time": 2.917,
      "duration": 0.417,
      "velocity": 1,
      "hand": "left"
    },
    {
      "midi": 58,
      "time": 2.917,
      "duration": 0.417,
      "velocity": 1,
      "hand": "left"
    },
    {
      "midi": 60,
      "time": 2.917,
      "duration": 0.417,
      "velocity": 1,
      "hand": "right"
    },
    {
      "midi": 63,
      "time": 2.917,
      "duration": 0.417,
      "velocity": 1,
      "hand": "right"
    },
    {
      "midi": 74,
      "time": 2.917,
      "duration": 0.208,
      "velocity": 1,
      "hand": "right"
    },
    {
      "midi": 72,
      "time": 3.125,
      "duration": 0.208,
      "velocity": 1,
      "hand": "right"
    },
    {
      "midi": 53,
      "time": 3.333,
      "duration": 0.833,
      "velocity": 1,
      "hand": "left"
    },
    {
      "midi": 76,
      "time": 3.333,
      "duration": 0.417,
      "velocity": 1,
      "hand": "right"
    },
    {
      "midi": 56,
      "time": 3.75,
      "duration": 0.208,
      "velocity": 1,
      "hand": "left"
    },
    {
      "midi": 58,
      "time": 3.75,
      "duration": 0.208,
      "velocity": 1,
      "hand": "left"
    },
    {
      "midi": 60,
      "time": 3.75,
      "duration": 0.417,
      "velocity": 1,
      "hand": "right"
    },
    {
      "midi": 62,
      "time": 3.75,
      "duration": 0.208,
      "velocity": 1,
      "hand": "right"
    },
    {
      "midi": 56,
      "time": 3.958,
      "duration": 0.208,
      "velocity": 1,
      "hand": "left"
    },
    {
      "midi": 58,
      "time": 3.958,
      "duration": 0.208,
      "velocity": 1,
      "hand": "left"
    },
    {
      "midi": 62,
      "time": 3.958,
      "duration": 0.208,
      "velocity": 1,
      "hand": "right"
    },
    {
      "midi": 56,
      "time": 4.167,
      "duration": 0.417,
      "velocity": 1,
      "hand": "left"
    },
    {
      "midi": 58,
      "time": 4.167,
      "duration": 0.417,
      "velocity": 1,
      "hand": "left"
    },
    {
      "midi": 62,
      "time": 4.167,
      "duration": 0.417,
      "velocity": 1,
      "hand": "right"
    },
    {
      "midi": 76,
      "time": 4.167,
      "duration": 0.833,
      "velocity": 1,
      "hand": "right"
    },
    {
      "midi": 56,
      "time": 4.583,
      "duration": 0.417,
      "velocity": 1,
      "hand": "left"
    },
    {
      "midi": 58,
      "time": 4.583,
      "duration": 0.417,
      "velocity": 1,
      "hand": "left"
    },
    {
      "midi": 60,
      "time": 4.583,
      "duration": 0.417,
      "velocity": 1,
      "hand": "right"
    },
    {
      "midi": 62,
      "time": 4.583,
      "duration": 0.417,
      "velocity": 1,
      "hand": "right"
    },
    {
      "midi": 46,
      "time": 5,
      "duration": 0.833,
      "velocity": 1,
      "hand": "left"
    },
    {
      "midi": 76,
      "time": 5,
      "duration": 0.417,
      "velocity": 1,
      "hand": "right"
    },
    {
      "midi": 56,
      "time": 5.417,
      "duration": 0.208,
      "velocity": 1,
      "hand": "left"
    },
    {
      "midi": 58,
      "time": 5.417,
      "duration": 0.208,
      "velocity": 1,
      "hand": "left"
    },
    {
      "midi": 60,
      "time": 5.417,
      "duration": 0.208,
      "velocity": 1,
      "hand": "right"
    },
    {
      "midi": 62,
      "time": 5.417,
      "duration": 0.208,
      "velocity": 1,
      "hand": "right"
    },
    {
      "midi": 74,
      "time": 5.417,
      "duration": 0.208,
      "velocity": 1,
      "hand": "right"
    },
    {
      "midi": 56,
      "time": 5.625,
      "duration": 0.208,
      "velocity": 1,
      "hand": "left"
    },
    {
      "midi": 58,
      "time": 5.625,
      "duration": 0.208,
      "velocity": 1,
      "hand": "left"
    },
    {
      "midi": 60,
      "time": 5.625,
      "duration": 0.208,
      "velocity": 1,
      "hand": "right"
    },
    {
      "midi": 62,
      "time": 5.625,
      "duration": 0.208,
      "velocity": 1,
      "hand": "right"
    },
    {
      "midi": 76,
      "time": 5.625,
      "duration": 0.208,
      "velocity": 1,
      "hand": "right"
    },
    {
      "midi": 56,
      "time": 5.833,
      "duration": 0.417,
      "velocity": 1,
      "hand": "left"
    },
    {
      "midi": 58,
      "time": 5.833,
      "duration": 0.417,
      "velocity": 1,
      "hand": "left"
    },
    {
      "midi": 60,
      "time": 5.833,
      "duration": 0.417,
      "velocity": 1,
      "hand": "right"
    },
    {
      "midi": 62,
      "time": 5.833,
      "duration": 0.417,
      "velocity": 1,
      "hand": "right"
    },
    {
      "midi": 77,
      "time": 5.833,
      "duration": 0.208,
      "velocity": 1,
      "hand": "right"
    },
    {
      "midi": 76,
      "time": 6.042,
      "duration": 0.208,
      "velocity": 1,
      "hand": "right"
    },
    {
      "midi": 56,
      "time": 6.25,
      "duration": 0.417,
      "velocity": 1,
      "hand": "left"
    },
    {
      "midi": 58,
      "time": 6.25,
      "duration": 0.417,
      "velocity": 1,
      "hand": "left"
    },
    {
      "midi": 60,
      "time": 6.25,
      "duration": 0.417,
      "velocity": 1,
      "hand": "right"
    },
    {
      "midi": 62,
      "time": 6.25,
      "duration": 0.417,
      "velocity": 1,
      "hand": "right"
    },
    {
      "midi": 74,
      "time": 6.25,
      "duration": 0.208,
      "velocity": 1,
      "hand": "right"
    },
    {
      "midi": 76,
      "time": 6.458,
      "duration": 0.208,
      "velocity": 1,
      "hand": "right"
    },
    {
      "midi": 51,
      "time": 6.667,
      "duration": 0.833,
      "velocity": 1,
      "hand": "left"
    },
    {
      "midi": 74,
      "time": 6.667,
      "duration": 0.417,
      "velocity": 1,
      "hand": "right"
    },
    {
      "midi": 55,
      "time": 7.083,
      "duration": 0.208,
      "velocity": 1,
      "hand": "left"
    },
    {
      "midi": 58,
      "time": 7.083,
      "duration": 0.208,
      "velocity": 1,
      "hand": "left"
    },
    {
      "midi": 60,
      "time": 7.083,
      "duration": 0.417,
      "velocity": 1,
      "hand": "right"
    },
    {
      "midi": 63,
      "time": 7.083,
      "duration": 0.208,
      "velocity": 1,
      "hand": "right"
    },
    {
      "midi": 55,
      "time": 7.292,
      "duration": 0.208,
      "velocity": 1,
      "hand": "left"
    },
    {
      "midi": 58,
      "time": 7.292,
      "duration": 0.208,
      "velocity": 1,
      "hand": "left"
    },
    {
      "midi": 63,
      "time": 7.292,
      "duration": 0.208,
      "velocity": 1,
      "hand": "right"
    },
    {
      "midi": 55,
      "time": 7.5,
      "duration": 0.417,
      "velocity": 1,
      "hand": "left"
    },
    {
      "midi": 58,
      "time": 7.5,
      "duration": 0.417,
      "velocity": 1,
      "hand": "left"
    },
    {
      "midi": 63,
      "time": 7.5,
      "duration": 0.417,
      "velocity": 1,
      "hand": "right"
    },
    {
      "midi": 72,
      "time": 7.5,
      "duration": 0.833,
      "velocity": 1,
      "hand": "right"
    },
    {
      "midi": 55,
      "time": 7.917,
      "duration": 0.417,
      "velocity": 1,
      "hand": "left"
    },
    {
      "midi": 58,
      "time": 7.917,
      "duration": 0.417,
      "velocity": 1,
      "hand": "left"
    },
    {
      "midi": 60,
      "time": 7.917,
      "duration": 0.417,
      "velocity": 1,
      "hand": "right"
    },
    {
      "midi": 63,
      "time": 7.917,
      "duration": 0.417,
      "velocity": 1,
      "hand": "right"
    },
    {
      "midi": 46,
      "time": 8.333,
      "duration": 0.833,
      "velocity": 1,
      "hand": "left"
    },
    {
      "midi": 72,
      "time": 8.333,
      "duration": 0.417,
      "velocity": 1,
      "hand": "right"
    },
    {
      "midi": 55,
      "time": 8.75,
      "duration": 0.208,
      "velocity": 1,
      "hand": "left"
    },
    {
      "midi": 58,
      "time": 8.75,
      "duration": 0.208,
      "velocity": 1,
      "hand": "left"
    },
    {
      "midi": 60,
      "time": 8.75,
      "duration": 0.208,
      "velocity": 1,
      "hand": "right"
    },
    {
      "midi": 63,
      "time": 8.75,
      "duration": 0.208,
      "velocity": 1,
      "hand": "right"
    },
    {
      "midi": 72,
      "time": 8.75,
      "duration": 0.208,
      "velocity": 1,
      "hand": "right"
    },
    {
      "midi": 55,
      "time": 8.958,
      "duration": 0.208,
      "velocity": 1,
      "hand": "left"
    },
    {
      "midi": 58,
      "time": 8.958,
      "duration": 0.208,
      "velocity": 1,
      "hand": "left"
    },
    {
      "midi": 60,
      "time": 8.958,
      "duration": 0.208,
      "velocity": 1,
      "hand": "right"
    },
    {
      "midi": 63,
      "time": 8.958,
      "duration": 0.208,
      "velocity": 1,
      "hand": "right"
    },
    {
      "midi": 72,
      "time": 8.958,
      "duration": 0.208,
      "velocity": 1,
      "hand": "right"
    },
    {
      "midi": 55,
      "time": 9.167,
      "duration": 0.417,
      "velocity": 1,
      "hand": "left"
    },
    {
      "midi": 58,
      "time": 9.167,
      "duration": 0.417,
      "velocity": 1,
      "hand": "left"
    },
    {
      "midi": 60,
      "time": 9.167,
      "duration": 0.417,
      "velocity": 1,
      "hand": "right"
    },
    {
      "midi": 63,
      "time": 9.167,
      "duration": 0.417,
      "velocity": 1,
      "hand": "right"
    },
    {
      "midi": 74,
      "time": 9.167,
      "duration": 0.208,
      "velocity": 1,
      "hand": "right"
    },
    {
      "midi": 72,
      "time": 9.375,
      "duration": 0.208,
      "velocity": 1,
      "hand": "right"
    },
    {
      "midi": 55,
      "time": 9.583,
      "duration": 0.417,
      "velocity": 1,
      "hand": "left"
    },
    {
      "midi": 58,
      "time": 9.583,
      "duration": 0.417,
      "velocity": 1,
      "hand": "left"
    },
    {
      "midi": 60,
      "time": 9.583,
      "duration": 0.417,
      "velocity": 1,
      "hand": "right"
    },
    {
      "midi": 63,
      "time": 9.583,
      "duration": 0.417,
      "velocity": 1,
      "hand": "right"
    },
    {
      "midi": 70,
      "time": 9.583,
      "duration": 0.208,
      "velocity": 1,
      "hand": "right"
    },
    {
      "midi": 69,
      "time": 9.792,
      "duration": 0.208,
      "velocity": 1,
      "hand": "right"
    },
    {
      "midi": 53,
      "time": 10,
      "duration": 0.833,
      "velocity": 1,
      "hand": "left"
    },
    {
      "midi": 72,
      "time": 10,
      "duration": 0.417,
      "velocity": 1,
      "hand": "right"
    },
    {
      "midi": 56,
      "time": 10.417,
      "duration": 0.208,
      "velocity": 1,
      "hand": "left"
    },
    {
      "midi": 58,
      "time": 10.417,
      "duration": 0.208,
      "velocity": 1,
      "hand": "left"
    },
    {
      "midi": 60,
      "time": 10.417,
      "duration": 0.417,
      "velocity": 1,
      "hand": "right"
    },
    {
      "midi": 62,
      "time": 10.417,
      "duration": 0.208,
      "velocity": 1,
      "hand": "right"
    },
    {
      "midi": 56,
      "time": 10.625,
      "duration": 0.208,
      "velocity": 1,
      "hand": "left"
    },
    {
      "midi": 58,
      "time": 10.625,
      "duration": 0.208,
      "velocity": 1,
      "hand": "left"
    },
    {
      "midi": 62,
      "time": 10.625,
      "duration": 0.208,
      "velocity": 1,
      "hand": "right"
    },
    {
      "midi": 56,
      "time": 10.833,
      "duration": 0.417,
      "velocity": 1,
      "hand": "left"
    },
    {
      "midi": 58,
      "time": 10.833,
      "duration": 0.417,
      "velocity": 1,
      "hand": "left"
    },
    {
      "midi": 62,
      "time": 10.833,
      "duration": 0.417,
      "velocity": 1,
      "hand": "right"
    },
    {
      "midi": 70,
      "time": 10.833,
      "duration": 0.833,
      "velocity": 1,
      "hand": "right"
    },
    {
      "midi": 56,
      "time": 11.25,
      "duration": 0.417,
      "velocity": 1,
      "hand": "left"
    },
    {
      "midi": 58,
      "time": 11.25,
      "duration": 0.417,
      "velocity": 1,
      "hand": "left"
    },
    {
      "midi": 60,
      "time": 11.25,
      "duration": 0.417,
      "velocity": 1,
      "hand": "right"
    },
    {
      "midi": 62,
      "time": 11.25,
      "duration": 0.417,
      "velocity": 1,
      "hand": "right"
    },
    {
      "midi": 46,
      "time": 11.667,
      "duration": 0.833,
      "velocity": 1,
      "hand": "left"
    },
    {
      "midi": 70,
      "time": 11.667,
      "duration": 0.417,
      "velocity": 1,
      "hand": "right"
    },
    {
      "midi": 56,
      "time": 12.083,
      "duration": 0.208,
      "velocity": 1,
      "hand": "left"
    },
    {
      "midi": 58,
      "time": 12.083,
      "duration": 0.208,
      "velocity": 1,
      "hand": "left"
    },
    {
      "midi": 60,
      "time": 12.083,
      "duration": 0.208,
      "velocity": 1,
      "hand": "right"
    },
    {
      "midi": 62,
      "time": 12.083,
      "duration": 0.208,
      "velocity": 1,
      "hand": "right"
    },
    {
      "midi": 70,
      "time": 12.083,
      "duration": 0.208,
      "velocity": 1,
      "hand": "right"
    },
    {
      "midi": 56,
      "time": 12.292,
      "duration": 0.208,
      "velocity": 1,
      "hand": "left"
    },
    {
      "midi": 58,
      "time": 12.292,
      "duration": 0.208,
      "velocity": 1,
      "hand": "left"
    },
    {
      "midi": 60,
      "time": 12.292,
      "duration": 0.208,
      "velocity": 1,
      "hand": "right"
    },
    {
      "midi": 62,
      "time": 12.292,
      "duration": 0.208,
      "velocity": 1,
      "hand": "right"
    },
    {
      "midi": 70,
      "time": 12.292,
      "duration": 0.208,
      "velocity": 1,
      "hand": "right"
    },
    {
      "midi": 56,
      "time": 12.5,
      "duration": 0.417,
      "velocity": 1,
      "hand": "left"
    },
    {
      "midi": 58,
      "time": 12.5,
      "duration": 0.417,
      "velocity": 1,
      "hand": "left"
    },
    {
      "midi": 60,
      "time": 12.5,
      "duration": 0.417,
      "velocity": 1,
      "hand": "right"
    },
    {
      "midi": 62,
      "time": 12.5,
      "duration": 0.417,
      "velocity": 1,
      "hand": "right"
    },
    {
      "midi": 72,
      "time": 12.5,
      "duration": 0.208,
      "velocity": 1,
      "hand": "right"
    },
    {
      "midi": 70,
      "time": 12.708,
      "duration": 0.208,
      "velocity": 1,
      "hand": "right"
    },
    {
      "midi": 56,
      "time": 12.917,
      "duration": 0.417,
      "velocity": 1,
      "hand": "left"
    },
    {
      "midi": 58,
      "time": 12.917,
      "duration": 0.417,
      "velocity": 1,
      "hand": "left"
    },
    {
      "midi": 60,
      "time": 12.917,
      "duration": 0.417,
      "velocity": 1,
      "hand": "right"
    },
    {
      "midi": 62,
      "time": 12.917,
      "duration": 0.417,
      "velocity": 1,
      "hand": "right"
    },
    {
      "midi": 69,
      "time": 12.917,
      "duration": 0.208,
      "velocity": 1,
      "hand": "right"
    },
    {
      "midi": 67,
      "time": 13.125,
      "duration": 0.208,
      "velocity": 1,
      "hand": "right"
    },
    {
      "midi": 51,
      "time": 13.333,
      "duration": 0.833,
      "velocity": 1,
      "hand": "left"
    },
    {
      "midi": 69,
      "time": 13.333,
      "duration": 0.417,
      "velocity": 1,
      "hand": "right"
    },
    {
      "midi": 55,
      "time": 13.75,
      "duration": 0.208,
      "velocity": 1,
      "hand": "left"
    },
    {
      "midi": 58,
      "time": 13.75,
      "duration": 0.208,
      "velocity": 1,
      "hand": "left"
    },
    {
      "midi": 60,
      "time": 13.75,
      "duration": 0.417,
      "velocity": 1,
      "hand": "right"
    },
    {
      "midi": 55,
      "time": 13.958,
      "duration": 0.208,
      "velocity": 1,
      "hand": "left"
    },
    {
      "midi": 58,
      "time": 13.958,
      "duration": 0.208,
      "velocity": 1,
      "hand": "left"
    },
    {
      "midi": 55,
      "time": 14.167,
      "duration": 0.417,
      "velocity": 1,
      "hand": "left"
    },
    {
      "midi": 58,
      "time": 14.167,
      "duration": 0.417,
      "velocity": 1,
      "hand": "left"
    },
    {
      "midi": 65,
      "time": 14.167,
      "duration": 0.833,
      "velocity": 1,
      "hand": "right"
    },
    {
      "midi": 55,
      "time": 14.583,
      "duration": 0.417,
      "velocity": 1,
      "hand": "left"
    },
    {
      "midi": 58,
      "time": 14.583,
      "duration": 0.417,
      "velocity": 1,
      "hand": "left"
    },
    {
      "midi": 60,
      "time": 14.583,
      "duration": 0.417,
      "velocity": 1,
      "hand": "right"
    },
    {
      "midi": 46,
      "time": 15,
      "duration": 0.833,
      "velocity": 1,
      "hand": "left"
    },
    {
      "midi": 65,
      "time": 15,
      "duration": 1.667,
      "velocity": 1,
      "hand": "right"
    },
    {
      "midi": 55,
      "time": 15.417,
      "duration": 0.208,
      "velocity": 1,
      "hand": "left"
    },
    {
      "midi": 58,
      "time": 15.417,
      "duration": 0.208,
      "velocity": 1,
      "hand": "left"
    },
    {
      "midi": 60,
      "time": 15.417,
      "duration": 0.208,
      "velocity": 1,
      "hand": "right"
    },
    {
      "midi": 55,
      "time": 15.625,
      "duration": 0.208,
      "velocity": 1,
      "hand": "left"
    },
    {
      "midi": 58,
      "time": 15.625,
      "duration": 0.208,
      "velocity": 1,
      "hand": "left"
    },
    {
      "midi": 60,
      "time": 15.625,
      "duration": 0.208,
      "velocity": 1,
      "hand": "right"
    },
    {
      "midi": 55,
      "time": 15.833,
      "duration": 0.417,
      "velocity": 1,
      "hand": "left"
    },
    {
      "midi": 58,
      "time": 15.833,
      "duration": 0.417,
      "velocity": 1,
      "hand": "left"
    },
    {
      "midi": 60,
      "time": 15.833,
      "duration": 0.417,
      "velocity": 1,
      "hand": "right"
    },
    {
      "midi": 55,
      "time": 16.25,
      "duration": 0.417,
      "velocity": 1,
      "hand": "left"
    },
    {
      "midi": 58,
      "time": 16.25,
      "duration": 0.417,
      "velocity": 1,
      "hand": "left"
    },
    {
      "midi": 60,
      "time": 16.25,
      "duration": 0.417,
      "velocity": 1,
      "hand": "right"
    },
    {
      "midi": 51,
      "time": 16.667,
      "duration": 0.833,
      "velocity": 1,
      "hand": "left"
    },
    {
      "midi": 65,
      "time": 16.667,
      "duration": 0.417,
      "velocity": 1,
      "hand": "right"
    },
    {
      "midi": 55,
      "time": 17.083,
      "duration": 0.208,
      "velocity": 1,
      "hand": "left"
    },
    {
      "midi": 58,
      "time": 17.083,
      "duration": 0.208,
      "velocity": 1,
      "hand": "left"
    },
    {
      "midi": 60,
      "time": 17.083,
      "duration": 0.208,
      "velocity": 1,
      "hand": "right"
    },
    {
      "midi": 63,
      "time": 17.083,
      "duration": 0.208,
      "velocity": 1,
      "hand": "right"
    },
    {
      "midi": 55,
      "time": 17.292,
      "duration": 0.208,
      "velocity": 1,
      "hand": "left"
    },
    {
      "midi": 58,
      "time": 17.292,
      "duration": 0.208,
      "velocity": 1,
      "hand": "left"
    },
    {
      "midi": 60,
      "time": 17.292,
      "duration": 0.208,
      "velocity": 1,
      "hand": "right"
    },
    {
      "midi": 63,
      "time": 17.292,
      "duration": 0.208,
      "velocity": 1,
      "hand": "right"
    },
    {
      "midi": 55,
      "time": 17.5,
      "duration": 0.417,
      "velocity": 1,
      "hand": "left"
    },
    {
      "midi": 58,
      "time": 17.5,
      "duration": 0.417,
      "velocity": 1,
      "hand": "left"
    },
    {
      "midi": 60,
      "time": 17.5,
      "duration": 0.417,
      "velocity": 1,
      "hand": "right"
    },
    {
      "midi": 63,
      "time": 17.5,
      "duration": 0.417,
      "velocity": 1,
      "hand": "right"
    },
    {
      "midi": 55,
      "time": 17.917,
      "duration": 0.417,
      "velocity": 1,
      "hand": "left"
    },
    {
      "midi": 58,
      "time": 17.917,
      "duration": 0.417,
      "velocity": 1,
      "hand": "left"
    },
    {
      "midi": 60,
      "time": 17.917,
      "duration": 0.417,
      "velocity": 1,
      "hand": "right"
    },
    {
      "midi": 63,
      "time": 17.917,
      "duration": 0.417,
      "velocity": 1,
      "hand": "right"
    },
    {
      "midi": 46,
      "time": 18.333,
      "duration": 0.833,
      "velocity": 1,
      "hand": "left"
    },
    {
      "midi": 55,
      "time": 18.75,
      "duration": 0.208,
      "velocity": 1,
      "hand": "left"
    },
    {
      "midi": 58,
      "time": 18.75,
      "duration": 0.208,
      "velocity": 1,
      "hand": "left"
    },
    {
      "midi": 60,
      "time": 18.75,
      "duration": 0.208,
      "velocity": 1,
      "hand": "right"
    },
    {
      "midi": 63,
      "time": 18.75,
      "duration": 0.208,
      "velocity": 1,
      "hand": "right"
    },
    {
      "midi": 72,
      "time": 18.75,
      "duration": 0.208,
      "velocity": 1,
      "hand": "right"
    },
    {
      "midi": 55,
      "time": 18.958,
      "duration": 0.208,
      "velocity": 1,
      "hand": "left"
    },
    {
      "midi": 58,
      "time": 18.958,
      "duration": 0.208,
      "velocity": 1,
      "hand": "left"
    },
    {
      "midi": 60,
      "time": 18.958,
      "duration": 0.208,
      "velocity": 1,
      "hand": "right"
    },
    {
      "midi": 63,
      "time": 18.958,
      "duration": 0.208,
      "velocity": 1,
      "hand": "right"
    },
    {
      "midi": 74,
      "time": 18.958,
      "duration": 0.208,
      "velocity": 1,
      "hand": "right"
    },
    {
      "midi": 55,
      "time": 19.167,
      "duration": 0.417,
      "velocity": 1,
      "hand": "left"
    },
    {
      "midi": 58,
      "time": 19.167,
      "duration": 0.417,
      "velocity": 1,
      "hand": "left"
    },
    {
      "midi": 60,
      "time": 19.167,
      "duration": 0.417,
      "velocity": 1,
      "hand": "right"
    },
    {
      "midi": 63,
      "time": 19.167,
      "duration": 0.417,
      "velocity": 1,
      "hand": "right"
    },
    {
      "midi": 77,
      "time": 19.167,
      "duration": 0.208,
      "velocity": 1,
      "hand": "right"
    },
    {
      "midi": 76,
      "time": 19.375,
      "duration": 0.208,
      "velocity": 1,
      "hand": "right"
    },
    {
      "midi": 55,
      "time": 19.583,
      "duration": 0.417,
      "velocity": 1,
      "hand": "left"
    },
    {
      "midi": 58,
      "time": 19.583,
      "duration": 0.417,
      "velocity": 1,
      "hand": "left"
    },
    {
      "midi": 60,
      "time": 19.583,
      "duration": 0.417,
      "velocity": 1,
      "hand": "right"
    },
    {
      "midi": 63,
      "time": 19.583,
      "duration": 0.417,
      "velocity": 1,
      "hand": "right"
    },
    {
      "midi": 74,
      "time": 19.583,
      "duration": 0.208,
      "velocity": 1,
      "hand": "right"
    },
    {
      "midi": 72,
      "time": 19.792,
      "duration": 0.208,
      "velocity": 1,
      "hand": "right"
    },
    {
      "midi": 53,
      "time": 20,
      "duration": 0.833,
      "velocity": 1,
      "hand": "left"
    },
    {
      "midi": 76,
      "time": 20,
      "duration": 0.417,
      "velocity": 1,
      "hand": "right"
    },
    {
      "midi": 56,
      "time": 20.417,
      "duration": 0.208,
      "velocity": 1,
      "hand": "left"
    },
    {
      "midi": 58,
      "time": 20.417,
      "duration": 0.208,
      "velocity": 1,
      "hand": "left"
    },
    {
      "midi": 60,
      "time": 20.417,
      "duration": 0.417,
      "velocity": 1,
      "hand": "right"
    },
    {
      "midi": 62,
      "time": 20.417,
      "duration": 0.208,
      "velocity": 1,
      "hand": "right"
    },
    {
      "midi": 56,
      "time": 20.625,
      "duration": 0.208,
      "velocity": 1,
      "hand": "left"
    },
    {
      "midi": 58,
      "time": 20.625,
      "duration": 0.208,
      "velocity": 1,
      "hand": "left"
    },
    {
      "midi": 62,
      "time": 20.625,
      "duration": 0.208,
      "velocity": 1,
      "hand": "right"
    },
    {
      "midi": 56,
      "time": 20.833,
      "duration": 0.417,
      "velocity": 1,
      "hand": "left"
    },
    {
      "midi": 58,
      "time": 20.833,
      "duration": 0.417,
      "velocity": 1,
      "hand": "left"
    },
    {
      "midi": 62,
      "time": 20.833,
      "duration": 0.417,
      "velocity": 1,
      "hand": "right"
    },
    {
      "midi": 76,
      "time": 20.833,
      "duration": 0.833,
      "velocity": 1,
      "hand": "right"
    },
    {
      "midi": 56,
      "time": 21.25,
      "duration": 0.417,
      "velocity": 1,
      "hand": "left"
    },
    {
      "midi": 58,
      "time": 21.25,
      "duration": 0.417,
      "velocity": 1,
      "hand": "left"
    },
    {
      "midi": 60,
      "time": 21.25,
      "duration": 0.417,
      "velocity": 1,
      "hand": "right"
    },
    {
      "midi": 62,
      "time": 21.25,
      "duration": 0.417,
      "velocity": 1,
      "hand": "right"
    },
    {
      "midi": 46,
      "time": 21.667,
      "duration": 0.833,
      "velocity": 1,
      "hand": "left"
    },
    {
      "midi": 76,
      "time": 21.667,
      "duration": 0.417,
      "velocity": 1,
      "hand": "right"
    },
    {
      "midi": 56,
      "time": 22.083,
      "duration": 0.208,
      "velocity": 1,
      "hand": "left"
    },
    {
      "midi": 58,
      "time": 22.083,
      "duration": 0.208,
      "velocity": 1,
      "hand": "left"
    },
    {
      "midi": 60,
      "time": 22.083,
      "duration": 0.208,
      "velocity": 1,
      "hand": "right"
    },
    {
      "midi": 62,
      "time": 22.083,
      "duration": 0.208,
      "velocity": 1,
      "hand": "right"
    },
    {
      "midi": 74,
      "time": 22.083,
      "duration": 0.208,
      "velocity": 1,
      "hand": "right"
    },
    {
      "midi": 56,
      "time": 22.292,
      "duration": 0.208,
      "velocity": 1,
      "hand": "left"
    },
    {
      "midi": 58,
      "time": 22.292,
      "duration": 0.208,
      "velocity": 1,
      "hand": "left"
    },
    {
      "midi": 60,
      "time": 22.292,
      "duration": 0.208,
      "velocity": 1,
      "hand": "right"
    },
    {
      "midi": 62,
      "time": 22.292,
      "duration": 0.208,
      "velocity": 1,
      "hand": "right"
    },
    {
      "midi": 76,
      "time": 22.292,
      "duration": 0.208,
      "velocity": 1,
      "hand": "right"
    },
    {
      "midi": 56,
      "time": 22.5,
      "duration": 0.417,
      "velocity": 1,
      "hand": "left"
    },
    {
      "midi": 58,
      "time": 22.5,
      "duration": 0.417,
      "velocity": 1,
      "hand": "left"
    },
    {
      "midi": 60,
      "time": 22.5,
      "duration": 0.417,
      "velocity": 1,
      "hand": "right"
    },
    {
      "midi": 62,
      "time": 22.5,
      "duration": 0.417,
      "velocity": 1,
      "hand": "right"
    },
    {
      "midi": 77,
      "time": 22.5,
      "duration": 0.208,
      "velocity": 1,
      "hand": "right"
    },
    {
      "midi": 76,
      "time": 22.708,
      "duration": 0.208,
      "velocity": 1,
      "hand": "right"
    },
    {
      "midi": 56,
      "time": 22.917,
      "duration": 0.417,
      "velocity": 1,
      "hand": "left"
    },
    {
      "midi": 58,
      "time": 22.917,
      "duration": 0.417,
      "velocity": 1,
      "hand": "left"
    },
    {
      "midi": 60,
      "time": 22.917,
      "duration": 0.417,
      "velocity": 1,
      "hand": "right"
    },
    {
      "midi": 62,
      "time": 22.917,
      "duration": 0.417,
      "velocity": 1,
      "hand": "right"
    },
    {
      "midi": 74,
      "time": 22.917,
      "duration": 0.208,
      "velocity": 1,
      "hand": "right"
    },
    {
      "midi": 76,
      "time": 23.125,
      "duration": 0.208,
      "velocity": 1,
      "hand": "right"
    },
    {
      "midi": 51,
      "time": 23.333,
      "duration": 0.833,
      "velocity": 1,
      "hand": "left"
    },
    {
      "midi": 74,
      "time": 23.333,
      "duration": 0.417,
      "velocity": 1,
      "hand": "right"
    },
    {
      "midi": 55,
      "time": 23.75,
      "duration": 0.208,
      "velocity": 1,
      "hand": "left"
    },
    {
      "midi": 58,
      "time": 23.75,
      "duration": 0.208,
      "velocity": 1,
      "hand": "left"
    },
    {
      "midi": 60,
      "time": 23.75,
      "duration": 0.417,
      "velocity": 1,
      "hand": "right"
    },
    {
      "midi": 63,
      "time": 23.75,
      "duration": 0.208,
      "velocity": 1,
      "hand": "right"
    },
    {
      "midi": 55,
      "time": 23.958,
      "duration": 0.208,
      "velocity": 1,
      "hand": "left"
    },
    {
      "midi": 58,
      "time": 23.958,
      "duration": 0.208,
      "velocity": 1,
      "hand": "left"
    },
    {
      "midi": 63,
      "time": 23.958,
      "duration": 0.208,
      "velocity": 1,
      "hand": "right"
    },
    {
      "midi": 55,
      "time": 24.167,
      "duration": 0.417,
      "velocity": 1,
      "hand": "left"
    },
    {
      "midi": 58,
      "time": 24.167,
      "duration": 0.417,
      "velocity": 1,
      "hand": "left"
    },
    {
      "midi": 63,
      "time": 24.167,
      "duration": 0.417,
      "velocity": 1,
      "hand": "right"
    },
    {
      "midi": 72,
      "time": 24.167,
      "duration": 0.833,
      "velocity": 1,
      "hand": "right"
    },
    {
      "midi": 55,
      "time": 24.583,
      "duration": 0.417,
      "velocity": 1,
      "hand": "left"
    },
    {
      "midi": 58,
      "time": 24.583,
      "duration": 0.417,
      "velocity": 1,
      "hand": "left"
    },
    {
      "midi": 60,
      "time": 24.583,
      "duration": 0.417,
      "velocity": 1,
      "hand": "right"
    },
    {
      "midi": 63,
      "time": 24.583,
      "duration": 0.417,
      "velocity": 1,
      "hand": "right"
    },
    {
      "midi": 46,
      "time": 25,
      "duration": 0.833,
      "velocity": 1,
      "hand": "left"
    },
    {
      "midi": 72,
      "time": 25,
      "duration": 0.417,
      "velocity": 1,
      "hand": "right"
    },
    {
      "midi": 55,
      "time": 25.417,
      "duration": 0.208,
      "velocity": 1,
      "hand": "left"
    },
    {
      "midi": 58,
      "time": 25.417,
      "duration": 0.208,
      "velocity": 1,
      "hand": "left"
    },
    {
      "midi": 60,
      "time": 25.417,
      "duration": 0.208,
      "velocity": 1,
      "hand": "right"
    },
    {
      "midi": 63,
      "time": 25.417,
      "duration": 0.208,
      "velocity": 1,
      "hand": "right"
    },
    {
      "midi": 72,
      "time": 25.417,
      "duration": 0.208,
      "velocity": 1,
      "hand": "right"
    },
    {
      "midi": 55,
      "time": 25.625,
      "duration": 0.208,
      "velocity": 1,
      "hand": "left"
    },
    {
      "midi": 58,
      "time": 25.625,
      "duration": 0.208,
      "velocity": 1,
      "hand": "left"
    },
    {
      "midi": 60,
      "time": 25.625,
      "duration": 0.208,
      "velocity": 1,
      "hand": "right"
    },
    {
      "midi": 63,
      "time": 25.625,
      "duration": 0.208,
      "velocity": 1,
      "hand": "right"
    },
    {
      "midi": 72,
      "time": 25.625,
      "duration": 0.208,
      "velocity": 1,
      "hand": "right"
    },
    {
      "midi": 55,
      "time": 25.833,
      "duration": 0.417,
      "velocity": 1,
      "hand": "left"
    },
    {
      "midi": 58,
      "time": 25.833,
      "duration": 0.417,
      "velocity": 1,
      "hand": "left"
    },
    {
      "midi": 60,
      "time": 25.833,
      "duration": 0.417,
      "velocity": 1,
      "hand": "right"
    },
    {
      "midi": 63,
      "time": 25.833,
      "duration": 0.417,
      "velocity": 1,
      "hand": "right"
    },
    {
      "midi": 74,
      "time": 25.833,
      "duration": 0.208,
      "velocity": 1,
      "hand": "right"
    },
    {
      "midi": 72,
      "time": 26.042,
      "duration": 0.208,
      "velocity": 1,
      "hand": "right"
    },
    {
      "midi": 55,
      "time": 26.25,
      "duration": 0.417,
      "velocity": 1,
      "hand": "left"
    },
    {
      "midi": 58,
      "time": 26.25,
      "duration": 0.417,
      "velocity": 1,
      "hand": "left"
    },
    {
      "midi": 60,
      "time": 26.25,
      "duration": 0.417,
      "velocity": 1,
      "hand": "right"
    },
    {
      "midi": 63,
      "time": 26.25,
      "duration": 0.417,
      "velocity": 1,
      "hand": "right"
    },
    {
      "midi": 70,
      "time": 26.25,
      "duration": 0.208,
      "velocity": 1,
      "hand": "right"
    },
    {
      "midi": 69,
      "time": 26.458,
      "duration": 0.208,
      "velocity": 1,
      "hand": "right"
    },
    {
      "midi": 53,
      "time": 26.667,
      "duration": 0.833,
      "velocity": 1,
      "hand": "left"
    },
    {
      "midi": 72,
      "time": 26.667,
      "duration": 0.417,
      "velocity": 1,
      "hand": "right"
    },
    {
      "midi": 56,
      "time": 27.083,
      "duration": 0.208,
      "velocity": 1,
      "hand": "left"
    },
    {
      "midi": 58,
      "time": 27.083,
      "duration": 0.208,
      "velocity": 1,
      "hand": "left"
    },
    {
      "midi": 60,
      "time": 27.083,
      "duration": 0.417,
      "velocity": 1,
      "hand": "right"
    },
    {
      "midi": 62,
      "time": 27.083,
      "duration": 0.208,
      "velocity": 1,
      "hand": "right"
    },
    {
      "midi": 56,
      "time": 27.292,
      "duration": 0.208,
      "velocity": 1,
      "hand": "left"
    },
    {
      "midi": 58,
      "time": 27.292,
      "duration": 0.208,
      "velocity": 1,
      "hand": "left"
    },
    {
      "midi": 62,
      "time": 27.292,
      "duration": 0.208,
      "velocity": 1,
      "hand": "right"
    },
    {
      "midi": 56,
      "time": 27.5,
      "duration": 0.417,
      "velocity": 1,
      "hand": "left"
    },
    {
      "midi": 58,
      "time": 27.5,
      "duration": 0.417,
      "velocity": 1,
      "hand": "left"
    },
    {
      "midi": 62,
      "time": 27.5,
      "duration": 0.417,
      "velocity": 1,
      "hand": "right"
    },
    {
      "midi": 70,
      "time": 27.5,
      "duration": 0.833,
      "velocity": 1,
      "hand": "right"
    },
    {
      "midi": 56,
      "time": 27.917,
      "duration": 0.417,
      "velocity": 1,
      "hand": "left"
    },
    {
      "midi": 58,
      "time": 27.917,
      "duration": 0.417,
      "velocity": 1,
      "hand": "left"
    },
    {
      "midi": 60,
      "time": 27.917,
      "duration": 0.417,
      "velocity": 1,
      "hand": "right"
    },
    {
      "midi": 62,
      "time": 27.917,
      "duration": 0.417,
      "velocity": 1,
      "hand": "right"
    },
    {
      "midi": 46,
      "time": 28.333,
      "duration": 0.833,
      "velocity": 1,
      "hand": "left"
    },
    {
      "midi": 70,
      "time": 28.333,
      "duration": 0.417,
      "velocity": 1,
      "hand": "right"
    },
    {
      "midi": 56,
      "time": 28.75,
      "duration": 0.208,
      "velocity": 1,
      "hand": "left"
    },
    {
      "midi": 58,
      "time": 28.75,
      "duration": 0.208,
      "velocity": 1,
      "hand": "left"
    },
    {
      "midi": 60,
      "time": 28.75,
      "duration": 0.208,
      "velocity": 1,
      "hand": "right"
    },
    {
      "midi": 62,
      "time": 28.75,
      "duration": 0.208,
      "velocity": 1,
      "hand": "right"
    },
    {
      "midi": 70,
      "time": 28.75,
      "duration": 0.208,
      "velocity": 1,
      "hand": "right"
    },
    {
      "midi": 56,
      "time": 28.958,
      "duration": 0.208,
      "velocity": 1,
      "hand": "left"
    },
    {
      "midi": 58,
      "time": 28.958,
      "duration": 0.208,
      "velocity": 1,
      "hand": "left"
    },
    {
      "midi": 60,
      "time": 28.958,
      "duration": 0.208,
      "velocity": 1,
      "hand": "right"
    },
    {
      "midi": 62,
      "time": 28.958,
      "duration": 0.208,
      "velocity": 1,
      "hand": "right"
    },
    {
      "midi": 70,
      "time": 28.958,
      "duration": 0.208,
      "velocity": 1,
      "hand": "right"
    },
    {
      "midi": 56,
      "time": 29.167,
      "duration": 0.417,
      "velocity": 1,
      "hand": "left"
    },
    {
      "midi": 58,
      "time": 29.167,
      "duration": 0.417,
      "velocity": 1,
      "hand": "left"
    },
    {
      "midi": 60,
      "time": 29.167,
      "duration": 0.417,
      "velocity": 1,
      "hand": "right"
    },
    {
      "midi": 62,
      "time": 29.167,
      "duration": 0.417,
      "velocity": 1,
      "hand": "right"
    },
    {
      "midi": 72,
      "time": 29.167,
      "duration": 0.208,
      "velocity": 1,
      "hand": "right"
    },
    {
      "midi": 70,
      "time": 29.375,
      "duration": 0.208,
      "velocity": 1,
      "hand": "right"
    },
    {
      "midi": 56,
      "time": 29.583,
      "duration": 0.417,
      "velocity": 1,
      "hand": "left"
    },
    {
      "midi": 58,
      "time": 29.583,
      "duration": 0.417,
      "velocity": 1,
      "hand": "left"
    },
    {
      "midi": 60,
      "time": 29.583,
      "duration": 0.417,
      "velocity": 1,
      "hand": "right"
    },
    {
      "midi": 62,
      "time": 29.583,
      "duration": 0.417,
      "velocity": 1,
      "hand": "right"
    },
    {
      "midi": 69,
      "time": 29.583,
      "duration": 0.208,
      "velocity": 1,
      "hand": "right"
    },
    {
      "midi": 67,
      "time": 29.792,
      "duration": 0.208,
      "velocity": 1,
      "hand": "right"
    },
    {
      "midi": 51,
      "time": 30,
      "duration": 0.833,
      "velocity": 1,
      "hand": "left"
    },
    {
      "midi": 60,
      "time": 30,
      "duration": 0.833,
      "velocity": 1,
      "hand": "right"
    },
    {
      "midi": 65,
      "time": 30,
      "duration": 1.667,
      "velocity": 1,
      "hand": "right"
    },
    {
      "midi": 55,
      "time": 30.417,
      "duration": 0.208,
      "velocity": 1,
      "hand": "left"
    },
    {
      "midi": 58,
      "time": 30.417,
      "duration": 0.208,
      "velocity": 1,
      "hand": "left"
    },
    {
      "midi": 55,
      "time": 30.625,
      "duration": 0.208,
      "velocity": 1,
      "hand": "left"
    },
    {
      "midi": 58,
      "time": 30.625,
      "duration": 0.208,
      "velocity": 1,
      "hand": "left"
    },
    {
      "midi": 55,
      "time": 30.833,
      "duration": 0.417,
      "velocity": 1,
      "hand": "left"
    },
    {
      "midi": 58,
      "time": 30.833,
      "duration": 0.417,
      "velocity": 1,
      "hand": "left"
    },
    {
      "midi": 55,
      "time": 31.25,
      "duration": 0.417,
      "velocity": 1,
      "hand": "left"
    },
    {
      "midi": 58,
      "time": 31.25,
      "duration": 0.417,
      "velocity": 1,
      "hand": "left"
    },
    {
      "midi": 55,
      "time": 31.667,
      "duration": 0.833,
      "velocity": 1,
      "hand": "left"
    },
    {
      "midi": 58,
      "time": 31.667,
      "duration": 0.833,
      "velocity": 1,
      "hand": "left"
    },
    {
      "midi": 65,
      "time": 31.667,
      "duration": 0.833,
      "velocity": 1,
      "hand": "right"
    },
    {
      "midi": 65,
      "time": 32.5,
      "duration": 0.625,
      "velocity": 1,
      "hand": "right"
    },
    {
      "midi": 65,
      "time": 33.125,
      "duration": 0.208,
      "velocity": 1,
      "hand": "right"
    },
    {
      "midi": 56,
      "time": 33.333,
      "duration": 0.833,
      "velocity": 1,
      "hand": "left"
    },
    {
      "midi": 74,
      "time": 33.333,
      "duration": 0.417,
      "velocity": 1,
      "hand": "right"
    },
    {
      "midi": 60,
      "time": 33.75,
      "duration": 0.417,
      "velocity": 1,
      "hand": "right"
    },
    {
      "midi": 60,
      "time": 33.75,
      "duration": 0.208,
      "velocity": 1,
      "hand": "right"
    },
    {
      "midi": 63,
      "time": 33.75,
      "duration": 0.208,
      "velocity": 1,
      "hand": "right"
    },
    {
      "midi": 60,
      "time": 33.958,
      "duration": 0.208,
      "velocity": 1,
      "hand": "right"
    },
    {
      "midi": 63,
      "time": 33.958,
      "duration": 0.208,
      "velocity": 1,
      "hand": "right"
    },
    {
      "midi": 60,
      "time": 34.167,
      "duration": 0.417,
      "velocity": 1,
      "hand": "right"
    },
    {
      "midi": 63,
      "time": 34.167,
      "duration": 0.417,
      "velocity": 1,
      "hand": "right"
    },
    {
      "midi": 74,
      "time": 34.167,
      "duration": 0.833,
      "velocity": 1,
      "hand": "right"
    },
    {
      "midi": 60,
      "time": 34.583,
      "duration": 0.417,
      "velocity": 1,
      "hand": "right"
    },
    {
      "midi": 63,
      "time": 34.583,
      "duration": 0.417,
      "velocity": 1,
      "hand": "right"
    },
    {
      "midi": 56,
      "time": 35,
      "duration": 0.833,
      "velocity": 1,
      "hand": "left"
    },
    {
      "midi": 60,
      "time": 35,
      "duration": 0.833,
      "velocity": 1,
      "hand": "right"
    },
    {
      "midi": 74,
      "time": 35,
      "duration": 0.417,
      "velocity": 1,
      "hand": "right"
    },
    {
      "midi": 60,
      "time": 35.417,
      "duration": 0.208,
      "velocity": 1,
      "hand": "right"
    },
    {
      "midi": 63,
      "time": 35.417,
      "duration": 0.208,
      "velocity": 1,
      "hand": "right"
    },
    {
      "midi": 76,
      "time": 35.417,
      "duration": 0.208,
      "velocity": 1,
      "hand": "right"
    },
    {
      "midi": 60,
      "time": 35.625,
      "duration": 0.208,
      "velocity": 1,
      "hand": "right"
    },
    {
      "midi": 63,
      "time": 35.625,
      "duration": 0.208,
      "velocity": 1,
      "hand": "right"
    },
    {
      "midi": 77,
      "time": 35.625,
      "duration": 0.208,
      "velocity": 1,
      "hand": "right"
    },
    {
      "midi": 60,
      "time": 35.833,
      "duration": 0.417,
      "velocity": 1,
      "hand": "right"
    },
    {
      "midi": 63,
      "time": 35.833,
      "duration": 0.417,
      "velocity": 1,
      "hand": "right"
    },
    {
      "midi": 79,
      "time": 35.833,
      "duration": 0.208,
      "velocity": 1,
      "hand": "right"
    },
    {
      "midi": 77,
      "time": 36.042,
      "duration": 0.208,
      "velocity": 1,
      "hand": "right"
    },
    {
      "midi": 60,
      "time": 36.25,
      "duration": 0.417,
      "velocity": 1,
      "hand": "right"
    },
    {
      "midi": 63,
      "time": 36.25,
      "duration": 0.417,
      "velocity": 1,
      "hand": "right"
    },
    {
      "midi": 76,
      "time": 36.25,
      "duration": 0.208,
      "velocity": 1,
      "hand": "right"
    },
    {
      "midi": 74,
      "time": 36.458,
      "duration": 0.208,
      "velocity": 1,
      "hand": "right"
    },
    {
      "midi": 51,
      "time": 36.667,
      "duration": 0.833,
      "velocity": 1,
      "hand": "left"
    },
    {
      "midi": 74,
      "time": 36.667,
      "duration": 0.417,
      "velocity": 1,
      "hand": "right"
    },
    {
      "midi": 55,
      "time": 37.083,
      "duration": 0.208,
      "velocity": 1,
      "hand": "left"
    },
    {
      "midi": 58,
      "time": 37.083,
      "duration": 0.208,
      "velocity": 1,
      "hand": "left"
    },
    {
      "midi": 60,
      "time": 37.083,
      "duration": 0.417,
      "velocity": 1,
      "hand": "right"
    },
    {
      "midi": 63,
      "time": 37.083,
      "duration": 0.208,
      "velocity": 1,
      "hand": "right"
    },
    {
      "midi": 55,
      "time": 37.292,
      "duration": 0.208,
      "velocity": 1,
      "hand": "left"
    },
    {
      "midi": 58,
      "time": 37.292,
      "duration": 0.208,
      "velocity": 1,
      "hand": "left"
    },
    {
      "midi": 63,
      "time": 37.292,
      "duration": 0.208,
      "velocity": 1,
      "hand": "right"
    },
    {
      "midi": 55,
      "time": 37.5,
      "duration": 0.417,
      "velocity": 1,
      "hand": "left"
    },
    {
      "midi": 58,
      "time": 37.5,
      "duration": 0.417,
      "velocity": 1,
      "hand": "left"
    },
    {
      "midi": 63,
      "time": 37.5,
      "duration": 0.417,
      "velocity": 1,
      "hand": "right"
    },
    {
      "midi": 72,
      "time": 37.5,
      "duration": 0.833,
      "velocity": 1,
      "hand": "right"
    },
    {
      "midi": 55,
      "time": 37.917,
      "duration": 0.417,
      "velocity": 1,
      "hand": "left"
    },
    {
      "midi": 58,
      "time": 37.917,
      "duration": 0.417,
      "velocity": 1,
      "hand": "left"
    },
    {
      "midi": 60,
      "time": 37.917,
      "duration": 0.417,
      "velocity": 1,
      "hand": "right"
    },
    {
      "midi": 63,
      "time": 37.917,
      "duration": 0.417,
      "velocity": 1,
      "hand": "right"
    },
    {
      "midi": 51,
      "time": 38.333,
      "duration": 0.833,
      "velocity": 1,
      "hand": "left"
    },
    {
      "midi": 60,
      "time": 38.333,
      "duration": 0.833,
      "velocity": 1,
      "hand": "right"
    },
    {
      "midi": 72,
      "time": 38.333,
      "duration": 0.417,
      "velocity": 1,
      "hand": "right"
    },
    {
      "midi": 55,
      "time": 38.75,
      "duration": 0.208,
      "velocity": 1,
      "hand": "left"
    },
    {
      "midi": 58,
      "time": 38.75,
      "duration": 0.208,
      "velocity": 1,
      "hand": "left"
    },
    {
      "midi": 63,
      "time": 38.75,
      "duration": 0.208,
      "velocity": 1,
      "hand": "right"
    },
    {
      "midi": 71,
      "time": 38.75,
      "duration": 0.208,
      "velocity": 1,
      "hand": "right"
    },
    {
      "midi": 55,
      "time": 38.958,
      "duration": 0.208,
      "velocity": 1,
      "hand": "left"
    },
    {
      "midi": 58,
      "time": 38.958,
      "duration": 0.208,
      "velocity": 1,
      "hand": "left"
    },
    {
      "midi": 63,
      "time": 38.958,
      "duration": 0.208,
      "velocity": 1,
      "hand": "right"
    },
    {
      "midi": 72,
      "time": 38.958,
      "duration": 0.208,
      "velocity": 1,
      "hand": "right"
    },
    {
      "midi": 55,
      "time": 39.167,
      "duration": 0.417,
      "velocity": 1,
      "hand": "left"
    },
    {
      "midi": 58,
      "time": 39.167,
      "duration": 0.417,
      "velocity": 1,
      "hand": "left"
    },
    {
      "midi": 63,
      "time": 39.167,
      "duration": 0.417,
      "velocity": 1,
      "hand": "right"
    },
    {
      "midi": 71,
      "time": 39.167,
      "duration": 0.208,
      "velocity": 1,
      "hand": "right"
    },
    {
      "midi": 72,
      "time": 39.375,
      "duration": 0.208,
      "velocity": 1,
      "hand": "right"
    },
    {
      "midi": 55,
      "time": 39.583,
      "duration": 0.417,
      "velocity": 1,
      "hand": "left"
    },
    {
      "midi": 58,
      "time": 39.583,
      "duration": 0.417,
      "velocity": 1,
      "hand": "left"
    },
    {
      "midi": 63,
      "time": 39.583,
      "duration": 0.417,
      "velocity": 1,
      "hand": "right"
    },
    {
      "midi": 76,
      "time": 39.583,
      "duration": 0.208,
      "velocity": 1,
      "hand": "right"
    },
    {
      "midi": 74,
      "time": 39.792,
      "duration": 0.208,
      "velocity": 1,
      "hand": "right"
    },
    {
      "midi": 46,
      "time": 40,
      "duration": 0.833,
      "velocity": 1,
      "hand": "left"
    },
    {
      "midi": 72,
      "time": 40,
      "duration": 0.417,
      "velocity": 1,
      "hand": "right"
    },
    {
      "midi": 53,
      "time": 40.417,
      "duration": 0.208,
      "velocity": 1,
      "hand": "left"
    },
    {
      "midi": 58,
      "time": 40.417,
      "duration": 0.208,
      "velocity": 1,
      "hand": "left"
    },
    {
      "midi": 60,
      "time": 40.417,
      "duration": 0.417,
      "velocity": 1,
      "hand": "right"
    },
    {
      "midi": 62,
      "time": 40.417,
      "duration": 0.208,
      "velocity": 1,
      "hand": "right"
    },
    {
      "midi": 53,
      "time": 40.625,
      "duration": 0.208,
      "velocity": 1,
      "hand": "left"
    },
    {
      "midi": 58,
      "time": 40.625,
      "duration": 0.208,
      "velocity": 1,
      "hand": "left"
    },
    {
      "midi": 62,
      "time": 40.625,
      "duration": 0.208,
      "velocity": 1,
      "hand": "right"
    },
    {
      "midi": 53,
      "time": 40.833,
      "duration": 0.417,
      "velocity": 1,
      "hand": "left"
    },
    {
      "midi": 58,
      "time": 40.833,
      "duration": 0.417,
      "velocity": 1,
      "hand": "left"
    },
    {
      "midi": 62,
      "time": 40.833,
      "duration": 0.417,
      "velocity": 1,
      "hand": "right"
    },
    {
      "midi": 70,
      "time": 40.833,
      "duration": 0.833,
      "velocity": 1,
      "hand": "right"
    },
    {
      "midi": 53,
      "time": 41.25,
      "duration": 0.417,
      "velocity": 1,
      "hand": "left"
    },
    {
      "midi": 58,
      "time": 41.25,
      "duration": 0.417,
      "velocity": 1,
      "hand": "left"
    },
    {
      "midi": 60,
      "time": 41.25,
      "duration": 0.417,
      "velocity": 1,
      "hand": "right"
    },
    {
      "midi": 62,
      "time": 41.25,
      "duration": 0.417,
      "velocity": 1,
      "hand": "right"
    },
    {
      "midi": 46,
      "time": 41.667,
      "duration": 0.833,
      "velocity": 1,
      "hand": "left"
    },
    {
      "midi": 60,
      "time": 41.667,
      "duration": 0.833,
      "velocity": 1,
      "hand": "right"
    },
    {
      "midi": 70,
      "time": 41.667,
      "duration": 0.417,
      "velocity": 1,
      "hand": "right"
    },
    {
      "midi": 53,
      "time": 42.083,
      "duration": 0.208,
      "velocity": 1,
      "hand": "left"
    },
    {
      "midi": 58,
      "time": 42.083,
      "duration": 0.208,
      "velocity": 1,
      "hand": "left"
    },
    {
      "midi": 62,
      "time": 42.083,
      "duration": 0.208,
      "velocity": 1,
      "hand": "right"
    },
    {
      "midi": 69,
      "time": 42.083,
      "duration": 0.208,
      "velocity": 1,
      "hand": "right"
    },
    {
      "midi": 53,
      "time": 42.292,
      "duration": 0.208,
      "velocity": 1,
      "hand": "left"
    },
    {
      "midi": 58,
      "time": 42.292,
      "duration": 0.208,
      "velocity": 1,
      "hand": "left"
    },
    {
      "midi": 62,
      "time": 42.292,
      "duration": 0.208,
      "velocity": 1,
      "hand": "right"
    },
    {
      "midi": 70,
      "time": 42.292,
      "duration": 0.208,
      "velocity": 1,
      "hand": "right"
    },
    {
      "midi": 53,
      "time": 42.5,
      "duration": 0.417,
      "velocity": 1,
      "hand": "left"
    },
    {
      "midi": 58,
      "time": 42.5,
      "duration": 0.417,
      "velocity": 1,
      "hand": "left"
    },
    {
      "midi": 62,
      "time": 42.5,
      "duration": 0.417,
      "velocity": 1,
      "hand": "right"
    },
    {
      "midi": 69,
      "time": 42.5,
      "duration": 0.208,
      "velocity": 1,
      "hand": "right"
    },
    {
      "midi": 70,
      "time": 42.708,
      "duration": 0.208,
      "velocity": 1,
      "hand": "right"
    },
    {
      "midi": 53,
      "time": 42.917,
      "duration": 0.417,
      "velocity": 1,
      "hand": "left"
    },
    {
      "midi": 58,
      "time": 42.917,
      "duration": 0.417,
      "velocity": 1,
      "hand": "left"
    },
    {
      "midi": 62,
      "time": 42.917,
      "duration": 0.417,
      "velocity": 1,
      "hand": "right"
    },
    {
      "midi": 74,
      "time": 42.917,
      "duration": 0.208,
      "velocity": 1,
      "hand": "right"
    },
    {
      "midi": 72,
      "time": 43.125,
      "duration": 0.208,
      "velocity": 1,
      "hand": "right"
    },
    {
      "midi": 51,
      "time": 43.333,
      "duration": 0.833,
      "velocity": 1,
      "hand": "left"
    },
    {
      "midi": 65,
      "time": 43.333,
      "duration": 1.667,
      "velocity": 1,
      "hand": "right"
    },
    {
      "midi": 55,
      "time": 43.75,
      "duration": 0.208,
      "velocity": 1,
      "hand": "left"
    },
    {
      "midi": 58,
      "time": 43.75,
      "duration": 0.208,
      "velocity": 1,
      "hand": "left"
    },
    {
      "midi": 55,
      "time": 43.958,
      "duration": 0.208,
      "velocity": 1,
      "hand": "left"
    },
    {
      "midi": 58,
      "time": 43.958,
      "duration": 0.208,
      "velocity": 1,
      "hand": "left"
    },
    {
      "midi": 55,
      "time": 44.167,
      "duration": 0.417,
      "velocity": 1,
      "hand": "left"
    },
    {
      "midi": 58,
      "time": 44.167,
      "duration": 0.417,
      "velocity": 1,
      "hand": "left"
    },
    {
      "midi": 55,
      "time": 44.583,
      "duration": 0.417,
      "velocity": 1,
      "hand": "left"
    },
    {
      "midi": 58,
      "time": 44.583,
      "duration": 0.417,
      "velocity": 1,
      "hand": "left"
    },
    {
      "midi": 51,
      "time": 45,
      "duration": 0.833,
      "velocity": 1,
      "hand": "left"
    },
    {
      "midi": 65,
      "time": 45,
      "duration": 0.833,
      "velocity": 1,
      "hand": "right"
    },
    {
      "midi": 55,
      "time": 45.417,
      "duration": 0.208,
      "velocity": 1,
      "hand": "left"
    },
    {
      "midi": 58,
      "time": 45.417,
      "duration": 0.208,
      "velocity": 1,
      "hand": "left"
    },
    {
      "midi": 55,
      "time": 45.625,
      "duration": 0.208,
      "velocity": 1,
      "hand": "left"
    },
    {
      "midi": 58,
      "time": 45.625,
      "duration": 0.208,
      "velocity": 1,
      "hand": "left"
    },
    {
      "midi": 55,
      "time": 45.833,
      "duration": 0.417,
      "velocity": 1,
      "hand": "left"
    },
    {
      "midi": 58,
      "time": 45.833,
      "duration": 0.417,
      "velocity": 1,
      "hand": "left"
    },
    {
      "midi": 65,
      "time": 45.833,
      "duration": 0.625,
      "velocity": 1,
      "hand": "right"
    },
    {
      "midi": 55,
      "time": 46.25,
      "duration": 0.417,
      "velocity": 1,
      "hand": "left"
    },
    {
      "midi": 58,
      "time": 46.25,
      "duration": 0.417,
      "velocity": 1,
      "hand": "left"
    },
    {
      "midi": 65,
      "time": 46.458,
      "duration": 0.208,
      "velocity": 1,
      "hand": "right"
    },
    {
      "midi": 56,
      "time": 46.667,
      "duration": 0.833,
      "velocity": 1,
      "hand": "left"
    },
    {
      "midi": 74,
      "time": 46.667,
      "duration": 0.417,
      "velocity": 1,
      "hand": "right"
    },
    {
      "midi": 60,
      "time": 47.083,
      "duration": 0.417,
      "velocity": 1,
      "hand": "right"
    },
    {
      "midi": 60,
      "time": 47.083,
      "duration": 0.208,
      "velocity": 1,
      "hand": "right"
    },
    {
      "midi": 63,
      "time": 47.083,
      "duration": 0.208,
      "velocity": 1,
      "hand": "right"
    },
    {
      "midi": 60,
      "time": 47.292,
      "duration": 0.208,
      "velocity": 1,
      "hand": "right"
    },
    {
      "midi": 63,
      "time": 47.292,
      "duration": 0.208,
      "velocity": 1,
      "hand": "right"
    },
    {
      "midi": 60,
      "time": 47.5,
      "duration": 0.417,
      "velocity": 1,
      "hand": "right"
    },
    {
      "midi": 63,
      "time": 47.5,
      "duration": 0.417,
      "velocity": 1,
      "hand": "right"
    },
    {
      "midi": 74,
      "time": 47.5,
      "duration": 0.833,
      "velocity": 1,
      "hand": "right"
    },
    {
      "midi": 60,
      "time": 47.917,
      "duration": 0.417,
      "velocity": 1,
      "hand": "right"
    },
    {
      "midi": 63,
      "time": 47.917,
      "duration": 0.417,
      "velocity": 1,
      "hand": "right"
    },
    {
      "midi": 56,
      "time": 48.333,
      "duration": 0.833,
      "velocity": 1,
      "hand": "left"
    },
    {
      "midi": 60,
      "time": 48.333,
      "duration": 0.833,
      "velocity": 1,
      "hand": "right"
    },
    {
      "midi": 74,
      "time": 48.333,
      "duration": 0.417,
      "velocity": 1,
      "hand": "right"
    },
    {
      "midi": 60,
      "time": 48.75,
      "duration": 0.208,
      "velocity": 1,
      "hand": "right"
    },
    {
      "midi": 63,
      "time": 48.75,
      "duration": 0.208,
      "velocity": 1,
      "hand": "right"
    },
    {
      "midi": 76,
      "time": 48.75,
      "duration": 0.208,
      "velocity": 1,
      "hand": "right"
    },
    {
      "midi": 60,
      "time": 48.958,
      "duration": 0.208,
      "velocity": 1,
      "hand": "right"
    },
    {
      "midi": 63,
      "time": 48.958,
      "duration": 0.208,
      "velocity": 1,
      "hand": "right"
    },
    {
      "midi": 77,
      "time": 48.958,
      "duration": 0.208,
      "velocity": 1,
      "hand": "right"
    },
    {
      "midi": 60,
      "time": 49.167,
      "duration": 0.417,
      "velocity": 1,
      "hand": "right"
    },
    {
      "midi": 63,
      "time": 49.167,
      "duration": 0.417,
      "velocity": 1,
      "hand": "right"
    },
    {
      "midi": 79,
      "time": 49.167,
      "duration": 0.208,
      "velocity": 1,
      "hand": "right"
    },
    {
      "midi": 77,
      "time": 49.375,
      "duration": 0.208,
      "velocity": 1,
      "hand": "right"
    },
    {
      "midi": 60,
      "time": 49.583,
      "duration": 0.417,
      "velocity": 1,
      "hand": "right"
    },
    {
      "midi": 63,
      "time": 49.583,
      "duration": 0.417,
      "velocity": 1,
      "hand": "right"
    },
    {
      "midi": 76,
      "time": 49.583,
      "duration": 0.208,
      "velocity": 1,
      "hand": "right"
    },
    {
      "midi": 74,
      "time": 49.792,
      "duration": 0.208,
      "velocity": 1,
      "hand": "right"
    },
    {
      "midi": 51,
      "time": 50,
      "duration": 0.833,
      "velocity": 1,
      "hand": "left"
    },
    {
      "midi": 74,
      "time": 50,
      "duration": 0.417,
      "velocity": 1,
      "hand": "right"
    },
    {
      "midi": 55,
      "time": 50.417,
      "duration": 0.208,
      "velocity": 1,
      "hand": "left"
    },
    {
      "midi": 58,
      "time": 50.417,
      "duration": 0.208,
      "velocity": 1,
      "hand": "left"
    },
    {
      "midi": 60,
      "time": 50.417,
      "duration": 0.417,
      "velocity": 1,
      "hand": "right"
    },
    {
      "midi": 63,
      "time": 50.417,
      "duration": 0.208,
      "velocity": 1,
      "hand": "right"
    },
    {
      "midi": 55,
      "time": 50.625,
      "duration": 0.208,
      "velocity": 1,
      "hand": "left"
    },
    {
      "midi": 58,
      "time": 50.625,
      "duration": 0.208,
      "velocity": 1,
      "hand": "left"
    },
    {
      "midi": 63,
      "time": 50.625,
      "duration": 0.208,
      "velocity": 1,
      "hand": "right"
    },
    {
      "midi": 55,
      "time": 50.833,
      "duration": 0.417,
      "velocity": 1,
      "hand": "left"
    },
    {
      "midi": 58,
      "time": 50.833,
      "duration": 0.417,
      "velocity": 1,
      "hand": "left"
    },
    {
      "midi": 63,
      "time": 50.833,
      "duration": 0.417,
      "velocity": 1,
      "hand": "right"
    },
    {
      "midi": 72,
      "time": 50.833,
      "duration": 0.833,
      "velocity": 1,
      "hand": "right"
    },
    {
      "midi": 55,
      "time": 51.25,
      "duration": 0.417,
      "velocity": 1,
      "hand": "left"
    },
    {
      "midi": 58,
      "time": 51.25,
      "duration": 0.417,
      "velocity": 1,
      "hand": "left"
    },
    {
      "midi": 60,
      "time": 51.25,
      "duration": 0.417,
      "velocity": 1,
      "hand": "right"
    },
    {
      "midi": 63,
      "time": 51.25,
      "duration": 0.417,
      "velocity": 1,
      "hand": "right"
    },
    {
      "midi": 51,
      "time": 51.667,
      "duration": 0.833,
      "velocity": 1,
      "hand": "left"
    },
    {
      "midi": 60,
      "time": 51.667,
      "duration": 0.833,
      "velocity": 1,
      "hand": "right"
    },
    {
      "midi": 72,
      "time": 51.667,
      "duration": 0.417,
      "velocity": 1,
      "hand": "right"
    },
    {
      "midi": 55,
      "time": 52.083,
      "duration": 0.208,
      "velocity": 1,
      "hand": "left"
    },
    {
      "midi": 58,
      "time": 52.083,
      "duration": 0.208,
      "velocity": 1,
      "hand": "left"
    },
    {
      "midi": 63,
      "time": 52.083,
      "duration": 0.208,
      "velocity": 1,
      "hand": "right"
    },
    {
      "midi": 71,
      "time": 52.083,
      "duration": 0.208,
      "velocity": 1,
      "hand": "right"
    },
    {
      "midi": 55,
      "time": 52.292,
      "duration": 0.208,
      "velocity": 1,
      "hand": "left"
    },
    {
      "midi": 58,
      "time": 52.292,
      "duration": 0.208,
      "velocity": 1,
      "hand": "left"
    },
    {
      "midi": 63,
      "time": 52.292,
      "duration": 0.208,
      "velocity": 1,
      "hand": "right"
    },
    {
      "midi": 72,
      "time": 52.292,
      "duration": 0.208,
      "velocity": 1,
      "hand": "right"
    },
    {
      "midi": 55,
      "time": 52.5,
      "duration": 0.417,
      "velocity": 1,
      "hand": "left"
    },
    {
      "midi": 58,
      "time": 52.5,
      "duration": 0.417,
      "velocity": 1,
      "hand": "left"
    },
    {
      "midi": 63,
      "time": 52.5,
      "duration": 0.417,
      "velocity": 1,
      "hand": "right"
    },
    {
      "midi": 71,
      "time": 52.5,
      "duration": 0.208,
      "velocity": 1,
      "hand": "right"
    },
    {
      "midi": 72,
      "time": 52.708,
      "duration": 0.208,
      "velocity": 1,
      "hand": "right"
    },
    {
      "midi": 55,
      "time": 52.917,
      "duration": 0.417,
      "velocity": 1,
      "hand": "left"
    },
    {
      "midi": 58,
      "time": 52.917,
      "duration": 0.417,
      "velocity": 1,
      "hand": "left"
    },
    {
      "midi": 63,
      "time": 52.917,
      "duration": 0.417,
      "velocity": 1,
      "hand": "right"
    },
    {
      "midi": 76,
      "time": 52.917,
      "duration": 0.208,
      "velocity": 1,
      "hand": "right"
    },
    {
      "midi": 74,
      "time": 53.125,
      "duration": 0.208,
      "velocity": 1,
      "hand": "right"
    },
    {
      "midi": 46,
      "time": 53.333,
      "duration": 0.833,
      "velocity": 1,
      "hand": "left"
    },
    {
      "midi": 72,
      "time": 53.333,
      "duration": 0.417,
      "velocity": 1,
      "hand": "right"
    },
    {
      "midi": 53,
      "time": 53.75,
      "duration": 0.208,
      "velocity": 1,
      "hand": "left"
    },
    {
      "midi": 58,
      "time": 53.75,
      "duration": 0.208,
      "velocity": 1,
      "hand": "left"
    },
    {
      "midi": 60,
      "time": 53.75,
      "duration": 0.417,
      "velocity": 1,
      "hand": "right"
    },
    {
      "midi": 62,
      "time": 53.75,
      "duration": 0.208,
      "velocity": 1,
      "hand": "right"
    },
    {
      "midi": 53,
      "time": 53.958,
      "duration": 0.208,
      "velocity": 1,
      "hand": "left"
    },
    {
      "midi": 58,
      "time": 53.958,
      "duration": 0.208,
      "velocity": 1,
      "hand": "left"
    },
    {
      "midi": 62,
      "time": 53.958,
      "duration": 0.208,
      "velocity": 1,
      "hand": "right"
    },
    {
      "midi": 53,
      "time": 54.167,
      "duration": 0.417,
      "velocity": 1,
      "hand": "left"
    },
    {
      "midi": 58,
      "time": 54.167,
      "duration": 0.417,
      "velocity": 1,
      "hand": "left"
    },
    {
      "midi": 62,
      "time": 54.167,
      "duration": 0.417,
      "velocity": 1,
      "hand": "right"
    },
    {
      "midi": 70,
      "time": 54.167,
      "duration": 0.833,
      "velocity": 1,
      "hand": "right"
    },
    {
      "midi": 53,
      "time": 54.583,
      "duration": 0.417,
      "velocity": 1,
      "hand": "left"
    },
    {
      "midi": 58,
      "time": 54.583,
      "duration": 0.417,
      "velocity": 1,
      "hand": "left"
    },
    {
      "midi": 60,
      "time": 54.583,
      "duration": 0.417,
      "velocity": 1,
      "hand": "right"
    },
    {
      "midi": 62,
      "time": 54.583,
      "duration": 0.417,
      "velocity": 1,
      "hand": "right"
    },
    {
      "midi": 46,
      "time": 55,
      "duration": 0.833,
      "velocity": 1,
      "hand": "left"
    },
    {
      "midi": 60,
      "time": 55,
      "duration": 0.833,
      "velocity": 1,
      "hand": "right"
    },
    {
      "midi": 70,
      "time": 55,
      "duration": 0.417,
      "velocity": 1,
      "hand": "right"
    },
    {
      "midi": 53,
      "time": 55.417,
      "duration": 0.208,
      "velocity": 1,
      "hand": "left"
    },
    {
      "midi": 58,
      "time": 55.417,
      "duration": 0.208,
      "velocity": 1,
      "hand": "left"
    },
    {
      "midi": 62,
      "time": 55.417,
      "duration": 0.208,
      "velocity": 1,
      "hand": "right"
    },
    {
      "midi": 69,
      "time": 55.417,
      "duration": 0.208,
      "velocity": 1,
      "hand": "right"
    },
    {
      "midi": 53,
      "time": 55.625,
      "duration": 0.208,
      "velocity": 1,
      "hand": "left"
    },
    {
      "midi": 58,
      "time": 55.625,
      "duration": 0.208,
      "velocity": 1,
      "hand": "left"
    },
    {
      "midi": 62,
      "time": 55.625,
      "duration": 0.208,
      "velocity": 1,
      "hand": "right"
    },
    {
      "midi": 70,
      "time": 55.625,
      "duration": 0.208,
      "velocity": 1,
      "hand": "right"
    },
    {
      "midi": 53,
      "time": 55.833,
      "duration": 0.417,
      "velocity": 1,
      "hand": "left"
    },
    {
      "midi": 58,
      "time": 55.833,
      "duration": 0.417,
      "velocity": 1,
      "hand": "left"
    },
    {
      "midi": 62,
      "time": 55.833,
      "duration": 0.417,
      "velocity": 1,
      "hand": "right"
    },
    {
      "midi": 69,
      "time": 55.833,
      "duration": 0.208,
      "velocity": 1,
      "hand": "right"
    },
    {
      "midi": 70,
      "time": 56.042,
      "duration": 0.208,
      "velocity": 1,
      "hand": "right"
    },
    {
      "midi": 53,
      "time": 56.25,
      "duration": 0.417,
      "velocity": 1,
      "hand": "left"
    },
    {
      "midi": 58,
      "time": 56.25,
      "duration": 0.417,
      "velocity": 1,
      "hand": "left"
    },
    {
      "midi": 62,
      "time": 56.25,
      "duration": 0.417,
      "velocity": 1,
      "hand": "right"
    },
    {
      "midi": 74,
      "time": 56.25,
      "duration": 0.208,
      "velocity": 1,
      "hand": "right"
    },
    {
      "midi": 72,
      "time": 56.458,
      "duration": 0.208,
      "velocity": 1,
      "hand": "right"
    },
    {
      "midi": 51,
      "time": 56.667,
      "duration": 0.833,
      "velocity": 1,
      "hand": "left"
    },
    {
      "midi": 65,
      "time": 56.667,
      "duration": 1.667,
      "velocity": 1,
      "hand": "right"
    },
    {
      "midi": 55,
      "time": 57.083,
      "duration": 0.208,
      "velocity": 1,
      "hand": "left"
    },
    {
      "midi": 58,
      "time": 57.083,
      "duration": 0.208,
      "velocity": 1,
      "hand": "left"
    },
    {
      "midi": 55,
      "time": 57.292,
      "duration": 0.208,
      "velocity": 1,
      "hand": "left"
    },
    {
      "midi": 58,
      "time": 57.292,
      "duration": 0.208,
      "velocity": 1,
      "hand": "left"
    },
    {
      "midi": 55,
      "time": 57.5,
      "duration": 0.417,
      "velocity": 1,
      "hand": "left"
    },
    {
      "midi": 58,
      "time": 57.5,
      "duration": 0.417,
      "velocity": 1,
      "hand": "left"
    },
    {
      "midi": 55,
      "time": 57.917,
      "duration": 0.417,
      "velocity": 1,
      "hand": "left"
    },
    {
      "midi": 58,
      "time": 57.917,
      "duration": 0.417,
      "velocity": 1,
      "hand": "left"
    },
    {
      "midi": 51,
      "time": 58.333,
      "duration": 0.833,
      "velocity": 1,
      "hand": "left"
    },
    {
      "midi": 65,
      "time": 58.333,
      "duration": 1.25,
      "velocity": 1,
      "hand": "right"
    },
    {
      "midi": 55,
      "time": 58.75,
      "duration": 0.417,
      "velocity": 1,
      "hand": "left"
    },
    {
      "midi": 58,
      "time": 58.75,
      "duration": 0.417,
      "velocity": 1,
      "hand": "left"
    },
    {
      "midi": 77,
      "time": 59.583,
      "duration": 0.417,
      "velocity": 1,
      "hand": "right"
    },
    {
      "midi": 56,
      "time": 60,
      "duration": 0.417,
      "velocity": 1,
      "hand": "left"
    },
    {
      "midi": 60,
      "time": 60,
      "duration": 0.833,
      "velocity": 1,
      "hand": "right"
    },
    {
      "midi": 74,
      "time": 60,
      "duration": 0.417,
      "velocity": 1,
      "hand": "right"
    },
    {
      "midi": 60,
      "time": 60.417,
      "duration": 0.417,
      "velocity": 1,
      "hand": "right"
    },
    {
      "midi": 63,
      "time": 60.417,
      "duration": 0.417,
      "velocity": 1,
      "hand": "right"
    },
    {
      "midi": 77,
      "time": 60.417,
      "duration": 0.417,
      "velocity": 1,
      "hand": "right"
    },
    {
      "midi": 56,
      "time": 60.833,
      "duration": 0.417,
      "velocity": 1,
      "hand": "left"
    },
    {
      "midi": 60,
      "time": 60.833,
      "duration": 0.833,
      "velocity": 1,
      "hand": "right"
    },
    {
      "midi": 74,
      "time": 60.833,
      "duration": 0.417,
      "velocity": 1,
      "hand": "right"
    },
    {
      "midi": 60,
      "time": 61.25,
      "duration": 0.417,
      "velocity": 1,
      "hand": "right"
    },
    {
      "midi": 63,
      "time": 61.25,
      "duration": 0.417,
      "velocity": 1,
      "hand": "right"
    },
    {
      "midi": 77,
      "time": 61.25,
      "duration": 0.417,
      "velocity": 1,
      "hand": "right"
    },
    {
      "midi": 56,
      "time": 61.667,
      "duration": 0.417,
      "velocity": 1,
      "hand": "left"
    },
    {
      "midi": 60,
      "time": 61.667,
      "duration": 0.833,
      "velocity": 1,
      "hand": "right"
    },
    {
      "midi": 74,
      "time": 61.667,
      "duration": 0.417,
      "velocity": 1,
      "hand": "right"
    },
    {
      "midi": 60,
      "time": 62.083,
      "duration": 0.417,
      "velocity": 1,
      "hand": "right"
    },
    {
      "midi": 63,
      "time": 62.083,
      "duration": 0.417,
      "velocity": 1,
      "hand": "right"
    },
    {
      "midi": 77,
      "time": 62.083,
      "duration": 0.417,
      "velocity": 1,
      "hand": "right"
    },
    {
      "midi": 56,
      "time": 62.5,
      "duration": 0.417,
      "velocity": 1,
      "hand": "left"
    },
    {
      "midi": 60,
      "time": 62.5,
      "duration": 0.833,
      "velocity": 1,
      "hand": "right"
    },
    {
      "midi": 79,
      "time": 62.5,
      "duration": 0.208,
      "velocity": 1,
      "hand": "right"
    },
    {
      "midi": 77,
      "time": 62.708,
      "duration": 0.208,
      "velocity": 1,
      "hand": "right"
    },
    {
      "midi": 60,
      "time": 62.917,
      "duration": 0.417,
      "velocity": 1,
      "hand": "right"
    },
    {
      "midi": 63,
      "time": 62.917,
      "duration": 0.417,
      "velocity": 1,
      "hand": "right"
    },
    {
      "midi": 76,
      "time": 62.917,
      "duration": 0.208,
      "velocity": 1,
      "hand": "right"
    },
    {
      "midi": 74,
      "time": 63.125,
      "duration": 0.208,
      "velocity": 1,
      "hand": "right"
    },
    {
      "midi": 51,
      "time": 63.333,
      "duration": 0.417,
      "velocity": 1,
      "hand": "left"
    },
    {
      "midi": 60,
      "time": 63.333,
      "duration": 0.833,
      "velocity": 1,
      "hand": "right"
    },
    {
      "midi": 74,
      "time": 63.333,
      "duration": 0.208,
      "velocity": 1,
      "hand": "right"
    },
    {
      "midi": 72,
      "time": 63.542,
      "duration": 0.208,
      "velocity": 1,
      "hand": "right"
    },
    {
      "midi": 55,
      "time": 63.75,
      "duration": 0.417,
      "velocity": 1,
      "hand": "left"
    },
    {
      "midi": 58,
      "time": 63.75,
      "duration": 0.417,
      "velocity": 1,
      "hand": "left"
    },
    {
      "midi": 63,
      "time": 63.75,
      "duration": 0.417,
      "velocity": 1,
      "hand": "right"
    },
    {
      "midi": 72,
      "time": 63.75,
      "duration": 0.208,
      "velocity": 1,
      "hand": "right"
    },
    {
      "midi": 72,
      "time": 63.958,
      "duration": 0.208,
      "velocity": 1,
      "hand": "right"
    },
    {
      "midi": 51,
      "time": 64.167,
      "duration": 0.417,
      "velocity": 1,
      "hand": "left"
    },
    {
      "midi": 60,
      "time": 64.167,
      "duration": 0.833,
      "velocity": 1,
      "hand": "right"
    },
    {
      "midi": 74,
      "time": 64.167,
      "duration": 0.208,
      "velocity": 1,
      "hand": "right"
    },
    {
      "midi": 72,
      "time": 64.375,
      "duration": 0.208,
      "velocity": 1,
      "hand": "right"
    },
    {
      "midi": 55,
      "time": 64.583,
      "duration": 0.417,
      "velocity": 1,
      "hand": "left"
    },
    {
      "midi": 58,
      "time": 64.583,
      "duration": 0.417,
      "velocity": 1,
      "hand": "left"
    },
    {
      "midi": 63,
      "time": 64.583,
      "duration": 0.417,
      "velocity": 1,
      "hand": "right"
    },
    {
      "midi": 72,
      "time": 64.583,
      "duration": 0.208,
      "velocity": 1,
      "hand": "right"
    },
    {
      "midi": 72,
      "time": 64.792,
      "duration": 0.208,
      "velocity": 1,
      "hand": "right"
    },
    {
      "midi": 51,
      "time": 65,
      "duration": 0.417,
      "velocity": 1,
      "hand": "left"
    },
    {
      "midi": 60,
      "time": 65,
      "duration": 0.833,
      "velocity": 1,
      "hand": "right"
    },
    {
      "midi": 74,
      "time": 65,
      "duration": 0.208,
      "velocity": 1,
      "hand": "right"
    },
    {
      "midi": 72,
      "time": 65.208,
      "duration": 0.208,
      "velocity": 1,
      "hand": "right"
    },
    {
      "midi": 55,
      "time": 65.417,
      "duration": 0.417,
      "velocity": 1,
      "hand": "left"
    },
    {
      "midi": 58,
      "time": 65.417,
      "duration": 0.417,
      "velocity": 1,
      "hand": "left"
    },
    {
      "midi": 63,
      "time": 65.417,
      "duration": 0.417,
      "velocity": 1,
      "hand": "right"
    },
    {
      "midi": 72,
      "time": 65.417,
      "duration": 0.208,
      "velocity": 1,
      "hand": "right"
    },
    {
      "midi": 72,
      "time": 65.625,
      "duration": 0.208,
      "velocity": 1,
      "hand": "right"
    },
    {
      "midi": 51,
      "time": 65.833,
      "duration": 0.417,
      "velocity": 1,
      "hand": "left"
    },
    {
      "midi": 60,
      "time": 65.833,
      "duration": 0.833,
      "velocity": 1,
      "hand": "right"
    },
    {
      "midi": 74,
      "time": 65.833,
      "duration": 0.208,
      "velocity": 1,
      "hand": "right"
    },
    {
      "midi": 72,
      "time": 66.042,
      "duration": 0.208,
      "velocity": 1,
      "hand": "right"
    },
    {
      "midi": 55,
      "time": 66.25,
      "duration": 0.417,
      "velocity": 1,
      "hand": "left"
    },
    {
      "midi": 58,
      "time": 66.25,
      "duration": 0.417,
      "velocity": 1,
      "hand": "left"
    },
    {
      "midi": 63,
      "time": 66.25,
      "duration": 0.417,
      "velocity": 1,
      "hand": "right"
    },
    {
      "midi": 70,
      "time": 66.25,
      "duration": 0.208,
      "velocity": 1,
      "hand": "right"
    },
    {
      "midi": 69,
      "time": 66.458,
      "duration": 0.208,
      "velocity": 1,
      "hand": "right"
    },
    {
      "midi": 46,
      "time": 66.667,
      "duration": 0.417,
      "velocity": 1,
      "hand": "left"
    },
    {
      "midi": 60,
      "time": 66.667,
      "duration": 0.833,
      "velocity": 1,
      "hand": "right"
    },
    {
      "midi": 72,
      "time": 66.667,
      "duration": 0.208,
      "velocity": 1,
      "hand": "right"
    },
    {
      "midi": 70,
      "time": 66.875,
      "duration": 0.208,
      "velocity": 1,
      "hand": "right"
    },
    {
      "midi": 53,
      "time": 67.083,
      "duration": 0.417,
      "velocity": 1,
      "hand": "left"
    },
    {
      "midi": 58,
      "time": 67.083,
      "duration": 0.417,
      "velocity": 1,
      "hand": "left"
    },
    {
      "midi": 62,
      "time": 67.083,
      "duration": 0.417,
      "velocity": 1,
      "hand": "right"
    },
    {
      "midi": 70,
      "time": 67.083,
      "duration": 0.208,
      "velocity": 1,
      "hand": "right"
    },
    {
      "midi": 70,
      "time": 67.292,
      "duration": 0.208,
      "velocity": 1,
      "hand": "right"
    },
    {
      "midi": 46,
      "time": 67.5,
      "duration": 0.417,
      "velocity": 1,
      "hand": "left"
    },
    {
      "midi": 60,
      "time": 67.5,
      "duration": 0.833,
      "velocity": 1,
      "hand": "right"
    },
    {
      "midi": 72,
      "time": 67.5,
      "duration": 0.208,
      "velocity": 1,
      "hand": "right"
    },
    {
      "midi": 70,
      "time": 67.708,
      "duration": 0.208,
      "velocity": 1,
      "hand": "right"
    },
    {
      "midi": 53,
      "time": 67.917,
      "duration": 0.417,
      "velocity": 1,
      "hand": "left"
    },
    {
      "midi": 58,
      "time": 67.917,
      "duration": 0.417,
      "velocity": 1,
      "hand": "left"
    },
    {
      "midi": 62,
      "time": 67.917,
      "duration": 0.417,
      "velocity": 1,
      "hand": "right"
    },
    {
      "midi": 70,
      "time": 67.917,
      "duration": 0.208,
      "velocity": 1,
      "hand": "right"
    },
    {
      "midi": 70,
      "time": 68.125,
      "duration": 0.208,
      "velocity": 1,
      "hand": "right"
    },
    {
      "midi": 46,
      "time": 68.333,
      "duration": 0.417,
      "velocity": 1,
      "hand": "left"
    },
    {
      "midi": 60,
      "time": 68.333,
      "duration": 0.833,
      "velocity": 1,
      "hand": "right"
    },
    {
      "midi": 72,
      "time": 68.333,
      "duration": 0.208,
      "velocity": 1,
      "hand": "right"
    },
    {
      "midi": 70,
      "time": 68.542,
      "duration": 0.208,
      "velocity": 1,
      "hand": "right"
    },
    {
      "midi": 53,
      "time": 68.75,
      "duration": 0.417,
      "velocity": 1,
      "hand": "left"
    },
    {
      "midi": 58,
      "time": 68.75,
      "duration": 0.417,
      "velocity": 1,
      "hand": "left"
    },
    {
      "midi": 62,
      "time": 68.75,
      "duration": 0.417,
      "velocity": 1,
      "hand": "right"
    },
    {
      "midi": 70,
      "time": 68.75,
      "duration": 0.208,
      "velocity": 1,
      "hand": "right"
    },
    {
      "midi": 70,
      "time": 68.958,
      "duration": 0.208,
      "velocity": 1,
      "hand": "right"
    },
    {
      "midi": 46,
      "time": 69.167,
      "duration": 0.417,
      "velocity": 1,
      "hand": "left"
    },
    {
      "midi": 60,
      "time": 69.167,
      "duration": 0.833,
      "velocity": 1,
      "hand": "right"
    },
    {
      "midi": 72,
      "time": 69.167,
      "duration": 0.208,
      "velocity": 1,
      "hand": "right"
    },
    {
      "midi": 70,
      "time": 69.375,
      "duration": 0.208,
      "velocity": 1,
      "hand": "right"
    },
    {
      "midi": 53,
      "time": 69.583,
      "duration": 0.417,
      "velocity": 1,
      "hand": "left"
    },
    {
      "midi": 58,
      "time": 69.583,
      "duration": 0.417,
      "velocity": 1,
      "hand": "left"
    },
    {
      "midi": 62,
      "time": 69.583,
      "duration": 0.417,
      "velocity": 1,
      "hand": "right"
    },
    {
      "midi": 69,
      "time": 69.583,
      "duration": 0.208,
      "velocity": 1,
      "hand": "right"
    },
    {
      "midi": 67,
      "time": 69.792,
      "duration": 0.208,
      "velocity": 1,
      "hand": "right"
    },
    {
      "midi": 51,
      "time": 70,
      "duration": 0.417,
      "velocity": 1,
      "hand": "left"
    },
    {
      "midi": 60,
      "time": 70,
      "duration": 0.833,
      "velocity": 1,
      "hand": "right"
    },
    {
      "midi": 65,
      "time": 70,
      "duration": 0.208,
      "velocity": 1,
      "hand": "right"
    },
    {
      "midi": 65,
      "time": 70.208,
      "duration": 0.208,
      "velocity": 1,
      "hand": "right"
    },
    {
      "midi": 55,
      "time": 70.417,
      "duration": 0.417,
      "velocity": 1,
      "hand": "left"
    },
    {
      "midi": 58,
      "time": 70.417,
      "duration": 0.417,
      "velocity": 1,
      "hand": "left"
    },
    {
      "midi": 67,
      "time": 70.417,
      "duration": 0.208,
      "velocity": 1,
      "hand": "right"
    },
    {
      "midi": 69,
      "time": 70.625,
      "duration": 0.208,
      "velocity": 1,
      "hand": "right"
    },
    {
      "midi": 70,
      "time": 70.833,
      "duration": 0.208,
      "velocity": 1,
      "hand": "right"
    },
    {
      "midi": 72,
      "time": 71.042,
      "duration": 0.208,
      "velocity": 1,
      "hand": "right"
    },
    {
      "midi": 74,
      "time": 71.25,
      "duration": 0.208,
      "velocity": 1,
      "hand": "right"
    },
    {
      "midi": 76,
      "time": 71.458,
      "duration": 0.208,
      "velocity": 1,
      "hand": "right"
    },
    {
      "midi": 60,
      "time": 71.667,
      "duration": 0.417,
      "velocity": 1,
      "hand": "right"
    },
    {
      "midi": 77,
      "time": 71.667,
      "duration": 0.417,
      "velocity": 1,
      "hand": "right"
    },
    {
      "midi": 51,
      "time": 72.083,
      "duration": 0.417,
      "velocity": 1,
      "hand": "left"
    },
    {
      "midi": 55,
      "time": 72.083,
      "duration": 0.417,
      "velocity": 1,
      "hand": "left"
    },
    {
      "midi": 58,
      "time": 72.083,
      "duration": 0.417,
      "velocity": 1,
      "hand": "left"
    },
    {
      "midi": 60,
      "time": 72.083,
      "duration": 0.417,
      "velocity": 1,
      "hand": "right"
    },
    {
      "midi": 55,
      "time": 72.5,
      "duration": 0.417,
      "velocity": 1,
      "hand": "left"
    },
    {
      "midi": 58,
      "time": 72.5,
      "duration": 0.417,
      "velocity": 1,
      "hand": "left"
    },
    {
      "midi": 60,
      "time": 72.5,
      "duration": 0.417,
      "velocity": 1,
      "hand": "right"
    },
    {
      "midi": 63,
      "time": 72.5,
      "duration": 0.417,
      "velocity": 1,
      "hand": "right"
    },
    {
      "midi": 51,
      "time": 72.917,
      "duration": 0.417,
      "velocity": 1,
      "hand": "left"
    },
    {
      "midi": 55,
      "time": 72.917,
      "duration": 0.417,
      "velocity": 1,
      "hand": "left"
    },
    {
      "midi": 58,
      "time": 72.917,
      "duration": 0.417,
      "velocity": 1,
      "hand": "left"
    },
    {
      "midi": 77,
      "time": 72.917,
      "duration": 0.417,
      "velocity": 1,
      "hand": "right"
    },
    {
      "midi": 56,
      "time": 73.333,
      "duration": 0.417,
      "velocity": 1,
      "hand": "left"
    },
    {
      "midi": 60,
      "time": 73.333,
      "duration": 0.833,
      "velocity": 1,
      "hand": "right"
    },
    {
      "midi": 74,
      "time": 73.333,
      "duration": 0.417,
      "velocity": 1,
      "hand": "right"
    },
    {
      "midi": 60,
      "time": 73.75,
      "duration": 0.417,
      "velocity": 1,
      "hand": "right"
    },
    {
      "midi": 63,
      "time": 73.75,
      "duration": 0.417,
      "velocity": 1,
      "hand": "right"
    },
    {
      "midi": 77,
      "time": 73.75,
      "duration": 0.417,
      "velocity": 1,
      "hand": "right"
    },
    {
      "midi": 56,
      "time": 74.167,
      "duration": 0.417,
      "velocity": 1,
      "hand": "left"
    },
    {
      "midi": 60,
      "time": 74.167,
      "duration": 0.833,
      "velocity": 1,
      "hand": "right"
    },
    {
      "midi": 74,
      "time": 74.167,
      "duration": 0.417,
      "velocity": 1,
      "hand": "right"
    },
    {
      "midi": 60,
      "time": 74.583,
      "duration": 0.417,
      "velocity": 1,
      "hand": "right"
    },
    {
      "midi": 63,
      "time": 74.583,
      "duration": 0.417,
      "velocity": 1,
      "hand": "right"
    },
    {
      "midi": 77,
      "time": 74.583,
      "duration": 0.417,
      "velocity": 1,
      "hand": "right"
    },
    {
      "midi": 56,
      "time": 75,
      "duration": 0.417,
      "velocity": 1,
      "hand": "left"
    },
    {
      "midi": 60,
      "time": 75,
      "duration": 0.833,
      "velocity": 1,
      "hand": "right"
    },
    {
      "midi": 74,
      "time": 75,
      "duration": 0.417,
      "velocity": 1,
      "hand": "right"
    },
    {
      "midi": 60,
      "time": 75.417,
      "duration": 0.417,
      "velocity": 1,
      "hand": "right"
    },
    {
      "midi": 63,
      "time": 75.417,
      "duration": 0.417,
      "velocity": 1,
      "hand": "right"
    },
    {
      "midi": 77,
      "time": 75.417,
      "duration": 0.417,
      "velocity": 1,
      "hand": "right"
    },
    {
      "midi": 56,
      "time": 75.833,
      "duration": 0.417,
      "velocity": 1,
      "hand": "left"
    },
    {
      "midi": 60,
      "time": 75.833,
      "duration": 0.833,
      "velocity": 1,
      "hand": "right"
    },
    {
      "midi": 79,
      "time": 75.833,
      "duration": 0.208,
      "velocity": 1,
      "hand": "right"
    },
    {
      "midi": 77,
      "time": 76.042,
      "duration": 0.208,
      "velocity": 1,
      "hand": "right"
    },
    {
      "midi": 60,
      "time": 76.25,
      "duration": 0.417,
      "velocity": 1,
      "hand": "right"
    },
    {
      "midi": 63,
      "time": 76.25,
      "duration": 0.417,
      "velocity": 1,
      "hand": "right"
    },
    {
      "midi": 76,
      "time": 76.25,
      "duration": 0.208,
      "velocity": 1,
      "hand": "right"
    },
    {
      "midi": 74,
      "time": 76.458,
      "duration": 0.208,
      "velocity": 1,
      "hand": "right"
    },
    {
      "midi": 51,
      "time": 76.667,
      "duration": 0.417,
      "velocity": 1,
      "hand": "left"
    },
    {
      "midi": 60,
      "time": 76.667,
      "duration": 0.833,
      "velocity": 1,
      "hand": "right"
    },
    {
      "midi": 74,
      "time": 76.667,
      "duration": 0.208,
      "velocity": 1,
      "hand": "right"
    },
    {
      "midi": 72,
      "time": 76.875,
      "duration": 0.208,
      "velocity": 1,
      "hand": "right"
    },
    {
      "midi": 55,
      "time": 77.083,
      "duration": 0.417,
      "velocity": 1,
      "hand": "left"
    },
    {
      "midi": 58,
      "time": 77.083,
      "duration": 0.417,
      "velocity": 1,
      "hand": "left"
    },
    {
      "midi": 63,
      "time": 77.083,
      "duration": 0.417,
      "velocity": 1,
      "hand": "right"
    },
    {
      "midi": 72,
      "time": 77.083,
      "duration": 0.208,
      "velocity": 1,
      "hand": "right"
    },
    {
      "midi": 72,
      "time": 77.292,
      "duration": 0.208,
      "velocity": 1,
      "hand": "right"
    },
    {
      "midi": 51,
      "time": 77.5,
      "duration": 0.417,
      "velocity": 1,
      "hand": "left"
    },
    {
      "midi": 60,
      "time": 77.5,
      "duration": 0.833,
      "velocity": 1,
      "hand": "right"
    },
    {
      "midi": 74,
      "time": 77.5,
      "duration": 0.208,
      "velocity": 1,
      "hand": "right"
    },
    {
      "midi": 72,
      "time": 77.708,
      "duration": 0.208,
      "velocity": 1,
      "hand": "right"
    },
    {
      "midi": 55,
      "time": 77.917,
      "duration": 0.417,
      "velocity": 1,
      "hand": "left"
    },
    {
      "midi": 58,
      "time": 77.917,
      "duration": 0.417,
      "velocity": 1,
      "hand": "left"
    },
    {
      "midi": 63,
      "time": 77.917,
      "duration": 0.417,
      "velocity": 1,
      "hand": "right"
    },
    {
      "midi": 72,
      "time": 77.917,
      "duration": 0.208,
      "velocity": 1,
      "hand": "right"
    },
    {
      "midi": 72,
      "time": 78.125,
      "duration": 0.208,
      "velocity": 1,
      "hand": "right"
    },
    {
      "midi": 51,
      "time": 78.333,
      "duration": 0.417,
      "velocity": 1,
      "hand": "left"
    },
    {
      "midi": 60,
      "time": 78.333,
      "duration": 0.833,
      "velocity": 1,
      "hand": "right"
    },
    {
      "midi": 74,
      "time": 78.333,
      "duration": 0.208,
      "velocity": 1,
      "hand": "right"
    },
    {
      "midi": 72,
      "time": 78.542,
      "duration": 0.208,
      "velocity": 1,
      "hand": "right"
    },
    {
      "midi": 55,
      "time": 78.75,
      "duration": 0.417,
      "velocity": 1,
      "hand": "left"
    },
    {
      "midi": 58,
      "time": 78.75,
      "duration": 0.417,
      "velocity": 1,
      "hand": "left"
    },
    {
      "midi": 63,
      "time": 78.75,
      "duration": 0.417,
      "velocity": 1,
      "hand": "right"
    },
    {
      "midi": 72,
      "time": 78.75,
      "duration": 0.208,
      "velocity": 1,
      "hand": "right"
    },
    {
      "midi": 72,
      "time": 78.958,
      "duration": 0.208,
      "velocity": 1,
      "hand": "right"
    },
    {
      "midi": 51,
      "time": 79.167,
      "duration": 0.417,
      "velocity": 1,
      "hand": "left"
    },
    {
      "midi": 60,
      "time": 79.167,
      "duration": 0.833,
      "velocity": 1,
      "hand": "right"
    },
    {
      "midi": 74,
      "time": 79.167,
      "duration": 0.208,
      "velocity": 1,
      "hand": "right"
    },
    {
      "midi": 72,
      "time": 79.375,
      "duration": 0.208,
      "velocity": 1,
      "hand": "right"
    },
    {
      "midi": 55,
      "time": 79.583,
      "duration": 0.417,
      "velocity": 1,
      "hand": "left"
    },
    {
      "midi": 58,
      "time": 79.583,
      "duration": 0.417,
      "velocity": 1,
      "hand": "left"
    },
    {
      "midi": 63,
      "time": 79.583,
      "duration": 0.417,
      "velocity": 1,
      "hand": "right"
    },
    {
      "midi": 70,
      "time": 79.583,
      "duration": 0.208,
      "velocity": 1,
      "hand": "right"
    },
    {
      "midi": 69,
      "time": 79.792,
      "duration": 0.208,
      "velocity": 1,
      "hand": "right"
    },
    {
      "midi": 46,
      "time": 80,
      "duration": 0.417,
      "velocity": 1,
      "hand": "left"
    },
    {
      "midi": 60,
      "time": 80,
      "duration": 0.833,
      "velocity": 1,
      "hand": "right"
    },
    {
      "midi": 72,
      "time": 80,
      "duration": 0.208,
      "velocity": 1,
      "hand": "right"
    },
    {
      "midi": 70,
      "time": 80.208,
      "duration": 0.208,
      "velocity": 1,
      "hand": "right"
    },
    {
      "midi": 53,
      "time": 80.417,
      "duration": 0.417,
      "velocity": 1,
      "hand": "left"
    },
    {
      "midi": 58,
      "time": 80.417,
      "duration": 0.417,
      "velocity": 1,
      "hand": "left"
    },
    {
      "midi": 62,
      "time": 80.417,
      "duration": 0.417,
      "velocity": 1,
      "hand": "right"
    },
    {
      "midi": 70,
      "time": 80.417,
      "duration": 0.208,
      "velocity": 1,
      "hand": "right"
    },
    {
      "midi": 70,
      "time": 80.625,
      "duration": 0.208,
      "velocity": 1,
      "hand": "right"
    },
    {
      "midi": 46,
      "time": 80.833,
      "duration": 0.417,
      "velocity": 1,
      "hand": "left"
    },
    {
      "midi": 60,
      "time": 80.833,
      "duration": 0.833,
      "velocity": 1,
      "hand": "right"
    },
    {
      "midi": 72,
      "time": 80.833,
      "duration": 0.208,
      "velocity": 1,
      "hand": "right"
    },
    {
      "midi": 70,
      "time": 81.042,
      "duration": 0.208,
      "velocity": 1,
      "hand": "right"
    },
    {
      "midi": 53,
      "time": 81.25,
      "duration": 0.417,
      "velocity": 1,
      "hand": "left"
    },
    {
      "midi": 58,
      "time": 81.25,
      "duration": 0.417,
      "velocity": 1,
      "hand": "left"
    },
    {
      "midi": 62,
      "time": 81.25,
      "duration": 0.417,
      "velocity": 1,
      "hand": "right"
    },
    {
      "midi": 70,
      "time": 81.25,
      "duration": 0.208,
      "velocity": 1,
      "hand": "right"
    },
    {
      "midi": 70,
      "time": 81.458,
      "duration": 0.208,
      "velocity": 1,
      "hand": "right"
    },
    {
      "midi": 46,
      "time": 81.667,
      "duration": 0.417,
      "velocity": 1,
      "hand": "left"
    },
    {
      "midi": 60,
      "time": 81.667,
      "duration": 0.833,
      "velocity": 1,
      "hand": "right"
    },
    {
      "midi": 72,
      "time": 81.667,
      "duration": 0.208,
      "velocity": 1,
      "hand": "right"
    },
    {
      "midi": 70,
      "time": 81.875,
      "duration": 0.208,
      "velocity": 1,
      "hand": "right"
    },
    {
      "midi": 53,
      "time": 82.083,
      "duration": 0.417,
      "velocity": 1,
      "hand": "left"
    },
    {
      "midi": 58,
      "time": 82.083,
      "duration": 0.417,
      "velocity": 1,
      "hand": "left"
    },
    {
      "midi": 62,
      "time": 82.083,
      "duration": 0.417,
      "velocity": 1,
      "hand": "right"
    },
    {
      "midi": 70,
      "time": 82.083,
      "duration": 0.208,
      "velocity": 1,
      "hand": "right"
    },
    {
      "midi": 70,
      "time": 82.292,
      "duration": 0.208,
      "velocity": 1,
      "hand": "right"
    },
    {
      "midi": 46,
      "time": 82.5,
      "duration": 0.417,
      "velocity": 1,
      "hand": "left"
    },
    {
      "midi": 60,
      "time": 82.5,
      "duration": 0.833,
      "velocity": 1,
      "hand": "right"
    },
    {
      "midi": 72,
      "time": 82.5,
      "duration": 0.208,
      "velocity": 1,
      "hand": "right"
    },
    {
      "midi": 70,
      "time": 82.708,
      "duration": 0.208,
      "velocity": 1,
      "hand": "right"
    },
    {
      "midi": 53,
      "time": 82.917,
      "duration": 0.417,
      "velocity": 1,
      "hand": "left"
    },
    {
      "midi": 58,
      "time": 82.917,
      "duration": 0.417,
      "velocity": 1,
      "hand": "left"
    },
    {
      "midi": 62,
      "time": 82.917,
      "duration": 0.417,
      "velocity": 1,
      "hand": "right"
    },
    {
      "midi": 69,
      "time": 82.917,
      "duration": 0.208,
      "velocity": 1,
      "hand": "right"
    },
    {
      "midi": 67,
      "time": 83.125,
      "duration": 0.208,
      "velocity": 1,
      "hand": "right"
    },
    {
      "midi": 51,
      "time": 83.333,
      "duration": 0.417,
      "velocity": 1,
      "hand": "left"
    },
    {
      "midi": 55,
      "time": 83.333,
      "duration": 0.417,
      "velocity": 1,
      "hand": "left"
    },
    {
      "midi": 58,
      "time": 83.333,
      "duration": 0.417,
      "velocity": 1,
      "hand": "left"
    },
    {
      "midi": 60,
      "time": 83.333,
      "duration": 0.833,
      "velocity": 1,
      "hand": "right"
    },
    {
      "midi": 65,
      "time": 83.333,
      "duration": 0.208,
      "velocity": 1,
      "hand": "right"
    },
    {
      "midi": 65,
      "time": 83.542,
      "duration": 0.208,
      "velocity": 1,
      "hand": "right"
    },
    {
      "midi": 67,
      "time": 83.75,
      "duration": 0.208,
      "velocity": 1,
      "hand": "right"
    },
    {
      "midi": 69,
      "time": 83.958,
      "duration": 0.208,
      "velocity": 1,
      "hand": "right"
    },
    {
      "midi": 58,
      "time": 84.167,
      "duration": 0.417,
      "velocity": 1,
      "hand": "left"
    },
    {
      "midi": 62,
      "time": 84.167,
      "duration": 0.417,
      "velocity": 1,
      "hand": "right"
    },
    {
      "midi": 65,
      "time": 84.167,
      "duration": 0.417,
      "velocity": 1,
      "hand": "right"
    },
    {
      "midi": 70,
      "time": 84.167,
      "duration": 0.208,
      "velocity": 1,
      "hand": "right"
    },
    {
      "midi": 72,
      "time": 84.375,
      "duration": 0.208,
      "velocity": 1,
      "hand": "right"
    },
    {
      "midi": 74,
      "time": 84.583,
      "duration": 0.208,
      "velocity": 1,
      "hand": "right"
    },
    {
      "midi": 76,
      "time": 84.792,
      "duration": 0.208,
      "velocity": 1,
      "hand": "right"
    },
    {
      "midi": 60,
      "time": 85,
      "duration": 0.833,
      "velocity": 1,
      "hand": "right"
    },
    {
      "midi": 63,
      "time": 85,
      "duration": 0.417,
      "velocity": 1,
      "hand": "right"
    },
    {
      "midi": 67,
      "time": 85,
      "duration": 0.417,
      "velocity": 1,
      "hand": "right"
    },
    {
      "midi": 77,
      "time": 85,
      "duration": 0.208,
      "velocity": 1,
      "hand": "right"
    },
    {
      "midi": 65,
      "time": 85.208,
      "duration": 0.208,
      "velocity": 1,
      "hand": "right"
    },
    {
      "midi": 67,
      "time": 85.417,
      "duration": 0.208,
      "velocity": 1,
      "hand": "right"
    },
    {
      "midi": 69,
      "time": 85.625,
      "duration": 0.208,
      "velocity": 1,
      "hand": "right"
    },
    {
      "midi": 58,
      "time": 85.833,
      "duration": 0.417,
      "velocity": 1,
      "hand": "left"
    },
    {
      "midi": 62,
      "time": 85.833,
      "duration": 0.417,
      "velocity": 1,
      "hand": "right"
    },
    {
      "midi": 65,
      "time": 85.833,
      "duration": 0.417,
      "velocity": 1,
      "hand": "right"
    },
    {
      "midi": 70,
      "time": 85.833,
      "duration": 0.208,
      "velocity": 1,
      "hand": "right"
    },
    {
      "midi": 72,
      "time": 86.042,
      "duration": 0.208,
      "velocity": 1,
      "hand": "right"
    },
    {
      "midi": 74,
      "time": 86.25,
      "duration": 0.208,
      "velocity": 1,
      "hand": "right"
    },
    {
      "midi": 76,
      "time": 86.458,
      "duration": 0.208,
      "velocity": 1,
      "hand": "right"
    },
    {
      "midi": 60,
      "time": 86.667,
      "duration": 0.833,
      "velocity": 1,
      "hand": "right"
    },
    {
      "midi": 63,
      "time": 86.667,
      "duration": 0.417,
      "velocity": 1,
      "hand": "right"
    },
    {
      "midi": 67,
      "time": 86.667,
      "duration": 0.417,
      "velocity": 1,
      "hand": "right"
    },
    {
      "midi": 77,
      "time": 86.667,
      "duration": 0.417,
      "velocity": 1,
      "hand": "right"
    },
    {
      "midi": 51,
      "time": 87.5,
      "duration": 0.417,
      "velocity": 1,
      "hand": "left"
    },
    {
      "midi": 58,
      "time": 87.5,
      "duration": 0.417,
      "velocity": 1,
      "hand": "left"
    },
    {
      "midi": 60,
      "time": 87.5,
      "duration": 0.833,
      "velocity": 1,
      "hand": "right"
    },
    {
      "midi": 67,
      "time": 87.5,
      "duration": 0.417,
      "velocity": 1,
      "hand": "right"
    },
    {
      "midi": 77,
      "time": 87.5,
      "duration": 0.417,
      "velocity": 1,
      "hand": "right"
    },
    {
      "midi": 51,
      "time": 88.333,
      "duration": 0.417,
      "velocity": 1,
      "hand": "left"
    },
    {
      "midi": 55,
      "time": 88.333,
      "duration": 0.417,
      "velocity": 1,
      "hand": "left"
    },
    {
      "midi": 58,
      "time": 88.333,
      "duration": 0.417,
      "velocity": 1,
      "hand": "left"
    },
    {
      "midi": 60,
      "time": 88.333,
      "duration": 0.833,
      "velocity": 1,
      "hand": "right"
    },
    {
      "midi": 63,
      "time": 88.333,
      "duration": 0.417,
      "velocity": 1,
      "hand": "right"
    },
    {
      "midi": 65,
      "time": 88.333,
      "duration": 0.417,
      "velocity": 1,
      "hand": "right"
    }
  ]
}
