{
  "id": "tao-sublime-sacramento",
  "title": "Tao Sublime Sacramento",
  "artist": "Tradicional Liturgico",
  "difficulty": "Difícil",
  "bpm": 50,
  "duration": 163,
  "category": "Religiosos",
  "isPremium": false,
  "coverUrl": "/images/covers/placeholder.png",
  "notes": [
    {
      "midi": 51,
      "time": 0,
      "duration": 1.185,
      "velocity": 1,
      "hand": "left"
    },
    {
      "midi": 58,
      "time": 0,
      "duration": 0.285,
      "velocity": 1,
      "hand": "left"
    },
    {
      "midi": 67,
      "time": 0,
      "duration": 0.285,
      "velocity": 1,
      "hand": "right"
    },
    {
      "midi": 70,
      "time": 0,
      "duration": 0.285,
      "velocity": 1,
      "hand": "right"
    },
    {
      "midi": 58,
      "time": 0.3,
      "duration": 0.585,
      "velocity": 1,
      "hand": "left"
    },
    {
      "midi": 67,
      "time": 0.3,
      "duration": 0.285,
      "velocity": 1,
      "hand": "right"
    },
    {
      "midi": 70,
      "time": 0.3,
      "duration": 0.3,
      "velocity": 1,
      "hand": "right"
    },
    {
      "midi": 63,
      "time": 0.6,
      "duration": 0.3,
      "velocity": 1,
      "hand": "right"
    },
    {
      "midi": 67,
      "time": 0.6,
      "duration": 0.285,
      "velocity": 1,
      "hand": "right"
    },
    {
      "midi": 58,
      "time": 0.9,
      "duration": 0.3,
      "velocity": 1,
      "hand": "left"
    },
    {
      "midi": 67,
      "time": 0.9,
      "duration": 0.3,
      "velocity": 1,
      "hand": "right"
    },
    {
      "midi": 70,
      "time": 0.9,
      "duration": 0.3,
      "velocity": 1,
      "hand": "right"
    },
    {
      "midi": 51,
      "time": 1.2,
      "duration": 0.585,
      "velocity": 1,
      "hand": "left"
    },
    {
      "midi": 58,
      "time": 1.5,
      "duration": 0.285,
      "velocity": 1,
      "hand": "left"
    },
    {
      "midi": 67,
      "time": 1.5,
      "duration": 0.285,
      "velocity": 1,
      "hand": "right"
    },
    {
      "midi": 70,
      "time": 1.5,
      "duration": 0.285,
      "velocity": 1,
      "hand": "right"
    },
    {
      "midi": 51,
      "time": 1.8,
      "duration": 0.585,
      "velocity": 1,
      "hand": "left"
    },
    {
      "midi": 58,
      "time": 1.8,
      "duration": 0.285,
      "velocity": 1,
      "hand": "left"
    },
    {
      "midi": 63,
      "time": 1.8,
      "duration": 0.3,
      "velocity": 1,
      "hand": "right"
    },
    {
      "midi": 67,
      "time": 1.8,
      "duration": 0.285,
      "velocity": 1,
      "hand": "right"
    },
    {
      "midi": 70,
      "time": 1.8,
      "duration": 0.285,
      "velocity": 1,
      "hand": "right"
    },
    {
      "midi": 58,
      "time": 2.1,
      "duration": 0.285,
      "velocity": 1,
      "hand": "left"
    },
    {
      "midi": 67,
      "time": 2.1,
      "duration": 0.285,
      "velocity": 1,
      "hand": "right"
    },
    {
      "midi": 70,
      "time": 2.1,
      "duration": 0.285,
      "velocity": 1,
      "hand": "right"
    },
    {
      "midi": 51,
      "time": 2.4,
      "duration": 0.585,
      "velocity": 1,
      "hand": "left"
    },
    {
      "midi": 58,
      "time": 2.4,
      "duration": 0.285,
      "velocity": 1,
      "hand": "left"
    },
    {
      "midi": 67,
      "time": 2.4,
      "duration": 0.285,
      "velocity": 1,
      "hand": "right"
    },
    {
      "midi": 70,
      "time": 2.4,
      "duration": 0.285,
      "velocity": 1,
      "hand": "right"
    },
    {
      "midi": 58,
      "time": 2.7,
      "duration": 0.285,
      "velocity": 1,
      "hand": "left"
    },
    {
      "midi": 67,
      "time": 2.7,
      "duration": 0.285,
      "velocity": 1,
      "hand": "right"
    },
    {
      "midi": 70,
      "time": 2.7,
      "duration": 0.285,
      "velocity": 1,
      "hand": "right"
    },
    {
      "midi": 51,
      "time": 3,
      "duration": 0.585,
      "velocity": 1,
      "hand": "left"
    },
    {
      "midi": 58,
      "time": 3,
      "duration": 0.285,
      "velocity": 1,
      "hand": "left"
    },
    {
      "midi": 63,
      "time": 3,
      "duration": 0.3,
      "velocity": 1,
      "hand": "right"
    },
    {
      "midi": 67,
      "time": 3,
      "duration": 0.285,
      "velocity": 1,
      "hand": "right"
    },
    {
      "midi": 70,
      "time": 3,
      "duration": 0.285,
      "velocity": 1,
      "hand": "right"
    },
    {
      "midi": 58,
      "time": 3.3,
      "duration": 0.285,
      "velocity": 1,
      "hand": "left"
    },
    {
      "midi": 67,
      "time": 3.3,
      "duration": 0.285,
      "velocity": 1,
      "hand": "right"
    },
    {
      "midi": 70,
      "time": 3.3,
      "duration": 0.285,
      "velocity": 1,
      "hand": "right"
    },
    {
      "midi": 51,
      "time": 3.6,
      "duration": 0.585,
      "velocity": 1,
      "hand": "left"
    },
    {
      "midi": 58,
      "time": 3.6,
      "duration": 0.6,
      "velocity": 1,
      "hand": "left"
    },
    {
      "midi": 67,
      "time": 3.6,
      "duration": 0.285,
      "velocity": 1,
      "hand": "right"
    },
    {
      "midi": 70,
      "time": 3.6,
      "duration": 0.285,
      "velocity": 1,
      "hand": "right"
    },
    {
      "midi": 55,
      "time": 3.9,
      "duration": 0.285,
      "velocity": 1,
      "hand": "left"
    },
    {
      "midi": 67,
      "time": 3.9,
      "duration": 0.285,
      "velocity": 1,
      "hand": "right"
    },
    {
      "midi": 70,
      "time": 3.9,
      "duration": 0.3,
      "velocity": 1,
      "hand": "right"
    },
    {
      "midi": 51,
      "time": 4.2,
      "duration": 0.585,
      "velocity": 1,
      "hand": "left"
    },
    {
      "midi": 55,
      "time": 4.2,
      "duration": 0.285,
      "velocity": 1,
      "hand": "left"
    },
    {
      "midi": 63,
      "time": 4.2,
      "duration": 0.3,
      "velocity": 1,
      "hand": "right"
    },
    {
      "midi": 67,
      "time": 4.2,
      "duration": 0.285,
      "velocity": 1,
      "hand": "right"
    },
    {
      "midi": 72,
      "time": 4.2,
      "duration": 0.285,
      "velocity": 1,
      "hand": "right"
    },
    {
      "midi": 55,
      "time": 4.5,
      "duration": 0.3,
      "velocity": 1,
      "hand": "left"
    },
    {
      "midi": 67,
      "time": 4.5,
      "duration": 0.3,
      "velocity": 1,
      "hand": "right"
    },
    {
      "midi": 72,
      "time": 4.5,
      "duration": 0.3,
      "velocity": 1,
      "hand": "right"
    },
    {
      "midi": 51,
      "time": 4.8,
      "duration": 1.185,
      "velocity": 1,
      "hand": "left"
    },
    {
      "midi": 60,
      "time": 4.8,
      "duration": 0.285,
      "velocity": 1,
      "hand": "right"
    },
    {
      "midi": 66,
      "time": 4.8,
      "duration": 0.285,
      "velocity": 1,
      "hand": "right"
    },
    {
      "midi": 70,
      "time": 4.8,
      "duration": 0.285,
      "velocity": 1,
      "hand": "right"
    },
    {
      "midi": 60,
      "time": 5.1,
      "duration": 0.585,
      "velocity": 1,
      "hand": "right"
    },
    {
      "midi": 66,
      "time": 5.1,
      "duration": 0.285,
      "velocity": 1,
      "hand": "right"
    },
    {
      "midi": 70,
      "time": 5.1,
      "duration": 0.285,
      "velocity": 1,
      "hand": "right"
    },
    {
      "midi": 66,
      "time": 5.4,
      "duration": 0.285,
      "velocity": 1,
      "hand": "right"
    },
    {
      "midi": 70,
      "time": 5.4,
      "duration": 0.285,
      "velocity": 1,
      "hand": "right"
    },
    {
      "midi": 60,
      "time": 5.7,
      "duration": 0.285,
      "velocity": 1,
      "hand": "right"
    },
    {
      "midi": 66,
      "time": 5.7,
      "duration": 0.285,
      "velocity": 1,
      "hand": "right"
    },
    {
      "midi": 70,
      "time": 5.7,
      "duration": 0.3,
      "velocity": 1,
      "hand": "right"
    },
    {
      "midi": 51,
      "time": 6,
      "duration": 1.185,
      "velocity": 1,
      "hand": "left"
    },
    {
      "midi": 60,
      "time": 6,
      "duration": 0.285,
      "velocity": 1,
      "hand": "right"
    },
    {
      "midi": 66,
      "time": 6,
      "duration": 0.285,
      "velocity": 1,
      "hand": "right"
    },
    {
      "midi": 69,
      "time": 6,
      "duration": 0.285,
      "velocity": 1,
      "hand": "right"
    },
    {
      "midi": 60,
      "time": 6.3,
      "duration": 0.585,
      "velocity": 1,
      "hand": "right"
    },
    {
      "midi": 66,
      "time": 6.3,
      "duration": 0.3,
      "velocity": 1,
      "hand": "right"
    },
    {
      "midi": 69,
      "time": 6.3,
      "duration": 0.3,
      "velocity": 1,
      "hand": "right"
    },
    {
      "midi": 63,
      "time": 6.6,
      "duration": 0.3,
      "velocity": 1,
      "hand": "right"
    },
    {
      "midi": 60,
      "time": 6.9,
      "duration": 0.285,
      "velocity": 1,
      "hand": "right"
    },
    {
      "midi": 66,
      "time": 6.9,
      "duration": 0.285,
      "velocity": 1,
      "hand": "right"
    },
    {
      "midi": 69,
      "time": 6.9,
      "duration": 0.3,
      "velocity": 1,
      "hand": "right"
    },
    {
      "midi": 51,
      "time": 7.2,
      "duration": 1.185,
      "velocity": 1,
      "hand": "left"
    },
    {
      "midi": 60,
      "time": 7.2,
      "duration": 0.285,
      "velocity": 1,
      "hand": "right"
    },
    {
      "midi": 66,
      "time": 7.2,
      "duration": 0.285,
      "velocity": 1,
      "hand": "right"
    },
    {
      "midi": 70,
      "time": 7.2,
      "duration": 0.285,
      "velocity": 1,
      "hand": "right"
    },
    {
      "midi": 60,
      "time": 7.5,
      "duration": 0.585,
      "velocity": 1,
      "hand": "right"
    },
    {
      "midi": 66,
      "time": 7.5,
      "duration": 0.285,
      "velocity": 1,
      "hand": "right"
    },
    {
      "midi": 70,
      "time": 7.5,
      "duration": 0.285,
      "velocity": 1,
      "hand": "right"
    },
    {
      "midi": 66,
      "time": 7.8,
      "duration": 0.285,
      "velocity": 1,
      "hand": "right"
    },
    {
      "midi": 70,
      "time": 7.8,
      "duration": 0.285,
      "velocity": 1,
      "hand": "right"
    },
    {
      "midi": 60,
      "time": 8.1,
      "duration": 0.285,
      "velocity": 1,
      "hand": "right"
    },
    {
      "midi": 66,
      "time": 8.1,
      "duration": 0.285,
      "velocity": 1,
      "hand": "right"
    },
    {
      "midi": 70,
      "time": 8.1,
      "duration": 0.3,
      "velocity": 1,
      "hand": "right"
    },
    {
      "midi": 51,
      "time": 8.4,
      "duration": 1.2,
      "velocity": 1,
      "hand": "left"
    },
    {
      "midi": 60,
      "time": 8.4,
      "duration": 0.285,
      "velocity": 1,
      "hand": "right"
    },
    {
      "midi": 66,
      "time": 8.4,
      "duration": 0.285,
      "velocity": 1,
      "hand": "right"
    },
    {
      "midi": 69,
      "time": 8.4,
      "duration": 0.285,
      "velocity": 1,
      "hand": "right"
    },
    {
      "midi": 60,
      "time": 8.7,
      "duration": 0.585,
      "velocity": 1,
      "hand": "right"
    },
    {
      "midi": 66,
      "time": 8.7,
      "duration": 0.3,
      "velocity": 1,
      "hand": "right"
    },
    {
      "midi": 69,
      "time": 8.7,
      "duration": 0.3,
      "velocity": 1,
      "hand": "right"
    },
    {
      "midi": 63,
      "time": 9,
      "duration": 0.3,
      "velocity": 1,
      "hand": "right"
    },
    {
      "midi": 60,
      "time": 9.3,
      "duration": 0.3,
      "velocity": 1,
      "hand": "right"
    },
    {
      "midi": 66,
      "time": 9.3,
      "duration": 0.3,
      "velocity": 1,
      "hand": "right"
    },
    {
      "midi": 69,
      "time": 9.3,
      "duration": 0.3,
      "velocity": 1,
      "hand": "right"
    },
    {
      "midi": 50,
      "time": 9.6,
      "duration": 1.185,
      "velocity": 1,
      "hand": "left"
    },
    {
      "midi": 59,
      "time": 9.6,
      "duration": 0.285,
      "velocity": 1,
      "hand": "left"
    },
    {
      "midi": 65,
      "time": 9.6,
      "duration": 0.285,
      "velocity": 1,
      "hand": "right"
    },
    {
      "midi": 68,
      "time": 9.6,
      "duration": 0.285,
      "velocity": 1,
      "hand": "right"
    },
    {
      "midi": 59,
      "time": 9.9,
      "duration": 0.585,
      "velocity": 1,
      "hand": "left"
    },
    {
      "midi": 65,
      "time": 9.9,
      "duration": 0.285,
      "velocity": 1,
      "hand": "right"
    },
    {
      "midi": 68,
      "time": 9.9,
      "duration": 0.3,
      "velocity": 1,
      "hand": "right"
    },
    {
      "midi": 65,
      "time": 10.2,
      "duration": 0.285,
      "velocity": 1,
      "hand": "right"
    },
    {
      "midi": 59,
      "time": 10.5,
      "duration": 0.3,
      "velocity": 1,
      "hand": "left"
    },
    {
      "midi": 65,
      "time": 10.5,
      "duration": 0.3,
      "velocity": 1,
      "hand": "right"
    },
    {
      "midi": 68,
      "time": 10.5,
      "duration": 0.3,
      "velocity": 1,
      "hand": "right"
    },
    {
      "midi": 50,
      "time": 10.8,
      "duration": 0.585,
      "velocity": 1,
      "hand": "left"
    },
    {
      "midi": 59,
      "time": 11.1,
      "duration": 0.285,
      "velocity": 1,
      "hand": "left"
    },
    {
      "midi": 65,
      "time": 11.1,
      "duration": 0.285,
      "velocity": 1,
      "hand": "right"
    },
    {
      "midi": 68,
      "time": 11.1,
      "duration": 0.285,
      "velocity": 1,
      "hand": "right"
    },
    {
      "midi": 50,
      "time": 11.4,
      "duration": 0.6,
      "velocity": 1,
      "hand": "left"
    },
    {
      "midi": 59,
      "time": 11.4,
      "duration": 0.285,
      "velocity": 1,
      "hand": "left"
    },
    {
      "midi": 65,
      "time": 11.4,
      "duration": 0.285,
      "velocity": 1,
      "hand": "right"
    },
    {
      "midi": 68,
      "time": 11.4,
      "duration": 0.285,
      "velocity": 1,
      "hand": "right"
    },
    {
      "midi": 59,
      "time": 11.7,
      "duration": 0.3,
      "velocity": 1,
      "hand": "left"
    },
    {
      "midi": 65,
      "time": 11.7,
      "duration": 0.285,
      "velocity": 1,
      "hand": "right"
    },
    {
      "midi": 68,
      "time": 11.7,
      "duration": 0.285,
      "velocity": 1,
      "hand": "right"
    },
    {
      "midi": 51,
      "time": 12,
      "duration": 1.2,
      "velocity": 1,
      "hand": "left"
    },
    {
      "midi": 58,
      "time": 12,
      "duration": 0.285,
      "velocity": 1,
      "hand": "left"
    },
    {
      "midi": 65,
      "time": 12,
      "duration": 0.285,
      "velocity": 1,
      "hand": "right"
    },
    {
      "midi": 68,
      "time": 12,
      "duration": 0.285,
      "velocity": 1,
      "hand": "right"
    },
    {
      "midi": 58,
      "time": 12.3,
      "duration": 0.585,
      "velocity": 1,
      "hand": "left"
    },
    {
      "midi": 65,
      "time": 12.3,
      "duration": 0.3,
      "velocity": 1,
      "hand": "right"
    },
    {
      "midi": 68,
      "time": 12.3,
      "duration": 0.3,
      "velocity": 1,
      "hand": "right"
    },
    {
      "midi": 63,
      "time": 12.6,
      "duration": 0.6,
      "velocity": 1,
      "hand": "right"
    },
    {
      "midi": 67,
      "time": 12.6,
      "duration": 0.285,
      "velocity": 1,
      "hand": "right"
    },
    {
      "midi": 58,
      "time": 12.9,
      "duration": 0.3,
      "velocity": 1,
      "hand": "left"
    },
    {
      "midi": 67,
      "time": 12.9,
      "duration": 0.3,
      "velocity": 1,
      "hand": "right"
    },
    {
      "midi": 70,
      "time": 12.9,
      "duration": 0.285,
      "velocity": 1,
      "hand": "right"
    },
    {
      "midi": 44,
      "time": 13.2,
      "duration": 1.2,
      "velocity": 1,
      "hand": "left"
    },
    {
      "midi": 60,
      "time": 13.2,
      "duration": 0.285,
      "velocity": 1,
      "hand": "right"
    },
    {
      "midi": 70,
      "time": 13.2,
      "duration": 0.3,
      "velocity": 1,
      "hand": "right"
    },
    {
      "midi": 60,
      "time": 13.5,
      "duration": 0.285,
      "velocity": 1,
      "hand": "right"
    },
    {
      "midi": 68,
      "time": 13.5,
      "duration": 0.3,
      "velocity": 1,
      "hand": "right"
    },
    {
      "midi": 58,
      "time": 13.8,
      "duration": 0.3,
      "velocity": 1,
      "hand": "left"
    },
    {
      "midi": 60,
      "time": 13.8,
      "duration": 0.285,
      "velocity": 1,
      "hand": "right"
    },
    {
      "midi": 67,
      "time": 13.8,
      "duration": 0.3,
      "velocity": 1,
      "hand": "right"
    },
    {
      "midi": 56,
      "time": 14.1,
      "duration": 0.3,
      "velocity": 1,
      "hand": "left"
    },
    {
      "midi": 60,
      "time": 14.1,
      "duration": 0.3,
      "velocity": 1,
      "hand": "right"
    },
    {
      "midi": 65,
      "time": 14.1,
      "duration": 0.3,
      "velocity": 1,
      "hand": "right"
    },
    {
      "midi": 46,
      "time": 14.4,
      "duration": 0.885,
      "velocity": 1,
      "hand": "left"
    },
    {
      "midi": 55,
      "time": 14.4,
      "duration": 0.285,
      "velocity": 1,
      "hand": "left"
    },
    {
      "midi": 63,
      "time": 14.4,
      "duration": 0.585,
      "velocity": 1,
      "hand": "right"
    },
    {
      "midi": 55,
      "time": 14.7,
      "duration": 0.6,
      "velocity": 1,
      "hand": "left"
    },
    {
      "midi": 58,
      "time": 14.7,
      "duration": 0.585,
      "velocity": 1,
      "hand": "left"
    },
    {
      "midi": 63,
      "time": 15,
      "duration": 0.3,
      "velocity": 1,
      "hand": "right"
    },
    {
      "midi": 46,
      "time": 15.3,
      "duration": 0.285,
      "velocity": 1,
      "hand": "left"
    },
    {
      "midi": 56,
      "time": 15.3,
      "duration": 0.3,
      "velocity": 1,
      "hand": "left"
    },
    {
      "midi": 65,
      "time": 15.3,
      "duration": 0.3,
      "velocity": 1,
      "hand": "right"
    },
    {
      "midi": 46,
      "time": 15.6,
      "duration": 1.185,
      "velocity": 1,
      "hand": "left"
    },
    {
      "midi": 53,
      "time": 15.6,
      "duration": 0.285,
      "velocity": 1,
      "hand": "left"
    },
    {
      "midi": 62,
      "time": 15.6,
      "duration": 0.285,
      "velocity": 1,
      "hand": "right"
    },
    {
      "midi": 53,
      "time": 15.9,
      "duration": 0.6,
      "velocity": 1,
      "hand": "left"
    },
    {
      "midi": 58,
      "time": 15.9,
      "duration": 0.3,
      "velocity": 1,
      "hand": "left"
    },
    {
      "midi": 62,
      "time": 15.9,
      "duration": 0.285,
      "velocity": 1,
      "hand": "right"
    },
    {
      "midi": 62,
      "time": 16.2,
      "duration": 0.3,
      "velocity": 1,
      "hand": "right"
    },
    {
      "midi": 65,
      "time": 16.2,
      "duration": 0.3,
      "velocity": 1,
      "hand": "right"
    },
    {
      "midi": 54,
      "time": 16.5,
      "duration": 0.3,
      "velocity": 1,
      "hand": "left"
    },
    {
      "midi": 63,
      "time": 16.5,
      "duration": 0.3,
      "velocity": 1,
      "hand": "right"
    },
    {
      "midi": 69,
      "time": 16.5,
      "duration": 0.3,
      "velocity": 1,
      "hand": "right"
    },
    {
      "midi": 46,
      "time": 16.8,
      "duration": 0.585,
      "velocity": 1,
      "hand": "left"
    },
    {
      "midi": 53,
      "time": 16.8,
      "duration": 0.6,
      "velocity": 1,
      "hand": "left"
    },
    {
      "midi": 62,
      "time": 16.8,
      "duration": 0.585,
      "velocity": 1,
      "hand": "right"
    },
    {
      "midi": 70,
      "time": 16.8,
      "duration": 0.585,
      "velocity": 1,
      "hand": "right"
    },
    {
      "midi": 46,
      "time": 17.4,
      "duration": 0.585,
      "velocity": 1,
      "hand": "left"
    },
    {
      "midi": 56,
      "time": 17.4,
      "duration": 0.6,
      "velocity": 1,
      "hand": "left"
    },
    {
      "midi": 62,
      "time": 17.4,
      "duration": 0.6,
      "velocity": 1,
      "hand": "right"
    },
    {
      "midi": 65,
      "time": 17.4,
      "duration": 0.6,
      "velocity": 1,
      "hand": "right"
    },
    {
      "midi": 70,
      "time": 17.4,
      "duration": 0.285,
      "velocity": 1,
      "hand": "right"
    },
    {
      "midi": 72,
      "time": 17.4,
      "duration": 0.3,
      "velocity": 1,
      "hand": "right"
    },
    {
      "midi": 70,
      "time": 17.7,
      "duration": 0.285,
      "velocity": 1,
      "hand": "right"
    },
    {
      "midi": 46,
      "time": 18,
      "duration": 0.585,
      "velocity": 1,
      "hand": "left"
    },
    {
      "midi": 55,
      "time": 18,
      "duration": 0.6,
      "velocity": 1,
      "hand": "left"
    },
    {
      "midi": 63,
      "time": 18,
      "duration": 0.6,
      "velocity": 1,
      "hand": "right"
    },
    {
      "midi": 67,
      "time": 18,
      "duration": 0.6,
      "velocity": 1,
      "hand": "right"
    },
    {
      "midi": 70,
      "time": 18,
      "duration": 0.285,
      "velocity": 1,
      "hand": "right"
    },
    {
      "midi": 72,
      "time": 18,
      "duration": 0.3,
      "velocity": 1,
      "hand": "right"
    },
    {
      "midi": 70,
      "time": 18.3,
      "duration": 0.285,
      "velocity": 1,
      "hand": "right"
    },
    {
      "midi": 46,
      "time": 18.6,
      "duration": 0.6,
      "velocity": 1,
      "hand": "left"
    },
    {
      "midi": 53,
      "time": 18.6,
      "duration": 0.6,
      "velocity": 1,
      "hand": "left"
    },
    {
      "midi": 62,
      "time": 18.6,
      "duration": 0.6,
      "velocity": 1,
      "hand": "right"
    },
    {
      "midi": 68,
      "time": 18.6,
      "duration": 0.6,
      "velocity": 1,
      "hand": "right"
    },
    {
      "midi": 70,
      "time": 18.6,
      "duration": 0.285,
      "velocity": 1,
      "hand": "right"
    },
    {
      "midi": 72,
      "time": 18.6,
      "duration": 0.3,
      "velocity": 1,
      "hand": "right"
    },
    {
      "midi": 70,
      "time": 18.9,
      "duration": 0.285,
      "velocity": 1,
      "hand": "right"
    },
    {
      "midi": 51,
      "time": 19.2,
      "duration": 1.185,
      "velocity": 1,
      "hand": "left"
    },
    {
      "midi": 55,
      "time": 19.2,
      "duration": 1.2,
      "velocity": 1,
      "hand": "left"
    },
    {
      "midi": 63,
      "time": 19.2,
      "duration": 0.585,
      "velocity": 1,
      "hand": "right"
    },
    {
      "midi": 67,
      "time": 19.2,
      "duration": 0.285,
      "velocity": 1,
      "hand": "right"
    },
    {
      "midi": 70,
      "time": 19.2,
      "duration": 0.285,
      "velocity": 1,
      "hand": "right"
    },
    {
      "midi": 58,
      "time": 19.5,
      "duration": 0.585,
      "velocity": 1,
      "hand": "left"
    },
    {
      "midi": 67,
      "time": 19.5,
      "duration": 0.285,
      "velocity": 1,
      "hand": "right"
    },
    {
      "midi": 70,
      "time": 19.5,
      "duration": 0.3,
      "velocity": 1,
      "hand": "right"
    },
    {
      "midi": 63,
      "time": 19.8,
      "duration": 0.3,
      "velocity": 1,
      "hand": "right"
    },
    {
      "midi": 67,
      "time": 19.8,
      "duration": 0.285,
      "velocity": 1,
      "hand": "right"
    },
    {
      "midi": 58,
      "time": 20.1,
      "duration": 0.3,
      "velocity": 1,
      "hand": "left"
    },
    {
      "midi": 67,
      "time": 20.1,
      "duration": 0.3,
      "velocity": 1,
      "hand": "right"
    },
    {
      "midi": 70,
      "time": 20.1,
      "duration": 0.3,
      "velocity": 1,
      "hand": "right"
    },
    {
      "midi": 51,
      "time": 20.4,
      "duration": 0.585,
      "velocity": 1,
      "hand": "left"
    },
    {
      "midi": 58,
      "time": 20.7,
      "duration": 0.285,
      "velocity": 1,
      "hand": "left"
    },
    {
      "midi": 67,
      "time": 20.7,
      "duration": 0.285,
      "velocity": 1,
      "hand": "right"
    },
    {
      "midi": 70,
      "time": 20.7,
      "duration": 0.285,
      "velocity": 1,
      "hand": "right"
    },
    {
      "midi": 51,
      "time": 21,
      "duration": 0.585,
      "velocity": 1,
      "hand": "left"
    },
    {
      "midi": 58,
      "time": 21,
      "duration": 0.285,
      "velocity": 1,
      "hand": "left"
    },
    {
      "midi": 63,
      "time": 21,
      "duration": 0.3,
      "velocity": 1,
      "hand": "right"
    },
    {
      "midi": 67,
      "time": 21,
      "duration": 0.285,
      "velocity": 1,
      "hand": "right"
    },
    {
      "midi": 70,
      "time": 21,
      "duration": 0.285,
      "velocity": 1,
      "hand": "right"
    },
    {
      "midi": 58,
      "time": 21.3,
      "duration": 0.285,
      "velocity": 1,
      "hand": "left"
    },
    {
      "midi": 67,
      "time": 21.3,
      "duration": 0.285,
      "velocity": 1,
      "hand": "right"
    },
    {
      "midi": 70,
      "time": 21.3,
      "duration": 0.285,
      "velocity": 1,
      "hand": "right"
    },
    {
      "midi": 51,
      "time": 21.6,
      "duration": 0.585,
      "velocity": 1,
      "hand": "left"
    },
    {
      "midi": 58,
      "time": 21.6,
      "duration": 0.285,
      "velocity": 1,
      "hand": "left"
    },
    {
      "midi": 67,
      "time": 21.6,
      "duration": 0.285,
      "velocity": 1,
      "hand": "right"
    },
    {
      "midi": 70,
      "time": 21.6,
      "duration": 0.285,
      "velocity": 1,
      "hand": "right"
    },
    {
      "midi": 58,
      "time": 21.9,
      "duration": 0.285,
      "velocity": 1,
      "hand": "left"
    },
    {
      "midi": 67,
      "time": 21.9,
      "duration": 0.285,
      "velocity": 1,
      "hand": "right"
    },
    {
      "midi": 70,
      "time": 21.9,
      "duration": 0.285,
      "velocity": 1,
      "hand": "right"
    },
    {
      "midi": 51,
      "time": 22.2,
      "duration": 0.585,
      "velocity": 1,
      "hand": "left"
    },
    {
      "midi": 58,
      "time": 22.2,
      "duration": 0.285,
      "velocity": 1,
      "hand": "left"
    },
    {
      "midi": 63,
      "time": 22.2,
      "duration": 0.3,
      "velocity": 1,
      "hand": "right"
    },
    {
      "midi": 67,
      "time": 22.2,
      "duration": 0.285,
      "velocity": 1,
      "hand": "right"
    },
    {
      "midi": 70,
      "time": 22.2,
      "duration": 0.285,
      "velocity": 1,
      "hand": "right"
    },
    {
      "midi": 58,
      "time": 22.5,
      "duration": 0.285,
      "velocity": 1,
      "hand": "left"
    },
    {
      "midi": 67,
      "time": 22.5,
      "duration": 0.285,
      "velocity": 1,
      "hand": "right"
    },
    {
      "midi": 70,
      "time": 22.5,
      "duration": 0.3,
      "velocity": 1,
      "hand": "right"
    },
    {
      "midi": 51,
      "time": 22.8,
      "duration": 0.585,
      "velocity": 1,
      "hand": "left"
    },
    {
      "midi": 58,
      "time": 22.8,
      "duration": 0.285,
      "velocity": 1,
      "hand": "left"
    },
    {
      "midi": 67,
      "time": 22.8,
      "duration": 0.285,
      "velocity": 1,
      "hand": "right"
    },
    {
      "midi": 75,
      "time": 22.8,
      "duration": 0.585,
      "velocity": 1,
      "hand": "right"
    },
    {
      "midi": 58,
      "time": 23.1,
      "duration": 0.3,
      "velocity": 1,
      "hand": "left"
    },
    {
      "midi": 67,
      "time": 23.1,
      "duration": 0.285,
      "velocity": 1,
      "hand": "right"
    },
    {
      "midi": 51,
      "time": 23.4,
      "duration": 0.585,
      "velocity": 1,
      "hand": "left"
    },
    {
      "midi": 63,
      "time": 23.4,
      "duration": 0.3,
      "velocity": 1,
      "hand": "right"
    },
    {
      "midi": 67,
      "time": 23.4,
      "duration": 0.285,
      "velocity": 1,
      "hand": "right"
    },
    {
      "midi": 72,
      "time": 23.4,
      "duration": 0.285,
      "velocity": 1,
      "hand": "right"
    },
    {
      "midi": 75,
      "time": 23.4,
      "duration": 0.3,
      "velocity": 1,
      "hand": "right"
    },
    {
      "midi": 60,
      "time": 23.7,
      "duration": 0.285,
      "velocity": 1,
      "hand": "right"
    },
    {
      "midi": 67,
      "time": 23.7,
      "duration": 0.3,
      "velocity": 1,
      "hand": "right"
    },
    {
      "midi": 72,
      "time": 23.7,
      "duration": 0.3,
      "velocity": 1,
      "hand": "right"
    },
    {
      "midi": 51,
      "time": 24,
      "duration": 1.185,
      "velocity": 1,
      "hand": "left"
    },
    {
      "midi": 60,
      "time": 24,
      "duration": 0.285,
      "velocity": 1,
      "hand": "right"
    },
    {
      "midi": 66,
      "time": 24,
      "duration": 0.285,
      "velocity": 1,
      "hand": "right"
    },
    {
      "midi": 70,
      "time": 24,
      "duration": 0.285,
      "velocity": 1,
      "hand": "right"
    },
    {
      "midi": 60,
      "time": 24.3,
      "duration": 0.585,
      "velocity": 1,
      "hand": "right"
    },
    {
      "midi": 66,
      "time": 24.3,
      "duration": 0.285,
      "velocity": 1,
      "hand": "right"
    },
    {
      "midi": 70,
      "time": 24.3,
      "duration": 0.285,
      "velocity": 1,
      "hand": "right"
    },
    {
      "midi": 66,
      "time": 24.6,
      "duration": 0.285,
      "velocity": 1,
      "hand": "right"
    },
    {
      "midi": 70,
      "time": 24.6,
      "duration": 0.285,
      "velocity": 1,
      "hand": "right"
    },
    {
      "midi": 60,
      "time": 24.9,
      "duration": 0.285,
      "velocity": 1,
      "hand": "right"
    },
    {
      "midi": 66,
      "time": 24.9,
      "duration": 0.285,
      "velocity": 1,
      "hand": "right"
    },
    {
      "midi": 70,
      "time": 24.9,
      "duration": 0.3,
      "velocity": 1,
      "hand": "right"
    },
    {
      "midi": 51,
      "time": 25.2,
      "duration": 1.185,
      "velocity": 1,
      "hand": "left"
    },
    {
      "midi": 60,
      "time": 25.2,
      "duration": 0.285,
      "velocity": 1,
      "hand": "right"
    },
    {
      "midi": 66,
      "time": 25.2,
      "duration": 0.285,
      "velocity": 1,
      "hand": "right"
    },
    {
      "midi": 69,
      "time": 25.2,
      "duration": 0.285,
      "velocity": 1,
      "hand": "right"
    },
    {
      "midi": 60,
      "time": 25.5,
      "duration": 0.585,
      "velocity": 1,
      "hand": "right"
    },
    {
      "midi": 66,
      "time": 25.5,
      "duration": 0.3,
      "velocity": 1,
      "hand": "right"
    },
    {
      "midi": 69,
      "time": 25.5,
      "duration": 0.3,
      "velocity": 1,
      "hand": "right"
    },
    {
      "midi": 63,
      "time": 25.8,
      "duration": 0.3,
      "velocity": 1,
      "hand": "right"
    },
    {
      "midi": 60,
      "time": 26.1,
      "duration": 0.285,
      "velocity": 1,
      "hand": "right"
    },
    {
      "midi": 66,
      "time": 26.1,
      "duration": 0.285,
      "velocity": 1,
      "hand": "right"
    },
    {
      "midi": 69,
      "time": 26.1,
      "duration": 0.3,
      "velocity": 1,
      "hand": "right"
    },
    {
      "midi": 51,
      "time": 26.4,
      "duration": 1.185,
      "velocity": 1,
      "hand": "left"
    },
    {
      "midi": 54,
      "time": 26.4,
      "duration": 1.2,
      "velocity": 1,
      "hand": "left"
    },
    {
      "midi": 60,
      "time": 26.4,
      "duration": 1.785,
      "velocity": 1,
      "hand": "right"
    },
    {
      "midi": 66,
      "time": 26.4,
      "duration": 0.285,
      "velocity": 1,
      "hand": "right"
    },
    {
      "midi": 70,
      "time": 26.4,
      "duration": 1.2,
      "velocity": 1,
      "hand": "right"
    },
    {
      "midi": 72,
      "time": 26.4,
      "duration": 0.285,
      "velocity": 1,
      "hand": "right"
    },
    {
      "midi": 58,
      "time": 26.7,
      "duration": 0.585,
      "velocity": 1,
      "hand": "left"
    },
    {
      "midi": 66,
      "time": 26.7,
      "duration": 0.285,
      "velocity": 1,
      "hand": "right"
    },
    {
      "midi": 72,
      "time": 26.7,
      "duration": 0.285,
      "velocity": 1,
      "hand": "right"
    },
    {
      "midi": 66,
      "time": 27,
      "duration": 0.285,
      "velocity": 1,
      "hand": "right"
    },
    {
      "midi": 72,
      "time": 27,
      "duration": 0.285,
      "velocity": 1,
      "hand": "right"
    },
    {
      "midi": 58,
      "time": 27.3,
      "duration": 0.3,
      "velocity": 1,
      "hand": "left"
    },
    {
      "midi": 66,
      "time": 27.3,
      "duration": 0.3,
      "velocity": 1,
      "hand": "right"
    },
    {
      "midi": 72,
      "time": 27.3,
      "duration": 0.3,
      "velocity": 1,
      "hand": "right"
    },
    {
      "midi": 51,
      "time": 27.6,
      "duration": 1.2,
      "velocity": 1,
      "hand": "left"
    },
    {
      "midi": 53,
      "time": 27.6,
      "duration": 1.2,
      "velocity": 1,
      "hand": "left"
    },
    {
      "midi": 65,
      "time": 27.6,
      "duration": 0.285,
      "velocity": 1,
      "hand": "right"
    },
    {
      "midi": 69,
      "time": 27.6,
      "duration": 1.2,
      "velocity": 1,
      "hand": "right"
    },
    {
      "midi": 57,
      "time": 27.9,
      "duration": 0.585,
      "velocity": 1,
      "hand": "left"
    },
    {
      "midi": 65,
      "time": 27.9,
      "duration": 0.285,
      "velocity": 1,
      "hand": "right"
    },
    {
      "midi": 72,
      "time": 27.9,
      "duration": 0.3,
      "velocity": 1,
      "hand": "right"
    },
    {
      "midi": 60,
      "time": 28.2,
      "duration": 0.3,
      "velocity": 1,
      "hand": "right"
    },
    {
      "midi": 65,
      "time": 28.2,
      "duration": 0.285,
      "velocity": 1,
      "hand": "right"
    },
    {
      "midi": 57,
      "time": 28.5,
      "duration": 0.3,
      "velocity": 1,
      "hand": "left"
    },
    {
      "midi": 65,
      "time": 28.5,
      "duration": 0.285,
      "velocity": 1,
      "hand": "right"
    },
    {
      "midi": 72,
      "time": 28.5,
      "duration": 0.3,
      "velocity": 1,
      "hand": "right"
    },
    {
      "midi": 50,
      "time": 28.8,
      "duration": 1.185,
      "velocity": 1,
      "hand": "left"
    },
    {
      "midi": 58,
      "time": 28.8,
      "duration": 0.285,
      "velocity": 1,
      "hand": "left"
    },
    {
      "midi": 65,
      "time": 28.8,
      "duration": 0.585,
      "velocity": 1,
      "hand": "right"
    },
    {
      "midi": 74,
      "time": 28.8,
      "duration": 0.285,
      "velocity": 1,
      "hand": "right"
    },
    {
      "midi": 58,
      "time": 29.1,
      "duration": 0.585,
      "velocity": 1,
      "hand": "left"
    },
    {
      "midi": 70,
      "time": 29.1,
      "duration": 0.3,
      "velocity": 1,
      "hand": "right"
    },
    {
      "midi": 74,
      "time": 29.1,
      "duration": 0.3,
      "velocity": 1,
      "hand": "right"
    },
    {
      "midi": 65,
      "time": 29.4,
      "duration": 0.3,
      "velocity": 1,
      "hand": "right"
    },
    {
      "midi": 58,
      "time": 29.7,
      "duration": 0.285,
      "velocity": 1,
      "hand": "left"
    },
    {
      "midi": 70,
      "time": 29.7,
      "duration": 0.3,
      "velocity": 1,
      "hand": "right"
    },
    {
      "midi": 74,
      "time": 29.7,
      "duration": 0.3,
      "velocity": 1,
      "hand": "right"
    },
    {
      "midi": 50,
      "time": 30,
      "duration": 0.585,
      "velocity": 1,
      "hand": "left"
    },
    {
      "midi": 58,
      "time": 30,
      "duration": 0.285,
      "velocity": 1,
      "hand": "left"
    },
    {
      "midi": 65,
      "time": 30,
      "duration": 0.585,
      "velocity": 1,
      "hand": "right"
    },
    {
      "midi": 58,
      "time": 30.3,
      "duration": 0.585,
      "velocity": 1,
      "hand": "left"
    },
    {
      "midi": 70,
      "time": 30.3,
      "duration": 0.285,
      "velocity": 1,
      "hand": "right"
    },
    {
      "midi": 74,
      "time": 30.3,
      "duration": 0.3,
      "velocity": 1,
      "hand": "right"
    },
    {
      "midi": 50,
      "time": 30.6,
      "duration": 0.6,
      "velocity": 1,
      "hand": "left"
    },
    {
      "midi": 65,
      "time": 30.6,
      "duration": 0.3,
      "velocity": 1,
      "hand": "right"
    },
    {
      "midi": 70,
      "time": 30.6,
      "duration": 0.285,
      "velocity": 1,
      "hand": "right"
    },
    {
      "midi": 58,
      "time": 30.9,
      "duration": 0.285,
      "velocity": 1,
      "hand": "left"
    },
    {
      "midi": 70,
      "time": 30.9,
      "duration": 0.285,
      "velocity": 1,
      "hand": "right"
    },
    {
      "midi": 74,
      "time": 30.9,
      "duration": 0.3,
      "velocity": 1,
      "hand": "right"
    },
    {
      "midi": 51,
      "time": 31.2,
      "duration": 0.585,
      "velocity": 1,
      "hand": "left"
    },
    {
      "midi": 58,
      "time": 31.2,
      "duration": 0.285,
      "velocity": 1,
      "hand": "left"
    },
    {
      "midi": 63,
      "time": 31.2,
      "duration": 0.585,
      "velocity": 1,
      "hand": "right"
    },
    {
      "midi": 67,
      "time": 31.2,
      "duration": 0.585,
      "velocity": 1,
      "hand": "right"
    },
    {
      "midi": 70,
      "time": 31.2,
      "duration": 0.285,
      "velocity": 1,
      "hand": "right"
    },
    {
      "midi": 58,
      "time": 31.5,
      "duration": 0.285,
      "velocity": 1,
      "hand": "left"
    },
    {
      "midi": 70,
      "time": 31.5,
      "duration": 0.3,
      "velocity": 1,
      "hand": "right"
    },
    {
      "midi": 72,
      "time": 31.5,
      "duration": 0.285,
      "velocity": 1,
      "hand": "right"
    },
    {
      "midi": 51,
      "time": 31.8,
      "duration": 0.6,
      "velocity": 1,
      "hand": "left"
    },
    {
      "midi": 58,
      "time": 31.8,
      "duration": 0.285,
      "velocity": 1,
      "hand": "left"
    },
    {
      "midi": 63,
      "time": 31.8,
      "duration": 0.6,
      "velocity": 1,
      "hand": "right"
    },
    {
      "midi": 67,
      "time": 31.8,
      "duration": 0.3,
      "velocity": 1,
      "hand": "right"
    },
    {
      "midi": 72,
      "time": 31.8,
      "duration": 0.285,
      "velocity": 1,
      "hand": "right"
    },
    {
      "midi": 58,
      "time": 32.1,
      "duration": 0.285,
      "velocity": 1,
      "hand": "left"
    },
    {
      "midi": 70,
      "time": 32.1,
      "duration": 0.285,
      "velocity": 1,
      "hand": "right"
    },
    {
      "midi": 72,
      "time": 32.1,
      "duration": 0.3,
      "velocity": 1,
      "hand": "right"
    },
    {
      "midi": 50,
      "time": 32.4,
      "duration": 0.6,
      "velocity": 1,
      "hand": "left"
    },
    {
      "midi": 58,
      "time": 32.4,
      "duration": 0.285,
      "velocity": 1,
      "hand": "left"
    },
    {
      "midi": 65,
      "time": 32.4,
      "duration": 0.6,
      "velocity": 1,
      "hand": "right"
    },
    {
      "midi": 70,
      "time": 32.4,
      "duration": 0.285,
      "velocity": 1,
      "hand": "right"
    },
    {
      "midi": 74,
      "time": 32.4,
      "duration": 0.285,
      "velocity": 1,
      "hand": "right"
    },
    {
      "midi": 58,
      "time": 32.7,
      "duration": 0.285,
      "velocity": 1,
      "hand": "left"
    },
    {
      "midi": 70,
      "time": 32.7,
      "duration": 0.3,
      "velocity": 1,
      "hand": "right"
    },
    {
      "midi": 74,
      "time": 32.7,
      "duration": 0.3,
      "velocity": 1,
      "hand": "right"
    },
    {
      "midi": 48,
      "time": 33,
      "duration": 0.6,
      "velocity": 1,
      "hand": "left"
    },
    {
      "midi": 58,
      "time": 33,
      "duration": 0.285,
      "velocity": 1,
      "hand": "left"
    },
    {
      "midi": 63,
      "time": 33,
      "duration": 0.6,
      "velocity": 1,
      "hand": "right"
    },
    {
      "midi": 67,
      "time": 33,
      "duration": 0.6,
      "velocity": 1,
      "hand": "right"
    },
    {
      "midi": 75,
      "time": 33,
      "duration": 0.285,
      "velocity": 1,
      "hand": "right"
    },
    {
      "midi": 58,
      "time": 33.3,
      "duration": 0.285,
      "velocity": 1,
      "hand": "left"
    },
    {
      "midi": 70,
      "time": 33.3,
      "duration": 0.285,
      "velocity": 1,
      "hand": "right"
    },
    {
      "midi": 75,
      "time": 33.3,
      "duration": 0.3,
      "velocity": 1,
      "hand": "right"
    },
    {
      "midi": 53,
      "time": 33.6,
      "duration": 1.185,
      "velocity": 1,
      "hand": "left"
    },
    {
      "midi": 58,
      "time": 33.6,
      "duration": 1.2,
      "velocity": 1,
      "hand": "left"
    },
    {
      "midi": 65,
      "time": 33.6,
      "duration": 0.285,
      "velocity": 1,
      "hand": "right"
    },
    {
      "midi": 70,
      "time": 33.6,
      "duration": 0.285,
      "velocity": 1,
      "hand": "right"
    },
    {
      "midi": 74,
      "time": 33.6,
      "duration": 0.285,
      "velocity": 1,
      "hand": "right"
    },
    {
      "midi": 65,
      "time": 33.9,
      "duration": 0.585,
      "velocity": 1,
      "hand": "right"
    },
    {
      "midi": 70,
      "time": 33.9,
      "duration": 0.3,
      "velocity": 1,
      "hand": "right"
    },
    {
      "midi": 74,
      "time": 33.9,
      "duration": 0.3,
      "velocity": 1,
      "hand": "right"
    },
    {
      "midi": 65,
      "time": 34.5,
      "duration": 0.285,
      "velocity": 1,
      "hand": "right"
    },
    {
      "midi": 70,
      "time": 34.5,
      "duration": 0.3,
      "velocity": 1,
      "hand": "right"
    },
    {
      "midi": 74,
      "time": 34.5,
      "duration": 0.3,
      "velocity": 1,
      "hand": "right"
    },
    {
      "midi": 41,
      "time": 34.8,
      "duration": 1.2,
      "velocity": 1,
      "hand": "left"
    },
    {
      "midi": 53,
      "time": 34.8,
      "duration": 1.2,
      "velocity": 1,
      "hand": "left"
    },
    {
      "midi": 63,
      "time": 34.8,
      "duration": 0.585,
      "velocity": 1,
      "hand": "right"
    },
    {
      "midi": 65,
      "time": 34.8,
      "duration": 0.285,
      "velocity": 1,
      "hand": "right"
    },
    {
      "midi": 69,
      "time": 34.8,
      "duration": 0.285,
      "velocity": 1,
      "hand": "right"
    },
    {
      "midi": 65,
      "time": 35.1,
      "duration": 0.585,
      "velocity": 1,
      "hand": "right"
    },
    {
      "midi": 69,
      "time": 35.1,
      "duration": 0.3,
      "velocity": 1,
      "hand": "right"
    },
    {
      "midi": 74,
      "time": 35.1,
      "duration": 0.3,
      "velocity": 1,
      "hand": "right"
    },
    {
      "midi": 63,
      "time": 35.4,
      "duration": 0.3,
      "velocity": 1,
      "hand": "right"
    },
    {
      "midi": 72,
      "time": 35.4,
      "duration": 0.285,
      "velocity": 1,
      "hand": "right"
    },
    {
      "midi": 65,
      "time": 35.7,
      "duration": 0.285,
      "velocity": 1,
      "hand": "right"
    },
    {
      "midi": 69,
      "time": 35.7,
      "duration": 0.3,
      "velocity": 1,
      "hand": "right"
    },
    {
      "midi": 72,
      "time": 35.7,
      "duration": 0.3,
      "velocity": 1,
      "hand": "right"
    },
    {
      "midi": 46,
      "time": 36,
      "duration": 1.2,
      "velocity": 1,
      "hand": "left"
    },
    {
      "midi": 62,
      "time": 36,
      "duration": 0.585,
      "velocity": 1,
      "hand": "right"
    },
    {
      "midi": 65,
      "time": 36,
      "duration": 0.6,
      "velocity": 1,
      "hand": "right"
    },
    {
      "midi": 70,
      "time": 36,
      "duration": 0.285,
      "velocity": 1,
      "hand": "right"
    },
    {
      "midi": 70,
      "time": 36.3,
      "duration": 0.285,
      "velocity": 1,
      "hand": "right"
    },
    {
      "midi": 58,
      "time": 36.6,
      "duration": 0.585,
      "velocity": 1,
      "hand": "left"
    },
    {
      "midi": 62,
      "time": 36.6,
      "duration": 0.3,
      "velocity": 1,
      "hand": "right"
    },
    {
      "midi": 70,
      "time": 36.6,
      "duration": 0.585,
      "velocity": 1,
      "hand": "right"
    },
    {
      "midi": 74,
      "time": 36.6,
      "duration": 0.3,
      "velocity": 1,
      "hand": "right"
    },
    {
      "midi": 82,
      "time": 36.6,
      "duration": 0.585,
      "velocity": 1,
      "hand": "right"
    },
    {
      "midi": 65,
      "time": 36.9,
      "duration": 0.3,
      "velocity": 1,
      "hand": "right"
    },
    {
      "midi": 77,
      "time": 36.9,
      "duration": 0.3,
      "velocity": 1,
      "hand": "right"
    },
    {
      "midi": 54,
      "time": 37.2,
      "duration": 0.6,
      "velocity": 1,
      "hand": "left"
    },
    {
      "midi": 58,
      "time": 37.2,
      "duration": 0.585,
      "velocity": 1,
      "hand": "left"
    },
    {
      "midi": 63,
      "time": 37.2,
      "duration": 0.585,
      "velocity": 1,
      "hand": "right"
    },
    {
      "midi": 70,
      "time": 37.2,
      "duration": 0.585,
      "velocity": 1,
      "hand": "right"
    },
    {
      "midi": 75,
      "time": 37.2,
      "duration": 0.6,
      "velocity": 1,
      "hand": "right"
    },
    {
      "midi": 82,
      "time": 37.2,
      "duration": 0.585,
      "velocity": 1,
      "hand": "right"
    },
    {
      "midi": 65,
      "time": 37.5,
      "duration": 0.3,
      "velocity": 1,
      "hand": "right"
    },
    {
      "midi": 77,
      "time": 37.5,
      "duration": 0.3,
      "velocity": 1,
      "hand": "right"
    },
    {
      "midi": 51,
      "time": 37.8,
      "duration": 0.6,
      "velocity": 1,
      "hand": "left"
    },
    {
      "midi": 58,
      "time": 37.8,
      "duration": 0.585,
      "velocity": 1,
      "hand": "left"
    },
    {
      "midi": 66,
      "time": 37.8,
      "duration": 0.6,
      "velocity": 1,
      "hand": "right"
    },
    {
      "midi": 70,
      "time": 37.8,
      "duration": 0.285,
      "velocity": 1,
      "hand": "right"
    },
    {
      "midi": 78,
      "time": 37.8,
      "duration": 0.6,
      "velocity": 1,
      "hand": "right"
    },
    {
      "midi": 82,
      "time": 37.8,
      "duration": 0.285,
      "velocity": 1,
      "hand": "right"
    },
    {
      "midi": 70,
      "time": 38.1,
      "duration": 0.285,
      "velocity": 1,
      "hand": "right"
    },
    {
      "midi": 82,
      "time": 38.1,
      "duration": 0.3,
      "velocity": 1,
      "hand": "right"
    },
    {
      "midi": 53,
      "time": 38.4,
      "duration": 1.185,
      "velocity": 1,
      "hand": "left"
    },
    {
      "midi": 58,
      "time": 38.4,
      "duration": 0.285,
      "velocity": 1,
      "hand": "left"
    },
    {
      "midi": 62,
      "time": 38.4,
      "duration": 0.285,
      "velocity": 1,
      "hand": "right"
    },
    {
      "midi": 70,
      "time": 38.4,
      "duration": 0.885,
      "velocity": 1,
      "hand": "right"
    },
    {
      "midi": 77,
      "time": 38.4,
      "duration": 0.585,
      "velocity": 1,
      "hand": "right"
    },
    {
      "midi": 58,
      "time": 38.7,
      "duration": 0.585,
      "velocity": 1,
      "hand": "left"
    },
    {
      "midi": 62,
      "time": 38.7,
      "duration": 0.585,
      "velocity": 1,
      "hand": "right"
    },
    {
      "midi": 82,
      "time": 38.7,
      "duration": 0.3,
      "velocity": 1,
      "hand": "right"
    },
    {
      "midi": 65,
      "time": 39,
      "duration": 0.3,
      "velocity": 1,
      "hand": "right"
    },
    {
      "midi": 77,
      "time": 39,
      "duration": 0.3,
      "velocity": 1,
      "hand": "right"
    },
    {
      "midi": 58,
      "time": 39.3,
      "duration": 0.3,
      "velocity": 1,
      "hand": "left"
    },
    {
      "midi": 62,
      "time": 39.3,
      "duration": 0.3,
      "velocity": 1,
      "hand": "right"
    },
    {
      "midi": 70,
      "time": 39.3,
      "duration": 0.3,
      "velocity": 1,
      "hand": "right"
    },
    {
      "midi": 74,
      "time": 39.3,
      "duration": 0.3,
      "velocity": 1,
      "hand": "right"
    },
    {
      "midi": 41,
      "time": 39.6,
      "duration": 1.2,
      "velocity": 1,
      "hand": "left"
    },
    {
      "midi": 53,
      "time": 39.6,
      "duration": 1.185,
      "velocity": 1,
      "hand": "left"
    },
    {
      "midi": 60,
      "time": 39.6,
      "duration": 0.285,
      "velocity": 1,
      "hand": "right"
    },
    {
      "midi": 63,
      "time": 39.6,
      "duration": 1.2,
      "velocity": 1,
      "hand": "right"
    },
    {
      "midi": 69,
      "time": 39.6,
      "duration": 0.285,
      "velocity": 1,
      "hand": "right"
    },
    {
      "midi": 77,
      "time": 39.6,
      "duration": 0.885,
      "velocity": 1,
      "hand": "right"
    },
    {
      "midi": 60,
      "time": 39.9,
      "duration": 0.585,
      "velocity": 1,
      "hand": "right"
    },
    {
      "midi": 69,
      "time": 39.9,
      "duration": 0.585,
      "velocity": 1,
      "hand": "right"
    },
    {
      "midi": 75,
      "time": 39.9,
      "duration": 0.3,
      "velocity": 1,
      "hand": "right"
    },
    {
      "midi": 74,
      "time": 40.2,
      "duration": 0.3,
      "velocity": 1,
      "hand": "right"
    },
    {
      "midi": 60,
      "time": 40.5,
      "duration": 0.3,
      "velocity": 1,
      "hand": "right"
    },
    {
      "midi": 69,
      "time": 40.5,
      "duration": 0.3,
      "velocity": 1,
      "hand": "right"
    },
    {
      "midi": 75,
      "time": 40.5,
      "duration": 0.3,
      "velocity": 1,
      "hand": "right"
    },
    {
      "midi": 77,
      "time": 40.5,
      "duration": 0.15,
      "velocity": 1,
      "hand": "right"
    },
    {
      "midi": 46,
      "time": 40.8,
      "duration": 0.585,
      "velocity": 1,
      "hand": "left"
    },
    {
      "midi": 53,
      "time": 40.8,
      "duration": 0.585,
      "velocity": 1,
      "hand": "left"
    },
    {
      "midi": 62,
      "time": 40.8,
      "duration": 0.285,
      "velocity": 1,
      "hand": "right"
    },
    {
      "midi": 70,
      "time": 40.8,
      "duration": 0.585,
      "velocity": 1,
      "hand": "right"
    },
    {
      "midi": 74,
      "time": 40.8,
      "duration": 0.6,
      "velocity": 1,
      "hand": "right"
    },
    {
      "midi": 77,
      "time": 40.8,
      "duration": 0.6,
      "velocity": 1,
      "hand": "right"
    },
    {
      "midi": 58,
      "time": 41.1,
      "duration": 0.3,
      "velocity": 1,
      "hand": "left"
    },
    {
      "midi": 62,
      "time": 41.1,
      "duration": 0.285,
      "velocity": 1,
      "hand": "right"
    },
    {
      "midi": 46,
      "time": 41.4,
      "duration": 0.6,
      "velocity": 1,
      "hand": "left"
    },
    {
      "midi": 53,
      "time": 41.4,
      "duration": 0.585,
      "velocity": 1,
      "hand": "left"
    },
    {
      "midi": 62,
      "time": 41.4,
      "duration": 0.3,
      "velocity": 1,
      "hand": "right"
    },
    {
      "midi": 65,
      "time": 41.4,
      "duration": 0.285,
      "velocity": 1,
      "hand": "right"
    },
    {
      "midi": 70,
      "time": 41.4,
      "duration": 0.285,
      "velocity": 1,
      "hand": "right"
    },
    {
      "midi": 50,
      "time": 41.7,
      "duration": 0.3,
      "velocity": 1,
      "hand": "left"
    },
    {
      "midi": 65,
      "time": 41.7,
      "duration": 0.3,
      "velocity": 1,
      "hand": "right"
    },
    {
      "midi": 70,
      "time": 41.7,
      "duration": 0.3,
      "velocity": 1,
      "hand": "right"
    },
    {
      "midi": 47,
      "time": 42,
      "duration": 0.6,
      "velocity": 1,
      "hand": "left"
    },
    {
      "midi": 53,
      "time": 42,
      "duration": 0.6,
      "velocity": 1,
      "hand": "left"
    },
    {
      "midi": 62,
      "time": 42,
      "duration": 1.2,
      "velocity": 1,
      "hand": "right"
    },
    {
      "midi": 68,
      "time": 42,
      "duration": 0.6,
      "velocity": 1,
      "hand": "right"
    },
    {
      "midi": 46,
      "time": 42.6,
      "duration": 0.6,
      "velocity": 1,
      "hand": "left"
    },
    {
      "midi": 55,
      "time": 42.6,
      "duration": 0.3,
      "velocity": 1,
      "hand": "left"
    },
    {
      "midi": 67,
      "time": 42.6,
      "duration": 0.3,
      "velocity": 1,
      "hand": "right"
    },
    {
      "midi": 56,
      "time": 42.9,
      "duration": 0.3,
      "velocity": 1,
      "hand": "left"
    },
    {
      "midi": 65,
      "time": 42.9,
      "duration": 0.3,
      "velocity": 1,
      "hand": "right"
    },
    {
      "midi": 39,
      "time": 43.2,
      "duration": 0.6,
      "velocity": 1,
      "hand": "left"
    },
    {
      "midi": 51,
      "time": 43.2,
      "duration": 0.585,
      "velocity": 1,
      "hand": "left"
    },
    {
      "midi": 63,
      "time": 43.2,
      "duration": 0.585,
      "velocity": 1,
      "hand": "right"
    },
    {
      "midi": 67,
      "time": 43.2,
      "duration": 0.285,
      "velocity": 1,
      "hand": "right"
    },
    {
      "midi": 70,
      "time": 43.2,
      "duration": 0.285,
      "velocity": 1,
      "hand": "right"
    },
    {
      "midi": 58,
      "time": 43.5,
      "duration": 0.285,
      "velocity": 1,
      "hand": "left"
    },
    {
      "midi": 67,
      "time": 43.5,
      "duration": 0.285,
      "velocity": 1,
      "hand": "right"
    },
    {
      "midi": 70,
      "time": 43.5,
      "duration": 0.285,
      "velocity": 1,
      "hand": "right"
    },
    {
      "midi": 51,
      "time": 43.8,
      "duration": 0.585,
      "velocity": 1,
      "hand": "left"
    },
    {
      "midi": 58,
      "time": 43.8,
      "duration": 0.285,
      "velocity": 1,
      "hand": "left"
    },
    {
      "midi": 63,
      "time": 43.8,
      "duration": 0.3,
      "velocity": 1,
      "hand": "right"
    },
    {
      "midi": 67,
      "time": 43.8,
      "duration": 0.285,
      "velocity": 1,
      "hand": "right"
    },
    {
      "midi": 70,
      "time": 43.8,
      "duration": 0.285,
      "velocity": 1,
      "hand": "right"
    },
    {
      "midi": 58,
      "time": 44.1,
      "duration": 0.3,
      "velocity": 1,
      "hand": "left"
    },
    {
      "midi": 67,
      "time": 44.1,
      "duration": 0.3,
      "velocity": 1,
      "hand": "right"
    },
    {
      "midi": 70,
      "time": 44.1,
      "duration": 0.3,
      "velocity": 1,
      "hand": "right"
    },
    {
      "midi": 51,
      "time": 44.4,
      "duration": 0.585,
      "velocity": 1,
      "hand": "left"
    },
    {
      "midi": 58,
      "time": 44.7,
      "duration": 0.285,
      "velocity": 1,
      "hand": "left"
    },
    {
      "midi": 67,
      "time": 44.7,
      "duration": 0.285,
      "velocity": 1,
      "hand": "right"
    },
    {
      "midi": 70,
      "time": 44.7,
      "duration": 0.285,
      "velocity": 1,
      "hand": "right"
    },
    {
      "midi": 51,
      "time": 45,
      "duration": 0.585,
      "velocity": 1,
      "hand": "left"
    },
    {
      "midi": 58,
      "time": 45,
      "duration": 0.285,
      "velocity": 1,
      "hand": "left"
    },
    {
      "midi": 63,
      "time": 45,
      "duration": 0.3,
      "velocity": 1,
      "hand": "right"
    },
    {
      "midi": 67,
      "time": 45,
      "duration": 0.285,
      "velocity": 1,
      "hand": "right"
    },
    {
      "midi": 70,
      "time": 45,
      "duration": 0.285,
      "velocity": 1,
      "hand": "right"
    },
    {
      "midi": 58,
      "time": 45.3,
      "duration": 0.285,
      "velocity": 1,
      "hand": "left"
    },
    {
      "midi": 67,
      "time": 45.3,
      "duration": 0.285,
      "velocity": 1,
      "hand": "right"
    },
    {
      "midi": 70,
      "time": 45.3,
      "duration": 0.285,
      "velocity": 1,
      "hand": "right"
    },
    {
      "midi": 51,
      "time": 45.6,
      "duration": 0.585,
      "velocity": 1,
      "hand": "left"
    },
    {
      "midi": 58,
      "time": 45.6,
      "duration": 0.285,
      "velocity": 1,
      "hand": "left"
    },
    {
      "midi": 67,
      "time": 45.6,
      "duration": 0.285,
      "velocity": 1,
      "hand": "right"
    },
    {
      "midi": 70,
      "time": 45.6,
      "duration": 0.285,
      "velocity": 1,
      "hand": "right"
    },
    {
      "midi": 58,
      "time": 45.9,
      "duration": 0.285,
      "velocity": 1,
      "hand": "left"
    },
    {
      "midi": 67,
      "time": 45.9,
      "duration": 0.285,
      "velocity": 1,
      "hand": "right"
    },
    {
      "midi": 70,
      "time": 45.9,
      "duration": 0.285,
      "velocity": 1,
      "hand": "right"
    },
    {
      "midi": 51,
      "time": 46.2,
      "duration": 0.585,
      "velocity": 1,
      "hand": "left"
    },
    {
      "midi": 58,
      "time": 46.2,
      "duration": 0.285,
      "velocity": 1,
      "hand": "left"
    },
    {
      "midi": 63,
      "time": 46.2,
      "duration": 0.3,
      "velocity": 1,
      "hand": "right"
    },
    {
      "midi": 67,
      "time": 46.2,
      "duration": 0.285,
      "velocity": 1,
      "hand": "right"
    },
    {
      "midi": 70,
      "time": 46.2,
      "duration": 0.285,
      "velocity": 1,
      "hand": "right"
    },
    {
      "midi": 58,
      "time": 46.5,
      "duration": 0.285,
      "velocity": 1,
      "hand": "left"
    },
    {
      "midi": 67,
      "time": 46.5,
      "duration": 0.285,
      "velocity": 1,
      "hand": "right"
    },
    {
      "midi": 70,
      "time": 46.5,
      "duration": 0.285,
      "velocity": 1,
      "hand": "right"
    },
    {
      "midi": 51,
      "time": 46.8,
      "duration": 0.585,
      "velocity": 1,
      "hand": "left"
    },
    {
      "midi": 58,
      "time": 46.8,
      "duration": 0.285,
      "velocity": 1,
      "hand": "left"
    },
    {
      "midi": 67,
      "time": 46.8,
      "duration": 0.285,
      "velocity": 1,
      "hand": "right"
    },
    {
      "midi": 70,
      "time": 46.8,
      "duration": 0.285,
      "velocity": 1,
      "hand": "right"
    },
    {
      "midi": 58,
      "time": 47.1,
      "duration": 0.285,
      "velocity": 1,
      "hand": "left"
    },
    {
      "midi": 67,
      "time": 47.1,
      "duration": 0.285,
      "velocity": 1,
      "hand": "right"
    },
    {
      "midi": 70,
      "time": 47.1,
      "duration": 0.3,
      "velocity": 1,
      "hand": "right"
    },
    {
      "midi": 51,
      "time": 47.4,
      "duration": 0.585,
      "velocity": 1,
      "hand": "left"
    },
    {
      "midi": 58,
      "time": 47.4,
      "duration": 0.585,
      "velocity": 1,
      "hand": "left"
    },
    {
      "midi": 60,
      "time": 47.4,
      "duration": 0.285,
      "velocity": 1,
      "hand": "right"
    },
    {
      "midi": 63,
      "time": 47.4,
      "duration": 0.3,
      "velocity": 1,
      "hand": "right"
    },
    {
      "midi": 67,
      "time": 47.4,
      "duration": 0.285,
      "velocity": 1,
      "hand": "right"
    },
    {
      "midi": 60,
      "time": 47.7,
      "duration": 0.3,
      "velocity": 1,
      "hand": "right"
    },
    {
      "midi": 67,
      "time": 47.7,
      "duration": 0.3,
      "velocity": 1,
      "hand": "right"
    },
    {
      "midi": 72,
      "time": 47.7,
      "duration": 0.285,
      "velocity": 1,
      "hand": "right"
    },
    {
      "midi": 51,
      "time": 48,
      "duration": 1.185,
      "velocity": 1,
      "hand": "left"
    },
    {
      "midi": 58,
      "time": 48,
      "duration": 0.285,
      "velocity": 1,
      "hand": "left"
    },
    {
      "midi": 66,
      "time": 48,
      "duration": 0.285,
      "velocity": 1,
      "hand": "right"
    },
    {
      "midi": 72,
      "time": 48,
      "duration": 0.285,
      "velocity": 1,
      "hand": "right"
    },
    {
      "midi": 58,
      "time": 48.3,
      "duration": 0.585,
      "velocity": 1,
      "hand": "left"
    },
    {
      "midi": 66,
      "time": 48.3,
      "duration": 0.285,
      "velocity": 1,
      "hand": "right"
    },
    {
      "midi": 72,
      "time": 48.3,
      "duration": 0.3,
      "velocity": 1,
      "hand": "right"
    },
    {
      "midi": 60,
      "time": 48.6,
      "duration": 0.3,
      "velocity": 1,
      "hand": "right"
    },
    {
      "midi": 66,
      "time": 48.6,
      "duration": 0.285,
      "velocity": 1,
      "hand": "right"
    },
    {
      "midi": 58,
      "time": 48.9,
      "duration": 0.3,
      "velocity": 1,
      "hand": "left"
    },
    {
      "midi": 66,
      "time": 48.9,
      "duration": 0.285,
      "velocity": 1,
      "hand": "right"
    },
    {
      "midi": 72,
      "time": 48.9,
      "duration": 0.285,
      "velocity": 1,
      "hand": "right"
    },
    {
      "midi": 51,
      "time": 49.2,
      "duration": 1.185,
      "velocity": 1,
      "hand": "left"
    },
    {
      "midi": 57,
      "time": 49.2,
      "duration": 0.285,
      "velocity": 1,
      "hand": "left"
    },
    {
      "midi": 66,
      "time": 49.2,
      "duration": 0.285,
      "velocity": 1,
      "hand": "right"
    },
    {
      "midi": 72,
      "time": 49.2,
      "duration": 0.285,
      "velocity": 1,
      "hand": "right"
    },
    {
      "midi": 57,
      "time": 49.5,
      "duration": 0.585,
      "velocity": 1,
      "hand": "left"
    },
    {
      "midi": 66,
      "time": 49.5,
      "duration": 0.285,
      "velocity": 1,
      "hand": "right"
    },
    {
      "midi": 72,
      "time": 49.5,
      "duration": 0.3,
      "velocity": 1,
      "hand": "right"
    },
    {
      "midi": 60,
      "time": 49.8,
      "duration": 0.3,
      "velocity": 1,
      "hand": "right"
    },
    {
      "midi": 66,
      "time": 49.8,
      "duration": 0.285,
      "velocity": 1,
      "hand": "right"
    },
    {
      "midi": 57,
      "time": 50.1,
      "duration": 0.3,
      "velocity": 1,
      "hand": "left"
    },
    {
      "midi": 66,
      "time": 50.1,
      "duration": 0.285,
      "velocity": 1,
      "hand": "right"
    },
    {
      "midi": 72,
      "time": 50.1,
      "duration": 0.285,
      "velocity": 1,
      "hand": "right"
    },
    {
      "midi": 51,
      "time": 50.4,
      "duration": 1.185,
      "velocity": 1,
      "hand": "left"
    },
    {
      "midi": 54,
      "time": 50.4,
      "duration": 1.2,
      "velocity": 1,
      "hand": "left"
    },
    {
      "midi": 60,
      "time": 50.4,
      "duration": 0.585,
      "velocity": 1,
      "hand": "right"
    },
    {
      "midi": 66,
      "time": 50.4,
      "duration": 0.285,
      "velocity": 1,
      "hand": "right"
    },
    {
      "midi": 72,
      "time": 50.4,
      "duration": 0.285,
      "velocity": 1,
      "hand": "right"
    },
    {
      "midi": 78,
      "time": 50.4,
      "duration": 1.2,
      "velocity": 1,
      "hand": "right"
    },
    {
      "midi": 58,
      "time": 50.7,
      "duration": 0.585,
      "velocity": 1,
      "hand": "left"
    },
    {
      "midi": 66,
      "time": 50.7,
      "duration": 0.285,
      "velocity": 1,
      "hand": "right"
    },
    {
      "midi": 72,
      "time": 50.7,
      "duration": 0.3,
      "velocity": 1,
      "hand": "right"
    },
    {
      "midi": 60,
      "time": 51,
      "duration": 0.3,
      "velocity": 1,
      "hand": "right"
    },
    {
      "midi": 66,
      "time": 51,
      "duration": 0.285,
      "velocity": 1,
      "hand": "right"
    },
    {
      "midi": 58,
      "time": 51.3,
      "duration": 0.3,
      "velocity": 1,
      "hand": "left"
    },
    {
      "midi": 66,
      "time": 51.3,
      "duration": 0.3,
      "velocity": 1,
      "hand": "right"
    },
    {
      "midi": 72,
      "time": 51.3,
      "duration": 0.3,
      "velocity": 1,
      "hand": "right"
    },
    {
      "midi": 51,
      "time": 51.6,
      "duration": 0.6,
      "velocity": 1,
      "hand": "left"
    },
    {
      "midi": 53,
      "time": 51.6,
      "duration": 0.6,
      "velocity": 1,
      "hand": "left"
    },
    {
      "midi": 65,
      "time": 51.6,
      "duration": 0.285,
      "velocity": 1,
      "hand": "right"
    },
    {
      "midi": 77,
      "time": 51.6,
      "duration": 0.6,
      "velocity": 1,
      "hand": "right"
    },
    {
      "midi": 57,
      "time": 51.9,
      "duration": 0.585,
      "velocity": 1,
      "hand": "left"
    },
    {
      "midi": 65,
      "time": 51.9,
      "duration": 0.285,
      "velocity": 1,
      "hand": "right"
    },
    {
      "midi": 72,
      "time": 51.9,
      "duration": 0.3,
      "velocity": 1,
      "hand": "right"
    },
    {
      "midi": 60,
      "time": 52.2,
      "duration": 0.3,
      "velocity": 1,
      "hand": "right"
    },
    {
      "midi": 65,
      "time": 52.2,
      "duration": 0.285,
      "velocity": 1,
      "hand": "right"
    },
    {
      "midi": 57,
      "time": 52.5,
      "duration": 0.3,
      "velocity": 1,
      "hand": "left"
    },
    {
      "midi": 65,
      "time": 52.5,
      "duration": 0.285,
      "velocity": 1,
      "hand": "right"
    },
    {
      "midi": 72,
      "time": 52.5,
      "duration": 0.3,
      "velocity": 1,
      "hand": "right"
    },
    {
      "midi": 50,
      "time": 52.8,
      "duration": 1.185,
      "velocity": 1,
      "hand": "left"
    },
    {
      "midi": 56,
      "time": 52.8,
      "duration": 0.285,
      "velocity": 1,
      "hand": "left"
    },
    {
      "midi": 68,
      "time": 52.8,
      "duration": 0.285,
      "velocity": 1,
      "hand": "right"
    },
    {
      "midi": 71,
      "time": 52.8,
      "duration": 0.285,
      "velocity": 1,
      "hand": "right"
    },
    {
      "midi": 77,
      "time": 52.8,
      "duration": 1.8,
      "velocity": 1,
      "hand": "right"
    },
    {
      "midi": 80,
      "time": 52.8,
      "duration": 1.2,
      "velocity": 1,
      "hand": "right"
    },
    {
      "midi": 56,
      "time": 53.1,
      "duration": 0.585,
      "velocity": 1,
      "hand": "left"
    },
    {
      "midi": 68,
      "time": 53.1,
      "duration": 0.285,
      "velocity": 1,
      "hand": "right"
    },
    {
      "midi": 71,
      "time": 53.1,
      "duration": 0.3,
      "velocity": 1,
      "hand": "right"
    },
    {
      "midi": 65,
      "time": 53.4,
      "duration": 0.3,
      "velocity": 1,
      "hand": "right"
    },
    {
      "midi": 68,
      "time": 53.4,
      "duration": 0.285,
      "velocity": 1,
      "hand": "right"
    },
    {
      "midi": 56,
      "time": 53.7,
      "duration": 0.3,
      "velocity": 1,
      "hand": "left"
    },
    {
      "midi": 68,
      "time": 53.7,
      "duration": 0.3,
      "velocity": 1,
      "hand": "right"
    },
    {
      "midi": 71,
      "time": 53.7,
      "duration": 0.3,
      "velocity": 1,
      "hand": "right"
    },
    {
      "midi": 50,
      "time": 54,
      "duration": 0.585,
      "velocity": 1,
      "hand": "left"
    },
    {
      "midi": 56,
      "time": 54.3,
      "duration": 0.285,
      "velocity": 1,
      "hand": "left"
    },
    {
      "midi": 65,
      "time": 54.3,
      "duration": 0.285,
      "velocity": 1,
      "hand": "right"
    },
    {
      "midi": 71,
      "time": 54.3,
      "duration": 0.285,
      "velocity": 1,
      "hand": "right"
    },
    {
      "midi": 50,
      "time": 54.6,
      "duration": 0.6,
      "velocity": 1,
      "hand": "left"
    },
    {
      "midi": 56,
      "time": 54.6,
      "duration": 0.285,
      "velocity": 1,
      "hand": "left"
    },
    {
      "midi": 65,
      "time": 54.6,
      "duration": 0.285,
      "velocity": 1,
      "hand": "right"
    },
    {
      "midi": 71,
      "time": 54.6,
      "duration": 0.285,
      "velocity": 1,
      "hand": "right"
    },
    {
      "midi": 56,
      "time": 54.9,
      "duration": 0.285,
      "velocity": 1,
      "hand": "left"
    },
    {
      "midi": 65,
      "time": 54.9,
      "duration": 0.285,
      "velocity": 1,
      "hand": "right"
    },
    {
      "midi": 71,
      "time": 54.9,
      "duration": 0.3,
      "velocity": 1,
      "hand": "right"
    },
    {
      "midi": 51,
      "time": 55.2,
      "duration": 1.2,
      "velocity": 1,
      "hand": "left"
    },
    {
      "midi": 56,
      "time": 55.2,
      "duration": 0.285,
      "velocity": 1,
      "hand": "left"
    },
    {
      "midi": 65,
      "time": 55.2,
      "duration": 0.285,
      "velocity": 1,
      "hand": "right"
    },
    {
      "midi": 70,
      "time": 55.2,
      "duration": 0.285,
      "velocity": 1,
      "hand": "right"
    },
    {
      "midi": 56,
      "time": 55.5,
      "duration": 0.3,
      "velocity": 1,
      "hand": "left"
    },
    {
      "midi": 65,
      "time": 55.5,
      "duration": 0.3,
      "velocity": 1,
      "hand": "right"
    },
    {
      "midi": 70,
      "time": 55.5,
      "duration": 0.6,
      "velocity": 1,
      "hand": "right"
    },
    {
      "midi": 55,
      "time": 55.8,
      "duration": 0.285,
      "velocity": 1,
      "hand": "left"
    },
    {
      "midi": 63,
      "time": 55.8,
      "duration": 0.6,
      "velocity": 1,
      "hand": "right"
    },
    {
      "midi": 55,
      "time": 56.1,
      "duration": 0.3,
      "velocity": 1,
      "hand": "left"
    },
    {
      "midi": 67,
      "time": 56.1,
      "duration": 0.3,
      "velocity": 1,
      "hand": "right"
    },
    {
      "midi": 44,
      "time": 56.4,
      "duration": 1.2,
      "velocity": 1,
      "hand": "left"
    },
    {
      "midi": 56,
      "time": 56.4,
      "duration": 0.285,
      "velocity": 1,
      "hand": "left"
    },
    {
      "midi": 60,
      "time": 56.4,
      "duration": 0.285,
      "velocity": 1,
      "hand": "right"
    },
    {
      "midi": 72,
      "time": 56.4,
      "duration": 0.285,
      "velocity": 1,
      "hand": "right"
    },
    {
      "midi": 56,
      "time": 56.7,
      "duration": 0.3,
      "velocity": 1,
      "hand": "left"
    },
    {
      "midi": 60,
      "time": 56.7,
      "duration": 0.285,
      "velocity": 1,
      "hand": "right"
    },
    {
      "midi": 72,
      "time": 56.7,
      "duration": 0.3,
      "velocity": 1,
      "hand": "right"
    },
    {
      "midi": 55,
      "time": 57,
      "duration": 0.3,
      "velocity": 1,
      "hand": "left"
    },
    {
      "midi": 60,
      "time": 57,
      "duration": 0.285,
      "velocity": 1,
      "hand": "right"
    },
    {
      "midi": 70,
      "time": 57,
      "duration": 0.3,
      "velocity": 1,
      "hand": "right"
    },
    {
      "midi": 53,
      "time": 57.3,
      "duration": 0.3,
      "velocity": 1,
      "hand": "left"
    },
    {
      "midi": 60,
      "time": 57.3,
      "duration": 0.3,
      "velocity": 1,
      "hand": "right"
    },
    {
      "midi": 68,
      "time": 57.3,
      "duration": 0.3,
      "velocity": 1,
      "hand": "right"
    },
    {
      "midi": 46,
      "time": 57.6,
      "duration": 0.885,
      "velocity": 1,
      "hand": "left"
    },
    {
      "midi": 51,
      "time": 57.6,
      "duration": 0.285,
      "velocity": 1,
      "hand": "left"
    },
    {
      "midi": 63,
      "time": 57.6,
      "duration": 0.285,
      "velocity": 1,
      "hand": "right"
    },
    {
      "midi": 67,
      "time": 57.6,
      "duration": 0.585,
      "velocity": 1,
      "hand": "right"
    },
    {
      "midi": 51,
      "time": 57.9,
      "duration": 0.6,
      "velocity": 1,
      "hand": "left"
    },
    {
      "midi": 58,
      "time": 57.9,
      "duration": 0.285,
      "velocity": 1,
      "hand": "left"
    },
    {
      "midi": 63,
      "time": 57.9,
      "duration": 0.6,
      "velocity": 1,
      "hand": "right"
    },
    {
      "midi": 58,
      "time": 58.2,
      "duration": 0.285,
      "velocity": 1,
      "hand": "left"
    },
    {
      "midi": 67,
      "time": 58.2,
      "duration": 0.3,
      "velocity": 1,
      "hand": "right"
    },
    {
      "midi": 46,
      "time": 58.5,
      "duration": 0.285,
      "velocity": 1,
      "hand": "left"
    },
    {
      "midi": 53,
      "time": 58.5,
      "duration": 0.3,
      "velocity": 1,
      "hand": "left"
    },
    {
      "midi": 68,
      "time": 58.5,
      "duration": 0.3,
      "velocity": 1,
      "hand": "right"
    },
    {
      "midi": 46,
      "time": 58.8,
      "duration": 1.185,
      "velocity": 1,
      "hand": "left"
    },
    {
      "midi": 50,
      "time": 58.8,
      "duration": 1.2,
      "velocity": 1,
      "hand": "left"
    },
    {
      "midi": 65,
      "time": 58.8,
      "duration": 0.585,
      "velocity": 1,
      "hand": "right"
    },
    {
      "midi": 53,
      "time": 59.1,
      "duration": 0.6,
      "velocity": 1,
      "hand": "left"
    },
    {
      "midi": 58,
      "time": 59.1,
      "duration": 0.3,
      "velocity": 1,
      "hand": "left"
    },
    {
      "midi": 62,
      "time": 59.1,
      "duration": 0.285,
      "velocity": 1,
      "hand": "right"
    },
    {
      "midi": 62,
      "time": 59.4,
      "duration": 0.3,
      "velocity": 1,
      "hand": "right"
    },
    {
      "midi": 65,
      "time": 59.4,
      "duration": 0.3,
      "velocity": 1,
      "hand": "right"
    },
    {
      "midi": 54,
      "time": 59.7,
      "duration": 0.3,
      "velocity": 1,
      "hand": "left"
    },
    {
      "midi": 63,
      "time": 59.7,
      "duration": 0.3,
      "velocity": 1,
      "hand": "right"
    },
    {
      "midi": 69,
      "time": 59.7,
      "duration": 0.3,
      "velocity": 1,
      "hand": "right"
    },
    {
      "midi": 46,
      "time": 60,
      "duration": 0.585,
      "velocity": 1,
      "hand": "left"
    },
    {
      "midi": 53,
      "time": 60,
      "duration": 0.6,
      "velocity": 1,
      "hand": "left"
    },
    {
      "midi": 62,
      "time": 60,
      "duration": 0.585,
      "velocity": 1,
      "hand": "right"
    },
    {
      "midi": 70,
      "time": 60,
      "duration": 0.585,
      "velocity": 1,
      "hand": "right"
    },
    {
      "midi": 46,
      "time": 60.6,
      "duration": 0.585,
      "velocity": 1,
      "hand": "left"
    },
    {
      "midi": 56,
      "time": 60.6,
      "duration": 0.6,
      "velocity": 1,
      "hand": "left"
    },
    {
      "midi": 62,
      "time": 60.6,
      "duration": 0.6,
      "velocity": 1,
      "hand": "right"
    },
    {
      "midi": 65,
      "time": 60.6,
      "duration": 0.6,
      "velocity": 1,
      "hand": "right"
    },
    {
      "midi": 70,
      "time": 60.6,
      "duration": 0.285,
      "velocity": 1,
      "hand": "right"
    },
    {
      "midi": 72,
      "time": 60.6,
      "duration": 0.3,
      "velocity": 1,
      "hand": "right"
    },
    {
      "midi": 70,
      "time": 60.9,
      "duration": 0.285,
      "velocity": 1,
      "hand": "right"
    },
    {
      "midi": 46,
      "time": 61.2,
      "duration": 0.585,
      "velocity": 1,
      "hand": "left"
    },
    {
      "midi": 55,
      "time": 61.2,
      "duration": 0.6,
      "velocity": 1,
      "hand": "left"
    },
    {
      "midi": 63,
      "time": 61.2,
      "duration": 0.6,
      "velocity": 1,
      "hand": "right"
    },
    {
      "midi": 67,
      "time": 61.2,
      "duration": 0.6,
      "velocity": 1,
      "hand": "right"
    },
    {
      "midi": 70,
      "time": 61.2,
      "duration": 0.285,
      "velocity": 1,
      "hand": "right"
    },
    {
      "midi": 72,
      "time": 61.2,
      "duration": 0.3,
      "velocity": 1,
      "hand": "right"
    },
    {
      "midi": 70,
      "time": 61.5,
      "duration": 0.285,
      "velocity": 1,
      "hand": "right"
    },
    {
      "midi": 46,
      "time": 61.8,
      "duration": 0.6,
      "velocity": 1,
      "hand": "left"
    },
    {
      "midi": 53,
      "time": 61.8,
      "duration": 0.6,
      "velocity": 1,
      "hand": "left"
    },
    {
      "midi": 62,
      "time": 61.8,
      "duration": 0.6,
      "velocity": 1,
      "hand": "right"
    },
    {
      "midi": 68,
      "time": 61.8,
      "duration": 0.6,
      "velocity": 1,
      "hand": "right"
    },
    {
      "midi": 70,
      "time": 61.8,
      "duration": 0.285,
      "velocity": 1,
      "hand": "right"
    },
    {
      "midi": 72,
      "time": 61.8,
      "duration": 0.3,
      "velocity": 1,
      "hand": "right"
    },
    {
      "midi": 70,
      "time": 62.1,
      "duration": 0.285,
      "velocity": 1,
      "hand": "right"
    },
    {
      "midi": 51,
      "time": 62.4,
      "duration": 1.185,
      "velocity": 1,
      "hand": "left"
    },
    {
      "midi": 55,
      "time": 62.4,
      "duration": 0.6,
      "velocity": 1,
      "hand": "left"
    },
    {
      "midi": 63,
      "time": 62.4,
      "duration": 0.585,
      "velocity": 1,
      "hand": "right"
    },
    {
      "midi": 67,
      "time": 62.4,
      "duration": 0.285,
      "velocity": 1,
      "hand": "right"
    },
    {
      "midi": 70,
      "time": 62.4,
      "duration": 0.285,
      "velocity": 1,
      "hand": "right"
    },
    {
      "midi": 58,
      "time": 62.7,
      "duration": 0.285,
      "velocity": 1,
      "hand": "left"
    },
    {
      "midi": 67,
      "time": 62.7,
      "duration": 0.285,
      "velocity": 1,
      "hand": "right"
    },
    {
      "midi": 70,
      "time": 62.7,
      "duration": 0.3,
      "velocity": 1,
      "hand": "right"
    },
    {
      "midi": 58,
      "time": 63,
      "duration": 0.285,
      "velocity": 1,
      "hand": "left"
    },
    {
      "midi": 63,
      "time": 63,
      "duration": 0.3,
      "velocity": 1,
      "hand": "right"
    },
    {
      "midi": 67,
      "time": 63,
      "duration": 0.285,
      "velocity": 1,
      "hand": "right"
    },
    {
      "midi": 58,
      "time": 63.3,
      "duration": 0.3,
      "velocity": 1,
      "hand": "left"
    },
    {
      "midi": 67,
      "time": 63.3,
      "duration": 0.3,
      "velocity": 1,
      "hand": "right"
    },
    {
      "midi": 70,
      "time": 63.3,
      "duration": 0.3,
      "velocity": 1,
      "hand": "right"
    },
    {
      "midi": 51,
      "time": 63.6,
      "duration": 0.585,
      "velocity": 1,
      "hand": "left"
    },
    {
      "midi": 58,
      "time": 63.9,
      "duration": 0.285,
      "velocity": 1,
      "hand": "left"
    },
    {
      "midi": 67,
      "time": 63.9,
      "duration": 0.285,
      "velocity": 1,
      "hand": "right"
    },
    {
      "midi": 70,
      "time": 63.9,
      "duration": 0.285,
      "velocity": 1,
      "hand": "right"
    },
    {
      "midi": 51,
      "time": 64.2,
      "duration": 0.585,
      "velocity": 1,
      "hand": "left"
    },
    {
      "midi": 58,
      "time": 64.2,
      "duration": 0.285,
      "velocity": 1,
      "hand": "left"
    },
    {
      "midi": 63,
      "time": 64.2,
      "duration": 0.3,
      "velocity": 1,
      "hand": "right"
    },
    {
      "midi": 67,
      "time": 64.2,
      "duration": 0.285,
      "velocity": 1,
      "hand": "right"
    },
    {
      "midi": 70,
      "time": 64.2,
      "duration": 0.285,
      "velocity": 1,
      "hand": "right"
    },
    {
      "midi": 58,
      "time": 64.5,
      "duration": 0.285,
      "velocity": 1,
      "hand": "left"
    },
    {
      "midi": 67,
      "time": 64.5,
      "duration": 0.285,
      "velocity": 1,
      "hand": "right"
    },
    {
      "midi": 70,
      "time": 64.5,
      "duration": 0.285,
      "velocity": 1,
      "hand": "right"
    },
    {
      "midi": 51,
      "time": 64.8,
      "duration": 0.585,
      "velocity": 1,
      "hand": "left"
    },
    {
      "midi": 58,
      "time": 64.8,
      "duration": 0.285,
      "velocity": 1,
      "hand": "left"
    },
    {
      "midi": 67,
      "time": 64.8,
      "duration": 0.285,
      "velocity": 1,
      "hand": "right"
    },
    {
      "midi": 70,
      "time": 64.8,
      "duration": 0.285,
      "velocity": 1,
      "hand": "right"
    },
    {
      "midi": 58,
      "time": 65.1,
      "duration": 0.285,
      "velocity": 1,
      "hand": "left"
    },
    {
      "midi": 67,
      "time": 65.1,
      "duration": 0.285,
      "velocity": 1,
      "hand": "right"
    },
    {
      "midi": 70,
      "time": 65.1,
      "duration": 0.285,
      "velocity": 1,
      "hand": "right"
    },
    {
      "midi": 51,
      "time": 65.4,
      "duration": 0.585,
      "velocity": 1,
      "hand": "left"
    },
    {
      "midi": 58,
      "time": 65.4,
      "duration": 0.285,
      "velocity": 1,
      "hand": "left"
    },
    {
      "midi": 63,
      "time": 65.4,
      "duration": 0.3,
      "velocity": 1,
      "hand": "right"
    },
    {
      "midi": 67,
      "time": 65.4,
      "duration": 0.285,
      "velocity": 1,
      "hand": "right"
    },
    {
      "midi": 70,
      "time": 65.4,
      "duration": 0.285,
      "velocity": 1,
      "hand": "right"
    },
    {
      "midi": 58,
      "time": 65.7,
      "duration": 0.3,
      "velocity": 1,
      "hand": "left"
    },
    {
      "midi": 67,
      "time": 65.7,
      "duration": 0.285,
      "velocity": 1,
      "hand": "right"
    },
    {
      "midi": 70,
      "time": 65.7,
      "duration": 0.285,
      "velocity": 1,
      "hand": "right"
    },
    {
      "midi": 51,
      "time": 66,
      "duration": 0.585,
      "velocity": 1,
      "hand": "left"
    },
    {
      "midi": 63,
      "time": 66,
      "duration": 0.585,
      "velocity": 1,
      "hand": "right"
    },
    {
      "midi": 67,
      "time": 66,
      "duration": 0.285,
      "velocity": 1,
      "hand": "right"
    },
    {
      "midi": 70,
      "time": 66,
      "duration": 0.285,
      "velocity": 1,
      "hand": "right"
    },
    {
      "midi": 67,
      "time": 66.3,
      "duration": 0.285,
      "velocity": 1,
      "hand": "right"
    },
    {
      "midi": 70,
      "time": 66.3,
      "duration": 0.3,
      "velocity": 1,
      "hand": "right"
    },
    {
      "midi": 51,
      "time": 66.6,
      "duration": 0.585,
      "velocity": 1,
      "hand": "left"
    },
    {
      "midi": 60,
      "time": 66.6,
      "duration": 0.6,
      "velocity": 1,
      "hand": "right"
    },
    {
      "midi": 63,
      "time": 66.6,
      "duration": 0.3,
      "velocity": 1,
      "hand": "right"
    },
    {
      "midi": 67,
      "time": 66.6,
      "duration": 0.285,
      "velocity": 1,
      "hand": "right"
    },
    {
      "midi": 72,
      "time": 66.6,
      "duration": 0.585,
      "velocity": 1,
      "hand": "right"
    },
    {
      "midi": 67,
      "time": 66.9,
      "duration": 0.3,
      "velocity": 1,
      "hand": "right"
    },
    {
      "midi": 51,
      "time": 67.2,
      "duration": 1.185,
      "velocity": 1,
      "hand": "left"
    },
    {
      "midi": 58,
      "time": 67.2,
      "duration": 0.285,
      "velocity": 1,
      "hand": "left"
    },
    {
      "midi": 66,
      "time": 67.2,
      "duration": 0.285,
      "velocity": 1,
      "hand": "right"
    },
    {
      "midi": 72,
      "time": 67.2,
      "duration": 0.285,
      "velocity": 1,
      "hand": "right"
    },
    {
      "midi": 58,
      "time": 67.5,
      "duration": 0.585,
      "velocity": 1,
      "hand": "left"
    },
    {
      "midi": 66,
      "time": 67.5,
      "duration": 0.285,
      "velocity": 1,
      "hand": "right"
    },
    {
      "midi": 72,
      "time": 67.5,
      "duration": 0.3,
      "velocity": 1,
      "hand": "right"
    },
    {
      "midi": 60,
      "time": 67.8,
      "duration": 0.3,
      "velocity": 1,
      "hand": "right"
    },
    {
      "midi": 66,
      "time": 67.8,
      "duration": 0.285,
      "velocity": 1,
      "hand": "right"
    },
    {
      "midi": 58,
      "time": 68.1,
      "duration": 0.3,
      "velocity": 1,
      "hand": "left"
    },
    {
      "midi": 66,
      "time": 68.1,
      "duration": 0.285,
      "velocity": 1,
      "hand": "right"
    },
    {
      "midi": 72,
      "time": 68.1,
      "duration": 0.285,
      "velocity": 1,
      "hand": "right"
    },
    {
      "midi": 51,
      "time": 68.4,
      "duration": 1.185,
      "velocity": 1,
      "hand": "left"
    },
    {
      "midi": 57,
      "time": 68.4,
      "duration": 0.285,
      "velocity": 1,
      "hand": "left"
    },
    {
      "midi": 66,
      "time": 68.4,
      "duration": 0.285,
      "velocity": 1,
      "hand": "right"
    },
    {
      "midi": 72,
      "time": 68.4,
      "duration": 0.285,
      "velocity": 1,
      "hand": "right"
    },
    {
      "midi": 57,
      "time": 68.7,
      "duration": 0.585,
      "velocity": 1,
      "hand": "left"
    },
    {
      "midi": 66,
      "time": 68.7,
      "duration": 0.285,
      "velocity": 1,
      "hand": "right"
    },
    {
      "midi": 72,
      "time": 68.7,
      "duration": 0.3,
      "velocity": 1,
      "hand": "right"
    },
    {
      "midi": 60,
      "time": 69,
      "duration": 0.3,
      "velocity": 1,
      "hand": "right"
    },
    {
      "midi": 66,
      "time": 69,
      "duration": 0.285,
      "velocity": 1,
      "hand": "right"
    },
    {
      "midi": 57,
      "time": 69.3,
      "duration": 0.3,
      "velocity": 1,
      "hand": "left"
    },
    {
      "midi": 66,
      "time": 69.3,
      "duration": 0.285,
      "velocity": 1,
      "hand": "right"
    },
    {
      "midi": 72,
      "time": 69.3,
      "duration": 0.285,
      "velocity": 1,
      "hand": "right"
    },
    {
      "midi": 51,
      "time": 69.6,
      "duration": 1.185,
      "velocity": 1,
      "hand": "left"
    },
    {
      "midi": 54,
      "time": 69.6,
      "duration": 1.2,
      "velocity": 1,
      "hand": "left"
    },
    {
      "midi": 60,
      "time": 69.6,
      "duration": 0.585,
      "velocity": 1,
      "hand": "right"
    },
    {
      "midi": 66,
      "time": 69.6,
      "duration": 0.285,
      "velocity": 1,
      "hand": "right"
    },
    {
      "midi": 72,
      "time": 69.6,
      "duration": 0.285,
      "velocity": 1,
      "hand": "right"
    },
    {
      "midi": 78,
      "time": 69.6,
      "duration": 1.2,
      "velocity": 1,
      "hand": "right"
    },
    {
      "midi": 58,
      "time": 69.9,
      "duration": 0.585,
      "velocity": 1,
      "hand": "left"
    },
    {
      "midi": 66,
      "time": 69.9,
      "duration": 0.285,
      "velocity": 1,
      "hand": "right"
    },
    {
      "midi": 72,
      "time": 69.9,
      "duration": 0.3,
      "velocity": 1,
      "hand": "right"
    },
    {
      "midi": 60,
      "time": 70.2,
      "duration": 0.3,
      "velocity": 1,
      "hand": "right"
    },
    {
      "midi": 66,
      "time": 70.2,
      "duration": 0.285,
      "velocity": 1,
      "hand": "right"
    },
    {
      "midi": 58,
      "time": 70.5,
      "duration": 0.3,
      "velocity": 1,
      "hand": "left"
    },
    {
      "midi": 66,
      "time": 70.5,
      "duration": 0.3,
      "velocity": 1,
      "hand": "right"
    },
    {
      "midi": 72,
      "time": 70.5,
      "duration": 0.3,
      "velocity": 1,
      "hand": "right"
    },
    {
      "midi": 51,
      "time": 70.8,
      "duration": 0.6,
      "velocity": 1,
      "hand": "left"
    },
    {
      "midi": 53,
      "time": 70.8,
      "duration": 0.6,
      "velocity": 1,
      "hand": "left"
    },
    {
      "midi": 65,
      "time": 70.8,
      "duration": 0.285,
      "velocity": 1,
      "hand": "right"
    },
    {
      "midi": 77,
      "time": 70.8,
      "duration": 0.6,
      "velocity": 1,
      "hand": "right"
    },
    {
      "midi": 57,
      "time": 71.1,
      "duration": 0.585,
      "velocity": 1,
      "hand": "left"
    },
    {
      "midi": 65,
      "time": 71.1,
      "duration": 0.285,
      "velocity": 1,
      "hand": "right"
    },
    {
      "midi": 72,
      "time": 71.1,
      "duration": 0.3,
      "velocity": 1,
      "hand": "right"
    },
    {
      "midi": 60,
      "time": 71.4,
      "duration": 0.3,
      "velocity": 1,
      "hand": "right"
    },
    {
      "midi": 65,
      "time": 71.4,
      "duration": 0.285,
      "velocity": 1,
      "hand": "right"
    },
    {
      "midi": 57,
      "time": 71.7,
      "duration": 0.3,
      "velocity": 1,
      "hand": "left"
    },
    {
      "midi": 65,
      "time": 71.7,
      "duration": 0.285,
      "velocity": 1,
      "hand": "right"
    },
    {
      "midi": 72,
      "time": 71.7,
      "duration": 0.3,
      "velocity": 1,
      "hand": "right"
    },
    {
      "midi": 39,
      "time": 72,
      "duration": 0.285,
      "velocity": 1,
      "hand": "left"
    },
    {
      "midi": 50,
      "time": 72,
      "duration": 1.185,
      "velocity": 1,
      "hand": "left"
    },
    {
      "midi": 65,
      "time": 72,
      "duration": 0.585,
      "velocity": 1,
      "hand": "right"
    },
    {
      "midi": 70,
      "time": 72,
      "duration": 0.285,
      "velocity": 1,
      "hand": "right"
    },
    {
      "midi": 77,
      "time": 72,
      "duration": 0.885,
      "velocity": 1,
      "hand": "right"
    },
    {
      "midi": 39,
      "time": 72.3,
      "duration": 0.285,
      "velocity": 1,
      "hand": "left"
    },
    {
      "midi": 58,
      "time": 72.3,
      "duration": 0.585,
      "velocity": 1,
      "hand": "left"
    },
    {
      "midi": 70,
      "time": 72.3,
      "duration": 0.285,
      "velocity": 1,
      "hand": "right"
    },
    {
      "midi": 74,
      "time": 72.3,
      "duration": 0.3,
      "velocity": 1,
      "hand": "right"
    },
    {
      "midi": 39,
      "time": 72.6,
      "duration": 0.285,
      "velocity": 1,
      "hand": "left"
    },
    {
      "midi": 65,
      "time": 72.6,
      "duration": 0.3,
      "velocity": 1,
      "hand": "right"
    },
    {
      "midi": 70,
      "time": 72.6,
      "duration": 0.285,
      "velocity": 1,
      "hand": "right"
    },
    {
      "midi": 39,
      "time": 72.9,
      "duration": 0.285,
      "velocity": 1,
      "hand": "left"
    },
    {
      "midi": 58,
      "time": 72.9,
      "duration": 0.3,
      "velocity": 1,
      "hand": "left"
    },
    {
      "midi": 70,
      "time": 72.9,
      "duration": 0.3,
      "velocity": 1,
      "hand": "right"
    },
    {
      "midi": 77,
      "time": 72.9,
      "duration": 0.3,
      "velocity": 1,
      "hand": "right"
    },
    {
      "midi": 39,
      "time": 73.2,
      "duration": 0.6,
      "velocity": 1,
      "hand": "left"
    },
    {
      "midi": 50,
      "time": 73.2,
      "duration": 0.585,
      "velocity": 1,
      "hand": "left"
    },
    {
      "midi": 62,
      "time": 73.5,
      "duration": 0.285,
      "velocity": 1,
      "hand": "right"
    },
    {
      "midi": 70,
      "time": 73.5,
      "duration": 0.285,
      "velocity": 1,
      "hand": "right"
    },
    {
      "midi": 77,
      "time": 73.5,
      "duration": 0.285,
      "velocity": 1,
      "hand": "right"
    },
    {
      "midi": 50,
      "time": 73.8,
      "duration": 0.6,
      "velocity": 1,
      "hand": "left"
    },
    {
      "midi": 62,
      "time": 73.8,
      "duration": 0.285,
      "velocity": 1,
      "hand": "right"
    },
    {
      "midi": 65,
      "time": 73.8,
      "duration": 0.3,
      "velocity": 1,
      "hand": "right"
    },
    {
      "midi": 70,
      "time": 73.8,
      "duration": 0.285,
      "velocity": 1,
      "hand": "right"
    },
    {
      "midi": 77,
      "time": 73.8,
      "duration": 0.285,
      "velocity": 1,
      "hand": "right"
    },
    {
      "midi": 62,
      "time": 74.1,
      "duration": 0.285,
      "velocity": 1,
      "hand": "right"
    },
    {
      "midi": 70,
      "time": 74.1,
      "duration": 0.285,
      "velocity": 1,
      "hand": "right"
    },
    {
      "midi": 77,
      "time": 74.1,
      "duration": 0.3,
      "velocity": 1,
      "hand": "right"
    },
    {
      "midi": 51,
      "time": 74.4,
      "duration": 0.585,
      "velocity": 1,
      "hand": "left"
    },
    {
      "midi": 62,
      "time": 74.4,
      "duration": 0.6,
      "velocity": 1,
      "hand": "right"
    },
    {
      "midi": 70,
      "time": 74.4,
      "duration": 0.285,
      "velocity": 1,
      "hand": "right"
    },
    {
      "midi": 79,
      "time": 74.4,
      "duration": 0.285,
      "velocity": 1,
      "hand": "right"
    },
    {
      "midi": 70,
      "time": 74.7,
      "duration": 0.285,
      "velocity": 1,
      "hand": "right"
    },
    {
      "midi": 79,
      "time": 74.7,
      "duration": 0.285,
      "velocity": 1,
      "hand": "right"
    },
    {
      "midi": 39,
      "time": 75,
      "duration": 0.585,
      "velocity": 1,
      "hand": "left"
    },
    {
      "midi": 51,
      "time": 75,
      "duration": 0.6,
      "velocity": 1,
      "hand": "left"
    },
    {
      "midi": 60,
      "time": 75,
      "duration": 0.6,
      "velocity": 1,
      "hand": "right"
    },
    {
      "midi": 67,
      "time": 75,
      "duration": 0.3,
      "velocity": 1,
      "hand": "right"
    },
    {
      "midi": 70,
      "time": 75,
      "duration": 0.285,
      "velocity": 1,
      "hand": "right"
    },
    {
      "midi": 79,
      "time": 75,
      "duration": 0.285,
      "velocity": 1,
      "hand": "right"
    },
    {
      "midi": 70,
      "time": 75.3,
      "duration": 0.285,
      "velocity": 1,
      "hand": "right"
    },
    {
      "midi": 79,
      "time": 75.3,
      "duration": 0.3,
      "velocity": 1,
      "hand": "right"
    },
    {
      "midi": 39,
      "time": 75.6,
      "duration": 0.585,
      "velocity": 1,
      "hand": "left"
    },
    {
      "midi": 50,
      "time": 75.6,
      "duration": 0.6,
      "velocity": 1,
      "hand": "left"
    },
    {
      "midi": 62,
      "time": 75.6,
      "duration": 0.6,
      "velocity": 1,
      "hand": "right"
    },
    {
      "midi": 65,
      "time": 75.6,
      "duration": 0.3,
      "velocity": 1,
      "hand": "right"
    },
    {
      "midi": 70,
      "time": 75.6,
      "duration": 0.285,
      "velocity": 1,
      "hand": "right"
    },
    {
      "midi": 77,
      "time": 75.6,
      "duration": 0.285,
      "velocity": 1,
      "hand": "right"
    },
    {
      "midi": 70,
      "time": 75.9,
      "duration": 0.285,
      "velocity": 1,
      "hand": "right"
    },
    {
      "midi": 77,
      "time": 75.9,
      "duration": 0.3,
      "velocity": 1,
      "hand": "right"
    },
    {
      "midi": 39,
      "time": 76.2,
      "duration": 0.585,
      "velocity": 1,
      "hand": "left"
    },
    {
      "midi": 48,
      "time": 76.2,
      "duration": 0.6,
      "velocity": 1,
      "hand": "left"
    },
    {
      "midi": 70,
      "time": 76.2,
      "duration": 0.285,
      "velocity": 1,
      "hand": "right"
    },
    {
      "midi": 72,
      "time": 76.2,
      "duration": 0.6,
      "velocity": 1,
      "hand": "right"
    },
    {
      "midi": 75,
      "time": 76.2,
      "duration": 0.285,
      "velocity": 1,
      "hand": "right"
    },
    {
      "midi": 79,
      "time": 76.2,
      "duration": 0.6,
      "velocity": 1,
      "hand": "right"
    },
    {
      "midi": 70,
      "time": 76.5,
      "duration": 0.285,
      "velocity": 1,
      "hand": "right"
    },
    {
      "midi": 75,
      "time": 76.5,
      "duration": 0.3,
      "velocity": 1,
      "hand": "right"
    },
    {
      "midi": 39,
      "time": 76.8,
      "duration": 0.6,
      "velocity": 1,
      "hand": "left"
    },
    {
      "midi": 53,
      "time": 76.8,
      "duration": 1.185,
      "velocity": 1,
      "hand": "left"
    },
    {
      "midi": 65,
      "time": 76.8,
      "duration": 0.285,
      "velocity": 1,
      "hand": "right"
    },
    {
      "midi": 70,
      "time": 76.8,
      "duration": 0.285,
      "velocity": 1,
      "hand": "right"
    },
    {
      "midi": 74,
      "time": 76.8,
      "duration": 0.285,
      "velocity": 1,
      "hand": "right"
    },
    {
      "midi": 77,
      "time": 76.8,
      "duration": 1.185,
      "velocity": 1,
      "hand": "right"
    },
    {
      "midi": 65,
      "time": 77.1,
      "duration": 0.585,
      "velocity": 1,
      "hand": "right"
    },
    {
      "midi": 70,
      "time": 77.1,
      "duration": 0.3,
      "velocity": 1,
      "hand": "right"
    },
    {
      "midi": 74,
      "time": 77.1,
      "duration": 0.3,
      "velocity": 1,
      "hand": "right"
    },
    {
      "midi": 65,
      "time": 77.7,
      "duration": 0.3,
      "velocity": 1,
      "hand": "right"
    },
    {
      "midi": 70,
      "time": 77.7,
      "duration": 0.3,
      "velocity": 1,
      "hand": "right"
    },
    {
      "midi": 74,
      "time": 77.7,
      "duration": 0.3,
      "velocity": 1,
      "hand": "right"
    },
    {
      "midi": 41,
      "time": 78,
      "duration": 1.2,
      "velocity": 1,
      "hand": "left"
    },
    {
      "midi": 53,
      "time": 78,
      "duration": 1.2,
      "velocity": 1,
      "hand": "left"
    },
    {
      "midi": 63,
      "time": 78,
      "duration": 0.585,
      "velocity": 1,
      "hand": "right"
    },
    {
      "midi": 69,
      "time": 78,
      "duration": 0.285,
      "velocity": 1,
      "hand": "right"
    },
    {
      "midi": 77,
      "time": 78,
      "duration": 1.185,
      "velocity": 1,
      "hand": "right"
    },
    {
      "midi": 65,
      "time": 78.3,
      "duration": 0.585,
      "velocity": 1,
      "hand": "right"
    },
    {
      "midi": 69,
      "time": 78.3,
      "duration": 0.3,
      "velocity": 1,
      "hand": "right"
    },
    {
      "midi": 74,
      "time": 78.3,
      "duration": 0.3,
      "velocity": 1,
      "hand": "right"
    },
    {
      "midi": 63,
      "time": 78.6,
      "duration": 0.6,
      "velocity": 1,
      "hand": "right"
    },
    {
      "midi": 72,
      "time": 78.6,
      "duration": 0.285,
      "velocity": 1,
      "hand": "right"
    },
    {
      "midi": 65,
      "time": 78.9,
      "duration": 0.285,
      "velocity": 1,
      "hand": "right"
    },
    {
      "midi": 69,
      "time": 78.9,
      "duration": 0.3,
      "velocity": 1,
      "hand": "right"
    },
    {
      "midi": 72,
      "time": 78.9,
      "duration": 0.3,
      "velocity": 1,
      "hand": "right"
    },
    {
      "midi": 39,
      "time": 79.2,
      "duration": 0.585,
      "velocity": 1,
      "hand": "left"
    },
    {
      "midi": 46,
      "time": 79.2,
      "duration": 1.2,
      "velocity": 1,
      "hand": "left"
    },
    {
      "midi": 62,
      "time": 79.2,
      "duration": 0.585,
      "velocity": 1,
      "hand": "right"
    },
    {
      "midi": 65,
      "time": 79.2,
      "duration": 0.6,
      "velocity": 1,
      "hand": "right"
    },
    {
      "midi": 70,
      "time": 79.2,
      "duration": 0.285,
      "velocity": 1,
      "hand": "right"
    },
    {
      "midi": 77,
      "time": 79.2,
      "duration": 0.6,
      "velocity": 1,
      "hand": "right"
    },
    {
      "midi": 70,
      "time": 79.5,
      "duration": 0.285,
      "velocity": 1,
      "hand": "right"
    },
    {
      "midi": 39,
      "time": 79.8,
      "duration": 0.3,
      "velocity": 1,
      "hand": "left"
    },
    {
      "midi": 58,
      "time": 79.8,
      "duration": 0.585,
      "velocity": 1,
      "hand": "left"
    },
    {
      "midi": 62,
      "time": 79.8,
      "duration": 0.3,
      "velocity": 1,
      "hand": "right"
    },
    {
      "midi": 70,
      "time": 79.8,
      "duration": 0.585,
      "velocity": 1,
      "hand": "right"
    },
    {
      "midi": 74,
      "time": 79.8,
      "duration": 0.3,
      "velocity": 1,
      "hand": "right"
    },
    {
      "midi": 82,
      "time": 79.8,
      "duration": 0.585,
      "velocity": 1,
      "hand": "right"
    },
    {
      "midi": 65,
      "time": 80.1,
      "duration": 0.3,
      "velocity": 1,
      "hand": "right"
    },
    {
      "midi": 77,
      "time": 80.1,
      "duration": 0.3,
      "velocity": 1,
      "hand": "right"
    },
    {
      "midi": 39,
      "time": 80.4,
      "duration": 0.585,
      "velocity": 1,
      "hand": "left"
    },
    {
      "midi": 54,
      "time": 80.4,
      "duration": 0.6,
      "velocity": 1,
      "hand": "left"
    },
    {
      "midi": 63,
      "time": 80.4,
      "duration": 0.585,
      "velocity": 1,
      "hand": "right"
    },
    {
      "midi": 70,
      "time": 80.4,
      "duration": 0.585,
      "velocity": 1,
      "hand": "right"
    },
    {
      "midi": 75,
      "time": 80.4,
      "duration": 0.585,
      "velocity": 1,
      "hand": "right"
    },
    {
      "midi": 82,
      "time": 80.4,
      "duration": 0.585,
      "velocity": 1,
      "hand": "right"
    },
    {
      "midi": 65,
      "time": 80.7,
      "duration": 0.3,
      "velocity": 1,
      "hand": "right"
    },
    {
      "midi": 77,
      "time": 80.7,
      "duration": 0.3,
      "velocity": 1,
      "hand": "right"
    },
    {
      "midi": 39,
      "time": 81,
      "duration": 0.585,
      "velocity": 1,
      "hand": "left"
    },
    {
      "midi": 51,
      "time": 81,
      "duration": 0.6,
      "velocity": 1,
      "hand": "left"
    },
    {
      "midi": 70,
      "time": 81,
      "duration": 0.285,
      "velocity": 1,
      "hand": "right"
    },
    {
      "midi": 75,
      "time": 81,
      "duration": 0.6,
      "velocity": 1,
      "hand": "right"
    },
    {
      "midi": 78,
      "time": 81,
      "duration": 0.6,
      "velocity": 1,
      "hand": "right"
    },
    {
      "midi": 82,
      "time": 81,
      "duration": 0.285,
      "velocity": 1,
      "hand": "right"
    },
    {
      "midi": 70,
      "time": 81.3,
      "duration": 0.285,
      "velocity": 1,
      "hand": "right"
    },
    {
      "midi": 82,
      "time": 81.3,
      "duration": 0.285,
      "velocity": 1,
      "hand": "right"
    },
    {
      "midi": 39,
      "time": 81.6,
      "duration": 0.6,
      "velocity": 1,
      "hand": "left"
    },
    {
      "midi": 53,
      "time": 81.6,
      "duration": 1.2,
      "velocity": 1,
      "hand": "left"
    },
    {
      "midi": 70,
      "time": 81.6,
      "duration": 0.885,
      "velocity": 1,
      "hand": "right"
    },
    {
      "midi": 74,
      "time": 81.6,
      "duration": 0.885,
      "velocity": 1,
      "hand": "right"
    },
    {
      "midi": 77,
      "time": 81.6,
      "duration": 0.585,
      "velocity": 1,
      "hand": "right"
    },
    {
      "midi": 82,
      "time": 81.6,
      "duration": 0.285,
      "velocity": 1,
      "hand": "right"
    },
    {
      "midi": 58,
      "time": 81.9,
      "duration": 0.585,
      "velocity": 1,
      "hand": "left"
    },
    {
      "midi": 62,
      "time": 81.9,
      "duration": 0.585,
      "velocity": 1,
      "hand": "right"
    },
    {
      "midi": 82,
      "time": 81.9,
      "duration": 0.3,
      "velocity": 1,
      "hand": "right"
    },
    {
      "midi": 65,
      "time": 82.2,
      "duration": 0.3,
      "velocity": 1,
      "hand": "right"
    },
    {
      "midi": 77,
      "time": 82.2,
      "duration": 0.3,
      "velocity": 1,
      "hand": "right"
    },
    {
      "midi": 58,
      "time": 82.5,
      "duration": 0.3,
      "velocity": 1,
      "hand": "left"
    },
    {
      "midi": 62,
      "time": 82.5,
      "duration": 0.3,
      "velocity": 1,
      "hand": "right"
    },
    {
      "midi": 70,
      "time": 82.5,
      "duration": 0.3,
      "velocity": 1,
      "hand": "right"
    },
    {
      "midi": 74,
      "time": 82.5,
      "duration": 0.3,
      "velocity": 1,
      "hand": "right"
    },
    {
      "midi": 41,
      "time": 82.8,
      "duration": 1.2,
      "velocity": 1,
      "hand": "left"
    },
    {
      "midi": 60,
      "time": 82.8,
      "duration": 0.285,
      "velocity": 1,
      "hand": "right"
    },
    {
      "midi": 65,
      "time": 82.8,
      "duration": 1.185,
      "velocity": 1,
      "hand": "right"
    },
    {
      "midi": 69,
      "time": 82.8,
      "duration": 0.285,
      "velocity": 1,
      "hand": "right"
    },
    {
      "midi": 77,
      "time": 82.8,
      "duration": 0.885,
      "velocity": 1,
      "hand": "right"
    },
    {
      "midi": 60,
      "time": 83.1,
      "duration": 0.585,
      "velocity": 1,
      "hand": "right"
    },
    {
      "midi": 69,
      "time": 83.1,
      "duration": 0.585,
      "velocity": 1,
      "hand": "right"
    },
    {
      "midi": 75,
      "time": 83.1,
      "duration": 0.3,
      "velocity": 1,
      "hand": "right"
    },
    {
      "midi": 74,
      "time": 83.4,
      "duration": 0.3,
      "velocity": 1,
      "hand": "right"
    },
    {
      "midi": 60,
      "time": 83.7,
      "duration": 0.3,
      "velocity": 1,
      "hand": "right"
    },
    {
      "midi": 69,
      "time": 83.7,
      "duration": 0.3,
      "velocity": 1,
      "hand": "right"
    },
    {
      "midi": 75,
      "time": 83.7,
      "duration": 0.3,
      "velocity": 1,
      "hand": "right"
    },
    {
      "midi": 77,
      "time": 83.7,
      "duration": 0.15,
      "velocity": 1,
      "hand": "right"
    },
    {
      "midi": 46,
      "time": 84,
      "duration": 0.6,
      "velocity": 1,
      "hand": "left"
    },
    {
      "midi": 58,
      "time": 84,
      "duration": 0.585,
      "velocity": 1,
      "hand": "left"
    },
    {
      "midi": 65,
      "time": 84,
      "duration": 0.285,
      "velocity": 1,
      "hand": "right"
    },
    {
      "midi": 70,
      "time": 84,
      "duration": 0.285,
      "velocity": 1,
      "hand": "right"
    },
    {
      "midi": 74,
      "time": 84,
      "duration": 0.6,
      "velocity": 1,
      "hand": "right"
    },
    {
      "midi": 77,
      "time": 84,
      "duration": 0.6,
      "velocity": 1,
      "hand": "right"
    },
    {
      "midi": 62,
      "time": 84.3,
      "duration": 0.285,
      "velocity": 1,
      "hand": "right"
    },
    {
      "midi": 65,
      "time": 84.3,
      "duration": 0.285,
      "velocity": 1,
      "hand": "right"
    },
    {
      "midi": 70,
      "time": 84.3,
      "duration": 0.285,
      "velocity": 1,
      "hand": "right"
    },
    {
      "midi": 58,
      "time": 84.6,
      "duration": 0.285,
      "velocity": 1,
      "hand": "left"
    },
    {
      "midi": 62,
      "time": 84.6,
      "duration": 0.285,
      "velocity": 1,
      "hand": "right"
    },
    {
      "midi": 65,
      "time": 84.6,
      "duration": 0.585,
      "velocity": 1,
      "hand": "right"
    },
    {
      "midi": 70,
      "time": 84.6,
      "duration": 1.185,
      "velocity": 1,
      "hand": "right"
    },
    {
      "midi": 53,
      "time": 84.9,
      "duration": 0.3,
      "velocity": 1,
      "hand": "left"
    },
    {
      "midi": 58,
      "time": 84.9,
      "duration": 0.285,
      "velocity": 1,
      "hand": "left"
    },
    {
      "midi": 62,
      "time": 84.9,
      "duration": 0.285,
      "velocity": 1,
      "hand": "right"
    },
    {
      "midi": 46,
      "time": 85.2,
      "duration": 0.6,
      "velocity": 1,
      "hand": "left"
    },
    {
      "midi": 58,
      "time": 85.2,
      "duration": 0.285,
      "velocity": 1,
      "hand": "left"
    },
    {
      "midi": 62,
      "time": 85.2,
      "duration": 0.285,
      "velocity": 1,
      "hand": "right"
    },
    {
      "midi": 65,
      "time": 85.2,
      "duration": 0.3,
      "velocity": 1,
      "hand": "right"
    },
    {
      "midi": 53,
      "time": 85.5,
      "duration": 0.3,
      "velocity": 1,
      "hand": "left"
    },
    {
      "midi": 58,
      "time": 85.5,
      "duration": 0.285,
      "velocity": 1,
      "hand": "left"
    },
    {
      "midi": 62,
      "time": 85.5,
      "duration": 0.285,
      "velocity": 1,
      "hand": "right"
    },
    {
      "midi": 44,
      "time": 85.8,
      "duration": 0.6,
      "velocity": 1,
      "hand": "left"
    },
    {
      "midi": 58,
      "time": 85.8,
      "duration": 0.3,
      "velocity": 1,
      "hand": "left"
    },
    {
      "midi": 62,
      "time": 85.8,
      "duration": 0.285,
      "velocity": 1,
      "hand": "right"
    },
    {
      "midi": 65,
      "time": 85.8,
      "duration": 0.285,
      "velocity": 1,
      "hand": "right"
    },
    {
      "midi": 70,
      "time": 85.8,
      "duration": 0.285,
      "velocity": 1,
      "hand": "right"
    },
    {
      "midi": 62,
      "time": 86.1,
      "duration": 0.3,
      "velocity": 1,
      "hand": "right"
    },
    {
      "midi": 65,
      "time": 86.1,
      "duration": 0.3,
      "velocity": 1,
      "hand": "right"
    },
    {
      "midi": 70,
      "time": 86.1,
      "duration": 0.285,
      "velocity": 1,
      "hand": "right"
    },
    {
      "midi": 42,
      "time": 86.4,
      "duration": 0.6,
      "velocity": 1,
      "hand": "left"
    },
    {
      "midi": 54,
      "time": 86.4,
      "duration": 1.785,
      "velocity": 1,
      "hand": "left"
    },
    {
      "midi": 61,
      "time": 86.4,
      "duration": 0.285,
      "velocity": 1,
      "hand": "right"
    },
    {
      "midi": 66,
      "time": 86.4,
      "duration": 0.285,
      "velocity": 1,
      "hand": "right"
    },
    {
      "midi": 70,
      "time": 86.4,
      "duration": 0.285,
      "velocity": 1,
      "hand": "right"
    },
    {
      "midi": 61,
      "time": 86.7,
      "duration": 0.585,
      "velocity": 1,
      "hand": "right"
    },
    {
      "midi": 66,
      "time": 86.7,
      "duration": 0.285,
      "velocity": 1,
      "hand": "right"
    },
    {
      "midi": 70,
      "time": 86.7,
      "duration": 0.3,
      "velocity": 1,
      "hand": "right"
    },
    {
      "midi": 66,
      "time": 87,
      "duration": 0.285,
      "velocity": 1,
      "hand": "right"
    },
    {
      "midi": 61,
      "time": 87.3,
      "duration": 0.3,
      "velocity": 1,
      "hand": "right"
    },
    {
      "midi": 66,
      "time": 87.3,
      "duration": 0.3,
      "velocity": 1,
      "hand": "right"
    },
    {
      "midi": 70,
      "time": 87.3,
      "duration": 0.3,
      "velocity": 1,
      "hand": "right"
    },
    {
      "midi": 42,
      "time": 87.6,
      "duration": 0.6,
      "velocity": 1,
      "hand": "left"
    },
    {
      "midi": 61,
      "time": 87.9,
      "duration": 0.285,
      "velocity": 1,
      "hand": "right"
    },
    {
      "midi": 66,
      "time": 87.9,
      "duration": 0.285,
      "velocity": 1,
      "hand": "right"
    },
    {
      "midi": 70,
      "time": 87.9,
      "duration": 0.285,
      "velocity": 1,
      "hand": "right"
    },
    {
      "midi": 54,
      "time": 88.2,
      "duration": 0.6,
      "velocity": 1,
      "hand": "left"
    },
    {
      "midi": 61,
      "time": 88.2,
      "duration": 0.285,
      "velocity": 1,
      "hand": "right"
    },
    {
      "midi": 66,
      "time": 88.2,
      "duration": 0.285,
      "velocity": 1,
      "hand": "right"
    },
    {
      "midi": 70,
      "time": 88.2,
      "duration": 0.285,
      "velocity": 1,
      "hand": "right"
    },
    {
      "midi": 61,
      "time": 88.5,
      "duration": 0.285,
      "velocity": 1,
      "hand": "right"
    },
    {
      "midi": 66,
      "time": 88.5,
      "duration": 0.3,
      "velocity": 1,
      "hand": "right"
    },
    {
      "midi": 70,
      "time": 88.5,
      "duration": 0.3,
      "velocity": 1,
      "hand": "right"
    },
    {
      "midi": 44,
      "time": 88.8,
      "duration": 0.6,
      "velocity": 1,
      "hand": "left"
    },
    {
      "midi": 56,
      "time": 88.8,
      "duration": 1.185,
      "velocity": 1,
      "hand": "left"
    },
    {
      "midi": 61,
      "time": 88.8,
      "duration": 0.285,
      "velocity": 1,
      "hand": "right"
    },
    {
      "midi": 65,
      "time": 88.8,
      "duration": 0.285,
      "velocity": 1,
      "hand": "right"
    },
    {
      "midi": 73,
      "time": 88.8,
      "duration": 0.285,
      "velocity": 1,
      "hand": "right"
    },
    {
      "midi": 61,
      "time": 89.1,
      "duration": 0.585,
      "velocity": 1,
      "hand": "right"
    },
    {
      "midi": 65,
      "time": 89.1,
      "duration": 0.285,
      "velocity": 1,
      "hand": "right"
    },
    {
      "midi": 73,
      "time": 89.1,
      "duration": 0.285,
      "velocity": 1,
      "hand": "right"
    },
    {
      "midi": 65,
      "time": 89.4,
      "duration": 0.285,
      "velocity": 1,
      "hand": "right"
    },
    {
      "midi": 73,
      "time": 89.4,
      "duration": 0.285,
      "velocity": 1,
      "hand": "right"
    },
    {
      "midi": 61,
      "time": 89.7,
      "duration": 0.285,
      "velocity": 1,
      "hand": "right"
    },
    {
      "midi": 65,
      "time": 89.7,
      "duration": 0.285,
      "velocity": 1,
      "hand": "right"
    },
    {
      "midi": 73,
      "time": 89.7,
      "duration": 0.3,
      "velocity": 1,
      "hand": "right"
    },
    {
      "midi": 44,
      "time": 90,
      "duration": 0.6,
      "velocity": 1,
      "hand": "left"
    },
    {
      "midi": 56,
      "time": 90,
      "duration": 1.2,
      "velocity": 1,
      "hand": "left"
    },
    {
      "midi": 61,
      "time": 90,
      "duration": 0.285,
      "velocity": 1,
      "hand": "right"
    },
    {
      "midi": 65,
      "time": 90,
      "duration": 0.285,
      "velocity": 1,
      "hand": "right"
    },
    {
      "midi": 71,
      "time": 90,
      "duration": 0.285,
      "velocity": 1,
      "hand": "right"
    },
    {
      "midi": 61,
      "time": 90.3,
      "duration": 0.585,
      "velocity": 1,
      "hand": "right"
    },
    {
      "midi": 65,
      "time": 90.3,
      "duration": 0.285,
      "velocity": 1,
      "hand": "right"
    },
    {
      "midi": 71,
      "time": 90.3,
      "duration": 0.3,
      "velocity": 1,
      "hand": "right"
    },
    {
      "midi": 80,
      "time": 90.3,
      "duration": 0.3,
      "velocity": 1,
      "hand": "right"
    },
    {
      "midi": 65,
      "time": 90.6,
      "duration": 0.285,
      "velocity": 1,
      "hand": "right"
    },
    {
      "midi": 77,
      "time": 90.6,
      "duration": 0.3,
      "velocity": 1,
      "hand": "right"
    },
    {
      "midi": 61,
      "time": 90.9,
      "duration": 0.285,
      "velocity": 1,
      "hand": "right"
    },
    {
      "midi": 65,
      "time": 90.9,
      "duration": 0.3,
      "velocity": 1,
      "hand": "right"
    },
    {
      "midi": 71,
      "time": 90.9,
      "duration": 0.3,
      "velocity": 1,
      "hand": "right"
    },
    {
      "midi": 42,
      "time": 91.2,
      "duration": 0.6,
      "velocity": 1,
      "hand": "left"
    },
    {
      "midi": 54,
      "time": 91.2,
      "duration": 1.785,
      "velocity": 1,
      "hand": "left"
    },
    {
      "midi": 61,
      "time": 91.2,
      "duration": 0.285,
      "velocity": 1,
      "hand": "right"
    },
    {
      "midi": 66,
      "time": 91.2,
      "duration": 0.285,
      "velocity": 1,
      "hand": "right"
    },
    {
      "midi": 70,
      "time": 91.2,
      "duration": 0.285,
      "velocity": 1,
      "hand": "right"
    },
    {
      "midi": 61,
      "time": 91.5,
      "duration": 0.585,
      "velocity": 1,
      "hand": "right"
    },
    {
      "midi": 66,
      "time": 91.5,
      "duration": 0.285,
      "velocity": 1,
      "hand": "right"
    },
    {
      "midi": 70,
      "time": 91.5,
      "duration": 0.3,
      "velocity": 1,
      "hand": "right"
    },
    {
      "midi": 66,
      "time": 91.8,
      "duration": 0.285,
      "velocity": 1,
      "hand": "right"
    },
    {
      "midi": 61,
      "time": 92.1,
      "duration": 0.3,
      "velocity": 1,
      "hand": "right"
    },
    {
      "midi": 66,
      "time": 92.1,
      "duration": 0.3,
      "velocity": 1,
      "hand": "right"
    },
    {
      "midi": 70,
      "time": 92.1,
      "duration": 0.3,
      "velocity": 1,
      "hand": "right"
    },
    {
      "midi": 42,
      "time": 92.4,
      "duration": 0.6,
      "velocity": 1,
      "hand": "left"
    },
    {
      "midi": 61,
      "time": 92.7,
      "duration": 0.3,
      "velocity": 1,
      "hand": "right"
    },
    {
      "midi": 70,
      "time": 92.7,
      "duration": 0.585,
      "velocity": 1,
      "hand": "right"
    },
    {
      "midi": 73,
      "time": 92.7,
      "duration": 0.285,
      "velocity": 1,
      "hand": "right"
    },
    {
      "midi": 54,
      "time": 93,
      "duration": 0.6,
      "velocity": 1,
      "hand": "left"
    },
    {
      "midi": 58,
      "time": 93,
      "duration": 0.6,
      "velocity": 1,
      "hand": "left"
    },
    {
      "midi": 66,
      "time": 93,
      "duration": 0.285,
      "velocity": 1,
      "hand": "right"
    },
    {
      "midi": 73,
      "time": 93,
      "duration": 0.6,
      "velocity": 1,
      "hand": "right"
    },
    {
      "midi": 78,
      "time": 93,
      "duration": 0.3,
      "velocity": 1,
      "hand": "right"
    },
    {
      "midi": 61,
      "time": 93.3,
      "duration": 0.285,
      "velocity": 1,
      "hand": "right"
    },
    {
      "midi": 66,
      "time": 93.3,
      "duration": 0.285,
      "velocity": 1,
      "hand": "right"
    },
    {
      "midi": 70,
      "time": 93.3,
      "duration": 0.285,
      "velocity": 1,
      "hand": "right"
    },
    {
      "midi": 49,
      "time": 93.6,
      "duration": 1.2,
      "velocity": 1,
      "hand": "left"
    },
    {
      "midi": 61,
      "time": 93.6,
      "duration": 0.285,
      "velocity": 1,
      "hand": "right"
    },
    {
      "midi": 66,
      "time": 93.6,
      "duration": 0.285,
      "velocity": 1,
      "hand": "right"
    },
    {
      "midi": 70,
      "time": 93.6,
      "duration": 0.285,
      "velocity": 1,
      "hand": "right"
    },
    {
      "midi": 61,
      "time": 93.9,
      "duration": 0.585,
      "velocity": 1,
      "hand": "right"
    },
    {
      "midi": 66,
      "time": 93.9,
      "duration": 0.285,
      "velocity": 1,
      "hand": "right"
    },
    {
      "midi": 70,
      "time": 93.9,
      "duration": 0.3,
      "velocity": 1,
      "hand": "right"
    },
    {
      "midi": 66,
      "time": 94.2,
      "duration": 0.285,
      "velocity": 1,
      "hand": "right"
    },
    {
      "midi": 78,
      "time": 94.2,
      "duration": 0.6,
      "velocity": 1,
      "hand": "right"
    },
    {
      "midi": 61,
      "time": 94.5,
      "duration": 0.3,
      "velocity": 1,
      "hand": "right"
    },
    {
      "midi": 66,
      "time": 94.5,
      "duration": 0.3,
      "velocity": 1,
      "hand": "right"
    },
    {
      "midi": 70,
      "time": 94.5,
      "duration": 0.3,
      "velocity": 1,
      "hand": "right"
    },
    {
      "midi": 50,
      "time": 94.8,
      "duration": 1.2,
      "velocity": 1,
      "hand": "left"
    },
    {
      "midi": 59,
      "time": 94.8,
      "duration": 0.285,
      "velocity": 1,
      "hand": "left"
    },
    {
      "midi": 65,
      "time": 94.8,
      "duration": 0.285,
      "velocity": 1,
      "hand": "right"
    },
    {
      "midi": 68,
      "time": 94.8,
      "duration": 0.285,
      "velocity": 1,
      "hand": "right"
    },
    {
      "midi": 77,
      "time": 94.8,
      "duration": 0.3,
      "velocity": 1,
      "hand": "right"
    },
    {
      "midi": 59,
      "time": 95.1,
      "duration": 0.585,
      "velocity": 1,
      "hand": "left"
    },
    {
      "midi": 65,
      "time": 95.1,
      "duration": 0.285,
      "velocity": 1,
      "hand": "right"
    },
    {
      "midi": 68,
      "time": 95.1,
      "duration": 0.3,
      "velocity": 1,
      "hand": "right"
    },
    {
      "midi": 83,
      "time": 95.1,
      "duration": 0.3,
      "velocity": 1,
      "hand": "right"
    },
    {
      "midi": 65,
      "time": 95.4,
      "duration": 0.285,
      "velocity": 1,
      "hand": "right"
    },
    {
      "midi": 80,
      "time": 95.4,
      "duration": 0.3,
      "velocity": 1,
      "hand": "right"
    },
    {
      "midi": 59,
      "time": 95.7,
      "duration": 0.3,
      "velocity": 1,
      "hand": "left"
    },
    {
      "midi": 65,
      "time": 95.7,
      "duration": 0.3,
      "velocity": 1,
      "hand": "right"
    },
    {
      "midi": 68,
      "time": 95.7,
      "duration": 0.3,
      "velocity": 1,
      "hand": "right"
    },
    {
      "midi": 77,
      "time": 95.7,
      "duration": 0.3,
      "velocity": 1,
      "hand": "right"
    },
    {
      "midi": 51,
      "time": 96,
      "duration": 0.585,
      "velocity": 1,
      "hand": "left"
    },
    {
      "midi": 66,
      "time": 96,
      "duration": 0.285,
      "velocity": 1,
      "hand": "right"
    },
    {
      "midi": 78,
      "time": 96,
      "duration": 3,
      "velocity": 1,
      "hand": "right"
    },
    {
      "midi": 58,
      "time": 96.3,
      "duration": 0.285,
      "velocity": 1,
      "hand": "left"
    },
    {
      "midi": 63,
      "time": 96.3,
      "duration": 0.285,
      "velocity": 1,
      "hand": "right"
    },
    {
      "midi": 66,
      "time": 96.3,
      "duration": 0.3,
      "velocity": 1,
      "hand": "right"
    },
    {
      "midi": 51,
      "time": 96.6,
      "duration": 0.6,
      "velocity": 1,
      "hand": "left"
    },
    {
      "midi": 58,
      "time": 96.6,
      "duration": 0.285,
      "velocity": 1,
      "hand": "left"
    },
    {
      "midi": 63,
      "time": 96.6,
      "duration": 0.285,
      "velocity": 1,
      "hand": "right"
    },
    {
      "midi": 58,
      "time": 96.9,
      "duration": 0.3,
      "velocity": 1,
      "hand": "left"
    },
    {
      "midi": 63,
      "time": 96.9,
      "duration": 0.3,
      "velocity": 1,
      "hand": "right"
    },
    {
      "midi": 66,
      "time": 96.9,
      "duration": 0.3,
      "velocity": 1,
      "hand": "right"
    },
    {
      "midi": 49,
      "time": 97.2,
      "duration": 1.2,
      "velocity": 1,
      "hand": "left"
    },
    {
      "midi": 64,
      "time": 97.2,
      "duration": 0.285,
      "velocity": 1,
      "hand": "right"
    },
    {
      "midi": 58,
      "time": 97.5,
      "duration": 0.585,
      "velocity": 1,
      "hand": "left"
    },
    {
      "midi": 64,
      "time": 97.5,
      "duration": 0.285,
      "velocity": 1,
      "hand": "right"
    },
    {
      "midi": 66,
      "time": 97.5,
      "duration": 0.3,
      "velocity": 1,
      "hand": "right"
    },
    {
      "midi": 64,
      "time": 97.8,
      "duration": 0.285,
      "velocity": 1,
      "hand": "right"
    },
    {
      "midi": 58,
      "time": 98.1,
      "duration": 0.3,
      "velocity": 1,
      "hand": "left"
    },
    {
      "midi": 64,
      "time": 98.1,
      "duration": 0.3,
      "velocity": 1,
      "hand": "right"
    },
    {
      "midi": 66,
      "time": 98.1,
      "duration": 0.3,
      "velocity": 1,
      "hand": "right"
    },
    {
      "midi": 47,
      "time": 98.4,
      "duration": 0.585,
      "velocity": 1,
      "hand": "left"
    },
    {
      "midi": 59,
      "time": 98.4,
      "duration": 0.285,
      "velocity": 1,
      "hand": "left"
    },
    {
      "midi": 63,
      "time": 98.4,
      "duration": 0.285,
      "velocity": 1,
      "hand": "right"
    },
    {
      "midi": 59,
      "time": 98.7,
      "duration": 0.585,
      "velocity": 1,
      "hand": "left"
    },
    {
      "midi": 63,
      "time": 98.7,
      "duration": 0.285,
      "velocity": 1,
      "hand": "right"
    },
    {
      "midi": 66,
      "time": 98.7,
      "duration": 0.285,
      "velocity": 1,
      "hand": "right"
    },
    {
      "midi": 47,
      "time": 99,
      "duration": 0.6,
      "velocity": 1,
      "hand": "left"
    },
    {
      "midi": 63,
      "time": 99,
      "duration": 0.285,
      "velocity": 1,
      "hand": "right"
    },
    {
      "midi": 66,
      "time": 99,
      "duration": 0.6,
      "velocity": 1,
      "hand": "right"
    },
    {
      "midi": 75,
      "time": 99,
      "duration": 0.285,
      "velocity": 1,
      "hand": "right"
    },
    {
      "midi": 59,
      "time": 99.3,
      "duration": 0.3,
      "velocity": 1,
      "hand": "left"
    },
    {
      "midi": 63,
      "time": 99.3,
      "duration": 0.285,
      "velocity": 1,
      "hand": "right"
    },
    {
      "midi": 75,
      "time": 99.3,
      "duration": 0.3,
      "velocity": 1,
      "hand": "right"
    },
    {
      "midi": 46,
      "time": 99.6,
      "duration": 0.6,
      "velocity": 1,
      "hand": "left"
    },
    {
      "midi": 63,
      "time": 99.6,
      "duration": 0.585,
      "velocity": 1,
      "hand": "right"
    },
    {
      "midi": 67,
      "time": 99.6,
      "duration": 0.6,
      "velocity": 1,
      "hand": "right"
    },
    {
      "midi": 73,
      "time": 99.6,
      "duration": 0.6,
      "velocity": 1,
      "hand": "right"
    },
    {
      "midi": 44,
      "time": 100.2,
      "duration": 0.6,
      "velocity": 1,
      "hand": "left"
    },
    {
      "midi": 63,
      "time": 100.2,
      "duration": 0.6,
      "velocity": 1,
      "hand": "right"
    },
    {
      "midi": 68,
      "time": 100.2,
      "duration": 0.6,
      "velocity": 1,
      "hand": "right"
    },
    {
      "midi": 71,
      "time": 100.2,
      "duration": 0.6,
      "velocity": 1,
      "hand": "right"
    },
    {
      "midi": 49,
      "time": 100.8,
      "duration": 1.185,
      "velocity": 1,
      "hand": "left"
    },
    {
      "midi": 61,
      "time": 100.8,
      "duration": 0.285,
      "velocity": 1,
      "hand": "right"
    },
    {
      "midi": 66,
      "time": 100.8,
      "duration": 0.285,
      "velocity": 1,
      "hand": "right"
    },
    {
      "midi": 70,
      "time": 100.8,
      "duration": 0.285,
      "velocity": 1,
      "hand": "right"
    },
    {
      "midi": 61,
      "time": 101.1,
      "duration": 0.585,
      "velocity": 1,
      "hand": "right"
    },
    {
      "midi": 66,
      "time": 101.1,
      "duration": 0.285,
      "velocity": 1,
      "hand": "right"
    },
    {
      "midi": 70,
      "time": 101.1,
      "duration": 0.3,
      "velocity": 1,
      "hand": "right"
    },
    {
      "midi": 66,
      "time": 101.4,
      "duration": 0.285,
      "velocity": 1,
      "hand": "right"
    },
    {
      "midi": 61,
      "time": 101.7,
      "duration": 0.3,
      "velocity": 1,
      "hand": "right"
    },
    {
      "midi": 66,
      "time": 101.7,
      "duration": 0.3,
      "velocity": 1,
      "hand": "right"
    },
    {
      "midi": 70,
      "time": 101.7,
      "duration": 0.3,
      "velocity": 1,
      "hand": "right"
    },
    {
      "midi": 49,
      "time": 102,
      "duration": 0.585,
      "velocity": 1,
      "hand": "left"
    },
    {
      "midi": 65,
      "time": 102,
      "duration": 0.3,
      "velocity": 1,
      "hand": "right"
    },
    {
      "midi": 73,
      "time": 102,
      "duration": 0.3,
      "velocity": 1,
      "hand": "right"
    },
    {
      "midi": 61,
      "time": 102.3,
      "duration": 0.285,
      "velocity": 1,
      "hand": "right"
    },
    {
      "midi": 68,
      "time": 102.3,
      "duration": 0.3,
      "velocity": 1,
      "hand": "right"
    },
    {
      "midi": 71,
      "time": 102.3,
      "duration": 0.3,
      "velocity": 1,
      "hand": "right"
    },
    {
      "midi": 49,
      "time": 102.6,
      "duration": 0.6,
      "velocity": 1,
      "hand": "left"
    },
    {
      "midi": 61,
      "time": 102.6,
      "duration": 0.285,
      "velocity": 1,
      "hand": "right"
    },
    {
      "midi": 66,
      "time": 102.6,
      "duration": 0.3,
      "velocity": 1,
      "hand": "right"
    },
    {
      "midi": 70,
      "time": 102.6,
      "duration": 0.3,
      "velocity": 1,
      "hand": "right"
    },
    {
      "midi": 61,
      "time": 102.9,
      "duration": 0.285,
      "velocity": 1,
      "hand": "right"
    },
    {
      "midi": 65,
      "time": 102.9,
      "duration": 0.3,
      "velocity": 1,
      "hand": "right"
    },
    {
      "midi": 71,
      "time": 102.9,
      "duration": 0.3,
      "velocity": 1,
      "hand": "right"
    },
    {
      "midi": 42,
      "time": 103.2,
      "duration": 0.6,
      "velocity": 1,
      "hand": "left"
    },
    {
      "midi": 54,
      "time": 103.2,
      "duration": 1.2,
      "velocity": 1,
      "hand": "left"
    },
    {
      "midi": 61,
      "time": 103.2,
      "duration": 0.285,
      "velocity": 1,
      "hand": "right"
    },
    {
      "midi": 66,
      "time": 103.2,
      "duration": 0.285,
      "velocity": 1,
      "hand": "right"
    },
    {
      "midi": 70,
      "time": 103.2,
      "duration": 0.285,
      "velocity": 1,
      "hand": "right"
    },
    {
      "midi": 61,
      "time": 103.5,
      "duration": 0.285,
      "velocity": 1,
      "hand": "right"
    },
    {
      "midi": 66,
      "time": 103.5,
      "duration": 0.285,
      "velocity": 1,
      "hand": "right"
    },
    {
      "midi": 70,
      "time": 103.5,
      "duration": 0.3,
      "velocity": 1,
      "hand": "right"
    },
    {
      "midi": 46,
      "time": 103.8,
      "duration": 0.6,
      "velocity": 1,
      "hand": "left"
    },
    {
      "midi": 58,
      "time": 103.8,
      "duration": 0.6,
      "velocity": 1,
      "hand": "left"
    },
    {
      "midi": 61,
      "time": 103.8,
      "duration": 0.285,
      "velocity": 1,
      "hand": "right"
    },
    {
      "midi": 66,
      "time": 103.8,
      "duration": 0.285,
      "velocity": 1,
      "hand": "right"
    },
    {
      "midi": 73,
      "time": 103.8,
      "duration": 0.585,
      "velocity": 1,
      "hand": "right"
    },
    {
      "midi": 61,
      "time": 104.1,
      "duration": 0.285,
      "velocity": 1,
      "hand": "right"
    },
    {
      "midi": 66,
      "time": 104.1,
      "duration": 0.3,
      "velocity": 1,
      "hand": "right"
    },
    {
      "midi": 78,
      "time": 104.1,
      "duration": 0.3,
      "velocity": 1,
      "hand": "right"
    },
    {
      "midi": 44,
      "time": 104.4,
      "duration": 0.6,
      "velocity": 1,
      "hand": "left"
    },
    {
      "midi": 56,
      "time": 104.4,
      "duration": 0.6,
      "velocity": 1,
      "hand": "left"
    },
    {
      "midi": 61,
      "time": 104.4,
      "duration": 0.585,
      "velocity": 1,
      "hand": "right"
    },
    {
      "midi": 63,
      "time": 104.4,
      "duration": 0.6,
      "velocity": 1,
      "hand": "right"
    },
    {
      "midi": 73,
      "time": 104.4,
      "duration": 0.6,
      "velocity": 1,
      "hand": "right"
    },
    {
      "midi": 71,
      "time": 104.7,
      "duration": 0.3,
      "velocity": 1,
      "hand": "right"
    },
    {
      "midi": 49,
      "time": 105,
      "duration": 0.6,
      "velocity": 1,
      "hand": "left"
    },
    {
      "midi": 61,
      "time": 105,
      "duration": 0.585,
      "velocity": 1,
      "hand": "right"
    },
    {
      "midi": 65,
      "time": 105,
      "duration": 0.6,
      "velocity": 1,
      "hand": "right"
    },
    {
      "midi": 75,
      "time": 105,
      "duration": 0.3,
      "velocity": 1,
      "hand": "right"
    },
    {
      "midi": 71,
      "time": 105.3,
      "duration": 0.3,
      "velocity": 1,
      "hand": "right"
    },
    {
      "midi": 42,
      "time": 105.6,
      "duration": 0.6,
      "velocity": 1,
      "hand": "left"
    },
    {
      "midi": 54,
      "time": 105.6,
      "duration": 1.785,
      "velocity": 1,
      "hand": "left"
    },
    {
      "midi": 61,
      "time": 105.6,
      "duration": 0.285,
      "velocity": 1,
      "hand": "right"
    },
    {
      "midi": 66,
      "time": 105.6,
      "duration": 0.285,
      "velocity": 1,
      "hand": "right"
    },
    {
      "midi": 70,
      "time": 105.6,
      "duration": 0.285,
      "velocity": 1,
      "hand": "right"
    },
    {
      "midi": 61,
      "time": 105.9,
      "duration": 0.585,
      "velocity": 1,
      "hand": "right"
    },
    {
      "midi": 66,
      "time": 105.9,
      "duration": 0.285,
      "velocity": 1,
      "hand": "right"
    },
    {
      "midi": 70,
      "time": 105.9,
      "duration": 0.3,
      "velocity": 1,
      "hand": "right"
    },
    {
      "midi": 66,
      "time": 106.2,
      "duration": 0.285,
      "velocity": 1,
      "hand": "right"
    },
    {
      "midi": 61,
      "time": 106.5,
      "duration": 0.3,
      "velocity": 1,
      "hand": "right"
    },
    {
      "midi": 66,
      "time": 106.5,
      "duration": 0.3,
      "velocity": 1,
      "hand": "right"
    },
    {
      "midi": 70,
      "time": 106.5,
      "duration": 0.3,
      "velocity": 1,
      "hand": "right"
    },
    {
      "midi": 42,
      "time": 106.8,
      "duration": 0.6,
      "velocity": 1,
      "hand": "left"
    },
    {
      "midi": 61,
      "time": 107.1,
      "duration": 0.285,
      "velocity": 1,
      "hand": "right"
    },
    {
      "midi": 66,
      "time": 107.1,
      "duration": 0.285,
      "velocity": 1,
      "hand": "right"
    },
    {
      "midi": 70,
      "time": 107.1,
      "duration": 0.285,
      "velocity": 1,
      "hand": "right"
    },
    {
      "midi": 54,
      "time": 107.4,
      "duration": 0.6,
      "velocity": 1,
      "hand": "left"
    },
    {
      "midi": 61,
      "time": 107.4,
      "duration": 0.285,
      "velocity": 1,
      "hand": "right"
    },
    {
      "midi": 66,
      "time": 107.4,
      "duration": 0.285,
      "velocity": 1,
      "hand": "right"
    },
    {
      "midi": 70,
      "time": 107.4,
      "duration": 0.285,
      "velocity": 1,
      "hand": "right"
    },
    {
      "midi": 61,
      "time": 107.7,
      "duration": 0.285,
      "velocity": 1,
      "hand": "right"
    },
    {
      "midi": 66,
      "time": 107.7,
      "duration": 0.3,
      "velocity": 1,
      "hand": "right"
    },
    {
      "midi": 70,
      "time": 107.7,
      "duration": 0.3,
      "velocity": 1,
      "hand": "right"
    },
    {
      "midi": 44,
      "time": 108,
      "duration": 0.6,
      "velocity": 1,
      "hand": "left"
    },
    {
      "midi": 56,
      "time": 108,
      "duration": 1.185,
      "velocity": 1,
      "hand": "left"
    },
    {
      "midi": 61,
      "time": 108,
      "duration": 0.285,
      "velocity": 1,
      "hand": "right"
    },
    {
      "midi": 65,
      "time": 108,
      "duration": 0.285,
      "velocity": 1,
      "hand": "right"
    },
    {
      "midi": 73,
      "time": 108,
      "duration": 0.285,
      "velocity": 1,
      "hand": "right"
    },
    {
      "midi": 61,
      "time": 108.3,
      "duration": 0.585,
      "velocity": 1,
      "hand": "right"
    },
    {
      "midi": 65,
      "time": 108.3,
      "duration": 0.285,
      "velocity": 1,
      "hand": "right"
    },
    {
      "midi": 73,
      "time": 108.3,
      "duration": 0.3,
      "velocity": 1,
      "hand": "right"
    },
    {
      "midi": 65,
      "time": 108.6,
      "duration": 0.285,
      "velocity": 1,
      "hand": "right"
    },
    {
      "midi": 61,
      "time": 108.9,
      "duration": 0.285,
      "velocity": 1,
      "hand": "right"
    },
    {
      "midi": 65,
      "time": 108.9,
      "duration": 0.285,
      "velocity": 1,
      "hand": "right"
    },
    {
      "midi": 73,
      "time": 108.9,
      "duration": 0.285,
      "velocity": 1,
      "hand": "right"
    },
    {
      "midi": 44,
      "time": 109.2,
      "duration": 0.6,
      "velocity": 1,
      "hand": "left"
    },
    {
      "midi": 56,
      "time": 109.2,
      "duration": 1.2,
      "velocity": 1,
      "hand": "left"
    },
    {
      "midi": 61,
      "time": 109.2,
      "duration": 0.285,
      "velocity": 1,
      "hand": "right"
    },
    {
      "midi": 65,
      "time": 109.2,
      "duration": 0.285,
      "velocity": 1,
      "hand": "right"
    },
    {
      "midi": 71,
      "time": 109.2,
      "duration": 0.285,
      "velocity": 1,
      "hand": "right"
    },
    {
      "midi": 73,
      "time": 109.2,
      "duration": 0.3,
      "velocity": 1,
      "hand": "right"
    },
    {
      "midi": 61,
      "time": 109.5,
      "duration": 0.585,
      "velocity": 1,
      "hand": "right"
    },
    {
      "midi": 65,
      "time": 109.5,
      "duration": 0.285,
      "velocity": 1,
      "hand": "right"
    },
    {
      "midi": 71,
      "time": 109.5,
      "duration": 0.3,
      "velocity": 1,
      "hand": "right"
    },
    {
      "midi": 80,
      "time": 109.5,
      "duration": 0.3,
      "velocity": 1,
      "hand": "right"
    },
    {
      "midi": 65,
      "time": 109.8,
      "duration": 0.285,
      "velocity": 1,
      "hand": "right"
    },
    {
      "midi": 77,
      "time": 109.8,
      "duration": 0.3,
      "velocity": 1,
      "hand": "right"
    },
    {
      "midi": 61,
      "time": 110.1,
      "duration": 0.285,
      "velocity": 1,
      "hand": "right"
    },
    {
      "midi": 65,
      "time": 110.1,
      "duration": 0.3,
      "velocity": 1,
      "hand": "right"
    },
    {
      "midi": 71,
      "time": 110.1,
      "duration": 0.3,
      "velocity": 1,
      "hand": "right"
    },
    {
      "midi": 42,
      "time": 110.4,
      "duration": 0.6,
      "velocity": 1,
      "hand": "left"
    },
    {
      "midi": 54,
      "time": 110.4,
      "duration": 1.785,
      "velocity": 1,
      "hand": "left"
    },
    {
      "midi": 61,
      "time": 110.4,
      "duration": 0.285,
      "velocity": 1,
      "hand": "right"
    },
    {
      "midi": 66,
      "time": 110.4,
      "duration": 0.285,
      "velocity": 1,
      "hand": "right"
    },
    {
      "midi": 70,
      "time": 110.4,
      "duration": 0.285,
      "velocity": 1,
      "hand": "right"
    },
    {
      "midi": 61,
      "time": 110.7,
      "duration": 0.585,
      "velocity": 1,
      "hand": "right"
    },
    {
      "midi": 66,
      "time": 110.7,
      "duration": 0.285,
      "velocity": 1,
      "hand": "right"
    },
    {
      "midi": 70,
      "time": 110.7,
      "duration": 0.3,
      "velocity": 1,
      "hand": "right"
    },
    {
      "midi": 66,
      "time": 111,
      "duration": 0.285,
      "velocity": 1,
      "hand": "right"
    },
    {
      "midi": 61,
      "time": 111.3,
      "duration": 0.3,
      "velocity": 1,
      "hand": "right"
    },
    {
      "midi": 66,
      "time": 111.3,
      "duration": 0.3,
      "velocity": 1,
      "hand": "right"
    },
    {
      "midi": 70,
      "time": 111.3,
      "duration": 0.3,
      "velocity": 1,
      "hand": "right"
    },
    {
      "midi": 42,
      "time": 111.6,
      "duration": 0.6,
      "velocity": 1,
      "hand": "left"
    },
    {
      "midi": 58,
      "time": 111.9,
      "duration": 0.285,
      "velocity": 1,
      "hand": "left"
    },
    {
      "midi": 66,
      "time": 111.9,
      "duration": 0.285,
      "velocity": 1,
      "hand": "right"
    },
    {
      "midi": 70,
      "time": 111.9,
      "duration": 0.285,
      "velocity": 1,
      "hand": "right"
    },
    {
      "midi": 54,
      "time": 112.2,
      "duration": 0.6,
      "velocity": 1,
      "hand": "left"
    },
    {
      "midi": 58,
      "time": 112.2,
      "duration": 0.285,
      "velocity": 1,
      "hand": "left"
    },
    {
      "midi": 66,
      "time": 112.2,
      "duration": 0.285,
      "velocity": 1,
      "hand": "right"
    },
    {
      "midi": 70,
      "time": 112.2,
      "duration": 0.285,
      "velocity": 1,
      "hand": "right"
    },
    {
      "midi": 58,
      "time": 112.5,
      "duration": 0.3,
      "velocity": 1,
      "hand": "left"
    },
    {
      "midi": 66,
      "time": 112.5,
      "duration": 0.3,
      "velocity": 1,
      "hand": "right"
    },
    {
      "midi": 70,
      "time": 112.5,
      "duration": 0.3,
      "velocity": 1,
      "hand": "right"
    },
    {
      "midi": 41,
      "time": 112.8,
      "duration": 0.6,
      "velocity": 1,
      "hand": "left"
    },
    {
      "midi": 53,
      "time": 112.8,
      "duration": 1.185,
      "velocity": 1,
      "hand": "left"
    },
    {
      "midi": 68,
      "time": 112.8,
      "duration": 0.285,
      "velocity": 1,
      "hand": "right"
    },
    {
      "midi": 75,
      "time": 112.8,
      "duration": 0.285,
      "velocity": 1,
      "hand": "right"
    },
    {
      "midi": 59,
      "time": 113.1,
      "duration": 0.585,
      "velocity": 1,
      "hand": "left"
    },
    {
      "midi": 68,
      "time": 113.1,
      "duration": 0.285,
      "velocity": 1,
      "hand": "right"
    },
    {
      "midi": 75,
      "time": 113.1,
      "duration": 0.3,
      "velocity": 1,
      "hand": "right"
    },
    {
      "midi": 63,
      "time": 113.4,
      "duration": 0.3,
      "velocity": 1,
      "hand": "right"
    },
    {
      "midi": 68,
      "time": 113.4,
      "duration": 0.285,
      "velocity": 1,
      "hand": "right"
    },
    {
      "midi": 59,
      "time": 113.7,
      "duration": 0.3,
      "velocity": 1,
      "hand": "left"
    },
    {
      "midi": 68,
      "time": 113.7,
      "duration": 0.285,
      "velocity": 1,
      "hand": "right"
    },
    {
      "midi": 75,
      "time": 113.7,
      "duration": 0.3,
      "velocity": 1,
      "hand": "right"
    },
    {
      "midi": 53,
      "time": 114,
      "duration": 1.2,
      "velocity": 1,
      "hand": "left"
    },
    {
      "midi": 58,
      "time": 114,
      "duration": 0.285,
      "velocity": 1,
      "hand": "left"
    },
    {
      "midi": 68,
      "time": 114,
      "duration": 0.285,
      "velocity": 1,
      "hand": "right"
    },
    {
      "midi": 74,
      "time": 114,
      "duration": 0.285,
      "velocity": 1,
      "hand": "right"
    },
    {
      "midi": 58,
      "time": 114.3,
      "duration": 0.585,
      "velocity": 1,
      "hand": "left"
    },
    {
      "midi": 68,
      "time": 114.3,
      "duration": 0.285,
      "velocity": 1,
      "hand": "right"
    },
    {
      "midi": 74,
      "time": 114.3,
      "duration": 0.3,
      "velocity": 1,
      "hand": "right"
    },
    {
      "midi": 77,
      "time": 114.3,
      "duration": 0.3,
      "velocity": 1,
      "hand": "right"
    },
    {
      "midi": 62,
      "time": 114.6,
      "duration": 0.3,
      "velocity": 1,
      "hand": "right"
    },
    {
      "midi": 68,
      "time": 114.6,
      "duration": 0.285,
      "velocity": 1,
      "hand": "right"
    },
    {
      "midi": 80,
      "time": 114.6,
      "duration": 0.3,
      "velocity": 1,
      "hand": "right"
    },
    {
      "midi": 58,
      "time": 114.9,
      "duration": 0.3,
      "velocity": 1,
      "hand": "left"
    },
    {
      "midi": 68,
      "time": 114.9,
      "duration": 0.3,
      "velocity": 1,
      "hand": "right"
    },
    {
      "midi": 74,
      "time": 114.9,
      "duration": 0.3,
      "velocity": 1,
      "hand": "right"
    },
    {
      "midi": 55,
      "time": 115.2,
      "duration": 0.6,
      "velocity": 1,
      "hand": "left"
    },
    {
      "midi": 63,
      "time": 115.2,
      "duration": 0.585,
      "velocity": 1,
      "hand": "right"
    },
    {
      "midi": 75,
      "time": 115.2,
      "duration": 0.285,
      "velocity": 1,
      "hand": "right"
    },
    {
      "midi": 58,
      "time": 115.5,
      "duration": 0.585,
      "velocity": 1,
      "hand": "left"
    },
    {
      "midi": 67,
      "time": 115.5,
      "duration": 0.3,
      "velocity": 1,
      "hand": "right"
    },
    {
      "midi": 75,
      "time": 115.5,
      "duration": 0.3,
      "velocity": 1,
      "hand": "right"
    },
    {
      "midi": 63,
      "time": 115.8,
      "duration": 0.3,
      "velocity": 1,
      "hand": "right"
    },
    {
      "midi": 70,
      "time": 115.8,
      "duration": 0.285,
      "velocity": 1,
      "hand": "right"
    },
    {
      "midi": 58,
      "time": 116.1,
      "duration": 0.3,
      "velocity": 1,
      "hand": "left"
    },
    {
      "midi": 70,
      "time": 116.1,
      "duration": 0.285,
      "velocity": 1,
      "hand": "right"
    },
    {
      "midi": 75,
      "time": 116.1,
      "duration": 0.3,
      "velocity": 1,
      "hand": "right"
    },
    {
      "midi": 55,
      "time": 116.4,
      "duration": 1.2,
      "velocity": 1,
      "hand": "left"
    },
    {
      "midi": 63,
      "time": 116.4,
      "duration": 0.285,
      "velocity": 1,
      "hand": "right"
    },
    {
      "midi": 70,
      "time": 116.4,
      "duration": 0.285,
      "velocity": 1,
      "hand": "right"
    },
    {
      "midi": 63,
      "time": 116.7,
      "duration": 0.585,
      "velocity": 1,
      "hand": "right"
    },
    {
      "midi": 70,
      "time": 116.7,
      "duration": 0.285,
      "velocity": 1,
      "hand": "right"
    },
    {
      "midi": 75,
      "time": 116.7,
      "duration": 0.3,
      "velocity": 1,
      "hand": "right"
    },
    {
      "midi": 70,
      "time": 117,
      "duration": 0.285,
      "velocity": 1,
      "hand": "right"
    },
    {
      "midi": 63,
      "time": 117.3,
      "duration": 0.285,
      "velocity": 1,
      "hand": "right"
    },
    {
      "midi": 70,
      "time": 117.3,
      "duration": 0.3,
      "velocity": 1,
      "hand": "right"
    },
    {
      "midi": 75,
      "time": 117.3,
      "duration": 0.285,
      "velocity": 1,
      "hand": "right"
    },
    {
      "midi": 56,
      "time": 117.6,
      "duration": 0.585,
      "velocity": 1,
      "hand": "left"
    },
    {
      "midi": 63,
      "time": 117.6,
      "duration": 0.6,
      "velocity": 1,
      "hand": "right"
    },
    {
      "midi": 72,
      "time": 117.6,
      "duration": 0.285,
      "velocity": 1,
      "hand": "right"
    },
    {
      "midi": 75,
      "time": 117.6,
      "duration": 0.285,
      "velocity": 1,
      "hand": "right"
    },
    {
      "midi": 72,
      "time": 117.9,
      "duration": 0.3,
      "velocity": 1,
      "hand": "right"
    },
    {
      "midi": 75,
      "time": 117.9,
      "duration": 0.3,
      "velocity": 1,
      "hand": "right"
    },
    {
      "midi": 56,
      "time": 118.2,
      "duration": 0.585,
      "velocity": 1,
      "hand": "left"
    },
    {
      "midi": 65,
      "time": 118.2,
      "duration": 0.6,
      "velocity": 1,
      "hand": "right"
    },
    {
      "midi": 71,
      "time": 118.2,
      "duration": 0.285,
      "velocity": 1,
      "hand": "right"
    },
    {
      "midi": 74,
      "time": 118.2,
      "duration": 0.285,
      "velocity": 1,
      "hand": "right"
    },
    {
      "midi": 77,
      "time": 118.2,
      "duration": 0.6,
      "velocity": 1,
      "hand": "right"
    },
    {
      "midi": 71,
      "time": 118.5,
      "duration": 0.3,
      "velocity": 1,
      "hand": "right"
    },
    {
      "midi": 74,
      "time": 118.5,
      "duration": 0.3,
      "velocity": 1,
      "hand": "right"
    },
    {
      "midi": 56,
      "time": 118.8,
      "duration": 0.585,
      "velocity": 1,
      "hand": "left"
    },
    {
      "midi": 63,
      "time": 118.8,
      "duration": 0.6,
      "velocity": 1,
      "hand": "right"
    },
    {
      "midi": 72,
      "time": 118.8,
      "duration": 0.585,
      "velocity": 1,
      "hand": "right"
    },
    {
      "midi": 75,
      "time": 118.8,
      "duration": 0.6,
      "velocity": 1,
      "hand": "right"
    },
    {
      "midi": 65,
      "time": 119.1,
      "duration": 0.3,
      "velocity": 1,
      "hand": "right"
    },
    {
      "midi": 68,
      "time": 119.1,
      "duration": 0.285,
      "velocity": 1,
      "hand": "right"
    },
    {
      "midi": 56,
      "time": 119.4,
      "duration": 0.6,
      "velocity": 1,
      "hand": "left"
    },
    {
      "midi": 68,
      "time": 119.4,
      "duration": 0.6,
      "velocity": 1,
      "hand": "right"
    },
    {
      "midi": 72,
      "time": 119.4,
      "duration": 0.285,
      "velocity": 1,
      "hand": "right"
    },
    {
      "midi": 77,
      "time": 119.4,
      "duration": 0.285,
      "velocity": 1,
      "hand": "right"
    },
    {
      "midi": 80,
      "time": 119.4,
      "duration": 0.6,
      "velocity": 1,
      "hand": "right"
    },
    {
      "midi": 72,
      "time": 119.7,
      "duration": 0.3,
      "velocity": 1,
      "hand": "right"
    },
    {
      "midi": 77,
      "time": 119.7,
      "duration": 0.3,
      "velocity": 1,
      "hand": "right"
    },
    {
      "midi": 58,
      "time": 120,
      "duration": 0.285,
      "velocity": 1,
      "hand": "left"
    },
    {
      "midi": 63,
      "time": 120,
      "duration": 1.2,
      "velocity": 1,
      "hand": "right"
    },
    {
      "midi": 67,
      "time": 120,
      "duration": 0.285,
      "velocity": 1,
      "hand": "right"
    },
    {
      "midi": 75,
      "time": 120,
      "duration": 0.885,
      "velocity": 1,
      "hand": "right"
    },
    {
      "midi": 79,
      "time": 120,
      "duration": 1.2,
      "velocity": 1,
      "hand": "right"
    },
    {
      "midi": 58,
      "time": 120.3,
      "duration": 0.3,
      "velocity": 1,
      "hand": "left"
    },
    {
      "midi": 67,
      "time": 120.3,
      "duration": 0.285,
      "velocity": 1,
      "hand": "right"
    },
    {
      "midi": 67,
      "time": 120.6,
      "duration": 0.3,
      "velocity": 1,
      "hand": "right"
    },
    {
      "midi": 70,
      "time": 120.6,
      "duration": 0.285,
      "velocity": 1,
      "hand": "right"
    },
    {
      "midi": 70,
      "time": 120.9,
      "duration": 0.285,
      "velocity": 1,
      "hand": "right"
    },
    {
      "midi": 75,
      "time": 120.9,
      "duration": 0.285,
      "velocity": 1,
      "hand": "right"
    },
    {
      "midi": 46,
      "time": 121.2,
      "duration": 1.2,
      "velocity": 1,
      "hand": "left"
    },
    {
      "midi": 68,
      "time": 121.2,
      "duration": 1.2,
      "velocity": 1,
      "hand": "right"
    },
    {
      "midi": 70,
      "time": 121.2,
      "duration": 1.2,
      "velocity": 1,
      "hand": "right"
    },
    {
      "midi": 75,
      "time": 121.2,
      "duration": 0.3,
      "velocity": 1,
      "hand": "right"
    },
    {
      "midi": 77,
      "time": 121.2,
      "duration": 1.2,
      "velocity": 1,
      "hand": "right"
    },
    {
      "midi": 74,
      "time": 121.5,
      "duration": 0.3,
      "velocity": 1,
      "hand": "right"
    },
    {
      "midi": 72,
      "time": 121.8,
      "duration": 0.3,
      "velocity": 1,
      "hand": "right"
    },
    {
      "midi": 74,
      "time": 122.1,
      "duration": 0.3,
      "velocity": 1,
      "hand": "right"
    },
    {
      "midi": 51,
      "time": 122.4,
      "duration": 0.585,
      "velocity": 1,
      "hand": "left"
    },
    {
      "midi": 63,
      "time": 122.4,
      "duration": 0.585,
      "velocity": 1,
      "hand": "right"
    },
    {
      "midi": 67,
      "time": 122.4,
      "duration": 0.585,
      "velocity": 1,
      "hand": "right"
    },
    {
      "midi": 75,
      "time": 122.4,
      "duration": 1.2,
      "velocity": 1,
      "hand": "right"
    },
    {
      "midi": 51,
      "time": 123,
      "duration": 0.6,
      "velocity": 1,
      "hand": "left"
    },
    {
      "midi": 63,
      "time": 123,
      "duration": 0.6,
      "velocity": 1,
      "hand": "right"
    },
    {
      "midi": 67,
      "time": 123,
      "duration": 0.585,
      "velocity": 1,
      "hand": "right"
    },
    {
      "midi": 79,
      "time": 123,
      "duration": 0.585,
      "velocity": 1,
      "hand": "right"
    },
    {
      "midi": 50,
      "time": 123.6,
      "duration": 0.6,
      "velocity": 1,
      "hand": "left"
    },
    {
      "midi": 62,
      "time": 123.6,
      "duration": 0.6,
      "velocity": 1,
      "hand": "right"
    },
    {
      "midi": 67,
      "time": 123.6,
      "duration": 0.585,
      "velocity": 1,
      "hand": "right"
    },
    {
      "midi": 79,
      "time": 123.6,
      "duration": 0.585,
      "velocity": 1,
      "hand": "right"
    },
    {
      "midi": 48,
      "time": 124.2,
      "duration": 0.6,
      "velocity": 1,
      "hand": "left"
    },
    {
      "midi": 60,
      "time": 124.2,
      "duration": 0.6,
      "velocity": 1,
      "hand": "right"
    },
    {
      "midi": 67,
      "time": 124.2,
      "duration": 0.585,
      "velocity": 1,
      "hand": "right"
    },
    {
      "midi": 79,
      "time": 124.2,
      "duration": 0.585,
      "velocity": 1,
      "hand": "right"
    },
    {
      "midi": 47,
      "time": 124.8,
      "duration": 1.2,
      "velocity": 1,
      "hand": "left"
    },
    {
      "midi": 59,
      "time": 124.8,
      "duration": 0.3,
      "velocity": 1,
      "hand": "left"
    },
    {
      "midi": 67,
      "time": 124.8,
      "duration": 0.585,
      "velocity": 1,
      "hand": "right"
    },
    {
      "midi": 79,
      "time": 124.8,
      "duration": 1.185,
      "velocity": 1,
      "hand": "right"
    },
    {
      "midi": 55,
      "time": 125.1,
      "duration": 0.585,
      "velocity": 1,
      "hand": "left"
    },
    {
      "midi": 62,
      "time": 125.1,
      "duration": 0.585,
      "velocity": 1,
      "hand": "right"
    },
    {
      "midi": 67,
      "time": 125.4,
      "duration": 0.3,
      "velocity": 1,
      "hand": "right"
    },
    {
      "midi": 55,
      "time": 125.7,
      "duration": 0.285,
      "velocity": 1,
      "hand": "left"
    },
    {
      "midi": 62,
      "time": 125.7,
      "duration": 0.285,
      "velocity": 1,
      "hand": "right"
    },
    {
      "midi": 55,
      "time": 126,
      "duration": 1.785,
      "velocity": 1,
      "hand": "left"
    },
    {
      "midi": 59,
      "time": 126,
      "duration": 1.8,
      "velocity": 1,
      "hand": "left"
    },
    {
      "midi": 62,
      "time": 126,
      "duration": 1.785,
      "velocity": 1,
      "hand": "right"
    },
    {
      "midi": 67,
      "time": 126,
      "duration": 1.785,
      "velocity": 1,
      "hand": "right"
    },
    {
      "midi": 74,
      "time": 126,
      "duration": 0.585,
      "velocity": 1,
      "hand": "right"
    },
    {
      "midi": 79,
      "time": 126,
      "duration": 1.185,
      "velocity": 1,
      "hand": "right"
    },
    {
      "midi": 71,
      "time": 126.3,
      "duration": 0.3,
      "velocity": 1,
      "hand": "right"
    },
    {
      "midi": 74,
      "time": 126.6,
      "duration": 0.3,
      "velocity": 1,
      "hand": "right"
    },
    {
      "midi": 78,
      "time": 126.9,
      "duration": 0.3,
      "velocity": 1,
      "hand": "right"
    },
    {
      "midi": 79,
      "time": 127.2,
      "duration": 0.3,
      "velocity": 1,
      "hand": "right"
    },
    {
      "midi": 74,
      "time": 127.5,
      "duration": 0.3,
      "velocity": 1,
      "hand": "right"
    },
    {
      "midi": 55,
      "time": 127.8,
      "duration": 0.6,
      "velocity": 1,
      "hand": "left"
    },
    {
      "midi": 67,
      "time": 127.8,
      "duration": 0.6,
      "velocity": 1,
      "hand": "right"
    },
    {
      "midi": 71,
      "time": 127.8,
      "duration": 0.6,
      "velocity": 1,
      "hand": "right"
    },
    {
      "midi": 77,
      "time": 127.8,
      "duration": 0.285,
      "velocity": 1,
      "hand": "right"
    },
    {
      "midi": 79,
      "time": 127.8,
      "duration": 0.6,
      "velocity": 1,
      "hand": "right"
    },
    {
      "midi": 77,
      "time": 128.1,
      "duration": 0.3,
      "velocity": 1,
      "hand": "right"
    },
    {
      "midi": 56,
      "time": 128.4,
      "duration": 0.6,
      "velocity": 1,
      "hand": "left"
    },
    {
      "midi": 60,
      "time": 128.4,
      "duration": 0.585,
      "velocity": 1,
      "hand": "right"
    },
    {
      "midi": 63,
      "time": 128.4,
      "duration": 0.6,
      "velocity": 1,
      "hand": "right"
    },
    {
      "midi": 72,
      "time": 128.4,
      "duration": 0.585,
      "velocity": 1,
      "hand": "right"
    },
    {
      "midi": 75,
      "time": 128.4,
      "duration": 0.6,
      "velocity": 1,
      "hand": "right"
    },
    {
      "midi": 74,
      "time": 128.7,
      "duration": 0.3,
      "velocity": 1,
      "hand": "right"
    },
    {
      "midi": 57,
      "time": 129,
      "duration": 0.6,
      "velocity": 1,
      "hand": "left"
    },
    {
      "midi": 60,
      "time": 129,
      "duration": 0.6,
      "velocity": 1,
      "hand": "right"
    },
    {
      "midi": 65,
      "time": 129,
      "duration": 0.6,
      "velocity": 1,
      "hand": "right"
    },
    {
      "midi": 72,
      "time": 129,
      "duration": 0.6,
      "velocity": 1,
      "hand": "right"
    },
    {
      "midi": 77,
      "time": 129,
      "duration": 0.285,
      "velocity": 1,
      "hand": "right"
    },
    {
      "midi": 68,
      "time": 129.3,
      "duration": 0.3,
      "velocity": 1,
      "hand": "right"
    },
    {
      "midi": 77,
      "time": 129.3,
      "duration": 0.3,
      "velocity": 1,
      "hand": "right"
    },
    {
      "midi": 39,
      "time": 129.6,
      "duration": 0.6,
      "velocity": 1,
      "hand": "left"
    },
    {
      "midi": 58,
      "time": 129.6,
      "duration": 0.285,
      "velocity": 1,
      "hand": "left"
    },
    {
      "midi": 67,
      "time": 129.6,
      "duration": 0.285,
      "velocity": 1,
      "hand": "right"
    },
    {
      "midi": 70,
      "time": 129.6,
      "duration": 0.585,
      "velocity": 1,
      "hand": "right"
    },
    {
      "midi": 75,
      "time": 129.6,
      "duration": 0.885,
      "velocity": 1,
      "hand": "right"
    },
    {
      "midi": 79,
      "time": 129.6,
      "duration": 1.2,
      "velocity": 1,
      "hand": "right"
    },
    {
      "midi": 58,
      "time": 129.9,
      "duration": 0.3,
      "velocity": 1,
      "hand": "left"
    },
    {
      "midi": 67,
      "time": 129.9,
      "duration": 0.285,
      "velocity": 1,
      "hand": "right"
    },
    {
      "midi": 67,
      "time": 130.2,
      "duration": 0.3,
      "velocity": 1,
      "hand": "right"
    },
    {
      "midi": 70,
      "time": 130.2,
      "duration": 0.285,
      "velocity": 1,
      "hand": "right"
    },
    {
      "midi": 70,
      "time": 130.5,
      "duration": 0.285,
      "velocity": 1,
      "hand": "right"
    },
    {
      "midi": 75,
      "time": 130.5,
      "duration": 0.285,
      "velocity": 1,
      "hand": "right"
    },
    {
      "midi": 39,
      "time": 130.8,
      "duration": 0.6,
      "velocity": 1,
      "hand": "left"
    },
    {
      "midi": 46,
      "time": 130.8,
      "duration": 1.2,
      "velocity": 1,
      "hand": "left"
    },
    {
      "midi": 68,
      "time": 130.8,
      "duration": 1.2,
      "velocity": 1,
      "hand": "right"
    },
    {
      "midi": 70,
      "time": 130.8,
      "duration": 1.2,
      "velocity": 1,
      "hand": "right"
    },
    {
      "midi": 75,
      "time": 130.8,
      "duration": 0.3,
      "velocity": 1,
      "hand": "right"
    },
    {
      "midi": 77,
      "time": 130.8,
      "duration": 1.2,
      "velocity": 1,
      "hand": "right"
    },
    {
      "midi": 74,
      "time": 131.1,
      "duration": 0.3,
      "velocity": 1,
      "hand": "right"
    },
    {
      "midi": 72,
      "time": 131.4,
      "duration": 0.3,
      "velocity": 1,
      "hand": "right"
    },
    {
      "midi": 74,
      "time": 131.7,
      "duration": 0.3,
      "velocity": 1,
      "hand": "right"
    },
    {
      "midi": 44,
      "time": 132,
      "duration": 0.585,
      "velocity": 1,
      "hand": "left"
    },
    {
      "midi": 51,
      "time": 132,
      "duration": 2.385,
      "velocity": 1,
      "hand": "left"
    },
    {
      "midi": 63,
      "time": 132,
      "duration": 0.585,
      "velocity": 1,
      "hand": "right"
    },
    {
      "midi": 67,
      "time": 132,
      "duration": 0.585,
      "velocity": 1,
      "hand": "right"
    },
    {
      "midi": 75,
      "time": 132,
      "duration": 2.4,
      "velocity": 1,
      "hand": "right"
    },
    {
      "midi": 70,
      "time": 132.3,
      "duration": 0.3,
      "velocity": 1,
      "hand": "right"
    },
    {
      "midi": 44,
      "time": 132.6,
      "duration": 0.3,
      "velocity": 1,
      "hand": "left"
    },
    {
      "midi": 63,
      "time": 132.6,
      "duration": 0.3,
      "velocity": 1,
      "hand": "right"
    },
    {
      "midi": 67,
      "time": 132.6,
      "duration": 0.3,
      "velocity": 1,
      "hand": "right"
    },
    {
      "midi": 58,
      "time": 132.9,
      "duration": 0.3,
      "velocity": 1,
      "hand": "left"
    },
    {
      "midi": 70,
      "time": 132.9,
      "duration": 0.3,
      "velocity": 1,
      "hand": "right"
    },
    {
      "midi": 44,
      "time": 133.2,
      "duration": 0.585,
      "velocity": 1,
      "hand": "left"
    },
    {
      "midi": 55,
      "time": 133.2,
      "duration": 0.3,
      "velocity": 1,
      "hand": "left"
    },
    {
      "midi": 63,
      "time": 133.2,
      "duration": 0.285,
      "velocity": 1,
      "hand": "right"
    },
    {
      "midi": 67,
      "time": 133.2,
      "duration": 0.3,
      "velocity": 1,
      "hand": "right"
    },
    {
      "midi": 58,
      "time": 133.5,
      "duration": 0.285,
      "velocity": 1,
      "hand": "left"
    },
    {
      "midi": 63,
      "time": 133.5,
      "duration": 0.285,
      "velocity": 1,
      "hand": "right"
    },
    {
      "midi": 44,
      "time": 133.8,
      "duration": 0.585,
      "velocity": 1,
      "hand": "left"
    },
    {
      "midi": 58,
      "time": 133.8,
      "duration": 0.285,
      "velocity": 1,
      "hand": "left"
    },
    {
      "midi": 63,
      "time": 133.8,
      "duration": 0.585,
      "velocity": 1,
      "hand": "right"
    },
    {
      "midi": 55,
      "time": 134.1,
      "duration": 0.285,
      "velocity": 1,
      "hand": "left"
    },
    {
      "midi": 58,
      "time": 134.1,
      "duration": 0.3,
      "velocity": 1,
      "hand": "left"
    },
    {
      "midi": 39,
      "time": 134.4,
      "duration": 1.785,
      "velocity": 1,
      "hand": "left"
    },
    {
      "midi": 44,
      "time": 134.4,
      "duration": 1.2,
      "velocity": 1,
      "hand": "left"
    },
    {
      "midi": 63,
      "time": 134.4,
      "duration": 1.2,
      "velocity": 1,
      "hand": "right"
    },
    {
      "midi": 39,
      "time": 136.2,
      "duration": 0.585,
      "velocity": 1,
      "hand": "left"
    },
    {
      "midi": 51,
      "time": 136.2,
      "duration": 0.585,
      "velocity": 1,
      "hand": "left"
    },
    {
      "midi": 39,
      "time": 136.8,
      "duration": 1.185,
      "velocity": 1,
      "hand": "left"
    },
    {
      "midi": 51,
      "time": 136.8,
      "duration": 1.185,
      "velocity": 1,
      "hand": "left"
    },
    {
      "midi": 39,
      "time": 138,
      "duration": 1.185,
      "velocity": 1,
      "hand": "left"
    },
    {
      "midi": 51,
      "time": 138,
      "duration": 1.185,
      "velocity": 1,
      "hand": "left"
    },
    {
      "midi": 39,
      "time": 139.2,
      "duration": 3.585,
      "velocity": 1,
      "hand": "left"
    },
    {
      "midi": 44,
      "time": 139.2,
      "duration": 0.15,
      "velocity": 1,
      "hand": "left"
    },
    {
      "midi": 63,
      "time": 139.2,
      "duration": 1.785,
      "velocity": 1,
      "hand": "right"
    },
    {
      "midi": 44,
      "time": 139.5,
      "duration": 0.15,
      "velocity": 1,
      "hand": "left"
    },
    {
      "midi": 44,
      "time": 139.8,
      "duration": 0.15,
      "velocity": 1,
      "hand": "left"
    },
    {
      "midi": 44,
      "time": 140.1,
      "duration": 0.15,
      "velocity": 1,
      "hand": "left"
    },
    {
      "midi": 44,
      "time": 140.4,
      "duration": 0.15,
      "velocity": 1,
      "hand": "left"
    },
    {
      "midi": 44,
      "time": 140.7,
      "duration": 0.15,
      "velocity": 1,
      "hand": "left"
    },
    {
      "midi": 44,
      "time": 141,
      "duration": 0.15,
      "velocity": 1,
      "hand": "left"
    },
    {
      "midi": 51,
      "time": 141,
      "duration": 0.585,
      "velocity": 1,
      "hand": "left"
    },
    {
      "midi": 63,
      "time": 141,
      "duration": 0.585,
      "velocity": 1,
      "hand": "right"
    },
    {
      "midi": 44,
      "time": 141.3,
      "duration": 0.15,
      "velocity": 1,
      "hand": "left"
    },
    {
      "midi": 44,
      "time": 141.6,
      "duration": 0.6,
      "velocity": 1,
      "hand": "left"
    },
    {
      "midi": 46,
      "time": 141.6,
      "duration": 2.4,
      "velocity": 1,
      "hand": "left"
    },
    {
      "midi": 63,
      "time": 141.6,
      "duration": 1.185,
      "velocity": 1,
      "hand": "right"
    },
    {
      "midi": 39,
      "time": 142.8,
      "duration": 0.6,
      "velocity": 1,
      "hand": "left"
    },
    {
      "midi": 51,
      "time": 142.8,
      "duration": 1.185,
      "velocity": 1,
      "hand": "left"
    },
    {
      "midi": 63,
      "time": 142.8,
      "duration": 1.185,
      "velocity": 1,
      "hand": "right"
    },
    {
      "midi": 39,
      "time": 144,
      "duration": 3.585,
      "velocity": 1,
      "hand": "left"
    },
    {
      "midi": 44,
      "time": 144,
      "duration": 0.15,
      "velocity": 1,
      "hand": "left"
    },
    {
      "midi": 63,
      "time": 144,
      "duration": 1.785,
      "velocity": 1,
      "hand": "right"
    },
    {
      "midi": 44,
      "time": 144.3,
      "duration": 0.15,
      "velocity": 1,
      "hand": "left"
    },
    {
      "midi": 44,
      "time": 144.6,
      "duration": 0.15,
      "velocity": 1,
      "hand": "left"
    },
    {
      "midi": 44,
      "time": 144.9,
      "duration": 0.15,
      "velocity": 1,
      "hand": "left"
    },
    {
      "midi": 44,
      "time": 145.2,
      "duration": 0.15,
      "velocity": 1,
      "hand": "left"
    },
    {
      "midi": 44,
      "time": 145.5,
      "duration": 0.15,
      "velocity": 1,
      "hand": "left"
    },
    {
      "midi": 44,
      "time": 145.8,
      "duration": 0.15,
      "velocity": 1,
      "hand": "left"
    },
    {
      "midi": 51,
      "time": 145.8,
      "duration": 0.585,
      "velocity": 1,
      "hand": "left"
    },
    {
      "midi": 63,
      "time": 145.8,
      "duration": 0.585,
      "velocity": 1,
      "hand": "right"
    },
    {
      "midi": 44,
      "time": 146.1,
      "duration": 0.15,
      "velocity": 1,
      "hand": "left"
    },
    {
      "midi": 44,
      "time": 146.4,
      "duration": 0.6,
      "velocity": 1,
      "hand": "left"
    },
    {
      "midi": 46,
      "time": 146.4,
      "duration": 2.4,
      "velocity": 1,
      "hand": "left"
    },
    {
      "midi": 63,
      "time": 146.4,
      "duration": 1.185,
      "velocity": 1,
      "hand": "right"
    },
    {
      "midi": 39,
      "time": 147.6,
      "duration": 0.6,
      "velocity": 1,
      "hand": "left"
    },
    {
      "midi": 51,
      "time": 147.6,
      "duration": 1.185,
      "velocity": 1,
      "hand": "left"
    },
    {
      "midi": 63,
      "time": 147.6,
      "duration": 1.185,
      "velocity": 1,
      "hand": "right"
    },
    {
      "midi": 47,
      "time": 148.8,
      "duration": 1.785,
      "velocity": 1,
      "hand": "left"
    },
    {
      "midi": 51,
      "time": 148.8,
      "duration": 4.785,
      "velocity": 1,
      "hand": "left"
    },
    {
      "midi": 63,
      "time": 148.8,
      "duration": 1.785,
      "velocity": 1,
      "hand": "right"
    },
    {
      "midi": 47,
      "time": 150.6,
      "duration": 0.6,
      "velocity": 1,
      "hand": "left"
    },
    {
      "midi": 54,
      "time": 150.6,
      "duration": 0.6,
      "velocity": 1,
      "hand": "left"
    },
    {
      "midi": 63,
      "time": 150.6,
      "duration": 0.585,
      "velocity": 1,
      "hand": "right"
    },
    {
      "midi": 46,
      "time": 151.2,
      "duration": 1.2,
      "velocity": 1,
      "hand": "left"
    },
    {
      "midi": 55,
      "time": 151.2,
      "duration": 1.2,
      "velocity": 1,
      "hand": "left"
    },
    {
      "midi": 61,
      "time": 151.2,
      "duration": 1.2,
      "velocity": 1,
      "hand": "right"
    },
    {
      "midi": 63,
      "time": 151.2,
      "duration": 1.8,
      "velocity": 1,
      "hand": "right"
    },
    {
      "midi": 44,
      "time": 152.4,
      "duration": 1.185,
      "velocity": 1,
      "hand": "left"
    },
    {
      "midi": 56,
      "time": 152.4,
      "duration": 1.185,
      "velocity": 1,
      "hand": "left"
    },
    {
      "midi": 62,
      "time": 153,
      "duration": 0.6,
      "velocity": 1,
      "hand": "right"
    },
    {
      "midi": 39,
      "time": 153.6,
      "duration": 5.7,
      "velocity": 1,
      "hand": "left"
    },
    {
      "midi": 44,
      "time": 153.6,
      "duration": 0.15,
      "velocity": 1,
      "hand": "left"
    },
    {
      "midi": 63,
      "time": 153.6,
      "duration": 1.785,
      "velocity": 1,
      "hand": "right"
    },
    {
      "midi": 44,
      "time": 153.9,
      "duration": 0.15,
      "velocity": 1,
      "hand": "left"
    },
    {
      "midi": 44,
      "time": 154.2,
      "duration": 0.285,
      "velocity": 1,
      "hand": "left"
    },
    {
      "midi": 44,
      "time": 154.5,
      "duration": 0.15,
      "velocity": 1,
      "hand": "left"
    },
    {
      "midi": 44,
      "time": 154.8,
      "duration": 0.15,
      "velocity": 1,
      "hand": "left"
    },
    {
      "midi": 46,
      "time": 154.8,
      "duration": 0.6,
      "velocity": 1,
      "hand": "left"
    },
    {
      "midi": 44,
      "time": 155.1,
      "duration": 0.15,
      "velocity": 1,
      "hand": "left"
    },
    {
      "midi": 44,
      "time": 155.4,
      "duration": 0.15,
      "velocity": 1,
      "hand": "left"
    },
    {
      "midi": 47,
      "time": 155.4,
      "duration": 0.6,
      "velocity": 1,
      "hand": "left"
    },
    {
      "midi": 63,
      "time": 155.4,
      "duration": 0.585,
      "velocity": 1,
      "hand": "right"
    },
    {
      "midi": 44,
      "time": 155.7,
      "duration": 0.15,
      "velocity": 1,
      "hand": "left"
    },
    {
      "midi": 44,
      "time": 156,
      "duration": 0.15,
      "velocity": 1,
      "hand": "left"
    },
    {
      "midi": 46,
      "time": 156,
      "duration": 3.3,
      "velocity": 1,
      "hand": "left"
    },
    {
      "midi": 63,
      "time": 156,
      "duration": 3.3,
      "velocity": 1,
      "hand": "right"
    },
    {
      "midi": 44,
      "time": 156.3,
      "duration": 0.15,
      "velocity": 1,
      "hand": "left"
    },
    {
      "midi": 44,
      "time": 156.6,
      "duration": 0.15,
      "velocity": 1,
      "hand": "left"
    },
    {
      "midi": 44,
      "time": 156.9,
      "duration": 0.15,
      "velocity": 1,
      "hand": "left"
    },
    {
      "midi": 44,
      "time": 157.2,
      "duration": 0.15,
      "velocity": 1,
      "hand": "left"
    },
    {
      "midi": 44,
      "time": 157.5,
      "duration": 0.15,
      "velocity": 1,
      "hand": "left"
    },
    {
      "midi": 44,
      "time": 157.8,
      "duration": 0.15,
      "velocity": 1,
      "hand": "left"
    },
    {
      "midi": 44,
      "time": 158.1,
      "duration": 0.15,
      "velocity": 1,
      "hand": "left"
    },
    {
      "midi": 44,
      "time": 158.4,
      "duration": 0.15,
      "velocity": 1,
      "hand": "left"
    },
    {
      "midi": 44,
      "time": 158.7,
      "duration": 0.15,
      "velocity": 1,
      "hand": "left"
    },
    {
      "midi": 44,
      "time": 159,
      "duration": 0.15,
      "velocity": 1,
      "hand": "left"
    },
    {
      "midi": 51,
      "time": 160.8,
      "duration": 0.15,
      "velocity": 1,
      "hand": "left"
    }
  ],
  "arrangements": {
    "easy": [
      {
        "midi": 70,
        "time": 0,
        "duration": 0.72,
        "velocity": 1,
        "hand": "right"
      },
      {
        "midi": 63,
        "time": 1.2,
        "duration": 0.72,
        "velocity": 1,
        "hand": "right"
      },
      {
        "midi": 70,
        "time": 2.4,
        "duration": 0.72,
        "velocity": 1,
        "hand": "right"
      },
      {
        "midi": 70,
        "time": 3.6,
        "duration": 0.72,
        "velocity": 1,
        "hand": "right"
      },
      {
        "midi": 70,
        "time": 4.8,
        "duration": 0.72,
        "velocity": 1,
        "hand": "right"
      },
      {
        "midi": 69,
        "time": 6,
        "duration": 0.72,
        "velocity": 1,
        "hand": "right"
      },
      {
        "midi": 70,
        "time": 7.2,
        "duration": 0.72,
        "velocity": 1,
        "hand": "right"
      },
      {
        "midi": 69,
        "time": 8.4,
        "duration": 0.72,
        "velocity": 1,
        "hand": "right"
      },
      {
        "midi": 68,
        "time": 9.6,
        "duration": 0.72,
        "velocity": 1,
        "hand": "right"
      },
      {
        "midi": 62,
        "time": 10.8,
        "duration": 0.72,
        "velocity": 1,
        "hand": "right"
      },
      {
        "midi": 68,
        "time": 12,
        "duration": 0.72,
        "velocity": 1,
        "hand": "right"
      },
      {
        "midi": 70,
        "time": 13.2,
        "duration": 0.72,
        "velocity": 1,
        "hand": "right"
      },
      {
        "midi": 63,
        "time": 14.4,
        "duration": 0.72,
        "velocity": 1,
        "hand": "right"
      },
      {
        "midi": 62,
        "time": 15.6,
        "duration": 0.72,
        "velocity": 1,
        "hand": "right"
      },
      {
        "midi": 70,
        "time": 16.8,
        "duration": 0.72,
        "velocity": 1,
        "hand": "right"
      },
      {
        "midi": 72,
        "time": 18,
        "duration": 0.72,
        "velocity": 1,
        "hand": "right"
      },
      {
        "midi": 70,
        "time": 19.2,
        "duration": 0.72,
        "velocity": 1,
        "hand": "right"
      },
      {
        "midi": 63,
        "time": 20.4,
        "duration": 0.72,
        "velocity": 1,
        "hand": "right"
      },
      {
        "midi": 70,
        "time": 21.6,
        "duration": 0.72,
        "velocity": 1,
        "hand": "right"
      },
      {
        "midi": 75,
        "time": 22.8,
        "duration": 0.72,
        "velocity": 1,
        "hand": "right"
      },
      {
        "midi": 70,
        "time": 24,
        "duration": 0.72,
        "velocity": 1,
        "hand": "right"
      },
      {
        "midi": 69,
        "time": 25.2,
        "duration": 0.72,
        "velocity": 1,
        "hand": "right"
      },
      {
        "midi": 72,
        "time": 26.4,
        "duration": 0.72,
        "velocity": 1,
        "hand": "right"
      },
      {
        "midi": 69,
        "time": 27.6,
        "duration": 1.2,
        "velocity": 1,
        "hand": "right"
      },
      {
        "midi": 74,
        "time": 28.8,
        "duration": 0.72,
        "velocity": 1,
        "hand": "right"
      },
      {
        "midi": 65,
        "time": 30,
        "duration": 0.72,
        "velocity": 1,
        "hand": "right"
      },
      {
        "midi": 70,
        "time": 31.2,
        "duration": 0.72,
        "velocity": 1,
        "hand": "right"
      },
      {
        "midi": 74,
        "time": 32.4,
        "duration": 0.72,
        "velocity": 1,
        "hand": "right"
      },
      {
        "midi": 74,
        "time": 33.6,
        "duration": 0.72,
        "velocity": 1,
        "hand": "right"
      },
      {
        "midi": 69,
        "time": 34.8,
        "duration": 0.72,
        "velocity": 1,
        "hand": "right"
      },
      {
        "midi": 70,
        "time": 36,
        "duration": 0.72,
        "velocity": 1,
        "hand": "right"
      },
      {
        "midi": 82,
        "time": 37.2,
        "duration": 0.72,
        "velocity": 1,
        "hand": "right"
      },
      {
        "midi": 77,
        "time": 38.4,
        "duration": 0.72,
        "velocity": 1,
        "hand": "right"
      },
      {
        "midi": 77,
        "time": 39.6,
        "duration": 0.885,
        "velocity": 1,
        "hand": "right"
      },
      {
        "midi": 77,
        "time": 40.8,
        "duration": 0.72,
        "velocity": 1,
        "hand": "right"
      },
      {
        "midi": 68,
        "time": 42,
        "duration": 0.72,
        "velocity": 1,
        "hand": "right"
      },
      {
        "midi": 70,
        "time": 43.2,
        "duration": 0.72,
        "velocity": 1,
        "hand": "right"
      },
      {
        "midi": 63,
        "time": 44.4,
        "duration": 0.72,
        "velocity": 1,
        "hand": "right"
      },
      {
        "midi": 70,
        "time": 45.6,
        "duration": 0.72,
        "velocity": 1,
        "hand": "right"
      },
      {
        "midi": 70,
        "time": 46.8,
        "duration": 0.72,
        "velocity": 1,
        "hand": "right"
      },
      {
        "midi": 72,
        "time": 48,
        "duration": 0.72,
        "velocity": 1,
        "hand": "right"
      },
      {
        "midi": 72,
        "time": 49.2,
        "duration": 0.72,
        "velocity": 1,
        "hand": "right"
      },
      {
        "midi": 78,
        "time": 50.4,
        "duration": 1.2,
        "velocity": 1,
        "hand": "right"
      },
      {
        "midi": 77,
        "time": 51.6,
        "duration": 0.72,
        "velocity": 1,
        "hand": "right"
      },
      {
        "midi": 80,
        "time": 52.8,
        "duration": 1.2,
        "velocity": 1,
        "hand": "right"
      },
      {
        "midi": 62,
        "time": 54,
        "duration": 0.72,
        "velocity": 1,
        "hand": "right"
      },
      {
        "midi": 70,
        "time": 55.2,
        "duration": 0.72,
        "velocity": 1,
        "hand": "right"
      },
      {
        "midi": 72,
        "time": 56.4,
        "duration": 0.72,
        "velocity": 1,
        "hand": "right"
      },
      {
        "midi": 67,
        "time": 57.6,
        "duration": 0.72,
        "velocity": 1,
        "hand": "right"
      },
      {
        "midi": 65,
        "time": 58.8,
        "duration": 0.72,
        "velocity": 1,
        "hand": "right"
      },
      {
        "midi": 70,
        "time": 60,
        "duration": 0.72,
        "velocity": 1,
        "hand": "right"
      },
      {
        "midi": 72,
        "time": 61.2,
        "duration": 0.72,
        "velocity": 1,
        "hand": "right"
      },
      {
        "midi": 70,
        "time": 62.4,
        "duration": 0.72,
        "velocity": 1,
        "hand": "right"
      },
      {
        "midi": 63,
        "time": 63.6,
        "duration": 0.72,
        "velocity": 1,
        "hand": "right"
      },
      {
        "midi": 70,
        "time": 64.8,
        "duration": 0.72,
        "velocity": 1,
        "hand": "right"
      },
      {
        "midi": 70,
        "time": 66,
        "duration": 0.72,
        "velocity": 1,
        "hand": "right"
      },
      {
        "midi": 72,
        "time": 67.2,
        "duration": 0.72,
        "velocity": 1,
        "hand": "right"
      },
      {
        "midi": 72,
        "time": 68.4,
        "duration": 0.72,
        "velocity": 1,
        "hand": "right"
      },
      {
        "midi": 78,
        "time": 69.6,
        "duration": 1.2,
        "velocity": 1,
        "hand": "right"
      },
      {
        "midi": 77,
        "time": 70.8,
        "duration": 0.72,
        "velocity": 1,
        "hand": "right"
      },
      {
        "midi": 77,
        "time": 72,
        "duration": 0.885,
        "velocity": 1,
        "hand": "right"
      },
      {
        "midi": 62,
        "time": 73.2,
        "duration": 0.72,
        "velocity": 1,
        "hand": "right"
      },
      {
        "midi": 79,
        "time": 74.4,
        "duration": 0.72,
        "velocity": 1,
        "hand": "right"
      },
      {
        "midi": 77,
        "time": 75.6,
        "duration": 0.72,
        "velocity": 1,
        "hand": "right"
      },
      {
        "midi": 77,
        "time": 76.8,
        "duration": 1.185,
        "velocity": 1,
        "hand": "right"
      },
      {
        "midi": 77,
        "time": 78,
        "duration": 1.185,
        "velocity": 1,
        "hand": "right"
      },
      {
        "midi": 77,
        "time": 79.2,
        "duration": 0.72,
        "velocity": 1,
        "hand": "right"
      },
      {
        "midi": 82,
        "time": 80.4,
        "duration": 0.72,
        "velocity": 1,
        "hand": "right"
      },
      {
        "midi": 82,
        "time": 81.6,
        "duration": 0.72,
        "velocity": 1,
        "hand": "right"
      },
      {
        "midi": 77,
        "time": 82.8,
        "duration": 0.885,
        "velocity": 1,
        "hand": "right"
      },
      {
        "midi": 77,
        "time": 84,
        "duration": 0.72,
        "velocity": 1,
        "hand": "right"
      },
      {
        "midi": 65,
        "time": 85.2,
        "duration": 0.72,
        "velocity": 1,
        "hand": "right"
      },
      {
        "midi": 70,
        "time": 86.4,
        "duration": 0.72,
        "velocity": 1,
        "hand": "right"
      },
      {
        "midi": 66,
        "time": 87.6,
        "duration": 0.72,
        "velocity": 1,
        "hand": "right"
      },
      {
        "midi": 73,
        "time": 88.8,
        "duration": 0.72,
        "velocity": 1,
        "hand": "right"
      },
      {
        "midi": 71,
        "time": 90,
        "duration": 0.72,
        "velocity": 1,
        "hand": "right"
      },
      {
        "midi": 70,
        "time": 91.2,
        "duration": 0.72,
        "velocity": 1,
        "hand": "right"
      },
      {
        "midi": 66,
        "time": 92.4,
        "duration": 0.72,
        "velocity": 1,
        "hand": "right"
      },
      {
        "midi": 70,
        "time": 93.6,
        "duration": 0.72,
        "velocity": 1,
        "hand": "right"
      },
      {
        "midi": 77,
        "time": 94.8,
        "duration": 0.72,
        "velocity": 1,
        "hand": "right"
      },
      {
        "midi": 78,
        "time": 96,
        "duration": 2.4,
        "velocity": 1,
        "hand": "right"
      },
      {
        "midi": 64,
        "time": 97.2,
        "duration": 0.72,
        "velocity": 1,
        "hand": "right"
      },
      {
        "midi": 63,
        "time": 98.4,
        "duration": 0.72,
        "velocity": 1,
        "hand": "right"
      },
      {
        "midi": 73,
        "time": 99.6,
        "duration": 0.72,
        "velocity": 1,
        "hand": "right"
      },
      {
        "midi": 70,
        "time": 100.8,
        "duration": 0.72,
        "velocity": 1,
        "hand": "right"
      },
      {
        "midi": 73,
        "time": 102,
        "duration": 0.72,
        "velocity": 1,
        "hand": "right"
      },
      {
        "midi": 70,
        "time": 103.2,
        "duration": 0.72,
        "velocity": 1,
        "hand": "right"
      },
      {
        "midi": 73,
        "time": 104.4,
        "duration": 0.72,
        "velocity": 1,
        "hand": "right"
      },
      {
        "midi": 70,
        "time": 105.6,
        "duration": 0.72,
        "velocity": 1,
        "hand": "right"
      },
      {
        "midi": 66,
        "time": 106.8,
        "duration": 0.72,
        "velocity": 1,
        "hand": "right"
      },
      {
        "midi": 73,
        "time": 108,
        "duration": 0.72,
        "velocity": 1,
        "hand": "right"
      },
      {
        "midi": 73,
        "time": 109.2,
        "duration": 0.72,
        "velocity": 1,
        "hand": "right"
      },
      {
        "midi": 70,
        "time": 110.4,
        "duration": 0.72,
        "velocity": 1,
        "hand": "right"
      },
      {
        "midi": 66,
        "time": 111.6,
        "duration": 0.72,
        "velocity": 1,
        "hand": "right"
      },
      {
        "midi": 75,
        "time": 112.8,
        "duration": 0.72,
        "velocity": 1,
        "hand": "right"
      },
      {
        "midi": 74,
        "time": 114,
        "duration": 0.72,
        "velocity": 1,
        "hand": "right"
      },
      {
        "midi": 75,
        "time": 115.2,
        "duration": 0.72,
        "velocity": 1,
        "hand": "right"
      },
      {
        "midi": 70,
        "time": 116.4,
        "duration": 0.72,
        "velocity": 1,
        "hand": "right"
      },
      {
        "midi": 75,
        "time": 117.6,
        "duration": 0.72,
        "velocity": 1,
        "hand": "right"
      },
      {
        "midi": 75,
        "time": 118.8,
        "duration": 0.72,
        "velocity": 1,
        "hand": "right"
      },
      {
        "midi": 79,
        "time": 120,
        "duration": 1.2,
        "velocity": 1,
        "hand": "right"
      },
      {
        "midi": 77,
        "time": 121.2,
        "duration": 1.2,
        "velocity": 1,
        "hand": "right"
      },
      {
        "midi": 75,
        "time": 122.4,
        "duration": 1.2,
        "velocity": 1,
        "hand": "right"
      },
      {
        "midi": 79,
        "time": 123.6,
        "duration": 0.72,
        "velocity": 1,
        "hand": "right"
      },
      {
        "midi": 79,
        "time": 124.8,
        "duration": 1.185,
        "velocity": 1,
        "hand": "right"
      },
      {
        "midi": 79,
        "time": 126,
        "duration": 1.185,
        "velocity": 1,
        "hand": "right"
      },
      {
        "midi": 79,
        "time": 127.2,
        "duration": 0.72,
        "velocity": 1,
        "hand": "right"
      },
      {
        "midi": 75,
        "time": 128.4,
        "duration": 0.72,
        "velocity": 1,
        "hand": "right"
      },
      {
        "midi": 79,
        "time": 129.6,
        "duration": 1.2,
        "velocity": 1,
        "hand": "right"
      },
      {
        "midi": 77,
        "time": 130.8,
        "duration": 1.2,
        "velocity": 1,
        "hand": "right"
      },
      {
        "midi": 75,
        "time": 132,
        "duration": 2.4,
        "velocity": 1,
        "hand": "right"
      },
      {
        "midi": 67,
        "time": 133.2,
        "duration": 0.72,
        "velocity": 1,
        "hand": "right"
      },
      {
        "midi": 63,
        "time": 134.4,
        "duration": 1.2,
        "velocity": 1,
        "hand": "right"
      },
      {
        "midi": 63,
        "time": 136.2,
        "duration": 0.72,
        "velocity": 1,
        "hand": "right"
      },
      {
        "midi": 63,
        "time": 138,
        "duration": 1.185,
        "velocity": 1,
        "hand": "right"
      },
      {
        "midi": 63,
        "time": 139.2,
        "duration": 1.785,
        "velocity": 1,
        "hand": "right"
      },
      {
        "midi": 56,
        "time": 140.4,
        "duration": 0.72,
        "velocity": 1,
        "hand": "right"
      },
      {
        "midi": 63,
        "time": 141.6,
        "duration": 1.185,
        "velocity": 1,
        "hand": "right"
      },
      {
        "midi": 63,
        "time": 142.8,
        "duration": 1.185,
        "velocity": 1,
        "hand": "right"
      },
      {
        "midi": 63,
        "time": 144,
        "duration": 1.785,
        "velocity": 1,
        "hand": "right"
      },
      {
        "midi": 56,
        "time": 145.2,
        "duration": 0.72,
        "velocity": 1,
        "hand": "right"
      },
      {
        "midi": 63,
        "time": 146.4,
        "duration": 1.185,
        "velocity": 1,
        "hand": "right"
      },
      {
        "midi": 63,
        "time": 147.6,
        "duration": 1.185,
        "velocity": 1,
        "hand": "right"
      },
      {
        "midi": 63,
        "time": 148.8,
        "duration": 1.785,
        "velocity": 1,
        "hand": "right"
      },
      {
        "midi": 63,
        "time": 150.6,
        "duration": 0.72,
        "velocity": 1,
        "hand": "right"
      },
      {
        "midi": 56,
        "time": 152.4,
        "duration": 1.185,
        "velocity": 1,
        "hand": "right"
      },
      {
        "midi": 63,
        "time": 153.6,
        "duration": 1.785,
        "velocity": 1,
        "hand": "right"
      },
      {
        "midi": 58,
        "time": 154.8,
        "duration": 0.72,
        "velocity": 1,
        "hand": "right"
      },
      {
        "midi": 63,
        "time": 156,
        "duration": 2.4,
        "velocity": 1,
        "hand": "right"
      },
      {
        "midi": 56,
        "time": 157.2,
        "duration": 0.72,
        "velocity": 1,
        "hand": "right"
      },
      {
        "midi": 56,
        "time": 158.4,
        "duration": 0.72,
        "velocity": 1,
        "hand": "right"
      },
      {
        "midi": 63,
        "time": 160.8,
        "duration": 0.72,
        "velocity": 1,
        "hand": "right"
      }
    ],
    "medium": [
      {
        "midi": 70,
        "time": 0,
        "duration": 0.42,
        "velocity": 1,
        "hand": "right"
      },
      {
        "midi": 58,
        "time": 0.9,
        "duration": 0.42,
        "velocity": 1,
        "hand": "left"
      },
      {
        "midi": 70,
        "time": 0.9,
        "duration": 0.42,
        "velocity": 1,
        "hand": "right"
      },
      {
        "midi": 70,
        "time": 1.8,
        "duration": 0.42,
        "velocity": 1,
        "hand": "right"
      },
      {
        "midi": 58,
        "time": 2.7,
        "duration": 0.42,
        "velocity": 1,
        "hand": "left"
      },
      {
        "midi": 70,
        "time": 2.7,
        "duration": 0.42,
        "velocity": 1,
        "hand": "right"
      },
      {
        "midi": 70,
        "time": 3.6,
        "duration": 0.42,
        "velocity": 1,
        "hand": "right"
      },
      {
        "midi": 72,
        "time": 4.5,
        "duration": 0.42,
        "velocity": 1,
        "hand": "right"
      },
      {
        "midi": 66,
        "time": 5.4,
        "duration": 0.42,
        "velocity": 1,
        "hand": "right"
      },
      {
        "midi": 70,
        "time": 5.4,
        "duration": 0.42,
        "velocity": 1,
        "hand": "right"
      },
      {
        "midi": 63,
        "time": 6.6,
        "duration": 0.42,
        "velocity": 1,
        "hand": "right"
      },
      {
        "midi": 60,
        "time": 7.5,
        "duration": 0.585,
        "velocity": 1,
        "hand": "right"
      },
      {
        "midi": 70,
        "time": 7.5,
        "duration": 0.42,
        "velocity": 1,
        "hand": "right"
      },
      {
        "midi": 69,
        "time": 8.4,
        "duration": 0.42,
        "velocity": 1,
        "hand": "right"
      },
      {
        "midi": 60,
        "time": 9.3,
        "duration": 0.42,
        "velocity": 1,
        "hand": "right"
      },
      {
        "midi": 69,
        "time": 9.3,
        "duration": 0.42,
        "velocity": 1,
        "hand": "right"
      },
      {
        "midi": 59,
        "time": 10.5,
        "duration": 0.42,
        "velocity": 1,
        "hand": "left"
      },
      {
        "midi": 68,
        "time": 10.5,
        "duration": 0.42,
        "velocity": 1,
        "hand": "right"
      },
      {
        "midi": 68,
        "time": 11.4,
        "duration": 0.42,
        "velocity": 1,
        "hand": "right"
      },
      {
        "midi": 58,
        "time": 12.3,
        "duration": 0.585,
        "velocity": 1,
        "hand": "left"
      },
      {
        "midi": 68,
        "time": 12.3,
        "duration": 0.42,
        "velocity": 1,
        "hand": "right"
      },
      {
        "midi": 60,
        "time": 13.5,
        "duration": 0.42,
        "velocity": 1,
        "hand": "right"
      },
      {
        "midi": 68,
        "time": 13.5,
        "duration": 0.42,
        "velocity": 1,
        "hand": "right"
      },
      {
        "midi": 58,
        "time": 14.4,
        "duration": 0.885,
        "velocity": 1,
        "hand": "left"
      },
      {
        "midi": 63,
        "time": 14.4,
        "duration": 0.585,
        "velocity": 1,
        "hand": "right"
      },
      {
        "midi": 58,
        "time": 15.3,
        "duration": 0.42,
        "velocity": 1,
        "hand": "left"
      },
      {
        "midi": 65,
        "time": 15.3,
        "duration": 0.42,
        "velocity": 1,
        "hand": "right"
      },
      {
        "midi": 54,
        "time": 16.5,
        "duration": 0.42,
        "velocity": 1,
        "hand": "left"
      },
      {
        "midi": 69,
        "time": 16.5,
        "duration": 0.42,
        "velocity": 1,
        "hand": "right"
      },
      {
        "midi": 70,
        "time": 17.7,
        "duration": 0.42,
        "velocity": 1,
        "hand": "right"
      },
      {
        "midi": 58,
        "time": 18.6,
        "duration": 0.6,
        "velocity": 1,
        "hand": "left"
      },
      {
        "midi": 72,
        "time": 18.6,
        "duration": 0.42,
        "velocity": 1,
        "hand": "right"
      },
      {
        "midi": 63,
        "time": 19.8,
        "duration": 0.42,
        "velocity": 1,
        "hand": "right"
      },
      {
        "midi": 67,
        "time": 19.8,
        "duration": 0.42,
        "velocity": 1,
        "hand": "right"
      },
      {
        "midi": 70,
        "time": 21,
        "duration": 0.42,
        "velocity": 1,
        "hand": "right"
      },
      {
        "midi": 70,
        "time": 22.2,
        "duration": 0.42,
        "velocity": 1,
        "hand": "right"
      },
      {
        "midi": 58,
        "time": 23.1,
        "duration": 0.42,
        "velocity": 1,
        "hand": "left"
      },
      {
        "midi": 67,
        "time": 23.1,
        "duration": 0.42,
        "velocity": 1,
        "hand": "right"
      },
      {
        "midi": 60,
        "time": 24.3,
        "duration": 0.585,
        "velocity": 1,
        "hand": "right"
      },
      {
        "midi": 70,
        "time": 24.3,
        "duration": 0.42,
        "velocity": 1,
        "hand": "right"
      },
      {
        "midi": 60,
        "time": 25.5,
        "duration": 0.585,
        "velocity": 1,
        "hand": "right"
      },
      {
        "midi": 69,
        "time": 25.5,
        "duration": 0.42,
        "velocity": 1,
        "hand": "right"
      },
      {
        "midi": 58,
        "time": 26.7,
        "duration": 0.585,
        "velocity": 1,
        "hand": "left"
      },
      {
        "midi": 72,
        "time": 26.7,
        "duration": 0.42,
        "velocity": 1,
        "hand": "right"
      },
      {
        "midi": 69,
        "time": 27.6,
        "duration": 1.2,
        "velocity": 1,
        "hand": "right"
      },
      {
        "midi": 74,
        "time": 28.8,
        "duration": 0.42,
        "velocity": 1,
        "hand": "right"
      },
      {
        "midi": 50,
        "time": 30,
        "duration": 0.585,
        "velocity": 1,
        "hand": "left"
      },
      {
        "midi": 65,
        "time": 30,
        "duration": 0.585,
        "velocity": 1,
        "hand": "right"
      },
      {
        "midi": 70,
        "time": 31.2,
        "duration": 0.42,
        "velocity": 1,
        "hand": "right"
      },
      {
        "midi": 58,
        "time": 32.1,
        "duration": 0.42,
        "velocity": 1,
        "hand": "left"
      },
      {
        "midi": 72,
        "time": 32.1,
        "duration": 0.42,
        "velocity": 1,
        "hand": "right"
      },
      {
        "midi": 75,
        "time": 33.3,
        "duration": 0.42,
        "velocity": 1,
        "hand": "right"
      },
      {
        "midi": 65,
        "time": 34.5,
        "duration": 0.42,
        "velocity": 1,
        "hand": "right"
      },
      {
        "midi": 74,
        "time": 34.5,
        "duration": 0.42,
        "velocity": 1,
        "hand": "right"
      },
      {
        "midi": 65,
        "time": 35.7,
        "duration": 0.42,
        "velocity": 1,
        "hand": "right"
      },
      {
        "midi": 72,
        "time": 35.7,
        "duration": 0.42,
        "velocity": 1,
        "hand": "right"
      },
      {
        "midi": 65,
        "time": 36.9,
        "duration": 0.42,
        "velocity": 1,
        "hand": "right"
      },
      {
        "midi": 77,
        "time": 36.9,
        "duration": 0.42,
        "velocity": 1,
        "hand": "right"
      },
      {
        "midi": 70,
        "time": 38.1,
        "duration": 0.42,
        "velocity": 1,
        "hand": "right"
      },
      {
        "midi": 82,
        "time": 38.1,
        "duration": 0.42,
        "velocity": 1,
        "hand": "right"
      },
      {
        "midi": 58,
        "time": 39.3,
        "duration": 0.42,
        "velocity": 1,
        "hand": "left"
      },
      {
        "midi": 74,
        "time": 39.3,
        "duration": 0.42,
        "velocity": 1,
        "hand": "right"
      },
      {
        "midi": 74,
        "time": 40.2,
        "duration": 0.42,
        "velocity": 1,
        "hand": "right"
      },
      {
        "midi": 58,
        "time": 41.4,
        "duration": 0.6,
        "velocity": 1,
        "hand": "left"
      },
      {
        "midi": 70,
        "time": 41.4,
        "duration": 0.42,
        "velocity": 1,
        "hand": "right"
      },
      {
        "midi": 58,
        "time": 42.6,
        "duration": 0.6,
        "velocity": 1,
        "hand": "left"
      },
      {
        "midi": 67,
        "time": 42.6,
        "duration": 0.42,
        "velocity": 1,
        "hand": "right"
      },
      {
        "midi": 70,
        "time": 43.8,
        "duration": 0.42,
        "velocity": 1,
        "hand": "right"
      },
      {
        "midi": 58,
        "time": 44.7,
        "duration": 0.42,
        "velocity": 1,
        "hand": "left"
      },
      {
        "midi": 70,
        "time": 44.7,
        "duration": 0.42,
        "velocity": 1,
        "hand": "right"
      },
      {
        "midi": 58,
        "time": 45.9,
        "duration": 0.42,
        "velocity": 1,
        "hand": "left"
      },
      {
        "midi": 70,
        "time": 45.9,
        "duration": 0.42,
        "velocity": 1,
        "hand": "right"
      },
      {
        "midi": 58,
        "time": 47.1,
        "duration": 0.42,
        "velocity": 1,
        "hand": "left"
      },
      {
        "midi": 70,
        "time": 47.1,
        "duration": 0.42,
        "velocity": 1,
        "hand": "right"
      },
      {
        "midi": 58,
        "time": 48.3,
        "duration": 0.585,
        "velocity": 1,
        "hand": "left"
      },
      {
        "midi": 72,
        "time": 48.3,
        "duration": 0.42,
        "velocity": 1,
        "hand": "right"
      },
      {
        "midi": 72,
        "time": 49.2,
        "duration": 0.42,
        "velocity": 1,
        "hand": "right"
      },
      {
        "midi": 78,
        "time": 50.4,
        "duration": 1.2,
        "velocity": 1,
        "hand": "right"
      },
      {
        "midi": 77,
        "time": 51.6,
        "duration": 0.6,
        "velocity": 1,
        "hand": "right"
      },
      {
        "midi": 80,
        "time": 52.8,
        "duration": 1.2,
        "velocity": 1,
        "hand": "right"
      },
      {
        "midi": 56,
        "time": 53.7,
        "duration": 0.42,
        "velocity": 1,
        "hand": "left"
      },
      {
        "midi": 71,
        "time": 53.7,
        "duration": 0.42,
        "velocity": 1,
        "hand": "right"
      },
      {
        "midi": 56,
        "time": 54.9,
        "duration": 0.42,
        "velocity": 1,
        "hand": "left"
      },
      {
        "midi": 71,
        "time": 54.9,
        "duration": 0.42,
        "velocity": 1,
        "hand": "right"
      },
      {
        "midi": 55,
        "time": 56.1,
        "duration": 0.42,
        "velocity": 1,
        "hand": "left"
      },
      {
        "midi": 67,
        "time": 56.1,
        "duration": 0.42,
        "velocity": 1,
        "hand": "right"
      },
      {
        "midi": 53,
        "time": 57.3,
        "duration": 0.42,
        "velocity": 1,
        "hand": "left"
      },
      {
        "midi": 68,
        "time": 57.3,
        "duration": 0.42,
        "velocity": 1,
        "hand": "right"
      },
      {
        "midi": 58,
        "time": 58.2,
        "duration": 0.42,
        "velocity": 1,
        "hand": "left"
      },
      {
        "midi": 67,
        "time": 58.2,
        "duration": 0.42,
        "velocity": 1,
        "hand": "right"
      },
      {
        "midi": 62,
        "time": 59.4,
        "duration": 0.42,
        "velocity": 1,
        "hand": "right"
      },
      {
        "midi": 65,
        "time": 59.4,
        "duration": 0.42,
        "velocity": 1,
        "hand": "right"
      },
      {
        "midi": 58,
        "time": 60.6,
        "duration": 0.585,
        "velocity": 1,
        "hand": "left"
      },
      {
        "midi": 72,
        "time": 60.6,
        "duration": 0.42,
        "velocity": 1,
        "hand": "right"
      },
      {
        "midi": 58,
        "time": 61.8,
        "duration": 0.6,
        "velocity": 1,
        "hand": "left"
      },
      {
        "midi": 72,
        "time": 61.8,
        "duration": 0.42,
        "velocity": 1,
        "hand": "right"
      },
      {
        "midi": 58,
        "time": 62.7,
        "duration": 0.42,
        "velocity": 1,
        "hand": "left"
      },
      {
        "midi": 70,
        "time": 62.7,
        "duration": 0.42,
        "velocity": 1,
        "hand": "right"
      },
      {
        "midi": 58,
        "time": 63.9,
        "duration": 0.42,
        "velocity": 1,
        "hand": "left"
      },
      {
        "midi": 70,
        "time": 63.9,
        "duration": 0.42,
        "velocity": 1,
        "hand": "right"
      },
      {
        "midi": 58,
        "time": 65.1,
        "duration": 0.42,
        "velocity": 1,
        "hand": "left"
      },
      {
        "midi": 70,
        "time": 65.1,
        "duration": 0.42,
        "velocity": 1,
        "hand": "right"
      },
      {
        "midi": 70,
        "time": 66,
        "duration": 0.42,
        "velocity": 1,
        "hand": "right"
      },
      {
        "midi": 67,
        "time": 66.9,
        "duration": 0.42,
        "velocity": 1,
        "hand": "right"
      },
      {
        "midi": 58,
        "time": 68.1,
        "duration": 0.42,
        "velocity": 1,
        "hand": "left"
      },
      {
        "midi": 72,
        "time": 68.1,
        "duration": 0.42,
        "velocity": 1,
        "hand": "right"
      },
      {
        "midi": 60,
        "time": 69,
        "duration": 0.42,
        "velocity": 1,
        "hand": "right"
      },
      {
        "midi": 66,
        "time": 69,
        "duration": 0.42,
        "velocity": 1,
        "hand": "right"
      },
      {
        "midi": 58,
        "time": 69.9,
        "duration": 0.585,
        "velocity": 1,
        "hand": "left"
      },
      {
        "midi": 72,
        "time": 69.9,
        "duration": 0.42,
        "velocity": 1,
        "hand": "right"
      },
      {
        "midi": 57,
        "time": 71.1,
        "duration": 0.585,
        "velocity": 1,
        "hand": "left"
      },
      {
        "midi": 72,
        "time": 71.1,
        "duration": 0.42,
        "velocity": 1,
        "hand": "right"
      },
      {
        "midi": 77,
        "time": 72,
        "duration": 0.885,
        "velocity": 1,
        "hand": "right"
      },
      {
        "midi": 77,
        "time": 72.9,
        "duration": 0.42,
        "velocity": 1,
        "hand": "right"
      },
      {
        "midi": 62,
        "time": 74.1,
        "duration": 0.42,
        "velocity": 1,
        "hand": "right"
      },
      {
        "midi": 77,
        "time": 74.1,
        "duration": 0.42,
        "velocity": 1,
        "hand": "right"
      },
      {
        "midi": 79,
        "time": 75,
        "duration": 0.42,
        "velocity": 1,
        "hand": "right"
      },
      {
        "midi": 70,
        "time": 75.9,
        "duration": 0.42,
        "velocity": 1,
        "hand": "right"
      },
      {
        "midi": 77,
        "time": 75.9,
        "duration": 0.42,
        "velocity": 1,
        "hand": "right"
      },
      {
        "midi": 65,
        "time": 77.1,
        "duration": 0.585,
        "velocity": 1,
        "hand": "right"
      },
      {
        "midi": 74,
        "time": 77.1,
        "duration": 0.42,
        "velocity": 1,
        "hand": "right"
      },
      {
        "midi": 77,
        "time": 78,
        "duration": 1.185,
        "velocity": 1,
        "hand": "right"
      },
      {
        "midi": 65,
        "time": 78.9,
        "duration": 0.42,
        "velocity": 1,
        "hand": "right"
      },
      {
        "midi": 72,
        "time": 78.9,
        "duration": 0.42,
        "velocity": 1,
        "hand": "right"
      },
      {
        "midi": 65,
        "time": 80.1,
        "duration": 0.42,
        "velocity": 1,
        "hand": "right"
      },
      {
        "midi": 77,
        "time": 80.1,
        "duration": 0.42,
        "velocity": 1,
        "hand": "right"
      },
      {
        "midi": 82,
        "time": 81,
        "duration": 0.42,
        "velocity": 1,
        "hand": "right"
      },
      {
        "midi": 82,
        "time": 81.9,
        "duration": 0.42,
        "velocity": 1,
        "hand": "right"
      },
      {
        "midi": 60,
        "time": 83.1,
        "duration": 0.585,
        "velocity": 1,
        "hand": "right"
      },
      {
        "midi": 75,
        "time": 83.1,
        "duration": 0.42,
        "velocity": 1,
        "hand": "right"
      },
      {
        "midi": 77,
        "time": 84,
        "duration": 0.6,
        "velocity": 1,
        "hand": "right"
      },
      {
        "midi": 53,
        "time": 84.9,
        "duration": 0.42,
        "velocity": 1,
        "hand": "left"
      },
      {
        "midi": 62,
        "time": 84.9,
        "duration": 0.42,
        "velocity": 1,
        "hand": "right"
      },
      {
        "midi": 62,
        "time": 86.1,
        "duration": 0.42,
        "velocity": 1,
        "hand": "right"
      },
      {
        "midi": 70,
        "time": 86.1,
        "duration": 0.42,
        "velocity": 1,
        "hand": "right"
      },
      {
        "midi": 66,
        "time": 87,
        "duration": 0.42,
        "velocity": 1,
        "hand": "right"
      },
      {
        "midi": 61,
        "time": 87.9,
        "duration": 0.42,
        "velocity": 1,
        "hand": "right"
      },
      {
        "midi": 70,
        "time": 87.9,
        "duration": 0.42,
        "velocity": 1,
        "hand": "right"
      },
      {
        "midi": 61,
        "time": 89.1,
        "duration": 0.585,
        "velocity": 1,
        "hand": "right"
      },
      {
        "midi": 73,
        "time": 89.1,
        "duration": 0.42,
        "velocity": 1,
        "hand": "right"
      },
      {
        "midi": 56,
        "time": 90,
        "duration": 0.6,
        "velocity": 1,
        "hand": "left"
      },
      {
        "midi": 71,
        "time": 90,
        "duration": 0.42,
        "velocity": 1,
        "hand": "right"
      },
      {
        "midi": 61,
        "time": 90.9,
        "duration": 0.42,
        "velocity": 1,
        "hand": "right"
      },
      {
        "midi": 71,
        "time": 90.9,
        "duration": 0.42,
        "velocity": 1,
        "hand": "right"
      },
      {
        "midi": 61,
        "time": 92.1,
        "duration": 0.42,
        "velocity": 1,
        "hand": "right"
      },
      {
        "midi": 70,
        "time": 92.1,
        "duration": 0.42,
        "velocity": 1,
        "hand": "right"
      },
      {
        "midi": 78,
        "time": 93,
        "duration": 0.42,
        "velocity": 1,
        "hand": "right"
      },
      {
        "midi": 61,
        "time": 93.9,
        "duration": 0.585,
        "velocity": 1,
        "hand": "right"
      },
      {
        "midi": 70,
        "time": 93.9,
        "duration": 0.42,
        "velocity": 1,
        "hand": "right"
      },
      {
        "midi": 83,
        "time": 95.1,
        "duration": 0.42,
        "velocity": 1,
        "hand": "right"
      },
      {
        "midi": 78,
        "time": 96,
        "duration": 3,
        "velocity": 1,
        "hand": "right"
      },
      {
        "midi": 58,
        "time": 96.9,
        "duration": 0.42,
        "velocity": 1,
        "hand": "left"
      },
      {
        "midi": 66,
        "time": 96.9,
        "duration": 0.42,
        "velocity": 1,
        "hand": "right"
      },
      {
        "midi": 58,
        "time": 98.1,
        "duration": 0.42,
        "velocity": 1,
        "hand": "left"
      },
      {
        "midi": 66,
        "time": 98.1,
        "duration": 0.42,
        "velocity": 1,
        "hand": "right"
      },
      {
        "midi": 59,
        "time": 99,
        "duration": 0.6,
        "velocity": 1,
        "hand": "left"
      },
      {
        "midi": 75,
        "time": 99,
        "duration": 0.42,
        "velocity": 1,
        "hand": "right"
      },
      {
        "midi": 56,
        "time": 100.2,
        "duration": 0.6,
        "velocity": 1,
        "hand": "left"
      },
      {
        "midi": 71,
        "time": 100.2,
        "duration": 0.6,
        "velocity": 1,
        "hand": "right"
      },
      {
        "midi": 66,
        "time": 101.4,
        "duration": 0.42,
        "velocity": 1,
        "hand": "right"
      },
      {
        "midi": 70,
        "time": 102.6,
        "duration": 0.42,
        "velocity": 1,
        "hand": "right"
      },
      {
        "midi": 61,
        "time": 103.5,
        "duration": 0.42,
        "velocity": 1,
        "hand": "right"
      },
      {
        "midi": 70,
        "time": 103.5,
        "duration": 0.42,
        "velocity": 1,
        "hand": "right"
      },
      {
        "midi": 73,
        "time": 104.4,
        "duration": 0.6,
        "velocity": 1,
        "hand": "right"
      },
      {
        "midi": 54,
        "time": 105.6,
        "duration": 0.6,
        "velocity": 1,
        "hand": "left"
      },
      {
        "midi": 70,
        "time": 105.6,
        "duration": 0.42,
        "velocity": 1,
        "hand": "right"
      },
      {
        "midi": 61,
        "time": 106.5,
        "duration": 0.42,
        "velocity": 1,
        "hand": "right"
      },
      {
        "midi": 70,
        "time": 106.5,
        "duration": 0.42,
        "velocity": 1,
        "hand": "right"
      },
      {
        "midi": 54,
        "time": 107.4,
        "duration": 0.6,
        "velocity": 1,
        "hand": "left"
      },
      {
        "midi": 70,
        "time": 107.4,
        "duration": 0.42,
        "velocity": 1,
        "hand": "right"
      },
      {
        "midi": 65,
        "time": 108.6,
        "duration": 0.42,
        "velocity": 1,
        "hand": "right"
      },
      {
        "midi": 80,
        "time": 109.5,
        "duration": 0.42,
        "velocity": 1,
        "hand": "right"
      },
      {
        "midi": 54,
        "time": 110.4,
        "duration": 0.6,
        "velocity": 1,
        "hand": "left"
      },
      {
        "midi": 70,
        "time": 110.4,
        "duration": 0.42,
        "velocity": 1,
        "hand": "right"
      },
      {
        "midi": 42,
        "time": 111.6,
        "duration": 0.6,
        "velocity": 1,
        "hand": "left"
      },
      {
        "midi": 58,
        "time": 112.5,
        "duration": 0.42,
        "velocity": 1,
        "hand": "left"
      },
      {
        "midi": 70,
        "time": 112.5,
        "duration": 0.42,
        "velocity": 1,
        "hand": "right"
      },
      {
        "midi": 63,
        "time": 113.4,
        "duration": 0.42,
        "velocity": 1,
        "hand": "right"
      },
      {
        "midi": 68,
        "time": 113.4,
        "duration": 0.42,
        "velocity": 1,
        "hand": "right"
      },
      {
        "midi": 80,
        "time": 114.6,
        "duration": 0.42,
        "velocity": 1,
        "hand": "right"
      },
      {
        "midi": 75,
        "time": 115.5,
        "duration": 0.42,
        "velocity": 1,
        "hand": "right"
      },
      {
        "midi": 55,
        "time": 116.4,
        "duration": 1.2,
        "velocity": 1,
        "hand": "left"
      },
      {
        "midi": 70,
        "time": 116.4,
        "duration": 0.42,
        "velocity": 1,
        "hand": "right"
      },
      {
        "midi": 75,
        "time": 117.6,
        "duration": 0.42,
        "velocity": 1,
        "hand": "right"
      },
      {
        "midi": 71,
        "time": 118.5,
        "duration": 0.42,
        "velocity": 1,
        "hand": "right"
      },
      {
        "midi": 74,
        "time": 118.5,
        "duration": 0.42,
        "velocity": 1,
        "hand": "right"
      },
      {
        "midi": 80,
        "time": 119.4,
        "duration": 0.6,
        "velocity": 1,
        "hand": "right"
      },
      {
        "midi": 67,
        "time": 120.6,
        "duration": 0.42,
        "velocity": 1,
        "hand": "right"
      },
      {
        "midi": 70,
        "time": 120.6,
        "duration": 0.42,
        "velocity": 1,
        "hand": "right"
      },
      {
        "midi": 74,
        "time": 121.5,
        "duration": 0.42,
        "velocity": 1,
        "hand": "right"
      },
      {
        "midi": 75,
        "time": 122.4,
        "duration": 1.2,
        "velocity": 1,
        "hand": "right"
      },
      {
        "midi": 79,
        "time": 123.6,
        "duration": 0.585,
        "velocity": 1,
        "hand": "right"
      },
      {
        "midi": 79,
        "time": 124.8,
        "duration": 1.185,
        "velocity": 1,
        "hand": "right"
      },
      {
        "midi": 55,
        "time": 125.7,
        "duration": 0.42,
        "velocity": 1,
        "hand": "left"
      },
      {
        "midi": 62,
        "time": 125.7,
        "duration": 0.42,
        "velocity": 1,
        "hand": "right"
      },
      {
        "midi": 78,
        "time": 126.9,
        "duration": 0.42,
        "velocity": 1,
        "hand": "right"
      },
      {
        "midi": 77,
        "time": 128.1,
        "duration": 0.42,
        "velocity": 1,
        "hand": "right"
      },
      {
        "midi": 77,
        "time": 129,
        "duration": 0.42,
        "velocity": 1,
        "hand": "right"
      },
      {
        "midi": 58,
        "time": 129.9,
        "duration": 0.42,
        "velocity": 1,
        "hand": "left"
      },
      {
        "midi": 67,
        "time": 129.9,
        "duration": 0.42,
        "velocity": 1,
        "hand": "right"
      },
      {
        "midi": 77,
        "time": 130.8,
        "duration": 1.2,
        "velocity": 1,
        "hand": "right"
      },
      {
        "midi": 75,
        "time": 132,
        "duration": 2.4,
        "velocity": 1,
        "hand": "right"
      },
      {
        "midi": 58,
        "time": 132.9,
        "duration": 0.42,
        "velocity": 1,
        "hand": "left"
      },
      {
        "midi": 70,
        "time": 132.9,
        "duration": 0.42,
        "velocity": 1,
        "hand": "right"
      },
      {
        "midi": 56,
        "time": 133.8,
        "duration": 0.585,
        "velocity": 1,
        "hand": "left"
      },
      {
        "midi": 63,
        "time": 133.8,
        "duration": 0.585,
        "velocity": 1,
        "hand": "right"
      },
      {
        "midi": 39,
        "time": 136.2,
        "duration": 0.585,
        "velocity": 1,
        "hand": "left"
      },
      {
        "midi": 51,
        "time": 136.2,
        "duration": 0.585,
        "velocity": 1,
        "hand": "left"
      },
      {
        "midi": 39,
        "time": 138,
        "duration": 1.185,
        "velocity": 1,
        "hand": "left"
      },
      {
        "midi": 51,
        "time": 138,
        "duration": 1.185,
        "velocity": 1,
        "hand": "left"
      },
      {
        "midi": 51,
        "time": 139.2,
        "duration": 3.5,
        "velocity": 1,
        "hand": "left"
      },
      {
        "midi": 63,
        "time": 139.2,
        "duration": 1.785,
        "velocity": 1,
        "hand": "right"
      },
      {
        "midi": 44,
        "time": 140.1,
        "duration": 0.42,
        "velocity": 1,
        "hand": "left"
      },
      {
        "midi": 56,
        "time": 141,
        "duration": 0.42,
        "velocity": 1,
        "hand": "left"
      },
      {
        "midi": 63,
        "time": 141,
        "duration": 0.585,
        "velocity": 1,
        "hand": "right"
      },
      {
        "midi": 51,
        "time": 142.8,
        "duration": 0.6,
        "velocity": 1,
        "hand": "left"
      },
      {
        "midi": 63,
        "time": 142.8,
        "duration": 1.185,
        "velocity": 1,
        "hand": "right"
      },
      {
        "midi": 51,
        "time": 144,
        "duration": 3.5,
        "velocity": 1,
        "hand": "left"
      },
      {
        "midi": 63,
        "time": 144,
        "duration": 1.785,
        "velocity": 1,
        "hand": "right"
      },
      {
        "midi": 44,
        "time": 144.9,
        "duration": 0.42,
        "velocity": 1,
        "hand": "left"
      },
      {
        "midi": 56,
        "time": 145.8,
        "duration": 0.42,
        "velocity": 1,
        "hand": "left"
      },
      {
        "midi": 63,
        "time": 145.8,
        "duration": 0.585,
        "velocity": 1,
        "hand": "right"
      },
      {
        "midi": 51,
        "time": 147.6,
        "duration": 0.6,
        "velocity": 1,
        "hand": "left"
      },
      {
        "midi": 63,
        "time": 147.6,
        "duration": 1.185,
        "velocity": 1,
        "hand": "right"
      },
      {
        "midi": 47,
        "time": 148.8,
        "duration": 1.785,
        "velocity": 1,
        "hand": "left"
      },
      {
        "midi": 63,
        "time": 148.8,
        "duration": 1.785,
        "velocity": 1,
        "hand": "right"
      },
      {
        "midi": 47,
        "time": 150.6,
        "duration": 0.6,
        "velocity": 1,
        "hand": "left"
      },
      {
        "midi": 63,
        "time": 150.6,
        "duration": 0.585,
        "velocity": 1,
        "hand": "right"
      },
      {
        "midi": 44,
        "time": 152.4,
        "duration": 1.185,
        "velocity": 1,
        "hand": "left"
      },
      {
        "midi": 56,
        "time": 152.4,
        "duration": 1.185,
        "velocity": 1,
        "hand": "left"
      },
      {
        "midi": 51,
        "time": 153.6,
        "duration": 3.5,
        "velocity": 1,
        "hand": "left"
      },
      {
        "midi": 63,
        "time": 153.6,
        "duration": 1.785,
        "velocity": 1,
        "hand": "right"
      },
      {
        "midi": 44,
        "time": 154.5,
        "duration": 0.42,
        "velocity": 1,
        "hand": "left"
      },
      {
        "midi": 56,
        "time": 155.4,
        "duration": 0.42,
        "velocity": 1,
        "hand": "left"
      },
      {
        "midi": 63,
        "time": 155.4,
        "duration": 0.585,
        "velocity": 1,
        "hand": "right"
      },
      {
        "midi": 44,
        "time": 156.3,
        "duration": 0.42,
        "velocity": 1,
        "hand": "left"
      },
      {
        "midi": 44,
        "time": 157.5,
        "duration": 0.42,
        "velocity": 1,
        "hand": "left"
      },
      {
        "midi": 44,
        "time": 158.4,
        "duration": 0.42,
        "velocity": 1,
        "hand": "left"
      },
      {
        "midi": 51,
        "time": 160.8,
        "duration": 0.42,
        "velocity": 1,
        "hand": "left"
      }
    ],
    "hard": [
      {
        "midi": 51,
        "time": 0,
        "duration": 1.185,
        "velocity": 1,
        "hand": "left"
      },
      {
        "midi": 58,
        "time": 0,
        "duration": 0.285,
        "velocity": 1,
        "hand": "left"
      },
      {
        "midi": 67,
        "time": 0,
        "duration": 0.285,
        "velocity": 1,
        "hand": "right"
      },
      {
        "midi": 70,
        "time": 0,
        "duration": 0.285,
        "velocity": 1,
        "hand": "right"
      },
      {
        "midi": 58,
        "time": 0.3,
        "duration": 0.585,
        "velocity": 1,
        "hand": "left"
      },
      {
        "midi": 67,
        "time": 0.3,
        "duration": 0.285,
        "velocity": 1,
        "hand": "right"
      },
      {
        "midi": 70,
        "time": 0.3,
        "duration": 0.3,
        "velocity": 1,
        "hand": "right"
      },
      {
        "midi": 63,
        "time": 0.6,
        "duration": 0.3,
        "velocity": 1,
        "hand": "right"
      },
      {
        "midi": 67,
        "time": 0.6,
        "duration": 0.285,
        "velocity": 1,
        "hand": "right"
      },
      {
        "midi": 58,
        "time": 0.9,
        "duration": 0.3,
        "velocity": 1,
        "hand": "left"
      },
      {
        "midi": 67,
        "time": 0.9,
        "duration": 0.3,
        "velocity": 1,
        "hand": "right"
      },
      {
        "midi": 70,
        "time": 0.9,
        "duration": 0.3,
        "velocity": 1,
        "hand": "right"
      },
      {
        "midi": 51,
        "time": 1.2,
        "duration": 0.585,
        "velocity": 1,
        "hand": "left"
      },
      {
        "midi": 58,
        "time": 1.5,
        "duration": 0.285,
        "velocity": 1,
        "hand": "left"
      },
      {
        "midi": 67,
        "time": 1.5,
        "duration": 0.285,
        "velocity": 1,
        "hand": "right"
      },
      {
        "midi": 70,
        "time": 1.5,
        "duration": 0.285,
        "velocity": 1,
        "hand": "right"
      },
      {
        "midi": 51,
        "time": 1.8,
        "duration": 0.585,
        "velocity": 1,
        "hand": "left"
      },
      {
        "midi": 58,
        "time": 1.8,
        "duration": 0.285,
        "velocity": 1,
        "hand": "left"
      },
      {
        "midi": 63,
        "time": 1.8,
        "duration": 0.3,
        "velocity": 1,
        "hand": "right"
      },
      {
        "midi": 67,
        "time": 1.8,
        "duration": 0.285,
        "velocity": 1,
        "hand": "right"
      },
      {
        "midi": 70,
        "time": 1.8,
        "duration": 0.285,
        "velocity": 1,
        "hand": "right"
      },
      {
        "midi": 58,
        "time": 2.1,
        "duration": 0.285,
        "velocity": 1,
        "hand": "left"
      },
      {
        "midi": 67,
        "time": 2.1,
        "duration": 0.285,
        "velocity": 1,
        "hand": "right"
      },
      {
        "midi": 70,
        "time": 2.1,
        "duration": 0.285,
        "velocity": 1,
        "hand": "right"
      },
      {
        "midi": 51,
        "time": 2.4,
        "duration": 0.585,
        "velocity": 1,
        "hand": "left"
      },
      {
        "midi": 58,
        "time": 2.4,
        "duration": 0.285,
        "velocity": 1,
        "hand": "left"
      },
      {
        "midi": 67,
        "time": 2.4,
        "duration": 0.285,
        "velocity": 1,
        "hand": "right"
      },
      {
        "midi": 70,
        "time": 2.4,
        "duration": 0.285,
        "velocity": 1,
        "hand": "right"
      },
      {
        "midi": 58,
        "time": 2.7,
        "duration": 0.285,
        "velocity": 1,
        "hand": "left"
      },
      {
        "midi": 67,
        "time": 2.7,
        "duration": 0.285,
        "velocity": 1,
        "hand": "right"
      },
      {
        "midi": 70,
        "time": 2.7,
        "duration": 0.285,
        "velocity": 1,
        "hand": "right"
      },
      {
        "midi": 51,
        "time": 3,
        "duration": 0.585,
        "velocity": 1,
        "hand": "left"
      },
      {
        "midi": 58,
        "time": 3,
        "duration": 0.285,
        "velocity": 1,
        "hand": "left"
      },
      {
        "midi": 63,
        "time": 3,
        "duration": 0.3,
        "velocity": 1,
        "hand": "right"
      },
      {
        "midi": 67,
        "time": 3,
        "duration": 0.285,
        "velocity": 1,
        "hand": "right"
      },
      {
        "midi": 70,
        "time": 3,
        "duration": 0.285,
        "velocity": 1,
        "hand": "right"
      },
      {
        "midi": 58,
        "time": 3.3,
        "duration": 0.285,
        "velocity": 1,
        "hand": "left"
      },
      {
        "midi": 67,
        "time": 3.3,
        "duration": 0.285,
        "velocity": 1,
        "hand": "right"
      },
      {
        "midi": 70,
        "time": 3.3,
        "duration": 0.285,
        "velocity": 1,
        "hand": "right"
      },
      {
        "midi": 51,
        "time": 3.6,
        "duration": 0.585,
        "velocity": 1,
        "hand": "left"
      },
      {
        "midi": 58,
        "time": 3.6,
        "duration": 0.6,
        "velocity": 1,
        "hand": "left"
      },
      {
        "midi": 67,
        "time": 3.6,
        "duration": 0.285,
        "velocity": 1,
        "hand": "right"
      },
      {
        "midi": 70,
        "time": 3.6,
        "duration": 0.285,
        "velocity": 1,
        "hand": "right"
      },
      {
        "midi": 55,
        "time": 3.9,
        "duration": 0.285,
        "velocity": 1,
        "hand": "left"
      },
      {
        "midi": 67,
        "time": 3.9,
        "duration": 0.285,
        "velocity": 1,
        "hand": "right"
      },
      {
        "midi": 70,
        "time": 3.9,
        "duration": 0.3,
        "velocity": 1,
        "hand": "right"
      },
      {
        "midi": 51,
        "time": 4.2,
        "duration": 0.585,
        "velocity": 1,
        "hand": "left"
      },
      {
        "midi": 55,
        "time": 4.2,
        "duration": 0.285,
        "velocity": 1,
        "hand": "left"
      },
      {
        "midi": 63,
        "time": 4.2,
        "duration": 0.3,
        "velocity": 1,
        "hand": "right"
      },
      {
        "midi": 67,
        "time": 4.2,
        "duration": 0.285,
        "velocity": 1,
        "hand": "right"
      },
      {
        "midi": 72,
        "time": 4.2,
        "duration": 0.285,
        "velocity": 1,
        "hand": "right"
      },
      {
        "midi": 55,
        "time": 4.5,
        "duration": 0.3,
        "velocity": 1,
        "hand": "left"
      },
      {
        "midi": 67,
        "time": 4.5,
        "duration": 0.3,
        "velocity": 1,
        "hand": "right"
      },
      {
        "midi": 72,
        "time": 4.5,
        "duration": 0.3,
        "velocity": 1,
        "hand": "right"
      },
      {
        "midi": 51,
        "time": 4.8,
        "duration": 1.185,
        "velocity": 1,
        "hand": "left"
      },
      {
        "midi": 60,
        "time": 4.8,
        "duration": 0.285,
        "velocity": 1,
        "hand": "right"
      },
      {
        "midi": 66,
        "time": 4.8,
        "duration": 0.285,
        "velocity": 1,
        "hand": "right"
      },
      {
        "midi": 70,
        "time": 4.8,
        "duration": 0.285,
        "velocity": 1,
        "hand": "right"
      },
      {
        "midi": 60,
        "time": 5.1,
        "duration": 0.585,
        "velocity": 1,
        "hand": "right"
      },
      {
        "midi": 66,
        "time": 5.1,
        "duration": 0.285,
        "velocity": 1,
        "hand": "right"
      },
      {
        "midi": 70,
        "time": 5.1,
        "duration": 0.285,
        "velocity": 1,
        "hand": "right"
      },
      {
        "midi": 66,
        "time": 5.4,
        "duration": 0.285,
        "velocity": 1,
        "hand": "right"
      },
      {
        "midi": 70,
        "time": 5.4,
        "duration": 0.285,
        "velocity": 1,
        "hand": "right"
      },
      {
        "midi": 60,
        "time": 5.7,
        "duration": 0.285,
        "velocity": 1,
        "hand": "right"
      },
      {
        "midi": 66,
        "time": 5.7,
        "duration": 0.285,
        "velocity": 1,
        "hand": "right"
      },
      {
        "midi": 70,
        "time": 5.7,
        "duration": 0.3,
        "velocity": 1,
        "hand": "right"
      },
      {
        "midi": 51,
        "time": 6,
        "duration": 1.185,
        "velocity": 1,
        "hand": "left"
      },
      {
        "midi": 60,
        "time": 6,
        "duration": 0.285,
        "velocity": 1,
        "hand": "right"
      },
      {
        "midi": 66,
        "time": 6,
        "duration": 0.285,
        "velocity": 1,
        "hand": "right"
      },
      {
        "midi": 69,
        "time": 6,
        "duration": 0.285,
        "velocity": 1,
        "hand": "right"
      },
      {
        "midi": 60,
        "time": 6.3,
        "duration": 0.585,
        "velocity": 1,
        "hand": "right"
      },
      {
        "midi": 66,
        "time": 6.3,
        "duration": 0.3,
        "velocity": 1,
        "hand": "right"
      },
      {
        "midi": 69,
        "time": 6.3,
        "duration": 0.3,
        "velocity": 1,
        "hand": "right"
      },
      {
        "midi": 63,
        "time": 6.6,
        "duration": 0.3,
        "velocity": 1,
        "hand": "right"
      },
      {
        "midi": 60,
        "time": 6.9,
        "duration": 0.285,
        "velocity": 1,
        "hand": "right"
      },
      {
        "midi": 66,
        "time": 6.9,
        "duration": 0.285,
        "velocity": 1,
        "hand": "right"
      },
      {
        "midi": 69,
        "time": 6.9,
        "duration": 0.3,
        "velocity": 1,
        "hand": "right"
      },
      {
        "midi": 51,
        "time": 7.2,
        "duration": 1.185,
        "velocity": 1,
        "hand": "left"
      },
      {
        "midi": 60,
        "time": 7.2,
        "duration": 0.285,
        "velocity": 1,
        "hand": "right"
      },
      {
        "midi": 66,
        "time": 7.2,
        "duration": 0.285,
        "velocity": 1,
        "hand": "right"
      },
      {
        "midi": 70,
        "time": 7.2,
        "duration": 0.285,
        "velocity": 1,
        "hand": "right"
      },
      {
        "midi": 60,
        "time": 7.5,
        "duration": 0.585,
        "velocity": 1,
        "hand": "right"
      },
      {
        "midi": 66,
        "time": 7.5,
        "duration": 0.285,
        "velocity": 1,
        "hand": "right"
      },
      {
        "midi": 70,
        "time": 7.5,
        "duration": 0.285,
        "velocity": 1,
        "hand": "right"
      },
      {
        "midi": 66,
        "time": 7.8,
        "duration": 0.285,
        "velocity": 1,
        "hand": "right"
      },
      {
        "midi": 70,
        "time": 7.8,
        "duration": 0.285,
        "velocity": 1,
        "hand": "right"
      },
      {
        "midi": 60,
        "time": 8.1,
        "duration": 0.285,
        "velocity": 1,
        "hand": "right"
      },
      {
        "midi": 66,
        "time": 8.1,
        "duration": 0.285,
        "velocity": 1,
        "hand": "right"
      },
      {
        "midi": 70,
        "time": 8.1,
        "duration": 0.3,
        "velocity": 1,
        "hand": "right"
      },
      {
        "midi": 51,
        "time": 8.4,
        "duration": 1.2,
        "velocity": 1,
        "hand": "left"
      },
      {
        "midi": 60,
        "time": 8.4,
        "duration": 0.285,
        "velocity": 1,
        "hand": "right"
      },
      {
        "midi": 66,
        "time": 8.4,
        "duration": 0.285,
        "velocity": 1,
        "hand": "right"
      },
      {
        "midi": 69,
        "time": 8.4,
        "duration": 0.285,
        "velocity": 1,
        "hand": "right"
      },
      {
        "midi": 60,
        "time": 8.7,
        "duration": 0.585,
        "velocity": 1,
        "hand": "right"
      },
      {
        "midi": 66,
        "time": 8.7,
        "duration": 0.3,
        "velocity": 1,
        "hand": "right"
      },
      {
        "midi": 69,
        "time": 8.7,
        "duration": 0.3,
        "velocity": 1,
        "hand": "right"
      },
      {
        "midi": 63,
        "time": 9,
        "duration": 0.3,
        "velocity": 1,
        "hand": "right"
      },
      {
        "midi": 60,
        "time": 9.3,
        "duration": 0.3,
        "velocity": 1,
        "hand": "right"
      },
      {
        "midi": 66,
        "time": 9.3,
        "duration": 0.3,
        "velocity": 1,
        "hand": "right"
      },
      {
        "midi": 69,
        "time": 9.3,
        "duration": 0.3,
        "velocity": 1,
        "hand": "right"
      },
      {
        "midi": 50,
        "time": 9.6,
        "duration": 1.185,
        "velocity": 1,
        "hand": "left"
      },
      {
        "midi": 59,
        "time": 9.6,
        "duration": 0.285,
        "velocity": 1,
        "hand": "left"
      },
      {
        "midi": 65,
        "time": 9.6,
        "duration": 0.285,
        "velocity": 1,
        "hand": "right"
      },
      {
        "midi": 68,
        "time": 9.6,
        "duration": 0.285,
        "velocity": 1,
        "hand": "right"
      },
      {
        "midi": 59,
        "time": 9.9,
        "duration": 0.585,
        "velocity": 1,
        "hand": "left"
      },
      {
        "midi": 65,
        "time": 9.9,
        "duration": 0.285,
        "velocity": 1,
        "hand": "right"
      },
      {
        "midi": 68,
        "time": 9.9,
        "duration": 0.3,
        "velocity": 1,
        "hand": "right"
      },
      {
        "midi": 65,
        "time": 10.2,
        "duration": 0.285,
        "velocity": 1,
        "hand": "right"
      },
      {
        "midi": 59,
        "time": 10.5,
        "duration": 0.3,
        "velocity": 1,
        "hand": "left"
      },
      {
        "midi": 65,
        "time": 10.5,
        "duration": 0.3,
        "velocity": 1,
        "hand": "right"
      },
      {
        "midi": 68,
        "time": 10.5,
        "duration": 0.3,
        "velocity": 1,
        "hand": "right"
      },
      {
        "midi": 50,
        "time": 10.8,
        "duration": 0.585,
        "velocity": 1,
        "hand": "left"
      },
      {
        "midi": 59,
        "time": 11.1,
        "duration": 0.285,
        "velocity": 1,
        "hand": "left"
      },
      {
        "midi": 65,
        "time": 11.1,
        "duration": 0.285,
        "velocity": 1,
        "hand": "right"
      },
      {
        "midi": 68,
        "time": 11.1,
        "duration": 0.285,
        "velocity": 1,
        "hand": "right"
      },
      {
        "midi": 50,
        "time": 11.4,
        "duration": 0.6,
        "velocity": 1,
        "hand": "left"
      },
      {
        "midi": 59,
        "time": 11.4,
        "duration": 0.285,
        "velocity": 1,
        "hand": "left"
      },
      {
        "midi": 65,
        "time": 11.4,
        "duration": 0.285,
        "velocity": 1,
        "hand": "right"
      },
      {
        "midi": 68,
        "time": 11.4,
        "duration": 0.285,
        "velocity": 1,
        "hand": "right"
      },
      {
        "midi": 59,
        "time": 11.7,
        "duration": 0.3,
        "velocity": 1,
        "hand": "left"
      },
      {
        "midi": 65,
        "time": 11.7,
        "duration": 0.285,
        "velocity": 1,
        "hand": "right"
      },
      {
        "midi": 68,
        "time": 11.7,
        "duration": 0.285,
        "velocity": 1,
        "hand": "right"
      },
      {
        "midi": 51,
        "time": 12,
        "duration": 1.2,
        "velocity": 1,
        "hand": "left"
      },
      {
        "midi": 58,
        "time": 12,
        "duration": 0.285,
        "velocity": 1,
        "hand": "left"
      },
      {
        "midi": 65,
        "time": 12,
        "duration": 0.285,
        "velocity": 1,
        "hand": "right"
      },
      {
        "midi": 68,
        "time": 12,
        "duration": 0.285,
        "velocity": 1,
        "hand": "right"
      },
      {
        "midi": 58,
        "time": 12.3,
        "duration": 0.585,
        "velocity": 1,
        "hand": "left"
      },
      {
        "midi": 65,
        "time": 12.3,
        "duration": 0.3,
        "velocity": 1,
        "hand": "right"
      },
      {
        "midi": 68,
        "time": 12.3,
        "duration": 0.3,
        "velocity": 1,
        "hand": "right"
      },
      {
        "midi": 63,
        "time": 12.6,
        "duration": 0.6,
        "velocity": 1,
        "hand": "right"
      },
      {
        "midi": 67,
        "time": 12.6,
        "duration": 0.285,
        "velocity": 1,
        "hand": "right"
      },
      {
        "midi": 58,
        "time": 12.9,
        "duration": 0.3,
        "velocity": 1,
        "hand": "left"
      },
      {
        "midi": 67,
        "time": 12.9,
        "duration": 0.3,
        "velocity": 1,
        "hand": "right"
      },
      {
        "midi": 70,
        "time": 12.9,
        "duration": 0.285,
        "velocity": 1,
        "hand": "right"
      },
      {
        "midi": 44,
        "time": 13.2,
        "duration": 1.2,
        "velocity": 1,
        "hand": "left"
      },
      {
        "midi": 60,
        "time": 13.2,
        "duration": 0.285,
        "velocity": 1,
        "hand": "right"
      },
      {
        "midi": 70,
        "time": 13.2,
        "duration": 0.3,
        "velocity": 1,
        "hand": "right"
      },
      {
        "midi": 60,
        "time": 13.5,
        "duration": 0.285,
        "velocity": 1,
        "hand": "right"
      },
      {
        "midi": 68,
        "time": 13.5,
        "duration": 0.3,
        "velocity": 1,
        "hand": "right"
      },
      {
        "midi": 58,
        "time": 13.8,
        "duration": 0.3,
        "velocity": 1,
        "hand": "left"
      },
      {
        "midi": 60,
        "time": 13.8,
        "duration": 0.285,
        "velocity": 1,
        "hand": "right"
      },
      {
        "midi": 67,
        "time": 13.8,
        "duration": 0.3,
        "velocity": 1,
        "hand": "right"
      },
      {
        "midi": 56,
        "time": 14.1,
        "duration": 0.3,
        "velocity": 1,
        "hand": "left"
      },
      {
        "midi": 60,
        "time": 14.1,
        "duration": 0.3,
        "velocity": 1,
        "hand": "right"
      },
      {
        "midi": 65,
        "time": 14.1,
        "duration": 0.3,
        "velocity": 1,
        "hand": "right"
      },
      {
        "midi": 46,
        "time": 14.4,
        "duration": 0.885,
        "velocity": 1,
        "hand": "left"
      },
      {
        "midi": 55,
        "time": 14.4,
        "duration": 0.285,
        "velocity": 1,
        "hand": "left"
      },
      {
        "midi": 63,
        "time": 14.4,
        "duration": 0.585,
        "velocity": 1,
        "hand": "right"
      },
      {
        "midi": 55,
        "time": 14.7,
        "duration": 0.6,
        "velocity": 1,
        "hand": "left"
      },
      {
        "midi": 58,
        "time": 14.7,
        "duration": 0.585,
        "velocity": 1,
        "hand": "left"
      },
      {
        "midi": 63,
        "time": 15,
        "duration": 0.3,
        "velocity": 1,
        "hand": "right"
      },
      {
        "midi": 46,
        "time": 15.3,
        "duration": 0.285,
        "velocity": 1,
        "hand": "left"
      },
      {
        "midi": 56,
        "time": 15.3,
        "duration": 0.3,
        "velocity": 1,
        "hand": "left"
      },
      {
        "midi": 65,
        "time": 15.3,
        "duration": 0.3,
        "velocity": 1,
        "hand": "right"
      },
      {
        "midi": 46,
        "time": 15.6,
        "duration": 1.185,
        "velocity": 1,
        "hand": "left"
      },
      {
        "midi": 53,
        "time": 15.6,
        "duration": 0.285,
        "velocity": 1,
        "hand": "left"
      },
      {
        "midi": 62,
        "time": 15.6,
        "duration": 0.285,
        "velocity": 1,
        "hand": "right"
      },
      {
        "midi": 53,
        "time": 15.9,
        "duration": 0.6,
        "velocity": 1,
        "hand": "left"
      },
      {
        "midi": 58,
        "time": 15.9,
        "duration": 0.3,
        "velocity": 1,
        "hand": "left"
      },
      {
        "midi": 62,
        "time": 15.9,
        "duration": 0.285,
        "velocity": 1,
        "hand": "right"
      },
      {
        "midi": 62,
        "time": 16.2,
        "duration": 0.3,
        "velocity": 1,
        "hand": "right"
      },
      {
        "midi": 65,
        "time": 16.2,
        "duration": 0.3,
        "velocity": 1,
        "hand": "right"
      },
      {
        "midi": 54,
        "time": 16.5,
        "duration": 0.3,
        "velocity": 1,
        "hand": "left"
      },
      {
        "midi": 63,
        "time": 16.5,
        "duration": 0.3,
        "velocity": 1,
        "hand": "right"
      },
      {
        "midi": 69,
        "time": 16.5,
        "duration": 0.3,
        "velocity": 1,
        "hand": "right"
      },
      {
        "midi": 46,
        "time": 16.8,
        "duration": 0.585,
        "velocity": 1,
        "hand": "left"
      },
      {
        "midi": 53,
        "time": 16.8,
        "duration": 0.6,
        "velocity": 1,
        "hand": "left"
      },
      {
        "midi": 62,
        "time": 16.8,
        "duration": 0.585,
        "velocity": 1,
        "hand": "right"
      },
      {
        "midi": 70,
        "time": 16.8,
        "duration": 0.585,
        "velocity": 1,
        "hand": "right"
      },
      {
        "midi": 46,
        "time": 17.4,
        "duration": 0.585,
        "velocity": 1,
        "hand": "left"
      },
      {
        "midi": 56,
        "time": 17.4,
        "duration": 0.6,
        "velocity": 1,
        "hand": "left"
      },
      {
        "midi": 62,
        "time": 17.4,
        "duration": 0.6,
        "velocity": 1,
        "hand": "right"
      },
      {
        "midi": 65,
        "time": 17.4,
        "duration": 0.6,
        "velocity": 1,
        "hand": "right"
      },
      {
        "midi": 70,
        "time": 17.4,
        "duration": 0.285,
        "velocity": 1,
        "hand": "right"
      },
      {
        "midi": 72,
        "time": 17.4,
        "duration": 0.3,
        "velocity": 1,
        "hand": "right"
      },
      {
        "midi": 70,
        "time": 17.7,
        "duration": 0.285,
        "velocity": 1,
        "hand": "right"
      },
      {
        "midi": 46,
        "time": 18,
        "duration": 0.585,
        "velocity": 1,
        "hand": "left"
      },
      {
        "midi": 55,
        "time": 18,
        "duration": 0.6,
        "velocity": 1,
        "hand": "left"
      },
      {
        "midi": 63,
        "time": 18,
        "duration": 0.6,
        "velocity": 1,
        "hand": "right"
      },
      {
        "midi": 67,
        "time": 18,
        "duration": 0.6,
        "velocity": 1,
        "hand": "right"
      },
      {
        "midi": 70,
        "time": 18,
        "duration": 0.285,
        "velocity": 1,
        "hand": "right"
      },
      {
        "midi": 72,
        "time": 18,
        "duration": 0.3,
        "velocity": 1,
        "hand": "right"
      },
      {
        "midi": 70,
        "time": 18.3,
        "duration": 0.285,
        "velocity": 1,
        "hand": "right"
      },
      {
        "midi": 46,
        "time": 18.6,
        "duration": 0.6,
        "velocity": 1,
        "hand": "left"
      },
      {
        "midi": 53,
        "time": 18.6,
        "duration": 0.6,
        "velocity": 1,
        "hand": "left"
      },
      {
        "midi": 62,
        "time": 18.6,
        "duration": 0.6,
        "velocity": 1,
        "hand": "right"
      },
      {
        "midi": 68,
        "time": 18.6,
        "duration": 0.6,
        "velocity": 1,
        "hand": "right"
      },
      {
        "midi": 70,
        "time": 18.6,
        "duration": 0.285,
        "velocity": 1,
        "hand": "right"
      },
      {
        "midi": 72,
        "time": 18.6,
        "duration": 0.3,
        "velocity": 1,
        "hand": "right"
      },
      {
        "midi": 70,
        "time": 18.9,
        "duration": 0.285,
        "velocity": 1,
        "hand": "right"
      },
      {
        "midi": 51,
        "time": 19.2,
        "duration": 1.185,
        "velocity": 1,
        "hand": "left"
      },
      {
        "midi": 55,
        "time": 19.2,
        "duration": 1.2,
        "velocity": 1,
        "hand": "left"
      },
      {
        "midi": 63,
        "time": 19.2,
        "duration": 0.585,
        "velocity": 1,
        "hand": "right"
      },
      {
        "midi": 67,
        "time": 19.2,
        "duration": 0.285,
        "velocity": 1,
        "hand": "right"
      },
      {
        "midi": 70,
        "time": 19.2,
        "duration": 0.285,
        "velocity": 1,
        "hand": "right"
      },
      {
        "midi": 58,
        "time": 19.5,
        "duration": 0.585,
        "velocity": 1,
        "hand": "left"
      },
      {
        "midi": 67,
        "time": 19.5,
        "duration": 0.285,
        "velocity": 1,
        "hand": "right"
      },
      {
        "midi": 70,
        "time": 19.5,
        "duration": 0.3,
        "velocity": 1,
        "hand": "right"
      },
      {
        "midi": 63,
        "time": 19.8,
        "duration": 0.3,
        "velocity": 1,
        "hand": "right"
      },
      {
        "midi": 67,
        "time": 19.8,
        "duration": 0.285,
        "velocity": 1,
        "hand": "right"
      },
      {
        "midi": 58,
        "time": 20.1,
        "duration": 0.3,
        "velocity": 1,
        "hand": "left"
      },
      {
        "midi": 67,
        "time": 20.1,
        "duration": 0.3,
        "velocity": 1,
        "hand": "right"
      },
      {
        "midi": 70,
        "time": 20.1,
        "duration": 0.3,
        "velocity": 1,
        "hand": "right"
      },
      {
        "midi": 51,
        "time": 20.4,
        "duration": 0.585,
        "velocity": 1,
        "hand": "left"
      },
      {
        "midi": 58,
        "time": 20.7,
        "duration": 0.285,
        "velocity": 1,
        "hand": "left"
      },
      {
        "midi": 67,
        "time": 20.7,
        "duration": 0.285,
        "velocity": 1,
        "hand": "right"
      },
      {
        "midi": 70,
        "time": 20.7,
        "duration": 0.285,
        "velocity": 1,
        "hand": "right"
      },
      {
        "midi": 51,
        "time": 21,
        "duration": 0.585,
        "velocity": 1,
        "hand": "left"
      },
      {
        "midi": 58,
        "time": 21,
        "duration": 0.285,
        "velocity": 1,
        "hand": "left"
      },
      {
        "midi": 63,
        "time": 21,
        "duration": 0.3,
        "velocity": 1,
        "hand": "right"
      },
      {
        "midi": 67,
        "time": 21,
        "duration": 0.285,
        "velocity": 1,
        "hand": "right"
      },
      {
        "midi": 70,
        "time": 21,
        "duration": 0.285,
        "velocity": 1,
        "hand": "right"
      },
      {
        "midi": 58,
        "time": 21.3,
        "duration": 0.285,
        "velocity": 1,
        "hand": "left"
      },
      {
        "midi": 67,
        "time": 21.3,
        "duration": 0.285,
        "velocity": 1,
        "hand": "right"
      },
      {
        "midi": 70,
        "time": 21.3,
        "duration": 0.285,
        "velocity": 1,
        "hand": "right"
      },
      {
        "midi": 51,
        "time": 21.6,
        "duration": 0.585,
        "velocity": 1,
        "hand": "left"
      },
      {
        "midi": 58,
        "time": 21.6,
        "duration": 0.285,
        "velocity": 1,
        "hand": "left"
      },
      {
        "midi": 67,
        "time": 21.6,
        "duration": 0.285,
        "velocity": 1,
        "hand": "right"
      },
      {
        "midi": 70,
        "time": 21.6,
        "duration": 0.285,
        "velocity": 1,
        "hand": "right"
      },
      {
        "midi": 58,
        "time": 21.9,
        "duration": 0.285,
        "velocity": 1,
        "hand": "left"
      },
      {
        "midi": 67,
        "time": 21.9,
        "duration": 0.285,
        "velocity": 1,
        "hand": "right"
      },
      {
        "midi": 70,
        "time": 21.9,
        "duration": 0.285,
        "velocity": 1,
        "hand": "right"
      },
      {
        "midi": 51,
        "time": 22.2,
        "duration": 0.585,
        "velocity": 1,
        "hand": "left"
      },
      {
        "midi": 58,
        "time": 22.2,
        "duration": 0.285,
        "velocity": 1,
        "hand": "left"
      },
      {
        "midi": 63,
        "time": 22.2,
        "duration": 0.3,
        "velocity": 1,
        "hand": "right"
      },
      {
        "midi": 67,
        "time": 22.2,
        "duration": 0.285,
        "velocity": 1,
        "hand": "right"
      },
      {
        "midi": 70,
        "time": 22.2,
        "duration": 0.285,
        "velocity": 1,
        "hand": "right"
      },
      {
        "midi": 58,
        "time": 22.5,
        "duration": 0.285,
        "velocity": 1,
        "hand": "left"
      },
      {
        "midi": 67,
        "time": 22.5,
        "duration": 0.285,
        "velocity": 1,
        "hand": "right"
      },
      {
        "midi": 70,
        "time": 22.5,
        "duration": 0.3,
        "velocity": 1,
        "hand": "right"
      },
      {
        "midi": 51,
        "time": 22.8,
        "duration": 0.585,
        "velocity": 1,
        "hand": "left"
      },
      {
        "midi": 58,
        "time": 22.8,
        "duration": 0.285,
        "velocity": 1,
        "hand": "left"
      },
      {
        "midi": 67,
        "time": 22.8,
        "duration": 0.285,
        "velocity": 1,
        "hand": "right"
      },
      {
        "midi": 75,
        "time": 22.8,
        "duration": 0.585,
        "velocity": 1,
        "hand": "right"
      },
      {
        "midi": 58,
        "time": 23.1,
        "duration": 0.3,
        "velocity": 1,
        "hand": "left"
      },
      {
        "midi": 67,
        "time": 23.1,
        "duration": 0.285,
        "velocity": 1,
        "hand": "right"
      },
      {
        "midi": 51,
        "time": 23.4,
        "duration": 0.585,
        "velocity": 1,
        "hand": "left"
      },
      {
        "midi": 63,
        "time": 23.4,
        "duration": 0.3,
        "velocity": 1,
        "hand": "right"
      },
      {
        "midi": 67,
        "time": 23.4,
        "duration": 0.285,
        "velocity": 1,
        "hand": "right"
      },
      {
        "midi": 72,
        "time": 23.4,
        "duration": 0.285,
        "velocity": 1,
        "hand": "right"
      },
      {
        "midi": 75,
        "time": 23.4,
        "duration": 0.3,
        "velocity": 1,
        "hand": "right"
      },
      {
        "midi": 60,
        "time": 23.7,
        "duration": 0.285,
        "velocity": 1,
        "hand": "right"
      },
      {
        "midi": 67,
        "time": 23.7,
        "duration": 0.3,
        "velocity": 1,
        "hand": "right"
      },
      {
        "midi": 72,
        "time": 23.7,
        "duration": 0.3,
        "velocity": 1,
        "hand": "right"
      },
      {
        "midi": 51,
        "time": 24,
        "duration": 1.185,
        "velocity": 1,
        "hand": "left"
      },
      {
        "midi": 60,
        "time": 24,
        "duration": 0.285,
        "velocity": 1,
        "hand": "right"
      },
      {
        "midi": 66,
        "time": 24,
        "duration": 0.285,
        "velocity": 1,
        "hand": "right"
      },
      {
        "midi": 70,
        "time": 24,
        "duration": 0.285,
        "velocity": 1,
        "hand": "right"
      },
      {
        "midi": 60,
        "time": 24.3,
        "duration": 0.585,
        "velocity": 1,
        "hand": "right"
      },
      {
        "midi": 66,
        "time": 24.3,
        "duration": 0.285,
        "velocity": 1,
        "hand": "right"
      },
      {
        "midi": 70,
        "time": 24.3,
        "duration": 0.285,
        "velocity": 1,
        "hand": "right"
      },
      {
        "midi": 66,
        "time": 24.6,
        "duration": 0.285,
        "velocity": 1,
        "hand": "right"
      },
      {
        "midi": 70,
        "time": 24.6,
        "duration": 0.285,
        "velocity": 1,
        "hand": "right"
      },
      {
        "midi": 60,
        "time": 24.9,
        "duration": 0.285,
        "velocity": 1,
        "hand": "right"
      },
      {
        "midi": 66,
        "time": 24.9,
        "duration": 0.285,
        "velocity": 1,
        "hand": "right"
      },
      {
        "midi": 70,
        "time": 24.9,
        "duration": 0.3,
        "velocity": 1,
        "hand": "right"
      },
      {
        "midi": 51,
        "time": 25.2,
        "duration": 1.185,
        "velocity": 1,
        "hand": "left"
      },
      {
        "midi": 60,
        "time": 25.2,
        "duration": 0.285,
        "velocity": 1,
        "hand": "right"
      },
      {
        "midi": 66,
        "time": 25.2,
        "duration": 0.285,
        "velocity": 1,
        "hand": "right"
      },
      {
        "midi": 69,
        "time": 25.2,
        "duration": 0.285,
        "velocity": 1,
        "hand": "right"
      },
      {
        "midi": 60,
        "time": 25.5,
        "duration": 0.585,
        "velocity": 1,
        "hand": "right"
      },
      {
        "midi": 66,
        "time": 25.5,
        "duration": 0.3,
        "velocity": 1,
        "hand": "right"
      },
      {
        "midi": 69,
        "time": 25.5,
        "duration": 0.3,
        "velocity": 1,
        "hand": "right"
      },
      {
        "midi": 63,
        "time": 25.8,
        "duration": 0.3,
        "velocity": 1,
        "hand": "right"
      },
      {
        "midi": 60,
        "time": 26.1,
        "duration": 0.285,
        "velocity": 1,
        "hand": "right"
      },
      {
        "midi": 66,
        "time": 26.1,
        "duration": 0.285,
        "velocity": 1,
        "hand": "right"
      },
      {
        "midi": 69,
        "time": 26.1,
        "duration": 0.3,
        "velocity": 1,
        "hand": "right"
      },
      {
        "midi": 51,
        "time": 26.4,
        "duration": 1.185,
        "velocity": 1,
        "hand": "left"
      },
      {
        "midi": 54,
        "time": 26.4,
        "duration": 1.2,
        "velocity": 1,
        "hand": "left"
      },
      {
        "midi": 60,
        "time": 26.4,
        "duration": 1.785,
        "velocity": 1,
        "hand": "right"
      },
      {
        "midi": 66,
        "time": 26.4,
        "duration": 0.285,
        "velocity": 1,
        "hand": "right"
      },
      {
        "midi": 70,
        "time": 26.4,
        "duration": 1.2,
        "velocity": 1,
        "hand": "right"
      },
      {
        "midi": 72,
        "time": 26.4,
        "duration": 0.285,
        "velocity": 1,
        "hand": "right"
      },
      {
        "midi": 58,
        "time": 26.7,
        "duration": 0.585,
        "velocity": 1,
        "hand": "left"
      },
      {
        "midi": 66,
        "time": 26.7,
        "duration": 0.285,
        "velocity": 1,
        "hand": "right"
      },
      {
        "midi": 72,
        "time": 26.7,
        "duration": 0.285,
        "velocity": 1,
        "hand": "right"
      },
      {
        "midi": 66,
        "time": 27,
        "duration": 0.285,
        "velocity": 1,
        "hand": "right"
      },
      {
        "midi": 72,
        "time": 27,
        "duration": 0.285,
        "velocity": 1,
        "hand": "right"
      },
      {
        "midi": 58,
        "time": 27.3,
        "duration": 0.3,
        "velocity": 1,
        "hand": "left"
      },
      {
        "midi": 66,
        "time": 27.3,
        "duration": 0.3,
        "velocity": 1,
        "hand": "right"
      },
      {
        "midi": 72,
        "time": 27.3,
        "duration": 0.3,
        "velocity": 1,
        "hand": "right"
      },
      {
        "midi": 51,
        "time": 27.6,
        "duration": 1.2,
        "velocity": 1,
        "hand": "left"
      },
      {
        "midi": 53,
        "time": 27.6,
        "duration": 1.2,
        "velocity": 1,
        "hand": "left"
      },
      {
        "midi": 65,
        "time": 27.6,
        "duration": 0.285,
        "velocity": 1,
        "hand": "right"
      },
      {
        "midi": 69,
        "time": 27.6,
        "duration": 1.2,
        "velocity": 1,
        "hand": "right"
      },
      {
        "midi": 57,
        "time": 27.9,
        "duration": 0.585,
        "velocity": 1,
        "hand": "left"
      },
      {
        "midi": 65,
        "time": 27.9,
        "duration": 0.285,
        "velocity": 1,
        "hand": "right"
      },
      {
        "midi": 72,
        "time": 27.9,
        "duration": 0.3,
        "velocity": 1,
        "hand": "right"
      },
      {
        "midi": 60,
        "time": 28.2,
        "duration": 0.3,
        "velocity": 1,
        "hand": "right"
      },
      {
        "midi": 65,
        "time": 28.2,
        "duration": 0.285,
        "velocity": 1,
        "hand": "right"
      },
      {
        "midi": 57,
        "time": 28.5,
        "duration": 0.3,
        "velocity": 1,
        "hand": "left"
      },
      {
        "midi": 65,
        "time": 28.5,
        "duration": 0.285,
        "velocity": 1,
        "hand": "right"
      },
      {
        "midi": 72,
        "time": 28.5,
        "duration": 0.3,
        "velocity": 1,
        "hand": "right"
      },
      {
        "midi": 50,
        "time": 28.8,
        "duration": 1.185,
        "velocity": 1,
        "hand": "left"
      },
      {
        "midi": 58,
        "time": 28.8,
        "duration": 0.285,
        "velocity": 1,
        "hand": "left"
      },
      {
        "midi": 65,
        "time": 28.8,
        "duration": 0.585,
        "velocity": 1,
        "hand": "right"
      },
      {
        "midi": 74,
        "time": 28.8,
        "duration": 0.285,
        "velocity": 1,
        "hand": "right"
      },
      {
        "midi": 58,
        "time": 29.1,
        "duration": 0.585,
        "velocity": 1,
        "hand": "left"
      },
      {
        "midi": 70,
        "time": 29.1,
        "duration": 0.3,
        "velocity": 1,
        "hand": "right"
      },
      {
        "midi": 74,
        "time": 29.1,
        "duration": 0.3,
        "velocity": 1,
        "hand": "right"
      },
      {
        "midi": 65,
        "time": 29.4,
        "duration": 0.3,
        "velocity": 1,
        "hand": "right"
      },
      {
        "midi": 58,
        "time": 29.7,
        "duration": 0.285,
        "velocity": 1,
        "hand": "left"
      },
      {
        "midi": 70,
        "time": 29.7,
        "duration": 0.3,
        "velocity": 1,
        "hand": "right"
      },
      {
        "midi": 74,
        "time": 29.7,
        "duration": 0.3,
        "velocity": 1,
        "hand": "right"
      },
      {
        "midi": 50,
        "time": 30,
        "duration": 0.585,
        "velocity": 1,
        "hand": "left"
      },
      {
        "midi": 58,
        "time": 30,
        "duration": 0.285,
        "velocity": 1,
        "hand": "left"
      },
      {
        "midi": 65,
        "time": 30,
        "duration": 0.585,
        "velocity": 1,
        "hand": "right"
      },
      {
        "midi": 58,
        "time": 30.3,
        "duration": 0.585,
        "velocity": 1,
        "hand": "left"
      },
      {
        "midi": 70,
        "time": 30.3,
        "duration": 0.285,
        "velocity": 1,
        "hand": "right"
      },
      {
        "midi": 74,
        "time": 30.3,
        "duration": 0.3,
        "velocity": 1,
        "hand": "right"
      },
      {
        "midi": 50,
        "time": 30.6,
        "duration": 0.6,
        "velocity": 1,
        "hand": "left"
      },
      {
        "midi": 65,
        "time": 30.6,
        "duration": 0.3,
        "velocity": 1,
        "hand": "right"
      },
      {
        "midi": 70,
        "time": 30.6,
        "duration": 0.285,
        "velocity": 1,
        "hand": "right"
      },
      {
        "midi": 58,
        "time": 30.9,
        "duration": 0.285,
        "velocity": 1,
        "hand": "left"
      },
      {
        "midi": 70,
        "time": 30.9,
        "duration": 0.285,
        "velocity": 1,
        "hand": "right"
      },
      {
        "midi": 74,
        "time": 30.9,
        "duration": 0.3,
        "velocity": 1,
        "hand": "right"
      },
      {
        "midi": 51,
        "time": 31.2,
        "duration": 0.585,
        "velocity": 1,
        "hand": "left"
      },
      {
        "midi": 58,
        "time": 31.2,
        "duration": 0.285,
        "velocity": 1,
        "hand": "left"
      },
      {
        "midi": 63,
        "time": 31.2,
        "duration": 0.585,
        "velocity": 1,
        "hand": "right"
      },
      {
        "midi": 67,
        "time": 31.2,
        "duration": 0.585,
        "velocity": 1,
        "hand": "right"
      },
      {
        "midi": 70,
        "time": 31.2,
        "duration": 0.285,
        "velocity": 1,
        "hand": "right"
      },
      {
        "midi": 58,
        "time": 31.5,
        "duration": 0.285,
        "velocity": 1,
        "hand": "left"
      },
      {
        "midi": 70,
        "time": 31.5,
        "duration": 0.3,
        "velocity": 1,
        "hand": "right"
      },
      {
        "midi": 72,
        "time": 31.5,
        "duration": 0.285,
        "velocity": 1,
        "hand": "right"
      },
      {
        "midi": 51,
        "time": 31.8,
        "duration": 0.6,
        "velocity": 1,
        "hand": "left"
      },
      {
        "midi": 58,
        "time": 31.8,
        "duration": 0.285,
        "velocity": 1,
        "hand": "left"
      },
      {
        "midi": 63,
        "time": 31.8,
        "duration": 0.6,
        "velocity": 1,
        "hand": "right"
      },
      {
        "midi": 67,
        "time": 31.8,
        "duration": 0.3,
        "velocity": 1,
        "hand": "right"
      },
      {
        "midi": 72,
        "time": 31.8,
        "duration": 0.285,
        "velocity": 1,
        "hand": "right"
      },
      {
        "midi": 58,
        "time": 32.1,
        "duration": 0.285,
        "velocity": 1,
        "hand": "left"
      },
      {
        "midi": 70,
        "time": 32.1,
        "duration": 0.285,
        "velocity": 1,
        "hand": "right"
      },
      {
        "midi": 72,
        "time": 32.1,
        "duration": 0.3,
        "velocity": 1,
        "hand": "right"
      },
      {
        "midi": 50,
        "time": 32.4,
        "duration": 0.6,
        "velocity": 1,
        "hand": "left"
      },
      {
        "midi": 58,
        "time": 32.4,
        "duration": 0.285,
        "velocity": 1,
        "hand": "left"
      },
      {
        "midi": 65,
        "time": 32.4,
        "duration": 0.6,
        "velocity": 1,
        "hand": "right"
      },
      {
        "midi": 70,
        "time": 32.4,
        "duration": 0.285,
        "velocity": 1,
        "hand": "right"
      },
      {
        "midi": 74,
        "time": 32.4,
        "duration": 0.285,
        "velocity": 1,
        "hand": "right"
      },
      {
        "midi": 58,
        "time": 32.7,
        "duration": 0.285,
        "velocity": 1,
        "hand": "left"
      },
      {
        "midi": 70,
        "time": 32.7,
        "duration": 0.3,
        "velocity": 1,
        "hand": "right"
      },
      {
        "midi": 74,
        "time": 32.7,
        "duration": 0.3,
        "velocity": 1,
        "hand": "right"
      },
      {
        "midi": 48,
        "time": 33,
        "duration": 0.6,
        "velocity": 1,
        "hand": "left"
      },
      {
        "midi": 58,
        "time": 33,
        "duration": 0.285,
        "velocity": 1,
        "hand": "left"
      },
      {
        "midi": 63,
        "time": 33,
        "duration": 0.6,
        "velocity": 1,
        "hand": "right"
      },
      {
        "midi": 67,
        "time": 33,
        "duration": 0.6,
        "velocity": 1,
        "hand": "right"
      },
      {
        "midi": 75,
        "time": 33,
        "duration": 0.285,
        "velocity": 1,
        "hand": "right"
      },
      {
        "midi": 58,
        "time": 33.3,
        "duration": 0.285,
        "velocity": 1,
        "hand": "left"
      },
      {
        "midi": 70,
        "time": 33.3,
        "duration": 0.285,
        "velocity": 1,
        "hand": "right"
      },
      {
        "midi": 75,
        "time": 33.3,
        "duration": 0.3,
        "velocity": 1,
        "hand": "right"
      },
      {
        "midi": 53,
        "time": 33.6,
        "duration": 1.185,
        "velocity": 1,
        "hand": "left"
      },
      {
        "midi": 58,
        "time": 33.6,
        "duration": 1.2,
        "velocity": 1,
        "hand": "left"
      },
      {
        "midi": 65,
        "time": 33.6,
        "duration": 0.285,
        "velocity": 1,
        "hand": "right"
      },
      {
        "midi": 70,
        "time": 33.6,
        "duration": 0.285,
        "velocity": 1,
        "hand": "right"
      },
      {
        "midi": 74,
        "time": 33.6,
        "duration": 0.285,
        "velocity": 1,
        "hand": "right"
      },
      {
        "midi": 65,
        "time": 33.9,
        "duration": 0.585,
        "velocity": 1,
        "hand": "right"
      },
      {
        "midi": 70,
        "time": 33.9,
        "duration": 0.3,
        "velocity": 1,
        "hand": "right"
      },
      {
        "midi": 74,
        "time": 33.9,
        "duration": 0.3,
        "velocity": 1,
        "hand": "right"
      },
      {
        "midi": 65,
        "time": 34.5,
        "duration": 0.285,
        "velocity": 1,
        "hand": "right"
      },
      {
        "midi": 70,
        "time": 34.5,
        "duration": 0.3,
        "velocity": 1,
        "hand": "right"
      },
      {
        "midi": 74,
        "time": 34.5,
        "duration": 0.3,
        "velocity": 1,
        "hand": "right"
      },
      {
        "midi": 41,
        "time": 34.8,
        "duration": 1.2,
        "velocity": 1,
        "hand": "left"
      },
      {
        "midi": 53,
        "time": 34.8,
        "duration": 1.2,
        "velocity": 1,
        "hand": "left"
      },
      {
        "midi": 63,
        "time": 34.8,
        "duration": 0.585,
        "velocity": 1,
        "hand": "right"
      },
      {
        "midi": 65,
        "time": 34.8,
        "duration": 0.285,
        "velocity": 1,
        "hand": "right"
      },
      {
        "midi": 69,
        "time": 34.8,
        "duration": 0.285,
        "velocity": 1,
        "hand": "right"
      },
      {
        "midi": 65,
        "time": 35.1,
        "duration": 0.585,
        "velocity": 1,
        "hand": "right"
      },
      {
        "midi": 69,
        "time": 35.1,
        "duration": 0.3,
        "velocity": 1,
        "hand": "right"
      },
      {
        "midi": 74,
        "time": 35.1,
        "duration": 0.3,
        "velocity": 1,
        "hand": "right"
      },
      {
        "midi": 63,
        "time": 35.4,
        "duration": 0.3,
        "velocity": 1,
        "hand": "right"
      },
      {
        "midi": 72,
        "time": 35.4,
        "duration": 0.285,
        "velocity": 1,
        "hand": "right"
      },
      {
        "midi": 65,
        "time": 35.7,
        "duration": 0.285,
        "velocity": 1,
        "hand": "right"
      },
      {
        "midi": 69,
        "time": 35.7,
        "duration": 0.3,
        "velocity": 1,
        "hand": "right"
      },
      {
        "midi": 72,
        "time": 35.7,
        "duration": 0.3,
        "velocity": 1,
        "hand": "right"
      },
      {
        "midi": 46,
        "time": 36,
        "duration": 1.2,
        "velocity": 1,
        "hand": "left"
      },
      {
        "midi": 62,
        "time": 36,
        "duration": 0.585,
        "velocity": 1,
        "hand": "right"
      },
      {
        "midi": 65,
        "time": 36,
        "duration": 0.6,
        "velocity": 1,
        "hand": "right"
      },
      {
        "midi": 70,
        "time": 36,
        "duration": 0.285,
        "velocity": 1,
        "hand": "right"
      },
      {
        "midi": 70,
        "time": 36.3,
        "duration": 0.285,
        "velocity": 1,
        "hand": "right"
      },
      {
        "midi": 58,
        "time": 36.6,
        "duration": 0.585,
        "velocity": 1,
        "hand": "left"
      },
      {
        "midi": 62,
        "time": 36.6,
        "duration": 0.3,
        "velocity": 1,
        "hand": "right"
      },
      {
        "midi": 70,
        "time": 36.6,
        "duration": 0.585,
        "velocity": 1,
        "hand": "right"
      },
      {
        "midi": 74,
        "time": 36.6,
        "duration": 0.3,
        "velocity": 1,
        "hand": "right"
      },
      {
        "midi": 82,
        "time": 36.6,
        "duration": 0.585,
        "velocity": 1,
        "hand": "right"
      },
      {
        "midi": 65,
        "time": 36.9,
        "duration": 0.3,
        "velocity": 1,
        "hand": "right"
      },
      {
        "midi": 77,
        "time": 36.9,
        "duration": 0.3,
        "velocity": 1,
        "hand": "right"
      },
      {
        "midi": 54,
        "time": 37.2,
        "duration": 0.6,
        "velocity": 1,
        "hand": "left"
      },
      {
        "midi": 58,
        "time": 37.2,
        "duration": 0.585,
        "velocity": 1,
        "hand": "left"
      },
      {
        "midi": 63,
        "time": 37.2,
        "duration": 0.585,
        "velocity": 1,
        "hand": "right"
      },
      {
        "midi": 70,
        "time": 37.2,
        "duration": 0.585,
        "velocity": 1,
        "hand": "right"
      },
      {
        "midi": 75,
        "time": 37.2,
        "duration": 0.6,
        "velocity": 1,
        "hand": "right"
      },
      {
        "midi": 82,
        "time": 37.2,
        "duration": 0.585,
        "velocity": 1,
        "hand": "right"
      },
      {
        "midi": 65,
        "time": 37.5,
        "duration": 0.3,
        "velocity": 1,
        "hand": "right"
      },
      {
        "midi": 77,
        "time": 37.5,
        "duration": 0.3,
        "velocity": 1,
        "hand": "right"
      },
      {
        "midi": 51,
        "time": 37.8,
        "duration": 0.6,
        "velocity": 1,
        "hand": "left"
      },
      {
        "midi": 58,
        "time": 37.8,
        "duration": 0.585,
        "velocity": 1,
        "hand": "left"
      },
      {
        "midi": 66,
        "time": 37.8,
        "duration": 0.6,
        "velocity": 1,
        "hand": "right"
      },
      {
        "midi": 70,
        "time": 37.8,
        "duration": 0.285,
        "velocity": 1,
        "hand": "right"
      },
      {
        "midi": 78,
        "time": 37.8,
        "duration": 0.6,
        "velocity": 1,
        "hand": "right"
      },
      {
        "midi": 82,
        "time": 37.8,
        "duration": 0.285,
        "velocity": 1,
        "hand": "right"
      },
      {
        "midi": 70,
        "time": 38.1,
        "duration": 0.285,
        "velocity": 1,
        "hand": "right"
      },
      {
        "midi": 82,
        "time": 38.1,
        "duration": 0.3,
        "velocity": 1,
        "hand": "right"
      },
      {
        "midi": 53,
        "time": 38.4,
        "duration": 1.185,
        "velocity": 1,
        "hand": "left"
      },
      {
        "midi": 58,
        "time": 38.4,
        "duration": 0.285,
        "velocity": 1,
        "hand": "left"
      },
      {
        "midi": 62,
        "time": 38.4,
        "duration": 0.285,
        "velocity": 1,
        "hand": "right"
      },
      {
        "midi": 70,
        "time": 38.4,
        "duration": 0.885,
        "velocity": 1,
        "hand": "right"
      },
      {
        "midi": 77,
        "time": 38.4,
        "duration": 0.585,
        "velocity": 1,
        "hand": "right"
      },
      {
        "midi": 58,
        "time": 38.7,
        "duration": 0.585,
        "velocity": 1,
        "hand": "left"
      },
      {
        "midi": 62,
        "time": 38.7,
        "duration": 0.585,
        "velocity": 1,
        "hand": "right"
      },
      {
        "midi": 82,
        "time": 38.7,
        "duration": 0.3,
        "velocity": 1,
        "hand": "right"
      },
      {
        "midi": 65,
        "time": 39,
        "duration": 0.3,
        "velocity": 1,
        "hand": "right"
      },
      {
        "midi": 77,
        "time": 39,
        "duration": 0.3,
        "velocity": 1,
        "hand": "right"
      },
      {
        "midi": 58,
        "time": 39.3,
        "duration": 0.3,
        "velocity": 1,
        "hand": "left"
      },
      {
        "midi": 62,
        "time": 39.3,
        "duration": 0.3,
        "velocity": 1,
        "hand": "right"
      },
      {
        "midi": 70,
        "time": 39.3,
        "duration": 0.3,
        "velocity": 1,
        "hand": "right"
      },
      {
        "midi": 74,
        "time": 39.3,
        "duration": 0.3,
        "velocity": 1,
        "hand": "right"
      },
      {
        "midi": 41,
        "time": 39.6,
        "duration": 1.2,
        "velocity": 1,
        "hand": "left"
      },
      {
        "midi": 53,
        "time": 39.6,
        "duration": 1.185,
        "velocity": 1,
        "hand": "left"
      },
      {
        "midi": 60,
        "time": 39.6,
        "duration": 0.285,
        "velocity": 1,
        "hand": "right"
      },
      {
        "midi": 63,
        "time": 39.6,
        "duration": 1.2,
        "velocity": 1,
        "hand": "right"
      },
      {
        "midi": 69,
        "time": 39.6,
        "duration": 0.285,
        "velocity": 1,
        "hand": "right"
      },
      {
        "midi": 77,
        "time": 39.6,
        "duration": 0.885,
        "velocity": 1,
        "hand": "right"
      },
      {
        "midi": 60,
        "time": 39.9,
        "duration": 0.585,
        "velocity": 1,
        "hand": "right"
      },
      {
        "midi": 69,
        "time": 39.9,
        "duration": 0.585,
        "velocity": 1,
        "hand": "right"
      },
      {
        "midi": 75,
        "time": 39.9,
        "duration": 0.3,
        "velocity": 1,
        "hand": "right"
      },
      {
        "midi": 74,
        "time": 40.2,
        "duration": 0.3,
        "velocity": 1,
        "hand": "right"
      },
      {
        "midi": 60,
        "time": 40.5,
        "duration": 0.3,
        "velocity": 1,
        "hand": "right"
      },
      {
        "midi": 69,
        "time": 40.5,
        "duration": 0.3,
        "velocity": 1,
        "hand": "right"
      },
      {
        "midi": 75,
        "time": 40.5,
        "duration": 0.3,
        "velocity": 1,
        "hand": "right"
      },
      {
        "midi": 77,
        "time": 40.5,
        "duration": 0.15,
        "velocity": 1,
        "hand": "right"
      },
      {
        "midi": 46,
        "time": 40.8,
        "duration": 0.585,
        "velocity": 1,
        "hand": "left"
      },
      {
        "midi": 53,
        "time": 40.8,
        "duration": 0.585,
        "velocity": 1,
        "hand": "left"
      },
      {
        "midi": 62,
        "time": 40.8,
        "duration": 0.285,
        "velocity": 1,
        "hand": "right"
      },
      {
        "midi": 70,
        "time": 40.8,
        "duration": 0.585,
        "velocity": 1,
        "hand": "right"
      },
      {
        "midi": 74,
        "time": 40.8,
        "duration": 0.6,
        "velocity": 1,
        "hand": "right"
      },
      {
        "midi": 77,
        "time": 40.8,
        "duration": 0.6,
        "velocity": 1,
        "hand": "right"
      },
      {
        "midi": 58,
        "time": 41.1,
        "duration": 0.3,
        "velocity": 1,
        "hand": "left"
      },
      {
        "midi": 62,
        "time": 41.1,
        "duration": 0.285,
        "velocity": 1,
        "hand": "right"
      },
      {
        "midi": 46,
        "time": 41.4,
        "duration": 0.6,
        "velocity": 1,
        "hand": "left"
      },
      {
        "midi": 53,
        "time": 41.4,
        "duration": 0.585,
        "velocity": 1,
        "hand": "left"
      },
      {
        "midi": 62,
        "time": 41.4,
        "duration": 0.3,
        "velocity": 1,
        "hand": "right"
      },
      {
        "midi": 65,
        "time": 41.4,
        "duration": 0.285,
        "velocity": 1,
        "hand": "right"
      },
      {
        "midi": 70,
        "time": 41.4,
        "duration": 0.285,
        "velocity": 1,
        "hand": "right"
      },
      {
        "midi": 50,
        "time": 41.7,
        "duration": 0.3,
        "velocity": 1,
        "hand": "left"
      },
      {
        "midi": 65,
        "time": 41.7,
        "duration": 0.3,
        "velocity": 1,
        "hand": "right"
      },
      {
        "midi": 70,
        "time": 41.7,
        "duration": 0.3,
        "velocity": 1,
        "hand": "right"
      },
      {
        "midi": 47,
        "time": 42,
        "duration": 0.6,
        "velocity": 1,
        "hand": "left"
      },
      {
        "midi": 53,
        "time": 42,
        "duration": 0.6,
        "velocity": 1,
        "hand": "left"
      },
      {
        "midi": 62,
        "time": 42,
        "duration": 1.2,
        "velocity": 1,
        "hand": "right"
      },
      {
        "midi": 68,
        "time": 42,
        "duration": 0.6,
        "velocity": 1,
        "hand": "right"
      },
      {
        "midi": 46,
        "time": 42.6,
        "duration": 0.6,
        "velocity": 1,
        "hand": "left"
      },
      {
        "midi": 55,
        "time": 42.6,
        "duration": 0.3,
        "velocity": 1,
        "hand": "left"
      },
      {
        "midi": 67,
        "time": 42.6,
        "duration": 0.3,
        "velocity": 1,
        "hand": "right"
      },
      {
        "midi": 56,
        "time": 42.9,
        "duration": 0.3,
        "velocity": 1,
        "hand": "left"
      },
      {
        "midi": 65,
        "time": 42.9,
        "duration": 0.3,
        "velocity": 1,
        "hand": "right"
      },
      {
        "midi": 39,
        "time": 43.2,
        "duration": 0.6,
        "velocity": 1,
        "hand": "left"
      },
      {
        "midi": 51,
        "time": 43.2,
        "duration": 0.585,
        "velocity": 1,
        "hand": "left"
      },
      {
        "midi": 63,
        "time": 43.2,
        "duration": 0.585,
        "velocity": 1,
        "hand": "right"
      },
      {
        "midi": 67,
        "time": 43.2,
        "duration": 0.285,
        "velocity": 1,
        "hand": "right"
      },
      {
        "midi": 70,
        "time": 43.2,
        "duration": 0.285,
        "velocity": 1,
        "hand": "right"
      },
      {
        "midi": 58,
        "time": 43.5,
        "duration": 0.285,
        "velocity": 1,
        "hand": "left"
      },
      {
        "midi": 67,
        "time": 43.5,
        "duration": 0.285,
        "velocity": 1,
        "hand": "right"
      },
      {
        "midi": 70,
        "time": 43.5,
        "duration": 0.285,
        "velocity": 1,
        "hand": "right"
      },
      {
        "midi": 51,
        "time": 43.8,
        "duration": 0.585,
        "velocity": 1,
        "hand": "left"
      },
      {
        "midi": 58,
        "time": 43.8,
        "duration": 0.285,
        "velocity": 1,
        "hand": "left"
      },
      {
        "midi": 63,
        "time": 43.8,
        "duration": 0.3,
        "velocity": 1,
        "hand": "right"
      },
      {
        "midi": 67,
        "time": 43.8,
        "duration": 0.285,
        "velocity": 1,
        "hand": "right"
      },
      {
        "midi": 70,
        "time": 43.8,
        "duration": 0.285,
        "velocity": 1,
        "hand": "right"
      },
      {
        "midi": 58,
        "time": 44.1,
        "duration": 0.3,
        "velocity": 1,
        "hand": "left"
      },
      {
        "midi": 67,
        "time": 44.1,
        "duration": 0.3,
        "velocity": 1,
        "hand": "right"
      },
      {
        "midi": 70,
        "time": 44.1,
        "duration": 0.3,
        "velocity": 1,
        "hand": "right"
      },
      {
        "midi": 51,
        "time": 44.4,
        "duration": 0.585,
        "velocity": 1,
        "hand": "left"
      },
      {
        "midi": 58,
        "time": 44.7,
        "duration": 0.285,
        "velocity": 1,
        "hand": "left"
      },
      {
        "midi": 67,
        "time": 44.7,
        "duration": 0.285,
        "velocity": 1,
        "hand": "right"
      },
      {
        "midi": 70,
        "time": 44.7,
        "duration": 0.285,
        "velocity": 1,
        "hand": "right"
      },
      {
        "midi": 51,
        "time": 45,
        "duration": 0.585,
        "velocity": 1,
        "hand": "left"
      },
      {
        "midi": 58,
        "time": 45,
        "duration": 0.285,
        "velocity": 1,
        "hand": "left"
      },
      {
        "midi": 63,
        "time": 45,
        "duration": 0.3,
        "velocity": 1,
        "hand": "right"
      },
      {
        "midi": 67,
        "time": 45,
        "duration": 0.285,
        "velocity": 1,
        "hand": "right"
      },
      {
        "midi": 70,
        "time": 45,
        "duration": 0.285,
        "velocity": 1,
        "hand": "right"
      },
      {
        "midi": 58,
        "time": 45.3,
        "duration": 0.285,
        "velocity": 1,
        "hand": "left"
      },
      {
        "midi": 67,
        "time": 45.3,
        "duration": 0.285,
        "velocity": 1,
        "hand": "right"
      },
      {
        "midi": 70,
        "time": 45.3,
        "duration": 0.285,
        "velocity": 1,
        "hand": "right"
      },
      {
        "midi": 51,
        "time": 45.6,
        "duration": 0.585,
        "velocity": 1,
        "hand": "left"
      },
      {
        "midi": 58,
        "time": 45.6,
        "duration": 0.285,
        "velocity": 1,
        "hand": "left"
      },
      {
        "midi": 67,
        "time": 45.6,
        "duration": 0.285,
        "velocity": 1,
        "hand": "right"
      },
      {
        "midi": 70,
        "time": 45.6,
        "duration": 0.285,
        "velocity": 1,
        "hand": "right"
      },
      {
        "midi": 58,
        "time": 45.9,
        "duration": 0.285,
        "velocity": 1,
        "hand": "left"
      },
      {
        "midi": 67,
        "time": 45.9,
        "duration": 0.285,
        "velocity": 1,
        "hand": "right"
      },
      {
        "midi": 70,
        "time": 45.9,
        "duration": 0.285,
        "velocity": 1,
        "hand": "right"
      },
      {
        "midi": 51,
        "time": 46.2,
        "duration": 0.585,
        "velocity": 1,
        "hand": "left"
      },
      {
        "midi": 58,
        "time": 46.2,
        "duration": 0.285,
        "velocity": 1,
        "hand": "left"
      },
      {
        "midi": 63,
        "time": 46.2,
        "duration": 0.3,
        "velocity": 1,
        "hand": "right"
      },
      {
        "midi": 67,
        "time": 46.2,
        "duration": 0.285,
        "velocity": 1,
        "hand": "right"
      },
      {
        "midi": 70,
        "time": 46.2,
        "duration": 0.285,
        "velocity": 1,
        "hand": "right"
      },
      {
        "midi": 58,
        "time": 46.5,
        "duration": 0.285,
        "velocity": 1,
        "hand": "left"
      },
      {
        "midi": 67,
        "time": 46.5,
        "duration": 0.285,
        "velocity": 1,
        "hand": "right"
      },
      {
        "midi": 70,
        "time": 46.5,
        "duration": 0.285,
        "velocity": 1,
        "hand": "right"
      },
      {
        "midi": 51,
        "time": 46.8,
        "duration": 0.585,
        "velocity": 1,
        "hand": "left"
      },
      {
        "midi": 58,
        "time": 46.8,
        "duration": 0.285,
        "velocity": 1,
        "hand": "left"
      },
      {
        "midi": 67,
        "time": 46.8,
        "duration": 0.285,
        "velocity": 1,
        "hand": "right"
      },
      {
        "midi": 70,
        "time": 46.8,
        "duration": 0.285,
        "velocity": 1,
        "hand": "right"
      },
      {
        "midi": 58,
        "time": 47.1,
        "duration": 0.285,
        "velocity": 1,
        "hand": "left"
      },
      {
        "midi": 67,
        "time": 47.1,
        "duration": 0.285,
        "velocity": 1,
        "hand": "right"
      },
      {
        "midi": 70,
        "time": 47.1,
        "duration": 0.3,
        "velocity": 1,
        "hand": "right"
      },
      {
        "midi": 51,
        "time": 47.4,
        "duration": 0.585,
        "velocity": 1,
        "hand": "left"
      },
      {
        "midi": 58,
        "time": 47.4,
        "duration": 0.585,
        "velocity": 1,
        "hand": "left"
      },
      {
        "midi": 60,
        "time": 47.4,
        "duration": 0.285,
        "velocity": 1,
        "hand": "right"
      },
      {
        "midi": 63,
        "time": 47.4,
        "duration": 0.3,
        "velocity": 1,
        "hand": "right"
      },
      {
        "midi": 67,
        "time": 47.4,
        "duration": 0.285,
        "velocity": 1,
        "hand": "right"
      },
      {
        "midi": 60,
        "time": 47.7,
        "duration": 0.3,
        "velocity": 1,
        "hand": "right"
      },
      {
        "midi": 67,
        "time": 47.7,
        "duration": 0.3,
        "velocity": 1,
        "hand": "right"
      },
      {
        "midi": 72,
        "time": 47.7,
        "duration": 0.285,
        "velocity": 1,
        "hand": "right"
      },
      {
        "midi": 51,
        "time": 48,
        "duration": 1.185,
        "velocity": 1,
        "hand": "left"
      },
      {
        "midi": 58,
        "time": 48,
        "duration": 0.285,
        "velocity": 1,
        "hand": "left"
      },
      {
        "midi": 66,
        "time": 48,
        "duration": 0.285,
        "velocity": 1,
        "hand": "right"
      },
      {
        "midi": 72,
        "time": 48,
        "duration": 0.285,
        "velocity": 1,
        "hand": "right"
      },
      {
        "midi": 58,
        "time": 48.3,
        "duration": 0.585,
        "velocity": 1,
        "hand": "left"
      },
      {
        "midi": 66,
        "time": 48.3,
        "duration": 0.285,
        "velocity": 1,
        "hand": "right"
      },
      {
        "midi": 72,
        "time": 48.3,
        "duration": 0.3,
        "velocity": 1,
        "hand": "right"
      },
      {
        "midi": 60,
        "time": 48.6,
        "duration": 0.3,
        "velocity": 1,
        "hand": "right"
      },
      {
        "midi": 66,
        "time": 48.6,
        "duration": 0.285,
        "velocity": 1,
        "hand": "right"
      },
      {
        "midi": 58,
        "time": 48.9,
        "duration": 0.3,
        "velocity": 1,
        "hand": "left"
      },
      {
        "midi": 66,
        "time": 48.9,
        "duration": 0.285,
        "velocity": 1,
        "hand": "right"
      },
      {
        "midi": 72,
        "time": 48.9,
        "duration": 0.285,
        "velocity": 1,
        "hand": "right"
      },
      {
        "midi": 51,
        "time": 49.2,
        "duration": 1.185,
        "velocity": 1,
        "hand": "left"
      },
      {
        "midi": 57,
        "time": 49.2,
        "duration": 0.285,
        "velocity": 1,
        "hand": "left"
      },
      {
        "midi": 66,
        "time": 49.2,
        "duration": 0.285,
        "velocity": 1,
        "hand": "right"
      },
      {
        "midi": 72,
        "time": 49.2,
        "duration": 0.285,
        "velocity": 1,
        "hand": "right"
      },
      {
        "midi": 57,
        "time": 49.5,
        "duration": 0.585,
        "velocity": 1,
        "hand": "left"
      },
      {
        "midi": 66,
        "time": 49.5,
        "duration": 0.285,
        "velocity": 1,
        "hand": "right"
      },
      {
        "midi": 72,
        "time": 49.5,
        "duration": 0.3,
        "velocity": 1,
        "hand": "right"
      },
      {
        "midi": 60,
        "time": 49.8,
        "duration": 0.3,
        "velocity": 1,
        "hand": "right"
      },
      {
        "midi": 66,
        "time": 49.8,
        "duration": 0.285,
        "velocity": 1,
        "hand": "right"
      },
      {
        "midi": 57,
        "time": 50.1,
        "duration": 0.3,
        "velocity": 1,
        "hand": "left"
      },
      {
        "midi": 66,
        "time": 50.1,
        "duration": 0.285,
        "velocity": 1,
        "hand": "right"
      },
      {
        "midi": 72,
        "time": 50.1,
        "duration": 0.285,
        "velocity": 1,
        "hand": "right"
      },
      {
        "midi": 51,
        "time": 50.4,
        "duration": 1.185,
        "velocity": 1,
        "hand": "left"
      },
      {
        "midi": 54,
        "time": 50.4,
        "duration": 1.2,
        "velocity": 1,
        "hand": "left"
      },
      {
        "midi": 60,
        "time": 50.4,
        "duration": 0.585,
        "velocity": 1,
        "hand": "right"
      },
      {
        "midi": 66,
        "time": 50.4,
        "duration": 0.285,
        "velocity": 1,
        "hand": "right"
      },
      {
        "midi": 72,
        "time": 50.4,
        "duration": 0.285,
        "velocity": 1,
        "hand": "right"
      },
      {
        "midi": 78,
        "time": 50.4,
        "duration": 1.2,
        "velocity": 1,
        "hand": "right"
      },
      {
        "midi": 58,
        "time": 50.7,
        "duration": 0.585,
        "velocity": 1,
        "hand": "left"
      },
      {
        "midi": 66,
        "time": 50.7,
        "duration": 0.285,
        "velocity": 1,
        "hand": "right"
      },
      {
        "midi": 72,
        "time": 50.7,
        "duration": 0.3,
        "velocity": 1,
        "hand": "right"
      },
      {
        "midi": 60,
        "time": 51,
        "duration": 0.3,
        "velocity": 1,
        "hand": "right"
      },
      {
        "midi": 66,
        "time": 51,
        "duration": 0.285,
        "velocity": 1,
        "hand": "right"
      },
      {
        "midi": 58,
        "time": 51.3,
        "duration": 0.3,
        "velocity": 1,
        "hand": "left"
      },
      {
        "midi": 66,
        "time": 51.3,
        "duration": 0.3,
        "velocity": 1,
        "hand": "right"
      },
      {
        "midi": 72,
        "time": 51.3,
        "duration": 0.3,
        "velocity": 1,
        "hand": "right"
      },
      {
        "midi": 51,
        "time": 51.6,
        "duration": 0.6,
        "velocity": 1,
        "hand": "left"
      },
      {
        "midi": 53,
        "time": 51.6,
        "duration": 0.6,
        "velocity": 1,
        "hand": "left"
      },
      {
        "midi": 65,
        "time": 51.6,
        "duration": 0.285,
        "velocity": 1,
        "hand": "right"
      },
      {
        "midi": 77,
        "time": 51.6,
        "duration": 0.6,
        "velocity": 1,
        "hand": "right"
      },
      {
        "midi": 57,
        "time": 51.9,
        "duration": 0.585,
        "velocity": 1,
        "hand": "left"
      },
      {
        "midi": 65,
        "time": 51.9,
        "duration": 0.285,
        "velocity": 1,
        "hand": "right"
      },
      {
        "midi": 72,
        "time": 51.9,
        "duration": 0.3,
        "velocity": 1,
        "hand": "right"
      },
      {
        "midi": 60,
        "time": 52.2,
        "duration": 0.3,
        "velocity": 1,
        "hand": "right"
      },
      {
        "midi": 65,
        "time": 52.2,
        "duration": 0.285,
        "velocity": 1,
        "hand": "right"
      },
      {
        "midi": 57,
        "time": 52.5,
        "duration": 0.3,
        "velocity": 1,
        "hand": "left"
      },
      {
        "midi": 65,
        "time": 52.5,
        "duration": 0.285,
        "velocity": 1,
        "hand": "right"
      },
      {
        "midi": 72,
        "time": 52.5,
        "duration": 0.3,
        "velocity": 1,
        "hand": "right"
      },
      {
        "midi": 50,
        "time": 52.8,
        "duration": 1.185,
        "velocity": 1,
        "hand": "left"
      },
      {
        "midi": 56,
        "time": 52.8,
        "duration": 0.285,
        "velocity": 1,
        "hand": "left"
      },
      {
        "midi": 68,
        "time": 52.8,
        "duration": 0.285,
        "velocity": 1,
        "hand": "right"
      },
      {
        "midi": 71,
        "time": 52.8,
        "duration": 0.285,
        "velocity": 1,
        "hand": "right"
      },
      {
        "midi": 77,
        "time": 52.8,
        "duration": 1.8,
        "velocity": 1,
        "hand": "right"
      },
      {
        "midi": 80,
        "time": 52.8,
        "duration": 1.2,
        "velocity": 1,
        "hand": "right"
      },
      {
        "midi": 56,
        "time": 53.1,
        "duration": 0.585,
        "velocity": 1,
        "hand": "left"
      },
      {
        "midi": 68,
        "time": 53.1,
        "duration": 0.285,
        "velocity": 1,
        "hand": "right"
      },
      {
        "midi": 71,
        "time": 53.1,
        "duration": 0.3,
        "velocity": 1,
        "hand": "right"
      },
      {
        "midi": 65,
        "time": 53.4,
        "duration": 0.3,
        "velocity": 1,
        "hand": "right"
      },
      {
        "midi": 68,
        "time": 53.4,
        "duration": 0.285,
        "velocity": 1,
        "hand": "right"
      },
      {
        "midi": 56,
        "time": 53.7,
        "duration": 0.3,
        "velocity": 1,
        "hand": "left"
      },
      {
        "midi": 68,
        "time": 53.7,
        "duration": 0.3,
        "velocity": 1,
        "hand": "right"
      },
      {
        "midi": 71,
        "time": 53.7,
        "duration": 0.3,
        "velocity": 1,
        "hand": "right"
      },
      {
        "midi": 50,
        "time": 54,
        "duration": 0.585,
        "velocity": 1,
        "hand": "left"
      },
      {
        "midi": 56,
        "time": 54.3,
        "duration": 0.285,
        "velocity": 1,
        "hand": "left"
      },
      {
        "midi": 65,
        "time": 54.3,
        "duration": 0.285,
        "velocity": 1,
        "hand": "right"
      },
      {
        "midi": 71,
        "time": 54.3,
        "duration": 0.285,
        "velocity": 1,
        "hand": "right"
      },
      {
        "midi": 50,
        "time": 54.6,
        "duration": 0.6,
        "velocity": 1,
        "hand": "left"
      },
      {
        "midi": 56,
        "time": 54.6,
        "duration": 0.285,
        "velocity": 1,
        "hand": "left"
      },
      {
        "midi": 65,
        "time": 54.6,
        "duration": 0.285,
        "velocity": 1,
        "hand": "right"
      },
      {
        "midi": 71,
        "time": 54.6,
        "duration": 0.285,
        "velocity": 1,
        "hand": "right"
      },
      {
        "midi": 56,
        "time": 54.9,
        "duration": 0.285,
        "velocity": 1,
        "hand": "left"
      },
      {
        "midi": 65,
        "time": 54.9,
        "duration": 0.285,
        "velocity": 1,
        "hand": "right"
      },
      {
        "midi": 71,
        "time": 54.9,
        "duration": 0.3,
        "velocity": 1,
        "hand": "right"
      },
      {
        "midi": 51,
        "time": 55.2,
        "duration": 1.2,
        "velocity": 1,
        "hand": "left"
      },
      {
        "midi": 56,
        "time": 55.2,
        "duration": 0.285,
        "velocity": 1,
        "hand": "left"
      },
      {
        "midi": 65,
        "time": 55.2,
        "duration": 0.285,
        "velocity": 1,
        "hand": "right"
      },
      {
        "midi": 70,
        "time": 55.2,
        "duration": 0.285,
        "velocity": 1,
        "hand": "right"
      },
      {
        "midi": 56,
        "time": 55.5,
        "duration": 0.3,
        "velocity": 1,
        "hand": "left"
      },
      {
        "midi": 65,
        "time": 55.5,
        "duration": 0.3,
        "velocity": 1,
        "hand": "right"
      },
      {
        "midi": 70,
        "time": 55.5,
        "duration": 0.6,
        "velocity": 1,
        "hand": "right"
      },
      {
        "midi": 55,
        "time": 55.8,
        "duration": 0.285,
        "velocity": 1,
        "hand": "left"
      },
      {
        "midi": 63,
        "time": 55.8,
        "duration": 0.6,
        "velocity": 1,
        "hand": "right"
      },
      {
        "midi": 55,
        "time": 56.1,
        "duration": 0.3,
        "velocity": 1,
        "hand": "left"
      },
      {
        "midi": 67,
        "time": 56.1,
        "duration": 0.3,
        "velocity": 1,
        "hand": "right"
      },
      {
        "midi": 44,
        "time": 56.4,
        "duration": 1.2,
        "velocity": 1,
        "hand": "left"
      },
      {
        "midi": 56,
        "time": 56.4,
        "duration": 0.285,
        "velocity": 1,
        "hand": "left"
      },
      {
        "midi": 60,
        "time": 56.4,
        "duration": 0.285,
        "velocity": 1,
        "hand": "right"
      },
      {
        "midi": 72,
        "time": 56.4,
        "duration": 0.285,
        "velocity": 1,
        "hand": "right"
      },
      {
        "midi": 56,
        "time": 56.7,
        "duration": 0.3,
        "velocity": 1,
        "hand": "left"
      },
      {
        "midi": 60,
        "time": 56.7,
        "duration": 0.285,
        "velocity": 1,
        "hand": "right"
      },
      {
        "midi": 72,
        "time": 56.7,
        "duration": 0.3,
        "velocity": 1,
        "hand": "right"
      },
      {
        "midi": 55,
        "time": 57,
        "duration": 0.3,
        "velocity": 1,
        "hand": "left"
      },
      {
        "midi": 60,
        "time": 57,
        "duration": 0.285,
        "velocity": 1,
        "hand": "right"
      },
      {
        "midi": 70,
        "time": 57,
        "duration": 0.3,
        "velocity": 1,
        "hand": "right"
      },
      {
        "midi": 53,
        "time": 57.3,
        "duration": 0.3,
        "velocity": 1,
        "hand": "left"
      },
      {
        "midi": 60,
        "time": 57.3,
        "duration": 0.3,
        "velocity": 1,
        "hand": "right"
      },
      {
        "midi": 68,
        "time": 57.3,
        "duration": 0.3,
        "velocity": 1,
        "hand": "right"
      },
      {
        "midi": 46,
        "time": 57.6,
        "duration": 0.885,
        "velocity": 1,
        "hand": "left"
      },
      {
        "midi": 51,
        "time": 57.6,
        "duration": 0.285,
        "velocity": 1,
        "hand": "left"
      },
      {
        "midi": 63,
        "time": 57.6,
        "duration": 0.285,
        "velocity": 1,
        "hand": "right"
      },
      {
        "midi": 67,
        "time": 57.6,
        "duration": 0.585,
        "velocity": 1,
        "hand": "right"
      },
      {
        "midi": 51,
        "time": 57.9,
        "duration": 0.6,
        "velocity": 1,
        "hand": "left"
      },
      {
        "midi": 58,
        "time": 57.9,
        "duration": 0.285,
        "velocity": 1,
        "hand": "left"
      },
      {
        "midi": 63,
        "time": 57.9,
        "duration": 0.6,
        "velocity": 1,
        "hand": "right"
      },
      {
        "midi": 58,
        "time": 58.2,
        "duration": 0.285,
        "velocity": 1,
        "hand": "left"
      },
      {
        "midi": 67,
        "time": 58.2,
        "duration": 0.3,
        "velocity": 1,
        "hand": "right"
      },
      {
        "midi": 46,
        "time": 58.5,
        "duration": 0.285,
        "velocity": 1,
        "hand": "left"
      },
      {
        "midi": 53,
        "time": 58.5,
        "duration": 0.3,
        "velocity": 1,
        "hand": "left"
      },
      {
        "midi": 68,
        "time": 58.5,
        "duration": 0.3,
        "velocity": 1,
        "hand": "right"
      },
      {
        "midi": 46,
        "time": 58.8,
        "duration": 1.185,
        "velocity": 1,
        "hand": "left"
      },
      {
        "midi": 50,
        "time": 58.8,
        "duration": 1.2,
        "velocity": 1,
        "hand": "left"
      },
      {
        "midi": 65,
        "time": 58.8,
        "duration": 0.585,
        "velocity": 1,
        "hand": "right"
      },
      {
        "midi": 53,
        "time": 59.1,
        "duration": 0.6,
        "velocity": 1,
        "hand": "left"
      },
      {
        "midi": 58,
        "time": 59.1,
        "duration": 0.3,
        "velocity": 1,
        "hand": "left"
      },
      {
        "midi": 62,
        "time": 59.1,
        "duration": 0.285,
        "velocity": 1,
        "hand": "right"
      },
      {
        "midi": 62,
        "time": 59.4,
        "duration": 0.3,
        "velocity": 1,
        "hand": "right"
      },
      {
        "midi": 65,
        "time": 59.4,
        "duration": 0.3,
        "velocity": 1,
        "hand": "right"
      },
      {
        "midi": 54,
        "time": 59.7,
        "duration": 0.3,
        "velocity": 1,
        "hand": "left"
      },
      {
        "midi": 63,
        "time": 59.7,
        "duration": 0.3,
        "velocity": 1,
        "hand": "right"
      },
      {
        "midi": 69,
        "time": 59.7,
        "duration": 0.3,
        "velocity": 1,
        "hand": "right"
      },
      {
        "midi": 46,
        "time": 60,
        "duration": 0.585,
        "velocity": 1,
        "hand": "left"
      },
      {
        "midi": 53,
        "time": 60,
        "duration": 0.6,
        "velocity": 1,
        "hand": "left"
      },
      {
        "midi": 62,
        "time": 60,
        "duration": 0.585,
        "velocity": 1,
        "hand": "right"
      },
      {
        "midi": 70,
        "time": 60,
        "duration": 0.585,
        "velocity": 1,
        "hand": "right"
      },
      {
        "midi": 46,
        "time": 60.6,
        "duration": 0.585,
        "velocity": 1,
        "hand": "left"
      },
      {
        "midi": 56,
        "time": 60.6,
        "duration": 0.6,
        "velocity": 1,
        "hand": "left"
      },
      {
        "midi": 62,
        "time": 60.6,
        "duration": 0.6,
        "velocity": 1,
        "hand": "right"
      },
      {
        "midi": 65,
        "time": 60.6,
        "duration": 0.6,
        "velocity": 1,
        "hand": "right"
      },
      {
        "midi": 70,
        "time": 60.6,
        "duration": 0.285,
        "velocity": 1,
        "hand": "right"
      },
      {
        "midi": 72,
        "time": 60.6,
        "duration": 0.3,
        "velocity": 1,
        "hand": "right"
      },
      {
        "midi": 70,
        "time": 60.9,
        "duration": 0.285,
        "velocity": 1,
        "hand": "right"
      },
      {
        "midi": 46,
        "time": 61.2,
        "duration": 0.585,
        "velocity": 1,
        "hand": "left"
      },
      {
        "midi": 55,
        "time": 61.2,
        "duration": 0.6,
        "velocity": 1,
        "hand": "left"
      },
      {
        "midi": 63,
        "time": 61.2,
        "duration": 0.6,
        "velocity": 1,
        "hand": "right"
      },
      {
        "midi": 67,
        "time": 61.2,
        "duration": 0.6,
        "velocity": 1,
        "hand": "right"
      },
      {
        "midi": 70,
        "time": 61.2,
        "duration": 0.285,
        "velocity": 1,
        "hand": "right"
      },
      {
        "midi": 72,
        "time": 61.2,
        "duration": 0.3,
        "velocity": 1,
        "hand": "right"
      },
      {
        "midi": 70,
        "time": 61.5,
        "duration": 0.285,
        "velocity": 1,
        "hand": "right"
      },
      {
        "midi": 46,
        "time": 61.8,
        "duration": 0.6,
        "velocity": 1,
        "hand": "left"
      },
      {
        "midi": 53,
        "time": 61.8,
        "duration": 0.6,
        "velocity": 1,
        "hand": "left"
      },
      {
        "midi": 62,
        "time": 61.8,
        "duration": 0.6,
        "velocity": 1,
        "hand": "right"
      },
      {
        "midi": 68,
        "time": 61.8,
        "duration": 0.6,
        "velocity": 1,
        "hand": "right"
      },
      {
        "midi": 70,
        "time": 61.8,
        "duration": 0.285,
        "velocity": 1,
        "hand": "right"
      },
      {
        "midi": 72,
        "time": 61.8,
        "duration": 0.3,
        "velocity": 1,
        "hand": "right"
      },
      {
        "midi": 70,
        "time": 62.1,
        "duration": 0.285,
        "velocity": 1,
        "hand": "right"
      },
      {
        "midi": 51,
        "time": 62.4,
        "duration": 1.185,
        "velocity": 1,
        "hand": "left"
      },
      {
        "midi": 55,
        "time": 62.4,
        "duration": 0.6,
        "velocity": 1,
        "hand": "left"
      },
      {
        "midi": 63,
        "time": 62.4,
        "duration": 0.585,
        "velocity": 1,
        "hand": "right"
      },
      {
        "midi": 67,
        "time": 62.4,
        "duration": 0.285,
        "velocity": 1,
        "hand": "right"
      },
      {
        "midi": 70,
        "time": 62.4,
        "duration": 0.285,
        "velocity": 1,
        "hand": "right"
      },
      {
        "midi": 58,
        "time": 62.7,
        "duration": 0.285,
        "velocity": 1,
        "hand": "left"
      },
      {
        "midi": 67,
        "time": 62.7,
        "duration": 0.285,
        "velocity": 1,
        "hand": "right"
      },
      {
        "midi": 70,
        "time": 62.7,
        "duration": 0.3,
        "velocity": 1,
        "hand": "right"
      },
      {
        "midi": 58,
        "time": 63,
        "duration": 0.285,
        "velocity": 1,
        "hand": "left"
      },
      {
        "midi": 63,
        "time": 63,
        "duration": 0.3,
        "velocity": 1,
        "hand": "right"
      },
      {
        "midi": 67,
        "time": 63,
        "duration": 0.285,
        "velocity": 1,
        "hand": "right"
      },
      {
        "midi": 58,
        "time": 63.3,
        "duration": 0.3,
        "velocity": 1,
        "hand": "left"
      },
      {
        "midi": 67,
        "time": 63.3,
        "duration": 0.3,
        "velocity": 1,
        "hand": "right"
      },
      {
        "midi": 70,
        "time": 63.3,
        "duration": 0.3,
        "velocity": 1,
        "hand": "right"
      },
      {
        "midi": 51,
        "time": 63.6,
        "duration": 0.585,
        "velocity": 1,
        "hand": "left"
      },
      {
        "midi": 58,
        "time": 63.9,
        "duration": 0.285,
        "velocity": 1,
        "hand": "left"
      },
      {
        "midi": 67,
        "time": 63.9,
        "duration": 0.285,
        "velocity": 1,
        "hand": "right"
      },
      {
        "midi": 70,
        "time": 63.9,
        "duration": 0.285,
        "velocity": 1,
        "hand": "right"
      },
      {
        "midi": 51,
        "time": 64.2,
        "duration": 0.585,
        "velocity": 1,
        "hand": "left"
      },
      {
        "midi": 58,
        "time": 64.2,
        "duration": 0.285,
        "velocity": 1,
        "hand": "left"
      },
      {
        "midi": 63,
        "time": 64.2,
        "duration": 0.3,
        "velocity": 1,
        "hand": "right"
      },
      {
        "midi": 67,
        "time": 64.2,
        "duration": 0.285,
        "velocity": 1,
        "hand": "right"
      },
      {
        "midi": 70,
        "time": 64.2,
        "duration": 0.285,
        "velocity": 1,
        "hand": "right"
      },
      {
        "midi": 58,
        "time": 64.5,
        "duration": 0.285,
        "velocity": 1,
        "hand": "left"
      },
      {
        "midi": 67,
        "time": 64.5,
        "duration": 0.285,
        "velocity": 1,
        "hand": "right"
      },
      {
        "midi": 70,
        "time": 64.5,
        "duration": 0.285,
        "velocity": 1,
        "hand": "right"
      },
      {
        "midi": 51,
        "time": 64.8,
        "duration": 0.585,
        "velocity": 1,
        "hand": "left"
      },
      {
        "midi": 58,
        "time": 64.8,
        "duration": 0.285,
        "velocity": 1,
        "hand": "left"
      },
      {
        "midi": 67,
        "time": 64.8,
        "duration": 0.285,
        "velocity": 1,
        "hand": "right"
      },
      {
        "midi": 70,
        "time": 64.8,
        "duration": 0.285,
        "velocity": 1,
        "hand": "right"
      },
      {
        "midi": 58,
        "time": 65.1,
        "duration": 0.285,
        "velocity": 1,
        "hand": "left"
      },
      {
        "midi": 67,
        "time": 65.1,
        "duration": 0.285,
        "velocity": 1,
        "hand": "right"
      },
      {
        "midi": 70,
        "time": 65.1,
        "duration": 0.285,
        "velocity": 1,
        "hand": "right"
      },
      {
        "midi": 51,
        "time": 65.4,
        "duration": 0.585,
        "velocity": 1,
        "hand": "left"
      },
      {
        "midi": 58,
        "time": 65.4,
        "duration": 0.285,
        "velocity": 1,
        "hand": "left"
      },
      {
        "midi": 63,
        "time": 65.4,
        "duration": 0.3,
        "velocity": 1,
        "hand": "right"
      },
      {
        "midi": 67,
        "time": 65.4,
        "duration": 0.285,
        "velocity": 1,
        "hand": "right"
      },
      {
        "midi": 70,
        "time": 65.4,
        "duration": 0.285,
        "velocity": 1,
        "hand": "right"
      },
      {
        "midi": 58,
        "time": 65.7,
        "duration": 0.3,
        "velocity": 1,
        "hand": "left"
      },
      {
        "midi": 67,
        "time": 65.7,
        "duration": 0.285,
        "velocity": 1,
        "hand": "right"
      },
      {
        "midi": 70,
        "time": 65.7,
        "duration": 0.285,
        "velocity": 1,
        "hand": "right"
      },
      {
        "midi": 51,
        "time": 66,
        "duration": 0.585,
        "velocity": 1,
        "hand": "left"
      },
      {
        "midi": 63,
        "time": 66,
        "duration": 0.585,
        "velocity": 1,
        "hand": "right"
      },
      {
        "midi": 67,
        "time": 66,
        "duration": 0.285,
        "velocity": 1,
        "hand": "right"
      },
      {
        "midi": 70,
        "time": 66,
        "duration": 0.285,
        "velocity": 1,
        "hand": "right"
      },
      {
        "midi": 67,
        "time": 66.3,
        "duration": 0.285,
        "velocity": 1,
        "hand": "right"
      },
      {
        "midi": 70,
        "time": 66.3,
        "duration": 0.3,
        "velocity": 1,
        "hand": "right"
      },
      {
        "midi": 51,
        "time": 66.6,
        "duration": 0.585,
        "velocity": 1,
        "hand": "left"
      },
      {
        "midi": 60,
        "time": 66.6,
        "duration": 0.6,
        "velocity": 1,
        "hand": "right"
      },
      {
        "midi": 63,
        "time": 66.6,
        "duration": 0.3,
        "velocity": 1,
        "hand": "right"
      },
      {
        "midi": 67,
        "time": 66.6,
        "duration": 0.285,
        "velocity": 1,
        "hand": "right"
      },
      {
        "midi": 72,
        "time": 66.6,
        "duration": 0.585,
        "velocity": 1,
        "hand": "right"
      },
      {
        "midi": 67,
        "time": 66.9,
        "duration": 0.3,
        "velocity": 1,
        "hand": "right"
      },
      {
        "midi": 51,
        "time": 67.2,
        "duration": 1.185,
        "velocity": 1,
        "hand": "left"
      },
      {
        "midi": 58,
        "time": 67.2,
        "duration": 0.285,
        "velocity": 1,
        "hand": "left"
      },
      {
        "midi": 66,
        "time": 67.2,
        "duration": 0.285,
        "velocity": 1,
        "hand": "right"
      },
      {
        "midi": 72,
        "time": 67.2,
        "duration": 0.285,
        "velocity": 1,
        "hand": "right"
      },
      {
        "midi": 58,
        "time": 67.5,
        "duration": 0.585,
        "velocity": 1,
        "hand": "left"
      },
      {
        "midi": 66,
        "time": 67.5,
        "duration": 0.285,
        "velocity": 1,
        "hand": "right"
      },
      {
        "midi": 72,
        "time": 67.5,
        "duration": 0.3,
        "velocity": 1,
        "hand": "right"
      },
      {
        "midi": 60,
        "time": 67.8,
        "duration": 0.3,
        "velocity": 1,
        "hand": "right"
      },
      {
        "midi": 66,
        "time": 67.8,
        "duration": 0.285,
        "velocity": 1,
        "hand": "right"
      },
      {
        "midi": 58,
        "time": 68.1,
        "duration": 0.3,
        "velocity": 1,
        "hand": "left"
      },
      {
        "midi": 66,
        "time": 68.1,
        "duration": 0.285,
        "velocity": 1,
        "hand": "right"
      },
      {
        "midi": 72,
        "time": 68.1,
        "duration": 0.285,
        "velocity": 1,
        "hand": "right"
      },
      {
        "midi": 51,
        "time": 68.4,
        "duration": 1.185,
        "velocity": 1,
        "hand": "left"
      },
      {
        "midi": 57,
        "time": 68.4,
        "duration": 0.285,
        "velocity": 1,
        "hand": "left"
      },
      {
        "midi": 66,
        "time": 68.4,
        "duration": 0.285,
        "velocity": 1,
        "hand": "right"
      },
      {
        "midi": 72,
        "time": 68.4,
        "duration": 0.285,
        "velocity": 1,
        "hand": "right"
      },
      {
        "midi": 57,
        "time": 68.7,
        "duration": 0.585,
        "velocity": 1,
        "hand": "left"
      },
      {
        "midi": 66,
        "time": 68.7,
        "duration": 0.285,
        "velocity": 1,
        "hand": "right"
      },
      {
        "midi": 72,
        "time": 68.7,
        "duration": 0.3,
        "velocity": 1,
        "hand": "right"
      },
      {
        "midi": 60,
        "time": 69,
        "duration": 0.3,
        "velocity": 1,
        "hand": "right"
      },
      {
        "midi": 66,
        "time": 69,
        "duration": 0.285,
        "velocity": 1,
        "hand": "right"
      },
      {
        "midi": 57,
        "time": 69.3,
        "duration": 0.3,
        "velocity": 1,
        "hand": "left"
      },
      {
        "midi": 66,
        "time": 69.3,
        "duration": 0.285,
        "velocity": 1,
        "hand": "right"
      },
      {
        "midi": 72,
        "time": 69.3,
        "duration": 0.285,
        "velocity": 1,
        "hand": "right"
      },
      {
        "midi": 51,
        "time": 69.6,
        "duration": 1.185,
        "velocity": 1,
        "hand": "left"
      },
      {
        "midi": 54,
        "time": 69.6,
        "duration": 1.2,
        "velocity": 1,
        "hand": "left"
      },
      {
        "midi": 60,
        "time": 69.6,
        "duration": 0.585,
        "velocity": 1,
        "hand": "right"
      },
      {
        "midi": 66,
        "time": 69.6,
        "duration": 0.285,
        "velocity": 1,
        "hand": "right"
      },
      {
        "midi": 72,
        "time": 69.6,
        "duration": 0.285,
        "velocity": 1,
        "hand": "right"
      },
      {
        "midi": 78,
        "time": 69.6,
        "duration": 1.2,
        "velocity": 1,
        "hand": "right"
      },
      {
        "midi": 58,
        "time": 69.9,
        "duration": 0.585,
        "velocity": 1,
        "hand": "left"
      },
      {
        "midi": 66,
        "time": 69.9,
        "duration": 0.285,
        "velocity": 1,
        "hand": "right"
      },
      {
        "midi": 72,
        "time": 69.9,
        "duration": 0.3,
        "velocity": 1,
        "hand": "right"
      },
      {
        "midi": 60,
        "time": 70.2,
        "duration": 0.3,
        "velocity": 1,
        "hand": "right"
      },
      {
        "midi": 66,
        "time": 70.2,
        "duration": 0.285,
        "velocity": 1,
        "hand": "right"
      },
      {
        "midi": 58,
        "time": 70.5,
        "duration": 0.3,
        "velocity": 1,
        "hand": "left"
      },
      {
        "midi": 66,
        "time": 70.5,
        "duration": 0.3,
        "velocity": 1,
        "hand": "right"
      },
      {
        "midi": 72,
        "time": 70.5,
        "duration": 0.3,
        "velocity": 1,
        "hand": "right"
      },
      {
        "midi": 51,
        "time": 70.8,
        "duration": 0.6,
        "velocity": 1,
        "hand": "left"
      },
      {
        "midi": 53,
        "time": 70.8,
        "duration": 0.6,
        "velocity": 1,
        "hand": "left"
      },
      {
        "midi": 65,
        "time": 70.8,
        "duration": 0.285,
        "velocity": 1,
        "hand": "right"
      },
      {
        "midi": 77,
        "time": 70.8,
        "duration": 0.6,
        "velocity": 1,
        "hand": "right"
      },
      {
        "midi": 57,
        "time": 71.1,
        "duration": 0.585,
        "velocity": 1,
        "hand": "left"
      },
      {
        "midi": 65,
        "time": 71.1,
        "duration": 0.285,
        "velocity": 1,
        "hand": "right"
      },
      {
        "midi": 72,
        "time": 71.1,
        "duration": 0.3,
        "velocity": 1,
        "hand": "right"
      },
      {
        "midi": 60,
        "time": 71.4,
        "duration": 0.3,
        "velocity": 1,
        "hand": "right"
      },
      {
        "midi": 65,
        "time": 71.4,
        "duration": 0.285,
        "velocity": 1,
        "hand": "right"
      },
      {
        "midi": 57,
        "time": 71.7,
        "duration": 0.3,
        "velocity": 1,
        "hand": "left"
      },
      {
        "midi": 65,
        "time": 71.7,
        "duration": 0.285,
        "velocity": 1,
        "hand": "right"
      },
      {
        "midi": 72,
        "time": 71.7,
        "duration": 0.3,
        "velocity": 1,
        "hand": "right"
      },
      {
        "midi": 39,
        "time": 72,
        "duration": 0.285,
        "velocity": 1,
        "hand": "left"
      },
      {
        "midi": 50,
        "time": 72,
        "duration": 1.185,
        "velocity": 1,
        "hand": "left"
      },
      {
        "midi": 65,
        "time": 72,
        "duration": 0.585,
        "velocity": 1,
        "hand": "right"
      },
      {
        "midi": 70,
        "time": 72,
        "duration": 0.285,
        "velocity": 1,
        "hand": "right"
      },
      {
        "midi": 77,
        "time": 72,
        "duration": 0.885,
        "velocity": 1,
        "hand": "right"
      },
      {
        "midi": 39,
        "time": 72.3,
        "duration": 0.285,
        "velocity": 1,
        "hand": "left"
      },
      {
        "midi": 58,
        "time": 72.3,
        "duration": 0.585,
        "velocity": 1,
        "hand": "left"
      },
      {
        "midi": 70,
        "time": 72.3,
        "duration": 0.285,
        "velocity": 1,
        "hand": "right"
      },
      {
        "midi": 74,
        "time": 72.3,
        "duration": 0.3,
        "velocity": 1,
        "hand": "right"
      },
      {
        "midi": 39,
        "time": 72.6,
        "duration": 0.285,
        "velocity": 1,
        "hand": "left"
      },
      {
        "midi": 65,
        "time": 72.6,
        "duration": 0.3,
        "velocity": 1,
        "hand": "right"
      },
      {
        "midi": 70,
        "time": 72.6,
        "duration": 0.285,
        "velocity": 1,
        "hand": "right"
      },
      {
        "midi": 39,
        "time": 72.9,
        "duration": 0.285,
        "velocity": 1,
        "hand": "left"
      },
      {
        "midi": 58,
        "time": 72.9,
        "duration": 0.3,
        "velocity": 1,
        "hand": "left"
      },
      {
        "midi": 70,
        "time": 72.9,
        "duration": 0.3,
        "velocity": 1,
        "hand": "right"
      },
      {
        "midi": 77,
        "time": 72.9,
        "duration": 0.3,
        "velocity": 1,
        "hand": "right"
      },
      {
        "midi": 39,
        "time": 73.2,
        "duration": 0.6,
        "velocity": 1,
        "hand": "left"
      },
      {
        "midi": 50,
        "time": 73.2,
        "duration": 0.585,
        "velocity": 1,
        "hand": "left"
      },
      {
        "midi": 62,
        "time": 73.5,
        "duration": 0.285,
        "velocity": 1,
        "hand": "right"
      },
      {
        "midi": 70,
        "time": 73.5,
        "duration": 0.285,
        "velocity": 1,
        "hand": "right"
      },
      {
        "midi": 77,
        "time": 73.5,
        "duration": 0.285,
        "velocity": 1,
        "hand": "right"
      },
      {
        "midi": 50,
        "time": 73.8,
        "duration": 0.6,
        "velocity": 1,
        "hand": "left"
      },
      {
        "midi": 62,
        "time": 73.8,
        "duration": 0.285,
        "velocity": 1,
        "hand": "right"
      },
      {
        "midi": 65,
        "time": 73.8,
        "duration": 0.3,
        "velocity": 1,
        "hand": "right"
      },
      {
        "midi": 70,
        "time": 73.8,
        "duration": 0.285,
        "velocity": 1,
        "hand": "right"
      },
      {
        "midi": 77,
        "time": 73.8,
        "duration": 0.285,
        "velocity": 1,
        "hand": "right"
      },
      {
        "midi": 62,
        "time": 74.1,
        "duration": 0.285,
        "velocity": 1,
        "hand": "right"
      },
      {
        "midi": 70,
        "time": 74.1,
        "duration": 0.285,
        "velocity": 1,
        "hand": "right"
      },
      {
        "midi": 77,
        "time": 74.1,
        "duration": 0.3,
        "velocity": 1,
        "hand": "right"
      },
      {
        "midi": 51,
        "time": 74.4,
        "duration": 0.585,
        "velocity": 1,
        "hand": "left"
      },
      {
        "midi": 62,
        "time": 74.4,
        "duration": 0.6,
        "velocity": 1,
        "hand": "right"
      },
      {
        "midi": 70,
        "time": 74.4,
        "duration": 0.285,
        "velocity": 1,
        "hand": "right"
      },
      {
        "midi": 79,
        "time": 74.4,
        "duration": 0.285,
        "velocity": 1,
        "hand": "right"
      },
      {
        "midi": 70,
        "time": 74.7,
        "duration": 0.285,
        "velocity": 1,
        "hand": "right"
      },
      {
        "midi": 79,
        "time": 74.7,
        "duration": 0.285,
        "velocity": 1,
        "hand": "right"
      },
      {
        "midi": 39,
        "time": 75,
        "duration": 0.585,
        "velocity": 1,
        "hand": "left"
      },
      {
        "midi": 51,
        "time": 75,
        "duration": 0.6,
        "velocity": 1,
        "hand": "left"
      },
      {
        "midi": 60,
        "time": 75,
        "duration": 0.6,
        "velocity": 1,
        "hand": "right"
      },
      {
        "midi": 67,
        "time": 75,
        "duration": 0.3,
        "velocity": 1,
        "hand": "right"
      },
      {
        "midi": 70,
        "time": 75,
        "duration": 0.285,
        "velocity": 1,
        "hand": "right"
      },
      {
        "midi": 79,
        "time": 75,
        "duration": 0.285,
        "velocity": 1,
        "hand": "right"
      },
      {
        "midi": 70,
        "time": 75.3,
        "duration": 0.285,
        "velocity": 1,
        "hand": "right"
      },
      {
        "midi": 79,
        "time": 75.3,
        "duration": 0.3,
        "velocity": 1,
        "hand": "right"
      },
      {
        "midi": 39,
        "time": 75.6,
        "duration": 0.585,
        "velocity": 1,
        "hand": "left"
      },
      {
        "midi": 50,
        "time": 75.6,
        "duration": 0.6,
        "velocity": 1,
        "hand": "left"
      },
      {
        "midi": 62,
        "time": 75.6,
        "duration": 0.6,
        "velocity": 1,
        "hand": "right"
      },
      {
        "midi": 65,
        "time": 75.6,
        "duration": 0.3,
        "velocity": 1,
        "hand": "right"
      },
      {
        "midi": 70,
        "time": 75.6,
        "duration": 0.285,
        "velocity": 1,
        "hand": "right"
      },
      {
        "midi": 77,
        "time": 75.6,
        "duration": 0.285,
        "velocity": 1,
        "hand": "right"
      },
      {
        "midi": 70,
        "time": 75.9,
        "duration": 0.285,
        "velocity": 1,
        "hand": "right"
      },
      {
        "midi": 77,
        "time": 75.9,
        "duration": 0.3,
        "velocity": 1,
        "hand": "right"
      },
      {
        "midi": 39,
        "time": 76.2,
        "duration": 0.585,
        "velocity": 1,
        "hand": "left"
      },
      {
        "midi": 48,
        "time": 76.2,
        "duration": 0.6,
        "velocity": 1,
        "hand": "left"
      },
      {
        "midi": 70,
        "time": 76.2,
        "duration": 0.285,
        "velocity": 1,
        "hand": "right"
      },
      {
        "midi": 72,
        "time": 76.2,
        "duration": 0.6,
        "velocity": 1,
        "hand": "right"
      },
      {
        "midi": 75,
        "time": 76.2,
        "duration": 0.285,
        "velocity": 1,
        "hand": "right"
      },
      {
        "midi": 79,
        "time": 76.2,
        "duration": 0.6,
        "velocity": 1,
        "hand": "right"
      },
      {
        "midi": 70,
        "time": 76.5,
        "duration": 0.285,
        "velocity": 1,
        "hand": "right"
      },
      {
        "midi": 75,
        "time": 76.5,
        "duration": 0.3,
        "velocity": 1,
        "hand": "right"
      },
      {
        "midi": 39,
        "time": 76.8,
        "duration": 0.6,
        "velocity": 1,
        "hand": "left"
      },
      {
        "midi": 53,
        "time": 76.8,
        "duration": 1.185,
        "velocity": 1,
        "hand": "left"
      },
      {
        "midi": 65,
        "time": 76.8,
        "duration": 0.285,
        "velocity": 1,
        "hand": "right"
      },
      {
        "midi": 70,
        "time": 76.8,
        "duration": 0.285,
        "velocity": 1,
        "hand": "right"
      },
      {
        "midi": 74,
        "time": 76.8,
        "duration": 0.285,
        "velocity": 1,
        "hand": "right"
      },
      {
        "midi": 77,
        "time": 76.8,
        "duration": 1.185,
        "velocity": 1,
        "hand": "right"
      },
      {
        "midi": 65,
        "time": 77.1,
        "duration": 0.585,
        "velocity": 1,
        "hand": "right"
      },
      {
        "midi": 70,
        "time": 77.1,
        "duration": 0.3,
        "velocity": 1,
        "hand": "right"
      },
      {
        "midi": 74,
        "time": 77.1,
        "duration": 0.3,
        "velocity": 1,
        "hand": "right"
      },
      {
        "midi": 65,
        "time": 77.7,
        "duration": 0.3,
        "velocity": 1,
        "hand": "right"
      },
      {
        "midi": 70,
        "time": 77.7,
        "duration": 0.3,
        "velocity": 1,
        "hand": "right"
      },
      {
        "midi": 74,
        "time": 77.7,
        "duration": 0.3,
        "velocity": 1,
        "hand": "right"
      },
      {
        "midi": 41,
        "time": 78,
        "duration": 1.2,
        "velocity": 1,
        "hand": "left"
      },
      {
        "midi": 53,
        "time": 78,
        "duration": 1.2,
        "velocity": 1,
        "hand": "left"
      },
      {
        "midi": 63,
        "time": 78,
        "duration": 0.585,
        "velocity": 1,
        "hand": "right"
      },
      {
        "midi": 69,
        "time": 78,
        "duration": 0.285,
        "velocity": 1,
        "hand": "right"
      },
      {
        "midi": 77,
        "time": 78,
        "duration": 1.185,
        "velocity": 1,
        "hand": "right"
      },
      {
        "midi": 65,
        "time": 78.3,
        "duration": 0.585,
        "velocity": 1,
        "hand": "right"
      },
      {
        "midi": 69,
        "time": 78.3,
        "duration": 0.3,
        "velocity": 1,
        "hand": "right"
      },
      {
        "midi": 74,
        "time": 78.3,
        "duration": 0.3,
        "velocity": 1,
        "hand": "right"
      },
      {
        "midi": 63,
        "time": 78.6,
        "duration": 0.6,
        "velocity": 1,
        "hand": "right"
      },
      {
        "midi": 72,
        "time": 78.6,
        "duration": 0.285,
        "velocity": 1,
        "hand": "right"
      },
      {
        "midi": 65,
        "time": 78.9,
        "duration": 0.285,
        "velocity": 1,
        "hand": "right"
      },
      {
        "midi": 69,
        "time": 78.9,
        "duration": 0.3,
        "velocity": 1,
        "hand": "right"
      },
      {
        "midi": 72,
        "time": 78.9,
        "duration": 0.3,
        "velocity": 1,
        "hand": "right"
      },
      {
        "midi": 39,
        "time": 79.2,
        "duration": 0.585,
        "velocity": 1,
        "hand": "left"
      },
      {
        "midi": 46,
        "time": 79.2,
        "duration": 1.2,
        "velocity": 1,
        "hand": "left"
      },
      {
        "midi": 62,
        "time": 79.2,
        "duration": 0.585,
        "velocity": 1,
        "hand": "right"
      },
      {
        "midi": 65,
        "time": 79.2,
        "duration": 0.6,
        "velocity": 1,
        "hand": "right"
      },
      {
        "midi": 70,
        "time": 79.2,
        "duration": 0.285,
        "velocity": 1,
        "hand": "right"
      },
      {
        "midi": 77,
        "time": 79.2,
        "duration": 0.6,
        "velocity": 1,
        "hand": "right"
      },
      {
        "midi": 70,
        "time": 79.5,
        "duration": 0.285,
        "velocity": 1,
        "hand": "right"
      },
      {
        "midi": 39,
        "time": 79.8,
        "duration": 0.3,
        "velocity": 1,
        "hand": "left"
      },
      {
        "midi": 58,
        "time": 79.8,
        "duration": 0.585,
        "velocity": 1,
        "hand": "left"
      },
      {
        "midi": 62,
        "time": 79.8,
        "duration": 0.3,
        "velocity": 1,
        "hand": "right"
      },
      {
        "midi": 70,
        "time": 79.8,
        "duration": 0.585,
        "velocity": 1,
        "hand": "right"
      },
      {
        "midi": 74,
        "time": 79.8,
        "duration": 0.3,
        "velocity": 1,
        "hand": "right"
      },
      {
        "midi": 82,
        "time": 79.8,
        "duration": 0.585,
        "velocity": 1,
        "hand": "right"
      },
      {
        "midi": 65,
        "time": 80.1,
        "duration": 0.3,
        "velocity": 1,
        "hand": "right"
      },
      {
        "midi": 77,
        "time": 80.1,
        "duration": 0.3,
        "velocity": 1,
        "hand": "right"
      },
      {
        "midi": 39,
        "time": 80.4,
        "duration": 0.585,
        "velocity": 1,
        "hand": "left"
      },
      {
        "midi": 54,
        "time": 80.4,
        "duration": 0.6,
        "velocity": 1,
        "hand": "left"
      },
      {
        "midi": 63,
        "time": 80.4,
        "duration": 0.585,
        "velocity": 1,
        "hand": "right"
      },
      {
        "midi": 70,
        "time": 80.4,
        "duration": 0.585,
        "velocity": 1,
        "hand": "right"
      },
      {
        "midi": 75,
        "time": 80.4,
        "duration": 0.585,
        "velocity": 1,
        "hand": "right"
      },
      {
        "midi": 82,
        "time": 80.4,
        "duration": 0.585,
        "velocity": 1,
        "hand": "right"
      },
      {
        "midi": 65,
        "time": 80.7,
        "duration": 0.3,
        "velocity": 1,
        "hand": "right"
      },
      {
        "midi": 77,
        "time": 80.7,
        "duration": 0.3,
        "velocity": 1,
        "hand": "right"
      },
      {
        "midi": 39,
        "time": 81,
        "duration": 0.585,
        "velocity": 1,
        "hand": "left"
      },
      {
        "midi": 51,
        "time": 81,
        "duration": 0.6,
        "velocity": 1,
        "hand": "left"
      },
      {
        "midi": 70,
        "time": 81,
        "duration": 0.285,
        "velocity": 1,
        "hand": "right"
      },
      {
        "midi": 75,
        "time": 81,
        "duration": 0.6,
        "velocity": 1,
        "hand": "right"
      },
      {
        "midi": 78,
        "time": 81,
        "duration": 0.6,
        "velocity": 1,
        "hand": "right"
      },
      {
        "midi": 82,
        "time": 81,
        "duration": 0.285,
        "velocity": 1,
        "hand": "right"
      },
      {
        "midi": 70,
        "time": 81.3,
        "duration": 0.285,
        "velocity": 1,
        "hand": "right"
      },
      {
        "midi": 82,
        "time": 81.3,
        "duration": 0.285,
        "velocity": 1,
        "hand": "right"
      },
      {
        "midi": 39,
        "time": 81.6,
        "duration": 0.6,
        "velocity": 1,
        "hand": "left"
      },
      {
        "midi": 53,
        "time": 81.6,
        "duration": 1.2,
        "velocity": 1,
        "hand": "left"
      },
      {
        "midi": 70,
        "time": 81.6,
        "duration": 0.885,
        "velocity": 1,
        "hand": "right"
      },
      {
        "midi": 74,
        "time": 81.6,
        "duration": 0.885,
        "velocity": 1,
        "hand": "right"
      },
      {
        "midi": 77,
        "time": 81.6,
        "duration": 0.585,
        "velocity": 1,
        "hand": "right"
      },
      {
        "midi": 82,
        "time": 81.6,
        "duration": 0.285,
        "velocity": 1,
        "hand": "right"
      },
      {
        "midi": 58,
        "time": 81.9,
        "duration": 0.585,
        "velocity": 1,
        "hand": "left"
      },
      {
        "midi": 62,
        "time": 81.9,
        "duration": 0.585,
        "velocity": 1,
        "hand": "right"
      },
      {
        "midi": 82,
        "time": 81.9,
        "duration": 0.3,
        "velocity": 1,
        "hand": "right"
      },
      {
        "midi": 65,
        "time": 82.2,
        "duration": 0.3,
        "velocity": 1,
        "hand": "right"
      },
      {
        "midi": 77,
        "time": 82.2,
        "duration": 0.3,
        "velocity": 1,
        "hand": "right"
      },
      {
        "midi": 58,
        "time": 82.5,
        "duration": 0.3,
        "velocity": 1,
        "hand": "left"
      },
      {
        "midi": 62,
        "time": 82.5,
        "duration": 0.3,
        "velocity": 1,
        "hand": "right"
      },
      {
        "midi": 70,
        "time": 82.5,
        "duration": 0.3,
        "velocity": 1,
        "hand": "right"
      },
      {
        "midi": 74,
        "time": 82.5,
        "duration": 0.3,
        "velocity": 1,
        "hand": "right"
      },
      {
        "midi": 41,
        "time": 82.8,
        "duration": 1.2,
        "velocity": 1,
        "hand": "left"
      },
      {
        "midi": 60,
        "time": 82.8,
        "duration": 0.285,
        "velocity": 1,
        "hand": "right"
      },
      {
        "midi": 65,
        "time": 82.8,
        "duration": 1.185,
        "velocity": 1,
        "hand": "right"
      },
      {
        "midi": 69,
        "time": 82.8,
        "duration": 0.285,
        "velocity": 1,
        "hand": "right"
      },
      {
        "midi": 77,
        "time": 82.8,
        "duration": 0.885,
        "velocity": 1,
        "hand": "right"
      },
      {
        "midi": 60,
        "time": 83.1,
        "duration": 0.585,
        "velocity": 1,
        "hand": "right"
      },
      {
        "midi": 69,
        "time": 83.1,
        "duration": 0.585,
        "velocity": 1,
        "hand": "right"
      },
      {
        "midi": 75,
        "time": 83.1,
        "duration": 0.3,
        "velocity": 1,
        "hand": "right"
      },
      {
        "midi": 74,
        "time": 83.4,
        "duration": 0.3,
        "velocity": 1,
        "hand": "right"
      },
      {
        "midi": 60,
        "time": 83.7,
        "duration": 0.3,
        "velocity": 1,
        "hand": "right"
      },
      {
        "midi": 69,
        "time": 83.7,
        "duration": 0.3,
        "velocity": 1,
        "hand": "right"
      },
      {
        "midi": 75,
        "time": 83.7,
        "duration": 0.3,
        "velocity": 1,
        "hand": "right"
      },
      {
        "midi": 77,
        "time": 83.7,
        "duration": 0.15,
        "velocity": 1,
        "hand": "right"
      },
      {
        "midi": 46,
        "time": 84,
        "duration": 0.6,
        "velocity": 1,
        "hand": "left"
      },
      {
        "midi": 58,
        "time": 84,
        "duration": 0.585,
        "velocity": 1,
        "hand": "left"
      },
      {
        "midi": 65,
        "time": 84,
        "duration": 0.285,
        "velocity": 1,
        "hand": "right"
      },
      {
        "midi": 70,
        "time": 84,
        "duration": 0.285,
        "velocity": 1,
        "hand": "right"
      },
      {
        "midi": 74,
        "time": 84,
        "duration": 0.6,
        "velocity": 1,
        "hand": "right"
      },
      {
        "midi": 77,
        "time": 84,
        "duration": 0.6,
        "velocity": 1,
        "hand": "right"
      },
      {
        "midi": 62,
        "time": 84.3,
        "duration": 0.285,
        "velocity": 1,
        "hand": "right"
      },
      {
        "midi": 65,
        "time": 84.3,
        "duration": 0.285,
        "velocity": 1,
        "hand": "right"
      },
      {
        "midi": 70,
        "time": 84.3,
        "duration": 0.285,
        "velocity": 1,
        "hand": "right"
      },
      {
        "midi": 58,
        "time": 84.6,
        "duration": 0.285,
        "velocity": 1,
        "hand": "left"
      },
      {
        "midi": 62,
        "time": 84.6,
        "duration": 0.285,
        "velocity": 1,
        "hand": "right"
      },
      {
        "midi": 65,
        "time": 84.6,
        "duration": 0.585,
        "velocity": 1,
        "hand": "right"
      },
      {
        "midi": 70,
        "time": 84.6,
        "duration": 1.185,
        "velocity": 1,
        "hand": "right"
      },
      {
        "midi": 53,
        "time": 84.9,
        "duration": 0.3,
        "velocity": 1,
        "hand": "left"
      },
      {
        "midi": 58,
        "time": 84.9,
        "duration": 0.285,
        "velocity": 1,
        "hand": "left"
      },
      {
        "midi": 62,
        "time": 84.9,
        "duration": 0.285,
        "velocity": 1,
        "hand": "right"
      },
      {
        "midi": 46,
        "time": 85.2,
        "duration": 0.6,
        "velocity": 1,
        "hand": "left"
      },
      {
        "midi": 58,
        "time": 85.2,
        "duration": 0.285,
        "velocity": 1,
        "hand": "left"
      },
      {
        "midi": 62,
        "time": 85.2,
        "duration": 0.285,
        "velocity": 1,
        "hand": "right"
      },
      {
        "midi": 65,
        "time": 85.2,
        "duration": 0.3,
        "velocity": 1,
        "hand": "right"
      },
      {
        "midi": 53,
        "time": 85.5,
        "duration": 0.3,
        "velocity": 1,
        "hand": "left"
      },
      {
        "midi": 58,
        "time": 85.5,
        "duration": 0.285,
        "velocity": 1,
        "hand": "left"
      },
      {
        "midi": 62,
        "time": 85.5,
        "duration": 0.285,
        "velocity": 1,
        "hand": "right"
      },
      {
        "midi": 44,
        "time": 85.8,
        "duration": 0.6,
        "velocity": 1,
        "hand": "left"
      },
      {
        "midi": 58,
        "time": 85.8,
        "duration": 0.3,
        "velocity": 1,
        "hand": "left"
      },
      {
        "midi": 62,
        "time": 85.8,
        "duration": 0.285,
        "velocity": 1,
        "hand": "right"
      },
      {
        "midi": 65,
        "time": 85.8,
        "duration": 0.285,
        "velocity": 1,
        "hand": "right"
      },
      {
        "midi": 70,
        "time": 85.8,
        "duration": 0.285,
        "velocity": 1,
        "hand": "right"
      },
      {
        "midi": 62,
        "time": 86.1,
        "duration": 0.3,
        "velocity": 1,
        "hand": "right"
      },
      {
        "midi": 65,
        "time": 86.1,
        "duration": 0.3,
        "velocity": 1,
        "hand": "right"
      },
      {
        "midi": 70,
        "time": 86.1,
        "duration": 0.285,
        "velocity": 1,
        "hand": "right"
      },
      {
        "midi": 42,
        "time": 86.4,
        "duration": 0.6,
        "velocity": 1,
        "hand": "left"
      },
      {
        "midi": 54,
        "time": 86.4,
        "duration": 1.785,
        "velocity": 1,
        "hand": "left"
      },
      {
        "midi": 61,
        "time": 86.4,
        "duration": 0.285,
        "velocity": 1,
        "hand": "right"
      },
      {
        "midi": 66,
        "time": 86.4,
        "duration": 0.285,
        "velocity": 1,
        "hand": "right"
      },
      {
        "midi": 70,
        "time": 86.4,
        "duration": 0.285,
        "velocity": 1,
        "hand": "right"
      },
      {
        "midi": 61,
        "time": 86.7,
        "duration": 0.585,
        "velocity": 1,
        "hand": "right"
      },
      {
        "midi": 66,
        "time": 86.7,
        "duration": 0.285,
        "velocity": 1,
        "hand": "right"
      },
      {
        "midi": 70,
        "time": 86.7,
        "duration": 0.3,
        "velocity": 1,
        "hand": "right"
      },
      {
        "midi": 66,
        "time": 87,
        "duration": 0.285,
        "velocity": 1,
        "hand": "right"
      },
      {
        "midi": 61,
        "time": 87.3,
        "duration": 0.3,
        "velocity": 1,
        "hand": "right"
      },
      {
        "midi": 66,
        "time": 87.3,
        "duration": 0.3,
        "velocity": 1,
        "hand": "right"
      },
      {
        "midi": 70,
        "time": 87.3,
        "duration": 0.3,
        "velocity": 1,
        "hand": "right"
      },
      {
        "midi": 42,
        "time": 87.6,
        "duration": 0.6,
        "velocity": 1,
        "hand": "left"
      },
      {
        "midi": 61,
        "time": 87.9,
        "duration": 0.285,
        "velocity": 1,
        "hand": "right"
      },
      {
        "midi": 66,
        "time": 87.9,
        "duration": 0.285,
        "velocity": 1,
        "hand": "right"
      },
      {
        "midi": 70,
        "time": 87.9,
        "duration": 0.285,
        "velocity": 1,
        "hand": "right"
      },
      {
        "midi": 54,
        "time": 88.2,
        "duration": 0.6,
        "velocity": 1,
        "hand": "left"
      },
      {
        "midi": 61,
        "time": 88.2,
        "duration": 0.285,
        "velocity": 1,
        "hand": "right"
      },
      {
        "midi": 66,
        "time": 88.2,
        "duration": 0.285,
        "velocity": 1,
        "hand": "right"
      },
      {
        "midi": 70,
        "time": 88.2,
        "duration": 0.285,
        "velocity": 1,
        "hand": "right"
      },
      {
        "midi": 61,
        "time": 88.5,
        "duration": 0.285,
        "velocity": 1,
        "hand": "right"
      },
      {
        "midi": 66,
        "time": 88.5,
        "duration": 0.3,
        "velocity": 1,
        "hand": "right"
      },
      {
        "midi": 70,
        "time": 88.5,
        "duration": 0.3,
        "velocity": 1,
        "hand": "right"
      },
      {
        "midi": 44,
        "time": 88.8,
        "duration": 0.6,
        "velocity": 1,
        "hand": "left"
      },
      {
        "midi": 56,
        "time": 88.8,
        "duration": 1.185,
        "velocity": 1,
        "hand": "left"
      },
      {
        "midi": 61,
        "time": 88.8,
        "duration": 0.285,
        "velocity": 1,
        "hand": "right"
      },
      {
        "midi": 65,
        "time": 88.8,
        "duration": 0.285,
        "velocity": 1,
        "hand": "right"
      },
      {
        "midi": 73,
        "time": 88.8,
        "duration": 0.285,
        "velocity": 1,
        "hand": "right"
      },
      {
        "midi": 61,
        "time": 89.1,
        "duration": 0.585,
        "velocity": 1,
        "hand": "right"
      },
      {
        "midi": 65,
        "time": 89.1,
        "duration": 0.285,
        "velocity": 1,
        "hand": "right"
      },
      {
        "midi": 73,
        "time": 89.1,
        "duration": 0.285,
        "velocity": 1,
        "hand": "right"
      },
      {
        "midi": 65,
        "time": 89.4,
        "duration": 0.285,
        "velocity": 1,
        "hand": "right"
      },
      {
        "midi": 73,
        "time": 89.4,
        "duration": 0.285,
        "velocity": 1,
        "hand": "right"
      },
      {
        "midi": 61,
        "time": 89.7,
        "duration": 0.285,
        "velocity": 1,
        "hand": "right"
      },
      {
        "midi": 65,
        "time": 89.7,
        "duration": 0.285,
        "velocity": 1,
        "hand": "right"
      },
      {
        "midi": 73,
        "time": 89.7,
        "duration": 0.3,
        "velocity": 1,
        "hand": "right"
      },
      {
        "midi": 44,
        "time": 90,
        "duration": 0.6,
        "velocity": 1,
        "hand": "left"
      },
      {
        "midi": 56,
        "time": 90,
        "duration": 1.2,
        "velocity": 1,
        "hand": "left"
      },
      {
        "midi": 61,
        "time": 90,
        "duration": 0.285,
        "velocity": 1,
        "hand": "right"
      },
      {
        "midi": 65,
        "time": 90,
        "duration": 0.285,
        "velocity": 1,
        "hand": "right"
      },
      {
        "midi": 71,
        "time": 90,
        "duration": 0.285,
        "velocity": 1,
        "hand": "right"
      },
      {
        "midi": 61,
        "time": 90.3,
        "duration": 0.585,
        "velocity": 1,
        "hand": "right"
      },
      {
        "midi": 65,
        "time": 90.3,
        "duration": 0.285,
        "velocity": 1,
        "hand": "right"
      },
      {
        "midi": 71,
        "time": 90.3,
        "duration": 0.3,
        "velocity": 1,
        "hand": "right"
      },
      {
        "midi": 80,
        "time": 90.3,
        "duration": 0.3,
        "velocity": 1,
        "hand": "right"
      },
      {
        "midi": 65,
        "time": 90.6,
        "duration": 0.285,
        "velocity": 1,
        "hand": "right"
      },
      {
        "midi": 77,
        "time": 90.6,
        "duration": 0.3,
        "velocity": 1,
        "hand": "right"
      },
      {
        "midi": 61,
        "time": 90.9,
        "duration": 0.285,
        "velocity": 1,
        "hand": "right"
      },
      {
        "midi": 65,
        "time": 90.9,
        "duration": 0.3,
        "velocity": 1,
        "hand": "right"
      },
      {
        "midi": 71,
        "time": 90.9,
        "duration": 0.3,
        "velocity": 1,
        "hand": "right"
      },
      {
        "midi": 42,
        "time": 91.2,
        "duration": 0.6,
        "velocity": 1,
        "hand": "left"
      },
      {
        "midi": 54,
        "time": 91.2,
        "duration": 1.785,
        "velocity": 1,
        "hand": "left"
      },
      {
        "midi": 61,
        "time": 91.2,
        "duration": 0.285,
        "velocity": 1,
        "hand": "right"
      },
      {
        "midi": 66,
        "time": 91.2,
        "duration": 0.285,
        "velocity": 1,
        "hand": "right"
      },
      {
        "midi": 70,
        "time": 91.2,
        "duration": 0.285,
        "velocity": 1,
        "hand": "right"
      },
      {
        "midi": 61,
        "time": 91.5,
        "duration": 0.585,
        "velocity": 1,
        "hand": "right"
      },
      {
        "midi": 66,
        "time": 91.5,
        "duration": 0.285,
        "velocity": 1,
        "hand": "right"
      },
      {
        "midi": 70,
        "time": 91.5,
        "duration": 0.3,
        "velocity": 1,
        "hand": "right"
      },
      {
        "midi": 66,
        "time": 91.8,
        "duration": 0.285,
        "velocity": 1,
        "hand": "right"
      },
      {
        "midi": 61,
        "time": 92.1,
        "duration": 0.3,
        "velocity": 1,
        "hand": "right"
      },
      {
        "midi": 66,
        "time": 92.1,
        "duration": 0.3,
        "velocity": 1,
        "hand": "right"
      },
      {
        "midi": 70,
        "time": 92.1,
        "duration": 0.3,
        "velocity": 1,
        "hand": "right"
      },
      {
        "midi": 42,
        "time": 92.4,
        "duration": 0.6,
        "velocity": 1,
        "hand": "left"
      },
      {
        "midi": 61,
        "time": 92.7,
        "duration": 0.3,
        "velocity": 1,
        "hand": "right"
      },
      {
        "midi": 70,
        "time": 92.7,
        "duration": 0.585,
        "velocity": 1,
        "hand": "right"
      },
      {
        "midi": 73,
        "time": 92.7,
        "duration": 0.285,
        "velocity": 1,
        "hand": "right"
      },
      {
        "midi": 54,
        "time": 93,
        "duration": 0.6,
        "velocity": 1,
        "hand": "left"
      },
      {
        "midi": 58,
        "time": 93,
        "duration": 0.6,
        "velocity": 1,
        "hand": "left"
      },
      {
        "midi": 66,
        "time": 93,
        "duration": 0.285,
        "velocity": 1,
        "hand": "right"
      },
      {
        "midi": 73,
        "time": 93,
        "duration": 0.6,
        "velocity": 1,
        "hand": "right"
      },
      {
        "midi": 78,
        "time": 93,
        "duration": 0.3,
        "velocity": 1,
        "hand": "right"
      },
      {
        "midi": 61,
        "time": 93.3,
        "duration": 0.285,
        "velocity": 1,
        "hand": "right"
      },
      {
        "midi": 66,
        "time": 93.3,
        "duration": 0.285,
        "velocity": 1,
        "hand": "right"
      },
      {
        "midi": 70,
        "time": 93.3,
        "duration": 0.285,
        "velocity": 1,
        "hand": "right"
      },
      {
        "midi": 49,
        "time": 93.6,
        "duration": 1.2,
        "velocity": 1,
        "hand": "left"
      },
      {
        "midi": 61,
        "time": 93.6,
        "duration": 0.285,
        "velocity": 1,
        "hand": "right"
      },
      {
        "midi": 66,
        "time": 93.6,
        "duration": 0.285,
        "velocity": 1,
        "hand": "right"
      },
      {
        "midi": 70,
        "time": 93.6,
        "duration": 0.285,
        "velocity": 1,
        "hand": "right"
      },
      {
        "midi": 61,
        "time": 93.9,
        "duration": 0.585,
        "velocity": 1,
        "hand": "right"
      },
      {
        "midi": 66,
        "time": 93.9,
        "duration": 0.285,
        "velocity": 1,
        "hand": "right"
      },
      {
        "midi": 70,
        "time": 93.9,
        "duration": 0.3,
        "velocity": 1,
        "hand": "right"
      },
      {
        "midi": 66,
        "time": 94.2,
        "duration": 0.285,
        "velocity": 1,
        "hand": "right"
      },
      {
        "midi": 78,
        "time": 94.2,
        "duration": 0.6,
        "velocity": 1,
        "hand": "right"
      },
      {
        "midi": 61,
        "time": 94.5,
        "duration": 0.3,
        "velocity": 1,
        "hand": "right"
      },
      {
        "midi": 66,
        "time": 94.5,
        "duration": 0.3,
        "velocity": 1,
        "hand": "right"
      },
      {
        "midi": 70,
        "time": 94.5,
        "duration": 0.3,
        "velocity": 1,
        "hand": "right"
      },
      {
        "midi": 50,
        "time": 94.8,
        "duration": 1.2,
        "velocity": 1,
        "hand": "left"
      },
      {
        "midi": 59,
        "time": 94.8,
        "duration": 0.285,
        "velocity": 1,
        "hand": "left"
      },
      {
        "midi": 65,
        "time": 94.8,
        "duration": 0.285,
        "velocity": 1,
        "hand": "right"
      },
      {
        "midi": 68,
        "time": 94.8,
        "duration": 0.285,
        "velocity": 1,
        "hand": "right"
      },
      {
        "midi": 77,
        "time": 94.8,
        "duration": 0.3,
        "velocity": 1,
        "hand": "right"
      },
      {
        "midi": 59,
        "time": 95.1,
        "duration": 0.585,
        "velocity": 1,
        "hand": "left"
      },
      {
        "midi": 65,
        "time": 95.1,
        "duration": 0.285,
        "velocity": 1,
        "hand": "right"
      },
      {
        "midi": 68,
        "time": 95.1,
        "duration": 0.3,
        "velocity": 1,
        "hand": "right"
      },
      {
        "midi": 83,
        "time": 95.1,
        "duration": 0.3,
        "velocity": 1,
        "hand": "right"
      },
      {
        "midi": 65,
        "time": 95.4,
        "duration": 0.285,
        "velocity": 1,
        "hand": "right"
      },
      {
        "midi": 80,
        "time": 95.4,
        "duration": 0.3,
        "velocity": 1,
        "hand": "right"
      },
      {
        "midi": 59,
        "time": 95.7,
        "duration": 0.3,
        "velocity": 1,
        "hand": "left"
      },
      {
        "midi": 65,
        "time": 95.7,
        "duration": 0.3,
        "velocity": 1,
        "hand": "right"
      },
      {
        "midi": 68,
        "time": 95.7,
        "duration": 0.3,
        "velocity": 1,
        "hand": "right"
      },
      {
        "midi": 77,
        "time": 95.7,
        "duration": 0.3,
        "velocity": 1,
        "hand": "right"
      },
      {
        "midi": 51,
        "time": 96,
        "duration": 0.585,
        "velocity": 1,
        "hand": "left"
      },
      {
        "midi": 66,
        "time": 96,
        "duration": 0.285,
        "velocity": 1,
        "hand": "right"
      },
      {
        "midi": 78,
        "time": 96,
        "duration": 3,
        "velocity": 1,
        "hand": "right"
      },
      {
        "midi": 58,
        "time": 96.3,
        "duration": 0.285,
        "velocity": 1,
        "hand": "left"
      },
      {
        "midi": 63,
        "time": 96.3,
        "duration": 0.285,
        "velocity": 1,
        "hand": "right"
      },
      {
        "midi": 66,
        "time": 96.3,
        "duration": 0.3,
        "velocity": 1,
        "hand": "right"
      },
      {
        "midi": 51,
        "time": 96.6,
        "duration": 0.6,
        "velocity": 1,
        "hand": "left"
      },
      {
        "midi": 58,
        "time": 96.6,
        "duration": 0.285,
        "velocity": 1,
        "hand": "left"
      },
      {
        "midi": 63,
        "time": 96.6,
        "duration": 0.285,
        "velocity": 1,
        "hand": "right"
      },
      {
        "midi": 58,
        "time": 96.9,
        "duration": 0.3,
        "velocity": 1,
        "hand": "left"
      },
      {
        "midi": 63,
        "time": 96.9,
        "duration": 0.3,
        "velocity": 1,
        "hand": "right"
      },
      {
        "midi": 66,
        "time": 96.9,
        "duration": 0.3,
        "velocity": 1,
        "hand": "right"
      },
      {
        "midi": 49,
        "time": 97.2,
        "duration": 1.2,
        "velocity": 1,
        "hand": "left"
      },
      {
        "midi": 64,
        "time": 97.2,
        "duration": 0.285,
        "velocity": 1,
        "hand": "right"
      },
      {
        "midi": 58,
        "time": 97.5,
        "duration": 0.585,
        "velocity": 1,
        "hand": "left"
      },
      {
        "midi": 64,
        "time": 97.5,
        "duration": 0.285,
        "velocity": 1,
        "hand": "right"
      },
      {
        "midi": 66,
        "time": 97.5,
        "duration": 0.3,
        "velocity": 1,
        "hand": "right"
      },
      {
        "midi": 64,
        "time": 97.8,
        "duration": 0.285,
        "velocity": 1,
        "hand": "right"
      },
      {
        "midi": 58,
        "time": 98.1,
        "duration": 0.3,
        "velocity": 1,
        "hand": "left"
      },
      {
        "midi": 64,
        "time": 98.1,
        "duration": 0.3,
        "velocity": 1,
        "hand": "right"
      },
      {
        "midi": 66,
        "time": 98.1,
        "duration": 0.3,
        "velocity": 1,
        "hand": "right"
      },
      {
        "midi": 47,
        "time": 98.4,
        "duration": 0.585,
        "velocity": 1,
        "hand": "left"
      },
      {
        "midi": 59,
        "time": 98.4,
        "duration": 0.285,
        "velocity": 1,
        "hand": "left"
      },
      {
        "midi": 63,
        "time": 98.4,
        "duration": 0.285,
        "velocity": 1,
        "hand": "right"
      },
      {
        "midi": 59,
        "time": 98.7,
        "duration": 0.585,
        "velocity": 1,
        "hand": "left"
      },
      {
        "midi": 63,
        "time": 98.7,
        "duration": 0.285,
        "velocity": 1,
        "hand": "right"
      },
      {
        "midi": 66,
        "time": 98.7,
        "duration": 0.285,
        "velocity": 1,
        "hand": "right"
      },
      {
        "midi": 47,
        "time": 99,
        "duration": 0.6,
        "velocity": 1,
        "hand": "left"
      },
      {
        "midi": 63,
        "time": 99,
        "duration": 0.285,
        "velocity": 1,
        "hand": "right"
      },
      {
        "midi": 66,
        "time": 99,
        "duration": 0.6,
        "velocity": 1,
        "hand": "right"
      },
      {
        "midi": 75,
        "time": 99,
        "duration": 0.285,
        "velocity": 1,
        "hand": "right"
      },
      {
        "midi": 59,
        "time": 99.3,
        "duration": 0.3,
        "velocity": 1,
        "hand": "left"
      },
      {
        "midi": 63,
        "time": 99.3,
        "duration": 0.285,
        "velocity": 1,
        "hand": "right"
      },
      {
        "midi": 75,
        "time": 99.3,
        "duration": 0.3,
        "velocity": 1,
        "hand": "right"
      },
      {
        "midi": 46,
        "time": 99.6,
        "duration": 0.6,
        "velocity": 1,
        "hand": "left"
      },
      {
        "midi": 63,
        "time": 99.6,
        "duration": 0.585,
        "velocity": 1,
        "hand": "right"
      },
      {
        "midi": 67,
        "time": 99.6,
        "duration": 0.6,
        "velocity": 1,
        "hand": "right"
      },
      {
        "midi": 73,
        "time": 99.6,
        "duration": 0.6,
        "velocity": 1,
        "hand": "right"
      },
      {
        "midi": 44,
        "time": 100.2,
        "duration": 0.6,
        "velocity": 1,
        "hand": "left"
      },
      {
        "midi": 63,
        "time": 100.2,
        "duration": 0.6,
        "velocity": 1,
        "hand": "right"
      },
      {
        "midi": 68,
        "time": 100.2,
        "duration": 0.6,
        "velocity": 1,
        "hand": "right"
      },
      {
        "midi": 71,
        "time": 100.2,
        "duration": 0.6,
        "velocity": 1,
        "hand": "right"
      },
      {
        "midi": 49,
        "time": 100.8,
        "duration": 1.185,
        "velocity": 1,
        "hand": "left"
      },
      {
        "midi": 61,
        "time": 100.8,
        "duration": 0.285,
        "velocity": 1,
        "hand": "right"
      },
      {
        "midi": 66,
        "time": 100.8,
        "duration": 0.285,
        "velocity": 1,
        "hand": "right"
      },
      {
        "midi": 70,
        "time": 100.8,
        "duration": 0.285,
        "velocity": 1,
        "hand": "right"
      },
      {
        "midi": 61,
        "time": 101.1,
        "duration": 0.585,
        "velocity": 1,
        "hand": "right"
      },
      {
        "midi": 66,
        "time": 101.1,
        "duration": 0.285,
        "velocity": 1,
        "hand": "right"
      },
      {
        "midi": 70,
        "time": 101.1,
        "duration": 0.3,
        "velocity": 1,
        "hand": "right"
      },
      {
        "midi": 66,
        "time": 101.4,
        "duration": 0.285,
        "velocity": 1,
        "hand": "right"
      },
      {
        "midi": 61,
        "time": 101.7,
        "duration": 0.3,
        "velocity": 1,
        "hand": "right"
      },
      {
        "midi": 66,
        "time": 101.7,
        "duration": 0.3,
        "velocity": 1,
        "hand": "right"
      },
      {
        "midi": 70,
        "time": 101.7,
        "duration": 0.3,
        "velocity": 1,
        "hand": "right"
      },
      {
        "midi": 49,
        "time": 102,
        "duration": 0.585,
        "velocity": 1,
        "hand": "left"
      },
      {
        "midi": 65,
        "time": 102,
        "duration": 0.3,
        "velocity": 1,
        "hand": "right"
      },
      {
        "midi": 73,
        "time": 102,
        "duration": 0.3,
        "velocity": 1,
        "hand": "right"
      },
      {
        "midi": 61,
        "time": 102.3,
        "duration": 0.285,
        "velocity": 1,
        "hand": "right"
      },
      {
        "midi": 68,
        "time": 102.3,
        "duration": 0.3,
        "velocity": 1,
        "hand": "right"
      },
      {
        "midi": 71,
        "time": 102.3,
        "duration": 0.3,
        "velocity": 1,
        "hand": "right"
      },
      {
        "midi": 49,
        "time": 102.6,
        "duration": 0.6,
        "velocity": 1,
        "hand": "left"
      },
      {
        "midi": 61,
        "time": 102.6,
        "duration": 0.285,
        "velocity": 1,
        "hand": "right"
      },
      {
        "midi": 66,
        "time": 102.6,
        "duration": 0.3,
        "velocity": 1,
        "hand": "right"
      },
      {
        "midi": 70,
        "time": 102.6,
        "duration": 0.3,
        "velocity": 1,
        "hand": "right"
      },
      {
        "midi": 61,
        "time": 102.9,
        "duration": 0.285,
        "velocity": 1,
        "hand": "right"
      },
      {
        "midi": 65,
        "time": 102.9,
        "duration": 0.3,
        "velocity": 1,
        "hand": "right"
      },
      {
        "midi": 71,
        "time": 102.9,
        "duration": 0.3,
        "velocity": 1,
        "hand": "right"
      },
      {
        "midi": 42,
        "time": 103.2,
        "duration": 0.6,
        "velocity": 1,
        "hand": "left"
      },
      {
        "midi": 54,
        "time": 103.2,
        "duration": 1.2,
        "velocity": 1,
        "hand": "left"
      },
      {
        "midi": 61,
        "time": 103.2,
        "duration": 0.285,
        "velocity": 1,
        "hand": "right"
      },
      {
        "midi": 66,
        "time": 103.2,
        "duration": 0.285,
        "velocity": 1,
        "hand": "right"
      },
      {
        "midi": 70,
        "time": 103.2,
        "duration": 0.285,
        "velocity": 1,
        "hand": "right"
      },
      {
        "midi": 61,
        "time": 103.5,
        "duration": 0.285,
        "velocity": 1,
        "hand": "right"
      },
      {
        "midi": 66,
        "time": 103.5,
        "duration": 0.285,
        "velocity": 1,
        "hand": "right"
      },
      {
        "midi": 70,
        "time": 103.5,
        "duration": 0.3,
        "velocity": 1,
        "hand": "right"
      },
      {
        "midi": 46,
        "time": 103.8,
        "duration": 0.6,
        "velocity": 1,
        "hand": "left"
      },
      {
        "midi": 58,
        "time": 103.8,
        "duration": 0.6,
        "velocity": 1,
        "hand": "left"
      },
      {
        "midi": 61,
        "time": 103.8,
        "duration": 0.285,
        "velocity": 1,
        "hand": "right"
      },
      {
        "midi": 66,
        "time": 103.8,
        "duration": 0.285,
        "velocity": 1,
        "hand": "right"
      },
      {
        "midi": 73,
        "time": 103.8,
        "duration": 0.585,
        "velocity": 1,
        "hand": "right"
      },
      {
        "midi": 61,
        "time": 104.1,
        "duration": 0.285,
        "velocity": 1,
        "hand": "right"
      },
      {
        "midi": 66,
        "time": 104.1,
        "duration": 0.3,
        "velocity": 1,
        "hand": "right"
      },
      {
        "midi": 78,
        "time": 104.1,
        "duration": 0.3,
        "velocity": 1,
        "hand": "right"
      },
      {
        "midi": 44,
        "time": 104.4,
        "duration": 0.6,
        "velocity": 1,
        "hand": "left"
      },
      {
        "midi": 56,
        "time": 104.4,
        "duration": 0.6,
        "velocity": 1,
        "hand": "left"
      },
      {
        "midi": 61,
        "time": 104.4,
        "duration": 0.585,
        "velocity": 1,
        "hand": "right"
      },
      {
        "midi": 63,
        "time": 104.4,
        "duration": 0.6,
        "velocity": 1,
        "hand": "right"
      },
      {
        "midi": 73,
        "time": 104.4,
        "duration": 0.6,
        "velocity": 1,
        "hand": "right"
      },
      {
        "midi": 71,
        "time": 104.7,
        "duration": 0.3,
        "velocity": 1,
        "hand": "right"
      },
      {
        "midi": 49,
        "time": 105,
        "duration": 0.6,
        "velocity": 1,
        "hand": "left"
      },
      {
        "midi": 61,
        "time": 105,
        "duration": 0.585,
        "velocity": 1,
        "hand": "right"
      },
      {
        "midi": 65,
        "time": 105,
        "duration": 0.6,
        "velocity": 1,
        "hand": "right"
      },
      {
        "midi": 75,
        "time": 105,
        "duration": 0.3,
        "velocity": 1,
        "hand": "right"
      },
      {
        "midi": 71,
        "time": 105.3,
        "duration": 0.3,
        "velocity": 1,
        "hand": "right"
      },
      {
        "midi": 42,
        "time": 105.6,
        "duration": 0.6,
        "velocity": 1,
        "hand": "left"
      },
      {
        "midi": 54,
        "time": 105.6,
        "duration": 1.785,
        "velocity": 1,
        "hand": "left"
      },
      {
        "midi": 61,
        "time": 105.6,
        "duration": 0.285,
        "velocity": 1,
        "hand": "right"
      },
      {
        "midi": 66,
        "time": 105.6,
        "duration": 0.285,
        "velocity": 1,
        "hand": "right"
      },
      {
        "midi": 70,
        "time": 105.6,
        "duration": 0.285,
        "velocity": 1,
        "hand": "right"
      },
      {
        "midi": 61,
        "time": 105.9,
        "duration": 0.585,
        "velocity": 1,
        "hand": "right"
      },
      {
        "midi": 66,
        "time": 105.9,
        "duration": 0.285,
        "velocity": 1,
        "hand": "right"
      },
      {
        "midi": 70,
        "time": 105.9,
        "duration": 0.3,
        "velocity": 1,
        "hand": "right"
      },
      {
        "midi": 66,
        "time": 106.2,
        "duration": 0.285,
        "velocity": 1,
        "hand": "right"
      },
      {
        "midi": 61,
        "time": 106.5,
        "duration": 0.3,
        "velocity": 1,
        "hand": "right"
      },
      {
        "midi": 66,
        "time": 106.5,
        "duration": 0.3,
        "velocity": 1,
        "hand": "right"
      },
      {
        "midi": 70,
        "time": 106.5,
        "duration": 0.3,
        "velocity": 1,
        "hand": "right"
      },
      {
        "midi": 42,
        "time": 106.8,
        "duration": 0.6,
        "velocity": 1,
        "hand": "left"
      },
      {
        "midi": 61,
        "time": 107.1,
        "duration": 0.285,
        "velocity": 1,
        "hand": "right"
      },
      {
        "midi": 66,
        "time": 107.1,
        "duration": 0.285,
        "velocity": 1,
        "hand": "right"
      },
      {
        "midi": 70,
        "time": 107.1,
        "duration": 0.285,
        "velocity": 1,
        "hand": "right"
      },
      {
        "midi": 54,
        "time": 107.4,
        "duration": 0.6,
        "velocity": 1,
        "hand": "left"
      },
      {
        "midi": 61,
        "time": 107.4,
        "duration": 0.285,
        "velocity": 1,
        "hand": "right"
      },
      {
        "midi": 66,
        "time": 107.4,
        "duration": 0.285,
        "velocity": 1,
        "hand": "right"
      },
      {
        "midi": 70,
        "time": 107.4,
        "duration": 0.285,
        "velocity": 1,
        "hand": "right"
      },
      {
        "midi": 61,
        "time": 107.7,
        "duration": 0.285,
        "velocity": 1,
        "hand": "right"
      },
      {
        "midi": 66,
        "time": 107.7,
        "duration": 0.3,
        "velocity": 1,
        "hand": "right"
      },
      {
        "midi": 70,
        "time": 107.7,
        "duration": 0.3,
        "velocity": 1,
        "hand": "right"
      },
      {
        "midi": 44,
        "time": 108,
        "duration": 0.6,
        "velocity": 1,
        "hand": "left"
      },
      {
        "midi": 56,
        "time": 108,
        "duration": 1.185,
        "velocity": 1,
        "hand": "left"
      },
      {
        "midi": 61,
        "time": 108,
        "duration": 0.285,
        "velocity": 1,
        "hand": "right"
      },
      {
        "midi": 65,
        "time": 108,
        "duration": 0.285,
        "velocity": 1,
        "hand": "right"
      },
      {
        "midi": 73,
        "time": 108,
        "duration": 0.285,
        "velocity": 1,
        "hand": "right"
      },
      {
        "midi": 61,
        "time": 108.3,
        "duration": 0.585,
        "velocity": 1,
        "hand": "right"
      },
      {
        "midi": 65,
        "time": 108.3,
        "duration": 0.285,
        "velocity": 1,
        "hand": "right"
      },
      {
        "midi": 73,
        "time": 108.3,
        "duration": 0.3,
        "velocity": 1,
        "hand": "right"
      },
      {
        "midi": 65,
        "time": 108.6,
        "duration": 0.285,
        "velocity": 1,
        "hand": "right"
      },
      {
        "midi": 61,
        "time": 108.9,
        "duration": 0.285,
        "velocity": 1,
        "hand": "right"
      },
      {
        "midi": 65,
        "time": 108.9,
        "duration": 0.285,
        "velocity": 1,
        "hand": "right"
      },
      {
        "midi": 73,
        "time": 108.9,
        "duration": 0.285,
        "velocity": 1,
        "hand": "right"
      },
      {
        "midi": 44,
        "time": 109.2,
        "duration": 0.6,
        "velocity": 1,
        "hand": "left"
      },
      {
        "midi": 56,
        "time": 109.2,
        "duration": 1.2,
        "velocity": 1,
        "hand": "left"
      },
      {
        "midi": 61,
        "time": 109.2,
        "duration": 0.285,
        "velocity": 1,
        "hand": "right"
      },
      {
        "midi": 65,
        "time": 109.2,
        "duration": 0.285,
        "velocity": 1,
        "hand": "right"
      },
      {
        "midi": 71,
        "time": 109.2,
        "duration": 0.285,
        "velocity": 1,
        "hand": "right"
      },
      {
        "midi": 73,
        "time": 109.2,
        "duration": 0.3,
        "velocity": 1,
        "hand": "right"
      },
      {
        "midi": 61,
        "time": 109.5,
        "duration": 0.585,
        "velocity": 1,
        "hand": "right"
      },
      {
        "midi": 65,
        "time": 109.5,
        "duration": 0.285,
        "velocity": 1,
        "hand": "right"
      },
      {
        "midi": 71,
        "time": 109.5,
        "duration": 0.3,
        "velocity": 1,
        "hand": "right"
      },
      {
        "midi": 80,
        "time": 109.5,
        "duration": 0.3,
        "velocity": 1,
        "hand": "right"
      },
      {
        "midi": 65,
        "time": 109.8,
        "duration": 0.285,
        "velocity": 1,
        "hand": "right"
      },
      {
        "midi": 77,
        "time": 109.8,
        "duration": 0.3,
        "velocity": 1,
        "hand": "right"
      },
      {
        "midi": 61,
        "time": 110.1,
        "duration": 0.285,
        "velocity": 1,
        "hand": "right"
      },
      {
        "midi": 65,
        "time": 110.1,
        "duration": 0.3,
        "velocity": 1,
        "hand": "right"
      },
      {
        "midi": 71,
        "time": 110.1,
        "duration": 0.3,
        "velocity": 1,
        "hand": "right"
      },
      {
        "midi": 42,
        "time": 110.4,
        "duration": 0.6,
        "velocity": 1,
        "hand": "left"
      },
      {
        "midi": 54,
        "time": 110.4,
        "duration": 1.785,
        "velocity": 1,
        "hand": "left"
      },
      {
        "midi": 61,
        "time": 110.4,
        "duration": 0.285,
        "velocity": 1,
        "hand": "right"
      },
      {
        "midi": 66,
        "time": 110.4,
        "duration": 0.285,
        "velocity": 1,
        "hand": "right"
      },
      {
        "midi": 70,
        "time": 110.4,
        "duration": 0.285,
        "velocity": 1,
        "hand": "right"
      },
      {
        "midi": 61,
        "time": 110.7,
        "duration": 0.585,
        "velocity": 1,
        "hand": "right"
      },
      {
        "midi": 66,
        "time": 110.7,
        "duration": 0.285,
        "velocity": 1,
        "hand": "right"
      },
      {
        "midi": 70,
        "time": 110.7,
        "duration": 0.3,
        "velocity": 1,
        "hand": "right"
      },
      {
        "midi": 66,
        "time": 111,
        "duration": 0.285,
        "velocity": 1,
        "hand": "right"
      },
      {
        "midi": 61,
        "time": 111.3,
        "duration": 0.3,
        "velocity": 1,
        "hand": "right"
      },
      {
        "midi": 66,
        "time": 111.3,
        "duration": 0.3,
        "velocity": 1,
        "hand": "right"
      },
      {
        "midi": 70,
        "time": 111.3,
        "duration": 0.3,
        "velocity": 1,
        "hand": "right"
      },
      {
        "midi": 42,
        "time": 111.6,
        "duration": 0.6,
        "velocity": 1,
        "hand": "left"
      },
      {
        "midi": 58,
        "time": 111.9,
        "duration": 0.285,
        "velocity": 1,
        "hand": "left"
      },
      {
        "midi": 66,
        "time": 111.9,
        "duration": 0.285,
        "velocity": 1,
        "hand": "right"
      },
      {
        "midi": 70,
        "time": 111.9,
        "duration": 0.285,
        "velocity": 1,
        "hand": "right"
      },
      {
        "midi": 54,
        "time": 112.2,
        "duration": 0.6,
        "velocity": 1,
        "hand": "left"
      },
      {
        "midi": 58,
        "time": 112.2,
        "duration": 0.285,
        "velocity": 1,
        "hand": "left"
      },
      {
        "midi": 66,
        "time": 112.2,
        "duration": 0.285,
        "velocity": 1,
        "hand": "right"
      },
      {
        "midi": 70,
        "time": 112.2,
        "duration": 0.285,
        "velocity": 1,
        "hand": "right"
      },
      {
        "midi": 58,
        "time": 112.5,
        "duration": 0.3,
        "velocity": 1,
        "hand": "left"
      },
      {
        "midi": 66,
        "time": 112.5,
        "duration": 0.3,
        "velocity": 1,
        "hand": "right"
      },
      {
        "midi": 70,
        "time": 112.5,
        "duration": 0.3,
        "velocity": 1,
        "hand": "right"
      },
      {
        "midi": 41,
        "time": 112.8,
        "duration": 0.6,
        "velocity": 1,
        "hand": "left"
      },
      {
        "midi": 53,
        "time": 112.8,
        "duration": 1.185,
        "velocity": 1,
        "hand": "left"
      },
      {
        "midi": 68,
        "time": 112.8,
        "duration": 0.285,
        "velocity": 1,
        "hand": "right"
      },
      {
        "midi": 75,
        "time": 112.8,
        "duration": 0.285,
        "velocity": 1,
        "hand": "right"
      },
      {
        "midi": 59,
        "time": 113.1,
        "duration": 0.585,
        "velocity": 1,
        "hand": "left"
      },
      {
        "midi": 68,
        "time": 113.1,
        "duration": 0.285,
        "velocity": 1,
        "hand": "right"
      },
      {
        "midi": 75,
        "time": 113.1,
        "duration": 0.3,
        "velocity": 1,
        "hand": "right"
      },
      {
        "midi": 63,
        "time": 113.4,
        "duration": 0.3,
        "velocity": 1,
        "hand": "right"
      },
      {
        "midi": 68,
        "time": 113.4,
        "duration": 0.285,
        "velocity": 1,
        "hand": "right"
      },
      {
        "midi": 59,
        "time": 113.7,
        "duration": 0.3,
        "velocity": 1,
        "hand": "left"
      },
      {
        "midi": 68,
        "time": 113.7,
        "duration": 0.285,
        "velocity": 1,
        "hand": "right"
      },
      {
        "midi": 75,
        "time": 113.7,
        "duration": 0.3,
        "velocity": 1,
        "hand": "right"
      },
      {
        "midi": 53,
        "time": 114,
        "duration": 1.2,
        "velocity": 1,
        "hand": "left"
      },
      {
        "midi": 58,
        "time": 114,
        "duration": 0.285,
        "velocity": 1,
        "hand": "left"
      },
      {
        "midi": 68,
        "time": 114,
        "duration": 0.285,
        "velocity": 1,
        "hand": "right"
      },
      {
        "midi": 74,
        "time": 114,
        "duration": 0.285,
        "velocity": 1,
        "hand": "right"
      },
      {
        "midi": 58,
        "time": 114.3,
        "duration": 0.585,
        "velocity": 1,
        "hand": "left"
      },
      {
        "midi": 68,
        "time": 114.3,
        "duration": 0.285,
        "velocity": 1,
        "hand": "right"
      },
      {
        "midi": 74,
        "time": 114.3,
        "duration": 0.3,
        "velocity": 1,
        "hand": "right"
      },
      {
        "midi": 77,
        "time": 114.3,
        "duration": 0.3,
        "velocity": 1,
        "hand": "right"
      },
      {
        "midi": 62,
        "time": 114.6,
        "duration": 0.3,
        "velocity": 1,
        "hand": "right"
      },
      {
        "midi": 68,
        "time": 114.6,
        "duration": 0.285,
        "velocity": 1,
        "hand": "right"
      },
      {
        "midi": 80,
        "time": 114.6,
        "duration": 0.3,
        "velocity": 1,
        "hand": "right"
      },
      {
        "midi": 58,
        "time": 114.9,
        "duration": 0.3,
        "velocity": 1,
        "hand": "left"
      },
      {
        "midi": 68,
        "time": 114.9,
        "duration": 0.3,
        "velocity": 1,
        "hand": "right"
      },
      {
        "midi": 74,
        "time": 114.9,
        "duration": 0.3,
        "velocity": 1,
        "hand": "right"
      },
      {
        "midi": 55,
        "time": 115.2,
        "duration": 0.6,
        "velocity": 1,
        "hand": "left"
      },
      {
        "midi": 63,
        "time": 115.2,
        "duration": 0.585,
        "velocity": 1,
        "hand": "right"
      },
      {
        "midi": 75,
        "time": 115.2,
        "duration": 0.285,
        "velocity": 1,
        "hand": "right"
      },
      {
        "midi": 58,
        "time": 115.5,
        "duration": 0.585,
        "velocity": 1,
        "hand": "left"
      },
      {
        "midi": 67,
        "time": 115.5,
        "duration": 0.3,
        "velocity": 1,
        "hand": "right"
      },
      {
        "midi": 75,
        "time": 115.5,
        "duration": 0.3,
        "velocity": 1,
        "hand": "right"
      },
      {
        "midi": 63,
        "time": 115.8,
        "duration": 0.3,
        "velocity": 1,
        "hand": "right"
      },
      {
        "midi": 70,
        "time": 115.8,
        "duration": 0.285,
        "velocity": 1,
        "hand": "right"
      },
      {
        "midi": 58,
        "time": 116.1,
        "duration": 0.3,
        "velocity": 1,
        "hand": "left"
      },
      {
        "midi": 70,
        "time": 116.1,
        "duration": 0.285,
        "velocity": 1,
        "hand": "right"
      },
      {
        "midi": 75,
        "time": 116.1,
        "duration": 0.3,
        "velocity": 1,
        "hand": "right"
      },
      {
        "midi": 55,
        "time": 116.4,
        "duration": 1.2,
        "velocity": 1,
        "hand": "left"
      },
      {
        "midi": 63,
        "time": 116.4,
        "duration": 0.285,
        "velocity": 1,
        "hand": "right"
      },
      {
        "midi": 70,
        "time": 116.4,
        "duration": 0.285,
        "velocity": 1,
        "hand": "right"
      },
      {
        "midi": 63,
        "time": 116.7,
        "duration": 0.585,
        "velocity": 1,
        "hand": "right"
      },
      {
        "midi": 70,
        "time": 116.7,
        "duration": 0.285,
        "velocity": 1,
        "hand": "right"
      },
      {
        "midi": 75,
        "time": 116.7,
        "duration": 0.3,
        "velocity": 1,
        "hand": "right"
      },
      {
        "midi": 70,
        "time": 117,
        "duration": 0.285,
        "velocity": 1,
        "hand": "right"
      },
      {
        "midi": 63,
        "time": 117.3,
        "duration": 0.285,
        "velocity": 1,
        "hand": "right"
      },
      {
        "midi": 70,
        "time": 117.3,
        "duration": 0.3,
        "velocity": 1,
        "hand": "right"
      },
      {
        "midi": 75,
        "time": 117.3,
        "duration": 0.285,
        "velocity": 1,
        "hand": "right"
      },
      {
        "midi": 56,
        "time": 117.6,
        "duration": 0.585,
        "velocity": 1,
        "hand": "left"
      },
      {
        "midi": 63,
        "time": 117.6,
        "duration": 0.6,
        "velocity": 1,
        "hand": "right"
      },
      {
        "midi": 72,
        "time": 117.6,
        "duration": 0.285,
        "velocity": 1,
        "hand": "right"
      },
      {
        "midi": 75,
        "time": 117.6,
        "duration": 0.285,
        "velocity": 1,
        "hand": "right"
      },
      {
        "midi": 72,
        "time": 117.9,
        "duration": 0.3,
        "velocity": 1,
        "hand": "right"
      },
      {
        "midi": 75,
        "time": 117.9,
        "duration": 0.3,
        "velocity": 1,
        "hand": "right"
      },
      {
        "midi": 56,
        "time": 118.2,
        "duration": 0.585,
        "velocity": 1,
        "hand": "left"
      },
      {
        "midi": 65,
        "time": 118.2,
        "duration": 0.6,
        "velocity": 1,
        "hand": "right"
      },
      {
        "midi": 71,
        "time": 118.2,
        "duration": 0.285,
        "velocity": 1,
        "hand": "right"
      },
      {
        "midi": 74,
        "time": 118.2,
        "duration": 0.285,
        "velocity": 1,
        "hand": "right"
      },
      {
        "midi": 77,
        "time": 118.2,
        "duration": 0.6,
        "velocity": 1,
        "hand": "right"
      },
      {
        "midi": 71,
        "time": 118.5,
        "duration": 0.3,
        "velocity": 1,
        "hand": "right"
      },
      {
        "midi": 74,
        "time": 118.5,
        "duration": 0.3,
        "velocity": 1,
        "hand": "right"
      },
      {
        "midi": 56,
        "time": 118.8,
        "duration": 0.585,
        "velocity": 1,
        "hand": "left"
      },
      {
        "midi": 63,
        "time": 118.8,
        "duration": 0.6,
        "velocity": 1,
        "hand": "right"
      },
      {
        "midi": 72,
        "time": 118.8,
        "duration": 0.585,
        "velocity": 1,
        "hand": "right"
      },
      {
        "midi": 75,
        "time": 118.8,
        "duration": 0.6,
        "velocity": 1,
        "hand": "right"
      },
      {
        "midi": 65,
        "time": 119.1,
        "duration": 0.3,
        "velocity": 1,
        "hand": "right"
      },
      {
        "midi": 68,
        "time": 119.1,
        "duration": 0.285,
        "velocity": 1,
        "hand": "right"
      },
      {
        "midi": 56,
        "time": 119.4,
        "duration": 0.6,
        "velocity": 1,
        "hand": "left"
      },
      {
        "midi": 68,
        "time": 119.4,
        "duration": 0.6,
        "velocity": 1,
        "hand": "right"
      },
      {
        "midi": 72,
        "time": 119.4,
        "duration": 0.285,
        "velocity": 1,
        "hand": "right"
      },
      {
        "midi": 77,
        "time": 119.4,
        "duration": 0.285,
        "velocity": 1,
        "hand": "right"
      },
      {
        "midi": 80,
        "time": 119.4,
        "duration": 0.6,
        "velocity": 1,
        "hand": "right"
      },
      {
        "midi": 72,
        "time": 119.7,
        "duration": 0.3,
        "velocity": 1,
        "hand": "right"
      },
      {
        "midi": 77,
        "time": 119.7,
        "duration": 0.3,
        "velocity": 1,
        "hand": "right"
      },
      {
        "midi": 58,
        "time": 120,
        "duration": 0.285,
        "velocity": 1,
        "hand": "left"
      },
      {
        "midi": 63,
        "time": 120,
        "duration": 1.2,
        "velocity": 1,
        "hand": "right"
      },
      {
        "midi": 67,
        "time": 120,
        "duration": 0.285,
        "velocity": 1,
        "hand": "right"
      },
      {
        "midi": 75,
        "time": 120,
        "duration": 0.885,
        "velocity": 1,
        "hand": "right"
      },
      {
        "midi": 79,
        "time": 120,
        "duration": 1.2,
        "velocity": 1,
        "hand": "right"
      },
      {
        "midi": 58,
        "time": 120.3,
        "duration": 0.3,
        "velocity": 1,
        "hand": "left"
      },
      {
        "midi": 67,
        "time": 120.3,
        "duration": 0.285,
        "velocity": 1,
        "hand": "right"
      },
      {
        "midi": 67,
        "time": 120.6,
        "duration": 0.3,
        "velocity": 1,
        "hand": "right"
      },
      {
        "midi": 70,
        "time": 120.6,
        "duration": 0.285,
        "velocity": 1,
        "hand": "right"
      },
      {
        "midi": 70,
        "time": 120.9,
        "duration": 0.285,
        "velocity": 1,
        "hand": "right"
      },
      {
        "midi": 75,
        "time": 120.9,
        "duration": 0.285,
        "velocity": 1,
        "hand": "right"
      },
      {
        "midi": 46,
        "time": 121.2,
        "duration": 1.2,
        "velocity": 1,
        "hand": "left"
      },
      {
        "midi": 68,
        "time": 121.2,
        "duration": 1.2,
        "velocity": 1,
        "hand": "right"
      },
      {
        "midi": 70,
        "time": 121.2,
        "duration": 1.2,
        "velocity": 1,
        "hand": "right"
      },
      {
        "midi": 75,
        "time": 121.2,
        "duration": 0.3,
        "velocity": 1,
        "hand": "right"
      },
      {
        "midi": 77,
        "time": 121.2,
        "duration": 1.2,
        "velocity": 1,
        "hand": "right"
      },
      {
        "midi": 74,
        "time": 121.5,
        "duration": 0.3,
        "velocity": 1,
        "hand": "right"
      },
      {
        "midi": 72,
        "time": 121.8,
        "duration": 0.3,
        "velocity": 1,
        "hand": "right"
      },
      {
        "midi": 74,
        "time": 122.1,
        "duration": 0.3,
        "velocity": 1,
        "hand": "right"
      },
      {
        "midi": 51,
        "time": 122.4,
        "duration": 0.585,
        "velocity": 1,
        "hand": "left"
      },
      {
        "midi": 63,
        "time": 122.4,
        "duration": 0.585,
        "velocity": 1,
        "hand": "right"
      },
      {
        "midi": 67,
        "time": 122.4,
        "duration": 0.585,
        "velocity": 1,
        "hand": "right"
      },
      {
        "midi": 75,
        "time": 122.4,
        "duration": 1.2,
        "velocity": 1,
        "hand": "right"
      },
      {
        "midi": 51,
        "time": 123,
        "duration": 0.6,
        "velocity": 1,
        "hand": "left"
      },
      {
        "midi": 63,
        "time": 123,
        "duration": 0.6,
        "velocity": 1,
        "hand": "right"
      },
      {
        "midi": 67,
        "time": 123,
        "duration": 0.585,
        "velocity": 1,
        "hand": "right"
      },
      {
        "midi": 79,
        "time": 123,
        "duration": 0.585,
        "velocity": 1,
        "hand": "right"
      },
      {
        "midi": 50,
        "time": 123.6,
        "duration": 0.6,
        "velocity": 1,
        "hand": "left"
      },
      {
        "midi": 62,
        "time": 123.6,
        "duration": 0.6,
        "velocity": 1,
        "hand": "right"
      },
      {
        "midi": 67,
        "time": 123.6,
        "duration": 0.585,
        "velocity": 1,
        "hand": "right"
      },
      {
        "midi": 79,
        "time": 123.6,
        "duration": 0.585,
        "velocity": 1,
        "hand": "right"
      },
      {
        "midi": 48,
        "time": 124.2,
        "duration": 0.6,
        "velocity": 1,
        "hand": "left"
      },
      {
        "midi": 60,
        "time": 124.2,
        "duration": 0.6,
        "velocity": 1,
        "hand": "right"
      },
      {
        "midi": 67,
        "time": 124.2,
        "duration": 0.585,
        "velocity": 1,
        "hand": "right"
      },
      {
        "midi": 79,
        "time": 124.2,
        "duration": 0.585,
        "velocity": 1,
        "hand": "right"
      },
      {
        "midi": 47,
        "time": 124.8,
        "duration": 1.2,
        "velocity": 1,
        "hand": "left"
      },
      {
        "midi": 59,
        "time": 124.8,
        "duration": 0.3,
        "velocity": 1,
        "hand": "left"
      },
      {
        "midi": 67,
        "time": 124.8,
        "duration": 0.585,
        "velocity": 1,
        "hand": "right"
      },
      {
        "midi": 79,
        "time": 124.8,
        "duration": 1.185,
        "velocity": 1,
        "hand": "right"
      },
      {
        "midi": 55,
        "time": 125.1,
        "duration": 0.585,
        "velocity": 1,
        "hand": "left"
      },
      {
        "midi": 62,
        "time": 125.1,
        "duration": 0.585,
        "velocity": 1,
        "hand": "right"
      },
      {
        "midi": 67,
        "time": 125.4,
        "duration": 0.3,
        "velocity": 1,
        "hand": "right"
      },
      {
        "midi": 55,
        "time": 125.7,
        "duration": 0.285,
        "velocity": 1,
        "hand": "left"
      },
      {
        "midi": 62,
        "time": 125.7,
        "duration": 0.285,
        "velocity": 1,
        "hand": "right"
      },
      {
        "midi": 55,
        "time": 126,
        "duration": 1.785,
        "velocity": 1,
        "hand": "left"
      },
      {
        "midi": 59,
        "time": 126,
        "duration": 1.8,
        "velocity": 1,
        "hand": "left"
      },
      {
        "midi": 62,
        "time": 126,
        "duration": 1.785,
        "velocity": 1,
        "hand": "right"
      },
      {
        "midi": 67,
        "time": 126,
        "duration": 1.785,
        "velocity": 1,
        "hand": "right"
      },
      {
        "midi": 74,
        "time": 126,
        "duration": 0.585,
        "velocity": 1,
        "hand": "right"
      },
      {
        "midi": 79,
        "time": 126,
        "duration": 1.185,
        "velocity": 1,
        "hand": "right"
      },
      {
        "midi": 71,
        "time": 126.3,
        "duration": 0.3,
        "velocity": 1,
        "hand": "right"
      },
      {
        "midi": 74,
        "time": 126.6,
        "duration": 0.3,
        "velocity": 1,
        "hand": "right"
      },
      {
        "midi": 78,
        "time": 126.9,
        "duration": 0.3,
        "velocity": 1,
        "hand": "right"
      },
      {
        "midi": 79,
        "time": 127.2,
        "duration": 0.3,
        "velocity": 1,
        "hand": "right"
      },
      {
        "midi": 74,
        "time": 127.5,
        "duration": 0.3,
        "velocity": 1,
        "hand": "right"
      },
      {
        "midi": 55,
        "time": 127.8,
        "duration": 0.6,
        "velocity": 1,
        "hand": "left"
      },
      {
        "midi": 67,
        "time": 127.8,
        "duration": 0.6,
        "velocity": 1,
        "hand": "right"
      },
      {
        "midi": 71,
        "time": 127.8,
        "duration": 0.6,
        "velocity": 1,
        "hand": "right"
      },
      {
        "midi": 77,
        "time": 127.8,
        "duration": 0.285,
        "velocity": 1,
        "hand": "right"
      },
      {
        "midi": 79,
        "time": 127.8,
        "duration": 0.6,
        "velocity": 1,
        "hand": "right"
      },
      {
        "midi": 77,
        "time": 128.1,
        "duration": 0.3,
        "velocity": 1,
        "hand": "right"
      },
      {
        "midi": 56,
        "time": 128.4,
        "duration": 0.6,
        "velocity": 1,
        "hand": "left"
      },
      {
        "midi": 60,
        "time": 128.4,
        "duration": 0.585,
        "velocity": 1,
        "hand": "right"
      },
      {
        "midi": 63,
        "time": 128.4,
        "duration": 0.6,
        "velocity": 1,
        "hand": "right"
      },
      {
        "midi": 72,
        "time": 128.4,
        "duration": 0.585,
        "velocity": 1,
        "hand": "right"
      },
      {
        "midi": 75,
        "time": 128.4,
        "duration": 0.6,
        "velocity": 1,
        "hand": "right"
      },
      {
        "midi": 74,
        "time": 128.7,
        "duration": 0.3,
        "velocity": 1,
        "hand": "right"
      },
      {
        "midi": 57,
        "time": 129,
        "duration": 0.6,
        "velocity": 1,
        "hand": "left"
      },
      {
        "midi": 60,
        "time": 129,
        "duration": 0.6,
        "velocity": 1,
        "hand": "right"
      },
      {
        "midi": 65,
        "time": 129,
        "duration": 0.6,
        "velocity": 1,
        "hand": "right"
      },
      {
        "midi": 72,
        "time": 129,
        "duration": 0.6,
        "velocity": 1,
        "hand": "right"
      },
      {
        "midi": 77,
        "time": 129,
        "duration": 0.285,
        "velocity": 1,
        "hand": "right"
      },
      {
        "midi": 68,
        "time": 129.3,
        "duration": 0.3,
        "velocity": 1,
        "hand": "right"
      },
      {
        "midi": 77,
        "time": 129.3,
        "duration": 0.3,
        "velocity": 1,
        "hand": "right"
      },
      {
        "midi": 39,
        "time": 129.6,
        "duration": 0.6,
        "velocity": 1,
        "hand": "left"
      },
      {
        "midi": 58,
        "time": 129.6,
        "duration": 0.285,
        "velocity": 1,
        "hand": "left"
      },
      {
        "midi": 67,
        "time": 129.6,
        "duration": 0.285,
        "velocity": 1,
        "hand": "right"
      },
      {
        "midi": 70,
        "time": 129.6,
        "duration": 0.585,
        "velocity": 1,
        "hand": "right"
      },
      {
        "midi": 75,
        "time": 129.6,
        "duration": 0.885,
        "velocity": 1,
        "hand": "right"
      },
      {
        "midi": 79,
        "time": 129.6,
        "duration": 1.2,
        "velocity": 1,
        "hand": "right"
      },
      {
        "midi": 58,
        "time": 129.9,
        "duration": 0.3,
        "velocity": 1,
        "hand": "left"
      },
      {
        "midi": 67,
        "time": 129.9,
        "duration": 0.285,
        "velocity": 1,
        "hand": "right"
      },
      {
        "midi": 67,
        "time": 130.2,
        "duration": 0.3,
        "velocity": 1,
        "hand": "right"
      },
      {
        "midi": 70,
        "time": 130.2,
        "duration": 0.285,
        "velocity": 1,
        "hand": "right"
      },
      {
        "midi": 70,
        "time": 130.5,
        "duration": 0.285,
        "velocity": 1,
        "hand": "right"
      },
      {
        "midi": 75,
        "time": 130.5,
        "duration": 0.285,
        "velocity": 1,
        "hand": "right"
      },
      {
        "midi": 39,
        "time": 130.8,
        "duration": 0.6,
        "velocity": 1,
        "hand": "left"
      },
      {
        "midi": 46,
        "time": 130.8,
        "duration": 1.2,
        "velocity": 1,
        "hand": "left"
      },
      {
        "midi": 68,
        "time": 130.8,
        "duration": 1.2,
        "velocity": 1,
        "hand": "right"
      },
      {
        "midi": 70,
        "time": 130.8,
        "duration": 1.2,
        "velocity": 1,
        "hand": "right"
      },
      {
        "midi": 75,
        "time": 130.8,
        "duration": 0.3,
        "velocity": 1,
        "hand": "right"
      },
      {
        "midi": 77,
        "time": 130.8,
        "duration": 1.2,
        "velocity": 1,
        "hand": "right"
      },
      {
        "midi": 74,
        "time": 131.1,
        "duration": 0.3,
        "velocity": 1,
        "hand": "right"
      },
      {
        "midi": 72,
        "time": 131.4,
        "duration": 0.3,
        "velocity": 1,
        "hand": "right"
      },
      {
        "midi": 74,
        "time": 131.7,
        "duration": 0.3,
        "velocity": 1,
        "hand": "right"
      },
      {
        "midi": 44,
        "time": 132,
        "duration": 0.585,
        "velocity": 1,
        "hand": "left"
      },
      {
        "midi": 51,
        "time": 132,
        "duration": 2.385,
        "velocity": 1,
        "hand": "left"
      },
      {
        "midi": 63,
        "time": 132,
        "duration": 0.585,
        "velocity": 1,
        "hand": "right"
      },
      {
        "midi": 67,
        "time": 132,
        "duration": 0.585,
        "velocity": 1,
        "hand": "right"
      },
      {
        "midi": 75,
        "time": 132,
        "duration": 2.4,
        "velocity": 1,
        "hand": "right"
      },
      {
        "midi": 70,
        "time": 132.3,
        "duration": 0.3,
        "velocity": 1,
        "hand": "right"
      },
      {
        "midi": 44,
        "time": 132.6,
        "duration": 0.3,
        "velocity": 1,
        "hand": "left"
      },
      {
        "midi": 63,
        "time": 132.6,
        "duration": 0.3,
        "velocity": 1,
        "hand": "right"
      },
      {
        "midi": 67,
        "time": 132.6,
        "duration": 0.3,
        "velocity": 1,
        "hand": "right"
      },
      {
        "midi": 58,
        "time": 132.9,
        "duration": 0.3,
        "velocity": 1,
        "hand": "left"
      },
      {
        "midi": 70,
        "time": 132.9,
        "duration": 0.3,
        "velocity": 1,
        "hand": "right"
      },
      {
        "midi": 44,
        "time": 133.2,
        "duration": 0.585,
        "velocity": 1,
        "hand": "left"
      },
      {
        "midi": 55,
        "time": 133.2,
        "duration": 0.3,
        "velocity": 1,
        "hand": "left"
      },
      {
        "midi": 63,
        "time": 133.2,
        "duration": 0.285,
        "velocity": 1,
        "hand": "right"
      },
      {
        "midi": 67,
        "time": 133.2,
        "duration": 0.3,
        "velocity": 1,
        "hand": "right"
      },
      {
        "midi": 58,
        "time": 133.5,
        "duration": 0.285,
        "velocity": 1,
        "hand": "left"
      },
      {
        "midi": 63,
        "time": 133.5,
        "duration": 0.285,
        "velocity": 1,
        "hand": "right"
      },
      {
        "midi": 44,
        "time": 133.8,
        "duration": 0.585,
        "velocity": 1,
        "hand": "left"
      },
      {
        "midi": 58,
        "time": 133.8,
        "duration": 0.285,
        "velocity": 1,
        "hand": "left"
      },
      {
        "midi": 63,
        "time": 133.8,
        "duration": 0.585,
        "velocity": 1,
        "hand": "right"
      },
      {
        "midi": 55,
        "time": 134.1,
        "duration": 0.285,
        "velocity": 1,
        "hand": "left"
      },
      {
        "midi": 58,
        "time": 134.1,
        "duration": 0.3,
        "velocity": 1,
        "hand": "left"
      },
      {
        "midi": 39,
        "time": 134.4,
        "duration": 1.785,
        "velocity": 1,
        "hand": "left"
      },
      {
        "midi": 44,
        "time": 134.4,
        "duration": 1.2,
        "velocity": 1,
        "hand": "left"
      },
      {
        "midi": 63,
        "time": 134.4,
        "duration": 1.2,
        "velocity": 1,
        "hand": "right"
      },
      {
        "midi": 39,
        "time": 136.2,
        "duration": 0.585,
        "velocity": 1,
        "hand": "left"
      },
      {
        "midi": 51,
        "time": 136.2,
        "duration": 0.585,
        "velocity": 1,
        "hand": "left"
      },
      {
        "midi": 39,
        "time": 136.8,
        "duration": 1.185,
        "velocity": 1,
        "hand": "left"
      },
      {
        "midi": 51,
        "time": 136.8,
        "duration": 1.185,
        "velocity": 1,
        "hand": "left"
      },
      {
        "midi": 39,
        "time": 138,
        "duration": 1.185,
        "velocity": 1,
        "hand": "left"
      },
      {
        "midi": 51,
        "time": 138,
        "duration": 1.185,
        "velocity": 1,
        "hand": "left"
      },
      {
        "midi": 39,
        "time": 139.2,
        "duration": 3.585,
        "velocity": 1,
        "hand": "left"
      },
      {
        "midi": 44,
        "time": 139.2,
        "duration": 0.15,
        "velocity": 1,
        "hand": "left"
      },
      {
        "midi": 63,
        "time": 139.2,
        "duration": 1.785,
        "velocity": 1,
        "hand": "right"
      },
      {
        "midi": 44,
        "time": 139.5,
        "duration": 0.15,
        "velocity": 1,
        "hand": "left"
      },
      {
        "midi": 44,
        "time": 139.8,
        "duration": 0.15,
        "velocity": 1,
        "hand": "left"
      },
      {
        "midi": 44,
        "time": 140.1,
        "duration": 0.15,
        "velocity": 1,
        "hand": "left"
      },
      {
        "midi": 44,
        "time": 140.4,
        "duration": 0.15,
        "velocity": 1,
        "hand": "left"
      },
      {
        "midi": 44,
        "time": 140.7,
        "duration": 0.15,
        "velocity": 1,
        "hand": "left"
      },
      {
        "midi": 44,
        "time": 141,
        "duration": 0.15,
        "velocity": 1,
        "hand": "left"
      },
      {
        "midi": 51,
        "time": 141,
        "duration": 0.585,
        "velocity": 1,
        "hand": "left"
      },
      {
        "midi": 63,
        "time": 141,
        "duration": 0.585,
        "velocity": 1,
        "hand": "right"
      },
      {
        "midi": 44,
        "time": 141.3,
        "duration": 0.15,
        "velocity": 1,
        "hand": "left"
      },
      {
        "midi": 44,
        "time": 141.6,
        "duration": 0.6,
        "velocity": 1,
        "hand": "left"
      },
      {
        "midi": 46,
        "time": 141.6,
        "duration": 2.4,
        "velocity": 1,
        "hand": "left"
      },
      {
        "midi": 63,
        "time": 141.6,
        "duration": 1.185,
        "velocity": 1,
        "hand": "right"
      },
      {
        "midi": 39,
        "time": 142.8,
        "duration": 0.6,
        "velocity": 1,
        "hand": "left"
      },
      {
        "midi": 51,
        "time": 142.8,
        "duration": 1.185,
        "velocity": 1,
        "hand": "left"
      },
      {
        "midi": 63,
        "time": 142.8,
        "duration": 1.185,
        "velocity": 1,
        "hand": "right"
      },
      {
        "midi": 39,
        "time": 144,
        "duration": 3.585,
        "velocity": 1,
        "hand": "left"
      },
      {
        "midi": 44,
        "time": 144,
        "duration": 0.15,
        "velocity": 1,
        "hand": "left"
      },
      {
        "midi": 63,
        "time": 144,
        "duration": 1.785,
        "velocity": 1,
        "hand": "right"
      },
      {
        "midi": 44,
        "time": 144.3,
        "duration": 0.15,
        "velocity": 1,
        "hand": "left"
      },
      {
        "midi": 44,
        "time": 144.6,
        "duration": 0.15,
        "velocity": 1,
        "hand": "left"
      },
      {
        "midi": 44,
        "time": 144.9,
        "duration": 0.15,
        "velocity": 1,
        "hand": "left"
      },
      {
        "midi": 44,
        "time": 145.2,
        "duration": 0.15,
        "velocity": 1,
        "hand": "left"
      },
      {
        "midi": 44,
        "time": 145.5,
        "duration": 0.15,
        "velocity": 1,
        "hand": "left"
      },
      {
        "midi": 44,
        "time": 145.8,
        "duration": 0.15,
        "velocity": 1,
        "hand": "left"
      },
      {
        "midi": 51,
        "time": 145.8,
        "duration": 0.585,
        "velocity": 1,
        "hand": "left"
      },
      {
        "midi": 63,
        "time": 145.8,
        "duration": 0.585,
        "velocity": 1,
        "hand": "right"
      },
      {
        "midi": 44,
        "time": 146.1,
        "duration": 0.15,
        "velocity": 1,
        "hand": "left"
      },
      {
        "midi": 44,
        "time": 146.4,
        "duration": 0.6,
        "velocity": 1,
        "hand": "left"
      },
      {
        "midi": 46,
        "time": 146.4,
        "duration": 2.4,
        "velocity": 1,
        "hand": "left"
      },
      {
        "midi": 63,
        "time": 146.4,
        "duration": 1.185,
        "velocity": 1,
        "hand": "right"
      },
      {
        "midi": 39,
        "time": 147.6,
        "duration": 0.6,
        "velocity": 1,
        "hand": "left"
      },
      {
        "midi": 51,
        "time": 147.6,
        "duration": 1.185,
        "velocity": 1,
        "hand": "left"
      },
      {
        "midi": 63,
        "time": 147.6,
        "duration": 1.185,
        "velocity": 1,
        "hand": "right"
      },
      {
        "midi": 47,
        "time": 148.8,
        "duration": 1.785,
        "velocity": 1,
        "hand": "left"
      },
      {
        "midi": 51,
        "time": 148.8,
        "duration": 4.785,
        "velocity": 1,
        "hand": "left"
      },
      {
        "midi": 63,
        "time": 148.8,
        "duration": 1.785,
        "velocity": 1,
        "hand": "right"
      },
      {
        "midi": 47,
        "time": 150.6,
        "duration": 0.6,
        "velocity": 1,
        "hand": "left"
      },
      {
        "midi": 54,
        "time": 150.6,
        "duration": 0.6,
        "velocity": 1,
        "hand": "left"
      },
      {
        "midi": 63,
        "time": 150.6,
        "duration": 0.585,
        "velocity": 1,
        "hand": "right"
      },
      {
        "midi": 46,
        "time": 151.2,
        "duration": 1.2,
        "velocity": 1,
        "hand": "left"
      },
      {
        "midi": 55,
        "time": 151.2,
        "duration": 1.2,
        "velocity": 1,
        "hand": "left"
      },
      {
        "midi": 61,
        "time": 151.2,
        "duration": 1.2,
        "velocity": 1,
        "hand": "right"
      },
      {
        "midi": 63,
        "time": 151.2,
        "duration": 1.8,
        "velocity": 1,
        "hand": "right"
      },
      {
        "midi": 44,
        "time": 152.4,
        "duration": 1.185,
        "velocity": 1,
        "hand": "left"
      },
      {
        "midi": 56,
        "time": 152.4,
        "duration": 1.185,
        "velocity": 1,
        "hand": "left"
      },
      {
        "midi": 62,
        "time": 153,
        "duration": 0.6,
        "velocity": 1,
        "hand": "right"
      },
      {
        "midi": 39,
        "time": 153.6,
        "duration": 5.7,
        "velocity": 1,
        "hand": "left"
      },
      {
        "midi": 44,
        "time": 153.6,
        "duration": 0.15,
        "velocity": 1,
        "hand": "left"
      },
      {
        "midi": 63,
        "time": 153.6,
        "duration": 1.785,
        "velocity": 1,
        "hand": "right"
      },
      {
        "midi": 44,
        "time": 153.9,
        "duration": 0.15,
        "velocity": 1,
        "hand": "left"
      },
      {
        "midi": 44,
        "time": 154.2,
        "duration": 0.285,
        "velocity": 1,
        "hand": "left"
      },
      {
        "midi": 44,
        "time": 154.5,
        "duration": 0.15,
        "velocity": 1,
        "hand": "left"
      },
      {
        "midi": 44,
        "time": 154.8,
        "duration": 0.15,
        "velocity": 1,
        "hand": "left"
      },
      {
        "midi": 46,
        "time": 154.8,
        "duration": 0.6,
        "velocity": 1,
        "hand": "left"
      },
      {
        "midi": 44,
        "time": 155.1,
        "duration": 0.15,
        "velocity": 1,
        "hand": "left"
      },
      {
        "midi": 44,
        "time": 155.4,
        "duration": 0.15,
        "velocity": 1,
        "hand": "left"
      },
      {
        "midi": 47,
        "time": 155.4,
        "duration": 0.6,
        "velocity": 1,
        "hand": "left"
      },
      {
        "midi": 63,
        "time": 155.4,
        "duration": 0.585,
        "velocity": 1,
        "hand": "right"
      },
      {
        "midi": 44,
        "time": 155.7,
        "duration": 0.15,
        "velocity": 1,
        "hand": "left"
      },
      {
        "midi": 44,
        "time": 156,
        "duration": 0.15,
        "velocity": 1,
        "hand": "left"
      },
      {
        "midi": 46,
        "time": 156,
        "duration": 3.3,
        "velocity": 1,
        "hand": "left"
      },
      {
        "midi": 63,
        "time": 156,
        "duration": 3.3,
        "velocity": 1,
        "hand": "right"
      },
      {
        "midi": 44,
        "time": 156.3,
        "duration": 0.15,
        "velocity": 1,
        "hand": "left"
      },
      {
        "midi": 44,
        "time": 156.6,
        "duration": 0.15,
        "velocity": 1,
        "hand": "left"
      },
      {
        "midi": 44,
        "time": 156.9,
        "duration": 0.15,
        "velocity": 1,
        "hand": "left"
      },
      {
        "midi": 44,
        "time": 157.2,
        "duration": 0.15,
        "velocity": 1,
        "hand": "left"
      },
      {
        "midi": 44,
        "time": 157.5,
        "duration": 0.15,
        "velocity": 1,
        "hand": "left"
      },
      {
        "midi": 44,
        "time": 157.8,
        "duration": 0.15,
        "velocity": 1,
        "hand": "left"
      },
      {
        "midi": 44,
        "time": 158.1,
        "duration": 0.15,
        "velocity": 1,
        "hand": "left"
      },
      {
        "midi": 44,
        "time": 158.4,
        "duration": 0.15,
        "velocity": 1,
        "hand": "left"
      },
      {
        "midi": 44,
        "time": 158.7,
        "duration": 0.15,
        "velocity": 1,
        "hand": "left"
      },
      {
        "midi": 44,
        "time": 159,
        "duration": 0.15,
        "velocity": 1,
        "hand": "left"
      },
      {
        "midi": 51,
        "time": 160.8,
        "duration": 0.15,
        "velocity": 1,
        "hand": "left"
      }
    ]
  },
  "notes1Hand": [
    {
      "midi": 70,
      "time": 0,
      "duration": 0.72,
      "velocity": 1,
      "hand": "right"
    },
    {
      "midi": 63,
      "time": 1.2,
      "duration": 0.72,
      "velocity": 1,
      "hand": "right"
    },
    {
      "midi": 70,
      "time": 2.4,
      "duration": 0.72,
      "velocity": 1,
      "hand": "right"
    },
    {
      "midi": 70,
      "time": 3.6,
      "duration": 0.72,
      "velocity": 1,
      "hand": "right"
    },
    {
      "midi": 70,
      "time": 4.8,
      "duration": 0.72,
      "velocity": 1,
      "hand": "right"
    },
    {
      "midi": 69,
      "time": 6,
      "duration": 0.72,
      "velocity": 1,
      "hand": "right"
    },
    {
      "midi": 70,
      "time": 7.2,
      "duration": 0.72,
      "velocity": 1,
      "hand": "right"
    },
    {
      "midi": 69,
      "time": 8.4,
      "duration": 0.72,
      "velocity": 1,
      "hand": "right"
    },
    {
      "midi": 68,
      "time": 9.6,
      "duration": 0.72,
      "velocity": 1,
      "hand": "right"
    },
    {
      "midi": 62,
      "time": 10.8,
      "duration": 0.72,
      "velocity": 1,
      "hand": "right"
    },
    {
      "midi": 68,
      "time": 12,
      "duration": 0.72,
      "velocity": 1,
      "hand": "right"
    },
    {
      "midi": 70,
      "time": 13.2,
      "duration": 0.72,
      "velocity": 1,
      "hand": "right"
    },
    {
      "midi": 63,
      "time": 14.4,
      "duration": 0.72,
      "velocity": 1,
      "hand": "right"
    },
    {
      "midi": 62,
      "time": 15.6,
      "duration": 0.72,
      "velocity": 1,
      "hand": "right"
    },
    {
      "midi": 70,
      "time": 16.8,
      "duration": 0.72,
      "velocity": 1,
      "hand": "right"
    },
    {
      "midi": 72,
      "time": 18,
      "duration": 0.72,
      "velocity": 1,
      "hand": "right"
    },
    {
      "midi": 70,
      "time": 19.2,
      "duration": 0.72,
      "velocity": 1,
      "hand": "right"
    },
    {
      "midi": 63,
      "time": 20.4,
      "duration": 0.72,
      "velocity": 1,
      "hand": "right"
    },
    {
      "midi": 70,
      "time": 21.6,
      "duration": 0.72,
      "velocity": 1,
      "hand": "right"
    },
    {
      "midi": 75,
      "time": 22.8,
      "duration": 0.72,
      "velocity": 1,
      "hand": "right"
    },
    {
      "midi": 70,
      "time": 24,
      "duration": 0.72,
      "velocity": 1,
      "hand": "right"
    },
    {
      "midi": 69,
      "time": 25.2,
      "duration": 0.72,
      "velocity": 1,
      "hand": "right"
    },
    {
      "midi": 72,
      "time": 26.4,
      "duration": 0.72,
      "velocity": 1,
      "hand": "right"
    },
    {
      "midi": 69,
      "time": 27.6,
      "duration": 1.2,
      "velocity": 1,
      "hand": "right"
    },
    {
      "midi": 74,
      "time": 28.8,
      "duration": 0.72,
      "velocity": 1,
      "hand": "right"
    },
    {
      "midi": 65,
      "time": 30,
      "duration": 0.72,
      "velocity": 1,
      "hand": "right"
    },
    {
      "midi": 70,
      "time": 31.2,
      "duration": 0.72,
      "velocity": 1,
      "hand": "right"
    },
    {
      "midi": 74,
      "time": 32.4,
      "duration": 0.72,
      "velocity": 1,
      "hand": "right"
    },
    {
      "midi": 74,
      "time": 33.6,
      "duration": 0.72,
      "velocity": 1,
      "hand": "right"
    },
    {
      "midi": 69,
      "time": 34.8,
      "duration": 0.72,
      "velocity": 1,
      "hand": "right"
    },
    {
      "midi": 70,
      "time": 36,
      "duration": 0.72,
      "velocity": 1,
      "hand": "right"
    },
    {
      "midi": 82,
      "time": 37.2,
      "duration": 0.72,
      "velocity": 1,
      "hand": "right"
    },
    {
      "midi": 77,
      "time": 38.4,
      "duration": 0.72,
      "velocity": 1,
      "hand": "right"
    },
    {
      "midi": 77,
      "time": 39.6,
      "duration": 0.885,
      "velocity": 1,
      "hand": "right"
    },
    {
      "midi": 77,
      "time": 40.8,
      "duration": 0.72,
      "velocity": 1,
      "hand": "right"
    },
    {
      "midi": 68,
      "time": 42,
      "duration": 0.72,
      "velocity": 1,
      "hand": "right"
    },
    {
      "midi": 70,
      "time": 43.2,
      "duration": 0.72,
      "velocity": 1,
      "hand": "right"
    },
    {
      "midi": 63,
      "time": 44.4,
      "duration": 0.72,
      "velocity": 1,
      "hand": "right"
    },
    {
      "midi": 70,
      "time": 45.6,
      "duration": 0.72,
      "velocity": 1,
      "hand": "right"
    },
    {
      "midi": 70,
      "time": 46.8,
      "duration": 0.72,
      "velocity": 1,
      "hand": "right"
    },
    {
      "midi": 72,
      "time": 48,
      "duration": 0.72,
      "velocity": 1,
      "hand": "right"
    },
    {
      "midi": 72,
      "time": 49.2,
      "duration": 0.72,
      "velocity": 1,
      "hand": "right"
    },
    {
      "midi": 78,
      "time": 50.4,
      "duration": 1.2,
      "velocity": 1,
      "hand": "right"
    },
    {
      "midi": 77,
      "time": 51.6,
      "duration": 0.72,
      "velocity": 1,
      "hand": "right"
    },
    {
      "midi": 80,
      "time": 52.8,
      "duration": 1.2,
      "velocity": 1,
      "hand": "right"
    },
    {
      "midi": 62,
      "time": 54,
      "duration": 0.72,
      "velocity": 1,
      "hand": "right"
    },
    {
      "midi": 70,
      "time": 55.2,
      "duration": 0.72,
      "velocity": 1,
      "hand": "right"
    },
    {
      "midi": 72,
      "time": 56.4,
      "duration": 0.72,
      "velocity": 1,
      "hand": "right"
    },
    {
      "midi": 67,
      "time": 57.6,
      "duration": 0.72,
      "velocity": 1,
      "hand": "right"
    },
    {
      "midi": 65,
      "time": 58.8,
      "duration": 0.72,
      "velocity": 1,
      "hand": "right"
    },
    {
      "midi": 70,
      "time": 60,
      "duration": 0.72,
      "velocity": 1,
      "hand": "right"
    },
    {
      "midi": 72,
      "time": 61.2,
      "duration": 0.72,
      "velocity": 1,
      "hand": "right"
    },
    {
      "midi": 70,
      "time": 62.4,
      "duration": 0.72,
      "velocity": 1,
      "hand": "right"
    },
    {
      "midi": 63,
      "time": 63.6,
      "duration": 0.72,
      "velocity": 1,
      "hand": "right"
    },
    {
      "midi": 70,
      "time": 64.8,
      "duration": 0.72,
      "velocity": 1,
      "hand": "right"
    },
    {
      "midi": 70,
      "time": 66,
      "duration": 0.72,
      "velocity": 1,
      "hand": "right"
    },
    {
      "midi": 72,
      "time": 67.2,
      "duration": 0.72,
      "velocity": 1,
      "hand": "right"
    },
    {
      "midi": 72,
      "time": 68.4,
      "duration": 0.72,
      "velocity": 1,
      "hand": "right"
    },
    {
      "midi": 78,
      "time": 69.6,
      "duration": 1.2,
      "velocity": 1,
      "hand": "right"
    },
    {
      "midi": 77,
      "time": 70.8,
      "duration": 0.72,
      "velocity": 1,
      "hand": "right"
    },
    {
      "midi": 77,
      "time": 72,
      "duration": 0.885,
      "velocity": 1,
      "hand": "right"
    },
    {
      "midi": 62,
      "time": 73.2,
      "duration": 0.72,
      "velocity": 1,
      "hand": "right"
    },
    {
      "midi": 79,
      "time": 74.4,
      "duration": 0.72,
      "velocity": 1,
      "hand": "right"
    },
    {
      "midi": 77,
      "time": 75.6,
      "duration": 0.72,
      "velocity": 1,
      "hand": "right"
    },
    {
      "midi": 77,
      "time": 76.8,
      "duration": 1.185,
      "velocity": 1,
      "hand": "right"
    },
    {
      "midi": 77,
      "time": 78,
      "duration": 1.185,
      "velocity": 1,
      "hand": "right"
    },
    {
      "midi": 77,
      "time": 79.2,
      "duration": 0.72,
      "velocity": 1,
      "hand": "right"
    },
    {
      "midi": 82,
      "time": 80.4,
      "duration": 0.72,
      "velocity": 1,
      "hand": "right"
    },
    {
      "midi": 82,
      "time": 81.6,
      "duration": 0.72,
      "velocity": 1,
      "hand": "right"
    },
    {
      "midi": 77,
      "time": 82.8,
      "duration": 0.885,
      "velocity": 1,
      "hand": "right"
    },
    {
      "midi": 77,
      "time": 84,
      "duration": 0.72,
      "velocity": 1,
      "hand": "right"
    },
    {
      "midi": 65,
      "time": 85.2,
      "duration": 0.72,
      "velocity": 1,
      "hand": "right"
    },
    {
      "midi": 70,
      "time": 86.4,
      "duration": 0.72,
      "velocity": 1,
      "hand": "right"
    },
    {
      "midi": 66,
      "time": 87.6,
      "duration": 0.72,
      "velocity": 1,
      "hand": "right"
    },
    {
      "midi": 73,
      "time": 88.8,
      "duration": 0.72,
      "velocity": 1,
      "hand": "right"
    },
    {
      "midi": 71,
      "time": 90,
      "duration": 0.72,
      "velocity": 1,
      "hand": "right"
    },
    {
      "midi": 70,
      "time": 91.2,
      "duration": 0.72,
      "velocity": 1,
      "hand": "right"
    },
    {
      "midi": 66,
      "time": 92.4,
      "duration": 0.72,
      "velocity": 1,
      "hand": "right"
    },
    {
      "midi": 70,
      "time": 93.6,
      "duration": 0.72,
      "velocity": 1,
      "hand": "right"
    },
    {
      "midi": 77,
      "time": 94.8,
      "duration": 0.72,
      "velocity": 1,
      "hand": "right"
    },
    {
      "midi": 78,
      "time": 96,
      "duration": 2.4,
      "velocity": 1,
      "hand": "right"
    },
    {
      "midi": 64,
      "time": 97.2,
      "duration": 0.72,
      "velocity": 1,
      "hand": "right"
    },
    {
      "midi": 63,
      "time": 98.4,
      "duration": 0.72,
      "velocity": 1,
      "hand": "right"
    },
    {
      "midi": 73,
      "time": 99.6,
      "duration": 0.72,
      "velocity": 1,
      "hand": "right"
    },
    {
      "midi": 70,
      "time": 100.8,
      "duration": 0.72,
      "velocity": 1,
      "hand": "right"
    },
    {
      "midi": 73,
      "time": 102,
      "duration": 0.72,
      "velocity": 1,
      "hand": "right"
    },
    {
      "midi": 70,
      "time": 103.2,
      "duration": 0.72,
      "velocity": 1,
      "hand": "right"
    },
    {
      "midi": 73,
      "time": 104.4,
      "duration": 0.72,
      "velocity": 1,
      "hand": "right"
    },
    {
      "midi": 70,
      "time": 105.6,
      "duration": 0.72,
      "velocity": 1,
      "hand": "right"
    },
    {
      "midi": 66,
      "time": 106.8,
      "duration": 0.72,
      "velocity": 1,
      "hand": "right"
    },
    {
      "midi": 73,
      "time": 108,
      "duration": 0.72,
      "velocity": 1,
      "hand": "right"
    },
    {
      "midi": 73,
      "time": 109.2,
      "duration": 0.72,
      "velocity": 1,
      "hand": "right"
    },
    {
      "midi": 70,
      "time": 110.4,
      "duration": 0.72,
      "velocity": 1,
      "hand": "right"
    },
    {
      "midi": 66,
      "time": 111.6,
      "duration": 0.72,
      "velocity": 1,
      "hand": "right"
    },
    {
      "midi": 75,
      "time": 112.8,
      "duration": 0.72,
      "velocity": 1,
      "hand": "right"
    },
    {
      "midi": 74,
      "time": 114,
      "duration": 0.72,
      "velocity": 1,
      "hand": "right"
    },
    {
      "midi": 75,
      "time": 115.2,
      "duration": 0.72,
      "velocity": 1,
      "hand": "right"
    },
    {
      "midi": 70,
      "time": 116.4,
      "duration": 0.72,
      "velocity": 1,
      "hand": "right"
    },
    {
      "midi": 75,
      "time": 117.6,
      "duration": 0.72,
      "velocity": 1,
      "hand": "right"
    },
    {
      "midi": 75,
      "time": 118.8,
      "duration": 0.72,
      "velocity": 1,
      "hand": "right"
    },
    {
      "midi": 79,
      "time": 120,
      "duration": 1.2,
      "velocity": 1,
      "hand": "right"
    },
    {
      "midi": 77,
      "time": 121.2,
      "duration": 1.2,
      "velocity": 1,
      "hand": "right"
    },
    {
      "midi": 75,
      "time": 122.4,
      "duration": 1.2,
      "velocity": 1,
      "hand": "right"
    },
    {
      "midi": 79,
      "time": 123.6,
      "duration": 0.72,
      "velocity": 1,
      "hand": "right"
    },
    {
      "midi": 79,
      "time": 124.8,
      "duration": 1.185,
      "velocity": 1,
      "hand": "right"
    },
    {
      "midi": 79,
      "time": 126,
      "duration": 1.185,
      "velocity": 1,
      "hand": "right"
    },
    {
      "midi": 79,
      "time": 127.2,
      "duration": 0.72,
      "velocity": 1,
      "hand": "right"
    },
    {
      "midi": 75,
      "time": 128.4,
      "duration": 0.72,
      "velocity": 1,
      "hand": "right"
    },
    {
      "midi": 79,
      "time": 129.6,
      "duration": 1.2,
      "velocity": 1,
      "hand": "right"
    },
    {
      "midi": 77,
      "time": 130.8,
      "duration": 1.2,
      "velocity": 1,
      "hand": "right"
    },
    {
      "midi": 75,
      "time": 132,
      "duration": 2.4,
      "velocity": 1,
      "hand": "right"
    },
    {
      "midi": 67,
      "time": 133.2,
      "duration": 0.72,
      "velocity": 1,
      "hand": "right"
    },
    {
      "midi": 63,
      "time": 134.4,
      "duration": 1.2,
      "velocity": 1,
      "hand": "right"
    },
    {
      "midi": 63,
      "time": 136.2,
      "duration": 0.72,
      "velocity": 1,
      "hand": "right"
    },
    {
      "midi": 63,
      "time": 138,
      "duration": 1.185,
      "velocity": 1,
      "hand": "right"
    },
    {
      "midi": 63,
      "time": 139.2,
      "duration": 1.785,
      "velocity": 1,
      "hand": "right"
    },
    {
      "midi": 56,
      "time": 140.4,
      "duration": 0.72,
      "velocity": 1,
      "hand": "right"
    },
    {
      "midi": 63,
      "time": 141.6,
      "duration": 1.185,
      "velocity": 1,
      "hand": "right"
    },
    {
      "midi": 63,
      "time": 142.8,
      "duration": 1.185,
      "velocity": 1,
      "hand": "right"
    },
    {
      "midi": 63,
      "time": 144,
      "duration": 1.785,
      "velocity": 1,
      "hand": "right"
    },
    {
      "midi": 56,
      "time": 145.2,
      "duration": 0.72,
      "velocity": 1,
      "hand": "right"
    },
    {
      "midi": 63,
      "time": 146.4,
      "duration": 1.185,
      "velocity": 1,
      "hand": "right"
    },
    {
      "midi": 63,
      "time": 147.6,
      "duration": 1.185,
      "velocity": 1,
      "hand": "right"
    },
    {
      "midi": 63,
      "time": 148.8,
      "duration": 1.785,
      "velocity": 1,
      "hand": "right"
    },
    {
      "midi": 63,
      "time": 150.6,
      "duration": 0.72,
      "velocity": 1,
      "hand": "right"
    },
    {
      "midi": 56,
      "time": 152.4,
      "duration": 1.185,
      "velocity": 1,
      "hand": "right"
    },
    {
      "midi": 63,
      "time": 153.6,
      "duration": 1.785,
      "velocity": 1,
      "hand": "right"
    },
    {
      "midi": 58,
      "time": 154.8,
      "duration": 0.72,
      "velocity": 1,
      "hand": "right"
    },
    {
      "midi": 63,
      "time": 156,
      "duration": 2.4,
      "velocity": 1,
      "hand": "right"
    },
    {
      "midi": 56,
      "time": 157.2,
      "duration": 0.72,
      "velocity": 1,
      "hand": "right"
    },
    {
      "midi": 56,
      "time": 158.4,
      "duration": 0.72,
      "velocity": 1,
      "hand": "right"
    },
    {
      "midi": 63,
      "time": 160.8,
      "duration": 0.72,
      "velocity": 1,
      "hand": "right"
    }
  ],
  "notes2Hands": [
    {
      "midi": 51,
      "time": 0,
      "duration": 1.185,
      "velocity": 1,
      "hand": "left"
    },
    {
      "midi": 58,
      "time": 0,
      "duration": 0.285,
      "velocity": 1,
      "hand": "left"
    },
    {
      "midi": 67,
      "time": 0,
      "duration": 0.285,
      "velocity": 1,
      "hand": "right"
    },
    {
      "midi": 70,
      "time": 0,
      "duration": 0.285,
      "velocity": 1,
      "hand": "right"
    },
    {
      "midi": 58,
      "time": 0.3,
      "duration": 0.585,
      "velocity": 1,
      "hand": "left"
    },
    {
      "midi": 67,
      "time": 0.3,
      "duration": 0.285,
      "velocity": 1,
      "hand": "right"
    },
    {
      "midi": 70,
      "time": 0.3,
      "duration": 0.3,
      "velocity": 1,
      "hand": "right"
    },
    {
      "midi": 63,
      "time": 0.6,
      "duration": 0.3,
      "velocity": 1,
      "hand": "right"
    },
    {
      "midi": 67,
      "time": 0.6,
      "duration": 0.285,
      "velocity": 1,
      "hand": "right"
    },
    {
      "midi": 58,
      "time": 0.9,
      "duration": 0.3,
      "velocity": 1,
      "hand": "left"
    },
    {
      "midi": 67,
      "time": 0.9,
      "duration": 0.3,
      "velocity": 1,
      "hand": "right"
    },
    {
      "midi": 70,
      "time": 0.9,
      "duration": 0.3,
      "velocity": 1,
      "hand": "right"
    },
    {
      "midi": 51,
      "time": 1.2,
      "duration": 0.585,
      "velocity": 1,
      "hand": "left"
    },
    {
      "midi": 58,
      "time": 1.5,
      "duration": 0.285,
      "velocity": 1,
      "hand": "left"
    },
    {
      "midi": 67,
      "time": 1.5,
      "duration": 0.285,
      "velocity": 1,
      "hand": "right"
    },
    {
      "midi": 70,
      "time": 1.5,
      "duration": 0.285,
      "velocity": 1,
      "hand": "right"
    },
    {
      "midi": 51,
      "time": 1.8,
      "duration": 0.585,
      "velocity": 1,
      "hand": "left"
    },
    {
      "midi": 58,
      "time": 1.8,
      "duration": 0.285,
      "velocity": 1,
      "hand": "left"
    },
    {
      "midi": 63,
      "time": 1.8,
      "duration": 0.3,
      "velocity": 1,
      "hand": "right"
    },
    {
      "midi": 67,
      "time": 1.8,
      "duration": 0.285,
      "velocity": 1,
      "hand": "right"
    },
    {
      "midi": 70,
      "time": 1.8,
      "duration": 0.285,
      "velocity": 1,
      "hand": "right"
    },
    {
      "midi": 58,
      "time": 2.1,
      "duration": 0.285,
      "velocity": 1,
      "hand": "left"
    },
    {
      "midi": 67,
      "time": 2.1,
      "duration": 0.285,
      "velocity": 1,
      "hand": "right"
    },
    {
      "midi": 70,
      "time": 2.1,
      "duration": 0.285,
      "velocity": 1,
      "hand": "right"
    },
    {
      "midi": 51,
      "time": 2.4,
      "duration": 0.585,
      "velocity": 1,
      "hand": "left"
    },
    {
      "midi": 58,
      "time": 2.4,
      "duration": 0.285,
      "velocity": 1,
      "hand": "left"
    },
    {
      "midi": 67,
      "time": 2.4,
      "duration": 0.285,
      "velocity": 1,
      "hand": "right"
    },
    {
      "midi": 70,
      "time": 2.4,
      "duration": 0.285,
      "velocity": 1,
      "hand": "right"
    },
    {
      "midi": 58,
      "time": 2.7,
      "duration": 0.285,
      "velocity": 1,
      "hand": "left"
    },
    {
      "midi": 67,
      "time": 2.7,
      "duration": 0.285,
      "velocity": 1,
      "hand": "right"
    },
    {
      "midi": 70,
      "time": 2.7,
      "duration": 0.285,
      "velocity": 1,
      "hand": "right"
    },
    {
      "midi": 51,
      "time": 3,
      "duration": 0.585,
      "velocity": 1,
      "hand": "left"
    },
    {
      "midi": 58,
      "time": 3,
      "duration": 0.285,
      "velocity": 1,
      "hand": "left"
    },
    {
      "midi": 63,
      "time": 3,
      "duration": 0.3,
      "velocity": 1,
      "hand": "right"
    },
    {
      "midi": 67,
      "time": 3,
      "duration": 0.285,
      "velocity": 1,
      "hand": "right"
    },
    {
      "midi": 70,
      "time": 3,
      "duration": 0.285,
      "velocity": 1,
      "hand": "right"
    },
    {
      "midi": 58,
      "time": 3.3,
      "duration": 0.285,
      "velocity": 1,
      "hand": "left"
    },
    {
      "midi": 67,
      "time": 3.3,
      "duration": 0.285,
      "velocity": 1,
      "hand": "right"
    },
    {
      "midi": 70,
      "time": 3.3,
      "duration": 0.285,
      "velocity": 1,
      "hand": "right"
    },
    {
      "midi": 51,
      "time": 3.6,
      "duration": 0.585,
      "velocity": 1,
      "hand": "left"
    },
    {
      "midi": 58,
      "time": 3.6,
      "duration": 0.6,
      "velocity": 1,
      "hand": "left"
    },
    {
      "midi": 67,
      "time": 3.6,
      "duration": 0.285,
      "velocity": 1,
      "hand": "right"
    },
    {
      "midi": 70,
      "time": 3.6,
      "duration": 0.285,
      "velocity": 1,
      "hand": "right"
    },
    {
      "midi": 55,
      "time": 3.9,
      "duration": 0.285,
      "velocity": 1,
      "hand": "left"
    },
    {
      "midi": 67,
      "time": 3.9,
      "duration": 0.285,
      "velocity": 1,
      "hand": "right"
    },
    {
      "midi": 70,
      "time": 3.9,
      "duration": 0.3,
      "velocity": 1,
      "hand": "right"
    },
    {
      "midi": 51,
      "time": 4.2,
      "duration": 0.585,
      "velocity": 1,
      "hand": "left"
    },
    {
      "midi": 55,
      "time": 4.2,
      "duration": 0.285,
      "velocity": 1,
      "hand": "left"
    },
    {
      "midi": 63,
      "time": 4.2,
      "duration": 0.3,
      "velocity": 1,
      "hand": "right"
    },
    {
      "midi": 67,
      "time": 4.2,
      "duration": 0.285,
      "velocity": 1,
      "hand": "right"
    },
    {
      "midi": 72,
      "time": 4.2,
      "duration": 0.285,
      "velocity": 1,
      "hand": "right"
    },
    {
      "midi": 55,
      "time": 4.5,
      "duration": 0.3,
      "velocity": 1,
      "hand": "left"
    },
    {
      "midi": 67,
      "time": 4.5,
      "duration": 0.3,
      "velocity": 1,
      "hand": "right"
    },
    {
      "midi": 72,
      "time": 4.5,
      "duration": 0.3,
      "velocity": 1,
      "hand": "right"
    },
    {
      "midi": 51,
      "time": 4.8,
      "duration": 1.185,
      "velocity": 1,
      "hand": "left"
    },
    {
      "midi": 60,
      "time": 4.8,
      "duration": 0.285,
      "velocity": 1,
      "hand": "right"
    },
    {
      "midi": 66,
      "time": 4.8,
      "duration": 0.285,
      "velocity": 1,
      "hand": "right"
    },
    {
      "midi": 70,
      "time": 4.8,
      "duration": 0.285,
      "velocity": 1,
      "hand": "right"
    },
    {
      "midi": 60,
      "time": 5.1,
      "duration": 0.585,
      "velocity": 1,
      "hand": "right"
    },
    {
      "midi": 66,
      "time": 5.1,
      "duration": 0.285,
      "velocity": 1,
      "hand": "right"
    },
    {
      "midi": 70,
      "time": 5.1,
      "duration": 0.285,
      "velocity": 1,
      "hand": "right"
    },
    {
      "midi": 66,
      "time": 5.4,
      "duration": 0.285,
      "velocity": 1,
      "hand": "right"
    },
    {
      "midi": 70,
      "time": 5.4,
      "duration": 0.285,
      "velocity": 1,
      "hand": "right"
    },
    {
      "midi": 60,
      "time": 5.7,
      "duration": 0.285,
      "velocity": 1,
      "hand": "right"
    },
    {
      "midi": 66,
      "time": 5.7,
      "duration": 0.285,
      "velocity": 1,
      "hand": "right"
    },
    {
      "midi": 70,
      "time": 5.7,
      "duration": 0.3,
      "velocity": 1,
      "hand": "right"
    },
    {
      "midi": 51,
      "time": 6,
      "duration": 1.185,
      "velocity": 1,
      "hand": "left"
    },
    {
      "midi": 60,
      "time": 6,
      "duration": 0.285,
      "velocity": 1,
      "hand": "right"
    },
    {
      "midi": 66,
      "time": 6,
      "duration": 0.285,
      "velocity": 1,
      "hand": "right"
    },
    {
      "midi": 69,
      "time": 6,
      "duration": 0.285,
      "velocity": 1,
      "hand": "right"
    },
    {
      "midi": 60,
      "time": 6.3,
      "duration": 0.585,
      "velocity": 1,
      "hand": "right"
    },
    {
      "midi": 66,
      "time": 6.3,
      "duration": 0.3,
      "velocity": 1,
      "hand": "right"
    },
    {
      "midi": 69,
      "time": 6.3,
      "duration": 0.3,
      "velocity": 1,
      "hand": "right"
    },
    {
      "midi": 63,
      "time": 6.6,
      "duration": 0.3,
      "velocity": 1,
      "hand": "right"
    },
    {
      "midi": 60,
      "time": 6.9,
      "duration": 0.285,
      "velocity": 1,
      "hand": "right"
    },
    {
      "midi": 66,
      "time": 6.9,
      "duration": 0.285,
      "velocity": 1,
      "hand": "right"
    },
    {
      "midi": 69,
      "time": 6.9,
      "duration": 0.3,
      "velocity": 1,
      "hand": "right"
    },
    {
      "midi": 51,
      "time": 7.2,
      "duration": 1.185,
      "velocity": 1,
      "hand": "left"
    },
    {
      "midi": 60,
      "time": 7.2,
      "duration": 0.285,
      "velocity": 1,
      "hand": "right"
    },
    {
      "midi": 66,
      "time": 7.2,
      "duration": 0.285,
      "velocity": 1,
      "hand": "right"
    },
    {
      "midi": 70,
      "time": 7.2,
      "duration": 0.285,
      "velocity": 1,
      "hand": "right"
    },
    {
      "midi": 60,
      "time": 7.5,
      "duration": 0.585,
      "velocity": 1,
      "hand": "right"
    },
    {
      "midi": 66,
      "time": 7.5,
      "duration": 0.285,
      "velocity": 1,
      "hand": "right"
    },
    {
      "midi": 70,
      "time": 7.5,
      "duration": 0.285,
      "velocity": 1,
      "hand": "right"
    },
    {
      "midi": 66,
      "time": 7.8,
      "duration": 0.285,
      "velocity": 1,
      "hand": "right"
    },
    {
      "midi": 70,
      "time": 7.8,
      "duration": 0.285,
      "velocity": 1,
      "hand": "right"
    },
    {
      "midi": 60,
      "time": 8.1,
      "duration": 0.285,
      "velocity": 1,
      "hand": "right"
    },
    {
      "midi": 66,
      "time": 8.1,
      "duration": 0.285,
      "velocity": 1,
      "hand": "right"
    },
    {
      "midi": 70,
      "time": 8.1,
      "duration": 0.3,
      "velocity": 1,
      "hand": "right"
    },
    {
      "midi": 51,
      "time": 8.4,
      "duration": 1.2,
      "velocity": 1,
      "hand": "left"
    },
    {
      "midi": 60,
      "time": 8.4,
      "duration": 0.285,
      "velocity": 1,
      "hand": "right"
    },
    {
      "midi": 66,
      "time": 8.4,
      "duration": 0.285,
      "velocity": 1,
      "hand": "right"
    },
    {
      "midi": 69,
      "time": 8.4,
      "duration": 0.285,
      "velocity": 1,
      "hand": "right"
    },
    {
      "midi": 60,
      "time": 8.7,
      "duration": 0.585,
      "velocity": 1,
      "hand": "right"
    },
    {
      "midi": 66,
      "time": 8.7,
      "duration": 0.3,
      "velocity": 1,
      "hand": "right"
    },
    {
      "midi": 69,
      "time": 8.7,
      "duration": 0.3,
      "velocity": 1,
      "hand": "right"
    },
    {
      "midi": 63,
      "time": 9,
      "duration": 0.3,
      "velocity": 1,
      "hand": "right"
    },
    {
      "midi": 60,
      "time": 9.3,
      "duration": 0.3,
      "velocity": 1,
      "hand": "right"
    },
    {
      "midi": 66,
      "time": 9.3,
      "duration": 0.3,
      "velocity": 1,
      "hand": "right"
    },
    {
      "midi": 69,
      "time": 9.3,
      "duration": 0.3,
      "velocity": 1,
      "hand": "right"
    },
    {
      "midi": 50,
      "time": 9.6,
      "duration": 1.185,
      "velocity": 1,
      "hand": "left"
    },
    {
      "midi": 59,
      "time": 9.6,
      "duration": 0.285,
      "velocity": 1,
      "hand": "left"
    },
    {
      "midi": 65,
      "time": 9.6,
      "duration": 0.285,
      "velocity": 1,
      "hand": "right"
    },
    {
      "midi": 68,
      "time": 9.6,
      "duration": 0.285,
      "velocity": 1,
      "hand": "right"
    },
    {
      "midi": 59,
      "time": 9.9,
      "duration": 0.585,
      "velocity": 1,
      "hand": "left"
    },
    {
      "midi": 65,
      "time": 9.9,
      "duration": 0.285,
      "velocity": 1,
      "hand": "right"
    },
    {
      "midi": 68,
      "time": 9.9,
      "duration": 0.3,
      "velocity": 1,
      "hand": "right"
    },
    {
      "midi": 65,
      "time": 10.2,
      "duration": 0.285,
      "velocity": 1,
      "hand": "right"
    },
    {
      "midi": 59,
      "time": 10.5,
      "duration": 0.3,
      "velocity": 1,
      "hand": "left"
    },
    {
      "midi": 65,
      "time": 10.5,
      "duration": 0.3,
      "velocity": 1,
      "hand": "right"
    },
    {
      "midi": 68,
      "time": 10.5,
      "duration": 0.3,
      "velocity": 1,
      "hand": "right"
    },
    {
      "midi": 50,
      "time": 10.8,
      "duration": 0.585,
      "velocity": 1,
      "hand": "left"
    },
    {
      "midi": 59,
      "time": 11.1,
      "duration": 0.285,
      "velocity": 1,
      "hand": "left"
    },
    {
      "midi": 65,
      "time": 11.1,
      "duration": 0.285,
      "velocity": 1,
      "hand": "right"
    },
    {
      "midi": 68,
      "time": 11.1,
      "duration": 0.285,
      "velocity": 1,
      "hand": "right"
    },
    {
      "midi": 50,
      "time": 11.4,
      "duration": 0.6,
      "velocity": 1,
      "hand": "left"
    },
    {
      "midi": 59,
      "time": 11.4,
      "duration": 0.285,
      "velocity": 1,
      "hand": "left"
    },
    {
      "midi": 65,
      "time": 11.4,
      "duration": 0.285,
      "velocity": 1,
      "hand": "right"
    },
    {
      "midi": 68,
      "time": 11.4,
      "duration": 0.285,
      "velocity": 1,
      "hand": "right"
    },
    {
      "midi": 59,
      "time": 11.7,
      "duration": 0.3,
      "velocity": 1,
      "hand": "left"
    },
    {
      "midi": 65,
      "time": 11.7,
      "duration": 0.285,
      "velocity": 1,
      "hand": "right"
    },
    {
      "midi": 68,
      "time": 11.7,
      "duration": 0.285,
      "velocity": 1,
      "hand": "right"
    },
    {
      "midi": 51,
      "time": 12,
      "duration": 1.2,
      "velocity": 1,
      "hand": "left"
    },
    {
      "midi": 58,
      "time": 12,
      "duration": 0.285,
      "velocity": 1,
      "hand": "left"
    },
    {
      "midi": 65,
      "time": 12,
      "duration": 0.285,
      "velocity": 1,
      "hand": "right"
    },
    {
      "midi": 68,
      "time": 12,
      "duration": 0.285,
      "velocity": 1,
      "hand": "right"
    },
    {
      "midi": 58,
      "time": 12.3,
      "duration": 0.585,
      "velocity": 1,
      "hand": "left"
    },
    {
      "midi": 65,
      "time": 12.3,
      "duration": 0.3,
      "velocity": 1,
      "hand": "right"
    },
    {
      "midi": 68,
      "time": 12.3,
      "duration": 0.3,
      "velocity": 1,
      "hand": "right"
    },
    {
      "midi": 63,
      "time": 12.6,
      "duration": 0.6,
      "velocity": 1,
      "hand": "right"
    },
    {
      "midi": 67,
      "time": 12.6,
      "duration": 0.285,
      "velocity": 1,
      "hand": "right"
    },
    {
      "midi": 58,
      "time": 12.9,
      "duration": 0.3,
      "velocity": 1,
      "hand": "left"
    },
    {
      "midi": 67,
      "time": 12.9,
      "duration": 0.3,
      "velocity": 1,
      "hand": "right"
    },
    {
      "midi": 70,
      "time": 12.9,
      "duration": 0.285,
      "velocity": 1,
      "hand": "right"
    },
    {
      "midi": 44,
      "time": 13.2,
      "duration": 1.2,
      "velocity": 1,
      "hand": "left"
    },
    {
      "midi": 60,
      "time": 13.2,
      "duration": 0.285,
      "velocity": 1,
      "hand": "right"
    },
    {
      "midi": 70,
      "time": 13.2,
      "duration": 0.3,
      "velocity": 1,
      "hand": "right"
    },
    {
      "midi": 60,
      "time": 13.5,
      "duration": 0.285,
      "velocity": 1,
      "hand": "right"
    },
    {
      "midi": 68,
      "time": 13.5,
      "duration": 0.3,
      "velocity": 1,
      "hand": "right"
    },
    {
      "midi": 58,
      "time": 13.8,
      "duration": 0.3,
      "velocity": 1,
      "hand": "left"
    },
    {
      "midi": 60,
      "time": 13.8,
      "duration": 0.285,
      "velocity": 1,
      "hand": "right"
    },
    {
      "midi": 67,
      "time": 13.8,
      "duration": 0.3,
      "velocity": 1,
      "hand": "right"
    },
    {
      "midi": 56,
      "time": 14.1,
      "duration": 0.3,
      "velocity": 1,
      "hand": "left"
    },
    {
      "midi": 60,
      "time": 14.1,
      "duration": 0.3,
      "velocity": 1,
      "hand": "right"
    },
    {
      "midi": 65,
      "time": 14.1,
      "duration": 0.3,
      "velocity": 1,
      "hand": "right"
    },
    {
      "midi": 46,
      "time": 14.4,
      "duration": 0.885,
      "velocity": 1,
      "hand": "left"
    },
    {
      "midi": 55,
      "time": 14.4,
      "duration": 0.285,
      "velocity": 1,
      "hand": "left"
    },
    {
      "midi": 63,
      "time": 14.4,
      "duration": 0.585,
      "velocity": 1,
      "hand": "right"
    },
    {
      "midi": 55,
      "time": 14.7,
      "duration": 0.6,
      "velocity": 1,
      "hand": "left"
    },
    {
      "midi": 58,
      "time": 14.7,
      "duration": 0.585,
      "velocity": 1,
      "hand": "left"
    },
    {
      "midi": 63,
      "time": 15,
      "duration": 0.3,
      "velocity": 1,
      "hand": "right"
    },
    {
      "midi": 46,
      "time": 15.3,
      "duration": 0.285,
      "velocity": 1,
      "hand": "left"
    },
    {
      "midi": 56,
      "time": 15.3,
      "duration": 0.3,
      "velocity": 1,
      "hand": "left"
    },
    {
      "midi": 65,
      "time": 15.3,
      "duration": 0.3,
      "velocity": 1,
      "hand": "right"
    },
    {
      "midi": 46,
      "time": 15.6,
      "duration": 1.185,
      "velocity": 1,
      "hand": "left"
    },
    {
      "midi": 53,
      "time": 15.6,
      "duration": 0.285,
      "velocity": 1,
      "hand": "left"
    },
    {
      "midi": 62,
      "time": 15.6,
      "duration": 0.285,
      "velocity": 1,
      "hand": "right"
    },
    {
      "midi": 53,
      "time": 15.9,
      "duration": 0.6,
      "velocity": 1,
      "hand": "left"
    },
    {
      "midi": 58,
      "time": 15.9,
      "duration": 0.3,
      "velocity": 1,
      "hand": "left"
    },
    {
      "midi": 62,
      "time": 15.9,
      "duration": 0.285,
      "velocity": 1,
      "hand": "right"
    },
    {
      "midi": 62,
      "time": 16.2,
      "duration": 0.3,
      "velocity": 1,
      "hand": "right"
    },
    {
      "midi": 65,
      "time": 16.2,
      "duration": 0.3,
      "velocity": 1,
      "hand": "right"
    },
    {
      "midi": 54,
      "time": 16.5,
      "duration": 0.3,
      "velocity": 1,
      "hand": "left"
    },
    {
      "midi": 63,
      "time": 16.5,
      "duration": 0.3,
      "velocity": 1,
      "hand": "right"
    },
    {
      "midi": 69,
      "time": 16.5,
      "duration": 0.3,
      "velocity": 1,
      "hand": "right"
    },
    {
      "midi": 46,
      "time": 16.8,
      "duration": 0.585,
      "velocity": 1,
      "hand": "left"
    },
    {
      "midi": 53,
      "time": 16.8,
      "duration": 0.6,
      "velocity": 1,
      "hand": "left"
    },
    {
      "midi": 62,
      "time": 16.8,
      "duration": 0.585,
      "velocity": 1,
      "hand": "right"
    },
    {
      "midi": 70,
      "time": 16.8,
      "duration": 0.585,
      "velocity": 1,
      "hand": "right"
    },
    {
      "midi": 46,
      "time": 17.4,
      "duration": 0.585,
      "velocity": 1,
      "hand": "left"
    },
    {
      "midi": 56,
      "time": 17.4,
      "duration": 0.6,
      "velocity": 1,
      "hand": "left"
    },
    {
      "midi": 62,
      "time": 17.4,
      "duration": 0.6,
      "velocity": 1,
      "hand": "right"
    },
    {
      "midi": 65,
      "time": 17.4,
      "duration": 0.6,
      "velocity": 1,
      "hand": "right"
    },
    {
      "midi": 70,
      "time": 17.4,
      "duration": 0.285,
      "velocity": 1,
      "hand": "right"
    },
    {
      "midi": 72,
      "time": 17.4,
      "duration": 0.3,
      "velocity": 1,
      "hand": "right"
    },
    {
      "midi": 70,
      "time": 17.7,
      "duration": 0.285,
      "velocity": 1,
      "hand": "right"
    },
    {
      "midi": 46,
      "time": 18,
      "duration": 0.585,
      "velocity": 1,
      "hand": "left"
    },
    {
      "midi": 55,
      "time": 18,
      "duration": 0.6,
      "velocity": 1,
      "hand": "left"
    },
    {
      "midi": 63,
      "time": 18,
      "duration": 0.6,
      "velocity": 1,
      "hand": "right"
    },
    {
      "midi": 67,
      "time": 18,
      "duration": 0.6,
      "velocity": 1,
      "hand": "right"
    },
    {
      "midi": 70,
      "time": 18,
      "duration": 0.285,
      "velocity": 1,
      "hand": "right"
    },
    {
      "midi": 72,
      "time": 18,
      "duration": 0.3,
      "velocity": 1,
      "hand": "right"
    },
    {
      "midi": 70,
      "time": 18.3,
      "duration": 0.285,
      "velocity": 1,
      "hand": "right"
    },
    {
      "midi": 46,
      "time": 18.6,
      "duration": 0.6,
      "velocity": 1,
      "hand": "left"
    },
    {
      "midi": 53,
      "time": 18.6,
      "duration": 0.6,
      "velocity": 1,
      "hand": "left"
    },
    {
      "midi": 62,
      "time": 18.6,
      "duration": 0.6,
      "velocity": 1,
      "hand": "right"
    },
    {
      "midi": 68,
      "time": 18.6,
      "duration": 0.6,
      "velocity": 1,
      "hand": "right"
    },
    {
      "midi": 70,
      "time": 18.6,
      "duration": 0.285,
      "velocity": 1,
      "hand": "right"
    },
    {
      "midi": 72,
      "time": 18.6,
      "duration": 0.3,
      "velocity": 1,
      "hand": "right"
    },
    {
      "midi": 70,
      "time": 18.9,
      "duration": 0.285,
      "velocity": 1,
      "hand": "right"
    },
    {
      "midi": 51,
      "time": 19.2,
      "duration": 1.185,
      "velocity": 1,
      "hand": "left"
    },
    {
      "midi": 55,
      "time": 19.2,
      "duration": 1.2,
      "velocity": 1,
      "hand": "left"
    },
    {
      "midi": 63,
      "time": 19.2,
      "duration": 0.585,
      "velocity": 1,
      "hand": "right"
    },
    {
      "midi": 67,
      "time": 19.2,
      "duration": 0.285,
      "velocity": 1,
      "hand": "right"
    },
    {
      "midi": 70,
      "time": 19.2,
      "duration": 0.285,
      "velocity": 1,
      "hand": "right"
    },
    {
      "midi": 58,
      "time": 19.5,
      "duration": 0.585,
      "velocity": 1,
      "hand": "left"
    },
    {
      "midi": 67,
      "time": 19.5,
      "duration": 0.285,
      "velocity": 1,
      "hand": "right"
    },
    {
      "midi": 70,
      "time": 19.5,
      "duration": 0.3,
      "velocity": 1,
      "hand": "right"
    },
    {
      "midi": 63,
      "time": 19.8,
      "duration": 0.3,
      "velocity": 1,
      "hand": "right"
    },
    {
      "midi": 67,
      "time": 19.8,
      "duration": 0.285,
      "velocity": 1,
      "hand": "right"
    },
    {
      "midi": 58,
      "time": 20.1,
      "duration": 0.3,
      "velocity": 1,
      "hand": "left"
    },
    {
      "midi": 67,
      "time": 20.1,
      "duration": 0.3,
      "velocity": 1,
      "hand": "right"
    },
    {
      "midi": 70,
      "time": 20.1,
      "duration": 0.3,
      "velocity": 1,
      "hand": "right"
    },
    {
      "midi": 51,
      "time": 20.4,
      "duration": 0.585,
      "velocity": 1,
      "hand": "left"
    },
    {
      "midi": 58,
      "time": 20.7,
      "duration": 0.285,
      "velocity": 1,
      "hand": "left"
    },
    {
      "midi": 67,
      "time": 20.7,
      "duration": 0.285,
      "velocity": 1,
      "hand": "right"
    },
    {
      "midi": 70,
      "time": 20.7,
      "duration": 0.285,
      "velocity": 1,
      "hand": "right"
    },
    {
      "midi": 51,
      "time": 21,
      "duration": 0.585,
      "velocity": 1,
      "hand": "left"
    },
    {
      "midi": 58,
      "time": 21,
      "duration": 0.285,
      "velocity": 1,
      "hand": "left"
    },
    {
      "midi": 63,
      "time": 21,
      "duration": 0.3,
      "velocity": 1,
      "hand": "right"
    },
    {
      "midi": 67,
      "time": 21,
      "duration": 0.285,
      "velocity": 1,
      "hand": "right"
    },
    {
      "midi": 70,
      "time": 21,
      "duration": 0.285,
      "velocity": 1,
      "hand": "right"
    },
    {
      "midi": 58,
      "time": 21.3,
      "duration": 0.285,
      "velocity": 1,
      "hand": "left"
    },
    {
      "midi": 67,
      "time": 21.3,
      "duration": 0.285,
      "velocity": 1,
      "hand": "right"
    },
    {
      "midi": 70,
      "time": 21.3,
      "duration": 0.285,
      "velocity": 1,
      "hand": "right"
    },
    {
      "midi": 51,
      "time": 21.6,
      "duration": 0.585,
      "velocity": 1,
      "hand": "left"
    },
    {
      "midi": 58,
      "time": 21.6,
      "duration": 0.285,
      "velocity": 1,
      "hand": "left"
    },
    {
      "midi": 67,
      "time": 21.6,
      "duration": 0.285,
      "velocity": 1,
      "hand": "right"
    },
    {
      "midi": 70,
      "time": 21.6,
      "duration": 0.285,
      "velocity": 1,
      "hand": "right"
    },
    {
      "midi": 58,
      "time": 21.9,
      "duration": 0.285,
      "velocity": 1,
      "hand": "left"
    },
    {
      "midi": 67,
      "time": 21.9,
      "duration": 0.285,
      "velocity": 1,
      "hand": "right"
    },
    {
      "midi": 70,
      "time": 21.9,
      "duration": 0.285,
      "velocity": 1,
      "hand": "right"
    },
    {
      "midi": 51,
      "time": 22.2,
      "duration": 0.585,
      "velocity": 1,
      "hand": "left"
    },
    {
      "midi": 58,
      "time": 22.2,
      "duration": 0.285,
      "velocity": 1,
      "hand": "left"
    },
    {
      "midi": 63,
      "time": 22.2,
      "duration": 0.3,
      "velocity": 1,
      "hand": "right"
    },
    {
      "midi": 67,
      "time": 22.2,
      "duration": 0.285,
      "velocity": 1,
      "hand": "right"
    },
    {
      "midi": 70,
      "time": 22.2,
      "duration": 0.285,
      "velocity": 1,
      "hand": "right"
    },
    {
      "midi": 58,
      "time": 22.5,
      "duration": 0.285,
      "velocity": 1,
      "hand": "left"
    },
    {
      "midi": 67,
      "time": 22.5,
      "duration": 0.285,
      "velocity": 1,
      "hand": "right"
    },
    {
      "midi": 70,
      "time": 22.5,
      "duration": 0.3,
      "velocity": 1,
      "hand": "right"
    },
    {
      "midi": 51,
      "time": 22.8,
      "duration": 0.585,
      "velocity": 1,
      "hand": "left"
    },
    {
      "midi": 58,
      "time": 22.8,
      "duration": 0.285,
      "velocity": 1,
      "hand": "left"
    },
    {
      "midi": 67,
      "time": 22.8,
      "duration": 0.285,
      "velocity": 1,
      "hand": "right"
    },
    {
      "midi": 75,
      "time": 22.8,
      "duration": 0.585,
      "velocity": 1,
      "hand": "right"
    },
    {
      "midi": 58,
      "time": 23.1,
      "duration": 0.3,
      "velocity": 1,
      "hand": "left"
    },
    {
      "midi": 67,
      "time": 23.1,
      "duration": 0.285,
      "velocity": 1,
      "hand": "right"
    },
    {
      "midi": 51,
      "time": 23.4,
      "duration": 0.585,
      "velocity": 1,
      "hand": "left"
    },
    {
      "midi": 63,
      "time": 23.4,
      "duration": 0.3,
      "velocity": 1,
      "hand": "right"
    },
    {
      "midi": 67,
      "time": 23.4,
      "duration": 0.285,
      "velocity": 1,
      "hand": "right"
    },
    {
      "midi": 72,
      "time": 23.4,
      "duration": 0.285,
      "velocity": 1,
      "hand": "right"
    },
    {
      "midi": 75,
      "time": 23.4,
      "duration": 0.3,
      "velocity": 1,
      "hand": "right"
    },
    {
      "midi": 60,
      "time": 23.7,
      "duration": 0.285,
      "velocity": 1,
      "hand": "right"
    },
    {
      "midi": 67,
      "time": 23.7,
      "duration": 0.3,
      "velocity": 1,
      "hand": "right"
    },
    {
      "midi": 72,
      "time": 23.7,
      "duration": 0.3,
      "velocity": 1,
      "hand": "right"
    },
    {
      "midi": 51,
      "time": 24,
      "duration": 1.185,
      "velocity": 1,
      "hand": "left"
    },
    {
      "midi": 60,
      "time": 24,
      "duration": 0.285,
      "velocity": 1,
      "hand": "right"
    },
    {
      "midi": 66,
      "time": 24,
      "duration": 0.285,
      "velocity": 1,
      "hand": "right"
    },
    {
      "midi": 70,
      "time": 24,
      "duration": 0.285,
      "velocity": 1,
      "hand": "right"
    },
    {
      "midi": 60,
      "time": 24.3,
      "duration": 0.585,
      "velocity": 1,
      "hand": "right"
    },
    {
      "midi": 66,
      "time": 24.3,
      "duration": 0.285,
      "velocity": 1,
      "hand": "right"
    },
    {
      "midi": 70,
      "time": 24.3,
      "duration": 0.285,
      "velocity": 1,
      "hand": "right"
    },
    {
      "midi": 66,
      "time": 24.6,
      "duration": 0.285,
      "velocity": 1,
      "hand": "right"
    },
    {
      "midi": 70,
      "time": 24.6,
      "duration": 0.285,
      "velocity": 1,
      "hand": "right"
    },
    {
      "midi": 60,
      "time": 24.9,
      "duration": 0.285,
      "velocity": 1,
      "hand": "right"
    },
    {
      "midi": 66,
      "time": 24.9,
      "duration": 0.285,
      "velocity": 1,
      "hand": "right"
    },
    {
      "midi": 70,
      "time": 24.9,
      "duration": 0.3,
      "velocity": 1,
      "hand": "right"
    },
    {
      "midi": 51,
      "time": 25.2,
      "duration": 1.185,
      "velocity": 1,
      "hand": "left"
    },
    {
      "midi": 60,
      "time": 25.2,
      "duration": 0.285,
      "velocity": 1,
      "hand": "right"
    },
    {
      "midi": 66,
      "time": 25.2,
      "duration": 0.285,
      "velocity": 1,
      "hand": "right"
    },
    {
      "midi": 69,
      "time": 25.2,
      "duration": 0.285,
      "velocity": 1,
      "hand": "right"
    },
    {
      "midi": 60,
      "time": 25.5,
      "duration": 0.585,
      "velocity": 1,
      "hand": "right"
    },
    {
      "midi": 66,
      "time": 25.5,
      "duration": 0.3,
      "velocity": 1,
      "hand": "right"
    },
    {
      "midi": 69,
      "time": 25.5,
      "duration": 0.3,
      "velocity": 1,
      "hand": "right"
    },
    {
      "midi": 63,
      "time": 25.8,
      "duration": 0.3,
      "velocity": 1,
      "hand": "right"
    },
    {
      "midi": 60,
      "time": 26.1,
      "duration": 0.285,
      "velocity": 1,
      "hand": "right"
    },
    {
      "midi": 66,
      "time": 26.1,
      "duration": 0.285,
      "velocity": 1,
      "hand": "right"
    },
    {
      "midi": 69,
      "time": 26.1,
      "duration": 0.3,
      "velocity": 1,
      "hand": "right"
    },
    {
      "midi": 51,
      "time": 26.4,
      "duration": 1.185,
      "velocity": 1,
      "hand": "left"
    },
    {
      "midi": 54,
      "time": 26.4,
      "duration": 1.2,
      "velocity": 1,
      "hand": "left"
    },
    {
      "midi": 60,
      "time": 26.4,
      "duration": 1.785,
      "velocity": 1,
      "hand": "right"
    },
    {
      "midi": 66,
      "time": 26.4,
      "duration": 0.285,
      "velocity": 1,
      "hand": "right"
    },
    {
      "midi": 70,
      "time": 26.4,
      "duration": 1.2,
      "velocity": 1,
      "hand": "right"
    },
    {
      "midi": 72,
      "time": 26.4,
      "duration": 0.285,
      "velocity": 1,
      "hand": "right"
    },
    {
      "midi": 58,
      "time": 26.7,
      "duration": 0.585,
      "velocity": 1,
      "hand": "left"
    },
    {
      "midi": 66,
      "time": 26.7,
      "duration": 0.285,
      "velocity": 1,
      "hand": "right"
    },
    {
      "midi": 72,
      "time": 26.7,
      "duration": 0.285,
      "velocity": 1,
      "hand": "right"
    },
    {
      "midi": 66,
      "time": 27,
      "duration": 0.285,
      "velocity": 1,
      "hand": "right"
    },
    {
      "midi": 72,
      "time": 27,
      "duration": 0.285,
      "velocity": 1,
      "hand": "right"
    },
    {
      "midi": 58,
      "time": 27.3,
      "duration": 0.3,
      "velocity": 1,
      "hand": "left"
    },
    {
      "midi": 66,
      "time": 27.3,
      "duration": 0.3,
      "velocity": 1,
      "hand": "right"
    },
    {
      "midi": 72,
      "time": 27.3,
      "duration": 0.3,
      "velocity": 1,
      "hand": "right"
    },
    {
      "midi": 51,
      "time": 27.6,
      "duration": 1.2,
      "velocity": 1,
      "hand": "left"
    },
    {
      "midi": 53,
      "time": 27.6,
      "duration": 1.2,
      "velocity": 1,
      "hand": "left"
    },
    {
      "midi": 65,
      "time": 27.6,
      "duration": 0.285,
      "velocity": 1,
      "hand": "right"
    },
    {
      "midi": 69,
      "time": 27.6,
      "duration": 1.2,
      "velocity": 1,
      "hand": "right"
    },
    {
      "midi": 57,
      "time": 27.9,
      "duration": 0.585,
      "velocity": 1,
      "hand": "left"
    },
    {
      "midi": 65,
      "time": 27.9,
      "duration": 0.285,
      "velocity": 1,
      "hand": "right"
    },
    {
      "midi": 72,
      "time": 27.9,
      "duration": 0.3,
      "velocity": 1,
      "hand": "right"
    },
    {
      "midi": 60,
      "time": 28.2,
      "duration": 0.3,
      "velocity": 1,
      "hand": "right"
    },
    {
      "midi": 65,
      "time": 28.2,
      "duration": 0.285,
      "velocity": 1,
      "hand": "right"
    },
    {
      "midi": 57,
      "time": 28.5,
      "duration": 0.3,
      "velocity": 1,
      "hand": "left"
    },
    {
      "midi": 65,
      "time": 28.5,
      "duration": 0.285,
      "velocity": 1,
      "hand": "right"
    },
    {
      "midi": 72,
      "time": 28.5,
      "duration": 0.3,
      "velocity": 1,
      "hand": "right"
    },
    {
      "midi": 50,
      "time": 28.8,
      "duration": 1.185,
      "velocity": 1,
      "hand": "left"
    },
    {
      "midi": 58,
      "time": 28.8,
      "duration": 0.285,
      "velocity": 1,
      "hand": "left"
    },
    {
      "midi": 65,
      "time": 28.8,
      "duration": 0.585,
      "velocity": 1,
      "hand": "right"
    },
    {
      "midi": 74,
      "time": 28.8,
      "duration": 0.285,
      "velocity": 1,
      "hand": "right"
    },
    {
      "midi": 58,
      "time": 29.1,
      "duration": 0.585,
      "velocity": 1,
      "hand": "left"
    },
    {
      "midi": 70,
      "time": 29.1,
      "duration": 0.3,
      "velocity": 1,
      "hand": "right"
    },
    {
      "midi": 74,
      "time": 29.1,
      "duration": 0.3,
      "velocity": 1,
      "hand": "right"
    },
    {
      "midi": 65,
      "time": 29.4,
      "duration": 0.3,
      "velocity": 1,
      "hand": "right"
    },
    {
      "midi": 58,
      "time": 29.7,
      "duration": 0.285,
      "velocity": 1,
      "hand": "left"
    },
    {
      "midi": 70,
      "time": 29.7,
      "duration": 0.3,
      "velocity": 1,
      "hand": "right"
    },
    {
      "midi": 74,
      "time": 29.7,
      "duration": 0.3,
      "velocity": 1,
      "hand": "right"
    },
    {
      "midi": 50,
      "time": 30,
      "duration": 0.585,
      "velocity": 1,
      "hand": "left"
    },
    {
      "midi": 58,
      "time": 30,
      "duration": 0.285,
      "velocity": 1,
      "hand": "left"
    },
    {
      "midi": 65,
      "time": 30,
      "duration": 0.585,
      "velocity": 1,
      "hand": "right"
    },
    {
      "midi": 58,
      "time": 30.3,
      "duration": 0.585,
      "velocity": 1,
      "hand": "left"
    },
    {
      "midi": 70,
      "time": 30.3,
      "duration": 0.285,
      "velocity": 1,
      "hand": "right"
    },
    {
      "midi": 74,
      "time": 30.3,
      "duration": 0.3,
      "velocity": 1,
      "hand": "right"
    },
    {
      "midi": 50,
      "time": 30.6,
      "duration": 0.6,
      "velocity": 1,
      "hand": "left"
    },
    {
      "midi": 65,
      "time": 30.6,
      "duration": 0.3,
      "velocity": 1,
      "hand": "right"
    },
    {
      "midi": 70,
      "time": 30.6,
      "duration": 0.285,
      "velocity": 1,
      "hand": "right"
    },
    {
      "midi": 58,
      "time": 30.9,
      "duration": 0.285,
      "velocity": 1,
      "hand": "left"
    },
    {
      "midi": 70,
      "time": 30.9,
      "duration": 0.285,
      "velocity": 1,
      "hand": "right"
    },
    {
      "midi": 74,
      "time": 30.9,
      "duration": 0.3,
      "velocity": 1,
      "hand": "right"
    },
    {
      "midi": 51,
      "time": 31.2,
      "duration": 0.585,
      "velocity": 1,
      "hand": "left"
    },
    {
      "midi": 58,
      "time": 31.2,
      "duration": 0.285,
      "velocity": 1,
      "hand": "left"
    },
    {
      "midi": 63,
      "time": 31.2,
      "duration": 0.585,
      "velocity": 1,
      "hand": "right"
    },
    {
      "midi": 67,
      "time": 31.2,
      "duration": 0.585,
      "velocity": 1,
      "hand": "right"
    },
    {
      "midi": 70,
      "time": 31.2,
      "duration": 0.285,
      "velocity": 1,
      "hand": "right"
    },
    {
      "midi": 58,
      "time": 31.5,
      "duration": 0.285,
      "velocity": 1,
      "hand": "left"
    },
    {
      "midi": 70,
      "time": 31.5,
      "duration": 0.3,
      "velocity": 1,
      "hand": "right"
    },
    {
      "midi": 72,
      "time": 31.5,
      "duration": 0.285,
      "velocity": 1,
      "hand": "right"
    },
    {
      "midi": 51,
      "time": 31.8,
      "duration": 0.6,
      "velocity": 1,
      "hand": "left"
    },
    {
      "midi": 58,
      "time": 31.8,
      "duration": 0.285,
      "velocity": 1,
      "hand": "left"
    },
    {
      "midi": 63,
      "time": 31.8,
      "duration": 0.6,
      "velocity": 1,
      "hand": "right"
    },
    {
      "midi": 67,
      "time": 31.8,
      "duration": 0.3,
      "velocity": 1,
      "hand": "right"
    },
    {
      "midi": 72,
      "time": 31.8,
      "duration": 0.285,
      "velocity": 1,
      "hand": "right"
    },
    {
      "midi": 58,
      "time": 32.1,
      "duration": 0.285,
      "velocity": 1,
      "hand": "left"
    },
    {
      "midi": 70,
      "time": 32.1,
      "duration": 0.285,
      "velocity": 1,
      "hand": "right"
    },
    {
      "midi": 72,
      "time": 32.1,
      "duration": 0.3,
      "velocity": 1,
      "hand": "right"
    },
    {
      "midi": 50,
      "time": 32.4,
      "duration": 0.6,
      "velocity": 1,
      "hand": "left"
    },
    {
      "midi": 58,
      "time": 32.4,
      "duration": 0.285,
      "velocity": 1,
      "hand": "left"
    },
    {
      "midi": 65,
      "time": 32.4,
      "duration": 0.6,
      "velocity": 1,
      "hand": "right"
    },
    {
      "midi": 70,
      "time": 32.4,
      "duration": 0.285,
      "velocity": 1,
      "hand": "right"
    },
    {
      "midi": 74,
      "time": 32.4,
      "duration": 0.285,
      "velocity": 1,
      "hand": "right"
    },
    {
      "midi": 58,
      "time": 32.7,
      "duration": 0.285,
      "velocity": 1,
      "hand": "left"
    },
    {
      "midi": 70,
      "time": 32.7,
      "duration": 0.3,
      "velocity": 1,
      "hand": "right"
    },
    {
      "midi": 74,
      "time": 32.7,
      "duration": 0.3,
      "velocity": 1,
      "hand": "right"
    },
    {
      "midi": 48,
      "time": 33,
      "duration": 0.6,
      "velocity": 1,
      "hand": "left"
    },
    {
      "midi": 58,
      "time": 33,
      "duration": 0.285,
      "velocity": 1,
      "hand": "left"
    },
    {
      "midi": 63,
      "time": 33,
      "duration": 0.6,
      "velocity": 1,
      "hand": "right"
    },
    {
      "midi": 67,
      "time": 33,
      "duration": 0.6,
      "velocity": 1,
      "hand": "right"
    },
    {
      "midi": 75,
      "time": 33,
      "duration": 0.285,
      "velocity": 1,
      "hand": "right"
    },
    {
      "midi": 58,
      "time": 33.3,
      "duration": 0.285,
      "velocity": 1,
      "hand": "left"
    },
    {
      "midi": 70,
      "time": 33.3,
      "duration": 0.285,
      "velocity": 1,
      "hand": "right"
    },
    {
      "midi": 75,
      "time": 33.3,
      "duration": 0.3,
      "velocity": 1,
      "hand": "right"
    },
    {
      "midi": 53,
      "time": 33.6,
      "duration": 1.185,
      "velocity": 1,
      "hand": "left"
    },
    {
      "midi": 58,
      "time": 33.6,
      "duration": 1.2,
      "velocity": 1,
      "hand": "left"
    },
    {
      "midi": 65,
      "time": 33.6,
      "duration": 0.285,
      "velocity": 1,
      "hand": "right"
    },
    {
      "midi": 70,
      "time": 33.6,
      "duration": 0.285,
      "velocity": 1,
      "hand": "right"
    },
    {
      "midi": 74,
      "time": 33.6,
      "duration": 0.285,
      "velocity": 1,
      "hand": "right"
    },
    {
      "midi": 65,
      "time": 33.9,
      "duration": 0.585,
      "velocity": 1,
      "hand": "right"
    },
    {
      "midi": 70,
      "time": 33.9,
      "duration": 0.3,
      "velocity": 1,
      "hand": "right"
    },
    {
      "midi": 74,
      "time": 33.9,
      "duration": 0.3,
      "velocity": 1,
      "hand": "right"
    },
    {
      "midi": 65,
      "time": 34.5,
      "duration": 0.285,
      "velocity": 1,
      "hand": "right"
    },
    {
      "midi": 70,
      "time": 34.5,
      "duration": 0.3,
      "velocity": 1,
      "hand": "right"
    },
    {
      "midi": 74,
      "time": 34.5,
      "duration": 0.3,
      "velocity": 1,
      "hand": "right"
    },
    {
      "midi": 41,
      "time": 34.8,
      "duration": 1.2,
      "velocity": 1,
      "hand": "left"
    },
    {
      "midi": 53,
      "time": 34.8,
      "duration": 1.2,
      "velocity": 1,
      "hand": "left"
    },
    {
      "midi": 63,
      "time": 34.8,
      "duration": 0.585,
      "velocity": 1,
      "hand": "right"
    },
    {
      "midi": 65,
      "time": 34.8,
      "duration": 0.285,
      "velocity": 1,
      "hand": "right"
    },
    {
      "midi": 69,
      "time": 34.8,
      "duration": 0.285,
      "velocity": 1,
      "hand": "right"
    },
    {
      "midi": 65,
      "time": 35.1,
      "duration": 0.585,
      "velocity": 1,
      "hand": "right"
    },
    {
      "midi": 69,
      "time": 35.1,
      "duration": 0.3,
      "velocity": 1,
      "hand": "right"
    },
    {
      "midi": 74,
      "time": 35.1,
      "duration": 0.3,
      "velocity": 1,
      "hand": "right"
    },
    {
      "midi": 63,
      "time": 35.4,
      "duration": 0.3,
      "velocity": 1,
      "hand": "right"
    },
    {
      "midi": 72,
      "time": 35.4,
      "duration": 0.285,
      "velocity": 1,
      "hand": "right"
    },
    {
      "midi": 65,
      "time": 35.7,
      "duration": 0.285,
      "velocity": 1,
      "hand": "right"
    },
    {
      "midi": 69,
      "time": 35.7,
      "duration": 0.3,
      "velocity": 1,
      "hand": "right"
    },
    {
      "midi": 72,
      "time": 35.7,
      "duration": 0.3,
      "velocity": 1,
      "hand": "right"
    },
    {
      "midi": 46,
      "time": 36,
      "duration": 1.2,
      "velocity": 1,
      "hand": "left"
    },
    {
      "midi": 62,
      "time": 36,
      "duration": 0.585,
      "velocity": 1,
      "hand": "right"
    },
    {
      "midi": 65,
      "time": 36,
      "duration": 0.6,
      "velocity": 1,
      "hand": "right"
    },
    {
      "midi": 70,
      "time": 36,
      "duration": 0.285,
      "velocity": 1,
      "hand": "right"
    },
    {
      "midi": 70,
      "time": 36.3,
      "duration": 0.285,
      "velocity": 1,
      "hand": "right"
    },
    {
      "midi": 58,
      "time": 36.6,
      "duration": 0.585,
      "velocity": 1,
      "hand": "left"
    },
    {
      "midi": 62,
      "time": 36.6,
      "duration": 0.3,
      "velocity": 1,
      "hand": "right"
    },
    {
      "midi": 70,
      "time": 36.6,
      "duration": 0.585,
      "velocity": 1,
      "hand": "right"
    },
    {
      "midi": 74,
      "time": 36.6,
      "duration": 0.3,
      "velocity": 1,
      "hand": "right"
    },
    {
      "midi": 82,
      "time": 36.6,
      "duration": 0.585,
      "velocity": 1,
      "hand": "right"
    },
    {
      "midi": 65,
      "time": 36.9,
      "duration": 0.3,
      "velocity": 1,
      "hand": "right"
    },
    {
      "midi": 77,
      "time": 36.9,
      "duration": 0.3,
      "velocity": 1,
      "hand": "right"
    },
    {
      "midi": 54,
      "time": 37.2,
      "duration": 0.6,
      "velocity": 1,
      "hand": "left"
    },
    {
      "midi": 58,
      "time": 37.2,
      "duration": 0.585,
      "velocity": 1,
      "hand": "left"
    },
    {
      "midi": 63,
      "time": 37.2,
      "duration": 0.585,
      "velocity": 1,
      "hand": "right"
    },
    {
      "midi": 70,
      "time": 37.2,
      "duration": 0.585,
      "velocity": 1,
      "hand": "right"
    },
    {
      "midi": 75,
      "time": 37.2,
      "duration": 0.6,
      "velocity": 1,
      "hand": "right"
    },
    {
      "midi": 82,
      "time": 37.2,
      "duration": 0.585,
      "velocity": 1,
      "hand": "right"
    },
    {
      "midi": 65,
      "time": 37.5,
      "duration": 0.3,
      "velocity": 1,
      "hand": "right"
    },
    {
      "midi": 77,
      "time": 37.5,
      "duration": 0.3,
      "velocity": 1,
      "hand": "right"
    },
    {
      "midi": 51,
      "time": 37.8,
      "duration": 0.6,
      "velocity": 1,
      "hand": "left"
    },
    {
      "midi": 58,
      "time": 37.8,
      "duration": 0.585,
      "velocity": 1,
      "hand": "left"
    },
    {
      "midi": 66,
      "time": 37.8,
      "duration": 0.6,
      "velocity": 1,
      "hand": "right"
    },
    {
      "midi": 70,
      "time": 37.8,
      "duration": 0.285,
      "velocity": 1,
      "hand": "right"
    },
    {
      "midi": 78,
      "time": 37.8,
      "duration": 0.6,
      "velocity": 1,
      "hand": "right"
    },
    {
      "midi": 82,
      "time": 37.8,
      "duration": 0.285,
      "velocity": 1,
      "hand": "right"
    },
    {
      "midi": 70,
      "time": 38.1,
      "duration": 0.285,
      "velocity": 1,
      "hand": "right"
    },
    {
      "midi": 82,
      "time": 38.1,
      "duration": 0.3,
      "velocity": 1,
      "hand": "right"
    },
    {
      "midi": 53,
      "time": 38.4,
      "duration": 1.185,
      "velocity": 1,
      "hand": "left"
    },
    {
      "midi": 58,
      "time": 38.4,
      "duration": 0.285,
      "velocity": 1,
      "hand": "left"
    },
    {
      "midi": 62,
      "time": 38.4,
      "duration": 0.285,
      "velocity": 1,
      "hand": "right"
    },
    {
      "midi": 70,
      "time": 38.4,
      "duration": 0.885,
      "velocity": 1,
      "hand": "right"
    },
    {
      "midi": 77,
      "time": 38.4,
      "duration": 0.585,
      "velocity": 1,
      "hand": "right"
    },
    {
      "midi": 58,
      "time": 38.7,
      "duration": 0.585,
      "velocity": 1,
      "hand": "left"
    },
    {
      "midi": 62,
      "time": 38.7,
      "duration": 0.585,
      "velocity": 1,
      "hand": "right"
    },
    {
      "midi": 82,
      "time": 38.7,
      "duration": 0.3,
      "velocity": 1,
      "hand": "right"
    },
    {
      "midi": 65,
      "time": 39,
      "duration": 0.3,
      "velocity": 1,
      "hand": "right"
    },
    {
      "midi": 77,
      "time": 39,
      "duration": 0.3,
      "velocity": 1,
      "hand": "right"
    },
    {
      "midi": 58,
      "time": 39.3,
      "duration": 0.3,
      "velocity": 1,
      "hand": "left"
    },
    {
      "midi": 62,
      "time": 39.3,
      "duration": 0.3,
      "velocity": 1,
      "hand": "right"
    },
    {
      "midi": 70,
      "time": 39.3,
      "duration": 0.3,
      "velocity": 1,
      "hand": "right"
    },
    {
      "midi": 74,
      "time": 39.3,
      "duration": 0.3,
      "velocity": 1,
      "hand": "right"
    },
    {
      "midi": 41,
      "time": 39.6,
      "duration": 1.2,
      "velocity": 1,
      "hand": "left"
    },
    {
      "midi": 53,
      "time": 39.6,
      "duration": 1.185,
      "velocity": 1,
      "hand": "left"
    },
    {
      "midi": 60,
      "time": 39.6,
      "duration": 0.285,
      "velocity": 1,
      "hand": "right"
    },
    {
      "midi": 63,
      "time": 39.6,
      "duration": 1.2,
      "velocity": 1,
      "hand": "right"
    },
    {
      "midi": 69,
      "time": 39.6,
      "duration": 0.285,
      "velocity": 1,
      "hand": "right"
    },
    {
      "midi": 77,
      "time": 39.6,
      "duration": 0.885,
      "velocity": 1,
      "hand": "right"
    },
    {
      "midi": 60,
      "time": 39.9,
      "duration": 0.585,
      "velocity": 1,
      "hand": "right"
    },
    {
      "midi": 69,
      "time": 39.9,
      "duration": 0.585,
      "velocity": 1,
      "hand": "right"
    },
    {
      "midi": 75,
      "time": 39.9,
      "duration": 0.3,
      "velocity": 1,
      "hand": "right"
    },
    {
      "midi": 74,
      "time": 40.2,
      "duration": 0.3,
      "velocity": 1,
      "hand": "right"
    },
    {
      "midi": 60,
      "time": 40.5,
      "duration": 0.3,
      "velocity": 1,
      "hand": "right"
    },
    {
      "midi": 69,
      "time": 40.5,
      "duration": 0.3,
      "velocity": 1,
      "hand": "right"
    },
    {
      "midi": 75,
      "time": 40.5,
      "duration": 0.3,
      "velocity": 1,
      "hand": "right"
    },
    {
      "midi": 77,
      "time": 40.5,
      "duration": 0.15,
      "velocity": 1,
      "hand": "right"
    },
    {
      "midi": 46,
      "time": 40.8,
      "duration": 0.585,
      "velocity": 1,
      "hand": "left"
    },
    {
      "midi": 53,
      "time": 40.8,
      "duration": 0.585,
      "velocity": 1,
      "hand": "left"
    },
    {
      "midi": 62,
      "time": 40.8,
      "duration": 0.285,
      "velocity": 1,
      "hand": "right"
    },
    {
      "midi": 70,
      "time": 40.8,
      "duration": 0.585,
      "velocity": 1,
      "hand": "right"
    },
    {
      "midi": 74,
      "time": 40.8,
      "duration": 0.6,
      "velocity": 1,
      "hand": "right"
    },
    {
      "midi": 77,
      "time": 40.8,
      "duration": 0.6,
      "velocity": 1,
      "hand": "right"
    },
    {
      "midi": 58,
      "time": 41.1,
      "duration": 0.3,
      "velocity": 1,
      "hand": "left"
    },
    {
      "midi": 62,
      "time": 41.1,
      "duration": 0.285,
      "velocity": 1,
      "hand": "right"
    },
    {
      "midi": 46,
      "time": 41.4,
      "duration": 0.6,
      "velocity": 1,
      "hand": "left"
    },
    {
      "midi": 53,
      "time": 41.4,
      "duration": 0.585,
      "velocity": 1,
      "hand": "left"
    },
    {
      "midi": 62,
      "time": 41.4,
      "duration": 0.3,
      "velocity": 1,
      "hand": "right"
    },
    {
      "midi": 65,
      "time": 41.4,
      "duration": 0.285,
      "velocity": 1,
      "hand": "right"
    },
    {
      "midi": 70,
      "time": 41.4,
      "duration": 0.285,
      "velocity": 1,
      "hand": "right"
    },
    {
      "midi": 50,
      "time": 41.7,
      "duration": 0.3,
      "velocity": 1,
      "hand": "left"
    },
    {
      "midi": 65,
      "time": 41.7,
      "duration": 0.3,
      "velocity": 1,
      "hand": "right"
    },
    {
      "midi": 70,
      "time": 41.7,
      "duration": 0.3,
      "velocity": 1,
      "hand": "right"
    },
    {
      "midi": 47,
      "time": 42,
      "duration": 0.6,
      "velocity": 1,
      "hand": "left"
    },
    {
      "midi": 53,
      "time": 42,
      "duration": 0.6,
      "velocity": 1,
      "hand": "left"
    },
    {
      "midi": 62,
      "time": 42,
      "duration": 1.2,
      "velocity": 1,
      "hand": "right"
    },
    {
      "midi": 68,
      "time": 42,
      "duration": 0.6,
      "velocity": 1,
      "hand": "right"
    },
    {
      "midi": 46,
      "time": 42.6,
      "duration": 0.6,
      "velocity": 1,
      "hand": "left"
    },
    {
      "midi": 55,
      "time": 42.6,
      "duration": 0.3,
      "velocity": 1,
      "hand": "left"
    },
    {
      "midi": 67,
      "time": 42.6,
      "duration": 0.3,
      "velocity": 1,
      "hand": "right"
    },
    {
      "midi": 56,
      "time": 42.9,
      "duration": 0.3,
      "velocity": 1,
      "hand": "left"
    },
    {
      "midi": 65,
      "time": 42.9,
      "duration": 0.3,
      "velocity": 1,
      "hand": "right"
    },
    {
      "midi": 39,
      "time": 43.2,
      "duration": 0.6,
      "velocity": 1,
      "hand": "left"
    },
    {
      "midi": 51,
      "time": 43.2,
      "duration": 0.585,
      "velocity": 1,
      "hand": "left"
    },
    {
      "midi": 63,
      "time": 43.2,
      "duration": 0.585,
      "velocity": 1,
      "hand": "right"
    },
    {
      "midi": 67,
      "time": 43.2,
      "duration": 0.285,
      "velocity": 1,
      "hand": "right"
    },
    {
      "midi": 70,
      "time": 43.2,
      "duration": 0.285,
      "velocity": 1,
      "hand": "right"
    },
    {
      "midi": 58,
      "time": 43.5,
      "duration": 0.285,
      "velocity": 1,
      "hand": "left"
    },
    {
      "midi": 67,
      "time": 43.5,
      "duration": 0.285,
      "velocity": 1,
      "hand": "right"
    },
    {
      "midi": 70,
      "time": 43.5,
      "duration": 0.285,
      "velocity": 1,
      "hand": "right"
    },
    {
      "midi": 51,
      "time": 43.8,
      "duration": 0.585,
      "velocity": 1,
      "hand": "left"
    },
    {
      "midi": 58,
      "time": 43.8,
      "duration": 0.285,
      "velocity": 1,
      "hand": "left"
    },
    {
      "midi": 63,
      "time": 43.8,
      "duration": 0.3,
      "velocity": 1,
      "hand": "right"
    },
    {
      "midi": 67,
      "time": 43.8,
      "duration": 0.285,
      "velocity": 1,
      "hand": "right"
    },
    {
      "midi": 70,
      "time": 43.8,
      "duration": 0.285,
      "velocity": 1,
      "hand": "right"
    },
    {
      "midi": 58,
      "time": 44.1,
      "duration": 0.3,
      "velocity": 1,
      "hand": "left"
    },
    {
      "midi": 67,
      "time": 44.1,
      "duration": 0.3,
      "velocity": 1,
      "hand": "right"
    },
    {
      "midi": 70,
      "time": 44.1,
      "duration": 0.3,
      "velocity": 1,
      "hand": "right"
    },
    {
      "midi": 51,
      "time": 44.4,
      "duration": 0.585,
      "velocity": 1,
      "hand": "left"
    },
    {
      "midi": 58,
      "time": 44.7,
      "duration": 0.285,
      "velocity": 1,
      "hand": "left"
    },
    {
      "midi": 67,
      "time": 44.7,
      "duration": 0.285,
      "velocity": 1,
      "hand": "right"
    },
    {
      "midi": 70,
      "time": 44.7,
      "duration": 0.285,
      "velocity": 1,
      "hand": "right"
    },
    {
      "midi": 51,
      "time": 45,
      "duration": 0.585,
      "velocity": 1,
      "hand": "left"
    },
    {
      "midi": 58,
      "time": 45,
      "duration": 0.285,
      "velocity": 1,
      "hand": "left"
    },
    {
      "midi": 63,
      "time": 45,
      "duration": 0.3,
      "velocity": 1,
      "hand": "right"
    },
    {
      "midi": 67,
      "time": 45,
      "duration": 0.285,
      "velocity": 1,
      "hand": "right"
    },
    {
      "midi": 70,
      "time": 45,
      "duration": 0.285,
      "velocity": 1,
      "hand": "right"
    },
    {
      "midi": 58,
      "time": 45.3,
      "duration": 0.285,
      "velocity": 1,
      "hand": "left"
    },
    {
      "midi": 67,
      "time": 45.3,
      "duration": 0.285,
      "velocity": 1,
      "hand": "right"
    },
    {
      "midi": 70,
      "time": 45.3,
      "duration": 0.285,
      "velocity": 1,
      "hand": "right"
    },
    {
      "midi": 51,
      "time": 45.6,
      "duration": 0.585,
      "velocity": 1,
      "hand": "left"
    },
    {
      "midi": 58,
      "time": 45.6,
      "duration": 0.285,
      "velocity": 1,
      "hand": "left"
    },
    {
      "midi": 67,
      "time": 45.6,
      "duration": 0.285,
      "velocity": 1,
      "hand": "right"
    },
    {
      "midi": 70,
      "time": 45.6,
      "duration": 0.285,
      "velocity": 1,
      "hand": "right"
    },
    {
      "midi": 58,
      "time": 45.9,
      "duration": 0.285,
      "velocity": 1,
      "hand": "left"
    },
    {
      "midi": 67,
      "time": 45.9,
      "duration": 0.285,
      "velocity": 1,
      "hand": "right"
    },
    {
      "midi": 70,
      "time": 45.9,
      "duration": 0.285,
      "velocity": 1,
      "hand": "right"
    },
    {
      "midi": 51,
      "time": 46.2,
      "duration": 0.585,
      "velocity": 1,
      "hand": "left"
    },
    {
      "midi": 58,
      "time": 46.2,
      "duration": 0.285,
      "velocity": 1,
      "hand": "left"
    },
    {
      "midi": 63,
      "time": 46.2,
      "duration": 0.3,
      "velocity": 1,
      "hand": "right"
    },
    {
      "midi": 67,
      "time": 46.2,
      "duration": 0.285,
      "velocity": 1,
      "hand": "right"
    },
    {
      "midi": 70,
      "time": 46.2,
      "duration": 0.285,
      "velocity": 1,
      "hand": "right"
    },
    {
      "midi": 58,
      "time": 46.5,
      "duration": 0.285,
      "velocity": 1,
      "hand": "left"
    },
    {
      "midi": 67,
      "time": 46.5,
      "duration": 0.285,
      "velocity": 1,
      "hand": "right"
    },
    {
      "midi": 70,
      "time": 46.5,
      "duration": 0.285,
      "velocity": 1,
      "hand": "right"
    },
    {
      "midi": 51,
      "time": 46.8,
      "duration": 0.585,
      "velocity": 1,
      "hand": "left"
    },
    {
      "midi": 58,
      "time": 46.8,
      "duration": 0.285,
      "velocity": 1,
      "hand": "left"
    },
    {
      "midi": 67,
      "time": 46.8,
      "duration": 0.285,
      "velocity": 1,
      "hand": "right"
    },
    {
      "midi": 70,
      "time": 46.8,
      "duration": 0.285,
      "velocity": 1,
      "hand": "right"
    },
    {
      "midi": 58,
      "time": 47.1,
      "duration": 0.285,
      "velocity": 1,
      "hand": "left"
    },
    {
      "midi": 67,
      "time": 47.1,
      "duration": 0.285,
      "velocity": 1,
      "hand": "right"
    },
    {
      "midi": 70,
      "time": 47.1,
      "duration": 0.3,
      "velocity": 1,
      "hand": "right"
    },
    {
      "midi": 51,
      "time": 47.4,
      "duration": 0.585,
      "velocity": 1,
      "hand": "left"
    },
    {
      "midi": 58,
      "time": 47.4,
      "duration": 0.585,
      "velocity": 1,
      "hand": "left"
    },
    {
      "midi": 60,
      "time": 47.4,
      "duration": 0.285,
      "velocity": 1,
      "hand": "right"
    },
    {
      "midi": 63,
      "time": 47.4,
      "duration": 0.3,
      "velocity": 1,
      "hand": "right"
    },
    {
      "midi": 67,
      "time": 47.4,
      "duration": 0.285,
      "velocity": 1,
      "hand": "right"
    },
    {
      "midi": 60,
      "time": 47.7,
      "duration": 0.3,
      "velocity": 1,
      "hand": "right"
    },
    {
      "midi": 67,
      "time": 47.7,
      "duration": 0.3,
      "velocity": 1,
      "hand": "right"
    },
    {
      "midi": 72,
      "time": 47.7,
      "duration": 0.285,
      "velocity": 1,
      "hand": "right"
    },
    {
      "midi": 51,
      "time": 48,
      "duration": 1.185,
      "velocity": 1,
      "hand": "left"
    },
    {
      "midi": 58,
      "time": 48,
      "duration": 0.285,
      "velocity": 1,
      "hand": "left"
    },
    {
      "midi": 66,
      "time": 48,
      "duration": 0.285,
      "velocity": 1,
      "hand": "right"
    },
    {
      "midi": 72,
      "time": 48,
      "duration": 0.285,
      "velocity": 1,
      "hand": "right"
    },
    {
      "midi": 58,
      "time": 48.3,
      "duration": 0.585,
      "velocity": 1,
      "hand": "left"
    },
    {
      "midi": 66,
      "time": 48.3,
      "duration": 0.285,
      "velocity": 1,
      "hand": "right"
    },
    {
      "midi": 72,
      "time": 48.3,
      "duration": 0.3,
      "velocity": 1,
      "hand": "right"
    },
    {
      "midi": 60,
      "time": 48.6,
      "duration": 0.3,
      "velocity": 1,
      "hand": "right"
    },
    {
      "midi": 66,
      "time": 48.6,
      "duration": 0.285,
      "velocity": 1,
      "hand": "right"
    },
    {
      "midi": 58,
      "time": 48.9,
      "duration": 0.3,
      "velocity": 1,
      "hand": "left"
    },
    {
      "midi": 66,
      "time": 48.9,
      "duration": 0.285,
      "velocity": 1,
      "hand": "right"
    },
    {
      "midi": 72,
      "time": 48.9,
      "duration": 0.285,
      "velocity": 1,
      "hand": "right"
    },
    {
      "midi": 51,
      "time": 49.2,
      "duration": 1.185,
      "velocity": 1,
      "hand": "left"
    },
    {
      "midi": 57,
      "time": 49.2,
      "duration": 0.285,
      "velocity": 1,
      "hand": "left"
    },
    {
      "midi": 66,
      "time": 49.2,
      "duration": 0.285,
      "velocity": 1,
      "hand": "right"
    },
    {
      "midi": 72,
      "time": 49.2,
      "duration": 0.285,
      "velocity": 1,
      "hand": "right"
    },
    {
      "midi": 57,
      "time": 49.5,
      "duration": 0.585,
      "velocity": 1,
      "hand": "left"
    },
    {
      "midi": 66,
      "time": 49.5,
      "duration": 0.285,
      "velocity": 1,
      "hand": "right"
    },
    {
      "midi": 72,
      "time": 49.5,
      "duration": 0.3,
      "velocity": 1,
      "hand": "right"
    },
    {
      "midi": 60,
      "time": 49.8,
      "duration": 0.3,
      "velocity": 1,
      "hand": "right"
    },
    {
      "midi": 66,
      "time": 49.8,
      "duration": 0.285,
      "velocity": 1,
      "hand": "right"
    },
    {
      "midi": 57,
      "time": 50.1,
      "duration": 0.3,
      "velocity": 1,
      "hand": "left"
    },
    {
      "midi": 66,
      "time": 50.1,
      "duration": 0.285,
      "velocity": 1,
      "hand": "right"
    },
    {
      "midi": 72,
      "time": 50.1,
      "duration": 0.285,
      "velocity": 1,
      "hand": "right"
    },
    {
      "midi": 51,
      "time": 50.4,
      "duration": 1.185,
      "velocity": 1,
      "hand": "left"
    },
    {
      "midi": 54,
      "time": 50.4,
      "duration": 1.2,
      "velocity": 1,
      "hand": "left"
    },
    {
      "midi": 60,
      "time": 50.4,
      "duration": 0.585,
      "velocity": 1,
      "hand": "right"
    },
    {
      "midi": 66,
      "time": 50.4,
      "duration": 0.285,
      "velocity": 1,
      "hand": "right"
    },
    {
      "midi": 72,
      "time": 50.4,
      "duration": 0.285,
      "velocity": 1,
      "hand": "right"
    },
    {
      "midi": 78,
      "time": 50.4,
      "duration": 1.2,
      "velocity": 1,
      "hand": "right"
    },
    {
      "midi": 58,
      "time": 50.7,
      "duration": 0.585,
      "velocity": 1,
      "hand": "left"
    },
    {
      "midi": 66,
      "time": 50.7,
      "duration": 0.285,
      "velocity": 1,
      "hand": "right"
    },
    {
      "midi": 72,
      "time": 50.7,
      "duration": 0.3,
      "velocity": 1,
      "hand": "right"
    },
    {
      "midi": 60,
      "time": 51,
      "duration": 0.3,
      "velocity": 1,
      "hand": "right"
    },
    {
      "midi": 66,
      "time": 51,
      "duration": 0.285,
      "velocity": 1,
      "hand": "right"
    },
    {
      "midi": 58,
      "time": 51.3,
      "duration": 0.3,
      "velocity": 1,
      "hand": "left"
    },
    {
      "midi": 66,
      "time": 51.3,
      "duration": 0.3,
      "velocity": 1,
      "hand": "right"
    },
    {
      "midi": 72,
      "time": 51.3,
      "duration": 0.3,
      "velocity": 1,
      "hand": "right"
    },
    {
      "midi": 51,
      "time": 51.6,
      "duration": 0.6,
      "velocity": 1,
      "hand": "left"
    },
    {
      "midi": 53,
      "time": 51.6,
      "duration": 0.6,
      "velocity": 1,
      "hand": "left"
    },
    {
      "midi": 65,
      "time": 51.6,
      "duration": 0.285,
      "velocity": 1,
      "hand": "right"
    },
    {
      "midi": 77,
      "time": 51.6,
      "duration": 0.6,
      "velocity": 1,
      "hand": "right"
    },
    {
      "midi": 57,
      "time": 51.9,
      "duration": 0.585,
      "velocity": 1,
      "hand": "left"
    },
    {
      "midi": 65,
      "time": 51.9,
      "duration": 0.285,
      "velocity": 1,
      "hand": "right"
    },
    {
      "midi": 72,
      "time": 51.9,
      "duration": 0.3,
      "velocity": 1,
      "hand": "right"
    },
    {
      "midi": 60,
      "time": 52.2,
      "duration": 0.3,
      "velocity": 1,
      "hand": "right"
    },
    {
      "midi": 65,
      "time": 52.2,
      "duration": 0.285,
      "velocity": 1,
      "hand": "right"
    },
    {
      "midi": 57,
      "time": 52.5,
      "duration": 0.3,
      "velocity": 1,
      "hand": "left"
    },
    {
      "midi": 65,
      "time": 52.5,
      "duration": 0.285,
      "velocity": 1,
      "hand": "right"
    },
    {
      "midi": 72,
      "time": 52.5,
      "duration": 0.3,
      "velocity": 1,
      "hand": "right"
    },
    {
      "midi": 50,
      "time": 52.8,
      "duration": 1.185,
      "velocity": 1,
      "hand": "left"
    },
    {
      "midi": 56,
      "time": 52.8,
      "duration": 0.285,
      "velocity": 1,
      "hand": "left"
    },
    {
      "midi": 68,
      "time": 52.8,
      "duration": 0.285,
      "velocity": 1,
      "hand": "right"
    },
    {
      "midi": 71,
      "time": 52.8,
      "duration": 0.285,
      "velocity": 1,
      "hand": "right"
    },
    {
      "midi": 77,
      "time": 52.8,
      "duration": 1.8,
      "velocity": 1,
      "hand": "right"
    },
    {
      "midi": 80,
      "time": 52.8,
      "duration": 1.2,
      "velocity": 1,
      "hand": "right"
    },
    {
      "midi": 56,
      "time": 53.1,
      "duration": 0.585,
      "velocity": 1,
      "hand": "left"
    },
    {
      "midi": 68,
      "time": 53.1,
      "duration": 0.285,
      "velocity": 1,
      "hand": "right"
    },
    {
      "midi": 71,
      "time": 53.1,
      "duration": 0.3,
      "velocity": 1,
      "hand": "right"
    },
    {
      "midi": 65,
      "time": 53.4,
      "duration": 0.3,
      "velocity": 1,
      "hand": "right"
    },
    {
      "midi": 68,
      "time": 53.4,
      "duration": 0.285,
      "velocity": 1,
      "hand": "right"
    },
    {
      "midi": 56,
      "time": 53.7,
      "duration": 0.3,
      "velocity": 1,
      "hand": "left"
    },
    {
      "midi": 68,
      "time": 53.7,
      "duration": 0.3,
      "velocity": 1,
      "hand": "right"
    },
    {
      "midi": 71,
      "time": 53.7,
      "duration": 0.3,
      "velocity": 1,
      "hand": "right"
    },
    {
      "midi": 50,
      "time": 54,
      "duration": 0.585,
      "velocity": 1,
      "hand": "left"
    },
    {
      "midi": 56,
      "time": 54.3,
      "duration": 0.285,
      "velocity": 1,
      "hand": "left"
    },
    {
      "midi": 65,
      "time": 54.3,
      "duration": 0.285,
      "velocity": 1,
      "hand": "right"
    },
    {
      "midi": 71,
      "time": 54.3,
      "duration": 0.285,
      "velocity": 1,
      "hand": "right"
    },
    {
      "midi": 50,
      "time": 54.6,
      "duration": 0.6,
      "velocity": 1,
      "hand": "left"
    },
    {
      "midi": 56,
      "time": 54.6,
      "duration": 0.285,
      "velocity": 1,
      "hand": "left"
    },
    {
      "midi": 65,
      "time": 54.6,
      "duration": 0.285,
      "velocity": 1,
      "hand": "right"
    },
    {
      "midi": 71,
      "time": 54.6,
      "duration": 0.285,
      "velocity": 1,
      "hand": "right"
    },
    {
      "midi": 56,
      "time": 54.9,
      "duration": 0.285,
      "velocity": 1,
      "hand": "left"
    },
    {
      "midi": 65,
      "time": 54.9,
      "duration": 0.285,
      "velocity": 1,
      "hand": "right"
    },
    {
      "midi": 71,
      "time": 54.9,
      "duration": 0.3,
      "velocity": 1,
      "hand": "right"
    },
    {
      "midi": 51,
      "time": 55.2,
      "duration": 1.2,
      "velocity": 1,
      "hand": "left"
    },
    {
      "midi": 56,
      "time": 55.2,
      "duration": 0.285,
      "velocity": 1,
      "hand": "left"
    },
    {
      "midi": 65,
      "time": 55.2,
      "duration": 0.285,
      "velocity": 1,
      "hand": "right"
    },
    {
      "midi": 70,
      "time": 55.2,
      "duration": 0.285,
      "velocity": 1,
      "hand": "right"
    },
    {
      "midi": 56,
      "time": 55.5,
      "duration": 0.3,
      "velocity": 1,
      "hand": "left"
    },
    {
      "midi": 65,
      "time": 55.5,
      "duration": 0.3,
      "velocity": 1,
      "hand": "right"
    },
    {
      "midi": 70,
      "time": 55.5,
      "duration": 0.6,
      "velocity": 1,
      "hand": "right"
    },
    {
      "midi": 55,
      "time": 55.8,
      "duration": 0.285,
      "velocity": 1,
      "hand": "left"
    },
    {
      "midi": 63,
      "time": 55.8,
      "duration": 0.6,
      "velocity": 1,
      "hand": "right"
    },
    {
      "midi": 55,
      "time": 56.1,
      "duration": 0.3,
      "velocity": 1,
      "hand": "left"
    },
    {
      "midi": 67,
      "time": 56.1,
      "duration": 0.3,
      "velocity": 1,
      "hand": "right"
    },
    {
      "midi": 44,
      "time": 56.4,
      "duration": 1.2,
      "velocity": 1,
      "hand": "left"
    },
    {
      "midi": 56,
      "time": 56.4,
      "duration": 0.285,
      "velocity": 1,
      "hand": "left"
    },
    {
      "midi": 60,
      "time": 56.4,
      "duration": 0.285,
      "velocity": 1,
      "hand": "right"
    },
    {
      "midi": 72,
      "time": 56.4,
      "duration": 0.285,
      "velocity": 1,
      "hand": "right"
    },
    {
      "midi": 56,
      "time": 56.7,
      "duration": 0.3,
      "velocity": 1,
      "hand": "left"
    },
    {
      "midi": 60,
      "time": 56.7,
      "duration": 0.285,
      "velocity": 1,
      "hand": "right"
    },
    {
      "midi": 72,
      "time": 56.7,
      "duration": 0.3,
      "velocity": 1,
      "hand": "right"
    },
    {
      "midi": 55,
      "time": 57,
      "duration": 0.3,
      "velocity": 1,
      "hand": "left"
    },
    {
      "midi": 60,
      "time": 57,
      "duration": 0.285,
      "velocity": 1,
      "hand": "right"
    },
    {
      "midi": 70,
      "time": 57,
      "duration": 0.3,
      "velocity": 1,
      "hand": "right"
    },
    {
      "midi": 53,
      "time": 57.3,
      "duration": 0.3,
      "velocity": 1,
      "hand": "left"
    },
    {
      "midi": 60,
      "time": 57.3,
      "duration": 0.3,
      "velocity": 1,
      "hand": "right"
    },
    {
      "midi": 68,
      "time": 57.3,
      "duration": 0.3,
      "velocity": 1,
      "hand": "right"
    },
    {
      "midi": 46,
      "time": 57.6,
      "duration": 0.885,
      "velocity": 1,
      "hand": "left"
    },
    {
      "midi": 51,
      "time": 57.6,
      "duration": 0.285,
      "velocity": 1,
      "hand": "left"
    },
    {
      "midi": 63,
      "time": 57.6,
      "duration": 0.285,
      "velocity": 1,
      "hand": "right"
    },
    {
      "midi": 67,
      "time": 57.6,
      "duration": 0.585,
      "velocity": 1,
      "hand": "right"
    },
    {
      "midi": 51,
      "time": 57.9,
      "duration": 0.6,
      "velocity": 1,
      "hand": "left"
    },
    {
      "midi": 58,
      "time": 57.9,
      "duration": 0.285,
      "velocity": 1,
      "hand": "left"
    },
    {
      "midi": 63,
      "time": 57.9,
      "duration": 0.6,
      "velocity": 1,
      "hand": "right"
    },
    {
      "midi": 58,
      "time": 58.2,
      "duration": 0.285,
      "velocity": 1,
      "hand": "left"
    },
    {
      "midi": 67,
      "time": 58.2,
      "duration": 0.3,
      "velocity": 1,
      "hand": "right"
    },
    {
      "midi": 46,
      "time": 58.5,
      "duration": 0.285,
      "velocity": 1,
      "hand": "left"
    },
    {
      "midi": 53,
      "time": 58.5,
      "duration": 0.3,
      "velocity": 1,
      "hand": "left"
    },
    {
      "midi": 68,
      "time": 58.5,
      "duration": 0.3,
      "velocity": 1,
      "hand": "right"
    },
    {
      "midi": 46,
      "time": 58.8,
      "duration": 1.185,
      "velocity": 1,
      "hand": "left"
    },
    {
      "midi": 50,
      "time": 58.8,
      "duration": 1.2,
      "velocity": 1,
      "hand": "left"
    },
    {
      "midi": 65,
      "time": 58.8,
      "duration": 0.585,
      "velocity": 1,
      "hand": "right"
    },
    {
      "midi": 53,
      "time": 59.1,
      "duration": 0.6,
      "velocity": 1,
      "hand": "left"
    },
    {
      "midi": 58,
      "time": 59.1,
      "duration": 0.3,
      "velocity": 1,
      "hand": "left"
    },
    {
      "midi": 62,
      "time": 59.1,
      "duration": 0.285,
      "velocity": 1,
      "hand": "right"
    },
    {
      "midi": 62,
      "time": 59.4,
      "duration": 0.3,
      "velocity": 1,
      "hand": "right"
    },
    {
      "midi": 65,
      "time": 59.4,
      "duration": 0.3,
      "velocity": 1,
      "hand": "right"
    },
    {
      "midi": 54,
      "time": 59.7,
      "duration": 0.3,
      "velocity": 1,
      "hand": "left"
    },
    {
      "midi": 63,
      "time": 59.7,
      "duration": 0.3,
      "velocity": 1,
      "hand": "right"
    },
    {
      "midi": 69,
      "time": 59.7,
      "duration": 0.3,
      "velocity": 1,
      "hand": "right"
    },
    {
      "midi": 46,
      "time": 60,
      "duration": 0.585,
      "velocity": 1,
      "hand": "left"
    },
    {
      "midi": 53,
      "time": 60,
      "duration": 0.6,
      "velocity": 1,
      "hand": "left"
    },
    {
      "midi": 62,
      "time": 60,
      "duration": 0.585,
      "velocity": 1,
      "hand": "right"
    },
    {
      "midi": 70,
      "time": 60,
      "duration": 0.585,
      "velocity": 1,
      "hand": "right"
    },
    {
      "midi": 46,
      "time": 60.6,
      "duration": 0.585,
      "velocity": 1,
      "hand": "left"
    },
    {
      "midi": 56,
      "time": 60.6,
      "duration": 0.6,
      "velocity": 1,
      "hand": "left"
    },
    {
      "midi": 62,
      "time": 60.6,
      "duration": 0.6,
      "velocity": 1,
      "hand": "right"
    },
    {
      "midi": 65,
      "time": 60.6,
      "duration": 0.6,
      "velocity": 1,
      "hand": "right"
    },
    {
      "midi": 70,
      "time": 60.6,
      "duration": 0.285,
      "velocity": 1,
      "hand": "right"
    },
    {
      "midi": 72,
      "time": 60.6,
      "duration": 0.3,
      "velocity": 1,
      "hand": "right"
    },
    {
      "midi": 70,
      "time": 60.9,
      "duration": 0.285,
      "velocity": 1,
      "hand": "right"
    },
    {
      "midi": 46,
      "time": 61.2,
      "duration": 0.585,
      "velocity": 1,
      "hand": "left"
    },
    {
      "midi": 55,
      "time": 61.2,
      "duration": 0.6,
      "velocity": 1,
      "hand": "left"
    },
    {
      "midi": 63,
      "time": 61.2,
      "duration": 0.6,
      "velocity": 1,
      "hand": "right"
    },
    {
      "midi": 67,
      "time": 61.2,
      "duration": 0.6,
      "velocity": 1,
      "hand": "right"
    },
    {
      "midi": 70,
      "time": 61.2,
      "duration": 0.285,
      "velocity": 1,
      "hand": "right"
    },
    {
      "midi": 72,
      "time": 61.2,
      "duration": 0.3,
      "velocity": 1,
      "hand": "right"
    },
    {
      "midi": 70,
      "time": 61.5,
      "duration": 0.285,
      "velocity": 1,
      "hand": "right"
    },
    {
      "midi": 46,
      "time": 61.8,
      "duration": 0.6,
      "velocity": 1,
      "hand": "left"
    },
    {
      "midi": 53,
      "time": 61.8,
      "duration": 0.6,
      "velocity": 1,
      "hand": "left"
    },
    {
      "midi": 62,
      "time": 61.8,
      "duration": 0.6,
      "velocity": 1,
      "hand": "right"
    },
    {
      "midi": 68,
      "time": 61.8,
      "duration": 0.6,
      "velocity": 1,
      "hand": "right"
    },
    {
      "midi": 70,
      "time": 61.8,
      "duration": 0.285,
      "velocity": 1,
      "hand": "right"
    },
    {
      "midi": 72,
      "time": 61.8,
      "duration": 0.3,
      "velocity": 1,
      "hand": "right"
    },
    {
      "midi": 70,
      "time": 62.1,
      "duration": 0.285,
      "velocity": 1,
      "hand": "right"
    },
    {
      "midi": 51,
      "time": 62.4,
      "duration": 1.185,
      "velocity": 1,
      "hand": "left"
    },
    {
      "midi": 55,
      "time": 62.4,
      "duration": 0.6,
      "velocity": 1,
      "hand": "left"
    },
    {
      "midi": 63,
      "time": 62.4,
      "duration": 0.585,
      "velocity": 1,
      "hand": "right"
    },
    {
      "midi": 67,
      "time": 62.4,
      "duration": 0.285,
      "velocity": 1,
      "hand": "right"
    },
    {
      "midi": 70,
      "time": 62.4,
      "duration": 0.285,
      "velocity": 1,
      "hand": "right"
    },
    {
      "midi": 58,
      "time": 62.7,
      "duration": 0.285,
      "velocity": 1,
      "hand": "left"
    },
    {
      "midi": 67,
      "time": 62.7,
      "duration": 0.285,
      "velocity": 1,
      "hand": "right"
    },
    {
      "midi": 70,
      "time": 62.7,
      "duration": 0.3,
      "velocity": 1,
      "hand": "right"
    },
    {
      "midi": 58,
      "time": 63,
      "duration": 0.285,
      "velocity": 1,
      "hand": "left"
    },
    {
      "midi": 63,
      "time": 63,
      "duration": 0.3,
      "velocity": 1,
      "hand": "right"
    },
    {
      "midi": 67,
      "time": 63,
      "duration": 0.285,
      "velocity": 1,
      "hand": "right"
    },
    {
      "midi": 58,
      "time": 63.3,
      "duration": 0.3,
      "velocity": 1,
      "hand": "left"
    },
    {
      "midi": 67,
      "time": 63.3,
      "duration": 0.3,
      "velocity": 1,
      "hand": "right"
    },
    {
      "midi": 70,
      "time": 63.3,
      "duration": 0.3,
      "velocity": 1,
      "hand": "right"
    },
    {
      "midi": 51,
      "time": 63.6,
      "duration": 0.585,
      "velocity": 1,
      "hand": "left"
    },
    {
      "midi": 58,
      "time": 63.9,
      "duration": 0.285,
      "velocity": 1,
      "hand": "left"
    },
    {
      "midi": 67,
      "time": 63.9,
      "duration": 0.285,
      "velocity": 1,
      "hand": "right"
    },
    {
      "midi": 70,
      "time": 63.9,
      "duration": 0.285,
      "velocity": 1,
      "hand": "right"
    },
    {
      "midi": 51,
      "time": 64.2,
      "duration": 0.585,
      "velocity": 1,
      "hand": "left"
    },
    {
      "midi": 58,
      "time": 64.2,
      "duration": 0.285,
      "velocity": 1,
      "hand": "left"
    },
    {
      "midi": 63,
      "time": 64.2,
      "duration": 0.3,
      "velocity": 1,
      "hand": "right"
    },
    {
      "midi": 67,
      "time": 64.2,
      "duration": 0.285,
      "velocity": 1,
      "hand": "right"
    },
    {
      "midi": 70,
      "time": 64.2,
      "duration": 0.285,
      "velocity": 1,
      "hand": "right"
    },
    {
      "midi": 58,
      "time": 64.5,
      "duration": 0.285,
      "velocity": 1,
      "hand": "left"
    },
    {
      "midi": 67,
      "time": 64.5,
      "duration": 0.285,
      "velocity": 1,
      "hand": "right"
    },
    {
      "midi": 70,
      "time": 64.5,
      "duration": 0.285,
      "velocity": 1,
      "hand": "right"
    },
    {
      "midi": 51,
      "time": 64.8,
      "duration": 0.585,
      "velocity": 1,
      "hand": "left"
    },
    {
      "midi": 58,
      "time": 64.8,
      "duration": 0.285,
      "velocity": 1,
      "hand": "left"
    },
    {
      "midi": 67,
      "time": 64.8,
      "duration": 0.285,
      "velocity": 1,
      "hand": "right"
    },
    {
      "midi": 70,
      "time": 64.8,
      "duration": 0.285,
      "velocity": 1,
      "hand": "right"
    },
    {
      "midi": 58,
      "time": 65.1,
      "duration": 0.285,
      "velocity": 1,
      "hand": "left"
    },
    {
      "midi": 67,
      "time": 65.1,
      "duration": 0.285,
      "velocity": 1,
      "hand": "right"
    },
    {
      "midi": 70,
      "time": 65.1,
      "duration": 0.285,
      "velocity": 1,
      "hand": "right"
    },
    {
      "midi": 51,
      "time": 65.4,
      "duration": 0.585,
      "velocity": 1,
      "hand": "left"
    },
    {
      "midi": 58,
      "time": 65.4,
      "duration": 0.285,
      "velocity": 1,
      "hand": "left"
    },
    {
      "midi": 63,
      "time": 65.4,
      "duration": 0.3,
      "velocity": 1,
      "hand": "right"
    },
    {
      "midi": 67,
      "time": 65.4,
      "duration": 0.285,
      "velocity": 1,
      "hand": "right"
    },
    {
      "midi": 70,
      "time": 65.4,
      "duration": 0.285,
      "velocity": 1,
      "hand": "right"
    },
    {
      "midi": 58,
      "time": 65.7,
      "duration": 0.3,
      "velocity": 1,
      "hand": "left"
    },
    {
      "midi": 67,
      "time": 65.7,
      "duration": 0.285,
      "velocity": 1,
      "hand": "right"
    },
    {
      "midi": 70,
      "time": 65.7,
      "duration": 0.285,
      "velocity": 1,
      "hand": "right"
    },
    {
      "midi": 51,
      "time": 66,
      "duration": 0.585,
      "velocity": 1,
      "hand": "left"
    },
    {
      "midi": 63,
      "time": 66,
      "duration": 0.585,
      "velocity": 1,
      "hand": "right"
    },
    {
      "midi": 67,
      "time": 66,
      "duration": 0.285,
      "velocity": 1,
      "hand": "right"
    },
    {
      "midi": 70,
      "time": 66,
      "duration": 0.285,
      "velocity": 1,
      "hand": "right"
    },
    {
      "midi": 67,
      "time": 66.3,
      "duration": 0.285,
      "velocity": 1,
      "hand": "right"
    },
    {
      "midi": 70,
      "time": 66.3,
      "duration": 0.3,
      "velocity": 1,
      "hand": "right"
    },
    {
      "midi": 51,
      "time": 66.6,
      "duration": 0.585,
      "velocity": 1,
      "hand": "left"
    },
    {
      "midi": 60,
      "time": 66.6,
      "duration": 0.6,
      "velocity": 1,
      "hand": "right"
    },
    {
      "midi": 63,
      "time": 66.6,
      "duration": 0.3,
      "velocity": 1,
      "hand": "right"
    },
    {
      "midi": 67,
      "time": 66.6,
      "duration": 0.285,
      "velocity": 1,
      "hand": "right"
    },
    {
      "midi": 72,
      "time": 66.6,
      "duration": 0.585,
      "velocity": 1,
      "hand": "right"
    },
    {
      "midi": 67,
      "time": 66.9,
      "duration": 0.3,
      "velocity": 1,
      "hand": "right"
    },
    {
      "midi": 51,
      "time": 67.2,
      "duration": 1.185,
      "velocity": 1,
      "hand": "left"
    },
    {
      "midi": 58,
      "time": 67.2,
      "duration": 0.285,
      "velocity": 1,
      "hand": "left"
    },
    {
      "midi": 66,
      "time": 67.2,
      "duration": 0.285,
      "velocity": 1,
      "hand": "right"
    },
    {
      "midi": 72,
      "time": 67.2,
      "duration": 0.285,
      "velocity": 1,
      "hand": "right"
    },
    {
      "midi": 58,
      "time": 67.5,
      "duration": 0.585,
      "velocity": 1,
      "hand": "left"
    },
    {
      "midi": 66,
      "time": 67.5,
      "duration": 0.285,
      "velocity": 1,
      "hand": "right"
    },
    {
      "midi": 72,
      "time": 67.5,
      "duration": 0.3,
      "velocity": 1,
      "hand": "right"
    },
    {
      "midi": 60,
      "time": 67.8,
      "duration": 0.3,
      "velocity": 1,
      "hand": "right"
    },
    {
      "midi": 66,
      "time": 67.8,
      "duration": 0.285,
      "velocity": 1,
      "hand": "right"
    },
    {
      "midi": 58,
      "time": 68.1,
      "duration": 0.3,
      "velocity": 1,
      "hand": "left"
    },
    {
      "midi": 66,
      "time": 68.1,
      "duration": 0.285,
      "velocity": 1,
      "hand": "right"
    },
    {
      "midi": 72,
      "time": 68.1,
      "duration": 0.285,
      "velocity": 1,
      "hand": "right"
    },
    {
      "midi": 51,
      "time": 68.4,
      "duration": 1.185,
      "velocity": 1,
      "hand": "left"
    },
    {
      "midi": 57,
      "time": 68.4,
      "duration": 0.285,
      "velocity": 1,
      "hand": "left"
    },
    {
      "midi": 66,
      "time": 68.4,
      "duration": 0.285,
      "velocity": 1,
      "hand": "right"
    },
    {
      "midi": 72,
      "time": 68.4,
      "duration": 0.285,
      "velocity": 1,
      "hand": "right"
    },
    {
      "midi": 57,
      "time": 68.7,
      "duration": 0.585,
      "velocity": 1,
      "hand": "left"
    },
    {
      "midi": 66,
      "time": 68.7,
      "duration": 0.285,
      "velocity": 1,
      "hand": "right"
    },
    {
      "midi": 72,
      "time": 68.7,
      "duration": 0.3,
      "velocity": 1,
      "hand": "right"
    },
    {
      "midi": 60,
      "time": 69,
      "duration": 0.3,
      "velocity": 1,
      "hand": "right"
    },
    {
      "midi": 66,
      "time": 69,
      "duration": 0.285,
      "velocity": 1,
      "hand": "right"
    },
    {
      "midi": 57,
      "time": 69.3,
      "duration": 0.3,
      "velocity": 1,
      "hand": "left"
    },
    {
      "midi": 66,
      "time": 69.3,
      "duration": 0.285,
      "velocity": 1,
      "hand": "right"
    },
    {
      "midi": 72,
      "time": 69.3,
      "duration": 0.285,
      "velocity": 1,
      "hand": "right"
    },
    {
      "midi": 51,
      "time": 69.6,
      "duration": 1.185,
      "velocity": 1,
      "hand": "left"
    },
    {
      "midi": 54,
      "time": 69.6,
      "duration": 1.2,
      "velocity": 1,
      "hand": "left"
    },
    {
      "midi": 60,
      "time": 69.6,
      "duration": 0.585,
      "velocity": 1,
      "hand": "right"
    },
    {
      "midi": 66,
      "time": 69.6,
      "duration": 0.285,
      "velocity": 1,
      "hand": "right"
    },
    {
      "midi": 72,
      "time": 69.6,
      "duration": 0.285,
      "velocity": 1,
      "hand": "right"
    },
    {
      "midi": 78,
      "time": 69.6,
      "duration": 1.2,
      "velocity": 1,
      "hand": "right"
    },
    {
      "midi": 58,
      "time": 69.9,
      "duration": 0.585,
      "velocity": 1,
      "hand": "left"
    },
    {
      "midi": 66,
      "time": 69.9,
      "duration": 0.285,
      "velocity": 1,
      "hand": "right"
    },
    {
      "midi": 72,
      "time": 69.9,
      "duration": 0.3,
      "velocity": 1,
      "hand": "right"
    },
    {
      "midi": 60,
      "time": 70.2,
      "duration": 0.3,
      "velocity": 1,
      "hand": "right"
    },
    {
      "midi": 66,
      "time": 70.2,
      "duration": 0.285,
      "velocity": 1,
      "hand": "right"
    },
    {
      "midi": 58,
      "time": 70.5,
      "duration": 0.3,
      "velocity": 1,
      "hand": "left"
    },
    {
      "midi": 66,
      "time": 70.5,
      "duration": 0.3,
      "velocity": 1,
      "hand": "right"
    },
    {
      "midi": 72,
      "time": 70.5,
      "duration": 0.3,
      "velocity": 1,
      "hand": "right"
    },
    {
      "midi": 51,
      "time": 70.8,
      "duration": 0.6,
      "velocity": 1,
      "hand": "left"
    },
    {
      "midi": 53,
      "time": 70.8,
      "duration": 0.6,
      "velocity": 1,
      "hand": "left"
    },
    {
      "midi": 65,
      "time": 70.8,
      "duration": 0.285,
      "velocity": 1,
      "hand": "right"
    },
    {
      "midi": 77,
      "time": 70.8,
      "duration": 0.6,
      "velocity": 1,
      "hand": "right"
    },
    {
      "midi": 57,
      "time": 71.1,
      "duration": 0.585,
      "velocity": 1,
      "hand": "left"
    },
    {
      "midi": 65,
      "time": 71.1,
      "duration": 0.285,
      "velocity": 1,
      "hand": "right"
    },
    {
      "midi": 72,
      "time": 71.1,
      "duration": 0.3,
      "velocity": 1,
      "hand": "right"
    },
    {
      "midi": 60,
      "time": 71.4,
      "duration": 0.3,
      "velocity": 1,
      "hand": "right"
    },
    {
      "midi": 65,
      "time": 71.4,
      "duration": 0.285,
      "velocity": 1,
      "hand": "right"
    },
    {
      "midi": 57,
      "time": 71.7,
      "duration": 0.3,
      "velocity": 1,
      "hand": "left"
    },
    {
      "midi": 65,
      "time": 71.7,
      "duration": 0.285,
      "velocity": 1,
      "hand": "right"
    },
    {
      "midi": 72,
      "time": 71.7,
      "duration": 0.3,
      "velocity": 1,
      "hand": "right"
    },
    {
      "midi": 39,
      "time": 72,
      "duration": 0.285,
      "velocity": 1,
      "hand": "left"
    },
    {
      "midi": 50,
      "time": 72,
      "duration": 1.185,
      "velocity": 1,
      "hand": "left"
    },
    {
      "midi": 65,
      "time": 72,
      "duration": 0.585,
      "velocity": 1,
      "hand": "right"
    },
    {
      "midi": 70,
      "time": 72,
      "duration": 0.285,
      "velocity": 1,
      "hand": "right"
    },
    {
      "midi": 77,
      "time": 72,
      "duration": 0.885,
      "velocity": 1,
      "hand": "right"
    },
    {
      "midi": 39,
      "time": 72.3,
      "duration": 0.285,
      "velocity": 1,
      "hand": "left"
    },
    {
      "midi": 58,
      "time": 72.3,
      "duration": 0.585,
      "velocity": 1,
      "hand": "left"
    },
    {
      "midi": 70,
      "time": 72.3,
      "duration": 0.285,
      "velocity": 1,
      "hand": "right"
    },
    {
      "midi": 74,
      "time": 72.3,
      "duration": 0.3,
      "velocity": 1,
      "hand": "right"
    },
    {
      "midi": 39,
      "time": 72.6,
      "duration": 0.285,
      "velocity": 1,
      "hand": "left"
    },
    {
      "midi": 65,
      "time": 72.6,
      "duration": 0.3,
      "velocity": 1,
      "hand": "right"
    },
    {
      "midi": 70,
      "time": 72.6,
      "duration": 0.285,
      "velocity": 1,
      "hand": "right"
    },
    {
      "midi": 39,
      "time": 72.9,
      "duration": 0.285,
      "velocity": 1,
      "hand": "left"
    },
    {
      "midi": 58,
      "time": 72.9,
      "duration": 0.3,
      "velocity": 1,
      "hand": "left"
    },
    {
      "midi": 70,
      "time": 72.9,
      "duration": 0.3,
      "velocity": 1,
      "hand": "right"
    },
    {
      "midi": 77,
      "time": 72.9,
      "duration": 0.3,
      "velocity": 1,
      "hand": "right"
    },
    {
      "midi": 39,
      "time": 73.2,
      "duration": 0.6,
      "velocity": 1,
      "hand": "left"
    },
    {
      "midi": 50,
      "time": 73.2,
      "duration": 0.585,
      "velocity": 1,
      "hand": "left"
    },
    {
      "midi": 62,
      "time": 73.5,
      "duration": 0.285,
      "velocity": 1,
      "hand": "right"
    },
    {
      "midi": 70,
      "time": 73.5,
      "duration": 0.285,
      "velocity": 1,
      "hand": "right"
    },
    {
      "midi": 77,
      "time": 73.5,
      "duration": 0.285,
      "velocity": 1,
      "hand": "right"
    },
    {
      "midi": 50,
      "time": 73.8,
      "duration": 0.6,
      "velocity": 1,
      "hand": "left"
    },
    {
      "midi": 62,
      "time": 73.8,
      "duration": 0.285,
      "velocity": 1,
      "hand": "right"
    },
    {
      "midi": 65,
      "time": 73.8,
      "duration": 0.3,
      "velocity": 1,
      "hand": "right"
    },
    {
      "midi": 70,
      "time": 73.8,
      "duration": 0.285,
      "velocity": 1,
      "hand": "right"
    },
    {
      "midi": 77,
      "time": 73.8,
      "duration": 0.285,
      "velocity": 1,
      "hand": "right"
    },
    {
      "midi": 62,
      "time": 74.1,
      "duration": 0.285,
      "velocity": 1,
      "hand": "right"
    },
    {
      "midi": 70,
      "time": 74.1,
      "duration": 0.285,
      "velocity": 1,
      "hand": "right"
    },
    {
      "midi": 77,
      "time": 74.1,
      "duration": 0.3,
      "velocity": 1,
      "hand": "right"
    },
    {
      "midi": 51,
      "time": 74.4,
      "duration": 0.585,
      "velocity": 1,
      "hand": "left"
    },
    {
      "midi": 62,
      "time": 74.4,
      "duration": 0.6,
      "velocity": 1,
      "hand": "right"
    },
    {
      "midi": 70,
      "time": 74.4,
      "duration": 0.285,
      "velocity": 1,
      "hand": "right"
    },
    {
      "midi": 79,
      "time": 74.4,
      "duration": 0.285,
      "velocity": 1,
      "hand": "right"
    },
    {
      "midi": 70,
      "time": 74.7,
      "duration": 0.285,
      "velocity": 1,
      "hand": "right"
    },
    {
      "midi": 79,
      "time": 74.7,
      "duration": 0.285,
      "velocity": 1,
      "hand": "right"
    },
    {
      "midi": 39,
      "time": 75,
      "duration": 0.585,
      "velocity": 1,
      "hand": "left"
    },
    {
      "midi": 51,
      "time": 75,
      "duration": 0.6,
      "velocity": 1,
      "hand": "left"
    },
    {
      "midi": 60,
      "time": 75,
      "duration": 0.6,
      "velocity": 1,
      "hand": "right"
    },
    {
      "midi": 67,
      "time": 75,
      "duration": 0.3,
      "velocity": 1,
      "hand": "right"
    },
    {
      "midi": 70,
      "time": 75,
      "duration": 0.285,
      "velocity": 1,
      "hand": "right"
    },
    {
      "midi": 79,
      "time": 75,
      "duration": 0.285,
      "velocity": 1,
      "hand": "right"
    },
    {
      "midi": 70,
      "time": 75.3,
      "duration": 0.285,
      "velocity": 1,
      "hand": "right"
    },
    {
      "midi": 79,
      "time": 75.3,
      "duration": 0.3,
      "velocity": 1,
      "hand": "right"
    },
    {
      "midi": 39,
      "time": 75.6,
      "duration": 0.585,
      "velocity": 1,
      "hand": "left"
    },
    {
      "midi": 50,
      "time": 75.6,
      "duration": 0.6,
      "velocity": 1,
      "hand": "left"
    },
    {
      "midi": 62,
      "time": 75.6,
      "duration": 0.6,
      "velocity": 1,
      "hand": "right"
    },
    {
      "midi": 65,
      "time": 75.6,
      "duration": 0.3,
      "velocity": 1,
      "hand": "right"
    },
    {
      "midi": 70,
      "time": 75.6,
      "duration": 0.285,
      "velocity": 1,
      "hand": "right"
    },
    {
      "midi": 77,
      "time": 75.6,
      "duration": 0.285,
      "velocity": 1,
      "hand": "right"
    },
    {
      "midi": 70,
      "time": 75.9,
      "duration": 0.285,
      "velocity": 1,
      "hand": "right"
    },
    {
      "midi": 77,
      "time": 75.9,
      "duration": 0.3,
      "velocity": 1,
      "hand": "right"
    },
    {
      "midi": 39,
      "time": 76.2,
      "duration": 0.585,
      "velocity": 1,
      "hand": "left"
    },
    {
      "midi": 48,
      "time": 76.2,
      "duration": 0.6,
      "velocity": 1,
      "hand": "left"
    },
    {
      "midi": 70,
      "time": 76.2,
      "duration": 0.285,
      "velocity": 1,
      "hand": "right"
    },
    {
      "midi": 72,
      "time": 76.2,
      "duration": 0.6,
      "velocity": 1,
      "hand": "right"
    },
    {
      "midi": 75,
      "time": 76.2,
      "duration": 0.285,
      "velocity": 1,
      "hand": "right"
    },
    {
      "midi": 79,
      "time": 76.2,
      "duration": 0.6,
      "velocity": 1,
      "hand": "right"
    },
    {
      "midi": 70,
      "time": 76.5,
      "duration": 0.285,
      "velocity": 1,
      "hand": "right"
    },
    {
      "midi": 75,
      "time": 76.5,
      "duration": 0.3,
      "velocity": 1,
      "hand": "right"
    },
    {
      "midi": 39,
      "time": 76.8,
      "duration": 0.6,
      "velocity": 1,
      "hand": "left"
    },
    {
      "midi": 53,
      "time": 76.8,
      "duration": 1.185,
      "velocity": 1,
      "hand": "left"
    },
    {
      "midi": 65,
      "time": 76.8,
      "duration": 0.285,
      "velocity": 1,
      "hand": "right"
    },
    {
      "midi": 70,
      "time": 76.8,
      "duration": 0.285,
      "velocity": 1,
      "hand": "right"
    },
    {
      "midi": 74,
      "time": 76.8,
      "duration": 0.285,
      "velocity": 1,
      "hand": "right"
    },
    {
      "midi": 77,
      "time": 76.8,
      "duration": 1.185,
      "velocity": 1,
      "hand": "right"
    },
    {
      "midi": 65,
      "time": 77.1,
      "duration": 0.585,
      "velocity": 1,
      "hand": "right"
    },
    {
      "midi": 70,
      "time": 77.1,
      "duration": 0.3,
      "velocity": 1,
      "hand": "right"
    },
    {
      "midi": 74,
      "time": 77.1,
      "duration": 0.3,
      "velocity": 1,
      "hand": "right"
    },
    {
      "midi": 65,
      "time": 77.7,
      "duration": 0.3,
      "velocity": 1,
      "hand": "right"
    },
    {
      "midi": 70,
      "time": 77.7,
      "duration": 0.3,
      "velocity": 1,
      "hand": "right"
    },
    {
      "midi": 74,
      "time": 77.7,
      "duration": 0.3,
      "velocity": 1,
      "hand": "right"
    },
    {
      "midi": 41,
      "time": 78,
      "duration": 1.2,
      "velocity": 1,
      "hand": "left"
    },
    {
      "midi": 53,
      "time": 78,
      "duration": 1.2,
      "velocity": 1,
      "hand": "left"
    },
    {
      "midi": 63,
      "time": 78,
      "duration": 0.585,
      "velocity": 1,
      "hand": "right"
    },
    {
      "midi": 69,
      "time": 78,
      "duration": 0.285,
      "velocity": 1,
      "hand": "right"
    },
    {
      "midi": 77,
      "time": 78,
      "duration": 1.185,
      "velocity": 1,
      "hand": "right"
    },
    {
      "midi": 65,
      "time": 78.3,
      "duration": 0.585,
      "velocity": 1,
      "hand": "right"
    },
    {
      "midi": 69,
      "time": 78.3,
      "duration": 0.3,
      "velocity": 1,
      "hand": "right"
    },
    {
      "midi": 74,
      "time": 78.3,
      "duration": 0.3,
      "velocity": 1,
      "hand": "right"
    },
    {
      "midi": 63,
      "time": 78.6,
      "duration": 0.6,
      "velocity": 1,
      "hand": "right"
    },
    {
      "midi": 72,
      "time": 78.6,
      "duration": 0.285,
      "velocity": 1,
      "hand": "right"
    },
    {
      "midi": 65,
      "time": 78.9,
      "duration": 0.285,
      "velocity": 1,
      "hand": "right"
    },
    {
      "midi": 69,
      "time": 78.9,
      "duration": 0.3,
      "velocity": 1,
      "hand": "right"
    },
    {
      "midi": 72,
      "time": 78.9,
      "duration": 0.3,
      "velocity": 1,
      "hand": "right"
    },
    {
      "midi": 39,
      "time": 79.2,
      "duration": 0.585,
      "velocity": 1,
      "hand": "left"
    },
    {
      "midi": 46,
      "time": 79.2,
      "duration": 1.2,
      "velocity": 1,
      "hand": "left"
    },
    {
      "midi": 62,
      "time": 79.2,
      "duration": 0.585,
      "velocity": 1,
      "hand": "right"
    },
    {
      "midi": 65,
      "time": 79.2,
      "duration": 0.6,
      "velocity": 1,
      "hand": "right"
    },
    {
      "midi": 70,
      "time": 79.2,
      "duration": 0.285,
      "velocity": 1,
      "hand": "right"
    },
    {
      "midi": 77,
      "time": 79.2,
      "duration": 0.6,
      "velocity": 1,
      "hand": "right"
    },
    {
      "midi": 70,
      "time": 79.5,
      "duration": 0.285,
      "velocity": 1,
      "hand": "right"
    },
    {
      "midi": 39,
      "time": 79.8,
      "duration": 0.3,
      "velocity": 1,
      "hand": "left"
    },
    {
      "midi": 58,
      "time": 79.8,
      "duration": 0.585,
      "velocity": 1,
      "hand": "left"
    },
    {
      "midi": 62,
      "time": 79.8,
      "duration": 0.3,
      "velocity": 1,
      "hand": "right"
    },
    {
      "midi": 70,
      "time": 79.8,
      "duration": 0.585,
      "velocity": 1,
      "hand": "right"
    },
    {
      "midi": 74,
      "time": 79.8,
      "duration": 0.3,
      "velocity": 1,
      "hand": "right"
    },
    {
      "midi": 82,
      "time": 79.8,
      "duration": 0.585,
      "velocity": 1,
      "hand": "right"
    },
    {
      "midi": 65,
      "time": 80.1,
      "duration": 0.3,
      "velocity": 1,
      "hand": "right"
    },
    {
      "midi": 77,
      "time": 80.1,
      "duration": 0.3,
      "velocity": 1,
      "hand": "right"
    },
    {
      "midi": 39,
      "time": 80.4,
      "duration": 0.585,
      "velocity": 1,
      "hand": "left"
    },
    {
      "midi": 54,
      "time": 80.4,
      "duration": 0.6,
      "velocity": 1,
      "hand": "left"
    },
    {
      "midi": 63,
      "time": 80.4,
      "duration": 0.585,
      "velocity": 1,
      "hand": "right"
    },
    {
      "midi": 70,
      "time": 80.4,
      "duration": 0.585,
      "velocity": 1,
      "hand": "right"
    },
    {
      "midi": 75,
      "time": 80.4,
      "duration": 0.585,
      "velocity": 1,
      "hand": "right"
    },
    {
      "midi": 82,
      "time": 80.4,
      "duration": 0.585,
      "velocity": 1,
      "hand": "right"
    },
    {
      "midi": 65,
      "time": 80.7,
      "duration": 0.3,
      "velocity": 1,
      "hand": "right"
    },
    {
      "midi": 77,
      "time": 80.7,
      "duration": 0.3,
      "velocity": 1,
      "hand": "right"
    },
    {
      "midi": 39,
      "time": 81,
      "duration": 0.585,
      "velocity": 1,
      "hand": "left"
    },
    {
      "midi": 51,
      "time": 81,
      "duration": 0.6,
      "velocity": 1,
      "hand": "left"
    },
    {
      "midi": 70,
      "time": 81,
      "duration": 0.285,
      "velocity": 1,
      "hand": "right"
    },
    {
      "midi": 75,
      "time": 81,
      "duration": 0.6,
      "velocity": 1,
      "hand": "right"
    },
    {
      "midi": 78,
      "time": 81,
      "duration": 0.6,
      "velocity": 1,
      "hand": "right"
    },
    {
      "midi": 82,
      "time": 81,
      "duration": 0.285,
      "velocity": 1,
      "hand": "right"
    },
    {
      "midi": 70,
      "time": 81.3,
      "duration": 0.285,
      "velocity": 1,
      "hand": "right"
    },
    {
      "midi": 82,
      "time": 81.3,
      "duration": 0.285,
      "velocity": 1,
      "hand": "right"
    },
    {
      "midi": 39,
      "time": 81.6,
      "duration": 0.6,
      "velocity": 1,
      "hand": "left"
    },
    {
      "midi": 53,
      "time": 81.6,
      "duration": 1.2,
      "velocity": 1,
      "hand": "left"
    },
    {
      "midi": 70,
      "time": 81.6,
      "duration": 0.885,
      "velocity": 1,
      "hand": "right"
    },
    {
      "midi": 74,
      "time": 81.6,
      "duration": 0.885,
      "velocity": 1,
      "hand": "right"
    },
    {
      "midi": 77,
      "time": 81.6,
      "duration": 0.585,
      "velocity": 1,
      "hand": "right"
    },
    {
      "midi": 82,
      "time": 81.6,
      "duration": 0.285,
      "velocity": 1,
      "hand": "right"
    },
    {
      "midi": 58,
      "time": 81.9,
      "duration": 0.585,
      "velocity": 1,
      "hand": "left"
    },
    {
      "midi": 62,
      "time": 81.9,
      "duration": 0.585,
      "velocity": 1,
      "hand": "right"
    },
    {
      "midi": 82,
      "time": 81.9,
      "duration": 0.3,
      "velocity": 1,
      "hand": "right"
    },
    {
      "midi": 65,
      "time": 82.2,
      "duration": 0.3,
      "velocity": 1,
      "hand": "right"
    },
    {
      "midi": 77,
      "time": 82.2,
      "duration": 0.3,
      "velocity": 1,
      "hand": "right"
    },
    {
      "midi": 58,
      "time": 82.5,
      "duration": 0.3,
      "velocity": 1,
      "hand": "left"
    },
    {
      "midi": 62,
      "time": 82.5,
      "duration": 0.3,
      "velocity": 1,
      "hand": "right"
    },
    {
      "midi": 70,
      "time": 82.5,
      "duration": 0.3,
      "velocity": 1,
      "hand": "right"
    },
    {
      "midi": 74,
      "time": 82.5,
      "duration": 0.3,
      "velocity": 1,
      "hand": "right"
    },
    {
      "midi": 41,
      "time": 82.8,
      "duration": 1.2,
      "velocity": 1,
      "hand": "left"
    },
    {
      "midi": 60,
      "time": 82.8,
      "duration": 0.285,
      "velocity": 1,
      "hand": "right"
    },
    {
      "midi": 65,
      "time": 82.8,
      "duration": 1.185,
      "velocity": 1,
      "hand": "right"
    },
    {
      "midi": 69,
      "time": 82.8,
      "duration": 0.285,
      "velocity": 1,
      "hand": "right"
    },
    {
      "midi": 77,
      "time": 82.8,
      "duration": 0.885,
      "velocity": 1,
      "hand": "right"
    },
    {
      "midi": 60,
      "time": 83.1,
      "duration": 0.585,
      "velocity": 1,
      "hand": "right"
    },
    {
      "midi": 69,
      "time": 83.1,
      "duration": 0.585,
      "velocity": 1,
      "hand": "right"
    },
    {
      "midi": 75,
      "time": 83.1,
      "duration": 0.3,
      "velocity": 1,
      "hand": "right"
    },
    {
      "midi": 74,
      "time": 83.4,
      "duration": 0.3,
      "velocity": 1,
      "hand": "right"
    },
    {
      "midi": 60,
      "time": 83.7,
      "duration": 0.3,
      "velocity": 1,
      "hand": "right"
    },
    {
      "midi": 69,
      "time": 83.7,
      "duration": 0.3,
      "velocity": 1,
      "hand": "right"
    },
    {
      "midi": 75,
      "time": 83.7,
      "duration": 0.3,
      "velocity": 1,
      "hand": "right"
    },
    {
      "midi": 77,
      "time": 83.7,
      "duration": 0.15,
      "velocity": 1,
      "hand": "right"
    },
    {
      "midi": 46,
      "time": 84,
      "duration": 0.6,
      "velocity": 1,
      "hand": "left"
    },
    {
      "midi": 58,
      "time": 84,
      "duration": 0.585,
      "velocity": 1,
      "hand": "left"
    },
    {
      "midi": 65,
      "time": 84,
      "duration": 0.285,
      "velocity": 1,
      "hand": "right"
    },
    {
      "midi": 70,
      "time": 84,
      "duration": 0.285,
      "velocity": 1,
      "hand": "right"
    },
    {
      "midi": 74,
      "time": 84,
      "duration": 0.6,
      "velocity": 1,
      "hand": "right"
    },
    {
      "midi": 77,
      "time": 84,
      "duration": 0.6,
      "velocity": 1,
      "hand": "right"
    },
    {
      "midi": 62,
      "time": 84.3,
      "duration": 0.285,
      "velocity": 1,
      "hand": "right"
    },
    {
      "midi": 65,
      "time": 84.3,
      "duration": 0.285,
      "velocity": 1,
      "hand": "right"
    },
    {
      "midi": 70,
      "time": 84.3,
      "duration": 0.285,
      "velocity": 1,
      "hand": "right"
    },
    {
      "midi": 58,
      "time": 84.6,
      "duration": 0.285,
      "velocity": 1,
      "hand": "left"
    },
    {
      "midi": 62,
      "time": 84.6,
      "duration": 0.285,
      "velocity": 1,
      "hand": "right"
    },
    {
      "midi": 65,
      "time": 84.6,
      "duration": 0.585,
      "velocity": 1,
      "hand": "right"
    },
    {
      "midi": 70,
      "time": 84.6,
      "duration": 1.185,
      "velocity": 1,
      "hand": "right"
    },
    {
      "midi": 53,
      "time": 84.9,
      "duration": 0.3,
      "velocity": 1,
      "hand": "left"
    },
    {
      "midi": 58,
      "time": 84.9,
      "duration": 0.285,
      "velocity": 1,
      "hand": "left"
    },
    {
      "midi": 62,
      "time": 84.9,
      "duration": 0.285,
      "velocity": 1,
      "hand": "right"
    },
    {
      "midi": 46,
      "time": 85.2,
      "duration": 0.6,
      "velocity": 1,
      "hand": "left"
    },
    {
      "midi": 58,
      "time": 85.2,
      "duration": 0.285,
      "velocity": 1,
      "hand": "left"
    },
    {
      "midi": 62,
      "time": 85.2,
      "duration": 0.285,
      "velocity": 1,
      "hand": "right"
    },
    {
      "midi": 65,
      "time": 85.2,
      "duration": 0.3,
      "velocity": 1,
      "hand": "right"
    },
    {
      "midi": 53,
      "time": 85.5,
      "duration": 0.3,
      "velocity": 1,
      "hand": "left"
    },
    {
      "midi": 58,
      "time": 85.5,
      "duration": 0.285,
      "velocity": 1,
      "hand": "left"
    },
    {
      "midi": 62,
      "time": 85.5,
      "duration": 0.285,
      "velocity": 1,
      "hand": "right"
    },
    {
      "midi": 44,
      "time": 85.8,
      "duration": 0.6,
      "velocity": 1,
      "hand": "left"
    },
    {
      "midi": 58,
      "time": 85.8,
      "duration": 0.3,
      "velocity": 1,
      "hand": "left"
    },
    {
      "midi": 62,
      "time": 85.8,
      "duration": 0.285,
      "velocity": 1,
      "hand": "right"
    },
    {
      "midi": 65,
      "time": 85.8,
      "duration": 0.285,
      "velocity": 1,
      "hand": "right"
    },
    {
      "midi": 70,
      "time": 85.8,
      "duration": 0.285,
      "velocity": 1,
      "hand": "right"
    },
    {
      "midi": 62,
      "time": 86.1,
      "duration": 0.3,
      "velocity": 1,
      "hand": "right"
    },
    {
      "midi": 65,
      "time": 86.1,
      "duration": 0.3,
      "velocity": 1,
      "hand": "right"
    },
    {
      "midi": 70,
      "time": 86.1,
      "duration": 0.285,
      "velocity": 1,
      "hand": "right"
    },
    {
      "midi": 42,
      "time": 86.4,
      "duration": 0.6,
      "velocity": 1,
      "hand": "left"
    },
    {
      "midi": 54,
      "time": 86.4,
      "duration": 1.785,
      "velocity": 1,
      "hand": "left"
    },
    {
      "midi": 61,
      "time": 86.4,
      "duration": 0.285,
      "velocity": 1,
      "hand": "right"
    },
    {
      "midi": 66,
      "time": 86.4,
      "duration": 0.285,
      "velocity": 1,
      "hand": "right"
    },
    {
      "midi": 70,
      "time": 86.4,
      "duration": 0.285,
      "velocity": 1,
      "hand": "right"
    },
    {
      "midi": 61,
      "time": 86.7,
      "duration": 0.585,
      "velocity": 1,
      "hand": "right"
    },
    {
      "midi": 66,
      "time": 86.7,
      "duration": 0.285,
      "velocity": 1,
      "hand": "right"
    },
    {
      "midi": 70,
      "time": 86.7,
      "duration": 0.3,
      "velocity": 1,
      "hand": "right"
    },
    {
      "midi": 66,
      "time": 87,
      "duration": 0.285,
      "velocity": 1,
      "hand": "right"
    },
    {
      "midi": 61,
      "time": 87.3,
      "duration": 0.3,
      "velocity": 1,
      "hand": "right"
    },
    {
      "midi": 66,
      "time": 87.3,
      "duration": 0.3,
      "velocity": 1,
      "hand": "right"
    },
    {
      "midi": 70,
      "time": 87.3,
      "duration": 0.3,
      "velocity": 1,
      "hand": "right"
    },
    {
      "midi": 42,
      "time": 87.6,
      "duration": 0.6,
      "velocity": 1,
      "hand": "left"
    },
    {
      "midi": 61,
      "time": 87.9,
      "duration": 0.285,
      "velocity": 1,
      "hand": "right"
    },
    {
      "midi": 66,
      "time": 87.9,
      "duration": 0.285,
      "velocity": 1,
      "hand": "right"
    },
    {
      "midi": 70,
      "time": 87.9,
      "duration": 0.285,
      "velocity": 1,
      "hand": "right"
    },
    {
      "midi": 54,
      "time": 88.2,
      "duration": 0.6,
      "velocity": 1,
      "hand": "left"
    },
    {
      "midi": 61,
      "time": 88.2,
      "duration": 0.285,
      "velocity": 1,
      "hand": "right"
    },
    {
      "midi": 66,
      "time": 88.2,
      "duration": 0.285,
      "velocity": 1,
      "hand": "right"
    },
    {
      "midi": 70,
      "time": 88.2,
      "duration": 0.285,
      "velocity": 1,
      "hand": "right"
    },
    {
      "midi": 61,
      "time": 88.5,
      "duration": 0.285,
      "velocity": 1,
      "hand": "right"
    },
    {
      "midi": 66,
      "time": 88.5,
      "duration": 0.3,
      "velocity": 1,
      "hand": "right"
    },
    {
      "midi": 70,
      "time": 88.5,
      "duration": 0.3,
      "velocity": 1,
      "hand": "right"
    },
    {
      "midi": 44,
      "time": 88.8,
      "duration": 0.6,
      "velocity": 1,
      "hand": "left"
    },
    {
      "midi": 56,
      "time": 88.8,
      "duration": 1.185,
      "velocity": 1,
      "hand": "left"
    },
    {
      "midi": 61,
      "time": 88.8,
      "duration": 0.285,
      "velocity": 1,
      "hand": "right"
    },
    {
      "midi": 65,
      "time": 88.8,
      "duration": 0.285,
      "velocity": 1,
      "hand": "right"
    },
    {
      "midi": 73,
      "time": 88.8,
      "duration": 0.285,
      "velocity": 1,
      "hand": "right"
    },
    {
      "midi": 61,
      "time": 89.1,
      "duration": 0.585,
      "velocity": 1,
      "hand": "right"
    },
    {
      "midi": 65,
      "time": 89.1,
      "duration": 0.285,
      "velocity": 1,
      "hand": "right"
    },
    {
      "midi": 73,
      "time": 89.1,
      "duration": 0.285,
      "velocity": 1,
      "hand": "right"
    },
    {
      "midi": 65,
      "time": 89.4,
      "duration": 0.285,
      "velocity": 1,
      "hand": "right"
    },
    {
      "midi": 73,
      "time": 89.4,
      "duration": 0.285,
      "velocity": 1,
      "hand": "right"
    },
    {
      "midi": 61,
      "time": 89.7,
      "duration": 0.285,
      "velocity": 1,
      "hand": "right"
    },
    {
      "midi": 65,
      "time": 89.7,
      "duration": 0.285,
      "velocity": 1,
      "hand": "right"
    },
    {
      "midi": 73,
      "time": 89.7,
      "duration": 0.3,
      "velocity": 1,
      "hand": "right"
    },
    {
      "midi": 44,
      "time": 90,
      "duration": 0.6,
      "velocity": 1,
      "hand": "left"
    },
    {
      "midi": 56,
      "time": 90,
      "duration": 1.2,
      "velocity": 1,
      "hand": "left"
    },
    {
      "midi": 61,
      "time": 90,
      "duration": 0.285,
      "velocity": 1,
      "hand": "right"
    },
    {
      "midi": 65,
      "time": 90,
      "duration": 0.285,
      "velocity": 1,
      "hand": "right"
    },
    {
      "midi": 71,
      "time": 90,
      "duration": 0.285,
      "velocity": 1,
      "hand": "right"
    },
    {
      "midi": 61,
      "time": 90.3,
      "duration": 0.585,
      "velocity": 1,
      "hand": "right"
    },
    {
      "midi": 65,
      "time": 90.3,
      "duration": 0.285,
      "velocity": 1,
      "hand": "right"
    },
    {
      "midi": 71,
      "time": 90.3,
      "duration": 0.3,
      "velocity": 1,
      "hand": "right"
    },
    {
      "midi": 80,
      "time": 90.3,
      "duration": 0.3,
      "velocity": 1,
      "hand": "right"
    },
    {
      "midi": 65,
      "time": 90.6,
      "duration": 0.285,
      "velocity": 1,
      "hand": "right"
    },
    {
      "midi": 77,
      "time": 90.6,
      "duration": 0.3,
      "velocity": 1,
      "hand": "right"
    },
    {
      "midi": 61,
      "time": 90.9,
      "duration": 0.285,
      "velocity": 1,
      "hand": "right"
    },
    {
      "midi": 65,
      "time": 90.9,
      "duration": 0.3,
      "velocity": 1,
      "hand": "right"
    },
    {
      "midi": 71,
      "time": 90.9,
      "duration": 0.3,
      "velocity": 1,
      "hand": "right"
    },
    {
      "midi": 42,
      "time": 91.2,
      "duration": 0.6,
      "velocity": 1,
      "hand": "left"
    },
    {
      "midi": 54,
      "time": 91.2,
      "duration": 1.785,
      "velocity": 1,
      "hand": "left"
    },
    {
      "midi": 61,
      "time": 91.2,
      "duration": 0.285,
      "velocity": 1,
      "hand": "right"
    },
    {
      "midi": 66,
      "time": 91.2,
      "duration": 0.285,
      "velocity": 1,
      "hand": "right"
    },
    {
      "midi": 70,
      "time": 91.2,
      "duration": 0.285,
      "velocity": 1,
      "hand": "right"
    },
    {
      "midi": 61,
      "time": 91.5,
      "duration": 0.585,
      "velocity": 1,
      "hand": "right"
    },
    {
      "midi": 66,
      "time": 91.5,
      "duration": 0.285,
      "velocity": 1,
      "hand": "right"
    },
    {
      "midi": 70,
      "time": 91.5,
      "duration": 0.3,
      "velocity": 1,
      "hand": "right"
    },
    {
      "midi": 66,
      "time": 91.8,
      "duration": 0.285,
      "velocity": 1,
      "hand": "right"
    },
    {
      "midi": 61,
      "time": 92.1,
      "duration": 0.3,
      "velocity": 1,
      "hand": "right"
    },
    {
      "midi": 66,
      "time": 92.1,
      "duration": 0.3,
      "velocity": 1,
      "hand": "right"
    },
    {
      "midi": 70,
      "time": 92.1,
      "duration": 0.3,
      "velocity": 1,
      "hand": "right"
    },
    {
      "midi": 42,
      "time": 92.4,
      "duration": 0.6,
      "velocity": 1,
      "hand": "left"
    },
    {
      "midi": 61,
      "time": 92.7,
      "duration": 0.3,
      "velocity": 1,
      "hand": "right"
    },
    {
      "midi": 70,
      "time": 92.7,
      "duration": 0.585,
      "velocity": 1,
      "hand": "right"
    },
    {
      "midi": 73,
      "time": 92.7,
      "duration": 0.285,
      "velocity": 1,
      "hand": "right"
    },
    {
      "midi": 54,
      "time": 93,
      "duration": 0.6,
      "velocity": 1,
      "hand": "left"
    },
    {
      "midi": 58,
      "time": 93,
      "duration": 0.6,
      "velocity": 1,
      "hand": "left"
    },
    {
      "midi": 66,
      "time": 93,
      "duration": 0.285,
      "velocity": 1,
      "hand": "right"
    },
    {
      "midi": 73,
      "time": 93,
      "duration": 0.6,
      "velocity": 1,
      "hand": "right"
    },
    {
      "midi": 78,
      "time": 93,
      "duration": 0.3,
      "velocity": 1,
      "hand": "right"
    },
    {
      "midi": 61,
      "time": 93.3,
      "duration": 0.285,
      "velocity": 1,
      "hand": "right"
    },
    {
      "midi": 66,
      "time": 93.3,
      "duration": 0.285,
      "velocity": 1,
      "hand": "right"
    },
    {
      "midi": 70,
      "time": 93.3,
      "duration": 0.285,
      "velocity": 1,
      "hand": "right"
    },
    {
      "midi": 49,
      "time": 93.6,
      "duration": 1.2,
      "velocity": 1,
      "hand": "left"
    },
    {
      "midi": 61,
      "time": 93.6,
      "duration": 0.285,
      "velocity": 1,
      "hand": "right"
    },
    {
      "midi": 66,
      "time": 93.6,
      "duration": 0.285,
      "velocity": 1,
      "hand": "right"
    },
    {
      "midi": 70,
      "time": 93.6,
      "duration": 0.285,
      "velocity": 1,
      "hand": "right"
    },
    {
      "midi": 61,
      "time": 93.9,
      "duration": 0.585,
      "velocity": 1,
      "hand": "right"
    },
    {
      "midi": 66,
      "time": 93.9,
      "duration": 0.285,
      "velocity": 1,
      "hand": "right"
    },
    {
      "midi": 70,
      "time": 93.9,
      "duration": 0.3,
      "velocity": 1,
      "hand": "right"
    },
    {
      "midi": 66,
      "time": 94.2,
      "duration": 0.285,
      "velocity": 1,
      "hand": "right"
    },
    {
      "midi": 78,
      "time": 94.2,
      "duration": 0.6,
      "velocity": 1,
      "hand": "right"
    },
    {
      "midi": 61,
      "time": 94.5,
      "duration": 0.3,
      "velocity": 1,
      "hand": "right"
    },
    {
      "midi": 66,
      "time": 94.5,
      "duration": 0.3,
      "velocity": 1,
      "hand": "right"
    },
    {
      "midi": 70,
      "time": 94.5,
      "duration": 0.3,
      "velocity": 1,
      "hand": "right"
    },
    {
      "midi": 50,
      "time": 94.8,
      "duration": 1.2,
      "velocity": 1,
      "hand": "left"
    },
    {
      "midi": 59,
      "time": 94.8,
      "duration": 0.285,
      "velocity": 1,
      "hand": "left"
    },
    {
      "midi": 65,
      "time": 94.8,
      "duration": 0.285,
      "velocity": 1,
      "hand": "right"
    },
    {
      "midi": 68,
      "time": 94.8,
      "duration": 0.285,
      "velocity": 1,
      "hand": "right"
    },
    {
      "midi": 77,
      "time": 94.8,
      "duration": 0.3,
      "velocity": 1,
      "hand": "right"
    },
    {
      "midi": 59,
      "time": 95.1,
      "duration": 0.585,
      "velocity": 1,
      "hand": "left"
    },
    {
      "midi": 65,
      "time": 95.1,
      "duration": 0.285,
      "velocity": 1,
      "hand": "right"
    },
    {
      "midi": 68,
      "time": 95.1,
      "duration": 0.3,
      "velocity": 1,
      "hand": "right"
    },
    {
      "midi": 83,
      "time": 95.1,
      "duration": 0.3,
      "velocity": 1,
      "hand": "right"
    },
    {
      "midi": 65,
      "time": 95.4,
      "duration": 0.285,
      "velocity": 1,
      "hand": "right"
    },
    {
      "midi": 80,
      "time": 95.4,
      "duration": 0.3,
      "velocity": 1,
      "hand": "right"
    },
    {
      "midi": 59,
      "time": 95.7,
      "duration": 0.3,
      "velocity": 1,
      "hand": "left"
    },
    {
      "midi": 65,
      "time": 95.7,
      "duration": 0.3,
      "velocity": 1,
      "hand": "right"
    },
    {
      "midi": 68,
      "time": 95.7,
      "duration": 0.3,
      "velocity": 1,
      "hand": "right"
    },
    {
      "midi": 77,
      "time": 95.7,
      "duration": 0.3,
      "velocity": 1,
      "hand": "right"
    },
    {
      "midi": 51,
      "time": 96,
      "duration": 0.585,
      "velocity": 1,
      "hand": "left"
    },
    {
      "midi": 66,
      "time": 96,
      "duration": 0.285,
      "velocity": 1,
      "hand": "right"
    },
    {
      "midi": 78,
      "time": 96,
      "duration": 3,
      "velocity": 1,
      "hand": "right"
    },
    {
      "midi": 58,
      "time": 96.3,
      "duration": 0.285,
      "velocity": 1,
      "hand": "left"
    },
    {
      "midi": 63,
      "time": 96.3,
      "duration": 0.285,
      "velocity": 1,
      "hand": "right"
    },
    {
      "midi": 66,
      "time": 96.3,
      "duration": 0.3,
      "velocity": 1,
      "hand": "right"
    },
    {
      "midi": 51,
      "time": 96.6,
      "duration": 0.6,
      "velocity": 1,
      "hand": "left"
    },
    {
      "midi": 58,
      "time": 96.6,
      "duration": 0.285,
      "velocity": 1,
      "hand": "left"
    },
    {
      "midi": 63,
      "time": 96.6,
      "duration": 0.285,
      "velocity": 1,
      "hand": "right"
    },
    {
      "midi": 58,
      "time": 96.9,
      "duration": 0.3,
      "velocity": 1,
      "hand": "left"
    },
    {
      "midi": 63,
      "time": 96.9,
      "duration": 0.3,
      "velocity": 1,
      "hand": "right"
    },
    {
      "midi": 66,
      "time": 96.9,
      "duration": 0.3,
      "velocity": 1,
      "hand": "right"
    },
    {
      "midi": 49,
      "time": 97.2,
      "duration": 1.2,
      "velocity": 1,
      "hand": "left"
    },
    {
      "midi": 64,
      "time": 97.2,
      "duration": 0.285,
      "velocity": 1,
      "hand": "right"
    },
    {
      "midi": 58,
      "time": 97.5,
      "duration": 0.585,
      "velocity": 1,
      "hand": "left"
    },
    {
      "midi": 64,
      "time": 97.5,
      "duration": 0.285,
      "velocity": 1,
      "hand": "right"
    },
    {
      "midi": 66,
      "time": 97.5,
      "duration": 0.3,
      "velocity": 1,
      "hand": "right"
    },
    {
      "midi": 64,
      "time": 97.8,
      "duration": 0.285,
      "velocity": 1,
      "hand": "right"
    },
    {
      "midi": 58,
      "time": 98.1,
      "duration": 0.3,
      "velocity": 1,
      "hand": "left"
    },
    {
      "midi": 64,
      "time": 98.1,
      "duration": 0.3,
      "velocity": 1,
      "hand": "right"
    },
    {
      "midi": 66,
      "time": 98.1,
      "duration": 0.3,
      "velocity": 1,
      "hand": "right"
    },
    {
      "midi": 47,
      "time": 98.4,
      "duration": 0.585,
      "velocity": 1,
      "hand": "left"
    },
    {
      "midi": 59,
      "time": 98.4,
      "duration": 0.285,
      "velocity": 1,
      "hand": "left"
    },
    {
      "midi": 63,
      "time": 98.4,
      "duration": 0.285,
      "velocity": 1,
      "hand": "right"
    },
    {
      "midi": 59,
      "time": 98.7,
      "duration": 0.585,
      "velocity": 1,
      "hand": "left"
    },
    {
      "midi": 63,
      "time": 98.7,
      "duration": 0.285,
      "velocity": 1,
      "hand": "right"
    },
    {
      "midi": 66,
      "time": 98.7,
      "duration": 0.285,
      "velocity": 1,
      "hand": "right"
    },
    {
      "midi": 47,
      "time": 99,
      "duration": 0.6,
      "velocity": 1,
      "hand": "left"
    },
    {
      "midi": 63,
      "time": 99,
      "duration": 0.285,
      "velocity": 1,
      "hand": "right"
    },
    {
      "midi": 66,
      "time": 99,
      "duration": 0.6,
      "velocity": 1,
      "hand": "right"
    },
    {
      "midi": 75,
      "time": 99,
      "duration": 0.285,
      "velocity": 1,
      "hand": "right"
    },
    {
      "midi": 59,
      "time": 99.3,
      "duration": 0.3,
      "velocity": 1,
      "hand": "left"
    },
    {
      "midi": 63,
      "time": 99.3,
      "duration": 0.285,
      "velocity": 1,
      "hand": "right"
    },
    {
      "midi": 75,
      "time": 99.3,
      "duration": 0.3,
      "velocity": 1,
      "hand": "right"
    },
    {
      "midi": 46,
      "time": 99.6,
      "duration": 0.6,
      "velocity": 1,
      "hand": "left"
    },
    {
      "midi": 63,
      "time": 99.6,
      "duration": 0.585,
      "velocity": 1,
      "hand": "right"
    },
    {
      "midi": 67,
      "time": 99.6,
      "duration": 0.6,
      "velocity": 1,
      "hand": "right"
    },
    {
      "midi": 73,
      "time": 99.6,
      "duration": 0.6,
      "velocity": 1,
      "hand": "right"
    },
    {
      "midi": 44,
      "time": 100.2,
      "duration": 0.6,
      "velocity": 1,
      "hand": "left"
    },
    {
      "midi": 63,
      "time": 100.2,
      "duration": 0.6,
      "velocity": 1,
      "hand": "right"
    },
    {
      "midi": 68,
      "time": 100.2,
      "duration": 0.6,
      "velocity": 1,
      "hand": "right"
    },
    {
      "midi": 71,
      "time": 100.2,
      "duration": 0.6,
      "velocity": 1,
      "hand": "right"
    },
    {
      "midi": 49,
      "time": 100.8,
      "duration": 1.185,
      "velocity": 1,
      "hand": "left"
    },
    {
      "midi": 61,
      "time": 100.8,
      "duration": 0.285,
      "velocity": 1,
      "hand": "right"
    },
    {
      "midi": 66,
      "time": 100.8,
      "duration": 0.285,
      "velocity": 1,
      "hand": "right"
    },
    {
      "midi": 70,
      "time": 100.8,
      "duration": 0.285,
      "velocity": 1,
      "hand": "right"
    },
    {
      "midi": 61,
      "time": 101.1,
      "duration": 0.585,
      "velocity": 1,
      "hand": "right"
    },
    {
      "midi": 66,
      "time": 101.1,
      "duration": 0.285,
      "velocity": 1,
      "hand": "right"
    },
    {
      "midi": 70,
      "time": 101.1,
      "duration": 0.3,
      "velocity": 1,
      "hand": "right"
    },
    {
      "midi": 66,
      "time": 101.4,
      "duration": 0.285,
      "velocity": 1,
      "hand": "right"
    },
    {
      "midi": 61,
      "time": 101.7,
      "duration": 0.3,
      "velocity": 1,
      "hand": "right"
    },
    {
      "midi": 66,
      "time": 101.7,
      "duration": 0.3,
      "velocity": 1,
      "hand": "right"
    },
    {
      "midi": 70,
      "time": 101.7,
      "duration": 0.3,
      "velocity": 1,
      "hand": "right"
    },
    {
      "midi": 49,
      "time": 102,
      "duration": 0.585,
      "velocity": 1,
      "hand": "left"
    },
    {
      "midi": 65,
      "time": 102,
      "duration": 0.3,
      "velocity": 1,
      "hand": "right"
    },
    {
      "midi": 73,
      "time": 102,
      "duration": 0.3,
      "velocity": 1,
      "hand": "right"
    },
    {
      "midi": 61,
      "time": 102.3,
      "duration": 0.285,
      "velocity": 1,
      "hand": "right"
    },
    {
      "midi": 68,
      "time": 102.3,
      "duration": 0.3,
      "velocity": 1,
      "hand": "right"
    },
    {
      "midi": 71,
      "time": 102.3,
      "duration": 0.3,
      "velocity": 1,
      "hand": "right"
    },
    {
      "midi": 49,
      "time": 102.6,
      "duration": 0.6,
      "velocity": 1,
      "hand": "left"
    },
    {
      "midi": 61,
      "time": 102.6,
      "duration": 0.285,
      "velocity": 1,
      "hand": "right"
    },
    {
      "midi": 66,
      "time": 102.6,
      "duration": 0.3,
      "velocity": 1,
      "hand": "right"
    },
    {
      "midi": 70,
      "time": 102.6,
      "duration": 0.3,
      "velocity": 1,
      "hand": "right"
    },
    {
      "midi": 61,
      "time": 102.9,
      "duration": 0.285,
      "velocity": 1,
      "hand": "right"
    },
    {
      "midi": 65,
      "time": 102.9,
      "duration": 0.3,
      "velocity": 1,
      "hand": "right"
    },
    {
      "midi": 71,
      "time": 102.9,
      "duration": 0.3,
      "velocity": 1,
      "hand": "right"
    },
    {
      "midi": 42,
      "time": 103.2,
      "duration": 0.6,
      "velocity": 1,
      "hand": "left"
    },
    {
      "midi": 54,
      "time": 103.2,
      "duration": 1.2,
      "velocity": 1,
      "hand": "left"
    },
    {
      "midi": 61,
      "time": 103.2,
      "duration": 0.285,
      "velocity": 1,
      "hand": "right"
    },
    {
      "midi": 66,
      "time": 103.2,
      "duration": 0.285,
      "velocity": 1,
      "hand": "right"
    },
    {
      "midi": 70,
      "time": 103.2,
      "duration": 0.285,
      "velocity": 1,
      "hand": "right"
    },
    {
      "midi": 61,
      "time": 103.5,
      "duration": 0.285,
      "velocity": 1,
      "hand": "right"
    },
    {
      "midi": 66,
      "time": 103.5,
      "duration": 0.285,
      "velocity": 1,
      "hand": "right"
    },
    {
      "midi": 70,
      "time": 103.5,
      "duration": 0.3,
      "velocity": 1,
      "hand": "right"
    },
    {
      "midi": 46,
      "time": 103.8,
      "duration": 0.6,
      "velocity": 1,
      "hand": "left"
    },
    {
      "midi": 58,
      "time": 103.8,
      "duration": 0.6,
      "velocity": 1,
      "hand": "left"
    },
    {
      "midi": 61,
      "time": 103.8,
      "duration": 0.285,
      "velocity": 1,
      "hand": "right"
    },
    {
      "midi": 66,
      "time": 103.8,
      "duration": 0.285,
      "velocity": 1,
      "hand": "right"
    },
    {
      "midi": 73,
      "time": 103.8,
      "duration": 0.585,
      "velocity": 1,
      "hand": "right"
    },
    {
      "midi": 61,
      "time": 104.1,
      "duration": 0.285,
      "velocity": 1,
      "hand": "right"
    },
    {
      "midi": 66,
      "time": 104.1,
      "duration": 0.3,
      "velocity": 1,
      "hand": "right"
    },
    {
      "midi": 78,
      "time": 104.1,
      "duration": 0.3,
      "velocity": 1,
      "hand": "right"
    },
    {
      "midi": 44,
      "time": 104.4,
      "duration": 0.6,
      "velocity": 1,
      "hand": "left"
    },
    {
      "midi": 56,
      "time": 104.4,
      "duration": 0.6,
      "velocity": 1,
      "hand": "left"
    },
    {
      "midi": 61,
      "time": 104.4,
      "duration": 0.585,
      "velocity": 1,
      "hand": "right"
    },
    {
      "midi": 63,
      "time": 104.4,
      "duration": 0.6,
      "velocity": 1,
      "hand": "right"
    },
    {
      "midi": 73,
      "time": 104.4,
      "duration": 0.6,
      "velocity": 1,
      "hand": "right"
    },
    {
      "midi": 71,
      "time": 104.7,
      "duration": 0.3,
      "velocity": 1,
      "hand": "right"
    },
    {
      "midi": 49,
      "time": 105,
      "duration": 0.6,
      "velocity": 1,
      "hand": "left"
    },
    {
      "midi": 61,
      "time": 105,
      "duration": 0.585,
      "velocity": 1,
      "hand": "right"
    },
    {
      "midi": 65,
      "time": 105,
      "duration": 0.6,
      "velocity": 1,
      "hand": "right"
    },
    {
      "midi": 75,
      "time": 105,
      "duration": 0.3,
      "velocity": 1,
      "hand": "right"
    },
    {
      "midi": 71,
      "time": 105.3,
      "duration": 0.3,
      "velocity": 1,
      "hand": "right"
    },
    {
      "midi": 42,
      "time": 105.6,
      "duration": 0.6,
      "velocity": 1,
      "hand": "left"
    },
    {
      "midi": 54,
      "time": 105.6,
      "duration": 1.785,
      "velocity": 1,
      "hand": "left"
    },
    {
      "midi": 61,
      "time": 105.6,
      "duration": 0.285,
      "velocity": 1,
      "hand": "right"
    },
    {
      "midi": 66,
      "time": 105.6,
      "duration": 0.285,
      "velocity": 1,
      "hand": "right"
    },
    {
      "midi": 70,
      "time": 105.6,
      "duration": 0.285,
      "velocity": 1,
      "hand": "right"
    },
    {
      "midi": 61,
      "time": 105.9,
      "duration": 0.585,
      "velocity": 1,
      "hand": "right"
    },
    {
      "midi": 66,
      "time": 105.9,
      "duration": 0.285,
      "velocity": 1,
      "hand": "right"
    },
    {
      "midi": 70,
      "time": 105.9,
      "duration": 0.3,
      "velocity": 1,
      "hand": "right"
    },
    {
      "midi": 66,
      "time": 106.2,
      "duration": 0.285,
      "velocity": 1,
      "hand": "right"
    },
    {
      "midi": 61,
      "time": 106.5,
      "duration": 0.3,
      "velocity": 1,
      "hand": "right"
    },
    {
      "midi": 66,
      "time": 106.5,
      "duration": 0.3,
      "velocity": 1,
      "hand": "right"
    },
    {
      "midi": 70,
      "time": 106.5,
      "duration": 0.3,
      "velocity": 1,
      "hand": "right"
    },
    {
      "midi": 42,
      "time": 106.8,
      "duration": 0.6,
      "velocity": 1,
      "hand": "left"
    },
    {
      "midi": 61,
      "time": 107.1,
      "duration": 0.285,
      "velocity": 1,
      "hand": "right"
    },
    {
      "midi": 66,
      "time": 107.1,
      "duration": 0.285,
      "velocity": 1,
      "hand": "right"
    },
    {
      "midi": 70,
      "time": 107.1,
      "duration": 0.285,
      "velocity": 1,
      "hand": "right"
    },
    {
      "midi": 54,
      "time": 107.4,
      "duration": 0.6,
      "velocity": 1,
      "hand": "left"
    },
    {
      "midi": 61,
      "time": 107.4,
      "duration": 0.285,
      "velocity": 1,
      "hand": "right"
    },
    {
      "midi": 66,
      "time": 107.4,
      "duration": 0.285,
      "velocity": 1,
      "hand": "right"
    },
    {
      "midi": 70,
      "time": 107.4,
      "duration": 0.285,
      "velocity": 1,
      "hand": "right"
    },
    {
      "midi": 61,
      "time": 107.7,
      "duration": 0.285,
      "velocity": 1,
      "hand": "right"
    },
    {
      "midi": 66,
      "time": 107.7,
      "duration": 0.3,
      "velocity": 1,
      "hand": "right"
    },
    {
      "midi": 70,
      "time": 107.7,
      "duration": 0.3,
      "velocity": 1,
      "hand": "right"
    },
    {
      "midi": 44,
      "time": 108,
      "duration": 0.6,
      "velocity": 1,
      "hand": "left"
    },
    {
      "midi": 56,
      "time": 108,
      "duration": 1.185,
      "velocity": 1,
      "hand": "left"
    },
    {
      "midi": 61,
      "time": 108,
      "duration": 0.285,
      "velocity": 1,
      "hand": "right"
    },
    {
      "midi": 65,
      "time": 108,
      "duration": 0.285,
      "velocity": 1,
      "hand": "right"
    },
    {
      "midi": 73,
      "time": 108,
      "duration": 0.285,
      "velocity": 1,
      "hand": "right"
    },
    {
      "midi": 61,
      "time": 108.3,
      "duration": 0.585,
      "velocity": 1,
      "hand": "right"
    },
    {
      "midi": 65,
      "time": 108.3,
      "duration": 0.285,
      "velocity": 1,
      "hand": "right"
    },
    {
      "midi": 73,
      "time": 108.3,
      "duration": 0.3,
      "velocity": 1,
      "hand": "right"
    },
    {
      "midi": 65,
      "time": 108.6,
      "duration": 0.285,
      "velocity": 1,
      "hand": "right"
    },
    {
      "midi": 61,
      "time": 108.9,
      "duration": 0.285,
      "velocity": 1,
      "hand": "right"
    },
    {
      "midi": 65,
      "time": 108.9,
      "duration": 0.285,
      "velocity": 1,
      "hand": "right"
    },
    {
      "midi": 73,
      "time": 108.9,
      "duration": 0.285,
      "velocity": 1,
      "hand": "right"
    },
    {
      "midi": 44,
      "time": 109.2,
      "duration": 0.6,
      "velocity": 1,
      "hand": "left"
    },
    {
      "midi": 56,
      "time": 109.2,
      "duration": 1.2,
      "velocity": 1,
      "hand": "left"
    },
    {
      "midi": 61,
      "time": 109.2,
      "duration": 0.285,
      "velocity": 1,
      "hand": "right"
    },
    {
      "midi": 65,
      "time": 109.2,
      "duration": 0.285,
      "velocity": 1,
      "hand": "right"
    },
    {
      "midi": 71,
      "time": 109.2,
      "duration": 0.285,
      "velocity": 1,
      "hand": "right"
    },
    {
      "midi": 73,
      "time": 109.2,
      "duration": 0.3,
      "velocity": 1,
      "hand": "right"
    },
    {
      "midi": 61,
      "time": 109.5,
      "duration": 0.585,
      "velocity": 1,
      "hand": "right"
    },
    {
      "midi": 65,
      "time": 109.5,
      "duration": 0.285,
      "velocity": 1,
      "hand": "right"
    },
    {
      "midi": 71,
      "time": 109.5,
      "duration": 0.3,
      "velocity": 1,
      "hand": "right"
    },
    {
      "midi": 80,
      "time": 109.5,
      "duration": 0.3,
      "velocity": 1,
      "hand": "right"
    },
    {
      "midi": 65,
      "time": 109.8,
      "duration": 0.285,
      "velocity": 1,
      "hand": "right"
    },
    {
      "midi": 77,
      "time": 109.8,
      "duration": 0.3,
      "velocity": 1,
      "hand": "right"
    },
    {
      "midi": 61,
      "time": 110.1,
      "duration": 0.285,
      "velocity": 1,
      "hand": "right"
    },
    {
      "midi": 65,
      "time": 110.1,
      "duration": 0.3,
      "velocity": 1,
      "hand": "right"
    },
    {
      "midi": 71,
      "time": 110.1,
      "duration": 0.3,
      "velocity": 1,
      "hand": "right"
    },
    {
      "midi": 42,
      "time": 110.4,
      "duration": 0.6,
      "velocity": 1,
      "hand": "left"
    },
    {
      "midi": 54,
      "time": 110.4,
      "duration": 1.785,
      "velocity": 1,
      "hand": "left"
    },
    {
      "midi": 61,
      "time": 110.4,
      "duration": 0.285,
      "velocity": 1,
      "hand": "right"
    },
    {
      "midi": 66,
      "time": 110.4,
      "duration": 0.285,
      "velocity": 1,
      "hand": "right"
    },
    {
      "midi": 70,
      "time": 110.4,
      "duration": 0.285,
      "velocity": 1,
      "hand": "right"
    },
    {
      "midi": 61,
      "time": 110.7,
      "duration": 0.585,
      "velocity": 1,
      "hand": "right"
    },
    {
      "midi": 66,
      "time": 110.7,
      "duration": 0.285,
      "velocity": 1,
      "hand": "right"
    },
    {
      "midi": 70,
      "time": 110.7,
      "duration": 0.3,
      "velocity": 1,
      "hand": "right"
    },
    {
      "midi": 66,
      "time": 111,
      "duration": 0.285,
      "velocity": 1,
      "hand": "right"
    },
    {
      "midi": 61,
      "time": 111.3,
      "duration": 0.3,
      "velocity": 1,
      "hand": "right"
    },
    {
      "midi": 66,
      "time": 111.3,
      "duration": 0.3,
      "velocity": 1,
      "hand": "right"
    },
    {
      "midi": 70,
      "time": 111.3,
      "duration": 0.3,
      "velocity": 1,
      "hand": "right"
    },
    {
      "midi": 42,
      "time": 111.6,
      "duration": 0.6,
      "velocity": 1,
      "hand": "left"
    },
    {
      "midi": 58,
      "time": 111.9,
      "duration": 0.285,
      "velocity": 1,
      "hand": "left"
    },
    {
      "midi": 66,
      "time": 111.9,
      "duration": 0.285,
      "velocity": 1,
      "hand": "right"
    },
    {
      "midi": 70,
      "time": 111.9,
      "duration": 0.285,
      "velocity": 1,
      "hand": "right"
    },
    {
      "midi": 54,
      "time": 112.2,
      "duration": 0.6,
      "velocity": 1,
      "hand": "left"
    },
    {
      "midi": 58,
      "time": 112.2,
      "duration": 0.285,
      "velocity": 1,
      "hand": "left"
    },
    {
      "midi": 66,
      "time": 112.2,
      "duration": 0.285,
      "velocity": 1,
      "hand": "right"
    },
    {
      "midi": 70,
      "time": 112.2,
      "duration": 0.285,
      "velocity": 1,
      "hand": "right"
    },
    {
      "midi": 58,
      "time": 112.5,
      "duration": 0.3,
      "velocity": 1,
      "hand": "left"
    },
    {
      "midi": 66,
      "time": 112.5,
      "duration": 0.3,
      "velocity": 1,
      "hand": "right"
    },
    {
      "midi": 70,
      "time": 112.5,
      "duration": 0.3,
      "velocity": 1,
      "hand": "right"
    },
    {
      "midi": 41,
      "time": 112.8,
      "duration": 0.6,
      "velocity": 1,
      "hand": "left"
    },
    {
      "midi": 53,
      "time": 112.8,
      "duration": 1.185,
      "velocity": 1,
      "hand": "left"
    },
    {
      "midi": 68,
      "time": 112.8,
      "duration": 0.285,
      "velocity": 1,
      "hand": "right"
    },
    {
      "midi": 75,
      "time": 112.8,
      "duration": 0.285,
      "velocity": 1,
      "hand": "right"
    },
    {
      "midi": 59,
      "time": 113.1,
      "duration": 0.585,
      "velocity": 1,
      "hand": "left"
    },
    {
      "midi": 68,
      "time": 113.1,
      "duration": 0.285,
      "velocity": 1,
      "hand": "right"
    },
    {
      "midi": 75,
      "time": 113.1,
      "duration": 0.3,
      "velocity": 1,
      "hand": "right"
    },
    {
      "midi": 63,
      "time": 113.4,
      "duration": 0.3,
      "velocity": 1,
      "hand": "right"
    },
    {
      "midi": 68,
      "time": 113.4,
      "duration": 0.285,
      "velocity": 1,
      "hand": "right"
    },
    {
      "midi": 59,
      "time": 113.7,
      "duration": 0.3,
      "velocity": 1,
      "hand": "left"
    },
    {
      "midi": 68,
      "time": 113.7,
      "duration": 0.285,
      "velocity": 1,
      "hand": "right"
    },
    {
      "midi": 75,
      "time": 113.7,
      "duration": 0.3,
      "velocity": 1,
      "hand": "right"
    },
    {
      "midi": 53,
      "time": 114,
      "duration": 1.2,
      "velocity": 1,
      "hand": "left"
    },
    {
      "midi": 58,
      "time": 114,
      "duration": 0.285,
      "velocity": 1,
      "hand": "left"
    },
    {
      "midi": 68,
      "time": 114,
      "duration": 0.285,
      "velocity": 1,
      "hand": "right"
    },
    {
      "midi": 74,
      "time": 114,
      "duration": 0.285,
      "velocity": 1,
      "hand": "right"
    },
    {
      "midi": 58,
      "time": 114.3,
      "duration": 0.585,
      "velocity": 1,
      "hand": "left"
    },
    {
      "midi": 68,
      "time": 114.3,
      "duration": 0.285,
      "velocity": 1,
      "hand": "right"
    },
    {
      "midi": 74,
      "time": 114.3,
      "duration": 0.3,
      "velocity": 1,
      "hand": "right"
    },
    {
      "midi": 77,
      "time": 114.3,
      "duration": 0.3,
      "velocity": 1,
      "hand": "right"
    },
    {
      "midi": 62,
      "time": 114.6,
      "duration": 0.3,
      "velocity": 1,
      "hand": "right"
    },
    {
      "midi": 68,
      "time": 114.6,
      "duration": 0.285,
      "velocity": 1,
      "hand": "right"
    },
    {
      "midi": 80,
      "time": 114.6,
      "duration": 0.3,
      "velocity": 1,
      "hand": "right"
    },
    {
      "midi": 58,
      "time": 114.9,
      "duration": 0.3,
      "velocity": 1,
      "hand": "left"
    },
    {
      "midi": 68,
      "time": 114.9,
      "duration": 0.3,
      "velocity": 1,
      "hand": "right"
    },
    {
      "midi": 74,
      "time": 114.9,
      "duration": 0.3,
      "velocity": 1,
      "hand": "right"
    },
    {
      "midi": 55,
      "time": 115.2,
      "duration": 0.6,
      "velocity": 1,
      "hand": "left"
    },
    {
      "midi": 63,
      "time": 115.2,
      "duration": 0.585,
      "velocity": 1,
      "hand": "right"
    },
    {
      "midi": 75,
      "time": 115.2,
      "duration": 0.285,
      "velocity": 1,
      "hand": "right"
    },
    {
      "midi": 58,
      "time": 115.5,
      "duration": 0.585,
      "velocity": 1,
      "hand": "left"
    },
    {
      "midi": 67,
      "time": 115.5,
      "duration": 0.3,
      "velocity": 1,
      "hand": "right"
    },
    {
      "midi": 75,
      "time": 115.5,
      "duration": 0.3,
      "velocity": 1,
      "hand": "right"
    },
    {
      "midi": 63,
      "time": 115.8,
      "duration": 0.3,
      "velocity": 1,
      "hand": "right"
    },
    {
      "midi": 70,
      "time": 115.8,
      "duration": 0.285,
      "velocity": 1,
      "hand": "right"
    },
    {
      "midi": 58,
      "time": 116.1,
      "duration": 0.3,
      "velocity": 1,
      "hand": "left"
    },
    {
      "midi": 70,
      "time": 116.1,
      "duration": 0.285,
      "velocity": 1,
      "hand": "right"
    },
    {
      "midi": 75,
      "time": 116.1,
      "duration": 0.3,
      "velocity": 1,
      "hand": "right"
    },
    {
      "midi": 55,
      "time": 116.4,
      "duration": 1.2,
      "velocity": 1,
      "hand": "left"
    },
    {
      "midi": 63,
      "time": 116.4,
      "duration": 0.285,
      "velocity": 1,
      "hand": "right"
    },
    {
      "midi": 70,
      "time": 116.4,
      "duration": 0.285,
      "velocity": 1,
      "hand": "right"
    },
    {
      "midi": 63,
      "time": 116.7,
      "duration": 0.585,
      "velocity": 1,
      "hand": "right"
    },
    {
      "midi": 70,
      "time": 116.7,
      "duration": 0.285,
      "velocity": 1,
      "hand": "right"
    },
    {
      "midi": 75,
      "time": 116.7,
      "duration": 0.3,
      "velocity": 1,
      "hand": "right"
    },
    {
      "midi": 70,
      "time": 117,
      "duration": 0.285,
      "velocity": 1,
      "hand": "right"
    },
    {
      "midi": 63,
      "time": 117.3,
      "duration": 0.285,
      "velocity": 1,
      "hand": "right"
    },
    {
      "midi": 70,
      "time": 117.3,
      "duration": 0.3,
      "velocity": 1,
      "hand": "right"
    },
    {
      "midi": 75,
      "time": 117.3,
      "duration": 0.285,
      "velocity": 1,
      "hand": "right"
    },
    {
      "midi": 56,
      "time": 117.6,
      "duration": 0.585,
      "velocity": 1,
      "hand": "left"
    },
    {
      "midi": 63,
      "time": 117.6,
      "duration": 0.6,
      "velocity": 1,
      "hand": "right"
    },
    {
      "midi": 72,
      "time": 117.6,
      "duration": 0.285,
      "velocity": 1,
      "hand": "right"
    },
    {
      "midi": 75,
      "time": 117.6,
      "duration": 0.285,
      "velocity": 1,
      "hand": "right"
    },
    {
      "midi": 72,
      "time": 117.9,
      "duration": 0.3,
      "velocity": 1,
      "hand": "right"
    },
    {
      "midi": 75,
      "time": 117.9,
      "duration": 0.3,
      "velocity": 1,
      "hand": "right"
    },
    {
      "midi": 56,
      "time": 118.2,
      "duration": 0.585,
      "velocity": 1,
      "hand": "left"
    },
    {
      "midi": 65,
      "time": 118.2,
      "duration": 0.6,
      "velocity": 1,
      "hand": "right"
    },
    {
      "midi": 71,
      "time": 118.2,
      "duration": 0.285,
      "velocity": 1,
      "hand": "right"
    },
    {
      "midi": 74,
      "time": 118.2,
      "duration": 0.285,
      "velocity": 1,
      "hand": "right"
    },
    {
      "midi": 77,
      "time": 118.2,
      "duration": 0.6,
      "velocity": 1,
      "hand": "right"
    },
    {
      "midi": 71,
      "time": 118.5,
      "duration": 0.3,
      "velocity": 1,
      "hand": "right"
    },
    {
      "midi": 74,
      "time": 118.5,
      "duration": 0.3,
      "velocity": 1,
      "hand": "right"
    },
    {
      "midi": 56,
      "time": 118.8,
      "duration": 0.585,
      "velocity": 1,
      "hand": "left"
    },
    {
      "midi": 63,
      "time": 118.8,
      "duration": 0.6,
      "velocity": 1,
      "hand": "right"
    },
    {
      "midi": 72,
      "time": 118.8,
      "duration": 0.585,
      "velocity": 1,
      "hand": "right"
    },
    {
      "midi": 75,
      "time": 118.8,
      "duration": 0.6,
      "velocity": 1,
      "hand": "right"
    },
    {
      "midi": 65,
      "time": 119.1,
      "duration": 0.3,
      "velocity": 1,
      "hand": "right"
    },
    {
      "midi": 68,
      "time": 119.1,
      "duration": 0.285,
      "velocity": 1,
      "hand": "right"
    },
    {
      "midi": 56,
      "time": 119.4,
      "duration": 0.6,
      "velocity": 1,
      "hand": "left"
    },
    {
      "midi": 68,
      "time": 119.4,
      "duration": 0.6,
      "velocity": 1,
      "hand": "right"
    },
    {
      "midi": 72,
      "time": 119.4,
      "duration": 0.285,
      "velocity": 1,
      "hand": "right"
    },
    {
      "midi": 77,
      "time": 119.4,
      "duration": 0.285,
      "velocity": 1,
      "hand": "right"
    },
    {
      "midi": 80,
      "time": 119.4,
      "duration": 0.6,
      "velocity": 1,
      "hand": "right"
    },
    {
      "midi": 72,
      "time": 119.7,
      "duration": 0.3,
      "velocity": 1,
      "hand": "right"
    },
    {
      "midi": 77,
      "time": 119.7,
      "duration": 0.3,
      "velocity": 1,
      "hand": "right"
    },
    {
      "midi": 58,
      "time": 120,
      "duration": 0.285,
      "velocity": 1,
      "hand": "left"
    },
    {
      "midi": 63,
      "time": 120,
      "duration": 1.2,
      "velocity": 1,
      "hand": "right"
    },
    {
      "midi": 67,
      "time": 120,
      "duration": 0.285,
      "velocity": 1,
      "hand": "right"
    },
    {
      "midi": 75,
      "time": 120,
      "duration": 0.885,
      "velocity": 1,
      "hand": "right"
    },
    {
      "midi": 79,
      "time": 120,
      "duration": 1.2,
      "velocity": 1,
      "hand": "right"
    },
    {
      "midi": 58,
      "time": 120.3,
      "duration": 0.3,
      "velocity": 1,
      "hand": "left"
    },
    {
      "midi": 67,
      "time": 120.3,
      "duration": 0.285,
      "velocity": 1,
      "hand": "right"
    },
    {
      "midi": 67,
      "time": 120.6,
      "duration": 0.3,
      "velocity": 1,
      "hand": "right"
    },
    {
      "midi": 70,
      "time": 120.6,
      "duration": 0.285,
      "velocity": 1,
      "hand": "right"
    },
    {
      "midi": 70,
      "time": 120.9,
      "duration": 0.285,
      "velocity": 1,
      "hand": "right"
    },
    {
      "midi": 75,
      "time": 120.9,
      "duration": 0.285,
      "velocity": 1,
      "hand": "right"
    },
    {
      "midi": 46,
      "time": 121.2,
      "duration": 1.2,
      "velocity": 1,
      "hand": "left"
    },
    {
      "midi": 68,
      "time": 121.2,
      "duration": 1.2,
      "velocity": 1,
      "hand": "right"
    },
    {
      "midi": 70,
      "time": 121.2,
      "duration": 1.2,
      "velocity": 1,
      "hand": "right"
    },
    {
      "midi": 75,
      "time": 121.2,
      "duration": 0.3,
      "velocity": 1,
      "hand": "right"
    },
    {
      "midi": 77,
      "time": 121.2,
      "duration": 1.2,
      "velocity": 1,
      "hand": "right"
    },
    {
      "midi": 74,
      "time": 121.5,
      "duration": 0.3,
      "velocity": 1,
      "hand": "right"
    },
    {
      "midi": 72,
      "time": 121.8,
      "duration": 0.3,
      "velocity": 1,
      "hand": "right"
    },
    {
      "midi": 74,
      "time": 122.1,
      "duration": 0.3,
      "velocity": 1,
      "hand": "right"
    },
    {
      "midi": 51,
      "time": 122.4,
      "duration": 0.585,
      "velocity": 1,
      "hand": "left"
    },
    {
      "midi": 63,
      "time": 122.4,
      "duration": 0.585,
      "velocity": 1,
      "hand": "right"
    },
    {
      "midi": 67,
      "time": 122.4,
      "duration": 0.585,
      "velocity": 1,
      "hand": "right"
    },
    {
      "midi": 75,
      "time": 122.4,
      "duration": 1.2,
      "velocity": 1,
      "hand": "right"
    },
    {
      "midi": 51,
      "time": 123,
      "duration": 0.6,
      "velocity": 1,
      "hand": "left"
    },
    {
      "midi": 63,
      "time": 123,
      "duration": 0.6,
      "velocity": 1,
      "hand": "right"
    },
    {
      "midi": 67,
      "time": 123,
      "duration": 0.585,
      "velocity": 1,
      "hand": "right"
    },
    {
      "midi": 79,
      "time": 123,
      "duration": 0.585,
      "velocity": 1,
      "hand": "right"
    },
    {
      "midi": 50,
      "time": 123.6,
      "duration": 0.6,
      "velocity": 1,
      "hand": "left"
    },
    {
      "midi": 62,
      "time": 123.6,
      "duration": 0.6,
      "velocity": 1,
      "hand": "right"
    },
    {
      "midi": 67,
      "time": 123.6,
      "duration": 0.585,
      "velocity": 1,
      "hand": "right"
    },
    {
      "midi": 79,
      "time": 123.6,
      "duration": 0.585,
      "velocity": 1,
      "hand": "right"
    },
    {
      "midi": 48,
      "time": 124.2,
      "duration": 0.6,
      "velocity": 1,
      "hand": "left"
    },
    {
      "midi": 60,
      "time": 124.2,
      "duration": 0.6,
      "velocity": 1,
      "hand": "right"
    },
    {
      "midi": 67,
      "time": 124.2,
      "duration": 0.585,
      "velocity": 1,
      "hand": "right"
    },
    {
      "midi": 79,
      "time": 124.2,
      "duration": 0.585,
      "velocity": 1,
      "hand": "right"
    },
    {
      "midi": 47,
      "time": 124.8,
      "duration": 1.2,
      "velocity": 1,
      "hand": "left"
    },
    {
      "midi": 59,
      "time": 124.8,
      "duration": 0.3,
      "velocity": 1,
      "hand": "left"
    },
    {
      "midi": 67,
      "time": 124.8,
      "duration": 0.585,
      "velocity": 1,
      "hand": "right"
    },
    {
      "midi": 79,
      "time": 124.8,
      "duration": 1.185,
      "velocity": 1,
      "hand": "right"
    },
    {
      "midi": 55,
      "time": 125.1,
      "duration": 0.585,
      "velocity": 1,
      "hand": "left"
    },
    {
      "midi": 62,
      "time": 125.1,
      "duration": 0.585,
      "velocity": 1,
      "hand": "right"
    },
    {
      "midi": 67,
      "time": 125.4,
      "duration": 0.3,
      "velocity": 1,
      "hand": "right"
    },
    {
      "midi": 55,
      "time": 125.7,
      "duration": 0.285,
      "velocity": 1,
      "hand": "left"
    },
    {
      "midi": 62,
      "time": 125.7,
      "duration": 0.285,
      "velocity": 1,
      "hand": "right"
    },
    {
      "midi": 55,
      "time": 126,
      "duration": 1.785,
      "velocity": 1,
      "hand": "left"
    },
    {
      "midi": 59,
      "time": 126,
      "duration": 1.8,
      "velocity": 1,
      "hand": "left"
    },
    {
      "midi": 62,
      "time": 126,
      "duration": 1.785,
      "velocity": 1,
      "hand": "right"
    },
    {
      "midi": 67,
      "time": 126,
      "duration": 1.785,
      "velocity": 1,
      "hand": "right"
    },
    {
      "midi": 74,
      "time": 126,
      "duration": 0.585,
      "velocity": 1,
      "hand": "right"
    },
    {
      "midi": 79,
      "time": 126,
      "duration": 1.185,
      "velocity": 1,
      "hand": "right"
    },
    {
      "midi": 71,
      "time": 126.3,
      "duration": 0.3,
      "velocity": 1,
      "hand": "right"
    },
    {
      "midi": 74,
      "time": 126.6,
      "duration": 0.3,
      "velocity": 1,
      "hand": "right"
    },
    {
      "midi": 78,
      "time": 126.9,
      "duration": 0.3,
      "velocity": 1,
      "hand": "right"
    },
    {
      "midi": 79,
      "time": 127.2,
      "duration": 0.3,
      "velocity": 1,
      "hand": "right"
    },
    {
      "midi": 74,
      "time": 127.5,
      "duration": 0.3,
      "velocity": 1,
      "hand": "right"
    },
    {
      "midi": 55,
      "time": 127.8,
      "duration": 0.6,
      "velocity": 1,
      "hand": "left"
    },
    {
      "midi": 67,
      "time": 127.8,
      "duration": 0.6,
      "velocity": 1,
      "hand": "right"
    },
    {
      "midi": 71,
      "time": 127.8,
      "duration": 0.6,
      "velocity": 1,
      "hand": "right"
    },
    {
      "midi": 77,
      "time": 127.8,
      "duration": 0.285,
      "velocity": 1,
      "hand": "right"
    },
    {
      "midi": 79,
      "time": 127.8,
      "duration": 0.6,
      "velocity": 1,
      "hand": "right"
    },
    {
      "midi": 77,
      "time": 128.1,
      "duration": 0.3,
      "velocity": 1,
      "hand": "right"
    },
    {
      "midi": 56,
      "time": 128.4,
      "duration": 0.6,
      "velocity": 1,
      "hand": "left"
    },
    {
      "midi": 60,
      "time": 128.4,
      "duration": 0.585,
      "velocity": 1,
      "hand": "right"
    },
    {
      "midi": 63,
      "time": 128.4,
      "duration": 0.6,
      "velocity": 1,
      "hand": "right"
    },
    {
      "midi": 72,
      "time": 128.4,
      "duration": 0.585,
      "velocity": 1,
      "hand": "right"
    },
    {
      "midi": 75,
      "time": 128.4,
      "duration": 0.6,
      "velocity": 1,
      "hand": "right"
    },
    {
      "midi": 74,
      "time": 128.7,
      "duration": 0.3,
      "velocity": 1,
      "hand": "right"
    },
    {
      "midi": 57,
      "time": 129,
      "duration": 0.6,
      "velocity": 1,
      "hand": "left"
    },
    {
      "midi": 60,
      "time": 129,
      "duration": 0.6,
      "velocity": 1,
      "hand": "right"
    },
    {
      "midi": 65,
      "time": 129,
      "duration": 0.6,
      "velocity": 1,
      "hand": "right"
    },
    {
      "midi": 72,
      "time": 129,
      "duration": 0.6,
      "velocity": 1,
      "hand": "right"
    },
    {
      "midi": 77,
      "time": 129,
      "duration": 0.285,
      "velocity": 1,
      "hand": "right"
    },
    {
      "midi": 68,
      "time": 129.3,
      "duration": 0.3,
      "velocity": 1,
      "hand": "right"
    },
    {
      "midi": 77,
      "time": 129.3,
      "duration": 0.3,
      "velocity": 1,
      "hand": "right"
    },
    {
      "midi": 39,
      "time": 129.6,
      "duration": 0.6,
      "velocity": 1,
      "hand": "left"
    },
    {
      "midi": 58,
      "time": 129.6,
      "duration": 0.285,
      "velocity": 1,
      "hand": "left"
    },
    {
      "midi": 67,
      "time": 129.6,
      "duration": 0.285,
      "velocity": 1,
      "hand": "right"
    },
    {
      "midi": 70,
      "time": 129.6,
      "duration": 0.585,
      "velocity": 1,
      "hand": "right"
    },
    {
      "midi": 75,
      "time": 129.6,
      "duration": 0.885,
      "velocity": 1,
      "hand": "right"
    },
    {
      "midi": 79,
      "time": 129.6,
      "duration": 1.2,
      "velocity": 1,
      "hand": "right"
    },
    {
      "midi": 58,
      "time": 129.9,
      "duration": 0.3,
      "velocity": 1,
      "hand": "left"
    },
    {
      "midi": 67,
      "time": 129.9,
      "duration": 0.285,
      "velocity": 1,
      "hand": "right"
    },
    {
      "midi": 67,
      "time": 130.2,
      "duration": 0.3,
      "velocity": 1,
      "hand": "right"
    },
    {
      "midi": 70,
      "time": 130.2,
      "duration": 0.285,
      "velocity": 1,
      "hand": "right"
    },
    {
      "midi": 70,
      "time": 130.5,
      "duration": 0.285,
      "velocity": 1,
      "hand": "right"
    },
    {
      "midi": 75,
      "time": 130.5,
      "duration": 0.285,
      "velocity": 1,
      "hand": "right"
    },
    {
      "midi": 39,
      "time": 130.8,
      "duration": 0.6,
      "velocity": 1,
      "hand": "left"
    },
    {
      "midi": 46,
      "time": 130.8,
      "duration": 1.2,
      "velocity": 1,
      "hand": "left"
    },
    {
      "midi": 68,
      "time": 130.8,
      "duration": 1.2,
      "velocity": 1,
      "hand": "right"
    },
    {
      "midi": 70,
      "time": 130.8,
      "duration": 1.2,
      "velocity": 1,
      "hand": "right"
    },
    {
      "midi": 75,
      "time": 130.8,
      "duration": 0.3,
      "velocity": 1,
      "hand": "right"
    },
    {
      "midi": 77,
      "time": 130.8,
      "duration": 1.2,
      "velocity": 1,
      "hand": "right"
    },
    {
      "midi": 74,
      "time": 131.1,
      "duration": 0.3,
      "velocity": 1,
      "hand": "right"
    },
    {
      "midi": 72,
      "time": 131.4,
      "duration": 0.3,
      "velocity": 1,
      "hand": "right"
    },
    {
      "midi": 74,
      "time": 131.7,
      "duration": 0.3,
      "velocity": 1,
      "hand": "right"
    },
    {
      "midi": 44,
      "time": 132,
      "duration": 0.585,
      "velocity": 1,
      "hand": "left"
    },
    {
      "midi": 51,
      "time": 132,
      "duration": 2.385,
      "velocity": 1,
      "hand": "left"
    },
    {
      "midi": 63,
      "time": 132,
      "duration": 0.585,
      "velocity": 1,
      "hand": "right"
    },
    {
      "midi": 67,
      "time": 132,
      "duration": 0.585,
      "velocity": 1,
      "hand": "right"
    },
    {
      "midi": 75,
      "time": 132,
      "duration": 2.4,
      "velocity": 1,
      "hand": "right"
    },
    {
      "midi": 70,
      "time": 132.3,
      "duration": 0.3,
      "velocity": 1,
      "hand": "right"
    },
    {
      "midi": 44,
      "time": 132.6,
      "duration": 0.3,
      "velocity": 1,
      "hand": "left"
    },
    {
      "midi": 63,
      "time": 132.6,
      "duration": 0.3,
      "velocity": 1,
      "hand": "right"
    },
    {
      "midi": 67,
      "time": 132.6,
      "duration": 0.3,
      "velocity": 1,
      "hand": "right"
    },
    {
      "midi": 58,
      "time": 132.9,
      "duration": 0.3,
      "velocity": 1,
      "hand": "left"
    },
    {
      "midi": 70,
      "time": 132.9,
      "duration": 0.3,
      "velocity": 1,
      "hand": "right"
    },
    {
      "midi": 44,
      "time": 133.2,
      "duration": 0.585,
      "velocity": 1,
      "hand": "left"
    },
    {
      "midi": 55,
      "time": 133.2,
      "duration": 0.3,
      "velocity": 1,
      "hand": "left"
    },
    {
      "midi": 63,
      "time": 133.2,
      "duration": 0.285,
      "velocity": 1,
      "hand": "right"
    },
    {
      "midi": 67,
      "time": 133.2,
      "duration": 0.3,
      "velocity": 1,
      "hand": "right"
    },
    {
      "midi": 58,
      "time": 133.5,
      "duration": 0.285,
      "velocity": 1,
      "hand": "left"
    },
    {
      "midi": 63,
      "time": 133.5,
      "duration": 0.285,
      "velocity": 1,
      "hand": "right"
    },
    {
      "midi": 44,
      "time": 133.8,
      "duration": 0.585,
      "velocity": 1,
      "hand": "left"
    },
    {
      "midi": 58,
      "time": 133.8,
      "duration": 0.285,
      "velocity": 1,
      "hand": "left"
    },
    {
      "midi": 63,
      "time": 133.8,
      "duration": 0.585,
      "velocity": 1,
      "hand": "right"
    },
    {
      "midi": 55,
      "time": 134.1,
      "duration": 0.285,
      "velocity": 1,
      "hand": "left"
    },
    {
      "midi": 58,
      "time": 134.1,
      "duration": 0.3,
      "velocity": 1,
      "hand": "left"
    },
    {
      "midi": 39,
      "time": 134.4,
      "duration": 1.785,
      "velocity": 1,
      "hand": "left"
    },
    {
      "midi": 44,
      "time": 134.4,
      "duration": 1.2,
      "velocity": 1,
      "hand": "left"
    },
    {
      "midi": 63,
      "time": 134.4,
      "duration": 1.2,
      "velocity": 1,
      "hand": "right"
    },
    {
      "midi": 39,
      "time": 136.2,
      "duration": 0.585,
      "velocity": 1,
      "hand": "left"
    },
    {
      "midi": 51,
      "time": 136.2,
      "duration": 0.585,
      "velocity": 1,
      "hand": "left"
    },
    {
      "midi": 39,
      "time": 136.8,
      "duration": 1.185,
      "velocity": 1,
      "hand": "left"
    },
    {
      "midi": 51,
      "time": 136.8,
      "duration": 1.185,
      "velocity": 1,
      "hand": "left"
    },
    {
      "midi": 39,
      "time": 138,
      "duration": 1.185,
      "velocity": 1,
      "hand": "left"
    },
    {
      "midi": 51,
      "time": 138,
      "duration": 1.185,
      "velocity": 1,
      "hand": "left"
    },
    {
      "midi": 39,
      "time": 139.2,
      "duration": 3.585,
      "velocity": 1,
      "hand": "left"
    },
    {
      "midi": 44,
      "time": 139.2,
      "duration": 0.15,
      "velocity": 1,
      "hand": "left"
    },
    {
      "midi": 63,
      "time": 139.2,
      "duration": 1.785,
      "velocity": 1,
      "hand": "right"
    },
    {
      "midi": 44,
      "time": 139.5,
      "duration": 0.15,
      "velocity": 1,
      "hand": "left"
    },
    {
      "midi": 44,
      "time": 139.8,
      "duration": 0.15,
      "velocity": 1,
      "hand": "left"
    },
    {
      "midi": 44,
      "time": 140.1,
      "duration": 0.15,
      "velocity": 1,
      "hand": "left"
    },
    {
      "midi": 44,
      "time": 140.4,
      "duration": 0.15,
      "velocity": 1,
      "hand": "left"
    },
    {
      "midi": 44,
      "time": 140.7,
      "duration": 0.15,
      "velocity": 1,
      "hand": "left"
    },
    {
      "midi": 44,
      "time": 141,
      "duration": 0.15,
      "velocity": 1,
      "hand": "left"
    },
    {
      "midi": 51,
      "time": 141,
      "duration": 0.585,
      "velocity": 1,
      "hand": "left"
    },
    {
      "midi": 63,
      "time": 141,
      "duration": 0.585,
      "velocity": 1,
      "hand": "right"
    },
    {
      "midi": 44,
      "time": 141.3,
      "duration": 0.15,
      "velocity": 1,
      "hand": "left"
    },
    {
      "midi": 44,
      "time": 141.6,
      "duration": 0.6,
      "velocity": 1,
      "hand": "left"
    },
    {
      "midi": 46,
      "time": 141.6,
      "duration": 2.4,
      "velocity": 1,
      "hand": "left"
    },
    {
      "midi": 63,
      "time": 141.6,
      "duration": 1.185,
      "velocity": 1,
      "hand": "right"
    },
    {
      "midi": 39,
      "time": 142.8,
      "duration": 0.6,
      "velocity": 1,
      "hand": "left"
    },
    {
      "midi": 51,
      "time": 142.8,
      "duration": 1.185,
      "velocity": 1,
      "hand": "left"
    },
    {
      "midi": 63,
      "time": 142.8,
      "duration": 1.185,
      "velocity": 1,
      "hand": "right"
    },
    {
      "midi": 39,
      "time": 144,
      "duration": 3.585,
      "velocity": 1,
      "hand": "left"
    },
    {
      "midi": 44,
      "time": 144,
      "duration": 0.15,
      "velocity": 1,
      "hand": "left"
    },
    {
      "midi": 63,
      "time": 144,
      "duration": 1.785,
      "velocity": 1,
      "hand": "right"
    },
    {
      "midi": 44,
      "time": 144.3,
      "duration": 0.15,
      "velocity": 1,
      "hand": "left"
    },
    {
      "midi": 44,
      "time": 144.6,
      "duration": 0.15,
      "velocity": 1,
      "hand": "left"
    },
    {
      "midi": 44,
      "time": 144.9,
      "duration": 0.15,
      "velocity": 1,
      "hand": "left"
    },
    {
      "midi": 44,
      "time": 145.2,
      "duration": 0.15,
      "velocity": 1,
      "hand": "left"
    },
    {
      "midi": 44,
      "time": 145.5,
      "duration": 0.15,
      "velocity": 1,
      "hand": "left"
    },
    {
      "midi": 44,
      "time": 145.8,
      "duration": 0.15,
      "velocity": 1,
      "hand": "left"
    },
    {
      "midi": 51,
      "time": 145.8,
      "duration": 0.585,
      "velocity": 1,
      "hand": "left"
    },
    {
      "midi": 63,
      "time": 145.8,
      "duration": 0.585,
      "velocity": 1,
      "hand": "right"
    },
    {
      "midi": 44,
      "time": 146.1,
      "duration": 0.15,
      "velocity": 1,
      "hand": "left"
    },
    {
      "midi": 44,
      "time": 146.4,
      "duration": 0.6,
      "velocity": 1,
      "hand": "left"
    },
    {
      "midi": 46,
      "time": 146.4,
      "duration": 2.4,
      "velocity": 1,
      "hand": "left"
    },
    {
      "midi": 63,
      "time": 146.4,
      "duration": 1.185,
      "velocity": 1,
      "hand": "right"
    },
    {
      "midi": 39,
      "time": 147.6,
      "duration": 0.6,
      "velocity": 1,
      "hand": "left"
    },
    {
      "midi": 51,
      "time": 147.6,
      "duration": 1.185,
      "velocity": 1,
      "hand": "left"
    },
    {
      "midi": 63,
      "time": 147.6,
      "duration": 1.185,
      "velocity": 1,
      "hand": "right"
    },
    {
      "midi": 47,
      "time": 148.8,
      "duration": 1.785,
      "velocity": 1,
      "hand": "left"
    },
    {
      "midi": 51,
      "time": 148.8,
      "duration": 4.785,
      "velocity": 1,
      "hand": "left"
    },
    {
      "midi": 63,
      "time": 148.8,
      "duration": 1.785,
      "velocity": 1,
      "hand": "right"
    },
    {
      "midi": 47,
      "time": 150.6,
      "duration": 0.6,
      "velocity": 1,
      "hand": "left"
    },
    {
      "midi": 54,
      "time": 150.6,
      "duration": 0.6,
      "velocity": 1,
      "hand": "left"
    },
    {
      "midi": 63,
      "time": 150.6,
      "duration": 0.585,
      "velocity": 1,
      "hand": "right"
    },
    {
      "midi": 46,
      "time": 151.2,
      "duration": 1.2,
      "velocity": 1,
      "hand": "left"
    },
    {
      "midi": 55,
      "time": 151.2,
      "duration": 1.2,
      "velocity": 1,
      "hand": "left"
    },
    {
      "midi": 61,
      "time": 151.2,
      "duration": 1.2,
      "velocity": 1,
      "hand": "right"
    },
    {
      "midi": 63,
      "time": 151.2,
      "duration": 1.8,
      "velocity": 1,
      "hand": "right"
    },
    {
      "midi": 44,
      "time": 152.4,
      "duration": 1.185,
      "velocity": 1,
      "hand": "left"
    },
    {
      "midi": 56,
      "time": 152.4,
      "duration": 1.185,
      "velocity": 1,
      "hand": "left"
    },
    {
      "midi": 62,
      "time": 153,
      "duration": 0.6,
      "velocity": 1,
      "hand": "right"
    },
    {
      "midi": 39,
      "time": 153.6,
      "duration": 5.7,
      "velocity": 1,
      "hand": "left"
    },
    {
      "midi": 44,
      "time": 153.6,
      "duration": 0.15,
      "velocity": 1,
      "hand": "left"
    },
    {
      "midi": 63,
      "time": 153.6,
      "duration": 1.785,
      "velocity": 1,
      "hand": "right"
    },
    {
      "midi": 44,
      "time": 153.9,
      "duration": 0.15,
      "velocity": 1,
      "hand": "left"
    },
    {
      "midi": 44,
      "time": 154.2,
      "duration": 0.285,
      "velocity": 1,
      "hand": "left"
    },
    {
      "midi": 44,
      "time": 154.5,
      "duration": 0.15,
      "velocity": 1,
      "hand": "left"
    },
    {
      "midi": 44,
      "time": 154.8,
      "duration": 0.15,
      "velocity": 1,
      "hand": "left"
    },
    {
      "midi": 46,
      "time": 154.8,
      "duration": 0.6,
      "velocity": 1,
      "hand": "left"
    },
    {
      "midi": 44,
      "time": 155.1,
      "duration": 0.15,
      "velocity": 1,
      "hand": "left"
    },
    {
      "midi": 44,
      "time": 155.4,
      "duration": 0.15,
      "velocity": 1,
      "hand": "left"
    },
    {
      "midi": 47,
      "time": 155.4,
      "duration": 0.6,
      "velocity": 1,
      "hand": "left"
    },
    {
      "midi": 63,
      "time": 155.4,
      "duration": 0.585,
      "velocity": 1,
      "hand": "right"
    },
    {
      "midi": 44,
      "time": 155.7,
      "duration": 0.15,
      "velocity": 1,
      "hand": "left"
    },
    {
      "midi": 44,
      "time": 156,
      "duration": 0.15,
      "velocity": 1,
      "hand": "left"
    },
    {
      "midi": 46,
      "time": 156,
      "duration": 3.3,
      "velocity": 1,
      "hand": "left"
    },
    {
      "midi": 63,
      "time": 156,
      "duration": 3.3,
      "velocity": 1,
      "hand": "right"
    },
    {
      "midi": 44,
      "time": 156.3,
      "duration": 0.15,
      "velocity": 1,
      "hand": "left"
    },
    {
      "midi": 44,
      "time": 156.6,
      "duration": 0.15,
      "velocity": 1,
      "hand": "left"
    },
    {
      "midi": 44,
      "time": 156.9,
      "duration": 0.15,
      "velocity": 1,
      "hand": "left"
    },
    {
      "midi": 44,
      "time": 157.2,
      "duration": 0.15,
      "velocity": 1,
      "hand": "left"
    },
    {
      "midi": 44,
      "time": 157.5,
      "duration": 0.15,
      "velocity": 1,
      "hand": "left"
    },
    {
      "midi": 44,
      "time": 157.8,
      "duration": 0.15,
      "velocity": 1,
      "hand": "left"
    },
    {
      "midi": 44,
      "time": 158.1,
      "duration": 0.15,
      "velocity": 1,
      "hand": "left"
    },
    {
      "midi": 44,
      "time": 158.4,
      "duration": 0.15,
      "velocity": 1,
      "hand": "left"
    },
    {
      "midi": 44,
      "time": 158.7,
      "duration": 0.15,
      "velocity": 1,
      "hand": "left"
    },
    {
      "midi": 44,
      "time": 159,
      "duration": 0.15,
      "velocity": 1,
      "hand": "left"
    },
    {
      "midi": 51,
      "time": 160.8,
      "duration": 0.15,
      "velocity": 1,
      "hand": "left"
    }
  ]
}
