{
  "id": "teresinha-de-jesus",
  "title": "Teresinha de Jesus",
  "artist": "Tradicional",
  "difficulty": "Difícil",
  "bpm": 80,
  "duration": 99,
  "category": "Infantis",
  "isPremium": false,
  "coverUrl": "/images/covers/placeholder.png",
  "notes": [
    {
      "midi": 36,
      "time": 0,
      "duration": 1.25,
      "velocity": 0.96,
      "hand": "left"
    },
    {
      "midi": 47,
      "time": 0,
      "duration": 0.063,
      "velocity": 0.73,
      "hand": "left"
    },
    {
      "midi": 60,
      "time": 0,
      "duration": 0.36,
      "velocity": 0.76,
      "hand": "right"
    },
    {
      "midi": 63,
      "time": 0,
      "duration": 0.36,
      "velocity": 0.91,
      "hand": "right"
    },
    {
      "midi": 67,
      "time": 0,
      "duration": 0.36,
      "velocity": 0.57,
      "hand": "right"
    },
    {
      "midi": 51,
      "time": 0.375,
      "duration": 0.063,
      "velocity": 0.61,
      "hand": "left"
    },
    {
      "midi": 55,
      "time": 0.375,
      "duration": 0.11,
      "velocity": 0.52,
      "hand": "left"
    },
    {
      "midi": 60,
      "time": 0.375,
      "duration": 0.11,
      "velocity": 0.57,
      "hand": "right"
    },
    {
      "midi": 63,
      "time": 0.375,
      "duration": 0.063,
      "velocity": 0.54,
      "hand": "right"
    },
    {
      "midi": 67,
      "time": 0.375,
      "duration": 0.11,
      "velocity": 0.52,
      "hand": "right"
    },
    {
      "midi": 38,
      "time": 0.5,
      "duration": 0.063,
      "velocity": 0.83,
      "hand": "left"
    },
    {
      "midi": 48,
      "time": 0.5,
      "duration": 2.5,
      "velocity": 0.51,
      "hand": "left"
    },
    {
      "midi": 60,
      "time": 0.5,
      "duration": 0.063,
      "velocity": 0.61,
      "hand": "right"
    },
    {
      "midi": 63,
      "time": 0.5,
      "duration": 0.063,
      "velocity": 0.55,
      "hand": "right"
    },
    {
      "midi": 67,
      "time": 0.5,
      "duration": 0.125,
      "velocity": 0.52,
      "hand": "right"
    },
    {
      "midi": 55,
      "time": 0.75,
      "duration": 0.235,
      "velocity": 0.59,
      "hand": "left"
    },
    {
      "midi": 51,
      "time": 0.875,
      "duration": 0.063,
      "velocity": 0.61,
      "hand": "left"
    },
    {
      "midi": 38,
      "time": 1,
      "duration": 0.063,
      "velocity": 0.91,
      "hand": "left"
    },
    {
      "midi": 51,
      "time": 1,
      "duration": 0.063,
      "velocity": 0.61,
      "hand": "left"
    },
    {
      "midi": 60,
      "time": 1,
      "duration": 0.375,
      "velocity": 0.68,
      "hand": "right"
    },
    {
      "midi": 63,
      "time": 1,
      "duration": 0.125,
      "velocity": 0.64,
      "hand": "right"
    },
    {
      "midi": 67,
      "time": 1,
      "duration": 0.125,
      "velocity": 0.55,
      "hand": "right"
    },
    {
      "midi": 43,
      "time": 1.25,
      "duration": 0.25,
      "velocity": 0.94,
      "hand": "left"
    },
    {
      "midi": 63,
      "time": 1.25,
      "duration": 0.125,
      "velocity": 0.5,
      "hand": "right"
    },
    {
      "midi": 51,
      "time": 1.375,
      "duration": 0.063,
      "velocity": 0.61,
      "hand": "left"
    },
    {
      "midi": 36,
      "time": 1.5,
      "duration": 0.875,
      "velocity": 0.96,
      "hand": "left"
    },
    {
      "midi": 47,
      "time": 1.5,
      "duration": 0.063,
      "velocity": 0.72,
      "hand": "left"
    },
    {
      "midi": 60,
      "time": 1.5,
      "duration": 0.36,
      "velocity": 0.56,
      "hand": "right"
    },
    {
      "midi": 63,
      "time": 1.5,
      "duration": 0.36,
      "velocity": 0.55,
      "hand": "right"
    },
    {
      "midi": 67,
      "time": 1.5,
      "duration": 0.36,
      "velocity": 0.57,
      "hand": "right"
    },
    {
      "midi": 75,
      "time": 1.5,
      "duration": 0.5,
      "velocity": 0.84,
      "hand": "right"
    },
    {
      "midi": 38,
      "time": 1.875,
      "duration": 0.063,
      "velocity": 0.97,
      "hand": "left"
    },
    {
      "midi": 51,
      "time": 1.875,
      "duration": 0.063,
      "velocity": 0.61,
      "hand": "left"
    },
    {
      "midi": 60,
      "time": 1.875,
      "duration": 0.063,
      "velocity": 0.57,
      "hand": "right"
    },
    {
      "midi": 63,
      "time": 1.875,
      "duration": 0.063,
      "velocity": 0.57,
      "hand": "right"
    },
    {
      "midi": 67,
      "time": 1.875,
      "duration": 0.11,
      "velocity": 0.51,
      "hand": "right"
    },
    {
      "midi": 38,
      "time": 2,
      "duration": 0.063,
      "velocity": 0.7,
      "hand": "left"
    },
    {
      "midi": 51,
      "time": 2,
      "duration": 0.063,
      "velocity": 0.61,
      "hand": "left"
    },
    {
      "midi": 60,
      "time": 2,
      "duration": 0.063,
      "velocity": 0.57,
      "hand": "right"
    },
    {
      "midi": 63,
      "time": 2,
      "duration": 0.063,
      "velocity": 0.64,
      "hand": "right"
    },
    {
      "midi": 67,
      "time": 2,
      "duration": 0.125,
      "velocity": 0.48,
      "hand": "right"
    },
    {
      "midi": 74,
      "time": 2,
      "duration": 0.5,
      "velocity": 0.7,
      "hand": "right"
    },
    {
      "midi": 51,
      "time": 2.375,
      "duration": 0.063,
      "velocity": 0.61,
      "hand": "left"
    },
    {
      "midi": 38,
      "time": 2.5,
      "duration": 0.063,
      "velocity": 0.9,
      "hand": "left"
    },
    {
      "midi": 43,
      "time": 2.5,
      "duration": 0.375,
      "velocity": 0.93,
      "hand": "left"
    },
    {
      "midi": 60,
      "time": 2.5,
      "duration": 0.375,
      "velocity": 0.68,
      "hand": "right"
    },
    {
      "midi": 63,
      "time": 2.5,
      "duration": 0.375,
      "velocity": 0.7,
      "hand": "right"
    },
    {
      "midi": 67,
      "time": 2.5,
      "duration": 0.25,
      "velocity": 0.57,
      "hand": "right"
    },
    {
      "midi": 72,
      "time": 2.5,
      "duration": 0.5,
      "velocity": 0.71,
      "hand": "right"
    },
    {
      "midi": 51,
      "time": 2.875,
      "duration": 0.063,
      "velocity": 0.61,
      "hand": "left"
    },
    {
      "midi": 41,
      "time": 3,
      "duration": 1.485,
      "velocity": 0.83,
      "hand": "left"
    },
    {
      "midi": 47,
      "time": 3,
      "duration": 0.063,
      "velocity": 0.77,
      "hand": "left"
    },
    {
      "midi": 60,
      "time": 3,
      "duration": 0.36,
      "velocity": 0.55,
      "hand": "right"
    },
    {
      "midi": 65,
      "time": 3,
      "duration": 0.36,
      "velocity": 0.56,
      "hand": "right"
    },
    {
      "midi": 68,
      "time": 3,
      "duration": 3,
      "velocity": 0.68,
      "hand": "right"
    },
    {
      "midi": 51,
      "time": 3.375,
      "duration": 0.063,
      "velocity": 0.61,
      "hand": "left"
    },
    {
      "midi": 56,
      "time": 3.375,
      "duration": 0.11,
      "velocity": 0.46,
      "hand": "left"
    },
    {
      "midi": 60,
      "time": 3.375,
      "duration": 0.11,
      "velocity": 0.5,
      "hand": "right"
    },
    {
      "midi": 63,
      "time": 3.375,
      "duration": 0.11,
      "velocity": 0.38,
      "hand": "right"
    },
    {
      "midi": 65,
      "time": 3.375,
      "duration": 0.11,
      "velocity": 0.39,
      "hand": "right"
    },
    {
      "midi": 38,
      "time": 3.5,
      "duration": 0.063,
      "velocity": 0.8,
      "hand": "left"
    },
    {
      "midi": 51,
      "time": 3.5,
      "duration": 0.063,
      "velocity": 0.61,
      "hand": "left"
    },
    {
      "midi": 60,
      "time": 3.5,
      "duration": 0.125,
      "velocity": 0.56,
      "hand": "right"
    },
    {
      "midi": 63,
      "time": 3.5,
      "duration": 0.125,
      "velocity": 0.5,
      "hand": "right"
    },
    {
      "midi": 65,
      "time": 3.5,
      "duration": 0.125,
      "velocity": 0.45,
      "hand": "right"
    },
    {
      "midi": 56,
      "time": 3.75,
      "duration": 0.235,
      "velocity": 0.78,
      "hand": "left"
    },
    {
      "midi": 51,
      "time": 3.875,
      "duration": 0.063,
      "velocity": 0.61,
      "hand": "left"
    },
    {
      "midi": 38,
      "time": 4,
      "duration": 0.063,
      "velocity": 0.91,
      "hand": "left"
    },
    {
      "midi": 51,
      "time": 4,
      "duration": 0.063,
      "velocity": 0.61,
      "hand": "left"
    },
    {
      "midi": 60,
      "time": 4,
      "duration": 0.235,
      "velocity": 0.68,
      "hand": "right"
    },
    {
      "midi": 63,
      "time": 4,
      "duration": 0.125,
      "velocity": 0.53,
      "hand": "right"
    },
    {
      "midi": 65,
      "time": 4,
      "duration": 0.125,
      "velocity": 0.5,
      "hand": "right"
    },
    {
      "midi": 36,
      "time": 4.25,
      "duration": 0.25,
      "velocity": 0.94,
      "hand": "left"
    },
    {
      "midi": 56,
      "time": 4.25,
      "duration": 0.125,
      "velocity": 0.49,
      "hand": "left"
    },
    {
      "midi": 60,
      "time": 4.25,
      "duration": 0.125,
      "velocity": 0.58,
      "hand": "right"
    },
    {
      "midi": 65,
      "time": 4.25,
      "duration": 0.125,
      "velocity": 0.5,
      "hand": "right"
    },
    {
      "midi": 51,
      "time": 4.375,
      "duration": 0.063,
      "velocity": 0.61,
      "hand": "left"
    },
    {
      "midi": 41,
      "time": 4.5,
      "duration": 0.985,
      "velocity": 0.88,
      "hand": "left"
    },
    {
      "midi": 47,
      "time": 4.5,
      "duration": 0.063,
      "velocity": 0.75,
      "hand": "left"
    },
    {
      "midi": 60,
      "time": 4.5,
      "duration": 0.36,
      "velocity": 0.49,
      "hand": "right"
    },
    {
      "midi": 67,
      "time": 4.5,
      "duration": 0.875,
      "velocity": 0.5,
      "hand": "right"
    },
    {
      "midi": 38,
      "time": 4.875,
      "duration": 0.063,
      "velocity": 0.97,
      "hand": "left"
    },
    {
      "midi": 51,
      "time": 4.875,
      "duration": 0.063,
      "velocity": 0.61,
      "hand": "left"
    },
    {
      "midi": 60,
      "time": 4.875,
      "duration": 0.11,
      "velocity": 0.5,
      "hand": "right"
    },
    {
      "midi": 63,
      "time": 4.875,
      "duration": 0.11,
      "velocity": 0.38,
      "hand": "right"
    },
    {
      "midi": 65,
      "time": 4.875,
      "duration": 0.11,
      "velocity": 0.39,
      "hand": "right"
    },
    {
      "midi": 38,
      "time": 5,
      "duration": 0.063,
      "velocity": 0.65,
      "hand": "left"
    },
    {
      "midi": 44,
      "time": 5,
      "duration": 0.5,
      "velocity": 0.98,
      "hand": "left"
    },
    {
      "midi": 60,
      "time": 5,
      "duration": 0.125,
      "velocity": 0.56,
      "hand": "right"
    },
    {
      "midi": 63,
      "time": 5,
      "duration": 0.125,
      "velocity": 0.5,
      "hand": "right"
    },
    {
      "midi": 65,
      "time": 5,
      "duration": 0.125,
      "velocity": 0.45,
      "hand": "right"
    },
    {
      "midi": 51,
      "time": 5.375,
      "duration": 0.063,
      "velocity": 0.61,
      "hand": "left"
    },
    {
      "midi": 38,
      "time": 5.5,
      "duration": 0.063,
      "velocity": 0.91,
      "hand": "left"
    },
    {
      "midi": 41,
      "time": 5.5,
      "duration": 0.375,
      "velocity": 0.86,
      "hand": "left"
    },
    {
      "midi": 60,
      "time": 5.5,
      "duration": 0.25,
      "velocity": 0.61,
      "hand": "right"
    },
    {
      "midi": 63,
      "time": 5.5,
      "duration": 0.125,
      "velocity": 0.53,
      "hand": "right"
    },
    {
      "midi": 65,
      "time": 5.5,
      "duration": 0.375,
      "velocity": 0.54,
      "hand": "right"
    },
    {
      "midi": 51,
      "time": 5.875,
      "duration": 0.063,
      "velocity": 0.61,
      "hand": "left"
    },
    {
      "midi": 47,
      "time": 6,
      "duration": 0.063,
      "velocity": 0.73,
      "hand": "left"
    },
    {
      "midi": 62,
      "time": 6,
      "duration": 0.485,
      "velocity": 0.38,
      "hand": "right"
    },
    {
      "midi": 70,
      "time": 6,
      "duration": 1.375,
      "velocity": 0.92,
      "hand": "right"
    },
    {
      "midi": 58,
      "time": 6.25,
      "duration": 0.5,
      "velocity": 0.7,
      "hand": "left"
    },
    {
      "midi": 51,
      "time": 6.375,
      "duration": 0.063,
      "velocity": 0.61,
      "hand": "left"
    },
    {
      "midi": 56,
      "time": 6.375,
      "duration": 0.11,
      "velocity": 0.46,
      "hand": "left"
    },
    {
      "midi": 60,
      "time": 6.375,
      "duration": 0.11,
      "velocity": 0.5,
      "hand": "right"
    },
    {
      "midi": 63,
      "time": 6.375,
      "duration": 0.11,
      "velocity": 0.38,
      "hand": "right"
    },
    {
      "midi": 65,
      "time": 6.375,
      "duration": 0.11,
      "velocity": 0.39,
      "hand": "right"
    },
    {
      "midi": 38,
      "time": 6.5,
      "duration": 0.063,
      "velocity": 0.9,
      "hand": "left"
    },
    {
      "midi": 51,
      "time": 6.5,
      "duration": 0.063,
      "velocity": 0.61,
      "hand": "left"
    },
    {
      "midi": 60,
      "time": 6.5,
      "duration": 0.125,
      "velocity": 0.56,
      "hand": "right"
    },
    {
      "midi": 63,
      "time": 6.5,
      "duration": 0.125,
      "velocity": 0.5,
      "hand": "right"
    },
    {
      "midi": 65,
      "time": 6.5,
      "duration": 0.125,
      "velocity": 0.45,
      "hand": "right"
    },
    {
      "midi": 53,
      "time": 6.75,
      "duration": 0.625,
      "velocity": 0.61,
      "hand": "left"
    },
    {
      "midi": 51,
      "time": 6.875,
      "duration": 0.063,
      "velocity": 0.61,
      "hand": "left"
    },
    {
      "midi": 38,
      "time": 7,
      "duration": 0.063,
      "velocity": 0.9,
      "hand": "left"
    },
    {
      "midi": 51,
      "time": 7,
      "duration": 0.063,
      "velocity": 0.61,
      "hand": "left"
    },
    {
      "midi": 60,
      "time": 7,
      "duration": 0.125,
      "velocity": 0.61,
      "hand": "right"
    },
    {
      "midi": 63,
      "time": 7,
      "duration": 0.125,
      "velocity": 0.53,
      "hand": "right"
    },
    {
      "midi": 65,
      "time": 7,
      "duration": 0.125,
      "velocity": 0.5,
      "hand": "right"
    },
    {
      "midi": 41,
      "time": 7.25,
      "duration": 0.125,
      "velocity": 0.95,
      "hand": "left"
    },
    {
      "midi": 62,
      "time": 7.25,
      "duration": 0.125,
      "velocity": 0.53,
      "hand": "right"
    },
    {
      "midi": 51,
      "time": 7.375,
      "duration": 0.063,
      "velocity": 0.61,
      "hand": "left"
    },
    {
      "midi": 47,
      "time": 7.5,
      "duration": 0.063,
      "velocity": 0.81,
      "hand": "left"
    },
    {
      "midi": 65,
      "time": 7.5,
      "duration": 0.875,
      "velocity": 0.57,
      "hand": "right"
    },
    {
      "midi": 74,
      "time": 7.5,
      "duration": 0.5,
      "velocity": 0.75,
      "hand": "right"
    },
    {
      "midi": 38,
      "time": 7.875,
      "duration": 0.063,
      "velocity": 0.97,
      "hand": "left"
    },
    {
      "midi": 51,
      "time": 7.875,
      "duration": 0.063,
      "velocity": 0.61,
      "hand": "left"
    },
    {
      "midi": 62,
      "time": 7.875,
      "duration": 0.11,
      "velocity": 0.57,
      "hand": "right"
    },
    {
      "midi": 38,
      "time": 8,
      "duration": 0.063,
      "velocity": 0.69,
      "hand": "left"
    },
    {
      "midi": 41,
      "time": 8,
      "duration": 0.5,
      "velocity": 0.79,
      "hand": "left"
    },
    {
      "midi": 62,
      "time": 8,
      "duration": 0.125,
      "velocity": 0.61,
      "hand": "right"
    },
    {
      "midi": 72,
      "time": 8,
      "duration": 0.5,
      "velocity": 0.67,
      "hand": "right"
    },
    {
      "midi": 51,
      "time": 8.375,
      "duration": 0.063,
      "velocity": 0.61,
      "hand": "left"
    },
    {
      "midi": 38,
      "time": 8.5,
      "duration": 0.063,
      "velocity": 0.91,
      "hand": "left"
    },
    {
      "midi": 46,
      "time": 8.5,
      "duration": 0.375,
      "velocity": 0.98,
      "hand": "left"
    },
    {
      "midi": 62,
      "time": 8.5,
      "duration": 0.375,
      "velocity": 0.65,
      "hand": "right"
    },
    {
      "midi": 70,
      "time": 8.5,
      "duration": 0.5,
      "velocity": 0.69,
      "hand": "right"
    },
    {
      "midi": 39,
      "time": 8.875,
      "duration": 0.11,
      "velocity": 0.87,
      "hand": "left"
    },
    {
      "midi": 51,
      "time": 8.875,
      "duration": 0.063,
      "velocity": 0.61,
      "hand": "left"
    },
    {
      "midi": 39,
      "time": 9,
      "duration": 1,
      "velocity": 0.5,
      "hand": "left"
    },
    {
      "midi": 47,
      "time": 9,
      "duration": 0.063,
      "velocity": 0.73,
      "hand": "left"
    },
    {
      "midi": 63,
      "time": 9,
      "duration": 0.36,
      "velocity": 0.56,
      "hand": "right"
    },
    {
      "midi": 67,
      "time": 9,
      "duration": 0.985,
      "velocity": 0.68,
      "hand": "right"
    },
    {
      "midi": 51,
      "time": 9.375,
      "duration": 0.063,
      "velocity": 0.61,
      "hand": "left"
    },
    {
      "midi": 55,
      "time": 9.375,
      "duration": 0.11,
      "velocity": 0.5,
      "hand": "left"
    },
    {
      "midi": 63,
      "time": 9.375,
      "duration": 0.11,
      "velocity": 0.54,
      "hand": "right"
    },
    {
      "midi": 38,
      "time": 9.5,
      "duration": 0.063,
      "velocity": 0.83,
      "hand": "left"
    },
    {
      "midi": 51,
      "time": 9.5,
      "duration": 0.063,
      "velocity": 0.61,
      "hand": "left"
    },
    {
      "midi": 63,
      "time": 9.5,
      "duration": 0.125,
      "velocity": 0.51,
      "hand": "right"
    },
    {
      "midi": 51,
      "time": 9.875,
      "duration": 0.063,
      "velocity": 0.61,
      "hand": "left"
    },
    {
      "midi": 38,
      "time": 10,
      "duration": 0.063,
      "velocity": 0.91,
      "hand": "left"
    },
    {
      "midi": 46,
      "time": 10,
      "duration": 0.5,
      "velocity": 0.35,
      "hand": "left"
    },
    {
      "midi": 63,
      "time": 10,
      "duration": 0.125,
      "velocity": 0.61,
      "hand": "right"
    },
    {
      "midi": 67,
      "time": 10,
      "duration": 0.375,
      "velocity": 0.72,
      "hand": "right"
    },
    {
      "midi": 51,
      "time": 10.375,
      "duration": 0.063,
      "velocity": 0.61,
      "hand": "left"
    },
    {
      "midi": 39,
      "time": 10.5,
      "duration": 0.5,
      "velocity": 0.42,
      "hand": "left"
    },
    {
      "midi": 47,
      "time": 10.5,
      "duration": 0.063,
      "velocity": 0.72,
      "hand": "left"
    },
    {
      "midi": 63,
      "time": 10.5,
      "duration": 0.36,
      "velocity": 0.72,
      "hand": "right"
    },
    {
      "midi": 38,
      "time": 10.875,
      "duration": 0.063,
      "velocity": 0.97,
      "hand": "left"
    },
    {
      "midi": 51,
      "time": 10.875,
      "duration": 0.063,
      "velocity": 0.61,
      "hand": "left"
    },
    {
      "midi": 63,
      "time": 10.875,
      "duration": 0.11,
      "velocity": 0.57,
      "hand": "right"
    },
    {
      "midi": 38,
      "time": 11,
      "duration": 0.485,
      "velocity": 0.91,
      "hand": "left"
    },
    {
      "midi": 54,
      "time": 11,
      "duration": 0.063,
      "velocity": 0.54,
      "hand": "left"
    },
    {
      "midi": 63,
      "time": 11,
      "duration": 0.125,
      "velocity": 0.72,
      "hand": "right"
    },
    {
      "midi": 51,
      "time": 11.125,
      "duration": 0.063,
      "velocity": 0.61,
      "hand": "left"
    },
    {
      "midi": 51,
      "time": 11.375,
      "duration": 0.063,
      "velocity": 0.61,
      "hand": "left"
    },
    {
      "midi": 38,
      "time": 11.5,
      "duration": 0.063,
      "velocity": 0.9,
      "hand": "left"
    },
    {
      "midi": 43,
      "time": 11.5,
      "duration": 0.5,
      "velocity": 0.96,
      "hand": "left"
    },
    {
      "midi": 60,
      "time": 11.5,
      "duration": 0.25,
      "velocity": 0.63,
      "hand": "right"
    },
    {
      "midi": 63,
      "time": 11.5,
      "duration": 0.125,
      "velocity": 0.72,
      "hand": "right"
    },
    {
      "midi": 51,
      "time": 11.875,
      "duration": 0.063,
      "velocity": 0.61,
      "hand": "left"
    },
    {
      "midi": 55,
      "time": 11.875,
      "duration": 0.485,
      "velocity": 0.41,
      "hand": "left"
    },
    {
      "midi": 36,
      "time": 12,
      "duration": 1.375,
      "velocity": 0.91,
      "hand": "left"
    },
    {
      "midi": 47,
      "time": 12,
      "duration": 0.063,
      "velocity": 0.77,
      "hand": "left"
    },
    {
      "midi": 60,
      "time": 12,
      "duration": 0.36,
      "velocity": 0.43,
      "hand": "right"
    },
    {
      "midi": 63,
      "time": 12,
      "duration": 0.36,
      "velocity": 0.9,
      "hand": "right"
    },
    {
      "midi": 67,
      "time": 12,
      "duration": 0.36,
      "velocity": 0.65,
      "hand": "right"
    },
    {
      "midi": 51,
      "time": 12.375,
      "duration": 0.063,
      "velocity": 0.61,
      "hand": "left"
    },
    {
      "midi": 55,
      "time": 12.375,
      "duration": 0.11,
      "velocity": 0.52,
      "hand": "left"
    },
    {
      "midi": 60,
      "time": 12.375,
      "duration": 0.11,
      "velocity": 0.57,
      "hand": "right"
    },
    {
      "midi": 63,
      "time": 12.375,
      "duration": 0.063,
      "velocity": 0.54,
      "hand": "right"
    },
    {
      "midi": 67,
      "time": 12.375,
      "duration": 0.11,
      "velocity": 0.52,
      "hand": "right"
    },
    {
      "midi": 39,
      "time": 12.5,
      "duration": 0.75,
      "velocity": 0.49,
      "hand": "left"
    },
    {
      "midi": 60,
      "time": 12.5,
      "duration": 0.063,
      "velocity": 0.61,
      "hand": "right"
    },
    {
      "midi": 63,
      "time": 12.5,
      "duration": 0.485,
      "velocity": 0.72,
      "hand": "right"
    },
    {
      "midi": 67,
      "time": 12.5,
      "duration": 0.125,
      "velocity": 0.52,
      "hand": "right"
    },
    {
      "midi": 51,
      "time": 12.875,
      "duration": 0.063,
      "velocity": 0.61,
      "hand": "left"
    },
    {
      "midi": 38,
      "time": 13,
      "duration": 0.063,
      "velocity": 0.91,
      "hand": "left"
    },
    {
      "midi": 51,
      "time": 13,
      "duration": 0.063,
      "velocity": 0.61,
      "hand": "left"
    },
    {
      "midi": 60,
      "time": 13,
      "duration": 0.25,
      "velocity": 0.72,
      "hand": "right"
    },
    {
      "midi": 63,
      "time": 13,
      "duration": 0.125,
      "velocity": 0.64,
      "hand": "right"
    },
    {
      "midi": 67,
      "time": 13,
      "duration": 0.125,
      "velocity": 0.55,
      "hand": "right"
    },
    {
      "midi": 72,
      "time": 13,
      "duration": 0.5,
      "velocity": 0.65,
      "hand": "right"
    },
    {
      "midi": 43,
      "time": 13.25,
      "duration": 0.11,
      "velocity": 0.5,
      "hand": "left"
    },
    {
      "midi": 43,
      "time": 13.375,
      "duration": 0.125,
      "velocity": 0.96,
      "hand": "left"
    },
    {
      "midi": 51,
      "time": 13.375,
      "duration": 0.063,
      "velocity": 0.61,
      "hand": "left"
    },
    {
      "midi": 36,
      "time": 13.5,
      "duration": 0.485,
      "velocity": 0.88,
      "hand": "left"
    },
    {
      "midi": 47,
      "time": 13.5,
      "duration": 0.063,
      "velocity": 0.75,
      "hand": "left"
    },
    {
      "midi": 60,
      "time": 13.5,
      "duration": 0.36,
      "velocity": 0.54,
      "hand": "right"
    },
    {
      "midi": 67,
      "time": 13.5,
      "duration": 0.36,
      "velocity": 0.57,
      "hand": "right"
    },
    {
      "midi": 70,
      "time": 13.5,
      "duration": 0.5,
      "velocity": 0.72,
      "hand": "right"
    },
    {
      "midi": 38,
      "time": 13.875,
      "duration": 0.063,
      "velocity": 0.97,
      "hand": "left"
    },
    {
      "midi": 51,
      "time": 13.875,
      "duration": 0.063,
      "velocity": 0.61,
      "hand": "left"
    },
    {
      "midi": 60,
      "time": 13.875,
      "duration": 0.11,
      "velocity": 0.57,
      "hand": "right"
    },
    {
      "midi": 63,
      "time": 13.875,
      "duration": 0.063,
      "velocity": 0.54,
      "hand": "right"
    },
    {
      "midi": 67,
      "time": 13.875,
      "duration": 0.11,
      "velocity": 0.52,
      "hand": "right"
    },
    {
      "midi": 36,
      "time": 14,
      "duration": 0.5,
      "velocity": 0.86,
      "hand": "left"
    },
    {
      "midi": 38,
      "time": 14,
      "duration": 0.063,
      "velocity": 0.65,
      "hand": "left"
    },
    {
      "midi": 60,
      "time": 14,
      "duration": 0.063,
      "velocity": 0.61,
      "hand": "right"
    },
    {
      "midi": 63,
      "time": 14,
      "duration": 0.25,
      "velocity": 0.55,
      "hand": "right"
    },
    {
      "midi": 68,
      "time": 14,
      "duration": 0.5,
      "velocity": 0.72,
      "hand": "right"
    },
    {
      "midi": 51,
      "time": 14.375,
      "duration": 0.063,
      "velocity": 0.61,
      "hand": "left"
    },
    {
      "midi": 38,
      "time": 14.5,
      "duration": 0.063,
      "velocity": 0.91,
      "hand": "left"
    },
    {
      "midi": 43,
      "time": 14.5,
      "duration": 0.5,
      "velocity": 0.96,
      "hand": "left"
    },
    {
      "midi": 60,
      "time": 14.5,
      "duration": 0.485,
      "velocity": 0.58,
      "hand": "right"
    },
    {
      "midi": 63,
      "time": 14.5,
      "duration": 0.375,
      "velocity": 0.64,
      "hand": "right"
    },
    {
      "midi": 67,
      "time": 14.5,
      "duration": 0.5,
      "velocity": 0.71,
      "hand": "right"
    },
    {
      "midi": 51,
      "time": 14.875,
      "duration": 0.063,
      "velocity": 0.61,
      "hand": "left"
    },
    {
      "midi": 41,
      "time": 15,
      "duration": 1.25,
      "velocity": 0.94,
      "hand": "left"
    },
    {
      "midi": 47,
      "time": 15,
      "duration": 0.063,
      "velocity": 0.73,
      "hand": "left"
    },
    {
      "midi": 60,
      "time": 15,
      "duration": 0.36,
      "velocity": 0.55,
      "hand": "right"
    },
    {
      "midi": 65,
      "time": 15,
      "duration": 0.985,
      "velocity": 0.57,
      "hand": "right"
    },
    {
      "midi": 68,
      "time": 15,
      "duration": 2.75,
      "velocity": 0.66,
      "hand": "right"
    },
    {
      "midi": 51,
      "time": 15.375,
      "duration": 0.063,
      "velocity": 0.61,
      "hand": "left"
    },
    {
      "midi": 53,
      "time": 15.375,
      "duration": 0.11,
      "velocity": 0.53,
      "hand": "left"
    },
    {
      "midi": 60,
      "time": 15.375,
      "duration": 0.11,
      "velocity": 0.5,
      "hand": "right"
    },
    {
      "midi": 63,
      "time": 15.375,
      "duration": 0.11,
      "velocity": 0.41,
      "hand": "right"
    },
    {
      "midi": 38,
      "time": 15.5,
      "duration": 0.063,
      "velocity": 0.9,
      "hand": "left"
    },
    {
      "midi": 51,
      "time": 15.5,
      "duration": 0.063,
      "velocity": 0.61,
      "hand": "left"
    },
    {
      "midi": 60,
      "time": 15.5,
      "duration": 0.125,
      "velocity": 0.52,
      "hand": "right"
    },
    {
      "midi": 63,
      "time": 15.5,
      "duration": 0.125,
      "velocity": 0.46,
      "hand": "right"
    },
    {
      "midi": 51,
      "time": 15.875,
      "duration": 0.063,
      "velocity": 0.61,
      "hand": "left"
    },
    {
      "midi": 38,
      "time": 16,
      "duration": 0.063,
      "velocity": 0.9,
      "hand": "left"
    },
    {
      "midi": 51,
      "time": 16,
      "duration": 0.063,
      "velocity": 0.61,
      "hand": "left"
    },
    {
      "midi": 60,
      "time": 16,
      "duration": 0.86,
      "velocity": 0.7,
      "hand": "right"
    },
    {
      "midi": 63,
      "time": 16,
      "duration": 0.125,
      "velocity": 0.49,
      "hand": "right"
    },
    {
      "midi": 65,
      "time": 16,
      "duration": 0.625,
      "velocity": 0.54,
      "hand": "right"
    },
    {
      "midi": 36,
      "time": 16.25,
      "duration": 0.25,
      "velocity": 0.86,
      "hand": "left"
    },
    {
      "midi": 48,
      "time": 16.25,
      "duration": 0.25,
      "velocity": 0.54,
      "hand": "left"
    },
    {
      "midi": 51,
      "time": 16.375,
      "duration": 0.063,
      "velocity": 0.61,
      "hand": "left"
    },
    {
      "midi": 41,
      "time": 16.5,
      "duration": 0.985,
      "velocity": 0.86,
      "hand": "left"
    },
    {
      "midi": 47,
      "time": 16.5,
      "duration": 0.063,
      "velocity": 0.81,
      "hand": "left"
    },
    {
      "midi": 38,
      "time": 16.875,
      "duration": 0.063,
      "velocity": 0.97,
      "hand": "left"
    },
    {
      "midi": 51,
      "time": 16.875,
      "duration": 0.063,
      "velocity": 0.61,
      "hand": "left"
    },
    {
      "midi": 60,
      "time": 16.875,
      "duration": 0.11,
      "velocity": 0.54,
      "hand": "right"
    },
    {
      "midi": 63,
      "time": 16.875,
      "duration": 0.11,
      "velocity": 0.5,
      "hand": "right"
    },
    {
      "midi": 65,
      "time": 16.875,
      "duration": 0.063,
      "velocity": 0.41,
      "hand": "right"
    },
    {
      "midi": 38,
      "time": 17,
      "duration": 0.063,
      "velocity": 0.69,
      "hand": "left"
    },
    {
      "midi": 44,
      "time": 17,
      "duration": 0.5,
      "velocity": 0.99,
      "hand": "left"
    },
    {
      "midi": 60,
      "time": 17,
      "duration": 0.485,
      "velocity": 0.63,
      "hand": "right"
    },
    {
      "midi": 63,
      "time": 17,
      "duration": 0.125,
      "velocity": 0.54,
      "hand": "right"
    },
    {
      "midi": 65,
      "time": 17,
      "duration": 0.125,
      "velocity": 0.53,
      "hand": "right"
    },
    {
      "midi": 65,
      "time": 17.25,
      "duration": 0.235,
      "velocity": 0.53,
      "hand": "right"
    },
    {
      "midi": 51,
      "time": 17.375,
      "duration": 0.063,
      "velocity": 0.61,
      "hand": "left"
    },
    {
      "midi": 38,
      "time": 17.5,
      "duration": 0.063,
      "velocity": 0.91,
      "hand": "left"
    },
    {
      "midi": 41,
      "time": 17.5,
      "duration": 0.375,
      "velocity": 0.91,
      "hand": "left"
    },
    {
      "midi": 60,
      "time": 17.5,
      "duration": 0.125,
      "velocity": 0.55,
      "hand": "right"
    },
    {
      "midi": 63,
      "time": 17.5,
      "duration": 0.125,
      "velocity": 0.56,
      "hand": "right"
    },
    {
      "midi": 65,
      "time": 17.5,
      "duration": 0.125,
      "velocity": 0.51,
      "hand": "right"
    },
    {
      "midi": 48,
      "time": 17.75,
      "duration": 0.25,
      "velocity": 0.41,
      "hand": "left"
    },
    {
      "midi": 65,
      "time": 17.75,
      "duration": 0.25,
      "velocity": 0.46,
      "hand": "right"
    },
    {
      "midi": 51,
      "time": 17.875,
      "duration": 0.063,
      "velocity": 0.61,
      "hand": "left"
    },
    {
      "midi": 43,
      "time": 18,
      "duration": 1,
      "velocity": 1,
      "hand": "left"
    },
    {
      "midi": 47,
      "time": 18,
      "duration": 0.063,
      "velocity": 0.73,
      "hand": "left"
    },
    {
      "midi": 62,
      "time": 18,
      "duration": 0.36,
      "velocity": 0.32,
      "hand": "right"
    },
    {
      "midi": 68,
      "time": 18,
      "duration": 1,
      "velocity": 0.89,
      "hand": "right"
    },
    {
      "midi": 59,
      "time": 18.25,
      "duration": 0.11,
      "velocity": 0.5,
      "hand": "left"
    },
    {
      "midi": 47,
      "time": 18.375,
      "duration": 0.75,
      "velocity": 0.39,
      "hand": "left"
    },
    {
      "midi": 51,
      "time": 18.375,
      "duration": 0.063,
      "velocity": 0.61,
      "hand": "left"
    },
    {
      "midi": 62,
      "time": 18.375,
      "duration": 0.063,
      "velocity": 0.65,
      "hand": "right"
    },
    {
      "midi": 65,
      "time": 18.375,
      "duration": 0.11,
      "velocity": 0.61,
      "hand": "right"
    },
    {
      "midi": 67,
      "time": 18.375,
      "duration": 0.11,
      "velocity": 0.44,
      "hand": "right"
    },
    {
      "midi": 38,
      "time": 18.5,
      "duration": 0.063,
      "velocity": 0.83,
      "hand": "left"
    },
    {
      "midi": 51,
      "time": 18.5,
      "duration": 0.063,
      "velocity": 0.61,
      "hand": "left"
    },
    {
      "midi": 62,
      "time": 18.5,
      "duration": 0.25,
      "velocity": 0.68,
      "hand": "right"
    },
    {
      "midi": 65,
      "time": 18.5,
      "duration": 0.063,
      "velocity": 0.61,
      "hand": "right"
    },
    {
      "midi": 67,
      "time": 18.5,
      "duration": 0.125,
      "velocity": 0.57,
      "hand": "right"
    },
    {
      "midi": 51,
      "time": 18.875,
      "duration": 0.063,
      "velocity": 0.61,
      "hand": "left"
    },
    {
      "midi": 55,
      "time": 18.875,
      "duration": 0.11,
      "velocity": 0.2,
      "hand": "left"
    },
    {
      "midi": 38,
      "time": 19,
      "duration": 0.5,
      "velocity": 0.95,
      "hand": "left"
    },
    {
      "midi": 50,
      "time": 19,
      "duration": 0.5,
      "velocity": 0.39,
      "hand": "left"
    },
    {
      "midi": 62,
      "time": 19,
      "duration": 0.375,
      "velocity": 0.65,
      "hand": "right"
    },
    {
      "midi": 65,
      "time": 19,
      "duration": 0.125,
      "velocity": 0.72,
      "hand": "right"
    },
    {
      "midi": 67,
      "time": 19,
      "duration": 0.375,
      "velocity": 0.86,
      "hand": "right"
    },
    {
      "midi": 51,
      "time": 19.375,
      "duration": 0.063,
      "velocity": 0.61,
      "hand": "left"
    },
    {
      "midi": 43,
      "time": 19.5,
      "duration": 1.125,
      "velocity": 0.91,
      "hand": "left"
    },
    {
      "midi": 47,
      "time": 19.5,
      "duration": 0.063,
      "velocity": 0.72,
      "hand": "left"
    },
    {
      "midi": 62,
      "time": 19.5,
      "duration": 0.36,
      "velocity": 0.5,
      "hand": "right"
    },
    {
      "midi": 65,
      "time": 19.5,
      "duration": 0.36,
      "velocity": 0.5,
      "hand": "right"
    },
    {
      "midi": 67,
      "time": 19.5,
      "duration": 0.36,
      "velocity": 0.69,
      "hand": "right"
    },
    {
      "midi": 38,
      "time": 19.875,
      "duration": 0.063,
      "velocity": 0.97,
      "hand": "left"
    },
    {
      "midi": 51,
      "time": 19.875,
      "duration": 0.063,
      "velocity": 0.61,
      "hand": "left"
    },
    {
      "midi": 62,
      "time": 19.875,
      "duration": 0.11,
      "velocity": 0.58,
      "hand": "right"
    },
    {
      "midi": 65,
      "time": 19.875,
      "duration": 0.11,
      "velocity": 0.56,
      "hand": "right"
    },
    {
      "midi": 67,
      "time": 19.875,
      "duration": 0.11,
      "velocity": 0.51,
      "hand": "right"
    },
    {
      "midi": 38,
      "time": 20,
      "duration": 0.063,
      "velocity": 0.7,
      "hand": "left"
    },
    {
      "midi": 45,
      "time": 20,
      "duration": 0.625,
      "velocity": 0.96,
      "hand": "left"
    },
    {
      "midi": 62,
      "time": 20,
      "duration": 0.063,
      "velocity": 0.72,
      "hand": "right"
    },
    {
      "midi": 65,
      "time": 20,
      "duration": 0.485,
      "velocity": 0.72,
      "hand": "right"
    },
    {
      "midi": 67,
      "time": 20,
      "duration": 0.125,
      "velocity": 0.56,
      "hand": "right"
    },
    {
      "midi": 51,
      "time": 20.125,
      "duration": 0.063,
      "velocity": 0.61,
      "hand": "left"
    },
    {
      "midi": 51,
      "time": 20.375,
      "duration": 0.063,
      "velocity": 0.61,
      "hand": "left"
    },
    {
      "midi": 38,
      "time": 20.5,
      "duration": 0.063,
      "velocity": 0.9,
      "hand": "left"
    },
    {
      "midi": 47,
      "time": 20.5,
      "duration": 0.375,
      "velocity": 0.75,
      "hand": "left"
    },
    {
      "midi": 62,
      "time": 20.5,
      "duration": 0.5,
      "velocity": 0.74,
      "hand": "right"
    },
    {
      "midi": 65,
      "time": 20.5,
      "duration": 0.25,
      "velocity": 0.72,
      "hand": "right"
    },
    {
      "midi": 67,
      "time": 20.5,
      "duration": 0.125,
      "velocity": 0.61,
      "hand": "right"
    },
    {
      "midi": 51,
      "time": 20.875,
      "duration": 0.063,
      "velocity": 0.61,
      "hand": "left"
    },
    {
      "midi": 55,
      "time": 20.875,
      "duration": 0.11,
      "velocity": 0.28,
      "hand": "left"
    },
    {
      "midi": 36,
      "time": 21,
      "duration": 1.125,
      "velocity": 0.94,
      "hand": "left"
    },
    {
      "midi": 47,
      "time": 21,
      "duration": 0.063,
      "velocity": 0.77,
      "hand": "left"
    },
    {
      "midi": 60,
      "time": 21,
      "duration": 0.36,
      "velocity": 0.67,
      "hand": "right"
    },
    {
      "midi": 63,
      "time": 21,
      "duration": 0.36,
      "velocity": 0.5,
      "hand": "right"
    },
    {
      "midi": 67,
      "time": 21,
      "duration": 0.36,
      "velocity": 0.49,
      "hand": "right"
    },
    {
      "midi": 51,
      "time": 21.375,
      "duration": 0.063,
      "velocity": 0.61,
      "hand": "left"
    },
    {
      "midi": 60,
      "time": 21.375,
      "duration": 0.11,
      "velocity": 0.63,
      "hand": "right"
    },
    {
      "midi": 63,
      "time": 21.375,
      "duration": 0.063,
      "velocity": 0.72,
      "hand": "right"
    },
    {
      "midi": 67,
      "time": 21.375,
      "duration": 0.11,
      "velocity": 0.56,
      "hand": "right"
    },
    {
      "midi": 38,
      "time": 21.5,
      "duration": 0.063,
      "velocity": 0.8,
      "hand": "left"
    },
    {
      "midi": 51,
      "time": 21.5,
      "duration": 0.063,
      "velocity": 0.61,
      "hand": "left"
    },
    {
      "midi": 60,
      "time": 21.5,
      "duration": 0.125,
      "velocity": 0.59,
      "hand": "right"
    },
    {
      "midi": 63,
      "time": 21.5,
      "duration": 0.125,
      "velocity": 0.68,
      "hand": "right"
    },
    {
      "midi": 67,
      "time": 21.5,
      "duration": 0.125,
      "velocity": 0.54,
      "hand": "right"
    },
    {
      "midi": 51,
      "time": 21.875,
      "duration": 0.063,
      "velocity": 0.61,
      "hand": "left"
    },
    {
      "midi": 38,
      "time": 22,
      "duration": 0.063,
      "velocity": 0.91,
      "hand": "left"
    },
    {
      "midi": 43,
      "time": 22,
      "duration": 0.25,
      "velocity": 0.8,
      "hand": "left"
    },
    {
      "midi": 60,
      "time": 22,
      "duration": 0.125,
      "velocity": 0.56,
      "hand": "right"
    },
    {
      "midi": 63,
      "time": 22,
      "duration": 0.125,
      "velocity": 0.57,
      "hand": "right"
    },
    {
      "midi": 67,
      "time": 22,
      "duration": 0.125,
      "velocity": 0.55,
      "hand": "right"
    },
    {
      "midi": 36,
      "time": 22.25,
      "duration": 0.25,
      "velocity": 0.87,
      "hand": "left"
    },
    {
      "midi": 51,
      "time": 22.375,
      "duration": 0.063,
      "velocity": 0.61,
      "hand": "left"
    },
    {
      "midi": 38,
      "time": 22.5,
      "duration": 0.235,
      "velocity": 0.56,
      "hand": "left"
    },
    {
      "midi": 47,
      "time": 22.5,
      "duration": 0.063,
      "velocity": 0.75,
      "hand": "left"
    },
    {
      "midi": 60,
      "time": 22.5,
      "duration": 0.375,
      "velocity": 0.5,
      "hand": "right"
    },
    {
      "midi": 62,
      "time": 22.5,
      "duration": 0.375,
      "velocity": 0.55,
      "hand": "right"
    },
    {
      "midi": 65,
      "time": 22.5,
      "duration": 0.5,
      "velocity": 0.57,
      "hand": "right"
    },
    {
      "midi": 38,
      "time": 22.75,
      "duration": 0.063,
      "velocity": 0.91,
      "hand": "left"
    },
    {
      "midi": 51,
      "time": 22.875,
      "duration": 0.063,
      "velocity": 0.61,
      "hand": "left"
    },
    {
      "midi": 38,
      "time": 23,
      "duration": 0.063,
      "velocity": 0.91,
      "hand": "left"
    },
    {
      "midi": 43,
      "time": 23,
      "duration": 0.375,
      "velocity": 0.56,
      "hand": "left"
    },
    {
      "midi": 63,
      "time": 23,
      "duration": 0.485,
      "velocity": 0.45,
      "hand": "right"
    },
    {
      "midi": 67,
      "time": 23,
      "duration": 0.375,
      "velocity": 0.42,
      "hand": "right"
    },
    {
      "midi": 39,
      "time": 23.25,
      "duration": 0.063,
      "velocity": 0.91,
      "hand": "left"
    },
    {
      "midi": 51,
      "time": 23.375,
      "duration": 0.063,
      "velocity": 0.61,
      "hand": "left"
    },
    {
      "midi": 38,
      "time": 23.5,
      "duration": 0.063,
      "velocity": 0.93,
      "hand": "left"
    },
    {
      "midi": 43,
      "time": 23.5,
      "duration": 0.375,
      "velocity": 0.96,
      "hand": "left"
    },
    {
      "midi": 63,
      "time": 23.5,
      "duration": 0.25,
      "velocity": 0.78,
      "hand": "right"
    },
    {
      "midi": 67,
      "time": 23.5,
      "duration": 0.235,
      "velocity": 0.25,
      "hand": "right"
    },
    {
      "midi": 67,
      "time": 23.75,
      "duration": 0.125,
      "velocity": 0.5,
      "hand": "right"
    },
    {
      "midi": 39,
      "time": 23.875,
      "duration": 0.063,
      "velocity": 0.72,
      "hand": "left"
    },
    {
      "midi": 51,
      "time": 23.875,
      "duration": 0.063,
      "velocity": 0.61,
      "hand": "left"
    },
    {
      "midi": 36,
      "time": 24,
      "duration": 1.25,
      "velocity": 0.97,
      "hand": "left"
    },
    {
      "midi": 47,
      "time": 24,
      "duration": 0.063,
      "velocity": 0.73,
      "hand": "left"
    },
    {
      "midi": 60,
      "time": 24,
      "duration": 0.36,
      "velocity": 0.5,
      "hand": "right"
    },
    {
      "midi": 63,
      "time": 24,
      "duration": 0.235,
      "velocity": 0.5,
      "hand": "right"
    },
    {
      "midi": 67,
      "time": 24,
      "duration": 0.36,
      "velocity": 0.63,
      "hand": "right"
    },
    {
      "midi": 63,
      "time": 24.25,
      "duration": 0.11,
      "velocity": 0.8,
      "hand": "right"
    },
    {
      "midi": 44,
      "time": 24.375,
      "duration": 0.063,
      "velocity": 0.61,
      "hand": "left"
    },
    {
      "midi": 55,
      "time": 24.375,
      "duration": 0.063,
      "velocity": 0.43,
      "hand": "left"
    },
    {
      "midi": 60,
      "time": 24.375,
      "duration": 0.063,
      "velocity": 0.58,
      "hand": "right"
    },
    {
      "midi": 63,
      "time": 24.375,
      "duration": 0.063,
      "velocity": 0.54,
      "hand": "right"
    },
    {
      "midi": 67,
      "time": 24.375,
      "duration": 0.063,
      "velocity": 0.43,
      "hand": "right"
    },
    {
      "midi": 38,
      "time": 24.5,
      "duration": 0.063,
      "velocity": 0.83,
      "hand": "left"
    },
    {
      "midi": 44,
      "time": 24.5,
      "duration": 0.063,
      "velocity": 0.61,
      "hand": "left"
    },
    {
      "midi": 60,
      "time": 24.5,
      "duration": 0.375,
      "velocity": 0.61,
      "hand": "right"
    },
    {
      "midi": 63,
      "time": 24.5,
      "duration": 0.063,
      "velocity": 0.39,
      "hand": "right"
    },
    {
      "midi": 67,
      "time": 24.5,
      "duration": 0.125,
      "velocity": 0.48,
      "hand": "right"
    },
    {
      "midi": 55,
      "time": 24.75,
      "duration": 0.235,
      "velocity": 0.74,
      "hand": "left"
    },
    {
      "midi": 44,
      "time": 24.875,
      "duration": 0.063,
      "velocity": 0.61,
      "hand": "left"
    },
    {
      "midi": 38,
      "time": 25,
      "duration": 0.063,
      "velocity": 0.91,
      "hand": "left"
    },
    {
      "midi": 44,
      "time": 25,
      "duration": 0.063,
      "velocity": 0.61,
      "hand": "left"
    },
    {
      "midi": 60,
      "time": 25,
      "duration": 0.375,
      "velocity": 0.74,
      "hand": "right"
    },
    {
      "midi": 63,
      "time": 25,
      "duration": 0.235,
      "velocity": 0.73,
      "hand": "right"
    },
    {
      "midi": 67,
      "time": 25,
      "duration": 0.125,
      "velocity": 0.54,
      "hand": "right"
    },
    {
      "midi": 43,
      "time": 25.25,
      "duration": 0.125,
      "velocity": 0.94,
      "hand": "left"
    },
    {
      "midi": 63,
      "time": 25.25,
      "duration": 0.125,
      "velocity": 0.51,
      "hand": "right"
    },
    {
      "midi": 67,
      "time": 25.25,
      "duration": 0.235,
      "velocity": 0.52,
      "hand": "right"
    },
    {
      "midi": 44,
      "time": 25.375,
      "duration": 0.063,
      "velocity": 0.61,
      "hand": "left"
    },
    {
      "midi": 36,
      "time": 25.5,
      "duration": 1,
      "velocity": 0.97,
      "hand": "left"
    },
    {
      "midi": 47,
      "time": 25.5,
      "duration": 0.063,
      "velocity": 0.72,
      "hand": "left"
    },
    {
      "midi": 60,
      "time": 25.5,
      "duration": 0.36,
      "velocity": 0.55,
      "hand": "right"
    },
    {
      "midi": 63,
      "time": 25.5,
      "duration": 0.36,
      "velocity": 0.46,
      "hand": "right"
    },
    {
      "midi": 67,
      "time": 25.5,
      "duration": 0.36,
      "velocity": 0.56,
      "hand": "right"
    },
    {
      "midi": 38,
      "time": 25.875,
      "duration": 0.063,
      "velocity": 0.97,
      "hand": "left"
    },
    {
      "midi": 44,
      "time": 25.875,
      "duration": 0.063,
      "velocity": 0.61,
      "hand": "left"
    },
    {
      "midi": 60,
      "time": 25.875,
      "duration": 0.063,
      "velocity": 0.48,
      "hand": "right"
    },
    {
      "midi": 63,
      "time": 25.875,
      "duration": 0.063,
      "velocity": 0.46,
      "hand": "right"
    },
    {
      "midi": 67,
      "time": 25.875,
      "duration": 0.11,
      "velocity": 0.34,
      "hand": "right"
    },
    {
      "midi": 38,
      "time": 26,
      "duration": 0.063,
      "velocity": 0.7,
      "hand": "left"
    },
    {
      "midi": 51,
      "time": 26,
      "duration": 1,
      "velocity": 0.57,
      "hand": "left"
    },
    {
      "midi": 60,
      "time": 26,
      "duration": 0.063,
      "velocity": 0.44,
      "hand": "right"
    },
    {
      "midi": 63,
      "time": 26,
      "duration": 0.125,
      "velocity": 0.51,
      "hand": "right"
    },
    {
      "midi": 67,
      "time": 26,
      "duration": 0.125,
      "velocity": 0.28,
      "hand": "right"
    },
    {
      "midi": 44,
      "time": 26.125,
      "duration": 0.063,
      "velocity": 0.61,
      "hand": "left"
    },
    {
      "midi": 44,
      "time": 26.375,
      "duration": 0.063,
      "velocity": 0.61,
      "hand": "left"
    },
    {
      "midi": 38,
      "time": 26.5,
      "duration": 0.063,
      "velocity": 0.9,
      "hand": "left"
    },
    {
      "midi": 43,
      "time": 26.5,
      "duration": 0.375,
      "velocity": 0.99,
      "hand": "left"
    },
    {
      "midi": 60,
      "time": 26.5,
      "duration": 0.25,
      "velocity": 0.72,
      "hand": "right"
    },
    {
      "midi": 63,
      "time": 26.5,
      "duration": 0.25,
      "velocity": 0.74,
      "hand": "right"
    },
    {
      "midi": 67,
      "time": 26.5,
      "duration": 0.25,
      "velocity": 0.75,
      "hand": "right"
    },
    {
      "midi": 55,
      "time": 26.75,
      "duration": 0.125,
      "velocity": 0.54,
      "hand": "left"
    },
    {
      "midi": 44,
      "time": 26.875,
      "duration": 0.063,
      "velocity": 0.61,
      "hand": "left"
    },
    {
      "midi": 67,
      "time": 26.875,
      "duration": 0.11,
      "velocity": 0.55,
      "hand": "right"
    },
    {
      "midi": 40,
      "time": 27,
      "duration": 1,
      "velocity": 0.98,
      "hand": "left"
    },
    {
      "midi": 43,
      "time": 27,
      "duration": 0.875,
      "velocity": 0.65,
      "hand": "left"
    },
    {
      "midi": 60,
      "time": 27,
      "duration": 0.36,
      "velocity": 0.72,
      "hand": "right"
    },
    {
      "midi": 64,
      "time": 27,
      "duration": 0.36,
      "velocity": 0.51,
      "hand": "right"
    },
    {
      "midi": 68,
      "time": 27,
      "duration": 0.375,
      "velocity": 0.51,
      "hand": "right"
    },
    {
      "midi": 44,
      "time": 27.375,
      "duration": 0.063,
      "velocity": 0.61,
      "hand": "left"
    },
    {
      "midi": 55,
      "time": 27.375,
      "duration": 0.063,
      "velocity": 0.45,
      "hand": "left"
    },
    {
      "midi": 60,
      "time": 27.375,
      "duration": 0.063,
      "velocity": 0.51,
      "hand": "right"
    },
    {
      "midi": 64,
      "time": 27.375,
      "duration": 0.063,
      "velocity": 0.22,
      "hand": "right"
    },
    {
      "midi": 38,
      "time": 27.5,
      "duration": 0.063,
      "velocity": 0.8,
      "hand": "left"
    },
    {
      "midi": 44,
      "time": 27.5,
      "duration": 0.063,
      "velocity": 0.61,
      "hand": "left"
    },
    {
      "midi": 60,
      "time": 27.5,
      "duration": 0.063,
      "velocity": 0.57,
      "hand": "right"
    },
    {
      "midi": 64,
      "time": 27.5,
      "duration": 0.063,
      "velocity": 0.46,
      "hand": "right"
    },
    {
      "midi": 67,
      "time": 27.5,
      "duration": 0.5,
      "velocity": 0.52,
      "hand": "right"
    },
    {
      "midi": 44,
      "time": 27.875,
      "duration": 0.063,
      "velocity": 0.61,
      "hand": "left"
    },
    {
      "midi": 38,
      "time": 28,
      "duration": 0.25,
      "velocity": 0.95,
      "hand": "left"
    },
    {
      "midi": 44,
      "time": 28,
      "duration": 0.063,
      "velocity": 0.61,
      "hand": "left"
    },
    {
      "midi": 60,
      "time": 28,
      "duration": 0.25,
      "velocity": 0.68,
      "hand": "right"
    },
    {
      "midi": 65,
      "time": 28,
      "duration": 0.25,
      "velocity": 0.61,
      "hand": "right"
    },
    {
      "midi": 36,
      "time": 28.25,
      "duration": 0.25,
      "velocity": 0.94,
      "hand": "left"
    },
    {
      "midi": 55,
      "time": 28.25,
      "duration": 0.125,
      "velocity": 0.61,
      "hand": "left"
    },
    {
      "midi": 64,
      "time": 28.25,
      "duration": 0.25,
      "velocity": 0.54,
      "hand": "right"
    },
    {
      "midi": 44,
      "time": 28.375,
      "duration": 0.063,
      "velocity": 0.61,
      "hand": "left"
    },
    {
      "midi": 41,
      "time": 28.5,
      "duration": 1.125,
      "velocity": 0.99,
      "hand": "left"
    },
    {
      "midi": 47,
      "time": 28.5,
      "duration": 0.063,
      "velocity": 0.75,
      "hand": "left"
    },
    {
      "midi": 65,
      "time": 28.5,
      "duration": 0.36,
      "velocity": 0.51,
      "hand": "right"
    },
    {
      "midi": 68,
      "time": 28.5,
      "duration": 1.985,
      "velocity": 0.44,
      "hand": "right"
    },
    {
      "midi": 60,
      "time": 28.75,
      "duration": 0.11,
      "velocity": 0.72,
      "hand": "right"
    },
    {
      "midi": 38,
      "time": 28.875,
      "duration": 0.063,
      "velocity": 0.97,
      "hand": "left"
    },
    {
      "midi": 44,
      "time": 28.875,
      "duration": 0.063,
      "velocity": 0.61,
      "hand": "left"
    },
    {
      "midi": 60,
      "time": 28.875,
      "duration": 0.11,
      "velocity": 0.48,
      "hand": "right"
    },
    {
      "midi": 63,
      "time": 28.875,
      "duration": 0.11,
      "velocity": 0.42,
      "hand": "right"
    },
    {
      "midi": 65,
      "time": 28.875,
      "duration": 0.11,
      "velocity": 0.46,
      "hand": "right"
    },
    {
      "midi": 38,
      "time": 29,
      "duration": 0.063,
      "velocity": 0.65,
      "hand": "left"
    },
    {
      "midi": 44,
      "time": 29,
      "duration": 0.063,
      "velocity": 0.61,
      "hand": "left"
    },
    {
      "midi": 60,
      "time": 29,
      "duration": 0.063,
      "velocity": 0.45,
      "hand": "right"
    },
    {
      "midi": 63,
      "time": 29,
      "duration": 0.485,
      "velocity": 0.56,
      "hand": "right"
    },
    {
      "midi": 65,
      "time": 29,
      "duration": 0.063,
      "velocity": 0.52,
      "hand": "right"
    },
    {
      "midi": 65,
      "time": 29.25,
      "duration": 0.235,
      "velocity": 0.54,
      "hand": "right"
    },
    {
      "midi": 44,
      "time": 29.375,
      "duration": 0.063,
      "velocity": 0.61,
      "hand": "left"
    },
    {
      "midi": 36,
      "time": 29.5,
      "duration": 0.25,
      "velocity": 0.94,
      "hand": "left"
    },
    {
      "midi": 38,
      "time": 29.5,
      "duration": 0.063,
      "velocity": 0.91,
      "hand": "left"
    },
    {
      "midi": 60,
      "time": 29.5,
      "duration": 0.063,
      "velocity": 0.59,
      "hand": "right"
    },
    {
      "midi": 63,
      "time": 29.5,
      "duration": 0.125,
      "velocity": 0.54,
      "hand": "right"
    },
    {
      "midi": 65,
      "time": 29.5,
      "duration": 0.125,
      "velocity": 0.5,
      "hand": "right"
    },
    {
      "midi": 67,
      "time": 29.5,
      "duration": 0.25,
      "velocity": 0.73,
      "hand": "right"
    },
    {
      "midi": 48,
      "time": 29.625,
      "duration": 0.375,
      "velocity": 0.48,
      "hand": "left"
    },
    {
      "midi": 41,
      "time": 29.75,
      "duration": 0.125,
      "velocity": 0.91,
      "hand": "left"
    },
    {
      "midi": 44,
      "time": 29.75,
      "duration": 0.11,
      "velocity": 0.44,
      "hand": "left"
    },
    {
      "midi": 60,
      "time": 29.75,
      "duration": 0.25,
      "velocity": 0.59,
      "hand": "right"
    },
    {
      "midi": 44,
      "time": 29.875,
      "duration": 0.063,
      "velocity": 0.61,
      "hand": "left"
    },
    {
      "midi": 67,
      "time": 29.875,
      "duration": 0.125,
      "velocity": 0.57,
      "hand": "right"
    },
    {
      "midi": 41,
      "time": 30,
      "duration": 0.985,
      "velocity": 0.52,
      "hand": "left"
    },
    {
      "midi": 46,
      "time": 30,
      "duration": 1,
      "velocity": 1,
      "hand": "left"
    },
    {
      "midi": 63,
      "time": 30,
      "duration": 0.235,
      "velocity": 0.32,
      "hand": "right"
    },
    {
      "midi": 65,
      "time": 30,
      "duration": 0.36,
      "velocity": 0.57,
      "hand": "right"
    },
    {
      "midi": 70,
      "time": 30,
      "duration": 0.375,
      "velocity": 0.65,
      "hand": "right"
    },
    {
      "midi": 63,
      "time": 30.25,
      "duration": 0.11,
      "velocity": 0.56,
      "hand": "right"
    },
    {
      "midi": 44,
      "time": 30.375,
      "duration": 0.063,
      "velocity": 0.61,
      "hand": "left"
    },
    {
      "midi": 56,
      "time": 30.375,
      "duration": 0.063,
      "velocity": 0.5,
      "hand": "left"
    },
    {
      "midi": 60,
      "time": 30.375,
      "duration": 0.063,
      "velocity": 0.54,
      "hand": "right"
    },
    {
      "midi": 63,
      "time": 30.375,
      "duration": 0.063,
      "velocity": 0.5,
      "hand": "right"
    },
    {
      "midi": 65,
      "time": 30.375,
      "duration": 0.063,
      "velocity": 0.44,
      "hand": "right"
    },
    {
      "midi": 38,
      "time": 30.5,
      "duration": 0.063,
      "velocity": 0.9,
      "hand": "left"
    },
    {
      "midi": 44,
      "time": 30.5,
      "duration": 0.063,
      "velocity": 0.61,
      "hand": "left"
    },
    {
      "midi": 60,
      "time": 30.5,
      "duration": 0.375,
      "velocity": 0.56,
      "hand": "right"
    },
    {
      "midi": 63,
      "time": 30.5,
      "duration": 0.063,
      "velocity": 0.49,
      "hand": "right"
    },
    {
      "midi": 65,
      "time": 30.5,
      "duration": 0.063,
      "velocity": 0.5,
      "hand": "right"
    },
    {
      "midi": 68,
      "time": 30.5,
      "duration": 0.5,
      "velocity": 0.61,
      "hand": "right"
    },
    {
      "midi": 56,
      "time": 30.75,
      "duration": 0.235,
      "velocity": 0.72,
      "hand": "left"
    },
    {
      "midi": 44,
      "time": 30.875,
      "duration": 0.063,
      "velocity": 0.61,
      "hand": "left"
    },
    {
      "midi": 38,
      "time": 31,
      "duration": 0.063,
      "velocity": 0.9,
      "hand": "left"
    },
    {
      "midi": 41,
      "time": 31,
      "duration": 0.25,
      "velocity": 0.91,
      "hand": "left"
    },
    {
      "midi": 60,
      "time": 31,
      "duration": 0.375,
      "velocity": 0.64,
      "hand": "right"
    },
    {
      "midi": 63,
      "time": 31,
      "duration": 0.375,
      "velocity": 0.52,
      "hand": "right"
    },
    {
      "midi": 65,
      "time": 31,
      "duration": 0.235,
      "velocity": 0.52,
      "hand": "right"
    },
    {
      "midi": 67,
      "time": 31,
      "duration": 0.25,
      "velocity": 0.61,
      "hand": "right"
    },
    {
      "midi": 46,
      "time": 31.25,
      "duration": 0.25,
      "velocity": 1,
      "hand": "left"
    },
    {
      "midi": 56,
      "time": 31.25,
      "duration": 0.125,
      "velocity": 0.73,
      "hand": "left"
    },
    {
      "midi": 65,
      "time": 31.25,
      "duration": 0.25,
      "velocity": 0.56,
      "hand": "right"
    },
    {
      "midi": 44,
      "time": 31.375,
      "duration": 0.063,
      "velocity": 0.61,
      "hand": "left"
    },
    {
      "midi": 36,
      "time": 31.5,
      "duration": 1,
      "velocity": 0.95,
      "hand": "left"
    },
    {
      "midi": 47,
      "time": 31.5,
      "duration": 0.063,
      "velocity": 0.81,
      "hand": "left"
    },
    {
      "midi": 60,
      "time": 31.5,
      "duration": 0.36,
      "velocity": 0.56,
      "hand": "right"
    },
    {
      "midi": 63,
      "time": 31.5,
      "duration": 0.36,
      "velocity": 0.55,
      "hand": "right"
    },
    {
      "midi": 68,
      "time": 31.5,
      "duration": 0.375,
      "velocity": 0.72,
      "hand": "right"
    },
    {
      "midi": 51,
      "time": 31.75,
      "duration": 1.25,
      "velocity": 0.35,
      "hand": "left"
    },
    {
      "midi": 38,
      "time": 31.875,
      "duration": 0.063,
      "velocity": 0.97,
      "hand": "left"
    },
    {
      "midi": 44,
      "time": 31.875,
      "duration": 0.063,
      "velocity": 0.61,
      "hand": "left"
    },
    {
      "midi": 60,
      "time": 31.875,
      "duration": 0.063,
      "velocity": 0.52,
      "hand": "right"
    },
    {
      "midi": 63,
      "time": 31.875,
      "duration": 0.063,
      "velocity": 0.46,
      "hand": "right"
    },
    {
      "midi": 67,
      "time": 31.875,
      "duration": 0.063,
      "velocity": 0.4,
      "hand": "right"
    },
    {
      "midi": 38,
      "time": 32,
      "duration": 0.063,
      "velocity": 0.69,
      "hand": "left"
    },
    {
      "midi": 44,
      "time": 32,
      "duration": 0.063,
      "velocity": 0.61,
      "hand": "left"
    },
    {
      "midi": 60,
      "time": 32,
      "duration": 0.375,
      "velocity": 0.58,
      "hand": "right"
    },
    {
      "midi": 63,
      "time": 32,
      "duration": 0.375,
      "velocity": 0.54,
      "hand": "right"
    },
    {
      "midi": 67,
      "time": 32,
      "duration": 0.485,
      "velocity": 0.54,
      "hand": "right"
    },
    {
      "midi": 44,
      "time": 32.375,
      "duration": 0.063,
      "velocity": 0.61,
      "hand": "left"
    },
    {
      "midi": 38,
      "time": 32.5,
      "duration": 0.063,
      "velocity": 0.91,
      "hand": "left"
    },
    {
      "midi": 44,
      "time": 32.5,
      "duration": 0.063,
      "velocity": 0.61,
      "hand": "left"
    },
    {
      "midi": 60,
      "time": 32.5,
      "duration": 0.25,
      "velocity": 0.65,
      "hand": "right"
    },
    {
      "midi": 63,
      "time": 32.5,
      "duration": 0.25,
      "velocity": 0.59,
      "hand": "right"
    },
    {
      "midi": 67,
      "time": 32.5,
      "duration": 0.25,
      "velocity": 0.7,
      "hand": "right"
    },
    {
      "midi": 45,
      "time": 32.75,
      "duration": 0.25,
      "velocity": 0.97,
      "hand": "left"
    },
    {
      "midi": 55,
      "time": 32.75,
      "duration": 0.125,
      "velocity": 0.57,
      "hand": "left"
    },
    {
      "midi": 44,
      "time": 32.875,
      "duration": 0.063,
      "velocity": 0.61,
      "hand": "left"
    },
    {
      "midi": 68,
      "time": 32.875,
      "duration": 0.125,
      "velocity": 0.46,
      "hand": "right"
    },
    {
      "midi": 43,
      "time": 33,
      "duration": 1.235,
      "velocity": 1,
      "hand": "left"
    },
    {
      "midi": 47,
      "time": 33,
      "duration": 0.063,
      "velocity": 0.73,
      "hand": "left"
    },
    {
      "midi": 62,
      "time": 33,
      "duration": 0.36,
      "velocity": 0.54,
      "hand": "right"
    },
    {
      "midi": 67,
      "time": 33,
      "duration": 0.485,
      "velocity": 0.56,
      "hand": "right"
    },
    {
      "midi": 44,
      "time": 33.375,
      "duration": 0.063,
      "velocity": 0.61,
      "hand": "left"
    },
    {
      "midi": 55,
      "time": 33.375,
      "duration": 0.063,
      "velocity": 0.48,
      "hand": "left"
    },
    {
      "midi": 62,
      "time": 33.375,
      "duration": 0.11,
      "velocity": 0.56,
      "hand": "right"
    },
    {
      "midi": 38,
      "time": 33.5,
      "duration": 0.485,
      "velocity": 0.86,
      "hand": "left"
    },
    {
      "midi": 44,
      "time": 33.5,
      "duration": 0.063,
      "velocity": 0.61,
      "hand": "left"
    },
    {
      "midi": 62,
      "time": 33.5,
      "duration": 0.375,
      "velocity": 0.54,
      "hand": "right"
    },
    {
      "midi": 65,
      "time": 33.5,
      "duration": 0.485,
      "velocity": 0.56,
      "hand": "right"
    },
    {
      "midi": 67,
      "time": 33.5,
      "duration": 0.063,
      "velocity": 0.52,
      "hand": "right"
    },
    {
      "midi": 44,
      "time": 33.875,
      "duration": 0.063,
      "velocity": 0.61,
      "hand": "left"
    },
    {
      "midi": 38,
      "time": 34,
      "duration": 0.063,
      "velocity": 0.91,
      "hand": "left"
    },
    {
      "midi": 44,
      "time": 34,
      "duration": 0.063,
      "velocity": 0.61,
      "hand": "left"
    },
    {
      "midi": 63,
      "time": 34,
      "duration": 0.25,
      "velocity": 0.48,
      "hand": "right"
    },
    {
      "midi": 65,
      "time": 34,
      "duration": 0.25,
      "velocity": 0.52,
      "hand": "right"
    },
    {
      "midi": 43,
      "time": 34.25,
      "duration": 0.25,
      "velocity": 0.94,
      "hand": "left"
    },
    {
      "midi": 62,
      "time": 34.25,
      "duration": 0.235,
      "velocity": 0.57,
      "hand": "right"
    },
    {
      "midi": 44,
      "time": 34.375,
      "duration": 0.063,
      "velocity": 0.61,
      "hand": "left"
    },
    {
      "midi": 36,
      "time": 34.5,
      "duration": 0.5,
      "velocity": 0.94,
      "hand": "left"
    },
    {
      "midi": 47,
      "time": 34.5,
      "duration": 0.063,
      "velocity": 0.72,
      "hand": "left"
    },
    {
      "midi": 63,
      "time": 34.5,
      "duration": 0.25,
      "velocity": 0.54,
      "hand": "right"
    },
    {
      "midi": 65,
      "time": 34.5,
      "duration": 0.25,
      "velocity": 0.57,
      "hand": "right"
    },
    {
      "midi": 67,
      "time": 34.5,
      "duration": 0.125,
      "velocity": 0.49,
      "hand": "right"
    },
    {
      "midi": 60,
      "time": 34.75,
      "duration": 0.125,
      "velocity": 0.24,
      "hand": "right"
    },
    {
      "midi": 38,
      "time": 34.875,
      "duration": 0.063,
      "velocity": 0.91,
      "hand": "left"
    },
    {
      "midi": 44,
      "time": 34.875,
      "duration": 0.063,
      "velocity": 0.61,
      "hand": "left"
    },
    {
      "midi": 39,
      "time": 35,
      "duration": 0.063,
      "velocity": 0.94,
      "hand": "left"
    },
    {
      "midi": 60,
      "time": 35,
      "duration": 0.25,
      "velocity": 0.59,
      "hand": "right"
    },
    {
      "midi": 62,
      "time": 35,
      "duration": 0.375,
      "velocity": 0.72,
      "hand": "right"
    },
    {
      "midi": 65,
      "time": 35,
      "duration": 0.375,
      "velocity": 0.53,
      "hand": "right"
    },
    {
      "midi": 44,
      "time": 35.125,
      "duration": 0.063,
      "velocity": 0.61,
      "hand": "left"
    },
    {
      "midi": 43,
      "time": 35.25,
      "duration": 0.063,
      "velocity": 0.87,
      "hand": "left"
    },
    {
      "midi": 44,
      "time": 35.5,
      "duration": 0.5,
      "velocity": 1,
      "hand": "left"
    },
    {
      "midi": 48,
      "time": 35.5,
      "duration": 0.063,
      "velocity": 0.81,
      "hand": "left"
    },
    {
      "midi": 63,
      "time": 35.5,
      "duration": 0.375,
      "velocity": 0.78,
      "hand": "right"
    },
    {
      "midi": 45,
      "time": 35.75,
      "duration": 0.063,
      "velocity": 0.81,
      "hand": "left"
    },
    {
      "midi": 67,
      "time": 35.75,
      "duration": 0.125,
      "velocity": 0.5,
      "hand": "right"
    },
    {
      "midi": 38,
      "time": 35.875,
      "duration": 0.063,
      "velocity": 0.96,
      "hand": "left"
    },
    {
      "midi": 36,
      "time": 36,
      "duration": 1.25,
      "velocity": 0.97,
      "hand": "left"
    },
    {
      "midi": 47,
      "time": 36,
      "duration": 0.063,
      "velocity": 0.77,
      "hand": "left"
    },
    {
      "midi": 60,
      "time": 36,
      "duration": 0.36,
      "velocity": 0.5,
      "hand": "right"
    },
    {
      "midi": 63,
      "time": 36,
      "duration": 0.235,
      "velocity": 0.5,
      "hand": "right"
    },
    {
      "midi": 67,
      "time": 36,
      "duration": 0.36,
      "velocity": 0.63,
      "hand": "right"
    },
    {
      "midi": 63,
      "time": 36.25,
      "duration": 0.11,
      "velocity": 0.8,
      "hand": "right"
    },
    {
      "midi": 44,
      "time": 36.375,
      "duration": 0.063,
      "velocity": 0.61,
      "hand": "left"
    },
    {
      "midi": 55,
      "time": 36.375,
      "duration": 0.063,
      "velocity": 0.43,
      "hand": "left"
    },
    {
      "midi": 60,
      "time": 36.375,
      "duration": 0.063,
      "velocity": 0.58,
      "hand": "right"
    },
    {
      "midi": 63,
      "time": 36.375,
      "duration": 0.063,
      "velocity": 0.54,
      "hand": "right"
    },
    {
      "midi": 67,
      "time": 36.375,
      "duration": 0.063,
      "velocity": 0.43,
      "hand": "right"
    },
    {
      "midi": 38,
      "time": 36.5,
      "duration": 0.063,
      "velocity": 0.8,
      "hand": "left"
    },
    {
      "midi": 44,
      "time": 36.5,
      "duration": 0.063,
      "velocity": 0.61,
      "hand": "left"
    },
    {
      "midi": 60,
      "time": 36.5,
      "duration": 0.375,
      "velocity": 0.61,
      "hand": "right"
    },
    {
      "midi": 63,
      "time": 36.5,
      "duration": 0.063,
      "velocity": 0.39,
      "hand": "right"
    },
    {
      "midi": 67,
      "time": 36.5,
      "duration": 0.125,
      "velocity": 0.48,
      "hand": "right"
    },
    {
      "midi": 55,
      "time": 36.75,
      "duration": 0.235,
      "velocity": 0.74,
      "hand": "left"
    },
    {
      "midi": 44,
      "time": 36.875,
      "duration": 0.063,
      "velocity": 0.61,
      "hand": "left"
    },
    {
      "midi": 38,
      "time": 37,
      "duration": 0.063,
      "velocity": 0.91,
      "hand": "left"
    },
    {
      "midi": 44,
      "time": 37,
      "duration": 0.063,
      "velocity": 0.61,
      "hand": "left"
    },
    {
      "midi": 60,
      "time": 37,
      "duration": 0.375,
      "velocity": 0.74,
      "hand": "right"
    },
    {
      "midi": 63,
      "time": 37,
      "duration": 0.235,
      "velocity": 0.73,
      "hand": "right"
    },
    {
      "midi": 67,
      "time": 37,
      "duration": 0.125,
      "velocity": 0.54,
      "hand": "right"
    },
    {
      "midi": 43,
      "time": 37.25,
      "duration": 0.125,
      "velocity": 0.94,
      "hand": "left"
    },
    {
      "midi": 63,
      "time": 37.25,
      "duration": 0.125,
      "velocity": 0.51,
      "hand": "right"
    },
    {
      "midi": 67,
      "time": 37.25,
      "duration": 0.235,
      "velocity": 0.52,
      "hand": "right"
    },
    {
      "midi": 44,
      "time": 37.375,
      "duration": 0.063,
      "velocity": 0.61,
      "hand": "left"
    },
    {
      "midi": 36,
      "time": 37.5,
      "duration": 1,
      "velocity": 0.97,
      "hand": "left"
    },
    {
      "midi": 47,
      "time": 37.5,
      "duration": 0.063,
      "velocity": 0.75,
      "hand": "left"
    },
    {
      "midi": 60,
      "time": 37.5,
      "duration": 0.36,
      "velocity": 0.55,
      "hand": "right"
    },
    {
      "midi": 63,
      "time": 37.5,
      "duration": 0.36,
      "velocity": 0.46,
      "hand": "right"
    },
    {
      "midi": 67,
      "time": 37.5,
      "duration": 0.36,
      "velocity": 0.56,
      "hand": "right"
    },
    {
      "midi": 38,
      "time": 37.875,
      "duration": 0.063,
      "velocity": 0.97,
      "hand": "left"
    },
    {
      "midi": 44,
      "time": 37.875,
      "duration": 0.063,
      "velocity": 0.61,
      "hand": "left"
    },
    {
      "midi": 60,
      "time": 37.875,
      "duration": 0.063,
      "velocity": 0.48,
      "hand": "right"
    },
    {
      "midi": 63,
      "time": 37.875,
      "duration": 0.063,
      "velocity": 0.46,
      "hand": "right"
    },
    {
      "midi": 67,
      "time": 37.875,
      "duration": 0.11,
      "velocity": 0.34,
      "hand": "right"
    },
    {
      "midi": 38,
      "time": 38,
      "duration": 0.063,
      "velocity": 0.65,
      "hand": "left"
    },
    {
      "midi": 44,
      "time": 38,
      "duration": 0.063,
      "velocity": 0.61,
      "hand": "left"
    },
    {
      "midi": 60,
      "time": 38,
      "duration": 0.063,
      "velocity": 0.44,
      "hand": "right"
    },
    {
      "midi": 63,
      "time": 38,
      "duration": 0.125,
      "velocity": 0.51,
      "hand": "right"
    },
    {
      "midi": 67,
      "time": 38,
      "duration": 0.125,
      "velocity": 0.28,
      "hand": "right"
    },
    {
      "midi": 44,
      "time": 38.375,
      "duration": 0.063,
      "velocity": 0.61,
      "hand": "left"
    },
    {
      "midi": 38,
      "time": 38.5,
      "duration": 0.063,
      "velocity": 0.91,
      "hand": "left"
    },
    {
      "midi": 43,
      "time": 38.5,
      "duration": 0.375,
      "velocity": 0.99,
      "hand": "left"
    },
    {
      "midi": 60,
      "time": 38.5,
      "duration": 0.25,
      "velocity": 0.72,
      "hand": "right"
    },
    {
      "midi": 63,
      "time": 38.5,
      "duration": 0.25,
      "velocity": 0.74,
      "hand": "right"
    },
    {
      "midi": 67,
      "time": 38.5,
      "duration": 0.25,
      "velocity": 0.75,
      "hand": "right"
    },
    {
      "midi": 55,
      "time": 38.75,
      "duration": 0.125,
      "velocity": 0.54,
      "hand": "left"
    },
    {
      "midi": 44,
      "time": 38.875,
      "duration": 0.063,
      "velocity": 0.61,
      "hand": "left"
    },
    {
      "midi": 67,
      "time": 38.875,
      "duration": 0.11,
      "velocity": 0.55,
      "hand": "right"
    },
    {
      "midi": 40,
      "time": 39,
      "duration": 1,
      "velocity": 0.98,
      "hand": "left"
    },
    {
      "midi": 43,
      "time": 39,
      "duration": 0.875,
      "velocity": 0.65,
      "hand": "left"
    },
    {
      "midi": 60,
      "time": 39,
      "duration": 0.36,
      "velocity": 0.72,
      "hand": "right"
    },
    {
      "midi": 64,
      "time": 39,
      "duration": 0.36,
      "velocity": 0.51,
      "hand": "right"
    },
    {
      "midi": 68,
      "time": 39,
      "duration": 0.375,
      "velocity": 0.51,
      "hand": "right"
    },
    {
      "midi": 44,
      "time": 39.375,
      "duration": 0.063,
      "velocity": 0.61,
      "hand": "left"
    },
    {
      "midi": 55,
      "time": 39.375,
      "duration": 0.063,
      "velocity": 0.45,
      "hand": "left"
    },
    {
      "midi": 60,
      "time": 39.375,
      "duration": 0.063,
      "velocity": 0.51,
      "hand": "right"
    },
    {
      "midi": 64,
      "time": 39.375,
      "duration": 0.063,
      "velocity": 0.22,
      "hand": "right"
    },
    {
      "midi": 38,
      "time": 39.5,
      "duration": 0.063,
      "velocity": 0.9,
      "hand": "left"
    },
    {
      "midi": 44,
      "time": 39.5,
      "duration": 0.063,
      "velocity": 0.61,
      "hand": "left"
    },
    {
      "midi": 60,
      "time": 39.5,
      "duration": 0.063,
      "velocity": 0.57,
      "hand": "right"
    },
    {
      "midi": 64,
      "time": 39.5,
      "duration": 0.063,
      "velocity": 0.46,
      "hand": "right"
    },
    {
      "midi": 67,
      "time": 39.5,
      "duration": 0.5,
      "velocity": 0.52,
      "hand": "right"
    },
    {
      "midi": 44,
      "time": 39.875,
      "duration": 0.063,
      "velocity": 0.61,
      "hand": "left"
    },
    {
      "midi": 38,
      "time": 40,
      "duration": 0.25,
      "velocity": 0.95,
      "hand": "left"
    },
    {
      "midi": 44,
      "time": 40,
      "duration": 0.063,
      "velocity": 0.61,
      "hand": "left"
    },
    {
      "midi": 60,
      "time": 40,
      "duration": 0.25,
      "velocity": 0.68,
      "hand": "right"
    },
    {
      "midi": 65,
      "time": 40,
      "duration": 0.25,
      "velocity": 0.61,
      "hand": "right"
    },
    {
      "midi": 36,
      "time": 40.25,
      "duration": 0.25,
      "velocity": 0.94,
      "hand": "left"
    },
    {
      "midi": 55,
      "time": 40.25,
      "duration": 0.125,
      "velocity": 0.61,
      "hand": "left"
    },
    {
      "midi": 64,
      "time": 40.25,
      "duration": 0.25,
      "velocity": 0.54,
      "hand": "right"
    },
    {
      "midi": 44,
      "time": 40.375,
      "duration": 0.063,
      "velocity": 0.61,
      "hand": "left"
    },
    {
      "midi": 41,
      "time": 40.5,
      "duration": 1.125,
      "velocity": 0.99,
      "hand": "left"
    },
    {
      "midi": 47,
      "time": 40.5,
      "duration": 0.063,
      "velocity": 0.81,
      "hand": "left"
    },
    {
      "midi": 65,
      "time": 40.5,
      "duration": 0.36,
      "velocity": 0.51,
      "hand": "right"
    },
    {
      "midi": 68,
      "time": 40.5,
      "duration": 1.985,
      "velocity": 0.44,
      "hand": "right"
    },
    {
      "midi": 60,
      "time": 40.75,
      "duration": 0.11,
      "velocity": 0.72,
      "hand": "right"
    },
    {
      "midi": 38,
      "time": 40.875,
      "duration": 0.063,
      "velocity": 0.97,
      "hand": "left"
    },
    {
      "midi": 44,
      "time": 40.875,
      "duration": 0.063,
      "velocity": 0.61,
      "hand": "left"
    },
    {
      "midi": 60,
      "time": 40.875,
      "duration": 0.11,
      "velocity": 0.48,
      "hand": "right"
    },
    {
      "midi": 63,
      "time": 40.875,
      "duration": 0.11,
      "velocity": 0.42,
      "hand": "right"
    },
    {
      "midi": 65,
      "time": 40.875,
      "duration": 0.11,
      "velocity": 0.46,
      "hand": "right"
    },
    {
      "midi": 38,
      "time": 41,
      "duration": 0.063,
      "velocity": 0.69,
      "hand": "left"
    },
    {
      "midi": 44,
      "time": 41,
      "duration": 0.063,
      "velocity": 0.61,
      "hand": "left"
    },
    {
      "midi": 60,
      "time": 41,
      "duration": 0.063,
      "velocity": 0.45,
      "hand": "right"
    },
    {
      "midi": 63,
      "time": 41,
      "duration": 0.485,
      "velocity": 0.56,
      "hand": "right"
    },
    {
      "midi": 65,
      "time": 41,
      "duration": 0.063,
      "velocity": 0.52,
      "hand": "right"
    },
    {
      "midi": 65,
      "time": 41.25,
      "duration": 0.235,
      "velocity": 0.54,
      "hand": "right"
    },
    {
      "midi": 44,
      "time": 41.375,
      "duration": 0.063,
      "velocity": 0.61,
      "hand": "left"
    },
    {
      "midi": 36,
      "time": 41.5,
      "duration": 0.25,
      "velocity": 0.94,
      "hand": "left"
    },
    {
      "midi": 38,
      "time": 41.5,
      "duration": 0.063,
      "velocity": 0.91,
      "hand": "left"
    },
    {
      "midi": 60,
      "time": 41.5,
      "duration": 0.063,
      "velocity": 0.59,
      "hand": "right"
    },
    {
      "midi": 63,
      "time": 41.5,
      "duration": 0.125,
      "velocity": 0.54,
      "hand": "right"
    },
    {
      "midi": 65,
      "time": 41.5,
      "duration": 0.125,
      "velocity": 0.5,
      "hand": "right"
    },
    {
      "midi": 67,
      "time": 41.5,
      "duration": 0.25,
      "velocity": 0.73,
      "hand": "right"
    },
    {
      "midi": 48,
      "time": 41.625,
      "duration": 0.375,
      "velocity": 0.48,
      "hand": "left"
    },
    {
      "midi": 41,
      "time": 41.75,
      "duration": 0.125,
      "velocity": 0.91,
      "hand": "left"
    },
    {
      "midi": 44,
      "time": 41.75,
      "duration": 0.11,
      "velocity": 0.44,
      "hand": "left"
    },
    {
      "midi": 60,
      "time": 41.75,
      "duration": 0.25,
      "velocity": 0.59,
      "hand": "right"
    },
    {
      "midi": 44,
      "time": 41.875,
      "duration": 0.063,
      "velocity": 0.61,
      "hand": "left"
    },
    {
      "midi": 67,
      "time": 41.875,
      "duration": 0.125,
      "velocity": 0.57,
      "hand": "right"
    },
    {
      "midi": 41,
      "time": 42,
      "duration": 0.985,
      "velocity": 0.52,
      "hand": "left"
    },
    {
      "midi": 46,
      "time": 42,
      "duration": 1,
      "velocity": 1,
      "hand": "left"
    },
    {
      "midi": 63,
      "time": 42,
      "duration": 0.235,
      "velocity": 0.32,
      "hand": "right"
    },
    {
      "midi": 65,
      "time": 42,
      "duration": 0.36,
      "velocity": 0.57,
      "hand": "right"
    },
    {
      "midi": 70,
      "time": 42,
      "duration": 0.375,
      "velocity": 0.65,
      "hand": "right"
    },
    {
      "midi": 63,
      "time": 42.25,
      "duration": 0.11,
      "velocity": 0.56,
      "hand": "right"
    },
    {
      "midi": 44,
      "time": 42.375,
      "duration": 0.063,
      "velocity": 0.61,
      "hand": "left"
    },
    {
      "midi": 56,
      "time": 42.375,
      "duration": 0.063,
      "velocity": 0.5,
      "hand": "left"
    },
    {
      "midi": 60,
      "time": 42.375,
      "duration": 0.063,
      "velocity": 0.54,
      "hand": "right"
    },
    {
      "midi": 63,
      "time": 42.375,
      "duration": 0.063,
      "velocity": 0.5,
      "hand": "right"
    },
    {
      "midi": 65,
      "time": 42.375,
      "duration": 0.063,
      "velocity": 0.44,
      "hand": "right"
    },
    {
      "midi": 38,
      "time": 42.5,
      "duration": 0.063,
      "velocity": 0.83,
      "hand": "left"
    },
    {
      "midi": 44,
      "time": 42.5,
      "duration": 0.063,
      "velocity": 0.61,
      "hand": "left"
    },
    {
      "midi": 60,
      "time": 42.5,
      "duration": 0.375,
      "velocity": 0.56,
      "hand": "right"
    },
    {
      "midi": 63,
      "time": 42.5,
      "duration": 0.063,
      "velocity": 0.49,
      "hand": "right"
    },
    {
      "midi": 65,
      "time": 42.5,
      "duration": 0.063,
      "velocity": 0.5,
      "hand": "right"
    },
    {
      "midi": 68,
      "time": 42.5,
      "duration": 0.5,
      "velocity": 0.61,
      "hand": "right"
    },
    {
      "midi": 56,
      "time": 42.75,
      "duration": 0.235,
      "velocity": 0.72,
      "hand": "left"
    },
    {
      "midi": 44,
      "time": 42.875,
      "duration": 0.063,
      "velocity": 0.61,
      "hand": "left"
    },
    {
      "midi": 38,
      "time": 43,
      "duration": 0.063,
      "velocity": 0.91,
      "hand": "left"
    },
    {
      "midi": 41,
      "time": 43,
      "duration": 0.25,
      "velocity": 0.91,
      "hand": "left"
    },
    {
      "midi": 60,
      "time": 43,
      "duration": 0.375,
      "velocity": 0.64,
      "hand": "right"
    },
    {
      "midi": 63,
      "time": 43,
      "duration": 0.375,
      "velocity": 0.52,
      "hand": "right"
    },
    {
      "midi": 65,
      "time": 43,
      "duration": 0.235,
      "velocity": 0.52,
      "hand": "right"
    },
    {
      "midi": 67,
      "time": 43,
      "duration": 0.25,
      "velocity": 0.61,
      "hand": "right"
    },
    {
      "midi": 46,
      "time": 43.25,
      "duration": 0.25,
      "velocity": 1,
      "hand": "left"
    },
    {
      "midi": 56,
      "time": 43.25,
      "duration": 0.125,
      "velocity": 0.73,
      "hand": "left"
    },
    {
      "midi": 65,
      "time": 43.25,
      "duration": 0.25,
      "velocity": 0.56,
      "hand": "right"
    },
    {
      "midi": 44,
      "time": 43.375,
      "duration": 0.063,
      "velocity": 0.61,
      "hand": "left"
    },
    {
      "midi": 36,
      "time": 43.5,
      "duration": 1,
      "velocity": 0.95,
      "hand": "left"
    },
    {
      "midi": 47,
      "time": 43.5,
      "duration": 0.063,
      "velocity": 0.72,
      "hand": "left"
    },
    {
      "midi": 60,
      "time": 43.5,
      "duration": 0.36,
      "velocity": 0.56,
      "hand": "right"
    },
    {
      "midi": 63,
      "time": 43.5,
      "duration": 0.36,
      "velocity": 0.55,
      "hand": "right"
    },
    {
      "midi": 68,
      "time": 43.5,
      "duration": 0.375,
      "velocity": 0.72,
      "hand": "right"
    },
    {
      "midi": 51,
      "time": 43.75,
      "duration": 1.25,
      "velocity": 0.35,
      "hand": "left"
    },
    {
      "midi": 38,
      "time": 43.875,
      "duration": 0.063,
      "velocity": 0.97,
      "hand": "left"
    },
    {
      "midi": 44,
      "time": 43.875,
      "duration": 0.063,
      "velocity": 0.61,
      "hand": "left"
    },
    {
      "midi": 60,
      "time": 43.875,
      "duration": 0.063,
      "velocity": 0.52,
      "hand": "right"
    },
    {
      "midi": 63,
      "time": 43.875,
      "duration": 0.063,
      "velocity": 0.46,
      "hand": "right"
    },
    {
      "midi": 67,
      "time": 43.875,
      "duration": 0.063,
      "velocity": 0.4,
      "hand": "right"
    },
    {
      "midi": 38,
      "time": 44,
      "duration": 0.063,
      "velocity": 0.7,
      "hand": "left"
    },
    {
      "midi": 54,
      "time": 44,
      "duration": 0.063,
      "velocity": 0.54,
      "hand": "left"
    },
    {
      "midi": 60,
      "time": 44,
      "duration": 0.375,
      "velocity": 0.58,
      "hand": "right"
    },
    {
      "midi": 63,
      "time": 44,
      "duration": 0.375,
      "velocity": 0.54,
      "hand": "right"
    },
    {
      "midi": 67,
      "time": 44,
      "duration": 0.485,
      "velocity": 0.54,
      "hand": "right"
    },
    {
      "midi": 44,
      "time": 44.125,
      "duration": 0.063,
      "velocity": 0.61,
      "hand": "left"
    },
    {
      "midi": 44,
      "time": 44.375,
      "duration": 0.063,
      "velocity": 0.61,
      "hand": "left"
    },
    {
      "midi": 38,
      "time": 44.5,
      "duration": 0.063,
      "velocity": 0.9,
      "hand": "left"
    },
    {
      "midi": 44,
      "time": 44.5,
      "duration": 0.063,
      "velocity": 0.61,
      "hand": "left"
    },
    {
      "midi": 60,
      "time": 44.5,
      "duration": 0.25,
      "velocity": 0.65,
      "hand": "right"
    },
    {
      "midi": 63,
      "time": 44.5,
      "duration": 0.25,
      "velocity": 0.59,
      "hand": "right"
    },
    {
      "midi": 67,
      "time": 44.5,
      "duration": 0.25,
      "velocity": 0.7,
      "hand": "right"
    },
    {
      "midi": 45,
      "time": 44.75,
      "duration": 0.25,
      "velocity": 0.97,
      "hand": "left"
    },
    {
      "midi": 55,
      "time": 44.75,
      "duration": 0.125,
      "velocity": 0.57,
      "hand": "left"
    },
    {
      "midi": 44,
      "time": 44.875,
      "duration": 0.063,
      "velocity": 0.61,
      "hand": "left"
    },
    {
      "midi": 68,
      "time": 44.875,
      "duration": 0.125,
      "velocity": 0.46,
      "hand": "right"
    },
    {
      "midi": 43,
      "time": 45,
      "duration": 1.235,
      "velocity": 1,
      "hand": "left"
    },
    {
      "midi": 47,
      "time": 45,
      "duration": 0.063,
      "velocity": 0.77,
      "hand": "left"
    },
    {
      "midi": 62,
      "time": 45,
      "duration": 0.36,
      "velocity": 0.54,
      "hand": "right"
    },
    {
      "midi": 67,
      "time": 45,
      "duration": 0.485,
      "velocity": 0.56,
      "hand": "right"
    },
    {
      "midi": 44,
      "time": 45.375,
      "duration": 0.063,
      "velocity": 0.61,
      "hand": "left"
    },
    {
      "midi": 55,
      "time": 45.375,
      "duration": 0.063,
      "velocity": 0.48,
      "hand": "left"
    },
    {
      "midi": 62,
      "time": 45.375,
      "duration": 0.11,
      "velocity": 0.56,
      "hand": "right"
    },
    {
      "midi": 38,
      "time": 45.5,
      "duration": 0.485,
      "velocity": 0.86,
      "hand": "left"
    },
    {
      "midi": 44,
      "time": 45.5,
      "duration": 0.063,
      "velocity": 0.61,
      "hand": "left"
    },
    {
      "midi": 62,
      "time": 45.5,
      "duration": 0.375,
      "velocity": 0.54,
      "hand": "right"
    },
    {
      "midi": 65,
      "time": 45.5,
      "duration": 0.485,
      "velocity": 0.56,
      "hand": "right"
    },
    {
      "midi": 67,
      "time": 45.5,
      "duration": 0.063,
      "velocity": 0.52,
      "hand": "right"
    },
    {
      "midi": 44,
      "time": 45.875,
      "duration": 0.063,
      "velocity": 0.61,
      "hand": "left"
    },
    {
      "midi": 38,
      "time": 46,
      "duration": 0.063,
      "velocity": 0.91,
      "hand": "left"
    },
    {
      "midi": 44,
      "time": 46,
      "duration": 0.063,
      "velocity": 0.61,
      "hand": "left"
    },
    {
      "midi": 63,
      "time": 46,
      "duration": 0.25,
      "velocity": 0.48,
      "hand": "right"
    },
    {
      "midi": 65,
      "time": 46,
      "duration": 0.25,
      "velocity": 0.52,
      "hand": "right"
    },
    {
      "midi": 43,
      "time": 46.25,
      "duration": 0.25,
      "velocity": 0.94,
      "hand": "left"
    },
    {
      "midi": 62,
      "time": 46.25,
      "duration": 0.235,
      "velocity": 0.57,
      "hand": "right"
    },
    {
      "midi": 44,
      "time": 46.375,
      "duration": 0.063,
      "velocity": 0.61,
      "hand": "left"
    },
    {
      "midi": 36,
      "time": 46.5,
      "duration": 0.5,
      "velocity": 0.94,
      "hand": "left"
    },
    {
      "midi": 47,
      "time": 46.5,
      "duration": 0.063,
      "velocity": 0.75,
      "hand": "left"
    },
    {
      "midi": 63,
      "time": 46.5,
      "duration": 0.25,
      "velocity": 0.54,
      "hand": "right"
    },
    {
      "midi": 65,
      "time": 46.5,
      "duration": 0.25,
      "velocity": 0.57,
      "hand": "right"
    },
    {
      "midi": 67,
      "time": 46.5,
      "duration": 0.125,
      "velocity": 0.49,
      "hand": "right"
    },
    {
      "midi": 60,
      "time": 46.75,
      "duration": 0.125,
      "velocity": 0.24,
      "hand": "right"
    },
    {
      "midi": 38,
      "time": 46.875,
      "duration": 0.063,
      "velocity": 0.91,
      "hand": "left"
    },
    {
      "midi": 44,
      "time": 46.875,
      "duration": 0.063,
      "velocity": 0.61,
      "hand": "left"
    },
    {
      "midi": 38,
      "time": 47,
      "duration": 0.485,
      "velocity": 0.91,
      "hand": "left"
    },
    {
      "midi": 44,
      "time": 47,
      "duration": 0.063,
      "velocity": 0.61,
      "hand": "left"
    },
    {
      "midi": 60,
      "time": 47,
      "duration": 0.25,
      "velocity": 0.59,
      "hand": "right"
    },
    {
      "midi": 62,
      "time": 47,
      "duration": 0.375,
      "velocity": 0.72,
      "hand": "right"
    },
    {
      "midi": 65,
      "time": 47,
      "duration": 0.375,
      "velocity": 0.53,
      "hand": "right"
    },
    {
      "midi": 39,
      "time": 47.25,
      "duration": 0.063,
      "velocity": 0.91,
      "hand": "left"
    },
    {
      "midi": 44,
      "time": 47.375,
      "duration": 0.063,
      "velocity": 0.61,
      "hand": "left"
    },
    {
      "midi": 38,
      "time": 47.5,
      "duration": 0.063,
      "velocity": 0.93,
      "hand": "left"
    },
    {
      "midi": 44,
      "time": 47.5,
      "duration": 0.36,
      "velocity": 1,
      "hand": "left"
    },
    {
      "midi": 63,
      "time": 47.5,
      "duration": 0.375,
      "velocity": 0.94,
      "hand": "right"
    },
    {
      "midi": 39,
      "time": 47.75,
      "duration": 0.063,
      "velocity": 0.72,
      "hand": "left"
    },
    {
      "midi": 67,
      "time": 47.75,
      "duration": 0.125,
      "velocity": 0.65,
      "hand": "right"
    },
    {
      "midi": 44,
      "time": 47.875,
      "duration": 0.063,
      "velocity": 0.61,
      "hand": "left"
    },
    {
      "midi": 36,
      "time": 48,
      "duration": 1.25,
      "velocity": 0.97,
      "hand": "left"
    },
    {
      "midi": 47,
      "time": 48,
      "duration": 0.063,
      "velocity": 0.73,
      "hand": "left"
    },
    {
      "midi": 60,
      "time": 48,
      "duration": 0.36,
      "velocity": 0.88,
      "hand": "right"
    },
    {
      "midi": 63,
      "time": 48,
      "duration": 0.235,
      "velocity": 0.42,
      "hand": "right"
    },
    {
      "midi": 67,
      "time": 48,
      "duration": 0.36,
      "velocity": 0.63,
      "hand": "right"
    },
    {
      "midi": 54,
      "time": 48.25,
      "duration": 0.063,
      "velocity": 0.54,
      "hand": "left"
    },
    {
      "midi": 63,
      "time": 48.25,
      "duration": 0.11,
      "velocity": 0.8,
      "hand": "right"
    },
    {
      "midi": 51,
      "time": 48.375,
      "duration": 0.063,
      "velocity": 0.61,
      "hand": "left"
    },
    {
      "midi": 55,
      "time": 48.375,
      "duration": 0.063,
      "velocity": 0.43,
      "hand": "left"
    },
    {
      "midi": 60,
      "time": 48.375,
      "duration": 0.063,
      "velocity": 0.58,
      "hand": "right"
    },
    {
      "midi": 63,
      "time": 48.375,
      "duration": 0.063,
      "velocity": 0.54,
      "hand": "right"
    },
    {
      "midi": 67,
      "time": 48.375,
      "duration": 0.063,
      "velocity": 0.43,
      "hand": "right"
    },
    {
      "midi": 38,
      "time": 48.5,
      "duration": 0.063,
      "velocity": 0.83,
      "hand": "left"
    },
    {
      "midi": 51,
      "time": 48.5,
      "duration": 0.063,
      "velocity": 0.61,
      "hand": "left"
    },
    {
      "midi": 60,
      "time": 48.5,
      "duration": 0.375,
      "velocity": 0.77,
      "hand": "right"
    },
    {
      "midi": 63,
      "time": 48.5,
      "duration": 0.063,
      "velocity": 0.39,
      "hand": "right"
    },
    {
      "midi": 67,
      "time": 48.5,
      "duration": 0.125,
      "velocity": 0.48,
      "hand": "right"
    },
    {
      "midi": 55,
      "time": 48.75,
      "duration": 0.235,
      "velocity": 0.74,
      "hand": "left"
    },
    {
      "midi": 51,
      "time": 48.875,
      "duration": 0.063,
      "velocity": 0.61,
      "hand": "left"
    },
    {
      "midi": 38,
      "time": 49,
      "duration": 0.063,
      "velocity": 0.91,
      "hand": "left"
    },
    {
      "midi": 51,
      "time": 49,
      "duration": 0.063,
      "velocity": 0.61,
      "hand": "left"
    },
    {
      "midi": 60,
      "time": 49,
      "duration": 0.375,
      "velocity": 0.74,
      "hand": "right"
    },
    {
      "midi": 63,
      "time": 49,
      "duration": 0.235,
      "velocity": 0.89,
      "hand": "right"
    },
    {
      "midi": 67,
      "time": 49,
      "duration": 0.125,
      "velocity": 0.54,
      "hand": "right"
    },
    {
      "midi": 43,
      "time": 49.25,
      "duration": 0.125,
      "velocity": 0.94,
      "hand": "left"
    },
    {
      "midi": 54,
      "time": 49.25,
      "duration": 0.063,
      "velocity": 0.54,
      "hand": "left"
    },
    {
      "midi": 63,
      "time": 49.25,
      "duration": 0.125,
      "velocity": 0.51,
      "hand": "right"
    },
    {
      "midi": 67,
      "time": 49.25,
      "duration": 0.235,
      "velocity": 0.68,
      "hand": "right"
    },
    {
      "midi": 51,
      "time": 49.375,
      "duration": 0.063,
      "velocity": 0.61,
      "hand": "left"
    },
    {
      "midi": 36,
      "time": 49.5,
      "duration": 1,
      "velocity": 0.97,
      "hand": "left"
    },
    {
      "midi": 47,
      "time": 49.5,
      "duration": 0.063,
      "velocity": 0.72,
      "hand": "left"
    },
    {
      "midi": 60,
      "time": 49.5,
      "duration": 0.36,
      "velocity": 0.55,
      "hand": "right"
    },
    {
      "midi": 63,
      "time": 49.5,
      "duration": 0.36,
      "velocity": 0.46,
      "hand": "right"
    },
    {
      "midi": 67,
      "time": 49.5,
      "duration": 0.36,
      "velocity": 0.56,
      "hand": "right"
    },
    {
      "midi": 54,
      "time": 49.75,
      "duration": 0.063,
      "velocity": 0.54,
      "hand": "left"
    },
    {
      "midi": 38,
      "time": 49.875,
      "duration": 0.063,
      "velocity": 0.97,
      "hand": "left"
    },
    {
      "midi": 51,
      "time": 49.875,
      "duration": 0.063,
      "velocity": 0.61,
      "hand": "left"
    },
    {
      "midi": 60,
      "time": 49.875,
      "duration": 0.063,
      "velocity": 0.48,
      "hand": "right"
    },
    {
      "midi": 63,
      "time": 49.875,
      "duration": 0.063,
      "velocity": 0.46,
      "hand": "right"
    },
    {
      "midi": 67,
      "time": 49.875,
      "duration": 0.11,
      "velocity": 0.34,
      "hand": "right"
    },
    {
      "midi": 38,
      "time": 50,
      "duration": 0.063,
      "velocity": 0.7,
      "hand": "left"
    },
    {
      "midi": 51,
      "time": 50,
      "duration": 0.11,
      "velocity": 0.57,
      "hand": "left"
    },
    {
      "midi": 60,
      "time": 50,
      "duration": 0.063,
      "velocity": 0.44,
      "hand": "right"
    },
    {
      "midi": 63,
      "time": 50,
      "duration": 0.125,
      "velocity": 0.51,
      "hand": "right"
    },
    {
      "midi": 67,
      "time": 50,
      "duration": 0.125,
      "velocity": 0.28,
      "hand": "right"
    },
    {
      "midi": 51,
      "time": 50.125,
      "duration": 0.063,
      "velocity": 0.61,
      "hand": "left"
    },
    {
      "midi": 54,
      "time": 50.25,
      "duration": 0.063,
      "velocity": 0.54,
      "hand": "left"
    },
    {
      "midi": 51,
      "time": 50.375,
      "duration": 0.063,
      "velocity": 0.61,
      "hand": "left"
    },
    {
      "midi": 38,
      "time": 50.5,
      "duration": 0.063,
      "velocity": 0.9,
      "hand": "left"
    },
    {
      "midi": 43,
      "time": 50.5,
      "duration": 0.375,
      "velocity": 0.99,
      "hand": "left"
    },
    {
      "midi": 60,
      "time": 50.5,
      "duration": 0.25,
      "velocity": 0.72,
      "hand": "right"
    },
    {
      "midi": 63,
      "time": 50.5,
      "duration": 0.25,
      "velocity": 0.74,
      "hand": "right"
    },
    {
      "midi": 67,
      "time": 50.5,
      "duration": 0.25,
      "velocity": 0.91,
      "hand": "right"
    },
    {
      "midi": 55,
      "time": 50.75,
      "duration": 0.125,
      "velocity": 0.54,
      "hand": "left"
    },
    {
      "midi": 51,
      "time": 50.875,
      "duration": 0.063,
      "velocity": 0.61,
      "hand": "left"
    },
    {
      "midi": 67,
      "time": 50.875,
      "duration": 0.125,
      "velocity": 0.71,
      "hand": "right"
    },
    {
      "midi": 40,
      "time": 51,
      "duration": 1,
      "velocity": 0.98,
      "hand": "left"
    },
    {
      "midi": 43,
      "time": 51,
      "duration": 0.875,
      "velocity": 0.65,
      "hand": "left"
    },
    {
      "midi": 60,
      "time": 51,
      "duration": 0.36,
      "velocity": 0.72,
      "hand": "right"
    },
    {
      "midi": 64,
      "time": 51,
      "duration": 0.36,
      "velocity": 0.51,
      "hand": "right"
    },
    {
      "midi": 68,
      "time": 51,
      "duration": 0.375,
      "velocity": 0.67,
      "hand": "right"
    },
    {
      "midi": 54,
      "time": 51.25,
      "duration": 0.063,
      "velocity": 0.54,
      "hand": "left"
    },
    {
      "midi": 51,
      "time": 51.375,
      "duration": 0.063,
      "velocity": 0.61,
      "hand": "left"
    },
    {
      "midi": 55,
      "time": 51.375,
      "duration": 0.063,
      "velocity": 0.45,
      "hand": "left"
    },
    {
      "midi": 60,
      "time": 51.375,
      "duration": 0.063,
      "velocity": 0.51,
      "hand": "right"
    },
    {
      "midi": 64,
      "time": 51.375,
      "duration": 0.063,
      "velocity": 0.22,
      "hand": "right"
    },
    {
      "midi": 38,
      "time": 51.5,
      "duration": 0.063,
      "velocity": 0.8,
      "hand": "left"
    },
    {
      "midi": 46,
      "time": 51.5,
      "duration": 1,
      "velocity": 0.38,
      "hand": "left"
    },
    {
      "midi": 60,
      "time": 51.5,
      "duration": 0.063,
      "velocity": 0.57,
      "hand": "right"
    },
    {
      "midi": 64,
      "time": 51.5,
      "duration": 0.063,
      "velocity": 0.46,
      "hand": "right"
    },
    {
      "midi": 67,
      "time": 51.5,
      "duration": 0.5,
      "velocity": 0.68,
      "hand": "right"
    },
    {
      "midi": 54,
      "time": 51.75,
      "duration": 0.063,
      "velocity": 0.54,
      "hand": "left"
    },
    {
      "midi": 51,
      "time": 51.875,
      "duration": 0.063,
      "velocity": 0.61,
      "hand": "left"
    },
    {
      "midi": 38,
      "time": 52,
      "duration": 0.25,
      "velocity": 0.95,
      "hand": "left"
    },
    {
      "midi": 51,
      "time": 52,
      "duration": 0.063,
      "velocity": 0.61,
      "hand": "left"
    },
    {
      "midi": 60,
      "time": 52,
      "duration": 0.25,
      "velocity": 0.68,
      "hand": "right"
    },
    {
      "midi": 65,
      "time": 52,
      "duration": 0.25,
      "velocity": 0.77,
      "hand": "right"
    },
    {
      "midi": 36,
      "time": 52.25,
      "duration": 0.25,
      "velocity": 0.94,
      "hand": "left"
    },
    {
      "midi": 54,
      "time": 52.25,
      "duration": 0.063,
      "velocity": 0.54,
      "hand": "left"
    },
    {
      "midi": 64,
      "time": 52.25,
      "duration": 0.25,
      "velocity": 0.7,
      "hand": "right"
    },
    {
      "midi": 51,
      "time": 52.375,
      "duration": 0.063,
      "velocity": 0.61,
      "hand": "left"
    },
    {
      "midi": 41,
      "time": 52.5,
      "duration": 1.125,
      "velocity": 0.99,
      "hand": "left"
    },
    {
      "midi": 47,
      "time": 52.5,
      "duration": 0.063,
      "velocity": 0.75,
      "hand": "left"
    },
    {
      "midi": 65,
      "time": 52.5,
      "duration": 0.36,
      "velocity": 0.67,
      "hand": "right"
    },
    {
      "midi": 54,
      "time": 52.75,
      "duration": 0.063,
      "velocity": 0.54,
      "hand": "left"
    },
    {
      "midi": 60,
      "time": 52.75,
      "duration": 0.11,
      "velocity": 0.72,
      "hand": "right"
    },
    {
      "midi": 38,
      "time": 52.875,
      "duration": 0.063,
      "velocity": 0.97,
      "hand": "left"
    },
    {
      "midi": 51,
      "time": 52.875,
      "duration": 0.063,
      "velocity": 0.61,
      "hand": "left"
    },
    {
      "midi": 60,
      "time": 52.875,
      "duration": 0.11,
      "velocity": 0.48,
      "hand": "right"
    },
    {
      "midi": 63,
      "time": 52.875,
      "duration": 0.11,
      "velocity": 0.42,
      "hand": "right"
    },
    {
      "midi": 65,
      "time": 52.875,
      "duration": 0.11,
      "velocity": 0.46,
      "hand": "right"
    },
    {
      "midi": 38,
      "time": 53,
      "duration": 0.063,
      "velocity": 0.65,
      "hand": "left"
    },
    {
      "midi": 51,
      "time": 53,
      "duration": 0.063,
      "velocity": 0.61,
      "hand": "left"
    },
    {
      "midi": 60,
      "time": 53,
      "duration": 0.063,
      "velocity": 0.45,
      "hand": "right"
    },
    {
      "midi": 63,
      "time": 53,
      "duration": 0.485,
      "velocity": 0.56,
      "hand": "right"
    },
    {
      "midi": 65,
      "time": 53,
      "duration": 0.063,
      "velocity": 0.52,
      "hand": "right"
    },
    {
      "midi": 54,
      "time": 53.25,
      "duration": 0.063,
      "velocity": 0.54,
      "hand": "left"
    },
    {
      "midi": 65,
      "time": 53.25,
      "duration": 0.235,
      "velocity": 0.54,
      "hand": "right"
    },
    {
      "midi": 51,
      "time": 53.375,
      "duration": 0.063,
      "velocity": 0.61,
      "hand": "left"
    },
    {
      "midi": 36,
      "time": 53.5,
      "duration": 0.25,
      "velocity": 0.94,
      "hand": "left"
    },
    {
      "midi": 38,
      "time": 53.5,
      "duration": 0.063,
      "velocity": 0.91,
      "hand": "left"
    },
    {
      "midi": 60,
      "time": 53.5,
      "duration": 0.063,
      "velocity": 0.59,
      "hand": "right"
    },
    {
      "midi": 63,
      "time": 53.5,
      "duration": 0.125,
      "velocity": 0.54,
      "hand": "right"
    },
    {
      "midi": 65,
      "time": 53.5,
      "duration": 0.125,
      "velocity": 0.5,
      "hand": "right"
    },
    {
      "midi": 67,
      "time": 53.5,
      "duration": 0.25,
      "velocity": 0.89,
      "hand": "right"
    },
    {
      "midi": 48,
      "time": 53.625,
      "duration": 0.375,
      "velocity": 0.48,
      "hand": "left"
    },
    {
      "midi": 41,
      "time": 53.75,
      "duration": 0.125,
      "velocity": 0.91,
      "hand": "left"
    },
    {
      "midi": 44,
      "time": 53.75,
      "duration": 0.25,
      "velocity": 0.44,
      "hand": "left"
    },
    {
      "midi": 60,
      "time": 53.75,
      "duration": 0.25,
      "velocity": 0.59,
      "hand": "right"
    },
    {
      "midi": 51,
      "time": 53.875,
      "duration": 0.063,
      "velocity": 0.61,
      "hand": "left"
    },
    {
      "midi": 67,
      "time": 53.875,
      "duration": 0.125,
      "velocity": 0.72,
      "hand": "right"
    },
    {
      "midi": 41,
      "time": 54,
      "duration": 0.985,
      "velocity": 0.52,
      "hand": "left"
    },
    {
      "midi": 46,
      "time": 54,
      "duration": 1,
      "velocity": 1,
      "hand": "left"
    },
    {
      "midi": 65,
      "time": 54,
      "duration": 0.36,
      "velocity": 0.57,
      "hand": "right"
    },
    {
      "midi": 70,
      "time": 54,
      "duration": 0.375,
      "velocity": 0.81,
      "hand": "right"
    },
    {
      "midi": 54,
      "time": 54.25,
      "duration": 0.063,
      "velocity": 0.54,
      "hand": "left"
    },
    {
      "midi": 63,
      "time": 54.25,
      "duration": 0.11,
      "velocity": 0.56,
      "hand": "right"
    },
    {
      "midi": 51,
      "time": 54.375,
      "duration": 0.063,
      "velocity": 0.61,
      "hand": "left"
    },
    {
      "midi": 56,
      "time": 54.375,
      "duration": 0.063,
      "velocity": 0.5,
      "hand": "left"
    },
    {
      "midi": 60,
      "time": 54.375,
      "duration": 0.063,
      "velocity": 0.54,
      "hand": "right"
    },
    {
      "midi": 63,
      "time": 54.375,
      "duration": 0.063,
      "velocity": 0.5,
      "hand": "right"
    },
    {
      "midi": 65,
      "time": 54.375,
      "duration": 0.063,
      "velocity": 0.44,
      "hand": "right"
    },
    {
      "midi": 38,
      "time": 54.5,
      "duration": 0.063,
      "velocity": 0.9,
      "hand": "left"
    },
    {
      "midi": 51,
      "time": 54.5,
      "duration": 0.063,
      "velocity": 0.61,
      "hand": "left"
    },
    {
      "midi": 60,
      "time": 54.5,
      "duration": 0.375,
      "velocity": 0.56,
      "hand": "right"
    },
    {
      "midi": 63,
      "time": 54.5,
      "duration": 0.063,
      "velocity": 0.49,
      "hand": "right"
    },
    {
      "midi": 65,
      "time": 54.5,
      "duration": 0.063,
      "velocity": 0.5,
      "hand": "right"
    },
    {
      "midi": 68,
      "time": 54.5,
      "duration": 0.5,
      "velocity": 0.77,
      "hand": "right"
    },
    {
      "midi": 54,
      "time": 54.75,
      "duration": 0.063,
      "velocity": 0.54,
      "hand": "left"
    },
    {
      "midi": 56,
      "time": 54.75,
      "duration": 0.235,
      "velocity": 0.72,
      "hand": "left"
    },
    {
      "midi": 51,
      "time": 54.875,
      "duration": 0.063,
      "velocity": 0.61,
      "hand": "left"
    },
    {
      "midi": 38,
      "time": 55,
      "duration": 0.063,
      "velocity": 0.9,
      "hand": "left"
    },
    {
      "midi": 41,
      "time": 55,
      "duration": 0.25,
      "velocity": 0.91,
      "hand": "left"
    },
    {
      "midi": 60,
      "time": 55,
      "duration": 0.375,
      "velocity": 0.64,
      "hand": "right"
    },
    {
      "midi": 63,
      "time": 55,
      "duration": 0.375,
      "velocity": 0.52,
      "hand": "right"
    },
    {
      "midi": 65,
      "time": 55,
      "duration": 0.235,
      "velocity": 0.52,
      "hand": "right"
    },
    {
      "midi": 67,
      "time": 55,
      "duration": 0.25,
      "velocity": 0.77,
      "hand": "right"
    },
    {
      "midi": 46,
      "time": 55.25,
      "duration": 0.25,
      "velocity": 1,
      "hand": "left"
    },
    {
      "midi": 54,
      "time": 55.25,
      "duration": 0.063,
      "velocity": 0.54,
      "hand": "left"
    },
    {
      "midi": 65,
      "time": 55.25,
      "duration": 0.25,
      "velocity": 0.72,
      "hand": "right"
    },
    {
      "midi": 51,
      "time": 55.375,
      "duration": 0.063,
      "velocity": 0.61,
      "hand": "left"
    },
    {
      "midi": 36,
      "time": 55.5,
      "duration": 1,
      "velocity": 0.95,
      "hand": "left"
    },
    {
      "midi": 47,
      "time": 55.5,
      "duration": 0.063,
      "velocity": 0.81,
      "hand": "left"
    },
    {
      "midi": 60,
      "time": 55.5,
      "duration": 0.36,
      "velocity": 0.56,
      "hand": "right"
    },
    {
      "midi": 63,
      "time": 55.5,
      "duration": 0.36,
      "velocity": 0.55,
      "hand": "right"
    },
    {
      "midi": 68,
      "time": 55.5,
      "duration": 0.375,
      "velocity": 0.87,
      "hand": "right"
    },
    {
      "midi": 55,
      "time": 55.625,
      "duration": 0.235,
      "velocity": 0.31,
      "hand": "left"
    },
    {
      "midi": 51,
      "time": 55.75,
      "duration": 0.11,
      "velocity": 0.35,
      "hand": "left"
    },
    {
      "midi": 54,
      "time": 55.75,
      "duration": 0.063,
      "velocity": 0.54,
      "hand": "left"
    },
    {
      "midi": 38,
      "time": 55.875,
      "duration": 0.063,
      "velocity": 0.97,
      "hand": "left"
    },
    {
      "midi": 51,
      "time": 55.875,
      "duration": 0.063,
      "velocity": 0.61,
      "hand": "left"
    },
    {
      "midi": 60,
      "time": 55.875,
      "duration": 0.063,
      "velocity": 0.52,
      "hand": "right"
    },
    {
      "midi": 63,
      "time": 55.875,
      "duration": 0.063,
      "velocity": 0.46,
      "hand": "right"
    },
    {
      "midi": 67,
      "time": 55.875,
      "duration": 0.063,
      "velocity": 0.4,
      "hand": "right"
    },
    {
      "midi": 38,
      "time": 56,
      "duration": 0.063,
      "velocity": 0.69,
      "hand": "left"
    },
    {
      "midi": 51,
      "time": 56,
      "duration": 0.063,
      "velocity": 0.61,
      "hand": "left"
    },
    {
      "midi": 60,
      "time": 56,
      "duration": 0.375,
      "velocity": 0.58,
      "hand": "right"
    },
    {
      "midi": 63,
      "time": 56,
      "duration": 0.375,
      "velocity": 0.54,
      "hand": "right"
    },
    {
      "midi": 67,
      "time": 56,
      "duration": 0.485,
      "velocity": 0.69,
      "hand": "right"
    },
    {
      "midi": 54,
      "time": 56.25,
      "duration": 0.063,
      "velocity": 0.54,
      "hand": "left"
    },
    {
      "midi": 51,
      "time": 56.375,
      "duration": 0.063,
      "velocity": 0.61,
      "hand": "left"
    },
    {
      "midi": 38,
      "time": 56.5,
      "duration": 0.063,
      "velocity": 0.91,
      "hand": "left"
    },
    {
      "midi": 46,
      "time": 56.5,
      "duration": 0.25,
      "velocity": 0.96,
      "hand": "left"
    },
    {
      "midi": 60,
      "time": 56.5,
      "duration": 0.25,
      "velocity": 0.65,
      "hand": "right"
    },
    {
      "midi": 63,
      "time": 56.5,
      "duration": 0.25,
      "velocity": 0.59,
      "hand": "right"
    },
    {
      "midi": 67,
      "time": 56.5,
      "duration": 0.25,
      "velocity": 0.86,
      "hand": "right"
    },
    {
      "midi": 45,
      "time": 56.75,
      "duration": 0.25,
      "velocity": 0.97,
      "hand": "left"
    },
    {
      "midi": 54,
      "time": 56.75,
      "duration": 0.063,
      "velocity": 0.54,
      "hand": "left"
    },
    {
      "midi": 51,
      "time": 56.875,
      "duration": 0.063,
      "velocity": 0.61,
      "hand": "left"
    },
    {
      "midi": 68,
      "time": 56.875,
      "duration": 0.125,
      "velocity": 0.62,
      "hand": "right"
    },
    {
      "midi": 43,
      "time": 57,
      "duration": 1.235,
      "velocity": 1,
      "hand": "left"
    },
    {
      "midi": 47,
      "time": 57,
      "duration": 0.063,
      "velocity": 0.73,
      "hand": "left"
    },
    {
      "midi": 62,
      "time": 57,
      "duration": 0.36,
      "velocity": 0.65,
      "hand": "right"
    },
    {
      "midi": 67,
      "time": 57,
      "duration": 0.485,
      "velocity": 0.72,
      "hand": "right"
    },
    {
      "midi": 54,
      "time": 57.25,
      "duration": 0.063,
      "velocity": 0.54,
      "hand": "left"
    },
    {
      "midi": 51,
      "time": 57.375,
      "duration": 0.063,
      "velocity": 0.61,
      "hand": "left"
    },
    {
      "midi": 55,
      "time": 57.375,
      "duration": 0.063,
      "velocity": 0.48,
      "hand": "left"
    },
    {
      "midi": 62,
      "time": 57.375,
      "duration": 0.11,
      "velocity": 0.56,
      "hand": "right"
    },
    {
      "midi": 38,
      "time": 57.5,
      "duration": 0.485,
      "velocity": 0.86,
      "hand": "left"
    },
    {
      "midi": 51,
      "time": 57.5,
      "duration": 0.063,
      "velocity": 0.61,
      "hand": "left"
    },
    {
      "midi": 62,
      "time": 57.5,
      "duration": 0.375,
      "velocity": 0.54,
      "hand": "right"
    },
    {
      "midi": 65,
      "time": 57.5,
      "duration": 0.485,
      "velocity": 0.72,
      "hand": "right"
    },
    {
      "midi": 67,
      "time": 57.5,
      "duration": 0.063,
      "velocity": 0.52,
      "hand": "right"
    },
    {
      "midi": 54,
      "time": 57.75,
      "duration": 0.063,
      "velocity": 0.54,
      "hand": "left"
    },
    {
      "midi": 51,
      "time": 57.875,
      "duration": 0.063,
      "velocity": 0.61,
      "hand": "left"
    },
    {
      "midi": 38,
      "time": 58,
      "duration": 0.063,
      "velocity": 0.91,
      "hand": "left"
    },
    {
      "midi": 47,
      "time": 58,
      "duration": 0.25,
      "velocity": 0.94,
      "hand": "left"
    },
    {
      "midi": 63,
      "time": 58,
      "duration": 0.25,
      "velocity": 0.64,
      "hand": "right"
    },
    {
      "midi": 65,
      "time": 58,
      "duration": 0.25,
      "velocity": 0.52,
      "hand": "right"
    },
    {
      "midi": 43,
      "time": 58.25,
      "duration": 0.25,
      "velocity": 0.94,
      "hand": "left"
    },
    {
      "midi": 54,
      "time": 58.25,
      "duration": 0.063,
      "velocity": 0.54,
      "hand": "left"
    },
    {
      "midi": 62,
      "time": 58.25,
      "duration": 0.235,
      "velocity": 0.72,
      "hand": "right"
    },
    {
      "midi": 51,
      "time": 58.375,
      "duration": 0.063,
      "velocity": 0.61,
      "hand": "left"
    },
    {
      "midi": 36,
      "time": 58.5,
      "duration": 0.5,
      "velocity": 0.94,
      "hand": "left"
    },
    {
      "midi": 47,
      "time": 58.5,
      "duration": 0.063,
      "velocity": 0.72,
      "hand": "left"
    },
    {
      "midi": 63,
      "time": 58.5,
      "duration": 0.625,
      "velocity": 0.54,
      "hand": "right"
    },
    {
      "midi": 65,
      "time": 58.5,
      "duration": 0.25,
      "velocity": 0.57,
      "hand": "right"
    },
    {
      "midi": 67,
      "time": 58.5,
      "duration": 0.125,
      "velocity": 0.49,
      "hand": "right"
    },
    {
      "midi": 54,
      "time": 58.75,
      "duration": 0.063,
      "velocity": 0.54,
      "hand": "left"
    },
    {
      "midi": 60,
      "time": 58.75,
      "duration": 0.125,
      "velocity": 0.24,
      "hand": "right"
    },
    {
      "midi": 38,
      "time": 58.875,
      "duration": 0.063,
      "velocity": 0.91,
      "hand": "left"
    },
    {
      "midi": 51,
      "time": 58.875,
      "duration": 0.063,
      "velocity": 0.61,
      "hand": "left"
    },
    {
      "midi": 39,
      "time": 59,
      "duration": 0.063,
      "velocity": 0.94,
      "hand": "left"
    },
    {
      "midi": 60,
      "time": 59,
      "duration": 0.25,
      "velocity": 0.59,
      "hand": "right"
    },
    {
      "midi": 62,
      "time": 59,
      "duration": 0.375,
      "velocity": 0.72,
      "hand": "right"
    },
    {
      "midi": 65,
      "time": 59,
      "duration": 0.375,
      "velocity": 0.53,
      "hand": "right"
    },
    {
      "midi": 51,
      "time": 59.125,
      "duration": 0.063,
      "velocity": 0.61,
      "hand": "left"
    },
    {
      "midi": 54,
      "time": 59.25,
      "duration": 0.063,
      "velocity": 0.54,
      "hand": "left"
    },
    {
      "midi": 38,
      "time": 59.375,
      "duration": 0.063,
      "velocity": 0.87,
      "hand": "left"
    },
    {
      "midi": 51,
      "time": 59.375,
      "duration": 0.063,
      "velocity": 0.61,
      "hand": "left"
    },
    {
      "midi": 41,
      "time": 59.5,
      "duration": 0.063,
      "velocity": 0.81,
      "hand": "left"
    },
    {
      "midi": 44,
      "time": 59.5,
      "duration": 0.5,
      "velocity": 1,
      "hand": "left"
    },
    {
      "midi": 63,
      "time": 59.5,
      "duration": 0.375,
      "velocity": 0.94,
      "hand": "right"
    },
    {
      "midi": 54,
      "time": 59.75,
      "duration": 0.063,
      "velocity": 0.54,
      "hand": "left"
    },
    {
      "midi": 67,
      "time": 59.75,
      "duration": 0.125,
      "velocity": 0.65,
      "hand": "right"
    },
    {
      "midi": 38,
      "time": 59.875,
      "duration": 0.063,
      "velocity": 0.96,
      "hand": "left"
    },
    {
      "midi": 51,
      "time": 59.875,
      "duration": 0.063,
      "velocity": 0.61,
      "hand": "left"
    },
    {
      "midi": 36,
      "time": 60,
      "duration": 1.25,
      "velocity": 0.97,
      "hand": "left"
    },
    {
      "midi": 47,
      "time": 60,
      "duration": 0.063,
      "velocity": 0.77,
      "hand": "left"
    },
    {
      "midi": 60,
      "time": 60,
      "duration": 0.36,
      "velocity": 0.88,
      "hand": "right"
    },
    {
      "midi": 63,
      "time": 60,
      "duration": 0.235,
      "velocity": 0.46,
      "hand": "right"
    },
    {
      "midi": 67,
      "time": 60,
      "duration": 0.36,
      "velocity": 0.63,
      "hand": "right"
    },
    {
      "midi": 79,
      "time": 60,
      "duration": 0.875,
      "velocity": 0.76,
      "hand": "right"
    },
    {
      "midi": 54,
      "time": 60.25,
      "duration": 0.063,
      "velocity": 0.54,
      "hand": "left"
    },
    {
      "midi": 63,
      "time": 60.25,
      "duration": 0.11,
      "velocity": 0.8,
      "hand": "right"
    },
    {
      "midi": 51,
      "time": 60.375,
      "duration": 0.063,
      "velocity": 0.61,
      "hand": "left"
    },
    {
      "midi": 55,
      "time": 60.375,
      "duration": 0.063,
      "velocity": 0.43,
      "hand": "left"
    },
    {
      "midi": 60,
      "time": 60.375,
      "duration": 0.063,
      "velocity": 0.58,
      "hand": "right"
    },
    {
      "midi": 63,
      "time": 60.375,
      "duration": 0.063,
      "velocity": 0.54,
      "hand": "right"
    },
    {
      "midi": 67,
      "time": 60.375,
      "duration": 0.063,
      "velocity": 0.43,
      "hand": "right"
    },
    {
      "midi": 38,
      "time": 60.5,
      "duration": 0.063,
      "velocity": 0.8,
      "hand": "left"
    },
    {
      "midi": 51,
      "time": 60.5,
      "duration": 0.063,
      "velocity": 0.61,
      "hand": "left"
    },
    {
      "midi": 60,
      "time": 60.5,
      "duration": 0.375,
      "velocity": 0.77,
      "hand": "right"
    },
    {
      "midi": 63,
      "time": 60.5,
      "duration": 0.063,
      "velocity": 0.39,
      "hand": "right"
    },
    {
      "midi": 67,
      "time": 60.5,
      "duration": 0.125,
      "velocity": 0.48,
      "hand": "right"
    },
    {
      "midi": 55,
      "time": 60.75,
      "duration": 0.235,
      "velocity": 0.74,
      "hand": "left"
    },
    {
      "midi": 51,
      "time": 60.875,
      "duration": 0.063,
      "velocity": 0.61,
      "hand": "left"
    },
    {
      "midi": 38,
      "time": 61,
      "duration": 0.063,
      "velocity": 0.91,
      "hand": "left"
    },
    {
      "midi": 51,
      "time": 61,
      "duration": 0.063,
      "velocity": 0.61,
      "hand": "left"
    },
    {
      "midi": 60,
      "time": 61,
      "duration": 0.375,
      "velocity": 0.74,
      "hand": "right"
    },
    {
      "midi": 63,
      "time": 61,
      "duration": 0.235,
      "velocity": 0.89,
      "hand": "right"
    },
    {
      "midi": 67,
      "time": 61,
      "duration": 0.125,
      "velocity": 0.54,
      "hand": "right"
    },
    {
      "midi": 82,
      "time": 61,
      "duration": 0.375,
      "velocity": 0.65,
      "hand": "right"
    },
    {
      "midi": 43,
      "time": 61.25,
      "duration": 0.125,
      "velocity": 0.94,
      "hand": "left"
    },
    {
      "midi": 54,
      "time": 61.25,
      "duration": 0.063,
      "velocity": 0.54,
      "hand": "left"
    },
    {
      "midi": 63,
      "time": 61.25,
      "duration": 0.125,
      "velocity": 0.51,
      "hand": "right"
    },
    {
      "midi": 67,
      "time": 61.25,
      "duration": 0.235,
      "velocity": 0.68,
      "hand": "right"
    },
    {
      "midi": 51,
      "time": 61.375,
      "duration": 0.063,
      "velocity": 0.61,
      "hand": "left"
    },
    {
      "midi": 36,
      "time": 61.5,
      "duration": 1,
      "velocity": 0.97,
      "hand": "left"
    },
    {
      "midi": 47,
      "time": 61.5,
      "duration": 0.063,
      "velocity": 0.75,
      "hand": "left"
    },
    {
      "midi": 60,
      "time": 61.5,
      "duration": 0.36,
      "velocity": 0.55,
      "hand": "right"
    },
    {
      "midi": 63,
      "time": 61.5,
      "duration": 0.36,
      "velocity": 0.46,
      "hand": "right"
    },
    {
      "midi": 67,
      "time": 61.5,
      "duration": 0.36,
      "velocity": 0.56,
      "hand": "right"
    },
    {
      "midi": 80,
      "time": 61.5,
      "duration": 0.5,
      "velocity": 0.76,
      "hand": "right"
    },
    {
      "midi": 54,
      "time": 61.75,
      "duration": 0.063,
      "velocity": 0.54,
      "hand": "left"
    },
    {
      "midi": 38,
      "time": 61.875,
      "duration": 0.063,
      "velocity": 0.97,
      "hand": "left"
    },
    {
      "midi": 51,
      "time": 61.875,
      "duration": 0.063,
      "velocity": 0.61,
      "hand": "left"
    },
    {
      "midi": 60,
      "time": 61.875,
      "duration": 0.063,
      "velocity": 0.48,
      "hand": "right"
    },
    {
      "midi": 63,
      "time": 61.875,
      "duration": 0.063,
      "velocity": 0.46,
      "hand": "right"
    },
    {
      "midi": 67,
      "time": 61.875,
      "duration": 0.11,
      "velocity": 0.34,
      "hand": "right"
    },
    {
      "midi": 38,
      "time": 62,
      "duration": 0.063,
      "velocity": 0.65,
      "hand": "left"
    },
    {
      "midi": 51,
      "time": 62,
      "duration": 0.36,
      "velocity": 0.61,
      "hand": "left"
    },
    {
      "midi": 60,
      "time": 62,
      "duration": 0.063,
      "velocity": 0.44,
      "hand": "right"
    },
    {
      "midi": 63,
      "time": 62,
      "duration": 0.125,
      "velocity": 0.51,
      "hand": "right"
    },
    {
      "midi": 67,
      "time": 62,
      "duration": 0.125,
      "velocity": 0.28,
      "hand": "right"
    },
    {
      "midi": 79,
      "time": 62,
      "duration": 0.5,
      "velocity": 0.74,
      "hand": "right"
    },
    {
      "midi": 54,
      "time": 62.25,
      "duration": 0.063,
      "velocity": 0.54,
      "hand": "left"
    },
    {
      "midi": 51,
      "time": 62.375,
      "duration": 0.063,
      "velocity": 0.61,
      "hand": "left"
    },
    {
      "midi": 38,
      "time": 62.5,
      "duration": 0.063,
      "velocity": 0.91,
      "hand": "left"
    },
    {
      "midi": 43,
      "time": 62.5,
      "duration": 0.375,
      "velocity": 0.99,
      "hand": "left"
    },
    {
      "midi": 60,
      "time": 62.5,
      "duration": 0.25,
      "velocity": 0.72,
      "hand": "right"
    },
    {
      "midi": 63,
      "time": 62.5,
      "duration": 0.25,
      "velocity": 0.74,
      "hand": "right"
    },
    {
      "midi": 67,
      "time": 62.5,
      "duration": 0.25,
      "velocity": 0.91,
      "hand": "right"
    },
    {
      "midi": 77,
      "time": 62.5,
      "duration": 0.5,
      "velocity": 0.72,
      "hand": "right"
    },
    {
      "midi": 55,
      "time": 62.75,
      "duration": 0.125,
      "velocity": 0.54,
      "hand": "left"
    },
    {
      "midi": 51,
      "time": 62.875,
      "duration": 0.063,
      "velocity": 0.61,
      "hand": "left"
    },
    {
      "midi": 67,
      "time": 62.875,
      "duration": 0.125,
      "velocity": 0.71,
      "hand": "right"
    },
    {
      "midi": 40,
      "time": 63,
      "duration": 1,
      "velocity": 0.98,
      "hand": "left"
    },
    {
      "midi": 43,
      "time": 63,
      "duration": 0.875,
      "velocity": 0.65,
      "hand": "left"
    },
    {
      "midi": 60,
      "time": 63,
      "duration": 0.36,
      "velocity": 0.72,
      "hand": "right"
    },
    {
      "midi": 64,
      "time": 63,
      "duration": 0.36,
      "velocity": 0.51,
      "hand": "right"
    },
    {
      "midi": 68,
      "time": 63,
      "duration": 0.375,
      "velocity": 0.67,
      "hand": "right"
    },
    {
      "midi": 76,
      "time": 63,
      "duration": 0.5,
      "velocity": 0.74,
      "hand": "right"
    },
    {
      "midi": 54,
      "time": 63.25,
      "duration": 0.063,
      "velocity": 0.54,
      "hand": "left"
    },
    {
      "midi": 51,
      "time": 63.375,
      "duration": 0.063,
      "velocity": 0.61,
      "hand": "left"
    },
    {
      "midi": 55,
      "time": 63.375,
      "duration": 0.063,
      "velocity": 0.45,
      "hand": "left"
    },
    {
      "midi": 60,
      "time": 63.375,
      "duration": 0.063,
      "velocity": 0.51,
      "hand": "right"
    },
    {
      "midi": 64,
      "time": 63.375,
      "duration": 0.063,
      "velocity": 0.22,
      "hand": "right"
    },
    {
      "midi": 38,
      "time": 63.5,
      "duration": 0.063,
      "velocity": 0.9,
      "hand": "left"
    },
    {
      "midi": 46,
      "time": 63.5,
      "duration": 1,
      "velocity": 0.38,
      "hand": "left"
    },
    {
      "midi": 60,
      "time": 63.5,
      "duration": 0.063,
      "velocity": 0.57,
      "hand": "right"
    },
    {
      "midi": 64,
      "time": 63.5,
      "duration": 0.063,
      "velocity": 0.46,
      "hand": "right"
    },
    {
      "midi": 67,
      "time": 63.5,
      "duration": 0.5,
      "velocity": 0.68,
      "hand": "right"
    },
    {
      "midi": 77,
      "time": 63.5,
      "duration": 0.5,
      "velocity": 0.75,
      "hand": "right"
    },
    {
      "midi": 54,
      "time": 63.75,
      "duration": 0.063,
      "velocity": 0.54,
      "hand": "left"
    },
    {
      "midi": 51,
      "time": 63.875,
      "duration": 0.063,
      "velocity": 0.61,
      "hand": "left"
    },
    {
      "midi": 38,
      "time": 64,
      "duration": 0.25,
      "velocity": 0.95,
      "hand": "left"
    },
    {
      "midi": 51,
      "time": 64,
      "duration": 0.063,
      "velocity": 0.61,
      "hand": "left"
    },
    {
      "midi": 60,
      "time": 64,
      "duration": 0.25,
      "velocity": 0.68,
      "hand": "right"
    },
    {
      "midi": 65,
      "time": 64,
      "duration": 0.25,
      "velocity": 0.77,
      "hand": "right"
    },
    {
      "midi": 79,
      "time": 64,
      "duration": 0.375,
      "velocity": 0.72,
      "hand": "right"
    },
    {
      "midi": 36,
      "time": 64.25,
      "duration": 0.25,
      "velocity": 0.94,
      "hand": "left"
    },
    {
      "midi": 54,
      "time": 64.25,
      "duration": 0.063,
      "velocity": 0.54,
      "hand": "left"
    },
    {
      "midi": 64,
      "time": 64.25,
      "duration": 0.25,
      "velocity": 0.7,
      "hand": "right"
    },
    {
      "midi": 51,
      "time": 64.375,
      "duration": 0.063,
      "velocity": 0.61,
      "hand": "left"
    },
    {
      "midi": 41,
      "time": 64.5,
      "duration": 1.125,
      "velocity": 0.99,
      "hand": "left"
    },
    {
      "midi": 47,
      "time": 64.5,
      "duration": 0.063,
      "velocity": 0.81,
      "hand": "left"
    },
    {
      "midi": 65,
      "time": 64.5,
      "duration": 0.36,
      "velocity": 0.67,
      "hand": "right"
    },
    {
      "midi": 82,
      "time": 64.5,
      "duration": 0.5,
      "velocity": 0.68,
      "hand": "right"
    },
    {
      "midi": 54,
      "time": 64.75,
      "duration": 0.063,
      "velocity": 0.54,
      "hand": "left"
    },
    {
      "midi": 60,
      "time": 64.75,
      "duration": 0.11,
      "velocity": 0.72,
      "hand": "right"
    },
    {
      "midi": 38,
      "time": 64.875,
      "duration": 0.063,
      "velocity": 0.97,
      "hand": "left"
    },
    {
      "midi": 51,
      "time": 64.875,
      "duration": 0.063,
      "velocity": 0.61,
      "hand": "left"
    },
    {
      "midi": 60,
      "time": 64.875,
      "duration": 0.11,
      "velocity": 0.48,
      "hand": "right"
    },
    {
      "midi": 63,
      "time": 64.875,
      "duration": 0.11,
      "velocity": 0.42,
      "hand": "right"
    },
    {
      "midi": 65,
      "time": 64.875,
      "duration": 0.11,
      "velocity": 0.46,
      "hand": "right"
    },
    {
      "midi": 38,
      "time": 65,
      "duration": 0.063,
      "velocity": 0.69,
      "hand": "left"
    },
    {
      "midi": 51,
      "time": 65,
      "duration": 0.063,
      "velocity": 0.61,
      "hand": "left"
    },
    {
      "midi": 60,
      "time": 65,
      "duration": 0.063,
      "velocity": 0.45,
      "hand": "right"
    },
    {
      "midi": 63,
      "time": 65,
      "duration": 0.485,
      "velocity": 0.56,
      "hand": "right"
    },
    {
      "midi": 65,
      "time": 65,
      "duration": 0.063,
      "velocity": 0.52,
      "hand": "right"
    },
    {
      "midi": 80,
      "time": 65,
      "duration": 0.875,
      "velocity": 0.57,
      "hand": "right"
    },
    {
      "midi": 54,
      "time": 65.25,
      "duration": 0.063,
      "velocity": 0.54,
      "hand": "left"
    },
    {
      "midi": 65,
      "time": 65.25,
      "duration": 0.235,
      "velocity": 0.54,
      "hand": "right"
    },
    {
      "midi": 51,
      "time": 65.375,
      "duration": 0.063,
      "velocity": 0.61,
      "hand": "left"
    },
    {
      "midi": 36,
      "time": 65.5,
      "duration": 0.25,
      "velocity": 0.94,
      "hand": "left"
    },
    {
      "midi": 38,
      "time": 65.5,
      "duration": 0.063,
      "velocity": 0.91,
      "hand": "left"
    },
    {
      "midi": 60,
      "time": 65.5,
      "duration": 0.063,
      "velocity": 0.59,
      "hand": "right"
    },
    {
      "midi": 63,
      "time": 65.5,
      "duration": 0.125,
      "velocity": 0.54,
      "hand": "right"
    },
    {
      "midi": 65,
      "time": 65.5,
      "duration": 0.125,
      "velocity": 0.5,
      "hand": "right"
    },
    {
      "midi": 67,
      "time": 65.5,
      "duration": 0.25,
      "velocity": 0.89,
      "hand": "right"
    },
    {
      "midi": 48,
      "time": 65.625,
      "duration": 0.375,
      "velocity": 0.48,
      "hand": "left"
    },
    {
      "midi": 41,
      "time": 65.75,
      "duration": 0.125,
      "velocity": 0.91,
      "hand": "left"
    },
    {
      "midi": 44,
      "time": 65.75,
      "duration": 0.25,
      "velocity": 0.44,
      "hand": "left"
    },
    {
      "midi": 60,
      "time": 65.75,
      "duration": 0.25,
      "velocity": 0.59,
      "hand": "right"
    },
    {
      "midi": 51,
      "time": 65.875,
      "duration": 0.063,
      "velocity": 0.61,
      "hand": "left"
    },
    {
      "midi": 67,
      "time": 65.875,
      "duration": 0.125,
      "velocity": 0.72,
      "hand": "right"
    },
    {
      "midi": 41,
      "time": 66,
      "duration": 0.985,
      "velocity": 0.52,
      "hand": "left"
    },
    {
      "midi": 46,
      "time": 66,
      "duration": 1,
      "velocity": 1,
      "hand": "left"
    },
    {
      "midi": 65,
      "time": 66,
      "duration": 0.36,
      "velocity": 0.57,
      "hand": "right"
    },
    {
      "midi": 70,
      "time": 66,
      "duration": 0.375,
      "velocity": 0.81,
      "hand": "right"
    },
    {
      "midi": 80,
      "time": 66,
      "duration": 0.5,
      "velocity": 0.73,
      "hand": "right"
    },
    {
      "midi": 54,
      "time": 66.25,
      "duration": 0.063,
      "velocity": 0.54,
      "hand": "left"
    },
    {
      "midi": 63,
      "time": 66.25,
      "duration": 0.11,
      "velocity": 0.56,
      "hand": "right"
    },
    {
      "midi": 51,
      "time": 66.375,
      "duration": 0.063,
      "velocity": 0.61,
      "hand": "left"
    },
    {
      "midi": 56,
      "time": 66.375,
      "duration": 0.063,
      "velocity": 0.5,
      "hand": "left"
    },
    {
      "midi": 60,
      "time": 66.375,
      "duration": 0.063,
      "velocity": 0.54,
      "hand": "right"
    },
    {
      "midi": 63,
      "time": 66.375,
      "duration": 0.063,
      "velocity": 0.5,
      "hand": "right"
    },
    {
      "midi": 65,
      "time": 66.375,
      "duration": 0.063,
      "velocity": 0.44,
      "hand": "right"
    },
    {
      "midi": 38,
      "time": 66.5,
      "duration": 0.063,
      "velocity": 0.83,
      "hand": "left"
    },
    {
      "midi": 51,
      "time": 66.5,
      "duration": 0.063,
      "velocity": 0.61,
      "hand": "left"
    },
    {
      "midi": 63,
      "time": 66.5,
      "duration": 0.063,
      "velocity": 0.49,
      "hand": "right"
    },
    {
      "midi": 65,
      "time": 66.5,
      "duration": 0.063,
      "velocity": 0.5,
      "hand": "right"
    },
    {
      "midi": 68,
      "time": 66.5,
      "duration": 0.5,
      "velocity": 0.77,
      "hand": "right"
    },
    {
      "midi": 82,
      "time": 66.5,
      "duration": 0.375,
      "velocity": 0.74,
      "hand": "right"
    },
    {
      "midi": 54,
      "time": 66.75,
      "duration": 0.063,
      "velocity": 0.54,
      "hand": "left"
    },
    {
      "midi": 56,
      "time": 66.75,
      "duration": 0.235,
      "velocity": 0.72,
      "hand": "left"
    },
    {
      "midi": 51,
      "time": 66.875,
      "duration": 0.063,
      "velocity": 0.61,
      "hand": "left"
    },
    {
      "midi": 84,
      "time": 66.875,
      "duration": 0.5,
      "velocity": 0.58,
      "hand": "right"
    },
    {
      "midi": 38,
      "time": 67,
      "duration": 0.063,
      "velocity": 0.91,
      "hand": "left"
    },
    {
      "midi": 41,
      "time": 67,
      "duration": 0.25,
      "velocity": 0.91,
      "hand": "left"
    },
    {
      "midi": 60,
      "time": 67,
      "duration": 0.375,
      "velocity": 0.64,
      "hand": "right"
    },
    {
      "midi": 63,
      "time": 67,
      "duration": 0.375,
      "velocity": 0.52,
      "hand": "right"
    },
    {
      "midi": 65,
      "time": 67,
      "duration": 0.235,
      "velocity": 0.52,
      "hand": "right"
    },
    {
      "midi": 67,
      "time": 67,
      "duration": 0.25,
      "velocity": 0.77,
      "hand": "right"
    },
    {
      "midi": 46,
      "time": 67.25,
      "duration": 0.25,
      "velocity": 1,
      "hand": "left"
    },
    {
      "midi": 54,
      "time": 67.25,
      "duration": 0.063,
      "velocity": 0.54,
      "hand": "left"
    },
    {
      "midi": 65,
      "time": 67.25,
      "duration": 0.25,
      "velocity": 0.72,
      "hand": "right"
    },
    {
      "midi": 51,
      "time": 67.375,
      "duration": 0.063,
      "velocity": 0.61,
      "hand": "left"
    },
    {
      "midi": 36,
      "time": 67.5,
      "duration": 1,
      "velocity": 0.95,
      "hand": "left"
    },
    {
      "midi": 47,
      "time": 67.5,
      "duration": 0.063,
      "velocity": 0.72,
      "hand": "left"
    },
    {
      "midi": 63,
      "time": 67.5,
      "duration": 0.36,
      "velocity": 0.55,
      "hand": "right"
    },
    {
      "midi": 68,
      "time": 67.5,
      "duration": 0.375,
      "velocity": 0.87,
      "hand": "right"
    },
    {
      "midi": 75,
      "time": 67.5,
      "duration": 0.5,
      "velocity": 0.73,
      "hand": "right"
    },
    {
      "midi": 51,
      "time": 67.75,
      "duration": 0.11,
      "velocity": 0.35,
      "hand": "left"
    },
    {
      "midi": 54,
      "time": 67.75,
      "duration": 0.063,
      "velocity": 0.54,
      "hand": "left"
    },
    {
      "midi": 38,
      "time": 67.875,
      "duration": 0.063,
      "velocity": 0.97,
      "hand": "left"
    },
    {
      "midi": 51,
      "time": 67.875,
      "duration": 0.063,
      "velocity": 0.61,
      "hand": "left"
    },
    {
      "midi": 60,
      "time": 67.875,
      "duration": 0.063,
      "velocity": 0.52,
      "hand": "right"
    },
    {
      "midi": 63,
      "time": 67.875,
      "duration": 0.063,
      "velocity": 0.46,
      "hand": "right"
    },
    {
      "midi": 67,
      "time": 67.875,
      "duration": 0.063,
      "velocity": 0.4,
      "hand": "right"
    },
    {
      "midi": 38,
      "time": 68,
      "duration": 0.063,
      "velocity": 0.7,
      "hand": "left"
    },
    {
      "midi": 54,
      "time": 68,
      "duration": 0.063,
      "velocity": 0.54,
      "hand": "left"
    },
    {
      "midi": 60,
      "time": 68,
      "duration": 0.375,
      "velocity": 0.58,
      "hand": "right"
    },
    {
      "midi": 63,
      "time": 68,
      "duration": 0.375,
      "velocity": 0.54,
      "hand": "right"
    },
    {
      "midi": 67,
      "time": 68,
      "duration": 0.485,
      "velocity": 0.69,
      "hand": "right"
    },
    {
      "midi": 84,
      "time": 68,
      "duration": 0.5,
      "velocity": 0.57,
      "hand": "right"
    },
    {
      "midi": 51,
      "time": 68.125,
      "duration": 0.063,
      "velocity": 0.61,
      "hand": "left"
    },
    {
      "midi": 54,
      "time": 68.25,
      "duration": 0.063,
      "velocity": 0.54,
      "hand": "left"
    },
    {
      "midi": 51,
      "time": 68.375,
      "duration": 0.063,
      "velocity": 0.61,
      "hand": "left"
    },
    {
      "midi": 38,
      "time": 68.5,
      "duration": 0.063,
      "velocity": 0.9,
      "hand": "left"
    },
    {
      "midi": 46,
      "time": 68.5,
      "duration": 0.25,
      "velocity": 0.96,
      "hand": "left"
    },
    {
      "midi": 60,
      "time": 68.5,
      "duration": 0.25,
      "velocity": 0.65,
      "hand": "right"
    },
    {
      "midi": 63,
      "time": 68.5,
      "duration": 0.25,
      "velocity": 0.59,
      "hand": "right"
    },
    {
      "midi": 67,
      "time": 68.5,
      "duration": 0.25,
      "velocity": 0.86,
      "hand": "right"
    },
    {
      "midi": 75,
      "time": 68.5,
      "duration": 0.375,
      "velocity": 0.74,
      "hand": "right"
    },
    {
      "midi": 45,
      "time": 68.75,
      "duration": 0.25,
      "velocity": 0.97,
      "hand": "left"
    },
    {
      "midi": 54,
      "time": 68.75,
      "duration": 0.063,
      "velocity": 0.54,
      "hand": "left"
    },
    {
      "midi": 51,
      "time": 68.875,
      "duration": 0.063,
      "velocity": 0.61,
      "hand": "left"
    },
    {
      "midi": 68,
      "time": 68.875,
      "duration": 0.125,
      "velocity": 0.62,
      "hand": "right"
    },
    {
      "midi": 43,
      "time": 69,
      "duration": 1.235,
      "velocity": 1,
      "hand": "left"
    },
    {
      "midi": 47,
      "time": 69,
      "duration": 0.063,
      "velocity": 0.77,
      "hand": "left"
    },
    {
      "midi": 62,
      "time": 69,
      "duration": 0.36,
      "velocity": 0.56,
      "hand": "right"
    },
    {
      "midi": 67,
      "time": 69,
      "duration": 0.485,
      "velocity": 0.72,
      "hand": "right"
    },
    {
      "midi": 74,
      "time": 69,
      "duration": 0.5,
      "velocity": 0.58,
      "hand": "right"
    },
    {
      "midi": 54,
      "time": 69.25,
      "duration": 0.063,
      "velocity": 0.54,
      "hand": "left"
    },
    {
      "midi": 51,
      "time": 69.375,
      "duration": 0.063,
      "velocity": 0.61,
      "hand": "left"
    },
    {
      "midi": 55,
      "time": 69.375,
      "duration": 0.063,
      "velocity": 0.48,
      "hand": "left"
    },
    {
      "midi": 62,
      "time": 69.375,
      "duration": 0.11,
      "velocity": 0.56,
      "hand": "right"
    },
    {
      "midi": 38,
      "time": 69.5,
      "duration": 0.485,
      "velocity": 0.86,
      "hand": "left"
    },
    {
      "midi": 51,
      "time": 69.5,
      "duration": 0.063,
      "velocity": 0.61,
      "hand": "left"
    },
    {
      "midi": 62,
      "time": 69.5,
      "duration": 0.375,
      "velocity": 0.54,
      "hand": "right"
    },
    {
      "midi": 65,
      "time": 69.5,
      "duration": 0.485,
      "velocity": 0.72,
      "hand": "right"
    },
    {
      "midi": 67,
      "time": 69.5,
      "duration": 0.063,
      "velocity": 0.52,
      "hand": "right"
    },
    {
      "midi": 83,
      "time": 69.5,
      "duration": 0.5,
      "velocity": 0.61,
      "hand": "right"
    },
    {
      "midi": 54,
      "time": 69.75,
      "duration": 0.063,
      "velocity": 0.54,
      "hand": "left"
    },
    {
      "midi": 51,
      "time": 69.875,
      "duration": 0.063,
      "velocity": 0.61,
      "hand": "left"
    },
    {
      "midi": 38,
      "time": 70,
      "duration": 0.063,
      "velocity": 0.91,
      "hand": "left"
    },
    {
      "midi": 47,
      "time": 70,
      "duration": 0.25,
      "velocity": 0.94,
      "hand": "left"
    },
    {
      "midi": 63,
      "time": 70,
      "duration": 0.25,
      "velocity": 0.64,
      "hand": "right"
    },
    {
      "midi": 65,
      "time": 70,
      "duration": 0.25,
      "velocity": 0.52,
      "hand": "right"
    },
    {
      "midi": 74,
      "time": 70,
      "duration": 0.5,
      "velocity": 0.54,
      "hand": "right"
    },
    {
      "midi": 43,
      "time": 70.25,
      "duration": 0.25,
      "velocity": 0.94,
      "hand": "left"
    },
    {
      "midi": 54,
      "time": 70.25,
      "duration": 0.063,
      "velocity": 0.54,
      "hand": "left"
    },
    {
      "midi": 62,
      "time": 70.25,
      "duration": 0.235,
      "velocity": 0.72,
      "hand": "right"
    },
    {
      "midi": 51,
      "time": 70.375,
      "duration": 0.063,
      "velocity": 0.61,
      "hand": "left"
    },
    {
      "midi": 36,
      "time": 70.5,
      "duration": 0.5,
      "velocity": 0.94,
      "hand": "left"
    },
    {
      "midi": 47,
      "time": 70.5,
      "duration": 0.063,
      "velocity": 0.75,
      "hand": "left"
    },
    {
      "midi": 63,
      "time": 70.5,
      "duration": 0.375,
      "velocity": 0.54,
      "hand": "right"
    },
    {
      "midi": 65,
      "time": 70.5,
      "duration": 0.25,
      "velocity": 0.57,
      "hand": "right"
    },
    {
      "midi": 67,
      "time": 70.5,
      "duration": 0.125,
      "velocity": 0.49,
      "hand": "right"
    },
    {
      "midi": 60,
      "time": 70.75,
      "duration": 0.125,
      "velocity": 0.24,
      "hand": "right"
    },
    {
      "midi": 38,
      "time": 70.875,
      "duration": 0.063,
      "velocity": 0.91,
      "hand": "left"
    },
    {
      "midi": 51,
      "time": 70.875,
      "duration": 0.063,
      "velocity": 0.61,
      "hand": "left"
    },
    {
      "midi": 38,
      "time": 71,
      "duration": 0.485,
      "velocity": 0.91,
      "hand": "left"
    },
    {
      "midi": 51,
      "time": 71,
      "duration": 0.063,
      "velocity": 0.61,
      "hand": "left"
    },
    {
      "midi": 60,
      "time": 71,
      "duration": 0.25,
      "velocity": 0.59,
      "hand": "right"
    },
    {
      "midi": 62,
      "time": 71,
      "duration": 0.375,
      "velocity": 0.72,
      "hand": "right"
    },
    {
      "midi": 65,
      "time": 71,
      "duration": 0.375,
      "velocity": 0.53,
      "hand": "right"
    },
    {
      "midi": 39,
      "time": 71.25,
      "duration": 0.063,
      "velocity": 0.91,
      "hand": "left"
    },
    {
      "midi": 51,
      "time": 71.375,
      "duration": 0.063,
      "velocity": 0.61,
      "hand": "left"
    },
    {
      "midi": 38,
      "time": 71.5,
      "duration": 0.063,
      "velocity": 0.93,
      "hand": "left"
    },
    {
      "midi": 44,
      "time": 71.5,
      "duration": 0.5,
      "velocity": 1,
      "hand": "left"
    },
    {
      "midi": 63,
      "time": 71.5,
      "duration": 0.375,
      "velocity": 0.72,
      "hand": "right"
    },
    {
      "midi": 39,
      "time": 71.75,
      "duration": 0.063,
      "velocity": 0.72,
      "hand": "left"
    },
    {
      "midi": 51,
      "time": 71.875,
      "duration": 0.063,
      "velocity": 0.61,
      "hand": "left"
    },
    {
      "midi": 36,
      "time": 72,
      "duration": 1.25,
      "velocity": 0.96,
      "hand": "left"
    },
    {
      "midi": 47,
      "time": 72,
      "duration": 0.063,
      "velocity": 0.73,
      "hand": "left"
    },
    {
      "midi": 60,
      "time": 72,
      "duration": 0.36,
      "velocity": 0.76,
      "hand": "right"
    },
    {
      "midi": 63,
      "time": 72,
      "duration": 0.36,
      "velocity": 0.91,
      "hand": "right"
    },
    {
      "midi": 67,
      "time": 72,
      "duration": 0.36,
      "velocity": 0.57,
      "hand": "right"
    },
    {
      "midi": 51,
      "time": 72.375,
      "duration": 0.063,
      "velocity": 0.61,
      "hand": "left"
    },
    {
      "midi": 55,
      "time": 72.375,
      "duration": 0.11,
      "velocity": 0.52,
      "hand": "left"
    },
    {
      "midi": 60,
      "time": 72.375,
      "duration": 0.11,
      "velocity": 0.57,
      "hand": "right"
    },
    {
      "midi": 63,
      "time": 72.375,
      "duration": 0.063,
      "velocity": 0.54,
      "hand": "right"
    },
    {
      "midi": 67,
      "time": 72.375,
      "duration": 0.11,
      "velocity": 0.52,
      "hand": "right"
    },
    {
      "midi": 38,
      "time": 72.5,
      "duration": 0.063,
      "velocity": 0.83,
      "hand": "left"
    },
    {
      "midi": 48,
      "time": 72.5,
      "duration": 2.5,
      "velocity": 0.51,
      "hand": "left"
    },
    {
      "midi": 60,
      "time": 72.5,
      "duration": 0.063,
      "velocity": 0.61,
      "hand": "right"
    },
    {
      "midi": 63,
      "time": 72.5,
      "duration": 0.063,
      "velocity": 0.55,
      "hand": "right"
    },
    {
      "midi": 67,
      "time": 72.5,
      "duration": 0.125,
      "velocity": 0.52,
      "hand": "right"
    },
    {
      "midi": 55,
      "time": 72.75,
      "duration": 0.235,
      "velocity": 0.59,
      "hand": "left"
    },
    {
      "midi": 51,
      "time": 72.875,
      "duration": 0.063,
      "velocity": 0.61,
      "hand": "left"
    },
    {
      "midi": 38,
      "time": 73,
      "duration": 0.063,
      "velocity": 0.91,
      "hand": "left"
    },
    {
      "midi": 51,
      "time": 73,
      "duration": 0.063,
      "velocity": 0.61,
      "hand": "left"
    },
    {
      "midi": 60,
      "time": 73,
      "duration": 0.375,
      "velocity": 0.68,
      "hand": "right"
    },
    {
      "midi": 63,
      "time": 73,
      "duration": 0.125,
      "velocity": 0.64,
      "hand": "right"
    },
    {
      "midi": 67,
      "time": 73,
      "duration": 0.125,
      "velocity": 0.55,
      "hand": "right"
    },
    {
      "midi": 43,
      "time": 73.25,
      "duration": 0.25,
      "velocity": 0.94,
      "hand": "left"
    },
    {
      "midi": 63,
      "time": 73.25,
      "duration": 0.125,
      "velocity": 0.5,
      "hand": "right"
    },
    {
      "midi": 51,
      "time": 73.375,
      "duration": 0.063,
      "velocity": 0.61,
      "hand": "left"
    },
    {
      "midi": 36,
      "time": 73.5,
      "duration": 0.875,
      "velocity": 0.96,
      "hand": "left"
    },
    {
      "midi": 47,
      "time": 73.5,
      "duration": 0.063,
      "velocity": 0.72,
      "hand": "left"
    },
    {
      "midi": 60,
      "time": 73.5,
      "duration": 0.36,
      "velocity": 0.56,
      "hand": "right"
    },
    {
      "midi": 63,
      "time": 73.5,
      "duration": 0.36,
      "velocity": 0.55,
      "hand": "right"
    },
    {
      "midi": 67,
      "time": 73.5,
      "duration": 0.36,
      "velocity": 0.57,
      "hand": "right"
    },
    {
      "midi": 75,
      "time": 73.5,
      "duration": 0.5,
      "velocity": 0.84,
      "hand": "right"
    },
    {
      "midi": 38,
      "time": 73.875,
      "duration": 0.063,
      "velocity": 0.97,
      "hand": "left"
    },
    {
      "midi": 51,
      "time": 73.875,
      "duration": 0.063,
      "velocity": 0.61,
      "hand": "left"
    },
    {
      "midi": 60,
      "time": 73.875,
      "duration": 0.063,
      "velocity": 0.57,
      "hand": "right"
    },
    {
      "midi": 63,
      "time": 73.875,
      "duration": 0.063,
      "velocity": 0.57,
      "hand": "right"
    },
    {
      "midi": 67,
      "time": 73.875,
      "duration": 0.11,
      "velocity": 0.51,
      "hand": "right"
    },
    {
      "midi": 38,
      "time": 74,
      "duration": 0.063,
      "velocity": 0.7,
      "hand": "left"
    },
    {
      "midi": 54,
      "time": 74,
      "duration": 0.063,
      "velocity": 0.54,
      "hand": "left"
    },
    {
      "midi": 60,
      "time": 74,
      "duration": 0.063,
      "velocity": 0.57,
      "hand": "right"
    },
    {
      "midi": 63,
      "time": 74,
      "duration": 0.063,
      "velocity": 0.64,
      "hand": "right"
    },
    {
      "midi": 67,
      "time": 74,
      "duration": 0.125,
      "velocity": 0.48,
      "hand": "right"
    },
    {
      "midi": 74,
      "time": 74,
      "duration": 0.5,
      "velocity": 0.7,
      "hand": "right"
    },
    {
      "midi": 51,
      "time": 74.125,
      "duration": 0.063,
      "velocity": 0.61,
      "hand": "left"
    },
    {
      "midi": 51,
      "time": 74.375,
      "duration": 0.063,
      "velocity": 0.61,
      "hand": "left"
    },
    {
      "midi": 38,
      "time": 74.5,
      "duration": 0.063,
      "velocity": 0.9,
      "hand": "left"
    },
    {
      "midi": 43,
      "time": 74.5,
      "duration": 0.375,
      "velocity": 0.93,
      "hand": "left"
    },
    {
      "midi": 60,
      "time": 74.5,
      "duration": 0.375,
      "velocity": 0.68,
      "hand": "right"
    },
    {
      "midi": 63,
      "time": 74.5,
      "duration": 0.375,
      "velocity": 0.7,
      "hand": "right"
    },
    {
      "midi": 67,
      "time": 74.5,
      "duration": 0.25,
      "velocity": 0.57,
      "hand": "right"
    },
    {
      "midi": 72,
      "time": 74.5,
      "duration": 0.5,
      "velocity": 0.71,
      "hand": "right"
    },
    {
      "midi": 51,
      "time": 74.875,
      "duration": 0.063,
      "velocity": 0.61,
      "hand": "left"
    },
    {
      "midi": 41,
      "time": 75,
      "duration": 1.485,
      "velocity": 0.83,
      "hand": "left"
    },
    {
      "midi": 47,
      "time": 75,
      "duration": 0.063,
      "velocity": 0.77,
      "hand": "left"
    },
    {
      "midi": 60,
      "time": 75,
      "duration": 0.36,
      "velocity": 0.55,
      "hand": "right"
    },
    {
      "midi": 65,
      "time": 75,
      "duration": 0.36,
      "velocity": 0.56,
      "hand": "right"
    },
    {
      "midi": 68,
      "time": 75,
      "duration": 3,
      "velocity": 0.68,
      "hand": "right"
    },
    {
      "midi": 51,
      "time": 75.375,
      "duration": 0.063,
      "velocity": 0.61,
      "hand": "left"
    },
    {
      "midi": 56,
      "time": 75.375,
      "duration": 0.11,
      "velocity": 0.46,
      "hand": "left"
    },
    {
      "midi": 60,
      "time": 75.375,
      "duration": 0.11,
      "velocity": 0.5,
      "hand": "right"
    },
    {
      "midi": 63,
      "time": 75.375,
      "duration": 0.11,
      "velocity": 0.38,
      "hand": "right"
    },
    {
      "midi": 65,
      "time": 75.375,
      "duration": 0.11,
      "velocity": 0.39,
      "hand": "right"
    },
    {
      "midi": 38,
      "time": 75.5,
      "duration": 0.063,
      "velocity": 0.8,
      "hand": "left"
    },
    {
      "midi": 51,
      "time": 75.5,
      "duration": 0.063,
      "velocity": 0.61,
      "hand": "left"
    },
    {
      "midi": 60,
      "time": 75.5,
      "duration": 0.125,
      "velocity": 0.56,
      "hand": "right"
    },
    {
      "midi": 63,
      "time": 75.5,
      "duration": 0.125,
      "velocity": 0.5,
      "hand": "right"
    },
    {
      "midi": 65,
      "time": 75.5,
      "duration": 0.125,
      "velocity": 0.45,
      "hand": "right"
    },
    {
      "midi": 56,
      "time": 75.75,
      "duration": 0.235,
      "velocity": 0.78,
      "hand": "left"
    },
    {
      "midi": 51,
      "time": 75.875,
      "duration": 0.063,
      "velocity": 0.61,
      "hand": "left"
    },
    {
      "midi": 38,
      "time": 76,
      "duration": 0.063,
      "velocity": 0.91,
      "hand": "left"
    },
    {
      "midi": 51,
      "time": 76,
      "duration": 0.063,
      "velocity": 0.61,
      "hand": "left"
    },
    {
      "midi": 60,
      "time": 76,
      "duration": 0.235,
      "velocity": 0.68,
      "hand": "right"
    },
    {
      "midi": 63,
      "time": 76,
      "duration": 0.125,
      "velocity": 0.53,
      "hand": "right"
    },
    {
      "midi": 65,
      "time": 76,
      "duration": 0.125,
      "velocity": 0.5,
      "hand": "right"
    },
    {
      "midi": 36,
      "time": 76.25,
      "duration": 0.25,
      "velocity": 0.94,
      "hand": "left"
    },
    {
      "midi": 56,
      "time": 76.25,
      "duration": 0.125,
      "velocity": 0.49,
      "hand": "left"
    },
    {
      "midi": 60,
      "time": 76.25,
      "duration": 0.125,
      "velocity": 0.58,
      "hand": "right"
    },
    {
      "midi": 65,
      "time": 76.25,
      "duration": 0.125,
      "velocity": 0.5,
      "hand": "right"
    },
    {
      "midi": 51,
      "time": 76.375,
      "duration": 0.063,
      "velocity": 0.61,
      "hand": "left"
    },
    {
      "midi": 41,
      "time": 76.5,
      "duration": 0.985,
      "velocity": 0.88,
      "hand": "left"
    },
    {
      "midi": 47,
      "time": 76.5,
      "duration": 0.063,
      "velocity": 0.75,
      "hand": "left"
    },
    {
      "midi": 60,
      "time": 76.5,
      "duration": 0.36,
      "velocity": 0.49,
      "hand": "right"
    },
    {
      "midi": 67,
      "time": 76.5,
      "duration": 0.875,
      "velocity": 0.5,
      "hand": "right"
    },
    {
      "midi": 38,
      "time": 76.875,
      "duration": 0.063,
      "velocity": 0.97,
      "hand": "left"
    },
    {
      "midi": 51,
      "time": 76.875,
      "duration": 0.063,
      "velocity": 0.61,
      "hand": "left"
    },
    {
      "midi": 60,
      "time": 76.875,
      "duration": 0.11,
      "velocity": 0.5,
      "hand": "right"
    },
    {
      "midi": 63,
      "time": 76.875,
      "duration": 0.11,
      "velocity": 0.38,
      "hand": "right"
    },
    {
      "midi": 65,
      "time": 76.875,
      "duration": 0.11,
      "velocity": 0.39,
      "hand": "right"
    },
    {
      "midi": 38,
      "time": 77,
      "duration": 0.063,
      "velocity": 0.65,
      "hand": "left"
    },
    {
      "midi": 44,
      "time": 77,
      "duration": 0.5,
      "velocity": 0.98,
      "hand": "left"
    },
    {
      "midi": 60,
      "time": 77,
      "duration": 0.125,
      "velocity": 0.56,
      "hand": "right"
    },
    {
      "midi": 63,
      "time": 77,
      "duration": 0.125,
      "velocity": 0.5,
      "hand": "right"
    },
    {
      "midi": 65,
      "time": 77,
      "duration": 0.125,
      "velocity": 0.45,
      "hand": "right"
    },
    {
      "midi": 51,
      "time": 77.375,
      "duration": 0.063,
      "velocity": 0.61,
      "hand": "left"
    },
    {
      "midi": 38,
      "time": 77.5,
      "duration": 0.063,
      "velocity": 0.91,
      "hand": "left"
    },
    {
      "midi": 41,
      "time": 77.5,
      "duration": 0.375,
      "velocity": 0.86,
      "hand": "left"
    },
    {
      "midi": 60,
      "time": 77.5,
      "duration": 0.25,
      "velocity": 0.61,
      "hand": "right"
    },
    {
      "midi": 63,
      "time": 77.5,
      "duration": 0.125,
      "velocity": 0.53,
      "hand": "right"
    },
    {
      "midi": 65,
      "time": 77.5,
      "duration": 0.375,
      "velocity": 0.54,
      "hand": "right"
    },
    {
      "midi": 51,
      "time": 77.875,
      "duration": 0.063,
      "velocity": 0.61,
      "hand": "left"
    },
    {
      "midi": 47,
      "time": 78,
      "duration": 0.063,
      "velocity": 0.73,
      "hand": "left"
    },
    {
      "midi": 62,
      "time": 78,
      "duration": 0.485,
      "velocity": 0.38,
      "hand": "right"
    },
    {
      "midi": 70,
      "time": 78,
      "duration": 1.375,
      "velocity": 0.92,
      "hand": "right"
    },
    {
      "midi": 58,
      "time": 78.25,
      "duration": 0.5,
      "velocity": 0.7,
      "hand": "left"
    },
    {
      "midi": 51,
      "time": 78.375,
      "duration": 0.063,
      "velocity": 0.61,
      "hand": "left"
    },
    {
      "midi": 56,
      "time": 78.375,
      "duration": 0.11,
      "velocity": 0.46,
      "hand": "left"
    },
    {
      "midi": 60,
      "time": 78.375,
      "duration": 0.11,
      "velocity": 0.5,
      "hand": "right"
    },
    {
      "midi": 63,
      "time": 78.375,
      "duration": 0.11,
      "velocity": 0.38,
      "hand": "right"
    },
    {
      "midi": 65,
      "time": 78.375,
      "duration": 0.11,
      "velocity": 0.39,
      "hand": "right"
    },
    {
      "midi": 38,
      "time": 78.5,
      "duration": 0.063,
      "velocity": 0.9,
      "hand": "left"
    },
    {
      "midi": 51,
      "time": 78.5,
      "duration": 0.063,
      "velocity": 0.61,
      "hand": "left"
    },
    {
      "midi": 60,
      "time": 78.5,
      "duration": 0.125,
      "velocity": 0.56,
      "hand": "right"
    },
    {
      "midi": 63,
      "time": 78.5,
      "duration": 0.125,
      "velocity": 0.5,
      "hand": "right"
    },
    {
      "midi": 65,
      "time": 78.5,
      "duration": 0.125,
      "velocity": 0.45,
      "hand": "right"
    },
    {
      "midi": 53,
      "time": 78.75,
      "duration": 0.625,
      "velocity": 0.61,
      "hand": "left"
    },
    {
      "midi": 51,
      "time": 78.875,
      "duration": 0.063,
      "velocity": 0.61,
      "hand": "left"
    },
    {
      "midi": 38,
      "time": 79,
      "duration": 0.063,
      "velocity": 0.9,
      "hand": "left"
    },
    {
      "midi": 51,
      "time": 79,
      "duration": 0.063,
      "velocity": 0.61,
      "hand": "left"
    },
    {
      "midi": 60,
      "time": 79,
      "duration": 0.125,
      "velocity": 0.61,
      "hand": "right"
    },
    {
      "midi": 63,
      "time": 79,
      "duration": 0.125,
      "velocity": 0.53,
      "hand": "right"
    },
    {
      "midi": 65,
      "time": 79,
      "duration": 0.125,
      "velocity": 0.5,
      "hand": "right"
    },
    {
      "midi": 41,
      "time": 79.25,
      "duration": 0.125,
      "velocity": 0.95,
      "hand": "left"
    },
    {
      "midi": 62,
      "time": 79.25,
      "duration": 0.125,
      "velocity": 0.53,
      "hand": "right"
    },
    {
      "midi": 51,
      "time": 79.375,
      "duration": 0.063,
      "velocity": 0.61,
      "hand": "left"
    },
    {
      "midi": 47,
      "time": 79.5,
      "duration": 0.063,
      "velocity": 0.81,
      "hand": "left"
    },
    {
      "midi": 65,
      "time": 79.5,
      "duration": 0.875,
      "velocity": 0.57,
      "hand": "right"
    },
    {
      "midi": 74,
      "time": 79.5,
      "duration": 0.5,
      "velocity": 0.75,
      "hand": "right"
    },
    {
      "midi": 38,
      "time": 79.875,
      "duration": 0.063,
      "velocity": 0.97,
      "hand": "left"
    },
    {
      "midi": 51,
      "time": 79.875,
      "duration": 0.063,
      "velocity": 0.61,
      "hand": "left"
    },
    {
      "midi": 62,
      "time": 79.875,
      "duration": 0.11,
      "velocity": 0.57,
      "hand": "right"
    },
    {
      "midi": 38,
      "time": 80,
      "duration": 0.063,
      "velocity": 0.69,
      "hand": "left"
    },
    {
      "midi": 41,
      "time": 80,
      "duration": 0.5,
      "velocity": 0.79,
      "hand": "left"
    },
    {
      "midi": 62,
      "time": 80,
      "duration": 0.125,
      "velocity": 0.61,
      "hand": "right"
    },
    {
      "midi": 72,
      "time": 80,
      "duration": 0.5,
      "velocity": 0.67,
      "hand": "right"
    },
    {
      "midi": 51,
      "time": 80.375,
      "duration": 0.063,
      "velocity": 0.61,
      "hand": "left"
    },
    {
      "midi": 38,
      "time": 80.5,
      "duration": 0.063,
      "velocity": 0.91,
      "hand": "left"
    },
    {
      "midi": 46,
      "time": 80.5,
      "duration": 0.375,
      "velocity": 0.98,
      "hand": "left"
    },
    {
      "midi": 62,
      "time": 80.5,
      "duration": 0.375,
      "velocity": 0.65,
      "hand": "right"
    },
    {
      "midi": 70,
      "time": 80.5,
      "duration": 0.5,
      "velocity": 0.69,
      "hand": "right"
    },
    {
      "midi": 39,
      "time": 80.875,
      "duration": 0.11,
      "velocity": 0.87,
      "hand": "left"
    },
    {
      "midi": 51,
      "time": 80.875,
      "duration": 0.063,
      "velocity": 0.61,
      "hand": "left"
    },
    {
      "midi": 39,
      "time": 81,
      "duration": 1,
      "velocity": 0.5,
      "hand": "left"
    },
    {
      "midi": 47,
      "time": 81,
      "duration": 0.063,
      "velocity": 0.73,
      "hand": "left"
    },
    {
      "midi": 63,
      "time": 81,
      "duration": 0.36,
      "velocity": 0.56,
      "hand": "right"
    },
    {
      "midi": 67,
      "time": 81,
      "duration": 0.985,
      "velocity": 0.68,
      "hand": "right"
    },
    {
      "midi": 51,
      "time": 81.375,
      "duration": 0.063,
      "velocity": 0.61,
      "hand": "left"
    },
    {
      "midi": 55,
      "time": 81.375,
      "duration": 0.11,
      "velocity": 0.5,
      "hand": "left"
    },
    {
      "midi": 63,
      "time": 81.375,
      "duration": 0.11,
      "velocity": 0.54,
      "hand": "right"
    },
    {
      "midi": 38,
      "time": 81.5,
      "duration": 0.063,
      "velocity": 0.83,
      "hand": "left"
    },
    {
      "midi": 51,
      "time": 81.5,
      "duration": 0.063,
      "velocity": 0.61,
      "hand": "left"
    },
    {
      "midi": 63,
      "time": 81.5,
      "duration": 0.125,
      "velocity": 0.51,
      "hand": "right"
    },
    {
      "midi": 51,
      "time": 81.875,
      "duration": 0.063,
      "velocity": 0.61,
      "hand": "left"
    },
    {
      "midi": 38,
      "time": 82,
      "duration": 0.063,
      "velocity": 0.91,
      "hand": "left"
    },
    {
      "midi": 46,
      "time": 82,
      "duration": 0.5,
      "velocity": 0.35,
      "hand": "left"
    },
    {
      "midi": 63,
      "time": 82,
      "duration": 0.125,
      "velocity": 0.61,
      "hand": "right"
    },
    {
      "midi": 67,
      "time": 82,
      "duration": 0.375,
      "velocity": 0.72,
      "hand": "right"
    },
    {
      "midi": 51,
      "time": 82.375,
      "duration": 0.063,
      "velocity": 0.61,
      "hand": "left"
    },
    {
      "midi": 39,
      "time": 82.5,
      "duration": 0.5,
      "velocity": 0.42,
      "hand": "left"
    },
    {
      "midi": 47,
      "time": 82.5,
      "duration": 0.063,
      "velocity": 0.72,
      "hand": "left"
    },
    {
      "midi": 63,
      "time": 82.5,
      "duration": 0.36,
      "velocity": 0.72,
      "hand": "right"
    },
    {
      "midi": 38,
      "time": 82.875,
      "duration": 0.063,
      "velocity": 0.97,
      "hand": "left"
    },
    {
      "midi": 51,
      "time": 82.875,
      "duration": 0.063,
      "velocity": 0.61,
      "hand": "left"
    },
    {
      "midi": 63,
      "time": 82.875,
      "duration": 0.11,
      "velocity": 0.57,
      "hand": "right"
    },
    {
      "midi": 38,
      "time": 83,
      "duration": 0.485,
      "velocity": 0.91,
      "hand": "left"
    },
    {
      "midi": 54,
      "time": 83,
      "duration": 0.063,
      "velocity": 0.54,
      "hand": "left"
    },
    {
      "midi": 63,
      "time": 83,
      "duration": 0.125,
      "velocity": 0.72,
      "hand": "right"
    },
    {
      "midi": 51,
      "time": 83.125,
      "duration": 0.063,
      "velocity": 0.61,
      "hand": "left"
    },
    {
      "midi": 51,
      "time": 83.375,
      "duration": 0.063,
      "velocity": 0.61,
      "hand": "left"
    },
    {
      "midi": 38,
      "time": 83.5,
      "duration": 0.063,
      "velocity": 0.9,
      "hand": "left"
    },
    {
      "midi": 43,
      "time": 83.5,
      "duration": 0.5,
      "velocity": 0.96,
      "hand": "left"
    },
    {
      "midi": 60,
      "time": 83.5,
      "duration": 0.25,
      "velocity": 0.63,
      "hand": "right"
    },
    {
      "midi": 63,
      "time": 83.5,
      "duration": 0.125,
      "velocity": 0.72,
      "hand": "right"
    },
    {
      "midi": 51,
      "time": 83.875,
      "duration": 0.063,
      "velocity": 0.61,
      "hand": "left"
    },
    {
      "midi": 55,
      "time": 83.875,
      "duration": 0.485,
      "velocity": 0.41,
      "hand": "left"
    },
    {
      "midi": 36,
      "time": 84,
      "duration": 1.375,
      "velocity": 0.91,
      "hand": "left"
    },
    {
      "midi": 47,
      "time": 84,
      "duration": 0.063,
      "velocity": 0.77,
      "hand": "left"
    },
    {
      "midi": 60,
      "time": 84,
      "duration": 0.36,
      "velocity": 0.43,
      "hand": "right"
    },
    {
      "midi": 63,
      "time": 84,
      "duration": 0.36,
      "velocity": 0.9,
      "hand": "right"
    },
    {
      "midi": 67,
      "time": 84,
      "duration": 0.36,
      "velocity": 0.65,
      "hand": "right"
    },
    {
      "midi": 51,
      "time": 84.375,
      "duration": 0.063,
      "velocity": 0.61,
      "hand": "left"
    },
    {
      "midi": 55,
      "time": 84.375,
      "duration": 0.11,
      "velocity": 0.52,
      "hand": "left"
    },
    {
      "midi": 60,
      "time": 84.375,
      "duration": 0.11,
      "velocity": 0.57,
      "hand": "right"
    },
    {
      "midi": 63,
      "time": 84.375,
      "duration": 0.063,
      "velocity": 0.54,
      "hand": "right"
    },
    {
      "midi": 67,
      "time": 84.375,
      "duration": 0.11,
      "velocity": 0.52,
      "hand": "right"
    },
    {
      "midi": 39,
      "time": 84.5,
      "duration": 0.75,
      "velocity": 0.49,
      "hand": "left"
    },
    {
      "midi": 60,
      "time": 84.5,
      "duration": 0.063,
      "velocity": 0.61,
      "hand": "right"
    },
    {
      "midi": 63,
      "time": 84.5,
      "duration": 0.485,
      "velocity": 0.72,
      "hand": "right"
    },
    {
      "midi": 67,
      "time": 84.5,
      "duration": 0.125,
      "velocity": 0.52,
      "hand": "right"
    },
    {
      "midi": 51,
      "time": 84.875,
      "duration": 0.063,
      "velocity": 0.61,
      "hand": "left"
    },
    {
      "midi": 38,
      "time": 85,
      "duration": 0.063,
      "velocity": 0.91,
      "hand": "left"
    },
    {
      "midi": 51,
      "time": 85,
      "duration": 0.063,
      "velocity": 0.61,
      "hand": "left"
    },
    {
      "midi": 60,
      "time": 85,
      "duration": 0.25,
      "velocity": 0.72,
      "hand": "right"
    },
    {
      "midi": 63,
      "time": 85,
      "duration": 0.125,
      "velocity": 0.64,
      "hand": "right"
    },
    {
      "midi": 67,
      "time": 85,
      "duration": 0.125,
      "velocity": 0.55,
      "hand": "right"
    },
    {
      "midi": 72,
      "time": 85,
      "duration": 0.5,
      "velocity": 0.65,
      "hand": "right"
    },
    {
      "midi": 43,
      "time": 85.25,
      "duration": 0.11,
      "velocity": 0.5,
      "hand": "left"
    },
    {
      "midi": 43,
      "time": 85.375,
      "duration": 0.125,
      "velocity": 0.96,
      "hand": "left"
    },
    {
      "midi": 51,
      "time": 85.375,
      "duration": 0.063,
      "velocity": 0.61,
      "hand": "left"
    },
    {
      "midi": 36,
      "time": 85.5,
      "duration": 0.485,
      "velocity": 0.88,
      "hand": "left"
    },
    {
      "midi": 47,
      "time": 85.5,
      "duration": 0.063,
      "velocity": 0.75,
      "hand": "left"
    },
    {
      "midi": 60,
      "time": 85.5,
      "duration": 0.36,
      "velocity": 0.54,
      "hand": "right"
    },
    {
      "midi": 67,
      "time": 85.5,
      "duration": 0.36,
      "velocity": 0.57,
      "hand": "right"
    },
    {
      "midi": 70,
      "time": 85.5,
      "duration": 0.5,
      "velocity": 0.72,
      "hand": "right"
    },
    {
      "midi": 38,
      "time": 85.875,
      "duration": 0.063,
      "velocity": 0.97,
      "hand": "left"
    },
    {
      "midi": 51,
      "time": 85.875,
      "duration": 0.063,
      "velocity": 0.61,
      "hand": "left"
    },
    {
      "midi": 60,
      "time": 85.875,
      "duration": 0.11,
      "velocity": 0.57,
      "hand": "right"
    },
    {
      "midi": 63,
      "time": 85.875,
      "duration": 0.063,
      "velocity": 0.54,
      "hand": "right"
    },
    {
      "midi": 67,
      "time": 85.875,
      "duration": 0.11,
      "velocity": 0.52,
      "hand": "right"
    },
    {
      "midi": 36,
      "time": 86,
      "duration": 0.5,
      "velocity": 0.86,
      "hand": "left"
    },
    {
      "midi": 38,
      "time": 86,
      "duration": 0.063,
      "velocity": 0.65,
      "hand": "left"
    },
    {
      "midi": 60,
      "time": 86,
      "duration": 0.063,
      "velocity": 0.61,
      "hand": "right"
    },
    {
      "midi": 63,
      "time": 86,
      "duration": 0.25,
      "velocity": 0.55,
      "hand": "right"
    },
    {
      "midi": 68,
      "time": 86,
      "duration": 0.5,
      "velocity": 0.72,
      "hand": "right"
    },
    {
      "midi": 51,
      "time": 86.375,
      "duration": 0.063,
      "velocity": 0.61,
      "hand": "left"
    },
    {
      "midi": 38,
      "time": 86.5,
      "duration": 0.063,
      "velocity": 0.91,
      "hand": "left"
    },
    {
      "midi": 43,
      "time": 86.5,
      "duration": 0.5,
      "velocity": 0.96,
      "hand": "left"
    },
    {
      "midi": 60,
      "time": 86.5,
      "duration": 0.485,
      "velocity": 0.58,
      "hand": "right"
    },
    {
      "midi": 63,
      "time": 86.5,
      "duration": 0.375,
      "velocity": 0.64,
      "hand": "right"
    },
    {
      "midi": 67,
      "time": 86.5,
      "duration": 0.5,
      "velocity": 0.71,
      "hand": "right"
    },
    {
      "midi": 51,
      "time": 86.875,
      "duration": 0.063,
      "velocity": 0.61,
      "hand": "left"
    },
    {
      "midi": 41,
      "time": 87,
      "duration": 1.25,
      "velocity": 0.94,
      "hand": "left"
    },
    {
      "midi": 47,
      "time": 87,
      "duration": 0.063,
      "velocity": 0.73,
      "hand": "left"
    },
    {
      "midi": 60,
      "time": 87,
      "duration": 0.36,
      "velocity": 0.55,
      "hand": "right"
    },
    {
      "midi": 65,
      "time": 87,
      "duration": 0.985,
      "velocity": 0.57,
      "hand": "right"
    },
    {
      "midi": 68,
      "time": 87,
      "duration": 2.75,
      "velocity": 0.66,
      "hand": "right"
    },
    {
      "midi": 51,
      "time": 87.375,
      "duration": 0.063,
      "velocity": 0.61,
      "hand": "left"
    },
    {
      "midi": 53,
      "time": 87.375,
      "duration": 0.11,
      "velocity": 0.53,
      "hand": "left"
    },
    {
      "midi": 60,
      "time": 87.375,
      "duration": 0.11,
      "velocity": 0.5,
      "hand": "right"
    },
    {
      "midi": 63,
      "time": 87.375,
      "duration": 0.11,
      "velocity": 0.41,
      "hand": "right"
    },
    {
      "midi": 38,
      "time": 87.5,
      "duration": 0.063,
      "velocity": 0.9,
      "hand": "left"
    },
    {
      "midi": 51,
      "time": 87.5,
      "duration": 0.063,
      "velocity": 0.61,
      "hand": "left"
    },
    {
      "midi": 60,
      "time": 87.5,
      "duration": 0.125,
      "velocity": 0.52,
      "hand": "right"
    },
    {
      "midi": 63,
      "time": 87.5,
      "duration": 0.125,
      "velocity": 0.46,
      "hand": "right"
    },
    {
      "midi": 51,
      "time": 87.875,
      "duration": 0.063,
      "velocity": 0.61,
      "hand": "left"
    },
    {
      "midi": 38,
      "time": 88,
      "duration": 0.063,
      "velocity": 0.9,
      "hand": "left"
    },
    {
      "midi": 51,
      "time": 88,
      "duration": 0.063,
      "velocity": 0.61,
      "hand": "left"
    },
    {
      "midi": 60,
      "time": 88,
      "duration": 0.86,
      "velocity": 0.7,
      "hand": "right"
    },
    {
      "midi": 63,
      "time": 88,
      "duration": 0.125,
      "velocity": 0.49,
      "hand": "right"
    },
    {
      "midi": 65,
      "time": 88,
      "duration": 0.625,
      "velocity": 0.54,
      "hand": "right"
    },
    {
      "midi": 36,
      "time": 88.25,
      "duration": 0.25,
      "velocity": 0.86,
      "hand": "left"
    },
    {
      "midi": 48,
      "time": 88.25,
      "duration": 0.25,
      "velocity": 0.54,
      "hand": "left"
    },
    {
      "midi": 51,
      "time": 88.375,
      "duration": 0.063,
      "velocity": 0.61,
      "hand": "left"
    },
    {
      "midi": 41,
      "time": 88.5,
      "duration": 0.985,
      "velocity": 0.86,
      "hand": "left"
    },
    {
      "midi": 47,
      "time": 88.5,
      "duration": 0.063,
      "velocity": 0.81,
      "hand": "left"
    },
    {
      "midi": 38,
      "time": 88.875,
      "duration": 0.063,
      "velocity": 0.97,
      "hand": "left"
    },
    {
      "midi": 51,
      "time": 88.875,
      "duration": 0.063,
      "velocity": 0.61,
      "hand": "left"
    },
    {
      "midi": 60,
      "time": 88.875,
      "duration": 0.11,
      "velocity": 0.54,
      "hand": "right"
    },
    {
      "midi": 63,
      "time": 88.875,
      "duration": 0.11,
      "velocity": 0.5,
      "hand": "right"
    },
    {
      "midi": 65,
      "time": 88.875,
      "duration": 0.063,
      "velocity": 0.41,
      "hand": "right"
    },
    {
      "midi": 38,
      "time": 89,
      "duration": 0.063,
      "velocity": 0.69,
      "hand": "left"
    },
    {
      "midi": 44,
      "time": 89,
      "duration": 0.5,
      "velocity": 0.99,
      "hand": "left"
    },
    {
      "midi": 60,
      "time": 89,
      "duration": 0.485,
      "velocity": 0.63,
      "hand": "right"
    },
    {
      "midi": 63,
      "time": 89,
      "duration": 0.125,
      "velocity": 0.54,
      "hand": "right"
    },
    {
      "midi": 65,
      "time": 89,
      "duration": 0.125,
      "velocity": 0.53,
      "hand": "right"
    },
    {
      "midi": 65,
      "time": 89.25,
      "duration": 0.235,
      "velocity": 0.53,
      "hand": "right"
    },
    {
      "midi": 51,
      "time": 89.375,
      "duration": 0.063,
      "velocity": 0.61,
      "hand": "left"
    },
    {
      "midi": 38,
      "time": 89.5,
      "duration": 0.063,
      "velocity": 0.91,
      "hand": "left"
    },
    {
      "midi": 41,
      "time": 89.5,
      "duration": 0.375,
      "velocity": 0.91,
      "hand": "left"
    },
    {
      "midi": 60,
      "time": 89.5,
      "duration": 0.125,
      "velocity": 0.55,
      "hand": "right"
    },
    {
      "midi": 63,
      "time": 89.5,
      "duration": 0.125,
      "velocity": 0.56,
      "hand": "right"
    },
    {
      "midi": 65,
      "time": 89.5,
      "duration": 0.125,
      "velocity": 0.51,
      "hand": "right"
    },
    {
      "midi": 48,
      "time": 89.75,
      "duration": 0.25,
      "velocity": 0.41,
      "hand": "left"
    },
    {
      "midi": 65,
      "time": 89.75,
      "duration": 0.25,
      "velocity": 0.46,
      "hand": "right"
    },
    {
      "midi": 51,
      "time": 89.875,
      "duration": 0.063,
      "velocity": 0.61,
      "hand": "left"
    },
    {
      "midi": 43,
      "time": 90,
      "duration": 1,
      "velocity": 1,
      "hand": "left"
    },
    {
      "midi": 47,
      "time": 90,
      "duration": 0.063,
      "velocity": 0.73,
      "hand": "left"
    },
    {
      "midi": 62,
      "time": 90,
      "duration": 0.36,
      "velocity": 0.32,
      "hand": "right"
    },
    {
      "midi": 68,
      "time": 90,
      "duration": 1,
      "velocity": 0.89,
      "hand": "right"
    },
    {
      "midi": 59,
      "time": 90.25,
      "duration": 0.11,
      "velocity": 0.5,
      "hand": "left"
    },
    {
      "midi": 47,
      "time": 90.375,
      "duration": 0.75,
      "velocity": 0.39,
      "hand": "left"
    },
    {
      "midi": 51,
      "time": 90.375,
      "duration": 0.063,
      "velocity": 0.61,
      "hand": "left"
    },
    {
      "midi": 62,
      "time": 90.375,
      "duration": 0.063,
      "velocity": 0.65,
      "hand": "right"
    },
    {
      "midi": 65,
      "time": 90.375,
      "duration": 0.11,
      "velocity": 0.61,
      "hand": "right"
    },
    {
      "midi": 67,
      "time": 90.375,
      "duration": 0.11,
      "velocity": 0.44,
      "hand": "right"
    },
    {
      "midi": 38,
      "time": 90.5,
      "duration": 0.063,
      "velocity": 0.83,
      "hand": "left"
    },
    {
      "midi": 51,
      "time": 90.5,
      "duration": 0.063,
      "velocity": 0.61,
      "hand": "left"
    },
    {
      "midi": 62,
      "time": 90.5,
      "duration": 0.25,
      "velocity": 0.68,
      "hand": "right"
    },
    {
      "midi": 65,
      "time": 90.5,
      "duration": 0.063,
      "velocity": 0.61,
      "hand": "right"
    },
    {
      "midi": 67,
      "time": 90.5,
      "duration": 0.125,
      "velocity": 0.57,
      "hand": "right"
    },
    {
      "midi": 51,
      "time": 90.875,
      "duration": 0.063,
      "velocity": 0.61,
      "hand": "left"
    },
    {
      "midi": 55,
      "time": 90.875,
      "duration": 0.11,
      "velocity": 0.2,
      "hand": "left"
    },
    {
      "midi": 38,
      "time": 91,
      "duration": 0.5,
      "velocity": 0.95,
      "hand": "left"
    },
    {
      "midi": 50,
      "time": 91,
      "duration": 0.5,
      "velocity": 0.39,
      "hand": "left"
    },
    {
      "midi": 62,
      "time": 91,
      "duration": 0.375,
      "velocity": 0.65,
      "hand": "right"
    },
    {
      "midi": 65,
      "time": 91,
      "duration": 0.125,
      "velocity": 0.72,
      "hand": "right"
    },
    {
      "midi": 67,
      "time": 91,
      "duration": 0.375,
      "velocity": 0.86,
      "hand": "right"
    },
    {
      "midi": 51,
      "time": 91.375,
      "duration": 0.063,
      "velocity": 0.61,
      "hand": "left"
    },
    {
      "midi": 43,
      "time": 91.5,
      "duration": 1.125,
      "velocity": 0.91,
      "hand": "left"
    },
    {
      "midi": 47,
      "time": 91.5,
      "duration": 0.063,
      "velocity": 0.72,
      "hand": "left"
    },
    {
      "midi": 62,
      "time": 91.5,
      "duration": 0.36,
      "velocity": 0.5,
      "hand": "right"
    },
    {
      "midi": 65,
      "time": 91.5,
      "duration": 0.36,
      "velocity": 0.5,
      "hand": "right"
    },
    {
      "midi": 67,
      "time": 91.5,
      "duration": 0.36,
      "velocity": 0.69,
      "hand": "right"
    },
    {
      "midi": 38,
      "time": 91.875,
      "duration": 0.063,
      "velocity": 0.97,
      "hand": "left"
    },
    {
      "midi": 51,
      "time": 91.875,
      "duration": 0.063,
      "velocity": 0.61,
      "hand": "left"
    },
    {
      "midi": 62,
      "time": 91.875,
      "duration": 0.11,
      "velocity": 0.58,
      "hand": "right"
    },
    {
      "midi": 65,
      "time": 91.875,
      "duration": 0.11,
      "velocity": 0.56,
      "hand": "right"
    },
    {
      "midi": 67,
      "time": 91.875,
      "duration": 0.11,
      "velocity": 0.51,
      "hand": "right"
    },
    {
      "midi": 38,
      "time": 92,
      "duration": 0.063,
      "velocity": 0.7,
      "hand": "left"
    },
    {
      "midi": 45,
      "time": 92,
      "duration": 0.625,
      "velocity": 0.96,
      "hand": "left"
    },
    {
      "midi": 62,
      "time": 92,
      "duration": 0.063,
      "velocity": 0.72,
      "hand": "right"
    },
    {
      "midi": 65,
      "time": 92,
      "duration": 0.485,
      "velocity": 0.72,
      "hand": "right"
    },
    {
      "midi": 67,
      "time": 92,
      "duration": 0.125,
      "velocity": 0.56,
      "hand": "right"
    },
    {
      "midi": 51,
      "time": 92.125,
      "duration": 0.063,
      "velocity": 0.61,
      "hand": "left"
    },
    {
      "midi": 51,
      "time": 92.375,
      "duration": 0.063,
      "velocity": 0.61,
      "hand": "left"
    },
    {
      "midi": 38,
      "time": 92.5,
      "duration": 0.063,
      "velocity": 0.9,
      "hand": "left"
    },
    {
      "midi": 47,
      "time": 92.5,
      "duration": 0.375,
      "velocity": 0.75,
      "hand": "left"
    },
    {
      "midi": 62,
      "time": 92.5,
      "duration": 0.5,
      "velocity": 0.74,
      "hand": "right"
    },
    {
      "midi": 65,
      "time": 92.5,
      "duration": 0.25,
      "velocity": 0.72,
      "hand": "right"
    },
    {
      "midi": 67,
      "time": 92.5,
      "duration": 0.125,
      "velocity": 0.61,
      "hand": "right"
    },
    {
      "midi": 51,
      "time": 92.875,
      "duration": 0.063,
      "velocity": 0.61,
      "hand": "left"
    },
    {
      "midi": 55,
      "time": 92.875,
      "duration": 0.11,
      "velocity": 0.28,
      "hand": "left"
    },
    {
      "midi": 36,
      "time": 93,
      "duration": 1.125,
      "velocity": 0.94,
      "hand": "left"
    },
    {
      "midi": 47,
      "time": 93,
      "duration": 0.063,
      "velocity": 0.77,
      "hand": "left"
    },
    {
      "midi": 60,
      "time": 93,
      "duration": 0.36,
      "velocity": 0.67,
      "hand": "right"
    },
    {
      "midi": 63,
      "time": 93,
      "duration": 0.36,
      "velocity": 0.5,
      "hand": "right"
    },
    {
      "midi": 67,
      "time": 93,
      "duration": 0.36,
      "velocity": 0.49,
      "hand": "right"
    },
    {
      "midi": 51,
      "time": 93.375,
      "duration": 0.063,
      "velocity": 0.61,
      "hand": "left"
    },
    {
      "midi": 60,
      "time": 93.375,
      "duration": 0.11,
      "velocity": 0.63,
      "hand": "right"
    },
    {
      "midi": 63,
      "time": 93.375,
      "duration": 0.063,
      "velocity": 0.72,
      "hand": "right"
    },
    {
      "midi": 67,
      "time": 93.375,
      "duration": 0.11,
      "velocity": 0.56,
      "hand": "right"
    },
    {
      "midi": 38,
      "time": 93.5,
      "duration": 0.063,
      "velocity": 0.8,
      "hand": "left"
    },
    {
      "midi": 51,
      "time": 93.5,
      "duration": 0.063,
      "velocity": 0.61,
      "hand": "left"
    },
    {
      "midi": 60,
      "time": 93.5,
      "duration": 0.125,
      "velocity": 0.59,
      "hand": "right"
    },
    {
      "midi": 63,
      "time": 93.5,
      "duration": 0.125,
      "velocity": 0.68,
      "hand": "right"
    },
    {
      "midi": 67,
      "time": 93.5,
      "duration": 0.125,
      "velocity": 0.54,
      "hand": "right"
    },
    {
      "midi": 51,
      "time": 93.875,
      "duration": 0.063,
      "velocity": 0.61,
      "hand": "left"
    },
    {
      "midi": 38,
      "time": 94,
      "duration": 0.063,
      "velocity": 0.91,
      "hand": "left"
    },
    {
      "midi": 43,
      "time": 94,
      "duration": 0.25,
      "velocity": 0.8,
      "hand": "left"
    },
    {
      "midi": 60,
      "time": 94,
      "duration": 0.125,
      "velocity": 0.56,
      "hand": "right"
    },
    {
      "midi": 63,
      "time": 94,
      "duration": 0.125,
      "velocity": 0.57,
      "hand": "right"
    },
    {
      "midi": 67,
      "time": 94,
      "duration": 0.125,
      "velocity": 0.55,
      "hand": "right"
    },
    {
      "midi": 36,
      "time": 94.25,
      "duration": 0.25,
      "velocity": 0.87,
      "hand": "left"
    },
    {
      "midi": 51,
      "time": 94.375,
      "duration": 0.063,
      "velocity": 0.61,
      "hand": "left"
    },
    {
      "midi": 38,
      "time": 94.5,
      "duration": 0.36,
      "velocity": 0.56,
      "hand": "left"
    },
    {
      "midi": 47,
      "time": 94.5,
      "duration": 0.063,
      "velocity": 0.75,
      "hand": "left"
    },
    {
      "midi": 60,
      "time": 94.5,
      "duration": 0.375,
      "velocity": 0.5,
      "hand": "right"
    },
    {
      "midi": 62,
      "time": 94.5,
      "duration": 0.375,
      "velocity": 0.55,
      "hand": "right"
    },
    {
      "midi": 65,
      "time": 94.5,
      "duration": 0.5,
      "velocity": 0.57,
      "hand": "right"
    },
    {
      "midi": 38,
      "time": 94.875,
      "duration": 0.063,
      "velocity": 0.91,
      "hand": "left"
    },
    {
      "midi": 51,
      "time": 94.875,
      "duration": 0.063,
      "velocity": 0.61,
      "hand": "left"
    },
    {
      "midi": 38,
      "time": 95,
      "duration": 0.063,
      "velocity": 0.91,
      "hand": "left"
    },
    {
      "midi": 43,
      "time": 95,
      "duration": 0.375,
      "velocity": 0.56,
      "hand": "left"
    },
    {
      "midi": 63,
      "time": 95,
      "duration": 0.485,
      "velocity": 0.45,
      "hand": "right"
    },
    {
      "midi": 67,
      "time": 95,
      "duration": 0.375,
      "velocity": 0.42,
      "hand": "right"
    },
    {
      "midi": 39,
      "time": 95.25,
      "duration": 0.063,
      "velocity": 0.91,
      "hand": "left"
    },
    {
      "midi": 51,
      "time": 95.375,
      "duration": 0.063,
      "velocity": 0.61,
      "hand": "left"
    },
    {
      "midi": 38,
      "time": 95.5,
      "duration": 0.063,
      "velocity": 0.93,
      "hand": "left"
    },
    {
      "midi": 43,
      "time": 95.5,
      "duration": 0.375,
      "velocity": 0.96,
      "hand": "left"
    },
    {
      "midi": 63,
      "time": 95.5,
      "duration": 0.125,
      "velocity": 0.48,
      "hand": "right"
    },
    {
      "midi": 67,
      "time": 95.5,
      "duration": 0.25,
      "velocity": 0.25,
      "hand": "right"
    },
    {
      "midi": 39,
      "time": 95.75,
      "duration": 0.063,
      "velocity": 0.72,
      "hand": "left"
    },
    {
      "midi": 51,
      "time": 95.875,
      "duration": 0.063,
      "velocity": 0.61,
      "hand": "left"
    },
    {
      "midi": 36,
      "time": 96,
      "duration": 1.125,
      "velocity": 0.97,
      "hand": "left"
    },
    {
      "midi": 38,
      "time": 96,
      "duration": 0.063,
      "velocity": 0.83,
      "hand": "left"
    },
    {
      "midi": 60,
      "time": 96,
      "duration": 0.875,
      "velocity": 0.51,
      "hand": "right"
    },
    {
      "midi": 63,
      "time": 96,
      "duration": 0.875,
      "velocity": 0.51,
      "hand": "right"
    },
    {
      "midi": 67,
      "time": 96,
      "duration": 0.875,
      "velocity": 0.63,
      "hand": "right"
    }
  ],
  "arrangements": {
    "easy": [
      {
        "midi": 67,
        "time": 0,
        "duration": 0.45,
        "velocity": 0.57,
        "hand": "right"
      },
      {
        "midi": 55,
        "time": 0.75,
        "duration": 0.45,
        "velocity": 0.59,
        "hand": "right"
      },
      {
        "midi": 75,
        "time": 1.5,
        "duration": 0.5,
        "velocity": 0.84,
        "hand": "right"
      },
      {
        "midi": 63,
        "time": 2.375,
        "duration": 0.45,
        "velocity": 0.61,
        "hand": "right"
      },
      {
        "midi": 65,
        "time": 3.375,
        "duration": 0.45,
        "velocity": 0.39,
        "hand": "right"
      },
      {
        "midi": 65,
        "time": 4.25,
        "duration": 0.45,
        "velocity": 0.5,
        "hand": "right"
      },
      {
        "midi": 65,
        "time": 5,
        "duration": 0.45,
        "velocity": 0.45,
        "hand": "right"
      },
      {
        "midi": 63,
        "time": 5.875,
        "duration": 0.45,
        "velocity": 0.61,
        "hand": "right"
      },
      {
        "midi": 65,
        "time": 6.75,
        "duration": 0.625,
        "velocity": 0.61,
        "hand": "right"
      },
      {
        "midi": 74,
        "time": 7.5,
        "duration": 0.5,
        "velocity": 0.75,
        "hand": "right"
      },
      {
        "midi": 63,
        "time": 8.375,
        "duration": 0.45,
        "velocity": 0.61,
        "hand": "right"
      },
      {
        "midi": 63,
        "time": 9.375,
        "duration": 0.45,
        "velocity": 0.54,
        "hand": "right"
      },
      {
        "midi": 63,
        "time": 10.375,
        "duration": 0.45,
        "velocity": 0.61,
        "hand": "right"
      },
      {
        "midi": 63,
        "time": 11.125,
        "duration": 0.45,
        "velocity": 0.61,
        "hand": "right"
      },
      {
        "midi": 55,
        "time": 11.875,
        "duration": 0.485,
        "velocity": 0.41,
        "hand": "right"
      },
      {
        "midi": 63,
        "time": 12.875,
        "duration": 0.45,
        "velocity": 0.61,
        "hand": "right"
      },
      {
        "midi": 67,
        "time": 13.875,
        "duration": 0.45,
        "velocity": 0.52,
        "hand": "right"
      },
      {
        "midi": 63,
        "time": 14.875,
        "duration": 0.45,
        "velocity": 0.61,
        "hand": "right"
      },
      {
        "midi": 63,
        "time": 15.875,
        "duration": 0.45,
        "velocity": 0.61,
        "hand": "right"
      },
      {
        "midi": 65,
        "time": 16.875,
        "duration": 0.45,
        "velocity": 0.41,
        "hand": "right"
      },
      {
        "midi": 65,
        "time": 17.75,
        "duration": 0.45,
        "velocity": 0.46,
        "hand": "right"
      },
      {
        "midi": 67,
        "time": 18.5,
        "duration": 0.45,
        "velocity": 0.57,
        "hand": "right"
      },
      {
        "midi": 63,
        "time": 19.375,
        "duration": 0.45,
        "velocity": 0.61,
        "hand": "right"
      },
      {
        "midi": 63,
        "time": 20.125,
        "duration": 0.45,
        "velocity": 0.61,
        "hand": "right"
      },
      {
        "midi": 55,
        "time": 20.875,
        "duration": 0.45,
        "velocity": 0.28,
        "hand": "right"
      },
      {
        "midi": 63,
        "time": 21.875,
        "duration": 0.45,
        "velocity": 0.61,
        "hand": "right"
      },
      {
        "midi": 62,
        "time": 22.75,
        "duration": 0.45,
        "velocity": 0.91,
        "hand": "right"
      },
      {
        "midi": 67,
        "time": 23.5,
        "duration": 0.45,
        "velocity": 0.25,
        "hand": "right"
      },
      {
        "midi": 63,
        "time": 24.25,
        "duration": 0.45,
        "velocity": 0.8,
        "hand": "right"
      },
      {
        "midi": 67,
        "time": 25,
        "duration": 0.45,
        "velocity": 0.54,
        "hand": "right"
      },
      {
        "midi": 67,
        "time": 25.875,
        "duration": 0.45,
        "velocity": 0.34,
        "hand": "right"
      },
      {
        "midi": 55,
        "time": 26.75,
        "duration": 0.45,
        "velocity": 0.54,
        "hand": "right"
      },
      {
        "midi": 67,
        "time": 27.5,
        "duration": 0.5,
        "velocity": 0.52,
        "hand": "right"
      },
      {
        "midi": 64,
        "time": 28.25,
        "duration": 0.45,
        "velocity": 0.54,
        "hand": "right"
      },
      {
        "midi": 65,
        "time": 29,
        "duration": 0.45,
        "velocity": 0.52,
        "hand": "right"
      },
      {
        "midi": 60,
        "time": 29.75,
        "duration": 0.45,
        "velocity": 0.59,
        "hand": "right"
      },
      {
        "midi": 68,
        "time": 30.5,
        "duration": 0.5,
        "velocity": 0.61,
        "hand": "right"
      },
      {
        "midi": 65,
        "time": 31.25,
        "duration": 0.45,
        "velocity": 0.56,
        "hand": "right"
      },
      {
        "midi": 67,
        "time": 32,
        "duration": 0.485,
        "velocity": 0.54,
        "hand": "right"
      },
      {
        "midi": 55,
        "time": 32.75,
        "duration": 0.45,
        "velocity": 0.57,
        "hand": "right"
      },
      {
        "midi": 67,
        "time": 33.5,
        "duration": 0.45,
        "velocity": 0.52,
        "hand": "right"
      },
      {
        "midi": 62,
        "time": 34.25,
        "duration": 0.45,
        "velocity": 0.57,
        "hand": "right"
      },
      {
        "midi": 65,
        "time": 35,
        "duration": 0.45,
        "velocity": 0.53,
        "hand": "right"
      },
      {
        "midi": 67,
        "time": 35.75,
        "duration": 0.45,
        "velocity": 0.5,
        "hand": "right"
      },
      {
        "midi": 67,
        "time": 36.5,
        "duration": 0.45,
        "velocity": 0.48,
        "hand": "right"
      },
      {
        "midi": 67,
        "time": 37.25,
        "duration": 0.45,
        "velocity": 0.52,
        "hand": "right"
      },
      {
        "midi": 67,
        "time": 38,
        "duration": 0.45,
        "velocity": 0.28,
        "hand": "right"
      },
      {
        "midi": 55,
        "time": 38.75,
        "duration": 0.45,
        "velocity": 0.54,
        "hand": "right"
      },
      {
        "midi": 67,
        "time": 39.5,
        "duration": 0.5,
        "velocity": 0.52,
        "hand": "right"
      },
      {
        "midi": 64,
        "time": 40.25,
        "duration": 0.45,
        "velocity": 0.54,
        "hand": "right"
      },
      {
        "midi": 65,
        "time": 41,
        "duration": 0.45,
        "velocity": 0.52,
        "hand": "right"
      },
      {
        "midi": 60,
        "time": 41.75,
        "duration": 0.45,
        "velocity": 0.59,
        "hand": "right"
      },
      {
        "midi": 68,
        "time": 42.5,
        "duration": 0.5,
        "velocity": 0.61,
        "hand": "right"
      },
      {
        "midi": 65,
        "time": 43.25,
        "duration": 0.45,
        "velocity": 0.56,
        "hand": "right"
      },
      {
        "midi": 67,
        "time": 44,
        "duration": 0.485,
        "velocity": 0.54,
        "hand": "right"
      },
      {
        "midi": 55,
        "time": 44.75,
        "duration": 0.45,
        "velocity": 0.57,
        "hand": "right"
      },
      {
        "midi": 67,
        "time": 45.5,
        "duration": 0.45,
        "velocity": 0.52,
        "hand": "right"
      },
      {
        "midi": 62,
        "time": 46.25,
        "duration": 0.45,
        "velocity": 0.57,
        "hand": "right"
      },
      {
        "midi": 65,
        "time": 47,
        "duration": 0.45,
        "velocity": 0.53,
        "hand": "right"
      },
      {
        "midi": 67,
        "time": 47.75,
        "duration": 0.45,
        "velocity": 0.65,
        "hand": "right"
      },
      {
        "midi": 67,
        "time": 48.5,
        "duration": 0.45,
        "velocity": 0.48,
        "hand": "right"
      },
      {
        "midi": 67,
        "time": 49.25,
        "duration": 0.45,
        "velocity": 0.68,
        "hand": "right"
      },
      {
        "midi": 67,
        "time": 50,
        "duration": 0.45,
        "velocity": 0.28,
        "hand": "right"
      },
      {
        "midi": 55,
        "time": 50.75,
        "duration": 0.45,
        "velocity": 0.54,
        "hand": "right"
      },
      {
        "midi": 67,
        "time": 51.5,
        "duration": 0.5,
        "velocity": 0.68,
        "hand": "right"
      },
      {
        "midi": 64,
        "time": 52.25,
        "duration": 0.45,
        "velocity": 0.7,
        "hand": "right"
      },
      {
        "midi": 65,
        "time": 53,
        "duration": 0.45,
        "velocity": 0.52,
        "hand": "right"
      },
      {
        "midi": 60,
        "time": 53.75,
        "duration": 0.45,
        "velocity": 0.59,
        "hand": "right"
      },
      {
        "midi": 68,
        "time": 54.5,
        "duration": 0.5,
        "velocity": 0.77,
        "hand": "right"
      },
      {
        "midi": 65,
        "time": 55.25,
        "duration": 0.45,
        "velocity": 0.72,
        "hand": "right"
      },
      {
        "midi": 67,
        "time": 56,
        "duration": 0.485,
        "velocity": 0.69,
        "hand": "right"
      },
      {
        "midi": 66,
        "time": 56.75,
        "duration": 0.45,
        "velocity": 0.54,
        "hand": "right"
      },
      {
        "midi": 67,
        "time": 57.5,
        "duration": 0.45,
        "velocity": 0.52,
        "hand": "right"
      },
      {
        "midi": 62,
        "time": 58.25,
        "duration": 0.45,
        "velocity": 0.72,
        "hand": "right"
      },
      {
        "midi": 65,
        "time": 59,
        "duration": 0.45,
        "velocity": 0.53,
        "hand": "right"
      },
      {
        "midi": 67,
        "time": 59.75,
        "duration": 0.45,
        "velocity": 0.65,
        "hand": "right"
      },
      {
        "midi": 67,
        "time": 60.5,
        "duration": 0.45,
        "velocity": 0.48,
        "hand": "right"
      },
      {
        "midi": 67,
        "time": 61.25,
        "duration": 0.45,
        "velocity": 0.68,
        "hand": "right"
      },
      {
        "midi": 79,
        "time": 62,
        "duration": 0.5,
        "velocity": 0.74,
        "hand": "right"
      },
      {
        "midi": 55,
        "time": 62.75,
        "duration": 0.45,
        "velocity": 0.54,
        "hand": "right"
      },
      {
        "midi": 77,
        "time": 63.5,
        "duration": 0.5,
        "velocity": 0.75,
        "hand": "right"
      },
      {
        "midi": 64,
        "time": 64.25,
        "duration": 0.45,
        "velocity": 0.7,
        "hand": "right"
      },
      {
        "midi": 80,
        "time": 65,
        "duration": 0.875,
        "velocity": 0.57,
        "hand": "right"
      },
      {
        "midi": 60,
        "time": 65.75,
        "duration": 0.45,
        "velocity": 0.59,
        "hand": "right"
      },
      {
        "midi": 82,
        "time": 66.5,
        "duration": 0.45,
        "velocity": 0.74,
        "hand": "right"
      },
      {
        "midi": 65,
        "time": 67.25,
        "duration": 0.45,
        "velocity": 0.72,
        "hand": "right"
      },
      {
        "midi": 84,
        "time": 68,
        "duration": 0.5,
        "velocity": 0.57,
        "hand": "right"
      },
      {
        "midi": 66,
        "time": 68.75,
        "duration": 0.45,
        "velocity": 0.54,
        "hand": "right"
      },
      {
        "midi": 83,
        "time": 69.5,
        "duration": 0.5,
        "velocity": 0.61,
        "hand": "right"
      },
      {
        "midi": 62,
        "time": 70.25,
        "duration": 0.45,
        "velocity": 0.72,
        "hand": "right"
      },
      {
        "midi": 65,
        "time": 71,
        "duration": 0.45,
        "velocity": 0.53,
        "hand": "right"
      },
      {
        "midi": 63,
        "time": 71.75,
        "duration": 0.45,
        "velocity": 0.72,
        "hand": "right"
      },
      {
        "midi": 67,
        "time": 72.5,
        "duration": 0.45,
        "velocity": 0.52,
        "hand": "right"
      },
      {
        "midi": 63,
        "time": 73.25,
        "duration": 0.45,
        "velocity": 0.5,
        "hand": "right"
      },
      {
        "midi": 74,
        "time": 74,
        "duration": 0.5,
        "velocity": 0.7,
        "hand": "right"
      },
      {
        "midi": 63,
        "time": 74.875,
        "duration": 0.45,
        "velocity": 0.61,
        "hand": "right"
      },
      {
        "midi": 56,
        "time": 75.75,
        "duration": 0.45,
        "velocity": 0.78,
        "hand": "right"
      },
      {
        "midi": 67,
        "time": 76.5,
        "duration": 0.875,
        "velocity": 0.5,
        "hand": "right"
      },
      {
        "midi": 63,
        "time": 77.375,
        "duration": 0.45,
        "velocity": 0.61,
        "hand": "right"
      },
      {
        "midi": 58,
        "time": 78.25,
        "duration": 0.5,
        "velocity": 0.7,
        "hand": "right"
      },
      {
        "midi": 65,
        "time": 79,
        "duration": 0.45,
        "velocity": 0.5,
        "hand": "right"
      },
      {
        "midi": 62,
        "time": 79.875,
        "duration": 0.45,
        "velocity": 0.57,
        "hand": "right"
      },
      {
        "midi": 63,
        "time": 80.875,
        "duration": 0.45,
        "velocity": 0.61,
        "hand": "right"
      },
      {
        "midi": 63,
        "time": 81.875,
        "duration": 0.45,
        "velocity": 0.61,
        "hand": "right"
      },
      {
        "midi": 63,
        "time": 82.875,
        "duration": 0.45,
        "velocity": 0.57,
        "hand": "right"
      },
      {
        "midi": 55,
        "time": 83.875,
        "duration": 0.485,
        "velocity": 0.41,
        "hand": "right"
      },
      {
        "midi": 63,
        "time": 84.875,
        "duration": 0.45,
        "velocity": 0.61,
        "hand": "right"
      },
      {
        "midi": 67,
        "time": 85.875,
        "duration": 0.45,
        "velocity": 0.52,
        "hand": "right"
      },
      {
        "midi": 63,
        "time": 86.875,
        "duration": 0.45,
        "velocity": 0.61,
        "hand": "right"
      },
      {
        "midi": 63,
        "time": 87.875,
        "duration": 0.45,
        "velocity": 0.61,
        "hand": "right"
      },
      {
        "midi": 65,
        "time": 88.875,
        "duration": 0.45,
        "velocity": 0.41,
        "hand": "right"
      },
      {
        "midi": 65,
        "time": 89.75,
        "duration": 0.45,
        "velocity": 0.46,
        "hand": "right"
      },
      {
        "midi": 67,
        "time": 90.5,
        "duration": 0.45,
        "velocity": 0.57,
        "hand": "right"
      },
      {
        "midi": 63,
        "time": 91.375,
        "duration": 0.45,
        "velocity": 0.61,
        "hand": "right"
      },
      {
        "midi": 63,
        "time": 92.125,
        "duration": 0.45,
        "velocity": 0.61,
        "hand": "right"
      },
      {
        "midi": 55,
        "time": 92.875,
        "duration": 0.45,
        "velocity": 0.28,
        "hand": "right"
      },
      {
        "midi": 63,
        "time": 93.875,
        "duration": 0.45,
        "velocity": 0.61,
        "hand": "right"
      },
      {
        "midi": 63,
        "time": 94.875,
        "duration": 0.45,
        "velocity": 0.61,
        "hand": "right"
      },
      {
        "midi": 63,
        "time": 95.75,
        "duration": 0.45,
        "velocity": 0.72,
        "hand": "right"
      }
    ],
    "medium": [
      {
        "midi": 67,
        "time": 0,
        "duration": 0.36,
        "velocity": 0.57,
        "hand": "right"
      },
      {
        "midi": 55,
        "time": 0.75,
        "duration": 0.262,
        "velocity": 0.59,
        "hand": "left"
      },
      {
        "midi": 75,
        "time": 1.5,
        "duration": 0.5,
        "velocity": 0.84,
        "hand": "right"
      },
      {
        "midi": 51,
        "time": 2.375,
        "duration": 0.262,
        "velocity": 0.61,
        "hand": "left"
      },
      {
        "midi": 51,
        "time": 3.375,
        "duration": 0.262,
        "velocity": 0.61,
        "hand": "left"
      },
      {
        "midi": 65,
        "time": 3.375,
        "duration": 0.262,
        "velocity": 0.39,
        "hand": "right"
      },
      {
        "midi": 65,
        "time": 4.25,
        "duration": 0.262,
        "velocity": 0.5,
        "hand": "right"
      },
      {
        "midi": 50,
        "time": 5,
        "duration": 0.262,
        "velocity": 0.65,
        "hand": "left"
      },
      {
        "midi": 65,
        "time": 5,
        "duration": 0.262,
        "velocity": 0.45,
        "hand": "right"
      },
      {
        "midi": 51,
        "time": 5.875,
        "duration": 0.262,
        "velocity": 0.61,
        "hand": "left"
      },
      {
        "midi": 53,
        "time": 6.75,
        "duration": 0.625,
        "velocity": 0.61,
        "hand": "left"
      },
      {
        "midi": 59,
        "time": 7.5,
        "duration": 0.262,
        "velocity": 0.81,
        "hand": "left"
      },
      {
        "midi": 74,
        "time": 7.5,
        "duration": 0.5,
        "velocity": 0.75,
        "hand": "right"
      },
      {
        "midi": 51,
        "time": 8.375,
        "duration": 0.262,
        "velocity": 0.61,
        "hand": "left"
      },
      {
        "midi": 51,
        "time": 9.375,
        "duration": 0.262,
        "velocity": 0.61,
        "hand": "left"
      },
      {
        "midi": 63,
        "time": 9.375,
        "duration": 0.262,
        "velocity": 0.54,
        "hand": "right"
      },
      {
        "midi": 51,
        "time": 10.375,
        "duration": 0.262,
        "velocity": 0.61,
        "hand": "left"
      },
      {
        "midi": 51,
        "time": 11.125,
        "duration": 0.262,
        "velocity": 0.61,
        "hand": "left"
      },
      {
        "midi": 51,
        "time": 11.875,
        "duration": 0.262,
        "velocity": 0.61,
        "hand": "left"
      },
      {
        "midi": 55,
        "time": 11.875,
        "duration": 0.485,
        "velocity": 0.41,
        "hand": "left"
      },
      {
        "midi": 51,
        "time": 12.875,
        "duration": 0.262,
        "velocity": 0.61,
        "hand": "left"
      },
      {
        "midi": 67,
        "time": 13.875,
        "duration": 0.262,
        "velocity": 0.52,
        "hand": "right"
      },
      {
        "midi": 51,
        "time": 14.875,
        "duration": 0.262,
        "velocity": 0.61,
        "hand": "left"
      },
      {
        "midi": 51,
        "time": 15.875,
        "duration": 0.262,
        "velocity": 0.61,
        "hand": "left"
      },
      {
        "midi": 50,
        "time": 16.875,
        "duration": 0.262,
        "velocity": 0.97,
        "hand": "left"
      },
      {
        "midi": 65,
        "time": 16.875,
        "duration": 0.262,
        "velocity": 0.41,
        "hand": "right"
      },
      {
        "midi": 65,
        "time": 17.75,
        "duration": 0.262,
        "velocity": 0.46,
        "hand": "right"
      },
      {
        "midi": 67,
        "time": 18.5,
        "duration": 0.262,
        "velocity": 0.57,
        "hand": "right"
      },
      {
        "midi": 51,
        "time": 19.375,
        "duration": 0.262,
        "velocity": 0.61,
        "hand": "left"
      },
      {
        "midi": 51,
        "time": 20.125,
        "duration": 0.262,
        "velocity": 0.61,
        "hand": "left"
      },
      {
        "midi": 51,
        "time": 20.875,
        "duration": 0.262,
        "velocity": 0.61,
        "hand": "left"
      },
      {
        "midi": 55,
        "time": 20.875,
        "duration": 0.262,
        "velocity": 0.28,
        "hand": "left"
      },
      {
        "midi": 51,
        "time": 21.875,
        "duration": 0.262,
        "velocity": 0.61,
        "hand": "left"
      },
      {
        "midi": 38,
        "time": 22.75,
        "duration": 0.262,
        "velocity": 0.91,
        "hand": "left"
      },
      {
        "midi": 67,
        "time": 23.5,
        "duration": 0.262,
        "velocity": 0.25,
        "hand": "right"
      },
      {
        "midi": 63,
        "time": 24.25,
        "duration": 0.262,
        "velocity": 0.8,
        "hand": "right"
      },
      {
        "midi": 67,
        "time": 25,
        "duration": 0.262,
        "velocity": 0.54,
        "hand": "right"
      },
      {
        "midi": 67,
        "time": 25.875,
        "duration": 0.262,
        "velocity": 0.34,
        "hand": "right"
      },
      {
        "midi": 55,
        "time": 26.75,
        "duration": 0.262,
        "velocity": 0.54,
        "hand": "left"
      },
      {
        "midi": 67,
        "time": 27.5,
        "duration": 0.5,
        "velocity": 0.52,
        "hand": "right"
      },
      {
        "midi": 48,
        "time": 28.25,
        "duration": 0.262,
        "velocity": 0.94,
        "hand": "left"
      },
      {
        "midi": 64,
        "time": 28.25,
        "duration": 0.262,
        "velocity": 0.54,
        "hand": "right"
      },
      {
        "midi": 50,
        "time": 29,
        "duration": 0.262,
        "velocity": 0.65,
        "hand": "left"
      },
      {
        "midi": 65,
        "time": 29,
        "duration": 0.262,
        "velocity": 0.52,
        "hand": "right"
      },
      {
        "midi": 53,
        "time": 29.75,
        "duration": 0.262,
        "velocity": 0.91,
        "hand": "left"
      },
      {
        "midi": 60,
        "time": 29.75,
        "duration": 0.262,
        "velocity": 0.59,
        "hand": "right"
      },
      {
        "midi": 68,
        "time": 30.5,
        "duration": 0.5,
        "velocity": 0.61,
        "hand": "right"
      },
      {
        "midi": 58,
        "time": 31.25,
        "duration": 0.262,
        "velocity": 1,
        "hand": "left"
      },
      {
        "midi": 65,
        "time": 31.25,
        "duration": 0.262,
        "velocity": 0.56,
        "hand": "right"
      },
      {
        "midi": 67,
        "time": 32,
        "duration": 0.485,
        "velocity": 0.54,
        "hand": "right"
      },
      {
        "midi": 45,
        "time": 32.75,
        "duration": 0.262,
        "velocity": 0.97,
        "hand": "left"
      },
      {
        "midi": 55,
        "time": 32.75,
        "duration": 0.262,
        "velocity": 0.57,
        "hand": "left"
      },
      {
        "midi": 67,
        "time": 33.5,
        "duration": 0.262,
        "velocity": 0.52,
        "hand": "right"
      },
      {
        "midi": 55,
        "time": 34.25,
        "duration": 0.262,
        "velocity": 0.94,
        "hand": "left"
      },
      {
        "midi": 62,
        "time": 34.25,
        "duration": 0.262,
        "velocity": 0.57,
        "hand": "right"
      },
      {
        "midi": 51,
        "time": 35,
        "duration": 0.262,
        "velocity": 0.94,
        "hand": "left"
      },
      {
        "midi": 65,
        "time": 35,
        "duration": 0.375,
        "velocity": 0.53,
        "hand": "right"
      },
      {
        "midi": 57,
        "time": 35.75,
        "duration": 0.262,
        "velocity": 0.81,
        "hand": "left"
      },
      {
        "midi": 67,
        "time": 35.75,
        "duration": 0.262,
        "velocity": 0.5,
        "hand": "right"
      },
      {
        "midi": 67,
        "time": 36.5,
        "duration": 0.262,
        "velocity": 0.48,
        "hand": "right"
      },
      {
        "midi": 55,
        "time": 37.25,
        "duration": 0.262,
        "velocity": 0.94,
        "hand": "left"
      },
      {
        "midi": 67,
        "time": 37.25,
        "duration": 0.262,
        "velocity": 0.52,
        "hand": "right"
      },
      {
        "midi": 67,
        "time": 38,
        "duration": 0.262,
        "velocity": 0.28,
        "hand": "right"
      },
      {
        "midi": 55,
        "time": 38.75,
        "duration": 0.262,
        "velocity": 0.54,
        "hand": "left"
      },
      {
        "midi": 67,
        "time": 39.5,
        "duration": 0.5,
        "velocity": 0.52,
        "hand": "right"
      },
      {
        "midi": 48,
        "time": 40.25,
        "duration": 0.262,
        "velocity": 0.94,
        "hand": "left"
      },
      {
        "midi": 64,
        "time": 40.25,
        "duration": 0.262,
        "velocity": 0.54,
        "hand": "right"
      },
      {
        "midi": 50,
        "time": 41,
        "duration": 0.262,
        "velocity": 0.69,
        "hand": "left"
      },
      {
        "midi": 65,
        "time": 41,
        "duration": 0.262,
        "velocity": 0.52,
        "hand": "right"
      },
      {
        "midi": 53,
        "time": 41.75,
        "duration": 0.262,
        "velocity": 0.91,
        "hand": "left"
      },
      {
        "midi": 60,
        "time": 41.75,
        "duration": 0.262,
        "velocity": 0.59,
        "hand": "right"
      },
      {
        "midi": 68,
        "time": 42.5,
        "duration": 0.5,
        "velocity": 0.61,
        "hand": "right"
      },
      {
        "midi": 58,
        "time": 43.25,
        "duration": 0.262,
        "velocity": 1,
        "hand": "left"
      },
      {
        "midi": 65,
        "time": 43.25,
        "duration": 0.262,
        "velocity": 0.56,
        "hand": "right"
      },
      {
        "midi": 67,
        "time": 44,
        "duration": 0.485,
        "velocity": 0.54,
        "hand": "right"
      },
      {
        "midi": 45,
        "time": 44.75,
        "duration": 0.262,
        "velocity": 0.97,
        "hand": "left"
      },
      {
        "midi": 55,
        "time": 44.75,
        "duration": 0.262,
        "velocity": 0.57,
        "hand": "left"
      },
      {
        "midi": 67,
        "time": 45.5,
        "duration": 0.262,
        "velocity": 0.52,
        "hand": "right"
      },
      {
        "midi": 55,
        "time": 46.25,
        "duration": 0.262,
        "velocity": 0.94,
        "hand": "left"
      },
      {
        "midi": 62,
        "time": 46.25,
        "duration": 0.262,
        "velocity": 0.57,
        "hand": "right"
      },
      {
        "midi": 50,
        "time": 47,
        "duration": 0.485,
        "velocity": 0.91,
        "hand": "left"
      },
      {
        "midi": 65,
        "time": 47,
        "duration": 0.375,
        "velocity": 0.53,
        "hand": "right"
      },
      {
        "midi": 51,
        "time": 47.75,
        "duration": 0.262,
        "velocity": 0.72,
        "hand": "left"
      },
      {
        "midi": 67,
        "time": 47.75,
        "duration": 0.262,
        "velocity": 0.65,
        "hand": "right"
      },
      {
        "midi": 67,
        "time": 48.5,
        "duration": 0.262,
        "velocity": 0.48,
        "hand": "right"
      },
      {
        "midi": 55,
        "time": 49.25,
        "duration": 0.262,
        "velocity": 0.94,
        "hand": "left"
      },
      {
        "midi": 67,
        "time": 49.25,
        "duration": 0.262,
        "velocity": 0.68,
        "hand": "right"
      },
      {
        "midi": 67,
        "time": 50,
        "duration": 0.262,
        "velocity": 0.28,
        "hand": "right"
      },
      {
        "midi": 55,
        "time": 50.75,
        "duration": 0.262,
        "velocity": 0.54,
        "hand": "left"
      },
      {
        "midi": 67,
        "time": 51.5,
        "duration": 0.5,
        "velocity": 0.68,
        "hand": "right"
      },
      {
        "midi": 48,
        "time": 52.25,
        "duration": 0.262,
        "velocity": 0.94,
        "hand": "left"
      },
      {
        "midi": 64,
        "time": 52.25,
        "duration": 0.262,
        "velocity": 0.7,
        "hand": "right"
      },
      {
        "midi": 50,
        "time": 53,
        "duration": 0.262,
        "velocity": 0.65,
        "hand": "left"
      },
      {
        "midi": 65,
        "time": 53,
        "duration": 0.262,
        "velocity": 0.52,
        "hand": "right"
      },
      {
        "midi": 53,
        "time": 53.75,
        "duration": 0.262,
        "velocity": 0.91,
        "hand": "left"
      },
      {
        "midi": 60,
        "time": 53.75,
        "duration": 0.262,
        "velocity": 0.59,
        "hand": "right"
      },
      {
        "midi": 68,
        "time": 54.5,
        "duration": 0.5,
        "velocity": 0.77,
        "hand": "right"
      },
      {
        "midi": 58,
        "time": 55.25,
        "duration": 0.262,
        "velocity": 1,
        "hand": "left"
      },
      {
        "midi": 65,
        "time": 55.25,
        "duration": 0.262,
        "velocity": 0.72,
        "hand": "right"
      },
      {
        "midi": 67,
        "time": 56,
        "duration": 0.485,
        "velocity": 0.69,
        "hand": "right"
      },
      {
        "midi": 45,
        "time": 56.75,
        "duration": 0.262,
        "velocity": 0.97,
        "hand": "left"
      },
      {
        "midi": 54,
        "time": 56.75,
        "duration": 0.262,
        "velocity": 0.54,
        "hand": "left"
      },
      {
        "midi": 67,
        "time": 57.5,
        "duration": 0.262,
        "velocity": 0.52,
        "hand": "right"
      },
      {
        "midi": 55,
        "time": 58.25,
        "duration": 0.262,
        "velocity": 0.94,
        "hand": "left"
      },
      {
        "midi": 62,
        "time": 58.25,
        "duration": 0.262,
        "velocity": 0.72,
        "hand": "right"
      },
      {
        "midi": 51,
        "time": 59,
        "duration": 0.262,
        "velocity": 0.94,
        "hand": "left"
      },
      {
        "midi": 65,
        "time": 59,
        "duration": 0.375,
        "velocity": 0.53,
        "hand": "right"
      },
      {
        "midi": 54,
        "time": 59.75,
        "duration": 0.262,
        "velocity": 0.54,
        "hand": "left"
      },
      {
        "midi": 67,
        "time": 59.75,
        "duration": 0.262,
        "velocity": 0.65,
        "hand": "right"
      },
      {
        "midi": 67,
        "time": 60.5,
        "duration": 0.262,
        "velocity": 0.48,
        "hand": "right"
      },
      {
        "midi": 55,
        "time": 61.25,
        "duration": 0.262,
        "velocity": 0.94,
        "hand": "left"
      },
      {
        "midi": 67,
        "time": 61.25,
        "duration": 0.262,
        "velocity": 0.68,
        "hand": "right"
      },
      {
        "midi": 79,
        "time": 62,
        "duration": 0.5,
        "velocity": 0.74,
        "hand": "right"
      },
      {
        "midi": 55,
        "time": 62.75,
        "duration": 0.262,
        "velocity": 0.54,
        "hand": "left"
      },
      {
        "midi": 77,
        "time": 63.5,
        "duration": 0.5,
        "velocity": 0.75,
        "hand": "right"
      },
      {
        "midi": 48,
        "time": 64.25,
        "duration": 0.262,
        "velocity": 0.94,
        "hand": "left"
      },
      {
        "midi": 64,
        "time": 64.25,
        "duration": 0.262,
        "velocity": 0.7,
        "hand": "right"
      },
      {
        "midi": 80,
        "time": 65,
        "duration": 0.875,
        "velocity": 0.57,
        "hand": "right"
      },
      {
        "midi": 53,
        "time": 65.75,
        "duration": 0.262,
        "velocity": 0.91,
        "hand": "left"
      },
      {
        "midi": 60,
        "time": 65.75,
        "duration": 0.262,
        "velocity": 0.59,
        "hand": "right"
      },
      {
        "midi": 82,
        "time": 66.5,
        "duration": 0.375,
        "velocity": 0.74,
        "hand": "right"
      },
      {
        "midi": 58,
        "time": 67.25,
        "duration": 0.262,
        "velocity": 1,
        "hand": "left"
      },
      {
        "midi": 65,
        "time": 67.25,
        "duration": 0.262,
        "velocity": 0.72,
        "hand": "right"
      },
      {
        "midi": 84,
        "time": 68,
        "duration": 0.5,
        "velocity": 0.57,
        "hand": "right"
      },
      {
        "midi": 45,
        "time": 68.75,
        "duration": 0.262,
        "velocity": 0.97,
        "hand": "left"
      },
      {
        "midi": 54,
        "time": 68.75,
        "duration": 0.262,
        "velocity": 0.54,
        "hand": "left"
      },
      {
        "midi": 83,
        "time": 69.5,
        "duration": 0.5,
        "velocity": 0.61,
        "hand": "right"
      },
      {
        "midi": 55,
        "time": 70.25,
        "duration": 0.262,
        "velocity": 0.94,
        "hand": "left"
      },
      {
        "midi": 62,
        "time": 70.25,
        "duration": 0.262,
        "velocity": 0.72,
        "hand": "right"
      },
      {
        "midi": 50,
        "time": 71,
        "duration": 0.485,
        "velocity": 0.91,
        "hand": "left"
      },
      {
        "midi": 65,
        "time": 71,
        "duration": 0.375,
        "velocity": 0.53,
        "hand": "right"
      },
      {
        "midi": 39,
        "time": 71.75,
        "duration": 0.262,
        "velocity": 0.72,
        "hand": "left"
      },
      {
        "midi": 67,
        "time": 72.5,
        "duration": 0.262,
        "velocity": 0.52,
        "hand": "right"
      },
      {
        "midi": 55,
        "time": 73.25,
        "duration": 0.262,
        "velocity": 0.94,
        "hand": "left"
      },
      {
        "midi": 63,
        "time": 73.25,
        "duration": 0.262,
        "velocity": 0.5,
        "hand": "right"
      },
      {
        "midi": 74,
        "time": 74,
        "duration": 0.5,
        "velocity": 0.7,
        "hand": "right"
      },
      {
        "midi": 51,
        "time": 74.875,
        "duration": 0.262,
        "velocity": 0.61,
        "hand": "left"
      },
      {
        "midi": 56,
        "time": 75.75,
        "duration": 0.262,
        "velocity": 0.78,
        "hand": "left"
      },
      {
        "midi": 53,
        "time": 76.5,
        "duration": 0.985,
        "velocity": 0.88,
        "hand": "left"
      },
      {
        "midi": 67,
        "time": 76.5,
        "duration": 0.875,
        "velocity": 0.5,
        "hand": "right"
      },
      {
        "midi": 51,
        "time": 77.375,
        "duration": 0.262,
        "velocity": 0.61,
        "hand": "left"
      },
      {
        "midi": 58,
        "time": 78.25,
        "duration": 0.5,
        "velocity": 0.7,
        "hand": "left"
      },
      {
        "midi": 50,
        "time": 79,
        "duration": 0.262,
        "velocity": 0.9,
        "hand": "left"
      },
      {
        "midi": 65,
        "time": 79,
        "duration": 0.262,
        "velocity": 0.5,
        "hand": "right"
      },
      {
        "midi": 50,
        "time": 79.875,
        "duration": 0.262,
        "velocity": 0.97,
        "hand": "left"
      },
      {
        "midi": 62,
        "time": 79.875,
        "duration": 0.262,
        "velocity": 0.57,
        "hand": "right"
      },
      {
        "midi": 39,
        "time": 80.875,
        "duration": 0.262,
        "velocity": 0.87,
        "hand": "left"
      },
      {
        "midi": 51,
        "time": 80.875,
        "duration": 0.262,
        "velocity": 0.61,
        "hand": "left"
      },
      {
        "midi": 51,
        "time": 81.875,
        "duration": 0.262,
        "velocity": 0.61,
        "hand": "left"
      },
      {
        "midi": 50,
        "time": 82.875,
        "duration": 0.262,
        "velocity": 0.97,
        "hand": "left"
      },
      {
        "midi": 63,
        "time": 82.875,
        "duration": 0.262,
        "velocity": 0.57,
        "hand": "right"
      },
      {
        "midi": 51,
        "time": 83.875,
        "duration": 0.262,
        "velocity": 0.61,
        "hand": "left"
      },
      {
        "midi": 55,
        "time": 83.875,
        "duration": 0.485,
        "velocity": 0.41,
        "hand": "left"
      },
      {
        "midi": 51,
        "time": 84.875,
        "duration": 0.262,
        "velocity": 0.61,
        "hand": "left"
      },
      {
        "midi": 67,
        "time": 85.875,
        "duration": 0.262,
        "velocity": 0.52,
        "hand": "right"
      },
      {
        "midi": 51,
        "time": 86.875,
        "duration": 0.262,
        "velocity": 0.61,
        "hand": "left"
      },
      {
        "midi": 51,
        "time": 87.875,
        "duration": 0.262,
        "velocity": 0.61,
        "hand": "left"
      },
      {
        "midi": 50,
        "time": 88.875,
        "duration": 0.262,
        "velocity": 0.97,
        "hand": "left"
      },
      {
        "midi": 65,
        "time": 88.875,
        "duration": 0.262,
        "velocity": 0.41,
        "hand": "right"
      },
      {
        "midi": 65,
        "time": 89.75,
        "duration": 0.262,
        "velocity": 0.46,
        "hand": "right"
      },
      {
        "midi": 67,
        "time": 90.5,
        "duration": 0.262,
        "velocity": 0.57,
        "hand": "right"
      },
      {
        "midi": 51,
        "time": 91.375,
        "duration": 0.262,
        "velocity": 0.61,
        "hand": "left"
      },
      {
        "midi": 51,
        "time": 92.125,
        "duration": 0.262,
        "velocity": 0.61,
        "hand": "left"
      },
      {
        "midi": 51,
        "time": 92.875,
        "duration": 0.262,
        "velocity": 0.61,
        "hand": "left"
      },
      {
        "midi": 55,
        "time": 92.875,
        "duration": 0.262,
        "velocity": 0.28,
        "hand": "left"
      },
      {
        "midi": 51,
        "time": 93.875,
        "duration": 0.262,
        "velocity": 0.61,
        "hand": "left"
      },
      {
        "midi": 38,
        "time": 94.875,
        "duration": 0.262,
        "velocity": 0.91,
        "hand": "left"
      },
      {
        "midi": 51,
        "time": 94.875,
        "duration": 0.262,
        "velocity": 0.61,
        "hand": "left"
      },
      {
        "midi": 39,
        "time": 95.75,
        "duration": 0.262,
        "velocity": 0.72,
        "hand": "left"
      }
    ],
    "hard": [
      {
        "midi": 36,
        "time": 0,
        "duration": 1.25,
        "velocity": 0.96,
        "hand": "left"
      },
      {
        "midi": 47,
        "time": 0,
        "duration": 0.063,
        "velocity": 0.73,
        "hand": "left"
      },
      {
        "midi": 60,
        "time": 0,
        "duration": 0.36,
        "velocity": 0.76,
        "hand": "right"
      },
      {
        "midi": 63,
        "time": 0,
        "duration": 0.36,
        "velocity": 0.91,
        "hand": "right"
      },
      {
        "midi": 67,
        "time": 0,
        "duration": 0.36,
        "velocity": 0.57,
        "hand": "right"
      },
      {
        "midi": 51,
        "time": 0.375,
        "duration": 0.063,
        "velocity": 0.61,
        "hand": "left"
      },
      {
        "midi": 55,
        "time": 0.375,
        "duration": 0.11,
        "velocity": 0.52,
        "hand": "left"
      },
      {
        "midi": 60,
        "time": 0.375,
        "duration": 0.11,
        "velocity": 0.57,
        "hand": "right"
      },
      {
        "midi": 63,
        "time": 0.375,
        "duration": 0.063,
        "velocity": 0.54,
        "hand": "right"
      },
      {
        "midi": 67,
        "time": 0.375,
        "duration": 0.11,
        "velocity": 0.52,
        "hand": "right"
      },
      {
        "midi": 38,
        "time": 0.5,
        "duration": 0.063,
        "velocity": 0.83,
        "hand": "left"
      },
      {
        "midi": 48,
        "time": 0.5,
        "duration": 2.5,
        "velocity": 0.51,
        "hand": "left"
      },
      {
        "midi": 60,
        "time": 0.5,
        "duration": 0.063,
        "velocity": 0.61,
        "hand": "right"
      },
      {
        "midi": 63,
        "time": 0.5,
        "duration": 0.063,
        "velocity": 0.55,
        "hand": "right"
      },
      {
        "midi": 67,
        "time": 0.5,
        "duration": 0.125,
        "velocity": 0.52,
        "hand": "right"
      },
      {
        "midi": 55,
        "time": 0.75,
        "duration": 0.235,
        "velocity": 0.59,
        "hand": "left"
      },
      {
        "midi": 51,
        "time": 0.875,
        "duration": 0.063,
        "velocity": 0.61,
        "hand": "left"
      },
      {
        "midi": 38,
        "time": 1,
        "duration": 0.063,
        "velocity": 0.91,
        "hand": "left"
      },
      {
        "midi": 51,
        "time": 1,
        "duration": 0.063,
        "velocity": 0.61,
        "hand": "left"
      },
      {
        "midi": 60,
        "time": 1,
        "duration": 0.375,
        "velocity": 0.68,
        "hand": "right"
      },
      {
        "midi": 63,
        "time": 1,
        "duration": 0.125,
        "velocity": 0.64,
        "hand": "right"
      },
      {
        "midi": 67,
        "time": 1,
        "duration": 0.125,
        "velocity": 0.55,
        "hand": "right"
      },
      {
        "midi": 43,
        "time": 1.25,
        "duration": 0.25,
        "velocity": 0.94,
        "hand": "left"
      },
      {
        "midi": 63,
        "time": 1.25,
        "duration": 0.125,
        "velocity": 0.5,
        "hand": "right"
      },
      {
        "midi": 51,
        "time": 1.375,
        "duration": 0.063,
        "velocity": 0.61,
        "hand": "left"
      },
      {
        "midi": 36,
        "time": 1.5,
        "duration": 0.875,
        "velocity": 0.96,
        "hand": "left"
      },
      {
        "midi": 47,
        "time": 1.5,
        "duration": 0.063,
        "velocity": 0.72,
        "hand": "left"
      },
      {
        "midi": 60,
        "time": 1.5,
        "duration": 0.36,
        "velocity": 0.56,
        "hand": "right"
      },
      {
        "midi": 63,
        "time": 1.5,
        "duration": 0.36,
        "velocity": 0.55,
        "hand": "right"
      },
      {
        "midi": 67,
        "time": 1.5,
        "duration": 0.36,
        "velocity": 0.57,
        "hand": "right"
      },
      {
        "midi": 75,
        "time": 1.5,
        "duration": 0.5,
        "velocity": 0.84,
        "hand": "right"
      },
      {
        "midi": 38,
        "time": 1.875,
        "duration": 0.063,
        "velocity": 0.97,
        "hand": "left"
      },
      {
        "midi": 51,
        "time": 1.875,
        "duration": 0.063,
        "velocity": 0.61,
        "hand": "left"
      },
      {
        "midi": 60,
        "time": 1.875,
        "duration": 0.063,
        "velocity": 0.57,
        "hand": "right"
      },
      {
        "midi": 63,
        "time": 1.875,
        "duration": 0.063,
        "velocity": 0.57,
        "hand": "right"
      },
      {
        "midi": 67,
        "time": 1.875,
        "duration": 0.11,
        "velocity": 0.51,
        "hand": "right"
      },
      {
        "midi": 38,
        "time": 2,
        "duration": 0.063,
        "velocity": 0.7,
        "hand": "left"
      },
      {
        "midi": 51,
        "time": 2,
        "duration": 0.063,
        "velocity": 0.61,
        "hand": "left"
      },
      {
        "midi": 60,
        "time": 2,
        "duration": 0.063,
        "velocity": 0.57,
        "hand": "right"
      },
      {
        "midi": 63,
        "time": 2,
        "duration": 0.063,
        "velocity": 0.64,
        "hand": "right"
      },
      {
        "midi": 67,
        "time": 2,
        "duration": 0.125,
        "velocity": 0.48,
        "hand": "right"
      },
      {
        "midi": 74,
        "time": 2,
        "duration": 0.5,
        "velocity": 0.7,
        "hand": "right"
      },
      {
        "midi": 51,
        "time": 2.375,
        "duration": 0.063,
        "velocity": 0.61,
        "hand": "left"
      },
      {
        "midi": 38,
        "time": 2.5,
        "duration": 0.063,
        "velocity": 0.9,
        "hand": "left"
      },
      {
        "midi": 43,
        "time": 2.5,
        "duration": 0.375,
        "velocity": 0.93,
        "hand": "left"
      },
      {
        "midi": 60,
        "time": 2.5,
        "duration": 0.375,
        "velocity": 0.68,
        "hand": "right"
      },
      {
        "midi": 63,
        "time": 2.5,
        "duration": 0.375,
        "velocity": 0.7,
        "hand": "right"
      },
      {
        "midi": 67,
        "time": 2.5,
        "duration": 0.25,
        "velocity": 0.57,
        "hand": "right"
      },
      {
        "midi": 72,
        "time": 2.5,
        "duration": 0.5,
        "velocity": 0.71,
        "hand": "right"
      },
      {
        "midi": 51,
        "time": 2.875,
        "duration": 0.063,
        "velocity": 0.61,
        "hand": "left"
      },
      {
        "midi": 41,
        "time": 3,
        "duration": 1.485,
        "velocity": 0.83,
        "hand": "left"
      },
      {
        "midi": 47,
        "time": 3,
        "duration": 0.063,
        "velocity": 0.77,
        "hand": "left"
      },
      {
        "midi": 60,
        "time": 3,
        "duration": 0.36,
        "velocity": 0.55,
        "hand": "right"
      },
      {
        "midi": 65,
        "time": 3,
        "duration": 0.36,
        "velocity": 0.56,
        "hand": "right"
      },
      {
        "midi": 68,
        "time": 3,
        "duration": 3,
        "velocity": 0.68,
        "hand": "right"
      },
      {
        "midi": 51,
        "time": 3.375,
        "duration": 0.063,
        "velocity": 0.61,
        "hand": "left"
      },
      {
        "midi": 56,
        "time": 3.375,
        "duration": 0.11,
        "velocity": 0.46,
        "hand": "left"
      },
      {
        "midi": 60,
        "time": 3.375,
        "duration": 0.11,
        "velocity": 0.5,
        "hand": "right"
      },
      {
        "midi": 63,
        "time": 3.375,
        "duration": 0.11,
        "velocity": 0.38,
        "hand": "right"
      },
      {
        "midi": 65,
        "time": 3.375,
        "duration": 0.11,
        "velocity": 0.39,
        "hand": "right"
      },
      {
        "midi": 38,
        "time": 3.5,
        "duration": 0.063,
        "velocity": 0.8,
        "hand": "left"
      },
      {
        "midi": 51,
        "time": 3.5,
        "duration": 0.063,
        "velocity": 0.61,
        "hand": "left"
      },
      {
        "midi": 60,
        "time": 3.5,
        "duration": 0.125,
        "velocity": 0.56,
        "hand": "right"
      },
      {
        "midi": 63,
        "time": 3.5,
        "duration": 0.125,
        "velocity": 0.5,
        "hand": "right"
      },
      {
        "midi": 65,
        "time": 3.5,
        "duration": 0.125,
        "velocity": 0.45,
        "hand": "right"
      },
      {
        "midi": 56,
        "time": 3.75,
        "duration": 0.235,
        "velocity": 0.78,
        "hand": "left"
      },
      {
        "midi": 51,
        "time": 3.875,
        "duration": 0.063,
        "velocity": 0.61,
        "hand": "left"
      },
      {
        "midi": 38,
        "time": 4,
        "duration": 0.063,
        "velocity": 0.91,
        "hand": "left"
      },
      {
        "midi": 51,
        "time": 4,
        "duration": 0.063,
        "velocity": 0.61,
        "hand": "left"
      },
      {
        "midi": 60,
        "time": 4,
        "duration": 0.235,
        "velocity": 0.68,
        "hand": "right"
      },
      {
        "midi": 63,
        "time": 4,
        "duration": 0.125,
        "velocity": 0.53,
        "hand": "right"
      },
      {
        "midi": 65,
        "time": 4,
        "duration": 0.125,
        "velocity": 0.5,
        "hand": "right"
      },
      {
        "midi": 36,
        "time": 4.25,
        "duration": 0.25,
        "velocity": 0.94,
        "hand": "left"
      },
      {
        "midi": 56,
        "time": 4.25,
        "duration": 0.125,
        "velocity": 0.49,
        "hand": "left"
      },
      {
        "midi": 60,
        "time": 4.25,
        "duration": 0.125,
        "velocity": 0.58,
        "hand": "right"
      },
      {
        "midi": 65,
        "time": 4.25,
        "duration": 0.125,
        "velocity": 0.5,
        "hand": "right"
      },
      {
        "midi": 51,
        "time": 4.375,
        "duration": 0.063,
        "velocity": 0.61,
        "hand": "left"
      },
      {
        "midi": 41,
        "time": 4.5,
        "duration": 0.985,
        "velocity": 0.88,
        "hand": "left"
      },
      {
        "midi": 47,
        "time": 4.5,
        "duration": 0.063,
        "velocity": 0.75,
        "hand": "left"
      },
      {
        "midi": 60,
        "time": 4.5,
        "duration": 0.36,
        "velocity": 0.49,
        "hand": "right"
      },
      {
        "midi": 67,
        "time": 4.5,
        "duration": 0.875,
        "velocity": 0.5,
        "hand": "right"
      },
      {
        "midi": 38,
        "time": 4.875,
        "duration": 0.063,
        "velocity": 0.97,
        "hand": "left"
      },
      {
        "midi": 51,
        "time": 4.875,
        "duration": 0.063,
        "velocity": 0.61,
        "hand": "left"
      },
      {
        "midi": 60,
        "time": 4.875,
        "duration": 0.11,
        "velocity": 0.5,
        "hand": "right"
      },
      {
        "midi": 63,
        "time": 4.875,
        "duration": 0.11,
        "velocity": 0.38,
        "hand": "right"
      },
      {
        "midi": 65,
        "time": 4.875,
        "duration": 0.11,
        "velocity": 0.39,
        "hand": "right"
      },
      {
        "midi": 38,
        "time": 5,
        "duration": 0.063,
        "velocity": 0.65,
        "hand": "left"
      },
      {
        "midi": 44,
        "time": 5,
        "duration": 0.5,
        "velocity": 0.98,
        "hand": "left"
      },
      {
        "midi": 60,
        "time": 5,
        "duration": 0.125,
        "velocity": 0.56,
        "hand": "right"
      },
      {
        "midi": 63,
        "time": 5,
        "duration": 0.125,
        "velocity": 0.5,
        "hand": "right"
      },
      {
        "midi": 65,
        "time": 5,
        "duration": 0.125,
        "velocity": 0.45,
        "hand": "right"
      },
      {
        "midi": 51,
        "time": 5.375,
        "duration": 0.063,
        "velocity": 0.61,
        "hand": "left"
      },
      {
        "midi": 38,
        "time": 5.5,
        "duration": 0.063,
        "velocity": 0.91,
        "hand": "left"
      },
      {
        "midi": 41,
        "time": 5.5,
        "duration": 0.375,
        "velocity": 0.86,
        "hand": "left"
      },
      {
        "midi": 60,
        "time": 5.5,
        "duration": 0.25,
        "velocity": 0.61,
        "hand": "right"
      },
      {
        "midi": 63,
        "time": 5.5,
        "duration": 0.125,
        "velocity": 0.53,
        "hand": "right"
      },
      {
        "midi": 65,
        "time": 5.5,
        "duration": 0.375,
        "velocity": 0.54,
        "hand": "right"
      },
      {
        "midi": 51,
        "time": 5.875,
        "duration": 0.063,
        "velocity": 0.61,
        "hand": "left"
      },
      {
        "midi": 47,
        "time": 6,
        "duration": 0.063,
        "velocity": 0.73,
        "hand": "left"
      },
      {
        "midi": 62,
        "time": 6,
        "duration": 0.485,
        "velocity": 0.38,
        "hand": "right"
      },
      {
        "midi": 70,
        "time": 6,
        "duration": 1.375,
        "velocity": 0.92,
        "hand": "right"
      },
      {
        "midi": 58,
        "time": 6.25,
        "duration": 0.5,
        "velocity": 0.7,
        "hand": "left"
      },
      {
        "midi": 51,
        "time": 6.375,
        "duration": 0.063,
        "velocity": 0.61,
        "hand": "left"
      },
      {
        "midi": 56,
        "time": 6.375,
        "duration": 0.11,
        "velocity": 0.46,
        "hand": "left"
      },
      {
        "midi": 60,
        "time": 6.375,
        "duration": 0.11,
        "velocity": 0.5,
        "hand": "right"
      },
      {
        "midi": 63,
        "time": 6.375,
        "duration": 0.11,
        "velocity": 0.38,
        "hand": "right"
      },
      {
        "midi": 65,
        "time": 6.375,
        "duration": 0.11,
        "velocity": 0.39,
        "hand": "right"
      },
      {
        "midi": 38,
        "time": 6.5,
        "duration": 0.063,
        "velocity": 0.9,
        "hand": "left"
      },
      {
        "midi": 51,
        "time": 6.5,
        "duration": 0.063,
        "velocity": 0.61,
        "hand": "left"
      },
      {
        "midi": 60,
        "time": 6.5,
        "duration": 0.125,
        "velocity": 0.56,
        "hand": "right"
      },
      {
        "midi": 63,
        "time": 6.5,
        "duration": 0.125,
        "velocity": 0.5,
        "hand": "right"
      },
      {
        "midi": 65,
        "time": 6.5,
        "duration": 0.125,
        "velocity": 0.45,
        "hand": "right"
      },
      {
        "midi": 53,
        "time": 6.75,
        "duration": 0.625,
        "velocity": 0.61,
        "hand": "left"
      },
      {
        "midi": 51,
        "time": 6.875,
        "duration": 0.063,
        "velocity": 0.61,
        "hand": "left"
      },
      {
        "midi": 38,
        "time": 7,
        "duration": 0.063,
        "velocity": 0.9,
        "hand": "left"
      },
      {
        "midi": 51,
        "time": 7,
        "duration": 0.063,
        "velocity": 0.61,
        "hand": "left"
      },
      {
        "midi": 60,
        "time": 7,
        "duration": 0.125,
        "velocity": 0.61,
        "hand": "right"
      },
      {
        "midi": 63,
        "time": 7,
        "duration": 0.125,
        "velocity": 0.53,
        "hand": "right"
      },
      {
        "midi": 65,
        "time": 7,
        "duration": 0.125,
        "velocity": 0.5,
        "hand": "right"
      },
      {
        "midi": 41,
        "time": 7.25,
        "duration": 0.125,
        "velocity": 0.95,
        "hand": "left"
      },
      {
        "midi": 62,
        "time": 7.25,
        "duration": 0.125,
        "velocity": 0.53,
        "hand": "right"
      },
      {
        "midi": 51,
        "time": 7.375,
        "duration": 0.063,
        "velocity": 0.61,
        "hand": "left"
      },
      {
        "midi": 47,
        "time": 7.5,
        "duration": 0.063,
        "velocity": 0.81,
        "hand": "left"
      },
      {
        "midi": 65,
        "time": 7.5,
        "duration": 0.875,
        "velocity": 0.57,
        "hand": "right"
      },
      {
        "midi": 74,
        "time": 7.5,
        "duration": 0.5,
        "velocity": 0.75,
        "hand": "right"
      },
      {
        "midi": 38,
        "time": 7.875,
        "duration": 0.063,
        "velocity": 0.97,
        "hand": "left"
      },
      {
        "midi": 51,
        "time": 7.875,
        "duration": 0.063,
        "velocity": 0.61,
        "hand": "left"
      },
      {
        "midi": 62,
        "time": 7.875,
        "duration": 0.11,
        "velocity": 0.57,
        "hand": "right"
      },
      {
        "midi": 38,
        "time": 8,
        "duration": 0.063,
        "velocity": 0.69,
        "hand": "left"
      },
      {
        "midi": 41,
        "time": 8,
        "duration": 0.5,
        "velocity": 0.79,
        "hand": "left"
      },
      {
        "midi": 62,
        "time": 8,
        "duration": 0.125,
        "velocity": 0.61,
        "hand": "right"
      },
      {
        "midi": 72,
        "time": 8,
        "duration": 0.5,
        "velocity": 0.67,
        "hand": "right"
      },
      {
        "midi": 51,
        "time": 8.375,
        "duration": 0.063,
        "velocity": 0.61,
        "hand": "left"
      },
      {
        "midi": 38,
        "time": 8.5,
        "duration": 0.063,
        "velocity": 0.91,
        "hand": "left"
      },
      {
        "midi": 46,
        "time": 8.5,
        "duration": 0.375,
        "velocity": 0.98,
        "hand": "left"
      },
      {
        "midi": 62,
        "time": 8.5,
        "duration": 0.375,
        "velocity": 0.65,
        "hand": "right"
      },
      {
        "midi": 70,
        "time": 8.5,
        "duration": 0.5,
        "velocity": 0.69,
        "hand": "right"
      },
      {
        "midi": 39,
        "time": 8.875,
        "duration": 0.11,
        "velocity": 0.87,
        "hand": "left"
      },
      {
        "midi": 51,
        "time": 8.875,
        "duration": 0.063,
        "velocity": 0.61,
        "hand": "left"
      },
      {
        "midi": 39,
        "time": 9,
        "duration": 1,
        "velocity": 0.5,
        "hand": "left"
      },
      {
        "midi": 47,
        "time": 9,
        "duration": 0.063,
        "velocity": 0.73,
        "hand": "left"
      },
      {
        "midi": 63,
        "time": 9,
        "duration": 0.36,
        "velocity": 0.56,
        "hand": "right"
      },
      {
        "midi": 67,
        "time": 9,
        "duration": 0.985,
        "velocity": 0.68,
        "hand": "right"
      },
      {
        "midi": 51,
        "time": 9.375,
        "duration": 0.063,
        "velocity": 0.61,
        "hand": "left"
      },
      {
        "midi": 55,
        "time": 9.375,
        "duration": 0.11,
        "velocity": 0.5,
        "hand": "left"
      },
      {
        "midi": 63,
        "time": 9.375,
        "duration": 0.11,
        "velocity": 0.54,
        "hand": "right"
      },
      {
        "midi": 38,
        "time": 9.5,
        "duration": 0.063,
        "velocity": 0.83,
        "hand": "left"
      },
      {
        "midi": 51,
        "time": 9.5,
        "duration": 0.063,
        "velocity": 0.61,
        "hand": "left"
      },
      {
        "midi": 63,
        "time": 9.5,
        "duration": 0.125,
        "velocity": 0.51,
        "hand": "right"
      },
      {
        "midi": 51,
        "time": 9.875,
        "duration": 0.063,
        "velocity": 0.61,
        "hand": "left"
      },
      {
        "midi": 38,
        "time": 10,
        "duration": 0.063,
        "velocity": 0.91,
        "hand": "left"
      },
      {
        "midi": 46,
        "time": 10,
        "duration": 0.5,
        "velocity": 0.35,
        "hand": "left"
      },
      {
        "midi": 63,
        "time": 10,
        "duration": 0.125,
        "velocity": 0.61,
        "hand": "right"
      },
      {
        "midi": 67,
        "time": 10,
        "duration": 0.375,
        "velocity": 0.72,
        "hand": "right"
      },
      {
        "midi": 51,
        "time": 10.375,
        "duration": 0.063,
        "velocity": 0.61,
        "hand": "left"
      },
      {
        "midi": 39,
        "time": 10.5,
        "duration": 0.5,
        "velocity": 0.42,
        "hand": "left"
      },
      {
        "midi": 47,
        "time": 10.5,
        "duration": 0.063,
        "velocity": 0.72,
        "hand": "left"
      },
      {
        "midi": 63,
        "time": 10.5,
        "duration": 0.36,
        "velocity": 0.72,
        "hand": "right"
      },
      {
        "midi": 38,
        "time": 10.875,
        "duration": 0.063,
        "velocity": 0.97,
        "hand": "left"
      },
      {
        "midi": 51,
        "time": 10.875,
        "duration": 0.063,
        "velocity": 0.61,
        "hand": "left"
      },
      {
        "midi": 63,
        "time": 10.875,
        "duration": 0.11,
        "velocity": 0.57,
        "hand": "right"
      },
      {
        "midi": 38,
        "time": 11,
        "duration": 0.485,
        "velocity": 0.91,
        "hand": "left"
      },
      {
        "midi": 54,
        "time": 11,
        "duration": 0.063,
        "velocity": 0.54,
        "hand": "left"
      },
      {
        "midi": 63,
        "time": 11,
        "duration": 0.125,
        "velocity": 0.72,
        "hand": "right"
      },
      {
        "midi": 51,
        "time": 11.125,
        "duration": 0.063,
        "velocity": 0.61,
        "hand": "left"
      },
      {
        "midi": 51,
        "time": 11.375,
        "duration": 0.063,
        "velocity": 0.61,
        "hand": "left"
      },
      {
        "midi": 38,
        "time": 11.5,
        "duration": 0.063,
        "velocity": 0.9,
        "hand": "left"
      },
      {
        "midi": 43,
        "time": 11.5,
        "duration": 0.5,
        "velocity": 0.96,
        "hand": "left"
      },
      {
        "midi": 60,
        "time": 11.5,
        "duration": 0.25,
        "velocity": 0.63,
        "hand": "right"
      },
      {
        "midi": 63,
        "time": 11.5,
        "duration": 0.125,
        "velocity": 0.72,
        "hand": "right"
      },
      {
        "midi": 51,
        "time": 11.875,
        "duration": 0.063,
        "velocity": 0.61,
        "hand": "left"
      },
      {
        "midi": 55,
        "time": 11.875,
        "duration": 0.485,
        "velocity": 0.41,
        "hand": "left"
      },
      {
        "midi": 36,
        "time": 12,
        "duration": 1.375,
        "velocity": 0.91,
        "hand": "left"
      },
      {
        "midi": 47,
        "time": 12,
        "duration": 0.063,
        "velocity": 0.77,
        "hand": "left"
      },
      {
        "midi": 60,
        "time": 12,
        "duration": 0.36,
        "velocity": 0.43,
        "hand": "right"
      },
      {
        "midi": 63,
        "time": 12,
        "duration": 0.36,
        "velocity": 0.9,
        "hand": "right"
      },
      {
        "midi": 67,
        "time": 12,
        "duration": 0.36,
        "velocity": 0.65,
        "hand": "right"
      },
      {
        "midi": 51,
        "time": 12.375,
        "duration": 0.063,
        "velocity": 0.61,
        "hand": "left"
      },
      {
        "midi": 55,
        "time": 12.375,
        "duration": 0.11,
        "velocity": 0.52,
        "hand": "left"
      },
      {
        "midi": 60,
        "time": 12.375,
        "duration": 0.11,
        "velocity": 0.57,
        "hand": "right"
      },
      {
        "midi": 63,
        "time": 12.375,
        "duration": 0.063,
        "velocity": 0.54,
        "hand": "right"
      },
      {
        "midi": 67,
        "time": 12.375,
        "duration": 0.11,
        "velocity": 0.52,
        "hand": "right"
      },
      {
        "midi": 39,
        "time": 12.5,
        "duration": 0.75,
        "velocity": 0.49,
        "hand": "left"
      },
      {
        "midi": 60,
        "time": 12.5,
        "duration": 0.063,
        "velocity": 0.61,
        "hand": "right"
      },
      {
        "midi": 63,
        "time": 12.5,
        "duration": 0.485,
        "velocity": 0.72,
        "hand": "right"
      },
      {
        "midi": 67,
        "time": 12.5,
        "duration": 0.125,
        "velocity": 0.52,
        "hand": "right"
      },
      {
        "midi": 51,
        "time": 12.875,
        "duration": 0.063,
        "velocity": 0.61,
        "hand": "left"
      },
      {
        "midi": 38,
        "time": 13,
        "duration": 0.063,
        "velocity": 0.91,
        "hand": "left"
      },
      {
        "midi": 51,
        "time": 13,
        "duration": 0.063,
        "velocity": 0.61,
        "hand": "left"
      },
      {
        "midi": 60,
        "time": 13,
        "duration": 0.25,
        "velocity": 0.72,
        "hand": "right"
      },
      {
        "midi": 63,
        "time": 13,
        "duration": 0.125,
        "velocity": 0.64,
        "hand": "right"
      },
      {
        "midi": 67,
        "time": 13,
        "duration": 0.125,
        "velocity": 0.55,
        "hand": "right"
      },
      {
        "midi": 72,
        "time": 13,
        "duration": 0.5,
        "velocity": 0.65,
        "hand": "right"
      },
      {
        "midi": 43,
        "time": 13.25,
        "duration": 0.11,
        "velocity": 0.5,
        "hand": "left"
      },
      {
        "midi": 43,
        "time": 13.375,
        "duration": 0.125,
        "velocity": 0.96,
        "hand": "left"
      },
      {
        "midi": 51,
        "time": 13.375,
        "duration": 0.063,
        "velocity": 0.61,
        "hand": "left"
      },
      {
        "midi": 36,
        "time": 13.5,
        "duration": 0.485,
        "velocity": 0.88,
        "hand": "left"
      },
      {
        "midi": 47,
        "time": 13.5,
        "duration": 0.063,
        "velocity": 0.75,
        "hand": "left"
      },
      {
        "midi": 60,
        "time": 13.5,
        "duration": 0.36,
        "velocity": 0.54,
        "hand": "right"
      },
      {
        "midi": 67,
        "time": 13.5,
        "duration": 0.36,
        "velocity": 0.57,
        "hand": "right"
      },
      {
        "midi": 70,
        "time": 13.5,
        "duration": 0.5,
        "velocity": 0.72,
        "hand": "right"
      },
      {
        "midi": 38,
        "time": 13.875,
        "duration": 0.063,
        "velocity": 0.97,
        "hand": "left"
      },
      {
        "midi": 51,
        "time": 13.875,
        "duration": 0.063,
        "velocity": 0.61,
        "hand": "left"
      },
      {
        "midi": 60,
        "time": 13.875,
        "duration": 0.11,
        "velocity": 0.57,
        "hand": "right"
      },
      {
        "midi": 63,
        "time": 13.875,
        "duration": 0.063,
        "velocity": 0.54,
        "hand": "right"
      },
      {
        "midi": 67,
        "time": 13.875,
        "duration": 0.11,
        "velocity": 0.52,
        "hand": "right"
      },
      {
        "midi": 36,
        "time": 14,
        "duration": 0.5,
        "velocity": 0.86,
        "hand": "left"
      },
      {
        "midi": 38,
        "time": 14,
        "duration": 0.063,
        "velocity": 0.65,
        "hand": "left"
      },
      {
        "midi": 60,
        "time": 14,
        "duration": 0.063,
        "velocity": 0.61,
        "hand": "right"
      },
      {
        "midi": 63,
        "time": 14,
        "duration": 0.25,
        "velocity": 0.55,
        "hand": "right"
      },
      {
        "midi": 68,
        "time": 14,
        "duration": 0.5,
        "velocity": 0.72,
        "hand": "right"
      },
      {
        "midi": 51,
        "time": 14.375,
        "duration": 0.063,
        "velocity": 0.61,
        "hand": "left"
      },
      {
        "midi": 38,
        "time": 14.5,
        "duration": 0.063,
        "velocity": 0.91,
        "hand": "left"
      },
      {
        "midi": 43,
        "time": 14.5,
        "duration": 0.5,
        "velocity": 0.96,
        "hand": "left"
      },
      {
        "midi": 60,
        "time": 14.5,
        "duration": 0.485,
        "velocity": 0.58,
        "hand": "right"
      },
      {
        "midi": 63,
        "time": 14.5,
        "duration": 0.375,
        "velocity": 0.64,
        "hand": "right"
      },
      {
        "midi": 67,
        "time": 14.5,
        "duration": 0.5,
        "velocity": 0.71,
        "hand": "right"
      },
      {
        "midi": 51,
        "time": 14.875,
        "duration": 0.063,
        "velocity": 0.61,
        "hand": "left"
      },
      {
        "midi": 41,
        "time": 15,
        "duration": 1.25,
        "velocity": 0.94,
        "hand": "left"
      },
      {
        "midi": 47,
        "time": 15,
        "duration": 0.063,
        "velocity": 0.73,
        "hand": "left"
      },
      {
        "midi": 60,
        "time": 15,
        "duration": 0.36,
        "velocity": 0.55,
        "hand": "right"
      },
      {
        "midi": 65,
        "time": 15,
        "duration": 0.985,
        "velocity": 0.57,
        "hand": "right"
      },
      {
        "midi": 68,
        "time": 15,
        "duration": 2.75,
        "velocity": 0.66,
        "hand": "right"
      },
      {
        "midi": 51,
        "time": 15.375,
        "duration": 0.063,
        "velocity": 0.61,
        "hand": "left"
      },
      {
        "midi": 53,
        "time": 15.375,
        "duration": 0.11,
        "velocity": 0.53,
        "hand": "left"
      },
      {
        "midi": 60,
        "time": 15.375,
        "duration": 0.11,
        "velocity": 0.5,
        "hand": "right"
      },
      {
        "midi": 63,
        "time": 15.375,
        "duration": 0.11,
        "velocity": 0.41,
        "hand": "right"
      },
      {
        "midi": 38,
        "time": 15.5,
        "duration": 0.063,
        "velocity": 0.9,
        "hand": "left"
      },
      {
        "midi": 51,
        "time": 15.5,
        "duration": 0.063,
        "velocity": 0.61,
        "hand": "left"
      },
      {
        "midi": 60,
        "time": 15.5,
        "duration": 0.125,
        "velocity": 0.52,
        "hand": "right"
      },
      {
        "midi": 63,
        "time": 15.5,
        "duration": 0.125,
        "velocity": 0.46,
        "hand": "right"
      },
      {
        "midi": 51,
        "time": 15.875,
        "duration": 0.063,
        "velocity": 0.61,
        "hand": "left"
      },
      {
        "midi": 38,
        "time": 16,
        "duration": 0.063,
        "velocity": 0.9,
        "hand": "left"
      },
      {
        "midi": 51,
        "time": 16,
        "duration": 0.063,
        "velocity": 0.61,
        "hand": "left"
      },
      {
        "midi": 60,
        "time": 16,
        "duration": 0.86,
        "velocity": 0.7,
        "hand": "right"
      },
      {
        "midi": 63,
        "time": 16,
        "duration": 0.125,
        "velocity": 0.49,
        "hand": "right"
      },
      {
        "midi": 65,
        "time": 16,
        "duration": 0.625,
        "velocity": 0.54,
        "hand": "right"
      },
      {
        "midi": 36,
        "time": 16.25,
        "duration": 0.25,
        "velocity": 0.86,
        "hand": "left"
      },
      {
        "midi": 48,
        "time": 16.25,
        "duration": 0.25,
        "velocity": 0.54,
        "hand": "left"
      },
      {
        "midi": 51,
        "time": 16.375,
        "duration": 0.063,
        "velocity": 0.61,
        "hand": "left"
      },
      {
        "midi": 41,
        "time": 16.5,
        "duration": 0.985,
        "velocity": 0.86,
        "hand": "left"
      },
      {
        "midi": 47,
        "time": 16.5,
        "duration": 0.063,
        "velocity": 0.81,
        "hand": "left"
      },
      {
        "midi": 38,
        "time": 16.875,
        "duration": 0.063,
        "velocity": 0.97,
        "hand": "left"
      },
      {
        "midi": 51,
        "time": 16.875,
        "duration": 0.063,
        "velocity": 0.61,
        "hand": "left"
      },
      {
        "midi": 60,
        "time": 16.875,
        "duration": 0.11,
        "velocity": 0.54,
        "hand": "right"
      },
      {
        "midi": 63,
        "time": 16.875,
        "duration": 0.11,
        "velocity": 0.5,
        "hand": "right"
      },
      {
        "midi": 65,
        "time": 16.875,
        "duration": 0.063,
        "velocity": 0.41,
        "hand": "right"
      },
      {
        "midi": 38,
        "time": 17,
        "duration": 0.063,
        "velocity": 0.69,
        "hand": "left"
      },
      {
        "midi": 44,
        "time": 17,
        "duration": 0.5,
        "velocity": 0.99,
        "hand": "left"
      },
      {
        "midi": 60,
        "time": 17,
        "duration": 0.485,
        "velocity": 0.63,
        "hand": "right"
      },
      {
        "midi": 63,
        "time": 17,
        "duration": 0.125,
        "velocity": 0.54,
        "hand": "right"
      },
      {
        "midi": 65,
        "time": 17,
        "duration": 0.125,
        "velocity": 0.53,
        "hand": "right"
      },
      {
        "midi": 65,
        "time": 17.25,
        "duration": 0.235,
        "velocity": 0.53,
        "hand": "right"
      },
      {
        "midi": 51,
        "time": 17.375,
        "duration": 0.063,
        "velocity": 0.61,
        "hand": "left"
      },
      {
        "midi": 38,
        "time": 17.5,
        "duration": 0.063,
        "velocity": 0.91,
        "hand": "left"
      },
      {
        "midi": 41,
        "time": 17.5,
        "duration": 0.375,
        "velocity": 0.91,
        "hand": "left"
      },
      {
        "midi": 60,
        "time": 17.5,
        "duration": 0.125,
        "velocity": 0.55,
        "hand": "right"
      },
      {
        "midi": 63,
        "time": 17.5,
        "duration": 0.125,
        "velocity": 0.56,
        "hand": "right"
      },
      {
        "midi": 65,
        "time": 17.5,
        "duration": 0.125,
        "velocity": 0.51,
        "hand": "right"
      },
      {
        "midi": 48,
        "time": 17.75,
        "duration": 0.25,
        "velocity": 0.41,
        "hand": "left"
      },
      {
        "midi": 65,
        "time": 17.75,
        "duration": 0.25,
        "velocity": 0.46,
        "hand": "right"
      },
      {
        "midi": 51,
        "time": 17.875,
        "duration": 0.063,
        "velocity": 0.61,
        "hand": "left"
      },
      {
        "midi": 43,
        "time": 18,
        "duration": 1,
        "velocity": 1,
        "hand": "left"
      },
      {
        "midi": 47,
        "time": 18,
        "duration": 0.063,
        "velocity": 0.73,
        "hand": "left"
      },
      {
        "midi": 62,
        "time": 18,
        "duration": 0.36,
        "velocity": 0.32,
        "hand": "right"
      },
      {
        "midi": 68,
        "time": 18,
        "duration": 1,
        "velocity": 0.89,
        "hand": "right"
      },
      {
        "midi": 59,
        "time": 18.25,
        "duration": 0.11,
        "velocity": 0.5,
        "hand": "left"
      },
      {
        "midi": 47,
        "time": 18.375,
        "duration": 0.75,
        "velocity": 0.39,
        "hand": "left"
      },
      {
        "midi": 51,
        "time": 18.375,
        "duration": 0.063,
        "velocity": 0.61,
        "hand": "left"
      },
      {
        "midi": 62,
        "time": 18.375,
        "duration": 0.063,
        "velocity": 0.65,
        "hand": "right"
      },
      {
        "midi": 65,
        "time": 18.375,
        "duration": 0.11,
        "velocity": 0.61,
        "hand": "right"
      },
      {
        "midi": 67,
        "time": 18.375,
        "duration": 0.11,
        "velocity": 0.44,
        "hand": "right"
      },
      {
        "midi": 38,
        "time": 18.5,
        "duration": 0.063,
        "velocity": 0.83,
        "hand": "left"
      },
      {
        "midi": 51,
        "time": 18.5,
        "duration": 0.063,
        "velocity": 0.61,
        "hand": "left"
      },
      {
        "midi": 62,
        "time": 18.5,
        "duration": 0.25,
        "velocity": 0.68,
        "hand": "right"
      },
      {
        "midi": 65,
        "time": 18.5,
        "duration": 0.063,
        "velocity": 0.61,
        "hand": "right"
      },
      {
        "midi": 67,
        "time": 18.5,
        "duration": 0.125,
        "velocity": 0.57,
        "hand": "right"
      },
      {
        "midi": 51,
        "time": 18.875,
        "duration": 0.063,
        "velocity": 0.61,
        "hand": "left"
      },
      {
        "midi": 55,
        "time": 18.875,
        "duration": 0.11,
        "velocity": 0.2,
        "hand": "left"
      },
      {
        "midi": 38,
        "time": 19,
        "duration": 0.5,
        "velocity": 0.95,
        "hand": "left"
      },
      {
        "midi": 50,
        "time": 19,
        "duration": 0.5,
        "velocity": 0.39,
        "hand": "left"
      },
      {
        "midi": 62,
        "time": 19,
        "duration": 0.375,
        "velocity": 0.65,
        "hand": "right"
      },
      {
        "midi": 65,
        "time": 19,
        "duration": 0.125,
        "velocity": 0.72,
        "hand": "right"
      },
      {
        "midi": 67,
        "time": 19,
        "duration": 0.375,
        "velocity": 0.86,
        "hand": "right"
      },
      {
        "midi": 51,
        "time": 19.375,
        "duration": 0.063,
        "velocity": 0.61,
        "hand": "left"
      },
      {
        "midi": 43,
        "time": 19.5,
        "duration": 1.125,
        "velocity": 0.91,
        "hand": "left"
      },
      {
        "midi": 47,
        "time": 19.5,
        "duration": 0.063,
        "velocity": 0.72,
        "hand": "left"
      },
      {
        "midi": 62,
        "time": 19.5,
        "duration": 0.36,
        "velocity": 0.5,
        "hand": "right"
      },
      {
        "midi": 65,
        "time": 19.5,
        "duration": 0.36,
        "velocity": 0.5,
        "hand": "right"
      },
      {
        "midi": 67,
        "time": 19.5,
        "duration": 0.36,
        "velocity": 0.69,
        "hand": "right"
      },
      {
        "midi": 38,
        "time": 19.875,
        "duration": 0.063,
        "velocity": 0.97,
        "hand": "left"
      },
      {
        "midi": 51,
        "time": 19.875,
        "duration": 0.063,
        "velocity": 0.61,
        "hand": "left"
      },
      {
        "midi": 62,
        "time": 19.875,
        "duration": 0.11,
        "velocity": 0.58,
        "hand": "right"
      },
      {
        "midi": 65,
        "time": 19.875,
        "duration": 0.11,
        "velocity": 0.56,
        "hand": "right"
      },
      {
        "midi": 67,
        "time": 19.875,
        "duration": 0.11,
        "velocity": 0.51,
        "hand": "right"
      },
      {
        "midi": 38,
        "time": 20,
        "duration": 0.063,
        "velocity": 0.7,
        "hand": "left"
      },
      {
        "midi": 45,
        "time": 20,
        "duration": 0.625,
        "velocity": 0.96,
        "hand": "left"
      },
      {
        "midi": 62,
        "time": 20,
        "duration": 0.063,
        "velocity": 0.72,
        "hand": "right"
      },
      {
        "midi": 65,
        "time": 20,
        "duration": 0.485,
        "velocity": 0.72,
        "hand": "right"
      },
      {
        "midi": 67,
        "time": 20,
        "duration": 0.125,
        "velocity": 0.56,
        "hand": "right"
      },
      {
        "midi": 51,
        "time": 20.125,
        "duration": 0.063,
        "velocity": 0.61,
        "hand": "left"
      },
      {
        "midi": 51,
        "time": 20.375,
        "duration": 0.063,
        "velocity": 0.61,
        "hand": "left"
      },
      {
        "midi": 38,
        "time": 20.5,
        "duration": 0.063,
        "velocity": 0.9,
        "hand": "left"
      },
      {
        "midi": 47,
        "time": 20.5,
        "duration": 0.375,
        "velocity": 0.75,
        "hand": "left"
      },
      {
        "midi": 62,
        "time": 20.5,
        "duration": 0.5,
        "velocity": 0.74,
        "hand": "right"
      },
      {
        "midi": 65,
        "time": 20.5,
        "duration": 0.25,
        "velocity": 0.72,
        "hand": "right"
      },
      {
        "midi": 67,
        "time": 20.5,
        "duration": 0.125,
        "velocity": 0.61,
        "hand": "right"
      },
      {
        "midi": 51,
        "time": 20.875,
        "duration": 0.063,
        "velocity": 0.61,
        "hand": "left"
      },
      {
        "midi": 55,
        "time": 20.875,
        "duration": 0.11,
        "velocity": 0.28,
        "hand": "left"
      },
      {
        "midi": 36,
        "time": 21,
        "duration": 1.125,
        "velocity": 0.94,
        "hand": "left"
      },
      {
        "midi": 47,
        "time": 21,
        "duration": 0.063,
        "velocity": 0.77,
        "hand": "left"
      },
      {
        "midi": 60,
        "time": 21,
        "duration": 0.36,
        "velocity": 0.67,
        "hand": "right"
      },
      {
        "midi": 63,
        "time": 21,
        "duration": 0.36,
        "velocity": 0.5,
        "hand": "right"
      },
      {
        "midi": 67,
        "time": 21,
        "duration": 0.36,
        "velocity": 0.49,
        "hand": "right"
      },
      {
        "midi": 51,
        "time": 21.375,
        "duration": 0.063,
        "velocity": 0.61,
        "hand": "left"
      },
      {
        "midi": 60,
        "time": 21.375,
        "duration": 0.11,
        "velocity": 0.63,
        "hand": "right"
      },
      {
        "midi": 63,
        "time": 21.375,
        "duration": 0.063,
        "velocity": 0.72,
        "hand": "right"
      },
      {
        "midi": 67,
        "time": 21.375,
        "duration": 0.11,
        "velocity": 0.56,
        "hand": "right"
      },
      {
        "midi": 38,
        "time": 21.5,
        "duration": 0.063,
        "velocity": 0.8,
        "hand": "left"
      },
      {
        "midi": 51,
        "time": 21.5,
        "duration": 0.063,
        "velocity": 0.61,
        "hand": "left"
      },
      {
        "midi": 60,
        "time": 21.5,
        "duration": 0.125,
        "velocity": 0.59,
        "hand": "right"
      },
      {
        "midi": 63,
        "time": 21.5,
        "duration": 0.125,
        "velocity": 0.68,
        "hand": "right"
      },
      {
        "midi": 67,
        "time": 21.5,
        "duration": 0.125,
        "velocity": 0.54,
        "hand": "right"
      },
      {
        "midi": 51,
        "time": 21.875,
        "duration": 0.063,
        "velocity": 0.61,
        "hand": "left"
      },
      {
        "midi": 38,
        "time": 22,
        "duration": 0.063,
        "velocity": 0.91,
        "hand": "left"
      },
      {
        "midi": 43,
        "time": 22,
        "duration": 0.25,
        "velocity": 0.8,
        "hand": "left"
      },
      {
        "midi": 60,
        "time": 22,
        "duration": 0.125,
        "velocity": 0.56,
        "hand": "right"
      },
      {
        "midi": 63,
        "time": 22,
        "duration": 0.125,
        "velocity": 0.57,
        "hand": "right"
      },
      {
        "midi": 67,
        "time": 22,
        "duration": 0.125,
        "velocity": 0.55,
        "hand": "right"
      },
      {
        "midi": 36,
        "time": 22.25,
        "duration": 0.25,
        "velocity": 0.87,
        "hand": "left"
      },
      {
        "midi": 51,
        "time": 22.375,
        "duration": 0.063,
        "velocity": 0.61,
        "hand": "left"
      },
      {
        "midi": 38,
        "time": 22.5,
        "duration": 0.235,
        "velocity": 0.56,
        "hand": "left"
      },
      {
        "midi": 47,
        "time": 22.5,
        "duration": 0.063,
        "velocity": 0.75,
        "hand": "left"
      },
      {
        "midi": 60,
        "time": 22.5,
        "duration": 0.375,
        "velocity": 0.5,
        "hand": "right"
      },
      {
        "midi": 62,
        "time": 22.5,
        "duration": 0.375,
        "velocity": 0.55,
        "hand": "right"
      },
      {
        "midi": 65,
        "time": 22.5,
        "duration": 0.5,
        "velocity": 0.57,
        "hand": "right"
      },
      {
        "midi": 38,
        "time": 22.75,
        "duration": 0.063,
        "velocity": 0.91,
        "hand": "left"
      },
      {
        "midi": 51,
        "time": 22.875,
        "duration": 0.063,
        "velocity": 0.61,
        "hand": "left"
      },
      {
        "midi": 38,
        "time": 23,
        "duration": 0.063,
        "velocity": 0.91,
        "hand": "left"
      },
      {
        "midi": 43,
        "time": 23,
        "duration": 0.375,
        "velocity": 0.56,
        "hand": "left"
      },
      {
        "midi": 63,
        "time": 23,
        "duration": 0.485,
        "velocity": 0.45,
        "hand": "right"
      },
      {
        "midi": 67,
        "time": 23,
        "duration": 0.375,
        "velocity": 0.42,
        "hand": "right"
      },
      {
        "midi": 39,
        "time": 23.25,
        "duration": 0.063,
        "velocity": 0.91,
        "hand": "left"
      },
      {
        "midi": 51,
        "time": 23.375,
        "duration": 0.063,
        "velocity": 0.61,
        "hand": "left"
      },
      {
        "midi": 38,
        "time": 23.5,
        "duration": 0.063,
        "velocity": 0.93,
        "hand": "left"
      },
      {
        "midi": 43,
        "time": 23.5,
        "duration": 0.375,
        "velocity": 0.96,
        "hand": "left"
      },
      {
        "midi": 63,
        "time": 23.5,
        "duration": 0.25,
        "velocity": 0.78,
        "hand": "right"
      },
      {
        "midi": 67,
        "time": 23.5,
        "duration": 0.235,
        "velocity": 0.25,
        "hand": "right"
      },
      {
        "midi": 67,
        "time": 23.75,
        "duration": 0.125,
        "velocity": 0.5,
        "hand": "right"
      },
      {
        "midi": 39,
        "time": 23.875,
        "duration": 0.063,
        "velocity": 0.72,
        "hand": "left"
      },
      {
        "midi": 51,
        "time": 23.875,
        "duration": 0.063,
        "velocity": 0.61,
        "hand": "left"
      },
      {
        "midi": 36,
        "time": 24,
        "duration": 1.25,
        "velocity": 0.97,
        "hand": "left"
      },
      {
        "midi": 47,
        "time": 24,
        "duration": 0.063,
        "velocity": 0.73,
        "hand": "left"
      },
      {
        "midi": 60,
        "time": 24,
        "duration": 0.36,
        "velocity": 0.5,
        "hand": "right"
      },
      {
        "midi": 63,
        "time": 24,
        "duration": 0.235,
        "velocity": 0.5,
        "hand": "right"
      },
      {
        "midi": 67,
        "time": 24,
        "duration": 0.36,
        "velocity": 0.63,
        "hand": "right"
      },
      {
        "midi": 63,
        "time": 24.25,
        "duration": 0.11,
        "velocity": 0.8,
        "hand": "right"
      },
      {
        "midi": 44,
        "time": 24.375,
        "duration": 0.063,
        "velocity": 0.61,
        "hand": "left"
      },
      {
        "midi": 55,
        "time": 24.375,
        "duration": 0.063,
        "velocity": 0.43,
        "hand": "left"
      },
      {
        "midi": 60,
        "time": 24.375,
        "duration": 0.063,
        "velocity": 0.58,
        "hand": "right"
      },
      {
        "midi": 63,
        "time": 24.375,
        "duration": 0.063,
        "velocity": 0.54,
        "hand": "right"
      },
      {
        "midi": 67,
        "time": 24.375,
        "duration": 0.063,
        "velocity": 0.43,
        "hand": "right"
      },
      {
        "midi": 38,
        "time": 24.5,
        "duration": 0.063,
        "velocity": 0.83,
        "hand": "left"
      },
      {
        "midi": 44,
        "time": 24.5,
        "duration": 0.063,
        "velocity": 0.61,
        "hand": "left"
      },
      {
        "midi": 60,
        "time": 24.5,
        "duration": 0.375,
        "velocity": 0.61,
        "hand": "right"
      },
      {
        "midi": 63,
        "time": 24.5,
        "duration": 0.063,
        "velocity": 0.39,
        "hand": "right"
      },
      {
        "midi": 67,
        "time": 24.5,
        "duration": 0.125,
        "velocity": 0.48,
        "hand": "right"
      },
      {
        "midi": 55,
        "time": 24.75,
        "duration": 0.235,
        "velocity": 0.74,
        "hand": "left"
      },
      {
        "midi": 44,
        "time": 24.875,
        "duration": 0.063,
        "velocity": 0.61,
        "hand": "left"
      },
      {
        "midi": 38,
        "time": 25,
        "duration": 0.063,
        "velocity": 0.91,
        "hand": "left"
      },
      {
        "midi": 44,
        "time": 25,
        "duration": 0.063,
        "velocity": 0.61,
        "hand": "left"
      },
      {
        "midi": 60,
        "time": 25,
        "duration": 0.375,
        "velocity": 0.74,
        "hand": "right"
      },
      {
        "midi": 63,
        "time": 25,
        "duration": 0.235,
        "velocity": 0.73,
        "hand": "right"
      },
      {
        "midi": 67,
        "time": 25,
        "duration": 0.125,
        "velocity": 0.54,
        "hand": "right"
      },
      {
        "midi": 43,
        "time": 25.25,
        "duration": 0.125,
        "velocity": 0.94,
        "hand": "left"
      },
      {
        "midi": 63,
        "time": 25.25,
        "duration": 0.125,
        "velocity": 0.51,
        "hand": "right"
      },
      {
        "midi": 67,
        "time": 25.25,
        "duration": 0.235,
        "velocity": 0.52,
        "hand": "right"
      },
      {
        "midi": 44,
        "time": 25.375,
        "duration": 0.063,
        "velocity": 0.61,
        "hand": "left"
      },
      {
        "midi": 36,
        "time": 25.5,
        "duration": 1,
        "velocity": 0.97,
        "hand": "left"
      },
      {
        "midi": 47,
        "time": 25.5,
        "duration": 0.063,
        "velocity": 0.72,
        "hand": "left"
      },
      {
        "midi": 60,
        "time": 25.5,
        "duration": 0.36,
        "velocity": 0.55,
        "hand": "right"
      },
      {
        "midi": 63,
        "time": 25.5,
        "duration": 0.36,
        "velocity": 0.46,
        "hand": "right"
      },
      {
        "midi": 67,
        "time": 25.5,
        "duration": 0.36,
        "velocity": 0.56,
        "hand": "right"
      },
      {
        "midi": 38,
        "time": 25.875,
        "duration": 0.063,
        "velocity": 0.97,
        "hand": "left"
      },
      {
        "midi": 44,
        "time": 25.875,
        "duration": 0.063,
        "velocity": 0.61,
        "hand": "left"
      },
      {
        "midi": 60,
        "time": 25.875,
        "duration": 0.063,
        "velocity": 0.48,
        "hand": "right"
      },
      {
        "midi": 63,
        "time": 25.875,
        "duration": 0.063,
        "velocity": 0.46,
        "hand": "right"
      },
      {
        "midi": 67,
        "time": 25.875,
        "duration": 0.11,
        "velocity": 0.34,
        "hand": "right"
      },
      {
        "midi": 38,
        "time": 26,
        "duration": 0.063,
        "velocity": 0.7,
        "hand": "left"
      },
      {
        "midi": 51,
        "time": 26,
        "duration": 1,
        "velocity": 0.57,
        "hand": "left"
      },
      {
        "midi": 60,
        "time": 26,
        "duration": 0.063,
        "velocity": 0.44,
        "hand": "right"
      },
      {
        "midi": 63,
        "time": 26,
        "duration": 0.125,
        "velocity": 0.51,
        "hand": "right"
      },
      {
        "midi": 67,
        "time": 26,
        "duration": 0.125,
        "velocity": 0.28,
        "hand": "right"
      },
      {
        "midi": 44,
        "time": 26.125,
        "duration": 0.063,
        "velocity": 0.61,
        "hand": "left"
      },
      {
        "midi": 44,
        "time": 26.375,
        "duration": 0.063,
        "velocity": 0.61,
        "hand": "left"
      },
      {
        "midi": 38,
        "time": 26.5,
        "duration": 0.063,
        "velocity": 0.9,
        "hand": "left"
      },
      {
        "midi": 43,
        "time": 26.5,
        "duration": 0.375,
        "velocity": 0.99,
        "hand": "left"
      },
      {
        "midi": 60,
        "time": 26.5,
        "duration": 0.25,
        "velocity": 0.72,
        "hand": "right"
      },
      {
        "midi": 63,
        "time": 26.5,
        "duration": 0.25,
        "velocity": 0.74,
        "hand": "right"
      },
      {
        "midi": 67,
        "time": 26.5,
        "duration": 0.25,
        "velocity": 0.75,
        "hand": "right"
      },
      {
        "midi": 55,
        "time": 26.75,
        "duration": 0.125,
        "velocity": 0.54,
        "hand": "left"
      },
      {
        "midi": 44,
        "time": 26.875,
        "duration": 0.063,
        "velocity": 0.61,
        "hand": "left"
      },
      {
        "midi": 67,
        "time": 26.875,
        "duration": 0.11,
        "velocity": 0.55,
        "hand": "right"
      },
      {
        "midi": 40,
        "time": 27,
        "duration": 1,
        "velocity": 0.98,
        "hand": "left"
      },
      {
        "midi": 43,
        "time": 27,
        "duration": 0.875,
        "velocity": 0.65,
        "hand": "left"
      },
      {
        "midi": 60,
        "time": 27,
        "duration": 0.36,
        "velocity": 0.72,
        "hand": "right"
      },
      {
        "midi": 64,
        "time": 27,
        "duration": 0.36,
        "velocity": 0.51,
        "hand": "right"
      },
      {
        "midi": 68,
        "time": 27,
        "duration": 0.375,
        "velocity": 0.51,
        "hand": "right"
      },
      {
        "midi": 44,
        "time": 27.375,
        "duration": 0.063,
        "velocity": 0.61,
        "hand": "left"
      },
      {
        "midi": 55,
        "time": 27.375,
        "duration": 0.063,
        "velocity": 0.45,
        "hand": "left"
      },
      {
        "midi": 60,
        "time": 27.375,
        "duration": 0.063,
        "velocity": 0.51,
        "hand": "right"
      },
      {
        "midi": 64,
        "time": 27.375,
        "duration": 0.063,
        "velocity": 0.22,
        "hand": "right"
      },
      {
        "midi": 38,
        "time": 27.5,
        "duration": 0.063,
        "velocity": 0.8,
        "hand": "left"
      },
      {
        "midi": 44,
        "time": 27.5,
        "duration": 0.063,
        "velocity": 0.61,
        "hand": "left"
      },
      {
        "midi": 60,
        "time": 27.5,
        "duration": 0.063,
        "velocity": 0.57,
        "hand": "right"
      },
      {
        "midi": 64,
        "time": 27.5,
        "duration": 0.063,
        "velocity": 0.46,
        "hand": "right"
      },
      {
        "midi": 67,
        "time": 27.5,
        "duration": 0.5,
        "velocity": 0.52,
        "hand": "right"
      },
      {
        "midi": 44,
        "time": 27.875,
        "duration": 0.063,
        "velocity": 0.61,
        "hand": "left"
      },
      {
        "midi": 38,
        "time": 28,
        "duration": 0.25,
        "velocity": 0.95,
        "hand": "left"
      },
      {
        "midi": 44,
        "time": 28,
        "duration": 0.063,
        "velocity": 0.61,
        "hand": "left"
      },
      {
        "midi": 60,
        "time": 28,
        "duration": 0.25,
        "velocity": 0.68,
        "hand": "right"
      },
      {
        "midi": 65,
        "time": 28,
        "duration": 0.25,
        "velocity": 0.61,
        "hand": "right"
      },
      {
        "midi": 36,
        "time": 28.25,
        "duration": 0.25,
        "velocity": 0.94,
        "hand": "left"
      },
      {
        "midi": 55,
        "time": 28.25,
        "duration": 0.125,
        "velocity": 0.61,
        "hand": "left"
      },
      {
        "midi": 64,
        "time": 28.25,
        "duration": 0.25,
        "velocity": 0.54,
        "hand": "right"
      },
      {
        "midi": 44,
        "time": 28.375,
        "duration": 0.063,
        "velocity": 0.61,
        "hand": "left"
      },
      {
        "midi": 41,
        "time": 28.5,
        "duration": 1.125,
        "velocity": 0.99,
        "hand": "left"
      },
      {
        "midi": 47,
        "time": 28.5,
        "duration": 0.063,
        "velocity": 0.75,
        "hand": "left"
      },
      {
        "midi": 65,
        "time": 28.5,
        "duration": 0.36,
        "velocity": 0.51,
        "hand": "right"
      },
      {
        "midi": 68,
        "time": 28.5,
        "duration": 1.985,
        "velocity": 0.44,
        "hand": "right"
      },
      {
        "midi": 60,
        "time": 28.75,
        "duration": 0.11,
        "velocity": 0.72,
        "hand": "right"
      },
      {
        "midi": 38,
        "time": 28.875,
        "duration": 0.063,
        "velocity": 0.97,
        "hand": "left"
      },
      {
        "midi": 44,
        "time": 28.875,
        "duration": 0.063,
        "velocity": 0.61,
        "hand": "left"
      },
      {
        "midi": 60,
        "time": 28.875,
        "duration": 0.11,
        "velocity": 0.48,
        "hand": "right"
      },
      {
        "midi": 63,
        "time": 28.875,
        "duration": 0.11,
        "velocity": 0.42,
        "hand": "right"
      },
      {
        "midi": 65,
        "time": 28.875,
        "duration": 0.11,
        "velocity": 0.46,
        "hand": "right"
      },
      {
        "midi": 38,
        "time": 29,
        "duration": 0.063,
        "velocity": 0.65,
        "hand": "left"
      },
      {
        "midi": 44,
        "time": 29,
        "duration": 0.063,
        "velocity": 0.61,
        "hand": "left"
      },
      {
        "midi": 60,
        "time": 29,
        "duration": 0.063,
        "velocity": 0.45,
        "hand": "right"
      },
      {
        "midi": 63,
        "time": 29,
        "duration": 0.485,
        "velocity": 0.56,
        "hand": "right"
      },
      {
        "midi": 65,
        "time": 29,
        "duration": 0.063,
        "velocity": 0.52,
        "hand": "right"
      },
      {
        "midi": 65,
        "time": 29.25,
        "duration": 0.235,
        "velocity": 0.54,
        "hand": "right"
      },
      {
        "midi": 44,
        "time": 29.375,
        "duration": 0.063,
        "velocity": 0.61,
        "hand": "left"
      },
      {
        "midi": 36,
        "time": 29.5,
        "duration": 0.25,
        "velocity": 0.94,
        "hand": "left"
      },
      {
        "midi": 38,
        "time": 29.5,
        "duration": 0.063,
        "velocity": 0.91,
        "hand": "left"
      },
      {
        "midi": 60,
        "time": 29.5,
        "duration": 0.063,
        "velocity": 0.59,
        "hand": "right"
      },
      {
        "midi": 63,
        "time": 29.5,
        "duration": 0.125,
        "velocity": 0.54,
        "hand": "right"
      },
      {
        "midi": 65,
        "time": 29.5,
        "duration": 0.125,
        "velocity": 0.5,
        "hand": "right"
      },
      {
        "midi": 67,
        "time": 29.5,
        "duration": 0.25,
        "velocity": 0.73,
        "hand": "right"
      },
      {
        "midi": 48,
        "time": 29.625,
        "duration": 0.375,
        "velocity": 0.48,
        "hand": "left"
      },
      {
        "midi": 41,
        "time": 29.75,
        "duration": 0.125,
        "velocity": 0.91,
        "hand": "left"
      },
      {
        "midi": 44,
        "time": 29.75,
        "duration": 0.11,
        "velocity": 0.44,
        "hand": "left"
      },
      {
        "midi": 60,
        "time": 29.75,
        "duration": 0.25,
        "velocity": 0.59,
        "hand": "right"
      },
      {
        "midi": 44,
        "time": 29.875,
        "duration": 0.063,
        "velocity": 0.61,
        "hand": "left"
      },
      {
        "midi": 67,
        "time": 29.875,
        "duration": 0.125,
        "velocity": 0.57,
        "hand": "right"
      },
      {
        "midi": 41,
        "time": 30,
        "duration": 0.985,
        "velocity": 0.52,
        "hand": "left"
      },
      {
        "midi": 46,
        "time": 30,
        "duration": 1,
        "velocity": 1,
        "hand": "left"
      },
      {
        "midi": 63,
        "time": 30,
        "duration": 0.235,
        "velocity": 0.32,
        "hand": "right"
      },
      {
        "midi": 65,
        "time": 30,
        "duration": 0.36,
        "velocity": 0.57,
        "hand": "right"
      },
      {
        "midi": 70,
        "time": 30,
        "duration": 0.375,
        "velocity": 0.65,
        "hand": "right"
      },
      {
        "midi": 63,
        "time": 30.25,
        "duration": 0.11,
        "velocity": 0.56,
        "hand": "right"
      },
      {
        "midi": 44,
        "time": 30.375,
        "duration": 0.063,
        "velocity": 0.61,
        "hand": "left"
      },
      {
        "midi": 56,
        "time": 30.375,
        "duration": 0.063,
        "velocity": 0.5,
        "hand": "left"
      },
      {
        "midi": 60,
        "time": 30.375,
        "duration": 0.063,
        "velocity": 0.54,
        "hand": "right"
      },
      {
        "midi": 63,
        "time": 30.375,
        "duration": 0.063,
        "velocity": 0.5,
        "hand": "right"
      },
      {
        "midi": 65,
        "time": 30.375,
        "duration": 0.063,
        "velocity": 0.44,
        "hand": "right"
      },
      {
        "midi": 38,
        "time": 30.5,
        "duration": 0.063,
        "velocity": 0.9,
        "hand": "left"
      },
      {
        "midi": 44,
        "time": 30.5,
        "duration": 0.063,
        "velocity": 0.61,
        "hand": "left"
      },
      {
        "midi": 60,
        "time": 30.5,
        "duration": 0.375,
        "velocity": 0.56,
        "hand": "right"
      },
      {
        "midi": 63,
        "time": 30.5,
        "duration": 0.063,
        "velocity": 0.49,
        "hand": "right"
      },
      {
        "midi": 65,
        "time": 30.5,
        "duration": 0.063,
        "velocity": 0.5,
        "hand": "right"
      },
      {
        "midi": 68,
        "time": 30.5,
        "duration": 0.5,
        "velocity": 0.61,
        "hand": "right"
      },
      {
        "midi": 56,
        "time": 30.75,
        "duration": 0.235,
        "velocity": 0.72,
        "hand": "left"
      },
      {
        "midi": 44,
        "time": 30.875,
        "duration": 0.063,
        "velocity": 0.61,
        "hand": "left"
      },
      {
        "midi": 38,
        "time": 31,
        "duration": 0.063,
        "velocity": 0.9,
        "hand": "left"
      },
      {
        "midi": 41,
        "time": 31,
        "duration": 0.25,
        "velocity": 0.91,
        "hand": "left"
      },
      {
        "midi": 60,
        "time": 31,
        "duration": 0.375,
        "velocity": 0.64,
        "hand": "right"
      },
      {
        "midi": 63,
        "time": 31,
        "duration": 0.375,
        "velocity": 0.52,
        "hand": "right"
      },
      {
        "midi": 65,
        "time": 31,
        "duration": 0.235,
        "velocity": 0.52,
        "hand": "right"
      },
      {
        "midi": 67,
        "time": 31,
        "duration": 0.25,
        "velocity": 0.61,
        "hand": "right"
      },
      {
        "midi": 46,
        "time": 31.25,
        "duration": 0.25,
        "velocity": 1,
        "hand": "left"
      },
      {
        "midi": 56,
        "time": 31.25,
        "duration": 0.125,
        "velocity": 0.73,
        "hand": "left"
      },
      {
        "midi": 65,
        "time": 31.25,
        "duration": 0.25,
        "velocity": 0.56,
        "hand": "right"
      },
      {
        "midi": 44,
        "time": 31.375,
        "duration": 0.063,
        "velocity": 0.61,
        "hand": "left"
      },
      {
        "midi": 36,
        "time": 31.5,
        "duration": 1,
        "velocity": 0.95,
        "hand": "left"
      },
      {
        "midi": 47,
        "time": 31.5,
        "duration": 0.063,
        "velocity": 0.81,
        "hand": "left"
      },
      {
        "midi": 60,
        "time": 31.5,
        "duration": 0.36,
        "velocity": 0.56,
        "hand": "right"
      },
      {
        "midi": 63,
        "time": 31.5,
        "duration": 0.36,
        "velocity": 0.55,
        "hand": "right"
      },
      {
        "midi": 68,
        "time": 31.5,
        "duration": 0.375,
        "velocity": 0.72,
        "hand": "right"
      },
      {
        "midi": 51,
        "time": 31.75,
        "duration": 1.25,
        "velocity": 0.35,
        "hand": "left"
      },
      {
        "midi": 38,
        "time": 31.875,
        "duration": 0.063,
        "velocity": 0.97,
        "hand": "left"
      },
      {
        "midi": 44,
        "time": 31.875,
        "duration": 0.063,
        "velocity": 0.61,
        "hand": "left"
      },
      {
        "midi": 60,
        "time": 31.875,
        "duration": 0.063,
        "velocity": 0.52,
        "hand": "right"
      },
      {
        "midi": 63,
        "time": 31.875,
        "duration": 0.063,
        "velocity": 0.46,
        "hand": "right"
      },
      {
        "midi": 67,
        "time": 31.875,
        "duration": 0.063,
        "velocity": 0.4,
        "hand": "right"
      },
      {
        "midi": 38,
        "time": 32,
        "duration": 0.063,
        "velocity": 0.69,
        "hand": "left"
      },
      {
        "midi": 44,
        "time": 32,
        "duration": 0.063,
        "velocity": 0.61,
        "hand": "left"
      },
      {
        "midi": 60,
        "time": 32,
        "duration": 0.375,
        "velocity": 0.58,
        "hand": "right"
      },
      {
        "midi": 63,
        "time": 32,
        "duration": 0.375,
        "velocity": 0.54,
        "hand": "right"
      },
      {
        "midi": 67,
        "time": 32,
        "duration": 0.485,
        "velocity": 0.54,
        "hand": "right"
      },
      {
        "midi": 44,
        "time": 32.375,
        "duration": 0.063,
        "velocity": 0.61,
        "hand": "left"
      },
      {
        "midi": 38,
        "time": 32.5,
        "duration": 0.063,
        "velocity": 0.91,
        "hand": "left"
      },
      {
        "midi": 44,
        "time": 32.5,
        "duration": 0.063,
        "velocity": 0.61,
        "hand": "left"
      },
      {
        "midi": 60,
        "time": 32.5,
        "duration": 0.25,
        "velocity": 0.65,
        "hand": "right"
      },
      {
        "midi": 63,
        "time": 32.5,
        "duration": 0.25,
        "velocity": 0.59,
        "hand": "right"
      },
      {
        "midi": 67,
        "time": 32.5,
        "duration": 0.25,
        "velocity": 0.7,
        "hand": "right"
      },
      {
        "midi": 45,
        "time": 32.75,
        "duration": 0.25,
        "velocity": 0.97,
        "hand": "left"
      },
      {
        "midi": 55,
        "time": 32.75,
        "duration": 0.125,
        "velocity": 0.57,
        "hand": "left"
      },
      {
        "midi": 44,
        "time": 32.875,
        "duration": 0.063,
        "velocity": 0.61,
        "hand": "left"
      },
      {
        "midi": 68,
        "time": 32.875,
        "duration": 0.125,
        "velocity": 0.46,
        "hand": "right"
      },
      {
        "midi": 43,
        "time": 33,
        "duration": 1.235,
        "velocity": 1,
        "hand": "left"
      },
      {
        "midi": 47,
        "time": 33,
        "duration": 0.063,
        "velocity": 0.73,
        "hand": "left"
      },
      {
        "midi": 62,
        "time": 33,
        "duration": 0.36,
        "velocity": 0.54,
        "hand": "right"
      },
      {
        "midi": 67,
        "time": 33,
        "duration": 0.485,
        "velocity": 0.56,
        "hand": "right"
      },
      {
        "midi": 44,
        "time": 33.375,
        "duration": 0.063,
        "velocity": 0.61,
        "hand": "left"
      },
      {
        "midi": 55,
        "time": 33.375,
        "duration": 0.063,
        "velocity": 0.48,
        "hand": "left"
      },
      {
        "midi": 62,
        "time": 33.375,
        "duration": 0.11,
        "velocity": 0.56,
        "hand": "right"
      },
      {
        "midi": 38,
        "time": 33.5,
        "duration": 0.485,
        "velocity": 0.86,
        "hand": "left"
      },
      {
        "midi": 44,
        "time": 33.5,
        "duration": 0.063,
        "velocity": 0.61,
        "hand": "left"
      },
      {
        "midi": 62,
        "time": 33.5,
        "duration": 0.375,
        "velocity": 0.54,
        "hand": "right"
      },
      {
        "midi": 65,
        "time": 33.5,
        "duration": 0.485,
        "velocity": 0.56,
        "hand": "right"
      },
      {
        "midi": 67,
        "time": 33.5,
        "duration": 0.063,
        "velocity": 0.52,
        "hand": "right"
      },
      {
        "midi": 44,
        "time": 33.875,
        "duration": 0.063,
        "velocity": 0.61,
        "hand": "left"
      },
      {
        "midi": 38,
        "time": 34,
        "duration": 0.063,
        "velocity": 0.91,
        "hand": "left"
      },
      {
        "midi": 44,
        "time": 34,
        "duration": 0.063,
        "velocity": 0.61,
        "hand": "left"
      },
      {
        "midi": 63,
        "time": 34,
        "duration": 0.25,
        "velocity": 0.48,
        "hand": "right"
      },
      {
        "midi": 65,
        "time": 34,
        "duration": 0.25,
        "velocity": 0.52,
        "hand": "right"
      },
      {
        "midi": 43,
        "time": 34.25,
        "duration": 0.25,
        "velocity": 0.94,
        "hand": "left"
      },
      {
        "midi": 62,
        "time": 34.25,
        "duration": 0.235,
        "velocity": 0.57,
        "hand": "right"
      },
      {
        "midi": 44,
        "time": 34.375,
        "duration": 0.063,
        "velocity": 0.61,
        "hand": "left"
      },
      {
        "midi": 36,
        "time": 34.5,
        "duration": 0.5,
        "velocity": 0.94,
        "hand": "left"
      },
      {
        "midi": 47,
        "time": 34.5,
        "duration": 0.063,
        "velocity": 0.72,
        "hand": "left"
      },
      {
        "midi": 63,
        "time": 34.5,
        "duration": 0.25,
        "velocity": 0.54,
        "hand": "right"
      },
      {
        "midi": 65,
        "time": 34.5,
        "duration": 0.25,
        "velocity": 0.57,
        "hand": "right"
      },
      {
        "midi": 67,
        "time": 34.5,
        "duration": 0.125,
        "velocity": 0.49,
        "hand": "right"
      },
      {
        "midi": 60,
        "time": 34.75,
        "duration": 0.125,
        "velocity": 0.24,
        "hand": "right"
      },
      {
        "midi": 38,
        "time": 34.875,
        "duration": 0.063,
        "velocity": 0.91,
        "hand": "left"
      },
      {
        "midi": 44,
        "time": 34.875,
        "duration": 0.063,
        "velocity": 0.61,
        "hand": "left"
      },
      {
        "midi": 39,
        "time": 35,
        "duration": 0.063,
        "velocity": 0.94,
        "hand": "left"
      },
      {
        "midi": 60,
        "time": 35,
        "duration": 0.25,
        "velocity": 0.59,
        "hand": "right"
      },
      {
        "midi": 62,
        "time": 35,
        "duration": 0.375,
        "velocity": 0.72,
        "hand": "right"
      },
      {
        "midi": 65,
        "time": 35,
        "duration": 0.375,
        "velocity": 0.53,
        "hand": "right"
      },
      {
        "midi": 44,
        "time": 35.125,
        "duration": 0.063,
        "velocity": 0.61,
        "hand": "left"
      },
      {
        "midi": 43,
        "time": 35.25,
        "duration": 0.063,
        "velocity": 0.87,
        "hand": "left"
      },
      {
        "midi": 44,
        "time": 35.5,
        "duration": 0.5,
        "velocity": 1,
        "hand": "left"
      },
      {
        "midi": 48,
        "time": 35.5,
        "duration": 0.063,
        "velocity": 0.81,
        "hand": "left"
      },
      {
        "midi": 63,
        "time": 35.5,
        "duration": 0.375,
        "velocity": 0.78,
        "hand": "right"
      },
      {
        "midi": 45,
        "time": 35.75,
        "duration": 0.063,
        "velocity": 0.81,
        "hand": "left"
      },
      {
        "midi": 67,
        "time": 35.75,
        "duration": 0.125,
        "velocity": 0.5,
        "hand": "right"
      },
      {
        "midi": 38,
        "time": 35.875,
        "duration": 0.063,
        "velocity": 0.96,
        "hand": "left"
      },
      {
        "midi": 36,
        "time": 36,
        "duration": 1.25,
        "velocity": 0.97,
        "hand": "left"
      },
      {
        "midi": 47,
        "time": 36,
        "duration": 0.063,
        "velocity": 0.77,
        "hand": "left"
      },
      {
        "midi": 60,
        "time": 36,
        "duration": 0.36,
        "velocity": 0.5,
        "hand": "right"
      },
      {
        "midi": 63,
        "time": 36,
        "duration": 0.235,
        "velocity": 0.5,
        "hand": "right"
      },
      {
        "midi": 67,
        "time": 36,
        "duration": 0.36,
        "velocity": 0.63,
        "hand": "right"
      },
      {
        "midi": 63,
        "time": 36.25,
        "duration": 0.11,
        "velocity": 0.8,
        "hand": "right"
      },
      {
        "midi": 44,
        "time": 36.375,
        "duration": 0.063,
        "velocity": 0.61,
        "hand": "left"
      },
      {
        "midi": 55,
        "time": 36.375,
        "duration": 0.063,
        "velocity": 0.43,
        "hand": "left"
      },
      {
        "midi": 60,
        "time": 36.375,
        "duration": 0.063,
        "velocity": 0.58,
        "hand": "right"
      },
      {
        "midi": 63,
        "time": 36.375,
        "duration": 0.063,
        "velocity": 0.54,
        "hand": "right"
      },
      {
        "midi": 67,
        "time": 36.375,
        "duration": 0.063,
        "velocity": 0.43,
        "hand": "right"
      },
      {
        "midi": 38,
        "time": 36.5,
        "duration": 0.063,
        "velocity": 0.8,
        "hand": "left"
      },
      {
        "midi": 44,
        "time": 36.5,
        "duration": 0.063,
        "velocity": 0.61,
        "hand": "left"
      },
      {
        "midi": 60,
        "time": 36.5,
        "duration": 0.375,
        "velocity": 0.61,
        "hand": "right"
      },
      {
        "midi": 63,
        "time": 36.5,
        "duration": 0.063,
        "velocity": 0.39,
        "hand": "right"
      },
      {
        "midi": 67,
        "time": 36.5,
        "duration": 0.125,
        "velocity": 0.48,
        "hand": "right"
      },
      {
        "midi": 55,
        "time": 36.75,
        "duration": 0.235,
        "velocity": 0.74,
        "hand": "left"
      },
      {
        "midi": 44,
        "time": 36.875,
        "duration": 0.063,
        "velocity": 0.61,
        "hand": "left"
      },
      {
        "midi": 38,
        "time": 37,
        "duration": 0.063,
        "velocity": 0.91,
        "hand": "left"
      },
      {
        "midi": 44,
        "time": 37,
        "duration": 0.063,
        "velocity": 0.61,
        "hand": "left"
      },
      {
        "midi": 60,
        "time": 37,
        "duration": 0.375,
        "velocity": 0.74,
        "hand": "right"
      },
      {
        "midi": 63,
        "time": 37,
        "duration": 0.235,
        "velocity": 0.73,
        "hand": "right"
      },
      {
        "midi": 67,
        "time": 37,
        "duration": 0.125,
        "velocity": 0.54,
        "hand": "right"
      },
      {
        "midi": 43,
        "time": 37.25,
        "duration": 0.125,
        "velocity": 0.94,
        "hand": "left"
      },
      {
        "midi": 63,
        "time": 37.25,
        "duration": 0.125,
        "velocity": 0.51,
        "hand": "right"
      },
      {
        "midi": 67,
        "time": 37.25,
        "duration": 0.235,
        "velocity": 0.52,
        "hand": "right"
      },
      {
        "midi": 44,
        "time": 37.375,
        "duration": 0.063,
        "velocity": 0.61,
        "hand": "left"
      },
      {
        "midi": 36,
        "time": 37.5,
        "duration": 1,
        "velocity": 0.97,
        "hand": "left"
      },
      {
        "midi": 47,
        "time": 37.5,
        "duration": 0.063,
        "velocity": 0.75,
        "hand": "left"
      },
      {
        "midi": 60,
        "time": 37.5,
        "duration": 0.36,
        "velocity": 0.55,
        "hand": "right"
      },
      {
        "midi": 63,
        "time": 37.5,
        "duration": 0.36,
        "velocity": 0.46,
        "hand": "right"
      },
      {
        "midi": 67,
        "time": 37.5,
        "duration": 0.36,
        "velocity": 0.56,
        "hand": "right"
      },
      {
        "midi": 38,
        "time": 37.875,
        "duration": 0.063,
        "velocity": 0.97,
        "hand": "left"
      },
      {
        "midi": 44,
        "time": 37.875,
        "duration": 0.063,
        "velocity": 0.61,
        "hand": "left"
      },
      {
        "midi": 60,
        "time": 37.875,
        "duration": 0.063,
        "velocity": 0.48,
        "hand": "right"
      },
      {
        "midi": 63,
        "time": 37.875,
        "duration": 0.063,
        "velocity": 0.46,
        "hand": "right"
      },
      {
        "midi": 67,
        "time": 37.875,
        "duration": 0.11,
        "velocity": 0.34,
        "hand": "right"
      },
      {
        "midi": 38,
        "time": 38,
        "duration": 0.063,
        "velocity": 0.65,
        "hand": "left"
      },
      {
        "midi": 44,
        "time": 38,
        "duration": 0.063,
        "velocity": 0.61,
        "hand": "left"
      },
      {
        "midi": 60,
        "time": 38,
        "duration": 0.063,
        "velocity": 0.44,
        "hand": "right"
      },
      {
        "midi": 63,
        "time": 38,
        "duration": 0.125,
        "velocity": 0.51,
        "hand": "right"
      },
      {
        "midi": 67,
        "time": 38,
        "duration": 0.125,
        "velocity": 0.28,
        "hand": "right"
      },
      {
        "midi": 44,
        "time": 38.375,
        "duration": 0.063,
        "velocity": 0.61,
        "hand": "left"
      },
      {
        "midi": 38,
        "time": 38.5,
        "duration": 0.063,
        "velocity": 0.91,
        "hand": "left"
      },
      {
        "midi": 43,
        "time": 38.5,
        "duration": 0.375,
        "velocity": 0.99,
        "hand": "left"
      },
      {
        "midi": 60,
        "time": 38.5,
        "duration": 0.25,
        "velocity": 0.72,
        "hand": "right"
      },
      {
        "midi": 63,
        "time": 38.5,
        "duration": 0.25,
        "velocity": 0.74,
        "hand": "right"
      },
      {
        "midi": 67,
        "time": 38.5,
        "duration": 0.25,
        "velocity": 0.75,
        "hand": "right"
      },
      {
        "midi": 55,
        "time": 38.75,
        "duration": 0.125,
        "velocity": 0.54,
        "hand": "left"
      },
      {
        "midi": 44,
        "time": 38.875,
        "duration": 0.063,
        "velocity": 0.61,
        "hand": "left"
      },
      {
        "midi": 67,
        "time": 38.875,
        "duration": 0.11,
        "velocity": 0.55,
        "hand": "right"
      },
      {
        "midi": 40,
        "time": 39,
        "duration": 1,
        "velocity": 0.98,
        "hand": "left"
      },
      {
        "midi": 43,
        "time": 39,
        "duration": 0.875,
        "velocity": 0.65,
        "hand": "left"
      },
      {
        "midi": 60,
        "time": 39,
        "duration": 0.36,
        "velocity": 0.72,
        "hand": "right"
      },
      {
        "midi": 64,
        "time": 39,
        "duration": 0.36,
        "velocity": 0.51,
        "hand": "right"
      },
      {
        "midi": 68,
        "time": 39,
        "duration": 0.375,
        "velocity": 0.51,
        "hand": "right"
      },
      {
        "midi": 44,
        "time": 39.375,
        "duration": 0.063,
        "velocity": 0.61,
        "hand": "left"
      },
      {
        "midi": 55,
        "time": 39.375,
        "duration": 0.063,
        "velocity": 0.45,
        "hand": "left"
      },
      {
        "midi": 60,
        "time": 39.375,
        "duration": 0.063,
        "velocity": 0.51,
        "hand": "right"
      },
      {
        "midi": 64,
        "time": 39.375,
        "duration": 0.063,
        "velocity": 0.22,
        "hand": "right"
      },
      {
        "midi": 38,
        "time": 39.5,
        "duration": 0.063,
        "velocity": 0.9,
        "hand": "left"
      },
      {
        "midi": 44,
        "time": 39.5,
        "duration": 0.063,
        "velocity": 0.61,
        "hand": "left"
      },
      {
        "midi": 60,
        "time": 39.5,
        "duration": 0.063,
        "velocity": 0.57,
        "hand": "right"
      },
      {
        "midi": 64,
        "time": 39.5,
        "duration": 0.063,
        "velocity": 0.46,
        "hand": "right"
      },
      {
        "midi": 67,
        "time": 39.5,
        "duration": 0.5,
        "velocity": 0.52,
        "hand": "right"
      },
      {
        "midi": 44,
        "time": 39.875,
        "duration": 0.063,
        "velocity": 0.61,
        "hand": "left"
      },
      {
        "midi": 38,
        "time": 40,
        "duration": 0.25,
        "velocity": 0.95,
        "hand": "left"
      },
      {
        "midi": 44,
        "time": 40,
        "duration": 0.063,
        "velocity": 0.61,
        "hand": "left"
      },
      {
        "midi": 60,
        "time": 40,
        "duration": 0.25,
        "velocity": 0.68,
        "hand": "right"
      },
      {
        "midi": 65,
        "time": 40,
        "duration": 0.25,
        "velocity": 0.61,
        "hand": "right"
      },
      {
        "midi": 36,
        "time": 40.25,
        "duration": 0.25,
        "velocity": 0.94,
        "hand": "left"
      },
      {
        "midi": 55,
        "time": 40.25,
        "duration": 0.125,
        "velocity": 0.61,
        "hand": "left"
      },
      {
        "midi": 64,
        "time": 40.25,
        "duration": 0.25,
        "velocity": 0.54,
        "hand": "right"
      },
      {
        "midi": 44,
        "time": 40.375,
        "duration": 0.063,
        "velocity": 0.61,
        "hand": "left"
      },
      {
        "midi": 41,
        "time": 40.5,
        "duration": 1.125,
        "velocity": 0.99,
        "hand": "left"
      },
      {
        "midi": 47,
        "time": 40.5,
        "duration": 0.063,
        "velocity": 0.81,
        "hand": "left"
      },
      {
        "midi": 65,
        "time": 40.5,
        "duration": 0.36,
        "velocity": 0.51,
        "hand": "right"
      },
      {
        "midi": 68,
        "time": 40.5,
        "duration": 1.985,
        "velocity": 0.44,
        "hand": "right"
      },
      {
        "midi": 60,
        "time": 40.75,
        "duration": 0.11,
        "velocity": 0.72,
        "hand": "right"
      },
      {
        "midi": 38,
        "time": 40.875,
        "duration": 0.063,
        "velocity": 0.97,
        "hand": "left"
      },
      {
        "midi": 44,
        "time": 40.875,
        "duration": 0.063,
        "velocity": 0.61,
        "hand": "left"
      },
      {
        "midi": 60,
        "time": 40.875,
        "duration": 0.11,
        "velocity": 0.48,
        "hand": "right"
      },
      {
        "midi": 63,
        "time": 40.875,
        "duration": 0.11,
        "velocity": 0.42,
        "hand": "right"
      },
      {
        "midi": 65,
        "time": 40.875,
        "duration": 0.11,
        "velocity": 0.46,
        "hand": "right"
      },
      {
        "midi": 38,
        "time": 41,
        "duration": 0.063,
        "velocity": 0.69,
        "hand": "left"
      },
      {
        "midi": 44,
        "time": 41,
        "duration": 0.063,
        "velocity": 0.61,
        "hand": "left"
      },
      {
        "midi": 60,
        "time": 41,
        "duration": 0.063,
        "velocity": 0.45,
        "hand": "right"
      },
      {
        "midi": 63,
        "time": 41,
        "duration": 0.485,
        "velocity": 0.56,
        "hand": "right"
      },
      {
        "midi": 65,
        "time": 41,
        "duration": 0.063,
        "velocity": 0.52,
        "hand": "right"
      },
      {
        "midi": 65,
        "time": 41.25,
        "duration": 0.235,
        "velocity": 0.54,
        "hand": "right"
      },
      {
        "midi": 44,
        "time": 41.375,
        "duration": 0.063,
        "velocity": 0.61,
        "hand": "left"
      },
      {
        "midi": 36,
        "time": 41.5,
        "duration": 0.25,
        "velocity": 0.94,
        "hand": "left"
      },
      {
        "midi": 38,
        "time": 41.5,
        "duration": 0.063,
        "velocity": 0.91,
        "hand": "left"
      },
      {
        "midi": 60,
        "time": 41.5,
        "duration": 0.063,
        "velocity": 0.59,
        "hand": "right"
      },
      {
        "midi": 63,
        "time": 41.5,
        "duration": 0.125,
        "velocity": 0.54,
        "hand": "right"
      },
      {
        "midi": 65,
        "time": 41.5,
        "duration": 0.125,
        "velocity": 0.5,
        "hand": "right"
      },
      {
        "midi": 67,
        "time": 41.5,
        "duration": 0.25,
        "velocity": 0.73,
        "hand": "right"
      },
      {
        "midi": 48,
        "time": 41.625,
        "duration": 0.375,
        "velocity": 0.48,
        "hand": "left"
      },
      {
        "midi": 41,
        "time": 41.75,
        "duration": 0.125,
        "velocity": 0.91,
        "hand": "left"
      },
      {
        "midi": 44,
        "time": 41.75,
        "duration": 0.11,
        "velocity": 0.44,
        "hand": "left"
      },
      {
        "midi": 60,
        "time": 41.75,
        "duration": 0.25,
        "velocity": 0.59,
        "hand": "right"
      },
      {
        "midi": 44,
        "time": 41.875,
        "duration": 0.063,
        "velocity": 0.61,
        "hand": "left"
      },
      {
        "midi": 67,
        "time": 41.875,
        "duration": 0.125,
        "velocity": 0.57,
        "hand": "right"
      },
      {
        "midi": 41,
        "time": 42,
        "duration": 0.985,
        "velocity": 0.52,
        "hand": "left"
      },
      {
        "midi": 46,
        "time": 42,
        "duration": 1,
        "velocity": 1,
        "hand": "left"
      },
      {
        "midi": 63,
        "time": 42,
        "duration": 0.235,
        "velocity": 0.32,
        "hand": "right"
      },
      {
        "midi": 65,
        "time": 42,
        "duration": 0.36,
        "velocity": 0.57,
        "hand": "right"
      },
      {
        "midi": 70,
        "time": 42,
        "duration": 0.375,
        "velocity": 0.65,
        "hand": "right"
      },
      {
        "midi": 63,
        "time": 42.25,
        "duration": 0.11,
        "velocity": 0.56,
        "hand": "right"
      },
      {
        "midi": 44,
        "time": 42.375,
        "duration": 0.063,
        "velocity": 0.61,
        "hand": "left"
      },
      {
        "midi": 56,
        "time": 42.375,
        "duration": 0.063,
        "velocity": 0.5,
        "hand": "left"
      },
      {
        "midi": 60,
        "time": 42.375,
        "duration": 0.063,
        "velocity": 0.54,
        "hand": "right"
      },
      {
        "midi": 63,
        "time": 42.375,
        "duration": 0.063,
        "velocity": 0.5,
        "hand": "right"
      },
      {
        "midi": 65,
        "time": 42.375,
        "duration": 0.063,
        "velocity": 0.44,
        "hand": "right"
      },
      {
        "midi": 38,
        "time": 42.5,
        "duration": 0.063,
        "velocity": 0.83,
        "hand": "left"
      },
      {
        "midi": 44,
        "time": 42.5,
        "duration": 0.063,
        "velocity": 0.61,
        "hand": "left"
      },
      {
        "midi": 60,
        "time": 42.5,
        "duration": 0.375,
        "velocity": 0.56,
        "hand": "right"
      },
      {
        "midi": 63,
        "time": 42.5,
        "duration": 0.063,
        "velocity": 0.49,
        "hand": "right"
      },
      {
        "midi": 65,
        "time": 42.5,
        "duration": 0.063,
        "velocity": 0.5,
        "hand": "right"
      },
      {
        "midi": 68,
        "time": 42.5,
        "duration": 0.5,
        "velocity": 0.61,
        "hand": "right"
      },
      {
        "midi": 56,
        "time": 42.75,
        "duration": 0.235,
        "velocity": 0.72,
        "hand": "left"
      },
      {
        "midi": 44,
        "time": 42.875,
        "duration": 0.063,
        "velocity": 0.61,
        "hand": "left"
      },
      {
        "midi": 38,
        "time": 43,
        "duration": 0.063,
        "velocity": 0.91,
        "hand": "left"
      },
      {
        "midi": 41,
        "time": 43,
        "duration": 0.25,
        "velocity": 0.91,
        "hand": "left"
      },
      {
        "midi": 60,
        "time": 43,
        "duration": 0.375,
        "velocity": 0.64,
        "hand": "right"
      },
      {
        "midi": 63,
        "time": 43,
        "duration": 0.375,
        "velocity": 0.52,
        "hand": "right"
      },
      {
        "midi": 65,
        "time": 43,
        "duration": 0.235,
        "velocity": 0.52,
        "hand": "right"
      },
      {
        "midi": 67,
        "time": 43,
        "duration": 0.25,
        "velocity": 0.61,
        "hand": "right"
      },
      {
        "midi": 46,
        "time": 43.25,
        "duration": 0.25,
        "velocity": 1,
        "hand": "left"
      },
      {
        "midi": 56,
        "time": 43.25,
        "duration": 0.125,
        "velocity": 0.73,
        "hand": "left"
      },
      {
        "midi": 65,
        "time": 43.25,
        "duration": 0.25,
        "velocity": 0.56,
        "hand": "right"
      },
      {
        "midi": 44,
        "time": 43.375,
        "duration": 0.063,
        "velocity": 0.61,
        "hand": "left"
      },
      {
        "midi": 36,
        "time": 43.5,
        "duration": 1,
        "velocity": 0.95,
        "hand": "left"
      },
      {
        "midi": 47,
        "time": 43.5,
        "duration": 0.063,
        "velocity": 0.72,
        "hand": "left"
      },
      {
        "midi": 60,
        "time": 43.5,
        "duration": 0.36,
        "velocity": 0.56,
        "hand": "right"
      },
      {
        "midi": 63,
        "time": 43.5,
        "duration": 0.36,
        "velocity": 0.55,
        "hand": "right"
      },
      {
        "midi": 68,
        "time": 43.5,
        "duration": 0.375,
        "velocity": 0.72,
        "hand": "right"
      },
      {
        "midi": 51,
        "time": 43.75,
        "duration": 1.25,
        "velocity": 0.35,
        "hand": "left"
      },
      {
        "midi": 38,
        "time": 43.875,
        "duration": 0.063,
        "velocity": 0.97,
        "hand": "left"
      },
      {
        "midi": 44,
        "time": 43.875,
        "duration": 0.063,
        "velocity": 0.61,
        "hand": "left"
      },
      {
        "midi": 60,
        "time": 43.875,
        "duration": 0.063,
        "velocity": 0.52,
        "hand": "right"
      },
      {
        "midi": 63,
        "time": 43.875,
        "duration": 0.063,
        "velocity": 0.46,
        "hand": "right"
      },
      {
        "midi": 67,
        "time": 43.875,
        "duration": 0.063,
        "velocity": 0.4,
        "hand": "right"
      },
      {
        "midi": 38,
        "time": 44,
        "duration": 0.063,
        "velocity": 0.7,
        "hand": "left"
      },
      {
        "midi": 54,
        "time": 44,
        "duration": 0.063,
        "velocity": 0.54,
        "hand": "left"
      },
      {
        "midi": 60,
        "time": 44,
        "duration": 0.375,
        "velocity": 0.58,
        "hand": "right"
      },
      {
        "midi": 63,
        "time": 44,
        "duration": 0.375,
        "velocity": 0.54,
        "hand": "right"
      },
      {
        "midi": 67,
        "time": 44,
        "duration": 0.485,
        "velocity": 0.54,
        "hand": "right"
      },
      {
        "midi": 44,
        "time": 44.125,
        "duration": 0.063,
        "velocity": 0.61,
        "hand": "left"
      },
      {
        "midi": 44,
        "time": 44.375,
        "duration": 0.063,
        "velocity": 0.61,
        "hand": "left"
      },
      {
        "midi": 38,
        "time": 44.5,
        "duration": 0.063,
        "velocity": 0.9,
        "hand": "left"
      },
      {
        "midi": 44,
        "time": 44.5,
        "duration": 0.063,
        "velocity": 0.61,
        "hand": "left"
      },
      {
        "midi": 60,
        "time": 44.5,
        "duration": 0.25,
        "velocity": 0.65,
        "hand": "right"
      },
      {
        "midi": 63,
        "time": 44.5,
        "duration": 0.25,
        "velocity": 0.59,
        "hand": "right"
      },
      {
        "midi": 67,
        "time": 44.5,
        "duration": 0.25,
        "velocity": 0.7,
        "hand": "right"
      },
      {
        "midi": 45,
        "time": 44.75,
        "duration": 0.25,
        "velocity": 0.97,
        "hand": "left"
      },
      {
        "midi": 55,
        "time": 44.75,
        "duration": 0.125,
        "velocity": 0.57,
        "hand": "left"
      },
      {
        "midi": 44,
        "time": 44.875,
        "duration": 0.063,
        "velocity": 0.61,
        "hand": "left"
      },
      {
        "midi": 68,
        "time": 44.875,
        "duration": 0.125,
        "velocity": 0.46,
        "hand": "right"
      },
      {
        "midi": 43,
        "time": 45,
        "duration": 1.235,
        "velocity": 1,
        "hand": "left"
      },
      {
        "midi": 47,
        "time": 45,
        "duration": 0.063,
        "velocity": 0.77,
        "hand": "left"
      },
      {
        "midi": 62,
        "time": 45,
        "duration": 0.36,
        "velocity": 0.54,
        "hand": "right"
      },
      {
        "midi": 67,
        "time": 45,
        "duration": 0.485,
        "velocity": 0.56,
        "hand": "right"
      },
      {
        "midi": 44,
        "time": 45.375,
        "duration": 0.063,
        "velocity": 0.61,
        "hand": "left"
      },
      {
        "midi": 55,
        "time": 45.375,
        "duration": 0.063,
        "velocity": 0.48,
        "hand": "left"
      },
      {
        "midi": 62,
        "time": 45.375,
        "duration": 0.11,
        "velocity": 0.56,
        "hand": "right"
      },
      {
        "midi": 38,
        "time": 45.5,
        "duration": 0.485,
        "velocity": 0.86,
        "hand": "left"
      },
      {
        "midi": 44,
        "time": 45.5,
        "duration": 0.063,
        "velocity": 0.61,
        "hand": "left"
      },
      {
        "midi": 62,
        "time": 45.5,
        "duration": 0.375,
        "velocity": 0.54,
        "hand": "right"
      },
      {
        "midi": 65,
        "time": 45.5,
        "duration": 0.485,
        "velocity": 0.56,
        "hand": "right"
      },
      {
        "midi": 67,
        "time": 45.5,
        "duration": 0.063,
        "velocity": 0.52,
        "hand": "right"
      },
      {
        "midi": 44,
        "time": 45.875,
        "duration": 0.063,
        "velocity": 0.61,
        "hand": "left"
      },
      {
        "midi": 38,
        "time": 46,
        "duration": 0.063,
        "velocity": 0.91,
        "hand": "left"
      },
      {
        "midi": 44,
        "time": 46,
        "duration": 0.063,
        "velocity": 0.61,
        "hand": "left"
      },
      {
        "midi": 63,
        "time": 46,
        "duration": 0.25,
        "velocity": 0.48,
        "hand": "right"
      },
      {
        "midi": 65,
        "time": 46,
        "duration": 0.25,
        "velocity": 0.52,
        "hand": "right"
      },
      {
        "midi": 43,
        "time": 46.25,
        "duration": 0.25,
        "velocity": 0.94,
        "hand": "left"
      },
      {
        "midi": 62,
        "time": 46.25,
        "duration": 0.235,
        "velocity": 0.57,
        "hand": "right"
      },
      {
        "midi": 44,
        "time": 46.375,
        "duration": 0.063,
        "velocity": 0.61,
        "hand": "left"
      },
      {
        "midi": 36,
        "time": 46.5,
        "duration": 0.5,
        "velocity": 0.94,
        "hand": "left"
      },
      {
        "midi": 47,
        "time": 46.5,
        "duration": 0.063,
        "velocity": 0.75,
        "hand": "left"
      },
      {
        "midi": 63,
        "time": 46.5,
        "duration": 0.25,
        "velocity": 0.54,
        "hand": "right"
      },
      {
        "midi": 65,
        "time": 46.5,
        "duration": 0.25,
        "velocity": 0.57,
        "hand": "right"
      },
      {
        "midi": 67,
        "time": 46.5,
        "duration": 0.125,
        "velocity": 0.49,
        "hand": "right"
      },
      {
        "midi": 60,
        "time": 46.75,
        "duration": 0.125,
        "velocity": 0.24,
        "hand": "right"
      },
      {
        "midi": 38,
        "time": 46.875,
        "duration": 0.063,
        "velocity": 0.91,
        "hand": "left"
      },
      {
        "midi": 44,
        "time": 46.875,
        "duration": 0.063,
        "velocity": 0.61,
        "hand": "left"
      },
      {
        "midi": 38,
        "time": 47,
        "duration": 0.485,
        "velocity": 0.91,
        "hand": "left"
      },
      {
        "midi": 44,
        "time": 47,
        "duration": 0.063,
        "velocity": 0.61,
        "hand": "left"
      },
      {
        "midi": 60,
        "time": 47,
        "duration": 0.25,
        "velocity": 0.59,
        "hand": "right"
      },
      {
        "midi": 62,
        "time": 47,
        "duration": 0.375,
        "velocity": 0.72,
        "hand": "right"
      },
      {
        "midi": 65,
        "time": 47,
        "duration": 0.375,
        "velocity": 0.53,
        "hand": "right"
      },
      {
        "midi": 39,
        "time": 47.25,
        "duration": 0.063,
        "velocity": 0.91,
        "hand": "left"
      },
      {
        "midi": 44,
        "time": 47.375,
        "duration": 0.063,
        "velocity": 0.61,
        "hand": "left"
      },
      {
        "midi": 38,
        "time": 47.5,
        "duration": 0.063,
        "velocity": 0.93,
        "hand": "left"
      },
      {
        "midi": 44,
        "time": 47.5,
        "duration": 0.36,
        "velocity": 1,
        "hand": "left"
      },
      {
        "midi": 63,
        "time": 47.5,
        "duration": 0.375,
        "velocity": 0.94,
        "hand": "right"
      },
      {
        "midi": 39,
        "time": 47.75,
        "duration": 0.063,
        "velocity": 0.72,
        "hand": "left"
      },
      {
        "midi": 67,
        "time": 47.75,
        "duration": 0.125,
        "velocity": 0.65,
        "hand": "right"
      },
      {
        "midi": 44,
        "time": 47.875,
        "duration": 0.063,
        "velocity": 0.61,
        "hand": "left"
      },
      {
        "midi": 36,
        "time": 48,
        "duration": 1.25,
        "velocity": 0.97,
        "hand": "left"
      },
      {
        "midi": 47,
        "time": 48,
        "duration": 0.063,
        "velocity": 0.73,
        "hand": "left"
      },
      {
        "midi": 60,
        "time": 48,
        "duration": 0.36,
        "velocity": 0.88,
        "hand": "right"
      },
      {
        "midi": 63,
        "time": 48,
        "duration": 0.235,
        "velocity": 0.42,
        "hand": "right"
      },
      {
        "midi": 67,
        "time": 48,
        "duration": 0.36,
        "velocity": 0.63,
        "hand": "right"
      },
      {
        "midi": 54,
        "time": 48.25,
        "duration": 0.063,
        "velocity": 0.54,
        "hand": "left"
      },
      {
        "midi": 63,
        "time": 48.25,
        "duration": 0.11,
        "velocity": 0.8,
        "hand": "right"
      },
      {
        "midi": 51,
        "time": 48.375,
        "duration": 0.063,
        "velocity": 0.61,
        "hand": "left"
      },
      {
        "midi": 55,
        "time": 48.375,
        "duration": 0.063,
        "velocity": 0.43,
        "hand": "left"
      },
      {
        "midi": 60,
        "time": 48.375,
        "duration": 0.063,
        "velocity": 0.58,
        "hand": "right"
      },
      {
        "midi": 63,
        "time": 48.375,
        "duration": 0.063,
        "velocity": 0.54,
        "hand": "right"
      },
      {
        "midi": 67,
        "time": 48.375,
        "duration": 0.063,
        "velocity": 0.43,
        "hand": "right"
      },
      {
        "midi": 38,
        "time": 48.5,
        "duration": 0.063,
        "velocity": 0.83,
        "hand": "left"
      },
      {
        "midi": 51,
        "time": 48.5,
        "duration": 0.063,
        "velocity": 0.61,
        "hand": "left"
      },
      {
        "midi": 60,
        "time": 48.5,
        "duration": 0.375,
        "velocity": 0.77,
        "hand": "right"
      },
      {
        "midi": 63,
        "time": 48.5,
        "duration": 0.063,
        "velocity": 0.39,
        "hand": "right"
      },
      {
        "midi": 67,
        "time": 48.5,
        "duration": 0.125,
        "velocity": 0.48,
        "hand": "right"
      },
      {
        "midi": 55,
        "time": 48.75,
        "duration": 0.235,
        "velocity": 0.74,
        "hand": "left"
      },
      {
        "midi": 51,
        "time": 48.875,
        "duration": 0.063,
        "velocity": 0.61,
        "hand": "left"
      },
      {
        "midi": 38,
        "time": 49,
        "duration": 0.063,
        "velocity": 0.91,
        "hand": "left"
      },
      {
        "midi": 51,
        "time": 49,
        "duration": 0.063,
        "velocity": 0.61,
        "hand": "left"
      },
      {
        "midi": 60,
        "time": 49,
        "duration": 0.375,
        "velocity": 0.74,
        "hand": "right"
      },
      {
        "midi": 63,
        "time": 49,
        "duration": 0.235,
        "velocity": 0.89,
        "hand": "right"
      },
      {
        "midi": 67,
        "time": 49,
        "duration": 0.125,
        "velocity": 0.54,
        "hand": "right"
      },
      {
        "midi": 43,
        "time": 49.25,
        "duration": 0.125,
        "velocity": 0.94,
        "hand": "left"
      },
      {
        "midi": 54,
        "time": 49.25,
        "duration": 0.063,
        "velocity": 0.54,
        "hand": "left"
      },
      {
        "midi": 63,
        "time": 49.25,
        "duration": 0.125,
        "velocity": 0.51,
        "hand": "right"
      },
      {
        "midi": 67,
        "time": 49.25,
        "duration": 0.235,
        "velocity": 0.68,
        "hand": "right"
      },
      {
        "midi": 51,
        "time": 49.375,
        "duration": 0.063,
        "velocity": 0.61,
        "hand": "left"
      },
      {
        "midi": 36,
        "time": 49.5,
        "duration": 1,
        "velocity": 0.97,
        "hand": "left"
      },
      {
        "midi": 47,
        "time": 49.5,
        "duration": 0.063,
        "velocity": 0.72,
        "hand": "left"
      },
      {
        "midi": 60,
        "time": 49.5,
        "duration": 0.36,
        "velocity": 0.55,
        "hand": "right"
      },
      {
        "midi": 63,
        "time": 49.5,
        "duration": 0.36,
        "velocity": 0.46,
        "hand": "right"
      },
      {
        "midi": 67,
        "time": 49.5,
        "duration": 0.36,
        "velocity": 0.56,
        "hand": "right"
      },
      {
        "midi": 54,
        "time": 49.75,
        "duration": 0.063,
        "velocity": 0.54,
        "hand": "left"
      },
      {
        "midi": 38,
        "time": 49.875,
        "duration": 0.063,
        "velocity": 0.97,
        "hand": "left"
      },
      {
        "midi": 51,
        "time": 49.875,
        "duration": 0.063,
        "velocity": 0.61,
        "hand": "left"
      },
      {
        "midi": 60,
        "time": 49.875,
        "duration": 0.063,
        "velocity": 0.48,
        "hand": "right"
      },
      {
        "midi": 63,
        "time": 49.875,
        "duration": 0.063,
        "velocity": 0.46,
        "hand": "right"
      },
      {
        "midi": 67,
        "time": 49.875,
        "duration": 0.11,
        "velocity": 0.34,
        "hand": "right"
      },
      {
        "midi": 38,
        "time": 50,
        "duration": 0.063,
        "velocity": 0.7,
        "hand": "left"
      },
      {
        "midi": 51,
        "time": 50,
        "duration": 0.11,
        "velocity": 0.57,
        "hand": "left"
      },
      {
        "midi": 60,
        "time": 50,
        "duration": 0.063,
        "velocity": 0.44,
        "hand": "right"
      },
      {
        "midi": 63,
        "time": 50,
        "duration": 0.125,
        "velocity": 0.51,
        "hand": "right"
      },
      {
        "midi": 67,
        "time": 50,
        "duration": 0.125,
        "velocity": 0.28,
        "hand": "right"
      },
      {
        "midi": 51,
        "time": 50.125,
        "duration": 0.063,
        "velocity": 0.61,
        "hand": "left"
      },
      {
        "midi": 54,
        "time": 50.25,
        "duration": 0.063,
        "velocity": 0.54,
        "hand": "left"
      },
      {
        "midi": 51,
        "time": 50.375,
        "duration": 0.063,
        "velocity": 0.61,
        "hand": "left"
      },
      {
        "midi": 38,
        "time": 50.5,
        "duration": 0.063,
        "velocity": 0.9,
        "hand": "left"
      },
      {
        "midi": 43,
        "time": 50.5,
        "duration": 0.375,
        "velocity": 0.99,
        "hand": "left"
      },
      {
        "midi": 60,
        "time": 50.5,
        "duration": 0.25,
        "velocity": 0.72,
        "hand": "right"
      },
      {
        "midi": 63,
        "time": 50.5,
        "duration": 0.25,
        "velocity": 0.74,
        "hand": "right"
      },
      {
        "midi": 67,
        "time": 50.5,
        "duration": 0.25,
        "velocity": 0.91,
        "hand": "right"
      },
      {
        "midi": 55,
        "time": 50.75,
        "duration": 0.125,
        "velocity": 0.54,
        "hand": "left"
      },
      {
        "midi": 51,
        "time": 50.875,
        "duration": 0.063,
        "velocity": 0.61,
        "hand": "left"
      },
      {
        "midi": 67,
        "time": 50.875,
        "duration": 0.125,
        "velocity": 0.71,
        "hand": "right"
      },
      {
        "midi": 40,
        "time": 51,
        "duration": 1,
        "velocity": 0.98,
        "hand": "left"
      },
      {
        "midi": 43,
        "time": 51,
        "duration": 0.875,
        "velocity": 0.65,
        "hand": "left"
      },
      {
        "midi": 60,
        "time": 51,
        "duration": 0.36,
        "velocity": 0.72,
        "hand": "right"
      },
      {
        "midi": 64,
        "time": 51,
        "duration": 0.36,
        "velocity": 0.51,
        "hand": "right"
      },
      {
        "midi": 68,
        "time": 51,
        "duration": 0.375,
        "velocity": 0.67,
        "hand": "right"
      },
      {
        "midi": 54,
        "time": 51.25,
        "duration": 0.063,
        "velocity": 0.54,
        "hand": "left"
      },
      {
        "midi": 51,
        "time": 51.375,
        "duration": 0.063,
        "velocity": 0.61,
        "hand": "left"
      },
      {
        "midi": 55,
        "time": 51.375,
        "duration": 0.063,
        "velocity": 0.45,
        "hand": "left"
      },
      {
        "midi": 60,
        "time": 51.375,
        "duration": 0.063,
        "velocity": 0.51,
        "hand": "right"
      },
      {
        "midi": 64,
        "time": 51.375,
        "duration": 0.063,
        "velocity": 0.22,
        "hand": "right"
      },
      {
        "midi": 38,
        "time": 51.5,
        "duration": 0.063,
        "velocity": 0.8,
        "hand": "left"
      },
      {
        "midi": 46,
        "time": 51.5,
        "duration": 1,
        "velocity": 0.38,
        "hand": "left"
      },
      {
        "midi": 60,
        "time": 51.5,
        "duration": 0.063,
        "velocity": 0.57,
        "hand": "right"
      },
      {
        "midi": 64,
        "time": 51.5,
        "duration": 0.063,
        "velocity": 0.46,
        "hand": "right"
      },
      {
        "midi": 67,
        "time": 51.5,
        "duration": 0.5,
        "velocity": 0.68,
        "hand": "right"
      },
      {
        "midi": 54,
        "time": 51.75,
        "duration": 0.063,
        "velocity": 0.54,
        "hand": "left"
      },
      {
        "midi": 51,
        "time": 51.875,
        "duration": 0.063,
        "velocity": 0.61,
        "hand": "left"
      },
      {
        "midi": 38,
        "time": 52,
        "duration": 0.25,
        "velocity": 0.95,
        "hand": "left"
      },
      {
        "midi": 51,
        "time": 52,
        "duration": 0.063,
        "velocity": 0.61,
        "hand": "left"
      },
      {
        "midi": 60,
        "time": 52,
        "duration": 0.25,
        "velocity": 0.68,
        "hand": "right"
      },
      {
        "midi": 65,
        "time": 52,
        "duration": 0.25,
        "velocity": 0.77,
        "hand": "right"
      },
      {
        "midi": 36,
        "time": 52.25,
        "duration": 0.25,
        "velocity": 0.94,
        "hand": "left"
      },
      {
        "midi": 54,
        "time": 52.25,
        "duration": 0.063,
        "velocity": 0.54,
        "hand": "left"
      },
      {
        "midi": 64,
        "time": 52.25,
        "duration": 0.25,
        "velocity": 0.7,
        "hand": "right"
      },
      {
        "midi": 51,
        "time": 52.375,
        "duration": 0.063,
        "velocity": 0.61,
        "hand": "left"
      },
      {
        "midi": 41,
        "time": 52.5,
        "duration": 1.125,
        "velocity": 0.99,
        "hand": "left"
      },
      {
        "midi": 47,
        "time": 52.5,
        "duration": 0.063,
        "velocity": 0.75,
        "hand": "left"
      },
      {
        "midi": 65,
        "time": 52.5,
        "duration": 0.36,
        "velocity": 0.67,
        "hand": "right"
      },
      {
        "midi": 54,
        "time": 52.75,
        "duration": 0.063,
        "velocity": 0.54,
        "hand": "left"
      },
      {
        "midi": 60,
        "time": 52.75,
        "duration": 0.11,
        "velocity": 0.72,
        "hand": "right"
      },
      {
        "midi": 38,
        "time": 52.875,
        "duration": 0.063,
        "velocity": 0.97,
        "hand": "left"
      },
      {
        "midi": 51,
        "time": 52.875,
        "duration": 0.063,
        "velocity": 0.61,
        "hand": "left"
      },
      {
        "midi": 60,
        "time": 52.875,
        "duration": 0.11,
        "velocity": 0.48,
        "hand": "right"
      },
      {
        "midi": 63,
        "time": 52.875,
        "duration": 0.11,
        "velocity": 0.42,
        "hand": "right"
      },
      {
        "midi": 65,
        "time": 52.875,
        "duration": 0.11,
        "velocity": 0.46,
        "hand": "right"
      },
      {
        "midi": 38,
        "time": 53,
        "duration": 0.063,
        "velocity": 0.65,
        "hand": "left"
      },
      {
        "midi": 51,
        "time": 53,
        "duration": 0.063,
        "velocity": 0.61,
        "hand": "left"
      },
      {
        "midi": 60,
        "time": 53,
        "duration": 0.063,
        "velocity": 0.45,
        "hand": "right"
      },
      {
        "midi": 63,
        "time": 53,
        "duration": 0.485,
        "velocity": 0.56,
        "hand": "right"
      },
      {
        "midi": 65,
        "time": 53,
        "duration": 0.063,
        "velocity": 0.52,
        "hand": "right"
      },
      {
        "midi": 54,
        "time": 53.25,
        "duration": 0.063,
        "velocity": 0.54,
        "hand": "left"
      },
      {
        "midi": 65,
        "time": 53.25,
        "duration": 0.235,
        "velocity": 0.54,
        "hand": "right"
      },
      {
        "midi": 51,
        "time": 53.375,
        "duration": 0.063,
        "velocity": 0.61,
        "hand": "left"
      },
      {
        "midi": 36,
        "time": 53.5,
        "duration": 0.25,
        "velocity": 0.94,
        "hand": "left"
      },
      {
        "midi": 38,
        "time": 53.5,
        "duration": 0.063,
        "velocity": 0.91,
        "hand": "left"
      },
      {
        "midi": 60,
        "time": 53.5,
        "duration": 0.063,
        "velocity": 0.59,
        "hand": "right"
      },
      {
        "midi": 63,
        "time": 53.5,
        "duration": 0.125,
        "velocity": 0.54,
        "hand": "right"
      },
      {
        "midi": 65,
        "time": 53.5,
        "duration": 0.125,
        "velocity": 0.5,
        "hand": "right"
      },
      {
        "midi": 67,
        "time": 53.5,
        "duration": 0.25,
        "velocity": 0.89,
        "hand": "right"
      },
      {
        "midi": 48,
        "time": 53.625,
        "duration": 0.375,
        "velocity": 0.48,
        "hand": "left"
      },
      {
        "midi": 41,
        "time": 53.75,
        "duration": 0.125,
        "velocity": 0.91,
        "hand": "left"
      },
      {
        "midi": 44,
        "time": 53.75,
        "duration": 0.25,
        "velocity": 0.44,
        "hand": "left"
      },
      {
        "midi": 60,
        "time": 53.75,
        "duration": 0.25,
        "velocity": 0.59,
        "hand": "right"
      },
      {
        "midi": 51,
        "time": 53.875,
        "duration": 0.063,
        "velocity": 0.61,
        "hand": "left"
      },
      {
        "midi": 67,
        "time": 53.875,
        "duration": 0.125,
        "velocity": 0.72,
        "hand": "right"
      },
      {
        "midi": 41,
        "time": 54,
        "duration": 0.985,
        "velocity": 0.52,
        "hand": "left"
      },
      {
        "midi": 46,
        "time": 54,
        "duration": 1,
        "velocity": 1,
        "hand": "left"
      },
      {
        "midi": 65,
        "time": 54,
        "duration": 0.36,
        "velocity": 0.57,
        "hand": "right"
      },
      {
        "midi": 70,
        "time": 54,
        "duration": 0.375,
        "velocity": 0.81,
        "hand": "right"
      },
      {
        "midi": 54,
        "time": 54.25,
        "duration": 0.063,
        "velocity": 0.54,
        "hand": "left"
      },
      {
        "midi": 63,
        "time": 54.25,
        "duration": 0.11,
        "velocity": 0.56,
        "hand": "right"
      },
      {
        "midi": 51,
        "time": 54.375,
        "duration": 0.063,
        "velocity": 0.61,
        "hand": "left"
      },
      {
        "midi": 56,
        "time": 54.375,
        "duration": 0.063,
        "velocity": 0.5,
        "hand": "left"
      },
      {
        "midi": 60,
        "time": 54.375,
        "duration": 0.063,
        "velocity": 0.54,
        "hand": "right"
      },
      {
        "midi": 63,
        "time": 54.375,
        "duration": 0.063,
        "velocity": 0.5,
        "hand": "right"
      },
      {
        "midi": 65,
        "time": 54.375,
        "duration": 0.063,
        "velocity": 0.44,
        "hand": "right"
      },
      {
        "midi": 38,
        "time": 54.5,
        "duration": 0.063,
        "velocity": 0.9,
        "hand": "left"
      },
      {
        "midi": 51,
        "time": 54.5,
        "duration": 0.063,
        "velocity": 0.61,
        "hand": "left"
      },
      {
        "midi": 60,
        "time": 54.5,
        "duration": 0.375,
        "velocity": 0.56,
        "hand": "right"
      },
      {
        "midi": 63,
        "time": 54.5,
        "duration": 0.063,
        "velocity": 0.49,
        "hand": "right"
      },
      {
        "midi": 65,
        "time": 54.5,
        "duration": 0.063,
        "velocity": 0.5,
        "hand": "right"
      },
      {
        "midi": 68,
        "time": 54.5,
        "duration": 0.5,
        "velocity": 0.77,
        "hand": "right"
      },
      {
        "midi": 54,
        "time": 54.75,
        "duration": 0.063,
        "velocity": 0.54,
        "hand": "left"
      },
      {
        "midi": 56,
        "time": 54.75,
        "duration": 0.235,
        "velocity": 0.72,
        "hand": "left"
      },
      {
        "midi": 51,
        "time": 54.875,
        "duration": 0.063,
        "velocity": 0.61,
        "hand": "left"
      },
      {
        "midi": 38,
        "time": 55,
        "duration": 0.063,
        "velocity": 0.9,
        "hand": "left"
      },
      {
        "midi": 41,
        "time": 55,
        "duration": 0.25,
        "velocity": 0.91,
        "hand": "left"
      },
      {
        "midi": 60,
        "time": 55,
        "duration": 0.375,
        "velocity": 0.64,
        "hand": "right"
      },
      {
        "midi": 63,
        "time": 55,
        "duration": 0.375,
        "velocity": 0.52,
        "hand": "right"
      },
      {
        "midi": 65,
        "time": 55,
        "duration": 0.235,
        "velocity": 0.52,
        "hand": "right"
      },
      {
        "midi": 67,
        "time": 55,
        "duration": 0.25,
        "velocity": 0.77,
        "hand": "right"
      },
      {
        "midi": 46,
        "time": 55.25,
        "duration": 0.25,
        "velocity": 1,
        "hand": "left"
      },
      {
        "midi": 54,
        "time": 55.25,
        "duration": 0.063,
        "velocity": 0.54,
        "hand": "left"
      },
      {
        "midi": 65,
        "time": 55.25,
        "duration": 0.25,
        "velocity": 0.72,
        "hand": "right"
      },
      {
        "midi": 51,
        "time": 55.375,
        "duration": 0.063,
        "velocity": 0.61,
        "hand": "left"
      },
      {
        "midi": 36,
        "time": 55.5,
        "duration": 1,
        "velocity": 0.95,
        "hand": "left"
      },
      {
        "midi": 47,
        "time": 55.5,
        "duration": 0.063,
        "velocity": 0.81,
        "hand": "left"
      },
      {
        "midi": 60,
        "time": 55.5,
        "duration": 0.36,
        "velocity": 0.56,
        "hand": "right"
      },
      {
        "midi": 63,
        "time": 55.5,
        "duration": 0.36,
        "velocity": 0.55,
        "hand": "right"
      },
      {
        "midi": 68,
        "time": 55.5,
        "duration": 0.375,
        "velocity": 0.87,
        "hand": "right"
      },
      {
        "midi": 55,
        "time": 55.625,
        "duration": 0.235,
        "velocity": 0.31,
        "hand": "left"
      },
      {
        "midi": 51,
        "time": 55.75,
        "duration": 0.11,
        "velocity": 0.35,
        "hand": "left"
      },
      {
        "midi": 54,
        "time": 55.75,
        "duration": 0.063,
        "velocity": 0.54,
        "hand": "left"
      },
      {
        "midi": 38,
        "time": 55.875,
        "duration": 0.063,
        "velocity": 0.97,
        "hand": "left"
      },
      {
        "midi": 51,
        "time": 55.875,
        "duration": 0.063,
        "velocity": 0.61,
        "hand": "left"
      },
      {
        "midi": 60,
        "time": 55.875,
        "duration": 0.063,
        "velocity": 0.52,
        "hand": "right"
      },
      {
        "midi": 63,
        "time": 55.875,
        "duration": 0.063,
        "velocity": 0.46,
        "hand": "right"
      },
      {
        "midi": 67,
        "time": 55.875,
        "duration": 0.063,
        "velocity": 0.4,
        "hand": "right"
      },
      {
        "midi": 38,
        "time": 56,
        "duration": 0.063,
        "velocity": 0.69,
        "hand": "left"
      },
      {
        "midi": 51,
        "time": 56,
        "duration": 0.063,
        "velocity": 0.61,
        "hand": "left"
      },
      {
        "midi": 60,
        "time": 56,
        "duration": 0.375,
        "velocity": 0.58,
        "hand": "right"
      },
      {
        "midi": 63,
        "time": 56,
        "duration": 0.375,
        "velocity": 0.54,
        "hand": "right"
      },
      {
        "midi": 67,
        "time": 56,
        "duration": 0.485,
        "velocity": 0.69,
        "hand": "right"
      },
      {
        "midi": 54,
        "time": 56.25,
        "duration": 0.063,
        "velocity": 0.54,
        "hand": "left"
      },
      {
        "midi": 51,
        "time": 56.375,
        "duration": 0.063,
        "velocity": 0.61,
        "hand": "left"
      },
      {
        "midi": 38,
        "time": 56.5,
        "duration": 0.063,
        "velocity": 0.91,
        "hand": "left"
      },
      {
        "midi": 46,
        "time": 56.5,
        "duration": 0.25,
        "velocity": 0.96,
        "hand": "left"
      },
      {
        "midi": 60,
        "time": 56.5,
        "duration": 0.25,
        "velocity": 0.65,
        "hand": "right"
      },
      {
        "midi": 63,
        "time": 56.5,
        "duration": 0.25,
        "velocity": 0.59,
        "hand": "right"
      },
      {
        "midi": 67,
        "time": 56.5,
        "duration": 0.25,
        "velocity": 0.86,
        "hand": "right"
      },
      {
        "midi": 45,
        "time": 56.75,
        "duration": 0.25,
        "velocity": 0.97,
        "hand": "left"
      },
      {
        "midi": 54,
        "time": 56.75,
        "duration": 0.063,
        "velocity": 0.54,
        "hand": "left"
      },
      {
        "midi": 51,
        "time": 56.875,
        "duration": 0.063,
        "velocity": 0.61,
        "hand": "left"
      },
      {
        "midi": 68,
        "time": 56.875,
        "duration": 0.125,
        "velocity": 0.62,
        "hand": "right"
      },
      {
        "midi": 43,
        "time": 57,
        "duration": 1.235,
        "velocity": 1,
        "hand": "left"
      },
      {
        "midi": 47,
        "time": 57,
        "duration": 0.063,
        "velocity": 0.73,
        "hand": "left"
      },
      {
        "midi": 62,
        "time": 57,
        "duration": 0.36,
        "velocity": 0.65,
        "hand": "right"
      },
      {
        "midi": 67,
        "time": 57,
        "duration": 0.485,
        "velocity": 0.72,
        "hand": "right"
      },
      {
        "midi": 54,
        "time": 57.25,
        "duration": 0.063,
        "velocity": 0.54,
        "hand": "left"
      },
      {
        "midi": 51,
        "time": 57.375,
        "duration": 0.063,
        "velocity": 0.61,
        "hand": "left"
      },
      {
        "midi": 55,
        "time": 57.375,
        "duration": 0.063,
        "velocity": 0.48,
        "hand": "left"
      },
      {
        "midi": 62,
        "time": 57.375,
        "duration": 0.11,
        "velocity": 0.56,
        "hand": "right"
      },
      {
        "midi": 38,
        "time": 57.5,
        "duration": 0.485,
        "velocity": 0.86,
        "hand": "left"
      },
      {
        "midi": 51,
        "time": 57.5,
        "duration": 0.063,
        "velocity": 0.61,
        "hand": "left"
      },
      {
        "midi": 62,
        "time": 57.5,
        "duration": 0.375,
        "velocity": 0.54,
        "hand": "right"
      },
      {
        "midi": 65,
        "time": 57.5,
        "duration": 0.485,
        "velocity": 0.72,
        "hand": "right"
      },
      {
        "midi": 67,
        "time": 57.5,
        "duration": 0.063,
        "velocity": 0.52,
        "hand": "right"
      },
      {
        "midi": 54,
        "time": 57.75,
        "duration": 0.063,
        "velocity": 0.54,
        "hand": "left"
      },
      {
        "midi": 51,
        "time": 57.875,
        "duration": 0.063,
        "velocity": 0.61,
        "hand": "left"
      },
      {
        "midi": 38,
        "time": 58,
        "duration": 0.063,
        "velocity": 0.91,
        "hand": "left"
      },
      {
        "midi": 47,
        "time": 58,
        "duration": 0.25,
        "velocity": 0.94,
        "hand": "left"
      },
      {
        "midi": 63,
        "time": 58,
        "duration": 0.25,
        "velocity": 0.64,
        "hand": "right"
      },
      {
        "midi": 65,
        "time": 58,
        "duration": 0.25,
        "velocity": 0.52,
        "hand": "right"
      },
      {
        "midi": 43,
        "time": 58.25,
        "duration": 0.25,
        "velocity": 0.94,
        "hand": "left"
      },
      {
        "midi": 54,
        "time": 58.25,
        "duration": 0.063,
        "velocity": 0.54,
        "hand": "left"
      },
      {
        "midi": 62,
        "time": 58.25,
        "duration": 0.235,
        "velocity": 0.72,
        "hand": "right"
      },
      {
        "midi": 51,
        "time": 58.375,
        "duration": 0.063,
        "velocity": 0.61,
        "hand": "left"
      },
      {
        "midi": 36,
        "time": 58.5,
        "duration": 0.5,
        "velocity": 0.94,
        "hand": "left"
      },
      {
        "midi": 47,
        "time": 58.5,
        "duration": 0.063,
        "velocity": 0.72,
        "hand": "left"
      },
      {
        "midi": 63,
        "time": 58.5,
        "duration": 0.625,
        "velocity": 0.54,
        "hand": "right"
      },
      {
        "midi": 65,
        "time": 58.5,
        "duration": 0.25,
        "velocity": 0.57,
        "hand": "right"
      },
      {
        "midi": 67,
        "time": 58.5,
        "duration": 0.125,
        "velocity": 0.49,
        "hand": "right"
      },
      {
        "midi": 54,
        "time": 58.75,
        "duration": 0.063,
        "velocity": 0.54,
        "hand": "left"
      },
      {
        "midi": 60,
        "time": 58.75,
        "duration": 0.125,
        "velocity": 0.24,
        "hand": "right"
      },
      {
        "midi": 38,
        "time": 58.875,
        "duration": 0.063,
        "velocity": 0.91,
        "hand": "left"
      },
      {
        "midi": 51,
        "time": 58.875,
        "duration": 0.063,
        "velocity": 0.61,
        "hand": "left"
      },
      {
        "midi": 39,
        "time": 59,
        "duration": 0.063,
        "velocity": 0.94,
        "hand": "left"
      },
      {
        "midi": 60,
        "time": 59,
        "duration": 0.25,
        "velocity": 0.59,
        "hand": "right"
      },
      {
        "midi": 62,
        "time": 59,
        "duration": 0.375,
        "velocity": 0.72,
        "hand": "right"
      },
      {
        "midi": 65,
        "time": 59,
        "duration": 0.375,
        "velocity": 0.53,
        "hand": "right"
      },
      {
        "midi": 51,
        "time": 59.125,
        "duration": 0.063,
        "velocity": 0.61,
        "hand": "left"
      },
      {
        "midi": 54,
        "time": 59.25,
        "duration": 0.063,
        "velocity": 0.54,
        "hand": "left"
      },
      {
        "midi": 38,
        "time": 59.375,
        "duration": 0.063,
        "velocity": 0.87,
        "hand": "left"
      },
      {
        "midi": 51,
        "time": 59.375,
        "duration": 0.063,
        "velocity": 0.61,
        "hand": "left"
      },
      {
        "midi": 41,
        "time": 59.5,
        "duration": 0.063,
        "velocity": 0.81,
        "hand": "left"
      },
      {
        "midi": 44,
        "time": 59.5,
        "duration": 0.5,
        "velocity": 1,
        "hand": "left"
      },
      {
        "midi": 63,
        "time": 59.5,
        "duration": 0.375,
        "velocity": 0.94,
        "hand": "right"
      },
      {
        "midi": 54,
        "time": 59.75,
        "duration": 0.063,
        "velocity": 0.54,
        "hand": "left"
      },
      {
        "midi": 67,
        "time": 59.75,
        "duration": 0.125,
        "velocity": 0.65,
        "hand": "right"
      },
      {
        "midi": 38,
        "time": 59.875,
        "duration": 0.063,
        "velocity": 0.96,
        "hand": "left"
      },
      {
        "midi": 51,
        "time": 59.875,
        "duration": 0.063,
        "velocity": 0.61,
        "hand": "left"
      },
      {
        "midi": 36,
        "time": 60,
        "duration": 1.25,
        "velocity": 0.97,
        "hand": "left"
      },
      {
        "midi": 47,
        "time": 60,
        "duration": 0.063,
        "velocity": 0.77,
        "hand": "left"
      },
      {
        "midi": 60,
        "time": 60,
        "duration": 0.36,
        "velocity": 0.88,
        "hand": "right"
      },
      {
        "midi": 63,
        "time": 60,
        "duration": 0.235,
        "velocity": 0.46,
        "hand": "right"
      },
      {
        "midi": 67,
        "time": 60,
        "duration": 0.36,
        "velocity": 0.63,
        "hand": "right"
      },
      {
        "midi": 79,
        "time": 60,
        "duration": 0.875,
        "velocity": 0.76,
        "hand": "right"
      },
      {
        "midi": 54,
        "time": 60.25,
        "duration": 0.063,
        "velocity": 0.54,
        "hand": "left"
      },
      {
        "midi": 63,
        "time": 60.25,
        "duration": 0.11,
        "velocity": 0.8,
        "hand": "right"
      },
      {
        "midi": 51,
        "time": 60.375,
        "duration": 0.063,
        "velocity": 0.61,
        "hand": "left"
      },
      {
        "midi": 55,
        "time": 60.375,
        "duration": 0.063,
        "velocity": 0.43,
        "hand": "left"
      },
      {
        "midi": 60,
        "time": 60.375,
        "duration": 0.063,
        "velocity": 0.58,
        "hand": "right"
      },
      {
        "midi": 63,
        "time": 60.375,
        "duration": 0.063,
        "velocity": 0.54,
        "hand": "right"
      },
      {
        "midi": 67,
        "time": 60.375,
        "duration": 0.063,
        "velocity": 0.43,
        "hand": "right"
      },
      {
        "midi": 38,
        "time": 60.5,
        "duration": 0.063,
        "velocity": 0.8,
        "hand": "left"
      },
      {
        "midi": 51,
        "time": 60.5,
        "duration": 0.063,
        "velocity": 0.61,
        "hand": "left"
      },
      {
        "midi": 60,
        "time": 60.5,
        "duration": 0.375,
        "velocity": 0.77,
        "hand": "right"
      },
      {
        "midi": 63,
        "time": 60.5,
        "duration": 0.063,
        "velocity": 0.39,
        "hand": "right"
      },
      {
        "midi": 67,
        "time": 60.5,
        "duration": 0.125,
        "velocity": 0.48,
        "hand": "right"
      },
      {
        "midi": 55,
        "time": 60.75,
        "duration": 0.235,
        "velocity": 0.74,
        "hand": "left"
      },
      {
        "midi": 51,
        "time": 60.875,
        "duration": 0.063,
        "velocity": 0.61,
        "hand": "left"
      },
      {
        "midi": 38,
        "time": 61,
        "duration": 0.063,
        "velocity": 0.91,
        "hand": "left"
      },
      {
        "midi": 51,
        "time": 61,
        "duration": 0.063,
        "velocity": 0.61,
        "hand": "left"
      },
      {
        "midi": 60,
        "time": 61,
        "duration": 0.375,
        "velocity": 0.74,
        "hand": "right"
      },
      {
        "midi": 63,
        "time": 61,
        "duration": 0.235,
        "velocity": 0.89,
        "hand": "right"
      },
      {
        "midi": 67,
        "time": 61,
        "duration": 0.125,
        "velocity": 0.54,
        "hand": "right"
      },
      {
        "midi": 82,
        "time": 61,
        "duration": 0.375,
        "velocity": 0.65,
        "hand": "right"
      },
      {
        "midi": 43,
        "time": 61.25,
        "duration": 0.125,
        "velocity": 0.94,
        "hand": "left"
      },
      {
        "midi": 54,
        "time": 61.25,
        "duration": 0.063,
        "velocity": 0.54,
        "hand": "left"
      },
      {
        "midi": 63,
        "time": 61.25,
        "duration": 0.125,
        "velocity": 0.51,
        "hand": "right"
      },
      {
        "midi": 67,
        "time": 61.25,
        "duration": 0.235,
        "velocity": 0.68,
        "hand": "right"
      },
      {
        "midi": 51,
        "time": 61.375,
        "duration": 0.063,
        "velocity": 0.61,
        "hand": "left"
      },
      {
        "midi": 36,
        "time": 61.5,
        "duration": 1,
        "velocity": 0.97,
        "hand": "left"
      },
      {
        "midi": 47,
        "time": 61.5,
        "duration": 0.063,
        "velocity": 0.75,
        "hand": "left"
      },
      {
        "midi": 60,
        "time": 61.5,
        "duration": 0.36,
        "velocity": 0.55,
        "hand": "right"
      },
      {
        "midi": 63,
        "time": 61.5,
        "duration": 0.36,
        "velocity": 0.46,
        "hand": "right"
      },
      {
        "midi": 67,
        "time": 61.5,
        "duration": 0.36,
        "velocity": 0.56,
        "hand": "right"
      },
      {
        "midi": 80,
        "time": 61.5,
        "duration": 0.5,
        "velocity": 0.76,
        "hand": "right"
      },
      {
        "midi": 54,
        "time": 61.75,
        "duration": 0.063,
        "velocity": 0.54,
        "hand": "left"
      },
      {
        "midi": 38,
        "time": 61.875,
        "duration": 0.063,
        "velocity": 0.97,
        "hand": "left"
      },
      {
        "midi": 51,
        "time": 61.875,
        "duration": 0.063,
        "velocity": 0.61,
        "hand": "left"
      },
      {
        "midi": 60,
        "time": 61.875,
        "duration": 0.063,
        "velocity": 0.48,
        "hand": "right"
      },
      {
        "midi": 63,
        "time": 61.875,
        "duration": 0.063,
        "velocity": 0.46,
        "hand": "right"
      },
      {
        "midi": 67,
        "time": 61.875,
        "duration": 0.11,
        "velocity": 0.34,
        "hand": "right"
      },
      {
        "midi": 38,
        "time": 62,
        "duration": 0.063,
        "velocity": 0.65,
        "hand": "left"
      },
      {
        "midi": 51,
        "time": 62,
        "duration": 0.36,
        "velocity": 0.61,
        "hand": "left"
      },
      {
        "midi": 60,
        "time": 62,
        "duration": 0.063,
        "velocity": 0.44,
        "hand": "right"
      },
      {
        "midi": 63,
        "time": 62,
        "duration": 0.125,
        "velocity": 0.51,
        "hand": "right"
      },
      {
        "midi": 67,
        "time": 62,
        "duration": 0.125,
        "velocity": 0.28,
        "hand": "right"
      },
      {
        "midi": 79,
        "time": 62,
        "duration": 0.5,
        "velocity": 0.74,
        "hand": "right"
      },
      {
        "midi": 54,
        "time": 62.25,
        "duration": 0.063,
        "velocity": 0.54,
        "hand": "left"
      },
      {
        "midi": 51,
        "time": 62.375,
        "duration": 0.063,
        "velocity": 0.61,
        "hand": "left"
      },
      {
        "midi": 38,
        "time": 62.5,
        "duration": 0.063,
        "velocity": 0.91,
        "hand": "left"
      },
      {
        "midi": 43,
        "time": 62.5,
        "duration": 0.375,
        "velocity": 0.99,
        "hand": "left"
      },
      {
        "midi": 60,
        "time": 62.5,
        "duration": 0.25,
        "velocity": 0.72,
        "hand": "right"
      },
      {
        "midi": 63,
        "time": 62.5,
        "duration": 0.25,
        "velocity": 0.74,
        "hand": "right"
      },
      {
        "midi": 67,
        "time": 62.5,
        "duration": 0.25,
        "velocity": 0.91,
        "hand": "right"
      },
      {
        "midi": 77,
        "time": 62.5,
        "duration": 0.5,
        "velocity": 0.72,
        "hand": "right"
      },
      {
        "midi": 55,
        "time": 62.75,
        "duration": 0.125,
        "velocity": 0.54,
        "hand": "left"
      },
      {
        "midi": 51,
        "time": 62.875,
        "duration": 0.063,
        "velocity": 0.61,
        "hand": "left"
      },
      {
        "midi": 67,
        "time": 62.875,
        "duration": 0.125,
        "velocity": 0.71,
        "hand": "right"
      },
      {
        "midi": 40,
        "time": 63,
        "duration": 1,
        "velocity": 0.98,
        "hand": "left"
      },
      {
        "midi": 43,
        "time": 63,
        "duration": 0.875,
        "velocity": 0.65,
        "hand": "left"
      },
      {
        "midi": 60,
        "time": 63,
        "duration": 0.36,
        "velocity": 0.72,
        "hand": "right"
      },
      {
        "midi": 64,
        "time": 63,
        "duration": 0.36,
        "velocity": 0.51,
        "hand": "right"
      },
      {
        "midi": 68,
        "time": 63,
        "duration": 0.375,
        "velocity": 0.67,
        "hand": "right"
      },
      {
        "midi": 76,
        "time": 63,
        "duration": 0.5,
        "velocity": 0.74,
        "hand": "right"
      },
      {
        "midi": 54,
        "time": 63.25,
        "duration": 0.063,
        "velocity": 0.54,
        "hand": "left"
      },
      {
        "midi": 51,
        "time": 63.375,
        "duration": 0.063,
        "velocity": 0.61,
        "hand": "left"
      },
      {
        "midi": 55,
        "time": 63.375,
        "duration": 0.063,
        "velocity": 0.45,
        "hand": "left"
      },
      {
        "midi": 60,
        "time": 63.375,
        "duration": 0.063,
        "velocity": 0.51,
        "hand": "right"
      },
      {
        "midi": 64,
        "time": 63.375,
        "duration": 0.063,
        "velocity": 0.22,
        "hand": "right"
      },
      {
        "midi": 38,
        "time": 63.5,
        "duration": 0.063,
        "velocity": 0.9,
        "hand": "left"
      },
      {
        "midi": 46,
        "time": 63.5,
        "duration": 1,
        "velocity": 0.38,
        "hand": "left"
      },
      {
        "midi": 60,
        "time": 63.5,
        "duration": 0.063,
        "velocity": 0.57,
        "hand": "right"
      },
      {
        "midi": 64,
        "time": 63.5,
        "duration": 0.063,
        "velocity": 0.46,
        "hand": "right"
      },
      {
        "midi": 67,
        "time": 63.5,
        "duration": 0.5,
        "velocity": 0.68,
        "hand": "right"
      },
      {
        "midi": 77,
        "time": 63.5,
        "duration": 0.5,
        "velocity": 0.75,
        "hand": "right"
      },
      {
        "midi": 54,
        "time": 63.75,
        "duration": 0.063,
        "velocity": 0.54,
        "hand": "left"
      },
      {
        "midi": 51,
        "time": 63.875,
        "duration": 0.063,
        "velocity": 0.61,
        "hand": "left"
      },
      {
        "midi": 38,
        "time": 64,
        "duration": 0.25,
        "velocity": 0.95,
        "hand": "left"
      },
      {
        "midi": 51,
        "time": 64,
        "duration": 0.063,
        "velocity": 0.61,
        "hand": "left"
      },
      {
        "midi": 60,
        "time": 64,
        "duration": 0.25,
        "velocity": 0.68,
        "hand": "right"
      },
      {
        "midi": 65,
        "time": 64,
        "duration": 0.25,
        "velocity": 0.77,
        "hand": "right"
      },
      {
        "midi": 79,
        "time": 64,
        "duration": 0.375,
        "velocity": 0.72,
        "hand": "right"
      },
      {
        "midi": 36,
        "time": 64.25,
        "duration": 0.25,
        "velocity": 0.94,
        "hand": "left"
      },
      {
        "midi": 54,
        "time": 64.25,
        "duration": 0.063,
        "velocity": 0.54,
        "hand": "left"
      },
      {
        "midi": 64,
        "time": 64.25,
        "duration": 0.25,
        "velocity": 0.7,
        "hand": "right"
      },
      {
        "midi": 51,
        "time": 64.375,
        "duration": 0.063,
        "velocity": 0.61,
        "hand": "left"
      },
      {
        "midi": 41,
        "time": 64.5,
        "duration": 1.125,
        "velocity": 0.99,
        "hand": "left"
      },
      {
        "midi": 47,
        "time": 64.5,
        "duration": 0.063,
        "velocity": 0.81,
        "hand": "left"
      },
      {
        "midi": 65,
        "time": 64.5,
        "duration": 0.36,
        "velocity": 0.67,
        "hand": "right"
      },
      {
        "midi": 82,
        "time": 64.5,
        "duration": 0.5,
        "velocity": 0.68,
        "hand": "right"
      },
      {
        "midi": 54,
        "time": 64.75,
        "duration": 0.063,
        "velocity": 0.54,
        "hand": "left"
      },
      {
        "midi": 60,
        "time": 64.75,
        "duration": 0.11,
        "velocity": 0.72,
        "hand": "right"
      },
      {
        "midi": 38,
        "time": 64.875,
        "duration": 0.063,
        "velocity": 0.97,
        "hand": "left"
      },
      {
        "midi": 51,
        "time": 64.875,
        "duration": 0.063,
        "velocity": 0.61,
        "hand": "left"
      },
      {
        "midi": 60,
        "time": 64.875,
        "duration": 0.11,
        "velocity": 0.48,
        "hand": "right"
      },
      {
        "midi": 63,
        "time": 64.875,
        "duration": 0.11,
        "velocity": 0.42,
        "hand": "right"
      },
      {
        "midi": 65,
        "time": 64.875,
        "duration": 0.11,
        "velocity": 0.46,
        "hand": "right"
      },
      {
        "midi": 38,
        "time": 65,
        "duration": 0.063,
        "velocity": 0.69,
        "hand": "left"
      },
      {
        "midi": 51,
        "time": 65,
        "duration": 0.063,
        "velocity": 0.61,
        "hand": "left"
      },
      {
        "midi": 60,
        "time": 65,
        "duration": 0.063,
        "velocity": 0.45,
        "hand": "right"
      },
      {
        "midi": 63,
        "time": 65,
        "duration": 0.485,
        "velocity": 0.56,
        "hand": "right"
      },
      {
        "midi": 65,
        "time": 65,
        "duration": 0.063,
        "velocity": 0.52,
        "hand": "right"
      },
      {
        "midi": 80,
        "time": 65,
        "duration": 0.875,
        "velocity": 0.57,
        "hand": "right"
      },
      {
        "midi": 54,
        "time": 65.25,
        "duration": 0.063,
        "velocity": 0.54,
        "hand": "left"
      },
      {
        "midi": 65,
        "time": 65.25,
        "duration": 0.235,
        "velocity": 0.54,
        "hand": "right"
      },
      {
        "midi": 51,
        "time": 65.375,
        "duration": 0.063,
        "velocity": 0.61,
        "hand": "left"
      },
      {
        "midi": 36,
        "time": 65.5,
        "duration": 0.25,
        "velocity": 0.94,
        "hand": "left"
      },
      {
        "midi": 38,
        "time": 65.5,
        "duration": 0.063,
        "velocity": 0.91,
        "hand": "left"
      },
      {
        "midi": 60,
        "time": 65.5,
        "duration": 0.063,
        "velocity": 0.59,
        "hand": "right"
      },
      {
        "midi": 63,
        "time": 65.5,
        "duration": 0.125,
        "velocity": 0.54,
        "hand": "right"
      },
      {
        "midi": 65,
        "time": 65.5,
        "duration": 0.125,
        "velocity": 0.5,
        "hand": "right"
      },
      {
        "midi": 67,
        "time": 65.5,
        "duration": 0.25,
        "velocity": 0.89,
        "hand": "right"
      },
      {
        "midi": 48,
        "time": 65.625,
        "duration": 0.375,
        "velocity": 0.48,
        "hand": "left"
      },
      {
        "midi": 41,
        "time": 65.75,
        "duration": 0.125,
        "velocity": 0.91,
        "hand": "left"
      },
      {
        "midi": 44,
        "time": 65.75,
        "duration": 0.25,
        "velocity": 0.44,
        "hand": "left"
      },
      {
        "midi": 60,
        "time": 65.75,
        "duration": 0.25,
        "velocity": 0.59,
        "hand": "right"
      },
      {
        "midi": 51,
        "time": 65.875,
        "duration": 0.063,
        "velocity": 0.61,
        "hand": "left"
      },
      {
        "midi": 67,
        "time": 65.875,
        "duration": 0.125,
        "velocity": 0.72,
        "hand": "right"
      },
      {
        "midi": 41,
        "time": 66,
        "duration": 0.985,
        "velocity": 0.52,
        "hand": "left"
      },
      {
        "midi": 46,
        "time": 66,
        "duration": 1,
        "velocity": 1,
        "hand": "left"
      },
      {
        "midi": 65,
        "time": 66,
        "duration": 0.36,
        "velocity": 0.57,
        "hand": "right"
      },
      {
        "midi": 70,
        "time": 66,
        "duration": 0.375,
        "velocity": 0.81,
        "hand": "right"
      },
      {
        "midi": 80,
        "time": 66,
        "duration": 0.5,
        "velocity": 0.73,
        "hand": "right"
      },
      {
        "midi": 54,
        "time": 66.25,
        "duration": 0.063,
        "velocity": 0.54,
        "hand": "left"
      },
      {
        "midi": 63,
        "time": 66.25,
        "duration": 0.11,
        "velocity": 0.56,
        "hand": "right"
      },
      {
        "midi": 51,
        "time": 66.375,
        "duration": 0.063,
        "velocity": 0.61,
        "hand": "left"
      },
      {
        "midi": 56,
        "time": 66.375,
        "duration": 0.063,
        "velocity": 0.5,
        "hand": "left"
      },
      {
        "midi": 60,
        "time": 66.375,
        "duration": 0.063,
        "velocity": 0.54,
        "hand": "right"
      },
      {
        "midi": 63,
        "time": 66.375,
        "duration": 0.063,
        "velocity": 0.5,
        "hand": "right"
      },
      {
        "midi": 65,
        "time": 66.375,
        "duration": 0.063,
        "velocity": 0.44,
        "hand": "right"
      },
      {
        "midi": 38,
        "time": 66.5,
        "duration": 0.063,
        "velocity": 0.83,
        "hand": "left"
      },
      {
        "midi": 51,
        "time": 66.5,
        "duration": 0.063,
        "velocity": 0.61,
        "hand": "left"
      },
      {
        "midi": 63,
        "time": 66.5,
        "duration": 0.063,
        "velocity": 0.49,
        "hand": "right"
      },
      {
        "midi": 65,
        "time": 66.5,
        "duration": 0.063,
        "velocity": 0.5,
        "hand": "right"
      },
      {
        "midi": 68,
        "time": 66.5,
        "duration": 0.5,
        "velocity": 0.77,
        "hand": "right"
      },
      {
        "midi": 82,
        "time": 66.5,
        "duration": 0.375,
        "velocity": 0.74,
        "hand": "right"
      },
      {
        "midi": 54,
        "time": 66.75,
        "duration": 0.063,
        "velocity": 0.54,
        "hand": "left"
      },
      {
        "midi": 56,
        "time": 66.75,
        "duration": 0.235,
        "velocity": 0.72,
        "hand": "left"
      },
      {
        "midi": 51,
        "time": 66.875,
        "duration": 0.063,
        "velocity": 0.61,
        "hand": "left"
      },
      {
        "midi": 84,
        "time": 66.875,
        "duration": 0.5,
        "velocity": 0.58,
        "hand": "right"
      },
      {
        "midi": 38,
        "time": 67,
        "duration": 0.063,
        "velocity": 0.91,
        "hand": "left"
      },
      {
        "midi": 41,
        "time": 67,
        "duration": 0.25,
        "velocity": 0.91,
        "hand": "left"
      },
      {
        "midi": 60,
        "time": 67,
        "duration": 0.375,
        "velocity": 0.64,
        "hand": "right"
      },
      {
        "midi": 63,
        "time": 67,
        "duration": 0.375,
        "velocity": 0.52,
        "hand": "right"
      },
      {
        "midi": 65,
        "time": 67,
        "duration": 0.235,
        "velocity": 0.52,
        "hand": "right"
      },
      {
        "midi": 67,
        "time": 67,
        "duration": 0.25,
        "velocity": 0.77,
        "hand": "right"
      },
      {
        "midi": 46,
        "time": 67.25,
        "duration": 0.25,
        "velocity": 1,
        "hand": "left"
      },
      {
        "midi": 54,
        "time": 67.25,
        "duration": 0.063,
        "velocity": 0.54,
        "hand": "left"
      },
      {
        "midi": 65,
        "time": 67.25,
        "duration": 0.25,
        "velocity": 0.72,
        "hand": "right"
      },
      {
        "midi": 51,
        "time": 67.375,
        "duration": 0.063,
        "velocity": 0.61,
        "hand": "left"
      },
      {
        "midi": 36,
        "time": 67.5,
        "duration": 1,
        "velocity": 0.95,
        "hand": "left"
      },
      {
        "midi": 47,
        "time": 67.5,
        "duration": 0.063,
        "velocity": 0.72,
        "hand": "left"
      },
      {
        "midi": 63,
        "time": 67.5,
        "duration": 0.36,
        "velocity": 0.55,
        "hand": "right"
      },
      {
        "midi": 68,
        "time": 67.5,
        "duration": 0.375,
        "velocity": 0.87,
        "hand": "right"
      },
      {
        "midi": 75,
        "time": 67.5,
        "duration": 0.5,
        "velocity": 0.73,
        "hand": "right"
      },
      {
        "midi": 51,
        "time": 67.75,
        "duration": 0.11,
        "velocity": 0.35,
        "hand": "left"
      },
      {
        "midi": 54,
        "time": 67.75,
        "duration": 0.063,
        "velocity": 0.54,
        "hand": "left"
      },
      {
        "midi": 38,
        "time": 67.875,
        "duration": 0.063,
        "velocity": 0.97,
        "hand": "left"
      },
      {
        "midi": 51,
        "time": 67.875,
        "duration": 0.063,
        "velocity": 0.61,
        "hand": "left"
      },
      {
        "midi": 60,
        "time": 67.875,
        "duration": 0.063,
        "velocity": 0.52,
        "hand": "right"
      },
      {
        "midi": 63,
        "time": 67.875,
        "duration": 0.063,
        "velocity": 0.46,
        "hand": "right"
      },
      {
        "midi": 67,
        "time": 67.875,
        "duration": 0.063,
        "velocity": 0.4,
        "hand": "right"
      },
      {
        "midi": 38,
        "time": 68,
        "duration": 0.063,
        "velocity": 0.7,
        "hand": "left"
      },
      {
        "midi": 54,
        "time": 68,
        "duration": 0.063,
        "velocity": 0.54,
        "hand": "left"
      },
      {
        "midi": 60,
        "time": 68,
        "duration": 0.375,
        "velocity": 0.58,
        "hand": "right"
      },
      {
        "midi": 63,
        "time": 68,
        "duration": 0.375,
        "velocity": 0.54,
        "hand": "right"
      },
      {
        "midi": 67,
        "time": 68,
        "duration": 0.485,
        "velocity": 0.69,
        "hand": "right"
      },
      {
        "midi": 84,
        "time": 68,
        "duration": 0.5,
        "velocity": 0.57,
        "hand": "right"
      },
      {
        "midi": 51,
        "time": 68.125,
        "duration": 0.063,
        "velocity": 0.61,
        "hand": "left"
      },
      {
        "midi": 54,
        "time": 68.25,
        "duration": 0.063,
        "velocity": 0.54,
        "hand": "left"
      },
      {
        "midi": 51,
        "time": 68.375,
        "duration": 0.063,
        "velocity": 0.61,
        "hand": "left"
      },
      {
        "midi": 38,
        "time": 68.5,
        "duration": 0.063,
        "velocity": 0.9,
        "hand": "left"
      },
      {
        "midi": 46,
        "time": 68.5,
        "duration": 0.25,
        "velocity": 0.96,
        "hand": "left"
      },
      {
        "midi": 60,
        "time": 68.5,
        "duration": 0.25,
        "velocity": 0.65,
        "hand": "right"
      },
      {
        "midi": 63,
        "time": 68.5,
        "duration": 0.25,
        "velocity": 0.59,
        "hand": "right"
      },
      {
        "midi": 67,
        "time": 68.5,
        "duration": 0.25,
        "velocity": 0.86,
        "hand": "right"
      },
      {
        "midi": 75,
        "time": 68.5,
        "duration": 0.375,
        "velocity": 0.74,
        "hand": "right"
      },
      {
        "midi": 45,
        "time": 68.75,
        "duration": 0.25,
        "velocity": 0.97,
        "hand": "left"
      },
      {
        "midi": 54,
        "time": 68.75,
        "duration": 0.063,
        "velocity": 0.54,
        "hand": "left"
      },
      {
        "midi": 51,
        "time": 68.875,
        "duration": 0.063,
        "velocity": 0.61,
        "hand": "left"
      },
      {
        "midi": 68,
        "time": 68.875,
        "duration": 0.125,
        "velocity": 0.62,
        "hand": "right"
      },
      {
        "midi": 43,
        "time": 69,
        "duration": 1.235,
        "velocity": 1,
        "hand": "left"
      },
      {
        "midi": 47,
        "time": 69,
        "duration": 0.063,
        "velocity": 0.77,
        "hand": "left"
      },
      {
        "midi": 62,
        "time": 69,
        "duration": 0.36,
        "velocity": 0.56,
        "hand": "right"
      },
      {
        "midi": 67,
        "time": 69,
        "duration": 0.485,
        "velocity": 0.72,
        "hand": "right"
      },
      {
        "midi": 74,
        "time": 69,
        "duration": 0.5,
        "velocity": 0.58,
        "hand": "right"
      },
      {
        "midi": 54,
        "time": 69.25,
        "duration": 0.063,
        "velocity": 0.54,
        "hand": "left"
      },
      {
        "midi": 51,
        "time": 69.375,
        "duration": 0.063,
        "velocity": 0.61,
        "hand": "left"
      },
      {
        "midi": 55,
        "time": 69.375,
        "duration": 0.063,
        "velocity": 0.48,
        "hand": "left"
      },
      {
        "midi": 62,
        "time": 69.375,
        "duration": 0.11,
        "velocity": 0.56,
        "hand": "right"
      },
      {
        "midi": 38,
        "time": 69.5,
        "duration": 0.485,
        "velocity": 0.86,
        "hand": "left"
      },
      {
        "midi": 51,
        "time": 69.5,
        "duration": 0.063,
        "velocity": 0.61,
        "hand": "left"
      },
      {
        "midi": 62,
        "time": 69.5,
        "duration": 0.375,
        "velocity": 0.54,
        "hand": "right"
      },
      {
        "midi": 65,
        "time": 69.5,
        "duration": 0.485,
        "velocity": 0.72,
        "hand": "right"
      },
      {
        "midi": 67,
        "time": 69.5,
        "duration": 0.063,
        "velocity": 0.52,
        "hand": "right"
      },
      {
        "midi": 83,
        "time": 69.5,
        "duration": 0.5,
        "velocity": 0.61,
        "hand": "right"
      },
      {
        "midi": 54,
        "time": 69.75,
        "duration": 0.063,
        "velocity": 0.54,
        "hand": "left"
      },
      {
        "midi": 51,
        "time": 69.875,
        "duration": 0.063,
        "velocity": 0.61,
        "hand": "left"
      },
      {
        "midi": 38,
        "time": 70,
        "duration": 0.063,
        "velocity": 0.91,
        "hand": "left"
      },
      {
        "midi": 47,
        "time": 70,
        "duration": 0.25,
        "velocity": 0.94,
        "hand": "left"
      },
      {
        "midi": 63,
        "time": 70,
        "duration": 0.25,
        "velocity": 0.64,
        "hand": "right"
      },
      {
        "midi": 65,
        "time": 70,
        "duration": 0.25,
        "velocity": 0.52,
        "hand": "right"
      },
      {
        "midi": 74,
        "time": 70,
        "duration": 0.5,
        "velocity": 0.54,
        "hand": "right"
      },
      {
        "midi": 43,
        "time": 70.25,
        "duration": 0.25,
        "velocity": 0.94,
        "hand": "left"
      },
      {
        "midi": 54,
        "time": 70.25,
        "duration": 0.063,
        "velocity": 0.54,
        "hand": "left"
      },
      {
        "midi": 62,
        "time": 70.25,
        "duration": 0.235,
        "velocity": 0.72,
        "hand": "right"
      },
      {
        "midi": 51,
        "time": 70.375,
        "duration": 0.063,
        "velocity": 0.61,
        "hand": "left"
      },
      {
        "midi": 36,
        "time": 70.5,
        "duration": 0.5,
        "velocity": 0.94,
        "hand": "left"
      },
      {
        "midi": 47,
        "time": 70.5,
        "duration": 0.063,
        "velocity": 0.75,
        "hand": "left"
      },
      {
        "midi": 63,
        "time": 70.5,
        "duration": 0.375,
        "velocity": 0.54,
        "hand": "right"
      },
      {
        "midi": 65,
        "time": 70.5,
        "duration": 0.25,
        "velocity": 0.57,
        "hand": "right"
      },
      {
        "midi": 67,
        "time": 70.5,
        "duration": 0.125,
        "velocity": 0.49,
        "hand": "right"
      },
      {
        "midi": 60,
        "time": 70.75,
        "duration": 0.125,
        "velocity": 0.24,
        "hand": "right"
      },
      {
        "midi": 38,
        "time": 70.875,
        "duration": 0.063,
        "velocity": 0.91,
        "hand": "left"
      },
      {
        "midi": 51,
        "time": 70.875,
        "duration": 0.063,
        "velocity": 0.61,
        "hand": "left"
      },
      {
        "midi": 38,
        "time": 71,
        "duration": 0.485,
        "velocity": 0.91,
        "hand": "left"
      },
      {
        "midi": 51,
        "time": 71,
        "duration": 0.063,
        "velocity": 0.61,
        "hand": "left"
      },
      {
        "midi": 60,
        "time": 71,
        "duration": 0.25,
        "velocity": 0.59,
        "hand": "right"
      },
      {
        "midi": 62,
        "time": 71,
        "duration": 0.375,
        "velocity": 0.72,
        "hand": "right"
      },
      {
        "midi": 65,
        "time": 71,
        "duration": 0.375,
        "velocity": 0.53,
        "hand": "right"
      },
      {
        "midi": 39,
        "time": 71.25,
        "duration": 0.063,
        "velocity": 0.91,
        "hand": "left"
      },
      {
        "midi": 51,
        "time": 71.375,
        "duration": 0.063,
        "velocity": 0.61,
        "hand": "left"
      },
      {
        "midi": 38,
        "time": 71.5,
        "duration": 0.063,
        "velocity": 0.93,
        "hand": "left"
      },
      {
        "midi": 44,
        "time": 71.5,
        "duration": 0.5,
        "velocity": 1,
        "hand": "left"
      },
      {
        "midi": 63,
        "time": 71.5,
        "duration": 0.375,
        "velocity": 0.72,
        "hand": "right"
      },
      {
        "midi": 39,
        "time": 71.75,
        "duration": 0.063,
        "velocity": 0.72,
        "hand": "left"
      },
      {
        "midi": 51,
        "time": 71.875,
        "duration": 0.063,
        "velocity": 0.61,
        "hand": "left"
      },
      {
        "midi": 36,
        "time": 72,
        "duration": 1.25,
        "velocity": 0.96,
        "hand": "left"
      },
      {
        "midi": 47,
        "time": 72,
        "duration": 0.063,
        "velocity": 0.73,
        "hand": "left"
      },
      {
        "midi": 60,
        "time": 72,
        "duration": 0.36,
        "velocity": 0.76,
        "hand": "right"
      },
      {
        "midi": 63,
        "time": 72,
        "duration": 0.36,
        "velocity": 0.91,
        "hand": "right"
      },
      {
        "midi": 67,
        "time": 72,
        "duration": 0.36,
        "velocity": 0.57,
        "hand": "right"
      },
      {
        "midi": 51,
        "time": 72.375,
        "duration": 0.063,
        "velocity": 0.61,
        "hand": "left"
      },
      {
        "midi": 55,
        "time": 72.375,
        "duration": 0.11,
        "velocity": 0.52,
        "hand": "left"
      },
      {
        "midi": 60,
        "time": 72.375,
        "duration": 0.11,
        "velocity": 0.57,
        "hand": "right"
      },
      {
        "midi": 63,
        "time": 72.375,
        "duration": 0.063,
        "velocity": 0.54,
        "hand": "right"
      },
      {
        "midi": 67,
        "time": 72.375,
        "duration": 0.11,
        "velocity": 0.52,
        "hand": "right"
      },
      {
        "midi": 38,
        "time": 72.5,
        "duration": 0.063,
        "velocity": 0.83,
        "hand": "left"
      },
      {
        "midi": 48,
        "time": 72.5,
        "duration": 2.5,
        "velocity": 0.51,
        "hand": "left"
      },
      {
        "midi": 60,
        "time": 72.5,
        "duration": 0.063,
        "velocity": 0.61,
        "hand": "right"
      },
      {
        "midi": 63,
        "time": 72.5,
        "duration": 0.063,
        "velocity": 0.55,
        "hand": "right"
      },
      {
        "midi": 67,
        "time": 72.5,
        "duration": 0.125,
        "velocity": 0.52,
        "hand": "right"
      },
      {
        "midi": 55,
        "time": 72.75,
        "duration": 0.235,
        "velocity": 0.59,
        "hand": "left"
      },
      {
        "midi": 51,
        "time": 72.875,
        "duration": 0.063,
        "velocity": 0.61,
        "hand": "left"
      },
      {
        "midi": 38,
        "time": 73,
        "duration": 0.063,
        "velocity": 0.91,
        "hand": "left"
      },
      {
        "midi": 51,
        "time": 73,
        "duration": 0.063,
        "velocity": 0.61,
        "hand": "left"
      },
      {
        "midi": 60,
        "time": 73,
        "duration": 0.375,
        "velocity": 0.68,
        "hand": "right"
      },
      {
        "midi": 63,
        "time": 73,
        "duration": 0.125,
        "velocity": 0.64,
        "hand": "right"
      },
      {
        "midi": 67,
        "time": 73,
        "duration": 0.125,
        "velocity": 0.55,
        "hand": "right"
      },
      {
        "midi": 43,
        "time": 73.25,
        "duration": 0.25,
        "velocity": 0.94,
        "hand": "left"
      },
      {
        "midi": 63,
        "time": 73.25,
        "duration": 0.125,
        "velocity": 0.5,
        "hand": "right"
      },
      {
        "midi": 51,
        "time": 73.375,
        "duration": 0.063,
        "velocity": 0.61,
        "hand": "left"
      },
      {
        "midi": 36,
        "time": 73.5,
        "duration": 0.875,
        "velocity": 0.96,
        "hand": "left"
      },
      {
        "midi": 47,
        "time": 73.5,
        "duration": 0.063,
        "velocity": 0.72,
        "hand": "left"
      },
      {
        "midi": 60,
        "time": 73.5,
        "duration": 0.36,
        "velocity": 0.56,
        "hand": "right"
      },
      {
        "midi": 63,
        "time": 73.5,
        "duration": 0.36,
        "velocity": 0.55,
        "hand": "right"
      },
      {
        "midi": 67,
        "time": 73.5,
        "duration": 0.36,
        "velocity": 0.57,
        "hand": "right"
      },
      {
        "midi": 75,
        "time": 73.5,
        "duration": 0.5,
        "velocity": 0.84,
        "hand": "right"
      },
      {
        "midi": 38,
        "time": 73.875,
        "duration": 0.063,
        "velocity": 0.97,
        "hand": "left"
      },
      {
        "midi": 51,
        "time": 73.875,
        "duration": 0.063,
        "velocity": 0.61,
        "hand": "left"
      },
      {
        "midi": 60,
        "time": 73.875,
        "duration": 0.063,
        "velocity": 0.57,
        "hand": "right"
      },
      {
        "midi": 63,
        "time": 73.875,
        "duration": 0.063,
        "velocity": 0.57,
        "hand": "right"
      },
      {
        "midi": 67,
        "time": 73.875,
        "duration": 0.11,
        "velocity": 0.51,
        "hand": "right"
      },
      {
        "midi": 38,
        "time": 74,
        "duration": 0.063,
        "velocity": 0.7,
        "hand": "left"
      },
      {
        "midi": 54,
        "time": 74,
        "duration": 0.063,
        "velocity": 0.54,
        "hand": "left"
      },
      {
        "midi": 60,
        "time": 74,
        "duration": 0.063,
        "velocity": 0.57,
        "hand": "right"
      },
      {
        "midi": 63,
        "time": 74,
        "duration": 0.063,
        "velocity": 0.64,
        "hand": "right"
      },
      {
        "midi": 67,
        "time": 74,
        "duration": 0.125,
        "velocity": 0.48,
        "hand": "right"
      },
      {
        "midi": 74,
        "time": 74,
        "duration": 0.5,
        "velocity": 0.7,
        "hand": "right"
      },
      {
        "midi": 51,
        "time": 74.125,
        "duration": 0.063,
        "velocity": 0.61,
        "hand": "left"
      },
      {
        "midi": 51,
        "time": 74.375,
        "duration": 0.063,
        "velocity": 0.61,
        "hand": "left"
      },
      {
        "midi": 38,
        "time": 74.5,
        "duration": 0.063,
        "velocity": 0.9,
        "hand": "left"
      },
      {
        "midi": 43,
        "time": 74.5,
        "duration": 0.375,
        "velocity": 0.93,
        "hand": "left"
      },
      {
        "midi": 60,
        "time": 74.5,
        "duration": 0.375,
        "velocity": 0.68,
        "hand": "right"
      },
      {
        "midi": 63,
        "time": 74.5,
        "duration": 0.375,
        "velocity": 0.7,
        "hand": "right"
      },
      {
        "midi": 67,
        "time": 74.5,
        "duration": 0.25,
        "velocity": 0.57,
        "hand": "right"
      },
      {
        "midi": 72,
        "time": 74.5,
        "duration": 0.5,
        "velocity": 0.71,
        "hand": "right"
      },
      {
        "midi": 51,
        "time": 74.875,
        "duration": 0.063,
        "velocity": 0.61,
        "hand": "left"
      },
      {
        "midi": 41,
        "time": 75,
        "duration": 1.485,
        "velocity": 0.83,
        "hand": "left"
      },
      {
        "midi": 47,
        "time": 75,
        "duration": 0.063,
        "velocity": 0.77,
        "hand": "left"
      },
      {
        "midi": 60,
        "time": 75,
        "duration": 0.36,
        "velocity": 0.55,
        "hand": "right"
      },
      {
        "midi": 65,
        "time": 75,
        "duration": 0.36,
        "velocity": 0.56,
        "hand": "right"
      },
      {
        "midi": 68,
        "time": 75,
        "duration": 3,
        "velocity": 0.68,
        "hand": "right"
      },
      {
        "midi": 51,
        "time": 75.375,
        "duration": 0.063,
        "velocity": 0.61,
        "hand": "left"
      },
      {
        "midi": 56,
        "time": 75.375,
        "duration": 0.11,
        "velocity": 0.46,
        "hand": "left"
      },
      {
        "midi": 60,
        "time": 75.375,
        "duration": 0.11,
        "velocity": 0.5,
        "hand": "right"
      },
      {
        "midi": 63,
        "time": 75.375,
        "duration": 0.11,
        "velocity": 0.38,
        "hand": "right"
      },
      {
        "midi": 65,
        "time": 75.375,
        "duration": 0.11,
        "velocity": 0.39,
        "hand": "right"
      },
      {
        "midi": 38,
        "time": 75.5,
        "duration": 0.063,
        "velocity": 0.8,
        "hand": "left"
      },
      {
        "midi": 51,
        "time": 75.5,
        "duration": 0.063,
        "velocity": 0.61,
        "hand": "left"
      },
      {
        "midi": 60,
        "time": 75.5,
        "duration": 0.125,
        "velocity": 0.56,
        "hand": "right"
      },
      {
        "midi": 63,
        "time": 75.5,
        "duration": 0.125,
        "velocity": 0.5,
        "hand": "right"
      },
      {
        "midi": 65,
        "time": 75.5,
        "duration": 0.125,
        "velocity": 0.45,
        "hand": "right"
      },
      {
        "midi": 56,
        "time": 75.75,
        "duration": 0.235,
        "velocity": 0.78,
        "hand": "left"
      },
      {
        "midi": 51,
        "time": 75.875,
        "duration": 0.063,
        "velocity": 0.61,
        "hand": "left"
      },
      {
        "midi": 38,
        "time": 76,
        "duration": 0.063,
        "velocity": 0.91,
        "hand": "left"
      },
      {
        "midi": 51,
        "time": 76,
        "duration": 0.063,
        "velocity": 0.61,
        "hand": "left"
      },
      {
        "midi": 60,
        "time": 76,
        "duration": 0.235,
        "velocity": 0.68,
        "hand": "right"
      },
      {
        "midi": 63,
        "time": 76,
        "duration": 0.125,
        "velocity": 0.53,
        "hand": "right"
      },
      {
        "midi": 65,
        "time": 76,
        "duration": 0.125,
        "velocity": 0.5,
        "hand": "right"
      },
      {
        "midi": 36,
        "time": 76.25,
        "duration": 0.25,
        "velocity": 0.94,
        "hand": "left"
      },
      {
        "midi": 56,
        "time": 76.25,
        "duration": 0.125,
        "velocity": 0.49,
        "hand": "left"
      },
      {
        "midi": 60,
        "time": 76.25,
        "duration": 0.125,
        "velocity": 0.58,
        "hand": "right"
      },
      {
        "midi": 65,
        "time": 76.25,
        "duration": 0.125,
        "velocity": 0.5,
        "hand": "right"
      },
      {
        "midi": 51,
        "time": 76.375,
        "duration": 0.063,
        "velocity": 0.61,
        "hand": "left"
      },
      {
        "midi": 41,
        "time": 76.5,
        "duration": 0.985,
        "velocity": 0.88,
        "hand": "left"
      },
      {
        "midi": 47,
        "time": 76.5,
        "duration": 0.063,
        "velocity": 0.75,
        "hand": "left"
      },
      {
        "midi": 60,
        "time": 76.5,
        "duration": 0.36,
        "velocity": 0.49,
        "hand": "right"
      },
      {
        "midi": 67,
        "time": 76.5,
        "duration": 0.875,
        "velocity": 0.5,
        "hand": "right"
      },
      {
        "midi": 38,
        "time": 76.875,
        "duration": 0.063,
        "velocity": 0.97,
        "hand": "left"
      },
      {
        "midi": 51,
        "time": 76.875,
        "duration": 0.063,
        "velocity": 0.61,
        "hand": "left"
      },
      {
        "midi": 60,
        "time": 76.875,
        "duration": 0.11,
        "velocity": 0.5,
        "hand": "right"
      },
      {
        "midi": 63,
        "time": 76.875,
        "duration": 0.11,
        "velocity": 0.38,
        "hand": "right"
      },
      {
        "midi": 65,
        "time": 76.875,
        "duration": 0.11,
        "velocity": 0.39,
        "hand": "right"
      },
      {
        "midi": 38,
        "time": 77,
        "duration": 0.063,
        "velocity": 0.65,
        "hand": "left"
      },
      {
        "midi": 44,
        "time": 77,
        "duration": 0.5,
        "velocity": 0.98,
        "hand": "left"
      },
      {
        "midi": 60,
        "time": 77,
        "duration": 0.125,
        "velocity": 0.56,
        "hand": "right"
      },
      {
        "midi": 63,
        "time": 77,
        "duration": 0.125,
        "velocity": 0.5,
        "hand": "right"
      },
      {
        "midi": 65,
        "time": 77,
        "duration": 0.125,
        "velocity": 0.45,
        "hand": "right"
      },
      {
        "midi": 51,
        "time": 77.375,
        "duration": 0.063,
        "velocity": 0.61,
        "hand": "left"
      },
      {
        "midi": 38,
        "time": 77.5,
        "duration": 0.063,
        "velocity": 0.91,
        "hand": "left"
      },
      {
        "midi": 41,
        "time": 77.5,
        "duration": 0.375,
        "velocity": 0.86,
        "hand": "left"
      },
      {
        "midi": 60,
        "time": 77.5,
        "duration": 0.25,
        "velocity": 0.61,
        "hand": "right"
      },
      {
        "midi": 63,
        "time": 77.5,
        "duration": 0.125,
        "velocity": 0.53,
        "hand": "right"
      },
      {
        "midi": 65,
        "time": 77.5,
        "duration": 0.375,
        "velocity": 0.54,
        "hand": "right"
      },
      {
        "midi": 51,
        "time": 77.875,
        "duration": 0.063,
        "velocity": 0.61,
        "hand": "left"
      },
      {
        "midi": 47,
        "time": 78,
        "duration": 0.063,
        "velocity": 0.73,
        "hand": "left"
      },
      {
        "midi": 62,
        "time": 78,
        "duration": 0.485,
        "velocity": 0.38,
        "hand": "right"
      },
      {
        "midi": 70,
        "time": 78,
        "duration": 1.375,
        "velocity": 0.92,
        "hand": "right"
      },
      {
        "midi": 58,
        "time": 78.25,
        "duration": 0.5,
        "velocity": 0.7,
        "hand": "left"
      },
      {
        "midi": 51,
        "time": 78.375,
        "duration": 0.063,
        "velocity": 0.61,
        "hand": "left"
      },
      {
        "midi": 56,
        "time": 78.375,
        "duration": 0.11,
        "velocity": 0.46,
        "hand": "left"
      },
      {
        "midi": 60,
        "time": 78.375,
        "duration": 0.11,
        "velocity": 0.5,
        "hand": "right"
      },
      {
        "midi": 63,
        "time": 78.375,
        "duration": 0.11,
        "velocity": 0.38,
        "hand": "right"
      },
      {
        "midi": 65,
        "time": 78.375,
        "duration": 0.11,
        "velocity": 0.39,
        "hand": "right"
      },
      {
        "midi": 38,
        "time": 78.5,
        "duration": 0.063,
        "velocity": 0.9,
        "hand": "left"
      },
      {
        "midi": 51,
        "time": 78.5,
        "duration": 0.063,
        "velocity": 0.61,
        "hand": "left"
      },
      {
        "midi": 60,
        "time": 78.5,
        "duration": 0.125,
        "velocity": 0.56,
        "hand": "right"
      },
      {
        "midi": 63,
        "time": 78.5,
        "duration": 0.125,
        "velocity": 0.5,
        "hand": "right"
      },
      {
        "midi": 65,
        "time": 78.5,
        "duration": 0.125,
        "velocity": 0.45,
        "hand": "right"
      },
      {
        "midi": 53,
        "time": 78.75,
        "duration": 0.625,
        "velocity": 0.61,
        "hand": "left"
      },
      {
        "midi": 51,
        "time": 78.875,
        "duration": 0.063,
        "velocity": 0.61,
        "hand": "left"
      },
      {
        "midi": 38,
        "time": 79,
        "duration": 0.063,
        "velocity": 0.9,
        "hand": "left"
      },
      {
        "midi": 51,
        "time": 79,
        "duration": 0.063,
        "velocity": 0.61,
        "hand": "left"
      },
      {
        "midi": 60,
        "time": 79,
        "duration": 0.125,
        "velocity": 0.61,
        "hand": "right"
      },
      {
        "midi": 63,
        "time": 79,
        "duration": 0.125,
        "velocity": 0.53,
        "hand": "right"
      },
      {
        "midi": 65,
        "time": 79,
        "duration": 0.125,
        "velocity": 0.5,
        "hand": "right"
      },
      {
        "midi": 41,
        "time": 79.25,
        "duration": 0.125,
        "velocity": 0.95,
        "hand": "left"
      },
      {
        "midi": 62,
        "time": 79.25,
        "duration": 0.125,
        "velocity": 0.53,
        "hand": "right"
      },
      {
        "midi": 51,
        "time": 79.375,
        "duration": 0.063,
        "velocity": 0.61,
        "hand": "left"
      },
      {
        "midi": 47,
        "time": 79.5,
        "duration": 0.063,
        "velocity": 0.81,
        "hand": "left"
      },
      {
        "midi": 65,
        "time": 79.5,
        "duration": 0.875,
        "velocity": 0.57,
        "hand": "right"
      },
      {
        "midi": 74,
        "time": 79.5,
        "duration": 0.5,
        "velocity": 0.75,
        "hand": "right"
      },
      {
        "midi": 38,
        "time": 79.875,
        "duration": 0.063,
        "velocity": 0.97,
        "hand": "left"
      },
      {
        "midi": 51,
        "time": 79.875,
        "duration": 0.063,
        "velocity": 0.61,
        "hand": "left"
      },
      {
        "midi": 62,
        "time": 79.875,
        "duration": 0.11,
        "velocity": 0.57,
        "hand": "right"
      },
      {
        "midi": 38,
        "time": 80,
        "duration": 0.063,
        "velocity": 0.69,
        "hand": "left"
      },
      {
        "midi": 41,
        "time": 80,
        "duration": 0.5,
        "velocity": 0.79,
        "hand": "left"
      },
      {
        "midi": 62,
        "time": 80,
        "duration": 0.125,
        "velocity": 0.61,
        "hand": "right"
      },
      {
        "midi": 72,
        "time": 80,
        "duration": 0.5,
        "velocity": 0.67,
        "hand": "right"
      },
      {
        "midi": 51,
        "time": 80.375,
        "duration": 0.063,
        "velocity": 0.61,
        "hand": "left"
      },
      {
        "midi": 38,
        "time": 80.5,
        "duration": 0.063,
        "velocity": 0.91,
        "hand": "left"
      },
      {
        "midi": 46,
        "time": 80.5,
        "duration": 0.375,
        "velocity": 0.98,
        "hand": "left"
      },
      {
        "midi": 62,
        "time": 80.5,
        "duration": 0.375,
        "velocity": 0.65,
        "hand": "right"
      },
      {
        "midi": 70,
        "time": 80.5,
        "duration": 0.5,
        "velocity": 0.69,
        "hand": "right"
      },
      {
        "midi": 39,
        "time": 80.875,
        "duration": 0.11,
        "velocity": 0.87,
        "hand": "left"
      },
      {
        "midi": 51,
        "time": 80.875,
        "duration": 0.063,
        "velocity": 0.61,
        "hand": "left"
      },
      {
        "midi": 39,
        "time": 81,
        "duration": 1,
        "velocity": 0.5,
        "hand": "left"
      },
      {
        "midi": 47,
        "time": 81,
        "duration": 0.063,
        "velocity": 0.73,
        "hand": "left"
      },
      {
        "midi": 63,
        "time": 81,
        "duration": 0.36,
        "velocity": 0.56,
        "hand": "right"
      },
      {
        "midi": 67,
        "time": 81,
        "duration": 0.985,
        "velocity": 0.68,
        "hand": "right"
      },
      {
        "midi": 51,
        "time": 81.375,
        "duration": 0.063,
        "velocity": 0.61,
        "hand": "left"
      },
      {
        "midi": 55,
        "time": 81.375,
        "duration": 0.11,
        "velocity": 0.5,
        "hand": "left"
      },
      {
        "midi": 63,
        "time": 81.375,
        "duration": 0.11,
        "velocity": 0.54,
        "hand": "right"
      },
      {
        "midi": 38,
        "time": 81.5,
        "duration": 0.063,
        "velocity": 0.83,
        "hand": "left"
      },
      {
        "midi": 51,
        "time": 81.5,
        "duration": 0.063,
        "velocity": 0.61,
        "hand": "left"
      },
      {
        "midi": 63,
        "time": 81.5,
        "duration": 0.125,
        "velocity": 0.51,
        "hand": "right"
      },
      {
        "midi": 51,
        "time": 81.875,
        "duration": 0.063,
        "velocity": 0.61,
        "hand": "left"
      },
      {
        "midi": 38,
        "time": 82,
        "duration": 0.063,
        "velocity": 0.91,
        "hand": "left"
      },
      {
        "midi": 46,
        "time": 82,
        "duration": 0.5,
        "velocity": 0.35,
        "hand": "left"
      },
      {
        "midi": 63,
        "time": 82,
        "duration": 0.125,
        "velocity": 0.61,
        "hand": "right"
      },
      {
        "midi": 67,
        "time": 82,
        "duration": 0.375,
        "velocity": 0.72,
        "hand": "right"
      },
      {
        "midi": 51,
        "time": 82.375,
        "duration": 0.063,
        "velocity": 0.61,
        "hand": "left"
      },
      {
        "midi": 39,
        "time": 82.5,
        "duration": 0.5,
        "velocity": 0.42,
        "hand": "left"
      },
      {
        "midi": 47,
        "time": 82.5,
        "duration": 0.063,
        "velocity": 0.72,
        "hand": "left"
      },
      {
        "midi": 63,
        "time": 82.5,
        "duration": 0.36,
        "velocity": 0.72,
        "hand": "right"
      },
      {
        "midi": 38,
        "time": 82.875,
        "duration": 0.063,
        "velocity": 0.97,
        "hand": "left"
      },
      {
        "midi": 51,
        "time": 82.875,
        "duration": 0.063,
        "velocity": 0.61,
        "hand": "left"
      },
      {
        "midi": 63,
        "time": 82.875,
        "duration": 0.11,
        "velocity": 0.57,
        "hand": "right"
      },
      {
        "midi": 38,
        "time": 83,
        "duration": 0.485,
        "velocity": 0.91,
        "hand": "left"
      },
      {
        "midi": 54,
        "time": 83,
        "duration": 0.063,
        "velocity": 0.54,
        "hand": "left"
      },
      {
        "midi": 63,
        "time": 83,
        "duration": 0.125,
        "velocity": 0.72,
        "hand": "right"
      },
      {
        "midi": 51,
        "time": 83.125,
        "duration": 0.063,
        "velocity": 0.61,
        "hand": "left"
      },
      {
        "midi": 51,
        "time": 83.375,
        "duration": 0.063,
        "velocity": 0.61,
        "hand": "left"
      },
      {
        "midi": 38,
        "time": 83.5,
        "duration": 0.063,
        "velocity": 0.9,
        "hand": "left"
      },
      {
        "midi": 43,
        "time": 83.5,
        "duration": 0.5,
        "velocity": 0.96,
        "hand": "left"
      },
      {
        "midi": 60,
        "time": 83.5,
        "duration": 0.25,
        "velocity": 0.63,
        "hand": "right"
      },
      {
        "midi": 63,
        "time": 83.5,
        "duration": 0.125,
        "velocity": 0.72,
        "hand": "right"
      },
      {
        "midi": 51,
        "time": 83.875,
        "duration": 0.063,
        "velocity": 0.61,
        "hand": "left"
      },
      {
        "midi": 55,
        "time": 83.875,
        "duration": 0.485,
        "velocity": 0.41,
        "hand": "left"
      },
      {
        "midi": 36,
        "time": 84,
        "duration": 1.375,
        "velocity": 0.91,
        "hand": "left"
      },
      {
        "midi": 47,
        "time": 84,
        "duration": 0.063,
        "velocity": 0.77,
        "hand": "left"
      },
      {
        "midi": 60,
        "time": 84,
        "duration": 0.36,
        "velocity": 0.43,
        "hand": "right"
      },
      {
        "midi": 63,
        "time": 84,
        "duration": 0.36,
        "velocity": 0.9,
        "hand": "right"
      },
      {
        "midi": 67,
        "time": 84,
        "duration": 0.36,
        "velocity": 0.65,
        "hand": "right"
      },
      {
        "midi": 51,
        "time": 84.375,
        "duration": 0.063,
        "velocity": 0.61,
        "hand": "left"
      },
      {
        "midi": 55,
        "time": 84.375,
        "duration": 0.11,
        "velocity": 0.52,
        "hand": "left"
      },
      {
        "midi": 60,
        "time": 84.375,
        "duration": 0.11,
        "velocity": 0.57,
        "hand": "right"
      },
      {
        "midi": 63,
        "time": 84.375,
        "duration": 0.063,
        "velocity": 0.54,
        "hand": "right"
      },
      {
        "midi": 67,
        "time": 84.375,
        "duration": 0.11,
        "velocity": 0.52,
        "hand": "right"
      },
      {
        "midi": 39,
        "time": 84.5,
        "duration": 0.75,
        "velocity": 0.49,
        "hand": "left"
      },
      {
        "midi": 60,
        "time": 84.5,
        "duration": 0.063,
        "velocity": 0.61,
        "hand": "right"
      },
      {
        "midi": 63,
        "time": 84.5,
        "duration": 0.485,
        "velocity": 0.72,
        "hand": "right"
      },
      {
        "midi": 67,
        "time": 84.5,
        "duration": 0.125,
        "velocity": 0.52,
        "hand": "right"
      },
      {
        "midi": 51,
        "time": 84.875,
        "duration": 0.063,
        "velocity": 0.61,
        "hand": "left"
      },
      {
        "midi": 38,
        "time": 85,
        "duration": 0.063,
        "velocity": 0.91,
        "hand": "left"
      },
      {
        "midi": 51,
        "time": 85,
        "duration": 0.063,
        "velocity": 0.61,
        "hand": "left"
      },
      {
        "midi": 60,
        "time": 85,
        "duration": 0.25,
        "velocity": 0.72,
        "hand": "right"
      },
      {
        "midi": 63,
        "time": 85,
        "duration": 0.125,
        "velocity": 0.64,
        "hand": "right"
      },
      {
        "midi": 67,
        "time": 85,
        "duration": 0.125,
        "velocity": 0.55,
        "hand": "right"
      },
      {
        "midi": 72,
        "time": 85,
        "duration": 0.5,
        "velocity": 0.65,
        "hand": "right"
      },
      {
        "midi": 43,
        "time": 85.25,
        "duration": 0.11,
        "velocity": 0.5,
        "hand": "left"
      },
      {
        "midi": 43,
        "time": 85.375,
        "duration": 0.125,
        "velocity": 0.96,
        "hand": "left"
      },
      {
        "midi": 51,
        "time": 85.375,
        "duration": 0.063,
        "velocity": 0.61,
        "hand": "left"
      },
      {
        "midi": 36,
        "time": 85.5,
        "duration": 0.485,
        "velocity": 0.88,
        "hand": "left"
      },
      {
        "midi": 47,
        "time": 85.5,
        "duration": 0.063,
        "velocity": 0.75,
        "hand": "left"
      },
      {
        "midi": 60,
        "time": 85.5,
        "duration": 0.36,
        "velocity": 0.54,
        "hand": "right"
      },
      {
        "midi": 67,
        "time": 85.5,
        "duration": 0.36,
        "velocity": 0.57,
        "hand": "right"
      },
      {
        "midi": 70,
        "time": 85.5,
        "duration": 0.5,
        "velocity": 0.72,
        "hand": "right"
      },
      {
        "midi": 38,
        "time": 85.875,
        "duration": 0.063,
        "velocity": 0.97,
        "hand": "left"
      },
      {
        "midi": 51,
        "time": 85.875,
        "duration": 0.063,
        "velocity": 0.61,
        "hand": "left"
      },
      {
        "midi": 60,
        "time": 85.875,
        "duration": 0.11,
        "velocity": 0.57,
        "hand": "right"
      },
      {
        "midi": 63,
        "time": 85.875,
        "duration": 0.063,
        "velocity": 0.54,
        "hand": "right"
      },
      {
        "midi": 67,
        "time": 85.875,
        "duration": 0.11,
        "velocity": 0.52,
        "hand": "right"
      },
      {
        "midi": 36,
        "time": 86,
        "duration": 0.5,
        "velocity": 0.86,
        "hand": "left"
      },
      {
        "midi": 38,
        "time": 86,
        "duration": 0.063,
        "velocity": 0.65,
        "hand": "left"
      },
      {
        "midi": 60,
        "time": 86,
        "duration": 0.063,
        "velocity": 0.61,
        "hand": "right"
      },
      {
        "midi": 63,
        "time": 86,
        "duration": 0.25,
        "velocity": 0.55,
        "hand": "right"
      },
      {
        "midi": 68,
        "time": 86,
        "duration": 0.5,
        "velocity": 0.72,
        "hand": "right"
      },
      {
        "midi": 51,
        "time": 86.375,
        "duration": 0.063,
        "velocity": 0.61,
        "hand": "left"
      },
      {
        "midi": 38,
        "time": 86.5,
        "duration": 0.063,
        "velocity": 0.91,
        "hand": "left"
      },
      {
        "midi": 43,
        "time": 86.5,
        "duration": 0.5,
        "velocity": 0.96,
        "hand": "left"
      },
      {
        "midi": 60,
        "time": 86.5,
        "duration": 0.485,
        "velocity": 0.58,
        "hand": "right"
      },
      {
        "midi": 63,
        "time": 86.5,
        "duration": 0.375,
        "velocity": 0.64,
        "hand": "right"
      },
      {
        "midi": 67,
        "time": 86.5,
        "duration": 0.5,
        "velocity": 0.71,
        "hand": "right"
      },
      {
        "midi": 51,
        "time": 86.875,
        "duration": 0.063,
        "velocity": 0.61,
        "hand": "left"
      },
      {
        "midi": 41,
        "time": 87,
        "duration": 1.25,
        "velocity": 0.94,
        "hand": "left"
      },
      {
        "midi": 47,
        "time": 87,
        "duration": 0.063,
        "velocity": 0.73,
        "hand": "left"
      },
      {
        "midi": 60,
        "time": 87,
        "duration": 0.36,
        "velocity": 0.55,
        "hand": "right"
      },
      {
        "midi": 65,
        "time": 87,
        "duration": 0.985,
        "velocity": 0.57,
        "hand": "right"
      },
      {
        "midi": 68,
        "time": 87,
        "duration": 2.75,
        "velocity": 0.66,
        "hand": "right"
      },
      {
        "midi": 51,
        "time": 87.375,
        "duration": 0.063,
        "velocity": 0.61,
        "hand": "left"
      },
      {
        "midi": 53,
        "time": 87.375,
        "duration": 0.11,
        "velocity": 0.53,
        "hand": "left"
      },
      {
        "midi": 60,
        "time": 87.375,
        "duration": 0.11,
        "velocity": 0.5,
        "hand": "right"
      },
      {
        "midi": 63,
        "time": 87.375,
        "duration": 0.11,
        "velocity": 0.41,
        "hand": "right"
      },
      {
        "midi": 38,
        "time": 87.5,
        "duration": 0.063,
        "velocity": 0.9,
        "hand": "left"
      },
      {
        "midi": 51,
        "time": 87.5,
        "duration": 0.063,
        "velocity": 0.61,
        "hand": "left"
      },
      {
        "midi": 60,
        "time": 87.5,
        "duration": 0.125,
        "velocity": 0.52,
        "hand": "right"
      },
      {
        "midi": 63,
        "time": 87.5,
        "duration": 0.125,
        "velocity": 0.46,
        "hand": "right"
      },
      {
        "midi": 51,
        "time": 87.875,
        "duration": 0.063,
        "velocity": 0.61,
        "hand": "left"
      },
      {
        "midi": 38,
        "time": 88,
        "duration": 0.063,
        "velocity": 0.9,
        "hand": "left"
      },
      {
        "midi": 51,
        "time": 88,
        "duration": 0.063,
        "velocity": 0.61,
        "hand": "left"
      },
      {
        "midi": 60,
        "time": 88,
        "duration": 0.86,
        "velocity": 0.7,
        "hand": "right"
      },
      {
        "midi": 63,
        "time": 88,
        "duration": 0.125,
        "velocity": 0.49,
        "hand": "right"
      },
      {
        "midi": 65,
        "time": 88,
        "duration": 0.625,
        "velocity": 0.54,
        "hand": "right"
      },
      {
        "midi": 36,
        "time": 88.25,
        "duration": 0.25,
        "velocity": 0.86,
        "hand": "left"
      },
      {
        "midi": 48,
        "time": 88.25,
        "duration": 0.25,
        "velocity": 0.54,
        "hand": "left"
      },
      {
        "midi": 51,
        "time": 88.375,
        "duration": 0.063,
        "velocity": 0.61,
        "hand": "left"
      },
      {
        "midi": 41,
        "time": 88.5,
        "duration": 0.985,
        "velocity": 0.86,
        "hand": "left"
      },
      {
        "midi": 47,
        "time": 88.5,
        "duration": 0.063,
        "velocity": 0.81,
        "hand": "left"
      },
      {
        "midi": 38,
        "time": 88.875,
        "duration": 0.063,
        "velocity": 0.97,
        "hand": "left"
      },
      {
        "midi": 51,
        "time": 88.875,
        "duration": 0.063,
        "velocity": 0.61,
        "hand": "left"
      },
      {
        "midi": 60,
        "time": 88.875,
        "duration": 0.11,
        "velocity": 0.54,
        "hand": "right"
      },
      {
        "midi": 63,
        "time": 88.875,
        "duration": 0.11,
        "velocity": 0.5,
        "hand": "right"
      },
      {
        "midi": 65,
        "time": 88.875,
        "duration": 0.063,
        "velocity": 0.41,
        "hand": "right"
      },
      {
        "midi": 38,
        "time": 89,
        "duration": 0.063,
        "velocity": 0.69,
        "hand": "left"
      },
      {
        "midi": 44,
        "time": 89,
        "duration": 0.5,
        "velocity": 0.99,
        "hand": "left"
      },
      {
        "midi": 60,
        "time": 89,
        "duration": 0.485,
        "velocity": 0.63,
        "hand": "right"
      },
      {
        "midi": 63,
        "time": 89,
        "duration": 0.125,
        "velocity": 0.54,
        "hand": "right"
      },
      {
        "midi": 65,
        "time": 89,
        "duration": 0.125,
        "velocity": 0.53,
        "hand": "right"
      },
      {
        "midi": 65,
        "time": 89.25,
        "duration": 0.235,
        "velocity": 0.53,
        "hand": "right"
      },
      {
        "midi": 51,
        "time": 89.375,
        "duration": 0.063,
        "velocity": 0.61,
        "hand": "left"
      },
      {
        "midi": 38,
        "time": 89.5,
        "duration": 0.063,
        "velocity": 0.91,
        "hand": "left"
      },
      {
        "midi": 41,
        "time": 89.5,
        "duration": 0.375,
        "velocity": 0.91,
        "hand": "left"
      },
      {
        "midi": 60,
        "time": 89.5,
        "duration": 0.125,
        "velocity": 0.55,
        "hand": "right"
      },
      {
        "midi": 63,
        "time": 89.5,
        "duration": 0.125,
        "velocity": 0.56,
        "hand": "right"
      },
      {
        "midi": 65,
        "time": 89.5,
        "duration": 0.125,
        "velocity": 0.51,
        "hand": "right"
      },
      {
        "midi": 48,
        "time": 89.75,
        "duration": 0.25,
        "velocity": 0.41,
        "hand": "left"
      },
      {
        "midi": 65,
        "time": 89.75,
        "duration": 0.25,
        "velocity": 0.46,
        "hand": "right"
      },
      {
        "midi": 51,
        "time": 89.875,
        "duration": 0.063,
        "velocity": 0.61,
        "hand": "left"
      },
      {
        "midi": 43,
        "time": 90,
        "duration": 1,
        "velocity": 1,
        "hand": "left"
      },
      {
        "midi": 47,
        "time": 90,
        "duration": 0.063,
        "velocity": 0.73,
        "hand": "left"
      },
      {
        "midi": 62,
        "time": 90,
        "duration": 0.36,
        "velocity": 0.32,
        "hand": "right"
      },
      {
        "midi": 68,
        "time": 90,
        "duration": 1,
        "velocity": 0.89,
        "hand": "right"
      },
      {
        "midi": 59,
        "time": 90.25,
        "duration": 0.11,
        "velocity": 0.5,
        "hand": "left"
      },
      {
        "midi": 47,
        "time": 90.375,
        "duration": 0.75,
        "velocity": 0.39,
        "hand": "left"
      },
      {
        "midi": 51,
        "time": 90.375,
        "duration": 0.063,
        "velocity": 0.61,
        "hand": "left"
      },
      {
        "midi": 62,
        "time": 90.375,
        "duration": 0.063,
        "velocity": 0.65,
        "hand": "right"
      },
      {
        "midi": 65,
        "time": 90.375,
        "duration": 0.11,
        "velocity": 0.61,
        "hand": "right"
      },
      {
        "midi": 67,
        "time": 90.375,
        "duration": 0.11,
        "velocity": 0.44,
        "hand": "right"
      },
      {
        "midi": 38,
        "time": 90.5,
        "duration": 0.063,
        "velocity": 0.83,
        "hand": "left"
      },
      {
        "midi": 51,
        "time": 90.5,
        "duration": 0.063,
        "velocity": 0.61,
        "hand": "left"
      },
      {
        "midi": 62,
        "time": 90.5,
        "duration": 0.25,
        "velocity": 0.68,
        "hand": "right"
      },
      {
        "midi": 65,
        "time": 90.5,
        "duration": 0.063,
        "velocity": 0.61,
        "hand": "right"
      },
      {
        "midi": 67,
        "time": 90.5,
        "duration": 0.125,
        "velocity": 0.57,
        "hand": "right"
      },
      {
        "midi": 51,
        "time": 90.875,
        "duration": 0.063,
        "velocity": 0.61,
        "hand": "left"
      },
      {
        "midi": 55,
        "time": 90.875,
        "duration": 0.11,
        "velocity": 0.2,
        "hand": "left"
      },
      {
        "midi": 38,
        "time": 91,
        "duration": 0.5,
        "velocity": 0.95,
        "hand": "left"
      },
      {
        "midi": 50,
        "time": 91,
        "duration": 0.5,
        "velocity": 0.39,
        "hand": "left"
      },
      {
        "midi": 62,
        "time": 91,
        "duration": 0.375,
        "velocity": 0.65,
        "hand": "right"
      },
      {
        "midi": 65,
        "time": 91,
        "duration": 0.125,
        "velocity": 0.72,
        "hand": "right"
      },
      {
        "midi": 67,
        "time": 91,
        "duration": 0.375,
        "velocity": 0.86,
        "hand": "right"
      },
      {
        "midi": 51,
        "time": 91.375,
        "duration": 0.063,
        "velocity": 0.61,
        "hand": "left"
      },
      {
        "midi": 43,
        "time": 91.5,
        "duration": 1.125,
        "velocity": 0.91,
        "hand": "left"
      },
      {
        "midi": 47,
        "time": 91.5,
        "duration": 0.063,
        "velocity": 0.72,
        "hand": "left"
      },
      {
        "midi": 62,
        "time": 91.5,
        "duration": 0.36,
        "velocity": 0.5,
        "hand": "right"
      },
      {
        "midi": 65,
        "time": 91.5,
        "duration": 0.36,
        "velocity": 0.5,
        "hand": "right"
      },
      {
        "midi": 67,
        "time": 91.5,
        "duration": 0.36,
        "velocity": 0.69,
        "hand": "right"
      },
      {
        "midi": 38,
        "time": 91.875,
        "duration": 0.063,
        "velocity": 0.97,
        "hand": "left"
      },
      {
        "midi": 51,
        "time": 91.875,
        "duration": 0.063,
        "velocity": 0.61,
        "hand": "left"
      },
      {
        "midi": 62,
        "time": 91.875,
        "duration": 0.11,
        "velocity": 0.58,
        "hand": "right"
      },
      {
        "midi": 65,
        "time": 91.875,
        "duration": 0.11,
        "velocity": 0.56,
        "hand": "right"
      },
      {
        "midi": 67,
        "time": 91.875,
        "duration": 0.11,
        "velocity": 0.51,
        "hand": "right"
      },
      {
        "midi": 38,
        "time": 92,
        "duration": 0.063,
        "velocity": 0.7,
        "hand": "left"
      },
      {
        "midi": 45,
        "time": 92,
        "duration": 0.625,
        "velocity": 0.96,
        "hand": "left"
      },
      {
        "midi": 62,
        "time": 92,
        "duration": 0.063,
        "velocity": 0.72,
        "hand": "right"
      },
      {
        "midi": 65,
        "time": 92,
        "duration": 0.485,
        "velocity": 0.72,
        "hand": "right"
      },
      {
        "midi": 67,
        "time": 92,
        "duration": 0.125,
        "velocity": 0.56,
        "hand": "right"
      },
      {
        "midi": 51,
        "time": 92.125,
        "duration": 0.063,
        "velocity": 0.61,
        "hand": "left"
      },
      {
        "midi": 51,
        "time": 92.375,
        "duration": 0.063,
        "velocity": 0.61,
        "hand": "left"
      },
      {
        "midi": 38,
        "time": 92.5,
        "duration": 0.063,
        "velocity": 0.9,
        "hand": "left"
      },
      {
        "midi": 47,
        "time": 92.5,
        "duration": 0.375,
        "velocity": 0.75,
        "hand": "left"
      },
      {
        "midi": 62,
        "time": 92.5,
        "duration": 0.5,
        "velocity": 0.74,
        "hand": "right"
      },
      {
        "midi": 65,
        "time": 92.5,
        "duration": 0.25,
        "velocity": 0.72,
        "hand": "right"
      },
      {
        "midi": 67,
        "time": 92.5,
        "duration": 0.125,
        "velocity": 0.61,
        "hand": "right"
      },
      {
        "midi": 51,
        "time": 92.875,
        "duration": 0.063,
        "velocity": 0.61,
        "hand": "left"
      },
      {
        "midi": 55,
        "time": 92.875,
        "duration": 0.11,
        "velocity": 0.28,
        "hand": "left"
      },
      {
        "midi": 36,
        "time": 93,
        "duration": 1.125,
        "velocity": 0.94,
        "hand": "left"
      },
      {
        "midi": 47,
        "time": 93,
        "duration": 0.063,
        "velocity": 0.77,
        "hand": "left"
      },
      {
        "midi": 60,
        "time": 93,
        "duration": 0.36,
        "velocity": 0.67,
        "hand": "right"
      },
      {
        "midi": 63,
        "time": 93,
        "duration": 0.36,
        "velocity": 0.5,
        "hand": "right"
      },
      {
        "midi": 67,
        "time": 93,
        "duration": 0.36,
        "velocity": 0.49,
        "hand": "right"
      },
      {
        "midi": 51,
        "time": 93.375,
        "duration": 0.063,
        "velocity": 0.61,
        "hand": "left"
      },
      {
        "midi": 60,
        "time": 93.375,
        "duration": 0.11,
        "velocity": 0.63,
        "hand": "right"
      },
      {
        "midi": 63,
        "time": 93.375,
        "duration": 0.063,
        "velocity": 0.72,
        "hand": "right"
      },
      {
        "midi": 67,
        "time": 93.375,
        "duration": 0.11,
        "velocity": 0.56,
        "hand": "right"
      },
      {
        "midi": 38,
        "time": 93.5,
        "duration": 0.063,
        "velocity": 0.8,
        "hand": "left"
      },
      {
        "midi": 51,
        "time": 93.5,
        "duration": 0.063,
        "velocity": 0.61,
        "hand": "left"
      },
      {
        "midi": 60,
        "time": 93.5,
        "duration": 0.125,
        "velocity": 0.59,
        "hand": "right"
      },
      {
        "midi": 63,
        "time": 93.5,
        "duration": 0.125,
        "velocity": 0.68,
        "hand": "right"
      },
      {
        "midi": 67,
        "time": 93.5,
        "duration": 0.125,
        "velocity": 0.54,
        "hand": "right"
      },
      {
        "midi": 51,
        "time": 93.875,
        "duration": 0.063,
        "velocity": 0.61,
        "hand": "left"
      },
      {
        "midi": 38,
        "time": 94,
        "duration": 0.063,
        "velocity": 0.91,
        "hand": "left"
      },
      {
        "midi": 43,
        "time": 94,
        "duration": 0.25,
        "velocity": 0.8,
        "hand": "left"
      },
      {
        "midi": 60,
        "time": 94,
        "duration": 0.125,
        "velocity": 0.56,
        "hand": "right"
      },
      {
        "midi": 63,
        "time": 94,
        "duration": 0.125,
        "velocity": 0.57,
        "hand": "right"
      },
      {
        "midi": 67,
        "time": 94,
        "duration": 0.125,
        "velocity": 0.55,
        "hand": "right"
      },
      {
        "midi": 36,
        "time": 94.25,
        "duration": 0.25,
        "velocity": 0.87,
        "hand": "left"
      },
      {
        "midi": 51,
        "time": 94.375,
        "duration": 0.063,
        "velocity": 0.61,
        "hand": "left"
      },
      {
        "midi": 38,
        "time": 94.5,
        "duration": 0.36,
        "velocity": 0.56,
        "hand": "left"
      },
      {
        "midi": 47,
        "time": 94.5,
        "duration": 0.063,
        "velocity": 0.75,
        "hand": "left"
      },
      {
        "midi": 60,
        "time": 94.5,
        "duration": 0.375,
        "velocity": 0.5,
        "hand": "right"
      },
      {
        "midi": 62,
        "time": 94.5,
        "duration": 0.375,
        "velocity": 0.55,
        "hand": "right"
      },
      {
        "midi": 65,
        "time": 94.5,
        "duration": 0.5,
        "velocity": 0.57,
        "hand": "right"
      },
      {
        "midi": 38,
        "time": 94.875,
        "duration": 0.063,
        "velocity": 0.91,
        "hand": "left"
      },
      {
        "midi": 51,
        "time": 94.875,
        "duration": 0.063,
        "velocity": 0.61,
        "hand": "left"
      },
      {
        "midi": 38,
        "time": 95,
        "duration": 0.063,
        "velocity": 0.91,
        "hand": "left"
      },
      {
        "midi": 43,
        "time": 95,
        "duration": 0.375,
        "velocity": 0.56,
        "hand": "left"
      },
      {
        "midi": 63,
        "time": 95,
        "duration": 0.485,
        "velocity": 0.45,
        "hand": "right"
      },
      {
        "midi": 67,
        "time": 95,
        "duration": 0.375,
        "velocity": 0.42,
        "hand": "right"
      },
      {
        "midi": 39,
        "time": 95.25,
        "duration": 0.063,
        "velocity": 0.91,
        "hand": "left"
      },
      {
        "midi": 51,
        "time": 95.375,
        "duration": 0.063,
        "velocity": 0.61,
        "hand": "left"
      },
      {
        "midi": 38,
        "time": 95.5,
        "duration": 0.063,
        "velocity": 0.93,
        "hand": "left"
      },
      {
        "midi": 43,
        "time": 95.5,
        "duration": 0.375,
        "velocity": 0.96,
        "hand": "left"
      },
      {
        "midi": 63,
        "time": 95.5,
        "duration": 0.125,
        "velocity": 0.48,
        "hand": "right"
      },
      {
        "midi": 67,
        "time": 95.5,
        "duration": 0.25,
        "velocity": 0.25,
        "hand": "right"
      },
      {
        "midi": 39,
        "time": 95.75,
        "duration": 0.063,
        "velocity": 0.72,
        "hand": "left"
      },
      {
        "midi": 51,
        "time": 95.875,
        "duration": 0.063,
        "velocity": 0.61,
        "hand": "left"
      },
      {
        "midi": 36,
        "time": 96,
        "duration": 1.125,
        "velocity": 0.97,
        "hand": "left"
      },
      {
        "midi": 38,
        "time": 96,
        "duration": 0.063,
        "velocity": 0.83,
        "hand": "left"
      },
      {
        "midi": 60,
        "time": 96,
        "duration": 0.875,
        "velocity": 0.51,
        "hand": "right"
      },
      {
        "midi": 63,
        "time": 96,
        "duration": 0.875,
        "velocity": 0.51,
        "hand": "right"
      },
      {
        "midi": 67,
        "time": 96,
        "duration": 0.875,
        "velocity": 0.63,
        "hand": "right"
      }
    ]
  },
  "notes1Hand": [
    {
      "midi": 67,
      "time": 0,
      "duration": 0.45,
      "velocity": 0.57,
      "hand": "right"
    },
    {
      "midi": 55,
      "time": 0.75,
      "duration": 0.45,
      "velocity": 0.59,
      "hand": "right"
    },
    {
      "midi": 75,
      "time": 1.5,
      "duration": 0.5,
      "velocity": 0.84,
      "hand": "right"
    },
    {
      "midi": 63,
      "time": 2.375,
      "duration": 0.45,
      "velocity": 0.61,
      "hand": "right"
    },
    {
      "midi": 65,
      "time": 3.375,
      "duration": 0.45,
      "velocity": 0.39,
      "hand": "right"
    },
    {
      "midi": 65,
      "time": 4.25,
      "duration": 0.45,
      "velocity": 0.5,
      "hand": "right"
    },
    {
      "midi": 65,
      "time": 5,
      "duration": 0.45,
      "velocity": 0.45,
      "hand": "right"
    },
    {
      "midi": 63,
      "time": 5.875,
      "duration": 0.45,
      "velocity": 0.61,
      "hand": "right"
    },
    {
      "midi": 65,
      "time": 6.75,
      "duration": 0.625,
      "velocity": 0.61,
      "hand": "right"
    },
    {
      "midi": 74,
      "time": 7.5,
      "duration": 0.5,
      "velocity": 0.75,
      "hand": "right"
    },
    {
      "midi": 63,
      "time": 8.375,
      "duration": 0.45,
      "velocity": 0.61,
      "hand": "right"
    },
    {
      "midi": 63,
      "time": 9.375,
      "duration": 0.45,
      "velocity": 0.54,
      "hand": "right"
    },
    {
      "midi": 63,
      "time": 10.375,
      "duration": 0.45,
      "velocity": 0.61,
      "hand": "right"
    },
    {
      "midi": 63,
      "time": 11.125,
      "duration": 0.45,
      "velocity": 0.61,
      "hand": "right"
    },
    {
      "midi": 55,
      "time": 11.875,
      "duration": 0.485,
      "velocity": 0.41,
      "hand": "right"
    },
    {
      "midi": 63,
      "time": 12.875,
      "duration": 0.45,
      "velocity": 0.61,
      "hand": "right"
    },
    {
      "midi": 67,
      "time": 13.875,
      "duration": 0.45,
      "velocity": 0.52,
      "hand": "right"
    },
    {
      "midi": 63,
      "time": 14.875,
      "duration": 0.45,
      "velocity": 0.61,
      "hand": "right"
    },
    {
      "midi": 63,
      "time": 15.875,
      "duration": 0.45,
      "velocity": 0.61,
      "hand": "right"
    },
    {
      "midi": 65,
      "time": 16.875,
      "duration": 0.45,
      "velocity": 0.41,
      "hand": "right"
    },
    {
      "midi": 65,
      "time": 17.75,
      "duration": 0.45,
      "velocity": 0.46,
      "hand": "right"
    },
    {
      "midi": 67,
      "time": 18.5,
      "duration": 0.45,
      "velocity": 0.57,
      "hand": "right"
    },
    {
      "midi": 63,
      "time": 19.375,
      "duration": 0.45,
      "velocity": 0.61,
      "hand": "right"
    },
    {
      "midi": 63,
      "time": 20.125,
      "duration": 0.45,
      "velocity": 0.61,
      "hand": "right"
    },
    {
      "midi": 55,
      "time": 20.875,
      "duration": 0.45,
      "velocity": 0.28,
      "hand": "right"
    },
    {
      "midi": 63,
      "time": 21.875,
      "duration": 0.45,
      "velocity": 0.61,
      "hand": "right"
    },
    {
      "midi": 62,
      "time": 22.75,
      "duration": 0.45,
      "velocity": 0.91,
      "hand": "right"
    },
    {
      "midi": 67,
      "time": 23.5,
      "duration": 0.45,
      "velocity": 0.25,
      "hand": "right"
    },
    {
      "midi": 63,
      "time": 24.25,
      "duration": 0.45,
      "velocity": 0.8,
      "hand": "right"
    },
    {
      "midi": 67,
      "time": 25,
      "duration": 0.45,
      "velocity": 0.54,
      "hand": "right"
    },
    {
      "midi": 67,
      "time": 25.875,
      "duration": 0.45,
      "velocity": 0.34,
      "hand": "right"
    },
    {
      "midi": 55,
      "time": 26.75,
      "duration": 0.45,
      "velocity": 0.54,
      "hand": "right"
    },
    {
      "midi": 67,
      "time": 27.5,
      "duration": 0.5,
      "velocity": 0.52,
      "hand": "right"
    },
    {
      "midi": 64,
      "time": 28.25,
      "duration": 0.45,
      "velocity": 0.54,
      "hand": "right"
    },
    {
      "midi": 65,
      "time": 29,
      "duration": 0.45,
      "velocity": 0.52,
      "hand": "right"
    },
    {
      "midi": 60,
      "time": 29.75,
      "duration": 0.45,
      "velocity": 0.59,
      "hand": "right"
    },
    {
      "midi": 68,
      "time": 30.5,
      "duration": 0.5,
      "velocity": 0.61,
      "hand": "right"
    },
    {
      "midi": 65,
      "time": 31.25,
      "duration": 0.45,
      "velocity": 0.56,
      "hand": "right"
    },
    {
      "midi": 67,
      "time": 32,
      "duration": 0.485,
      "velocity": 0.54,
      "hand": "right"
    },
    {
      "midi": 55,
      "time": 32.75,
      "duration": 0.45,
      "velocity": 0.57,
      "hand": "right"
    },
    {
      "midi": 67,
      "time": 33.5,
      "duration": 0.45,
      "velocity": 0.52,
      "hand": "right"
    },
    {
      "midi": 62,
      "time": 34.25,
      "duration": 0.45,
      "velocity": 0.57,
      "hand": "right"
    },
    {
      "midi": 65,
      "time": 35,
      "duration": 0.45,
      "velocity": 0.53,
      "hand": "right"
    },
    {
      "midi": 67,
      "time": 35.75,
      "duration": 0.45,
      "velocity": 0.5,
      "hand": "right"
    },
    {
      "midi": 67,
      "time": 36.5,
      "duration": 0.45,
      "velocity": 0.48,
      "hand": "right"
    },
    {
      "midi": 67,
      "time": 37.25,
      "duration": 0.45,
      "velocity": 0.52,
      "hand": "right"
    },
    {
      "midi": 67,
      "time": 38,
      "duration": 0.45,
      "velocity": 0.28,
      "hand": "right"
    },
    {
      "midi": 55,
      "time": 38.75,
      "duration": 0.45,
      "velocity": 0.54,
      "hand": "right"
    },
    {
      "midi": 67,
      "time": 39.5,
      "duration": 0.5,
      "velocity": 0.52,
      "hand": "right"
    },
    {
      "midi": 64,
      "time": 40.25,
      "duration": 0.45,
      "velocity": 0.54,
      "hand": "right"
    },
    {
      "midi": 65,
      "time": 41,
      "duration": 0.45,
      "velocity": 0.52,
      "hand": "right"
    },
    {
      "midi": 60,
      "time": 41.75,
      "duration": 0.45,
      "velocity": 0.59,
      "hand": "right"
    },
    {
      "midi": 68,
      "time": 42.5,
      "duration": 0.5,
      "velocity": 0.61,
      "hand": "right"
    },
    {
      "midi": 65,
      "time": 43.25,
      "duration": 0.45,
      "velocity": 0.56,
      "hand": "right"
    },
    {
      "midi": 67,
      "time": 44,
      "duration": 0.485,
      "velocity": 0.54,
      "hand": "right"
    },
    {
      "midi": 55,
      "time": 44.75,
      "duration": 0.45,
      "velocity": 0.57,
      "hand": "right"
    },
    {
      "midi": 67,
      "time": 45.5,
      "duration": 0.45,
      "velocity": 0.52,
      "hand": "right"
    },
    {
      "midi": 62,
      "time": 46.25,
      "duration": 0.45,
      "velocity": 0.57,
      "hand": "right"
    },
    {
      "midi": 65,
      "time": 47,
      "duration": 0.45,
      "velocity": 0.53,
      "hand": "right"
    },
    {
      "midi": 67,
      "time": 47.75,
      "duration": 0.45,
      "velocity": 0.65,
      "hand": "right"
    },
    {
      "midi": 67,
      "time": 48.5,
      "duration": 0.45,
      "velocity": 0.48,
      "hand": "right"
    },
    {
      "midi": 67,
      "time": 49.25,
      "duration": 0.45,
      "velocity": 0.68,
      "hand": "right"
    },
    {
      "midi": 67,
      "time": 50,
      "duration": 0.45,
      "velocity": 0.28,
      "hand": "right"
    },
    {
      "midi": 55,
      "time": 50.75,
      "duration": 0.45,
      "velocity": 0.54,
      "hand": "right"
    },
    {
      "midi": 67,
      "time": 51.5,
      "duration": 0.5,
      "velocity": 0.68,
      "hand": "right"
    },
    {
      "midi": 64,
      "time": 52.25,
      "duration": 0.45,
      "velocity": 0.7,
      "hand": "right"
    },
    {
      "midi": 65,
      "time": 53,
      "duration": 0.45,
      "velocity": 0.52,
      "hand": "right"
    },
    {
      "midi": 60,
      "time": 53.75,
      "duration": 0.45,
      "velocity": 0.59,
      "hand": "right"
    },
    {
      "midi": 68,
      "time": 54.5,
      "duration": 0.5,
      "velocity": 0.77,
      "hand": "right"
    },
    {
      "midi": 65,
      "time": 55.25,
      "duration": 0.45,
      "velocity": 0.72,
      "hand": "right"
    },
    {
      "midi": 67,
      "time": 56,
      "duration": 0.485,
      "velocity": 0.69,
      "hand": "right"
    },
    {
      "midi": 66,
      "time": 56.75,
      "duration": 0.45,
      "velocity": 0.54,
      "hand": "right"
    },
    {
      "midi": 67,
      "time": 57.5,
      "duration": 0.45,
      "velocity": 0.52,
      "hand": "right"
    },
    {
      "midi": 62,
      "time": 58.25,
      "duration": 0.45,
      "velocity": 0.72,
      "hand": "right"
    },
    {
      "midi": 65,
      "time": 59,
      "duration": 0.45,
      "velocity": 0.53,
      "hand": "right"
    },
    {
      "midi": 67,
      "time": 59.75,
      "duration": 0.45,
      "velocity": 0.65,
      "hand": "right"
    },
    {
      "midi": 67,
      "time": 60.5,
      "duration": 0.45,
      "velocity": 0.48,
      "hand": "right"
    },
    {
      "midi": 67,
      "time": 61.25,
      "duration": 0.45,
      "velocity": 0.68,
      "hand": "right"
    },
    {
      "midi": 79,
      "time": 62,
      "duration": 0.5,
      "velocity": 0.74,
      "hand": "right"
    },
    {
      "midi": 55,
      "time": 62.75,
      "duration": 0.45,
      "velocity": 0.54,
      "hand": "right"
    },
    {
      "midi": 77,
      "time": 63.5,
      "duration": 0.5,
      "velocity": 0.75,
      "hand": "right"
    },
    {
      "midi": 64,
      "time": 64.25,
      "duration": 0.45,
      "velocity": 0.7,
      "hand": "right"
    },
    {
      "midi": 80,
      "time": 65,
      "duration": 0.875,
      "velocity": 0.57,
      "hand": "right"
    },
    {
      "midi": 60,
      "time": 65.75,
      "duration": 0.45,
      "velocity": 0.59,
      "hand": "right"
    },
    {
      "midi": 82,
      "time": 66.5,
      "duration": 0.45,
      "velocity": 0.74,
      "hand": "right"
    },
    {
      "midi": 65,
      "time": 67.25,
      "duration": 0.45,
      "velocity": 0.72,
      "hand": "right"
    },
    {
      "midi": 84,
      "time": 68,
      "duration": 0.5,
      "velocity": 0.57,
      "hand": "right"
    },
    {
      "midi": 66,
      "time": 68.75,
      "duration": 0.45,
      "velocity": 0.54,
      "hand": "right"
    },
    {
      "midi": 83,
      "time": 69.5,
      "duration": 0.5,
      "velocity": 0.61,
      "hand": "right"
    },
    {
      "midi": 62,
      "time": 70.25,
      "duration": 0.45,
      "velocity": 0.72,
      "hand": "right"
    },
    {
      "midi": 65,
      "time": 71,
      "duration": 0.45,
      "velocity": 0.53,
      "hand": "right"
    },
    {
      "midi": 63,
      "time": 71.75,
      "duration": 0.45,
      "velocity": 0.72,
      "hand": "right"
    },
    {
      "midi": 67,
      "time": 72.5,
      "duration": 0.45,
      "velocity": 0.52,
      "hand": "right"
    },
    {
      "midi": 63,
      "time": 73.25,
      "duration": 0.45,
      "velocity": 0.5,
      "hand": "right"
    },
    {
      "midi": 74,
      "time": 74,
      "duration": 0.5,
      "velocity": 0.7,
      "hand": "right"
    },
    {
      "midi": 63,
      "time": 74.875,
      "duration": 0.45,
      "velocity": 0.61,
      "hand": "right"
    },
    {
      "midi": 56,
      "time": 75.75,
      "duration": 0.45,
      "velocity": 0.78,
      "hand": "right"
    },
    {
      "midi": 67,
      "time": 76.5,
      "duration": 0.875,
      "velocity": 0.5,
      "hand": "right"
    },
    {
      "midi": 63,
      "time": 77.375,
      "duration": 0.45,
      "velocity": 0.61,
      "hand": "right"
    },
    {
      "midi": 58,
      "time": 78.25,
      "duration": 0.5,
      "velocity": 0.7,
      "hand": "right"
    },
    {
      "midi": 65,
      "time": 79,
      "duration": 0.45,
      "velocity": 0.5,
      "hand": "right"
    },
    {
      "midi": 62,
      "time": 79.875,
      "duration": 0.45,
      "velocity": 0.57,
      "hand": "right"
    },
    {
      "midi": 63,
      "time": 80.875,
      "duration": 0.45,
      "velocity": 0.61,
      "hand": "right"
    },
    {
      "midi": 63,
      "time": 81.875,
      "duration": 0.45,
      "velocity": 0.61,
      "hand": "right"
    },
    {
      "midi": 63,
      "time": 82.875,
      "duration": 0.45,
      "velocity": 0.57,
      "hand": "right"
    },
    {
      "midi": 55,
      "time": 83.875,
      "duration": 0.485,
      "velocity": 0.41,
      "hand": "right"
    },
    {
      "midi": 63,
      "time": 84.875,
      "duration": 0.45,
      "velocity": 0.61,
      "hand": "right"
    },
    {
      "midi": 67,
      "time": 85.875,
      "duration": 0.45,
      "velocity": 0.52,
      "hand": "right"
    },
    {
      "midi": 63,
      "time": 86.875,
      "duration": 0.45,
      "velocity": 0.61,
      "hand": "right"
    },
    {
      "midi": 63,
      "time": 87.875,
      "duration": 0.45,
      "velocity": 0.61,
      "hand": "right"
    },
    {
      "midi": 65,
      "time": 88.875,
      "duration": 0.45,
      "velocity": 0.41,
      "hand": "right"
    },
    {
      "midi": 65,
      "time": 89.75,
      "duration": 0.45,
      "velocity": 0.46,
      "hand": "right"
    },
    {
      "midi": 67,
      "time": 90.5,
      "duration": 0.45,
      "velocity": 0.57,
      "hand": "right"
    },
    {
      "midi": 63,
      "time": 91.375,
      "duration": 0.45,
      "velocity": 0.61,
      "hand": "right"
    },
    {
      "midi": 63,
      "time": 92.125,
      "duration": 0.45,
      "velocity": 0.61,
      "hand": "right"
    },
    {
      "midi": 55,
      "time": 92.875,
      "duration": 0.45,
      "velocity": 0.28,
      "hand": "right"
    },
    {
      "midi": 63,
      "time": 93.875,
      "duration": 0.45,
      "velocity": 0.61,
      "hand": "right"
    },
    {
      "midi": 63,
      "time": 94.875,
      "duration": 0.45,
      "velocity": 0.61,
      "hand": "right"
    },
    {
      "midi": 63,
      "time": 95.75,
      "duration": 0.45,
      "velocity": 0.72,
      "hand": "right"
    }
  ],
  "notes2Hands": [
    {
      "midi": 36,
      "time": 0,
      "duration": 1.25,
      "velocity": 0.96,
      "hand": "left"
    },
    {
      "midi": 47,
      "time": 0,
      "duration": 0.063,
      "velocity": 0.73,
      "hand": "left"
    },
    {
      "midi": 60,
      "time": 0,
      "duration": 0.36,
      "velocity": 0.76,
      "hand": "right"
    },
    {
      "midi": 63,
      "time": 0,
      "duration": 0.36,
      "velocity": 0.91,
      "hand": "right"
    },
    {
      "midi": 67,
      "time": 0,
      "duration": 0.36,
      "velocity": 0.57,
      "hand": "right"
    },
    {
      "midi": 51,
      "time": 0.375,
      "duration": 0.063,
      "velocity": 0.61,
      "hand": "left"
    },
    {
      "midi": 55,
      "time": 0.375,
      "duration": 0.11,
      "velocity": 0.52,
      "hand": "left"
    },
    {
      "midi": 60,
      "time": 0.375,
      "duration": 0.11,
      "velocity": 0.57,
      "hand": "right"
    },
    {
      "midi": 63,
      "time": 0.375,
      "duration": 0.063,
      "velocity": 0.54,
      "hand": "right"
    },
    {
      "midi": 67,
      "time": 0.375,
      "duration": 0.11,
      "velocity": 0.52,
      "hand": "right"
    },
    {
      "midi": 38,
      "time": 0.5,
      "duration": 0.063,
      "velocity": 0.83,
      "hand": "left"
    },
    {
      "midi": 48,
      "time": 0.5,
      "duration": 2.5,
      "velocity": 0.51,
      "hand": "left"
    },
    {
      "midi": 60,
      "time": 0.5,
      "duration": 0.063,
      "velocity": 0.61,
      "hand": "right"
    },
    {
      "midi": 63,
      "time": 0.5,
      "duration": 0.063,
      "velocity": 0.55,
      "hand": "right"
    },
    {
      "midi": 67,
      "time": 0.5,
      "duration": 0.125,
      "velocity": 0.52,
      "hand": "right"
    },
    {
      "midi": 55,
      "time": 0.75,
      "duration": 0.235,
      "velocity": 0.59,
      "hand": "left"
    },
    {
      "midi": 51,
      "time": 0.875,
      "duration": 0.063,
      "velocity": 0.61,
      "hand": "left"
    },
    {
      "midi": 38,
      "time": 1,
      "duration": 0.063,
      "velocity": 0.91,
      "hand": "left"
    },
    {
      "midi": 51,
      "time": 1,
      "duration": 0.063,
      "velocity": 0.61,
      "hand": "left"
    },
    {
      "midi": 60,
      "time": 1,
      "duration": 0.375,
      "velocity": 0.68,
      "hand": "right"
    },
    {
      "midi": 63,
      "time": 1,
      "duration": 0.125,
      "velocity": 0.64,
      "hand": "right"
    },
    {
      "midi": 67,
      "time": 1,
      "duration": 0.125,
      "velocity": 0.55,
      "hand": "right"
    },
    {
      "midi": 43,
      "time": 1.25,
      "duration": 0.25,
      "velocity": 0.94,
      "hand": "left"
    },
    {
      "midi": 63,
      "time": 1.25,
      "duration": 0.125,
      "velocity": 0.5,
      "hand": "right"
    },
    {
      "midi": 51,
      "time": 1.375,
      "duration": 0.063,
      "velocity": 0.61,
      "hand": "left"
    },
    {
      "midi": 36,
      "time": 1.5,
      "duration": 0.875,
      "velocity": 0.96,
      "hand": "left"
    },
    {
      "midi": 47,
      "time": 1.5,
      "duration": 0.063,
      "velocity": 0.72,
      "hand": "left"
    },
    {
      "midi": 60,
      "time": 1.5,
      "duration": 0.36,
      "velocity": 0.56,
      "hand": "right"
    },
    {
      "midi": 63,
      "time": 1.5,
      "duration": 0.36,
      "velocity": 0.55,
      "hand": "right"
    },
    {
      "midi": 67,
      "time": 1.5,
      "duration": 0.36,
      "velocity": 0.57,
      "hand": "right"
    },
    {
      "midi": 75,
      "time": 1.5,
      "duration": 0.5,
      "velocity": 0.84,
      "hand": "right"
    },
    {
      "midi": 38,
      "time": 1.875,
      "duration": 0.063,
      "velocity": 0.97,
      "hand": "left"
    },
    {
      "midi": 51,
      "time": 1.875,
      "duration": 0.063,
      "velocity": 0.61,
      "hand": "left"
    },
    {
      "midi": 60,
      "time": 1.875,
      "duration": 0.063,
      "velocity": 0.57,
      "hand": "right"
    },
    {
      "midi": 63,
      "time": 1.875,
      "duration": 0.063,
      "velocity": 0.57,
      "hand": "right"
    },
    {
      "midi": 67,
      "time": 1.875,
      "duration": 0.11,
      "velocity": 0.51,
      "hand": "right"
    },
    {
      "midi": 38,
      "time": 2,
      "duration": 0.063,
      "velocity": 0.7,
      "hand": "left"
    },
    {
      "midi": 51,
      "time": 2,
      "duration": 0.063,
      "velocity": 0.61,
      "hand": "left"
    },
    {
      "midi": 60,
      "time": 2,
      "duration": 0.063,
      "velocity": 0.57,
      "hand": "right"
    },
    {
      "midi": 63,
      "time": 2,
      "duration": 0.063,
      "velocity": 0.64,
      "hand": "right"
    },
    {
      "midi": 67,
      "time": 2,
      "duration": 0.125,
      "velocity": 0.48,
      "hand": "right"
    },
    {
      "midi": 74,
      "time": 2,
      "duration": 0.5,
      "velocity": 0.7,
      "hand": "right"
    },
    {
      "midi": 51,
      "time": 2.375,
      "duration": 0.063,
      "velocity": 0.61,
      "hand": "left"
    },
    {
      "midi": 38,
      "time": 2.5,
      "duration": 0.063,
      "velocity": 0.9,
      "hand": "left"
    },
    {
      "midi": 43,
      "time": 2.5,
      "duration": 0.375,
      "velocity": 0.93,
      "hand": "left"
    },
    {
      "midi": 60,
      "time": 2.5,
      "duration": 0.375,
      "velocity": 0.68,
      "hand": "right"
    },
    {
      "midi": 63,
      "time": 2.5,
      "duration": 0.375,
      "velocity": 0.7,
      "hand": "right"
    },
    {
      "midi": 67,
      "time": 2.5,
      "duration": 0.25,
      "velocity": 0.57,
      "hand": "right"
    },
    {
      "midi": 72,
      "time": 2.5,
      "duration": 0.5,
      "velocity": 0.71,
      "hand": "right"
    },
    {
      "midi": 51,
      "time": 2.875,
      "duration": 0.063,
      "velocity": 0.61,
      "hand": "left"
    },
    {
      "midi": 41,
      "time": 3,
      "duration": 1.485,
      "velocity": 0.83,
      "hand": "left"
    },
    {
      "midi": 47,
      "time": 3,
      "duration": 0.063,
      "velocity": 0.77,
      "hand": "left"
    },
    {
      "midi": 60,
      "time": 3,
      "duration": 0.36,
      "velocity": 0.55,
      "hand": "right"
    },
    {
      "midi": 65,
      "time": 3,
      "duration": 0.36,
      "velocity": 0.56,
      "hand": "right"
    },
    {
      "midi": 68,
      "time": 3,
      "duration": 3,
      "velocity": 0.68,
      "hand": "right"
    },
    {
      "midi": 51,
      "time": 3.375,
      "duration": 0.063,
      "velocity": 0.61,
      "hand": "left"
    },
    {
      "midi": 56,
      "time": 3.375,
      "duration": 0.11,
      "velocity": 0.46,
      "hand": "left"
    },
    {
      "midi": 60,
      "time": 3.375,
      "duration": 0.11,
      "velocity": 0.5,
      "hand": "right"
    },
    {
      "midi": 63,
      "time": 3.375,
      "duration": 0.11,
      "velocity": 0.38,
      "hand": "right"
    },
    {
      "midi": 65,
      "time": 3.375,
      "duration": 0.11,
      "velocity": 0.39,
      "hand": "right"
    },
    {
      "midi": 38,
      "time": 3.5,
      "duration": 0.063,
      "velocity": 0.8,
      "hand": "left"
    },
    {
      "midi": 51,
      "time": 3.5,
      "duration": 0.063,
      "velocity": 0.61,
      "hand": "left"
    },
    {
      "midi": 60,
      "time": 3.5,
      "duration": 0.125,
      "velocity": 0.56,
      "hand": "right"
    },
    {
      "midi": 63,
      "time": 3.5,
      "duration": 0.125,
      "velocity": 0.5,
      "hand": "right"
    },
    {
      "midi": 65,
      "time": 3.5,
      "duration": 0.125,
      "velocity": 0.45,
      "hand": "right"
    },
    {
      "midi": 56,
      "time": 3.75,
      "duration": 0.235,
      "velocity": 0.78,
      "hand": "left"
    },
    {
      "midi": 51,
      "time": 3.875,
      "duration": 0.063,
      "velocity": 0.61,
      "hand": "left"
    },
    {
      "midi": 38,
      "time": 4,
      "duration": 0.063,
      "velocity": 0.91,
      "hand": "left"
    },
    {
      "midi": 51,
      "time": 4,
      "duration": 0.063,
      "velocity": 0.61,
      "hand": "left"
    },
    {
      "midi": 60,
      "time": 4,
      "duration": 0.235,
      "velocity": 0.68,
      "hand": "right"
    },
    {
      "midi": 63,
      "time": 4,
      "duration": 0.125,
      "velocity": 0.53,
      "hand": "right"
    },
    {
      "midi": 65,
      "time": 4,
      "duration": 0.125,
      "velocity": 0.5,
      "hand": "right"
    },
    {
      "midi": 36,
      "time": 4.25,
      "duration": 0.25,
      "velocity": 0.94,
      "hand": "left"
    },
    {
      "midi": 56,
      "time": 4.25,
      "duration": 0.125,
      "velocity": 0.49,
      "hand": "left"
    },
    {
      "midi": 60,
      "time": 4.25,
      "duration": 0.125,
      "velocity": 0.58,
      "hand": "right"
    },
    {
      "midi": 65,
      "time": 4.25,
      "duration": 0.125,
      "velocity": 0.5,
      "hand": "right"
    },
    {
      "midi": 51,
      "time": 4.375,
      "duration": 0.063,
      "velocity": 0.61,
      "hand": "left"
    },
    {
      "midi": 41,
      "time": 4.5,
      "duration": 0.985,
      "velocity": 0.88,
      "hand": "left"
    },
    {
      "midi": 47,
      "time": 4.5,
      "duration": 0.063,
      "velocity": 0.75,
      "hand": "left"
    },
    {
      "midi": 60,
      "time": 4.5,
      "duration": 0.36,
      "velocity": 0.49,
      "hand": "right"
    },
    {
      "midi": 67,
      "time": 4.5,
      "duration": 0.875,
      "velocity": 0.5,
      "hand": "right"
    },
    {
      "midi": 38,
      "time": 4.875,
      "duration": 0.063,
      "velocity": 0.97,
      "hand": "left"
    },
    {
      "midi": 51,
      "time": 4.875,
      "duration": 0.063,
      "velocity": 0.61,
      "hand": "left"
    },
    {
      "midi": 60,
      "time": 4.875,
      "duration": 0.11,
      "velocity": 0.5,
      "hand": "right"
    },
    {
      "midi": 63,
      "time": 4.875,
      "duration": 0.11,
      "velocity": 0.38,
      "hand": "right"
    },
    {
      "midi": 65,
      "time": 4.875,
      "duration": 0.11,
      "velocity": 0.39,
      "hand": "right"
    },
    {
      "midi": 38,
      "time": 5,
      "duration": 0.063,
      "velocity": 0.65,
      "hand": "left"
    },
    {
      "midi": 44,
      "time": 5,
      "duration": 0.5,
      "velocity": 0.98,
      "hand": "left"
    },
    {
      "midi": 60,
      "time": 5,
      "duration": 0.125,
      "velocity": 0.56,
      "hand": "right"
    },
    {
      "midi": 63,
      "time": 5,
      "duration": 0.125,
      "velocity": 0.5,
      "hand": "right"
    },
    {
      "midi": 65,
      "time": 5,
      "duration": 0.125,
      "velocity": 0.45,
      "hand": "right"
    },
    {
      "midi": 51,
      "time": 5.375,
      "duration": 0.063,
      "velocity": 0.61,
      "hand": "left"
    },
    {
      "midi": 38,
      "time": 5.5,
      "duration": 0.063,
      "velocity": 0.91,
      "hand": "left"
    },
    {
      "midi": 41,
      "time": 5.5,
      "duration": 0.375,
      "velocity": 0.86,
      "hand": "left"
    },
    {
      "midi": 60,
      "time": 5.5,
      "duration": 0.25,
      "velocity": 0.61,
      "hand": "right"
    },
    {
      "midi": 63,
      "time": 5.5,
      "duration": 0.125,
      "velocity": 0.53,
      "hand": "right"
    },
    {
      "midi": 65,
      "time": 5.5,
      "duration": 0.375,
      "velocity": 0.54,
      "hand": "right"
    },
    {
      "midi": 51,
      "time": 5.875,
      "duration": 0.063,
      "velocity": 0.61,
      "hand": "left"
    },
    {
      "midi": 47,
      "time": 6,
      "duration": 0.063,
      "velocity": 0.73,
      "hand": "left"
    },
    {
      "midi": 62,
      "time": 6,
      "duration": 0.485,
      "velocity": 0.38,
      "hand": "right"
    },
    {
      "midi": 70,
      "time": 6,
      "duration": 1.375,
      "velocity": 0.92,
      "hand": "right"
    },
    {
      "midi": 58,
      "time": 6.25,
      "duration": 0.5,
      "velocity": 0.7,
      "hand": "left"
    },
    {
      "midi": 51,
      "time": 6.375,
      "duration": 0.063,
      "velocity": 0.61,
      "hand": "left"
    },
    {
      "midi": 56,
      "time": 6.375,
      "duration": 0.11,
      "velocity": 0.46,
      "hand": "left"
    },
    {
      "midi": 60,
      "time": 6.375,
      "duration": 0.11,
      "velocity": 0.5,
      "hand": "right"
    },
    {
      "midi": 63,
      "time": 6.375,
      "duration": 0.11,
      "velocity": 0.38,
      "hand": "right"
    },
    {
      "midi": 65,
      "time": 6.375,
      "duration": 0.11,
      "velocity": 0.39,
      "hand": "right"
    },
    {
      "midi": 38,
      "time": 6.5,
      "duration": 0.063,
      "velocity": 0.9,
      "hand": "left"
    },
    {
      "midi": 51,
      "time": 6.5,
      "duration": 0.063,
      "velocity": 0.61,
      "hand": "left"
    },
    {
      "midi": 60,
      "time": 6.5,
      "duration": 0.125,
      "velocity": 0.56,
      "hand": "right"
    },
    {
      "midi": 63,
      "time": 6.5,
      "duration": 0.125,
      "velocity": 0.5,
      "hand": "right"
    },
    {
      "midi": 65,
      "time": 6.5,
      "duration": 0.125,
      "velocity": 0.45,
      "hand": "right"
    },
    {
      "midi": 53,
      "time": 6.75,
      "duration": 0.625,
      "velocity": 0.61,
      "hand": "left"
    },
    {
      "midi": 51,
      "time": 6.875,
      "duration": 0.063,
      "velocity": 0.61,
      "hand": "left"
    },
    {
      "midi": 38,
      "time": 7,
      "duration": 0.063,
      "velocity": 0.9,
      "hand": "left"
    },
    {
      "midi": 51,
      "time": 7,
      "duration": 0.063,
      "velocity": 0.61,
      "hand": "left"
    },
    {
      "midi": 60,
      "time": 7,
      "duration": 0.125,
      "velocity": 0.61,
      "hand": "right"
    },
    {
      "midi": 63,
      "time": 7,
      "duration": 0.125,
      "velocity": 0.53,
      "hand": "right"
    },
    {
      "midi": 65,
      "time": 7,
      "duration": 0.125,
      "velocity": 0.5,
      "hand": "right"
    },
    {
      "midi": 41,
      "time": 7.25,
      "duration": 0.125,
      "velocity": 0.95,
      "hand": "left"
    },
    {
      "midi": 62,
      "time": 7.25,
      "duration": 0.125,
      "velocity": 0.53,
      "hand": "right"
    },
    {
      "midi": 51,
      "time": 7.375,
      "duration": 0.063,
      "velocity": 0.61,
      "hand": "left"
    },
    {
      "midi": 47,
      "time": 7.5,
      "duration": 0.063,
      "velocity": 0.81,
      "hand": "left"
    },
    {
      "midi": 65,
      "time": 7.5,
      "duration": 0.875,
      "velocity": 0.57,
      "hand": "right"
    },
    {
      "midi": 74,
      "time": 7.5,
      "duration": 0.5,
      "velocity": 0.75,
      "hand": "right"
    },
    {
      "midi": 38,
      "time": 7.875,
      "duration": 0.063,
      "velocity": 0.97,
      "hand": "left"
    },
    {
      "midi": 51,
      "time": 7.875,
      "duration": 0.063,
      "velocity": 0.61,
      "hand": "left"
    },
    {
      "midi": 62,
      "time": 7.875,
      "duration": 0.11,
      "velocity": 0.57,
      "hand": "right"
    },
    {
      "midi": 38,
      "time": 8,
      "duration": 0.063,
      "velocity": 0.69,
      "hand": "left"
    },
    {
      "midi": 41,
      "time": 8,
      "duration": 0.5,
      "velocity": 0.79,
      "hand": "left"
    },
    {
      "midi": 62,
      "time": 8,
      "duration": 0.125,
      "velocity": 0.61,
      "hand": "right"
    },
    {
      "midi": 72,
      "time": 8,
      "duration": 0.5,
      "velocity": 0.67,
      "hand": "right"
    },
    {
      "midi": 51,
      "time": 8.375,
      "duration": 0.063,
      "velocity": 0.61,
      "hand": "left"
    },
    {
      "midi": 38,
      "time": 8.5,
      "duration": 0.063,
      "velocity": 0.91,
      "hand": "left"
    },
    {
      "midi": 46,
      "time": 8.5,
      "duration": 0.375,
      "velocity": 0.98,
      "hand": "left"
    },
    {
      "midi": 62,
      "time": 8.5,
      "duration": 0.375,
      "velocity": 0.65,
      "hand": "right"
    },
    {
      "midi": 70,
      "time": 8.5,
      "duration": 0.5,
      "velocity": 0.69,
      "hand": "right"
    },
    {
      "midi": 39,
      "time": 8.875,
      "duration": 0.11,
      "velocity": 0.87,
      "hand": "left"
    },
    {
      "midi": 51,
      "time": 8.875,
      "duration": 0.063,
      "velocity": 0.61,
      "hand": "left"
    },
    {
      "midi": 39,
      "time": 9,
      "duration": 1,
      "velocity": 0.5,
      "hand": "left"
    },
    {
      "midi": 47,
      "time": 9,
      "duration": 0.063,
      "velocity": 0.73,
      "hand": "left"
    },
    {
      "midi": 63,
      "time": 9,
      "duration": 0.36,
      "velocity": 0.56,
      "hand": "right"
    },
    {
      "midi": 67,
      "time": 9,
      "duration": 0.985,
      "velocity": 0.68,
      "hand": "right"
    },
    {
      "midi": 51,
      "time": 9.375,
      "duration": 0.063,
      "velocity": 0.61,
      "hand": "left"
    },
    {
      "midi": 55,
      "time": 9.375,
      "duration": 0.11,
      "velocity": 0.5,
      "hand": "left"
    },
    {
      "midi": 63,
      "time": 9.375,
      "duration": 0.11,
      "velocity": 0.54,
      "hand": "right"
    },
    {
      "midi": 38,
      "time": 9.5,
      "duration": 0.063,
      "velocity": 0.83,
      "hand": "left"
    },
    {
      "midi": 51,
      "time": 9.5,
      "duration": 0.063,
      "velocity": 0.61,
      "hand": "left"
    },
    {
      "midi": 63,
      "time": 9.5,
      "duration": 0.125,
      "velocity": 0.51,
      "hand": "right"
    },
    {
      "midi": 51,
      "time": 9.875,
      "duration": 0.063,
      "velocity": 0.61,
      "hand": "left"
    },
    {
      "midi": 38,
      "time": 10,
      "duration": 0.063,
      "velocity": 0.91,
      "hand": "left"
    },
    {
      "midi": 46,
      "time": 10,
      "duration": 0.5,
      "velocity": 0.35,
      "hand": "left"
    },
    {
      "midi": 63,
      "time": 10,
      "duration": 0.125,
      "velocity": 0.61,
      "hand": "right"
    },
    {
      "midi": 67,
      "time": 10,
      "duration": 0.375,
      "velocity": 0.72,
      "hand": "right"
    },
    {
      "midi": 51,
      "time": 10.375,
      "duration": 0.063,
      "velocity": 0.61,
      "hand": "left"
    },
    {
      "midi": 39,
      "time": 10.5,
      "duration": 0.5,
      "velocity": 0.42,
      "hand": "left"
    },
    {
      "midi": 47,
      "time": 10.5,
      "duration": 0.063,
      "velocity": 0.72,
      "hand": "left"
    },
    {
      "midi": 63,
      "time": 10.5,
      "duration": 0.36,
      "velocity": 0.72,
      "hand": "right"
    },
    {
      "midi": 38,
      "time": 10.875,
      "duration": 0.063,
      "velocity": 0.97,
      "hand": "left"
    },
    {
      "midi": 51,
      "time": 10.875,
      "duration": 0.063,
      "velocity": 0.61,
      "hand": "left"
    },
    {
      "midi": 63,
      "time": 10.875,
      "duration": 0.11,
      "velocity": 0.57,
      "hand": "right"
    },
    {
      "midi": 38,
      "time": 11,
      "duration": 0.485,
      "velocity": 0.91,
      "hand": "left"
    },
    {
      "midi": 54,
      "time": 11,
      "duration": 0.063,
      "velocity": 0.54,
      "hand": "left"
    },
    {
      "midi": 63,
      "time": 11,
      "duration": 0.125,
      "velocity": 0.72,
      "hand": "right"
    },
    {
      "midi": 51,
      "time": 11.125,
      "duration": 0.063,
      "velocity": 0.61,
      "hand": "left"
    },
    {
      "midi": 51,
      "time": 11.375,
      "duration": 0.063,
      "velocity": 0.61,
      "hand": "left"
    },
    {
      "midi": 38,
      "time": 11.5,
      "duration": 0.063,
      "velocity": 0.9,
      "hand": "left"
    },
    {
      "midi": 43,
      "time": 11.5,
      "duration": 0.5,
      "velocity": 0.96,
      "hand": "left"
    },
    {
      "midi": 60,
      "time": 11.5,
      "duration": 0.25,
      "velocity": 0.63,
      "hand": "right"
    },
    {
      "midi": 63,
      "time": 11.5,
      "duration": 0.125,
      "velocity": 0.72,
      "hand": "right"
    },
    {
      "midi": 51,
      "time": 11.875,
      "duration": 0.063,
      "velocity": 0.61,
      "hand": "left"
    },
    {
      "midi": 55,
      "time": 11.875,
      "duration": 0.485,
      "velocity": 0.41,
      "hand": "left"
    },
    {
      "midi": 36,
      "time": 12,
      "duration": 1.375,
      "velocity": 0.91,
      "hand": "left"
    },
    {
      "midi": 47,
      "time": 12,
      "duration": 0.063,
      "velocity": 0.77,
      "hand": "left"
    },
    {
      "midi": 60,
      "time": 12,
      "duration": 0.36,
      "velocity": 0.43,
      "hand": "right"
    },
    {
      "midi": 63,
      "time": 12,
      "duration": 0.36,
      "velocity": 0.9,
      "hand": "right"
    },
    {
      "midi": 67,
      "time": 12,
      "duration": 0.36,
      "velocity": 0.65,
      "hand": "right"
    },
    {
      "midi": 51,
      "time": 12.375,
      "duration": 0.063,
      "velocity": 0.61,
      "hand": "left"
    },
    {
      "midi": 55,
      "time": 12.375,
      "duration": 0.11,
      "velocity": 0.52,
      "hand": "left"
    },
    {
      "midi": 60,
      "time": 12.375,
      "duration": 0.11,
      "velocity": 0.57,
      "hand": "right"
    },
    {
      "midi": 63,
      "time": 12.375,
      "duration": 0.063,
      "velocity": 0.54,
      "hand": "right"
    },
    {
      "midi": 67,
      "time": 12.375,
      "duration": 0.11,
      "velocity": 0.52,
      "hand": "right"
    },
    {
      "midi": 39,
      "time": 12.5,
      "duration": 0.75,
      "velocity": 0.49,
      "hand": "left"
    },
    {
      "midi": 60,
      "time": 12.5,
      "duration": 0.063,
      "velocity": 0.61,
      "hand": "right"
    },
    {
      "midi": 63,
      "time": 12.5,
      "duration": 0.485,
      "velocity": 0.72,
      "hand": "right"
    },
    {
      "midi": 67,
      "time": 12.5,
      "duration": 0.125,
      "velocity": 0.52,
      "hand": "right"
    },
    {
      "midi": 51,
      "time": 12.875,
      "duration": 0.063,
      "velocity": 0.61,
      "hand": "left"
    },
    {
      "midi": 38,
      "time": 13,
      "duration": 0.063,
      "velocity": 0.91,
      "hand": "left"
    },
    {
      "midi": 51,
      "time": 13,
      "duration": 0.063,
      "velocity": 0.61,
      "hand": "left"
    },
    {
      "midi": 60,
      "time": 13,
      "duration": 0.25,
      "velocity": 0.72,
      "hand": "right"
    },
    {
      "midi": 63,
      "time": 13,
      "duration": 0.125,
      "velocity": 0.64,
      "hand": "right"
    },
    {
      "midi": 67,
      "time": 13,
      "duration": 0.125,
      "velocity": 0.55,
      "hand": "right"
    },
    {
      "midi": 72,
      "time": 13,
      "duration": 0.5,
      "velocity": 0.65,
      "hand": "right"
    },
    {
      "midi": 43,
      "time": 13.25,
      "duration": 0.11,
      "velocity": 0.5,
      "hand": "left"
    },
    {
      "midi": 43,
      "time": 13.375,
      "duration": 0.125,
      "velocity": 0.96,
      "hand": "left"
    },
    {
      "midi": 51,
      "time": 13.375,
      "duration": 0.063,
      "velocity": 0.61,
      "hand": "left"
    },
    {
      "midi": 36,
      "time": 13.5,
      "duration": 0.485,
      "velocity": 0.88,
      "hand": "left"
    },
    {
      "midi": 47,
      "time": 13.5,
      "duration": 0.063,
      "velocity": 0.75,
      "hand": "left"
    },
    {
      "midi": 60,
      "time": 13.5,
      "duration": 0.36,
      "velocity": 0.54,
      "hand": "right"
    },
    {
      "midi": 67,
      "time": 13.5,
      "duration": 0.36,
      "velocity": 0.57,
      "hand": "right"
    },
    {
      "midi": 70,
      "time": 13.5,
      "duration": 0.5,
      "velocity": 0.72,
      "hand": "right"
    },
    {
      "midi": 38,
      "time": 13.875,
      "duration": 0.063,
      "velocity": 0.97,
      "hand": "left"
    },
    {
      "midi": 51,
      "time": 13.875,
      "duration": 0.063,
      "velocity": 0.61,
      "hand": "left"
    },
    {
      "midi": 60,
      "time": 13.875,
      "duration": 0.11,
      "velocity": 0.57,
      "hand": "right"
    },
    {
      "midi": 63,
      "time": 13.875,
      "duration": 0.063,
      "velocity": 0.54,
      "hand": "right"
    },
    {
      "midi": 67,
      "time": 13.875,
      "duration": 0.11,
      "velocity": 0.52,
      "hand": "right"
    },
    {
      "midi": 36,
      "time": 14,
      "duration": 0.5,
      "velocity": 0.86,
      "hand": "left"
    },
    {
      "midi": 38,
      "time": 14,
      "duration": 0.063,
      "velocity": 0.65,
      "hand": "left"
    },
    {
      "midi": 60,
      "time": 14,
      "duration": 0.063,
      "velocity": 0.61,
      "hand": "right"
    },
    {
      "midi": 63,
      "time": 14,
      "duration": 0.25,
      "velocity": 0.55,
      "hand": "right"
    },
    {
      "midi": 68,
      "time": 14,
      "duration": 0.5,
      "velocity": 0.72,
      "hand": "right"
    },
    {
      "midi": 51,
      "time": 14.375,
      "duration": 0.063,
      "velocity": 0.61,
      "hand": "left"
    },
    {
      "midi": 38,
      "time": 14.5,
      "duration": 0.063,
      "velocity": 0.91,
      "hand": "left"
    },
    {
      "midi": 43,
      "time": 14.5,
      "duration": 0.5,
      "velocity": 0.96,
      "hand": "left"
    },
    {
      "midi": 60,
      "time": 14.5,
      "duration": 0.485,
      "velocity": 0.58,
      "hand": "right"
    },
    {
      "midi": 63,
      "time": 14.5,
      "duration": 0.375,
      "velocity": 0.64,
      "hand": "right"
    },
    {
      "midi": 67,
      "time": 14.5,
      "duration": 0.5,
      "velocity": 0.71,
      "hand": "right"
    },
    {
      "midi": 51,
      "time": 14.875,
      "duration": 0.063,
      "velocity": 0.61,
      "hand": "left"
    },
    {
      "midi": 41,
      "time": 15,
      "duration": 1.25,
      "velocity": 0.94,
      "hand": "left"
    },
    {
      "midi": 47,
      "time": 15,
      "duration": 0.063,
      "velocity": 0.73,
      "hand": "left"
    },
    {
      "midi": 60,
      "time": 15,
      "duration": 0.36,
      "velocity": 0.55,
      "hand": "right"
    },
    {
      "midi": 65,
      "time": 15,
      "duration": 0.985,
      "velocity": 0.57,
      "hand": "right"
    },
    {
      "midi": 68,
      "time": 15,
      "duration": 2.75,
      "velocity": 0.66,
      "hand": "right"
    },
    {
      "midi": 51,
      "time": 15.375,
      "duration": 0.063,
      "velocity": 0.61,
      "hand": "left"
    },
    {
      "midi": 53,
      "time": 15.375,
      "duration": 0.11,
      "velocity": 0.53,
      "hand": "left"
    },
    {
      "midi": 60,
      "time": 15.375,
      "duration": 0.11,
      "velocity": 0.5,
      "hand": "right"
    },
    {
      "midi": 63,
      "time": 15.375,
      "duration": 0.11,
      "velocity": 0.41,
      "hand": "right"
    },
    {
      "midi": 38,
      "time": 15.5,
      "duration": 0.063,
      "velocity": 0.9,
      "hand": "left"
    },
    {
      "midi": 51,
      "time": 15.5,
      "duration": 0.063,
      "velocity": 0.61,
      "hand": "left"
    },
    {
      "midi": 60,
      "time": 15.5,
      "duration": 0.125,
      "velocity": 0.52,
      "hand": "right"
    },
    {
      "midi": 63,
      "time": 15.5,
      "duration": 0.125,
      "velocity": 0.46,
      "hand": "right"
    },
    {
      "midi": 51,
      "time": 15.875,
      "duration": 0.063,
      "velocity": 0.61,
      "hand": "left"
    },
    {
      "midi": 38,
      "time": 16,
      "duration": 0.063,
      "velocity": 0.9,
      "hand": "left"
    },
    {
      "midi": 51,
      "time": 16,
      "duration": 0.063,
      "velocity": 0.61,
      "hand": "left"
    },
    {
      "midi": 60,
      "time": 16,
      "duration": 0.86,
      "velocity": 0.7,
      "hand": "right"
    },
    {
      "midi": 63,
      "time": 16,
      "duration": 0.125,
      "velocity": 0.49,
      "hand": "right"
    },
    {
      "midi": 65,
      "time": 16,
      "duration": 0.625,
      "velocity": 0.54,
      "hand": "right"
    },
    {
      "midi": 36,
      "time": 16.25,
      "duration": 0.25,
      "velocity": 0.86,
      "hand": "left"
    },
    {
      "midi": 48,
      "time": 16.25,
      "duration": 0.25,
      "velocity": 0.54,
      "hand": "left"
    },
    {
      "midi": 51,
      "time": 16.375,
      "duration": 0.063,
      "velocity": 0.61,
      "hand": "left"
    },
    {
      "midi": 41,
      "time": 16.5,
      "duration": 0.985,
      "velocity": 0.86,
      "hand": "left"
    },
    {
      "midi": 47,
      "time": 16.5,
      "duration": 0.063,
      "velocity": 0.81,
      "hand": "left"
    },
    {
      "midi": 38,
      "time": 16.875,
      "duration": 0.063,
      "velocity": 0.97,
      "hand": "left"
    },
    {
      "midi": 51,
      "time": 16.875,
      "duration": 0.063,
      "velocity": 0.61,
      "hand": "left"
    },
    {
      "midi": 60,
      "time": 16.875,
      "duration": 0.11,
      "velocity": 0.54,
      "hand": "right"
    },
    {
      "midi": 63,
      "time": 16.875,
      "duration": 0.11,
      "velocity": 0.5,
      "hand": "right"
    },
    {
      "midi": 65,
      "time": 16.875,
      "duration": 0.063,
      "velocity": 0.41,
      "hand": "right"
    },
    {
      "midi": 38,
      "time": 17,
      "duration": 0.063,
      "velocity": 0.69,
      "hand": "left"
    },
    {
      "midi": 44,
      "time": 17,
      "duration": 0.5,
      "velocity": 0.99,
      "hand": "left"
    },
    {
      "midi": 60,
      "time": 17,
      "duration": 0.485,
      "velocity": 0.63,
      "hand": "right"
    },
    {
      "midi": 63,
      "time": 17,
      "duration": 0.125,
      "velocity": 0.54,
      "hand": "right"
    },
    {
      "midi": 65,
      "time": 17,
      "duration": 0.125,
      "velocity": 0.53,
      "hand": "right"
    },
    {
      "midi": 65,
      "time": 17.25,
      "duration": 0.235,
      "velocity": 0.53,
      "hand": "right"
    },
    {
      "midi": 51,
      "time": 17.375,
      "duration": 0.063,
      "velocity": 0.61,
      "hand": "left"
    },
    {
      "midi": 38,
      "time": 17.5,
      "duration": 0.063,
      "velocity": 0.91,
      "hand": "left"
    },
    {
      "midi": 41,
      "time": 17.5,
      "duration": 0.375,
      "velocity": 0.91,
      "hand": "left"
    },
    {
      "midi": 60,
      "time": 17.5,
      "duration": 0.125,
      "velocity": 0.55,
      "hand": "right"
    },
    {
      "midi": 63,
      "time": 17.5,
      "duration": 0.125,
      "velocity": 0.56,
      "hand": "right"
    },
    {
      "midi": 65,
      "time": 17.5,
      "duration": 0.125,
      "velocity": 0.51,
      "hand": "right"
    },
    {
      "midi": 48,
      "time": 17.75,
      "duration": 0.25,
      "velocity": 0.41,
      "hand": "left"
    },
    {
      "midi": 65,
      "time": 17.75,
      "duration": 0.25,
      "velocity": 0.46,
      "hand": "right"
    },
    {
      "midi": 51,
      "time": 17.875,
      "duration": 0.063,
      "velocity": 0.61,
      "hand": "left"
    },
    {
      "midi": 43,
      "time": 18,
      "duration": 1,
      "velocity": 1,
      "hand": "left"
    },
    {
      "midi": 47,
      "time": 18,
      "duration": 0.063,
      "velocity": 0.73,
      "hand": "left"
    },
    {
      "midi": 62,
      "time": 18,
      "duration": 0.36,
      "velocity": 0.32,
      "hand": "right"
    },
    {
      "midi": 68,
      "time": 18,
      "duration": 1,
      "velocity": 0.89,
      "hand": "right"
    },
    {
      "midi": 59,
      "time": 18.25,
      "duration": 0.11,
      "velocity": 0.5,
      "hand": "left"
    },
    {
      "midi": 47,
      "time": 18.375,
      "duration": 0.75,
      "velocity": 0.39,
      "hand": "left"
    },
    {
      "midi": 51,
      "time": 18.375,
      "duration": 0.063,
      "velocity": 0.61,
      "hand": "left"
    },
    {
      "midi": 62,
      "time": 18.375,
      "duration": 0.063,
      "velocity": 0.65,
      "hand": "right"
    },
    {
      "midi": 65,
      "time": 18.375,
      "duration": 0.11,
      "velocity": 0.61,
      "hand": "right"
    },
    {
      "midi": 67,
      "time": 18.375,
      "duration": 0.11,
      "velocity": 0.44,
      "hand": "right"
    },
    {
      "midi": 38,
      "time": 18.5,
      "duration": 0.063,
      "velocity": 0.83,
      "hand": "left"
    },
    {
      "midi": 51,
      "time": 18.5,
      "duration": 0.063,
      "velocity": 0.61,
      "hand": "left"
    },
    {
      "midi": 62,
      "time": 18.5,
      "duration": 0.25,
      "velocity": 0.68,
      "hand": "right"
    },
    {
      "midi": 65,
      "time": 18.5,
      "duration": 0.063,
      "velocity": 0.61,
      "hand": "right"
    },
    {
      "midi": 67,
      "time": 18.5,
      "duration": 0.125,
      "velocity": 0.57,
      "hand": "right"
    },
    {
      "midi": 51,
      "time": 18.875,
      "duration": 0.063,
      "velocity": 0.61,
      "hand": "left"
    },
    {
      "midi": 55,
      "time": 18.875,
      "duration": 0.11,
      "velocity": 0.2,
      "hand": "left"
    },
    {
      "midi": 38,
      "time": 19,
      "duration": 0.5,
      "velocity": 0.95,
      "hand": "left"
    },
    {
      "midi": 50,
      "time": 19,
      "duration": 0.5,
      "velocity": 0.39,
      "hand": "left"
    },
    {
      "midi": 62,
      "time": 19,
      "duration": 0.375,
      "velocity": 0.65,
      "hand": "right"
    },
    {
      "midi": 65,
      "time": 19,
      "duration": 0.125,
      "velocity": 0.72,
      "hand": "right"
    },
    {
      "midi": 67,
      "time": 19,
      "duration": 0.375,
      "velocity": 0.86,
      "hand": "right"
    },
    {
      "midi": 51,
      "time": 19.375,
      "duration": 0.063,
      "velocity": 0.61,
      "hand": "left"
    },
    {
      "midi": 43,
      "time": 19.5,
      "duration": 1.125,
      "velocity": 0.91,
      "hand": "left"
    },
    {
      "midi": 47,
      "time": 19.5,
      "duration": 0.063,
      "velocity": 0.72,
      "hand": "left"
    },
    {
      "midi": 62,
      "time": 19.5,
      "duration": 0.36,
      "velocity": 0.5,
      "hand": "right"
    },
    {
      "midi": 65,
      "time": 19.5,
      "duration": 0.36,
      "velocity": 0.5,
      "hand": "right"
    },
    {
      "midi": 67,
      "time": 19.5,
      "duration": 0.36,
      "velocity": 0.69,
      "hand": "right"
    },
    {
      "midi": 38,
      "time": 19.875,
      "duration": 0.063,
      "velocity": 0.97,
      "hand": "left"
    },
    {
      "midi": 51,
      "time": 19.875,
      "duration": 0.063,
      "velocity": 0.61,
      "hand": "left"
    },
    {
      "midi": 62,
      "time": 19.875,
      "duration": 0.11,
      "velocity": 0.58,
      "hand": "right"
    },
    {
      "midi": 65,
      "time": 19.875,
      "duration": 0.11,
      "velocity": 0.56,
      "hand": "right"
    },
    {
      "midi": 67,
      "time": 19.875,
      "duration": 0.11,
      "velocity": 0.51,
      "hand": "right"
    },
    {
      "midi": 38,
      "time": 20,
      "duration": 0.063,
      "velocity": 0.7,
      "hand": "left"
    },
    {
      "midi": 45,
      "time": 20,
      "duration": 0.625,
      "velocity": 0.96,
      "hand": "left"
    },
    {
      "midi": 62,
      "time": 20,
      "duration": 0.063,
      "velocity": 0.72,
      "hand": "right"
    },
    {
      "midi": 65,
      "time": 20,
      "duration": 0.485,
      "velocity": 0.72,
      "hand": "right"
    },
    {
      "midi": 67,
      "time": 20,
      "duration": 0.125,
      "velocity": 0.56,
      "hand": "right"
    },
    {
      "midi": 51,
      "time": 20.125,
      "duration": 0.063,
      "velocity": 0.61,
      "hand": "left"
    },
    {
      "midi": 51,
      "time": 20.375,
      "duration": 0.063,
      "velocity": 0.61,
      "hand": "left"
    },
    {
      "midi": 38,
      "time": 20.5,
      "duration": 0.063,
      "velocity": 0.9,
      "hand": "left"
    },
    {
      "midi": 47,
      "time": 20.5,
      "duration": 0.375,
      "velocity": 0.75,
      "hand": "left"
    },
    {
      "midi": 62,
      "time": 20.5,
      "duration": 0.5,
      "velocity": 0.74,
      "hand": "right"
    },
    {
      "midi": 65,
      "time": 20.5,
      "duration": 0.25,
      "velocity": 0.72,
      "hand": "right"
    },
    {
      "midi": 67,
      "time": 20.5,
      "duration": 0.125,
      "velocity": 0.61,
      "hand": "right"
    },
    {
      "midi": 51,
      "time": 20.875,
      "duration": 0.063,
      "velocity": 0.61,
      "hand": "left"
    },
    {
      "midi": 55,
      "time": 20.875,
      "duration": 0.11,
      "velocity": 0.28,
      "hand": "left"
    },
    {
      "midi": 36,
      "time": 21,
      "duration": 1.125,
      "velocity": 0.94,
      "hand": "left"
    },
    {
      "midi": 47,
      "time": 21,
      "duration": 0.063,
      "velocity": 0.77,
      "hand": "left"
    },
    {
      "midi": 60,
      "time": 21,
      "duration": 0.36,
      "velocity": 0.67,
      "hand": "right"
    },
    {
      "midi": 63,
      "time": 21,
      "duration": 0.36,
      "velocity": 0.5,
      "hand": "right"
    },
    {
      "midi": 67,
      "time": 21,
      "duration": 0.36,
      "velocity": 0.49,
      "hand": "right"
    },
    {
      "midi": 51,
      "time": 21.375,
      "duration": 0.063,
      "velocity": 0.61,
      "hand": "left"
    },
    {
      "midi": 60,
      "time": 21.375,
      "duration": 0.11,
      "velocity": 0.63,
      "hand": "right"
    },
    {
      "midi": 63,
      "time": 21.375,
      "duration": 0.063,
      "velocity": 0.72,
      "hand": "right"
    },
    {
      "midi": 67,
      "time": 21.375,
      "duration": 0.11,
      "velocity": 0.56,
      "hand": "right"
    },
    {
      "midi": 38,
      "time": 21.5,
      "duration": 0.063,
      "velocity": 0.8,
      "hand": "left"
    },
    {
      "midi": 51,
      "time": 21.5,
      "duration": 0.063,
      "velocity": 0.61,
      "hand": "left"
    },
    {
      "midi": 60,
      "time": 21.5,
      "duration": 0.125,
      "velocity": 0.59,
      "hand": "right"
    },
    {
      "midi": 63,
      "time": 21.5,
      "duration": 0.125,
      "velocity": 0.68,
      "hand": "right"
    },
    {
      "midi": 67,
      "time": 21.5,
      "duration": 0.125,
      "velocity": 0.54,
      "hand": "right"
    },
    {
      "midi": 51,
      "time": 21.875,
      "duration": 0.063,
      "velocity": 0.61,
      "hand": "left"
    },
    {
      "midi": 38,
      "time": 22,
      "duration": 0.063,
      "velocity": 0.91,
      "hand": "left"
    },
    {
      "midi": 43,
      "time": 22,
      "duration": 0.25,
      "velocity": 0.8,
      "hand": "left"
    },
    {
      "midi": 60,
      "time": 22,
      "duration": 0.125,
      "velocity": 0.56,
      "hand": "right"
    },
    {
      "midi": 63,
      "time": 22,
      "duration": 0.125,
      "velocity": 0.57,
      "hand": "right"
    },
    {
      "midi": 67,
      "time": 22,
      "duration": 0.125,
      "velocity": 0.55,
      "hand": "right"
    },
    {
      "midi": 36,
      "time": 22.25,
      "duration": 0.25,
      "velocity": 0.87,
      "hand": "left"
    },
    {
      "midi": 51,
      "time": 22.375,
      "duration": 0.063,
      "velocity": 0.61,
      "hand": "left"
    },
    {
      "midi": 38,
      "time": 22.5,
      "duration": 0.235,
      "velocity": 0.56,
      "hand": "left"
    },
    {
      "midi": 47,
      "time": 22.5,
      "duration": 0.063,
      "velocity": 0.75,
      "hand": "left"
    },
    {
      "midi": 60,
      "time": 22.5,
      "duration": 0.375,
      "velocity": 0.5,
      "hand": "right"
    },
    {
      "midi": 62,
      "time": 22.5,
      "duration": 0.375,
      "velocity": 0.55,
      "hand": "right"
    },
    {
      "midi": 65,
      "time": 22.5,
      "duration": 0.5,
      "velocity": 0.57,
      "hand": "right"
    },
    {
      "midi": 38,
      "time": 22.75,
      "duration": 0.063,
      "velocity": 0.91,
      "hand": "left"
    },
    {
      "midi": 51,
      "time": 22.875,
      "duration": 0.063,
      "velocity": 0.61,
      "hand": "left"
    },
    {
      "midi": 38,
      "time": 23,
      "duration": 0.063,
      "velocity": 0.91,
      "hand": "left"
    },
    {
      "midi": 43,
      "time": 23,
      "duration": 0.375,
      "velocity": 0.56,
      "hand": "left"
    },
    {
      "midi": 63,
      "time": 23,
      "duration": 0.485,
      "velocity": 0.45,
      "hand": "right"
    },
    {
      "midi": 67,
      "time": 23,
      "duration": 0.375,
      "velocity": 0.42,
      "hand": "right"
    },
    {
      "midi": 39,
      "time": 23.25,
      "duration": 0.063,
      "velocity": 0.91,
      "hand": "left"
    },
    {
      "midi": 51,
      "time": 23.375,
      "duration": 0.063,
      "velocity": 0.61,
      "hand": "left"
    },
    {
      "midi": 38,
      "time": 23.5,
      "duration": 0.063,
      "velocity": 0.93,
      "hand": "left"
    },
    {
      "midi": 43,
      "time": 23.5,
      "duration": 0.375,
      "velocity": 0.96,
      "hand": "left"
    },
    {
      "midi": 63,
      "time": 23.5,
      "duration": 0.25,
      "velocity": 0.78,
      "hand": "right"
    },
    {
      "midi": 67,
      "time": 23.5,
      "duration": 0.235,
      "velocity": 0.25,
      "hand": "right"
    },
    {
      "midi": 67,
      "time": 23.75,
      "duration": 0.125,
      "velocity": 0.5,
      "hand": "right"
    },
    {
      "midi": 39,
      "time": 23.875,
      "duration": 0.063,
      "velocity": 0.72,
      "hand": "left"
    },
    {
      "midi": 51,
      "time": 23.875,
      "duration": 0.063,
      "velocity": 0.61,
      "hand": "left"
    },
    {
      "midi": 36,
      "time": 24,
      "duration": 1.25,
      "velocity": 0.97,
      "hand": "left"
    },
    {
      "midi": 47,
      "time": 24,
      "duration": 0.063,
      "velocity": 0.73,
      "hand": "left"
    },
    {
      "midi": 60,
      "time": 24,
      "duration": 0.36,
      "velocity": 0.5,
      "hand": "right"
    },
    {
      "midi": 63,
      "time": 24,
      "duration": 0.235,
      "velocity": 0.5,
      "hand": "right"
    },
    {
      "midi": 67,
      "time": 24,
      "duration": 0.36,
      "velocity": 0.63,
      "hand": "right"
    },
    {
      "midi": 63,
      "time": 24.25,
      "duration": 0.11,
      "velocity": 0.8,
      "hand": "right"
    },
    {
      "midi": 44,
      "time": 24.375,
      "duration": 0.063,
      "velocity": 0.61,
      "hand": "left"
    },
    {
      "midi": 55,
      "time": 24.375,
      "duration": 0.063,
      "velocity": 0.43,
      "hand": "left"
    },
    {
      "midi": 60,
      "time": 24.375,
      "duration": 0.063,
      "velocity": 0.58,
      "hand": "right"
    },
    {
      "midi": 63,
      "time": 24.375,
      "duration": 0.063,
      "velocity": 0.54,
      "hand": "right"
    },
    {
      "midi": 67,
      "time": 24.375,
      "duration": 0.063,
      "velocity": 0.43,
      "hand": "right"
    },
    {
      "midi": 38,
      "time": 24.5,
      "duration": 0.063,
      "velocity": 0.83,
      "hand": "left"
    },
    {
      "midi": 44,
      "time": 24.5,
      "duration": 0.063,
      "velocity": 0.61,
      "hand": "left"
    },
    {
      "midi": 60,
      "time": 24.5,
      "duration": 0.375,
      "velocity": 0.61,
      "hand": "right"
    },
    {
      "midi": 63,
      "time": 24.5,
      "duration": 0.063,
      "velocity": 0.39,
      "hand": "right"
    },
    {
      "midi": 67,
      "time": 24.5,
      "duration": 0.125,
      "velocity": 0.48,
      "hand": "right"
    },
    {
      "midi": 55,
      "time": 24.75,
      "duration": 0.235,
      "velocity": 0.74,
      "hand": "left"
    },
    {
      "midi": 44,
      "time": 24.875,
      "duration": 0.063,
      "velocity": 0.61,
      "hand": "left"
    },
    {
      "midi": 38,
      "time": 25,
      "duration": 0.063,
      "velocity": 0.91,
      "hand": "left"
    },
    {
      "midi": 44,
      "time": 25,
      "duration": 0.063,
      "velocity": 0.61,
      "hand": "left"
    },
    {
      "midi": 60,
      "time": 25,
      "duration": 0.375,
      "velocity": 0.74,
      "hand": "right"
    },
    {
      "midi": 63,
      "time": 25,
      "duration": 0.235,
      "velocity": 0.73,
      "hand": "right"
    },
    {
      "midi": 67,
      "time": 25,
      "duration": 0.125,
      "velocity": 0.54,
      "hand": "right"
    },
    {
      "midi": 43,
      "time": 25.25,
      "duration": 0.125,
      "velocity": 0.94,
      "hand": "left"
    },
    {
      "midi": 63,
      "time": 25.25,
      "duration": 0.125,
      "velocity": 0.51,
      "hand": "right"
    },
    {
      "midi": 67,
      "time": 25.25,
      "duration": 0.235,
      "velocity": 0.52,
      "hand": "right"
    },
    {
      "midi": 44,
      "time": 25.375,
      "duration": 0.063,
      "velocity": 0.61,
      "hand": "left"
    },
    {
      "midi": 36,
      "time": 25.5,
      "duration": 1,
      "velocity": 0.97,
      "hand": "left"
    },
    {
      "midi": 47,
      "time": 25.5,
      "duration": 0.063,
      "velocity": 0.72,
      "hand": "left"
    },
    {
      "midi": 60,
      "time": 25.5,
      "duration": 0.36,
      "velocity": 0.55,
      "hand": "right"
    },
    {
      "midi": 63,
      "time": 25.5,
      "duration": 0.36,
      "velocity": 0.46,
      "hand": "right"
    },
    {
      "midi": 67,
      "time": 25.5,
      "duration": 0.36,
      "velocity": 0.56,
      "hand": "right"
    },
    {
      "midi": 38,
      "time": 25.875,
      "duration": 0.063,
      "velocity": 0.97,
      "hand": "left"
    },
    {
      "midi": 44,
      "time": 25.875,
      "duration": 0.063,
      "velocity": 0.61,
      "hand": "left"
    },
    {
      "midi": 60,
      "time": 25.875,
      "duration": 0.063,
      "velocity": 0.48,
      "hand": "right"
    },
    {
      "midi": 63,
      "time": 25.875,
      "duration": 0.063,
      "velocity": 0.46,
      "hand": "right"
    },
    {
      "midi": 67,
      "time": 25.875,
      "duration": 0.11,
      "velocity": 0.34,
      "hand": "right"
    },
    {
      "midi": 38,
      "time": 26,
      "duration": 0.063,
      "velocity": 0.7,
      "hand": "left"
    },
    {
      "midi": 51,
      "time": 26,
      "duration": 1,
      "velocity": 0.57,
      "hand": "left"
    },
    {
      "midi": 60,
      "time": 26,
      "duration": 0.063,
      "velocity": 0.44,
      "hand": "right"
    },
    {
      "midi": 63,
      "time": 26,
      "duration": 0.125,
      "velocity": 0.51,
      "hand": "right"
    },
    {
      "midi": 67,
      "time": 26,
      "duration": 0.125,
      "velocity": 0.28,
      "hand": "right"
    },
    {
      "midi": 44,
      "time": 26.125,
      "duration": 0.063,
      "velocity": 0.61,
      "hand": "left"
    },
    {
      "midi": 44,
      "time": 26.375,
      "duration": 0.063,
      "velocity": 0.61,
      "hand": "left"
    },
    {
      "midi": 38,
      "time": 26.5,
      "duration": 0.063,
      "velocity": 0.9,
      "hand": "left"
    },
    {
      "midi": 43,
      "time": 26.5,
      "duration": 0.375,
      "velocity": 0.99,
      "hand": "left"
    },
    {
      "midi": 60,
      "time": 26.5,
      "duration": 0.25,
      "velocity": 0.72,
      "hand": "right"
    },
    {
      "midi": 63,
      "time": 26.5,
      "duration": 0.25,
      "velocity": 0.74,
      "hand": "right"
    },
    {
      "midi": 67,
      "time": 26.5,
      "duration": 0.25,
      "velocity": 0.75,
      "hand": "right"
    },
    {
      "midi": 55,
      "time": 26.75,
      "duration": 0.125,
      "velocity": 0.54,
      "hand": "left"
    },
    {
      "midi": 44,
      "time": 26.875,
      "duration": 0.063,
      "velocity": 0.61,
      "hand": "left"
    },
    {
      "midi": 67,
      "time": 26.875,
      "duration": 0.11,
      "velocity": 0.55,
      "hand": "right"
    },
    {
      "midi": 40,
      "time": 27,
      "duration": 1,
      "velocity": 0.98,
      "hand": "left"
    },
    {
      "midi": 43,
      "time": 27,
      "duration": 0.875,
      "velocity": 0.65,
      "hand": "left"
    },
    {
      "midi": 60,
      "time": 27,
      "duration": 0.36,
      "velocity": 0.72,
      "hand": "right"
    },
    {
      "midi": 64,
      "time": 27,
      "duration": 0.36,
      "velocity": 0.51,
      "hand": "right"
    },
    {
      "midi": 68,
      "time": 27,
      "duration": 0.375,
      "velocity": 0.51,
      "hand": "right"
    },
    {
      "midi": 44,
      "time": 27.375,
      "duration": 0.063,
      "velocity": 0.61,
      "hand": "left"
    },
    {
      "midi": 55,
      "time": 27.375,
      "duration": 0.063,
      "velocity": 0.45,
      "hand": "left"
    },
    {
      "midi": 60,
      "time": 27.375,
      "duration": 0.063,
      "velocity": 0.51,
      "hand": "right"
    },
    {
      "midi": 64,
      "time": 27.375,
      "duration": 0.063,
      "velocity": 0.22,
      "hand": "right"
    },
    {
      "midi": 38,
      "time": 27.5,
      "duration": 0.063,
      "velocity": 0.8,
      "hand": "left"
    },
    {
      "midi": 44,
      "time": 27.5,
      "duration": 0.063,
      "velocity": 0.61,
      "hand": "left"
    },
    {
      "midi": 60,
      "time": 27.5,
      "duration": 0.063,
      "velocity": 0.57,
      "hand": "right"
    },
    {
      "midi": 64,
      "time": 27.5,
      "duration": 0.063,
      "velocity": 0.46,
      "hand": "right"
    },
    {
      "midi": 67,
      "time": 27.5,
      "duration": 0.5,
      "velocity": 0.52,
      "hand": "right"
    },
    {
      "midi": 44,
      "time": 27.875,
      "duration": 0.063,
      "velocity": 0.61,
      "hand": "left"
    },
    {
      "midi": 38,
      "time": 28,
      "duration": 0.25,
      "velocity": 0.95,
      "hand": "left"
    },
    {
      "midi": 44,
      "time": 28,
      "duration": 0.063,
      "velocity": 0.61,
      "hand": "left"
    },
    {
      "midi": 60,
      "time": 28,
      "duration": 0.25,
      "velocity": 0.68,
      "hand": "right"
    },
    {
      "midi": 65,
      "time": 28,
      "duration": 0.25,
      "velocity": 0.61,
      "hand": "right"
    },
    {
      "midi": 36,
      "time": 28.25,
      "duration": 0.25,
      "velocity": 0.94,
      "hand": "left"
    },
    {
      "midi": 55,
      "time": 28.25,
      "duration": 0.125,
      "velocity": 0.61,
      "hand": "left"
    },
    {
      "midi": 64,
      "time": 28.25,
      "duration": 0.25,
      "velocity": 0.54,
      "hand": "right"
    },
    {
      "midi": 44,
      "time": 28.375,
      "duration": 0.063,
      "velocity": 0.61,
      "hand": "left"
    },
    {
      "midi": 41,
      "time": 28.5,
      "duration": 1.125,
      "velocity": 0.99,
      "hand": "left"
    },
    {
      "midi": 47,
      "time": 28.5,
      "duration": 0.063,
      "velocity": 0.75,
      "hand": "left"
    },
    {
      "midi": 65,
      "time": 28.5,
      "duration": 0.36,
      "velocity": 0.51,
      "hand": "right"
    },
    {
      "midi": 68,
      "time": 28.5,
      "duration": 1.985,
      "velocity": 0.44,
      "hand": "right"
    },
    {
      "midi": 60,
      "time": 28.75,
      "duration": 0.11,
      "velocity": 0.72,
      "hand": "right"
    },
    {
      "midi": 38,
      "time": 28.875,
      "duration": 0.063,
      "velocity": 0.97,
      "hand": "left"
    },
    {
      "midi": 44,
      "time": 28.875,
      "duration": 0.063,
      "velocity": 0.61,
      "hand": "left"
    },
    {
      "midi": 60,
      "time": 28.875,
      "duration": 0.11,
      "velocity": 0.48,
      "hand": "right"
    },
    {
      "midi": 63,
      "time": 28.875,
      "duration": 0.11,
      "velocity": 0.42,
      "hand": "right"
    },
    {
      "midi": 65,
      "time": 28.875,
      "duration": 0.11,
      "velocity": 0.46,
      "hand": "right"
    },
    {
      "midi": 38,
      "time": 29,
      "duration": 0.063,
      "velocity": 0.65,
      "hand": "left"
    },
    {
      "midi": 44,
      "time": 29,
      "duration": 0.063,
      "velocity": 0.61,
      "hand": "left"
    },
    {
      "midi": 60,
      "time": 29,
      "duration": 0.063,
      "velocity": 0.45,
      "hand": "right"
    },
    {
      "midi": 63,
      "time": 29,
      "duration": 0.485,
      "velocity": 0.56,
      "hand": "right"
    },
    {
      "midi": 65,
      "time": 29,
      "duration": 0.063,
      "velocity": 0.52,
      "hand": "right"
    },
    {
      "midi": 65,
      "time": 29.25,
      "duration": 0.235,
      "velocity": 0.54,
      "hand": "right"
    },
    {
      "midi": 44,
      "time": 29.375,
      "duration": 0.063,
      "velocity": 0.61,
      "hand": "left"
    },
    {
      "midi": 36,
      "time": 29.5,
      "duration": 0.25,
      "velocity": 0.94,
      "hand": "left"
    },
    {
      "midi": 38,
      "time": 29.5,
      "duration": 0.063,
      "velocity": 0.91,
      "hand": "left"
    },
    {
      "midi": 60,
      "time": 29.5,
      "duration": 0.063,
      "velocity": 0.59,
      "hand": "right"
    },
    {
      "midi": 63,
      "time": 29.5,
      "duration": 0.125,
      "velocity": 0.54,
      "hand": "right"
    },
    {
      "midi": 65,
      "time": 29.5,
      "duration": 0.125,
      "velocity": 0.5,
      "hand": "right"
    },
    {
      "midi": 67,
      "time": 29.5,
      "duration": 0.25,
      "velocity": 0.73,
      "hand": "right"
    },
    {
      "midi": 48,
      "time": 29.625,
      "duration": 0.375,
      "velocity": 0.48,
      "hand": "left"
    },
    {
      "midi": 41,
      "time": 29.75,
      "duration": 0.125,
      "velocity": 0.91,
      "hand": "left"
    },
    {
      "midi": 44,
      "time": 29.75,
      "duration": 0.11,
      "velocity": 0.44,
      "hand": "left"
    },
    {
      "midi": 60,
      "time": 29.75,
      "duration": 0.25,
      "velocity": 0.59,
      "hand": "right"
    },
    {
      "midi": 44,
      "time": 29.875,
      "duration": 0.063,
      "velocity": 0.61,
      "hand": "left"
    },
    {
      "midi": 67,
      "time": 29.875,
      "duration": 0.125,
      "velocity": 0.57,
      "hand": "right"
    },
    {
      "midi": 41,
      "time": 30,
      "duration": 0.985,
      "velocity": 0.52,
      "hand": "left"
    },
    {
      "midi": 46,
      "time": 30,
      "duration": 1,
      "velocity": 1,
      "hand": "left"
    },
    {
      "midi": 63,
      "time": 30,
      "duration": 0.235,
      "velocity": 0.32,
      "hand": "right"
    },
    {
      "midi": 65,
      "time": 30,
      "duration": 0.36,
      "velocity": 0.57,
      "hand": "right"
    },
    {
      "midi": 70,
      "time": 30,
      "duration": 0.375,
      "velocity": 0.65,
      "hand": "right"
    },
    {
      "midi": 63,
      "time": 30.25,
      "duration": 0.11,
      "velocity": 0.56,
      "hand": "right"
    },
    {
      "midi": 44,
      "time": 30.375,
      "duration": 0.063,
      "velocity": 0.61,
      "hand": "left"
    },
    {
      "midi": 56,
      "time": 30.375,
      "duration": 0.063,
      "velocity": 0.5,
      "hand": "left"
    },
    {
      "midi": 60,
      "time": 30.375,
      "duration": 0.063,
      "velocity": 0.54,
      "hand": "right"
    },
    {
      "midi": 63,
      "time": 30.375,
      "duration": 0.063,
      "velocity": 0.5,
      "hand": "right"
    },
    {
      "midi": 65,
      "time": 30.375,
      "duration": 0.063,
      "velocity": 0.44,
      "hand": "right"
    },
    {
      "midi": 38,
      "time": 30.5,
      "duration": 0.063,
      "velocity": 0.9,
      "hand": "left"
    },
    {
      "midi": 44,
      "time": 30.5,
      "duration": 0.063,
      "velocity": 0.61,
      "hand": "left"
    },
    {
      "midi": 60,
      "time": 30.5,
      "duration": 0.375,
      "velocity": 0.56,
      "hand": "right"
    },
    {
      "midi": 63,
      "time": 30.5,
      "duration": 0.063,
      "velocity": 0.49,
      "hand": "right"
    },
    {
      "midi": 65,
      "time": 30.5,
      "duration": 0.063,
      "velocity": 0.5,
      "hand": "right"
    },
    {
      "midi": 68,
      "time": 30.5,
      "duration": 0.5,
      "velocity": 0.61,
      "hand": "right"
    },
    {
      "midi": 56,
      "time": 30.75,
      "duration": 0.235,
      "velocity": 0.72,
      "hand": "left"
    },
    {
      "midi": 44,
      "time": 30.875,
      "duration": 0.063,
      "velocity": 0.61,
      "hand": "left"
    },
    {
      "midi": 38,
      "time": 31,
      "duration": 0.063,
      "velocity": 0.9,
      "hand": "left"
    },
    {
      "midi": 41,
      "time": 31,
      "duration": 0.25,
      "velocity": 0.91,
      "hand": "left"
    },
    {
      "midi": 60,
      "time": 31,
      "duration": 0.375,
      "velocity": 0.64,
      "hand": "right"
    },
    {
      "midi": 63,
      "time": 31,
      "duration": 0.375,
      "velocity": 0.52,
      "hand": "right"
    },
    {
      "midi": 65,
      "time": 31,
      "duration": 0.235,
      "velocity": 0.52,
      "hand": "right"
    },
    {
      "midi": 67,
      "time": 31,
      "duration": 0.25,
      "velocity": 0.61,
      "hand": "right"
    },
    {
      "midi": 46,
      "time": 31.25,
      "duration": 0.25,
      "velocity": 1,
      "hand": "left"
    },
    {
      "midi": 56,
      "time": 31.25,
      "duration": 0.125,
      "velocity": 0.73,
      "hand": "left"
    },
    {
      "midi": 65,
      "time": 31.25,
      "duration": 0.25,
      "velocity": 0.56,
      "hand": "right"
    },
    {
      "midi": 44,
      "time": 31.375,
      "duration": 0.063,
      "velocity": 0.61,
      "hand": "left"
    },
    {
      "midi": 36,
      "time": 31.5,
      "duration": 1,
      "velocity": 0.95,
      "hand": "left"
    },
    {
      "midi": 47,
      "time": 31.5,
      "duration": 0.063,
      "velocity": 0.81,
      "hand": "left"
    },
    {
      "midi": 60,
      "time": 31.5,
      "duration": 0.36,
      "velocity": 0.56,
      "hand": "right"
    },
    {
      "midi": 63,
      "time": 31.5,
      "duration": 0.36,
      "velocity": 0.55,
      "hand": "right"
    },
    {
      "midi": 68,
      "time": 31.5,
      "duration": 0.375,
      "velocity": 0.72,
      "hand": "right"
    },
    {
      "midi": 51,
      "time": 31.75,
      "duration": 1.25,
      "velocity": 0.35,
      "hand": "left"
    },
    {
      "midi": 38,
      "time": 31.875,
      "duration": 0.063,
      "velocity": 0.97,
      "hand": "left"
    },
    {
      "midi": 44,
      "time": 31.875,
      "duration": 0.063,
      "velocity": 0.61,
      "hand": "left"
    },
    {
      "midi": 60,
      "time": 31.875,
      "duration": 0.063,
      "velocity": 0.52,
      "hand": "right"
    },
    {
      "midi": 63,
      "time": 31.875,
      "duration": 0.063,
      "velocity": 0.46,
      "hand": "right"
    },
    {
      "midi": 67,
      "time": 31.875,
      "duration": 0.063,
      "velocity": 0.4,
      "hand": "right"
    },
    {
      "midi": 38,
      "time": 32,
      "duration": 0.063,
      "velocity": 0.69,
      "hand": "left"
    },
    {
      "midi": 44,
      "time": 32,
      "duration": 0.063,
      "velocity": 0.61,
      "hand": "left"
    },
    {
      "midi": 60,
      "time": 32,
      "duration": 0.375,
      "velocity": 0.58,
      "hand": "right"
    },
    {
      "midi": 63,
      "time": 32,
      "duration": 0.375,
      "velocity": 0.54,
      "hand": "right"
    },
    {
      "midi": 67,
      "time": 32,
      "duration": 0.485,
      "velocity": 0.54,
      "hand": "right"
    },
    {
      "midi": 44,
      "time": 32.375,
      "duration": 0.063,
      "velocity": 0.61,
      "hand": "left"
    },
    {
      "midi": 38,
      "time": 32.5,
      "duration": 0.063,
      "velocity": 0.91,
      "hand": "left"
    },
    {
      "midi": 44,
      "time": 32.5,
      "duration": 0.063,
      "velocity": 0.61,
      "hand": "left"
    },
    {
      "midi": 60,
      "time": 32.5,
      "duration": 0.25,
      "velocity": 0.65,
      "hand": "right"
    },
    {
      "midi": 63,
      "time": 32.5,
      "duration": 0.25,
      "velocity": 0.59,
      "hand": "right"
    },
    {
      "midi": 67,
      "time": 32.5,
      "duration": 0.25,
      "velocity": 0.7,
      "hand": "right"
    },
    {
      "midi": 45,
      "time": 32.75,
      "duration": 0.25,
      "velocity": 0.97,
      "hand": "left"
    },
    {
      "midi": 55,
      "time": 32.75,
      "duration": 0.125,
      "velocity": 0.57,
      "hand": "left"
    },
    {
      "midi": 44,
      "time": 32.875,
      "duration": 0.063,
      "velocity": 0.61,
      "hand": "left"
    },
    {
      "midi": 68,
      "time": 32.875,
      "duration": 0.125,
      "velocity": 0.46,
      "hand": "right"
    },
    {
      "midi": 43,
      "time": 33,
      "duration": 1.235,
      "velocity": 1,
      "hand": "left"
    },
    {
      "midi": 47,
      "time": 33,
      "duration": 0.063,
      "velocity": 0.73,
      "hand": "left"
    },
    {
      "midi": 62,
      "time": 33,
      "duration": 0.36,
      "velocity": 0.54,
      "hand": "right"
    },
    {
      "midi": 67,
      "time": 33,
      "duration": 0.485,
      "velocity": 0.56,
      "hand": "right"
    },
    {
      "midi": 44,
      "time": 33.375,
      "duration": 0.063,
      "velocity": 0.61,
      "hand": "left"
    },
    {
      "midi": 55,
      "time": 33.375,
      "duration": 0.063,
      "velocity": 0.48,
      "hand": "left"
    },
    {
      "midi": 62,
      "time": 33.375,
      "duration": 0.11,
      "velocity": 0.56,
      "hand": "right"
    },
    {
      "midi": 38,
      "time": 33.5,
      "duration": 0.485,
      "velocity": 0.86,
      "hand": "left"
    },
    {
      "midi": 44,
      "time": 33.5,
      "duration": 0.063,
      "velocity": 0.61,
      "hand": "left"
    },
    {
      "midi": 62,
      "time": 33.5,
      "duration": 0.375,
      "velocity": 0.54,
      "hand": "right"
    },
    {
      "midi": 65,
      "time": 33.5,
      "duration": 0.485,
      "velocity": 0.56,
      "hand": "right"
    },
    {
      "midi": 67,
      "time": 33.5,
      "duration": 0.063,
      "velocity": 0.52,
      "hand": "right"
    },
    {
      "midi": 44,
      "time": 33.875,
      "duration": 0.063,
      "velocity": 0.61,
      "hand": "left"
    },
    {
      "midi": 38,
      "time": 34,
      "duration": 0.063,
      "velocity": 0.91,
      "hand": "left"
    },
    {
      "midi": 44,
      "time": 34,
      "duration": 0.063,
      "velocity": 0.61,
      "hand": "left"
    },
    {
      "midi": 63,
      "time": 34,
      "duration": 0.25,
      "velocity": 0.48,
      "hand": "right"
    },
    {
      "midi": 65,
      "time": 34,
      "duration": 0.25,
      "velocity": 0.52,
      "hand": "right"
    },
    {
      "midi": 43,
      "time": 34.25,
      "duration": 0.25,
      "velocity": 0.94,
      "hand": "left"
    },
    {
      "midi": 62,
      "time": 34.25,
      "duration": 0.235,
      "velocity": 0.57,
      "hand": "right"
    },
    {
      "midi": 44,
      "time": 34.375,
      "duration": 0.063,
      "velocity": 0.61,
      "hand": "left"
    },
    {
      "midi": 36,
      "time": 34.5,
      "duration": 0.5,
      "velocity": 0.94,
      "hand": "left"
    },
    {
      "midi": 47,
      "time": 34.5,
      "duration": 0.063,
      "velocity": 0.72,
      "hand": "left"
    },
    {
      "midi": 63,
      "time": 34.5,
      "duration": 0.25,
      "velocity": 0.54,
      "hand": "right"
    },
    {
      "midi": 65,
      "time": 34.5,
      "duration": 0.25,
      "velocity": 0.57,
      "hand": "right"
    },
    {
      "midi": 67,
      "time": 34.5,
      "duration": 0.125,
      "velocity": 0.49,
      "hand": "right"
    },
    {
      "midi": 60,
      "time": 34.75,
      "duration": 0.125,
      "velocity": 0.24,
      "hand": "right"
    },
    {
      "midi": 38,
      "time": 34.875,
      "duration": 0.063,
      "velocity": 0.91,
      "hand": "left"
    },
    {
      "midi": 44,
      "time": 34.875,
      "duration": 0.063,
      "velocity": 0.61,
      "hand": "left"
    },
    {
      "midi": 39,
      "time": 35,
      "duration": 0.063,
      "velocity": 0.94,
      "hand": "left"
    },
    {
      "midi": 60,
      "time": 35,
      "duration": 0.25,
      "velocity": 0.59,
      "hand": "right"
    },
    {
      "midi": 62,
      "time": 35,
      "duration": 0.375,
      "velocity": 0.72,
      "hand": "right"
    },
    {
      "midi": 65,
      "time": 35,
      "duration": 0.375,
      "velocity": 0.53,
      "hand": "right"
    },
    {
      "midi": 44,
      "time": 35.125,
      "duration": 0.063,
      "velocity": 0.61,
      "hand": "left"
    },
    {
      "midi": 43,
      "time": 35.25,
      "duration": 0.063,
      "velocity": 0.87,
      "hand": "left"
    },
    {
      "midi": 44,
      "time": 35.5,
      "duration": 0.5,
      "velocity": 1,
      "hand": "left"
    },
    {
      "midi": 48,
      "time": 35.5,
      "duration": 0.063,
      "velocity": 0.81,
      "hand": "left"
    },
    {
      "midi": 63,
      "time": 35.5,
      "duration": 0.375,
      "velocity": 0.78,
      "hand": "right"
    },
    {
      "midi": 45,
      "time": 35.75,
      "duration": 0.063,
      "velocity": 0.81,
      "hand": "left"
    },
    {
      "midi": 67,
      "time": 35.75,
      "duration": 0.125,
      "velocity": 0.5,
      "hand": "right"
    },
    {
      "midi": 38,
      "time": 35.875,
      "duration": 0.063,
      "velocity": 0.96,
      "hand": "left"
    },
    {
      "midi": 36,
      "time": 36,
      "duration": 1.25,
      "velocity": 0.97,
      "hand": "left"
    },
    {
      "midi": 47,
      "time": 36,
      "duration": 0.063,
      "velocity": 0.77,
      "hand": "left"
    },
    {
      "midi": 60,
      "time": 36,
      "duration": 0.36,
      "velocity": 0.5,
      "hand": "right"
    },
    {
      "midi": 63,
      "time": 36,
      "duration": 0.235,
      "velocity": 0.5,
      "hand": "right"
    },
    {
      "midi": 67,
      "time": 36,
      "duration": 0.36,
      "velocity": 0.63,
      "hand": "right"
    },
    {
      "midi": 63,
      "time": 36.25,
      "duration": 0.11,
      "velocity": 0.8,
      "hand": "right"
    },
    {
      "midi": 44,
      "time": 36.375,
      "duration": 0.063,
      "velocity": 0.61,
      "hand": "left"
    },
    {
      "midi": 55,
      "time": 36.375,
      "duration": 0.063,
      "velocity": 0.43,
      "hand": "left"
    },
    {
      "midi": 60,
      "time": 36.375,
      "duration": 0.063,
      "velocity": 0.58,
      "hand": "right"
    },
    {
      "midi": 63,
      "time": 36.375,
      "duration": 0.063,
      "velocity": 0.54,
      "hand": "right"
    },
    {
      "midi": 67,
      "time": 36.375,
      "duration": 0.063,
      "velocity": 0.43,
      "hand": "right"
    },
    {
      "midi": 38,
      "time": 36.5,
      "duration": 0.063,
      "velocity": 0.8,
      "hand": "left"
    },
    {
      "midi": 44,
      "time": 36.5,
      "duration": 0.063,
      "velocity": 0.61,
      "hand": "left"
    },
    {
      "midi": 60,
      "time": 36.5,
      "duration": 0.375,
      "velocity": 0.61,
      "hand": "right"
    },
    {
      "midi": 63,
      "time": 36.5,
      "duration": 0.063,
      "velocity": 0.39,
      "hand": "right"
    },
    {
      "midi": 67,
      "time": 36.5,
      "duration": 0.125,
      "velocity": 0.48,
      "hand": "right"
    },
    {
      "midi": 55,
      "time": 36.75,
      "duration": 0.235,
      "velocity": 0.74,
      "hand": "left"
    },
    {
      "midi": 44,
      "time": 36.875,
      "duration": 0.063,
      "velocity": 0.61,
      "hand": "left"
    },
    {
      "midi": 38,
      "time": 37,
      "duration": 0.063,
      "velocity": 0.91,
      "hand": "left"
    },
    {
      "midi": 44,
      "time": 37,
      "duration": 0.063,
      "velocity": 0.61,
      "hand": "left"
    },
    {
      "midi": 60,
      "time": 37,
      "duration": 0.375,
      "velocity": 0.74,
      "hand": "right"
    },
    {
      "midi": 63,
      "time": 37,
      "duration": 0.235,
      "velocity": 0.73,
      "hand": "right"
    },
    {
      "midi": 67,
      "time": 37,
      "duration": 0.125,
      "velocity": 0.54,
      "hand": "right"
    },
    {
      "midi": 43,
      "time": 37.25,
      "duration": 0.125,
      "velocity": 0.94,
      "hand": "left"
    },
    {
      "midi": 63,
      "time": 37.25,
      "duration": 0.125,
      "velocity": 0.51,
      "hand": "right"
    },
    {
      "midi": 67,
      "time": 37.25,
      "duration": 0.235,
      "velocity": 0.52,
      "hand": "right"
    },
    {
      "midi": 44,
      "time": 37.375,
      "duration": 0.063,
      "velocity": 0.61,
      "hand": "left"
    },
    {
      "midi": 36,
      "time": 37.5,
      "duration": 1,
      "velocity": 0.97,
      "hand": "left"
    },
    {
      "midi": 47,
      "time": 37.5,
      "duration": 0.063,
      "velocity": 0.75,
      "hand": "left"
    },
    {
      "midi": 60,
      "time": 37.5,
      "duration": 0.36,
      "velocity": 0.55,
      "hand": "right"
    },
    {
      "midi": 63,
      "time": 37.5,
      "duration": 0.36,
      "velocity": 0.46,
      "hand": "right"
    },
    {
      "midi": 67,
      "time": 37.5,
      "duration": 0.36,
      "velocity": 0.56,
      "hand": "right"
    },
    {
      "midi": 38,
      "time": 37.875,
      "duration": 0.063,
      "velocity": 0.97,
      "hand": "left"
    },
    {
      "midi": 44,
      "time": 37.875,
      "duration": 0.063,
      "velocity": 0.61,
      "hand": "left"
    },
    {
      "midi": 60,
      "time": 37.875,
      "duration": 0.063,
      "velocity": 0.48,
      "hand": "right"
    },
    {
      "midi": 63,
      "time": 37.875,
      "duration": 0.063,
      "velocity": 0.46,
      "hand": "right"
    },
    {
      "midi": 67,
      "time": 37.875,
      "duration": 0.11,
      "velocity": 0.34,
      "hand": "right"
    },
    {
      "midi": 38,
      "time": 38,
      "duration": 0.063,
      "velocity": 0.65,
      "hand": "left"
    },
    {
      "midi": 44,
      "time": 38,
      "duration": 0.063,
      "velocity": 0.61,
      "hand": "left"
    },
    {
      "midi": 60,
      "time": 38,
      "duration": 0.063,
      "velocity": 0.44,
      "hand": "right"
    },
    {
      "midi": 63,
      "time": 38,
      "duration": 0.125,
      "velocity": 0.51,
      "hand": "right"
    },
    {
      "midi": 67,
      "time": 38,
      "duration": 0.125,
      "velocity": 0.28,
      "hand": "right"
    },
    {
      "midi": 44,
      "time": 38.375,
      "duration": 0.063,
      "velocity": 0.61,
      "hand": "left"
    },
    {
      "midi": 38,
      "time": 38.5,
      "duration": 0.063,
      "velocity": 0.91,
      "hand": "left"
    },
    {
      "midi": 43,
      "time": 38.5,
      "duration": 0.375,
      "velocity": 0.99,
      "hand": "left"
    },
    {
      "midi": 60,
      "time": 38.5,
      "duration": 0.25,
      "velocity": 0.72,
      "hand": "right"
    },
    {
      "midi": 63,
      "time": 38.5,
      "duration": 0.25,
      "velocity": 0.74,
      "hand": "right"
    },
    {
      "midi": 67,
      "time": 38.5,
      "duration": 0.25,
      "velocity": 0.75,
      "hand": "right"
    },
    {
      "midi": 55,
      "time": 38.75,
      "duration": 0.125,
      "velocity": 0.54,
      "hand": "left"
    },
    {
      "midi": 44,
      "time": 38.875,
      "duration": 0.063,
      "velocity": 0.61,
      "hand": "left"
    },
    {
      "midi": 67,
      "time": 38.875,
      "duration": 0.11,
      "velocity": 0.55,
      "hand": "right"
    },
    {
      "midi": 40,
      "time": 39,
      "duration": 1,
      "velocity": 0.98,
      "hand": "left"
    },
    {
      "midi": 43,
      "time": 39,
      "duration": 0.875,
      "velocity": 0.65,
      "hand": "left"
    },
    {
      "midi": 60,
      "time": 39,
      "duration": 0.36,
      "velocity": 0.72,
      "hand": "right"
    },
    {
      "midi": 64,
      "time": 39,
      "duration": 0.36,
      "velocity": 0.51,
      "hand": "right"
    },
    {
      "midi": 68,
      "time": 39,
      "duration": 0.375,
      "velocity": 0.51,
      "hand": "right"
    },
    {
      "midi": 44,
      "time": 39.375,
      "duration": 0.063,
      "velocity": 0.61,
      "hand": "left"
    },
    {
      "midi": 55,
      "time": 39.375,
      "duration": 0.063,
      "velocity": 0.45,
      "hand": "left"
    },
    {
      "midi": 60,
      "time": 39.375,
      "duration": 0.063,
      "velocity": 0.51,
      "hand": "right"
    },
    {
      "midi": 64,
      "time": 39.375,
      "duration": 0.063,
      "velocity": 0.22,
      "hand": "right"
    },
    {
      "midi": 38,
      "time": 39.5,
      "duration": 0.063,
      "velocity": 0.9,
      "hand": "left"
    },
    {
      "midi": 44,
      "time": 39.5,
      "duration": 0.063,
      "velocity": 0.61,
      "hand": "left"
    },
    {
      "midi": 60,
      "time": 39.5,
      "duration": 0.063,
      "velocity": 0.57,
      "hand": "right"
    },
    {
      "midi": 64,
      "time": 39.5,
      "duration": 0.063,
      "velocity": 0.46,
      "hand": "right"
    },
    {
      "midi": 67,
      "time": 39.5,
      "duration": 0.5,
      "velocity": 0.52,
      "hand": "right"
    },
    {
      "midi": 44,
      "time": 39.875,
      "duration": 0.063,
      "velocity": 0.61,
      "hand": "left"
    },
    {
      "midi": 38,
      "time": 40,
      "duration": 0.25,
      "velocity": 0.95,
      "hand": "left"
    },
    {
      "midi": 44,
      "time": 40,
      "duration": 0.063,
      "velocity": 0.61,
      "hand": "left"
    },
    {
      "midi": 60,
      "time": 40,
      "duration": 0.25,
      "velocity": 0.68,
      "hand": "right"
    },
    {
      "midi": 65,
      "time": 40,
      "duration": 0.25,
      "velocity": 0.61,
      "hand": "right"
    },
    {
      "midi": 36,
      "time": 40.25,
      "duration": 0.25,
      "velocity": 0.94,
      "hand": "left"
    },
    {
      "midi": 55,
      "time": 40.25,
      "duration": 0.125,
      "velocity": 0.61,
      "hand": "left"
    },
    {
      "midi": 64,
      "time": 40.25,
      "duration": 0.25,
      "velocity": 0.54,
      "hand": "right"
    },
    {
      "midi": 44,
      "time": 40.375,
      "duration": 0.063,
      "velocity": 0.61,
      "hand": "left"
    },
    {
      "midi": 41,
      "time": 40.5,
      "duration": 1.125,
      "velocity": 0.99,
      "hand": "left"
    },
    {
      "midi": 47,
      "time": 40.5,
      "duration": 0.063,
      "velocity": 0.81,
      "hand": "left"
    },
    {
      "midi": 65,
      "time": 40.5,
      "duration": 0.36,
      "velocity": 0.51,
      "hand": "right"
    },
    {
      "midi": 68,
      "time": 40.5,
      "duration": 1.985,
      "velocity": 0.44,
      "hand": "right"
    },
    {
      "midi": 60,
      "time": 40.75,
      "duration": 0.11,
      "velocity": 0.72,
      "hand": "right"
    },
    {
      "midi": 38,
      "time": 40.875,
      "duration": 0.063,
      "velocity": 0.97,
      "hand": "left"
    },
    {
      "midi": 44,
      "time": 40.875,
      "duration": 0.063,
      "velocity": 0.61,
      "hand": "left"
    },
    {
      "midi": 60,
      "time": 40.875,
      "duration": 0.11,
      "velocity": 0.48,
      "hand": "right"
    },
    {
      "midi": 63,
      "time": 40.875,
      "duration": 0.11,
      "velocity": 0.42,
      "hand": "right"
    },
    {
      "midi": 65,
      "time": 40.875,
      "duration": 0.11,
      "velocity": 0.46,
      "hand": "right"
    },
    {
      "midi": 38,
      "time": 41,
      "duration": 0.063,
      "velocity": 0.69,
      "hand": "left"
    },
    {
      "midi": 44,
      "time": 41,
      "duration": 0.063,
      "velocity": 0.61,
      "hand": "left"
    },
    {
      "midi": 60,
      "time": 41,
      "duration": 0.063,
      "velocity": 0.45,
      "hand": "right"
    },
    {
      "midi": 63,
      "time": 41,
      "duration": 0.485,
      "velocity": 0.56,
      "hand": "right"
    },
    {
      "midi": 65,
      "time": 41,
      "duration": 0.063,
      "velocity": 0.52,
      "hand": "right"
    },
    {
      "midi": 65,
      "time": 41.25,
      "duration": 0.235,
      "velocity": 0.54,
      "hand": "right"
    },
    {
      "midi": 44,
      "time": 41.375,
      "duration": 0.063,
      "velocity": 0.61,
      "hand": "left"
    },
    {
      "midi": 36,
      "time": 41.5,
      "duration": 0.25,
      "velocity": 0.94,
      "hand": "left"
    },
    {
      "midi": 38,
      "time": 41.5,
      "duration": 0.063,
      "velocity": 0.91,
      "hand": "left"
    },
    {
      "midi": 60,
      "time": 41.5,
      "duration": 0.063,
      "velocity": 0.59,
      "hand": "right"
    },
    {
      "midi": 63,
      "time": 41.5,
      "duration": 0.125,
      "velocity": 0.54,
      "hand": "right"
    },
    {
      "midi": 65,
      "time": 41.5,
      "duration": 0.125,
      "velocity": 0.5,
      "hand": "right"
    },
    {
      "midi": 67,
      "time": 41.5,
      "duration": 0.25,
      "velocity": 0.73,
      "hand": "right"
    },
    {
      "midi": 48,
      "time": 41.625,
      "duration": 0.375,
      "velocity": 0.48,
      "hand": "left"
    },
    {
      "midi": 41,
      "time": 41.75,
      "duration": 0.125,
      "velocity": 0.91,
      "hand": "left"
    },
    {
      "midi": 44,
      "time": 41.75,
      "duration": 0.11,
      "velocity": 0.44,
      "hand": "left"
    },
    {
      "midi": 60,
      "time": 41.75,
      "duration": 0.25,
      "velocity": 0.59,
      "hand": "right"
    },
    {
      "midi": 44,
      "time": 41.875,
      "duration": 0.063,
      "velocity": 0.61,
      "hand": "left"
    },
    {
      "midi": 67,
      "time": 41.875,
      "duration": 0.125,
      "velocity": 0.57,
      "hand": "right"
    },
    {
      "midi": 41,
      "time": 42,
      "duration": 0.985,
      "velocity": 0.52,
      "hand": "left"
    },
    {
      "midi": 46,
      "time": 42,
      "duration": 1,
      "velocity": 1,
      "hand": "left"
    },
    {
      "midi": 63,
      "time": 42,
      "duration": 0.235,
      "velocity": 0.32,
      "hand": "right"
    },
    {
      "midi": 65,
      "time": 42,
      "duration": 0.36,
      "velocity": 0.57,
      "hand": "right"
    },
    {
      "midi": 70,
      "time": 42,
      "duration": 0.375,
      "velocity": 0.65,
      "hand": "right"
    },
    {
      "midi": 63,
      "time": 42.25,
      "duration": 0.11,
      "velocity": 0.56,
      "hand": "right"
    },
    {
      "midi": 44,
      "time": 42.375,
      "duration": 0.063,
      "velocity": 0.61,
      "hand": "left"
    },
    {
      "midi": 56,
      "time": 42.375,
      "duration": 0.063,
      "velocity": 0.5,
      "hand": "left"
    },
    {
      "midi": 60,
      "time": 42.375,
      "duration": 0.063,
      "velocity": 0.54,
      "hand": "right"
    },
    {
      "midi": 63,
      "time": 42.375,
      "duration": 0.063,
      "velocity": 0.5,
      "hand": "right"
    },
    {
      "midi": 65,
      "time": 42.375,
      "duration": 0.063,
      "velocity": 0.44,
      "hand": "right"
    },
    {
      "midi": 38,
      "time": 42.5,
      "duration": 0.063,
      "velocity": 0.83,
      "hand": "left"
    },
    {
      "midi": 44,
      "time": 42.5,
      "duration": 0.063,
      "velocity": 0.61,
      "hand": "left"
    },
    {
      "midi": 60,
      "time": 42.5,
      "duration": 0.375,
      "velocity": 0.56,
      "hand": "right"
    },
    {
      "midi": 63,
      "time": 42.5,
      "duration": 0.063,
      "velocity": 0.49,
      "hand": "right"
    },
    {
      "midi": 65,
      "time": 42.5,
      "duration": 0.063,
      "velocity": 0.5,
      "hand": "right"
    },
    {
      "midi": 68,
      "time": 42.5,
      "duration": 0.5,
      "velocity": 0.61,
      "hand": "right"
    },
    {
      "midi": 56,
      "time": 42.75,
      "duration": 0.235,
      "velocity": 0.72,
      "hand": "left"
    },
    {
      "midi": 44,
      "time": 42.875,
      "duration": 0.063,
      "velocity": 0.61,
      "hand": "left"
    },
    {
      "midi": 38,
      "time": 43,
      "duration": 0.063,
      "velocity": 0.91,
      "hand": "left"
    },
    {
      "midi": 41,
      "time": 43,
      "duration": 0.25,
      "velocity": 0.91,
      "hand": "left"
    },
    {
      "midi": 60,
      "time": 43,
      "duration": 0.375,
      "velocity": 0.64,
      "hand": "right"
    },
    {
      "midi": 63,
      "time": 43,
      "duration": 0.375,
      "velocity": 0.52,
      "hand": "right"
    },
    {
      "midi": 65,
      "time": 43,
      "duration": 0.235,
      "velocity": 0.52,
      "hand": "right"
    },
    {
      "midi": 67,
      "time": 43,
      "duration": 0.25,
      "velocity": 0.61,
      "hand": "right"
    },
    {
      "midi": 46,
      "time": 43.25,
      "duration": 0.25,
      "velocity": 1,
      "hand": "left"
    },
    {
      "midi": 56,
      "time": 43.25,
      "duration": 0.125,
      "velocity": 0.73,
      "hand": "left"
    },
    {
      "midi": 65,
      "time": 43.25,
      "duration": 0.25,
      "velocity": 0.56,
      "hand": "right"
    },
    {
      "midi": 44,
      "time": 43.375,
      "duration": 0.063,
      "velocity": 0.61,
      "hand": "left"
    },
    {
      "midi": 36,
      "time": 43.5,
      "duration": 1,
      "velocity": 0.95,
      "hand": "left"
    },
    {
      "midi": 47,
      "time": 43.5,
      "duration": 0.063,
      "velocity": 0.72,
      "hand": "left"
    },
    {
      "midi": 60,
      "time": 43.5,
      "duration": 0.36,
      "velocity": 0.56,
      "hand": "right"
    },
    {
      "midi": 63,
      "time": 43.5,
      "duration": 0.36,
      "velocity": 0.55,
      "hand": "right"
    },
    {
      "midi": 68,
      "time": 43.5,
      "duration": 0.375,
      "velocity": 0.72,
      "hand": "right"
    },
    {
      "midi": 51,
      "time": 43.75,
      "duration": 1.25,
      "velocity": 0.35,
      "hand": "left"
    },
    {
      "midi": 38,
      "time": 43.875,
      "duration": 0.063,
      "velocity": 0.97,
      "hand": "left"
    },
    {
      "midi": 44,
      "time": 43.875,
      "duration": 0.063,
      "velocity": 0.61,
      "hand": "left"
    },
    {
      "midi": 60,
      "time": 43.875,
      "duration": 0.063,
      "velocity": 0.52,
      "hand": "right"
    },
    {
      "midi": 63,
      "time": 43.875,
      "duration": 0.063,
      "velocity": 0.46,
      "hand": "right"
    },
    {
      "midi": 67,
      "time": 43.875,
      "duration": 0.063,
      "velocity": 0.4,
      "hand": "right"
    },
    {
      "midi": 38,
      "time": 44,
      "duration": 0.063,
      "velocity": 0.7,
      "hand": "left"
    },
    {
      "midi": 54,
      "time": 44,
      "duration": 0.063,
      "velocity": 0.54,
      "hand": "left"
    },
    {
      "midi": 60,
      "time": 44,
      "duration": 0.375,
      "velocity": 0.58,
      "hand": "right"
    },
    {
      "midi": 63,
      "time": 44,
      "duration": 0.375,
      "velocity": 0.54,
      "hand": "right"
    },
    {
      "midi": 67,
      "time": 44,
      "duration": 0.485,
      "velocity": 0.54,
      "hand": "right"
    },
    {
      "midi": 44,
      "time": 44.125,
      "duration": 0.063,
      "velocity": 0.61,
      "hand": "left"
    },
    {
      "midi": 44,
      "time": 44.375,
      "duration": 0.063,
      "velocity": 0.61,
      "hand": "left"
    },
    {
      "midi": 38,
      "time": 44.5,
      "duration": 0.063,
      "velocity": 0.9,
      "hand": "left"
    },
    {
      "midi": 44,
      "time": 44.5,
      "duration": 0.063,
      "velocity": 0.61,
      "hand": "left"
    },
    {
      "midi": 60,
      "time": 44.5,
      "duration": 0.25,
      "velocity": 0.65,
      "hand": "right"
    },
    {
      "midi": 63,
      "time": 44.5,
      "duration": 0.25,
      "velocity": 0.59,
      "hand": "right"
    },
    {
      "midi": 67,
      "time": 44.5,
      "duration": 0.25,
      "velocity": 0.7,
      "hand": "right"
    },
    {
      "midi": 45,
      "time": 44.75,
      "duration": 0.25,
      "velocity": 0.97,
      "hand": "left"
    },
    {
      "midi": 55,
      "time": 44.75,
      "duration": 0.125,
      "velocity": 0.57,
      "hand": "left"
    },
    {
      "midi": 44,
      "time": 44.875,
      "duration": 0.063,
      "velocity": 0.61,
      "hand": "left"
    },
    {
      "midi": 68,
      "time": 44.875,
      "duration": 0.125,
      "velocity": 0.46,
      "hand": "right"
    },
    {
      "midi": 43,
      "time": 45,
      "duration": 1.235,
      "velocity": 1,
      "hand": "left"
    },
    {
      "midi": 47,
      "time": 45,
      "duration": 0.063,
      "velocity": 0.77,
      "hand": "left"
    },
    {
      "midi": 62,
      "time": 45,
      "duration": 0.36,
      "velocity": 0.54,
      "hand": "right"
    },
    {
      "midi": 67,
      "time": 45,
      "duration": 0.485,
      "velocity": 0.56,
      "hand": "right"
    },
    {
      "midi": 44,
      "time": 45.375,
      "duration": 0.063,
      "velocity": 0.61,
      "hand": "left"
    },
    {
      "midi": 55,
      "time": 45.375,
      "duration": 0.063,
      "velocity": 0.48,
      "hand": "left"
    },
    {
      "midi": 62,
      "time": 45.375,
      "duration": 0.11,
      "velocity": 0.56,
      "hand": "right"
    },
    {
      "midi": 38,
      "time": 45.5,
      "duration": 0.485,
      "velocity": 0.86,
      "hand": "left"
    },
    {
      "midi": 44,
      "time": 45.5,
      "duration": 0.063,
      "velocity": 0.61,
      "hand": "left"
    },
    {
      "midi": 62,
      "time": 45.5,
      "duration": 0.375,
      "velocity": 0.54,
      "hand": "right"
    },
    {
      "midi": 65,
      "time": 45.5,
      "duration": 0.485,
      "velocity": 0.56,
      "hand": "right"
    },
    {
      "midi": 67,
      "time": 45.5,
      "duration": 0.063,
      "velocity": 0.52,
      "hand": "right"
    },
    {
      "midi": 44,
      "time": 45.875,
      "duration": 0.063,
      "velocity": 0.61,
      "hand": "left"
    },
    {
      "midi": 38,
      "time": 46,
      "duration": 0.063,
      "velocity": 0.91,
      "hand": "left"
    },
    {
      "midi": 44,
      "time": 46,
      "duration": 0.063,
      "velocity": 0.61,
      "hand": "left"
    },
    {
      "midi": 63,
      "time": 46,
      "duration": 0.25,
      "velocity": 0.48,
      "hand": "right"
    },
    {
      "midi": 65,
      "time": 46,
      "duration": 0.25,
      "velocity": 0.52,
      "hand": "right"
    },
    {
      "midi": 43,
      "time": 46.25,
      "duration": 0.25,
      "velocity": 0.94,
      "hand": "left"
    },
    {
      "midi": 62,
      "time": 46.25,
      "duration": 0.235,
      "velocity": 0.57,
      "hand": "right"
    },
    {
      "midi": 44,
      "time": 46.375,
      "duration": 0.063,
      "velocity": 0.61,
      "hand": "left"
    },
    {
      "midi": 36,
      "time": 46.5,
      "duration": 0.5,
      "velocity": 0.94,
      "hand": "left"
    },
    {
      "midi": 47,
      "time": 46.5,
      "duration": 0.063,
      "velocity": 0.75,
      "hand": "left"
    },
    {
      "midi": 63,
      "time": 46.5,
      "duration": 0.25,
      "velocity": 0.54,
      "hand": "right"
    },
    {
      "midi": 65,
      "time": 46.5,
      "duration": 0.25,
      "velocity": 0.57,
      "hand": "right"
    },
    {
      "midi": 67,
      "time": 46.5,
      "duration": 0.125,
      "velocity": 0.49,
      "hand": "right"
    },
    {
      "midi": 60,
      "time": 46.75,
      "duration": 0.125,
      "velocity": 0.24,
      "hand": "right"
    },
    {
      "midi": 38,
      "time": 46.875,
      "duration": 0.063,
      "velocity": 0.91,
      "hand": "left"
    },
    {
      "midi": 44,
      "time": 46.875,
      "duration": 0.063,
      "velocity": 0.61,
      "hand": "left"
    },
    {
      "midi": 38,
      "time": 47,
      "duration": 0.485,
      "velocity": 0.91,
      "hand": "left"
    },
    {
      "midi": 44,
      "time": 47,
      "duration": 0.063,
      "velocity": 0.61,
      "hand": "left"
    },
    {
      "midi": 60,
      "time": 47,
      "duration": 0.25,
      "velocity": 0.59,
      "hand": "right"
    },
    {
      "midi": 62,
      "time": 47,
      "duration": 0.375,
      "velocity": 0.72,
      "hand": "right"
    },
    {
      "midi": 65,
      "time": 47,
      "duration": 0.375,
      "velocity": 0.53,
      "hand": "right"
    },
    {
      "midi": 39,
      "time": 47.25,
      "duration": 0.063,
      "velocity": 0.91,
      "hand": "left"
    },
    {
      "midi": 44,
      "time": 47.375,
      "duration": 0.063,
      "velocity": 0.61,
      "hand": "left"
    },
    {
      "midi": 38,
      "time": 47.5,
      "duration": 0.063,
      "velocity": 0.93,
      "hand": "left"
    },
    {
      "midi": 44,
      "time": 47.5,
      "duration": 0.36,
      "velocity": 1,
      "hand": "left"
    },
    {
      "midi": 63,
      "time": 47.5,
      "duration": 0.375,
      "velocity": 0.94,
      "hand": "right"
    },
    {
      "midi": 39,
      "time": 47.75,
      "duration": 0.063,
      "velocity": 0.72,
      "hand": "left"
    },
    {
      "midi": 67,
      "time": 47.75,
      "duration": 0.125,
      "velocity": 0.65,
      "hand": "right"
    },
    {
      "midi": 44,
      "time": 47.875,
      "duration": 0.063,
      "velocity": 0.61,
      "hand": "left"
    },
    {
      "midi": 36,
      "time": 48,
      "duration": 1.25,
      "velocity": 0.97,
      "hand": "left"
    },
    {
      "midi": 47,
      "time": 48,
      "duration": 0.063,
      "velocity": 0.73,
      "hand": "left"
    },
    {
      "midi": 60,
      "time": 48,
      "duration": 0.36,
      "velocity": 0.88,
      "hand": "right"
    },
    {
      "midi": 63,
      "time": 48,
      "duration": 0.235,
      "velocity": 0.42,
      "hand": "right"
    },
    {
      "midi": 67,
      "time": 48,
      "duration": 0.36,
      "velocity": 0.63,
      "hand": "right"
    },
    {
      "midi": 54,
      "time": 48.25,
      "duration": 0.063,
      "velocity": 0.54,
      "hand": "left"
    },
    {
      "midi": 63,
      "time": 48.25,
      "duration": 0.11,
      "velocity": 0.8,
      "hand": "right"
    },
    {
      "midi": 51,
      "time": 48.375,
      "duration": 0.063,
      "velocity": 0.61,
      "hand": "left"
    },
    {
      "midi": 55,
      "time": 48.375,
      "duration": 0.063,
      "velocity": 0.43,
      "hand": "left"
    },
    {
      "midi": 60,
      "time": 48.375,
      "duration": 0.063,
      "velocity": 0.58,
      "hand": "right"
    },
    {
      "midi": 63,
      "time": 48.375,
      "duration": 0.063,
      "velocity": 0.54,
      "hand": "right"
    },
    {
      "midi": 67,
      "time": 48.375,
      "duration": 0.063,
      "velocity": 0.43,
      "hand": "right"
    },
    {
      "midi": 38,
      "time": 48.5,
      "duration": 0.063,
      "velocity": 0.83,
      "hand": "left"
    },
    {
      "midi": 51,
      "time": 48.5,
      "duration": 0.063,
      "velocity": 0.61,
      "hand": "left"
    },
    {
      "midi": 60,
      "time": 48.5,
      "duration": 0.375,
      "velocity": 0.77,
      "hand": "right"
    },
    {
      "midi": 63,
      "time": 48.5,
      "duration": 0.063,
      "velocity": 0.39,
      "hand": "right"
    },
    {
      "midi": 67,
      "time": 48.5,
      "duration": 0.125,
      "velocity": 0.48,
      "hand": "right"
    },
    {
      "midi": 55,
      "time": 48.75,
      "duration": 0.235,
      "velocity": 0.74,
      "hand": "left"
    },
    {
      "midi": 51,
      "time": 48.875,
      "duration": 0.063,
      "velocity": 0.61,
      "hand": "left"
    },
    {
      "midi": 38,
      "time": 49,
      "duration": 0.063,
      "velocity": 0.91,
      "hand": "left"
    },
    {
      "midi": 51,
      "time": 49,
      "duration": 0.063,
      "velocity": 0.61,
      "hand": "left"
    },
    {
      "midi": 60,
      "time": 49,
      "duration": 0.375,
      "velocity": 0.74,
      "hand": "right"
    },
    {
      "midi": 63,
      "time": 49,
      "duration": 0.235,
      "velocity": 0.89,
      "hand": "right"
    },
    {
      "midi": 67,
      "time": 49,
      "duration": 0.125,
      "velocity": 0.54,
      "hand": "right"
    },
    {
      "midi": 43,
      "time": 49.25,
      "duration": 0.125,
      "velocity": 0.94,
      "hand": "left"
    },
    {
      "midi": 54,
      "time": 49.25,
      "duration": 0.063,
      "velocity": 0.54,
      "hand": "left"
    },
    {
      "midi": 63,
      "time": 49.25,
      "duration": 0.125,
      "velocity": 0.51,
      "hand": "right"
    },
    {
      "midi": 67,
      "time": 49.25,
      "duration": 0.235,
      "velocity": 0.68,
      "hand": "right"
    },
    {
      "midi": 51,
      "time": 49.375,
      "duration": 0.063,
      "velocity": 0.61,
      "hand": "left"
    },
    {
      "midi": 36,
      "time": 49.5,
      "duration": 1,
      "velocity": 0.97,
      "hand": "left"
    },
    {
      "midi": 47,
      "time": 49.5,
      "duration": 0.063,
      "velocity": 0.72,
      "hand": "left"
    },
    {
      "midi": 60,
      "time": 49.5,
      "duration": 0.36,
      "velocity": 0.55,
      "hand": "right"
    },
    {
      "midi": 63,
      "time": 49.5,
      "duration": 0.36,
      "velocity": 0.46,
      "hand": "right"
    },
    {
      "midi": 67,
      "time": 49.5,
      "duration": 0.36,
      "velocity": 0.56,
      "hand": "right"
    },
    {
      "midi": 54,
      "time": 49.75,
      "duration": 0.063,
      "velocity": 0.54,
      "hand": "left"
    },
    {
      "midi": 38,
      "time": 49.875,
      "duration": 0.063,
      "velocity": 0.97,
      "hand": "left"
    },
    {
      "midi": 51,
      "time": 49.875,
      "duration": 0.063,
      "velocity": 0.61,
      "hand": "left"
    },
    {
      "midi": 60,
      "time": 49.875,
      "duration": 0.063,
      "velocity": 0.48,
      "hand": "right"
    },
    {
      "midi": 63,
      "time": 49.875,
      "duration": 0.063,
      "velocity": 0.46,
      "hand": "right"
    },
    {
      "midi": 67,
      "time": 49.875,
      "duration": 0.11,
      "velocity": 0.34,
      "hand": "right"
    },
    {
      "midi": 38,
      "time": 50,
      "duration": 0.063,
      "velocity": 0.7,
      "hand": "left"
    },
    {
      "midi": 51,
      "time": 50,
      "duration": 0.11,
      "velocity": 0.57,
      "hand": "left"
    },
    {
      "midi": 60,
      "time": 50,
      "duration": 0.063,
      "velocity": 0.44,
      "hand": "right"
    },
    {
      "midi": 63,
      "time": 50,
      "duration": 0.125,
      "velocity": 0.51,
      "hand": "right"
    },
    {
      "midi": 67,
      "time": 50,
      "duration": 0.125,
      "velocity": 0.28,
      "hand": "right"
    },
    {
      "midi": 51,
      "time": 50.125,
      "duration": 0.063,
      "velocity": 0.61,
      "hand": "left"
    },
    {
      "midi": 54,
      "time": 50.25,
      "duration": 0.063,
      "velocity": 0.54,
      "hand": "left"
    },
    {
      "midi": 51,
      "time": 50.375,
      "duration": 0.063,
      "velocity": 0.61,
      "hand": "left"
    },
    {
      "midi": 38,
      "time": 50.5,
      "duration": 0.063,
      "velocity": 0.9,
      "hand": "left"
    },
    {
      "midi": 43,
      "time": 50.5,
      "duration": 0.375,
      "velocity": 0.99,
      "hand": "left"
    },
    {
      "midi": 60,
      "time": 50.5,
      "duration": 0.25,
      "velocity": 0.72,
      "hand": "right"
    },
    {
      "midi": 63,
      "time": 50.5,
      "duration": 0.25,
      "velocity": 0.74,
      "hand": "right"
    },
    {
      "midi": 67,
      "time": 50.5,
      "duration": 0.25,
      "velocity": 0.91,
      "hand": "right"
    },
    {
      "midi": 55,
      "time": 50.75,
      "duration": 0.125,
      "velocity": 0.54,
      "hand": "left"
    },
    {
      "midi": 51,
      "time": 50.875,
      "duration": 0.063,
      "velocity": 0.61,
      "hand": "left"
    },
    {
      "midi": 67,
      "time": 50.875,
      "duration": 0.125,
      "velocity": 0.71,
      "hand": "right"
    },
    {
      "midi": 40,
      "time": 51,
      "duration": 1,
      "velocity": 0.98,
      "hand": "left"
    },
    {
      "midi": 43,
      "time": 51,
      "duration": 0.875,
      "velocity": 0.65,
      "hand": "left"
    },
    {
      "midi": 60,
      "time": 51,
      "duration": 0.36,
      "velocity": 0.72,
      "hand": "right"
    },
    {
      "midi": 64,
      "time": 51,
      "duration": 0.36,
      "velocity": 0.51,
      "hand": "right"
    },
    {
      "midi": 68,
      "time": 51,
      "duration": 0.375,
      "velocity": 0.67,
      "hand": "right"
    },
    {
      "midi": 54,
      "time": 51.25,
      "duration": 0.063,
      "velocity": 0.54,
      "hand": "left"
    },
    {
      "midi": 51,
      "time": 51.375,
      "duration": 0.063,
      "velocity": 0.61,
      "hand": "left"
    },
    {
      "midi": 55,
      "time": 51.375,
      "duration": 0.063,
      "velocity": 0.45,
      "hand": "left"
    },
    {
      "midi": 60,
      "time": 51.375,
      "duration": 0.063,
      "velocity": 0.51,
      "hand": "right"
    },
    {
      "midi": 64,
      "time": 51.375,
      "duration": 0.063,
      "velocity": 0.22,
      "hand": "right"
    },
    {
      "midi": 38,
      "time": 51.5,
      "duration": 0.063,
      "velocity": 0.8,
      "hand": "left"
    },
    {
      "midi": 46,
      "time": 51.5,
      "duration": 1,
      "velocity": 0.38,
      "hand": "left"
    },
    {
      "midi": 60,
      "time": 51.5,
      "duration": 0.063,
      "velocity": 0.57,
      "hand": "right"
    },
    {
      "midi": 64,
      "time": 51.5,
      "duration": 0.063,
      "velocity": 0.46,
      "hand": "right"
    },
    {
      "midi": 67,
      "time": 51.5,
      "duration": 0.5,
      "velocity": 0.68,
      "hand": "right"
    },
    {
      "midi": 54,
      "time": 51.75,
      "duration": 0.063,
      "velocity": 0.54,
      "hand": "left"
    },
    {
      "midi": 51,
      "time": 51.875,
      "duration": 0.063,
      "velocity": 0.61,
      "hand": "left"
    },
    {
      "midi": 38,
      "time": 52,
      "duration": 0.25,
      "velocity": 0.95,
      "hand": "left"
    },
    {
      "midi": 51,
      "time": 52,
      "duration": 0.063,
      "velocity": 0.61,
      "hand": "left"
    },
    {
      "midi": 60,
      "time": 52,
      "duration": 0.25,
      "velocity": 0.68,
      "hand": "right"
    },
    {
      "midi": 65,
      "time": 52,
      "duration": 0.25,
      "velocity": 0.77,
      "hand": "right"
    },
    {
      "midi": 36,
      "time": 52.25,
      "duration": 0.25,
      "velocity": 0.94,
      "hand": "left"
    },
    {
      "midi": 54,
      "time": 52.25,
      "duration": 0.063,
      "velocity": 0.54,
      "hand": "left"
    },
    {
      "midi": 64,
      "time": 52.25,
      "duration": 0.25,
      "velocity": 0.7,
      "hand": "right"
    },
    {
      "midi": 51,
      "time": 52.375,
      "duration": 0.063,
      "velocity": 0.61,
      "hand": "left"
    },
    {
      "midi": 41,
      "time": 52.5,
      "duration": 1.125,
      "velocity": 0.99,
      "hand": "left"
    },
    {
      "midi": 47,
      "time": 52.5,
      "duration": 0.063,
      "velocity": 0.75,
      "hand": "left"
    },
    {
      "midi": 65,
      "time": 52.5,
      "duration": 0.36,
      "velocity": 0.67,
      "hand": "right"
    },
    {
      "midi": 54,
      "time": 52.75,
      "duration": 0.063,
      "velocity": 0.54,
      "hand": "left"
    },
    {
      "midi": 60,
      "time": 52.75,
      "duration": 0.11,
      "velocity": 0.72,
      "hand": "right"
    },
    {
      "midi": 38,
      "time": 52.875,
      "duration": 0.063,
      "velocity": 0.97,
      "hand": "left"
    },
    {
      "midi": 51,
      "time": 52.875,
      "duration": 0.063,
      "velocity": 0.61,
      "hand": "left"
    },
    {
      "midi": 60,
      "time": 52.875,
      "duration": 0.11,
      "velocity": 0.48,
      "hand": "right"
    },
    {
      "midi": 63,
      "time": 52.875,
      "duration": 0.11,
      "velocity": 0.42,
      "hand": "right"
    },
    {
      "midi": 65,
      "time": 52.875,
      "duration": 0.11,
      "velocity": 0.46,
      "hand": "right"
    },
    {
      "midi": 38,
      "time": 53,
      "duration": 0.063,
      "velocity": 0.65,
      "hand": "left"
    },
    {
      "midi": 51,
      "time": 53,
      "duration": 0.063,
      "velocity": 0.61,
      "hand": "left"
    },
    {
      "midi": 60,
      "time": 53,
      "duration": 0.063,
      "velocity": 0.45,
      "hand": "right"
    },
    {
      "midi": 63,
      "time": 53,
      "duration": 0.485,
      "velocity": 0.56,
      "hand": "right"
    },
    {
      "midi": 65,
      "time": 53,
      "duration": 0.063,
      "velocity": 0.52,
      "hand": "right"
    },
    {
      "midi": 54,
      "time": 53.25,
      "duration": 0.063,
      "velocity": 0.54,
      "hand": "left"
    },
    {
      "midi": 65,
      "time": 53.25,
      "duration": 0.235,
      "velocity": 0.54,
      "hand": "right"
    },
    {
      "midi": 51,
      "time": 53.375,
      "duration": 0.063,
      "velocity": 0.61,
      "hand": "left"
    },
    {
      "midi": 36,
      "time": 53.5,
      "duration": 0.25,
      "velocity": 0.94,
      "hand": "left"
    },
    {
      "midi": 38,
      "time": 53.5,
      "duration": 0.063,
      "velocity": 0.91,
      "hand": "left"
    },
    {
      "midi": 60,
      "time": 53.5,
      "duration": 0.063,
      "velocity": 0.59,
      "hand": "right"
    },
    {
      "midi": 63,
      "time": 53.5,
      "duration": 0.125,
      "velocity": 0.54,
      "hand": "right"
    },
    {
      "midi": 65,
      "time": 53.5,
      "duration": 0.125,
      "velocity": 0.5,
      "hand": "right"
    },
    {
      "midi": 67,
      "time": 53.5,
      "duration": 0.25,
      "velocity": 0.89,
      "hand": "right"
    },
    {
      "midi": 48,
      "time": 53.625,
      "duration": 0.375,
      "velocity": 0.48,
      "hand": "left"
    },
    {
      "midi": 41,
      "time": 53.75,
      "duration": 0.125,
      "velocity": 0.91,
      "hand": "left"
    },
    {
      "midi": 44,
      "time": 53.75,
      "duration": 0.25,
      "velocity": 0.44,
      "hand": "left"
    },
    {
      "midi": 60,
      "time": 53.75,
      "duration": 0.25,
      "velocity": 0.59,
      "hand": "right"
    },
    {
      "midi": 51,
      "time": 53.875,
      "duration": 0.063,
      "velocity": 0.61,
      "hand": "left"
    },
    {
      "midi": 67,
      "time": 53.875,
      "duration": 0.125,
      "velocity": 0.72,
      "hand": "right"
    },
    {
      "midi": 41,
      "time": 54,
      "duration": 0.985,
      "velocity": 0.52,
      "hand": "left"
    },
    {
      "midi": 46,
      "time": 54,
      "duration": 1,
      "velocity": 1,
      "hand": "left"
    },
    {
      "midi": 65,
      "time": 54,
      "duration": 0.36,
      "velocity": 0.57,
      "hand": "right"
    },
    {
      "midi": 70,
      "time": 54,
      "duration": 0.375,
      "velocity": 0.81,
      "hand": "right"
    },
    {
      "midi": 54,
      "time": 54.25,
      "duration": 0.063,
      "velocity": 0.54,
      "hand": "left"
    },
    {
      "midi": 63,
      "time": 54.25,
      "duration": 0.11,
      "velocity": 0.56,
      "hand": "right"
    },
    {
      "midi": 51,
      "time": 54.375,
      "duration": 0.063,
      "velocity": 0.61,
      "hand": "left"
    },
    {
      "midi": 56,
      "time": 54.375,
      "duration": 0.063,
      "velocity": 0.5,
      "hand": "left"
    },
    {
      "midi": 60,
      "time": 54.375,
      "duration": 0.063,
      "velocity": 0.54,
      "hand": "right"
    },
    {
      "midi": 63,
      "time": 54.375,
      "duration": 0.063,
      "velocity": 0.5,
      "hand": "right"
    },
    {
      "midi": 65,
      "time": 54.375,
      "duration": 0.063,
      "velocity": 0.44,
      "hand": "right"
    },
    {
      "midi": 38,
      "time": 54.5,
      "duration": 0.063,
      "velocity": 0.9,
      "hand": "left"
    },
    {
      "midi": 51,
      "time": 54.5,
      "duration": 0.063,
      "velocity": 0.61,
      "hand": "left"
    },
    {
      "midi": 60,
      "time": 54.5,
      "duration": 0.375,
      "velocity": 0.56,
      "hand": "right"
    },
    {
      "midi": 63,
      "time": 54.5,
      "duration": 0.063,
      "velocity": 0.49,
      "hand": "right"
    },
    {
      "midi": 65,
      "time": 54.5,
      "duration": 0.063,
      "velocity": 0.5,
      "hand": "right"
    },
    {
      "midi": 68,
      "time": 54.5,
      "duration": 0.5,
      "velocity": 0.77,
      "hand": "right"
    },
    {
      "midi": 54,
      "time": 54.75,
      "duration": 0.063,
      "velocity": 0.54,
      "hand": "left"
    },
    {
      "midi": 56,
      "time": 54.75,
      "duration": 0.235,
      "velocity": 0.72,
      "hand": "left"
    },
    {
      "midi": 51,
      "time": 54.875,
      "duration": 0.063,
      "velocity": 0.61,
      "hand": "left"
    },
    {
      "midi": 38,
      "time": 55,
      "duration": 0.063,
      "velocity": 0.9,
      "hand": "left"
    },
    {
      "midi": 41,
      "time": 55,
      "duration": 0.25,
      "velocity": 0.91,
      "hand": "left"
    },
    {
      "midi": 60,
      "time": 55,
      "duration": 0.375,
      "velocity": 0.64,
      "hand": "right"
    },
    {
      "midi": 63,
      "time": 55,
      "duration": 0.375,
      "velocity": 0.52,
      "hand": "right"
    },
    {
      "midi": 65,
      "time": 55,
      "duration": 0.235,
      "velocity": 0.52,
      "hand": "right"
    },
    {
      "midi": 67,
      "time": 55,
      "duration": 0.25,
      "velocity": 0.77,
      "hand": "right"
    },
    {
      "midi": 46,
      "time": 55.25,
      "duration": 0.25,
      "velocity": 1,
      "hand": "left"
    },
    {
      "midi": 54,
      "time": 55.25,
      "duration": 0.063,
      "velocity": 0.54,
      "hand": "left"
    },
    {
      "midi": 65,
      "time": 55.25,
      "duration": 0.25,
      "velocity": 0.72,
      "hand": "right"
    },
    {
      "midi": 51,
      "time": 55.375,
      "duration": 0.063,
      "velocity": 0.61,
      "hand": "left"
    },
    {
      "midi": 36,
      "time": 55.5,
      "duration": 1,
      "velocity": 0.95,
      "hand": "left"
    },
    {
      "midi": 47,
      "time": 55.5,
      "duration": 0.063,
      "velocity": 0.81,
      "hand": "left"
    },
    {
      "midi": 60,
      "time": 55.5,
      "duration": 0.36,
      "velocity": 0.56,
      "hand": "right"
    },
    {
      "midi": 63,
      "time": 55.5,
      "duration": 0.36,
      "velocity": 0.55,
      "hand": "right"
    },
    {
      "midi": 68,
      "time": 55.5,
      "duration": 0.375,
      "velocity": 0.87,
      "hand": "right"
    },
    {
      "midi": 55,
      "time": 55.625,
      "duration": 0.235,
      "velocity": 0.31,
      "hand": "left"
    },
    {
      "midi": 51,
      "time": 55.75,
      "duration": 0.11,
      "velocity": 0.35,
      "hand": "left"
    },
    {
      "midi": 54,
      "time": 55.75,
      "duration": 0.063,
      "velocity": 0.54,
      "hand": "left"
    },
    {
      "midi": 38,
      "time": 55.875,
      "duration": 0.063,
      "velocity": 0.97,
      "hand": "left"
    },
    {
      "midi": 51,
      "time": 55.875,
      "duration": 0.063,
      "velocity": 0.61,
      "hand": "left"
    },
    {
      "midi": 60,
      "time": 55.875,
      "duration": 0.063,
      "velocity": 0.52,
      "hand": "right"
    },
    {
      "midi": 63,
      "time": 55.875,
      "duration": 0.063,
      "velocity": 0.46,
      "hand": "right"
    },
    {
      "midi": 67,
      "time": 55.875,
      "duration": 0.063,
      "velocity": 0.4,
      "hand": "right"
    },
    {
      "midi": 38,
      "time": 56,
      "duration": 0.063,
      "velocity": 0.69,
      "hand": "left"
    },
    {
      "midi": 51,
      "time": 56,
      "duration": 0.063,
      "velocity": 0.61,
      "hand": "left"
    },
    {
      "midi": 60,
      "time": 56,
      "duration": 0.375,
      "velocity": 0.58,
      "hand": "right"
    },
    {
      "midi": 63,
      "time": 56,
      "duration": 0.375,
      "velocity": 0.54,
      "hand": "right"
    },
    {
      "midi": 67,
      "time": 56,
      "duration": 0.485,
      "velocity": 0.69,
      "hand": "right"
    },
    {
      "midi": 54,
      "time": 56.25,
      "duration": 0.063,
      "velocity": 0.54,
      "hand": "left"
    },
    {
      "midi": 51,
      "time": 56.375,
      "duration": 0.063,
      "velocity": 0.61,
      "hand": "left"
    },
    {
      "midi": 38,
      "time": 56.5,
      "duration": 0.063,
      "velocity": 0.91,
      "hand": "left"
    },
    {
      "midi": 46,
      "time": 56.5,
      "duration": 0.25,
      "velocity": 0.96,
      "hand": "left"
    },
    {
      "midi": 60,
      "time": 56.5,
      "duration": 0.25,
      "velocity": 0.65,
      "hand": "right"
    },
    {
      "midi": 63,
      "time": 56.5,
      "duration": 0.25,
      "velocity": 0.59,
      "hand": "right"
    },
    {
      "midi": 67,
      "time": 56.5,
      "duration": 0.25,
      "velocity": 0.86,
      "hand": "right"
    },
    {
      "midi": 45,
      "time": 56.75,
      "duration": 0.25,
      "velocity": 0.97,
      "hand": "left"
    },
    {
      "midi": 54,
      "time": 56.75,
      "duration": 0.063,
      "velocity": 0.54,
      "hand": "left"
    },
    {
      "midi": 51,
      "time": 56.875,
      "duration": 0.063,
      "velocity": 0.61,
      "hand": "left"
    },
    {
      "midi": 68,
      "time": 56.875,
      "duration": 0.125,
      "velocity": 0.62,
      "hand": "right"
    },
    {
      "midi": 43,
      "time": 57,
      "duration": 1.235,
      "velocity": 1,
      "hand": "left"
    },
    {
      "midi": 47,
      "time": 57,
      "duration": 0.063,
      "velocity": 0.73,
      "hand": "left"
    },
    {
      "midi": 62,
      "time": 57,
      "duration": 0.36,
      "velocity": 0.65,
      "hand": "right"
    },
    {
      "midi": 67,
      "time": 57,
      "duration": 0.485,
      "velocity": 0.72,
      "hand": "right"
    },
    {
      "midi": 54,
      "time": 57.25,
      "duration": 0.063,
      "velocity": 0.54,
      "hand": "left"
    },
    {
      "midi": 51,
      "time": 57.375,
      "duration": 0.063,
      "velocity": 0.61,
      "hand": "left"
    },
    {
      "midi": 55,
      "time": 57.375,
      "duration": 0.063,
      "velocity": 0.48,
      "hand": "left"
    },
    {
      "midi": 62,
      "time": 57.375,
      "duration": 0.11,
      "velocity": 0.56,
      "hand": "right"
    },
    {
      "midi": 38,
      "time": 57.5,
      "duration": 0.485,
      "velocity": 0.86,
      "hand": "left"
    },
    {
      "midi": 51,
      "time": 57.5,
      "duration": 0.063,
      "velocity": 0.61,
      "hand": "left"
    },
    {
      "midi": 62,
      "time": 57.5,
      "duration": 0.375,
      "velocity": 0.54,
      "hand": "right"
    },
    {
      "midi": 65,
      "time": 57.5,
      "duration": 0.485,
      "velocity": 0.72,
      "hand": "right"
    },
    {
      "midi": 67,
      "time": 57.5,
      "duration": 0.063,
      "velocity": 0.52,
      "hand": "right"
    },
    {
      "midi": 54,
      "time": 57.75,
      "duration": 0.063,
      "velocity": 0.54,
      "hand": "left"
    },
    {
      "midi": 51,
      "time": 57.875,
      "duration": 0.063,
      "velocity": 0.61,
      "hand": "left"
    },
    {
      "midi": 38,
      "time": 58,
      "duration": 0.063,
      "velocity": 0.91,
      "hand": "left"
    },
    {
      "midi": 47,
      "time": 58,
      "duration": 0.25,
      "velocity": 0.94,
      "hand": "left"
    },
    {
      "midi": 63,
      "time": 58,
      "duration": 0.25,
      "velocity": 0.64,
      "hand": "right"
    },
    {
      "midi": 65,
      "time": 58,
      "duration": 0.25,
      "velocity": 0.52,
      "hand": "right"
    },
    {
      "midi": 43,
      "time": 58.25,
      "duration": 0.25,
      "velocity": 0.94,
      "hand": "left"
    },
    {
      "midi": 54,
      "time": 58.25,
      "duration": 0.063,
      "velocity": 0.54,
      "hand": "left"
    },
    {
      "midi": 62,
      "time": 58.25,
      "duration": 0.235,
      "velocity": 0.72,
      "hand": "right"
    },
    {
      "midi": 51,
      "time": 58.375,
      "duration": 0.063,
      "velocity": 0.61,
      "hand": "left"
    },
    {
      "midi": 36,
      "time": 58.5,
      "duration": 0.5,
      "velocity": 0.94,
      "hand": "left"
    },
    {
      "midi": 47,
      "time": 58.5,
      "duration": 0.063,
      "velocity": 0.72,
      "hand": "left"
    },
    {
      "midi": 63,
      "time": 58.5,
      "duration": 0.625,
      "velocity": 0.54,
      "hand": "right"
    },
    {
      "midi": 65,
      "time": 58.5,
      "duration": 0.25,
      "velocity": 0.57,
      "hand": "right"
    },
    {
      "midi": 67,
      "time": 58.5,
      "duration": 0.125,
      "velocity": 0.49,
      "hand": "right"
    },
    {
      "midi": 54,
      "time": 58.75,
      "duration": 0.063,
      "velocity": 0.54,
      "hand": "left"
    },
    {
      "midi": 60,
      "time": 58.75,
      "duration": 0.125,
      "velocity": 0.24,
      "hand": "right"
    },
    {
      "midi": 38,
      "time": 58.875,
      "duration": 0.063,
      "velocity": 0.91,
      "hand": "left"
    },
    {
      "midi": 51,
      "time": 58.875,
      "duration": 0.063,
      "velocity": 0.61,
      "hand": "left"
    },
    {
      "midi": 39,
      "time": 59,
      "duration": 0.063,
      "velocity": 0.94,
      "hand": "left"
    },
    {
      "midi": 60,
      "time": 59,
      "duration": 0.25,
      "velocity": 0.59,
      "hand": "right"
    },
    {
      "midi": 62,
      "time": 59,
      "duration": 0.375,
      "velocity": 0.72,
      "hand": "right"
    },
    {
      "midi": 65,
      "time": 59,
      "duration": 0.375,
      "velocity": 0.53,
      "hand": "right"
    },
    {
      "midi": 51,
      "time": 59.125,
      "duration": 0.063,
      "velocity": 0.61,
      "hand": "left"
    },
    {
      "midi": 54,
      "time": 59.25,
      "duration": 0.063,
      "velocity": 0.54,
      "hand": "left"
    },
    {
      "midi": 38,
      "time": 59.375,
      "duration": 0.063,
      "velocity": 0.87,
      "hand": "left"
    },
    {
      "midi": 51,
      "time": 59.375,
      "duration": 0.063,
      "velocity": 0.61,
      "hand": "left"
    },
    {
      "midi": 41,
      "time": 59.5,
      "duration": 0.063,
      "velocity": 0.81,
      "hand": "left"
    },
    {
      "midi": 44,
      "time": 59.5,
      "duration": 0.5,
      "velocity": 1,
      "hand": "left"
    },
    {
      "midi": 63,
      "time": 59.5,
      "duration": 0.375,
      "velocity": 0.94,
      "hand": "right"
    },
    {
      "midi": 54,
      "time": 59.75,
      "duration": 0.063,
      "velocity": 0.54,
      "hand": "left"
    },
    {
      "midi": 67,
      "time": 59.75,
      "duration": 0.125,
      "velocity": 0.65,
      "hand": "right"
    },
    {
      "midi": 38,
      "time": 59.875,
      "duration": 0.063,
      "velocity": 0.96,
      "hand": "left"
    },
    {
      "midi": 51,
      "time": 59.875,
      "duration": 0.063,
      "velocity": 0.61,
      "hand": "left"
    },
    {
      "midi": 36,
      "time": 60,
      "duration": 1.25,
      "velocity": 0.97,
      "hand": "left"
    },
    {
      "midi": 47,
      "time": 60,
      "duration": 0.063,
      "velocity": 0.77,
      "hand": "left"
    },
    {
      "midi": 60,
      "time": 60,
      "duration": 0.36,
      "velocity": 0.88,
      "hand": "right"
    },
    {
      "midi": 63,
      "time": 60,
      "duration": 0.235,
      "velocity": 0.46,
      "hand": "right"
    },
    {
      "midi": 67,
      "time": 60,
      "duration": 0.36,
      "velocity": 0.63,
      "hand": "right"
    },
    {
      "midi": 79,
      "time": 60,
      "duration": 0.875,
      "velocity": 0.76,
      "hand": "right"
    },
    {
      "midi": 54,
      "time": 60.25,
      "duration": 0.063,
      "velocity": 0.54,
      "hand": "left"
    },
    {
      "midi": 63,
      "time": 60.25,
      "duration": 0.11,
      "velocity": 0.8,
      "hand": "right"
    },
    {
      "midi": 51,
      "time": 60.375,
      "duration": 0.063,
      "velocity": 0.61,
      "hand": "left"
    },
    {
      "midi": 55,
      "time": 60.375,
      "duration": 0.063,
      "velocity": 0.43,
      "hand": "left"
    },
    {
      "midi": 60,
      "time": 60.375,
      "duration": 0.063,
      "velocity": 0.58,
      "hand": "right"
    },
    {
      "midi": 63,
      "time": 60.375,
      "duration": 0.063,
      "velocity": 0.54,
      "hand": "right"
    },
    {
      "midi": 67,
      "time": 60.375,
      "duration": 0.063,
      "velocity": 0.43,
      "hand": "right"
    },
    {
      "midi": 38,
      "time": 60.5,
      "duration": 0.063,
      "velocity": 0.8,
      "hand": "left"
    },
    {
      "midi": 51,
      "time": 60.5,
      "duration": 0.063,
      "velocity": 0.61,
      "hand": "left"
    },
    {
      "midi": 60,
      "time": 60.5,
      "duration": 0.375,
      "velocity": 0.77,
      "hand": "right"
    },
    {
      "midi": 63,
      "time": 60.5,
      "duration": 0.063,
      "velocity": 0.39,
      "hand": "right"
    },
    {
      "midi": 67,
      "time": 60.5,
      "duration": 0.125,
      "velocity": 0.48,
      "hand": "right"
    },
    {
      "midi": 55,
      "time": 60.75,
      "duration": 0.235,
      "velocity": 0.74,
      "hand": "left"
    },
    {
      "midi": 51,
      "time": 60.875,
      "duration": 0.063,
      "velocity": 0.61,
      "hand": "left"
    },
    {
      "midi": 38,
      "time": 61,
      "duration": 0.063,
      "velocity": 0.91,
      "hand": "left"
    },
    {
      "midi": 51,
      "time": 61,
      "duration": 0.063,
      "velocity": 0.61,
      "hand": "left"
    },
    {
      "midi": 60,
      "time": 61,
      "duration": 0.375,
      "velocity": 0.74,
      "hand": "right"
    },
    {
      "midi": 63,
      "time": 61,
      "duration": 0.235,
      "velocity": 0.89,
      "hand": "right"
    },
    {
      "midi": 67,
      "time": 61,
      "duration": 0.125,
      "velocity": 0.54,
      "hand": "right"
    },
    {
      "midi": 82,
      "time": 61,
      "duration": 0.375,
      "velocity": 0.65,
      "hand": "right"
    },
    {
      "midi": 43,
      "time": 61.25,
      "duration": 0.125,
      "velocity": 0.94,
      "hand": "left"
    },
    {
      "midi": 54,
      "time": 61.25,
      "duration": 0.063,
      "velocity": 0.54,
      "hand": "left"
    },
    {
      "midi": 63,
      "time": 61.25,
      "duration": 0.125,
      "velocity": 0.51,
      "hand": "right"
    },
    {
      "midi": 67,
      "time": 61.25,
      "duration": 0.235,
      "velocity": 0.68,
      "hand": "right"
    },
    {
      "midi": 51,
      "time": 61.375,
      "duration": 0.063,
      "velocity": 0.61,
      "hand": "left"
    },
    {
      "midi": 36,
      "time": 61.5,
      "duration": 1,
      "velocity": 0.97,
      "hand": "left"
    },
    {
      "midi": 47,
      "time": 61.5,
      "duration": 0.063,
      "velocity": 0.75,
      "hand": "left"
    },
    {
      "midi": 60,
      "time": 61.5,
      "duration": 0.36,
      "velocity": 0.55,
      "hand": "right"
    },
    {
      "midi": 63,
      "time": 61.5,
      "duration": 0.36,
      "velocity": 0.46,
      "hand": "right"
    },
    {
      "midi": 67,
      "time": 61.5,
      "duration": 0.36,
      "velocity": 0.56,
      "hand": "right"
    },
    {
      "midi": 80,
      "time": 61.5,
      "duration": 0.5,
      "velocity": 0.76,
      "hand": "right"
    },
    {
      "midi": 54,
      "time": 61.75,
      "duration": 0.063,
      "velocity": 0.54,
      "hand": "left"
    },
    {
      "midi": 38,
      "time": 61.875,
      "duration": 0.063,
      "velocity": 0.97,
      "hand": "left"
    },
    {
      "midi": 51,
      "time": 61.875,
      "duration": 0.063,
      "velocity": 0.61,
      "hand": "left"
    },
    {
      "midi": 60,
      "time": 61.875,
      "duration": 0.063,
      "velocity": 0.48,
      "hand": "right"
    },
    {
      "midi": 63,
      "time": 61.875,
      "duration": 0.063,
      "velocity": 0.46,
      "hand": "right"
    },
    {
      "midi": 67,
      "time": 61.875,
      "duration": 0.11,
      "velocity": 0.34,
      "hand": "right"
    },
    {
      "midi": 38,
      "time": 62,
      "duration": 0.063,
      "velocity": 0.65,
      "hand": "left"
    },
    {
      "midi": 51,
      "time": 62,
      "duration": 0.36,
      "velocity": 0.61,
      "hand": "left"
    },
    {
      "midi": 60,
      "time": 62,
      "duration": 0.063,
      "velocity": 0.44,
      "hand": "right"
    },
    {
      "midi": 63,
      "time": 62,
      "duration": 0.125,
      "velocity": 0.51,
      "hand": "right"
    },
    {
      "midi": 67,
      "time": 62,
      "duration": 0.125,
      "velocity": 0.28,
      "hand": "right"
    },
    {
      "midi": 79,
      "time": 62,
      "duration": 0.5,
      "velocity": 0.74,
      "hand": "right"
    },
    {
      "midi": 54,
      "time": 62.25,
      "duration": 0.063,
      "velocity": 0.54,
      "hand": "left"
    },
    {
      "midi": 51,
      "time": 62.375,
      "duration": 0.063,
      "velocity": 0.61,
      "hand": "left"
    },
    {
      "midi": 38,
      "time": 62.5,
      "duration": 0.063,
      "velocity": 0.91,
      "hand": "left"
    },
    {
      "midi": 43,
      "time": 62.5,
      "duration": 0.375,
      "velocity": 0.99,
      "hand": "left"
    },
    {
      "midi": 60,
      "time": 62.5,
      "duration": 0.25,
      "velocity": 0.72,
      "hand": "right"
    },
    {
      "midi": 63,
      "time": 62.5,
      "duration": 0.25,
      "velocity": 0.74,
      "hand": "right"
    },
    {
      "midi": 67,
      "time": 62.5,
      "duration": 0.25,
      "velocity": 0.91,
      "hand": "right"
    },
    {
      "midi": 77,
      "time": 62.5,
      "duration": 0.5,
      "velocity": 0.72,
      "hand": "right"
    },
    {
      "midi": 55,
      "time": 62.75,
      "duration": 0.125,
      "velocity": 0.54,
      "hand": "left"
    },
    {
      "midi": 51,
      "time": 62.875,
      "duration": 0.063,
      "velocity": 0.61,
      "hand": "left"
    },
    {
      "midi": 67,
      "time": 62.875,
      "duration": 0.125,
      "velocity": 0.71,
      "hand": "right"
    },
    {
      "midi": 40,
      "time": 63,
      "duration": 1,
      "velocity": 0.98,
      "hand": "left"
    },
    {
      "midi": 43,
      "time": 63,
      "duration": 0.875,
      "velocity": 0.65,
      "hand": "left"
    },
    {
      "midi": 60,
      "time": 63,
      "duration": 0.36,
      "velocity": 0.72,
      "hand": "right"
    },
    {
      "midi": 64,
      "time": 63,
      "duration": 0.36,
      "velocity": 0.51,
      "hand": "right"
    },
    {
      "midi": 68,
      "time": 63,
      "duration": 0.375,
      "velocity": 0.67,
      "hand": "right"
    },
    {
      "midi": 76,
      "time": 63,
      "duration": 0.5,
      "velocity": 0.74,
      "hand": "right"
    },
    {
      "midi": 54,
      "time": 63.25,
      "duration": 0.063,
      "velocity": 0.54,
      "hand": "left"
    },
    {
      "midi": 51,
      "time": 63.375,
      "duration": 0.063,
      "velocity": 0.61,
      "hand": "left"
    },
    {
      "midi": 55,
      "time": 63.375,
      "duration": 0.063,
      "velocity": 0.45,
      "hand": "left"
    },
    {
      "midi": 60,
      "time": 63.375,
      "duration": 0.063,
      "velocity": 0.51,
      "hand": "right"
    },
    {
      "midi": 64,
      "time": 63.375,
      "duration": 0.063,
      "velocity": 0.22,
      "hand": "right"
    },
    {
      "midi": 38,
      "time": 63.5,
      "duration": 0.063,
      "velocity": 0.9,
      "hand": "left"
    },
    {
      "midi": 46,
      "time": 63.5,
      "duration": 1,
      "velocity": 0.38,
      "hand": "left"
    },
    {
      "midi": 60,
      "time": 63.5,
      "duration": 0.063,
      "velocity": 0.57,
      "hand": "right"
    },
    {
      "midi": 64,
      "time": 63.5,
      "duration": 0.063,
      "velocity": 0.46,
      "hand": "right"
    },
    {
      "midi": 67,
      "time": 63.5,
      "duration": 0.5,
      "velocity": 0.68,
      "hand": "right"
    },
    {
      "midi": 77,
      "time": 63.5,
      "duration": 0.5,
      "velocity": 0.75,
      "hand": "right"
    },
    {
      "midi": 54,
      "time": 63.75,
      "duration": 0.063,
      "velocity": 0.54,
      "hand": "left"
    },
    {
      "midi": 51,
      "time": 63.875,
      "duration": 0.063,
      "velocity": 0.61,
      "hand": "left"
    },
    {
      "midi": 38,
      "time": 64,
      "duration": 0.25,
      "velocity": 0.95,
      "hand": "left"
    },
    {
      "midi": 51,
      "time": 64,
      "duration": 0.063,
      "velocity": 0.61,
      "hand": "left"
    },
    {
      "midi": 60,
      "time": 64,
      "duration": 0.25,
      "velocity": 0.68,
      "hand": "right"
    },
    {
      "midi": 65,
      "time": 64,
      "duration": 0.25,
      "velocity": 0.77,
      "hand": "right"
    },
    {
      "midi": 79,
      "time": 64,
      "duration": 0.375,
      "velocity": 0.72,
      "hand": "right"
    },
    {
      "midi": 36,
      "time": 64.25,
      "duration": 0.25,
      "velocity": 0.94,
      "hand": "left"
    },
    {
      "midi": 54,
      "time": 64.25,
      "duration": 0.063,
      "velocity": 0.54,
      "hand": "left"
    },
    {
      "midi": 64,
      "time": 64.25,
      "duration": 0.25,
      "velocity": 0.7,
      "hand": "right"
    },
    {
      "midi": 51,
      "time": 64.375,
      "duration": 0.063,
      "velocity": 0.61,
      "hand": "left"
    },
    {
      "midi": 41,
      "time": 64.5,
      "duration": 1.125,
      "velocity": 0.99,
      "hand": "left"
    },
    {
      "midi": 47,
      "time": 64.5,
      "duration": 0.063,
      "velocity": 0.81,
      "hand": "left"
    },
    {
      "midi": 65,
      "time": 64.5,
      "duration": 0.36,
      "velocity": 0.67,
      "hand": "right"
    },
    {
      "midi": 82,
      "time": 64.5,
      "duration": 0.5,
      "velocity": 0.68,
      "hand": "right"
    },
    {
      "midi": 54,
      "time": 64.75,
      "duration": 0.063,
      "velocity": 0.54,
      "hand": "left"
    },
    {
      "midi": 60,
      "time": 64.75,
      "duration": 0.11,
      "velocity": 0.72,
      "hand": "right"
    },
    {
      "midi": 38,
      "time": 64.875,
      "duration": 0.063,
      "velocity": 0.97,
      "hand": "left"
    },
    {
      "midi": 51,
      "time": 64.875,
      "duration": 0.063,
      "velocity": 0.61,
      "hand": "left"
    },
    {
      "midi": 60,
      "time": 64.875,
      "duration": 0.11,
      "velocity": 0.48,
      "hand": "right"
    },
    {
      "midi": 63,
      "time": 64.875,
      "duration": 0.11,
      "velocity": 0.42,
      "hand": "right"
    },
    {
      "midi": 65,
      "time": 64.875,
      "duration": 0.11,
      "velocity": 0.46,
      "hand": "right"
    },
    {
      "midi": 38,
      "time": 65,
      "duration": 0.063,
      "velocity": 0.69,
      "hand": "left"
    },
    {
      "midi": 51,
      "time": 65,
      "duration": 0.063,
      "velocity": 0.61,
      "hand": "left"
    },
    {
      "midi": 60,
      "time": 65,
      "duration": 0.063,
      "velocity": 0.45,
      "hand": "right"
    },
    {
      "midi": 63,
      "time": 65,
      "duration": 0.485,
      "velocity": 0.56,
      "hand": "right"
    },
    {
      "midi": 65,
      "time": 65,
      "duration": 0.063,
      "velocity": 0.52,
      "hand": "right"
    },
    {
      "midi": 80,
      "time": 65,
      "duration": 0.875,
      "velocity": 0.57,
      "hand": "right"
    },
    {
      "midi": 54,
      "time": 65.25,
      "duration": 0.063,
      "velocity": 0.54,
      "hand": "left"
    },
    {
      "midi": 65,
      "time": 65.25,
      "duration": 0.235,
      "velocity": 0.54,
      "hand": "right"
    },
    {
      "midi": 51,
      "time": 65.375,
      "duration": 0.063,
      "velocity": 0.61,
      "hand": "left"
    },
    {
      "midi": 36,
      "time": 65.5,
      "duration": 0.25,
      "velocity": 0.94,
      "hand": "left"
    },
    {
      "midi": 38,
      "time": 65.5,
      "duration": 0.063,
      "velocity": 0.91,
      "hand": "left"
    },
    {
      "midi": 60,
      "time": 65.5,
      "duration": 0.063,
      "velocity": 0.59,
      "hand": "right"
    },
    {
      "midi": 63,
      "time": 65.5,
      "duration": 0.125,
      "velocity": 0.54,
      "hand": "right"
    },
    {
      "midi": 65,
      "time": 65.5,
      "duration": 0.125,
      "velocity": 0.5,
      "hand": "right"
    },
    {
      "midi": 67,
      "time": 65.5,
      "duration": 0.25,
      "velocity": 0.89,
      "hand": "right"
    },
    {
      "midi": 48,
      "time": 65.625,
      "duration": 0.375,
      "velocity": 0.48,
      "hand": "left"
    },
    {
      "midi": 41,
      "time": 65.75,
      "duration": 0.125,
      "velocity": 0.91,
      "hand": "left"
    },
    {
      "midi": 44,
      "time": 65.75,
      "duration": 0.25,
      "velocity": 0.44,
      "hand": "left"
    },
    {
      "midi": 60,
      "time": 65.75,
      "duration": 0.25,
      "velocity": 0.59,
      "hand": "right"
    },
    {
      "midi": 51,
      "time": 65.875,
      "duration": 0.063,
      "velocity": 0.61,
      "hand": "left"
    },
    {
      "midi": 67,
      "time": 65.875,
      "duration": 0.125,
      "velocity": 0.72,
      "hand": "right"
    },
    {
      "midi": 41,
      "time": 66,
      "duration": 0.985,
      "velocity": 0.52,
      "hand": "left"
    },
    {
      "midi": 46,
      "time": 66,
      "duration": 1,
      "velocity": 1,
      "hand": "left"
    },
    {
      "midi": 65,
      "time": 66,
      "duration": 0.36,
      "velocity": 0.57,
      "hand": "right"
    },
    {
      "midi": 70,
      "time": 66,
      "duration": 0.375,
      "velocity": 0.81,
      "hand": "right"
    },
    {
      "midi": 80,
      "time": 66,
      "duration": 0.5,
      "velocity": 0.73,
      "hand": "right"
    },
    {
      "midi": 54,
      "time": 66.25,
      "duration": 0.063,
      "velocity": 0.54,
      "hand": "left"
    },
    {
      "midi": 63,
      "time": 66.25,
      "duration": 0.11,
      "velocity": 0.56,
      "hand": "right"
    },
    {
      "midi": 51,
      "time": 66.375,
      "duration": 0.063,
      "velocity": 0.61,
      "hand": "left"
    },
    {
      "midi": 56,
      "time": 66.375,
      "duration": 0.063,
      "velocity": 0.5,
      "hand": "left"
    },
    {
      "midi": 60,
      "time": 66.375,
      "duration": 0.063,
      "velocity": 0.54,
      "hand": "right"
    },
    {
      "midi": 63,
      "time": 66.375,
      "duration": 0.063,
      "velocity": 0.5,
      "hand": "right"
    },
    {
      "midi": 65,
      "time": 66.375,
      "duration": 0.063,
      "velocity": 0.44,
      "hand": "right"
    },
    {
      "midi": 38,
      "time": 66.5,
      "duration": 0.063,
      "velocity": 0.83,
      "hand": "left"
    },
    {
      "midi": 51,
      "time": 66.5,
      "duration": 0.063,
      "velocity": 0.61,
      "hand": "left"
    },
    {
      "midi": 63,
      "time": 66.5,
      "duration": 0.063,
      "velocity": 0.49,
      "hand": "right"
    },
    {
      "midi": 65,
      "time": 66.5,
      "duration": 0.063,
      "velocity": 0.5,
      "hand": "right"
    },
    {
      "midi": 68,
      "time": 66.5,
      "duration": 0.5,
      "velocity": 0.77,
      "hand": "right"
    },
    {
      "midi": 82,
      "time": 66.5,
      "duration": 0.375,
      "velocity": 0.74,
      "hand": "right"
    },
    {
      "midi": 54,
      "time": 66.75,
      "duration": 0.063,
      "velocity": 0.54,
      "hand": "left"
    },
    {
      "midi": 56,
      "time": 66.75,
      "duration": 0.235,
      "velocity": 0.72,
      "hand": "left"
    },
    {
      "midi": 51,
      "time": 66.875,
      "duration": 0.063,
      "velocity": 0.61,
      "hand": "left"
    },
    {
      "midi": 84,
      "time": 66.875,
      "duration": 0.5,
      "velocity": 0.58,
      "hand": "right"
    },
    {
      "midi": 38,
      "time": 67,
      "duration": 0.063,
      "velocity": 0.91,
      "hand": "left"
    },
    {
      "midi": 41,
      "time": 67,
      "duration": 0.25,
      "velocity": 0.91,
      "hand": "left"
    },
    {
      "midi": 60,
      "time": 67,
      "duration": 0.375,
      "velocity": 0.64,
      "hand": "right"
    },
    {
      "midi": 63,
      "time": 67,
      "duration": 0.375,
      "velocity": 0.52,
      "hand": "right"
    },
    {
      "midi": 65,
      "time": 67,
      "duration": 0.235,
      "velocity": 0.52,
      "hand": "right"
    },
    {
      "midi": 67,
      "time": 67,
      "duration": 0.25,
      "velocity": 0.77,
      "hand": "right"
    },
    {
      "midi": 46,
      "time": 67.25,
      "duration": 0.25,
      "velocity": 1,
      "hand": "left"
    },
    {
      "midi": 54,
      "time": 67.25,
      "duration": 0.063,
      "velocity": 0.54,
      "hand": "left"
    },
    {
      "midi": 65,
      "time": 67.25,
      "duration": 0.25,
      "velocity": 0.72,
      "hand": "right"
    },
    {
      "midi": 51,
      "time": 67.375,
      "duration": 0.063,
      "velocity": 0.61,
      "hand": "left"
    },
    {
      "midi": 36,
      "time": 67.5,
      "duration": 1,
      "velocity": 0.95,
      "hand": "left"
    },
    {
      "midi": 47,
      "time": 67.5,
      "duration": 0.063,
      "velocity": 0.72,
      "hand": "left"
    },
    {
      "midi": 63,
      "time": 67.5,
      "duration": 0.36,
      "velocity": 0.55,
      "hand": "right"
    },
    {
      "midi": 68,
      "time": 67.5,
      "duration": 0.375,
      "velocity": 0.87,
      "hand": "right"
    },
    {
      "midi": 75,
      "time": 67.5,
      "duration": 0.5,
      "velocity": 0.73,
      "hand": "right"
    },
    {
      "midi": 51,
      "time": 67.75,
      "duration": 0.11,
      "velocity": 0.35,
      "hand": "left"
    },
    {
      "midi": 54,
      "time": 67.75,
      "duration": 0.063,
      "velocity": 0.54,
      "hand": "left"
    },
    {
      "midi": 38,
      "time": 67.875,
      "duration": 0.063,
      "velocity": 0.97,
      "hand": "left"
    },
    {
      "midi": 51,
      "time": 67.875,
      "duration": 0.063,
      "velocity": 0.61,
      "hand": "left"
    },
    {
      "midi": 60,
      "time": 67.875,
      "duration": 0.063,
      "velocity": 0.52,
      "hand": "right"
    },
    {
      "midi": 63,
      "time": 67.875,
      "duration": 0.063,
      "velocity": 0.46,
      "hand": "right"
    },
    {
      "midi": 67,
      "time": 67.875,
      "duration": 0.063,
      "velocity": 0.4,
      "hand": "right"
    },
    {
      "midi": 38,
      "time": 68,
      "duration": 0.063,
      "velocity": 0.7,
      "hand": "left"
    },
    {
      "midi": 54,
      "time": 68,
      "duration": 0.063,
      "velocity": 0.54,
      "hand": "left"
    },
    {
      "midi": 60,
      "time": 68,
      "duration": 0.375,
      "velocity": 0.58,
      "hand": "right"
    },
    {
      "midi": 63,
      "time": 68,
      "duration": 0.375,
      "velocity": 0.54,
      "hand": "right"
    },
    {
      "midi": 67,
      "time": 68,
      "duration": 0.485,
      "velocity": 0.69,
      "hand": "right"
    },
    {
      "midi": 84,
      "time": 68,
      "duration": 0.5,
      "velocity": 0.57,
      "hand": "right"
    },
    {
      "midi": 51,
      "time": 68.125,
      "duration": 0.063,
      "velocity": 0.61,
      "hand": "left"
    },
    {
      "midi": 54,
      "time": 68.25,
      "duration": 0.063,
      "velocity": 0.54,
      "hand": "left"
    },
    {
      "midi": 51,
      "time": 68.375,
      "duration": 0.063,
      "velocity": 0.61,
      "hand": "left"
    },
    {
      "midi": 38,
      "time": 68.5,
      "duration": 0.063,
      "velocity": 0.9,
      "hand": "left"
    },
    {
      "midi": 46,
      "time": 68.5,
      "duration": 0.25,
      "velocity": 0.96,
      "hand": "left"
    },
    {
      "midi": 60,
      "time": 68.5,
      "duration": 0.25,
      "velocity": 0.65,
      "hand": "right"
    },
    {
      "midi": 63,
      "time": 68.5,
      "duration": 0.25,
      "velocity": 0.59,
      "hand": "right"
    },
    {
      "midi": 67,
      "time": 68.5,
      "duration": 0.25,
      "velocity": 0.86,
      "hand": "right"
    },
    {
      "midi": 75,
      "time": 68.5,
      "duration": 0.375,
      "velocity": 0.74,
      "hand": "right"
    },
    {
      "midi": 45,
      "time": 68.75,
      "duration": 0.25,
      "velocity": 0.97,
      "hand": "left"
    },
    {
      "midi": 54,
      "time": 68.75,
      "duration": 0.063,
      "velocity": 0.54,
      "hand": "left"
    },
    {
      "midi": 51,
      "time": 68.875,
      "duration": 0.063,
      "velocity": 0.61,
      "hand": "left"
    },
    {
      "midi": 68,
      "time": 68.875,
      "duration": 0.125,
      "velocity": 0.62,
      "hand": "right"
    },
    {
      "midi": 43,
      "time": 69,
      "duration": 1.235,
      "velocity": 1,
      "hand": "left"
    },
    {
      "midi": 47,
      "time": 69,
      "duration": 0.063,
      "velocity": 0.77,
      "hand": "left"
    },
    {
      "midi": 62,
      "time": 69,
      "duration": 0.36,
      "velocity": 0.56,
      "hand": "right"
    },
    {
      "midi": 67,
      "time": 69,
      "duration": 0.485,
      "velocity": 0.72,
      "hand": "right"
    },
    {
      "midi": 74,
      "time": 69,
      "duration": 0.5,
      "velocity": 0.58,
      "hand": "right"
    },
    {
      "midi": 54,
      "time": 69.25,
      "duration": 0.063,
      "velocity": 0.54,
      "hand": "left"
    },
    {
      "midi": 51,
      "time": 69.375,
      "duration": 0.063,
      "velocity": 0.61,
      "hand": "left"
    },
    {
      "midi": 55,
      "time": 69.375,
      "duration": 0.063,
      "velocity": 0.48,
      "hand": "left"
    },
    {
      "midi": 62,
      "time": 69.375,
      "duration": 0.11,
      "velocity": 0.56,
      "hand": "right"
    },
    {
      "midi": 38,
      "time": 69.5,
      "duration": 0.485,
      "velocity": 0.86,
      "hand": "left"
    },
    {
      "midi": 51,
      "time": 69.5,
      "duration": 0.063,
      "velocity": 0.61,
      "hand": "left"
    },
    {
      "midi": 62,
      "time": 69.5,
      "duration": 0.375,
      "velocity": 0.54,
      "hand": "right"
    },
    {
      "midi": 65,
      "time": 69.5,
      "duration": 0.485,
      "velocity": 0.72,
      "hand": "right"
    },
    {
      "midi": 67,
      "time": 69.5,
      "duration": 0.063,
      "velocity": 0.52,
      "hand": "right"
    },
    {
      "midi": 83,
      "time": 69.5,
      "duration": 0.5,
      "velocity": 0.61,
      "hand": "right"
    },
    {
      "midi": 54,
      "time": 69.75,
      "duration": 0.063,
      "velocity": 0.54,
      "hand": "left"
    },
    {
      "midi": 51,
      "time": 69.875,
      "duration": 0.063,
      "velocity": 0.61,
      "hand": "left"
    },
    {
      "midi": 38,
      "time": 70,
      "duration": 0.063,
      "velocity": 0.91,
      "hand": "left"
    },
    {
      "midi": 47,
      "time": 70,
      "duration": 0.25,
      "velocity": 0.94,
      "hand": "left"
    },
    {
      "midi": 63,
      "time": 70,
      "duration": 0.25,
      "velocity": 0.64,
      "hand": "right"
    },
    {
      "midi": 65,
      "time": 70,
      "duration": 0.25,
      "velocity": 0.52,
      "hand": "right"
    },
    {
      "midi": 74,
      "time": 70,
      "duration": 0.5,
      "velocity": 0.54,
      "hand": "right"
    },
    {
      "midi": 43,
      "time": 70.25,
      "duration": 0.25,
      "velocity": 0.94,
      "hand": "left"
    },
    {
      "midi": 54,
      "time": 70.25,
      "duration": 0.063,
      "velocity": 0.54,
      "hand": "left"
    },
    {
      "midi": 62,
      "time": 70.25,
      "duration": 0.235,
      "velocity": 0.72,
      "hand": "right"
    },
    {
      "midi": 51,
      "time": 70.375,
      "duration": 0.063,
      "velocity": 0.61,
      "hand": "left"
    },
    {
      "midi": 36,
      "time": 70.5,
      "duration": 0.5,
      "velocity": 0.94,
      "hand": "left"
    },
    {
      "midi": 47,
      "time": 70.5,
      "duration": 0.063,
      "velocity": 0.75,
      "hand": "left"
    },
    {
      "midi": 63,
      "time": 70.5,
      "duration": 0.375,
      "velocity": 0.54,
      "hand": "right"
    },
    {
      "midi": 65,
      "time": 70.5,
      "duration": 0.25,
      "velocity": 0.57,
      "hand": "right"
    },
    {
      "midi": 67,
      "time": 70.5,
      "duration": 0.125,
      "velocity": 0.49,
      "hand": "right"
    },
    {
      "midi": 60,
      "time": 70.75,
      "duration": 0.125,
      "velocity": 0.24,
      "hand": "right"
    },
    {
      "midi": 38,
      "time": 70.875,
      "duration": 0.063,
      "velocity": 0.91,
      "hand": "left"
    },
    {
      "midi": 51,
      "time": 70.875,
      "duration": 0.063,
      "velocity": 0.61,
      "hand": "left"
    },
    {
      "midi": 38,
      "time": 71,
      "duration": 0.485,
      "velocity": 0.91,
      "hand": "left"
    },
    {
      "midi": 51,
      "time": 71,
      "duration": 0.063,
      "velocity": 0.61,
      "hand": "left"
    },
    {
      "midi": 60,
      "time": 71,
      "duration": 0.25,
      "velocity": 0.59,
      "hand": "right"
    },
    {
      "midi": 62,
      "time": 71,
      "duration": 0.375,
      "velocity": 0.72,
      "hand": "right"
    },
    {
      "midi": 65,
      "time": 71,
      "duration": 0.375,
      "velocity": 0.53,
      "hand": "right"
    },
    {
      "midi": 39,
      "time": 71.25,
      "duration": 0.063,
      "velocity": 0.91,
      "hand": "left"
    },
    {
      "midi": 51,
      "time": 71.375,
      "duration": 0.063,
      "velocity": 0.61,
      "hand": "left"
    },
    {
      "midi": 38,
      "time": 71.5,
      "duration": 0.063,
      "velocity": 0.93,
      "hand": "left"
    },
    {
      "midi": 44,
      "time": 71.5,
      "duration": 0.5,
      "velocity": 1,
      "hand": "left"
    },
    {
      "midi": 63,
      "time": 71.5,
      "duration": 0.375,
      "velocity": 0.72,
      "hand": "right"
    },
    {
      "midi": 39,
      "time": 71.75,
      "duration": 0.063,
      "velocity": 0.72,
      "hand": "left"
    },
    {
      "midi": 51,
      "time": 71.875,
      "duration": 0.063,
      "velocity": 0.61,
      "hand": "left"
    },
    {
      "midi": 36,
      "time": 72,
      "duration": 1.25,
      "velocity": 0.96,
      "hand": "left"
    },
    {
      "midi": 47,
      "time": 72,
      "duration": 0.063,
      "velocity": 0.73,
      "hand": "left"
    },
    {
      "midi": 60,
      "time": 72,
      "duration": 0.36,
      "velocity": 0.76,
      "hand": "right"
    },
    {
      "midi": 63,
      "time": 72,
      "duration": 0.36,
      "velocity": 0.91,
      "hand": "right"
    },
    {
      "midi": 67,
      "time": 72,
      "duration": 0.36,
      "velocity": 0.57,
      "hand": "right"
    },
    {
      "midi": 51,
      "time": 72.375,
      "duration": 0.063,
      "velocity": 0.61,
      "hand": "left"
    },
    {
      "midi": 55,
      "time": 72.375,
      "duration": 0.11,
      "velocity": 0.52,
      "hand": "left"
    },
    {
      "midi": 60,
      "time": 72.375,
      "duration": 0.11,
      "velocity": 0.57,
      "hand": "right"
    },
    {
      "midi": 63,
      "time": 72.375,
      "duration": 0.063,
      "velocity": 0.54,
      "hand": "right"
    },
    {
      "midi": 67,
      "time": 72.375,
      "duration": 0.11,
      "velocity": 0.52,
      "hand": "right"
    },
    {
      "midi": 38,
      "time": 72.5,
      "duration": 0.063,
      "velocity": 0.83,
      "hand": "left"
    },
    {
      "midi": 48,
      "time": 72.5,
      "duration": 2.5,
      "velocity": 0.51,
      "hand": "left"
    },
    {
      "midi": 60,
      "time": 72.5,
      "duration": 0.063,
      "velocity": 0.61,
      "hand": "right"
    },
    {
      "midi": 63,
      "time": 72.5,
      "duration": 0.063,
      "velocity": 0.55,
      "hand": "right"
    },
    {
      "midi": 67,
      "time": 72.5,
      "duration": 0.125,
      "velocity": 0.52,
      "hand": "right"
    },
    {
      "midi": 55,
      "time": 72.75,
      "duration": 0.235,
      "velocity": 0.59,
      "hand": "left"
    },
    {
      "midi": 51,
      "time": 72.875,
      "duration": 0.063,
      "velocity": 0.61,
      "hand": "left"
    },
    {
      "midi": 38,
      "time": 73,
      "duration": 0.063,
      "velocity": 0.91,
      "hand": "left"
    },
    {
      "midi": 51,
      "time": 73,
      "duration": 0.063,
      "velocity": 0.61,
      "hand": "left"
    },
    {
      "midi": 60,
      "time": 73,
      "duration": 0.375,
      "velocity": 0.68,
      "hand": "right"
    },
    {
      "midi": 63,
      "time": 73,
      "duration": 0.125,
      "velocity": 0.64,
      "hand": "right"
    },
    {
      "midi": 67,
      "time": 73,
      "duration": 0.125,
      "velocity": 0.55,
      "hand": "right"
    },
    {
      "midi": 43,
      "time": 73.25,
      "duration": 0.25,
      "velocity": 0.94,
      "hand": "left"
    },
    {
      "midi": 63,
      "time": 73.25,
      "duration": 0.125,
      "velocity": 0.5,
      "hand": "right"
    },
    {
      "midi": 51,
      "time": 73.375,
      "duration": 0.063,
      "velocity": 0.61,
      "hand": "left"
    },
    {
      "midi": 36,
      "time": 73.5,
      "duration": 0.875,
      "velocity": 0.96,
      "hand": "left"
    },
    {
      "midi": 47,
      "time": 73.5,
      "duration": 0.063,
      "velocity": 0.72,
      "hand": "left"
    },
    {
      "midi": 60,
      "time": 73.5,
      "duration": 0.36,
      "velocity": 0.56,
      "hand": "right"
    },
    {
      "midi": 63,
      "time": 73.5,
      "duration": 0.36,
      "velocity": 0.55,
      "hand": "right"
    },
    {
      "midi": 67,
      "time": 73.5,
      "duration": 0.36,
      "velocity": 0.57,
      "hand": "right"
    },
    {
      "midi": 75,
      "time": 73.5,
      "duration": 0.5,
      "velocity": 0.84,
      "hand": "right"
    },
    {
      "midi": 38,
      "time": 73.875,
      "duration": 0.063,
      "velocity": 0.97,
      "hand": "left"
    },
    {
      "midi": 51,
      "time": 73.875,
      "duration": 0.063,
      "velocity": 0.61,
      "hand": "left"
    },
    {
      "midi": 60,
      "time": 73.875,
      "duration": 0.063,
      "velocity": 0.57,
      "hand": "right"
    },
    {
      "midi": 63,
      "time": 73.875,
      "duration": 0.063,
      "velocity": 0.57,
      "hand": "right"
    },
    {
      "midi": 67,
      "time": 73.875,
      "duration": 0.11,
      "velocity": 0.51,
      "hand": "right"
    },
    {
      "midi": 38,
      "time": 74,
      "duration": 0.063,
      "velocity": 0.7,
      "hand": "left"
    },
    {
      "midi": 54,
      "time": 74,
      "duration": 0.063,
      "velocity": 0.54,
      "hand": "left"
    },
    {
      "midi": 60,
      "time": 74,
      "duration": 0.063,
      "velocity": 0.57,
      "hand": "right"
    },
    {
      "midi": 63,
      "time": 74,
      "duration": 0.063,
      "velocity": 0.64,
      "hand": "right"
    },
    {
      "midi": 67,
      "time": 74,
      "duration": 0.125,
      "velocity": 0.48,
      "hand": "right"
    },
    {
      "midi": 74,
      "time": 74,
      "duration": 0.5,
      "velocity": 0.7,
      "hand": "right"
    },
    {
      "midi": 51,
      "time": 74.125,
      "duration": 0.063,
      "velocity": 0.61,
      "hand": "left"
    },
    {
      "midi": 51,
      "time": 74.375,
      "duration": 0.063,
      "velocity": 0.61,
      "hand": "left"
    },
    {
      "midi": 38,
      "time": 74.5,
      "duration": 0.063,
      "velocity": 0.9,
      "hand": "left"
    },
    {
      "midi": 43,
      "time": 74.5,
      "duration": 0.375,
      "velocity": 0.93,
      "hand": "left"
    },
    {
      "midi": 60,
      "time": 74.5,
      "duration": 0.375,
      "velocity": 0.68,
      "hand": "right"
    },
    {
      "midi": 63,
      "time": 74.5,
      "duration": 0.375,
      "velocity": 0.7,
      "hand": "right"
    },
    {
      "midi": 67,
      "time": 74.5,
      "duration": 0.25,
      "velocity": 0.57,
      "hand": "right"
    },
    {
      "midi": 72,
      "time": 74.5,
      "duration": 0.5,
      "velocity": 0.71,
      "hand": "right"
    },
    {
      "midi": 51,
      "time": 74.875,
      "duration": 0.063,
      "velocity": 0.61,
      "hand": "left"
    },
    {
      "midi": 41,
      "time": 75,
      "duration": 1.485,
      "velocity": 0.83,
      "hand": "left"
    },
    {
      "midi": 47,
      "time": 75,
      "duration": 0.063,
      "velocity": 0.77,
      "hand": "left"
    },
    {
      "midi": 60,
      "time": 75,
      "duration": 0.36,
      "velocity": 0.55,
      "hand": "right"
    },
    {
      "midi": 65,
      "time": 75,
      "duration": 0.36,
      "velocity": 0.56,
      "hand": "right"
    },
    {
      "midi": 68,
      "time": 75,
      "duration": 3,
      "velocity": 0.68,
      "hand": "right"
    },
    {
      "midi": 51,
      "time": 75.375,
      "duration": 0.063,
      "velocity": 0.61,
      "hand": "left"
    },
    {
      "midi": 56,
      "time": 75.375,
      "duration": 0.11,
      "velocity": 0.46,
      "hand": "left"
    },
    {
      "midi": 60,
      "time": 75.375,
      "duration": 0.11,
      "velocity": 0.5,
      "hand": "right"
    },
    {
      "midi": 63,
      "time": 75.375,
      "duration": 0.11,
      "velocity": 0.38,
      "hand": "right"
    },
    {
      "midi": 65,
      "time": 75.375,
      "duration": 0.11,
      "velocity": 0.39,
      "hand": "right"
    },
    {
      "midi": 38,
      "time": 75.5,
      "duration": 0.063,
      "velocity": 0.8,
      "hand": "left"
    },
    {
      "midi": 51,
      "time": 75.5,
      "duration": 0.063,
      "velocity": 0.61,
      "hand": "left"
    },
    {
      "midi": 60,
      "time": 75.5,
      "duration": 0.125,
      "velocity": 0.56,
      "hand": "right"
    },
    {
      "midi": 63,
      "time": 75.5,
      "duration": 0.125,
      "velocity": 0.5,
      "hand": "right"
    },
    {
      "midi": 65,
      "time": 75.5,
      "duration": 0.125,
      "velocity": 0.45,
      "hand": "right"
    },
    {
      "midi": 56,
      "time": 75.75,
      "duration": 0.235,
      "velocity": 0.78,
      "hand": "left"
    },
    {
      "midi": 51,
      "time": 75.875,
      "duration": 0.063,
      "velocity": 0.61,
      "hand": "left"
    },
    {
      "midi": 38,
      "time": 76,
      "duration": 0.063,
      "velocity": 0.91,
      "hand": "left"
    },
    {
      "midi": 51,
      "time": 76,
      "duration": 0.063,
      "velocity": 0.61,
      "hand": "left"
    },
    {
      "midi": 60,
      "time": 76,
      "duration": 0.235,
      "velocity": 0.68,
      "hand": "right"
    },
    {
      "midi": 63,
      "time": 76,
      "duration": 0.125,
      "velocity": 0.53,
      "hand": "right"
    },
    {
      "midi": 65,
      "time": 76,
      "duration": 0.125,
      "velocity": 0.5,
      "hand": "right"
    },
    {
      "midi": 36,
      "time": 76.25,
      "duration": 0.25,
      "velocity": 0.94,
      "hand": "left"
    },
    {
      "midi": 56,
      "time": 76.25,
      "duration": 0.125,
      "velocity": 0.49,
      "hand": "left"
    },
    {
      "midi": 60,
      "time": 76.25,
      "duration": 0.125,
      "velocity": 0.58,
      "hand": "right"
    },
    {
      "midi": 65,
      "time": 76.25,
      "duration": 0.125,
      "velocity": 0.5,
      "hand": "right"
    },
    {
      "midi": 51,
      "time": 76.375,
      "duration": 0.063,
      "velocity": 0.61,
      "hand": "left"
    },
    {
      "midi": 41,
      "time": 76.5,
      "duration": 0.985,
      "velocity": 0.88,
      "hand": "left"
    },
    {
      "midi": 47,
      "time": 76.5,
      "duration": 0.063,
      "velocity": 0.75,
      "hand": "left"
    },
    {
      "midi": 60,
      "time": 76.5,
      "duration": 0.36,
      "velocity": 0.49,
      "hand": "right"
    },
    {
      "midi": 67,
      "time": 76.5,
      "duration": 0.875,
      "velocity": 0.5,
      "hand": "right"
    },
    {
      "midi": 38,
      "time": 76.875,
      "duration": 0.063,
      "velocity": 0.97,
      "hand": "left"
    },
    {
      "midi": 51,
      "time": 76.875,
      "duration": 0.063,
      "velocity": 0.61,
      "hand": "left"
    },
    {
      "midi": 60,
      "time": 76.875,
      "duration": 0.11,
      "velocity": 0.5,
      "hand": "right"
    },
    {
      "midi": 63,
      "time": 76.875,
      "duration": 0.11,
      "velocity": 0.38,
      "hand": "right"
    },
    {
      "midi": 65,
      "time": 76.875,
      "duration": 0.11,
      "velocity": 0.39,
      "hand": "right"
    },
    {
      "midi": 38,
      "time": 77,
      "duration": 0.063,
      "velocity": 0.65,
      "hand": "left"
    },
    {
      "midi": 44,
      "time": 77,
      "duration": 0.5,
      "velocity": 0.98,
      "hand": "left"
    },
    {
      "midi": 60,
      "time": 77,
      "duration": 0.125,
      "velocity": 0.56,
      "hand": "right"
    },
    {
      "midi": 63,
      "time": 77,
      "duration": 0.125,
      "velocity": 0.5,
      "hand": "right"
    },
    {
      "midi": 65,
      "time": 77,
      "duration": 0.125,
      "velocity": 0.45,
      "hand": "right"
    },
    {
      "midi": 51,
      "time": 77.375,
      "duration": 0.063,
      "velocity": 0.61,
      "hand": "left"
    },
    {
      "midi": 38,
      "time": 77.5,
      "duration": 0.063,
      "velocity": 0.91,
      "hand": "left"
    },
    {
      "midi": 41,
      "time": 77.5,
      "duration": 0.375,
      "velocity": 0.86,
      "hand": "left"
    },
    {
      "midi": 60,
      "time": 77.5,
      "duration": 0.25,
      "velocity": 0.61,
      "hand": "right"
    },
    {
      "midi": 63,
      "time": 77.5,
      "duration": 0.125,
      "velocity": 0.53,
      "hand": "right"
    },
    {
      "midi": 65,
      "time": 77.5,
      "duration": 0.375,
      "velocity": 0.54,
      "hand": "right"
    },
    {
      "midi": 51,
      "time": 77.875,
      "duration": 0.063,
      "velocity": 0.61,
      "hand": "left"
    },
    {
      "midi": 47,
      "time": 78,
      "duration": 0.063,
      "velocity": 0.73,
      "hand": "left"
    },
    {
      "midi": 62,
      "time": 78,
      "duration": 0.485,
      "velocity": 0.38,
      "hand": "right"
    },
    {
      "midi": 70,
      "time": 78,
      "duration": 1.375,
      "velocity": 0.92,
      "hand": "right"
    },
    {
      "midi": 58,
      "time": 78.25,
      "duration": 0.5,
      "velocity": 0.7,
      "hand": "left"
    },
    {
      "midi": 51,
      "time": 78.375,
      "duration": 0.063,
      "velocity": 0.61,
      "hand": "left"
    },
    {
      "midi": 56,
      "time": 78.375,
      "duration": 0.11,
      "velocity": 0.46,
      "hand": "left"
    },
    {
      "midi": 60,
      "time": 78.375,
      "duration": 0.11,
      "velocity": 0.5,
      "hand": "right"
    },
    {
      "midi": 63,
      "time": 78.375,
      "duration": 0.11,
      "velocity": 0.38,
      "hand": "right"
    },
    {
      "midi": 65,
      "time": 78.375,
      "duration": 0.11,
      "velocity": 0.39,
      "hand": "right"
    },
    {
      "midi": 38,
      "time": 78.5,
      "duration": 0.063,
      "velocity": 0.9,
      "hand": "left"
    },
    {
      "midi": 51,
      "time": 78.5,
      "duration": 0.063,
      "velocity": 0.61,
      "hand": "left"
    },
    {
      "midi": 60,
      "time": 78.5,
      "duration": 0.125,
      "velocity": 0.56,
      "hand": "right"
    },
    {
      "midi": 63,
      "time": 78.5,
      "duration": 0.125,
      "velocity": 0.5,
      "hand": "right"
    },
    {
      "midi": 65,
      "time": 78.5,
      "duration": 0.125,
      "velocity": 0.45,
      "hand": "right"
    },
    {
      "midi": 53,
      "time": 78.75,
      "duration": 0.625,
      "velocity": 0.61,
      "hand": "left"
    },
    {
      "midi": 51,
      "time": 78.875,
      "duration": 0.063,
      "velocity": 0.61,
      "hand": "left"
    },
    {
      "midi": 38,
      "time": 79,
      "duration": 0.063,
      "velocity": 0.9,
      "hand": "left"
    },
    {
      "midi": 51,
      "time": 79,
      "duration": 0.063,
      "velocity": 0.61,
      "hand": "left"
    },
    {
      "midi": 60,
      "time": 79,
      "duration": 0.125,
      "velocity": 0.61,
      "hand": "right"
    },
    {
      "midi": 63,
      "time": 79,
      "duration": 0.125,
      "velocity": 0.53,
      "hand": "right"
    },
    {
      "midi": 65,
      "time": 79,
      "duration": 0.125,
      "velocity": 0.5,
      "hand": "right"
    },
    {
      "midi": 41,
      "time": 79.25,
      "duration": 0.125,
      "velocity": 0.95,
      "hand": "left"
    },
    {
      "midi": 62,
      "time": 79.25,
      "duration": 0.125,
      "velocity": 0.53,
      "hand": "right"
    },
    {
      "midi": 51,
      "time": 79.375,
      "duration": 0.063,
      "velocity": 0.61,
      "hand": "left"
    },
    {
      "midi": 47,
      "time": 79.5,
      "duration": 0.063,
      "velocity": 0.81,
      "hand": "left"
    },
    {
      "midi": 65,
      "time": 79.5,
      "duration": 0.875,
      "velocity": 0.57,
      "hand": "right"
    },
    {
      "midi": 74,
      "time": 79.5,
      "duration": 0.5,
      "velocity": 0.75,
      "hand": "right"
    },
    {
      "midi": 38,
      "time": 79.875,
      "duration": 0.063,
      "velocity": 0.97,
      "hand": "left"
    },
    {
      "midi": 51,
      "time": 79.875,
      "duration": 0.063,
      "velocity": 0.61,
      "hand": "left"
    },
    {
      "midi": 62,
      "time": 79.875,
      "duration": 0.11,
      "velocity": 0.57,
      "hand": "right"
    },
    {
      "midi": 38,
      "time": 80,
      "duration": 0.063,
      "velocity": 0.69,
      "hand": "left"
    },
    {
      "midi": 41,
      "time": 80,
      "duration": 0.5,
      "velocity": 0.79,
      "hand": "left"
    },
    {
      "midi": 62,
      "time": 80,
      "duration": 0.125,
      "velocity": 0.61,
      "hand": "right"
    },
    {
      "midi": 72,
      "time": 80,
      "duration": 0.5,
      "velocity": 0.67,
      "hand": "right"
    },
    {
      "midi": 51,
      "time": 80.375,
      "duration": 0.063,
      "velocity": 0.61,
      "hand": "left"
    },
    {
      "midi": 38,
      "time": 80.5,
      "duration": 0.063,
      "velocity": 0.91,
      "hand": "left"
    },
    {
      "midi": 46,
      "time": 80.5,
      "duration": 0.375,
      "velocity": 0.98,
      "hand": "left"
    },
    {
      "midi": 62,
      "time": 80.5,
      "duration": 0.375,
      "velocity": 0.65,
      "hand": "right"
    },
    {
      "midi": 70,
      "time": 80.5,
      "duration": 0.5,
      "velocity": 0.69,
      "hand": "right"
    },
    {
      "midi": 39,
      "time": 80.875,
      "duration": 0.11,
      "velocity": 0.87,
      "hand": "left"
    },
    {
      "midi": 51,
      "time": 80.875,
      "duration": 0.063,
      "velocity": 0.61,
      "hand": "left"
    },
    {
      "midi": 39,
      "time": 81,
      "duration": 1,
      "velocity": 0.5,
      "hand": "left"
    },
    {
      "midi": 47,
      "time": 81,
      "duration": 0.063,
      "velocity": 0.73,
      "hand": "left"
    },
    {
      "midi": 63,
      "time": 81,
      "duration": 0.36,
      "velocity": 0.56,
      "hand": "right"
    },
    {
      "midi": 67,
      "time": 81,
      "duration": 0.985,
      "velocity": 0.68,
      "hand": "right"
    },
    {
      "midi": 51,
      "time": 81.375,
      "duration": 0.063,
      "velocity": 0.61,
      "hand": "left"
    },
    {
      "midi": 55,
      "time": 81.375,
      "duration": 0.11,
      "velocity": 0.5,
      "hand": "left"
    },
    {
      "midi": 63,
      "time": 81.375,
      "duration": 0.11,
      "velocity": 0.54,
      "hand": "right"
    },
    {
      "midi": 38,
      "time": 81.5,
      "duration": 0.063,
      "velocity": 0.83,
      "hand": "left"
    },
    {
      "midi": 51,
      "time": 81.5,
      "duration": 0.063,
      "velocity": 0.61,
      "hand": "left"
    },
    {
      "midi": 63,
      "time": 81.5,
      "duration": 0.125,
      "velocity": 0.51,
      "hand": "right"
    },
    {
      "midi": 51,
      "time": 81.875,
      "duration": 0.063,
      "velocity": 0.61,
      "hand": "left"
    },
    {
      "midi": 38,
      "time": 82,
      "duration": 0.063,
      "velocity": 0.91,
      "hand": "left"
    },
    {
      "midi": 46,
      "time": 82,
      "duration": 0.5,
      "velocity": 0.35,
      "hand": "left"
    },
    {
      "midi": 63,
      "time": 82,
      "duration": 0.125,
      "velocity": 0.61,
      "hand": "right"
    },
    {
      "midi": 67,
      "time": 82,
      "duration": 0.375,
      "velocity": 0.72,
      "hand": "right"
    },
    {
      "midi": 51,
      "time": 82.375,
      "duration": 0.063,
      "velocity": 0.61,
      "hand": "left"
    },
    {
      "midi": 39,
      "time": 82.5,
      "duration": 0.5,
      "velocity": 0.42,
      "hand": "left"
    },
    {
      "midi": 47,
      "time": 82.5,
      "duration": 0.063,
      "velocity": 0.72,
      "hand": "left"
    },
    {
      "midi": 63,
      "time": 82.5,
      "duration": 0.36,
      "velocity": 0.72,
      "hand": "right"
    },
    {
      "midi": 38,
      "time": 82.875,
      "duration": 0.063,
      "velocity": 0.97,
      "hand": "left"
    },
    {
      "midi": 51,
      "time": 82.875,
      "duration": 0.063,
      "velocity": 0.61,
      "hand": "left"
    },
    {
      "midi": 63,
      "time": 82.875,
      "duration": 0.11,
      "velocity": 0.57,
      "hand": "right"
    },
    {
      "midi": 38,
      "time": 83,
      "duration": 0.485,
      "velocity": 0.91,
      "hand": "left"
    },
    {
      "midi": 54,
      "time": 83,
      "duration": 0.063,
      "velocity": 0.54,
      "hand": "left"
    },
    {
      "midi": 63,
      "time": 83,
      "duration": 0.125,
      "velocity": 0.72,
      "hand": "right"
    },
    {
      "midi": 51,
      "time": 83.125,
      "duration": 0.063,
      "velocity": 0.61,
      "hand": "left"
    },
    {
      "midi": 51,
      "time": 83.375,
      "duration": 0.063,
      "velocity": 0.61,
      "hand": "left"
    },
    {
      "midi": 38,
      "time": 83.5,
      "duration": 0.063,
      "velocity": 0.9,
      "hand": "left"
    },
    {
      "midi": 43,
      "time": 83.5,
      "duration": 0.5,
      "velocity": 0.96,
      "hand": "left"
    },
    {
      "midi": 60,
      "time": 83.5,
      "duration": 0.25,
      "velocity": 0.63,
      "hand": "right"
    },
    {
      "midi": 63,
      "time": 83.5,
      "duration": 0.125,
      "velocity": 0.72,
      "hand": "right"
    },
    {
      "midi": 51,
      "time": 83.875,
      "duration": 0.063,
      "velocity": 0.61,
      "hand": "left"
    },
    {
      "midi": 55,
      "time": 83.875,
      "duration": 0.485,
      "velocity": 0.41,
      "hand": "left"
    },
    {
      "midi": 36,
      "time": 84,
      "duration": 1.375,
      "velocity": 0.91,
      "hand": "left"
    },
    {
      "midi": 47,
      "time": 84,
      "duration": 0.063,
      "velocity": 0.77,
      "hand": "left"
    },
    {
      "midi": 60,
      "time": 84,
      "duration": 0.36,
      "velocity": 0.43,
      "hand": "right"
    },
    {
      "midi": 63,
      "time": 84,
      "duration": 0.36,
      "velocity": 0.9,
      "hand": "right"
    },
    {
      "midi": 67,
      "time": 84,
      "duration": 0.36,
      "velocity": 0.65,
      "hand": "right"
    },
    {
      "midi": 51,
      "time": 84.375,
      "duration": 0.063,
      "velocity": 0.61,
      "hand": "left"
    },
    {
      "midi": 55,
      "time": 84.375,
      "duration": 0.11,
      "velocity": 0.52,
      "hand": "left"
    },
    {
      "midi": 60,
      "time": 84.375,
      "duration": 0.11,
      "velocity": 0.57,
      "hand": "right"
    },
    {
      "midi": 63,
      "time": 84.375,
      "duration": 0.063,
      "velocity": 0.54,
      "hand": "right"
    },
    {
      "midi": 67,
      "time": 84.375,
      "duration": 0.11,
      "velocity": 0.52,
      "hand": "right"
    },
    {
      "midi": 39,
      "time": 84.5,
      "duration": 0.75,
      "velocity": 0.49,
      "hand": "left"
    },
    {
      "midi": 60,
      "time": 84.5,
      "duration": 0.063,
      "velocity": 0.61,
      "hand": "right"
    },
    {
      "midi": 63,
      "time": 84.5,
      "duration": 0.485,
      "velocity": 0.72,
      "hand": "right"
    },
    {
      "midi": 67,
      "time": 84.5,
      "duration": 0.125,
      "velocity": 0.52,
      "hand": "right"
    },
    {
      "midi": 51,
      "time": 84.875,
      "duration": 0.063,
      "velocity": 0.61,
      "hand": "left"
    },
    {
      "midi": 38,
      "time": 85,
      "duration": 0.063,
      "velocity": 0.91,
      "hand": "left"
    },
    {
      "midi": 51,
      "time": 85,
      "duration": 0.063,
      "velocity": 0.61,
      "hand": "left"
    },
    {
      "midi": 60,
      "time": 85,
      "duration": 0.25,
      "velocity": 0.72,
      "hand": "right"
    },
    {
      "midi": 63,
      "time": 85,
      "duration": 0.125,
      "velocity": 0.64,
      "hand": "right"
    },
    {
      "midi": 67,
      "time": 85,
      "duration": 0.125,
      "velocity": 0.55,
      "hand": "right"
    },
    {
      "midi": 72,
      "time": 85,
      "duration": 0.5,
      "velocity": 0.65,
      "hand": "right"
    },
    {
      "midi": 43,
      "time": 85.25,
      "duration": 0.11,
      "velocity": 0.5,
      "hand": "left"
    },
    {
      "midi": 43,
      "time": 85.375,
      "duration": 0.125,
      "velocity": 0.96,
      "hand": "left"
    },
    {
      "midi": 51,
      "time": 85.375,
      "duration": 0.063,
      "velocity": 0.61,
      "hand": "left"
    },
    {
      "midi": 36,
      "time": 85.5,
      "duration": 0.485,
      "velocity": 0.88,
      "hand": "left"
    },
    {
      "midi": 47,
      "time": 85.5,
      "duration": 0.063,
      "velocity": 0.75,
      "hand": "left"
    },
    {
      "midi": 60,
      "time": 85.5,
      "duration": 0.36,
      "velocity": 0.54,
      "hand": "right"
    },
    {
      "midi": 67,
      "time": 85.5,
      "duration": 0.36,
      "velocity": 0.57,
      "hand": "right"
    },
    {
      "midi": 70,
      "time": 85.5,
      "duration": 0.5,
      "velocity": 0.72,
      "hand": "right"
    },
    {
      "midi": 38,
      "time": 85.875,
      "duration": 0.063,
      "velocity": 0.97,
      "hand": "left"
    },
    {
      "midi": 51,
      "time": 85.875,
      "duration": 0.063,
      "velocity": 0.61,
      "hand": "left"
    },
    {
      "midi": 60,
      "time": 85.875,
      "duration": 0.11,
      "velocity": 0.57,
      "hand": "right"
    },
    {
      "midi": 63,
      "time": 85.875,
      "duration": 0.063,
      "velocity": 0.54,
      "hand": "right"
    },
    {
      "midi": 67,
      "time": 85.875,
      "duration": 0.11,
      "velocity": 0.52,
      "hand": "right"
    },
    {
      "midi": 36,
      "time": 86,
      "duration": 0.5,
      "velocity": 0.86,
      "hand": "left"
    },
    {
      "midi": 38,
      "time": 86,
      "duration": 0.063,
      "velocity": 0.65,
      "hand": "left"
    },
    {
      "midi": 60,
      "time": 86,
      "duration": 0.063,
      "velocity": 0.61,
      "hand": "right"
    },
    {
      "midi": 63,
      "time": 86,
      "duration": 0.25,
      "velocity": 0.55,
      "hand": "right"
    },
    {
      "midi": 68,
      "time": 86,
      "duration": 0.5,
      "velocity": 0.72,
      "hand": "right"
    },
    {
      "midi": 51,
      "time": 86.375,
      "duration": 0.063,
      "velocity": 0.61,
      "hand": "left"
    },
    {
      "midi": 38,
      "time": 86.5,
      "duration": 0.063,
      "velocity": 0.91,
      "hand": "left"
    },
    {
      "midi": 43,
      "time": 86.5,
      "duration": 0.5,
      "velocity": 0.96,
      "hand": "left"
    },
    {
      "midi": 60,
      "time": 86.5,
      "duration": 0.485,
      "velocity": 0.58,
      "hand": "right"
    },
    {
      "midi": 63,
      "time": 86.5,
      "duration": 0.375,
      "velocity": 0.64,
      "hand": "right"
    },
    {
      "midi": 67,
      "time": 86.5,
      "duration": 0.5,
      "velocity": 0.71,
      "hand": "right"
    },
    {
      "midi": 51,
      "time": 86.875,
      "duration": 0.063,
      "velocity": 0.61,
      "hand": "left"
    },
    {
      "midi": 41,
      "time": 87,
      "duration": 1.25,
      "velocity": 0.94,
      "hand": "left"
    },
    {
      "midi": 47,
      "time": 87,
      "duration": 0.063,
      "velocity": 0.73,
      "hand": "left"
    },
    {
      "midi": 60,
      "time": 87,
      "duration": 0.36,
      "velocity": 0.55,
      "hand": "right"
    },
    {
      "midi": 65,
      "time": 87,
      "duration": 0.985,
      "velocity": 0.57,
      "hand": "right"
    },
    {
      "midi": 68,
      "time": 87,
      "duration": 2.75,
      "velocity": 0.66,
      "hand": "right"
    },
    {
      "midi": 51,
      "time": 87.375,
      "duration": 0.063,
      "velocity": 0.61,
      "hand": "left"
    },
    {
      "midi": 53,
      "time": 87.375,
      "duration": 0.11,
      "velocity": 0.53,
      "hand": "left"
    },
    {
      "midi": 60,
      "time": 87.375,
      "duration": 0.11,
      "velocity": 0.5,
      "hand": "right"
    },
    {
      "midi": 63,
      "time": 87.375,
      "duration": 0.11,
      "velocity": 0.41,
      "hand": "right"
    },
    {
      "midi": 38,
      "time": 87.5,
      "duration": 0.063,
      "velocity": 0.9,
      "hand": "left"
    },
    {
      "midi": 51,
      "time": 87.5,
      "duration": 0.063,
      "velocity": 0.61,
      "hand": "left"
    },
    {
      "midi": 60,
      "time": 87.5,
      "duration": 0.125,
      "velocity": 0.52,
      "hand": "right"
    },
    {
      "midi": 63,
      "time": 87.5,
      "duration": 0.125,
      "velocity": 0.46,
      "hand": "right"
    },
    {
      "midi": 51,
      "time": 87.875,
      "duration": 0.063,
      "velocity": 0.61,
      "hand": "left"
    },
    {
      "midi": 38,
      "time": 88,
      "duration": 0.063,
      "velocity": 0.9,
      "hand": "left"
    },
    {
      "midi": 51,
      "time": 88,
      "duration": 0.063,
      "velocity": 0.61,
      "hand": "left"
    },
    {
      "midi": 60,
      "time": 88,
      "duration": 0.86,
      "velocity": 0.7,
      "hand": "right"
    },
    {
      "midi": 63,
      "time": 88,
      "duration": 0.125,
      "velocity": 0.49,
      "hand": "right"
    },
    {
      "midi": 65,
      "time": 88,
      "duration": 0.625,
      "velocity": 0.54,
      "hand": "right"
    },
    {
      "midi": 36,
      "time": 88.25,
      "duration": 0.25,
      "velocity": 0.86,
      "hand": "left"
    },
    {
      "midi": 48,
      "time": 88.25,
      "duration": 0.25,
      "velocity": 0.54,
      "hand": "left"
    },
    {
      "midi": 51,
      "time": 88.375,
      "duration": 0.063,
      "velocity": 0.61,
      "hand": "left"
    },
    {
      "midi": 41,
      "time": 88.5,
      "duration": 0.985,
      "velocity": 0.86,
      "hand": "left"
    },
    {
      "midi": 47,
      "time": 88.5,
      "duration": 0.063,
      "velocity": 0.81,
      "hand": "left"
    },
    {
      "midi": 38,
      "time": 88.875,
      "duration": 0.063,
      "velocity": 0.97,
      "hand": "left"
    },
    {
      "midi": 51,
      "time": 88.875,
      "duration": 0.063,
      "velocity": 0.61,
      "hand": "left"
    },
    {
      "midi": 60,
      "time": 88.875,
      "duration": 0.11,
      "velocity": 0.54,
      "hand": "right"
    },
    {
      "midi": 63,
      "time": 88.875,
      "duration": 0.11,
      "velocity": 0.5,
      "hand": "right"
    },
    {
      "midi": 65,
      "time": 88.875,
      "duration": 0.063,
      "velocity": 0.41,
      "hand": "right"
    },
    {
      "midi": 38,
      "time": 89,
      "duration": 0.063,
      "velocity": 0.69,
      "hand": "left"
    },
    {
      "midi": 44,
      "time": 89,
      "duration": 0.5,
      "velocity": 0.99,
      "hand": "left"
    },
    {
      "midi": 60,
      "time": 89,
      "duration": 0.485,
      "velocity": 0.63,
      "hand": "right"
    },
    {
      "midi": 63,
      "time": 89,
      "duration": 0.125,
      "velocity": 0.54,
      "hand": "right"
    },
    {
      "midi": 65,
      "time": 89,
      "duration": 0.125,
      "velocity": 0.53,
      "hand": "right"
    },
    {
      "midi": 65,
      "time": 89.25,
      "duration": 0.235,
      "velocity": 0.53,
      "hand": "right"
    },
    {
      "midi": 51,
      "time": 89.375,
      "duration": 0.063,
      "velocity": 0.61,
      "hand": "left"
    },
    {
      "midi": 38,
      "time": 89.5,
      "duration": 0.063,
      "velocity": 0.91,
      "hand": "left"
    },
    {
      "midi": 41,
      "time": 89.5,
      "duration": 0.375,
      "velocity": 0.91,
      "hand": "left"
    },
    {
      "midi": 60,
      "time": 89.5,
      "duration": 0.125,
      "velocity": 0.55,
      "hand": "right"
    },
    {
      "midi": 63,
      "time": 89.5,
      "duration": 0.125,
      "velocity": 0.56,
      "hand": "right"
    },
    {
      "midi": 65,
      "time": 89.5,
      "duration": 0.125,
      "velocity": 0.51,
      "hand": "right"
    },
    {
      "midi": 48,
      "time": 89.75,
      "duration": 0.25,
      "velocity": 0.41,
      "hand": "left"
    },
    {
      "midi": 65,
      "time": 89.75,
      "duration": 0.25,
      "velocity": 0.46,
      "hand": "right"
    },
    {
      "midi": 51,
      "time": 89.875,
      "duration": 0.063,
      "velocity": 0.61,
      "hand": "left"
    },
    {
      "midi": 43,
      "time": 90,
      "duration": 1,
      "velocity": 1,
      "hand": "left"
    },
    {
      "midi": 47,
      "time": 90,
      "duration": 0.063,
      "velocity": 0.73,
      "hand": "left"
    },
    {
      "midi": 62,
      "time": 90,
      "duration": 0.36,
      "velocity": 0.32,
      "hand": "right"
    },
    {
      "midi": 68,
      "time": 90,
      "duration": 1,
      "velocity": 0.89,
      "hand": "right"
    },
    {
      "midi": 59,
      "time": 90.25,
      "duration": 0.11,
      "velocity": 0.5,
      "hand": "left"
    },
    {
      "midi": 47,
      "time": 90.375,
      "duration": 0.75,
      "velocity": 0.39,
      "hand": "left"
    },
    {
      "midi": 51,
      "time": 90.375,
      "duration": 0.063,
      "velocity": 0.61,
      "hand": "left"
    },
    {
      "midi": 62,
      "time": 90.375,
      "duration": 0.063,
      "velocity": 0.65,
      "hand": "right"
    },
    {
      "midi": 65,
      "time": 90.375,
      "duration": 0.11,
      "velocity": 0.61,
      "hand": "right"
    },
    {
      "midi": 67,
      "time": 90.375,
      "duration": 0.11,
      "velocity": 0.44,
      "hand": "right"
    },
    {
      "midi": 38,
      "time": 90.5,
      "duration": 0.063,
      "velocity": 0.83,
      "hand": "left"
    },
    {
      "midi": 51,
      "time": 90.5,
      "duration": 0.063,
      "velocity": 0.61,
      "hand": "left"
    },
    {
      "midi": 62,
      "time": 90.5,
      "duration": 0.25,
      "velocity": 0.68,
      "hand": "right"
    },
    {
      "midi": 65,
      "time": 90.5,
      "duration": 0.063,
      "velocity": 0.61,
      "hand": "right"
    },
    {
      "midi": 67,
      "time": 90.5,
      "duration": 0.125,
      "velocity": 0.57,
      "hand": "right"
    },
    {
      "midi": 51,
      "time": 90.875,
      "duration": 0.063,
      "velocity": 0.61,
      "hand": "left"
    },
    {
      "midi": 55,
      "time": 90.875,
      "duration": 0.11,
      "velocity": 0.2,
      "hand": "left"
    },
    {
      "midi": 38,
      "time": 91,
      "duration": 0.5,
      "velocity": 0.95,
      "hand": "left"
    },
    {
      "midi": 50,
      "time": 91,
      "duration": 0.5,
      "velocity": 0.39,
      "hand": "left"
    },
    {
      "midi": 62,
      "time": 91,
      "duration": 0.375,
      "velocity": 0.65,
      "hand": "right"
    },
    {
      "midi": 65,
      "time": 91,
      "duration": 0.125,
      "velocity": 0.72,
      "hand": "right"
    },
    {
      "midi": 67,
      "time": 91,
      "duration": 0.375,
      "velocity": 0.86,
      "hand": "right"
    },
    {
      "midi": 51,
      "time": 91.375,
      "duration": 0.063,
      "velocity": 0.61,
      "hand": "left"
    },
    {
      "midi": 43,
      "time": 91.5,
      "duration": 1.125,
      "velocity": 0.91,
      "hand": "left"
    },
    {
      "midi": 47,
      "time": 91.5,
      "duration": 0.063,
      "velocity": 0.72,
      "hand": "left"
    },
    {
      "midi": 62,
      "time": 91.5,
      "duration": 0.36,
      "velocity": 0.5,
      "hand": "right"
    },
    {
      "midi": 65,
      "time": 91.5,
      "duration": 0.36,
      "velocity": 0.5,
      "hand": "right"
    },
    {
      "midi": 67,
      "time": 91.5,
      "duration": 0.36,
      "velocity": 0.69,
      "hand": "right"
    },
    {
      "midi": 38,
      "time": 91.875,
      "duration": 0.063,
      "velocity": 0.97,
      "hand": "left"
    },
    {
      "midi": 51,
      "time": 91.875,
      "duration": 0.063,
      "velocity": 0.61,
      "hand": "left"
    },
    {
      "midi": 62,
      "time": 91.875,
      "duration": 0.11,
      "velocity": 0.58,
      "hand": "right"
    },
    {
      "midi": 65,
      "time": 91.875,
      "duration": 0.11,
      "velocity": 0.56,
      "hand": "right"
    },
    {
      "midi": 67,
      "time": 91.875,
      "duration": 0.11,
      "velocity": 0.51,
      "hand": "right"
    },
    {
      "midi": 38,
      "time": 92,
      "duration": 0.063,
      "velocity": 0.7,
      "hand": "left"
    },
    {
      "midi": 45,
      "time": 92,
      "duration": 0.625,
      "velocity": 0.96,
      "hand": "left"
    },
    {
      "midi": 62,
      "time": 92,
      "duration": 0.063,
      "velocity": 0.72,
      "hand": "right"
    },
    {
      "midi": 65,
      "time": 92,
      "duration": 0.485,
      "velocity": 0.72,
      "hand": "right"
    },
    {
      "midi": 67,
      "time": 92,
      "duration": 0.125,
      "velocity": 0.56,
      "hand": "right"
    },
    {
      "midi": 51,
      "time": 92.125,
      "duration": 0.063,
      "velocity": 0.61,
      "hand": "left"
    },
    {
      "midi": 51,
      "time": 92.375,
      "duration": 0.063,
      "velocity": 0.61,
      "hand": "left"
    },
    {
      "midi": 38,
      "time": 92.5,
      "duration": 0.063,
      "velocity": 0.9,
      "hand": "left"
    },
    {
      "midi": 47,
      "time": 92.5,
      "duration": 0.375,
      "velocity": 0.75,
      "hand": "left"
    },
    {
      "midi": 62,
      "time": 92.5,
      "duration": 0.5,
      "velocity": 0.74,
      "hand": "right"
    },
    {
      "midi": 65,
      "time": 92.5,
      "duration": 0.25,
      "velocity": 0.72,
      "hand": "right"
    },
    {
      "midi": 67,
      "time": 92.5,
      "duration": 0.125,
      "velocity": 0.61,
      "hand": "right"
    },
    {
      "midi": 51,
      "time": 92.875,
      "duration": 0.063,
      "velocity": 0.61,
      "hand": "left"
    },
    {
      "midi": 55,
      "time": 92.875,
      "duration": 0.11,
      "velocity": 0.28,
      "hand": "left"
    },
    {
      "midi": 36,
      "time": 93,
      "duration": 1.125,
      "velocity": 0.94,
      "hand": "left"
    },
    {
      "midi": 47,
      "time": 93,
      "duration": 0.063,
      "velocity": 0.77,
      "hand": "left"
    },
    {
      "midi": 60,
      "time": 93,
      "duration": 0.36,
      "velocity": 0.67,
      "hand": "right"
    },
    {
      "midi": 63,
      "time": 93,
      "duration": 0.36,
      "velocity": 0.5,
      "hand": "right"
    },
    {
      "midi": 67,
      "time": 93,
      "duration": 0.36,
      "velocity": 0.49,
      "hand": "right"
    },
    {
      "midi": 51,
      "time": 93.375,
      "duration": 0.063,
      "velocity": 0.61,
      "hand": "left"
    },
    {
      "midi": 60,
      "time": 93.375,
      "duration": 0.11,
      "velocity": 0.63,
      "hand": "right"
    },
    {
      "midi": 63,
      "time": 93.375,
      "duration": 0.063,
      "velocity": 0.72,
      "hand": "right"
    },
    {
      "midi": 67,
      "time": 93.375,
      "duration": 0.11,
      "velocity": 0.56,
      "hand": "right"
    },
    {
      "midi": 38,
      "time": 93.5,
      "duration": 0.063,
      "velocity": 0.8,
      "hand": "left"
    },
    {
      "midi": 51,
      "time": 93.5,
      "duration": 0.063,
      "velocity": 0.61,
      "hand": "left"
    },
    {
      "midi": 60,
      "time": 93.5,
      "duration": 0.125,
      "velocity": 0.59,
      "hand": "right"
    },
    {
      "midi": 63,
      "time": 93.5,
      "duration": 0.125,
      "velocity": 0.68,
      "hand": "right"
    },
    {
      "midi": 67,
      "time": 93.5,
      "duration": 0.125,
      "velocity": 0.54,
      "hand": "right"
    },
    {
      "midi": 51,
      "time": 93.875,
      "duration": 0.063,
      "velocity": 0.61,
      "hand": "left"
    },
    {
      "midi": 38,
      "time": 94,
      "duration": 0.063,
      "velocity": 0.91,
      "hand": "left"
    },
    {
      "midi": 43,
      "time": 94,
      "duration": 0.25,
      "velocity": 0.8,
      "hand": "left"
    },
    {
      "midi": 60,
      "time": 94,
      "duration": 0.125,
      "velocity": 0.56,
      "hand": "right"
    },
    {
      "midi": 63,
      "time": 94,
      "duration": 0.125,
      "velocity": 0.57,
      "hand": "right"
    },
    {
      "midi": 67,
      "time": 94,
      "duration": 0.125,
      "velocity": 0.55,
      "hand": "right"
    },
    {
      "midi": 36,
      "time": 94.25,
      "duration": 0.25,
      "velocity": 0.87,
      "hand": "left"
    },
    {
      "midi": 51,
      "time": 94.375,
      "duration": 0.063,
      "velocity": 0.61,
      "hand": "left"
    },
    {
      "midi": 38,
      "time": 94.5,
      "duration": 0.36,
      "velocity": 0.56,
      "hand": "left"
    },
    {
      "midi": 47,
      "time": 94.5,
      "duration": 0.063,
      "velocity": 0.75,
      "hand": "left"
    },
    {
      "midi": 60,
      "time": 94.5,
      "duration": 0.375,
      "velocity": 0.5,
      "hand": "right"
    },
    {
      "midi": 62,
      "time": 94.5,
      "duration": 0.375,
      "velocity": 0.55,
      "hand": "right"
    },
    {
      "midi": 65,
      "time": 94.5,
      "duration": 0.5,
      "velocity": 0.57,
      "hand": "right"
    },
    {
      "midi": 38,
      "time": 94.875,
      "duration": 0.063,
      "velocity": 0.91,
      "hand": "left"
    },
    {
      "midi": 51,
      "time": 94.875,
      "duration": 0.063,
      "velocity": 0.61,
      "hand": "left"
    },
    {
      "midi": 38,
      "time": 95,
      "duration": 0.063,
      "velocity": 0.91,
      "hand": "left"
    },
    {
      "midi": 43,
      "time": 95,
      "duration": 0.375,
      "velocity": 0.56,
      "hand": "left"
    },
    {
      "midi": 63,
      "time": 95,
      "duration": 0.485,
      "velocity": 0.45,
      "hand": "right"
    },
    {
      "midi": 67,
      "time": 95,
      "duration": 0.375,
      "velocity": 0.42,
      "hand": "right"
    },
    {
      "midi": 39,
      "time": 95.25,
      "duration": 0.063,
      "velocity": 0.91,
      "hand": "left"
    },
    {
      "midi": 51,
      "time": 95.375,
      "duration": 0.063,
      "velocity": 0.61,
      "hand": "left"
    },
    {
      "midi": 38,
      "time": 95.5,
      "duration": 0.063,
      "velocity": 0.93,
      "hand": "left"
    },
    {
      "midi": 43,
      "time": 95.5,
      "duration": 0.375,
      "velocity": 0.96,
      "hand": "left"
    },
    {
      "midi": 63,
      "time": 95.5,
      "duration": 0.125,
      "velocity": 0.48,
      "hand": "right"
    },
    {
      "midi": 67,
      "time": 95.5,
      "duration": 0.25,
      "velocity": 0.25,
      "hand": "right"
    },
    {
      "midi": 39,
      "time": 95.75,
      "duration": 0.063,
      "velocity": 0.72,
      "hand": "left"
    },
    {
      "midi": 51,
      "time": 95.875,
      "duration": 0.063,
      "velocity": 0.61,
      "hand": "left"
    },
    {
      "midi": 36,
      "time": 96,
      "duration": 1.125,
      "velocity": 0.97,
      "hand": "left"
    },
    {
      "midi": 38,
      "time": 96,
      "duration": 0.063,
      "velocity": 0.83,
      "hand": "left"
    },
    {
      "midi": 60,
      "time": 96,
      "duration": 0.875,
      "velocity": 0.51,
      "hand": "right"
    },
    {
      "midi": 63,
      "time": 96,
      "duration": 0.875,
      "velocity": 0.51,
      "hand": "right"
    },
    {
      "midi": 67,
      "time": 96,
      "duration": 0.875,
      "velocity": 0.63,
      "hand": "right"
    }
  ]
}
