{
  "id": "the-seasons-februarytchaikovsky",
  "title": "control track",
  "artist": "MIDI Source",
  "difficulty": "Médio",
  "bpm": 72,
  "duration": 281,
  "category": "A revisar",
  "isPremium": true,
  "coverUrl": "/images/covers/placeholder.png",
  "notes": [
    {
      "midi": 50,
      "time": 0,
      "duration": 0.833,
      "velocity": 1,
      "hand": "left"
    },
    {
      "midi": 54,
      "time": 0,
      "duration": 0.833,
      "velocity": 1,
      "hand": "left"
    },
    {
      "midi": 57,
      "time": 0,
      "duration": 0.417,
      "velocity": 1,
      "hand": "left"
    },
    {
      "midi": 74,
      "time": 0,
      "duration": 0.417,
      "velocity": 1,
      "hand": "right"
    },
    {
      "midi": 78,
      "time": 0,
      "duration": 0.417,
      "velocity": 1,
      "hand": "right"
    },
    {
      "midi": 81,
      "time": 0,
      "duration": 0.833,
      "velocity": 1,
      "hand": "right"
    },
    {
      "midi": 62,
      "time": 0.417,
      "duration": 0.417,
      "velocity": 1,
      "hand": "right"
    },
    {
      "midi": 69,
      "time": 0.417,
      "duration": 0.417,
      "velocity": 1,
      "hand": "right"
    },
    {
      "midi": 50,
      "time": 0.833,
      "duration": 0.833,
      "velocity": 1,
      "hand": "left"
    },
    {
      "midi": 55,
      "time": 0.833,
      "duration": 0.833,
      "velocity": 1,
      "hand": "left"
    },
    {
      "midi": 58,
      "time": 0.833,
      "duration": 0.417,
      "velocity": 1,
      "hand": "left"
    },
    {
      "midi": 70,
      "time": 0.833,
      "duration": 0.417,
      "velocity": 1,
      "hand": "right"
    },
    {
      "midi": 74,
      "time": 0.833,
      "duration": 0.417,
      "velocity": 1,
      "hand": "right"
    },
    {
      "midi": 76,
      "time": 0.833,
      "duration": 0.833,
      "velocity": 1,
      "hand": "right"
    },
    {
      "midi": 62,
      "time": 1.25,
      "duration": 0.417,
      "velocity": 1,
      "hand": "right"
    },
    {
      "midi": 64,
      "time": 1.25,
      "duration": 0.417,
      "velocity": 1,
      "hand": "right"
    },
    {
      "midi": 50,
      "time": 1.667,
      "duration": 0.833,
      "velocity": 1,
      "hand": "left"
    },
    {
      "midi": 54,
      "time": 1.667,
      "duration": 0.833,
      "velocity": 1,
      "hand": "left"
    },
    {
      "midi": 57,
      "time": 1.667,
      "duration": 0.417,
      "velocity": 1,
      "hand": "left"
    },
    {
      "midi": 74,
      "time": 1.667,
      "duration": 0.417,
      "velocity": 1,
      "hand": "right"
    },
    {
      "midi": 78,
      "time": 1.667,
      "duration": 0.417,
      "velocity": 1,
      "hand": "right"
    },
    {
      "midi": 81,
      "time": 1.667,
      "duration": 0.833,
      "velocity": 1,
      "hand": "right"
    },
    {
      "midi": 62,
      "time": 2.083,
      "duration": 0.417,
      "velocity": 1,
      "hand": "right"
    },
    {
      "midi": 69,
      "time": 2.083,
      "duration": 0.417,
      "velocity": 1,
      "hand": "right"
    },
    {
      "midi": 50,
      "time": 2.5,
      "duration": 0.833,
      "velocity": 1,
      "hand": "left"
    },
    {
      "midi": 55,
      "time": 2.5,
      "duration": 0.833,
      "velocity": 1,
      "hand": "left"
    },
    {
      "midi": 58,
      "time": 2.5,
      "duration": 0.417,
      "velocity": 1,
      "hand": "left"
    },
    {
      "midi": 70,
      "time": 2.5,
      "duration": 0.417,
      "velocity": 1,
      "hand": "right"
    },
    {
      "midi": 74,
      "time": 2.5,
      "duration": 0.417,
      "velocity": 1,
      "hand": "right"
    },
    {
      "midi": 76,
      "time": 2.5,
      "duration": 0.833,
      "velocity": 1,
      "hand": "right"
    },
    {
      "midi": 62,
      "time": 2.917,
      "duration": 0.417,
      "velocity": 1,
      "hand": "right"
    },
    {
      "midi": 64,
      "time": 2.917,
      "duration": 0.417,
      "velocity": 1,
      "hand": "right"
    },
    {
      "midi": 60,
      "time": 3.333,
      "duration": 1.667,
      "velocity": 1,
      "hand": "right"
    },
    {
      "midi": 62,
      "time": 3.333,
      "duration": 1.667,
      "velocity": 1,
      "hand": "right"
    },
    {
      "midi": 66,
      "time": 3.333,
      "duration": 1.667,
      "velocity": 1,
      "hand": "right"
    },
    {
      "midi": 69,
      "time": 3.333,
      "duration": 1.667,
      "velocity": 1,
      "hand": "right"
    },
    {
      "midi": 74,
      "time": 3.333,
      "duration": 0.208,
      "velocity": 1,
      "hand": "right"
    },
    {
      "midi": 76,
      "time": 3.542,
      "duration": 0.208,
      "velocity": 1,
      "hand": "right"
    },
    {
      "midi": 74,
      "time": 3.75,
      "duration": 0.208,
      "velocity": 1,
      "hand": "right"
    },
    {
      "midi": 76,
      "time": 3.958,
      "duration": 0.208,
      "velocity": 1,
      "hand": "right"
    },
    {
      "midi": 78,
      "time": 4.167,
      "duration": 0.417,
      "velocity": 1,
      "hand": "right"
    },
    {
      "midi": 78,
      "time": 4.583,
      "duration": 0.417,
      "velocity": 1,
      "hand": "right"
    },
    {
      "midi": 58,
      "time": 5,
      "duration": 0.208,
      "velocity": 1,
      "hand": "left"
    },
    {
      "midi": 67,
      "time": 5,
      "duration": 0.833,
      "velocity": 1,
      "hand": "right"
    },
    {
      "midi": 74,
      "time": 5,
      "duration": 0.833,
      "velocity": 1,
      "hand": "right"
    },
    {
      "midi": 76,
      "time": 5,
      "duration": 0.417,
      "velocity": 1,
      "hand": "right"
    },
    {
      "midi": 57,
      "time": 5.208,
      "duration": 0.208,
      "velocity": 1,
      "hand": "left"
    },
    {
      "midi": 55,
      "time": 5.417,
      "duration": 0.208,
      "velocity": 1,
      "hand": "left"
    },
    {
      "midi": 79,
      "time": 5.417,
      "duration": 0.417,
      "velocity": 1,
      "hand": "right"
    },
    {
      "midi": 54,
      "time": 5.625,
      "duration": 0.208,
      "velocity": 1,
      "hand": "left"
    },
    {
      "midi": 52,
      "time": 5.833,
      "duration": 0.417,
      "velocity": 1,
      "hand": "left"
    },
    {
      "midi": 73,
      "time": 5.833,
      "duration": 0.417,
      "velocity": 1,
      "hand": "right"
    },
    {
      "midi": 76,
      "time": 5.833,
      "duration": 0.833,
      "velocity": 1,
      "hand": "right"
    },
    {
      "midi": 57,
      "time": 6.25,
      "duration": 0.417,
      "velocity": 1,
      "hand": "left"
    },
    {
      "midi": 69,
      "time": 6.25,
      "duration": 0.417,
      "velocity": 1,
      "hand": "right"
    },
    {
      "midi": 50,
      "time": 6.667,
      "duration": 0.833,
      "velocity": 1,
      "hand": "left"
    },
    {
      "midi": 54,
      "time": 6.667,
      "duration": 0.833,
      "velocity": 1,
      "hand": "left"
    },
    {
      "midi": 57,
      "time": 6.667,
      "duration": 0.417,
      "velocity": 1,
      "hand": "left"
    },
    {
      "midi": 74,
      "time": 6.667,
      "duration": 0.417,
      "velocity": 1,
      "hand": "right"
    },
    {
      "midi": 78,
      "time": 6.667,
      "duration": 0.417,
      "velocity": 1,
      "hand": "right"
    },
    {
      "midi": 81,
      "time": 6.667,
      "duration": 0.833,
      "velocity": 1,
      "hand": "right"
    },
    {
      "midi": 62,
      "time": 7.083,
      "duration": 0.417,
      "velocity": 1,
      "hand": "right"
    },
    {
      "midi": 69,
      "time": 7.083,
      "duration": 0.417,
      "velocity": 1,
      "hand": "right"
    },
    {
      "midi": 50,
      "time": 7.5,
      "duration": 0.833,
      "velocity": 1,
      "hand": "left"
    },
    {
      "midi": 55,
      "time": 7.5,
      "duration": 0.833,
      "velocity": 1,
      "hand": "left"
    },
    {
      "midi": 58,
      "time": 7.5,
      "duration": 0.417,
      "velocity": 1,
      "hand": "left"
    },
    {
      "midi": 70,
      "time": 7.5,
      "duration": 0.417,
      "velocity": 1,
      "hand": "right"
    },
    {
      "midi": 74,
      "time": 7.5,
      "duration": 0.417,
      "velocity": 1,
      "hand": "right"
    },
    {
      "midi": 76,
      "time": 7.5,
      "duration": 0.833,
      "velocity": 1,
      "hand": "right"
    },
    {
      "midi": 62,
      "time": 7.917,
      "duration": 0.417,
      "velocity": 1,
      "hand": "right"
    },
    {
      "midi": 64,
      "time": 7.917,
      "duration": 0.417,
      "velocity": 1,
      "hand": "right"
    },
    {
      "midi": 50,
      "time": 8.333,
      "duration": 0.833,
      "velocity": 1,
      "hand": "left"
    },
    {
      "midi": 54,
      "time": 8.333,
      "duration": 0.833,
      "velocity": 1,
      "hand": "left"
    },
    {
      "midi": 57,
      "time": 8.333,
      "duration": 0.417,
      "velocity": 1,
      "hand": "left"
    },
    {
      "midi": 74,
      "time": 8.333,
      "duration": 0.417,
      "velocity": 1,
      "hand": "right"
    },
    {
      "midi": 78,
      "time": 8.333,
      "duration": 0.417,
      "velocity": 1,
      "hand": "right"
    },
    {
      "midi": 81,
      "time": 8.333,
      "duration": 0.833,
      "velocity": 1,
      "hand": "right"
    },
    {
      "midi": 62,
      "time": 8.75,
      "duration": 0.417,
      "velocity": 1,
      "hand": "right"
    },
    {
      "midi": 69,
      "time": 8.75,
      "duration": 0.417,
      "velocity": 1,
      "hand": "right"
    },
    {
      "midi": 50,
      "time": 9.167,
      "duration": 0.833,
      "velocity": 1,
      "hand": "left"
    },
    {
      "midi": 55,
      "time": 9.167,
      "duration": 0.833,
      "velocity": 1,
      "hand": "left"
    },
    {
      "midi": 58,
      "time": 9.167,
      "duration": 0.417,
      "velocity": 1,
      "hand": "left"
    },
    {
      "midi": 70,
      "time": 9.167,
      "duration": 0.417,
      "velocity": 1,
      "hand": "right"
    },
    {
      "midi": 74,
      "time": 9.167,
      "duration": 0.417,
      "velocity": 1,
      "hand": "right"
    },
    {
      "midi": 76,
      "time": 9.167,
      "duration": 0.833,
      "velocity": 1,
      "hand": "right"
    },
    {
      "midi": 62,
      "time": 9.583,
      "duration": 0.417,
      "velocity": 1,
      "hand": "right"
    },
    {
      "midi": 64,
      "time": 9.583,
      "duration": 0.417,
      "velocity": 1,
      "hand": "right"
    },
    {
      "midi": 60,
      "time": 10,
      "duration": 1.667,
      "velocity": 1,
      "hand": "right"
    },
    {
      "midi": 62,
      "time": 10,
      "duration": 1.667,
      "velocity": 1,
      "hand": "right"
    },
    {
      "midi": 66,
      "time": 10,
      "duration": 1.667,
      "velocity": 1,
      "hand": "right"
    },
    {
      "midi": 69,
      "time": 10,
      "duration": 1.667,
      "velocity": 1,
      "hand": "right"
    },
    {
      "midi": 74,
      "time": 10,
      "duration": 0.208,
      "velocity": 1,
      "hand": "right"
    },
    {
      "midi": 76,
      "time": 10.208,
      "duration": 0.208,
      "velocity": 1,
      "hand": "right"
    },
    {
      "midi": 74,
      "time": 10.417,
      "duration": 0.208,
      "velocity": 1,
      "hand": "right"
    },
    {
      "midi": 76,
      "time": 10.625,
      "duration": 0.208,
      "velocity": 1,
      "hand": "right"
    },
    {
      "midi": 78,
      "time": 10.833,
      "duration": 0.417,
      "velocity": 1,
      "hand": "right"
    },
    {
      "midi": 78,
      "time": 11.25,
      "duration": 0.417,
      "velocity": 1,
      "hand": "right"
    },
    {
      "midi": 58,
      "time": 11.667,
      "duration": 0.208,
      "velocity": 1,
      "hand": "left"
    },
    {
      "midi": 62,
      "time": 11.667,
      "duration": 0.208,
      "velocity": 1,
      "hand": "right"
    },
    {
      "midi": 74,
      "time": 11.667,
      "duration": 0.208,
      "velocity": 1,
      "hand": "right"
    },
    {
      "midi": 76,
      "time": 11.667,
      "duration": 0.208,
      "velocity": 1,
      "hand": "right"
    },
    {
      "midi": 78,
      "time": 11.875,
      "duration": 0.208,
      "velocity": 1,
      "hand": "right"
    },
    {
      "midi": 58,
      "time": 12.083,
      "duration": 0.208,
      "velocity": 1,
      "hand": "left"
    },
    {
      "midi": 79,
      "time": 12.083,
      "duration": 0.208,
      "velocity": 1,
      "hand": "right"
    },
    {
      "midi": 57,
      "time": 12.292,
      "duration": 0.208,
      "velocity": 1,
      "hand": "left"
    },
    {
      "midi": 81,
      "time": 12.292,
      "duration": 0.208,
      "velocity": 1,
      "hand": "right"
    },
    {
      "midi": 55,
      "time": 12.5,
      "duration": 0.417,
      "velocity": 1,
      "hand": "left"
    },
    {
      "midi": 82,
      "time": 12.5,
      "duration": 0.417,
      "velocity": 1,
      "hand": "right"
    },
    {
      "midi": 43,
      "time": 13.333,
      "duration": 0.833,
      "velocity": 1,
      "hand": "left"
    },
    {
      "midi": 51,
      "time": 13.333,
      "duration": 0.833,
      "velocity": 1,
      "hand": "left"
    },
    {
      "midi": 61,
      "time": 13.542,
      "duration": 0.208,
      "velocity": 1,
      "hand": "right"
    },
    {
      "midi": 63,
      "time": 13.542,
      "duration": 0.208,
      "velocity": 1,
      "hand": "right"
    },
    {
      "midi": 58,
      "time": 13.75,
      "duration": 0.417,
      "velocity": 1,
      "hand": "left"
    },
    {
      "midi": 61,
      "time": 13.958,
      "duration": 0.208,
      "velocity": 1,
      "hand": "right"
    },
    {
      "midi": 63,
      "time": 13.958,
      "duration": 0.208,
      "velocity": 1,
      "hand": "right"
    },
    {
      "midi": 56,
      "time": 14.167,
      "duration": 0.833,
      "velocity": 1,
      "hand": "left"
    },
    {
      "midi": 60,
      "time": 14.167,
      "duration": 0.417,
      "velocity": 1,
      "hand": "right"
    },
    {
      "midi": 51,
      "time": 14.583,
      "duration": 0.417,
      "velocity": 1,
      "hand": "left"
    },
    {
      "midi": 63,
      "time": 14.583,
      "duration": 0.417,
      "velocity": 1,
      "hand": "right"
    },
    {
      "midi": 72,
      "time": 14.583,
      "duration": 0.417,
      "velocity": 1,
      "hand": "right"
    },
    {
      "midi": 45,
      "time": 15,
      "duration": 0.833,
      "velocity": 1,
      "hand": "left"
    },
    {
      "midi": 53,
      "time": 15,
      "duration": 0.833,
      "velocity": 1,
      "hand": "left"
    },
    {
      "midi": 63,
      "time": 15.208,
      "duration": 0.208,
      "velocity": 1,
      "hand": "right"
    },
    {
      "midi": 65,
      "time": 15.208,
      "duration": 0.208,
      "velocity": 1,
      "hand": "right"
    },
    {
      "midi": 60,
      "time": 15.417,
      "duration": 0.417,
      "velocity": 1,
      "hand": "right"
    },
    {
      "midi": 63,
      "time": 15.625,
      "duration": 0.208,
      "velocity": 1,
      "hand": "right"
    },
    {
      "midi": 65,
      "time": 15.625,
      "duration": 0.208,
      "velocity": 1,
      "hand": "right"
    },
    {
      "midi": 58,
      "time": 15.833,
      "duration": 0.833,
      "velocity": 1,
      "hand": "left"
    },
    {
      "midi": 62,
      "time": 15.833,
      "duration": 0.833,
      "velocity": 1,
      "hand": "right"
    },
    {
      "midi": 46,
      "time": 16.25,
      "duration": 0.417,
      "velocity": 1,
      "hand": "left"
    },
    {
      "midi": 53,
      "time": 16.25,
      "duration": 0.417,
      "velocity": 1,
      "hand": "left"
    },
    {
      "midi": 65,
      "time": 16.25,
      "duration": 0.417,
      "velocity": 1,
      "hand": "right"
    },
    {
      "midi": 74,
      "time": 16.25,
      "duration": 0.417,
      "velocity": 1,
      "hand": "right"
    },
    {
      "midi": 47,
      "time": 16.667,
      "duration": 0.417,
      "velocity": 1,
      "hand": "left"
    },
    {
      "midi": 55,
      "time": 16.667,
      "duration": 0.833,
      "velocity": 1,
      "hand": "left"
    },
    {
      "midi": 62,
      "time": 16.667,
      "duration": 0.833,
      "velocity": 1,
      "hand": "right"
    },
    {
      "midi": 59,
      "time": 17.083,
      "duration": 0.417,
      "velocity": 1,
      "hand": "left"
    },
    {
      "midi": 65,
      "time": 17.083,
      "duration": 0.417,
      "velocity": 1,
      "hand": "right"
    },
    {
      "midi": 67,
      "time": 17.083,
      "duration": 0.417,
      "velocity": 1,
      "hand": "right"
    },
    {
      "midi": 74,
      "time": 17.083,
      "duration": 0.417,
      "velocity": 1,
      "hand": "right"
    },
    {
      "midi": 48,
      "time": 17.5,
      "duration": 0.417,
      "velocity": 1,
      "hand": "left"
    },
    {
      "midi": 55,
      "time": 17.5,
      "duration": 0.833,
      "velocity": 1,
      "hand": "left"
    },
    {
      "midi": 63,
      "time": 17.5,
      "duration": 0.833,
      "velocity": 1,
      "hand": "right"
    },
    {
      "midi": 60,
      "time": 17.917,
      "duration": 0.417,
      "velocity": 1,
      "hand": "right"
    },
    {
      "midi": 67,
      "time": 17.917,
      "duration": 0.417,
      "velocity": 1,
      "hand": "right"
    },
    {
      "midi": 75,
      "time": 17.917,
      "duration": 0.417,
      "velocity": 1,
      "hand": "right"
    },
    {
      "midi": 50,
      "time": 18.333,
      "duration": 0.417,
      "velocity": 1,
      "hand": "left"
    },
    {
      "midi": 55,
      "time": 18.333,
      "duration": 0.833,
      "velocity": 1,
      "hand": "left"
    },
    {
      "midi": 65,
      "time": 18.333,
      "duration": 0.833,
      "velocity": 1,
      "hand": "right"
    },
    {
      "midi": 62,
      "time": 18.75,
      "duration": 0.417,
      "velocity": 1,
      "hand": "right"
    },
    {
      "midi": 71,
      "time": 18.75,
      "duration": 0.417,
      "velocity": 1,
      "hand": "right"
    },
    {
      "midi": 79,
      "time": 18.75,
      "duration": 0.417,
      "velocity": 1,
      "hand": "right"
    },
    {
      "midi": 48,
      "time": 19.167,
      "duration": 0.417,
      "velocity": 1,
      "hand": "left"
    },
    {
      "midi": 55,
      "time": 19.167,
      "duration": 0.833,
      "velocity": 1,
      "hand": "left"
    },
    {
      "midi": 63,
      "time": 19.167,
      "duration": 0.833,
      "velocity": 1,
      "hand": "right"
    },
    {
      "midi": 60,
      "time": 19.583,
      "duration": 0.417,
      "velocity": 1,
      "hand": "right"
    },
    {
      "midi": 67,
      "time": 19.583,
      "duration": 0.417,
      "velocity": 1,
      "hand": "right"
    },
    {
      "midi": 75,
      "time": 19.583,
      "duration": 0.417,
      "velocity": 1,
      "hand": "right"
    },
    {
      "midi": 47,
      "time": 20,
      "duration": 0.833,
      "velocity": 1,
      "hand": "left"
    },
    {
      "midi": 55,
      "time": 20,
      "duration": 0.833,
      "velocity": 1,
      "hand": "left"
    },
    {
      "midi": 65,
      "time": 20.208,
      "duration": 0.208,
      "velocity": 1,
      "hand": "right"
    },
    {
      "midi": 67,
      "time": 20.208,
      "duration": 0.208,
      "velocity": 1,
      "hand": "right"
    },
    {
      "midi": 62,
      "time": 20.417,
      "duration": 0.417,
      "velocity": 1,
      "hand": "right"
    },
    {
      "midi": 65,
      "time": 20.625,
      "duration": 0.208,
      "velocity": 1,
      "hand": "right"
    },
    {
      "midi": 67,
      "time": 20.625,
      "duration": 0.208,
      "velocity": 1,
      "hand": "right"
    },
    {
      "midi": 60,
      "time": 20.833,
      "duration": 0.833,
      "velocity": 1,
      "hand": "right"
    },
    {
      "midi": 64,
      "time": 20.833,
      "duration": 0.833,
      "velocity": 1,
      "hand": "right"
    },
    {
      "midi": 48,
      "time": 21.25,
      "duration": 0.417,
      "velocity": 1,
      "hand": "left"
    },
    {
      "midi": 55,
      "time": 21.25,
      "duration": 0.417,
      "velocity": 1,
      "hand": "left"
    },
    {
      "midi": 67,
      "time": 21.25,
      "duration": 0.417,
      "velocity": 1,
      "hand": "right"
    },
    {
      "midi": 76,
      "time": 21.25,
      "duration": 0.417,
      "velocity": 1,
      "hand": "right"
    },
    {
      "midi": 49,
      "time": 21.667,
      "duration": 0.833,
      "velocity": 1,
      "hand": "left"
    },
    {
      "midi": 57,
      "time": 21.667,
      "duration": 0.417,
      "velocity": 1,
      "hand": "left"
    },
    {
      "midi": 67,
      "time": 21.875,
      "duration": 0.208,
      "velocity": 1,
      "hand": "right"
    },
    {
      "midi": 69,
      "time": 21.875,
      "duration": 0.208,
      "velocity": 1,
      "hand": "right"
    },
    {
      "midi": 64,
      "time": 22.083,
      "duration": 0.417,
      "velocity": 1,
      "hand": "right"
    },
    {
      "midi": 67,
      "time": 22.292,
      "duration": 0.208,
      "velocity": 1,
      "hand": "right"
    },
    {
      "midi": 69,
      "time": 22.292,
      "duration": 0.208,
      "velocity": 1,
      "hand": "right"
    },
    {
      "midi": 62,
      "time": 22.5,
      "duration": 0.833,
      "velocity": 1,
      "hand": "right"
    },
    {
      "midi": 65,
      "time": 22.5,
      "duration": 0.833,
      "velocity": 1,
      "hand": "right"
    },
    {
      "midi": 50,
      "time": 22.917,
      "duration": 0.417,
      "velocity": 1,
      "hand": "left"
    },
    {
      "midi": 57,
      "time": 22.917,
      "duration": 0.417,
      "velocity": 1,
      "hand": "left"
    },
    {
      "midi": 69,
      "time": 22.917,
      "duration": 0.417,
      "velocity": 1,
      "hand": "right"
    },
    {
      "midi": 77,
      "time": 22.917,
      "duration": 0.417,
      "velocity": 1,
      "hand": "right"
    },
    {
      "midi": 49,
      "time": 23.333,
      "duration": 0.833,
      "velocity": 1,
      "hand": "left"
    },
    {
      "midi": 57,
      "time": 23.333,
      "duration": 0.833,
      "velocity": 1,
      "hand": "left"
    },
    {
      "midi": 64,
      "time": 23.333,
      "duration": 0.833,
      "velocity": 1,
      "hand": "right"
    },
    {
      "midi": 61,
      "time": 23.75,
      "duration": 0.417,
      "velocity": 1,
      "hand": "right"
    },
    {
      "midi": 67,
      "time": 23.75,
      "duration": 0.417,
      "velocity": 1,
      "hand": "right"
    },
    {
      "midi": 69,
      "time": 23.75,
      "duration": 0.417,
      "velocity": 1,
      "hand": "right"
    },
    {
      "midi": 76,
      "time": 23.75,
      "duration": 0.417,
      "velocity": 1,
      "hand": "right"
    },
    {
      "midi": 50,
      "time": 24.167,
      "duration": 0.417,
      "velocity": 1,
      "hand": "left"
    },
    {
      "midi": 57,
      "time": 24.167,
      "duration": 0.833,
      "velocity": 1,
      "hand": "left"
    },
    {
      "midi": 65,
      "time": 24.167,
      "duration": 0.833,
      "velocity": 1,
      "hand": "right"
    },
    {
      "midi": 62,
      "time": 24.583,
      "duration": 0.417,
      "velocity": 1,
      "hand": "right"
    },
    {
      "midi": 69,
      "time": 24.583,
      "duration": 0.417,
      "velocity": 1,
      "hand": "right"
    },
    {
      "midi": 77,
      "time": 24.583,
      "duration": 0.417,
      "velocity": 1,
      "hand": "right"
    },
    {
      "midi": 52,
      "time": 25,
      "duration": 0.417,
      "velocity": 1,
      "hand": "left"
    },
    {
      "midi": 57,
      "time": 25,
      "duration": 0.833,
      "velocity": 1,
      "hand": "left"
    },
    {
      "midi": 67,
      "time": 25,
      "duration": 0.833,
      "velocity": 1,
      "hand": "right"
    },
    {
      "midi": 64,
      "time": 25.417,
      "duration": 0.417,
      "velocity": 1,
      "hand": "right"
    },
    {
      "midi": 73,
      "time": 25.417,
      "duration": 0.417,
      "velocity": 1,
      "hand": "right"
    },
    {
      "midi": 81,
      "time": 25.417,
      "duration": 0.417,
      "velocity": 1,
      "hand": "right"
    },
    {
      "midi": 50,
      "time": 25.833,
      "duration": 0.417,
      "velocity": 1,
      "hand": "left"
    },
    {
      "midi": 57,
      "time": 25.833,
      "duration": 0.833,
      "velocity": 1,
      "hand": "left"
    },
    {
      "midi": 65,
      "time": 25.833,
      "duration": 0.833,
      "velocity": 1,
      "hand": "right"
    },
    {
      "midi": 62,
      "time": 26.25,
      "duration": 0.417,
      "velocity": 1,
      "hand": "right"
    },
    {
      "midi": 69,
      "time": 26.25,
      "duration": 0.417,
      "velocity": 1,
      "hand": "right"
    },
    {
      "midi": 77,
      "time": 26.25,
      "duration": 0.417,
      "velocity": 1,
      "hand": "right"
    },
    {
      "midi": 49,
      "time": 26.667,
      "duration": 0.417,
      "velocity": 1,
      "hand": "left"
    },
    {
      "midi": 57,
      "time": 26.667,
      "duration": 0.833,
      "velocity": 1,
      "hand": "left"
    },
    {
      "midi": 64,
      "time": 26.667,
      "duration": 0.833,
      "velocity": 1,
      "hand": "right"
    },
    {
      "midi": 61,
      "time": 27.083,
      "duration": 0.417,
      "velocity": 1,
      "hand": "right"
    },
    {
      "midi": 67,
      "time": 27.083,
      "duration": 0.417,
      "velocity": 1,
      "hand": "right"
    },
    {
      "midi": 69,
      "time": 27.083,
      "duration": 0.417,
      "velocity": 1,
      "hand": "right"
    },
    {
      "midi": 76,
      "time": 27.083,
      "duration": 0.417,
      "velocity": 1,
      "hand": "right"
    },
    {
      "midi": 50,
      "time": 27.5,
      "duration": 0.417,
      "velocity": 1,
      "hand": "left"
    },
    {
      "midi": 57,
      "time": 27.5,
      "duration": 0.833,
      "velocity": 1,
      "hand": "left"
    },
    {
      "midi": 65,
      "time": 27.5,
      "duration": 0.833,
      "velocity": 1,
      "hand": "right"
    },
    {
      "midi": 62,
      "time": 27.917,
      "duration": 0.417,
      "velocity": 1,
      "hand": "right"
    },
    {
      "midi": 69,
      "time": 27.917,
      "duration": 0.417,
      "velocity": 1,
      "hand": "right"
    },
    {
      "midi": 77,
      "time": 27.917,
      "duration": 0.417,
      "velocity": 1,
      "hand": "right"
    },
    {
      "midi": 51,
      "time": 28.333,
      "duration": 0.417,
      "velocity": 1,
      "hand": "left"
    },
    {
      "midi": 59,
      "time": 28.333,
      "duration": 0.833,
      "velocity": 1,
      "hand": "left"
    },
    {
      "midi": 69,
      "time": 28.333,
      "duration": 0.833,
      "velocity": 1,
      "hand": "right"
    },
    {
      "midi": 63,
      "time": 28.75,
      "duration": 0.417,
      "velocity": 1,
      "hand": "right"
    },
    {
      "midi": 78,
      "time": 28.75,
      "duration": 0.417,
      "velocity": 1,
      "hand": "right"
    },
    {
      "midi": 83,
      "time": 28.75,
      "duration": 0.417,
      "velocity": 1,
      "hand": "right"
    },
    {
      "midi": 52,
      "time": 29.167,
      "duration": 0.417,
      "velocity": 1,
      "hand": "left"
    },
    {
      "midi": 59,
      "time": 29.167,
      "duration": 0.833,
      "velocity": 1,
      "hand": "left"
    },
    {
      "midi": 67,
      "time": 29.167,
      "duration": 0.833,
      "velocity": 1,
      "hand": "right"
    },
    {
      "midi": 64,
      "time": 29.583,
      "duration": 0.417,
      "velocity": 1,
      "hand": "right"
    },
    {
      "midi": 71,
      "time": 29.583,
      "duration": 0.417,
      "velocity": 1,
      "hand": "right"
    },
    {
      "midi": 79,
      "time": 29.583,
      "duration": 0.417,
      "velocity": 1,
      "hand": "right"
    },
    {
      "midi": 51,
      "time": 30,
      "duration": 0.417,
      "velocity": 1,
      "hand": "left"
    },
    {
      "midi": 59,
      "time": 30,
      "duration": 0.833,
      "velocity": 1,
      "hand": "left"
    },
    {
      "midi": 66,
      "time": 30,
      "duration": 0.833,
      "velocity": 1,
      "hand": "right"
    },
    {
      "midi": 63,
      "time": 30.417,
      "duration": 0.417,
      "velocity": 1,
      "hand": "right"
    },
    {
      "midi": 69,
      "time": 30.417,
      "duration": 0.417,
      "velocity": 1,
      "hand": "right"
    },
    {
      "midi": 71,
      "time": 30.417,
      "duration": 0.417,
      "velocity": 1,
      "hand": "right"
    },
    {
      "midi": 78,
      "time": 30.417,
      "duration": 0.417,
      "velocity": 1,
      "hand": "right"
    },
    {
      "midi": 52,
      "time": 30.833,
      "duration": 0.417,
      "velocity": 1,
      "hand": "left"
    },
    {
      "midi": 59,
      "time": 30.833,
      "duration": 0.833,
      "velocity": 1,
      "hand": "left"
    },
    {
      "midi": 67,
      "time": 30.833,
      "duration": 0.833,
      "velocity": 1,
      "hand": "right"
    },
    {
      "midi": 64,
      "time": 31.25,
      "duration": 0.417,
      "velocity": 1,
      "hand": "right"
    },
    {
      "midi": 71,
      "time": 31.25,
      "duration": 0.417,
      "velocity": 1,
      "hand": "right"
    },
    {
      "midi": 79,
      "time": 31.25,
      "duration": 0.417,
      "velocity": 1,
      "hand": "right"
    },
    {
      "midi": 53,
      "time": 31.667,
      "duration": 0.417,
      "velocity": 1,
      "hand": "left"
    },
    {
      "midi": 61,
      "time": 31.667,
      "duration": 0.833,
      "velocity": 1,
      "hand": "right"
    },
    {
      "midi": 71,
      "time": 31.667,
      "duration": 0.833,
      "velocity": 1,
      "hand": "right"
    },
    {
      "midi": 65,
      "time": 32.083,
      "duration": 0.417,
      "velocity": 1,
      "hand": "right"
    },
    {
      "midi": 80,
      "time": 32.083,
      "duration": 0.417,
      "velocity": 1,
      "hand": "right"
    },
    {
      "midi": 85,
      "time": 32.083,
      "duration": 0.417,
      "velocity": 1,
      "hand": "right"
    },
    {
      "midi": 54,
      "time": 32.5,
      "duration": 0.417,
      "velocity": 1,
      "hand": "left"
    },
    {
      "midi": 61,
      "time": 32.5,
      "duration": 0.833,
      "velocity": 1,
      "hand": "right"
    },
    {
      "midi": 69,
      "time": 32.5,
      "duration": 0.833,
      "velocity": 1,
      "hand": "right"
    },
    {
      "midi": 66,
      "time": 32.917,
      "duration": 0.417,
      "velocity": 1,
      "hand": "right"
    },
    {
      "midi": 73,
      "time": 32.917,
      "duration": 0.417,
      "velocity": 1,
      "hand": "right"
    },
    {
      "midi": 81,
      "time": 32.917,
      "duration": 0.417,
      "velocity": 1,
      "hand": "right"
    },
    {
      "midi": 54,
      "time": 33.333,
      "duration": 0.417,
      "velocity": 1,
      "hand": "left"
    },
    {
      "midi": 62,
      "time": 33.333,
      "duration": 0.833,
      "velocity": 1,
      "hand": "right"
    },
    {
      "midi": 72,
      "time": 33.333,
      "duration": 0.833,
      "velocity": 1,
      "hand": "right"
    },
    {
      "midi": 66,
      "time": 33.75,
      "duration": 0.417,
      "velocity": 1,
      "hand": "right"
    },
    {
      "midi": 81,
      "time": 33.75,
      "duration": 0.417,
      "velocity": 1,
      "hand": "right"
    },
    {
      "midi": 86,
      "time": 33.75,
      "duration": 0.417,
      "velocity": 1,
      "hand": "right"
    },
    {
      "midi": 55,
      "time": 34.167,
      "duration": 0.417,
      "velocity": 1,
      "hand": "left"
    },
    {
      "midi": 62,
      "time": 34.167,
      "duration": 0.833,
      "velocity": 1,
      "hand": "right"
    },
    {
      "midi": 71,
      "time": 34.167,
      "duration": 0.833,
      "velocity": 1,
      "hand": "right"
    },
    {
      "midi": 67,
      "time": 34.583,
      "duration": 0.417,
      "velocity": 1,
      "hand": "right"
    },
    {
      "midi": 74,
      "time": 34.583,
      "duration": 0.417,
      "velocity": 1,
      "hand": "right"
    },
    {
      "midi": 83,
      "time": 34.583,
      "duration": 0.417,
      "velocity": 1,
      "hand": "right"
    },
    {
      "midi": 54,
      "time": 35,
      "duration": 0.417,
      "velocity": 1,
      "hand": "left"
    },
    {
      "midi": 62,
      "time": 35,
      "duration": 0.833,
      "velocity": 1,
      "hand": "right"
    },
    {
      "midi": 72,
      "time": 35,
      "duration": 0.833,
      "velocity": 1,
      "hand": "right"
    },
    {
      "midi": 66,
      "time": 35.417,
      "duration": 0.417,
      "velocity": 1,
      "hand": "right"
    },
    {
      "midi": 81,
      "time": 35.417,
      "duration": 0.417,
      "velocity": 1,
      "hand": "right"
    },
    {
      "midi": 86,
      "time": 35.417,
      "duration": 0.417,
      "velocity": 1,
      "hand": "right"
    },
    {
      "midi": 55,
      "time": 35.833,
      "duration": 0.417,
      "velocity": 1,
      "hand": "left"
    },
    {
      "midi": 62,
      "time": 35.833,
      "duration": 0.833,
      "velocity": 1,
      "hand": "right"
    },
    {
      "midi": 71,
      "time": 35.833,
      "duration": 0.833,
      "velocity": 1,
      "hand": "right"
    },
    {
      "midi": 67,
      "time": 36.25,
      "duration": 0.417,
      "velocity": 1,
      "hand": "right"
    },
    {
      "midi": 74,
      "time": 36.25,
      "duration": 0.417,
      "velocity": 1,
      "hand": "right"
    },
    {
      "midi": 83,
      "time": 36.25,
      "duration": 0.417,
      "velocity": 1,
      "hand": "right"
    },
    {
      "midi": 67,
      "time": 36.667,
      "duration": 0.417,
      "velocity": 1,
      "hand": "right"
    },
    {
      "midi": 70,
      "time": 36.667,
      "duration": 0.417,
      "velocity": 1,
      "hand": "right"
    },
    {
      "midi": 74,
      "time": 36.667,
      "duration": 0.417,
      "velocity": 1,
      "hand": "right"
    },
    {
      "midi": 88,
      "time": 36.667,
      "duration": 0.208,
      "velocity": 1,
      "hand": "right"
    },
    {
      "midi": 86,
      "time": 36.875,
      "duration": 0.208,
      "velocity": 1,
      "hand": "right"
    },
    {
      "midi": 82,
      "time": 37.083,
      "duration": 0.208,
      "velocity": 1,
      "hand": "right"
    },
    {
      "midi": 81,
      "time": 37.292,
      "duration": 0.208,
      "velocity": 1,
      "hand": "right"
    },
    {
      "midi": 76,
      "time": 37.5,
      "duration": 0.208,
      "velocity": 1,
      "hand": "right"
    },
    {
      "midi": 79,
      "time": 37.5,
      "duration": 0.417,
      "velocity": 1,
      "hand": "right"
    },
    {
      "midi": 74,
      "time": 37.708,
      "duration": 0.208,
      "velocity": 1,
      "hand": "right"
    },
    {
      "midi": 70,
      "time": 37.917,
      "duration": 0.208,
      "velocity": 1,
      "hand": "right"
    },
    {
      "midi": 69,
      "time": 38.125,
      "duration": 0.208,
      "velocity": 1,
      "hand": "right"
    },
    {
      "midi": 64,
      "time": 38.333,
      "duration": 0.208,
      "velocity": 1,
      "hand": "right"
    },
    {
      "midi": 67,
      "time": 38.333,
      "duration": 0.417,
      "velocity": 1,
      "hand": "right"
    },
    {
      "midi": 62,
      "time": 38.542,
      "duration": 0.208,
      "velocity": 1,
      "hand": "right"
    },
    {
      "midi": 58,
      "time": 38.75,
      "duration": 0.208,
      "velocity": 1,
      "hand": "left"
    },
    {
      "midi": 57,
      "time": 38.958,
      "duration": 0.208,
      "velocity": 1,
      "hand": "left"
    },
    {
      "midi": 52,
      "time": 39.167,
      "duration": 0.208,
      "velocity": 1,
      "hand": "left"
    },
    {
      "midi": 55,
      "time": 39.167,
      "duration": 0.417,
      "velocity": 1,
      "hand": "left"
    },
    {
      "midi": 50,
      "time": 39.375,
      "duration": 0.208,
      "velocity": 1,
      "hand": "left"
    },
    {
      "midi": 46,
      "time": 39.583,
      "duration": 0.208,
      "velocity": 1,
      "hand": "left"
    },
    {
      "midi": 45,
      "time": 39.792,
      "duration": 0.208,
      "velocity": 1,
      "hand": "left"
    },
    {
      "midi": 43,
      "time": 40,
      "duration": 0.417,
      "velocity": 1,
      "hand": "left"
    },
    {
      "midi": 43,
      "time": 40.417,
      "duration": 0.417,
      "velocity": 1,
      "hand": "left"
    },
    {
      "midi": 44,
      "time": 40.833,
      "duration": 0.208,
      "velocity": 1,
      "hand": "left"
    },
    {
      "midi": 62,
      "time": 40.833,
      "duration": 1.25,
      "velocity": 1,
      "hand": "right"
    },
    {
      "midi": 64,
      "time": 40.833,
      "duration": 1.25,
      "velocity": 1,
      "hand": "right"
    },
    {
      "midi": 45,
      "time": 41.042,
      "duration": 0.208,
      "velocity": 1,
      "hand": "left"
    },
    {
      "midi": 46,
      "time": 41.25,
      "duration": 0.208,
      "velocity": 1,
      "hand": "left"
    },
    {
      "midi": 44,
      "time": 41.458,
      "duration": 0.208,
      "velocity": 1,
      "hand": "left"
    },
    {
      "midi": 45,
      "time": 41.667,
      "duration": 0.417,
      "velocity": 1,
      "hand": "left"
    },
    {
      "midi": 45,
      "time": 42.083,
      "duration": 0.417,
      "velocity": 1,
      "hand": "left"
    },
    {
      "midi": 55,
      "time": 42.083,
      "duration": 0.417,
      "velocity": 1,
      "hand": "left"
    },
    {
      "midi": 61,
      "time": 42.083,
      "duration": 0.417,
      "velocity": 1,
      "hand": "right"
    },
    {
      "midi": 64,
      "time": 42.083,
      "duration": 0.417,
      "velocity": 1,
      "hand": "right"
    },
    {
      "midi": 69,
      "time": 42.083,
      "duration": 0.417,
      "velocity": 1,
      "hand": "right"
    },
    {
      "midi": 50,
      "time": 42.5,
      "duration": 0.417,
      "velocity": 1,
      "hand": "left"
    },
    {
      "midi": 54,
      "time": 42.5,
      "duration": 0.417,
      "velocity": 1,
      "hand": "left"
    },
    {
      "midi": 62,
      "time": 42.5,
      "duration": 0.417,
      "velocity": 1,
      "hand": "right"
    },
    {
      "midi": 69,
      "time": 42.5,
      "duration": 0.417,
      "velocity": 1,
      "hand": "right"
    },
    {
      "midi": 74,
      "time": 42.5,
      "duration": 0.417,
      "velocity": 1,
      "hand": "right"
    },
    {
      "midi": 78,
      "time": 43.333,
      "duration": 0.208,
      "velocity": 1,
      "hand": "right"
    },
    {
      "midi": 76,
      "time": 43.542,
      "duration": 0.208,
      "velocity": 1,
      "hand": "right"
    },
    {
      "midi": 74,
      "time": 43.75,
      "duration": 0.208,
      "velocity": 1,
      "hand": "right"
    },
    {
      "midi": 73,
      "time": 43.958,
      "duration": 0.208,
      "velocity": 1,
      "hand": "right"
    },
    {
      "midi": 59,
      "time": 44.167,
      "duration": 0.417,
      "velocity": 1,
      "hand": "left"
    },
    {
      "midi": 62,
      "time": 44.167,
      "duration": 0.417,
      "velocity": 1,
      "hand": "right"
    },
    {
      "midi": 66,
      "time": 44.167,
      "duration": 0.417,
      "velocity": 1,
      "hand": "right"
    },
    {
      "midi": 71,
      "time": 44.167,
      "duration": 0.417,
      "velocity": 1,
      "hand": "right"
    },
    {
      "midi": 73,
      "time": 44.583,
      "duration": 0.417,
      "velocity": 1,
      "hand": "right"
    },
    {
      "midi": 54,
      "time": 45,
      "duration": 0.208,
      "velocity": 1,
      "hand": "left"
    },
    {
      "midi": 61,
      "time": 45,
      "duration": 0.833,
      "velocity": 1,
      "hand": "right"
    },
    {
      "midi": 52,
      "time": 45.208,
      "duration": 0.208,
      "velocity": 1,
      "hand": "left"
    },
    {
      "midi": 50,
      "time": 45.417,
      "duration": 0.208,
      "velocity": 1,
      "hand": "left"
    },
    {
      "midi": 66,
      "time": 45.417,
      "duration": 0.417,
      "velocity": 1,
      "hand": "right"
    },
    {
      "midi": 70,
      "time": 45.417,
      "duration": 0.417,
      "velocity": 1,
      "hand": "right"
    },
    {
      "midi": 49,
      "time": 45.625,
      "duration": 0.208,
      "velocity": 1,
      "hand": "left"
    },
    {
      "midi": 47,
      "time": 45.833,
      "duration": 0.417,
      "velocity": 1,
      "hand": "left"
    },
    {
      "midi": 62,
      "time": 45.833,
      "duration": 0.833,
      "velocity": 1,
      "hand": "right"
    },
    {
      "midi": 66,
      "time": 46.25,
      "duration": 0.417,
      "velocity": 1,
      "hand": "right"
    },
    {
      "midi": 71,
      "time": 46.25,
      "duration": 0.417,
      "velocity": 1,
      "hand": "right"
    },
    {
      "midi": 55,
      "time": 46.667,
      "duration": 0.417,
      "velocity": 1,
      "hand": "left"
    },
    {
      "midi": 59,
      "time": 46.667,
      "duration": 0.833,
      "velocity": 1,
      "hand": "left"
    },
    {
      "midi": 61,
      "time": 46.667,
      "duration": 0.833,
      "velocity": 1,
      "hand": "right"
    },
    {
      "midi": 73,
      "time": 46.875,
      "duration": 0.208,
      "velocity": 1,
      "hand": "right"
    },
    {
      "midi": 47,
      "time": 47.083,
      "duration": 0.417,
      "velocity": 1,
      "hand": "left"
    },
    {
      "midi": 67,
      "time": 47.083,
      "duration": 0.208,
      "velocity": 1,
      "hand": "right"
    },
    {
      "midi": 71,
      "time": 47.292,
      "duration": 0.208,
      "velocity": 1,
      "hand": "right"
    },
    {
      "midi": 54,
      "time": 47.5,
      "duration": 0.417,
      "velocity": 1,
      "hand": "left"
    },
    {
      "midi": 59,
      "time": 47.5,
      "duration": 0.833,
      "velocity": 1,
      "hand": "left"
    },
    {
      "midi": 62,
      "time": 47.5,
      "duration": 0.833,
      "velocity": 1,
      "hand": "right"
    },
    {
      "midi": 74,
      "time": 47.708,
      "duration": 0.208,
      "velocity": 1,
      "hand": "right"
    },
    {
      "midi": 47,
      "time": 47.917,
      "duration": 0.417,
      "velocity": 1,
      "hand": "left"
    },
    {
      "midi": 66,
      "time": 47.917,
      "duration": 0.208,
      "velocity": 1,
      "hand": "right"
    },
    {
      "midi": 71,
      "time": 48.125,
      "duration": 0.208,
      "velocity": 1,
      "hand": "right"
    },
    {
      "midi": 52,
      "time": 48.333,
      "duration": 0.417,
      "velocity": 1,
      "hand": "left"
    },
    {
      "midi": 55,
      "time": 48.333,
      "duration": 0.417,
      "velocity": 1,
      "hand": "left"
    },
    {
      "midi": 59,
      "time": 48.333,
      "duration": 0.833,
      "velocity": 1,
      "hand": "left"
    },
    {
      "midi": 67,
      "time": 48.333,
      "duration": 0.833,
      "velocity": 1,
      "hand": "right"
    },
    {
      "midi": 79,
      "time": 48.542,
      "duration": 0.208,
      "velocity": 1,
      "hand": "right"
    },
    {
      "midi": 47,
      "time": 48.75,
      "duration": 0.417,
      "velocity": 1,
      "hand": "left"
    },
    {
      "midi": 71,
      "time": 48.75,
      "duration": 0.208,
      "velocity": 1,
      "hand": "right"
    },
    {
      "midi": 76,
      "time": 48.958,
      "duration": 0.208,
      "velocity": 1,
      "hand": "right"
    },
    {
      "midi": 50,
      "time": 49.167,
      "duration": 0.417,
      "velocity": 1,
      "hand": "left"
    },
    {
      "midi": 54,
      "time": 49.167,
      "duration": 0.417,
      "velocity": 1,
      "hand": "left"
    },
    {
      "midi": 59,
      "time": 49.167,
      "duration": 0.833,
      "velocity": 1,
      "hand": "left"
    },
    {
      "midi": 66,
      "time": 49.167,
      "duration": 0.833,
      "velocity": 1,
      "hand": "right"
    },
    {
      "midi": 78,
      "time": 49.375,
      "duration": 0.208,
      "velocity": 1,
      "hand": "right"
    },
    {
      "midi": 47,
      "time": 49.583,
      "duration": 0.417,
      "velocity": 1,
      "hand": "left"
    },
    {
      "midi": 71,
      "time": 49.583,
      "duration": 0.208,
      "velocity": 1,
      "hand": "right"
    },
    {
      "midi": 74,
      "time": 49.792,
      "duration": 0.208,
      "velocity": 1,
      "hand": "right"
    },
    {
      "midi": 78,
      "time": 50,
      "duration": 0.208,
      "velocity": 1,
      "hand": "right"
    },
    {
      "midi": 76,
      "time": 50.208,
      "duration": 0.208,
      "velocity": 1,
      "hand": "right"
    },
    {
      "midi": 74,
      "time": 50.417,
      "duration": 0.208,
      "velocity": 1,
      "hand": "right"
    },
    {
      "midi": 73,
      "time": 50.625,
      "duration": 0.208,
      "velocity": 1,
      "hand": "right"
    },
    {
      "midi": 59,
      "time": 50.833,
      "duration": 0.417,
      "velocity": 1,
      "hand": "left"
    },
    {
      "midi": 62,
      "time": 50.833,
      "duration": 0.417,
      "velocity": 1,
      "hand": "right"
    },
    {
      "midi": 66,
      "time": 50.833,
      "duration": 0.417,
      "velocity": 1,
      "hand": "right"
    },
    {
      "midi": 71,
      "time": 50.833,
      "duration": 0.417,
      "velocity": 1,
      "hand": "right"
    },
    {
      "midi": 73,
      "time": 51.25,
      "duration": 0.417,
      "velocity": 1,
      "hand": "right"
    },
    {
      "midi": 54,
      "time": 51.667,
      "duration": 0.208,
      "velocity": 1,
      "hand": "left"
    },
    {
      "midi": 61,
      "time": 51.667,
      "duration": 0.833,
      "velocity": 1,
      "hand": "right"
    },
    {
      "midi": 52,
      "time": 51.875,
      "duration": 0.208,
      "velocity": 1,
      "hand": "left"
    },
    {
      "midi": 50,
      "time": 52.083,
      "duration": 0.208,
      "velocity": 1,
      "hand": "left"
    },
    {
      "midi": 66,
      "time": 52.083,
      "duration": 0.417,
      "velocity": 1,
      "hand": "right"
    },
    {
      "midi": 70,
      "time": 52.083,
      "duration": 0.417,
      "velocity": 1,
      "hand": "right"
    },
    {
      "midi": 49,
      "time": 52.292,
      "duration": 0.208,
      "velocity": 1,
      "hand": "left"
    },
    {
      "midi": 47,
      "time": 52.5,
      "duration": 0.417,
      "velocity": 1,
      "hand": "left"
    },
    {
      "midi": 62,
      "time": 52.5,
      "duration": 0.833,
      "velocity": 1,
      "hand": "right"
    },
    {
      "midi": 66,
      "time": 52.917,
      "duration": 0.417,
      "velocity": 1,
      "hand": "right"
    },
    {
      "midi": 71,
      "time": 52.917,
      "duration": 0.417,
      "velocity": 1,
      "hand": "right"
    },
    {
      "midi": 55,
      "time": 53.333,
      "duration": 0.417,
      "velocity": 1,
      "hand": "left"
    },
    {
      "midi": 59,
      "time": 53.333,
      "duration": 0.833,
      "velocity": 1,
      "hand": "left"
    },
    {
      "midi": 61,
      "time": 53.333,
      "duration": 0.833,
      "velocity": 1,
      "hand": "right"
    },
    {
      "midi": 73,
      "time": 53.542,
      "duration": 0.208,
      "velocity": 1,
      "hand": "right"
    },
    {
      "midi": 47,
      "time": 53.75,
      "duration": 0.417,
      "velocity": 1,
      "hand": "left"
    },
    {
      "midi": 67,
      "time": 53.75,
      "duration": 0.208,
      "velocity": 1,
      "hand": "right"
    },
    {
      "midi": 71,
      "time": 53.958,
      "duration": 0.208,
      "velocity": 1,
      "hand": "right"
    },
    {
      "midi": 54,
      "time": 54.167,
      "duration": 0.417,
      "velocity": 1,
      "hand": "left"
    },
    {
      "midi": 59,
      "time": 54.167,
      "duration": 0.833,
      "velocity": 1,
      "hand": "left"
    },
    {
      "midi": 62,
      "time": 54.167,
      "duration": 0.833,
      "velocity": 1,
      "hand": "right"
    },
    {
      "midi": 74,
      "time": 54.375,
      "duration": 0.208,
      "velocity": 1,
      "hand": "right"
    },
    {
      "midi": 47,
      "time": 54.583,
      "duration": 0.417,
      "velocity": 1,
      "hand": "left"
    },
    {
      "midi": 66,
      "time": 54.583,
      "duration": 0.208,
      "velocity": 1,
      "hand": "right"
    },
    {
      "midi": 71,
      "time": 54.792,
      "duration": 0.208,
      "velocity": 1,
      "hand": "right"
    },
    {
      "midi": 52,
      "time": 55,
      "duration": 0.417,
      "velocity": 1,
      "hand": "left"
    },
    {
      "midi": 55,
      "time": 55,
      "duration": 0.417,
      "velocity": 1,
      "hand": "left"
    },
    {
      "midi": 59,
      "time": 55,
      "duration": 0.833,
      "velocity": 1,
      "hand": "left"
    },
    {
      "midi": 67,
      "time": 55,
      "duration": 0.833,
      "velocity": 1,
      "hand": "right"
    },
    {
      "midi": 79,
      "time": 55.208,
      "duration": 0.208,
      "velocity": 1,
      "hand": "right"
    },
    {
      "midi": 47,
      "time": 55.417,
      "duration": 0.417,
      "velocity": 1,
      "hand": "left"
    },
    {
      "midi": 71,
      "time": 55.417,
      "duration": 0.208,
      "velocity": 1,
      "hand": "right"
    },
    {
      "midi": 76,
      "time": 55.625,
      "duration": 0.208,
      "velocity": 1,
      "hand": "right"
    },
    {
      "midi": 50,
      "time": 55.833,
      "duration": 0.417,
      "velocity": 1,
      "hand": "left"
    },
    {
      "midi": 54,
      "time": 55.833,
      "duration": 0.417,
      "velocity": 1,
      "hand": "left"
    },
    {
      "midi": 59,
      "time": 55.833,
      "duration": 0.833,
      "velocity": 1,
      "hand": "left"
    },
    {
      "midi": 66,
      "time": 55.833,
      "duration": 0.833,
      "velocity": 1,
      "hand": "right"
    },
    {
      "midi": 78,
      "time": 56.042,
      "duration": 0.208,
      "velocity": 1,
      "hand": "right"
    },
    {
      "midi": 47,
      "time": 56.25,
      "duration": 0.417,
      "velocity": 1,
      "hand": "left"
    },
    {
      "midi": 71,
      "time": 56.25,
      "duration": 0.208,
      "velocity": 1,
      "hand": "right"
    },
    {
      "midi": 74,
      "time": 56.458,
      "duration": 0.208,
      "velocity": 1,
      "hand": "right"
    },
    {
      "midi": 47,
      "time": 56.667,
      "duration": 0.208,
      "velocity": 1,
      "hand": "left"
    },
    {
      "midi": 49,
      "time": 56.875,
      "duration": 0.208,
      "velocity": 1,
      "hand": "left"
    },
    {
      "midi": 50,
      "time": 57.083,
      "duration": 0.208,
      "velocity": 1,
      "hand": "left"
    },
    {
      "midi": 59,
      "time": 57.083,
      "duration": 0.833,
      "velocity": 1,
      "hand": "left"
    },
    {
      "midi": 62,
      "time": 57.083,
      "duration": 0.833,
      "velocity": 1,
      "hand": "right"
    },
    {
      "midi": 52,
      "time": 57.292,
      "duration": 0.208,
      "velocity": 1,
      "hand": "left"
    },
    {
      "midi": 53,
      "time": 57.5,
      "duration": 0.417,
      "velocity": 1,
      "hand": "left"
    },
    {
      "midi": 54,
      "time": 57.917,
      "duration": 0.417,
      "velocity": 1,
      "hand": "left"
    },
    {
      "midi": 59,
      "time": 57.917,
      "duration": 0.833,
      "velocity": 1,
      "hand": "left"
    },
    {
      "midi": 62,
      "time": 57.917,
      "duration": 0.833,
      "velocity": 1,
      "hand": "right"
    },
    {
      "midi": 57,
      "time": 58.333,
      "duration": 0.417,
      "velocity": 1,
      "hand": "left"
    },
    {
      "midi": 56,
      "time": 58.75,
      "duration": 0.417,
      "velocity": 1,
      "hand": "left"
    },
    {
      "midi": 59,
      "time": 58.75,
      "duration": 0.833,
      "velocity": 1,
      "hand": "left"
    },
    {
      "midi": 62,
      "time": 58.75,
      "duration": 0.833,
      "velocity": 1,
      "hand": "right"
    },
    {
      "midi": 55,
      "time": 59.167,
      "duration": 0.417,
      "velocity": 1,
      "hand": "left"
    },
    {
      "midi": 54,
      "time": 59.583,
      "duration": 0.417,
      "velocity": 1,
      "hand": "left"
    },
    {
      "midi": 59,
      "time": 59.583,
      "duration": 0.417,
      "velocity": 1,
      "hand": "left"
    },
    {
      "midi": 62,
      "time": 59.583,
      "duration": 0.417,
      "velocity": 1,
      "hand": "right"
    },
    {
      "midi": 53,
      "time": 60,
      "duration": 0.833,
      "velocity": 1,
      "hand": "left"
    },
    {
      "midi": 71,
      "time": 60,
      "duration": 0.208,
      "velocity": 1,
      "hand": "right"
    },
    {
      "midi": 70,
      "time": 60.208,
      "duration": 0.208,
      "velocity": 1,
      "hand": "right"
    },
    {
      "midi": 59,
      "time": 60.417,
      "duration": 0.833,
      "velocity": 1,
      "hand": "left"
    },
    {
      "midi": 62,
      "time": 60.417,
      "duration": 0.833,
      "velocity": 1,
      "hand": "right"
    },
    {
      "midi": 69,
      "time": 60.417,
      "duration": 0.208,
      "velocity": 1,
      "hand": "right"
    },
    {
      "midi": 68,
      "time": 60.625,
      "duration": 0.208,
      "velocity": 1,
      "hand": "right"
    },
    {
      "midi": 52,
      "time": 60.833,
      "duration": 0.833,
      "velocity": 1,
      "hand": "left"
    },
    {
      "midi": 67,
      "time": 60.833,
      "duration": 0.417,
      "velocity": 1,
      "hand": "right"
    },
    {
      "midi": 59,
      "time": 61.25,
      "duration": 0.417,
      "velocity": 1,
      "hand": "left"
    },
    {
      "midi": 62,
      "time": 61.25,
      "duration": 0.417,
      "velocity": 1,
      "hand": "right"
    },
    {
      "midi": 67,
      "time": 61.25,
      "duration": 0.417,
      "velocity": 1,
      "hand": "right"
    },
    {
      "midi": 50,
      "time": 61.667,
      "duration": 0.833,
      "velocity": 1,
      "hand": "left"
    },
    {
      "midi": 73,
      "time": 61.667,
      "duration": 0.417,
      "velocity": 1,
      "hand": "right"
    },
    {
      "midi": 56,
      "time": 62.083,
      "duration": 0.417,
      "velocity": 1,
      "hand": "left"
    },
    {
      "midi": 59,
      "time": 62.083,
      "duration": 0.417,
      "velocity": 1,
      "hand": "left"
    },
    {
      "midi": 64,
      "time": 62.083,
      "duration": 0.417,
      "velocity": 1,
      "hand": "right"
    },
    {
      "midi": 71,
      "time": 62.083,
      "duration": 0.417,
      "velocity": 1,
      "hand": "right"
    },
    {
      "midi": 49,
      "time": 62.5,
      "duration": 0.833,
      "velocity": 1,
      "hand": "left"
    },
    {
      "midi": 63,
      "time": 62.5,
      "duration": 0.417,
      "velocity": 1,
      "hand": "right"
    },
    {
      "midi": 52,
      "time": 62.917,
      "duration": 0.417,
      "velocity": 1,
      "hand": "left"
    },
    {
      "midi": 57,
      "time": 62.917,
      "duration": 0.417,
      "velocity": 1,
      "hand": "left"
    },
    {
      "midi": 61,
      "time": 62.917,
      "duration": 0.417,
      "velocity": 1,
      "hand": "right"
    },
    {
      "midi": 64,
      "time": 62.917,
      "duration": 0.417,
      "velocity": 1,
      "hand": "right"
    },
    {
      "midi": 49,
      "time": 63.333,
      "duration": 0.208,
      "velocity": 1,
      "hand": "left"
    },
    {
      "midi": 50,
      "time": 63.542,
      "duration": 0.208,
      "velocity": 1,
      "hand": "left"
    },
    {
      "midi": 52,
      "time": 63.75,
      "duration": 0.208,
      "velocity": 1,
      "hand": "left"
    },
    {
      "midi": 61,
      "time": 63.75,
      "duration": 0.833,
      "velocity": 1,
      "hand": "right"
    },
    {
      "midi": 64,
      "time": 63.75,
      "duration": 0.833,
      "velocity": 1,
      "hand": "right"
    },
    {
      "midi": 54,
      "time": 63.958,
      "duration": 0.208,
      "velocity": 1,
      "hand": "left"
    },
    {
      "midi": 55,
      "time": 64.167,
      "duration": 0.417,
      "velocity": 1,
      "hand": "left"
    },
    {
      "midi": 56,
      "time": 64.583,
      "duration": 0.417,
      "velocity": 1,
      "hand": "left"
    },
    {
      "midi": 61,
      "time": 64.583,
      "duration": 0.833,
      "velocity": 1,
      "hand": "right"
    },
    {
      "midi": 64,
      "time": 64.583,
      "duration": 0.833,
      "velocity": 1,
      "hand": "right"
    },
    {
      "midi": 59,
      "time": 65,
      "duration": 0.417,
      "velocity": 1,
      "hand": "left"
    },
    {
      "midi": 58,
      "time": 65.417,
      "duration": 0.417,
      "velocity": 1,
      "hand": "left"
    },
    {
      "midi": 61,
      "time": 65.417,
      "duration": 0.833,
      "velocity": 1,
      "hand": "right"
    },
    {
      "midi": 64,
      "time": 65.417,
      "duration": 0.833,
      "velocity": 1,
      "hand": "right"
    },
    {
      "midi": 57,
      "time": 65.833,
      "duration": 0.417,
      "velocity": 1,
      "hand": "left"
    },
    {
      "midi": 56,
      "time": 66.25,
      "duration": 0.417,
      "velocity": 1,
      "hand": "left"
    },
    {
      "midi": 61,
      "time": 66.25,
      "duration": 0.417,
      "velocity": 1,
      "hand": "right"
    },
    {
      "midi": 64,
      "time": 66.25,
      "duration": 0.417,
      "velocity": 1,
      "hand": "right"
    },
    {
      "midi": 55,
      "time": 66.667,
      "duration": 0.833,
      "velocity": 1,
      "hand": "left"
    },
    {
      "midi": 73,
      "time": 66.667,
      "duration": 0.208,
      "velocity": 1,
      "hand": "right"
    },
    {
      "midi": 72,
      "time": 66.875,
      "duration": 0.208,
      "velocity": 1,
      "hand": "right"
    },
    {
      "midi": 61,
      "time": 67.083,
      "duration": 0.833,
      "velocity": 1,
      "hand": "right"
    },
    {
      "midi": 64,
      "time": 67.083,
      "duration": 0.833,
      "velocity": 1,
      "hand": "right"
    },
    {
      "midi": 71,
      "time": 67.083,
      "duration": 0.208,
      "velocity": 1,
      "hand": "right"
    },
    {
      "midi": 70,
      "time": 67.292,
      "duration": 0.208,
      "velocity": 1,
      "hand": "right"
    },
    {
      "midi": 54,
      "time": 67.5,
      "duration": 0.833,
      "velocity": 1,
      "hand": "left"
    },
    {
      "midi": 69,
      "time": 67.5,
      "duration": 0.417,
      "velocity": 1,
      "hand": "right"
    },
    {
      "midi": 61,
      "time": 67.917,
      "duration": 0.417,
      "velocity": 1,
      "hand": "right"
    },
    {
      "midi": 64,
      "time": 67.917,
      "duration": 0.417,
      "velocity": 1,
      "hand": "right"
    },
    {
      "midi": 69,
      "time": 67.917,
      "duration": 0.417,
      "velocity": 1,
      "hand": "right"
    },
    {
      "midi": 52,
      "time": 68.333,
      "duration": 0.833,
      "velocity": 1,
      "hand": "left"
    },
    {
      "midi": 74,
      "time": 68.333,
      "duration": 0.417,
      "velocity": 1,
      "hand": "right"
    },
    {
      "midi": 58,
      "time": 68.75,
      "duration": 0.417,
      "velocity": 1,
      "hand": "left"
    },
    {
      "midi": 61,
      "time": 68.75,
      "duration": 0.417,
      "velocity": 1,
      "hand": "right"
    },
    {
      "midi": 66,
      "time": 68.75,
      "duration": 0.417,
      "velocity": 1,
      "hand": "right"
    },
    {
      "midi": 73,
      "time": 68.75,
      "duration": 0.417,
      "velocity": 1,
      "hand": "right"
    },
    {
      "midi": 50,
      "time": 69.167,
      "duration": 0.833,
      "velocity": 1,
      "hand": "left"
    },
    {
      "midi": 65,
      "time": 69.167,
      "duration": 0.417,
      "velocity": 1,
      "hand": "right"
    },
    {
      "midi": 54,
      "time": 69.583,
      "duration": 0.417,
      "velocity": 1,
      "hand": "left"
    },
    {
      "midi": 59,
      "time": 69.583,
      "duration": 0.417,
      "velocity": 1,
      "hand": "left"
    },
    {
      "midi": 62,
      "time": 69.583,
      "duration": 0.417,
      "velocity": 1,
      "hand": "right"
    },
    {
      "midi": 66,
      "time": 69.583,
      "duration": 0.417,
      "velocity": 1,
      "hand": "right"
    },
    {
      "midi": 47,
      "time": 70,
      "duration": 0.208,
      "velocity": 1,
      "hand": "left"
    },
    {
      "midi": 71,
      "time": 70,
      "duration": 0.208,
      "velocity": 1,
      "hand": "right"
    },
    {
      "midi": 49,
      "time": 70.208,
      "duration": 0.208,
      "velocity": 1,
      "hand": "left"
    },
    {
      "midi": 73,
      "time": 70.208,
      "duration": 0.208,
      "velocity": 1,
      "hand": "right"
    },
    {
      "midi": 50,
      "time": 70.417,
      "duration": 0.208,
      "velocity": 1,
      "hand": "left"
    },
    {
      "midi": 74,
      "time": 70.417,
      "duration": 0.208,
      "velocity": 1,
      "hand": "right"
    },
    {
      "midi": 52,
      "time": 70.625,
      "duration": 0.208,
      "velocity": 1,
      "hand": "left"
    },
    {
      "midi": 76,
      "time": 70.625,
      "duration": 0.208,
      "velocity": 1,
      "hand": "right"
    },
    {
      "midi": 54,
      "time": 70.833,
      "duration": 0.417,
      "velocity": 1,
      "hand": "left"
    },
    {
      "midi": 78,
      "time": 70.833,
      "duration": 0.417,
      "velocity": 1,
      "hand": "right"
    },
    {
      "midi": 43,
      "time": 71.25,
      "duration": 0.417,
      "velocity": 1,
      "hand": "left"
    },
    {
      "midi": 47,
      "time": 71.25,
      "duration": 0.417,
      "velocity": 1,
      "hand": "left"
    },
    {
      "midi": 50,
      "time": 71.25,
      "duration": 0.417,
      "velocity": 1,
      "hand": "left"
    },
    {
      "midi": 55,
      "time": 71.25,
      "duration": 0.417,
      "velocity": 1,
      "hand": "left"
    },
    {
      "midi": 67,
      "time": 71.25,
      "duration": 0.417,
      "velocity": 1,
      "hand": "right"
    },
    {
      "midi": 71,
      "time": 71.25,
      "duration": 0.417,
      "velocity": 1,
      "hand": "right"
    },
    {
      "midi": 74,
      "time": 71.25,
      "duration": 0.417,
      "velocity": 1,
      "hand": "right"
    },
    {
      "midi": 79,
      "time": 71.25,
      "duration": 0.417,
      "velocity": 1,
      "hand": "right"
    },
    {
      "midi": 41,
      "time": 71.667,
      "duration": 0.833,
      "velocity": 1,
      "hand": "left"
    },
    {
      "midi": 65,
      "time": 71.667,
      "duration": 0.833,
      "velocity": 1,
      "hand": "right"
    },
    {
      "midi": 53,
      "time": 72.083,
      "duration": 0.417,
      "velocity": 1,
      "hand": "left"
    },
    {
      "midi": 77,
      "time": 72.083,
      "duration": 0.417,
      "velocity": 1,
      "hand": "right"
    },
    {
      "midi": 42,
      "time": 72.5,
      "duration": 0.833,
      "velocity": 1,
      "hand": "left"
    },
    {
      "midi": 66,
      "time": 72.5,
      "duration": 0.833,
      "velocity": 1,
      "hand": "right"
    },
    {
      "midi": 54,
      "time": 72.917,
      "duration": 0.417,
      "velocity": 1,
      "hand": "left"
    },
    {
      "midi": 78,
      "time": 72.917,
      "duration": 0.417,
      "velocity": 1,
      "hand": "right"
    },
    {
      "midi": 47,
      "time": 73.333,
      "duration": 0.208,
      "velocity": 1,
      "hand": "left"
    },
    {
      "midi": 71,
      "time": 73.333,
      "duration": 0.208,
      "velocity": 1,
      "hand": "right"
    },
    {
      "midi": 49,
      "time": 73.542,
      "duration": 0.208,
      "velocity": 1,
      "hand": "left"
    },
    {
      "midi": 73,
      "time": 73.542,
      "duration": 0.208,
      "velocity": 1,
      "hand": "right"
    },
    {
      "midi": 50,
      "time": 73.75,
      "duration": 0.208,
      "velocity": 1,
      "hand": "left"
    },
    {
      "midi": 74,
      "time": 73.75,
      "duration": 0.208,
      "velocity": 1,
      "hand": "right"
    },
    {
      "midi": 52,
      "time": 73.958,
      "duration": 0.208,
      "velocity": 1,
      "hand": "left"
    },
    {
      "midi": 76,
      "time": 73.958,
      "duration": 0.208,
      "velocity": 1,
      "hand": "right"
    },
    {
      "midi": 54,
      "time": 74.167,
      "duration": 0.417,
      "velocity": 1,
      "hand": "left"
    },
    {
      "midi": 78,
      "time": 74.167,
      "duration": 0.417,
      "velocity": 1,
      "hand": "right"
    },
    {
      "midi": 43,
      "time": 74.583,
      "duration": 0.417,
      "velocity": 1,
      "hand": "left"
    },
    {
      "midi": 47,
      "time": 74.583,
      "duration": 0.417,
      "velocity": 1,
      "hand": "left"
    },
    {
      "midi": 50,
      "time": 74.583,
      "duration": 0.417,
      "velocity": 1,
      "hand": "left"
    },
    {
      "midi": 55,
      "time": 74.583,
      "duration": 0.417,
      "velocity": 1,
      "hand": "left"
    },
    {
      "midi": 67,
      "time": 74.583,
      "duration": 0.417,
      "velocity": 1,
      "hand": "right"
    },
    {
      "midi": 71,
      "time": 74.583,
      "duration": 0.417,
      "velocity": 1,
      "hand": "right"
    },
    {
      "midi": 74,
      "time": 74.583,
      "duration": 0.417,
      "velocity": 1,
      "hand": "right"
    },
    {
      "midi": 79,
      "time": 74.583,
      "duration": 0.417,
      "velocity": 1,
      "hand": "right"
    },
    {
      "midi": 41,
      "time": 75,
      "duration": 0.833,
      "velocity": 1,
      "hand": "left"
    },
    {
      "midi": 65,
      "time": 75,
      "duration": 0.833,
      "velocity": 1,
      "hand": "right"
    },
    {
      "midi": 53,
      "time": 75.417,
      "duration": 0.417,
      "velocity": 1,
      "hand": "left"
    },
    {
      "midi": 77,
      "time": 75.417,
      "duration": 0.417,
      "velocity": 1,
      "hand": "right"
    },
    {
      "midi": 42,
      "time": 75.833,
      "duration": 0.833,
      "velocity": 1,
      "hand": "left"
    },
    {
      "midi": 66,
      "time": 75.833,
      "duration": 0.833,
      "velocity": 1,
      "hand": "right"
    },
    {
      "midi": 54,
      "time": 76.25,
      "duration": 0.417,
      "velocity": 1,
      "hand": "left"
    },
    {
      "midi": 78,
      "time": 76.25,
      "duration": 0.417,
      "velocity": 1,
      "hand": "right"
    },
    {
      "midi": 50,
      "time": 76.667,
      "duration": 0.208,
      "velocity": 1,
      "hand": "left"
    },
    {
      "midi": 74,
      "time": 76.667,
      "duration": 0.208,
      "velocity": 1,
      "hand": "right"
    },
    {
      "midi": 52,
      "time": 76.875,
      "duration": 0.208,
      "velocity": 1,
      "hand": "left"
    },
    {
      "midi": 76,
      "time": 76.875,
      "duration": 0.208,
      "velocity": 1,
      "hand": "right"
    },
    {
      "midi": 54,
      "time": 77.083,
      "duration": 0.208,
      "velocity": 1,
      "hand": "left"
    },
    {
      "midi": 78,
      "time": 77.083,
      "duration": 0.208,
      "velocity": 1,
      "hand": "right"
    },
    {
      "midi": 55,
      "time": 77.292,
      "duration": 0.208,
      "velocity": 1,
      "hand": "left"
    },
    {
      "midi": 79,
      "time": 77.292,
      "duration": 0.208,
      "velocity": 1,
      "hand": "right"
    },
    {
      "midi": 57,
      "time": 77.5,
      "duration": 0.417,
      "velocity": 1,
      "hand": "left"
    },
    {
      "midi": 81,
      "time": 77.5,
      "duration": 0.417,
      "velocity": 1,
      "hand": "right"
    },
    {
      "midi": 46,
      "time": 77.917,
      "duration": 0.417,
      "velocity": 1,
      "hand": "left"
    },
    {
      "midi": 50,
      "time": 77.917,
      "duration": 0.417,
      "velocity": 1,
      "hand": "left"
    },
    {
      "midi": 53,
      "time": 77.917,
      "duration": 0.417,
      "velocity": 1,
      "hand": "left"
    },
    {
      "midi": 58,
      "time": 77.917,
      "duration": 0.417,
      "velocity": 1,
      "hand": "left"
    },
    {
      "midi": 70,
      "time": 77.917,
      "duration": 0.417,
      "velocity": 1,
      "hand": "right"
    },
    {
      "midi": 74,
      "time": 77.917,
      "duration": 0.417,
      "velocity": 1,
      "hand": "right"
    },
    {
      "midi": 77,
      "time": 77.917,
      "duration": 0.417,
      "velocity": 1,
      "hand": "right"
    },
    {
      "midi": 82,
      "time": 77.917,
      "duration": 0.417,
      "velocity": 1,
      "hand": "right"
    },
    {
      "midi": 44,
      "time": 78.333,
      "duration": 0.833,
      "velocity": 1,
      "hand": "left"
    },
    {
      "midi": 68,
      "time": 78.333,
      "duration": 0.833,
      "velocity": 1,
      "hand": "right"
    },
    {
      "midi": 56,
      "time": 78.75,
      "duration": 0.417,
      "velocity": 1,
      "hand": "left"
    },
    {
      "midi": 80,
      "time": 78.75,
      "duration": 0.417,
      "velocity": 1,
      "hand": "right"
    },
    {
      "midi": 45,
      "time": 79.167,
      "duration": 0.833,
      "velocity": 1,
      "hand": "left"
    },
    {
      "midi": 69,
      "time": 79.167,
      "duration": 0.833,
      "velocity": 1,
      "hand": "right"
    },
    {
      "midi": 57,
      "time": 79.583,
      "duration": 0.417,
      "velocity": 1,
      "hand": "left"
    },
    {
      "midi": 81,
      "time": 79.583,
      "duration": 0.417,
      "velocity": 1,
      "hand": "right"
    },
    {
      "midi": 50,
      "time": 80,
      "duration": 0.208,
      "velocity": 1,
      "hand": "left"
    },
    {
      "midi": 74,
      "time": 80,
      "duration": 0.208,
      "velocity": 1,
      "hand": "right"
    },
    {
      "midi": 52,
      "time": 80.208,
      "duration": 0.208,
      "velocity": 1,
      "hand": "left"
    },
    {
      "midi": 76,
      "time": 80.208,
      "duration": 0.208,
      "velocity": 1,
      "hand": "right"
    },
    {
      "midi": 54,
      "time": 80.417,
      "duration": 0.208,
      "velocity": 1,
      "hand": "left"
    },
    {
      "midi": 78,
      "time": 80.417,
      "duration": 0.208,
      "velocity": 1,
      "hand": "right"
    },
    {
      "midi": 55,
      "time": 80.625,
      "duration": 0.208,
      "velocity": 1,
      "hand": "left"
    },
    {
      "midi": 79,
      "time": 80.625,
      "duration": 0.208,
      "velocity": 1,
      "hand": "right"
    },
    {
      "midi": 57,
      "time": 80.833,
      "duration": 0.417,
      "velocity": 1,
      "hand": "left"
    },
    {
      "midi": 81,
      "time": 80.833,
      "duration": 0.417,
      "velocity": 1,
      "hand": "right"
    },
    {
      "midi": 46,
      "time": 81.25,
      "duration": 0.417,
      "velocity": 1,
      "hand": "left"
    },
    {
      "midi": 50,
      "time": 81.25,
      "duration": 0.417,
      "velocity": 1,
      "hand": "left"
    },
    {
      "midi": 53,
      "time": 81.25,
      "duration": 0.417,
      "velocity": 1,
      "hand": "left"
    },
    {
      "midi": 58,
      "time": 81.25,
      "duration": 0.417,
      "velocity": 1,
      "hand": "left"
    },
    {
      "midi": 70,
      "time": 81.25,
      "duration": 0.417,
      "velocity": 1,
      "hand": "right"
    },
    {
      "midi": 74,
      "time": 81.25,
      "duration": 0.417,
      "velocity": 1,
      "hand": "right"
    },
    {
      "midi": 77,
      "time": 81.25,
      "duration": 0.417,
      "velocity": 1,
      "hand": "right"
    },
    {
      "midi": 82,
      "time": 81.25,
      "duration": 0.417,
      "velocity": 1,
      "hand": "right"
    },
    {
      "midi": 44,
      "time": 81.667,
      "duration": 0.833,
      "velocity": 1,
      "hand": "left"
    },
    {
      "midi": 68,
      "time": 81.667,
      "duration": 0.833,
      "velocity": 1,
      "hand": "right"
    },
    {
      "midi": 56,
      "time": 82.083,
      "duration": 0.417,
      "velocity": 1,
      "hand": "left"
    },
    {
      "midi": 80,
      "time": 82.083,
      "duration": 0.417,
      "velocity": 1,
      "hand": "right"
    },
    {
      "midi": 45,
      "time": 82.5,
      "duration": 0.833,
      "velocity": 1,
      "hand": "left"
    },
    {
      "midi": 69,
      "time": 82.5,
      "duration": 0.833,
      "velocity": 1,
      "hand": "right"
    },
    {
      "midi": 57,
      "time": 82.917,
      "duration": 0.417,
      "velocity": 1,
      "hand": "left"
    },
    {
      "midi": 81,
      "time": 82.917,
      "duration": 0.417,
      "velocity": 1,
      "hand": "right"
    },
    {
      "midi": 44,
      "time": 83.333,
      "duration": 0.833,
      "velocity": 1,
      "hand": "left"
    },
    {
      "midi": 68,
      "time": 83.333,
      "duration": 0.833,
      "velocity": 1,
      "hand": "right"
    },
    {
      "midi": 56,
      "time": 83.75,
      "duration": 0.417,
      "velocity": 1,
      "hand": "left"
    },
    {
      "midi": 80,
      "time": 83.75,
      "duration": 0.417,
      "velocity": 1,
      "hand": "right"
    },
    {
      "midi": 45,
      "time": 84.167,
      "duration": 0.833,
      "velocity": 1,
      "hand": "left"
    },
    {
      "midi": 69,
      "time": 84.167,
      "duration": 0.833,
      "velocity": 1,
      "hand": "right"
    },
    {
      "midi": 57,
      "time": 84.583,
      "duration": 0.417,
      "velocity": 1,
      "hand": "left"
    },
    {
      "midi": 81,
      "time": 84.583,
      "duration": 0.417,
      "velocity": 1,
      "hand": "right"
    },
    {
      "midi": 46,
      "time": 85,
      "duration": 0.833,
      "velocity": 1,
      "hand": "left"
    },
    {
      "midi": 70,
      "time": 85,
      "duration": 0.833,
      "velocity": 1,
      "hand": "right"
    },
    {
      "midi": 58,
      "time": 85.417,
      "duration": 0.417,
      "velocity": 1,
      "hand": "left"
    },
    {
      "midi": 82,
      "time": 85.417,
      "duration": 0.417,
      "velocity": 1,
      "hand": "right"
    },
    {
      "midi": 40,
      "time": 85.833,
      "duration": 0.833,
      "velocity": 1,
      "hand": "left"
    },
    {
      "midi": 64,
      "time": 85.833,
      "duration": 0.833,
      "velocity": 1,
      "hand": "right"
    },
    {
      "midi": 52,
      "time": 86.25,
      "duration": 0.417,
      "velocity": 1,
      "hand": "left"
    },
    {
      "midi": 76,
      "time": 86.25,
      "duration": 0.417,
      "velocity": 1,
      "hand": "right"
    },
    {
      "midi": 43,
      "time": 86.667,
      "duration": 0.833,
      "velocity": 1,
      "hand": "left"
    },
    {
      "midi": 67,
      "time": 86.667,
      "duration": 0.833,
      "velocity": 1,
      "hand": "right"
    },
    {
      "midi": 55,
      "time": 87.083,
      "duration": 0.417,
      "velocity": 1,
      "hand": "left"
    },
    {
      "midi": 79,
      "time": 87.083,
      "duration": 0.417,
      "velocity": 1,
      "hand": "right"
    },
    {
      "midi": 34,
      "time": 87.5,
      "duration": 0.833,
      "velocity": 1,
      "hand": "left"
    },
    {
      "midi": 58,
      "time": 87.5,
      "duration": 0.833,
      "velocity": 1,
      "hand": "left"
    },
    {
      "midi": 46,
      "time": 87.917,
      "duration": 0.417,
      "velocity": 1,
      "hand": "left"
    },
    {
      "midi": 70,
      "time": 87.917,
      "duration": 0.417,
      "velocity": 1,
      "hand": "right"
    },
    {
      "midi": 38,
      "time": 88.333,
      "duration": 0.833,
      "velocity": 1,
      "hand": "left"
    },
    {
      "midi": 62,
      "time": 88.333,
      "duration": 0.833,
      "velocity": 1,
      "hand": "right"
    },
    {
      "midi": 50,
      "time": 88.75,
      "duration": 0.417,
      "velocity": 1,
      "hand": "left"
    },
    {
      "midi": 74,
      "time": 88.75,
      "duration": 0.417,
      "velocity": 1,
      "hand": "right"
    },
    {
      "midi": 33,
      "time": 89.167,
      "duration": 0.833,
      "velocity": 1,
      "hand": "left"
    },
    {
      "midi": 57,
      "time": 89.167,
      "duration": 0.833,
      "velocity": 1,
      "hand": "left"
    },
    {
      "midi": 45,
      "time": 89.583,
      "duration": 0.417,
      "velocity": 1,
      "hand": "left"
    },
    {
      "midi": 69,
      "time": 89.583,
      "duration": 0.417,
      "velocity": 1,
      "hand": "right"
    },
    {
      "midi": 44,
      "time": 90,
      "duration": 0.208,
      "velocity": 1,
      "hand": "left"
    },
    {
      "midi": 45,
      "time": 90.208,
      "duration": 0.208,
      "velocity": 1,
      "hand": "left"
    },
    {
      "midi": 48,
      "time": 90.417,
      "duration": 0.208,
      "velocity": 1,
      "hand": "left"
    },
    {
      "midi": 49,
      "time": 90.625,
      "duration": 0.208,
      "velocity": 1,
      "hand": "left"
    },
    {
      "midi": 51,
      "time": 90.833,
      "duration": 0.208,
      "velocity": 1,
      "hand": "left"
    },
    {
      "midi": 52,
      "time": 91.042,
      "duration": 0.208,
      "velocity": 1,
      "hand": "left"
    },
    {
      "midi": 56,
      "time": 91.25,
      "duration": 0.208,
      "velocity": 1,
      "hand": "left"
    },
    {
      "midi": 57,
      "time": 91.458,
      "duration": 0.208,
      "velocity": 1,
      "hand": "left"
    },
    {
      "midi": 56,
      "time": 91.667,
      "duration": 0.208,
      "velocity": 1,
      "hand": "left"
    },
    {
      "midi": 57,
      "time": 91.875,
      "duration": 0.208,
      "velocity": 1,
      "hand": "left"
    },
    {
      "midi": 60,
      "time": 92.083,
      "duration": 0.208,
      "velocity": 1,
      "hand": "right"
    },
    {
      "midi": 61,
      "time": 92.292,
      "duration": 0.208,
      "velocity": 1,
      "hand": "right"
    },
    {
      "midi": 63,
      "time": 92.5,
      "duration": 0.208,
      "velocity": 1,
      "hand": "right"
    },
    {
      "midi": 64,
      "time": 92.708,
      "duration": 0.208,
      "velocity": 1,
      "hand": "right"
    },
    {
      "midi": 68,
      "time": 92.917,
      "duration": 0.208,
      "velocity": 1,
      "hand": "right"
    },
    {
      "midi": 69,
      "time": 93.125,
      "duration": 0.208,
      "velocity": 1,
      "hand": "right"
    },
    {
      "midi": 68,
      "time": 93.333,
      "duration": 0.208,
      "velocity": 1,
      "hand": "right"
    },
    {
      "midi": 69,
      "time": 93.542,
      "duration": 0.208,
      "velocity": 1,
      "hand": "right"
    },
    {
      "midi": 72,
      "time": 93.75,
      "duration": 0.208,
      "velocity": 1,
      "hand": "right"
    },
    {
      "midi": 73,
      "time": 93.958,
      "duration": 0.208,
      "velocity": 1,
      "hand": "right"
    },
    {
      "midi": 75,
      "time": 94.167,
      "duration": 0.208,
      "velocity": 1,
      "hand": "right"
    },
    {
      "midi": 76,
      "time": 94.375,
      "duration": 0.208,
      "velocity": 1,
      "hand": "right"
    },
    {
      "midi": 80,
      "time": 94.583,
      "duration": 0.208,
      "velocity": 1,
      "hand": "right"
    },
    {
      "midi": 81,
      "time": 94.792,
      "duration": 0.208,
      "velocity": 1,
      "hand": "right"
    },
    {
      "midi": 80,
      "time": 95,
      "duration": 0.208,
      "velocity": 1,
      "hand": "right"
    },
    {
      "midi": 81,
      "time": 95.208,
      "duration": 0.208,
      "velocity": 1,
      "hand": "right"
    },
    {
      "midi": 84,
      "time": 95.417,
      "duration": 0.208,
      "velocity": 1,
      "hand": "right"
    },
    {
      "midi": 85,
      "time": 95.625,
      "duration": 0.208,
      "velocity": 1,
      "hand": "right"
    },
    {
      "midi": 87,
      "time": 95.833,
      "duration": 0.208,
      "velocity": 1,
      "hand": "right"
    },
    {
      "midi": 88,
      "time": 96.042,
      "duration": 0.208,
      "velocity": 1,
      "hand": "right"
    },
    {
      "midi": 92,
      "time": 96.25,
      "duration": 0.208,
      "velocity": 1,
      "hand": "right"
    },
    {
      "midi": 93,
      "time": 96.458,
      "duration": 0.208,
      "velocity": 1,
      "hand": "right"
    },
    {
      "midi": 50,
      "time": 96.667,
      "duration": 0.833,
      "velocity": 1,
      "hand": "left"
    },
    {
      "midi": 54,
      "time": 96.667,
      "duration": 0.833,
      "velocity": 1,
      "hand": "left"
    },
    {
      "midi": 57,
      "time": 96.667,
      "duration": 0.417,
      "velocity": 1,
      "hand": "left"
    },
    {
      "midi": 74,
      "time": 96.667,
      "duration": 0.417,
      "velocity": 1,
      "hand": "right"
    },
    {
      "midi": 78,
      "time": 96.667,
      "duration": 0.417,
      "velocity": 1,
      "hand": "right"
    },
    {
      "midi": 81,
      "time": 96.667,
      "duration": 0.833,
      "velocity": 1,
      "hand": "right"
    },
    {
      "midi": 62,
      "time": 97.083,
      "duration": 0.417,
      "velocity": 1,
      "hand": "right"
    },
    {
      "midi": 69,
      "time": 97.083,
      "duration": 0.417,
      "velocity": 1,
      "hand": "right"
    },
    {
      "midi": 50,
      "time": 97.5,
      "duration": 0.833,
      "velocity": 1,
      "hand": "left"
    },
    {
      "midi": 55,
      "time": 97.5,
      "duration": 0.833,
      "velocity": 1,
      "hand": "left"
    },
    {
      "midi": 58,
      "time": 97.5,
      "duration": 0.417,
      "velocity": 1,
      "hand": "left"
    },
    {
      "midi": 70,
      "time": 97.5,
      "duration": 0.417,
      "velocity": 1,
      "hand": "right"
    },
    {
      "midi": 74,
      "time": 97.5,
      "duration": 0.417,
      "velocity": 1,
      "hand": "right"
    },
    {
      "midi": 76,
      "time": 97.5,
      "duration": 0.833,
      "velocity": 1,
      "hand": "right"
    },
    {
      "midi": 62,
      "time": 97.917,
      "duration": 0.417,
      "velocity": 1,
      "hand": "right"
    },
    {
      "midi": 64,
      "time": 97.917,
      "duration": 0.417,
      "velocity": 1,
      "hand": "right"
    },
    {
      "midi": 50,
      "time": 98.333,
      "duration": 0.833,
      "velocity": 1,
      "hand": "left"
    },
    {
      "midi": 54,
      "time": 98.333,
      "duration": 0.833,
      "velocity": 1,
      "hand": "left"
    },
    {
      "midi": 57,
      "time": 98.333,
      "duration": 0.417,
      "velocity": 1,
      "hand": "left"
    },
    {
      "midi": 74,
      "time": 98.333,
      "duration": 0.417,
      "velocity": 1,
      "hand": "right"
    },
    {
      "midi": 78,
      "time": 98.333,
      "duration": 0.417,
      "velocity": 1,
      "hand": "right"
    },
    {
      "midi": 81,
      "time": 98.333,
      "duration": 0.833,
      "velocity": 1,
      "hand": "right"
    },
    {
      "midi": 62,
      "time": 98.75,
      "duration": 0.417,
      "velocity": 1,
      "hand": "right"
    },
    {
      "midi": 69,
      "time": 98.75,
      "duration": 0.417,
      "velocity": 1,
      "hand": "right"
    },
    {
      "midi": 50,
      "time": 99.167,
      "duration": 0.833,
      "velocity": 1,
      "hand": "left"
    },
    {
      "midi": 55,
      "time": 99.167,
      "duration": 0.833,
      "velocity": 1,
      "hand": "left"
    },
    {
      "midi": 58,
      "time": 99.167,
      "duration": 0.417,
      "velocity": 1,
      "hand": "left"
    },
    {
      "midi": 70,
      "time": 99.167,
      "duration": 0.417,
      "velocity": 1,
      "hand": "right"
    },
    {
      "midi": 74,
      "time": 99.167,
      "duration": 0.417,
      "velocity": 1,
      "hand": "right"
    },
    {
      "midi": 76,
      "time": 99.167,
      "duration": 0.833,
      "velocity": 1,
      "hand": "right"
    },
    {
      "midi": 62,
      "time": 99.583,
      "duration": 0.417,
      "velocity": 1,
      "hand": "right"
    },
    {
      "midi": 64,
      "time": 99.583,
      "duration": 0.417,
      "velocity": 1,
      "hand": "right"
    },
    {
      "midi": 60,
      "time": 100,
      "duration": 1.667,
      "velocity": 1,
      "hand": "right"
    },
    {
      "midi": 62,
      "time": 100,
      "duration": 1.667,
      "velocity": 1,
      "hand": "right"
    },
    {
      "midi": 66,
      "time": 100,
      "duration": 1.667,
      "velocity": 1,
      "hand": "right"
    },
    {
      "midi": 69,
      "time": 100,
      "duration": 1.667,
      "velocity": 1,
      "hand": "right"
    },
    {
      "midi": 74,
      "time": 100,
      "duration": 0.208,
      "velocity": 1,
      "hand": "right"
    },
    {
      "midi": 76,
      "time": 100.208,
      "duration": 0.208,
      "velocity": 1,
      "hand": "right"
    },
    {
      "midi": 74,
      "time": 100.417,
      "duration": 0.208,
      "velocity": 1,
      "hand": "right"
    },
    {
      "midi": 76,
      "time": 100.625,
      "duration": 0.208,
      "velocity": 1,
      "hand": "right"
    },
    {
      "midi": 78,
      "time": 100.833,
      "duration": 0.417,
      "velocity": 1,
      "hand": "right"
    },
    {
      "midi": 78,
      "time": 101.25,
      "duration": 0.417,
      "velocity": 1,
      "hand": "right"
    },
    {
      "midi": 58,
      "time": 101.667,
      "duration": 0.208,
      "velocity": 1,
      "hand": "left"
    },
    {
      "midi": 67,
      "time": 101.667,
      "duration": 0.833,
      "velocity": 1,
      "hand": "right"
    },
    {
      "midi": 74,
      "time": 101.667,
      "duration": 0.833,
      "velocity": 1,
      "hand": "right"
    },
    {
      "midi": 76,
      "time": 101.667,
      "duration": 0.417,
      "velocity": 1,
      "hand": "right"
    },
    {
      "midi": 57,
      "time": 101.875,
      "duration": 0.208,
      "velocity": 1,
      "hand": "left"
    },
    {
      "midi": 55,
      "time": 102.083,
      "duration": 0.208,
      "velocity": 1,
      "hand": "left"
    },
    {
      "midi": 79,
      "time": 102.083,
      "duration": 0.417,
      "velocity": 1,
      "hand": "right"
    },
    {
      "midi": 54,
      "time": 102.292,
      "duration": 0.208,
      "velocity": 1,
      "hand": "left"
    },
    {
      "midi": 52,
      "time": 102.5,
      "duration": 0.417,
      "velocity": 1,
      "hand": "left"
    },
    {
      "midi": 73,
      "time": 102.5,
      "duration": 0.417,
      "velocity": 1,
      "hand": "right"
    },
    {
      "midi": 76,
      "time": 102.5,
      "duration": 0.833,
      "velocity": 1,
      "hand": "right"
    },
    {
      "midi": 57,
      "time": 102.917,
      "duration": 0.417,
      "velocity": 1,
      "hand": "left"
    },
    {
      "midi": 69,
      "time": 102.917,
      "duration": 0.417,
      "velocity": 1,
      "hand": "right"
    },
    {
      "midi": 50,
      "time": 103.333,
      "duration": 0.833,
      "velocity": 1,
      "hand": "left"
    },
    {
      "midi": 54,
      "time": 103.333,
      "duration": 0.833,
      "velocity": 1,
      "hand": "left"
    },
    {
      "midi": 57,
      "time": 103.333,
      "duration": 0.417,
      "velocity": 1,
      "hand": "left"
    },
    {
      "midi": 74,
      "time": 103.333,
      "duration": 0.417,
      "velocity": 1,
      "hand": "right"
    },
    {
      "midi": 78,
      "time": 103.333,
      "duration": 0.417,
      "velocity": 1,
      "hand": "right"
    },
    {
      "midi": 81,
      "time": 103.333,
      "duration": 0.833,
      "velocity": 1,
      "hand": "right"
    },
    {
      "midi": 62,
      "time": 103.75,
      "duration": 0.417,
      "velocity": 1,
      "hand": "right"
    },
    {
      "midi": 69,
      "time": 103.75,
      "duration": 0.417,
      "velocity": 1,
      "hand": "right"
    },
    {
      "midi": 50,
      "time": 104.167,
      "duration": 0.833,
      "velocity": 1,
      "hand": "left"
    },
    {
      "midi": 55,
      "time": 104.167,
      "duration": 0.833,
      "velocity": 1,
      "hand": "left"
    },
    {
      "midi": 58,
      "time": 104.167,
      "duration": 0.417,
      "velocity": 1,
      "hand": "left"
    },
    {
      "midi": 70,
      "time": 104.167,
      "duration": 0.417,
      "velocity": 1,
      "hand": "right"
    },
    {
      "midi": 74,
      "time": 104.167,
      "duration": 0.417,
      "velocity": 1,
      "hand": "right"
    },
    {
      "midi": 76,
      "time": 104.167,
      "duration": 0.833,
      "velocity": 1,
      "hand": "right"
    },
    {
      "midi": 62,
      "time": 104.583,
      "duration": 0.417,
      "velocity": 1,
      "hand": "right"
    },
    {
      "midi": 64,
      "time": 104.583,
      "duration": 0.417,
      "velocity": 1,
      "hand": "right"
    },
    {
      "midi": 50,
      "time": 105,
      "duration": 0.833,
      "velocity": 1,
      "hand": "left"
    },
    {
      "midi": 54,
      "time": 105,
      "duration": 0.833,
      "velocity": 1,
      "hand": "left"
    },
    {
      "midi": 57,
      "time": 105,
      "duration": 0.417,
      "velocity": 1,
      "hand": "left"
    },
    {
      "midi": 74,
      "time": 105,
      "duration": 0.417,
      "velocity": 1,
      "hand": "right"
    },
    {
      "midi": 78,
      "time": 105,
      "duration": 0.417,
      "velocity": 1,
      "hand": "right"
    },
    {
      "midi": 81,
      "time": 105,
      "duration": 0.833,
      "velocity": 1,
      "hand": "right"
    },
    {
      "midi": 62,
      "time": 105.417,
      "duration": 0.417,
      "velocity": 1,
      "hand": "right"
    },
    {
      "midi": 69,
      "time": 105.417,
      "duration": 0.417,
      "velocity": 1,
      "hand": "right"
    },
    {
      "midi": 50,
      "time": 105.833,
      "duration": 0.833,
      "velocity": 1,
      "hand": "left"
    },
    {
      "midi": 55,
      "time": 105.833,
      "duration": 0.833,
      "velocity": 1,
      "hand": "left"
    },
    {
      "midi": 58,
      "time": 105.833,
      "duration": 0.417,
      "velocity": 1,
      "hand": "left"
    },
    {
      "midi": 70,
      "time": 105.833,
      "duration": 0.417,
      "velocity": 1,
      "hand": "right"
    },
    {
      "midi": 74,
      "time": 105.833,
      "duration": 0.417,
      "velocity": 1,
      "hand": "right"
    },
    {
      "midi": 76,
      "time": 105.833,
      "duration": 0.833,
      "velocity": 1,
      "hand": "right"
    },
    {
      "midi": 62,
      "time": 106.25,
      "duration": 0.417,
      "velocity": 1,
      "hand": "right"
    },
    {
      "midi": 64,
      "time": 106.25,
      "duration": 0.417,
      "velocity": 1,
      "hand": "right"
    },
    {
      "midi": 60,
      "time": 106.667,
      "duration": 1.667,
      "velocity": 1,
      "hand": "right"
    },
    {
      "midi": 62,
      "time": 106.667,
      "duration": 1.667,
      "velocity": 1,
      "hand": "right"
    },
    {
      "midi": 66,
      "time": 106.667,
      "duration": 1.667,
      "velocity": 1,
      "hand": "right"
    },
    {
      "midi": 69,
      "time": 106.667,
      "duration": 1.667,
      "velocity": 1,
      "hand": "right"
    },
    {
      "midi": 74,
      "time": 106.667,
      "duration": 0.208,
      "velocity": 1,
      "hand": "right"
    },
    {
      "midi": 76,
      "time": 106.875,
      "duration": 0.208,
      "velocity": 1,
      "hand": "right"
    },
    {
      "midi": 74,
      "time": 107.083,
      "duration": 0.208,
      "velocity": 1,
      "hand": "right"
    },
    {
      "midi": 76,
      "time": 107.292,
      "duration": 0.208,
      "velocity": 1,
      "hand": "right"
    },
    {
      "midi": 78,
      "time": 107.5,
      "duration": 0.417,
      "velocity": 1,
      "hand": "right"
    },
    {
      "midi": 78,
      "time": 107.917,
      "duration": 0.417,
      "velocity": 1,
      "hand": "right"
    },
    {
      "midi": 58,
      "time": 108.333,
      "duration": 0.208,
      "velocity": 1,
      "hand": "left"
    },
    {
      "midi": 62,
      "time": 108.333,
      "duration": 0.208,
      "velocity": 1,
      "hand": "right"
    },
    {
      "midi": 74,
      "time": 108.333,
      "duration": 0.208,
      "velocity": 1,
      "hand": "right"
    },
    {
      "midi": 76,
      "time": 108.333,
      "duration": 0.208,
      "velocity": 1,
      "hand": "right"
    },
    {
      "midi": 78,
      "time": 108.542,
      "duration": 0.208,
      "velocity": 1,
      "hand": "right"
    },
    {
      "midi": 58,
      "time": 108.75,
      "duration": 0.208,
      "velocity": 1,
      "hand": "left"
    },
    {
      "midi": 79,
      "time": 108.75,
      "duration": 0.208,
      "velocity": 1,
      "hand": "right"
    },
    {
      "midi": 57,
      "time": 108.958,
      "duration": 0.208,
      "velocity": 1,
      "hand": "left"
    },
    {
      "midi": 81,
      "time": 108.958,
      "duration": 0.208,
      "velocity": 1,
      "hand": "right"
    },
    {
      "midi": 55,
      "time": 109.167,
      "duration": 0.417,
      "velocity": 1,
      "hand": "left"
    },
    {
      "midi": 82,
      "time": 109.167,
      "duration": 0.417,
      "velocity": 1,
      "hand": "right"
    },
    {
      "midi": 43,
      "time": 110,
      "duration": 0.833,
      "velocity": 1,
      "hand": "left"
    },
    {
      "midi": 51,
      "time": 110,
      "duration": 0.833,
      "velocity": 1,
      "hand": "left"
    },
    {
      "midi": 61,
      "time": 110.208,
      "duration": 0.208,
      "velocity": 1,
      "hand": "right"
    },
    {
      "midi": 63,
      "time": 110.208,
      "duration": 0.208,
      "velocity": 1,
      "hand": "right"
    },
    {
      "midi": 58,
      "time": 110.417,
      "duration": 0.417,
      "velocity": 1,
      "hand": "left"
    },
    {
      "midi": 61,
      "time": 110.625,
      "duration": 0.208,
      "velocity": 1,
      "hand": "right"
    },
    {
      "midi": 63,
      "time": 110.625,
      "duration": 0.208,
      "velocity": 1,
      "hand": "right"
    },
    {
      "midi": 56,
      "time": 110.833,
      "duration": 0.833,
      "velocity": 1,
      "hand": "left"
    },
    {
      "midi": 60,
      "time": 110.833,
      "duration": 0.417,
      "velocity": 1,
      "hand": "right"
    },
    {
      "midi": 51,
      "time": 111.25,
      "duration": 0.417,
      "velocity": 1,
      "hand": "left"
    },
    {
      "midi": 63,
      "time": 111.25,
      "duration": 0.417,
      "velocity": 1,
      "hand": "right"
    },
    {
      "midi": 72,
      "time": 111.25,
      "duration": 0.417,
      "velocity": 1,
      "hand": "right"
    },
    {
      "midi": 45,
      "time": 111.667,
      "duration": 0.833,
      "velocity": 1,
      "hand": "left"
    },
    {
      "midi": 53,
      "time": 111.667,
      "duration": 0.833,
      "velocity": 1,
      "hand": "left"
    },
    {
      "midi": 63,
      "time": 111.875,
      "duration": 0.208,
      "velocity": 1,
      "hand": "right"
    },
    {
      "midi": 65,
      "time": 111.875,
      "duration": 0.208,
      "velocity": 1,
      "hand": "right"
    },
    {
      "midi": 60,
      "time": 112.083,
      "duration": 0.417,
      "velocity": 1,
      "hand": "right"
    },
    {
      "midi": 63,
      "time": 112.292,
      "duration": 0.208,
      "velocity": 1,
      "hand": "right"
    },
    {
      "midi": 65,
      "time": 112.292,
      "duration": 0.208,
      "velocity": 1,
      "hand": "right"
    },
    {
      "midi": 58,
      "time": 112.5,
      "duration": 0.833,
      "velocity": 1,
      "hand": "left"
    },
    {
      "midi": 62,
      "time": 112.5,
      "duration": 0.833,
      "velocity": 1,
      "hand": "right"
    },
    {
      "midi": 46,
      "time": 112.917,
      "duration": 0.417,
      "velocity": 1,
      "hand": "left"
    },
    {
      "midi": 53,
      "time": 112.917,
      "duration": 0.417,
      "velocity": 1,
      "hand": "left"
    },
    {
      "midi": 65,
      "time": 112.917,
      "duration": 0.417,
      "velocity": 1,
      "hand": "right"
    },
    {
      "midi": 74,
      "time": 112.917,
      "duration": 0.417,
      "velocity": 1,
      "hand": "right"
    },
    {
      "midi": 47,
      "time": 113.333,
      "duration": 0.417,
      "velocity": 1,
      "hand": "left"
    },
    {
      "midi": 55,
      "time": 113.333,
      "duration": 0.833,
      "velocity": 1,
      "hand": "left"
    },
    {
      "midi": 62,
      "time": 113.333,
      "duration": 0.833,
      "velocity": 1,
      "hand": "right"
    },
    {
      "midi": 59,
      "time": 113.75,
      "duration": 0.417,
      "velocity": 1,
      "hand": "left"
    },
    {
      "midi": 65,
      "time": 113.75,
      "duration": 0.417,
      "velocity": 1,
      "hand": "right"
    },
    {
      "midi": 67,
      "time": 113.75,
      "duration": 0.417,
      "velocity": 1,
      "hand": "right"
    },
    {
      "midi": 74,
      "time": 113.75,
      "duration": 0.417,
      "velocity": 1,
      "hand": "right"
    },
    {
      "midi": 48,
      "time": 114.167,
      "duration": 0.417,
      "velocity": 1,
      "hand": "left"
    },
    {
      "midi": 55,
      "time": 114.167,
      "duration": 0.833,
      "velocity": 1,
      "hand": "left"
    },
    {
      "midi": 63,
      "time": 114.167,
      "duration": 0.833,
      "velocity": 1,
      "hand": "right"
    },
    {
      "midi": 60,
      "time": 114.583,
      "duration": 0.417,
      "velocity": 1,
      "hand": "right"
    },
    {
      "midi": 67,
      "time": 114.583,
      "duration": 0.417,
      "velocity": 1,
      "hand": "right"
    },
    {
      "midi": 75,
      "time": 114.583,
      "duration": 0.417,
      "velocity": 1,
      "hand": "right"
    },
    {
      "midi": 50,
      "time": 115,
      "duration": 0.417,
      "velocity": 1,
      "hand": "left"
    },
    {
      "midi": 55,
      "time": 115,
      "duration": 0.833,
      "velocity": 1,
      "hand": "left"
    },
    {
      "midi": 65,
      "time": 115,
      "duration": 0.833,
      "velocity": 1,
      "hand": "right"
    },
    {
      "midi": 62,
      "time": 115.417,
      "duration": 0.417,
      "velocity": 1,
      "hand": "right"
    },
    {
      "midi": 71,
      "time": 115.417,
      "duration": 0.417,
      "velocity": 1,
      "hand": "right"
    },
    {
      "midi": 79,
      "time": 115.417,
      "duration": 0.417,
      "velocity": 1,
      "hand": "right"
    },
    {
      "midi": 48,
      "time": 115.833,
      "duration": 0.417,
      "velocity": 1,
      "hand": "left"
    },
    {
      "midi": 55,
      "time": 115.833,
      "duration": 0.833,
      "velocity": 1,
      "hand": "left"
    },
    {
      "midi": 63,
      "time": 115.833,
      "duration": 0.833,
      "velocity": 1,
      "hand": "right"
    },
    {
      "midi": 60,
      "time": 116.25,
      "duration": 0.417,
      "velocity": 1,
      "hand": "right"
    },
    {
      "midi": 67,
      "time": 116.25,
      "duration": 0.417,
      "velocity": 1,
      "hand": "right"
    },
    {
      "midi": 75,
      "time": 116.25,
      "duration": 0.417,
      "velocity": 1,
      "hand": "right"
    },
    {
      "midi": 47,
      "time": 116.667,
      "duration": 0.833,
      "velocity": 1,
      "hand": "left"
    },
    {
      "midi": 55,
      "time": 116.667,
      "duration": 0.833,
      "velocity": 1,
      "hand": "left"
    },
    {
      "midi": 65,
      "time": 116.875,
      "duration": 0.208,
      "velocity": 1,
      "hand": "right"
    },
    {
      "midi": 67,
      "time": 116.875,
      "duration": 0.208,
      "velocity": 1,
      "hand": "right"
    },
    {
      "midi": 62,
      "time": 117.083,
      "duration": 0.417,
      "velocity": 1,
      "hand": "right"
    },
    {
      "midi": 65,
      "time": 117.292,
      "duration": 0.208,
      "velocity": 1,
      "hand": "right"
    },
    {
      "midi": 67,
      "time": 117.292,
      "duration": 0.208,
      "velocity": 1,
      "hand": "right"
    },
    {
      "midi": 60,
      "time": 117.5,
      "duration": 0.833,
      "velocity": 1,
      "hand": "right"
    },
    {
      "midi": 64,
      "time": 117.5,
      "duration": 0.833,
      "velocity": 1,
      "hand": "right"
    },
    {
      "midi": 48,
      "time": 117.917,
      "duration": 0.417,
      "velocity": 1,
      "hand": "left"
    },
    {
      "midi": 55,
      "time": 117.917,
      "duration": 0.417,
      "velocity": 1,
      "hand": "left"
    },
    {
      "midi": 67,
      "time": 117.917,
      "duration": 0.417,
      "velocity": 1,
      "hand": "right"
    },
    {
      "midi": 76,
      "time": 117.917,
      "duration": 0.417,
      "velocity": 1,
      "hand": "right"
    },
    {
      "midi": 49,
      "time": 118.333,
      "duration": 0.833,
      "velocity": 1,
      "hand": "left"
    },
    {
      "midi": 57,
      "time": 118.333,
      "duration": 0.417,
      "velocity": 1,
      "hand": "left"
    },
    {
      "midi": 67,
      "time": 118.542,
      "duration": 0.208,
      "velocity": 1,
      "hand": "right"
    },
    {
      "midi": 69,
      "time": 118.542,
      "duration": 0.208,
      "velocity": 1,
      "hand": "right"
    },
    {
      "midi": 64,
      "time": 118.75,
      "duration": 0.417,
      "velocity": 1,
      "hand": "right"
    },
    {
      "midi": 67,
      "time": 118.958,
      "duration": 0.208,
      "velocity": 1,
      "hand": "right"
    },
    {
      "midi": 69,
      "time": 118.958,
      "duration": 0.208,
      "velocity": 1,
      "hand": "right"
    },
    {
      "midi": 62,
      "time": 119.167,
      "duration": 0.833,
      "velocity": 1,
      "hand": "right"
    },
    {
      "midi": 65,
      "time": 119.167,
      "duration": 0.833,
      "velocity": 1,
      "hand": "right"
    },
    {
      "midi": 50,
      "time": 119.583,
      "duration": 0.417,
      "velocity": 1,
      "hand": "left"
    },
    {
      "midi": 57,
      "time": 119.583,
      "duration": 0.417,
      "velocity": 1,
      "hand": "left"
    },
    {
      "midi": 69,
      "time": 119.583,
      "duration": 0.417,
      "velocity": 1,
      "hand": "right"
    },
    {
      "midi": 77,
      "time": 119.583,
      "duration": 0.417,
      "velocity": 1,
      "hand": "right"
    },
    {
      "midi": 49,
      "time": 120,
      "duration": 0.833,
      "velocity": 1,
      "hand": "left"
    },
    {
      "midi": 57,
      "time": 120,
      "duration": 0.833,
      "velocity": 1,
      "hand": "left"
    },
    {
      "midi": 64,
      "time": 120,
      "duration": 0.833,
      "velocity": 1,
      "hand": "right"
    },
    {
      "midi": 61,
      "time": 120.417,
      "duration": 0.417,
      "velocity": 1,
      "hand": "right"
    },
    {
      "midi": 67,
      "time": 120.417,
      "duration": 0.417,
      "velocity": 1,
      "hand": "right"
    },
    {
      "midi": 69,
      "time": 120.417,
      "duration": 0.417,
      "velocity": 1,
      "hand": "right"
    },
    {
      "midi": 76,
      "time": 120.417,
      "duration": 0.417,
      "velocity": 1,
      "hand": "right"
    },
    {
      "midi": 50,
      "time": 120.833,
      "duration": 0.417,
      "velocity": 1,
      "hand": "left"
    },
    {
      "midi": 57,
      "time": 120.833,
      "duration": 0.833,
      "velocity": 1,
      "hand": "left"
    },
    {
      "midi": 65,
      "time": 120.833,
      "duration": 0.833,
      "velocity": 1,
      "hand": "right"
    },
    {
      "midi": 62,
      "time": 121.25,
      "duration": 0.417,
      "velocity": 1,
      "hand": "right"
    },
    {
      "midi": 69,
      "time": 121.25,
      "duration": 0.417,
      "velocity": 1,
      "hand": "right"
    },
    {
      "midi": 77,
      "time": 121.25,
      "duration": 0.417,
      "velocity": 1,
      "hand": "right"
    },
    {
      "midi": 52,
      "time": 121.667,
      "duration": 0.417,
      "velocity": 1,
      "hand": "left"
    },
    {
      "midi": 57,
      "time": 121.667,
      "duration": 0.833,
      "velocity": 1,
      "hand": "left"
    },
    {
      "midi": 67,
      "time": 121.667,
      "duration": 0.833,
      "velocity": 1,
      "hand": "right"
    },
    {
      "midi": 64,
      "time": 122.083,
      "duration": 0.417,
      "velocity": 1,
      "hand": "right"
    },
    {
      "midi": 73,
      "time": 122.083,
      "duration": 0.417,
      "velocity": 1,
      "hand": "right"
    },
    {
      "midi": 81,
      "time": 122.083,
      "duration": 0.417,
      "velocity": 1,
      "hand": "right"
    },
    {
      "midi": 50,
      "time": 122.5,
      "duration": 0.417,
      "velocity": 1,
      "hand": "left"
    },
    {
      "midi": 57,
      "time": 122.5,
      "duration": 0.833,
      "velocity": 1,
      "hand": "left"
    },
    {
      "midi": 65,
      "time": 122.5,
      "duration": 0.833,
      "velocity": 1,
      "hand": "right"
    },
    {
      "midi": 62,
      "time": 122.917,
      "duration": 0.417,
      "velocity": 1,
      "hand": "right"
    },
    {
      "midi": 69,
      "time": 122.917,
      "duration": 0.417,
      "velocity": 1,
      "hand": "right"
    },
    {
      "midi": 77,
      "time": 122.917,
      "duration": 0.417,
      "velocity": 1,
      "hand": "right"
    },
    {
      "midi": 49,
      "time": 123.333,
      "duration": 0.417,
      "velocity": 1,
      "hand": "left"
    },
    {
      "midi": 57,
      "time": 123.333,
      "duration": 0.833,
      "velocity": 1,
      "hand": "left"
    },
    {
      "midi": 64,
      "time": 123.333,
      "duration": 0.833,
      "velocity": 1,
      "hand": "right"
    },
    {
      "midi": 61,
      "time": 123.75,
      "duration": 0.417,
      "velocity": 1,
      "hand": "right"
    },
    {
      "midi": 67,
      "time": 123.75,
      "duration": 0.417,
      "velocity": 1,
      "hand": "right"
    },
    {
      "midi": 69,
      "time": 123.75,
      "duration": 0.417,
      "velocity": 1,
      "hand": "right"
    },
    {
      "midi": 76,
      "time": 123.75,
      "duration": 0.417,
      "velocity": 1,
      "hand": "right"
    },
    {
      "midi": 50,
      "time": 124.167,
      "duration": 0.417,
      "velocity": 1,
      "hand": "left"
    },
    {
      "midi": 57,
      "time": 124.167,
      "duration": 0.833,
      "velocity": 1,
      "hand": "left"
    },
    {
      "midi": 65,
      "time": 124.167,
      "duration": 0.833,
      "velocity": 1,
      "hand": "right"
    },
    {
      "midi": 62,
      "time": 124.583,
      "duration": 0.417,
      "velocity": 1,
      "hand": "right"
    },
    {
      "midi": 69,
      "time": 124.583,
      "duration": 0.417,
      "velocity": 1,
      "hand": "right"
    },
    {
      "midi": 77,
      "time": 124.583,
      "duration": 0.417,
      "velocity": 1,
      "hand": "right"
    },
    {
      "midi": 51,
      "time": 125,
      "duration": 0.417,
      "velocity": 1,
      "hand": "left"
    },
    {
      "midi": 59,
      "time": 125,
      "duration": 0.833,
      "velocity": 1,
      "hand": "left"
    },
    {
      "midi": 69,
      "time": 125,
      "duration": 0.833,
      "velocity": 1,
      "hand": "right"
    },
    {
      "midi": 63,
      "time": 125.417,
      "duration": 0.417,
      "velocity": 1,
      "hand": "right"
    },
    {
      "midi": 78,
      "time": 125.417,
      "duration": 0.417,
      "velocity": 1,
      "hand": "right"
    },
    {
      "midi": 83,
      "time": 125.417,
      "duration": 0.417,
      "velocity": 1,
      "hand": "right"
    },
    {
      "midi": 52,
      "time": 125.833,
      "duration": 0.417,
      "velocity": 1,
      "hand": "left"
    },
    {
      "midi": 59,
      "time": 125.833,
      "duration": 0.833,
      "velocity": 1,
      "hand": "left"
    },
    {
      "midi": 67,
      "time": 125.833,
      "duration": 0.833,
      "velocity": 1,
      "hand": "right"
    },
    {
      "midi": 64,
      "time": 126.25,
      "duration": 0.417,
      "velocity": 1,
      "hand": "right"
    },
    {
      "midi": 71,
      "time": 126.25,
      "duration": 0.417,
      "velocity": 1,
      "hand": "right"
    },
    {
      "midi": 79,
      "time": 126.25,
      "duration": 0.417,
      "velocity": 1,
      "hand": "right"
    },
    {
      "midi": 51,
      "time": 126.667,
      "duration": 0.417,
      "velocity": 1,
      "hand": "left"
    },
    {
      "midi": 59,
      "time": 126.667,
      "duration": 0.833,
      "velocity": 1,
      "hand": "left"
    },
    {
      "midi": 66,
      "time": 126.667,
      "duration": 0.833,
      "velocity": 1,
      "hand": "right"
    },
    {
      "midi": 63,
      "time": 127.083,
      "duration": 0.417,
      "velocity": 1,
      "hand": "right"
    },
    {
      "midi": 69,
      "time": 127.083,
      "duration": 0.417,
      "velocity": 1,
      "hand": "right"
    },
    {
      "midi": 71,
      "time": 127.083,
      "duration": 0.417,
      "velocity": 1,
      "hand": "right"
    },
    {
      "midi": 78,
      "time": 127.083,
      "duration": 0.417,
      "velocity": 1,
      "hand": "right"
    },
    {
      "midi": 52,
      "time": 127.5,
      "duration": 0.417,
      "velocity": 1,
      "hand": "left"
    },
    {
      "midi": 59,
      "time": 127.5,
      "duration": 0.833,
      "velocity": 1,
      "hand": "left"
    },
    {
      "midi": 67,
      "time": 127.5,
      "duration": 0.833,
      "velocity": 1,
      "hand": "right"
    },
    {
      "midi": 64,
      "time": 127.917,
      "duration": 0.417,
      "velocity": 1,
      "hand": "right"
    },
    {
      "midi": 71,
      "time": 127.917,
      "duration": 0.417,
      "velocity": 1,
      "hand": "right"
    },
    {
      "midi": 79,
      "time": 127.917,
      "duration": 0.417,
      "velocity": 1,
      "hand": "right"
    },
    {
      "midi": 53,
      "time": 128.333,
      "duration": 0.417,
      "velocity": 1,
      "hand": "left"
    },
    {
      "midi": 61,
      "time": 128.333,
      "duration": 0.833,
      "velocity": 1,
      "hand": "right"
    },
    {
      "midi": 71,
      "time": 128.333,
      "duration": 0.833,
      "velocity": 1,
      "hand": "right"
    },
    {
      "midi": 65,
      "time": 128.75,
      "duration": 0.417,
      "velocity": 1,
      "hand": "right"
    },
    {
      "midi": 80,
      "time": 128.75,
      "duration": 0.417,
      "velocity": 1,
      "hand": "right"
    },
    {
      "midi": 85,
      "time": 128.75,
      "duration": 0.417,
      "velocity": 1,
      "hand": "right"
    },
    {
      "midi": 54,
      "time": 129.167,
      "duration": 0.417,
      "velocity": 1,
      "hand": "left"
    },
    {
      "midi": 61,
      "time": 129.167,
      "duration": 0.833,
      "velocity": 1,
      "hand": "right"
    },
    {
      "midi": 69,
      "time": 129.167,
      "duration": 0.833,
      "velocity": 1,
      "hand": "right"
    },
    {
      "midi": 66,
      "time": 129.583,
      "duration": 0.417,
      "velocity": 1,
      "hand": "right"
    },
    {
      "midi": 73,
      "time": 129.583,
      "duration": 0.417,
      "velocity": 1,
      "hand": "right"
    },
    {
      "midi": 81,
      "time": 129.583,
      "duration": 0.417,
      "velocity": 1,
      "hand": "right"
    },
    {
      "midi": 54,
      "time": 130,
      "duration": 0.417,
      "velocity": 1,
      "hand": "left"
    },
    {
      "midi": 62,
      "time": 130,
      "duration": 0.833,
      "velocity": 1,
      "hand": "right"
    },
    {
      "midi": 72,
      "time": 130,
      "duration": 0.833,
      "velocity": 1,
      "hand": "right"
    },
    {
      "midi": 66,
      "time": 130.417,
      "duration": 0.417,
      "velocity": 1,
      "hand": "right"
    },
    {
      "midi": 81,
      "time": 130.417,
      "duration": 0.417,
      "velocity": 1,
      "hand": "right"
    },
    {
      "midi": 86,
      "time": 130.417,
      "duration": 0.417,
      "velocity": 1,
      "hand": "right"
    },
    {
      "midi": 55,
      "time": 130.833,
      "duration": 0.417,
      "velocity": 1,
      "hand": "left"
    },
    {
      "midi": 62,
      "time": 130.833,
      "duration": 0.833,
      "velocity": 1,
      "hand": "right"
    },
    {
      "midi": 71,
      "time": 130.833,
      "duration": 0.833,
      "velocity": 1,
      "hand": "right"
    },
    {
      "midi": 67,
      "time": 131.25,
      "duration": 0.417,
      "velocity": 1,
      "hand": "right"
    },
    {
      "midi": 74,
      "time": 131.25,
      "duration": 0.417,
      "velocity": 1,
      "hand": "right"
    },
    {
      "midi": 83,
      "time": 131.25,
      "duration": 0.417,
      "velocity": 1,
      "hand": "right"
    },
    {
      "midi": 54,
      "time": 131.667,
      "duration": 0.417,
      "velocity": 1,
      "hand": "left"
    },
    {
      "midi": 62,
      "time": 131.667,
      "duration": 0.833,
      "velocity": 1,
      "hand": "right"
    },
    {
      "midi": 72,
      "time": 131.667,
      "duration": 0.833,
      "velocity": 1,
      "hand": "right"
    },
    {
      "midi": 66,
      "time": 132.083,
      "duration": 0.417,
      "velocity": 1,
      "hand": "right"
    },
    {
      "midi": 81,
      "time": 132.083,
      "duration": 0.417,
      "velocity": 1,
      "hand": "right"
    },
    {
      "midi": 86,
      "time": 132.083,
      "duration": 0.417,
      "velocity": 1,
      "hand": "right"
    },
    {
      "midi": 55,
      "time": 132.5,
      "duration": 0.417,
      "velocity": 1,
      "hand": "left"
    },
    {
      "midi": 62,
      "time": 132.5,
      "duration": 0.833,
      "velocity": 1,
      "hand": "right"
    },
    {
      "midi": 71,
      "time": 132.5,
      "duration": 0.833,
      "velocity": 1,
      "hand": "right"
    },
    {
      "midi": 67,
      "time": 132.917,
      "duration": 0.417,
      "velocity": 1,
      "hand": "right"
    },
    {
      "midi": 74,
      "time": 132.917,
      "duration": 0.417,
      "velocity": 1,
      "hand": "right"
    },
    {
      "midi": 83,
      "time": 132.917,
      "duration": 0.417,
      "velocity": 1,
      "hand": "right"
    },
    {
      "midi": 67,
      "time": 133.333,
      "duration": 0.417,
      "velocity": 1,
      "hand": "right"
    },
    {
      "midi": 70,
      "time": 133.333,
      "duration": 0.417,
      "velocity": 1,
      "hand": "right"
    },
    {
      "midi": 74,
      "time": 133.333,
      "duration": 0.417,
      "velocity": 1,
      "hand": "right"
    },
    {
      "midi": 88,
      "time": 133.333,
      "duration": 0.208,
      "velocity": 1,
      "hand": "right"
    },
    {
      "midi": 86,
      "time": 133.542,
      "duration": 0.208,
      "velocity": 1,
      "hand": "right"
    },
    {
      "midi": 82,
      "time": 133.75,
      "duration": 0.208,
      "velocity": 1,
      "hand": "right"
    },
    {
      "midi": 81,
      "time": 133.958,
      "duration": 0.208,
      "velocity": 1,
      "hand": "right"
    },
    {
      "midi": 76,
      "time": 134.167,
      "duration": 0.208,
      "velocity": 1,
      "hand": "right"
    },
    {
      "midi": 79,
      "time": 134.167,
      "duration": 0.417,
      "velocity": 1,
      "hand": "right"
    },
    {
      "midi": 74,
      "time": 134.375,
      "duration": 0.208,
      "velocity": 1,
      "hand": "right"
    },
    {
      "midi": 70,
      "time": 134.583,
      "duration": 0.208,
      "velocity": 1,
      "hand": "right"
    },
    {
      "midi": 69,
      "time": 134.792,
      "duration": 0.208,
      "velocity": 1,
      "hand": "right"
    },
    {
      "midi": 64,
      "time": 135,
      "duration": 0.208,
      "velocity": 1,
      "hand": "right"
    },
    {
      "midi": 67,
      "time": 135,
      "duration": 0.417,
      "velocity": 1,
      "hand": "right"
    },
    {
      "midi": 62,
      "time": 135.208,
      "duration": 0.208,
      "velocity": 1,
      "hand": "right"
    },
    {
      "midi": 58,
      "time": 135.417,
      "duration": 0.208,
      "velocity": 1,
      "hand": "left"
    },
    {
      "midi": 57,
      "time": 135.625,
      "duration": 0.208,
      "velocity": 1,
      "hand": "left"
    },
    {
      "midi": 52,
      "time": 135.833,
      "duration": 0.208,
      "velocity": 1,
      "hand": "left"
    },
    {
      "midi": 55,
      "time": 135.833,
      "duration": 0.417,
      "velocity": 1,
      "hand": "left"
    },
    {
      "midi": 50,
      "time": 136.042,
      "duration": 0.208,
      "velocity": 1,
      "hand": "left"
    },
    {
      "midi": 46,
      "time": 136.25,
      "duration": 0.208,
      "velocity": 1,
      "hand": "left"
    },
    {
      "midi": 45,
      "time": 136.458,
      "duration": 0.208,
      "velocity": 1,
      "hand": "left"
    },
    {
      "midi": 43,
      "time": 136.667,
      "duration": 0.417,
      "velocity": 1,
      "hand": "left"
    },
    {
      "midi": 43,
      "time": 137.083,
      "duration": 0.417,
      "velocity": 1,
      "hand": "left"
    },
    {
      "midi": 44,
      "time": 137.5,
      "duration": 0.208,
      "velocity": 1,
      "hand": "left"
    },
    {
      "midi": 62,
      "time": 137.5,
      "duration": 1.25,
      "velocity": 1,
      "hand": "right"
    },
    {
      "midi": 64,
      "time": 137.5,
      "duration": 1.25,
      "velocity": 1,
      "hand": "right"
    },
    {
      "midi": 45,
      "time": 137.708,
      "duration": 0.208,
      "velocity": 1,
      "hand": "left"
    },
    {
      "midi": 46,
      "time": 137.917,
      "duration": 0.208,
      "velocity": 1,
      "hand": "left"
    },
    {
      "midi": 44,
      "time": 138.125,
      "duration": 0.208,
      "velocity": 1,
      "hand": "left"
    },
    {
      "midi": 45,
      "time": 138.333,
      "duration": 0.417,
      "velocity": 1,
      "hand": "left"
    },
    {
      "midi": 45,
      "time": 138.75,
      "duration": 0.417,
      "velocity": 1,
      "hand": "left"
    },
    {
      "midi": 55,
      "time": 138.75,
      "duration": 0.417,
      "velocity": 1,
      "hand": "left"
    },
    {
      "midi": 61,
      "time": 138.75,
      "duration": 0.417,
      "velocity": 1,
      "hand": "right"
    },
    {
      "midi": 64,
      "time": 138.75,
      "duration": 0.417,
      "velocity": 1,
      "hand": "right"
    },
    {
      "midi": 69,
      "time": 138.75,
      "duration": 0.417,
      "velocity": 1,
      "hand": "right"
    },
    {
      "midi": 50,
      "time": 139.167,
      "duration": 0.417,
      "velocity": 1,
      "hand": "left"
    },
    {
      "midi": 54,
      "time": 139.167,
      "duration": 0.417,
      "velocity": 1,
      "hand": "left"
    },
    {
      "midi": 62,
      "time": 139.167,
      "duration": 0.417,
      "velocity": 1,
      "hand": "right"
    },
    {
      "midi": 69,
      "time": 139.167,
      "duration": 0.417,
      "velocity": 1,
      "hand": "right"
    },
    {
      "midi": 74,
      "time": 139.167,
      "duration": 0.417,
      "velocity": 1,
      "hand": "right"
    },
    {
      "midi": 46,
      "time": 140,
      "duration": 1.667,
      "velocity": 1,
      "hand": "left"
    },
    {
      "midi": 54,
      "time": 140,
      "duration": 0.833,
      "velocity": 1,
      "hand": "left"
    },
    {
      "midi": 58,
      "time": 140,
      "duration": 1.667,
      "velocity": 1,
      "hand": "left"
    },
    {
      "midi": 74,
      "time": 140,
      "duration": 1.667,
      "velocity": 1,
      "hand": "right"
    },
    {
      "midi": 78,
      "time": 140,
      "duration": 0.833,
      "velocity": 1,
      "hand": "right"
    },
    {
      "midi": 86,
      "time": 140,
      "duration": 1.667,
      "velocity": 1,
      "hand": "right"
    },
    {
      "midi": 55,
      "time": 140.833,
      "duration": 0.833,
      "velocity": 1,
      "hand": "left"
    },
    {
      "midi": 79,
      "time": 140.833,
      "duration": 0.833,
      "velocity": 1,
      "hand": "right"
    },
    {
      "midi": 48,
      "time": 141.667,
      "duration": 1.667,
      "velocity": 1,
      "hand": "left"
    },
    {
      "midi": 56,
      "time": 141.667,
      "duration": 0.833,
      "velocity": 1,
      "hand": "left"
    },
    {
      "midi": 60,
      "time": 141.667,
      "duration": 1.667,
      "velocity": 1,
      "hand": "right"
    },
    {
      "midi": 72,
      "time": 141.667,
      "duration": 1.667,
      "velocity": 1,
      "hand": "right"
    },
    {
      "midi": 76,
      "time": 141.667,
      "duration": 0.833,
      "velocity": 1,
      "hand": "right"
    },
    {
      "midi": 84,
      "time": 141.667,
      "duration": 1.667,
      "velocity": 1,
      "hand": "right"
    },
    {
      "midi": 57,
      "time": 142.5,
      "duration": 0.833,
      "velocity": 1,
      "hand": "left"
    },
    {
      "midi": 77,
      "time": 142.5,
      "duration": 0.833,
      "velocity": 1,
      "hand": "right"
    },
    {
      "midi": 49,
      "time": 143.333,
      "duration": 0.833,
      "velocity": 1,
      "hand": "left"
    },
    {
      "midi": 57,
      "time": 143.333,
      "duration": 0.833,
      "velocity": 1,
      "hand": "left"
    },
    {
      "midi": 61,
      "time": 143.333,
      "duration": 0.833,
      "velocity": 1,
      "hand": "right"
    },
    {
      "midi": 69,
      "time": 143.333,
      "duration": 0.625,
      "velocity": 1,
      "hand": "right"
    },
    {
      "midi": 77,
      "time": 143.333,
      "duration": 0.833,
      "velocity": 1,
      "hand": "right"
    },
    {
      "midi": 81,
      "time": 143.333,
      "duration": 0.625,
      "velocity": 1,
      "hand": "right"
    },
    {
      "midi": 70,
      "time": 143.958,
      "duration": 0.208,
      "velocity": 1,
      "hand": "right"
    },
    {
      "midi": 82,
      "time": 143.958,
      "duration": 0.208,
      "velocity": 1,
      "hand": "right"
    },
    {
      "midi": 50,
      "time": 144.167,
      "duration": 0.833,
      "velocity": 1,
      "hand": "left"
    },
    {
      "midi": 58,
      "time": 144.167,
      "duration": 0.833,
      "velocity": 1,
      "hand": "left"
    },
    {
      "midi": 62,
      "time": 144.167,
      "duration": 0.833,
      "velocity": 1,
      "hand": "right"
    },
    {
      "midi": 67,
      "time": 144.167,
      "duration": 0.833,
      "velocity": 1,
      "hand": "right"
    },
    {
      "midi": 77,
      "time": 144.167,
      "duration": 0.833,
      "velocity": 1,
      "hand": "right"
    },
    {
      "midi": 79,
      "time": 144.167,
      "duration": 0.833,
      "velocity": 1,
      "hand": "right"
    },
    {
      "midi": 48,
      "time": 145,
      "duration": 0.833,
      "velocity": 1,
      "hand": "left"
    },
    {
      "midi": 55,
      "time": 145,
      "duration": 0.833,
      "velocity": 1,
      "hand": "left"
    },
    {
      "midi": 58,
      "time": 145,
      "duration": 0.833,
      "velocity": 1,
      "hand": "left"
    },
    {
      "midi": 64,
      "time": 145,
      "duration": 0.833,
      "velocity": 1,
      "hand": "right"
    },
    {
      "midi": 69,
      "time": 145,
      "duration": 0.833,
      "velocity": 1,
      "hand": "right"
    },
    {
      "midi": 41,
      "time": 145.833,
      "duration": 0.417,
      "velocity": 1,
      "hand": "left"
    },
    {
      "midi": 48,
      "time": 145.833,
      "duration": 0.417,
      "velocity": 1,
      "hand": "left"
    },
    {
      "midi": 57,
      "time": 145.833,
      "duration": 0.417,
      "velocity": 1,
      "hand": "left"
    },
    {
      "midi": 65,
      "time": 145.833,
      "duration": 0.417,
      "velocity": 1,
      "hand": "right"
    },
    {
      "midi": 29,
      "time": 146.667,
      "duration": 0.417,
      "velocity": 1,
      "hand": "left"
    },
    {
      "midi": 41,
      "time": 146.667,
      "duration": 0.417,
      "velocity": 1,
      "hand": "left"
    },
    {
      "midi": 57,
      "time": 147.083,
      "duration": 0.417,
      "velocity": 1,
      "hand": "left"
    },
    {
      "midi": 60,
      "time": 147.083,
      "duration": 0.417,
      "velocity": 1,
      "hand": "right"
    },
    {
      "midi": 41,
      "time": 147.5,
      "duration": 1.667,
      "velocity": 1,
      "hand": "left"
    },
    {
      "midi": 48,
      "time": 147.5,
      "duration": 1.667,
      "velocity": 1,
      "hand": "left"
    },
    {
      "midi": 55,
      "time": 147.5,
      "duration": 1.667,
      "velocity": 1,
      "hand": "left"
    },
    {
      "midi": 58,
      "time": 147.5,
      "duration": 1.667,
      "velocity": 1,
      "hand": "left"
    },
    {
      "midi": 65,
      "time": 147.5,
      "duration": 0.417,
      "velocity": 1,
      "hand": "right"
    },
    {
      "midi": 64,
      "time": 147.917,
      "duration": 0.417,
      "velocity": 1,
      "hand": "right"
    },
    {
      "midi": 62,
      "time": 148.333,
      "duration": 0.417,
      "velocity": 1,
      "hand": "right"
    },
    {
      "midi": 64,
      "time": 148.75,
      "duration": 0.417,
      "velocity": 1,
      "hand": "right"
    },
    {
      "midi": 41,
      "time": 149.167,
      "duration": 0.833,
      "velocity": 1,
      "hand": "left"
    },
    {
      "midi": 48,
      "time": 149.167,
      "duration": 0.833,
      "velocity": 1,
      "hand": "left"
    },
    {
      "midi": 53,
      "time": 149.167,
      "duration": 0.833,
      "velocity": 1,
      "hand": "left"
    },
    {
      "midi": 57,
      "time": 149.167,
      "duration": 0.833,
      "velocity": 1,
      "hand": "left"
    },
    {
      "midi": 65,
      "time": 149.167,
      "duration": 0.833,
      "velocity": 1,
      "hand": "right"
    },
    {
      "midi": 65,
      "time": 150,
      "duration": 0.417,
      "velocity": 1,
      "hand": "right"
    },
    {
      "midi": 69,
      "time": 150,
      "duration": 0.417,
      "velocity": 1,
      "hand": "right"
    },
    {
      "midi": 72,
      "time": 150,
      "duration": 0.417,
      "velocity": 1,
      "hand": "right"
    },
    {
      "midi": 48,
      "time": 150.417,
      "duration": 0.417,
      "velocity": 1,
      "hand": "left"
    },
    {
      "midi": 53,
      "time": 150.833,
      "duration": 0.417,
      "velocity": 1,
      "hand": "left"
    },
    {
      "midi": 58,
      "time": 150.833,
      "duration": 1.667,
      "velocity": 1,
      "hand": "left"
    },
    {
      "midi": 60,
      "time": 150.833,
      "duration": 1.667,
      "velocity": 1,
      "hand": "right"
    },
    {
      "midi": 52,
      "time": 151.25,
      "duration": 0.417,
      "velocity": 1,
      "hand": "left"
    },
    {
      "midi": 50,
      "time": 151.667,
      "duration": 0.417,
      "velocity": 1,
      "hand": "left"
    },
    {
      "midi": 52,
      "time": 152.083,
      "duration": 0.417,
      "velocity": 1,
      "hand": "left"
    },
    {
      "midi": 53,
      "time": 152.5,
      "duration": 0.417,
      "velocity": 1,
      "hand": "left"
    },
    {
      "midi": 57,
      "time": 152.5,
      "duration": 0.417,
      "velocity": 1,
      "hand": "left"
    },
    {
      "midi": 60,
      "time": 152.5,
      "duration": 0.417,
      "velocity": 1,
      "hand": "right"
    },
    {
      "midi": 57,
      "time": 153.333,
      "duration": 0.417,
      "velocity": 1,
      "hand": "left"
    },
    {
      "midi": 50,
      "time": 153.75,
      "duration": 0.417,
      "velocity": 1,
      "hand": "left"
    },
    {
      "midi": 62,
      "time": 153.75,
      "duration": 0.417,
      "velocity": 1,
      "hand": "right"
    },
    {
      "midi": 41,
      "time": 154.167,
      "duration": 0.417,
      "velocity": 1,
      "hand": "left"
    },
    {
      "midi": 69,
      "time": 154.167,
      "duration": 0.417,
      "velocity": 1,
      "hand": "right"
    },
    {
      "midi": 73,
      "time": 154.167,
      "duration": 0.417,
      "velocity": 1,
      "hand": "right"
    },
    {
      "midi": 74,
      "time": 154.583,
      "duration": 0.417,
      "velocity": 1,
      "hand": "right"
    },
    {
      "midi": 58,
      "time": 155,
      "duration": 0.417,
      "velocity": 1,
      "hand": "left"
    },
    {
      "midi": 50,
      "time": 155.417,
      "duration": 0.417,
      "velocity": 1,
      "hand": "left"
    },
    {
      "midi": 62,
      "time": 155.417,
      "duration": 0.417,
      "velocity": 1,
      "hand": "right"
    },
    {
      "midi": 43,
      "time": 155.833,
      "duration": 0.417,
      "velocity": 1,
      "hand": "left"
    },
    {
      "midi": 70,
      "time": 155.833,
      "duration": 0.417,
      "velocity": 1,
      "hand": "right"
    },
    {
      "midi": 73,
      "time": 155.833,
      "duration": 0.417,
      "velocity": 1,
      "hand": "right"
    },
    {
      "midi": 74,
      "time": 156.25,
      "duration": 0.417,
      "velocity": 1,
      "hand": "right"
    },
    {
      "midi": 59,
      "time": 156.667,
      "duration": 0.417,
      "velocity": 1,
      "hand": "left"
    },
    {
      "midi": 52,
      "time": 157.083,
      "duration": 0.417,
      "velocity": 1,
      "hand": "left"
    },
    {
      "midi": 64,
      "time": 157.083,
      "duration": 0.417,
      "velocity": 1,
      "hand": "right"
    },
    {
      "midi": 44,
      "time": 157.5,
      "duration": 0.417,
      "velocity": 1,
      "hand": "left"
    },
    {
      "midi": 71,
      "time": 157.5,
      "duration": 0.417,
      "velocity": 1,
      "hand": "right"
    },
    {
      "midi": 75,
      "time": 157.5,
      "duration": 0.417,
      "velocity": 1,
      "hand": "right"
    },
    {
      "midi": 76,
      "time": 157.917,
      "duration": 0.417,
      "velocity": 1,
      "hand": "right"
    },
    {
      "midi": 61,
      "time": 158.333,
      "duration": 0.417,
      "velocity": 1,
      "hand": "right"
    },
    {
      "midi": 52,
      "time": 158.75,
      "duration": 0.417,
      "velocity": 1,
      "hand": "left"
    },
    {
      "midi": 64,
      "time": 158.75,
      "duration": 0.417,
      "velocity": 1,
      "hand": "right"
    },
    {
      "midi": 45,
      "time": 159.167,
      "duration": 0.417,
      "velocity": 1,
      "hand": "left"
    },
    {
      "midi": 69,
      "time": 159.167,
      "duration": 0.417,
      "velocity": 1,
      "hand": "right"
    },
    {
      "midi": 73,
      "time": 159.167,
      "duration": 0.417,
      "velocity": 1,
      "hand": "right"
    },
    {
      "midi": 75,
      "time": 159.167,
      "duration": 0.417,
      "velocity": 1,
      "hand": "right"
    },
    {
      "midi": 76,
      "time": 159.583,
      "duration": 0.417,
      "velocity": 1,
      "hand": "right"
    },
    {
      "midi": 45,
      "time": 160,
      "duration": 0.833,
      "velocity": 1,
      "hand": "left"
    },
    {
      "midi": 53,
      "time": 160,
      "duration": 1.667,
      "velocity": 1,
      "hand": "left"
    },
    {
      "midi": 57,
      "time": 160,
      "duration": 0.833,
      "velocity": 1,
      "hand": "left"
    },
    {
      "midi": 77,
      "time": 160,
      "duration": 1.667,
      "velocity": 1,
      "hand": "right"
    },
    {
      "midi": 85,
      "time": 160,
      "duration": 0.833,
      "velocity": 1,
      "hand": "right"
    },
    {
      "midi": 89,
      "time": 160,
      "duration": 1.667,
      "velocity": 1,
      "hand": "right"
    },
    {
      "midi": 46,
      "time": 160.833,
      "duration": 0.833,
      "velocity": 1,
      "hand": "left"
    },
    {
      "midi": 58,
      "time": 160.833,
      "duration": 0.833,
      "velocity": 1,
      "hand": "left"
    },
    {
      "midi": 86,
      "time": 160.833,
      "duration": 0.833,
      "velocity": 1,
      "hand": "right"
    },
    {
      "midi": 47,
      "time": 161.667,
      "duration": 0.833,
      "velocity": 1,
      "hand": "left"
    },
    {
      "midi": 55,
      "time": 161.667,
      "duration": 1.667,
      "velocity": 1,
      "hand": "left"
    },
    {
      "midi": 59,
      "time": 161.667,
      "duration": 0.833,
      "velocity": 1,
      "hand": "left"
    },
    {
      "midi": 67,
      "time": 161.667,
      "duration": 1.667,
      "velocity": 1,
      "hand": "right"
    },
    {
      "midi": 75,
      "time": 161.667,
      "duration": 0.833,
      "velocity": 1,
      "hand": "right"
    },
    {
      "midi": 79,
      "time": 161.667,
      "duration": 1.667,
      "velocity": 1,
      "hand": "right"
    },
    {
      "midi": 48,
      "time": 162.5,
      "duration": 0.833,
      "velocity": 1,
      "hand": "left"
    },
    {
      "midi": 60,
      "time": 162.5,
      "duration": 0.833,
      "velocity": 1,
      "hand": "right"
    },
    {
      "midi": 76,
      "time": 162.5,
      "duration": 0.833,
      "velocity": 1,
      "hand": "right"
    },
    {
      "midi": 52,
      "time": 163.333,
      "duration": 0.833,
      "velocity": 1,
      "hand": "left"
    },
    {
      "midi": 60,
      "time": 163.333,
      "duration": 1.667,
      "velocity": 1,
      "hand": "right"
    },
    {
      "midi": 64,
      "time": 163.333,
      "duration": 0.833,
      "velocity": 1,
      "hand": "right"
    },
    {
      "midi": 72,
      "time": 163.333,
      "duration": 0.625,
      "velocity": 1,
      "hand": "right"
    },
    {
      "midi": 80,
      "time": 163.333,
      "duration": 0.833,
      "velocity": 1,
      "hand": "right"
    },
    {
      "midi": 84,
      "time": 163.333,
      "duration": 0.625,
      "velocity": 1,
      "hand": "right"
    },
    {
      "midi": 71,
      "time": 163.958,
      "duration": 0.208,
      "velocity": 1,
      "hand": "right"
    },
    {
      "midi": 83,
      "time": 163.958,
      "duration": 0.208,
      "velocity": 1,
      "hand": "right"
    },
    {
      "midi": 53,
      "time": 164.167,
      "duration": 0.833,
      "velocity": 1,
      "hand": "left"
    },
    {
      "midi": 65,
      "time": 164.167,
      "duration": 0.833,
      "velocity": 1,
      "hand": "right"
    },
    {
      "midi": 69,
      "time": 164.167,
      "duration": 0.833,
      "velocity": 1,
      "hand": "right"
    },
    {
      "midi": 81,
      "time": 164.167,
      "duration": 0.833,
      "velocity": 1,
      "hand": "right"
    },
    {
      "midi": 57,
      "time": 165,
      "duration": 0.833,
      "velocity": 1,
      "hand": "left"
    },
    {
      "midi": 65,
      "time": 165,
      "duration": 0.625,
      "velocity": 1,
      "hand": "right"
    },
    {
      "midi": 73,
      "time": 165,
      "duration": 0.833,
      "velocity": 1,
      "hand": "right"
    },
    {
      "midi": 77,
      "time": 165,
      "duration": 0.625,
      "velocity": 1,
      "hand": "right"
    },
    {
      "midi": 64,
      "time": 165.625,
      "duration": 0.208,
      "velocity": 1,
      "hand": "right"
    },
    {
      "midi": 76,
      "time": 165.625,
      "duration": 0.208,
      "velocity": 1,
      "hand": "right"
    },
    {
      "midi": 58,
      "time": 165.833,
      "duration": 0.417,
      "velocity": 1,
      "hand": "left"
    },
    {
      "midi": 62,
      "time": 165.833,
      "duration": 0.417,
      "velocity": 1,
      "hand": "right"
    },
    {
      "midi": 74,
      "time": 165.833,
      "duration": 0.417,
      "velocity": 1,
      "hand": "right"
    },
    {
      "midi": 58,
      "time": 166.667,
      "duration": 0.833,
      "velocity": 1,
      "hand": "left"
    },
    {
      "midi": 62,
      "time": 167.083,
      "duration": 0.417,
      "velocity": 1,
      "hand": "right"
    },
    {
      "midi": 57,
      "time": 167.5,
      "duration": 1.667,
      "velocity": 1,
      "hand": "left"
    },
    {
      "midi": 60,
      "time": 167.5,
      "duration": 1.667,
      "velocity": 1,
      "hand": "right"
    },
    {
      "midi": 67,
      "time": 167.5,
      "duration": 0.417,
      "velocity": 1,
      "hand": "right"
    },
    {
      "midi": 66,
      "time": 167.917,
      "duration": 0.417,
      "velocity": 1,
      "hand": "right"
    },
    {
      "midi": 50,
      "time": 168.333,
      "duration": 1.25,
      "velocity": 1,
      "hand": "left"
    },
    {
      "midi": 64,
      "time": 168.333,
      "duration": 0.417,
      "velocity": 1,
      "hand": "right"
    },
    {
      "midi": 66,
      "time": 168.75,
      "duration": 0.417,
      "velocity": 1,
      "hand": "right"
    },
    {
      "midi": 43,
      "time": 169.167,
      "duration": 0.417,
      "velocity": 1,
      "hand": "left"
    },
    {
      "midi": 55,
      "time": 169.167,
      "duration": 0.417,
      "velocity": 1,
      "hand": "left"
    },
    {
      "midi": 58,
      "time": 169.167,
      "duration": 0.417,
      "velocity": 1,
      "hand": "left"
    },
    {
      "midi": 62,
      "time": 169.167,
      "duration": 0.417,
      "velocity": 1,
      "hand": "right"
    },
    {
      "midi": 67,
      "time": 169.167,
      "duration": 0.417,
      "velocity": 1,
      "hand": "right"
    },
    {
      "midi": 70,
      "time": 170,
      "duration": 0.833,
      "velocity": 1,
      "hand": "right"
    },
    {
      "midi": 74,
      "time": 170.417,
      "duration": 0.417,
      "velocity": 1,
      "hand": "right"
    },
    {
      "midi": 69,
      "time": 170.833,
      "duration": 1.667,
      "velocity": 1,
      "hand": "right"
    },
    {
      "midi": 72,
      "time": 170.833,
      "duration": 1.667,
      "velocity": 1,
      "hand": "right"
    },
    {
      "midi": 79,
      "time": 170.833,
      "duration": 0.417,
      "velocity": 1,
      "hand": "right"
    },
    {
      "midi": 78,
      "time": 171.25,
      "duration": 0.417,
      "velocity": 1,
      "hand": "right"
    },
    {
      "midi": 62,
      "time": 171.667,
      "duration": 1.25,
      "velocity": 1,
      "hand": "right"
    },
    {
      "midi": 76,
      "time": 171.667,
      "duration": 0.417,
      "velocity": 1,
      "hand": "right"
    },
    {
      "midi": 78,
      "time": 172.083,
      "duration": 0.417,
      "velocity": 1,
      "hand": "right"
    },
    {
      "midi": 55,
      "time": 172.5,
      "duration": 0.417,
      "velocity": 1,
      "hand": "left"
    },
    {
      "midi": 67,
      "time": 172.5,
      "duration": 0.417,
      "velocity": 1,
      "hand": "right"
    },
    {
      "midi": 70,
      "time": 172.5,
      "duration": 0.417,
      "velocity": 1,
      "hand": "right"
    },
    {
      "midi": 74,
      "time": 172.5,
      "duration": 0.417,
      "velocity": 1,
      "hand": "right"
    },
    {
      "midi": 79,
      "time": 172.5,
      "duration": 0.417,
      "velocity": 1,
      "hand": "right"
    },
    {
      "midi": 47,
      "time": 173.333,
      "duration": 0.833,
      "velocity": 1,
      "hand": "left"
    },
    {
      "midi": 55,
      "time": 173.333,
      "duration": 1.667,
      "velocity": 1,
      "hand": "left"
    },
    {
      "midi": 59,
      "time": 173.333,
      "duration": 0.833,
      "velocity": 1,
      "hand": "left"
    },
    {
      "midi": 79,
      "time": 173.333,
      "duration": 1.667,
      "velocity": 1,
      "hand": "right"
    },
    {
      "midi": 87,
      "time": 173.333,
      "duration": 0.833,
      "velocity": 1,
      "hand": "right"
    },
    {
      "midi": 91,
      "time": 173.333,
      "duration": 1.667,
      "velocity": 1,
      "hand": "right"
    },
    {
      "midi": 48,
      "time": 174.167,
      "duration": 0.833,
      "velocity": 1,
      "hand": "left"
    },
    {
      "midi": 60,
      "time": 174.167,
      "duration": 0.833,
      "velocity": 1,
      "hand": "right"
    },
    {
      "midi": 88,
      "time": 174.167,
      "duration": 0.833,
      "velocity": 1,
      "hand": "right"
    },
    {
      "midi": 49,
      "time": 175,
      "duration": 0.833,
      "velocity": 1,
      "hand": "left"
    },
    {
      "midi": 57,
      "time": 175,
      "duration": 1.667,
      "velocity": 1,
      "hand": "left"
    },
    {
      "midi": 61,
      "time": 175,
      "duration": 0.833,
      "velocity": 1,
      "hand": "right"
    },
    {
      "midi": 69,
      "time": 175,
      "duration": 1.667,
      "velocity": 1,
      "hand": "right"
    },
    {
      "midi": 77,
      "time": 175,
      "duration": 0.833,
      "velocity": 1,
      "hand": "right"
    },
    {
      "midi": 81,
      "time": 175,
      "duration": 1.667,
      "velocity": 1,
      "hand": "right"
    },
    {
      "midi": 50,
      "time": 175.833,
      "duration": 0.833,
      "velocity": 1,
      "hand": "left"
    },
    {
      "midi": 62,
      "time": 175.833,
      "duration": 0.833,
      "velocity": 1,
      "hand": "right"
    },
    {
      "midi": 78,
      "time": 175.833,
      "duration": 0.833,
      "velocity": 1,
      "hand": "right"
    },
    {
      "midi": 54,
      "time": 176.667,
      "duration": 0.833,
      "velocity": 1,
      "hand": "left"
    },
    {
      "midi": 62,
      "time": 176.667,
      "duration": 1.667,
      "velocity": 1,
      "hand": "right"
    },
    {
      "midi": 66,
      "time": 176.667,
      "duration": 0.833,
      "velocity": 1,
      "hand": "right"
    },
    {
      "midi": 74,
      "time": 176.667,
      "duration": 0.625,
      "velocity": 1,
      "hand": "right"
    },
    {
      "midi": 82,
      "time": 176.667,
      "duration": 0.833,
      "velocity": 1,
      "hand": "right"
    },
    {
      "midi": 86,
      "time": 176.667,
      "duration": 0.625,
      "velocity": 1,
      "hand": "right"
    },
    {
      "midi": 73,
      "time": 177.292,
      "duration": 0.208,
      "velocity": 1,
      "hand": "right"
    },
    {
      "midi": 85,
      "time": 177.292,
      "duration": 0.208,
      "velocity": 1,
      "hand": "right"
    },
    {
      "midi": 55,
      "time": 177.5,
      "duration": 0.833,
      "velocity": 1,
      "hand": "left"
    },
    {
      "midi": 67,
      "time": 177.5,
      "duration": 0.833,
      "velocity": 1,
      "hand": "right"
    },
    {
      "midi": 71,
      "time": 177.5,
      "duration": 0.833,
      "velocity": 1,
      "hand": "right"
    },
    {
      "midi": 83,
      "time": 177.5,
      "duration": 0.833,
      "velocity": 1,
      "hand": "right"
    },
    {
      "midi": 59,
      "time": 178.333,
      "duration": 0.833,
      "velocity": 1,
      "hand": "left"
    },
    {
      "midi": 67,
      "time": 178.333,
      "duration": 0.625,
      "velocity": 1,
      "hand": "right"
    },
    {
      "midi": 75,
      "time": 178.333,
      "duration": 0.833,
      "velocity": 1,
      "hand": "right"
    },
    {
      "midi": 79,
      "time": 178.333,
      "duration": 0.625,
      "velocity": 1,
      "hand": "right"
    },
    {
      "midi": 66,
      "time": 178.958,
      "duration": 0.208,
      "velocity": 1,
      "hand": "right"
    },
    {
      "midi": 78,
      "time": 178.958,
      "duration": 0.208,
      "velocity": 1,
      "hand": "right"
    },
    {
      "midi": 60,
      "time": 179.167,
      "duration": 0.417,
      "velocity": 1,
      "hand": "right"
    },
    {
      "midi": 64,
      "time": 179.167,
      "duration": 0.417,
      "velocity": 1,
      "hand": "right"
    },
    {
      "midi": 76,
      "time": 179.167,
      "duration": 0.417,
      "velocity": 1,
      "hand": "right"
    },
    {
      "midi": 60,
      "time": 180,
      "duration": 0.833,
      "velocity": 1,
      "hand": "right"
    },
    {
      "midi": 62,
      "time": 180.417,
      "duration": 0.417,
      "velocity": 1,
      "hand": "right"
    },
    {
      "midi": 59,
      "time": 180.833,
      "duration": 1.667,
      "velocity": 1,
      "hand": "left"
    },
    {
      "midi": 62,
      "time": 180.833,
      "duration": 1.667,
      "velocity": 1,
      "hand": "right"
    },
    {
      "midi": 67,
      "time": 180.833,
      "duration": 0.417,
      "velocity": 1,
      "hand": "right"
    },
    {
      "midi": 66,
      "time": 181.25,
      "duration": 0.417,
      "velocity": 1,
      "hand": "right"
    },
    {
      "midi": 52,
      "time": 181.667,
      "duration": 1.25,
      "velocity": 1,
      "hand": "left"
    },
    {
      "midi": 64,
      "time": 181.667,
      "duration": 0.417,
      "velocity": 1,
      "hand": "right"
    },
    {
      "midi": 66,
      "time": 182.083,
      "duration": 0.417,
      "velocity": 1,
      "hand": "right"
    },
    {
      "midi": 45,
      "time": 182.5,
      "duration": 0.417,
      "velocity": 1,
      "hand": "left"
    },
    {
      "midi": 57,
      "time": 182.5,
      "duration": 0.417,
      "velocity": 1,
      "hand": "left"
    },
    {
      "midi": 60,
      "time": 182.5,
      "duration": 0.417,
      "velocity": 1,
      "hand": "right"
    },
    {
      "midi": 64,
      "time": 182.5,
      "duration": 0.417,
      "velocity": 1,
      "hand": "right"
    },
    {
      "midi": 67,
      "time": 182.5,
      "duration": 0.417,
      "velocity": 1,
      "hand": "right"
    },
    {
      "midi": 72,
      "time": 183.333,
      "duration": 0.833,
      "velocity": 1,
      "hand": "right"
    },
    {
      "midi": 76,
      "time": 183.75,
      "duration": 0.417,
      "velocity": 1,
      "hand": "right"
    },
    {
      "midi": 71,
      "time": 184.167,
      "duration": 1.667,
      "velocity": 1,
      "hand": "right"
    },
    {
      "midi": 74,
      "time": 184.167,
      "duration": 1.667,
      "velocity": 1,
      "hand": "right"
    },
    {
      "midi": 81,
      "time": 184.167,
      "duration": 0.417,
      "velocity": 1,
      "hand": "right"
    },
    {
      "midi": 80,
      "time": 184.583,
      "duration": 0.417,
      "velocity": 1,
      "hand": "right"
    },
    {
      "midi": 64,
      "time": 185,
      "duration": 1.25,
      "velocity": 1,
      "hand": "right"
    },
    {
      "midi": 78,
      "time": 185,
      "duration": 0.417,
      "velocity": 1,
      "hand": "right"
    },
    {
      "midi": 80,
      "time": 185.417,
      "duration": 0.417,
      "velocity": 1,
      "hand": "right"
    },
    {
      "midi": 57,
      "time": 185.833,
      "duration": 0.417,
      "velocity": 1,
      "hand": "left"
    },
    {
      "midi": 69,
      "time": 185.833,
      "duration": 0.417,
      "velocity": 1,
      "hand": "right"
    },
    {
      "midi": 72,
      "time": 185.833,
      "duration": 0.417,
      "velocity": 1,
      "hand": "right"
    },
    {
      "midi": 76,
      "time": 185.833,
      "duration": 0.417,
      "velocity": 1,
      "hand": "right"
    },
    {
      "midi": 81,
      "time": 185.833,
      "duration": 0.417,
      "velocity": 1,
      "hand": "right"
    },
    {
      "midi": 72,
      "time": 186.667,
      "duration": 0.833,
      "velocity": 1,
      "hand": "right"
    },
    {
      "midi": 76,
      "time": 186.875,
      "duration": 0.208,
      "velocity": 1,
      "hand": "right"
    },
    {
      "midi": 81,
      "time": 187.083,
      "duration": 0.208,
      "velocity": 1,
      "hand": "right"
    },
    {
      "midi": 88,
      "time": 187.292,
      "duration": 0.208,
      "velocity": 1,
      "hand": "right"
    },
    {
      "midi": 71,
      "time": 187.5,
      "duration": 0.833,
      "velocity": 1,
      "hand": "right"
    },
    {
      "midi": 74,
      "time": 187.5,
      "duration": 0.833,
      "velocity": 1,
      "hand": "right"
    },
    {
      "midi": 76,
      "time": 187.5,
      "duration": 0.833,
      "velocity": 1,
      "hand": "right"
    },
    {
      "midi": 80,
      "time": 187.5,
      "duration": 0.833,
      "velocity": 1,
      "hand": "right"
    },
    {
      "midi": 57,
      "time": 187.917,
      "duration": 0.417,
      "velocity": 1,
      "hand": "left"
    },
    {
      "midi": 64,
      "time": 187.917,
      "duration": 0.417,
      "velocity": 1,
      "hand": "right"
    },
    {
      "midi": 69,
      "time": 188.333,
      "duration": 0.833,
      "velocity": 1,
      "hand": "right"
    },
    {
      "midi": 72,
      "time": 188.542,
      "duration": 0.208,
      "velocity": 1,
      "hand": "right"
    },
    {
      "midi": 76,
      "time": 188.75,
      "duration": 0.208,
      "velocity": 1,
      "hand": "right"
    },
    {
      "midi": 81,
      "time": 188.958,
      "duration": 0.208,
      "velocity": 1,
      "hand": "right"
    },
    {
      "midi": 68,
      "time": 189.167,
      "duration": 0.833,
      "velocity": 1,
      "hand": "right"
    },
    {
      "midi": 71,
      "time": 189.167,
      "duration": 0.833,
      "velocity": 1,
      "hand": "right"
    },
    {
      "midi": 74,
      "time": 189.167,
      "duration": 0.833,
      "velocity": 1,
      "hand": "right"
    },
    {
      "midi": 76,
      "time": 189.167,
      "duration": 0.833,
      "velocity": 1,
      "hand": "right"
    },
    {
      "midi": 57,
      "time": 189.583,
      "duration": 0.417,
      "velocity": 1,
      "hand": "left"
    },
    {
      "midi": 64,
      "time": 189.583,
      "duration": 0.417,
      "velocity": 1,
      "hand": "right"
    },
    {
      "midi": 72,
      "time": 190,
      "duration": 0.833,
      "velocity": 1,
      "hand": "right"
    },
    {
      "midi": 76,
      "time": 190.208,
      "duration": 0.208,
      "velocity": 1,
      "hand": "right"
    },
    {
      "midi": 81,
      "time": 190.417,
      "duration": 0.208,
      "velocity": 1,
      "hand": "right"
    },
    {
      "midi": 88,
      "time": 190.625,
      "duration": 0.208,
      "velocity": 1,
      "hand": "right"
    },
    {
      "midi": 71,
      "time": 190.833,
      "duration": 0.833,
      "velocity": 1,
      "hand": "right"
    },
    {
      "midi": 74,
      "time": 190.833,
      "duration": 0.833,
      "velocity": 1,
      "hand": "right"
    },
    {
      "midi": 76,
      "time": 190.833,
      "duration": 0.833,
      "velocity": 1,
      "hand": "right"
    },
    {
      "midi": 80,
      "time": 190.833,
      "duration": 0.833,
      "velocity": 1,
      "hand": "right"
    },
    {
      "midi": 57,
      "time": 191.25,
      "duration": 0.417,
      "velocity": 1,
      "hand": "left"
    },
    {
      "midi": 64,
      "time": 191.25,
      "duration": 0.417,
      "velocity": 1,
      "hand": "right"
    },
    {
      "midi": 69,
      "time": 191.667,
      "duration": 0.833,
      "velocity": 1,
      "hand": "right"
    },
    {
      "midi": 72,
      "time": 191.875,
      "duration": 0.208,
      "velocity": 1,
      "hand": "right"
    },
    {
      "midi": 76,
      "time": 192.083,
      "duration": 0.208,
      "velocity": 1,
      "hand": "right"
    },
    {
      "midi": 81,
      "time": 192.292,
      "duration": 0.208,
      "velocity": 1,
      "hand": "right"
    },
    {
      "midi": 68,
      "time": 192.5,
      "duration": 0.833,
      "velocity": 1,
      "hand": "right"
    },
    {
      "midi": 71,
      "time": 192.5,
      "duration": 0.833,
      "velocity": 1,
      "hand": "right"
    },
    {
      "midi": 74,
      "time": 192.5,
      "duration": 0.833,
      "velocity": 1,
      "hand": "right"
    },
    {
      "midi": 76,
      "time": 192.5,
      "duration": 0.833,
      "velocity": 1,
      "hand": "right"
    },
    {
      "midi": 57,
      "time": 192.917,
      "duration": 0.417,
      "velocity": 1,
      "hand": "left"
    },
    {
      "midi": 64,
      "time": 192.917,
      "duration": 0.417,
      "velocity": 1,
      "hand": "right"
    },
    {
      "midi": 57,
      "time": 193.333,
      "duration": 0.417,
      "velocity": 1,
      "hand": "left"
    },
    {
      "midi": 81,
      "time": 193.333,
      "duration": 0.208,
      "velocity": 1,
      "hand": "right"
    },
    {
      "midi": 88,
      "time": 193.542,
      "duration": 0.208,
      "velocity": 1,
      "hand": "right"
    },
    {
      "midi": 73,
      "time": 193.75,
      "duration": 0.417,
      "velocity": 1,
      "hand": "right"
    },
    {
      "midi": 90,
      "time": 193.75,
      "duration": 0.208,
      "velocity": 1,
      "hand": "right"
    },
    {
      "midi": 88,
      "time": 193.958,
      "duration": 0.208,
      "velocity": 1,
      "hand": "right"
    },
    {
      "midi": 74,
      "time": 194.167,
      "duration": 0.417,
      "velocity": 1,
      "hand": "right"
    },
    {
      "midi": 80,
      "time": 194.167,
      "duration": 0.208,
      "velocity": 1,
      "hand": "right"
    },
    {
      "midi": 88,
      "time": 194.375,
      "duration": 0.208,
      "velocity": 1,
      "hand": "right"
    },
    {
      "midi": 64,
      "time": 194.583,
      "duration": 0.417,
      "velocity": 1,
      "hand": "right"
    },
    {
      "midi": 90,
      "time": 194.583,
      "duration": 0.208,
      "velocity": 1,
      "hand": "right"
    },
    {
      "midi": 88,
      "time": 194.792,
      "duration": 0.208,
      "velocity": 1,
      "hand": "right"
    },
    {
      "midi": 57,
      "time": 195,
      "duration": 0.417,
      "velocity": 1,
      "hand": "left"
    },
    {
      "midi": 83,
      "time": 195,
      "duration": 0.208,
      "velocity": 1,
      "hand": "right"
    },
    {
      "midi": 88,
      "time": 195.208,
      "duration": 0.208,
      "velocity": 1,
      "hand": "right"
    },
    {
      "midi": 68,
      "time": 195.417,
      "duration": 0.417,
      "velocity": 1,
      "hand": "right"
    },
    {
      "midi": 90,
      "time": 195.417,
      "duration": 0.208,
      "velocity": 1,
      "hand": "right"
    },
    {
      "midi": 88,
      "time": 195.625,
      "duration": 0.208,
      "velocity": 1,
      "hand": "right"
    },
    {
      "midi": 69,
      "time": 195.833,
      "duration": 0.417,
      "velocity": 1,
      "hand": "right"
    },
    {
      "midi": 85,
      "time": 195.833,
      "duration": 0.208,
      "velocity": 1,
      "hand": "right"
    },
    {
      "midi": 88,
      "time": 196.042,
      "duration": 0.208,
      "velocity": 1,
      "hand": "right"
    },
    {
      "midi": 64,
      "time": 196.25,
      "duration": 0.417,
      "velocity": 1,
      "hand": "right"
    },
    {
      "midi": 90,
      "time": 196.25,
      "duration": 0.208,
      "velocity": 1,
      "hand": "right"
    },
    {
      "midi": 88,
      "time": 196.458,
      "duration": 0.208,
      "velocity": 1,
      "hand": "right"
    },
    {
      "midi": 57,
      "time": 196.667,
      "duration": 0.417,
      "velocity": 1,
      "hand": "left"
    },
    {
      "midi": 69,
      "time": 196.667,
      "duration": 0.208,
      "velocity": 1,
      "hand": "right"
    },
    {
      "midi": 76,
      "time": 196.875,
      "duration": 0.208,
      "velocity": 1,
      "hand": "right"
    },
    {
      "midi": 61,
      "time": 197.083,
      "duration": 0.417,
      "velocity": 1,
      "hand": "right"
    },
    {
      "midi": 78,
      "time": 197.083,
      "duration": 0.208,
      "velocity": 1,
      "hand": "right"
    },
    {
      "midi": 76,
      "time": 197.292,
      "duration": 0.208,
      "velocity": 1,
      "hand": "right"
    },
    {
      "midi": 62,
      "time": 197.5,
      "duration": 0.417,
      "velocity": 1,
      "hand": "right"
    },
    {
      "midi": 68,
      "time": 197.5,
      "duration": 0.208,
      "velocity": 1,
      "hand": "right"
    },
    {
      "midi": 76,
      "time": 197.708,
      "duration": 0.208,
      "velocity": 1,
      "hand": "right"
    },
    {
      "midi": 52,
      "time": 197.917,
      "duration": 0.417,
      "velocity": 1,
      "hand": "left"
    },
    {
      "midi": 78,
      "time": 197.917,
      "duration": 0.208,
      "velocity": 1,
      "hand": "right"
    },
    {
      "midi": 76,
      "time": 198.125,
      "duration": 0.208,
      "velocity": 1,
      "hand": "right"
    },
    {
      "midi": 45,
      "time": 198.333,
      "duration": 0.417,
      "velocity": 1,
      "hand": "left"
    },
    {
      "midi": 71,
      "time": 198.333,
      "duration": 0.208,
      "velocity": 1,
      "hand": "right"
    },
    {
      "midi": 76,
      "time": 198.542,
      "duration": 0.208,
      "velocity": 1,
      "hand": "right"
    },
    {
      "midi": 56,
      "time": 198.75,
      "duration": 0.417,
      "velocity": 1,
      "hand": "left"
    },
    {
      "midi": 78,
      "time": 198.75,
      "duration": 0.208,
      "velocity": 1,
      "hand": "right"
    },
    {
      "midi": 76,
      "time": 198.958,
      "duration": 0.208,
      "velocity": 1,
      "hand": "right"
    },
    {
      "midi": 57,
      "time": 199.167,
      "duration": 0.417,
      "velocity": 1,
      "hand": "left"
    },
    {
      "midi": 73,
      "time": 199.167,
      "duration": 0.208,
      "velocity": 1,
      "hand": "right"
    },
    {
      "midi": 76,
      "time": 199.375,
      "duration": 0.208,
      "velocity": 1,
      "hand": "right"
    },
    {
      "midi": 61,
      "time": 199.583,
      "duration": 0.417,
      "velocity": 1,
      "hand": "right"
    },
    {
      "midi": 78,
      "time": 199.583,
      "duration": 0.208,
      "velocity": 1,
      "hand": "right"
    },
    {
      "midi": 76,
      "time": 199.792,
      "duration": 0.208,
      "velocity": 1,
      "hand": "right"
    },
    {
      "midi": 66,
      "time": 200,
      "duration": 0.833,
      "velocity": 1,
      "hand": "right"
    },
    {
      "midi": 69,
      "time": 200,
      "duration": 0.208,
      "velocity": 1,
      "hand": "right"
    },
    {
      "midi": 73,
      "time": 200.208,
      "duration": 0.208,
      "velocity": 1,
      "hand": "right"
    },
    {
      "midi": 74,
      "time": 200.417,
      "duration": 0.208,
      "velocity": 1,
      "hand": "right"
    },
    {
      "midi": 73,
      "time": 200.625,
      "duration": 0.208,
      "velocity": 1,
      "hand": "right"
    },
    {
      "midi": 65,
      "time": 200.833,
      "duration": 0.417,
      "velocity": 1,
      "hand": "right"
    },
    {
      "midi": 69,
      "time": 201.042,
      "duration": 0.208,
      "velocity": 1,
      "hand": "right"
    },
    {
      "midi": 64,
      "time": 201.25,
      "duration": 0.417,
      "velocity": 1,
      "hand": "right"
    },
    {
      "midi": 73,
      "time": 201.25,
      "duration": 0.208,
      "velocity": 1,
      "hand": "right"
    },
    {
      "midi": 69,
      "time": 201.458,
      "duration": 0.208,
      "velocity": 1,
      "hand": "right"
    },
    {
      "midi": 62,
      "time": 201.667,
      "duration": 0.417,
      "velocity": 1,
      "hand": "right"
    },
    {
      "midi": 64,
      "time": 201.875,
      "duration": 0.208,
      "velocity": 1,
      "hand": "right"
    },
    {
      "midi": 61,
      "time": 202.083,
      "duration": 0.417,
      "velocity": 1,
      "hand": "right"
    },
    {
      "midi": 69,
      "time": 202.083,
      "duration": 0.208,
      "velocity": 1,
      "hand": "right"
    },
    {
      "midi": 64,
      "time": 202.292,
      "duration": 0.208,
      "velocity": 1,
      "hand": "right"
    },
    {
      "midi": 45,
      "time": 202.5,
      "duration": 0.417,
      "velocity": 1,
      "hand": "left"
    },
    {
      "midi": 61,
      "time": 202.5,
      "duration": 0.208,
      "velocity": 1,
      "hand": "right"
    },
    {
      "midi": 64,
      "time": 202.708,
      "duration": 0.208,
      "velocity": 1,
      "hand": "right"
    },
    {
      "midi": 49,
      "time": 202.917,
      "duration": 0.417,
      "velocity": 1,
      "hand": "left"
    },
    {
      "midi": 66,
      "time": 202.917,
      "duration": 0.208,
      "velocity": 1,
      "hand": "right"
    },
    {
      "midi": 64,
      "time": 203.125,
      "duration": 0.208,
      "velocity": 1,
      "hand": "right"
    },
    {
      "midi": 54,
      "time": 203.333,
      "duration": 0.833,
      "velocity": 1,
      "hand": "left"
    },
    {
      "midi": 57,
      "time": 203.333,
      "duration": 0.208,
      "velocity": 1,
      "hand": "left"
    },
    {
      "midi": 61,
      "time": 203.542,
      "duration": 0.208,
      "velocity": 1,
      "hand": "right"
    },
    {
      "midi": 62,
      "time": 203.75,
      "duration": 0.208,
      "velocity": 1,
      "hand": "right"
    },
    {
      "midi": 61,
      "time": 203.958,
      "duration": 0.208,
      "velocity": 1,
      "hand": "right"
    },
    {
      "midi": 53,
      "time": 204.167,
      "duration": 0.417,
      "velocity": 1,
      "hand": "left"
    },
    {
      "midi": 57,
      "time": 204.375,
      "duration": 0.208,
      "velocity": 1,
      "hand": "left"
    },
    {
      "midi": 52,
      "time": 204.583,
      "duration": 0.417,
      "velocity": 1,
      "hand": "left"
    },
    {
      "midi": 61,
      "time": 204.583,
      "duration": 0.208,
      "velocity": 1,
      "hand": "right"
    },
    {
      "midi": 57,
      "time": 204.792,
      "duration": 0.208,
      "velocity": 1,
      "hand": "left"
    },
    {
      "midi": 50,
      "time": 205,
      "duration": 0.417,
      "velocity": 1,
      "hand": "left"
    },
    {
      "midi": 52,
      "time": 205.208,
      "duration": 0.208,
      "velocity": 1,
      "hand": "left"
    },
    {
      "midi": 49,
      "time": 205.417,
      "duration": 0.417,
      "velocity": 1,
      "hand": "left"
    },
    {
      "midi": 57,
      "time": 205.417,
      "duration": 0.208,
      "velocity": 1,
      "hand": "left"
    },
    {
      "midi": 52,
      "time": 205.625,
      "duration": 0.208,
      "velocity": 1,
      "hand": "left"
    },
    {
      "midi": 47,
      "time": 205.833,
      "duration": 0.417,
      "velocity": 1,
      "hand": "left"
    },
    {
      "midi": 49,
      "time": 206.042,
      "duration": 0.208,
      "velocity": 1,
      "hand": "left"
    },
    {
      "midi": 45,
      "time": 206.25,
      "duration": 0.417,
      "velocity": 1,
      "hand": "left"
    },
    {
      "midi": 52,
      "time": 206.25,
      "duration": 0.208,
      "velocity": 1,
      "hand": "left"
    },
    {
      "midi": 49,
      "time": 206.458,
      "duration": 0.208,
      "velocity": 1,
      "hand": "left"
    },
    {
      "midi": 44,
      "time": 206.667,
      "duration": 0.417,
      "velocity": 1,
      "hand": "left"
    },
    {
      "midi": 49,
      "time": 206.875,
      "duration": 0.208,
      "velocity": 1,
      "hand": "left"
    },
    {
      "midi": 45,
      "time": 207.083,
      "duration": 0.417,
      "velocity": 1,
      "hand": "left"
    },
    {
      "midi": 52,
      "time": 207.083,
      "duration": 0.208,
      "velocity": 1,
      "hand": "left"
    },
    {
      "midi": 49,
      "time": 207.292,
      "duration": 0.208,
      "velocity": 1,
      "hand": "left"
    },
    {
      "midi": 47,
      "time": 207.5,
      "duration": 0.417,
      "velocity": 1,
      "hand": "left"
    },
    {
      "midi": 49,
      "time": 207.708,
      "duration": 0.208,
      "velocity": 1,
      "hand": "left"
    },
    {
      "midi": 45,
      "time": 207.917,
      "duration": 0.417,
      "velocity": 1,
      "hand": "left"
    },
    {
      "midi": 52,
      "time": 207.917,
      "duration": 0.208,
      "velocity": 1,
      "hand": "left"
    },
    {
      "midi": 49,
      "time": 208.125,
      "duration": 0.208,
      "velocity": 1,
      "hand": "left"
    },
    {
      "midi": 44,
      "time": 208.333,
      "duration": 0.417,
      "velocity": 1,
      "hand": "left"
    },
    {
      "midi": 49,
      "time": 208.542,
      "duration": 0.208,
      "velocity": 1,
      "hand": "left"
    },
    {
      "midi": 45,
      "time": 208.75,
      "duration": 0.417,
      "velocity": 1,
      "hand": "left"
    },
    {
      "midi": 52,
      "time": 208.75,
      "duration": 0.208,
      "velocity": 1,
      "hand": "left"
    },
    {
      "midi": 49,
      "time": 208.958,
      "duration": 0.208,
      "velocity": 1,
      "hand": "left"
    },
    {
      "midi": 47,
      "time": 209.167,
      "duration": 0.417,
      "velocity": 1,
      "hand": "left"
    },
    {
      "midi": 49,
      "time": 209.375,
      "duration": 0.208,
      "velocity": 1,
      "hand": "left"
    },
    {
      "midi": 45,
      "time": 209.583,
      "duration": 0.417,
      "velocity": 1,
      "hand": "left"
    },
    {
      "midi": 52,
      "time": 209.583,
      "duration": 0.208,
      "velocity": 1,
      "hand": "left"
    },
    {
      "midi": 49,
      "time": 209.792,
      "duration": 0.208,
      "velocity": 1,
      "hand": "left"
    },
    {
      "midi": 44,
      "time": 210,
      "duration": 0.208,
      "velocity": 1,
      "hand": "left"
    },
    {
      "midi": 45,
      "time": 210.208,
      "duration": 0.208,
      "velocity": 1,
      "hand": "left"
    },
    {
      "midi": 48,
      "time": 210.417,
      "duration": 0.208,
      "velocity": 1,
      "hand": "left"
    },
    {
      "midi": 49,
      "time": 210.625,
      "duration": 0.208,
      "velocity": 1,
      "hand": "left"
    },
    {
      "midi": 51,
      "time": 210.833,
      "duration": 0.208,
      "velocity": 1,
      "hand": "left"
    },
    {
      "midi": 52,
      "time": 211.042,
      "duration": 0.208,
      "velocity": 1,
      "hand": "left"
    },
    {
      "midi": 56,
      "time": 211.25,
      "duration": 0.208,
      "velocity": 1,
      "hand": "left"
    },
    {
      "midi": 57,
      "time": 211.458,
      "duration": 0.208,
      "velocity": 1,
      "hand": "left"
    },
    {
      "midi": 56,
      "time": 211.667,
      "duration": 0.208,
      "velocity": 1,
      "hand": "left"
    },
    {
      "midi": 57,
      "time": 211.875,
      "duration": 0.208,
      "velocity": 1,
      "hand": "left"
    },
    {
      "midi": 60,
      "time": 212.083,
      "duration": 0.208,
      "velocity": 1,
      "hand": "right"
    },
    {
      "midi": 61,
      "time": 212.292,
      "duration": 0.208,
      "velocity": 1,
      "hand": "right"
    },
    {
      "midi": 63,
      "time": 212.5,
      "duration": 0.208,
      "velocity": 1,
      "hand": "right"
    },
    {
      "midi": 64,
      "time": 212.708,
      "duration": 0.208,
      "velocity": 1,
      "hand": "right"
    },
    {
      "midi": 68,
      "time": 212.917,
      "duration": 0.208,
      "velocity": 1,
      "hand": "right"
    },
    {
      "midi": 69,
      "time": 213.125,
      "duration": 0.208,
      "velocity": 1,
      "hand": "right"
    },
    {
      "midi": 68,
      "time": 213.333,
      "duration": 0.208,
      "velocity": 1,
      "hand": "right"
    },
    {
      "midi": 69,
      "time": 213.542,
      "duration": 0.208,
      "velocity": 1,
      "hand": "right"
    },
    {
      "midi": 72,
      "time": 213.75,
      "duration": 0.208,
      "velocity": 1,
      "hand": "right"
    },
    {
      "midi": 73,
      "time": 213.958,
      "duration": 0.208,
      "velocity": 1,
      "hand": "right"
    },
    {
      "midi": 75,
      "time": 214.167,
      "duration": 0.208,
      "velocity": 1,
      "hand": "right"
    },
    {
      "midi": 76,
      "time": 214.375,
      "duration": 0.208,
      "velocity": 1,
      "hand": "right"
    },
    {
      "midi": 80,
      "time": 214.583,
      "duration": 0.208,
      "velocity": 1,
      "hand": "right"
    },
    {
      "midi": 81,
      "time": 214.792,
      "duration": 0.208,
      "velocity": 1,
      "hand": "right"
    },
    {
      "midi": 80,
      "time": 215,
      "duration": 0.208,
      "velocity": 1,
      "hand": "right"
    },
    {
      "midi": 81,
      "time": 215.208,
      "duration": 0.208,
      "velocity": 1,
      "hand": "right"
    },
    {
      "midi": 84,
      "time": 215.417,
      "duration": 0.208,
      "velocity": 1,
      "hand": "right"
    },
    {
      "midi": 85,
      "time": 215.625,
      "duration": 0.208,
      "velocity": 1,
      "hand": "right"
    },
    {
      "midi": 87,
      "time": 215.833,
      "duration": 0.208,
      "velocity": 1,
      "hand": "right"
    },
    {
      "midi": 88,
      "time": 216.042,
      "duration": 0.208,
      "velocity": 1,
      "hand": "right"
    },
    {
      "midi": 92,
      "time": 216.25,
      "duration": 0.208,
      "velocity": 1,
      "hand": "right"
    },
    {
      "midi": 93,
      "time": 216.458,
      "duration": 0.208,
      "velocity": 1,
      "hand": "right"
    },
    {
      "midi": 50,
      "time": 216.667,
      "duration": 0.833,
      "velocity": 1,
      "hand": "left"
    },
    {
      "midi": 54,
      "time": 216.667,
      "duration": 0.833,
      "velocity": 1,
      "hand": "left"
    },
    {
      "midi": 57,
      "time": 216.667,
      "duration": 0.417,
      "velocity": 1,
      "hand": "left"
    },
    {
      "midi": 74,
      "time": 216.667,
      "duration": 0.417,
      "velocity": 1,
      "hand": "right"
    },
    {
      "midi": 78,
      "time": 216.667,
      "duration": 0.417,
      "velocity": 1,
      "hand": "right"
    },
    {
      "midi": 81,
      "time": 216.667,
      "duration": 0.833,
      "velocity": 1,
      "hand": "right"
    },
    {
      "midi": 62,
      "time": 217.083,
      "duration": 0.417,
      "velocity": 1,
      "hand": "right"
    },
    {
      "midi": 69,
      "time": 217.083,
      "duration": 0.417,
      "velocity": 1,
      "hand": "right"
    },
    {
      "midi": 50,
      "time": 217.5,
      "duration": 0.833,
      "velocity": 1,
      "hand": "left"
    },
    {
      "midi": 55,
      "time": 217.5,
      "duration": 0.833,
      "velocity": 1,
      "hand": "left"
    },
    {
      "midi": 58,
      "time": 217.5,
      "duration": 0.417,
      "velocity": 1,
      "hand": "left"
    },
    {
      "midi": 70,
      "time": 217.5,
      "duration": 0.417,
      "velocity": 1,
      "hand": "right"
    },
    {
      "midi": 74,
      "time": 217.5,
      "duration": 0.417,
      "velocity": 1,
      "hand": "right"
    },
    {
      "midi": 76,
      "time": 217.5,
      "duration": 0.833,
      "velocity": 1,
      "hand": "right"
    },
    {
      "midi": 62,
      "time": 217.917,
      "duration": 0.417,
      "velocity": 1,
      "hand": "right"
    },
    {
      "midi": 64,
      "time": 217.917,
      "duration": 0.417,
      "velocity": 1,
      "hand": "right"
    },
    {
      "midi": 50,
      "time": 218.333,
      "duration": 0.833,
      "velocity": 1,
      "hand": "left"
    },
    {
      "midi": 54,
      "time": 218.333,
      "duration": 0.833,
      "velocity": 1,
      "hand": "left"
    },
    {
      "midi": 57,
      "time": 218.333,
      "duration": 0.417,
      "velocity": 1,
      "hand": "left"
    },
    {
      "midi": 74,
      "time": 218.333,
      "duration": 0.417,
      "velocity": 1,
      "hand": "right"
    },
    {
      "midi": 78,
      "time": 218.333,
      "duration": 0.417,
      "velocity": 1,
      "hand": "right"
    },
    {
      "midi": 81,
      "time": 218.333,
      "duration": 0.833,
      "velocity": 1,
      "hand": "right"
    },
    {
      "midi": 62,
      "time": 218.75,
      "duration": 0.417,
      "velocity": 1,
      "hand": "right"
    },
    {
      "midi": 69,
      "time": 218.75,
      "duration": 0.417,
      "velocity": 1,
      "hand": "right"
    },
    {
      "midi": 50,
      "time": 219.167,
      "duration": 0.833,
      "velocity": 1,
      "hand": "left"
    },
    {
      "midi": 55,
      "time": 219.167,
      "duration": 0.833,
      "velocity": 1,
      "hand": "left"
    },
    {
      "midi": 58,
      "time": 219.167,
      "duration": 0.417,
      "velocity": 1,
      "hand": "left"
    },
    {
      "midi": 70,
      "time": 219.167,
      "duration": 0.417,
      "velocity": 1,
      "hand": "right"
    },
    {
      "midi": 74,
      "time": 219.167,
      "duration": 0.417,
      "velocity": 1,
      "hand": "right"
    },
    {
      "midi": 76,
      "time": 219.167,
      "duration": 0.833,
      "velocity": 1,
      "hand": "right"
    },
    {
      "midi": 62,
      "time": 219.583,
      "duration": 0.417,
      "velocity": 1,
      "hand": "right"
    },
    {
      "midi": 64,
      "time": 219.583,
      "duration": 0.417,
      "velocity": 1,
      "hand": "right"
    },
    {
      "midi": 60,
      "time": 220,
      "duration": 1.667,
      "velocity": 1,
      "hand": "right"
    },
    {
      "midi": 62,
      "time": 220,
      "duration": 1.667,
      "velocity": 1,
      "hand": "right"
    },
    {
      "midi": 66,
      "time": 220,
      "duration": 1.667,
      "velocity": 1,
      "hand": "right"
    },
    {
      "midi": 69,
      "time": 220,
      "duration": 1.667,
      "velocity": 1,
      "hand": "right"
    },
    {
      "midi": 74,
      "time": 220,
      "duration": 0.208,
      "velocity": 1,
      "hand": "right"
    },
    {
      "midi": 76,
      "time": 220.208,
      "duration": 0.208,
      "velocity": 1,
      "hand": "right"
    },
    {
      "midi": 74,
      "time": 220.417,
      "duration": 0.208,
      "velocity": 1,
      "hand": "right"
    },
    {
      "midi": 76,
      "time": 220.625,
      "duration": 0.208,
      "velocity": 1,
      "hand": "right"
    },
    {
      "midi": 78,
      "time": 220.833,
      "duration": 0.417,
      "velocity": 1,
      "hand": "right"
    },
    {
      "midi": 78,
      "time": 221.25,
      "duration": 0.417,
      "velocity": 1,
      "hand": "right"
    },
    {
      "midi": 58,
      "time": 221.667,
      "duration": 0.208,
      "velocity": 1,
      "hand": "left"
    },
    {
      "midi": 67,
      "time": 221.667,
      "duration": 0.833,
      "velocity": 1,
      "hand": "right"
    },
    {
      "midi": 74,
      "time": 221.667,
      "duration": 0.833,
      "velocity": 1,
      "hand": "right"
    },
    {
      "midi": 76,
      "time": 221.667,
      "duration": 0.417,
      "velocity": 1,
      "hand": "right"
    },
    {
      "midi": 57,
      "time": 221.875,
      "duration": 0.208,
      "velocity": 1,
      "hand": "left"
    },
    {
      "midi": 55,
      "time": 222.083,
      "duration": 0.208,
      "velocity": 1,
      "hand": "left"
    },
    {
      "midi": 79,
      "time": 222.083,
      "duration": 0.417,
      "velocity": 1,
      "hand": "right"
    },
    {
      "midi": 54,
      "time": 222.292,
      "duration": 0.208,
      "velocity": 1,
      "hand": "left"
    },
    {
      "midi": 52,
      "time": 222.5,
      "duration": 0.417,
      "velocity": 1,
      "hand": "left"
    },
    {
      "midi": 73,
      "time": 222.5,
      "duration": 0.417,
      "velocity": 1,
      "hand": "right"
    },
    {
      "midi": 76,
      "time": 222.5,
      "duration": 0.833,
      "velocity": 1,
      "hand": "right"
    },
    {
      "midi": 57,
      "time": 222.917,
      "duration": 0.417,
      "velocity": 1,
      "hand": "left"
    },
    {
      "midi": 69,
      "time": 222.917,
      "duration": 0.417,
      "velocity": 1,
      "hand": "right"
    },
    {
      "midi": 50,
      "time": 223.333,
      "duration": 0.833,
      "velocity": 1,
      "hand": "left"
    },
    {
      "midi": 54,
      "time": 223.333,
      "duration": 0.833,
      "velocity": 1,
      "hand": "left"
    },
    {
      "midi": 57,
      "time": 223.333,
      "duration": 0.417,
      "velocity": 1,
      "hand": "left"
    },
    {
      "midi": 74,
      "time": 223.333,
      "duration": 0.417,
      "velocity": 1,
      "hand": "right"
    },
    {
      "midi": 78,
      "time": 223.333,
      "duration": 0.417,
      "velocity": 1,
      "hand": "right"
    },
    {
      "midi": 81,
      "time": 223.333,
      "duration": 0.833,
      "velocity": 1,
      "hand": "right"
    },
    {
      "midi": 62,
      "time": 223.75,
      "duration": 0.417,
      "velocity": 1,
      "hand": "right"
    },
    {
      "midi": 69,
      "time": 223.75,
      "duration": 0.417,
      "velocity": 1,
      "hand": "right"
    },
    {
      "midi": 50,
      "time": 224.167,
      "duration": 0.833,
      "velocity": 1,
      "hand": "left"
    },
    {
      "midi": 55,
      "time": 224.167,
      "duration": 0.833,
      "velocity": 1,
      "hand": "left"
    },
    {
      "midi": 58,
      "time": 224.167,
      "duration": 0.417,
      "velocity": 1,
      "hand": "left"
    },
    {
      "midi": 70,
      "time": 224.167,
      "duration": 0.417,
      "velocity": 1,
      "hand": "right"
    },
    {
      "midi": 74,
      "time": 224.167,
      "duration": 0.417,
      "velocity": 1,
      "hand": "right"
    },
    {
      "midi": 76,
      "time": 224.167,
      "duration": 0.833,
      "velocity": 1,
      "hand": "right"
    },
    {
      "midi": 62,
      "time": 224.583,
      "duration": 0.417,
      "velocity": 1,
      "hand": "right"
    },
    {
      "midi": 64,
      "time": 224.583,
      "duration": 0.417,
      "velocity": 1,
      "hand": "right"
    },
    {
      "midi": 50,
      "time": 225,
      "duration": 0.833,
      "velocity": 1,
      "hand": "left"
    },
    {
      "midi": 54,
      "time": 225,
      "duration": 0.833,
      "velocity": 1,
      "hand": "left"
    },
    {
      "midi": 57,
      "time": 225,
      "duration": 0.417,
      "velocity": 1,
      "hand": "left"
    },
    {
      "midi": 74,
      "time": 225,
      "duration": 0.417,
      "velocity": 1,
      "hand": "right"
    },
    {
      "midi": 78,
      "time": 225,
      "duration": 0.417,
      "velocity": 1,
      "hand": "right"
    },
    {
      "midi": 81,
      "time": 225,
      "duration": 0.833,
      "velocity": 1,
      "hand": "right"
    },
    {
      "midi": 62,
      "time": 225.417,
      "duration": 0.417,
      "velocity": 1,
      "hand": "right"
    },
    {
      "midi": 69,
      "time": 225.417,
      "duration": 0.417,
      "velocity": 1,
      "hand": "right"
    },
    {
      "midi": 50,
      "time": 225.833,
      "duration": 0.833,
      "velocity": 1,
      "hand": "left"
    },
    {
      "midi": 55,
      "time": 225.833,
      "duration": 0.833,
      "velocity": 1,
      "hand": "left"
    },
    {
      "midi": 58,
      "time": 225.833,
      "duration": 0.417,
      "velocity": 1,
      "hand": "left"
    },
    {
      "midi": 70,
      "time": 225.833,
      "duration": 0.417,
      "velocity": 1,
      "hand": "right"
    },
    {
      "midi": 74,
      "time": 225.833,
      "duration": 0.417,
      "velocity": 1,
      "hand": "right"
    },
    {
      "midi": 76,
      "time": 225.833,
      "duration": 0.833,
      "velocity": 1,
      "hand": "right"
    },
    {
      "midi": 62,
      "time": 226.25,
      "duration": 0.417,
      "velocity": 1,
      "hand": "right"
    },
    {
      "midi": 64,
      "time": 226.25,
      "duration": 0.417,
      "velocity": 1,
      "hand": "right"
    },
    {
      "midi": 60,
      "time": 226.667,
      "duration": 1.667,
      "velocity": 1,
      "hand": "right"
    },
    {
      "midi": 62,
      "time": 226.667,
      "duration": 1.667,
      "velocity": 1,
      "hand": "right"
    },
    {
      "midi": 66,
      "time": 226.667,
      "duration": 1.667,
      "velocity": 1,
      "hand": "right"
    },
    {
      "midi": 69,
      "time": 226.667,
      "duration": 1.667,
      "velocity": 1,
      "hand": "right"
    },
    {
      "midi": 74,
      "time": 226.667,
      "duration": 0.208,
      "velocity": 1,
      "hand": "right"
    },
    {
      "midi": 76,
      "time": 226.875,
      "duration": 0.208,
      "velocity": 1,
      "hand": "right"
    },
    {
      "midi": 74,
      "time": 227.083,
      "duration": 0.208,
      "velocity": 1,
      "hand": "right"
    },
    {
      "midi": 76,
      "time": 227.292,
      "duration": 0.208,
      "velocity": 1,
      "hand": "right"
    },
    {
      "midi": 78,
      "time": 227.5,
      "duration": 0.417,
      "velocity": 1,
      "hand": "right"
    },
    {
      "midi": 78,
      "time": 227.917,
      "duration": 0.417,
      "velocity": 1,
      "hand": "right"
    },
    {
      "midi": 58,
      "time": 228.333,
      "duration": 0.208,
      "velocity": 1,
      "hand": "left"
    },
    {
      "midi": 62,
      "time": 228.333,
      "duration": 0.208,
      "velocity": 1,
      "hand": "right"
    },
    {
      "midi": 74,
      "time": 228.333,
      "duration": 0.208,
      "velocity": 1,
      "hand": "right"
    },
    {
      "midi": 76,
      "time": 228.333,
      "duration": 0.208,
      "velocity": 1,
      "hand": "right"
    },
    {
      "midi": 78,
      "time": 228.542,
      "duration": 0.208,
      "velocity": 1,
      "hand": "right"
    },
    {
      "midi": 58,
      "time": 228.75,
      "duration": 0.208,
      "velocity": 1,
      "hand": "left"
    },
    {
      "midi": 79,
      "time": 228.75,
      "duration": 0.208,
      "velocity": 1,
      "hand": "right"
    },
    {
      "midi": 57,
      "time": 228.958,
      "duration": 0.208,
      "velocity": 1,
      "hand": "left"
    },
    {
      "midi": 81,
      "time": 228.958,
      "duration": 0.208,
      "velocity": 1,
      "hand": "right"
    },
    {
      "midi": 55,
      "time": 229.167,
      "duration": 0.417,
      "velocity": 1,
      "hand": "left"
    },
    {
      "midi": 82,
      "time": 229.167,
      "duration": 0.417,
      "velocity": 1,
      "hand": "right"
    },
    {
      "midi": 43,
      "time": 230,
      "duration": 0.833,
      "velocity": 1,
      "hand": "left"
    },
    {
      "midi": 51,
      "time": 230,
      "duration": 0.833,
      "velocity": 1,
      "hand": "left"
    },
    {
      "midi": 61,
      "time": 230.208,
      "duration": 0.208,
      "velocity": 1,
      "hand": "right"
    },
    {
      "midi": 63,
      "time": 230.208,
      "duration": 0.208,
      "velocity": 1,
      "hand": "right"
    },
    {
      "midi": 58,
      "time": 230.417,
      "duration": 0.417,
      "velocity": 1,
      "hand": "left"
    },
    {
      "midi": 61,
      "time": 230.625,
      "duration": 0.208,
      "velocity": 1,
      "hand": "right"
    },
    {
      "midi": 63,
      "time": 230.625,
      "duration": 0.208,
      "velocity": 1,
      "hand": "right"
    },
    {
      "midi": 56,
      "time": 230.833,
      "duration": 0.833,
      "velocity": 1,
      "hand": "left"
    },
    {
      "midi": 60,
      "time": 230.833,
      "duration": 0.417,
      "velocity": 1,
      "hand": "right"
    },
    {
      "midi": 51,
      "time": 231.25,
      "duration": 0.417,
      "velocity": 1,
      "hand": "left"
    },
    {
      "midi": 63,
      "time": 231.25,
      "duration": 0.417,
      "velocity": 1,
      "hand": "right"
    },
    {
      "midi": 72,
      "time": 231.25,
      "duration": 0.417,
      "velocity": 1,
      "hand": "right"
    },
    {
      "midi": 45,
      "time": 231.667,
      "duration": 0.833,
      "velocity": 1,
      "hand": "left"
    },
    {
      "midi": 53,
      "time": 231.667,
      "duration": 0.833,
      "velocity": 1,
      "hand": "left"
    },
    {
      "midi": 63,
      "time": 231.875,
      "duration": 0.208,
      "velocity": 1,
      "hand": "right"
    },
    {
      "midi": 65,
      "time": 231.875,
      "duration": 0.208,
      "velocity": 1,
      "hand": "right"
    },
    {
      "midi": 60,
      "time": 232.083,
      "duration": 0.417,
      "velocity": 1,
      "hand": "right"
    },
    {
      "midi": 63,
      "time": 232.292,
      "duration": 0.208,
      "velocity": 1,
      "hand": "right"
    },
    {
      "midi": 65,
      "time": 232.292,
      "duration": 0.208,
      "velocity": 1,
      "hand": "right"
    },
    {
      "midi": 58,
      "time": 232.5,
      "duration": 0.833,
      "velocity": 1,
      "hand": "left"
    },
    {
      "midi": 62,
      "time": 232.5,
      "duration": 0.833,
      "velocity": 1,
      "hand": "right"
    },
    {
      "midi": 46,
      "time": 232.917,
      "duration": 0.417,
      "velocity": 1,
      "hand": "left"
    },
    {
      "midi": 53,
      "time": 232.917,
      "duration": 0.417,
      "velocity": 1,
      "hand": "left"
    },
    {
      "midi": 65,
      "time": 232.917,
      "duration": 0.417,
      "velocity": 1,
      "hand": "right"
    },
    {
      "midi": 74,
      "time": 232.917,
      "duration": 0.417,
      "velocity": 1,
      "hand": "right"
    },
    {
      "midi": 47,
      "time": 233.333,
      "duration": 0.417,
      "velocity": 1,
      "hand": "left"
    },
    {
      "midi": 55,
      "time": 233.333,
      "duration": 0.833,
      "velocity": 1,
      "hand": "left"
    },
    {
      "midi": 62,
      "time": 233.333,
      "duration": 0.833,
      "velocity": 1,
      "hand": "right"
    },
    {
      "midi": 59,
      "time": 233.75,
      "duration": 0.417,
      "velocity": 1,
      "hand": "left"
    },
    {
      "midi": 65,
      "time": 233.75,
      "duration": 0.417,
      "velocity": 1,
      "hand": "right"
    },
    {
      "midi": 67,
      "time": 233.75,
      "duration": 0.417,
      "velocity": 1,
      "hand": "right"
    },
    {
      "midi": 74,
      "time": 233.75,
      "duration": 0.417,
      "velocity": 1,
      "hand": "right"
    },
    {
      "midi": 48,
      "time": 234.167,
      "duration": 0.417,
      "velocity": 1,
      "hand": "left"
    },
    {
      "midi": 55,
      "time": 234.167,
      "duration": 0.833,
      "velocity": 1,
      "hand": "left"
    },
    {
      "midi": 63,
      "time": 234.167,
      "duration": 0.833,
      "velocity": 1,
      "hand": "right"
    },
    {
      "midi": 60,
      "time": 234.583,
      "duration": 0.417,
      "velocity": 1,
      "hand": "right"
    },
    {
      "midi": 67,
      "time": 234.583,
      "duration": 0.417,
      "velocity": 1,
      "hand": "right"
    },
    {
      "midi": 75,
      "time": 234.583,
      "duration": 0.417,
      "velocity": 1,
      "hand": "right"
    },
    {
      "midi": 50,
      "time": 235,
      "duration": 0.417,
      "velocity": 1,
      "hand": "left"
    },
    {
      "midi": 55,
      "time": 235,
      "duration": 0.833,
      "velocity": 1,
      "hand": "left"
    },
    {
      "midi": 65,
      "time": 235,
      "duration": 0.833,
      "velocity": 1,
      "hand": "right"
    },
    {
      "midi": 62,
      "time": 235.417,
      "duration": 0.417,
      "velocity": 1,
      "hand": "right"
    },
    {
      "midi": 71,
      "time": 235.417,
      "duration": 0.417,
      "velocity": 1,
      "hand": "right"
    },
    {
      "midi": 79,
      "time": 235.417,
      "duration": 0.417,
      "velocity": 1,
      "hand": "right"
    },
    {
      "midi": 48,
      "time": 235.833,
      "duration": 0.417,
      "velocity": 1,
      "hand": "left"
    },
    {
      "midi": 55,
      "time": 235.833,
      "duration": 0.833,
      "velocity": 1,
      "hand": "left"
    },
    {
      "midi": 63,
      "time": 235.833,
      "duration": 0.833,
      "velocity": 1,
      "hand": "right"
    },
    {
      "midi": 60,
      "time": 236.25,
      "duration": 0.417,
      "velocity": 1,
      "hand": "right"
    },
    {
      "midi": 67,
      "time": 236.25,
      "duration": 0.417,
      "velocity": 1,
      "hand": "right"
    },
    {
      "midi": 75,
      "time": 236.25,
      "duration": 0.417,
      "velocity": 1,
      "hand": "right"
    },
    {
      "midi": 47,
      "time": 236.667,
      "duration": 0.833,
      "velocity": 1,
      "hand": "left"
    },
    {
      "midi": 55,
      "time": 236.667,
      "duration": 0.833,
      "velocity": 1,
      "hand": "left"
    },
    {
      "midi": 65,
      "time": 236.875,
      "duration": 0.208,
      "velocity": 1,
      "hand": "right"
    },
    {
      "midi": 67,
      "time": 236.875,
      "duration": 0.208,
      "velocity": 1,
      "hand": "right"
    },
    {
      "midi": 62,
      "time": 237.083,
      "duration": 0.417,
      "velocity": 1,
      "hand": "right"
    },
    {
      "midi": 65,
      "time": 237.292,
      "duration": 0.208,
      "velocity": 1,
      "hand": "right"
    },
    {
      "midi": 67,
      "time": 237.292,
      "duration": 0.208,
      "velocity": 1,
      "hand": "right"
    },
    {
      "midi": 60,
      "time": 237.5,
      "duration": 0.833,
      "velocity": 1,
      "hand": "right"
    },
    {
      "midi": 64,
      "time": 237.5,
      "duration": 0.833,
      "velocity": 1,
      "hand": "right"
    },
    {
      "midi": 48,
      "time": 237.917,
      "duration": 0.417,
      "velocity": 1,
      "hand": "left"
    },
    {
      "midi": 55,
      "time": 237.917,
      "duration": 0.417,
      "velocity": 1,
      "hand": "left"
    },
    {
      "midi": 67,
      "time": 237.917,
      "duration": 0.417,
      "velocity": 1,
      "hand": "right"
    },
    {
      "midi": 76,
      "time": 237.917,
      "duration": 0.417,
      "velocity": 1,
      "hand": "right"
    },
    {
      "midi": 49,
      "time": 238.333,
      "duration": 0.833,
      "velocity": 1,
      "hand": "left"
    },
    {
      "midi": 57,
      "time": 238.333,
      "duration": 0.417,
      "velocity": 1,
      "hand": "left"
    },
    {
      "midi": 67,
      "time": 238.542,
      "duration": 0.208,
      "velocity": 1,
      "hand": "right"
    },
    {
      "midi": 69,
      "time": 238.542,
      "duration": 0.208,
      "velocity": 1,
      "hand": "right"
    },
    {
      "midi": 64,
      "time": 238.75,
      "duration": 0.417,
      "velocity": 1,
      "hand": "right"
    },
    {
      "midi": 67,
      "time": 238.958,
      "duration": 0.208,
      "velocity": 1,
      "hand": "right"
    },
    {
      "midi": 69,
      "time": 238.958,
      "duration": 0.208,
      "velocity": 1,
      "hand": "right"
    },
    {
      "midi": 62,
      "time": 239.167,
      "duration": 0.833,
      "velocity": 1,
      "hand": "right"
    },
    {
      "midi": 65,
      "time": 239.167,
      "duration": 0.833,
      "velocity": 1,
      "hand": "right"
    },
    {
      "midi": 50,
      "time": 239.583,
      "duration": 0.417,
      "velocity": 1,
      "hand": "left"
    },
    {
      "midi": 57,
      "time": 239.583,
      "duration": 0.417,
      "velocity": 1,
      "hand": "left"
    },
    {
      "midi": 69,
      "time": 239.583,
      "duration": 0.417,
      "velocity": 1,
      "hand": "right"
    },
    {
      "midi": 77,
      "time": 239.583,
      "duration": 0.417,
      "velocity": 1,
      "hand": "right"
    },
    {
      "midi": 49,
      "time": 240,
      "duration": 0.833,
      "velocity": 1,
      "hand": "left"
    },
    {
      "midi": 57,
      "time": 240,
      "duration": 0.833,
      "velocity": 1,
      "hand": "left"
    },
    {
      "midi": 64,
      "time": 240,
      "duration": 0.833,
      "velocity": 1,
      "hand": "right"
    },
    {
      "midi": 61,
      "time": 240.417,
      "duration": 0.417,
      "velocity": 1,
      "hand": "right"
    },
    {
      "midi": 67,
      "time": 240.417,
      "duration": 0.417,
      "velocity": 1,
      "hand": "right"
    },
    {
      "midi": 69,
      "time": 240.417,
      "duration": 0.417,
      "velocity": 1,
      "hand": "right"
    },
    {
      "midi": 76,
      "time": 240.417,
      "duration": 0.417,
      "velocity": 1,
      "hand": "right"
    },
    {
      "midi": 50,
      "time": 240.833,
      "duration": 0.417,
      "velocity": 1,
      "hand": "left"
    },
    {
      "midi": 57,
      "time": 240.833,
      "duration": 0.833,
      "velocity": 1,
      "hand": "left"
    },
    {
      "midi": 65,
      "time": 240.833,
      "duration": 0.833,
      "velocity": 1,
      "hand": "right"
    },
    {
      "midi": 62,
      "time": 241.25,
      "duration": 0.417,
      "velocity": 1,
      "hand": "right"
    },
    {
      "midi": 69,
      "time": 241.25,
      "duration": 0.417,
      "velocity": 1,
      "hand": "right"
    },
    {
      "midi": 77,
      "time": 241.25,
      "duration": 0.417,
      "velocity": 1,
      "hand": "right"
    },
    {
      "midi": 52,
      "time": 241.667,
      "duration": 0.417,
      "velocity": 1,
      "hand": "left"
    },
    {
      "midi": 57,
      "time": 241.667,
      "duration": 0.833,
      "velocity": 1,
      "hand": "left"
    },
    {
      "midi": 67,
      "time": 241.667,
      "duration": 0.833,
      "velocity": 1,
      "hand": "right"
    },
    {
      "midi": 64,
      "time": 242.083,
      "duration": 0.417,
      "velocity": 1,
      "hand": "right"
    },
    {
      "midi": 73,
      "time": 242.083,
      "duration": 0.417,
      "velocity": 1,
      "hand": "right"
    },
    {
      "midi": 81,
      "time": 242.083,
      "duration": 0.417,
      "velocity": 1,
      "hand": "right"
    },
    {
      "midi": 50,
      "time": 242.5,
      "duration": 0.417,
      "velocity": 1,
      "hand": "left"
    },
    {
      "midi": 57,
      "time": 242.5,
      "duration": 0.833,
      "velocity": 1,
      "hand": "left"
    },
    {
      "midi": 65,
      "time": 242.5,
      "duration": 0.833,
      "velocity": 1,
      "hand": "right"
    },
    {
      "midi": 62,
      "time": 242.917,
      "duration": 0.417,
      "velocity": 1,
      "hand": "right"
    },
    {
      "midi": 69,
      "time": 242.917,
      "duration": 0.417,
      "velocity": 1,
      "hand": "right"
    },
    {
      "midi": 77,
      "time": 242.917,
      "duration": 0.417,
      "velocity": 1,
      "hand": "right"
    },
    {
      "midi": 49,
      "time": 243.333,
      "duration": 0.417,
      "velocity": 1,
      "hand": "left"
    },
    {
      "midi": 57,
      "time": 243.333,
      "duration": 0.833,
      "velocity": 1,
      "hand": "left"
    },
    {
      "midi": 64,
      "time": 243.333,
      "duration": 0.833,
      "velocity": 1,
      "hand": "right"
    },
    {
      "midi": 61,
      "time": 243.75,
      "duration": 0.417,
      "velocity": 1,
      "hand": "right"
    },
    {
      "midi": 67,
      "time": 243.75,
      "duration": 0.417,
      "velocity": 1,
      "hand": "right"
    },
    {
      "midi": 69,
      "time": 243.75,
      "duration": 0.417,
      "velocity": 1,
      "hand": "right"
    },
    {
      "midi": 76,
      "time": 243.75,
      "duration": 0.417,
      "velocity": 1,
      "hand": "right"
    },
    {
      "midi": 50,
      "time": 244.167,
      "duration": 0.417,
      "velocity": 1,
      "hand": "left"
    },
    {
      "midi": 57,
      "time": 244.167,
      "duration": 0.833,
      "velocity": 1,
      "hand": "left"
    },
    {
      "midi": 65,
      "time": 244.167,
      "duration": 0.833,
      "velocity": 1,
      "hand": "right"
    },
    {
      "midi": 62,
      "time": 244.583,
      "duration": 0.417,
      "velocity": 1,
      "hand": "right"
    },
    {
      "midi": 69,
      "time": 244.583,
      "duration": 0.417,
      "velocity": 1,
      "hand": "right"
    },
    {
      "midi": 77,
      "time": 244.583,
      "duration": 0.417,
      "velocity": 1,
      "hand": "right"
    },
    {
      "midi": 51,
      "time": 245,
      "duration": 0.417,
      "velocity": 1,
      "hand": "left"
    },
    {
      "midi": 59,
      "time": 245,
      "duration": 0.833,
      "velocity": 1,
      "hand": "left"
    },
    {
      "midi": 69,
      "time": 245,
      "duration": 0.833,
      "velocity": 1,
      "hand": "right"
    },
    {
      "midi": 63,
      "time": 245.417,
      "duration": 0.417,
      "velocity": 1,
      "hand": "right"
    },
    {
      "midi": 78,
      "time": 245.417,
      "duration": 0.417,
      "velocity": 1,
      "hand": "right"
    },
    {
      "midi": 83,
      "time": 245.417,
      "duration": 0.417,
      "velocity": 1,
      "hand": "right"
    },
    {
      "midi": 52,
      "time": 245.833,
      "duration": 0.417,
      "velocity": 1,
      "hand": "left"
    },
    {
      "midi": 59,
      "time": 245.833,
      "duration": 0.833,
      "velocity": 1,
      "hand": "left"
    },
    {
      "midi": 67,
      "time": 245.833,
      "duration": 0.833,
      "velocity": 1,
      "hand": "right"
    },
    {
      "midi": 64,
      "time": 246.25,
      "duration": 0.417,
      "velocity": 1,
      "hand": "right"
    },
    {
      "midi": 71,
      "time": 246.25,
      "duration": 0.417,
      "velocity": 1,
      "hand": "right"
    },
    {
      "midi": 79,
      "time": 246.25,
      "duration": 0.417,
      "velocity": 1,
      "hand": "right"
    },
    {
      "midi": 51,
      "time": 246.667,
      "duration": 0.417,
      "velocity": 1,
      "hand": "left"
    },
    {
      "midi": 59,
      "time": 246.667,
      "duration": 0.833,
      "velocity": 1,
      "hand": "left"
    },
    {
      "midi": 66,
      "time": 246.667,
      "duration": 0.833,
      "velocity": 1,
      "hand": "right"
    },
    {
      "midi": 63,
      "time": 247.083,
      "duration": 0.417,
      "velocity": 1,
      "hand": "right"
    },
    {
      "midi": 69,
      "time": 247.083,
      "duration": 0.417,
      "velocity": 1,
      "hand": "right"
    },
    {
      "midi": 71,
      "time": 247.083,
      "duration": 0.417,
      "velocity": 1,
      "hand": "right"
    },
    {
      "midi": 78,
      "time": 247.083,
      "duration": 0.417,
      "velocity": 1,
      "hand": "right"
    },
    {
      "midi": 52,
      "time": 247.5,
      "duration": 0.417,
      "velocity": 1,
      "hand": "left"
    },
    {
      "midi": 59,
      "time": 247.5,
      "duration": 0.833,
      "velocity": 1,
      "hand": "left"
    },
    {
      "midi": 67,
      "time": 247.5,
      "duration": 0.833,
      "velocity": 1,
      "hand": "right"
    },
    {
      "midi": 64,
      "time": 247.917,
      "duration": 0.417,
      "velocity": 1,
      "hand": "right"
    },
    {
      "midi": 71,
      "time": 247.917,
      "duration": 0.417,
      "velocity": 1,
      "hand": "right"
    },
    {
      "midi": 79,
      "time": 247.917,
      "duration": 0.417,
      "velocity": 1,
      "hand": "right"
    },
    {
      "midi": 53,
      "time": 248.333,
      "duration": 0.417,
      "velocity": 1,
      "hand": "left"
    },
    {
      "midi": 61,
      "time": 248.333,
      "duration": 0.833,
      "velocity": 1,
      "hand": "right"
    },
    {
      "midi": 71,
      "time": 248.333,
      "duration": 0.833,
      "velocity": 1,
      "hand": "right"
    },
    {
      "midi": 65,
      "time": 248.75,
      "duration": 0.417,
      "velocity": 1,
      "hand": "right"
    },
    {
      "midi": 80,
      "time": 248.75,
      "duration": 0.417,
      "velocity": 1,
      "hand": "right"
    },
    {
      "midi": 85,
      "time": 248.75,
      "duration": 0.417,
      "velocity": 1,
      "hand": "right"
    },
    {
      "midi": 54,
      "time": 249.167,
      "duration": 0.417,
      "velocity": 1,
      "hand": "left"
    },
    {
      "midi": 61,
      "time": 249.167,
      "duration": 0.833,
      "velocity": 1,
      "hand": "right"
    },
    {
      "midi": 69,
      "time": 249.167,
      "duration": 0.833,
      "velocity": 1,
      "hand": "right"
    },
    {
      "midi": 66,
      "time": 249.583,
      "duration": 0.417,
      "velocity": 1,
      "hand": "right"
    },
    {
      "midi": 73,
      "time": 249.583,
      "duration": 0.417,
      "velocity": 1,
      "hand": "right"
    },
    {
      "midi": 81,
      "time": 249.583,
      "duration": 0.417,
      "velocity": 1,
      "hand": "right"
    },
    {
      "midi": 54,
      "time": 250,
      "duration": 0.417,
      "velocity": 1,
      "hand": "left"
    },
    {
      "midi": 62,
      "time": 250,
      "duration": 0.833,
      "velocity": 1,
      "hand": "right"
    },
    {
      "midi": 72,
      "time": 250,
      "duration": 0.833,
      "velocity": 1,
      "hand": "right"
    },
    {
      "midi": 66,
      "time": 250.417,
      "duration": 0.417,
      "velocity": 1,
      "hand": "right"
    },
    {
      "midi": 81,
      "time": 250.417,
      "duration": 0.417,
      "velocity": 1,
      "hand": "right"
    },
    {
      "midi": 86,
      "time": 250.417,
      "duration": 0.417,
      "velocity": 1,
      "hand": "right"
    },
    {
      "midi": 55,
      "time": 250.833,
      "duration": 0.417,
      "velocity": 1,
      "hand": "left"
    },
    {
      "midi": 62,
      "time": 250.833,
      "duration": 0.833,
      "velocity": 1,
      "hand": "right"
    },
    {
      "midi": 71,
      "time": 250.833,
      "duration": 0.833,
      "velocity": 1,
      "hand": "right"
    },
    {
      "midi": 67,
      "time": 251.25,
      "duration": 0.417,
      "velocity": 1,
      "hand": "right"
    },
    {
      "midi": 74,
      "time": 251.25,
      "duration": 0.417,
      "velocity": 1,
      "hand": "right"
    },
    {
      "midi": 83,
      "time": 251.25,
      "duration": 0.417,
      "velocity": 1,
      "hand": "right"
    },
    {
      "midi": 54,
      "time": 251.667,
      "duration": 0.417,
      "velocity": 1,
      "hand": "left"
    },
    {
      "midi": 62,
      "time": 251.667,
      "duration": 0.833,
      "velocity": 1,
      "hand": "right"
    },
    {
      "midi": 72,
      "time": 251.667,
      "duration": 0.833,
      "velocity": 1,
      "hand": "right"
    },
    {
      "midi": 66,
      "time": 252.083,
      "duration": 0.417,
      "velocity": 1,
      "hand": "right"
    },
    {
      "midi": 81,
      "time": 252.083,
      "duration": 0.417,
      "velocity": 1,
      "hand": "right"
    },
    {
      "midi": 86,
      "time": 252.083,
      "duration": 0.417,
      "velocity": 1,
      "hand": "right"
    },
    {
      "midi": 55,
      "time": 252.5,
      "duration": 0.417,
      "velocity": 1,
      "hand": "left"
    },
    {
      "midi": 62,
      "time": 252.5,
      "duration": 0.833,
      "velocity": 1,
      "hand": "right"
    },
    {
      "midi": 71,
      "time": 252.5,
      "duration": 0.833,
      "velocity": 1,
      "hand": "right"
    },
    {
      "midi": 67,
      "time": 252.917,
      "duration": 0.417,
      "velocity": 1,
      "hand": "right"
    },
    {
      "midi": 74,
      "time": 252.917,
      "duration": 0.417,
      "velocity": 1,
      "hand": "right"
    },
    {
      "midi": 83,
      "time": 252.917,
      "duration": 0.417,
      "velocity": 1,
      "hand": "right"
    },
    {
      "midi": 67,
      "time": 253.333,
      "duration": 0.417,
      "velocity": 1,
      "hand": "right"
    },
    {
      "midi": 70,
      "time": 253.333,
      "duration": 0.417,
      "velocity": 1,
      "hand": "right"
    },
    {
      "midi": 74,
      "time": 253.333,
      "duration": 0.417,
      "velocity": 1,
      "hand": "right"
    },
    {
      "midi": 88,
      "time": 253.333,
      "duration": 0.208,
      "velocity": 1,
      "hand": "right"
    },
    {
      "midi": 86,
      "time": 253.542,
      "duration": 0.208,
      "velocity": 1,
      "hand": "right"
    },
    {
      "midi": 82,
      "time": 253.75,
      "duration": 0.208,
      "velocity": 1,
      "hand": "right"
    },
    {
      "midi": 81,
      "time": 253.958,
      "duration": 0.208,
      "velocity": 1,
      "hand": "right"
    },
    {
      "midi": 76,
      "time": 254.167,
      "duration": 0.208,
      "velocity": 1,
      "hand": "right"
    },
    {
      "midi": 79,
      "time": 254.167,
      "duration": 0.417,
      "velocity": 1,
      "hand": "right"
    },
    {
      "midi": 74,
      "time": 254.375,
      "duration": 0.208,
      "velocity": 1,
      "hand": "right"
    },
    {
      "midi": 70,
      "time": 254.583,
      "duration": 0.208,
      "velocity": 1,
      "hand": "right"
    },
    {
      "midi": 69,
      "time": 254.792,
      "duration": 0.208,
      "velocity": 1,
      "hand": "right"
    },
    {
      "midi": 67,
      "time": 255,
      "duration": 0.417,
      "velocity": 1,
      "hand": "right"
    },
    {
      "midi": 76,
      "time": 255,
      "duration": 0.208,
      "velocity": 1,
      "hand": "right"
    },
    {
      "midi": 74,
      "time": 255.208,
      "duration": 0.208,
      "velocity": 1,
      "hand": "right"
    },
    {
      "midi": 70,
      "time": 255.417,
      "duration": 0.208,
      "velocity": 1,
      "hand": "right"
    },
    {
      "midi": 69,
      "time": 255.625,
      "duration": 0.208,
      "velocity": 1,
      "hand": "right"
    },
    {
      "midi": 64,
      "time": 255.833,
      "duration": 0.208,
      "velocity": 1,
      "hand": "right"
    },
    {
      "midi": 67,
      "time": 255.833,
      "duration": 0.417,
      "velocity": 1,
      "hand": "right"
    },
    {
      "midi": 62,
      "time": 256.042,
      "duration": 0.208,
      "velocity": 1,
      "hand": "right"
    },
    {
      "midi": 58,
      "time": 256.25,
      "duration": 0.208,
      "velocity": 1,
      "hand": "left"
    },
    {
      "midi": 57,
      "time": 256.458,
      "duration": 0.208,
      "velocity": 1,
      "hand": "left"
    },
    {
      "midi": 55,
      "time": 256.667,
      "duration": 0.417,
      "velocity": 1,
      "hand": "left"
    },
    {
      "midi": 64,
      "time": 256.667,
      "duration": 0.208,
      "velocity": 1,
      "hand": "right"
    },
    {
      "midi": 62,
      "time": 256.875,
      "duration": 0.208,
      "velocity": 1,
      "hand": "right"
    },
    {
      "midi": 58,
      "time": 257.083,
      "duration": 0.208,
      "velocity": 1,
      "hand": "left"
    },
    {
      "midi": 57,
      "time": 257.292,
      "duration": 0.208,
      "velocity": 1,
      "hand": "left"
    },
    {
      "midi": 52,
      "time": 257.5,
      "duration": 0.208,
      "velocity": 1,
      "hand": "left"
    },
    {
      "midi": 55,
      "time": 257.5,
      "duration": 0.417,
      "velocity": 1,
      "hand": "left"
    },
    {
      "midi": 50,
      "time": 257.708,
      "duration": 0.208,
      "velocity": 1,
      "hand": "left"
    },
    {
      "midi": 46,
      "time": 257.917,
      "duration": 0.208,
      "velocity": 1,
      "hand": "left"
    },
    {
      "midi": 45,
      "time": 258.125,
      "duration": 0.208,
      "velocity": 1,
      "hand": "left"
    },
    {
      "midi": 43,
      "time": 258.333,
      "duration": 0.417,
      "velocity": 1,
      "hand": "left"
    },
    {
      "midi": 52,
      "time": 258.333,
      "duration": 0.208,
      "velocity": 1,
      "hand": "left"
    },
    {
      "midi": 50,
      "time": 258.542,
      "duration": 0.208,
      "velocity": 1,
      "hand": "left"
    },
    {
      "midi": 46,
      "time": 258.75,
      "duration": 0.208,
      "velocity": 1,
      "hand": "left"
    },
    {
      "midi": 45,
      "time": 258.958,
      "duration": 0.208,
      "velocity": 1,
      "hand": "left"
    },
    {
      "midi": 40,
      "time": 259.167,
      "duration": 0.208,
      "velocity": 1,
      "hand": "left"
    },
    {
      "midi": 43,
      "time": 259.167,
      "duration": 0.417,
      "velocity": 1,
      "hand": "left"
    },
    {
      "midi": 38,
      "time": 259.375,
      "duration": 0.208,
      "velocity": 1,
      "hand": "left"
    },
    {
      "midi": 34,
      "time": 259.583,
      "duration": 0.208,
      "velocity": 1,
      "hand": "left"
    },
    {
      "midi": 33,
      "time": 259.792,
      "duration": 0.208,
      "velocity": 1,
      "hand": "left"
    },
    {
      "midi": 31,
      "time": 260,
      "duration": 0.417,
      "velocity": 1,
      "hand": "left"
    },
    {
      "midi": 31,
      "time": 260.417,
      "duration": 0.417,
      "velocity": 1,
      "hand": "left"
    },
    {
      "midi": 31,
      "time": 260.833,
      "duration": 0.208,
      "velocity": 1,
      "hand": "left"
    },
    {
      "midi": 33,
      "time": 261.042,
      "duration": 0.208,
      "velocity": 1,
      "hand": "left"
    },
    {
      "midi": 34,
      "time": 261.25,
      "duration": 0.208,
      "velocity": 1,
      "hand": "left"
    },
    {
      "midi": 31,
      "time": 261.458,
      "duration": 0.208,
      "velocity": 1,
      "hand": "left"
    },
    {
      "midi": 33,
      "time": 261.667,
      "duration": 0.417,
      "velocity": 1,
      "hand": "left"
    },
    {
      "midi": 33,
      "time": 262.083,
      "duration": 0.417,
      "velocity": 1,
      "hand": "left"
    },
    {
      "midi": 34,
      "time": 262.5,
      "duration": 0.417,
      "velocity": 1,
      "hand": "left"
    },
    {
      "midi": 31,
      "time": 262.917,
      "duration": 0.417,
      "velocity": 1,
      "hand": "left"
    },
    {
      "midi": 50,
      "time": 263.333,
      "duration": 3.333,
      "velocity": 1,
      "hand": "left"
    },
    {
      "midi": 52,
      "time": 263.333,
      "duration": 3.333,
      "velocity": 1,
      "hand": "left"
    },
    {
      "midi": 62,
      "time": 263.333,
      "duration": 3.333,
      "velocity": 1,
      "hand": "right"
    },
    {
      "midi": 64,
      "time": 263.333,
      "duration": 3.333,
      "velocity": 1,
      "hand": "right"
    },
    {
      "midi": 31,
      "time": 264.167,
      "duration": 0.833,
      "velocity": 1,
      "hand": "left"
    },
    {
      "midi": 43,
      "time": 264.167,
      "duration": 0.833,
      "velocity": 1,
      "hand": "left"
    },
    {
      "midi": 33,
      "time": 265,
      "duration": 0.833,
      "velocity": 1,
      "hand": "left"
    },
    {
      "midi": 45,
      "time": 265,
      "duration": 0.833,
      "velocity": 1,
      "hand": "left"
    },
    {
      "midi": 34,
      "time": 265.833,
      "duration": 0.833,
      "velocity": 1,
      "hand": "left"
    },
    {
      "midi": 46,
      "time": 265.833,
      "duration": 0.833,
      "velocity": 1,
      "hand": "left"
    },
    {
      "midi": 43,
      "time": 266.667,
      "duration": 0.417,
      "velocity": 1,
      "hand": "left"
    },
    {
      "midi": 43,
      "time": 267.083,
      "duration": 0.417,
      "velocity": 1,
      "hand": "left"
    },
    {
      "midi": 43,
      "time": 267.5,
      "duration": 0.208,
      "velocity": 1,
      "hand": "left"
    },
    {
      "midi": 45,
      "time": 267.708,
      "duration": 0.208,
      "velocity": 1,
      "hand": "left"
    },
    {
      "midi": 46,
      "time": 267.917,
      "duration": 0.208,
      "velocity": 1,
      "hand": "left"
    },
    {
      "midi": 45,
      "time": 268.125,
      "duration": 0.208,
      "velocity": 1,
      "hand": "left"
    },
    {
      "midi": 45,
      "time": 268.333,
      "duration": 0.417,
      "velocity": 1,
      "hand": "left"
    },
    {
      "midi": 45,
      "time": 268.75,
      "duration": 0.417,
      "velocity": 1,
      "hand": "left"
    },
    {
      "midi": 46,
      "time": 269.167,
      "duration": 0.417,
      "velocity": 1,
      "hand": "left"
    },
    {
      "midi": 43,
      "time": 269.583,
      "duration": 0.417,
      "velocity": 1,
      "hand": "left"
    },
    {
      "midi": 62,
      "time": 270,
      "duration": 3.333,
      "velocity": 1,
      "hand": "right"
    },
    {
      "midi": 64,
      "time": 270,
      "duration": 3.333,
      "velocity": 1,
      "hand": "right"
    },
    {
      "midi": 74,
      "time": 270,
      "duration": 3.333,
      "velocity": 1,
      "hand": "right"
    },
    {
      "midi": 76,
      "time": 270,
      "duration": 3.333,
      "velocity": 1,
      "hand": "right"
    },
    {
      "midi": 43,
      "time": 270.833,
      "duration": 0.833,
      "velocity": 1,
      "hand": "left"
    },
    {
      "midi": 55,
      "time": 270.833,
      "duration": 0.833,
      "velocity": 1,
      "hand": "left"
    },
    {
      "midi": 45,
      "time": 271.667,
      "duration": 0.833,
      "velocity": 1,
      "hand": "left"
    },
    {
      "midi": 57,
      "time": 271.667,
      "duration": 0.833,
      "velocity": 1,
      "hand": "left"
    },
    {
      "midi": 46,
      "time": 272.5,
      "duration": 0.833,
      "velocity": 1,
      "hand": "left"
    },
    {
      "midi": 58,
      "time": 272.5,
      "duration": 0.833,
      "velocity": 1,
      "hand": "left"
    },
    {
      "midi": 74,
      "time": 273.333,
      "duration": 3.333,
      "velocity": 1,
      "hand": "right"
    },
    {
      "midi": 76,
      "time": 273.333,
      "duration": 3.333,
      "velocity": 1,
      "hand": "right"
    },
    {
      "midi": 86,
      "time": 273.333,
      "duration": 3.333,
      "velocity": 1,
      "hand": "right"
    },
    {
      "midi": 88,
      "time": 273.333,
      "duration": 3.333,
      "velocity": 1,
      "hand": "right"
    },
    {
      "midi": 55,
      "time": 274.167,
      "duration": 0.833,
      "velocity": 1,
      "hand": "left"
    },
    {
      "midi": 67,
      "time": 274.167,
      "duration": 0.833,
      "velocity": 1,
      "hand": "right"
    },
    {
      "midi": 57,
      "time": 275,
      "duration": 0.833,
      "velocity": 1,
      "hand": "left"
    },
    {
      "midi": 69,
      "time": 275,
      "duration": 0.833,
      "velocity": 1,
      "hand": "right"
    },
    {
      "midi": 58,
      "time": 275.833,
      "duration": 0.833,
      "velocity": 1,
      "hand": "left"
    },
    {
      "midi": 70,
      "time": 275.833,
      "duration": 0.833,
      "velocity": 1,
      "hand": "right"
    },
    {
      "midi": 43,
      "time": 278.333,
      "duration": 0.417,
      "velocity": 1,
      "hand": "left"
    },
    {
      "midi": 79,
      "time": 278.333,
      "duration": 0.417,
      "velocity": 1,
      "hand": "right"
    },
    {
      "midi": 43,
      "time": 278.75,
      "duration": 0.417,
      "velocity": 1,
      "hand": "left"
    },
    {
      "midi": 79,
      "time": 278.75,
      "duration": 0.417,
      "velocity": 1,
      "hand": "right"
    },
    {
      "midi": 43,
      "time": 279.167,
      "duration": 0.208,
      "velocity": 1,
      "hand": "left"
    },
    {
      "midi": 79,
      "time": 279.167,
      "duration": 0.208,
      "velocity": 1,
      "hand": "right"
    },
    {
      "midi": 45,
      "time": 279.375,
      "duration": 0.208,
      "velocity": 1,
      "hand": "left"
    },
    {
      "midi": 81,
      "time": 279.375,
      "duration": 0.208,
      "velocity": 1,
      "hand": "right"
    },
    {
      "midi": 46,
      "time": 279.583,
      "duration": 0.208,
      "velocity": 1,
      "hand": "left"
    },
    {
      "midi": 82,
      "time": 279.583,
      "duration": 0.208,
      "velocity": 1,
      "hand": "right"
    },
    {
      "midi": 43,
      "time": 279.792,
      "duration": 0.208,
      "velocity": 1,
      "hand": "left"
    },
    {
      "midi": 79,
      "time": 279.792,
      "duration": 0.208,
      "velocity": 1,
      "hand": "right"
    },
    {
      "midi": 44,
      "time": 280,
      "duration": 0.417,
      "velocity": 1,
      "hand": "left"
    },
    {
      "midi": 80,
      "time": 280,
      "duration": 0.417,
      "velocity": 1,
      "hand": "right"
    },
    {
      "midi": 45,
      "time": 280.417,
      "duration": 0.417,
      "velocity": 1,
      "hand": "left"
    },
    {
      "midi": 81,
      "time": 280.417,
      "duration": 0.417,
      "velocity": 1,
      "hand": "right"
    },
    {
      "midi": 38,
      "time": 280.833,
      "duration": 0.417,
      "velocity": 1,
      "hand": "left"
    },
    {
      "midi": 45,
      "time": 280.833,
      "duration": 0.417,
      "velocity": 1,
      "hand": "left"
    },
    {
      "midi": 50,
      "time": 280.833,
      "duration": 0.417,
      "velocity": 1,
      "hand": "left"
    },
    {
      "midi": 74,
      "time": 280.833,
      "duration": 0.417,
      "velocity": 1,
      "hand": "right"
    },
    {
      "midi": 78,
      "time": 280.833,
      "duration": 0.417,
      "velocity": 1,
      "hand": "right"
    },
    {
      "midi": 86,
      "time": 280.833,
      "duration": 0.417,
      "velocity": 1,
      "hand": "right"
    }
  ],
  "arrangements": {
    "easy": [
      {
        "midi": 81,
        "time": 0,
        "duration": 0.833,
        "velocity": 1,
        "hand": "right"
      },
      {
        "midi": 69,
        "time": 0.417,
        "duration": 0.417,
        "velocity": 1,
        "hand": "right"
      },
      {
        "midi": 64,
        "time": 1.25,
        "duration": 0.417,
        "velocity": 1,
        "hand": "right"
      },
      {
        "midi": 81,
        "time": 1.667,
        "duration": 0.833,
        "velocity": 1,
        "hand": "right"
      },
      {
        "midi": 76,
        "time": 2.5,
        "duration": 0.833,
        "velocity": 1,
        "hand": "right"
      },
      {
        "midi": 64,
        "time": 2.917,
        "duration": 0.417,
        "velocity": 1,
        "hand": "right"
      },
      {
        "midi": 76,
        "time": 3.542,
        "duration": 0.417,
        "velocity": 1,
        "hand": "right"
      },
      {
        "midi": 78,
        "time": 4.167,
        "duration": 0.417,
        "velocity": 1,
        "hand": "right"
      },
      {
        "midi": 76,
        "time": 5,
        "duration": 0.417,
        "velocity": 1,
        "hand": "right"
      },
      {
        "midi": 79,
        "time": 5.417,
        "duration": 0.417,
        "velocity": 1,
        "hand": "right"
      },
      {
        "midi": 69,
        "time": 6.25,
        "duration": 0.417,
        "velocity": 1,
        "hand": "right"
      },
      {
        "midi": 81,
        "time": 6.667,
        "duration": 0.833,
        "velocity": 1,
        "hand": "right"
      },
      {
        "midi": 76,
        "time": 7.5,
        "duration": 0.833,
        "velocity": 1,
        "hand": "right"
      },
      {
        "midi": 64,
        "time": 7.917,
        "duration": 0.417,
        "velocity": 1,
        "hand": "right"
      },
      {
        "midi": 69,
        "time": 8.75,
        "duration": 0.417,
        "velocity": 1,
        "hand": "right"
      },
      {
        "midi": 76,
        "time": 9.167,
        "duration": 0.833,
        "velocity": 1,
        "hand": "right"
      },
      {
        "midi": 74,
        "time": 10,
        "duration": 0.417,
        "velocity": 1,
        "hand": "right"
      },
      {
        "midi": 78,
        "time": 11.25,
        "duration": 0.417,
        "velocity": 1,
        "hand": "right"
      },
      {
        "midi": 76,
        "time": 11.667,
        "duration": 0.417,
        "velocity": 1,
        "hand": "right"
      },
      {
        "midi": 81,
        "time": 12.292,
        "duration": 0.417,
        "velocity": 1,
        "hand": "right"
      },
      {
        "midi": 63,
        "time": 13.542,
        "duration": 0.417,
        "velocity": 1,
        "hand": "right"
      },
      {
        "midi": 60,
        "time": 14.167,
        "duration": 0.417,
        "velocity": 1,
        "hand": "right"
      },
      {
        "midi": 65,
        "time": 15.208,
        "duration": 0.417,
        "velocity": 1,
        "hand": "right"
      },
      {
        "midi": 74,
        "time": 16.25,
        "duration": 0.417,
        "velocity": 1,
        "hand": "right"
      },
      {
        "midi": 62,
        "time": 16.667,
        "duration": 0.833,
        "velocity": 1,
        "hand": "right"
      },
      {
        "midi": 63,
        "time": 17.5,
        "duration": 0.833,
        "velocity": 1,
        "hand": "right"
      },
      {
        "midi": 75,
        "time": 17.917,
        "duration": 0.417,
        "velocity": 1,
        "hand": "right"
      },
      {
        "midi": 79,
        "time": 18.75,
        "duration": 0.417,
        "velocity": 1,
        "hand": "right"
      },
      {
        "midi": 63,
        "time": 19.167,
        "duration": 0.833,
        "velocity": 1,
        "hand": "right"
      },
      {
        "midi": 67,
        "time": 20.208,
        "duration": 0.417,
        "velocity": 1,
        "hand": "right"
      },
      {
        "midi": 76,
        "time": 21.25,
        "duration": 0.417,
        "velocity": 1,
        "hand": "right"
      },
      {
        "midi": 69,
        "time": 21.875,
        "duration": 0.417,
        "velocity": 1,
        "hand": "right"
      },
      {
        "midi": 77,
        "time": 22.917,
        "duration": 0.417,
        "velocity": 1,
        "hand": "right"
      },
      {
        "midi": 76,
        "time": 23.75,
        "duration": 0.417,
        "velocity": 1,
        "hand": "right"
      },
      {
        "midi": 65,
        "time": 24.167,
        "duration": 0.833,
        "velocity": 1,
        "hand": "right"
      },
      {
        "midi": 67,
        "time": 25,
        "duration": 0.833,
        "velocity": 1,
        "hand": "right"
      },
      {
        "midi": 81,
        "time": 25.417,
        "duration": 0.417,
        "velocity": 1,
        "hand": "right"
      },
      {
        "midi": 77,
        "time": 26.25,
        "duration": 0.417,
        "velocity": 1,
        "hand": "right"
      },
      {
        "midi": 64,
        "time": 26.667,
        "duration": 0.833,
        "velocity": 1,
        "hand": "right"
      },
      {
        "midi": 65,
        "time": 27.5,
        "duration": 0.833,
        "velocity": 1,
        "hand": "right"
      },
      {
        "midi": 77,
        "time": 27.917,
        "duration": 0.417,
        "velocity": 1,
        "hand": "right"
      },
      {
        "midi": 83,
        "time": 28.75,
        "duration": 0.417,
        "velocity": 1,
        "hand": "right"
      },
      {
        "midi": 67,
        "time": 29.167,
        "duration": 0.833,
        "velocity": 1,
        "hand": "right"
      },
      {
        "midi": 66,
        "time": 30,
        "duration": 0.833,
        "velocity": 1,
        "hand": "right"
      },
      {
        "midi": 78,
        "time": 30.417,
        "duration": 0.417,
        "velocity": 1,
        "hand": "right"
      },
      {
        "midi": 79,
        "time": 31.25,
        "duration": 0.417,
        "velocity": 1,
        "hand": "right"
      },
      {
        "midi": 71,
        "time": 31.667,
        "duration": 0.833,
        "velocity": 1,
        "hand": "right"
      },
      {
        "midi": 69,
        "time": 32.5,
        "duration": 0.833,
        "velocity": 1,
        "hand": "right"
      },
      {
        "midi": 81,
        "time": 32.917,
        "duration": 0.417,
        "velocity": 1,
        "hand": "right"
      },
      {
        "midi": 86,
        "time": 33.75,
        "duration": 0.417,
        "velocity": 1,
        "hand": "right"
      },
      {
        "midi": 71,
        "time": 34.167,
        "duration": 0.833,
        "velocity": 1,
        "hand": "right"
      },
      {
        "midi": 72,
        "time": 35,
        "duration": 0.833,
        "velocity": 1,
        "hand": "right"
      },
      {
        "midi": 86,
        "time": 35.417,
        "duration": 0.417,
        "velocity": 1,
        "hand": "right"
      },
      {
        "midi": 83,
        "time": 36.25,
        "duration": 0.417,
        "velocity": 1,
        "hand": "right"
      },
      {
        "midi": 88,
        "time": 36.667,
        "duration": 0.417,
        "velocity": 1,
        "hand": "right"
      },
      {
        "midi": 81,
        "time": 37.292,
        "duration": 0.417,
        "velocity": 1,
        "hand": "right"
      },
      {
        "midi": 70,
        "time": 37.917,
        "duration": 0.417,
        "velocity": 1,
        "hand": "right"
      },
      {
        "midi": 62,
        "time": 38.542,
        "duration": 0.417,
        "velocity": 1,
        "hand": "right"
      },
      {
        "midi": 64,
        "time": 40.833,
        "duration": 1.25,
        "velocity": 1,
        "hand": "right"
      },
      {
        "midi": 69,
        "time": 42.083,
        "duration": 0.417,
        "velocity": 1,
        "hand": "right"
      },
      {
        "midi": 74,
        "time": 42.5,
        "duration": 0.417,
        "velocity": 1,
        "hand": "right"
      },
      {
        "midi": 78,
        "time": 43.333,
        "duration": 0.417,
        "velocity": 1,
        "hand": "right"
      },
      {
        "midi": 74,
        "time": 43.75,
        "duration": 0.417,
        "velocity": 1,
        "hand": "right"
      },
      {
        "midi": 71,
        "time": 44.167,
        "duration": 0.417,
        "velocity": 1,
        "hand": "right"
      },
      {
        "midi": 61,
        "time": 45,
        "duration": 0.833,
        "velocity": 1,
        "hand": "right"
      },
      {
        "midi": 70,
        "time": 45.417,
        "duration": 0.417,
        "velocity": 1,
        "hand": "right"
      },
      {
        "midi": 71,
        "time": 46.25,
        "duration": 0.417,
        "velocity": 1,
        "hand": "right"
      },
      {
        "midi": 61,
        "time": 46.667,
        "duration": 0.833,
        "velocity": 1,
        "hand": "right"
      },
      {
        "midi": 71,
        "time": 47.292,
        "duration": 0.417,
        "velocity": 1,
        "hand": "right"
      },
      {
        "midi": 66,
        "time": 47.917,
        "duration": 0.417,
        "velocity": 1,
        "hand": "right"
      },
      {
        "midi": 79,
        "time": 48.542,
        "duration": 0.417,
        "velocity": 1,
        "hand": "right"
      },
      {
        "midi": 66,
        "time": 49.167,
        "duration": 0.833,
        "velocity": 1,
        "hand": "right"
      },
      {
        "midi": 74,
        "time": 49.792,
        "duration": 0.417,
        "velocity": 1,
        "hand": "right"
      },
      {
        "midi": 74,
        "time": 50.417,
        "duration": 0.417,
        "velocity": 1,
        "hand": "right"
      },
      {
        "midi": 73,
        "time": 51.25,
        "duration": 0.417,
        "velocity": 1,
        "hand": "right"
      },
      {
        "midi": 61,
        "time": 51.667,
        "duration": 0.833,
        "velocity": 1,
        "hand": "right"
      },
      {
        "midi": 62,
        "time": 52.5,
        "duration": 0.833,
        "velocity": 1,
        "hand": "right"
      },
      {
        "midi": 71,
        "time": 52.917,
        "duration": 0.417,
        "velocity": 1,
        "hand": "right"
      },
      {
        "midi": 73,
        "time": 53.542,
        "duration": 0.417,
        "velocity": 1,
        "hand": "right"
      },
      {
        "midi": 62,
        "time": 54.167,
        "duration": 0.833,
        "velocity": 1,
        "hand": "right"
      },
      {
        "midi": 71,
        "time": 54.792,
        "duration": 0.417,
        "velocity": 1,
        "hand": "right"
      },
      {
        "midi": 71,
        "time": 55.417,
        "duration": 0.417,
        "velocity": 1,
        "hand": "right"
      },
      {
        "midi": 78,
        "time": 56.042,
        "duration": 0.417,
        "velocity": 1,
        "hand": "right"
      },
      {
        "midi": 62,
        "time": 57.083,
        "duration": 0.833,
        "velocity": 1,
        "hand": "right"
      },
      {
        "midi": 62,
        "time": 57.917,
        "duration": 0.833,
        "velocity": 1,
        "hand": "right"
      },
      {
        "midi": 62,
        "time": 58.75,
        "duration": 0.833,
        "velocity": 1,
        "hand": "right"
      },
      {
        "midi": 62,
        "time": 59.583,
        "duration": 0.417,
        "velocity": 1,
        "hand": "right"
      },
      {
        "midi": 71,
        "time": 60,
        "duration": 0.417,
        "velocity": 1,
        "hand": "right"
      },
      {
        "midi": 69,
        "time": 60.417,
        "duration": 0.417,
        "velocity": 1,
        "hand": "right"
      },
      {
        "midi": 67,
        "time": 61.25,
        "duration": 0.417,
        "velocity": 1,
        "hand": "right"
      },
      {
        "midi": 73,
        "time": 61.667,
        "duration": 0.417,
        "velocity": 1,
        "hand": "right"
      },
      {
        "midi": 63,
        "time": 62.5,
        "duration": 0.417,
        "velocity": 1,
        "hand": "right"
      },
      {
        "midi": 64,
        "time": 62.917,
        "duration": 0.417,
        "velocity": 1,
        "hand": "right"
      },
      {
        "midi": 64,
        "time": 63.75,
        "duration": 0.833,
        "velocity": 1,
        "hand": "right"
      },
      {
        "midi": 64,
        "time": 64.583,
        "duration": 0.833,
        "velocity": 1,
        "hand": "right"
      },
      {
        "midi": 64,
        "time": 65.417,
        "duration": 0.833,
        "velocity": 1,
        "hand": "right"
      },
      {
        "midi": 64,
        "time": 66.25,
        "duration": 0.417,
        "velocity": 1,
        "hand": "right"
      },
      {
        "midi": 73,
        "time": 66.667,
        "duration": 0.417,
        "velocity": 1,
        "hand": "right"
      },
      {
        "midi": 70,
        "time": 67.292,
        "duration": 0.417,
        "velocity": 1,
        "hand": "right"
      },
      {
        "midi": 69,
        "time": 67.917,
        "duration": 0.417,
        "velocity": 1,
        "hand": "right"
      },
      {
        "midi": 73,
        "time": 68.75,
        "duration": 0.417,
        "velocity": 1,
        "hand": "right"
      },
      {
        "midi": 65,
        "time": 69.167,
        "duration": 0.417,
        "velocity": 1,
        "hand": "right"
      },
      {
        "midi": 71,
        "time": 70,
        "duration": 0.417,
        "velocity": 1,
        "hand": "right"
      },
      {
        "midi": 74,
        "time": 70.417,
        "duration": 0.417,
        "velocity": 1,
        "hand": "right"
      },
      {
        "midi": 79,
        "time": 71.25,
        "duration": 0.417,
        "velocity": 1,
        "hand": "right"
      },
      {
        "midi": 65,
        "time": 71.667,
        "duration": 0.833,
        "velocity": 1,
        "hand": "right"
      },
      {
        "midi": 66,
        "time": 72.5,
        "duration": 0.833,
        "velocity": 1,
        "hand": "right"
      },
      {
        "midi": 78,
        "time": 72.917,
        "duration": 0.417,
        "velocity": 1,
        "hand": "right"
      },
      {
        "midi": 73,
        "time": 73.542,
        "duration": 0.417,
        "velocity": 1,
        "hand": "right"
      },
      {
        "midi": 78,
        "time": 74.167,
        "duration": 0.417,
        "velocity": 1,
        "hand": "right"
      },
      {
        "midi": 65,
        "time": 75,
        "duration": 0.833,
        "velocity": 1,
        "hand": "right"
      },
      {
        "midi": 77,
        "time": 75.417,
        "duration": 0.417,
        "velocity": 1,
        "hand": "right"
      },
      {
        "midi": 78,
        "time": 76.25,
        "duration": 0.417,
        "velocity": 1,
        "hand": "right"
      },
      {
        "midi": 74,
        "time": 76.667,
        "duration": 0.417,
        "velocity": 1,
        "hand": "right"
      },
      {
        "midi": 79,
        "time": 77.292,
        "duration": 0.417,
        "velocity": 1,
        "hand": "right"
      },
      {
        "midi": 82,
        "time": 77.917,
        "duration": 0.417,
        "velocity": 1,
        "hand": "right"
      },
      {
        "midi": 80,
        "time": 78.75,
        "duration": 0.417,
        "velocity": 1,
        "hand": "right"
      },
      {
        "midi": 69,
        "time": 79.167,
        "duration": 0.833,
        "velocity": 1,
        "hand": "right"
      },
      {
        "midi": 74,
        "time": 80,
        "duration": 0.417,
        "velocity": 1,
        "hand": "right"
      },
      {
        "midi": 78,
        "time": 80.417,
        "duration": 0.417,
        "velocity": 1,
        "hand": "right"
      },
      {
        "midi": 82,
        "time": 81.25,
        "duration": 0.417,
        "velocity": 1,
        "hand": "right"
      },
      {
        "midi": 68,
        "time": 81.667,
        "duration": 0.833,
        "velocity": 1,
        "hand": "right"
      },
      {
        "midi": 69,
        "time": 82.5,
        "duration": 0.833,
        "velocity": 1,
        "hand": "right"
      },
      {
        "midi": 81,
        "time": 82.917,
        "duration": 0.417,
        "velocity": 1,
        "hand": "right"
      },
      {
        "midi": 80,
        "time": 83.75,
        "duration": 0.417,
        "velocity": 1,
        "hand": "right"
      },
      {
        "midi": 69,
        "time": 84.167,
        "duration": 0.833,
        "velocity": 1,
        "hand": "right"
      },
      {
        "midi": 70,
        "time": 85,
        "duration": 0.833,
        "velocity": 1,
        "hand": "right"
      },
      {
        "midi": 82,
        "time": 85.417,
        "duration": 0.417,
        "velocity": 1,
        "hand": "right"
      },
      {
        "midi": 76,
        "time": 86.25,
        "duration": 0.417,
        "velocity": 1,
        "hand": "right"
      },
      {
        "midi": 67,
        "time": 86.667,
        "duration": 0.833,
        "velocity": 1,
        "hand": "right"
      },
      {
        "midi": 70,
        "time": 87.917,
        "duration": 0.417,
        "velocity": 1,
        "hand": "right"
      },
      {
        "midi": 74,
        "time": 88.75,
        "duration": 0.417,
        "velocity": 1,
        "hand": "right"
      },
      {
        "midi": 69,
        "time": 89.583,
        "duration": 0.417,
        "velocity": 1,
        "hand": "right"
      },
      {
        "midi": 60,
        "time": 92.083,
        "duration": 0.417,
        "velocity": 1,
        "hand": "right"
      },
      {
        "midi": 63,
        "time": 92.5,
        "duration": 0.417,
        "velocity": 1,
        "hand": "right"
      },
      {
        "midi": 68,
        "time": 92.917,
        "duration": 0.417,
        "velocity": 1,
        "hand": "right"
      },
      {
        "midi": 69,
        "time": 93.542,
        "duration": 0.417,
        "velocity": 1,
        "hand": "right"
      },
      {
        "midi": 75,
        "time": 94.167,
        "duration": 0.417,
        "velocity": 1,
        "hand": "right"
      },
      {
        "midi": 81,
        "time": 94.792,
        "duration": 0.417,
        "velocity": 1,
        "hand": "right"
      },
      {
        "midi": 84,
        "time": 95.417,
        "duration": 0.417,
        "velocity": 1,
        "hand": "right"
      },
      {
        "midi": 88,
        "time": 96.042,
        "duration": 0.417,
        "velocity": 1,
        "hand": "right"
      },
      {
        "midi": 81,
        "time": 96.667,
        "duration": 0.833,
        "velocity": 1,
        "hand": "right"
      },
      {
        "midi": 76,
        "time": 97.5,
        "duration": 0.833,
        "velocity": 1,
        "hand": "right"
      },
      {
        "midi": 64,
        "time": 97.917,
        "duration": 0.417,
        "velocity": 1,
        "hand": "right"
      },
      {
        "midi": 69,
        "time": 98.75,
        "duration": 0.417,
        "velocity": 1,
        "hand": "right"
      },
      {
        "midi": 76,
        "time": 99.167,
        "duration": 0.833,
        "velocity": 1,
        "hand": "right"
      },
      {
        "midi": 74,
        "time": 100,
        "duration": 0.417,
        "velocity": 1,
        "hand": "right"
      },
      {
        "midi": 78,
        "time": 101.25,
        "duration": 0.417,
        "velocity": 1,
        "hand": "right"
      },
      {
        "midi": 76,
        "time": 101.667,
        "duration": 0.417,
        "velocity": 1,
        "hand": "right"
      },
      {
        "midi": 76,
        "time": 102.5,
        "duration": 0.833,
        "velocity": 1,
        "hand": "right"
      },
      {
        "midi": 69,
        "time": 102.917,
        "duration": 0.417,
        "velocity": 1,
        "hand": "right"
      },
      {
        "midi": 69,
        "time": 103.75,
        "duration": 0.417,
        "velocity": 1,
        "hand": "right"
      },
      {
        "midi": 76,
        "time": 104.167,
        "duration": 0.833,
        "velocity": 1,
        "hand": "right"
      },
      {
        "midi": 81,
        "time": 105,
        "duration": 0.833,
        "velocity": 1,
        "hand": "right"
      },
      {
        "midi": 69,
        "time": 105.417,
        "duration": 0.417,
        "velocity": 1,
        "hand": "right"
      },
      {
        "midi": 64,
        "time": 106.25,
        "duration": 0.417,
        "velocity": 1,
        "hand": "right"
      },
      {
        "midi": 74,
        "time": 106.667,
        "duration": 0.417,
        "velocity": 1,
        "hand": "right"
      },
      {
        "midi": 76,
        "time": 107.292,
        "duration": 0.417,
        "velocity": 1,
        "hand": "right"
      },
      {
        "midi": 78,
        "time": 107.917,
        "duration": 0.417,
        "velocity": 1,
        "hand": "right"
      },
      {
        "midi": 78,
        "time": 108.542,
        "duration": 0.417,
        "velocity": 1,
        "hand": "right"
      },
      {
        "midi": 82,
        "time": 109.167,
        "duration": 0.417,
        "velocity": 1,
        "hand": "right"
      },
      {
        "midi": 63,
        "time": 110.208,
        "duration": 0.417,
        "velocity": 1,
        "hand": "right"
      },
      {
        "midi": 72,
        "time": 111.25,
        "duration": 0.417,
        "velocity": 1,
        "hand": "right"
      },
      {
        "midi": 65,
        "time": 111.875,
        "duration": 0.417,
        "velocity": 1,
        "hand": "right"
      },
      {
        "midi": 74,
        "time": 112.917,
        "duration": 0.417,
        "velocity": 1,
        "hand": "right"
      },
      {
        "midi": 74,
        "time": 113.75,
        "duration": 0.417,
        "velocity": 1,
        "hand": "right"
      },
      {
        "midi": 63,
        "time": 114.167,
        "duration": 0.833,
        "velocity": 1,
        "hand": "right"
      },
      {
        "midi": 65,
        "time": 115,
        "duration": 0.833,
        "velocity": 1,
        "hand": "right"
      },
      {
        "midi": 79,
        "time": 115.417,
        "duration": 0.417,
        "velocity": 1,
        "hand": "right"
      },
      {
        "midi": 75,
        "time": 116.25,
        "duration": 0.417,
        "velocity": 1,
        "hand": "right"
      },
      {
        "midi": 67,
        "time": 116.875,
        "duration": 0.417,
        "velocity": 1,
        "hand": "right"
      },
      {
        "midi": 76,
        "time": 117.917,
        "duration": 0.417,
        "velocity": 1,
        "hand": "right"
      },
      {
        "midi": 69,
        "time": 118.542,
        "duration": 0.417,
        "velocity": 1,
        "hand": "right"
      },
      {
        "midi": 65,
        "time": 119.167,
        "duration": 0.833,
        "velocity": 1,
        "hand": "right"
      },
      {
        "midi": 64,
        "time": 120,
        "duration": 0.833,
        "velocity": 1,
        "hand": "right"
      },
      {
        "midi": 76,
        "time": 120.417,
        "duration": 0.417,
        "velocity": 1,
        "hand": "right"
      },
      {
        "midi": 77,
        "time": 121.25,
        "duration": 0.417,
        "velocity": 1,
        "hand": "right"
      },
      {
        "midi": 67,
        "time": 121.667,
        "duration": 0.833,
        "velocity": 1,
        "hand": "right"
      },
      {
        "midi": 65,
        "time": 122.5,
        "duration": 0.833,
        "velocity": 1,
        "hand": "right"
      },
      {
        "midi": 77,
        "time": 122.917,
        "duration": 0.417,
        "velocity": 1,
        "hand": "right"
      },
      {
        "midi": 76,
        "time": 123.75,
        "duration": 0.417,
        "velocity": 1,
        "hand": "right"
      },
      {
        "midi": 65,
        "time": 124.167,
        "duration": 0.833,
        "velocity": 1,
        "hand": "right"
      },
      {
        "midi": 69,
        "time": 125,
        "duration": 0.833,
        "velocity": 1,
        "hand": "right"
      },
      {
        "midi": 83,
        "time": 125.417,
        "duration": 0.417,
        "velocity": 1,
        "hand": "right"
      },
      {
        "midi": 79,
        "time": 126.25,
        "duration": 0.417,
        "velocity": 1,
        "hand": "right"
      },
      {
        "midi": 66,
        "time": 126.667,
        "duration": 0.833,
        "velocity": 1,
        "hand": "right"
      },
      {
        "midi": 67,
        "time": 127.5,
        "duration": 0.833,
        "velocity": 1,
        "hand": "right"
      },
      {
        "midi": 79,
        "time": 127.917,
        "duration": 0.417,
        "velocity": 1,
        "hand": "right"
      },
      {
        "midi": 85,
        "time": 128.75,
        "duration": 0.417,
        "velocity": 1,
        "hand": "right"
      },
      {
        "midi": 69,
        "time": 129.167,
        "duration": 0.833,
        "velocity": 1,
        "hand": "right"
      },
      {
        "midi": 72,
        "time": 130,
        "duration": 0.833,
        "velocity": 1,
        "hand": "right"
      },
      {
        "midi": 86,
        "time": 130.417,
        "duration": 0.417,
        "velocity": 1,
        "hand": "right"
      },
      {
        "midi": 83,
        "time": 131.25,
        "duration": 0.417,
        "velocity": 1,
        "hand": "right"
      },
      {
        "midi": 72,
        "time": 131.667,
        "duration": 0.833,
        "velocity": 1,
        "hand": "right"
      },
      {
        "midi": 71,
        "time": 132.5,
        "duration": 0.833,
        "velocity": 1,
        "hand": "right"
      },
      {
        "midi": 83,
        "time": 132.917,
        "duration": 0.417,
        "velocity": 1,
        "hand": "right"
      },
      {
        "midi": 86,
        "time": 133.542,
        "duration": 0.417,
        "velocity": 1,
        "hand": "right"
      },
      {
        "midi": 79,
        "time": 134.167,
        "duration": 0.417,
        "velocity": 1,
        "hand": "right"
      },
      {
        "midi": 69,
        "time": 134.792,
        "duration": 0.417,
        "velocity": 1,
        "hand": "right"
      },
      {
        "midi": 64,
        "time": 137.5,
        "duration": 1.25,
        "velocity": 1,
        "hand": "right"
      },
      {
        "midi": 69,
        "time": 138.75,
        "duration": 0.417,
        "velocity": 1,
        "hand": "right"
      },
      {
        "midi": 74,
        "time": 139.167,
        "duration": 0.417,
        "velocity": 1,
        "hand": "right"
      },
      {
        "midi": 86,
        "time": 140,
        "duration": 1.667,
        "velocity": 1,
        "hand": "right"
      },
      {
        "midi": 79,
        "time": 140.833,
        "duration": 0.833,
        "velocity": 1,
        "hand": "right"
      },
      {
        "midi": 84,
        "time": 141.667,
        "duration": 1.667,
        "velocity": 1,
        "hand": "right"
      },
      {
        "midi": 77,
        "time": 142.5,
        "duration": 0.833,
        "velocity": 1,
        "hand": "right"
      },
      {
        "midi": 81,
        "time": 143.333,
        "duration": 0.625,
        "velocity": 1,
        "hand": "right"
      },
      {
        "midi": 82,
        "time": 143.958,
        "duration": 0.417,
        "velocity": 1,
        "hand": "right"
      },
      {
        "midi": 69,
        "time": 145,
        "duration": 0.833,
        "velocity": 1,
        "hand": "right"
      },
      {
        "midi": 65,
        "time": 145.833,
        "duration": 0.417,
        "velocity": 1,
        "hand": "right"
      },
      {
        "midi": 60,
        "time": 147.083,
        "duration": 0.417,
        "velocity": 1,
        "hand": "right"
      },
      {
        "midi": 65,
        "time": 147.5,
        "duration": 0.417,
        "velocity": 1,
        "hand": "right"
      },
      {
        "midi": 64,
        "time": 147.917,
        "duration": 0.417,
        "velocity": 1,
        "hand": "right"
      },
      {
        "midi": 64,
        "time": 148.75,
        "duration": 0.417,
        "velocity": 1,
        "hand": "right"
      },
      {
        "midi": 65,
        "time": 149.167,
        "duration": 0.833,
        "velocity": 1,
        "hand": "right"
      },
      {
        "midi": 72,
        "time": 150,
        "duration": 0.417,
        "velocity": 1,
        "hand": "right"
      },
      {
        "midi": 60,
        "time": 150.833,
        "duration": 1.667,
        "velocity": 1,
        "hand": "right"
      },
      {
        "midi": 60,
        "time": 152.5,
        "duration": 0.417,
        "velocity": 1,
        "hand": "right"
      },
      {
        "midi": 62,
        "time": 153.75,
        "duration": 0.417,
        "velocity": 1,
        "hand": "right"
      },
      {
        "midi": 73,
        "time": 154.167,
        "duration": 0.417,
        "velocity": 1,
        "hand": "right"
      },
      {
        "midi": 62,
        "time": 155.417,
        "duration": 0.417,
        "velocity": 1,
        "hand": "right"
      },
      {
        "midi": 74,
        "time": 156.25,
        "duration": 0.417,
        "velocity": 1,
        "hand": "right"
      },
      {
        "midi": 64,
        "time": 157.083,
        "duration": 0.417,
        "velocity": 1,
        "hand": "right"
      },
      {
        "midi": 75,
        "time": 157.5,
        "duration": 0.417,
        "velocity": 1,
        "hand": "right"
      },
      {
        "midi": 76,
        "time": 157.917,
        "duration": 0.417,
        "velocity": 1,
        "hand": "right"
      },
      {
        "midi": 64,
        "time": 158.75,
        "duration": 0.417,
        "velocity": 1,
        "hand": "right"
      },
      {
        "midi": 75,
        "time": 159.167,
        "duration": 0.417,
        "velocity": 1,
        "hand": "right"
      },
      {
        "midi": 89,
        "time": 160,
        "duration": 1.667,
        "velocity": 1,
        "hand": "right"
      },
      {
        "midi": 86,
        "time": 160.833,
        "duration": 0.833,
        "velocity": 1,
        "hand": "right"
      },
      {
        "midi": 79,
        "time": 161.667,
        "duration": 1.667,
        "velocity": 1,
        "hand": "right"
      },
      {
        "midi": 76,
        "time": 162.5,
        "duration": 0.833,
        "velocity": 1,
        "hand": "right"
      },
      {
        "midi": 84,
        "time": 163.333,
        "duration": 0.625,
        "velocity": 1,
        "hand": "right"
      },
      {
        "midi": 83,
        "time": 163.958,
        "duration": 0.417,
        "velocity": 1,
        "hand": "right"
      },
      {
        "midi": 77,
        "time": 165,
        "duration": 0.625,
        "velocity": 1,
        "hand": "right"
      },
      {
        "midi": 76,
        "time": 165.625,
        "duration": 0.417,
        "velocity": 1,
        "hand": "right"
      },
      {
        "midi": 62,
        "time": 167.083,
        "duration": 0.417,
        "velocity": 1,
        "hand": "right"
      },
      {
        "midi": 67,
        "time": 167.5,
        "duration": 0.417,
        "velocity": 1,
        "hand": "right"
      },
      {
        "midi": 66,
        "time": 167.917,
        "duration": 0.417,
        "velocity": 1,
        "hand": "right"
      },
      {
        "midi": 66,
        "time": 168.75,
        "duration": 0.417,
        "velocity": 1,
        "hand": "right"
      },
      {
        "midi": 67,
        "time": 169.167,
        "duration": 0.417,
        "velocity": 1,
        "hand": "right"
      },
      {
        "midi": 70,
        "time": 170,
        "duration": 0.833,
        "velocity": 1,
        "hand": "right"
      },
      {
        "midi": 74,
        "time": 170.417,
        "duration": 0.417,
        "velocity": 1,
        "hand": "right"
      },
      {
        "midi": 78,
        "time": 171.25,
        "duration": 0.417,
        "velocity": 1,
        "hand": "right"
      },
      {
        "midi": 76,
        "time": 171.667,
        "duration": 0.417,
        "velocity": 1,
        "hand": "right"
      },
      {
        "midi": 79,
        "time": 172.5,
        "duration": 0.417,
        "velocity": 1,
        "hand": "right"
      },
      {
        "midi": 91,
        "time": 173.333,
        "duration": 1.667,
        "velocity": 1,
        "hand": "right"
      },
      {
        "midi": 88,
        "time": 174.167,
        "duration": 0.833,
        "velocity": 1,
        "hand": "right"
      },
      {
        "midi": 81,
        "time": 175,
        "duration": 1.667,
        "velocity": 1,
        "hand": "right"
      },
      {
        "midi": 78,
        "time": 175.833,
        "duration": 0.833,
        "velocity": 1,
        "hand": "right"
      },
      {
        "midi": 86,
        "time": 176.667,
        "duration": 0.625,
        "velocity": 1,
        "hand": "right"
      },
      {
        "midi": 85,
        "time": 177.292,
        "duration": 0.417,
        "velocity": 1,
        "hand": "right"
      },
      {
        "midi": 79,
        "time": 178.333,
        "duration": 0.625,
        "velocity": 1,
        "hand": "right"
      },
      {
        "midi": 78,
        "time": 178.958,
        "duration": 0.417,
        "velocity": 1,
        "hand": "right"
      },
      {
        "midi": 60,
        "time": 180,
        "duration": 0.833,
        "velocity": 1,
        "hand": "right"
      },
      {
        "midi": 62,
        "time": 180.417,
        "duration": 0.417,
        "velocity": 1,
        "hand": "right"
      },
      {
        "midi": 66,
        "time": 181.25,
        "duration": 0.417,
        "velocity": 1,
        "hand": "right"
      },
      {
        "midi": 64,
        "time": 181.667,
        "duration": 0.417,
        "velocity": 1,
        "hand": "right"
      },
      {
        "midi": 67,
        "time": 182.5,
        "duration": 0.417,
        "velocity": 1,
        "hand": "right"
      },
      {
        "midi": 72,
        "time": 183.333,
        "duration": 0.833,
        "velocity": 1,
        "hand": "right"
      },
      {
        "midi": 76,
        "time": 183.75,
        "duration": 0.417,
        "velocity": 1,
        "hand": "right"
      },
      {
        "midi": 81,
        "time": 184.167,
        "duration": 0.417,
        "velocity": 1,
        "hand": "right"
      },
      {
        "midi": 78,
        "time": 185,
        "duration": 0.417,
        "velocity": 1,
        "hand": "right"
      },
      {
        "midi": 80,
        "time": 185.417,
        "duration": 0.417,
        "velocity": 1,
        "hand": "right"
      },
      {
        "midi": 72,
        "time": 186.667,
        "duration": 0.833,
        "velocity": 1,
        "hand": "right"
      },
      {
        "midi": 88,
        "time": 187.292,
        "duration": 0.417,
        "velocity": 1,
        "hand": "right"
      },
      {
        "midi": 64,
        "time": 187.917,
        "duration": 0.417,
        "velocity": 1,
        "hand": "right"
      },
      {
        "midi": 72,
        "time": 188.542,
        "duration": 0.417,
        "velocity": 1,
        "hand": "right"
      },
      {
        "midi": 76,
        "time": 189.167,
        "duration": 0.833,
        "velocity": 1,
        "hand": "right"
      },
      {
        "midi": 72,
        "time": 190,
        "duration": 0.833,
        "velocity": 1,
        "hand": "right"
      },
      {
        "midi": 81,
        "time": 190.417,
        "duration": 0.417,
        "velocity": 1,
        "hand": "right"
      },
      {
        "midi": 64,
        "time": 191.25,
        "duration": 0.417,
        "velocity": 1,
        "hand": "right"
      },
      {
        "midi": 69,
        "time": 191.667,
        "duration": 0.833,
        "velocity": 1,
        "hand": "right"
      },
      {
        "midi": 81,
        "time": 192.292,
        "duration": 0.417,
        "velocity": 1,
        "hand": "right"
      },
      {
        "midi": 64,
        "time": 192.917,
        "duration": 0.417,
        "velocity": 1,
        "hand": "right"
      },
      {
        "midi": 88,
        "time": 193.542,
        "duration": 0.417,
        "velocity": 1,
        "hand": "right"
      },
      {
        "midi": 80,
        "time": 194.167,
        "duration": 0.417,
        "velocity": 1,
        "hand": "right"
      },
      {
        "midi": 88,
        "time": 194.792,
        "duration": 0.417,
        "velocity": 1,
        "hand": "right"
      },
      {
        "midi": 90,
        "time": 195.417,
        "duration": 0.417,
        "velocity": 1,
        "hand": "right"
      },
      {
        "midi": 88,
        "time": 196.042,
        "duration": 0.417,
        "velocity": 1,
        "hand": "right"
      },
      {
        "midi": 69,
        "time": 196.667,
        "duration": 0.417,
        "velocity": 1,
        "hand": "right"
      },
      {
        "midi": 76,
        "time": 197.292,
        "duration": 0.417,
        "velocity": 1,
        "hand": "right"
      },
      {
        "midi": 78,
        "time": 197.917,
        "duration": 0.417,
        "velocity": 1,
        "hand": "right"
      },
      {
        "midi": 76,
        "time": 198.542,
        "duration": 0.417,
        "velocity": 1,
        "hand": "right"
      },
      {
        "midi": 73,
        "time": 199.167,
        "duration": 0.417,
        "velocity": 1,
        "hand": "right"
      },
      {
        "midi": 76,
        "time": 199.792,
        "duration": 0.417,
        "velocity": 1,
        "hand": "right"
      },
      {
        "midi": 74,
        "time": 200.417,
        "duration": 0.417,
        "velocity": 1,
        "hand": "right"
      },
      {
        "midi": 69,
        "time": 201.042,
        "duration": 0.417,
        "velocity": 1,
        "hand": "right"
      },
      {
        "midi": 62,
        "time": 201.667,
        "duration": 0.417,
        "velocity": 1,
        "hand": "right"
      },
      {
        "midi": 64,
        "time": 202.292,
        "duration": 0.417,
        "velocity": 1,
        "hand": "right"
      },
      {
        "midi": 66,
        "time": 202.917,
        "duration": 0.417,
        "velocity": 1,
        "hand": "right"
      },
      {
        "midi": 61,
        "time": 203.542,
        "duration": 0.417,
        "velocity": 1,
        "hand": "right"
      },
      {
        "midi": 61,
        "time": 204.583,
        "duration": 0.417,
        "velocity": 1,
        "hand": "right"
      },
      {
        "midi": 60,
        "time": 212.083,
        "duration": 0.417,
        "velocity": 1,
        "hand": "right"
      },
      {
        "midi": 63,
        "time": 212.5,
        "duration": 0.417,
        "velocity": 1,
        "hand": "right"
      },
      {
        "midi": 68,
        "time": 212.917,
        "duration": 0.417,
        "velocity": 1,
        "hand": "right"
      },
      {
        "midi": 69,
        "time": 213.542,
        "duration": 0.417,
        "velocity": 1,
        "hand": "right"
      },
      {
        "midi": 75,
        "time": 214.167,
        "duration": 0.417,
        "velocity": 1,
        "hand": "right"
      },
      {
        "midi": 81,
        "time": 214.792,
        "duration": 0.417,
        "velocity": 1,
        "hand": "right"
      },
      {
        "midi": 84,
        "time": 215.417,
        "duration": 0.417,
        "velocity": 1,
        "hand": "right"
      },
      {
        "midi": 88,
        "time": 216.042,
        "duration": 0.417,
        "velocity": 1,
        "hand": "right"
      },
      {
        "midi": 81,
        "time": 216.667,
        "duration": 0.833,
        "velocity": 1,
        "hand": "right"
      },
      {
        "midi": 76,
        "time": 217.5,
        "duration": 0.833,
        "velocity": 1,
        "hand": "right"
      },
      {
        "midi": 64,
        "time": 217.917,
        "duration": 0.417,
        "velocity": 1,
        "hand": "right"
      },
      {
        "midi": 69,
        "time": 218.75,
        "duration": 0.417,
        "velocity": 1,
        "hand": "right"
      },
      {
        "midi": 76,
        "time": 219.167,
        "duration": 0.833,
        "velocity": 1,
        "hand": "right"
      },
      {
        "midi": 74,
        "time": 220,
        "duration": 0.417,
        "velocity": 1,
        "hand": "right"
      },
      {
        "midi": 78,
        "time": 221.25,
        "duration": 0.417,
        "velocity": 1,
        "hand": "right"
      },
      {
        "midi": 76,
        "time": 221.667,
        "duration": 0.417,
        "velocity": 1,
        "hand": "right"
      },
      {
        "midi": 76,
        "time": 222.5,
        "duration": 0.833,
        "velocity": 1,
        "hand": "right"
      },
      {
        "midi": 69,
        "time": 222.917,
        "duration": 0.417,
        "velocity": 1,
        "hand": "right"
      },
      {
        "midi": 69,
        "time": 223.75,
        "duration": 0.417,
        "velocity": 1,
        "hand": "right"
      },
      {
        "midi": 76,
        "time": 224.167,
        "duration": 0.833,
        "velocity": 1,
        "hand": "right"
      },
      {
        "midi": 81,
        "time": 225,
        "duration": 0.833,
        "velocity": 1,
        "hand": "right"
      },
      {
        "midi": 69,
        "time": 225.417,
        "duration": 0.417,
        "velocity": 1,
        "hand": "right"
      },
      {
        "midi": 64,
        "time": 226.25,
        "duration": 0.417,
        "velocity": 1,
        "hand": "right"
      },
      {
        "midi": 74,
        "time": 226.667,
        "duration": 0.417,
        "velocity": 1,
        "hand": "right"
      },
      {
        "midi": 76,
        "time": 227.292,
        "duration": 0.417,
        "velocity": 1,
        "hand": "right"
      },
      {
        "midi": 78,
        "time": 227.917,
        "duration": 0.417,
        "velocity": 1,
        "hand": "right"
      },
      {
        "midi": 78,
        "time": 228.542,
        "duration": 0.417,
        "velocity": 1,
        "hand": "right"
      },
      {
        "midi": 82,
        "time": 229.167,
        "duration": 0.417,
        "velocity": 1,
        "hand": "right"
      },
      {
        "midi": 63,
        "time": 230.208,
        "duration": 0.417,
        "velocity": 1,
        "hand": "right"
      },
      {
        "midi": 72,
        "time": 231.25,
        "duration": 0.417,
        "velocity": 1,
        "hand": "right"
      },
      {
        "midi": 65,
        "time": 231.875,
        "duration": 0.417,
        "velocity": 1,
        "hand": "right"
      },
      {
        "midi": 74,
        "time": 232.917,
        "duration": 0.417,
        "velocity": 1,
        "hand": "right"
      },
      {
        "midi": 74,
        "time": 233.75,
        "duration": 0.417,
        "velocity": 1,
        "hand": "right"
      },
      {
        "midi": 63,
        "time": 234.167,
        "duration": 0.833,
        "velocity": 1,
        "hand": "right"
      },
      {
        "midi": 65,
        "time": 235,
        "duration": 0.833,
        "velocity": 1,
        "hand": "right"
      },
      {
        "midi": 79,
        "time": 235.417,
        "duration": 0.417,
        "velocity": 1,
        "hand": "right"
      },
      {
        "midi": 75,
        "time": 236.25,
        "duration": 0.417,
        "velocity": 1,
        "hand": "right"
      },
      {
        "midi": 67,
        "time": 236.875,
        "duration": 0.417,
        "velocity": 1,
        "hand": "right"
      },
      {
        "midi": 76,
        "time": 237.917,
        "duration": 0.417,
        "velocity": 1,
        "hand": "right"
      },
      {
        "midi": 69,
        "time": 238.542,
        "duration": 0.417,
        "velocity": 1,
        "hand": "right"
      },
      {
        "midi": 65,
        "time": 239.167,
        "duration": 0.833,
        "velocity": 1,
        "hand": "right"
      },
      {
        "midi": 64,
        "time": 240,
        "duration": 0.833,
        "velocity": 1,
        "hand": "right"
      },
      {
        "midi": 76,
        "time": 240.417,
        "duration": 0.417,
        "velocity": 1,
        "hand": "right"
      },
      {
        "midi": 77,
        "time": 241.25,
        "duration": 0.417,
        "velocity": 1,
        "hand": "right"
      },
      {
        "midi": 67,
        "time": 241.667,
        "duration": 0.833,
        "velocity": 1,
        "hand": "right"
      },
      {
        "midi": 65,
        "time": 242.5,
        "duration": 0.833,
        "velocity": 1,
        "hand": "right"
      },
      {
        "midi": 77,
        "time": 242.917,
        "duration": 0.417,
        "velocity": 1,
        "hand": "right"
      },
      {
        "midi": 76,
        "time": 243.75,
        "duration": 0.417,
        "velocity": 1,
        "hand": "right"
      },
      {
        "midi": 65,
        "time": 244.167,
        "duration": 0.833,
        "velocity": 1,
        "hand": "right"
      },
      {
        "midi": 69,
        "time": 245,
        "duration": 0.833,
        "velocity": 1,
        "hand": "right"
      },
      {
        "midi": 83,
        "time": 245.417,
        "duration": 0.417,
        "velocity": 1,
        "hand": "right"
      },
      {
        "midi": 79,
        "time": 246.25,
        "duration": 0.417,
        "velocity": 1,
        "hand": "right"
      },
      {
        "midi": 66,
        "time": 246.667,
        "duration": 0.833,
        "velocity": 1,
        "hand": "right"
      },
      {
        "midi": 67,
        "time": 247.5,
        "duration": 0.833,
        "velocity": 1,
        "hand": "right"
      },
      {
        "midi": 79,
        "time": 247.917,
        "duration": 0.417,
        "velocity": 1,
        "hand": "right"
      },
      {
        "midi": 85,
        "time": 248.75,
        "duration": 0.417,
        "velocity": 1,
        "hand": "right"
      },
      {
        "midi": 69,
        "time": 249.167,
        "duration": 0.833,
        "velocity": 1,
        "hand": "right"
      },
      {
        "midi": 72,
        "time": 250,
        "duration": 0.833,
        "velocity": 1,
        "hand": "right"
      },
      {
        "midi": 86,
        "time": 250.417,
        "duration": 0.417,
        "velocity": 1,
        "hand": "right"
      },
      {
        "midi": 83,
        "time": 251.25,
        "duration": 0.417,
        "velocity": 1,
        "hand": "right"
      },
      {
        "midi": 72,
        "time": 251.667,
        "duration": 0.833,
        "velocity": 1,
        "hand": "right"
      },
      {
        "midi": 71,
        "time": 252.5,
        "duration": 0.833,
        "velocity": 1,
        "hand": "right"
      },
      {
        "midi": 83,
        "time": 252.917,
        "duration": 0.417,
        "velocity": 1,
        "hand": "right"
      },
      {
        "midi": 86,
        "time": 253.542,
        "duration": 0.417,
        "velocity": 1,
        "hand": "right"
      },
      {
        "midi": 79,
        "time": 254.167,
        "duration": 0.417,
        "velocity": 1,
        "hand": "right"
      },
      {
        "midi": 69,
        "time": 254.792,
        "duration": 0.417,
        "velocity": 1,
        "hand": "right"
      },
      {
        "midi": 70,
        "time": 255.417,
        "duration": 0.417,
        "velocity": 1,
        "hand": "right"
      },
      {
        "midi": 62,
        "time": 256.042,
        "duration": 0.417,
        "velocity": 1,
        "hand": "right"
      },
      {
        "midi": 64,
        "time": 256.667,
        "duration": 0.417,
        "velocity": 1,
        "hand": "right"
      },
      {
        "midi": 64,
        "time": 263.333,
        "duration": 3.333,
        "velocity": 1,
        "hand": "right"
      },
      {
        "midi": 76,
        "time": 270,
        "duration": 3.333,
        "velocity": 1,
        "hand": "right"
      },
      {
        "midi": 88,
        "time": 273.333,
        "duration": 3.333,
        "velocity": 1,
        "hand": "right"
      },
      {
        "midi": 67,
        "time": 274.167,
        "duration": 0.833,
        "velocity": 1,
        "hand": "right"
      },
      {
        "midi": 69,
        "time": 275,
        "duration": 0.833,
        "velocity": 1,
        "hand": "right"
      },
      {
        "midi": 70,
        "time": 275.833,
        "duration": 0.833,
        "velocity": 1,
        "hand": "right"
      },
      {
        "midi": 79,
        "time": 278.333,
        "duration": 0.417,
        "velocity": 1,
        "hand": "right"
      },
      {
        "midi": 79,
        "time": 279.167,
        "duration": 0.417,
        "velocity": 1,
        "hand": "right"
      },
      {
        "midi": 79,
        "time": 279.792,
        "duration": 0.417,
        "velocity": 1,
        "hand": "right"
      },
      {
        "midi": 81,
        "time": 280.417,
        "duration": 0.417,
        "velocity": 1,
        "hand": "right"
      }
    ],
    "medium": [
      {
        "midi": 50,
        "time": 0,
        "duration": 0.833,
        "velocity": 1,
        "hand": "left"
      },
      {
        "midi": 74,
        "time": 0,
        "duration": 0.417,
        "velocity": 1,
        "hand": "right"
      },
      {
        "midi": 81,
        "time": 0,
        "duration": 0.833,
        "velocity": 1,
        "hand": "right"
      },
      {
        "midi": 62,
        "time": 0.417,
        "duration": 0.417,
        "velocity": 1,
        "hand": "right"
      },
      {
        "midi": 69,
        "time": 0.417,
        "duration": 0.417,
        "velocity": 1,
        "hand": "right"
      },
      {
        "midi": 50,
        "time": 0.833,
        "duration": 0.833,
        "velocity": 1,
        "hand": "left"
      },
      {
        "midi": 70,
        "time": 0.833,
        "duration": 0.417,
        "velocity": 1,
        "hand": "right"
      },
      {
        "midi": 76,
        "time": 0.833,
        "duration": 0.833,
        "velocity": 1,
        "hand": "right"
      },
      {
        "midi": 62,
        "time": 1.25,
        "duration": 0.417,
        "velocity": 1,
        "hand": "right"
      },
      {
        "midi": 64,
        "time": 1.25,
        "duration": 0.417,
        "velocity": 1,
        "hand": "right"
      },
      {
        "midi": 50,
        "time": 1.667,
        "duration": 0.833,
        "velocity": 1,
        "hand": "left"
      },
      {
        "midi": 74,
        "time": 1.667,
        "duration": 0.417,
        "velocity": 1,
        "hand": "right"
      },
      {
        "midi": 81,
        "time": 1.667,
        "duration": 0.833,
        "velocity": 1,
        "hand": "right"
      },
      {
        "midi": 62,
        "time": 2.083,
        "duration": 0.417,
        "velocity": 1,
        "hand": "right"
      },
      {
        "midi": 69,
        "time": 2.083,
        "duration": 0.417,
        "velocity": 1,
        "hand": "right"
      },
      {
        "midi": 50,
        "time": 2.5,
        "duration": 0.833,
        "velocity": 1,
        "hand": "left"
      },
      {
        "midi": 70,
        "time": 2.5,
        "duration": 0.417,
        "velocity": 1,
        "hand": "right"
      },
      {
        "midi": 76,
        "time": 2.5,
        "duration": 0.833,
        "velocity": 1,
        "hand": "right"
      },
      {
        "midi": 62,
        "time": 2.917,
        "duration": 0.417,
        "velocity": 1,
        "hand": "right"
      },
      {
        "midi": 64,
        "time": 2.917,
        "duration": 0.417,
        "velocity": 1,
        "hand": "right"
      },
      {
        "midi": 60,
        "time": 3.333,
        "duration": 1.667,
        "velocity": 1,
        "hand": "right"
      },
      {
        "midi": 66,
        "time": 3.333,
        "duration": 1.667,
        "velocity": 1,
        "hand": "right"
      },
      {
        "midi": 74,
        "time": 3.333,
        "duration": 0.208,
        "velocity": 1,
        "hand": "right"
      },
      {
        "midi": 76,
        "time": 3.542,
        "duration": 0.208,
        "velocity": 1,
        "hand": "right"
      },
      {
        "midi": 74,
        "time": 3.75,
        "duration": 0.208,
        "velocity": 1,
        "hand": "right"
      },
      {
        "midi": 76,
        "time": 3.958,
        "duration": 0.208,
        "velocity": 1,
        "hand": "right"
      },
      {
        "midi": 78,
        "time": 4.167,
        "duration": 0.417,
        "velocity": 1,
        "hand": "right"
      },
      {
        "midi": 78,
        "time": 4.583,
        "duration": 0.417,
        "velocity": 1,
        "hand": "right"
      },
      {
        "midi": 58,
        "time": 5,
        "duration": 0.208,
        "velocity": 1,
        "hand": "left"
      },
      {
        "midi": 74,
        "time": 5,
        "duration": 0.833,
        "velocity": 1,
        "hand": "right"
      },
      {
        "midi": 76,
        "time": 5,
        "duration": 0.417,
        "velocity": 1,
        "hand": "right"
      },
      {
        "midi": 57,
        "time": 5.208,
        "duration": 0.208,
        "velocity": 1,
        "hand": "left"
      },
      {
        "midi": 55,
        "time": 5.417,
        "duration": 0.208,
        "velocity": 1,
        "hand": "left"
      },
      {
        "midi": 79,
        "time": 5.417,
        "duration": 0.417,
        "velocity": 1,
        "hand": "right"
      },
      {
        "midi": 54,
        "time": 5.625,
        "duration": 0.208,
        "velocity": 1,
        "hand": "left"
      },
      {
        "midi": 52,
        "time": 5.833,
        "duration": 0.417,
        "velocity": 1,
        "hand": "left"
      },
      {
        "midi": 73,
        "time": 5.833,
        "duration": 0.417,
        "velocity": 1,
        "hand": "right"
      },
      {
        "midi": 76,
        "time": 5.833,
        "duration": 0.833,
        "velocity": 1,
        "hand": "right"
      },
      {
        "midi": 57,
        "time": 6.25,
        "duration": 0.417,
        "velocity": 1,
        "hand": "left"
      },
      {
        "midi": 69,
        "time": 6.25,
        "duration": 0.417,
        "velocity": 1,
        "hand": "right"
      },
      {
        "midi": 50,
        "time": 6.667,
        "duration": 0.833,
        "velocity": 1,
        "hand": "left"
      },
      {
        "midi": 74,
        "time": 6.667,
        "duration": 0.417,
        "velocity": 1,
        "hand": "right"
      },
      {
        "midi": 81,
        "time": 6.667,
        "duration": 0.833,
        "velocity": 1,
        "hand": "right"
      },
      {
        "midi": 62,
        "time": 7.083,
        "duration": 0.417,
        "velocity": 1,
        "hand": "right"
      },
      {
        "midi": 69,
        "time": 7.083,
        "duration": 0.417,
        "velocity": 1,
        "hand": "right"
      },
      {
        "midi": 50,
        "time": 7.5,
        "duration": 0.833,
        "velocity": 1,
        "hand": "left"
      },
      {
        "midi": 70,
        "time": 7.5,
        "duration": 0.417,
        "velocity": 1,
        "hand": "right"
      },
      {
        "midi": 76,
        "time": 7.5,
        "duration": 0.833,
        "velocity": 1,
        "hand": "right"
      },
      {
        "midi": 62,
        "time": 7.917,
        "duration": 0.417,
        "velocity": 1,
        "hand": "right"
      },
      {
        "midi": 64,
        "time": 7.917,
        "duration": 0.417,
        "velocity": 1,
        "hand": "right"
      },
      {
        "midi": 50,
        "time": 8.333,
        "duration": 0.833,
        "velocity": 1,
        "hand": "left"
      },
      {
        "midi": 74,
        "time": 8.333,
        "duration": 0.417,
        "velocity": 1,
        "hand": "right"
      },
      {
        "midi": 81,
        "time": 8.333,
        "duration": 0.833,
        "velocity": 1,
        "hand": "right"
      },
      {
        "midi": 62,
        "time": 8.75,
        "duration": 0.417,
        "velocity": 1,
        "hand": "right"
      },
      {
        "midi": 69,
        "time": 8.75,
        "duration": 0.417,
        "velocity": 1,
        "hand": "right"
      },
      {
        "midi": 50,
        "time": 9.167,
        "duration": 0.833,
        "velocity": 1,
        "hand": "left"
      },
      {
        "midi": 70,
        "time": 9.167,
        "duration": 0.417,
        "velocity": 1,
        "hand": "right"
      },
      {
        "midi": 76,
        "time": 9.167,
        "duration": 0.833,
        "velocity": 1,
        "hand": "right"
      },
      {
        "midi": 62,
        "time": 9.583,
        "duration": 0.417,
        "velocity": 1,
        "hand": "right"
      },
      {
        "midi": 64,
        "time": 9.583,
        "duration": 0.417,
        "velocity": 1,
        "hand": "right"
      },
      {
        "midi": 60,
        "time": 10,
        "duration": 1.667,
        "velocity": 1,
        "hand": "right"
      },
      {
        "midi": 66,
        "time": 10,
        "duration": 1.667,
        "velocity": 1,
        "hand": "right"
      },
      {
        "midi": 74,
        "time": 10,
        "duration": 0.208,
        "velocity": 1,
        "hand": "right"
      },
      {
        "midi": 76,
        "time": 10.208,
        "duration": 0.208,
        "velocity": 1,
        "hand": "right"
      },
      {
        "midi": 74,
        "time": 10.417,
        "duration": 0.208,
        "velocity": 1,
        "hand": "right"
      },
      {
        "midi": 76,
        "time": 10.625,
        "duration": 0.208,
        "velocity": 1,
        "hand": "right"
      },
      {
        "midi": 78,
        "time": 10.833,
        "duration": 0.417,
        "velocity": 1,
        "hand": "right"
      },
      {
        "midi": 78,
        "time": 11.25,
        "duration": 0.417,
        "velocity": 1,
        "hand": "right"
      },
      {
        "midi": 58,
        "time": 11.667,
        "duration": 0.208,
        "velocity": 1,
        "hand": "left"
      },
      {
        "midi": 74,
        "time": 11.667,
        "duration": 0.208,
        "velocity": 1,
        "hand": "right"
      },
      {
        "midi": 76,
        "time": 11.667,
        "duration": 0.208,
        "velocity": 1,
        "hand": "right"
      },
      {
        "midi": 78,
        "time": 11.875,
        "duration": 0.208,
        "velocity": 1,
        "hand": "right"
      },
      {
        "midi": 58,
        "time": 12.083,
        "duration": 0.208,
        "velocity": 1,
        "hand": "left"
      },
      {
        "midi": 79,
        "time": 12.083,
        "duration": 0.208,
        "velocity": 1,
        "hand": "right"
      },
      {
        "midi": 57,
        "time": 12.292,
        "duration": 0.208,
        "velocity": 1,
        "hand": "left"
      },
      {
        "midi": 81,
        "time": 12.292,
        "duration": 0.208,
        "velocity": 1,
        "hand": "right"
      },
      {
        "midi": 55,
        "time": 12.5,
        "duration": 0.417,
        "velocity": 1,
        "hand": "left"
      },
      {
        "midi": 82,
        "time": 12.5,
        "duration": 0.417,
        "velocity": 1,
        "hand": "right"
      },
      {
        "midi": 43,
        "time": 13.333,
        "duration": 0.833,
        "velocity": 1,
        "hand": "left"
      },
      {
        "midi": 51,
        "time": 13.333,
        "duration": 0.833,
        "velocity": 1,
        "hand": "left"
      },
      {
        "midi": 61,
        "time": 13.542,
        "duration": 0.208,
        "velocity": 1,
        "hand": "right"
      },
      {
        "midi": 63,
        "time": 13.542,
        "duration": 0.208,
        "velocity": 1,
        "hand": "right"
      },
      {
        "midi": 58,
        "time": 13.75,
        "duration": 0.417,
        "velocity": 1,
        "hand": "left"
      },
      {
        "midi": 61,
        "time": 13.958,
        "duration": 0.208,
        "velocity": 1,
        "hand": "right"
      },
      {
        "midi": 63,
        "time": 13.958,
        "duration": 0.208,
        "velocity": 1,
        "hand": "right"
      },
      {
        "midi": 56,
        "time": 14.167,
        "duration": 0.833,
        "velocity": 1,
        "hand": "left"
      },
      {
        "midi": 60,
        "time": 14.167,
        "duration": 0.417,
        "velocity": 1,
        "hand": "right"
      },
      {
        "midi": 51,
        "time": 14.583,
        "duration": 0.417,
        "velocity": 1,
        "hand": "left"
      },
      {
        "midi": 63,
        "time": 14.583,
        "duration": 0.417,
        "velocity": 1,
        "hand": "right"
      },
      {
        "midi": 72,
        "time": 14.583,
        "duration": 0.417,
        "velocity": 1,
        "hand": "right"
      },
      {
        "midi": 45,
        "time": 15,
        "duration": 0.833,
        "velocity": 1,
        "hand": "left"
      },
      {
        "midi": 53,
        "time": 15,
        "duration": 0.833,
        "velocity": 1,
        "hand": "left"
      },
      {
        "midi": 63,
        "time": 15.208,
        "duration": 0.208,
        "velocity": 1,
        "hand": "right"
      },
      {
        "midi": 65,
        "time": 15.208,
        "duration": 0.208,
        "velocity": 1,
        "hand": "right"
      },
      {
        "midi": 60,
        "time": 15.417,
        "duration": 0.417,
        "velocity": 1,
        "hand": "right"
      },
      {
        "midi": 63,
        "time": 15.625,
        "duration": 0.208,
        "velocity": 1,
        "hand": "right"
      },
      {
        "midi": 65,
        "time": 15.625,
        "duration": 0.208,
        "velocity": 1,
        "hand": "right"
      },
      {
        "midi": 58,
        "time": 15.833,
        "duration": 0.833,
        "velocity": 1,
        "hand": "left"
      },
      {
        "midi": 62,
        "time": 15.833,
        "duration": 0.833,
        "velocity": 1,
        "hand": "right"
      },
      {
        "midi": 46,
        "time": 16.25,
        "duration": 0.417,
        "velocity": 1,
        "hand": "left"
      },
      {
        "midi": 65,
        "time": 16.25,
        "duration": 0.417,
        "velocity": 1,
        "hand": "right"
      },
      {
        "midi": 74,
        "time": 16.25,
        "duration": 0.417,
        "velocity": 1,
        "hand": "right"
      },
      {
        "midi": 47,
        "time": 16.667,
        "duration": 0.417,
        "velocity": 1,
        "hand": "left"
      },
      {
        "midi": 55,
        "time": 16.667,
        "duration": 0.833,
        "velocity": 1,
        "hand": "left"
      },
      {
        "midi": 62,
        "time": 16.667,
        "duration": 0.833,
        "velocity": 1,
        "hand": "right"
      },
      {
        "midi": 59,
        "time": 17.083,
        "duration": 0.417,
        "velocity": 1,
        "hand": "left"
      },
      {
        "midi": 67,
        "time": 17.083,
        "duration": 0.417,
        "velocity": 1,
        "hand": "right"
      },
      {
        "midi": 74,
        "time": 17.083,
        "duration": 0.417,
        "velocity": 1,
        "hand": "right"
      },
      {
        "midi": 48,
        "time": 17.5,
        "duration": 0.417,
        "velocity": 1,
        "hand": "left"
      },
      {
        "midi": 55,
        "time": 17.5,
        "duration": 0.833,
        "velocity": 1,
        "hand": "left"
      },
      {
        "midi": 63,
        "time": 17.5,
        "duration": 0.833,
        "velocity": 1,
        "hand": "right"
      },
      {
        "midi": 60,
        "time": 17.917,
        "duration": 0.417,
        "velocity": 1,
        "hand": "right"
      },
      {
        "midi": 67,
        "time": 17.917,
        "duration": 0.417,
        "velocity": 1,
        "hand": "right"
      },
      {
        "midi": 75,
        "time": 17.917,
        "duration": 0.417,
        "velocity": 1,
        "hand": "right"
      },
      {
        "midi": 50,
        "time": 18.333,
        "duration": 0.417,
        "velocity": 1,
        "hand": "left"
      },
      {
        "midi": 55,
        "time": 18.333,
        "duration": 0.833,
        "velocity": 1,
        "hand": "left"
      },
      {
        "midi": 65,
        "time": 18.333,
        "duration": 0.833,
        "velocity": 1,
        "hand": "right"
      },
      {
        "midi": 62,
        "time": 18.75,
        "duration": 0.417,
        "velocity": 1,
        "hand": "right"
      },
      {
        "midi": 71,
        "time": 18.75,
        "duration": 0.417,
        "velocity": 1,
        "hand": "right"
      },
      {
        "midi": 79,
        "time": 18.75,
        "duration": 0.417,
        "velocity": 1,
        "hand": "right"
      },
      {
        "midi": 48,
        "time": 19.167,
        "duration": 0.417,
        "velocity": 1,
        "hand": "left"
      },
      {
        "midi": 55,
        "time": 19.167,
        "duration": 0.833,
        "velocity": 1,
        "hand": "left"
      },
      {
        "midi": 63,
        "time": 19.167,
        "duration": 0.833,
        "velocity": 1,
        "hand": "right"
      },
      {
        "midi": 60,
        "time": 19.583,
        "duration": 0.417,
        "velocity": 1,
        "hand": "right"
      },
      {
        "midi": 67,
        "time": 19.583,
        "duration": 0.417,
        "velocity": 1,
        "hand": "right"
      },
      {
        "midi": 75,
        "time": 19.583,
        "duration": 0.417,
        "velocity": 1,
        "hand": "right"
      },
      {
        "midi": 47,
        "time": 20,
        "duration": 0.833,
        "velocity": 1,
        "hand": "left"
      },
      {
        "midi": 55,
        "time": 20,
        "duration": 0.833,
        "velocity": 1,
        "hand": "left"
      },
      {
        "midi": 65,
        "time": 20.208,
        "duration": 0.208,
        "velocity": 1,
        "hand": "right"
      },
      {
        "midi": 67,
        "time": 20.208,
        "duration": 0.208,
        "velocity": 1,
        "hand": "right"
      },
      {
        "midi": 62,
        "time": 20.417,
        "duration": 0.417,
        "velocity": 1,
        "hand": "right"
      },
      {
        "midi": 65,
        "time": 20.625,
        "duration": 0.208,
        "velocity": 1,
        "hand": "right"
      },
      {
        "midi": 67,
        "time": 20.625,
        "duration": 0.208,
        "velocity": 1,
        "hand": "right"
      },
      {
        "midi": 60,
        "time": 20.833,
        "duration": 0.833,
        "velocity": 1,
        "hand": "right"
      },
      {
        "midi": 64,
        "time": 20.833,
        "duration": 0.833,
        "velocity": 1,
        "hand": "right"
      },
      {
        "midi": 48,
        "time": 21.25,
        "duration": 0.417,
        "velocity": 1,
        "hand": "left"
      },
      {
        "midi": 67,
        "time": 21.25,
        "duration": 0.417,
        "velocity": 1,
        "hand": "right"
      },
      {
        "midi": 76,
        "time": 21.25,
        "duration": 0.417,
        "velocity": 1,
        "hand": "right"
      },
      {
        "midi": 49,
        "time": 21.667,
        "duration": 0.833,
        "velocity": 1,
        "hand": "left"
      },
      {
        "midi": 57,
        "time": 21.667,
        "duration": 0.417,
        "velocity": 1,
        "hand": "left"
      },
      {
        "midi": 67,
        "time": 21.875,
        "duration": 0.208,
        "velocity": 1,
        "hand": "right"
      },
      {
        "midi": 69,
        "time": 21.875,
        "duration": 0.208,
        "velocity": 1,
        "hand": "right"
      },
      {
        "midi": 64,
        "time": 22.083,
        "duration": 0.417,
        "velocity": 1,
        "hand": "right"
      },
      {
        "midi": 67,
        "time": 22.292,
        "duration": 0.208,
        "velocity": 1,
        "hand": "right"
      },
      {
        "midi": 69,
        "time": 22.292,
        "duration": 0.208,
        "velocity": 1,
        "hand": "right"
      },
      {
        "midi": 62,
        "time": 22.5,
        "duration": 0.833,
        "velocity": 1,
        "hand": "right"
      },
      {
        "midi": 65,
        "time": 22.5,
        "duration": 0.833,
        "velocity": 1,
        "hand": "right"
      },
      {
        "midi": 50,
        "time": 22.917,
        "duration": 0.417,
        "velocity": 1,
        "hand": "left"
      },
      {
        "midi": 69,
        "time": 22.917,
        "duration": 0.417,
        "velocity": 1,
        "hand": "right"
      },
      {
        "midi": 77,
        "time": 22.917,
        "duration": 0.417,
        "velocity": 1,
        "hand": "right"
      },
      {
        "midi": 49,
        "time": 23.333,
        "duration": 0.833,
        "velocity": 1,
        "hand": "left"
      },
      {
        "midi": 57,
        "time": 23.333,
        "duration": 0.833,
        "velocity": 1,
        "hand": "left"
      },
      {
        "midi": 64,
        "time": 23.333,
        "duration": 0.833,
        "velocity": 1,
        "hand": "right"
      },
      {
        "midi": 61,
        "time": 23.75,
        "duration": 0.417,
        "velocity": 1,
        "hand": "right"
      },
      {
        "midi": 69,
        "time": 23.75,
        "duration": 0.417,
        "velocity": 1,
        "hand": "right"
      },
      {
        "midi": 76,
        "time": 23.75,
        "duration": 0.417,
        "velocity": 1,
        "hand": "right"
      },
      {
        "midi": 50,
        "time": 24.167,
        "duration": 0.417,
        "velocity": 1,
        "hand": "left"
      },
      {
        "midi": 57,
        "time": 24.167,
        "duration": 0.833,
        "velocity": 1,
        "hand": "left"
      },
      {
        "midi": 65,
        "time": 24.167,
        "duration": 0.833,
        "velocity": 1,
        "hand": "right"
      },
      {
        "midi": 62,
        "time": 24.583,
        "duration": 0.417,
        "velocity": 1,
        "hand": "right"
      },
      {
        "midi": 69,
        "time": 24.583,
        "duration": 0.417,
        "velocity": 1,
        "hand": "right"
      },
      {
        "midi": 77,
        "time": 24.583,
        "duration": 0.417,
        "velocity": 1,
        "hand": "right"
      },
      {
        "midi": 52,
        "time": 25,
        "duration": 0.417,
        "velocity": 1,
        "hand": "left"
      },
      {
        "midi": 57,
        "time": 25,
        "duration": 0.833,
        "velocity": 1,
        "hand": "left"
      },
      {
        "midi": 67,
        "time": 25,
        "duration": 0.833,
        "velocity": 1,
        "hand": "right"
      },
      {
        "midi": 64,
        "time": 25.417,
        "duration": 0.417,
        "velocity": 1,
        "hand": "right"
      },
      {
        "midi": 73,
        "time": 25.417,
        "duration": 0.417,
        "velocity": 1,
        "hand": "right"
      },
      {
        "midi": 81,
        "time": 25.417,
        "duration": 0.417,
        "velocity": 1,
        "hand": "right"
      },
      {
        "midi": 50,
        "time": 25.833,
        "duration": 0.417,
        "velocity": 1,
        "hand": "left"
      },
      {
        "midi": 57,
        "time": 25.833,
        "duration": 0.833,
        "velocity": 1,
        "hand": "left"
      },
      {
        "midi": 65,
        "time": 25.833,
        "duration": 0.833,
        "velocity": 1,
        "hand": "right"
      },
      {
        "midi": 62,
        "time": 26.25,
        "duration": 0.417,
        "velocity": 1,
        "hand": "right"
      },
      {
        "midi": 69,
        "time": 26.25,
        "duration": 0.417,
        "velocity": 1,
        "hand": "right"
      },
      {
        "midi": 77,
        "time": 26.25,
        "duration": 0.417,
        "velocity": 1,
        "hand": "right"
      },
      {
        "midi": 49,
        "time": 26.667,
        "duration": 0.417,
        "velocity": 1,
        "hand": "left"
      },
      {
        "midi": 57,
        "time": 26.667,
        "duration": 0.833,
        "velocity": 1,
        "hand": "left"
      },
      {
        "midi": 64,
        "time": 26.667,
        "duration": 0.833,
        "velocity": 1,
        "hand": "right"
      },
      {
        "midi": 61,
        "time": 27.083,
        "duration": 0.417,
        "velocity": 1,
        "hand": "right"
      },
      {
        "midi": 69,
        "time": 27.083,
        "duration": 0.417,
        "velocity": 1,
        "hand": "right"
      },
      {
        "midi": 76,
        "time": 27.083,
        "duration": 0.417,
        "velocity": 1,
        "hand": "right"
      },
      {
        "midi": 50,
        "time": 27.5,
        "duration": 0.417,
        "velocity": 1,
        "hand": "left"
      },
      {
        "midi": 57,
        "time": 27.5,
        "duration": 0.833,
        "velocity": 1,
        "hand": "left"
      },
      {
        "midi": 65,
        "time": 27.5,
        "duration": 0.833,
        "velocity": 1,
        "hand": "right"
      },
      {
        "midi": 62,
        "time": 27.917,
        "duration": 0.417,
        "velocity": 1,
        "hand": "right"
      },
      {
        "midi": 69,
        "time": 27.917,
        "duration": 0.417,
        "velocity": 1,
        "hand": "right"
      },
      {
        "midi": 77,
        "time": 27.917,
        "duration": 0.417,
        "velocity": 1,
        "hand": "right"
      },
      {
        "midi": 51,
        "time": 28.333,
        "duration": 0.417,
        "velocity": 1,
        "hand": "left"
      },
      {
        "midi": 59,
        "time": 28.333,
        "duration": 0.833,
        "velocity": 1,
        "hand": "left"
      },
      {
        "midi": 69,
        "time": 28.333,
        "duration": 0.833,
        "velocity": 1,
        "hand": "right"
      },
      {
        "midi": 63,
        "time": 28.75,
        "duration": 0.417,
        "velocity": 1,
        "hand": "right"
      },
      {
        "midi": 78,
        "time": 28.75,
        "duration": 0.417,
        "velocity": 1,
        "hand": "right"
      },
      {
        "midi": 83,
        "time": 28.75,
        "duration": 0.417,
        "velocity": 1,
        "hand": "right"
      },
      {
        "midi": 52,
        "time": 29.167,
        "duration": 0.417,
        "velocity": 1,
        "hand": "left"
      },
      {
        "midi": 59,
        "time": 29.167,
        "duration": 0.833,
        "velocity": 1,
        "hand": "left"
      },
      {
        "midi": 67,
        "time": 29.167,
        "duration": 0.833,
        "velocity": 1,
        "hand": "right"
      },
      {
        "midi": 64,
        "time": 29.583,
        "duration": 0.417,
        "velocity": 1,
        "hand": "right"
      },
      {
        "midi": 71,
        "time": 29.583,
        "duration": 0.417,
        "velocity": 1,
        "hand": "right"
      },
      {
        "midi": 79,
        "time": 29.583,
        "duration": 0.417,
        "velocity": 1,
        "hand": "right"
      },
      {
        "midi": 51,
        "time": 30,
        "duration": 0.417,
        "velocity": 1,
        "hand": "left"
      },
      {
        "midi": 59,
        "time": 30,
        "duration": 0.833,
        "velocity": 1,
        "hand": "left"
      },
      {
        "midi": 66,
        "time": 30,
        "duration": 0.833,
        "velocity": 1,
        "hand": "right"
      },
      {
        "midi": 63,
        "time": 30.417,
        "duration": 0.417,
        "velocity": 1,
        "hand": "right"
      },
      {
        "midi": 71,
        "time": 30.417,
        "duration": 0.417,
        "velocity": 1,
        "hand": "right"
      },
      {
        "midi": 78,
        "time": 30.417,
        "duration": 0.417,
        "velocity": 1,
        "hand": "right"
      },
      {
        "midi": 52,
        "time": 30.833,
        "duration": 0.417,
        "velocity": 1,
        "hand": "left"
      },
      {
        "midi": 59,
        "time": 30.833,
        "duration": 0.833,
        "velocity": 1,
        "hand": "left"
      },
      {
        "midi": 67,
        "time": 30.833,
        "duration": 0.833,
        "velocity": 1,
        "hand": "right"
      },
      {
        "midi": 64,
        "time": 31.25,
        "duration": 0.417,
        "velocity": 1,
        "hand": "right"
      },
      {
        "midi": 71,
        "time": 31.25,
        "duration": 0.417,
        "velocity": 1,
        "hand": "right"
      },
      {
        "midi": 79,
        "time": 31.25,
        "duration": 0.417,
        "velocity": 1,
        "hand": "right"
      },
      {
        "midi": 53,
        "time": 31.667,
        "duration": 0.417,
        "velocity": 1,
        "hand": "left"
      },
      {
        "midi": 61,
        "time": 31.667,
        "duration": 0.833,
        "velocity": 1,
        "hand": "right"
      },
      {
        "midi": 71,
        "time": 31.667,
        "duration": 0.833,
        "velocity": 1,
        "hand": "right"
      },
      {
        "midi": 65,
        "time": 32.083,
        "duration": 0.417,
        "velocity": 1,
        "hand": "right"
      },
      {
        "midi": 80,
        "time": 32.083,
        "duration": 0.417,
        "velocity": 1,
        "hand": "right"
      },
      {
        "midi": 85,
        "time": 32.083,
        "duration": 0.417,
        "velocity": 1,
        "hand": "right"
      },
      {
        "midi": 54,
        "time": 32.5,
        "duration": 0.417,
        "velocity": 1,
        "hand": "left"
      },
      {
        "midi": 61,
        "time": 32.5,
        "duration": 0.833,
        "velocity": 1,
        "hand": "right"
      },
      {
        "midi": 69,
        "time": 32.5,
        "duration": 0.833,
        "velocity": 1,
        "hand": "right"
      },
      {
        "midi": 66,
        "time": 32.917,
        "duration": 0.417,
        "velocity": 1,
        "hand": "right"
      },
      {
        "midi": 73,
        "time": 32.917,
        "duration": 0.417,
        "velocity": 1,
        "hand": "right"
      },
      {
        "midi": 81,
        "time": 32.917,
        "duration": 0.417,
        "velocity": 1,
        "hand": "right"
      },
      {
        "midi": 54,
        "time": 33.333,
        "duration": 0.417,
        "velocity": 1,
        "hand": "left"
      },
      {
        "midi": 62,
        "time": 33.333,
        "duration": 0.833,
        "velocity": 1,
        "hand": "right"
      },
      {
        "midi": 72,
        "time": 33.333,
        "duration": 0.833,
        "velocity": 1,
        "hand": "right"
      },
      {
        "midi": 66,
        "time": 33.75,
        "duration": 0.417,
        "velocity": 1,
        "hand": "right"
      },
      {
        "midi": 81,
        "time": 33.75,
        "duration": 0.417,
        "velocity": 1,
        "hand": "right"
      },
      {
        "midi": 86,
        "time": 33.75,
        "duration": 0.417,
        "velocity": 1,
        "hand": "right"
      },
      {
        "midi": 55,
        "time": 34.167,
        "duration": 0.417,
        "velocity": 1,
        "hand": "left"
      },
      {
        "midi": 62,
        "time": 34.167,
        "duration": 0.833,
        "velocity": 1,
        "hand": "right"
      },
      {
        "midi": 71,
        "time": 34.167,
        "duration": 0.833,
        "velocity": 1,
        "hand": "right"
      },
      {
        "midi": 67,
        "time": 34.583,
        "duration": 0.417,
        "velocity": 1,
        "hand": "right"
      },
      {
        "midi": 74,
        "time": 34.583,
        "duration": 0.417,
        "velocity": 1,
        "hand": "right"
      },
      {
        "midi": 83,
        "time": 34.583,
        "duration": 0.417,
        "velocity": 1,
        "hand": "right"
      },
      {
        "midi": 54,
        "time": 35,
        "duration": 0.417,
        "velocity": 1,
        "hand": "left"
      },
      {
        "midi": 62,
        "time": 35,
        "duration": 0.833,
        "velocity": 1,
        "hand": "right"
      },
      {
        "midi": 72,
        "time": 35,
        "duration": 0.833,
        "velocity": 1,
        "hand": "right"
      },
      {
        "midi": 66,
        "time": 35.417,
        "duration": 0.417,
        "velocity": 1,
        "hand": "right"
      },
      {
        "midi": 81,
        "time": 35.417,
        "duration": 0.417,
        "velocity": 1,
        "hand": "right"
      },
      {
        "midi": 86,
        "time": 35.417,
        "duration": 0.417,
        "velocity": 1,
        "hand": "right"
      },
      {
        "midi": 55,
        "time": 35.833,
        "duration": 0.417,
        "velocity": 1,
        "hand": "left"
      },
      {
        "midi": 62,
        "time": 35.833,
        "duration": 0.833,
        "velocity": 1,
        "hand": "right"
      },
      {
        "midi": 71,
        "time": 35.833,
        "duration": 0.833,
        "velocity": 1,
        "hand": "right"
      },
      {
        "midi": 67,
        "time": 36.25,
        "duration": 0.417,
        "velocity": 1,
        "hand": "right"
      },
      {
        "midi": 74,
        "time": 36.25,
        "duration": 0.417,
        "velocity": 1,
        "hand": "right"
      },
      {
        "midi": 83,
        "time": 36.25,
        "duration": 0.417,
        "velocity": 1,
        "hand": "right"
      },
      {
        "midi": 67,
        "time": 36.667,
        "duration": 0.417,
        "velocity": 1,
        "hand": "right"
      },
      {
        "midi": 74,
        "time": 36.667,
        "duration": 0.417,
        "velocity": 1,
        "hand": "right"
      },
      {
        "midi": 88,
        "time": 36.667,
        "duration": 0.208,
        "velocity": 1,
        "hand": "right"
      },
      {
        "midi": 86,
        "time": 36.875,
        "duration": 0.208,
        "velocity": 1,
        "hand": "right"
      },
      {
        "midi": 82,
        "time": 37.083,
        "duration": 0.208,
        "velocity": 1,
        "hand": "right"
      },
      {
        "midi": 81,
        "time": 37.292,
        "duration": 0.208,
        "velocity": 1,
        "hand": "right"
      },
      {
        "midi": 76,
        "time": 37.5,
        "duration": 0.208,
        "velocity": 1,
        "hand": "right"
      },
      {
        "midi": 79,
        "time": 37.5,
        "duration": 0.417,
        "velocity": 1,
        "hand": "right"
      },
      {
        "midi": 74,
        "time": 37.708,
        "duration": 0.208,
        "velocity": 1,
        "hand": "right"
      },
      {
        "midi": 70,
        "time": 37.917,
        "duration": 0.208,
        "velocity": 1,
        "hand": "right"
      },
      {
        "midi": 69,
        "time": 38.125,
        "duration": 0.208,
        "velocity": 1,
        "hand": "right"
      },
      {
        "midi": 64,
        "time": 38.333,
        "duration": 0.208,
        "velocity": 1,
        "hand": "right"
      },
      {
        "midi": 67,
        "time": 38.333,
        "duration": 0.417,
        "velocity": 1,
        "hand": "right"
      },
      {
        "midi": 62,
        "time": 38.542,
        "duration": 0.208,
        "velocity": 1,
        "hand": "right"
      },
      {
        "midi": 58,
        "time": 38.75,
        "duration": 0.208,
        "velocity": 1,
        "hand": "left"
      },
      {
        "midi": 57,
        "time": 38.958,
        "duration": 0.208,
        "velocity": 1,
        "hand": "left"
      },
      {
        "midi": 52,
        "time": 39.167,
        "duration": 0.208,
        "velocity": 1,
        "hand": "left"
      },
      {
        "midi": 55,
        "time": 39.167,
        "duration": 0.417,
        "velocity": 1,
        "hand": "left"
      },
      {
        "midi": 50,
        "time": 39.375,
        "duration": 0.208,
        "velocity": 1,
        "hand": "left"
      },
      {
        "midi": 46,
        "time": 39.583,
        "duration": 0.208,
        "velocity": 1,
        "hand": "left"
      },
      {
        "midi": 45,
        "time": 39.792,
        "duration": 0.208,
        "velocity": 1,
        "hand": "left"
      },
      {
        "midi": 43,
        "time": 40,
        "duration": 0.417,
        "velocity": 1,
        "hand": "left"
      },
      {
        "midi": 43,
        "time": 40.417,
        "duration": 0.417,
        "velocity": 1,
        "hand": "left"
      },
      {
        "midi": 44,
        "time": 40.833,
        "duration": 0.208,
        "velocity": 1,
        "hand": "left"
      },
      {
        "midi": 62,
        "time": 40.833,
        "duration": 1.25,
        "velocity": 1,
        "hand": "right"
      },
      {
        "midi": 64,
        "time": 40.833,
        "duration": 1.25,
        "velocity": 1,
        "hand": "right"
      },
      {
        "midi": 45,
        "time": 41.042,
        "duration": 0.208,
        "velocity": 1,
        "hand": "left"
      },
      {
        "midi": 46,
        "time": 41.25,
        "duration": 0.208,
        "velocity": 1,
        "hand": "left"
      },
      {
        "midi": 44,
        "time": 41.458,
        "duration": 0.208,
        "velocity": 1,
        "hand": "left"
      },
      {
        "midi": 45,
        "time": 41.667,
        "duration": 0.417,
        "velocity": 1,
        "hand": "left"
      },
      {
        "midi": 45,
        "time": 42.083,
        "duration": 0.417,
        "velocity": 1,
        "hand": "left"
      },
      {
        "midi": 61,
        "time": 42.083,
        "duration": 0.417,
        "velocity": 1,
        "hand": "right"
      },
      {
        "midi": 69,
        "time": 42.083,
        "duration": 0.417,
        "velocity": 1,
        "hand": "right"
      },
      {
        "midi": 50,
        "time": 42.5,
        "duration": 0.417,
        "velocity": 1,
        "hand": "left"
      },
      {
        "midi": 62,
        "time": 42.5,
        "duration": 0.417,
        "velocity": 1,
        "hand": "right"
      },
      {
        "midi": 74,
        "time": 42.5,
        "duration": 0.417,
        "velocity": 1,
        "hand": "right"
      },
      {
        "midi": 78,
        "time": 43.333,
        "duration": 0.208,
        "velocity": 1,
        "hand": "right"
      },
      {
        "midi": 76,
        "time": 43.542,
        "duration": 0.208,
        "velocity": 1,
        "hand": "right"
      },
      {
        "midi": 74,
        "time": 43.75,
        "duration": 0.208,
        "velocity": 1,
        "hand": "right"
      },
      {
        "midi": 73,
        "time": 43.958,
        "duration": 0.208,
        "velocity": 1,
        "hand": "right"
      },
      {
        "midi": 59,
        "time": 44.167,
        "duration": 0.417,
        "velocity": 1,
        "hand": "left"
      },
      {
        "midi": 66,
        "time": 44.167,
        "duration": 0.417,
        "velocity": 1,
        "hand": "right"
      },
      {
        "midi": 71,
        "time": 44.167,
        "duration": 0.417,
        "velocity": 1,
        "hand": "right"
      },
      {
        "midi": 73,
        "time": 44.583,
        "duration": 0.417,
        "velocity": 1,
        "hand": "right"
      },
      {
        "midi": 54,
        "time": 45,
        "duration": 0.208,
        "velocity": 1,
        "hand": "left"
      },
      {
        "midi": 61,
        "time": 45,
        "duration": 0.833,
        "velocity": 1,
        "hand": "right"
      },
      {
        "midi": 52,
        "time": 45.208,
        "duration": 0.208,
        "velocity": 1,
        "hand": "left"
      },
      {
        "midi": 50,
        "time": 45.417,
        "duration": 0.208,
        "velocity": 1,
        "hand": "left"
      },
      {
        "midi": 66,
        "time": 45.417,
        "duration": 0.417,
        "velocity": 1,
        "hand": "right"
      },
      {
        "midi": 70,
        "time": 45.417,
        "duration": 0.417,
        "velocity": 1,
        "hand": "right"
      },
      {
        "midi": 49,
        "time": 45.625,
        "duration": 0.208,
        "velocity": 1,
        "hand": "left"
      },
      {
        "midi": 47,
        "time": 45.833,
        "duration": 0.417,
        "velocity": 1,
        "hand": "left"
      },
      {
        "midi": 62,
        "time": 45.833,
        "duration": 0.833,
        "velocity": 1,
        "hand": "right"
      },
      {
        "midi": 66,
        "time": 46.25,
        "duration": 0.417,
        "velocity": 1,
        "hand": "right"
      },
      {
        "midi": 71,
        "time": 46.25,
        "duration": 0.417,
        "velocity": 1,
        "hand": "right"
      },
      {
        "midi": 55,
        "time": 46.667,
        "duration": 0.417,
        "velocity": 1,
        "hand": "left"
      },
      {
        "midi": 59,
        "time": 46.667,
        "duration": 0.833,
        "velocity": 1,
        "hand": "left"
      },
      {
        "midi": 61,
        "time": 46.667,
        "duration": 0.833,
        "velocity": 1,
        "hand": "right"
      },
      {
        "midi": 73,
        "time": 46.875,
        "duration": 0.208,
        "velocity": 1,
        "hand": "right"
      },
      {
        "midi": 47,
        "time": 47.083,
        "duration": 0.417,
        "velocity": 1,
        "hand": "left"
      },
      {
        "midi": 67,
        "time": 47.083,
        "duration": 0.208,
        "velocity": 1,
        "hand": "right"
      },
      {
        "midi": 71,
        "time": 47.292,
        "duration": 0.208,
        "velocity": 1,
        "hand": "right"
      },
      {
        "midi": 54,
        "time": 47.5,
        "duration": 0.417,
        "velocity": 1,
        "hand": "left"
      },
      {
        "midi": 59,
        "time": 47.5,
        "duration": 0.833,
        "velocity": 1,
        "hand": "left"
      },
      {
        "midi": 62,
        "time": 47.5,
        "duration": 0.833,
        "velocity": 1,
        "hand": "right"
      },
      {
        "midi": 74,
        "time": 47.708,
        "duration": 0.208,
        "velocity": 1,
        "hand": "right"
      },
      {
        "midi": 47,
        "time": 47.917,
        "duration": 0.417,
        "velocity": 1,
        "hand": "left"
      },
      {
        "midi": 66,
        "time": 47.917,
        "duration": 0.208,
        "velocity": 1,
        "hand": "right"
      },
      {
        "midi": 71,
        "time": 48.125,
        "duration": 0.208,
        "velocity": 1,
        "hand": "right"
      },
      {
        "midi": 52,
        "time": 48.333,
        "duration": 0.417,
        "velocity": 1,
        "hand": "left"
      },
      {
        "midi": 59,
        "time": 48.333,
        "duration": 0.833,
        "velocity": 1,
        "hand": "left"
      },
      {
        "midi": 67,
        "time": 48.333,
        "duration": 0.833,
        "velocity": 1,
        "hand": "right"
      },
      {
        "midi": 79,
        "time": 48.542,
        "duration": 0.208,
        "velocity": 1,
        "hand": "right"
      },
      {
        "midi": 47,
        "time": 48.75,
        "duration": 0.417,
        "velocity": 1,
        "hand": "left"
      },
      {
        "midi": 71,
        "time": 48.75,
        "duration": 0.208,
        "velocity": 1,
        "hand": "right"
      },
      {
        "midi": 76,
        "time": 48.958,
        "duration": 0.208,
        "velocity": 1,
        "hand": "right"
      },
      {
        "midi": 50,
        "time": 49.167,
        "duration": 0.417,
        "velocity": 1,
        "hand": "left"
      },
      {
        "midi": 59,
        "time": 49.167,
        "duration": 0.833,
        "velocity": 1,
        "hand": "left"
      },
      {
        "midi": 66,
        "time": 49.167,
        "duration": 0.833,
        "velocity": 1,
        "hand": "right"
      },
      {
        "midi": 78,
        "time": 49.375,
        "duration": 0.208,
        "velocity": 1,
        "hand": "right"
      },
      {
        "midi": 47,
        "time": 49.583,
        "duration": 0.417,
        "velocity": 1,
        "hand": "left"
      },
      {
        "midi": 71,
        "time": 49.583,
        "duration": 0.208,
        "velocity": 1,
        "hand": "right"
      },
      {
        "midi": 74,
        "time": 49.792,
        "duration": 0.208,
        "velocity": 1,
        "hand": "right"
      },
      {
        "midi": 78,
        "time": 50,
        "duration": 0.208,
        "velocity": 1,
        "hand": "right"
      },
      {
        "midi": 76,
        "time": 50.208,
        "duration": 0.208,
        "velocity": 1,
        "hand": "right"
      },
      {
        "midi": 74,
        "time": 50.417,
        "duration": 0.208,
        "velocity": 1,
        "hand": "right"
      },
      {
        "midi": 73,
        "time": 50.625,
        "duration": 0.208,
        "velocity": 1,
        "hand": "right"
      },
      {
        "midi": 59,
        "time": 50.833,
        "duration": 0.417,
        "velocity": 1,
        "hand": "left"
      },
      {
        "midi": 66,
        "time": 50.833,
        "duration": 0.417,
        "velocity": 1,
        "hand": "right"
      },
      {
        "midi": 71,
        "time": 50.833,
        "duration": 0.417,
        "velocity": 1,
        "hand": "right"
      },
      {
        "midi": 73,
        "time": 51.25,
        "duration": 0.417,
        "velocity": 1,
        "hand": "right"
      },
      {
        "midi": 54,
        "time": 51.667,
        "duration": 0.208,
        "velocity": 1,
        "hand": "left"
      },
      {
        "midi": 61,
        "time": 51.667,
        "duration": 0.833,
        "velocity": 1,
        "hand": "right"
      },
      {
        "midi": 52,
        "time": 51.875,
        "duration": 0.208,
        "velocity": 1,
        "hand": "left"
      },
      {
        "midi": 50,
        "time": 52.083,
        "duration": 0.208,
        "velocity": 1,
        "hand": "left"
      },
      {
        "midi": 66,
        "time": 52.083,
        "duration": 0.417,
        "velocity": 1,
        "hand": "right"
      },
      {
        "midi": 70,
        "time": 52.083,
        "duration": 0.417,
        "velocity": 1,
        "hand": "right"
      },
      {
        "midi": 49,
        "time": 52.292,
        "duration": 0.208,
        "velocity": 1,
        "hand": "left"
      },
      {
        "midi": 47,
        "time": 52.5,
        "duration": 0.417,
        "velocity": 1,
        "hand": "left"
      },
      {
        "midi": 62,
        "time": 52.5,
        "duration": 0.833,
        "velocity": 1,
        "hand": "right"
      },
      {
        "midi": 66,
        "time": 52.917,
        "duration": 0.417,
        "velocity": 1,
        "hand": "right"
      },
      {
        "midi": 71,
        "time": 52.917,
        "duration": 0.417,
        "velocity": 1,
        "hand": "right"
      },
      {
        "midi": 55,
        "time": 53.333,
        "duration": 0.417,
        "velocity": 1,
        "hand": "left"
      },
      {
        "midi": 59,
        "time": 53.333,
        "duration": 0.833,
        "velocity": 1,
        "hand": "left"
      },
      {
        "midi": 61,
        "time": 53.333,
        "duration": 0.833,
        "velocity": 1,
        "hand": "right"
      },
      {
        "midi": 73,
        "time": 53.542,
        "duration": 0.208,
        "velocity": 1,
        "hand": "right"
      },
      {
        "midi": 47,
        "time": 53.75,
        "duration": 0.417,
        "velocity": 1,
        "hand": "left"
      },
      {
        "midi": 67,
        "time": 53.75,
        "duration": 0.208,
        "velocity": 1,
        "hand": "right"
      },
      {
        "midi": 71,
        "time": 53.958,
        "duration": 0.208,
        "velocity": 1,
        "hand": "right"
      },
      {
        "midi": 54,
        "time": 54.167,
        "duration": 0.417,
        "velocity": 1,
        "hand": "left"
      },
      {
        "midi": 59,
        "time": 54.167,
        "duration": 0.833,
        "velocity": 1,
        "hand": "left"
      },
      {
        "midi": 62,
        "time": 54.167,
        "duration": 0.833,
        "velocity": 1,
        "hand": "right"
      },
      {
        "midi": 74,
        "time": 54.375,
        "duration": 0.208,
        "velocity": 1,
        "hand": "right"
      },
      {
        "midi": 47,
        "time": 54.583,
        "duration": 0.417,
        "velocity": 1,
        "hand": "left"
      },
      {
        "midi": 66,
        "time": 54.583,
        "duration": 0.208,
        "velocity": 1,
        "hand": "right"
      },
      {
        "midi": 71,
        "time": 54.792,
        "duration": 0.208,
        "velocity": 1,
        "hand": "right"
      },
      {
        "midi": 52,
        "time": 55,
        "duration": 0.417,
        "velocity": 1,
        "hand": "left"
      },
      {
        "midi": 59,
        "time": 55,
        "duration": 0.833,
        "velocity": 1,
        "hand": "left"
      },
      {
        "midi": 67,
        "time": 55,
        "duration": 0.833,
        "velocity": 1,
        "hand": "right"
      },
      {
        "midi": 79,
        "time": 55.208,
        "duration": 0.208,
        "velocity": 1,
        "hand": "right"
      },
      {
        "midi": 47,
        "time": 55.417,
        "duration": 0.417,
        "velocity": 1,
        "hand": "left"
      },
      {
        "midi": 71,
        "time": 55.417,
        "duration": 0.208,
        "velocity": 1,
        "hand": "right"
      },
      {
        "midi": 76,
        "time": 55.625,
        "duration": 0.208,
        "velocity": 1,
        "hand": "right"
      },
      {
        "midi": 50,
        "time": 55.833,
        "duration": 0.417,
        "velocity": 1,
        "hand": "left"
      },
      {
        "midi": 59,
        "time": 55.833,
        "duration": 0.833,
        "velocity": 1,
        "hand": "left"
      },
      {
        "midi": 66,
        "time": 55.833,
        "duration": 0.833,
        "velocity": 1,
        "hand": "right"
      },
      {
        "midi": 78,
        "time": 56.042,
        "duration": 0.208,
        "velocity": 1,
        "hand": "right"
      },
      {
        "midi": 47,
        "time": 56.25,
        "duration": 0.417,
        "velocity": 1,
        "hand": "left"
      },
      {
        "midi": 71,
        "time": 56.25,
        "duration": 0.208,
        "velocity": 1,
        "hand": "right"
      },
      {
        "midi": 74,
        "time": 56.458,
        "duration": 0.208,
        "velocity": 1,
        "hand": "right"
      },
      {
        "midi": 47,
        "time": 56.667,
        "duration": 0.208,
        "velocity": 1,
        "hand": "left"
      },
      {
        "midi": 49,
        "time": 56.875,
        "duration": 0.208,
        "velocity": 1,
        "hand": "left"
      },
      {
        "midi": 50,
        "time": 57.083,
        "duration": 0.208,
        "velocity": 1,
        "hand": "left"
      },
      {
        "midi": 59,
        "time": 57.083,
        "duration": 0.833,
        "velocity": 1,
        "hand": "left"
      },
      {
        "midi": 62,
        "time": 57.083,
        "duration": 0.833,
        "velocity": 1,
        "hand": "right"
      },
      {
        "midi": 52,
        "time": 57.292,
        "duration": 0.208,
        "velocity": 1,
        "hand": "left"
      },
      {
        "midi": 53,
        "time": 57.5,
        "duration": 0.417,
        "velocity": 1,
        "hand": "left"
      },
      {
        "midi": 54,
        "time": 57.917,
        "duration": 0.417,
        "velocity": 1,
        "hand": "left"
      },
      {
        "midi": 59,
        "time": 57.917,
        "duration": 0.833,
        "velocity": 1,
        "hand": "left"
      },
      {
        "midi": 62,
        "time": 57.917,
        "duration": 0.833,
        "velocity": 1,
        "hand": "right"
      },
      {
        "midi": 57,
        "time": 58.333,
        "duration": 0.417,
        "velocity": 1,
        "hand": "left"
      },
      {
        "midi": 56,
        "time": 58.75,
        "duration": 0.417,
        "velocity": 1,
        "hand": "left"
      },
      {
        "midi": 59,
        "time": 58.75,
        "duration": 0.833,
        "velocity": 1,
        "hand": "left"
      },
      {
        "midi": 62,
        "time": 58.75,
        "duration": 0.833,
        "velocity": 1,
        "hand": "right"
      },
      {
        "midi": 55,
        "time": 59.167,
        "duration": 0.417,
        "velocity": 1,
        "hand": "left"
      },
      {
        "midi": 54,
        "time": 59.583,
        "duration": 0.417,
        "velocity": 1,
        "hand": "left"
      },
      {
        "midi": 59,
        "time": 59.583,
        "duration": 0.417,
        "velocity": 1,
        "hand": "left"
      },
      {
        "midi": 62,
        "time": 59.583,
        "duration": 0.417,
        "velocity": 1,
        "hand": "right"
      },
      {
        "midi": 53,
        "time": 60,
        "duration": 0.833,
        "velocity": 1,
        "hand": "left"
      },
      {
        "midi": 71,
        "time": 60,
        "duration": 0.208,
        "velocity": 1,
        "hand": "right"
      },
      {
        "midi": 70,
        "time": 60.208,
        "duration": 0.208,
        "velocity": 1,
        "hand": "right"
      },
      {
        "midi": 59,
        "time": 60.417,
        "duration": 0.833,
        "velocity": 1,
        "hand": "left"
      },
      {
        "midi": 62,
        "time": 60.417,
        "duration": 0.833,
        "velocity": 1,
        "hand": "right"
      },
      {
        "midi": 69,
        "time": 60.417,
        "duration": 0.208,
        "velocity": 1,
        "hand": "right"
      },
      {
        "midi": 68,
        "time": 60.625,
        "duration": 0.208,
        "velocity": 1,
        "hand": "right"
      },
      {
        "midi": 52,
        "time": 60.833,
        "duration": 0.833,
        "velocity": 1,
        "hand": "left"
      },
      {
        "midi": 67,
        "time": 60.833,
        "duration": 0.417,
        "velocity": 1,
        "hand": "right"
      },
      {
        "midi": 59,
        "time": 61.25,
        "duration": 0.417,
        "velocity": 1,
        "hand": "left"
      },
      {
        "midi": 62,
        "time": 61.25,
        "duration": 0.417,
        "velocity": 1,
        "hand": "right"
      },
      {
        "midi": 67,
        "time": 61.25,
        "duration": 0.417,
        "velocity": 1,
        "hand": "right"
      },
      {
        "midi": 50,
        "time": 61.667,
        "duration": 0.833,
        "velocity": 1,
        "hand": "left"
      },
      {
        "midi": 73,
        "time": 61.667,
        "duration": 0.417,
        "velocity": 1,
        "hand": "right"
      },
      {
        "midi": 56,
        "time": 62.083,
        "duration": 0.417,
        "velocity": 1,
        "hand": "left"
      },
      {
        "midi": 64,
        "time": 62.083,
        "duration": 0.417,
        "velocity": 1,
        "hand": "right"
      },
      {
        "midi": 71,
        "time": 62.083,
        "duration": 0.417,
        "velocity": 1,
        "hand": "right"
      },
      {
        "midi": 49,
        "time": 62.5,
        "duration": 0.833,
        "velocity": 1,
        "hand": "left"
      },
      {
        "midi": 63,
        "time": 62.5,
        "duration": 0.417,
        "velocity": 1,
        "hand": "right"
      },
      {
        "midi": 52,
        "time": 62.917,
        "duration": 0.417,
        "velocity": 1,
        "hand": "left"
      },
      {
        "midi": 61,
        "time": 62.917,
        "duration": 0.417,
        "velocity": 1,
        "hand": "right"
      },
      {
        "midi": 64,
        "time": 62.917,
        "duration": 0.417,
        "velocity": 1,
        "hand": "right"
      },
      {
        "midi": 49,
        "time": 63.333,
        "duration": 0.208,
        "velocity": 1,
        "hand": "left"
      },
      {
        "midi": 50,
        "time": 63.542,
        "duration": 0.208,
        "velocity": 1,
        "hand": "left"
      },
      {
        "midi": 52,
        "time": 63.75,
        "duration": 0.208,
        "velocity": 1,
        "hand": "left"
      },
      {
        "midi": 61,
        "time": 63.75,
        "duration": 0.833,
        "velocity": 1,
        "hand": "right"
      },
      {
        "midi": 64,
        "time": 63.75,
        "duration": 0.833,
        "velocity": 1,
        "hand": "right"
      },
      {
        "midi": 54,
        "time": 63.958,
        "duration": 0.208,
        "velocity": 1,
        "hand": "left"
      },
      {
        "midi": 55,
        "time": 64.167,
        "duration": 0.417,
        "velocity": 1,
        "hand": "left"
      },
      {
        "midi": 56,
        "time": 64.583,
        "duration": 0.417,
        "velocity": 1,
        "hand": "left"
      },
      {
        "midi": 61,
        "time": 64.583,
        "duration": 0.833,
        "velocity": 1,
        "hand": "right"
      },
      {
        "midi": 64,
        "time": 64.583,
        "duration": 0.833,
        "velocity": 1,
        "hand": "right"
      },
      {
        "midi": 59,
        "time": 65,
        "duration": 0.417,
        "velocity": 1,
        "hand": "left"
      },
      {
        "midi": 58,
        "time": 65.417,
        "duration": 0.417,
        "velocity": 1,
        "hand": "left"
      },
      {
        "midi": 61,
        "time": 65.417,
        "duration": 0.833,
        "velocity": 1,
        "hand": "right"
      },
      {
        "midi": 64,
        "time": 65.417,
        "duration": 0.833,
        "velocity": 1,
        "hand": "right"
      },
      {
        "midi": 57,
        "time": 65.833,
        "duration": 0.417,
        "velocity": 1,
        "hand": "left"
      },
      {
        "midi": 56,
        "time": 66.25,
        "duration": 0.417,
        "velocity": 1,
        "hand": "left"
      },
      {
        "midi": 61,
        "time": 66.25,
        "duration": 0.417,
        "velocity": 1,
        "hand": "right"
      },
      {
        "midi": 64,
        "time": 66.25,
        "duration": 0.417,
        "velocity": 1,
        "hand": "right"
      },
      {
        "midi": 55,
        "time": 66.667,
        "duration": 0.833,
        "velocity": 1,
        "hand": "left"
      },
      {
        "midi": 73,
        "time": 66.667,
        "duration": 0.208,
        "velocity": 1,
        "hand": "right"
      },
      {
        "midi": 72,
        "time": 66.875,
        "duration": 0.208,
        "velocity": 1,
        "hand": "right"
      },
      {
        "midi": 61,
        "time": 67.083,
        "duration": 0.833,
        "velocity": 1,
        "hand": "right"
      },
      {
        "midi": 64,
        "time": 67.083,
        "duration": 0.833,
        "velocity": 1,
        "hand": "right"
      },
      {
        "midi": 71,
        "time": 67.083,
        "duration": 0.208,
        "velocity": 1,
        "hand": "right"
      },
      {
        "midi": 70,
        "time": 67.292,
        "duration": 0.208,
        "velocity": 1,
        "hand": "right"
      },
      {
        "midi": 54,
        "time": 67.5,
        "duration": 0.833,
        "velocity": 1,
        "hand": "left"
      },
      {
        "midi": 69,
        "time": 67.5,
        "duration": 0.417,
        "velocity": 1,
        "hand": "right"
      },
      {
        "midi": 61,
        "time": 67.917,
        "duration": 0.417,
        "velocity": 1,
        "hand": "right"
      },
      {
        "midi": 64,
        "time": 67.917,
        "duration": 0.417,
        "velocity": 1,
        "hand": "right"
      },
      {
        "midi": 69,
        "time": 67.917,
        "duration": 0.417,
        "velocity": 1,
        "hand": "right"
      },
      {
        "midi": 52,
        "time": 68.333,
        "duration": 0.833,
        "velocity": 1,
        "hand": "left"
      },
      {
        "midi": 74,
        "time": 68.333,
        "duration": 0.417,
        "velocity": 1,
        "hand": "right"
      },
      {
        "midi": 58,
        "time": 68.75,
        "duration": 0.417,
        "velocity": 1,
        "hand": "left"
      },
      {
        "midi": 66,
        "time": 68.75,
        "duration": 0.417,
        "velocity": 1,
        "hand": "right"
      },
      {
        "midi": 73,
        "time": 68.75,
        "duration": 0.417,
        "velocity": 1,
        "hand": "right"
      },
      {
        "midi": 50,
        "time": 69.167,
        "duration": 0.833,
        "velocity": 1,
        "hand": "left"
      },
      {
        "midi": 65,
        "time": 69.167,
        "duration": 0.417,
        "velocity": 1,
        "hand": "right"
      },
      {
        "midi": 54,
        "time": 69.583,
        "duration": 0.417,
        "velocity": 1,
        "hand": "left"
      },
      {
        "midi": 62,
        "time": 69.583,
        "duration": 0.417,
        "velocity": 1,
        "hand": "right"
      },
      {
        "midi": 66,
        "time": 69.583,
        "duration": 0.417,
        "velocity": 1,
        "hand": "right"
      },
      {
        "midi": 47,
        "time": 70,
        "duration": 0.208,
        "velocity": 1,
        "hand": "left"
      },
      {
        "midi": 71,
        "time": 70,
        "duration": 0.208,
        "velocity": 1,
        "hand": "right"
      },
      {
        "midi": 49,
        "time": 70.208,
        "duration": 0.208,
        "velocity": 1,
        "hand": "left"
      },
      {
        "midi": 73,
        "time": 70.208,
        "duration": 0.208,
        "velocity": 1,
        "hand": "right"
      },
      {
        "midi": 50,
        "time": 70.417,
        "duration": 0.208,
        "velocity": 1,
        "hand": "left"
      },
      {
        "midi": 74,
        "time": 70.417,
        "duration": 0.208,
        "velocity": 1,
        "hand": "right"
      },
      {
        "midi": 52,
        "time": 70.625,
        "duration": 0.208,
        "velocity": 1,
        "hand": "left"
      },
      {
        "midi": 76,
        "time": 70.625,
        "duration": 0.208,
        "velocity": 1,
        "hand": "right"
      },
      {
        "midi": 54,
        "time": 70.833,
        "duration": 0.417,
        "velocity": 1,
        "hand": "left"
      },
      {
        "midi": 78,
        "time": 70.833,
        "duration": 0.417,
        "velocity": 1,
        "hand": "right"
      },
      {
        "midi": 43,
        "time": 71.25,
        "duration": 0.417,
        "velocity": 1,
        "hand": "left"
      },
      {
        "midi": 67,
        "time": 71.25,
        "duration": 0.417,
        "velocity": 1,
        "hand": "right"
      },
      {
        "midi": 79,
        "time": 71.25,
        "duration": 0.417,
        "velocity": 1,
        "hand": "right"
      },
      {
        "midi": 41,
        "time": 71.667,
        "duration": 0.833,
        "velocity": 1,
        "hand": "left"
      },
      {
        "midi": 65,
        "time": 71.667,
        "duration": 0.833,
        "velocity": 1,
        "hand": "right"
      },
      {
        "midi": 53,
        "time": 72.083,
        "duration": 0.417,
        "velocity": 1,
        "hand": "left"
      },
      {
        "midi": 77,
        "time": 72.083,
        "duration": 0.417,
        "velocity": 1,
        "hand": "right"
      },
      {
        "midi": 42,
        "time": 72.5,
        "duration": 0.833,
        "velocity": 1,
        "hand": "left"
      },
      {
        "midi": 66,
        "time": 72.5,
        "duration": 0.833,
        "velocity": 1,
        "hand": "right"
      },
      {
        "midi": 54,
        "time": 72.917,
        "duration": 0.417,
        "velocity": 1,
        "hand": "left"
      },
      {
        "midi": 78,
        "time": 72.917,
        "duration": 0.417,
        "velocity": 1,
        "hand": "right"
      },
      {
        "midi": 47,
        "time": 73.333,
        "duration": 0.208,
        "velocity": 1,
        "hand": "left"
      },
      {
        "midi": 71,
        "time": 73.333,
        "duration": 0.208,
        "velocity": 1,
        "hand": "right"
      },
      {
        "midi": 49,
        "time": 73.542,
        "duration": 0.208,
        "velocity": 1,
        "hand": "left"
      },
      {
        "midi": 73,
        "time": 73.542,
        "duration": 0.208,
        "velocity": 1,
        "hand": "right"
      },
      {
        "midi": 50,
        "time": 73.75,
        "duration": 0.208,
        "velocity": 1,
        "hand": "left"
      },
      {
        "midi": 74,
        "time": 73.75,
        "duration": 0.208,
        "velocity": 1,
        "hand": "right"
      },
      {
        "midi": 52,
        "time": 73.958,
        "duration": 0.208,
        "velocity": 1,
        "hand": "left"
      },
      {
        "midi": 76,
        "time": 73.958,
        "duration": 0.208,
        "velocity": 1,
        "hand": "right"
      },
      {
        "midi": 54,
        "time": 74.167,
        "duration": 0.417,
        "velocity": 1,
        "hand": "left"
      },
      {
        "midi": 78,
        "time": 74.167,
        "duration": 0.417,
        "velocity": 1,
        "hand": "right"
      },
      {
        "midi": 43,
        "time": 74.583,
        "duration": 0.417,
        "velocity": 1,
        "hand": "left"
      },
      {
        "midi": 67,
        "time": 74.583,
        "duration": 0.417,
        "velocity": 1,
        "hand": "right"
      },
      {
        "midi": 79,
        "time": 74.583,
        "duration": 0.417,
        "velocity": 1,
        "hand": "right"
      },
      {
        "midi": 41,
        "time": 75,
        "duration": 0.833,
        "velocity": 1,
        "hand": "left"
      },
      {
        "midi": 65,
        "time": 75,
        "duration": 0.833,
        "velocity": 1,
        "hand": "right"
      },
      {
        "midi": 53,
        "time": 75.417,
        "duration": 0.417,
        "velocity": 1,
        "hand": "left"
      },
      {
        "midi": 77,
        "time": 75.417,
        "duration": 0.417,
        "velocity": 1,
        "hand": "right"
      },
      {
        "midi": 42,
        "time": 75.833,
        "duration": 0.833,
        "velocity": 1,
        "hand": "left"
      },
      {
        "midi": 66,
        "time": 75.833,
        "duration": 0.833,
        "velocity": 1,
        "hand": "right"
      },
      {
        "midi": 54,
        "time": 76.25,
        "duration": 0.417,
        "velocity": 1,
        "hand": "left"
      },
      {
        "midi": 78,
        "time": 76.25,
        "duration": 0.417,
        "velocity": 1,
        "hand": "right"
      },
      {
        "midi": 50,
        "time": 76.667,
        "duration": 0.208,
        "velocity": 1,
        "hand": "left"
      },
      {
        "midi": 74,
        "time": 76.667,
        "duration": 0.208,
        "velocity": 1,
        "hand": "right"
      },
      {
        "midi": 52,
        "time": 76.875,
        "duration": 0.208,
        "velocity": 1,
        "hand": "left"
      },
      {
        "midi": 76,
        "time": 76.875,
        "duration": 0.208,
        "velocity": 1,
        "hand": "right"
      },
      {
        "midi": 54,
        "time": 77.083,
        "duration": 0.208,
        "velocity": 1,
        "hand": "left"
      },
      {
        "midi": 78,
        "time": 77.083,
        "duration": 0.208,
        "velocity": 1,
        "hand": "right"
      },
      {
        "midi": 55,
        "time": 77.292,
        "duration": 0.208,
        "velocity": 1,
        "hand": "left"
      },
      {
        "midi": 79,
        "time": 77.292,
        "duration": 0.208,
        "velocity": 1,
        "hand": "right"
      },
      {
        "midi": 57,
        "time": 77.5,
        "duration": 0.417,
        "velocity": 1,
        "hand": "left"
      },
      {
        "midi": 81,
        "time": 77.5,
        "duration": 0.417,
        "velocity": 1,
        "hand": "right"
      },
      {
        "midi": 46,
        "time": 77.917,
        "duration": 0.417,
        "velocity": 1,
        "hand": "left"
      },
      {
        "midi": 70,
        "time": 77.917,
        "duration": 0.417,
        "velocity": 1,
        "hand": "right"
      },
      {
        "midi": 82,
        "time": 77.917,
        "duration": 0.417,
        "velocity": 1,
        "hand": "right"
      },
      {
        "midi": 44,
        "time": 78.333,
        "duration": 0.833,
        "velocity": 1,
        "hand": "left"
      },
      {
        "midi": 68,
        "time": 78.333,
        "duration": 0.833,
        "velocity": 1,
        "hand": "right"
      },
      {
        "midi": 56,
        "time": 78.75,
        "duration": 0.417,
        "velocity": 1,
        "hand": "left"
      },
      {
        "midi": 80,
        "time": 78.75,
        "duration": 0.417,
        "velocity": 1,
        "hand": "right"
      },
      {
        "midi": 45,
        "time": 79.167,
        "duration": 0.833,
        "velocity": 1,
        "hand": "left"
      },
      {
        "midi": 69,
        "time": 79.167,
        "duration": 0.833,
        "velocity": 1,
        "hand": "right"
      },
      {
        "midi": 57,
        "time": 79.583,
        "duration": 0.417,
        "velocity": 1,
        "hand": "left"
      },
      {
        "midi": 81,
        "time": 79.583,
        "duration": 0.417,
        "velocity": 1,
        "hand": "right"
      },
      {
        "midi": 50,
        "time": 80,
        "duration": 0.208,
        "velocity": 1,
        "hand": "left"
      },
      {
        "midi": 74,
        "time": 80,
        "duration": 0.208,
        "velocity": 1,
        "hand": "right"
      },
      {
        "midi": 52,
        "time": 80.208,
        "duration": 0.208,
        "velocity": 1,
        "hand": "left"
      },
      {
        "midi": 76,
        "time": 80.208,
        "duration": 0.208,
        "velocity": 1,
        "hand": "right"
      },
      {
        "midi": 54,
        "time": 80.417,
        "duration": 0.208,
        "velocity": 1,
        "hand": "left"
      },
      {
        "midi": 78,
        "time": 80.417,
        "duration": 0.208,
        "velocity": 1,
        "hand": "right"
      },
      {
        "midi": 55,
        "time": 80.625,
        "duration": 0.208,
        "velocity": 1,
        "hand": "left"
      },
      {
        "midi": 79,
        "time": 80.625,
        "duration": 0.208,
        "velocity": 1,
        "hand": "right"
      },
      {
        "midi": 57,
        "time": 80.833,
        "duration": 0.417,
        "velocity": 1,
        "hand": "left"
      },
      {
        "midi": 81,
        "time": 80.833,
        "duration": 0.417,
        "velocity": 1,
        "hand": "right"
      },
      {
        "midi": 46,
        "time": 81.25,
        "duration": 0.417,
        "velocity": 1,
        "hand": "left"
      },
      {
        "midi": 70,
        "time": 81.25,
        "duration": 0.417,
        "velocity": 1,
        "hand": "right"
      },
      {
        "midi": 82,
        "time": 81.25,
        "duration": 0.417,
        "velocity": 1,
        "hand": "right"
      },
      {
        "midi": 44,
        "time": 81.667,
        "duration": 0.833,
        "velocity": 1,
        "hand": "left"
      },
      {
        "midi": 68,
        "time": 81.667,
        "duration": 0.833,
        "velocity": 1,
        "hand": "right"
      },
      {
        "midi": 56,
        "time": 82.083,
        "duration": 0.417,
        "velocity": 1,
        "hand": "left"
      },
      {
        "midi": 80,
        "time": 82.083,
        "duration": 0.417,
        "velocity": 1,
        "hand": "right"
      },
      {
        "midi": 45,
        "time": 82.5,
        "duration": 0.833,
        "velocity": 1,
        "hand": "left"
      },
      {
        "midi": 69,
        "time": 82.5,
        "duration": 0.833,
        "velocity": 1,
        "hand": "right"
      },
      {
        "midi": 57,
        "time": 82.917,
        "duration": 0.417,
        "velocity": 1,
        "hand": "left"
      },
      {
        "midi": 81,
        "time": 82.917,
        "duration": 0.417,
        "velocity": 1,
        "hand": "right"
      },
      {
        "midi": 44,
        "time": 83.333,
        "duration": 0.833,
        "velocity": 1,
        "hand": "left"
      },
      {
        "midi": 68,
        "time": 83.333,
        "duration": 0.833,
        "velocity": 1,
        "hand": "right"
      },
      {
        "midi": 56,
        "time": 83.75,
        "duration": 0.417,
        "velocity": 1,
        "hand": "left"
      },
      {
        "midi": 80,
        "time": 83.75,
        "duration": 0.417,
        "velocity": 1,
        "hand": "right"
      },
      {
        "midi": 45,
        "time": 84.167,
        "duration": 0.833,
        "velocity": 1,
        "hand": "left"
      },
      {
        "midi": 69,
        "time": 84.167,
        "duration": 0.833,
        "velocity": 1,
        "hand": "right"
      },
      {
        "midi": 57,
        "time": 84.583,
        "duration": 0.417,
        "velocity": 1,
        "hand": "left"
      },
      {
        "midi": 81,
        "time": 84.583,
        "duration": 0.417,
        "velocity": 1,
        "hand": "right"
      },
      {
        "midi": 46,
        "time": 85,
        "duration": 0.833,
        "velocity": 1,
        "hand": "left"
      },
      {
        "midi": 70,
        "time": 85,
        "duration": 0.833,
        "velocity": 1,
        "hand": "right"
      },
      {
        "midi": 58,
        "time": 85.417,
        "duration": 0.417,
        "velocity": 1,
        "hand": "left"
      },
      {
        "midi": 82,
        "time": 85.417,
        "duration": 0.417,
        "velocity": 1,
        "hand": "right"
      },
      {
        "midi": 40,
        "time": 85.833,
        "duration": 0.833,
        "velocity": 1,
        "hand": "left"
      },
      {
        "midi": 64,
        "time": 85.833,
        "duration": 0.833,
        "velocity": 1,
        "hand": "right"
      },
      {
        "midi": 52,
        "time": 86.25,
        "duration": 0.417,
        "velocity": 1,
        "hand": "left"
      },
      {
        "midi": 76,
        "time": 86.25,
        "duration": 0.417,
        "velocity": 1,
        "hand": "right"
      },
      {
        "midi": 43,
        "time": 86.667,
        "duration": 0.833,
        "velocity": 1,
        "hand": "left"
      },
      {
        "midi": 67,
        "time": 86.667,
        "duration": 0.833,
        "velocity": 1,
        "hand": "right"
      },
      {
        "midi": 55,
        "time": 87.083,
        "duration": 0.417,
        "velocity": 1,
        "hand": "left"
      },
      {
        "midi": 79,
        "time": 87.083,
        "duration": 0.417,
        "velocity": 1,
        "hand": "right"
      },
      {
        "midi": 34,
        "time": 87.5,
        "duration": 0.833,
        "velocity": 1,
        "hand": "left"
      },
      {
        "midi": 58,
        "time": 87.5,
        "duration": 0.833,
        "velocity": 1,
        "hand": "left"
      },
      {
        "midi": 46,
        "time": 87.917,
        "duration": 0.417,
        "velocity": 1,
        "hand": "left"
      },
      {
        "midi": 70,
        "time": 87.917,
        "duration": 0.417,
        "velocity": 1,
        "hand": "right"
      },
      {
        "midi": 38,
        "time": 88.333,
        "duration": 0.833,
        "velocity": 1,
        "hand": "left"
      },
      {
        "midi": 62,
        "time": 88.333,
        "duration": 0.833,
        "velocity": 1,
        "hand": "right"
      },
      {
        "midi": 50,
        "time": 88.75,
        "duration": 0.417,
        "velocity": 1,
        "hand": "left"
      },
      {
        "midi": 74,
        "time": 88.75,
        "duration": 0.417,
        "velocity": 1,
        "hand": "right"
      },
      {
        "midi": 33,
        "time": 89.167,
        "duration": 0.833,
        "velocity": 1,
        "hand": "left"
      },
      {
        "midi": 57,
        "time": 89.167,
        "duration": 0.833,
        "velocity": 1,
        "hand": "left"
      },
      {
        "midi": 45,
        "time": 89.583,
        "duration": 0.417,
        "velocity": 1,
        "hand": "left"
      },
      {
        "midi": 69,
        "time": 89.583,
        "duration": 0.417,
        "velocity": 1,
        "hand": "right"
      },
      {
        "midi": 44,
        "time": 90,
        "duration": 0.208,
        "velocity": 1,
        "hand": "left"
      },
      {
        "midi": 45,
        "time": 90.208,
        "duration": 0.208,
        "velocity": 1,
        "hand": "left"
      },
      {
        "midi": 48,
        "time": 90.417,
        "duration": 0.208,
        "velocity": 1,
        "hand": "left"
      },
      {
        "midi": 49,
        "time": 90.625,
        "duration": 0.208,
        "velocity": 1,
        "hand": "left"
      },
      {
        "midi": 51,
        "time": 90.833,
        "duration": 0.208,
        "velocity": 1,
        "hand": "left"
      },
      {
        "midi": 52,
        "time": 91.042,
        "duration": 0.208,
        "velocity": 1,
        "hand": "left"
      },
      {
        "midi": 56,
        "time": 91.25,
        "duration": 0.208,
        "velocity": 1,
        "hand": "left"
      },
      {
        "midi": 57,
        "time": 91.458,
        "duration": 0.208,
        "velocity": 1,
        "hand": "left"
      },
      {
        "midi": 56,
        "time": 91.667,
        "duration": 0.208,
        "velocity": 1,
        "hand": "left"
      },
      {
        "midi": 57,
        "time": 91.875,
        "duration": 0.208,
        "velocity": 1,
        "hand": "left"
      },
      {
        "midi": 60,
        "time": 92.083,
        "duration": 0.208,
        "velocity": 1,
        "hand": "right"
      },
      {
        "midi": 61,
        "time": 92.292,
        "duration": 0.208,
        "velocity": 1,
        "hand": "right"
      },
      {
        "midi": 63,
        "time": 92.5,
        "duration": 0.208,
        "velocity": 1,
        "hand": "right"
      },
      {
        "midi": 64,
        "time": 92.708,
        "duration": 0.208,
        "velocity": 1,
        "hand": "right"
      },
      {
        "midi": 68,
        "time": 92.917,
        "duration": 0.208,
        "velocity": 1,
        "hand": "right"
      },
      {
        "midi": 69,
        "time": 93.125,
        "duration": 0.208,
        "velocity": 1,
        "hand": "right"
      },
      {
        "midi": 68,
        "time": 93.333,
        "duration": 0.208,
        "velocity": 1,
        "hand": "right"
      },
      {
        "midi": 69,
        "time": 93.542,
        "duration": 0.208,
        "velocity": 1,
        "hand": "right"
      },
      {
        "midi": 72,
        "time": 93.75,
        "duration": 0.208,
        "velocity": 1,
        "hand": "right"
      },
      {
        "midi": 73,
        "time": 93.958,
        "duration": 0.208,
        "velocity": 1,
        "hand": "right"
      },
      {
        "midi": 75,
        "time": 94.167,
        "duration": 0.208,
        "velocity": 1,
        "hand": "right"
      },
      {
        "midi": 76,
        "time": 94.375,
        "duration": 0.208,
        "velocity": 1,
        "hand": "right"
      },
      {
        "midi": 80,
        "time": 94.583,
        "duration": 0.208,
        "velocity": 1,
        "hand": "right"
      },
      {
        "midi": 81,
        "time": 94.792,
        "duration": 0.208,
        "velocity": 1,
        "hand": "right"
      },
      {
        "midi": 80,
        "time": 95,
        "duration": 0.208,
        "velocity": 1,
        "hand": "right"
      },
      {
        "midi": 81,
        "time": 95.208,
        "duration": 0.208,
        "velocity": 1,
        "hand": "right"
      },
      {
        "midi": 84,
        "time": 95.417,
        "duration": 0.208,
        "velocity": 1,
        "hand": "right"
      },
      {
        "midi": 85,
        "time": 95.625,
        "duration": 0.208,
        "velocity": 1,
        "hand": "right"
      },
      {
        "midi": 87,
        "time": 95.833,
        "duration": 0.208,
        "velocity": 1,
        "hand": "right"
      },
      {
        "midi": 88,
        "time": 96.042,
        "duration": 0.208,
        "velocity": 1,
        "hand": "right"
      },
      {
        "midi": 92,
        "time": 96.25,
        "duration": 0.208,
        "velocity": 1,
        "hand": "right"
      },
      {
        "midi": 93,
        "time": 96.458,
        "duration": 0.208,
        "velocity": 1,
        "hand": "right"
      },
      {
        "midi": 50,
        "time": 96.667,
        "duration": 0.833,
        "velocity": 1,
        "hand": "left"
      },
      {
        "midi": 74,
        "time": 96.667,
        "duration": 0.417,
        "velocity": 1,
        "hand": "right"
      },
      {
        "midi": 81,
        "time": 96.667,
        "duration": 0.833,
        "velocity": 1,
        "hand": "right"
      },
      {
        "midi": 62,
        "time": 97.083,
        "duration": 0.417,
        "velocity": 1,
        "hand": "right"
      },
      {
        "midi": 69,
        "time": 97.083,
        "duration": 0.417,
        "velocity": 1,
        "hand": "right"
      },
      {
        "midi": 50,
        "time": 97.5,
        "duration": 0.833,
        "velocity": 1,
        "hand": "left"
      },
      {
        "midi": 70,
        "time": 97.5,
        "duration": 0.417,
        "velocity": 1,
        "hand": "right"
      },
      {
        "midi": 76,
        "time": 97.5,
        "duration": 0.833,
        "velocity": 1,
        "hand": "right"
      },
      {
        "midi": 62,
        "time": 97.917,
        "duration": 0.417,
        "velocity": 1,
        "hand": "right"
      },
      {
        "midi": 64,
        "time": 97.917,
        "duration": 0.417,
        "velocity": 1,
        "hand": "right"
      },
      {
        "midi": 50,
        "time": 98.333,
        "duration": 0.833,
        "velocity": 1,
        "hand": "left"
      },
      {
        "midi": 74,
        "time": 98.333,
        "duration": 0.417,
        "velocity": 1,
        "hand": "right"
      },
      {
        "midi": 81,
        "time": 98.333,
        "duration": 0.833,
        "velocity": 1,
        "hand": "right"
      },
      {
        "midi": 62,
        "time": 98.75,
        "duration": 0.417,
        "velocity": 1,
        "hand": "right"
      },
      {
        "midi": 69,
        "time": 98.75,
        "duration": 0.417,
        "velocity": 1,
        "hand": "right"
      },
      {
        "midi": 50,
        "time": 99.167,
        "duration": 0.833,
        "velocity": 1,
        "hand": "left"
      },
      {
        "midi": 70,
        "time": 99.167,
        "duration": 0.417,
        "velocity": 1,
        "hand": "right"
      },
      {
        "midi": 76,
        "time": 99.167,
        "duration": 0.833,
        "velocity": 1,
        "hand": "right"
      },
      {
        "midi": 62,
        "time": 99.583,
        "duration": 0.417,
        "velocity": 1,
        "hand": "right"
      },
      {
        "midi": 64,
        "time": 99.583,
        "duration": 0.417,
        "velocity": 1,
        "hand": "right"
      },
      {
        "midi": 60,
        "time": 100,
        "duration": 1.667,
        "velocity": 1,
        "hand": "right"
      },
      {
        "midi": 66,
        "time": 100,
        "duration": 1.667,
        "velocity": 1,
        "hand": "right"
      },
      {
        "midi": 74,
        "time": 100,
        "duration": 0.208,
        "velocity": 1,
        "hand": "right"
      },
      {
        "midi": 76,
        "time": 100.208,
        "duration": 0.208,
        "velocity": 1,
        "hand": "right"
      },
      {
        "midi": 74,
        "time": 100.417,
        "duration": 0.208,
        "velocity": 1,
        "hand": "right"
      },
      {
        "midi": 76,
        "time": 100.625,
        "duration": 0.208,
        "velocity": 1,
        "hand": "right"
      },
      {
        "midi": 78,
        "time": 100.833,
        "duration": 0.417,
        "velocity": 1,
        "hand": "right"
      },
      {
        "midi": 78,
        "time": 101.25,
        "duration": 0.417,
        "velocity": 1,
        "hand": "right"
      },
      {
        "midi": 58,
        "time": 101.667,
        "duration": 0.208,
        "velocity": 1,
        "hand": "left"
      },
      {
        "midi": 74,
        "time": 101.667,
        "duration": 0.833,
        "velocity": 1,
        "hand": "right"
      },
      {
        "midi": 76,
        "time": 101.667,
        "duration": 0.417,
        "velocity": 1,
        "hand": "right"
      },
      {
        "midi": 57,
        "time": 101.875,
        "duration": 0.208,
        "velocity": 1,
        "hand": "left"
      },
      {
        "midi": 55,
        "time": 102.083,
        "duration": 0.208,
        "velocity": 1,
        "hand": "left"
      },
      {
        "midi": 79,
        "time": 102.083,
        "duration": 0.417,
        "velocity": 1,
        "hand": "right"
      },
      {
        "midi": 54,
        "time": 102.292,
        "duration": 0.208,
        "velocity": 1,
        "hand": "left"
      },
      {
        "midi": 52,
        "time": 102.5,
        "duration": 0.417,
        "velocity": 1,
        "hand": "left"
      },
      {
        "midi": 73,
        "time": 102.5,
        "duration": 0.417,
        "velocity": 1,
        "hand": "right"
      },
      {
        "midi": 76,
        "time": 102.5,
        "duration": 0.833,
        "velocity": 1,
        "hand": "right"
      },
      {
        "midi": 57,
        "time": 102.917,
        "duration": 0.417,
        "velocity": 1,
        "hand": "left"
      },
      {
        "midi": 69,
        "time": 102.917,
        "duration": 0.417,
        "velocity": 1,
        "hand": "right"
      },
      {
        "midi": 50,
        "time": 103.333,
        "duration": 0.833,
        "velocity": 1,
        "hand": "left"
      },
      {
        "midi": 74,
        "time": 103.333,
        "duration": 0.417,
        "velocity": 1,
        "hand": "right"
      },
      {
        "midi": 81,
        "time": 103.333,
        "duration": 0.833,
        "velocity": 1,
        "hand": "right"
      },
      {
        "midi": 62,
        "time": 103.75,
        "duration": 0.417,
        "velocity": 1,
        "hand": "right"
      },
      {
        "midi": 69,
        "time": 103.75,
        "duration": 0.417,
        "velocity": 1,
        "hand": "right"
      },
      {
        "midi": 50,
        "time": 104.167,
        "duration": 0.833,
        "velocity": 1,
        "hand": "left"
      },
      {
        "midi": 70,
        "time": 104.167,
        "duration": 0.417,
        "velocity": 1,
        "hand": "right"
      },
      {
        "midi": 76,
        "time": 104.167,
        "duration": 0.833,
        "velocity": 1,
        "hand": "right"
      },
      {
        "midi": 62,
        "time": 104.583,
        "duration": 0.417,
        "velocity": 1,
        "hand": "right"
      },
      {
        "midi": 64,
        "time": 104.583,
        "duration": 0.417,
        "velocity": 1,
        "hand": "right"
      },
      {
        "midi": 50,
        "time": 105,
        "duration": 0.833,
        "velocity": 1,
        "hand": "left"
      },
      {
        "midi": 74,
        "time": 105,
        "duration": 0.417,
        "velocity": 1,
        "hand": "right"
      },
      {
        "midi": 81,
        "time": 105,
        "duration": 0.833,
        "velocity": 1,
        "hand": "right"
      },
      {
        "midi": 62,
        "time": 105.417,
        "duration": 0.417,
        "velocity": 1,
        "hand": "right"
      },
      {
        "midi": 69,
        "time": 105.417,
        "duration": 0.417,
        "velocity": 1,
        "hand": "right"
      },
      {
        "midi": 50,
        "time": 105.833,
        "duration": 0.833,
        "velocity": 1,
        "hand": "left"
      },
      {
        "midi": 70,
        "time": 105.833,
        "duration": 0.417,
        "velocity": 1,
        "hand": "right"
      },
      {
        "midi": 76,
        "time": 105.833,
        "duration": 0.833,
        "velocity": 1,
        "hand": "right"
      },
      {
        "midi": 62,
        "time": 106.25,
        "duration": 0.417,
        "velocity": 1,
        "hand": "right"
      },
      {
        "midi": 64,
        "time": 106.25,
        "duration": 0.417,
        "velocity": 1,
        "hand": "right"
      },
      {
        "midi": 60,
        "time": 106.667,
        "duration": 1.667,
        "velocity": 1,
        "hand": "right"
      },
      {
        "midi": 66,
        "time": 106.667,
        "duration": 1.667,
        "velocity": 1,
        "hand": "right"
      },
      {
        "midi": 74,
        "time": 106.667,
        "duration": 0.208,
        "velocity": 1,
        "hand": "right"
      },
      {
        "midi": 76,
        "time": 106.875,
        "duration": 0.208,
        "velocity": 1,
        "hand": "right"
      },
      {
        "midi": 74,
        "time": 107.083,
        "duration": 0.208,
        "velocity": 1,
        "hand": "right"
      },
      {
        "midi": 76,
        "time": 107.292,
        "duration": 0.208,
        "velocity": 1,
        "hand": "right"
      },
      {
        "midi": 78,
        "time": 107.5,
        "duration": 0.417,
        "velocity": 1,
        "hand": "right"
      },
      {
        "midi": 78,
        "time": 107.917,
        "duration": 0.417,
        "velocity": 1,
        "hand": "right"
      },
      {
        "midi": 58,
        "time": 108.333,
        "duration": 0.208,
        "velocity": 1,
        "hand": "left"
      },
      {
        "midi": 74,
        "time": 108.333,
        "duration": 0.208,
        "velocity": 1,
        "hand": "right"
      },
      {
        "midi": 76,
        "time": 108.333,
        "duration": 0.208,
        "velocity": 1,
        "hand": "right"
      },
      {
        "midi": 78,
        "time": 108.542,
        "duration": 0.208,
        "velocity": 1,
        "hand": "right"
      },
      {
        "midi": 58,
        "time": 108.75,
        "duration": 0.208,
        "velocity": 1,
        "hand": "left"
      },
      {
        "midi": 79,
        "time": 108.75,
        "duration": 0.208,
        "velocity": 1,
        "hand": "right"
      },
      {
        "midi": 57,
        "time": 108.958,
        "duration": 0.208,
        "velocity": 1,
        "hand": "left"
      },
      {
        "midi": 81,
        "time": 108.958,
        "duration": 0.208,
        "velocity": 1,
        "hand": "right"
      },
      {
        "midi": 55,
        "time": 109.167,
        "duration": 0.417,
        "velocity": 1,
        "hand": "left"
      },
      {
        "midi": 82,
        "time": 109.167,
        "duration": 0.417,
        "velocity": 1,
        "hand": "right"
      },
      {
        "midi": 43,
        "time": 110,
        "duration": 0.833,
        "velocity": 1,
        "hand": "left"
      },
      {
        "midi": 51,
        "time": 110,
        "duration": 0.833,
        "velocity": 1,
        "hand": "left"
      },
      {
        "midi": 61,
        "time": 110.208,
        "duration": 0.208,
        "velocity": 1,
        "hand": "right"
      },
      {
        "midi": 63,
        "time": 110.208,
        "duration": 0.208,
        "velocity": 1,
        "hand": "right"
      },
      {
        "midi": 58,
        "time": 110.417,
        "duration": 0.417,
        "velocity": 1,
        "hand": "left"
      },
      {
        "midi": 61,
        "time": 110.625,
        "duration": 0.208,
        "velocity": 1,
        "hand": "right"
      },
      {
        "midi": 63,
        "time": 110.625,
        "duration": 0.208,
        "velocity": 1,
        "hand": "right"
      },
      {
        "midi": 56,
        "time": 110.833,
        "duration": 0.833,
        "velocity": 1,
        "hand": "left"
      },
      {
        "midi": 60,
        "time": 110.833,
        "duration": 0.417,
        "velocity": 1,
        "hand": "right"
      },
      {
        "midi": 51,
        "time": 111.25,
        "duration": 0.417,
        "velocity": 1,
        "hand": "left"
      },
      {
        "midi": 63,
        "time": 111.25,
        "duration": 0.417,
        "velocity": 1,
        "hand": "right"
      },
      {
        "midi": 72,
        "time": 111.25,
        "duration": 0.417,
        "velocity": 1,
        "hand": "right"
      },
      {
        "midi": 45,
        "time": 111.667,
        "duration": 0.833,
        "velocity": 1,
        "hand": "left"
      },
      {
        "midi": 53,
        "time": 111.667,
        "duration": 0.833,
        "velocity": 1,
        "hand": "left"
      },
      {
        "midi": 63,
        "time": 111.875,
        "duration": 0.208,
        "velocity": 1,
        "hand": "right"
      },
      {
        "midi": 65,
        "time": 111.875,
        "duration": 0.208,
        "velocity": 1,
        "hand": "right"
      },
      {
        "midi": 60,
        "time": 112.083,
        "duration": 0.417,
        "velocity": 1,
        "hand": "right"
      },
      {
        "midi": 63,
        "time": 112.292,
        "duration": 0.208,
        "velocity": 1,
        "hand": "right"
      },
      {
        "midi": 65,
        "time": 112.292,
        "duration": 0.208,
        "velocity": 1,
        "hand": "right"
      },
      {
        "midi": 58,
        "time": 112.5,
        "duration": 0.833,
        "velocity": 1,
        "hand": "left"
      },
      {
        "midi": 62,
        "time": 112.5,
        "duration": 0.833,
        "velocity": 1,
        "hand": "right"
      },
      {
        "midi": 46,
        "time": 112.917,
        "duration": 0.417,
        "velocity": 1,
        "hand": "left"
      },
      {
        "midi": 65,
        "time": 112.917,
        "duration": 0.417,
        "velocity": 1,
        "hand": "right"
      },
      {
        "midi": 74,
        "time": 112.917,
        "duration": 0.417,
        "velocity": 1,
        "hand": "right"
      },
      {
        "midi": 47,
        "time": 113.333,
        "duration": 0.417,
        "velocity": 1,
        "hand": "left"
      },
      {
        "midi": 55,
        "time": 113.333,
        "duration": 0.833,
        "velocity": 1,
        "hand": "left"
      },
      {
        "midi": 62,
        "time": 113.333,
        "duration": 0.833,
        "velocity": 1,
        "hand": "right"
      },
      {
        "midi": 59,
        "time": 113.75,
        "duration": 0.417,
        "velocity": 1,
        "hand": "left"
      },
      {
        "midi": 67,
        "time": 113.75,
        "duration": 0.417,
        "velocity": 1,
        "hand": "right"
      },
      {
        "midi": 74,
        "time": 113.75,
        "duration": 0.417,
        "velocity": 1,
        "hand": "right"
      },
      {
        "midi": 48,
        "time": 114.167,
        "duration": 0.417,
        "velocity": 1,
        "hand": "left"
      },
      {
        "midi": 55,
        "time": 114.167,
        "duration": 0.833,
        "velocity": 1,
        "hand": "left"
      },
      {
        "midi": 63,
        "time": 114.167,
        "duration": 0.833,
        "velocity": 1,
        "hand": "right"
      },
      {
        "midi": 60,
        "time": 114.583,
        "duration": 0.417,
        "velocity": 1,
        "hand": "right"
      },
      {
        "midi": 67,
        "time": 114.583,
        "duration": 0.417,
        "velocity": 1,
        "hand": "right"
      },
      {
        "midi": 75,
        "time": 114.583,
        "duration": 0.417,
        "velocity": 1,
        "hand": "right"
      },
      {
        "midi": 50,
        "time": 115,
        "duration": 0.417,
        "velocity": 1,
        "hand": "left"
      },
      {
        "midi": 55,
        "time": 115,
        "duration": 0.833,
        "velocity": 1,
        "hand": "left"
      },
      {
        "midi": 65,
        "time": 115,
        "duration": 0.833,
        "velocity": 1,
        "hand": "right"
      },
      {
        "midi": 62,
        "time": 115.417,
        "duration": 0.417,
        "velocity": 1,
        "hand": "right"
      },
      {
        "midi": 71,
        "time": 115.417,
        "duration": 0.417,
        "velocity": 1,
        "hand": "right"
      },
      {
        "midi": 79,
        "time": 115.417,
        "duration": 0.417,
        "velocity": 1,
        "hand": "right"
      },
      {
        "midi": 48,
        "time": 115.833,
        "duration": 0.417,
        "velocity": 1,
        "hand": "left"
      },
      {
        "midi": 55,
        "time": 115.833,
        "duration": 0.833,
        "velocity": 1,
        "hand": "left"
      },
      {
        "midi": 63,
        "time": 115.833,
        "duration": 0.833,
        "velocity": 1,
        "hand": "right"
      },
      {
        "midi": 60,
        "time": 116.25,
        "duration": 0.417,
        "velocity": 1,
        "hand": "right"
      },
      {
        "midi": 67,
        "time": 116.25,
        "duration": 0.417,
        "velocity": 1,
        "hand": "right"
      },
      {
        "midi": 75,
        "time": 116.25,
        "duration": 0.417,
        "velocity": 1,
        "hand": "right"
      },
      {
        "midi": 47,
        "time": 116.667,
        "duration": 0.833,
        "velocity": 1,
        "hand": "left"
      },
      {
        "midi": 55,
        "time": 116.667,
        "duration": 0.833,
        "velocity": 1,
        "hand": "left"
      },
      {
        "midi": 65,
        "time": 116.875,
        "duration": 0.208,
        "velocity": 1,
        "hand": "right"
      },
      {
        "midi": 67,
        "time": 116.875,
        "duration": 0.208,
        "velocity": 1,
        "hand": "right"
      },
      {
        "midi": 62,
        "time": 117.083,
        "duration": 0.417,
        "velocity": 1,
        "hand": "right"
      },
      {
        "midi": 65,
        "time": 117.292,
        "duration": 0.208,
        "velocity": 1,
        "hand": "right"
      },
      {
        "midi": 67,
        "time": 117.292,
        "duration": 0.208,
        "velocity": 1,
        "hand": "right"
      },
      {
        "midi": 60,
        "time": 117.5,
        "duration": 0.833,
        "velocity": 1,
        "hand": "right"
      },
      {
        "midi": 64,
        "time": 117.5,
        "duration": 0.833,
        "velocity": 1,
        "hand": "right"
      },
      {
        "midi": 48,
        "time": 117.917,
        "duration": 0.417,
        "velocity": 1,
        "hand": "left"
      },
      {
        "midi": 67,
        "time": 117.917,
        "duration": 0.417,
        "velocity": 1,
        "hand": "right"
      },
      {
        "midi": 76,
        "time": 117.917,
        "duration": 0.417,
        "velocity": 1,
        "hand": "right"
      },
      {
        "midi": 49,
        "time": 118.333,
        "duration": 0.833,
        "velocity": 1,
        "hand": "left"
      },
      {
        "midi": 57,
        "time": 118.333,
        "duration": 0.417,
        "velocity": 1,
        "hand": "left"
      },
      {
        "midi": 67,
        "time": 118.542,
        "duration": 0.208,
        "velocity": 1,
        "hand": "right"
      },
      {
        "midi": 69,
        "time": 118.542,
        "duration": 0.208,
        "velocity": 1,
        "hand": "right"
      },
      {
        "midi": 64,
        "time": 118.75,
        "duration": 0.417,
        "velocity": 1,
        "hand": "right"
      },
      {
        "midi": 67,
        "time": 118.958,
        "duration": 0.208,
        "velocity": 1,
        "hand": "right"
      },
      {
        "midi": 69,
        "time": 118.958,
        "duration": 0.208,
        "velocity": 1,
        "hand": "right"
      },
      {
        "midi": 62,
        "time": 119.167,
        "duration": 0.833,
        "velocity": 1,
        "hand": "right"
      },
      {
        "midi": 65,
        "time": 119.167,
        "duration": 0.833,
        "velocity": 1,
        "hand": "right"
      },
      {
        "midi": 50,
        "time": 119.583,
        "duration": 0.417,
        "velocity": 1,
        "hand": "left"
      },
      {
        "midi": 69,
        "time": 119.583,
        "duration": 0.417,
        "velocity": 1,
        "hand": "right"
      },
      {
        "midi": 77,
        "time": 119.583,
        "duration": 0.417,
        "velocity": 1,
        "hand": "right"
      },
      {
        "midi": 49,
        "time": 120,
        "duration": 0.833,
        "velocity": 1,
        "hand": "left"
      },
      {
        "midi": 57,
        "time": 120,
        "duration": 0.833,
        "velocity": 1,
        "hand": "left"
      },
      {
        "midi": 64,
        "time": 120,
        "duration": 0.833,
        "velocity": 1,
        "hand": "right"
      },
      {
        "midi": 61,
        "time": 120.417,
        "duration": 0.417,
        "velocity": 1,
        "hand": "right"
      },
      {
        "midi": 69,
        "time": 120.417,
        "duration": 0.417,
        "velocity": 1,
        "hand": "right"
      },
      {
        "midi": 76,
        "time": 120.417,
        "duration": 0.417,
        "velocity": 1,
        "hand": "right"
      },
      {
        "midi": 50,
        "time": 120.833,
        "duration": 0.417,
        "velocity": 1,
        "hand": "left"
      },
      {
        "midi": 57,
        "time": 120.833,
        "duration": 0.833,
        "velocity": 1,
        "hand": "left"
      },
      {
        "midi": 65,
        "time": 120.833,
        "duration": 0.833,
        "velocity": 1,
        "hand": "right"
      },
      {
        "midi": 62,
        "time": 121.25,
        "duration": 0.417,
        "velocity": 1,
        "hand": "right"
      },
      {
        "midi": 69,
        "time": 121.25,
        "duration": 0.417,
        "velocity": 1,
        "hand": "right"
      },
      {
        "midi": 77,
        "time": 121.25,
        "duration": 0.417,
        "velocity": 1,
        "hand": "right"
      },
      {
        "midi": 52,
        "time": 121.667,
        "duration": 0.417,
        "velocity": 1,
        "hand": "left"
      },
      {
        "midi": 57,
        "time": 121.667,
        "duration": 0.833,
        "velocity": 1,
        "hand": "left"
      },
      {
        "midi": 67,
        "time": 121.667,
        "duration": 0.833,
        "velocity": 1,
        "hand": "right"
      },
      {
        "midi": 64,
        "time": 122.083,
        "duration": 0.417,
        "velocity": 1,
        "hand": "right"
      },
      {
        "midi": 73,
        "time": 122.083,
        "duration": 0.417,
        "velocity": 1,
        "hand": "right"
      },
      {
        "midi": 81,
        "time": 122.083,
        "duration": 0.417,
        "velocity": 1,
        "hand": "right"
      },
      {
        "midi": 50,
        "time": 122.5,
        "duration": 0.417,
        "velocity": 1,
        "hand": "left"
      },
      {
        "midi": 57,
        "time": 122.5,
        "duration": 0.833,
        "velocity": 1,
        "hand": "left"
      },
      {
        "midi": 65,
        "time": 122.5,
        "duration": 0.833,
        "velocity": 1,
        "hand": "right"
      },
      {
        "midi": 62,
        "time": 122.917,
        "duration": 0.417,
        "velocity": 1,
        "hand": "right"
      },
      {
        "midi": 69,
        "time": 122.917,
        "duration": 0.417,
        "velocity": 1,
        "hand": "right"
      },
      {
        "midi": 77,
        "time": 122.917,
        "duration": 0.417,
        "velocity": 1,
        "hand": "right"
      },
      {
        "midi": 49,
        "time": 123.333,
        "duration": 0.417,
        "velocity": 1,
        "hand": "left"
      },
      {
        "midi": 57,
        "time": 123.333,
        "duration": 0.833,
        "velocity": 1,
        "hand": "left"
      },
      {
        "midi": 64,
        "time": 123.333,
        "duration": 0.833,
        "velocity": 1,
        "hand": "right"
      },
      {
        "midi": 61,
        "time": 123.75,
        "duration": 0.417,
        "velocity": 1,
        "hand": "right"
      },
      {
        "midi": 69,
        "time": 123.75,
        "duration": 0.417,
        "velocity": 1,
        "hand": "right"
      },
      {
        "midi": 76,
        "time": 123.75,
        "duration": 0.417,
        "velocity": 1,
        "hand": "right"
      },
      {
        "midi": 50,
        "time": 124.167,
        "duration": 0.417,
        "velocity": 1,
        "hand": "left"
      },
      {
        "midi": 57,
        "time": 124.167,
        "duration": 0.833,
        "velocity": 1,
        "hand": "left"
      },
      {
        "midi": 65,
        "time": 124.167,
        "duration": 0.833,
        "velocity": 1,
        "hand": "right"
      },
      {
        "midi": 62,
        "time": 124.583,
        "duration": 0.417,
        "velocity": 1,
        "hand": "right"
      },
      {
        "midi": 69,
        "time": 124.583,
        "duration": 0.417,
        "velocity": 1,
        "hand": "right"
      },
      {
        "midi": 77,
        "time": 124.583,
        "duration": 0.417,
        "velocity": 1,
        "hand": "right"
      },
      {
        "midi": 51,
        "time": 125,
        "duration": 0.417,
        "velocity": 1,
        "hand": "left"
      },
      {
        "midi": 59,
        "time": 125,
        "duration": 0.833,
        "velocity": 1,
        "hand": "left"
      },
      {
        "midi": 69,
        "time": 125,
        "duration": 0.833,
        "velocity": 1,
        "hand": "right"
      },
      {
        "midi": 63,
        "time": 125.417,
        "duration": 0.417,
        "velocity": 1,
        "hand": "right"
      },
      {
        "midi": 78,
        "time": 125.417,
        "duration": 0.417,
        "velocity": 1,
        "hand": "right"
      },
      {
        "midi": 83,
        "time": 125.417,
        "duration": 0.417,
        "velocity": 1,
        "hand": "right"
      },
      {
        "midi": 52,
        "time": 125.833,
        "duration": 0.417,
        "velocity": 1,
        "hand": "left"
      },
      {
        "midi": 59,
        "time": 125.833,
        "duration": 0.833,
        "velocity": 1,
        "hand": "left"
      },
      {
        "midi": 67,
        "time": 125.833,
        "duration": 0.833,
        "velocity": 1,
        "hand": "right"
      },
      {
        "midi": 64,
        "time": 126.25,
        "duration": 0.417,
        "velocity": 1,
        "hand": "right"
      },
      {
        "midi": 71,
        "time": 126.25,
        "duration": 0.417,
        "velocity": 1,
        "hand": "right"
      },
      {
        "midi": 79,
        "time": 126.25,
        "duration": 0.417,
        "velocity": 1,
        "hand": "right"
      },
      {
        "midi": 51,
        "time": 126.667,
        "duration": 0.417,
        "velocity": 1,
        "hand": "left"
      },
      {
        "midi": 59,
        "time": 126.667,
        "duration": 0.833,
        "velocity": 1,
        "hand": "left"
      },
      {
        "midi": 66,
        "time": 126.667,
        "duration": 0.833,
        "velocity": 1,
        "hand": "right"
      },
      {
        "midi": 63,
        "time": 127.083,
        "duration": 0.417,
        "velocity": 1,
        "hand": "right"
      },
      {
        "midi": 71,
        "time": 127.083,
        "duration": 0.417,
        "velocity": 1,
        "hand": "right"
      },
      {
        "midi": 78,
        "time": 127.083,
        "duration": 0.417,
        "velocity": 1,
        "hand": "right"
      },
      {
        "midi": 52,
        "time": 127.5,
        "duration": 0.417,
        "velocity": 1,
        "hand": "left"
      },
      {
        "midi": 59,
        "time": 127.5,
        "duration": 0.833,
        "velocity": 1,
        "hand": "left"
      },
      {
        "midi": 67,
        "time": 127.5,
        "duration": 0.833,
        "velocity": 1,
        "hand": "right"
      },
      {
        "midi": 64,
        "time": 127.917,
        "duration": 0.417,
        "velocity": 1,
        "hand": "right"
      },
      {
        "midi": 71,
        "time": 127.917,
        "duration": 0.417,
        "velocity": 1,
        "hand": "right"
      },
      {
        "midi": 79,
        "time": 127.917,
        "duration": 0.417,
        "velocity": 1,
        "hand": "right"
      },
      {
        "midi": 53,
        "time": 128.333,
        "duration": 0.417,
        "velocity": 1,
        "hand": "left"
      },
      {
        "midi": 61,
        "time": 128.333,
        "duration": 0.833,
        "velocity": 1,
        "hand": "right"
      },
      {
        "midi": 71,
        "time": 128.333,
        "duration": 0.833,
        "velocity": 1,
        "hand": "right"
      },
      {
        "midi": 65,
        "time": 128.75,
        "duration": 0.417,
        "velocity": 1,
        "hand": "right"
      },
      {
        "midi": 80,
        "time": 128.75,
        "duration": 0.417,
        "velocity": 1,
        "hand": "right"
      },
      {
        "midi": 85,
        "time": 128.75,
        "duration": 0.417,
        "velocity": 1,
        "hand": "right"
      },
      {
        "midi": 54,
        "time": 129.167,
        "duration": 0.417,
        "velocity": 1,
        "hand": "left"
      },
      {
        "midi": 61,
        "time": 129.167,
        "duration": 0.833,
        "velocity": 1,
        "hand": "right"
      },
      {
        "midi": 69,
        "time": 129.167,
        "duration": 0.833,
        "velocity": 1,
        "hand": "right"
      },
      {
        "midi": 66,
        "time": 129.583,
        "duration": 0.417,
        "velocity": 1,
        "hand": "right"
      },
      {
        "midi": 73,
        "time": 129.583,
        "duration": 0.417,
        "velocity": 1,
        "hand": "right"
      },
      {
        "midi": 81,
        "time": 129.583,
        "duration": 0.417,
        "velocity": 1,
        "hand": "right"
      },
      {
        "midi": 54,
        "time": 130,
        "duration": 0.417,
        "velocity": 1,
        "hand": "left"
      },
      {
        "midi": 62,
        "time": 130,
        "duration": 0.833,
        "velocity": 1,
        "hand": "right"
      },
      {
        "midi": 72,
        "time": 130,
        "duration": 0.833,
        "velocity": 1,
        "hand": "right"
      },
      {
        "midi": 66,
        "time": 130.417,
        "duration": 0.417,
        "velocity": 1,
        "hand": "right"
      },
      {
        "midi": 81,
        "time": 130.417,
        "duration": 0.417,
        "velocity": 1,
        "hand": "right"
      },
      {
        "midi": 86,
        "time": 130.417,
        "duration": 0.417,
        "velocity": 1,
        "hand": "right"
      },
      {
        "midi": 55,
        "time": 130.833,
        "duration": 0.417,
        "velocity": 1,
        "hand": "left"
      },
      {
        "midi": 62,
        "time": 130.833,
        "duration": 0.833,
        "velocity": 1,
        "hand": "right"
      },
      {
        "midi": 71,
        "time": 130.833,
        "duration": 0.833,
        "velocity": 1,
        "hand": "right"
      },
      {
        "midi": 67,
        "time": 131.25,
        "duration": 0.417,
        "velocity": 1,
        "hand": "right"
      },
      {
        "midi": 74,
        "time": 131.25,
        "duration": 0.417,
        "velocity": 1,
        "hand": "right"
      },
      {
        "midi": 83,
        "time": 131.25,
        "duration": 0.417,
        "velocity": 1,
        "hand": "right"
      },
      {
        "midi": 54,
        "time": 131.667,
        "duration": 0.417,
        "velocity": 1,
        "hand": "left"
      },
      {
        "midi": 62,
        "time": 131.667,
        "duration": 0.833,
        "velocity": 1,
        "hand": "right"
      },
      {
        "midi": 72,
        "time": 131.667,
        "duration": 0.833,
        "velocity": 1,
        "hand": "right"
      },
      {
        "midi": 66,
        "time": 132.083,
        "duration": 0.417,
        "velocity": 1,
        "hand": "right"
      },
      {
        "midi": 81,
        "time": 132.083,
        "duration": 0.417,
        "velocity": 1,
        "hand": "right"
      },
      {
        "midi": 86,
        "time": 132.083,
        "duration": 0.417,
        "velocity": 1,
        "hand": "right"
      },
      {
        "midi": 55,
        "time": 132.5,
        "duration": 0.417,
        "velocity": 1,
        "hand": "left"
      },
      {
        "midi": 62,
        "time": 132.5,
        "duration": 0.833,
        "velocity": 1,
        "hand": "right"
      },
      {
        "midi": 71,
        "time": 132.5,
        "duration": 0.833,
        "velocity": 1,
        "hand": "right"
      },
      {
        "midi": 67,
        "time": 132.917,
        "duration": 0.417,
        "velocity": 1,
        "hand": "right"
      },
      {
        "midi": 74,
        "time": 132.917,
        "duration": 0.417,
        "velocity": 1,
        "hand": "right"
      },
      {
        "midi": 83,
        "time": 132.917,
        "duration": 0.417,
        "velocity": 1,
        "hand": "right"
      },
      {
        "midi": 67,
        "time": 133.333,
        "duration": 0.417,
        "velocity": 1,
        "hand": "right"
      },
      {
        "midi": 74,
        "time": 133.333,
        "duration": 0.417,
        "velocity": 1,
        "hand": "right"
      },
      {
        "midi": 88,
        "time": 133.333,
        "duration": 0.208,
        "velocity": 1,
        "hand": "right"
      },
      {
        "midi": 86,
        "time": 133.542,
        "duration": 0.208,
        "velocity": 1,
        "hand": "right"
      },
      {
        "midi": 82,
        "time": 133.75,
        "duration": 0.208,
        "velocity": 1,
        "hand": "right"
      },
      {
        "midi": 81,
        "time": 133.958,
        "duration": 0.208,
        "velocity": 1,
        "hand": "right"
      },
      {
        "midi": 76,
        "time": 134.167,
        "duration": 0.208,
        "velocity": 1,
        "hand": "right"
      },
      {
        "midi": 79,
        "time": 134.167,
        "duration": 0.417,
        "velocity": 1,
        "hand": "right"
      },
      {
        "midi": 74,
        "time": 134.375,
        "duration": 0.208,
        "velocity": 1,
        "hand": "right"
      },
      {
        "midi": 70,
        "time": 134.583,
        "duration": 0.208,
        "velocity": 1,
        "hand": "right"
      },
      {
        "midi": 69,
        "time": 134.792,
        "duration": 0.208,
        "velocity": 1,
        "hand": "right"
      },
      {
        "midi": 64,
        "time": 135,
        "duration": 0.208,
        "velocity": 1,
        "hand": "right"
      },
      {
        "midi": 67,
        "time": 135,
        "duration": 0.417,
        "velocity": 1,
        "hand": "right"
      },
      {
        "midi": 62,
        "time": 135.208,
        "duration": 0.208,
        "velocity": 1,
        "hand": "right"
      },
      {
        "midi": 58,
        "time": 135.417,
        "duration": 0.208,
        "velocity": 1,
        "hand": "left"
      },
      {
        "midi": 57,
        "time": 135.625,
        "duration": 0.208,
        "velocity": 1,
        "hand": "left"
      },
      {
        "midi": 52,
        "time": 135.833,
        "duration": 0.208,
        "velocity": 1,
        "hand": "left"
      },
      {
        "midi": 55,
        "time": 135.833,
        "duration": 0.417,
        "velocity": 1,
        "hand": "left"
      },
      {
        "midi": 50,
        "time": 136.042,
        "duration": 0.208,
        "velocity": 1,
        "hand": "left"
      },
      {
        "midi": 46,
        "time": 136.25,
        "duration": 0.208,
        "velocity": 1,
        "hand": "left"
      },
      {
        "midi": 45,
        "time": 136.458,
        "duration": 0.208,
        "velocity": 1,
        "hand": "left"
      },
      {
        "midi": 43,
        "time": 136.667,
        "duration": 0.417,
        "velocity": 1,
        "hand": "left"
      },
      {
        "midi": 43,
        "time": 137.083,
        "duration": 0.417,
        "velocity": 1,
        "hand": "left"
      },
      {
        "midi": 44,
        "time": 137.5,
        "duration": 0.208,
        "velocity": 1,
        "hand": "left"
      },
      {
        "midi": 62,
        "time": 137.5,
        "duration": 1.25,
        "velocity": 1,
        "hand": "right"
      },
      {
        "midi": 64,
        "time": 137.5,
        "duration": 1.25,
        "velocity": 1,
        "hand": "right"
      },
      {
        "midi": 45,
        "time": 137.708,
        "duration": 0.208,
        "velocity": 1,
        "hand": "left"
      },
      {
        "midi": 46,
        "time": 137.917,
        "duration": 0.208,
        "velocity": 1,
        "hand": "left"
      },
      {
        "midi": 44,
        "time": 138.125,
        "duration": 0.208,
        "velocity": 1,
        "hand": "left"
      },
      {
        "midi": 45,
        "time": 138.333,
        "duration": 0.417,
        "velocity": 1,
        "hand": "left"
      },
      {
        "midi": 45,
        "time": 138.75,
        "duration": 0.417,
        "velocity": 1,
        "hand": "left"
      },
      {
        "midi": 61,
        "time": 138.75,
        "duration": 0.417,
        "velocity": 1,
        "hand": "right"
      },
      {
        "midi": 69,
        "time": 138.75,
        "duration": 0.417,
        "velocity": 1,
        "hand": "right"
      },
      {
        "midi": 50,
        "time": 139.167,
        "duration": 0.417,
        "velocity": 1,
        "hand": "left"
      },
      {
        "midi": 62,
        "time": 139.167,
        "duration": 0.417,
        "velocity": 1,
        "hand": "right"
      },
      {
        "midi": 74,
        "time": 139.167,
        "duration": 0.417,
        "velocity": 1,
        "hand": "right"
      },
      {
        "midi": 46,
        "time": 140,
        "duration": 1.667,
        "velocity": 1,
        "hand": "left"
      },
      {
        "midi": 74,
        "time": 140,
        "duration": 1.667,
        "velocity": 1,
        "hand": "right"
      },
      {
        "midi": 86,
        "time": 140,
        "duration": 1.667,
        "velocity": 1,
        "hand": "right"
      },
      {
        "midi": 55,
        "time": 140.833,
        "duration": 0.833,
        "velocity": 1,
        "hand": "left"
      },
      {
        "midi": 79,
        "time": 140.833,
        "duration": 0.833,
        "velocity": 1,
        "hand": "right"
      },
      {
        "midi": 48,
        "time": 141.667,
        "duration": 1.667,
        "velocity": 1,
        "hand": "left"
      },
      {
        "midi": 72,
        "time": 141.667,
        "duration": 1.667,
        "velocity": 1,
        "hand": "right"
      },
      {
        "midi": 84,
        "time": 141.667,
        "duration": 1.667,
        "velocity": 1,
        "hand": "right"
      },
      {
        "midi": 57,
        "time": 142.5,
        "duration": 0.833,
        "velocity": 1,
        "hand": "left"
      },
      {
        "midi": 77,
        "time": 142.5,
        "duration": 0.833,
        "velocity": 1,
        "hand": "right"
      },
      {
        "midi": 49,
        "time": 143.333,
        "duration": 0.833,
        "velocity": 1,
        "hand": "left"
      },
      {
        "midi": 69,
        "time": 143.333,
        "duration": 0.625,
        "velocity": 1,
        "hand": "right"
      },
      {
        "midi": 81,
        "time": 143.333,
        "duration": 0.625,
        "velocity": 1,
        "hand": "right"
      },
      {
        "midi": 70,
        "time": 143.958,
        "duration": 0.208,
        "velocity": 1,
        "hand": "right"
      },
      {
        "midi": 82,
        "time": 143.958,
        "duration": 0.208,
        "velocity": 1,
        "hand": "right"
      },
      {
        "midi": 50,
        "time": 144.167,
        "duration": 0.833,
        "velocity": 1,
        "hand": "left"
      },
      {
        "midi": 67,
        "time": 144.167,
        "duration": 0.833,
        "velocity": 1,
        "hand": "right"
      },
      {
        "midi": 79,
        "time": 144.167,
        "duration": 0.833,
        "velocity": 1,
        "hand": "right"
      },
      {
        "midi": 48,
        "time": 145,
        "duration": 0.833,
        "velocity": 1,
        "hand": "left"
      },
      {
        "midi": 58,
        "time": 145,
        "duration": 0.833,
        "velocity": 1,
        "hand": "left"
      },
      {
        "midi": 69,
        "time": 145,
        "duration": 0.833,
        "velocity": 1,
        "hand": "right"
      },
      {
        "midi": 41,
        "time": 145.833,
        "duration": 0.417,
        "velocity": 1,
        "hand": "left"
      },
      {
        "midi": 57,
        "time": 145.833,
        "duration": 0.417,
        "velocity": 1,
        "hand": "left"
      },
      {
        "midi": 65,
        "time": 145.833,
        "duration": 0.417,
        "velocity": 1,
        "hand": "right"
      },
      {
        "midi": 29,
        "time": 146.667,
        "duration": 0.417,
        "velocity": 1,
        "hand": "left"
      },
      {
        "midi": 41,
        "time": 146.667,
        "duration": 0.417,
        "velocity": 1,
        "hand": "left"
      },
      {
        "midi": 57,
        "time": 147.083,
        "duration": 0.417,
        "velocity": 1,
        "hand": "left"
      },
      {
        "midi": 60,
        "time": 147.083,
        "duration": 0.417,
        "velocity": 1,
        "hand": "right"
      },
      {
        "midi": 41,
        "time": 147.5,
        "duration": 1.667,
        "velocity": 1,
        "hand": "left"
      },
      {
        "midi": 55,
        "time": 147.5,
        "duration": 1.667,
        "velocity": 1,
        "hand": "left"
      },
      {
        "midi": 65,
        "time": 147.5,
        "duration": 0.417,
        "velocity": 1,
        "hand": "right"
      },
      {
        "midi": 64,
        "time": 147.917,
        "duration": 0.417,
        "velocity": 1,
        "hand": "right"
      },
      {
        "midi": 62,
        "time": 148.333,
        "duration": 0.417,
        "velocity": 1,
        "hand": "right"
      },
      {
        "midi": 64,
        "time": 148.75,
        "duration": 0.417,
        "velocity": 1,
        "hand": "right"
      },
      {
        "midi": 41,
        "time": 149.167,
        "duration": 0.833,
        "velocity": 1,
        "hand": "left"
      },
      {
        "midi": 53,
        "time": 149.167,
        "duration": 0.833,
        "velocity": 1,
        "hand": "left"
      },
      {
        "midi": 65,
        "time": 149.167,
        "duration": 0.833,
        "velocity": 1,
        "hand": "right"
      },
      {
        "midi": 65,
        "time": 150,
        "duration": 0.417,
        "velocity": 1,
        "hand": "right"
      },
      {
        "midi": 69,
        "time": 150,
        "duration": 0.417,
        "velocity": 1,
        "hand": "right"
      },
      {
        "midi": 72,
        "time": 150,
        "duration": 0.417,
        "velocity": 1,
        "hand": "right"
      },
      {
        "midi": 48,
        "time": 150.417,
        "duration": 0.417,
        "velocity": 1,
        "hand": "left"
      },
      {
        "midi": 53,
        "time": 150.833,
        "duration": 0.417,
        "velocity": 1,
        "hand": "left"
      },
      {
        "midi": 58,
        "time": 150.833,
        "duration": 1.667,
        "velocity": 1,
        "hand": "left"
      },
      {
        "midi": 60,
        "time": 150.833,
        "duration": 1.667,
        "velocity": 1,
        "hand": "right"
      },
      {
        "midi": 52,
        "time": 151.25,
        "duration": 0.417,
        "velocity": 1,
        "hand": "left"
      },
      {
        "midi": 50,
        "time": 151.667,
        "duration": 0.417,
        "velocity": 1,
        "hand": "left"
      },
      {
        "midi": 52,
        "time": 152.083,
        "duration": 0.417,
        "velocity": 1,
        "hand": "left"
      },
      {
        "midi": 53,
        "time": 152.5,
        "duration": 0.417,
        "velocity": 1,
        "hand": "left"
      },
      {
        "midi": 57,
        "time": 152.5,
        "duration": 0.417,
        "velocity": 1,
        "hand": "left"
      },
      {
        "midi": 60,
        "time": 152.5,
        "duration": 0.417,
        "velocity": 1,
        "hand": "right"
      },
      {
        "midi": 57,
        "time": 153.333,
        "duration": 0.417,
        "velocity": 1,
        "hand": "left"
      },
      {
        "midi": 50,
        "time": 153.75,
        "duration": 0.417,
        "velocity": 1,
        "hand": "left"
      },
      {
        "midi": 62,
        "time": 153.75,
        "duration": 0.417,
        "velocity": 1,
        "hand": "right"
      },
      {
        "midi": 41,
        "time": 154.167,
        "duration": 0.417,
        "velocity": 1,
        "hand": "left"
      },
      {
        "midi": 69,
        "time": 154.167,
        "duration": 0.417,
        "velocity": 1,
        "hand": "right"
      },
      {
        "midi": 73,
        "time": 154.167,
        "duration": 0.417,
        "velocity": 1,
        "hand": "right"
      },
      {
        "midi": 74,
        "time": 154.583,
        "duration": 0.417,
        "velocity": 1,
        "hand": "right"
      },
      {
        "midi": 58,
        "time": 155,
        "duration": 0.417,
        "velocity": 1,
        "hand": "left"
      },
      {
        "midi": 50,
        "time": 155.417,
        "duration": 0.417,
        "velocity": 1,
        "hand": "left"
      },
      {
        "midi": 62,
        "time": 155.417,
        "duration": 0.417,
        "velocity": 1,
        "hand": "right"
      },
      {
        "midi": 43,
        "time": 155.833,
        "duration": 0.417,
        "velocity": 1,
        "hand": "left"
      },
      {
        "midi": 70,
        "time": 155.833,
        "duration": 0.417,
        "velocity": 1,
        "hand": "right"
      },
      {
        "midi": 73,
        "time": 155.833,
        "duration": 0.417,
        "velocity": 1,
        "hand": "right"
      },
      {
        "midi": 74,
        "time": 156.25,
        "duration": 0.417,
        "velocity": 1,
        "hand": "right"
      },
      {
        "midi": 59,
        "time": 156.667,
        "duration": 0.417,
        "velocity": 1,
        "hand": "left"
      },
      {
        "midi": 52,
        "time": 157.083,
        "duration": 0.417,
        "velocity": 1,
        "hand": "left"
      },
      {
        "midi": 64,
        "time": 157.083,
        "duration": 0.417,
        "velocity": 1,
        "hand": "right"
      },
      {
        "midi": 44,
        "time": 157.5,
        "duration": 0.417,
        "velocity": 1,
        "hand": "left"
      },
      {
        "midi": 71,
        "time": 157.5,
        "duration": 0.417,
        "velocity": 1,
        "hand": "right"
      },
      {
        "midi": 75,
        "time": 157.5,
        "duration": 0.417,
        "velocity": 1,
        "hand": "right"
      },
      {
        "midi": 76,
        "time": 157.917,
        "duration": 0.417,
        "velocity": 1,
        "hand": "right"
      },
      {
        "midi": 61,
        "time": 158.333,
        "duration": 0.417,
        "velocity": 1,
        "hand": "right"
      },
      {
        "midi": 52,
        "time": 158.75,
        "duration": 0.417,
        "velocity": 1,
        "hand": "left"
      },
      {
        "midi": 64,
        "time": 158.75,
        "duration": 0.417,
        "velocity": 1,
        "hand": "right"
      },
      {
        "midi": 45,
        "time": 159.167,
        "duration": 0.417,
        "velocity": 1,
        "hand": "left"
      },
      {
        "midi": 73,
        "time": 159.167,
        "duration": 0.417,
        "velocity": 1,
        "hand": "right"
      },
      {
        "midi": 75,
        "time": 159.167,
        "duration": 0.417,
        "velocity": 1,
        "hand": "right"
      },
      {
        "midi": 76,
        "time": 159.583,
        "duration": 0.417,
        "velocity": 1,
        "hand": "right"
      },
      {
        "midi": 45,
        "time": 160,
        "duration": 0.833,
        "velocity": 1,
        "hand": "left"
      },
      {
        "midi": 77,
        "time": 160,
        "duration": 1.667,
        "velocity": 1,
        "hand": "right"
      },
      {
        "midi": 89,
        "time": 160,
        "duration": 1.667,
        "velocity": 1,
        "hand": "right"
      },
      {
        "midi": 46,
        "time": 160.833,
        "duration": 0.833,
        "velocity": 1,
        "hand": "left"
      },
      {
        "midi": 58,
        "time": 160.833,
        "duration": 0.833,
        "velocity": 1,
        "hand": "left"
      },
      {
        "midi": 86,
        "time": 160.833,
        "duration": 0.833,
        "velocity": 1,
        "hand": "right"
      },
      {
        "midi": 47,
        "time": 161.667,
        "duration": 0.833,
        "velocity": 1,
        "hand": "left"
      },
      {
        "midi": 67,
        "time": 161.667,
        "duration": 1.667,
        "velocity": 1,
        "hand": "right"
      },
      {
        "midi": 79,
        "time": 161.667,
        "duration": 1.667,
        "velocity": 1,
        "hand": "right"
      },
      {
        "midi": 48,
        "time": 162.5,
        "duration": 0.833,
        "velocity": 1,
        "hand": "left"
      },
      {
        "midi": 60,
        "time": 162.5,
        "duration": 0.833,
        "velocity": 1,
        "hand": "right"
      },
      {
        "midi": 76,
        "time": 162.5,
        "duration": 0.833,
        "velocity": 1,
        "hand": "right"
      },
      {
        "midi": 52,
        "time": 163.333,
        "duration": 0.833,
        "velocity": 1,
        "hand": "left"
      },
      {
        "midi": 72,
        "time": 163.333,
        "duration": 0.625,
        "velocity": 1,
        "hand": "right"
      },
      {
        "midi": 84,
        "time": 163.333,
        "duration": 0.625,
        "velocity": 1,
        "hand": "right"
      },
      {
        "midi": 71,
        "time": 163.958,
        "duration": 0.208,
        "velocity": 1,
        "hand": "right"
      },
      {
        "midi": 83,
        "time": 163.958,
        "duration": 0.208,
        "velocity": 1,
        "hand": "right"
      },
      {
        "midi": 53,
        "time": 164.167,
        "duration": 0.833,
        "velocity": 1,
        "hand": "left"
      },
      {
        "midi": 69,
        "time": 164.167,
        "duration": 0.833,
        "velocity": 1,
        "hand": "right"
      },
      {
        "midi": 81,
        "time": 164.167,
        "duration": 0.833,
        "velocity": 1,
        "hand": "right"
      },
      {
        "midi": 57,
        "time": 165,
        "duration": 0.833,
        "velocity": 1,
        "hand": "left"
      },
      {
        "midi": 73,
        "time": 165,
        "duration": 0.833,
        "velocity": 1,
        "hand": "right"
      },
      {
        "midi": 77,
        "time": 165,
        "duration": 0.625,
        "velocity": 1,
        "hand": "right"
      },
      {
        "midi": 64,
        "time": 165.625,
        "duration": 0.208,
        "velocity": 1,
        "hand": "right"
      },
      {
        "midi": 76,
        "time": 165.625,
        "duration": 0.208,
        "velocity": 1,
        "hand": "right"
      },
      {
        "midi": 58,
        "time": 165.833,
        "duration": 0.417,
        "velocity": 1,
        "hand": "left"
      },
      {
        "midi": 62,
        "time": 165.833,
        "duration": 0.417,
        "velocity": 1,
        "hand": "right"
      },
      {
        "midi": 74,
        "time": 165.833,
        "duration": 0.417,
        "velocity": 1,
        "hand": "right"
      },
      {
        "midi": 58,
        "time": 166.667,
        "duration": 0.833,
        "velocity": 1,
        "hand": "left"
      },
      {
        "midi": 62,
        "time": 167.083,
        "duration": 0.417,
        "velocity": 1,
        "hand": "right"
      },
      {
        "midi": 57,
        "time": 167.5,
        "duration": 1.667,
        "velocity": 1,
        "hand": "left"
      },
      {
        "midi": 60,
        "time": 167.5,
        "duration": 1.667,
        "velocity": 1,
        "hand": "right"
      },
      {
        "midi": 67,
        "time": 167.5,
        "duration": 0.417,
        "velocity": 1,
        "hand": "right"
      },
      {
        "midi": 66,
        "time": 167.917,
        "duration": 0.417,
        "velocity": 1,
        "hand": "right"
      },
      {
        "midi": 50,
        "time": 168.333,
        "duration": 1.25,
        "velocity": 1,
        "hand": "left"
      },
      {
        "midi": 64,
        "time": 168.333,
        "duration": 0.417,
        "velocity": 1,
        "hand": "right"
      },
      {
        "midi": 66,
        "time": 168.75,
        "duration": 0.417,
        "velocity": 1,
        "hand": "right"
      },
      {
        "midi": 43,
        "time": 169.167,
        "duration": 0.417,
        "velocity": 1,
        "hand": "left"
      },
      {
        "midi": 58,
        "time": 169.167,
        "duration": 0.417,
        "velocity": 1,
        "hand": "left"
      },
      {
        "midi": 67,
        "time": 169.167,
        "duration": 0.417,
        "velocity": 1,
        "hand": "right"
      },
      {
        "midi": 70,
        "time": 170,
        "duration": 0.833,
        "velocity": 1,
        "hand": "right"
      },
      {
        "midi": 74,
        "time": 170.417,
        "duration": 0.417,
        "velocity": 1,
        "hand": "right"
      },
      {
        "midi": 69,
        "time": 170.833,
        "duration": 1.667,
        "velocity": 1,
        "hand": "right"
      },
      {
        "midi": 72,
        "time": 170.833,
        "duration": 1.667,
        "velocity": 1,
        "hand": "right"
      },
      {
        "midi": 79,
        "time": 170.833,
        "duration": 0.417,
        "velocity": 1,
        "hand": "right"
      },
      {
        "midi": 78,
        "time": 171.25,
        "duration": 0.417,
        "velocity": 1,
        "hand": "right"
      },
      {
        "midi": 62,
        "time": 171.667,
        "duration": 1.25,
        "velocity": 1,
        "hand": "right"
      },
      {
        "midi": 76,
        "time": 171.667,
        "duration": 0.417,
        "velocity": 1,
        "hand": "right"
      },
      {
        "midi": 78,
        "time": 172.083,
        "duration": 0.417,
        "velocity": 1,
        "hand": "right"
      },
      {
        "midi": 55,
        "time": 172.5,
        "duration": 0.417,
        "velocity": 1,
        "hand": "left"
      },
      {
        "midi": 70,
        "time": 172.5,
        "duration": 0.417,
        "velocity": 1,
        "hand": "right"
      },
      {
        "midi": 79,
        "time": 172.5,
        "duration": 0.417,
        "velocity": 1,
        "hand": "right"
      },
      {
        "midi": 47,
        "time": 173.333,
        "duration": 0.833,
        "velocity": 1,
        "hand": "left"
      },
      {
        "midi": 79,
        "time": 173.333,
        "duration": 1.667,
        "velocity": 1,
        "hand": "right"
      },
      {
        "midi": 91,
        "time": 173.333,
        "duration": 1.667,
        "velocity": 1,
        "hand": "right"
      },
      {
        "midi": 48,
        "time": 174.167,
        "duration": 0.833,
        "velocity": 1,
        "hand": "left"
      },
      {
        "midi": 60,
        "time": 174.167,
        "duration": 0.833,
        "velocity": 1,
        "hand": "right"
      },
      {
        "midi": 88,
        "time": 174.167,
        "duration": 0.833,
        "velocity": 1,
        "hand": "right"
      },
      {
        "midi": 49,
        "time": 175,
        "duration": 0.833,
        "velocity": 1,
        "hand": "left"
      },
      {
        "midi": 69,
        "time": 175,
        "duration": 1.667,
        "velocity": 1,
        "hand": "right"
      },
      {
        "midi": 81,
        "time": 175,
        "duration": 1.667,
        "velocity": 1,
        "hand": "right"
      },
      {
        "midi": 50,
        "time": 175.833,
        "duration": 0.833,
        "velocity": 1,
        "hand": "left"
      },
      {
        "midi": 62,
        "time": 175.833,
        "duration": 0.833,
        "velocity": 1,
        "hand": "right"
      },
      {
        "midi": 78,
        "time": 175.833,
        "duration": 0.833,
        "velocity": 1,
        "hand": "right"
      },
      {
        "midi": 54,
        "time": 176.667,
        "duration": 0.833,
        "velocity": 1,
        "hand": "left"
      },
      {
        "midi": 74,
        "time": 176.667,
        "duration": 0.625,
        "velocity": 1,
        "hand": "right"
      },
      {
        "midi": 86,
        "time": 176.667,
        "duration": 0.625,
        "velocity": 1,
        "hand": "right"
      },
      {
        "midi": 73,
        "time": 177.292,
        "duration": 0.208,
        "velocity": 1,
        "hand": "right"
      },
      {
        "midi": 85,
        "time": 177.292,
        "duration": 0.208,
        "velocity": 1,
        "hand": "right"
      },
      {
        "midi": 55,
        "time": 177.5,
        "duration": 0.833,
        "velocity": 1,
        "hand": "left"
      },
      {
        "midi": 71,
        "time": 177.5,
        "duration": 0.833,
        "velocity": 1,
        "hand": "right"
      },
      {
        "midi": 83,
        "time": 177.5,
        "duration": 0.833,
        "velocity": 1,
        "hand": "right"
      },
      {
        "midi": 59,
        "time": 178.333,
        "duration": 0.833,
        "velocity": 1,
        "hand": "left"
      },
      {
        "midi": 75,
        "time": 178.333,
        "duration": 0.833,
        "velocity": 1,
        "hand": "right"
      },
      {
        "midi": 79,
        "time": 178.333,
        "duration": 0.625,
        "velocity": 1,
        "hand": "right"
      },
      {
        "midi": 66,
        "time": 178.958,
        "duration": 0.208,
        "velocity": 1,
        "hand": "right"
      },
      {
        "midi": 78,
        "time": 178.958,
        "duration": 0.208,
        "velocity": 1,
        "hand": "right"
      },
      {
        "midi": 60,
        "time": 179.167,
        "duration": 0.417,
        "velocity": 1,
        "hand": "right"
      },
      {
        "midi": 64,
        "time": 179.167,
        "duration": 0.417,
        "velocity": 1,
        "hand": "right"
      },
      {
        "midi": 76,
        "time": 179.167,
        "duration": 0.417,
        "velocity": 1,
        "hand": "right"
      },
      {
        "midi": 60,
        "time": 180,
        "duration": 0.833,
        "velocity": 1,
        "hand": "right"
      },
      {
        "midi": 62,
        "time": 180.417,
        "duration": 0.417,
        "velocity": 1,
        "hand": "right"
      },
      {
        "midi": 59,
        "time": 180.833,
        "duration": 1.667,
        "velocity": 1,
        "hand": "left"
      },
      {
        "midi": 62,
        "time": 180.833,
        "duration": 1.667,
        "velocity": 1,
        "hand": "right"
      },
      {
        "midi": 67,
        "time": 180.833,
        "duration": 0.417,
        "velocity": 1,
        "hand": "right"
      },
      {
        "midi": 66,
        "time": 181.25,
        "duration": 0.417,
        "velocity": 1,
        "hand": "right"
      },
      {
        "midi": 52,
        "time": 181.667,
        "duration": 1.25,
        "velocity": 1,
        "hand": "left"
      },
      {
        "midi": 64,
        "time": 181.667,
        "duration": 0.417,
        "velocity": 1,
        "hand": "right"
      },
      {
        "midi": 66,
        "time": 182.083,
        "duration": 0.417,
        "velocity": 1,
        "hand": "right"
      },
      {
        "midi": 45,
        "time": 182.5,
        "duration": 0.417,
        "velocity": 1,
        "hand": "left"
      },
      {
        "midi": 60,
        "time": 182.5,
        "duration": 0.417,
        "velocity": 1,
        "hand": "right"
      },
      {
        "midi": 67,
        "time": 182.5,
        "duration": 0.417,
        "velocity": 1,
        "hand": "right"
      },
      {
        "midi": 72,
        "time": 183.333,
        "duration": 0.833,
        "velocity": 1,
        "hand": "right"
      },
      {
        "midi": 76,
        "time": 183.75,
        "duration": 0.417,
        "velocity": 1,
        "hand": "right"
      },
      {
        "midi": 71,
        "time": 184.167,
        "duration": 1.667,
        "velocity": 1,
        "hand": "right"
      },
      {
        "midi": 74,
        "time": 184.167,
        "duration": 1.667,
        "velocity": 1,
        "hand": "right"
      },
      {
        "midi": 81,
        "time": 184.167,
        "duration": 0.417,
        "velocity": 1,
        "hand": "right"
      },
      {
        "midi": 80,
        "time": 184.583,
        "duration": 0.417,
        "velocity": 1,
        "hand": "right"
      },
      {
        "midi": 64,
        "time": 185,
        "duration": 1.25,
        "velocity": 1,
        "hand": "right"
      },
      {
        "midi": 78,
        "time": 185,
        "duration": 0.417,
        "velocity": 1,
        "hand": "right"
      },
      {
        "midi": 80,
        "time": 185.417,
        "duration": 0.417,
        "velocity": 1,
        "hand": "right"
      },
      {
        "midi": 57,
        "time": 185.833,
        "duration": 0.417,
        "velocity": 1,
        "hand": "left"
      },
      {
        "midi": 72,
        "time": 185.833,
        "duration": 0.417,
        "velocity": 1,
        "hand": "right"
      },
      {
        "midi": 81,
        "time": 185.833,
        "duration": 0.417,
        "velocity": 1,
        "hand": "right"
      },
      {
        "midi": 72,
        "time": 186.667,
        "duration": 0.833,
        "velocity": 1,
        "hand": "right"
      },
      {
        "midi": 76,
        "time": 186.875,
        "duration": 0.208,
        "velocity": 1,
        "hand": "right"
      },
      {
        "midi": 81,
        "time": 187.083,
        "duration": 0.208,
        "velocity": 1,
        "hand": "right"
      },
      {
        "midi": 88,
        "time": 187.292,
        "duration": 0.208,
        "velocity": 1,
        "hand": "right"
      },
      {
        "midi": 71,
        "time": 187.5,
        "duration": 0.833,
        "velocity": 1,
        "hand": "right"
      },
      {
        "midi": 76,
        "time": 187.5,
        "duration": 0.833,
        "velocity": 1,
        "hand": "right"
      },
      {
        "midi": 80,
        "time": 187.5,
        "duration": 0.833,
        "velocity": 1,
        "hand": "right"
      },
      {
        "midi": 57,
        "time": 187.917,
        "duration": 0.417,
        "velocity": 1,
        "hand": "left"
      },
      {
        "midi": 64,
        "time": 187.917,
        "duration": 0.417,
        "velocity": 1,
        "hand": "right"
      },
      {
        "midi": 69,
        "time": 188.333,
        "duration": 0.833,
        "velocity": 1,
        "hand": "right"
      },
      {
        "midi": 72,
        "time": 188.542,
        "duration": 0.208,
        "velocity": 1,
        "hand": "right"
      },
      {
        "midi": 76,
        "time": 188.75,
        "duration": 0.208,
        "velocity": 1,
        "hand": "right"
      },
      {
        "midi": 81,
        "time": 188.958,
        "duration": 0.208,
        "velocity": 1,
        "hand": "right"
      },
      {
        "midi": 68,
        "time": 189.167,
        "duration": 0.833,
        "velocity": 1,
        "hand": "right"
      },
      {
        "midi": 74,
        "time": 189.167,
        "duration": 0.833,
        "velocity": 1,
        "hand": "right"
      },
      {
        "midi": 76,
        "time": 189.167,
        "duration": 0.833,
        "velocity": 1,
        "hand": "right"
      },
      {
        "midi": 57,
        "time": 189.583,
        "duration": 0.417,
        "velocity": 1,
        "hand": "left"
      },
      {
        "midi": 64,
        "time": 189.583,
        "duration": 0.417,
        "velocity": 1,
        "hand": "right"
      },
      {
        "midi": 72,
        "time": 190,
        "duration": 0.833,
        "velocity": 1,
        "hand": "right"
      },
      {
        "midi": 76,
        "time": 190.208,
        "duration": 0.208,
        "velocity": 1,
        "hand": "right"
      },
      {
        "midi": 81,
        "time": 190.417,
        "duration": 0.208,
        "velocity": 1,
        "hand": "right"
      },
      {
        "midi": 88,
        "time": 190.625,
        "duration": 0.208,
        "velocity": 1,
        "hand": "right"
      },
      {
        "midi": 71,
        "time": 190.833,
        "duration": 0.833,
        "velocity": 1,
        "hand": "right"
      },
      {
        "midi": 76,
        "time": 190.833,
        "duration": 0.833,
        "velocity": 1,
        "hand": "right"
      },
      {
        "midi": 80,
        "time": 190.833,
        "duration": 0.833,
        "velocity": 1,
        "hand": "right"
      },
      {
        "midi": 57,
        "time": 191.25,
        "duration": 0.417,
        "velocity": 1,
        "hand": "left"
      },
      {
        "midi": 64,
        "time": 191.25,
        "duration": 0.417,
        "velocity": 1,
        "hand": "right"
      },
      {
        "midi": 69,
        "time": 191.667,
        "duration": 0.833,
        "velocity": 1,
        "hand": "right"
      },
      {
        "midi": 72,
        "time": 191.875,
        "duration": 0.208,
        "velocity": 1,
        "hand": "right"
      },
      {
        "midi": 76,
        "time": 192.083,
        "duration": 0.208,
        "velocity": 1,
        "hand": "right"
      },
      {
        "midi": 81,
        "time": 192.292,
        "duration": 0.208,
        "velocity": 1,
        "hand": "right"
      },
      {
        "midi": 68,
        "time": 192.5,
        "duration": 0.833,
        "velocity": 1,
        "hand": "right"
      },
      {
        "midi": 74,
        "time": 192.5,
        "duration": 0.833,
        "velocity": 1,
        "hand": "right"
      },
      {
        "midi": 76,
        "time": 192.5,
        "duration": 0.833,
        "velocity": 1,
        "hand": "right"
      },
      {
        "midi": 57,
        "time": 192.917,
        "duration": 0.417,
        "velocity": 1,
        "hand": "left"
      },
      {
        "midi": 64,
        "time": 192.917,
        "duration": 0.417,
        "velocity": 1,
        "hand": "right"
      },
      {
        "midi": 57,
        "time": 193.333,
        "duration": 0.417,
        "velocity": 1,
        "hand": "left"
      },
      {
        "midi": 81,
        "time": 193.333,
        "duration": 0.208,
        "velocity": 1,
        "hand": "right"
      },
      {
        "midi": 88,
        "time": 193.542,
        "duration": 0.208,
        "velocity": 1,
        "hand": "right"
      },
      {
        "midi": 73,
        "time": 193.75,
        "duration": 0.417,
        "velocity": 1,
        "hand": "right"
      },
      {
        "midi": 90,
        "time": 193.75,
        "duration": 0.208,
        "velocity": 1,
        "hand": "right"
      },
      {
        "midi": 88,
        "time": 193.958,
        "duration": 0.208,
        "velocity": 1,
        "hand": "right"
      },
      {
        "midi": 74,
        "time": 194.167,
        "duration": 0.417,
        "velocity": 1,
        "hand": "right"
      },
      {
        "midi": 80,
        "time": 194.167,
        "duration": 0.208,
        "velocity": 1,
        "hand": "right"
      },
      {
        "midi": 88,
        "time": 194.375,
        "duration": 0.208,
        "velocity": 1,
        "hand": "right"
      },
      {
        "midi": 64,
        "time": 194.583,
        "duration": 0.417,
        "velocity": 1,
        "hand": "right"
      },
      {
        "midi": 90,
        "time": 194.583,
        "duration": 0.208,
        "velocity": 1,
        "hand": "right"
      },
      {
        "midi": 88,
        "time": 194.792,
        "duration": 0.208,
        "velocity": 1,
        "hand": "right"
      },
      {
        "midi": 57,
        "time": 195,
        "duration": 0.417,
        "velocity": 1,
        "hand": "left"
      },
      {
        "midi": 83,
        "time": 195,
        "duration": 0.208,
        "velocity": 1,
        "hand": "right"
      },
      {
        "midi": 88,
        "time": 195.208,
        "duration": 0.208,
        "velocity": 1,
        "hand": "right"
      },
      {
        "midi": 68,
        "time": 195.417,
        "duration": 0.417,
        "velocity": 1,
        "hand": "right"
      },
      {
        "midi": 90,
        "time": 195.417,
        "duration": 0.208,
        "velocity": 1,
        "hand": "right"
      },
      {
        "midi": 88,
        "time": 195.625,
        "duration": 0.208,
        "velocity": 1,
        "hand": "right"
      },
      {
        "midi": 69,
        "time": 195.833,
        "duration": 0.417,
        "velocity": 1,
        "hand": "right"
      },
      {
        "midi": 85,
        "time": 195.833,
        "duration": 0.208,
        "velocity": 1,
        "hand": "right"
      },
      {
        "midi": 88,
        "time": 196.042,
        "duration": 0.208,
        "velocity": 1,
        "hand": "right"
      },
      {
        "midi": 64,
        "time": 196.25,
        "duration": 0.417,
        "velocity": 1,
        "hand": "right"
      },
      {
        "midi": 90,
        "time": 196.25,
        "duration": 0.208,
        "velocity": 1,
        "hand": "right"
      },
      {
        "midi": 88,
        "time": 196.458,
        "duration": 0.208,
        "velocity": 1,
        "hand": "right"
      },
      {
        "midi": 57,
        "time": 196.667,
        "duration": 0.417,
        "velocity": 1,
        "hand": "left"
      },
      {
        "midi": 69,
        "time": 196.667,
        "duration": 0.208,
        "velocity": 1,
        "hand": "right"
      },
      {
        "midi": 76,
        "time": 196.875,
        "duration": 0.208,
        "velocity": 1,
        "hand": "right"
      },
      {
        "midi": 61,
        "time": 197.083,
        "duration": 0.417,
        "velocity": 1,
        "hand": "right"
      },
      {
        "midi": 78,
        "time": 197.083,
        "duration": 0.208,
        "velocity": 1,
        "hand": "right"
      },
      {
        "midi": 76,
        "time": 197.292,
        "duration": 0.208,
        "velocity": 1,
        "hand": "right"
      },
      {
        "midi": 62,
        "time": 197.5,
        "duration": 0.417,
        "velocity": 1,
        "hand": "right"
      },
      {
        "midi": 68,
        "time": 197.5,
        "duration": 0.208,
        "velocity": 1,
        "hand": "right"
      },
      {
        "midi": 76,
        "time": 197.708,
        "duration": 0.208,
        "velocity": 1,
        "hand": "right"
      },
      {
        "midi": 52,
        "time": 197.917,
        "duration": 0.417,
        "velocity": 1,
        "hand": "left"
      },
      {
        "midi": 78,
        "time": 197.917,
        "duration": 0.208,
        "velocity": 1,
        "hand": "right"
      },
      {
        "midi": 76,
        "time": 198.125,
        "duration": 0.208,
        "velocity": 1,
        "hand": "right"
      },
      {
        "midi": 45,
        "time": 198.333,
        "duration": 0.417,
        "velocity": 1,
        "hand": "left"
      },
      {
        "midi": 71,
        "time": 198.333,
        "duration": 0.208,
        "velocity": 1,
        "hand": "right"
      },
      {
        "midi": 76,
        "time": 198.542,
        "duration": 0.208,
        "velocity": 1,
        "hand": "right"
      },
      {
        "midi": 56,
        "time": 198.75,
        "duration": 0.417,
        "velocity": 1,
        "hand": "left"
      },
      {
        "midi": 78,
        "time": 198.75,
        "duration": 0.208,
        "velocity": 1,
        "hand": "right"
      },
      {
        "midi": 76,
        "time": 198.958,
        "duration": 0.208,
        "velocity": 1,
        "hand": "right"
      },
      {
        "midi": 57,
        "time": 199.167,
        "duration": 0.417,
        "velocity": 1,
        "hand": "left"
      },
      {
        "midi": 73,
        "time": 199.167,
        "duration": 0.208,
        "velocity": 1,
        "hand": "right"
      },
      {
        "midi": 76,
        "time": 199.375,
        "duration": 0.208,
        "velocity": 1,
        "hand": "right"
      },
      {
        "midi": 61,
        "time": 199.583,
        "duration": 0.417,
        "velocity": 1,
        "hand": "right"
      },
      {
        "midi": 78,
        "time": 199.583,
        "duration": 0.208,
        "velocity": 1,
        "hand": "right"
      },
      {
        "midi": 76,
        "time": 199.792,
        "duration": 0.208,
        "velocity": 1,
        "hand": "right"
      },
      {
        "midi": 66,
        "time": 200,
        "duration": 0.833,
        "velocity": 1,
        "hand": "right"
      },
      {
        "midi": 69,
        "time": 200,
        "duration": 0.208,
        "velocity": 1,
        "hand": "right"
      },
      {
        "midi": 73,
        "time": 200.208,
        "duration": 0.208,
        "velocity": 1,
        "hand": "right"
      },
      {
        "midi": 74,
        "time": 200.417,
        "duration": 0.208,
        "velocity": 1,
        "hand": "right"
      },
      {
        "midi": 73,
        "time": 200.625,
        "duration": 0.208,
        "velocity": 1,
        "hand": "right"
      },
      {
        "midi": 65,
        "time": 200.833,
        "duration": 0.417,
        "velocity": 1,
        "hand": "right"
      },
      {
        "midi": 69,
        "time": 201.042,
        "duration": 0.208,
        "velocity": 1,
        "hand": "right"
      },
      {
        "midi": 64,
        "time": 201.25,
        "duration": 0.417,
        "velocity": 1,
        "hand": "right"
      },
      {
        "midi": 73,
        "time": 201.25,
        "duration": 0.208,
        "velocity": 1,
        "hand": "right"
      },
      {
        "midi": 69,
        "time": 201.458,
        "duration": 0.208,
        "velocity": 1,
        "hand": "right"
      },
      {
        "midi": 62,
        "time": 201.667,
        "duration": 0.417,
        "velocity": 1,
        "hand": "right"
      },
      {
        "midi": 64,
        "time": 201.875,
        "duration": 0.208,
        "velocity": 1,
        "hand": "right"
      },
      {
        "midi": 61,
        "time": 202.083,
        "duration": 0.417,
        "velocity": 1,
        "hand": "right"
      },
      {
        "midi": 69,
        "time": 202.083,
        "duration": 0.208,
        "velocity": 1,
        "hand": "right"
      },
      {
        "midi": 64,
        "time": 202.292,
        "duration": 0.208,
        "velocity": 1,
        "hand": "right"
      },
      {
        "midi": 45,
        "time": 202.5,
        "duration": 0.417,
        "velocity": 1,
        "hand": "left"
      },
      {
        "midi": 61,
        "time": 202.5,
        "duration": 0.208,
        "velocity": 1,
        "hand": "right"
      },
      {
        "midi": 64,
        "time": 202.708,
        "duration": 0.208,
        "velocity": 1,
        "hand": "right"
      },
      {
        "midi": 49,
        "time": 202.917,
        "duration": 0.417,
        "velocity": 1,
        "hand": "left"
      },
      {
        "midi": 66,
        "time": 202.917,
        "duration": 0.208,
        "velocity": 1,
        "hand": "right"
      },
      {
        "midi": 64,
        "time": 203.125,
        "duration": 0.208,
        "velocity": 1,
        "hand": "right"
      },
      {
        "midi": 54,
        "time": 203.333,
        "duration": 0.833,
        "velocity": 1,
        "hand": "left"
      },
      {
        "midi": 57,
        "time": 203.333,
        "duration": 0.208,
        "velocity": 1,
        "hand": "left"
      },
      {
        "midi": 61,
        "time": 203.542,
        "duration": 0.208,
        "velocity": 1,
        "hand": "right"
      },
      {
        "midi": 62,
        "time": 203.75,
        "duration": 0.208,
        "velocity": 1,
        "hand": "right"
      },
      {
        "midi": 61,
        "time": 203.958,
        "duration": 0.208,
        "velocity": 1,
        "hand": "right"
      },
      {
        "midi": 53,
        "time": 204.167,
        "duration": 0.417,
        "velocity": 1,
        "hand": "left"
      },
      {
        "midi": 57,
        "time": 204.375,
        "duration": 0.208,
        "velocity": 1,
        "hand": "left"
      },
      {
        "midi": 52,
        "time": 204.583,
        "duration": 0.417,
        "velocity": 1,
        "hand": "left"
      },
      {
        "midi": 61,
        "time": 204.583,
        "duration": 0.208,
        "velocity": 1,
        "hand": "right"
      },
      {
        "midi": 57,
        "time": 204.792,
        "duration": 0.208,
        "velocity": 1,
        "hand": "left"
      },
      {
        "midi": 50,
        "time": 205,
        "duration": 0.417,
        "velocity": 1,
        "hand": "left"
      },
      {
        "midi": 52,
        "time": 205.208,
        "duration": 0.208,
        "velocity": 1,
        "hand": "left"
      },
      {
        "midi": 49,
        "time": 205.417,
        "duration": 0.417,
        "velocity": 1,
        "hand": "left"
      },
      {
        "midi": 57,
        "time": 205.417,
        "duration": 0.208,
        "velocity": 1,
        "hand": "left"
      },
      {
        "midi": 52,
        "time": 205.625,
        "duration": 0.208,
        "velocity": 1,
        "hand": "left"
      },
      {
        "midi": 47,
        "time": 205.833,
        "duration": 0.417,
        "velocity": 1,
        "hand": "left"
      },
      {
        "midi": 49,
        "time": 206.042,
        "duration": 0.208,
        "velocity": 1,
        "hand": "left"
      },
      {
        "midi": 45,
        "time": 206.25,
        "duration": 0.417,
        "velocity": 1,
        "hand": "left"
      },
      {
        "midi": 52,
        "time": 206.25,
        "duration": 0.208,
        "velocity": 1,
        "hand": "left"
      },
      {
        "midi": 49,
        "time": 206.458,
        "duration": 0.208,
        "velocity": 1,
        "hand": "left"
      },
      {
        "midi": 44,
        "time": 206.667,
        "duration": 0.417,
        "velocity": 1,
        "hand": "left"
      },
      {
        "midi": 49,
        "time": 206.875,
        "duration": 0.208,
        "velocity": 1,
        "hand": "left"
      },
      {
        "midi": 45,
        "time": 207.083,
        "duration": 0.417,
        "velocity": 1,
        "hand": "left"
      },
      {
        "midi": 52,
        "time": 207.083,
        "duration": 0.208,
        "velocity": 1,
        "hand": "left"
      },
      {
        "midi": 49,
        "time": 207.292,
        "duration": 0.208,
        "velocity": 1,
        "hand": "left"
      },
      {
        "midi": 47,
        "time": 207.5,
        "duration": 0.417,
        "velocity": 1,
        "hand": "left"
      },
      {
        "midi": 49,
        "time": 207.708,
        "duration": 0.208,
        "velocity": 1,
        "hand": "left"
      },
      {
        "midi": 45,
        "time": 207.917,
        "duration": 0.417,
        "velocity": 1,
        "hand": "left"
      },
      {
        "midi": 52,
        "time": 207.917,
        "duration": 0.208,
        "velocity": 1,
        "hand": "left"
      },
      {
        "midi": 49,
        "time": 208.125,
        "duration": 0.208,
        "velocity": 1,
        "hand": "left"
      },
      {
        "midi": 44,
        "time": 208.333,
        "duration": 0.417,
        "velocity": 1,
        "hand": "left"
      },
      {
        "midi": 49,
        "time": 208.542,
        "duration": 0.208,
        "velocity": 1,
        "hand": "left"
      },
      {
        "midi": 45,
        "time": 208.75,
        "duration": 0.417,
        "velocity": 1,
        "hand": "left"
      },
      {
        "midi": 52,
        "time": 208.75,
        "duration": 0.208,
        "velocity": 1,
        "hand": "left"
      },
      {
        "midi": 49,
        "time": 208.958,
        "duration": 0.208,
        "velocity": 1,
        "hand": "left"
      },
      {
        "midi": 47,
        "time": 209.167,
        "duration": 0.417,
        "velocity": 1,
        "hand": "left"
      },
      {
        "midi": 49,
        "time": 209.375,
        "duration": 0.208,
        "velocity": 1,
        "hand": "left"
      },
      {
        "midi": 45,
        "time": 209.583,
        "duration": 0.417,
        "velocity": 1,
        "hand": "left"
      },
      {
        "midi": 52,
        "time": 209.583,
        "duration": 0.208,
        "velocity": 1,
        "hand": "left"
      },
      {
        "midi": 49,
        "time": 209.792,
        "duration": 0.208,
        "velocity": 1,
        "hand": "left"
      },
      {
        "midi": 44,
        "time": 210,
        "duration": 0.208,
        "velocity": 1,
        "hand": "left"
      },
      {
        "midi": 45,
        "time": 210.208,
        "duration": 0.208,
        "velocity": 1,
        "hand": "left"
      },
      {
        "midi": 48,
        "time": 210.417,
        "duration": 0.208,
        "velocity": 1,
        "hand": "left"
      },
      {
        "midi": 49,
        "time": 210.625,
        "duration": 0.208,
        "velocity": 1,
        "hand": "left"
      },
      {
        "midi": 51,
        "time": 210.833,
        "duration": 0.208,
        "velocity": 1,
        "hand": "left"
      },
      {
        "midi": 52,
        "time": 211.042,
        "duration": 0.208,
        "velocity": 1,
        "hand": "left"
      },
      {
        "midi": 56,
        "time": 211.25,
        "duration": 0.208,
        "velocity": 1,
        "hand": "left"
      },
      {
        "midi": 57,
        "time": 211.458,
        "duration": 0.208,
        "velocity": 1,
        "hand": "left"
      },
      {
        "midi": 56,
        "time": 211.667,
        "duration": 0.208,
        "velocity": 1,
        "hand": "left"
      },
      {
        "midi": 57,
        "time": 211.875,
        "duration": 0.208,
        "velocity": 1,
        "hand": "left"
      },
      {
        "midi": 60,
        "time": 212.083,
        "duration": 0.208,
        "velocity": 1,
        "hand": "right"
      },
      {
        "midi": 61,
        "time": 212.292,
        "duration": 0.208,
        "velocity": 1,
        "hand": "right"
      },
      {
        "midi": 63,
        "time": 212.5,
        "duration": 0.208,
        "velocity": 1,
        "hand": "right"
      },
      {
        "midi": 64,
        "time": 212.708,
        "duration": 0.208,
        "velocity": 1,
        "hand": "right"
      },
      {
        "midi": 68,
        "time": 212.917,
        "duration": 0.208,
        "velocity": 1,
        "hand": "right"
      },
      {
        "midi": 69,
        "time": 213.125,
        "duration": 0.208,
        "velocity": 1,
        "hand": "right"
      },
      {
        "midi": 68,
        "time": 213.333,
        "duration": 0.208,
        "velocity": 1,
        "hand": "right"
      },
      {
        "midi": 69,
        "time": 213.542,
        "duration": 0.208,
        "velocity": 1,
        "hand": "right"
      },
      {
        "midi": 72,
        "time": 213.75,
        "duration": 0.208,
        "velocity": 1,
        "hand": "right"
      },
      {
        "midi": 73,
        "time": 213.958,
        "duration": 0.208,
        "velocity": 1,
        "hand": "right"
      },
      {
        "midi": 75,
        "time": 214.167,
        "duration": 0.208,
        "velocity": 1,
        "hand": "right"
      },
      {
        "midi": 76,
        "time": 214.375,
        "duration": 0.208,
        "velocity": 1,
        "hand": "right"
      },
      {
        "midi": 80,
        "time": 214.583,
        "duration": 0.208,
        "velocity": 1,
        "hand": "right"
      },
      {
        "midi": 81,
        "time": 214.792,
        "duration": 0.208,
        "velocity": 1,
        "hand": "right"
      },
      {
        "midi": 80,
        "time": 215,
        "duration": 0.208,
        "velocity": 1,
        "hand": "right"
      },
      {
        "midi": 81,
        "time": 215.208,
        "duration": 0.208,
        "velocity": 1,
        "hand": "right"
      },
      {
        "midi": 84,
        "time": 215.417,
        "duration": 0.208,
        "velocity": 1,
        "hand": "right"
      },
      {
        "midi": 85,
        "time": 215.625,
        "duration": 0.208,
        "velocity": 1,
        "hand": "right"
      },
      {
        "midi": 87,
        "time": 215.833,
        "duration": 0.208,
        "velocity": 1,
        "hand": "right"
      },
      {
        "midi": 88,
        "time": 216.042,
        "duration": 0.208,
        "velocity": 1,
        "hand": "right"
      },
      {
        "midi": 92,
        "time": 216.25,
        "duration": 0.208,
        "velocity": 1,
        "hand": "right"
      },
      {
        "midi": 93,
        "time": 216.458,
        "duration": 0.208,
        "velocity": 1,
        "hand": "right"
      },
      {
        "midi": 50,
        "time": 216.667,
        "duration": 0.833,
        "velocity": 1,
        "hand": "left"
      },
      {
        "midi": 74,
        "time": 216.667,
        "duration": 0.417,
        "velocity": 1,
        "hand": "right"
      },
      {
        "midi": 81,
        "time": 216.667,
        "duration": 0.833,
        "velocity": 1,
        "hand": "right"
      },
      {
        "midi": 62,
        "time": 217.083,
        "duration": 0.417,
        "velocity": 1,
        "hand": "right"
      },
      {
        "midi": 69,
        "time": 217.083,
        "duration": 0.417,
        "velocity": 1,
        "hand": "right"
      },
      {
        "midi": 50,
        "time": 217.5,
        "duration": 0.833,
        "velocity": 1,
        "hand": "left"
      },
      {
        "midi": 70,
        "time": 217.5,
        "duration": 0.417,
        "velocity": 1,
        "hand": "right"
      },
      {
        "midi": 76,
        "time": 217.5,
        "duration": 0.833,
        "velocity": 1,
        "hand": "right"
      },
      {
        "midi": 62,
        "time": 217.917,
        "duration": 0.417,
        "velocity": 1,
        "hand": "right"
      },
      {
        "midi": 64,
        "time": 217.917,
        "duration": 0.417,
        "velocity": 1,
        "hand": "right"
      },
      {
        "midi": 50,
        "time": 218.333,
        "duration": 0.833,
        "velocity": 1,
        "hand": "left"
      },
      {
        "midi": 74,
        "time": 218.333,
        "duration": 0.417,
        "velocity": 1,
        "hand": "right"
      },
      {
        "midi": 81,
        "time": 218.333,
        "duration": 0.833,
        "velocity": 1,
        "hand": "right"
      },
      {
        "midi": 62,
        "time": 218.75,
        "duration": 0.417,
        "velocity": 1,
        "hand": "right"
      },
      {
        "midi": 69,
        "time": 218.75,
        "duration": 0.417,
        "velocity": 1,
        "hand": "right"
      },
      {
        "midi": 50,
        "time": 219.167,
        "duration": 0.833,
        "velocity": 1,
        "hand": "left"
      },
      {
        "midi": 70,
        "time": 219.167,
        "duration": 0.417,
        "velocity": 1,
        "hand": "right"
      },
      {
        "midi": 76,
        "time": 219.167,
        "duration": 0.833,
        "velocity": 1,
        "hand": "right"
      },
      {
        "midi": 62,
        "time": 219.583,
        "duration": 0.417,
        "velocity": 1,
        "hand": "right"
      },
      {
        "midi": 64,
        "time": 219.583,
        "duration": 0.417,
        "velocity": 1,
        "hand": "right"
      },
      {
        "midi": 60,
        "time": 220,
        "duration": 1.667,
        "velocity": 1,
        "hand": "right"
      },
      {
        "midi": 66,
        "time": 220,
        "duration": 1.667,
        "velocity": 1,
        "hand": "right"
      },
      {
        "midi": 74,
        "time": 220,
        "duration": 0.208,
        "velocity": 1,
        "hand": "right"
      },
      {
        "midi": 76,
        "time": 220.208,
        "duration": 0.208,
        "velocity": 1,
        "hand": "right"
      },
      {
        "midi": 74,
        "time": 220.417,
        "duration": 0.208,
        "velocity": 1,
        "hand": "right"
      },
      {
        "midi": 76,
        "time": 220.625,
        "duration": 0.208,
        "velocity": 1,
        "hand": "right"
      },
      {
        "midi": 78,
        "time": 220.833,
        "duration": 0.417,
        "velocity": 1,
        "hand": "right"
      },
      {
        "midi": 78,
        "time": 221.25,
        "duration": 0.417,
        "velocity": 1,
        "hand": "right"
      },
      {
        "midi": 58,
        "time": 221.667,
        "duration": 0.208,
        "velocity": 1,
        "hand": "left"
      },
      {
        "midi": 74,
        "time": 221.667,
        "duration": 0.833,
        "velocity": 1,
        "hand": "right"
      },
      {
        "midi": 76,
        "time": 221.667,
        "duration": 0.417,
        "velocity": 1,
        "hand": "right"
      },
      {
        "midi": 57,
        "time": 221.875,
        "duration": 0.208,
        "velocity": 1,
        "hand": "left"
      },
      {
        "midi": 55,
        "time": 222.083,
        "duration": 0.208,
        "velocity": 1,
        "hand": "left"
      },
      {
        "midi": 79,
        "time": 222.083,
        "duration": 0.417,
        "velocity": 1,
        "hand": "right"
      },
      {
        "midi": 54,
        "time": 222.292,
        "duration": 0.208,
        "velocity": 1,
        "hand": "left"
      },
      {
        "midi": 52,
        "time": 222.5,
        "duration": 0.417,
        "velocity": 1,
        "hand": "left"
      },
      {
        "midi": 73,
        "time": 222.5,
        "duration": 0.417,
        "velocity": 1,
        "hand": "right"
      },
      {
        "midi": 76,
        "time": 222.5,
        "duration": 0.833,
        "velocity": 1,
        "hand": "right"
      },
      {
        "midi": 57,
        "time": 222.917,
        "duration": 0.417,
        "velocity": 1,
        "hand": "left"
      },
      {
        "midi": 69,
        "time": 222.917,
        "duration": 0.417,
        "velocity": 1,
        "hand": "right"
      },
      {
        "midi": 50,
        "time": 223.333,
        "duration": 0.833,
        "velocity": 1,
        "hand": "left"
      },
      {
        "midi": 74,
        "time": 223.333,
        "duration": 0.417,
        "velocity": 1,
        "hand": "right"
      },
      {
        "midi": 81,
        "time": 223.333,
        "duration": 0.833,
        "velocity": 1,
        "hand": "right"
      },
      {
        "midi": 62,
        "time": 223.75,
        "duration": 0.417,
        "velocity": 1,
        "hand": "right"
      },
      {
        "midi": 69,
        "time": 223.75,
        "duration": 0.417,
        "velocity": 1,
        "hand": "right"
      },
      {
        "midi": 50,
        "time": 224.167,
        "duration": 0.833,
        "velocity": 1,
        "hand": "left"
      },
      {
        "midi": 70,
        "time": 224.167,
        "duration": 0.417,
        "velocity": 1,
        "hand": "right"
      },
      {
        "midi": 76,
        "time": 224.167,
        "duration": 0.833,
        "velocity": 1,
        "hand": "right"
      },
      {
        "midi": 62,
        "time": 224.583,
        "duration": 0.417,
        "velocity": 1,
        "hand": "right"
      },
      {
        "midi": 64,
        "time": 224.583,
        "duration": 0.417,
        "velocity": 1,
        "hand": "right"
      },
      {
        "midi": 50,
        "time": 225,
        "duration": 0.833,
        "velocity": 1,
        "hand": "left"
      },
      {
        "midi": 74,
        "time": 225,
        "duration": 0.417,
        "velocity": 1,
        "hand": "right"
      },
      {
        "midi": 81,
        "time": 225,
        "duration": 0.833,
        "velocity": 1,
        "hand": "right"
      },
      {
        "midi": 62,
        "time": 225.417,
        "duration": 0.417,
        "velocity": 1,
        "hand": "right"
      },
      {
        "midi": 69,
        "time": 225.417,
        "duration": 0.417,
        "velocity": 1,
        "hand": "right"
      },
      {
        "midi": 50,
        "time": 225.833,
        "duration": 0.833,
        "velocity": 1,
        "hand": "left"
      },
      {
        "midi": 70,
        "time": 225.833,
        "duration": 0.417,
        "velocity": 1,
        "hand": "right"
      },
      {
        "midi": 76,
        "time": 225.833,
        "duration": 0.833,
        "velocity": 1,
        "hand": "right"
      },
      {
        "midi": 62,
        "time": 226.25,
        "duration": 0.417,
        "velocity": 1,
        "hand": "right"
      },
      {
        "midi": 64,
        "time": 226.25,
        "duration": 0.417,
        "velocity": 1,
        "hand": "right"
      },
      {
        "midi": 60,
        "time": 226.667,
        "duration": 1.667,
        "velocity": 1,
        "hand": "right"
      },
      {
        "midi": 66,
        "time": 226.667,
        "duration": 1.667,
        "velocity": 1,
        "hand": "right"
      },
      {
        "midi": 74,
        "time": 226.667,
        "duration": 0.208,
        "velocity": 1,
        "hand": "right"
      },
      {
        "midi": 76,
        "time": 226.875,
        "duration": 0.208,
        "velocity": 1,
        "hand": "right"
      },
      {
        "midi": 74,
        "time": 227.083,
        "duration": 0.208,
        "velocity": 1,
        "hand": "right"
      },
      {
        "midi": 76,
        "time": 227.292,
        "duration": 0.208,
        "velocity": 1,
        "hand": "right"
      },
      {
        "midi": 78,
        "time": 227.5,
        "duration": 0.417,
        "velocity": 1,
        "hand": "right"
      },
      {
        "midi": 78,
        "time": 227.917,
        "duration": 0.417,
        "velocity": 1,
        "hand": "right"
      },
      {
        "midi": 58,
        "time": 228.333,
        "duration": 0.208,
        "velocity": 1,
        "hand": "left"
      },
      {
        "midi": 74,
        "time": 228.333,
        "duration": 0.208,
        "velocity": 1,
        "hand": "right"
      },
      {
        "midi": 76,
        "time": 228.333,
        "duration": 0.208,
        "velocity": 1,
        "hand": "right"
      },
      {
        "midi": 78,
        "time": 228.542,
        "duration": 0.208,
        "velocity": 1,
        "hand": "right"
      },
      {
        "midi": 58,
        "time": 228.75,
        "duration": 0.208,
        "velocity": 1,
        "hand": "left"
      },
      {
        "midi": 79,
        "time": 228.75,
        "duration": 0.208,
        "velocity": 1,
        "hand": "right"
      },
      {
        "midi": 57,
        "time": 228.958,
        "duration": 0.208,
        "velocity": 1,
        "hand": "left"
      },
      {
        "midi": 81,
        "time": 228.958,
        "duration": 0.208,
        "velocity": 1,
        "hand": "right"
      },
      {
        "midi": 55,
        "time": 229.167,
        "duration": 0.417,
        "velocity": 1,
        "hand": "left"
      },
      {
        "midi": 82,
        "time": 229.167,
        "duration": 0.417,
        "velocity": 1,
        "hand": "right"
      },
      {
        "midi": 43,
        "time": 230,
        "duration": 0.833,
        "velocity": 1,
        "hand": "left"
      },
      {
        "midi": 51,
        "time": 230,
        "duration": 0.833,
        "velocity": 1,
        "hand": "left"
      },
      {
        "midi": 61,
        "time": 230.208,
        "duration": 0.208,
        "velocity": 1,
        "hand": "right"
      },
      {
        "midi": 63,
        "time": 230.208,
        "duration": 0.208,
        "velocity": 1,
        "hand": "right"
      },
      {
        "midi": 58,
        "time": 230.417,
        "duration": 0.417,
        "velocity": 1,
        "hand": "left"
      },
      {
        "midi": 61,
        "time": 230.625,
        "duration": 0.208,
        "velocity": 1,
        "hand": "right"
      },
      {
        "midi": 63,
        "time": 230.625,
        "duration": 0.208,
        "velocity": 1,
        "hand": "right"
      },
      {
        "midi": 56,
        "time": 230.833,
        "duration": 0.833,
        "velocity": 1,
        "hand": "left"
      },
      {
        "midi": 60,
        "time": 230.833,
        "duration": 0.417,
        "velocity": 1,
        "hand": "right"
      },
      {
        "midi": 51,
        "time": 231.25,
        "duration": 0.417,
        "velocity": 1,
        "hand": "left"
      },
      {
        "midi": 63,
        "time": 231.25,
        "duration": 0.417,
        "velocity": 1,
        "hand": "right"
      },
      {
        "midi": 72,
        "time": 231.25,
        "duration": 0.417,
        "velocity": 1,
        "hand": "right"
      },
      {
        "midi": 45,
        "time": 231.667,
        "duration": 0.833,
        "velocity": 1,
        "hand": "left"
      },
      {
        "midi": 53,
        "time": 231.667,
        "duration": 0.833,
        "velocity": 1,
        "hand": "left"
      },
      {
        "midi": 63,
        "time": 231.875,
        "duration": 0.208,
        "velocity": 1,
        "hand": "right"
      },
      {
        "midi": 65,
        "time": 231.875,
        "duration": 0.208,
        "velocity": 1,
        "hand": "right"
      },
      {
        "midi": 60,
        "time": 232.083,
        "duration": 0.417,
        "velocity": 1,
        "hand": "right"
      },
      {
        "midi": 63,
        "time": 232.292,
        "duration": 0.208,
        "velocity": 1,
        "hand": "right"
      },
      {
        "midi": 65,
        "time": 232.292,
        "duration": 0.208,
        "velocity": 1,
        "hand": "right"
      },
      {
        "midi": 58,
        "time": 232.5,
        "duration": 0.833,
        "velocity": 1,
        "hand": "left"
      },
      {
        "midi": 62,
        "time": 232.5,
        "duration": 0.833,
        "velocity": 1,
        "hand": "right"
      },
      {
        "midi": 46,
        "time": 232.917,
        "duration": 0.417,
        "velocity": 1,
        "hand": "left"
      },
      {
        "midi": 65,
        "time": 232.917,
        "duration": 0.417,
        "velocity": 1,
        "hand": "right"
      },
      {
        "midi": 74,
        "time": 232.917,
        "duration": 0.417,
        "velocity": 1,
        "hand": "right"
      },
      {
        "midi": 47,
        "time": 233.333,
        "duration": 0.417,
        "velocity": 1,
        "hand": "left"
      },
      {
        "midi": 55,
        "time": 233.333,
        "duration": 0.833,
        "velocity": 1,
        "hand": "left"
      },
      {
        "midi": 62,
        "time": 233.333,
        "duration": 0.833,
        "velocity": 1,
        "hand": "right"
      },
      {
        "midi": 59,
        "time": 233.75,
        "duration": 0.417,
        "velocity": 1,
        "hand": "left"
      },
      {
        "midi": 67,
        "time": 233.75,
        "duration": 0.417,
        "velocity": 1,
        "hand": "right"
      },
      {
        "midi": 74,
        "time": 233.75,
        "duration": 0.417,
        "velocity": 1,
        "hand": "right"
      },
      {
        "midi": 48,
        "time": 234.167,
        "duration": 0.417,
        "velocity": 1,
        "hand": "left"
      },
      {
        "midi": 55,
        "time": 234.167,
        "duration": 0.833,
        "velocity": 1,
        "hand": "left"
      },
      {
        "midi": 63,
        "time": 234.167,
        "duration": 0.833,
        "velocity": 1,
        "hand": "right"
      },
      {
        "midi": 60,
        "time": 234.583,
        "duration": 0.417,
        "velocity": 1,
        "hand": "right"
      },
      {
        "midi": 67,
        "time": 234.583,
        "duration": 0.417,
        "velocity": 1,
        "hand": "right"
      },
      {
        "midi": 75,
        "time": 234.583,
        "duration": 0.417,
        "velocity": 1,
        "hand": "right"
      },
      {
        "midi": 50,
        "time": 235,
        "duration": 0.417,
        "velocity": 1,
        "hand": "left"
      },
      {
        "midi": 55,
        "time": 235,
        "duration": 0.833,
        "velocity": 1,
        "hand": "left"
      },
      {
        "midi": 65,
        "time": 235,
        "duration": 0.833,
        "velocity": 1,
        "hand": "right"
      },
      {
        "midi": 62,
        "time": 235.417,
        "duration": 0.417,
        "velocity": 1,
        "hand": "right"
      },
      {
        "midi": 71,
        "time": 235.417,
        "duration": 0.417,
        "velocity": 1,
        "hand": "right"
      },
      {
        "midi": 79,
        "time": 235.417,
        "duration": 0.417,
        "velocity": 1,
        "hand": "right"
      },
      {
        "midi": 48,
        "time": 235.833,
        "duration": 0.417,
        "velocity": 1,
        "hand": "left"
      },
      {
        "midi": 55,
        "time": 235.833,
        "duration": 0.833,
        "velocity": 1,
        "hand": "left"
      },
      {
        "midi": 63,
        "time": 235.833,
        "duration": 0.833,
        "velocity": 1,
        "hand": "right"
      },
      {
        "midi": 60,
        "time": 236.25,
        "duration": 0.417,
        "velocity": 1,
        "hand": "right"
      },
      {
        "midi": 67,
        "time": 236.25,
        "duration": 0.417,
        "velocity": 1,
        "hand": "right"
      },
      {
        "midi": 75,
        "time": 236.25,
        "duration": 0.417,
        "velocity": 1,
        "hand": "right"
      },
      {
        "midi": 47,
        "time": 236.667,
        "duration": 0.833,
        "velocity": 1,
        "hand": "left"
      },
      {
        "midi": 55,
        "time": 236.667,
        "duration": 0.833,
        "velocity": 1,
        "hand": "left"
      },
      {
        "midi": 65,
        "time": 236.875,
        "duration": 0.208,
        "velocity": 1,
        "hand": "right"
      },
      {
        "midi": 67,
        "time": 236.875,
        "duration": 0.208,
        "velocity": 1,
        "hand": "right"
      },
      {
        "midi": 62,
        "time": 237.083,
        "duration": 0.417,
        "velocity": 1,
        "hand": "right"
      },
      {
        "midi": 65,
        "time": 237.292,
        "duration": 0.208,
        "velocity": 1,
        "hand": "right"
      },
      {
        "midi": 67,
        "time": 237.292,
        "duration": 0.208,
        "velocity": 1,
        "hand": "right"
      },
      {
        "midi": 60,
        "time": 237.5,
        "duration": 0.833,
        "velocity": 1,
        "hand": "right"
      },
      {
        "midi": 64,
        "time": 237.5,
        "duration": 0.833,
        "velocity": 1,
        "hand": "right"
      },
      {
        "midi": 48,
        "time": 237.917,
        "duration": 0.417,
        "velocity": 1,
        "hand": "left"
      },
      {
        "midi": 67,
        "time": 237.917,
        "duration": 0.417,
        "velocity": 1,
        "hand": "right"
      },
      {
        "midi": 76,
        "time": 237.917,
        "duration": 0.417,
        "velocity": 1,
        "hand": "right"
      },
      {
        "midi": 49,
        "time": 238.333,
        "duration": 0.833,
        "velocity": 1,
        "hand": "left"
      },
      {
        "midi": 57,
        "time": 238.333,
        "duration": 0.417,
        "velocity": 1,
        "hand": "left"
      },
      {
        "midi": 67,
        "time": 238.542,
        "duration": 0.208,
        "velocity": 1,
        "hand": "right"
      },
      {
        "midi": 69,
        "time": 238.542,
        "duration": 0.208,
        "velocity": 1,
        "hand": "right"
      },
      {
        "midi": 64,
        "time": 238.75,
        "duration": 0.417,
        "velocity": 1,
        "hand": "right"
      },
      {
        "midi": 67,
        "time": 238.958,
        "duration": 0.208,
        "velocity": 1,
        "hand": "right"
      },
      {
        "midi": 69,
        "time": 238.958,
        "duration": 0.208,
        "velocity": 1,
        "hand": "right"
      },
      {
        "midi": 62,
        "time": 239.167,
        "duration": 0.833,
        "velocity": 1,
        "hand": "right"
      },
      {
        "midi": 65,
        "time": 239.167,
        "duration": 0.833,
        "velocity": 1,
        "hand": "right"
      },
      {
        "midi": 50,
        "time": 239.583,
        "duration": 0.417,
        "velocity": 1,
        "hand": "left"
      },
      {
        "midi": 69,
        "time": 239.583,
        "duration": 0.417,
        "velocity": 1,
        "hand": "right"
      },
      {
        "midi": 77,
        "time": 239.583,
        "duration": 0.417,
        "velocity": 1,
        "hand": "right"
      },
      {
        "midi": 49,
        "time": 240,
        "duration": 0.833,
        "velocity": 1,
        "hand": "left"
      },
      {
        "midi": 57,
        "time": 240,
        "duration": 0.833,
        "velocity": 1,
        "hand": "left"
      },
      {
        "midi": 64,
        "time": 240,
        "duration": 0.833,
        "velocity": 1,
        "hand": "right"
      },
      {
        "midi": 61,
        "time": 240.417,
        "duration": 0.417,
        "velocity": 1,
        "hand": "right"
      },
      {
        "midi": 69,
        "time": 240.417,
        "duration": 0.417,
        "velocity": 1,
        "hand": "right"
      },
      {
        "midi": 76,
        "time": 240.417,
        "duration": 0.417,
        "velocity": 1,
        "hand": "right"
      },
      {
        "midi": 50,
        "time": 240.833,
        "duration": 0.417,
        "velocity": 1,
        "hand": "left"
      },
      {
        "midi": 57,
        "time": 240.833,
        "duration": 0.833,
        "velocity": 1,
        "hand": "left"
      },
      {
        "midi": 65,
        "time": 240.833,
        "duration": 0.833,
        "velocity": 1,
        "hand": "right"
      },
      {
        "midi": 62,
        "time": 241.25,
        "duration": 0.417,
        "velocity": 1,
        "hand": "right"
      },
      {
        "midi": 69,
        "time": 241.25,
        "duration": 0.417,
        "velocity": 1,
        "hand": "right"
      },
      {
        "midi": 77,
        "time": 241.25,
        "duration": 0.417,
        "velocity": 1,
        "hand": "right"
      },
      {
        "midi": 52,
        "time": 241.667,
        "duration": 0.417,
        "velocity": 1,
        "hand": "left"
      },
      {
        "midi": 57,
        "time": 241.667,
        "duration": 0.833,
        "velocity": 1,
        "hand": "left"
      },
      {
        "midi": 67,
        "time": 241.667,
        "duration": 0.833,
        "velocity": 1,
        "hand": "right"
      },
      {
        "midi": 64,
        "time": 242.083,
        "duration": 0.417,
        "velocity": 1,
        "hand": "right"
      },
      {
        "midi": 73,
        "time": 242.083,
        "duration": 0.417,
        "velocity": 1,
        "hand": "right"
      },
      {
        "midi": 81,
        "time": 242.083,
        "duration": 0.417,
        "velocity": 1,
        "hand": "right"
      },
      {
        "midi": 50,
        "time": 242.5,
        "duration": 0.417,
        "velocity": 1,
        "hand": "left"
      },
      {
        "midi": 57,
        "time": 242.5,
        "duration": 0.833,
        "velocity": 1,
        "hand": "left"
      },
      {
        "midi": 65,
        "time": 242.5,
        "duration": 0.833,
        "velocity": 1,
        "hand": "right"
      },
      {
        "midi": 62,
        "time": 242.917,
        "duration": 0.417,
        "velocity": 1,
        "hand": "right"
      },
      {
        "midi": 69,
        "time": 242.917,
        "duration": 0.417,
        "velocity": 1,
        "hand": "right"
      },
      {
        "midi": 77,
        "time": 242.917,
        "duration": 0.417,
        "velocity": 1,
        "hand": "right"
      },
      {
        "midi": 49,
        "time": 243.333,
        "duration": 0.417,
        "velocity": 1,
        "hand": "left"
      },
      {
        "midi": 57,
        "time": 243.333,
        "duration": 0.833,
        "velocity": 1,
        "hand": "left"
      },
      {
        "midi": 64,
        "time": 243.333,
        "duration": 0.833,
        "velocity": 1,
        "hand": "right"
      },
      {
        "midi": 61,
        "time": 243.75,
        "duration": 0.417,
        "velocity": 1,
        "hand": "right"
      },
      {
        "midi": 69,
        "time": 243.75,
        "duration": 0.417,
        "velocity": 1,
        "hand": "right"
      },
      {
        "midi": 76,
        "time": 243.75,
        "duration": 0.417,
        "velocity": 1,
        "hand": "right"
      },
      {
        "midi": 50,
        "time": 244.167,
        "duration": 0.417,
        "velocity": 1,
        "hand": "left"
      },
      {
        "midi": 57,
        "time": 244.167,
        "duration": 0.833,
        "velocity": 1,
        "hand": "left"
      },
      {
        "midi": 65,
        "time": 244.167,
        "duration": 0.833,
        "velocity": 1,
        "hand": "right"
      },
      {
        "midi": 62,
        "time": 244.583,
        "duration": 0.417,
        "velocity": 1,
        "hand": "right"
      },
      {
        "midi": 69,
        "time": 244.583,
        "duration": 0.417,
        "velocity": 1,
        "hand": "right"
      },
      {
        "midi": 77,
        "time": 244.583,
        "duration": 0.417,
        "velocity": 1,
        "hand": "right"
      },
      {
        "midi": 51,
        "time": 245,
        "duration": 0.417,
        "velocity": 1,
        "hand": "left"
      },
      {
        "midi": 59,
        "time": 245,
        "duration": 0.833,
        "velocity": 1,
        "hand": "left"
      },
      {
        "midi": 69,
        "time": 245,
        "duration": 0.833,
        "velocity": 1,
        "hand": "right"
      },
      {
        "midi": 63,
        "time": 245.417,
        "duration": 0.417,
        "velocity": 1,
        "hand": "right"
      },
      {
        "midi": 78,
        "time": 245.417,
        "duration": 0.417,
        "velocity": 1,
        "hand": "right"
      },
      {
        "midi": 83,
        "time": 245.417,
        "duration": 0.417,
        "velocity": 1,
        "hand": "right"
      },
      {
        "midi": 52,
        "time": 245.833,
        "duration": 0.417,
        "velocity": 1,
        "hand": "left"
      },
      {
        "midi": 59,
        "time": 245.833,
        "duration": 0.833,
        "velocity": 1,
        "hand": "left"
      },
      {
        "midi": 67,
        "time": 245.833,
        "duration": 0.833,
        "velocity": 1,
        "hand": "right"
      },
      {
        "midi": 64,
        "time": 246.25,
        "duration": 0.417,
        "velocity": 1,
        "hand": "right"
      },
      {
        "midi": 71,
        "time": 246.25,
        "duration": 0.417,
        "velocity": 1,
        "hand": "right"
      },
      {
        "midi": 79,
        "time": 246.25,
        "duration": 0.417,
        "velocity": 1,
        "hand": "right"
      },
      {
        "midi": 51,
        "time": 246.667,
        "duration": 0.417,
        "velocity": 1,
        "hand": "left"
      },
      {
        "midi": 59,
        "time": 246.667,
        "duration": 0.833,
        "velocity": 1,
        "hand": "left"
      },
      {
        "midi": 66,
        "time": 246.667,
        "duration": 0.833,
        "velocity": 1,
        "hand": "right"
      },
      {
        "midi": 63,
        "time": 247.083,
        "duration": 0.417,
        "velocity": 1,
        "hand": "right"
      },
      {
        "midi": 71,
        "time": 247.083,
        "duration": 0.417,
        "velocity": 1,
        "hand": "right"
      },
      {
        "midi": 78,
        "time": 247.083,
        "duration": 0.417,
        "velocity": 1,
        "hand": "right"
      },
      {
        "midi": 52,
        "time": 247.5,
        "duration": 0.417,
        "velocity": 1,
        "hand": "left"
      },
      {
        "midi": 59,
        "time": 247.5,
        "duration": 0.833,
        "velocity": 1,
        "hand": "left"
      },
      {
        "midi": 67,
        "time": 247.5,
        "duration": 0.833,
        "velocity": 1,
        "hand": "right"
      },
      {
        "midi": 64,
        "time": 247.917,
        "duration": 0.417,
        "velocity": 1,
        "hand": "right"
      },
      {
        "midi": 71,
        "time": 247.917,
        "duration": 0.417,
        "velocity": 1,
        "hand": "right"
      },
      {
        "midi": 79,
        "time": 247.917,
        "duration": 0.417,
        "velocity": 1,
        "hand": "right"
      },
      {
        "midi": 53,
        "time": 248.333,
        "duration": 0.417,
        "velocity": 1,
        "hand": "left"
      },
      {
        "midi": 61,
        "time": 248.333,
        "duration": 0.833,
        "velocity": 1,
        "hand": "right"
      },
      {
        "midi": 71,
        "time": 248.333,
        "duration": 0.833,
        "velocity": 1,
        "hand": "right"
      },
      {
        "midi": 65,
        "time": 248.75,
        "duration": 0.417,
        "velocity": 1,
        "hand": "right"
      },
      {
        "midi": 80,
        "time": 248.75,
        "duration": 0.417,
        "velocity": 1,
        "hand": "right"
      },
      {
        "midi": 85,
        "time": 248.75,
        "duration": 0.417,
        "velocity": 1,
        "hand": "right"
      },
      {
        "midi": 54,
        "time": 249.167,
        "duration": 0.417,
        "velocity": 1,
        "hand": "left"
      },
      {
        "midi": 61,
        "time": 249.167,
        "duration": 0.833,
        "velocity": 1,
        "hand": "right"
      },
      {
        "midi": 69,
        "time": 249.167,
        "duration": 0.833,
        "velocity": 1,
        "hand": "right"
      },
      {
        "midi": 66,
        "time": 249.583,
        "duration": 0.417,
        "velocity": 1,
        "hand": "right"
      },
      {
        "midi": 73,
        "time": 249.583,
        "duration": 0.417,
        "velocity": 1,
        "hand": "right"
      },
      {
        "midi": 81,
        "time": 249.583,
        "duration": 0.417,
        "velocity": 1,
        "hand": "right"
      },
      {
        "midi": 54,
        "time": 250,
        "duration": 0.417,
        "velocity": 1,
        "hand": "left"
      },
      {
        "midi": 62,
        "time": 250,
        "duration": 0.833,
        "velocity": 1,
        "hand": "right"
      },
      {
        "midi": 72,
        "time": 250,
        "duration": 0.833,
        "velocity": 1,
        "hand": "right"
      },
      {
        "midi": 66,
        "time": 250.417,
        "duration": 0.417,
        "velocity": 1,
        "hand": "right"
      },
      {
        "midi": 81,
        "time": 250.417,
        "duration": 0.417,
        "velocity": 1,
        "hand": "right"
      },
      {
        "midi": 86,
        "time": 250.417,
        "duration": 0.417,
        "velocity": 1,
        "hand": "right"
      },
      {
        "midi": 55,
        "time": 250.833,
        "duration": 0.417,
        "velocity": 1,
        "hand": "left"
      },
      {
        "midi": 62,
        "time": 250.833,
        "duration": 0.833,
        "velocity": 1,
        "hand": "right"
      },
      {
        "midi": 71,
        "time": 250.833,
        "duration": 0.833,
        "velocity": 1,
        "hand": "right"
      },
      {
        "midi": 67,
        "time": 251.25,
        "duration": 0.417,
        "velocity": 1,
        "hand": "right"
      },
      {
        "midi": 74,
        "time": 251.25,
        "duration": 0.417,
        "velocity": 1,
        "hand": "right"
      },
      {
        "midi": 83,
        "time": 251.25,
        "duration": 0.417,
        "velocity": 1,
        "hand": "right"
      },
      {
        "midi": 54,
        "time": 251.667,
        "duration": 0.417,
        "velocity": 1,
        "hand": "left"
      },
      {
        "midi": 62,
        "time": 251.667,
        "duration": 0.833,
        "velocity": 1,
        "hand": "right"
      },
      {
        "midi": 72,
        "time": 251.667,
        "duration": 0.833,
        "velocity": 1,
        "hand": "right"
      },
      {
        "midi": 66,
        "time": 252.083,
        "duration": 0.417,
        "velocity": 1,
        "hand": "right"
      },
      {
        "midi": 81,
        "time": 252.083,
        "duration": 0.417,
        "velocity": 1,
        "hand": "right"
      },
      {
        "midi": 86,
        "time": 252.083,
        "duration": 0.417,
        "velocity": 1,
        "hand": "right"
      },
      {
        "midi": 55,
        "time": 252.5,
        "duration": 0.417,
        "velocity": 1,
        "hand": "left"
      },
      {
        "midi": 62,
        "time": 252.5,
        "duration": 0.833,
        "velocity": 1,
        "hand": "right"
      },
      {
        "midi": 71,
        "time": 252.5,
        "duration": 0.833,
        "velocity": 1,
        "hand": "right"
      },
      {
        "midi": 67,
        "time": 252.917,
        "duration": 0.417,
        "velocity": 1,
        "hand": "right"
      },
      {
        "midi": 74,
        "time": 252.917,
        "duration": 0.417,
        "velocity": 1,
        "hand": "right"
      },
      {
        "midi": 83,
        "time": 252.917,
        "duration": 0.417,
        "velocity": 1,
        "hand": "right"
      },
      {
        "midi": 67,
        "time": 253.333,
        "duration": 0.417,
        "velocity": 1,
        "hand": "right"
      },
      {
        "midi": 74,
        "time": 253.333,
        "duration": 0.417,
        "velocity": 1,
        "hand": "right"
      },
      {
        "midi": 88,
        "time": 253.333,
        "duration": 0.208,
        "velocity": 1,
        "hand": "right"
      },
      {
        "midi": 86,
        "time": 253.542,
        "duration": 0.208,
        "velocity": 1,
        "hand": "right"
      },
      {
        "midi": 82,
        "time": 253.75,
        "duration": 0.208,
        "velocity": 1,
        "hand": "right"
      },
      {
        "midi": 81,
        "time": 253.958,
        "duration": 0.208,
        "velocity": 1,
        "hand": "right"
      },
      {
        "midi": 76,
        "time": 254.167,
        "duration": 0.208,
        "velocity": 1,
        "hand": "right"
      },
      {
        "midi": 79,
        "time": 254.167,
        "duration": 0.417,
        "velocity": 1,
        "hand": "right"
      },
      {
        "midi": 74,
        "time": 254.375,
        "duration": 0.208,
        "velocity": 1,
        "hand": "right"
      },
      {
        "midi": 70,
        "time": 254.583,
        "duration": 0.208,
        "velocity": 1,
        "hand": "right"
      },
      {
        "midi": 69,
        "time": 254.792,
        "duration": 0.208,
        "velocity": 1,
        "hand": "right"
      },
      {
        "midi": 67,
        "time": 255,
        "duration": 0.417,
        "velocity": 1,
        "hand": "right"
      },
      {
        "midi": 76,
        "time": 255,
        "duration": 0.208,
        "velocity": 1,
        "hand": "right"
      },
      {
        "midi": 74,
        "time": 255.208,
        "duration": 0.208,
        "velocity": 1,
        "hand": "right"
      },
      {
        "midi": 70,
        "time": 255.417,
        "duration": 0.208,
        "velocity": 1,
        "hand": "right"
      },
      {
        "midi": 69,
        "time": 255.625,
        "duration": 0.208,
        "velocity": 1,
        "hand": "right"
      },
      {
        "midi": 64,
        "time": 255.833,
        "duration": 0.208,
        "velocity": 1,
        "hand": "right"
      },
      {
        "midi": 67,
        "time": 255.833,
        "duration": 0.417,
        "velocity": 1,
        "hand": "right"
      },
      {
        "midi": 62,
        "time": 256.042,
        "duration": 0.208,
        "velocity": 1,
        "hand": "right"
      },
      {
        "midi": 58,
        "time": 256.25,
        "duration": 0.208,
        "velocity": 1,
        "hand": "left"
      },
      {
        "midi": 57,
        "time": 256.458,
        "duration": 0.208,
        "velocity": 1,
        "hand": "left"
      },
      {
        "midi": 55,
        "time": 256.667,
        "duration": 0.417,
        "velocity": 1,
        "hand": "left"
      },
      {
        "midi": 64,
        "time": 256.667,
        "duration": 0.208,
        "velocity": 1,
        "hand": "right"
      },
      {
        "midi": 62,
        "time": 256.875,
        "duration": 0.208,
        "velocity": 1,
        "hand": "right"
      },
      {
        "midi": 58,
        "time": 257.083,
        "duration": 0.208,
        "velocity": 1,
        "hand": "left"
      },
      {
        "midi": 57,
        "time": 257.292,
        "duration": 0.208,
        "velocity": 1,
        "hand": "left"
      },
      {
        "midi": 52,
        "time": 257.5,
        "duration": 0.208,
        "velocity": 1,
        "hand": "left"
      },
      {
        "midi": 55,
        "time": 257.5,
        "duration": 0.417,
        "velocity": 1,
        "hand": "left"
      },
      {
        "midi": 50,
        "time": 257.708,
        "duration": 0.208,
        "velocity": 1,
        "hand": "left"
      },
      {
        "midi": 46,
        "time": 257.917,
        "duration": 0.208,
        "velocity": 1,
        "hand": "left"
      },
      {
        "midi": 45,
        "time": 258.125,
        "duration": 0.208,
        "velocity": 1,
        "hand": "left"
      },
      {
        "midi": 43,
        "time": 258.333,
        "duration": 0.417,
        "velocity": 1,
        "hand": "left"
      },
      {
        "midi": 52,
        "time": 258.333,
        "duration": 0.208,
        "velocity": 1,
        "hand": "left"
      },
      {
        "midi": 50,
        "time": 258.542,
        "duration": 0.208,
        "velocity": 1,
        "hand": "left"
      },
      {
        "midi": 46,
        "time": 258.75,
        "duration": 0.208,
        "velocity": 1,
        "hand": "left"
      },
      {
        "midi": 45,
        "time": 258.958,
        "duration": 0.208,
        "velocity": 1,
        "hand": "left"
      },
      {
        "midi": 40,
        "time": 259.167,
        "duration": 0.208,
        "velocity": 1,
        "hand": "left"
      },
      {
        "midi": 43,
        "time": 259.167,
        "duration": 0.417,
        "velocity": 1,
        "hand": "left"
      },
      {
        "midi": 38,
        "time": 259.375,
        "duration": 0.208,
        "velocity": 1,
        "hand": "left"
      },
      {
        "midi": 34,
        "time": 259.583,
        "duration": 0.208,
        "velocity": 1,
        "hand": "left"
      },
      {
        "midi": 33,
        "time": 259.792,
        "duration": 0.208,
        "velocity": 1,
        "hand": "left"
      },
      {
        "midi": 31,
        "time": 260,
        "duration": 0.417,
        "velocity": 1,
        "hand": "left"
      },
      {
        "midi": 31,
        "time": 260.417,
        "duration": 0.417,
        "velocity": 1,
        "hand": "left"
      },
      {
        "midi": 31,
        "time": 260.833,
        "duration": 0.208,
        "velocity": 1,
        "hand": "left"
      },
      {
        "midi": 33,
        "time": 261.042,
        "duration": 0.208,
        "velocity": 1,
        "hand": "left"
      },
      {
        "midi": 34,
        "time": 261.25,
        "duration": 0.208,
        "velocity": 1,
        "hand": "left"
      },
      {
        "midi": 31,
        "time": 261.458,
        "duration": 0.208,
        "velocity": 1,
        "hand": "left"
      },
      {
        "midi": 33,
        "time": 261.667,
        "duration": 0.417,
        "velocity": 1,
        "hand": "left"
      },
      {
        "midi": 33,
        "time": 262.083,
        "duration": 0.417,
        "velocity": 1,
        "hand": "left"
      },
      {
        "midi": 34,
        "time": 262.5,
        "duration": 0.417,
        "velocity": 1,
        "hand": "left"
      },
      {
        "midi": 31,
        "time": 262.917,
        "duration": 0.417,
        "velocity": 1,
        "hand": "left"
      },
      {
        "midi": 50,
        "time": 263.333,
        "duration": 3.333,
        "velocity": 1,
        "hand": "left"
      },
      {
        "midi": 62,
        "time": 263.333,
        "duration": 3.333,
        "velocity": 1,
        "hand": "right"
      },
      {
        "midi": 64,
        "time": 263.333,
        "duration": 3.333,
        "velocity": 1,
        "hand": "right"
      },
      {
        "midi": 31,
        "time": 264.167,
        "duration": 0.833,
        "velocity": 1,
        "hand": "left"
      },
      {
        "midi": 43,
        "time": 264.167,
        "duration": 0.833,
        "velocity": 1,
        "hand": "left"
      },
      {
        "midi": 33,
        "time": 265,
        "duration": 0.833,
        "velocity": 1,
        "hand": "left"
      },
      {
        "midi": 45,
        "time": 265,
        "duration": 0.833,
        "velocity": 1,
        "hand": "left"
      },
      {
        "midi": 34,
        "time": 265.833,
        "duration": 0.833,
        "velocity": 1,
        "hand": "left"
      },
      {
        "midi": 46,
        "time": 265.833,
        "duration": 0.833,
        "velocity": 1,
        "hand": "left"
      },
      {
        "midi": 43,
        "time": 266.667,
        "duration": 0.417,
        "velocity": 1,
        "hand": "left"
      },
      {
        "midi": 43,
        "time": 267.083,
        "duration": 0.417,
        "velocity": 1,
        "hand": "left"
      },
      {
        "midi": 43,
        "time": 267.5,
        "duration": 0.208,
        "velocity": 1,
        "hand": "left"
      },
      {
        "midi": 45,
        "time": 267.708,
        "duration": 0.208,
        "velocity": 1,
        "hand": "left"
      },
      {
        "midi": 46,
        "time": 267.917,
        "duration": 0.208,
        "velocity": 1,
        "hand": "left"
      },
      {
        "midi": 45,
        "time": 268.125,
        "duration": 0.208,
        "velocity": 1,
        "hand": "left"
      },
      {
        "midi": 45,
        "time": 268.333,
        "duration": 0.417,
        "velocity": 1,
        "hand": "left"
      },
      {
        "midi": 45,
        "time": 268.75,
        "duration": 0.417,
        "velocity": 1,
        "hand": "left"
      },
      {
        "midi": 46,
        "time": 269.167,
        "duration": 0.417,
        "velocity": 1,
        "hand": "left"
      },
      {
        "midi": 43,
        "time": 269.583,
        "duration": 0.417,
        "velocity": 1,
        "hand": "left"
      },
      {
        "midi": 62,
        "time": 270,
        "duration": 3.333,
        "velocity": 1,
        "hand": "right"
      },
      {
        "midi": 74,
        "time": 270,
        "duration": 3.333,
        "velocity": 1,
        "hand": "right"
      },
      {
        "midi": 76,
        "time": 270,
        "duration": 3.333,
        "velocity": 1,
        "hand": "right"
      },
      {
        "midi": 43,
        "time": 270.833,
        "duration": 0.833,
        "velocity": 1,
        "hand": "left"
      },
      {
        "midi": 55,
        "time": 270.833,
        "duration": 0.833,
        "velocity": 1,
        "hand": "left"
      },
      {
        "midi": 45,
        "time": 271.667,
        "duration": 0.833,
        "velocity": 1,
        "hand": "left"
      },
      {
        "midi": 57,
        "time": 271.667,
        "duration": 0.833,
        "velocity": 1,
        "hand": "left"
      },
      {
        "midi": 46,
        "time": 272.5,
        "duration": 0.833,
        "velocity": 1,
        "hand": "left"
      },
      {
        "midi": 58,
        "time": 272.5,
        "duration": 0.833,
        "velocity": 1,
        "hand": "left"
      },
      {
        "midi": 74,
        "time": 273.333,
        "duration": 3.333,
        "velocity": 1,
        "hand": "right"
      },
      {
        "midi": 86,
        "time": 273.333,
        "duration": 3.333,
        "velocity": 1,
        "hand": "right"
      },
      {
        "midi": 88,
        "time": 273.333,
        "duration": 3.333,
        "velocity": 1,
        "hand": "right"
      },
      {
        "midi": 55,
        "time": 274.167,
        "duration": 0.833,
        "velocity": 1,
        "hand": "left"
      },
      {
        "midi": 67,
        "time": 274.167,
        "duration": 0.833,
        "velocity": 1,
        "hand": "right"
      },
      {
        "midi": 57,
        "time": 275,
        "duration": 0.833,
        "velocity": 1,
        "hand": "left"
      },
      {
        "midi": 69,
        "time": 275,
        "duration": 0.833,
        "velocity": 1,
        "hand": "right"
      },
      {
        "midi": 58,
        "time": 275.833,
        "duration": 0.833,
        "velocity": 1,
        "hand": "left"
      },
      {
        "midi": 70,
        "time": 275.833,
        "duration": 0.833,
        "velocity": 1,
        "hand": "right"
      },
      {
        "midi": 43,
        "time": 278.333,
        "duration": 0.417,
        "velocity": 1,
        "hand": "left"
      },
      {
        "midi": 79,
        "time": 278.333,
        "duration": 0.417,
        "velocity": 1,
        "hand": "right"
      },
      {
        "midi": 43,
        "time": 278.75,
        "duration": 0.417,
        "velocity": 1,
        "hand": "left"
      },
      {
        "midi": 79,
        "time": 278.75,
        "duration": 0.417,
        "velocity": 1,
        "hand": "right"
      },
      {
        "midi": 43,
        "time": 279.167,
        "duration": 0.208,
        "velocity": 1,
        "hand": "left"
      },
      {
        "midi": 79,
        "time": 279.167,
        "duration": 0.208,
        "velocity": 1,
        "hand": "right"
      },
      {
        "midi": 45,
        "time": 279.375,
        "duration": 0.208,
        "velocity": 1,
        "hand": "left"
      },
      {
        "midi": 81,
        "time": 279.375,
        "duration": 0.208,
        "velocity": 1,
        "hand": "right"
      },
      {
        "midi": 46,
        "time": 279.583,
        "duration": 0.208,
        "velocity": 1,
        "hand": "left"
      },
      {
        "midi": 82,
        "time": 279.583,
        "duration": 0.208,
        "velocity": 1,
        "hand": "right"
      },
      {
        "midi": 43,
        "time": 279.792,
        "duration": 0.208,
        "velocity": 1,
        "hand": "left"
      },
      {
        "midi": 79,
        "time": 279.792,
        "duration": 0.208,
        "velocity": 1,
        "hand": "right"
      },
      {
        "midi": 44,
        "time": 280,
        "duration": 0.417,
        "velocity": 1,
        "hand": "left"
      },
      {
        "midi": 80,
        "time": 280,
        "duration": 0.417,
        "velocity": 1,
        "hand": "right"
      },
      {
        "midi": 45,
        "time": 280.417,
        "duration": 0.417,
        "velocity": 1,
        "hand": "left"
      },
      {
        "midi": 81,
        "time": 280.417,
        "duration": 0.417,
        "velocity": 1,
        "hand": "right"
      },
      {
        "midi": 38,
        "time": 280.833,
        "duration": 0.417,
        "velocity": 1,
        "hand": "left"
      },
      {
        "midi": 74,
        "time": 280.833,
        "duration": 0.417,
        "velocity": 1,
        "hand": "right"
      },
      {
        "midi": 86,
        "time": 280.833,
        "duration": 0.417,
        "velocity": 1,
        "hand": "right"
      }
    ],
    "hard": [
      {
        "midi": 50,
        "time": 0,
        "duration": 0.833,
        "velocity": 1,
        "hand": "left"
      },
      {
        "midi": 54,
        "time": 0,
        "duration": 0.833,
        "velocity": 1,
        "hand": "left"
      },
      {
        "midi": 57,
        "time": 0,
        "duration": 0.417,
        "velocity": 1,
        "hand": "left"
      },
      {
        "midi": 74,
        "time": 0,
        "duration": 0.417,
        "velocity": 1,
        "hand": "right"
      },
      {
        "midi": 78,
        "time": 0,
        "duration": 0.417,
        "velocity": 1,
        "hand": "right"
      },
      {
        "midi": 81,
        "time": 0,
        "duration": 0.833,
        "velocity": 1,
        "hand": "right"
      },
      {
        "midi": 62,
        "time": 0.417,
        "duration": 0.417,
        "velocity": 1,
        "hand": "right"
      },
      {
        "midi": 69,
        "time": 0.417,
        "duration": 0.417,
        "velocity": 1,
        "hand": "right"
      },
      {
        "midi": 50,
        "time": 0.833,
        "duration": 0.833,
        "velocity": 1,
        "hand": "left"
      },
      {
        "midi": 55,
        "time": 0.833,
        "duration": 0.833,
        "velocity": 1,
        "hand": "left"
      },
      {
        "midi": 58,
        "time": 0.833,
        "duration": 0.417,
        "velocity": 1,
        "hand": "left"
      },
      {
        "midi": 70,
        "time": 0.833,
        "duration": 0.417,
        "velocity": 1,
        "hand": "right"
      },
      {
        "midi": 74,
        "time": 0.833,
        "duration": 0.417,
        "velocity": 1,
        "hand": "right"
      },
      {
        "midi": 76,
        "time": 0.833,
        "duration": 0.833,
        "velocity": 1,
        "hand": "right"
      },
      {
        "midi": 62,
        "time": 1.25,
        "duration": 0.417,
        "velocity": 1,
        "hand": "right"
      },
      {
        "midi": 64,
        "time": 1.25,
        "duration": 0.417,
        "velocity": 1,
        "hand": "right"
      },
      {
        "midi": 50,
        "time": 1.667,
        "duration": 0.833,
        "velocity": 1,
        "hand": "left"
      },
      {
        "midi": 54,
        "time": 1.667,
        "duration": 0.833,
        "velocity": 1,
        "hand": "left"
      },
      {
        "midi": 57,
        "time": 1.667,
        "duration": 0.417,
        "velocity": 1,
        "hand": "left"
      },
      {
        "midi": 74,
        "time": 1.667,
        "duration": 0.417,
        "velocity": 1,
        "hand": "right"
      },
      {
        "midi": 78,
        "time": 1.667,
        "duration": 0.417,
        "velocity": 1,
        "hand": "right"
      },
      {
        "midi": 81,
        "time": 1.667,
        "duration": 0.833,
        "velocity": 1,
        "hand": "right"
      },
      {
        "midi": 62,
        "time": 2.083,
        "duration": 0.417,
        "velocity": 1,
        "hand": "right"
      },
      {
        "midi": 69,
        "time": 2.083,
        "duration": 0.417,
        "velocity": 1,
        "hand": "right"
      },
      {
        "midi": 50,
        "time": 2.5,
        "duration": 0.833,
        "velocity": 1,
        "hand": "left"
      },
      {
        "midi": 55,
        "time": 2.5,
        "duration": 0.833,
        "velocity": 1,
        "hand": "left"
      },
      {
        "midi": 58,
        "time": 2.5,
        "duration": 0.417,
        "velocity": 1,
        "hand": "left"
      },
      {
        "midi": 70,
        "time": 2.5,
        "duration": 0.417,
        "velocity": 1,
        "hand": "right"
      },
      {
        "midi": 74,
        "time": 2.5,
        "duration": 0.417,
        "velocity": 1,
        "hand": "right"
      },
      {
        "midi": 76,
        "time": 2.5,
        "duration": 0.833,
        "velocity": 1,
        "hand": "right"
      },
      {
        "midi": 62,
        "time": 2.917,
        "duration": 0.417,
        "velocity": 1,
        "hand": "right"
      },
      {
        "midi": 64,
        "time": 2.917,
        "duration": 0.417,
        "velocity": 1,
        "hand": "right"
      },
      {
        "midi": 60,
        "time": 3.333,
        "duration": 1.667,
        "velocity": 1,
        "hand": "right"
      },
      {
        "midi": 62,
        "time": 3.333,
        "duration": 1.667,
        "velocity": 1,
        "hand": "right"
      },
      {
        "midi": 66,
        "time": 3.333,
        "duration": 1.667,
        "velocity": 1,
        "hand": "right"
      },
      {
        "midi": 69,
        "time": 3.333,
        "duration": 1.667,
        "velocity": 1,
        "hand": "right"
      },
      {
        "midi": 74,
        "time": 3.333,
        "duration": 0.208,
        "velocity": 1,
        "hand": "right"
      },
      {
        "midi": 76,
        "time": 3.542,
        "duration": 0.208,
        "velocity": 1,
        "hand": "right"
      },
      {
        "midi": 74,
        "time": 3.75,
        "duration": 0.208,
        "velocity": 1,
        "hand": "right"
      },
      {
        "midi": 76,
        "time": 3.958,
        "duration": 0.208,
        "velocity": 1,
        "hand": "right"
      },
      {
        "midi": 78,
        "time": 4.167,
        "duration": 0.417,
        "velocity": 1,
        "hand": "right"
      },
      {
        "midi": 78,
        "time": 4.583,
        "duration": 0.417,
        "velocity": 1,
        "hand": "right"
      },
      {
        "midi": 58,
        "time": 5,
        "duration": 0.208,
        "velocity": 1,
        "hand": "left"
      },
      {
        "midi": 67,
        "time": 5,
        "duration": 0.833,
        "velocity": 1,
        "hand": "right"
      },
      {
        "midi": 74,
        "time": 5,
        "duration": 0.833,
        "velocity": 1,
        "hand": "right"
      },
      {
        "midi": 76,
        "time": 5,
        "duration": 0.417,
        "velocity": 1,
        "hand": "right"
      },
      {
        "midi": 57,
        "time": 5.208,
        "duration": 0.208,
        "velocity": 1,
        "hand": "left"
      },
      {
        "midi": 55,
        "time": 5.417,
        "duration": 0.208,
        "velocity": 1,
        "hand": "left"
      },
      {
        "midi": 79,
        "time": 5.417,
        "duration": 0.417,
        "velocity": 1,
        "hand": "right"
      },
      {
        "midi": 54,
        "time": 5.625,
        "duration": 0.208,
        "velocity": 1,
        "hand": "left"
      },
      {
        "midi": 52,
        "time": 5.833,
        "duration": 0.417,
        "velocity": 1,
        "hand": "left"
      },
      {
        "midi": 73,
        "time": 5.833,
        "duration": 0.417,
        "velocity": 1,
        "hand": "right"
      },
      {
        "midi": 76,
        "time": 5.833,
        "duration": 0.833,
        "velocity": 1,
        "hand": "right"
      },
      {
        "midi": 57,
        "time": 6.25,
        "duration": 0.417,
        "velocity": 1,
        "hand": "left"
      },
      {
        "midi": 69,
        "time": 6.25,
        "duration": 0.417,
        "velocity": 1,
        "hand": "right"
      },
      {
        "midi": 50,
        "time": 6.667,
        "duration": 0.833,
        "velocity": 1,
        "hand": "left"
      },
      {
        "midi": 54,
        "time": 6.667,
        "duration": 0.833,
        "velocity": 1,
        "hand": "left"
      },
      {
        "midi": 57,
        "time": 6.667,
        "duration": 0.417,
        "velocity": 1,
        "hand": "left"
      },
      {
        "midi": 74,
        "time": 6.667,
        "duration": 0.417,
        "velocity": 1,
        "hand": "right"
      },
      {
        "midi": 78,
        "time": 6.667,
        "duration": 0.417,
        "velocity": 1,
        "hand": "right"
      },
      {
        "midi": 81,
        "time": 6.667,
        "duration": 0.833,
        "velocity": 1,
        "hand": "right"
      },
      {
        "midi": 62,
        "time": 7.083,
        "duration": 0.417,
        "velocity": 1,
        "hand": "right"
      },
      {
        "midi": 69,
        "time": 7.083,
        "duration": 0.417,
        "velocity": 1,
        "hand": "right"
      },
      {
        "midi": 50,
        "time": 7.5,
        "duration": 0.833,
        "velocity": 1,
        "hand": "left"
      },
      {
        "midi": 55,
        "time": 7.5,
        "duration": 0.833,
        "velocity": 1,
        "hand": "left"
      },
      {
        "midi": 58,
        "time": 7.5,
        "duration": 0.417,
        "velocity": 1,
        "hand": "left"
      },
      {
        "midi": 70,
        "time": 7.5,
        "duration": 0.417,
        "velocity": 1,
        "hand": "right"
      },
      {
        "midi": 74,
        "time": 7.5,
        "duration": 0.417,
        "velocity": 1,
        "hand": "right"
      },
      {
        "midi": 76,
        "time": 7.5,
        "duration": 0.833,
        "velocity": 1,
        "hand": "right"
      },
      {
        "midi": 62,
        "time": 7.917,
        "duration": 0.417,
        "velocity": 1,
        "hand": "right"
      },
      {
        "midi": 64,
        "time": 7.917,
        "duration": 0.417,
        "velocity": 1,
        "hand": "right"
      },
      {
        "midi": 50,
        "time": 8.333,
        "duration": 0.833,
        "velocity": 1,
        "hand": "left"
      },
      {
        "midi": 54,
        "time": 8.333,
        "duration": 0.833,
        "velocity": 1,
        "hand": "left"
      },
      {
        "midi": 57,
        "time": 8.333,
        "duration": 0.417,
        "velocity": 1,
        "hand": "left"
      },
      {
        "midi": 74,
        "time": 8.333,
        "duration": 0.417,
        "velocity": 1,
        "hand": "right"
      },
      {
        "midi": 78,
        "time": 8.333,
        "duration": 0.417,
        "velocity": 1,
        "hand": "right"
      },
      {
        "midi": 81,
        "time": 8.333,
        "duration": 0.833,
        "velocity": 1,
        "hand": "right"
      },
      {
        "midi": 62,
        "time": 8.75,
        "duration": 0.417,
        "velocity": 1,
        "hand": "right"
      },
      {
        "midi": 69,
        "time": 8.75,
        "duration": 0.417,
        "velocity": 1,
        "hand": "right"
      },
      {
        "midi": 50,
        "time": 9.167,
        "duration": 0.833,
        "velocity": 1,
        "hand": "left"
      },
      {
        "midi": 55,
        "time": 9.167,
        "duration": 0.833,
        "velocity": 1,
        "hand": "left"
      },
      {
        "midi": 58,
        "time": 9.167,
        "duration": 0.417,
        "velocity": 1,
        "hand": "left"
      },
      {
        "midi": 70,
        "time": 9.167,
        "duration": 0.417,
        "velocity": 1,
        "hand": "right"
      },
      {
        "midi": 74,
        "time": 9.167,
        "duration": 0.417,
        "velocity": 1,
        "hand": "right"
      },
      {
        "midi": 76,
        "time": 9.167,
        "duration": 0.833,
        "velocity": 1,
        "hand": "right"
      },
      {
        "midi": 62,
        "time": 9.583,
        "duration": 0.417,
        "velocity": 1,
        "hand": "right"
      },
      {
        "midi": 64,
        "time": 9.583,
        "duration": 0.417,
        "velocity": 1,
        "hand": "right"
      },
      {
        "midi": 60,
        "time": 10,
        "duration": 1.667,
        "velocity": 1,
        "hand": "right"
      },
      {
        "midi": 62,
        "time": 10,
        "duration": 1.667,
        "velocity": 1,
        "hand": "right"
      },
      {
        "midi": 66,
        "time": 10,
        "duration": 1.667,
        "velocity": 1,
        "hand": "right"
      },
      {
        "midi": 69,
        "time": 10,
        "duration": 1.667,
        "velocity": 1,
        "hand": "right"
      },
      {
        "midi": 74,
        "time": 10,
        "duration": 0.208,
        "velocity": 1,
        "hand": "right"
      },
      {
        "midi": 76,
        "time": 10.208,
        "duration": 0.208,
        "velocity": 1,
        "hand": "right"
      },
      {
        "midi": 74,
        "time": 10.417,
        "duration": 0.208,
        "velocity": 1,
        "hand": "right"
      },
      {
        "midi": 76,
        "time": 10.625,
        "duration": 0.208,
        "velocity": 1,
        "hand": "right"
      },
      {
        "midi": 78,
        "time": 10.833,
        "duration": 0.417,
        "velocity": 1,
        "hand": "right"
      },
      {
        "midi": 78,
        "time": 11.25,
        "duration": 0.417,
        "velocity": 1,
        "hand": "right"
      },
      {
        "midi": 58,
        "time": 11.667,
        "duration": 0.208,
        "velocity": 1,
        "hand": "left"
      },
      {
        "midi": 62,
        "time": 11.667,
        "duration": 0.208,
        "velocity": 1,
        "hand": "right"
      },
      {
        "midi": 74,
        "time": 11.667,
        "duration": 0.208,
        "velocity": 1,
        "hand": "right"
      },
      {
        "midi": 76,
        "time": 11.667,
        "duration": 0.208,
        "velocity": 1,
        "hand": "right"
      },
      {
        "midi": 78,
        "time": 11.875,
        "duration": 0.208,
        "velocity": 1,
        "hand": "right"
      },
      {
        "midi": 58,
        "time": 12.083,
        "duration": 0.208,
        "velocity": 1,
        "hand": "left"
      },
      {
        "midi": 79,
        "time": 12.083,
        "duration": 0.208,
        "velocity": 1,
        "hand": "right"
      },
      {
        "midi": 57,
        "time": 12.292,
        "duration": 0.208,
        "velocity": 1,
        "hand": "left"
      },
      {
        "midi": 81,
        "time": 12.292,
        "duration": 0.208,
        "velocity": 1,
        "hand": "right"
      },
      {
        "midi": 55,
        "time": 12.5,
        "duration": 0.417,
        "velocity": 1,
        "hand": "left"
      },
      {
        "midi": 82,
        "time": 12.5,
        "duration": 0.417,
        "velocity": 1,
        "hand": "right"
      },
      {
        "midi": 43,
        "time": 13.333,
        "duration": 0.833,
        "velocity": 1,
        "hand": "left"
      },
      {
        "midi": 51,
        "time": 13.333,
        "duration": 0.833,
        "velocity": 1,
        "hand": "left"
      },
      {
        "midi": 61,
        "time": 13.542,
        "duration": 0.208,
        "velocity": 1,
        "hand": "right"
      },
      {
        "midi": 63,
        "time": 13.542,
        "duration": 0.208,
        "velocity": 1,
        "hand": "right"
      },
      {
        "midi": 58,
        "time": 13.75,
        "duration": 0.417,
        "velocity": 1,
        "hand": "left"
      },
      {
        "midi": 61,
        "time": 13.958,
        "duration": 0.208,
        "velocity": 1,
        "hand": "right"
      },
      {
        "midi": 63,
        "time": 13.958,
        "duration": 0.208,
        "velocity": 1,
        "hand": "right"
      },
      {
        "midi": 56,
        "time": 14.167,
        "duration": 0.833,
        "velocity": 1,
        "hand": "left"
      },
      {
        "midi": 60,
        "time": 14.167,
        "duration": 0.417,
        "velocity": 1,
        "hand": "right"
      },
      {
        "midi": 51,
        "time": 14.583,
        "duration": 0.417,
        "velocity": 1,
        "hand": "left"
      },
      {
        "midi": 63,
        "time": 14.583,
        "duration": 0.417,
        "velocity": 1,
        "hand": "right"
      },
      {
        "midi": 72,
        "time": 14.583,
        "duration": 0.417,
        "velocity": 1,
        "hand": "right"
      },
      {
        "midi": 45,
        "time": 15,
        "duration": 0.833,
        "velocity": 1,
        "hand": "left"
      },
      {
        "midi": 53,
        "time": 15,
        "duration": 0.833,
        "velocity": 1,
        "hand": "left"
      },
      {
        "midi": 63,
        "time": 15.208,
        "duration": 0.208,
        "velocity": 1,
        "hand": "right"
      },
      {
        "midi": 65,
        "time": 15.208,
        "duration": 0.208,
        "velocity": 1,
        "hand": "right"
      },
      {
        "midi": 60,
        "time": 15.417,
        "duration": 0.417,
        "velocity": 1,
        "hand": "right"
      },
      {
        "midi": 63,
        "time": 15.625,
        "duration": 0.208,
        "velocity": 1,
        "hand": "right"
      },
      {
        "midi": 65,
        "time": 15.625,
        "duration": 0.208,
        "velocity": 1,
        "hand": "right"
      },
      {
        "midi": 58,
        "time": 15.833,
        "duration": 0.833,
        "velocity": 1,
        "hand": "left"
      },
      {
        "midi": 62,
        "time": 15.833,
        "duration": 0.833,
        "velocity": 1,
        "hand": "right"
      },
      {
        "midi": 46,
        "time": 16.25,
        "duration": 0.417,
        "velocity": 1,
        "hand": "left"
      },
      {
        "midi": 53,
        "time": 16.25,
        "duration": 0.417,
        "velocity": 1,
        "hand": "left"
      },
      {
        "midi": 65,
        "time": 16.25,
        "duration": 0.417,
        "velocity": 1,
        "hand": "right"
      },
      {
        "midi": 74,
        "time": 16.25,
        "duration": 0.417,
        "velocity": 1,
        "hand": "right"
      },
      {
        "midi": 47,
        "time": 16.667,
        "duration": 0.417,
        "velocity": 1,
        "hand": "left"
      },
      {
        "midi": 55,
        "time": 16.667,
        "duration": 0.833,
        "velocity": 1,
        "hand": "left"
      },
      {
        "midi": 62,
        "time": 16.667,
        "duration": 0.833,
        "velocity": 1,
        "hand": "right"
      },
      {
        "midi": 59,
        "time": 17.083,
        "duration": 0.417,
        "velocity": 1,
        "hand": "left"
      },
      {
        "midi": 65,
        "time": 17.083,
        "duration": 0.417,
        "velocity": 1,
        "hand": "right"
      },
      {
        "midi": 67,
        "time": 17.083,
        "duration": 0.417,
        "velocity": 1,
        "hand": "right"
      },
      {
        "midi": 74,
        "time": 17.083,
        "duration": 0.417,
        "velocity": 1,
        "hand": "right"
      },
      {
        "midi": 48,
        "time": 17.5,
        "duration": 0.417,
        "velocity": 1,
        "hand": "left"
      },
      {
        "midi": 55,
        "time": 17.5,
        "duration": 0.833,
        "velocity": 1,
        "hand": "left"
      },
      {
        "midi": 63,
        "time": 17.5,
        "duration": 0.833,
        "velocity": 1,
        "hand": "right"
      },
      {
        "midi": 60,
        "time": 17.917,
        "duration": 0.417,
        "velocity": 1,
        "hand": "right"
      },
      {
        "midi": 67,
        "time": 17.917,
        "duration": 0.417,
        "velocity": 1,
        "hand": "right"
      },
      {
        "midi": 75,
        "time": 17.917,
        "duration": 0.417,
        "velocity": 1,
        "hand": "right"
      },
      {
        "midi": 50,
        "time": 18.333,
        "duration": 0.417,
        "velocity": 1,
        "hand": "left"
      },
      {
        "midi": 55,
        "time": 18.333,
        "duration": 0.833,
        "velocity": 1,
        "hand": "left"
      },
      {
        "midi": 65,
        "time": 18.333,
        "duration": 0.833,
        "velocity": 1,
        "hand": "right"
      },
      {
        "midi": 62,
        "time": 18.75,
        "duration": 0.417,
        "velocity": 1,
        "hand": "right"
      },
      {
        "midi": 71,
        "time": 18.75,
        "duration": 0.417,
        "velocity": 1,
        "hand": "right"
      },
      {
        "midi": 79,
        "time": 18.75,
        "duration": 0.417,
        "velocity": 1,
        "hand": "right"
      },
      {
        "midi": 48,
        "time": 19.167,
        "duration": 0.417,
        "velocity": 1,
        "hand": "left"
      },
      {
        "midi": 55,
        "time": 19.167,
        "duration": 0.833,
        "velocity": 1,
        "hand": "left"
      },
      {
        "midi": 63,
        "time": 19.167,
        "duration": 0.833,
        "velocity": 1,
        "hand": "right"
      },
      {
        "midi": 60,
        "time": 19.583,
        "duration": 0.417,
        "velocity": 1,
        "hand": "right"
      },
      {
        "midi": 67,
        "time": 19.583,
        "duration": 0.417,
        "velocity": 1,
        "hand": "right"
      },
      {
        "midi": 75,
        "time": 19.583,
        "duration": 0.417,
        "velocity": 1,
        "hand": "right"
      },
      {
        "midi": 47,
        "time": 20,
        "duration": 0.833,
        "velocity": 1,
        "hand": "left"
      },
      {
        "midi": 55,
        "time": 20,
        "duration": 0.833,
        "velocity": 1,
        "hand": "left"
      },
      {
        "midi": 65,
        "time": 20.208,
        "duration": 0.208,
        "velocity": 1,
        "hand": "right"
      },
      {
        "midi": 67,
        "time": 20.208,
        "duration": 0.208,
        "velocity": 1,
        "hand": "right"
      },
      {
        "midi": 62,
        "time": 20.417,
        "duration": 0.417,
        "velocity": 1,
        "hand": "right"
      },
      {
        "midi": 65,
        "time": 20.625,
        "duration": 0.208,
        "velocity": 1,
        "hand": "right"
      },
      {
        "midi": 67,
        "time": 20.625,
        "duration": 0.208,
        "velocity": 1,
        "hand": "right"
      },
      {
        "midi": 60,
        "time": 20.833,
        "duration": 0.833,
        "velocity": 1,
        "hand": "right"
      },
      {
        "midi": 64,
        "time": 20.833,
        "duration": 0.833,
        "velocity": 1,
        "hand": "right"
      },
      {
        "midi": 48,
        "time": 21.25,
        "duration": 0.417,
        "velocity": 1,
        "hand": "left"
      },
      {
        "midi": 55,
        "time": 21.25,
        "duration": 0.417,
        "velocity": 1,
        "hand": "left"
      },
      {
        "midi": 67,
        "time": 21.25,
        "duration": 0.417,
        "velocity": 1,
        "hand": "right"
      },
      {
        "midi": 76,
        "time": 21.25,
        "duration": 0.417,
        "velocity": 1,
        "hand": "right"
      },
      {
        "midi": 49,
        "time": 21.667,
        "duration": 0.833,
        "velocity": 1,
        "hand": "left"
      },
      {
        "midi": 57,
        "time": 21.667,
        "duration": 0.417,
        "velocity": 1,
        "hand": "left"
      },
      {
        "midi": 67,
        "time": 21.875,
        "duration": 0.208,
        "velocity": 1,
        "hand": "right"
      },
      {
        "midi": 69,
        "time": 21.875,
        "duration": 0.208,
        "velocity": 1,
        "hand": "right"
      },
      {
        "midi": 64,
        "time": 22.083,
        "duration": 0.417,
        "velocity": 1,
        "hand": "right"
      },
      {
        "midi": 67,
        "time": 22.292,
        "duration": 0.208,
        "velocity": 1,
        "hand": "right"
      },
      {
        "midi": 69,
        "time": 22.292,
        "duration": 0.208,
        "velocity": 1,
        "hand": "right"
      },
      {
        "midi": 62,
        "time": 22.5,
        "duration": 0.833,
        "velocity": 1,
        "hand": "right"
      },
      {
        "midi": 65,
        "time": 22.5,
        "duration": 0.833,
        "velocity": 1,
        "hand": "right"
      },
      {
        "midi": 50,
        "time": 22.917,
        "duration": 0.417,
        "velocity": 1,
        "hand": "left"
      },
      {
        "midi": 57,
        "time": 22.917,
        "duration": 0.417,
        "velocity": 1,
        "hand": "left"
      },
      {
        "midi": 69,
        "time": 22.917,
        "duration": 0.417,
        "velocity": 1,
        "hand": "right"
      },
      {
        "midi": 77,
        "time": 22.917,
        "duration": 0.417,
        "velocity": 1,
        "hand": "right"
      },
      {
        "midi": 49,
        "time": 23.333,
        "duration": 0.833,
        "velocity": 1,
        "hand": "left"
      },
      {
        "midi": 57,
        "time": 23.333,
        "duration": 0.833,
        "velocity": 1,
        "hand": "left"
      },
      {
        "midi": 64,
        "time": 23.333,
        "duration": 0.833,
        "velocity": 1,
        "hand": "right"
      },
      {
        "midi": 61,
        "time": 23.75,
        "duration": 0.417,
        "velocity": 1,
        "hand": "right"
      },
      {
        "midi": 67,
        "time": 23.75,
        "duration": 0.417,
        "velocity": 1,
        "hand": "right"
      },
      {
        "midi": 69,
        "time": 23.75,
        "duration": 0.417,
        "velocity": 1,
        "hand": "right"
      },
      {
        "midi": 76,
        "time": 23.75,
        "duration": 0.417,
        "velocity": 1,
        "hand": "right"
      },
      {
        "midi": 50,
        "time": 24.167,
        "duration": 0.417,
        "velocity": 1,
        "hand": "left"
      },
      {
        "midi": 57,
        "time": 24.167,
        "duration": 0.833,
        "velocity": 1,
        "hand": "left"
      },
      {
        "midi": 65,
        "time": 24.167,
        "duration": 0.833,
        "velocity": 1,
        "hand": "right"
      },
      {
        "midi": 62,
        "time": 24.583,
        "duration": 0.417,
        "velocity": 1,
        "hand": "right"
      },
      {
        "midi": 69,
        "time": 24.583,
        "duration": 0.417,
        "velocity": 1,
        "hand": "right"
      },
      {
        "midi": 77,
        "time": 24.583,
        "duration": 0.417,
        "velocity": 1,
        "hand": "right"
      },
      {
        "midi": 52,
        "time": 25,
        "duration": 0.417,
        "velocity": 1,
        "hand": "left"
      },
      {
        "midi": 57,
        "time": 25,
        "duration": 0.833,
        "velocity": 1,
        "hand": "left"
      },
      {
        "midi": 67,
        "time": 25,
        "duration": 0.833,
        "velocity": 1,
        "hand": "right"
      },
      {
        "midi": 64,
        "time": 25.417,
        "duration": 0.417,
        "velocity": 1,
        "hand": "right"
      },
      {
        "midi": 73,
        "time": 25.417,
        "duration": 0.417,
        "velocity": 1,
        "hand": "right"
      },
      {
        "midi": 81,
        "time": 25.417,
        "duration": 0.417,
        "velocity": 1,
        "hand": "right"
      },
      {
        "midi": 50,
        "time": 25.833,
        "duration": 0.417,
        "velocity": 1,
        "hand": "left"
      },
      {
        "midi": 57,
        "time": 25.833,
        "duration": 0.833,
        "velocity": 1,
        "hand": "left"
      },
      {
        "midi": 65,
        "time": 25.833,
        "duration": 0.833,
        "velocity": 1,
        "hand": "right"
      },
      {
        "midi": 62,
        "time": 26.25,
        "duration": 0.417,
        "velocity": 1,
        "hand": "right"
      },
      {
        "midi": 69,
        "time": 26.25,
        "duration": 0.417,
        "velocity": 1,
        "hand": "right"
      },
      {
        "midi": 77,
        "time": 26.25,
        "duration": 0.417,
        "velocity": 1,
        "hand": "right"
      },
      {
        "midi": 49,
        "time": 26.667,
        "duration": 0.417,
        "velocity": 1,
        "hand": "left"
      },
      {
        "midi": 57,
        "time": 26.667,
        "duration": 0.833,
        "velocity": 1,
        "hand": "left"
      },
      {
        "midi": 64,
        "time": 26.667,
        "duration": 0.833,
        "velocity": 1,
        "hand": "right"
      },
      {
        "midi": 61,
        "time": 27.083,
        "duration": 0.417,
        "velocity": 1,
        "hand": "right"
      },
      {
        "midi": 67,
        "time": 27.083,
        "duration": 0.417,
        "velocity": 1,
        "hand": "right"
      },
      {
        "midi": 69,
        "time": 27.083,
        "duration": 0.417,
        "velocity": 1,
        "hand": "right"
      },
      {
        "midi": 76,
        "time": 27.083,
        "duration": 0.417,
        "velocity": 1,
        "hand": "right"
      },
      {
        "midi": 50,
        "time": 27.5,
        "duration": 0.417,
        "velocity": 1,
        "hand": "left"
      },
      {
        "midi": 57,
        "time": 27.5,
        "duration": 0.833,
        "velocity": 1,
        "hand": "left"
      },
      {
        "midi": 65,
        "time": 27.5,
        "duration": 0.833,
        "velocity": 1,
        "hand": "right"
      },
      {
        "midi": 62,
        "time": 27.917,
        "duration": 0.417,
        "velocity": 1,
        "hand": "right"
      },
      {
        "midi": 69,
        "time": 27.917,
        "duration": 0.417,
        "velocity": 1,
        "hand": "right"
      },
      {
        "midi": 77,
        "time": 27.917,
        "duration": 0.417,
        "velocity": 1,
        "hand": "right"
      },
      {
        "midi": 51,
        "time": 28.333,
        "duration": 0.417,
        "velocity": 1,
        "hand": "left"
      },
      {
        "midi": 59,
        "time": 28.333,
        "duration": 0.833,
        "velocity": 1,
        "hand": "left"
      },
      {
        "midi": 69,
        "time": 28.333,
        "duration": 0.833,
        "velocity": 1,
        "hand": "right"
      },
      {
        "midi": 63,
        "time": 28.75,
        "duration": 0.417,
        "velocity": 1,
        "hand": "right"
      },
      {
        "midi": 78,
        "time": 28.75,
        "duration": 0.417,
        "velocity": 1,
        "hand": "right"
      },
      {
        "midi": 83,
        "time": 28.75,
        "duration": 0.417,
        "velocity": 1,
        "hand": "right"
      },
      {
        "midi": 52,
        "time": 29.167,
        "duration": 0.417,
        "velocity": 1,
        "hand": "left"
      },
      {
        "midi": 59,
        "time": 29.167,
        "duration": 0.833,
        "velocity": 1,
        "hand": "left"
      },
      {
        "midi": 67,
        "time": 29.167,
        "duration": 0.833,
        "velocity": 1,
        "hand": "right"
      },
      {
        "midi": 64,
        "time": 29.583,
        "duration": 0.417,
        "velocity": 1,
        "hand": "right"
      },
      {
        "midi": 71,
        "time": 29.583,
        "duration": 0.417,
        "velocity": 1,
        "hand": "right"
      },
      {
        "midi": 79,
        "time": 29.583,
        "duration": 0.417,
        "velocity": 1,
        "hand": "right"
      },
      {
        "midi": 51,
        "time": 30,
        "duration": 0.417,
        "velocity": 1,
        "hand": "left"
      },
      {
        "midi": 59,
        "time": 30,
        "duration": 0.833,
        "velocity": 1,
        "hand": "left"
      },
      {
        "midi": 66,
        "time": 30,
        "duration": 0.833,
        "velocity": 1,
        "hand": "right"
      },
      {
        "midi": 63,
        "time": 30.417,
        "duration": 0.417,
        "velocity": 1,
        "hand": "right"
      },
      {
        "midi": 69,
        "time": 30.417,
        "duration": 0.417,
        "velocity": 1,
        "hand": "right"
      },
      {
        "midi": 71,
        "time": 30.417,
        "duration": 0.417,
        "velocity": 1,
        "hand": "right"
      },
      {
        "midi": 78,
        "time": 30.417,
        "duration": 0.417,
        "velocity": 1,
        "hand": "right"
      },
      {
        "midi": 52,
        "time": 30.833,
        "duration": 0.417,
        "velocity": 1,
        "hand": "left"
      },
      {
        "midi": 59,
        "time": 30.833,
        "duration": 0.833,
        "velocity": 1,
        "hand": "left"
      },
      {
        "midi": 67,
        "time": 30.833,
        "duration": 0.833,
        "velocity": 1,
        "hand": "right"
      },
      {
        "midi": 64,
        "time": 31.25,
        "duration": 0.417,
        "velocity": 1,
        "hand": "right"
      },
      {
        "midi": 71,
        "time": 31.25,
        "duration": 0.417,
        "velocity": 1,
        "hand": "right"
      },
      {
        "midi": 79,
        "time": 31.25,
        "duration": 0.417,
        "velocity": 1,
        "hand": "right"
      },
      {
        "midi": 53,
        "time": 31.667,
        "duration": 0.417,
        "velocity": 1,
        "hand": "left"
      },
      {
        "midi": 61,
        "time": 31.667,
        "duration": 0.833,
        "velocity": 1,
        "hand": "right"
      },
      {
        "midi": 71,
        "time": 31.667,
        "duration": 0.833,
        "velocity": 1,
        "hand": "right"
      },
      {
        "midi": 65,
        "time": 32.083,
        "duration": 0.417,
        "velocity": 1,
        "hand": "right"
      },
      {
        "midi": 80,
        "time": 32.083,
        "duration": 0.417,
        "velocity": 1,
        "hand": "right"
      },
      {
        "midi": 85,
        "time": 32.083,
        "duration": 0.417,
        "velocity": 1,
        "hand": "right"
      },
      {
        "midi": 54,
        "time": 32.5,
        "duration": 0.417,
        "velocity": 1,
        "hand": "left"
      },
      {
        "midi": 61,
        "time": 32.5,
        "duration": 0.833,
        "velocity": 1,
        "hand": "right"
      },
      {
        "midi": 69,
        "time": 32.5,
        "duration": 0.833,
        "velocity": 1,
        "hand": "right"
      },
      {
        "midi": 66,
        "time": 32.917,
        "duration": 0.417,
        "velocity": 1,
        "hand": "right"
      },
      {
        "midi": 73,
        "time": 32.917,
        "duration": 0.417,
        "velocity": 1,
        "hand": "right"
      },
      {
        "midi": 81,
        "time": 32.917,
        "duration": 0.417,
        "velocity": 1,
        "hand": "right"
      },
      {
        "midi": 54,
        "time": 33.333,
        "duration": 0.417,
        "velocity": 1,
        "hand": "left"
      },
      {
        "midi": 62,
        "time": 33.333,
        "duration": 0.833,
        "velocity": 1,
        "hand": "right"
      },
      {
        "midi": 72,
        "time": 33.333,
        "duration": 0.833,
        "velocity": 1,
        "hand": "right"
      },
      {
        "midi": 66,
        "time": 33.75,
        "duration": 0.417,
        "velocity": 1,
        "hand": "right"
      },
      {
        "midi": 81,
        "time": 33.75,
        "duration": 0.417,
        "velocity": 1,
        "hand": "right"
      },
      {
        "midi": 86,
        "time": 33.75,
        "duration": 0.417,
        "velocity": 1,
        "hand": "right"
      },
      {
        "midi": 55,
        "time": 34.167,
        "duration": 0.417,
        "velocity": 1,
        "hand": "left"
      },
      {
        "midi": 62,
        "time": 34.167,
        "duration": 0.833,
        "velocity": 1,
        "hand": "right"
      },
      {
        "midi": 71,
        "time": 34.167,
        "duration": 0.833,
        "velocity": 1,
        "hand": "right"
      },
      {
        "midi": 67,
        "time": 34.583,
        "duration": 0.417,
        "velocity": 1,
        "hand": "right"
      },
      {
        "midi": 74,
        "time": 34.583,
        "duration": 0.417,
        "velocity": 1,
        "hand": "right"
      },
      {
        "midi": 83,
        "time": 34.583,
        "duration": 0.417,
        "velocity": 1,
        "hand": "right"
      },
      {
        "midi": 54,
        "time": 35,
        "duration": 0.417,
        "velocity": 1,
        "hand": "left"
      },
      {
        "midi": 62,
        "time": 35,
        "duration": 0.833,
        "velocity": 1,
        "hand": "right"
      },
      {
        "midi": 72,
        "time": 35,
        "duration": 0.833,
        "velocity": 1,
        "hand": "right"
      },
      {
        "midi": 66,
        "time": 35.417,
        "duration": 0.417,
        "velocity": 1,
        "hand": "right"
      },
      {
        "midi": 81,
        "time": 35.417,
        "duration": 0.417,
        "velocity": 1,
        "hand": "right"
      },
      {
        "midi": 86,
        "time": 35.417,
        "duration": 0.417,
        "velocity": 1,
        "hand": "right"
      },
      {
        "midi": 55,
        "time": 35.833,
        "duration": 0.417,
        "velocity": 1,
        "hand": "left"
      },
      {
        "midi": 62,
        "time": 35.833,
        "duration": 0.833,
        "velocity": 1,
        "hand": "right"
      },
      {
        "midi": 71,
        "time": 35.833,
        "duration": 0.833,
        "velocity": 1,
        "hand": "right"
      },
      {
        "midi": 67,
        "time": 36.25,
        "duration": 0.417,
        "velocity": 1,
        "hand": "right"
      },
      {
        "midi": 74,
        "time": 36.25,
        "duration": 0.417,
        "velocity": 1,
        "hand": "right"
      },
      {
        "midi": 83,
        "time": 36.25,
        "duration": 0.417,
        "velocity": 1,
        "hand": "right"
      },
      {
        "midi": 67,
        "time": 36.667,
        "duration": 0.417,
        "velocity": 1,
        "hand": "right"
      },
      {
        "midi": 70,
        "time": 36.667,
        "duration": 0.417,
        "velocity": 1,
        "hand": "right"
      },
      {
        "midi": 74,
        "time": 36.667,
        "duration": 0.417,
        "velocity": 1,
        "hand": "right"
      },
      {
        "midi": 88,
        "time": 36.667,
        "duration": 0.208,
        "velocity": 1,
        "hand": "right"
      },
      {
        "midi": 86,
        "time": 36.875,
        "duration": 0.208,
        "velocity": 1,
        "hand": "right"
      },
      {
        "midi": 82,
        "time": 37.083,
        "duration": 0.208,
        "velocity": 1,
        "hand": "right"
      },
      {
        "midi": 81,
        "time": 37.292,
        "duration": 0.208,
        "velocity": 1,
        "hand": "right"
      },
      {
        "midi": 76,
        "time": 37.5,
        "duration": 0.208,
        "velocity": 1,
        "hand": "right"
      },
      {
        "midi": 79,
        "time": 37.5,
        "duration": 0.417,
        "velocity": 1,
        "hand": "right"
      },
      {
        "midi": 74,
        "time": 37.708,
        "duration": 0.208,
        "velocity": 1,
        "hand": "right"
      },
      {
        "midi": 70,
        "time": 37.917,
        "duration": 0.208,
        "velocity": 1,
        "hand": "right"
      },
      {
        "midi": 69,
        "time": 38.125,
        "duration": 0.208,
        "velocity": 1,
        "hand": "right"
      },
      {
        "midi": 64,
        "time": 38.333,
        "duration": 0.208,
        "velocity": 1,
        "hand": "right"
      },
      {
        "midi": 67,
        "time": 38.333,
        "duration": 0.417,
        "velocity": 1,
        "hand": "right"
      },
      {
        "midi": 62,
        "time": 38.542,
        "duration": 0.208,
        "velocity": 1,
        "hand": "right"
      },
      {
        "midi": 58,
        "time": 38.75,
        "duration": 0.208,
        "velocity": 1,
        "hand": "left"
      },
      {
        "midi": 57,
        "time": 38.958,
        "duration": 0.208,
        "velocity": 1,
        "hand": "left"
      },
      {
        "midi": 52,
        "time": 39.167,
        "duration": 0.208,
        "velocity": 1,
        "hand": "left"
      },
      {
        "midi": 55,
        "time": 39.167,
        "duration": 0.417,
        "velocity": 1,
        "hand": "left"
      },
      {
        "midi": 50,
        "time": 39.375,
        "duration": 0.208,
        "velocity": 1,
        "hand": "left"
      },
      {
        "midi": 46,
        "time": 39.583,
        "duration": 0.208,
        "velocity": 1,
        "hand": "left"
      },
      {
        "midi": 45,
        "time": 39.792,
        "duration": 0.208,
        "velocity": 1,
        "hand": "left"
      },
      {
        "midi": 43,
        "time": 40,
        "duration": 0.417,
        "velocity": 1,
        "hand": "left"
      },
      {
        "midi": 43,
        "time": 40.417,
        "duration": 0.417,
        "velocity": 1,
        "hand": "left"
      },
      {
        "midi": 44,
        "time": 40.833,
        "duration": 0.208,
        "velocity": 1,
        "hand": "left"
      },
      {
        "midi": 62,
        "time": 40.833,
        "duration": 1.25,
        "velocity": 1,
        "hand": "right"
      },
      {
        "midi": 64,
        "time": 40.833,
        "duration": 1.25,
        "velocity": 1,
        "hand": "right"
      },
      {
        "midi": 45,
        "time": 41.042,
        "duration": 0.208,
        "velocity": 1,
        "hand": "left"
      },
      {
        "midi": 46,
        "time": 41.25,
        "duration": 0.208,
        "velocity": 1,
        "hand": "left"
      },
      {
        "midi": 44,
        "time": 41.458,
        "duration": 0.208,
        "velocity": 1,
        "hand": "left"
      },
      {
        "midi": 45,
        "time": 41.667,
        "duration": 0.417,
        "velocity": 1,
        "hand": "left"
      },
      {
        "midi": 45,
        "time": 42.083,
        "duration": 0.417,
        "velocity": 1,
        "hand": "left"
      },
      {
        "midi": 55,
        "time": 42.083,
        "duration": 0.417,
        "velocity": 1,
        "hand": "left"
      },
      {
        "midi": 61,
        "time": 42.083,
        "duration": 0.417,
        "velocity": 1,
        "hand": "right"
      },
      {
        "midi": 64,
        "time": 42.083,
        "duration": 0.417,
        "velocity": 1,
        "hand": "right"
      },
      {
        "midi": 69,
        "time": 42.083,
        "duration": 0.417,
        "velocity": 1,
        "hand": "right"
      },
      {
        "midi": 50,
        "time": 42.5,
        "duration": 0.417,
        "velocity": 1,
        "hand": "left"
      },
      {
        "midi": 54,
        "time": 42.5,
        "duration": 0.417,
        "velocity": 1,
        "hand": "left"
      },
      {
        "midi": 62,
        "time": 42.5,
        "duration": 0.417,
        "velocity": 1,
        "hand": "right"
      },
      {
        "midi": 69,
        "time": 42.5,
        "duration": 0.417,
        "velocity": 1,
        "hand": "right"
      },
      {
        "midi": 74,
        "time": 42.5,
        "duration": 0.417,
        "velocity": 1,
        "hand": "right"
      },
      {
        "midi": 78,
        "time": 43.333,
        "duration": 0.208,
        "velocity": 1,
        "hand": "right"
      },
      {
        "midi": 76,
        "time": 43.542,
        "duration": 0.208,
        "velocity": 1,
        "hand": "right"
      },
      {
        "midi": 74,
        "time": 43.75,
        "duration": 0.208,
        "velocity": 1,
        "hand": "right"
      },
      {
        "midi": 73,
        "time": 43.958,
        "duration": 0.208,
        "velocity": 1,
        "hand": "right"
      },
      {
        "midi": 59,
        "time": 44.167,
        "duration": 0.417,
        "velocity": 1,
        "hand": "left"
      },
      {
        "midi": 62,
        "time": 44.167,
        "duration": 0.417,
        "velocity": 1,
        "hand": "right"
      },
      {
        "midi": 66,
        "time": 44.167,
        "duration": 0.417,
        "velocity": 1,
        "hand": "right"
      },
      {
        "midi": 71,
        "time": 44.167,
        "duration": 0.417,
        "velocity": 1,
        "hand": "right"
      },
      {
        "midi": 73,
        "time": 44.583,
        "duration": 0.417,
        "velocity": 1,
        "hand": "right"
      },
      {
        "midi": 54,
        "time": 45,
        "duration": 0.208,
        "velocity": 1,
        "hand": "left"
      },
      {
        "midi": 61,
        "time": 45,
        "duration": 0.833,
        "velocity": 1,
        "hand": "right"
      },
      {
        "midi": 52,
        "time": 45.208,
        "duration": 0.208,
        "velocity": 1,
        "hand": "left"
      },
      {
        "midi": 50,
        "time": 45.417,
        "duration": 0.208,
        "velocity": 1,
        "hand": "left"
      },
      {
        "midi": 66,
        "time": 45.417,
        "duration": 0.417,
        "velocity": 1,
        "hand": "right"
      },
      {
        "midi": 70,
        "time": 45.417,
        "duration": 0.417,
        "velocity": 1,
        "hand": "right"
      },
      {
        "midi": 49,
        "time": 45.625,
        "duration": 0.208,
        "velocity": 1,
        "hand": "left"
      },
      {
        "midi": 47,
        "time": 45.833,
        "duration": 0.417,
        "velocity": 1,
        "hand": "left"
      },
      {
        "midi": 62,
        "time": 45.833,
        "duration": 0.833,
        "velocity": 1,
        "hand": "right"
      },
      {
        "midi": 66,
        "time": 46.25,
        "duration": 0.417,
        "velocity": 1,
        "hand": "right"
      },
      {
        "midi": 71,
        "time": 46.25,
        "duration": 0.417,
        "velocity": 1,
        "hand": "right"
      },
      {
        "midi": 55,
        "time": 46.667,
        "duration": 0.417,
        "velocity": 1,
        "hand": "left"
      },
      {
        "midi": 59,
        "time": 46.667,
        "duration": 0.833,
        "velocity": 1,
        "hand": "left"
      },
      {
        "midi": 61,
        "time": 46.667,
        "duration": 0.833,
        "velocity": 1,
        "hand": "right"
      },
      {
        "midi": 73,
        "time": 46.875,
        "duration": 0.208,
        "velocity": 1,
        "hand": "right"
      },
      {
        "midi": 47,
        "time": 47.083,
        "duration": 0.417,
        "velocity": 1,
        "hand": "left"
      },
      {
        "midi": 67,
        "time": 47.083,
        "duration": 0.208,
        "velocity": 1,
        "hand": "right"
      },
      {
        "midi": 71,
        "time": 47.292,
        "duration": 0.208,
        "velocity": 1,
        "hand": "right"
      },
      {
        "midi": 54,
        "time": 47.5,
        "duration": 0.417,
        "velocity": 1,
        "hand": "left"
      },
      {
        "midi": 59,
        "time": 47.5,
        "duration": 0.833,
        "velocity": 1,
        "hand": "left"
      },
      {
        "midi": 62,
        "time": 47.5,
        "duration": 0.833,
        "velocity": 1,
        "hand": "right"
      },
      {
        "midi": 74,
        "time": 47.708,
        "duration": 0.208,
        "velocity": 1,
        "hand": "right"
      },
      {
        "midi": 47,
        "time": 47.917,
        "duration": 0.417,
        "velocity": 1,
        "hand": "left"
      },
      {
        "midi": 66,
        "time": 47.917,
        "duration": 0.208,
        "velocity": 1,
        "hand": "right"
      },
      {
        "midi": 71,
        "time": 48.125,
        "duration": 0.208,
        "velocity": 1,
        "hand": "right"
      },
      {
        "midi": 52,
        "time": 48.333,
        "duration": 0.417,
        "velocity": 1,
        "hand": "left"
      },
      {
        "midi": 55,
        "time": 48.333,
        "duration": 0.417,
        "velocity": 1,
        "hand": "left"
      },
      {
        "midi": 59,
        "time": 48.333,
        "duration": 0.833,
        "velocity": 1,
        "hand": "left"
      },
      {
        "midi": 67,
        "time": 48.333,
        "duration": 0.833,
        "velocity": 1,
        "hand": "right"
      },
      {
        "midi": 79,
        "time": 48.542,
        "duration": 0.208,
        "velocity": 1,
        "hand": "right"
      },
      {
        "midi": 47,
        "time": 48.75,
        "duration": 0.417,
        "velocity": 1,
        "hand": "left"
      },
      {
        "midi": 71,
        "time": 48.75,
        "duration": 0.208,
        "velocity": 1,
        "hand": "right"
      },
      {
        "midi": 76,
        "time": 48.958,
        "duration": 0.208,
        "velocity": 1,
        "hand": "right"
      },
      {
        "midi": 50,
        "time": 49.167,
        "duration": 0.417,
        "velocity": 1,
        "hand": "left"
      },
      {
        "midi": 54,
        "time": 49.167,
        "duration": 0.417,
        "velocity": 1,
        "hand": "left"
      },
      {
        "midi": 59,
        "time": 49.167,
        "duration": 0.833,
        "velocity": 1,
        "hand": "left"
      },
      {
        "midi": 66,
        "time": 49.167,
        "duration": 0.833,
        "velocity": 1,
        "hand": "right"
      },
      {
        "midi": 78,
        "time": 49.375,
        "duration": 0.208,
        "velocity": 1,
        "hand": "right"
      },
      {
        "midi": 47,
        "time": 49.583,
        "duration": 0.417,
        "velocity": 1,
        "hand": "left"
      },
      {
        "midi": 71,
        "time": 49.583,
        "duration": 0.208,
        "velocity": 1,
        "hand": "right"
      },
      {
        "midi": 74,
        "time": 49.792,
        "duration": 0.208,
        "velocity": 1,
        "hand": "right"
      },
      {
        "midi": 78,
        "time": 50,
        "duration": 0.208,
        "velocity": 1,
        "hand": "right"
      },
      {
        "midi": 76,
        "time": 50.208,
        "duration": 0.208,
        "velocity": 1,
        "hand": "right"
      },
      {
        "midi": 74,
        "time": 50.417,
        "duration": 0.208,
        "velocity": 1,
        "hand": "right"
      },
      {
        "midi": 73,
        "time": 50.625,
        "duration": 0.208,
        "velocity": 1,
        "hand": "right"
      },
      {
        "midi": 59,
        "time": 50.833,
        "duration": 0.417,
        "velocity": 1,
        "hand": "left"
      },
      {
        "midi": 62,
        "time": 50.833,
        "duration": 0.417,
        "velocity": 1,
        "hand": "right"
      },
      {
        "midi": 66,
        "time": 50.833,
        "duration": 0.417,
        "velocity": 1,
        "hand": "right"
      },
      {
        "midi": 71,
        "time": 50.833,
        "duration": 0.417,
        "velocity": 1,
        "hand": "right"
      },
      {
        "midi": 73,
        "time": 51.25,
        "duration": 0.417,
        "velocity": 1,
        "hand": "right"
      },
      {
        "midi": 54,
        "time": 51.667,
        "duration": 0.208,
        "velocity": 1,
        "hand": "left"
      },
      {
        "midi": 61,
        "time": 51.667,
        "duration": 0.833,
        "velocity": 1,
        "hand": "right"
      },
      {
        "midi": 52,
        "time": 51.875,
        "duration": 0.208,
        "velocity": 1,
        "hand": "left"
      },
      {
        "midi": 50,
        "time": 52.083,
        "duration": 0.208,
        "velocity": 1,
        "hand": "left"
      },
      {
        "midi": 66,
        "time": 52.083,
        "duration": 0.417,
        "velocity": 1,
        "hand": "right"
      },
      {
        "midi": 70,
        "time": 52.083,
        "duration": 0.417,
        "velocity": 1,
        "hand": "right"
      },
      {
        "midi": 49,
        "time": 52.292,
        "duration": 0.208,
        "velocity": 1,
        "hand": "left"
      },
      {
        "midi": 47,
        "time": 52.5,
        "duration": 0.417,
        "velocity": 1,
        "hand": "left"
      },
      {
        "midi": 62,
        "time": 52.5,
        "duration": 0.833,
        "velocity": 1,
        "hand": "right"
      },
      {
        "midi": 66,
        "time": 52.917,
        "duration": 0.417,
        "velocity": 1,
        "hand": "right"
      },
      {
        "midi": 71,
        "time": 52.917,
        "duration": 0.417,
        "velocity": 1,
        "hand": "right"
      },
      {
        "midi": 55,
        "time": 53.333,
        "duration": 0.417,
        "velocity": 1,
        "hand": "left"
      },
      {
        "midi": 59,
        "time": 53.333,
        "duration": 0.833,
        "velocity": 1,
        "hand": "left"
      },
      {
        "midi": 61,
        "time": 53.333,
        "duration": 0.833,
        "velocity": 1,
        "hand": "right"
      },
      {
        "midi": 73,
        "time": 53.542,
        "duration": 0.208,
        "velocity": 1,
        "hand": "right"
      },
      {
        "midi": 47,
        "time": 53.75,
        "duration": 0.417,
        "velocity": 1,
        "hand": "left"
      },
      {
        "midi": 67,
        "time": 53.75,
        "duration": 0.208,
        "velocity": 1,
        "hand": "right"
      },
      {
        "midi": 71,
        "time": 53.958,
        "duration": 0.208,
        "velocity": 1,
        "hand": "right"
      },
      {
        "midi": 54,
        "time": 54.167,
        "duration": 0.417,
        "velocity": 1,
        "hand": "left"
      },
      {
        "midi": 59,
        "time": 54.167,
        "duration": 0.833,
        "velocity": 1,
        "hand": "left"
      },
      {
        "midi": 62,
        "time": 54.167,
        "duration": 0.833,
        "velocity": 1,
        "hand": "right"
      },
      {
        "midi": 74,
        "time": 54.375,
        "duration": 0.208,
        "velocity": 1,
        "hand": "right"
      },
      {
        "midi": 47,
        "time": 54.583,
        "duration": 0.417,
        "velocity": 1,
        "hand": "left"
      },
      {
        "midi": 66,
        "time": 54.583,
        "duration": 0.208,
        "velocity": 1,
        "hand": "right"
      },
      {
        "midi": 71,
        "time": 54.792,
        "duration": 0.208,
        "velocity": 1,
        "hand": "right"
      },
      {
        "midi": 52,
        "time": 55,
        "duration": 0.417,
        "velocity": 1,
        "hand": "left"
      },
      {
        "midi": 55,
        "time": 55,
        "duration": 0.417,
        "velocity": 1,
        "hand": "left"
      },
      {
        "midi": 59,
        "time": 55,
        "duration": 0.833,
        "velocity": 1,
        "hand": "left"
      },
      {
        "midi": 67,
        "time": 55,
        "duration": 0.833,
        "velocity": 1,
        "hand": "right"
      },
      {
        "midi": 79,
        "time": 55.208,
        "duration": 0.208,
        "velocity": 1,
        "hand": "right"
      },
      {
        "midi": 47,
        "time": 55.417,
        "duration": 0.417,
        "velocity": 1,
        "hand": "left"
      },
      {
        "midi": 71,
        "time": 55.417,
        "duration": 0.208,
        "velocity": 1,
        "hand": "right"
      },
      {
        "midi": 76,
        "time": 55.625,
        "duration": 0.208,
        "velocity": 1,
        "hand": "right"
      },
      {
        "midi": 50,
        "time": 55.833,
        "duration": 0.417,
        "velocity": 1,
        "hand": "left"
      },
      {
        "midi": 54,
        "time": 55.833,
        "duration": 0.417,
        "velocity": 1,
        "hand": "left"
      },
      {
        "midi": 59,
        "time": 55.833,
        "duration": 0.833,
        "velocity": 1,
        "hand": "left"
      },
      {
        "midi": 66,
        "time": 55.833,
        "duration": 0.833,
        "velocity": 1,
        "hand": "right"
      },
      {
        "midi": 78,
        "time": 56.042,
        "duration": 0.208,
        "velocity": 1,
        "hand": "right"
      },
      {
        "midi": 47,
        "time": 56.25,
        "duration": 0.417,
        "velocity": 1,
        "hand": "left"
      },
      {
        "midi": 71,
        "time": 56.25,
        "duration": 0.208,
        "velocity": 1,
        "hand": "right"
      },
      {
        "midi": 74,
        "time": 56.458,
        "duration": 0.208,
        "velocity": 1,
        "hand": "right"
      },
      {
        "midi": 47,
        "time": 56.667,
        "duration": 0.208,
        "velocity": 1,
        "hand": "left"
      },
      {
        "midi": 49,
        "time": 56.875,
        "duration": 0.208,
        "velocity": 1,
        "hand": "left"
      },
      {
        "midi": 50,
        "time": 57.083,
        "duration": 0.208,
        "velocity": 1,
        "hand": "left"
      },
      {
        "midi": 59,
        "time": 57.083,
        "duration": 0.833,
        "velocity": 1,
        "hand": "left"
      },
      {
        "midi": 62,
        "time": 57.083,
        "duration": 0.833,
        "velocity": 1,
        "hand": "right"
      },
      {
        "midi": 52,
        "time": 57.292,
        "duration": 0.208,
        "velocity": 1,
        "hand": "left"
      },
      {
        "midi": 53,
        "time": 57.5,
        "duration": 0.417,
        "velocity": 1,
        "hand": "left"
      },
      {
        "midi": 54,
        "time": 57.917,
        "duration": 0.417,
        "velocity": 1,
        "hand": "left"
      },
      {
        "midi": 59,
        "time": 57.917,
        "duration": 0.833,
        "velocity": 1,
        "hand": "left"
      },
      {
        "midi": 62,
        "time": 57.917,
        "duration": 0.833,
        "velocity": 1,
        "hand": "right"
      },
      {
        "midi": 57,
        "time": 58.333,
        "duration": 0.417,
        "velocity": 1,
        "hand": "left"
      },
      {
        "midi": 56,
        "time": 58.75,
        "duration": 0.417,
        "velocity": 1,
        "hand": "left"
      },
      {
        "midi": 59,
        "time": 58.75,
        "duration": 0.833,
        "velocity": 1,
        "hand": "left"
      },
      {
        "midi": 62,
        "time": 58.75,
        "duration": 0.833,
        "velocity": 1,
        "hand": "right"
      },
      {
        "midi": 55,
        "time": 59.167,
        "duration": 0.417,
        "velocity": 1,
        "hand": "left"
      },
      {
        "midi": 54,
        "time": 59.583,
        "duration": 0.417,
        "velocity": 1,
        "hand": "left"
      },
      {
        "midi": 59,
        "time": 59.583,
        "duration": 0.417,
        "velocity": 1,
        "hand": "left"
      },
      {
        "midi": 62,
        "time": 59.583,
        "duration": 0.417,
        "velocity": 1,
        "hand": "right"
      },
      {
        "midi": 53,
        "time": 60,
        "duration": 0.833,
        "velocity": 1,
        "hand": "left"
      },
      {
        "midi": 71,
        "time": 60,
        "duration": 0.208,
        "velocity": 1,
        "hand": "right"
      },
      {
        "midi": 70,
        "time": 60.208,
        "duration": 0.208,
        "velocity": 1,
        "hand": "right"
      },
      {
        "midi": 59,
        "time": 60.417,
        "duration": 0.833,
        "velocity": 1,
        "hand": "left"
      },
      {
        "midi": 62,
        "time": 60.417,
        "duration": 0.833,
        "velocity": 1,
        "hand": "right"
      },
      {
        "midi": 69,
        "time": 60.417,
        "duration": 0.208,
        "velocity": 1,
        "hand": "right"
      },
      {
        "midi": 68,
        "time": 60.625,
        "duration": 0.208,
        "velocity": 1,
        "hand": "right"
      },
      {
        "midi": 52,
        "time": 60.833,
        "duration": 0.833,
        "velocity": 1,
        "hand": "left"
      },
      {
        "midi": 67,
        "time": 60.833,
        "duration": 0.417,
        "velocity": 1,
        "hand": "right"
      },
      {
        "midi": 59,
        "time": 61.25,
        "duration": 0.417,
        "velocity": 1,
        "hand": "left"
      },
      {
        "midi": 62,
        "time": 61.25,
        "duration": 0.417,
        "velocity": 1,
        "hand": "right"
      },
      {
        "midi": 67,
        "time": 61.25,
        "duration": 0.417,
        "velocity": 1,
        "hand": "right"
      },
      {
        "midi": 50,
        "time": 61.667,
        "duration": 0.833,
        "velocity": 1,
        "hand": "left"
      },
      {
        "midi": 73,
        "time": 61.667,
        "duration": 0.417,
        "velocity": 1,
        "hand": "right"
      },
      {
        "midi": 56,
        "time": 62.083,
        "duration": 0.417,
        "velocity": 1,
        "hand": "left"
      },
      {
        "midi": 59,
        "time": 62.083,
        "duration": 0.417,
        "velocity": 1,
        "hand": "left"
      },
      {
        "midi": 64,
        "time": 62.083,
        "duration": 0.417,
        "velocity": 1,
        "hand": "right"
      },
      {
        "midi": 71,
        "time": 62.083,
        "duration": 0.417,
        "velocity": 1,
        "hand": "right"
      },
      {
        "midi": 49,
        "time": 62.5,
        "duration": 0.833,
        "velocity": 1,
        "hand": "left"
      },
      {
        "midi": 63,
        "time": 62.5,
        "duration": 0.417,
        "velocity": 1,
        "hand": "right"
      },
      {
        "midi": 52,
        "time": 62.917,
        "duration": 0.417,
        "velocity": 1,
        "hand": "left"
      },
      {
        "midi": 57,
        "time": 62.917,
        "duration": 0.417,
        "velocity": 1,
        "hand": "left"
      },
      {
        "midi": 61,
        "time": 62.917,
        "duration": 0.417,
        "velocity": 1,
        "hand": "right"
      },
      {
        "midi": 64,
        "time": 62.917,
        "duration": 0.417,
        "velocity": 1,
        "hand": "right"
      },
      {
        "midi": 49,
        "time": 63.333,
        "duration": 0.208,
        "velocity": 1,
        "hand": "left"
      },
      {
        "midi": 50,
        "time": 63.542,
        "duration": 0.208,
        "velocity": 1,
        "hand": "left"
      },
      {
        "midi": 52,
        "time": 63.75,
        "duration": 0.208,
        "velocity": 1,
        "hand": "left"
      },
      {
        "midi": 61,
        "time": 63.75,
        "duration": 0.833,
        "velocity": 1,
        "hand": "right"
      },
      {
        "midi": 64,
        "time": 63.75,
        "duration": 0.833,
        "velocity": 1,
        "hand": "right"
      },
      {
        "midi": 54,
        "time": 63.958,
        "duration": 0.208,
        "velocity": 1,
        "hand": "left"
      },
      {
        "midi": 55,
        "time": 64.167,
        "duration": 0.417,
        "velocity": 1,
        "hand": "left"
      },
      {
        "midi": 56,
        "time": 64.583,
        "duration": 0.417,
        "velocity": 1,
        "hand": "left"
      },
      {
        "midi": 61,
        "time": 64.583,
        "duration": 0.833,
        "velocity": 1,
        "hand": "right"
      },
      {
        "midi": 64,
        "time": 64.583,
        "duration": 0.833,
        "velocity": 1,
        "hand": "right"
      },
      {
        "midi": 59,
        "time": 65,
        "duration": 0.417,
        "velocity": 1,
        "hand": "left"
      },
      {
        "midi": 58,
        "time": 65.417,
        "duration": 0.417,
        "velocity": 1,
        "hand": "left"
      },
      {
        "midi": 61,
        "time": 65.417,
        "duration": 0.833,
        "velocity": 1,
        "hand": "right"
      },
      {
        "midi": 64,
        "time": 65.417,
        "duration": 0.833,
        "velocity": 1,
        "hand": "right"
      },
      {
        "midi": 57,
        "time": 65.833,
        "duration": 0.417,
        "velocity": 1,
        "hand": "left"
      },
      {
        "midi": 56,
        "time": 66.25,
        "duration": 0.417,
        "velocity": 1,
        "hand": "left"
      },
      {
        "midi": 61,
        "time": 66.25,
        "duration": 0.417,
        "velocity": 1,
        "hand": "right"
      },
      {
        "midi": 64,
        "time": 66.25,
        "duration": 0.417,
        "velocity": 1,
        "hand": "right"
      },
      {
        "midi": 55,
        "time": 66.667,
        "duration": 0.833,
        "velocity": 1,
        "hand": "left"
      },
      {
        "midi": 73,
        "time": 66.667,
        "duration": 0.208,
        "velocity": 1,
        "hand": "right"
      },
      {
        "midi": 72,
        "time": 66.875,
        "duration": 0.208,
        "velocity": 1,
        "hand": "right"
      },
      {
        "midi": 61,
        "time": 67.083,
        "duration": 0.833,
        "velocity": 1,
        "hand": "right"
      },
      {
        "midi": 64,
        "time": 67.083,
        "duration": 0.833,
        "velocity": 1,
        "hand": "right"
      },
      {
        "midi": 71,
        "time": 67.083,
        "duration": 0.208,
        "velocity": 1,
        "hand": "right"
      },
      {
        "midi": 70,
        "time": 67.292,
        "duration": 0.208,
        "velocity": 1,
        "hand": "right"
      },
      {
        "midi": 54,
        "time": 67.5,
        "duration": 0.833,
        "velocity": 1,
        "hand": "left"
      },
      {
        "midi": 69,
        "time": 67.5,
        "duration": 0.417,
        "velocity": 1,
        "hand": "right"
      },
      {
        "midi": 61,
        "time": 67.917,
        "duration": 0.417,
        "velocity": 1,
        "hand": "right"
      },
      {
        "midi": 64,
        "time": 67.917,
        "duration": 0.417,
        "velocity": 1,
        "hand": "right"
      },
      {
        "midi": 69,
        "time": 67.917,
        "duration": 0.417,
        "velocity": 1,
        "hand": "right"
      },
      {
        "midi": 52,
        "time": 68.333,
        "duration": 0.833,
        "velocity": 1,
        "hand": "left"
      },
      {
        "midi": 74,
        "time": 68.333,
        "duration": 0.417,
        "velocity": 1,
        "hand": "right"
      },
      {
        "midi": 58,
        "time": 68.75,
        "duration": 0.417,
        "velocity": 1,
        "hand": "left"
      },
      {
        "midi": 61,
        "time": 68.75,
        "duration": 0.417,
        "velocity": 1,
        "hand": "right"
      },
      {
        "midi": 66,
        "time": 68.75,
        "duration": 0.417,
        "velocity": 1,
        "hand": "right"
      },
      {
        "midi": 73,
        "time": 68.75,
        "duration": 0.417,
        "velocity": 1,
        "hand": "right"
      },
      {
        "midi": 50,
        "time": 69.167,
        "duration": 0.833,
        "velocity": 1,
        "hand": "left"
      },
      {
        "midi": 65,
        "time": 69.167,
        "duration": 0.417,
        "velocity": 1,
        "hand": "right"
      },
      {
        "midi": 54,
        "time": 69.583,
        "duration": 0.417,
        "velocity": 1,
        "hand": "left"
      },
      {
        "midi": 59,
        "time": 69.583,
        "duration": 0.417,
        "velocity": 1,
        "hand": "left"
      },
      {
        "midi": 62,
        "time": 69.583,
        "duration": 0.417,
        "velocity": 1,
        "hand": "right"
      },
      {
        "midi": 66,
        "time": 69.583,
        "duration": 0.417,
        "velocity": 1,
        "hand": "right"
      },
      {
        "midi": 47,
        "time": 70,
        "duration": 0.208,
        "velocity": 1,
        "hand": "left"
      },
      {
        "midi": 71,
        "time": 70,
        "duration": 0.208,
        "velocity": 1,
        "hand": "right"
      },
      {
        "midi": 49,
        "time": 70.208,
        "duration": 0.208,
        "velocity": 1,
        "hand": "left"
      },
      {
        "midi": 73,
        "time": 70.208,
        "duration": 0.208,
        "velocity": 1,
        "hand": "right"
      },
      {
        "midi": 50,
        "time": 70.417,
        "duration": 0.208,
        "velocity": 1,
        "hand": "left"
      },
      {
        "midi": 74,
        "time": 70.417,
        "duration": 0.208,
        "velocity": 1,
        "hand": "right"
      },
      {
        "midi": 52,
        "time": 70.625,
        "duration": 0.208,
        "velocity": 1,
        "hand": "left"
      },
      {
        "midi": 76,
        "time": 70.625,
        "duration": 0.208,
        "velocity": 1,
        "hand": "right"
      },
      {
        "midi": 54,
        "time": 70.833,
        "duration": 0.417,
        "velocity": 1,
        "hand": "left"
      },
      {
        "midi": 78,
        "time": 70.833,
        "duration": 0.417,
        "velocity": 1,
        "hand": "right"
      },
      {
        "midi": 43,
        "time": 71.25,
        "duration": 0.417,
        "velocity": 1,
        "hand": "left"
      },
      {
        "midi": 47,
        "time": 71.25,
        "duration": 0.417,
        "velocity": 1,
        "hand": "left"
      },
      {
        "midi": 50,
        "time": 71.25,
        "duration": 0.417,
        "velocity": 1,
        "hand": "left"
      },
      {
        "midi": 55,
        "time": 71.25,
        "duration": 0.417,
        "velocity": 1,
        "hand": "left"
      },
      {
        "midi": 67,
        "time": 71.25,
        "duration": 0.417,
        "velocity": 1,
        "hand": "right"
      },
      {
        "midi": 71,
        "time": 71.25,
        "duration": 0.417,
        "velocity": 1,
        "hand": "right"
      },
      {
        "midi": 74,
        "time": 71.25,
        "duration": 0.417,
        "velocity": 1,
        "hand": "right"
      },
      {
        "midi": 79,
        "time": 71.25,
        "duration": 0.417,
        "velocity": 1,
        "hand": "right"
      },
      {
        "midi": 41,
        "time": 71.667,
        "duration": 0.833,
        "velocity": 1,
        "hand": "left"
      },
      {
        "midi": 65,
        "time": 71.667,
        "duration": 0.833,
        "velocity": 1,
        "hand": "right"
      },
      {
        "midi": 53,
        "time": 72.083,
        "duration": 0.417,
        "velocity": 1,
        "hand": "left"
      },
      {
        "midi": 77,
        "time": 72.083,
        "duration": 0.417,
        "velocity": 1,
        "hand": "right"
      },
      {
        "midi": 42,
        "time": 72.5,
        "duration": 0.833,
        "velocity": 1,
        "hand": "left"
      },
      {
        "midi": 66,
        "time": 72.5,
        "duration": 0.833,
        "velocity": 1,
        "hand": "right"
      },
      {
        "midi": 54,
        "time": 72.917,
        "duration": 0.417,
        "velocity": 1,
        "hand": "left"
      },
      {
        "midi": 78,
        "time": 72.917,
        "duration": 0.417,
        "velocity": 1,
        "hand": "right"
      },
      {
        "midi": 47,
        "time": 73.333,
        "duration": 0.208,
        "velocity": 1,
        "hand": "left"
      },
      {
        "midi": 71,
        "time": 73.333,
        "duration": 0.208,
        "velocity": 1,
        "hand": "right"
      },
      {
        "midi": 49,
        "time": 73.542,
        "duration": 0.208,
        "velocity": 1,
        "hand": "left"
      },
      {
        "midi": 73,
        "time": 73.542,
        "duration": 0.208,
        "velocity": 1,
        "hand": "right"
      },
      {
        "midi": 50,
        "time": 73.75,
        "duration": 0.208,
        "velocity": 1,
        "hand": "left"
      },
      {
        "midi": 74,
        "time": 73.75,
        "duration": 0.208,
        "velocity": 1,
        "hand": "right"
      },
      {
        "midi": 52,
        "time": 73.958,
        "duration": 0.208,
        "velocity": 1,
        "hand": "left"
      },
      {
        "midi": 76,
        "time": 73.958,
        "duration": 0.208,
        "velocity": 1,
        "hand": "right"
      },
      {
        "midi": 54,
        "time": 74.167,
        "duration": 0.417,
        "velocity": 1,
        "hand": "left"
      },
      {
        "midi": 78,
        "time": 74.167,
        "duration": 0.417,
        "velocity": 1,
        "hand": "right"
      },
      {
        "midi": 43,
        "time": 74.583,
        "duration": 0.417,
        "velocity": 1,
        "hand": "left"
      },
      {
        "midi": 47,
        "time": 74.583,
        "duration": 0.417,
        "velocity": 1,
        "hand": "left"
      },
      {
        "midi": 50,
        "time": 74.583,
        "duration": 0.417,
        "velocity": 1,
        "hand": "left"
      },
      {
        "midi": 55,
        "time": 74.583,
        "duration": 0.417,
        "velocity": 1,
        "hand": "left"
      },
      {
        "midi": 67,
        "time": 74.583,
        "duration": 0.417,
        "velocity": 1,
        "hand": "right"
      },
      {
        "midi": 71,
        "time": 74.583,
        "duration": 0.417,
        "velocity": 1,
        "hand": "right"
      },
      {
        "midi": 74,
        "time": 74.583,
        "duration": 0.417,
        "velocity": 1,
        "hand": "right"
      },
      {
        "midi": 79,
        "time": 74.583,
        "duration": 0.417,
        "velocity": 1,
        "hand": "right"
      },
      {
        "midi": 41,
        "time": 75,
        "duration": 0.833,
        "velocity": 1,
        "hand": "left"
      },
      {
        "midi": 65,
        "time": 75,
        "duration": 0.833,
        "velocity": 1,
        "hand": "right"
      },
      {
        "midi": 53,
        "time": 75.417,
        "duration": 0.417,
        "velocity": 1,
        "hand": "left"
      },
      {
        "midi": 77,
        "time": 75.417,
        "duration": 0.417,
        "velocity": 1,
        "hand": "right"
      },
      {
        "midi": 42,
        "time": 75.833,
        "duration": 0.833,
        "velocity": 1,
        "hand": "left"
      },
      {
        "midi": 66,
        "time": 75.833,
        "duration": 0.833,
        "velocity": 1,
        "hand": "right"
      },
      {
        "midi": 54,
        "time": 76.25,
        "duration": 0.417,
        "velocity": 1,
        "hand": "left"
      },
      {
        "midi": 78,
        "time": 76.25,
        "duration": 0.417,
        "velocity": 1,
        "hand": "right"
      },
      {
        "midi": 50,
        "time": 76.667,
        "duration": 0.208,
        "velocity": 1,
        "hand": "left"
      },
      {
        "midi": 74,
        "time": 76.667,
        "duration": 0.208,
        "velocity": 1,
        "hand": "right"
      },
      {
        "midi": 52,
        "time": 76.875,
        "duration": 0.208,
        "velocity": 1,
        "hand": "left"
      },
      {
        "midi": 76,
        "time": 76.875,
        "duration": 0.208,
        "velocity": 1,
        "hand": "right"
      },
      {
        "midi": 54,
        "time": 77.083,
        "duration": 0.208,
        "velocity": 1,
        "hand": "left"
      },
      {
        "midi": 78,
        "time": 77.083,
        "duration": 0.208,
        "velocity": 1,
        "hand": "right"
      },
      {
        "midi": 55,
        "time": 77.292,
        "duration": 0.208,
        "velocity": 1,
        "hand": "left"
      },
      {
        "midi": 79,
        "time": 77.292,
        "duration": 0.208,
        "velocity": 1,
        "hand": "right"
      },
      {
        "midi": 57,
        "time": 77.5,
        "duration": 0.417,
        "velocity": 1,
        "hand": "left"
      },
      {
        "midi": 81,
        "time": 77.5,
        "duration": 0.417,
        "velocity": 1,
        "hand": "right"
      },
      {
        "midi": 46,
        "time": 77.917,
        "duration": 0.417,
        "velocity": 1,
        "hand": "left"
      },
      {
        "midi": 50,
        "time": 77.917,
        "duration": 0.417,
        "velocity": 1,
        "hand": "left"
      },
      {
        "midi": 53,
        "time": 77.917,
        "duration": 0.417,
        "velocity": 1,
        "hand": "left"
      },
      {
        "midi": 58,
        "time": 77.917,
        "duration": 0.417,
        "velocity": 1,
        "hand": "left"
      },
      {
        "midi": 70,
        "time": 77.917,
        "duration": 0.417,
        "velocity": 1,
        "hand": "right"
      },
      {
        "midi": 74,
        "time": 77.917,
        "duration": 0.417,
        "velocity": 1,
        "hand": "right"
      },
      {
        "midi": 77,
        "time": 77.917,
        "duration": 0.417,
        "velocity": 1,
        "hand": "right"
      },
      {
        "midi": 82,
        "time": 77.917,
        "duration": 0.417,
        "velocity": 1,
        "hand": "right"
      },
      {
        "midi": 44,
        "time": 78.333,
        "duration": 0.833,
        "velocity": 1,
        "hand": "left"
      },
      {
        "midi": 68,
        "time": 78.333,
        "duration": 0.833,
        "velocity": 1,
        "hand": "right"
      },
      {
        "midi": 56,
        "time": 78.75,
        "duration": 0.417,
        "velocity": 1,
        "hand": "left"
      },
      {
        "midi": 80,
        "time": 78.75,
        "duration": 0.417,
        "velocity": 1,
        "hand": "right"
      },
      {
        "midi": 45,
        "time": 79.167,
        "duration": 0.833,
        "velocity": 1,
        "hand": "left"
      },
      {
        "midi": 69,
        "time": 79.167,
        "duration": 0.833,
        "velocity": 1,
        "hand": "right"
      },
      {
        "midi": 57,
        "time": 79.583,
        "duration": 0.417,
        "velocity": 1,
        "hand": "left"
      },
      {
        "midi": 81,
        "time": 79.583,
        "duration": 0.417,
        "velocity": 1,
        "hand": "right"
      },
      {
        "midi": 50,
        "time": 80,
        "duration": 0.208,
        "velocity": 1,
        "hand": "left"
      },
      {
        "midi": 74,
        "time": 80,
        "duration": 0.208,
        "velocity": 1,
        "hand": "right"
      },
      {
        "midi": 52,
        "time": 80.208,
        "duration": 0.208,
        "velocity": 1,
        "hand": "left"
      },
      {
        "midi": 76,
        "time": 80.208,
        "duration": 0.208,
        "velocity": 1,
        "hand": "right"
      },
      {
        "midi": 54,
        "time": 80.417,
        "duration": 0.208,
        "velocity": 1,
        "hand": "left"
      },
      {
        "midi": 78,
        "time": 80.417,
        "duration": 0.208,
        "velocity": 1,
        "hand": "right"
      },
      {
        "midi": 55,
        "time": 80.625,
        "duration": 0.208,
        "velocity": 1,
        "hand": "left"
      },
      {
        "midi": 79,
        "time": 80.625,
        "duration": 0.208,
        "velocity": 1,
        "hand": "right"
      },
      {
        "midi": 57,
        "time": 80.833,
        "duration": 0.417,
        "velocity": 1,
        "hand": "left"
      },
      {
        "midi": 81,
        "time": 80.833,
        "duration": 0.417,
        "velocity": 1,
        "hand": "right"
      },
      {
        "midi": 46,
        "time": 81.25,
        "duration": 0.417,
        "velocity": 1,
        "hand": "left"
      },
      {
        "midi": 50,
        "time": 81.25,
        "duration": 0.417,
        "velocity": 1,
        "hand": "left"
      },
      {
        "midi": 53,
        "time": 81.25,
        "duration": 0.417,
        "velocity": 1,
        "hand": "left"
      },
      {
        "midi": 58,
        "time": 81.25,
        "duration": 0.417,
        "velocity": 1,
        "hand": "left"
      },
      {
        "midi": 70,
        "time": 81.25,
        "duration": 0.417,
        "velocity": 1,
        "hand": "right"
      },
      {
        "midi": 74,
        "time": 81.25,
        "duration": 0.417,
        "velocity": 1,
        "hand": "right"
      },
      {
        "midi": 77,
        "time": 81.25,
        "duration": 0.417,
        "velocity": 1,
        "hand": "right"
      },
      {
        "midi": 82,
        "time": 81.25,
        "duration": 0.417,
        "velocity": 1,
        "hand": "right"
      },
      {
        "midi": 44,
        "time": 81.667,
        "duration": 0.833,
        "velocity": 1,
        "hand": "left"
      },
      {
        "midi": 68,
        "time": 81.667,
        "duration": 0.833,
        "velocity": 1,
        "hand": "right"
      },
      {
        "midi": 56,
        "time": 82.083,
        "duration": 0.417,
        "velocity": 1,
        "hand": "left"
      },
      {
        "midi": 80,
        "time": 82.083,
        "duration": 0.417,
        "velocity": 1,
        "hand": "right"
      },
      {
        "midi": 45,
        "time": 82.5,
        "duration": 0.833,
        "velocity": 1,
        "hand": "left"
      },
      {
        "midi": 69,
        "time": 82.5,
        "duration": 0.833,
        "velocity": 1,
        "hand": "right"
      },
      {
        "midi": 57,
        "time": 82.917,
        "duration": 0.417,
        "velocity": 1,
        "hand": "left"
      },
      {
        "midi": 81,
        "time": 82.917,
        "duration": 0.417,
        "velocity": 1,
        "hand": "right"
      },
      {
        "midi": 44,
        "time": 83.333,
        "duration": 0.833,
        "velocity": 1,
        "hand": "left"
      },
      {
        "midi": 68,
        "time": 83.333,
        "duration": 0.833,
        "velocity": 1,
        "hand": "right"
      },
      {
        "midi": 56,
        "time": 83.75,
        "duration": 0.417,
        "velocity": 1,
        "hand": "left"
      },
      {
        "midi": 80,
        "time": 83.75,
        "duration": 0.417,
        "velocity": 1,
        "hand": "right"
      },
      {
        "midi": 45,
        "time": 84.167,
        "duration": 0.833,
        "velocity": 1,
        "hand": "left"
      },
      {
        "midi": 69,
        "time": 84.167,
        "duration": 0.833,
        "velocity": 1,
        "hand": "right"
      },
      {
        "midi": 57,
        "time": 84.583,
        "duration": 0.417,
        "velocity": 1,
        "hand": "left"
      },
      {
        "midi": 81,
        "time": 84.583,
        "duration": 0.417,
        "velocity": 1,
        "hand": "right"
      },
      {
        "midi": 46,
        "time": 85,
        "duration": 0.833,
        "velocity": 1,
        "hand": "left"
      },
      {
        "midi": 70,
        "time": 85,
        "duration": 0.833,
        "velocity": 1,
        "hand": "right"
      },
      {
        "midi": 58,
        "time": 85.417,
        "duration": 0.417,
        "velocity": 1,
        "hand": "left"
      },
      {
        "midi": 82,
        "time": 85.417,
        "duration": 0.417,
        "velocity": 1,
        "hand": "right"
      },
      {
        "midi": 40,
        "time": 85.833,
        "duration": 0.833,
        "velocity": 1,
        "hand": "left"
      },
      {
        "midi": 64,
        "time": 85.833,
        "duration": 0.833,
        "velocity": 1,
        "hand": "right"
      },
      {
        "midi": 52,
        "time": 86.25,
        "duration": 0.417,
        "velocity": 1,
        "hand": "left"
      },
      {
        "midi": 76,
        "time": 86.25,
        "duration": 0.417,
        "velocity": 1,
        "hand": "right"
      },
      {
        "midi": 43,
        "time": 86.667,
        "duration": 0.833,
        "velocity": 1,
        "hand": "left"
      },
      {
        "midi": 67,
        "time": 86.667,
        "duration": 0.833,
        "velocity": 1,
        "hand": "right"
      },
      {
        "midi": 55,
        "time": 87.083,
        "duration": 0.417,
        "velocity": 1,
        "hand": "left"
      },
      {
        "midi": 79,
        "time": 87.083,
        "duration": 0.417,
        "velocity": 1,
        "hand": "right"
      },
      {
        "midi": 34,
        "time": 87.5,
        "duration": 0.833,
        "velocity": 1,
        "hand": "left"
      },
      {
        "midi": 58,
        "time": 87.5,
        "duration": 0.833,
        "velocity": 1,
        "hand": "left"
      },
      {
        "midi": 46,
        "time": 87.917,
        "duration": 0.417,
        "velocity": 1,
        "hand": "left"
      },
      {
        "midi": 70,
        "time": 87.917,
        "duration": 0.417,
        "velocity": 1,
        "hand": "right"
      },
      {
        "midi": 38,
        "time": 88.333,
        "duration": 0.833,
        "velocity": 1,
        "hand": "left"
      },
      {
        "midi": 62,
        "time": 88.333,
        "duration": 0.833,
        "velocity": 1,
        "hand": "right"
      },
      {
        "midi": 50,
        "time": 88.75,
        "duration": 0.417,
        "velocity": 1,
        "hand": "left"
      },
      {
        "midi": 74,
        "time": 88.75,
        "duration": 0.417,
        "velocity": 1,
        "hand": "right"
      },
      {
        "midi": 33,
        "time": 89.167,
        "duration": 0.833,
        "velocity": 1,
        "hand": "left"
      },
      {
        "midi": 57,
        "time": 89.167,
        "duration": 0.833,
        "velocity": 1,
        "hand": "left"
      },
      {
        "midi": 45,
        "time": 89.583,
        "duration": 0.417,
        "velocity": 1,
        "hand": "left"
      },
      {
        "midi": 69,
        "time": 89.583,
        "duration": 0.417,
        "velocity": 1,
        "hand": "right"
      },
      {
        "midi": 44,
        "time": 90,
        "duration": 0.208,
        "velocity": 1,
        "hand": "left"
      },
      {
        "midi": 45,
        "time": 90.208,
        "duration": 0.208,
        "velocity": 1,
        "hand": "left"
      },
      {
        "midi": 48,
        "time": 90.417,
        "duration": 0.208,
        "velocity": 1,
        "hand": "left"
      },
      {
        "midi": 49,
        "time": 90.625,
        "duration": 0.208,
        "velocity": 1,
        "hand": "left"
      },
      {
        "midi": 51,
        "time": 90.833,
        "duration": 0.208,
        "velocity": 1,
        "hand": "left"
      },
      {
        "midi": 52,
        "time": 91.042,
        "duration": 0.208,
        "velocity": 1,
        "hand": "left"
      },
      {
        "midi": 56,
        "time": 91.25,
        "duration": 0.208,
        "velocity": 1,
        "hand": "left"
      },
      {
        "midi": 57,
        "time": 91.458,
        "duration": 0.208,
        "velocity": 1,
        "hand": "left"
      },
      {
        "midi": 56,
        "time": 91.667,
        "duration": 0.208,
        "velocity": 1,
        "hand": "left"
      },
      {
        "midi": 57,
        "time": 91.875,
        "duration": 0.208,
        "velocity": 1,
        "hand": "left"
      },
      {
        "midi": 60,
        "time": 92.083,
        "duration": 0.208,
        "velocity": 1,
        "hand": "right"
      },
      {
        "midi": 61,
        "time": 92.292,
        "duration": 0.208,
        "velocity": 1,
        "hand": "right"
      },
      {
        "midi": 63,
        "time": 92.5,
        "duration": 0.208,
        "velocity": 1,
        "hand": "right"
      },
      {
        "midi": 64,
        "time": 92.708,
        "duration": 0.208,
        "velocity": 1,
        "hand": "right"
      },
      {
        "midi": 68,
        "time": 92.917,
        "duration": 0.208,
        "velocity": 1,
        "hand": "right"
      },
      {
        "midi": 69,
        "time": 93.125,
        "duration": 0.208,
        "velocity": 1,
        "hand": "right"
      },
      {
        "midi": 68,
        "time": 93.333,
        "duration": 0.208,
        "velocity": 1,
        "hand": "right"
      },
      {
        "midi": 69,
        "time": 93.542,
        "duration": 0.208,
        "velocity": 1,
        "hand": "right"
      },
      {
        "midi": 72,
        "time": 93.75,
        "duration": 0.208,
        "velocity": 1,
        "hand": "right"
      },
      {
        "midi": 73,
        "time": 93.958,
        "duration": 0.208,
        "velocity": 1,
        "hand": "right"
      },
      {
        "midi": 75,
        "time": 94.167,
        "duration": 0.208,
        "velocity": 1,
        "hand": "right"
      },
      {
        "midi": 76,
        "time": 94.375,
        "duration": 0.208,
        "velocity": 1,
        "hand": "right"
      },
      {
        "midi": 80,
        "time": 94.583,
        "duration": 0.208,
        "velocity": 1,
        "hand": "right"
      },
      {
        "midi": 81,
        "time": 94.792,
        "duration": 0.208,
        "velocity": 1,
        "hand": "right"
      },
      {
        "midi": 80,
        "time": 95,
        "duration": 0.208,
        "velocity": 1,
        "hand": "right"
      },
      {
        "midi": 81,
        "time": 95.208,
        "duration": 0.208,
        "velocity": 1,
        "hand": "right"
      },
      {
        "midi": 84,
        "time": 95.417,
        "duration": 0.208,
        "velocity": 1,
        "hand": "right"
      },
      {
        "midi": 85,
        "time": 95.625,
        "duration": 0.208,
        "velocity": 1,
        "hand": "right"
      },
      {
        "midi": 87,
        "time": 95.833,
        "duration": 0.208,
        "velocity": 1,
        "hand": "right"
      },
      {
        "midi": 88,
        "time": 96.042,
        "duration": 0.208,
        "velocity": 1,
        "hand": "right"
      },
      {
        "midi": 92,
        "time": 96.25,
        "duration": 0.208,
        "velocity": 1,
        "hand": "right"
      },
      {
        "midi": 93,
        "time": 96.458,
        "duration": 0.208,
        "velocity": 1,
        "hand": "right"
      },
      {
        "midi": 50,
        "time": 96.667,
        "duration": 0.833,
        "velocity": 1,
        "hand": "left"
      },
      {
        "midi": 54,
        "time": 96.667,
        "duration": 0.833,
        "velocity": 1,
        "hand": "left"
      },
      {
        "midi": 57,
        "time": 96.667,
        "duration": 0.417,
        "velocity": 1,
        "hand": "left"
      },
      {
        "midi": 74,
        "time": 96.667,
        "duration": 0.417,
        "velocity": 1,
        "hand": "right"
      },
      {
        "midi": 78,
        "time": 96.667,
        "duration": 0.417,
        "velocity": 1,
        "hand": "right"
      },
      {
        "midi": 81,
        "time": 96.667,
        "duration": 0.833,
        "velocity": 1,
        "hand": "right"
      },
      {
        "midi": 62,
        "time": 97.083,
        "duration": 0.417,
        "velocity": 1,
        "hand": "right"
      },
      {
        "midi": 69,
        "time": 97.083,
        "duration": 0.417,
        "velocity": 1,
        "hand": "right"
      },
      {
        "midi": 50,
        "time": 97.5,
        "duration": 0.833,
        "velocity": 1,
        "hand": "left"
      },
      {
        "midi": 55,
        "time": 97.5,
        "duration": 0.833,
        "velocity": 1,
        "hand": "left"
      },
      {
        "midi": 58,
        "time": 97.5,
        "duration": 0.417,
        "velocity": 1,
        "hand": "left"
      },
      {
        "midi": 70,
        "time": 97.5,
        "duration": 0.417,
        "velocity": 1,
        "hand": "right"
      },
      {
        "midi": 74,
        "time": 97.5,
        "duration": 0.417,
        "velocity": 1,
        "hand": "right"
      },
      {
        "midi": 76,
        "time": 97.5,
        "duration": 0.833,
        "velocity": 1,
        "hand": "right"
      },
      {
        "midi": 62,
        "time": 97.917,
        "duration": 0.417,
        "velocity": 1,
        "hand": "right"
      },
      {
        "midi": 64,
        "time": 97.917,
        "duration": 0.417,
        "velocity": 1,
        "hand": "right"
      },
      {
        "midi": 50,
        "time": 98.333,
        "duration": 0.833,
        "velocity": 1,
        "hand": "left"
      },
      {
        "midi": 54,
        "time": 98.333,
        "duration": 0.833,
        "velocity": 1,
        "hand": "left"
      },
      {
        "midi": 57,
        "time": 98.333,
        "duration": 0.417,
        "velocity": 1,
        "hand": "left"
      },
      {
        "midi": 74,
        "time": 98.333,
        "duration": 0.417,
        "velocity": 1,
        "hand": "right"
      },
      {
        "midi": 78,
        "time": 98.333,
        "duration": 0.417,
        "velocity": 1,
        "hand": "right"
      },
      {
        "midi": 81,
        "time": 98.333,
        "duration": 0.833,
        "velocity": 1,
        "hand": "right"
      },
      {
        "midi": 62,
        "time": 98.75,
        "duration": 0.417,
        "velocity": 1,
        "hand": "right"
      },
      {
        "midi": 69,
        "time": 98.75,
        "duration": 0.417,
        "velocity": 1,
        "hand": "right"
      },
      {
        "midi": 50,
        "time": 99.167,
        "duration": 0.833,
        "velocity": 1,
        "hand": "left"
      },
      {
        "midi": 55,
        "time": 99.167,
        "duration": 0.833,
        "velocity": 1,
        "hand": "left"
      },
      {
        "midi": 58,
        "time": 99.167,
        "duration": 0.417,
        "velocity": 1,
        "hand": "left"
      },
      {
        "midi": 70,
        "time": 99.167,
        "duration": 0.417,
        "velocity": 1,
        "hand": "right"
      },
      {
        "midi": 74,
        "time": 99.167,
        "duration": 0.417,
        "velocity": 1,
        "hand": "right"
      },
      {
        "midi": 76,
        "time": 99.167,
        "duration": 0.833,
        "velocity": 1,
        "hand": "right"
      },
      {
        "midi": 62,
        "time": 99.583,
        "duration": 0.417,
        "velocity": 1,
        "hand": "right"
      },
      {
        "midi": 64,
        "time": 99.583,
        "duration": 0.417,
        "velocity": 1,
        "hand": "right"
      },
      {
        "midi": 60,
        "time": 100,
        "duration": 1.667,
        "velocity": 1,
        "hand": "right"
      },
      {
        "midi": 62,
        "time": 100,
        "duration": 1.667,
        "velocity": 1,
        "hand": "right"
      },
      {
        "midi": 66,
        "time": 100,
        "duration": 1.667,
        "velocity": 1,
        "hand": "right"
      },
      {
        "midi": 69,
        "time": 100,
        "duration": 1.667,
        "velocity": 1,
        "hand": "right"
      },
      {
        "midi": 74,
        "time": 100,
        "duration": 0.208,
        "velocity": 1,
        "hand": "right"
      },
      {
        "midi": 76,
        "time": 100.208,
        "duration": 0.208,
        "velocity": 1,
        "hand": "right"
      },
      {
        "midi": 74,
        "time": 100.417,
        "duration": 0.208,
        "velocity": 1,
        "hand": "right"
      },
      {
        "midi": 76,
        "time": 100.625,
        "duration": 0.208,
        "velocity": 1,
        "hand": "right"
      },
      {
        "midi": 78,
        "time": 100.833,
        "duration": 0.417,
        "velocity": 1,
        "hand": "right"
      },
      {
        "midi": 78,
        "time": 101.25,
        "duration": 0.417,
        "velocity": 1,
        "hand": "right"
      },
      {
        "midi": 58,
        "time": 101.667,
        "duration": 0.208,
        "velocity": 1,
        "hand": "left"
      },
      {
        "midi": 67,
        "time": 101.667,
        "duration": 0.833,
        "velocity": 1,
        "hand": "right"
      },
      {
        "midi": 74,
        "time": 101.667,
        "duration": 0.833,
        "velocity": 1,
        "hand": "right"
      },
      {
        "midi": 76,
        "time": 101.667,
        "duration": 0.417,
        "velocity": 1,
        "hand": "right"
      },
      {
        "midi": 57,
        "time": 101.875,
        "duration": 0.208,
        "velocity": 1,
        "hand": "left"
      },
      {
        "midi": 55,
        "time": 102.083,
        "duration": 0.208,
        "velocity": 1,
        "hand": "left"
      },
      {
        "midi": 79,
        "time": 102.083,
        "duration": 0.417,
        "velocity": 1,
        "hand": "right"
      },
      {
        "midi": 54,
        "time": 102.292,
        "duration": 0.208,
        "velocity": 1,
        "hand": "left"
      },
      {
        "midi": 52,
        "time": 102.5,
        "duration": 0.417,
        "velocity": 1,
        "hand": "left"
      },
      {
        "midi": 73,
        "time": 102.5,
        "duration": 0.417,
        "velocity": 1,
        "hand": "right"
      },
      {
        "midi": 76,
        "time": 102.5,
        "duration": 0.833,
        "velocity": 1,
        "hand": "right"
      },
      {
        "midi": 57,
        "time": 102.917,
        "duration": 0.417,
        "velocity": 1,
        "hand": "left"
      },
      {
        "midi": 69,
        "time": 102.917,
        "duration": 0.417,
        "velocity": 1,
        "hand": "right"
      },
      {
        "midi": 50,
        "time": 103.333,
        "duration": 0.833,
        "velocity": 1,
        "hand": "left"
      },
      {
        "midi": 54,
        "time": 103.333,
        "duration": 0.833,
        "velocity": 1,
        "hand": "left"
      },
      {
        "midi": 57,
        "time": 103.333,
        "duration": 0.417,
        "velocity": 1,
        "hand": "left"
      },
      {
        "midi": 74,
        "time": 103.333,
        "duration": 0.417,
        "velocity": 1,
        "hand": "right"
      },
      {
        "midi": 78,
        "time": 103.333,
        "duration": 0.417,
        "velocity": 1,
        "hand": "right"
      },
      {
        "midi": 81,
        "time": 103.333,
        "duration": 0.833,
        "velocity": 1,
        "hand": "right"
      },
      {
        "midi": 62,
        "time": 103.75,
        "duration": 0.417,
        "velocity": 1,
        "hand": "right"
      },
      {
        "midi": 69,
        "time": 103.75,
        "duration": 0.417,
        "velocity": 1,
        "hand": "right"
      },
      {
        "midi": 50,
        "time": 104.167,
        "duration": 0.833,
        "velocity": 1,
        "hand": "left"
      },
      {
        "midi": 55,
        "time": 104.167,
        "duration": 0.833,
        "velocity": 1,
        "hand": "left"
      },
      {
        "midi": 58,
        "time": 104.167,
        "duration": 0.417,
        "velocity": 1,
        "hand": "left"
      },
      {
        "midi": 70,
        "time": 104.167,
        "duration": 0.417,
        "velocity": 1,
        "hand": "right"
      },
      {
        "midi": 74,
        "time": 104.167,
        "duration": 0.417,
        "velocity": 1,
        "hand": "right"
      },
      {
        "midi": 76,
        "time": 104.167,
        "duration": 0.833,
        "velocity": 1,
        "hand": "right"
      },
      {
        "midi": 62,
        "time": 104.583,
        "duration": 0.417,
        "velocity": 1,
        "hand": "right"
      },
      {
        "midi": 64,
        "time": 104.583,
        "duration": 0.417,
        "velocity": 1,
        "hand": "right"
      },
      {
        "midi": 50,
        "time": 105,
        "duration": 0.833,
        "velocity": 1,
        "hand": "left"
      },
      {
        "midi": 54,
        "time": 105,
        "duration": 0.833,
        "velocity": 1,
        "hand": "left"
      },
      {
        "midi": 57,
        "time": 105,
        "duration": 0.417,
        "velocity": 1,
        "hand": "left"
      },
      {
        "midi": 74,
        "time": 105,
        "duration": 0.417,
        "velocity": 1,
        "hand": "right"
      },
      {
        "midi": 78,
        "time": 105,
        "duration": 0.417,
        "velocity": 1,
        "hand": "right"
      },
      {
        "midi": 81,
        "time": 105,
        "duration": 0.833,
        "velocity": 1,
        "hand": "right"
      },
      {
        "midi": 62,
        "time": 105.417,
        "duration": 0.417,
        "velocity": 1,
        "hand": "right"
      },
      {
        "midi": 69,
        "time": 105.417,
        "duration": 0.417,
        "velocity": 1,
        "hand": "right"
      },
      {
        "midi": 50,
        "time": 105.833,
        "duration": 0.833,
        "velocity": 1,
        "hand": "left"
      },
      {
        "midi": 55,
        "time": 105.833,
        "duration": 0.833,
        "velocity": 1,
        "hand": "left"
      },
      {
        "midi": 58,
        "time": 105.833,
        "duration": 0.417,
        "velocity": 1,
        "hand": "left"
      },
      {
        "midi": 70,
        "time": 105.833,
        "duration": 0.417,
        "velocity": 1,
        "hand": "right"
      },
      {
        "midi": 74,
        "time": 105.833,
        "duration": 0.417,
        "velocity": 1,
        "hand": "right"
      },
      {
        "midi": 76,
        "time": 105.833,
        "duration": 0.833,
        "velocity": 1,
        "hand": "right"
      },
      {
        "midi": 62,
        "time": 106.25,
        "duration": 0.417,
        "velocity": 1,
        "hand": "right"
      },
      {
        "midi": 64,
        "time": 106.25,
        "duration": 0.417,
        "velocity": 1,
        "hand": "right"
      },
      {
        "midi": 60,
        "time": 106.667,
        "duration": 1.667,
        "velocity": 1,
        "hand": "right"
      },
      {
        "midi": 62,
        "time": 106.667,
        "duration": 1.667,
        "velocity": 1,
        "hand": "right"
      },
      {
        "midi": 66,
        "time": 106.667,
        "duration": 1.667,
        "velocity": 1,
        "hand": "right"
      },
      {
        "midi": 69,
        "time": 106.667,
        "duration": 1.667,
        "velocity": 1,
        "hand": "right"
      },
      {
        "midi": 74,
        "time": 106.667,
        "duration": 0.208,
        "velocity": 1,
        "hand": "right"
      },
      {
        "midi": 76,
        "time": 106.875,
        "duration": 0.208,
        "velocity": 1,
        "hand": "right"
      },
      {
        "midi": 74,
        "time": 107.083,
        "duration": 0.208,
        "velocity": 1,
        "hand": "right"
      },
      {
        "midi": 76,
        "time": 107.292,
        "duration": 0.208,
        "velocity": 1,
        "hand": "right"
      },
      {
        "midi": 78,
        "time": 107.5,
        "duration": 0.417,
        "velocity": 1,
        "hand": "right"
      },
      {
        "midi": 78,
        "time": 107.917,
        "duration": 0.417,
        "velocity": 1,
        "hand": "right"
      },
      {
        "midi": 58,
        "time": 108.333,
        "duration": 0.208,
        "velocity": 1,
        "hand": "left"
      },
      {
        "midi": 62,
        "time": 108.333,
        "duration": 0.208,
        "velocity": 1,
        "hand": "right"
      },
      {
        "midi": 74,
        "time": 108.333,
        "duration": 0.208,
        "velocity": 1,
        "hand": "right"
      },
      {
        "midi": 76,
        "time": 108.333,
        "duration": 0.208,
        "velocity": 1,
        "hand": "right"
      },
      {
        "midi": 78,
        "time": 108.542,
        "duration": 0.208,
        "velocity": 1,
        "hand": "right"
      },
      {
        "midi": 58,
        "time": 108.75,
        "duration": 0.208,
        "velocity": 1,
        "hand": "left"
      },
      {
        "midi": 79,
        "time": 108.75,
        "duration": 0.208,
        "velocity": 1,
        "hand": "right"
      },
      {
        "midi": 57,
        "time": 108.958,
        "duration": 0.208,
        "velocity": 1,
        "hand": "left"
      },
      {
        "midi": 81,
        "time": 108.958,
        "duration": 0.208,
        "velocity": 1,
        "hand": "right"
      },
      {
        "midi": 55,
        "time": 109.167,
        "duration": 0.417,
        "velocity": 1,
        "hand": "left"
      },
      {
        "midi": 82,
        "time": 109.167,
        "duration": 0.417,
        "velocity": 1,
        "hand": "right"
      },
      {
        "midi": 43,
        "time": 110,
        "duration": 0.833,
        "velocity": 1,
        "hand": "left"
      },
      {
        "midi": 51,
        "time": 110,
        "duration": 0.833,
        "velocity": 1,
        "hand": "left"
      },
      {
        "midi": 61,
        "time": 110.208,
        "duration": 0.208,
        "velocity": 1,
        "hand": "right"
      },
      {
        "midi": 63,
        "time": 110.208,
        "duration": 0.208,
        "velocity": 1,
        "hand": "right"
      },
      {
        "midi": 58,
        "time": 110.417,
        "duration": 0.417,
        "velocity": 1,
        "hand": "left"
      },
      {
        "midi": 61,
        "time": 110.625,
        "duration": 0.208,
        "velocity": 1,
        "hand": "right"
      },
      {
        "midi": 63,
        "time": 110.625,
        "duration": 0.208,
        "velocity": 1,
        "hand": "right"
      },
      {
        "midi": 56,
        "time": 110.833,
        "duration": 0.833,
        "velocity": 1,
        "hand": "left"
      },
      {
        "midi": 60,
        "time": 110.833,
        "duration": 0.417,
        "velocity": 1,
        "hand": "right"
      },
      {
        "midi": 51,
        "time": 111.25,
        "duration": 0.417,
        "velocity": 1,
        "hand": "left"
      },
      {
        "midi": 63,
        "time": 111.25,
        "duration": 0.417,
        "velocity": 1,
        "hand": "right"
      },
      {
        "midi": 72,
        "time": 111.25,
        "duration": 0.417,
        "velocity": 1,
        "hand": "right"
      },
      {
        "midi": 45,
        "time": 111.667,
        "duration": 0.833,
        "velocity": 1,
        "hand": "left"
      },
      {
        "midi": 53,
        "time": 111.667,
        "duration": 0.833,
        "velocity": 1,
        "hand": "left"
      },
      {
        "midi": 63,
        "time": 111.875,
        "duration": 0.208,
        "velocity": 1,
        "hand": "right"
      },
      {
        "midi": 65,
        "time": 111.875,
        "duration": 0.208,
        "velocity": 1,
        "hand": "right"
      },
      {
        "midi": 60,
        "time": 112.083,
        "duration": 0.417,
        "velocity": 1,
        "hand": "right"
      },
      {
        "midi": 63,
        "time": 112.292,
        "duration": 0.208,
        "velocity": 1,
        "hand": "right"
      },
      {
        "midi": 65,
        "time": 112.292,
        "duration": 0.208,
        "velocity": 1,
        "hand": "right"
      },
      {
        "midi": 58,
        "time": 112.5,
        "duration": 0.833,
        "velocity": 1,
        "hand": "left"
      },
      {
        "midi": 62,
        "time": 112.5,
        "duration": 0.833,
        "velocity": 1,
        "hand": "right"
      },
      {
        "midi": 46,
        "time": 112.917,
        "duration": 0.417,
        "velocity": 1,
        "hand": "left"
      },
      {
        "midi": 53,
        "time": 112.917,
        "duration": 0.417,
        "velocity": 1,
        "hand": "left"
      },
      {
        "midi": 65,
        "time": 112.917,
        "duration": 0.417,
        "velocity": 1,
        "hand": "right"
      },
      {
        "midi": 74,
        "time": 112.917,
        "duration": 0.417,
        "velocity": 1,
        "hand": "right"
      },
      {
        "midi": 47,
        "time": 113.333,
        "duration": 0.417,
        "velocity": 1,
        "hand": "left"
      },
      {
        "midi": 55,
        "time": 113.333,
        "duration": 0.833,
        "velocity": 1,
        "hand": "left"
      },
      {
        "midi": 62,
        "time": 113.333,
        "duration": 0.833,
        "velocity": 1,
        "hand": "right"
      },
      {
        "midi": 59,
        "time": 113.75,
        "duration": 0.417,
        "velocity": 1,
        "hand": "left"
      },
      {
        "midi": 65,
        "time": 113.75,
        "duration": 0.417,
        "velocity": 1,
        "hand": "right"
      },
      {
        "midi": 67,
        "time": 113.75,
        "duration": 0.417,
        "velocity": 1,
        "hand": "right"
      },
      {
        "midi": 74,
        "time": 113.75,
        "duration": 0.417,
        "velocity": 1,
        "hand": "right"
      },
      {
        "midi": 48,
        "time": 114.167,
        "duration": 0.417,
        "velocity": 1,
        "hand": "left"
      },
      {
        "midi": 55,
        "time": 114.167,
        "duration": 0.833,
        "velocity": 1,
        "hand": "left"
      },
      {
        "midi": 63,
        "time": 114.167,
        "duration": 0.833,
        "velocity": 1,
        "hand": "right"
      },
      {
        "midi": 60,
        "time": 114.583,
        "duration": 0.417,
        "velocity": 1,
        "hand": "right"
      },
      {
        "midi": 67,
        "time": 114.583,
        "duration": 0.417,
        "velocity": 1,
        "hand": "right"
      },
      {
        "midi": 75,
        "time": 114.583,
        "duration": 0.417,
        "velocity": 1,
        "hand": "right"
      },
      {
        "midi": 50,
        "time": 115,
        "duration": 0.417,
        "velocity": 1,
        "hand": "left"
      },
      {
        "midi": 55,
        "time": 115,
        "duration": 0.833,
        "velocity": 1,
        "hand": "left"
      },
      {
        "midi": 65,
        "time": 115,
        "duration": 0.833,
        "velocity": 1,
        "hand": "right"
      },
      {
        "midi": 62,
        "time": 115.417,
        "duration": 0.417,
        "velocity": 1,
        "hand": "right"
      },
      {
        "midi": 71,
        "time": 115.417,
        "duration": 0.417,
        "velocity": 1,
        "hand": "right"
      },
      {
        "midi": 79,
        "time": 115.417,
        "duration": 0.417,
        "velocity": 1,
        "hand": "right"
      },
      {
        "midi": 48,
        "time": 115.833,
        "duration": 0.417,
        "velocity": 1,
        "hand": "left"
      },
      {
        "midi": 55,
        "time": 115.833,
        "duration": 0.833,
        "velocity": 1,
        "hand": "left"
      },
      {
        "midi": 63,
        "time": 115.833,
        "duration": 0.833,
        "velocity": 1,
        "hand": "right"
      },
      {
        "midi": 60,
        "time": 116.25,
        "duration": 0.417,
        "velocity": 1,
        "hand": "right"
      },
      {
        "midi": 67,
        "time": 116.25,
        "duration": 0.417,
        "velocity": 1,
        "hand": "right"
      },
      {
        "midi": 75,
        "time": 116.25,
        "duration": 0.417,
        "velocity": 1,
        "hand": "right"
      },
      {
        "midi": 47,
        "time": 116.667,
        "duration": 0.833,
        "velocity": 1,
        "hand": "left"
      },
      {
        "midi": 55,
        "time": 116.667,
        "duration": 0.833,
        "velocity": 1,
        "hand": "left"
      },
      {
        "midi": 65,
        "time": 116.875,
        "duration": 0.208,
        "velocity": 1,
        "hand": "right"
      },
      {
        "midi": 67,
        "time": 116.875,
        "duration": 0.208,
        "velocity": 1,
        "hand": "right"
      },
      {
        "midi": 62,
        "time": 117.083,
        "duration": 0.417,
        "velocity": 1,
        "hand": "right"
      },
      {
        "midi": 65,
        "time": 117.292,
        "duration": 0.208,
        "velocity": 1,
        "hand": "right"
      },
      {
        "midi": 67,
        "time": 117.292,
        "duration": 0.208,
        "velocity": 1,
        "hand": "right"
      },
      {
        "midi": 60,
        "time": 117.5,
        "duration": 0.833,
        "velocity": 1,
        "hand": "right"
      },
      {
        "midi": 64,
        "time": 117.5,
        "duration": 0.833,
        "velocity": 1,
        "hand": "right"
      },
      {
        "midi": 48,
        "time": 117.917,
        "duration": 0.417,
        "velocity": 1,
        "hand": "left"
      },
      {
        "midi": 55,
        "time": 117.917,
        "duration": 0.417,
        "velocity": 1,
        "hand": "left"
      },
      {
        "midi": 67,
        "time": 117.917,
        "duration": 0.417,
        "velocity": 1,
        "hand": "right"
      },
      {
        "midi": 76,
        "time": 117.917,
        "duration": 0.417,
        "velocity": 1,
        "hand": "right"
      },
      {
        "midi": 49,
        "time": 118.333,
        "duration": 0.833,
        "velocity": 1,
        "hand": "left"
      },
      {
        "midi": 57,
        "time": 118.333,
        "duration": 0.417,
        "velocity": 1,
        "hand": "left"
      },
      {
        "midi": 67,
        "time": 118.542,
        "duration": 0.208,
        "velocity": 1,
        "hand": "right"
      },
      {
        "midi": 69,
        "time": 118.542,
        "duration": 0.208,
        "velocity": 1,
        "hand": "right"
      },
      {
        "midi": 64,
        "time": 118.75,
        "duration": 0.417,
        "velocity": 1,
        "hand": "right"
      },
      {
        "midi": 67,
        "time": 118.958,
        "duration": 0.208,
        "velocity": 1,
        "hand": "right"
      },
      {
        "midi": 69,
        "time": 118.958,
        "duration": 0.208,
        "velocity": 1,
        "hand": "right"
      },
      {
        "midi": 62,
        "time": 119.167,
        "duration": 0.833,
        "velocity": 1,
        "hand": "right"
      },
      {
        "midi": 65,
        "time": 119.167,
        "duration": 0.833,
        "velocity": 1,
        "hand": "right"
      },
      {
        "midi": 50,
        "time": 119.583,
        "duration": 0.417,
        "velocity": 1,
        "hand": "left"
      },
      {
        "midi": 57,
        "time": 119.583,
        "duration": 0.417,
        "velocity": 1,
        "hand": "left"
      },
      {
        "midi": 69,
        "time": 119.583,
        "duration": 0.417,
        "velocity": 1,
        "hand": "right"
      },
      {
        "midi": 77,
        "time": 119.583,
        "duration": 0.417,
        "velocity": 1,
        "hand": "right"
      },
      {
        "midi": 49,
        "time": 120,
        "duration": 0.833,
        "velocity": 1,
        "hand": "left"
      },
      {
        "midi": 57,
        "time": 120,
        "duration": 0.833,
        "velocity": 1,
        "hand": "left"
      },
      {
        "midi": 64,
        "time": 120,
        "duration": 0.833,
        "velocity": 1,
        "hand": "right"
      },
      {
        "midi": 61,
        "time": 120.417,
        "duration": 0.417,
        "velocity": 1,
        "hand": "right"
      },
      {
        "midi": 67,
        "time": 120.417,
        "duration": 0.417,
        "velocity": 1,
        "hand": "right"
      },
      {
        "midi": 69,
        "time": 120.417,
        "duration": 0.417,
        "velocity": 1,
        "hand": "right"
      },
      {
        "midi": 76,
        "time": 120.417,
        "duration": 0.417,
        "velocity": 1,
        "hand": "right"
      },
      {
        "midi": 50,
        "time": 120.833,
        "duration": 0.417,
        "velocity": 1,
        "hand": "left"
      },
      {
        "midi": 57,
        "time": 120.833,
        "duration": 0.833,
        "velocity": 1,
        "hand": "left"
      },
      {
        "midi": 65,
        "time": 120.833,
        "duration": 0.833,
        "velocity": 1,
        "hand": "right"
      },
      {
        "midi": 62,
        "time": 121.25,
        "duration": 0.417,
        "velocity": 1,
        "hand": "right"
      },
      {
        "midi": 69,
        "time": 121.25,
        "duration": 0.417,
        "velocity": 1,
        "hand": "right"
      },
      {
        "midi": 77,
        "time": 121.25,
        "duration": 0.417,
        "velocity": 1,
        "hand": "right"
      },
      {
        "midi": 52,
        "time": 121.667,
        "duration": 0.417,
        "velocity": 1,
        "hand": "left"
      },
      {
        "midi": 57,
        "time": 121.667,
        "duration": 0.833,
        "velocity": 1,
        "hand": "left"
      },
      {
        "midi": 67,
        "time": 121.667,
        "duration": 0.833,
        "velocity": 1,
        "hand": "right"
      },
      {
        "midi": 64,
        "time": 122.083,
        "duration": 0.417,
        "velocity": 1,
        "hand": "right"
      },
      {
        "midi": 73,
        "time": 122.083,
        "duration": 0.417,
        "velocity": 1,
        "hand": "right"
      },
      {
        "midi": 81,
        "time": 122.083,
        "duration": 0.417,
        "velocity": 1,
        "hand": "right"
      },
      {
        "midi": 50,
        "time": 122.5,
        "duration": 0.417,
        "velocity": 1,
        "hand": "left"
      },
      {
        "midi": 57,
        "time": 122.5,
        "duration": 0.833,
        "velocity": 1,
        "hand": "left"
      },
      {
        "midi": 65,
        "time": 122.5,
        "duration": 0.833,
        "velocity": 1,
        "hand": "right"
      },
      {
        "midi": 62,
        "time": 122.917,
        "duration": 0.417,
        "velocity": 1,
        "hand": "right"
      },
      {
        "midi": 69,
        "time": 122.917,
        "duration": 0.417,
        "velocity": 1,
        "hand": "right"
      },
      {
        "midi": 77,
        "time": 122.917,
        "duration": 0.417,
        "velocity": 1,
        "hand": "right"
      },
      {
        "midi": 49,
        "time": 123.333,
        "duration": 0.417,
        "velocity": 1,
        "hand": "left"
      },
      {
        "midi": 57,
        "time": 123.333,
        "duration": 0.833,
        "velocity": 1,
        "hand": "left"
      },
      {
        "midi": 64,
        "time": 123.333,
        "duration": 0.833,
        "velocity": 1,
        "hand": "right"
      },
      {
        "midi": 61,
        "time": 123.75,
        "duration": 0.417,
        "velocity": 1,
        "hand": "right"
      },
      {
        "midi": 67,
        "time": 123.75,
        "duration": 0.417,
        "velocity": 1,
        "hand": "right"
      },
      {
        "midi": 69,
        "time": 123.75,
        "duration": 0.417,
        "velocity": 1,
        "hand": "right"
      },
      {
        "midi": 76,
        "time": 123.75,
        "duration": 0.417,
        "velocity": 1,
        "hand": "right"
      },
      {
        "midi": 50,
        "time": 124.167,
        "duration": 0.417,
        "velocity": 1,
        "hand": "left"
      },
      {
        "midi": 57,
        "time": 124.167,
        "duration": 0.833,
        "velocity": 1,
        "hand": "left"
      },
      {
        "midi": 65,
        "time": 124.167,
        "duration": 0.833,
        "velocity": 1,
        "hand": "right"
      },
      {
        "midi": 62,
        "time": 124.583,
        "duration": 0.417,
        "velocity": 1,
        "hand": "right"
      },
      {
        "midi": 69,
        "time": 124.583,
        "duration": 0.417,
        "velocity": 1,
        "hand": "right"
      },
      {
        "midi": 77,
        "time": 124.583,
        "duration": 0.417,
        "velocity": 1,
        "hand": "right"
      },
      {
        "midi": 51,
        "time": 125,
        "duration": 0.417,
        "velocity": 1,
        "hand": "left"
      },
      {
        "midi": 59,
        "time": 125,
        "duration": 0.833,
        "velocity": 1,
        "hand": "left"
      },
      {
        "midi": 69,
        "time": 125,
        "duration": 0.833,
        "velocity": 1,
        "hand": "right"
      },
      {
        "midi": 63,
        "time": 125.417,
        "duration": 0.417,
        "velocity": 1,
        "hand": "right"
      },
      {
        "midi": 78,
        "time": 125.417,
        "duration": 0.417,
        "velocity": 1,
        "hand": "right"
      },
      {
        "midi": 83,
        "time": 125.417,
        "duration": 0.417,
        "velocity": 1,
        "hand": "right"
      },
      {
        "midi": 52,
        "time": 125.833,
        "duration": 0.417,
        "velocity": 1,
        "hand": "left"
      },
      {
        "midi": 59,
        "time": 125.833,
        "duration": 0.833,
        "velocity": 1,
        "hand": "left"
      },
      {
        "midi": 67,
        "time": 125.833,
        "duration": 0.833,
        "velocity": 1,
        "hand": "right"
      },
      {
        "midi": 64,
        "time": 126.25,
        "duration": 0.417,
        "velocity": 1,
        "hand": "right"
      },
      {
        "midi": 71,
        "time": 126.25,
        "duration": 0.417,
        "velocity": 1,
        "hand": "right"
      },
      {
        "midi": 79,
        "time": 126.25,
        "duration": 0.417,
        "velocity": 1,
        "hand": "right"
      },
      {
        "midi": 51,
        "time": 126.667,
        "duration": 0.417,
        "velocity": 1,
        "hand": "left"
      },
      {
        "midi": 59,
        "time": 126.667,
        "duration": 0.833,
        "velocity": 1,
        "hand": "left"
      },
      {
        "midi": 66,
        "time": 126.667,
        "duration": 0.833,
        "velocity": 1,
        "hand": "right"
      },
      {
        "midi": 63,
        "time": 127.083,
        "duration": 0.417,
        "velocity": 1,
        "hand": "right"
      },
      {
        "midi": 69,
        "time": 127.083,
        "duration": 0.417,
        "velocity": 1,
        "hand": "right"
      },
      {
        "midi": 71,
        "time": 127.083,
        "duration": 0.417,
        "velocity": 1,
        "hand": "right"
      },
      {
        "midi": 78,
        "time": 127.083,
        "duration": 0.417,
        "velocity": 1,
        "hand": "right"
      },
      {
        "midi": 52,
        "time": 127.5,
        "duration": 0.417,
        "velocity": 1,
        "hand": "left"
      },
      {
        "midi": 59,
        "time": 127.5,
        "duration": 0.833,
        "velocity": 1,
        "hand": "left"
      },
      {
        "midi": 67,
        "time": 127.5,
        "duration": 0.833,
        "velocity": 1,
        "hand": "right"
      },
      {
        "midi": 64,
        "time": 127.917,
        "duration": 0.417,
        "velocity": 1,
        "hand": "right"
      },
      {
        "midi": 71,
        "time": 127.917,
        "duration": 0.417,
        "velocity": 1,
        "hand": "right"
      },
      {
        "midi": 79,
        "time": 127.917,
        "duration": 0.417,
        "velocity": 1,
        "hand": "right"
      },
      {
        "midi": 53,
        "time": 128.333,
        "duration": 0.417,
        "velocity": 1,
        "hand": "left"
      },
      {
        "midi": 61,
        "time": 128.333,
        "duration": 0.833,
        "velocity": 1,
        "hand": "right"
      },
      {
        "midi": 71,
        "time": 128.333,
        "duration": 0.833,
        "velocity": 1,
        "hand": "right"
      },
      {
        "midi": 65,
        "time": 128.75,
        "duration": 0.417,
        "velocity": 1,
        "hand": "right"
      },
      {
        "midi": 80,
        "time": 128.75,
        "duration": 0.417,
        "velocity": 1,
        "hand": "right"
      },
      {
        "midi": 85,
        "time": 128.75,
        "duration": 0.417,
        "velocity": 1,
        "hand": "right"
      },
      {
        "midi": 54,
        "time": 129.167,
        "duration": 0.417,
        "velocity": 1,
        "hand": "left"
      },
      {
        "midi": 61,
        "time": 129.167,
        "duration": 0.833,
        "velocity": 1,
        "hand": "right"
      },
      {
        "midi": 69,
        "time": 129.167,
        "duration": 0.833,
        "velocity": 1,
        "hand": "right"
      },
      {
        "midi": 66,
        "time": 129.583,
        "duration": 0.417,
        "velocity": 1,
        "hand": "right"
      },
      {
        "midi": 73,
        "time": 129.583,
        "duration": 0.417,
        "velocity": 1,
        "hand": "right"
      },
      {
        "midi": 81,
        "time": 129.583,
        "duration": 0.417,
        "velocity": 1,
        "hand": "right"
      },
      {
        "midi": 54,
        "time": 130,
        "duration": 0.417,
        "velocity": 1,
        "hand": "left"
      },
      {
        "midi": 62,
        "time": 130,
        "duration": 0.833,
        "velocity": 1,
        "hand": "right"
      },
      {
        "midi": 72,
        "time": 130,
        "duration": 0.833,
        "velocity": 1,
        "hand": "right"
      },
      {
        "midi": 66,
        "time": 130.417,
        "duration": 0.417,
        "velocity": 1,
        "hand": "right"
      },
      {
        "midi": 81,
        "time": 130.417,
        "duration": 0.417,
        "velocity": 1,
        "hand": "right"
      },
      {
        "midi": 86,
        "time": 130.417,
        "duration": 0.417,
        "velocity": 1,
        "hand": "right"
      },
      {
        "midi": 55,
        "time": 130.833,
        "duration": 0.417,
        "velocity": 1,
        "hand": "left"
      },
      {
        "midi": 62,
        "time": 130.833,
        "duration": 0.833,
        "velocity": 1,
        "hand": "right"
      },
      {
        "midi": 71,
        "time": 130.833,
        "duration": 0.833,
        "velocity": 1,
        "hand": "right"
      },
      {
        "midi": 67,
        "time": 131.25,
        "duration": 0.417,
        "velocity": 1,
        "hand": "right"
      },
      {
        "midi": 74,
        "time": 131.25,
        "duration": 0.417,
        "velocity": 1,
        "hand": "right"
      },
      {
        "midi": 83,
        "time": 131.25,
        "duration": 0.417,
        "velocity": 1,
        "hand": "right"
      },
      {
        "midi": 54,
        "time": 131.667,
        "duration": 0.417,
        "velocity": 1,
        "hand": "left"
      },
      {
        "midi": 62,
        "time": 131.667,
        "duration": 0.833,
        "velocity": 1,
        "hand": "right"
      },
      {
        "midi": 72,
        "time": 131.667,
        "duration": 0.833,
        "velocity": 1,
        "hand": "right"
      },
      {
        "midi": 66,
        "time": 132.083,
        "duration": 0.417,
        "velocity": 1,
        "hand": "right"
      },
      {
        "midi": 81,
        "time": 132.083,
        "duration": 0.417,
        "velocity": 1,
        "hand": "right"
      },
      {
        "midi": 86,
        "time": 132.083,
        "duration": 0.417,
        "velocity": 1,
        "hand": "right"
      },
      {
        "midi": 55,
        "time": 132.5,
        "duration": 0.417,
        "velocity": 1,
        "hand": "left"
      },
      {
        "midi": 62,
        "time": 132.5,
        "duration": 0.833,
        "velocity": 1,
        "hand": "right"
      },
      {
        "midi": 71,
        "time": 132.5,
        "duration": 0.833,
        "velocity": 1,
        "hand": "right"
      },
      {
        "midi": 67,
        "time": 132.917,
        "duration": 0.417,
        "velocity": 1,
        "hand": "right"
      },
      {
        "midi": 74,
        "time": 132.917,
        "duration": 0.417,
        "velocity": 1,
        "hand": "right"
      },
      {
        "midi": 83,
        "time": 132.917,
        "duration": 0.417,
        "velocity": 1,
        "hand": "right"
      },
      {
        "midi": 67,
        "time": 133.333,
        "duration": 0.417,
        "velocity": 1,
        "hand": "right"
      },
      {
        "midi": 70,
        "time": 133.333,
        "duration": 0.417,
        "velocity": 1,
        "hand": "right"
      },
      {
        "midi": 74,
        "time": 133.333,
        "duration": 0.417,
        "velocity": 1,
        "hand": "right"
      },
      {
        "midi": 88,
        "time": 133.333,
        "duration": 0.208,
        "velocity": 1,
        "hand": "right"
      },
      {
        "midi": 86,
        "time": 133.542,
        "duration": 0.208,
        "velocity": 1,
        "hand": "right"
      },
      {
        "midi": 82,
        "time": 133.75,
        "duration": 0.208,
        "velocity": 1,
        "hand": "right"
      },
      {
        "midi": 81,
        "time": 133.958,
        "duration": 0.208,
        "velocity": 1,
        "hand": "right"
      },
      {
        "midi": 76,
        "time": 134.167,
        "duration": 0.208,
        "velocity": 1,
        "hand": "right"
      },
      {
        "midi": 79,
        "time": 134.167,
        "duration": 0.417,
        "velocity": 1,
        "hand": "right"
      },
      {
        "midi": 74,
        "time": 134.375,
        "duration": 0.208,
        "velocity": 1,
        "hand": "right"
      },
      {
        "midi": 70,
        "time": 134.583,
        "duration": 0.208,
        "velocity": 1,
        "hand": "right"
      },
      {
        "midi": 69,
        "time": 134.792,
        "duration": 0.208,
        "velocity": 1,
        "hand": "right"
      },
      {
        "midi": 64,
        "time": 135,
        "duration": 0.208,
        "velocity": 1,
        "hand": "right"
      },
      {
        "midi": 67,
        "time": 135,
        "duration": 0.417,
        "velocity": 1,
        "hand": "right"
      },
      {
        "midi": 62,
        "time": 135.208,
        "duration": 0.208,
        "velocity": 1,
        "hand": "right"
      },
      {
        "midi": 58,
        "time": 135.417,
        "duration": 0.208,
        "velocity": 1,
        "hand": "left"
      },
      {
        "midi": 57,
        "time": 135.625,
        "duration": 0.208,
        "velocity": 1,
        "hand": "left"
      },
      {
        "midi": 52,
        "time": 135.833,
        "duration": 0.208,
        "velocity": 1,
        "hand": "left"
      },
      {
        "midi": 55,
        "time": 135.833,
        "duration": 0.417,
        "velocity": 1,
        "hand": "left"
      },
      {
        "midi": 50,
        "time": 136.042,
        "duration": 0.208,
        "velocity": 1,
        "hand": "left"
      },
      {
        "midi": 46,
        "time": 136.25,
        "duration": 0.208,
        "velocity": 1,
        "hand": "left"
      },
      {
        "midi": 45,
        "time": 136.458,
        "duration": 0.208,
        "velocity": 1,
        "hand": "left"
      },
      {
        "midi": 43,
        "time": 136.667,
        "duration": 0.417,
        "velocity": 1,
        "hand": "left"
      },
      {
        "midi": 43,
        "time": 137.083,
        "duration": 0.417,
        "velocity": 1,
        "hand": "left"
      },
      {
        "midi": 44,
        "time": 137.5,
        "duration": 0.208,
        "velocity": 1,
        "hand": "left"
      },
      {
        "midi": 62,
        "time": 137.5,
        "duration": 1.25,
        "velocity": 1,
        "hand": "right"
      },
      {
        "midi": 64,
        "time": 137.5,
        "duration": 1.25,
        "velocity": 1,
        "hand": "right"
      },
      {
        "midi": 45,
        "time": 137.708,
        "duration": 0.208,
        "velocity": 1,
        "hand": "left"
      },
      {
        "midi": 46,
        "time": 137.917,
        "duration": 0.208,
        "velocity": 1,
        "hand": "left"
      },
      {
        "midi": 44,
        "time": 138.125,
        "duration": 0.208,
        "velocity": 1,
        "hand": "left"
      },
      {
        "midi": 45,
        "time": 138.333,
        "duration": 0.417,
        "velocity": 1,
        "hand": "left"
      },
      {
        "midi": 45,
        "time": 138.75,
        "duration": 0.417,
        "velocity": 1,
        "hand": "left"
      },
      {
        "midi": 55,
        "time": 138.75,
        "duration": 0.417,
        "velocity": 1,
        "hand": "left"
      },
      {
        "midi": 61,
        "time": 138.75,
        "duration": 0.417,
        "velocity": 1,
        "hand": "right"
      },
      {
        "midi": 64,
        "time": 138.75,
        "duration": 0.417,
        "velocity": 1,
        "hand": "right"
      },
      {
        "midi": 69,
        "time": 138.75,
        "duration": 0.417,
        "velocity": 1,
        "hand": "right"
      },
      {
        "midi": 50,
        "time": 139.167,
        "duration": 0.417,
        "velocity": 1,
        "hand": "left"
      },
      {
        "midi": 54,
        "time": 139.167,
        "duration": 0.417,
        "velocity": 1,
        "hand": "left"
      },
      {
        "midi": 62,
        "time": 139.167,
        "duration": 0.417,
        "velocity": 1,
        "hand": "right"
      },
      {
        "midi": 69,
        "time": 139.167,
        "duration": 0.417,
        "velocity": 1,
        "hand": "right"
      },
      {
        "midi": 74,
        "time": 139.167,
        "duration": 0.417,
        "velocity": 1,
        "hand": "right"
      },
      {
        "midi": 46,
        "time": 140,
        "duration": 1.667,
        "velocity": 1,
        "hand": "left"
      },
      {
        "midi": 54,
        "time": 140,
        "duration": 0.833,
        "velocity": 1,
        "hand": "left"
      },
      {
        "midi": 58,
        "time": 140,
        "duration": 1.667,
        "velocity": 1,
        "hand": "left"
      },
      {
        "midi": 74,
        "time": 140,
        "duration": 1.667,
        "velocity": 1,
        "hand": "right"
      },
      {
        "midi": 78,
        "time": 140,
        "duration": 0.833,
        "velocity": 1,
        "hand": "right"
      },
      {
        "midi": 86,
        "time": 140,
        "duration": 1.667,
        "velocity": 1,
        "hand": "right"
      },
      {
        "midi": 55,
        "time": 140.833,
        "duration": 0.833,
        "velocity": 1,
        "hand": "left"
      },
      {
        "midi": 79,
        "time": 140.833,
        "duration": 0.833,
        "velocity": 1,
        "hand": "right"
      },
      {
        "midi": 48,
        "time": 141.667,
        "duration": 1.667,
        "velocity": 1,
        "hand": "left"
      },
      {
        "midi": 56,
        "time": 141.667,
        "duration": 0.833,
        "velocity": 1,
        "hand": "left"
      },
      {
        "midi": 60,
        "time": 141.667,
        "duration": 1.667,
        "velocity": 1,
        "hand": "right"
      },
      {
        "midi": 72,
        "time": 141.667,
        "duration": 1.667,
        "velocity": 1,
        "hand": "right"
      },
      {
        "midi": 76,
        "time": 141.667,
        "duration": 0.833,
        "velocity": 1,
        "hand": "right"
      },
      {
        "midi": 84,
        "time": 141.667,
        "duration": 1.667,
        "velocity": 1,
        "hand": "right"
      },
      {
        "midi": 57,
        "time": 142.5,
        "duration": 0.833,
        "velocity": 1,
        "hand": "left"
      },
      {
        "midi": 77,
        "time": 142.5,
        "duration": 0.833,
        "velocity": 1,
        "hand": "right"
      },
      {
        "midi": 49,
        "time": 143.333,
        "duration": 0.833,
        "velocity": 1,
        "hand": "left"
      },
      {
        "midi": 57,
        "time": 143.333,
        "duration": 0.833,
        "velocity": 1,
        "hand": "left"
      },
      {
        "midi": 61,
        "time": 143.333,
        "duration": 0.833,
        "velocity": 1,
        "hand": "right"
      },
      {
        "midi": 69,
        "time": 143.333,
        "duration": 0.625,
        "velocity": 1,
        "hand": "right"
      },
      {
        "midi": 77,
        "time": 143.333,
        "duration": 0.833,
        "velocity": 1,
        "hand": "right"
      },
      {
        "midi": 81,
        "time": 143.333,
        "duration": 0.625,
        "velocity": 1,
        "hand": "right"
      },
      {
        "midi": 70,
        "time": 143.958,
        "duration": 0.208,
        "velocity": 1,
        "hand": "right"
      },
      {
        "midi": 82,
        "time": 143.958,
        "duration": 0.208,
        "velocity": 1,
        "hand": "right"
      },
      {
        "midi": 50,
        "time": 144.167,
        "duration": 0.833,
        "velocity": 1,
        "hand": "left"
      },
      {
        "midi": 58,
        "time": 144.167,
        "duration": 0.833,
        "velocity": 1,
        "hand": "left"
      },
      {
        "midi": 62,
        "time": 144.167,
        "duration": 0.833,
        "velocity": 1,
        "hand": "right"
      },
      {
        "midi": 67,
        "time": 144.167,
        "duration": 0.833,
        "velocity": 1,
        "hand": "right"
      },
      {
        "midi": 77,
        "time": 144.167,
        "duration": 0.833,
        "velocity": 1,
        "hand": "right"
      },
      {
        "midi": 79,
        "time": 144.167,
        "duration": 0.833,
        "velocity": 1,
        "hand": "right"
      },
      {
        "midi": 48,
        "time": 145,
        "duration": 0.833,
        "velocity": 1,
        "hand": "left"
      },
      {
        "midi": 55,
        "time": 145,
        "duration": 0.833,
        "velocity": 1,
        "hand": "left"
      },
      {
        "midi": 58,
        "time": 145,
        "duration": 0.833,
        "velocity": 1,
        "hand": "left"
      },
      {
        "midi": 64,
        "time": 145,
        "duration": 0.833,
        "velocity": 1,
        "hand": "right"
      },
      {
        "midi": 69,
        "time": 145,
        "duration": 0.833,
        "velocity": 1,
        "hand": "right"
      },
      {
        "midi": 41,
        "time": 145.833,
        "duration": 0.417,
        "velocity": 1,
        "hand": "left"
      },
      {
        "midi": 48,
        "time": 145.833,
        "duration": 0.417,
        "velocity": 1,
        "hand": "left"
      },
      {
        "midi": 57,
        "time": 145.833,
        "duration": 0.417,
        "velocity": 1,
        "hand": "left"
      },
      {
        "midi": 65,
        "time": 145.833,
        "duration": 0.417,
        "velocity": 1,
        "hand": "right"
      },
      {
        "midi": 29,
        "time": 146.667,
        "duration": 0.417,
        "velocity": 1,
        "hand": "left"
      },
      {
        "midi": 41,
        "time": 146.667,
        "duration": 0.417,
        "velocity": 1,
        "hand": "left"
      },
      {
        "midi": 57,
        "time": 147.083,
        "duration": 0.417,
        "velocity": 1,
        "hand": "left"
      },
      {
        "midi": 60,
        "time": 147.083,
        "duration": 0.417,
        "velocity": 1,
        "hand": "right"
      },
      {
        "midi": 41,
        "time": 147.5,
        "duration": 1.667,
        "velocity": 1,
        "hand": "left"
      },
      {
        "midi": 48,
        "time": 147.5,
        "duration": 1.667,
        "velocity": 1,
        "hand": "left"
      },
      {
        "midi": 55,
        "time": 147.5,
        "duration": 1.667,
        "velocity": 1,
        "hand": "left"
      },
      {
        "midi": 58,
        "time": 147.5,
        "duration": 1.667,
        "velocity": 1,
        "hand": "left"
      },
      {
        "midi": 65,
        "time": 147.5,
        "duration": 0.417,
        "velocity": 1,
        "hand": "right"
      },
      {
        "midi": 64,
        "time": 147.917,
        "duration": 0.417,
        "velocity": 1,
        "hand": "right"
      },
      {
        "midi": 62,
        "time": 148.333,
        "duration": 0.417,
        "velocity": 1,
        "hand": "right"
      },
      {
        "midi": 64,
        "time": 148.75,
        "duration": 0.417,
        "velocity": 1,
        "hand": "right"
      },
      {
        "midi": 41,
        "time": 149.167,
        "duration": 0.833,
        "velocity": 1,
        "hand": "left"
      },
      {
        "midi": 48,
        "time": 149.167,
        "duration": 0.833,
        "velocity": 1,
        "hand": "left"
      },
      {
        "midi": 53,
        "time": 149.167,
        "duration": 0.833,
        "velocity": 1,
        "hand": "left"
      },
      {
        "midi": 57,
        "time": 149.167,
        "duration": 0.833,
        "velocity": 1,
        "hand": "left"
      },
      {
        "midi": 65,
        "time": 149.167,
        "duration": 0.833,
        "velocity": 1,
        "hand": "right"
      },
      {
        "midi": 65,
        "time": 150,
        "duration": 0.417,
        "velocity": 1,
        "hand": "right"
      },
      {
        "midi": 69,
        "time": 150,
        "duration": 0.417,
        "velocity": 1,
        "hand": "right"
      },
      {
        "midi": 72,
        "time": 150,
        "duration": 0.417,
        "velocity": 1,
        "hand": "right"
      },
      {
        "midi": 48,
        "time": 150.417,
        "duration": 0.417,
        "velocity": 1,
        "hand": "left"
      },
      {
        "midi": 53,
        "time": 150.833,
        "duration": 0.417,
        "velocity": 1,
        "hand": "left"
      },
      {
        "midi": 58,
        "time": 150.833,
        "duration": 1.667,
        "velocity": 1,
        "hand": "left"
      },
      {
        "midi": 60,
        "time": 150.833,
        "duration": 1.667,
        "velocity": 1,
        "hand": "right"
      },
      {
        "midi": 52,
        "time": 151.25,
        "duration": 0.417,
        "velocity": 1,
        "hand": "left"
      },
      {
        "midi": 50,
        "time": 151.667,
        "duration": 0.417,
        "velocity": 1,
        "hand": "left"
      },
      {
        "midi": 52,
        "time": 152.083,
        "duration": 0.417,
        "velocity": 1,
        "hand": "left"
      },
      {
        "midi": 53,
        "time": 152.5,
        "duration": 0.417,
        "velocity": 1,
        "hand": "left"
      },
      {
        "midi": 57,
        "time": 152.5,
        "duration": 0.417,
        "velocity": 1,
        "hand": "left"
      },
      {
        "midi": 60,
        "time": 152.5,
        "duration": 0.417,
        "velocity": 1,
        "hand": "right"
      },
      {
        "midi": 57,
        "time": 153.333,
        "duration": 0.417,
        "velocity": 1,
        "hand": "left"
      },
      {
        "midi": 50,
        "time": 153.75,
        "duration": 0.417,
        "velocity": 1,
        "hand": "left"
      },
      {
        "midi": 62,
        "time": 153.75,
        "duration": 0.417,
        "velocity": 1,
        "hand": "right"
      },
      {
        "midi": 41,
        "time": 154.167,
        "duration": 0.417,
        "velocity": 1,
        "hand": "left"
      },
      {
        "midi": 69,
        "time": 154.167,
        "duration": 0.417,
        "velocity": 1,
        "hand": "right"
      },
      {
        "midi": 73,
        "time": 154.167,
        "duration": 0.417,
        "velocity": 1,
        "hand": "right"
      },
      {
        "midi": 74,
        "time": 154.583,
        "duration": 0.417,
        "velocity": 1,
        "hand": "right"
      },
      {
        "midi": 58,
        "time": 155,
        "duration": 0.417,
        "velocity": 1,
        "hand": "left"
      },
      {
        "midi": 50,
        "time": 155.417,
        "duration": 0.417,
        "velocity": 1,
        "hand": "left"
      },
      {
        "midi": 62,
        "time": 155.417,
        "duration": 0.417,
        "velocity": 1,
        "hand": "right"
      },
      {
        "midi": 43,
        "time": 155.833,
        "duration": 0.417,
        "velocity": 1,
        "hand": "left"
      },
      {
        "midi": 70,
        "time": 155.833,
        "duration": 0.417,
        "velocity": 1,
        "hand": "right"
      },
      {
        "midi": 73,
        "time": 155.833,
        "duration": 0.417,
        "velocity": 1,
        "hand": "right"
      },
      {
        "midi": 74,
        "time": 156.25,
        "duration": 0.417,
        "velocity": 1,
        "hand": "right"
      },
      {
        "midi": 59,
        "time": 156.667,
        "duration": 0.417,
        "velocity": 1,
        "hand": "left"
      },
      {
        "midi": 52,
        "time": 157.083,
        "duration": 0.417,
        "velocity": 1,
        "hand": "left"
      },
      {
        "midi": 64,
        "time": 157.083,
        "duration": 0.417,
        "velocity": 1,
        "hand": "right"
      },
      {
        "midi": 44,
        "time": 157.5,
        "duration": 0.417,
        "velocity": 1,
        "hand": "left"
      },
      {
        "midi": 71,
        "time": 157.5,
        "duration": 0.417,
        "velocity": 1,
        "hand": "right"
      },
      {
        "midi": 75,
        "time": 157.5,
        "duration": 0.417,
        "velocity": 1,
        "hand": "right"
      },
      {
        "midi": 76,
        "time": 157.917,
        "duration": 0.417,
        "velocity": 1,
        "hand": "right"
      },
      {
        "midi": 61,
        "time": 158.333,
        "duration": 0.417,
        "velocity": 1,
        "hand": "right"
      },
      {
        "midi": 52,
        "time": 158.75,
        "duration": 0.417,
        "velocity": 1,
        "hand": "left"
      },
      {
        "midi": 64,
        "time": 158.75,
        "duration": 0.417,
        "velocity": 1,
        "hand": "right"
      },
      {
        "midi": 45,
        "time": 159.167,
        "duration": 0.417,
        "velocity": 1,
        "hand": "left"
      },
      {
        "midi": 69,
        "time": 159.167,
        "duration": 0.417,
        "velocity": 1,
        "hand": "right"
      },
      {
        "midi": 73,
        "time": 159.167,
        "duration": 0.417,
        "velocity": 1,
        "hand": "right"
      },
      {
        "midi": 75,
        "time": 159.167,
        "duration": 0.417,
        "velocity": 1,
        "hand": "right"
      },
      {
        "midi": 76,
        "time": 159.583,
        "duration": 0.417,
        "velocity": 1,
        "hand": "right"
      },
      {
        "midi": 45,
        "time": 160,
        "duration": 0.833,
        "velocity": 1,
        "hand": "left"
      },
      {
        "midi": 53,
        "time": 160,
        "duration": 1.667,
        "velocity": 1,
        "hand": "left"
      },
      {
        "midi": 57,
        "time": 160,
        "duration": 0.833,
        "velocity": 1,
        "hand": "left"
      },
      {
        "midi": 77,
        "time": 160,
        "duration": 1.667,
        "velocity": 1,
        "hand": "right"
      },
      {
        "midi": 85,
        "time": 160,
        "duration": 0.833,
        "velocity": 1,
        "hand": "right"
      },
      {
        "midi": 89,
        "time": 160,
        "duration": 1.667,
        "velocity": 1,
        "hand": "right"
      },
      {
        "midi": 46,
        "time": 160.833,
        "duration": 0.833,
        "velocity": 1,
        "hand": "left"
      },
      {
        "midi": 58,
        "time": 160.833,
        "duration": 0.833,
        "velocity": 1,
        "hand": "left"
      },
      {
        "midi": 86,
        "time": 160.833,
        "duration": 0.833,
        "velocity": 1,
        "hand": "right"
      },
      {
        "midi": 47,
        "time": 161.667,
        "duration": 0.833,
        "velocity": 1,
        "hand": "left"
      },
      {
        "midi": 55,
        "time": 161.667,
        "duration": 1.667,
        "velocity": 1,
        "hand": "left"
      },
      {
        "midi": 59,
        "time": 161.667,
        "duration": 0.833,
        "velocity": 1,
        "hand": "left"
      },
      {
        "midi": 67,
        "time": 161.667,
        "duration": 1.667,
        "velocity": 1,
        "hand": "right"
      },
      {
        "midi": 75,
        "time": 161.667,
        "duration": 0.833,
        "velocity": 1,
        "hand": "right"
      },
      {
        "midi": 79,
        "time": 161.667,
        "duration": 1.667,
        "velocity": 1,
        "hand": "right"
      },
      {
        "midi": 48,
        "time": 162.5,
        "duration": 0.833,
        "velocity": 1,
        "hand": "left"
      },
      {
        "midi": 60,
        "time": 162.5,
        "duration": 0.833,
        "velocity": 1,
        "hand": "right"
      },
      {
        "midi": 76,
        "time": 162.5,
        "duration": 0.833,
        "velocity": 1,
        "hand": "right"
      },
      {
        "midi": 52,
        "time": 163.333,
        "duration": 0.833,
        "velocity": 1,
        "hand": "left"
      },
      {
        "midi": 60,
        "time": 163.333,
        "duration": 1.667,
        "velocity": 1,
        "hand": "right"
      },
      {
        "midi": 64,
        "time": 163.333,
        "duration": 0.833,
        "velocity": 1,
        "hand": "right"
      },
      {
        "midi": 72,
        "time": 163.333,
        "duration": 0.625,
        "velocity": 1,
        "hand": "right"
      },
      {
        "midi": 80,
        "time": 163.333,
        "duration": 0.833,
        "velocity": 1,
        "hand": "right"
      },
      {
        "midi": 84,
        "time": 163.333,
        "duration": 0.625,
        "velocity": 1,
        "hand": "right"
      },
      {
        "midi": 71,
        "time": 163.958,
        "duration": 0.208,
        "velocity": 1,
        "hand": "right"
      },
      {
        "midi": 83,
        "time": 163.958,
        "duration": 0.208,
        "velocity": 1,
        "hand": "right"
      },
      {
        "midi": 53,
        "time": 164.167,
        "duration": 0.833,
        "velocity": 1,
        "hand": "left"
      },
      {
        "midi": 65,
        "time": 164.167,
        "duration": 0.833,
        "velocity": 1,
        "hand": "right"
      },
      {
        "midi": 69,
        "time": 164.167,
        "duration": 0.833,
        "velocity": 1,
        "hand": "right"
      },
      {
        "midi": 81,
        "time": 164.167,
        "duration": 0.833,
        "velocity": 1,
        "hand": "right"
      },
      {
        "midi": 57,
        "time": 165,
        "duration": 0.833,
        "velocity": 1,
        "hand": "left"
      },
      {
        "midi": 65,
        "time": 165,
        "duration": 0.625,
        "velocity": 1,
        "hand": "right"
      },
      {
        "midi": 73,
        "time": 165,
        "duration": 0.833,
        "velocity": 1,
        "hand": "right"
      },
      {
        "midi": 77,
        "time": 165,
        "duration": 0.625,
        "velocity": 1,
        "hand": "right"
      },
      {
        "midi": 64,
        "time": 165.625,
        "duration": 0.208,
        "velocity": 1,
        "hand": "right"
      },
      {
        "midi": 76,
        "time": 165.625,
        "duration": 0.208,
        "velocity": 1,
        "hand": "right"
      },
      {
        "midi": 58,
        "time": 165.833,
        "duration": 0.417,
        "velocity": 1,
        "hand": "left"
      },
      {
        "midi": 62,
        "time": 165.833,
        "duration": 0.417,
        "velocity": 1,
        "hand": "right"
      },
      {
        "midi": 74,
        "time": 165.833,
        "duration": 0.417,
        "velocity": 1,
        "hand": "right"
      },
      {
        "midi": 58,
        "time": 166.667,
        "duration": 0.833,
        "velocity": 1,
        "hand": "left"
      },
      {
        "midi": 62,
        "time": 167.083,
        "duration": 0.417,
        "velocity": 1,
        "hand": "right"
      },
      {
        "midi": 57,
        "time": 167.5,
        "duration": 1.667,
        "velocity": 1,
        "hand": "left"
      },
      {
        "midi": 60,
        "time": 167.5,
        "duration": 1.667,
        "velocity": 1,
        "hand": "right"
      },
      {
        "midi": 67,
        "time": 167.5,
        "duration": 0.417,
        "velocity": 1,
        "hand": "right"
      },
      {
        "midi": 66,
        "time": 167.917,
        "duration": 0.417,
        "velocity": 1,
        "hand": "right"
      },
      {
        "midi": 50,
        "time": 168.333,
        "duration": 1.25,
        "velocity": 1,
        "hand": "left"
      },
      {
        "midi": 64,
        "time": 168.333,
        "duration": 0.417,
        "velocity": 1,
        "hand": "right"
      },
      {
        "midi": 66,
        "time": 168.75,
        "duration": 0.417,
        "velocity": 1,
        "hand": "right"
      },
      {
        "midi": 43,
        "time": 169.167,
        "duration": 0.417,
        "velocity": 1,
        "hand": "left"
      },
      {
        "midi": 55,
        "time": 169.167,
        "duration": 0.417,
        "velocity": 1,
        "hand": "left"
      },
      {
        "midi": 58,
        "time": 169.167,
        "duration": 0.417,
        "velocity": 1,
        "hand": "left"
      },
      {
        "midi": 62,
        "time": 169.167,
        "duration": 0.417,
        "velocity": 1,
        "hand": "right"
      },
      {
        "midi": 67,
        "time": 169.167,
        "duration": 0.417,
        "velocity": 1,
        "hand": "right"
      },
      {
        "midi": 70,
        "time": 170,
        "duration": 0.833,
        "velocity": 1,
        "hand": "right"
      },
      {
        "midi": 74,
        "time": 170.417,
        "duration": 0.417,
        "velocity": 1,
        "hand": "right"
      },
      {
        "midi": 69,
        "time": 170.833,
        "duration": 1.667,
        "velocity": 1,
        "hand": "right"
      },
      {
        "midi": 72,
        "time": 170.833,
        "duration": 1.667,
        "velocity": 1,
        "hand": "right"
      },
      {
        "midi": 79,
        "time": 170.833,
        "duration": 0.417,
        "velocity": 1,
        "hand": "right"
      },
      {
        "midi": 78,
        "time": 171.25,
        "duration": 0.417,
        "velocity": 1,
        "hand": "right"
      },
      {
        "midi": 62,
        "time": 171.667,
        "duration": 1.25,
        "velocity": 1,
        "hand": "right"
      },
      {
        "midi": 76,
        "time": 171.667,
        "duration": 0.417,
        "velocity": 1,
        "hand": "right"
      },
      {
        "midi": 78,
        "time": 172.083,
        "duration": 0.417,
        "velocity": 1,
        "hand": "right"
      },
      {
        "midi": 55,
        "time": 172.5,
        "duration": 0.417,
        "velocity": 1,
        "hand": "left"
      },
      {
        "midi": 67,
        "time": 172.5,
        "duration": 0.417,
        "velocity": 1,
        "hand": "right"
      },
      {
        "midi": 70,
        "time": 172.5,
        "duration": 0.417,
        "velocity": 1,
        "hand": "right"
      },
      {
        "midi": 74,
        "time": 172.5,
        "duration": 0.417,
        "velocity": 1,
        "hand": "right"
      },
      {
        "midi": 79,
        "time": 172.5,
        "duration": 0.417,
        "velocity": 1,
        "hand": "right"
      },
      {
        "midi": 47,
        "time": 173.333,
        "duration": 0.833,
        "velocity": 1,
        "hand": "left"
      },
      {
        "midi": 55,
        "time": 173.333,
        "duration": 1.667,
        "velocity": 1,
        "hand": "left"
      },
      {
        "midi": 59,
        "time": 173.333,
        "duration": 0.833,
        "velocity": 1,
        "hand": "left"
      },
      {
        "midi": 79,
        "time": 173.333,
        "duration": 1.667,
        "velocity": 1,
        "hand": "right"
      },
      {
        "midi": 87,
        "time": 173.333,
        "duration": 0.833,
        "velocity": 1,
        "hand": "right"
      },
      {
        "midi": 91,
        "time": 173.333,
        "duration": 1.667,
        "velocity": 1,
        "hand": "right"
      },
      {
        "midi": 48,
        "time": 174.167,
        "duration": 0.833,
        "velocity": 1,
        "hand": "left"
      },
      {
        "midi": 60,
        "time": 174.167,
        "duration": 0.833,
        "velocity": 1,
        "hand": "right"
      },
      {
        "midi": 88,
        "time": 174.167,
        "duration": 0.833,
        "velocity": 1,
        "hand": "right"
      },
      {
        "midi": 49,
        "time": 175,
        "duration": 0.833,
        "velocity": 1,
        "hand": "left"
      },
      {
        "midi": 57,
        "time": 175,
        "duration": 1.667,
        "velocity": 1,
        "hand": "left"
      },
      {
        "midi": 61,
        "time": 175,
        "duration": 0.833,
        "velocity": 1,
        "hand": "right"
      },
      {
        "midi": 69,
        "time": 175,
        "duration": 1.667,
        "velocity": 1,
        "hand": "right"
      },
      {
        "midi": 77,
        "time": 175,
        "duration": 0.833,
        "velocity": 1,
        "hand": "right"
      },
      {
        "midi": 81,
        "time": 175,
        "duration": 1.667,
        "velocity": 1,
        "hand": "right"
      },
      {
        "midi": 50,
        "time": 175.833,
        "duration": 0.833,
        "velocity": 1,
        "hand": "left"
      },
      {
        "midi": 62,
        "time": 175.833,
        "duration": 0.833,
        "velocity": 1,
        "hand": "right"
      },
      {
        "midi": 78,
        "time": 175.833,
        "duration": 0.833,
        "velocity": 1,
        "hand": "right"
      },
      {
        "midi": 54,
        "time": 176.667,
        "duration": 0.833,
        "velocity": 1,
        "hand": "left"
      },
      {
        "midi": 62,
        "time": 176.667,
        "duration": 1.667,
        "velocity": 1,
        "hand": "right"
      },
      {
        "midi": 66,
        "time": 176.667,
        "duration": 0.833,
        "velocity": 1,
        "hand": "right"
      },
      {
        "midi": 74,
        "time": 176.667,
        "duration": 0.625,
        "velocity": 1,
        "hand": "right"
      },
      {
        "midi": 82,
        "time": 176.667,
        "duration": 0.833,
        "velocity": 1,
        "hand": "right"
      },
      {
        "midi": 86,
        "time": 176.667,
        "duration": 0.625,
        "velocity": 1,
        "hand": "right"
      },
      {
        "midi": 73,
        "time": 177.292,
        "duration": 0.208,
        "velocity": 1,
        "hand": "right"
      },
      {
        "midi": 85,
        "time": 177.292,
        "duration": 0.208,
        "velocity": 1,
        "hand": "right"
      },
      {
        "midi": 55,
        "time": 177.5,
        "duration": 0.833,
        "velocity": 1,
        "hand": "left"
      },
      {
        "midi": 67,
        "time": 177.5,
        "duration": 0.833,
        "velocity": 1,
        "hand": "right"
      },
      {
        "midi": 71,
        "time": 177.5,
        "duration": 0.833,
        "velocity": 1,
        "hand": "right"
      },
      {
        "midi": 83,
        "time": 177.5,
        "duration": 0.833,
        "velocity": 1,
        "hand": "right"
      },
      {
        "midi": 59,
        "time": 178.333,
        "duration": 0.833,
        "velocity": 1,
        "hand": "left"
      },
      {
        "midi": 67,
        "time": 178.333,
        "duration": 0.625,
        "velocity": 1,
        "hand": "right"
      },
      {
        "midi": 75,
        "time": 178.333,
        "duration": 0.833,
        "velocity": 1,
        "hand": "right"
      },
      {
        "midi": 79,
        "time": 178.333,
        "duration": 0.625,
        "velocity": 1,
        "hand": "right"
      },
      {
        "midi": 66,
        "time": 178.958,
        "duration": 0.208,
        "velocity": 1,
        "hand": "right"
      },
      {
        "midi": 78,
        "time": 178.958,
        "duration": 0.208,
        "velocity": 1,
        "hand": "right"
      },
      {
        "midi": 60,
        "time": 179.167,
        "duration": 0.417,
        "velocity": 1,
        "hand": "right"
      },
      {
        "midi": 64,
        "time": 179.167,
        "duration": 0.417,
        "velocity": 1,
        "hand": "right"
      },
      {
        "midi": 76,
        "time": 179.167,
        "duration": 0.417,
        "velocity": 1,
        "hand": "right"
      },
      {
        "midi": 60,
        "time": 180,
        "duration": 0.833,
        "velocity": 1,
        "hand": "right"
      },
      {
        "midi": 62,
        "time": 180.417,
        "duration": 0.417,
        "velocity": 1,
        "hand": "right"
      },
      {
        "midi": 59,
        "time": 180.833,
        "duration": 1.667,
        "velocity": 1,
        "hand": "left"
      },
      {
        "midi": 62,
        "time": 180.833,
        "duration": 1.667,
        "velocity": 1,
        "hand": "right"
      },
      {
        "midi": 67,
        "time": 180.833,
        "duration": 0.417,
        "velocity": 1,
        "hand": "right"
      },
      {
        "midi": 66,
        "time": 181.25,
        "duration": 0.417,
        "velocity": 1,
        "hand": "right"
      },
      {
        "midi": 52,
        "time": 181.667,
        "duration": 1.25,
        "velocity": 1,
        "hand": "left"
      },
      {
        "midi": 64,
        "time": 181.667,
        "duration": 0.417,
        "velocity": 1,
        "hand": "right"
      },
      {
        "midi": 66,
        "time": 182.083,
        "duration": 0.417,
        "velocity": 1,
        "hand": "right"
      },
      {
        "midi": 45,
        "time": 182.5,
        "duration": 0.417,
        "velocity": 1,
        "hand": "left"
      },
      {
        "midi": 57,
        "time": 182.5,
        "duration": 0.417,
        "velocity": 1,
        "hand": "left"
      },
      {
        "midi": 60,
        "time": 182.5,
        "duration": 0.417,
        "velocity": 1,
        "hand": "right"
      },
      {
        "midi": 64,
        "time": 182.5,
        "duration": 0.417,
        "velocity": 1,
        "hand": "right"
      },
      {
        "midi": 67,
        "time": 182.5,
        "duration": 0.417,
        "velocity": 1,
        "hand": "right"
      },
      {
        "midi": 72,
        "time": 183.333,
        "duration": 0.833,
        "velocity": 1,
        "hand": "right"
      },
      {
        "midi": 76,
        "time": 183.75,
        "duration": 0.417,
        "velocity": 1,
        "hand": "right"
      },
      {
        "midi": 71,
        "time": 184.167,
        "duration": 1.667,
        "velocity": 1,
        "hand": "right"
      },
      {
        "midi": 74,
        "time": 184.167,
        "duration": 1.667,
        "velocity": 1,
        "hand": "right"
      },
      {
        "midi": 81,
        "time": 184.167,
        "duration": 0.417,
        "velocity": 1,
        "hand": "right"
      },
      {
        "midi": 80,
        "time": 184.583,
        "duration": 0.417,
        "velocity": 1,
        "hand": "right"
      },
      {
        "midi": 64,
        "time": 185,
        "duration": 1.25,
        "velocity": 1,
        "hand": "right"
      },
      {
        "midi": 78,
        "time": 185,
        "duration": 0.417,
        "velocity": 1,
        "hand": "right"
      },
      {
        "midi": 80,
        "time": 185.417,
        "duration": 0.417,
        "velocity": 1,
        "hand": "right"
      },
      {
        "midi": 57,
        "time": 185.833,
        "duration": 0.417,
        "velocity": 1,
        "hand": "left"
      },
      {
        "midi": 69,
        "time": 185.833,
        "duration": 0.417,
        "velocity": 1,
        "hand": "right"
      },
      {
        "midi": 72,
        "time": 185.833,
        "duration": 0.417,
        "velocity": 1,
        "hand": "right"
      },
      {
        "midi": 76,
        "time": 185.833,
        "duration": 0.417,
        "velocity": 1,
        "hand": "right"
      },
      {
        "midi": 81,
        "time": 185.833,
        "duration": 0.417,
        "velocity": 1,
        "hand": "right"
      },
      {
        "midi": 72,
        "time": 186.667,
        "duration": 0.833,
        "velocity": 1,
        "hand": "right"
      },
      {
        "midi": 76,
        "time": 186.875,
        "duration": 0.208,
        "velocity": 1,
        "hand": "right"
      },
      {
        "midi": 81,
        "time": 187.083,
        "duration": 0.208,
        "velocity": 1,
        "hand": "right"
      },
      {
        "midi": 88,
        "time": 187.292,
        "duration": 0.208,
        "velocity": 1,
        "hand": "right"
      },
      {
        "midi": 71,
        "time": 187.5,
        "duration": 0.833,
        "velocity": 1,
        "hand": "right"
      },
      {
        "midi": 74,
        "time": 187.5,
        "duration": 0.833,
        "velocity": 1,
        "hand": "right"
      },
      {
        "midi": 76,
        "time": 187.5,
        "duration": 0.833,
        "velocity": 1,
        "hand": "right"
      },
      {
        "midi": 80,
        "time": 187.5,
        "duration": 0.833,
        "velocity": 1,
        "hand": "right"
      },
      {
        "midi": 57,
        "time": 187.917,
        "duration": 0.417,
        "velocity": 1,
        "hand": "left"
      },
      {
        "midi": 64,
        "time": 187.917,
        "duration": 0.417,
        "velocity": 1,
        "hand": "right"
      },
      {
        "midi": 69,
        "time": 188.333,
        "duration": 0.833,
        "velocity": 1,
        "hand": "right"
      },
      {
        "midi": 72,
        "time": 188.542,
        "duration": 0.208,
        "velocity": 1,
        "hand": "right"
      },
      {
        "midi": 76,
        "time": 188.75,
        "duration": 0.208,
        "velocity": 1,
        "hand": "right"
      },
      {
        "midi": 81,
        "time": 188.958,
        "duration": 0.208,
        "velocity": 1,
        "hand": "right"
      },
      {
        "midi": 68,
        "time": 189.167,
        "duration": 0.833,
        "velocity": 1,
        "hand": "right"
      },
      {
        "midi": 71,
        "time": 189.167,
        "duration": 0.833,
        "velocity": 1,
        "hand": "right"
      },
      {
        "midi": 74,
        "time": 189.167,
        "duration": 0.833,
        "velocity": 1,
        "hand": "right"
      },
      {
        "midi": 76,
        "time": 189.167,
        "duration": 0.833,
        "velocity": 1,
        "hand": "right"
      },
      {
        "midi": 57,
        "time": 189.583,
        "duration": 0.417,
        "velocity": 1,
        "hand": "left"
      },
      {
        "midi": 64,
        "time": 189.583,
        "duration": 0.417,
        "velocity": 1,
        "hand": "right"
      },
      {
        "midi": 72,
        "time": 190,
        "duration": 0.833,
        "velocity": 1,
        "hand": "right"
      },
      {
        "midi": 76,
        "time": 190.208,
        "duration": 0.208,
        "velocity": 1,
        "hand": "right"
      },
      {
        "midi": 81,
        "time": 190.417,
        "duration": 0.208,
        "velocity": 1,
        "hand": "right"
      },
      {
        "midi": 88,
        "time": 190.625,
        "duration": 0.208,
        "velocity": 1,
        "hand": "right"
      },
      {
        "midi": 71,
        "time": 190.833,
        "duration": 0.833,
        "velocity": 1,
        "hand": "right"
      },
      {
        "midi": 74,
        "time": 190.833,
        "duration": 0.833,
        "velocity": 1,
        "hand": "right"
      },
      {
        "midi": 76,
        "time": 190.833,
        "duration": 0.833,
        "velocity": 1,
        "hand": "right"
      },
      {
        "midi": 80,
        "time": 190.833,
        "duration": 0.833,
        "velocity": 1,
        "hand": "right"
      },
      {
        "midi": 57,
        "time": 191.25,
        "duration": 0.417,
        "velocity": 1,
        "hand": "left"
      },
      {
        "midi": 64,
        "time": 191.25,
        "duration": 0.417,
        "velocity": 1,
        "hand": "right"
      },
      {
        "midi": 69,
        "time": 191.667,
        "duration": 0.833,
        "velocity": 1,
        "hand": "right"
      },
      {
        "midi": 72,
        "time": 191.875,
        "duration": 0.208,
        "velocity": 1,
        "hand": "right"
      },
      {
        "midi": 76,
        "time": 192.083,
        "duration": 0.208,
        "velocity": 1,
        "hand": "right"
      },
      {
        "midi": 81,
        "time": 192.292,
        "duration": 0.208,
        "velocity": 1,
        "hand": "right"
      },
      {
        "midi": 68,
        "time": 192.5,
        "duration": 0.833,
        "velocity": 1,
        "hand": "right"
      },
      {
        "midi": 71,
        "time": 192.5,
        "duration": 0.833,
        "velocity": 1,
        "hand": "right"
      },
      {
        "midi": 74,
        "time": 192.5,
        "duration": 0.833,
        "velocity": 1,
        "hand": "right"
      },
      {
        "midi": 76,
        "time": 192.5,
        "duration": 0.833,
        "velocity": 1,
        "hand": "right"
      },
      {
        "midi": 57,
        "time": 192.917,
        "duration": 0.417,
        "velocity": 1,
        "hand": "left"
      },
      {
        "midi": 64,
        "time": 192.917,
        "duration": 0.417,
        "velocity": 1,
        "hand": "right"
      },
      {
        "midi": 57,
        "time": 193.333,
        "duration": 0.417,
        "velocity": 1,
        "hand": "left"
      },
      {
        "midi": 81,
        "time": 193.333,
        "duration": 0.208,
        "velocity": 1,
        "hand": "right"
      },
      {
        "midi": 88,
        "time": 193.542,
        "duration": 0.208,
        "velocity": 1,
        "hand": "right"
      },
      {
        "midi": 73,
        "time": 193.75,
        "duration": 0.417,
        "velocity": 1,
        "hand": "right"
      },
      {
        "midi": 90,
        "time": 193.75,
        "duration": 0.208,
        "velocity": 1,
        "hand": "right"
      },
      {
        "midi": 88,
        "time": 193.958,
        "duration": 0.208,
        "velocity": 1,
        "hand": "right"
      },
      {
        "midi": 74,
        "time": 194.167,
        "duration": 0.417,
        "velocity": 1,
        "hand": "right"
      },
      {
        "midi": 80,
        "time": 194.167,
        "duration": 0.208,
        "velocity": 1,
        "hand": "right"
      },
      {
        "midi": 88,
        "time": 194.375,
        "duration": 0.208,
        "velocity": 1,
        "hand": "right"
      },
      {
        "midi": 64,
        "time": 194.583,
        "duration": 0.417,
        "velocity": 1,
        "hand": "right"
      },
      {
        "midi": 90,
        "time": 194.583,
        "duration": 0.208,
        "velocity": 1,
        "hand": "right"
      },
      {
        "midi": 88,
        "time": 194.792,
        "duration": 0.208,
        "velocity": 1,
        "hand": "right"
      },
      {
        "midi": 57,
        "time": 195,
        "duration": 0.417,
        "velocity": 1,
        "hand": "left"
      },
      {
        "midi": 83,
        "time": 195,
        "duration": 0.208,
        "velocity": 1,
        "hand": "right"
      },
      {
        "midi": 88,
        "time": 195.208,
        "duration": 0.208,
        "velocity": 1,
        "hand": "right"
      },
      {
        "midi": 68,
        "time": 195.417,
        "duration": 0.417,
        "velocity": 1,
        "hand": "right"
      },
      {
        "midi": 90,
        "time": 195.417,
        "duration": 0.208,
        "velocity": 1,
        "hand": "right"
      },
      {
        "midi": 88,
        "time": 195.625,
        "duration": 0.208,
        "velocity": 1,
        "hand": "right"
      },
      {
        "midi": 69,
        "time": 195.833,
        "duration": 0.417,
        "velocity": 1,
        "hand": "right"
      },
      {
        "midi": 85,
        "time": 195.833,
        "duration": 0.208,
        "velocity": 1,
        "hand": "right"
      },
      {
        "midi": 88,
        "time": 196.042,
        "duration": 0.208,
        "velocity": 1,
        "hand": "right"
      },
      {
        "midi": 64,
        "time": 196.25,
        "duration": 0.417,
        "velocity": 1,
        "hand": "right"
      },
      {
        "midi": 90,
        "time": 196.25,
        "duration": 0.208,
        "velocity": 1,
        "hand": "right"
      },
      {
        "midi": 88,
        "time": 196.458,
        "duration": 0.208,
        "velocity": 1,
        "hand": "right"
      },
      {
        "midi": 57,
        "time": 196.667,
        "duration": 0.417,
        "velocity": 1,
        "hand": "left"
      },
      {
        "midi": 69,
        "time": 196.667,
        "duration": 0.208,
        "velocity": 1,
        "hand": "right"
      },
      {
        "midi": 76,
        "time": 196.875,
        "duration": 0.208,
        "velocity": 1,
        "hand": "right"
      },
      {
        "midi": 61,
        "time": 197.083,
        "duration": 0.417,
        "velocity": 1,
        "hand": "right"
      },
      {
        "midi": 78,
        "time": 197.083,
        "duration": 0.208,
        "velocity": 1,
        "hand": "right"
      },
      {
        "midi": 76,
        "time": 197.292,
        "duration": 0.208,
        "velocity": 1,
        "hand": "right"
      },
      {
        "midi": 62,
        "time": 197.5,
        "duration": 0.417,
        "velocity": 1,
        "hand": "right"
      },
      {
        "midi": 68,
        "time": 197.5,
        "duration": 0.208,
        "velocity": 1,
        "hand": "right"
      },
      {
        "midi": 76,
        "time": 197.708,
        "duration": 0.208,
        "velocity": 1,
        "hand": "right"
      },
      {
        "midi": 52,
        "time": 197.917,
        "duration": 0.417,
        "velocity": 1,
        "hand": "left"
      },
      {
        "midi": 78,
        "time": 197.917,
        "duration": 0.208,
        "velocity": 1,
        "hand": "right"
      },
      {
        "midi": 76,
        "time": 198.125,
        "duration": 0.208,
        "velocity": 1,
        "hand": "right"
      },
      {
        "midi": 45,
        "time": 198.333,
        "duration": 0.417,
        "velocity": 1,
        "hand": "left"
      },
      {
        "midi": 71,
        "time": 198.333,
        "duration": 0.208,
        "velocity": 1,
        "hand": "right"
      },
      {
        "midi": 76,
        "time": 198.542,
        "duration": 0.208,
        "velocity": 1,
        "hand": "right"
      },
      {
        "midi": 56,
        "time": 198.75,
        "duration": 0.417,
        "velocity": 1,
        "hand": "left"
      },
      {
        "midi": 78,
        "time": 198.75,
        "duration": 0.208,
        "velocity": 1,
        "hand": "right"
      },
      {
        "midi": 76,
        "time": 198.958,
        "duration": 0.208,
        "velocity": 1,
        "hand": "right"
      },
      {
        "midi": 57,
        "time": 199.167,
        "duration": 0.417,
        "velocity": 1,
        "hand": "left"
      },
      {
        "midi": 73,
        "time": 199.167,
        "duration": 0.208,
        "velocity": 1,
        "hand": "right"
      },
      {
        "midi": 76,
        "time": 199.375,
        "duration": 0.208,
        "velocity": 1,
        "hand": "right"
      },
      {
        "midi": 61,
        "time": 199.583,
        "duration": 0.417,
        "velocity": 1,
        "hand": "right"
      },
      {
        "midi": 78,
        "time": 199.583,
        "duration": 0.208,
        "velocity": 1,
        "hand": "right"
      },
      {
        "midi": 76,
        "time": 199.792,
        "duration": 0.208,
        "velocity": 1,
        "hand": "right"
      },
      {
        "midi": 66,
        "time": 200,
        "duration": 0.833,
        "velocity": 1,
        "hand": "right"
      },
      {
        "midi": 69,
        "time": 200,
        "duration": 0.208,
        "velocity": 1,
        "hand": "right"
      },
      {
        "midi": 73,
        "time": 200.208,
        "duration": 0.208,
        "velocity": 1,
        "hand": "right"
      },
      {
        "midi": 74,
        "time": 200.417,
        "duration": 0.208,
        "velocity": 1,
        "hand": "right"
      },
      {
        "midi": 73,
        "time": 200.625,
        "duration": 0.208,
        "velocity": 1,
        "hand": "right"
      },
      {
        "midi": 65,
        "time": 200.833,
        "duration": 0.417,
        "velocity": 1,
        "hand": "right"
      },
      {
        "midi": 69,
        "time": 201.042,
        "duration": 0.208,
        "velocity": 1,
        "hand": "right"
      },
      {
        "midi": 64,
        "time": 201.25,
        "duration": 0.417,
        "velocity": 1,
        "hand": "right"
      },
      {
        "midi": 73,
        "time": 201.25,
        "duration": 0.208,
        "velocity": 1,
        "hand": "right"
      },
      {
        "midi": 69,
        "time": 201.458,
        "duration": 0.208,
        "velocity": 1,
        "hand": "right"
      },
      {
        "midi": 62,
        "time": 201.667,
        "duration": 0.417,
        "velocity": 1,
        "hand": "right"
      },
      {
        "midi": 64,
        "time": 201.875,
        "duration": 0.208,
        "velocity": 1,
        "hand": "right"
      },
      {
        "midi": 61,
        "time": 202.083,
        "duration": 0.417,
        "velocity": 1,
        "hand": "right"
      },
      {
        "midi": 69,
        "time": 202.083,
        "duration": 0.208,
        "velocity": 1,
        "hand": "right"
      },
      {
        "midi": 64,
        "time": 202.292,
        "duration": 0.208,
        "velocity": 1,
        "hand": "right"
      },
      {
        "midi": 45,
        "time": 202.5,
        "duration": 0.417,
        "velocity": 1,
        "hand": "left"
      },
      {
        "midi": 61,
        "time": 202.5,
        "duration": 0.208,
        "velocity": 1,
        "hand": "right"
      },
      {
        "midi": 64,
        "time": 202.708,
        "duration": 0.208,
        "velocity": 1,
        "hand": "right"
      },
      {
        "midi": 49,
        "time": 202.917,
        "duration": 0.417,
        "velocity": 1,
        "hand": "left"
      },
      {
        "midi": 66,
        "time": 202.917,
        "duration": 0.208,
        "velocity": 1,
        "hand": "right"
      },
      {
        "midi": 64,
        "time": 203.125,
        "duration": 0.208,
        "velocity": 1,
        "hand": "right"
      },
      {
        "midi": 54,
        "time": 203.333,
        "duration": 0.833,
        "velocity": 1,
        "hand": "left"
      },
      {
        "midi": 57,
        "time": 203.333,
        "duration": 0.208,
        "velocity": 1,
        "hand": "left"
      },
      {
        "midi": 61,
        "time": 203.542,
        "duration": 0.208,
        "velocity": 1,
        "hand": "right"
      },
      {
        "midi": 62,
        "time": 203.75,
        "duration": 0.208,
        "velocity": 1,
        "hand": "right"
      },
      {
        "midi": 61,
        "time": 203.958,
        "duration": 0.208,
        "velocity": 1,
        "hand": "right"
      },
      {
        "midi": 53,
        "time": 204.167,
        "duration": 0.417,
        "velocity": 1,
        "hand": "left"
      },
      {
        "midi": 57,
        "time": 204.375,
        "duration": 0.208,
        "velocity": 1,
        "hand": "left"
      },
      {
        "midi": 52,
        "time": 204.583,
        "duration": 0.417,
        "velocity": 1,
        "hand": "left"
      },
      {
        "midi": 61,
        "time": 204.583,
        "duration": 0.208,
        "velocity": 1,
        "hand": "right"
      },
      {
        "midi": 57,
        "time": 204.792,
        "duration": 0.208,
        "velocity": 1,
        "hand": "left"
      },
      {
        "midi": 50,
        "time": 205,
        "duration": 0.417,
        "velocity": 1,
        "hand": "left"
      },
      {
        "midi": 52,
        "time": 205.208,
        "duration": 0.208,
        "velocity": 1,
        "hand": "left"
      },
      {
        "midi": 49,
        "time": 205.417,
        "duration": 0.417,
        "velocity": 1,
        "hand": "left"
      },
      {
        "midi": 57,
        "time": 205.417,
        "duration": 0.208,
        "velocity": 1,
        "hand": "left"
      },
      {
        "midi": 52,
        "time": 205.625,
        "duration": 0.208,
        "velocity": 1,
        "hand": "left"
      },
      {
        "midi": 47,
        "time": 205.833,
        "duration": 0.417,
        "velocity": 1,
        "hand": "left"
      },
      {
        "midi": 49,
        "time": 206.042,
        "duration": 0.208,
        "velocity": 1,
        "hand": "left"
      },
      {
        "midi": 45,
        "time": 206.25,
        "duration": 0.417,
        "velocity": 1,
        "hand": "left"
      },
      {
        "midi": 52,
        "time": 206.25,
        "duration": 0.208,
        "velocity": 1,
        "hand": "left"
      },
      {
        "midi": 49,
        "time": 206.458,
        "duration": 0.208,
        "velocity": 1,
        "hand": "left"
      },
      {
        "midi": 44,
        "time": 206.667,
        "duration": 0.417,
        "velocity": 1,
        "hand": "left"
      },
      {
        "midi": 49,
        "time": 206.875,
        "duration": 0.208,
        "velocity": 1,
        "hand": "left"
      },
      {
        "midi": 45,
        "time": 207.083,
        "duration": 0.417,
        "velocity": 1,
        "hand": "left"
      },
      {
        "midi": 52,
        "time": 207.083,
        "duration": 0.208,
        "velocity": 1,
        "hand": "left"
      },
      {
        "midi": 49,
        "time": 207.292,
        "duration": 0.208,
        "velocity": 1,
        "hand": "left"
      },
      {
        "midi": 47,
        "time": 207.5,
        "duration": 0.417,
        "velocity": 1,
        "hand": "left"
      },
      {
        "midi": 49,
        "time": 207.708,
        "duration": 0.208,
        "velocity": 1,
        "hand": "left"
      },
      {
        "midi": 45,
        "time": 207.917,
        "duration": 0.417,
        "velocity": 1,
        "hand": "left"
      },
      {
        "midi": 52,
        "time": 207.917,
        "duration": 0.208,
        "velocity": 1,
        "hand": "left"
      },
      {
        "midi": 49,
        "time": 208.125,
        "duration": 0.208,
        "velocity": 1,
        "hand": "left"
      },
      {
        "midi": 44,
        "time": 208.333,
        "duration": 0.417,
        "velocity": 1,
        "hand": "left"
      },
      {
        "midi": 49,
        "time": 208.542,
        "duration": 0.208,
        "velocity": 1,
        "hand": "left"
      },
      {
        "midi": 45,
        "time": 208.75,
        "duration": 0.417,
        "velocity": 1,
        "hand": "left"
      },
      {
        "midi": 52,
        "time": 208.75,
        "duration": 0.208,
        "velocity": 1,
        "hand": "left"
      },
      {
        "midi": 49,
        "time": 208.958,
        "duration": 0.208,
        "velocity": 1,
        "hand": "left"
      },
      {
        "midi": 47,
        "time": 209.167,
        "duration": 0.417,
        "velocity": 1,
        "hand": "left"
      },
      {
        "midi": 49,
        "time": 209.375,
        "duration": 0.208,
        "velocity": 1,
        "hand": "left"
      },
      {
        "midi": 45,
        "time": 209.583,
        "duration": 0.417,
        "velocity": 1,
        "hand": "left"
      },
      {
        "midi": 52,
        "time": 209.583,
        "duration": 0.208,
        "velocity": 1,
        "hand": "left"
      },
      {
        "midi": 49,
        "time": 209.792,
        "duration": 0.208,
        "velocity": 1,
        "hand": "left"
      },
      {
        "midi": 44,
        "time": 210,
        "duration": 0.208,
        "velocity": 1,
        "hand": "left"
      },
      {
        "midi": 45,
        "time": 210.208,
        "duration": 0.208,
        "velocity": 1,
        "hand": "left"
      },
      {
        "midi": 48,
        "time": 210.417,
        "duration": 0.208,
        "velocity": 1,
        "hand": "left"
      },
      {
        "midi": 49,
        "time": 210.625,
        "duration": 0.208,
        "velocity": 1,
        "hand": "left"
      },
      {
        "midi": 51,
        "time": 210.833,
        "duration": 0.208,
        "velocity": 1,
        "hand": "left"
      },
      {
        "midi": 52,
        "time": 211.042,
        "duration": 0.208,
        "velocity": 1,
        "hand": "left"
      },
      {
        "midi": 56,
        "time": 211.25,
        "duration": 0.208,
        "velocity": 1,
        "hand": "left"
      },
      {
        "midi": 57,
        "time": 211.458,
        "duration": 0.208,
        "velocity": 1,
        "hand": "left"
      },
      {
        "midi": 56,
        "time": 211.667,
        "duration": 0.208,
        "velocity": 1,
        "hand": "left"
      },
      {
        "midi": 57,
        "time": 211.875,
        "duration": 0.208,
        "velocity": 1,
        "hand": "left"
      },
      {
        "midi": 60,
        "time": 212.083,
        "duration": 0.208,
        "velocity": 1,
        "hand": "right"
      },
      {
        "midi": 61,
        "time": 212.292,
        "duration": 0.208,
        "velocity": 1,
        "hand": "right"
      },
      {
        "midi": 63,
        "time": 212.5,
        "duration": 0.208,
        "velocity": 1,
        "hand": "right"
      },
      {
        "midi": 64,
        "time": 212.708,
        "duration": 0.208,
        "velocity": 1,
        "hand": "right"
      },
      {
        "midi": 68,
        "time": 212.917,
        "duration": 0.208,
        "velocity": 1,
        "hand": "right"
      },
      {
        "midi": 69,
        "time": 213.125,
        "duration": 0.208,
        "velocity": 1,
        "hand": "right"
      },
      {
        "midi": 68,
        "time": 213.333,
        "duration": 0.208,
        "velocity": 1,
        "hand": "right"
      },
      {
        "midi": 69,
        "time": 213.542,
        "duration": 0.208,
        "velocity": 1,
        "hand": "right"
      },
      {
        "midi": 72,
        "time": 213.75,
        "duration": 0.208,
        "velocity": 1,
        "hand": "right"
      },
      {
        "midi": 73,
        "time": 213.958,
        "duration": 0.208,
        "velocity": 1,
        "hand": "right"
      },
      {
        "midi": 75,
        "time": 214.167,
        "duration": 0.208,
        "velocity": 1,
        "hand": "right"
      },
      {
        "midi": 76,
        "time": 214.375,
        "duration": 0.208,
        "velocity": 1,
        "hand": "right"
      },
      {
        "midi": 80,
        "time": 214.583,
        "duration": 0.208,
        "velocity": 1,
        "hand": "right"
      },
      {
        "midi": 81,
        "time": 214.792,
        "duration": 0.208,
        "velocity": 1,
        "hand": "right"
      },
      {
        "midi": 80,
        "time": 215,
        "duration": 0.208,
        "velocity": 1,
        "hand": "right"
      },
      {
        "midi": 81,
        "time": 215.208,
        "duration": 0.208,
        "velocity": 1,
        "hand": "right"
      },
      {
        "midi": 84,
        "time": 215.417,
        "duration": 0.208,
        "velocity": 1,
        "hand": "right"
      },
      {
        "midi": 85,
        "time": 215.625,
        "duration": 0.208,
        "velocity": 1,
        "hand": "right"
      },
      {
        "midi": 87,
        "time": 215.833,
        "duration": 0.208,
        "velocity": 1,
        "hand": "right"
      },
      {
        "midi": 88,
        "time": 216.042,
        "duration": 0.208,
        "velocity": 1,
        "hand": "right"
      },
      {
        "midi": 92,
        "time": 216.25,
        "duration": 0.208,
        "velocity": 1,
        "hand": "right"
      },
      {
        "midi": 93,
        "time": 216.458,
        "duration": 0.208,
        "velocity": 1,
        "hand": "right"
      },
      {
        "midi": 50,
        "time": 216.667,
        "duration": 0.833,
        "velocity": 1,
        "hand": "left"
      },
      {
        "midi": 54,
        "time": 216.667,
        "duration": 0.833,
        "velocity": 1,
        "hand": "left"
      },
      {
        "midi": 57,
        "time": 216.667,
        "duration": 0.417,
        "velocity": 1,
        "hand": "left"
      },
      {
        "midi": 74,
        "time": 216.667,
        "duration": 0.417,
        "velocity": 1,
        "hand": "right"
      },
      {
        "midi": 78,
        "time": 216.667,
        "duration": 0.417,
        "velocity": 1,
        "hand": "right"
      },
      {
        "midi": 81,
        "time": 216.667,
        "duration": 0.833,
        "velocity": 1,
        "hand": "right"
      },
      {
        "midi": 62,
        "time": 217.083,
        "duration": 0.417,
        "velocity": 1,
        "hand": "right"
      },
      {
        "midi": 69,
        "time": 217.083,
        "duration": 0.417,
        "velocity": 1,
        "hand": "right"
      },
      {
        "midi": 50,
        "time": 217.5,
        "duration": 0.833,
        "velocity": 1,
        "hand": "left"
      },
      {
        "midi": 55,
        "time": 217.5,
        "duration": 0.833,
        "velocity": 1,
        "hand": "left"
      },
      {
        "midi": 58,
        "time": 217.5,
        "duration": 0.417,
        "velocity": 1,
        "hand": "left"
      },
      {
        "midi": 70,
        "time": 217.5,
        "duration": 0.417,
        "velocity": 1,
        "hand": "right"
      },
      {
        "midi": 74,
        "time": 217.5,
        "duration": 0.417,
        "velocity": 1,
        "hand": "right"
      },
      {
        "midi": 76,
        "time": 217.5,
        "duration": 0.833,
        "velocity": 1,
        "hand": "right"
      },
      {
        "midi": 62,
        "time": 217.917,
        "duration": 0.417,
        "velocity": 1,
        "hand": "right"
      },
      {
        "midi": 64,
        "time": 217.917,
        "duration": 0.417,
        "velocity": 1,
        "hand": "right"
      },
      {
        "midi": 50,
        "time": 218.333,
        "duration": 0.833,
        "velocity": 1,
        "hand": "left"
      },
      {
        "midi": 54,
        "time": 218.333,
        "duration": 0.833,
        "velocity": 1,
        "hand": "left"
      },
      {
        "midi": 57,
        "time": 218.333,
        "duration": 0.417,
        "velocity": 1,
        "hand": "left"
      },
      {
        "midi": 74,
        "time": 218.333,
        "duration": 0.417,
        "velocity": 1,
        "hand": "right"
      },
      {
        "midi": 78,
        "time": 218.333,
        "duration": 0.417,
        "velocity": 1,
        "hand": "right"
      },
      {
        "midi": 81,
        "time": 218.333,
        "duration": 0.833,
        "velocity": 1,
        "hand": "right"
      },
      {
        "midi": 62,
        "time": 218.75,
        "duration": 0.417,
        "velocity": 1,
        "hand": "right"
      },
      {
        "midi": 69,
        "time": 218.75,
        "duration": 0.417,
        "velocity": 1,
        "hand": "right"
      },
      {
        "midi": 50,
        "time": 219.167,
        "duration": 0.833,
        "velocity": 1,
        "hand": "left"
      },
      {
        "midi": 55,
        "time": 219.167,
        "duration": 0.833,
        "velocity": 1,
        "hand": "left"
      },
      {
        "midi": 58,
        "time": 219.167,
        "duration": 0.417,
        "velocity": 1,
        "hand": "left"
      },
      {
        "midi": 70,
        "time": 219.167,
        "duration": 0.417,
        "velocity": 1,
        "hand": "right"
      },
      {
        "midi": 74,
        "time": 219.167,
        "duration": 0.417,
        "velocity": 1,
        "hand": "right"
      },
      {
        "midi": 76,
        "time": 219.167,
        "duration": 0.833,
        "velocity": 1,
        "hand": "right"
      },
      {
        "midi": 62,
        "time": 219.583,
        "duration": 0.417,
        "velocity": 1,
        "hand": "right"
      },
      {
        "midi": 64,
        "time": 219.583,
        "duration": 0.417,
        "velocity": 1,
        "hand": "right"
      },
      {
        "midi": 60,
        "time": 220,
        "duration": 1.667,
        "velocity": 1,
        "hand": "right"
      },
      {
        "midi": 62,
        "time": 220,
        "duration": 1.667,
        "velocity": 1,
        "hand": "right"
      },
      {
        "midi": 66,
        "time": 220,
        "duration": 1.667,
        "velocity": 1,
        "hand": "right"
      },
      {
        "midi": 69,
        "time": 220,
        "duration": 1.667,
        "velocity": 1,
        "hand": "right"
      },
      {
        "midi": 74,
        "time": 220,
        "duration": 0.208,
        "velocity": 1,
        "hand": "right"
      },
      {
        "midi": 76,
        "time": 220.208,
        "duration": 0.208,
        "velocity": 1,
        "hand": "right"
      },
      {
        "midi": 74,
        "time": 220.417,
        "duration": 0.208,
        "velocity": 1,
        "hand": "right"
      },
      {
        "midi": 76,
        "time": 220.625,
        "duration": 0.208,
        "velocity": 1,
        "hand": "right"
      },
      {
        "midi": 78,
        "time": 220.833,
        "duration": 0.417,
        "velocity": 1,
        "hand": "right"
      },
      {
        "midi": 78,
        "time": 221.25,
        "duration": 0.417,
        "velocity": 1,
        "hand": "right"
      },
      {
        "midi": 58,
        "time": 221.667,
        "duration": 0.208,
        "velocity": 1,
        "hand": "left"
      },
      {
        "midi": 67,
        "time": 221.667,
        "duration": 0.833,
        "velocity": 1,
        "hand": "right"
      },
      {
        "midi": 74,
        "time": 221.667,
        "duration": 0.833,
        "velocity": 1,
        "hand": "right"
      },
      {
        "midi": 76,
        "time": 221.667,
        "duration": 0.417,
        "velocity": 1,
        "hand": "right"
      },
      {
        "midi": 57,
        "time": 221.875,
        "duration": 0.208,
        "velocity": 1,
        "hand": "left"
      },
      {
        "midi": 55,
        "time": 222.083,
        "duration": 0.208,
        "velocity": 1,
        "hand": "left"
      },
      {
        "midi": 79,
        "time": 222.083,
        "duration": 0.417,
        "velocity": 1,
        "hand": "right"
      },
      {
        "midi": 54,
        "time": 222.292,
        "duration": 0.208,
        "velocity": 1,
        "hand": "left"
      },
      {
        "midi": 52,
        "time": 222.5,
        "duration": 0.417,
        "velocity": 1,
        "hand": "left"
      },
      {
        "midi": 73,
        "time": 222.5,
        "duration": 0.417,
        "velocity": 1,
        "hand": "right"
      },
      {
        "midi": 76,
        "time": 222.5,
        "duration": 0.833,
        "velocity": 1,
        "hand": "right"
      },
      {
        "midi": 57,
        "time": 222.917,
        "duration": 0.417,
        "velocity": 1,
        "hand": "left"
      },
      {
        "midi": 69,
        "time": 222.917,
        "duration": 0.417,
        "velocity": 1,
        "hand": "right"
      },
      {
        "midi": 50,
        "time": 223.333,
        "duration": 0.833,
        "velocity": 1,
        "hand": "left"
      },
      {
        "midi": 54,
        "time": 223.333,
        "duration": 0.833,
        "velocity": 1,
        "hand": "left"
      },
      {
        "midi": 57,
        "time": 223.333,
        "duration": 0.417,
        "velocity": 1,
        "hand": "left"
      },
      {
        "midi": 74,
        "time": 223.333,
        "duration": 0.417,
        "velocity": 1,
        "hand": "right"
      },
      {
        "midi": 78,
        "time": 223.333,
        "duration": 0.417,
        "velocity": 1,
        "hand": "right"
      },
      {
        "midi": 81,
        "time": 223.333,
        "duration": 0.833,
        "velocity": 1,
        "hand": "right"
      },
      {
        "midi": 62,
        "time": 223.75,
        "duration": 0.417,
        "velocity": 1,
        "hand": "right"
      },
      {
        "midi": 69,
        "time": 223.75,
        "duration": 0.417,
        "velocity": 1,
        "hand": "right"
      },
      {
        "midi": 50,
        "time": 224.167,
        "duration": 0.833,
        "velocity": 1,
        "hand": "left"
      },
      {
        "midi": 55,
        "time": 224.167,
        "duration": 0.833,
        "velocity": 1,
        "hand": "left"
      },
      {
        "midi": 58,
        "time": 224.167,
        "duration": 0.417,
        "velocity": 1,
        "hand": "left"
      },
      {
        "midi": 70,
        "time": 224.167,
        "duration": 0.417,
        "velocity": 1,
        "hand": "right"
      },
      {
        "midi": 74,
        "time": 224.167,
        "duration": 0.417,
        "velocity": 1,
        "hand": "right"
      },
      {
        "midi": 76,
        "time": 224.167,
        "duration": 0.833,
        "velocity": 1,
        "hand": "right"
      },
      {
        "midi": 62,
        "time": 224.583,
        "duration": 0.417,
        "velocity": 1,
        "hand": "right"
      },
      {
        "midi": 64,
        "time": 224.583,
        "duration": 0.417,
        "velocity": 1,
        "hand": "right"
      },
      {
        "midi": 50,
        "time": 225,
        "duration": 0.833,
        "velocity": 1,
        "hand": "left"
      },
      {
        "midi": 54,
        "time": 225,
        "duration": 0.833,
        "velocity": 1,
        "hand": "left"
      },
      {
        "midi": 57,
        "time": 225,
        "duration": 0.417,
        "velocity": 1,
        "hand": "left"
      },
      {
        "midi": 74,
        "time": 225,
        "duration": 0.417,
        "velocity": 1,
        "hand": "right"
      },
      {
        "midi": 78,
        "time": 225,
        "duration": 0.417,
        "velocity": 1,
        "hand": "right"
      },
      {
        "midi": 81,
        "time": 225,
        "duration": 0.833,
        "velocity": 1,
        "hand": "right"
      },
      {
        "midi": 62,
        "time": 225.417,
        "duration": 0.417,
        "velocity": 1,
        "hand": "right"
      },
      {
        "midi": 69,
        "time": 225.417,
        "duration": 0.417,
        "velocity": 1,
        "hand": "right"
      },
      {
        "midi": 50,
        "time": 225.833,
        "duration": 0.833,
        "velocity": 1,
        "hand": "left"
      },
      {
        "midi": 55,
        "time": 225.833,
        "duration": 0.833,
        "velocity": 1,
        "hand": "left"
      },
      {
        "midi": 58,
        "time": 225.833,
        "duration": 0.417,
        "velocity": 1,
        "hand": "left"
      },
      {
        "midi": 70,
        "time": 225.833,
        "duration": 0.417,
        "velocity": 1,
        "hand": "right"
      },
      {
        "midi": 74,
        "time": 225.833,
        "duration": 0.417,
        "velocity": 1,
        "hand": "right"
      },
      {
        "midi": 76,
        "time": 225.833,
        "duration": 0.833,
        "velocity": 1,
        "hand": "right"
      },
      {
        "midi": 62,
        "time": 226.25,
        "duration": 0.417,
        "velocity": 1,
        "hand": "right"
      },
      {
        "midi": 64,
        "time": 226.25,
        "duration": 0.417,
        "velocity": 1,
        "hand": "right"
      },
      {
        "midi": 60,
        "time": 226.667,
        "duration": 1.667,
        "velocity": 1,
        "hand": "right"
      },
      {
        "midi": 62,
        "time": 226.667,
        "duration": 1.667,
        "velocity": 1,
        "hand": "right"
      },
      {
        "midi": 66,
        "time": 226.667,
        "duration": 1.667,
        "velocity": 1,
        "hand": "right"
      },
      {
        "midi": 69,
        "time": 226.667,
        "duration": 1.667,
        "velocity": 1,
        "hand": "right"
      },
      {
        "midi": 74,
        "time": 226.667,
        "duration": 0.208,
        "velocity": 1,
        "hand": "right"
      },
      {
        "midi": 76,
        "time": 226.875,
        "duration": 0.208,
        "velocity": 1,
        "hand": "right"
      },
      {
        "midi": 74,
        "time": 227.083,
        "duration": 0.208,
        "velocity": 1,
        "hand": "right"
      },
      {
        "midi": 76,
        "time": 227.292,
        "duration": 0.208,
        "velocity": 1,
        "hand": "right"
      },
      {
        "midi": 78,
        "time": 227.5,
        "duration": 0.417,
        "velocity": 1,
        "hand": "right"
      },
      {
        "midi": 78,
        "time": 227.917,
        "duration": 0.417,
        "velocity": 1,
        "hand": "right"
      },
      {
        "midi": 58,
        "time": 228.333,
        "duration": 0.208,
        "velocity": 1,
        "hand": "left"
      },
      {
        "midi": 62,
        "time": 228.333,
        "duration": 0.208,
        "velocity": 1,
        "hand": "right"
      },
      {
        "midi": 74,
        "time": 228.333,
        "duration": 0.208,
        "velocity": 1,
        "hand": "right"
      },
      {
        "midi": 76,
        "time": 228.333,
        "duration": 0.208,
        "velocity": 1,
        "hand": "right"
      },
      {
        "midi": 78,
        "time": 228.542,
        "duration": 0.208,
        "velocity": 1,
        "hand": "right"
      },
      {
        "midi": 58,
        "time": 228.75,
        "duration": 0.208,
        "velocity": 1,
        "hand": "left"
      },
      {
        "midi": 79,
        "time": 228.75,
        "duration": 0.208,
        "velocity": 1,
        "hand": "right"
      },
      {
        "midi": 57,
        "time": 228.958,
        "duration": 0.208,
        "velocity": 1,
        "hand": "left"
      },
      {
        "midi": 81,
        "time": 228.958,
        "duration": 0.208,
        "velocity": 1,
        "hand": "right"
      },
      {
        "midi": 55,
        "time": 229.167,
        "duration": 0.417,
        "velocity": 1,
        "hand": "left"
      },
      {
        "midi": 82,
        "time": 229.167,
        "duration": 0.417,
        "velocity": 1,
        "hand": "right"
      },
      {
        "midi": 43,
        "time": 230,
        "duration": 0.833,
        "velocity": 1,
        "hand": "left"
      },
      {
        "midi": 51,
        "time": 230,
        "duration": 0.833,
        "velocity": 1,
        "hand": "left"
      },
      {
        "midi": 61,
        "time": 230.208,
        "duration": 0.208,
        "velocity": 1,
        "hand": "right"
      },
      {
        "midi": 63,
        "time": 230.208,
        "duration": 0.208,
        "velocity": 1,
        "hand": "right"
      },
      {
        "midi": 58,
        "time": 230.417,
        "duration": 0.417,
        "velocity": 1,
        "hand": "left"
      },
      {
        "midi": 61,
        "time": 230.625,
        "duration": 0.208,
        "velocity": 1,
        "hand": "right"
      },
      {
        "midi": 63,
        "time": 230.625,
        "duration": 0.208,
        "velocity": 1,
        "hand": "right"
      },
      {
        "midi": 56,
        "time": 230.833,
        "duration": 0.833,
        "velocity": 1,
        "hand": "left"
      },
      {
        "midi": 60,
        "time": 230.833,
        "duration": 0.417,
        "velocity": 1,
        "hand": "right"
      },
      {
        "midi": 51,
        "time": 231.25,
        "duration": 0.417,
        "velocity": 1,
        "hand": "left"
      },
      {
        "midi": 63,
        "time": 231.25,
        "duration": 0.417,
        "velocity": 1,
        "hand": "right"
      },
      {
        "midi": 72,
        "time": 231.25,
        "duration": 0.417,
        "velocity": 1,
        "hand": "right"
      },
      {
        "midi": 45,
        "time": 231.667,
        "duration": 0.833,
        "velocity": 1,
        "hand": "left"
      },
      {
        "midi": 53,
        "time": 231.667,
        "duration": 0.833,
        "velocity": 1,
        "hand": "left"
      },
      {
        "midi": 63,
        "time": 231.875,
        "duration": 0.208,
        "velocity": 1,
        "hand": "right"
      },
      {
        "midi": 65,
        "time": 231.875,
        "duration": 0.208,
        "velocity": 1,
        "hand": "right"
      },
      {
        "midi": 60,
        "time": 232.083,
        "duration": 0.417,
        "velocity": 1,
        "hand": "right"
      },
      {
        "midi": 63,
        "time": 232.292,
        "duration": 0.208,
        "velocity": 1,
        "hand": "right"
      },
      {
        "midi": 65,
        "time": 232.292,
        "duration": 0.208,
        "velocity": 1,
        "hand": "right"
      },
      {
        "midi": 58,
        "time": 232.5,
        "duration": 0.833,
        "velocity": 1,
        "hand": "left"
      },
      {
        "midi": 62,
        "time": 232.5,
        "duration": 0.833,
        "velocity": 1,
        "hand": "right"
      },
      {
        "midi": 46,
        "time": 232.917,
        "duration": 0.417,
        "velocity": 1,
        "hand": "left"
      },
      {
        "midi": 53,
        "time": 232.917,
        "duration": 0.417,
        "velocity": 1,
        "hand": "left"
      },
      {
        "midi": 65,
        "time": 232.917,
        "duration": 0.417,
        "velocity": 1,
        "hand": "right"
      },
      {
        "midi": 74,
        "time": 232.917,
        "duration": 0.417,
        "velocity": 1,
        "hand": "right"
      },
      {
        "midi": 47,
        "time": 233.333,
        "duration": 0.417,
        "velocity": 1,
        "hand": "left"
      },
      {
        "midi": 55,
        "time": 233.333,
        "duration": 0.833,
        "velocity": 1,
        "hand": "left"
      },
      {
        "midi": 62,
        "time": 233.333,
        "duration": 0.833,
        "velocity": 1,
        "hand": "right"
      },
      {
        "midi": 59,
        "time": 233.75,
        "duration": 0.417,
        "velocity": 1,
        "hand": "left"
      },
      {
        "midi": 65,
        "time": 233.75,
        "duration": 0.417,
        "velocity": 1,
        "hand": "right"
      },
      {
        "midi": 67,
        "time": 233.75,
        "duration": 0.417,
        "velocity": 1,
        "hand": "right"
      },
      {
        "midi": 74,
        "time": 233.75,
        "duration": 0.417,
        "velocity": 1,
        "hand": "right"
      },
      {
        "midi": 48,
        "time": 234.167,
        "duration": 0.417,
        "velocity": 1,
        "hand": "left"
      },
      {
        "midi": 55,
        "time": 234.167,
        "duration": 0.833,
        "velocity": 1,
        "hand": "left"
      },
      {
        "midi": 63,
        "time": 234.167,
        "duration": 0.833,
        "velocity": 1,
        "hand": "right"
      },
      {
        "midi": 60,
        "time": 234.583,
        "duration": 0.417,
        "velocity": 1,
        "hand": "right"
      },
      {
        "midi": 67,
        "time": 234.583,
        "duration": 0.417,
        "velocity": 1,
        "hand": "right"
      },
      {
        "midi": 75,
        "time": 234.583,
        "duration": 0.417,
        "velocity": 1,
        "hand": "right"
      },
      {
        "midi": 50,
        "time": 235,
        "duration": 0.417,
        "velocity": 1,
        "hand": "left"
      },
      {
        "midi": 55,
        "time": 235,
        "duration": 0.833,
        "velocity": 1,
        "hand": "left"
      },
      {
        "midi": 65,
        "time": 235,
        "duration": 0.833,
        "velocity": 1,
        "hand": "right"
      },
      {
        "midi": 62,
        "time": 235.417,
        "duration": 0.417,
        "velocity": 1,
        "hand": "right"
      },
      {
        "midi": 71,
        "time": 235.417,
        "duration": 0.417,
        "velocity": 1,
        "hand": "right"
      },
      {
        "midi": 79,
        "time": 235.417,
        "duration": 0.417,
        "velocity": 1,
        "hand": "right"
      },
      {
        "midi": 48,
        "time": 235.833,
        "duration": 0.417,
        "velocity": 1,
        "hand": "left"
      },
      {
        "midi": 55,
        "time": 235.833,
        "duration": 0.833,
        "velocity": 1,
        "hand": "left"
      },
      {
        "midi": 63,
        "time": 235.833,
        "duration": 0.833,
        "velocity": 1,
        "hand": "right"
      },
      {
        "midi": 60,
        "time": 236.25,
        "duration": 0.417,
        "velocity": 1,
        "hand": "right"
      },
      {
        "midi": 67,
        "time": 236.25,
        "duration": 0.417,
        "velocity": 1,
        "hand": "right"
      },
      {
        "midi": 75,
        "time": 236.25,
        "duration": 0.417,
        "velocity": 1,
        "hand": "right"
      },
      {
        "midi": 47,
        "time": 236.667,
        "duration": 0.833,
        "velocity": 1,
        "hand": "left"
      },
      {
        "midi": 55,
        "time": 236.667,
        "duration": 0.833,
        "velocity": 1,
        "hand": "left"
      },
      {
        "midi": 65,
        "time": 236.875,
        "duration": 0.208,
        "velocity": 1,
        "hand": "right"
      },
      {
        "midi": 67,
        "time": 236.875,
        "duration": 0.208,
        "velocity": 1,
        "hand": "right"
      },
      {
        "midi": 62,
        "time": 237.083,
        "duration": 0.417,
        "velocity": 1,
        "hand": "right"
      },
      {
        "midi": 65,
        "time": 237.292,
        "duration": 0.208,
        "velocity": 1,
        "hand": "right"
      },
      {
        "midi": 67,
        "time": 237.292,
        "duration": 0.208,
        "velocity": 1,
        "hand": "right"
      },
      {
        "midi": 60,
        "time": 237.5,
        "duration": 0.833,
        "velocity": 1,
        "hand": "right"
      },
      {
        "midi": 64,
        "time": 237.5,
        "duration": 0.833,
        "velocity": 1,
        "hand": "right"
      },
      {
        "midi": 48,
        "time": 237.917,
        "duration": 0.417,
        "velocity": 1,
        "hand": "left"
      },
      {
        "midi": 55,
        "time": 237.917,
        "duration": 0.417,
        "velocity": 1,
        "hand": "left"
      },
      {
        "midi": 67,
        "time": 237.917,
        "duration": 0.417,
        "velocity": 1,
        "hand": "right"
      },
      {
        "midi": 76,
        "time": 237.917,
        "duration": 0.417,
        "velocity": 1,
        "hand": "right"
      },
      {
        "midi": 49,
        "time": 238.333,
        "duration": 0.833,
        "velocity": 1,
        "hand": "left"
      },
      {
        "midi": 57,
        "time": 238.333,
        "duration": 0.417,
        "velocity": 1,
        "hand": "left"
      },
      {
        "midi": 67,
        "time": 238.542,
        "duration": 0.208,
        "velocity": 1,
        "hand": "right"
      },
      {
        "midi": 69,
        "time": 238.542,
        "duration": 0.208,
        "velocity": 1,
        "hand": "right"
      },
      {
        "midi": 64,
        "time": 238.75,
        "duration": 0.417,
        "velocity": 1,
        "hand": "right"
      },
      {
        "midi": 67,
        "time": 238.958,
        "duration": 0.208,
        "velocity": 1,
        "hand": "right"
      },
      {
        "midi": 69,
        "time": 238.958,
        "duration": 0.208,
        "velocity": 1,
        "hand": "right"
      },
      {
        "midi": 62,
        "time": 239.167,
        "duration": 0.833,
        "velocity": 1,
        "hand": "right"
      },
      {
        "midi": 65,
        "time": 239.167,
        "duration": 0.833,
        "velocity": 1,
        "hand": "right"
      },
      {
        "midi": 50,
        "time": 239.583,
        "duration": 0.417,
        "velocity": 1,
        "hand": "left"
      },
      {
        "midi": 57,
        "time": 239.583,
        "duration": 0.417,
        "velocity": 1,
        "hand": "left"
      },
      {
        "midi": 69,
        "time": 239.583,
        "duration": 0.417,
        "velocity": 1,
        "hand": "right"
      },
      {
        "midi": 77,
        "time": 239.583,
        "duration": 0.417,
        "velocity": 1,
        "hand": "right"
      },
      {
        "midi": 49,
        "time": 240,
        "duration": 0.833,
        "velocity": 1,
        "hand": "left"
      },
      {
        "midi": 57,
        "time": 240,
        "duration": 0.833,
        "velocity": 1,
        "hand": "left"
      },
      {
        "midi": 64,
        "time": 240,
        "duration": 0.833,
        "velocity": 1,
        "hand": "right"
      },
      {
        "midi": 61,
        "time": 240.417,
        "duration": 0.417,
        "velocity": 1,
        "hand": "right"
      },
      {
        "midi": 67,
        "time": 240.417,
        "duration": 0.417,
        "velocity": 1,
        "hand": "right"
      },
      {
        "midi": 69,
        "time": 240.417,
        "duration": 0.417,
        "velocity": 1,
        "hand": "right"
      },
      {
        "midi": 76,
        "time": 240.417,
        "duration": 0.417,
        "velocity": 1,
        "hand": "right"
      },
      {
        "midi": 50,
        "time": 240.833,
        "duration": 0.417,
        "velocity": 1,
        "hand": "left"
      },
      {
        "midi": 57,
        "time": 240.833,
        "duration": 0.833,
        "velocity": 1,
        "hand": "left"
      },
      {
        "midi": 65,
        "time": 240.833,
        "duration": 0.833,
        "velocity": 1,
        "hand": "right"
      },
      {
        "midi": 62,
        "time": 241.25,
        "duration": 0.417,
        "velocity": 1,
        "hand": "right"
      },
      {
        "midi": 69,
        "time": 241.25,
        "duration": 0.417,
        "velocity": 1,
        "hand": "right"
      },
      {
        "midi": 77,
        "time": 241.25,
        "duration": 0.417,
        "velocity": 1,
        "hand": "right"
      },
      {
        "midi": 52,
        "time": 241.667,
        "duration": 0.417,
        "velocity": 1,
        "hand": "left"
      },
      {
        "midi": 57,
        "time": 241.667,
        "duration": 0.833,
        "velocity": 1,
        "hand": "left"
      },
      {
        "midi": 67,
        "time": 241.667,
        "duration": 0.833,
        "velocity": 1,
        "hand": "right"
      },
      {
        "midi": 64,
        "time": 242.083,
        "duration": 0.417,
        "velocity": 1,
        "hand": "right"
      },
      {
        "midi": 73,
        "time": 242.083,
        "duration": 0.417,
        "velocity": 1,
        "hand": "right"
      },
      {
        "midi": 81,
        "time": 242.083,
        "duration": 0.417,
        "velocity": 1,
        "hand": "right"
      },
      {
        "midi": 50,
        "time": 242.5,
        "duration": 0.417,
        "velocity": 1,
        "hand": "left"
      },
      {
        "midi": 57,
        "time": 242.5,
        "duration": 0.833,
        "velocity": 1,
        "hand": "left"
      },
      {
        "midi": 65,
        "time": 242.5,
        "duration": 0.833,
        "velocity": 1,
        "hand": "right"
      },
      {
        "midi": 62,
        "time": 242.917,
        "duration": 0.417,
        "velocity": 1,
        "hand": "right"
      },
      {
        "midi": 69,
        "time": 242.917,
        "duration": 0.417,
        "velocity": 1,
        "hand": "right"
      },
      {
        "midi": 77,
        "time": 242.917,
        "duration": 0.417,
        "velocity": 1,
        "hand": "right"
      },
      {
        "midi": 49,
        "time": 243.333,
        "duration": 0.417,
        "velocity": 1,
        "hand": "left"
      },
      {
        "midi": 57,
        "time": 243.333,
        "duration": 0.833,
        "velocity": 1,
        "hand": "left"
      },
      {
        "midi": 64,
        "time": 243.333,
        "duration": 0.833,
        "velocity": 1,
        "hand": "right"
      },
      {
        "midi": 61,
        "time": 243.75,
        "duration": 0.417,
        "velocity": 1,
        "hand": "right"
      },
      {
        "midi": 67,
        "time": 243.75,
        "duration": 0.417,
        "velocity": 1,
        "hand": "right"
      },
      {
        "midi": 69,
        "time": 243.75,
        "duration": 0.417,
        "velocity": 1,
        "hand": "right"
      },
      {
        "midi": 76,
        "time": 243.75,
        "duration": 0.417,
        "velocity": 1,
        "hand": "right"
      },
      {
        "midi": 50,
        "time": 244.167,
        "duration": 0.417,
        "velocity": 1,
        "hand": "left"
      },
      {
        "midi": 57,
        "time": 244.167,
        "duration": 0.833,
        "velocity": 1,
        "hand": "left"
      },
      {
        "midi": 65,
        "time": 244.167,
        "duration": 0.833,
        "velocity": 1,
        "hand": "right"
      },
      {
        "midi": 62,
        "time": 244.583,
        "duration": 0.417,
        "velocity": 1,
        "hand": "right"
      },
      {
        "midi": 69,
        "time": 244.583,
        "duration": 0.417,
        "velocity": 1,
        "hand": "right"
      },
      {
        "midi": 77,
        "time": 244.583,
        "duration": 0.417,
        "velocity": 1,
        "hand": "right"
      },
      {
        "midi": 51,
        "time": 245,
        "duration": 0.417,
        "velocity": 1,
        "hand": "left"
      },
      {
        "midi": 59,
        "time": 245,
        "duration": 0.833,
        "velocity": 1,
        "hand": "left"
      },
      {
        "midi": 69,
        "time": 245,
        "duration": 0.833,
        "velocity": 1,
        "hand": "right"
      },
      {
        "midi": 63,
        "time": 245.417,
        "duration": 0.417,
        "velocity": 1,
        "hand": "right"
      },
      {
        "midi": 78,
        "time": 245.417,
        "duration": 0.417,
        "velocity": 1,
        "hand": "right"
      },
      {
        "midi": 83,
        "time": 245.417,
        "duration": 0.417,
        "velocity": 1,
        "hand": "right"
      },
      {
        "midi": 52,
        "time": 245.833,
        "duration": 0.417,
        "velocity": 1,
        "hand": "left"
      },
      {
        "midi": 59,
        "time": 245.833,
        "duration": 0.833,
        "velocity": 1,
        "hand": "left"
      },
      {
        "midi": 67,
        "time": 245.833,
        "duration": 0.833,
        "velocity": 1,
        "hand": "right"
      },
      {
        "midi": 64,
        "time": 246.25,
        "duration": 0.417,
        "velocity": 1,
        "hand": "right"
      },
      {
        "midi": 71,
        "time": 246.25,
        "duration": 0.417,
        "velocity": 1,
        "hand": "right"
      },
      {
        "midi": 79,
        "time": 246.25,
        "duration": 0.417,
        "velocity": 1,
        "hand": "right"
      },
      {
        "midi": 51,
        "time": 246.667,
        "duration": 0.417,
        "velocity": 1,
        "hand": "left"
      },
      {
        "midi": 59,
        "time": 246.667,
        "duration": 0.833,
        "velocity": 1,
        "hand": "left"
      },
      {
        "midi": 66,
        "time": 246.667,
        "duration": 0.833,
        "velocity": 1,
        "hand": "right"
      },
      {
        "midi": 63,
        "time": 247.083,
        "duration": 0.417,
        "velocity": 1,
        "hand": "right"
      },
      {
        "midi": 69,
        "time": 247.083,
        "duration": 0.417,
        "velocity": 1,
        "hand": "right"
      },
      {
        "midi": 71,
        "time": 247.083,
        "duration": 0.417,
        "velocity": 1,
        "hand": "right"
      },
      {
        "midi": 78,
        "time": 247.083,
        "duration": 0.417,
        "velocity": 1,
        "hand": "right"
      },
      {
        "midi": 52,
        "time": 247.5,
        "duration": 0.417,
        "velocity": 1,
        "hand": "left"
      },
      {
        "midi": 59,
        "time": 247.5,
        "duration": 0.833,
        "velocity": 1,
        "hand": "left"
      },
      {
        "midi": 67,
        "time": 247.5,
        "duration": 0.833,
        "velocity": 1,
        "hand": "right"
      },
      {
        "midi": 64,
        "time": 247.917,
        "duration": 0.417,
        "velocity": 1,
        "hand": "right"
      },
      {
        "midi": 71,
        "time": 247.917,
        "duration": 0.417,
        "velocity": 1,
        "hand": "right"
      },
      {
        "midi": 79,
        "time": 247.917,
        "duration": 0.417,
        "velocity": 1,
        "hand": "right"
      },
      {
        "midi": 53,
        "time": 248.333,
        "duration": 0.417,
        "velocity": 1,
        "hand": "left"
      },
      {
        "midi": 61,
        "time": 248.333,
        "duration": 0.833,
        "velocity": 1,
        "hand": "right"
      },
      {
        "midi": 71,
        "time": 248.333,
        "duration": 0.833,
        "velocity": 1,
        "hand": "right"
      },
      {
        "midi": 65,
        "time": 248.75,
        "duration": 0.417,
        "velocity": 1,
        "hand": "right"
      },
      {
        "midi": 80,
        "time": 248.75,
        "duration": 0.417,
        "velocity": 1,
        "hand": "right"
      },
      {
        "midi": 85,
        "time": 248.75,
        "duration": 0.417,
        "velocity": 1,
        "hand": "right"
      },
      {
        "midi": 54,
        "time": 249.167,
        "duration": 0.417,
        "velocity": 1,
        "hand": "left"
      },
      {
        "midi": 61,
        "time": 249.167,
        "duration": 0.833,
        "velocity": 1,
        "hand": "right"
      },
      {
        "midi": 69,
        "time": 249.167,
        "duration": 0.833,
        "velocity": 1,
        "hand": "right"
      },
      {
        "midi": 66,
        "time": 249.583,
        "duration": 0.417,
        "velocity": 1,
        "hand": "right"
      },
      {
        "midi": 73,
        "time": 249.583,
        "duration": 0.417,
        "velocity": 1,
        "hand": "right"
      },
      {
        "midi": 81,
        "time": 249.583,
        "duration": 0.417,
        "velocity": 1,
        "hand": "right"
      },
      {
        "midi": 54,
        "time": 250,
        "duration": 0.417,
        "velocity": 1,
        "hand": "left"
      },
      {
        "midi": 62,
        "time": 250,
        "duration": 0.833,
        "velocity": 1,
        "hand": "right"
      },
      {
        "midi": 72,
        "time": 250,
        "duration": 0.833,
        "velocity": 1,
        "hand": "right"
      },
      {
        "midi": 66,
        "time": 250.417,
        "duration": 0.417,
        "velocity": 1,
        "hand": "right"
      },
      {
        "midi": 81,
        "time": 250.417,
        "duration": 0.417,
        "velocity": 1,
        "hand": "right"
      },
      {
        "midi": 86,
        "time": 250.417,
        "duration": 0.417,
        "velocity": 1,
        "hand": "right"
      },
      {
        "midi": 55,
        "time": 250.833,
        "duration": 0.417,
        "velocity": 1,
        "hand": "left"
      },
      {
        "midi": 62,
        "time": 250.833,
        "duration": 0.833,
        "velocity": 1,
        "hand": "right"
      },
      {
        "midi": 71,
        "time": 250.833,
        "duration": 0.833,
        "velocity": 1,
        "hand": "right"
      },
      {
        "midi": 67,
        "time": 251.25,
        "duration": 0.417,
        "velocity": 1,
        "hand": "right"
      },
      {
        "midi": 74,
        "time": 251.25,
        "duration": 0.417,
        "velocity": 1,
        "hand": "right"
      },
      {
        "midi": 83,
        "time": 251.25,
        "duration": 0.417,
        "velocity": 1,
        "hand": "right"
      },
      {
        "midi": 54,
        "time": 251.667,
        "duration": 0.417,
        "velocity": 1,
        "hand": "left"
      },
      {
        "midi": 62,
        "time": 251.667,
        "duration": 0.833,
        "velocity": 1,
        "hand": "right"
      },
      {
        "midi": 72,
        "time": 251.667,
        "duration": 0.833,
        "velocity": 1,
        "hand": "right"
      },
      {
        "midi": 66,
        "time": 252.083,
        "duration": 0.417,
        "velocity": 1,
        "hand": "right"
      },
      {
        "midi": 81,
        "time": 252.083,
        "duration": 0.417,
        "velocity": 1,
        "hand": "right"
      },
      {
        "midi": 86,
        "time": 252.083,
        "duration": 0.417,
        "velocity": 1,
        "hand": "right"
      },
      {
        "midi": 55,
        "time": 252.5,
        "duration": 0.417,
        "velocity": 1,
        "hand": "left"
      },
      {
        "midi": 62,
        "time": 252.5,
        "duration": 0.833,
        "velocity": 1,
        "hand": "right"
      },
      {
        "midi": 71,
        "time": 252.5,
        "duration": 0.833,
        "velocity": 1,
        "hand": "right"
      },
      {
        "midi": 67,
        "time": 252.917,
        "duration": 0.417,
        "velocity": 1,
        "hand": "right"
      },
      {
        "midi": 74,
        "time": 252.917,
        "duration": 0.417,
        "velocity": 1,
        "hand": "right"
      },
      {
        "midi": 83,
        "time": 252.917,
        "duration": 0.417,
        "velocity": 1,
        "hand": "right"
      },
      {
        "midi": 67,
        "time": 253.333,
        "duration": 0.417,
        "velocity": 1,
        "hand": "right"
      },
      {
        "midi": 70,
        "time": 253.333,
        "duration": 0.417,
        "velocity": 1,
        "hand": "right"
      },
      {
        "midi": 74,
        "time": 253.333,
        "duration": 0.417,
        "velocity": 1,
        "hand": "right"
      },
      {
        "midi": 88,
        "time": 253.333,
        "duration": 0.208,
        "velocity": 1,
        "hand": "right"
      },
      {
        "midi": 86,
        "time": 253.542,
        "duration": 0.208,
        "velocity": 1,
        "hand": "right"
      },
      {
        "midi": 82,
        "time": 253.75,
        "duration": 0.208,
        "velocity": 1,
        "hand": "right"
      },
      {
        "midi": 81,
        "time": 253.958,
        "duration": 0.208,
        "velocity": 1,
        "hand": "right"
      },
      {
        "midi": 76,
        "time": 254.167,
        "duration": 0.208,
        "velocity": 1,
        "hand": "right"
      },
      {
        "midi": 79,
        "time": 254.167,
        "duration": 0.417,
        "velocity": 1,
        "hand": "right"
      },
      {
        "midi": 74,
        "time": 254.375,
        "duration": 0.208,
        "velocity": 1,
        "hand": "right"
      },
      {
        "midi": 70,
        "time": 254.583,
        "duration": 0.208,
        "velocity": 1,
        "hand": "right"
      },
      {
        "midi": 69,
        "time": 254.792,
        "duration": 0.208,
        "velocity": 1,
        "hand": "right"
      },
      {
        "midi": 67,
        "time": 255,
        "duration": 0.417,
        "velocity": 1,
        "hand": "right"
      },
      {
        "midi": 76,
        "time": 255,
        "duration": 0.208,
        "velocity": 1,
        "hand": "right"
      },
      {
        "midi": 74,
        "time": 255.208,
        "duration": 0.208,
        "velocity": 1,
        "hand": "right"
      },
      {
        "midi": 70,
        "time": 255.417,
        "duration": 0.208,
        "velocity": 1,
        "hand": "right"
      },
      {
        "midi": 69,
        "time": 255.625,
        "duration": 0.208,
        "velocity": 1,
        "hand": "right"
      },
      {
        "midi": 64,
        "time": 255.833,
        "duration": 0.208,
        "velocity": 1,
        "hand": "right"
      },
      {
        "midi": 67,
        "time": 255.833,
        "duration": 0.417,
        "velocity": 1,
        "hand": "right"
      },
      {
        "midi": 62,
        "time": 256.042,
        "duration": 0.208,
        "velocity": 1,
        "hand": "right"
      },
      {
        "midi": 58,
        "time": 256.25,
        "duration": 0.208,
        "velocity": 1,
        "hand": "left"
      },
      {
        "midi": 57,
        "time": 256.458,
        "duration": 0.208,
        "velocity": 1,
        "hand": "left"
      },
      {
        "midi": 55,
        "time": 256.667,
        "duration": 0.417,
        "velocity": 1,
        "hand": "left"
      },
      {
        "midi": 64,
        "time": 256.667,
        "duration": 0.208,
        "velocity": 1,
        "hand": "right"
      },
      {
        "midi": 62,
        "time": 256.875,
        "duration": 0.208,
        "velocity": 1,
        "hand": "right"
      },
      {
        "midi": 58,
        "time": 257.083,
        "duration": 0.208,
        "velocity": 1,
        "hand": "left"
      },
      {
        "midi": 57,
        "time": 257.292,
        "duration": 0.208,
        "velocity": 1,
        "hand": "left"
      },
      {
        "midi": 52,
        "time": 257.5,
        "duration": 0.208,
        "velocity": 1,
        "hand": "left"
      },
      {
        "midi": 55,
        "time": 257.5,
        "duration": 0.417,
        "velocity": 1,
        "hand": "left"
      },
      {
        "midi": 50,
        "time": 257.708,
        "duration": 0.208,
        "velocity": 1,
        "hand": "left"
      },
      {
        "midi": 46,
        "time": 257.917,
        "duration": 0.208,
        "velocity": 1,
        "hand": "left"
      },
      {
        "midi": 45,
        "time": 258.125,
        "duration": 0.208,
        "velocity": 1,
        "hand": "left"
      },
      {
        "midi": 43,
        "time": 258.333,
        "duration": 0.417,
        "velocity": 1,
        "hand": "left"
      },
      {
        "midi": 52,
        "time": 258.333,
        "duration": 0.208,
        "velocity": 1,
        "hand": "left"
      },
      {
        "midi": 50,
        "time": 258.542,
        "duration": 0.208,
        "velocity": 1,
        "hand": "left"
      },
      {
        "midi": 46,
        "time": 258.75,
        "duration": 0.208,
        "velocity": 1,
        "hand": "left"
      },
      {
        "midi": 45,
        "time": 258.958,
        "duration": 0.208,
        "velocity": 1,
        "hand": "left"
      },
      {
        "midi": 40,
        "time": 259.167,
        "duration": 0.208,
        "velocity": 1,
        "hand": "left"
      },
      {
        "midi": 43,
        "time": 259.167,
        "duration": 0.417,
        "velocity": 1,
        "hand": "left"
      },
      {
        "midi": 38,
        "time": 259.375,
        "duration": 0.208,
        "velocity": 1,
        "hand": "left"
      },
      {
        "midi": 34,
        "time": 259.583,
        "duration": 0.208,
        "velocity": 1,
        "hand": "left"
      },
      {
        "midi": 33,
        "time": 259.792,
        "duration": 0.208,
        "velocity": 1,
        "hand": "left"
      },
      {
        "midi": 31,
        "time": 260,
        "duration": 0.417,
        "velocity": 1,
        "hand": "left"
      },
      {
        "midi": 31,
        "time": 260.417,
        "duration": 0.417,
        "velocity": 1,
        "hand": "left"
      },
      {
        "midi": 31,
        "time": 260.833,
        "duration": 0.208,
        "velocity": 1,
        "hand": "left"
      },
      {
        "midi": 33,
        "time": 261.042,
        "duration": 0.208,
        "velocity": 1,
        "hand": "left"
      },
      {
        "midi": 34,
        "time": 261.25,
        "duration": 0.208,
        "velocity": 1,
        "hand": "left"
      },
      {
        "midi": 31,
        "time": 261.458,
        "duration": 0.208,
        "velocity": 1,
        "hand": "left"
      },
      {
        "midi": 33,
        "time": 261.667,
        "duration": 0.417,
        "velocity": 1,
        "hand": "left"
      },
      {
        "midi": 33,
        "time": 262.083,
        "duration": 0.417,
        "velocity": 1,
        "hand": "left"
      },
      {
        "midi": 34,
        "time": 262.5,
        "duration": 0.417,
        "velocity": 1,
        "hand": "left"
      },
      {
        "midi": 31,
        "time": 262.917,
        "duration": 0.417,
        "velocity": 1,
        "hand": "left"
      },
      {
        "midi": 50,
        "time": 263.333,
        "duration": 3.333,
        "velocity": 1,
        "hand": "left"
      },
      {
        "midi": 52,
        "time": 263.333,
        "duration": 3.333,
        "velocity": 1,
        "hand": "left"
      },
      {
        "midi": 62,
        "time": 263.333,
        "duration": 3.333,
        "velocity": 1,
        "hand": "right"
      },
      {
        "midi": 64,
        "time": 263.333,
        "duration": 3.333,
        "velocity": 1,
        "hand": "right"
      },
      {
        "midi": 31,
        "time": 264.167,
        "duration": 0.833,
        "velocity": 1,
        "hand": "left"
      },
      {
        "midi": 43,
        "time": 264.167,
        "duration": 0.833,
        "velocity": 1,
        "hand": "left"
      },
      {
        "midi": 33,
        "time": 265,
        "duration": 0.833,
        "velocity": 1,
        "hand": "left"
      },
      {
        "midi": 45,
        "time": 265,
        "duration": 0.833,
        "velocity": 1,
        "hand": "left"
      },
      {
        "midi": 34,
        "time": 265.833,
        "duration": 0.833,
        "velocity": 1,
        "hand": "left"
      },
      {
        "midi": 46,
        "time": 265.833,
        "duration": 0.833,
        "velocity": 1,
        "hand": "left"
      },
      {
        "midi": 43,
        "time": 266.667,
        "duration": 0.417,
        "velocity": 1,
        "hand": "left"
      },
      {
        "midi": 43,
        "time": 267.083,
        "duration": 0.417,
        "velocity": 1,
        "hand": "left"
      },
      {
        "midi": 43,
        "time": 267.5,
        "duration": 0.208,
        "velocity": 1,
        "hand": "left"
      },
      {
        "midi": 45,
        "time": 267.708,
        "duration": 0.208,
        "velocity": 1,
        "hand": "left"
      },
      {
        "midi": 46,
        "time": 267.917,
        "duration": 0.208,
        "velocity": 1,
        "hand": "left"
      },
      {
        "midi": 45,
        "time": 268.125,
        "duration": 0.208,
        "velocity": 1,
        "hand": "left"
      },
      {
        "midi": 45,
        "time": 268.333,
        "duration": 0.417,
        "velocity": 1,
        "hand": "left"
      },
      {
        "midi": 45,
        "time": 268.75,
        "duration": 0.417,
        "velocity": 1,
        "hand": "left"
      },
      {
        "midi": 46,
        "time": 269.167,
        "duration": 0.417,
        "velocity": 1,
        "hand": "left"
      },
      {
        "midi": 43,
        "time": 269.583,
        "duration": 0.417,
        "velocity": 1,
        "hand": "left"
      },
      {
        "midi": 62,
        "time": 270,
        "duration": 3.333,
        "velocity": 1,
        "hand": "right"
      },
      {
        "midi": 64,
        "time": 270,
        "duration": 3.333,
        "velocity": 1,
        "hand": "right"
      },
      {
        "midi": 74,
        "time": 270,
        "duration": 3.333,
        "velocity": 1,
        "hand": "right"
      },
      {
        "midi": 76,
        "time": 270,
        "duration": 3.333,
        "velocity": 1,
        "hand": "right"
      },
      {
        "midi": 43,
        "time": 270.833,
        "duration": 0.833,
        "velocity": 1,
        "hand": "left"
      },
      {
        "midi": 55,
        "time": 270.833,
        "duration": 0.833,
        "velocity": 1,
        "hand": "left"
      },
      {
        "midi": 45,
        "time": 271.667,
        "duration": 0.833,
        "velocity": 1,
        "hand": "left"
      },
      {
        "midi": 57,
        "time": 271.667,
        "duration": 0.833,
        "velocity": 1,
        "hand": "left"
      },
      {
        "midi": 46,
        "time": 272.5,
        "duration": 0.833,
        "velocity": 1,
        "hand": "left"
      },
      {
        "midi": 58,
        "time": 272.5,
        "duration": 0.833,
        "velocity": 1,
        "hand": "left"
      },
      {
        "midi": 74,
        "time": 273.333,
        "duration": 3.333,
        "velocity": 1,
        "hand": "right"
      },
      {
        "midi": 76,
        "time": 273.333,
        "duration": 3.333,
        "velocity": 1,
        "hand": "right"
      },
      {
        "midi": 86,
        "time": 273.333,
        "duration": 3.333,
        "velocity": 1,
        "hand": "right"
      },
      {
        "midi": 88,
        "time": 273.333,
        "duration": 3.333,
        "velocity": 1,
        "hand": "right"
      },
      {
        "midi": 55,
        "time": 274.167,
        "duration": 0.833,
        "velocity": 1,
        "hand": "left"
      },
      {
        "midi": 67,
        "time": 274.167,
        "duration": 0.833,
        "velocity": 1,
        "hand": "right"
      },
      {
        "midi": 57,
        "time": 275,
        "duration": 0.833,
        "velocity": 1,
        "hand": "left"
      },
      {
        "midi": 69,
        "time": 275,
        "duration": 0.833,
        "velocity": 1,
        "hand": "right"
      },
      {
        "midi": 58,
        "time": 275.833,
        "duration": 0.833,
        "velocity": 1,
        "hand": "left"
      },
      {
        "midi": 70,
        "time": 275.833,
        "duration": 0.833,
        "velocity": 1,
        "hand": "right"
      },
      {
        "midi": 43,
        "time": 278.333,
        "duration": 0.417,
        "velocity": 1,
        "hand": "left"
      },
      {
        "midi": 79,
        "time": 278.333,
        "duration": 0.417,
        "velocity": 1,
        "hand": "right"
      },
      {
        "midi": 43,
        "time": 278.75,
        "duration": 0.417,
        "velocity": 1,
        "hand": "left"
      },
      {
        "midi": 79,
        "time": 278.75,
        "duration": 0.417,
        "velocity": 1,
        "hand": "right"
      },
      {
        "midi": 43,
        "time": 279.167,
        "duration": 0.208,
        "velocity": 1,
        "hand": "left"
      },
      {
        "midi": 79,
        "time": 279.167,
        "duration": 0.208,
        "velocity": 1,
        "hand": "right"
      },
      {
        "midi": 45,
        "time": 279.375,
        "duration": 0.208,
        "velocity": 1,
        "hand": "left"
      },
      {
        "midi": 81,
        "time": 279.375,
        "duration": 0.208,
        "velocity": 1,
        "hand": "right"
      },
      {
        "midi": 46,
        "time": 279.583,
        "duration": 0.208,
        "velocity": 1,
        "hand": "left"
      },
      {
        "midi": 82,
        "time": 279.583,
        "duration": 0.208,
        "velocity": 1,
        "hand": "right"
      },
      {
        "midi": 43,
        "time": 279.792,
        "duration": 0.208,
        "velocity": 1,
        "hand": "left"
      },
      {
        "midi": 79,
        "time": 279.792,
        "duration": 0.208,
        "velocity": 1,
        "hand": "right"
      },
      {
        "midi": 44,
        "time": 280,
        "duration": 0.417,
        "velocity": 1,
        "hand": "left"
      },
      {
        "midi": 80,
        "time": 280,
        "duration": 0.417,
        "velocity": 1,
        "hand": "right"
      },
      {
        "midi": 45,
        "time": 280.417,
        "duration": 0.417,
        "velocity": 1,
        "hand": "left"
      },
      {
        "midi": 81,
        "time": 280.417,
        "duration": 0.417,
        "velocity": 1,
        "hand": "right"
      },
      {
        "midi": 38,
        "time": 280.833,
        "duration": 0.417,
        "velocity": 1,
        "hand": "left"
      },
      {
        "midi": 45,
        "time": 280.833,
        "duration": 0.417,
        "velocity": 1,
        "hand": "left"
      },
      {
        "midi": 50,
        "time": 280.833,
        "duration": 0.417,
        "velocity": 1,
        "hand": "left"
      },
      {
        "midi": 74,
        "time": 280.833,
        "duration": 0.417,
        "velocity": 1,
        "hand": "right"
      },
      {
        "midi": 78,
        "time": 280.833,
        "duration": 0.417,
        "velocity": 1,
        "hand": "right"
      },
      {
        "midi": 86,
        "time": 280.833,
        "duration": 0.417,
        "velocity": 1,
        "hand": "right"
      }
    ]
  },
  "notes1Hand": [
    {
      "midi": 81,
      "time": 0,
      "duration": 0.833,
      "velocity": 1,
      "hand": "right"
    },
    {
      "midi": 69,
      "time": 0.417,
      "duration": 0.417,
      "velocity": 1,
      "hand": "right"
    },
    {
      "midi": 64,
      "time": 1.25,
      "duration": 0.417,
      "velocity": 1,
      "hand": "right"
    },
    {
      "midi": 81,
      "time": 1.667,
      "duration": 0.833,
      "velocity": 1,
      "hand": "right"
    },
    {
      "midi": 76,
      "time": 2.5,
      "duration": 0.833,
      "velocity": 1,
      "hand": "right"
    },
    {
      "midi": 64,
      "time": 2.917,
      "duration": 0.417,
      "velocity": 1,
      "hand": "right"
    },
    {
      "midi": 76,
      "time": 3.542,
      "duration": 0.417,
      "velocity": 1,
      "hand": "right"
    },
    {
      "midi": 78,
      "time": 4.167,
      "duration": 0.417,
      "velocity": 1,
      "hand": "right"
    },
    {
      "midi": 76,
      "time": 5,
      "duration": 0.417,
      "velocity": 1,
      "hand": "right"
    },
    {
      "midi": 79,
      "time": 5.417,
      "duration": 0.417,
      "velocity": 1,
      "hand": "right"
    },
    {
      "midi": 69,
      "time": 6.25,
      "duration": 0.417,
      "velocity": 1,
      "hand": "right"
    },
    {
      "midi": 81,
      "time": 6.667,
      "duration": 0.833,
      "velocity": 1,
      "hand": "right"
    },
    {
      "midi": 76,
      "time": 7.5,
      "duration": 0.833,
      "velocity": 1,
      "hand": "right"
    },
    {
      "midi": 64,
      "time": 7.917,
      "duration": 0.417,
      "velocity": 1,
      "hand": "right"
    },
    {
      "midi": 69,
      "time": 8.75,
      "duration": 0.417,
      "velocity": 1,
      "hand": "right"
    },
    {
      "midi": 76,
      "time": 9.167,
      "duration": 0.833,
      "velocity": 1,
      "hand": "right"
    },
    {
      "midi": 74,
      "time": 10,
      "duration": 0.417,
      "velocity": 1,
      "hand": "right"
    },
    {
      "midi": 78,
      "time": 11.25,
      "duration": 0.417,
      "velocity": 1,
      "hand": "right"
    },
    {
      "midi": 76,
      "time": 11.667,
      "duration": 0.417,
      "velocity": 1,
      "hand": "right"
    },
    {
      "midi": 81,
      "time": 12.292,
      "duration": 0.417,
      "velocity": 1,
      "hand": "right"
    },
    {
      "midi": 63,
      "time": 13.542,
      "duration": 0.417,
      "velocity": 1,
      "hand": "right"
    },
    {
      "midi": 60,
      "time": 14.167,
      "duration": 0.417,
      "velocity": 1,
      "hand": "right"
    },
    {
      "midi": 65,
      "time": 15.208,
      "duration": 0.417,
      "velocity": 1,
      "hand": "right"
    },
    {
      "midi": 74,
      "time": 16.25,
      "duration": 0.417,
      "velocity": 1,
      "hand": "right"
    },
    {
      "midi": 62,
      "time": 16.667,
      "duration": 0.833,
      "velocity": 1,
      "hand": "right"
    },
    {
      "midi": 63,
      "time": 17.5,
      "duration": 0.833,
      "velocity": 1,
      "hand": "right"
    },
    {
      "midi": 75,
      "time": 17.917,
      "duration": 0.417,
      "velocity": 1,
      "hand": "right"
    },
    {
      "midi": 79,
      "time": 18.75,
      "duration": 0.417,
      "velocity": 1,
      "hand": "right"
    },
    {
      "midi": 63,
      "time": 19.167,
      "duration": 0.833,
      "velocity": 1,
      "hand": "right"
    },
    {
      "midi": 67,
      "time": 20.208,
      "duration": 0.417,
      "velocity": 1,
      "hand": "right"
    },
    {
      "midi": 76,
      "time": 21.25,
      "duration": 0.417,
      "velocity": 1,
      "hand": "right"
    },
    {
      "midi": 69,
      "time": 21.875,
      "duration": 0.417,
      "velocity": 1,
      "hand": "right"
    },
    {
      "midi": 77,
      "time": 22.917,
      "duration": 0.417,
      "velocity": 1,
      "hand": "right"
    },
    {
      "midi": 76,
      "time": 23.75,
      "duration": 0.417,
      "velocity": 1,
      "hand": "right"
    },
    {
      "midi": 65,
      "time": 24.167,
      "duration": 0.833,
      "velocity": 1,
      "hand": "right"
    },
    {
      "midi": 67,
      "time": 25,
      "duration": 0.833,
      "velocity": 1,
      "hand": "right"
    },
    {
      "midi": 81,
      "time": 25.417,
      "duration": 0.417,
      "velocity": 1,
      "hand": "right"
    },
    {
      "midi": 77,
      "time": 26.25,
      "duration": 0.417,
      "velocity": 1,
      "hand": "right"
    },
    {
      "midi": 64,
      "time": 26.667,
      "duration": 0.833,
      "velocity": 1,
      "hand": "right"
    },
    {
      "midi": 65,
      "time": 27.5,
      "duration": 0.833,
      "velocity": 1,
      "hand": "right"
    },
    {
      "midi": 77,
      "time": 27.917,
      "duration": 0.417,
      "velocity": 1,
      "hand": "right"
    },
    {
      "midi": 83,
      "time": 28.75,
      "duration": 0.417,
      "velocity": 1,
      "hand": "right"
    },
    {
      "midi": 67,
      "time": 29.167,
      "duration": 0.833,
      "velocity": 1,
      "hand": "right"
    },
    {
      "midi": 66,
      "time": 30,
      "duration": 0.833,
      "velocity": 1,
      "hand": "right"
    },
    {
      "midi": 78,
      "time": 30.417,
      "duration": 0.417,
      "velocity": 1,
      "hand": "right"
    },
    {
      "midi": 79,
      "time": 31.25,
      "duration": 0.417,
      "velocity": 1,
      "hand": "right"
    },
    {
      "midi": 71,
      "time": 31.667,
      "duration": 0.833,
      "velocity": 1,
      "hand": "right"
    },
    {
      "midi": 69,
      "time": 32.5,
      "duration": 0.833,
      "velocity": 1,
      "hand": "right"
    },
    {
      "midi": 81,
      "time": 32.917,
      "duration": 0.417,
      "velocity": 1,
      "hand": "right"
    },
    {
      "midi": 86,
      "time": 33.75,
      "duration": 0.417,
      "velocity": 1,
      "hand": "right"
    },
    {
      "midi": 71,
      "time": 34.167,
      "duration": 0.833,
      "velocity": 1,
      "hand": "right"
    },
    {
      "midi": 72,
      "time": 35,
      "duration": 0.833,
      "velocity": 1,
      "hand": "right"
    },
    {
      "midi": 86,
      "time": 35.417,
      "duration": 0.417,
      "velocity": 1,
      "hand": "right"
    },
    {
      "midi": 83,
      "time": 36.25,
      "duration": 0.417,
      "velocity": 1,
      "hand": "right"
    },
    {
      "midi": 88,
      "time": 36.667,
      "duration": 0.417,
      "velocity": 1,
      "hand": "right"
    },
    {
      "midi": 81,
      "time": 37.292,
      "duration": 0.417,
      "velocity": 1,
      "hand": "right"
    },
    {
      "midi": 70,
      "time": 37.917,
      "duration": 0.417,
      "velocity": 1,
      "hand": "right"
    },
    {
      "midi": 62,
      "time": 38.542,
      "duration": 0.417,
      "velocity": 1,
      "hand": "right"
    },
    {
      "midi": 64,
      "time": 40.833,
      "duration": 1.25,
      "velocity": 1,
      "hand": "right"
    },
    {
      "midi": 69,
      "time": 42.083,
      "duration": 0.417,
      "velocity": 1,
      "hand": "right"
    },
    {
      "midi": 74,
      "time": 42.5,
      "duration": 0.417,
      "velocity": 1,
      "hand": "right"
    },
    {
      "midi": 78,
      "time": 43.333,
      "duration": 0.417,
      "velocity": 1,
      "hand": "right"
    },
    {
      "midi": 74,
      "time": 43.75,
      "duration": 0.417,
      "velocity": 1,
      "hand": "right"
    },
    {
      "midi": 71,
      "time": 44.167,
      "duration": 0.417,
      "velocity": 1,
      "hand": "right"
    },
    {
      "midi": 61,
      "time": 45,
      "duration": 0.833,
      "velocity": 1,
      "hand": "right"
    },
    {
      "midi": 70,
      "time": 45.417,
      "duration": 0.417,
      "velocity": 1,
      "hand": "right"
    },
    {
      "midi": 71,
      "time": 46.25,
      "duration": 0.417,
      "velocity": 1,
      "hand": "right"
    },
    {
      "midi": 61,
      "time": 46.667,
      "duration": 0.833,
      "velocity": 1,
      "hand": "right"
    },
    {
      "midi": 71,
      "time": 47.292,
      "duration": 0.417,
      "velocity": 1,
      "hand": "right"
    },
    {
      "midi": 66,
      "time": 47.917,
      "duration": 0.417,
      "velocity": 1,
      "hand": "right"
    },
    {
      "midi": 79,
      "time": 48.542,
      "duration": 0.417,
      "velocity": 1,
      "hand": "right"
    },
    {
      "midi": 66,
      "time": 49.167,
      "duration": 0.833,
      "velocity": 1,
      "hand": "right"
    },
    {
      "midi": 74,
      "time": 49.792,
      "duration": 0.417,
      "velocity": 1,
      "hand": "right"
    },
    {
      "midi": 74,
      "time": 50.417,
      "duration": 0.417,
      "velocity": 1,
      "hand": "right"
    },
    {
      "midi": 73,
      "time": 51.25,
      "duration": 0.417,
      "velocity": 1,
      "hand": "right"
    },
    {
      "midi": 61,
      "time": 51.667,
      "duration": 0.833,
      "velocity": 1,
      "hand": "right"
    },
    {
      "midi": 62,
      "time": 52.5,
      "duration": 0.833,
      "velocity": 1,
      "hand": "right"
    },
    {
      "midi": 71,
      "time": 52.917,
      "duration": 0.417,
      "velocity": 1,
      "hand": "right"
    },
    {
      "midi": 73,
      "time": 53.542,
      "duration": 0.417,
      "velocity": 1,
      "hand": "right"
    },
    {
      "midi": 62,
      "time": 54.167,
      "duration": 0.833,
      "velocity": 1,
      "hand": "right"
    },
    {
      "midi": 71,
      "time": 54.792,
      "duration": 0.417,
      "velocity": 1,
      "hand": "right"
    },
    {
      "midi": 71,
      "time": 55.417,
      "duration": 0.417,
      "velocity": 1,
      "hand": "right"
    },
    {
      "midi": 78,
      "time": 56.042,
      "duration": 0.417,
      "velocity": 1,
      "hand": "right"
    },
    {
      "midi": 62,
      "time": 57.083,
      "duration": 0.833,
      "velocity": 1,
      "hand": "right"
    },
    {
      "midi": 62,
      "time": 57.917,
      "duration": 0.833,
      "velocity": 1,
      "hand": "right"
    },
    {
      "midi": 62,
      "time": 58.75,
      "duration": 0.833,
      "velocity": 1,
      "hand": "right"
    },
    {
      "midi": 62,
      "time": 59.583,
      "duration": 0.417,
      "velocity": 1,
      "hand": "right"
    },
    {
      "midi": 71,
      "time": 60,
      "duration": 0.417,
      "velocity": 1,
      "hand": "right"
    },
    {
      "midi": 69,
      "time": 60.417,
      "duration": 0.417,
      "velocity": 1,
      "hand": "right"
    },
    {
      "midi": 67,
      "time": 61.25,
      "duration": 0.417,
      "velocity": 1,
      "hand": "right"
    },
    {
      "midi": 73,
      "time": 61.667,
      "duration": 0.417,
      "velocity": 1,
      "hand": "right"
    },
    {
      "midi": 63,
      "time": 62.5,
      "duration": 0.417,
      "velocity": 1,
      "hand": "right"
    },
    {
      "midi": 64,
      "time": 62.917,
      "duration": 0.417,
      "velocity": 1,
      "hand": "right"
    },
    {
      "midi": 64,
      "time": 63.75,
      "duration": 0.833,
      "velocity": 1,
      "hand": "right"
    },
    {
      "midi": 64,
      "time": 64.583,
      "duration": 0.833,
      "velocity": 1,
      "hand": "right"
    },
    {
      "midi": 64,
      "time": 65.417,
      "duration": 0.833,
      "velocity": 1,
      "hand": "right"
    },
    {
      "midi": 64,
      "time": 66.25,
      "duration": 0.417,
      "velocity": 1,
      "hand": "right"
    },
    {
      "midi": 73,
      "time": 66.667,
      "duration": 0.417,
      "velocity": 1,
      "hand": "right"
    },
    {
      "midi": 70,
      "time": 67.292,
      "duration": 0.417,
      "velocity": 1,
      "hand": "right"
    },
    {
      "midi": 69,
      "time": 67.917,
      "duration": 0.417,
      "velocity": 1,
      "hand": "right"
    },
    {
      "midi": 73,
      "time": 68.75,
      "duration": 0.417,
      "velocity": 1,
      "hand": "right"
    },
    {
      "midi": 65,
      "time": 69.167,
      "duration": 0.417,
      "velocity": 1,
      "hand": "right"
    },
    {
      "midi": 71,
      "time": 70,
      "duration": 0.417,
      "velocity": 1,
      "hand": "right"
    },
    {
      "midi": 74,
      "time": 70.417,
      "duration": 0.417,
      "velocity": 1,
      "hand": "right"
    },
    {
      "midi": 79,
      "time": 71.25,
      "duration": 0.417,
      "velocity": 1,
      "hand": "right"
    },
    {
      "midi": 65,
      "time": 71.667,
      "duration": 0.833,
      "velocity": 1,
      "hand": "right"
    },
    {
      "midi": 66,
      "time": 72.5,
      "duration": 0.833,
      "velocity": 1,
      "hand": "right"
    },
    {
      "midi": 78,
      "time": 72.917,
      "duration": 0.417,
      "velocity": 1,
      "hand": "right"
    },
    {
      "midi": 73,
      "time": 73.542,
      "duration": 0.417,
      "velocity": 1,
      "hand": "right"
    },
    {
      "midi": 78,
      "time": 74.167,
      "duration": 0.417,
      "velocity": 1,
      "hand": "right"
    },
    {
      "midi": 65,
      "time": 75,
      "duration": 0.833,
      "velocity": 1,
      "hand": "right"
    },
    {
      "midi": 77,
      "time": 75.417,
      "duration": 0.417,
      "velocity": 1,
      "hand": "right"
    },
    {
      "midi": 78,
      "time": 76.25,
      "duration": 0.417,
      "velocity": 1,
      "hand": "right"
    },
    {
      "midi": 74,
      "time": 76.667,
      "duration": 0.417,
      "velocity": 1,
      "hand": "right"
    },
    {
      "midi": 79,
      "time": 77.292,
      "duration": 0.417,
      "velocity": 1,
      "hand": "right"
    },
    {
      "midi": 82,
      "time": 77.917,
      "duration": 0.417,
      "velocity": 1,
      "hand": "right"
    },
    {
      "midi": 80,
      "time": 78.75,
      "duration": 0.417,
      "velocity": 1,
      "hand": "right"
    },
    {
      "midi": 69,
      "time": 79.167,
      "duration": 0.833,
      "velocity": 1,
      "hand": "right"
    },
    {
      "midi": 74,
      "time": 80,
      "duration": 0.417,
      "velocity": 1,
      "hand": "right"
    },
    {
      "midi": 78,
      "time": 80.417,
      "duration": 0.417,
      "velocity": 1,
      "hand": "right"
    },
    {
      "midi": 82,
      "time": 81.25,
      "duration": 0.417,
      "velocity": 1,
      "hand": "right"
    },
    {
      "midi": 68,
      "time": 81.667,
      "duration": 0.833,
      "velocity": 1,
      "hand": "right"
    },
    {
      "midi": 69,
      "time": 82.5,
      "duration": 0.833,
      "velocity": 1,
      "hand": "right"
    },
    {
      "midi": 81,
      "time": 82.917,
      "duration": 0.417,
      "velocity": 1,
      "hand": "right"
    },
    {
      "midi": 80,
      "time": 83.75,
      "duration": 0.417,
      "velocity": 1,
      "hand": "right"
    },
    {
      "midi": 69,
      "time": 84.167,
      "duration": 0.833,
      "velocity": 1,
      "hand": "right"
    },
    {
      "midi": 70,
      "time": 85,
      "duration": 0.833,
      "velocity": 1,
      "hand": "right"
    },
    {
      "midi": 82,
      "time": 85.417,
      "duration": 0.417,
      "velocity": 1,
      "hand": "right"
    },
    {
      "midi": 76,
      "time": 86.25,
      "duration": 0.417,
      "velocity": 1,
      "hand": "right"
    },
    {
      "midi": 67,
      "time": 86.667,
      "duration": 0.833,
      "velocity": 1,
      "hand": "right"
    },
    {
      "midi": 70,
      "time": 87.917,
      "duration": 0.417,
      "velocity": 1,
      "hand": "right"
    },
    {
      "midi": 74,
      "time": 88.75,
      "duration": 0.417,
      "velocity": 1,
      "hand": "right"
    },
    {
      "midi": 69,
      "time": 89.583,
      "duration": 0.417,
      "velocity": 1,
      "hand": "right"
    },
    {
      "midi": 60,
      "time": 92.083,
      "duration": 0.417,
      "velocity": 1,
      "hand": "right"
    },
    {
      "midi": 63,
      "time": 92.5,
      "duration": 0.417,
      "velocity": 1,
      "hand": "right"
    },
    {
      "midi": 68,
      "time": 92.917,
      "duration": 0.417,
      "velocity": 1,
      "hand": "right"
    },
    {
      "midi": 69,
      "time": 93.542,
      "duration": 0.417,
      "velocity": 1,
      "hand": "right"
    },
    {
      "midi": 75,
      "time": 94.167,
      "duration": 0.417,
      "velocity": 1,
      "hand": "right"
    },
    {
      "midi": 81,
      "time": 94.792,
      "duration": 0.417,
      "velocity": 1,
      "hand": "right"
    },
    {
      "midi": 84,
      "time": 95.417,
      "duration": 0.417,
      "velocity": 1,
      "hand": "right"
    },
    {
      "midi": 88,
      "time": 96.042,
      "duration": 0.417,
      "velocity": 1,
      "hand": "right"
    },
    {
      "midi": 81,
      "time": 96.667,
      "duration": 0.833,
      "velocity": 1,
      "hand": "right"
    },
    {
      "midi": 76,
      "time": 97.5,
      "duration": 0.833,
      "velocity": 1,
      "hand": "right"
    },
    {
      "midi": 64,
      "time": 97.917,
      "duration": 0.417,
      "velocity": 1,
      "hand": "right"
    },
    {
      "midi": 69,
      "time": 98.75,
      "duration": 0.417,
      "velocity": 1,
      "hand": "right"
    },
    {
      "midi": 76,
      "time": 99.167,
      "duration": 0.833,
      "velocity": 1,
      "hand": "right"
    },
    {
      "midi": 74,
      "time": 100,
      "duration": 0.417,
      "velocity": 1,
      "hand": "right"
    },
    {
      "midi": 78,
      "time": 101.25,
      "duration": 0.417,
      "velocity": 1,
      "hand": "right"
    },
    {
      "midi": 76,
      "time": 101.667,
      "duration": 0.417,
      "velocity": 1,
      "hand": "right"
    },
    {
      "midi": 76,
      "time": 102.5,
      "duration": 0.833,
      "velocity": 1,
      "hand": "right"
    },
    {
      "midi": 69,
      "time": 102.917,
      "duration": 0.417,
      "velocity": 1,
      "hand": "right"
    },
    {
      "midi": 69,
      "time": 103.75,
      "duration": 0.417,
      "velocity": 1,
      "hand": "right"
    },
    {
      "midi": 76,
      "time": 104.167,
      "duration": 0.833,
      "velocity": 1,
      "hand": "right"
    },
    {
      "midi": 81,
      "time": 105,
      "duration": 0.833,
      "velocity": 1,
      "hand": "right"
    },
    {
      "midi": 69,
      "time": 105.417,
      "duration": 0.417,
      "velocity": 1,
      "hand": "right"
    },
    {
      "midi": 64,
      "time": 106.25,
      "duration": 0.417,
      "velocity": 1,
      "hand": "right"
    },
    {
      "midi": 74,
      "time": 106.667,
      "duration": 0.417,
      "velocity": 1,
      "hand": "right"
    },
    {
      "midi": 76,
      "time": 107.292,
      "duration": 0.417,
      "velocity": 1,
      "hand": "right"
    },
    {
      "midi": 78,
      "time": 107.917,
      "duration": 0.417,
      "velocity": 1,
      "hand": "right"
    },
    {
      "midi": 78,
      "time": 108.542,
      "duration": 0.417,
      "velocity": 1,
      "hand": "right"
    },
    {
      "midi": 82,
      "time": 109.167,
      "duration": 0.417,
      "velocity": 1,
      "hand": "right"
    },
    {
      "midi": 63,
      "time": 110.208,
      "duration": 0.417,
      "velocity": 1,
      "hand": "right"
    },
    {
      "midi": 72,
      "time": 111.25,
      "duration": 0.417,
      "velocity": 1,
      "hand": "right"
    },
    {
      "midi": 65,
      "time": 111.875,
      "duration": 0.417,
      "velocity": 1,
      "hand": "right"
    },
    {
      "midi": 74,
      "time": 112.917,
      "duration": 0.417,
      "velocity": 1,
      "hand": "right"
    },
    {
      "midi": 74,
      "time": 113.75,
      "duration": 0.417,
      "velocity": 1,
      "hand": "right"
    },
    {
      "midi": 63,
      "time": 114.167,
      "duration": 0.833,
      "velocity": 1,
      "hand": "right"
    },
    {
      "midi": 65,
      "time": 115,
      "duration": 0.833,
      "velocity": 1,
      "hand": "right"
    },
    {
      "midi": 79,
      "time": 115.417,
      "duration": 0.417,
      "velocity": 1,
      "hand": "right"
    },
    {
      "midi": 75,
      "time": 116.25,
      "duration": 0.417,
      "velocity": 1,
      "hand": "right"
    },
    {
      "midi": 67,
      "time": 116.875,
      "duration": 0.417,
      "velocity": 1,
      "hand": "right"
    },
    {
      "midi": 76,
      "time": 117.917,
      "duration": 0.417,
      "velocity": 1,
      "hand": "right"
    },
    {
      "midi": 69,
      "time": 118.542,
      "duration": 0.417,
      "velocity": 1,
      "hand": "right"
    },
    {
      "midi": 65,
      "time": 119.167,
      "duration": 0.833,
      "velocity": 1,
      "hand": "right"
    },
    {
      "midi": 64,
      "time": 120,
      "duration": 0.833,
      "velocity": 1,
      "hand": "right"
    },
    {
      "midi": 76,
      "time": 120.417,
      "duration": 0.417,
      "velocity": 1,
      "hand": "right"
    },
    {
      "midi": 77,
      "time": 121.25,
      "duration": 0.417,
      "velocity": 1,
      "hand": "right"
    },
    {
      "midi": 67,
      "time": 121.667,
      "duration": 0.833,
      "velocity": 1,
      "hand": "right"
    },
    {
      "midi": 65,
      "time": 122.5,
      "duration": 0.833,
      "velocity": 1,
      "hand": "right"
    },
    {
      "midi": 77,
      "time": 122.917,
      "duration": 0.417,
      "velocity": 1,
      "hand": "right"
    },
    {
      "midi": 76,
      "time": 123.75,
      "duration": 0.417,
      "velocity": 1,
      "hand": "right"
    },
    {
      "midi": 65,
      "time": 124.167,
      "duration": 0.833,
      "velocity": 1,
      "hand": "right"
    },
    {
      "midi": 69,
      "time": 125,
      "duration": 0.833,
      "velocity": 1,
      "hand": "right"
    },
    {
      "midi": 83,
      "time": 125.417,
      "duration": 0.417,
      "velocity": 1,
      "hand": "right"
    },
    {
      "midi": 79,
      "time": 126.25,
      "duration": 0.417,
      "velocity": 1,
      "hand": "right"
    },
    {
      "midi": 66,
      "time": 126.667,
      "duration": 0.833,
      "velocity": 1,
      "hand": "right"
    },
    {
      "midi": 67,
      "time": 127.5,
      "duration": 0.833,
      "velocity": 1,
      "hand": "right"
    },
    {
      "midi": 79,
      "time": 127.917,
      "duration": 0.417,
      "velocity": 1,
      "hand": "right"
    },
    {
      "midi": 85,
      "time": 128.75,
      "duration": 0.417,
      "velocity": 1,
      "hand": "right"
    },
    {
      "midi": 69,
      "time": 129.167,
      "duration": 0.833,
      "velocity": 1,
      "hand": "right"
    },
    {
      "midi": 72,
      "time": 130,
      "duration": 0.833,
      "velocity": 1,
      "hand": "right"
    },
    {
      "midi": 86,
      "time": 130.417,
      "duration": 0.417,
      "velocity": 1,
      "hand": "right"
    },
    {
      "midi": 83,
      "time": 131.25,
      "duration": 0.417,
      "velocity": 1,
      "hand": "right"
    },
    {
      "midi": 72,
      "time": 131.667,
      "duration": 0.833,
      "velocity": 1,
      "hand": "right"
    },
    {
      "midi": 71,
      "time": 132.5,
      "duration": 0.833,
      "velocity": 1,
      "hand": "right"
    },
    {
      "midi": 83,
      "time": 132.917,
      "duration": 0.417,
      "velocity": 1,
      "hand": "right"
    },
    {
      "midi": 86,
      "time": 133.542,
      "duration": 0.417,
      "velocity": 1,
      "hand": "right"
    },
    {
      "midi": 79,
      "time": 134.167,
      "duration": 0.417,
      "velocity": 1,
      "hand": "right"
    },
    {
      "midi": 69,
      "time": 134.792,
      "duration": 0.417,
      "velocity": 1,
      "hand": "right"
    },
    {
      "midi": 64,
      "time": 137.5,
      "duration": 1.25,
      "velocity": 1,
      "hand": "right"
    },
    {
      "midi": 69,
      "time": 138.75,
      "duration": 0.417,
      "velocity": 1,
      "hand": "right"
    },
    {
      "midi": 74,
      "time": 139.167,
      "duration": 0.417,
      "velocity": 1,
      "hand": "right"
    },
    {
      "midi": 86,
      "time": 140,
      "duration": 1.667,
      "velocity": 1,
      "hand": "right"
    },
    {
      "midi": 79,
      "time": 140.833,
      "duration": 0.833,
      "velocity": 1,
      "hand": "right"
    },
    {
      "midi": 84,
      "time": 141.667,
      "duration": 1.667,
      "velocity": 1,
      "hand": "right"
    },
    {
      "midi": 77,
      "time": 142.5,
      "duration": 0.833,
      "velocity": 1,
      "hand": "right"
    },
    {
      "midi": 81,
      "time": 143.333,
      "duration": 0.625,
      "velocity": 1,
      "hand": "right"
    },
    {
      "midi": 82,
      "time": 143.958,
      "duration": 0.417,
      "velocity": 1,
      "hand": "right"
    },
    {
      "midi": 69,
      "time": 145,
      "duration": 0.833,
      "velocity": 1,
      "hand": "right"
    },
    {
      "midi": 65,
      "time": 145.833,
      "duration": 0.417,
      "velocity": 1,
      "hand": "right"
    },
    {
      "midi": 60,
      "time": 147.083,
      "duration": 0.417,
      "velocity": 1,
      "hand": "right"
    },
    {
      "midi": 65,
      "time": 147.5,
      "duration": 0.417,
      "velocity": 1,
      "hand": "right"
    },
    {
      "midi": 64,
      "time": 147.917,
      "duration": 0.417,
      "velocity": 1,
      "hand": "right"
    },
    {
      "midi": 64,
      "time": 148.75,
      "duration": 0.417,
      "velocity": 1,
      "hand": "right"
    },
    {
      "midi": 65,
      "time": 149.167,
      "duration": 0.833,
      "velocity": 1,
      "hand": "right"
    },
    {
      "midi": 72,
      "time": 150,
      "duration": 0.417,
      "velocity": 1,
      "hand": "right"
    },
    {
      "midi": 60,
      "time": 150.833,
      "duration": 1.667,
      "velocity": 1,
      "hand": "right"
    },
    {
      "midi": 60,
      "time": 152.5,
      "duration": 0.417,
      "velocity": 1,
      "hand": "right"
    },
    {
      "midi": 62,
      "time": 153.75,
      "duration": 0.417,
      "velocity": 1,
      "hand": "right"
    },
    {
      "midi": 73,
      "time": 154.167,
      "duration": 0.417,
      "velocity": 1,
      "hand": "right"
    },
    {
      "midi": 62,
      "time": 155.417,
      "duration": 0.417,
      "velocity": 1,
      "hand": "right"
    },
    {
      "midi": 74,
      "time": 156.25,
      "duration": 0.417,
      "velocity": 1,
      "hand": "right"
    },
    {
      "midi": 64,
      "time": 157.083,
      "duration": 0.417,
      "velocity": 1,
      "hand": "right"
    },
    {
      "midi": 75,
      "time": 157.5,
      "duration": 0.417,
      "velocity": 1,
      "hand": "right"
    },
    {
      "midi": 76,
      "time": 157.917,
      "duration": 0.417,
      "velocity": 1,
      "hand": "right"
    },
    {
      "midi": 64,
      "time": 158.75,
      "duration": 0.417,
      "velocity": 1,
      "hand": "right"
    },
    {
      "midi": 75,
      "time": 159.167,
      "duration": 0.417,
      "velocity": 1,
      "hand": "right"
    },
    {
      "midi": 89,
      "time": 160,
      "duration": 1.667,
      "velocity": 1,
      "hand": "right"
    },
    {
      "midi": 86,
      "time": 160.833,
      "duration": 0.833,
      "velocity": 1,
      "hand": "right"
    },
    {
      "midi": 79,
      "time": 161.667,
      "duration": 1.667,
      "velocity": 1,
      "hand": "right"
    },
    {
      "midi": 76,
      "time": 162.5,
      "duration": 0.833,
      "velocity": 1,
      "hand": "right"
    },
    {
      "midi": 84,
      "time": 163.333,
      "duration": 0.625,
      "velocity": 1,
      "hand": "right"
    },
    {
      "midi": 83,
      "time": 163.958,
      "duration": 0.417,
      "velocity": 1,
      "hand": "right"
    },
    {
      "midi": 77,
      "time": 165,
      "duration": 0.625,
      "velocity": 1,
      "hand": "right"
    },
    {
      "midi": 76,
      "time": 165.625,
      "duration": 0.417,
      "velocity": 1,
      "hand": "right"
    },
    {
      "midi": 62,
      "time": 167.083,
      "duration": 0.417,
      "velocity": 1,
      "hand": "right"
    },
    {
      "midi": 67,
      "time": 167.5,
      "duration": 0.417,
      "velocity": 1,
      "hand": "right"
    },
    {
      "midi": 66,
      "time": 167.917,
      "duration": 0.417,
      "velocity": 1,
      "hand": "right"
    },
    {
      "midi": 66,
      "time": 168.75,
      "duration": 0.417,
      "velocity": 1,
      "hand": "right"
    },
    {
      "midi": 67,
      "time": 169.167,
      "duration": 0.417,
      "velocity": 1,
      "hand": "right"
    },
    {
      "midi": 70,
      "time": 170,
      "duration": 0.833,
      "velocity": 1,
      "hand": "right"
    },
    {
      "midi": 74,
      "time": 170.417,
      "duration": 0.417,
      "velocity": 1,
      "hand": "right"
    },
    {
      "midi": 78,
      "time": 171.25,
      "duration": 0.417,
      "velocity": 1,
      "hand": "right"
    },
    {
      "midi": 76,
      "time": 171.667,
      "duration": 0.417,
      "velocity": 1,
      "hand": "right"
    },
    {
      "midi": 79,
      "time": 172.5,
      "duration": 0.417,
      "velocity": 1,
      "hand": "right"
    },
    {
      "midi": 91,
      "time": 173.333,
      "duration": 1.667,
      "velocity": 1,
      "hand": "right"
    },
    {
      "midi": 88,
      "time": 174.167,
      "duration": 0.833,
      "velocity": 1,
      "hand": "right"
    },
    {
      "midi": 81,
      "time": 175,
      "duration": 1.667,
      "velocity": 1,
      "hand": "right"
    },
    {
      "midi": 78,
      "time": 175.833,
      "duration": 0.833,
      "velocity": 1,
      "hand": "right"
    },
    {
      "midi": 86,
      "time": 176.667,
      "duration": 0.625,
      "velocity": 1,
      "hand": "right"
    },
    {
      "midi": 85,
      "time": 177.292,
      "duration": 0.417,
      "velocity": 1,
      "hand": "right"
    },
    {
      "midi": 79,
      "time": 178.333,
      "duration": 0.625,
      "velocity": 1,
      "hand": "right"
    },
    {
      "midi": 78,
      "time": 178.958,
      "duration": 0.417,
      "velocity": 1,
      "hand": "right"
    },
    {
      "midi": 60,
      "time": 180,
      "duration": 0.833,
      "velocity": 1,
      "hand": "right"
    },
    {
      "midi": 62,
      "time": 180.417,
      "duration": 0.417,
      "velocity": 1,
      "hand": "right"
    },
    {
      "midi": 66,
      "time": 181.25,
      "duration": 0.417,
      "velocity": 1,
      "hand": "right"
    },
    {
      "midi": 64,
      "time": 181.667,
      "duration": 0.417,
      "velocity": 1,
      "hand": "right"
    },
    {
      "midi": 67,
      "time": 182.5,
      "duration": 0.417,
      "velocity": 1,
      "hand": "right"
    },
    {
      "midi": 72,
      "time": 183.333,
      "duration": 0.833,
      "velocity": 1,
      "hand": "right"
    },
    {
      "midi": 76,
      "time": 183.75,
      "duration": 0.417,
      "velocity": 1,
      "hand": "right"
    },
    {
      "midi": 81,
      "time": 184.167,
      "duration": 0.417,
      "velocity": 1,
      "hand": "right"
    },
    {
      "midi": 78,
      "time": 185,
      "duration": 0.417,
      "velocity": 1,
      "hand": "right"
    },
    {
      "midi": 80,
      "time": 185.417,
      "duration": 0.417,
      "velocity": 1,
      "hand": "right"
    },
    {
      "midi": 72,
      "time": 186.667,
      "duration": 0.833,
      "velocity": 1,
      "hand": "right"
    },
    {
      "midi": 88,
      "time": 187.292,
      "duration": 0.417,
      "velocity": 1,
      "hand": "right"
    },
    {
      "midi": 64,
      "time": 187.917,
      "duration": 0.417,
      "velocity": 1,
      "hand": "right"
    },
    {
      "midi": 72,
      "time": 188.542,
      "duration": 0.417,
      "velocity": 1,
      "hand": "right"
    },
    {
      "midi": 76,
      "time": 189.167,
      "duration": 0.833,
      "velocity": 1,
      "hand": "right"
    },
    {
      "midi": 72,
      "time": 190,
      "duration": 0.833,
      "velocity": 1,
      "hand": "right"
    },
    {
      "midi": 81,
      "time": 190.417,
      "duration": 0.417,
      "velocity": 1,
      "hand": "right"
    },
    {
      "midi": 64,
      "time": 191.25,
      "duration": 0.417,
      "velocity": 1,
      "hand": "right"
    },
    {
      "midi": 69,
      "time": 191.667,
      "duration": 0.833,
      "velocity": 1,
      "hand": "right"
    },
    {
      "midi": 81,
      "time": 192.292,
      "duration": 0.417,
      "velocity": 1,
      "hand": "right"
    },
    {
      "midi": 64,
      "time": 192.917,
      "duration": 0.417,
      "velocity": 1,
      "hand": "right"
    },
    {
      "midi": 88,
      "time": 193.542,
      "duration": 0.417,
      "velocity": 1,
      "hand": "right"
    },
    {
      "midi": 80,
      "time": 194.167,
      "duration": 0.417,
      "velocity": 1,
      "hand": "right"
    },
    {
      "midi": 88,
      "time": 194.792,
      "duration": 0.417,
      "velocity": 1,
      "hand": "right"
    },
    {
      "midi": 90,
      "time": 195.417,
      "duration": 0.417,
      "velocity": 1,
      "hand": "right"
    },
    {
      "midi": 88,
      "time": 196.042,
      "duration": 0.417,
      "velocity": 1,
      "hand": "right"
    },
    {
      "midi": 69,
      "time": 196.667,
      "duration": 0.417,
      "velocity": 1,
      "hand": "right"
    },
    {
      "midi": 76,
      "time": 197.292,
      "duration": 0.417,
      "velocity": 1,
      "hand": "right"
    },
    {
      "midi": 78,
      "time": 197.917,
      "duration": 0.417,
      "velocity": 1,
      "hand": "right"
    },
    {
      "midi": 76,
      "time": 198.542,
      "duration": 0.417,
      "velocity": 1,
      "hand": "right"
    },
    {
      "midi": 73,
      "time": 199.167,
      "duration": 0.417,
      "velocity": 1,
      "hand": "right"
    },
    {
      "midi": 76,
      "time": 199.792,
      "duration": 0.417,
      "velocity": 1,
      "hand": "right"
    },
    {
      "midi": 74,
      "time": 200.417,
      "duration": 0.417,
      "velocity": 1,
      "hand": "right"
    },
    {
      "midi": 69,
      "time": 201.042,
      "duration": 0.417,
      "velocity": 1,
      "hand": "right"
    },
    {
      "midi": 62,
      "time": 201.667,
      "duration": 0.417,
      "velocity": 1,
      "hand": "right"
    },
    {
      "midi": 64,
      "time": 202.292,
      "duration": 0.417,
      "velocity": 1,
      "hand": "right"
    },
    {
      "midi": 66,
      "time": 202.917,
      "duration": 0.417,
      "velocity": 1,
      "hand": "right"
    },
    {
      "midi": 61,
      "time": 203.542,
      "duration": 0.417,
      "velocity": 1,
      "hand": "right"
    },
    {
      "midi": 61,
      "time": 204.583,
      "duration": 0.417,
      "velocity": 1,
      "hand": "right"
    },
    {
      "midi": 60,
      "time": 212.083,
      "duration": 0.417,
      "velocity": 1,
      "hand": "right"
    },
    {
      "midi": 63,
      "time": 212.5,
      "duration": 0.417,
      "velocity": 1,
      "hand": "right"
    },
    {
      "midi": 68,
      "time": 212.917,
      "duration": 0.417,
      "velocity": 1,
      "hand": "right"
    },
    {
      "midi": 69,
      "time": 213.542,
      "duration": 0.417,
      "velocity": 1,
      "hand": "right"
    },
    {
      "midi": 75,
      "time": 214.167,
      "duration": 0.417,
      "velocity": 1,
      "hand": "right"
    },
    {
      "midi": 81,
      "time": 214.792,
      "duration": 0.417,
      "velocity": 1,
      "hand": "right"
    },
    {
      "midi": 84,
      "time": 215.417,
      "duration": 0.417,
      "velocity": 1,
      "hand": "right"
    },
    {
      "midi": 88,
      "time": 216.042,
      "duration": 0.417,
      "velocity": 1,
      "hand": "right"
    },
    {
      "midi": 81,
      "time": 216.667,
      "duration": 0.833,
      "velocity": 1,
      "hand": "right"
    },
    {
      "midi": 76,
      "time": 217.5,
      "duration": 0.833,
      "velocity": 1,
      "hand": "right"
    },
    {
      "midi": 64,
      "time": 217.917,
      "duration": 0.417,
      "velocity": 1,
      "hand": "right"
    },
    {
      "midi": 69,
      "time": 218.75,
      "duration": 0.417,
      "velocity": 1,
      "hand": "right"
    },
    {
      "midi": 76,
      "time": 219.167,
      "duration": 0.833,
      "velocity": 1,
      "hand": "right"
    },
    {
      "midi": 74,
      "time": 220,
      "duration": 0.417,
      "velocity": 1,
      "hand": "right"
    },
    {
      "midi": 78,
      "time": 221.25,
      "duration": 0.417,
      "velocity": 1,
      "hand": "right"
    },
    {
      "midi": 76,
      "time": 221.667,
      "duration": 0.417,
      "velocity": 1,
      "hand": "right"
    },
    {
      "midi": 76,
      "time": 222.5,
      "duration": 0.833,
      "velocity": 1,
      "hand": "right"
    },
    {
      "midi": 69,
      "time": 222.917,
      "duration": 0.417,
      "velocity": 1,
      "hand": "right"
    },
    {
      "midi": 69,
      "time": 223.75,
      "duration": 0.417,
      "velocity": 1,
      "hand": "right"
    },
    {
      "midi": 76,
      "time": 224.167,
      "duration": 0.833,
      "velocity": 1,
      "hand": "right"
    },
    {
      "midi": 81,
      "time": 225,
      "duration": 0.833,
      "velocity": 1,
      "hand": "right"
    },
    {
      "midi": 69,
      "time": 225.417,
      "duration": 0.417,
      "velocity": 1,
      "hand": "right"
    },
    {
      "midi": 64,
      "time": 226.25,
      "duration": 0.417,
      "velocity": 1,
      "hand": "right"
    },
    {
      "midi": 74,
      "time": 226.667,
      "duration": 0.417,
      "velocity": 1,
      "hand": "right"
    },
    {
      "midi": 76,
      "time": 227.292,
      "duration": 0.417,
      "velocity": 1,
      "hand": "right"
    },
    {
      "midi": 78,
      "time": 227.917,
      "duration": 0.417,
      "velocity": 1,
      "hand": "right"
    },
    {
      "midi": 78,
      "time": 228.542,
      "duration": 0.417,
      "velocity": 1,
      "hand": "right"
    },
    {
      "midi": 82,
      "time": 229.167,
      "duration": 0.417,
      "velocity": 1,
      "hand": "right"
    },
    {
      "midi": 63,
      "time": 230.208,
      "duration": 0.417,
      "velocity": 1,
      "hand": "right"
    },
    {
      "midi": 72,
      "time": 231.25,
      "duration": 0.417,
      "velocity": 1,
      "hand": "right"
    },
    {
      "midi": 65,
      "time": 231.875,
      "duration": 0.417,
      "velocity": 1,
      "hand": "right"
    },
    {
      "midi": 74,
      "time": 232.917,
      "duration": 0.417,
      "velocity": 1,
      "hand": "right"
    },
    {
      "midi": 74,
      "time": 233.75,
      "duration": 0.417,
      "velocity": 1,
      "hand": "right"
    },
    {
      "midi": 63,
      "time": 234.167,
      "duration": 0.833,
      "velocity": 1,
      "hand": "right"
    },
    {
      "midi": 65,
      "time": 235,
      "duration": 0.833,
      "velocity": 1,
      "hand": "right"
    },
    {
      "midi": 79,
      "time": 235.417,
      "duration": 0.417,
      "velocity": 1,
      "hand": "right"
    },
    {
      "midi": 75,
      "time": 236.25,
      "duration": 0.417,
      "velocity": 1,
      "hand": "right"
    },
    {
      "midi": 67,
      "time": 236.875,
      "duration": 0.417,
      "velocity": 1,
      "hand": "right"
    },
    {
      "midi": 76,
      "time": 237.917,
      "duration": 0.417,
      "velocity": 1,
      "hand": "right"
    },
    {
      "midi": 69,
      "time": 238.542,
      "duration": 0.417,
      "velocity": 1,
      "hand": "right"
    },
    {
      "midi": 65,
      "time": 239.167,
      "duration": 0.833,
      "velocity": 1,
      "hand": "right"
    },
    {
      "midi": 64,
      "time": 240,
      "duration": 0.833,
      "velocity": 1,
      "hand": "right"
    },
    {
      "midi": 76,
      "time": 240.417,
      "duration": 0.417,
      "velocity": 1,
      "hand": "right"
    },
    {
      "midi": 77,
      "time": 241.25,
      "duration": 0.417,
      "velocity": 1,
      "hand": "right"
    },
    {
      "midi": 67,
      "time": 241.667,
      "duration": 0.833,
      "velocity": 1,
      "hand": "right"
    },
    {
      "midi": 65,
      "time": 242.5,
      "duration": 0.833,
      "velocity": 1,
      "hand": "right"
    },
    {
      "midi": 77,
      "time": 242.917,
      "duration": 0.417,
      "velocity": 1,
      "hand": "right"
    },
    {
      "midi": 76,
      "time": 243.75,
      "duration": 0.417,
      "velocity": 1,
      "hand": "right"
    },
    {
      "midi": 65,
      "time": 244.167,
      "duration": 0.833,
      "velocity": 1,
      "hand": "right"
    },
    {
      "midi": 69,
      "time": 245,
      "duration": 0.833,
      "velocity": 1,
      "hand": "right"
    },
    {
      "midi": 83,
      "time": 245.417,
      "duration": 0.417,
      "velocity": 1,
      "hand": "right"
    },
    {
      "midi": 79,
      "time": 246.25,
      "duration": 0.417,
      "velocity": 1,
      "hand": "right"
    },
    {
      "midi": 66,
      "time": 246.667,
      "duration": 0.833,
      "velocity": 1,
      "hand": "right"
    },
    {
      "midi": 67,
      "time": 247.5,
      "duration": 0.833,
      "velocity": 1,
      "hand": "right"
    },
    {
      "midi": 79,
      "time": 247.917,
      "duration": 0.417,
      "velocity": 1,
      "hand": "right"
    },
    {
      "midi": 85,
      "time": 248.75,
      "duration": 0.417,
      "velocity": 1,
      "hand": "right"
    },
    {
      "midi": 69,
      "time": 249.167,
      "duration": 0.833,
      "velocity": 1,
      "hand": "right"
    },
    {
      "midi": 72,
      "time": 250,
      "duration": 0.833,
      "velocity": 1,
      "hand": "right"
    },
    {
      "midi": 86,
      "time": 250.417,
      "duration": 0.417,
      "velocity": 1,
      "hand": "right"
    },
    {
      "midi": 83,
      "time": 251.25,
      "duration": 0.417,
      "velocity": 1,
      "hand": "right"
    },
    {
      "midi": 72,
      "time": 251.667,
      "duration": 0.833,
      "velocity": 1,
      "hand": "right"
    },
    {
      "midi": 71,
      "time": 252.5,
      "duration": 0.833,
      "velocity": 1,
      "hand": "right"
    },
    {
      "midi": 83,
      "time": 252.917,
      "duration": 0.417,
      "velocity": 1,
      "hand": "right"
    },
    {
      "midi": 86,
      "time": 253.542,
      "duration": 0.417,
      "velocity": 1,
      "hand": "right"
    },
    {
      "midi": 79,
      "time": 254.167,
      "duration": 0.417,
      "velocity": 1,
      "hand": "right"
    },
    {
      "midi": 69,
      "time": 254.792,
      "duration": 0.417,
      "velocity": 1,
      "hand": "right"
    },
    {
      "midi": 70,
      "time": 255.417,
      "duration": 0.417,
      "velocity": 1,
      "hand": "right"
    },
    {
      "midi": 62,
      "time": 256.042,
      "duration": 0.417,
      "velocity": 1,
      "hand": "right"
    },
    {
      "midi": 64,
      "time": 256.667,
      "duration": 0.417,
      "velocity": 1,
      "hand": "right"
    },
    {
      "midi": 64,
      "time": 263.333,
      "duration": 3.333,
      "velocity": 1,
      "hand": "right"
    },
    {
      "midi": 76,
      "time": 270,
      "duration": 3.333,
      "velocity": 1,
      "hand": "right"
    },
    {
      "midi": 88,
      "time": 273.333,
      "duration": 3.333,
      "velocity": 1,
      "hand": "right"
    },
    {
      "midi": 67,
      "time": 274.167,
      "duration": 0.833,
      "velocity": 1,
      "hand": "right"
    },
    {
      "midi": 69,
      "time": 275,
      "duration": 0.833,
      "velocity": 1,
      "hand": "right"
    },
    {
      "midi": 70,
      "time": 275.833,
      "duration": 0.833,
      "velocity": 1,
      "hand": "right"
    },
    {
      "midi": 79,
      "time": 278.333,
      "duration": 0.417,
      "velocity": 1,
      "hand": "right"
    },
    {
      "midi": 79,
      "time": 279.167,
      "duration": 0.417,
      "velocity": 1,
      "hand": "right"
    },
    {
      "midi": 79,
      "time": 279.792,
      "duration": 0.417,
      "velocity": 1,
      "hand": "right"
    },
    {
      "midi": 81,
      "time": 280.417,
      "duration": 0.417,
      "velocity": 1,
      "hand": "right"
    }
  ],
  "notes2Hands": [
    {
      "midi": 50,
      "time": 0,
      "duration": 0.833,
      "velocity": 1,
      "hand": "left"
    },
    {
      "midi": 54,
      "time": 0,
      "duration": 0.833,
      "velocity": 1,
      "hand": "left"
    },
    {
      "midi": 57,
      "time": 0,
      "duration": 0.417,
      "velocity": 1,
      "hand": "left"
    },
    {
      "midi": 74,
      "time": 0,
      "duration": 0.417,
      "velocity": 1,
      "hand": "right"
    },
    {
      "midi": 78,
      "time": 0,
      "duration": 0.417,
      "velocity": 1,
      "hand": "right"
    },
    {
      "midi": 81,
      "time": 0,
      "duration": 0.833,
      "velocity": 1,
      "hand": "right"
    },
    {
      "midi": 62,
      "time": 0.417,
      "duration": 0.417,
      "velocity": 1,
      "hand": "right"
    },
    {
      "midi": 69,
      "time": 0.417,
      "duration": 0.417,
      "velocity": 1,
      "hand": "right"
    },
    {
      "midi": 50,
      "time": 0.833,
      "duration": 0.833,
      "velocity": 1,
      "hand": "left"
    },
    {
      "midi": 55,
      "time": 0.833,
      "duration": 0.833,
      "velocity": 1,
      "hand": "left"
    },
    {
      "midi": 58,
      "time": 0.833,
      "duration": 0.417,
      "velocity": 1,
      "hand": "left"
    },
    {
      "midi": 70,
      "time": 0.833,
      "duration": 0.417,
      "velocity": 1,
      "hand": "right"
    },
    {
      "midi": 74,
      "time": 0.833,
      "duration": 0.417,
      "velocity": 1,
      "hand": "right"
    },
    {
      "midi": 76,
      "time": 0.833,
      "duration": 0.833,
      "velocity": 1,
      "hand": "right"
    },
    {
      "midi": 62,
      "time": 1.25,
      "duration": 0.417,
      "velocity": 1,
      "hand": "right"
    },
    {
      "midi": 64,
      "time": 1.25,
      "duration": 0.417,
      "velocity": 1,
      "hand": "right"
    },
    {
      "midi": 50,
      "time": 1.667,
      "duration": 0.833,
      "velocity": 1,
      "hand": "left"
    },
    {
      "midi": 54,
      "time": 1.667,
      "duration": 0.833,
      "velocity": 1,
      "hand": "left"
    },
    {
      "midi": 57,
      "time": 1.667,
      "duration": 0.417,
      "velocity": 1,
      "hand": "left"
    },
    {
      "midi": 74,
      "time": 1.667,
      "duration": 0.417,
      "velocity": 1,
      "hand": "right"
    },
    {
      "midi": 78,
      "time": 1.667,
      "duration": 0.417,
      "velocity": 1,
      "hand": "right"
    },
    {
      "midi": 81,
      "time": 1.667,
      "duration": 0.833,
      "velocity": 1,
      "hand": "right"
    },
    {
      "midi": 62,
      "time": 2.083,
      "duration": 0.417,
      "velocity": 1,
      "hand": "right"
    },
    {
      "midi": 69,
      "time": 2.083,
      "duration": 0.417,
      "velocity": 1,
      "hand": "right"
    },
    {
      "midi": 50,
      "time": 2.5,
      "duration": 0.833,
      "velocity": 1,
      "hand": "left"
    },
    {
      "midi": 55,
      "time": 2.5,
      "duration": 0.833,
      "velocity": 1,
      "hand": "left"
    },
    {
      "midi": 58,
      "time": 2.5,
      "duration": 0.417,
      "velocity": 1,
      "hand": "left"
    },
    {
      "midi": 70,
      "time": 2.5,
      "duration": 0.417,
      "velocity": 1,
      "hand": "right"
    },
    {
      "midi": 74,
      "time": 2.5,
      "duration": 0.417,
      "velocity": 1,
      "hand": "right"
    },
    {
      "midi": 76,
      "time": 2.5,
      "duration": 0.833,
      "velocity": 1,
      "hand": "right"
    },
    {
      "midi": 62,
      "time": 2.917,
      "duration": 0.417,
      "velocity": 1,
      "hand": "right"
    },
    {
      "midi": 64,
      "time": 2.917,
      "duration": 0.417,
      "velocity": 1,
      "hand": "right"
    },
    {
      "midi": 60,
      "time": 3.333,
      "duration": 1.667,
      "velocity": 1,
      "hand": "right"
    },
    {
      "midi": 62,
      "time": 3.333,
      "duration": 1.667,
      "velocity": 1,
      "hand": "right"
    },
    {
      "midi": 66,
      "time": 3.333,
      "duration": 1.667,
      "velocity": 1,
      "hand": "right"
    },
    {
      "midi": 69,
      "time": 3.333,
      "duration": 1.667,
      "velocity": 1,
      "hand": "right"
    },
    {
      "midi": 74,
      "time": 3.333,
      "duration": 0.208,
      "velocity": 1,
      "hand": "right"
    },
    {
      "midi": 76,
      "time": 3.542,
      "duration": 0.208,
      "velocity": 1,
      "hand": "right"
    },
    {
      "midi": 74,
      "time": 3.75,
      "duration": 0.208,
      "velocity": 1,
      "hand": "right"
    },
    {
      "midi": 76,
      "time": 3.958,
      "duration": 0.208,
      "velocity": 1,
      "hand": "right"
    },
    {
      "midi": 78,
      "time": 4.167,
      "duration": 0.417,
      "velocity": 1,
      "hand": "right"
    },
    {
      "midi": 78,
      "time": 4.583,
      "duration": 0.417,
      "velocity": 1,
      "hand": "right"
    },
    {
      "midi": 58,
      "time": 5,
      "duration": 0.208,
      "velocity": 1,
      "hand": "left"
    },
    {
      "midi": 67,
      "time": 5,
      "duration": 0.833,
      "velocity": 1,
      "hand": "right"
    },
    {
      "midi": 74,
      "time": 5,
      "duration": 0.833,
      "velocity": 1,
      "hand": "right"
    },
    {
      "midi": 76,
      "time": 5,
      "duration": 0.417,
      "velocity": 1,
      "hand": "right"
    },
    {
      "midi": 57,
      "time": 5.208,
      "duration": 0.208,
      "velocity": 1,
      "hand": "left"
    },
    {
      "midi": 55,
      "time": 5.417,
      "duration": 0.208,
      "velocity": 1,
      "hand": "left"
    },
    {
      "midi": 79,
      "time": 5.417,
      "duration": 0.417,
      "velocity": 1,
      "hand": "right"
    },
    {
      "midi": 54,
      "time": 5.625,
      "duration": 0.208,
      "velocity": 1,
      "hand": "left"
    },
    {
      "midi": 52,
      "time": 5.833,
      "duration": 0.417,
      "velocity": 1,
      "hand": "left"
    },
    {
      "midi": 73,
      "time": 5.833,
      "duration": 0.417,
      "velocity": 1,
      "hand": "right"
    },
    {
      "midi": 76,
      "time": 5.833,
      "duration": 0.833,
      "velocity": 1,
      "hand": "right"
    },
    {
      "midi": 57,
      "time": 6.25,
      "duration": 0.417,
      "velocity": 1,
      "hand": "left"
    },
    {
      "midi": 69,
      "time": 6.25,
      "duration": 0.417,
      "velocity": 1,
      "hand": "right"
    },
    {
      "midi": 50,
      "time": 6.667,
      "duration": 0.833,
      "velocity": 1,
      "hand": "left"
    },
    {
      "midi": 54,
      "time": 6.667,
      "duration": 0.833,
      "velocity": 1,
      "hand": "left"
    },
    {
      "midi": 57,
      "time": 6.667,
      "duration": 0.417,
      "velocity": 1,
      "hand": "left"
    },
    {
      "midi": 74,
      "time": 6.667,
      "duration": 0.417,
      "velocity": 1,
      "hand": "right"
    },
    {
      "midi": 78,
      "time": 6.667,
      "duration": 0.417,
      "velocity": 1,
      "hand": "right"
    },
    {
      "midi": 81,
      "time": 6.667,
      "duration": 0.833,
      "velocity": 1,
      "hand": "right"
    },
    {
      "midi": 62,
      "time": 7.083,
      "duration": 0.417,
      "velocity": 1,
      "hand": "right"
    },
    {
      "midi": 69,
      "time": 7.083,
      "duration": 0.417,
      "velocity": 1,
      "hand": "right"
    },
    {
      "midi": 50,
      "time": 7.5,
      "duration": 0.833,
      "velocity": 1,
      "hand": "left"
    },
    {
      "midi": 55,
      "time": 7.5,
      "duration": 0.833,
      "velocity": 1,
      "hand": "left"
    },
    {
      "midi": 58,
      "time": 7.5,
      "duration": 0.417,
      "velocity": 1,
      "hand": "left"
    },
    {
      "midi": 70,
      "time": 7.5,
      "duration": 0.417,
      "velocity": 1,
      "hand": "right"
    },
    {
      "midi": 74,
      "time": 7.5,
      "duration": 0.417,
      "velocity": 1,
      "hand": "right"
    },
    {
      "midi": 76,
      "time": 7.5,
      "duration": 0.833,
      "velocity": 1,
      "hand": "right"
    },
    {
      "midi": 62,
      "time": 7.917,
      "duration": 0.417,
      "velocity": 1,
      "hand": "right"
    },
    {
      "midi": 64,
      "time": 7.917,
      "duration": 0.417,
      "velocity": 1,
      "hand": "right"
    },
    {
      "midi": 50,
      "time": 8.333,
      "duration": 0.833,
      "velocity": 1,
      "hand": "left"
    },
    {
      "midi": 54,
      "time": 8.333,
      "duration": 0.833,
      "velocity": 1,
      "hand": "left"
    },
    {
      "midi": 57,
      "time": 8.333,
      "duration": 0.417,
      "velocity": 1,
      "hand": "left"
    },
    {
      "midi": 74,
      "time": 8.333,
      "duration": 0.417,
      "velocity": 1,
      "hand": "right"
    },
    {
      "midi": 78,
      "time": 8.333,
      "duration": 0.417,
      "velocity": 1,
      "hand": "right"
    },
    {
      "midi": 81,
      "time": 8.333,
      "duration": 0.833,
      "velocity": 1,
      "hand": "right"
    },
    {
      "midi": 62,
      "time": 8.75,
      "duration": 0.417,
      "velocity": 1,
      "hand": "right"
    },
    {
      "midi": 69,
      "time": 8.75,
      "duration": 0.417,
      "velocity": 1,
      "hand": "right"
    },
    {
      "midi": 50,
      "time": 9.167,
      "duration": 0.833,
      "velocity": 1,
      "hand": "left"
    },
    {
      "midi": 55,
      "time": 9.167,
      "duration": 0.833,
      "velocity": 1,
      "hand": "left"
    },
    {
      "midi": 58,
      "time": 9.167,
      "duration": 0.417,
      "velocity": 1,
      "hand": "left"
    },
    {
      "midi": 70,
      "time": 9.167,
      "duration": 0.417,
      "velocity": 1,
      "hand": "right"
    },
    {
      "midi": 74,
      "time": 9.167,
      "duration": 0.417,
      "velocity": 1,
      "hand": "right"
    },
    {
      "midi": 76,
      "time": 9.167,
      "duration": 0.833,
      "velocity": 1,
      "hand": "right"
    },
    {
      "midi": 62,
      "time": 9.583,
      "duration": 0.417,
      "velocity": 1,
      "hand": "right"
    },
    {
      "midi": 64,
      "time": 9.583,
      "duration": 0.417,
      "velocity": 1,
      "hand": "right"
    },
    {
      "midi": 60,
      "time": 10,
      "duration": 1.667,
      "velocity": 1,
      "hand": "right"
    },
    {
      "midi": 62,
      "time": 10,
      "duration": 1.667,
      "velocity": 1,
      "hand": "right"
    },
    {
      "midi": 66,
      "time": 10,
      "duration": 1.667,
      "velocity": 1,
      "hand": "right"
    },
    {
      "midi": 69,
      "time": 10,
      "duration": 1.667,
      "velocity": 1,
      "hand": "right"
    },
    {
      "midi": 74,
      "time": 10,
      "duration": 0.208,
      "velocity": 1,
      "hand": "right"
    },
    {
      "midi": 76,
      "time": 10.208,
      "duration": 0.208,
      "velocity": 1,
      "hand": "right"
    },
    {
      "midi": 74,
      "time": 10.417,
      "duration": 0.208,
      "velocity": 1,
      "hand": "right"
    },
    {
      "midi": 76,
      "time": 10.625,
      "duration": 0.208,
      "velocity": 1,
      "hand": "right"
    },
    {
      "midi": 78,
      "time": 10.833,
      "duration": 0.417,
      "velocity": 1,
      "hand": "right"
    },
    {
      "midi": 78,
      "time": 11.25,
      "duration": 0.417,
      "velocity": 1,
      "hand": "right"
    },
    {
      "midi": 58,
      "time": 11.667,
      "duration": 0.208,
      "velocity": 1,
      "hand": "left"
    },
    {
      "midi": 62,
      "time": 11.667,
      "duration": 0.208,
      "velocity": 1,
      "hand": "right"
    },
    {
      "midi": 74,
      "time": 11.667,
      "duration": 0.208,
      "velocity": 1,
      "hand": "right"
    },
    {
      "midi": 76,
      "time": 11.667,
      "duration": 0.208,
      "velocity": 1,
      "hand": "right"
    },
    {
      "midi": 78,
      "time": 11.875,
      "duration": 0.208,
      "velocity": 1,
      "hand": "right"
    },
    {
      "midi": 58,
      "time": 12.083,
      "duration": 0.208,
      "velocity": 1,
      "hand": "left"
    },
    {
      "midi": 79,
      "time": 12.083,
      "duration": 0.208,
      "velocity": 1,
      "hand": "right"
    },
    {
      "midi": 57,
      "time": 12.292,
      "duration": 0.208,
      "velocity": 1,
      "hand": "left"
    },
    {
      "midi": 81,
      "time": 12.292,
      "duration": 0.208,
      "velocity": 1,
      "hand": "right"
    },
    {
      "midi": 55,
      "time": 12.5,
      "duration": 0.417,
      "velocity": 1,
      "hand": "left"
    },
    {
      "midi": 82,
      "time": 12.5,
      "duration": 0.417,
      "velocity": 1,
      "hand": "right"
    },
    {
      "midi": 43,
      "time": 13.333,
      "duration": 0.833,
      "velocity": 1,
      "hand": "left"
    },
    {
      "midi": 51,
      "time": 13.333,
      "duration": 0.833,
      "velocity": 1,
      "hand": "left"
    },
    {
      "midi": 61,
      "time": 13.542,
      "duration": 0.208,
      "velocity": 1,
      "hand": "right"
    },
    {
      "midi": 63,
      "time": 13.542,
      "duration": 0.208,
      "velocity": 1,
      "hand": "right"
    },
    {
      "midi": 58,
      "time": 13.75,
      "duration": 0.417,
      "velocity": 1,
      "hand": "left"
    },
    {
      "midi": 61,
      "time": 13.958,
      "duration": 0.208,
      "velocity": 1,
      "hand": "right"
    },
    {
      "midi": 63,
      "time": 13.958,
      "duration": 0.208,
      "velocity": 1,
      "hand": "right"
    },
    {
      "midi": 56,
      "time": 14.167,
      "duration": 0.833,
      "velocity": 1,
      "hand": "left"
    },
    {
      "midi": 60,
      "time": 14.167,
      "duration": 0.417,
      "velocity": 1,
      "hand": "right"
    },
    {
      "midi": 51,
      "time": 14.583,
      "duration": 0.417,
      "velocity": 1,
      "hand": "left"
    },
    {
      "midi": 63,
      "time": 14.583,
      "duration": 0.417,
      "velocity": 1,
      "hand": "right"
    },
    {
      "midi": 72,
      "time": 14.583,
      "duration": 0.417,
      "velocity": 1,
      "hand": "right"
    },
    {
      "midi": 45,
      "time": 15,
      "duration": 0.833,
      "velocity": 1,
      "hand": "left"
    },
    {
      "midi": 53,
      "time": 15,
      "duration": 0.833,
      "velocity": 1,
      "hand": "left"
    },
    {
      "midi": 63,
      "time": 15.208,
      "duration": 0.208,
      "velocity": 1,
      "hand": "right"
    },
    {
      "midi": 65,
      "time": 15.208,
      "duration": 0.208,
      "velocity": 1,
      "hand": "right"
    },
    {
      "midi": 60,
      "time": 15.417,
      "duration": 0.417,
      "velocity": 1,
      "hand": "right"
    },
    {
      "midi": 63,
      "time": 15.625,
      "duration": 0.208,
      "velocity": 1,
      "hand": "right"
    },
    {
      "midi": 65,
      "time": 15.625,
      "duration": 0.208,
      "velocity": 1,
      "hand": "right"
    },
    {
      "midi": 58,
      "time": 15.833,
      "duration": 0.833,
      "velocity": 1,
      "hand": "left"
    },
    {
      "midi": 62,
      "time": 15.833,
      "duration": 0.833,
      "velocity": 1,
      "hand": "right"
    },
    {
      "midi": 46,
      "time": 16.25,
      "duration": 0.417,
      "velocity": 1,
      "hand": "left"
    },
    {
      "midi": 53,
      "time": 16.25,
      "duration": 0.417,
      "velocity": 1,
      "hand": "left"
    },
    {
      "midi": 65,
      "time": 16.25,
      "duration": 0.417,
      "velocity": 1,
      "hand": "right"
    },
    {
      "midi": 74,
      "time": 16.25,
      "duration": 0.417,
      "velocity": 1,
      "hand": "right"
    },
    {
      "midi": 47,
      "time": 16.667,
      "duration": 0.417,
      "velocity": 1,
      "hand": "left"
    },
    {
      "midi": 55,
      "time": 16.667,
      "duration": 0.833,
      "velocity": 1,
      "hand": "left"
    },
    {
      "midi": 62,
      "time": 16.667,
      "duration": 0.833,
      "velocity": 1,
      "hand": "right"
    },
    {
      "midi": 59,
      "time": 17.083,
      "duration": 0.417,
      "velocity": 1,
      "hand": "left"
    },
    {
      "midi": 65,
      "time": 17.083,
      "duration": 0.417,
      "velocity": 1,
      "hand": "right"
    },
    {
      "midi": 67,
      "time": 17.083,
      "duration": 0.417,
      "velocity": 1,
      "hand": "right"
    },
    {
      "midi": 74,
      "time": 17.083,
      "duration": 0.417,
      "velocity": 1,
      "hand": "right"
    },
    {
      "midi": 48,
      "time": 17.5,
      "duration": 0.417,
      "velocity": 1,
      "hand": "left"
    },
    {
      "midi": 55,
      "time": 17.5,
      "duration": 0.833,
      "velocity": 1,
      "hand": "left"
    },
    {
      "midi": 63,
      "time": 17.5,
      "duration": 0.833,
      "velocity": 1,
      "hand": "right"
    },
    {
      "midi": 60,
      "time": 17.917,
      "duration": 0.417,
      "velocity": 1,
      "hand": "right"
    },
    {
      "midi": 67,
      "time": 17.917,
      "duration": 0.417,
      "velocity": 1,
      "hand": "right"
    },
    {
      "midi": 75,
      "time": 17.917,
      "duration": 0.417,
      "velocity": 1,
      "hand": "right"
    },
    {
      "midi": 50,
      "time": 18.333,
      "duration": 0.417,
      "velocity": 1,
      "hand": "left"
    },
    {
      "midi": 55,
      "time": 18.333,
      "duration": 0.833,
      "velocity": 1,
      "hand": "left"
    },
    {
      "midi": 65,
      "time": 18.333,
      "duration": 0.833,
      "velocity": 1,
      "hand": "right"
    },
    {
      "midi": 62,
      "time": 18.75,
      "duration": 0.417,
      "velocity": 1,
      "hand": "right"
    },
    {
      "midi": 71,
      "time": 18.75,
      "duration": 0.417,
      "velocity": 1,
      "hand": "right"
    },
    {
      "midi": 79,
      "time": 18.75,
      "duration": 0.417,
      "velocity": 1,
      "hand": "right"
    },
    {
      "midi": 48,
      "time": 19.167,
      "duration": 0.417,
      "velocity": 1,
      "hand": "left"
    },
    {
      "midi": 55,
      "time": 19.167,
      "duration": 0.833,
      "velocity": 1,
      "hand": "left"
    },
    {
      "midi": 63,
      "time": 19.167,
      "duration": 0.833,
      "velocity": 1,
      "hand": "right"
    },
    {
      "midi": 60,
      "time": 19.583,
      "duration": 0.417,
      "velocity": 1,
      "hand": "right"
    },
    {
      "midi": 67,
      "time": 19.583,
      "duration": 0.417,
      "velocity": 1,
      "hand": "right"
    },
    {
      "midi": 75,
      "time": 19.583,
      "duration": 0.417,
      "velocity": 1,
      "hand": "right"
    },
    {
      "midi": 47,
      "time": 20,
      "duration": 0.833,
      "velocity": 1,
      "hand": "left"
    },
    {
      "midi": 55,
      "time": 20,
      "duration": 0.833,
      "velocity": 1,
      "hand": "left"
    },
    {
      "midi": 65,
      "time": 20.208,
      "duration": 0.208,
      "velocity": 1,
      "hand": "right"
    },
    {
      "midi": 67,
      "time": 20.208,
      "duration": 0.208,
      "velocity": 1,
      "hand": "right"
    },
    {
      "midi": 62,
      "time": 20.417,
      "duration": 0.417,
      "velocity": 1,
      "hand": "right"
    },
    {
      "midi": 65,
      "time": 20.625,
      "duration": 0.208,
      "velocity": 1,
      "hand": "right"
    },
    {
      "midi": 67,
      "time": 20.625,
      "duration": 0.208,
      "velocity": 1,
      "hand": "right"
    },
    {
      "midi": 60,
      "time": 20.833,
      "duration": 0.833,
      "velocity": 1,
      "hand": "right"
    },
    {
      "midi": 64,
      "time": 20.833,
      "duration": 0.833,
      "velocity": 1,
      "hand": "right"
    },
    {
      "midi": 48,
      "time": 21.25,
      "duration": 0.417,
      "velocity": 1,
      "hand": "left"
    },
    {
      "midi": 55,
      "time": 21.25,
      "duration": 0.417,
      "velocity": 1,
      "hand": "left"
    },
    {
      "midi": 67,
      "time": 21.25,
      "duration": 0.417,
      "velocity": 1,
      "hand": "right"
    },
    {
      "midi": 76,
      "time": 21.25,
      "duration": 0.417,
      "velocity": 1,
      "hand": "right"
    },
    {
      "midi": 49,
      "time": 21.667,
      "duration": 0.833,
      "velocity": 1,
      "hand": "left"
    },
    {
      "midi": 57,
      "time": 21.667,
      "duration": 0.417,
      "velocity": 1,
      "hand": "left"
    },
    {
      "midi": 67,
      "time": 21.875,
      "duration": 0.208,
      "velocity": 1,
      "hand": "right"
    },
    {
      "midi": 69,
      "time": 21.875,
      "duration": 0.208,
      "velocity": 1,
      "hand": "right"
    },
    {
      "midi": 64,
      "time": 22.083,
      "duration": 0.417,
      "velocity": 1,
      "hand": "right"
    },
    {
      "midi": 67,
      "time": 22.292,
      "duration": 0.208,
      "velocity": 1,
      "hand": "right"
    },
    {
      "midi": 69,
      "time": 22.292,
      "duration": 0.208,
      "velocity": 1,
      "hand": "right"
    },
    {
      "midi": 62,
      "time": 22.5,
      "duration": 0.833,
      "velocity": 1,
      "hand": "right"
    },
    {
      "midi": 65,
      "time": 22.5,
      "duration": 0.833,
      "velocity": 1,
      "hand": "right"
    },
    {
      "midi": 50,
      "time": 22.917,
      "duration": 0.417,
      "velocity": 1,
      "hand": "left"
    },
    {
      "midi": 57,
      "time": 22.917,
      "duration": 0.417,
      "velocity": 1,
      "hand": "left"
    },
    {
      "midi": 69,
      "time": 22.917,
      "duration": 0.417,
      "velocity": 1,
      "hand": "right"
    },
    {
      "midi": 77,
      "time": 22.917,
      "duration": 0.417,
      "velocity": 1,
      "hand": "right"
    },
    {
      "midi": 49,
      "time": 23.333,
      "duration": 0.833,
      "velocity": 1,
      "hand": "left"
    },
    {
      "midi": 57,
      "time": 23.333,
      "duration": 0.833,
      "velocity": 1,
      "hand": "left"
    },
    {
      "midi": 64,
      "time": 23.333,
      "duration": 0.833,
      "velocity": 1,
      "hand": "right"
    },
    {
      "midi": 61,
      "time": 23.75,
      "duration": 0.417,
      "velocity": 1,
      "hand": "right"
    },
    {
      "midi": 67,
      "time": 23.75,
      "duration": 0.417,
      "velocity": 1,
      "hand": "right"
    },
    {
      "midi": 69,
      "time": 23.75,
      "duration": 0.417,
      "velocity": 1,
      "hand": "right"
    },
    {
      "midi": 76,
      "time": 23.75,
      "duration": 0.417,
      "velocity": 1,
      "hand": "right"
    },
    {
      "midi": 50,
      "time": 24.167,
      "duration": 0.417,
      "velocity": 1,
      "hand": "left"
    },
    {
      "midi": 57,
      "time": 24.167,
      "duration": 0.833,
      "velocity": 1,
      "hand": "left"
    },
    {
      "midi": 65,
      "time": 24.167,
      "duration": 0.833,
      "velocity": 1,
      "hand": "right"
    },
    {
      "midi": 62,
      "time": 24.583,
      "duration": 0.417,
      "velocity": 1,
      "hand": "right"
    },
    {
      "midi": 69,
      "time": 24.583,
      "duration": 0.417,
      "velocity": 1,
      "hand": "right"
    },
    {
      "midi": 77,
      "time": 24.583,
      "duration": 0.417,
      "velocity": 1,
      "hand": "right"
    },
    {
      "midi": 52,
      "time": 25,
      "duration": 0.417,
      "velocity": 1,
      "hand": "left"
    },
    {
      "midi": 57,
      "time": 25,
      "duration": 0.833,
      "velocity": 1,
      "hand": "left"
    },
    {
      "midi": 67,
      "time": 25,
      "duration": 0.833,
      "velocity": 1,
      "hand": "right"
    },
    {
      "midi": 64,
      "time": 25.417,
      "duration": 0.417,
      "velocity": 1,
      "hand": "right"
    },
    {
      "midi": 73,
      "time": 25.417,
      "duration": 0.417,
      "velocity": 1,
      "hand": "right"
    },
    {
      "midi": 81,
      "time": 25.417,
      "duration": 0.417,
      "velocity": 1,
      "hand": "right"
    },
    {
      "midi": 50,
      "time": 25.833,
      "duration": 0.417,
      "velocity": 1,
      "hand": "left"
    },
    {
      "midi": 57,
      "time": 25.833,
      "duration": 0.833,
      "velocity": 1,
      "hand": "left"
    },
    {
      "midi": 65,
      "time": 25.833,
      "duration": 0.833,
      "velocity": 1,
      "hand": "right"
    },
    {
      "midi": 62,
      "time": 26.25,
      "duration": 0.417,
      "velocity": 1,
      "hand": "right"
    },
    {
      "midi": 69,
      "time": 26.25,
      "duration": 0.417,
      "velocity": 1,
      "hand": "right"
    },
    {
      "midi": 77,
      "time": 26.25,
      "duration": 0.417,
      "velocity": 1,
      "hand": "right"
    },
    {
      "midi": 49,
      "time": 26.667,
      "duration": 0.417,
      "velocity": 1,
      "hand": "left"
    },
    {
      "midi": 57,
      "time": 26.667,
      "duration": 0.833,
      "velocity": 1,
      "hand": "left"
    },
    {
      "midi": 64,
      "time": 26.667,
      "duration": 0.833,
      "velocity": 1,
      "hand": "right"
    },
    {
      "midi": 61,
      "time": 27.083,
      "duration": 0.417,
      "velocity": 1,
      "hand": "right"
    },
    {
      "midi": 67,
      "time": 27.083,
      "duration": 0.417,
      "velocity": 1,
      "hand": "right"
    },
    {
      "midi": 69,
      "time": 27.083,
      "duration": 0.417,
      "velocity": 1,
      "hand": "right"
    },
    {
      "midi": 76,
      "time": 27.083,
      "duration": 0.417,
      "velocity": 1,
      "hand": "right"
    },
    {
      "midi": 50,
      "time": 27.5,
      "duration": 0.417,
      "velocity": 1,
      "hand": "left"
    },
    {
      "midi": 57,
      "time": 27.5,
      "duration": 0.833,
      "velocity": 1,
      "hand": "left"
    },
    {
      "midi": 65,
      "time": 27.5,
      "duration": 0.833,
      "velocity": 1,
      "hand": "right"
    },
    {
      "midi": 62,
      "time": 27.917,
      "duration": 0.417,
      "velocity": 1,
      "hand": "right"
    },
    {
      "midi": 69,
      "time": 27.917,
      "duration": 0.417,
      "velocity": 1,
      "hand": "right"
    },
    {
      "midi": 77,
      "time": 27.917,
      "duration": 0.417,
      "velocity": 1,
      "hand": "right"
    },
    {
      "midi": 51,
      "time": 28.333,
      "duration": 0.417,
      "velocity": 1,
      "hand": "left"
    },
    {
      "midi": 59,
      "time": 28.333,
      "duration": 0.833,
      "velocity": 1,
      "hand": "left"
    },
    {
      "midi": 69,
      "time": 28.333,
      "duration": 0.833,
      "velocity": 1,
      "hand": "right"
    },
    {
      "midi": 63,
      "time": 28.75,
      "duration": 0.417,
      "velocity": 1,
      "hand": "right"
    },
    {
      "midi": 78,
      "time": 28.75,
      "duration": 0.417,
      "velocity": 1,
      "hand": "right"
    },
    {
      "midi": 83,
      "time": 28.75,
      "duration": 0.417,
      "velocity": 1,
      "hand": "right"
    },
    {
      "midi": 52,
      "time": 29.167,
      "duration": 0.417,
      "velocity": 1,
      "hand": "left"
    },
    {
      "midi": 59,
      "time": 29.167,
      "duration": 0.833,
      "velocity": 1,
      "hand": "left"
    },
    {
      "midi": 67,
      "time": 29.167,
      "duration": 0.833,
      "velocity": 1,
      "hand": "right"
    },
    {
      "midi": 64,
      "time": 29.583,
      "duration": 0.417,
      "velocity": 1,
      "hand": "right"
    },
    {
      "midi": 71,
      "time": 29.583,
      "duration": 0.417,
      "velocity": 1,
      "hand": "right"
    },
    {
      "midi": 79,
      "time": 29.583,
      "duration": 0.417,
      "velocity": 1,
      "hand": "right"
    },
    {
      "midi": 51,
      "time": 30,
      "duration": 0.417,
      "velocity": 1,
      "hand": "left"
    },
    {
      "midi": 59,
      "time": 30,
      "duration": 0.833,
      "velocity": 1,
      "hand": "left"
    },
    {
      "midi": 66,
      "time": 30,
      "duration": 0.833,
      "velocity": 1,
      "hand": "right"
    },
    {
      "midi": 63,
      "time": 30.417,
      "duration": 0.417,
      "velocity": 1,
      "hand": "right"
    },
    {
      "midi": 69,
      "time": 30.417,
      "duration": 0.417,
      "velocity": 1,
      "hand": "right"
    },
    {
      "midi": 71,
      "time": 30.417,
      "duration": 0.417,
      "velocity": 1,
      "hand": "right"
    },
    {
      "midi": 78,
      "time": 30.417,
      "duration": 0.417,
      "velocity": 1,
      "hand": "right"
    },
    {
      "midi": 52,
      "time": 30.833,
      "duration": 0.417,
      "velocity": 1,
      "hand": "left"
    },
    {
      "midi": 59,
      "time": 30.833,
      "duration": 0.833,
      "velocity": 1,
      "hand": "left"
    },
    {
      "midi": 67,
      "time": 30.833,
      "duration": 0.833,
      "velocity": 1,
      "hand": "right"
    },
    {
      "midi": 64,
      "time": 31.25,
      "duration": 0.417,
      "velocity": 1,
      "hand": "right"
    },
    {
      "midi": 71,
      "time": 31.25,
      "duration": 0.417,
      "velocity": 1,
      "hand": "right"
    },
    {
      "midi": 79,
      "time": 31.25,
      "duration": 0.417,
      "velocity": 1,
      "hand": "right"
    },
    {
      "midi": 53,
      "time": 31.667,
      "duration": 0.417,
      "velocity": 1,
      "hand": "left"
    },
    {
      "midi": 61,
      "time": 31.667,
      "duration": 0.833,
      "velocity": 1,
      "hand": "right"
    },
    {
      "midi": 71,
      "time": 31.667,
      "duration": 0.833,
      "velocity": 1,
      "hand": "right"
    },
    {
      "midi": 65,
      "time": 32.083,
      "duration": 0.417,
      "velocity": 1,
      "hand": "right"
    },
    {
      "midi": 80,
      "time": 32.083,
      "duration": 0.417,
      "velocity": 1,
      "hand": "right"
    },
    {
      "midi": 85,
      "time": 32.083,
      "duration": 0.417,
      "velocity": 1,
      "hand": "right"
    },
    {
      "midi": 54,
      "time": 32.5,
      "duration": 0.417,
      "velocity": 1,
      "hand": "left"
    },
    {
      "midi": 61,
      "time": 32.5,
      "duration": 0.833,
      "velocity": 1,
      "hand": "right"
    },
    {
      "midi": 69,
      "time": 32.5,
      "duration": 0.833,
      "velocity": 1,
      "hand": "right"
    },
    {
      "midi": 66,
      "time": 32.917,
      "duration": 0.417,
      "velocity": 1,
      "hand": "right"
    },
    {
      "midi": 73,
      "time": 32.917,
      "duration": 0.417,
      "velocity": 1,
      "hand": "right"
    },
    {
      "midi": 81,
      "time": 32.917,
      "duration": 0.417,
      "velocity": 1,
      "hand": "right"
    },
    {
      "midi": 54,
      "time": 33.333,
      "duration": 0.417,
      "velocity": 1,
      "hand": "left"
    },
    {
      "midi": 62,
      "time": 33.333,
      "duration": 0.833,
      "velocity": 1,
      "hand": "right"
    },
    {
      "midi": 72,
      "time": 33.333,
      "duration": 0.833,
      "velocity": 1,
      "hand": "right"
    },
    {
      "midi": 66,
      "time": 33.75,
      "duration": 0.417,
      "velocity": 1,
      "hand": "right"
    },
    {
      "midi": 81,
      "time": 33.75,
      "duration": 0.417,
      "velocity": 1,
      "hand": "right"
    },
    {
      "midi": 86,
      "time": 33.75,
      "duration": 0.417,
      "velocity": 1,
      "hand": "right"
    },
    {
      "midi": 55,
      "time": 34.167,
      "duration": 0.417,
      "velocity": 1,
      "hand": "left"
    },
    {
      "midi": 62,
      "time": 34.167,
      "duration": 0.833,
      "velocity": 1,
      "hand": "right"
    },
    {
      "midi": 71,
      "time": 34.167,
      "duration": 0.833,
      "velocity": 1,
      "hand": "right"
    },
    {
      "midi": 67,
      "time": 34.583,
      "duration": 0.417,
      "velocity": 1,
      "hand": "right"
    },
    {
      "midi": 74,
      "time": 34.583,
      "duration": 0.417,
      "velocity": 1,
      "hand": "right"
    },
    {
      "midi": 83,
      "time": 34.583,
      "duration": 0.417,
      "velocity": 1,
      "hand": "right"
    },
    {
      "midi": 54,
      "time": 35,
      "duration": 0.417,
      "velocity": 1,
      "hand": "left"
    },
    {
      "midi": 62,
      "time": 35,
      "duration": 0.833,
      "velocity": 1,
      "hand": "right"
    },
    {
      "midi": 72,
      "time": 35,
      "duration": 0.833,
      "velocity": 1,
      "hand": "right"
    },
    {
      "midi": 66,
      "time": 35.417,
      "duration": 0.417,
      "velocity": 1,
      "hand": "right"
    },
    {
      "midi": 81,
      "time": 35.417,
      "duration": 0.417,
      "velocity": 1,
      "hand": "right"
    },
    {
      "midi": 86,
      "time": 35.417,
      "duration": 0.417,
      "velocity": 1,
      "hand": "right"
    },
    {
      "midi": 55,
      "time": 35.833,
      "duration": 0.417,
      "velocity": 1,
      "hand": "left"
    },
    {
      "midi": 62,
      "time": 35.833,
      "duration": 0.833,
      "velocity": 1,
      "hand": "right"
    },
    {
      "midi": 71,
      "time": 35.833,
      "duration": 0.833,
      "velocity": 1,
      "hand": "right"
    },
    {
      "midi": 67,
      "time": 36.25,
      "duration": 0.417,
      "velocity": 1,
      "hand": "right"
    },
    {
      "midi": 74,
      "time": 36.25,
      "duration": 0.417,
      "velocity": 1,
      "hand": "right"
    },
    {
      "midi": 83,
      "time": 36.25,
      "duration": 0.417,
      "velocity": 1,
      "hand": "right"
    },
    {
      "midi": 67,
      "time": 36.667,
      "duration": 0.417,
      "velocity": 1,
      "hand": "right"
    },
    {
      "midi": 70,
      "time": 36.667,
      "duration": 0.417,
      "velocity": 1,
      "hand": "right"
    },
    {
      "midi": 74,
      "time": 36.667,
      "duration": 0.417,
      "velocity": 1,
      "hand": "right"
    },
    {
      "midi": 88,
      "time": 36.667,
      "duration": 0.208,
      "velocity": 1,
      "hand": "right"
    },
    {
      "midi": 86,
      "time": 36.875,
      "duration": 0.208,
      "velocity": 1,
      "hand": "right"
    },
    {
      "midi": 82,
      "time": 37.083,
      "duration": 0.208,
      "velocity": 1,
      "hand": "right"
    },
    {
      "midi": 81,
      "time": 37.292,
      "duration": 0.208,
      "velocity": 1,
      "hand": "right"
    },
    {
      "midi": 76,
      "time": 37.5,
      "duration": 0.208,
      "velocity": 1,
      "hand": "right"
    },
    {
      "midi": 79,
      "time": 37.5,
      "duration": 0.417,
      "velocity": 1,
      "hand": "right"
    },
    {
      "midi": 74,
      "time": 37.708,
      "duration": 0.208,
      "velocity": 1,
      "hand": "right"
    },
    {
      "midi": 70,
      "time": 37.917,
      "duration": 0.208,
      "velocity": 1,
      "hand": "right"
    },
    {
      "midi": 69,
      "time": 38.125,
      "duration": 0.208,
      "velocity": 1,
      "hand": "right"
    },
    {
      "midi": 64,
      "time": 38.333,
      "duration": 0.208,
      "velocity": 1,
      "hand": "right"
    },
    {
      "midi": 67,
      "time": 38.333,
      "duration": 0.417,
      "velocity": 1,
      "hand": "right"
    },
    {
      "midi": 62,
      "time": 38.542,
      "duration": 0.208,
      "velocity": 1,
      "hand": "right"
    },
    {
      "midi": 58,
      "time": 38.75,
      "duration": 0.208,
      "velocity": 1,
      "hand": "left"
    },
    {
      "midi": 57,
      "time": 38.958,
      "duration": 0.208,
      "velocity": 1,
      "hand": "left"
    },
    {
      "midi": 52,
      "time": 39.167,
      "duration": 0.208,
      "velocity": 1,
      "hand": "left"
    },
    {
      "midi": 55,
      "time": 39.167,
      "duration": 0.417,
      "velocity": 1,
      "hand": "left"
    },
    {
      "midi": 50,
      "time": 39.375,
      "duration": 0.208,
      "velocity": 1,
      "hand": "left"
    },
    {
      "midi": 46,
      "time": 39.583,
      "duration": 0.208,
      "velocity": 1,
      "hand": "left"
    },
    {
      "midi": 45,
      "time": 39.792,
      "duration": 0.208,
      "velocity": 1,
      "hand": "left"
    },
    {
      "midi": 43,
      "time": 40,
      "duration": 0.417,
      "velocity": 1,
      "hand": "left"
    },
    {
      "midi": 43,
      "time": 40.417,
      "duration": 0.417,
      "velocity": 1,
      "hand": "left"
    },
    {
      "midi": 44,
      "time": 40.833,
      "duration": 0.208,
      "velocity": 1,
      "hand": "left"
    },
    {
      "midi": 62,
      "time": 40.833,
      "duration": 1.25,
      "velocity": 1,
      "hand": "right"
    },
    {
      "midi": 64,
      "time": 40.833,
      "duration": 1.25,
      "velocity": 1,
      "hand": "right"
    },
    {
      "midi": 45,
      "time": 41.042,
      "duration": 0.208,
      "velocity": 1,
      "hand": "left"
    },
    {
      "midi": 46,
      "time": 41.25,
      "duration": 0.208,
      "velocity": 1,
      "hand": "left"
    },
    {
      "midi": 44,
      "time": 41.458,
      "duration": 0.208,
      "velocity": 1,
      "hand": "left"
    },
    {
      "midi": 45,
      "time": 41.667,
      "duration": 0.417,
      "velocity": 1,
      "hand": "left"
    },
    {
      "midi": 45,
      "time": 42.083,
      "duration": 0.417,
      "velocity": 1,
      "hand": "left"
    },
    {
      "midi": 55,
      "time": 42.083,
      "duration": 0.417,
      "velocity": 1,
      "hand": "left"
    },
    {
      "midi": 61,
      "time": 42.083,
      "duration": 0.417,
      "velocity": 1,
      "hand": "right"
    },
    {
      "midi": 64,
      "time": 42.083,
      "duration": 0.417,
      "velocity": 1,
      "hand": "right"
    },
    {
      "midi": 69,
      "time": 42.083,
      "duration": 0.417,
      "velocity": 1,
      "hand": "right"
    },
    {
      "midi": 50,
      "time": 42.5,
      "duration": 0.417,
      "velocity": 1,
      "hand": "left"
    },
    {
      "midi": 54,
      "time": 42.5,
      "duration": 0.417,
      "velocity": 1,
      "hand": "left"
    },
    {
      "midi": 62,
      "time": 42.5,
      "duration": 0.417,
      "velocity": 1,
      "hand": "right"
    },
    {
      "midi": 69,
      "time": 42.5,
      "duration": 0.417,
      "velocity": 1,
      "hand": "right"
    },
    {
      "midi": 74,
      "time": 42.5,
      "duration": 0.417,
      "velocity": 1,
      "hand": "right"
    },
    {
      "midi": 78,
      "time": 43.333,
      "duration": 0.208,
      "velocity": 1,
      "hand": "right"
    },
    {
      "midi": 76,
      "time": 43.542,
      "duration": 0.208,
      "velocity": 1,
      "hand": "right"
    },
    {
      "midi": 74,
      "time": 43.75,
      "duration": 0.208,
      "velocity": 1,
      "hand": "right"
    },
    {
      "midi": 73,
      "time": 43.958,
      "duration": 0.208,
      "velocity": 1,
      "hand": "right"
    },
    {
      "midi": 59,
      "time": 44.167,
      "duration": 0.417,
      "velocity": 1,
      "hand": "left"
    },
    {
      "midi": 62,
      "time": 44.167,
      "duration": 0.417,
      "velocity": 1,
      "hand": "right"
    },
    {
      "midi": 66,
      "time": 44.167,
      "duration": 0.417,
      "velocity": 1,
      "hand": "right"
    },
    {
      "midi": 71,
      "time": 44.167,
      "duration": 0.417,
      "velocity": 1,
      "hand": "right"
    },
    {
      "midi": 73,
      "time": 44.583,
      "duration": 0.417,
      "velocity": 1,
      "hand": "right"
    },
    {
      "midi": 54,
      "time": 45,
      "duration": 0.208,
      "velocity": 1,
      "hand": "left"
    },
    {
      "midi": 61,
      "time": 45,
      "duration": 0.833,
      "velocity": 1,
      "hand": "right"
    },
    {
      "midi": 52,
      "time": 45.208,
      "duration": 0.208,
      "velocity": 1,
      "hand": "left"
    },
    {
      "midi": 50,
      "time": 45.417,
      "duration": 0.208,
      "velocity": 1,
      "hand": "left"
    },
    {
      "midi": 66,
      "time": 45.417,
      "duration": 0.417,
      "velocity": 1,
      "hand": "right"
    },
    {
      "midi": 70,
      "time": 45.417,
      "duration": 0.417,
      "velocity": 1,
      "hand": "right"
    },
    {
      "midi": 49,
      "time": 45.625,
      "duration": 0.208,
      "velocity": 1,
      "hand": "left"
    },
    {
      "midi": 47,
      "time": 45.833,
      "duration": 0.417,
      "velocity": 1,
      "hand": "left"
    },
    {
      "midi": 62,
      "time": 45.833,
      "duration": 0.833,
      "velocity": 1,
      "hand": "right"
    },
    {
      "midi": 66,
      "time": 46.25,
      "duration": 0.417,
      "velocity": 1,
      "hand": "right"
    },
    {
      "midi": 71,
      "time": 46.25,
      "duration": 0.417,
      "velocity": 1,
      "hand": "right"
    },
    {
      "midi": 55,
      "time": 46.667,
      "duration": 0.417,
      "velocity": 1,
      "hand": "left"
    },
    {
      "midi": 59,
      "time": 46.667,
      "duration": 0.833,
      "velocity": 1,
      "hand": "left"
    },
    {
      "midi": 61,
      "time": 46.667,
      "duration": 0.833,
      "velocity": 1,
      "hand": "right"
    },
    {
      "midi": 73,
      "time": 46.875,
      "duration": 0.208,
      "velocity": 1,
      "hand": "right"
    },
    {
      "midi": 47,
      "time": 47.083,
      "duration": 0.417,
      "velocity": 1,
      "hand": "left"
    },
    {
      "midi": 67,
      "time": 47.083,
      "duration": 0.208,
      "velocity": 1,
      "hand": "right"
    },
    {
      "midi": 71,
      "time": 47.292,
      "duration": 0.208,
      "velocity": 1,
      "hand": "right"
    },
    {
      "midi": 54,
      "time": 47.5,
      "duration": 0.417,
      "velocity": 1,
      "hand": "left"
    },
    {
      "midi": 59,
      "time": 47.5,
      "duration": 0.833,
      "velocity": 1,
      "hand": "left"
    },
    {
      "midi": 62,
      "time": 47.5,
      "duration": 0.833,
      "velocity": 1,
      "hand": "right"
    },
    {
      "midi": 74,
      "time": 47.708,
      "duration": 0.208,
      "velocity": 1,
      "hand": "right"
    },
    {
      "midi": 47,
      "time": 47.917,
      "duration": 0.417,
      "velocity": 1,
      "hand": "left"
    },
    {
      "midi": 66,
      "time": 47.917,
      "duration": 0.208,
      "velocity": 1,
      "hand": "right"
    },
    {
      "midi": 71,
      "time": 48.125,
      "duration": 0.208,
      "velocity": 1,
      "hand": "right"
    },
    {
      "midi": 52,
      "time": 48.333,
      "duration": 0.417,
      "velocity": 1,
      "hand": "left"
    },
    {
      "midi": 55,
      "time": 48.333,
      "duration": 0.417,
      "velocity": 1,
      "hand": "left"
    },
    {
      "midi": 59,
      "time": 48.333,
      "duration": 0.833,
      "velocity": 1,
      "hand": "left"
    },
    {
      "midi": 67,
      "time": 48.333,
      "duration": 0.833,
      "velocity": 1,
      "hand": "right"
    },
    {
      "midi": 79,
      "time": 48.542,
      "duration": 0.208,
      "velocity": 1,
      "hand": "right"
    },
    {
      "midi": 47,
      "time": 48.75,
      "duration": 0.417,
      "velocity": 1,
      "hand": "left"
    },
    {
      "midi": 71,
      "time": 48.75,
      "duration": 0.208,
      "velocity": 1,
      "hand": "right"
    },
    {
      "midi": 76,
      "time": 48.958,
      "duration": 0.208,
      "velocity": 1,
      "hand": "right"
    },
    {
      "midi": 50,
      "time": 49.167,
      "duration": 0.417,
      "velocity": 1,
      "hand": "left"
    },
    {
      "midi": 54,
      "time": 49.167,
      "duration": 0.417,
      "velocity": 1,
      "hand": "left"
    },
    {
      "midi": 59,
      "time": 49.167,
      "duration": 0.833,
      "velocity": 1,
      "hand": "left"
    },
    {
      "midi": 66,
      "time": 49.167,
      "duration": 0.833,
      "velocity": 1,
      "hand": "right"
    },
    {
      "midi": 78,
      "time": 49.375,
      "duration": 0.208,
      "velocity": 1,
      "hand": "right"
    },
    {
      "midi": 47,
      "time": 49.583,
      "duration": 0.417,
      "velocity": 1,
      "hand": "left"
    },
    {
      "midi": 71,
      "time": 49.583,
      "duration": 0.208,
      "velocity": 1,
      "hand": "right"
    },
    {
      "midi": 74,
      "time": 49.792,
      "duration": 0.208,
      "velocity": 1,
      "hand": "right"
    },
    {
      "midi": 78,
      "time": 50,
      "duration": 0.208,
      "velocity": 1,
      "hand": "right"
    },
    {
      "midi": 76,
      "time": 50.208,
      "duration": 0.208,
      "velocity": 1,
      "hand": "right"
    },
    {
      "midi": 74,
      "time": 50.417,
      "duration": 0.208,
      "velocity": 1,
      "hand": "right"
    },
    {
      "midi": 73,
      "time": 50.625,
      "duration": 0.208,
      "velocity": 1,
      "hand": "right"
    },
    {
      "midi": 59,
      "time": 50.833,
      "duration": 0.417,
      "velocity": 1,
      "hand": "left"
    },
    {
      "midi": 62,
      "time": 50.833,
      "duration": 0.417,
      "velocity": 1,
      "hand": "right"
    },
    {
      "midi": 66,
      "time": 50.833,
      "duration": 0.417,
      "velocity": 1,
      "hand": "right"
    },
    {
      "midi": 71,
      "time": 50.833,
      "duration": 0.417,
      "velocity": 1,
      "hand": "right"
    },
    {
      "midi": 73,
      "time": 51.25,
      "duration": 0.417,
      "velocity": 1,
      "hand": "right"
    },
    {
      "midi": 54,
      "time": 51.667,
      "duration": 0.208,
      "velocity": 1,
      "hand": "left"
    },
    {
      "midi": 61,
      "time": 51.667,
      "duration": 0.833,
      "velocity": 1,
      "hand": "right"
    },
    {
      "midi": 52,
      "time": 51.875,
      "duration": 0.208,
      "velocity": 1,
      "hand": "left"
    },
    {
      "midi": 50,
      "time": 52.083,
      "duration": 0.208,
      "velocity": 1,
      "hand": "left"
    },
    {
      "midi": 66,
      "time": 52.083,
      "duration": 0.417,
      "velocity": 1,
      "hand": "right"
    },
    {
      "midi": 70,
      "time": 52.083,
      "duration": 0.417,
      "velocity": 1,
      "hand": "right"
    },
    {
      "midi": 49,
      "time": 52.292,
      "duration": 0.208,
      "velocity": 1,
      "hand": "left"
    },
    {
      "midi": 47,
      "time": 52.5,
      "duration": 0.417,
      "velocity": 1,
      "hand": "left"
    },
    {
      "midi": 62,
      "time": 52.5,
      "duration": 0.833,
      "velocity": 1,
      "hand": "right"
    },
    {
      "midi": 66,
      "time": 52.917,
      "duration": 0.417,
      "velocity": 1,
      "hand": "right"
    },
    {
      "midi": 71,
      "time": 52.917,
      "duration": 0.417,
      "velocity": 1,
      "hand": "right"
    },
    {
      "midi": 55,
      "time": 53.333,
      "duration": 0.417,
      "velocity": 1,
      "hand": "left"
    },
    {
      "midi": 59,
      "time": 53.333,
      "duration": 0.833,
      "velocity": 1,
      "hand": "left"
    },
    {
      "midi": 61,
      "time": 53.333,
      "duration": 0.833,
      "velocity": 1,
      "hand": "right"
    },
    {
      "midi": 73,
      "time": 53.542,
      "duration": 0.208,
      "velocity": 1,
      "hand": "right"
    },
    {
      "midi": 47,
      "time": 53.75,
      "duration": 0.417,
      "velocity": 1,
      "hand": "left"
    },
    {
      "midi": 67,
      "time": 53.75,
      "duration": 0.208,
      "velocity": 1,
      "hand": "right"
    },
    {
      "midi": 71,
      "time": 53.958,
      "duration": 0.208,
      "velocity": 1,
      "hand": "right"
    },
    {
      "midi": 54,
      "time": 54.167,
      "duration": 0.417,
      "velocity": 1,
      "hand": "left"
    },
    {
      "midi": 59,
      "time": 54.167,
      "duration": 0.833,
      "velocity": 1,
      "hand": "left"
    },
    {
      "midi": 62,
      "time": 54.167,
      "duration": 0.833,
      "velocity": 1,
      "hand": "right"
    },
    {
      "midi": 74,
      "time": 54.375,
      "duration": 0.208,
      "velocity": 1,
      "hand": "right"
    },
    {
      "midi": 47,
      "time": 54.583,
      "duration": 0.417,
      "velocity": 1,
      "hand": "left"
    },
    {
      "midi": 66,
      "time": 54.583,
      "duration": 0.208,
      "velocity": 1,
      "hand": "right"
    },
    {
      "midi": 71,
      "time": 54.792,
      "duration": 0.208,
      "velocity": 1,
      "hand": "right"
    },
    {
      "midi": 52,
      "time": 55,
      "duration": 0.417,
      "velocity": 1,
      "hand": "left"
    },
    {
      "midi": 55,
      "time": 55,
      "duration": 0.417,
      "velocity": 1,
      "hand": "left"
    },
    {
      "midi": 59,
      "time": 55,
      "duration": 0.833,
      "velocity": 1,
      "hand": "left"
    },
    {
      "midi": 67,
      "time": 55,
      "duration": 0.833,
      "velocity": 1,
      "hand": "right"
    },
    {
      "midi": 79,
      "time": 55.208,
      "duration": 0.208,
      "velocity": 1,
      "hand": "right"
    },
    {
      "midi": 47,
      "time": 55.417,
      "duration": 0.417,
      "velocity": 1,
      "hand": "left"
    },
    {
      "midi": 71,
      "time": 55.417,
      "duration": 0.208,
      "velocity": 1,
      "hand": "right"
    },
    {
      "midi": 76,
      "time": 55.625,
      "duration": 0.208,
      "velocity": 1,
      "hand": "right"
    },
    {
      "midi": 50,
      "time": 55.833,
      "duration": 0.417,
      "velocity": 1,
      "hand": "left"
    },
    {
      "midi": 54,
      "time": 55.833,
      "duration": 0.417,
      "velocity": 1,
      "hand": "left"
    },
    {
      "midi": 59,
      "time": 55.833,
      "duration": 0.833,
      "velocity": 1,
      "hand": "left"
    },
    {
      "midi": 66,
      "time": 55.833,
      "duration": 0.833,
      "velocity": 1,
      "hand": "right"
    },
    {
      "midi": 78,
      "time": 56.042,
      "duration": 0.208,
      "velocity": 1,
      "hand": "right"
    },
    {
      "midi": 47,
      "time": 56.25,
      "duration": 0.417,
      "velocity": 1,
      "hand": "left"
    },
    {
      "midi": 71,
      "time": 56.25,
      "duration": 0.208,
      "velocity": 1,
      "hand": "right"
    },
    {
      "midi": 74,
      "time": 56.458,
      "duration": 0.208,
      "velocity": 1,
      "hand": "right"
    },
    {
      "midi": 47,
      "time": 56.667,
      "duration": 0.208,
      "velocity": 1,
      "hand": "left"
    },
    {
      "midi": 49,
      "time": 56.875,
      "duration": 0.208,
      "velocity": 1,
      "hand": "left"
    },
    {
      "midi": 50,
      "time": 57.083,
      "duration": 0.208,
      "velocity": 1,
      "hand": "left"
    },
    {
      "midi": 59,
      "time": 57.083,
      "duration": 0.833,
      "velocity": 1,
      "hand": "left"
    },
    {
      "midi": 62,
      "time": 57.083,
      "duration": 0.833,
      "velocity": 1,
      "hand": "right"
    },
    {
      "midi": 52,
      "time": 57.292,
      "duration": 0.208,
      "velocity": 1,
      "hand": "left"
    },
    {
      "midi": 53,
      "time": 57.5,
      "duration": 0.417,
      "velocity": 1,
      "hand": "left"
    },
    {
      "midi": 54,
      "time": 57.917,
      "duration": 0.417,
      "velocity": 1,
      "hand": "left"
    },
    {
      "midi": 59,
      "time": 57.917,
      "duration": 0.833,
      "velocity": 1,
      "hand": "left"
    },
    {
      "midi": 62,
      "time": 57.917,
      "duration": 0.833,
      "velocity": 1,
      "hand": "right"
    },
    {
      "midi": 57,
      "time": 58.333,
      "duration": 0.417,
      "velocity": 1,
      "hand": "left"
    },
    {
      "midi": 56,
      "time": 58.75,
      "duration": 0.417,
      "velocity": 1,
      "hand": "left"
    },
    {
      "midi": 59,
      "time": 58.75,
      "duration": 0.833,
      "velocity": 1,
      "hand": "left"
    },
    {
      "midi": 62,
      "time": 58.75,
      "duration": 0.833,
      "velocity": 1,
      "hand": "right"
    },
    {
      "midi": 55,
      "time": 59.167,
      "duration": 0.417,
      "velocity": 1,
      "hand": "left"
    },
    {
      "midi": 54,
      "time": 59.583,
      "duration": 0.417,
      "velocity": 1,
      "hand": "left"
    },
    {
      "midi": 59,
      "time": 59.583,
      "duration": 0.417,
      "velocity": 1,
      "hand": "left"
    },
    {
      "midi": 62,
      "time": 59.583,
      "duration": 0.417,
      "velocity": 1,
      "hand": "right"
    },
    {
      "midi": 53,
      "time": 60,
      "duration": 0.833,
      "velocity": 1,
      "hand": "left"
    },
    {
      "midi": 71,
      "time": 60,
      "duration": 0.208,
      "velocity": 1,
      "hand": "right"
    },
    {
      "midi": 70,
      "time": 60.208,
      "duration": 0.208,
      "velocity": 1,
      "hand": "right"
    },
    {
      "midi": 59,
      "time": 60.417,
      "duration": 0.833,
      "velocity": 1,
      "hand": "left"
    },
    {
      "midi": 62,
      "time": 60.417,
      "duration": 0.833,
      "velocity": 1,
      "hand": "right"
    },
    {
      "midi": 69,
      "time": 60.417,
      "duration": 0.208,
      "velocity": 1,
      "hand": "right"
    },
    {
      "midi": 68,
      "time": 60.625,
      "duration": 0.208,
      "velocity": 1,
      "hand": "right"
    },
    {
      "midi": 52,
      "time": 60.833,
      "duration": 0.833,
      "velocity": 1,
      "hand": "left"
    },
    {
      "midi": 67,
      "time": 60.833,
      "duration": 0.417,
      "velocity": 1,
      "hand": "right"
    },
    {
      "midi": 59,
      "time": 61.25,
      "duration": 0.417,
      "velocity": 1,
      "hand": "left"
    },
    {
      "midi": 62,
      "time": 61.25,
      "duration": 0.417,
      "velocity": 1,
      "hand": "right"
    },
    {
      "midi": 67,
      "time": 61.25,
      "duration": 0.417,
      "velocity": 1,
      "hand": "right"
    },
    {
      "midi": 50,
      "time": 61.667,
      "duration": 0.833,
      "velocity": 1,
      "hand": "left"
    },
    {
      "midi": 73,
      "time": 61.667,
      "duration": 0.417,
      "velocity": 1,
      "hand": "right"
    },
    {
      "midi": 56,
      "time": 62.083,
      "duration": 0.417,
      "velocity": 1,
      "hand": "left"
    },
    {
      "midi": 59,
      "time": 62.083,
      "duration": 0.417,
      "velocity": 1,
      "hand": "left"
    },
    {
      "midi": 64,
      "time": 62.083,
      "duration": 0.417,
      "velocity": 1,
      "hand": "right"
    },
    {
      "midi": 71,
      "time": 62.083,
      "duration": 0.417,
      "velocity": 1,
      "hand": "right"
    },
    {
      "midi": 49,
      "time": 62.5,
      "duration": 0.833,
      "velocity": 1,
      "hand": "left"
    },
    {
      "midi": 63,
      "time": 62.5,
      "duration": 0.417,
      "velocity": 1,
      "hand": "right"
    },
    {
      "midi": 52,
      "time": 62.917,
      "duration": 0.417,
      "velocity": 1,
      "hand": "left"
    },
    {
      "midi": 57,
      "time": 62.917,
      "duration": 0.417,
      "velocity": 1,
      "hand": "left"
    },
    {
      "midi": 61,
      "time": 62.917,
      "duration": 0.417,
      "velocity": 1,
      "hand": "right"
    },
    {
      "midi": 64,
      "time": 62.917,
      "duration": 0.417,
      "velocity": 1,
      "hand": "right"
    },
    {
      "midi": 49,
      "time": 63.333,
      "duration": 0.208,
      "velocity": 1,
      "hand": "left"
    },
    {
      "midi": 50,
      "time": 63.542,
      "duration": 0.208,
      "velocity": 1,
      "hand": "left"
    },
    {
      "midi": 52,
      "time": 63.75,
      "duration": 0.208,
      "velocity": 1,
      "hand": "left"
    },
    {
      "midi": 61,
      "time": 63.75,
      "duration": 0.833,
      "velocity": 1,
      "hand": "right"
    },
    {
      "midi": 64,
      "time": 63.75,
      "duration": 0.833,
      "velocity": 1,
      "hand": "right"
    },
    {
      "midi": 54,
      "time": 63.958,
      "duration": 0.208,
      "velocity": 1,
      "hand": "left"
    },
    {
      "midi": 55,
      "time": 64.167,
      "duration": 0.417,
      "velocity": 1,
      "hand": "left"
    },
    {
      "midi": 56,
      "time": 64.583,
      "duration": 0.417,
      "velocity": 1,
      "hand": "left"
    },
    {
      "midi": 61,
      "time": 64.583,
      "duration": 0.833,
      "velocity": 1,
      "hand": "right"
    },
    {
      "midi": 64,
      "time": 64.583,
      "duration": 0.833,
      "velocity": 1,
      "hand": "right"
    },
    {
      "midi": 59,
      "time": 65,
      "duration": 0.417,
      "velocity": 1,
      "hand": "left"
    },
    {
      "midi": 58,
      "time": 65.417,
      "duration": 0.417,
      "velocity": 1,
      "hand": "left"
    },
    {
      "midi": 61,
      "time": 65.417,
      "duration": 0.833,
      "velocity": 1,
      "hand": "right"
    },
    {
      "midi": 64,
      "time": 65.417,
      "duration": 0.833,
      "velocity": 1,
      "hand": "right"
    },
    {
      "midi": 57,
      "time": 65.833,
      "duration": 0.417,
      "velocity": 1,
      "hand": "left"
    },
    {
      "midi": 56,
      "time": 66.25,
      "duration": 0.417,
      "velocity": 1,
      "hand": "left"
    },
    {
      "midi": 61,
      "time": 66.25,
      "duration": 0.417,
      "velocity": 1,
      "hand": "right"
    },
    {
      "midi": 64,
      "time": 66.25,
      "duration": 0.417,
      "velocity": 1,
      "hand": "right"
    },
    {
      "midi": 55,
      "time": 66.667,
      "duration": 0.833,
      "velocity": 1,
      "hand": "left"
    },
    {
      "midi": 73,
      "time": 66.667,
      "duration": 0.208,
      "velocity": 1,
      "hand": "right"
    },
    {
      "midi": 72,
      "time": 66.875,
      "duration": 0.208,
      "velocity": 1,
      "hand": "right"
    },
    {
      "midi": 61,
      "time": 67.083,
      "duration": 0.833,
      "velocity": 1,
      "hand": "right"
    },
    {
      "midi": 64,
      "time": 67.083,
      "duration": 0.833,
      "velocity": 1,
      "hand": "right"
    },
    {
      "midi": 71,
      "time": 67.083,
      "duration": 0.208,
      "velocity": 1,
      "hand": "right"
    },
    {
      "midi": 70,
      "time": 67.292,
      "duration": 0.208,
      "velocity": 1,
      "hand": "right"
    },
    {
      "midi": 54,
      "time": 67.5,
      "duration": 0.833,
      "velocity": 1,
      "hand": "left"
    },
    {
      "midi": 69,
      "time": 67.5,
      "duration": 0.417,
      "velocity": 1,
      "hand": "right"
    },
    {
      "midi": 61,
      "time": 67.917,
      "duration": 0.417,
      "velocity": 1,
      "hand": "right"
    },
    {
      "midi": 64,
      "time": 67.917,
      "duration": 0.417,
      "velocity": 1,
      "hand": "right"
    },
    {
      "midi": 69,
      "time": 67.917,
      "duration": 0.417,
      "velocity": 1,
      "hand": "right"
    },
    {
      "midi": 52,
      "time": 68.333,
      "duration": 0.833,
      "velocity": 1,
      "hand": "left"
    },
    {
      "midi": 74,
      "time": 68.333,
      "duration": 0.417,
      "velocity": 1,
      "hand": "right"
    },
    {
      "midi": 58,
      "time": 68.75,
      "duration": 0.417,
      "velocity": 1,
      "hand": "left"
    },
    {
      "midi": 61,
      "time": 68.75,
      "duration": 0.417,
      "velocity": 1,
      "hand": "right"
    },
    {
      "midi": 66,
      "time": 68.75,
      "duration": 0.417,
      "velocity": 1,
      "hand": "right"
    },
    {
      "midi": 73,
      "time": 68.75,
      "duration": 0.417,
      "velocity": 1,
      "hand": "right"
    },
    {
      "midi": 50,
      "time": 69.167,
      "duration": 0.833,
      "velocity": 1,
      "hand": "left"
    },
    {
      "midi": 65,
      "time": 69.167,
      "duration": 0.417,
      "velocity": 1,
      "hand": "right"
    },
    {
      "midi": 54,
      "time": 69.583,
      "duration": 0.417,
      "velocity": 1,
      "hand": "left"
    },
    {
      "midi": 59,
      "time": 69.583,
      "duration": 0.417,
      "velocity": 1,
      "hand": "left"
    },
    {
      "midi": 62,
      "time": 69.583,
      "duration": 0.417,
      "velocity": 1,
      "hand": "right"
    },
    {
      "midi": 66,
      "time": 69.583,
      "duration": 0.417,
      "velocity": 1,
      "hand": "right"
    },
    {
      "midi": 47,
      "time": 70,
      "duration": 0.208,
      "velocity": 1,
      "hand": "left"
    },
    {
      "midi": 71,
      "time": 70,
      "duration": 0.208,
      "velocity": 1,
      "hand": "right"
    },
    {
      "midi": 49,
      "time": 70.208,
      "duration": 0.208,
      "velocity": 1,
      "hand": "left"
    },
    {
      "midi": 73,
      "time": 70.208,
      "duration": 0.208,
      "velocity": 1,
      "hand": "right"
    },
    {
      "midi": 50,
      "time": 70.417,
      "duration": 0.208,
      "velocity": 1,
      "hand": "left"
    },
    {
      "midi": 74,
      "time": 70.417,
      "duration": 0.208,
      "velocity": 1,
      "hand": "right"
    },
    {
      "midi": 52,
      "time": 70.625,
      "duration": 0.208,
      "velocity": 1,
      "hand": "left"
    },
    {
      "midi": 76,
      "time": 70.625,
      "duration": 0.208,
      "velocity": 1,
      "hand": "right"
    },
    {
      "midi": 54,
      "time": 70.833,
      "duration": 0.417,
      "velocity": 1,
      "hand": "left"
    },
    {
      "midi": 78,
      "time": 70.833,
      "duration": 0.417,
      "velocity": 1,
      "hand": "right"
    },
    {
      "midi": 43,
      "time": 71.25,
      "duration": 0.417,
      "velocity": 1,
      "hand": "left"
    },
    {
      "midi": 47,
      "time": 71.25,
      "duration": 0.417,
      "velocity": 1,
      "hand": "left"
    },
    {
      "midi": 50,
      "time": 71.25,
      "duration": 0.417,
      "velocity": 1,
      "hand": "left"
    },
    {
      "midi": 55,
      "time": 71.25,
      "duration": 0.417,
      "velocity": 1,
      "hand": "left"
    },
    {
      "midi": 67,
      "time": 71.25,
      "duration": 0.417,
      "velocity": 1,
      "hand": "right"
    },
    {
      "midi": 71,
      "time": 71.25,
      "duration": 0.417,
      "velocity": 1,
      "hand": "right"
    },
    {
      "midi": 74,
      "time": 71.25,
      "duration": 0.417,
      "velocity": 1,
      "hand": "right"
    },
    {
      "midi": 79,
      "time": 71.25,
      "duration": 0.417,
      "velocity": 1,
      "hand": "right"
    },
    {
      "midi": 41,
      "time": 71.667,
      "duration": 0.833,
      "velocity": 1,
      "hand": "left"
    },
    {
      "midi": 65,
      "time": 71.667,
      "duration": 0.833,
      "velocity": 1,
      "hand": "right"
    },
    {
      "midi": 53,
      "time": 72.083,
      "duration": 0.417,
      "velocity": 1,
      "hand": "left"
    },
    {
      "midi": 77,
      "time": 72.083,
      "duration": 0.417,
      "velocity": 1,
      "hand": "right"
    },
    {
      "midi": 42,
      "time": 72.5,
      "duration": 0.833,
      "velocity": 1,
      "hand": "left"
    },
    {
      "midi": 66,
      "time": 72.5,
      "duration": 0.833,
      "velocity": 1,
      "hand": "right"
    },
    {
      "midi": 54,
      "time": 72.917,
      "duration": 0.417,
      "velocity": 1,
      "hand": "left"
    },
    {
      "midi": 78,
      "time": 72.917,
      "duration": 0.417,
      "velocity": 1,
      "hand": "right"
    },
    {
      "midi": 47,
      "time": 73.333,
      "duration": 0.208,
      "velocity": 1,
      "hand": "left"
    },
    {
      "midi": 71,
      "time": 73.333,
      "duration": 0.208,
      "velocity": 1,
      "hand": "right"
    },
    {
      "midi": 49,
      "time": 73.542,
      "duration": 0.208,
      "velocity": 1,
      "hand": "left"
    },
    {
      "midi": 73,
      "time": 73.542,
      "duration": 0.208,
      "velocity": 1,
      "hand": "right"
    },
    {
      "midi": 50,
      "time": 73.75,
      "duration": 0.208,
      "velocity": 1,
      "hand": "left"
    },
    {
      "midi": 74,
      "time": 73.75,
      "duration": 0.208,
      "velocity": 1,
      "hand": "right"
    },
    {
      "midi": 52,
      "time": 73.958,
      "duration": 0.208,
      "velocity": 1,
      "hand": "left"
    },
    {
      "midi": 76,
      "time": 73.958,
      "duration": 0.208,
      "velocity": 1,
      "hand": "right"
    },
    {
      "midi": 54,
      "time": 74.167,
      "duration": 0.417,
      "velocity": 1,
      "hand": "left"
    },
    {
      "midi": 78,
      "time": 74.167,
      "duration": 0.417,
      "velocity": 1,
      "hand": "right"
    },
    {
      "midi": 43,
      "time": 74.583,
      "duration": 0.417,
      "velocity": 1,
      "hand": "left"
    },
    {
      "midi": 47,
      "time": 74.583,
      "duration": 0.417,
      "velocity": 1,
      "hand": "left"
    },
    {
      "midi": 50,
      "time": 74.583,
      "duration": 0.417,
      "velocity": 1,
      "hand": "left"
    },
    {
      "midi": 55,
      "time": 74.583,
      "duration": 0.417,
      "velocity": 1,
      "hand": "left"
    },
    {
      "midi": 67,
      "time": 74.583,
      "duration": 0.417,
      "velocity": 1,
      "hand": "right"
    },
    {
      "midi": 71,
      "time": 74.583,
      "duration": 0.417,
      "velocity": 1,
      "hand": "right"
    },
    {
      "midi": 74,
      "time": 74.583,
      "duration": 0.417,
      "velocity": 1,
      "hand": "right"
    },
    {
      "midi": 79,
      "time": 74.583,
      "duration": 0.417,
      "velocity": 1,
      "hand": "right"
    },
    {
      "midi": 41,
      "time": 75,
      "duration": 0.833,
      "velocity": 1,
      "hand": "left"
    },
    {
      "midi": 65,
      "time": 75,
      "duration": 0.833,
      "velocity": 1,
      "hand": "right"
    },
    {
      "midi": 53,
      "time": 75.417,
      "duration": 0.417,
      "velocity": 1,
      "hand": "left"
    },
    {
      "midi": 77,
      "time": 75.417,
      "duration": 0.417,
      "velocity": 1,
      "hand": "right"
    },
    {
      "midi": 42,
      "time": 75.833,
      "duration": 0.833,
      "velocity": 1,
      "hand": "left"
    },
    {
      "midi": 66,
      "time": 75.833,
      "duration": 0.833,
      "velocity": 1,
      "hand": "right"
    },
    {
      "midi": 54,
      "time": 76.25,
      "duration": 0.417,
      "velocity": 1,
      "hand": "left"
    },
    {
      "midi": 78,
      "time": 76.25,
      "duration": 0.417,
      "velocity": 1,
      "hand": "right"
    },
    {
      "midi": 50,
      "time": 76.667,
      "duration": 0.208,
      "velocity": 1,
      "hand": "left"
    },
    {
      "midi": 74,
      "time": 76.667,
      "duration": 0.208,
      "velocity": 1,
      "hand": "right"
    },
    {
      "midi": 52,
      "time": 76.875,
      "duration": 0.208,
      "velocity": 1,
      "hand": "left"
    },
    {
      "midi": 76,
      "time": 76.875,
      "duration": 0.208,
      "velocity": 1,
      "hand": "right"
    },
    {
      "midi": 54,
      "time": 77.083,
      "duration": 0.208,
      "velocity": 1,
      "hand": "left"
    },
    {
      "midi": 78,
      "time": 77.083,
      "duration": 0.208,
      "velocity": 1,
      "hand": "right"
    },
    {
      "midi": 55,
      "time": 77.292,
      "duration": 0.208,
      "velocity": 1,
      "hand": "left"
    },
    {
      "midi": 79,
      "time": 77.292,
      "duration": 0.208,
      "velocity": 1,
      "hand": "right"
    },
    {
      "midi": 57,
      "time": 77.5,
      "duration": 0.417,
      "velocity": 1,
      "hand": "left"
    },
    {
      "midi": 81,
      "time": 77.5,
      "duration": 0.417,
      "velocity": 1,
      "hand": "right"
    },
    {
      "midi": 46,
      "time": 77.917,
      "duration": 0.417,
      "velocity": 1,
      "hand": "left"
    },
    {
      "midi": 50,
      "time": 77.917,
      "duration": 0.417,
      "velocity": 1,
      "hand": "left"
    },
    {
      "midi": 53,
      "time": 77.917,
      "duration": 0.417,
      "velocity": 1,
      "hand": "left"
    },
    {
      "midi": 58,
      "time": 77.917,
      "duration": 0.417,
      "velocity": 1,
      "hand": "left"
    },
    {
      "midi": 70,
      "time": 77.917,
      "duration": 0.417,
      "velocity": 1,
      "hand": "right"
    },
    {
      "midi": 74,
      "time": 77.917,
      "duration": 0.417,
      "velocity": 1,
      "hand": "right"
    },
    {
      "midi": 77,
      "time": 77.917,
      "duration": 0.417,
      "velocity": 1,
      "hand": "right"
    },
    {
      "midi": 82,
      "time": 77.917,
      "duration": 0.417,
      "velocity": 1,
      "hand": "right"
    },
    {
      "midi": 44,
      "time": 78.333,
      "duration": 0.833,
      "velocity": 1,
      "hand": "left"
    },
    {
      "midi": 68,
      "time": 78.333,
      "duration": 0.833,
      "velocity": 1,
      "hand": "right"
    },
    {
      "midi": 56,
      "time": 78.75,
      "duration": 0.417,
      "velocity": 1,
      "hand": "left"
    },
    {
      "midi": 80,
      "time": 78.75,
      "duration": 0.417,
      "velocity": 1,
      "hand": "right"
    },
    {
      "midi": 45,
      "time": 79.167,
      "duration": 0.833,
      "velocity": 1,
      "hand": "left"
    },
    {
      "midi": 69,
      "time": 79.167,
      "duration": 0.833,
      "velocity": 1,
      "hand": "right"
    },
    {
      "midi": 57,
      "time": 79.583,
      "duration": 0.417,
      "velocity": 1,
      "hand": "left"
    },
    {
      "midi": 81,
      "time": 79.583,
      "duration": 0.417,
      "velocity": 1,
      "hand": "right"
    },
    {
      "midi": 50,
      "time": 80,
      "duration": 0.208,
      "velocity": 1,
      "hand": "left"
    },
    {
      "midi": 74,
      "time": 80,
      "duration": 0.208,
      "velocity": 1,
      "hand": "right"
    },
    {
      "midi": 52,
      "time": 80.208,
      "duration": 0.208,
      "velocity": 1,
      "hand": "left"
    },
    {
      "midi": 76,
      "time": 80.208,
      "duration": 0.208,
      "velocity": 1,
      "hand": "right"
    },
    {
      "midi": 54,
      "time": 80.417,
      "duration": 0.208,
      "velocity": 1,
      "hand": "left"
    },
    {
      "midi": 78,
      "time": 80.417,
      "duration": 0.208,
      "velocity": 1,
      "hand": "right"
    },
    {
      "midi": 55,
      "time": 80.625,
      "duration": 0.208,
      "velocity": 1,
      "hand": "left"
    },
    {
      "midi": 79,
      "time": 80.625,
      "duration": 0.208,
      "velocity": 1,
      "hand": "right"
    },
    {
      "midi": 57,
      "time": 80.833,
      "duration": 0.417,
      "velocity": 1,
      "hand": "left"
    },
    {
      "midi": 81,
      "time": 80.833,
      "duration": 0.417,
      "velocity": 1,
      "hand": "right"
    },
    {
      "midi": 46,
      "time": 81.25,
      "duration": 0.417,
      "velocity": 1,
      "hand": "left"
    },
    {
      "midi": 50,
      "time": 81.25,
      "duration": 0.417,
      "velocity": 1,
      "hand": "left"
    },
    {
      "midi": 53,
      "time": 81.25,
      "duration": 0.417,
      "velocity": 1,
      "hand": "left"
    },
    {
      "midi": 58,
      "time": 81.25,
      "duration": 0.417,
      "velocity": 1,
      "hand": "left"
    },
    {
      "midi": 70,
      "time": 81.25,
      "duration": 0.417,
      "velocity": 1,
      "hand": "right"
    },
    {
      "midi": 74,
      "time": 81.25,
      "duration": 0.417,
      "velocity": 1,
      "hand": "right"
    },
    {
      "midi": 77,
      "time": 81.25,
      "duration": 0.417,
      "velocity": 1,
      "hand": "right"
    },
    {
      "midi": 82,
      "time": 81.25,
      "duration": 0.417,
      "velocity": 1,
      "hand": "right"
    },
    {
      "midi": 44,
      "time": 81.667,
      "duration": 0.833,
      "velocity": 1,
      "hand": "left"
    },
    {
      "midi": 68,
      "time": 81.667,
      "duration": 0.833,
      "velocity": 1,
      "hand": "right"
    },
    {
      "midi": 56,
      "time": 82.083,
      "duration": 0.417,
      "velocity": 1,
      "hand": "left"
    },
    {
      "midi": 80,
      "time": 82.083,
      "duration": 0.417,
      "velocity": 1,
      "hand": "right"
    },
    {
      "midi": 45,
      "time": 82.5,
      "duration": 0.833,
      "velocity": 1,
      "hand": "left"
    },
    {
      "midi": 69,
      "time": 82.5,
      "duration": 0.833,
      "velocity": 1,
      "hand": "right"
    },
    {
      "midi": 57,
      "time": 82.917,
      "duration": 0.417,
      "velocity": 1,
      "hand": "left"
    },
    {
      "midi": 81,
      "time": 82.917,
      "duration": 0.417,
      "velocity": 1,
      "hand": "right"
    },
    {
      "midi": 44,
      "time": 83.333,
      "duration": 0.833,
      "velocity": 1,
      "hand": "left"
    },
    {
      "midi": 68,
      "time": 83.333,
      "duration": 0.833,
      "velocity": 1,
      "hand": "right"
    },
    {
      "midi": 56,
      "time": 83.75,
      "duration": 0.417,
      "velocity": 1,
      "hand": "left"
    },
    {
      "midi": 80,
      "time": 83.75,
      "duration": 0.417,
      "velocity": 1,
      "hand": "right"
    },
    {
      "midi": 45,
      "time": 84.167,
      "duration": 0.833,
      "velocity": 1,
      "hand": "left"
    },
    {
      "midi": 69,
      "time": 84.167,
      "duration": 0.833,
      "velocity": 1,
      "hand": "right"
    },
    {
      "midi": 57,
      "time": 84.583,
      "duration": 0.417,
      "velocity": 1,
      "hand": "left"
    },
    {
      "midi": 81,
      "time": 84.583,
      "duration": 0.417,
      "velocity": 1,
      "hand": "right"
    },
    {
      "midi": 46,
      "time": 85,
      "duration": 0.833,
      "velocity": 1,
      "hand": "left"
    },
    {
      "midi": 70,
      "time": 85,
      "duration": 0.833,
      "velocity": 1,
      "hand": "right"
    },
    {
      "midi": 58,
      "time": 85.417,
      "duration": 0.417,
      "velocity": 1,
      "hand": "left"
    },
    {
      "midi": 82,
      "time": 85.417,
      "duration": 0.417,
      "velocity": 1,
      "hand": "right"
    },
    {
      "midi": 40,
      "time": 85.833,
      "duration": 0.833,
      "velocity": 1,
      "hand": "left"
    },
    {
      "midi": 64,
      "time": 85.833,
      "duration": 0.833,
      "velocity": 1,
      "hand": "right"
    },
    {
      "midi": 52,
      "time": 86.25,
      "duration": 0.417,
      "velocity": 1,
      "hand": "left"
    },
    {
      "midi": 76,
      "time": 86.25,
      "duration": 0.417,
      "velocity": 1,
      "hand": "right"
    },
    {
      "midi": 43,
      "time": 86.667,
      "duration": 0.833,
      "velocity": 1,
      "hand": "left"
    },
    {
      "midi": 67,
      "time": 86.667,
      "duration": 0.833,
      "velocity": 1,
      "hand": "right"
    },
    {
      "midi": 55,
      "time": 87.083,
      "duration": 0.417,
      "velocity": 1,
      "hand": "left"
    },
    {
      "midi": 79,
      "time": 87.083,
      "duration": 0.417,
      "velocity": 1,
      "hand": "right"
    },
    {
      "midi": 34,
      "time": 87.5,
      "duration": 0.833,
      "velocity": 1,
      "hand": "left"
    },
    {
      "midi": 58,
      "time": 87.5,
      "duration": 0.833,
      "velocity": 1,
      "hand": "left"
    },
    {
      "midi": 46,
      "time": 87.917,
      "duration": 0.417,
      "velocity": 1,
      "hand": "left"
    },
    {
      "midi": 70,
      "time": 87.917,
      "duration": 0.417,
      "velocity": 1,
      "hand": "right"
    },
    {
      "midi": 38,
      "time": 88.333,
      "duration": 0.833,
      "velocity": 1,
      "hand": "left"
    },
    {
      "midi": 62,
      "time": 88.333,
      "duration": 0.833,
      "velocity": 1,
      "hand": "right"
    },
    {
      "midi": 50,
      "time": 88.75,
      "duration": 0.417,
      "velocity": 1,
      "hand": "left"
    },
    {
      "midi": 74,
      "time": 88.75,
      "duration": 0.417,
      "velocity": 1,
      "hand": "right"
    },
    {
      "midi": 33,
      "time": 89.167,
      "duration": 0.833,
      "velocity": 1,
      "hand": "left"
    },
    {
      "midi": 57,
      "time": 89.167,
      "duration": 0.833,
      "velocity": 1,
      "hand": "left"
    },
    {
      "midi": 45,
      "time": 89.583,
      "duration": 0.417,
      "velocity": 1,
      "hand": "left"
    },
    {
      "midi": 69,
      "time": 89.583,
      "duration": 0.417,
      "velocity": 1,
      "hand": "right"
    },
    {
      "midi": 44,
      "time": 90,
      "duration": 0.208,
      "velocity": 1,
      "hand": "left"
    },
    {
      "midi": 45,
      "time": 90.208,
      "duration": 0.208,
      "velocity": 1,
      "hand": "left"
    },
    {
      "midi": 48,
      "time": 90.417,
      "duration": 0.208,
      "velocity": 1,
      "hand": "left"
    },
    {
      "midi": 49,
      "time": 90.625,
      "duration": 0.208,
      "velocity": 1,
      "hand": "left"
    },
    {
      "midi": 51,
      "time": 90.833,
      "duration": 0.208,
      "velocity": 1,
      "hand": "left"
    },
    {
      "midi": 52,
      "time": 91.042,
      "duration": 0.208,
      "velocity": 1,
      "hand": "left"
    },
    {
      "midi": 56,
      "time": 91.25,
      "duration": 0.208,
      "velocity": 1,
      "hand": "left"
    },
    {
      "midi": 57,
      "time": 91.458,
      "duration": 0.208,
      "velocity": 1,
      "hand": "left"
    },
    {
      "midi": 56,
      "time": 91.667,
      "duration": 0.208,
      "velocity": 1,
      "hand": "left"
    },
    {
      "midi": 57,
      "time": 91.875,
      "duration": 0.208,
      "velocity": 1,
      "hand": "left"
    },
    {
      "midi": 60,
      "time": 92.083,
      "duration": 0.208,
      "velocity": 1,
      "hand": "right"
    },
    {
      "midi": 61,
      "time": 92.292,
      "duration": 0.208,
      "velocity": 1,
      "hand": "right"
    },
    {
      "midi": 63,
      "time": 92.5,
      "duration": 0.208,
      "velocity": 1,
      "hand": "right"
    },
    {
      "midi": 64,
      "time": 92.708,
      "duration": 0.208,
      "velocity": 1,
      "hand": "right"
    },
    {
      "midi": 68,
      "time": 92.917,
      "duration": 0.208,
      "velocity": 1,
      "hand": "right"
    },
    {
      "midi": 69,
      "time": 93.125,
      "duration": 0.208,
      "velocity": 1,
      "hand": "right"
    },
    {
      "midi": 68,
      "time": 93.333,
      "duration": 0.208,
      "velocity": 1,
      "hand": "right"
    },
    {
      "midi": 69,
      "time": 93.542,
      "duration": 0.208,
      "velocity": 1,
      "hand": "right"
    },
    {
      "midi": 72,
      "time": 93.75,
      "duration": 0.208,
      "velocity": 1,
      "hand": "right"
    },
    {
      "midi": 73,
      "time": 93.958,
      "duration": 0.208,
      "velocity": 1,
      "hand": "right"
    },
    {
      "midi": 75,
      "time": 94.167,
      "duration": 0.208,
      "velocity": 1,
      "hand": "right"
    },
    {
      "midi": 76,
      "time": 94.375,
      "duration": 0.208,
      "velocity": 1,
      "hand": "right"
    },
    {
      "midi": 80,
      "time": 94.583,
      "duration": 0.208,
      "velocity": 1,
      "hand": "right"
    },
    {
      "midi": 81,
      "time": 94.792,
      "duration": 0.208,
      "velocity": 1,
      "hand": "right"
    },
    {
      "midi": 80,
      "time": 95,
      "duration": 0.208,
      "velocity": 1,
      "hand": "right"
    },
    {
      "midi": 81,
      "time": 95.208,
      "duration": 0.208,
      "velocity": 1,
      "hand": "right"
    },
    {
      "midi": 84,
      "time": 95.417,
      "duration": 0.208,
      "velocity": 1,
      "hand": "right"
    },
    {
      "midi": 85,
      "time": 95.625,
      "duration": 0.208,
      "velocity": 1,
      "hand": "right"
    },
    {
      "midi": 87,
      "time": 95.833,
      "duration": 0.208,
      "velocity": 1,
      "hand": "right"
    },
    {
      "midi": 88,
      "time": 96.042,
      "duration": 0.208,
      "velocity": 1,
      "hand": "right"
    },
    {
      "midi": 92,
      "time": 96.25,
      "duration": 0.208,
      "velocity": 1,
      "hand": "right"
    },
    {
      "midi": 93,
      "time": 96.458,
      "duration": 0.208,
      "velocity": 1,
      "hand": "right"
    },
    {
      "midi": 50,
      "time": 96.667,
      "duration": 0.833,
      "velocity": 1,
      "hand": "left"
    },
    {
      "midi": 54,
      "time": 96.667,
      "duration": 0.833,
      "velocity": 1,
      "hand": "left"
    },
    {
      "midi": 57,
      "time": 96.667,
      "duration": 0.417,
      "velocity": 1,
      "hand": "left"
    },
    {
      "midi": 74,
      "time": 96.667,
      "duration": 0.417,
      "velocity": 1,
      "hand": "right"
    },
    {
      "midi": 78,
      "time": 96.667,
      "duration": 0.417,
      "velocity": 1,
      "hand": "right"
    },
    {
      "midi": 81,
      "time": 96.667,
      "duration": 0.833,
      "velocity": 1,
      "hand": "right"
    },
    {
      "midi": 62,
      "time": 97.083,
      "duration": 0.417,
      "velocity": 1,
      "hand": "right"
    },
    {
      "midi": 69,
      "time": 97.083,
      "duration": 0.417,
      "velocity": 1,
      "hand": "right"
    },
    {
      "midi": 50,
      "time": 97.5,
      "duration": 0.833,
      "velocity": 1,
      "hand": "left"
    },
    {
      "midi": 55,
      "time": 97.5,
      "duration": 0.833,
      "velocity": 1,
      "hand": "left"
    },
    {
      "midi": 58,
      "time": 97.5,
      "duration": 0.417,
      "velocity": 1,
      "hand": "left"
    },
    {
      "midi": 70,
      "time": 97.5,
      "duration": 0.417,
      "velocity": 1,
      "hand": "right"
    },
    {
      "midi": 74,
      "time": 97.5,
      "duration": 0.417,
      "velocity": 1,
      "hand": "right"
    },
    {
      "midi": 76,
      "time": 97.5,
      "duration": 0.833,
      "velocity": 1,
      "hand": "right"
    },
    {
      "midi": 62,
      "time": 97.917,
      "duration": 0.417,
      "velocity": 1,
      "hand": "right"
    },
    {
      "midi": 64,
      "time": 97.917,
      "duration": 0.417,
      "velocity": 1,
      "hand": "right"
    },
    {
      "midi": 50,
      "time": 98.333,
      "duration": 0.833,
      "velocity": 1,
      "hand": "left"
    },
    {
      "midi": 54,
      "time": 98.333,
      "duration": 0.833,
      "velocity": 1,
      "hand": "left"
    },
    {
      "midi": 57,
      "time": 98.333,
      "duration": 0.417,
      "velocity": 1,
      "hand": "left"
    },
    {
      "midi": 74,
      "time": 98.333,
      "duration": 0.417,
      "velocity": 1,
      "hand": "right"
    },
    {
      "midi": 78,
      "time": 98.333,
      "duration": 0.417,
      "velocity": 1,
      "hand": "right"
    },
    {
      "midi": 81,
      "time": 98.333,
      "duration": 0.833,
      "velocity": 1,
      "hand": "right"
    },
    {
      "midi": 62,
      "time": 98.75,
      "duration": 0.417,
      "velocity": 1,
      "hand": "right"
    },
    {
      "midi": 69,
      "time": 98.75,
      "duration": 0.417,
      "velocity": 1,
      "hand": "right"
    },
    {
      "midi": 50,
      "time": 99.167,
      "duration": 0.833,
      "velocity": 1,
      "hand": "left"
    },
    {
      "midi": 55,
      "time": 99.167,
      "duration": 0.833,
      "velocity": 1,
      "hand": "left"
    },
    {
      "midi": 58,
      "time": 99.167,
      "duration": 0.417,
      "velocity": 1,
      "hand": "left"
    },
    {
      "midi": 70,
      "time": 99.167,
      "duration": 0.417,
      "velocity": 1,
      "hand": "right"
    },
    {
      "midi": 74,
      "time": 99.167,
      "duration": 0.417,
      "velocity": 1,
      "hand": "right"
    },
    {
      "midi": 76,
      "time": 99.167,
      "duration": 0.833,
      "velocity": 1,
      "hand": "right"
    },
    {
      "midi": 62,
      "time": 99.583,
      "duration": 0.417,
      "velocity": 1,
      "hand": "right"
    },
    {
      "midi": 64,
      "time": 99.583,
      "duration": 0.417,
      "velocity": 1,
      "hand": "right"
    },
    {
      "midi": 60,
      "time": 100,
      "duration": 1.667,
      "velocity": 1,
      "hand": "right"
    },
    {
      "midi": 62,
      "time": 100,
      "duration": 1.667,
      "velocity": 1,
      "hand": "right"
    },
    {
      "midi": 66,
      "time": 100,
      "duration": 1.667,
      "velocity": 1,
      "hand": "right"
    },
    {
      "midi": 69,
      "time": 100,
      "duration": 1.667,
      "velocity": 1,
      "hand": "right"
    },
    {
      "midi": 74,
      "time": 100,
      "duration": 0.208,
      "velocity": 1,
      "hand": "right"
    },
    {
      "midi": 76,
      "time": 100.208,
      "duration": 0.208,
      "velocity": 1,
      "hand": "right"
    },
    {
      "midi": 74,
      "time": 100.417,
      "duration": 0.208,
      "velocity": 1,
      "hand": "right"
    },
    {
      "midi": 76,
      "time": 100.625,
      "duration": 0.208,
      "velocity": 1,
      "hand": "right"
    },
    {
      "midi": 78,
      "time": 100.833,
      "duration": 0.417,
      "velocity": 1,
      "hand": "right"
    },
    {
      "midi": 78,
      "time": 101.25,
      "duration": 0.417,
      "velocity": 1,
      "hand": "right"
    },
    {
      "midi": 58,
      "time": 101.667,
      "duration": 0.208,
      "velocity": 1,
      "hand": "left"
    },
    {
      "midi": 67,
      "time": 101.667,
      "duration": 0.833,
      "velocity": 1,
      "hand": "right"
    },
    {
      "midi": 74,
      "time": 101.667,
      "duration": 0.833,
      "velocity": 1,
      "hand": "right"
    },
    {
      "midi": 76,
      "time": 101.667,
      "duration": 0.417,
      "velocity": 1,
      "hand": "right"
    },
    {
      "midi": 57,
      "time": 101.875,
      "duration": 0.208,
      "velocity": 1,
      "hand": "left"
    },
    {
      "midi": 55,
      "time": 102.083,
      "duration": 0.208,
      "velocity": 1,
      "hand": "left"
    },
    {
      "midi": 79,
      "time": 102.083,
      "duration": 0.417,
      "velocity": 1,
      "hand": "right"
    },
    {
      "midi": 54,
      "time": 102.292,
      "duration": 0.208,
      "velocity": 1,
      "hand": "left"
    },
    {
      "midi": 52,
      "time": 102.5,
      "duration": 0.417,
      "velocity": 1,
      "hand": "left"
    },
    {
      "midi": 73,
      "time": 102.5,
      "duration": 0.417,
      "velocity": 1,
      "hand": "right"
    },
    {
      "midi": 76,
      "time": 102.5,
      "duration": 0.833,
      "velocity": 1,
      "hand": "right"
    },
    {
      "midi": 57,
      "time": 102.917,
      "duration": 0.417,
      "velocity": 1,
      "hand": "left"
    },
    {
      "midi": 69,
      "time": 102.917,
      "duration": 0.417,
      "velocity": 1,
      "hand": "right"
    },
    {
      "midi": 50,
      "time": 103.333,
      "duration": 0.833,
      "velocity": 1,
      "hand": "left"
    },
    {
      "midi": 54,
      "time": 103.333,
      "duration": 0.833,
      "velocity": 1,
      "hand": "left"
    },
    {
      "midi": 57,
      "time": 103.333,
      "duration": 0.417,
      "velocity": 1,
      "hand": "left"
    },
    {
      "midi": 74,
      "time": 103.333,
      "duration": 0.417,
      "velocity": 1,
      "hand": "right"
    },
    {
      "midi": 78,
      "time": 103.333,
      "duration": 0.417,
      "velocity": 1,
      "hand": "right"
    },
    {
      "midi": 81,
      "time": 103.333,
      "duration": 0.833,
      "velocity": 1,
      "hand": "right"
    },
    {
      "midi": 62,
      "time": 103.75,
      "duration": 0.417,
      "velocity": 1,
      "hand": "right"
    },
    {
      "midi": 69,
      "time": 103.75,
      "duration": 0.417,
      "velocity": 1,
      "hand": "right"
    },
    {
      "midi": 50,
      "time": 104.167,
      "duration": 0.833,
      "velocity": 1,
      "hand": "left"
    },
    {
      "midi": 55,
      "time": 104.167,
      "duration": 0.833,
      "velocity": 1,
      "hand": "left"
    },
    {
      "midi": 58,
      "time": 104.167,
      "duration": 0.417,
      "velocity": 1,
      "hand": "left"
    },
    {
      "midi": 70,
      "time": 104.167,
      "duration": 0.417,
      "velocity": 1,
      "hand": "right"
    },
    {
      "midi": 74,
      "time": 104.167,
      "duration": 0.417,
      "velocity": 1,
      "hand": "right"
    },
    {
      "midi": 76,
      "time": 104.167,
      "duration": 0.833,
      "velocity": 1,
      "hand": "right"
    },
    {
      "midi": 62,
      "time": 104.583,
      "duration": 0.417,
      "velocity": 1,
      "hand": "right"
    },
    {
      "midi": 64,
      "time": 104.583,
      "duration": 0.417,
      "velocity": 1,
      "hand": "right"
    },
    {
      "midi": 50,
      "time": 105,
      "duration": 0.833,
      "velocity": 1,
      "hand": "left"
    },
    {
      "midi": 54,
      "time": 105,
      "duration": 0.833,
      "velocity": 1,
      "hand": "left"
    },
    {
      "midi": 57,
      "time": 105,
      "duration": 0.417,
      "velocity": 1,
      "hand": "left"
    },
    {
      "midi": 74,
      "time": 105,
      "duration": 0.417,
      "velocity": 1,
      "hand": "right"
    },
    {
      "midi": 78,
      "time": 105,
      "duration": 0.417,
      "velocity": 1,
      "hand": "right"
    },
    {
      "midi": 81,
      "time": 105,
      "duration": 0.833,
      "velocity": 1,
      "hand": "right"
    },
    {
      "midi": 62,
      "time": 105.417,
      "duration": 0.417,
      "velocity": 1,
      "hand": "right"
    },
    {
      "midi": 69,
      "time": 105.417,
      "duration": 0.417,
      "velocity": 1,
      "hand": "right"
    },
    {
      "midi": 50,
      "time": 105.833,
      "duration": 0.833,
      "velocity": 1,
      "hand": "left"
    },
    {
      "midi": 55,
      "time": 105.833,
      "duration": 0.833,
      "velocity": 1,
      "hand": "left"
    },
    {
      "midi": 58,
      "time": 105.833,
      "duration": 0.417,
      "velocity": 1,
      "hand": "left"
    },
    {
      "midi": 70,
      "time": 105.833,
      "duration": 0.417,
      "velocity": 1,
      "hand": "right"
    },
    {
      "midi": 74,
      "time": 105.833,
      "duration": 0.417,
      "velocity": 1,
      "hand": "right"
    },
    {
      "midi": 76,
      "time": 105.833,
      "duration": 0.833,
      "velocity": 1,
      "hand": "right"
    },
    {
      "midi": 62,
      "time": 106.25,
      "duration": 0.417,
      "velocity": 1,
      "hand": "right"
    },
    {
      "midi": 64,
      "time": 106.25,
      "duration": 0.417,
      "velocity": 1,
      "hand": "right"
    },
    {
      "midi": 60,
      "time": 106.667,
      "duration": 1.667,
      "velocity": 1,
      "hand": "right"
    },
    {
      "midi": 62,
      "time": 106.667,
      "duration": 1.667,
      "velocity": 1,
      "hand": "right"
    },
    {
      "midi": 66,
      "time": 106.667,
      "duration": 1.667,
      "velocity": 1,
      "hand": "right"
    },
    {
      "midi": 69,
      "time": 106.667,
      "duration": 1.667,
      "velocity": 1,
      "hand": "right"
    },
    {
      "midi": 74,
      "time": 106.667,
      "duration": 0.208,
      "velocity": 1,
      "hand": "right"
    },
    {
      "midi": 76,
      "time": 106.875,
      "duration": 0.208,
      "velocity": 1,
      "hand": "right"
    },
    {
      "midi": 74,
      "time": 107.083,
      "duration": 0.208,
      "velocity": 1,
      "hand": "right"
    },
    {
      "midi": 76,
      "time": 107.292,
      "duration": 0.208,
      "velocity": 1,
      "hand": "right"
    },
    {
      "midi": 78,
      "time": 107.5,
      "duration": 0.417,
      "velocity": 1,
      "hand": "right"
    },
    {
      "midi": 78,
      "time": 107.917,
      "duration": 0.417,
      "velocity": 1,
      "hand": "right"
    },
    {
      "midi": 58,
      "time": 108.333,
      "duration": 0.208,
      "velocity": 1,
      "hand": "left"
    },
    {
      "midi": 62,
      "time": 108.333,
      "duration": 0.208,
      "velocity": 1,
      "hand": "right"
    },
    {
      "midi": 74,
      "time": 108.333,
      "duration": 0.208,
      "velocity": 1,
      "hand": "right"
    },
    {
      "midi": 76,
      "time": 108.333,
      "duration": 0.208,
      "velocity": 1,
      "hand": "right"
    },
    {
      "midi": 78,
      "time": 108.542,
      "duration": 0.208,
      "velocity": 1,
      "hand": "right"
    },
    {
      "midi": 58,
      "time": 108.75,
      "duration": 0.208,
      "velocity": 1,
      "hand": "left"
    },
    {
      "midi": 79,
      "time": 108.75,
      "duration": 0.208,
      "velocity": 1,
      "hand": "right"
    },
    {
      "midi": 57,
      "time": 108.958,
      "duration": 0.208,
      "velocity": 1,
      "hand": "left"
    },
    {
      "midi": 81,
      "time": 108.958,
      "duration": 0.208,
      "velocity": 1,
      "hand": "right"
    },
    {
      "midi": 55,
      "time": 109.167,
      "duration": 0.417,
      "velocity": 1,
      "hand": "left"
    },
    {
      "midi": 82,
      "time": 109.167,
      "duration": 0.417,
      "velocity": 1,
      "hand": "right"
    },
    {
      "midi": 43,
      "time": 110,
      "duration": 0.833,
      "velocity": 1,
      "hand": "left"
    },
    {
      "midi": 51,
      "time": 110,
      "duration": 0.833,
      "velocity": 1,
      "hand": "left"
    },
    {
      "midi": 61,
      "time": 110.208,
      "duration": 0.208,
      "velocity": 1,
      "hand": "right"
    },
    {
      "midi": 63,
      "time": 110.208,
      "duration": 0.208,
      "velocity": 1,
      "hand": "right"
    },
    {
      "midi": 58,
      "time": 110.417,
      "duration": 0.417,
      "velocity": 1,
      "hand": "left"
    },
    {
      "midi": 61,
      "time": 110.625,
      "duration": 0.208,
      "velocity": 1,
      "hand": "right"
    },
    {
      "midi": 63,
      "time": 110.625,
      "duration": 0.208,
      "velocity": 1,
      "hand": "right"
    },
    {
      "midi": 56,
      "time": 110.833,
      "duration": 0.833,
      "velocity": 1,
      "hand": "left"
    },
    {
      "midi": 60,
      "time": 110.833,
      "duration": 0.417,
      "velocity": 1,
      "hand": "right"
    },
    {
      "midi": 51,
      "time": 111.25,
      "duration": 0.417,
      "velocity": 1,
      "hand": "left"
    },
    {
      "midi": 63,
      "time": 111.25,
      "duration": 0.417,
      "velocity": 1,
      "hand": "right"
    },
    {
      "midi": 72,
      "time": 111.25,
      "duration": 0.417,
      "velocity": 1,
      "hand": "right"
    },
    {
      "midi": 45,
      "time": 111.667,
      "duration": 0.833,
      "velocity": 1,
      "hand": "left"
    },
    {
      "midi": 53,
      "time": 111.667,
      "duration": 0.833,
      "velocity": 1,
      "hand": "left"
    },
    {
      "midi": 63,
      "time": 111.875,
      "duration": 0.208,
      "velocity": 1,
      "hand": "right"
    },
    {
      "midi": 65,
      "time": 111.875,
      "duration": 0.208,
      "velocity": 1,
      "hand": "right"
    },
    {
      "midi": 60,
      "time": 112.083,
      "duration": 0.417,
      "velocity": 1,
      "hand": "right"
    },
    {
      "midi": 63,
      "time": 112.292,
      "duration": 0.208,
      "velocity": 1,
      "hand": "right"
    },
    {
      "midi": 65,
      "time": 112.292,
      "duration": 0.208,
      "velocity": 1,
      "hand": "right"
    },
    {
      "midi": 58,
      "time": 112.5,
      "duration": 0.833,
      "velocity": 1,
      "hand": "left"
    },
    {
      "midi": 62,
      "time": 112.5,
      "duration": 0.833,
      "velocity": 1,
      "hand": "right"
    },
    {
      "midi": 46,
      "time": 112.917,
      "duration": 0.417,
      "velocity": 1,
      "hand": "left"
    },
    {
      "midi": 53,
      "time": 112.917,
      "duration": 0.417,
      "velocity": 1,
      "hand": "left"
    },
    {
      "midi": 65,
      "time": 112.917,
      "duration": 0.417,
      "velocity": 1,
      "hand": "right"
    },
    {
      "midi": 74,
      "time": 112.917,
      "duration": 0.417,
      "velocity": 1,
      "hand": "right"
    },
    {
      "midi": 47,
      "time": 113.333,
      "duration": 0.417,
      "velocity": 1,
      "hand": "left"
    },
    {
      "midi": 55,
      "time": 113.333,
      "duration": 0.833,
      "velocity": 1,
      "hand": "left"
    },
    {
      "midi": 62,
      "time": 113.333,
      "duration": 0.833,
      "velocity": 1,
      "hand": "right"
    },
    {
      "midi": 59,
      "time": 113.75,
      "duration": 0.417,
      "velocity": 1,
      "hand": "left"
    },
    {
      "midi": 65,
      "time": 113.75,
      "duration": 0.417,
      "velocity": 1,
      "hand": "right"
    },
    {
      "midi": 67,
      "time": 113.75,
      "duration": 0.417,
      "velocity": 1,
      "hand": "right"
    },
    {
      "midi": 74,
      "time": 113.75,
      "duration": 0.417,
      "velocity": 1,
      "hand": "right"
    },
    {
      "midi": 48,
      "time": 114.167,
      "duration": 0.417,
      "velocity": 1,
      "hand": "left"
    },
    {
      "midi": 55,
      "time": 114.167,
      "duration": 0.833,
      "velocity": 1,
      "hand": "left"
    },
    {
      "midi": 63,
      "time": 114.167,
      "duration": 0.833,
      "velocity": 1,
      "hand": "right"
    },
    {
      "midi": 60,
      "time": 114.583,
      "duration": 0.417,
      "velocity": 1,
      "hand": "right"
    },
    {
      "midi": 67,
      "time": 114.583,
      "duration": 0.417,
      "velocity": 1,
      "hand": "right"
    },
    {
      "midi": 75,
      "time": 114.583,
      "duration": 0.417,
      "velocity": 1,
      "hand": "right"
    },
    {
      "midi": 50,
      "time": 115,
      "duration": 0.417,
      "velocity": 1,
      "hand": "left"
    },
    {
      "midi": 55,
      "time": 115,
      "duration": 0.833,
      "velocity": 1,
      "hand": "left"
    },
    {
      "midi": 65,
      "time": 115,
      "duration": 0.833,
      "velocity": 1,
      "hand": "right"
    },
    {
      "midi": 62,
      "time": 115.417,
      "duration": 0.417,
      "velocity": 1,
      "hand": "right"
    },
    {
      "midi": 71,
      "time": 115.417,
      "duration": 0.417,
      "velocity": 1,
      "hand": "right"
    },
    {
      "midi": 79,
      "time": 115.417,
      "duration": 0.417,
      "velocity": 1,
      "hand": "right"
    },
    {
      "midi": 48,
      "time": 115.833,
      "duration": 0.417,
      "velocity": 1,
      "hand": "left"
    },
    {
      "midi": 55,
      "time": 115.833,
      "duration": 0.833,
      "velocity": 1,
      "hand": "left"
    },
    {
      "midi": 63,
      "time": 115.833,
      "duration": 0.833,
      "velocity": 1,
      "hand": "right"
    },
    {
      "midi": 60,
      "time": 116.25,
      "duration": 0.417,
      "velocity": 1,
      "hand": "right"
    },
    {
      "midi": 67,
      "time": 116.25,
      "duration": 0.417,
      "velocity": 1,
      "hand": "right"
    },
    {
      "midi": 75,
      "time": 116.25,
      "duration": 0.417,
      "velocity": 1,
      "hand": "right"
    },
    {
      "midi": 47,
      "time": 116.667,
      "duration": 0.833,
      "velocity": 1,
      "hand": "left"
    },
    {
      "midi": 55,
      "time": 116.667,
      "duration": 0.833,
      "velocity": 1,
      "hand": "left"
    },
    {
      "midi": 65,
      "time": 116.875,
      "duration": 0.208,
      "velocity": 1,
      "hand": "right"
    },
    {
      "midi": 67,
      "time": 116.875,
      "duration": 0.208,
      "velocity": 1,
      "hand": "right"
    },
    {
      "midi": 62,
      "time": 117.083,
      "duration": 0.417,
      "velocity": 1,
      "hand": "right"
    },
    {
      "midi": 65,
      "time": 117.292,
      "duration": 0.208,
      "velocity": 1,
      "hand": "right"
    },
    {
      "midi": 67,
      "time": 117.292,
      "duration": 0.208,
      "velocity": 1,
      "hand": "right"
    },
    {
      "midi": 60,
      "time": 117.5,
      "duration": 0.833,
      "velocity": 1,
      "hand": "right"
    },
    {
      "midi": 64,
      "time": 117.5,
      "duration": 0.833,
      "velocity": 1,
      "hand": "right"
    },
    {
      "midi": 48,
      "time": 117.917,
      "duration": 0.417,
      "velocity": 1,
      "hand": "left"
    },
    {
      "midi": 55,
      "time": 117.917,
      "duration": 0.417,
      "velocity": 1,
      "hand": "left"
    },
    {
      "midi": 67,
      "time": 117.917,
      "duration": 0.417,
      "velocity": 1,
      "hand": "right"
    },
    {
      "midi": 76,
      "time": 117.917,
      "duration": 0.417,
      "velocity": 1,
      "hand": "right"
    },
    {
      "midi": 49,
      "time": 118.333,
      "duration": 0.833,
      "velocity": 1,
      "hand": "left"
    },
    {
      "midi": 57,
      "time": 118.333,
      "duration": 0.417,
      "velocity": 1,
      "hand": "left"
    },
    {
      "midi": 67,
      "time": 118.542,
      "duration": 0.208,
      "velocity": 1,
      "hand": "right"
    },
    {
      "midi": 69,
      "time": 118.542,
      "duration": 0.208,
      "velocity": 1,
      "hand": "right"
    },
    {
      "midi": 64,
      "time": 118.75,
      "duration": 0.417,
      "velocity": 1,
      "hand": "right"
    },
    {
      "midi": 67,
      "time": 118.958,
      "duration": 0.208,
      "velocity": 1,
      "hand": "right"
    },
    {
      "midi": 69,
      "time": 118.958,
      "duration": 0.208,
      "velocity": 1,
      "hand": "right"
    },
    {
      "midi": 62,
      "time": 119.167,
      "duration": 0.833,
      "velocity": 1,
      "hand": "right"
    },
    {
      "midi": 65,
      "time": 119.167,
      "duration": 0.833,
      "velocity": 1,
      "hand": "right"
    },
    {
      "midi": 50,
      "time": 119.583,
      "duration": 0.417,
      "velocity": 1,
      "hand": "left"
    },
    {
      "midi": 57,
      "time": 119.583,
      "duration": 0.417,
      "velocity": 1,
      "hand": "left"
    },
    {
      "midi": 69,
      "time": 119.583,
      "duration": 0.417,
      "velocity": 1,
      "hand": "right"
    },
    {
      "midi": 77,
      "time": 119.583,
      "duration": 0.417,
      "velocity": 1,
      "hand": "right"
    },
    {
      "midi": 49,
      "time": 120,
      "duration": 0.833,
      "velocity": 1,
      "hand": "left"
    },
    {
      "midi": 57,
      "time": 120,
      "duration": 0.833,
      "velocity": 1,
      "hand": "left"
    },
    {
      "midi": 64,
      "time": 120,
      "duration": 0.833,
      "velocity": 1,
      "hand": "right"
    },
    {
      "midi": 61,
      "time": 120.417,
      "duration": 0.417,
      "velocity": 1,
      "hand": "right"
    },
    {
      "midi": 67,
      "time": 120.417,
      "duration": 0.417,
      "velocity": 1,
      "hand": "right"
    },
    {
      "midi": 69,
      "time": 120.417,
      "duration": 0.417,
      "velocity": 1,
      "hand": "right"
    },
    {
      "midi": 76,
      "time": 120.417,
      "duration": 0.417,
      "velocity": 1,
      "hand": "right"
    },
    {
      "midi": 50,
      "time": 120.833,
      "duration": 0.417,
      "velocity": 1,
      "hand": "left"
    },
    {
      "midi": 57,
      "time": 120.833,
      "duration": 0.833,
      "velocity": 1,
      "hand": "left"
    },
    {
      "midi": 65,
      "time": 120.833,
      "duration": 0.833,
      "velocity": 1,
      "hand": "right"
    },
    {
      "midi": 62,
      "time": 121.25,
      "duration": 0.417,
      "velocity": 1,
      "hand": "right"
    },
    {
      "midi": 69,
      "time": 121.25,
      "duration": 0.417,
      "velocity": 1,
      "hand": "right"
    },
    {
      "midi": 77,
      "time": 121.25,
      "duration": 0.417,
      "velocity": 1,
      "hand": "right"
    },
    {
      "midi": 52,
      "time": 121.667,
      "duration": 0.417,
      "velocity": 1,
      "hand": "left"
    },
    {
      "midi": 57,
      "time": 121.667,
      "duration": 0.833,
      "velocity": 1,
      "hand": "left"
    },
    {
      "midi": 67,
      "time": 121.667,
      "duration": 0.833,
      "velocity": 1,
      "hand": "right"
    },
    {
      "midi": 64,
      "time": 122.083,
      "duration": 0.417,
      "velocity": 1,
      "hand": "right"
    },
    {
      "midi": 73,
      "time": 122.083,
      "duration": 0.417,
      "velocity": 1,
      "hand": "right"
    },
    {
      "midi": 81,
      "time": 122.083,
      "duration": 0.417,
      "velocity": 1,
      "hand": "right"
    },
    {
      "midi": 50,
      "time": 122.5,
      "duration": 0.417,
      "velocity": 1,
      "hand": "left"
    },
    {
      "midi": 57,
      "time": 122.5,
      "duration": 0.833,
      "velocity": 1,
      "hand": "left"
    },
    {
      "midi": 65,
      "time": 122.5,
      "duration": 0.833,
      "velocity": 1,
      "hand": "right"
    },
    {
      "midi": 62,
      "time": 122.917,
      "duration": 0.417,
      "velocity": 1,
      "hand": "right"
    },
    {
      "midi": 69,
      "time": 122.917,
      "duration": 0.417,
      "velocity": 1,
      "hand": "right"
    },
    {
      "midi": 77,
      "time": 122.917,
      "duration": 0.417,
      "velocity": 1,
      "hand": "right"
    },
    {
      "midi": 49,
      "time": 123.333,
      "duration": 0.417,
      "velocity": 1,
      "hand": "left"
    },
    {
      "midi": 57,
      "time": 123.333,
      "duration": 0.833,
      "velocity": 1,
      "hand": "left"
    },
    {
      "midi": 64,
      "time": 123.333,
      "duration": 0.833,
      "velocity": 1,
      "hand": "right"
    },
    {
      "midi": 61,
      "time": 123.75,
      "duration": 0.417,
      "velocity": 1,
      "hand": "right"
    },
    {
      "midi": 67,
      "time": 123.75,
      "duration": 0.417,
      "velocity": 1,
      "hand": "right"
    },
    {
      "midi": 69,
      "time": 123.75,
      "duration": 0.417,
      "velocity": 1,
      "hand": "right"
    },
    {
      "midi": 76,
      "time": 123.75,
      "duration": 0.417,
      "velocity": 1,
      "hand": "right"
    },
    {
      "midi": 50,
      "time": 124.167,
      "duration": 0.417,
      "velocity": 1,
      "hand": "left"
    },
    {
      "midi": 57,
      "time": 124.167,
      "duration": 0.833,
      "velocity": 1,
      "hand": "left"
    },
    {
      "midi": 65,
      "time": 124.167,
      "duration": 0.833,
      "velocity": 1,
      "hand": "right"
    },
    {
      "midi": 62,
      "time": 124.583,
      "duration": 0.417,
      "velocity": 1,
      "hand": "right"
    },
    {
      "midi": 69,
      "time": 124.583,
      "duration": 0.417,
      "velocity": 1,
      "hand": "right"
    },
    {
      "midi": 77,
      "time": 124.583,
      "duration": 0.417,
      "velocity": 1,
      "hand": "right"
    },
    {
      "midi": 51,
      "time": 125,
      "duration": 0.417,
      "velocity": 1,
      "hand": "left"
    },
    {
      "midi": 59,
      "time": 125,
      "duration": 0.833,
      "velocity": 1,
      "hand": "left"
    },
    {
      "midi": 69,
      "time": 125,
      "duration": 0.833,
      "velocity": 1,
      "hand": "right"
    },
    {
      "midi": 63,
      "time": 125.417,
      "duration": 0.417,
      "velocity": 1,
      "hand": "right"
    },
    {
      "midi": 78,
      "time": 125.417,
      "duration": 0.417,
      "velocity": 1,
      "hand": "right"
    },
    {
      "midi": 83,
      "time": 125.417,
      "duration": 0.417,
      "velocity": 1,
      "hand": "right"
    },
    {
      "midi": 52,
      "time": 125.833,
      "duration": 0.417,
      "velocity": 1,
      "hand": "left"
    },
    {
      "midi": 59,
      "time": 125.833,
      "duration": 0.833,
      "velocity": 1,
      "hand": "left"
    },
    {
      "midi": 67,
      "time": 125.833,
      "duration": 0.833,
      "velocity": 1,
      "hand": "right"
    },
    {
      "midi": 64,
      "time": 126.25,
      "duration": 0.417,
      "velocity": 1,
      "hand": "right"
    },
    {
      "midi": 71,
      "time": 126.25,
      "duration": 0.417,
      "velocity": 1,
      "hand": "right"
    },
    {
      "midi": 79,
      "time": 126.25,
      "duration": 0.417,
      "velocity": 1,
      "hand": "right"
    },
    {
      "midi": 51,
      "time": 126.667,
      "duration": 0.417,
      "velocity": 1,
      "hand": "left"
    },
    {
      "midi": 59,
      "time": 126.667,
      "duration": 0.833,
      "velocity": 1,
      "hand": "left"
    },
    {
      "midi": 66,
      "time": 126.667,
      "duration": 0.833,
      "velocity": 1,
      "hand": "right"
    },
    {
      "midi": 63,
      "time": 127.083,
      "duration": 0.417,
      "velocity": 1,
      "hand": "right"
    },
    {
      "midi": 69,
      "time": 127.083,
      "duration": 0.417,
      "velocity": 1,
      "hand": "right"
    },
    {
      "midi": 71,
      "time": 127.083,
      "duration": 0.417,
      "velocity": 1,
      "hand": "right"
    },
    {
      "midi": 78,
      "time": 127.083,
      "duration": 0.417,
      "velocity": 1,
      "hand": "right"
    },
    {
      "midi": 52,
      "time": 127.5,
      "duration": 0.417,
      "velocity": 1,
      "hand": "left"
    },
    {
      "midi": 59,
      "time": 127.5,
      "duration": 0.833,
      "velocity": 1,
      "hand": "left"
    },
    {
      "midi": 67,
      "time": 127.5,
      "duration": 0.833,
      "velocity": 1,
      "hand": "right"
    },
    {
      "midi": 64,
      "time": 127.917,
      "duration": 0.417,
      "velocity": 1,
      "hand": "right"
    },
    {
      "midi": 71,
      "time": 127.917,
      "duration": 0.417,
      "velocity": 1,
      "hand": "right"
    },
    {
      "midi": 79,
      "time": 127.917,
      "duration": 0.417,
      "velocity": 1,
      "hand": "right"
    },
    {
      "midi": 53,
      "time": 128.333,
      "duration": 0.417,
      "velocity": 1,
      "hand": "left"
    },
    {
      "midi": 61,
      "time": 128.333,
      "duration": 0.833,
      "velocity": 1,
      "hand": "right"
    },
    {
      "midi": 71,
      "time": 128.333,
      "duration": 0.833,
      "velocity": 1,
      "hand": "right"
    },
    {
      "midi": 65,
      "time": 128.75,
      "duration": 0.417,
      "velocity": 1,
      "hand": "right"
    },
    {
      "midi": 80,
      "time": 128.75,
      "duration": 0.417,
      "velocity": 1,
      "hand": "right"
    },
    {
      "midi": 85,
      "time": 128.75,
      "duration": 0.417,
      "velocity": 1,
      "hand": "right"
    },
    {
      "midi": 54,
      "time": 129.167,
      "duration": 0.417,
      "velocity": 1,
      "hand": "left"
    },
    {
      "midi": 61,
      "time": 129.167,
      "duration": 0.833,
      "velocity": 1,
      "hand": "right"
    },
    {
      "midi": 69,
      "time": 129.167,
      "duration": 0.833,
      "velocity": 1,
      "hand": "right"
    },
    {
      "midi": 66,
      "time": 129.583,
      "duration": 0.417,
      "velocity": 1,
      "hand": "right"
    },
    {
      "midi": 73,
      "time": 129.583,
      "duration": 0.417,
      "velocity": 1,
      "hand": "right"
    },
    {
      "midi": 81,
      "time": 129.583,
      "duration": 0.417,
      "velocity": 1,
      "hand": "right"
    },
    {
      "midi": 54,
      "time": 130,
      "duration": 0.417,
      "velocity": 1,
      "hand": "left"
    },
    {
      "midi": 62,
      "time": 130,
      "duration": 0.833,
      "velocity": 1,
      "hand": "right"
    },
    {
      "midi": 72,
      "time": 130,
      "duration": 0.833,
      "velocity": 1,
      "hand": "right"
    },
    {
      "midi": 66,
      "time": 130.417,
      "duration": 0.417,
      "velocity": 1,
      "hand": "right"
    },
    {
      "midi": 81,
      "time": 130.417,
      "duration": 0.417,
      "velocity": 1,
      "hand": "right"
    },
    {
      "midi": 86,
      "time": 130.417,
      "duration": 0.417,
      "velocity": 1,
      "hand": "right"
    },
    {
      "midi": 55,
      "time": 130.833,
      "duration": 0.417,
      "velocity": 1,
      "hand": "left"
    },
    {
      "midi": 62,
      "time": 130.833,
      "duration": 0.833,
      "velocity": 1,
      "hand": "right"
    },
    {
      "midi": 71,
      "time": 130.833,
      "duration": 0.833,
      "velocity": 1,
      "hand": "right"
    },
    {
      "midi": 67,
      "time": 131.25,
      "duration": 0.417,
      "velocity": 1,
      "hand": "right"
    },
    {
      "midi": 74,
      "time": 131.25,
      "duration": 0.417,
      "velocity": 1,
      "hand": "right"
    },
    {
      "midi": 83,
      "time": 131.25,
      "duration": 0.417,
      "velocity": 1,
      "hand": "right"
    },
    {
      "midi": 54,
      "time": 131.667,
      "duration": 0.417,
      "velocity": 1,
      "hand": "left"
    },
    {
      "midi": 62,
      "time": 131.667,
      "duration": 0.833,
      "velocity": 1,
      "hand": "right"
    },
    {
      "midi": 72,
      "time": 131.667,
      "duration": 0.833,
      "velocity": 1,
      "hand": "right"
    },
    {
      "midi": 66,
      "time": 132.083,
      "duration": 0.417,
      "velocity": 1,
      "hand": "right"
    },
    {
      "midi": 81,
      "time": 132.083,
      "duration": 0.417,
      "velocity": 1,
      "hand": "right"
    },
    {
      "midi": 86,
      "time": 132.083,
      "duration": 0.417,
      "velocity": 1,
      "hand": "right"
    },
    {
      "midi": 55,
      "time": 132.5,
      "duration": 0.417,
      "velocity": 1,
      "hand": "left"
    },
    {
      "midi": 62,
      "time": 132.5,
      "duration": 0.833,
      "velocity": 1,
      "hand": "right"
    },
    {
      "midi": 71,
      "time": 132.5,
      "duration": 0.833,
      "velocity": 1,
      "hand": "right"
    },
    {
      "midi": 67,
      "time": 132.917,
      "duration": 0.417,
      "velocity": 1,
      "hand": "right"
    },
    {
      "midi": 74,
      "time": 132.917,
      "duration": 0.417,
      "velocity": 1,
      "hand": "right"
    },
    {
      "midi": 83,
      "time": 132.917,
      "duration": 0.417,
      "velocity": 1,
      "hand": "right"
    },
    {
      "midi": 67,
      "time": 133.333,
      "duration": 0.417,
      "velocity": 1,
      "hand": "right"
    },
    {
      "midi": 70,
      "time": 133.333,
      "duration": 0.417,
      "velocity": 1,
      "hand": "right"
    },
    {
      "midi": 74,
      "time": 133.333,
      "duration": 0.417,
      "velocity": 1,
      "hand": "right"
    },
    {
      "midi": 88,
      "time": 133.333,
      "duration": 0.208,
      "velocity": 1,
      "hand": "right"
    },
    {
      "midi": 86,
      "time": 133.542,
      "duration": 0.208,
      "velocity": 1,
      "hand": "right"
    },
    {
      "midi": 82,
      "time": 133.75,
      "duration": 0.208,
      "velocity": 1,
      "hand": "right"
    },
    {
      "midi": 81,
      "time": 133.958,
      "duration": 0.208,
      "velocity": 1,
      "hand": "right"
    },
    {
      "midi": 76,
      "time": 134.167,
      "duration": 0.208,
      "velocity": 1,
      "hand": "right"
    },
    {
      "midi": 79,
      "time": 134.167,
      "duration": 0.417,
      "velocity": 1,
      "hand": "right"
    },
    {
      "midi": 74,
      "time": 134.375,
      "duration": 0.208,
      "velocity": 1,
      "hand": "right"
    },
    {
      "midi": 70,
      "time": 134.583,
      "duration": 0.208,
      "velocity": 1,
      "hand": "right"
    },
    {
      "midi": 69,
      "time": 134.792,
      "duration": 0.208,
      "velocity": 1,
      "hand": "right"
    },
    {
      "midi": 64,
      "time": 135,
      "duration": 0.208,
      "velocity": 1,
      "hand": "right"
    },
    {
      "midi": 67,
      "time": 135,
      "duration": 0.417,
      "velocity": 1,
      "hand": "right"
    },
    {
      "midi": 62,
      "time": 135.208,
      "duration": 0.208,
      "velocity": 1,
      "hand": "right"
    },
    {
      "midi": 58,
      "time": 135.417,
      "duration": 0.208,
      "velocity": 1,
      "hand": "left"
    },
    {
      "midi": 57,
      "time": 135.625,
      "duration": 0.208,
      "velocity": 1,
      "hand": "left"
    },
    {
      "midi": 52,
      "time": 135.833,
      "duration": 0.208,
      "velocity": 1,
      "hand": "left"
    },
    {
      "midi": 55,
      "time": 135.833,
      "duration": 0.417,
      "velocity": 1,
      "hand": "left"
    },
    {
      "midi": 50,
      "time": 136.042,
      "duration": 0.208,
      "velocity": 1,
      "hand": "left"
    },
    {
      "midi": 46,
      "time": 136.25,
      "duration": 0.208,
      "velocity": 1,
      "hand": "left"
    },
    {
      "midi": 45,
      "time": 136.458,
      "duration": 0.208,
      "velocity": 1,
      "hand": "left"
    },
    {
      "midi": 43,
      "time": 136.667,
      "duration": 0.417,
      "velocity": 1,
      "hand": "left"
    },
    {
      "midi": 43,
      "time": 137.083,
      "duration": 0.417,
      "velocity": 1,
      "hand": "left"
    },
    {
      "midi": 44,
      "time": 137.5,
      "duration": 0.208,
      "velocity": 1,
      "hand": "left"
    },
    {
      "midi": 62,
      "time": 137.5,
      "duration": 1.25,
      "velocity": 1,
      "hand": "right"
    },
    {
      "midi": 64,
      "time": 137.5,
      "duration": 1.25,
      "velocity": 1,
      "hand": "right"
    },
    {
      "midi": 45,
      "time": 137.708,
      "duration": 0.208,
      "velocity": 1,
      "hand": "left"
    },
    {
      "midi": 46,
      "time": 137.917,
      "duration": 0.208,
      "velocity": 1,
      "hand": "left"
    },
    {
      "midi": 44,
      "time": 138.125,
      "duration": 0.208,
      "velocity": 1,
      "hand": "left"
    },
    {
      "midi": 45,
      "time": 138.333,
      "duration": 0.417,
      "velocity": 1,
      "hand": "left"
    },
    {
      "midi": 45,
      "time": 138.75,
      "duration": 0.417,
      "velocity": 1,
      "hand": "left"
    },
    {
      "midi": 55,
      "time": 138.75,
      "duration": 0.417,
      "velocity": 1,
      "hand": "left"
    },
    {
      "midi": 61,
      "time": 138.75,
      "duration": 0.417,
      "velocity": 1,
      "hand": "right"
    },
    {
      "midi": 64,
      "time": 138.75,
      "duration": 0.417,
      "velocity": 1,
      "hand": "right"
    },
    {
      "midi": 69,
      "time": 138.75,
      "duration": 0.417,
      "velocity": 1,
      "hand": "right"
    },
    {
      "midi": 50,
      "time": 139.167,
      "duration": 0.417,
      "velocity": 1,
      "hand": "left"
    },
    {
      "midi": 54,
      "time": 139.167,
      "duration": 0.417,
      "velocity": 1,
      "hand": "left"
    },
    {
      "midi": 62,
      "time": 139.167,
      "duration": 0.417,
      "velocity": 1,
      "hand": "right"
    },
    {
      "midi": 69,
      "time": 139.167,
      "duration": 0.417,
      "velocity": 1,
      "hand": "right"
    },
    {
      "midi": 74,
      "time": 139.167,
      "duration": 0.417,
      "velocity": 1,
      "hand": "right"
    },
    {
      "midi": 46,
      "time": 140,
      "duration": 1.667,
      "velocity": 1,
      "hand": "left"
    },
    {
      "midi": 54,
      "time": 140,
      "duration": 0.833,
      "velocity": 1,
      "hand": "left"
    },
    {
      "midi": 58,
      "time": 140,
      "duration": 1.667,
      "velocity": 1,
      "hand": "left"
    },
    {
      "midi": 74,
      "time": 140,
      "duration": 1.667,
      "velocity": 1,
      "hand": "right"
    },
    {
      "midi": 78,
      "time": 140,
      "duration": 0.833,
      "velocity": 1,
      "hand": "right"
    },
    {
      "midi": 86,
      "time": 140,
      "duration": 1.667,
      "velocity": 1,
      "hand": "right"
    },
    {
      "midi": 55,
      "time": 140.833,
      "duration": 0.833,
      "velocity": 1,
      "hand": "left"
    },
    {
      "midi": 79,
      "time": 140.833,
      "duration": 0.833,
      "velocity": 1,
      "hand": "right"
    },
    {
      "midi": 48,
      "time": 141.667,
      "duration": 1.667,
      "velocity": 1,
      "hand": "left"
    },
    {
      "midi": 56,
      "time": 141.667,
      "duration": 0.833,
      "velocity": 1,
      "hand": "left"
    },
    {
      "midi": 60,
      "time": 141.667,
      "duration": 1.667,
      "velocity": 1,
      "hand": "right"
    },
    {
      "midi": 72,
      "time": 141.667,
      "duration": 1.667,
      "velocity": 1,
      "hand": "right"
    },
    {
      "midi": 76,
      "time": 141.667,
      "duration": 0.833,
      "velocity": 1,
      "hand": "right"
    },
    {
      "midi": 84,
      "time": 141.667,
      "duration": 1.667,
      "velocity": 1,
      "hand": "right"
    },
    {
      "midi": 57,
      "time": 142.5,
      "duration": 0.833,
      "velocity": 1,
      "hand": "left"
    },
    {
      "midi": 77,
      "time": 142.5,
      "duration": 0.833,
      "velocity": 1,
      "hand": "right"
    },
    {
      "midi": 49,
      "time": 143.333,
      "duration": 0.833,
      "velocity": 1,
      "hand": "left"
    },
    {
      "midi": 57,
      "time": 143.333,
      "duration": 0.833,
      "velocity": 1,
      "hand": "left"
    },
    {
      "midi": 61,
      "time": 143.333,
      "duration": 0.833,
      "velocity": 1,
      "hand": "right"
    },
    {
      "midi": 69,
      "time": 143.333,
      "duration": 0.625,
      "velocity": 1,
      "hand": "right"
    },
    {
      "midi": 77,
      "time": 143.333,
      "duration": 0.833,
      "velocity": 1,
      "hand": "right"
    },
    {
      "midi": 81,
      "time": 143.333,
      "duration": 0.625,
      "velocity": 1,
      "hand": "right"
    },
    {
      "midi": 70,
      "time": 143.958,
      "duration": 0.208,
      "velocity": 1,
      "hand": "right"
    },
    {
      "midi": 82,
      "time": 143.958,
      "duration": 0.208,
      "velocity": 1,
      "hand": "right"
    },
    {
      "midi": 50,
      "time": 144.167,
      "duration": 0.833,
      "velocity": 1,
      "hand": "left"
    },
    {
      "midi": 58,
      "time": 144.167,
      "duration": 0.833,
      "velocity": 1,
      "hand": "left"
    },
    {
      "midi": 62,
      "time": 144.167,
      "duration": 0.833,
      "velocity": 1,
      "hand": "right"
    },
    {
      "midi": 67,
      "time": 144.167,
      "duration": 0.833,
      "velocity": 1,
      "hand": "right"
    },
    {
      "midi": 77,
      "time": 144.167,
      "duration": 0.833,
      "velocity": 1,
      "hand": "right"
    },
    {
      "midi": 79,
      "time": 144.167,
      "duration": 0.833,
      "velocity": 1,
      "hand": "right"
    },
    {
      "midi": 48,
      "time": 145,
      "duration": 0.833,
      "velocity": 1,
      "hand": "left"
    },
    {
      "midi": 55,
      "time": 145,
      "duration": 0.833,
      "velocity": 1,
      "hand": "left"
    },
    {
      "midi": 58,
      "time": 145,
      "duration": 0.833,
      "velocity": 1,
      "hand": "left"
    },
    {
      "midi": 64,
      "time": 145,
      "duration": 0.833,
      "velocity": 1,
      "hand": "right"
    },
    {
      "midi": 69,
      "time": 145,
      "duration": 0.833,
      "velocity": 1,
      "hand": "right"
    },
    {
      "midi": 41,
      "time": 145.833,
      "duration": 0.417,
      "velocity": 1,
      "hand": "left"
    },
    {
      "midi": 48,
      "time": 145.833,
      "duration": 0.417,
      "velocity": 1,
      "hand": "left"
    },
    {
      "midi": 57,
      "time": 145.833,
      "duration": 0.417,
      "velocity": 1,
      "hand": "left"
    },
    {
      "midi": 65,
      "time": 145.833,
      "duration": 0.417,
      "velocity": 1,
      "hand": "right"
    },
    {
      "midi": 29,
      "time": 146.667,
      "duration": 0.417,
      "velocity": 1,
      "hand": "left"
    },
    {
      "midi": 41,
      "time": 146.667,
      "duration": 0.417,
      "velocity": 1,
      "hand": "left"
    },
    {
      "midi": 57,
      "time": 147.083,
      "duration": 0.417,
      "velocity": 1,
      "hand": "left"
    },
    {
      "midi": 60,
      "time": 147.083,
      "duration": 0.417,
      "velocity": 1,
      "hand": "right"
    },
    {
      "midi": 41,
      "time": 147.5,
      "duration": 1.667,
      "velocity": 1,
      "hand": "left"
    },
    {
      "midi": 48,
      "time": 147.5,
      "duration": 1.667,
      "velocity": 1,
      "hand": "left"
    },
    {
      "midi": 55,
      "time": 147.5,
      "duration": 1.667,
      "velocity": 1,
      "hand": "left"
    },
    {
      "midi": 58,
      "time": 147.5,
      "duration": 1.667,
      "velocity": 1,
      "hand": "left"
    },
    {
      "midi": 65,
      "time": 147.5,
      "duration": 0.417,
      "velocity": 1,
      "hand": "right"
    },
    {
      "midi": 64,
      "time": 147.917,
      "duration": 0.417,
      "velocity": 1,
      "hand": "right"
    },
    {
      "midi": 62,
      "time": 148.333,
      "duration": 0.417,
      "velocity": 1,
      "hand": "right"
    },
    {
      "midi": 64,
      "time": 148.75,
      "duration": 0.417,
      "velocity": 1,
      "hand": "right"
    },
    {
      "midi": 41,
      "time": 149.167,
      "duration": 0.833,
      "velocity": 1,
      "hand": "left"
    },
    {
      "midi": 48,
      "time": 149.167,
      "duration": 0.833,
      "velocity": 1,
      "hand": "left"
    },
    {
      "midi": 53,
      "time": 149.167,
      "duration": 0.833,
      "velocity": 1,
      "hand": "left"
    },
    {
      "midi": 57,
      "time": 149.167,
      "duration": 0.833,
      "velocity": 1,
      "hand": "left"
    },
    {
      "midi": 65,
      "time": 149.167,
      "duration": 0.833,
      "velocity": 1,
      "hand": "right"
    },
    {
      "midi": 65,
      "time": 150,
      "duration": 0.417,
      "velocity": 1,
      "hand": "right"
    },
    {
      "midi": 69,
      "time": 150,
      "duration": 0.417,
      "velocity": 1,
      "hand": "right"
    },
    {
      "midi": 72,
      "time": 150,
      "duration": 0.417,
      "velocity": 1,
      "hand": "right"
    },
    {
      "midi": 48,
      "time": 150.417,
      "duration": 0.417,
      "velocity": 1,
      "hand": "left"
    },
    {
      "midi": 53,
      "time": 150.833,
      "duration": 0.417,
      "velocity": 1,
      "hand": "left"
    },
    {
      "midi": 58,
      "time": 150.833,
      "duration": 1.667,
      "velocity": 1,
      "hand": "left"
    },
    {
      "midi": 60,
      "time": 150.833,
      "duration": 1.667,
      "velocity": 1,
      "hand": "right"
    },
    {
      "midi": 52,
      "time": 151.25,
      "duration": 0.417,
      "velocity": 1,
      "hand": "left"
    },
    {
      "midi": 50,
      "time": 151.667,
      "duration": 0.417,
      "velocity": 1,
      "hand": "left"
    },
    {
      "midi": 52,
      "time": 152.083,
      "duration": 0.417,
      "velocity": 1,
      "hand": "left"
    },
    {
      "midi": 53,
      "time": 152.5,
      "duration": 0.417,
      "velocity": 1,
      "hand": "left"
    },
    {
      "midi": 57,
      "time": 152.5,
      "duration": 0.417,
      "velocity": 1,
      "hand": "left"
    },
    {
      "midi": 60,
      "time": 152.5,
      "duration": 0.417,
      "velocity": 1,
      "hand": "right"
    },
    {
      "midi": 57,
      "time": 153.333,
      "duration": 0.417,
      "velocity": 1,
      "hand": "left"
    },
    {
      "midi": 50,
      "time": 153.75,
      "duration": 0.417,
      "velocity": 1,
      "hand": "left"
    },
    {
      "midi": 62,
      "time": 153.75,
      "duration": 0.417,
      "velocity": 1,
      "hand": "right"
    },
    {
      "midi": 41,
      "time": 154.167,
      "duration": 0.417,
      "velocity": 1,
      "hand": "left"
    },
    {
      "midi": 69,
      "time": 154.167,
      "duration": 0.417,
      "velocity": 1,
      "hand": "right"
    },
    {
      "midi": 73,
      "time": 154.167,
      "duration": 0.417,
      "velocity": 1,
      "hand": "right"
    },
    {
      "midi": 74,
      "time": 154.583,
      "duration": 0.417,
      "velocity": 1,
      "hand": "right"
    },
    {
      "midi": 58,
      "time": 155,
      "duration": 0.417,
      "velocity": 1,
      "hand": "left"
    },
    {
      "midi": 50,
      "time": 155.417,
      "duration": 0.417,
      "velocity": 1,
      "hand": "left"
    },
    {
      "midi": 62,
      "time": 155.417,
      "duration": 0.417,
      "velocity": 1,
      "hand": "right"
    },
    {
      "midi": 43,
      "time": 155.833,
      "duration": 0.417,
      "velocity": 1,
      "hand": "left"
    },
    {
      "midi": 70,
      "time": 155.833,
      "duration": 0.417,
      "velocity": 1,
      "hand": "right"
    },
    {
      "midi": 73,
      "time": 155.833,
      "duration": 0.417,
      "velocity": 1,
      "hand": "right"
    },
    {
      "midi": 74,
      "time": 156.25,
      "duration": 0.417,
      "velocity": 1,
      "hand": "right"
    },
    {
      "midi": 59,
      "time": 156.667,
      "duration": 0.417,
      "velocity": 1,
      "hand": "left"
    },
    {
      "midi": 52,
      "time": 157.083,
      "duration": 0.417,
      "velocity": 1,
      "hand": "left"
    },
    {
      "midi": 64,
      "time": 157.083,
      "duration": 0.417,
      "velocity": 1,
      "hand": "right"
    },
    {
      "midi": 44,
      "time": 157.5,
      "duration": 0.417,
      "velocity": 1,
      "hand": "left"
    },
    {
      "midi": 71,
      "time": 157.5,
      "duration": 0.417,
      "velocity": 1,
      "hand": "right"
    },
    {
      "midi": 75,
      "time": 157.5,
      "duration": 0.417,
      "velocity": 1,
      "hand": "right"
    },
    {
      "midi": 76,
      "time": 157.917,
      "duration": 0.417,
      "velocity": 1,
      "hand": "right"
    },
    {
      "midi": 61,
      "time": 158.333,
      "duration": 0.417,
      "velocity": 1,
      "hand": "right"
    },
    {
      "midi": 52,
      "time": 158.75,
      "duration": 0.417,
      "velocity": 1,
      "hand": "left"
    },
    {
      "midi": 64,
      "time": 158.75,
      "duration": 0.417,
      "velocity": 1,
      "hand": "right"
    },
    {
      "midi": 45,
      "time": 159.167,
      "duration": 0.417,
      "velocity": 1,
      "hand": "left"
    },
    {
      "midi": 69,
      "time": 159.167,
      "duration": 0.417,
      "velocity": 1,
      "hand": "right"
    },
    {
      "midi": 73,
      "time": 159.167,
      "duration": 0.417,
      "velocity": 1,
      "hand": "right"
    },
    {
      "midi": 75,
      "time": 159.167,
      "duration": 0.417,
      "velocity": 1,
      "hand": "right"
    },
    {
      "midi": 76,
      "time": 159.583,
      "duration": 0.417,
      "velocity": 1,
      "hand": "right"
    },
    {
      "midi": 45,
      "time": 160,
      "duration": 0.833,
      "velocity": 1,
      "hand": "left"
    },
    {
      "midi": 53,
      "time": 160,
      "duration": 1.667,
      "velocity": 1,
      "hand": "left"
    },
    {
      "midi": 57,
      "time": 160,
      "duration": 0.833,
      "velocity": 1,
      "hand": "left"
    },
    {
      "midi": 77,
      "time": 160,
      "duration": 1.667,
      "velocity": 1,
      "hand": "right"
    },
    {
      "midi": 85,
      "time": 160,
      "duration": 0.833,
      "velocity": 1,
      "hand": "right"
    },
    {
      "midi": 89,
      "time": 160,
      "duration": 1.667,
      "velocity": 1,
      "hand": "right"
    },
    {
      "midi": 46,
      "time": 160.833,
      "duration": 0.833,
      "velocity": 1,
      "hand": "left"
    },
    {
      "midi": 58,
      "time": 160.833,
      "duration": 0.833,
      "velocity": 1,
      "hand": "left"
    },
    {
      "midi": 86,
      "time": 160.833,
      "duration": 0.833,
      "velocity": 1,
      "hand": "right"
    },
    {
      "midi": 47,
      "time": 161.667,
      "duration": 0.833,
      "velocity": 1,
      "hand": "left"
    },
    {
      "midi": 55,
      "time": 161.667,
      "duration": 1.667,
      "velocity": 1,
      "hand": "left"
    },
    {
      "midi": 59,
      "time": 161.667,
      "duration": 0.833,
      "velocity": 1,
      "hand": "left"
    },
    {
      "midi": 67,
      "time": 161.667,
      "duration": 1.667,
      "velocity": 1,
      "hand": "right"
    },
    {
      "midi": 75,
      "time": 161.667,
      "duration": 0.833,
      "velocity": 1,
      "hand": "right"
    },
    {
      "midi": 79,
      "time": 161.667,
      "duration": 1.667,
      "velocity": 1,
      "hand": "right"
    },
    {
      "midi": 48,
      "time": 162.5,
      "duration": 0.833,
      "velocity": 1,
      "hand": "left"
    },
    {
      "midi": 60,
      "time": 162.5,
      "duration": 0.833,
      "velocity": 1,
      "hand": "right"
    },
    {
      "midi": 76,
      "time": 162.5,
      "duration": 0.833,
      "velocity": 1,
      "hand": "right"
    },
    {
      "midi": 52,
      "time": 163.333,
      "duration": 0.833,
      "velocity": 1,
      "hand": "left"
    },
    {
      "midi": 60,
      "time": 163.333,
      "duration": 1.667,
      "velocity": 1,
      "hand": "right"
    },
    {
      "midi": 64,
      "time": 163.333,
      "duration": 0.833,
      "velocity": 1,
      "hand": "right"
    },
    {
      "midi": 72,
      "time": 163.333,
      "duration": 0.625,
      "velocity": 1,
      "hand": "right"
    },
    {
      "midi": 80,
      "time": 163.333,
      "duration": 0.833,
      "velocity": 1,
      "hand": "right"
    },
    {
      "midi": 84,
      "time": 163.333,
      "duration": 0.625,
      "velocity": 1,
      "hand": "right"
    },
    {
      "midi": 71,
      "time": 163.958,
      "duration": 0.208,
      "velocity": 1,
      "hand": "right"
    },
    {
      "midi": 83,
      "time": 163.958,
      "duration": 0.208,
      "velocity": 1,
      "hand": "right"
    },
    {
      "midi": 53,
      "time": 164.167,
      "duration": 0.833,
      "velocity": 1,
      "hand": "left"
    },
    {
      "midi": 65,
      "time": 164.167,
      "duration": 0.833,
      "velocity": 1,
      "hand": "right"
    },
    {
      "midi": 69,
      "time": 164.167,
      "duration": 0.833,
      "velocity": 1,
      "hand": "right"
    },
    {
      "midi": 81,
      "time": 164.167,
      "duration": 0.833,
      "velocity": 1,
      "hand": "right"
    },
    {
      "midi": 57,
      "time": 165,
      "duration": 0.833,
      "velocity": 1,
      "hand": "left"
    },
    {
      "midi": 65,
      "time": 165,
      "duration": 0.625,
      "velocity": 1,
      "hand": "right"
    },
    {
      "midi": 73,
      "time": 165,
      "duration": 0.833,
      "velocity": 1,
      "hand": "right"
    },
    {
      "midi": 77,
      "time": 165,
      "duration": 0.625,
      "velocity": 1,
      "hand": "right"
    },
    {
      "midi": 64,
      "time": 165.625,
      "duration": 0.208,
      "velocity": 1,
      "hand": "right"
    },
    {
      "midi": 76,
      "time": 165.625,
      "duration": 0.208,
      "velocity": 1,
      "hand": "right"
    },
    {
      "midi": 58,
      "time": 165.833,
      "duration": 0.417,
      "velocity": 1,
      "hand": "left"
    },
    {
      "midi": 62,
      "time": 165.833,
      "duration": 0.417,
      "velocity": 1,
      "hand": "right"
    },
    {
      "midi": 74,
      "time": 165.833,
      "duration": 0.417,
      "velocity": 1,
      "hand": "right"
    },
    {
      "midi": 58,
      "time": 166.667,
      "duration": 0.833,
      "velocity": 1,
      "hand": "left"
    },
    {
      "midi": 62,
      "time": 167.083,
      "duration": 0.417,
      "velocity": 1,
      "hand": "right"
    },
    {
      "midi": 57,
      "time": 167.5,
      "duration": 1.667,
      "velocity": 1,
      "hand": "left"
    },
    {
      "midi": 60,
      "time": 167.5,
      "duration": 1.667,
      "velocity": 1,
      "hand": "right"
    },
    {
      "midi": 67,
      "time": 167.5,
      "duration": 0.417,
      "velocity": 1,
      "hand": "right"
    },
    {
      "midi": 66,
      "time": 167.917,
      "duration": 0.417,
      "velocity": 1,
      "hand": "right"
    },
    {
      "midi": 50,
      "time": 168.333,
      "duration": 1.25,
      "velocity": 1,
      "hand": "left"
    },
    {
      "midi": 64,
      "time": 168.333,
      "duration": 0.417,
      "velocity": 1,
      "hand": "right"
    },
    {
      "midi": 66,
      "time": 168.75,
      "duration": 0.417,
      "velocity": 1,
      "hand": "right"
    },
    {
      "midi": 43,
      "time": 169.167,
      "duration": 0.417,
      "velocity": 1,
      "hand": "left"
    },
    {
      "midi": 55,
      "time": 169.167,
      "duration": 0.417,
      "velocity": 1,
      "hand": "left"
    },
    {
      "midi": 58,
      "time": 169.167,
      "duration": 0.417,
      "velocity": 1,
      "hand": "left"
    },
    {
      "midi": 62,
      "time": 169.167,
      "duration": 0.417,
      "velocity": 1,
      "hand": "right"
    },
    {
      "midi": 67,
      "time": 169.167,
      "duration": 0.417,
      "velocity": 1,
      "hand": "right"
    },
    {
      "midi": 70,
      "time": 170,
      "duration": 0.833,
      "velocity": 1,
      "hand": "right"
    },
    {
      "midi": 74,
      "time": 170.417,
      "duration": 0.417,
      "velocity": 1,
      "hand": "right"
    },
    {
      "midi": 69,
      "time": 170.833,
      "duration": 1.667,
      "velocity": 1,
      "hand": "right"
    },
    {
      "midi": 72,
      "time": 170.833,
      "duration": 1.667,
      "velocity": 1,
      "hand": "right"
    },
    {
      "midi": 79,
      "time": 170.833,
      "duration": 0.417,
      "velocity": 1,
      "hand": "right"
    },
    {
      "midi": 78,
      "time": 171.25,
      "duration": 0.417,
      "velocity": 1,
      "hand": "right"
    },
    {
      "midi": 62,
      "time": 171.667,
      "duration": 1.25,
      "velocity": 1,
      "hand": "right"
    },
    {
      "midi": 76,
      "time": 171.667,
      "duration": 0.417,
      "velocity": 1,
      "hand": "right"
    },
    {
      "midi": 78,
      "time": 172.083,
      "duration": 0.417,
      "velocity": 1,
      "hand": "right"
    },
    {
      "midi": 55,
      "time": 172.5,
      "duration": 0.417,
      "velocity": 1,
      "hand": "left"
    },
    {
      "midi": 67,
      "time": 172.5,
      "duration": 0.417,
      "velocity": 1,
      "hand": "right"
    },
    {
      "midi": 70,
      "time": 172.5,
      "duration": 0.417,
      "velocity": 1,
      "hand": "right"
    },
    {
      "midi": 74,
      "time": 172.5,
      "duration": 0.417,
      "velocity": 1,
      "hand": "right"
    },
    {
      "midi": 79,
      "time": 172.5,
      "duration": 0.417,
      "velocity": 1,
      "hand": "right"
    },
    {
      "midi": 47,
      "time": 173.333,
      "duration": 0.833,
      "velocity": 1,
      "hand": "left"
    },
    {
      "midi": 55,
      "time": 173.333,
      "duration": 1.667,
      "velocity": 1,
      "hand": "left"
    },
    {
      "midi": 59,
      "time": 173.333,
      "duration": 0.833,
      "velocity": 1,
      "hand": "left"
    },
    {
      "midi": 79,
      "time": 173.333,
      "duration": 1.667,
      "velocity": 1,
      "hand": "right"
    },
    {
      "midi": 87,
      "time": 173.333,
      "duration": 0.833,
      "velocity": 1,
      "hand": "right"
    },
    {
      "midi": 91,
      "time": 173.333,
      "duration": 1.667,
      "velocity": 1,
      "hand": "right"
    },
    {
      "midi": 48,
      "time": 174.167,
      "duration": 0.833,
      "velocity": 1,
      "hand": "left"
    },
    {
      "midi": 60,
      "time": 174.167,
      "duration": 0.833,
      "velocity": 1,
      "hand": "right"
    },
    {
      "midi": 88,
      "time": 174.167,
      "duration": 0.833,
      "velocity": 1,
      "hand": "right"
    },
    {
      "midi": 49,
      "time": 175,
      "duration": 0.833,
      "velocity": 1,
      "hand": "left"
    },
    {
      "midi": 57,
      "time": 175,
      "duration": 1.667,
      "velocity": 1,
      "hand": "left"
    },
    {
      "midi": 61,
      "time": 175,
      "duration": 0.833,
      "velocity": 1,
      "hand": "right"
    },
    {
      "midi": 69,
      "time": 175,
      "duration": 1.667,
      "velocity": 1,
      "hand": "right"
    },
    {
      "midi": 77,
      "time": 175,
      "duration": 0.833,
      "velocity": 1,
      "hand": "right"
    },
    {
      "midi": 81,
      "time": 175,
      "duration": 1.667,
      "velocity": 1,
      "hand": "right"
    },
    {
      "midi": 50,
      "time": 175.833,
      "duration": 0.833,
      "velocity": 1,
      "hand": "left"
    },
    {
      "midi": 62,
      "time": 175.833,
      "duration": 0.833,
      "velocity": 1,
      "hand": "right"
    },
    {
      "midi": 78,
      "time": 175.833,
      "duration": 0.833,
      "velocity": 1,
      "hand": "right"
    },
    {
      "midi": 54,
      "time": 176.667,
      "duration": 0.833,
      "velocity": 1,
      "hand": "left"
    },
    {
      "midi": 62,
      "time": 176.667,
      "duration": 1.667,
      "velocity": 1,
      "hand": "right"
    },
    {
      "midi": 66,
      "time": 176.667,
      "duration": 0.833,
      "velocity": 1,
      "hand": "right"
    },
    {
      "midi": 74,
      "time": 176.667,
      "duration": 0.625,
      "velocity": 1,
      "hand": "right"
    },
    {
      "midi": 82,
      "time": 176.667,
      "duration": 0.833,
      "velocity": 1,
      "hand": "right"
    },
    {
      "midi": 86,
      "time": 176.667,
      "duration": 0.625,
      "velocity": 1,
      "hand": "right"
    },
    {
      "midi": 73,
      "time": 177.292,
      "duration": 0.208,
      "velocity": 1,
      "hand": "right"
    },
    {
      "midi": 85,
      "time": 177.292,
      "duration": 0.208,
      "velocity": 1,
      "hand": "right"
    },
    {
      "midi": 55,
      "time": 177.5,
      "duration": 0.833,
      "velocity": 1,
      "hand": "left"
    },
    {
      "midi": 67,
      "time": 177.5,
      "duration": 0.833,
      "velocity": 1,
      "hand": "right"
    },
    {
      "midi": 71,
      "time": 177.5,
      "duration": 0.833,
      "velocity": 1,
      "hand": "right"
    },
    {
      "midi": 83,
      "time": 177.5,
      "duration": 0.833,
      "velocity": 1,
      "hand": "right"
    },
    {
      "midi": 59,
      "time": 178.333,
      "duration": 0.833,
      "velocity": 1,
      "hand": "left"
    },
    {
      "midi": 67,
      "time": 178.333,
      "duration": 0.625,
      "velocity": 1,
      "hand": "right"
    },
    {
      "midi": 75,
      "time": 178.333,
      "duration": 0.833,
      "velocity": 1,
      "hand": "right"
    },
    {
      "midi": 79,
      "time": 178.333,
      "duration": 0.625,
      "velocity": 1,
      "hand": "right"
    },
    {
      "midi": 66,
      "time": 178.958,
      "duration": 0.208,
      "velocity": 1,
      "hand": "right"
    },
    {
      "midi": 78,
      "time": 178.958,
      "duration": 0.208,
      "velocity": 1,
      "hand": "right"
    },
    {
      "midi": 60,
      "time": 179.167,
      "duration": 0.417,
      "velocity": 1,
      "hand": "right"
    },
    {
      "midi": 64,
      "time": 179.167,
      "duration": 0.417,
      "velocity": 1,
      "hand": "right"
    },
    {
      "midi": 76,
      "time": 179.167,
      "duration": 0.417,
      "velocity": 1,
      "hand": "right"
    },
    {
      "midi": 60,
      "time": 180,
      "duration": 0.833,
      "velocity": 1,
      "hand": "right"
    },
    {
      "midi": 62,
      "time": 180.417,
      "duration": 0.417,
      "velocity": 1,
      "hand": "right"
    },
    {
      "midi": 59,
      "time": 180.833,
      "duration": 1.667,
      "velocity": 1,
      "hand": "left"
    },
    {
      "midi": 62,
      "time": 180.833,
      "duration": 1.667,
      "velocity": 1,
      "hand": "right"
    },
    {
      "midi": 67,
      "time": 180.833,
      "duration": 0.417,
      "velocity": 1,
      "hand": "right"
    },
    {
      "midi": 66,
      "time": 181.25,
      "duration": 0.417,
      "velocity": 1,
      "hand": "right"
    },
    {
      "midi": 52,
      "time": 181.667,
      "duration": 1.25,
      "velocity": 1,
      "hand": "left"
    },
    {
      "midi": 64,
      "time": 181.667,
      "duration": 0.417,
      "velocity": 1,
      "hand": "right"
    },
    {
      "midi": 66,
      "time": 182.083,
      "duration": 0.417,
      "velocity": 1,
      "hand": "right"
    },
    {
      "midi": 45,
      "time": 182.5,
      "duration": 0.417,
      "velocity": 1,
      "hand": "left"
    },
    {
      "midi": 57,
      "time": 182.5,
      "duration": 0.417,
      "velocity": 1,
      "hand": "left"
    },
    {
      "midi": 60,
      "time": 182.5,
      "duration": 0.417,
      "velocity": 1,
      "hand": "right"
    },
    {
      "midi": 64,
      "time": 182.5,
      "duration": 0.417,
      "velocity": 1,
      "hand": "right"
    },
    {
      "midi": 67,
      "time": 182.5,
      "duration": 0.417,
      "velocity": 1,
      "hand": "right"
    },
    {
      "midi": 72,
      "time": 183.333,
      "duration": 0.833,
      "velocity": 1,
      "hand": "right"
    },
    {
      "midi": 76,
      "time": 183.75,
      "duration": 0.417,
      "velocity": 1,
      "hand": "right"
    },
    {
      "midi": 71,
      "time": 184.167,
      "duration": 1.667,
      "velocity": 1,
      "hand": "right"
    },
    {
      "midi": 74,
      "time": 184.167,
      "duration": 1.667,
      "velocity": 1,
      "hand": "right"
    },
    {
      "midi": 81,
      "time": 184.167,
      "duration": 0.417,
      "velocity": 1,
      "hand": "right"
    },
    {
      "midi": 80,
      "time": 184.583,
      "duration": 0.417,
      "velocity": 1,
      "hand": "right"
    },
    {
      "midi": 64,
      "time": 185,
      "duration": 1.25,
      "velocity": 1,
      "hand": "right"
    },
    {
      "midi": 78,
      "time": 185,
      "duration": 0.417,
      "velocity": 1,
      "hand": "right"
    },
    {
      "midi": 80,
      "time": 185.417,
      "duration": 0.417,
      "velocity": 1,
      "hand": "right"
    },
    {
      "midi": 57,
      "time": 185.833,
      "duration": 0.417,
      "velocity": 1,
      "hand": "left"
    },
    {
      "midi": 69,
      "time": 185.833,
      "duration": 0.417,
      "velocity": 1,
      "hand": "right"
    },
    {
      "midi": 72,
      "time": 185.833,
      "duration": 0.417,
      "velocity": 1,
      "hand": "right"
    },
    {
      "midi": 76,
      "time": 185.833,
      "duration": 0.417,
      "velocity": 1,
      "hand": "right"
    },
    {
      "midi": 81,
      "time": 185.833,
      "duration": 0.417,
      "velocity": 1,
      "hand": "right"
    },
    {
      "midi": 72,
      "time": 186.667,
      "duration": 0.833,
      "velocity": 1,
      "hand": "right"
    },
    {
      "midi": 76,
      "time": 186.875,
      "duration": 0.208,
      "velocity": 1,
      "hand": "right"
    },
    {
      "midi": 81,
      "time": 187.083,
      "duration": 0.208,
      "velocity": 1,
      "hand": "right"
    },
    {
      "midi": 88,
      "time": 187.292,
      "duration": 0.208,
      "velocity": 1,
      "hand": "right"
    },
    {
      "midi": 71,
      "time": 187.5,
      "duration": 0.833,
      "velocity": 1,
      "hand": "right"
    },
    {
      "midi": 74,
      "time": 187.5,
      "duration": 0.833,
      "velocity": 1,
      "hand": "right"
    },
    {
      "midi": 76,
      "time": 187.5,
      "duration": 0.833,
      "velocity": 1,
      "hand": "right"
    },
    {
      "midi": 80,
      "time": 187.5,
      "duration": 0.833,
      "velocity": 1,
      "hand": "right"
    },
    {
      "midi": 57,
      "time": 187.917,
      "duration": 0.417,
      "velocity": 1,
      "hand": "left"
    },
    {
      "midi": 64,
      "time": 187.917,
      "duration": 0.417,
      "velocity": 1,
      "hand": "right"
    },
    {
      "midi": 69,
      "time": 188.333,
      "duration": 0.833,
      "velocity": 1,
      "hand": "right"
    },
    {
      "midi": 72,
      "time": 188.542,
      "duration": 0.208,
      "velocity": 1,
      "hand": "right"
    },
    {
      "midi": 76,
      "time": 188.75,
      "duration": 0.208,
      "velocity": 1,
      "hand": "right"
    },
    {
      "midi": 81,
      "time": 188.958,
      "duration": 0.208,
      "velocity": 1,
      "hand": "right"
    },
    {
      "midi": 68,
      "time": 189.167,
      "duration": 0.833,
      "velocity": 1,
      "hand": "right"
    },
    {
      "midi": 71,
      "time": 189.167,
      "duration": 0.833,
      "velocity": 1,
      "hand": "right"
    },
    {
      "midi": 74,
      "time": 189.167,
      "duration": 0.833,
      "velocity": 1,
      "hand": "right"
    },
    {
      "midi": 76,
      "time": 189.167,
      "duration": 0.833,
      "velocity": 1,
      "hand": "right"
    },
    {
      "midi": 57,
      "time": 189.583,
      "duration": 0.417,
      "velocity": 1,
      "hand": "left"
    },
    {
      "midi": 64,
      "time": 189.583,
      "duration": 0.417,
      "velocity": 1,
      "hand": "right"
    },
    {
      "midi": 72,
      "time": 190,
      "duration": 0.833,
      "velocity": 1,
      "hand": "right"
    },
    {
      "midi": 76,
      "time": 190.208,
      "duration": 0.208,
      "velocity": 1,
      "hand": "right"
    },
    {
      "midi": 81,
      "time": 190.417,
      "duration": 0.208,
      "velocity": 1,
      "hand": "right"
    },
    {
      "midi": 88,
      "time": 190.625,
      "duration": 0.208,
      "velocity": 1,
      "hand": "right"
    },
    {
      "midi": 71,
      "time": 190.833,
      "duration": 0.833,
      "velocity": 1,
      "hand": "right"
    },
    {
      "midi": 74,
      "time": 190.833,
      "duration": 0.833,
      "velocity": 1,
      "hand": "right"
    },
    {
      "midi": 76,
      "time": 190.833,
      "duration": 0.833,
      "velocity": 1,
      "hand": "right"
    },
    {
      "midi": 80,
      "time": 190.833,
      "duration": 0.833,
      "velocity": 1,
      "hand": "right"
    },
    {
      "midi": 57,
      "time": 191.25,
      "duration": 0.417,
      "velocity": 1,
      "hand": "left"
    },
    {
      "midi": 64,
      "time": 191.25,
      "duration": 0.417,
      "velocity": 1,
      "hand": "right"
    },
    {
      "midi": 69,
      "time": 191.667,
      "duration": 0.833,
      "velocity": 1,
      "hand": "right"
    },
    {
      "midi": 72,
      "time": 191.875,
      "duration": 0.208,
      "velocity": 1,
      "hand": "right"
    },
    {
      "midi": 76,
      "time": 192.083,
      "duration": 0.208,
      "velocity": 1,
      "hand": "right"
    },
    {
      "midi": 81,
      "time": 192.292,
      "duration": 0.208,
      "velocity": 1,
      "hand": "right"
    },
    {
      "midi": 68,
      "time": 192.5,
      "duration": 0.833,
      "velocity": 1,
      "hand": "right"
    },
    {
      "midi": 71,
      "time": 192.5,
      "duration": 0.833,
      "velocity": 1,
      "hand": "right"
    },
    {
      "midi": 74,
      "time": 192.5,
      "duration": 0.833,
      "velocity": 1,
      "hand": "right"
    },
    {
      "midi": 76,
      "time": 192.5,
      "duration": 0.833,
      "velocity": 1,
      "hand": "right"
    },
    {
      "midi": 57,
      "time": 192.917,
      "duration": 0.417,
      "velocity": 1,
      "hand": "left"
    },
    {
      "midi": 64,
      "time": 192.917,
      "duration": 0.417,
      "velocity": 1,
      "hand": "right"
    },
    {
      "midi": 57,
      "time": 193.333,
      "duration": 0.417,
      "velocity": 1,
      "hand": "left"
    },
    {
      "midi": 81,
      "time": 193.333,
      "duration": 0.208,
      "velocity": 1,
      "hand": "right"
    },
    {
      "midi": 88,
      "time": 193.542,
      "duration": 0.208,
      "velocity": 1,
      "hand": "right"
    },
    {
      "midi": 73,
      "time": 193.75,
      "duration": 0.417,
      "velocity": 1,
      "hand": "right"
    },
    {
      "midi": 90,
      "time": 193.75,
      "duration": 0.208,
      "velocity": 1,
      "hand": "right"
    },
    {
      "midi": 88,
      "time": 193.958,
      "duration": 0.208,
      "velocity": 1,
      "hand": "right"
    },
    {
      "midi": 74,
      "time": 194.167,
      "duration": 0.417,
      "velocity": 1,
      "hand": "right"
    },
    {
      "midi": 80,
      "time": 194.167,
      "duration": 0.208,
      "velocity": 1,
      "hand": "right"
    },
    {
      "midi": 88,
      "time": 194.375,
      "duration": 0.208,
      "velocity": 1,
      "hand": "right"
    },
    {
      "midi": 64,
      "time": 194.583,
      "duration": 0.417,
      "velocity": 1,
      "hand": "right"
    },
    {
      "midi": 90,
      "time": 194.583,
      "duration": 0.208,
      "velocity": 1,
      "hand": "right"
    },
    {
      "midi": 88,
      "time": 194.792,
      "duration": 0.208,
      "velocity": 1,
      "hand": "right"
    },
    {
      "midi": 57,
      "time": 195,
      "duration": 0.417,
      "velocity": 1,
      "hand": "left"
    },
    {
      "midi": 83,
      "time": 195,
      "duration": 0.208,
      "velocity": 1,
      "hand": "right"
    },
    {
      "midi": 88,
      "time": 195.208,
      "duration": 0.208,
      "velocity": 1,
      "hand": "right"
    },
    {
      "midi": 68,
      "time": 195.417,
      "duration": 0.417,
      "velocity": 1,
      "hand": "right"
    },
    {
      "midi": 90,
      "time": 195.417,
      "duration": 0.208,
      "velocity": 1,
      "hand": "right"
    },
    {
      "midi": 88,
      "time": 195.625,
      "duration": 0.208,
      "velocity": 1,
      "hand": "right"
    },
    {
      "midi": 69,
      "time": 195.833,
      "duration": 0.417,
      "velocity": 1,
      "hand": "right"
    },
    {
      "midi": 85,
      "time": 195.833,
      "duration": 0.208,
      "velocity": 1,
      "hand": "right"
    },
    {
      "midi": 88,
      "time": 196.042,
      "duration": 0.208,
      "velocity": 1,
      "hand": "right"
    },
    {
      "midi": 64,
      "time": 196.25,
      "duration": 0.417,
      "velocity": 1,
      "hand": "right"
    },
    {
      "midi": 90,
      "time": 196.25,
      "duration": 0.208,
      "velocity": 1,
      "hand": "right"
    },
    {
      "midi": 88,
      "time": 196.458,
      "duration": 0.208,
      "velocity": 1,
      "hand": "right"
    },
    {
      "midi": 57,
      "time": 196.667,
      "duration": 0.417,
      "velocity": 1,
      "hand": "left"
    },
    {
      "midi": 69,
      "time": 196.667,
      "duration": 0.208,
      "velocity": 1,
      "hand": "right"
    },
    {
      "midi": 76,
      "time": 196.875,
      "duration": 0.208,
      "velocity": 1,
      "hand": "right"
    },
    {
      "midi": 61,
      "time": 197.083,
      "duration": 0.417,
      "velocity": 1,
      "hand": "right"
    },
    {
      "midi": 78,
      "time": 197.083,
      "duration": 0.208,
      "velocity": 1,
      "hand": "right"
    },
    {
      "midi": 76,
      "time": 197.292,
      "duration": 0.208,
      "velocity": 1,
      "hand": "right"
    },
    {
      "midi": 62,
      "time": 197.5,
      "duration": 0.417,
      "velocity": 1,
      "hand": "right"
    },
    {
      "midi": 68,
      "time": 197.5,
      "duration": 0.208,
      "velocity": 1,
      "hand": "right"
    },
    {
      "midi": 76,
      "time": 197.708,
      "duration": 0.208,
      "velocity": 1,
      "hand": "right"
    },
    {
      "midi": 52,
      "time": 197.917,
      "duration": 0.417,
      "velocity": 1,
      "hand": "left"
    },
    {
      "midi": 78,
      "time": 197.917,
      "duration": 0.208,
      "velocity": 1,
      "hand": "right"
    },
    {
      "midi": 76,
      "time": 198.125,
      "duration": 0.208,
      "velocity": 1,
      "hand": "right"
    },
    {
      "midi": 45,
      "time": 198.333,
      "duration": 0.417,
      "velocity": 1,
      "hand": "left"
    },
    {
      "midi": 71,
      "time": 198.333,
      "duration": 0.208,
      "velocity": 1,
      "hand": "right"
    },
    {
      "midi": 76,
      "time": 198.542,
      "duration": 0.208,
      "velocity": 1,
      "hand": "right"
    },
    {
      "midi": 56,
      "time": 198.75,
      "duration": 0.417,
      "velocity": 1,
      "hand": "left"
    },
    {
      "midi": 78,
      "time": 198.75,
      "duration": 0.208,
      "velocity": 1,
      "hand": "right"
    },
    {
      "midi": 76,
      "time": 198.958,
      "duration": 0.208,
      "velocity": 1,
      "hand": "right"
    },
    {
      "midi": 57,
      "time": 199.167,
      "duration": 0.417,
      "velocity": 1,
      "hand": "left"
    },
    {
      "midi": 73,
      "time": 199.167,
      "duration": 0.208,
      "velocity": 1,
      "hand": "right"
    },
    {
      "midi": 76,
      "time": 199.375,
      "duration": 0.208,
      "velocity": 1,
      "hand": "right"
    },
    {
      "midi": 61,
      "time": 199.583,
      "duration": 0.417,
      "velocity": 1,
      "hand": "right"
    },
    {
      "midi": 78,
      "time": 199.583,
      "duration": 0.208,
      "velocity": 1,
      "hand": "right"
    },
    {
      "midi": 76,
      "time": 199.792,
      "duration": 0.208,
      "velocity": 1,
      "hand": "right"
    },
    {
      "midi": 66,
      "time": 200,
      "duration": 0.833,
      "velocity": 1,
      "hand": "right"
    },
    {
      "midi": 69,
      "time": 200,
      "duration": 0.208,
      "velocity": 1,
      "hand": "right"
    },
    {
      "midi": 73,
      "time": 200.208,
      "duration": 0.208,
      "velocity": 1,
      "hand": "right"
    },
    {
      "midi": 74,
      "time": 200.417,
      "duration": 0.208,
      "velocity": 1,
      "hand": "right"
    },
    {
      "midi": 73,
      "time": 200.625,
      "duration": 0.208,
      "velocity": 1,
      "hand": "right"
    },
    {
      "midi": 65,
      "time": 200.833,
      "duration": 0.417,
      "velocity": 1,
      "hand": "right"
    },
    {
      "midi": 69,
      "time": 201.042,
      "duration": 0.208,
      "velocity": 1,
      "hand": "right"
    },
    {
      "midi": 64,
      "time": 201.25,
      "duration": 0.417,
      "velocity": 1,
      "hand": "right"
    },
    {
      "midi": 73,
      "time": 201.25,
      "duration": 0.208,
      "velocity": 1,
      "hand": "right"
    },
    {
      "midi": 69,
      "time": 201.458,
      "duration": 0.208,
      "velocity": 1,
      "hand": "right"
    },
    {
      "midi": 62,
      "time": 201.667,
      "duration": 0.417,
      "velocity": 1,
      "hand": "right"
    },
    {
      "midi": 64,
      "time": 201.875,
      "duration": 0.208,
      "velocity": 1,
      "hand": "right"
    },
    {
      "midi": 61,
      "time": 202.083,
      "duration": 0.417,
      "velocity": 1,
      "hand": "right"
    },
    {
      "midi": 69,
      "time": 202.083,
      "duration": 0.208,
      "velocity": 1,
      "hand": "right"
    },
    {
      "midi": 64,
      "time": 202.292,
      "duration": 0.208,
      "velocity": 1,
      "hand": "right"
    },
    {
      "midi": 45,
      "time": 202.5,
      "duration": 0.417,
      "velocity": 1,
      "hand": "left"
    },
    {
      "midi": 61,
      "time": 202.5,
      "duration": 0.208,
      "velocity": 1,
      "hand": "right"
    },
    {
      "midi": 64,
      "time": 202.708,
      "duration": 0.208,
      "velocity": 1,
      "hand": "right"
    },
    {
      "midi": 49,
      "time": 202.917,
      "duration": 0.417,
      "velocity": 1,
      "hand": "left"
    },
    {
      "midi": 66,
      "time": 202.917,
      "duration": 0.208,
      "velocity": 1,
      "hand": "right"
    },
    {
      "midi": 64,
      "time": 203.125,
      "duration": 0.208,
      "velocity": 1,
      "hand": "right"
    },
    {
      "midi": 54,
      "time": 203.333,
      "duration": 0.833,
      "velocity": 1,
      "hand": "left"
    },
    {
      "midi": 57,
      "time": 203.333,
      "duration": 0.208,
      "velocity": 1,
      "hand": "left"
    },
    {
      "midi": 61,
      "time": 203.542,
      "duration": 0.208,
      "velocity": 1,
      "hand": "right"
    },
    {
      "midi": 62,
      "time": 203.75,
      "duration": 0.208,
      "velocity": 1,
      "hand": "right"
    },
    {
      "midi": 61,
      "time": 203.958,
      "duration": 0.208,
      "velocity": 1,
      "hand": "right"
    },
    {
      "midi": 53,
      "time": 204.167,
      "duration": 0.417,
      "velocity": 1,
      "hand": "left"
    },
    {
      "midi": 57,
      "time": 204.375,
      "duration": 0.208,
      "velocity": 1,
      "hand": "left"
    },
    {
      "midi": 52,
      "time": 204.583,
      "duration": 0.417,
      "velocity": 1,
      "hand": "left"
    },
    {
      "midi": 61,
      "time": 204.583,
      "duration": 0.208,
      "velocity": 1,
      "hand": "right"
    },
    {
      "midi": 57,
      "time": 204.792,
      "duration": 0.208,
      "velocity": 1,
      "hand": "left"
    },
    {
      "midi": 50,
      "time": 205,
      "duration": 0.417,
      "velocity": 1,
      "hand": "left"
    },
    {
      "midi": 52,
      "time": 205.208,
      "duration": 0.208,
      "velocity": 1,
      "hand": "left"
    },
    {
      "midi": 49,
      "time": 205.417,
      "duration": 0.417,
      "velocity": 1,
      "hand": "left"
    },
    {
      "midi": 57,
      "time": 205.417,
      "duration": 0.208,
      "velocity": 1,
      "hand": "left"
    },
    {
      "midi": 52,
      "time": 205.625,
      "duration": 0.208,
      "velocity": 1,
      "hand": "left"
    },
    {
      "midi": 47,
      "time": 205.833,
      "duration": 0.417,
      "velocity": 1,
      "hand": "left"
    },
    {
      "midi": 49,
      "time": 206.042,
      "duration": 0.208,
      "velocity": 1,
      "hand": "left"
    },
    {
      "midi": 45,
      "time": 206.25,
      "duration": 0.417,
      "velocity": 1,
      "hand": "left"
    },
    {
      "midi": 52,
      "time": 206.25,
      "duration": 0.208,
      "velocity": 1,
      "hand": "left"
    },
    {
      "midi": 49,
      "time": 206.458,
      "duration": 0.208,
      "velocity": 1,
      "hand": "left"
    },
    {
      "midi": 44,
      "time": 206.667,
      "duration": 0.417,
      "velocity": 1,
      "hand": "left"
    },
    {
      "midi": 49,
      "time": 206.875,
      "duration": 0.208,
      "velocity": 1,
      "hand": "left"
    },
    {
      "midi": 45,
      "time": 207.083,
      "duration": 0.417,
      "velocity": 1,
      "hand": "left"
    },
    {
      "midi": 52,
      "time": 207.083,
      "duration": 0.208,
      "velocity": 1,
      "hand": "left"
    },
    {
      "midi": 49,
      "time": 207.292,
      "duration": 0.208,
      "velocity": 1,
      "hand": "left"
    },
    {
      "midi": 47,
      "time": 207.5,
      "duration": 0.417,
      "velocity": 1,
      "hand": "left"
    },
    {
      "midi": 49,
      "time": 207.708,
      "duration": 0.208,
      "velocity": 1,
      "hand": "left"
    },
    {
      "midi": 45,
      "time": 207.917,
      "duration": 0.417,
      "velocity": 1,
      "hand": "left"
    },
    {
      "midi": 52,
      "time": 207.917,
      "duration": 0.208,
      "velocity": 1,
      "hand": "left"
    },
    {
      "midi": 49,
      "time": 208.125,
      "duration": 0.208,
      "velocity": 1,
      "hand": "left"
    },
    {
      "midi": 44,
      "time": 208.333,
      "duration": 0.417,
      "velocity": 1,
      "hand": "left"
    },
    {
      "midi": 49,
      "time": 208.542,
      "duration": 0.208,
      "velocity": 1,
      "hand": "left"
    },
    {
      "midi": 45,
      "time": 208.75,
      "duration": 0.417,
      "velocity": 1,
      "hand": "left"
    },
    {
      "midi": 52,
      "time": 208.75,
      "duration": 0.208,
      "velocity": 1,
      "hand": "left"
    },
    {
      "midi": 49,
      "time": 208.958,
      "duration": 0.208,
      "velocity": 1,
      "hand": "left"
    },
    {
      "midi": 47,
      "time": 209.167,
      "duration": 0.417,
      "velocity": 1,
      "hand": "left"
    },
    {
      "midi": 49,
      "time": 209.375,
      "duration": 0.208,
      "velocity": 1,
      "hand": "left"
    },
    {
      "midi": 45,
      "time": 209.583,
      "duration": 0.417,
      "velocity": 1,
      "hand": "left"
    },
    {
      "midi": 52,
      "time": 209.583,
      "duration": 0.208,
      "velocity": 1,
      "hand": "left"
    },
    {
      "midi": 49,
      "time": 209.792,
      "duration": 0.208,
      "velocity": 1,
      "hand": "left"
    },
    {
      "midi": 44,
      "time": 210,
      "duration": 0.208,
      "velocity": 1,
      "hand": "left"
    },
    {
      "midi": 45,
      "time": 210.208,
      "duration": 0.208,
      "velocity": 1,
      "hand": "left"
    },
    {
      "midi": 48,
      "time": 210.417,
      "duration": 0.208,
      "velocity": 1,
      "hand": "left"
    },
    {
      "midi": 49,
      "time": 210.625,
      "duration": 0.208,
      "velocity": 1,
      "hand": "left"
    },
    {
      "midi": 51,
      "time": 210.833,
      "duration": 0.208,
      "velocity": 1,
      "hand": "left"
    },
    {
      "midi": 52,
      "time": 211.042,
      "duration": 0.208,
      "velocity": 1,
      "hand": "left"
    },
    {
      "midi": 56,
      "time": 211.25,
      "duration": 0.208,
      "velocity": 1,
      "hand": "left"
    },
    {
      "midi": 57,
      "time": 211.458,
      "duration": 0.208,
      "velocity": 1,
      "hand": "left"
    },
    {
      "midi": 56,
      "time": 211.667,
      "duration": 0.208,
      "velocity": 1,
      "hand": "left"
    },
    {
      "midi": 57,
      "time": 211.875,
      "duration": 0.208,
      "velocity": 1,
      "hand": "left"
    },
    {
      "midi": 60,
      "time": 212.083,
      "duration": 0.208,
      "velocity": 1,
      "hand": "right"
    },
    {
      "midi": 61,
      "time": 212.292,
      "duration": 0.208,
      "velocity": 1,
      "hand": "right"
    },
    {
      "midi": 63,
      "time": 212.5,
      "duration": 0.208,
      "velocity": 1,
      "hand": "right"
    },
    {
      "midi": 64,
      "time": 212.708,
      "duration": 0.208,
      "velocity": 1,
      "hand": "right"
    },
    {
      "midi": 68,
      "time": 212.917,
      "duration": 0.208,
      "velocity": 1,
      "hand": "right"
    },
    {
      "midi": 69,
      "time": 213.125,
      "duration": 0.208,
      "velocity": 1,
      "hand": "right"
    },
    {
      "midi": 68,
      "time": 213.333,
      "duration": 0.208,
      "velocity": 1,
      "hand": "right"
    },
    {
      "midi": 69,
      "time": 213.542,
      "duration": 0.208,
      "velocity": 1,
      "hand": "right"
    },
    {
      "midi": 72,
      "time": 213.75,
      "duration": 0.208,
      "velocity": 1,
      "hand": "right"
    },
    {
      "midi": 73,
      "time": 213.958,
      "duration": 0.208,
      "velocity": 1,
      "hand": "right"
    },
    {
      "midi": 75,
      "time": 214.167,
      "duration": 0.208,
      "velocity": 1,
      "hand": "right"
    },
    {
      "midi": 76,
      "time": 214.375,
      "duration": 0.208,
      "velocity": 1,
      "hand": "right"
    },
    {
      "midi": 80,
      "time": 214.583,
      "duration": 0.208,
      "velocity": 1,
      "hand": "right"
    },
    {
      "midi": 81,
      "time": 214.792,
      "duration": 0.208,
      "velocity": 1,
      "hand": "right"
    },
    {
      "midi": 80,
      "time": 215,
      "duration": 0.208,
      "velocity": 1,
      "hand": "right"
    },
    {
      "midi": 81,
      "time": 215.208,
      "duration": 0.208,
      "velocity": 1,
      "hand": "right"
    },
    {
      "midi": 84,
      "time": 215.417,
      "duration": 0.208,
      "velocity": 1,
      "hand": "right"
    },
    {
      "midi": 85,
      "time": 215.625,
      "duration": 0.208,
      "velocity": 1,
      "hand": "right"
    },
    {
      "midi": 87,
      "time": 215.833,
      "duration": 0.208,
      "velocity": 1,
      "hand": "right"
    },
    {
      "midi": 88,
      "time": 216.042,
      "duration": 0.208,
      "velocity": 1,
      "hand": "right"
    },
    {
      "midi": 92,
      "time": 216.25,
      "duration": 0.208,
      "velocity": 1,
      "hand": "right"
    },
    {
      "midi": 93,
      "time": 216.458,
      "duration": 0.208,
      "velocity": 1,
      "hand": "right"
    },
    {
      "midi": 50,
      "time": 216.667,
      "duration": 0.833,
      "velocity": 1,
      "hand": "left"
    },
    {
      "midi": 54,
      "time": 216.667,
      "duration": 0.833,
      "velocity": 1,
      "hand": "left"
    },
    {
      "midi": 57,
      "time": 216.667,
      "duration": 0.417,
      "velocity": 1,
      "hand": "left"
    },
    {
      "midi": 74,
      "time": 216.667,
      "duration": 0.417,
      "velocity": 1,
      "hand": "right"
    },
    {
      "midi": 78,
      "time": 216.667,
      "duration": 0.417,
      "velocity": 1,
      "hand": "right"
    },
    {
      "midi": 81,
      "time": 216.667,
      "duration": 0.833,
      "velocity": 1,
      "hand": "right"
    },
    {
      "midi": 62,
      "time": 217.083,
      "duration": 0.417,
      "velocity": 1,
      "hand": "right"
    },
    {
      "midi": 69,
      "time": 217.083,
      "duration": 0.417,
      "velocity": 1,
      "hand": "right"
    },
    {
      "midi": 50,
      "time": 217.5,
      "duration": 0.833,
      "velocity": 1,
      "hand": "left"
    },
    {
      "midi": 55,
      "time": 217.5,
      "duration": 0.833,
      "velocity": 1,
      "hand": "left"
    },
    {
      "midi": 58,
      "time": 217.5,
      "duration": 0.417,
      "velocity": 1,
      "hand": "left"
    },
    {
      "midi": 70,
      "time": 217.5,
      "duration": 0.417,
      "velocity": 1,
      "hand": "right"
    },
    {
      "midi": 74,
      "time": 217.5,
      "duration": 0.417,
      "velocity": 1,
      "hand": "right"
    },
    {
      "midi": 76,
      "time": 217.5,
      "duration": 0.833,
      "velocity": 1,
      "hand": "right"
    },
    {
      "midi": 62,
      "time": 217.917,
      "duration": 0.417,
      "velocity": 1,
      "hand": "right"
    },
    {
      "midi": 64,
      "time": 217.917,
      "duration": 0.417,
      "velocity": 1,
      "hand": "right"
    },
    {
      "midi": 50,
      "time": 218.333,
      "duration": 0.833,
      "velocity": 1,
      "hand": "left"
    },
    {
      "midi": 54,
      "time": 218.333,
      "duration": 0.833,
      "velocity": 1,
      "hand": "left"
    },
    {
      "midi": 57,
      "time": 218.333,
      "duration": 0.417,
      "velocity": 1,
      "hand": "left"
    },
    {
      "midi": 74,
      "time": 218.333,
      "duration": 0.417,
      "velocity": 1,
      "hand": "right"
    },
    {
      "midi": 78,
      "time": 218.333,
      "duration": 0.417,
      "velocity": 1,
      "hand": "right"
    },
    {
      "midi": 81,
      "time": 218.333,
      "duration": 0.833,
      "velocity": 1,
      "hand": "right"
    },
    {
      "midi": 62,
      "time": 218.75,
      "duration": 0.417,
      "velocity": 1,
      "hand": "right"
    },
    {
      "midi": 69,
      "time": 218.75,
      "duration": 0.417,
      "velocity": 1,
      "hand": "right"
    },
    {
      "midi": 50,
      "time": 219.167,
      "duration": 0.833,
      "velocity": 1,
      "hand": "left"
    },
    {
      "midi": 55,
      "time": 219.167,
      "duration": 0.833,
      "velocity": 1,
      "hand": "left"
    },
    {
      "midi": 58,
      "time": 219.167,
      "duration": 0.417,
      "velocity": 1,
      "hand": "left"
    },
    {
      "midi": 70,
      "time": 219.167,
      "duration": 0.417,
      "velocity": 1,
      "hand": "right"
    },
    {
      "midi": 74,
      "time": 219.167,
      "duration": 0.417,
      "velocity": 1,
      "hand": "right"
    },
    {
      "midi": 76,
      "time": 219.167,
      "duration": 0.833,
      "velocity": 1,
      "hand": "right"
    },
    {
      "midi": 62,
      "time": 219.583,
      "duration": 0.417,
      "velocity": 1,
      "hand": "right"
    },
    {
      "midi": 64,
      "time": 219.583,
      "duration": 0.417,
      "velocity": 1,
      "hand": "right"
    },
    {
      "midi": 60,
      "time": 220,
      "duration": 1.667,
      "velocity": 1,
      "hand": "right"
    },
    {
      "midi": 62,
      "time": 220,
      "duration": 1.667,
      "velocity": 1,
      "hand": "right"
    },
    {
      "midi": 66,
      "time": 220,
      "duration": 1.667,
      "velocity": 1,
      "hand": "right"
    },
    {
      "midi": 69,
      "time": 220,
      "duration": 1.667,
      "velocity": 1,
      "hand": "right"
    },
    {
      "midi": 74,
      "time": 220,
      "duration": 0.208,
      "velocity": 1,
      "hand": "right"
    },
    {
      "midi": 76,
      "time": 220.208,
      "duration": 0.208,
      "velocity": 1,
      "hand": "right"
    },
    {
      "midi": 74,
      "time": 220.417,
      "duration": 0.208,
      "velocity": 1,
      "hand": "right"
    },
    {
      "midi": 76,
      "time": 220.625,
      "duration": 0.208,
      "velocity": 1,
      "hand": "right"
    },
    {
      "midi": 78,
      "time": 220.833,
      "duration": 0.417,
      "velocity": 1,
      "hand": "right"
    },
    {
      "midi": 78,
      "time": 221.25,
      "duration": 0.417,
      "velocity": 1,
      "hand": "right"
    },
    {
      "midi": 58,
      "time": 221.667,
      "duration": 0.208,
      "velocity": 1,
      "hand": "left"
    },
    {
      "midi": 67,
      "time": 221.667,
      "duration": 0.833,
      "velocity": 1,
      "hand": "right"
    },
    {
      "midi": 74,
      "time": 221.667,
      "duration": 0.833,
      "velocity": 1,
      "hand": "right"
    },
    {
      "midi": 76,
      "time": 221.667,
      "duration": 0.417,
      "velocity": 1,
      "hand": "right"
    },
    {
      "midi": 57,
      "time": 221.875,
      "duration": 0.208,
      "velocity": 1,
      "hand": "left"
    },
    {
      "midi": 55,
      "time": 222.083,
      "duration": 0.208,
      "velocity": 1,
      "hand": "left"
    },
    {
      "midi": 79,
      "time": 222.083,
      "duration": 0.417,
      "velocity": 1,
      "hand": "right"
    },
    {
      "midi": 54,
      "time": 222.292,
      "duration": 0.208,
      "velocity": 1,
      "hand": "left"
    },
    {
      "midi": 52,
      "time": 222.5,
      "duration": 0.417,
      "velocity": 1,
      "hand": "left"
    },
    {
      "midi": 73,
      "time": 222.5,
      "duration": 0.417,
      "velocity": 1,
      "hand": "right"
    },
    {
      "midi": 76,
      "time": 222.5,
      "duration": 0.833,
      "velocity": 1,
      "hand": "right"
    },
    {
      "midi": 57,
      "time": 222.917,
      "duration": 0.417,
      "velocity": 1,
      "hand": "left"
    },
    {
      "midi": 69,
      "time": 222.917,
      "duration": 0.417,
      "velocity": 1,
      "hand": "right"
    },
    {
      "midi": 50,
      "time": 223.333,
      "duration": 0.833,
      "velocity": 1,
      "hand": "left"
    },
    {
      "midi": 54,
      "time": 223.333,
      "duration": 0.833,
      "velocity": 1,
      "hand": "left"
    },
    {
      "midi": 57,
      "time": 223.333,
      "duration": 0.417,
      "velocity": 1,
      "hand": "left"
    },
    {
      "midi": 74,
      "time": 223.333,
      "duration": 0.417,
      "velocity": 1,
      "hand": "right"
    },
    {
      "midi": 78,
      "time": 223.333,
      "duration": 0.417,
      "velocity": 1,
      "hand": "right"
    },
    {
      "midi": 81,
      "time": 223.333,
      "duration": 0.833,
      "velocity": 1,
      "hand": "right"
    },
    {
      "midi": 62,
      "time": 223.75,
      "duration": 0.417,
      "velocity": 1,
      "hand": "right"
    },
    {
      "midi": 69,
      "time": 223.75,
      "duration": 0.417,
      "velocity": 1,
      "hand": "right"
    },
    {
      "midi": 50,
      "time": 224.167,
      "duration": 0.833,
      "velocity": 1,
      "hand": "left"
    },
    {
      "midi": 55,
      "time": 224.167,
      "duration": 0.833,
      "velocity": 1,
      "hand": "left"
    },
    {
      "midi": 58,
      "time": 224.167,
      "duration": 0.417,
      "velocity": 1,
      "hand": "left"
    },
    {
      "midi": 70,
      "time": 224.167,
      "duration": 0.417,
      "velocity": 1,
      "hand": "right"
    },
    {
      "midi": 74,
      "time": 224.167,
      "duration": 0.417,
      "velocity": 1,
      "hand": "right"
    },
    {
      "midi": 76,
      "time": 224.167,
      "duration": 0.833,
      "velocity": 1,
      "hand": "right"
    },
    {
      "midi": 62,
      "time": 224.583,
      "duration": 0.417,
      "velocity": 1,
      "hand": "right"
    },
    {
      "midi": 64,
      "time": 224.583,
      "duration": 0.417,
      "velocity": 1,
      "hand": "right"
    },
    {
      "midi": 50,
      "time": 225,
      "duration": 0.833,
      "velocity": 1,
      "hand": "left"
    },
    {
      "midi": 54,
      "time": 225,
      "duration": 0.833,
      "velocity": 1,
      "hand": "left"
    },
    {
      "midi": 57,
      "time": 225,
      "duration": 0.417,
      "velocity": 1,
      "hand": "left"
    },
    {
      "midi": 74,
      "time": 225,
      "duration": 0.417,
      "velocity": 1,
      "hand": "right"
    },
    {
      "midi": 78,
      "time": 225,
      "duration": 0.417,
      "velocity": 1,
      "hand": "right"
    },
    {
      "midi": 81,
      "time": 225,
      "duration": 0.833,
      "velocity": 1,
      "hand": "right"
    },
    {
      "midi": 62,
      "time": 225.417,
      "duration": 0.417,
      "velocity": 1,
      "hand": "right"
    },
    {
      "midi": 69,
      "time": 225.417,
      "duration": 0.417,
      "velocity": 1,
      "hand": "right"
    },
    {
      "midi": 50,
      "time": 225.833,
      "duration": 0.833,
      "velocity": 1,
      "hand": "left"
    },
    {
      "midi": 55,
      "time": 225.833,
      "duration": 0.833,
      "velocity": 1,
      "hand": "left"
    },
    {
      "midi": 58,
      "time": 225.833,
      "duration": 0.417,
      "velocity": 1,
      "hand": "left"
    },
    {
      "midi": 70,
      "time": 225.833,
      "duration": 0.417,
      "velocity": 1,
      "hand": "right"
    },
    {
      "midi": 74,
      "time": 225.833,
      "duration": 0.417,
      "velocity": 1,
      "hand": "right"
    },
    {
      "midi": 76,
      "time": 225.833,
      "duration": 0.833,
      "velocity": 1,
      "hand": "right"
    },
    {
      "midi": 62,
      "time": 226.25,
      "duration": 0.417,
      "velocity": 1,
      "hand": "right"
    },
    {
      "midi": 64,
      "time": 226.25,
      "duration": 0.417,
      "velocity": 1,
      "hand": "right"
    },
    {
      "midi": 60,
      "time": 226.667,
      "duration": 1.667,
      "velocity": 1,
      "hand": "right"
    },
    {
      "midi": 62,
      "time": 226.667,
      "duration": 1.667,
      "velocity": 1,
      "hand": "right"
    },
    {
      "midi": 66,
      "time": 226.667,
      "duration": 1.667,
      "velocity": 1,
      "hand": "right"
    },
    {
      "midi": 69,
      "time": 226.667,
      "duration": 1.667,
      "velocity": 1,
      "hand": "right"
    },
    {
      "midi": 74,
      "time": 226.667,
      "duration": 0.208,
      "velocity": 1,
      "hand": "right"
    },
    {
      "midi": 76,
      "time": 226.875,
      "duration": 0.208,
      "velocity": 1,
      "hand": "right"
    },
    {
      "midi": 74,
      "time": 227.083,
      "duration": 0.208,
      "velocity": 1,
      "hand": "right"
    },
    {
      "midi": 76,
      "time": 227.292,
      "duration": 0.208,
      "velocity": 1,
      "hand": "right"
    },
    {
      "midi": 78,
      "time": 227.5,
      "duration": 0.417,
      "velocity": 1,
      "hand": "right"
    },
    {
      "midi": 78,
      "time": 227.917,
      "duration": 0.417,
      "velocity": 1,
      "hand": "right"
    },
    {
      "midi": 58,
      "time": 228.333,
      "duration": 0.208,
      "velocity": 1,
      "hand": "left"
    },
    {
      "midi": 62,
      "time": 228.333,
      "duration": 0.208,
      "velocity": 1,
      "hand": "right"
    },
    {
      "midi": 74,
      "time": 228.333,
      "duration": 0.208,
      "velocity": 1,
      "hand": "right"
    },
    {
      "midi": 76,
      "time": 228.333,
      "duration": 0.208,
      "velocity": 1,
      "hand": "right"
    },
    {
      "midi": 78,
      "time": 228.542,
      "duration": 0.208,
      "velocity": 1,
      "hand": "right"
    },
    {
      "midi": 58,
      "time": 228.75,
      "duration": 0.208,
      "velocity": 1,
      "hand": "left"
    },
    {
      "midi": 79,
      "time": 228.75,
      "duration": 0.208,
      "velocity": 1,
      "hand": "right"
    },
    {
      "midi": 57,
      "time": 228.958,
      "duration": 0.208,
      "velocity": 1,
      "hand": "left"
    },
    {
      "midi": 81,
      "time": 228.958,
      "duration": 0.208,
      "velocity": 1,
      "hand": "right"
    },
    {
      "midi": 55,
      "time": 229.167,
      "duration": 0.417,
      "velocity": 1,
      "hand": "left"
    },
    {
      "midi": 82,
      "time": 229.167,
      "duration": 0.417,
      "velocity": 1,
      "hand": "right"
    },
    {
      "midi": 43,
      "time": 230,
      "duration": 0.833,
      "velocity": 1,
      "hand": "left"
    },
    {
      "midi": 51,
      "time": 230,
      "duration": 0.833,
      "velocity": 1,
      "hand": "left"
    },
    {
      "midi": 61,
      "time": 230.208,
      "duration": 0.208,
      "velocity": 1,
      "hand": "right"
    },
    {
      "midi": 63,
      "time": 230.208,
      "duration": 0.208,
      "velocity": 1,
      "hand": "right"
    },
    {
      "midi": 58,
      "time": 230.417,
      "duration": 0.417,
      "velocity": 1,
      "hand": "left"
    },
    {
      "midi": 61,
      "time": 230.625,
      "duration": 0.208,
      "velocity": 1,
      "hand": "right"
    },
    {
      "midi": 63,
      "time": 230.625,
      "duration": 0.208,
      "velocity": 1,
      "hand": "right"
    },
    {
      "midi": 56,
      "time": 230.833,
      "duration": 0.833,
      "velocity": 1,
      "hand": "left"
    },
    {
      "midi": 60,
      "time": 230.833,
      "duration": 0.417,
      "velocity": 1,
      "hand": "right"
    },
    {
      "midi": 51,
      "time": 231.25,
      "duration": 0.417,
      "velocity": 1,
      "hand": "left"
    },
    {
      "midi": 63,
      "time": 231.25,
      "duration": 0.417,
      "velocity": 1,
      "hand": "right"
    },
    {
      "midi": 72,
      "time": 231.25,
      "duration": 0.417,
      "velocity": 1,
      "hand": "right"
    },
    {
      "midi": 45,
      "time": 231.667,
      "duration": 0.833,
      "velocity": 1,
      "hand": "left"
    },
    {
      "midi": 53,
      "time": 231.667,
      "duration": 0.833,
      "velocity": 1,
      "hand": "left"
    },
    {
      "midi": 63,
      "time": 231.875,
      "duration": 0.208,
      "velocity": 1,
      "hand": "right"
    },
    {
      "midi": 65,
      "time": 231.875,
      "duration": 0.208,
      "velocity": 1,
      "hand": "right"
    },
    {
      "midi": 60,
      "time": 232.083,
      "duration": 0.417,
      "velocity": 1,
      "hand": "right"
    },
    {
      "midi": 63,
      "time": 232.292,
      "duration": 0.208,
      "velocity": 1,
      "hand": "right"
    },
    {
      "midi": 65,
      "time": 232.292,
      "duration": 0.208,
      "velocity": 1,
      "hand": "right"
    },
    {
      "midi": 58,
      "time": 232.5,
      "duration": 0.833,
      "velocity": 1,
      "hand": "left"
    },
    {
      "midi": 62,
      "time": 232.5,
      "duration": 0.833,
      "velocity": 1,
      "hand": "right"
    },
    {
      "midi": 46,
      "time": 232.917,
      "duration": 0.417,
      "velocity": 1,
      "hand": "left"
    },
    {
      "midi": 53,
      "time": 232.917,
      "duration": 0.417,
      "velocity": 1,
      "hand": "left"
    },
    {
      "midi": 65,
      "time": 232.917,
      "duration": 0.417,
      "velocity": 1,
      "hand": "right"
    },
    {
      "midi": 74,
      "time": 232.917,
      "duration": 0.417,
      "velocity": 1,
      "hand": "right"
    },
    {
      "midi": 47,
      "time": 233.333,
      "duration": 0.417,
      "velocity": 1,
      "hand": "left"
    },
    {
      "midi": 55,
      "time": 233.333,
      "duration": 0.833,
      "velocity": 1,
      "hand": "left"
    },
    {
      "midi": 62,
      "time": 233.333,
      "duration": 0.833,
      "velocity": 1,
      "hand": "right"
    },
    {
      "midi": 59,
      "time": 233.75,
      "duration": 0.417,
      "velocity": 1,
      "hand": "left"
    },
    {
      "midi": 65,
      "time": 233.75,
      "duration": 0.417,
      "velocity": 1,
      "hand": "right"
    },
    {
      "midi": 67,
      "time": 233.75,
      "duration": 0.417,
      "velocity": 1,
      "hand": "right"
    },
    {
      "midi": 74,
      "time": 233.75,
      "duration": 0.417,
      "velocity": 1,
      "hand": "right"
    },
    {
      "midi": 48,
      "time": 234.167,
      "duration": 0.417,
      "velocity": 1,
      "hand": "left"
    },
    {
      "midi": 55,
      "time": 234.167,
      "duration": 0.833,
      "velocity": 1,
      "hand": "left"
    },
    {
      "midi": 63,
      "time": 234.167,
      "duration": 0.833,
      "velocity": 1,
      "hand": "right"
    },
    {
      "midi": 60,
      "time": 234.583,
      "duration": 0.417,
      "velocity": 1,
      "hand": "right"
    },
    {
      "midi": 67,
      "time": 234.583,
      "duration": 0.417,
      "velocity": 1,
      "hand": "right"
    },
    {
      "midi": 75,
      "time": 234.583,
      "duration": 0.417,
      "velocity": 1,
      "hand": "right"
    },
    {
      "midi": 50,
      "time": 235,
      "duration": 0.417,
      "velocity": 1,
      "hand": "left"
    },
    {
      "midi": 55,
      "time": 235,
      "duration": 0.833,
      "velocity": 1,
      "hand": "left"
    },
    {
      "midi": 65,
      "time": 235,
      "duration": 0.833,
      "velocity": 1,
      "hand": "right"
    },
    {
      "midi": 62,
      "time": 235.417,
      "duration": 0.417,
      "velocity": 1,
      "hand": "right"
    },
    {
      "midi": 71,
      "time": 235.417,
      "duration": 0.417,
      "velocity": 1,
      "hand": "right"
    },
    {
      "midi": 79,
      "time": 235.417,
      "duration": 0.417,
      "velocity": 1,
      "hand": "right"
    },
    {
      "midi": 48,
      "time": 235.833,
      "duration": 0.417,
      "velocity": 1,
      "hand": "left"
    },
    {
      "midi": 55,
      "time": 235.833,
      "duration": 0.833,
      "velocity": 1,
      "hand": "left"
    },
    {
      "midi": 63,
      "time": 235.833,
      "duration": 0.833,
      "velocity": 1,
      "hand": "right"
    },
    {
      "midi": 60,
      "time": 236.25,
      "duration": 0.417,
      "velocity": 1,
      "hand": "right"
    },
    {
      "midi": 67,
      "time": 236.25,
      "duration": 0.417,
      "velocity": 1,
      "hand": "right"
    },
    {
      "midi": 75,
      "time": 236.25,
      "duration": 0.417,
      "velocity": 1,
      "hand": "right"
    },
    {
      "midi": 47,
      "time": 236.667,
      "duration": 0.833,
      "velocity": 1,
      "hand": "left"
    },
    {
      "midi": 55,
      "time": 236.667,
      "duration": 0.833,
      "velocity": 1,
      "hand": "left"
    },
    {
      "midi": 65,
      "time": 236.875,
      "duration": 0.208,
      "velocity": 1,
      "hand": "right"
    },
    {
      "midi": 67,
      "time": 236.875,
      "duration": 0.208,
      "velocity": 1,
      "hand": "right"
    },
    {
      "midi": 62,
      "time": 237.083,
      "duration": 0.417,
      "velocity": 1,
      "hand": "right"
    },
    {
      "midi": 65,
      "time": 237.292,
      "duration": 0.208,
      "velocity": 1,
      "hand": "right"
    },
    {
      "midi": 67,
      "time": 237.292,
      "duration": 0.208,
      "velocity": 1,
      "hand": "right"
    },
    {
      "midi": 60,
      "time": 237.5,
      "duration": 0.833,
      "velocity": 1,
      "hand": "right"
    },
    {
      "midi": 64,
      "time": 237.5,
      "duration": 0.833,
      "velocity": 1,
      "hand": "right"
    },
    {
      "midi": 48,
      "time": 237.917,
      "duration": 0.417,
      "velocity": 1,
      "hand": "left"
    },
    {
      "midi": 55,
      "time": 237.917,
      "duration": 0.417,
      "velocity": 1,
      "hand": "left"
    },
    {
      "midi": 67,
      "time": 237.917,
      "duration": 0.417,
      "velocity": 1,
      "hand": "right"
    },
    {
      "midi": 76,
      "time": 237.917,
      "duration": 0.417,
      "velocity": 1,
      "hand": "right"
    },
    {
      "midi": 49,
      "time": 238.333,
      "duration": 0.833,
      "velocity": 1,
      "hand": "left"
    },
    {
      "midi": 57,
      "time": 238.333,
      "duration": 0.417,
      "velocity": 1,
      "hand": "left"
    },
    {
      "midi": 67,
      "time": 238.542,
      "duration": 0.208,
      "velocity": 1,
      "hand": "right"
    },
    {
      "midi": 69,
      "time": 238.542,
      "duration": 0.208,
      "velocity": 1,
      "hand": "right"
    },
    {
      "midi": 64,
      "time": 238.75,
      "duration": 0.417,
      "velocity": 1,
      "hand": "right"
    },
    {
      "midi": 67,
      "time": 238.958,
      "duration": 0.208,
      "velocity": 1,
      "hand": "right"
    },
    {
      "midi": 69,
      "time": 238.958,
      "duration": 0.208,
      "velocity": 1,
      "hand": "right"
    },
    {
      "midi": 62,
      "time": 239.167,
      "duration": 0.833,
      "velocity": 1,
      "hand": "right"
    },
    {
      "midi": 65,
      "time": 239.167,
      "duration": 0.833,
      "velocity": 1,
      "hand": "right"
    },
    {
      "midi": 50,
      "time": 239.583,
      "duration": 0.417,
      "velocity": 1,
      "hand": "left"
    },
    {
      "midi": 57,
      "time": 239.583,
      "duration": 0.417,
      "velocity": 1,
      "hand": "left"
    },
    {
      "midi": 69,
      "time": 239.583,
      "duration": 0.417,
      "velocity": 1,
      "hand": "right"
    },
    {
      "midi": 77,
      "time": 239.583,
      "duration": 0.417,
      "velocity": 1,
      "hand": "right"
    },
    {
      "midi": 49,
      "time": 240,
      "duration": 0.833,
      "velocity": 1,
      "hand": "left"
    },
    {
      "midi": 57,
      "time": 240,
      "duration": 0.833,
      "velocity": 1,
      "hand": "left"
    },
    {
      "midi": 64,
      "time": 240,
      "duration": 0.833,
      "velocity": 1,
      "hand": "right"
    },
    {
      "midi": 61,
      "time": 240.417,
      "duration": 0.417,
      "velocity": 1,
      "hand": "right"
    },
    {
      "midi": 67,
      "time": 240.417,
      "duration": 0.417,
      "velocity": 1,
      "hand": "right"
    },
    {
      "midi": 69,
      "time": 240.417,
      "duration": 0.417,
      "velocity": 1,
      "hand": "right"
    },
    {
      "midi": 76,
      "time": 240.417,
      "duration": 0.417,
      "velocity": 1,
      "hand": "right"
    },
    {
      "midi": 50,
      "time": 240.833,
      "duration": 0.417,
      "velocity": 1,
      "hand": "left"
    },
    {
      "midi": 57,
      "time": 240.833,
      "duration": 0.833,
      "velocity": 1,
      "hand": "left"
    },
    {
      "midi": 65,
      "time": 240.833,
      "duration": 0.833,
      "velocity": 1,
      "hand": "right"
    },
    {
      "midi": 62,
      "time": 241.25,
      "duration": 0.417,
      "velocity": 1,
      "hand": "right"
    },
    {
      "midi": 69,
      "time": 241.25,
      "duration": 0.417,
      "velocity": 1,
      "hand": "right"
    },
    {
      "midi": 77,
      "time": 241.25,
      "duration": 0.417,
      "velocity": 1,
      "hand": "right"
    },
    {
      "midi": 52,
      "time": 241.667,
      "duration": 0.417,
      "velocity": 1,
      "hand": "left"
    },
    {
      "midi": 57,
      "time": 241.667,
      "duration": 0.833,
      "velocity": 1,
      "hand": "left"
    },
    {
      "midi": 67,
      "time": 241.667,
      "duration": 0.833,
      "velocity": 1,
      "hand": "right"
    },
    {
      "midi": 64,
      "time": 242.083,
      "duration": 0.417,
      "velocity": 1,
      "hand": "right"
    },
    {
      "midi": 73,
      "time": 242.083,
      "duration": 0.417,
      "velocity": 1,
      "hand": "right"
    },
    {
      "midi": 81,
      "time": 242.083,
      "duration": 0.417,
      "velocity": 1,
      "hand": "right"
    },
    {
      "midi": 50,
      "time": 242.5,
      "duration": 0.417,
      "velocity": 1,
      "hand": "left"
    },
    {
      "midi": 57,
      "time": 242.5,
      "duration": 0.833,
      "velocity": 1,
      "hand": "left"
    },
    {
      "midi": 65,
      "time": 242.5,
      "duration": 0.833,
      "velocity": 1,
      "hand": "right"
    },
    {
      "midi": 62,
      "time": 242.917,
      "duration": 0.417,
      "velocity": 1,
      "hand": "right"
    },
    {
      "midi": 69,
      "time": 242.917,
      "duration": 0.417,
      "velocity": 1,
      "hand": "right"
    },
    {
      "midi": 77,
      "time": 242.917,
      "duration": 0.417,
      "velocity": 1,
      "hand": "right"
    },
    {
      "midi": 49,
      "time": 243.333,
      "duration": 0.417,
      "velocity": 1,
      "hand": "left"
    },
    {
      "midi": 57,
      "time": 243.333,
      "duration": 0.833,
      "velocity": 1,
      "hand": "left"
    },
    {
      "midi": 64,
      "time": 243.333,
      "duration": 0.833,
      "velocity": 1,
      "hand": "right"
    },
    {
      "midi": 61,
      "time": 243.75,
      "duration": 0.417,
      "velocity": 1,
      "hand": "right"
    },
    {
      "midi": 67,
      "time": 243.75,
      "duration": 0.417,
      "velocity": 1,
      "hand": "right"
    },
    {
      "midi": 69,
      "time": 243.75,
      "duration": 0.417,
      "velocity": 1,
      "hand": "right"
    },
    {
      "midi": 76,
      "time": 243.75,
      "duration": 0.417,
      "velocity": 1,
      "hand": "right"
    },
    {
      "midi": 50,
      "time": 244.167,
      "duration": 0.417,
      "velocity": 1,
      "hand": "left"
    },
    {
      "midi": 57,
      "time": 244.167,
      "duration": 0.833,
      "velocity": 1,
      "hand": "left"
    },
    {
      "midi": 65,
      "time": 244.167,
      "duration": 0.833,
      "velocity": 1,
      "hand": "right"
    },
    {
      "midi": 62,
      "time": 244.583,
      "duration": 0.417,
      "velocity": 1,
      "hand": "right"
    },
    {
      "midi": 69,
      "time": 244.583,
      "duration": 0.417,
      "velocity": 1,
      "hand": "right"
    },
    {
      "midi": 77,
      "time": 244.583,
      "duration": 0.417,
      "velocity": 1,
      "hand": "right"
    },
    {
      "midi": 51,
      "time": 245,
      "duration": 0.417,
      "velocity": 1,
      "hand": "left"
    },
    {
      "midi": 59,
      "time": 245,
      "duration": 0.833,
      "velocity": 1,
      "hand": "left"
    },
    {
      "midi": 69,
      "time": 245,
      "duration": 0.833,
      "velocity": 1,
      "hand": "right"
    },
    {
      "midi": 63,
      "time": 245.417,
      "duration": 0.417,
      "velocity": 1,
      "hand": "right"
    },
    {
      "midi": 78,
      "time": 245.417,
      "duration": 0.417,
      "velocity": 1,
      "hand": "right"
    },
    {
      "midi": 83,
      "time": 245.417,
      "duration": 0.417,
      "velocity": 1,
      "hand": "right"
    },
    {
      "midi": 52,
      "time": 245.833,
      "duration": 0.417,
      "velocity": 1,
      "hand": "left"
    },
    {
      "midi": 59,
      "time": 245.833,
      "duration": 0.833,
      "velocity": 1,
      "hand": "left"
    },
    {
      "midi": 67,
      "time": 245.833,
      "duration": 0.833,
      "velocity": 1,
      "hand": "right"
    },
    {
      "midi": 64,
      "time": 246.25,
      "duration": 0.417,
      "velocity": 1,
      "hand": "right"
    },
    {
      "midi": 71,
      "time": 246.25,
      "duration": 0.417,
      "velocity": 1,
      "hand": "right"
    },
    {
      "midi": 79,
      "time": 246.25,
      "duration": 0.417,
      "velocity": 1,
      "hand": "right"
    },
    {
      "midi": 51,
      "time": 246.667,
      "duration": 0.417,
      "velocity": 1,
      "hand": "left"
    },
    {
      "midi": 59,
      "time": 246.667,
      "duration": 0.833,
      "velocity": 1,
      "hand": "left"
    },
    {
      "midi": 66,
      "time": 246.667,
      "duration": 0.833,
      "velocity": 1,
      "hand": "right"
    },
    {
      "midi": 63,
      "time": 247.083,
      "duration": 0.417,
      "velocity": 1,
      "hand": "right"
    },
    {
      "midi": 69,
      "time": 247.083,
      "duration": 0.417,
      "velocity": 1,
      "hand": "right"
    },
    {
      "midi": 71,
      "time": 247.083,
      "duration": 0.417,
      "velocity": 1,
      "hand": "right"
    },
    {
      "midi": 78,
      "time": 247.083,
      "duration": 0.417,
      "velocity": 1,
      "hand": "right"
    },
    {
      "midi": 52,
      "time": 247.5,
      "duration": 0.417,
      "velocity": 1,
      "hand": "left"
    },
    {
      "midi": 59,
      "time": 247.5,
      "duration": 0.833,
      "velocity": 1,
      "hand": "left"
    },
    {
      "midi": 67,
      "time": 247.5,
      "duration": 0.833,
      "velocity": 1,
      "hand": "right"
    },
    {
      "midi": 64,
      "time": 247.917,
      "duration": 0.417,
      "velocity": 1,
      "hand": "right"
    },
    {
      "midi": 71,
      "time": 247.917,
      "duration": 0.417,
      "velocity": 1,
      "hand": "right"
    },
    {
      "midi": 79,
      "time": 247.917,
      "duration": 0.417,
      "velocity": 1,
      "hand": "right"
    },
    {
      "midi": 53,
      "time": 248.333,
      "duration": 0.417,
      "velocity": 1,
      "hand": "left"
    },
    {
      "midi": 61,
      "time": 248.333,
      "duration": 0.833,
      "velocity": 1,
      "hand": "right"
    },
    {
      "midi": 71,
      "time": 248.333,
      "duration": 0.833,
      "velocity": 1,
      "hand": "right"
    },
    {
      "midi": 65,
      "time": 248.75,
      "duration": 0.417,
      "velocity": 1,
      "hand": "right"
    },
    {
      "midi": 80,
      "time": 248.75,
      "duration": 0.417,
      "velocity": 1,
      "hand": "right"
    },
    {
      "midi": 85,
      "time": 248.75,
      "duration": 0.417,
      "velocity": 1,
      "hand": "right"
    },
    {
      "midi": 54,
      "time": 249.167,
      "duration": 0.417,
      "velocity": 1,
      "hand": "left"
    },
    {
      "midi": 61,
      "time": 249.167,
      "duration": 0.833,
      "velocity": 1,
      "hand": "right"
    },
    {
      "midi": 69,
      "time": 249.167,
      "duration": 0.833,
      "velocity": 1,
      "hand": "right"
    },
    {
      "midi": 66,
      "time": 249.583,
      "duration": 0.417,
      "velocity": 1,
      "hand": "right"
    },
    {
      "midi": 73,
      "time": 249.583,
      "duration": 0.417,
      "velocity": 1,
      "hand": "right"
    },
    {
      "midi": 81,
      "time": 249.583,
      "duration": 0.417,
      "velocity": 1,
      "hand": "right"
    },
    {
      "midi": 54,
      "time": 250,
      "duration": 0.417,
      "velocity": 1,
      "hand": "left"
    },
    {
      "midi": 62,
      "time": 250,
      "duration": 0.833,
      "velocity": 1,
      "hand": "right"
    },
    {
      "midi": 72,
      "time": 250,
      "duration": 0.833,
      "velocity": 1,
      "hand": "right"
    },
    {
      "midi": 66,
      "time": 250.417,
      "duration": 0.417,
      "velocity": 1,
      "hand": "right"
    },
    {
      "midi": 81,
      "time": 250.417,
      "duration": 0.417,
      "velocity": 1,
      "hand": "right"
    },
    {
      "midi": 86,
      "time": 250.417,
      "duration": 0.417,
      "velocity": 1,
      "hand": "right"
    },
    {
      "midi": 55,
      "time": 250.833,
      "duration": 0.417,
      "velocity": 1,
      "hand": "left"
    },
    {
      "midi": 62,
      "time": 250.833,
      "duration": 0.833,
      "velocity": 1,
      "hand": "right"
    },
    {
      "midi": 71,
      "time": 250.833,
      "duration": 0.833,
      "velocity": 1,
      "hand": "right"
    },
    {
      "midi": 67,
      "time": 251.25,
      "duration": 0.417,
      "velocity": 1,
      "hand": "right"
    },
    {
      "midi": 74,
      "time": 251.25,
      "duration": 0.417,
      "velocity": 1,
      "hand": "right"
    },
    {
      "midi": 83,
      "time": 251.25,
      "duration": 0.417,
      "velocity": 1,
      "hand": "right"
    },
    {
      "midi": 54,
      "time": 251.667,
      "duration": 0.417,
      "velocity": 1,
      "hand": "left"
    },
    {
      "midi": 62,
      "time": 251.667,
      "duration": 0.833,
      "velocity": 1,
      "hand": "right"
    },
    {
      "midi": 72,
      "time": 251.667,
      "duration": 0.833,
      "velocity": 1,
      "hand": "right"
    },
    {
      "midi": 66,
      "time": 252.083,
      "duration": 0.417,
      "velocity": 1,
      "hand": "right"
    },
    {
      "midi": 81,
      "time": 252.083,
      "duration": 0.417,
      "velocity": 1,
      "hand": "right"
    },
    {
      "midi": 86,
      "time": 252.083,
      "duration": 0.417,
      "velocity": 1,
      "hand": "right"
    },
    {
      "midi": 55,
      "time": 252.5,
      "duration": 0.417,
      "velocity": 1,
      "hand": "left"
    },
    {
      "midi": 62,
      "time": 252.5,
      "duration": 0.833,
      "velocity": 1,
      "hand": "right"
    },
    {
      "midi": 71,
      "time": 252.5,
      "duration": 0.833,
      "velocity": 1,
      "hand": "right"
    },
    {
      "midi": 67,
      "time": 252.917,
      "duration": 0.417,
      "velocity": 1,
      "hand": "right"
    },
    {
      "midi": 74,
      "time": 252.917,
      "duration": 0.417,
      "velocity": 1,
      "hand": "right"
    },
    {
      "midi": 83,
      "time": 252.917,
      "duration": 0.417,
      "velocity": 1,
      "hand": "right"
    },
    {
      "midi": 67,
      "time": 253.333,
      "duration": 0.417,
      "velocity": 1,
      "hand": "right"
    },
    {
      "midi": 70,
      "time": 253.333,
      "duration": 0.417,
      "velocity": 1,
      "hand": "right"
    },
    {
      "midi": 74,
      "time": 253.333,
      "duration": 0.417,
      "velocity": 1,
      "hand": "right"
    },
    {
      "midi": 88,
      "time": 253.333,
      "duration": 0.208,
      "velocity": 1,
      "hand": "right"
    },
    {
      "midi": 86,
      "time": 253.542,
      "duration": 0.208,
      "velocity": 1,
      "hand": "right"
    },
    {
      "midi": 82,
      "time": 253.75,
      "duration": 0.208,
      "velocity": 1,
      "hand": "right"
    },
    {
      "midi": 81,
      "time": 253.958,
      "duration": 0.208,
      "velocity": 1,
      "hand": "right"
    },
    {
      "midi": 76,
      "time": 254.167,
      "duration": 0.208,
      "velocity": 1,
      "hand": "right"
    },
    {
      "midi": 79,
      "time": 254.167,
      "duration": 0.417,
      "velocity": 1,
      "hand": "right"
    },
    {
      "midi": 74,
      "time": 254.375,
      "duration": 0.208,
      "velocity": 1,
      "hand": "right"
    },
    {
      "midi": 70,
      "time": 254.583,
      "duration": 0.208,
      "velocity": 1,
      "hand": "right"
    },
    {
      "midi": 69,
      "time": 254.792,
      "duration": 0.208,
      "velocity": 1,
      "hand": "right"
    },
    {
      "midi": 67,
      "time": 255,
      "duration": 0.417,
      "velocity": 1,
      "hand": "right"
    },
    {
      "midi": 76,
      "time": 255,
      "duration": 0.208,
      "velocity": 1,
      "hand": "right"
    },
    {
      "midi": 74,
      "time": 255.208,
      "duration": 0.208,
      "velocity": 1,
      "hand": "right"
    },
    {
      "midi": 70,
      "time": 255.417,
      "duration": 0.208,
      "velocity": 1,
      "hand": "right"
    },
    {
      "midi": 69,
      "time": 255.625,
      "duration": 0.208,
      "velocity": 1,
      "hand": "right"
    },
    {
      "midi": 64,
      "time": 255.833,
      "duration": 0.208,
      "velocity": 1,
      "hand": "right"
    },
    {
      "midi": 67,
      "time": 255.833,
      "duration": 0.417,
      "velocity": 1,
      "hand": "right"
    },
    {
      "midi": 62,
      "time": 256.042,
      "duration": 0.208,
      "velocity": 1,
      "hand": "right"
    },
    {
      "midi": 58,
      "time": 256.25,
      "duration": 0.208,
      "velocity": 1,
      "hand": "left"
    },
    {
      "midi": 57,
      "time": 256.458,
      "duration": 0.208,
      "velocity": 1,
      "hand": "left"
    },
    {
      "midi": 55,
      "time": 256.667,
      "duration": 0.417,
      "velocity": 1,
      "hand": "left"
    },
    {
      "midi": 64,
      "time": 256.667,
      "duration": 0.208,
      "velocity": 1,
      "hand": "right"
    },
    {
      "midi": 62,
      "time": 256.875,
      "duration": 0.208,
      "velocity": 1,
      "hand": "right"
    },
    {
      "midi": 58,
      "time": 257.083,
      "duration": 0.208,
      "velocity": 1,
      "hand": "left"
    },
    {
      "midi": 57,
      "time": 257.292,
      "duration": 0.208,
      "velocity": 1,
      "hand": "left"
    },
    {
      "midi": 52,
      "time": 257.5,
      "duration": 0.208,
      "velocity": 1,
      "hand": "left"
    },
    {
      "midi": 55,
      "time": 257.5,
      "duration": 0.417,
      "velocity": 1,
      "hand": "left"
    },
    {
      "midi": 50,
      "time": 257.708,
      "duration": 0.208,
      "velocity": 1,
      "hand": "left"
    },
    {
      "midi": 46,
      "time": 257.917,
      "duration": 0.208,
      "velocity": 1,
      "hand": "left"
    },
    {
      "midi": 45,
      "time": 258.125,
      "duration": 0.208,
      "velocity": 1,
      "hand": "left"
    },
    {
      "midi": 43,
      "time": 258.333,
      "duration": 0.417,
      "velocity": 1,
      "hand": "left"
    },
    {
      "midi": 52,
      "time": 258.333,
      "duration": 0.208,
      "velocity": 1,
      "hand": "left"
    },
    {
      "midi": 50,
      "time": 258.542,
      "duration": 0.208,
      "velocity": 1,
      "hand": "left"
    },
    {
      "midi": 46,
      "time": 258.75,
      "duration": 0.208,
      "velocity": 1,
      "hand": "left"
    },
    {
      "midi": 45,
      "time": 258.958,
      "duration": 0.208,
      "velocity": 1,
      "hand": "left"
    },
    {
      "midi": 40,
      "time": 259.167,
      "duration": 0.208,
      "velocity": 1,
      "hand": "left"
    },
    {
      "midi": 43,
      "time": 259.167,
      "duration": 0.417,
      "velocity": 1,
      "hand": "left"
    },
    {
      "midi": 38,
      "time": 259.375,
      "duration": 0.208,
      "velocity": 1,
      "hand": "left"
    },
    {
      "midi": 34,
      "time": 259.583,
      "duration": 0.208,
      "velocity": 1,
      "hand": "left"
    },
    {
      "midi": 33,
      "time": 259.792,
      "duration": 0.208,
      "velocity": 1,
      "hand": "left"
    },
    {
      "midi": 31,
      "time": 260,
      "duration": 0.417,
      "velocity": 1,
      "hand": "left"
    },
    {
      "midi": 31,
      "time": 260.417,
      "duration": 0.417,
      "velocity": 1,
      "hand": "left"
    },
    {
      "midi": 31,
      "time": 260.833,
      "duration": 0.208,
      "velocity": 1,
      "hand": "left"
    },
    {
      "midi": 33,
      "time": 261.042,
      "duration": 0.208,
      "velocity": 1,
      "hand": "left"
    },
    {
      "midi": 34,
      "time": 261.25,
      "duration": 0.208,
      "velocity": 1,
      "hand": "left"
    },
    {
      "midi": 31,
      "time": 261.458,
      "duration": 0.208,
      "velocity": 1,
      "hand": "left"
    },
    {
      "midi": 33,
      "time": 261.667,
      "duration": 0.417,
      "velocity": 1,
      "hand": "left"
    },
    {
      "midi": 33,
      "time": 262.083,
      "duration": 0.417,
      "velocity": 1,
      "hand": "left"
    },
    {
      "midi": 34,
      "time": 262.5,
      "duration": 0.417,
      "velocity": 1,
      "hand": "left"
    },
    {
      "midi": 31,
      "time": 262.917,
      "duration": 0.417,
      "velocity": 1,
      "hand": "left"
    },
    {
      "midi": 50,
      "time": 263.333,
      "duration": 3.333,
      "velocity": 1,
      "hand": "left"
    },
    {
      "midi": 52,
      "time": 263.333,
      "duration": 3.333,
      "velocity": 1,
      "hand": "left"
    },
    {
      "midi": 62,
      "time": 263.333,
      "duration": 3.333,
      "velocity": 1,
      "hand": "right"
    },
    {
      "midi": 64,
      "time": 263.333,
      "duration": 3.333,
      "velocity": 1,
      "hand": "right"
    },
    {
      "midi": 31,
      "time": 264.167,
      "duration": 0.833,
      "velocity": 1,
      "hand": "left"
    },
    {
      "midi": 43,
      "time": 264.167,
      "duration": 0.833,
      "velocity": 1,
      "hand": "left"
    },
    {
      "midi": 33,
      "time": 265,
      "duration": 0.833,
      "velocity": 1,
      "hand": "left"
    },
    {
      "midi": 45,
      "time": 265,
      "duration": 0.833,
      "velocity": 1,
      "hand": "left"
    },
    {
      "midi": 34,
      "time": 265.833,
      "duration": 0.833,
      "velocity": 1,
      "hand": "left"
    },
    {
      "midi": 46,
      "time": 265.833,
      "duration": 0.833,
      "velocity": 1,
      "hand": "left"
    },
    {
      "midi": 43,
      "time": 266.667,
      "duration": 0.417,
      "velocity": 1,
      "hand": "left"
    },
    {
      "midi": 43,
      "time": 267.083,
      "duration": 0.417,
      "velocity": 1,
      "hand": "left"
    },
    {
      "midi": 43,
      "time": 267.5,
      "duration": 0.208,
      "velocity": 1,
      "hand": "left"
    },
    {
      "midi": 45,
      "time": 267.708,
      "duration": 0.208,
      "velocity": 1,
      "hand": "left"
    },
    {
      "midi": 46,
      "time": 267.917,
      "duration": 0.208,
      "velocity": 1,
      "hand": "left"
    },
    {
      "midi": 45,
      "time": 268.125,
      "duration": 0.208,
      "velocity": 1,
      "hand": "left"
    },
    {
      "midi": 45,
      "time": 268.333,
      "duration": 0.417,
      "velocity": 1,
      "hand": "left"
    },
    {
      "midi": 45,
      "time": 268.75,
      "duration": 0.417,
      "velocity": 1,
      "hand": "left"
    },
    {
      "midi": 46,
      "time": 269.167,
      "duration": 0.417,
      "velocity": 1,
      "hand": "left"
    },
    {
      "midi": 43,
      "time": 269.583,
      "duration": 0.417,
      "velocity": 1,
      "hand": "left"
    },
    {
      "midi": 62,
      "time": 270,
      "duration": 3.333,
      "velocity": 1,
      "hand": "right"
    },
    {
      "midi": 64,
      "time": 270,
      "duration": 3.333,
      "velocity": 1,
      "hand": "right"
    },
    {
      "midi": 74,
      "time": 270,
      "duration": 3.333,
      "velocity": 1,
      "hand": "right"
    },
    {
      "midi": 76,
      "time": 270,
      "duration": 3.333,
      "velocity": 1,
      "hand": "right"
    },
    {
      "midi": 43,
      "time": 270.833,
      "duration": 0.833,
      "velocity": 1,
      "hand": "left"
    },
    {
      "midi": 55,
      "time": 270.833,
      "duration": 0.833,
      "velocity": 1,
      "hand": "left"
    },
    {
      "midi": 45,
      "time": 271.667,
      "duration": 0.833,
      "velocity": 1,
      "hand": "left"
    },
    {
      "midi": 57,
      "time": 271.667,
      "duration": 0.833,
      "velocity": 1,
      "hand": "left"
    },
    {
      "midi": 46,
      "time": 272.5,
      "duration": 0.833,
      "velocity": 1,
      "hand": "left"
    },
    {
      "midi": 58,
      "time": 272.5,
      "duration": 0.833,
      "velocity": 1,
      "hand": "left"
    },
    {
      "midi": 74,
      "time": 273.333,
      "duration": 3.333,
      "velocity": 1,
      "hand": "right"
    },
    {
      "midi": 76,
      "time": 273.333,
      "duration": 3.333,
      "velocity": 1,
      "hand": "right"
    },
    {
      "midi": 86,
      "time": 273.333,
      "duration": 3.333,
      "velocity": 1,
      "hand": "right"
    },
    {
      "midi": 88,
      "time": 273.333,
      "duration": 3.333,
      "velocity": 1,
      "hand": "right"
    },
    {
      "midi": 55,
      "time": 274.167,
      "duration": 0.833,
      "velocity": 1,
      "hand": "left"
    },
    {
      "midi": 67,
      "time": 274.167,
      "duration": 0.833,
      "velocity": 1,
      "hand": "right"
    },
    {
      "midi": 57,
      "time": 275,
      "duration": 0.833,
      "velocity": 1,
      "hand": "left"
    },
    {
      "midi": 69,
      "time": 275,
      "duration": 0.833,
      "velocity": 1,
      "hand": "right"
    },
    {
      "midi": 58,
      "time": 275.833,
      "duration": 0.833,
      "velocity": 1,
      "hand": "left"
    },
    {
      "midi": 70,
      "time": 275.833,
      "duration": 0.833,
      "velocity": 1,
      "hand": "right"
    },
    {
      "midi": 43,
      "time": 278.333,
      "duration": 0.417,
      "velocity": 1,
      "hand": "left"
    },
    {
      "midi": 79,
      "time": 278.333,
      "duration": 0.417,
      "velocity": 1,
      "hand": "right"
    },
    {
      "midi": 43,
      "time": 278.75,
      "duration": 0.417,
      "velocity": 1,
      "hand": "left"
    },
    {
      "midi": 79,
      "time": 278.75,
      "duration": 0.417,
      "velocity": 1,
      "hand": "right"
    },
    {
      "midi": 43,
      "time": 279.167,
      "duration": 0.208,
      "velocity": 1,
      "hand": "left"
    },
    {
      "midi": 79,
      "time": 279.167,
      "duration": 0.208,
      "velocity": 1,
      "hand": "right"
    },
    {
      "midi": 45,
      "time": 279.375,
      "duration": 0.208,
      "velocity": 1,
      "hand": "left"
    },
    {
      "midi": 81,
      "time": 279.375,
      "duration": 0.208,
      "velocity": 1,
      "hand": "right"
    },
    {
      "midi": 46,
      "time": 279.583,
      "duration": 0.208,
      "velocity": 1,
      "hand": "left"
    },
    {
      "midi": 82,
      "time": 279.583,
      "duration": 0.208,
      "velocity": 1,
      "hand": "right"
    },
    {
      "midi": 43,
      "time": 279.792,
      "duration": 0.208,
      "velocity": 1,
      "hand": "left"
    },
    {
      "midi": 79,
      "time": 279.792,
      "duration": 0.208,
      "velocity": 1,
      "hand": "right"
    },
    {
      "midi": 44,
      "time": 280,
      "duration": 0.417,
      "velocity": 1,
      "hand": "left"
    },
    {
      "midi": 80,
      "time": 280,
      "duration": 0.417,
      "velocity": 1,
      "hand": "right"
    },
    {
      "midi": 45,
      "time": 280.417,
      "duration": 0.417,
      "velocity": 1,
      "hand": "left"
    },
    {
      "midi": 81,
      "time": 280.417,
      "duration": 0.417,
      "velocity": 1,
      "hand": "right"
    },
    {
      "midi": 38,
      "time": 280.833,
      "duration": 0.417,
      "velocity": 1,
      "hand": "left"
    },
    {
      "midi": 45,
      "time": 280.833,
      "duration": 0.417,
      "velocity": 1,
      "hand": "left"
    },
    {
      "midi": 50,
      "time": 280.833,
      "duration": 0.417,
      "velocity": 1,
      "hand": "left"
    },
    {
      "midi": 74,
      "time": 280.833,
      "duration": 0.417,
      "velocity": 1,
      "hand": "right"
    },
    {
      "midi": 78,
      "time": 280.833,
      "duration": 0.417,
      "velocity": 1,
      "hand": "right"
    },
    {
      "midi": 86,
      "time": 280.833,
      "duration": 0.417,
      "velocity": 1,
      "hand": "right"
    }
  ]
}
